0, 0, Header, 1, 4, 384
1, 0, Start_track
1, 0, Title_t, "untitled"
1, 0, Sequencer_specific, 3, 0, 0, 65
1, 0, Time_signature, 4, 2, 24, 8
1, 0, Key_signature, 0, "major"
1, 0, Tempo, 413793
1, 0, Marker_t, "1st Mov."
1, 4944, Tempo, 400000
1, 24156, Tempo, 375000
1, 37536, Tempo, 472441
1, 47300, Tempo, 454545
1, 57456, Tempo, 447761
1, 72632, Tempo, 545455
1, 77584, Tempo, 454545
1, 88116, Tempo, 472441
1, 91948, Tempo, 500000
1, 98796, Tempo, 468750
1, 112016, Tempo, 444444
1, 114400, Tempo, 333333
1, 115140, Tempo, 363636
1, 119844, Tempo, 375000
1, 127428, Tempo, 400000
1, 145920, Tempo, 400000
1, 145984, Tempo, 402685
1, 146048, Tempo, 405405
1, 146112, Tempo, 408163
1, 146176, Tempo, 410959
1, 146240, Tempo, 413793
1, 146304, Tempo, 416667
1, 146368, Tempo, 419580
1, 146432, Tempo, 422535
1, 146496, Tempo, 425532
1, 146560, Tempo, 428571
1, 146624, Tempo, 431655
1, 146688, Tempo, 434783
1, 146752, Tempo, 437956
1, 146816, Tempo, 441176
1, 146880, Tempo, 444444
1, 147992, Tempo, 333333
1, 148732, Tempo, 363636
1, 153444, Tempo, 375000
1, 158440, Tempo, 500000
1, 160112, Tempo, 468750
1, 162516, Tempo, 500000
1, 166764, Tempo, 571429
1, 168192, Tempo, 545455
1, 171068, Tempo, 571429
1, 171604, Tempo, 618557
1, 172136, Tempo, 550459
1, 184136, Tempo, 545455
1, 189808, Tempo, 413793
1, 210432, Tempo, 413793
1, 210616, Tempo, 416667
1, 210800, Tempo, 419580
1, 210896, Tempo, 416667
1, 210984, Tempo, 422535
1, 211168, Tempo, 425532
1, 211352, Tempo, 428571
1, 211360, Tempo, 419580
1, 211536, Tempo, 431655
1, 211824, Tempo, 422535
1, 212288, Tempo, 425532
1, 212752, Tempo, 428571
1, 213216, Tempo, 431655
1, 213680, Tempo, 434783
1, 214144, Tempo, 437956
1, 214608, Tempo, 441176
1, 215072, Tempo, 444444
1, 216692, Tempo, 437956
1, 273948, Tempo, 545455
1, 293564, Tempo, 480000
1, 302268, Tempo, 500000
1, 315116, Tempo, 461538
1, 316544, Tempo, 480000
1, 329916, Tempo, 428571
1, 339456, Tempo, 428571
1, 339640, Tempo, 431655
1, 339824, Tempo, 434783
1, 340008, Tempo, 437956
1, 340192, Tempo, 441176
1, 340376, Tempo, 444444
1, 340560, Tempo, 447761
1, 340744, Tempo, 451128
1, 340928, Tempo, 454545
1, 341112, Tempo, 458015
1, 341296, Tempo, 461538
1, 341480, Tempo, 465116
1, 341664, Tempo, 468750
1, 341848, Tempo, 472441
1, 342032, Tempo, 476190
1, 342216, Tempo, 480000
1, 342400, Tempo, 483871
1, 342584, Tempo, 487805
1, 342768, Tempo, 491803
1, 342952, Tempo, 495868
1, 343136, Tempo, 500000
1, 343644, Tempo, 400000
1, 362820, Tempo, 387097
1, 376116, Tempo, 451128
1, 420220, Tempo, 472441
1, 449596, Tempo, 352941
1, 455048, Tempo, 375000
1, 471476, Tempo, 387097
1, 483228, Tempo, 342857
1, 488688, Tempo, 375000
1, 493352, Tempo, 472441
1, 505188, Tempo, 521739
1, 523024, Tempo, 408163
1, 524592, Tempo, 428571
1, 528232, Tempo, 408163
1, 545696, Tempo, 461538
1, 578700, Tempo, 444444
1, 580028, Tempo, 434783
1, 582052, Tempo, 422535
1, 591360, Tempo, 422535
1, 591420, Tempo, 410959
1, 591444, Tempo, 425532
1, 591480, Tempo, 413793
1, 591528, Tempo, 428571
1, 591540, Tempo, 416667
1, 591600, Tempo, 419580
1, 591612, Tempo, 431655
1, 591660, Tempo, 422535
1, 591696, Tempo, 434783
1, 591720, Tempo, 425532
1, 591780, Tempo, 437956
1, 591840, Tempo, 431655
1, 591864, Tempo, 441176
1, 591900, Tempo, 434783
1, 591948, Tempo, 444444
1, 591960, Tempo, 437956
1, 592020, Tempo, 441176
1, 592032, Tempo, 447761
1, 592080, Tempo, 444444
1, 592116, Tempo, 451128
1, 592140, Tempo, 447761
1, 592200, Tempo, 454545
1, 592260, Tempo, 454545
1, 592284, Tempo, 458015
1, 592368, Tempo, 461538
1, 592452, Tempo, 465116
1, 592536, Tempo, 468750
1, 592620, Tempo, 472441
1, 593720, Tempo, 472441
1, 607628, Tempo, 500000
1, 626092, Tempo, 428571
1, 689664, Tempo, 434783
1, 689664, Marker_t, "2nd Mov."
1, 889604, Tempo, 428571
1, 900096, Marker_t, "3rd Mov."
1, 902756, Tempo, 422535
1, 925716, Tempo, 461538
1, 926336, Tempo, 422535
1, 928784, Tempo, 444444
1, 954544, Tempo, 454545
1, 970212, Tempo, 444444
1, 977592, Tempo, 428571
1, 978560, Tempo, 454545
1, 981208, Tempo, 465116
1, 1016516, Tempo, 491803
1, 1040296, Tempo, 413793
1, 1053308, Tempo, 517241
1, 1059864, Tempo, 454545
1, 1081760, Tempo, 480000
1, 1083912, Tempo, 461538
1, 1086664, Tempo, 480000
1, 1087448, Tempo, 461538
1, 1118816, Tempo, 428571
1, 1119536, Tempo, 444444
1, 1121420, Tempo, 428571
1, 1121684, Tempo, 434783
1, 1129152, Tempo, 444444
1, 1136688, Tempo, 447761
1, 1153624, Tempo, 480000
1, 1155812, Tempo, 461538
1, 1162724, Tempo, 437956
1, 1188536, Tempo, 454545
1, 1204624, Tempo, 434783
1, 1215272, Tempo, 447761
1, 1235796, Tempo, 472441
1, 1274708, Tempo, 394737
1, 1280280, Tempo, 428571
1, 1287736, Tempo, 500000
1, 1294276, Tempo, 389610
1, 1317856, Tempo, 428571
1, 1374344, Tempo, 410959
1, 1407384, Tempo, 444444
1, 1426192, Tempo, 461538
1, 1434512, Tempo, 382166
1, 1442272, Tempo, 400000
1, 1444508, Tempo, 413793
1, 1444508, End_track
2, 0, Start_track
2, 0, Title_t, "Concerto in A Min"
2, 0, Program_c, 0, 0
2, 0, Control_c, 0, 7, 115
2, 92, Control_c, 0, 64, 40
2, 108, Control_c, 0, 64, 104
2, 124, Control_c, 0, 64, 127
2, 168, Note_on_c, 0, 76, 100
2, 168, Note_on_c, 0, 52, 98
2, 172, Note_on_c, 0, 40, 92
2, 224, Note_on_c, 0, 40, 0
2, 492, Control_c, 0, 64, 40
2, 504, Control_c, 0, 64, 127
2, 540, Note_on_c, 0, 88, 97
2, 540, Note_on_c, 0, 80, 80
2, 540, Note_on_c, 0, 72, 83
2, 540, Note_on_c, 0, 76, 81
2, 540, Note_on_c, 0, 68, 77
2, 552, Note_on_c, 0, 84, 79
2, 580, Note_on_c, 0, 84, 0
2, 592, Note_on_c, 0, 76, 0
2, 604, Note_on_c, 0, 72, 0
2, 604, Note_on_c, 0, 68, 0
2, 612, Note_on_c, 0, 80, 0
2, 612, Note_on_c, 0, 52, 0
2, 616, Note_on_c, 0, 76, 0
2, 624, Note_on_c, 0, 88, 0
2, 652, Note_on_c, 0, 89, 106
2, 652, Note_on_c, 0, 69, 94
2, 652, Note_on_c, 0, 72, 84
2, 652, Note_on_c, 0, 77, 95
2, 652, Note_on_c, 0, 84, 94
2, 652, Note_on_c, 0, 81, 95
2, 688, Note_on_c, 0, 72, 0
2, 696, Note_on_c, 0, 84, 0
2, 700, Note_on_c, 0, 77, 0
2, 700, Note_on_c, 0, 81, 0
2, 712, Note_on_c, 0, 69, 0
2, 720, Note_on_c, 0, 89, 0
2, 1144, Control_c, 0, 64, 104
2, 1204, Control_c, 0, 64, 88
2, 1224, Control_c, 0, 64, 72
2, 1240, Note_on_c, 0, 85, 94
2, 1240, Note_on_c, 0, 73, 79
2, 1240, Note_on_c, 0, 81, 88
2, 1240, Note_on_c, 0, 64, 84
2, 1240, Note_on_c, 0, 69, 74
2, 1240, Note_on_c, 0, 76, 83
2, 1240, Control_c, 0, 64, 56
2, 1252, Control_c, 0, 64, 40
2, 1264, Note_on_c, 0, 76, 0
2, 1268, Note_on_c, 0, 69, 0
2, 1268, Control_c, 0, 64, 0
2, 1284, Note_on_c, 0, 64, 0
2, 1292, Note_on_c, 0, 81, 0
2, 1292, Note_on_c, 0, 73, 0
2, 1312, Note_on_c, 0, 85, 0
2, 1328, Control_c, 0, 64, 72
2, 1340, Note_on_c, 0, 86, 103
2, 1340, Note_on_c, 0, 77, 103
2, 1340, Note_on_c, 0, 65, 87
2, 1340, Note_on_c, 0, 74, 88
2, 1340, Note_on_c, 0, 69, 74
2, 1340, Control_c, 0, 64, 56
2, 1360, Note_on_c, 0, 74, 0
2, 1360, Control_c, 0, 64, 104
2, 1368, Note_on_c, 0, 69, 0
2, 1372, Note_on_c, 0, 65, 0
2, 1372, Control_c, 0, 64, 127
2, 1384, Note_on_c, 0, 77, 0
2, 1388, Note_on_c, 0, 86, 0
2, 1620, Note_on_c, 0, 81, 91
2, 1620, Note_on_c, 0, 73, 84
2, 1620, Note_on_c, 0, 61, 78
2, 1620, Note_on_c, 0, 69, 92
2, 1620, Note_on_c, 0, 77, 88
2, 1644, Note_on_c, 0, 77, 0
2, 1644, Note_on_c, 0, 69, 0
2, 1660, Note_on_c, 0, 73, 0
2, 1676, Note_on_c, 0, 81, 0
2, 1684, Control_c, 0, 64, 72
2, 1688, Note_on_c, 0, 61, 0
2, 1692, Note_on_c, 0, 82, 101
2, 1692, Note_on_c, 0, 65, 85
2, 1692, Note_on_c, 0, 70, 83
2, 1692, Note_on_c, 0, 62, 88
2, 1692, Note_on_c, 0, 77, 74
2, 1692, Note_on_c, 0, 74, 100
2, 1700, Control_c, 0, 64, 0
2, 1716, Note_on_c, 0, 77, 0
2, 1720, Note_on_c, 0, 70, 0
2, 1720, Note_on_c, 0, 65, 0
2, 1724, Note_on_c, 0, 62, 0
2, 1732, Control_c, 0, 64, 72
2, 1744, Note_on_c, 0, 74, 0
2, 1744, Control_c, 0, 64, 127
2, 1772, Note_on_c, 0, 82, 0
2, 1972, Note_on_c, 0, 80, 95
2, 1972, Note_on_c, 0, 71, 79
2, 1972, Note_on_c, 0, 76, 79
2, 1972, Note_on_c, 0, 68, 58
2, 1972, Note_on_c, 0, 59, 71
2, 2000, Note_on_c, 0, 76, 0
2, 2000, Note_on_c, 0, 71, 0
2, 2004, Note_on_c, 0, 59, 0
2, 2004, Note_on_c, 0, 64, 66
2, 2012, Note_on_c, 0, 68, 0
2, 2040, Note_on_c, 0, 64, 0
2, 2056, Control_c, 0, 64, 88
2, 2068, Note_on_c, 0, 64, 75
2, 2068, Note_on_c, 0, 76, 79
2, 2068, Note_on_c, 0, 81, 108
2, 2068, Note_on_c, 0, 72, 79
2, 2068, Note_on_c, 0, 60, 90
2, 2068, Note_on_c, 0, 69, 84
2, 2068, Control_c, 0, 64, 24
2, 2084, Control_c, 0, 64, 40
2, 2096, Note_on_c, 0, 80, 0
2, 2104, Control_c, 0, 64, 104
2, 2108, Note_on_c, 0, 72, 0
2, 2108, Note_on_c, 0, 76, 0
2, 2112, Note_on_c, 0, 64, 0
2, 2112, Note_on_c, 0, 69, 0
2, 2120, Control_c, 0, 64, 127
2, 2124, Note_on_c, 0, 60, 0
2, 2136, Note_on_c, 0, 81, 0
2, 2336, Note_on_c, 0, 56, 82
2, 2336, Note_on_c, 0, 76, 87
2, 2336, Note_on_c, 0, 68, 70
2, 2336, Note_on_c, 0, 64, 83
2, 2336, Note_on_c, 0, 72, 67
2, 2336, Note_on_c, 0, 60, 84
2, 2364, Note_on_c, 0, 72, 0
2, 2368, Note_on_c, 0, 64, 0
2, 2376, Note_on_c, 0, 60, 0
2, 2380, Note_on_c, 0, 68, 0
2, 2392, Note_on_c, 0, 56, 0
2, 2396, Note_on_c, 0, 76, 0
2, 2416, Note_on_c, 0, 77, 98
2, 2416, Note_on_c, 0, 60, 88
2, 2416, Note_on_c, 0, 65, 89
2, 2416, Note_on_c, 0, 57, 83
2, 2416, Note_on_c, 0, 72, 72
2, 2416, Note_on_c, 0, 69, 95
2, 2428, Control_c, 0, 64, 24
2, 2444, Control_c, 0, 64, 0
2, 2448, Note_on_c, 0, 72, 0
2, 2456, Note_on_c, 0, 65, 0
2, 2464, Note_on_c, 0, 57, 0
2, 2468, Note_on_c, 0, 60, 0
2, 2468, Note_on_c, 0, 69, 0
2, 2476, Control_c, 0, 64, 56
2, 2492, Note_on_c, 0, 77, 0
2, 2492, Control_c, 0, 64, 127
2, 2692, Note_on_c, 0, 73, 89
2, 2692, Note_on_c, 0, 61, 80
2, 2692, Note_on_c, 0, 52, 85
2, 2692, Note_on_c, 0, 64, 75
2, 2692, Note_on_c, 0, 57, 74
2, 2692, Note_on_c, 0, 69, 75
2, 2716, Note_on_c, 0, 57, 0
2, 2720, Note_on_c, 0, 69, 0
2, 2724, Note_on_c, 0, 64, 0
2, 2728, Note_on_c, 0, 52, 0
2, 2736, Note_on_c, 0, 61, 0
2, 2760, Note_on_c, 0, 73, 0
2, 2780, Note_on_c, 0, 74, 106
2, 2780, Note_on_c, 0, 65, 86
2, 2780, Note_on_c, 0, 53, 85
2, 2780, Note_on_c, 0, 62, 70
2, 2780, Note_on_c, 0, 57, 73
2, 2784, Control_c, 0, 64, 24
2, 2800, Control_c, 0, 64, 0
2, 2812, Note_on_c, 0, 62, 0
2, 2816, Control_c, 0, 64, 56
2, 2824, Note_on_c, 0, 65, 0
2, 2828, Note_on_c, 0, 57, 0
2, 2832, Control_c, 0, 64, 127
2, 2840, Note_on_c, 0, 53, 0
2, 2848, Note_on_c, 0, 74, 0
2, 3048, Note_on_c, 0, 61, 80
2, 3052, Note_on_c, 0, 69, 91
2, 3052, Note_on_c, 0, 49, 87
2, 3052, Note_on_c, 0, 53, 88
2, 3052, Note_on_c, 0, 65, 76
2, 3052, Note_on_c, 0, 57, 87
2, 3080, Note_on_c, 0, 65, 0
2, 3092, Control_c, 0, 64, 104
2, 3100, Note_on_c, 0, 57, 0
2, 3104, Note_on_c, 0, 61, 0
2, 3108, Note_on_c, 0, 49, 0
2, 3108, Control_c, 0, 64, 40
2, 3112, Note_on_c, 0, 69, 0
2, 3112, Note_on_c, 0, 53, 0
2, 3124, Control_c, 0, 64, 88
2, 3128, Note_on_c, 0, 70, 102
2, 3128, Note_on_c, 0, 62, 98
2, 3128, Note_on_c, 0, 50, 79
2, 3128, Note_on_c, 0, 53, 73
2, 3128, Note_on_c, 0, 58, 82
2, 3140, Control_c, 0, 64, 127
2, 3156, Note_on_c, 0, 58, 0
2, 3156, Note_on_c, 0, 53, 0
2, 3180, Note_on_c, 0, 62, 0
2, 3184, Note_on_c, 0, 50, 0
2, 3224, Note_on_c, 0, 70, 0
2, 3404, Note_on_c, 0, 68, 94
2, 3404, Note_on_c, 0, 59, 78
2, 3404, Note_on_c, 0, 56, 76
2, 3404, Note_on_c, 0, 64, 81
2, 3404, Note_on_c, 0, 52, 70
2, 3404, Note_on_c, 0, 47, 78
2, 3436, Note_on_c, 0, 52, 0
2, 3440, Note_on_c, 0, 59, 0
2, 3444, Note_on_c, 0, 64, 0
2, 3464, Note_on_c, 0, 47, 0
2, 3468, Note_on_c, 0, 56, 0
2, 3476, Note_on_c, 0, 68, 0
2, 3500, Note_on_c, 0, 69, 104
2, 3500, Note_on_c, 0, 57, 94
2, 3500, Note_on_c, 0, 52, 88
2, 3500, Note_on_c, 0, 48, 97
2, 3516, Control_c, 0, 64, 104
2, 3528, Note_on_c, 0, 52, 0
2, 3528, Note_on_c, 0, 57, 0
2, 3528, Control_c, 0, 64, 24
2, 3552, Note_on_c, 0, 48, 0
2, 3568, Note_on_c, 0, 69, 0
2, 3576, Control_c, 0, 64, 127
2, 3804, Control_c, 0, 64, 40
2, 3820, Note_on_c, 0, 65, 94
2, 3820, Note_on_c, 0, 57, 77
2, 3820, Note_on_c, 0, 62, 81
2, 3820, Note_on_c, 0, 38, 83
2, 3820, Note_on_c, 0, 50, 93
2, 3836, Control_c, 0, 64, 127
2, 3848, Note_on_c, 0, 38, 0
2, 3852, Note_on_c, 0, 57, 0
2, 3864, Note_on_c, 0, 50, 0
2, 3864, Note_on_c, 0, 62, 0
2, 3884, Note_on_c, 0, 65, 0
2, 3924, Note_on_c, 0, 64, 109
2, 3924, Note_on_c, 0, 60, 96
2, 3924, Note_on_c, 0, 52, 100
2, 3924, Note_on_c, 0, 40, 91
2, 3924, Note_on_c, 0, 57, 88
2, 3948, Control_c, 0, 64, 56
2, 3952, Note_on_c, 0, 60, 0
2, 3960, Control_c, 0, 64, 0
2, 3964, Note_on_c, 0, 40, 0
2, 3972, Note_on_c, 0, 57, 0
2, 3976, Note_on_c, 0, 52, 0
2, 3976, Control_c, 0, 64, 56
2, 3992, Control_c, 0, 64, 104
2, 4008, Control_c, 0, 64, 127
2, 4020, Note_on_c, 0, 64, 0
2, 4208, Control_c, 0, 64, 88
2, 4228, Control_c, 0, 64, 0
2, 4384, Note_on_c, 0, 80, 98
2, 4388, Note_on_c, 0, 64, 78
2, 4388, Control_c, 0, 64, 56
2, 4392, Note_on_c, 0, 80, 107
2, 4392, Note_on_c, 0, 68, 97
2, 4392, Note_on_c, 0, 76, 95
2, 4392, Note_on_c, 0, 76, 91
2, 4392, Note_on_c, 0, 71, 84
2, 4392, Note_on_c, 0, 52, 73
2, 4392, Note_on_c, 0, 59, 70
2, 4404, Note_on_c, 0, 71, 94
2, 4408, Note_on_c, 0, 74, 90
2, 4408, Control_c, 0, 64, 104
2, 4412, Control_c, 0, 64, 127
2, 4416, Note_on_c, 0, 40, 87
2, 4416, Note_on_c, 0, 52, 95
2, 4424, Note_on_c, 0, 64, 0
2, 4424, Control_c, 0, 64, 127
2, 4432, Note_on_c, 0, 59, 0
2, 4436, Note_on_c, 0, 74, 0
2, 4460, Note_on_c, 0, 76, 0
2, 4460, Note_on_c, 0, 68, 0
2, 4460, Note_on_c, 0, 71, 0
2, 4464, Note_on_c, 0, 52, 0
2, 4468, Note_on_c, 0, 40, 0
2, 4468, Note_on_c, 0, 52, 0
2, 4472, Note_on_c, 0, 71, 0
2, 4476, Note_on_c, 0, 80, 0
2, 4480, Note_on_c, 0, 76, 0
2, 4504, Note_on_c, 0, 80, 0
2, 4700, Control_c, 0, 64, 104
2, 4712, Control_c, 0, 64, 40
2, 4732, Note_on_c, 0, 33, 88
2, 4736, Note_on_c, 0, 45, 89
2, 4764, Control_c, 0, 64, 127
2, 4844, Control_c, 0, 64, 24
2, 4860, Control_c, 0, 64, 0
2, 4944, Note_on_c, 0, 81, 109
2, 4948, Note_on_c, 0, 33, 0
2, 4952, Note_on_c, 0, 69, 101
2, 4956, Note_on_c, 0, 72, 99
2, 4956, Note_on_c, 0, 76, 100
2, 4964, Note_on_c, 0, 45, 0
2, 4964, Note_on_c, 0, 33, 92
2, 4968, Note_on_c, 0, 45, 99
2, 4968, Note_on_c, 0, 64, 76
2, 4972, Control_c, 0, 64, 56
2, 4976, Note_on_c, 0, 69, 83
2, 4984, Control_c, 0, 64, 127
2, 4984, Note_on_c, 0, 72, 90
2, 5000, Note_on_c, 0, 60, 78
2, 5008, Control_c, 0, 64, 104
2, 5012, Note_on_c, 0, 33, 0
2, 5012, Note_on_c, 0, 57, 66
2, 5020, Note_on_c, 0, 52, 61
2, 5024, Control_c, 0, 64, 24
2, 5040, Control_c, 0, 64, 0
2, 5084, Control_c, 0, 64, 72
2, 5104, Control_c, 0, 64, 127
2, 5164, Control_c, 0, 64, 56
2, 5180, Control_c, 0, 64, 0
2, 5256, Control_c, 0, 64, 104
2, 5272, Control_c, 0, 64, 127
2, 5720, Note_on_c, 0, 81, 0
2, 5728, Note_on_c, 0, 69, 0
2, 5732, Note_on_c, 0, 76, 0
2, 5740, Note_on_c, 0, 72, 0
2, 5744, Note_on_c, 0, 69, 0
2, 5748, Note_on_c, 0, 45, 0
2, 5756, Note_on_c, 0, 64, 0
2, 5768, Note_on_c, 0, 72, 0
2, 5772, Note_on_c, 0, 60, 0
2, 5796, Note_on_c, 0, 57, 0
2, 5800, Note_on_c, 0, 52, 0
2, 5960, Note_on_c, 0, 71, 84
2, 5960, Note_on_c, 0, 64, 67
2, 5960, Note_on_c, 0, 68, 67
2, 5960, Note_on_c, 0, 50, 63
2, 5960, Note_on_c, 0, 52, 59
2, 5960, Note_on_c, 0, 59, 60
2, 6052, Control_c, 0, 64, 104
2, 6072, Control_c, 0, 64, 88
2, 6084, Control_c, 0, 64, 72
2, 6092, Control_c, 0, 64, 88
2, 6100, Control_c, 0, 64, 56
2, 6108, Control_c, 0, 64, 24
2, 6116, Control_c, 0, 64, 40
2, 6124, Control_c, 0, 64, 0
2, 6132, Control_c, 0, 64, 24
2, 6148, Control_c, 0, 64, 0
2, 6280, Control_c, 0, 64, 40
2, 6296, Control_c, 0, 64, 127
2, 6320, Note_on_c, 0, 50, 0
2, 6352, Note_on_c, 0, 52, 0
2, 6356, Note_on_c, 0, 59, 0
2, 6404, Note_on_c, 0, 68, 0
2, 6416, Note_on_c, 0, 64, 0
2, 6448, Note_on_c, 0, 71, 0
2, 6724, Note_on_c, 0, 69, 79
2, 6724, Note_on_c, 0, 64, 58
2, 6724, Note_on_c, 0, 57, 60
2, 6724, Note_on_c, 0, 48, 66
2, 6724, Note_on_c, 0, 52, 63
2, 6724, Control_c, 0, 64, 72
2, 6760, Control_c, 0, 64, 0
2, 6780, Note_on_c, 0, 48, 0
2, 6792, Control_c, 0, 64, 24
2, 6804, Note_on_c, 0, 57, 0
2, 6804, Control_c, 0, 64, 72
2, 6812, Note_on_c, 0, 52, 0
2, 6820, Control_c, 0, 64, 127
2, 6828, Note_on_c, 0, 64, 0
2, 6844, Note_on_c, 0, 69, 0
2, 7052, Note_on_c, 0, 69, 79
2, 7052, Note_on_c, 0, 57, 62
2, 7052, Note_on_c, 0, 48, 62
2, 7052, Note_on_c, 0, 52, 58
2, 7052, Note_on_c, 0, 64, 58
2, 7176, Control_c, 0, 64, 104
2, 7192, Control_c, 0, 64, 56
2, 7208, Control_c, 0, 64, 0
2, 7408, Control_c, 0, 64, 40
2, 7428, Control_c, 0, 64, 104
2, 7440, Control_c, 0, 64, 127
2, 7536, Note_on_c, 0, 48, 0
2, 7552, Note_on_c, 0, 52, 0
2, 7560, Note_on_c, 0, 64, 0
2, 7568, Note_on_c, 0, 57, 0
2, 7600, Note_on_c, 0, 69, 0
2, 8288, Note_on_c, 0, 48, 74
2, 8288, Note_on_c, 0, 69, 78
2, 8288, Note_on_c, 0, 64, 68
2, 8288, Note_on_c, 0, 57, 68
2, 8308, Control_c, 0, 64, 56
2, 8324, Control_c, 0, 64, 24
2, 8356, Note_on_c, 0, 57, 0
2, 8356, Control_c, 0, 64, 72
2, 8368, Note_on_c, 0, 64, 0
2, 8368, Control_c, 0, 64, 127
2, 8396, Note_on_c, 0, 48, 0
2, 8404, Note_on_c, 0, 69, 0
2, 8528, Note_on_c, 0, 71, 87
2, 8536, Note_on_c, 0, 52, 74
2, 8540, Control_c, 0, 64, 72
2, 8548, Note_on_c, 0, 64, 73
2, 8548, Note_on_c, 0, 59, 58
2, 8556, Control_c, 0, 64, 56
2, 8572, Note_on_c, 0, 68, 42
2, 8572, Control_c, 0, 64, 88
2, 8576, Note_on_c, 0, 52, 0
2, 8588, Control_c, 0, 64, 127
2, 8600, Note_on_c, 0, 59, 0
2, 8600, Note_on_c, 0, 68, 0
2, 8608, Note_on_c, 0, 64, 0
2, 8612, Note_on_c, 0, 71, 0
2, 8752, Note_on_c, 0, 72, 99
2, 8756, Control_c, 0, 64, 56
2, 8768, Note_on_c, 0, 64, 81
2, 8776, Note_on_c, 0, 57, 68
2, 8776, Control_c, 0, 64, 0
2, 8780, Note_on_c, 0, 60, 66
2, 8792, Note_on_c, 0, 69, 69
2, 8816, Note_on_c, 0, 69, 0
2, 8820, Control_c, 0, 64, 40
2, 8832, Note_on_c, 0, 64, 0
2, 8832, Note_on_c, 0, 60, 0
2, 8836, Control_c, 0, 64, 127
2, 8848, Note_on_c, 0, 57, 0
2, 8852, Note_on_c, 0, 72, 0
2, 9096, Note_on_c, 0, 76, 97
2, 9108, Note_on_c, 0, 64, 68
2, 9112, Note_on_c, 0, 57, 65
2, 9112, Note_on_c, 0, 50, 64
2, 9112, Note_on_c, 0, 69, 74
2, 9124, Note_on_c, 0, 65, 68
2, 9224, Control_c, 0, 64, 104
2, 9240, Control_c, 0, 64, 40
2, 9256, Control_c, 0, 64, 0
2, 9376, Control_c, 0, 64, 72
2, 9392, Control_c, 0, 64, 127
2, 9648, Note_on_c, 0, 64, 0
2, 9664, Note_on_c, 0, 57, 0
2, 9668, Note_on_c, 0, 50, 0
2, 9668, Note_on_c, 0, 69, 0
2, 9708, Note_on_c, 0, 76, 0
2, 9712, Note_on_c, 0, 65, 0
2, 10044, Note_on_c, 0, 65, 60
2, 10044, Note_on_c, 0, 74, 82
2, 10044, Note_on_c, 0, 69, 63
2, 10048, Note_on_c, 0, 62, 59
2, 10052, Note_on_c, 0, 50, 67
2, 10064, Note_on_c, 0, 57, 60
2, 10152, Control_c, 0, 64, 104
2, 10168, Control_c, 0, 64, 40
2, 10184, Control_c, 0, 64, 0
2, 10308, Control_c, 0, 64, 104
2, 10324, Control_c, 0, 64, 127
2, 10376, Note_on_c, 0, 69, 0
2, 10384, Note_on_c, 0, 50, 0
2, 10392, Note_on_c, 0, 74, 0
2, 10400, Note_on_c, 0, 65, 0
2, 10400, Note_on_c, 0, 62, 0
2, 10412, Note_on_c, 0, 57, 0
2, 10716, Note_on_c, 0, 72, 90
2, 10716, Note_on_c, 0, 51, 71
2, 10716, Note_on_c, 0, 69, 68
2, 10716, Note_on_c, 0, 57, 66
2, 10716, Note_on_c, 0, 60, 69
2, 10716, Note_on_c, 0, 66, 66
2, 10740, Control_c, 0, 64, 88
2, 10744, Control_c, 0, 64, 24
2, 10760, Note_on_c, 0, 69, 0
2, 10764, Note_on_c, 0, 57, 0
2, 10772, Control_c, 0, 64, 0
2, 10780, Note_on_c, 0, 60, 0
2, 10788, Note_on_c, 0, 66, 0
2, 10788, Control_c, 0, 64, 40
2, 10796, Note_on_c, 0, 51, 0
2, 10804, Control_c, 0, 64, 72
2, 10820, Control_c, 0, 64, 127
2, 10832, Note_on_c, 0, 72, 0
2, 10980, Note_on_c, 0, 72, 84
2, 10980, Note_on_c, 0, 64, 67
2, 10980, Note_on_c, 0, 60, 66
2, 10980, Note_on_c, 0, 57, 67
2, 10980, Note_on_c, 0, 52, 68
2, 10980, Note_on_c, 0, 69, 68
2, 11084, Control_c, 0, 64, 104
2, 11100, Control_c, 0, 64, 24
2, 11112, Control_c, 0, 64, 0
2, 11268, Control_c, 0, 64, 88
2, 11284, Control_c, 0, 64, 127
2, 11504, Note_on_c, 0, 69, 0
2, 11532, Note_on_c, 0, 60, 0
2, 11568, Note_on_c, 0, 52, 0
2, 11604, Note_on_c, 0, 72, 0
2, 11604, Note_on_c, 0, 64, 0
2, 11616, Note_on_c, 0, 57, 0
2, 11920, Note_on_c, 0, 71, 79
2, 11920, Note_on_c, 0, 68, 65
2, 11920, Note_on_c, 0, 64, 67
2, 11920, Note_on_c, 0, 52, 69
2, 11920, Note_on_c, 0, 59, 65
2, 12012, Control_c, 0, 64, 24
2, 12028, Control_c, 0, 64, 0
2, 12084, Note_on_c, 0, 52, 0
2, 12104, Note_on_c, 0, 59, 0
2, 12120, Control_c, 0, 64, 104
2, 12128, Note_on_c, 0, 68, 0
2, 12136, Control_c, 0, 64, 127
2, 12148, Note_on_c, 0, 64, 0
2, 12148, Note_on_c, 0, 71, 0
2, 12404, Note_on_c, 0, 70, 82
2, 12404, Note_on_c, 0, 58, 66
2, 12404, Note_on_c, 0, 64, 66
2, 12404, Note_on_c, 0, 50, 68
2, 12404, Note_on_c, 0, 67, 68
2, 12448, Control_c, 0, 64, 104
2, 12460, Control_c, 0, 64, 0
2, 12540, Control_c, 0, 64, 72
2, 12544, Note_on_c, 0, 50, 0
2, 12556, Control_c, 0, 64, 127
2, 12612, Note_on_c, 0, 58, 0
2, 12616, Note_on_c, 0, 64, 0
2, 12688, Note_on_c, 0, 67, 0
2, 12744, Note_on_c, 0, 70, 0
2, 12904, Note_on_c, 0, 69, 81
2, 12904, Note_on_c, 0, 57, 65
2, 12904, Note_on_c, 0, 49, 70
2, 12904, Note_on_c, 0, 64, 64
2, 12904, Note_on_c, 0, 67, 65
2, 12984, Control_c, 0, 64, 88
2, 13004, Control_c, 0, 64, 0
2, 13056, Note_on_c, 0, 49, 0
2, 13064, Note_on_c, 0, 64, 0
2, 13068, Note_on_c, 0, 67, 0
2, 13080, Note_on_c, 0, 57, 0
2, 13080, Control_c, 0, 64, 72
2, 13096, Control_c, 0, 64, 127
2, 13136, Note_on_c, 0, 69, 0
2, 13224, Note_on_c, 0, 49, 61
2, 13264, Note_on_c, 0, 49, 0
2, 13292, Note_on_c, 0, 57, 66
2, 13408, Note_on_c, 0, 57, 0
2, 13444, Note_on_c, 0, 64, 68
2, 13460, Note_on_c, 0, 81, 94
2, 13484, Note_on_c, 0, 69, 73
2, 13484, Note_on_c, 0, 67, 69
2, 13496, Note_on_c, 0, 64, 0
2, 13868, Note_on_c, 0, 67, 0
2, 13916, Note_on_c, 0, 69, 0
2, 14072, Note_on_c, 0, 81, 0
2, 14168, Note_on_c, 0, 76, 75
2, 14208, Note_on_c, 0, 76, 0
2, 14244, Note_on_c, 0, 77, 83
2, 14308, Note_on_c, 0, 76, 94
2, 14320, Note_on_c, 0, 77, 0
2, 14468, Note_on_c, 0, 76, 0
2, 14496, Note_on_c, 0, 75, 90
2, 14664, Note_on_c, 0, 75, 0
2, 14704, Note_on_c, 0, 76, 95
2, 14972, Note_on_c, 0, 76, 0
2, 14992, Note_on_c, 0, 79, 92
2, 15092, Control_c, 0, 64, 56
2, 15108, Control_c, 0, 64, 0
2, 15144, Control_c, 0, 64, 40
2, 15156, Control_c, 0, 64, 104
2, 15172, Control_c, 0, 64, 127
2, 15216, Note_on_c, 0, 79, 0
2, 15520, Note_on_c, 0, 77, 86
2, 15520, Note_on_c, 0, 50, 68
2, 15520, Note_on_c, 0, 57, 66
2, 15520, Note_on_c, 0, 65, 65
2, 15520, Note_on_c, 0, 69, 68
2, 15684, Control_c, 0, 64, 72
2, 15700, Control_c, 0, 64, 0
2, 15840, Control_c, 0, 64, 88
2, 15856, Control_c, 0, 64, 127
2, 16052, Note_on_c, 0, 50, 0
2, 16084, Note_on_c, 0, 65, 0
2, 16112, Note_on_c, 0, 57, 0
2, 16156, Note_on_c, 0, 77, 0
2, 16156, Note_on_c, 0, 69, 0
2, 16452, Note_on_c, 0, 73, 79
2, 16452, Note_on_c, 0, 67, 67
2, 16452, Note_on_c, 0, 69, 68
2, 16452, Note_on_c, 0, 52, 61
2, 16452, Note_on_c, 0, 57, 61
2, 16600, Control_c, 0, 64, 104
2, 16612, Control_c, 0, 64, 24
2, 16628, Control_c, 0, 64, 0
2, 16768, Control_c, 0, 64, 127
2, 17048, Note_on_c, 0, 73, 0
2, 17100, Note_on_c, 0, 57, 0
2, 17136, Note_on_c, 0, 52, 0
2, 17136, Note_on_c, 0, 69, 0
2, 17172, Note_on_c, 0, 67, 0
2, 17264, Note_on_c, 0, 76, 83
2, 17340, Note_on_c, 0, 76, 0
2, 17392, Note_on_c, 0, 74, 84
2, 17392, Note_on_c, 0, 53, 68
2, 17392, Note_on_c, 0, 57, 63
2, 17392, Note_on_c, 0, 69, 77
2, 17528, Control_c, 0, 64, 56
2, 17540, Control_c, 0, 64, 0
2, 17648, Control_c, 0, 64, 56
2, 17664, Control_c, 0, 64, 127
2, 17732, Note_on_c, 0, 74, 0
2, 17736, Note_on_c, 0, 69, 0
2, 17888, Note_on_c, 0, 53, 0
2, 17960, Note_on_c, 0, 57, 0
2, 18052, Note_on_c, 0, 72, 88
2, 18116, Note_on_c, 0, 72, 0
2, 18224, Control_c, 0, 64, 104
2, 18240, Control_c, 0, 64, 0
2, 18272, Note_on_c, 0, 71, 86
2, 18272, Note_on_c, 0, 62, 68
2, 18272, Note_on_c, 0, 50, 73
2, 18272, Note_on_c, 0, 65, 69
2, 18324, Note_on_c, 0, 62, 0
2, 18332, Control_c, 0, 64, 72
2, 18344, Note_on_c, 0, 65, 0
2, 18348, Note_on_c, 0, 71, 0
2, 18352, Note_on_c, 0, 50, 0
2, 18352, Control_c, 0, 64, 127
2, 18440, Control_c, 0, 64, 104
2, 18456, Control_c, 0, 64, 24
2, 18472, Control_c, 0, 64, 0
2, 18492, Note_on_c, 0, 69, 88
2, 18504, Note_on_c, 0, 66, 63
2, 18508, Note_on_c, 0, 60, 63
2, 18520, Note_on_c, 0, 51, 70
2, 18548, Control_c, 0, 64, 56
2, 18564, Control_c, 0, 64, 127
2, 18580, Note_on_c, 0, 60, 0
2, 18588, Note_on_c, 0, 69, 0
2, 18592, Note_on_c, 0, 66, 0
2, 18596, Note_on_c, 0, 51, 0
2, 18760, Note_on_c, 0, 69, 82
2, 18760, Note_on_c, 0, 64, 61
2, 18760, Note_on_c, 0, 52, 72
2, 18760, Note_on_c, 0, 60, 56
2, 18828, Control_c, 0, 64, 104
2, 18844, Control_c, 0, 64, 56
2, 18860, Control_c, 0, 64, 0
2, 19060, Control_c, 0, 64, 56
2, 19076, Control_c, 0, 64, 104
2, 19092, Control_c, 0, 64, 127
2, 19396, Note_on_c, 0, 60, 0
2, 19480, Note_on_c, 0, 69, 0
2, 19532, Note_on_c, 0, 64, 0
2, 19724, Note_on_c, 0, 68, 64
2, 19724, Note_on_c, 0, 64, 57
2, 19724, Note_on_c, 0, 59, 59
2, 19836, Control_c, 0, 64, 72
2, 19848, Control_c, 0, 64, 0
2, 19960, Control_c, 0, 64, 56
2, 19976, Control_c, 0, 64, 127
2, 20092, Note_on_c, 0, 52, 0
2, 20148, Note_on_c, 0, 64, 0
2, 20164, Note_on_c, 0, 59, 0
2, 20172, Note_on_c, 0, 68, 0
2, 20508, Note_on_c, 0, 57, 74
2, 20508, Note_on_c, 0, 57, 66
2, 20508, Note_on_c, 0, 33, 68
2, 20508, Note_on_c, 0, 45, 63
2, 20628, Control_c, 0, 64, 88
2, 20644, Control_c, 0, 64, 24
2, 20656, Control_c, 0, 64, 0
2, 20876, Control_c, 0, 64, 24
2, 20888, Control_c, 0, 64, 56
2, 20892, Note_on_c, 0, 84, 91
2, 20896, Note_on_c, 0, 57, 0
2, 20900, Note_on_c, 0, 81, 73
2, 20908, Note_on_c, 0, 76, 67
2, 20908, Control_c, 0, 64, 88
2, 20912, Note_on_c, 0, 64, 59
2, 20924, Note_on_c, 0, 72, 61
2, 20924, Control_c, 0, 64, 127
2, 20932, Note_on_c, 0, 69, 51
2, 21044, Note_on_c, 0, 33, 0
2, 21068, Note_on_c, 0, 45, 0
2, 21176, Note_on_c, 0, 57, 0
2, 21204, Note_on_c, 0, 64, 0
2, 21224, Note_on_c, 0, 69, 0
2, 21228, Note_on_c, 0, 72, 0
2, 21276, Note_on_c, 0, 81, 0
2, 21280, Note_on_c, 0, 76, 0
2, 21292, Note_on_c, 0, 84, 0
2, 21836, Note_on_c, 0, 83, 83
2, 21836, Note_on_c, 0, 76, 63
2, 21836, Note_on_c, 0, 71, 53
2, 21836, Note_on_c, 0, 62, 58
2, 21836, Note_on_c, 0, 80, 57
2, 21836, Note_on_c, 0, 64, 58
2, 21836, Note_on_c, 0, 68, 58
2, 21968, Control_c, 0, 64, 72
2, 21984, Control_c, 0, 64, 0
2, 22068, Control_c, 0, 64, 104
2, 22084, Control_c, 0, 64, 56
2, 22100, Control_c, 0, 64, 40
2, 22104, Control_c, 0, 64, 72
2, 22116, Control_c, 0, 64, 24
2, 22120, Control_c, 0, 64, 127
2, 22128, Control_c, 0, 64, 0
2, 22536, Note_on_c, 0, 81, 78
2, 22536, Note_on_c, 0, 64, 58
2, 22536, Note_on_c, 0, 76, 58
2, 22536, Note_on_c, 0, 60, 58
2, 22536, Note_on_c, 0, 69, 59
2, 22572, Control_c, 0, 64, 88
2, 22588, Control_c, 0, 64, 0
2, 22604, Note_on_c, 0, 68, 0
2, 22604, Note_on_c, 0, 80, 0
2, 22608, Note_on_c, 0, 62, 0
2, 22608, Note_on_c, 0, 83, 0
2, 22608, Note_on_c, 0, 64, 0
2, 22620, Note_on_c, 0, 76, 0
2, 22628, Note_on_c, 0, 71, 0
2, 22632, Note_on_c, 0, 76, 0
2, 22632, Note_on_c, 0, 60, 0
2, 22632, Note_on_c, 0, 69, 0
2, 22644, Note_on_c, 0, 64, 0
2, 22648, Control_c, 0, 64, 40
2, 22668, Control_c, 0, 64, 104
2, 22680, Note_on_c, 0, 81, 0
2, 22680, Control_c, 0, 64, 127
2, 22896, Note_on_c, 0, 81, 75
2, 22924, Note_on_c, 0, 64, 58
2, 22924, Note_on_c, 0, 60, 58
2, 22932, Note_on_c, 0, 76, 56
2, 22932, Note_on_c, 0, 69, 43
2, 23048, Control_c, 0, 64, 104
2, 23068, Control_c, 0, 64, 56
2, 23084, Control_c, 0, 64, 0
2, 23284, Control_c, 0, 64, 56
2, 23296, Control_c, 0, 64, 88
2, 23316, Control_c, 0, 64, 127
2, 23344, Note_on_c, 0, 60, 0
2, 23372, Note_on_c, 0, 76, 0
2, 23380, Note_on_c, 0, 69, 0
2, 23388, Note_on_c, 0, 81, 0
2, 23396, Note_on_c, 0, 64, 0
2, 24160, Note_on_c, 0, 81, 78
2, 24160, Control_c, 0, 64, 88
2, 24176, Note_on_c, 0, 69, 56
2, 24176, Control_c, 0, 64, 24
2, 24188, Note_on_c, 0, 64, 63
2, 24188, Note_on_c, 0, 60, 48
2, 24192, Control_c, 0, 64, 0
2, 24204, Note_on_c, 0, 76, 46
2, 24208, Control_c, 0, 64, 24
2, 24224, Control_c, 0, 64, 56
2, 24240, Control_c, 0, 64, 104
2, 24252, Note_on_c, 0, 64, 0
2, 24252, Control_c, 0, 64, 127
2, 24280, Note_on_c, 0, 69, 0
2, 24300, Note_on_c, 0, 60, 0
2, 24328, Note_on_c, 0, 81, 0
2, 24332, Note_on_c, 0, 76, 0
2, 24452, Control_c, 0, 64, 40
2, 24460, Note_on_c, 0, 83, 88
2, 24468, Control_c, 0, 64, 0
2, 24476, Note_on_c, 0, 64, 63
2, 24480, Note_on_c, 0, 71, 61
2, 24480, Note_on_c, 0, 76, 66
2, 24488, Note_on_c, 0, 80, 54
2, 24520, Control_c, 0, 64, 72
2, 24532, Note_on_c, 0, 80, 0
2, 24532, Note_on_c, 0, 64, 0
2, 24532, Control_c, 0, 64, 127
2, 24536, Note_on_c, 0, 76, 0
2, 24556, Note_on_c, 0, 71, 0
2, 24556, Note_on_c, 0, 83, 0
2, 24716, Note_on_c, 0, 84, 95
2, 24732, Note_on_c, 0, 76, 78
2, 24732, Note_on_c, 0, 69, 73
2, 24732, Control_c, 0, 64, 40
2, 24736, Note_on_c, 0, 81, 79
2, 24736, Note_on_c, 0, 72, 67
2, 24748, Control_c, 0, 64, 0
2, 24788, Note_on_c, 0, 76, 0
2, 24796, Control_c, 0, 64, 88
2, 24808, Note_on_c, 0, 81, 0
2, 24808, Control_c, 0, 64, 127
2, 24816, Note_on_c, 0, 84, 0
2, 24816, Note_on_c, 0, 72, 0
2, 24836, Note_on_c, 0, 69, 0
2, 25048, Note_on_c, 0, 88, 94
2, 25056, Note_on_c, 0, 76, 57
2, 25060, Note_on_c, 0, 62, 56
2, 25060, Note_on_c, 0, 81, 72
2, 25068, Note_on_c, 0, 69, 63
2, 25072, Note_on_c, 0, 77, 66
2, 25196, Control_c, 0, 64, 104
2, 25216, Control_c, 0, 64, 24
2, 25228, Control_c, 0, 64, 0
2, 25352, Control_c, 0, 64, 88
2, 25368, Control_c, 0, 64, 127
2, 25724, Note_on_c, 0, 76, 0
2, 25788, Note_on_c, 0, 69, 0
2, 25820, Note_on_c, 0, 81, 0
2, 25832, Note_on_c, 0, 77, 0
2, 25856, Note_on_c, 0, 62, 0
2, 25896, Note_on_c, 0, 88, 0
2, 26076, Note_on_c, 0, 86, 84
2, 26084, Note_on_c, 0, 62, 65
2, 26092, Note_on_c, 0, 69, 64
2, 26096, Note_on_c, 0, 74, 63
2, 26104, Note_on_c, 0, 77, 65
2, 26112, Note_on_c, 0, 81, 60
2, 26252, Control_c, 0, 64, 72
2, 26268, Control_c, 0, 64, 0
2, 26376, Control_c, 0, 64, 88
2, 26392, Control_c, 0, 64, 127
2, 26432, Note_on_c, 0, 86, 0
2, 26448, Note_on_c, 0, 77, 0
2, 26452, Note_on_c, 0, 74, 0
2, 26468, Note_on_c, 0, 62, 0
2, 26468, Note_on_c, 0, 81, 0
2, 26496, Note_on_c, 0, 69, 0
2, 26820, Note_on_c, 0, 84, 93
2, 26828, Note_on_c, 0, 63, 63
2, 26832, Note_on_c, 0, 78, 72
2, 26844, Note_on_c, 0, 81, 69
2, 26852, Note_on_c, 0, 72, 58
2, 26852, Control_c, 0, 64, 72
2, 26868, Note_on_c, 0, 69, 55
2, 26872, Control_c, 0, 64, 0
2, 26892, Note_on_c, 0, 81, 0
2, 26912, Note_on_c, 0, 78, 0
2, 26916, Control_c, 0, 64, 24
2, 26932, Control_c, 0, 64, 88
2, 26944, Note_on_c, 0, 69, 0
2, 26948, Note_on_c, 0, 72, 0
2, 26948, Control_c, 0, 64, 127
2, 26956, Note_on_c, 0, 84, 0
2, 26960, Note_on_c, 0, 63, 0
2, 27144, Note_on_c, 0, 84, 88
2, 27168, Note_on_c, 0, 79, 74
2, 27172, Note_on_c, 0, 76, 69
2, 27172, Note_on_c, 0, 72, 61
2, 27172, Note_on_c, 0, 64, 63
2, 27188, Note_on_c, 0, 67, 60
2, 27336, Control_c, 0, 64, 72
2, 27352, Control_c, 0, 64, 0
2, 27460, Control_c, 0, 64, 72
2, 27476, Control_c, 0, 64, 127
2, 27816, Note_on_c, 0, 64, 0
2, 27828, Note_on_c, 0, 67, 0
2, 27916, Note_on_c, 0, 65, 65
2, 27952, Note_on_c, 0, 72, 0
2, 27984, Note_on_c, 0, 76, 0
2, 27988, Note_on_c, 0, 79, 0
2, 28032, Note_on_c, 0, 65, 0
2, 28036, Note_on_c, 0, 84, 0
2, 28196, Note_on_c, 0, 83, 87
2, 28216, Note_on_c, 0, 74, 63
2, 28216, Note_on_c, 0, 79, 69
2, 28216, Note_on_c, 0, 67, 54
2, 28224, Note_on_c, 0, 71, 56
2, 28268, Control_c, 0, 64, 72
2, 28284, Control_c, 0, 64, 0
2, 28376, Control_c, 0, 64, 72
2, 28388, Control_c, 0, 64, 127
2, 28444, Note_on_c, 0, 83, 0
2, 28468, Note_on_c, 0, 67, 0
2, 28468, Note_on_c, 0, 74, 0
2, 28476, Note_on_c, 0, 71, 0
2, 28480, Note_on_c, 0, 79, 0
2, 28744, Note_on_c, 0, 82, 87
2, 28756, Note_on_c, 0, 70, 59
2, 28768, Note_on_c, 0, 74, 63
2, 28772, Note_on_c, 0, 79, 65
2, 28772, Note_on_c, 0, 65, 55
2, 28784, Note_on_c, 0, 67, 58
2, 28808, Control_c, 0, 64, 104
2, 28824, Control_c, 0, 64, 24
2, 28840, Control_c, 0, 64, 0
2, 28868, Control_c, 0, 64, 40
2, 28884, Control_c, 0, 64, 104
2, 28900, Control_c, 0, 64, 127
2, 28920, Note_on_c, 0, 67, 0
2, 28984, Note_on_c, 0, 74, 0
2, 29052, Note_on_c, 0, 65, 0
2, 29088, Note_on_c, 0, 70, 0
2, 29120, Note_on_c, 0, 79, 0
2, 29196, Note_on_c, 0, 82, 0
2, 29292, Note_on_c, 0, 81, 83
2, 29292, Note_on_c, 0, 64, 60
2, 29292, Note_on_c, 0, 67, 60
2, 29292, Note_on_c, 0, 79, 63
2, 29292, Note_on_c, 0, 73, 65
2, 29292, Note_on_c, 0, 69, 62
2, 29352, Control_c, 0, 64, 104
2, 29368, Control_c, 0, 64, 0
2, 29452, Note_on_c, 0, 64, 0
2, 29460, Control_c, 0, 64, 88
2, 29476, Control_c, 0, 64, 127
2, 29504, Note_on_c, 0, 79, 0
2, 29508, Note_on_c, 0, 69, 0
2, 29520, Note_on_c, 0, 73, 0
2, 29528, Note_on_c, 0, 67, 0
2, 29576, Note_on_c, 0, 81, 0
2, 29692, Control_c, 0, 64, 72
2, 29700, Note_on_c, 0, 61, 66
2, 29708, Control_c, 0, 64, 88
2, 29724, Control_c, 0, 64, 127
2, 29776, Note_on_c, 0, 61, 0
2, 29784, Note_on_c, 0, 69, 76
2, 29864, Note_on_c, 0, 69, 0
2, 29888, Note_on_c, 0, 76, 63
2, 29932, Note_on_c, 0, 76, 0
2, 30004, Note_on_c, 0, 93, 103
2, 30024, Note_on_c, 0, 81, 74
2, 30028, Note_on_c, 0, 79, 79
2, 30488, Note_on_c, 0, 93, 0
2, 30504, Note_on_c, 0, 79, 0
2, 30560, Note_on_c, 0, 81, 0
2, 30748, Note_on_c, 0, 88, 78
2, 30780, Note_on_c, 0, 88, 0
2, 30816, Note_on_c, 0, 89, 74
2, 30868, Note_on_c, 0, 88, 94
2, 30880, Note_on_c, 0, 89, 0
2, 31084, Note_on_c, 0, 88, 0
2, 31108, Note_on_c, 0, 87, 88
2, 31288, Note_on_c, 0, 87, 0
2, 31336, Note_on_c, 0, 88, 94
2, 31628, Note_on_c, 0, 91, 94
2, 31636, Note_on_c, 0, 88, 0
2, 31716, Note_on_c, 0, 91, 0
2, 32208, Note_on_c, 0, 89, 88
2, 32224, Note_on_c, 0, 77, 72
2, 32232, Note_on_c, 0, 74, 53
2, 32244, Note_on_c, 0, 62, 58
2, 32260, Note_on_c, 0, 69, 50
2, 32356, Control_c, 0, 64, 56
2, 32368, Control_c, 0, 64, 0
2, 32496, Control_c, 0, 64, 127
2, 32680, Note_on_c, 0, 62, 0
2, 32724, Note_on_c, 0, 77, 0
2, 32728, Note_on_c, 0, 74, 0
2, 32736, Note_on_c, 0, 89, 0
2, 32752, Note_on_c, 0, 69, 0
2, 33228, Note_on_c, 0, 85, 79
2, 33228, Note_on_c, 0, 69, 63
2, 33228, Note_on_c, 0, 64, 65
2, 33228, Note_on_c, 0, 79, 63
2, 33408, Control_c, 0, 64, 88
2, 33424, Control_c, 0, 64, 0
2, 33532, Control_c, 0, 64, 56
2, 33548, Control_c, 0, 64, 127
2, 33784, Note_on_c, 0, 64, 0
2, 33796, Note_on_c, 0, 69, 0
2, 33968, Note_on_c, 0, 79, 0
2, 34020, Note_on_c, 0, 85, 0
2, 34076, Note_on_c, 0, 88, 84
2, 34168, Note_on_c, 0, 88, 0
2, 34212, Note_on_c, 0, 86, 84
2, 34216, Note_on_c, 0, 81, 76
2, 34244, Note_on_c, 0, 65, 60
2, 34260, Note_on_c, 0, 69, 46
2, 34276, Control_c, 0, 64, 56
2, 34292, Control_c, 0, 64, 0
2, 34368, Control_c, 0, 64, 72
2, 34384, Control_c, 0, 64, 127
2, 34448, Note_on_c, 0, 81, 0
2, 34448, Note_on_c, 0, 86, 0
2, 34604, Note_on_c, 0, 69, 0
2, 34632, Note_on_c, 0, 65, 0
2, 34904, Note_on_c, 0, 84, 84
2, 34968, Note_on_c, 0, 84, 0
2, 35096, Control_c, 0, 64, 104
2, 35112, Control_c, 0, 64, 0
2, 35132, Note_on_c, 0, 83, 78
2, 35148, Note_on_c, 0, 62, 67
2, 35156, Note_on_c, 0, 74, 68
2, 35164, Note_on_c, 0, 77, 58
2, 35188, Control_c, 0, 64, 40
2, 35204, Note_on_c, 0, 74, 0
2, 35204, Control_c, 0, 64, 104
2, 35208, Note_on_c, 0, 77, 0
2, 35212, Note_on_c, 0, 83, 0
2, 35220, Control_c, 0, 64, 127
2, 35224, Note_on_c, 0, 62, 0
2, 35296, Control_c, 0, 64, 56
2, 35316, Control_c, 0, 64, 0
2, 35380, Note_on_c, 0, 81, 81
2, 35380, Note_on_c, 0, 63, 66
2, 35380, Note_on_c, 0, 72, 65
2, 35380, Note_on_c, 0, 78, 68
2, 35424, Control_c, 0, 64, 104
2, 35436, Note_on_c, 0, 72, 0
2, 35436, Control_c, 0, 64, 127
2, 35460, Note_on_c, 0, 63, 0
2, 35464, Note_on_c, 0, 78, 0
2, 35468, Note_on_c, 0, 81, 0
2, 35640, Control_c, 0, 64, 88
2, 35652, Control_c, 0, 64, 0
2, 35660, Note_on_c, 0, 80, 74
2, 35660, Note_on_c, 0, 76, 63
2, 35660, Note_on_c, 0, 74, 63
2, 35660, Note_on_c, 0, 64, 65
2, 35796, Control_c, 0, 64, 72
2, 35812, Control_c, 0, 64, 127
2, 35832, Note_on_c, 0, 76, 0
2, 35836, Note_on_c, 0, 64, 0
2, 35848, Note_on_c, 0, 74, 0
2, 35920, Note_on_c, 0, 80, 0
2, 36268, Note_on_c, 0, 81, 68
2, 36284, Note_on_c, 0, 57, 53
2, 36284, Note_on_c, 0, 76, 52
2, 36288, Note_on_c, 0, 72, 50
2, 36292, Note_on_c, 0, 64, 50
2, 36352, Control_c, 0, 64, 72
2, 36368, Control_c, 0, 64, 0
2, 36492, Control_c, 0, 64, 88
2, 36508, Control_c, 0, 64, 127
2, 36604, Note_on_c, 0, 76, 0
2, 36608, Note_on_c, 0, 81, 0
2, 36612, Note_on_c, 0, 72, 0
2, 36620, Note_on_c, 0, 57, 0
2, 36632, Note_on_c, 0, 64, 0
2, 37456, Note_on_c, 0, 52, 53
2, 37456, Note_on_c, 0, 64, 72
2, 37464, Note_on_c, 0, 45, 59
2, 37568, Note_on_c, 0, 57, 63
2, 37644, Note_on_c, 0, 57, 0
2, 37652, Note_on_c, 0, 60, 53
2, 37708, Note_on_c, 0, 60, 0
2, 37716, Note_on_c, 0, 64, 55
2, 37780, Note_on_c, 0, 64, 0
2, 37792, Note_on_c, 0, 57, 48
2, 37832, Note_on_c, 0, 57, 0
2, 37844, Note_on_c, 0, 52, 0
2, 37848, Note_on_c, 0, 64, 0
2, 37864, Note_on_c, 0, 53, 66
2, 37864, Note_on_c, 0, 65, 73
2, 37896, Control_c, 0, 64, 104
2, 37904, Control_c, 0, 64, 72
2, 37912, Control_c, 0, 64, 24
2, 37920, Control_c, 0, 64, 0
2, 37944, Note_on_c, 0, 57, 60
2, 37996, Control_c, 0, 64, 72
2, 38004, Control_c, 0, 64, 127
2, 38016, Note_on_c, 0, 57, 0
2, 38016, Note_on_c, 0, 60, 60
2, 38088, Note_on_c, 0, 60, 0
2, 38096, Note_on_c, 0, 65, 63
2, 38144, Note_on_c, 0, 53, 0
2, 38152, Note_on_c, 0, 45, 0
2, 38184, Note_on_c, 0, 57, 61
2, 38188, Note_on_c, 0, 65, 0
2, 38216, Note_on_c, 0, 57, 0
2, 38260, Note_on_c, 0, 65, 0
2, 38276, Note_on_c, 0, 52, 64
2, 38284, Note_on_c, 0, 44, 49
2, 38288, Note_on_c, 0, 64, 72
2, 38320, Control_c, 0, 64, 104
2, 38328, Control_c, 0, 64, 72
2, 38336, Control_c, 0, 64, 24
2, 38344, Control_c, 0, 64, 0
2, 38356, Note_on_c, 0, 56, 63
2, 38412, Control_c, 0, 64, 24
2, 38420, Control_c, 0, 64, 72
2, 38424, Note_on_c, 0, 59, 58
2, 38428, Note_on_c, 0, 56, 0
2, 38428, Control_c, 0, 64, 88
2, 38436, Control_c, 0, 64, 127
2, 38488, Note_on_c, 0, 59, 0
2, 38500, Note_on_c, 0, 64, 53
2, 38552, Note_on_c, 0, 64, 0
2, 38552, Note_on_c, 0, 56, 55
2, 38620, Note_on_c, 0, 56, 0
2, 38628, Note_on_c, 0, 44, 0
2, 38648, Note_on_c, 0, 43, 65
2, 38664, Control_c, 0, 64, 104
2, 38676, Control_c, 0, 64, 88
2, 38680, Control_c, 0, 64, 56
2, 38688, Control_c, 0, 64, 0
2, 38692, Note_on_c, 0, 64, 0
2, 38740, Note_on_c, 0, 55, 70
2, 38760, Control_c, 0, 64, 24
2, 38764, Control_c, 0, 64, 72
2, 38772, Control_c, 0, 64, 104
2, 38780, Control_c, 0, 64, 127
2, 38808, Note_on_c, 0, 55, 0
2, 38812, Note_on_c, 0, 58, 54
2, 38880, Note_on_c, 0, 58, 0
2, 38900, Note_on_c, 0, 64, 61
2, 38956, Note_on_c, 0, 64, 0
2, 38972, Note_on_c, 0, 52, 0
2, 38972, Note_on_c, 0, 55, 58
2, 39004, Note_on_c, 0, 55, 0
2, 39040, Note_on_c, 0, 43, 0
2, 39064, Note_on_c, 0, 50, 64
2, 39064, Note_on_c, 0, 41, 56
2, 39064, Note_on_c, 0, 62, 72
2, 39088, Control_c, 0, 64, 88
2, 39096, Control_c, 0, 64, 56
2, 39104, Control_c, 0, 64, 24
2, 39112, Control_c, 0, 64, 0
2, 39148, Note_on_c, 0, 53, 68
2, 39188, Control_c, 0, 64, 40
2, 39196, Control_c, 0, 64, 88
2, 39204, Control_c, 0, 64, 104
2, 39212, Control_c, 0, 64, 127
2, 39224, Note_on_c, 0, 53, 0
2, 39228, Note_on_c, 0, 57, 54
2, 39280, Note_on_c, 0, 57, 0
2, 39288, Note_on_c, 0, 62, 58
2, 39364, Note_on_c, 0, 62, 0
2, 39376, Note_on_c, 0, 50, 0
2, 39376, Note_on_c, 0, 53, 59
2, 39404, Note_on_c, 0, 53, 0
2, 39456, Note_on_c, 0, 41, 0
2, 39468, Note_on_c, 0, 40, 58
2, 39468, Note_on_c, 0, 48, 58
2, 39468, Note_on_c, 0, 60, 71
2, 39488, Note_on_c, 0, 62, 0
2, 39504, Control_c, 0, 64, 104
2, 39512, Control_c, 0, 64, 88
2, 39520, Control_c, 0, 64, 72
2, 39528, Control_c, 0, 64, 24
2, 39536, Control_c, 0, 64, 0
2, 39548, Note_on_c, 0, 52, 66
2, 39620, Control_c, 0, 64, 40
2, 39624, Note_on_c, 0, 57, 58
2, 39628, Control_c, 0, 64, 56
2, 39632, Note_on_c, 0, 52, 0
2, 39636, Control_c, 0, 64, 88
2, 39652, Control_c, 0, 64, 104
2, 39676, Control_c, 0, 64, 127
2, 39692, Note_on_c, 0, 57, 0
2, 39700, Note_on_c, 0, 60, 61
2, 39776, Note_on_c, 0, 60, 0
2, 39784, Note_on_c, 0, 52, 63
2, 39828, Note_on_c, 0, 52, 0
2, 39860, Note_on_c, 0, 48, 0
2, 39876, Note_on_c, 0, 47, 72
2, 39876, Note_on_c, 0, 59, 71
2, 39876, Note_on_c, 0, 28, 63
2, 39888, Note_on_c, 0, 60, 0
2, 39920, Control_c, 0, 64, 88
2, 39928, Control_c, 0, 64, 72
2, 39936, Control_c, 0, 64, 24
2, 39944, Control_c, 0, 64, 0
2, 39968, Note_on_c, 0, 50, 64
2, 40020, Control_c, 0, 64, 40
2, 40028, Control_c, 0, 64, 72
2, 40036, Control_c, 0, 64, 88
2, 40040, Control_c, 0, 64, 104
2, 40052, Control_c, 0, 64, 127
2, 40060, Note_on_c, 0, 56, 57
2, 40064, Note_on_c, 0, 50, 0
2, 40108, Note_on_c, 0, 56, 0
2, 40112, Note_on_c, 0, 59, 58
2, 40132, Note_on_c, 0, 28, 0
2, 40204, Note_on_c, 0, 59, 0
2, 40204, Note_on_c, 0, 50, 58
2, 40248, Note_on_c, 0, 50, 0
2, 40288, Note_on_c, 0, 47, 0
2, 40292, Note_on_c, 0, 45, 73
2, 40292, Note_on_c, 0, 57, 68
2, 40308, Note_on_c, 0, 59, 0
2, 40320, Note_on_c, 0, 40, 0
2, 40328, Control_c, 0, 64, 104
2, 40336, Control_c, 0, 64, 88
2, 40344, Control_c, 0, 64, 72
2, 40352, Control_c, 0, 64, 56
2, 40360, Control_c, 0, 64, 24
2, 40364, Control_c, 0, 64, 0
2, 40368, Note_on_c, 0, 48, 60
2, 40440, Note_on_c, 0, 48, 0
2, 40440, Note_on_c, 0, 52, 63
2, 40444, Control_c, 0, 64, 56
2, 40452, Control_c, 0, 64, 72
2, 40460, Control_c, 0, 64, 104
2, 40476, Control_c, 0, 64, 127
2, 40516, Note_on_c, 0, 52, 0
2, 40536, Note_on_c, 0, 57, 59
2, 40556, Note_on_c, 0, 45, 0
2, 40604, Note_on_c, 0, 57, 0
2, 40616, Note_on_c, 0, 48, 61
2, 40636, Note_on_c, 0, 48, 0
2, 40736, Note_on_c, 0, 52, 74
2, 40740, Note_on_c, 0, 57, 0
2, 40744, Note_on_c, 0, 45, 63
2, 40744, Note_on_c, 0, 64, 73
2, 40752, Control_c, 0, 64, 104
2, 40776, Control_c, 0, 64, 72
2, 40788, Control_c, 0, 64, 56
2, 40796, Control_c, 0, 64, 40
2, 40804, Control_c, 0, 64, 24
2, 40812, Control_c, 0, 64, 0
2, 40844, Note_on_c, 0, 57, 63
2, 40908, Note_on_c, 0, 60, 61
2, 40928, Control_c, 0, 64, 40
2, 40936, Control_c, 0, 64, 72
2, 40940, Note_on_c, 0, 57, 0
2, 40944, Control_c, 0, 64, 88
2, 40960, Control_c, 0, 64, 104
2, 40984, Note_on_c, 0, 60, 0
2, 40984, Note_on_c, 0, 64, 67
2, 40988, Control_c, 0, 64, 127
2, 41048, Note_on_c, 0, 57, 59
2, 41088, Note_on_c, 0, 64, 0
2, 41088, Note_on_c, 0, 64, 0
2, 41108, Note_on_c, 0, 57, 0
2, 41132, Note_on_c, 0, 52, 0
2, 41144, Note_on_c, 0, 53, 73
2, 41144, Note_on_c, 0, 65, 73
2, 41168, Control_c, 0, 64, 104
2, 41176, Control_c, 0, 64, 88
2, 41184, Control_c, 0, 64, 56
2, 41188, Control_c, 0, 64, 24
2, 41200, Control_c, 0, 64, 0
2, 41244, Note_on_c, 0, 57, 60
2, 41276, Control_c, 0, 64, 24
2, 41284, Control_c, 0, 64, 72
2, 41288, Control_c, 0, 64, 88
2, 41300, Control_c, 0, 64, 127
2, 41312, Note_on_c, 0, 60, 64
2, 41324, Note_on_c, 0, 57, 0
2, 41380, Note_on_c, 0, 60, 0
2, 41388, Note_on_c, 0, 65, 58
2, 41404, Note_on_c, 0, 45, 0
2, 41452, Note_on_c, 0, 53, 0
2, 41460, Note_on_c, 0, 57, 58
2, 41468, Note_on_c, 0, 65, 0
2, 41504, Note_on_c, 0, 57, 0
2, 41536, Note_on_c, 0, 65, 0
2, 41552, Note_on_c, 0, 52, 74
2, 41552, Note_on_c, 0, 44, 62
2, 41552, Note_on_c, 0, 64, 72
2, 41592, Control_c, 0, 64, 104
2, 41596, Control_c, 0, 64, 72
2, 41604, Control_c, 0, 64, 40
2, 41612, Control_c, 0, 64, 0
2, 41632, Note_on_c, 0, 56, 57
2, 41684, Control_c, 0, 64, 40
2, 41692, Control_c, 0, 64, 72
2, 41696, Control_c, 0, 64, 104
2, 41700, Note_on_c, 0, 59, 58
2, 41704, Control_c, 0, 64, 127
2, 41716, Note_on_c, 0, 56, 0
2, 41764, Note_on_c, 0, 59, 0
2, 41772, Note_on_c, 0, 64, 58
2, 41828, Note_on_c, 0, 64, 0
2, 41836, Note_on_c, 0, 56, 58
2, 41896, Note_on_c, 0, 56, 0
2, 41924, Note_on_c, 0, 44, 0
2, 41936, Note_on_c, 0, 43, 62
2, 41968, Control_c, 0, 64, 104
2, 41976, Control_c, 0, 64, 88
2, 41984, Control_c, 0, 64, 72
2, 41992, Note_on_c, 0, 64, 0
2, 41992, Control_c, 0, 64, 40
2, 41996, Control_c, 0, 64, 0
2, 42028, Note_on_c, 0, 55, 63
2, 42076, Control_c, 0, 64, 40
2, 42084, Control_c, 0, 64, 72
2, 42092, Control_c, 0, 64, 104
2, 42100, Note_on_c, 0, 55, 0
2, 42100, Note_on_c, 0, 58, 51
2, 42100, Control_c, 0, 64, 127
2, 42180, Note_on_c, 0, 64, 55
2, 42220, Note_on_c, 0, 58, 0
2, 42248, Note_on_c, 0, 64, 0
2, 42256, Note_on_c, 0, 55, 55
2, 42272, Note_on_c, 0, 52, 0
2, 42292, Note_on_c, 0, 55, 0
2, 42348, Note_on_c, 0, 43, 0
2, 42360, Note_on_c, 0, 50, 68
2, 42360, Note_on_c, 0, 41, 63
2, 42360, Note_on_c, 0, 62, 72
2, 42400, Control_c, 0, 64, 88
2, 42408, Control_c, 0, 64, 72
2, 42412, Control_c, 0, 64, 24
2, 42420, Control_c, 0, 64, 0
2, 42448, Note_on_c, 0, 53, 63
2, 42484, Control_c, 0, 64, 24
2, 42492, Control_c, 0, 64, 56
2, 42500, Control_c, 0, 64, 88
2, 42504, Control_c, 0, 64, 127
2, 42528, Note_on_c, 0, 57, 52
2, 42532, Note_on_c, 0, 53, 0
2, 42588, Note_on_c, 0, 57, 0
2, 42600, Note_on_c, 0, 62, 57
2, 42676, Note_on_c, 0, 62, 0
2, 42676, Note_on_c, 0, 50, 0
2, 42680, Note_on_c, 0, 53, 57
2, 42716, Note_on_c, 0, 53, 0
2, 42760, Note_on_c, 0, 41, 0
2, 42768, Note_on_c, 0, 40, 61
2, 42768, Note_on_c, 0, 60, 70
2, 42772, Note_on_c, 0, 48, 64
2, 42800, Note_on_c, 0, 62, 0
2, 42808, Control_c, 0, 64, 88
2, 42812, Control_c, 0, 64, 72
2, 42824, Control_c, 0, 64, 24
2, 42832, Control_c, 0, 64, 0
2, 42864, Note_on_c, 0, 52, 66
2, 42900, Control_c, 0, 64, 24
2, 42908, Control_c, 0, 64, 56
2, 42916, Control_c, 0, 64, 88
2, 42924, Control_c, 0, 64, 104
2, 42928, Control_c, 0, 64, 127
2, 42944, Note_on_c, 0, 57, 58
2, 42948, Note_on_c, 0, 52, 0
2, 43016, Note_on_c, 0, 57, 0
2, 43020, Note_on_c, 0, 60, 61
2, 43108, Note_on_c, 0, 52, 60
2, 43136, Note_on_c, 0, 60, 0
2, 43148, Note_on_c, 0, 40, 0
2, 43156, Note_on_c, 0, 52, 0
2, 43176, Note_on_c, 0, 48, 0
2, 43192, Note_on_c, 0, 40, 58
2, 43192, Note_on_c, 0, 59, 70
2, 43192, Note_on_c, 0, 47, 65
2, 43192, Note_on_c, 0, 28, 64
2, 43212, Note_on_c, 0, 60, 0
2, 43244, Control_c, 0, 64, 104
2, 43252, Control_c, 0, 64, 72
2, 43260, Control_c, 0, 64, 40
2, 43268, Control_c, 0, 64, 0
2, 43296, Note_on_c, 0, 50, 68
2, 43328, Control_c, 0, 64, 40
2, 43336, Control_c, 0, 64, 72
2, 43344, Control_c, 0, 64, 104
2, 43352, Control_c, 0, 64, 127
2, 43380, Note_on_c, 0, 56, 62
2, 43388, Note_on_c, 0, 50, 0
2, 43444, Note_on_c, 0, 59, 61
2, 43448, Note_on_c, 0, 28, 0
2, 43472, Note_on_c, 0, 56, 0
2, 43496, Note_on_c, 0, 59, 0
2, 43512, Note_on_c, 0, 50, 59
2, 43560, Note_on_c, 0, 50, 0
2, 43572, Note_on_c, 0, 47, 0
2, 43604, Note_on_c, 0, 40, 0
2, 43616, Note_on_c, 0, 45, 71
2, 43616, Note_on_c, 0, 57, 68
2, 43632, Note_on_c, 0, 59, 0
2, 43636, Control_c, 0, 64, 104
2, 43644, Control_c, 0, 64, 72
2, 43652, Control_c, 0, 64, 24
2, 43660, Control_c, 0, 64, 0
2, 43676, Note_on_c, 0, 48, 56
2, 43720, Control_c, 0, 64, 40
2, 43732, Control_c, 0, 64, 88
2, 43740, Control_c, 0, 64, 104
2, 43744, Note_on_c, 0, 52, 61
2, 43744, Control_c, 0, 64, 127
2, 43748, Note_on_c, 0, 48, 0
2, 43808, Note_on_c, 0, 52, 0
2, 43832, Note_on_c, 0, 57, 58
2, 43868, Note_on_c, 0, 45, 0
2, 43896, Note_on_c, 0, 57, 0
2, 43912, Note_on_c, 0, 48, 61
2, 43928, Note_on_c, 0, 48, 0
2, 44028, Note_on_c, 0, 52, 78
2, 44032, Note_on_c, 0, 45, 69
2, 44032, Note_on_c, 0, 64, 71
2, 44036, Note_on_c, 0, 57, 0
2, 44084, Control_c, 0, 64, 104
2, 44092, Control_c, 0, 64, 88
2, 44096, Control_c, 0, 64, 56
2, 44108, Control_c, 0, 64, 0
2, 44124, Note_on_c, 0, 57, 61
2, 44188, Note_on_c, 0, 60, 64
2, 44200, Control_c, 0, 64, 56
2, 44208, Control_c, 0, 64, 88
2, 44216, Control_c, 0, 64, 127
2, 44228, Note_on_c, 0, 57, 0
2, 44256, Note_on_c, 0, 60, 0
2, 44260, Note_on_c, 0, 64, 69
2, 44320, Note_on_c, 0, 64, 0
2, 44340, Note_on_c, 0, 57, 59
2, 44392, Note_on_c, 0, 57, 0
2, 44420, Note_on_c, 0, 52, 0
2, 44420, Note_on_c, 0, 53, 78
2, 44420, Note_on_c, 0, 65, 76
2, 44444, Note_on_c, 0, 64, 0
2, 44452, Control_c, 0, 64, 104
2, 44460, Control_c, 0, 64, 72
2, 44468, Control_c, 0, 64, 24
2, 44476, Control_c, 0, 64, 0
2, 44528, Note_on_c, 0, 57, 62
2, 44540, Control_c, 0, 64, 24
2, 44548, Control_c, 0, 64, 56
2, 44552, Control_c, 0, 64, 104
2, 44560, Control_c, 0, 64, 127
2, 44596, Note_on_c, 0, 60, 64
2, 44600, Note_on_c, 0, 57, 0
2, 44668, Note_on_c, 0, 60, 0
2, 44668, Note_on_c, 0, 65, 64
2, 44732, Note_on_c, 0, 65, 0
2, 44744, Note_on_c, 0, 57, 63
2, 44788, Note_on_c, 0, 57, 0
2, 44820, Note_on_c, 0, 45, 0
2, 44824, Note_on_c, 0, 53, 0
2, 44848, Note_on_c, 0, 47, 71
2, 44848, Note_on_c, 0, 62, 68
2, 44848, Note_on_c, 0, 67, 78
2, 44852, Note_on_c, 0, 65, 0
2, 44892, Control_c, 0, 64, 88
2, 44900, Control_c, 0, 64, 56
2, 44908, Control_c, 0, 64, 0
2, 44916, Note_on_c, 0, 55, 69
2, 44976, Control_c, 0, 64, 56
2, 44984, Control_c, 0, 64, 88
2, 44992, Control_c, 0, 64, 127
2, 45000, Note_on_c, 0, 62, 63
2, 45012, Note_on_c, 0, 55, 0
2, 45056, Note_on_c, 0, 62, 0
2, 45060, Note_on_c, 0, 67, 71
2, 45128, Note_on_c, 0, 67, 0
2, 45144, Note_on_c, 0, 55, 65
2, 45196, Note_on_c, 0, 55, 0
2, 45236, Note_on_c, 0, 47, 0
2, 45248, Note_on_c, 0, 48, 75
2, 45248, Note_on_c, 0, 64, 75
2, 45268, Control_c, 0, 64, 104
2, 45276, Control_c, 0, 64, 88
2, 45284, Control_c, 0, 64, 56
2, 45292, Note_on_c, 0, 62, 0
2, 45292, Control_c, 0, 64, 24
2, 45300, Control_c, 0, 64, 0
2, 45312, Note_on_c, 0, 67, 0
2, 45320, Note_on_c, 0, 55, 67
2, 45364, Control_c, 0, 64, 24
2, 45368, Control_c, 0, 64, 56
2, 45376, Control_c, 0, 64, 88
2, 45384, Control_c, 0, 64, 104
2, 45392, Control_c, 0, 64, 127
2, 45396, Note_on_c, 0, 60, 61
2, 45420, Note_on_c, 0, 55, 0
2, 45460, Note_on_c, 0, 60, 0
2, 45468, Note_on_c, 0, 64, 59
2, 45532, Note_on_c, 0, 64, 0
2, 45544, Note_on_c, 0, 55, 56
2, 45568, Note_on_c, 0, 55, 0
2, 45580, Note_on_c, 0, 48, 0
2, 45668, Note_on_c, 0, 48, 65
2, 45668, Note_on_c, 0, 52, 63
2, 45668, Note_on_c, 0, 64, 69
2, 45692, Note_on_c, 0, 64, 0
2, 45700, Control_c, 0, 64, 104
2, 45708, Control_c, 0, 64, 88
2, 45724, Control_c, 0, 64, 72
2, 45732, Control_c, 0, 64, 56
2, 45740, Control_c, 0, 64, 40
2, 45748, Control_c, 0, 64, 0
2, 45796, Note_on_c, 0, 55, 64
2, 45852, Control_c, 0, 64, 56
2, 45860, Control_c, 0, 64, 104
2, 45864, Note_on_c, 0, 60, 58
2, 45868, Note_on_c, 0, 55, 0
2, 45872, Control_c, 0, 64, 127
2, 45932, Note_on_c, 0, 60, 0
2, 45940, Note_on_c, 0, 64, 52
2, 45972, Note_on_c, 0, 52, 0
2, 45984, Note_on_c, 0, 64, 0
2, 45988, Note_on_c, 0, 55, 57
2, 46032, Note_on_c, 0, 55, 0
2, 46068, Note_on_c, 0, 48, 0
2, 46080, Note_on_c, 0, 53, 58
2, 46084, Note_on_c, 0, 45, 56
2, 46084, Note_on_c, 0, 65, 71
2, 46104, Note_on_c, 0, 64, 0
2, 46136, Control_c, 0, 64, 88
2, 46148, Control_c, 0, 64, 40
2, 46156, Control_c, 0, 64, 0
2, 46168, Note_on_c, 0, 57, 58
2, 46224, Control_c, 0, 64, 56
2, 46228, Note_on_c, 0, 60, 62
2, 46232, Note_on_c, 0, 57, 0
2, 46232, Control_c, 0, 64, 88
2, 46236, Control_c, 0, 64, 104
2, 46248, Control_c, 0, 64, 127
2, 46296, Note_on_c, 0, 60, 0
2, 46300, Note_on_c, 0, 65, 60
2, 46360, Note_on_c, 0, 65, 0
2, 46376, Note_on_c, 0, 57, 56
2, 46424, Note_on_c, 0, 57, 0
2, 46444, Note_on_c, 0, 45, 0
2, 46464, Note_on_c, 0, 53, 0
2, 46468, Note_on_c, 0, 47, 63
2, 46468, Note_on_c, 0, 67, 73
2, 46468, Note_on_c, 0, 62, 63
2, 46500, Note_on_c, 0, 65, 0
2, 46500, Control_c, 0, 64, 104
2, 46508, Control_c, 0, 64, 72
2, 46516, Control_c, 0, 64, 40
2, 46520, Control_c, 0, 64, 0
2, 46540, Note_on_c, 0, 55, 62
2, 46584, Control_c, 0, 64, 40
2, 46592, Control_c, 0, 64, 72
2, 46600, Control_c, 0, 64, 104
2, 46608, Control_c, 0, 64, 127
2, 46616, Note_on_c, 0, 62, 58
2, 46644, Note_on_c, 0, 55, 0
2, 46676, Note_on_c, 0, 62, 0
2, 46676, Note_on_c, 0, 62, 0
2, 46680, Note_on_c, 0, 67, 60
2, 46740, Note_on_c, 0, 67, 0
2, 46768, Note_on_c, 0, 55, 68
2, 46820, Note_on_c, 0, 55, 0
2, 46852, Note_on_c, 0, 47, 0
2, 46872, Note_on_c, 0, 48, 64
2, 46872, Note_on_c, 0, 64, 69
2, 46892, Control_c, 0, 64, 104
2, 46900, Control_c, 0, 64, 72
2, 46908, Control_c, 0, 64, 40
2, 46916, Control_c, 0, 64, 0
2, 46964, Note_on_c, 0, 67, 0
2, 46964, Note_on_c, 0, 55, 59
2, 46992, Control_c, 0, 64, 24
2, 47000, Control_c, 0, 64, 56
2, 47008, Control_c, 0, 64, 88
2, 47016, Control_c, 0, 64, 104
2, 47024, Control_c, 0, 64, 127
2, 47044, Note_on_c, 0, 55, 0
2, 47044, Note_on_c, 0, 60, 58
2, 47108, Note_on_c, 0, 60, 0
2, 47120, Note_on_c, 0, 64, 52
2, 47192, Note_on_c, 0, 48, 0
2, 47204, Note_on_c, 0, 55, 56
2, 47208, Note_on_c, 0, 64, 0
2, 47208, Note_on_c, 0, 64, 0
2, 47240, Note_on_c, 0, 55, 0
2, 47308, Note_on_c, 0, 55, 61
2, 47308, Note_on_c, 0, 60, 73
2, 47312, Note_on_c, 0, 52, 63
2, 47332, Note_on_c, 0, 48, 59
2, 47336, Note_on_c, 0, 36, 65
2, 47364, Control_c, 0, 64, 104
2, 47372, Control_c, 0, 64, 72
2, 47376, Control_c, 0, 64, 24
2, 47384, Control_c, 0, 64, 0
2, 47420, Note_on_c, 0, 55, 65
2, 47440, Note_on_c, 0, 60, 0
2, 47440, Control_c, 0, 64, 24
2, 47448, Control_c, 0, 64, 72
2, 47456, Control_c, 0, 64, 127
2, 47484, Note_on_c, 0, 55, 0
2, 47484, Note_on_c, 0, 60, 67
2, 47488, Note_on_c, 0, 52, 0
2, 47504, Note_on_c, 0, 62, 74
2, 47512, Note_on_c, 0, 59, 70
2, 47548, Note_on_c, 0, 60, 0
2, 47548, Note_on_c, 0, 64, 62
2, 47608, Note_on_c, 0, 64, 0
2, 47616, Note_on_c, 0, 55, 63
2, 47640, Note_on_c, 0, 55, 0
2, 47676, Note_on_c, 0, 55, 0
2, 47684, Note_on_c, 0, 59, 0
2, 47704, Note_on_c, 0, 62, 0
2, 47708, Note_on_c, 0, 60, 66
2, 47708, Note_on_c, 0, 64, 78
2, 47808, Note_on_c, 0, 55, 63
2, 47860, Note_on_c, 0, 64, 0
2, 47876, Note_on_c, 0, 60, 69
2, 47904, Note_on_c, 0, 62, 77
2, 47904, Note_on_c, 0, 59, 69
2, 47904, Note_on_c, 0, 55, 63
2, 47920, Note_on_c, 0, 60, 0
2, 47920, Note_on_c, 0, 55, 0
2, 47940, Note_on_c, 0, 60, 0
2, 47944, Note_on_c, 0, 64, 65
2, 47984, Note_on_c, 0, 59, 0
2, 48012, Note_on_c, 0, 64, 0
2, 48020, Note_on_c, 0, 55, 66
2, 48032, Note_on_c, 0, 62, 0
2, 48072, Note_on_c, 0, 55, 0
2, 48104, Note_on_c, 0, 64, 83
2, 48104, Note_on_c, 0, 60, 68
2, 48104, Note_on_c, 0, 48, 67
2, 48120, Note_on_c, 0, 55, 0
2, 48220, Note_on_c, 0, 64, 0
2, 48232, Note_on_c, 0, 60, 0
2, 48236, Note_on_c, 0, 48, 0
2, 48240, Note_on_c, 0, 55, 67
2, 48272, Note_on_c, 0, 48, 0
2, 48296, Note_on_c, 0, 60, 69
2, 48296, Note_on_c, 0, 67, 78
2, 48296, Note_on_c, 0, 64, 71
2, 48296, Note_on_c, 0, 52, 71
2, 48304, Note_on_c, 0, 36, 0
2, 48324, Note_on_c, 0, 55, 0
2, 48336, Note_on_c, 0, 52, 0
2, 48360, Note_on_c, 0, 64, 69
2, 48364, Note_on_c, 0, 60, 0
2, 48420, Note_on_c, 0, 64, 0
2, 48432, Note_on_c, 0, 55, 53
2, 48464, Note_on_c, 0, 64, 0
2, 48468, Note_on_c, 0, 67, 0
2, 48484, Note_on_c, 0, 55, 0
2, 48540, Note_on_c, 0, 43, 59
2, 48540, Note_on_c, 0, 31, 58
2, 48540, Note_on_c, 0, 55, 58
2, 48540, Note_on_c, 0, 62, 75
2, 48540, Note_on_c, 0, 59, 65
2, 48540, Note_on_c, 0, 43, 66
2, 48576, Control_c, 0, 64, 104
2, 48588, Control_c, 0, 64, 72
2, 48596, Control_c, 0, 64, 40
2, 48604, Control_c, 0, 64, 0
2, 48632, Note_on_c, 0, 55, 65
2, 48680, Control_c, 0, 64, 72
2, 48688, Control_c, 0, 64, 127
2, 48716, Note_on_c, 0, 59, 63
2, 48724, Note_on_c, 0, 55, 0
2, 48748, Note_on_c, 0, 31, 0
2, 48772, Note_on_c, 0, 59, 0
2, 48780, Note_on_c, 0, 43, 0
2, 48780, Note_on_c, 0, 43, 0
2, 48788, Note_on_c, 0, 59, 0
2, 48788, Note_on_c, 0, 62, 71
2, 48796, Note_on_c, 0, 62, 0
2, 48812, Note_on_c, 0, 55, 0
2, 48848, Note_on_c, 0, 62, 0
2, 48856, Note_on_c, 0, 55, 71
2, 48876, Note_on_c, 0, 55, 0
2, 48956, Note_on_c, 0, 52, 69
2, 48960, Note_on_c, 0, 40, 64
2, 48976, Note_on_c, 0, 76, 81
2, 48980, Control_c, 0, 64, 104
2, 48984, Note_on_c, 0, 71, 67
2, 48988, Control_c, 0, 64, 72
2, 48996, Control_c, 0, 64, 24
2, 49000, Control_c, 0, 64, 0
2, 49004, Note_on_c, 0, 59, 59
2, 49004, Note_on_c, 0, 67, 59
2, 49032, Note_on_c, 0, 59, 69
2, 49072, Control_c, 0, 64, 40
2, 49080, Control_c, 0, 64, 104
2, 49088, Control_c, 0, 64, 127
2, 49108, Note_on_c, 0, 64, 68
2, 49124, Note_on_c, 0, 59, 0
2, 49172, Note_on_c, 0, 64, 0
2, 49172, Note_on_c, 0, 67, 73
2, 49172, Note_on_c, 0, 78, 85
2, 49180, Note_on_c, 0, 67, 0
2, 49188, Note_on_c, 0, 76, 0
2, 49188, Note_on_c, 0, 75, 82
2, 49208, Note_on_c, 0, 66, 48
2, 49232, Note_on_c, 0, 67, 0
2, 49236, Note_on_c, 0, 66, 0
2, 49240, Note_on_c, 0, 59, 69
2, 49312, Note_on_c, 0, 59, 0
2, 49332, Note_on_c, 0, 75, 0
2, 49356, Note_on_c, 0, 78, 0
2, 49372, Note_on_c, 0, 79, 84
2, 49376, Note_on_c, 0, 76, 80
2, 49392, Note_on_c, 0, 59, 0
2, 49408, Note_on_c, 0, 64, 48
2, 49472, Note_on_c, 0, 59, 69
2, 49528, Note_on_c, 0, 79, 0
2, 49532, Note_on_c, 0, 64, 74
2, 49556, Note_on_c, 0, 64, 0
2, 49560, Note_on_c, 0, 76, 0
2, 49564, Note_on_c, 0, 59, 0
2, 49564, Note_on_c, 0, 78, 85
2, 49568, Note_on_c, 0, 63, 66
2, 49596, Note_on_c, 0, 67, 74
2, 49600, Note_on_c, 0, 64, 0
2, 49624, Note_on_c, 0, 63, 0
2, 49640, Note_on_c, 0, 78, 0
2, 49660, Note_on_c, 0, 67, 0
2, 49676, Note_on_c, 0, 71, 0
2, 49676, Note_on_c, 0, 59, 65
2, 49736, Note_on_c, 0, 59, 0
2, 49744, Note_on_c, 0, 79, 90
2, 49752, Note_on_c, 0, 71, 58
2, 49760, Note_on_c, 0, 52, 73
2, 49764, Note_on_c, 0, 64, 71
2, 49848, Note_on_c, 0, 79, 0
2, 49880, Note_on_c, 0, 59, 66
2, 49888, Note_on_c, 0, 52, 0
2, 49900, Note_on_c, 0, 52, 0
2, 49908, Note_on_c, 0, 40, 0
2, 49940, Note_on_c, 0, 64, 72
2, 49944, Note_on_c, 0, 79, 82
2, 49948, Note_on_c, 0, 83, 94
2, 49956, Note_on_c, 0, 55, 63
2, 49972, Note_on_c, 0, 59, 0
2, 49984, Note_on_c, 0, 64, 0
2, 50000, Note_on_c, 0, 64, 0
2, 50004, Note_on_c, 0, 67, 71
2, 50008, Note_on_c, 0, 79, 0
2, 50048, Note_on_c, 0, 71, 0
2, 50060, Note_on_c, 0, 67, 0
2, 50064, Note_on_c, 0, 59, 62
2, 50124, Note_on_c, 0, 55, 0
2, 50128, Note_on_c, 0, 59, 0
2, 50128, Note_on_c, 0, 83, 0
2, 50180, Note_on_c, 0, 47, 75
2, 50180, Note_on_c, 0, 35, 63
2, 50180, Note_on_c, 0, 78, 90
2, 50180, Note_on_c, 0, 59, 74
2, 50180, Note_on_c, 0, 63, 62
2, 50180, Note_on_c, 0, 71, 71
2, 50200, Control_c, 0, 64, 104
2, 50212, Control_c, 0, 64, 56
2, 50220, Control_c, 0, 64, 0
2, 50284, Note_on_c, 0, 59, 62
2, 50312, Control_c, 0, 64, 72
2, 50320, Control_c, 0, 64, 127
2, 50356, Note_on_c, 0, 63, 63
2, 50372, Note_on_c, 0, 35, 0
2, 50392, Note_on_c, 0, 59, 0
2, 50412, Note_on_c, 0, 47, 0
2, 50416, Note_on_c, 0, 59, 0
2, 50424, Note_on_c, 0, 63, 0
2, 50424, Note_on_c, 0, 63, 0
2, 50428, Note_on_c, 0, 66, 64
2, 50448, Note_on_c, 0, 71, 0
2, 50456, Note_on_c, 0, 78, 0
2, 50492, Note_on_c, 0, 66, 0
2, 50500, Note_on_c, 0, 59, 61
2, 50528, Note_on_c, 0, 59, 0
2, 50600, Note_on_c, 0, 67, 81
2, 50644, Note_on_c, 0, 55, 76
2, 50648, Note_on_c, 0, 52, 63
2, 50680, Control_c, 0, 64, 104
2, 50696, Control_c, 0, 64, 88
2, 50704, Control_c, 0, 64, 56
2, 50712, Control_c, 0, 64, 24
2, 50716, Control_c, 0, 64, 0
2, 50732, Note_on_c, 0, 59, 66
2, 50796, Note_on_c, 0, 64, 63
2, 50804, Control_c, 0, 64, 72
2, 50812, Control_c, 0, 64, 104
2, 50816, Control_c, 0, 64, 127
2, 50824, Note_on_c, 0, 59, 0
2, 50860, Note_on_c, 0, 64, 0
2, 50864, Note_on_c, 0, 67, 60
2, 50920, Note_on_c, 0, 67, 0
2, 50928, Note_on_c, 0, 59, 63
2, 50940, Note_on_c, 0, 55, 0
2, 50976, Note_on_c, 0, 59, 0
2, 51020, Note_on_c, 0, 69, 80
2, 51032, Note_on_c, 0, 57, 72
2, 51036, Note_on_c, 0, 67, 0
2, 51088, Control_c, 0, 64, 88
2, 51096, Control_c, 0, 64, 56
2, 51104, Control_c, 0, 64, 0
2, 51124, Note_on_c, 0, 60, 67
2, 51164, Control_c, 0, 64, 40
2, 51172, Control_c, 0, 64, 88
2, 51180, Control_c, 0, 64, 127
2, 51188, Note_on_c, 0, 64, 66
2, 51200, Note_on_c, 0, 60, 0
2, 51256, Note_on_c, 0, 64, 0
2, 51264, Note_on_c, 0, 69, 67
2, 51316, Note_on_c, 0, 69, 0
2, 51320, Note_on_c, 0, 60, 69
2, 51376, Note_on_c, 0, 60, 0
2, 51396, Note_on_c, 0, 57, 0
2, 51416, Note_on_c, 0, 52, 0
2, 51416, Note_on_c, 0, 51, 78
2, 51416, Note_on_c, 0, 66, 65
2, 51416, Note_on_c, 0, 59, 65
2, 51416, Note_on_c, 0, 71, 83
2, 51448, Note_on_c, 0, 69, 0
2, 51456, Control_c, 0, 64, 104
2, 51464, Control_c, 0, 64, 72
2, 51472, Control_c, 0, 64, 40
2, 51480, Control_c, 0, 64, 0
2, 51488, Note_on_c, 0, 59, 61
2, 51540, Control_c, 0, 64, 24
2, 51548, Control_c, 0, 64, 72
2, 51556, Control_c, 0, 64, 104
2, 51564, Note_on_c, 0, 66, 58
2, 51564, Control_c, 0, 64, 127
2, 51588, Note_on_c, 0, 59, 0
2, 51628, Note_on_c, 0, 66, 0
2, 51640, Note_on_c, 0, 71, 60
2, 51704, Note_on_c, 0, 71, 0
2, 51712, Note_on_c, 0, 59, 58
2, 51736, Note_on_c, 0, 66, 0
2, 51764, Note_on_c, 0, 71, 0
2, 51772, Note_on_c, 0, 59, 0
2, 51812, Note_on_c, 0, 52, 69
2, 51812, Note_on_c, 0, 67, 77
2, 51812, Note_on_c, 0, 52, 66
2, 51812, Note_on_c, 0, 64, 62
2, 51816, Note_on_c, 0, 51, 0
2, 51856, Control_c, 0, 64, 104
2, 51864, Control_c, 0, 64, 88
2, 51872, Control_c, 0, 64, 56
2, 51880, Control_c, 0, 64, 24
2, 51888, Control_c, 0, 64, 0
2, 51900, Note_on_c, 0, 59, 61
2, 51956, Control_c, 0, 64, 40
2, 51964, Control_c, 0, 64, 72
2, 51972, Control_c, 0, 64, 88
2, 51980, Note_on_c, 0, 64, 62
2, 51980, Control_c, 0, 64, 104
2, 51988, Control_c, 0, 64, 127
2, 52016, Note_on_c, 0, 59, 0
2, 52028, Note_on_c, 0, 59, 0
2, 52044, Note_on_c, 0, 52, 0
2, 52048, Note_on_c, 0, 64, 0
2, 52064, Note_on_c, 0, 67, 56
2, 52120, Note_on_c, 0, 64, 0
2, 52124, Note_on_c, 0, 67, 0
2, 52136, Note_on_c, 0, 59, 62
2, 52144, Note_on_c, 0, 67, 0
2, 52164, Note_on_c, 0, 52, 0
2, 52192, Note_on_c, 0, 59, 0
2, 52232, Note_on_c, 0, 67, 80
2, 52248, Note_on_c, 0, 55, 71
2, 52256, Note_on_c, 0, 52, 58
2, 52288, Control_c, 0, 64, 88
2, 52296, Control_c, 0, 64, 56
2, 52304, Control_c, 0, 64, 0
2, 52340, Note_on_c, 0, 59, 58
2, 52364, Control_c, 0, 64, 24
2, 52372, Control_c, 0, 64, 72
2, 52380, Control_c, 0, 64, 104
2, 52388, Control_c, 0, 64, 127
2, 52408, Note_on_c, 0, 64, 58
2, 52420, Note_on_c, 0, 59, 0
2, 52464, Note_on_c, 0, 64, 0
2, 52468, Note_on_c, 0, 67, 58
2, 52528, Note_on_c, 0, 67, 0
2, 52540, Note_on_c, 0, 55, 0
2, 52540, Note_on_c, 0, 59, 56
2, 52580, Note_on_c, 0, 59, 0
2, 52632, Note_on_c, 0, 57, 64
2, 52640, Note_on_c, 0, 69, 78
2, 52664, Note_on_c, 0, 67, 0
2, 52672, Control_c, 0, 64, 104
2, 52680, Control_c, 0, 64, 56
2, 52688, Control_c, 0, 64, 0
2, 52724, Note_on_c, 0, 60, 56
2, 52760, Control_c, 0, 64, 40
2, 52764, Control_c, 0, 64, 72
2, 52772, Control_c, 0, 64, 104
2, 52780, Control_c, 0, 64, 127
2, 52800, Note_on_c, 0, 60, 0
2, 52800, Note_on_c, 0, 64, 55
2, 52844, Note_on_c, 0, 64, 0
2, 52864, Note_on_c, 0, 69, 56
2, 52916, Note_on_c, 0, 69, 0
2, 52924, Note_on_c, 0, 60, 58
2, 52968, Note_on_c, 0, 60, 0
2, 53016, Note_on_c, 0, 57, 0
2, 53020, Note_on_c, 0, 71, 85
2, 53020, Note_on_c, 0, 59, 60
2, 53020, Note_on_c, 0, 66, 67
2, 53024, Note_on_c, 0, 51, 70
2, 53028, Note_on_c, 0, 52, 0
2, 53032, Note_on_c, 0, 69, 0
2, 53056, Control_c, 0, 64, 88
2, 53064, Control_c, 0, 64, 56
2, 53072, Control_c, 0, 64, 24
2, 53080, Control_c, 0, 64, 0
2, 53088, Note_on_c, 0, 59, 49
2, 53136, Control_c, 0, 64, 24
2, 53144, Control_c, 0, 64, 56
2, 53148, Control_c, 0, 64, 88
2, 53156, Control_c, 0, 64, 104
2, 53164, Control_c, 0, 64, 127
2, 53172, Note_on_c, 0, 66, 54
2, 53200, Note_on_c, 0, 59, 0
2, 53232, Note_on_c, 0, 66, 0
2, 53252, Note_on_c, 0, 71, 44
2, 53304, Note_on_c, 0, 71, 0
2, 53308, Note_on_c, 0, 59, 53
2, 53384, Note_on_c, 0, 66, 0
2, 53384, Note_on_c, 0, 59, 0
2, 53400, Note_on_c, 0, 71, 0
2, 53424, Note_on_c, 0, 51, 0
2, 53444, Note_on_c, 0, 52, 56
2, 53444, Note_on_c, 0, 52, 68
2, 53444, Note_on_c, 0, 67, 76
2, 53448, Note_on_c, 0, 64, 63
2, 53468, Control_c, 0, 64, 104
2, 53476, Control_c, 0, 64, 72
2, 53480, Control_c, 0, 64, 56
2, 53488, Control_c, 0, 64, 0
2, 53528, Note_on_c, 0, 59, 61
2, 53560, Control_c, 0, 64, 24
2, 53564, Control_c, 0, 64, 56
2, 53572, Control_c, 0, 64, 88
2, 53580, Control_c, 0, 64, 127
2, 53608, Note_on_c, 0, 64, 56
2, 53640, Note_on_c, 0, 59, 0
2, 53640, Note_on_c, 0, 59, 0
2, 53656, Note_on_c, 0, 64, 0
2, 53672, Note_on_c, 0, 67, 0
2, 53672, Note_on_c, 0, 64, 0
2, 53680, Note_on_c, 0, 67, 56
2, 53700, Note_on_c, 0, 52, 0
2, 53744, Note_on_c, 0, 52, 0
2, 53752, Note_on_c, 0, 67, 0
2, 53760, Note_on_c, 0, 59, 59
2, 53824, Note_on_c, 0, 59, 0
2, 53860, Note_on_c, 0, 64, 76
2, 53868, Note_on_c, 0, 59, 60
2, 53880, Note_on_c, 0, 55, 61
2, 53896, Note_on_c, 0, 52, 64
2, 53896, Note_on_c, 0, 40, 58
2, 53924, Note_on_c, 0, 59, 0
2, 53952, Control_c, 0, 64, 104
2, 53960, Control_c, 0, 64, 88
2, 53964, Control_c, 0, 64, 56
2, 53972, Control_c, 0, 64, 24
2, 53980, Control_c, 0, 64, 0
2, 53984, Note_on_c, 0, 59, 63
2, 54052, Note_on_c, 0, 64, 63
2, 54056, Note_on_c, 0, 64, 0
2, 54056, Note_on_c, 0, 66, 78
2, 54064, Note_on_c, 0, 59, 63
2, 54072, Note_on_c, 0, 59, 0
2, 54072, Control_c, 0, 64, 40
2, 54076, Note_on_c, 0, 63, 67
2, 54080, Control_c, 0, 64, 104
2, 54088, Control_c, 0, 64, 127
2, 54112, Note_on_c, 0, 55, 0
2, 54116, Note_on_c, 0, 64, 0
2, 54116, Note_on_c, 0, 67, 60
2, 54148, Note_on_c, 0, 59, 0
2, 54180, Note_on_c, 0, 67, 0
2, 54184, Note_on_c, 0, 59, 56
2, 54244, Note_on_c, 0, 59, 0
2, 54256, Note_on_c, 0, 63, 0
2, 54268, Note_on_c, 0, 66, 0
2, 54268, Note_on_c, 0, 67, 83
2, 54268, Note_on_c, 0, 64, 73
2, 54428, Note_on_c, 0, 59, 64
2, 54440, Note_on_c, 0, 64, 0
2, 54452, Note_on_c, 0, 66, 81
2, 54452, Note_on_c, 0, 59, 66
2, 54452, Note_on_c, 0, 63, 63
2, 54476, Note_on_c, 0, 64, 66
2, 54480, Note_on_c, 0, 67, 0
2, 54520, Note_on_c, 0, 59, 0
2, 54540, Note_on_c, 0, 64, 0
2, 54540, Note_on_c, 0, 67, 68
2, 54544, Note_on_c, 0, 63, 0
2, 54608, Note_on_c, 0, 66, 0
2, 54616, Note_on_c, 0, 67, 0
2, 54620, Note_on_c, 0, 59, 59
2, 54652, Note_on_c, 0, 59, 0
2, 54656, Note_on_c, 0, 67, 88
2, 54664, Note_on_c, 0, 64, 64
2, 54664, Note_on_c, 0, 52, 63
2, 54692, Note_on_c, 0, 59, 0
2, 54800, Note_on_c, 0, 67, 0
2, 54820, Note_on_c, 0, 59, 63
2, 54824, Note_on_c, 0, 64, 0
2, 54852, Note_on_c, 0, 71, 85
2, 54852, Note_on_c, 0, 55, 70
2, 54852, Note_on_c, 0, 67, 73
2, 54860, Note_on_c, 0, 52, 0
2, 54872, Note_on_c, 0, 52, 0
2, 54880, Note_on_c, 0, 64, 68
2, 54884, Note_on_c, 0, 40, 0
2, 54892, Note_on_c, 0, 55, 0
2, 54920, Note_on_c, 0, 59, 0
2, 54944, Note_on_c, 0, 64, 0
2, 54952, Note_on_c, 0, 67, 61
2, 54956, Note_on_c, 0, 67, 0
2, 55004, Note_on_c, 0, 67, 0
2, 55020, Note_on_c, 0, 59, 62
2, 55056, Note_on_c, 0, 71, 0
2, 55068, Note_on_c, 0, 59, 0
2, 55072, Note_on_c, 0, 47, 73
2, 55072, Note_on_c, 0, 35, 73
2, 55072, Note_on_c, 0, 59, 63
2, 55072, Note_on_c, 0, 66, 79
2, 55076, Note_on_c, 0, 63, 65
2, 55076, Note_on_c, 0, 47, 59
2, 55176, Control_c, 0, 64, 72
2, 55184, Control_c, 0, 64, 0
2, 55220, Note_on_c, 0, 59, 67
2, 55252, Control_c, 0, 64, 56
2, 55260, Note_on_c, 0, 35, 0
2, 55260, Control_c, 0, 64, 104
2, 55268, Control_c, 0, 64, 127
2, 55288, Note_on_c, 0, 47, 0
2, 55296, Note_on_c, 0, 63, 0
2, 55300, Note_on_c, 0, 63, 66
2, 55312, Note_on_c, 0, 47, 0
2, 55324, Note_on_c, 0, 66, 0
2, 55332, Note_on_c, 0, 59, 0
2, 55340, Note_on_c, 0, 59, 0
2, 55368, Note_on_c, 0, 66, 63
2, 55372, Note_on_c, 0, 63, 0
2, 55444, Note_on_c, 0, 66, 0
2, 55448, Note_on_c, 0, 59, 63
2, 55468, Note_on_c, 0, 59, 0
2, 55504, Note_on_c, 0, 79, 87
2, 55524, Note_on_c, 0, 74, 60
2, 55528, Note_on_c, 0, 59, 53
2, 55532, Note_on_c, 0, 67, 52
2, 55548, Note_on_c, 0, 55, 73
2, 55560, Note_on_c, 0, 43, 61
2, 55568, Control_c, 0, 64, 88
2, 55576, Control_c, 0, 64, 40
2, 55584, Control_c, 0, 64, 0
2, 55628, Note_on_c, 0, 62, 72
2, 55652, Control_c, 0, 64, 72
2, 55660, Control_c, 0, 64, 127
2, 55692, Note_on_c, 0, 67, 69
2, 55696, Note_on_c, 0, 62, 0
2, 55708, Note_on_c, 0, 67, 0
2, 55712, Note_on_c, 0, 59, 0
2, 55712, Note_on_c, 0, 79, 0
2, 55720, Note_on_c, 0, 81, 85
2, 55720, Note_on_c, 0, 66, 53
2, 55732, Note_on_c, 0, 62, 62
2, 55760, Note_on_c, 0, 67, 0
2, 55760, Note_on_c, 0, 71, 74
2, 55828, Note_on_c, 0, 71, 0
2, 55836, Note_on_c, 0, 62, 62
2, 55892, Note_on_c, 0, 62, 0
2, 55904, Note_on_c, 0, 81, 0
2, 55924, Note_on_c, 0, 66, 0
2, 55924, Note_on_c, 0, 83, 84
2, 55932, Note_on_c, 0, 62, 0
2, 55932, Note_on_c, 0, 79, 77
2, 55948, Note_on_c, 0, 67, 62
2, 55960, Note_on_c, 0, 74, 0
2, 56044, Note_on_c, 0, 62, 63
2, 56076, Note_on_c, 0, 83, 0
2, 56104, Note_on_c, 0, 67, 67
2, 56116, Note_on_c, 0, 81, 88
2, 56120, Note_on_c, 0, 79, 0
2, 56124, Note_on_c, 0, 66, 57
2, 56128, Note_on_c, 0, 67, 0
2, 56136, Note_on_c, 0, 62, 61
2, 56140, Note_on_c, 0, 62, 0
2, 56140, Note_on_c, 0, 74, 63
2, 56172, Note_on_c, 0, 71, 75
2, 56176, Note_on_c, 0, 67, 0
2, 56180, Note_on_c, 0, 66, 0
2, 56180, Note_on_c, 0, 62, 0
2, 56200, Note_on_c, 0, 81, 0
2, 56248, Note_on_c, 0, 71, 0
2, 56252, Note_on_c, 0, 62, 63
2, 56312, Note_on_c, 0, 83, 92
2, 56320, Note_on_c, 0, 62, 0
2, 56332, Note_on_c, 0, 55, 61
2, 56332, Note_on_c, 0, 67, 49
2, 56340, Note_on_c, 0, 79, 49
2, 56360, Note_on_c, 0, 79, 0
2, 56424, Note_on_c, 0, 74, 0
2, 56444, Note_on_c, 0, 83, 0
2, 56456, Note_on_c, 0, 62, 69
2, 56492, Note_on_c, 0, 55, 0
2, 56508, Note_on_c, 0, 86, 95
2, 56520, Note_on_c, 0, 83, 83
2, 56520, Note_on_c, 0, 59, 63
2, 56524, Note_on_c, 0, 67, 0
2, 56528, Note_on_c, 0, 67, 69
2, 56540, Note_on_c, 0, 55, 0
2, 56564, Note_on_c, 0, 43, 0
2, 56564, Note_on_c, 0, 62, 0
2, 56592, Note_on_c, 0, 67, 0
2, 56592, Note_on_c, 0, 71, 76
2, 56656, Note_on_c, 0, 71, 0
2, 56664, Note_on_c, 0, 62, 64
2, 56712, Note_on_c, 0, 62, 0
2, 56712, Note_on_c, 0, 59, 0
2, 56720, Note_on_c, 0, 83, 0
2, 56732, Note_on_c, 0, 86, 0
2, 56736, Note_on_c, 0, 50, 67
2, 56736, Note_on_c, 0, 38, 73
2, 56736, Note_on_c, 0, 81, 86
2, 56736, Note_on_c, 0, 66, 68
2, 56736, Note_on_c, 0, 74, 70
2, 56736, Note_on_c, 0, 62, 74
2, 56800, Control_c, 0, 64, 88
2, 56804, Control_c, 0, 64, 56
2, 56816, Control_c, 0, 64, 0
2, 56868, Note_on_c, 0, 62, 66
2, 56884, Control_c, 0, 64, 56
2, 56892, Control_c, 0, 64, 127
2, 56944, Note_on_c, 0, 66, 64
2, 56952, Note_on_c, 0, 50, 0
2, 56956, Note_on_c, 0, 62, 0
2, 56960, Note_on_c, 0, 62, 0
2, 56964, Note_on_c, 0, 74, 0
2, 56968, Note_on_c, 0, 66, 0
2, 56968, Note_on_c, 0, 38, 0
2, 56968, Note_on_c, 0, 81, 0
2, 57004, Note_on_c, 0, 66, 0
2, 57008, Note_on_c, 0, 69, 68
2, 57076, Note_on_c, 0, 69, 0
2, 57084, Note_on_c, 0, 62, 61
2, 57124, Note_on_c, 0, 62, 0
2, 57208, Note_on_c, 0, 67, 83
2, 57228, Note_on_c, 0, 62, 55
2, 57268, Note_on_c, 0, 67, 70
2, 57272, Note_on_c, 0, 59, 58
2, 57280, Note_on_c, 0, 43, 52
2, 57284, Note_on_c, 0, 31, 52
2, 57292, Control_c, 0, 64, 88
2, 57300, Control_c, 0, 64, 24
2, 57304, Control_c, 0, 64, 0
2, 57344, Control_c, 0, 64, 40
2, 57352, Control_c, 0, 64, 104
2, 57360, Control_c, 0, 64, 127
2, 57364, Note_on_c, 0, 59, 0
2, 57432, Note_on_c, 0, 67, 0
2, 57436, Note_on_c, 0, 69, 84
2, 57440, Note_on_c, 0, 66, 63
2, 57444, Note_on_c, 0, 67, 0
2, 57456, Note_on_c, 0, 62, 64
2, 57456, Note_on_c, 0, 69, 76
2, 57544, Note_on_c, 0, 62, 0
2, 57576, Note_on_c, 0, 66, 0
2, 57604, Note_on_c, 0, 69, 0
2, 57604, Note_on_c, 0, 62, 0
2, 57612, Note_on_c, 0, 69, 0
2, 57648, Note_on_c, 0, 71, 81
2, 57648, Note_on_c, 0, 67, 67
2, 57804, Note_on_c, 0, 67, 0
2, 57840, Note_on_c, 0, 71, 0
2, 57848, Note_on_c, 0, 69, 83
2, 57848, Note_on_c, 0, 62, 66
2, 57852, Note_on_c, 0, 31, 0
2, 57876, Note_on_c, 0, 43, 0
2, 58024, Note_on_c, 0, 62, 0
2, 58028, Note_on_c, 0, 69, 0
2, 58036, Note_on_c, 0, 71, 83
2, 58040, Note_on_c, 0, 67, 76
2, 58100, Note_on_c, 0, 67, 0
2, 58112, Note_on_c, 0, 71, 0
2, 58232, Note_on_c, 0, 76, 90
2, 58232, Note_on_c, 0, 70, 75
2, 58232, Note_on_c, 0, 67, 68
2, 58232, Note_on_c, 0, 61, 76
2, 58328, Note_on_c, 0, 76, 0
2, 58356, Note_on_c, 0, 70, 0
2, 58416, Note_on_c, 0, 67, 0
2, 58424, Note_on_c, 0, 61, 0
2, 58424, Control_c, 0, 64, 0
2, 58440, Note_on_c, 0, 69, 84
2, 58440, Note_on_c, 0, 62, 75
2, 58440, Note_on_c, 0, 66, 67
2, 58576, Control_c, 0, 64, 40
2, 58588, Control_c, 0, 64, 56
2, 58592, Note_on_c, 0, 66, 0
2, 58600, Control_c, 0, 64, 72
2, 58628, Note_on_c, 0, 69, 0
2, 58632, Note_on_c, 0, 68, 80
2, 58632, Note_on_c, 0, 65, 71
2, 58632, Control_c, 0, 64, 88
2, 58644, Control_c, 0, 64, 104
2, 58672, Control_c, 0, 64, 127
2, 58736, Note_on_c, 0, 68, 0
2, 58792, Note_on_c, 0, 65, 0
2, 58816, Note_on_c, 0, 69, 85
2, 58816, Note_on_c, 0, 66, 68
2, 58840, Note_on_c, 0, 66, 0
2, 58872, Note_on_c, 0, 69, 0
2, 58980, Control_c, 0, 64, 72
2, 58992, Note_on_c, 0, 62, 0
2, 58992, Control_c, 0, 64, 24
2, 59004, Note_on_c, 0, 68, 78
2, 59004, Note_on_c, 0, 74, 91
2, 59004, Control_c, 0, 64, 0
2, 59012, Note_on_c, 0, 65, 73
2, 59020, Note_on_c, 0, 59, 63
2, 59068, Note_on_c, 0, 65, 0
2, 59084, Note_on_c, 0, 68, 0
2, 59084, Control_c, 0, 64, 40
2, 59100, Control_c, 0, 64, 88
2, 59112, Control_c, 0, 64, 104
2, 59124, Control_c, 0, 64, 127
2, 59136, Note_on_c, 0, 74, 0
2, 59180, Control_c, 0, 64, 56
2, 59192, Control_c, 0, 64, 0
2, 59212, Note_on_c, 0, 59, 0
2, 59216, Note_on_c, 0, 67, 85
2, 59216, Note_on_c, 0, 60, 73
2, 59216, Note_on_c, 0, 64, 68
2, 59248, Note_on_c, 0, 64, 0
2, 59284, Note_on_c, 0, 67, 0
2, 59300, Control_c, 0, 64, 56
2, 59316, Control_c, 0, 64, 88
2, 59328, Control_c, 0, 64, 104
2, 59340, Control_c, 0, 64, 127
2, 59404, Note_on_c, 0, 66, 82
2, 59420, Note_on_c, 0, 63, 66
2, 59456, Note_on_c, 0, 63, 0
2, 59484, Note_on_c, 0, 66, 0
2, 59612, Note_on_c, 0, 67, 82
2, 59624, Note_on_c, 0, 64, 68
2, 59656, Note_on_c, 0, 64, 0
2, 59692, Note_on_c, 0, 67, 0
2, 59756, Control_c, 0, 64, 88
2, 59772, Control_c, 0, 64, 40
2, 59784, Control_c, 0, 64, 0
2, 59788, Note_on_c, 0, 60, 0
2, 59804, Note_on_c, 0, 72, 87
2, 59812, Note_on_c, 0, 63, 66
2, 59812, Note_on_c, 0, 69, 75
2, 59816, Note_on_c, 0, 54, 75
2, 59864, Control_c, 0, 64, 24
2, 59880, Control_c, 0, 64, 56
2, 59892, Control_c, 0, 64, 88
2, 59908, Note_on_c, 0, 63, 0
2, 59908, Control_c, 0, 64, 127
2, 59928, Note_on_c, 0, 72, 0
2, 59944, Note_on_c, 0, 69, 0
2, 59972, Control_c, 0, 64, 72
2, 59984, Control_c, 0, 64, 40
2, 59996, Control_c, 0, 64, 0
2, 60000, Note_on_c, 0, 54, 0
2, 60028, Note_on_c, 0, 71, 83
2, 60028, Note_on_c, 0, 55, 69
2, 60028, Note_on_c, 0, 62, 67
2, 60028, Note_on_c, 0, 67, 70
2, 60124, Note_on_c, 0, 55, 0
2, 60132, Note_on_c, 0, 67, 0
2, 60132, Note_on_c, 0, 62, 0
2, 60132, Control_c, 0, 64, 56
2, 60144, Note_on_c, 0, 71, 0
2, 60144, Control_c, 0, 64, 104
2, 60160, Control_c, 0, 64, 127
2, 60416, Control_c, 0, 64, 40
2, 60428, Note_on_c, 0, 55, 81
2, 60428, Note_on_c, 0, 31, 64
2, 60428, Note_on_c, 0, 43, 61
2, 60428, Note_on_c, 0, 47, 68
2, 60428, Note_on_c, 0, 67, 77
2, 60428, Control_c, 0, 64, 0
2, 60492, Note_on_c, 0, 47, 0
2, 60512, Control_c, 0, 64, 24
2, 60524, Control_c, 0, 64, 56
2, 60536, Control_c, 0, 64, 72
2, 60552, Note_on_c, 0, 67, 0
2, 60552, Control_c, 0, 64, 88
2, 60564, Control_c, 0, 64, 104
2, 60584, Note_on_c, 0, 55, 0
2, 60616, Note_on_c, 0, 57, 79
2, 60616, Note_on_c, 0, 50, 74
2, 60616, Note_on_c, 0, 62, 69
2, 60740, Note_on_c, 0, 62, 0
2, 60752, Control_c, 0, 64, 88
2, 60756, Note_on_c, 0, 50, 0
2, 60776, Note_on_c, 0, 57, 0
2, 60820, Control_c, 0, 64, 72
2, 60828, Note_on_c, 0, 55, 73
2, 60828, Note_on_c, 0, 59, 82
2, 60828, Note_on_c, 0, 67, 74
2, 60828, Note_on_c, 0, 43, 73
2, 60828, Note_on_c, 0, 31, 74
2, 60832, Control_c, 0, 64, 56
2, 60848, Control_c, 0, 64, 24
2, 60860, Control_c, 0, 64, 0
2, 60952, Note_on_c, 0, 67, 0
2, 60952, Note_on_c, 0, 43, 0
2, 60952, Note_on_c, 0, 31, 0
2, 60972, Note_on_c, 0, 59, 0
2, 60980, Note_on_c, 0, 55, 0
2, 60992, Control_c, 0, 64, 24
2, 61004, Note_on_c, 0, 57, 75
2, 61004, Control_c, 0, 64, 72
2, 61020, Control_c, 0, 64, 104
2, 61024, Note_on_c, 0, 50, 73
2, 61032, Control_c, 0, 64, 127
2, 61096, Note_on_c, 0, 31, 0
2, 61156, Note_on_c, 0, 50, 0
2, 61160, Note_on_c, 0, 43, 0
2, 61168, Note_on_c, 0, 57, 0
2, 61200, Note_on_c, 0, 59, 81
2, 61212, Note_on_c, 0, 55, 68
2, 61236, Note_on_c, 0, 55, 0
2, 61252, Note_on_c, 0, 59, 0
2, 61404, Note_on_c, 0, 49, 65
2, 61404, Note_on_c, 0, 64, 83
2, 61404, Note_on_c, 0, 58, 76
2, 61404, Note_on_c, 0, 55, 79
2, 61456, Note_on_c, 0, 64, 0
2, 61508, Note_on_c, 0, 58, 0
2, 61552, Note_on_c, 0, 55, 0
2, 61592, Note_on_c, 0, 49, 0
2, 61616, Control_c, 0, 64, 0
2, 61620, Note_on_c, 0, 57, 81
2, 61620, Note_on_c, 0, 50, 70
2, 61620, Note_on_c, 0, 54, 71
2, 61636, Control_c, 0, 64, 88
2, 61652, Control_c, 0, 64, 40
2, 61664, Control_c, 0, 64, 0
2, 61784, Note_on_c, 0, 54, 0
2, 61800, Note_on_c, 0, 57, 0
2, 61800, Control_c, 0, 64, 40
2, 61812, Note_on_c, 0, 56, 78
2, 61812, Control_c, 0, 64, 88
2, 61828, Control_c, 0, 64, 127
2, 61832, Note_on_c, 0, 53, 72
2, 61948, Note_on_c, 0, 53, 0
2, 61968, Note_on_c, 0, 56, 0
2, 62008, Note_on_c, 0, 57, 81
2, 62008, Note_on_c, 0, 54, 68
2, 62024, Note_on_c, 0, 56, 51
2, 62048, Note_on_c, 0, 56, 0
2, 62056, Note_on_c, 0, 54, 0
2, 62064, Note_on_c, 0, 57, 0
2, 62148, Note_on_c, 0, 50, 0
2, 62172, Control_c, 0, 64, 72
2, 62184, Control_c, 0, 64, 0
2, 62200, Note_on_c, 0, 56, 72
2, 62204, Note_on_c, 0, 62, 84
2, 62208, Note_on_c, 0, 53, 76
2, 62208, Note_on_c, 0, 47, 71
2, 62256, Control_c, 0, 64, 24
2, 62268, Control_c, 0, 64, 56
2, 62276, Note_on_c, 0, 53, 0
2, 62280, Control_c, 0, 64, 88
2, 62284, Note_on_c, 0, 56, 0
2, 62296, Control_c, 0, 64, 127
2, 62348, Note_on_c, 0, 62, 0
2, 62364, Control_c, 0, 64, 40
2, 62376, Control_c, 0, 64, 0
2, 62392, Note_on_c, 0, 47, 0
2, 62404, Note_on_c, 0, 55, 88
2, 62404, Note_on_c, 0, 52, 70
2, 62404, Note_on_c, 0, 48, 80
2, 62440, Note_on_c, 0, 52, 0
2, 62456, Control_c, 0, 64, 24
2, 62468, Control_c, 0, 64, 88
2, 62476, Note_on_c, 0, 55, 0
2, 62484, Control_c, 0, 64, 127
2, 62584, Note_on_c, 0, 51, 70
2, 62584, Note_on_c, 0, 54, 74
2, 62672, Note_on_c, 0, 54, 0
2, 62680, Note_on_c, 0, 51, 0
2, 62784, Note_on_c, 0, 55, 87
2, 62792, Note_on_c, 0, 52, 73
2, 62816, Note_on_c, 0, 52, 0
2, 62872, Note_on_c, 0, 55, 0
2, 62932, Note_on_c, 0, 48, 0
2, 62940, Control_c, 0, 64, 104
2, 62952, Control_c, 0, 64, 72
2, 62968, Control_c, 0, 64, 0
2, 62980, Note_on_c, 0, 60, 83
2, 62984, Note_on_c, 0, 51, 69
2, 62984, Note_on_c, 0, 42, 63
2, 62992, Note_on_c, 0, 57, 69
2, 63060, Control_c, 0, 64, 24
2, 63076, Note_on_c, 0, 51, 0
2, 63076, Control_c, 0, 64, 72
2, 63088, Note_on_c, 0, 60, 0
2, 63088, Control_c, 0, 64, 88
2, 63100, Control_c, 0, 64, 104
2, 63116, Note_on_c, 0, 57, 0
2, 63164, Control_c, 0, 64, 56
2, 63180, Note_on_c, 0, 42, 0
2, 63180, Control_c, 0, 64, 40
2, 63192, Note_on_c, 0, 59, 78
2, 63192, Note_on_c, 0, 43, 71
2, 63192, Note_on_c, 0, 50, 68
2, 63192, Note_on_c, 0, 55, 66
2, 63196, Control_c, 0, 64, 0
2, 63340, Note_on_c, 0, 50, 0
2, 63372, Control_c, 0, 64, 56
2, 63384, Note_on_c, 0, 59, 0
2, 63384, Control_c, 0, 64, 88
2, 63396, Note_on_c, 0, 55, 0
2, 63396, Control_c, 0, 64, 127
2, 63424, Note_on_c, 0, 43, 0
2, 63596, Control_c, 0, 64, 56
2, 63604, Note_on_c, 0, 60, 80
2, 63604, Note_on_c, 0, 52, 71
2, 63612, Control_c, 0, 64, 0
2, 63616, Note_on_c, 0, 48, 66
2, 63628, Note_on_c, 0, 36, 67
2, 63628, Note_on_c, 0, 43, 63
2, 63660, Note_on_c, 0, 52, 0
2, 63692, Control_c, 0, 64, 40
2, 63708, Control_c, 0, 64, 88
2, 63720, Control_c, 0, 64, 104
2, 63732, Control_c, 0, 64, 127
2, 63764, Note_on_c, 0, 60, 0
2, 63784, Note_on_c, 0, 62, 83
2, 63784, Note_on_c, 0, 55, 76
2, 63924, Note_on_c, 0, 55, 0
2, 63940, Note_on_c, 0, 62, 0
2, 63984, Note_on_c, 0, 64, 83
2, 63984, Note_on_c, 0, 60, 73
2, 63988, Control_c, 0, 64, 72
2, 64004, Control_c, 0, 64, 0
2, 64096, Control_c, 0, 64, 56
2, 64108, Control_c, 0, 64, 104
2, 64120, Control_c, 0, 64, 127
2, 64132, Note_on_c, 0, 64, 0
2, 64144, Note_on_c, 0, 60, 0
2, 64176, Note_on_c, 0, 62, 76
2, 64208, Note_on_c, 0, 59, 67
2, 64252, Note_on_c, 0, 36, 0
2, 64276, Note_on_c, 0, 43, 0
2, 64324, Note_on_c, 0, 48, 0
2, 64328, Note_on_c, 0, 62, 0
2, 64368, Note_on_c, 0, 64, 75
2, 64368, Note_on_c, 0, 60, 68
2, 64376, Note_on_c, 0, 59, 0
2, 64396, Note_on_c, 0, 60, 0
2, 64400, Note_on_c, 0, 64, 0
2, 64556, Note_on_c, 0, 67, 85
2, 64556, Note_on_c, 0, 52, 76
2, 64556, Note_on_c, 0, 64, 73
2, 64600, Note_on_c, 0, 64, 0
2, 64604, Note_on_c, 0, 52, 0
2, 64680, Note_on_c, 0, 67, 0
2, 64768, Note_on_c, 0, 62, 84
2, 64768, Note_on_c, 0, 59, 67
2, 64768, Note_on_c, 0, 55, 73
2, 64792, Control_c, 0, 64, 72
2, 64808, Control_c, 0, 64, 0
2, 64916, Control_c, 0, 64, 56
2, 64928, Control_c, 0, 64, 88
2, 64940, Note_on_c, 0, 55, 0
2, 64944, Note_on_c, 0, 62, 0
2, 64944, Control_c, 0, 64, 127
2, 64948, Note_on_c, 0, 59, 0
2, 64960, Note_on_c, 0, 61, 79
2, 64960, Note_on_c, 0, 58, 64
2, 64960, Note_on_c, 0, 67, 68
2, 65084, Note_on_c, 0, 67, 0
2, 65108, Note_on_c, 0, 58, 0
2, 65112, Note_on_c, 0, 61, 0
2, 65156, Note_on_c, 0, 62, 82
2, 65156, Note_on_c, 0, 55, 67
2, 65156, Note_on_c, 0, 59, 66
2, 65208, Note_on_c, 0, 55, 0
2, 65224, Note_on_c, 0, 59, 0
2, 65300, Note_on_c, 0, 62, 0
2, 65312, Control_c, 0, 64, 72
2, 65332, Control_c, 0, 64, 24
2, 65340, Note_on_c, 0, 64, 88
2, 65340, Note_on_c, 0, 58, 68
2, 65340, Note_on_c, 0, 61, 73
2, 65340, Control_c, 0, 64, 0
2, 65384, Control_c, 0, 64, 24
2, 65396, Control_c, 0, 64, 56
2, 65412, Control_c, 0, 64, 88
2, 65424, Control_c, 0, 64, 127
2, 65484, Note_on_c, 0, 61, 0
2, 65484, Note_on_c, 0, 58, 0
2, 65504, Control_c, 0, 64, 104
2, 65516, Note_on_c, 0, 64, 0
2, 65516, Control_c, 0, 64, 40
2, 65532, Control_c, 0, 64, 0
2, 65536, Note_on_c, 0, 65, 83
2, 65548, Note_on_c, 0, 60, 72
2, 65556, Note_on_c, 0, 57, 66
2, 65628, Control_c, 0, 64, 24
2, 65640, Control_c, 0, 64, 56
2, 65652, Control_c, 0, 64, 88
2, 65668, Control_c, 0, 64, 127
2, 65688, Note_on_c, 0, 65, 0
2, 65700, Note_on_c, 0, 60, 0
2, 65724, Note_on_c, 0, 57, 0
2, 65728, Note_on_c, 0, 64, 82
2, 65732, Note_on_c, 0, 58, 67
2, 65732, Note_on_c, 0, 61, 65
2, 65856, Note_on_c, 0, 61, 0
2, 65884, Note_on_c, 0, 58, 0
2, 65888, Note_on_c, 0, 64, 0
2, 65916, Note_on_c, 0, 65, 81
2, 65916, Note_on_c, 0, 60, 72
2, 65916, Note_on_c, 0, 57, 75
2, 65916, Note_on_c, 0, 31, 72
2, 65956, Note_on_c, 0, 65, 0
2, 65960, Note_on_c, 0, 60, 0
2, 65960, Note_on_c, 0, 57, 0
2, 66108, Note_on_c, 0, 67, 88
2, 66112, Note_on_c, 0, 59, 61
2, 66120, Note_on_c, 0, 55, 64
2, 66168, Note_on_c, 0, 59, 0
2, 66224, Note_on_c, 0, 31, 0
2, 66224, Note_on_c, 0, 67, 0
2, 66236, Note_on_c, 0, 55, 0
2, 66272, Control_c, 0, 64, 88
2, 66280, Control_c, 0, 64, 40
2, 66296, Control_c, 0, 64, 0
2, 66312, Note_on_c, 0, 64, 83
2, 66320, Note_on_c, 0, 60, 79
2, 66340, Note_on_c, 0, 36, 74
2, 66340, Note_on_c, 0, 48, 68
2, 66392, Control_c, 0, 64, 24
2, 66404, Control_c, 0, 64, 88
2, 66416, Control_c, 0, 64, 127
2, 66448, Note_on_c, 0, 60, 0
2, 66460, Note_on_c, 0, 64, 0
2, 66496, Note_on_c, 0, 55, 68
2, 66500, Note_on_c, 0, 62, 83
2, 66560, Note_on_c, 0, 48, 0
2, 66572, Note_on_c, 0, 55, 0
2, 66620, Note_on_c, 0, 36, 0
2, 66656, Note_on_c, 0, 62, 0
2, 66696, Note_on_c, 0, 60, 83
2, 66696, Note_on_c, 0, 52, 63
2, 66696, Note_on_c, 0, 48, 64
2, 66696, Note_on_c, 0, 36, 68
2, 66696, Note_on_c, 0, 43, 65
2, 66828, Note_on_c, 0, 52, 0
2, 66832, Note_on_c, 0, 60, 0
2, 66848, Control_c, 0, 64, 72
2, 66864, Control_c, 0, 64, 24
2, 66872, Control_c, 0, 64, 0
2, 66884, Note_on_c, 0, 62, 84
2, 66900, Note_on_c, 0, 55, 71
2, 66928, Control_c, 0, 64, 40
2, 66940, Control_c, 0, 64, 72
2, 66956, Control_c, 0, 64, 127
2, 67044, Note_on_c, 0, 36, 0
2, 67044, Note_on_c, 0, 43, 0
2, 67044, Note_on_c, 0, 48, 0
2, 67052, Note_on_c, 0, 62, 0
2, 67052, Note_on_c, 0, 55, 0
2, 67064, Control_c, 0, 64, 88
2, 67076, Note_on_c, 0, 64, 87
2, 67076, Note_on_c, 0, 60, 77
2, 67076, Note_on_c, 0, 48, 69
2, 67080, Control_c, 0, 64, 56
2, 67116, Control_c, 0, 64, 104
2, 67132, Control_c, 0, 64, 127
2, 67212, Note_on_c, 0, 60, 0
2, 67244, Note_on_c, 0, 64, 0
2, 67260, Note_on_c, 0, 62, 81
2, 67268, Note_on_c, 0, 59, 63
2, 67396, Note_on_c, 0, 59, 0
2, 67420, Note_on_c, 0, 62, 0
2, 67452, Note_on_c, 0, 64, 81
2, 67460, Note_on_c, 0, 60, 75
2, 67540, Note_on_c, 0, 60, 0
2, 67604, Note_on_c, 0, 64, 0
2, 67612, Control_c, 0, 64, 88
2, 67628, Control_c, 0, 64, 40
2, 67636, Note_on_c, 0, 67, 86
2, 67636, Note_on_c, 0, 52, 73
2, 67636, Note_on_c, 0, 64, 68
2, 67640, Control_c, 0, 64, 0
2, 67680, Control_c, 0, 64, 40
2, 67692, Control_c, 0, 64, 72
2, 67708, Control_c, 0, 64, 104
2, 67720, Control_c, 0, 64, 127
2, 67748, Note_on_c, 0, 52, 0
2, 67768, Note_on_c, 0, 67, 0
2, 67808, Note_on_c, 0, 48, 0
2, 67816, Note_on_c, 0, 64, 0
2, 67828, Note_on_c, 0, 62, 84
2, 67828, Note_on_c, 0, 55, 71
2, 67828, Note_on_c, 0, 59, 68
2, 67828, Control_c, 0, 64, 72
2, 67844, Control_c, 0, 64, 0
2, 67908, Control_c, 0, 64, 56
2, 67924, Control_c, 0, 64, 88
2, 67936, Control_c, 0, 64, 127
2, 67964, Note_on_c, 0, 59, 0
2, 67968, Note_on_c, 0, 55, 0
2, 67988, Note_on_c, 0, 62, 0
2, 68008, Note_on_c, 0, 61, 83
2, 68008, Note_on_c, 0, 58, 66
2, 68008, Note_on_c, 0, 67, 68
2, 68100, Control_c, 0, 64, 88
2, 68112, Control_c, 0, 64, 56
2, 68124, Control_c, 0, 64, 40
2, 68144, Note_on_c, 0, 58, 0
2, 68156, Note_on_c, 0, 61, 0
2, 68160, Control_c, 0, 64, 72
2, 68176, Control_c, 0, 64, 88
2, 68192, Control_c, 0, 64, 104
2, 68196, Note_on_c, 0, 62, 79
2, 68196, Note_on_c, 0, 55, 68
2, 68196, Note_on_c, 0, 59, 65
2, 68204, Control_c, 0, 64, 127
2, 68248, Note_on_c, 0, 55, 0
2, 68284, Note_on_c, 0, 59, 0
2, 68296, Control_c, 0, 64, 88
2, 68312, Control_c, 0, 64, 40
2, 68324, Control_c, 0, 64, 0
2, 68344, Note_on_c, 0, 62, 0
2, 68356, Note_on_c, 0, 67, 0
2, 68380, Note_on_c, 0, 64, 88
2, 68380, Note_on_c, 0, 61, 73
2, 68380, Note_on_c, 0, 58, 72
2, 68420, Control_c, 0, 64, 40
2, 68432, Control_c, 0, 64, 72
2, 68448, Control_c, 0, 64, 104
2, 68460, Control_c, 0, 64, 127
2, 68512, Control_c, 0, 64, 72
2, 68528, Note_on_c, 0, 61, 0
2, 68528, Control_c, 0, 64, 40
2, 68540, Note_on_c, 0, 58, 0
2, 68540, Control_c, 0, 64, 0
2, 68552, Note_on_c, 0, 64, 0
2, 68560, Note_on_c, 0, 65, 84
2, 68560, Note_on_c, 0, 60, 75
2, 68560, Note_on_c, 0, 57, 69
2, 68620, Control_c, 0, 64, 40
2, 68632, Control_c, 0, 64, 88
2, 68648, Control_c, 0, 64, 127
2, 68700, Note_on_c, 0, 57, 0
2, 68708, Note_on_c, 0, 60, 0
2, 68708, Note_on_c, 0, 65, 0
2, 68752, Note_on_c, 0, 64, 79
2, 68756, Note_on_c, 0, 61, 67
2, 68756, Note_on_c, 0, 58, 70
2, 68892, Note_on_c, 0, 58, 0
2, 68892, Note_on_c, 0, 61, 0
2, 68916, Note_on_c, 0, 64, 0
2, 68936, Note_on_c, 0, 65, 83
2, 68936, Note_on_c, 0, 57, 73
2, 68936, Note_on_c, 0, 60, 71
2, 68936, Note_on_c, 0, 31, 72
2, 68992, Note_on_c, 0, 60, 0
2, 68992, Note_on_c, 0, 65, 0
2, 68992, Note_on_c, 0, 57, 0
2, 69112, Note_on_c, 0, 67, 87
2, 69124, Note_on_c, 0, 55, 67
2, 69124, Note_on_c, 0, 59, 67
2, 69180, Note_on_c, 0, 59, 0
2, 69220, Note_on_c, 0, 67, 0
2, 69232, Note_on_c, 0, 55, 0
2, 69276, Control_c, 0, 64, 104
2, 69284, Note_on_c, 0, 31, 0
2, 69292, Control_c, 0, 64, 56
2, 69308, Note_on_c, 0, 64, 85
2, 69308, Control_c, 0, 64, 0
2, 69312, Note_on_c, 0, 55, 67
2, 69316, Note_on_c, 0, 60, 75
2, 69324, Note_on_c, 0, 36, 69
2, 69388, Control_c, 0, 64, 24
2, 69400, Control_c, 0, 64, 72
2, 69412, Control_c, 0, 64, 127
2, 69444, Note_on_c, 0, 64, 0
2, 69456, Note_on_c, 0, 55, 0
2, 69456, Note_on_c, 0, 60, 0
2, 69484, Note_on_c, 0, 62, 88
2, 69572, Note_on_c, 0, 62, 0
2, 69576, Note_on_c, 0, 36, 0
2, 69656, Control_c, 0, 64, 72
2, 69664, Note_on_c, 0, 60, 98
2, 69668, Control_c, 0, 64, 24
2, 69676, Note_on_c, 0, 48, 89
2, 69676, Note_on_c, 0, 36, 83
2, 69684, Control_c, 0, 64, 0
2, 69712, Note_on_c, 0, 36, 0
2, 69716, Note_on_c, 0, 48, 0
2, 69764, Note_on_c, 0, 60, 0
2, 69856, Note_on_c, 0, 62, 95
2, 69860, Note_on_c, 0, 50, 91
2, 69868, Note_on_c, 0, 38, 78
2, 69892, Note_on_c, 0, 38, 0
2, 69908, Note_on_c, 0, 50, 0
2, 69988, Note_on_c, 0, 62, 0
2, 70044, Note_on_c, 0, 64, 99
2, 70052, Note_on_c, 0, 52, 92
2, 70056, Note_on_c, 0, 40, 88
2, 70084, Note_on_c, 0, 40, 0
2, 70100, Note_on_c, 0, 52, 0
2, 70108, Note_on_c, 0, 64, 0
2, 70216, Note_on_c, 0, 65, 96
2, 70232, Note_on_c, 0, 53, 88
2, 70240, Note_on_c, 0, 41, 88
2, 70264, Note_on_c, 0, 41, 0
2, 70280, Note_on_c, 0, 53, 0
2, 70336, Note_on_c, 0, 65, 0
2, 70392, Note_on_c, 0, 67, 97
2, 70408, Note_on_c, 0, 55, 93
2, 70412, Note_on_c, 0, 43, 91
2, 70436, Note_on_c, 0, 43, 0
2, 70456, Note_on_c, 0, 55, 0
2, 70520, Note_on_c, 0, 67, 0
2, 70560, Note_on_c, 0, 69, 88
2, 70576, Note_on_c, 0, 57, 80
2, 70592, Note_on_c, 0, 45, 72
2, 70600, Note_on_c, 0, 57, 0
2, 70616, Note_on_c, 0, 45, 0
2, 70628, Note_on_c, 0, 69, 0
2, 70704, Note_on_c, 0, 70, 76
2, 70748, Note_on_c, 0, 72, 88
2, 70760, Note_on_c, 0, 70, 0
2, 70784, Note_on_c, 0, 70, 89
2, 70784, Note_on_c, 0, 58, 83
2, 70784, Note_on_c, 0, 46, 83
2, 70832, Note_on_c, 0, 72, 0
2, 70868, Note_on_c, 0, 46, 0
2, 70868, Note_on_c, 0, 58, 0
2, 70896, Note_on_c, 0, 70, 0
2, 70944, Note_on_c, 0, 67, 100
2, 70960, Note_on_c, 0, 55, 93
2, 70964, Note_on_c, 0, 43, 84
2, 70996, Note_on_c, 0, 55, 0
2, 71000, Note_on_c, 0, 43, 0
2, 71104, Note_on_c, 0, 67, 0
2, 71124, Note_on_c, 0, 64, 99
2, 71144, Note_on_c, 0, 52, 87
2, 71152, Note_on_c, 0, 40, 84
2, 71176, Note_on_c, 0, 40, 0
2, 71192, Note_on_c, 0, 52, 0
2, 71228, Note_on_c, 0, 64, 0
2, 71304, Note_on_c, 0, 62, 100
2, 71316, Note_on_c, 0, 50, 93
2, 71324, Note_on_c, 0, 38, 91
2, 71356, Note_on_c, 0, 38, 0
2, 71364, Note_on_c, 0, 50, 0
2, 71476, Note_on_c, 0, 62, 0
2, 71496, Note_on_c, 0, 60, 100
2, 71500, Note_on_c, 0, 48, 100
2, 71508, Note_on_c, 0, 36, 94
2, 71552, Note_on_c, 0, 48, 0
2, 71556, Note_on_c, 0, 36, 0
2, 71596, Note_on_c, 0, 60, 0
2, 71676, Note_on_c, 0, 46, 106
2, 71676, Note_on_c, 0, 58, 93
2, 71680, Note_on_c, 0, 34, 97
2, 71724, Note_on_c, 0, 46, 0
2, 71728, Note_on_c, 0, 34, 0
2, 71800, Note_on_c, 0, 58, 0
2, 71868, Note_on_c, 0, 57, 108
2, 71868, Note_on_c, 0, 45, 106
2, 71872, Note_on_c, 0, 33, 94
2, 71912, Note_on_c, 0, 45, 0
2, 71924, Note_on_c, 0, 33, 0
2, 71960, Note_on_c, 0, 57, 0
2, 72048, Note_on_c, 0, 55, 109
2, 72052, Note_on_c, 0, 43, 103
2, 72060, Note_on_c, 0, 31, 98
2, 72100, Note_on_c, 0, 43, 0
2, 72112, Note_on_c, 0, 31, 0
2, 72156, Note_on_c, 0, 55, 0
2, 72248, Note_on_c, 0, 53, 111
2, 72264, Note_on_c, 0, 29, 94
2, 72264, Note_on_c, 0, 41, 100
2, 72316, Note_on_c, 0, 41, 0
2, 72316, Note_on_c, 0, 29, 0
2, 72328, Control_c, 0, 64, 72
2, 72340, Control_c, 0, 64, 127
2, 72384, Note_on_c, 0, 53, 0
2, 72632, Note_on_c, 0, 77, 99
2, 72636, Note_on_c, 0, 57, 75
2, 72644, Control_c, 0, 64, 56
2, 72652, Control_c, 0, 64, 127
2, 72712, Note_on_c, 0, 72, 84
2, 72736, Note_on_c, 0, 77, 0
2, 72784, Note_on_c, 0, 72, 0
2, 72788, Note_on_c, 0, 60, 81
2, 72796, Note_on_c, 0, 79, 96
2, 72804, Note_on_c, 0, 76, 84
2, 72808, Note_on_c, 0, 60, 0
2, 72808, Note_on_c, 0, 57, 0
2, 72824, Note_on_c, 0, 76, 0
2, 72880, Note_on_c, 0, 79, 0
2, 72880, Note_on_c, 0, 72, 86
2, 72924, Control_c, 0, 64, 104
2, 72932, Control_c, 0, 64, 40
2, 72936, Note_on_c, 0, 72, 0
2, 72940, Control_c, 0, 64, 0
2, 72944, Note_on_c, 0, 81, 98
2, 72948, Note_on_c, 0, 77, 96
2, 72956, Note_on_c, 0, 41, 81
2, 72960, Note_on_c, 0, 53, 72
2, 72980, Control_c, 0, 64, 56
2, 72988, Control_c, 0, 64, 127
2, 73016, Note_on_c, 0, 77, 0
2, 73024, Note_on_c, 0, 72, 88
2, 73044, Note_on_c, 0, 81, 0
2, 73056, Note_on_c, 0, 53, 0
2, 73056, Note_on_c, 0, 41, 0
2, 73092, Note_on_c, 0, 72, 0
2, 73100, Note_on_c, 0, 79, 88
2, 73108, Note_on_c, 0, 76, 83
2, 73156, Note_on_c, 0, 76, 0
2, 73176, Note_on_c, 0, 72, 88
2, 73192, Note_on_c, 0, 79, 0
2, 73236, Note_on_c, 0, 72, 0
2, 73240, Note_on_c, 0, 60, 88
2, 73244, Note_on_c, 0, 81, 91
2, 73248, Note_on_c, 0, 77, 91
2, 73280, Note_on_c, 0, 60, 0
2, 73288, Note_on_c, 0, 77, 0
2, 73304, Note_on_c, 0, 81, 0
2, 73320, Note_on_c, 0, 72, 85
2, 73380, Note_on_c, 0, 72, 0
2, 73396, Note_on_c, 0, 84, 99
2, 73396, Note_on_c, 0, 81, 88
2, 73444, Note_on_c, 0, 81, 0
2, 73452, Note_on_c, 0, 84, 0
2, 73472, Note_on_c, 0, 72, 84
2, 73500, Control_c, 0, 64, 72
2, 73508, Control_c, 0, 64, 0
2, 73528, Note_on_c, 0, 72, 0
2, 73536, Note_on_c, 0, 79, 94
2, 73540, Note_on_c, 0, 76, 91
2, 73540, Note_on_c, 0, 48, 82
2, 73544, Note_on_c, 0, 36, 78
2, 73564, Control_c, 0, 64, 88
2, 73572, Control_c, 0, 64, 127
2, 73584, Note_on_c, 0, 36, 0
2, 73588, Note_on_c, 0, 76, 0
2, 73596, Note_on_c, 0, 48, 0
2, 73616, Note_on_c, 0, 79, 0
2, 73620, Note_on_c, 0, 72, 89
2, 73684, Note_on_c, 0, 72, 0
2, 73688, Note_on_c, 0, 78, 91
2, 73704, Note_on_c, 0, 75, 72
2, 73748, Note_on_c, 0, 75, 0
2, 73772, Note_on_c, 0, 78, 0
2, 73772, Note_on_c, 0, 72, 93
2, 73832, Note_on_c, 0, 60, 86
2, 73836, Note_on_c, 0, 72, 0
2, 73844, Note_on_c, 0, 79, 98
2, 73848, Note_on_c, 0, 76, 93
2, 73860, Note_on_c, 0, 78, 54
2, 73876, Note_on_c, 0, 78, 0
2, 73892, Note_on_c, 0, 76, 0
2, 73920, Note_on_c, 0, 72, 96
2, 73944, Note_on_c, 0, 79, 0
2, 73988, Note_on_c, 0, 72, 0
2, 73992, Note_on_c, 0, 60, 0
2, 73996, Note_on_c, 0, 81, 96
2, 73996, Note_on_c, 0, 78, 83
2, 74000, Note_on_c, 0, 75, 80
2, 74056, Note_on_c, 0, 75, 0
2, 74060, Note_on_c, 0, 81, 0
2, 74064, Note_on_c, 0, 72, 93
2, 74072, Note_on_c, 0, 78, 0
2, 74132, Note_on_c, 0, 72, 0
2, 74148, Note_on_c, 0, 82, 94
2, 74152, Note_on_c, 0, 74, 78
2, 74156, Note_on_c, 0, 79, 76
2, 74184, Note_on_c, 0, 74, 0
2, 74216, Note_on_c, 0, 79, 0
2, 74220, Note_on_c, 0, 82, 0
2, 74228, Note_on_c, 0, 72, 93
2, 74292, Note_on_c, 0, 72, 0
2, 74300, Note_on_c, 0, 81, 93
2, 74304, Note_on_c, 0, 78, 83
2, 74308, Note_on_c, 0, 75, 76
2, 74356, Note_on_c, 0, 75, 0
2, 74364, Note_on_c, 0, 81, 0
2, 74368, Note_on_c, 0, 78, 0
2, 74372, Note_on_c, 0, 72, 95
2, 74444, Note_on_c, 0, 72, 0
2, 74448, Control_c, 0, 64, 72
2, 74456, Control_c, 0, 64, 0
2, 74468, Note_on_c, 0, 82, 97
2, 74468, Note_on_c, 0, 74, 83
2, 74480, Note_on_c, 0, 60, 83
2, 74480, Note_on_c, 0, 79, 84
2, 74484, Note_on_c, 0, 48, 78
2, 74508, Note_on_c, 0, 74, 0
2, 74512, Control_c, 0, 64, 40
2, 74524, Control_c, 0, 64, 104
2, 74532, Note_on_c, 0, 79, 0
2, 74532, Control_c, 0, 64, 127
2, 74540, Note_on_c, 0, 82, 0
2, 74544, Note_on_c, 0, 72, 95
2, 74548, Note_on_c, 0, 60, 0
2, 74612, Note_on_c, 0, 72, 0
2, 74628, Note_on_c, 0, 79, 78
2, 74628, Note_on_c, 0, 84, 101
2, 74632, Note_on_c, 0, 60, 92
2, 74632, Note_on_c, 0, 76, 88
2, 74648, Note_on_c, 0, 60, 0
2, 74660, Note_on_c, 0, 48, 0
2, 74680, Note_on_c, 0, 76, 0
2, 74692, Note_on_c, 0, 84, 0
2, 74692, Note_on_c, 0, 79, 0
2, 74704, Note_on_c, 0, 72, 94
2, 74764, Control_c, 0, 64, 104
2, 74768, Note_on_c, 0, 72, 0
2, 74772, Control_c, 0, 64, 40
2, 74784, Note_on_c, 0, 81, 94
2, 74784, Control_c, 0, 64, 0
2, 74788, Note_on_c, 0, 77, 93
2, 74800, Note_on_c, 0, 53, 84
2, 74800, Note_on_c, 0, 41, 82
2, 74828, Control_c, 0, 64, 24
2, 74836, Control_c, 0, 64, 104
2, 74848, Note_on_c, 0, 41, 0
2, 74848, Control_c, 0, 64, 127
2, 74860, Note_on_c, 0, 53, 0
2, 74860, Note_on_c, 0, 77, 0
2, 74868, Note_on_c, 0, 72, 92
2, 74884, Note_on_c, 0, 81, 0
2, 74932, Note_on_c, 0, 72, 0
2, 74940, Note_on_c, 0, 79, 92
2, 74948, Note_on_c, 0, 76, 88
2, 75000, Note_on_c, 0, 76, 0
2, 75012, Note_on_c, 0, 72, 91
2, 75016, Note_on_c, 0, 79, 0
2, 75080, Note_on_c, 0, 72, 0
2, 75096, Note_on_c, 0, 77, 100
2, 75112, Note_on_c, 0, 57, 80
2, 75168, Note_on_c, 0, 77, 0
2, 75172, Note_on_c, 0, 72, 93
2, 75236, Note_on_c, 0, 72, 0
2, 75248, Note_on_c, 0, 79, 94
2, 75248, Note_on_c, 0, 60, 79
2, 75256, Note_on_c, 0, 76, 88
2, 75268, Note_on_c, 0, 60, 0
2, 75272, Note_on_c, 0, 57, 0
2, 75292, Note_on_c, 0, 76, 0
2, 75320, Note_on_c, 0, 79, 0
2, 75320, Note_on_c, 0, 72, 93
2, 75388, Note_on_c, 0, 72, 0
2, 75388, Control_c, 0, 64, 88
2, 75396, Control_c, 0, 64, 24
2, 75404, Note_on_c, 0, 81, 93
2, 75404, Control_c, 0, 64, 0
2, 75412, Note_on_c, 0, 77, 88
2, 75424, Note_on_c, 0, 53, 88
2, 75428, Note_on_c, 0, 41, 82
2, 75460, Control_c, 0, 64, 72
2, 75472, Control_c, 0, 64, 127
2, 75488, Note_on_c, 0, 41, 0
2, 75488, Note_on_c, 0, 77, 0
2, 75488, Note_on_c, 0, 72, 93
2, 75496, Note_on_c, 0, 81, 0
2, 75512, Note_on_c, 0, 53, 0
2, 75552, Note_on_c, 0, 72, 0
2, 75568, Note_on_c, 0, 79, 93
2, 75572, Note_on_c, 0, 76, 80
2, 75620, Note_on_c, 0, 76, 0
2, 75636, Note_on_c, 0, 72, 91
2, 75648, Note_on_c, 0, 79, 0
2, 75708, Note_on_c, 0, 72, 0
2, 75720, Note_on_c, 0, 60, 93
2, 75720, Note_on_c, 0, 81, 93
2, 75724, Note_on_c, 0, 77, 87
2, 75776, Note_on_c, 0, 60, 0
2, 75780, Note_on_c, 0, 77, 0
2, 75784, Note_on_c, 0, 81, 0
2, 75796, Note_on_c, 0, 72, 91
2, 75860, Note_on_c, 0, 72, 0
2, 75876, Note_on_c, 0, 84, 95
2, 75876, Note_on_c, 0, 81, 83
2, 75924, Note_on_c, 0, 81, 0
2, 75936, Note_on_c, 0, 84, 0
2, 75948, Note_on_c, 0, 72, 93
2, 75992, Control_c, 0, 64, 104
2, 76000, Control_c, 0, 64, 24
2, 76012, Note_on_c, 0, 72, 0
2, 76012, Control_c, 0, 64, 0
2, 76028, Note_on_c, 0, 79, 88
2, 76028, Note_on_c, 0, 76, 85
2, 76032, Note_on_c, 0, 48, 83
2, 76036, Note_on_c, 0, 36, 82
2, 76064, Control_c, 0, 64, 104
2, 76076, Control_c, 0, 64, 127
2, 76080, Note_on_c, 0, 76, 0
2, 76084, Note_on_c, 0, 36, 0
2, 76100, Note_on_c, 0, 79, 0
2, 76108, Note_on_c, 0, 72, 93
2, 76116, Note_on_c, 0, 48, 0
2, 76176, Note_on_c, 0, 78, 88
2, 76180, Note_on_c, 0, 72, 0
2, 76184, Note_on_c, 0, 75, 73
2, 76228, Note_on_c, 0, 75, 0
2, 76244, Note_on_c, 0, 78, 0
2, 76248, Note_on_c, 0, 72, 94
2, 76316, Note_on_c, 0, 72, 0
2, 76328, Note_on_c, 0, 79, 92
2, 76332, Note_on_c, 0, 76, 82
2, 76384, Note_on_c, 0, 76, 0
2, 76400, Note_on_c, 0, 72, 93
2, 76416, Note_on_c, 0, 79, 0
2, 76468, Note_on_c, 0, 72, 0
2, 76476, Note_on_c, 0, 81, 94
2, 76476, Note_on_c, 0, 78, 87
2, 76480, Note_on_c, 0, 75, 80
2, 76524, Note_on_c, 0, 75, 0
2, 76540, Note_on_c, 0, 78, 0
2, 76544, Note_on_c, 0, 81, 0
2, 76548, Note_on_c, 0, 72, 95
2, 76608, Note_on_c, 0, 72, 0
2, 76628, Note_on_c, 0, 82, 94
2, 76632, Note_on_c, 0, 74, 74
2, 76640, Note_on_c, 0, 79, 75
2, 76664, Note_on_c, 0, 74, 0
2, 76700, Note_on_c, 0, 79, 0
2, 76704, Note_on_c, 0, 82, 0
2, 76704, Note_on_c, 0, 72, 90
2, 76768, Note_on_c, 0, 72, 0
2, 76780, Note_on_c, 0, 81, 93
2, 76784, Note_on_c, 0, 78, 80
2, 76788, Note_on_c, 0, 75, 74
2, 76840, Note_on_c, 0, 75, 0
2, 76844, Note_on_c, 0, 81, 0
2, 76852, Note_on_c, 0, 78, 0
2, 76852, Note_on_c, 0, 72, 98
2, 76912, Note_on_c, 0, 72, 0
2, 76912, Control_c, 0, 64, 72
2, 76920, Control_c, 0, 64, 0
2, 76928, Note_on_c, 0, 82, 93
2, 76936, Note_on_c, 0, 79, 81
2, 76936, Note_on_c, 0, 60, 68
2, 76936, Note_on_c, 0, 74, 72
2, 76944, Note_on_c, 0, 48, 78
2, 76968, Note_on_c, 0, 74, 0
2, 76968, Control_c, 0, 64, 24
2, 76976, Control_c, 0, 64, 104
2, 76984, Control_c, 0, 64, 127
2, 76988, Note_on_c, 0, 60, 0
2, 76996, Note_on_c, 0, 79, 0
2, 77004, Note_on_c, 0, 82, 0
2, 77004, Note_on_c, 0, 72, 98
2, 77056, Note_on_c, 0, 72, 0
2, 77088, Note_on_c, 0, 79, 72
2, 77088, Note_on_c, 0, 84, 103
2, 77088, Note_on_c, 0, 60, 84
2, 77092, Note_on_c, 0, 76, 84
2, 77112, Note_on_c, 0, 60, 0
2, 77120, Note_on_c, 0, 48, 0
2, 77144, Note_on_c, 0, 76, 0
2, 77148, Note_on_c, 0, 84, 0
2, 77148, Note_on_c, 0, 79, 0
2, 77160, Note_on_c, 0, 72, 96
2, 77204, Note_on_c, 0, 72, 0
2, 77244, Control_c, 0, 64, 72
2, 77252, Note_on_c, 0, 81, 99
2, 77252, Note_on_c, 0, 77, 95
2, 77252, Note_on_c, 0, 72, 94
2, 77252, Note_on_c, 0, 53, 85
2, 77252, Note_on_c, 0, 41, 84
2, 77252, Control_c, 0, 64, 0
2, 77296, Note_on_c, 0, 41, 0
2, 77304, Note_on_c, 0, 53, 0
2, 77304, Control_c, 0, 64, 40
2, 77312, Control_c, 0, 64, 127
2, 77316, Note_on_c, 0, 72, 0
2, 77328, Note_on_c, 0, 77, 0
2, 77348, Note_on_c, 0, 81, 0
2, 77568, Control_c, 0, 64, 0
2, 77584, Note_on_c, 0, 69, 96
2, 77584, Note_on_c, 0, 45, 83
2, 77584, Note_on_c, 0, 57, 86
2, 77584, Note_on_c, 0, 85, 84
2, 77584, Note_on_c, 0, 73, 81
2, 77584, Note_on_c, 0, 81, 82
2, 77584, Note_on_c, 0, 79, 82
2, 77584, Note_on_c, 0, 76, 83
2, 77584, Note_on_c, 0, 33, 85
2, 77612, Note_on_c, 0, 45, 0
2, 77648, Note_on_c, 0, 57, 0
2, 77676, Note_on_c, 0, 69, 0
2, 77768, Note_on_c, 0, 71, 100
2, 77772, Note_on_c, 0, 59, 88
2, 77784, Note_on_c, 0, 47, 83
2, 77812, Note_on_c, 0, 47, 0
2, 77828, Note_on_c, 0, 59, 0
2, 77872, Note_on_c, 0, 71, 0
2, 77944, Note_on_c, 0, 73, 97
2, 77952, Note_on_c, 0, 61, 93
2, 77956, Note_on_c, 0, 49, 93
2, 77996, Note_on_c, 0, 49, 0
2, 77996, Note_on_c, 0, 61, 0
2, 78024, Note_on_c, 0, 73, 0
2, 78116, Note_on_c, 0, 74, 98
2, 78128, Note_on_c, 0, 62, 93
2, 78132, Note_on_c, 0, 50, 95
2, 78164, Note_on_c, 0, 50, 0
2, 78184, Note_on_c, 0, 62, 0
2, 78208, Note_on_c, 0, 74, 0
2, 78224, Note_on_c, 0, 73, 0
2, 78224, Note_on_c, 0, 81, 0
2, 78224, Note_on_c, 0, 85, 0
2, 78224, Note_on_c, 0, 79, 0
2, 78224, Note_on_c, 0, 76, 0
2, 78224, Note_on_c, 0, 33, 0
2, 78296, Note_on_c, 0, 76, 100
2, 78296, Note_on_c, 0, 52, 94
2, 78296, Note_on_c, 0, 64, 93
2, 78336, Note_on_c, 0, 52, 0
2, 78356, Note_on_c, 0, 64, 0
2, 78440, Note_on_c, 0, 76, 0
2, 78456, Note_on_c, 0, 77, 100
2, 78468, Note_on_c, 0, 65, 86
2, 78476, Note_on_c, 0, 53, 88
2, 78500, Note_on_c, 0, 53, 0
2, 78512, Note_on_c, 0, 77, 0
2, 78528, Note_on_c, 0, 65, 0
2, 78568, Note_on_c, 0, 79, 92
2, 78608, Note_on_c, 0, 81, 95
2, 78616, Note_on_c, 0, 79, 0
2, 78660, Note_on_c, 0, 79, 104
2, 78660, Note_on_c, 0, 67, 93
2, 78660, Note_on_c, 0, 55, 93
2, 78664, Note_on_c, 0, 81, 0
2, 78704, Note_on_c, 0, 55, 0
2, 78716, Note_on_c, 0, 67, 0
2, 78828, Note_on_c, 0, 79, 0
2, 78832, Note_on_c, 0, 64, 92
2, 78844, Note_on_c, 0, 76, 100
2, 78844, Note_on_c, 0, 52, 92
2, 78872, Note_on_c, 0, 52, 0
2, 78888, Note_on_c, 0, 64, 0
2, 78936, Note_on_c, 0, 76, 0
2, 79000, Note_on_c, 0, 73, 96
2, 79012, Note_on_c, 0, 61, 90
2, 79020, Note_on_c, 0, 49, 88
2, 79048, Note_on_c, 0, 49, 0
2, 79056, Note_on_c, 0, 61, 0
2, 79096, Note_on_c, 0, 73, 0
2, 79176, Note_on_c, 0, 70, 97
2, 79188, Note_on_c, 0, 58, 92
2, 79188, Note_on_c, 0, 46, 96
2, 79236, Note_on_c, 0, 46, 0
2, 79240, Note_on_c, 0, 58, 0
2, 79280, Note_on_c, 0, 70, 0
2, 79364, Note_on_c, 0, 69, 101
2, 79364, Note_on_c, 0, 57, 91
2, 79368, Note_on_c, 0, 45, 97
2, 79420, Note_on_c, 0, 57, 0
2, 79428, Note_on_c, 0, 45, 0
2, 79480, Note_on_c, 0, 69, 0
2, 79536, Note_on_c, 0, 67, 97
2, 79536, Note_on_c, 0, 55, 94
2, 79536, Note_on_c, 0, 43, 93
2, 79588, Note_on_c, 0, 43, 0
2, 79588, Note_on_c, 0, 55, 0
2, 79636, Note_on_c, 0, 67, 0
2, 79708, Note_on_c, 0, 65, 101
2, 79720, Note_on_c, 0, 53, 90
2, 79732, Note_on_c, 0, 41, 73
2, 79776, Note_on_c, 0, 41, 0
2, 79776, Note_on_c, 0, 53, 0
2, 79800, Note_on_c, 0, 65, 0
2, 79888, Note_on_c, 0, 64, 100
2, 79888, Note_on_c, 0, 52, 90
2, 79900, Note_on_c, 0, 40, 88
2, 79952, Note_on_c, 0, 52, 0
2, 79964, Note_on_c, 0, 40, 0
2, 80012, Note_on_c, 0, 64, 0
2, 80096, Note_on_c, 0, 62, 100
2, 80096, Note_on_c, 0, 38, 87
2, 80096, Note_on_c, 0, 50, 84
2, 80124, Note_on_c, 0, 38, 0
2, 80148, Control_c, 0, 64, 88
2, 80156, Note_on_c, 0, 50, 0
2, 80164, Note_on_c, 0, 62, 0
2, 80164, Control_c, 0, 64, 127
2, 80460, Control_c, 0, 64, 88
2, 80468, Note_on_c, 0, 81, 93
2, 80472, Note_on_c, 0, 77, 82
2, 80476, Note_on_c, 0, 69, 64
2, 80476, Control_c, 0, 64, 0
2, 80484, Note_on_c, 0, 62, 70
2, 80484, Note_on_c, 0, 65, 67
2, 80520, Control_c, 0, 64, 56
2, 80536, Control_c, 0, 64, 127
2, 80552, Note_on_c, 0, 69, 0
2, 80556, Note_on_c, 0, 62, 0
2, 80568, Note_on_c, 0, 65, 0
2, 80600, Note_on_c, 0, 77, 0
2, 80640, Note_on_c, 0, 81, 0
2, 80676, Control_c, 0, 64, 72
2, 80684, Note_on_c, 0, 82, 93
2, 80692, Note_on_c, 0, 77, 79
2, 80692, Control_c, 0, 64, 24
2, 80700, Note_on_c, 0, 70, 68
2, 80708, Control_c, 0, 64, 0
2, 80712, Note_on_c, 0, 62, 63
2, 80716, Note_on_c, 0, 65, 66
2, 80724, Control_c, 0, 64, 40
2, 80740, Control_c, 0, 64, 88
2, 80756, Control_c, 0, 64, 127
2, 80768, Note_on_c, 0, 77, 0
2, 80772, Note_on_c, 0, 65, 0
2, 80780, Note_on_c, 0, 82, 0
2, 80780, Note_on_c, 0, 70, 0
2, 80780, Note_on_c, 0, 62, 0
2, 80936, Note_on_c, 0, 82, 96
2, 80936, Note_on_c, 0, 62, 71
2, 80936, Note_on_c, 0, 77, 83
2, 80936, Note_on_c, 0, 70, 70
2, 80936, Note_on_c, 0, 65, 68
2, 80936, Note_on_c, 0, 50, 83
2, 80972, Control_c, 0, 64, 104
2, 80988, Control_c, 0, 64, 24
2, 80992, Note_on_c, 0, 77, 0
2, 81004, Control_c, 0, 64, 0
2, 81048, Control_c, 0, 64, 88
2, 81060, Control_c, 0, 64, 127
2, 81124, Note_on_c, 0, 82, 0
2, 81164, Note_on_c, 0, 89, 106
2, 81256, Note_on_c, 0, 89, 0
2, 81348, Note_on_c, 0, 89, 104
2, 81360, Note_on_c, 0, 77, 88
2, 81364, Note_on_c, 0, 62, 58
2, 81364, Note_on_c, 0, 70, 62
2, 81364, Note_on_c, 0, 65, 62
2, 81408, Note_on_c, 0, 62, 0
2, 81408, Note_on_c, 0, 62, 0
2, 81416, Note_on_c, 0, 65, 0
2, 81420, Note_on_c, 0, 77, 0
2, 81432, Note_on_c, 0, 70, 0
2, 81440, Note_on_c, 0, 65, 0
2, 81444, Note_on_c, 0, 89, 0
2, 81448, Note_on_c, 0, 70, 0
2, 81524, Note_on_c, 0, 88, 98
2, 81536, Note_on_c, 0, 70, 73
2, 81540, Note_on_c, 0, 62, 67
2, 81544, Note_on_c, 0, 65, 61
2, 81576, Note_on_c, 0, 50, 0
2, 81584, Note_on_c, 0, 62, 0
2, 81588, Note_on_c, 0, 65, 0
2, 81600, Note_on_c, 0, 70, 0
2, 81628, Note_on_c, 0, 88, 0
2, 81704, Note_on_c, 0, 70, 70
2, 81708, Note_on_c, 0, 65, 75
2, 81708, Note_on_c, 0, 88, 96
2, 81716, Note_on_c, 0, 77, 91
2, 81720, Note_on_c, 0, 62, 58
2, 81760, Note_on_c, 0, 62, 0
2, 81776, Note_on_c, 0, 65, 0
2, 81784, Note_on_c, 0, 70, 0
2, 81816, Note_on_c, 0, 88, 0
2, 81816, Note_on_c, 0, 77, 0
2, 81884, Note_on_c, 0, 86, 101
2, 81988, Note_on_c, 0, 86, 0
2, 82056, Control_c, 0, 64, 56
2, 82072, Note_on_c, 0, 86, 91
2, 82072, Control_c, 0, 64, 0
2, 82076, Note_on_c, 0, 74, 85
2, 82080, Note_on_c, 0, 77, 81
2, 82088, Note_on_c, 0, 62, 71
2, 82100, Note_on_c, 0, 65, 68
2, 82116, Control_c, 0, 64, 56
2, 82132, Control_c, 0, 64, 104
2, 82148, Control_c, 0, 64, 127
2, 82152, Note_on_c, 0, 74, 0
2, 82160, Note_on_c, 0, 62, 0
2, 82168, Note_on_c, 0, 77, 0
2, 82176, Note_on_c, 0, 65, 0
2, 82180, Note_on_c, 0, 86, 0
2, 82260, Note_on_c, 0, 72, 96
2, 82264, Note_on_c, 0, 84, 97
2, 82280, Note_on_c, 0, 65, 60
2, 82280, Note_on_c, 0, 77, 70
2, 82292, Note_on_c, 0, 62, 57
2, 82316, Note_on_c, 0, 77, 0
2, 82332, Note_on_c, 0, 62, 0
2, 82340, Note_on_c, 0, 72, 0
2, 82348, Note_on_c, 0, 65, 0
2, 82356, Note_on_c, 0, 84, 0
2, 82460, Control_c, 0, 64, 72
2, 82464, Note_on_c, 0, 84, 98
2, 82468, Note_on_c, 0, 77, 86
2, 82476, Note_on_c, 0, 72, 98
2, 82476, Control_c, 0, 64, 24
2, 82480, Note_on_c, 0, 65, 74
2, 82492, Note_on_c, 0, 62, 69
2, 82504, Control_c, 0, 64, 40
2, 82520, Control_c, 0, 64, 88
2, 82536, Control_c, 0, 64, 127
2, 82604, Note_on_c, 0, 62, 0
2, 82628, Note_on_c, 0, 84, 0
2, 82652, Note_on_c, 0, 82, 89
2, 82656, Note_on_c, 0, 70, 86
2, 82664, Note_on_c, 0, 72, 0
2, 82692, Note_on_c, 0, 77, 0
2, 82716, Note_on_c, 0, 70, 0
2, 82724, Note_on_c, 0, 65, 0
2, 82744, Note_on_c, 0, 82, 0
2, 82816, Control_c, 0, 64, 72
2, 82836, Note_on_c, 0, 82, 95
2, 82844, Note_on_c, 0, 65, 74
2, 82848, Note_on_c, 0, 70, 76
2, 82848, Note_on_c, 0, 77, 80
2, 82848, Note_on_c, 0, 62, 70
2, 82848, Control_c, 0, 64, 88
2, 82864, Control_c, 0, 64, 127
2, 82920, Note_on_c, 0, 77, 0
2, 82928, Note_on_c, 0, 70, 0
2, 82940, Note_on_c, 0, 62, 0
2, 82956, Note_on_c, 0, 82, 0
2, 82968, Note_on_c, 0, 65, 0
2, 83000, Note_on_c, 0, 69, 78
2, 83008, Note_on_c, 0, 81, 95
2, 83020, Note_on_c, 0, 65, 58
2, 83028, Note_on_c, 0, 77, 78
2, 83028, Note_on_c, 0, 62, 57
2, 83060, Note_on_c, 0, 77, 0
2, 83072, Note_on_c, 0, 62, 0
2, 83076, Note_on_c, 0, 69, 0
2, 83088, Note_on_c, 0, 81, 0
2, 83096, Note_on_c, 0, 65, 0
2, 83172, Control_c, 0, 64, 56
2, 83184, Control_c, 0, 64, 0
2, 83192, Note_on_c, 0, 81, 91
2, 83196, Note_on_c, 0, 69, 81
2, 83196, Note_on_c, 0, 62, 67
2, 83200, Note_on_c, 0, 77, 78
2, 83208, Note_on_c, 0, 65, 73
2, 83232, Control_c, 0, 64, 40
2, 83248, Control_c, 0, 64, 88
2, 83264, Control_c, 0, 64, 127
2, 83348, Note_on_c, 0, 69, 0
2, 83356, Note_on_c, 0, 81, 0
2, 83380, Note_on_c, 0, 80, 90
2, 83392, Note_on_c, 0, 65, 0
2, 83396, Note_on_c, 0, 77, 0
2, 83400, Note_on_c, 0, 68, 68
2, 83412, Note_on_c, 0, 62, 0
2, 83468, Note_on_c, 0, 80, 0
2, 83484, Note_on_c, 0, 68, 0
2, 83560, Control_c, 0, 64, 88
2, 83576, Control_c, 0, 64, 24
2, 83580, Note_on_c, 0, 80, 91
2, 83592, Note_on_c, 0, 68, 63
2, 83592, Control_c, 0, 64, 0
2, 83600, Note_on_c, 0, 76, 74
2, 83604, Control_c, 0, 64, 24
2, 83608, Note_on_c, 0, 60, 76
2, 83620, Note_on_c, 0, 64, 73
2, 83620, Control_c, 0, 64, 72
2, 83636, Control_c, 0, 64, 127
2, 83684, Note_on_c, 0, 76, 0
2, 83688, Note_on_c, 0, 68, 0
2, 83692, Note_on_c, 0, 60, 0
2, 83704, Note_on_c, 0, 64, 0
2, 83728, Note_on_c, 0, 80, 0
2, 83784, Note_on_c, 0, 81, 100
2, 83792, Note_on_c, 0, 69, 75
2, 83800, Note_on_c, 0, 64, 63
2, 83804, Note_on_c, 0, 76, 74
2, 83804, Note_on_c, 0, 60, 63
2, 83844, Note_on_c, 0, 60, 0
2, 83844, Note_on_c, 0, 76, 0
2, 83856, Note_on_c, 0, 64, 0
2, 83856, Note_on_c, 0, 69, 0
2, 83884, Note_on_c, 0, 81, 0
2, 83960, Control_c, 0, 64, 88
2, 83976, Control_c, 0, 64, 24
2, 83992, Note_on_c, 0, 69, 69
2, 83992, Note_on_c, 0, 48, 79
2, 83992, Control_c, 0, 64, 0
2, 84000, Note_on_c, 0, 81, 98
2, 84000, Note_on_c, 0, 76, 76
2, 84000, Note_on_c, 0, 60, 73
2, 84000, Note_on_c, 0, 64, 62
2, 84056, Control_c, 0, 64, 72
2, 84068, Control_c, 0, 64, 127
2, 84136, Note_on_c, 0, 76, 0
2, 84164, Note_on_c, 0, 81, 0
2, 84200, Note_on_c, 0, 88, 100
2, 84288, Note_on_c, 0, 88, 0
2, 84364, Note_on_c, 0, 69, 68
2, 84368, Note_on_c, 0, 88, 98
2, 84372, Note_on_c, 0, 60, 63
2, 84380, Note_on_c, 0, 76, 86
2, 84380, Note_on_c, 0, 64, 58
2, 84424, Note_on_c, 0, 60, 0
2, 84424, Note_on_c, 0, 64, 0
2, 84432, Note_on_c, 0, 69, 0
2, 84452, Note_on_c, 0, 76, 0
2, 84460, Note_on_c, 0, 88, 0
2, 84528, Note_on_c, 0, 60, 0
2, 84544, Note_on_c, 0, 86, 99
2, 84556, Note_on_c, 0, 64, 0
2, 84564, Note_on_c, 0, 69, 73
2, 84564, Note_on_c, 0, 76, 78
2, 84572, Note_on_c, 0, 69, 0
2, 84572, Note_on_c, 0, 64, 69
2, 84576, Note_on_c, 0, 60, 63
2, 84600, Note_on_c, 0, 76, 0
2, 84612, Note_on_c, 0, 64, 0
2, 84624, Note_on_c, 0, 69, 0
2, 84624, Note_on_c, 0, 60, 0
2, 84632, Note_on_c, 0, 48, 0
2, 84644, Note_on_c, 0, 86, 0
2, 84724, Note_on_c, 0, 86, 98
2, 84732, Note_on_c, 0, 64, 77
2, 84736, Note_on_c, 0, 76, 89
2, 84736, Note_on_c, 0, 69, 72
2, 84744, Note_on_c, 0, 60, 54
2, 84792, Note_on_c, 0, 60, 0
2, 84824, Note_on_c, 0, 69, 0
2, 84828, Note_on_c, 0, 64, 0
2, 84836, Note_on_c, 0, 76, 0
2, 84836, Note_on_c, 0, 86, 0
2, 84892, Note_on_c, 0, 84, 104
2, 84996, Note_on_c, 0, 84, 0
2, 85064, Control_c, 0, 64, 88
2, 85076, Control_c, 0, 64, 24
2, 85088, Note_on_c, 0, 84, 96
2, 85088, Note_on_c, 0, 72, 95
2, 85092, Control_c, 0, 64, 0
2, 85100, Note_on_c, 0, 76, 81
2, 85100, Note_on_c, 0, 60, 74
2, 85100, Note_on_c, 0, 64, 78
2, 85124, Control_c, 0, 64, 24
2, 85140, Control_c, 0, 64, 72
2, 85156, Control_c, 0, 64, 127
2, 85168, Note_on_c, 0, 72, 0
2, 85180, Note_on_c, 0, 64, 0
2, 85196, Note_on_c, 0, 84, 0
2, 85196, Note_on_c, 0, 76, 0
2, 85220, Note_on_c, 0, 60, 0
2, 85276, Note_on_c, 0, 83, 95
2, 85280, Note_on_c, 0, 71, 86
2, 85300, Note_on_c, 0, 64, 74
2, 85300, Note_on_c, 0, 60, 53
2, 85300, Note_on_c, 0, 76, 72
2, 85336, Note_on_c, 0, 76, 0
2, 85340, Note_on_c, 0, 60, 0
2, 85344, Note_on_c, 0, 64, 0
2, 85352, Note_on_c, 0, 71, 0
2, 85368, Note_on_c, 0, 83, 0
2, 85448, Control_c, 0, 64, 88
2, 85464, Note_on_c, 0, 83, 94
2, 85464, Control_c, 0, 64, 56
2, 85472, Note_on_c, 0, 71, 80
2, 85472, Note_on_c, 0, 76, 83
2, 85476, Note_on_c, 0, 64, 76
2, 85484, Control_c, 0, 64, 72
2, 85488, Note_on_c, 0, 60, 64
2, 85500, Control_c, 0, 64, 104
2, 85512, Control_c, 0, 64, 127
2, 85560, Note_on_c, 0, 71, 0
2, 85604, Note_on_c, 0, 60, 0
2, 85604, Note_on_c, 0, 76, 0
2, 85620, Note_on_c, 0, 64, 0
2, 85624, Note_on_c, 0, 83, 0
2, 85640, Note_on_c, 0, 81, 93
2, 85656, Note_on_c, 0, 69, 83
2, 85672, Note_on_c, 0, 64, 46
2, 85676, Note_on_c, 0, 60, 46
2, 85712, Note_on_c, 0, 69, 0
2, 85724, Note_on_c, 0, 81, 0
2, 85724, Note_on_c, 0, 64, 0
2, 85724, Note_on_c, 0, 60, 0
2, 85792, Control_c, 0, 64, 72
2, 85804, Control_c, 0, 64, 40
2, 85820, Note_on_c, 0, 81, 98
2, 85824, Control_c, 0, 64, 56
2, 85828, Note_on_c, 0, 76, 84
2, 85828, Note_on_c, 0, 69, 83
2, 85840, Control_c, 0, 64, 88
2, 85856, Note_on_c, 0, 60, 60
2, 85856, Control_c, 0, 64, 127
2, 85884, Note_on_c, 0, 76, 0
2, 85896, Note_on_c, 0, 69, 0
2, 85924, Note_on_c, 0, 81, 0
2, 85936, Note_on_c, 0, 60, 0
2, 85976, Control_c, 0, 64, 88
2, 85992, Control_c, 0, 64, 72
2, 86000, Note_on_c, 0, 79, 93
2, 86004, Note_on_c, 0, 67, 78
2, 86012, Note_on_c, 0, 75, 76
2, 86016, Note_on_c, 0, 60, 68
2, 86016, Note_on_c, 0, 63, 64
2, 86024, Control_c, 0, 64, 104
2, 86040, Control_c, 0, 64, 127
2, 86076, Note_on_c, 0, 75, 0
2, 86080, Note_on_c, 0, 60, 0
2, 86080, Note_on_c, 0, 67, 0
2, 86088, Note_on_c, 0, 63, 0
2, 86096, Note_on_c, 0, 79, 0
2, 86192, Control_c, 0, 64, 88
2, 86212, Control_c, 0, 64, 24
2, 86220, Note_on_c, 0, 79, 91
2, 86220, Note_on_c, 0, 67, 63
2, 86228, Note_on_c, 0, 75, 68
2, 86228, Note_on_c, 0, 60, 71
2, 86228, Note_on_c, 0, 63, 58
2, 86228, Control_c, 0, 64, 0
2, 86256, Control_c, 0, 64, 24
2, 86272, Control_c, 0, 64, 72
2, 86288, Control_c, 0, 64, 127
2, 86380, Note_on_c, 0, 75, 0
2, 86384, Note_on_c, 0, 79, 0
2, 86384, Note_on_c, 0, 67, 0
2, 86408, Note_on_c, 0, 78, 90
2, 86420, Note_on_c, 0, 66, 67
2, 86456, Note_on_c, 0, 60, 0
2, 86472, Note_on_c, 0, 63, 0
2, 86492, Note_on_c, 0, 66, 0
2, 86496, Note_on_c, 0, 78, 0
2, 86600, Control_c, 0, 64, 56
2, 86612, Control_c, 0, 64, 0
2, 86636, Note_on_c, 0, 78, 88
2, 86652, Note_on_c, 0, 66, 68
2, 86656, Note_on_c, 0, 74, 80
2, 86672, Note_on_c, 0, 58, 57
2, 86680, Note_on_c, 0, 62, 61
2, 86704, Control_c, 0, 64, 88
2, 86720, Control_c, 0, 64, 127
2, 86728, Note_on_c, 0, 62, 0
2, 86736, Note_on_c, 0, 66, 0
2, 86752, Note_on_c, 0, 74, 0
2, 86764, Note_on_c, 0, 58, 0
2, 86788, Note_on_c, 0, 78, 0
2, 86852, Note_on_c, 0, 79, 98
2, 86852, Note_on_c, 0, 58, 70
2, 86856, Note_on_c, 0, 67, 78
2, 86860, Note_on_c, 0, 74, 75
2, 86860, Note_on_c, 0, 62, 68
2, 86916, Note_on_c, 0, 74, 0
2, 86928, Note_on_c, 0, 62, 0
2, 86932, Note_on_c, 0, 67, 0
2, 86944, Note_on_c, 0, 58, 0
2, 86944, Note_on_c, 0, 79, 0
2, 87048, Control_c, 0, 64, 88
2, 87064, Note_on_c, 0, 79, 94
2, 87064, Note_on_c, 0, 46, 76
2, 87064, Note_on_c, 0, 67, 73
2, 87064, Note_on_c, 0, 62, 68
2, 87064, Note_on_c, 0, 74, 83
2, 87064, Note_on_c, 0, 58, 73
2, 87064, Control_c, 0, 64, 24
2, 87108, Control_c, 0, 64, 127
2, 87120, Note_on_c, 0, 74, 0
2, 87160, Note_on_c, 0, 79, 0
2, 87304, Note_on_c, 0, 74, 98
2, 87372, Note_on_c, 0, 74, 0
2, 87488, Note_on_c, 0, 62, 0
2, 87516, Note_on_c, 0, 46, 0
2, 87524, Note_on_c, 0, 67, 0
2, 87536, Note_on_c, 0, 74, 94
2, 87636, Note_on_c, 0, 74, 0
2, 87704, Note_on_c, 0, 58, 0
2, 87740, Note_on_c, 0, 72, 100
2, 87752, Note_on_c, 0, 74, 80
2, 87816, Note_on_c, 0, 72, 0
2, 87832, Note_on_c, 0, 74, 0
2, 87920, Note_on_c, 0, 74, 68
2, 87936, Note_on_c, 0, 72, 96
2, 88012, Note_on_c, 0, 72, 0
2, 88020, Note_on_c, 0, 74, 0
2, 88116, Note_on_c, 0, 86, 96
2, 88120, Note_on_c, 0, 70, 94
2, 88124, Note_on_c, 0, 74, 83
2, 88188, Note_on_c, 0, 74, 0
2, 88192, Note_on_c, 0, 70, 0
2, 88204, Note_on_c, 0, 86, 0
2, 88300, Note_on_c, 0, 86, 98
2, 88300, Note_on_c, 0, 70, 86
2, 88308, Note_on_c, 0, 74, 83
2, 88376, Note_on_c, 0, 74, 0
2, 88384, Note_on_c, 0, 86, 0
2, 88420, Note_on_c, 0, 70, 0
2, 88472, Note_on_c, 0, 84, 101
2, 88472, Control_c, 0, 64, 104
2, 88476, Note_on_c, 0, 69, 86
2, 88480, Note_on_c, 0, 74, 85
2, 88488, Control_c, 0, 64, 56
2, 88500, Control_c, 0, 64, 40
2, 88520, Control_c, 0, 64, 72
2, 88532, Control_c, 0, 64, 127
2, 88548, Note_on_c, 0, 74, 0
2, 88548, Note_on_c, 0, 69, 0
2, 88560, Note_on_c, 0, 84, 0
2, 88652, Note_on_c, 0, 84, 100
2, 88656, Note_on_c, 0, 74, 90
2, 88656, Note_on_c, 0, 69, 92
2, 88660, Control_c, 0, 64, 88
2, 88672, Control_c, 0, 64, 104
2, 88688, Control_c, 0, 64, 127
2, 88748, Note_on_c, 0, 74, 0
2, 88756, Note_on_c, 0, 84, 0
2, 88768, Note_on_c, 0, 69, 0
2, 88824, Note_on_c, 0, 82, 97
2, 88828, Control_c, 0, 64, 104
2, 88832, Note_on_c, 0, 67, 86
2, 88836, Note_on_c, 0, 74, 81
2, 88876, Control_c, 0, 64, 127
2, 88896, Note_on_c, 0, 67, 0
2, 88900, Note_on_c, 0, 74, 0
2, 88920, Note_on_c, 0, 82, 0
2, 88968, Control_c, 0, 64, 88
2, 88984, Control_c, 0, 64, 56
2, 89004, Note_on_c, 0, 82, 97
2, 89012, Control_c, 0, 64, 88
2, 89020, Note_on_c, 0, 67, 85
2, 89020, Note_on_c, 0, 74, 84
2, 89028, Control_c, 0, 64, 127
2, 89108, Note_on_c, 0, 74, 0
2, 89124, Note_on_c, 0, 67, 0
2, 89132, Note_on_c, 0, 82, 0
2, 89172, Control_c, 0, 64, 104
2, 89184, Note_on_c, 0, 81, 98
2, 89184, Note_on_c, 0, 65, 84
2, 89184, Control_c, 0, 64, 56
2, 89192, Note_on_c, 0, 74, 72
2, 89196, Control_c, 0, 64, 72
2, 89216, Control_c, 0, 64, 104
2, 89232, Control_c, 0, 64, 127
2, 89240, Note_on_c, 0, 74, 0
2, 89264, Note_on_c, 0, 65, 0
2, 89272, Note_on_c, 0, 81, 0
2, 89324, Control_c, 0, 64, 104
2, 89340, Control_c, 0, 64, 40
2, 89356, Control_c, 0, 64, 0
2, 89368, Note_on_c, 0, 81, 97
2, 89372, Note_on_c, 0, 65, 89
2, 89372, Control_c, 0, 64, 24
2, 89376, Note_on_c, 0, 74, 83
2, 89384, Control_c, 0, 64, 72
2, 89400, Control_c, 0, 64, 127
2, 89496, Control_c, 0, 64, 104
2, 89512, Control_c, 0, 64, 72
2, 89516, Note_on_c, 0, 74, 0
2, 89516, Note_on_c, 0, 81, 0
2, 89532, Note_on_c, 0, 65, 0
2, 89540, Note_on_c, 0, 64, 89
2, 89548, Note_on_c, 0, 79, 96
2, 89556, Control_c, 0, 64, 127
2, 89596, Note_on_c, 0, 64, 0
2, 89608, Note_on_c, 0, 79, 0
2, 89728, Note_on_c, 0, 58, 83
2, 89728, Control_c, 0, 64, 56
2, 89740, Note_on_c, 0, 79, 98
2, 89740, Note_on_c, 0, 67, 84
2, 89740, Note_on_c, 0, 46, 79
2, 89744, Control_c, 0, 64, 24
2, 89756, Control_c, 0, 64, 40
2, 89772, Control_c, 0, 64, 88
2, 89788, Note_on_c, 0, 46, 0
2, 89788, Note_on_c, 0, 58, 0
2, 89792, Control_c, 0, 64, 127
2, 89800, Note_on_c, 0, 67, 0
2, 89808, Note_on_c, 0, 79, 0
2, 89924, Note_on_c, 0, 67, 93
2, 89928, Note_on_c, 0, 79, 107
2, 89932, Note_on_c, 0, 46, 90
2, 89936, Note_on_c, 0, 58, 87
2, 89996, Note_on_c, 0, 58, 0
2, 89996, Note_on_c, 0, 67, 0
2, 90000, Note_on_c, 0, 46, 0
2, 90008, Note_on_c, 0, 79, 0
2, 90136, Note_on_c, 0, 46, 79
2, 90136, Note_on_c, 0, 67, 93
2, 90136, Note_on_c, 0, 79, 104
2, 90140, Note_on_c, 0, 58, 78
2, 90176, Note_on_c, 0, 46, 0
2, 90188, Note_on_c, 0, 58, 0
2, 90192, Note_on_c, 0, 67, 0
2, 90204, Note_on_c, 0, 79, 0
2, 90328, Note_on_c, 0, 67, 97
2, 90336, Note_on_c, 0, 55, 98
2, 90388, Note_on_c, 0, 55, 0
2, 90392, Note_on_c, 0, 67, 0
2, 90544, Note_on_c, 0, 67, 98
2, 90548, Note_on_c, 0, 79, 101
2, 90552, Note_on_c, 0, 55, 94
2, 90608, Note_on_c, 0, 55, 0
2, 90616, Note_on_c, 0, 67, 0
2, 90644, Note_on_c, 0, 79, 0
2, 90748, Note_on_c, 0, 79, 100
2, 90752, Note_on_c, 0, 67, 91
2, 90756, Note_on_c, 0, 65, 88
2, 90760, Note_on_c, 0, 53, 94
2, 90812, Note_on_c, 0, 65, 0
2, 90824, Note_on_c, 0, 53, 0
2, 90828, Note_on_c, 0, 67, 0
2, 90840, Note_on_c, 0, 79, 0
2, 90944, Note_on_c, 0, 67, 91
2, 90948, Note_on_c, 0, 79, 103
2, 90952, Note_on_c, 0, 65, 89
2, 90956, Note_on_c, 0, 53, 93
2, 90988, Note_on_c, 0, 67, 0
2, 91012, Note_on_c, 0, 65, 0
2, 91020, Note_on_c, 0, 79, 0
2, 91020, Note_on_c, 0, 53, 0
2, 91136, Note_on_c, 0, 91, 107
2, 91136, Note_on_c, 0, 52, 83
2, 91136, Note_on_c, 0, 64, 84
2, 91136, Note_on_c, 0, 79, 98
2, 91180, Note_on_c, 0, 52, 0
2, 91184, Note_on_c, 0, 79, 0
2, 91204, Note_on_c, 0, 64, 0
2, 91224, Note_on_c, 0, 91, 0
2, 91344, Note_on_c, 0, 91, 108
2, 91344, Note_on_c, 0, 64, 87
2, 91344, Note_on_c, 0, 52, 88
2, 91344, Note_on_c, 0, 79, 101
2, 91400, Control_c, 0, 64, 40
2, 91412, Note_on_c, 0, 52, 0
2, 91416, Control_c, 0, 64, 0
2, 91432, Note_on_c, 0, 64, 0
2, 91436, Note_on_c, 0, 79, 0
2, 91448, Control_c, 0, 64, 40
2, 91456, Note_on_c, 0, 91, 0
2, 91464, Control_c, 0, 64, 104
2, 91476, Control_c, 0, 64, 127
2, 91560, Note_on_c, 0, 89, 108
2, 91560, Note_on_c, 0, 50, 78
2, 91560, Note_on_c, 0, 62, 85
2, 91560, Note_on_c, 0, 77, 101
2, 91628, Note_on_c, 0, 50, 0
2, 91632, Note_on_c, 0, 77, 0
2, 91636, Note_on_c, 0, 62, 0
2, 91656, Note_on_c, 0, 89, 0
2, 91756, Note_on_c, 0, 50, 86
2, 91756, Note_on_c, 0, 62, 83
2, 91756, Note_on_c, 0, 77, 100
2, 91756, Note_on_c, 0, 89, 104
2, 91820, Note_on_c, 0, 62, 0
2, 91820, Note_on_c, 0, 50, 0
2, 91832, Note_on_c, 0, 77, 0
2, 91836, Note_on_c, 0, 89, 0
2, 91944, Control_c, 0, 64, 72
2, 91948, Note_on_c, 0, 88, 106
2, 91952, Note_on_c, 0, 76, 99
2, 91964, Note_on_c, 0, 60, 83
2, 91968, Note_on_c, 0, 48, 87
2, 91992, Control_c, 0, 64, 127
2, 92020, Note_on_c, 0, 76, 0
2, 92032, Note_on_c, 0, 60, 0
2, 92036, Note_on_c, 0, 88, 0
2, 92036, Note_on_c, 0, 48, 0
2, 92124, Note_on_c, 0, 88, 98
2, 92124, Note_on_c, 0, 48, 83
2, 92124, Note_on_c, 0, 60, 83
2, 92124, Note_on_c, 0, 76, 93
2, 92148, Note_on_c, 0, 60, 0
2, 92152, Note_on_c, 0, 48, 0
2, 92156, Note_on_c, 0, 76, 0
2, 92176, Note_on_c, 0, 88, 0
2, 92256, Control_c, 0, 64, 72
2, 92268, Control_c, 0, 64, 40
2, 92284, Control_c, 0, 64, 56
2, 92288, Note_on_c, 0, 74, 96
2, 92288, Note_on_c, 0, 46, 84
2, 92288, Note_on_c, 0, 86, 103
2, 92288, Note_on_c, 0, 58, 78
2, 92300, Control_c, 0, 64, 104
2, 92316, Control_c, 0, 64, 127
2, 92344, Note_on_c, 0, 46, 0
2, 92352, Note_on_c, 0, 74, 0
2, 92364, Note_on_c, 0, 58, 0
2, 92376, Note_on_c, 0, 86, 0
2, 92452, Control_c, 0, 64, 104
2, 92456, Note_on_c, 0, 86, 103
2, 92464, Note_on_c, 0, 74, 93
2, 92468, Note_on_c, 0, 58, 82
2, 92468, Note_on_c, 0, 46, 83
2, 92468, Control_c, 0, 64, 127
2, 92524, Note_on_c, 0, 74, 0
2, 92536, Note_on_c, 0, 86, 0
2, 92560, Note_on_c, 0, 58, 0
2, 92560, Note_on_c, 0, 46, 0
2, 92624, Control_c, 0, 64, 88
2, 92636, Note_on_c, 0, 84, 109
2, 92640, Note_on_c, 0, 72, 103
2, 92644, Note_on_c, 0, 57, 83
2, 92656, Note_on_c, 0, 45, 81
2, 92672, Control_c, 0, 64, 127
2, 92704, Note_on_c, 0, 72, 0
2, 92716, Note_on_c, 0, 45, 0
2, 92716, Note_on_c, 0, 57, 0
2, 92720, Note_on_c, 0, 84, 0
2, 92812, Control_c, 0, 64, 88
2, 92824, Note_on_c, 0, 84, 108
2, 92824, Note_on_c, 0, 72, 104
2, 92824, Control_c, 0, 64, 56
2, 92828, Note_on_c, 0, 57, 79
2, 92836, Note_on_c, 0, 45, 86
2, 92840, Control_c, 0, 64, 72
2, 92856, Control_c, 0, 64, 104
2, 92872, Control_c, 0, 64, 127
2, 92900, Note_on_c, 0, 45, 0
2, 92920, Note_on_c, 0, 57, 0
2, 92932, Note_on_c, 0, 84, 0
2, 92944, Note_on_c, 0, 72, 0
2, 92996, Control_c, 0, 64, 56
2, 93012, Note_on_c, 0, 82, 98
2, 93012, Control_c, 0, 64, 0
2, 93020, Note_on_c, 0, 72, 85
2, 93028, Note_on_c, 0, 55, 87
2, 93028, Note_on_c, 0, 76, 88
2, 93028, Control_c, 0, 64, 24
2, 93032, Note_on_c, 0, 48, 84
2, 93036, Note_on_c, 0, 43, 81
2, 93040, Control_c, 0, 64, 72
2, 93060, Control_c, 0, 64, 127
2, 93080, Note_on_c, 0, 76, 0
2, 93092, Note_on_c, 0, 48, 0
2, 93096, Note_on_c, 0, 55, 0
2, 93104, Note_on_c, 0, 72, 0
2, 93112, Note_on_c, 0, 43, 0
2, 93124, Note_on_c, 0, 82, 0
2, 93196, Control_c, 0, 64, 72
2, 93200, Note_on_c, 0, 82, 98
2, 93212, Note_on_c, 0, 72, 95
2, 93212, Note_on_c, 0, 55, 83
2, 93220, Note_on_c, 0, 48, 81
2, 93224, Note_on_c, 0, 76, 77
2, 93224, Note_on_c, 0, 43, 78
2, 93244, Control_c, 0, 64, 127
2, 93252, Note_on_c, 0, 76, 0
2, 93272, Note_on_c, 0, 43, 0
2, 93276, Note_on_c, 0, 55, 0
2, 93308, Note_on_c, 0, 72, 0
2, 93324, Note_on_c, 0, 82, 0
2, 93368, Note_on_c, 0, 48, 0
2, 93400, Control_c, 0, 64, 40
2, 93404, Note_on_c, 0, 81, 98
2, 93404, Note_on_c, 0, 48, 53
2, 93412, Note_on_c, 0, 72, 91
2, 93416, Note_on_c, 0, 77, 88
2, 93416, Control_c, 0, 64, 0
2, 93420, Note_on_c, 0, 41, 78
2, 93420, Note_on_c, 0, 53, 75
2, 93428, Control_c, 0, 64, 40
2, 93448, Control_c, 0, 64, 88
2, 93460, Control_c, 0, 64, 127
2, 93464, Note_on_c, 0, 77, 0
2, 93480, Note_on_c, 0, 72, 0
2, 93480, Note_on_c, 0, 53, 0
2, 93500, Note_on_c, 0, 81, 0
2, 93504, Note_on_c, 0, 41, 0
2, 93504, Note_on_c, 0, 48, 0
2, 93584, Control_c, 0, 64, 72
2, 93600, Note_on_c, 0, 48, 81
2, 93600, Control_c, 0, 64, 24
2, 93604, Note_on_c, 0, 81, 98
2, 93608, Note_on_c, 0, 72, 94
2, 93612, Note_on_c, 0, 53, 78
2, 93616, Control_c, 0, 64, 40
2, 93620, Note_on_c, 0, 77, 83
2, 93632, Control_c, 0, 64, 104
2, 93648, Note_on_c, 0, 77, 0
2, 93648, Control_c, 0, 64, 127
2, 93672, Note_on_c, 0, 72, 0
2, 93684, Note_on_c, 0, 81, 0
2, 93696, Note_on_c, 0, 53, 0
2, 93700, Note_on_c, 0, 48, 0
2, 93820, Note_on_c, 0, 77, 104
2, 93820, Note_on_c, 0, 65, 98
2, 93832, Note_on_c, 0, 72, 92
2, 93832, Note_on_c, 0, 45, 75
2, 93832, Note_on_c, 0, 48, 63
2, 93832, Control_c, 0, 64, 88
2, 93836, Note_on_c, 0, 57, 73
2, 93848, Control_c, 0, 64, 24
2, 93860, Note_on_c, 0, 72, 0
2, 93880, Note_on_c, 0, 77, 0
2, 93880, Note_on_c, 0, 65, 0
2, 93896, Control_c, 0, 64, 127
2, 93904, Note_on_c, 0, 45, 0
2, 93912, Note_on_c, 0, 57, 0
2, 93916, Note_on_c, 0, 48, 0
2, 94060, Note_on_c, 0, 77, 100
2, 94064, Note_on_c, 0, 65, 91
2, 94072, Note_on_c, 0, 72, 88
2, 94080, Note_on_c, 0, 48, 80
2, 94080, Note_on_c, 0, 57, 75
2, 94092, Note_on_c, 0, 45, 75
2, 94112, Control_c, 0, 64, 88
2, 94124, Control_c, 0, 64, 0
2, 94192, Note_on_c, 0, 72, 0
2, 94204, Note_on_c, 0, 77, 0
2, 94204, Control_c, 0, 64, 127
2, 94232, Note_on_c, 0, 65, 0
2, 94232, Note_on_c, 0, 57, 0
2, 94260, Note_on_c, 0, 45, 0
2, 94268, Note_on_c, 0, 48, 0
2, 94496, Note_on_c, 0, 72, 103
2, 94512, Note_on_c, 0, 60, 76
2, 94516, Note_on_c, 0, 65, 74
2, 94516, Control_c, 0, 64, 72
2, 94520, Note_on_c, 0, 53, 72
2, 94520, Note_on_c, 0, 45, 72
2, 94524, Note_on_c, 0, 48, 72
2, 94532, Control_c, 0, 64, 0
2, 94560, Control_c, 0, 64, 56
2, 94576, Control_c, 0, 64, 127
2, 94580, Note_on_c, 0, 65, 0
2, 94588, Note_on_c, 0, 45, 0
2, 94592, Note_on_c, 0, 53, 0
2, 94612, Note_on_c, 0, 48, 0
2, 94628, Note_on_c, 0, 72, 0
2, 94644, Note_on_c, 0, 60, 0
2, 94728, Note_on_c, 0, 70, 97
2, 94732, Control_c, 0, 64, 104
2, 94736, Note_on_c, 0, 64, 89
2, 94740, Note_on_c, 0, 60, 76
2, 94740, Note_on_c, 0, 48, 63
2, 94744, Note_on_c, 0, 55, 78
2, 94744, Note_on_c, 0, 43, 74
2, 94748, Control_c, 0, 64, 0
2, 94780, Control_c, 0, 64, 40
2, 94796, Control_c, 0, 64, 104
2, 94800, Note_on_c, 0, 43, 0
2, 94800, Note_on_c, 0, 64, 0
2, 94800, Note_on_c, 0, 60, 0
2, 94812, Note_on_c, 0, 55, 0
2, 94812, Control_c, 0, 64, 127
2, 94820, Note_on_c, 0, 48, 0
2, 94840, Note_on_c, 0, 70, 0
2, 94932, Note_on_c, 0, 70, 92
2, 94932, Control_c, 0, 64, 88
2, 94944, Note_on_c, 0, 55, 72
2, 94944, Note_on_c, 0, 48, 76
2, 94944, Note_on_c, 0, 60, 79
2, 94948, Note_on_c, 0, 64, 78
2, 94948, Note_on_c, 0, 43, 72
2, 94952, Control_c, 0, 64, 40
2, 94964, Control_c, 0, 64, 56
2, 94980, Control_c, 0, 64, 104
2, 94984, Note_on_c, 0, 55, 0
2, 94992, Note_on_c, 0, 64, 0
2, 94996, Control_c, 0, 64, 127
2, 95008, Note_on_c, 0, 43, 0
2, 95040, Note_on_c, 0, 70, 0
2, 95040, Note_on_c, 0, 60, 0
2, 95100, Note_on_c, 0, 48, 0
2, 95148, Note_on_c, 0, 69, 98
2, 95152, Note_on_c, 0, 60, 83
2, 95152, Control_c, 0, 64, 24
2, 95156, Note_on_c, 0, 48, 48
2, 95156, Note_on_c, 0, 65, 84
2, 95164, Note_on_c, 0, 41, 82
2, 95168, Control_c, 0, 64, 0
2, 95196, Note_on_c, 0, 53, 46
2, 95212, Control_c, 0, 64, 72
2, 95216, Note_on_c, 0, 60, 0
2, 95228, Control_c, 0, 64, 127
2, 95236, Note_on_c, 0, 65, 0
2, 95236, Note_on_c, 0, 53, 0
2, 95244, Note_on_c, 0, 69, 0
2, 95248, Note_on_c, 0, 41, 0
2, 95268, Note_on_c, 0, 48, 0
2, 95352, Control_c, 0, 64, 56
2, 95356, Note_on_c, 0, 69, 98
2, 95368, Note_on_c, 0, 60, 84
2, 95368, Note_on_c, 0, 65, 81
2, 95368, Control_c, 0, 64, 0
2, 95380, Note_on_c, 0, 48, 75
2, 95388, Note_on_c, 0, 53, 74
2, 95388, Note_on_c, 0, 41, 64
2, 95416, Control_c, 0, 64, 56
2, 95428, Note_on_c, 0, 65, 0
2, 95432, Control_c, 0, 64, 127
2, 95448, Note_on_c, 0, 69, 0
2, 95464, Note_on_c, 0, 53, 0
2, 95464, Note_on_c, 0, 41, 0
2, 95484, Note_on_c, 0, 60, 0
2, 95492, Note_on_c, 0, 48, 0
2, 95596, Note_on_c, 0, 65, 98
2, 95600, Note_on_c, 0, 60, 91
2, 95612, Note_on_c, 0, 53, 72
2, 95616, Control_c, 0, 64, 24
2, 95620, Note_on_c, 0, 48, 73
2, 95624, Note_on_c, 0, 45, 74
2, 95632, Control_c, 0, 64, 0
2, 95668, Note_on_c, 0, 60, 0
2, 95676, Control_c, 0, 64, 40
2, 95692, Control_c, 0, 64, 127
2, 95700, Note_on_c, 0, 53, 0
2, 95716, Note_on_c, 0, 65, 0
2, 95724, Note_on_c, 0, 45, 0
2, 95724, Note_on_c, 0, 48, 0
2, 95848, Note_on_c, 0, 65, 96
2, 95860, Note_on_c, 0, 60, 86
2, 95868, Note_on_c, 0, 45, 74
2, 95872, Note_on_c, 0, 53, 73
2, 95880, Note_on_c, 0, 48, 75
2, 95912, Control_c, 0, 64, 72
2, 95928, Control_c, 0, 64, 0
2, 96032, Control_c, 0, 64, 88
2, 96048, Control_c, 0, 64, 127
2, 96064, Note_on_c, 0, 45, 0
2, 96076, Note_on_c, 0, 53, 0
2, 96084, Note_on_c, 0, 48, 0
2, 96088, Note_on_c, 0, 65, 0
2, 96092, Note_on_c, 0, 60, 0
2, 96324, Note_on_c, 0, 65, 98
2, 96336, Note_on_c, 0, 60, 93
2, 96336, Note_on_c, 0, 53, 78
2, 96340, Note_on_c, 0, 45, 78
2, 96344, Note_on_c, 0, 48, 78
2, 96344, Control_c, 0, 64, 104
2, 96360, Control_c, 0, 64, 0
2, 96392, Control_c, 0, 64, 24
2, 96404, Control_c, 0, 64, 72
2, 96416, Note_on_c, 0, 53, 0
2, 96420, Control_c, 0, 64, 127
2, 96428, Note_on_c, 0, 45, 0
2, 96440, Note_on_c, 0, 60, 0
2, 96448, Note_on_c, 0, 48, 0
2, 96452, Note_on_c, 0, 65, 0
2, 96588, Note_on_c, 0, 64, 104
2, 96588, Note_on_c, 0, 52, 78
2, 96588, Note_on_c, 0, 48, 81
2, 96588, Note_on_c, 0, 43, 78
2, 96588, Note_on_c, 0, 60, 63
2, 96588, Control_c, 0, 64, 88
2, 96608, Control_c, 0, 64, 0
2, 96628, Note_on_c, 0, 60, 0
2, 96668, Control_c, 0, 64, 56
2, 96676, Note_on_c, 0, 52, 0
2, 96676, Note_on_c, 0, 43, 0
2, 96684, Control_c, 0, 64, 127
2, 96716, Note_on_c, 0, 64, 0
2, 96720, Note_on_c, 0, 48, 0
2, 96956, Note_on_c, 0, 63, 103
2, 96956, Note_on_c, 0, 48, 77
2, 96956, Note_on_c, 0, 42, 73
2, 96956, Note_on_c, 0, 51, 71
2, 96956, Note_on_c, 0, 57, 74
2, 97200, Control_c, 0, 64, 104
2, 97212, Control_c, 0, 64, 40
2, 97228, Control_c, 0, 64, 0
2, 97428, Control_c, 0, 64, 72
2, 97444, Control_c, 0, 64, 104
2, 97460, Control_c, 0, 64, 127
2, 97688, Note_on_c, 0, 63, 0
2, 97756, Note_on_c, 0, 51, 0
2, 97852, Note_on_c, 0, 48, 0
2, 97876, Note_on_c, 0, 62, 89
2, 97876, Note_on_c, 0, 50, 75
2, 97988, Control_c, 0, 64, 40
2, 98004, Control_c, 0, 64, 0
2, 98028, Note_on_c, 0, 42, 0
2, 98096, Control_c, 0, 64, 56
2, 98112, Control_c, 0, 64, 127
2, 98352, Note_on_c, 0, 60, 86
2, 98360, Note_on_c, 0, 50, 0
2, 98376, Note_on_c, 0, 51, 74
2, 98376, Control_c, 0, 64, 72
2, 98392, Control_c, 0, 64, 0
2, 98404, Note_on_c, 0, 62, 0
2, 98436, Control_c, 0, 64, 24
2, 98448, Control_c, 0, 64, 72
2, 98464, Control_c, 0, 64, 127
2, 98488, Note_on_c, 0, 57, 0
2, 98532, Note_on_c, 0, 60, 0
2, 98616, Note_on_c, 0, 51, 0
2, 98748, Control_c, 0, 64, 56
2, 98768, Control_c, 0, 64, 0
2, 98768, Note_on_c, 0, 52, 74
2, 98768, Note_on_c, 0, 43, 78
2, 98776, Control_c, 0, 64, 40
2, 98792, Control_c, 0, 64, 104
2, 98796, Note_on_c, 0, 55, 76
2, 98796, Note_on_c, 0, 60, 86
2, 98808, Control_c, 0, 64, 127
2, 98824, Note_on_c, 0, 55, 0
2, 98832, Note_on_c, 0, 52, 0
2, 98856, Note_on_c, 0, 60, 0
2, 99048, Note_on_c, 0, 76, 102
2, 99056, Note_on_c, 0, 67, 83
2, 99060, Note_on_c, 0, 72, 91
2, 99068, Note_on_c, 0, 55, 65
2, 99072, Note_on_c, 0, 64, 70
2, 99084, Note_on_c, 0, 60, 63
2, 99208, Note_on_c, 0, 43, 0
2, 99472, Note_on_c, 0, 72, 0
2, 99480, Note_on_c, 0, 67, 0
2, 99504, Note_on_c, 0, 55, 0
2, 99516, Note_on_c, 0, 64, 0
2, 99532, Note_on_c, 0, 60, 0
2, 99612, Note_on_c, 0, 76, 0
2, 99944, Note_on_c, 0, 74, 95
2, 99968, Note_on_c, 0, 62, 73
2, 99968, Note_on_c, 0, 67, 65
2, 99968, Note_on_c, 0, 71, 68
2, 99972, Note_on_c, 0, 59, 61
2, 99984, Note_on_c, 0, 55, 64
2, 99984, Note_on_c, 0, 53, 60
2, 100064, Control_c, 0, 64, 104
2, 100076, Control_c, 0, 64, 24
2, 100092, Control_c, 0, 64, 0
2, 100188, Control_c, 0, 64, 88
2, 100204, Control_c, 0, 64, 127
2, 100296, Note_on_c, 0, 53, 0
2, 100300, Note_on_c, 0, 62, 0
2, 100316, Note_on_c, 0, 59, 0
2, 100348, Note_on_c, 0, 55, 0
2, 100420, Note_on_c, 0, 67, 0
2, 100512, Note_on_c, 0, 71, 0
2, 100524, Note_on_c, 0, 74, 0
2, 100600, Note_on_c, 0, 72, 95
2, 100604, Control_c, 0, 64, 104
2, 100616, Note_on_c, 0, 52, 71
2, 100616, Note_on_c, 0, 67, 69
2, 100620, Note_on_c, 0, 55, 68
2, 100620, Control_c, 0, 64, 56
2, 100624, Note_on_c, 0, 60, 66
2, 100636, Control_c, 0, 64, 24
2, 100652, Control_c, 0, 64, 40
2, 100668, Control_c, 0, 64, 72
2, 100684, Control_c, 0, 64, 127
2, 100696, Note_on_c, 0, 55, 0
2, 100708, Note_on_c, 0, 52, 0
2, 100712, Note_on_c, 0, 60, 0
2, 100716, Note_on_c, 0, 67, 0
2, 100724, Note_on_c, 0, 72, 0
2, 100836, Note_on_c, 0, 72, 91
2, 100852, Note_on_c, 0, 67, 64
2, 100864, Note_on_c, 0, 60, 71
2, 100864, Note_on_c, 0, 52, 65
2, 100872, Note_on_c, 0, 55, 59
2, 100896, Control_c, 0, 64, 104
2, 100912, Control_c, 0, 64, 56
2, 100932, Control_c, 0, 64, 0
2, 101132, Control_c, 0, 64, 56
2, 101148, Control_c, 0, 64, 104
2, 101164, Control_c, 0, 64, 127
2, 101240, Control_c, 0, 64, 56
2, 101256, Control_c, 0, 64, 0
2, 101304, Control_c, 0, 64, 88
2, 101320, Control_c, 0, 64, 127
2, 101664, Note_on_c, 0, 60, 0
2, 101668, Note_on_c, 0, 55, 0
2, 101700, Note_on_c, 0, 52, 0
2, 101728, Note_on_c, 0, 67, 0
2, 101736, Note_on_c, 0, 72, 0
2, 101852, Note_on_c, 0, 52, 71
2, 101860, Note_on_c, 0, 60, 72
2, 101864, Note_on_c, 0, 72, 95
2, 101864, Note_on_c, 0, 55, 65
2, 101868, Note_on_c, 0, 67, 78
2, 101892, Note_on_c, 0, 55, 0
2, 101892, Note_on_c, 0, 52, 0
2, 101932, Note_on_c, 0, 60, 0
2, 101940, Note_on_c, 0, 67, 0
2, 101988, Note_on_c, 0, 72, 0
2, 102060, Note_on_c, 0, 59, 67
2, 102064, Note_on_c, 0, 62, 71
2, 102064, Note_on_c, 0, 74, 99
2, 102064, Control_c, 0, 64, 104
2, 102068, Note_on_c, 0, 71, 91
2, 102072, Note_on_c, 0, 55, 64
2, 102076, Note_on_c, 0, 67, 81
2, 102076, Control_c, 0, 64, 72
2, 102124, Control_c, 0, 64, 127
2, 102140, Note_on_c, 0, 59, 0
2, 102144, Note_on_c, 0, 67, 0
2, 102148, Note_on_c, 0, 71, 0
2, 102152, Note_on_c, 0, 62, 0
2, 102152, Note_on_c, 0, 55, 0
2, 102196, Note_on_c, 0, 74, 0
2, 102248, Control_c, 0, 64, 88
2, 102256, Note_on_c, 0, 76, 104
2, 102256, Note_on_c, 0, 67, 91
2, 102260, Note_on_c, 0, 72, 103
2, 102264, Note_on_c, 0, 55, 86
2, 102264, Control_c, 0, 64, 72
2, 102268, Note_on_c, 0, 64, 88
2, 102268, Note_on_c, 0, 60, 92
2, 102276, Control_c, 0, 64, 88
2, 102292, Control_c, 0, 64, 127
2, 102312, Note_on_c, 0, 67, 0
2, 102316, Note_on_c, 0, 72, 0
2, 102316, Note_on_c, 0, 60, 0
2, 102320, Note_on_c, 0, 55, 0
2, 102324, Note_on_c, 0, 76, 0
2, 102336, Note_on_c, 0, 64, 0
2, 102568, Note_on_c, 0, 79, 106
2, 102568, Note_on_c, 0, 76, 83
2, 102568, Note_on_c, 0, 67, 74
2, 102568, Note_on_c, 0, 61, 64
2, 102568, Note_on_c, 0, 58, 72
2, 102568, Note_on_c, 0, 70, 79
2, 102568, Note_on_c, 0, 73, 80
2, 102608, Note_on_c, 0, 64, 67
2, 102620, Control_c, 0, 64, 72
2, 102632, Control_c, 0, 64, 0
2, 102836, Control_c, 0, 64, 127
2, 102988, Note_on_c, 0, 76, 0
2, 103044, Note_on_c, 0, 64, 0
2, 103100, Note_on_c, 0, 70, 0
2, 103132, Note_on_c, 0, 79, 0
2, 103180, Note_on_c, 0, 58, 0
2, 103192, Note_on_c, 0, 67, 0
2, 103204, Note_on_c, 0, 61, 0
2, 103232, Note_on_c, 0, 73, 0
2, 103484, Note_on_c, 0, 77, 93
2, 103484, Note_on_c, 0, 65, 75
2, 103484, Note_on_c, 0, 62, 61
2, 103484, Note_on_c, 0, 57, 64
2, 103484, Note_on_c, 0, 74, 76
2, 103484, Note_on_c, 0, 69, 72
2, 103612, Control_c, 0, 64, 104
2, 103628, Control_c, 0, 64, 40
2, 103640, Control_c, 0, 64, 0
2, 103748, Control_c, 0, 64, 72
2, 103764, Control_c, 0, 64, 127
2, 103776, Note_on_c, 0, 57, 0
2, 103776, Note_on_c, 0, 62, 0
2, 103788, Note_on_c, 0, 74, 0
2, 103816, Note_on_c, 0, 65, 0
2, 103864, Note_on_c, 0, 69, 0
2, 103868, Note_on_c, 0, 77, 0
2, 104112, Note_on_c, 0, 73, 95
2, 104120, Control_c, 0, 64, 88
2, 104124, Note_on_c, 0, 70, 77
2, 104132, Note_on_c, 0, 64, 68
2, 104136, Note_on_c, 0, 61, 58
2, 104140, Note_on_c, 0, 55, 66
2, 104140, Control_c, 0, 64, 0
2, 104152, Note_on_c, 0, 58, 53
2, 104184, Control_c, 0, 64, 56
2, 104188, Note_on_c, 0, 70, 0
2, 104196, Control_c, 0, 64, 104
2, 104212, Note_on_c, 0, 61, 0
2, 104216, Control_c, 0, 64, 127
2, 104220, Note_on_c, 0, 55, 0
2, 104224, Note_on_c, 0, 73, 0
2, 104224, Note_on_c, 0, 58, 0
2, 104224, Note_on_c, 0, 64, 0
2, 104344, Note_on_c, 0, 73, 95
2, 104356, Note_on_c, 0, 70, 80
2, 104372, Note_on_c, 0, 64, 71
2, 104372, Note_on_c, 0, 55, 66
2, 104372, Note_on_c, 0, 58, 53
2, 104392, Note_on_c, 0, 61, 55
2, 104464, Control_c, 0, 64, 40
2, 104476, Control_c, 0, 64, 0
2, 104492, Control_c, 0, 64, 24
2, 104508, Control_c, 0, 64, 72
2, 104524, Control_c, 0, 64, 127
2, 104544, Note_on_c, 0, 55, 0
2, 104544, Note_on_c, 0, 64, 0
2, 104556, Note_on_c, 0, 70, 0
2, 104572, Note_on_c, 0, 58, 0
2, 104592, Note_on_c, 0, 61, 0
2, 104604, Note_on_c, 0, 73, 0
2, 104808, Note_on_c, 0, 74, 87
2, 104808, Note_on_c, 0, 62, 64
2, 104808, Note_on_c, 0, 53, 67
2, 104808, Note_on_c, 0, 57, 65
2, 104808, Note_on_c, 0, 69, 78
2, 104928, Control_c, 0, 64, 72
2, 104940, Control_c, 0, 64, 0
2, 105124, Control_c, 0, 64, 56
2, 105144, Control_c, 0, 64, 127
2, 105284, Note_on_c, 0, 53, 0
2, 105292, Note_on_c, 0, 62, 0
2, 105312, Note_on_c, 0, 57, 0
2, 105376, Note_on_c, 0, 74, 0
2, 105412, Note_on_c, 0, 69, 0
2, 105660, Note_on_c, 0, 72, 92
2, 105672, Note_on_c, 0, 67, 74
2, 105684, Note_on_c, 0, 60, 67
2, 105696, Note_on_c, 0, 52, 63
2, 105696, Note_on_c, 0, 55, 58
2, 105748, Control_c, 0, 64, 104
2, 105764, Control_c, 0, 64, 0
2, 105872, Control_c, 0, 64, 127
2, 105920, Note_on_c, 0, 67, 0
2, 105932, Note_on_c, 0, 72, 0
2, 106080, Note_on_c, 0, 67, 94
2, 106172, Note_on_c, 0, 52, 0
2, 106200, Note_on_c, 0, 60, 0
2, 106212, Note_on_c, 0, 67, 0
2, 106232, Note_on_c, 0, 55, 0
2, 106568, Note_on_c, 0, 77, 104
2, 106568, Note_on_c, 0, 50, 73
2, 106568, Note_on_c, 0, 55, 67
2, 106568, Note_on_c, 0, 59, 64
2, 106568, Note_on_c, 0, 65, 72
2, 106568, Note_on_c, 0, 67, 78
2, 106724, Control_c, 0, 64, 56
2, 106740, Control_c, 0, 64, 0
2, 106848, Control_c, 0, 64, 72
2, 106864, Control_c, 0, 64, 127
2, 107116, Note_on_c, 0, 55, 0
2, 107216, Note_on_c, 0, 50, 0
2, 107220, Note_on_c, 0, 77, 0
2, 107248, Note_on_c, 0, 59, 0
2, 107260, Note_on_c, 0, 67, 0
2, 107260, Note_on_c, 0, 65, 0
2, 107436, Note_on_c, 0, 64, 70
2, 107436, Note_on_c, 0, 48, 73
2, 107436, Note_on_c, 0, 60, 68
2, 107436, Note_on_c, 0, 76, 88
2, 107444, Control_c, 0, 64, 104
2, 107532, Control_c, 0, 64, 107
2, 107540, Control_c, 0, 64, 103
2, 107548, Control_c, 0, 64, 127
2, 107672, Note_on_c, 0, 64, 0
2, 107744, Note_on_c, 0, 60, 0
2, 107748, Note_on_c, 0, 48, 0
2, 107884, Note_on_c, 0, 64, 96
2, 107884, Control_c, 0, 64, 127
2, 108028, Note_on_c, 0, 76, 0
2, 108032, Note_on_c, 0, 64, 0
2, 108360, Note_on_c, 0, 74, 93
2, 108368, Note_on_c, 0, 64, 78
2, 108368, Note_on_c, 0, 62, 76
2, 108384, Note_on_c, 0, 56, 61
2, 108392, Note_on_c, 0, 47, 66
2, 108404, Note_on_c, 0, 52, 57
2, 108536, Control_c, 0, 64, 56
2, 108552, Control_c, 0, 64, 127
2, 108644, Control_c, 0, 64, 104
2, 108660, Control_c, 0, 64, 127
2, 108892, Note_on_c, 0, 47, 0
2, 108904, Note_on_c, 0, 56, 0
2, 108916, Note_on_c, 0, 74, 0
2, 108968, Note_on_c, 0, 64, 0
2, 108976, Note_on_c, 0, 62, 0
2, 109212, Note_on_c, 0, 72, 83
2, 109216, Note_on_c, 0, 60, 65
2, 109220, Note_on_c, 0, 57, 66
2, 109240, Note_on_c, 0, 45, 67
2, 109288, Note_on_c, 0, 52, 0
2, 109328, Control_c, 0, 64, 40
2, 109340, Control_c, 0, 64, 0
2, 109436, Note_on_c, 0, 72, 0
2, 109436, Control_c, 0, 64, 127
2, 109512, Note_on_c, 0, 60, 0
2, 109688, Note_on_c, 0, 60, 84
2, 109828, Note_on_c, 0, 60, 0
2, 109848, Note_on_c, 0, 62, 88
2, 109872, Note_on_c, 0, 57, 0
2, 109944, Note_on_c, 0, 45, 0
2, 109964, Note_on_c, 0, 62, 0
2, 109988, Note_on_c, 0, 60, 94
2, 110096, Note_on_c, 0, 60, 0
2, 110096, Note_on_c, 0, 59, 84
2, 110240, Note_on_c, 0, 60, 101
2, 110256, Note_on_c, 0, 59, 0
2, 110304, Note_on_c, 0, 60, 0
2, 110528, Note_on_c, 0, 70, 93
2, 110540, Note_on_c, 0, 60, 71
2, 110548, Note_on_c, 0, 52, 69
2, 110556, Note_on_c, 0, 43, 66
2, 110588, Control_c, 0, 64, 88
2, 110600, Control_c, 0, 64, 0
2, 110756, Control_c, 0, 64, 88
2, 110772, Control_c, 0, 64, 127
2, 110980, Note_on_c, 0, 52, 0
2, 110992, Note_on_c, 0, 43, 0
2, 111024, Note_on_c, 0, 60, 0
2, 111072, Note_on_c, 0, 70, 0
2, 111280, Note_on_c, 0, 69, 92
2, 111280, Note_on_c, 0, 60, 72
2, 111280, Note_on_c, 0, 41, 73
2, 111280, Note_on_c, 0, 53, 71
2, 111332, Control_c, 0, 64, 40
2, 111348, Control_c, 0, 64, 0
2, 111408, Note_on_c, 0, 53, 0
2, 111424, Control_c, 0, 64, 88
2, 111440, Control_c, 0, 64, 127
2, 111556, Note_on_c, 0, 41, 0
2, 111604, Note_on_c, 0, 52, 87
2, 111652, Note_on_c, 0, 60, 0
2, 111700, Note_on_c, 0, 69, 0
2, 111896, Note_on_c, 0, 52, 0
2, 111940, Note_on_c, 0, 69, 87
2, 111940, Note_on_c, 0, 50, 74
2, 111940, Note_on_c, 0, 59, 74
2, 111940, Note_on_c, 0, 43, 75
2, 112104, Control_c, 0, 64, 56
2, 112120, Control_c, 0, 64, 0
2, 112276, Control_c, 0, 64, 88
2, 112292, Control_c, 0, 64, 127
2, 112712, Note_on_c, 0, 53, 73
2, 112724, Note_on_c, 0, 50, 0
2, 112788, Control_c, 0, 64, 88
2, 112804, Control_c, 0, 64, 0
2, 112876, Control_c, 0, 64, 40
2, 112892, Control_c, 0, 64, 127
2, 113048, Note_on_c, 0, 69, 0
2, 113080, Note_on_c, 0, 67, 84
2, 113436, Note_on_c, 0, 67, 0
2, 113468, Note_on_c, 0, 66, 82
2, 113500, Note_on_c, 0, 50, 70
2, 113508, Note_on_c, 0, 53, 0
2, 113564, Control_c, 0, 64, 56
2, 113580, Control_c, 0, 64, 0
2, 113656, Control_c, 0, 64, 88
2, 113672, Control_c, 0, 64, 127
2, 113748, Note_on_c, 0, 66, 0
2, 113868, Note_on_c, 0, 65, 78
2, 113956, Note_on_c, 0, 43, 0
2, 114004, Note_on_c, 0, 50, 0
2, 114104, Note_on_c, 0, 59, 0
2, 114188, Note_on_c, 0, 65, 0
2, 114324, Note_on_c, 0, 60, 66
2, 114324, Note_on_c, 0, 64, 74
2, 114324, Note_on_c, 0, 76, 81
2, 114324, Note_on_c, 0, 36, 72
2, 114324, Note_on_c, 0, 48, 72
2, 114452, Note_on_c, 0, 55, 70
2, 114576, Note_on_c, 0, 52, 63
2, 114580, Note_on_c, 0, 48, 0
2, 114580, Note_on_c, 0, 36, 0
2, 114580, Note_on_c, 0, 76, 0
2, 114628, Note_on_c, 0, 52, 0
2, 114692, Note_on_c, 0, 48, 65
2, 114804, Note_on_c, 0, 48, 0
2, 114816, Note_on_c, 0, 43, 66
2, 114900, Note_on_c, 0, 60, 0
2, 114924, Note_on_c, 0, 64, 0
2, 114932, Note_on_c, 0, 43, 0
2, 114932, Note_on_c, 0, 36, 73
2, 114952, Note_on_c, 0, 36, 0
2, 115024, Note_on_c, 0, 55, 0
2, 115064, Note_on_c, 0, 65, 88
2, 115064, Note_on_c, 0, 62, 78
2, 115068, Note_on_c, 0, 74, 86
2, 115100, Control_c, 0, 64, 104
2, 115112, Control_c, 0, 64, 40
2, 115120, Control_c, 0, 64, 0
2, 115180, Note_on_c, 0, 55, 79
2, 115188, Control_c, 0, 64, 88
2, 115196, Control_c, 0, 64, 127
2, 115296, Note_on_c, 0, 53, 68
2, 115404, Note_on_c, 0, 53, 0
2, 115412, Note_on_c, 0, 50, 75
2, 115440, Note_on_c, 0, 50, 0
2, 115520, Note_on_c, 0, 43, 73
2, 115616, Note_on_c, 0, 62, 0
2, 115628, Note_on_c, 0, 72, 96
2, 115636, Note_on_c, 0, 43, 0
2, 115636, Note_on_c, 0, 36, 73
2, 115644, Note_on_c, 0, 74, 0
2, 115656, Note_on_c, 0, 65, 0
2, 115676, Note_on_c, 0, 36, 0
2, 115680, Note_on_c, 0, 55, 0
2, 115696, Note_on_c, 0, 72, 0
2, 115768, Note_on_c, 0, 66, 87
2, 115768, Note_on_c, 0, 63, 75
2, 115768, Note_on_c, 0, 72, 97
2, 115768, Note_on_c, 0, 60, 72
2, 115840, Control_c, 0, 64, 72
2, 115848, Control_c, 0, 64, 24
2, 115852, Control_c, 0, 64, 0
2, 115884, Note_on_c, 0, 55, 83
2, 115916, Control_c, 0, 64, 88
2, 115924, Control_c, 0, 64, 127
2, 115992, Note_on_c, 0, 54, 68
2, 116092, Note_on_c, 0, 54, 0
2, 116100, Note_on_c, 0, 51, 73
2, 116164, Note_on_c, 0, 51, 0
2, 116212, Note_on_c, 0, 48, 79
2, 116316, Note_on_c, 0, 48, 0
2, 116320, Note_on_c, 0, 55, 0
2, 116328, Note_on_c, 0, 36, 78
2, 116360, Note_on_c, 0, 66, 0
2, 116364, Note_on_c, 0, 63, 0
2, 116380, Note_on_c, 0, 36, 0
2, 116452, Note_on_c, 0, 67, 89
2, 116460, Note_on_c, 0, 64, 80
2, 116480, Control_c, 0, 64, 56
2, 116488, Control_c, 0, 64, 0
2, 116504, Note_on_c, 0, 72, 0
2, 116552, Control_c, 0, 64, 88
2, 116560, Control_c, 0, 64, 127
2, 116568, Note_on_c, 0, 60, 81
2, 116624, Note_on_c, 0, 72, 91
2, 116680, Note_on_c, 0, 55, 75
2, 116780, Note_on_c, 0, 55, 0
2, 116788, Note_on_c, 0, 72, 0
2, 116788, Note_on_c, 0, 52, 77
2, 116800, Note_on_c, 0, 74, 99
2, 116832, Note_on_c, 0, 52, 0
2, 116848, Note_on_c, 0, 60, 0
2, 116880, Note_on_c, 0, 48, 78
2, 116936, Note_on_c, 0, 60, 0
2, 116936, Note_on_c, 0, 64, 0
2, 116956, Note_on_c, 0, 48, 0
2, 116956, Note_on_c, 0, 74, 0
2, 116964, Note_on_c, 0, 76, 100
2, 116980, Note_on_c, 0, 67, 0
2, 117000, Note_on_c, 0, 36, 71
2, 117032, Note_on_c, 0, 36, 0
2, 117072, Note_on_c, 0, 76, 0
2, 117124, Note_on_c, 0, 68, 85
2, 117124, Note_on_c, 0, 62, 64
2, 117124, Note_on_c, 0, 65, 71
2, 117124, Note_on_c, 0, 48, 69
2, 117124, Note_on_c, 0, 59, 69
2, 117124, Note_on_c, 0, 77, 107
2, 117164, Control_c, 0, 64, 104
2, 117172, Control_c, 0, 64, 40
2, 117180, Control_c, 0, 64, 0
2, 117196, Note_on_c, 0, 62, 0
2, 117232, Note_on_c, 0, 59, 75
2, 117256, Control_c, 0, 64, 88
2, 117264, Control_c, 0, 64, 127
2, 117352, Note_on_c, 0, 56, 76
2, 117448, Note_on_c, 0, 56, 0
2, 117460, Note_on_c, 0, 53, 73
2, 117460, Note_on_c, 0, 65, 80
2, 117464, Note_on_c, 0, 59, 0
2, 117468, Note_on_c, 0, 65, 0
2, 117524, Note_on_c, 0, 77, 0
2, 117532, Note_on_c, 0, 53, 0
2, 117556, Note_on_c, 0, 68, 0
2, 117556, Note_on_c, 0, 50, 73
2, 117660, Note_on_c, 0, 50, 0
2, 117664, Note_on_c, 0, 48, 83
2, 117696, Note_on_c, 0, 48, 0
2, 117724, Note_on_c, 0, 65, 0
2, 117800, Note_on_c, 0, 80, 109
2, 117812, Note_on_c, 0, 77, 87
2, 117820, Note_on_c, 0, 74, 68
2, 117836, Control_c, 0, 64, 88
2, 117844, Note_on_c, 0, 74, 0
2, 117844, Control_c, 0, 64, 40
2, 117852, Control_c, 0, 64, 0
2, 117868, Control_c, 0, 64, 56
2, 117876, Control_c, 0, 64, 127
2, 117908, Note_on_c, 0, 71, 76
2, 118020, Note_on_c, 0, 68, 74
2, 118100, Note_on_c, 0, 68, 0
2, 118120, Note_on_c, 0, 65, 77
2, 118196, Note_on_c, 0, 65, 0
2, 118228, Note_on_c, 0, 62, 77
2, 118244, Note_on_c, 0, 48, 0
2, 118304, Note_on_c, 0, 59, 0
2, 118304, Note_on_c, 0, 62, 0
2, 118328, Note_on_c, 0, 59, 75
2, 118432, Note_on_c, 0, 59, 0
2, 118432, Note_on_c, 0, 56, 75
2, 118508, Note_on_c, 0, 56, 0
2, 118540, Note_on_c, 0, 53, 76
2, 118612, Note_on_c, 0, 53, 0
2, 118644, Note_on_c, 0, 50, 81
2, 118672, Control_c, 0, 64, 88
2, 118696, Control_c, 0, 64, 127
2, 118744, Note_on_c, 0, 50, 0
2, 118752, Note_on_c, 0, 47, 78
2, 118860, Note_on_c, 0, 47, 0
2, 118860, Note_on_c, 0, 44, 76
2, 118936, Note_on_c, 0, 44, 0
2, 118988, Note_on_c, 0, 41, 75
2, 119060, Note_on_c, 0, 41, 0
2, 119096, Note_on_c, 0, 38, 74
2, 119184, Note_on_c, 0, 38, 0
2, 119200, Note_on_c, 0, 35, 74
2, 119312, Note_on_c, 0, 32, 73
2, 119332, Note_on_c, 0, 35, 0
2, 119392, Note_on_c, 0, 32, 0
2, 119420, Note_on_c, 0, 31, 73
2, 119500, Note_on_c, 0, 31, 0
2, 119508, Note_on_c, 0, 71, 0
2, 119532, Note_on_c, 0, 29, 74
2, 119544, Note_on_c, 0, 77, 0
2, 119552, Note_on_c, 0, 80, 0
2, 119616, Note_on_c, 0, 29, 0
2, 119644, Note_on_c, 0, 26, 76
2, 119720, Note_on_c, 0, 26, 0
2, 119780, Control_c, 0, 64, 104
2, 119784, Note_on_c, 0, 64, 83
2, 119784, Note_on_c, 0, 24, 76
2, 119784, Note_on_c, 0, 60, 71
2, 119784, Note_on_c, 0, 48, 67
2, 119784, Note_on_c, 0, 76, 94
2, 119788, Control_c, 0, 64, 0
2, 119844, Note_on_c, 0, 24, 0
2, 119844, Control_c, 0, 64, 104
2, 119852, Control_c, 0, 64, 127
2, 119896, Note_on_c, 0, 55, 73
2, 120008, Note_on_c, 0, 52, 73
2, 120048, Note_on_c, 0, 52, 0
2, 120112, Note_on_c, 0, 48, 74
2, 120196, Note_on_c, 0, 48, 0
2, 120204, Note_on_c, 0, 43, 72
2, 120216, Note_on_c, 0, 60, 0
2, 120228, Note_on_c, 0, 55, 0
2, 120280, Note_on_c, 0, 64, 0
2, 120300, Note_on_c, 0, 43, 0
2, 120316, Note_on_c, 0, 36, 69
2, 120356, Note_on_c, 0, 36, 0
2, 120428, Note_on_c, 0, 76, 0
2, 120432, Note_on_c, 0, 65, 85
2, 120432, Note_on_c, 0, 62, 75
2, 120432, Note_on_c, 0, 74, 88
2, 120468, Control_c, 0, 64, 40
2, 120476, Control_c, 0, 64, 0
2, 120524, Control_c, 0, 64, 56
2, 120532, Note_on_c, 0, 55, 75
2, 120532, Control_c, 0, 64, 127
2, 120632, Note_on_c, 0, 53, 76
2, 120720, Note_on_c, 0, 53, 0
2, 120732, Note_on_c, 0, 50, 77
2, 120752, Note_on_c, 0, 50, 0
2, 120780, Note_on_c, 0, 48, 0
2, 120844, Note_on_c, 0, 43, 74
2, 120892, Note_on_c, 0, 74, 0
2, 120912, Note_on_c, 0, 62, 0
2, 120912, Note_on_c, 0, 72, 99
2, 120932, Note_on_c, 0, 43, 0
2, 120944, Note_on_c, 0, 36, 76
2, 120960, Note_on_c, 0, 65, 0
2, 120980, Note_on_c, 0, 36, 0
2, 120992, Note_on_c, 0, 55, 0
2, 121012, Note_on_c, 0, 72, 0
2, 121064, Note_on_c, 0, 66, 90
2, 121064, Note_on_c, 0, 63, 75
2, 121064, Note_on_c, 0, 72, 95
2, 121064, Note_on_c, 0, 60, 68
2, 121112, Control_c, 0, 64, 104
2, 121120, Control_c, 0, 64, 40
2, 121128, Control_c, 0, 64, 0
2, 121156, Note_on_c, 0, 55, 76
2, 121184, Control_c, 0, 64, 104
2, 121188, Control_c, 0, 64, 127
2, 121256, Note_on_c, 0, 54, 76
2, 121328, Note_on_c, 0, 54, 0
2, 121356, Note_on_c, 0, 51, 76
2, 121416, Note_on_c, 0, 51, 0
2, 121452, Note_on_c, 0, 48, 78
2, 121516, Note_on_c, 0, 48, 0
2, 121536, Note_on_c, 0, 55, 0
2, 121556, Note_on_c, 0, 36, 76
2, 121584, Note_on_c, 0, 66, 0
2, 121584, Note_on_c, 0, 63, 0
2, 121592, Note_on_c, 0, 36, 0
2, 121656, Note_on_c, 0, 67, 89
2, 121656, Note_on_c, 0, 64, 82
2, 121680, Note_on_c, 0, 72, 0
2, 121692, Control_c, 0, 64, 40
2, 121700, Control_c, 0, 64, 0
2, 121748, Control_c, 0, 64, 104
2, 121756, Control_c, 0, 64, 127
2, 121768, Note_on_c, 0, 60, 80
2, 121820, Note_on_c, 0, 72, 98
2, 121876, Note_on_c, 0, 55, 79
2, 121924, Note_on_c, 0, 60, 0
2, 121924, Note_on_c, 0, 52, 79
2, 121956, Note_on_c, 0, 52, 0
2, 121956, Note_on_c, 0, 72, 0
2, 121964, Note_on_c, 0, 55, 0
2, 121972, Note_on_c, 0, 74, 97
2, 122072, Note_on_c, 0, 48, 83
2, 122088, Note_on_c, 0, 74, 0
2, 122088, Note_on_c, 0, 60, 0
2, 122100, Note_on_c, 0, 64, 0
2, 122116, Note_on_c, 0, 48, 0
2, 122136, Note_on_c, 0, 67, 0
2, 122136, Note_on_c, 0, 76, 97
2, 122156, Note_on_c, 0, 45, 88
2, 122180, Note_on_c, 0, 36, 83
2, 122212, Note_on_c, 0, 45, 0
2, 122216, Note_on_c, 0, 36, 0
2, 122256, Note_on_c, 0, 76, 0
2, 122304, Note_on_c, 0, 70, 98
2, 122304, Note_on_c, 0, 64, 73
2, 122304, Note_on_c, 0, 67, 73
2, 122304, Note_on_c, 0, 61, 73
2, 122304, Note_on_c, 0, 79, 99
2, 122328, Control_c, 0, 64, 88
2, 122336, Control_c, 0, 64, 0
2, 122384, Note_on_c, 0, 64, 0
2, 122392, Control_c, 0, 64, 88
2, 122396, Note_on_c, 0, 61, 78
2, 122400, Control_c, 0, 64, 127
2, 122500, Note_on_c, 0, 58, 77
2, 122572, Note_on_c, 0, 58, 0
2, 122604, Note_on_c, 0, 55, 76
2, 122604, Note_on_c, 0, 67, 86
2, 122640, Note_on_c, 0, 67, 0
2, 122640, Note_on_c, 0, 61, 0
2, 122652, Note_on_c, 0, 79, 0
2, 122684, Note_on_c, 0, 67, 0
2, 122692, Note_on_c, 0, 52, 78
2, 122696, Note_on_c, 0, 55, 0
2, 122704, Note_on_c, 0, 70, 0
2, 122792, Note_on_c, 0, 45, 81
2, 122816, Note_on_c, 0, 52, 0
2, 122848, Note_on_c, 0, 45, 0
2, 122920, Note_on_c, 0, 82, 102
2, 122928, Note_on_c, 0, 79, 84
2, 122932, Note_on_c, 0, 76, 83
2, 122944, Note_on_c, 0, 76, 0
2, 123020, Note_on_c, 0, 73, 80
2, 123124, Note_on_c, 0, 70, 79
2, 123192, Note_on_c, 0, 70, 0
2, 123220, Note_on_c, 0, 67, 78
2, 123240, Note_on_c, 0, 61, 0
2, 123284, Note_on_c, 0, 67, 0
2, 123324, Note_on_c, 0, 64, 78
2, 123388, Note_on_c, 0, 64, 0
2, 123420, Note_on_c, 0, 61, 78
2, 123524, Note_on_c, 0, 61, 0
2, 123524, Note_on_c, 0, 58, 78
2, 123596, Note_on_c, 0, 58, 0
2, 123628, Note_on_c, 0, 55, 77
2, 123696, Note_on_c, 0, 55, 0
2, 123732, Note_on_c, 0, 52, 77
2, 123808, Note_on_c, 0, 52, 0
2, 123828, Note_on_c, 0, 49, 76
2, 123932, Note_on_c, 0, 49, 0
2, 123936, Note_on_c, 0, 46, 76
2, 124000, Note_on_c, 0, 46, 0
2, 124040, Note_on_c, 0, 43, 76
2, 124104, Note_on_c, 0, 43, 0
2, 124144, Note_on_c, 0, 40, 75
2, 124220, Note_on_c, 0, 40, 0
2, 124244, Note_on_c, 0, 37, 75
2, 124352, Note_on_c, 0, 34, 74
2, 124356, Note_on_c, 0, 37, 0
2, 124404, Note_on_c, 0, 34, 0
2, 124452, Note_on_c, 0, 33, 74
2, 124520, Note_on_c, 0, 33, 0
2, 124536, Note_on_c, 0, 73, 0
2, 124548, Note_on_c, 0, 79, 0
2, 124548, Note_on_c, 0, 31, 73
2, 124556, Note_on_c, 0, 82, 0
2, 124628, Note_on_c, 0, 31, 0
2, 124660, Note_on_c, 0, 28, 74
2, 124752, Note_on_c, 0, 28, 0
2, 124776, Note_on_c, 0, 26, 75
2, 124776, Note_on_c, 0, 65, 72
2, 124776, Note_on_c, 0, 69, 88
2, 124792, Control_c, 0, 64, 72
2, 124800, Control_c, 0, 64, 0
2, 124812, Note_on_c, 0, 53, 63
2, 124812, Note_on_c, 0, 50, 68
2, 124812, Note_on_c, 0, 57, 70
2, 124844, Control_c, 0, 64, 72
2, 124848, Note_on_c, 0, 26, 0
2, 124856, Control_c, 0, 64, 127
2, 124900, Note_on_c, 0, 62, 78
2, 125012, Note_on_c, 0, 57, 79
2, 125100, Note_on_c, 0, 57, 0
2, 125124, Note_on_c, 0, 53, 80
2, 125128, Note_on_c, 0, 50, 0
2, 125136, Note_on_c, 0, 53, 0
2, 125152, Note_on_c, 0, 53, 0
2, 125168, Note_on_c, 0, 69, 76
2, 125220, Note_on_c, 0, 50, 79
2, 125232, Note_on_c, 0, 62, 0
2, 125236, Note_on_c, 0, 65, 0
2, 125256, Note_on_c, 0, 57, 0
2, 125272, Note_on_c, 0, 69, 0
2, 125304, Note_on_c, 0, 50, 0
2, 125312, Note_on_c, 0, 69, 0
2, 125332, Note_on_c, 0, 38, 79
2, 125348, Note_on_c, 0, 38, 0
2, 125460, Note_on_c, 0, 84, 107
2, 125460, Note_on_c, 0, 81, 85
2, 125460, Note_on_c, 0, 78, 81
2, 125460, Note_on_c, 0, 47, 81
2, 125460, Note_on_c, 0, 54, 73
2, 125460, Note_on_c, 0, 57, 75
2, 125460, Note_on_c, 0, 63, 80
2, 125488, Control_c, 0, 64, 56
2, 125496, Control_c, 0, 64, 0
2, 125512, Note_on_c, 0, 57, 0
2, 125520, Note_on_c, 0, 54, 0
2, 125544, Note_on_c, 0, 47, 0
2, 125544, Control_c, 0, 64, 127
2, 125560, Note_on_c, 0, 75, 80
2, 125664, Note_on_c, 0, 72, 79
2, 125736, Note_on_c, 0, 72, 0
2, 125760, Note_on_c, 0, 69, 79
2, 125840, Note_on_c, 0, 69, 0
2, 125852, Note_on_c, 0, 66, 78
2, 125952, Note_on_c, 0, 63, 78
2, 125956, Note_on_c, 0, 66, 0
2, 126012, Note_on_c, 0, 63, 0
2, 126048, Note_on_c, 0, 60, 78
2, 126088, Note_on_c, 0, 63, 0
2, 126132, Note_on_c, 0, 60, 0
2, 126156, Note_on_c, 0, 57, 78
2, 126224, Note_on_c, 0, 57, 0
2, 126248, Note_on_c, 0, 54, 78
2, 126352, Note_on_c, 0, 54, 0
2, 126352, Note_on_c, 0, 51, 77
2, 126412, Note_on_c, 0, 51, 0
2, 126452, Note_on_c, 0, 48, 77
2, 126524, Note_on_c, 0, 48, 0
2, 126552, Note_on_c, 0, 45, 76
2, 126628, Note_on_c, 0, 45, 0
2, 126644, Note_on_c, 0, 42, 76
2, 126752, Note_on_c, 0, 39, 76
2, 126756, Note_on_c, 0, 42, 0
2, 126800, Note_on_c, 0, 39, 0
2, 126848, Note_on_c, 0, 36, 75
2, 126924, Note_on_c, 0, 36, 0
2, 126956, Note_on_c, 0, 35, 75
2, 127024, Note_on_c, 0, 35, 0
2, 127032, Note_on_c, 0, 84, 0
2, 127032, Note_on_c, 0, 78, 0
2, 127036, Note_on_c, 0, 81, 0
2, 127048, Note_on_c, 0, 75, 0
2, 127060, Note_on_c, 0, 33, 74
2, 127124, Note_on_c, 0, 33, 0
2, 127156, Note_on_c, 0, 30, 74
2, 127264, Note_on_c, 0, 30, 0
2, 127352, Note_on_c, 0, 28, 78
2, 127352, Note_on_c, 0, 67, 84
2, 127352, Note_on_c, 0, 64, 73
2, 127352, Note_on_c, 0, 40, 76
2, 127352, Note_on_c, 0, 52, 70
2, 127356, Control_c, 0, 64, 88
2, 127368, Control_c, 0, 64, 0
2, 127412, Note_on_c, 0, 28, 0
2, 127412, Control_c, 0, 64, 127
2, 127456, Note_on_c, 0, 59, 76
2, 127572, Note_on_c, 0, 55, 76
2, 127612, Note_on_c, 0, 55, 0
2, 127656, Note_on_c, 0, 59, 0
2, 127664, Note_on_c, 0, 52, 75
2, 127684, Note_on_c, 0, 40, 0
2, 127688, Note_on_c, 0, 64, 0
2, 127708, Note_on_c, 0, 52, 0
2, 127720, Note_on_c, 0, 52, 0
2, 127732, Note_on_c, 0, 67, 0
2, 127748, Note_on_c, 0, 47, 75
2, 127840, Note_on_c, 0, 47, 0
2, 127840, Note_on_c, 0, 40, 74
2, 127872, Note_on_c, 0, 40, 0
2, 127964, Note_on_c, 0, 74, 93
2, 127972, Note_on_c, 0, 69, 84
2, 127984, Control_c, 0, 64, 56
2, 127992, Control_c, 0, 64, 0
2, 128040, Control_c, 0, 64, 104
2, 128048, Control_c, 0, 64, 127
2, 128060, Note_on_c, 0, 64, 77
2, 128176, Note_on_c, 0, 60, 76
2, 128184, Note_on_c, 0, 74, 0
2, 128208, Note_on_c, 0, 60, 0
2, 128260, Note_on_c, 0, 57, 76
2, 128336, Note_on_c, 0, 69, 0
2, 128336, Note_on_c, 0, 52, 76
2, 128396, Note_on_c, 0, 57, 0
2, 128400, Note_on_c, 0, 72, 94
2, 128436, Note_on_c, 0, 64, 0
2, 128460, Note_on_c, 0, 45, 75
2, 128472, Note_on_c, 0, 52, 0
2, 128488, Note_on_c, 0, 45, 0
2, 128500, Note_on_c, 0, 72, 0
2, 128572, Note_on_c, 0, 67, 88
2, 128572, Note_on_c, 0, 64, 75
2, 128572, Note_on_c, 0, 40, 78
2, 128572, Note_on_c, 0, 52, 71
2, 128600, Control_c, 0, 64, 56
2, 128612, Control_c, 0, 64, 0
2, 128652, Note_on_c, 0, 59, 67
2, 128668, Control_c, 0, 64, 127
2, 128748, Note_on_c, 0, 55, 79
2, 128792, Note_on_c, 0, 55, 0
2, 128852, Note_on_c, 0, 52, 73
2, 128892, Note_on_c, 0, 59, 0
2, 128920, Note_on_c, 0, 64, 0
2, 128936, Note_on_c, 0, 52, 0
2, 128940, Note_on_c, 0, 47, 73
2, 128964, Note_on_c, 0, 67, 0
2, 129032, Note_on_c, 0, 40, 0
2, 129036, Note_on_c, 0, 40, 73
2, 129044, Note_on_c, 0, 52, 0
2, 129044, Note_on_c, 0, 47, 0
2, 129068, Note_on_c, 0, 40, 0
2, 129144, Note_on_c, 0, 74, 92
2, 129156, Note_on_c, 0, 69, 80
2, 129184, Control_c, 0, 64, 104
2, 129192, Control_c, 0, 64, 40
2, 129200, Control_c, 0, 64, 0
2, 129236, Note_on_c, 0, 64, 69
2, 129256, Control_c, 0, 64, 127
2, 129332, Note_on_c, 0, 60, 74
2, 129396, Note_on_c, 0, 60, 0
2, 129440, Note_on_c, 0, 74, 0
2, 129440, Note_on_c, 0, 57, 64
2, 129516, Note_on_c, 0, 52, 74
2, 129556, Note_on_c, 0, 69, 0
2, 129576, Note_on_c, 0, 72, 94
2, 129596, Note_on_c, 0, 57, 0
2, 129616, Note_on_c, 0, 64, 0
2, 129632, Note_on_c, 0, 72, 0
2, 129636, Note_on_c, 0, 45, 77
2, 129652, Note_on_c, 0, 52, 0
2, 129656, Note_on_c, 0, 45, 0
2, 129732, Note_on_c, 0, 67, 87
2, 129732, Note_on_c, 0, 64, 73
2, 129732, Note_on_c, 0, 52, 74
2, 129732, Note_on_c, 0, 40, 78
2, 129760, Control_c, 0, 64, 72
2, 129768, Control_c, 0, 64, 0
2, 129812, Control_c, 0, 64, 88
2, 129820, Note_on_c, 0, 59, 71
2, 129820, Control_c, 0, 64, 127
2, 129920, Note_on_c, 0, 57, 54
2, 129924, Note_on_c, 0, 55, 53
2, 129948, Note_on_c, 0, 55, 0
2, 129956, Note_on_c, 0, 57, 0
2, 130016, Note_on_c, 0, 52, 79
2, 130084, Note_on_c, 0, 52, 0
2, 130108, Note_on_c, 0, 47, 71
2, 130132, Note_on_c, 0, 67, 0
2, 130204, Note_on_c, 0, 52, 0
2, 130212, Note_on_c, 0, 47, 0
2, 130212, Note_on_c, 0, 40, 74
2, 130216, Note_on_c, 0, 59, 0
2, 130248, Note_on_c, 0, 40, 0
2, 130288, Note_on_c, 0, 64, 0
2, 130320, Note_on_c, 0, 69, 88
2, 130320, Note_on_c, 0, 65, 73
2, 130320, Note_on_c, 0, 38, 80
2, 130320, Note_on_c, 0, 50, 74
2, 130320, Note_on_c, 0, 62, 78
2, 130328, Note_on_c, 0, 40, 0
2, 130348, Control_c, 0, 64, 104
2, 130356, Control_c, 0, 64, 40
2, 130364, Control_c, 0, 64, 0
2, 130408, Control_c, 0, 64, 127
2, 130420, Note_on_c, 0, 62, 78
2, 130520, Note_on_c, 0, 57, 68
2, 130624, Note_on_c, 0, 53, 80
2, 130628, Note_on_c, 0, 57, 0
2, 130636, Note_on_c, 0, 38, 0
2, 130660, Note_on_c, 0, 53, 0
2, 130668, Note_on_c, 0, 50, 0
2, 130720, Note_on_c, 0, 50, 74
2, 130760, Note_on_c, 0, 65, 0
2, 130792, Note_on_c, 0, 50, 0
2, 130828, Note_on_c, 0, 38, 74
2, 130832, Note_on_c, 0, 62, 0
2, 130844, Note_on_c, 0, 38, 0
2, 130860, Note_on_c, 0, 69, 0
2, 130916, Note_on_c, 0, 62, 0
2, 130940, Note_on_c, 0, 71, 93
2, 130940, Note_on_c, 0, 67, 78
2, 130940, Note_on_c, 0, 65, 77
2, 130940, Note_on_c, 0, 43, 83
2, 130940, Note_on_c, 0, 55, 75
2, 130940, Note_on_c, 0, 62, 69
2, 130968, Control_c, 0, 64, 40
2, 130976, Control_c, 0, 64, 0
2, 131004, Control_c, 0, 64, 24
2, 131012, Control_c, 0, 64, 104
2, 131020, Control_c, 0, 64, 127
2, 131036, Note_on_c, 0, 62, 78
2, 131144, Note_on_c, 0, 59, 74
2, 131208, Note_on_c, 0, 59, 0
2, 131232, Note_on_c, 0, 55, 72
2, 131268, Note_on_c, 0, 55, 0
2, 131344, Note_on_c, 0, 53, 44
2, 131348, Note_on_c, 0, 52, 43
2, 131364, Note_on_c, 0, 65, 0
2, 131364, Note_on_c, 0, 62, 0
2, 131372, Note_on_c, 0, 52, 0
2, 131392, Note_on_c, 0, 67, 0
2, 131420, Note_on_c, 0, 71, 0
2, 131448, Note_on_c, 0, 43, 73
2, 131488, Note_on_c, 0, 43, 0
2, 131492, Note_on_c, 0, 53, 0
2, 131556, Note_on_c, 0, 76, 97
2, 131564, Note_on_c, 0, 71, 83
2, 131604, Control_c, 0, 64, 56
2, 131608, Control_c, 0, 64, 0
2, 131640, Control_c, 0, 64, 72
2, 131648, Control_c, 0, 64, 127
2, 131660, Note_on_c, 0, 67, 70
2, 131728, Note_on_c, 0, 55, 0
2, 131744, Note_on_c, 0, 43, 0
2, 131748, Note_on_c, 0, 76, 0
2, 131756, Note_on_c, 0, 62, 0
2, 131768, Note_on_c, 0, 65, 61
2, 131820, Note_on_c, 0, 65, 0
2, 131840, Note_on_c, 0, 62, 67
2, 131896, Note_on_c, 0, 62, 0
2, 131904, Note_on_c, 0, 59, 68
2, 131972, Note_on_c, 0, 74, 94
2, 131980, Note_on_c, 0, 71, 0
2, 132000, Note_on_c, 0, 59, 0
2, 132012, Note_on_c, 0, 55, 62
2, 132020, Note_on_c, 0, 67, 0
2, 132028, Note_on_c, 0, 74, 0
2, 132056, Note_on_c, 0, 55, 0
2, 132144, Note_on_c, 0, 67, 88
2, 132144, Note_on_c, 0, 64, 77
2, 132144, Note_on_c, 0, 48, 74
2, 132144, Note_on_c, 0, 36, 78
2, 132144, Note_on_c, 0, 60, 69
2, 132184, Control_c, 0, 64, 72
2, 132192, Control_c, 0, 64, 0
2, 132236, Note_on_c, 0, 60, 74
2, 132240, Control_c, 0, 64, 56
2, 132244, Control_c, 0, 64, 127
2, 132332, Note_on_c, 0, 55, 78
2, 132384, Note_on_c, 0, 55, 0
2, 132440, Note_on_c, 0, 52, 78
2, 132492, Note_on_c, 0, 60, 0
2, 132500, Note_on_c, 0, 64, 0
2, 132516, Note_on_c, 0, 52, 0
2, 132532, Note_on_c, 0, 48, 78
2, 132544, Note_on_c, 0, 67, 0
2, 132564, Note_on_c, 0, 48, 0
2, 132640, Note_on_c, 0, 36, 77
2, 132676, Note_on_c, 0, 36, 0
2, 132676, Note_on_c, 0, 60, 0
2, 132736, Note_on_c, 0, 36, 0
2, 132740, Note_on_c, 0, 48, 0
2, 132740, Note_on_c, 0, 76, 97
2, 132748, Note_on_c, 0, 69, 84
2, 132772, Control_c, 0, 64, 104
2, 132780, Control_c, 0, 64, 56
2, 132788, Control_c, 0, 64, 0
2, 132808, Control_c, 0, 64, 88
2, 132820, Control_c, 0, 64, 127
2, 132832, Note_on_c, 0, 65, 77
2, 132928, Note_on_c, 0, 64, 76
2, 132980, Note_on_c, 0, 64, 0
2, 133012, Note_on_c, 0, 60, 76
2, 133060, Note_on_c, 0, 60, 0
2, 133072, Note_on_c, 0, 57, 75
2, 133132, Note_on_c, 0, 76, 0
2, 133136, Note_on_c, 0, 57, 0
2, 133140, Note_on_c, 0, 69, 0
2, 133148, Note_on_c, 0, 53, 73
2, 133176, Note_on_c, 0, 53, 0
2, 133208, Note_on_c, 0, 65, 0
2, 133220, Note_on_c, 0, 74, 92
2, 133228, Note_on_c, 0, 65, 71
2, 133228, Note_on_c, 0, 71, 76
2, 133240, Note_on_c, 0, 62, 59
2, 133244, Note_on_c, 0, 59, 52
2, 133244, Note_on_c, 0, 55, 68
2, 133252, Note_on_c, 0, 71, 0
2, 133264, Note_on_c, 0, 59, 0
2, 133264, Note_on_c, 0, 62, 0
2, 133264, Note_on_c, 0, 74, 0
2, 133272, Note_on_c, 0, 55, 0
2, 133288, Note_on_c, 0, 65, 0
2, 133344, Note_on_c, 0, 67, 91
2, 133344, Note_on_c, 0, 64, 77
2, 133344, Note_on_c, 0, 48, 74
2, 133344, Note_on_c, 0, 36, 77
2, 133376, Control_c, 0, 64, 40
2, 133384, Control_c, 0, 64, 0
2, 133424, Control_c, 0, 64, 56
2, 133428, Note_on_c, 0, 60, 78
2, 133432, Control_c, 0, 64, 127
2, 133536, Note_on_c, 0, 55, 78
2, 133612, Note_on_c, 0, 55, 0
2, 133632, Note_on_c, 0, 52, 77
2, 133664, Note_on_c, 0, 52, 0
2, 133684, Note_on_c, 0, 60, 0
2, 133688, Note_on_c, 0, 64, 0
2, 133716, Note_on_c, 0, 48, 77
2, 133748, Note_on_c, 0, 67, 0
2, 133748, Note_on_c, 0, 48, 0
2, 133804, Note_on_c, 0, 36, 0
2, 133808, Note_on_c, 0, 36, 78
2, 133844, Note_on_c, 0, 36, 0
2, 133904, Note_on_c, 0, 76, 94
2, 133904, Note_on_c, 0, 69, 84
2, 133916, Note_on_c, 0, 48, 0
2, 133916, Control_c, 0, 64, 88
2, 133924, Control_c, 0, 64, 24
2, 133932, Control_c, 0, 64, 0
2, 133956, Control_c, 0, 64, 72
2, 133964, Control_c, 0, 64, 127
2, 133992, Note_on_c, 0, 65, 78
2, 134076, Note_on_c, 0, 64, 77
2, 134128, Note_on_c, 0, 64, 0
2, 134144, Note_on_c, 0, 60, 76
2, 134180, Note_on_c, 0, 76, 0
2, 134200, Note_on_c, 0, 60, 0
2, 134216, Note_on_c, 0, 69, 0
2, 134240, Note_on_c, 0, 53, 76
2, 134272, Note_on_c, 0, 65, 0
2, 134288, Note_on_c, 0, 53, 0
2, 134312, Note_on_c, 0, 59, 67
2, 134312, Note_on_c, 0, 62, 66
2, 134320, Note_on_c, 0, 55, 69
2, 134328, Note_on_c, 0, 74, 88
2, 134332, Note_on_c, 0, 71, 80
2, 134336, Note_on_c, 0, 65, 72
2, 134344, Note_on_c, 0, 62, 0
2, 134344, Note_on_c, 0, 59, 0
2, 134368, Note_on_c, 0, 55, 0
2, 134372, Note_on_c, 0, 74, 0
2, 134376, Note_on_c, 0, 71, 0
2, 134380, Note_on_c, 0, 65, 0
2, 134464, Note_on_c, 0, 67, 93
2, 134464, Note_on_c, 0, 64, 78
2, 134484, Control_c, 0, 64, 56
2, 134492, Control_c, 0, 64, 0
2, 134532, Control_c, 0, 64, 56
2, 134540, Control_c, 0, 64, 127
2, 134548, Note_on_c, 0, 60, 76
2, 134648, Note_on_c, 0, 55, 76
2, 134732, Note_on_c, 0, 55, 0
2, 134744, Note_on_c, 0, 52, 75
2, 134780, Note_on_c, 0, 52, 0
2, 134832, Note_on_c, 0, 48, 75
2, 134908, Note_on_c, 0, 48, 0
2, 134932, Note_on_c, 0, 36, 76
2, 134948, Note_on_c, 0, 36, 0
2, 134976, Note_on_c, 0, 64, 0
2, 134988, Note_on_c, 0, 67, 0
2, 135016, Note_on_c, 0, 60, 0
2, 135032, Note_on_c, 0, 69, 94
2, 135032, Note_on_c, 0, 66, 77
2, 135032, Note_on_c, 0, 60, 72
2, 135032, Note_on_c, 0, 64, 71
2, 135032, Note_on_c, 0, 48, 78
2, 135040, Control_c, 0, 64, 56
2, 135048, Control_c, 0, 64, 0
2, 135072, Control_c, 0, 64, 56
2, 135080, Control_c, 0, 64, 127
2, 135140, Note_on_c, 0, 64, 76
2, 135152, Note_on_c, 0, 66, 0
2, 135156, Note_on_c, 0, 69, 0
2, 135180, Note_on_c, 0, 64, 0
2, 135248, Note_on_c, 0, 60, 76
2, 135252, Note_on_c, 0, 64, 0
2, 135328, Note_on_c, 0, 57, 75
2, 135332, Note_on_c, 0, 60, 0
2, 135392, Note_on_c, 0, 57, 0
2, 135400, Note_on_c, 0, 54, 75
2, 135448, Note_on_c, 0, 48, 0
2, 135448, Note_on_c, 0, 60, 0
2, 135496, Note_on_c, 0, 54, 0
2, 135512, Note_on_c, 0, 48, 74
2, 135560, Note_on_c, 0, 48, 0
2, 135652, Note_on_c, 0, 71, 97
2, 135652, Note_on_c, 0, 66, 77
2, 135652, Note_on_c, 0, 63, 72
2, 135652, Note_on_c, 0, 47, 80
2, 135652, Note_on_c, 0, 59, 68
2, 135676, Control_c, 0, 64, 104
2, 135684, Control_c, 0, 64, 40
2, 135692, Control_c, 0, 64, 0
2, 135696, Note_on_c, 0, 66, 0
2, 135700, Control_c, 0, 64, 40
2, 135708, Control_c, 0, 64, 104
2, 135716, Control_c, 0, 64, 127
2, 135728, Note_on_c, 0, 63, 76
2, 135744, Note_on_c, 0, 71, 0
2, 135744, Note_on_c, 0, 63, 0
2, 135904, Note_on_c, 0, 59, 76
2, 135940, Note_on_c, 0, 47, 0
2, 135956, Note_on_c, 0, 59, 0
2, 135980, Note_on_c, 0, 54, 74
2, 136004, Note_on_c, 0, 59, 0
2, 136044, Note_on_c, 0, 54, 0
2, 136048, Note_on_c, 0, 51, 74
2, 136124, Note_on_c, 0, 51, 0
2, 136128, Note_on_c, 0, 63, 0
2, 136128, Note_on_c, 0, 47, 74
2, 136164, Note_on_c, 0, 47, 0
2, 136212, Note_on_c, 0, 79, 98
2, 136212, Note_on_c, 0, 75, 85
2, 136276, Note_on_c, 0, 75, 0
2, 136296, Note_on_c, 0, 69, 78
2, 136332, Note_on_c, 0, 69, 0
2, 136384, Note_on_c, 0, 79, 0
2, 136396, Note_on_c, 0, 71, 77
2, 136448, Note_on_c, 0, 71, 0
2, 136480, Note_on_c, 0, 66, 76
2, 136536, Note_on_c, 0, 66, 0
2, 136548, Note_on_c, 0, 63, 75
2, 136612, Note_on_c, 0, 78, 97
2, 136632, Note_on_c, 0, 63, 0
2, 136648, Note_on_c, 0, 59, 78
2, 136664, Note_on_c, 0, 78, 0
2, 136672, Note_on_c, 0, 59, 0
2, 136756, Note_on_c, 0, 71, 94
2, 136756, Note_on_c, 0, 67, 77
2, 136756, Note_on_c, 0, 64, 70
2, 136756, Note_on_c, 0, 52, 79
2, 136800, Control_c, 0, 64, 56
2, 136808, Control_c, 0, 64, 0
2, 136836, Note_on_c, 0, 64, 78
2, 136860, Control_c, 0, 64, 72
2, 136868, Control_c, 0, 64, 127
2, 136936, Note_on_c, 0, 59, 77
2, 137020, Note_on_c, 0, 59, 0
2, 137028, Note_on_c, 0, 64, 0
2, 137032, Note_on_c, 0, 52, 0
2, 137036, Note_on_c, 0, 55, 77
2, 137072, Note_on_c, 0, 55, 0
2, 137144, Note_on_c, 0, 47, 76
2, 137160, Note_on_c, 0, 71, 0
2, 137180, Note_on_c, 0, 47, 0
2, 137188, Note_on_c, 0, 67, 0
2, 137240, Note_on_c, 0, 40, 76
2, 137276, Note_on_c, 0, 64, 0
2, 137288, Note_on_c, 0, 40, 0
2, 137340, Note_on_c, 0, 73, 96
2, 137340, Note_on_c, 0, 69, 81
2, 137340, Note_on_c, 0, 67, 79
2, 137340, Note_on_c, 0, 45, 80
2, 137380, Control_c, 0, 64, 88
2, 137392, Control_c, 0, 64, 40
2, 137396, Control_c, 0, 64, 0
2, 137404, Control_c, 0, 64, 40
2, 137412, Control_c, 0, 64, 88
2, 137420, Note_on_c, 0, 64, 79
2, 137420, Control_c, 0, 64, 127
2, 137520, Note_on_c, 0, 61, 78
2, 137572, Note_on_c, 0, 61, 0
2, 137616, Note_on_c, 0, 57, 78
2, 137684, Note_on_c, 0, 57, 0
2, 137684, Note_on_c, 0, 67, 0
2, 137692, Note_on_c, 0, 55, 78
2, 137720, Note_on_c, 0, 69, 0
2, 137732, Note_on_c, 0, 55, 0
2, 137760, Note_on_c, 0, 64, 0
2, 137800, Note_on_c, 0, 45, 77
2, 137804, Note_on_c, 0, 73, 0
2, 137840, Note_on_c, 0, 45, 0
2, 137896, Note_on_c, 0, 45, 0
2, 137908, Note_on_c, 0, 74, 93
2, 137908, Note_on_c, 0, 72, 75
2, 137908, Note_on_c, 0, 69, 76
2, 137908, Note_on_c, 0, 50, 83
2, 137908, Note_on_c, 0, 66, 67
2, 137940, Control_c, 0, 64, 56
2, 137944, Control_c, 0, 64, 0
2, 137984, Control_c, 0, 64, 88
2, 137992, Control_c, 0, 64, 127
2, 138000, Note_on_c, 0, 66, 78
2, 138104, Note_on_c, 0, 62, 78
2, 138184, Note_on_c, 0, 62, 0
2, 138188, Note_on_c, 0, 60, 77
2, 138192, Note_on_c, 0, 69, 0
2, 138204, Note_on_c, 0, 66, 0
2, 138224, Note_on_c, 0, 72, 0
2, 138268, Note_on_c, 0, 60, 0
2, 138276, Note_on_c, 0, 74, 0
2, 138276, Note_on_c, 0, 57, 76
2, 138312, Note_on_c, 0, 57, 0
2, 138372, Note_on_c, 0, 50, 77
2, 138424, Note_on_c, 0, 50, 0
2, 138488, Note_on_c, 0, 66, 0
2, 138492, Note_on_c, 0, 83, 99
2, 138492, Note_on_c, 0, 78, 88
2, 138492, Note_on_c, 0, 60, 83
2, 138588, Note_on_c, 0, 74, 79
2, 138684, Note_on_c, 0, 72, 78
2, 138688, Note_on_c, 0, 74, 0
2, 138768, Note_on_c, 0, 83, 0
2, 138768, Note_on_c, 0, 72, 0
2, 138772, Note_on_c, 0, 60, 75
2, 138776, Note_on_c, 0, 69, 78
2, 138836, Note_on_c, 0, 69, 0
2, 138844, Note_on_c, 0, 66, 77
2, 138932, Note_on_c, 0, 81, 93
2, 138932, Note_on_c, 0, 69, 73
2, 138932, Note_on_c, 0, 72, 74
2, 138932, Note_on_c, 0, 66, 73
2, 138936, Note_on_c, 0, 78, 0
2, 138964, Note_on_c, 0, 66, 0
2, 138968, Note_on_c, 0, 62, 78
2, 139000, Note_on_c, 0, 62, 0
2, 139008, Note_on_c, 0, 81, 0
2, 139008, Note_on_c, 0, 60, 0
2, 139080, Note_on_c, 0, 79, 93
2, 139080, Note_on_c, 0, 74, 81
2, 139080, Note_on_c, 0, 55, 82
2, 139080, Note_on_c, 0, 67, 75
2, 139080, Note_on_c, 0, 71, 79
2, 139088, Note_on_c, 0, 60, 0
2, 139092, Control_c, 0, 64, 88
2, 139100, Control_c, 0, 64, 24
2, 139104, Note_on_c, 0, 50, 0
2, 139108, Control_c, 0, 64, 0
2, 139116, Note_on_c, 0, 62, 65
2, 139132, Control_c, 0, 64, 24
2, 139140, Control_c, 0, 64, 88
2, 139144, Control_c, 0, 64, 127
2, 139172, Note_on_c, 0, 71, 77
2, 139188, Note_on_c, 0, 72, 0
2, 139188, Note_on_c, 0, 66, 0
2, 139188, Note_on_c, 0, 69, 0
2, 139284, Note_on_c, 0, 67, 78
2, 139312, Note_on_c, 0, 71, 0
2, 139352, Note_on_c, 0, 67, 0
2, 139372, Note_on_c, 0, 62, 78
2, 139424, Note_on_c, 0, 79, 0
2, 139436, Note_on_c, 0, 62, 0
2, 139444, Note_on_c, 0, 67, 0
2, 139448, Note_on_c, 0, 59, 78
2, 139464, Note_on_c, 0, 71, 0
2, 139488, Note_on_c, 0, 62, 0
2, 139512, Note_on_c, 0, 55, 0
2, 139524, Note_on_c, 0, 59, 0
2, 139528, Note_on_c, 0, 55, 77
2, 139540, Note_on_c, 0, 74, 0
2, 139564, Note_on_c, 0, 55, 0
2, 139648, Note_on_c, 0, 77, 94
2, 139648, Note_on_c, 0, 74, 79
2, 139656, Note_on_c, 0, 71, 77
2, 139688, Control_c, 0, 64, 72
2, 139696, Control_c, 0, 64, 0
2, 139728, Note_on_c, 0, 71, 0
2, 139736, Control_c, 0, 64, 127
2, 139744, Note_on_c, 0, 65, 76
2, 139752, Note_on_c, 0, 71, 76
2, 139800, Note_on_c, 0, 65, 0
2, 139828, Note_on_c, 0, 71, 0
2, 139848, Note_on_c, 0, 68, 77
2, 139912, Note_on_c, 0, 68, 0
2, 139932, Note_on_c, 0, 62, 76
2, 139992, Note_on_c, 0, 62, 0
2, 140004, Note_on_c, 0, 74, 0
2, 140012, Note_on_c, 0, 59, 76
2, 140076, Note_on_c, 0, 59, 0
2, 140088, Note_on_c, 0, 56, 75
2, 140128, Note_on_c, 0, 56, 0
2, 140192, Note_on_c, 0, 74, 75
2, 140192, Note_on_c, 0, 71, 74
2, 140192, Note_on_c, 0, 43, 80
2, 140192, Note_on_c, 0, 77, 81
2, 140272, Note_on_c, 0, 65, 75
2, 140360, Note_on_c, 0, 65, 0
2, 140364, Note_on_c, 0, 68, 76
2, 140428, Note_on_c, 0, 68, 0
2, 140456, Note_on_c, 0, 62, 75
2, 140524, Note_on_c, 0, 62, 0
2, 140536, Note_on_c, 0, 59, 75
2, 140604, Note_on_c, 0, 59, 0
2, 140612, Note_on_c, 0, 71, 0
2, 140620, Note_on_c, 0, 56, 74
2, 140628, Note_on_c, 0, 77, 0
2, 140656, Note_on_c, 0, 74, 0
2, 140660, Note_on_c, 0, 56, 0
2, 140728, Note_on_c, 0, 79, 99
2, 140736, Note_on_c, 0, 77, 0
2, 140736, Note_on_c, 0, 74, 78
2, 140744, Control_c, 0, 64, 72
2, 140748, Control_c, 0, 64, 0
2, 140772, Control_c, 0, 64, 24
2, 140776, Note_on_c, 0, 74, 0
2, 140780, Control_c, 0, 64, 88
2, 140788, Control_c, 0, 64, 127
2, 140804, Note_on_c, 0, 71, 83
2, 140812, Note_on_c, 0, 74, 59
2, 140904, Note_on_c, 0, 67, 78
2, 140968, Note_on_c, 0, 67, 0
2, 140980, Note_on_c, 0, 71, 0
2, 140988, Note_on_c, 0, 62, 76
2, 141016, Note_on_c, 0, 74, 0
2, 141060, Note_on_c, 0, 62, 0
2, 141064, Note_on_c, 0, 59, 75
2, 141104, Note_on_c, 0, 79, 0
2, 141152, Note_on_c, 0, 59, 0
2, 141152, Note_on_c, 0, 55, 74
2, 141184, Note_on_c, 0, 43, 0
2, 141188, Note_on_c, 0, 55, 0
2, 141256, Note_on_c, 0, 80, 94
2, 141260, Note_on_c, 0, 77, 84
2, 141264, Note_on_c, 0, 74, 80
2, 141292, Control_c, 0, 64, 72
2, 141300, Control_c, 0, 64, 24
2, 141308, Control_c, 0, 64, 0
2, 141312, Note_on_c, 0, 74, 0
2, 141324, Control_c, 0, 64, 40
2, 141332, Control_c, 0, 64, 104
2, 141340, Control_c, 0, 64, 127
2, 141344, Note_on_c, 0, 71, 70
2, 141444, Note_on_c, 0, 65, 71
2, 141516, Note_on_c, 0, 65, 0
2, 141532, Note_on_c, 0, 62, 73
2, 141596, Note_on_c, 0, 62, 0
2, 141600, Note_on_c, 0, 77, 0
2, 141608, Note_on_c, 0, 59, 58
2, 141612, Note_on_c, 0, 71, 0
2, 141616, Note_on_c, 0, 80, 0
2, 141700, Note_on_c, 0, 59, 0
2, 141708, Note_on_c, 0, 53, 71
2, 141748, Note_on_c, 0, 53, 0
2, 141816, Note_on_c, 0, 71, 86
2, 141816, Note_on_c, 0, 68, 70
2, 141828, Note_on_c, 0, 65, 68
2, 141836, Control_c, 0, 64, 56
2, 141844, Control_c, 0, 64, 0
2, 141848, Control_c, 0, 64, 24
2, 141856, Control_c, 0, 64, 72
2, 141864, Control_c, 0, 64, 127
2, 141888, Note_on_c, 0, 65, 0
2, 141908, Note_on_c, 0, 59, 78
2, 141960, Note_on_c, 0, 59, 0
2, 141972, Note_on_c, 0, 68, 0
2, 142008, Note_on_c, 0, 62, 74
2, 142064, Note_on_c, 0, 62, 0
2, 142088, Note_on_c, 0, 56, 68
2, 142152, Note_on_c, 0, 56, 0
2, 142184, Note_on_c, 0, 53, 59
2, 142248, Note_on_c, 0, 53, 0
2, 142264, Note_on_c, 0, 50, 65
2, 142292, Note_on_c, 0, 50, 0
2, 142340, Note_on_c, 0, 71, 0
2, 142380, Note_on_c, 0, 68, 72
2, 142384, Note_on_c, 0, 65, 73
2, 142384, Note_on_c, 0, 55, 74
2, 142384, Note_on_c, 0, 43, 80
2, 142464, Note_on_c, 0, 59, 75
2, 142520, Note_on_c, 0, 59, 0
2, 142564, Note_on_c, 0, 62, 70
2, 142576, Note_on_c, 0, 65, 0
2, 142632, Note_on_c, 0, 62, 0
2, 142648, Note_on_c, 0, 56, 64
2, 142724, Note_on_c, 0, 56, 0
2, 142752, Note_on_c, 0, 53, 60
2, 142824, Note_on_c, 0, 53, 0
2, 142824, Note_on_c, 0, 68, 0
2, 142836, Note_on_c, 0, 50, 68
2, 142856, Note_on_c, 0, 50, 0
2, 142928, Note_on_c, 0, 72, 94
2, 142932, Note_on_c, 0, 68, 74
2, 142980, Control_c, 0, 64, 40
2, 142988, Control_c, 0, 64, 0
2, 143020, Note_on_c, 0, 65, 78
2, 143020, Control_c, 0, 64, 56
2, 143028, Control_c, 0, 64, 127
2, 143120, Note_on_c, 0, 60, 71
2, 143168, Note_on_c, 0, 55, 0
2, 143192, Note_on_c, 0, 60, 0
2, 143192, Note_on_c, 0, 56, 66
2, 143272, Note_on_c, 0, 56, 0
2, 143276, Note_on_c, 0, 53, 63
2, 143372, Note_on_c, 0, 53, 0
2, 143376, Note_on_c, 0, 48, 74
2, 143396, Note_on_c, 0, 72, 0
2, 143412, Note_on_c, 0, 48, 0
2, 143436, Note_on_c, 0, 68, 0
2, 143440, Note_on_c, 0, 65, 0
2, 143488, Note_on_c, 0, 74, 92
2, 143492, Note_on_c, 0, 68, 75
2, 143492, Note_on_c, 0, 65, 77
2, 143524, Control_c, 0, 64, 88
2, 143532, Note_on_c, 0, 43, 0
2, 143532, Control_c, 0, 64, 0
2, 143568, Control_c, 0, 64, 56
2, 143576, Note_on_c, 0, 62, 73
2, 143576, Control_c, 0, 64, 127
2, 143692, Note_on_c, 0, 59, 71
2, 143760, Note_on_c, 0, 59, 0
2, 143760, Note_on_c, 0, 56, 72
2, 143776, Note_on_c, 0, 62, 0
2, 143780, Note_on_c, 0, 74, 0
2, 143792, Note_on_c, 0, 65, 0
2, 143808, Note_on_c, 0, 68, 0
2, 143832, Note_on_c, 0, 56, 0
2, 143852, Note_on_c, 0, 53, 62
2, 143928, Note_on_c, 0, 53, 0
2, 143932, Note_on_c, 0, 47, 69
2, 143964, Note_on_c, 0, 47, 0
2, 144032, Note_on_c, 0, 65, 83
2, 144036, Note_on_c, 0, 62, 72
2, 144040, Note_on_c, 0, 59, 63
2, 144056, Control_c, 0, 64, 56
2, 144064, Control_c, 0, 64, 0
2, 144088, Control_c, 0, 64, 56
2, 144096, Control_c, 0, 64, 127
2, 144124, Note_on_c, 0, 53, 76
2, 144196, Note_on_c, 0, 53, 0
2, 144220, Note_on_c, 0, 56, 67
2, 144300, Note_on_c, 0, 56, 0
2, 144308, Note_on_c, 0, 50, 69
2, 144372, Note_on_c, 0, 50, 0
2, 144400, Note_on_c, 0, 47, 68
2, 144408, Note_on_c, 0, 62, 0
2, 144416, Note_on_c, 0, 59, 0
2, 144480, Note_on_c, 0, 47, 0
2, 144488, Note_on_c, 0, 44, 63
2, 144516, Note_on_c, 0, 44, 0
2, 144600, Note_on_c, 0, 62, 65
2, 144600, Note_on_c, 0, 44, 75
2, 144600, Note_on_c, 0, 56, 72
2, 144604, Note_on_c, 0, 59, 67
2, 144680, Note_on_c, 0, 53, 62
2, 144736, Note_on_c, 0, 53, 0
2, 144760, Note_on_c, 0, 56, 68
2, 144848, Note_on_c, 0, 56, 0
2, 144852, Note_on_c, 0, 59, 0
2, 144856, Note_on_c, 0, 50, 69
2, 144924, Note_on_c, 0, 50, 0
2, 144932, Note_on_c, 0, 47, 65
2, 144944, Note_on_c, 0, 62, 0
2, 144976, Note_on_c, 0, 65, 0
2, 145008, Note_on_c, 0, 47, 0
2, 145012, Note_on_c, 0, 44, 73
2, 145032, Note_on_c, 0, 44, 0
2, 145116, Note_on_c, 0, 66, 87
2, 145124, Note_on_c, 0, 63, 71
2, 145136, Note_on_c, 0, 60, 63
2, 145148, Control_c, 0, 64, 56
2, 145156, Control_c, 0, 64, 0
2, 145168, Note_on_c, 0, 60, 0
2, 145204, Note_on_c, 0, 54, 68
2, 145212, Control_c, 0, 64, 88
2, 145220, Control_c, 0, 64, 127
2, 145272, Note_on_c, 0, 54, 0
2, 145300, Note_on_c, 0, 57, 72
2, 145368, Note_on_c, 0, 57, 0
2, 145376, Note_on_c, 0, 51, 73
2, 145380, Note_on_c, 0, 44, 0
2, 145420, Note_on_c, 0, 56, 0
2, 145448, Note_on_c, 0, 51, 0
2, 145468, Note_on_c, 0, 48, 70
2, 145540, Note_on_c, 0, 48, 0
2, 145548, Note_on_c, 0, 45, 68
2, 145568, Note_on_c, 0, 63, 0
2, 145616, Note_on_c, 0, 45, 0
2, 145652, Note_on_c, 0, 63, 68
2, 145652, Note_on_c, 0, 60, 69
2, 145652, Note_on_c, 0, 57, 70
2, 145652, Note_on_c, 0, 45, 73
2, 145724, Note_on_c, 0, 54, 63
2, 145768, Note_on_c, 0, 60, 0
2, 145788, Note_on_c, 0, 54, 0
2, 145816, Note_on_c, 0, 57, 59
2, 145872, Note_on_c, 0, 57, 0
2, 145892, Note_on_c, 0, 51, 72
2, 145972, Note_on_c, 0, 51, 0
2, 145972, Note_on_c, 0, 63, 0
2, 145984, Note_on_c, 0, 48, 71
2, 146060, Note_on_c, 0, 48, 0
2, 146072, Note_on_c, 0, 66, 0
2, 146072, Note_on_c, 0, 45, 67
2, 146092, Note_on_c, 0, 45, 0
2, 146160, Note_on_c, 0, 67, 90
2, 146168, Note_on_c, 0, 64, 82
2, 146172, Note_on_c, 0, 61, 69
2, 146188, Control_c, 0, 64, 104
2, 146192, Control_c, 0, 64, 0
2, 146240, Note_on_c, 0, 55, 68
2, 146264, Control_c, 0, 64, 127
2, 146316, Note_on_c, 0, 55, 0
2, 146344, Note_on_c, 0, 58, 63
2, 146348, Note_on_c, 0, 61, 0
2, 146396, Note_on_c, 0, 64, 0
2, 146420, Note_on_c, 0, 58, 0
2, 146428, Note_on_c, 0, 52, 70
2, 146448, Note_on_c, 0, 45, 0
2, 146476, Note_on_c, 0, 57, 0
2, 146496, Note_on_c, 0, 52, 0
2, 146508, Note_on_c, 0, 49, 67
2, 146580, Note_on_c, 0, 49, 0
2, 146584, Note_on_c, 0, 46, 64
2, 146596, Note_on_c, 0, 46, 0
2, 146688, Note_on_c, 0, 64, 72
2, 146688, Note_on_c, 0, 61, 65
2, 146688, Note_on_c, 0, 43, 71
2, 146688, Note_on_c, 0, 46, 68
2, 146688, Note_on_c, 0, 55, 69
2, 146760, Note_on_c, 0, 55, 73
2, 146840, Note_on_c, 0, 58, 62
2, 146848, Note_on_c, 0, 55, 0
2, 146908, Note_on_c, 0, 61, 0
2, 146920, Note_on_c, 0, 58, 0
2, 146924, Note_on_c, 0, 52, 70
2, 146944, Note_on_c, 0, 43, 0
2, 146968, Note_on_c, 0, 67, 83
2, 146984, Note_on_c, 0, 52, 0
2, 146992, Note_on_c, 0, 49, 69
2, 147012, Note_on_c, 0, 46, 0
2, 147068, Note_on_c, 0, 55, 0
2, 147068, Note_on_c, 0, 49, 0
2, 147080, Note_on_c, 0, 46, 66
2, 147132, Note_on_c, 0, 67, 0
2, 147132, Note_on_c, 0, 64, 0
2, 147188, Note_on_c, 0, 67, 0
2, 147196, Note_on_c, 0, 46, 0
2, 147208, Note_on_c, 0, 62, 75
2, 147208, Note_on_c, 0, 65, 75
2, 147208, Note_on_c, 0, 69, 82
2, 147208, Note_on_c, 0, 47, 78
2, 147232, Control_c, 0, 64, 40
2, 147240, Control_c, 0, 64, 0
2, 147284, Note_on_c, 0, 55, 73
2, 147288, Control_c, 0, 64, 72
2, 147296, Control_c, 0, 64, 127
2, 147336, Note_on_c, 0, 55, 0
2, 147392, Note_on_c, 0, 59, 68
2, 147444, Note_on_c, 0, 62, 0
2, 147476, Note_on_c, 0, 59, 0
2, 147508, Note_on_c, 0, 53, 63
2, 147576, Note_on_c, 0, 53, 0
2, 147600, Note_on_c, 0, 50, 68
2, 147616, Note_on_c, 0, 65, 0
2, 147680, Note_on_c, 0, 67, 78
2, 147728, Note_on_c, 0, 50, 0
2, 147736, Note_on_c, 0, 47, 57
2, 147796, Note_on_c, 0, 47, 0
2, 147844, Note_on_c, 0, 69, 0
2, 147888, Note_on_c, 0, 67, 0
2, 147924, Note_on_c, 0, 47, 0
2, 147924, Note_on_c, 0, 60, 66
2, 147924, Note_on_c, 0, 64, 74
2, 147924, Note_on_c, 0, 76, 81
2, 147924, Note_on_c, 0, 36, 78
2, 147924, Note_on_c, 0, 48, 72
2, 148052, Note_on_c, 0, 55, 70
2, 148176, Note_on_c, 0, 52, 63
2, 148180, Note_on_c, 0, 48, 0
2, 148180, Note_on_c, 0, 36, 0
2, 148180, Note_on_c, 0, 76, 0
2, 148228, Note_on_c, 0, 52, 0
2, 148292, Note_on_c, 0, 48, 65
2, 148404, Note_on_c, 0, 48, 0
2, 148416, Note_on_c, 0, 43, 66
2, 148500, Note_on_c, 0, 60, 0
2, 148524, Note_on_c, 0, 64, 0
2, 148532, Note_on_c, 0, 43, 0
2, 148532, Note_on_c, 0, 36, 73
2, 148552, Note_on_c, 0, 36, 0
2, 148624, Note_on_c, 0, 55, 0
2, 148664, Note_on_c, 0, 65, 88
2, 148664, Note_on_c, 0, 62, 78
2, 148664, Note_on_c, 0, 74, 86
2, 148700, Control_c, 0, 64, 104
2, 148712, Control_c, 0, 64, 40
2, 148720, Control_c, 0, 64, 0
2, 148780, Note_on_c, 0, 55, 79
2, 148788, Control_c, 0, 64, 88
2, 148796, Control_c, 0, 64, 127
2, 148896, Note_on_c, 0, 53, 68
2, 149004, Note_on_c, 0, 53, 0
2, 149012, Note_on_c, 0, 50, 75
2, 149040, Note_on_c, 0, 50, 0
2, 149120, Note_on_c, 0, 43, 73
2, 149196, Note_on_c, 0, 72, 96
2, 149216, Note_on_c, 0, 62, 0
2, 149236, Note_on_c, 0, 43, 0
2, 149236, Note_on_c, 0, 36, 73
2, 149240, Note_on_c, 0, 74, 0
2, 149256, Note_on_c, 0, 65, 0
2, 149264, Note_on_c, 0, 72, 0
2, 149276, Note_on_c, 0, 36, 0
2, 149280, Note_on_c, 0, 55, 0
2, 149364, Note_on_c, 0, 66, 87
2, 149364, Note_on_c, 0, 63, 75
2, 149364, Note_on_c, 0, 72, 97
2, 149364, Note_on_c, 0, 60, 72
2, 149440, Control_c, 0, 64, 72
2, 149448, Control_c, 0, 64, 24
2, 149452, Control_c, 0, 64, 0
2, 149484, Note_on_c, 0, 55, 83
2, 149516, Control_c, 0, 64, 88
2, 149524, Control_c, 0, 64, 127
2, 149592, Note_on_c, 0, 54, 68
2, 149692, Note_on_c, 0, 54, 0
2, 149700, Note_on_c, 0, 51, 73
2, 149764, Note_on_c, 0, 51, 0
2, 149812, Note_on_c, 0, 48, 79
2, 149916, Note_on_c, 0, 48, 0
2, 149920, Note_on_c, 0, 55, 0
2, 149928, Note_on_c, 0, 36, 78
2, 149956, Note_on_c, 0, 66, 0
2, 149960, Note_on_c, 0, 63, 0
2, 149980, Note_on_c, 0, 36, 0
2, 150052, Note_on_c, 0, 67, 89
2, 150060, Note_on_c, 0, 64, 80
2, 150080, Control_c, 0, 64, 56
2, 150088, Control_c, 0, 64, 0
2, 150100, Note_on_c, 0, 72, 0
2, 150152, Control_c, 0, 64, 88
2, 150160, Control_c, 0, 64, 127
2, 150168, Note_on_c, 0, 60, 81
2, 150244, Note_on_c, 0, 72, 91
2, 150280, Note_on_c, 0, 55, 75
2, 150380, Note_on_c, 0, 55, 0
2, 150388, Note_on_c, 0, 52, 77
2, 150404, Note_on_c, 0, 74, 99
2, 150408, Note_on_c, 0, 72, 0
2, 150432, Note_on_c, 0, 52, 0
2, 150444, Note_on_c, 0, 60, 0
2, 150480, Note_on_c, 0, 48, 78
2, 150536, Note_on_c, 0, 60, 0
2, 150536, Note_on_c, 0, 64, 0
2, 150552, Note_on_c, 0, 76, 103
2, 150556, Note_on_c, 0, 48, 0
2, 150560, Note_on_c, 0, 74, 0
2, 150580, Note_on_c, 0, 67, 0
2, 150600, Note_on_c, 0, 36, 71
2, 150632, Note_on_c, 0, 36, 0
2, 150668, Note_on_c, 0, 76, 0
2, 150724, Note_on_c, 0, 68, 85
2, 150724, Note_on_c, 0, 62, 64
2, 150724, Note_on_c, 0, 65, 71
2, 150724, Note_on_c, 0, 48, 69
2, 150724, Note_on_c, 0, 59, 69
2, 150724, Note_on_c, 0, 77, 107
2, 150764, Control_c, 0, 64, 104
2, 150772, Control_c, 0, 64, 40
2, 150780, Control_c, 0, 64, 0
2, 150796, Note_on_c, 0, 62, 0
2, 150832, Note_on_c, 0, 59, 75
2, 150856, Control_c, 0, 64, 88
2, 150864, Control_c, 0, 64, 127
2, 150952, Note_on_c, 0, 56, 76
2, 151048, Note_on_c, 0, 56, 0
2, 151060, Note_on_c, 0, 53, 73
2, 151060, Note_on_c, 0, 65, 88
2, 151064, Note_on_c, 0, 59, 0
2, 151068, Note_on_c, 0, 65, 0
2, 151124, Note_on_c, 0, 77, 0
2, 151132, Note_on_c, 0, 53, 0
2, 151156, Note_on_c, 0, 68, 0
2, 151156, Note_on_c, 0, 50, 73
2, 151260, Note_on_c, 0, 50, 0
2, 151264, Note_on_c, 0, 48, 83
2, 151296, Note_on_c, 0, 48, 0
2, 151324, Note_on_c, 0, 65, 0
2, 151400, Note_on_c, 0, 80, 109
2, 151412, Note_on_c, 0, 77, 91
2, 151420, Note_on_c, 0, 74, 75
2, 151436, Control_c, 0, 64, 88
2, 151444, Control_c, 0, 64, 40
2, 151452, Control_c, 0, 64, 0
2, 151468, Control_c, 0, 64, 56
2, 151476, Note_on_c, 0, 74, 0
2, 151476, Control_c, 0, 64, 127
2, 151508, Note_on_c, 0, 71, 76
2, 151620, Note_on_c, 0, 68, 74
2, 151700, Note_on_c, 0, 68, 0
2, 151720, Note_on_c, 0, 65, 77
2, 151796, Note_on_c, 0, 65, 0
2, 151828, Note_on_c, 0, 62, 77
2, 151844, Note_on_c, 0, 48, 0
2, 151904, Note_on_c, 0, 59, 0
2, 151904, Note_on_c, 0, 62, 0
2, 151928, Note_on_c, 0, 59, 75
2, 152032, Note_on_c, 0, 59, 0
2, 152032, Note_on_c, 0, 56, 75
2, 152108, Note_on_c, 0, 56, 0
2, 152140, Note_on_c, 0, 53, 76
2, 152212, Note_on_c, 0, 53, 0
2, 152244, Note_on_c, 0, 50, 81
2, 152272, Control_c, 0, 64, 88
2, 152296, Control_c, 0, 64, 127
2, 152344, Note_on_c, 0, 50, 0
2, 152352, Note_on_c, 0, 47, 78
2, 152460, Note_on_c, 0, 47, 0
2, 152460, Note_on_c, 0, 44, 76
2, 152536, Note_on_c, 0, 44, 0
2, 152588, Note_on_c, 0, 41, 75
2, 152660, Note_on_c, 0, 41, 0
2, 152696, Note_on_c, 0, 38, 74
2, 152784, Note_on_c, 0, 38, 0
2, 152800, Note_on_c, 0, 35, 74
2, 152912, Note_on_c, 0, 32, 73
2, 152932, Note_on_c, 0, 35, 0
2, 152992, Note_on_c, 0, 32, 0
2, 153020, Note_on_c, 0, 31, 73
2, 153100, Note_on_c, 0, 31, 0
2, 153108, Note_on_c, 0, 71, 0
2, 153132, Note_on_c, 0, 29, 74
2, 153144, Note_on_c, 0, 77, 0
2, 153152, Note_on_c, 0, 80, 0
2, 153216, Note_on_c, 0, 29, 0
2, 153244, Note_on_c, 0, 26, 76
2, 153320, Note_on_c, 0, 26, 0
2, 153380, Control_c, 0, 64, 104
2, 153384, Note_on_c, 0, 64, 83
2, 153384, Note_on_c, 0, 24, 76
2, 153384, Note_on_c, 0, 60, 71
2, 153384, Note_on_c, 0, 48, 67
2, 153384, Note_on_c, 0, 76, 94
2, 153388, Control_c, 0, 64, 0
2, 153444, Note_on_c, 0, 24, 0
2, 153444, Control_c, 0, 64, 104
2, 153452, Control_c, 0, 64, 127
2, 153496, Note_on_c, 0, 55, 73
2, 153608, Note_on_c, 0, 52, 73
2, 153648, Note_on_c, 0, 52, 0
2, 153712, Note_on_c, 0, 48, 74
2, 153796, Note_on_c, 0, 48, 0
2, 153804, Note_on_c, 0, 43, 72
2, 153816, Note_on_c, 0, 60, 0
2, 153828, Note_on_c, 0, 55, 0
2, 153880, Note_on_c, 0, 64, 0
2, 153900, Note_on_c, 0, 43, 0
2, 153916, Note_on_c, 0, 36, 69
2, 153956, Note_on_c, 0, 36, 0
2, 154028, Note_on_c, 0, 76, 0
2, 154032, Note_on_c, 0, 65, 85
2, 154032, Note_on_c, 0, 62, 75
2, 154032, Note_on_c, 0, 74, 88
2, 154068, Control_c, 0, 64, 40
2, 154076, Control_c, 0, 64, 0
2, 154124, Control_c, 0, 64, 56
2, 154132, Note_on_c, 0, 55, 75
2, 154132, Control_c, 0, 64, 127
2, 154232, Note_on_c, 0, 53, 76
2, 154320, Note_on_c, 0, 53, 0
2, 154332, Note_on_c, 0, 50, 77
2, 154352, Note_on_c, 0, 50, 0
2, 154380, Note_on_c, 0, 48, 0
2, 154444, Note_on_c, 0, 43, 74
2, 154492, Note_on_c, 0, 74, 0
2, 154512, Note_on_c, 0, 62, 0
2, 154512, Note_on_c, 0, 72, 99
2, 154532, Note_on_c, 0, 43, 0
2, 154544, Note_on_c, 0, 36, 76
2, 154560, Note_on_c, 0, 65, 0
2, 154580, Note_on_c, 0, 36, 0
2, 154592, Note_on_c, 0, 55, 0
2, 154612, Note_on_c, 0, 72, 0
2, 154664, Note_on_c, 0, 66, 90
2, 154664, Note_on_c, 0, 63, 75
2, 154664, Note_on_c, 0, 72, 95
2, 154664, Note_on_c, 0, 60, 68
2, 154712, Control_c, 0, 64, 104
2, 154720, Control_c, 0, 64, 40
2, 154728, Control_c, 0, 64, 0
2, 154756, Note_on_c, 0, 55, 76
2, 154784, Control_c, 0, 64, 104
2, 154788, Control_c, 0, 64, 127
2, 154856, Note_on_c, 0, 54, 76
2, 154928, Note_on_c, 0, 54, 0
2, 154956, Note_on_c, 0, 51, 76
2, 155016, Note_on_c, 0, 51, 0
2, 155052, Note_on_c, 0, 48, 78
2, 155116, Note_on_c, 0, 48, 0
2, 155136, Note_on_c, 0, 55, 0
2, 155156, Note_on_c, 0, 36, 76
2, 155184, Note_on_c, 0, 66, 0
2, 155184, Note_on_c, 0, 63, 0
2, 155192, Note_on_c, 0, 36, 0
2, 155256, Note_on_c, 0, 67, 89
2, 155256, Note_on_c, 0, 64, 82
2, 155280, Note_on_c, 0, 72, 0
2, 155292, Control_c, 0, 64, 40
2, 155300, Control_c, 0, 64, 0
2, 155348, Control_c, 0, 64, 104
2, 155356, Control_c, 0, 64, 127
2, 155368, Note_on_c, 0, 60, 80
2, 155428, Note_on_c, 0, 72, 98
2, 155476, Note_on_c, 0, 55, 79
2, 155524, Note_on_c, 0, 60, 0
2, 155564, Note_on_c, 0, 72, 0
2, 155564, Note_on_c, 0, 55, 0
2, 155568, Note_on_c, 0, 52, 79
2, 155576, Note_on_c, 0, 74, 97
2, 155600, Note_on_c, 0, 52, 0
2, 155672, Note_on_c, 0, 48, 83
2, 155688, Note_on_c, 0, 60, 0
2, 155692, Note_on_c, 0, 74, 0
2, 155700, Note_on_c, 0, 64, 0
2, 155716, Note_on_c, 0, 48, 0
2, 155724, Note_on_c, 0, 76, 97
2, 155724, Note_on_c, 0, 45, 88
2, 155736, Note_on_c, 0, 67, 0
2, 155780, Note_on_c, 0, 45, 0
2, 155780, Note_on_c, 0, 36, 83
2, 155816, Note_on_c, 0, 36, 0
2, 155844, Note_on_c, 0, 76, 0
2, 155904, Note_on_c, 0, 70, 98
2, 155904, Note_on_c, 0, 64, 73
2, 155904, Note_on_c, 0, 67, 73
2, 155904, Note_on_c, 0, 61, 73
2, 155904, Note_on_c, 0, 79, 99
2, 155928, Control_c, 0, 64, 88
2, 155936, Control_c, 0, 64, 0
2, 155984, Note_on_c, 0, 64, 0
2, 155992, Control_c, 0, 64, 88
2, 155996, Note_on_c, 0, 61, 78
2, 156000, Control_c, 0, 64, 127
2, 156100, Note_on_c, 0, 58, 77
2, 156172, Note_on_c, 0, 58, 0
2, 156204, Note_on_c, 0, 55, 76
2, 156204, Note_on_c, 0, 67, 86
2, 156240, Note_on_c, 0, 67, 0
2, 156240, Note_on_c, 0, 61, 0
2, 156252, Note_on_c, 0, 79, 0
2, 156284, Note_on_c, 0, 67, 0
2, 156292, Note_on_c, 0, 52, 78
2, 156296, Note_on_c, 0, 55, 0
2, 156304, Note_on_c, 0, 70, 0
2, 156392, Note_on_c, 0, 45, 81
2, 156416, Note_on_c, 0, 52, 0
2, 156448, Note_on_c, 0, 45, 0
2, 156520, Note_on_c, 0, 82, 102
2, 156528, Note_on_c, 0, 79, 84
2, 156532, Note_on_c, 0, 76, 83
2, 156544, Note_on_c, 0, 76, 0
2, 156620, Note_on_c, 0, 73, 80
2, 156724, Note_on_c, 0, 70, 79
2, 156792, Note_on_c, 0, 70, 0
2, 156820, Note_on_c, 0, 67, 78
2, 156840, Note_on_c, 0, 61, 0
2, 156884, Note_on_c, 0, 67, 0
2, 156924, Note_on_c, 0, 64, 78
2, 156988, Note_on_c, 0, 64, 0
2, 157020, Note_on_c, 0, 61, 78
2, 157124, Note_on_c, 0, 61, 0
2, 157124, Note_on_c, 0, 58, 78
2, 157196, Note_on_c, 0, 58, 0
2, 157228, Note_on_c, 0, 55, 77
2, 157296, Note_on_c, 0, 55, 0
2, 157332, Note_on_c, 0, 52, 77
2, 157408, Note_on_c, 0, 52, 0
2, 157428, Note_on_c, 0, 49, 76
2, 157532, Note_on_c, 0, 49, 0
2, 157536, Note_on_c, 0, 46, 76
2, 157600, Note_on_c, 0, 46, 0
2, 157640, Note_on_c, 0, 43, 76
2, 157704, Note_on_c, 0, 43, 0
2, 157744, Note_on_c, 0, 40, 75
2, 157820, Note_on_c, 0, 40, 0
2, 157844, Note_on_c, 0, 37, 75
2, 157952, Note_on_c, 0, 34, 74
2, 157956, Note_on_c, 0, 37, 0
2, 158004, Note_on_c, 0, 34, 0
2, 158052, Note_on_c, 0, 33, 74
2, 158052, Note_on_c, 0, 74, 80
2, 158120, Note_on_c, 0, 33, 0
2, 158136, Note_on_c, 0, 73, 0
2, 158148, Note_on_c, 0, 79, 0
2, 158148, Note_on_c, 0, 31, 73
2, 158156, Note_on_c, 0, 82, 0
2, 158180, Note_on_c, 0, 74, 0
2, 158204, Note_on_c, 0, 76, 82
2, 158228, Note_on_c, 0, 31, 0
2, 158260, Note_on_c, 0, 28, 74
2, 158336, Note_on_c, 0, 76, 0
2, 158336, Note_on_c, 0, 79, 79
2, 158352, Note_on_c, 0, 28, 0
2, 158376, Note_on_c, 0, 69, 79
2, 158376, Note_on_c, 0, 65, 70
2, 158376, Note_on_c, 0, 77, 84
2, 158376, Note_on_c, 0, 62, 71
2, 158376, Note_on_c, 0, 57, 77
2, 158396, Note_on_c, 0, 79, 0
2, 158444, Control_c, 0, 64, 56
2, 158456, Control_c, 0, 64, 104
2, 158464, Control_c, 0, 64, 127
2, 158468, Note_on_c, 0, 77, 0
2, 158476, Note_on_c, 0, 62, 78
2, 158512, Note_on_c, 0, 76, 82
2, 158548, Note_on_c, 0, 57, 64
2, 158632, Note_on_c, 0, 57, 0
2, 158636, Note_on_c, 0, 53, 63
2, 158636, Note_on_c, 0, 77, 83
2, 158644, Note_on_c, 0, 62, 0
2, 158644, Note_on_c, 0, 76, 0
2, 158680, Note_on_c, 0, 53, 0
2, 158696, Note_on_c, 0, 50, 70
2, 158748, Note_on_c, 0, 50, 0
2, 158756, Note_on_c, 0, 81, 86
2, 158760, Note_on_c, 0, 62, 0
2, 158760, Note_on_c, 0, 57, 0
2, 158764, Note_on_c, 0, 69, 0
2, 158764, Note_on_c, 0, 45, 73
2, 158768, Note_on_c, 0, 77, 0
2, 158780, Note_on_c, 0, 65, 0
2, 158816, Note_on_c, 0, 45, 0
2, 158864, Note_on_c, 0, 69, 86
2, 158864, Note_on_c, 0, 64, 78
2, 158884, Note_on_c, 0, 81, 87
2, 158888, Note_on_c, 0, 81, 0
2, 158900, Control_c, 0, 64, 56
2, 158908, Control_c, 0, 64, 0
2, 158928, Note_on_c, 0, 64, 0
2, 158956, Note_on_c, 0, 61, 68
2, 158980, Control_c, 0, 64, 72
2, 158988, Control_c, 0, 64, 127
2, 159016, Note_on_c, 0, 81, 0
2, 159044, Note_on_c, 0, 57, 69
2, 159080, Note_on_c, 0, 61, 0
2, 159116, Note_on_c, 0, 57, 0
2, 159132, Note_on_c, 0, 55, 63
2, 159132, Note_on_c, 0, 81, 88
2, 159136, Note_on_c, 0, 69, 0
2, 159160, Note_on_c, 0, 55, 0
2, 159180, Note_on_c, 0, 52, 72
2, 159228, Note_on_c, 0, 52, 0
2, 159264, Note_on_c, 0, 81, 0
2, 159264, Note_on_c, 0, 45, 63
2, 159304, Note_on_c, 0, 45, 0
2, 159380, Note_on_c, 0, 81, 93
2, 159380, Note_on_c, 0, 65, 68
2, 159380, Note_on_c, 0, 69, 77
2, 159380, Note_on_c, 0, 45, 76
2, 159380, Note_on_c, 0, 53, 68
2, 159424, Control_c, 0, 64, 104
2, 159432, Control_c, 0, 64, 40
2, 159444, Control_c, 0, 64, 0
2, 159468, Note_on_c, 0, 62, 70
2, 159492, Control_c, 0, 64, 24
2, 159504, Control_c, 0, 64, 88
2, 159512, Control_c, 0, 64, 127
2, 159540, Note_on_c, 0, 57, 58
2, 159608, Note_on_c, 0, 57, 0
2, 159628, Note_on_c, 0, 53, 60
2, 159664, Note_on_c, 0, 53, 0
2, 159688, Note_on_c, 0, 65, 0
2, 159688, Note_on_c, 0, 50, 71
2, 159732, Note_on_c, 0, 81, 0
2, 159748, Note_on_c, 0, 62, 0
2, 159748, Note_on_c, 0, 50, 0
2, 159752, Note_on_c, 0, 77, 87
2, 159768, Note_on_c, 0, 45, 71
2, 159816, Note_on_c, 0, 45, 0
2, 159852, Note_on_c, 0, 45, 0
2, 159852, Note_on_c, 0, 53, 0
2, 159876, Note_on_c, 0, 64, 68
2, 159876, Note_on_c, 0, 69, 83
2, 159876, Note_on_c, 0, 76, 83
2, 159876, Note_on_c, 0, 61, 67
2, 159876, Note_on_c, 0, 57, 68
2, 159880, Control_c, 0, 64, 56
2, 159892, Control_c, 0, 64, 0
2, 159904, Note_on_c, 0, 77, 0
2, 159940, Control_c, 0, 64, 40
2, 159944, Note_on_c, 0, 61, 63
2, 159952, Control_c, 0, 64, 127
2, 159972, Note_on_c, 0, 61, 0
2, 160008, Note_on_c, 0, 69, 0
2, 160016, Note_on_c, 0, 57, 56
2, 160028, Note_on_c, 0, 76, 0
2, 160096, Note_on_c, 0, 57, 0
2, 160104, Note_on_c, 0, 69, 0
2, 160104, Note_on_c, 0, 55, 63
2, 160112, Note_on_c, 0, 74, 95
2, 160152, Note_on_c, 0, 55, 0
2, 160176, Note_on_c, 0, 52, 65
2, 160228, Note_on_c, 0, 52, 0
2, 160236, Note_on_c, 0, 74, 0
2, 160240, Note_on_c, 0, 76, 97
2, 160332, Note_on_c, 0, 64, 0
2, 160348, Note_on_c, 0, 61, 0
2, 160348, Note_on_c, 0, 57, 0
2, 160352, Note_on_c, 0, 76, 0
2, 160356, Note_on_c, 0, 79, 85
2, 160392, Note_on_c, 0, 77, 98
2, 160392, Note_on_c, 0, 69, 68
2, 160392, Note_on_c, 0, 65, 68
2, 160392, Note_on_c, 0, 62, 72
2, 160404, Control_c, 0, 64, 88
2, 160412, Note_on_c, 0, 79, 0
2, 160416, Control_c, 0, 64, 0
2, 160476, Control_c, 0, 64, 72
2, 160488, Control_c, 0, 64, 127
2, 160516, Note_on_c, 0, 69, 76
2, 160524, Note_on_c, 0, 76, 96
2, 160528, Note_on_c, 0, 77, 0
2, 160600, Note_on_c, 0, 65, 68
2, 160608, Note_on_c, 0, 69, 0
2, 160640, Note_on_c, 0, 76, 0
2, 160644, Note_on_c, 0, 77, 97
2, 160652, Note_on_c, 0, 65, 0
2, 160664, Note_on_c, 0, 62, 73
2, 160740, Note_on_c, 0, 62, 0
2, 160748, Note_on_c, 0, 57, 70
2, 160772, Note_on_c, 0, 57, 0
2, 160776, Note_on_c, 0, 81, 98
2, 160780, Note_on_c, 0, 77, 0
2, 160848, Note_on_c, 0, 81, 0
2, 160864, Note_on_c, 0, 69, 0
2, 160864, Note_on_c, 0, 65, 0
2, 160864, Note_on_c, 0, 62, 0
2, 160916, Note_on_c, 0, 81, 98
2, 160960, Control_c, 0, 64, 72
2, 160972, Control_c, 0, 64, 0
2, 161020, Control_c, 0, 64, 88
2, 161032, Control_c, 0, 64, 127
2, 161060, Note_on_c, 0, 69, 74
2, 161064, Note_on_c, 0, 81, 0
2, 161176, Note_on_c, 0, 81, 99
2, 161176, Note_on_c, 0, 64, 73
2, 161184, Note_on_c, 0, 69, 0
2, 161244, Note_on_c, 0, 64, 0
2, 161248, Note_on_c, 0, 61, 72
2, 161284, Note_on_c, 0, 81, 0
2, 161320, Note_on_c, 0, 61, 0
2, 161324, Note_on_c, 0, 57, 70
2, 161372, Note_on_c, 0, 57, 0
2, 161452, Note_on_c, 0, 81, 101
2, 161452, Note_on_c, 0, 69, 80
2, 161452, Note_on_c, 0, 65, 73
2, 161452, Note_on_c, 0, 62, 76
2, 161472, Control_c, 0, 64, 40
2, 161484, Control_c, 0, 64, 0
2, 161532, Control_c, 0, 64, 88
2, 161544, Control_c, 0, 64, 127
2, 161576, Note_on_c, 0, 69, 78
2, 161656, Note_on_c, 0, 69, 0
2, 161656, Note_on_c, 0, 65, 58
2, 161700, Note_on_c, 0, 65, 0
2, 161716, Note_on_c, 0, 62, 71
2, 161784, Note_on_c, 0, 81, 0
2, 161792, Note_on_c, 0, 62, 0
2, 161804, Note_on_c, 0, 77, 97
2, 161828, Note_on_c, 0, 57, 67
2, 161876, Note_on_c, 0, 57, 0
2, 161924, Note_on_c, 0, 62, 0
2, 161924, Note_on_c, 0, 65, 0
2, 161924, Note_on_c, 0, 69, 0
2, 161948, Note_on_c, 0, 76, 94
2, 161948, Note_on_c, 0, 64, 68
2, 161948, Note_on_c, 0, 61, 66
2, 161948, Note_on_c, 0, 57, 68
2, 161996, Control_c, 0, 64, 56
2, 162008, Note_on_c, 0, 77, 0
2, 162008, Control_c, 0, 64, 0
2, 162068, Control_c, 0, 64, 72
2, 162076, Control_c, 0, 64, 127
2, 162092, Note_on_c, 0, 69, 71
2, 162180, Note_on_c, 0, 69, 0
2, 162184, Note_on_c, 0, 64, 69
2, 162200, Note_on_c, 0, 76, 0
2, 162240, Note_on_c, 0, 64, 0
2, 162252, Note_on_c, 0, 61, 59
2, 162332, Note_on_c, 0, 61, 0
2, 162348, Note_on_c, 0, 57, 62
2, 162408, Note_on_c, 0, 57, 0
2, 162420, Note_on_c, 0, 61, 0
2, 162420, Note_on_c, 0, 64, 0
2, 162420, Note_on_c, 0, 57, 0
2, 162516, Note_on_c, 0, 63, 64
2, 162516, Note_on_c, 0, 67, 74
2, 162516, Note_on_c, 0, 60, 72
2, 162516, Note_on_c, 0, 55, 74
2, 162520, Control_c, 0, 64, 56
2, 162528, Control_c, 0, 64, 0
2, 162588, Control_c, 0, 64, 88
2, 162600, Control_c, 0, 64, 127
2, 162616, Note_on_c, 0, 60, 70
2, 162660, Note_on_c, 0, 74, 80
2, 162700, Note_on_c, 0, 60, 0
2, 162700, Note_on_c, 0, 55, 71
2, 162772, Note_on_c, 0, 60, 0
2, 162772, Note_on_c, 0, 55, 0
2, 162784, Note_on_c, 0, 51, 63
2, 162784, Note_on_c, 0, 75, 82
2, 162788, Note_on_c, 0, 55, 0
2, 162792, Note_on_c, 0, 74, 0
2, 162832, Note_on_c, 0, 51, 0
2, 162852, Note_on_c, 0, 48, 73
2, 162872, Note_on_c, 0, 67, 0
2, 162888, Note_on_c, 0, 79, 86
2, 162892, Note_on_c, 0, 63, 0
2, 162908, Note_on_c, 0, 48, 0
2, 162916, Note_on_c, 0, 75, 0
2, 162924, Note_on_c, 0, 43, 68
2, 162960, Note_on_c, 0, 43, 0
2, 163020, Note_on_c, 0, 79, 0
2, 163024, Note_on_c, 0, 67, 78
2, 163024, Note_on_c, 0, 79, 86
2, 163028, Note_on_c, 0, 62, 72
2, 163032, Control_c, 0, 64, 88
2, 163044, Control_c, 0, 64, 0
2, 163104, Control_c, 0, 64, 72
2, 163116, Note_on_c, 0, 59, 72
2, 163116, Control_c, 0, 64, 127
2, 163156, Note_on_c, 0, 79, 0
2, 163188, Note_on_c, 0, 55, 75
2, 163276, Note_on_c, 0, 55, 0
2, 163280, Note_on_c, 0, 53, 73
2, 163280, Note_on_c, 0, 79, 87
2, 163348, Note_on_c, 0, 62, 0
2, 163352, Note_on_c, 0, 53, 0
2, 163356, Note_on_c, 0, 67, 0
2, 163364, Note_on_c, 0, 50, 63
2, 163368, Note_on_c, 0, 59, 0
2, 163412, Note_on_c, 0, 79, 0
2, 163420, Note_on_c, 0, 50, 0
2, 163436, Note_on_c, 0, 43, 71
2, 163472, Note_on_c, 0, 43, 0
2, 163532, Note_on_c, 0, 63, 68
2, 163532, Note_on_c, 0, 67, 78
2, 163532, Note_on_c, 0, 79, 91
2, 163568, Control_c, 0, 64, 104
2, 163576, Control_c, 0, 64, 24
2, 163588, Control_c, 0, 64, 0
2, 163624, Note_on_c, 0, 60, 68
2, 163640, Control_c, 0, 64, 40
2, 163648, Control_c, 0, 64, 104
2, 163660, Control_c, 0, 64, 127
2, 163672, Note_on_c, 0, 55, 65
2, 163744, Note_on_c, 0, 55, 0
2, 163756, Note_on_c, 0, 51, 59
2, 163808, Note_on_c, 0, 51, 0
2, 163812, Note_on_c, 0, 67, 0
2, 163824, Note_on_c, 0, 48, 73
2, 163888, Note_on_c, 0, 48, 0
2, 163888, Note_on_c, 0, 63, 0
2, 163892, Note_on_c, 0, 75, 86
2, 163900, Note_on_c, 0, 43, 69
2, 163916, Note_on_c, 0, 79, 0
2, 163932, Note_on_c, 0, 60, 0
2, 163948, Note_on_c, 0, 43, 0
2, 164008, Note_on_c, 0, 67, 76
2, 164008, Note_on_c, 0, 62, 76
2, 164008, Note_on_c, 0, 74, 84
2, 164008, Control_c, 0, 64, 56
2, 164020, Control_c, 0, 64, 0
2, 164024, Note_on_c, 0, 75, 0
2, 164072, Control_c, 0, 64, 104
2, 164076, Note_on_c, 0, 62, 0
2, 164076, Note_on_c, 0, 59, 69
2, 164080, Control_c, 0, 64, 127
2, 164104, Note_on_c, 0, 59, 0
2, 164140, Note_on_c, 0, 74, 0
2, 164156, Note_on_c, 0, 55, 70
2, 164160, Note_on_c, 0, 67, 0
2, 164248, Note_on_c, 0, 55, 0
2, 164252, Note_on_c, 0, 53, 73
2, 164256, Note_on_c, 0, 72, 88
2, 164308, Note_on_c, 0, 53, 0
2, 164312, Note_on_c, 0, 50, 70
2, 164364, Note_on_c, 0, 72, 0
2, 164380, Note_on_c, 0, 50, 0
2, 164380, Note_on_c, 0, 74, 93
2, 164404, Note_on_c, 0, 43, 63
2, 164428, Note_on_c, 0, 43, 0
2, 164484, Note_on_c, 0, 74, 0
2, 164500, Note_on_c, 0, 77, 83
2, 164532, Note_on_c, 0, 75, 94
2, 164532, Control_c, 0, 64, 88
2, 164544, Control_c, 0, 64, 0
2, 164556, Note_on_c, 0, 77, 0
2, 164604, Control_c, 0, 64, 88
2, 164616, Control_c, 0, 64, 127
2, 164640, Note_on_c, 0, 67, 67
2, 164656, Note_on_c, 0, 75, 0
2, 164656, Note_on_c, 0, 74, 94
2, 164716, Note_on_c, 0, 63, 62
2, 164724, Note_on_c, 0, 67, 0
2, 164764, Note_on_c, 0, 63, 0
2, 164768, Note_on_c, 0, 74, 0
2, 164772, Note_on_c, 0, 75, 95
2, 164772, Note_on_c, 0, 60, 67
2, 164848, Note_on_c, 0, 60, 0
2, 164860, Note_on_c, 0, 55, 67
2, 164892, Note_on_c, 0, 55, 0
2, 164896, Note_on_c, 0, 75, 0
2, 164900, Note_on_c, 0, 79, 96
2, 164976, Note_on_c, 0, 79, 0
2, 165040, Note_on_c, 0, 79, 98
2, 165080, Control_c, 0, 64, 72
2, 165088, Control_c, 0, 64, 0
2, 165148, Control_c, 0, 64, 104
2, 165156, Control_c, 0, 64, 127
2, 165176, Note_on_c, 0, 67, 67
2, 165188, Note_on_c, 0, 79, 0
2, 165260, Note_on_c, 0, 67, 0
2, 165268, Note_on_c, 0, 62, 63
2, 165296, Note_on_c, 0, 79, 98
2, 165328, Note_on_c, 0, 62, 0
2, 165340, Note_on_c, 0, 59, 60
2, 165412, Note_on_c, 0, 79, 0
2, 165420, Note_on_c, 0, 59, 0
2, 165428, Note_on_c, 0, 55, 67
2, 165452, Note_on_c, 0, 55, 0
2, 165560, Note_on_c, 0, 79, 97
2, 165560, Note_on_c, 0, 67, 75
2, 165560, Note_on_c, 0, 63, 72
2, 165560, Note_on_c, 0, 60, 73
2, 165612, Control_c, 0, 64, 104
2, 165620, Control_c, 0, 64, 24
2, 165632, Control_c, 0, 64, 0
2, 165680, Control_c, 0, 64, 88
2, 165692, Control_c, 0, 64, 127
2, 165704, Note_on_c, 0, 67, 66
2, 165784, Note_on_c, 0, 63, 59
2, 165788, Note_on_c, 0, 67, 0
2, 165844, Note_on_c, 0, 63, 0
2, 165852, Note_on_c, 0, 60, 68
2, 165916, Note_on_c, 0, 60, 0
2, 165932, Note_on_c, 0, 67, 0
2, 165932, Note_on_c, 0, 60, 0
2, 165932, Note_on_c, 0, 63, 0
2, 165932, Note_on_c, 0, 75, 90
2, 165940, Note_on_c, 0, 79, 0
2, 165948, Note_on_c, 0, 55, 62
2, 165988, Note_on_c, 0, 55, 0
2, 166092, Note_on_c, 0, 74, 85
2, 166092, Note_on_c, 0, 62, 68
2, 166092, Note_on_c, 0, 59, 67
2, 166092, Note_on_c, 0, 55, 68
2, 166108, Note_on_c, 0, 75, 0
2, 166156, Control_c, 0, 64, 72
2, 166164, Control_c, 0, 64, 0
2, 166224, Note_on_c, 0, 67, 66
2, 166228, Control_c, 0, 64, 72
2, 166236, Control_c, 0, 64, 127
2, 166324, Note_on_c, 0, 67, 0
2, 166328, Note_on_c, 0, 62, 68
2, 166380, Note_on_c, 0, 62, 0
2, 166388, Note_on_c, 0, 59, 68
2, 166464, Note_on_c, 0, 55, 0
2, 166464, Note_on_c, 0, 62, 0
2, 166464, Note_on_c, 0, 59, 0
2, 166476, Note_on_c, 0, 59, 0
2, 166476, Note_on_c, 0, 55, 62
2, 166480, Note_on_c, 0, 74, 0
2, 166504, Note_on_c, 0, 55, 0
2, 166556, Note_on_c, 0, 74, 91
2, 166700, Note_on_c, 0, 79, 95
2, 166700, Note_on_c, 0, 76, 73
2, 166700, Note_on_c, 0, 72, 69
2, 166700, Note_on_c, 0, 67, 69
2, 166700, Note_on_c, 0, 43, 77
2, 166700, Note_on_c, 0, 55, 70
2, 166704, Note_on_c, 0, 74, 0
2, 166760, Control_c, 0, 64, 88
2, 166768, Control_c, 0, 64, 0
2, 166840, Control_c, 0, 64, 72
2, 166848, Control_c, 0, 64, 127
2, 166852, Note_on_c, 0, 67, 67
2, 166956, Note_on_c, 0, 64, 64
2, 167016, Note_on_c, 0, 64, 0
2, 167040, Note_on_c, 0, 60, 72
2, 167128, Note_on_c, 0, 60, 0
2, 167140, Note_on_c, 0, 76, 93
2, 167152, Note_on_c, 0, 55, 63
2, 167172, Note_on_c, 0, 67, 0
2, 167336, Note_on_c, 0, 67, 0
2, 167336, Note_on_c, 0, 74, 87
2, 167336, Note_on_c, 0, 71, 73
2, 167344, Note_on_c, 0, 76, 0
2, 167356, Note_on_c, 0, 72, 0
2, 167364, Note_on_c, 0, 76, 0
2, 167372, Note_on_c, 0, 55, 0
2, 167432, Control_c, 0, 64, 56
2, 167444, Control_c, 0, 64, 0
2, 167504, Control_c, 0, 64, 56
2, 167516, Control_c, 0, 64, 127
2, 167524, Note_on_c, 0, 67, 68
2, 167544, Note_on_c, 0, 79, 0
2, 167628, Note_on_c, 0, 67, 0
2, 167644, Note_on_c, 0, 55, 0
2, 167644, Note_on_c, 0, 62, 67
2, 167720, Note_on_c, 0, 62, 0
2, 167732, Note_on_c, 0, 59, 64
2, 167756, Note_on_c, 0, 43, 0
2, 167808, Note_on_c, 0, 71, 0
2, 167840, Note_on_c, 0, 59, 0
2, 167844, Note_on_c, 0, 55, 68
2, 167860, Note_on_c, 0, 74, 0
2, 167876, Note_on_c, 0, 55, 0
2, 168128, Note_on_c, 0, 74, 88
2, 168148, Control_c, 0, 64, 56
2, 168156, Control_c, 0, 64, 0
2, 168220, Control_c, 0, 64, 104
2, 168228, Control_c, 0, 64, 127
2, 168300, Note_on_c, 0, 67, 68
2, 168396, Note_on_c, 0, 62, 69
2, 168472, Note_on_c, 0, 62, 0
2, 168476, Note_on_c, 0, 59, 61
2, 168560, Note_on_c, 0, 53, 72
2, 168580, Note_on_c, 0, 59, 0
2, 168624, Note_on_c, 0, 53, 0
2, 168640, Note_on_c, 0, 74, 0
2, 168660, Note_on_c, 0, 67, 0
2, 168676, Note_on_c, 0, 76, 95
2, 168712, Control_c, 0, 64, 88
2, 168724, Control_c, 0, 64, 0
2, 168784, Control_c, 0, 64, 88
2, 168792, Control_c, 0, 64, 127
2, 168832, Note_on_c, 0, 67, 72
2, 168900, Note_on_c, 0, 60, 71
2, 168988, Note_on_c, 0, 60, 0
2, 168988, Note_on_c, 0, 55, 68
2, 169032, Note_on_c, 0, 76, 0
2, 169068, Note_on_c, 0, 55, 0
2, 169068, Note_on_c, 0, 52, 75
2, 169112, Note_on_c, 0, 52, 0
2, 169164, Note_on_c, 0, 67, 0
2, 169172, Note_on_c, 0, 79, 99
2, 169216, Control_c, 0, 64, 40
2, 169228, Control_c, 0, 64, 0
2, 169276, Control_c, 0, 64, 56
2, 169284, Control_c, 0, 64, 127
2, 169340, Note_on_c, 0, 67, 78
2, 169416, Note_on_c, 0, 61, 61
2, 169484, Note_on_c, 0, 61, 0
2, 169492, Note_on_c, 0, 57, 66
2, 169580, Note_on_c, 0, 50, 73
2, 169608, Note_on_c, 0, 50, 0
2, 169624, Note_on_c, 0, 57, 0
2, 169624, Note_on_c, 0, 67, 0
2, 169708, Note_on_c, 0, 79, 0
2, 169780, Note_on_c, 0, 65, 85
2, 169788, Control_c, 0, 64, 104
2, 169800, Control_c, 0, 64, 40
2, 169808, Control_c, 0, 64, 0
2, 169840, Control_c, 0, 64, 72
2, 169848, Control_c, 0, 64, 127
2, 169888, Note_on_c, 0, 77, 100
2, 169892, Note_on_c, 0, 62, 68
2, 169968, Note_on_c, 0, 62, 0
2, 169968, Note_on_c, 0, 57, 67
2, 170008, Note_on_c, 0, 65, 0
2, 170032, Note_on_c, 0, 57, 0
2, 170036, Note_on_c, 0, 53, 68
2, 170072, Note_on_c, 0, 53, 0
2, 170100, Note_on_c, 0, 77, 0
2, 170120, Note_on_c, 0, 76, 103
2, 170192, Control_c, 0, 64, 104
2, 170204, Control_c, 0, 64, 0
2, 170252, Control_c, 0, 64, 40
2, 170264, Control_c, 0, 64, 127
2, 170284, Note_on_c, 0, 67, 81
2, 170360, Note_on_c, 0, 64, 71
2, 170368, Note_on_c, 0, 67, 0
2, 170400, Note_on_c, 0, 64, 0
2, 170420, Note_on_c, 0, 60, 77
2, 170484, Note_on_c, 0, 60, 0
2, 170496, Note_on_c, 0, 55, 70
2, 170540, Note_on_c, 0, 55, 0
2, 170592, Note_on_c, 0, 74, 101
2, 170612, Note_on_c, 0, 76, 0
2, 170676, Control_c, 0, 64, 40
2, 170684, Control_c, 0, 64, 0
2, 170728, Note_on_c, 0, 71, 79
2, 170736, Control_c, 0, 64, 88
2, 170744, Control_c, 0, 64, 127
2, 170808, Note_on_c, 0, 71, 0
2, 170812, Note_on_c, 0, 65, 78
2, 170848, Note_on_c, 0, 74, 0
2, 170860, Note_on_c, 0, 65, 0
2, 170872, Note_on_c, 0, 62, 72
2, 170940, Note_on_c, 0, 56, 69
2, 170944, Note_on_c, 0, 62, 0
2, 170976, Note_on_c, 0, 56, 0
2, 171016, Note_on_c, 0, 74, 98
2, 171096, Note_on_c, 0, 74, 0
2, 171104, Note_on_c, 0, 76, 97
2, 171160, Note_on_c, 0, 71, 85
2, 171196, Note_on_c, 0, 74, 100
2, 171212, Note_on_c, 0, 76, 0
2, 171232, Note_on_c, 0, 71, 0
2, 171268, Note_on_c, 0, 74, 0
2, 171284, Note_on_c, 0, 65, 73
2, 171292, Note_on_c, 0, 73, 98
2, 171328, Note_on_c, 0, 65, 0
2, 171356, Note_on_c, 0, 73, 0
2, 171368, Note_on_c, 0, 62, 70
2, 171376, Note_on_c, 0, 74, 103
2, 171440, Note_on_c, 0, 62, 0
2, 171448, Note_on_c, 0, 74, 0
2, 171456, Note_on_c, 0, 57, 67
2, 171460, Note_on_c, 0, 76, 96
2, 171500, Note_on_c, 0, 57, 0
2, 171536, Note_on_c, 0, 76, 0
2, 171556, Note_on_c, 0, 72, 94
2, 171580, Control_c, 0, 64, 88
2, 171592, Control_c, 0, 64, 0
2, 171664, Control_c, 0, 64, 127
2, 171692, Note_on_c, 0, 69, 74
2, 171764, Note_on_c, 0, 69, 0
2, 171776, Note_on_c, 0, 65, 67
2, 171828, Note_on_c, 0, 65, 0
2, 171840, Note_on_c, 0, 60, 73
2, 171904, Note_on_c, 0, 72, 0
2, 171912, Note_on_c, 0, 60, 0
2, 171988, Note_on_c, 0, 69, 82
2, 172024, Note_on_c, 0, 57, 70
2, 172076, Note_on_c, 0, 57, 0
2, 172076, Control_c, 0, 64, 0
2, 172120, Control_c, 0, 64, 72
2, 172132, Note_on_c, 0, 62, 86
2, 172132, Note_on_c, 0, 59, 78
2, 172136, Control_c, 0, 64, 72
2, 172144, Control_c, 0, 64, 0
2, 172216, Control_c, 0, 64, 104
2, 172224, Note_on_c, 0, 67, 75
2, 172224, Control_c, 0, 64, 127
2, 172276, Note_on_c, 0, 67, 0
2, 172304, Note_on_c, 0, 74, 89
2, 172380, Note_on_c, 0, 74, 0
2, 172388, Note_on_c, 0, 77, 94
2, 172404, Note_on_c, 0, 59, 0
2, 172420, Note_on_c, 0, 69, 0
2, 172472, Note_on_c, 0, 79, 94
2, 172476, Note_on_c, 0, 77, 0
2, 172484, Note_on_c, 0, 62, 0
2, 172560, Note_on_c, 0, 67, 80
2, 172576, Note_on_c, 0, 79, 0
2, 172616, Note_on_c, 0, 67, 0
2, 172636, Note_on_c, 0, 64, 98
2, 172636, Note_on_c, 0, 60, 84
2, 172636, Note_on_c, 0, 58, 68
2, 172660, Control_c, 0, 64, 56
2, 172668, Control_c, 0, 64, 0
2, 172728, Control_c, 0, 64, 104
2, 172732, Note_on_c, 0, 67, 83
2, 172740, Control_c, 0, 64, 127
2, 172772, Note_on_c, 0, 67, 0
2, 172804, Note_on_c, 0, 72, 98
2, 172868, Note_on_c, 0, 72, 0
2, 172880, Note_on_c, 0, 60, 0
2, 172884, Note_on_c, 0, 76, 94
2, 172924, Note_on_c, 0, 58, 0
2, 172940, Note_on_c, 0, 64, 0
2, 172968, Note_on_c, 0, 76, 0
2, 172972, Note_on_c, 0, 79, 98
2, 173040, Note_on_c, 0, 67, 91
2, 173072, Note_on_c, 0, 67, 0
2, 173112, Note_on_c, 0, 79, 0
2, 173148, Note_on_c, 0, 67, 98
2, 173152, Note_on_c, 0, 60, 90
2, 173156, Note_on_c, 0, 57, 83
2, 173172, Control_c, 0, 64, 104
2, 173184, Control_c, 0, 64, 0
2, 173244, Note_on_c, 0, 72, 93
2, 173264, Control_c, 0, 64, 56
2, 173272, Control_c, 0, 64, 127
2, 173312, Note_on_c, 0, 72, 0
2, 173324, Note_on_c, 0, 76, 99
2, 173340, Note_on_c, 0, 72, 38
2, 173364, Note_on_c, 0, 72, 0
2, 173392, Note_on_c, 0, 76, 0
2, 173404, Note_on_c, 0, 79, 100
2, 173484, Note_on_c, 0, 84, 99
2, 173500, Note_on_c, 0, 79, 0
2, 173560, Note_on_c, 0, 67, 0
2, 173568, Note_on_c, 0, 72, 82
2, 173656, Note_on_c, 0, 72, 0
2, 173660, Note_on_c, 0, 65, 89
2, 173676, Control_c, 0, 64, 56
2, 173684, Control_c, 0, 64, 40
2, 173696, Control_c, 0, 64, 56
2, 173704, Control_c, 0, 64, 104
2, 173716, Control_c, 0, 64, 127
2, 173740, Note_on_c, 0, 60, 0
2, 173744, Note_on_c, 0, 72, 87
2, 173752, Note_on_c, 0, 84, 0
2, 173764, Note_on_c, 0, 57, 0
2, 173788, Note_on_c, 0, 65, 0
2, 173812, Note_on_c, 0, 72, 0
2, 173820, Note_on_c, 0, 77, 95
2, 173884, Note_on_c, 0, 77, 0
2, 173916, Note_on_c, 0, 64, 94
2, 173916, Note_on_c, 0, 60, 82
2, 173916, Control_c, 0, 64, 104
2, 173928, Note_on_c, 0, 55, 84
2, 173928, Control_c, 0, 64, 40
2, 173936, Control_c, 0, 64, 0
2, 173948, Control_c, 0, 64, 24
2, 173956, Control_c, 0, 64, 56
2, 173968, Control_c, 0, 64, 127
2, 173988, Note_on_c, 0, 55, 0
2, 173988, Note_on_c, 0, 60, 0
2, 174004, Note_on_c, 0, 72, 90
2, 174068, Note_on_c, 0, 64, 0
2, 174072, Note_on_c, 0, 76, 91
2, 174080, Note_on_c, 0, 72, 0
2, 174080, Control_c, 0, 64, 56
2, 174088, Control_c, 0, 64, 0
2, 174112, Note_on_c, 0, 54, 70
2, 174116, Note_on_c, 0, 76, 0
2, 174140, Control_c, 0, 64, 72
2, 174144, Note_on_c, 0, 60, 81
2, 174148, Control_c, 0, 64, 127
2, 174152, Note_on_c, 0, 54, 0
2, 174152, Note_on_c, 0, 62, 71
2, 174200, Note_on_c, 0, 69, 98
2, 174288, Note_on_c, 0, 74, 83
2, 174340, Note_on_c, 0, 74, 0
2, 174368, Note_on_c, 0, 81, 93
2, 174420, Note_on_c, 0, 69, 0
2, 174432, Note_on_c, 0, 60, 0
2, 174432, Note_on_c, 0, 62, 0
2, 174440, Note_on_c, 0, 81, 0
2, 174452, Note_on_c, 0, 84, 93
2, 174536, Note_on_c, 0, 86, 94
2, 174564, Note_on_c, 0, 84, 0
2, 174608, Note_on_c, 0, 86, 0
2, 174616, Note_on_c, 0, 74, 87
2, 174660, Note_on_c, 0, 74, 0
2, 174700, Note_on_c, 0, 62, 94
2, 174704, Control_c, 0, 64, 104
2, 174708, Note_on_c, 0, 59, 79
2, 174712, Note_on_c, 0, 53, 77
2, 174716, Control_c, 0, 64, 0
2, 174772, Control_c, 0, 64, 127
2, 174788, Note_on_c, 0, 67, 79
2, 174840, Note_on_c, 0, 67, 0
2, 174872, Note_on_c, 0, 71, 85
2, 174904, Note_on_c, 0, 53, 0
2, 174908, Note_on_c, 0, 59, 0
2, 174952, Note_on_c, 0, 74, 90
2, 174956, Note_on_c, 0, 71, 0
2, 174968, Note_on_c, 0, 62, 0
2, 175036, Note_on_c, 0, 79, 90
2, 175048, Note_on_c, 0, 74, 0
2, 175112, Note_on_c, 0, 67, 84
2, 175136, Control_c, 0, 64, 104
2, 175140, Note_on_c, 0, 52, 75
2, 175144, Control_c, 0, 64, 0
2, 175156, Note_on_c, 0, 67, 0
2, 175172, Note_on_c, 0, 60, 78
2, 175184, Note_on_c, 0, 52, 0
2, 175184, Control_c, 0, 64, 56
2, 175196, Note_on_c, 0, 79, 0
2, 175196, Control_c, 0, 64, 127
2, 175212, Note_on_c, 0, 60, 0
2, 175224, Note_on_c, 0, 67, 94
2, 175300, Note_on_c, 0, 72, 93
2, 175364, Note_on_c, 0, 72, 0
2, 175380, Note_on_c, 0, 76, 89
2, 175464, Note_on_c, 0, 76, 0
2, 175464, Note_on_c, 0, 79, 93
2, 175540, Note_on_c, 0, 84, 89
2, 175552, Note_on_c, 0, 79, 0
2, 175612, Note_on_c, 0, 84, 0
2, 175620, Note_on_c, 0, 72, 86
2, 175668, Note_on_c, 0, 72, 0
2, 175696, Note_on_c, 0, 67, 0
2, 175708, Note_on_c, 0, 64, 94
2, 175708, Note_on_c, 0, 48, 76
2, 175712, Control_c, 0, 64, 104
2, 175720, Control_c, 0, 64, 56
2, 175732, Control_c, 0, 64, 0
2, 175740, Control_c, 0, 64, 24
2, 175752, Control_c, 0, 64, 56
2, 175760, Control_c, 0, 64, 104
2, 175772, Control_c, 0, 64, 127
2, 175796, Note_on_c, 0, 67, 83
2, 175820, Note_on_c, 0, 64, 0
2, 175852, Note_on_c, 0, 67, 0
2, 175888, Note_on_c, 0, 72, 88
2, 175968, Note_on_c, 0, 72, 0
2, 175976, Note_on_c, 0, 76, 93
2, 175976, Note_on_c, 0, 60, 92
2, 175976, Note_on_c, 0, 52, 79
2, 176036, Note_on_c, 0, 60, 0
2, 176048, Note_on_c, 0, 48, 0
2, 176056, Note_on_c, 0, 79, 90
2, 176068, Note_on_c, 0, 76, 0
2, 176120, Note_on_c, 0, 79, 0
2, 176136, Note_on_c, 0, 67, 80
2, 176188, Note_on_c, 0, 67, 0
2, 176232, Note_on_c, 0, 59, 88
2, 176232, Note_on_c, 0, 55, 82
2, 176232, Note_on_c, 0, 53, 78
2, 176232, Note_on_c, 0, 62, 83
2, 176268, Control_c, 0, 64, 56
2, 176276, Control_c, 0, 64, 0
2, 176316, Note_on_c, 0, 52, 0
2, 176328, Note_on_c, 0, 62, 80
2, 176336, Control_c, 0, 64, 56
2, 176348, Control_c, 0, 64, 127
2, 176388, Note_on_c, 0, 62, 0
2, 176408, Note_on_c, 0, 67, 86
2, 176488, Note_on_c, 0, 71, 81
2, 176492, Note_on_c, 0, 67, 0
2, 176504, Note_on_c, 0, 53, 0
2, 176512, Note_on_c, 0, 55, 0
2, 176540, Note_on_c, 0, 59, 0
2, 176572, Note_on_c, 0, 62, 0
2, 176572, Note_on_c, 0, 74, 81
2, 176580, Note_on_c, 0, 71, 0
2, 176648, Note_on_c, 0, 62, 80
2, 176680, Note_on_c, 0, 62, 0
2, 176728, Note_on_c, 0, 60, 90
2, 176728, Note_on_c, 0, 52, 83
2, 176728, Note_on_c, 0, 55, 85
2, 176728, Note_on_c, 0, 64, 86
2, 176736, Note_on_c, 0, 74, 0
2, 176760, Control_c, 0, 64, 88
2, 176772, Control_c, 0, 64, 0
2, 176800, Note_on_c, 0, 64, 82
2, 176820, Control_c, 0, 64, 72
2, 176832, Control_c, 0, 64, 127
2, 176852, Note_on_c, 0, 64, 0
2, 176884, Note_on_c, 0, 67, 88
2, 176924, Note_on_c, 0, 52, 0
2, 176956, Note_on_c, 0, 67, 0
2, 176964, Note_on_c, 0, 72, 93
2, 176972, Note_on_c, 0, 55, 0
2, 177028, Note_on_c, 0, 60, 0
2, 177048, Note_on_c, 0, 72, 0
2, 177052, Note_on_c, 0, 76, 93
2, 177068, Note_on_c, 0, 64, 0
2, 177132, Note_on_c, 0, 64, 89
2, 177164, Note_on_c, 0, 49, 69
2, 177172, Note_on_c, 0, 64, 0
2, 177176, Control_c, 0, 64, 40
2, 177184, Control_c, 0, 64, 0
2, 177192, Note_on_c, 0, 57, 83
2, 177208, Note_on_c, 0, 49, 0
2, 177216, Control_c, 0, 64, 40
2, 177220, Note_on_c, 0, 76, 0
2, 177224, Control_c, 0, 64, 127
2, 177232, Note_on_c, 0, 64, 97
2, 177232, Note_on_c, 0, 67, 94
2, 177300, Note_on_c, 0, 67, 90
2, 177356, Note_on_c, 0, 67, 0
2, 177384, Note_on_c, 0, 69, 92
2, 177436, Note_on_c, 0, 69, 0
2, 177464, Note_on_c, 0, 76, 90
2, 177480, Note_on_c, 0, 64, 0
2, 177532, Note_on_c, 0, 76, 0
2, 177544, Note_on_c, 0, 57, 0
2, 177552, Note_on_c, 0, 79, 92
2, 177616, Note_on_c, 0, 79, 0
2, 177628, Note_on_c, 0, 67, 88
2, 177688, Note_on_c, 0, 67, 0
2, 177696, Control_c, 0, 64, 24
2, 177704, Note_on_c, 0, 62, 92
2, 177708, Note_on_c, 0, 50, 79
2, 177708, Note_on_c, 0, 59, 70
2, 177708, Note_on_c, 0, 65, 91
2, 177708, Control_c, 0, 64, 0
2, 177736, Control_c, 0, 64, 56
2, 177748, Control_c, 0, 64, 127
2, 177760, Note_on_c, 0, 50, 0
2, 177768, Note_on_c, 0, 65, 88
2, 177800, Note_on_c, 0, 59, 0
2, 177800, Note_on_c, 0, 62, 0
2, 177828, Note_on_c, 0, 65, 0
2, 177856, Note_on_c, 0, 77, 98
2, 177860, Note_on_c, 0, 71, 76
2, 177876, Note_on_c, 0, 71, 0
2, 177908, Note_on_c, 0, 77, 0
2, 177940, Control_c, 0, 64, 104
2, 177944, Note_on_c, 0, 60, 94
2, 177944, Note_on_c, 0, 52, 84
2, 177944, Note_on_c, 0, 64, 90
2, 177948, Note_on_c, 0, 55, 85
2, 177948, Control_c, 0, 64, 40
2, 177956, Note_on_c, 0, 67, 0
2, 177968, Control_c, 0, 64, 72
2, 177980, Control_c, 0, 64, 127
2, 178004, Note_on_c, 0, 64, 76
2, 178008, Note_on_c, 0, 52, 0
2, 178012, Note_on_c, 0, 55, 0
2, 178020, Note_on_c, 0, 60, 0
2, 178048, Note_on_c, 0, 65, 0
2, 178068, Note_on_c, 0, 64, 0
2, 178088, Note_on_c, 0, 76, 95
2, 178096, Note_on_c, 0, 72, 79
2, 178112, Note_on_c, 0, 72, 0
2, 178136, Note_on_c, 0, 76, 0
2, 178188, Note_on_c, 0, 59, 95
2, 178188, Note_on_c, 0, 55, 81
2, 178188, Note_on_c, 0, 53, 78
2, 178188, Note_on_c, 0, 62, 88
2, 178188, Note_on_c, 0, 74, 91
2, 178212, Control_c, 0, 64, 88
2, 178220, Control_c, 0, 64, 0
2, 178252, Note_on_c, 0, 55, 0
2, 178260, Control_c, 0, 64, 40
2, 178272, Control_c, 0, 64, 127
2, 178284, Note_on_c, 0, 64, 0
2, 178284, Note_on_c, 0, 62, 86
2, 178328, Note_on_c, 0, 62, 0
2, 178360, Note_on_c, 0, 67, 90
2, 178436, Note_on_c, 0, 67, 0
2, 178444, Note_on_c, 0, 71, 88
2, 178484, Note_on_c, 0, 53, 0
2, 178520, Note_on_c, 0, 59, 0
2, 178528, Note_on_c, 0, 62, 0
2, 178528, Note_on_c, 0, 74, 0
2, 178528, Note_on_c, 0, 74, 88
2, 178536, Note_on_c, 0, 71, 0
2, 178600, Note_on_c, 0, 62, 81
2, 178632, Note_on_c, 0, 74, 0
2, 178660, Note_on_c, 0, 62, 0
2, 178676, Control_c, 0, 64, 24
2, 178684, Note_on_c, 0, 60, 94
2, 178684, Note_on_c, 0, 55, 81
2, 178684, Note_on_c, 0, 52, 80
2, 178684, Note_on_c, 0, 76, 94
2, 178684, Note_on_c, 0, 64, 92
2, 178684, Control_c, 0, 64, 0
2, 178736, Control_c, 0, 64, 127
2, 178772, Note_on_c, 0, 64, 86
2, 178828, Note_on_c, 0, 64, 0
2, 178860, Note_on_c, 0, 67, 90
2, 178908, Note_on_c, 0, 52, 0
2, 178924, Note_on_c, 0, 67, 0
2, 178944, Note_on_c, 0, 72, 96
2, 178996, Note_on_c, 0, 55, 0
2, 179004, Note_on_c, 0, 60, 0
2, 179012, Note_on_c, 0, 72, 0
2, 179024, Note_on_c, 0, 64, 0
2, 179024, Note_on_c, 0, 76, 0
2, 179028, Note_on_c, 0, 76, 93
2, 179104, Note_on_c, 0, 64, 80
2, 179116, Control_c, 0, 64, 24
2, 179120, Note_on_c, 0, 49, 77
2, 179128, Control_c, 0, 64, 0
2, 179132, Note_on_c, 0, 64, 0
2, 179152, Note_on_c, 0, 76, 0
2, 179152, Note_on_c, 0, 57, 86
2, 179168, Note_on_c, 0, 49, 0
2, 179176, Control_c, 0, 64, 104
2, 179188, Control_c, 0, 64, 127
2, 179196, Note_on_c, 0, 64, 100
2, 179196, Note_on_c, 0, 67, 90
2, 179196, Note_on_c, 0, 79, 97
2, 179276, Note_on_c, 0, 67, 91
2, 179328, Note_on_c, 0, 67, 0
2, 179360, Note_on_c, 0, 69, 98
2, 179408, Note_on_c, 0, 69, 0
2, 179440, Note_on_c, 0, 76, 99
2, 179460, Note_on_c, 0, 57, 0
2, 179460, Note_on_c, 0, 64, 0
2, 179512, Note_on_c, 0, 76, 0
2, 179532, Note_on_c, 0, 79, 96
2, 179608, Note_on_c, 0, 67, 89
2, 179612, Note_on_c, 0, 79, 0
2, 179672, Control_c, 0, 64, 56
2, 179680, Note_on_c, 0, 67, 0
2, 179680, Control_c, 0, 64, 0
2, 179688, Note_on_c, 0, 65, 91
2, 179692, Note_on_c, 0, 62, 93
2, 179692, Note_on_c, 0, 50, 88
2, 179692, Note_on_c, 0, 59, 87
2, 179692, Note_on_c, 0, 77, 94
2, 179712, Control_c, 0, 64, 24
2, 179720, Control_c, 0, 64, 104
2, 179732, Control_c, 0, 64, 127
2, 179736, Note_on_c, 0, 50, 0
2, 179748, Note_on_c, 0, 65, 93
2, 179768, Note_on_c, 0, 59, 0
2, 179784, Note_on_c, 0, 62, 0
2, 179808, Note_on_c, 0, 65, 0
2, 179832, Note_on_c, 0, 77, 103
2, 179836, Note_on_c, 0, 71, 73
2, 179852, Note_on_c, 0, 71, 0
2, 179892, Note_on_c, 0, 77, 0
2, 179904, Control_c, 0, 64, 104
2, 179916, Note_on_c, 0, 52, 87
2, 179916, Note_on_c, 0, 55, 90
2, 179916, Note_on_c, 0, 60, 97
2, 179916, Note_on_c, 0, 64, 91
2, 179916, Note_on_c, 0, 76, 93
2, 179916, Control_c, 0, 64, 0
2, 179920, Note_on_c, 0, 79, 0
2, 179920, Note_on_c, 0, 67, 0
2, 179944, Control_c, 0, 64, 24
2, 179952, Control_c, 0, 64, 104
2, 179964, Control_c, 0, 64, 127
2, 179984, Note_on_c, 0, 52, 0
2, 179984, Note_on_c, 0, 55, 0
2, 179992, Note_on_c, 0, 64, 88
2, 180004, Note_on_c, 0, 60, 0
2, 180028, Note_on_c, 0, 65, 0
2, 180032, Note_on_c, 0, 77, 0
2, 180032, Note_on_c, 0, 64, 0
2, 180064, Note_on_c, 0, 76, 98
2, 180068, Note_on_c, 0, 72, 88
2, 180104, Note_on_c, 0, 72, 0
2, 180124, Note_on_c, 0, 76, 0
2, 180164, Note_on_c, 0, 60, 99
2, 180164, Note_on_c, 0, 74, 93
2, 180164, Note_on_c, 0, 62, 83
2, 180164, Control_c, 0, 64, 104
2, 180168, Note_on_c, 0, 57, 87
2, 180172, Note_on_c, 0, 53, 87
2, 180176, Control_c, 0, 64, 0
2, 180236, Control_c, 0, 64, 127
2, 180256, Note_on_c, 0, 76, 0
2, 180256, Note_on_c, 0, 64, 0
2, 180260, Note_on_c, 0, 62, 88
2, 180320, Note_on_c, 0, 62, 0
2, 180348, Note_on_c, 0, 69, 92
2, 180424, Note_on_c, 0, 69, 0
2, 180432, Note_on_c, 0, 72, 97
2, 180456, Note_on_c, 0, 57, 0
2, 180476, Note_on_c, 0, 53, 0
2, 180520, Note_on_c, 0, 60, 0
2, 180520, Note_on_c, 0, 74, 96
2, 180528, Note_on_c, 0, 72, 0
2, 180536, Note_on_c, 0, 62, 0
2, 180536, Note_on_c, 0, 74, 0
2, 180596, Note_on_c, 0, 62, 91
2, 180636, Note_on_c, 0, 62, 0
2, 180680, Note_on_c, 0, 60, 93
2, 180680, Note_on_c, 0, 54, 84
2, 180680, Note_on_c, 0, 62, 93
2, 180680, Note_on_c, 0, 81, 97
2, 180680, Note_on_c, 0, 69, 84
2, 180680, Note_on_c, 0, 42, 78
2, 180680, Note_on_c, 0, 72, 78
2, 180688, Note_on_c, 0, 74, 0
2, 180696, Control_c, 0, 64, 104
2, 180708, Control_c, 0, 64, 0
2, 180756, Note_on_c, 0, 69, 93
2, 180760, Control_c, 0, 64, 104
2, 180768, Control_c, 0, 64, 127
2, 180800, Note_on_c, 0, 69, 0
2, 180836, Note_on_c, 0, 72, 97
2, 180904, Note_on_c, 0, 72, 0
2, 180916, Note_on_c, 0, 74, 98
2, 180984, Note_on_c, 0, 74, 0
2, 180996, Note_on_c, 0, 60, 0
2, 180996, Note_on_c, 0, 54, 0
2, 180996, Note_on_c, 0, 81, 95
2, 181024, Note_on_c, 0, 62, 0
2, 181052, Note_on_c, 0, 69, 0
2, 181052, Note_on_c, 0, 81, 0
2, 181052, Note_on_c, 0, 42, 0
2, 181080, Note_on_c, 0, 69, 87
2, 181132, Note_on_c, 0, 81, 0
2, 181148, Note_on_c, 0, 69, 0
2, 181164, Note_on_c, 0, 62, 93
2, 181168, Note_on_c, 0, 55, 88
2, 181172, Note_on_c, 0, 60, 88
2, 181172, Note_on_c, 0, 79, 93
2, 181172, Note_on_c, 0, 67, 84
2, 181172, Note_on_c, 0, 43, 80
2, 181172, Note_on_c, 0, 74, 78
2, 181200, Control_c, 0, 64, 24
2, 181212, Control_c, 0, 64, 0
2, 181248, Note_on_c, 0, 67, 88
2, 181272, Control_c, 0, 64, 72
2, 181284, Control_c, 0, 64, 127
2, 181308, Note_on_c, 0, 67, 0
2, 181336, Note_on_c, 0, 72, 96
2, 181404, Note_on_c, 0, 72, 0
2, 181416, Note_on_c, 0, 74, 97
2, 181436, Note_on_c, 0, 72, 0
2, 181496, Note_on_c, 0, 60, 0
2, 181496, Note_on_c, 0, 79, 99
2, 181500, Note_on_c, 0, 74, 0
2, 181508, Note_on_c, 0, 55, 0
2, 181516, Note_on_c, 0, 62, 0
2, 181544, Note_on_c, 0, 43, 0
2, 181544, Note_on_c, 0, 79, 0
2, 181544, Note_on_c, 0, 74, 0
2, 181544, Note_on_c, 0, 67, 0
2, 181580, Note_on_c, 0, 67, 88
2, 181612, Note_on_c, 0, 79, 0
2, 181644, Note_on_c, 0, 67, 0
2, 181652, Note_on_c, 0, 62, 94
2, 181652, Note_on_c, 0, 60, 88
2, 181652, Note_on_c, 0, 57, 76
2, 181652, Note_on_c, 0, 78, 92
2, 181652, Note_on_c, 0, 66, 80
2, 181652, Note_on_c, 0, 72, 78
2, 181652, Note_on_c, 0, 45, 81
2, 181704, Control_c, 0, 64, 88
2, 181716, Control_c, 0, 64, 0
2, 181744, Note_on_c, 0, 66, 86
2, 181776, Control_c, 0, 64, 40
2, 181784, Control_c, 0, 64, 127
2, 181820, Note_on_c, 0, 66, 0
2, 181828, Note_on_c, 0, 72, 97
2, 181916, Note_on_c, 0, 74, 93
2, 181924, Note_on_c, 0, 72, 0
2, 181940, Note_on_c, 0, 60, 0
2, 181960, Note_on_c, 0, 57, 0
2, 181988, Note_on_c, 0, 78, 92
2, 182012, Note_on_c, 0, 74, 0
2, 182016, Note_on_c, 0, 62, 0
2, 182024, Note_on_c, 0, 78, 0
2, 182024, Note_on_c, 0, 45, 0
2, 182024, Note_on_c, 0, 72, 0
2, 182024, Note_on_c, 0, 66, 0
2, 182056, Note_on_c, 0, 66, 82
2, 182116, Note_on_c, 0, 78, 0
2, 182120, Note_on_c, 0, 66, 0
2, 182144, Note_on_c, 0, 61, 97
2, 182144, Note_on_c, 0, 58, 71
2, 182144, Note_on_c, 0, 77, 96
2, 182144, Note_on_c, 0, 65, 83
2, 182144, Note_on_c, 0, 73, 80
2, 182144, Note_on_c, 0, 46, 82
2, 182188, Control_c, 0, 64, 104
2, 182200, Control_c, 0, 64, 24
2, 182208, Control_c, 0, 64, 0
2, 182236, Note_on_c, 0, 65, 91
2, 182260, Control_c, 0, 64, 56
2, 182268, Control_c, 0, 64, 127
2, 182300, Note_on_c, 0, 65, 0
2, 182312, Note_on_c, 0, 70, 90
2, 182360, Note_on_c, 0, 58, 0
2, 182360, Note_on_c, 0, 61, 0
2, 182396, Note_on_c, 0, 73, 94
2, 182412, Note_on_c, 0, 70, 0
2, 182472, Note_on_c, 0, 77, 99
2, 182480, Note_on_c, 0, 73, 0
2, 182516, Note_on_c, 0, 77, 0
2, 182516, Note_on_c, 0, 65, 0
2, 182516, Note_on_c, 0, 46, 0
2, 182516, Note_on_c, 0, 73, 0
2, 182544, Note_on_c, 0, 65, 93
2, 182572, Note_on_c, 0, 65, 0
2, 182628, Note_on_c, 0, 77, 0
2, 182632, Note_on_c, 0, 67, 99
2, 182632, Note_on_c, 0, 65, 87
2, 182632, Note_on_c, 0, 86, 102
2, 182632, Note_on_c, 0, 74, 84
2, 182632, Note_on_c, 0, 77, 81
2, 182632, Note_on_c, 0, 47, 83
2, 182636, Note_on_c, 0, 59, 79
2, 182660, Control_c, 0, 64, 24
2, 182672, Control_c, 0, 64, 0
2, 182712, Control_c, 0, 64, 88
2, 182716, Note_on_c, 0, 74, 98
2, 182724, Control_c, 0, 64, 127
2, 182764, Note_on_c, 0, 86, 0
2, 182792, Note_on_c, 0, 77, 106
2, 182864, Note_on_c, 0, 77, 0
2, 182868, Note_on_c, 0, 79, 103
2, 182876, Note_on_c, 0, 59, 0
2, 182920, Note_on_c, 0, 65, 0
2, 182932, Note_on_c, 0, 79, 0
2, 182940, Note_on_c, 0, 67, 0
2, 182948, Note_on_c, 0, 86, 100
2, 183004, Note_on_c, 0, 74, 0
2, 183004, Note_on_c, 0, 47, 0
2, 183004, Note_on_c, 0, 74, 0
2, 183004, Note_on_c, 0, 77, 0
2, 183032, Note_on_c, 0, 74, 90
2, 183060, Note_on_c, 0, 86, 0
2, 183104, Note_on_c, 0, 74, 0
2, 183104, Note_on_c, 0, 67, 96
2, 183104, Note_on_c, 0, 60, 88
2, 183104, Note_on_c, 0, 84, 96
2, 183104, Note_on_c, 0, 72, 84
2, 183104, Note_on_c, 0, 77, 80
2, 183104, Note_on_c, 0, 48, 84
2, 183108, Note_on_c, 0, 65, 88
2, 183144, Control_c, 0, 64, 56
2, 183156, Control_c, 0, 64, 0
2, 183188, Note_on_c, 0, 72, 99
2, 183204, Control_c, 0, 64, 104
2, 183212, Control_c, 0, 64, 127
2, 183260, Note_on_c, 0, 72, 0
2, 183268, Note_on_c, 0, 77, 103
2, 183344, Note_on_c, 0, 79, 98
2, 183352, Note_on_c, 0, 77, 0
2, 183408, Note_on_c, 0, 65, 0
2, 183424, Note_on_c, 0, 84, 94
2, 183440, Note_on_c, 0, 67, 0
2, 183444, Note_on_c, 0, 79, 0
2, 183476, Note_on_c, 0, 48, 0
2, 183476, Note_on_c, 0, 84, 0
2, 183476, Note_on_c, 0, 60, 0
2, 183476, Note_on_c, 0, 72, 0
2, 183476, Note_on_c, 0, 77, 0
2, 183488, Note_on_c, 0, 72, 97
2, 183560, Note_on_c, 0, 84, 0
2, 183572, Note_on_c, 0, 72, 0
2, 183592, Note_on_c, 0, 67, 95
2, 183592, Note_on_c, 0, 83, 95
2, 183592, Note_on_c, 0, 71, 84
2, 183592, Note_on_c, 0, 77, 80
2, 183592, Note_on_c, 0, 50, 86
2, 183596, Note_on_c, 0, 65, 88
2, 183600, Note_on_c, 0, 62, 83
2, 183620, Control_c, 0, 64, 56
2, 183628, Control_c, 0, 64, 0
2, 183672, Note_on_c, 0, 71, 88
2, 183676, Control_c, 0, 64, 72
2, 183688, Control_c, 0, 64, 127
2, 183740, Note_on_c, 0, 71, 0
2, 183756, Note_on_c, 0, 77, 103
2, 183812, Note_on_c, 0, 65, 0
2, 183812, Note_on_c, 0, 67, 0
2, 183836, Note_on_c, 0, 62, 0
2, 183836, Note_on_c, 0, 79, 97
2, 183848, Note_on_c, 0, 77, 0
2, 183916, Note_on_c, 0, 83, 97
2, 183928, Note_on_c, 0, 79, 0
2, 183964, Note_on_c, 0, 83, 0
2, 183964, Note_on_c, 0, 50, 0
2, 183964, Note_on_c, 0, 77, 0
2, 183964, Note_on_c, 0, 71, 0
2, 183988, Note_on_c, 0, 71, 88
2, 184020, Control_c, 0, 64, 0
2, 184032, Note_on_c, 0, 83, 0
2, 184044, Note_on_c, 0, 51, 80
2, 184064, Note_on_c, 0, 59, 68
2, 184080, Note_on_c, 0, 51, 0
2, 184084, Control_c, 0, 64, 88
2, 184088, Note_on_c, 0, 71, 0
2, 184088, Note_on_c, 0, 66, 102
2, 184088, Note_on_c, 0, 71, 76
2, 184088, Note_on_c, 0, 81, 78
2, 184092, Control_c, 0, 64, 127
2, 184112, Note_on_c, 0, 59, 0
2, 184136, Note_on_c, 0, 66, 0
2, 184176, Note_on_c, 0, 71, 94
2, 184228, Note_on_c, 0, 71, 0
2, 184228, Note_on_c, 0, 81, 0
2, 184244, Note_on_c, 0, 78, 83
2, 184272, Note_on_c, 0, 71, 0
2, 184328, Note_on_c, 0, 78, 0
2, 184332, Note_on_c, 0, 69, 106
2, 184332, Note_on_c, 0, 81, 93
2, 184332, Note_on_c, 0, 71, 81
2, 184344, Control_c, 0, 64, 88
2, 184356, Control_c, 0, 64, 104
2, 184364, Control_c, 0, 64, 127
2, 184384, Note_on_c, 0, 69, 0
2, 184404, Note_on_c, 0, 71, 88
2, 184468, Note_on_c, 0, 81, 97
2, 184472, Note_on_c, 0, 71, 0
2, 184472, Note_on_c, 0, 81, 0
2, 184484, Note_on_c, 0, 71, 0
2, 184508, Note_on_c, 0, 52, 78
2, 184512, Control_c, 0, 64, 104
2, 184524, Control_c, 0, 64, 0
2, 184528, Note_on_c, 0, 59, 70
2, 184536, Note_on_c, 0, 81, 0
2, 184552, Note_on_c, 0, 52, 0
2, 184560, Note_on_c, 0, 59, 0
2, 184560, Note_on_c, 0, 67, 97
2, 184560, Note_on_c, 0, 64, 88
2, 184564, Control_c, 0, 64, 88
2, 184576, Control_c, 0, 64, 127
2, 184608, Note_on_c, 0, 67, 0
2, 184636, Note_on_c, 0, 71, 89
2, 184700, Note_on_c, 0, 64, 0
2, 184700, Note_on_c, 0, 79, 94
2, 184708, Note_on_c, 0, 71, 0
2, 184764, Control_c, 0, 64, 88
2, 184780, Note_on_c, 0, 79, 0
2, 184780, Control_c, 0, 64, 24
2, 184784, Note_on_c, 0, 64, 100
2, 184784, Note_on_c, 0, 67, 81
2, 184784, Note_on_c, 0, 71, 81
2, 184784, Note_on_c, 0, 79, 93
2, 184796, Control_c, 0, 64, 72
2, 184808, Control_c, 0, 64, 127
2, 184828, Note_on_c, 0, 64, 0
2, 184844, Note_on_c, 0, 67, 88
2, 184912, Note_on_c, 0, 67, 0
2, 184924, Note_on_c, 0, 79, 0
2, 184924, Note_on_c, 0, 71, 0
2, 184924, Note_on_c, 0, 67, 0
2, 184924, Note_on_c, 0, 76, 92
2, 184976, Control_c, 0, 64, 0
2, 184992, Note_on_c, 0, 47, 76
2, 184996, Note_on_c, 0, 55, 83
2, 185000, Note_on_c, 0, 76, 0
2, 185008, Note_on_c, 0, 47, 0
2, 185016, Control_c, 0, 64, 72
2, 185028, Note_on_c, 0, 62, 95
2, 185028, Note_on_c, 0, 59, 88
2, 185028, Control_c, 0, 64, 127
2, 185032, Note_on_c, 0, 55, 0
2, 185080, Note_on_c, 0, 62, 0
2, 185100, Note_on_c, 0, 67, 88
2, 185168, Note_on_c, 0, 67, 0
2, 185168, Note_on_c, 0, 59, 0
2, 185180, Note_on_c, 0, 74, 96
2, 185256, Note_on_c, 0, 74, 0
2, 185264, Note_on_c, 0, 65, 101
2, 185264, Note_on_c, 0, 77, 93
2, 185264, Note_on_c, 0, 74, 84
2, 185264, Note_on_c, 0, 67, 84
2, 185308, Note_on_c, 0, 65, 0
2, 185344, Note_on_c, 0, 67, 82
2, 185404, Note_on_c, 0, 77, 0
2, 185404, Note_on_c, 0, 67, 0
2, 185404, Note_on_c, 0, 74, 0
2, 185424, Note_on_c, 0, 77, 93
2, 185436, Note_on_c, 0, 67, 0
2, 185468, Note_on_c, 0, 55, 82
2, 185468, Note_on_c, 0, 48, 85
2, 185472, Control_c, 0, 64, 56
2, 185480, Control_c, 0, 64, 0
2, 185496, Note_on_c, 0, 48, 0
2, 185500, Note_on_c, 0, 77, 0
2, 185512, Note_on_c, 0, 55, 0
2, 185512, Note_on_c, 0, 64, 97
2, 185512, Note_on_c, 0, 60, 84
2, 185512, Control_c, 0, 64, 72
2, 185524, Control_c, 0, 64, 127
2, 185564, Note_on_c, 0, 64, 0
2, 185592, Note_on_c, 0, 67, 88
2, 185652, Note_on_c, 0, 60, 0
2, 185660, Note_on_c, 0, 67, 0
2, 185676, Note_on_c, 0, 76, 86
2, 185748, Note_on_c, 0, 60, 101
2, 185748, Note_on_c, 0, 67, 84
2, 185748, Note_on_c, 0, 72, 84
2, 185748, Note_on_c, 0, 76, 91
2, 185760, Note_on_c, 0, 76, 0
2, 185792, Note_on_c, 0, 60, 0
2, 185824, Note_on_c, 0, 64, 82
2, 185888, Note_on_c, 0, 72, 0
2, 185888, Note_on_c, 0, 76, 0
2, 185888, Note_on_c, 0, 67, 0
2, 185900, Note_on_c, 0, 64, 0
2, 185904, Note_on_c, 0, 72, 89
2, 185952, Note_on_c, 0, 41, 77
2, 185952, Control_c, 0, 64, 40
2, 185956, Note_on_c, 0, 72, 0
2, 185956, Note_on_c, 0, 48, 85
2, 185964, Control_c, 0, 64, 0
2, 185976, Note_on_c, 0, 48, 0
2, 185980, Note_on_c, 0, 41, 0
2, 185996, Note_on_c, 0, 56, 99
2, 185996, Note_on_c, 0, 53, 88
2, 185996, Control_c, 0, 64, 56
2, 186004, Control_c, 0, 64, 127
2, 186032, Note_on_c, 0, 56, 0
2, 186084, Note_on_c, 0, 60, 76
2, 186136, Note_on_c, 0, 53, 0
2, 186152, Note_on_c, 0, 68, 82
2, 186156, Note_on_c, 0, 60, 0
2, 186224, Note_on_c, 0, 57, 103
2, 186224, Note_on_c, 0, 69, 81
2, 186224, Note_on_c, 0, 72, 85
2, 186224, Note_on_c, 0, 60, 81
2, 186240, Note_on_c, 0, 68, 0
2, 186280, Note_on_c, 0, 57, 0
2, 186300, Note_on_c, 0, 60, 88
2, 186364, Note_on_c, 0, 72, 0
2, 186364, Note_on_c, 0, 60, 0
2, 186364, Note_on_c, 0, 69, 0
2, 186364, Note_on_c, 0, 69, 89
2, 186376, Note_on_c, 0, 60, 0
2, 186412, Note_on_c, 0, 69, 0
2, 186412, Note_on_c, 0, 42, 71
2, 186416, Note_on_c, 0, 50, 78
2, 186416, Control_c, 0, 64, 40
2, 186428, Control_c, 0, 64, 0
2, 186444, Note_on_c, 0, 42, 0
2, 186448, Control_c, 0, 64, 24
2, 186456, Note_on_c, 0, 50, 0
2, 186456, Control_c, 0, 64, 88
2, 186468, Control_c, 0, 64, 127
2, 186472, Note_on_c, 0, 59, 97
2, 186472, Note_on_c, 0, 54, 86
2, 186540, Note_on_c, 0, 59, 0
2, 186548, Note_on_c, 0, 62, 88
2, 186612, Note_on_c, 0, 62, 0
2, 186612, Note_on_c, 0, 54, 0
2, 186616, Note_on_c, 0, 71, 88
2, 186668, Note_on_c, 0, 71, 0
2, 186692, Note_on_c, 0, 60, 100
2, 186692, Note_on_c, 0, 72, 89
2, 186692, Note_on_c, 0, 69, 84
2, 186692, Note_on_c, 0, 62, 80
2, 186740, Note_on_c, 0, 60, 0
2, 186772, Note_on_c, 0, 60, 91
2, 186828, Note_on_c, 0, 60, 0
2, 186832, Note_on_c, 0, 62, 0
2, 186832, Note_on_c, 0, 69, 0
2, 186832, Note_on_c, 0, 72, 0
2, 186852, Note_on_c, 0, 72, 91
2, 186888, Note_on_c, 0, 43, 73
2, 186892, Note_on_c, 0, 52, 73
2, 186892, Control_c, 0, 64, 104
2, 186896, Note_on_c, 0, 72, 0
2, 186900, Control_c, 0, 64, 40
2, 186912, Note_on_c, 0, 43, 0
2, 186912, Control_c, 0, 64, 0
2, 186920, Control_c, 0, 64, 40
2, 186932, Note_on_c, 0, 52, 0
2, 186932, Control_c, 0, 64, 104
2, 186944, Control_c, 0, 64, 127
2, 186948, Note_on_c, 0, 60, 104
2, 186948, Note_on_c, 0, 55, 84
2, 186988, Note_on_c, 0, 60, 0
2, 187044, Note_on_c, 0, 60, 85
2, 187088, Note_on_c, 0, 55, 0
2, 187092, Note_on_c, 0, 60, 0
2, 187104, Note_on_c, 0, 72, 93
2, 187160, Note_on_c, 0, 72, 0
2, 187172, Note_on_c, 0, 52, 99
2, 187172, Note_on_c, 0, 64, 87
2, 187172, Note_on_c, 0, 60, 83
2, 187212, Note_on_c, 0, 52, 0
2, 187256, Note_on_c, 0, 60, 59
2, 187260, Note_on_c, 0, 59, 61
2, 187296, Note_on_c, 0, 59, 0
2, 187312, Note_on_c, 0, 64, 0
2, 187312, Note_on_c, 0, 60, 0
2, 187320, Note_on_c, 0, 60, 0
2, 187328, Note_on_c, 0, 64, 93
2, 187396, Note_on_c, 0, 64, 0
2, 187424, Control_c, 0, 64, 104
2, 187436, Control_c, 0, 64, 0
2, 187448, Note_on_c, 0, 53, 97
2, 187448, Note_on_c, 0, 67, 104
2, 187448, Note_on_c, 0, 55, 94
2, 187452, Note_on_c, 0, 62, 93
2, 187456, Note_on_c, 0, 59, 88
2, 187456, Note_on_c, 0, 43, 78
2, 187468, Note_on_c, 0, 45, 61
2, 187496, Control_c, 0, 64, 72
2, 187504, Note_on_c, 0, 62, 0
2, 187504, Control_c, 0, 64, 127
2, 187508, Note_on_c, 0, 43, 0
2, 187516, Note_on_c, 0, 53, 0
2, 187524, Note_on_c, 0, 59, 0
2, 187524, Note_on_c, 0, 45, 0
2, 187536, Note_on_c, 0, 55, 0
2, 187544, Note_on_c, 0, 67, 0
2, 187696, Note_on_c, 0, 67, 98
2, 187696, Note_on_c, 0, 47, 86
2, 187696, Note_on_c, 0, 55, 84
2, 187696, Control_c, 0, 64, 56
2, 187708, Control_c, 0, 64, 0
2, 187732, Note_on_c, 0, 55, 0
2, 187736, Note_on_c, 0, 47, 0
2, 187740, Note_on_c, 0, 67, 0
2, 187812, Note_on_c, 0, 69, 104
2, 187816, Note_on_c, 0, 57, 92
2, 187820, Note_on_c, 0, 48, 94
2, 187852, Note_on_c, 0, 57, 0
2, 187856, Note_on_c, 0, 69, 0
2, 187860, Note_on_c, 0, 48, 0
2, 187932, Note_on_c, 0, 71, 108
2, 187936, Note_on_c, 0, 59, 99
2, 187940, Control_c, 0, 64, 104
2, 187944, Note_on_c, 0, 50, 92
2, 187948, Control_c, 0, 64, 127
2, 187976, Note_on_c, 0, 59, 0
2, 187988, Note_on_c, 0, 71, 0
2, 188044, Note_on_c, 0, 50, 0
2, 188056, Note_on_c, 0, 72, 104
2, 188056, Note_on_c, 0, 60, 94
2, 188064, Note_on_c, 0, 52, 83
2, 188088, Control_c, 0, 64, 88
2, 188092, Note_on_c, 0, 60, 0
2, 188096, Note_on_c, 0, 72, 0
2, 188100, Control_c, 0, 64, 72
2, 188108, Control_c, 0, 64, 40
2, 188120, Control_c, 0, 64, 0
2, 188128, Note_on_c, 0, 52, 0
2, 188168, Note_on_c, 0, 71, 103
2, 188172, Note_on_c, 0, 59, 92
2, 188172, Note_on_c, 0, 50, 83
2, 188204, Note_on_c, 0, 59, 0
2, 188212, Note_on_c, 0, 71, 0
2, 188256, Note_on_c, 0, 50, 0
2, 188272, Note_on_c, 0, 52, 78
2, 188280, Note_on_c, 0, 72, 108
2, 188280, Note_on_c, 0, 60, 98
2, 188316, Note_on_c, 0, 60, 0
2, 188320, Note_on_c, 0, 72, 0
2, 188320, Note_on_c, 0, 52, 0
2, 188372, Control_c, 0, 64, 56
2, 188384, Note_on_c, 0, 53, 84
2, 188384, Control_c, 0, 64, 127
2, 188392, Note_on_c, 0, 74, 107
2, 188396, Note_on_c, 0, 62, 100
2, 188432, Note_on_c, 0, 62, 0
2, 188444, Note_on_c, 0, 74, 0
2, 188480, Note_on_c, 0, 53, 0
2, 188492, Control_c, 0, 64, 88
2, 188500, Control_c, 0, 64, 72
2, 188504, Note_on_c, 0, 76, 103
2, 188508, Note_on_c, 0, 64, 94
2, 188508, Note_on_c, 0, 55, 76
2, 188512, Control_c, 0, 64, 40
2, 188520, Control_c, 0, 64, 0
2, 188540, Note_on_c, 0, 64, 0
2, 188544, Note_on_c, 0, 55, 0
2, 188548, Note_on_c, 0, 76, 0
2, 188620, Note_on_c, 0, 74, 98
2, 188620, Note_on_c, 0, 53, 86
2, 188620, Note_on_c, 0, 57, 83
2, 188624, Note_on_c, 0, 62, 90
2, 188640, Note_on_c, 0, 62, 0
2, 188656, Note_on_c, 0, 74, 0
2, 188716, Note_on_c, 0, 53, 0
2, 188720, Note_on_c, 0, 55, 92
2, 188720, Note_on_c, 0, 76, 107
2, 188720, Note_on_c, 0, 59, 84
2, 188724, Note_on_c, 0, 64, 97
2, 188736, Note_on_c, 0, 55, 0
2, 188760, Note_on_c, 0, 57, 0
2, 188760, Note_on_c, 0, 64, 0
2, 188768, Note_on_c, 0, 76, 0
2, 188804, Control_c, 0, 64, 56
2, 188812, Control_c, 0, 64, 88
2, 188824, Control_c, 0, 64, 127
2, 188840, Note_on_c, 0, 57, 98
2, 188840, Note_on_c, 0, 60, 85
2, 188844, Note_on_c, 0, 77, 109
2, 188844, Note_on_c, 0, 65, 101
2, 188860, Note_on_c, 0, 59, 0
2, 188884, Note_on_c, 0, 57, 0
2, 188884, Note_on_c, 0, 65, 0
2, 188896, Note_on_c, 0, 77, 0
2, 188948, Note_on_c, 0, 59, 82
2, 188948, Note_on_c, 0, 62, 87
2, 188952, Note_on_c, 0, 79, 107
2, 188952, Note_on_c, 0, 67, 95
2, 188968, Note_on_c, 0, 59, 0
2, 188980, Note_on_c, 0, 60, 0
2, 188992, Note_on_c, 0, 67, 0
2, 188996, Control_c, 0, 64, 104
2, 189000, Note_on_c, 0, 79, 0
2, 189004, Control_c, 0, 64, 88
2, 189016, Control_c, 0, 64, 40
2, 189024, Control_c, 0, 64, 0
2, 189068, Note_on_c, 0, 60, 94
2, 189068, Note_on_c, 0, 57, 83
2, 189068, Note_on_c, 0, 77, 111
2, 189068, Note_on_c, 0, 65, 104
2, 189068, Note_on_c, 0, 55, 84
2, 189068, Note_on_c, 0, 43, 83
2, 189088, Note_on_c, 0, 60, 0
2, 189088, Note_on_c, 0, 62, 0
2, 189088, Control_c, 0, 64, 56
2, 189096, Note_on_c, 0, 57, 0
2, 189096, Control_c, 0, 64, 104
2, 189100, Note_on_c, 0, 65, 0
2, 189108, Note_on_c, 0, 77, 0
2, 189108, Control_c, 0, 64, 127
2, 189112, Note_on_c, 0, 55, 0
2, 189112, Note_on_c, 0, 43, 0
2, 189144, Control_c, 0, 64, 88
2, 189156, Control_c, 0, 64, 56
2, 189168, Control_c, 0, 64, 0
2, 189176, Note_on_c, 0, 79, 111
2, 189176, Note_on_c, 0, 67, 104
2, 189180, Note_on_c, 0, 62, 88
2, 189180, Note_on_c, 0, 59, 83
2, 189180, Note_on_c, 0, 55, 84
2, 189180, Note_on_c, 0, 43, 83
2, 189204, Note_on_c, 0, 62, 0
2, 189212, Note_on_c, 0, 59, 0
2, 189212, Note_on_c, 0, 67, 0
2, 189224, Note_on_c, 0, 79, 0
2, 189224, Note_on_c, 0, 55, 0
2, 189224, Note_on_c, 0, 43, 0
2, 189288, Control_c, 0, 64, 24
2, 189292, Note_on_c, 0, 81, 108
2, 189292, Note_on_c, 0, 64, 74
2, 189292, Note_on_c, 0, 60, 78
2, 189292, Note_on_c, 0, 69, 107
2, 189292, Note_on_c, 0, 55, 86
2, 189292, Note_on_c, 0, 43, 85
2, 189300, Control_c, 0, 64, 104
2, 189308, Control_c, 0, 64, 127
2, 189328, Note_on_c, 0, 64, 0
2, 189332, Note_on_c, 0, 69, 0
2, 189336, Note_on_c, 0, 55, 0
2, 189336, Note_on_c, 0, 60, 0
2, 189336, Note_on_c, 0, 43, 0
2, 189348, Note_on_c, 0, 81, 0
2, 189404, Note_on_c, 0, 65, 93
2, 189408, Note_on_c, 0, 83, 109
2, 189408, Note_on_c, 0, 55, 88
2, 189408, Note_on_c, 0, 43, 88
2, 189408, Control_c, 0, 64, 88
2, 189412, Note_on_c, 0, 71, 103
2, 189416, Note_on_c, 0, 62, 83
2, 189420, Control_c, 0, 64, 56
2, 189428, Control_c, 0, 64, 40
2, 189440, Control_c, 0, 64, 0
2, 189444, Note_on_c, 0, 65, 0
2, 189448, Note_on_c, 0, 71, 0
2, 189452, Note_on_c, 0, 43, 0
2, 189452, Note_on_c, 0, 55, 0
2, 189452, Note_on_c, 0, 62, 0
2, 189460, Note_on_c, 0, 83, 0
2, 189512, Note_on_c, 0, 67, 91
2, 189516, Note_on_c, 0, 64, 88
2, 189520, Note_on_c, 0, 84, 106
2, 189520, Note_on_c, 0, 55, 88
2, 189520, Note_on_c, 0, 43, 88
2, 189524, Note_on_c, 0, 72, 107
2, 189524, Note_on_c, 0, 60, 88
2, 189552, Note_on_c, 0, 64, 0
2, 189556, Note_on_c, 0, 67, 0
2, 189560, Note_on_c, 0, 72, 0
2, 189564, Note_on_c, 0, 43, 0
2, 189564, Note_on_c, 0, 55, 0
2, 189568, Note_on_c, 0, 60, 0
2, 189572, Note_on_c, 0, 84, 0
2, 189628, Note_on_c, 0, 65, 91
2, 189632, Note_on_c, 0, 67, 84
2, 189632, Note_on_c, 0, 86, 108
2, 189632, Note_on_c, 0, 55, 90
2, 189632, Note_on_c, 0, 43, 90
2, 189636, Note_on_c, 0, 74, 107
2, 189636, Note_on_c, 0, 62, 90
2, 189660, Note_on_c, 0, 67, 0
2, 189668, Note_on_c, 0, 65, 0
2, 189676, Note_on_c, 0, 55, 0
2, 189676, Note_on_c, 0, 43, 0
2, 189676, Note_on_c, 0, 74, 0
2, 189680, Note_on_c, 0, 62, 0
2, 189688, Note_on_c, 0, 86, 0
2, 189760, Note_on_c, 0, 76, 107
2, 189760, Note_on_c, 0, 64, 88
2, 189760, Note_on_c, 0, 88, 109
2, 189764, Note_on_c, 0, 67, 93
2, 189768, Note_on_c, 0, 36, 86
2, 189768, Note_on_c, 0, 48, 83
2, 189772, Control_c, 0, 64, 88
2, 189780, Control_c, 0, 64, 127
2, 189800, Note_on_c, 0, 36, 0
2, 189804, Note_on_c, 0, 64, 0
2, 189804, Note_on_c, 0, 48, 0
2, 189812, Note_on_c, 0, 76, 0
2, 189832, Note_on_c, 0, 67, 0
2, 189844, Note_on_c, 0, 88, 0
2, 189912, Note_on_c, 0, 62, 91
2, 189912, Note_on_c, 0, 74, 97
2, 189936, Note_on_c, 0, 62, 0
2, 189940, Note_on_c, 0, 74, 0
2, 190056, Note_on_c, 0, 76, 101
2, 190056, Note_on_c, 0, 64, 89
2, 190056, Note_on_c, 0, 72, 92
2, 190068, Note_on_c, 0, 60, 83
2, 190080, Note_on_c, 0, 64, 0
2, 190084, Note_on_c, 0, 72, 0
2, 190096, Note_on_c, 0, 76, 0
2, 190196, Note_on_c, 0, 60, 0
2, 190196, Note_on_c, 0, 79, 106
2, 190196, Note_on_c, 0, 67, 95
2, 190200, Note_on_c, 0, 64, 77
2, 190228, Note_on_c, 0, 67, 0
2, 190232, Note_on_c, 0, 79, 0
2, 190236, Note_on_c, 0, 64, 0
2, 190284, Control_c, 0, 64, 40
2, 190292, Control_c, 0, 64, 0
2, 190348, Note_on_c, 0, 79, 108
2, 190352, Note_on_c, 0, 67, 98
2, 190352, Note_on_c, 0, 74, 101
2, 190352, Note_on_c, 0, 55, 81
2, 190352, Note_on_c, 0, 62, 83
2, 190352, Control_c, 0, 64, 72
2, 190360, Control_c, 0, 64, 127
2, 190380, Note_on_c, 0, 55, 0
2, 190380, Note_on_c, 0, 67, 0
2, 190384, Note_on_c, 0, 74, 0
2, 190388, Note_on_c, 0, 62, 0
2, 190392, Note_on_c, 0, 79, 0
2, 190468, Control_c, 0, 64, 104
2, 190476, Control_c, 0, 64, 56
2, 190484, Control_c, 0, 64, 24
2, 190492, Control_c, 0, 64, 0
2, 190632, Note_on_c, 0, 79, 106
2, 190632, Control_c, 0, 64, 40
2, 190636, Note_on_c, 0, 67, 96
2, 190640, Note_on_c, 0, 74, 95
2, 190640, Note_on_c, 0, 62, 84
2, 190640, Control_c, 0, 64, 88
2, 190644, Note_on_c, 0, 55, 84
2, 190648, Control_c, 0, 64, 127
2, 190672, Note_on_c, 0, 62, 0
2, 190680, Note_on_c, 0, 67, 0
2, 190680, Note_on_c, 0, 79, 0
2, 190680, Note_on_c, 0, 55, 0
2, 190684, Note_on_c, 0, 74, 0
2, 190780, Control_c, 0, 64, 104
2, 190784, Control_c, 0, 64, 88
2, 190792, Control_c, 0, 64, 56
2, 190800, Control_c, 0, 64, 40
2, 190808, Control_c, 0, 64, 0
2, 190952, Note_on_c, 0, 79, 111
2, 190956, Note_on_c, 0, 67, 100
2, 190956, Note_on_c, 0, 48, 93
2, 190960, Note_on_c, 0, 36, 89
2, 190964, Note_on_c, 0, 76, 98
2, 190964, Control_c, 0, 64, 40
2, 190972, Control_c, 0, 64, 104
2, 190980, Control_c, 0, 64, 127
2, 191228, Note_on_c, 0, 79, 0
2, 191232, Note_on_c, 0, 76, 0
2, 191244, Note_on_c, 0, 67, 0
2, 191256, Note_on_c, 0, 36, 0
2, 191268, Note_on_c, 0, 48, 0
2, 191408, Note_on_c, 0, 76, 100
2, 191408, Note_on_c, 0, 36, 81
2, 191412, Note_on_c, 0, 48, 81
2, 191412, Note_on_c, 0, 72, 95
2, 191412, Note_on_c, 0, 64, 93
2, 191440, Note_on_c, 0, 72, 0
2, 191444, Note_on_c, 0, 48, 0
2, 191444, Note_on_c, 0, 36, 0
2, 191448, Note_on_c, 0, 76, 0
2, 191464, Note_on_c, 0, 64, 0
2, 191508, Control_c, 0, 64, 104
2, 191512, Control_c, 0, 64, 88
2, 191520, Control_c, 0, 64, 56
2, 191528, Control_c, 0, 64, 40
2, 191536, Control_c, 0, 64, 0
2, 191572, Note_on_c, 0, 74, 100
2, 191572, Note_on_c, 0, 62, 91
2, 191576, Note_on_c, 0, 67, 84
2, 191576, Note_on_c, 0, 71, 88
2, 191580, Note_on_c, 0, 43, 87
2, 191580, Note_on_c, 0, 55, 86
2, 191608, Control_c, 0, 64, 72
2, 191616, Control_c, 0, 64, 127
2, 191636, Note_on_c, 0, 55, 0
2, 191656, Note_on_c, 0, 67, 0
2, 191664, Note_on_c, 0, 71, 0
2, 191664, Note_on_c, 0, 43, 0
2, 191664, Note_on_c, 0, 74, 0
2, 191688, Note_on_c, 0, 62, 0
2, 191772, Control_c, 0, 64, 104
2, 191780, Control_c, 0, 64, 72
2, 191784, Control_c, 0, 64, 56
2, 191792, Control_c, 0, 64, 24
2, 191800, Control_c, 0, 64, 0
2, 191860, Note_on_c, 0, 72, 104
2, 191860, Note_on_c, 0, 64, 93
2, 191860, Note_on_c, 0, 60, 93
2, 191864, Note_on_c, 0, 43, 88
2, 191864, Note_on_c, 0, 55, 86
2, 191892, Note_on_c, 0, 60, 0
2, 191892, Note_on_c, 0, 64, 0
2, 191900, Note_on_c, 0, 55, 0
2, 191900, Note_on_c, 0, 43, 0
2, 191908, Note_on_c, 0, 72, 0
2, 192004, Note_on_c, 0, 74, 104
2, 192004, Note_on_c, 0, 62, 93
2, 192008, Note_on_c, 0, 65, 93
2, 192008, Note_on_c, 0, 55, 91
2, 192012, Note_on_c, 0, 43, 83
2, 192032, Note_on_c, 0, 55, 0
2, 192036, Note_on_c, 0, 65, 0
2, 192036, Note_on_c, 0, 62, 0
2, 192044, Note_on_c, 0, 43, 0
2, 192052, Note_on_c, 0, 74, 0
2, 192164, Note_on_c, 0, 76, 104
2, 192168, Note_on_c, 0, 67, 93
2, 192168, Note_on_c, 0, 64, 91
2, 192172, Note_on_c, 0, 36, 81
2, 192172, Control_c, 0, 64, 24
2, 192176, Note_on_c, 0, 48, 92
2, 192180, Control_c, 0, 64, 88
2, 192188, Control_c, 0, 64, 127
2, 192228, Note_on_c, 0, 64, 0
2, 192228, Note_on_c, 0, 76, 0
2, 192248, Note_on_c, 0, 36, 0
2, 192264, Note_on_c, 0, 48, 0
2, 192300, Note_on_c, 0, 67, 0
2, 192320, Note_on_c, 0, 62, 92
2, 192320, Note_on_c, 0, 74, 98
2, 192348, Note_on_c, 0, 62, 0
2, 192360, Note_on_c, 0, 74, 0
2, 192456, Note_on_c, 0, 76, 103
2, 192456, Note_on_c, 0, 67, 87
2, 192456, Note_on_c, 0, 64, 89
2, 192460, Control_c, 0, 64, 88
2, 192464, Note_on_c, 0, 60, 85
2, 192468, Control_c, 0, 64, 56
2, 192476, Note_on_c, 0, 67, 0
2, 192476, Control_c, 0, 64, 40
2, 192480, Note_on_c, 0, 64, 0
2, 192484, Control_c, 0, 64, 24
2, 192492, Control_c, 0, 64, 0
2, 192500, Note_on_c, 0, 76, 0
2, 192568, Note_on_c, 0, 60, 0
2, 192600, Note_on_c, 0, 79, 103
2, 192608, Note_on_c, 0, 76, 93
2, 192608, Note_on_c, 0, 67, 89
2, 192612, Note_on_c, 0, 64, 83
2, 192644, Note_on_c, 0, 67, 0
2, 192644, Note_on_c, 0, 76, 0
2, 192648, Note_on_c, 0, 64, 0
2, 192652, Note_on_c, 0, 79, 0
2, 192756, Note_on_c, 0, 79, 104
2, 192760, Note_on_c, 0, 74, 98
2, 192760, Note_on_c, 0, 67, 93
2, 192760, Note_on_c, 0, 55, 81
2, 192760, Control_c, 0, 64, 40
2, 192764, Note_on_c, 0, 62, 79
2, 192768, Control_c, 0, 64, 104
2, 192776, Control_c, 0, 64, 127
2, 192800, Note_on_c, 0, 62, 0
2, 192800, Note_on_c, 0, 67, 0
2, 192800, Note_on_c, 0, 55, 0
2, 192808, Note_on_c, 0, 74, 0
2, 192812, Note_on_c, 0, 79, 0
2, 192892, Control_c, 0, 64, 104
2, 192900, Control_c, 0, 64, 72
2, 192908, Control_c, 0, 64, 56
2, 192916, Control_c, 0, 64, 24
2, 192924, Control_c, 0, 64, 0
2, 193056, Note_on_c, 0, 79, 104
2, 193060, Note_on_c, 0, 67, 93
2, 193064, Note_on_c, 0, 74, 97
2, 193064, Note_on_c, 0, 62, 83
2, 193064, Note_on_c, 0, 55, 83
2, 193064, Control_c, 0, 64, 72
2, 193072, Control_c, 0, 64, 127
2, 193100, Note_on_c, 0, 67, 0
2, 193104, Note_on_c, 0, 55, 0
2, 193108, Note_on_c, 0, 62, 0
2, 193108, Note_on_c, 0, 74, 0
2, 193112, Note_on_c, 0, 79, 0
2, 193196, Control_c, 0, 64, 104
2, 193204, Control_c, 0, 64, 88
2, 193212, Control_c, 0, 64, 56
2, 193216, Control_c, 0, 64, 40
2, 193228, Control_c, 0, 64, 24
2, 193236, Control_c, 0, 64, 0
2, 193380, Note_on_c, 0, 79, 108
2, 193384, Note_on_c, 0, 67, 97
2, 193384, Note_on_c, 0, 76, 99
2, 193388, Note_on_c, 0, 36, 86
2, 193388, Note_on_c, 0, 48, 92
2, 193396, Control_c, 0, 64, 24
2, 193404, Control_c, 0, 64, 104
2, 193412, Control_c, 0, 64, 127
2, 193644, Note_on_c, 0, 79, 0
2, 193656, Note_on_c, 0, 76, 0
2, 193668, Note_on_c, 0, 67, 0
2, 193708, Note_on_c, 0, 48, 0
2, 193712, Note_on_c, 0, 36, 0
2, 193844, Note_on_c, 0, 76, 100
2, 193848, Note_on_c, 0, 36, 83
2, 193848, Note_on_c, 0, 64, 93
2, 193848, Note_on_c, 0, 72, 97
2, 193848, Note_on_c, 0, 48, 88
2, 193872, Note_on_c, 0, 36, 0
2, 193876, Note_on_c, 0, 48, 0
2, 193884, Note_on_c, 0, 72, 0
2, 193888, Note_on_c, 0, 64, 0
2, 193888, Note_on_c, 0, 76, 0
2, 193960, Control_c, 0, 64, 104
2, 193968, Control_c, 0, 64, 88
2, 193980, Control_c, 0, 64, 72
2, 193984, Control_c, 0, 64, 56
2, 193992, Control_c, 0, 64, 24
2, 194000, Control_c, 0, 64, 0
2, 194004, Note_on_c, 0, 74, 101
2, 194008, Note_on_c, 0, 71, 92
2, 194012, Note_on_c, 0, 62, 93
2, 194016, Note_on_c, 0, 55, 90
2, 194020, Note_on_c, 0, 43, 88
2, 194064, Control_c, 0, 64, 72
2, 194072, Control_c, 0, 64, 127
2, 194084, Note_on_c, 0, 62, 0
2, 194116, Note_on_c, 0, 43, 0
2, 194116, Note_on_c, 0, 71, 0
2, 194124, Note_on_c, 0, 74, 0
2, 194132, Note_on_c, 0, 55, 0
2, 194296, Control_c, 0, 64, 104
2, 194304, Control_c, 0, 64, 56
2, 194312, Control_c, 0, 64, 24
2, 194316, Note_on_c, 0, 67, 100
2, 194320, Control_c, 0, 64, 0
2, 194324, Note_on_c, 0, 43, 83
2, 194356, Control_c, 0, 64, 56
2, 194364, Control_c, 0, 64, 127
2, 194416, Note_on_c, 0, 67, 0
2, 194448, Note_on_c, 0, 79, 106
2, 194448, Note_on_c, 0, 55, 83
2, 194456, Note_on_c, 0, 43, 0
2, 194480, Note_on_c, 0, 55, 0
2, 194496, Note_on_c, 0, 79, 0
2, 194560, Control_c, 0, 64, 104
2, 194568, Control_c, 0, 64, 72
2, 194576, Note_on_c, 0, 48, 86
2, 194576, Control_c, 0, 64, 24
2, 194584, Control_c, 0, 64, 0
2, 194592, Note_on_c, 0, 55, 69
2, 194628, Note_on_c, 0, 79, 109
2, 194628, Note_on_c, 0, 67, 99
2, 194628, Control_c, 0, 64, 72
2, 194632, Note_on_c, 0, 76, 95
2, 194636, Note_on_c, 0, 64, 78
2, 194636, Control_c, 0, 64, 127
2, 194668, Note_on_c, 0, 64, 0
2, 194840, Note_on_c, 0, 76, 0
2, 194916, Note_on_c, 0, 55, 78
2, 194916, Note_on_c, 0, 60, 83
2, 194952, Note_on_c, 0, 60, 0
2, 194960, Note_on_c, 0, 55, 0
2, 194984, Note_on_c, 0, 64, 76
2, 195032, Note_on_c, 0, 64, 0
2, 195052, Note_on_c, 0, 76, 98
2, 195056, Note_on_c, 0, 55, 0
2, 195060, Note_on_c, 0, 60, 79
2, 195060, Note_on_c, 0, 55, 78
2, 195084, Note_on_c, 0, 67, 0
2, 195092, Note_on_c, 0, 60, 0
2, 195100, Note_on_c, 0, 55, 0
2, 195116, Note_on_c, 0, 64, 78
2, 195148, Note_on_c, 0, 79, 0
2, 195164, Note_on_c, 0, 64, 0
2, 195168, Note_on_c, 0, 76, 0
2, 195188, Note_on_c, 0, 72, 104
2, 195200, Note_on_c, 0, 60, 84
2, 195200, Note_on_c, 0, 55, 84
2, 195236, Note_on_c, 0, 60, 0
2, 195240, Note_on_c, 0, 55, 0
2, 195260, Note_on_c, 0, 64, 78
2, 195336, Note_on_c, 0, 64, 0
2, 195336, Note_on_c, 0, 60, 83
2, 195340, Note_on_c, 0, 48, 0
2, 195344, Note_on_c, 0, 55, 75
2, 195384, Note_on_c, 0, 55, 0
2, 195384, Note_on_c, 0, 60, 0
2, 195412, Note_on_c, 0, 64, 79
2, 195476, Note_on_c, 0, 55, 79
2, 195492, Note_on_c, 0, 64, 0
2, 195520, Note_on_c, 0, 55, 0
2, 195636, Note_on_c, 0, 72, 0
2, 195644, Note_on_c, 0, 76, 101
2, 195648, Note_on_c, 0, 48, 82
2, 195688, Note_on_c, 0, 48, 0
2, 195696, Note_on_c, 0, 76, 0
2, 195720, Control_c, 0, 64, 72
2, 195728, Control_c, 0, 64, 0
2, 195768, Note_on_c, 0, 45, 83
2, 195792, Note_on_c, 0, 52, 79
2, 195804, Control_c, 0, 64, 127
2, 195828, Note_on_c, 0, 81, 107
2, 195836, Note_on_c, 0, 76, 97
2, 195836, Note_on_c, 0, 69, 93
2, 195836, Note_on_c, 0, 73, 88
2, 195836, Note_on_c, 0, 61, 80
2, 195860, Note_on_c, 0, 61, 0
2, 196112, Note_on_c, 0, 76, 0
2, 196132, Note_on_c, 0, 52, 77
2, 196136, Note_on_c, 0, 57, 76
2, 196152, Note_on_c, 0, 73, 0
2, 196176, Note_on_c, 0, 52, 0
2, 196176, Note_on_c, 0, 57, 0
2, 196212, Note_on_c, 0, 61, 76
2, 196264, Note_on_c, 0, 61, 0
2, 196272, Note_on_c, 0, 81, 0
2, 196272, Note_on_c, 0, 76, 103
2, 196288, Note_on_c, 0, 52, 78
2, 196292, Note_on_c, 0, 57, 76
2, 196328, Note_on_c, 0, 57, 0
2, 196328, Note_on_c, 0, 52, 0
2, 196344, Note_on_c, 0, 61, 77
2, 196392, Note_on_c, 0, 61, 0
2, 196408, Note_on_c, 0, 76, 0
2, 196420, Note_on_c, 0, 73, 93
2, 196424, Note_on_c, 0, 52, 84
2, 196428, Note_on_c, 0, 57, 78
2, 196476, Note_on_c, 0, 57, 0
2, 196476, Note_on_c, 0, 52, 0
2, 196484, Note_on_c, 0, 61, 76
2, 196536, Note_on_c, 0, 61, 0
2, 196568, Note_on_c, 0, 45, 0
2, 196568, Note_on_c, 0, 52, 80
2, 196572, Note_on_c, 0, 57, 76
2, 196612, Note_on_c, 0, 52, 0
2, 196612, Note_on_c, 0, 52, 0
2, 196616, Note_on_c, 0, 57, 0
2, 196628, Note_on_c, 0, 61, 76
2, 196708, Note_on_c, 0, 61, 0
2, 196720, Note_on_c, 0, 52, 80
2, 196720, Note_on_c, 0, 57, 77
2, 196756, Note_on_c, 0, 52, 0
2, 196760, Note_on_c, 0, 57, 0
2, 196864, Note_on_c, 0, 73, 0
2, 196872, Note_on_c, 0, 76, 103
2, 196888, Note_on_c, 0, 45, 78
2, 196900, Note_on_c, 0, 69, 0
2, 196920, Note_on_c, 0, 76, 0
2, 196940, Note_on_c, 0, 45, 0
2, 196960, Control_c, 0, 64, 56
2, 196968, Control_c, 0, 64, 0
2, 196996, Note_on_c, 0, 41, 85
2, 197004, Note_on_c, 0, 48, 83
2, 197036, Control_c, 0, 64, 104
2, 197044, Control_c, 0, 64, 127
2, 197048, Note_on_c, 0, 57, 82
2, 197052, Note_on_c, 0, 81, 106
2, 197056, Note_on_c, 0, 69, 98
2, 197060, Note_on_c, 0, 72, 99
2, 197060, Note_on_c, 0, 77, 95
2, 197080, Note_on_c, 0, 57, 0
2, 197144, Note_on_c, 0, 77, 0
2, 197336, Note_on_c, 0, 48, 78
2, 197344, Note_on_c, 0, 53, 76
2, 197380, Note_on_c, 0, 48, 0
2, 197384, Note_on_c, 0, 53, 0
2, 197420, Note_on_c, 0, 57, 76
2, 197468, Note_on_c, 0, 57, 0
2, 197468, Note_on_c, 0, 81, 0
2, 197472, Note_on_c, 0, 72, 0
2, 197488, Note_on_c, 0, 69, 0
2, 197488, Note_on_c, 0, 77, 101
2, 197492, Note_on_c, 0, 53, 78
2, 197492, Note_on_c, 0, 48, 78
2, 197524, Note_on_c, 0, 53, 0
2, 197540, Note_on_c, 0, 48, 0
2, 197556, Note_on_c, 0, 57, 76
2, 197604, Note_on_c, 0, 57, 0
2, 197624, Note_on_c, 0, 77, 0
2, 197632, Note_on_c, 0, 72, 103
2, 197636, Note_on_c, 0, 48, 78
2, 197640, Note_on_c, 0, 53, 78
2, 197668, Note_on_c, 0, 53, 0
2, 197684, Note_on_c, 0, 48, 0
2, 197696, Note_on_c, 0, 57, 77
2, 197776, Note_on_c, 0, 57, 0
2, 197776, Note_on_c, 0, 53, 79
2, 197776, Note_on_c, 0, 48, 79
2, 197812, Note_on_c, 0, 41, 0
2, 197816, Note_on_c, 0, 53, 0
2, 197820, Note_on_c, 0, 48, 0
2, 197824, Note_on_c, 0, 48, 0
2, 197844, Note_on_c, 0, 57, 77
2, 197916, Note_on_c, 0, 53, 88
2, 197924, Note_on_c, 0, 57, 0
2, 197924, Note_on_c, 0, 48, 78
2, 197940, Note_on_c, 0, 53, 0
2, 197952, Note_on_c, 0, 48, 0
2, 198068, Note_on_c, 0, 72, 0
2, 198072, Note_on_c, 0, 77, 103
2, 198072, Note_on_c, 0, 41, 79
2, 198092, Note_on_c, 0, 41, 0
2, 198112, Note_on_c, 0, 77, 0
2, 198144, Control_c, 0, 64, 104
2, 198152, Control_c, 0, 64, 0
2, 198196, Note_on_c, 0, 42, 85
2, 198216, Note_on_c, 0, 50, 83
2, 198248, Note_on_c, 0, 84, 111
2, 198248, Control_c, 0, 64, 104
2, 198252, Note_on_c, 0, 74, 98
2, 198252, Note_on_c, 0, 72, 103
2, 198252, Note_on_c, 0, 57, 88
2, 198256, Note_on_c, 0, 81, 95
2, 198256, Control_c, 0, 64, 127
2, 198280, Note_on_c, 0, 57, 0
2, 198536, Note_on_c, 0, 57, 78
2, 198536, Note_on_c, 0, 50, 76
2, 198580, Note_on_c, 0, 57, 0
2, 198584, Note_on_c, 0, 81, 0
2, 198592, Note_on_c, 0, 50, 0
2, 198608, Note_on_c, 0, 60, 78
2, 198660, Note_on_c, 0, 60, 0
2, 198676, Note_on_c, 0, 72, 0
2, 198684, Note_on_c, 0, 74, 0
2, 198684, Note_on_c, 0, 81, 99
2, 198696, Note_on_c, 0, 57, 76
2, 198696, Note_on_c, 0, 50, 78
2, 198704, Note_on_c, 0, 84, 0
2, 198740, Note_on_c, 0, 57, 0
2, 198744, Note_on_c, 0, 50, 0
2, 198756, Note_on_c, 0, 60, 77
2, 198804, Note_on_c, 0, 60, 0
2, 198832, Note_on_c, 0, 81, 0
2, 198836, Note_on_c, 0, 74, 99
2, 198840, Note_on_c, 0, 57, 77
2, 198844, Note_on_c, 0, 50, 79
2, 198884, Note_on_c, 0, 57, 0
2, 198888, Note_on_c, 0, 50, 0
2, 198896, Note_on_c, 0, 60, 78
2, 198956, Note_on_c, 0, 60, 0
2, 198972, Note_on_c, 0, 57, 77
2, 198976, Note_on_c, 0, 50, 78
2, 199000, Note_on_c, 0, 42, 0
2, 199024, Note_on_c, 0, 57, 0
2, 199024, Note_on_c, 0, 50, 0
2, 199028, Note_on_c, 0, 50, 0
2, 199028, Note_on_c, 0, 60, 83
2, 199096, Note_on_c, 0, 60, 0
2, 199108, Note_on_c, 0, 57, 84
2, 199116, Note_on_c, 0, 50, 78
2, 199132, Note_on_c, 0, 57, 0
2, 199148, Note_on_c, 0, 50, 0
2, 199264, Note_on_c, 0, 81, 99
2, 199264, Note_on_c, 0, 42, 85
2, 199292, Note_on_c, 0, 74, 0
2, 199300, Note_on_c, 0, 42, 0
2, 199304, Note_on_c, 0, 81, 0
2, 199408, Control_c, 0, 64, 88
2, 199416, Control_c, 0, 64, 0
2, 199424, Note_on_c, 0, 43, 88
2, 199440, Note_on_c, 0, 84, 111
2, 199444, Note_on_c, 0, 72, 103
2, 199444, Note_on_c, 0, 79, 98
2, 199444, Note_on_c, 0, 76, 96
2, 199444, Note_on_c, 0, 52, 78
2, 199468, Control_c, 0, 64, 88
2, 199480, Note_on_c, 0, 60, 87
2, 199480, Control_c, 0, 64, 127
2, 199496, Note_on_c, 0, 60, 0
2, 199528, Note_on_c, 0, 76, 0
2, 199532, Note_on_c, 0, 79, 0
2, 199708, Note_on_c, 0, 84, 0
2, 199720, Note_on_c, 0, 72, 0
2, 199728, Note_on_c, 0, 76, 103
2, 199776, Note_on_c, 0, 76, 0
2, 199836, Note_on_c, 0, 43, 0
2, 199884, Note_on_c, 0, 52, 0
2, 199888, Control_c, 0, 64, 104
2, 199896, Control_c, 0, 64, 56
2, 199904, Control_c, 0, 64, 0
2, 200012, Control_c, 0, 64, 56
2, 200020, Control_c, 0, 64, 127
2, 200024, Note_on_c, 0, 81, 104
2, 200024, Note_on_c, 0, 78, 91
2, 200024, Note_on_c, 0, 69, 95
2, 200024, Note_on_c, 0, 75, 87
2, 200028, Note_on_c, 0, 51, 80
2, 200032, Note_on_c, 0, 60, 86
2, 200032, Note_on_c, 0, 54, 81
2, 200064, Note_on_c, 0, 51, 0
2, 200080, Note_on_c, 0, 75, 0
2, 200092, Note_on_c, 0, 78, 0
2, 200228, Note_on_c, 0, 81, 0
2, 200304, Note_on_c, 0, 69, 0
2, 200332, Note_on_c, 0, 78, 100
2, 200344, Control_c, 0, 64, 72
2, 200352, Control_c, 0, 64, 24
2, 200360, Control_c, 0, 64, 0
2, 200400, Control_c, 0, 64, 24
2, 200408, Control_c, 0, 64, 40
2, 200416, Control_c, 0, 64, 56
2, 200420, Control_c, 0, 64, 72
2, 200428, Control_c, 0, 64, 88
2, 200476, Control_c, 0, 64, 104
2, 200528, Control_c, 0, 64, 88
2, 200540, Control_c, 0, 64, 72
2, 200548, Control_c, 0, 64, 56
2, 200560, Control_c, 0, 64, 40
2, 200576, Control_c, 0, 64, 24
2, 200592, Control_c, 0, 64, 0
2, 200620, Note_on_c, 0, 79, 106
2, 200624, Note_on_c, 0, 65, 84
2, 200628, Note_on_c, 0, 74, 92
2, 200628, Note_on_c, 0, 67, 94
2, 200628, Note_on_c, 0, 72, 93
2, 200632, Note_on_c, 0, 43, 88
2, 200632, Note_on_c, 0, 55, 83
2, 200656, Control_c, 0, 64, 56
2, 200664, Control_c, 0, 64, 127
2, 200692, Note_on_c, 0, 67, 0
2, 200712, Note_on_c, 0, 74, 0
2, 200740, Note_on_c, 0, 72, 0
2, 200832, Note_on_c, 0, 60, 0
2, 200836, Note_on_c, 0, 54, 0
2, 200952, Note_on_c, 0, 65, 0
2, 200952, Note_on_c, 0, 74, 103
2, 200956, Note_on_c, 0, 79, 0
2, 201020, Note_on_c, 0, 74, 0
2, 201216, Note_on_c, 0, 78, 0
2, 201228, Control_c, 0, 64, 104
2, 201236, Control_c, 0, 64, 88
2, 201244, Note_on_c, 0, 77, 103
2, 201244, Control_c, 0, 64, 56
2, 201252, Note_on_c, 0, 65, 84
2, 201252, Control_c, 0, 64, 0
2, 201256, Note_on_c, 0, 55, 75
2, 201256, Note_on_c, 0, 71, 81
2, 201256, Note_on_c, 0, 62, 72
2, 201312, Control_c, 0, 64, 56
2, 201320, Control_c, 0, 64, 127
2, 201404, Note_on_c, 0, 55, 0
2, 201408, Note_on_c, 0, 65, 0
2, 201436, Note_on_c, 0, 43, 0
2, 201436, Note_on_c, 0, 55, 0
2, 201444, Note_on_c, 0, 62, 0
2, 201492, Note_on_c, 0, 77, 0
2, 201540, Note_on_c, 0, 71, 0
2, 201568, Note_on_c, 0, 67, 92
2, 201568, Note_on_c, 0, 55, 82
2, 201708, Note_on_c, 0, 67, 0
2, 201712, Note_on_c, 0, 74, 98
2, 201716, Note_on_c, 0, 55, 0
2, 201716, Note_on_c, 0, 62, 76
2, 201756, Note_on_c, 0, 62, 0
2, 201764, Note_on_c, 0, 74, 0
2, 201772, Control_c, 0, 64, 88
2, 201780, Control_c, 0, 64, 56
2, 201788, Control_c, 0, 64, 0
2, 201848, Control_c, 0, 64, 56
2, 201856, Control_c, 0, 64, 127
2, 201860, Note_on_c, 0, 76, 103
2, 201860, Note_on_c, 0, 64, 78
2, 201868, Note_on_c, 0, 60, 73
2, 201868, Note_on_c, 0, 72, 83
2, 201868, Note_on_c, 0, 67, 78
2, 201888, Note_on_c, 0, 72, 0
2, 201952, Note_on_c, 0, 67, 0
2, 201956, Note_on_c, 0, 64, 0
2, 201964, Note_on_c, 0, 60, 0
2, 201964, Note_on_c, 0, 76, 0
2, 202008, Note_on_c, 0, 74, 95
2, 202012, Note_on_c, 0, 67, 76
2, 202016, Note_on_c, 0, 62, 74
2, 202020, Note_on_c, 0, 55, 72
2, 202040, Control_c, 0, 64, 88
2, 202044, Note_on_c, 0, 55, 0
2, 202048, Control_c, 0, 64, 56
2, 202052, Note_on_c, 0, 67, 0
2, 202056, Control_c, 0, 64, 40
2, 202060, Note_on_c, 0, 62, 0
2, 202064, Control_c, 0, 64, 0
2, 202088, Note_on_c, 0, 74, 0
2, 202152, Note_on_c, 0, 76, 98
2, 202152, Control_c, 0, 64, 40
2, 202156, Note_on_c, 0, 67, 88
2, 202160, Note_on_c, 0, 64, 74
2, 202160, Note_on_c, 0, 60, 79
2, 202160, Control_c, 0, 64, 104
2, 202164, Control_c, 0, 64, 127
2, 202192, Note_on_c, 0, 60, 0
2, 202196, Note_on_c, 0, 67, 0
2, 202204, Note_on_c, 0, 64, 0
2, 202212, Note_on_c, 0, 76, 0
2, 202304, Note_on_c, 0, 79, 98
2, 202304, Note_on_c, 0, 67, 92
2, 202308, Note_on_c, 0, 76, 88
2, 202312, Note_on_c, 0, 64, 73
2, 202324, Note_on_c, 0, 64, 0
2, 202344, Note_on_c, 0, 76, 0
2, 202344, Note_on_c, 0, 67, 0
2, 202348, Note_on_c, 0, 79, 0
2, 202360, Control_c, 0, 64, 104
2, 202368, Control_c, 0, 64, 56
2, 202376, Control_c, 0, 64, 24
2, 202380, Control_c, 0, 64, 0
2, 202468, Note_on_c, 0, 79, 103
2, 202472, Note_on_c, 0, 67, 97
2, 202476, Note_on_c, 0, 74, 92
2, 202476, Note_on_c, 0, 55, 81
2, 202480, Note_on_c, 0, 62, 83
2, 202484, Control_c, 0, 64, 24
2, 202492, Control_c, 0, 64, 88
2, 202500, Control_c, 0, 64, 127
2, 202524, Note_on_c, 0, 55, 0
2, 202528, Note_on_c, 0, 62, 0
2, 202540, Note_on_c, 0, 67, 0
2, 202568, Note_on_c, 0, 74, 0
2, 202568, Note_on_c, 0, 79, 0
2, 202732, Control_c, 0, 64, 72
2, 202740, Control_c, 0, 64, 24
2, 202744, Control_c, 0, 64, 0
2, 202760, Note_on_c, 0, 79, 98
2, 202764, Note_on_c, 0, 67, 85
2, 202764, Note_on_c, 0, 74, 88
2, 202768, Note_on_c, 0, 55, 90
2, 202784, Control_c, 0, 64, 40
2, 202792, Control_c, 0, 64, 104
2, 202800, Control_c, 0, 64, 127
2, 202808, Note_on_c, 0, 55, 0
2, 202824, Note_on_c, 0, 67, 0
2, 202836, Note_on_c, 0, 74, 0
2, 202836, Note_on_c, 0, 79, 0
2, 202912, Note_on_c, 0, 62, 83
2, 202916, Note_on_c, 0, 55, 84
2, 202952, Note_on_c, 0, 55, 0
2, 202960, Note_on_c, 0, 62, 0
2, 203008, Control_c, 0, 64, 104
2, 203016, Control_c, 0, 64, 72
2, 203024, Control_c, 0, 64, 40
2, 203032, Control_c, 0, 64, 0
2, 203076, Note_on_c, 0, 79, 101
2, 203080, Note_on_c, 0, 67, 93
2, 203084, Note_on_c, 0, 76, 93
2, 203084, Note_on_c, 0, 64, 78
2, 203084, Note_on_c, 0, 60, 79
2, 203088, Control_c, 0, 64, 56
2, 203096, Control_c, 0, 64, 127
2, 203132, Note_on_c, 0, 60, 0
2, 203160, Note_on_c, 0, 64, 0
2, 203228, Note_on_c, 0, 62, 81
2, 203232, Note_on_c, 0, 55, 79
2, 203280, Note_on_c, 0, 62, 0
2, 203292, Note_on_c, 0, 55, 0
2, 203352, Note_on_c, 0, 67, 0
2, 203356, Control_c, 0, 64, 104
2, 203360, Note_on_c, 0, 64, 80
2, 203360, Note_on_c, 0, 60, 80
2, 203364, Control_c, 0, 64, 56
2, 203372, Control_c, 0, 64, 0
2, 203376, Note_on_c, 0, 76, 0
2, 203400, Note_on_c, 0, 60, 0
2, 203404, Note_on_c, 0, 64, 0
2, 203404, Control_c, 0, 64, 24
2, 203412, Control_c, 0, 64, 72
2, 203420, Control_c, 0, 64, 127
2, 203452, Note_on_c, 0, 79, 0
2, 203516, Note_on_c, 0, 67, 80
2, 203516, Note_on_c, 0, 76, 99
2, 203520, Note_on_c, 0, 64, 79
2, 203524, Note_on_c, 0, 72, 88
2, 203556, Note_on_c, 0, 67, 0
2, 203560, Note_on_c, 0, 64, 0
2, 203564, Note_on_c, 0, 72, 0
2, 203576, Note_on_c, 0, 76, 0
2, 203644, Control_c, 0, 64, 104
2, 203652, Control_c, 0, 64, 72
2, 203660, Control_c, 0, 64, 24
2, 203668, Control_c, 0, 64, 0
2, 203676, Note_on_c, 0, 74, 104
2, 203680, Note_on_c, 0, 71, 88
2, 203684, Note_on_c, 0, 67, 83
2, 203684, Note_on_c, 0, 62, 79
2, 203688, Note_on_c, 0, 55, 74
2, 203716, Control_c, 0, 64, 56
2, 203724, Control_c, 0, 64, 127
2, 203776, Note_on_c, 0, 71, 0
2, 203780, Note_on_c, 0, 55, 0
2, 203780, Note_on_c, 0, 67, 0
2, 203784, Note_on_c, 0, 62, 0
2, 203880, Note_on_c, 0, 74, 0
2, 203900, Control_c, 0, 64, 88
2, 203908, Control_c, 0, 64, 72
2, 203916, Control_c, 0, 64, 40
2, 203924, Control_c, 0, 64, 24
2, 203932, Control_c, 0, 64, 0
2, 203984, Note_on_c, 0, 67, 92
2, 203988, Note_on_c, 0, 55, 83
2, 203992, Control_c, 0, 64, 24
2, 204000, Control_c, 0, 64, 88
2, 204008, Control_c, 0, 64, 127
2, 204024, Note_on_c, 0, 55, 0
2, 204052, Note_on_c, 0, 67, 0
2, 204140, Note_on_c, 0, 74, 97
2, 204144, Note_on_c, 0, 67, 83
2, 204144, Note_on_c, 0, 62, 79
2, 204148, Note_on_c, 0, 55, 81
2, 204172, Note_on_c, 0, 67, 0
2, 204176, Note_on_c, 0, 55, 0
2, 204184, Note_on_c, 0, 62, 0
2, 204200, Note_on_c, 0, 74, 0
2, 204216, Control_c, 0, 64, 104
2, 204224, Control_c, 0, 64, 72
2, 204232, Control_c, 0, 64, 40
2, 204236, Control_c, 0, 64, 0
2, 204280, Note_on_c, 0, 76, 99
2, 204280, Control_c, 0, 64, 56
2, 204284, Note_on_c, 0, 64, 77
2, 204284, Note_on_c, 0, 67, 81
2, 204284, Note_on_c, 0, 72, 88
2, 204288, Note_on_c, 0, 60, 79
2, 204288, Control_c, 0, 64, 127
2, 204352, Note_on_c, 0, 72, 0
2, 204404, Note_on_c, 0, 64, 0
2, 204404, Note_on_c, 0, 60, 0
2, 204416, Note_on_c, 0, 67, 0
2, 204420, Note_on_c, 0, 76, 0
2, 204424, Note_on_c, 0, 62, 81
2, 204428, Note_on_c, 0, 74, 91
2, 204440, Note_on_c, 0, 55, 81
2, 204448, Note_on_c, 0, 67, 80
2, 204468, Note_on_c, 0, 62, 0
2, 204484, Note_on_c, 0, 55, 0
2, 204488, Note_on_c, 0, 74, 0
2, 204488, Note_on_c, 0, 67, 0
2, 204528, Control_c, 0, 64, 104
2, 204536, Control_c, 0, 64, 56
2, 204544, Control_c, 0, 64, 0
2, 204568, Note_on_c, 0, 76, 99
2, 204572, Note_on_c, 0, 64, 80
2, 204572, Note_on_c, 0, 67, 83
2, 204576, Note_on_c, 0, 60, 80
2, 204576, Note_on_c, 0, 72, 83
2, 204576, Control_c, 0, 64, 40
2, 204580, Control_c, 0, 64, 88
2, 204588, Control_c, 0, 64, 127
2, 204592, Note_on_c, 0, 72, 0
2, 204604, Note_on_c, 0, 60, 0
2, 204608, Note_on_c, 0, 67, 0
2, 204608, Note_on_c, 0, 64, 0
2, 204628, Note_on_c, 0, 76, 0
2, 204668, Control_c, 0, 64, 88
2, 204676, Control_c, 0, 64, 56
2, 204684, Control_c, 0, 64, 24
2, 204692, Control_c, 0, 64, 0
2, 204708, Control_c, 0, 64, 56
2, 204712, Control_c, 0, 64, 104
2, 204716, Note_on_c, 0, 64, 84
2, 204720, Note_on_c, 0, 79, 96
2, 204720, Control_c, 0, 64, 127
2, 204724, Note_on_c, 0, 67, 76
2, 204728, Note_on_c, 0, 76, 88
2, 204740, Note_on_c, 0, 64, 0
2, 204764, Note_on_c, 0, 67, 0
2, 204768, Note_on_c, 0, 79, 0
2, 204768, Note_on_c, 0, 76, 0
2, 204784, Control_c, 0, 64, 104
2, 204792, Control_c, 0, 64, 72
2, 204800, Control_c, 0, 64, 40
2, 204808, Control_c, 0, 64, 24
2, 204812, Control_c, 0, 64, 0
2, 204876, Control_c, 0, 64, 40
2, 204880, Note_on_c, 0, 79, 103
2, 204880, Note_on_c, 0, 67, 97
2, 204884, Note_on_c, 0, 74, 93
2, 204884, Control_c, 0, 64, 104
2, 204888, Note_on_c, 0, 55, 81
2, 204888, Note_on_c, 0, 62, 83
2, 204892, Control_c, 0, 64, 127
2, 204920, Note_on_c, 0, 62, 0
2, 204920, Note_on_c, 0, 67, 0
2, 204920, Note_on_c, 0, 55, 0
2, 204932, Note_on_c, 0, 74, 0
2, 204936, Note_on_c, 0, 79, 0
2, 205064, Control_c, 0, 64, 88
2, 205072, Control_c, 0, 64, 72
2, 205080, Control_c, 0, 64, 40
2, 205084, Control_c, 0, 64, 24
2, 205092, Control_c, 0, 64, 0
2, 205164, Control_c, 0, 64, 40
2, 205172, Note_on_c, 0, 79, 97
2, 205172, Control_c, 0, 64, 104
2, 205176, Note_on_c, 0, 67, 84
2, 205176, Note_on_c, 0, 74, 89
2, 205176, Note_on_c, 0, 55, 85
2, 205180, Note_on_c, 0, 62, 87
2, 205180, Control_c, 0, 64, 127
2, 205216, Note_on_c, 0, 55, 0
2, 205224, Note_on_c, 0, 62, 0
2, 205228, Note_on_c, 0, 67, 0
2, 205236, Note_on_c, 0, 74, 0
2, 205240, Note_on_c, 0, 79, 0
2, 205320, Note_on_c, 0, 55, 88
2, 205376, Note_on_c, 0, 55, 0
2, 205404, Control_c, 0, 64, 88
2, 205412, Control_c, 0, 64, 56
2, 205420, Control_c, 0, 64, 40
2, 205428, Control_c, 0, 64, 0
2, 205476, Note_on_c, 0, 79, 99
2, 205480, Note_on_c, 0, 67, 96
2, 205480, Control_c, 0, 64, 56
2, 205484, Note_on_c, 0, 76, 94
2, 205484, Note_on_c, 0, 64, 78
2, 205488, Note_on_c, 0, 60, 77
2, 205488, Control_c, 0, 64, 127
2, 205536, Note_on_c, 0, 60, 0
2, 205544, Note_on_c, 0, 64, 0
2, 205624, Note_on_c, 0, 62, 78
2, 205628, Note_on_c, 0, 55, 79
2, 205672, Note_on_c, 0, 62, 0
2, 205700, Note_on_c, 0, 55, 0
2, 205756, Note_on_c, 0, 67, 0
2, 205760, Note_on_c, 0, 64, 80
2, 205764, Note_on_c, 0, 60, 81
2, 205788, Note_on_c, 0, 76, 0
2, 205792, Control_c, 0, 64, 88
2, 205796, Note_on_c, 0, 60, 0
2, 205796, Note_on_c, 0, 64, 0
2, 205800, Control_c, 0, 64, 56
2, 205808, Control_c, 0, 64, 24
2, 205812, Control_c, 0, 64, 0
2, 205848, Note_on_c, 0, 79, 0
2, 205868, Control_c, 0, 64, 40
2, 205876, Control_c, 0, 64, 88
2, 205884, Control_c, 0, 64, 127
2, 205920, Note_on_c, 0, 67, 78
2, 205920, Note_on_c, 0, 64, 78
2, 205920, Note_on_c, 0, 76, 96
2, 205924, Note_on_c, 0, 72, 87
2, 205952, Note_on_c, 0, 72, 0
2, 205956, Note_on_c, 0, 64, 0
2, 205964, Note_on_c, 0, 67, 0
2, 205976, Note_on_c, 0, 76, 0
2, 206044, Control_c, 0, 64, 88
2, 206052, Control_c, 0, 64, 56
2, 206060, Control_c, 0, 64, 40
2, 206068, Control_c, 0, 64, 0
2, 206084, Note_on_c, 0, 74, 104
2, 206088, Note_on_c, 0, 71, 89
2, 206092, Note_on_c, 0, 67, 78
2, 206092, Note_on_c, 0, 62, 80
2, 206096, Note_on_c, 0, 55, 80
2, 206116, Control_c, 0, 64, 56
2, 206124, Control_c, 0, 64, 127
2, 206200, Note_on_c, 0, 67, 0
2, 206212, Note_on_c, 0, 62, 0
2, 206228, Note_on_c, 0, 55, 0
2, 206300, Note_on_c, 0, 71, 0
2, 206396, Note_on_c, 0, 74, 0
2, 206404, Note_on_c, 0, 67, 95
2, 206408, Note_on_c, 0, 55, 82
2, 206448, Note_on_c, 0, 67, 0
2, 206528, Note_on_c, 0, 55, 0
2, 206536, Note_on_c, 0, 67, 82
2, 206548, Note_on_c, 0, 79, 98
2, 206564, Note_on_c, 0, 67, 0
2, 206604, Note_on_c, 0, 79, 0
2, 206664, Control_c, 0, 64, 104
2, 206672, Control_c, 0, 64, 72
2, 206676, Note_on_c, 0, 48, 88
2, 206680, Control_c, 0, 64, 40
2, 206688, Control_c, 0, 64, 0
2, 206696, Note_on_c, 0, 55, 80
2, 206716, Note_on_c, 0, 79, 101
2, 206720, Note_on_c, 0, 67, 92
2, 206720, Note_on_c, 0, 76, 93
2, 206724, Note_on_c, 0, 72, 90
2, 206724, Note_on_c, 0, 64, 70
2, 206764, Control_c, 0, 64, 40
2, 206776, Control_c, 0, 64, 104
2, 206780, Control_c, 0, 64, 127
2, 207008, Note_on_c, 0, 76, 0
2, 207008, Note_on_c, 0, 79, 0
2, 207032, Note_on_c, 0, 72, 0
2, 207132, Note_on_c, 0, 48, 0
2, 207144, Note_on_c, 0, 55, 0
2, 207160, Note_on_c, 0, 67, 0
2, 207168, Note_on_c, 0, 76, 98
2, 207172, Note_on_c, 0, 64, 0
2, 207232, Note_on_c, 0, 76, 0
2, 207324, Note_on_c, 0, 72, 99
2, 207332, Note_on_c, 0, 67, 79
2, 207752, Note_on_c, 0, 67, 0
2, 207764, Note_on_c, 0, 64, 74
2, 207768, Note_on_c, 0, 76, 94
2, 207780, Note_on_c, 0, 72, 0
2, 207788, Note_on_c, 0, 64, 0
2, 207812, Note_on_c, 0, 76, 0
2, 207924, Note_on_c, 0, 76, 97
2, 207928, Note_on_c, 0, 67, 78
2, 207932, Note_on_c, 0, 64, 78
2, 207940, Note_on_c, 0, 48, 80
2, 207940, Note_on_c, 0, 60, 72
2, 207940, Note_on_c, 0, 55, 69
2, 207980, Control_c, 0, 64, 88
2, 207988, Control_c, 0, 64, 56
2, 207996, Control_c, 0, 64, 0
2, 208052, Control_c, 0, 64, 24
2, 208060, Control_c, 0, 64, 88
2, 208068, Control_c, 0, 64, 127
2, 208368, Note_on_c, 0, 55, 0
2, 208368, Note_on_c, 0, 76, 0
2, 208372, Note_on_c, 0, 64, 0
2, 208376, Note_on_c, 0, 67, 0
2, 208376, Note_on_c, 0, 48, 0
2, 208380, Note_on_c, 0, 72, 94
2, 208400, Note_on_c, 0, 60, 0
2, 208512, Note_on_c, 0, 72, 0
2, 208544, Note_on_c, 0, 67, 86
2, 208556, Note_on_c, 0, 64, 76
2, 208988, Note_on_c, 0, 72, 88
2, 208996, Note_on_c, 0, 60, 77
2, 209000, Note_on_c, 0, 67, 0
2, 209008, Note_on_c, 0, 64, 0
2, 209016, Note_on_c, 0, 60, 0
2, 209032, Note_on_c, 0, 72, 0
2, 209164, Note_on_c, 0, 72, 88
2, 209168, Note_on_c, 0, 60, 74
2, 209172, Note_on_c, 0, 64, 74
2, 209180, Note_on_c, 0, 55, 58
2, 209184, Note_on_c, 0, 48, 68
2, 209228, Control_c, 0, 64, 72
2, 209236, Control_c, 0, 64, 40
2, 209244, Control_c, 0, 64, 0
2, 209292, Control_c, 0, 64, 72
2, 209300, Control_c, 0, 64, 127
2, 209348, Note_on_c, 0, 60, 0
2, 209560, Note_on_c, 0, 64, 0
2, 209572, Note_on_c, 0, 72, 0
2, 209604, Note_on_c, 0, 67, 81
2, 209728, Note_on_c, 0, 67, 0
2, 209744, Note_on_c, 0, 55, 0
2, 209744, Note_on_c, 0, 64, 77
2, 209756, Note_on_c, 0, 60, 73
2, 210192, Note_on_c, 0, 67, 83
2, 210200, Note_on_c, 0, 64, 0
2, 210208, Note_on_c, 0, 60, 0
2, 210212, Note_on_c, 0, 55, 61
2, 210228, Note_on_c, 0, 48, 0
2, 210232, Note_on_c, 0, 67, 0
2, 210252, Note_on_c, 0, 55, 0
2, 210360, Note_on_c, 0, 67, 85
2, 210368, Note_on_c, 0, 60, 73
2, 210372, Note_on_c, 0, 52, 67
2, 210376, Note_on_c, 0, 48, 63
2, 210420, Control_c, 0, 64, 104
2, 210428, Control_c, 0, 64, 72
2, 210436, Control_c, 0, 64, 24
2, 210444, Control_c, 0, 64, 0
2, 210500, Control_c, 0, 64, 72
2, 210508, Control_c, 0, 64, 127
2, 210768, Note_on_c, 0, 67, 0
2, 210788, Note_on_c, 0, 60, 0
2, 210796, Note_on_c, 0, 64, 78
2, 210952, Note_on_c, 0, 64, 0
2, 210952, Note_on_c, 0, 52, 0
2, 210960, Note_on_c, 0, 60, 82
2, 210968, Note_on_c, 0, 55, 63
2, 211024, Control_c, 0, 64, 104
2, 211032, Control_c, 0, 64, 72
2, 211040, Control_c, 0, 64, 24
2, 211048, Control_c, 0, 64, 0
2, 211088, Control_c, 0, 64, 40
2, 211096, Control_c, 0, 64, 104
2, 211104, Control_c, 0, 64, 127
2, 211424, Note_on_c, 0, 64, 78
2, 211424, Note_on_c, 0, 52, 64
2, 211432, Note_on_c, 0, 48, 0
2, 211468, Note_on_c, 0, 52, 0
2, 211472, Note_on_c, 0, 64, 0
2, 211488, Note_on_c, 0, 55, 0
2, 211492, Note_on_c, 0, 60, 0
2, 211580, Control_c, 0, 64, 0
2, 211596, Note_on_c, 0, 67, 80
2, 211596, Note_on_c, 0, 60, 68
2, 211596, Note_on_c, 0, 48, 68
2, 211596, Note_on_c, 0, 63, 65
2, 211648, Control_c, 0, 64, 88
2, 211652, Control_c, 0, 64, 40
2, 211660, Control_c, 0, 64, 0
2, 211724, Control_c, 0, 64, 72
2, 211732, Control_c, 0, 64, 127
2, 211900, Note_on_c, 0, 63, 0
2, 211996, Note_on_c, 0, 67, 0
2, 212000, Note_on_c, 0, 60, 0
2, 212016, Note_on_c, 0, 63, 71
2, 212188, Note_on_c, 0, 63, 0
2, 212188, Note_on_c, 0, 60, 68
2, 212188, Note_on_c, 0, 55, 65
2, 212352, Note_on_c, 0, 48, 0
2, 212628, Note_on_c, 0, 51, 63
2, 212632, Note_on_c, 0, 63, 68
2, 212796, Note_on_c, 0, 51, 0
2, 212796, Note_on_c, 0, 48, 65
2, 212796, Note_on_c, 0, 67, 76
2, 212816, Note_on_c, 0, 63, 0
2, 212868, Control_c, 0, 64, 104
2, 212876, Control_c, 0, 64, 56
2, 212884, Control_c, 0, 64, 0
2, 212940, Control_c, 0, 64, 40
2, 212944, Control_c, 0, 64, 88
2, 212952, Control_c, 0, 64, 127
2, 213244, Note_on_c, 0, 60, 0
2, 213248, Note_on_c, 0, 63, 65
2, 213248, Note_on_c, 0, 51, 63
2, 213260, Note_on_c, 0, 67, 0
2, 213268, Note_on_c, 0, 55, 0
2, 213408, Note_on_c, 0, 60, 63
2, 213408, Note_on_c, 0, 55, 63
2, 213412, Note_on_c, 0, 63, 0
2, 213488, Note_on_c, 0, 51, 0
2, 213860, Note_on_c, 0, 63, 71
2, 213884, Note_on_c, 0, 51, 74
2, 213912, Note_on_c, 0, 48, 0
2, 214004, Note_on_c, 0, 55, 0
2, 214052, Note_on_c, 0, 60, 0
2, 214060, Note_on_c, 0, 68, 79
2, 214060, Note_on_c, 0, 48, 71
2, 214080, Note_on_c, 0, 63, 0
2, 214104, Note_on_c, 0, 51, 0
2, 214156, Control_c, 0, 64, 72
2, 214160, Control_c, 0, 64, 24
2, 214168, Control_c, 0, 64, 0
2, 214232, Control_c, 0, 64, 40
2, 214240, Control_c, 0, 64, 104
2, 214248, Control_c, 0, 64, 127
2, 214472, Note_on_c, 0, 51, 61
2, 214472, Note_on_c, 0, 63, 63
2, 214648, Note_on_c, 0, 68, 0
2, 214656, Note_on_c, 0, 60, 62
2, 214656, Note_on_c, 0, 56, 59
2, 214660, Note_on_c, 0, 63, 0
2, 214680, Note_on_c, 0, 51, 0
2, 215040, Note_on_c, 0, 48, 0
2, 215064, Note_on_c, 0, 63, 63
2, 215064, Note_on_c, 0, 51, 61
2, 215144, Note_on_c, 0, 60, 0
2, 215204, Note_on_c, 0, 51, 0
2, 215228, Note_on_c, 0, 68, 73
2, 215228, Note_on_c, 0, 48, 61
2, 215236, Note_on_c, 0, 56, 0
2, 215244, Note_on_c, 0, 63, 0
2, 215308, Control_c, 0, 64, 72
2, 215316, Control_c, 0, 64, 24
2, 215324, Control_c, 0, 64, 0
2, 215376, Control_c, 0, 64, 56
2, 215384, Control_c, 0, 64, 127
2, 215660, Note_on_c, 0, 63, 64
2, 215660, Note_on_c, 0, 51, 59
2, 215788, Note_on_c, 0, 68, 0
2, 215824, Note_on_c, 0, 63, 0
2, 215832, Note_on_c, 0, 60, 62
2, 215832, Note_on_c, 0, 56, 59
2, 215856, Note_on_c, 0, 51, 0
2, 216264, Note_on_c, 0, 63, 62
2, 216264, Note_on_c, 0, 51, 62
2, 216264, Control_c, 0, 64, 127
2, 216332, Control_c, 0, 64, 88
2, 216340, Control_c, 0, 64, 40
2, 216344, Control_c, 0, 64, 127
2, 216412, Note_on_c, 0, 63, 0
2, 216412, Note_on_c, 0, 48, 0
2, 216416, Note_on_c, 0, 51, 0
2, 216424, Note_on_c, 0, 60, 0
2, 216432, Note_on_c, 0, 56, 0
2, 216644, Note_on_c, 0, 72, 79
2, 216644, Note_on_c, 0, 44, 60
2, 216644, Note_on_c, 0, 68, 54
2, 216644, Note_on_c, 0, 56, 55
2, 216860, Note_on_c, 0, 51, 55
2, 216980, Note_on_c, 0, 51, 0
2, 217016, Note_on_c, 0, 56, 62
2, 217028, Note_on_c, 0, 68, 0
2, 217028, Note_on_c, 0, 56, 0
2, 217128, Note_on_c, 0, 56, 0
2, 217164, Note_on_c, 0, 60, 66
2, 217264, Note_on_c, 0, 60, 0
2, 217300, Note_on_c, 0, 63, 66
2, 217348, Note_on_c, 0, 72, 0
2, 217452, Note_on_c, 0, 63, 0
2, 217460, Note_on_c, 0, 68, 57
2, 217572, Note_on_c, 0, 44, 0
2, 217604, Note_on_c, 0, 68, 0
2, 217620, Note_on_c, 0, 70, 78
2, 217620, Note_on_c, 0, 72, 64
2, 217720, Note_on_c, 0, 72, 0
2, 217772, Note_on_c, 0, 68, 63
2, 217904, Note_on_c, 0, 68, 0
2, 217912, Note_on_c, 0, 63, 58
2, 218020, Note_on_c, 0, 63, 0
2, 218120, Note_on_c, 0, 60, 60
2, 218240, Note_on_c, 0, 60, 0
2, 218252, Note_on_c, 0, 56, 62
2, 218332, Note_on_c, 0, 68, 82
2, 218352, Note_on_c, 0, 70, 0
2, 218416, Note_on_c, 0, 56, 0
2, 218456, Note_on_c, 0, 51, 59
2, 218504, Note_on_c, 0, 68, 0
2, 218640, Note_on_c, 0, 68, 82
2, 218664, Note_on_c, 0, 51, 0
2, 218664, Note_on_c, 0, 44, 61
2, 218688, Control_c, 0, 64, 40
2, 218704, Control_c, 0, 64, 0
2, 218784, Control_c, 0, 64, 40
2, 218796, Control_c, 0, 64, 127
2, 218840, Note_on_c, 0, 51, 66
2, 218968, Note_on_c, 0, 51, 0
2, 218992, Note_on_c, 0, 56, 68
2, 219048, Note_on_c, 0, 68, 0
2, 219104, Note_on_c, 0, 56, 0
2, 219132, Note_on_c, 0, 60, 69
2, 219252, Note_on_c, 0, 60, 0
2, 219272, Note_on_c, 0, 63, 68
2, 219388, Note_on_c, 0, 63, 0
2, 219404, Note_on_c, 0, 68, 68
2, 219556, Note_on_c, 0, 68, 0
2, 219576, Note_on_c, 0, 72, 69
2, 219604, Note_on_c, 0, 44, 0
2, 219668, Note_on_c, 0, 72, 0
2, 219716, Note_on_c, 0, 68, 68
2, 219876, Note_on_c, 0, 63, 62
2, 219880, Note_on_c, 0, 68, 0
2, 219944, Note_on_c, 0, 63, 0
2, 220068, Note_on_c, 0, 68, 77
2, 220068, Note_on_c, 0, 60, 63
2, 220180, Note_on_c, 0, 60, 0
2, 220252, Note_on_c, 0, 68, 0
2, 220256, Note_on_c, 0, 70, 87
2, 220256, Note_on_c, 0, 56, 62
2, 220372, Note_on_c, 0, 56, 0
2, 220436, Note_on_c, 0, 70, 0
2, 220444, Note_on_c, 0, 72, 89
2, 220444, Note_on_c, 0, 51, 66
2, 220620, Note_on_c, 0, 51, 0
2, 220684, Note_on_c, 0, 75, 93
2, 220684, Note_on_c, 0, 44, 70
2, 220684, Control_c, 0, 64, 0
2, 220756, Note_on_c, 0, 72, 0
2, 220792, Control_c, 0, 64, 72
2, 220808, Control_c, 0, 64, 127
2, 220864, Note_on_c, 0, 53, 66
2, 221008, Note_on_c, 0, 56, 61
2, 221052, Note_on_c, 0, 75, 0
2, 221164, Note_on_c, 0, 61, 61
2, 221304, Note_on_c, 0, 65, 64
2, 221312, Note_on_c, 0, 61, 0
2, 221320, Note_on_c, 0, 53, 0
2, 221404, Note_on_c, 0, 56, 0
2, 221440, Note_on_c, 0, 68, 70
2, 221452, Note_on_c, 0, 65, 0
2, 221588, Note_on_c, 0, 73, 81
2, 221592, Note_on_c, 0, 68, 0
2, 221740, Note_on_c, 0, 68, 63
2, 221836, Note_on_c, 0, 44, 0
2, 221884, Note_on_c, 0, 65, 61
2, 221972, Note_on_c, 0, 68, 0
2, 221996, Note_on_c, 0, 73, 0
2, 222024, Note_on_c, 0, 61, 59
2, 222044, Note_on_c, 0, 65, 0
2, 222144, Note_on_c, 0, 56, 59
2, 222160, Note_on_c, 0, 61, 0
2, 222296, Note_on_c, 0, 56, 0
2, 222304, Note_on_c, 0, 53, 63
2, 222432, Note_on_c, 0, 53, 0
2, 222468, Note_on_c, 0, 44, 66
2, 222468, Note_on_c, 0, 56, 64
2, 222468, Note_on_c, 0, 63, 76
2, 222468, Note_on_c, 0, 53, 65
2, 222508, Control_c, 0, 64, 104
2, 222528, Control_c, 0, 64, 72
2, 222544, Control_c, 0, 64, 88
2, 222560, Control_c, 0, 64, 127
2, 222620, Note_on_c, 0, 53, 68
2, 222640, Note_on_c, 0, 44, 0
2, 222760, Note_on_c, 0, 56, 62
2, 222844, Note_on_c, 0, 53, 0
2, 222844, Note_on_c, 0, 53, 0
2, 222852, Note_on_c, 0, 56, 0
2, 222852, Note_on_c, 0, 63, 0
2, 222852, Note_on_c, 0, 56, 0
2, 222908, Note_on_c, 0, 61, 64
2, 223040, Note_on_c, 0, 61, 0
2, 223064, Note_on_c, 0, 65, 63
2, 223184, Note_on_c, 0, 65, 0
2, 223196, Note_on_c, 0, 68, 68
2, 223336, Note_on_c, 0, 68, 0
2, 223344, Note_on_c, 0, 73, 67
2, 223344, Note_on_c, 0, 61, 68
2, 223484, Note_on_c, 0, 68, 68
2, 223504, Note_on_c, 0, 73, 0
2, 223636, Note_on_c, 0, 68, 0
2, 223636, Note_on_c, 0, 65, 66
2, 223728, Note_on_c, 0, 61, 0
2, 223756, Note_on_c, 0, 65, 0
2, 223780, Note_on_c, 0, 61, 55
2, 223840, Note_on_c, 0, 61, 0
2, 223924, Note_on_c, 0, 56, 50
2, 224096, Note_on_c, 0, 56, 0
2, 224124, Note_on_c, 0, 53, 56
2, 224260, Note_on_c, 0, 53, 0
2, 224312, Note_on_c, 0, 44, 63
2, 224356, Note_on_c, 0, 73, 87
2, 224384, Control_c, 0, 64, 56
2, 224404, Control_c, 0, 64, 0
2, 224508, Control_c, 0, 64, 88
2, 224524, Control_c, 0, 64, 127
2, 224528, Note_on_c, 0, 53, 64
2, 224532, Note_on_c, 0, 44, 0
2, 224668, Note_on_c, 0, 58, 68
2, 224808, Note_on_c, 0, 61, 66
2, 224948, Note_on_c, 0, 61, 0
2, 224948, Note_on_c, 0, 65, 75
2, 225064, Note_on_c, 0, 65, 0
2, 225076, Note_on_c, 0, 70, 80
2, 225204, Note_on_c, 0, 70, 0
2, 225208, Note_on_c, 0, 73, 73
2, 225208, Note_on_c, 0, 72, 89
2, 225252, Note_on_c, 0, 73, 0
2, 225304, Note_on_c, 0, 53, 0
2, 225348, Note_on_c, 0, 70, 74
2, 225372, Note_on_c, 0, 73, 0
2, 225476, Note_on_c, 0, 70, 0
2, 225492, Note_on_c, 0, 65, 74
2, 225544, Note_on_c, 0, 58, 0
2, 225616, Note_on_c, 0, 65, 0
2, 225624, Note_on_c, 0, 61, 65
2, 225716, Note_on_c, 0, 61, 0
2, 225768, Note_on_c, 0, 58, 58
2, 225812, Note_on_c, 0, 70, 83
2, 225816, Note_on_c, 0, 72, 0
2, 225916, Note_on_c, 0, 58, 0
2, 225940, Note_on_c, 0, 53, 66
2, 226016, Note_on_c, 0, 70, 0
2, 226072, Note_on_c, 0, 53, 0
2, 226088, Note_on_c, 0, 70, 80
2, 226100, Note_on_c, 0, 44, 68
2, 226152, Control_c, 0, 64, 88
2, 226168, Control_c, 0, 64, 24
2, 226184, Control_c, 0, 64, 0
2, 226248, Control_c, 0, 64, 56
2, 226256, Note_on_c, 0, 44, 0
2, 226260, Control_c, 0, 64, 127
2, 226268, Note_on_c, 0, 53, 69
2, 226408, Note_on_c, 0, 58, 67
2, 226552, Note_on_c, 0, 61, 64
2, 226688, Note_on_c, 0, 65, 71
2, 226704, Note_on_c, 0, 61, 0
2, 226804, Note_on_c, 0, 65, 0
2, 226816, Note_on_c, 0, 70, 74
2, 226944, Note_on_c, 0, 70, 0
2, 226960, Note_on_c, 0, 73, 75
2, 226988, Note_on_c, 0, 53, 0
2, 227056, Note_on_c, 0, 73, 0
2, 227080, Note_on_c, 0, 58, 0
2, 227108, Note_on_c, 0, 70, 74
2, 227216, Note_on_c, 0, 70, 0
2, 227248, Note_on_c, 0, 65, 73
2, 227280, Note_on_c, 0, 70, 0
2, 227384, Note_on_c, 0, 65, 0
2, 227388, Note_on_c, 0, 61, 63
2, 227388, Note_on_c, 0, 70, 82
2, 227500, Note_on_c, 0, 61, 0
2, 227560, Note_on_c, 0, 58, 53
2, 227560, Note_on_c, 0, 72, 86
2, 227584, Note_on_c, 0, 70, 0
2, 227732, Note_on_c, 0, 72, 0
2, 227732, Note_on_c, 0, 58, 0
2, 227748, Note_on_c, 0, 53, 61
2, 227748, Note_on_c, 0, 73, 88
2, 227848, Note_on_c, 0, 53, 0
2, 227972, Control_c, 0, 64, 104
2, 227976, Note_on_c, 0, 44, 67
2, 227980, Control_c, 0, 64, 24
2, 228004, Note_on_c, 0, 73, 0
2, 228016, Note_on_c, 0, 44, 64
2, 228016, Note_on_c, 0, 77, 90
2, 228080, Control_c, 0, 64, 104
2, 228096, Control_c, 0, 64, 0
2, 228188, Note_on_c, 0, 44, 0
2, 228188, Control_c, 0, 64, 88
2, 228204, Control_c, 0, 64, 127
2, 228212, Note_on_c, 0, 51, 57
2, 228368, Note_on_c, 0, 55, 62
2, 228404, Note_on_c, 0, 44, 0
2, 228484, Note_on_c, 0, 58, 62
2, 228624, Note_on_c, 0, 61, 61
2, 228732, Note_on_c, 0, 63, 72
2, 228768, Note_on_c, 0, 61, 0
2, 228832, Note_on_c, 0, 63, 0
2, 228860, Note_on_c, 0, 67, 71
2, 228996, Note_on_c, 0, 70, 73
2, 228996, Note_on_c, 0, 75, 80
2, 229008, Note_on_c, 0, 67, 0
2, 229076, Note_on_c, 0, 77, 0
2, 229096, Note_on_c, 0, 70, 0
2, 229132, Note_on_c, 0, 67, 72
2, 229192, Note_on_c, 0, 55, 0
2, 229244, Note_on_c, 0, 67, 0
2, 229264, Note_on_c, 0, 63, 72
2, 229276, Note_on_c, 0, 51, 0
2, 229376, Note_on_c, 0, 63, 0
2, 229384, Note_on_c, 0, 58, 0
2, 229388, Note_on_c, 0, 61, 68
2, 229472, Note_on_c, 0, 75, 0
2, 229512, Note_on_c, 0, 61, 0
2, 229540, Note_on_c, 0, 58, 57
2, 229704, Note_on_c, 0, 58, 0
2, 229708, Note_on_c, 0, 55, 61
2, 229804, Note_on_c, 0, 55, 0
2, 229840, Note_on_c, 0, 51, 61
2, 229968, Note_on_c, 0, 51, 0
2, 229988, Note_on_c, 0, 44, 63
2, 229988, Note_on_c, 0, 65, 79
2, 229988, Note_on_c, 0, 58, 64
2, 230020, Control_c, 0, 64, 72
2, 230032, Control_c, 0, 64, 0
2, 230124, Control_c, 0, 64, 127
2, 230128, Note_on_c, 0, 44, 0
2, 230136, Note_on_c, 0, 51, 67
2, 230308, Note_on_c, 0, 55, 61
2, 230420, Note_on_c, 0, 58, 54
2, 230536, Note_on_c, 0, 61, 66
2, 230656, Note_on_c, 0, 63, 68
2, 230696, Note_on_c, 0, 61, 0
2, 230756, Note_on_c, 0, 63, 0
2, 230792, Note_on_c, 0, 67, 68
2, 230860, Note_on_c, 0, 65, 0
2, 230924, Note_on_c, 0, 67, 0
2, 230924, Note_on_c, 0, 70, 66
2, 230924, Note_on_c, 0, 63, 74
2, 231016, Note_on_c, 0, 70, 0
2, 231060, Note_on_c, 0, 67, 68
2, 231064, Note_on_c, 0, 55, 0
2, 231148, Note_on_c, 0, 51, 0
2, 231184, Note_on_c, 0, 67, 0
2, 231208, Note_on_c, 0, 63, 67
2, 231328, Note_on_c, 0, 63, 0
2, 231336, Note_on_c, 0, 61, 66
2, 231424, Note_on_c, 0, 61, 0
2, 231456, Note_on_c, 0, 58, 0
2, 231456, Note_on_c, 0, 58, 0
2, 231480, Note_on_c, 0, 58, 65
2, 231640, Note_on_c, 0, 55, 65
2, 231648, Note_on_c, 0, 58, 0
2, 231728, Note_on_c, 0, 63, 0
2, 231740, Note_on_c, 0, 55, 0
2, 231776, Note_on_c, 0, 51, 66
2, 231952, Note_on_c, 0, 51, 0
2, 231980, Note_on_c, 0, 44, 68
2, 232016, Control_c, 0, 64, 72
2, 232032, Control_c, 0, 64, 0
2, 232088, Note_on_c, 0, 44, 0
2, 232108, Control_c, 0, 64, 56
2, 232124, Control_c, 0, 64, 127
2, 232128, Note_on_c, 0, 51, 62
2, 232268, Note_on_c, 0, 55, 62
2, 232292, Note_on_c, 0, 51, 0
2, 232332, Note_on_c, 0, 55, 0
2, 232380, Note_on_c, 0, 58, 62
2, 232512, Note_on_c, 0, 61, 58
2, 232540, Note_on_c, 0, 58, 0
2, 232604, Note_on_c, 0, 61, 0
2, 232628, Note_on_c, 0, 63, 59
2, 232724, Note_on_c, 0, 63, 0
2, 232736, Note_on_c, 0, 70, 86
2, 232920, Note_on_c, 0, 70, 0
2, 232952, Note_on_c, 0, 73, 89
2, 233108, Note_on_c, 0, 73, 0
2, 233120, Note_on_c, 0, 67, 72
2, 233228, Note_on_c, 0, 67, 0
2, 233240, Note_on_c, 0, 63, 65
2, 233360, Note_on_c, 0, 63, 0
2, 233380, Note_on_c, 0, 61, 61
2, 233456, Note_on_c, 0, 61, 0
2, 233504, Note_on_c, 0, 58, 68
2, 233640, Note_on_c, 0, 58, 0
2, 233664, Note_on_c, 0, 55, 65
2, 233748, Note_on_c, 0, 55, 0
2, 233780, Note_on_c, 0, 51, 65
2, 233940, Note_on_c, 0, 51, 0
2, 233956, Note_on_c, 0, 44, 72
2, 233996, Control_c, 0, 64, 40
2, 234012, Control_c, 0, 64, 0
2, 234100, Note_on_c, 0, 44, 0
2, 234108, Note_on_c, 0, 51, 68
2, 234108, Control_c, 0, 64, 127
2, 234252, Note_on_c, 0, 51, 0
2, 234260, Note_on_c, 0, 56, 69
2, 234384, Note_on_c, 0, 60, 70
2, 234512, Note_on_c, 0, 60, 0
2, 234520, Note_on_c, 0, 72, 89
2, 234520, Note_on_c, 0, 63, 67
2, 234536, Note_on_c, 0, 56, 0
2, 234664, Note_on_c, 0, 68, 72
2, 234684, Note_on_c, 0, 72, 0
2, 234812, Note_on_c, 0, 63, 0
2, 234864, Note_on_c, 0, 70, 90
2, 234896, Note_on_c, 0, 46, 66
2, 234900, Note_on_c, 0, 68, 0
2, 234908, Note_on_c, 0, 46, 58
2, 234912, Control_c, 0, 64, 88
2, 234928, Control_c, 0, 64, 0
2, 235020, Control_c, 0, 64, 127
2, 235044, Note_on_c, 0, 46, 0
2, 235044, Note_on_c, 0, 46, 0
2, 235060, Note_on_c, 0, 50, 71
2, 235180, Note_on_c, 0, 50, 0
2, 235208, Note_on_c, 0, 56, 68
2, 235364, Note_on_c, 0, 62, 69
2, 235464, Note_on_c, 0, 62, 0
2, 235492, Note_on_c, 0, 56, 0
2, 235512, Note_on_c, 0, 65, 75
2, 235520, Note_on_c, 0, 70, 0
2, 235672, Note_on_c, 0, 68, 83
2, 235680, Note_on_c, 0, 65, 0
2, 235904, Note_on_c, 0, 68, 0
2, 235916, Note_on_c, 0, 67, 84
2, 235952, Control_c, 0, 64, 104
2, 235956, Note_on_c, 0, 39, 69
2, 235968, Control_c, 0, 64, 24
2, 235984, Control_c, 0, 64, 0
2, 236104, Control_c, 0, 64, 88
2, 236120, Control_c, 0, 64, 127
2, 236132, Note_on_c, 0, 46, 62
2, 236248, Note_on_c, 0, 46, 0
2, 236280, Note_on_c, 0, 51, 68
2, 236364, Note_on_c, 0, 39, 0
2, 236376, Note_on_c, 0, 51, 0
2, 236408, Note_on_c, 0, 55, 67
2, 236496, Note_on_c, 0, 55, 0
2, 236540, Note_on_c, 0, 58, 71
2, 236668, Note_on_c, 0, 67, 0
2, 236688, Note_on_c, 0, 68, 83
2, 236688, Note_on_c, 0, 63, 70
2, 236868, Note_on_c, 0, 63, 0
2, 236904, Note_on_c, 0, 70, 82
2, 236904, Note_on_c, 0, 67, 73
2, 236924, Control_c, 0, 64, 72
2, 236936, Note_on_c, 0, 68, 0
2, 236940, Control_c, 0, 64, 0
2, 236988, Control_c, 0, 64, 56
2, 237004, Control_c, 0, 64, 127
2, 237024, Note_on_c, 0, 58, 0
2, 237064, Note_on_c, 0, 67, 0
2, 237076, Note_on_c, 0, 63, 68
2, 237224, Note_on_c, 0, 63, 0
2, 237224, Note_on_c, 0, 58, 68
2, 237300, Note_on_c, 0, 58, 0
2, 237384, Note_on_c, 0, 55, 70
2, 237508, Note_on_c, 0, 55, 0
2, 237524, Note_on_c, 0, 51, 68
2, 237632, Note_on_c, 0, 51, 0
2, 237668, Note_on_c, 0, 70, 0
2, 237680, Note_on_c, 0, 46, 66
2, 237760, Note_on_c, 0, 46, 0
2, 237848, Note_on_c, 0, 66, 55
2, 237848, Note_on_c, 0, 63, 51
2, 237848, Note_on_c, 0, 58, 51
2, 237848, Note_on_c, 0, 51, 52
2, 237848, Note_on_c, 0, 70, 59
2, 237852, Note_on_c, 0, 39, 68
2, 237980, Control_c, 0, 64, 72
2, 237996, Control_c, 0, 64, 0
2, 238028, Note_on_c, 0, 46, 71
2, 238072, Control_c, 0, 64, 56
2, 238088, Control_c, 0, 64, 127
2, 238192, Note_on_c, 0, 51, 68
2, 238264, Note_on_c, 0, 39, 0
2, 238272, Note_on_c, 0, 46, 0
2, 238312, Note_on_c, 0, 51, 0
2, 238332, Note_on_c, 0, 54, 63
2, 238448, Note_on_c, 0, 54, 0
2, 238488, Note_on_c, 0, 58, 57
2, 238628, Note_on_c, 0, 63, 65
2, 238632, Note_on_c, 0, 58, 0
2, 238700, Note_on_c, 0, 63, 0
2, 238772, Note_on_c, 0, 49, 71
2, 238800, Note_on_c, 0, 51, 0
2, 238892, Control_c, 0, 64, 72
2, 238908, Control_c, 0, 64, 0
2, 238940, Note_on_c, 0, 51, 65
2, 239004, Control_c, 0, 64, 88
2, 239020, Control_c, 0, 64, 127
2, 239084, Note_on_c, 0, 54, 62
2, 239204, Note_on_c, 0, 58, 59
2, 239216, Note_on_c, 0, 49, 0
2, 239244, Note_on_c, 0, 51, 0
2, 239276, Note_on_c, 0, 54, 0
2, 239296, Note_on_c, 0, 58, 0
2, 239324, Note_on_c, 0, 63, 63
2, 239456, Note_on_c, 0, 66, 64
2, 239476, Note_on_c, 0, 63, 0
2, 239576, Note_on_c, 0, 70, 65
2, 239584, Note_on_c, 0, 66, 0
2, 239648, Note_on_c, 0, 70, 0
2, 239648, Note_on_c, 0, 70, 0
2, 239756, Note_on_c, 0, 48, 73
2, 239836, Control_c, 0, 64, 72
2, 239852, Control_c, 0, 64, 0
2, 239920, Note_on_c, 0, 54, 64
2, 239960, Control_c, 0, 64, 56
2, 239976, Control_c, 0, 64, 127
2, 240072, Note_on_c, 0, 58, 59
2, 240140, Note_on_c, 0, 54, 0
2, 240152, Note_on_c, 0, 48, 0
2, 240176, Note_on_c, 0, 58, 0
2, 240208, Note_on_c, 0, 63, 58
2, 240336, Note_on_c, 0, 66, 67
2, 240376, Note_on_c, 0, 63, 0
2, 240400, Note_on_c, 0, 58, 0
2, 240416, Note_on_c, 0, 70, 78
2, 240484, Note_on_c, 0, 66, 0
2, 240540, Note_on_c, 0, 70, 0
2, 240644, Note_on_c, 0, 66, 0
2, 240644, Note_on_c, 0, 53, 70
2, 240644, Note_on_c, 0, 75, 86
2, 240644, Note_on_c, 0, 69, 69
2, 240644, Note_on_c, 0, 65, 61
2, 240644, Note_on_c, 0, 53, 60
2, 240644, Note_on_c, 0, 63, 60
2, 240644, Note_on_c, 0, 60, 59
2, 240664, Note_on_c, 0, 63, 0
2, 240720, Control_c, 0, 64, 72
2, 240736, Control_c, 0, 64, 0
2, 240768, Note_on_c, 0, 60, 0
2, 240808, Note_on_c, 0, 57, 58
2, 240832, Control_c, 0, 64, 72
2, 240848, Control_c, 0, 64, 127
2, 240960, Note_on_c, 0, 60, 69
2, 241024, Note_on_c, 0, 63, 0
2, 241040, Note_on_c, 0, 53, 0
2, 241076, Note_on_c, 0, 60, 0
2, 241080, Note_on_c, 0, 57, 0
2, 241100, Note_on_c, 0, 63, 58
2, 241140, Note_on_c, 0, 53, 0
2, 241232, Note_on_c, 0, 63, 0
2, 241236, Note_on_c, 0, 65, 69
2, 241376, Note_on_c, 0, 65, 0
2, 241384, Note_on_c, 0, 69, 71
2, 241432, Note_on_c, 0, 69, 0
2, 241520, Note_on_c, 0, 69, 0
2, 241540, Note_on_c, 0, 46, 71
2, 241604, Control_c, 0, 64, 56
2, 241620, Control_c, 0, 64, 0
2, 241712, Control_c, 0, 64, 72
2, 241728, Control_c, 0, 64, 127
2, 241736, Note_on_c, 0, 53, 65
2, 241868, Note_on_c, 0, 58, 59
2, 241916, Note_on_c, 0, 46, 0
2, 241928, Note_on_c, 0, 53, 0
2, 241972, Note_on_c, 0, 58, 0
2, 242000, Note_on_c, 0, 65, 0
2, 242000, Note_on_c, 0, 61, 61
2, 242136, Note_on_c, 0, 65, 71
2, 242204, Note_on_c, 0, 73, 85
2, 242208, Note_on_c, 0, 75, 0
2, 242276, Note_on_c, 0, 70, 70
2, 242284, Note_on_c, 0, 61, 0
2, 242284, Note_on_c, 0, 65, 0
2, 242348, Note_on_c, 0, 70, 0
2, 242444, Note_on_c, 0, 51, 74
2, 242444, Note_on_c, 0, 72, 87
2, 242472, Note_on_c, 0, 73, 0
2, 242520, Control_c, 0, 64, 88
2, 242532, Control_c, 0, 64, 24
2, 242548, Control_c, 0, 64, 0
2, 242604, Note_on_c, 0, 54, 65
2, 242624, Control_c, 0, 64, 72
2, 242640, Control_c, 0, 64, 127
2, 242748, Note_on_c, 0, 58, 63
2, 242836, Note_on_c, 0, 54, 0
2, 242856, Note_on_c, 0, 58, 0
2, 242864, Note_on_c, 0, 51, 0
2, 242892, Note_on_c, 0, 60, 65
2, 243036, Note_on_c, 0, 63, 68
2, 243064, Note_on_c, 0, 60, 0
2, 243104, Note_on_c, 0, 70, 82
2, 243168, Note_on_c, 0, 72, 0
2, 243168, Note_on_c, 0, 66, 65
2, 243176, Note_on_c, 0, 63, 0
2, 243244, Note_on_c, 0, 66, 0
2, 243372, Note_on_c, 0, 41, 68
2, 243372, Note_on_c, 0, 53, 68
2, 243372, Note_on_c, 0, 69, 81
2, 243388, Note_on_c, 0, 70, 0
2, 243464, Control_c, 0, 64, 72
2, 243480, Control_c, 0, 64, 0
2, 243540, Note_on_c, 0, 48, 68
2, 243620, Control_c, 0, 64, 127
2, 243704, Note_on_c, 0, 53, 64
2, 243848, Note_on_c, 0, 57, 67
2, 243976, Note_on_c, 0, 60, 68
2, 244012, Note_on_c, 0, 57, 0
2, 244040, Note_on_c, 0, 70, 83
2, 244084, Note_on_c, 0, 60, 0
2, 244096, Note_on_c, 0, 69, 0
2, 244108, Note_on_c, 0, 65, 69
2, 244248, Note_on_c, 0, 65, 0
2, 244268, Note_on_c, 0, 69, 72
2, 244268, Note_on_c, 0, 72, 82
2, 244292, Note_on_c, 0, 70, 0
2, 244360, Note_on_c, 0, 41, 0
2, 244360, Note_on_c, 0, 69, 0
2, 244372, Note_on_c, 0, 53, 0
2, 244372, Note_on_c, 0, 53, 0
2, 244380, Note_on_c, 0, 48, 0
2, 244404, Note_on_c, 0, 65, 69
2, 244516, Note_on_c, 0, 65, 0
2, 244552, Note_on_c, 0, 60, 69
2, 244684, Note_on_c, 0, 60, 0
2, 244704, Note_on_c, 0, 57, 68
2, 244772, Note_on_c, 0, 57, 0
2, 244876, Note_on_c, 0, 53, 68
2, 244932, Note_on_c, 0, 72, 0
2, 244960, Note_on_c, 0, 70, 67
2, 245048, Note_on_c, 0, 53, 0
2, 245048, Note_on_c, 0, 48, 69
2, 245196, Note_on_c, 0, 48, 0
2, 245260, Note_on_c, 0, 70, 0
2, 245360, Note_on_c, 0, 77, 90
2, 245360, Note_on_c, 0, 51, 62
2, 245360, Note_on_c, 0, 72, 65
2, 245380, Note_on_c, 0, 51, 63
2, 245432, Control_c, 0, 64, 72
2, 245448, Control_c, 0, 64, 0
2, 245552, Control_c, 0, 64, 56
2, 245568, Control_c, 0, 64, 127
2, 245580, Note_on_c, 0, 53, 67
2, 245736, Note_on_c, 0, 57, 67
2, 245872, Note_on_c, 0, 60, 65
2, 246008, Note_on_c, 0, 65, 68
2, 246148, Note_on_c, 0, 69, 69
2, 246192, Note_on_c, 0, 65, 0
2, 246212, Note_on_c, 0, 77, 0
2, 246284, Note_on_c, 0, 69, 0
2, 246312, Note_on_c, 0, 72, 88
2, 246316, Note_on_c, 0, 51, 0
2, 246316, Note_on_c, 0, 51, 0
2, 246456, Note_on_c, 0, 69, 73
2, 246520, Note_on_c, 0, 60, 0
2, 246560, Note_on_c, 0, 72, 0
2, 246612, Note_on_c, 0, 65, 72
2, 246624, Note_on_c, 0, 69, 0
2, 246656, Note_on_c, 0, 57, 0
2, 246668, Note_on_c, 0, 72, 0
2, 246724, Note_on_c, 0, 53, 0
2, 246760, Note_on_c, 0, 60, 71
2, 246940, Note_on_c, 0, 73, 89
2, 246944, Note_on_c, 0, 49, 70
2, 246956, Note_on_c, 0, 65, 0
2, 246984, Note_on_c, 0, 60, 0
2, 247084, Note_on_c, 0, 49, 0
2, 247096, Note_on_c, 0, 58, 71
2, 247196, Note_on_c, 0, 58, 0
2, 247288, Control_c, 0, 64, 88
2, 247300, Note_on_c, 0, 75, 91
2, 247304, Control_c, 0, 64, 0
2, 247332, Note_on_c, 0, 48, 69
2, 247340, Note_on_c, 0, 73, 0
2, 247412, Control_c, 0, 64, 56
2, 247428, Control_c, 0, 64, 127
2, 247444, Note_on_c, 0, 48, 0
2, 247460, Note_on_c, 0, 54, 67
2, 247588, Note_on_c, 0, 54, 0
2, 247616, Note_on_c, 0, 58, 66
2, 247768, Note_on_c, 0, 58, 0
2, 247800, Note_on_c, 0, 63, 66
2, 247888, Note_on_c, 0, 63, 0
2, 247988, Note_on_c, 0, 64, 65
2, 247992, Note_on_c, 0, 76, 91
2, 247992, Note_on_c, 0, 72, 63
2, 247992, Note_on_c, 0, 70, 62
2, 248036, Note_on_c, 0, 75, 0
2, 248048, Control_c, 0, 64, 56
2, 248060, Control_c, 0, 64, 0
2, 248112, Control_c, 0, 64, 88
2, 248124, Control_c, 0, 64, 127
2, 248164, Note_on_c, 0, 64, 0
2, 248172, Note_on_c, 0, 55, 69
2, 248200, Note_on_c, 0, 70, 0
2, 248232, Note_on_c, 0, 55, 0
2, 248392, Note_on_c, 0, 77, 91
2, 248392, Note_on_c, 0, 41, 71
2, 248392, Note_on_c, 0, 69, 63
2, 248400, Note_on_c, 0, 76, 0
2, 248452, Control_c, 0, 64, 40
2, 248468, Control_c, 0, 64, 0
2, 248560, Control_c, 0, 64, 104
2, 248576, Control_c, 0, 64, 127
2, 248616, Note_on_c, 0, 53, 71
2, 248656, Note_on_c, 0, 53, 0
2, 248688, Note_on_c, 0, 41, 0
2, 248788, Note_on_c, 0, 57, 68
2, 248872, Note_on_c, 0, 77, 0
2, 248908, Note_on_c, 0, 72, 83
2, 248956, Note_on_c, 0, 72, 0
2, 248976, Note_on_c, 0, 60, 67
2, 248988, Note_on_c, 0, 72, 0
2, 248988, Note_on_c, 0, 73, 82
2, 249060, Note_on_c, 0, 72, 88
2, 249072, Note_on_c, 0, 73, 0
2, 249076, Note_on_c, 0, 69, 0
2, 249236, Note_on_c, 0, 72, 0
2, 249236, Note_on_c, 0, 71, 87
2, 249236, Note_on_c, 0, 63, 68
2, 249236, Note_on_c, 0, 69, 74
2, 249236, Note_on_c, 0, 72, 71
2, 249256, Note_on_c, 0, 57, 0
2, 249436, Note_on_c, 0, 71, 0
2, 249444, Note_on_c, 0, 72, 87
2, 249444, Note_on_c, 0, 65, 78
2, 249476, Note_on_c, 0, 63, 0
2, 249496, Note_on_c, 0, 65, 0
2, 249540, Note_on_c, 0, 60, 0
2, 249736, Note_on_c, 0, 72, 0
2, 249736, Note_on_c, 0, 75, 89
2, 249736, Note_on_c, 0, 46, 71
2, 249832, Control_c, 0, 64, 40
2, 249848, Control_c, 0, 64, 0
2, 249944, Note_on_c, 0, 53, 67
2, 250000, Control_c, 0, 64, 104
2, 250016, Control_c, 0, 64, 127
2, 250056, Note_on_c, 0, 75, 0
2, 250088, Note_on_c, 0, 58, 68
2, 250172, Note_on_c, 0, 53, 0
2, 250232, Note_on_c, 0, 61, 68
2, 250356, Note_on_c, 0, 61, 0
2, 250396, Note_on_c, 0, 65, 69
2, 250480, Note_on_c, 0, 65, 0
2, 250516, Note_on_c, 0, 70, 70
2, 250648, Note_on_c, 0, 70, 0
2, 250672, Note_on_c, 0, 73, 79
2, 250672, Note_on_c, 0, 70, 68
2, 250800, Note_on_c, 0, 73, 0
2, 250800, Note_on_c, 0, 72, 0
2, 250812, Note_on_c, 0, 70, 70
2, 250824, Note_on_c, 0, 69, 0
2, 250876, Note_on_c, 0, 46, 0
2, 250928, Note_on_c, 0, 58, 0
2, 250932, Note_on_c, 0, 70, 0
2, 250948, Note_on_c, 0, 65, 68
2, 251056, Note_on_c, 0, 65, 0
2, 251088, Note_on_c, 0, 61, 66
2, 251156, Note_on_c, 0, 61, 0
2, 251208, Note_on_c, 0, 70, 0
2, 251228, Note_on_c, 0, 58, 65
2, 251356, Note_on_c, 0, 58, 0
2, 251364, Note_on_c, 0, 53, 65
2, 251432, Note_on_c, 0, 53, 0
2, 251480, Note_on_c, 0, 46, 68
2, 251480, Note_on_c, 0, 61, 57
2, 251480, Note_on_c, 0, 58, 57
2, 251624, Note_on_c, 0, 53, 64
2, 251628, Control_c, 0, 64, 88
2, 251644, Control_c, 0, 64, 40
2, 251660, Control_c, 0, 64, 24
2, 251676, Control_c, 0, 64, 40
2, 251692, Control_c, 0, 64, 104
2, 251704, Control_c, 0, 64, 127
2, 251764, Note_on_c, 0, 58, 58
2, 251916, Note_on_c, 0, 61, 64
2, 252076, Note_on_c, 0, 65, 63
2, 252168, Note_on_c, 0, 53, 0
2, 252168, Note_on_c, 0, 46, 0
2, 252180, Note_on_c, 0, 58, 0
2, 252180, Note_on_c, 0, 58, 0
2, 252208, Note_on_c, 0, 65, 0
2, 252220, Note_on_c, 0, 70, 63
2, 252288, Note_on_c, 0, 70, 0
2, 252368, Note_on_c, 0, 44, 69
2, 252420, Control_c, 0, 64, 72
2, 252432, Control_c, 0, 64, 0
2, 252508, Control_c, 0, 64, 56
2, 252524, Control_c, 0, 64, 127
2, 252544, Note_on_c, 0, 44, 0
2, 252560, Note_on_c, 0, 53, 62
2, 252704, Note_on_c, 0, 58, 55
2, 252736, Note_on_c, 0, 61, 0
2, 252736, Note_on_c, 0, 61, 0
2, 252768, Note_on_c, 0, 53, 0
2, 252820, Note_on_c, 0, 58, 0
2, 252848, Note_on_c, 0, 61, 61
2, 253008, Note_on_c, 0, 61, 0
2, 253008, Note_on_c, 0, 65, 57
2, 253156, Note_on_c, 0, 70, 67
2, 253164, Note_on_c, 0, 65, 0
2, 253228, Note_on_c, 0, 70, 0
2, 253328, Note_on_c, 0, 51, 52
2, 253368, Note_on_c, 0, 42, 73
2, 253368, Note_on_c, 0, 82, 88
2, 253368, Note_on_c, 0, 70, 67
2, 253368, Note_on_c, 0, 58, 61
2, 253440, Control_c, 0, 64, 104
2, 253456, Control_c, 0, 64, 24
2, 253468, Control_c, 0, 64, 0
2, 253564, Control_c, 0, 64, 72
2, 253572, Note_on_c, 0, 54, 62
2, 253580, Control_c, 0, 64, 127
2, 253720, Note_on_c, 0, 42, 0
2, 253736, Note_on_c, 0, 58, 61
2, 253744, Note_on_c, 0, 54, 0
2, 253864, Note_on_c, 0, 58, 0
2, 253880, Note_on_c, 0, 63, 65
2, 253916, Note_on_c, 0, 58, 0
2, 253948, Note_on_c, 0, 51, 0
2, 253992, Note_on_c, 0, 63, 0
2, 254016, Note_on_c, 0, 66, 68
2, 254152, Note_on_c, 0, 70, 73
2, 254172, Note_on_c, 0, 66, 0
2, 254236, Note_on_c, 0, 70, 0
2, 254332, Note_on_c, 0, 54, 69
2, 254332, Note_on_c, 0, 75, 87
2, 254344, Note_on_c, 0, 82, 0
2, 254396, Control_c, 0, 64, 40
2, 254412, Control_c, 0, 64, 0
2, 254476, Control_c, 0, 64, 72
2, 254488, Note_on_c, 0, 58, 68
2, 254492, Control_c, 0, 64, 127
2, 254656, Note_on_c, 0, 63, 69
2, 254768, Note_on_c, 0, 54, 0
2, 254772, Note_on_c, 0, 70, 0
2, 254796, Note_on_c, 0, 70, 78
2, 254796, Note_on_c, 0, 66, 68
2, 254852, Note_on_c, 0, 66, 0
2, 254872, Note_on_c, 0, 58, 0
2, 254872, Note_on_c, 0, 70, 0
2, 254904, Note_on_c, 0, 63, 0
2, 254940, Note_on_c, 0, 75, 0
2, 254964, Note_on_c, 0, 53, 72
2, 254964, Note_on_c, 0, 70, 63
2, 254964, Note_on_c, 0, 68, 64
2, 254964, Note_on_c, 0, 77, 88
2, 254988, Control_c, 0, 64, 88
2, 255004, Control_c, 0, 64, 24
2, 255020, Control_c, 0, 64, 0
2, 255036, Control_c, 0, 64, 24
2, 255052, Control_c, 0, 64, 72
2, 255068, Control_c, 0, 64, 127
2, 255108, Note_on_c, 0, 70, 71
2, 255108, Note_on_c, 0, 58, 60
2, 255108, Note_on_c, 0, 62, 65
2, 255108, Note_on_c, 0, 68, 72
2, 255160, Note_on_c, 0, 53, 0
2, 255172, Note_on_c, 0, 68, 0
2, 255184, Note_on_c, 0, 58, 0
2, 255188, Note_on_c, 0, 62, 0
2, 255192, Note_on_c, 0, 70, 0
2, 255216, Note_on_c, 0, 68, 0
2, 255244, Note_on_c, 0, 77, 0
2, 255260, Note_on_c, 0, 70, 0
2, 255308, Note_on_c, 0, 51, 72
2, 255308, Note_on_c, 0, 66, 68
2, 255308, Note_on_c, 0, 70, 66
2, 255308, Note_on_c, 0, 78, 88
2, 255360, Control_c, 0, 64, 56
2, 255376, Control_c, 0, 64, 0
2, 255456, Note_on_c, 0, 58, 69
2, 255484, Control_c, 0, 64, 72
2, 255500, Control_c, 0, 64, 127
2, 255632, Note_on_c, 0, 63, 70
2, 255676, Note_on_c, 0, 66, 0
2, 255696, Note_on_c, 0, 51, 0
2, 255716, Note_on_c, 0, 63, 0
2, 255720, Note_on_c, 0, 58, 0
2, 255776, Note_on_c, 0, 70, 72
2, 255776, Note_on_c, 0, 66, 65
2, 255800, Note_on_c, 0, 78, 0
2, 255860, Note_on_c, 0, 66, 0
2, 255880, Note_on_c, 0, 70, 0
2, 255948, Control_c, 0, 64, 104
2, 255960, Note_on_c, 0, 49, 78
2, 255960, Note_on_c, 0, 67, 69
2, 255960, Note_on_c, 0, 79, 89
2, 255964, Control_c, 0, 64, 40
2, 255980, Control_c, 0, 64, 0
2, 256012, Control_c, 0, 64, 24
2, 256024, Control_c, 0, 64, 88
2, 256036, Note_on_c, 0, 49, 0
2, 256040, Control_c, 0, 64, 127
2, 256132, Note_on_c, 0, 67, 0
2, 256144, Note_on_c, 0, 64, 68
2, 256144, Note_on_c, 0, 70, 70
2, 256160, Note_on_c, 0, 67, 69
2, 256184, Note_on_c, 0, 79, 0
2, 256208, Note_on_c, 0, 67, 0
2, 256212, Note_on_c, 0, 64, 0
2, 256224, Note_on_c, 0, 70, 0
2, 256264, Note_on_c, 0, 70, 0
2, 256340, Note_on_c, 0, 48, 75
2, 256340, Note_on_c, 0, 66, 68
2, 256340, Note_on_c, 0, 63, 68
2, 256340, Note_on_c, 0, 68, 67
2, 256340, Note_on_c, 0, 80, 87
2, 256340, Note_on_c, 0, 56, 63
2, 256384, Control_c, 0, 64, 56
2, 256396, Control_c, 0, 64, 0
2, 256504, Control_c, 0, 64, 56
2, 256508, Note_on_c, 0, 56, 0
2, 256524, Control_c, 0, 64, 127
2, 256532, Note_on_c, 0, 56, 70
2, 256680, Note_on_c, 0, 56, 0
2, 256692, Note_on_c, 0, 48, 0
2, 256712, Note_on_c, 0, 63, 69
2, 256796, Note_on_c, 0, 75, 86
2, 256820, Note_on_c, 0, 63, 0
2, 256840, Note_on_c, 0, 63, 0
2, 256848, Note_on_c, 0, 80, 0
2, 256876, Note_on_c, 0, 68, 64
2, 256880, Note_on_c, 0, 66, 58
2, 256896, Note_on_c, 0, 77, 92
2, 256900, Note_on_c, 0, 75, 0
2, 256980, Note_on_c, 0, 75, 85
2, 256996, Note_on_c, 0, 77, 0
2, 257032, Control_c, 0, 64, 104
2, 257048, Control_c, 0, 64, 40
2, 257064, Control_c, 0, 64, 0
2, 257076, Note_on_c, 0, 75, 0
2, 257076, Note_on_c, 0, 44, 71
2, 257076, Note_on_c, 0, 74, 90
2, 257096, Control_c, 0, 64, 24
2, 257112, Note_on_c, 0, 66, 0
2, 257112, Control_c, 0, 64, 88
2, 257128, Note_on_c, 0, 44, 0
2, 257128, Control_c, 0, 64, 127
2, 257132, Note_on_c, 0, 68, 0
2, 257140, Note_on_c, 0, 66, 0
2, 257256, Note_on_c, 0, 74, 0
2, 257288, Note_on_c, 0, 60, 59
2, 257288, Note_on_c, 0, 56, 60
2, 257288, Note_on_c, 0, 66, 59
2, 257288, Note_on_c, 0, 68, 63
2, 257288, Note_on_c, 0, 75, 90
2, 257336, Note_on_c, 0, 56, 0
2, 257376, Note_on_c, 0, 68, 0
2, 257380, Note_on_c, 0, 66, 0
2, 257384, Note_on_c, 0, 60, 0
2, 257480, Note_on_c, 0, 75, 0
2, 257496, Note_on_c, 0, 68, 0
2, 257564, Note_on_c, 0, 49, 74
2, 257564, Note_on_c, 0, 78, 90
2, 257564, Note_on_c, 0, 61, 67
2, 257656, Control_c, 0, 64, 72
2, 257668, Control_c, 0, 64, 0
2, 257740, Note_on_c, 0, 56, 68
2, 257808, Control_c, 0, 64, 104
2, 257824, Control_c, 0, 64, 127
2, 257884, Note_on_c, 0, 61, 69
2, 257976, Note_on_c, 0, 49, 0
2, 258032, Note_on_c, 0, 65, 70
2, 258040, Note_on_c, 0, 56, 0
2, 258040, Note_on_c, 0, 61, 0
2, 258040, Note_on_c, 0, 61, 0
2, 258168, Note_on_c, 0, 68, 72
2, 258248, Note_on_c, 0, 65, 0
2, 258276, Note_on_c, 0, 68, 0
2, 258304, Note_on_c, 0, 73, 77
2, 258436, Note_on_c, 0, 78, 0
2, 258456, Note_on_c, 0, 73, 0
2, 258460, Note_on_c, 0, 77, 85
2, 258568, Note_on_c, 0, 77, 0
2, 258600, Note_on_c, 0, 73, 73
2, 258748, Note_on_c, 0, 68, 70
2, 258784, Note_on_c, 0, 73, 0
2, 258888, Note_on_c, 0, 68, 0
2, 258904, Note_on_c, 0, 65, 69
2, 258996, Note_on_c, 0, 65, 0
2, 259056, Note_on_c, 0, 61, 68
2, 259180, Note_on_c, 0, 61, 0
2, 259208, Note_on_c, 0, 56, 68
2, 259312, Note_on_c, 0, 56, 0
2, 259360, Note_on_c, 0, 49, 68
2, 259360, Note_on_c, 0, 61, 60
2, 259360, Note_on_c, 0, 65, 62
2, 259360, Note_on_c, 0, 56, 60
2, 259464, Control_c, 0, 64, 104
2, 259480, Control_c, 0, 64, 24
2, 259496, Control_c, 0, 64, 0
2, 259516, Note_on_c, 0, 56, 59
2, 259576, Control_c, 0, 64, 72
2, 259592, Control_c, 0, 64, 127
2, 259664, Note_on_c, 0, 61, 62
2, 259724, Note_on_c, 0, 49, 0
2, 259780, Note_on_c, 0, 56, 0
2, 259780, Note_on_c, 0, 56, 0
2, 259792, Note_on_c, 0, 61, 0
2, 259820, Note_on_c, 0, 65, 61
2, 259952, Note_on_c, 0, 68, 64
2, 260096, Note_on_c, 0, 61, 0
2, 260104, Note_on_c, 0, 73, 71
2, 260112, Note_on_c, 0, 68, 0
2, 260120, Note_on_c, 0, 65, 0
2, 260164, Note_on_c, 0, 65, 0
2, 260236, Note_on_c, 0, 73, 0
2, 260268, Note_on_c, 0, 48, 72
2, 260268, Note_on_c, 0, 65, 65
2, 260268, Note_on_c, 0, 57, 63
2, 260268, Note_on_c, 0, 61, 64
2, 260364, Control_c, 0, 64, 88
2, 260380, Control_c, 0, 64, 40
2, 260396, Control_c, 0, 64, 0
2, 260476, Note_on_c, 0, 57, 43
2, 260488, Control_c, 0, 64, 72
2, 260504, Control_c, 0, 64, 127
2, 260612, Note_on_c, 0, 61, 53
2, 260668, Note_on_c, 0, 48, 0
2, 260752, Note_on_c, 0, 65, 59
2, 260784, Note_on_c, 0, 61, 0
2, 260784, Note_on_c, 0, 57, 0
2, 260856, Note_on_c, 0, 65, 0
2, 260904, Note_on_c, 0, 69, 63
2, 260952, Note_on_c, 0, 57, 0
2, 261056, Note_on_c, 0, 73, 68
2, 261068, Note_on_c, 0, 61, 0
2, 261068, Note_on_c, 0, 65, 0
2, 261084, Note_on_c, 0, 69, 0
2, 261144, Note_on_c, 0, 73, 0
2, 261268, Note_on_c, 0, 46, 70
2, 261268, Note_on_c, 0, 65, 59
2, 261268, Note_on_c, 0, 58, 58
2, 261268, Note_on_c, 0, 61, 58
2, 261384, Control_c, 0, 64, 104
2, 261404, Control_c, 0, 64, 40
2, 261420, Control_c, 0, 64, 0
2, 261452, Note_on_c, 0, 53, 65
2, 261528, Control_c, 0, 64, 88
2, 261540, Control_c, 0, 64, 127
2, 261600, Note_on_c, 0, 58, 67
2, 261744, Note_on_c, 0, 61, 68
2, 261876, Note_on_c, 0, 61, 0
2, 261920, Note_on_c, 0, 65, 68
2, 261984, Note_on_c, 0, 65, 0
2, 262044, Note_on_c, 0, 70, 83
2, 262224, Note_on_c, 0, 70, 0
2, 262268, Note_on_c, 0, 53, 0
2, 262284, Note_on_c, 0, 73, 87
2, 262284, Note_on_c, 0, 70, 65
2, 262312, Note_on_c, 0, 46, 0
2, 262316, Note_on_c, 0, 58, 0
2, 262392, Note_on_c, 0, 65, 0
2, 262456, Note_on_c, 0, 65, 73
2, 262596, Note_on_c, 0, 61, 64
2, 262736, Note_on_c, 0, 58, 61
2, 262864, Note_on_c, 0, 58, 0
2, 262888, Note_on_c, 0, 53, 62
2, 263016, Note_on_c, 0, 53, 0
2, 263020, Note_on_c, 0, 46, 73
2, 263104, Note_on_c, 0, 65, 0
2, 263128, Note_on_c, 0, 61, 0
2, 263128, Note_on_c, 0, 61, 0
2, 263144, Note_on_c, 0, 58, 0
2, 263172, Note_on_c, 0, 46, 0
2, 263180, Note_on_c, 0, 70, 0
2, 263180, Note_on_c, 0, 73, 0
2, 263252, Note_on_c, 0, 49, 68
2, 263252, Note_on_c, 0, 55, 63
2, 263252, Note_on_c, 0, 58, 62
2, 263252, Note_on_c, 0, 63, 67
2, 263340, Control_c, 0, 64, 72
2, 263356, Control_c, 0, 64, 0
2, 263424, Note_on_c, 0, 51, 71
2, 263448, Control_c, 0, 64, 40
2, 263464, Control_c, 0, 64, 127
2, 263512, Note_on_c, 0, 49, 0
2, 263592, Note_on_c, 0, 55, 69
2, 263720, Note_on_c, 0, 58, 54
2, 263832, Note_on_c, 0, 61, 62
2, 263948, Note_on_c, 0, 61, 0
2, 263956, Note_on_c, 0, 63, 70
2, 264044, Note_on_c, 0, 63, 0
2, 264072, Note_on_c, 0, 67, 74
2, 264272, Note_on_c, 0, 72, 92
2, 264272, Note_on_c, 0, 67, 63
2, 264272, Note_on_c, 0, 70, 64
2, 264292, Note_on_c, 0, 67, 0
2, 264320, Note_on_c, 0, 63, 0
2, 264336, Note_on_c, 0, 55, 0
2, 264336, Note_on_c, 0, 55, 0
2, 264360, Note_on_c, 0, 58, 0
2, 264360, Note_on_c, 0, 58, 0
2, 264376, Note_on_c, 0, 51, 0
2, 264428, Note_on_c, 0, 67, 72
2, 264548, Note_on_c, 0, 67, 0
2, 264600, Note_on_c, 0, 63, 70
2, 264736, Note_on_c, 0, 61, 69
2, 264784, Note_on_c, 0, 63, 0
2, 264876, Note_on_c, 0, 58, 68
2, 264992, Note_on_c, 0, 58, 0
2, 265000, Note_on_c, 0, 55, 68
2, 265044, Note_on_c, 0, 49, 68
2, 265092, Note_on_c, 0, 72, 0
2, 265124, Note_on_c, 0, 55, 0
2, 265124, Note_on_c, 0, 61, 0
2, 265140, Note_on_c, 0, 49, 69
2, 265140, Note_on_c, 0, 70, 87
2, 265272, Note_on_c, 0, 70, 0
2, 265280, Note_on_c, 0, 49, 0
2, 265364, Note_on_c, 0, 67, 0
2, 265404, Note_on_c, 0, 49, 0
2, 265412, Note_on_c, 0, 48, 76
2, 265436, Note_on_c, 0, 75, 90
2, 265476, Control_c, 0, 64, 56
2, 265492, Control_c, 0, 64, 0
2, 265524, Note_on_c, 0, 70, 0
2, 265616, Note_on_c, 0, 51, 68
2, 265664, Control_c, 0, 64, 104
2, 265676, Control_c, 0, 64, 127
2, 265760, Note_on_c, 0, 56, 61
2, 265916, Note_on_c, 0, 60, 72
2, 265956, Note_on_c, 0, 48, 0
2, 266052, Note_on_c, 0, 63, 61
2, 266188, Note_on_c, 0, 51, 0
2, 266192, Note_on_c, 0, 68, 69
2, 266232, Note_on_c, 0, 63, 0
2, 266320, Note_on_c, 0, 68, 0
2, 266352, Note_on_c, 0, 72, 72
2, 266352, Note_on_c, 0, 75, 79
2, 266352, Note_on_c, 0, 68, 73
2, 266496, Note_on_c, 0, 68, 70
2, 266528, Note_on_c, 0, 60, 0
2, 266544, Note_on_c, 0, 56, 0
2, 266632, Note_on_c, 0, 63, 57
2, 266788, Note_on_c, 0, 60, 72
2, 266844, Note_on_c, 0, 72, 0
2, 266924, Note_on_c, 0, 60, 0
2, 266940, Note_on_c, 0, 56, 61
2, 267040, Note_on_c, 0, 63, 0
2, 267064, Note_on_c, 0, 68, 0
2, 267080, Note_on_c, 0, 56, 0
2, 267120, Note_on_c, 0, 48, 73
2, 267124, Note_on_c, 0, 75, 0
2, 267240, Note_on_c, 0, 48, 0
2, 267292, Note_on_c, 0, 68, 0
2, 267304, Note_on_c, 0, 51, 73
2, 267304, Note_on_c, 0, 75, 65
2, 267304, Note_on_c, 0, 54, 65
2, 267304, Note_on_c, 0, 69, 62
2, 267304, Note_on_c, 0, 57, 60
2, 267304, Note_on_c, 0, 66, 63
2, 267304, Note_on_c, 0, 48, 61
2, 267336, Note_on_c, 0, 75, 0
2, 267336, Note_on_c, 0, 75, 0
2, 267360, Note_on_c, 0, 54, 0
2, 267444, Control_c, 0, 64, 56
2, 267452, Note_on_c, 0, 54, 72
2, 267456, Control_c, 0, 64, 0
2, 267552, Control_c, 0, 64, 56
2, 267568, Control_c, 0, 64, 127
2, 267604, Note_on_c, 0, 57, 70
2, 267656, Note_on_c, 0, 51, 0
2, 267752, Note_on_c, 0, 60, 71
2, 267904, Note_on_c, 0, 63, 68
2, 268052, Note_on_c, 0, 66, 72
2, 268112, Note_on_c, 0, 63, 0
2, 268204, Note_on_c, 0, 66, 0
2, 268204, Note_on_c, 0, 69, 73
2, 268204, Note_on_c, 0, 73, 87
2, 268312, Note_on_c, 0, 60, 0
2, 268328, Note_on_c, 0, 48, 0
2, 268336, Note_on_c, 0, 54, 0
2, 268352, Note_on_c, 0, 66, 73
2, 268384, Note_on_c, 0, 57, 0
2, 268504, Note_on_c, 0, 63, 64
2, 268528, Note_on_c, 0, 66, 0
2, 268580, Note_on_c, 0, 69, 0
2, 268624, Note_on_c, 0, 63, 0
2, 268652, Note_on_c, 0, 60, 76
2, 268800, Note_on_c, 0, 57, 59
2, 268804, Note_on_c, 0, 60, 0
2, 268832, Note_on_c, 0, 69, 0
2, 268864, Note_on_c, 0, 66, 0
2, 268872, Note_on_c, 0, 73, 0
2, 268884, Note_on_c, 0, 72, 89
2, 268940, Note_on_c, 0, 51, 74
2, 269048, Note_on_c, 0, 57, 0
2, 269048, Note_on_c, 0, 57, 0
2, 269052, Note_on_c, 0, 51, 0
2, 269116, Note_on_c, 0, 49, 77
2, 269116, Note_on_c, 0, 77, 93
2, 269116, Note_on_c, 0, 58, 62
2, 269116, Note_on_c, 0, 70, 64
2, 269116, Note_on_c, 0, 65, 65
2, 269124, Note_on_c, 0, 72, 0
2, 269164, Control_c, 0, 64, 72
2, 269176, Control_c, 0, 64, 0
2, 269272, Note_on_c, 0, 53, 69
2, 269336, Control_c, 0, 64, 88
2, 269348, Control_c, 0, 64, 127
2, 269400, Note_on_c, 0, 58, 68
2, 269564, Note_on_c, 0, 61, 68
2, 269732, Note_on_c, 0, 65, 68
2, 269832, Note_on_c, 0, 65, 0
2, 269852, Note_on_c, 0, 70, 71
2, 270020, Note_on_c, 0, 61, 0
2, 270076, Note_on_c, 0, 70, 0
2, 270080, Note_on_c, 0, 77, 0
2, 270088, Note_on_c, 0, 73, 84
2, 270096, Note_on_c, 0, 70, 0
2, 270260, Note_on_c, 0, 65, 0
2, 270260, Note_on_c, 0, 65, 71
2, 270296, Note_on_c, 0, 58, 0
2, 270332, Note_on_c, 0, 53, 0
2, 270404, Note_on_c, 0, 49, 0
2, 270408, Note_on_c, 0, 61, 58
2, 270432, Note_on_c, 0, 58, 0
2, 270548, Note_on_c, 0, 58, 59
2, 270712, Note_on_c, 0, 58, 0
2, 270720, Note_on_c, 0, 53, 63
2, 270888, Note_on_c, 0, 53, 0
2, 270908, Note_on_c, 0, 49, 67
2, 270964, Note_on_c, 0, 49, 0
2, 270964, Note_on_c, 0, 61, 0
2, 270988, Note_on_c, 0, 65, 0
2, 271052, Note_on_c, 0, 73, 0
2, 271180, Note_on_c, 0, 39, 74
2, 271180, Note_on_c, 0, 73, 85
2, 271180, Note_on_c, 0, 63, 65
2, 271180, Note_on_c, 0, 67, 65
2, 271180, Note_on_c, 0, 61, 63
2, 271192, Control_c, 0, 64, 88
2, 271208, Control_c, 0, 64, 0
2, 271292, Note_on_c, 0, 39, 0
2, 271296, Control_c, 0, 64, 72
2, 271316, Control_c, 0, 64, 127
2, 271340, Note_on_c, 0, 49, 68
2, 271448, Note_on_c, 0, 49, 0
2, 271500, Note_on_c, 0, 51, 68
2, 271636, Note_on_c, 0, 51, 0
2, 271660, Note_on_c, 0, 55, 69
2, 271712, Note_on_c, 0, 55, 0
2, 271820, Note_on_c, 0, 58, 70
2, 271972, Note_on_c, 0, 58, 0
2, 272012, Note_on_c, 0, 61, 71
2, 272116, Note_on_c, 0, 61, 0
2, 272124, Note_on_c, 0, 73, 0
2, 272172, Note_on_c, 0, 63, 71
2, 272332, Note_on_c, 0, 67, 72
2, 272348, Note_on_c, 0, 63, 0
2, 272416, Note_on_c, 0, 67, 0
2, 272492, Note_on_c, 0, 72, 85
2, 272652, Note_on_c, 0, 67, 70
2, 272744, Note_on_c, 0, 67, 0
2, 272812, Note_on_c, 0, 63, 69
2, 272972, Note_on_c, 0, 61, 68
2, 272976, Note_on_c, 0, 63, 0
2, 273132, Note_on_c, 0, 58, 66
2, 273136, Note_on_c, 0, 61, 0
2, 273200, Note_on_c, 0, 63, 0
2, 273232, Note_on_c, 0, 67, 0
2, 273232, Note_on_c, 0, 58, 0
2, 273260, Note_on_c, 0, 61, 0
2, 273292, Note_on_c, 0, 55, 65
2, 273464, Note_on_c, 0, 72, 0
2, 273464, Note_on_c, 0, 70, 78
2, 273476, Note_on_c, 0, 51, 64
2, 273516, Note_on_c, 0, 55, 0
2, 273696, Note_on_c, 0, 70, 0
2, 273744, Note_on_c, 0, 51, 0
2, 273920, Note_on_c, 0, 51, 93
2, 273920, Note_on_c, 0, 44, 92
2, 273920, Note_on_c, 0, 60, 104
2, 273920, Note_on_c, 0, 56, 98
2, 273920, Note_on_c, 0, 63, 96
2, 273920, Note_on_c, 0, 68, 103
2, 273920, Note_on_c, 0, 32, 93
2, 273928, Control_c, 0, 64, 72
2, 273936, Control_c, 0, 64, 127
2, 273940, Note_on_c, 0, 63, 0
2, 273944, Note_on_c, 0, 60, 0
2, 273944, Note_on_c, 0, 44, 0
2, 273948, Note_on_c, 0, 56, 0
2, 273960, Note_on_c, 0, 51, 0
2, 273964, Note_on_c, 0, 68, 0
2, 274140, Note_on_c, 0, 91, 104
2, 274140, Note_on_c, 0, 67, 93
2, 274140, Note_on_c, 0, 79, 98
2, 274168, Note_on_c, 0, 79, 0
2, 274172, Note_on_c, 0, 91, 0
2, 274176, Note_on_c, 0, 32, 0
2, 274180, Note_on_c, 0, 67, 0
2, 274216, Note_on_c, 0, 92, 113
2, 274216, Note_on_c, 0, 80, 108
2, 274216, Note_on_c, 0, 68, 100
2, 274372, Note_on_c, 0, 68, 0
2, 274372, Note_on_c, 0, 80, 0
2, 274380, Note_on_c, 0, 92, 0
2, 274672, Note_on_c, 0, 86, 101
2, 274672, Note_on_c, 0, 62, 88
2, 274672, Note_on_c, 0, 74, 94
2, 274700, Note_on_c, 0, 74, 0
2, 274704, Note_on_c, 0, 86, 0
2, 274716, Note_on_c, 0, 62, 0
2, 274740, Note_on_c, 0, 75, 98
2, 274740, Note_on_c, 0, 87, 106
2, 274740, Note_on_c, 0, 63, 101
2, 274740, Control_c, 0, 64, 72
2, 274748, Control_c, 0, 64, 40
2, 274756, Control_c, 0, 64, 56
2, 274764, Control_c, 0, 64, 104
2, 274768, Note_on_c, 0, 63, 0
2, 274768, Note_on_c, 0, 75, 0
2, 274772, Note_on_c, 0, 87, 0
2, 274772, Control_c, 0, 64, 127
2, 274944, Note_on_c, 0, 83, 104
2, 274944, Note_on_c, 0, 71, 97
2, 274944, Note_on_c, 0, 59, 78
2, 274964, Note_on_c, 0, 71, 0
2, 274964, Note_on_c, 0, 83, 0
2, 274984, Note_on_c, 0, 59, 0
2, 275004, Control_c, 0, 64, 56
2, 275008, Note_on_c, 0, 84, 108
2, 275008, Note_on_c, 0, 72, 107
2, 275008, Note_on_c, 0, 60, 83
2, 275012, Control_c, 0, 64, 0
2, 275032, Note_on_c, 0, 72, 0
2, 275036, Control_c, 0, 64, 40
2, 275044, Note_on_c, 0, 84, 0
2, 275044, Control_c, 0, 64, 104
2, 275052, Control_c, 0, 64, 127
2, 275092, Note_on_c, 0, 60, 0
2, 275220, Note_on_c, 0, 79, 99
2, 275220, Note_on_c, 0, 55, 83
2, 275220, Note_on_c, 0, 67, 93
2, 275240, Note_on_c, 0, 79, 0
2, 275244, Note_on_c, 0, 67, 0
2, 275268, Note_on_c, 0, 55, 0
2, 275276, Control_c, 0, 64, 56
2, 275284, Note_on_c, 0, 80, 107
2, 275284, Note_on_c, 0, 68, 97
2, 275284, Note_on_c, 0, 56, 98
2, 275284, Control_c, 0, 64, 0
2, 275304, Control_c, 0, 64, 40
2, 275312, Control_c, 0, 64, 104
2, 275320, Note_on_c, 0, 68, 0
2, 275320, Note_on_c, 0, 80, 0
2, 275320, Control_c, 0, 64, 127
2, 275328, Note_on_c, 0, 56, 0
2, 275496, Note_on_c, 0, 62, 86
2, 275496, Note_on_c, 0, 50, 88
2, 275496, Note_on_c, 0, 74, 97
2, 275508, Note_on_c, 0, 62, 0
2, 275524, Note_on_c, 0, 74, 0
2, 275548, Note_on_c, 0, 50, 0
2, 275552, Control_c, 0, 64, 72
2, 275556, Note_on_c, 0, 75, 105
2, 275556, Note_on_c, 0, 63, 93
2, 275556, Note_on_c, 0, 51, 96
2, 275560, Control_c, 0, 64, 24
2, 275568, Control_c, 0, 64, 0
2, 275584, Note_on_c, 0, 63, 0
2, 275588, Note_on_c, 0, 75, 0
2, 275592, Control_c, 0, 64, 88
2, 275600, Control_c, 0, 64, 127
2, 275668, Note_on_c, 0, 51, 0
2, 275748, Note_on_c, 0, 71, 93
2, 275748, Note_on_c, 0, 47, 73
2, 275748, Note_on_c, 0, 59, 83
2, 275768, Note_on_c, 0, 59, 0
2, 275776, Note_on_c, 0, 71, 0
2, 275808, Control_c, 0, 64, 104
2, 275812, Note_on_c, 0, 72, 101
2, 275812, Note_on_c, 0, 60, 97
2, 275812, Note_on_c, 0, 48, 88
2, 275816, Control_c, 0, 64, 40
2, 275820, Note_on_c, 0, 47, 0
2, 275820, Control_c, 0, 64, 0
2, 275840, Control_c, 0, 64, 24
2, 275844, Note_on_c, 0, 48, 0
2, 275848, Control_c, 0, 64, 72
2, 275856, Note_on_c, 0, 72, 0
2, 275856, Control_c, 0, 64, 127
2, 275884, Note_on_c, 0, 60, 0
2, 276008, Note_on_c, 0, 51, 92
2, 276008, Note_on_c, 0, 63, 96
2, 276008, Note_on_c, 0, 39, 93
2, 276036, Note_on_c, 0, 39, 0
2, 276036, Note_on_c, 0, 51, 0
2, 276056, Note_on_c, 0, 63, 0
2, 276076, Control_c, 0, 64, 72
2, 276080, Note_on_c, 0, 68, 107
2, 276080, Note_on_c, 0, 60, 98
2, 276080, Note_on_c, 0, 63, 84
2, 276080, Note_on_c, 0, 56, 98
2, 276080, Note_on_c, 0, 44, 87
2, 276088, Control_c, 0, 64, 0
2, 276128, Control_c, 0, 64, 88
2, 276136, Control_c, 0, 64, 127
2, 276164, Note_on_c, 0, 56, 0
2, 276164, Note_on_c, 0, 63, 0
2, 276164, Note_on_c, 0, 60, 0
2, 276184, Note_on_c, 0, 68, 0
2, 276188, Note_on_c, 0, 44, 0
2, 276284, Note_on_c, 0, 77, 101
2, 276284, Note_on_c, 0, 65, 97
2, 276328, Note_on_c, 0, 77, 0
2, 276332, Note_on_c, 0, 65, 0
2, 276352, Note_on_c, 0, 78, 109
2, 276352, Note_on_c, 0, 66, 101
2, 276428, Control_c, 0, 64, 72
2, 276436, Control_c, 0, 64, 24
2, 276444, Control_c, 0, 64, 0
2, 276460, Control_c, 0, 64, 40
2, 276468, Control_c, 0, 64, 104
2, 276476, Control_c, 0, 64, 127
2, 276616, Note_on_c, 0, 78, 0
2, 276668, Note_on_c, 0, 66, 0
2, 276792, Note_on_c, 0, 74, 93
2, 276792, Note_on_c, 0, 62, 92
2, 276840, Note_on_c, 0, 62, 0
2, 276840, Note_on_c, 0, 74, 0
2, 276848, Note_on_c, 0, 75, 103
2, 276848, Note_on_c, 0, 63, 96
2, 276848, Control_c, 0, 64, 72
2, 276852, Control_c, 0, 64, 0
2, 276888, Note_on_c, 0, 63, 0
2, 276888, Control_c, 0, 64, 56
2, 276892, Control_c, 0, 64, 127
2, 276896, Note_on_c, 0, 75, 0
2, 277040, Note_on_c, 0, 71, 96
2, 277040, Note_on_c, 0, 59, 83
2, 277076, Note_on_c, 0, 59, 0
2, 277084, Note_on_c, 0, 71, 0
2, 277104, Note_on_c, 0, 60, 97
2, 277104, Note_on_c, 0, 72, 111
2, 277104, Control_c, 0, 64, 104
2, 277112, Control_c, 0, 64, 40
2, 277120, Control_c, 0, 64, 0
2, 277148, Note_on_c, 0, 72, 0
2, 277148, Control_c, 0, 64, 56
2, 277156, Control_c, 0, 64, 127
2, 277164, Note_on_c, 0, 60, 0
2, 277308, Note_on_c, 0, 65, 96
2, 277308, Note_on_c, 0, 53, 89
2, 277352, Note_on_c, 0, 65, 0
2, 277356, Note_on_c, 0, 53, 0
2, 277364, Note_on_c, 0, 66, 96
2, 277364, Control_c, 0, 64, 0
2, 277364, Control_c, 0, 64, 56
2, 277368, Note_on_c, 0, 54, 92
2, 277404, Control_c, 0, 64, 40
2, 277412, Control_c, 0, 64, 104
2, 277420, Note_on_c, 0, 66, 0
2, 277420, Control_c, 0, 64, 127
2, 277436, Note_on_c, 0, 54, 0
2, 277568, Note_on_c, 0, 50, 93
2, 277568, Note_on_c, 0, 62, 93
2, 277612, Note_on_c, 0, 62, 0
2, 277612, Note_on_c, 0, 50, 0
2, 277628, Note_on_c, 0, 63, 92
2, 277628, Note_on_c, 0, 51, 98
2, 277628, Control_c, 0, 64, 104
2, 277636, Control_c, 0, 64, 56
2, 277644, Control_c, 0, 64, 0
2, 277692, Control_c, 0, 64, 72
2, 277696, Control_c, 0, 64, 127
2, 277716, Note_on_c, 0, 63, 0
2, 277740, Note_on_c, 0, 51, 0
2, 277828, Note_on_c, 0, 59, 92
2, 277828, Note_on_c, 0, 47, 83
2, 277880, Note_on_c, 0, 59, 0
2, 277892, Note_on_c, 0, 47, 0
2, 277892, Note_on_c, 0, 60, 103
2, 277892, Note_on_c, 0, 48, 88
2, 277932, Note_on_c, 0, 60, 0
2, 277944, Note_on_c, 0, 48, 0
2, 278068, Note_on_c, 0, 42, 83
2, 278068, Note_on_c, 0, 54, 94
2, 278100, Note_on_c, 0, 42, 0
2, 278104, Note_on_c, 0, 54, 0
2, 278132, Control_c, 0, 64, 104
2, 278140, Control_c, 0, 64, 40
2, 278148, Note_on_c, 0, 65, 106
2, 278148, Note_on_c, 0, 53, 111
2, 278148, Note_on_c, 0, 63, 95
2, 278148, Note_on_c, 0, 60, 95
2, 278148, Note_on_c, 0, 45, 111
2, 278148, Note_on_c, 0, 33, 99
2, 278148, Control_c, 0, 64, 0
2, 278172, Note_on_c, 0, 53, 0
2, 278180, Note_on_c, 0, 45, 0
2, 278180, Note_on_c, 0, 60, 0
2, 278188, Note_on_c, 0, 33, 0
2, 278188, Control_c, 0, 64, 88
2, 278196, Note_on_c, 0, 63, 0
2, 278196, Control_c, 0, 64, 127
2, 278204, Note_on_c, 0, 65, 0
2, 278348, Note_on_c, 0, 88, 101
2, 278352, Note_on_c, 0, 76, 93
2, 278364, Note_on_c, 0, 64, 90
2, 278376, Note_on_c, 0, 76, 0
2, 278388, Note_on_c, 0, 88, 0
2, 278404, Note_on_c, 0, 64, 0
2, 278416, Note_on_c, 0, 89, 115
2, 278416, Note_on_c, 0, 65, 92
2, 278416, Note_on_c, 0, 77, 109
2, 278664, Note_on_c, 0, 89, 0
2, 278672, Note_on_c, 0, 77, 0
2, 278704, Note_on_c, 0, 65, 0
2, 278860, Note_on_c, 0, 83, 99
2, 278860, Note_on_c, 0, 71, 88
2, 278860, Note_on_c, 0, 59, 83
2, 278884, Note_on_c, 0, 71, 0
2, 278888, Note_on_c, 0, 83, 0
2, 278896, Note_on_c, 0, 59, 0
2, 278928, Note_on_c, 0, 84, 103
2, 278928, Note_on_c, 0, 72, 97
2, 278928, Note_on_c, 0, 60, 85
2, 278940, Control_c, 0, 64, 88
2, 278948, Control_c, 0, 64, 56
2, 278952, Control_c, 0, 64, 72
2, 278960, Note_on_c, 0, 72, 0
2, 278960, Control_c, 0, 64, 127
2, 278968, Note_on_c, 0, 84, 0
2, 279004, Note_on_c, 0, 60, 0
2, 279120, Note_on_c, 0, 68, 89
2, 279120, Note_on_c, 0, 80, 94
2, 279120, Note_on_c, 0, 56, 85
2, 279148, Note_on_c, 0, 68, 0
2, 279160, Note_on_c, 0, 80, 0
2, 279168, Note_on_c, 0, 56, 0
2, 279188, Note_on_c, 0, 81, 107
2, 279188, Note_on_c, 0, 69, 96
2, 279188, Note_on_c, 0, 57, 87
2, 279192, Control_c, 0, 64, 88
2, 279200, Control_c, 0, 64, 72
2, 279208, Control_c, 0, 64, 88
2, 279216, Control_c, 0, 64, 127
2, 279224, Note_on_c, 0, 69, 0
2, 279232, Note_on_c, 0, 81, 0
2, 279308, Note_on_c, 0, 57, 0
2, 279380, Note_on_c, 0, 76, 98
2, 279380, Note_on_c, 0, 64, 87
2, 279380, Note_on_c, 0, 52, 86
2, 279408, Note_on_c, 0, 76, 0
2, 279416, Note_on_c, 0, 64, 0
2, 279444, Note_on_c, 0, 77, 103
2, 279444, Note_on_c, 0, 65, 88
2, 279444, Note_on_c, 0, 53, 88
2, 279444, Control_c, 0, 64, 72
2, 279448, Note_on_c, 0, 52, 0
2, 279456, Control_c, 0, 64, 40
2, 279476, Note_on_c, 0, 53, 0
2, 279476, Note_on_c, 0, 65, 0
2, 279480, Control_c, 0, 64, 127
2, 279484, Note_on_c, 0, 77, 0
2, 279636, Note_on_c, 0, 71, 93
2, 279636, Note_on_c, 0, 59, 84
2, 279636, Note_on_c, 0, 47, 83
2, 279648, Note_on_c, 0, 59, 0
2, 279664, Note_on_c, 0, 71, 0
2, 279688, Control_c, 0, 64, 72
2, 279692, Note_on_c, 0, 72, 103
2, 279696, Note_on_c, 0, 60, 93
2, 279696, Control_c, 0, 64, 24
2, 279704, Note_on_c, 0, 47, 0
2, 279704, Note_on_c, 0, 48, 88
2, 279720, Control_c, 0, 64, 127
2, 279732, Note_on_c, 0, 60, 0
2, 279736, Note_on_c, 0, 72, 0
2, 279748, Note_on_c, 0, 48, 0
2, 279764, Note_on_c, 0, 48, 46
2, 279848, Note_on_c, 0, 48, 0
2, 279892, Note_on_c, 0, 68, 88
2, 279896, Note_on_c, 0, 56, 78
2, 279904, Note_on_c, 0, 44, 73
2, 279924, Note_on_c, 0, 56, 0
2, 279928, Note_on_c, 0, 68, 0
2, 279952, Control_c, 0, 64, 72
2, 279956, Note_on_c, 0, 69, 101
2, 279960, Note_on_c, 0, 57, 84
2, 279960, Control_c, 0, 64, 24
2, 279968, Note_on_c, 0, 44, 0
2, 279972, Note_on_c, 0, 45, 87
2, 279976, Note_on_c, 0, 57, 0
2, 279984, Control_c, 0, 64, 104
2, 279988, Note_on_c, 0, 69, 0
2, 279992, Control_c, 0, 64, 127
2, 280088, Note_on_c, 0, 45, 0
2, 280136, Note_on_c, 0, 41, 64
2, 280144, Note_on_c, 0, 65, 88
2, 280148, Note_on_c, 0, 53, 63
2, 280152, Note_on_c, 0, 41, 0
2, 280168, Note_on_c, 0, 53, 0
2, 280172, Note_on_c, 0, 65, 0
2, 280224, Control_c, 0, 64, 88
2, 280228, Note_on_c, 0, 56, 97
2, 280228, Note_on_c, 0, 68, 100
2, 280232, Note_on_c, 0, 65, 88
2, 280232, Control_c, 0, 64, 0
2, 280236, Note_on_c, 0, 62, 90
2, 280240, Note_on_c, 0, 46, 98
2, 280240, Note_on_c, 0, 34, 95
2, 280252, Note_on_c, 0, 56, 0
2, 280260, Note_on_c, 0, 65, 0
2, 280260, Control_c, 0, 64, 72
2, 280268, Note_on_c, 0, 34, 0
2, 280272, Note_on_c, 0, 46, 0
2, 280272, Control_c, 0, 64, 127
2, 280280, Note_on_c, 0, 62, 0
2, 280280, Note_on_c, 0, 68, 0
2, 280424, Note_on_c, 0, 79, 99
2, 280432, Note_on_c, 0, 67, 83
2, 280468, Note_on_c, 0, 79, 0
2, 280472, Note_on_c, 0, 67, 0
2, 280496, Note_on_c, 0, 80, 107
2, 280500, Note_on_c, 0, 68, 94
2, 280588, Control_c, 0, 64, 104
2, 280596, Control_c, 0, 64, 88
2, 280604, Control_c, 0, 64, 104
2, 280612, Control_c, 0, 64, 127
2, 280768, Note_on_c, 0, 68, 0
2, 280768, Note_on_c, 0, 80, 0
2, 280928, Note_on_c, 0, 76, 99
2, 280932, Note_on_c, 0, 64, 88
2, 280972, Note_on_c, 0, 64, 0
2, 280976, Note_on_c, 0, 76, 0
2, 280996, Note_on_c, 0, 77, 103
2, 281000, Note_on_c, 0, 65, 88
2, 281016, Control_c, 0, 64, 72
2, 281020, Control_c, 0, 64, 56
2, 281036, Control_c, 0, 64, 104
2, 281044, Control_c, 0, 64, 127
2, 281056, Note_on_c, 0, 77, 0
2, 281068, Note_on_c, 0, 65, 0
2, 281196, Note_on_c, 0, 73, 93
2, 281204, Note_on_c, 0, 61, 75
2, 281240, Note_on_c, 0, 61, 0
2, 281248, Note_on_c, 0, 73, 0
2, 281260, Note_on_c, 0, 74, 103
2, 281264, Note_on_c, 0, 62, 93
2, 281268, Control_c, 0, 64, 72
2, 281276, Control_c, 0, 64, 56
2, 281284, Control_c, 0, 64, 88
2, 281292, Control_c, 0, 64, 127
2, 281320, Note_on_c, 0, 74, 0
2, 281348, Note_on_c, 0, 62, 0
2, 281460, Note_on_c, 0, 67, 94
2, 281464, Note_on_c, 0, 55, 84
2, 281504, Note_on_c, 0, 67, 0
2, 281508, Control_c, 0, 64, 104
2, 281512, Note_on_c, 0, 55, 0
2, 281516, Control_c, 0, 64, 40
2, 281520, Note_on_c, 0, 68, 98
2, 281524, Control_c, 0, 64, 0
2, 281532, Note_on_c, 0, 56, 98
2, 281532, Control_c, 0, 64, 24
2, 281540, Control_c, 0, 64, 72
2, 281548, Control_c, 0, 64, 127
2, 281572, Note_on_c, 0, 68, 0
2, 281620, Note_on_c, 0, 56, 0
2, 281720, Note_on_c, 0, 64, 97
2, 281728, Note_on_c, 0, 52, 81
2, 281760, Note_on_c, 0, 52, 0
2, 281764, Note_on_c, 0, 64, 0
2, 281772, Control_c, 0, 64, 56
2, 281780, Control_c, 0, 64, 0
2, 281784, Note_on_c, 0, 65, 98
2, 281788, Note_on_c, 0, 53, 86
2, 281812, Control_c, 0, 64, 88
2, 281820, Control_c, 0, 64, 127
2, 281828, Note_on_c, 0, 65, 0
2, 281872, Note_on_c, 0, 53, 0
2, 281964, Note_on_c, 0, 61, 91
2, 281964, Note_on_c, 0, 49, 78
2, 282008, Note_on_c, 0, 49, 0
2, 282008, Note_on_c, 0, 61, 0
2, 282020, Control_c, 0, 64, 56
2, 282024, Note_on_c, 0, 62, 98
2, 282028, Control_c, 0, 64, 40
2, 282032, Note_on_c, 0, 50, 81
2, 282036, Control_c, 0, 64, 72
2, 282044, Control_c, 0, 64, 127
2, 282104, Note_on_c, 0, 62, 0
2, 282140, Note_on_c, 0, 50, 0
2, 282204, Note_on_c, 0, 56, 93
2, 282204, Note_on_c, 0, 44, 92
2, 282248, Note_on_c, 0, 56, 0
2, 282252, Note_on_c, 0, 44, 0
2, 282300, Note_on_c, 0, 67, 104
2, 282300, Control_c, 0, 64, 72
2, 282308, Note_on_c, 0, 62, 99
2, 282308, Note_on_c, 0, 43, 97
2, 282308, Note_on_c, 0, 35, 97
2, 282308, Note_on_c, 0, 55, 103
2, 282308, Note_on_c, 0, 65, 88
2, 282308, Control_c, 0, 64, 0
2, 282340, Note_on_c, 0, 65, 0
2, 282340, Control_c, 0, 64, 72
2, 282348, Control_c, 0, 64, 127
2, 282404, Note_on_c, 0, 43, 0
2, 282412, Note_on_c, 0, 35, 0
2, 282424, Note_on_c, 0, 62, 0
2, 282428, Note_on_c, 0, 55, 0
2, 282432, Note_on_c, 0, 67, 0
2, 282496, Note_on_c, 0, 90, 96
2, 282500, Note_on_c, 0, 78, 93
2, 282500, Note_on_c, 0, 66, 78
2, 282528, Note_on_c, 0, 78, 0
2, 282536, Note_on_c, 0, 66, 0
2, 282536, Note_on_c, 0, 90, 0
2, 282564, Note_on_c, 0, 91, 112
2, 282568, Note_on_c, 0, 79, 97
2, 282572, Note_on_c, 0, 67, 80
2, 282760, Note_on_c, 0, 91, 0
2, 282792, Note_on_c, 0, 79, 0
2, 282948, Note_on_c, 0, 67, 0
2, 282960, Note_on_c, 0, 85, 98
2, 282964, Note_on_c, 0, 73, 89
2, 282964, Note_on_c, 0, 61, 73
2, 282996, Note_on_c, 0, 73, 0
2, 283004, Note_on_c, 0, 85, 0
2, 283028, Note_on_c, 0, 86, 101
2, 283032, Note_on_c, 0, 61, 0
2, 283032, Note_on_c, 0, 74, 92
2, 283044, Note_on_c, 0, 62, 83
2, 283060, Note_on_c, 0, 74, 0
2, 283064, Note_on_c, 0, 86, 0
2, 283160, Note_on_c, 0, 62, 0
2, 283176, Note_on_c, 0, 59, 66
2, 283184, Note_on_c, 0, 83, 93
2, 283188, Note_on_c, 0, 59, 0
2, 283192, Note_on_c, 0, 71, 69
2, 283208, Note_on_c, 0, 71, 0
2, 283208, Note_on_c, 0, 83, 0
2, 283292, Note_on_c, 0, 63, 96
2, 283296, Note_on_c, 0, 68, 101
2, 283296, Note_on_c, 0, 51, 90
2, 283296, Note_on_c, 0, 60, 98
2, 283296, Note_on_c, 0, 56, 91
2, 283296, Note_on_c, 0, 48, 93
2, 283300, Control_c, 0, 64, 56
2, 283308, Control_c, 0, 64, 0
2, 283320, Note_on_c, 0, 63, 0
2, 283328, Note_on_c, 0, 56, 0
2, 283328, Control_c, 0, 64, 40
2, 283332, Note_on_c, 0, 68, 0
2, 283332, Note_on_c, 0, 48, 0
2, 283336, Note_on_c, 0, 51, 0
2, 283336, Control_c, 0, 64, 127
2, 283348, Note_on_c, 0, 60, 0
2, 283472, Note_on_c, 0, 79, 98
2, 283484, Note_on_c, 0, 67, 88
2, 283512, Note_on_c, 0, 79, 0
2, 283520, Note_on_c, 0, 67, 0
2, 283536, Note_on_c, 0, 80, 107
2, 283548, Note_on_c, 0, 68, 96
2, 283720, Note_on_c, 0, 68, 0
2, 283720, Note_on_c, 0, 80, 0
2, 283936, Note_on_c, 0, 62, 88
2, 283936, Note_on_c, 0, 74, 97
2, 283976, Note_on_c, 0, 62, 0
2, 283992, Note_on_c, 0, 74, 0
2, 284016, Note_on_c, 0, 75, 100
2, 284016, Note_on_c, 0, 63, 91
2, 284044, Control_c, 0, 64, 88
2, 284052, Control_c, 0, 64, 56
2, 284056, Control_c, 0, 64, 88
2, 284064, Control_c, 0, 64, 127
2, 284088, Note_on_c, 0, 75, 0
2, 284112, Note_on_c, 0, 63, 0
2, 284180, Note_on_c, 0, 72, 100
2, 284180, Note_on_c, 0, 60, 88
2, 284220, Note_on_c, 0, 60, 0
2, 284220, Note_on_c, 0, 72, 0
2, 284284, Note_on_c, 0, 83, 112
2, 284288, Note_on_c, 0, 71, 98
2, 284288, Note_on_c, 0, 77, 98
2, 284288, Note_on_c, 0, 59, 93
2, 284292, Note_on_c, 0, 50, 85
2, 284292, Note_on_c, 0, 53, 88
2, 284296, Control_c, 0, 64, 56
2, 284308, Control_c, 0, 64, 0
2, 284328, Note_on_c, 0, 77, 0
2, 284328, Control_c, 0, 64, 72
2, 284332, Note_on_c, 0, 71, 0
2, 284332, Note_on_c, 0, 50, 0
2, 284332, Note_on_c, 0, 53, 0
2, 284336, Control_c, 0, 64, 127
2, 284344, Note_on_c, 0, 59, 0
2, 284352, Note_on_c, 0, 83, 0
2, 284440, Note_on_c, 0, 82, 89
2, 284440, Note_on_c, 0, 94, 101
2, 284440, Note_on_c, 0, 70, 84
2, 284480, Note_on_c, 0, 82, 0
2, 284484, Note_on_c, 0, 70, 0
2, 284484, Note_on_c, 0, 94, 0
2, 284532, Note_on_c, 0, 95, 113
2, 284532, Note_on_c, 0, 71, 95
2, 284532, Note_on_c, 0, 83, 98
2, 284716, Note_on_c, 0, 95, 0
2, 284728, Note_on_c, 0, 83, 0
2, 284800, Note_on_c, 0, 71, 0
2, 284912, Note_on_c, 0, 76, 93
2, 284912, Note_on_c, 0, 88, 98
2, 284920, Note_on_c, 0, 64, 78
2, 284940, Note_on_c, 0, 76, 0
2, 284944, Note_on_c, 0, 88, 0
2, 284964, Note_on_c, 0, 64, 0
2, 284980, Note_on_c, 0, 89, 104
2, 284984, Note_on_c, 0, 77, 98
2, 284996, Note_on_c, 0, 65, 79
2, 285008, Note_on_c, 0, 89, 0
2, 285012, Note_on_c, 0, 77, 0
2, 285116, Note_on_c, 0, 65, 0
2, 285148, Note_on_c, 0, 86, 98
2, 285148, Note_on_c, 0, 74, 93
2, 285148, Note_on_c, 0, 62, 84
2, 285164, Note_on_c, 0, 62, 0
2, 285168, Note_on_c, 0, 74, 0
2, 285180, Note_on_c, 0, 86, 0
2, 285252, Note_on_c, 0, 72, 118
2, 285256, Note_on_c, 0, 67, 98
2, 285260, Note_on_c, 0, 60, 103
2, 285260, Note_on_c, 0, 55, 90
2, 285260, Control_c, 0, 64, 40
2, 285268, Control_c, 0, 64, 0
2, 285272, Note_on_c, 0, 51, 70
2, 285292, Note_on_c, 0, 67, 0
2, 285296, Control_c, 0, 64, 40
2, 285304, Control_c, 0, 64, 127
2, 285308, Note_on_c, 0, 55, 0
2, 285316, Note_on_c, 0, 72, 0
2, 285316, Note_on_c, 0, 60, 0
2, 285320, Note_on_c, 0, 51, 0
2, 285456, Note_on_c, 0, 83, 104
2, 285456, Note_on_c, 0, 71, 90
2, 285484, Note_on_c, 0, 83, 0
2, 285488, Note_on_c, 0, 71, 0
2, 285540, Note_on_c, 0, 84, 108
2, 285540, Note_on_c, 0, 72, 103
2, 285752, Note_on_c, 0, 84, 0
2, 285776, Note_on_c, 0, 72, 0
2, 285896, Note_on_c, 0, 66, 91
2, 285896, Note_on_c, 0, 78, 99
2, 285928, Note_on_c, 0, 78, 0
2, 285956, Note_on_c, 0, 66, 0
2, 285976, Note_on_c, 0, 79, 101
2, 285976, Note_on_c, 0, 67, 88
2, 286004, Note_on_c, 0, 79, 0
2, 286124, Note_on_c, 0, 67, 0
2, 286156, Note_on_c, 0, 63, 86
2, 286156, Note_on_c, 0, 75, 99
2, 286188, Note_on_c, 0, 75, 0
2, 286188, Note_on_c, 0, 63, 0
2, 286296, Note_on_c, 0, 73, 105
2, 286300, Note_on_c, 0, 85, 105
2, 286300, Note_on_c, 0, 80, 83
2, 286300, Note_on_c, 0, 53, 93
2, 286300, Note_on_c, 0, 56, 88
2, 286300, Note_on_c, 0, 61, 87
2, 286300, Note_on_c, 0, 41, 91
2, 286312, Control_c, 0, 64, 40
2, 286320, Control_c, 0, 64, 0
2, 286332, Note_on_c, 0, 73, 0
2, 286352, Control_c, 0, 64, 56
2, 286360, Control_c, 0, 64, 127
2, 286448, Control_c, 0, 64, 88
2, 286460, Note_on_c, 0, 80, 0
2, 286464, Note_on_c, 0, 84, 103
2, 286464, Note_on_c, 0, 60, 81
2, 286464, Note_on_c, 0, 72, 93
2, 286464, Control_c, 0, 64, 72
2, 286468, Note_on_c, 0, 61, 0
2, 286472, Note_on_c, 0, 85, 0
2, 286476, Note_on_c, 0, 53, 0
2, 286480, Note_on_c, 0, 56, 0
2, 286488, Control_c, 0, 64, 40
2, 286496, Note_on_c, 0, 72, 0
2, 286496, Control_c, 0, 64, 104
2, 286500, Control_c, 0, 64, 127
2, 286512, Note_on_c, 0, 84, 0
2, 286548, Note_on_c, 0, 60, 0
2, 286588, Note_on_c, 0, 73, 96
2, 286588, Note_on_c, 0, 85, 105
2, 286588, Note_on_c, 0, 61, 80
2, 286608, Note_on_c, 0, 73, 0
2, 286612, Note_on_c, 0, 61, 0
2, 286616, Note_on_c, 0, 85, 0
2, 286700, Note_on_c, 0, 92, 112
2, 286700, Note_on_c, 0, 80, 98
2, 286700, Note_on_c, 0, 68, 90
2, 286736, Note_on_c, 0, 80, 0
2, 286740, Note_on_c, 0, 92, 0
2, 286792, Note_on_c, 0, 68, 0
2, 286824, Note_on_c, 0, 66, 87
2, 286824, Note_on_c, 0, 78, 99
2, 286824, Note_on_c, 0, 90, 106
2, 286884, Note_on_c, 0, 90, 0
2, 286884, Note_on_c, 0, 78, 0
2, 286916, Note_on_c, 0, 66, 0
2, 286932, Note_on_c, 0, 89, 103
2, 286932, Note_on_c, 0, 77, 96
2, 286936, Note_on_c, 0, 65, 88
2, 286940, Note_on_c, 0, 41, 0
2, 286980, Note_on_c, 0, 89, 0
2, 286980, Note_on_c, 0, 77, 0
2, 287028, Note_on_c, 0, 65, 0
2, 287040, Note_on_c, 0, 88, 104
2, 287040, Note_on_c, 0, 64, 83
2, 287044, Note_on_c, 0, 76, 95
2, 287064, Note_on_c, 0, 76, 0
2, 287080, Note_on_c, 0, 88, 0
2, 287124, Note_on_c, 0, 64, 0
2, 287148, Note_on_c, 0, 89, 108
2, 287148, Note_on_c, 0, 77, 101
2, 287148, Note_on_c, 0, 65, 80
2, 287180, Note_on_c, 0, 77, 0
2, 287180, Note_on_c, 0, 89, 0
2, 287236, Note_on_c, 0, 65, 0
2, 287260, Note_on_c, 0, 63, 87
2, 287260, Note_on_c, 0, 75, 101
2, 287260, Note_on_c, 0, 87, 106
2, 287264, Control_c, 0, 64, 56
2, 287272, Control_c, 0, 64, 0
2, 287292, Control_c, 0, 64, 56
2, 287296, Control_c, 0, 64, 127
2, 287324, Note_on_c, 0, 75, 0
2, 287332, Note_on_c, 0, 87, 0
2, 287360, Note_on_c, 0, 63, 0
2, 287364, Note_on_c, 0, 85, 97
2, 287364, Note_on_c, 0, 73, 93
2, 287368, Note_on_c, 0, 61, 73
2, 287416, Note_on_c, 0, 73, 0
2, 287416, Note_on_c, 0, 85, 0
2, 287460, Note_on_c, 0, 61, 0
2, 287468, Note_on_c, 0, 84, 103
2, 287472, Note_on_c, 0, 72, 92
2, 287472, Note_on_c, 0, 60, 77
2, 287496, Note_on_c, 0, 72, 0
2, 287504, Note_on_c, 0, 84, 0
2, 287560, Note_on_c, 0, 60, 0
2, 287576, Note_on_c, 0, 61, 83
2, 287580, Note_on_c, 0, 85, 90
2, 287584, Note_on_c, 0, 73, 90
2, 287600, Note_on_c, 0, 61, 0
2, 287604, Note_on_c, 0, 85, 0
2, 287608, Note_on_c, 0, 73, 0
2, 287692, Note_on_c, 0, 78, 105
2, 287692, Note_on_c, 0, 66, 94
2, 287692, Note_on_c, 0, 54, 91
2, 287696, Control_c, 0, 64, 72
2, 287704, Control_c, 0, 64, 24
2, 287708, Control_c, 0, 64, 0
2, 287728, Control_c, 0, 64, 24
2, 287736, Control_c, 0, 64, 72
2, 287740, Control_c, 0, 64, 127
2, 287756, Note_on_c, 0, 78, 0
2, 287760, Note_on_c, 0, 66, 0
2, 287784, Note_on_c, 0, 54, 0
2, 287796, Note_on_c, 0, 53, 82
2, 287796, Note_on_c, 0, 77, 99
2, 287800, Note_on_c, 0, 65, 89
2, 287848, Note_on_c, 0, 65, 0
2, 287852, Note_on_c, 0, 77, 0
2, 287884, Note_on_c, 0, 53, 0
2, 287904, Note_on_c, 0, 76, 100
2, 287904, Note_on_c, 0, 64, 88
2, 287908, Note_on_c, 0, 52, 81
2, 287932, Note_on_c, 0, 64, 0
2, 287944, Note_on_c, 0, 76, 0
2, 288000, Note_on_c, 0, 52, 0
2, 288012, Note_on_c, 0, 77, 104
2, 288012, Note_on_c, 0, 65, 94
2, 288016, Note_on_c, 0, 53, 84
2, 288044, Note_on_c, 0, 65, 0
2, 288048, Note_on_c, 0, 77, 0
2, 288100, Note_on_c, 0, 53, 0
2, 288120, Note_on_c, 0, 75, 106
2, 288120, Note_on_c, 0, 63, 97
2, 288120, Control_c, 0, 64, 104
2, 288124, Note_on_c, 0, 51, 97
2, 288128, Control_c, 0, 64, 24
2, 288132, Control_c, 0, 64, 0
2, 288164, Control_c, 0, 64, 24
2, 288172, Control_c, 0, 64, 88
2, 288176, Control_c, 0, 64, 127
2, 288184, Note_on_c, 0, 63, 0
2, 288196, Note_on_c, 0, 75, 0
2, 288212, Note_on_c, 0, 51, 0
2, 288228, Note_on_c, 0, 73, 93
2, 288228, Note_on_c, 0, 61, 83
2, 288232, Note_on_c, 0, 49, 78
2, 288272, Note_on_c, 0, 61, 0
2, 288276, Note_on_c, 0, 73, 0
2, 288316, Note_on_c, 0, 49, 0
2, 288336, Note_on_c, 0, 72, 98
2, 288340, Note_on_c, 0, 60, 88
2, 288340, Note_on_c, 0, 48, 78
2, 288372, Note_on_c, 0, 60, 0
2, 288376, Note_on_c, 0, 72, 0
2, 288432, Note_on_c, 0, 48, 0
2, 288440, Note_on_c, 0, 49, 83
2, 288440, Note_on_c, 0, 73, 95
2, 288444, Note_on_c, 0, 61, 89
2, 288460, Note_on_c, 0, 49, 0
2, 288464, Note_on_c, 0, 73, 0
2, 288468, Note_on_c, 0, 61, 0
2, 288548, Note_on_c, 0, 66, 103
2, 288552, Note_on_c, 0, 54, 97
2, 288552, Note_on_c, 0, 42, 99
2, 288552, Control_c, 0, 64, 56
2, 288556, Control_c, 0, 64, 0
2, 288588, Control_c, 0, 64, 72
2, 288596, Control_c, 0, 64, 127
2, 288616, Note_on_c, 0, 54, 0
2, 288616, Note_on_c, 0, 66, 0
2, 288640, Note_on_c, 0, 42, 0
2, 288656, Note_on_c, 0, 65, 94
2, 288656, Note_on_c, 0, 41, 81
2, 288660, Note_on_c, 0, 53, 88
2, 288700, Note_on_c, 0, 53, 0
2, 288704, Note_on_c, 0, 65, 0
2, 288732, Note_on_c, 0, 41, 0
2, 288760, Note_on_c, 0, 64, 98
2, 288760, Note_on_c, 0, 52, 90
2, 288760, Note_on_c, 0, 40, 74
2, 288784, Note_on_c, 0, 52, 0
2, 288796, Note_on_c, 0, 64, 0
2, 288844, Note_on_c, 0, 40, 0
2, 288860, Note_on_c, 0, 65, 96
2, 288864, Note_on_c, 0, 53, 92
2, 288868, Note_on_c, 0, 41, 79
2, 288892, Note_on_c, 0, 53, 0
2, 288896, Note_on_c, 0, 65, 0
2, 288944, Note_on_c, 0, 41, 0
2, 288972, Note_on_c, 0, 63, 98
2, 288976, Note_on_c, 0, 39, 92
2, 288976, Note_on_c, 0, 51, 98
2, 288976, Control_c, 0, 64, 56
2, 288980, Control_c, 0, 64, 0
2, 289020, Control_c, 0, 64, 56
2, 289024, Control_c, 0, 64, 127
2, 289032, Note_on_c, 0, 51, 0
2, 289044, Note_on_c, 0, 63, 0
2, 289072, Note_on_c, 0, 39, 0
2, 289076, Note_on_c, 0, 49, 94
2, 289076, Note_on_c, 0, 61, 88
2, 289080, Note_on_c, 0, 37, 78
2, 289128, Note_on_c, 0, 61, 0
2, 289128, Note_on_c, 0, 49, 0
2, 289180, Note_on_c, 0, 60, 96
2, 289184, Note_on_c, 0, 48, 84
2, 289192, Note_on_c, 0, 36, 84
2, 289196, Note_on_c, 0, 37, 0
2, 289212, Note_on_c, 0, 48, 0
2, 289220, Note_on_c, 0, 60, 0
2, 289292, Note_on_c, 0, 37, 87
2, 289292, Note_on_c, 0, 61, 99
2, 289292, Note_on_c, 0, 49, 96
2, 289300, Note_on_c, 0, 36, 0
2, 289320, Note_on_c, 0, 49, 0
2, 289324, Note_on_c, 0, 37, 0
2, 289344, Note_on_c, 0, 61, 0
2, 289380, Control_c, 0, 64, 104
2, 289384, Control_c, 0, 64, 40
2, 289392, Control_c, 0, 64, 0
2, 289400, Note_on_c, 0, 54, 103
2, 289404, Note_on_c, 0, 42, 94
2, 289408, Note_on_c, 0, 30, 87
2, 289424, Control_c, 0, 64, 40
2, 289428, Control_c, 0, 64, 104
2, 289436, Control_c, 0, 64, 127
2, 289472, Note_on_c, 0, 30, 0
2, 289488, Note_on_c, 0, 42, 0
2, 289496, Note_on_c, 0, 54, 0
2, 289520, Note_on_c, 0, 53, 104
2, 289524, Note_on_c, 0, 41, 86
2, 289524, Note_on_c, 0, 29, 79
2, 289572, Note_on_c, 0, 29, 0
2, 289584, Note_on_c, 0, 41, 0
2, 289624, Note_on_c, 0, 53, 0
2, 289628, Note_on_c, 0, 52, 106
2, 289632, Note_on_c, 0, 40, 84
2, 289636, Note_on_c, 0, 28, 79
2, 289664, Note_on_c, 0, 28, 0
2, 289672, Note_on_c, 0, 40, 0
2, 289732, Note_on_c, 0, 52, 0
2, 289740, Note_on_c, 0, 53, 106
2, 289752, Note_on_c, 0, 41, 85
2, 289752, Note_on_c, 0, 29, 78
2, 289764, Note_on_c, 0, 53, 0
2, 289768, Note_on_c, 0, 29, 0
2, 289776, Note_on_c, 0, 41, 0
2, 289892, Control_c, 0, 64, 72
2, 289896, Control_c, 0, 64, 0
2, 289900, Note_on_c, 0, 75, 94
2, 289900, Note_on_c, 0, 72, 100
2, 289900, Note_on_c, 0, 84, 104
2, 289900, Note_on_c, 0, 30, 93
2, 289900, Note_on_c, 0, 42, 100
2, 289904, Note_on_c, 0, 81, 91
2, 289936, Control_c, 0, 64, 40
2, 289940, Control_c, 0, 64, 127
2, 289944, Note_on_c, 0, 81, 0
2, 290020, Note_on_c, 0, 84, 0
2, 290028, Note_on_c, 0, 72, 0
2, 290036, Note_on_c, 0, 42, 0
2, 290040, Note_on_c, 0, 71, 101
2, 290040, Note_on_c, 0, 83, 107
2, 290040, Note_on_c, 0, 59, 79
2, 290044, Note_on_c, 0, 75, 0
2, 290064, Note_on_c, 0, 30, 0
2, 290076, Note_on_c, 0, 83, 0
2, 290080, Note_on_c, 0, 71, 0
2, 290084, Note_on_c, 0, 59, 0
2, 290156, Note_on_c, 0, 84, 107
2, 290156, Note_on_c, 0, 60, 91
2, 290156, Note_on_c, 0, 72, 103
2, 290188, Note_on_c, 0, 72, 0
2, 290188, Note_on_c, 0, 60, 0
2, 290188, Note_on_c, 0, 84, 0
2, 290276, Note_on_c, 0, 96, 96
2, 290276, Note_on_c, 0, 84, 99
2, 290276, Note_on_c, 0, 72, 93
2, 290312, Note_on_c, 0, 96, 0
2, 290316, Note_on_c, 0, 84, 0
2, 290352, Note_on_c, 0, 72, 0
2, 290392, Note_on_c, 0, 65, 94
2, 290392, Note_on_c, 0, 89, 103
2, 290392, Note_on_c, 0, 77, 93
2, 290432, Note_on_c, 0, 77, 0
2, 290440, Note_on_c, 0, 89, 0
2, 290480, Note_on_c, 0, 65, 0
2, 290496, Note_on_c, 0, 87, 96
2, 290496, Note_on_c, 0, 75, 98
2, 290496, Note_on_c, 0, 63, 90
2, 290536, Note_on_c, 0, 87, 0
2, 290544, Note_on_c, 0, 75, 0
2, 290568, Note_on_c, 0, 63, 0
2, 290604, Note_on_c, 0, 62, 88
2, 290604, Note_on_c, 0, 86, 103
2, 290604, Note_on_c, 0, 74, 97
2, 290636, Note_on_c, 0, 74, 0
2, 290644, Note_on_c, 0, 86, 0
2, 290680, Note_on_c, 0, 62, 0
2, 290704, Note_on_c, 0, 87, 100
2, 290704, Note_on_c, 0, 75, 102
2, 290704, Note_on_c, 0, 63, 88
2, 290752, Note_on_c, 0, 75, 0
2, 290760, Note_on_c, 0, 87, 0
2, 290792, Note_on_c, 0, 63, 0
2, 290808, Control_c, 0, 64, 104
2, 290816, Note_on_c, 0, 62, 88
2, 290816, Note_on_c, 0, 86, 106
2, 290816, Note_on_c, 0, 74, 103
2, 290816, Control_c, 0, 64, 40
2, 290820, Control_c, 0, 64, 24
2, 290828, Control_c, 0, 64, 56
2, 290832, Control_c, 0, 64, 104
2, 290840, Control_c, 0, 64, 127
2, 290872, Note_on_c, 0, 74, 0
2, 290872, Note_on_c, 0, 86, 0
2, 290896, Note_on_c, 0, 62, 0
2, 290920, Note_on_c, 0, 60, 89
2, 290920, Note_on_c, 0, 84, 100
2, 290920, Note_on_c, 0, 72, 93
2, 290952, Note_on_c, 0, 72, 0
2, 290968, Note_on_c, 0, 84, 0
2, 291000, Note_on_c, 0, 60, 0
2, 291024, Note_on_c, 0, 83, 97
2, 291024, Note_on_c, 0, 71, 92
2, 291024, Note_on_c, 0, 59, 85
2, 291052, Note_on_c, 0, 71, 0
2, 291068, Note_on_c, 0, 83, 0
2, 291132, Note_on_c, 0, 84, 101
2, 291132, Note_on_c, 0, 72, 91
2, 291132, Note_on_c, 0, 60, 81
2, 291136, Note_on_c, 0, 59, 0
2, 291144, Note_on_c, 0, 60, 0
2, 291156, Note_on_c, 0, 72, 0
2, 291164, Note_on_c, 0, 84, 0
2, 291248, Note_on_c, 0, 53, 98
2, 291248, Note_on_c, 0, 77, 108
2, 291248, Note_on_c, 0, 65, 92
2, 291256, Control_c, 0, 64, 56
2, 291264, Control_c, 0, 64, 0
2, 291284, Control_c, 0, 64, 24
2, 291288, Control_c, 0, 64, 88
2, 291296, Note_on_c, 0, 65, 0
2, 291296, Control_c, 0, 64, 127
2, 291312, Note_on_c, 0, 77, 0
2, 291344, Note_on_c, 0, 53, 0
2, 291352, Note_on_c, 0, 75, 94
2, 291352, Note_on_c, 0, 51, 84
2, 291352, Note_on_c, 0, 63, 87
2, 291404, Note_on_c, 0, 63, 0
2, 291416, Note_on_c, 0, 75, 0
2, 291440, Note_on_c, 0, 51, 0
2, 291460, Note_on_c, 0, 74, 100
2, 291460, Note_on_c, 0, 50, 88
2, 291460, Note_on_c, 0, 62, 91
2, 291492, Note_on_c, 0, 62, 0
2, 291504, Note_on_c, 0, 74, 0
2, 291540, Note_on_c, 0, 50, 0
2, 291568, Note_on_c, 0, 75, 98
2, 291568, Note_on_c, 0, 63, 93
2, 291568, Note_on_c, 0, 51, 87
2, 291604, Note_on_c, 0, 63, 0
2, 291612, Note_on_c, 0, 75, 0
2, 291652, Note_on_c, 0, 51, 0
2, 291660, Control_c, 0, 64, 56
2, 291668, Control_c, 0, 64, 0
2, 291672, Note_on_c, 0, 74, 106
2, 291672, Note_on_c, 0, 50, 100
2, 291672, Note_on_c, 0, 62, 101
2, 291692, Control_c, 0, 64, 56
2, 291700, Control_c, 0, 64, 127
2, 291728, Note_on_c, 0, 62, 0
2, 291728, Note_on_c, 0, 74, 0
2, 291752, Note_on_c, 0, 50, 0
2, 291780, Note_on_c, 0, 72, 98
2, 291780, Note_on_c, 0, 60, 90
2, 291780, Note_on_c, 0, 48, 86
2, 291828, Note_on_c, 0, 60, 0
2, 291832, Note_on_c, 0, 72, 0
2, 291848, Note_on_c, 0, 48, 0
2, 291888, Note_on_c, 0, 71, 94
2, 291888, Note_on_c, 0, 59, 86
2, 291888, Note_on_c, 0, 47, 86
2, 291912, Note_on_c, 0, 59, 0
2, 291920, Note_on_c, 0, 71, 0
2, 291968, Note_on_c, 0, 47, 0
2, 291988, Note_on_c, 0, 72, 100
2, 291988, Note_on_c, 0, 48, 91
2, 291988, Note_on_c, 0, 60, 90
2, 292012, Note_on_c, 0, 60, 0
2, 292020, Note_on_c, 0, 48, 0
2, 292024, Note_on_c, 0, 72, 0
2, 292104, Note_on_c, 0, 41, 93
2, 292104, Note_on_c, 0, 65, 103
2, 292104, Note_on_c, 0, 53, 95
2, 292104, Control_c, 0, 64, 88
2, 292112, Control_c, 0, 64, 0
2, 292144, Control_c, 0, 64, 56
2, 292148, Control_c, 0, 64, 127
2, 292156, Note_on_c, 0, 53, 0
2, 292164, Note_on_c, 0, 65, 0
2, 292192, Note_on_c, 0, 41, 0
2, 292208, Note_on_c, 0, 63, 94
2, 292208, Note_on_c, 0, 51, 95
2, 292208, Note_on_c, 0, 39, 87
2, 292256, Note_on_c, 0, 63, 0
2, 292264, Note_on_c, 0, 51, 0
2, 292300, Note_on_c, 0, 39, 0
2, 292316, Note_on_c, 0, 62, 98
2, 292316, Note_on_c, 0, 38, 91
2, 292316, Note_on_c, 0, 50, 92
2, 292348, Note_on_c, 0, 50, 0
2, 292348, Note_on_c, 0, 62, 0
2, 292412, Note_on_c, 0, 38, 0
2, 292420, Note_on_c, 0, 63, 96
2, 292420, Note_on_c, 0, 51, 95
2, 292420, Note_on_c, 0, 39, 82
2, 292476, Note_on_c, 0, 51, 0
2, 292484, Note_on_c, 0, 63, 0
2, 292520, Note_on_c, 0, 39, 0
2, 292528, Note_on_c, 0, 38, 86
2, 292528, Note_on_c, 0, 62, 103
2, 292528, Control_c, 0, 64, 88
2, 292532, Note_on_c, 0, 50, 98
2, 292536, Control_c, 0, 64, 0
2, 292560, Control_c, 0, 64, 40
2, 292568, Control_c, 0, 64, 104
2, 292572, Control_c, 0, 64, 127
2, 292584, Note_on_c, 0, 62, 0
2, 292588, Note_on_c, 0, 50, 0
2, 292612, Note_on_c, 0, 38, 0
2, 292636, Note_on_c, 0, 36, 80
2, 292636, Note_on_c, 0, 60, 100
2, 292636, Note_on_c, 0, 48, 90
2, 292688, Note_on_c, 0, 48, 0
2, 292688, Note_on_c, 0, 60, 0
2, 292732, Note_on_c, 0, 36, 0
2, 292744, Note_on_c, 0, 59, 90
2, 292744, Note_on_c, 0, 47, 84
2, 292744, Note_on_c, 0, 35, 86
2, 292768, Note_on_c, 0, 47, 0
2, 292784, Note_on_c, 0, 59, 0
2, 292844, Note_on_c, 0, 35, 0
2, 292852, Note_on_c, 0, 36, 85
2, 292852, Note_on_c, 0, 60, 99
2, 292852, Note_on_c, 0, 48, 96
2, 292888, Note_on_c, 0, 60, 0
2, 292896, Note_on_c, 0, 36, 0
2, 292900, Note_on_c, 0, 48, 0
2, 292964, Control_c, 0, 64, 104
2, 292972, Control_c, 0, 64, 0
2, 292976, Note_on_c, 0, 53, 99
2, 292976, Note_on_c, 0, 41, 96
2, 292976, Note_on_c, 0, 29, 88
2, 293016, Control_c, 0, 64, 88
2, 293020, Note_on_c, 0, 29, 0
2, 293020, Control_c, 0, 64, 127
2, 293024, Note_on_c, 0, 41, 0
2, 293084, Note_on_c, 0, 53, 0
2, 293104, Note_on_c, 0, 51, 101
2, 293104, Note_on_c, 0, 39, 92
2, 293104, Note_on_c, 0, 27, 88
2, 293112, Control_c, 0, 64, 104
2, 293116, Control_c, 0, 64, 24
2, 293124, Control_c, 0, 64, 0
2, 293136, Control_c, 0, 64, 24
2, 293144, Control_c, 0, 64, 88
2, 293148, Control_c, 0, 64, 127
2, 293176, Note_on_c, 0, 27, 0
2, 293196, Note_on_c, 0, 39, 0
2, 293224, Note_on_c, 0, 51, 0
2, 293232, Note_on_c, 0, 50, 104
2, 293232, Note_on_c, 0, 38, 94
2, 293232, Note_on_c, 0, 26, 88
2, 293232, Control_c, 0, 64, 104
2, 293236, Control_c, 0, 64, 0
2, 293268, Control_c, 0, 64, 56
2, 293272, Control_c, 0, 64, 127
2, 293276, Note_on_c, 0, 26, 0
2, 293312, Note_on_c, 0, 38, 0
2, 293376, Control_c, 0, 64, 40
2, 293380, Note_on_c, 0, 50, 0
2, 293384, Note_on_c, 0, 48, 108
2, 293384, Note_on_c, 0, 36, 98
2, 293384, Note_on_c, 0, 24, 94
2, 293384, Control_c, 0, 64, 0
2, 293416, Note_on_c, 0, 24, 0
2, 293420, Control_c, 0, 64, 127
2, 293436, Note_on_c, 0, 36, 0
2, 293452, Note_on_c, 0, 48, 0
2, 293560, Control_c, 0, 64, 0
2, 293588, Note_on_c, 0, 71, 98
2, 293588, Note_on_c, 0, 31, 73
2, 293588, Note_on_c, 0, 43, 65
2, 293588, Note_on_c, 0, 67, 75
2, 293588, Note_on_c, 0, 62, 74
2, 293612, Note_on_c, 0, 31, 0
2, 293624, Control_c, 0, 64, 88
2, 293632, Control_c, 0, 64, 127
2, 293640, Note_on_c, 0, 43, 0
2, 293700, Note_on_c, 0, 50, 73
2, 293732, Note_on_c, 0, 50, 0
2, 293764, Note_on_c, 0, 62, 0
2, 293764, Note_on_c, 0, 67, 0
2, 293784, Note_on_c, 0, 59, 74
2, 293836, Note_on_c, 0, 59, 0
2, 293864, Note_on_c, 0, 62, 76
2, 293932, Note_on_c, 0, 62, 0
2, 293936, Note_on_c, 0, 67, 74
2, 294008, Note_on_c, 0, 67, 0
2, 294012, Note_on_c, 0, 59, 77
2, 294076, Control_c, 0, 64, 56
2, 294084, Note_on_c, 0, 59, 0
2, 294084, Control_c, 0, 64, 0
2, 294096, Note_on_c, 0, 33, 69
2, 294100, Note_on_c, 0, 69, 98
2, 294108, Note_on_c, 0, 45, 77
2, 294112, Note_on_c, 0, 33, 0
2, 294132, Note_on_c, 0, 71, 0
2, 294136, Control_c, 0, 64, 72
2, 294144, Control_c, 0, 64, 127
2, 294148, Note_on_c, 0, 45, 0
2, 294180, Note_on_c, 0, 50, 69
2, 294212, Note_on_c, 0, 50, 0
2, 294252, Note_on_c, 0, 60, 75
2, 294288, Note_on_c, 0, 69, 0
2, 294308, Note_on_c, 0, 60, 0
2, 294316, Note_on_c, 0, 62, 75
2, 294380, Note_on_c, 0, 62, 0
2, 294384, Note_on_c, 0, 66, 70
2, 294468, Note_on_c, 0, 66, 0
2, 294468, Note_on_c, 0, 60, 73
2, 294516, Note_on_c, 0, 67, 93
2, 294528, Note_on_c, 0, 60, 0
2, 294556, Note_on_c, 0, 67, 0
2, 294584, Control_c, 0, 64, 104
2, 294592, Note_on_c, 0, 67, 98
2, 294592, Control_c, 0, 64, 24
2, 294600, Control_c, 0, 64, 0
2, 294604, Note_on_c, 0, 35, 71
2, 294620, Note_on_c, 0, 35, 0
2, 294620, Note_on_c, 0, 47, 56
2, 294640, Control_c, 0, 64, 88
2, 294648, Note_on_c, 0, 47, 0
2, 294648, Control_c, 0, 64, 127
2, 294680, Note_on_c, 0, 50, 73
2, 294704, Note_on_c, 0, 50, 0
2, 294712, Note_on_c, 0, 67, 0
2, 294744, Note_on_c, 0, 55, 76
2, 294796, Note_on_c, 0, 59, 74
2, 294808, Note_on_c, 0, 55, 0
2, 294868, Note_on_c, 0, 62, 80
2, 294876, Note_on_c, 0, 59, 0
2, 294912, Note_on_c, 0, 62, 0
2, 294928, Note_on_c, 0, 55, 73
2, 294944, Note_on_c, 0, 55, 0
2, 295044, Control_c, 0, 64, 56
2, 295052, Control_c, 0, 64, 0
2, 295056, Note_on_c, 0, 76, 103
2, 295056, Note_on_c, 0, 36, 71
2, 295072, Note_on_c, 0, 48, 66
2, 295088, Note_on_c, 0, 36, 0
2, 295096, Control_c, 0, 64, 72
2, 295104, Control_c, 0, 64, 127
2, 295112, Note_on_c, 0, 48, 0
2, 295152, Note_on_c, 0, 55, 72
2, 295204, Note_on_c, 0, 55, 0
2, 295212, Note_on_c, 0, 64, 74
2, 295272, Note_on_c, 0, 64, 0
2, 295288, Note_on_c, 0, 67, 78
2, 295352, Note_on_c, 0, 67, 0
2, 295352, Note_on_c, 0, 69, 81
2, 295400, Note_on_c, 0, 69, 0
2, 295432, Note_on_c, 0, 64, 81
2, 295480, Note_on_c, 0, 64, 0
2, 295508, Control_c, 0, 64, 56
2, 295520, Note_on_c, 0, 38, 73
2, 295520, Note_on_c, 0, 69, 94
2, 295520, Control_c, 0, 64, 0
2, 295536, Note_on_c, 0, 50, 77
2, 295548, Note_on_c, 0, 38, 0
2, 295560, Control_c, 0, 64, 40
2, 295568, Control_c, 0, 64, 127
2, 295572, Note_on_c, 0, 76, 0
2, 295588, Note_on_c, 0, 50, 0
2, 295604, Note_on_c, 0, 54, 83
2, 295632, Note_on_c, 0, 54, 0
2, 295684, Note_on_c, 0, 57, 73
2, 295748, Note_on_c, 0, 62, 76
2, 295752, Note_on_c, 0, 57, 0
2, 295780, Note_on_c, 0, 69, 0
2, 295820, Note_on_c, 0, 66, 68
2, 295832, Note_on_c, 0, 62, 0
2, 295880, Note_on_c, 0, 66, 0
2, 295888, Note_on_c, 0, 57, 78
2, 295912, Note_on_c, 0, 57, 0
2, 295988, Control_c, 0, 64, 56
2, 295996, Note_on_c, 0, 36, 73
2, 296000, Note_on_c, 0, 74, 96
2, 296000, Note_on_c, 0, 62, 76
2, 296000, Control_c, 0, 64, 0
2, 296004, Note_on_c, 0, 48, 78
2, 296028, Note_on_c, 0, 36, 0
2, 296040, Control_c, 0, 64, 88
2, 296044, Note_on_c, 0, 48, 0
2, 296048, Control_c, 0, 64, 127
2, 296080, Note_on_c, 0, 53, 78
2, 296116, Note_on_c, 0, 53, 0
2, 296144, Note_on_c, 0, 62, 79
2, 296212, Note_on_c, 0, 62, 0
2, 296224, Note_on_c, 0, 65, 79
2, 296296, Note_on_c, 0, 69, 72
2, 296352, Note_on_c, 0, 69, 0
2, 296372, Note_on_c, 0, 62, 75
2, 296420, Control_c, 0, 64, 104
2, 296428, Control_c, 0, 64, 40
2, 296436, Note_on_c, 0, 35, 79
2, 296436, Control_c, 0, 64, 0
2, 296460, Note_on_c, 0, 47, 75
2, 296460, Note_on_c, 0, 65, 83
2, 296468, Note_on_c, 0, 35, 0
2, 296472, Control_c, 0, 64, 72
2, 296476, Note_on_c, 0, 65, 0
2, 296476, Control_c, 0, 64, 127
2, 296496, Note_on_c, 0, 62, 0
2, 296496, Note_on_c, 0, 62, 0
2, 296512, Note_on_c, 0, 47, 0
2, 296532, Note_on_c, 0, 53, 73
2, 296564, Note_on_c, 0, 53, 0
2, 296580, Note_on_c, 0, 74, 0
2, 296592, Note_on_c, 0, 62, 74
2, 296656, Note_on_c, 0, 65, 79
2, 296692, Note_on_c, 0, 62, 0
2, 296720, Note_on_c, 0, 68, 74
2, 296724, Note_on_c, 0, 65, 0
2, 296776, Note_on_c, 0, 68, 0
2, 296788, Note_on_c, 0, 62, 81
2, 296852, Control_c, 0, 64, 88
2, 296860, Note_on_c, 0, 62, 0
2, 296860, Control_c, 0, 64, 24
2, 296868, Control_c, 0, 64, 0
2, 296872, Note_on_c, 0, 72, 99
2, 296884, Note_on_c, 0, 33, 73
2, 296892, Note_on_c, 0, 45, 69
2, 296900, Control_c, 0, 64, 56
2, 296908, Note_on_c, 0, 33, 0
2, 296908, Control_c, 0, 64, 127
2, 296916, Note_on_c, 0, 45, 0
2, 296964, Note_on_c, 0, 53, 66
2, 297004, Note_on_c, 0, 53, 0
2, 297020, Note_on_c, 0, 62, 76
2, 297064, Note_on_c, 0, 65, 0
2, 297092, Note_on_c, 0, 65, 77
2, 297108, Note_on_c, 0, 62, 0
2, 297132, Note_on_c, 0, 72, 0
2, 297152, Note_on_c, 0, 65, 0
2, 297204, Note_on_c, 0, 71, 92
2, 297224, Note_on_c, 0, 44, 75
2, 297224, Note_on_c, 0, 32, 73
2, 297232, Note_on_c, 0, 62, 78
2, 297272, Note_on_c, 0, 32, 0
2, 297280, Note_on_c, 0, 44, 0
2, 297304, Note_on_c, 0, 71, 0
2, 297304, Note_on_c, 0, 62, 0
2, 297316, Control_c, 0, 64, 104
2, 297320, Note_on_c, 0, 72, 99
2, 297320, Note_on_c, 0, 60, 81
2, 297320, Note_on_c, 0, 64, 78
2, 297324, Control_c, 0, 64, 40
2, 297328, Note_on_c, 0, 33, 76
2, 297332, Note_on_c, 0, 45, 83
2, 297332, Control_c, 0, 64, 0
2, 297356, Note_on_c, 0, 33, 0
2, 297364, Note_on_c, 0, 45, 0
2, 297364, Control_c, 0, 64, 24
2, 297372, Control_c, 0, 64, 88
2, 297380, Control_c, 0, 64, 127
2, 297412, Note_on_c, 0, 52, 74
2, 297448, Note_on_c, 0, 52, 0
2, 297472, Note_on_c, 0, 60, 68
2, 297540, Note_on_c, 0, 64, 73
2, 297564, Note_on_c, 0, 72, 0
2, 297576, Note_on_c, 0, 60, 0
2, 297580, Note_on_c, 0, 60, 0
2, 297580, Note_on_c, 0, 64, 0
2, 297620, Note_on_c, 0, 69, 78
2, 297628, Note_on_c, 0, 64, 0
2, 297696, Note_on_c, 0, 69, 0
2, 297696, Note_on_c, 0, 60, 78
2, 297760, Note_on_c, 0, 60, 0
2, 297764, Control_c, 0, 64, 104
2, 297768, Note_on_c, 0, 71, 99
2, 297772, Control_c, 0, 64, 40
2, 297776, Note_on_c, 0, 35, 80
2, 297780, Control_c, 0, 64, 0
2, 297788, Note_on_c, 0, 47, 76
2, 297808, Note_on_c, 0, 35, 0
2, 297820, Control_c, 0, 64, 56
2, 297828, Control_c, 0, 64, 127
2, 297840, Note_on_c, 0, 47, 0
2, 297876, Note_on_c, 0, 52, 53
2, 297904, Note_on_c, 0, 52, 0
2, 297920, Note_on_c, 0, 62, 75
2, 297968, Note_on_c, 0, 64, 78
2, 297984, Note_on_c, 0, 62, 0
2, 298020, Note_on_c, 0, 68, 73
2, 298024, Note_on_c, 0, 64, 0
2, 298044, Note_on_c, 0, 71, 0
2, 298100, Note_on_c, 0, 62, 75
2, 298108, Note_on_c, 0, 68, 0
2, 298120, Note_on_c, 0, 69, 93
2, 298156, Note_on_c, 0, 69, 0
2, 298164, Note_on_c, 0, 62, 0
2, 298212, Note_on_c, 0, 69, 97
2, 298224, Control_c, 0, 64, 56
2, 298232, Note_on_c, 0, 36, 73
2, 298232, Control_c, 0, 64, 0
2, 298248, Note_on_c, 0, 48, 71
2, 298260, Note_on_c, 0, 36, 0
2, 298272, Control_c, 0, 64, 40
2, 298280, Control_c, 0, 64, 127
2, 298308, Note_on_c, 0, 48, 0
2, 298316, Note_on_c, 0, 52, 71
2, 298336, Note_on_c, 0, 69, 0
2, 298340, Note_on_c, 0, 52, 0
2, 298364, Note_on_c, 0, 57, 70
2, 298416, Note_on_c, 0, 60, 76
2, 298440, Note_on_c, 0, 57, 0
2, 298488, Note_on_c, 0, 60, 0
2, 298488, Note_on_c, 0, 64, 79
2, 298536, Note_on_c, 0, 64, 0
2, 298552, Note_on_c, 0, 57, 66
2, 298568, Note_on_c, 0, 57, 0
2, 298660, Control_c, 0, 64, 104
2, 298672, Control_c, 0, 64, 56
2, 298676, Note_on_c, 0, 77, 103
2, 298676, Note_on_c, 0, 38, 75
2, 298680, Control_c, 0, 64, 0
2, 298692, Note_on_c, 0, 50, 71
2, 298704, Note_on_c, 0, 38, 0
2, 298720, Control_c, 0, 64, 72
2, 298728, Control_c, 0, 64, 127
2, 298732, Note_on_c, 0, 50, 0
2, 298776, Note_on_c, 0, 57, 48
2, 298820, Note_on_c, 0, 65, 74
2, 298836, Note_on_c, 0, 57, 0
2, 298904, Note_on_c, 0, 65, 0
2, 298904, Note_on_c, 0, 69, 79
2, 298976, Note_on_c, 0, 74, 78
2, 298984, Note_on_c, 0, 69, 0
2, 299036, Note_on_c, 0, 74, 0
2, 299040, Note_on_c, 0, 65, 78
2, 299084, Note_on_c, 0, 65, 0
2, 299112, Control_c, 0, 64, 88
2, 299116, Note_on_c, 0, 71, 95
2, 299120, Note_on_c, 0, 40, 73
2, 299120, Control_c, 0, 64, 24
2, 299128, Note_on_c, 0, 52, 76
2, 299128, Control_c, 0, 64, 0
2, 299140, Note_on_c, 0, 40, 0
2, 299160, Control_c, 0, 64, 24
2, 299168, Control_c, 0, 64, 104
2, 299176, Control_c, 0, 64, 127
2, 299180, Note_on_c, 0, 52, 0
2, 299196, Note_on_c, 0, 77, 0
2, 299200, Note_on_c, 0, 56, 73
2, 299232, Note_on_c, 0, 56, 0
2, 299272, Note_on_c, 0, 59, 75
2, 299340, Note_on_c, 0, 59, 0
2, 299340, Note_on_c, 0, 64, 74
2, 299416, Note_on_c, 0, 68, 59
2, 299420, Note_on_c, 0, 64, 0
2, 299464, Note_on_c, 0, 71, 0
2, 299468, Note_on_c, 0, 59, 74
2, 299472, Note_on_c, 0, 68, 0
2, 299500, Note_on_c, 0, 59, 0
2, 299572, Control_c, 0, 64, 104
2, 299580, Control_c, 0, 64, 56
2, 299588, Note_on_c, 0, 38, 70
2, 299588, Note_on_c, 0, 76, 100
2, 299588, Control_c, 0, 64, 0
2, 299596, Note_on_c, 0, 50, 73
2, 299604, Note_on_c, 0, 38, 0
2, 299620, Control_c, 0, 64, 24
2, 299628, Control_c, 0, 64, 104
2, 299636, Note_on_c, 0, 50, 0
2, 299636, Control_c, 0, 64, 127
2, 299664, Note_on_c, 0, 55, 77
2, 299732, Note_on_c, 0, 64, 74
2, 299736, Note_on_c, 0, 55, 0
2, 299812, Note_on_c, 0, 67, 75
2, 299828, Note_on_c, 0, 64, 0
2, 299868, Note_on_c, 0, 67, 0
2, 299880, Note_on_c, 0, 71, 77
2, 299936, Note_on_c, 0, 71, 0
2, 299948, Note_on_c, 0, 64, 84
2, 299996, Control_c, 0, 64, 104
2, 300004, Control_c, 0, 64, 40
2, 300012, Control_c, 0, 64, 0
2, 300020, Note_on_c, 0, 37, 73
2, 300020, Note_on_c, 0, 49, 76
2, 300020, Note_on_c, 0, 64, 76
2, 300020, Note_on_c, 0, 67, 78
2, 300052, Control_c, 0, 64, 72
2, 300056, Note_on_c, 0, 37, 0
2, 300060, Control_c, 0, 64, 127
2, 300064, Note_on_c, 0, 49, 0
2, 300064, Note_on_c, 0, 64, 0
2, 300104, Note_on_c, 0, 55, 72
2, 300120, Note_on_c, 0, 55, 0
2, 300148, Note_on_c, 0, 76, 0
2, 300164, Note_on_c, 0, 64, 78
2, 300240, Note_on_c, 0, 67, 74
2, 300248, Note_on_c, 0, 64, 0
2, 300304, Note_on_c, 0, 70, 73
2, 300308, Note_on_c, 0, 67, 0
2, 300364, Note_on_c, 0, 70, 0
2, 300380, Note_on_c, 0, 64, 57
2, 300428, Control_c, 0, 64, 56
2, 300436, Control_c, 0, 64, 0
2, 300440, Note_on_c, 0, 64, 0
2, 300444, Note_on_c, 0, 74, 97
2, 300444, Note_on_c, 0, 35, 78
2, 300456, Note_on_c, 0, 47, 75
2, 300476, Control_c, 0, 64, 72
2, 300480, Note_on_c, 0, 35, 0
2, 300484, Note_on_c, 0, 47, 0
2, 300484, Control_c, 0, 64, 127
2, 300536, Note_on_c, 0, 55, 76
2, 300576, Note_on_c, 0, 55, 0
2, 300576, Note_on_c, 0, 64, 65
2, 300656, Note_on_c, 0, 67, 78
2, 300664, Note_on_c, 0, 64, 0
2, 300672, Note_on_c, 0, 74, 0
2, 300692, Note_on_c, 0, 67, 0
2, 300708, Note_on_c, 0, 64, 0
2, 300720, Note_on_c, 0, 67, 0
2, 300756, Note_on_c, 0, 73, 91
2, 300772, Note_on_c, 0, 46, 74
2, 300772, Note_on_c, 0, 34, 77
2, 300792, Note_on_c, 0, 64, 78
2, 300816, Note_on_c, 0, 46, 0
2, 300824, Note_on_c, 0, 34, 0
2, 300864, Note_on_c, 0, 64, 0
2, 300868, Note_on_c, 0, 74, 99
2, 300868, Note_on_c, 0, 62, 73
2, 300868, Note_on_c, 0, 66, 76
2, 300872, Note_on_c, 0, 73, 0
2, 300876, Note_on_c, 0, 35, 80
2, 300876, Control_c, 0, 64, 56
2, 300884, Note_on_c, 0, 47, 76
2, 300884, Control_c, 0, 64, 0
2, 300904, Note_on_c, 0, 35, 0
2, 300924, Note_on_c, 0, 47, 0
2, 300924, Control_c, 0, 64, 72
2, 300932, Control_c, 0, 64, 127
2, 300968, Note_on_c, 0, 54, 79
2, 300996, Note_on_c, 0, 54, 0
2, 301032, Note_on_c, 0, 62, 66
2, 301096, Note_on_c, 0, 66, 74
2, 301116, Note_on_c, 0, 62, 0
2, 301116, Note_on_c, 0, 74, 0
2, 301116, Note_on_c, 0, 62, 0
2, 301160, Note_on_c, 0, 66, 0
2, 301164, Note_on_c, 0, 71, 70
2, 301232, Note_on_c, 0, 71, 0
2, 301232, Note_on_c, 0, 62, 78
2, 301308, Control_c, 0, 64, 104
2, 301316, Note_on_c, 0, 73, 97
2, 301316, Control_c, 0, 64, 40
2, 301320, Control_c, 0, 64, 0
2, 301324, Note_on_c, 0, 37, 74
2, 301328, Note_on_c, 0, 49, 73
2, 301348, Note_on_c, 0, 37, 0
2, 301364, Control_c, 0, 64, 72
2, 301372, Control_c, 0, 64, 127
2, 301396, Note_on_c, 0, 49, 0
2, 301408, Note_on_c, 0, 54, 67
2, 301432, Note_on_c, 0, 54, 0
2, 301448, Note_on_c, 0, 64, 77
2, 301500, Note_on_c, 0, 66, 71
2, 301508, Note_on_c, 0, 64, 0
2, 301512, Note_on_c, 0, 62, 0
2, 301512, Note_on_c, 0, 66, 0
2, 301564, Note_on_c, 0, 73, 0
2, 301564, Note_on_c, 0, 66, 0
2, 301564, Note_on_c, 0, 70, 72
2, 301624, Note_on_c, 0, 64, 78
2, 301640, Note_on_c, 0, 70, 0
2, 301680, Note_on_c, 0, 64, 0
2, 301680, Note_on_c, 0, 71, 93
2, 301724, Note_on_c, 0, 71, 0
2, 301756, Note_on_c, 0, 71, 93
2, 301756, Note_on_c, 0, 38, 78
2, 301760, Control_c, 0, 64, 56
2, 301768, Control_c, 0, 64, 0
2, 301772, Note_on_c, 0, 50, 75
2, 301780, Note_on_c, 0, 38, 0
2, 301800, Control_c, 0, 64, 24
2, 301808, Control_c, 0, 64, 88
2, 301816, Note_on_c, 0, 50, 0
2, 301820, Control_c, 0, 64, 127
2, 301844, Note_on_c, 0, 54, 73
2, 301868, Note_on_c, 0, 54, 0
2, 301904, Note_on_c, 0, 59, 73
2, 301956, Note_on_c, 0, 62, 75
2, 301972, Note_on_c, 0, 59, 0
2, 301984, Note_on_c, 0, 71, 0
2, 302012, Note_on_c, 0, 66, 67
2, 302020, Note_on_c, 0, 62, 0
2, 302072, Note_on_c, 0, 59, 73
2, 302076, Note_on_c, 0, 66, 0
2, 302100, Note_on_c, 0, 59, 0
2, 302220, Control_c, 0, 64, 72
2, 302224, Control_c, 0, 64, 0
2, 302236, Note_on_c, 0, 55, 73
2, 302236, Note_on_c, 0, 43, 75
2, 302236, Note_on_c, 0, 83, 106
2, 302264, Control_c, 0, 64, 72
2, 302272, Note_on_c, 0, 43, 0
2, 302272, Control_c, 0, 64, 127
2, 302276, Note_on_c, 0, 55, 0
2, 302332, Note_on_c, 0, 65, 77
2, 302368, Note_on_c, 0, 65, 0
2, 302384, Note_on_c, 0, 71, 72
2, 302448, Note_on_c, 0, 71, 0
2, 302448, Note_on_c, 0, 74, 81
2, 302520, Note_on_c, 0, 77, 66
2, 302524, Note_on_c, 0, 74, 0
2, 302576, Note_on_c, 0, 77, 0
2, 302580, Note_on_c, 0, 71, 67
2, 302632, Note_on_c, 0, 71, 0
2, 302652, Note_on_c, 0, 82, 100
2, 302732, Note_on_c, 0, 64, 77
2, 302792, Note_on_c, 0, 64, 0
2, 302804, Note_on_c, 0, 70, 64
2, 302868, Note_on_c, 0, 73, 70
2, 302876, Note_on_c, 0, 70, 0
2, 302892, Note_on_c, 0, 83, 0
2, 302936, Note_on_c, 0, 73, 0
2, 302936, Note_on_c, 0, 76, 72
2, 303000, Note_on_c, 0, 76, 0
2, 303000, Note_on_c, 0, 70, 68
2, 303044, Note_on_c, 0, 70, 0
2, 303068, Control_c, 0, 64, 104
2, 303080, Control_c, 0, 64, 40
2, 303084, Note_on_c, 0, 81, 94
2, 303088, Note_on_c, 0, 54, 73
2, 303088, Note_on_c, 0, 42, 77
2, 303088, Note_on_c, 0, 63, 75
2, 303088, Note_on_c, 0, 66, 75
2, 303088, Note_on_c, 0, 60, 73
2, 303088, Note_on_c, 0, 69, 76
2, 303088, Control_c, 0, 64, 0
2, 303112, Note_on_c, 0, 42, 0
2, 303120, Control_c, 0, 64, 72
2, 303124, Note_on_c, 0, 54, 0
2, 303128, Control_c, 0, 64, 127
2, 303172, Note_on_c, 0, 63, 72
2, 303196, Note_on_c, 0, 63, 0
2, 303236, Note_on_c, 0, 69, 76
2, 303296, Note_on_c, 0, 69, 0
2, 303308, Note_on_c, 0, 82, 0
2, 303324, Note_on_c, 0, 72, 76
2, 303368, Note_on_c, 0, 72, 0
2, 303380, Note_on_c, 0, 75, 70
2, 303440, Note_on_c, 0, 75, 0
2, 303448, Note_on_c, 0, 69, 73
2, 303476, Control_c, 0, 64, 56
2, 303484, Control_c, 0, 64, 0
2, 303496, Note_on_c, 0, 40, 71
2, 303508, Note_on_c, 0, 52, 76
2, 303516, Control_c, 0, 64, 24
2, 303524, Control_c, 0, 64, 88
2, 303528, Note_on_c, 0, 40, 0
2, 303532, Control_c, 0, 64, 127
2, 303536, Note_on_c, 0, 52, 0
2, 303552, Note_on_c, 0, 69, 0
2, 303588, Note_on_c, 0, 64, 78
2, 303624, Note_on_c, 0, 64, 0
2, 303660, Note_on_c, 0, 69, 82
2, 303700, Note_on_c, 0, 81, 0
2, 303716, Note_on_c, 0, 72, 78
2, 303732, Note_on_c, 0, 66, 0
2, 303732, Note_on_c, 0, 60, 0
2, 303732, Note_on_c, 0, 63, 0
2, 303732, Note_on_c, 0, 69, 0
2, 303744, Note_on_c, 0, 69, 0
2, 303788, Note_on_c, 0, 72, 0
2, 303788, Note_on_c, 0, 76, 83
2, 303840, Note_on_c, 0, 76, 0
2, 303852, Note_on_c, 0, 69, 78
2, 303900, Control_c, 0, 64, 88
2, 303908, Control_c, 0, 64, 24
2, 303916, Note_on_c, 0, 39, 78
2, 303916, Control_c, 0, 64, 0
2, 303928, Note_on_c, 0, 69, 0
2, 303928, Note_on_c, 0, 79, 100
2, 303928, Note_on_c, 0, 51, 73
2, 303928, Note_on_c, 0, 67, 76
2, 303928, Note_on_c, 0, 60, 74
2, 303928, Note_on_c, 0, 57, 74
2, 303948, Note_on_c, 0, 39, 0
2, 303952, Control_c, 0, 64, 56
2, 303956, Control_c, 0, 64, 127
2, 303968, Note_on_c, 0, 51, 0
2, 304020, Note_on_c, 0, 66, 83
2, 304048, Note_on_c, 0, 66, 0
2, 304088, Note_on_c, 0, 69, 76
2, 304164, Note_on_c, 0, 72, 86
2, 304176, Note_on_c, 0, 79, 0
2, 304188, Note_on_c, 0, 67, 0
2, 304200, Note_on_c, 0, 69, 0
2, 304220, Note_on_c, 0, 72, 0
2, 304252, Note_on_c, 0, 78, 97
2, 304300, Note_on_c, 0, 69, 73
2, 304332, Note_on_c, 0, 78, 0
2, 304360, Note_on_c, 0, 69, 0
2, 304364, Control_c, 0, 64, 56
2, 304372, Note_on_c, 0, 40, 77
2, 304372, Control_c, 0, 64, 0
2, 304380, Note_on_c, 0, 79, 96
2, 304384, Note_on_c, 0, 52, 73
2, 304384, Note_on_c, 0, 67, 78
2, 304384, Note_on_c, 0, 59, 74
2, 304384, Note_on_c, 0, 55, 74
2, 304408, Note_on_c, 0, 40, 0
2, 304412, Control_c, 0, 64, 72
2, 304416, Note_on_c, 0, 52, 0
2, 304420, Control_c, 0, 64, 127
2, 304464, Note_on_c, 0, 59, 62
2, 304500, Note_on_c, 0, 59, 0
2, 304520, Note_on_c, 0, 67, 72
2, 304572, Note_on_c, 0, 57, 0
2, 304572, Note_on_c, 0, 60, 0
2, 304588, Note_on_c, 0, 71, 72
2, 304604, Note_on_c, 0, 67, 0
2, 304608, Note_on_c, 0, 79, 0
2, 304644, Note_on_c, 0, 55, 0
2, 304644, Note_on_c, 0, 59, 0
2, 304644, Note_on_c, 0, 67, 0
2, 304660, Note_on_c, 0, 71, 0
2, 304660, Note_on_c, 0, 76, 78
2, 304728, Note_on_c, 0, 67, 71
2, 304780, Note_on_c, 0, 76, 0
2, 304788, Note_on_c, 0, 67, 0
2, 304796, Control_c, 0, 64, 56
2, 304804, Control_c, 0, 64, 0
2, 304808, Note_on_c, 0, 78, 93
2, 304808, Note_on_c, 0, 42, 78
2, 304808, Note_on_c, 0, 66, 76
2, 304812, Note_on_c, 0, 54, 70
2, 304836, Control_c, 0, 64, 56
2, 304844, Note_on_c, 0, 42, 0
2, 304844, Control_c, 0, 64, 127
2, 304852, Note_on_c, 0, 54, 0
2, 304892, Note_on_c, 0, 59, 70
2, 304916, Note_on_c, 0, 59, 0
2, 304936, Note_on_c, 0, 69, 77
2, 304940, Note_on_c, 0, 66, 0
2, 304960, Note_on_c, 0, 78, 0
2, 304992, Note_on_c, 0, 71, 78
2, 305000, Note_on_c, 0, 69, 0
2, 305060, Note_on_c, 0, 75, 78
2, 305072, Note_on_c, 0, 71, 0
2, 305124, Note_on_c, 0, 69, 78
2, 305132, Note_on_c, 0, 75, 0
2, 305176, Note_on_c, 0, 76, 95
2, 305184, Note_on_c, 0, 69, 0
2, 305220, Note_on_c, 0, 76, 0
2, 305248, Note_on_c, 0, 76, 94
2, 305260, Note_on_c, 0, 43, 77
2, 305260, Control_c, 0, 64, 56
2, 305268, Note_on_c, 0, 55, 73
2, 305268, Control_c, 0, 64, 0
2, 305292, Note_on_c, 0, 43, 0
2, 305300, Control_c, 0, 64, 40
2, 305308, Control_c, 0, 64, 127
2, 305324, Note_on_c, 0, 55, 0
2, 305328, Note_on_c, 0, 59, 76
2, 305368, Note_on_c, 0, 59, 0
2, 305372, Note_on_c, 0, 76, 0
2, 305400, Note_on_c, 0, 64, 74
2, 305456, Note_on_c, 0, 67, 78
2, 305472, Note_on_c, 0, 64, 0
2, 305536, Note_on_c, 0, 67, 0
2, 305536, Note_on_c, 0, 71, 73
2, 305584, Note_on_c, 0, 71, 0
2, 305600, Note_on_c, 0, 64, 68
2, 305616, Note_on_c, 0, 64, 0
2, 305724, Control_c, 0, 64, 88
2, 305728, Note_on_c, 0, 60, 73
2, 305728, Note_on_c, 0, 48, 74
2, 305732, Control_c, 0, 64, 0
2, 305736, Note_on_c, 0, 88, 107
2, 305772, Control_c, 0, 64, 88
2, 305776, Note_on_c, 0, 48, 0
2, 305776, Control_c, 0, 64, 127
2, 305796, Note_on_c, 0, 60, 0
2, 305840, Note_on_c, 0, 70, 82
2, 305872, Note_on_c, 0, 70, 0
2, 305904, Note_on_c, 0, 76, 83
2, 305948, Note_on_c, 0, 88, 0
2, 305968, Note_on_c, 0, 79, 86
2, 305976, Note_on_c, 0, 76, 0
2, 306036, Note_on_c, 0, 82, 73
2, 306052, Note_on_c, 0, 79, 0
2, 306092, Note_on_c, 0, 82, 0
2, 306096, Note_on_c, 0, 76, 73
2, 306160, Note_on_c, 0, 76, 0
2, 306184, Note_on_c, 0, 87, 102
2, 306256, Note_on_c, 0, 69, 78
2, 306296, Note_on_c, 0, 69, 0
2, 306312, Note_on_c, 0, 75, 79
2, 306388, Note_on_c, 0, 78, 76
2, 306396, Note_on_c, 0, 75, 0
2, 306468, Note_on_c, 0, 81, 72
2, 306472, Note_on_c, 0, 78, 0
2, 306472, Note_on_c, 0, 87, 0
2, 306520, Note_on_c, 0, 75, 68
2, 306556, Note_on_c, 0, 81, 0
2, 306568, Note_on_c, 0, 75, 0
2, 306592, Control_c, 0, 64, 88
2, 306600, Control_c, 0, 64, 40
2, 306604, Note_on_c, 0, 86, 98
2, 306604, Note_on_c, 0, 74, 80
2, 306604, Note_on_c, 0, 68, 73
2, 306604, Note_on_c, 0, 65, 72
2, 306604, Note_on_c, 0, 47, 78
2, 306604, Note_on_c, 0, 59, 73
2, 306608, Control_c, 0, 64, 0
2, 306632, Control_c, 0, 64, 56
2, 306640, Note_on_c, 0, 59, 0
2, 306640, Note_on_c, 0, 47, 0
2, 306640, Control_c, 0, 64, 127
2, 306684, Note_on_c, 0, 68, 75
2, 306704, Note_on_c, 0, 68, 0
2, 306744, Note_on_c, 0, 74, 78
2, 306816, Note_on_c, 0, 74, 0
2, 306820, Note_on_c, 0, 77, 78
2, 306876, Note_on_c, 0, 77, 0
2, 306876, Note_on_c, 0, 80, 72
2, 306936, Note_on_c, 0, 80, 0
2, 306944, Note_on_c, 0, 74, 79
2, 307000, Control_c, 0, 64, 72
2, 307008, Control_c, 0, 64, 0
2, 307012, Note_on_c, 0, 45, 80
2, 307020, Note_on_c, 0, 57, 73
2, 307032, Control_c, 0, 64, 56
2, 307036, Note_on_c, 0, 74, 0
2, 307040, Control_c, 0, 64, 127
2, 307044, Note_on_c, 0, 57, 0
2, 307056, Note_on_c, 0, 45, 0
2, 307100, Note_on_c, 0, 69, 78
2, 307116, Note_on_c, 0, 69, 0
2, 307120, Note_on_c, 0, 74, 0
2, 307120, Note_on_c, 0, 68, 0
2, 307120, Note_on_c, 0, 65, 0
2, 307164, Note_on_c, 0, 74, 83
2, 307228, Note_on_c, 0, 77, 81
2, 307252, Note_on_c, 0, 74, 0
2, 307256, Note_on_c, 0, 86, 0
2, 307296, Note_on_c, 0, 81, 81
2, 307304, Note_on_c, 0, 77, 0
2, 307356, Note_on_c, 0, 81, 0
2, 307360, Note_on_c, 0, 74, 86
2, 307420, Control_c, 0, 64, 56
2, 307428, Control_c, 0, 64, 0
2, 307436, Note_on_c, 0, 74, 0
2, 307444, Note_on_c, 0, 84, 103
2, 307444, Note_on_c, 0, 72, 76
2, 307444, Note_on_c, 0, 65, 73
2, 307444, Note_on_c, 0, 44, 76
2, 307444, Note_on_c, 0, 56, 72
2, 307444, Note_on_c, 0, 62, 73
2, 307456, Control_c, 0, 64, 72
2, 307464, Control_c, 0, 64, 127
2, 307480, Note_on_c, 0, 44, 0
2, 307484, Note_on_c, 0, 56, 0
2, 307536, Note_on_c, 0, 71, 68
2, 307556, Note_on_c, 0, 71, 0
2, 307576, Note_on_c, 0, 72, 0
2, 307588, Note_on_c, 0, 74, 81
2, 307660, Note_on_c, 0, 77, 88
2, 307680, Note_on_c, 0, 74, 0
2, 307700, Note_on_c, 0, 84, 0
2, 307724, Note_on_c, 0, 77, 0
2, 307740, Note_on_c, 0, 83, 91
2, 307740, Note_on_c, 0, 71, 76
2, 307796, Note_on_c, 0, 74, 86
2, 307812, Note_on_c, 0, 83, 0
2, 307864, Note_on_c, 0, 74, 0
2, 307872, Note_on_c, 0, 71, 0
2, 307872, Note_on_c, 0, 57, 71
2, 307872, Note_on_c, 0, 45, 79
2, 307872, Control_c, 0, 64, 40
2, 307880, Note_on_c, 0, 84, 100
2, 307880, Note_on_c, 0, 72, 78
2, 307880, Control_c, 0, 64, 0
2, 307908, Note_on_c, 0, 57, 0
2, 307912, Control_c, 0, 64, 72
2, 307916, Note_on_c, 0, 45, 0
2, 307916, Control_c, 0, 64, 127
2, 307960, Note_on_c, 0, 65, 0
2, 307960, Note_on_c, 0, 62, 0
2, 307968, Note_on_c, 0, 69, 77
2, 307996, Note_on_c, 0, 69, 0
2, 308012, Note_on_c, 0, 72, 0
2, 308020, Note_on_c, 0, 72, 81
2, 308092, Note_on_c, 0, 76, 86
2, 308112, Note_on_c, 0, 72, 0
2, 308136, Note_on_c, 0, 84, 0
2, 308164, Note_on_c, 0, 81, 79
2, 308180, Note_on_c, 0, 76, 0
2, 308232, Note_on_c, 0, 81, 0
2, 308236, Note_on_c, 0, 72, 86
2, 308288, Note_on_c, 0, 72, 0
2, 308328, Note_on_c, 0, 77, 98
2, 308356, Note_on_c, 0, 60, 68
2, 308364, Note_on_c, 0, 57, 70
2, 308396, Control_c, 0, 64, 88
2, 308404, Control_c, 0, 64, 0
2, 308412, Note_on_c, 0, 64, 71
2, 308448, Control_c, 0, 64, 40
2, 308456, Control_c, 0, 64, 127
2, 308488, Note_on_c, 0, 65, 78
2, 308564, Note_on_c, 0, 69, 73
2, 308568, Note_on_c, 0, 65, 0
2, 308604, Note_on_c, 0, 77, 0
2, 308620, Note_on_c, 0, 72, 72
2, 308624, Note_on_c, 0, 69, 0
2, 308692, Note_on_c, 0, 65, 78
2, 308696, Note_on_c, 0, 72, 0
2, 308764, Note_on_c, 0, 75, 93
2, 308768, Note_on_c, 0, 65, 0
2, 308836, Note_on_c, 0, 64, 0
2, 308848, Note_on_c, 0, 63, 74
2, 308856, Control_c, 0, 64, 88
2, 308864, Control_c, 0, 64, 24
2, 308872, Control_c, 0, 64, 0
2, 308888, Control_c, 0, 64, 24
2, 308896, Control_c, 0, 64, 88
2, 308900, Control_c, 0, 64, 127
2, 308924, Note_on_c, 0, 66, 69
2, 308972, Note_on_c, 0, 75, 0
2, 308980, Note_on_c, 0, 69, 68
2, 308992, Note_on_c, 0, 66, 0
2, 309012, Note_on_c, 0, 57, 0
2, 309020, Note_on_c, 0, 60, 0
2, 309028, Note_on_c, 0, 63, 0
2, 309048, Note_on_c, 0, 72, 73
2, 309080, Note_on_c, 0, 69, 0
2, 309100, Note_on_c, 0, 66, 78
2, 309104, Note_on_c, 0, 72, 0
2, 309132, Note_on_c, 0, 66, 0
2, 309228, Control_c, 0, 64, 72
2, 309232, Note_on_c, 0, 83, 96
2, 309232, Note_on_c, 0, 76, 85
2, 309232, Note_on_c, 0, 44, 77
2, 309232, Note_on_c, 0, 56, 73
2, 309232, Note_on_c, 0, 71, 73
2, 309232, Note_on_c, 0, 64, 71
2, 309232, Control_c, 0, 64, 0
2, 309260, Control_c, 0, 64, 40
2, 309268, Note_on_c, 0, 44, 0
2, 309268, Control_c, 0, 64, 104
2, 309272, Note_on_c, 0, 56, 0
2, 309276, Control_c, 0, 64, 127
2, 309280, Note_on_c, 0, 76, 0
2, 309312, Note_on_c, 0, 59, 78
2, 309316, Note_on_c, 0, 71, 73
2, 309344, Note_on_c, 0, 59, 0
2, 309388, Note_on_c, 0, 83, 0
2, 309392, Note_on_c, 0, 76, 78
2, 309408, Note_on_c, 0, 59, 41
2, 309416, Note_on_c, 0, 71, 0
2, 309460, Note_on_c, 0, 80, 72
2, 309468, Note_on_c, 0, 76, 0
2, 309508, Note_on_c, 0, 80, 0
2, 309516, Note_on_c, 0, 71, 73
2, 309556, Note_on_c, 0, 71, 0
2, 309564, Note_on_c, 0, 59, 0
2, 309588, Note_on_c, 0, 76, 87
2, 309668, Note_on_c, 0, 76, 0
2, 309688, Note_on_c, 0, 70, 83
2, 309688, Note_on_c, 0, 64, 74
2, 309704, Control_c, 0, 64, 104
2, 309708, Control_c, 0, 64, 24
2, 309716, Note_on_c, 0, 55, 71
2, 309716, Note_on_c, 0, 43, 73
2, 309716, Control_c, 0, 64, 0
2, 309740, Control_c, 0, 64, 24
2, 309748, Note_on_c, 0, 64, 0
2, 309748, Note_on_c, 0, 71, 0
2, 309748, Control_c, 0, 64, 104
2, 309752, Note_on_c, 0, 43, 0
2, 309756, Control_c, 0, 64, 127
2, 309764, Note_on_c, 0, 55, 0
2, 309776, Note_on_c, 0, 58, 77
2, 309832, Note_on_c, 0, 70, 0
2, 309856, Note_on_c, 0, 63, 74
2, 309924, Note_on_c, 0, 67, 69
2, 309928, Note_on_c, 0, 63, 0
2, 309984, Note_on_c, 0, 70, 73
2, 310000, Note_on_c, 0, 67, 0
2, 310040, Note_on_c, 0, 63, 72
2, 310116, Note_on_c, 0, 63, 0
2, 310124, Note_on_c, 0, 75, 95
2, 310148, Note_on_c, 0, 70, 0
2, 310156, Note_on_c, 0, 55, 46
2, 310172, Control_c, 0, 64, 104
2, 310180, Control_c, 0, 64, 56
2, 310200, Note_on_c, 0, 62, 75
2, 310204, Note_on_c, 0, 64, 0
2, 310204, Control_c, 0, 64, 127
2, 310272, Note_on_c, 0, 63, 74
2, 310348, Note_on_c, 0, 67, 76
2, 310352, Note_on_c, 0, 63, 0
2, 310432, Note_on_c, 0, 70, 78
2, 310440, Note_on_c, 0, 67, 0
2, 310492, Note_on_c, 0, 70, 0
2, 310500, Note_on_c, 0, 63, 73
2, 310528, Note_on_c, 0, 75, 0
2, 310560, Note_on_c, 0, 63, 0
2, 310576, Note_on_c, 0, 73, 92
2, 310620, Note_on_c, 0, 62, 0
2, 310628, Control_c, 0, 64, 40
2, 310636, Control_c, 0, 64, 0
2, 310652, Note_on_c, 0, 61, 69
2, 310668, Control_c, 0, 64, 88
2, 310676, Control_c, 0, 64, 127
2, 310716, Note_on_c, 0, 73, 0
2, 310716, Note_on_c, 0, 64, 72
2, 310728, Note_on_c, 0, 61, 0
2, 310740, Note_on_c, 0, 55, 0
2, 310740, Note_on_c, 0, 58, 0
2, 310780, Note_on_c, 0, 64, 0
2, 310784, Note_on_c, 0, 67, 72
2, 310832, Note_on_c, 0, 70, 78
2, 310844, Note_on_c, 0, 67, 0
2, 310892, Note_on_c, 0, 70, 0
2, 310900, Note_on_c, 0, 64, 84
2, 310932, Note_on_c, 0, 64, 0
2, 311016, Control_c, 0, 64, 40
2, 311020, Note_on_c, 0, 81, 96
2, 311020, Note_on_c, 0, 53, 75
2, 311020, Note_on_c, 0, 41, 76
2, 311020, Note_on_c, 0, 74, 73
2, 311020, Note_on_c, 0, 69, 73
2, 311020, Note_on_c, 0, 62, 73
2, 311020, Note_on_c, 0, 65, 73
2, 311024, Control_c, 0, 64, 0
2, 311048, Control_c, 0, 64, 88
2, 311060, Note_on_c, 0, 41, 0
2, 311060, Control_c, 0, 64, 127
2, 311076, Note_on_c, 0, 53, 0
2, 311092, Note_on_c, 0, 57, 68
2, 311108, Note_on_c, 0, 69, 78
2, 311152, Note_on_c, 0, 62, 0
2, 311152, Note_on_c, 0, 69, 0
2, 311152, Note_on_c, 0, 65, 0
2, 311160, Note_on_c, 0, 81, 0
2, 311172, Note_on_c, 0, 69, 0
2, 311176, Note_on_c, 0, 74, 78
2, 311248, Note_on_c, 0, 74, 0
2, 311248, Note_on_c, 0, 77, 81
2, 311300, Note_on_c, 0, 77, 0
2, 311308, Note_on_c, 0, 69, 76
2, 311352, Note_on_c, 0, 69, 0
2, 311376, Note_on_c, 0, 74, 88
2, 311428, Note_on_c, 0, 74, 0
2, 311432, Note_on_c, 0, 57, 0
2, 311460, Note_on_c, 0, 55, 67
2, 311460, Note_on_c, 0, 53, 68
2, 311460, Note_on_c, 0, 71, 98
2, 311504, Control_c, 0, 64, 88
2, 311512, Control_c, 0, 64, 0
2, 311536, Note_on_c, 0, 74, 0
2, 311540, Note_on_c, 0, 59, 73
2, 311552, Control_c, 0, 64, 72
2, 311560, Control_c, 0, 64, 127
2, 311576, Note_on_c, 0, 53, 0
2, 311580, Note_on_c, 0, 55, 0
2, 311612, Note_on_c, 0, 59, 0
2, 311612, Note_on_c, 0, 62, 79
2, 311676, Note_on_c, 0, 67, 77
2, 311692, Note_on_c, 0, 62, 0
2, 311740, Note_on_c, 0, 71, 77
2, 311752, Note_on_c, 0, 67, 0
2, 311784, Note_on_c, 0, 71, 0
2, 311792, Note_on_c, 0, 62, 83
2, 311796, Note_on_c, 0, 71, 0
2, 311816, Note_on_c, 0, 62, 0
2, 311904, Control_c, 0, 64, 40
2, 311908, Note_on_c, 0, 79, 101
2, 311908, Note_on_c, 0, 40, 77
2, 311908, Note_on_c, 0, 52, 73
2, 311908, Note_on_c, 0, 72, 75
2, 311908, Note_on_c, 0, 67, 77
2, 311908, Note_on_c, 0, 64, 73
2, 311912, Control_c, 0, 64, 0
2, 311936, Note_on_c, 0, 40, 0
2, 311944, Control_c, 0, 64, 72
2, 311948, Note_on_c, 0, 52, 0
2, 311952, Control_c, 0, 64, 127
2, 312000, Note_on_c, 0, 67, 78
2, 312040, Note_on_c, 0, 72, 0
2, 312040, Note_on_c, 0, 67, 0
2, 312040, Note_on_c, 0, 64, 0
2, 312060, Note_on_c, 0, 55, 35
2, 312064, Note_on_c, 0, 79, 0
2, 312064, Note_on_c, 0, 72, 88
2, 312068, Note_on_c, 0, 67, 0
2, 312100, Note_on_c, 0, 60, 73
2, 312136, Note_on_c, 0, 72, 0
2, 312136, Note_on_c, 0, 76, 83
2, 312196, Note_on_c, 0, 76, 0
2, 312200, Note_on_c, 0, 67, 76
2, 312224, Note_on_c, 0, 55, 0
2, 312248, Note_on_c, 0, 67, 0
2, 312276, Note_on_c, 0, 60, 0
2, 312276, Note_on_c, 0, 72, 89
2, 312336, Note_on_c, 0, 72, 0
2, 312360, Note_on_c, 0, 69, 95
2, 312360, Note_on_c, 0, 53, 68
2, 312360, Note_on_c, 0, 52, 70
2, 312440, Control_c, 0, 64, 56
2, 312448, Note_on_c, 0, 57, 68
2, 312448, Control_c, 0, 64, 0
2, 312496, Control_c, 0, 64, 88
2, 312504, Control_c, 0, 64, 127
2, 312508, Note_on_c, 0, 69, 0
2, 312520, Note_on_c, 0, 60, 79
2, 312556, Note_on_c, 0, 53, 0
2, 312568, Note_on_c, 0, 57, 0
2, 312576, Note_on_c, 0, 52, 0
2, 312584, Note_on_c, 0, 65, 76
2, 312592, Note_on_c, 0, 60, 0
2, 312656, Note_on_c, 0, 69, 77
2, 312660, Note_on_c, 0, 65, 0
2, 312700, Note_on_c, 0, 69, 0
2, 312712, Note_on_c, 0, 60, 79
2, 312728, Note_on_c, 0, 60, 0
2, 312804, Note_on_c, 0, 38, 82
2, 312808, Note_on_c, 0, 77, 98
2, 312808, Note_on_c, 0, 65, 76
2, 312808, Note_on_c, 0, 71, 73
2, 312808, Note_on_c, 0, 50, 73
2, 312808, Note_on_c, 0, 62, 73
2, 312808, Control_c, 0, 64, 88
2, 312816, Control_c, 0, 64, 0
2, 312824, Note_on_c, 0, 50, 77
2, 312840, Note_on_c, 0, 38, 0
2, 312856, Control_c, 0, 64, 88
2, 312864, Control_c, 0, 64, 127
2, 312872, Note_on_c, 0, 50, 0
2, 312888, Note_on_c, 0, 65, 84
2, 312900, Note_on_c, 0, 55, 46
2, 312900, Note_on_c, 0, 53, 48
2, 312920, Note_on_c, 0, 55, 0
2, 312940, Note_on_c, 0, 62, 0
2, 312940, Note_on_c, 0, 50, 0
2, 312940, Note_on_c, 0, 71, 0
2, 312940, Note_on_c, 0, 65, 0
2, 312944, Note_on_c, 0, 77, 0
2, 312956, Note_on_c, 0, 65, 0
2, 312960, Note_on_c, 0, 71, 79
2, 313020, Note_on_c, 0, 74, 80
2, 313032, Note_on_c, 0, 71, 0
2, 313088, Note_on_c, 0, 74, 0
2, 313088, Note_on_c, 0, 65, 79
2, 313132, Note_on_c, 0, 65, 0
2, 313164, Note_on_c, 0, 71, 91
2, 313192, Note_on_c, 0, 53, 0
2, 313228, Note_on_c, 0, 71, 0
2, 313244, Note_on_c, 0, 68, 93
2, 313244, Note_on_c, 0, 50, 68
2, 313244, Note_on_c, 0, 52, 70
2, 313284, Control_c, 0, 64, 104
2, 313292, Control_c, 0, 64, 0
2, 313324, Note_on_c, 0, 56, 68
2, 313352, Control_c, 0, 64, 127
2, 313360, Note_on_c, 0, 52, 0
2, 313376, Note_on_c, 0, 68, 0
2, 313384, Note_on_c, 0, 56, 0
2, 313384, Note_on_c, 0, 59, 76
2, 313388, Note_on_c, 0, 50, 0
2, 313448, Note_on_c, 0, 64, 71
2, 313468, Note_on_c, 0, 59, 0
2, 313516, Note_on_c, 0, 68, 68
2, 313536, Note_on_c, 0, 64, 0
2, 313568, Note_on_c, 0, 68, 0
2, 313568, Note_on_c, 0, 59, 73
2, 313596, Note_on_c, 0, 59, 0
2, 313668, Note_on_c, 0, 36, 74
2, 313668, Control_c, 0, 64, 40
2, 313672, Note_on_c, 0, 76, 93
2, 313672, Note_on_c, 0, 64, 76
2, 313672, Note_on_c, 0, 69, 73
2, 313672, Note_on_c, 0, 60, 73
2, 313676, Control_c, 0, 64, 0
2, 313680, Note_on_c, 0, 48, 78
2, 313696, Note_on_c, 0, 36, 0
2, 313720, Control_c, 0, 64, 88
2, 313728, Control_c, 0, 64, 127
2, 313744, Note_on_c, 0, 48, 0
2, 313744, Note_on_c, 0, 52, 78
2, 313760, Note_on_c, 0, 64, 84
2, 313800, Note_on_c, 0, 76, 0
2, 313804, Note_on_c, 0, 60, 0
2, 313804, Note_on_c, 0, 69, 0
2, 313804, Note_on_c, 0, 64, 0
2, 313832, Note_on_c, 0, 64, 0
2, 313832, Note_on_c, 0, 69, 83
2, 313904, Note_on_c, 0, 69, 0
2, 313904, Note_on_c, 0, 72, 78
2, 313952, Note_on_c, 0, 72, 0
2, 313960, Note_on_c, 0, 64, 73
2, 314004, Note_on_c, 0, 64, 0
2, 314036, Note_on_c, 0, 69, 79
2, 314088, Note_on_c, 0, 69, 0
2, 314096, Note_on_c, 0, 52, 0
2, 314128, Note_on_c, 0, 65, 93
2, 314128, Note_on_c, 0, 50, 71
2, 314128, Note_on_c, 0, 48, 70
2, 314172, Control_c, 0, 64, 104
2, 314180, Control_c, 0, 64, 24
2, 314188, Control_c, 0, 64, 0
2, 314208, Note_on_c, 0, 53, 75
2, 314240, Control_c, 0, 64, 56
2, 314244, Control_c, 0, 64, 127
2, 314280, Note_on_c, 0, 65, 0
2, 314284, Note_on_c, 0, 57, 72
2, 314296, Note_on_c, 0, 50, 0
2, 314296, Note_on_c, 0, 53, 0
2, 314304, Note_on_c, 0, 48, 0
2, 314344, Note_on_c, 0, 57, 0
2, 314344, Note_on_c, 0, 62, 78
2, 314412, Note_on_c, 0, 62, 0
2, 314412, Note_on_c, 0, 65, 75
2, 314468, Note_on_c, 0, 65, 0
2, 314472, Note_on_c, 0, 57, 83
2, 314504, Note_on_c, 0, 57, 0
2, 314580, Note_on_c, 0, 74, 100
2, 314580, Note_on_c, 0, 35, 74
2, 314580, Note_on_c, 0, 47, 69
2, 314580, Note_on_c, 0, 62, 76
2, 314580, Note_on_c, 0, 67, 73
2, 314580, Note_on_c, 0, 59, 73
2, 314580, Control_c, 0, 64, 40
2, 314584, Control_c, 0, 64, 0
2, 314620, Note_on_c, 0, 35, 0
2, 314628, Control_c, 0, 64, 72
2, 314636, Control_c, 0, 64, 127
2, 314644, Note_on_c, 0, 47, 0
2, 314680, Note_on_c, 0, 50, 51
2, 314704, Note_on_c, 0, 50, 0
2, 314712, Note_on_c, 0, 67, 0
2, 314712, Note_on_c, 0, 62, 0
2, 314712, Note_on_c, 0, 59, 0
2, 314720, Note_on_c, 0, 74, 0
2, 314736, Note_on_c, 0, 62, 73
2, 314788, Note_on_c, 0, 62, 0
2, 314796, Note_on_c, 0, 50, 76
2, 314816, Note_on_c, 0, 65, 76
2, 314836, Note_on_c, 0, 50, 0
2, 314892, Note_on_c, 0, 65, 0
2, 314892, Note_on_c, 0, 67, 79
2, 314944, Note_on_c, 0, 67, 0
2, 314964, Note_on_c, 0, 62, 78
2, 315020, Note_on_c, 0, 62, 0
2, 315064, Control_c, 0, 64, 0
2, 315076, Control_c, 0, 64, 0
2, 315084, Note_on_c, 0, 76, 98
2, 315084, Note_on_c, 0, 36, 73
2, 315084, Note_on_c, 0, 48, 65
2, 315084, Note_on_c, 0, 72, 66
2, 315084, Note_on_c, 0, 67, 68
2, 315108, Note_on_c, 0, 36, 0
2, 315120, Control_c, 0, 64, 88
2, 315128, Control_c, 0, 64, 127
2, 315136, Note_on_c, 0, 48, 0
2, 315196, Note_on_c, 0, 55, 73
2, 315256, Note_on_c, 0, 55, 0
2, 315260, Note_on_c, 0, 67, 0
2, 315260, Note_on_c, 0, 72, 0
2, 315280, Note_on_c, 0, 64, 74
2, 315332, Note_on_c, 0, 64, 0
2, 315360, Note_on_c, 0, 67, 76
2, 315428, Note_on_c, 0, 67, 0
2, 315432, Note_on_c, 0, 72, 74
2, 315504, Note_on_c, 0, 72, 0
2, 315508, Note_on_c, 0, 64, 77
2, 315572, Control_c, 0, 64, 56
2, 315580, Note_on_c, 0, 64, 0
2, 315580, Control_c, 0, 64, 0
2, 315592, Note_on_c, 0, 38, 69
2, 315596, Note_on_c, 0, 74, 98
2, 315604, Note_on_c, 0, 50, 77
2, 315608, Note_on_c, 0, 38, 0
2, 315628, Note_on_c, 0, 76, 0
2, 315632, Control_c, 0, 64, 72
2, 315640, Control_c, 0, 64, 127
2, 315644, Note_on_c, 0, 50, 0
2, 315676, Note_on_c, 0, 55, 69
2, 315708, Note_on_c, 0, 55, 0
2, 315748, Note_on_c, 0, 65, 75
2, 315784, Note_on_c, 0, 74, 0
2, 315804, Note_on_c, 0, 65, 0
2, 315812, Note_on_c, 0, 67, 75
2, 315876, Note_on_c, 0, 67, 0
2, 315880, Note_on_c, 0, 71, 70
2, 315964, Note_on_c, 0, 71, 0
2, 315964, Note_on_c, 0, 65, 73
2, 316012, Note_on_c, 0, 72, 93
2, 316024, Note_on_c, 0, 65, 0
2, 316052, Note_on_c, 0, 72, 0
2, 316080, Control_c, 0, 64, 104
2, 316088, Note_on_c, 0, 72, 98
2, 316088, Control_c, 0, 64, 24
2, 316096, Control_c, 0, 64, 0
2, 316100, Note_on_c, 0, 40, 71
2, 316116, Note_on_c, 0, 40, 0
2, 316116, Note_on_c, 0, 52, 56
2, 316136, Control_c, 0, 64, 88
2, 316144, Note_on_c, 0, 52, 0
2, 316144, Control_c, 0, 64, 127
2, 316176, Note_on_c, 0, 55, 73
2, 316200, Note_on_c, 0, 55, 0
2, 316208, Note_on_c, 0, 72, 0
2, 316240, Note_on_c, 0, 60, 76
2, 316292, Note_on_c, 0, 64, 74
2, 316304, Note_on_c, 0, 60, 0
2, 316364, Note_on_c, 0, 67, 80
2, 316372, Note_on_c, 0, 64, 0
2, 316408, Note_on_c, 0, 67, 0
2, 316424, Note_on_c, 0, 60, 73
2, 316440, Note_on_c, 0, 60, 0
2, 316540, Control_c, 0, 64, 56
2, 316548, Control_c, 0, 64, 0
2, 316552, Note_on_c, 0, 81, 100
2, 316552, Note_on_c, 0, 41, 71
2, 316568, Note_on_c, 0, 53, 66
2, 316584, Note_on_c, 0, 41, 0
2, 316592, Control_c, 0, 64, 72
2, 316600, Control_c, 0, 64, 127
2, 316608, Note_on_c, 0, 53, 0
2, 316648, Note_on_c, 0, 60, 72
2, 316684, Note_on_c, 0, 81, 0
2, 316700, Note_on_c, 0, 60, 0
2, 316708, Note_on_c, 0, 69, 74
2, 316768, Note_on_c, 0, 69, 0
2, 316784, Note_on_c, 0, 72, 78
2, 316848, Note_on_c, 0, 72, 0
2, 316848, Note_on_c, 0, 74, 81
2, 316896, Note_on_c, 0, 74, 0
2, 316928, Note_on_c, 0, 69, 81
2, 316976, Note_on_c, 0, 69, 0
2, 317004, Control_c, 0, 64, 56
2, 317016, Note_on_c, 0, 43, 73
2, 317016, Note_on_c, 0, 74, 94
2, 317016, Control_c, 0, 64, 0
2, 317032, Note_on_c, 0, 55, 77
2, 317044, Note_on_c, 0, 43, 0
2, 317056, Control_c, 0, 64, 40
2, 317064, Control_c, 0, 64, 127
2, 317084, Note_on_c, 0, 55, 0
2, 317100, Note_on_c, 0, 59, 83
2, 317128, Note_on_c, 0, 59, 0
2, 317180, Note_on_c, 0, 62, 73
2, 317244, Note_on_c, 0, 67, 76
2, 317248, Note_on_c, 0, 62, 0
2, 317276, Note_on_c, 0, 74, 0
2, 317316, Note_on_c, 0, 71, 68
2, 317328, Note_on_c, 0, 67, 0
2, 317376, Note_on_c, 0, 71, 0
2, 317384, Note_on_c, 0, 62, 78
2, 317408, Note_on_c, 0, 62, 0
2, 317484, Control_c, 0, 64, 56
2, 317492, Note_on_c, 0, 41, 73
2, 317496, Note_on_c, 0, 79, 96
2, 317496, Note_on_c, 0, 67, 76
2, 317496, Note_on_c, 0, 70, 76
2, 317496, Control_c, 0, 64, 0
2, 317500, Note_on_c, 0, 53, 78
2, 317524, Note_on_c, 0, 41, 0
2, 317536, Control_c, 0, 64, 88
2, 317540, Note_on_c, 0, 53, 0
2, 317544, Control_c, 0, 64, 127
2, 317576, Note_on_c, 0, 58, 78
2, 317612, Note_on_c, 0, 58, 0
2, 317640, Note_on_c, 0, 67, 79
2, 317708, Note_on_c, 0, 67, 0
2, 317720, Note_on_c, 0, 70, 64
2, 317776, Note_on_c, 0, 70, 0
2, 317792, Note_on_c, 0, 74, 72
2, 317848, Note_on_c, 0, 74, 0
2, 317868, Note_on_c, 0, 67, 75
2, 317916, Control_c, 0, 64, 104
2, 317924, Control_c, 0, 64, 40
2, 317932, Note_on_c, 0, 40, 79
2, 317932, Control_c, 0, 64, 0
2, 317956, Note_on_c, 0, 52, 75
2, 317964, Note_on_c, 0, 40, 0
2, 317968, Control_c, 0, 64, 72
2, 317972, Note_on_c, 0, 52, 0
2, 317972, Control_c, 0, 64, 127
2, 317992, Note_on_c, 0, 67, 0
2, 317992, Note_on_c, 0, 67, 0
2, 318028, Note_on_c, 0, 58, 73
2, 318056, Note_on_c, 0, 70, 0
2, 318060, Note_on_c, 0, 58, 0
2, 318076, Note_on_c, 0, 79, 0
2, 318088, Note_on_c, 0, 67, 74
2, 318152, Note_on_c, 0, 70, 79
2, 318188, Note_on_c, 0, 67, 0
2, 318216, Note_on_c, 0, 73, 74
2, 318220, Note_on_c, 0, 70, 0
2, 318272, Note_on_c, 0, 73, 0
2, 318284, Note_on_c, 0, 67, 81
2, 318348, Control_c, 0, 64, 88
2, 318356, Note_on_c, 0, 67, 0
2, 318356, Control_c, 0, 64, 24
2, 318364, Control_c, 0, 64, 0
2, 318368, Note_on_c, 0, 77, 99
2, 318380, Note_on_c, 0, 38, 73
2, 318388, Note_on_c, 0, 50, 69
2, 318396, Control_c, 0, 64, 56
2, 318404, Note_on_c, 0, 38, 0
2, 318404, Control_c, 0, 64, 127
2, 318412, Note_on_c, 0, 50, 0
2, 318460, Note_on_c, 0, 58, 66
2, 318500, Note_on_c, 0, 58, 0
2, 318516, Note_on_c, 0, 67, 76
2, 318588, Note_on_c, 0, 70, 77
2, 318604, Note_on_c, 0, 67, 0
2, 318628, Note_on_c, 0, 77, 0
2, 318648, Note_on_c, 0, 70, 0
2, 318700, Note_on_c, 0, 76, 92
2, 318720, Note_on_c, 0, 49, 75
2, 318720, Note_on_c, 0, 37, 73
2, 318728, Note_on_c, 0, 67, 78
2, 318768, Note_on_c, 0, 37, 0
2, 318776, Note_on_c, 0, 49, 0
2, 318800, Note_on_c, 0, 76, 0
2, 318800, Note_on_c, 0, 67, 0
2, 318812, Control_c, 0, 64, 104
2, 318816, Note_on_c, 0, 77, 99
2, 318816, Note_on_c, 0, 65, 81
2, 318816, Note_on_c, 0, 69, 78
2, 318820, Control_c, 0, 64, 40
2, 318824, Note_on_c, 0, 38, 76
2, 318828, Note_on_c, 0, 50, 83
2, 318828, Control_c, 0, 64, 0
2, 318852, Note_on_c, 0, 38, 0
2, 318860, Note_on_c, 0, 50, 0
2, 318860, Control_c, 0, 64, 24
2, 318868, Control_c, 0, 64, 88
2, 318876, Control_c, 0, 64, 127
2, 318908, Note_on_c, 0, 57, 74
2, 318944, Note_on_c, 0, 57, 0
2, 318968, Note_on_c, 0, 65, 68
2, 319036, Note_on_c, 0, 69, 73
2, 319060, Note_on_c, 0, 77, 0
2, 319072, Note_on_c, 0, 65, 0
2, 319076, Note_on_c, 0, 65, 0
2, 319076, Note_on_c, 0, 69, 0
2, 319116, Note_on_c, 0, 74, 78
2, 319124, Note_on_c, 0, 69, 0
2, 319192, Note_on_c, 0, 74, 0
2, 319192, Note_on_c, 0, 65, 78
2, 319256, Note_on_c, 0, 65, 0
2, 319260, Control_c, 0, 64, 104
2, 319264, Note_on_c, 0, 76, 99
2, 319268, Control_c, 0, 64, 40
2, 319272, Note_on_c, 0, 40, 80
2, 319276, Control_c, 0, 64, 0
2, 319284, Note_on_c, 0, 52, 76
2, 319304, Note_on_c, 0, 40, 0
2, 319316, Control_c, 0, 64, 56
2, 319324, Control_c, 0, 64, 127
2, 319336, Note_on_c, 0, 52, 0
2, 319372, Note_on_c, 0, 57, 53
2, 319400, Note_on_c, 0, 57, 0
2, 319416, Note_on_c, 0, 67, 75
2, 319472, Note_on_c, 0, 69, 78
2, 319500, Note_on_c, 0, 67, 0
2, 319536, Note_on_c, 0, 73, 73
2, 319540, Note_on_c, 0, 69, 0
2, 319560, Note_on_c, 0, 76, 0
2, 319616, Note_on_c, 0, 67, 75
2, 319624, Note_on_c, 0, 73, 0
2, 319636, Note_on_c, 0, 74, 93
2, 319672, Note_on_c, 0, 74, 0
2, 319680, Note_on_c, 0, 67, 0
2, 319728, Note_on_c, 0, 74, 97
2, 319740, Control_c, 0, 64, 56
2, 319748, Note_on_c, 0, 41, 73
2, 319748, Control_c, 0, 64, 0
2, 319764, Note_on_c, 0, 53, 71
2, 319776, Note_on_c, 0, 41, 0
2, 319788, Control_c, 0, 64, 40
2, 319796, Control_c, 0, 64, 127
2, 319824, Note_on_c, 0, 53, 0
2, 319832, Note_on_c, 0, 57, 71
2, 319852, Note_on_c, 0, 74, 0
2, 319856, Note_on_c, 0, 57, 0
2, 319880, Note_on_c, 0, 62, 70
2, 319932, Note_on_c, 0, 65, 76
2, 319956, Note_on_c, 0, 62, 0
2, 320004, Note_on_c, 0, 65, 0
2, 320004, Note_on_c, 0, 69, 79
2, 320052, Note_on_c, 0, 69, 0
2, 320068, Note_on_c, 0, 62, 66
2, 320084, Note_on_c, 0, 62, 0
2, 320176, Control_c, 0, 64, 104
2, 320188, Control_c, 0, 64, 56
2, 320192, Note_on_c, 0, 82, 103
2, 320192, Note_on_c, 0, 43, 75
2, 320196, Control_c, 0, 64, 0
2, 320208, Note_on_c, 0, 55, 71
2, 320220, Note_on_c, 0, 43, 0
2, 320236, Control_c, 0, 64, 72
2, 320244, Control_c, 0, 64, 127
2, 320248, Note_on_c, 0, 55, 0
2, 320292, Note_on_c, 0, 62, 48
2, 320328, Note_on_c, 0, 82, 0
2, 320336, Note_on_c, 0, 70, 74
2, 320352, Note_on_c, 0, 62, 0
2, 320420, Note_on_c, 0, 70, 0
2, 320420, Note_on_c, 0, 74, 79
2, 320492, Note_on_c, 0, 79, 78
2, 320500, Note_on_c, 0, 74, 0
2, 320552, Note_on_c, 0, 79, 0
2, 320556, Note_on_c, 0, 70, 78
2, 320600, Note_on_c, 0, 70, 0
2, 320628, Control_c, 0, 64, 88
2, 320632, Note_on_c, 0, 76, 101
2, 320636, Note_on_c, 0, 45, 73
2, 320636, Control_c, 0, 64, 24
2, 320644, Note_on_c, 0, 57, 76
2, 320644, Control_c, 0, 64, 0
2, 320656, Note_on_c, 0, 45, 0
2, 320676, Control_c, 0, 64, 24
2, 320684, Control_c, 0, 64, 104
2, 320692, Control_c, 0, 64, 127
2, 320696, Note_on_c, 0, 57, 0
2, 320716, Note_on_c, 0, 61, 73
2, 320748, Note_on_c, 0, 61, 0
2, 320788, Note_on_c, 0, 64, 75
2, 320856, Note_on_c, 0, 64, 0
2, 320856, Note_on_c, 0, 69, 74
2, 320932, Note_on_c, 0, 73, 59
2, 320936, Note_on_c, 0, 69, 0
2, 320980, Note_on_c, 0, 76, 0
2, 320984, Note_on_c, 0, 64, 74
2, 320988, Note_on_c, 0, 73, 0
2, 321016, Note_on_c, 0, 64, 0
2, 321088, Control_c, 0, 64, 104
2, 321096, Control_c, 0, 64, 56
2, 321104, Note_on_c, 0, 43, 70
2, 321104, Note_on_c, 0, 81, 100
2, 321104, Control_c, 0, 64, 0
2, 321112, Note_on_c, 0, 55, 73
2, 321120, Note_on_c, 0, 43, 0
2, 321136, Control_c, 0, 64, 24
2, 321144, Control_c, 0, 64, 104
2, 321152, Note_on_c, 0, 55, 0
2, 321152, Control_c, 0, 64, 127
2, 321180, Note_on_c, 0, 60, 77
2, 321248, Note_on_c, 0, 69, 74
2, 321252, Note_on_c, 0, 60, 0
2, 321328, Note_on_c, 0, 72, 75
2, 321344, Note_on_c, 0, 69, 0
2, 321384, Note_on_c, 0, 72, 0
2, 321396, Note_on_c, 0, 76, 77
2, 321452, Note_on_c, 0, 76, 0
2, 321464, Note_on_c, 0, 69, 84
2, 321512, Control_c, 0, 64, 104
2, 321520, Control_c, 0, 64, 40
2, 321528, Control_c, 0, 64, 0
2, 321536, Note_on_c, 0, 42, 73
2, 321536, Note_on_c, 0, 54, 76
2, 321536, Note_on_c, 0, 69, 76
2, 321536, Note_on_c, 0, 72, 81
2, 321568, Control_c, 0, 64, 72
2, 321572, Note_on_c, 0, 42, 0
2, 321576, Control_c, 0, 64, 127
2, 321580, Note_on_c, 0, 54, 0
2, 321580, Note_on_c, 0, 69, 0
2, 321620, Note_on_c, 0, 60, 72
2, 321636, Note_on_c, 0, 60, 0
2, 321664, Note_on_c, 0, 81, 0
2, 321680, Note_on_c, 0, 69, 78
2, 321756, Note_on_c, 0, 72, 74
2, 321764, Note_on_c, 0, 69, 0
2, 321820, Note_on_c, 0, 75, 73
2, 321824, Note_on_c, 0, 72, 0
2, 321880, Note_on_c, 0, 75, 0
2, 321896, Note_on_c, 0, 69, 57
2, 321944, Control_c, 0, 64, 56
2, 321952, Control_c, 0, 64, 0
2, 321956, Note_on_c, 0, 69, 0
2, 321960, Note_on_c, 0, 79, 97
2, 321960, Note_on_c, 0, 40, 78
2, 321972, Note_on_c, 0, 52, 75
2, 321992, Control_c, 0, 64, 72
2, 321996, Note_on_c, 0, 40, 0
2, 322000, Note_on_c, 0, 52, 0
2, 322000, Control_c, 0, 64, 127
2, 322052, Note_on_c, 0, 60, 76
2, 322092, Note_on_c, 0, 60, 0
2, 322092, Note_on_c, 0, 69, 65
2, 322172, Note_on_c, 0, 72, 78
2, 322180, Note_on_c, 0, 69, 0
2, 322180, Note_on_c, 0, 72, 0
2, 322188, Note_on_c, 0, 79, 0
2, 322224, Note_on_c, 0, 69, 0
2, 322236, Note_on_c, 0, 72, 0
2, 322272, Note_on_c, 0, 78, 91
2, 322288, Note_on_c, 0, 51, 74
2, 322288, Note_on_c, 0, 39, 77
2, 322308, Note_on_c, 0, 69, 78
2, 322332, Note_on_c, 0, 51, 0
2, 322340, Note_on_c, 0, 39, 0
2, 322380, Note_on_c, 0, 69, 0
2, 322384, Note_on_c, 0, 79, 99
2, 322384, Note_on_c, 0, 67, 73
2, 322384, Note_on_c, 0, 71, 76
2, 322388, Note_on_c, 0, 78, 0
2, 322392, Note_on_c, 0, 40, 80
2, 322392, Control_c, 0, 64, 56
2, 322400, Note_on_c, 0, 52, 76
2, 322400, Control_c, 0, 64, 0
2, 322420, Note_on_c, 0, 40, 0
2, 322440, Note_on_c, 0, 52, 0
2, 322440, Control_c, 0, 64, 72
2, 322448, Control_c, 0, 64, 127
2, 322484, Note_on_c, 0, 59, 79
2, 322512, Note_on_c, 0, 59, 0
2, 322548, Note_on_c, 0, 67, 66
2, 322612, Note_on_c, 0, 71, 74
2, 322632, Note_on_c, 0, 67, 0
2, 322632, Note_on_c, 0, 79, 0
2, 322632, Note_on_c, 0, 67, 0
2, 322676, Note_on_c, 0, 71, 0
2, 322680, Note_on_c, 0, 76, 70
2, 322748, Note_on_c, 0, 76, 0
2, 322748, Note_on_c, 0, 67, 78
2, 322812, Note_on_c, 0, 67, 0
2, 322824, Control_c, 0, 64, 104
2, 322832, Note_on_c, 0, 78, 97
2, 322832, Control_c, 0, 64, 40
2, 322836, Control_c, 0, 64, 0
2, 322840, Note_on_c, 0, 42, 74
2, 322844, Note_on_c, 0, 54, 73
2, 322864, Note_on_c, 0, 42, 0
2, 322880, Control_c, 0, 64, 72
2, 322888, Control_c, 0, 64, 127
2, 322912, Note_on_c, 0, 54, 0
2, 322924, Note_on_c, 0, 59, 67
2, 322948, Note_on_c, 0, 59, 0
2, 322964, Note_on_c, 0, 69, 77
2, 323016, Note_on_c, 0, 71, 71
2, 323024, Note_on_c, 0, 69, 0
2, 323028, Note_on_c, 0, 71, 0
2, 323080, Note_on_c, 0, 78, 0
2, 323080, Note_on_c, 0, 71, 0
2, 323080, Note_on_c, 0, 75, 72
2, 323140, Note_on_c, 0, 69, 78
2, 323156, Note_on_c, 0, 75, 0
2, 323196, Note_on_c, 0, 69, 0
2, 323196, Note_on_c, 0, 76, 93
2, 323240, Note_on_c, 0, 76, 0
2, 323272, Note_on_c, 0, 76, 93
2, 323272, Note_on_c, 0, 43, 78
2, 323276, Control_c, 0, 64, 56
2, 323284, Control_c, 0, 64, 0
2, 323288, Note_on_c, 0, 55, 75
2, 323296, Note_on_c, 0, 43, 0
2, 323316, Control_c, 0, 64, 24
2, 323324, Control_c, 0, 64, 88
2, 323332, Note_on_c, 0, 55, 0
2, 323336, Control_c, 0, 64, 127
2, 323360, Note_on_c, 0, 59, 73
2, 323384, Note_on_c, 0, 59, 0
2, 323420, Note_on_c, 0, 64, 73
2, 323472, Note_on_c, 0, 67, 75
2, 323488, Note_on_c, 0, 64, 0
2, 323500, Note_on_c, 0, 76, 0
2, 323528, Note_on_c, 0, 71, 67
2, 323536, Note_on_c, 0, 67, 0
2, 323588, Note_on_c, 0, 64, 73
2, 323592, Note_on_c, 0, 71, 0
2, 323616, Note_on_c, 0, 64, 0
2, 323736, Control_c, 0, 64, 72
2, 323740, Control_c, 0, 64, 0
2, 323752, Note_on_c, 0, 48, 73
2, 323752, Note_on_c, 0, 36, 75
2, 323752, Note_on_c, 0, 76, 106
2, 323752, Note_on_c, 0, 88, 101
2, 323780, Control_c, 0, 64, 72
2, 323788, Note_on_c, 0, 36, 0
2, 323788, Control_c, 0, 64, 127
2, 323792, Note_on_c, 0, 48, 0
2, 323848, Note_on_c, 0, 58, 77
2, 323884, Note_on_c, 0, 58, 0
2, 323900, Note_on_c, 0, 64, 72
2, 323964, Note_on_c, 0, 64, 0
2, 323964, Note_on_c, 0, 67, 81
2, 324036, Note_on_c, 0, 70, 66
2, 324040, Note_on_c, 0, 67, 0
2, 324092, Note_on_c, 0, 70, 0
2, 324096, Note_on_c, 0, 64, 67
2, 324148, Note_on_c, 0, 64, 0
2, 324172, Control_c, 0, 64, 0
2, 324216, Note_on_c, 0, 75, 100
2, 324216, Note_on_c, 0, 87, 99
2, 324216, Control_c, 0, 64, 127
2, 324296, Note_on_c, 0, 57, 77
2, 324356, Note_on_c, 0, 57, 0
2, 324368, Note_on_c, 0, 63, 64
2, 324392, Note_on_c, 0, 88, 0
2, 324408, Note_on_c, 0, 76, 0
2, 324432, Note_on_c, 0, 66, 70
2, 324440, Note_on_c, 0, 63, 0
2, 324500, Note_on_c, 0, 66, 0
2, 324500, Note_on_c, 0, 69, 72
2, 324564, Note_on_c, 0, 69, 0
2, 324564, Note_on_c, 0, 63, 68
2, 324608, Note_on_c, 0, 63, 0
2, 324632, Control_c, 0, 64, 104
2, 324644, Control_c, 0, 64, 40
2, 324648, Note_on_c, 0, 74, 94
2, 324648, Note_on_c, 0, 86, 97
2, 324652, Note_on_c, 0, 47, 73
2, 324652, Note_on_c, 0, 35, 77
2, 324652, Note_on_c, 0, 68, 75
2, 324652, Note_on_c, 0, 59, 75
2, 324652, Note_on_c, 0, 62, 76
2, 324652, Control_c, 0, 64, 0
2, 324676, Note_on_c, 0, 35, 0
2, 324684, Control_c, 0, 64, 72
2, 324688, Note_on_c, 0, 47, 0
2, 324692, Control_c, 0, 64, 127
2, 324736, Note_on_c, 0, 56, 72
2, 324760, Note_on_c, 0, 68, 0
2, 324800, Note_on_c, 0, 62, 76
2, 324856, Note_on_c, 0, 87, 0
2, 324860, Note_on_c, 0, 62, 0
2, 324872, Note_on_c, 0, 75, 0
2, 324888, Note_on_c, 0, 65, 76
2, 324932, Note_on_c, 0, 65, 0
2, 324944, Note_on_c, 0, 68, 70
2, 325004, Note_on_c, 0, 68, 0
2, 325012, Note_on_c, 0, 62, 73
2, 325040, Control_c, 0, 64, 56
2, 325048, Control_c, 0, 64, 0
2, 325060, Note_on_c, 0, 33, 71
2, 325072, Note_on_c, 0, 45, 76
2, 325072, Note_on_c, 0, 69, 78
2, 325072, Note_on_c, 0, 57, 78
2, 325072, Note_on_c, 0, 65, 76
2, 325080, Control_c, 0, 64, 24
2, 325088, Control_c, 0, 64, 88
2, 325092, Note_on_c, 0, 33, 0
2, 325096, Control_c, 0, 64, 127
2, 325100, Note_on_c, 0, 45, 0
2, 325116, Note_on_c, 0, 62, 0
2, 325152, Note_on_c, 0, 57, 78
2, 325188, Note_on_c, 0, 57, 0
2, 325224, Note_on_c, 0, 62, 82
2, 325264, Note_on_c, 0, 74, 0
2, 325280, Note_on_c, 0, 65, 78
2, 325288, Note_on_c, 0, 86, 0
2, 325296, Note_on_c, 0, 59, 0
2, 325296, Note_on_c, 0, 56, 0
2, 325296, Note_on_c, 0, 62, 0
2, 325308, Note_on_c, 0, 62, 0
2, 325352, Note_on_c, 0, 65, 0
2, 325352, Note_on_c, 0, 69, 83
2, 325404, Note_on_c, 0, 69, 0
2, 325416, Note_on_c, 0, 62, 75
2, 325464, Control_c, 0, 64, 88
2, 325472, Control_c, 0, 64, 24
2, 325480, Note_on_c, 0, 32, 76
2, 325480, Control_c, 0, 64, 0
2, 325492, Note_on_c, 0, 62, 0
2, 325492, Note_on_c, 0, 72, 100
2, 325492, Note_on_c, 0, 44, 73
2, 325492, Note_on_c, 0, 60, 71
2, 325492, Note_on_c, 0, 53, 74
2, 325492, Note_on_c, 0, 50, 74
2, 325492, Note_on_c, 0, 84, 96
2, 325492, Note_on_c, 0, 60, 72
2, 325492, Note_on_c, 0, 62, 73
2, 325492, Note_on_c, 0, 56, 73
2, 325512, Note_on_c, 0, 32, 0
2, 325516, Control_c, 0, 64, 56
2, 325520, Control_c, 0, 64, 127
2, 325532, Note_on_c, 0, 44, 0
2, 325584, Note_on_c, 0, 59, 83
2, 325612, Note_on_c, 0, 59, 0
2, 325652, Note_on_c, 0, 62, 76
2, 325712, Note_on_c, 0, 69, 0
2, 325712, Note_on_c, 0, 57, 0
2, 325712, Note_on_c, 0, 65, 0
2, 325728, Note_on_c, 0, 65, 86
2, 325740, Note_on_c, 0, 72, 0
2, 325748, Note_on_c, 0, 84, 0
2, 325748, Note_on_c, 0, 62, 0
2, 325748, Note_on_c, 0, 56, 0
2, 325748, Note_on_c, 0, 60, 0
2, 325752, Note_on_c, 0, 60, 0
2, 325764, Note_on_c, 0, 62, 0
2, 325784, Note_on_c, 0, 65, 0
2, 325816, Note_on_c, 0, 71, 97
2, 325816, Note_on_c, 0, 83, 96
2, 325816, Note_on_c, 0, 59, 78
2, 325864, Note_on_c, 0, 62, 73
2, 325896, Note_on_c, 0, 71, 0
2, 325916, Note_on_c, 0, 59, 0
2, 325916, Note_on_c, 0, 83, 0
2, 325924, Note_on_c, 0, 62, 0
2, 325928, Control_c, 0, 64, 56
2, 325936, Note_on_c, 0, 33, 77
2, 325936, Control_c, 0, 64, 0
2, 325944, Note_on_c, 0, 72, 96
2, 325944, Note_on_c, 0, 84, 97
2, 325948, Note_on_c, 0, 45, 73
2, 325948, Note_on_c, 0, 60, 78
2, 325948, Note_on_c, 0, 76, 69
2, 325948, Note_on_c, 0, 57, 74
2, 325972, Note_on_c, 0, 33, 0
2, 325976, Control_c, 0, 64, 72
2, 325984, Control_c, 0, 64, 127
2, 326024, Note_on_c, 0, 45, 0
2, 326028, Note_on_c, 0, 52, 62
2, 326084, Note_on_c, 0, 60, 72
2, 326136, Note_on_c, 0, 50, 0
2, 326136, Note_on_c, 0, 53, 0
2, 326152, Note_on_c, 0, 64, 72
2, 326168, Note_on_c, 0, 60, 0
2, 326172, Note_on_c, 0, 76, 0
2, 326208, Note_on_c, 0, 52, 0
2, 326208, Note_on_c, 0, 60, 0
2, 326208, Note_on_c, 0, 57, 0
2, 326224, Note_on_c, 0, 64, 0
2, 326224, Note_on_c, 0, 69, 78
2, 326292, Note_on_c, 0, 60, 71
2, 326344, Note_on_c, 0, 69, 0
2, 326352, Note_on_c, 0, 60, 0
2, 326360, Control_c, 0, 64, 56
2, 326368, Control_c, 0, 64, 0
2, 326372, Note_on_c, 0, 71, 93
2, 326372, Note_on_c, 0, 35, 78
2, 326372, Note_on_c, 0, 59, 76
2, 326372, Note_on_c, 0, 83, 94
2, 326376, Note_on_c, 0, 47, 70
2, 326400, Control_c, 0, 64, 56
2, 326408, Note_on_c, 0, 35, 0
2, 326408, Control_c, 0, 64, 127
2, 326416, Note_on_c, 0, 47, 0
2, 326456, Note_on_c, 0, 52, 70
2, 326480, Note_on_c, 0, 52, 0
2, 326500, Note_on_c, 0, 62, 77
2, 326504, Note_on_c, 0, 59, 0
2, 326524, Note_on_c, 0, 71, 0
2, 326548, Note_on_c, 0, 84, 0
2, 326556, Note_on_c, 0, 72, 0
2, 326556, Note_on_c, 0, 64, 78
2, 326564, Note_on_c, 0, 62, 0
2, 326592, Note_on_c, 0, 83, 0
2, 326624, Note_on_c, 0, 68, 78
2, 326636, Note_on_c, 0, 64, 0
2, 326688, Note_on_c, 0, 62, 78
2, 326696, Note_on_c, 0, 68, 0
2, 326740, Note_on_c, 0, 69, 95
2, 326740, Note_on_c, 0, 81, 94
2, 326748, Note_on_c, 0, 62, 0
2, 326784, Note_on_c, 0, 69, 0
2, 326812, Note_on_c, 0, 69, 94
2, 326812, Note_on_c, 0, 81, 98
2, 326824, Note_on_c, 0, 36, 77
2, 326824, Control_c, 0, 64, 56
2, 326832, Note_on_c, 0, 48, 73
2, 326832, Control_c, 0, 64, 0
2, 326856, Note_on_c, 0, 36, 0
2, 326864, Control_c, 0, 64, 40
2, 326872, Control_c, 0, 64, 127
2, 326888, Note_on_c, 0, 48, 0
2, 326892, Note_on_c, 0, 52, 76
2, 326932, Note_on_c, 0, 52, 0
2, 326936, Note_on_c, 0, 69, 0
2, 326960, Note_on_c, 0, 81, 0
2, 326964, Note_on_c, 0, 57, 74
2, 327020, Note_on_c, 0, 60, 78
2, 327032, Note_on_c, 0, 81, 0
2, 327036, Note_on_c, 0, 57, 0
2, 327100, Note_on_c, 0, 60, 0
2, 327100, Note_on_c, 0, 64, 73
2, 327148, Note_on_c, 0, 64, 0
2, 327164, Note_on_c, 0, 57, 68
2, 327180, Note_on_c, 0, 57, 0
2, 327288, Control_c, 0, 64, 88
2, 327292, Note_on_c, 0, 53, 73
2, 327292, Note_on_c, 0, 41, 74
2, 327296, Control_c, 0, 64, 0
2, 327300, Note_on_c, 0, 81, 107
2, 327300, Note_on_c, 0, 93, 107
2, 327300, Note_on_c, 0, 69, 84
2, 327300, Note_on_c, 0, 65, 80
2, 327336, Control_c, 0, 64, 88
2, 327340, Note_on_c, 0, 41, 0
2, 327340, Control_c, 0, 64, 127
2, 327360, Note_on_c, 0, 53, 0
2, 327404, Note_on_c, 0, 63, 82
2, 327436, Note_on_c, 0, 63, 0
2, 327468, Note_on_c, 0, 69, 83
2, 327512, Note_on_c, 0, 81, 0
2, 327520, Note_on_c, 0, 65, 0
2, 327520, Note_on_c, 0, 93, 0
2, 327520, Note_on_c, 0, 69, 0
2, 327532, Note_on_c, 0, 72, 86
2, 327540, Note_on_c, 0, 69, 0
2, 327600, Note_on_c, 0, 75, 73
2, 327616, Note_on_c, 0, 72, 0
2, 327656, Note_on_c, 0, 75, 0
2, 327660, Note_on_c, 0, 69, 73
2, 327724, Note_on_c, 0, 69, 0
2, 327748, Note_on_c, 0, 80, 102
2, 327748, Note_on_c, 0, 92, 103
2, 327748, Note_on_c, 0, 68, 84
2, 327820, Note_on_c, 0, 62, 78
2, 327860, Note_on_c, 0, 62, 0
2, 327876, Note_on_c, 0, 68, 79
2, 327952, Note_on_c, 0, 71, 76
2, 327960, Note_on_c, 0, 68, 0
2, 327968, Note_on_c, 0, 68, 0
2, 327968, Note_on_c, 0, 92, 0
2, 328032, Note_on_c, 0, 74, 72
2, 328036, Note_on_c, 0, 80, 0
2, 328036, Note_on_c, 0, 71, 0
2, 328084, Note_on_c, 0, 68, 68
2, 328120, Note_on_c, 0, 74, 0
2, 328132, Note_on_c, 0, 68, 0
2, 328156, Control_c, 0, 64, 88
2, 328164, Control_c, 0, 64, 40
2, 328168, Note_on_c, 0, 79, 98
2, 328168, Note_on_c, 0, 67, 80
2, 328168, Note_on_c, 0, 73, 76
2, 328168, Note_on_c, 0, 64, 72
2, 328168, Note_on_c, 0, 40, 78
2, 328168, Note_on_c, 0, 52, 73
2, 328168, Note_on_c, 0, 91, 99
2, 328172, Control_c, 0, 64, 0
2, 328196, Control_c, 0, 64, 56
2, 328204, Note_on_c, 0, 52, 0
2, 328204, Note_on_c, 0, 40, 0
2, 328204, Control_c, 0, 64, 127
2, 328248, Note_on_c, 0, 61, 75
2, 328308, Note_on_c, 0, 67, 78
2, 328380, Note_on_c, 0, 67, 0
2, 328384, Note_on_c, 0, 70, 78
2, 328440, Note_on_c, 0, 70, 0
2, 328440, Note_on_c, 0, 73, 72
2, 328500, Note_on_c, 0, 73, 0
2, 328508, Note_on_c, 0, 67, 79
2, 328512, Note_on_c, 0, 73, 0
2, 328564, Control_c, 0, 64, 72
2, 328572, Control_c, 0, 64, 0
2, 328576, Note_on_c, 0, 38, 80
2, 328584, Note_on_c, 0, 50, 73
2, 328584, Note_on_c, 0, 74, 84
2, 328584, Note_on_c, 0, 70, 77
2, 328584, Note_on_c, 0, 67, 78
2, 328596, Control_c, 0, 64, 56
2, 328600, Note_on_c, 0, 67, 0
2, 328604, Control_c, 0, 64, 127
2, 328608, Note_on_c, 0, 50, 0
2, 328620, Note_on_c, 0, 38, 0
2, 328664, Note_on_c, 0, 62, 78
2, 328684, Note_on_c, 0, 64, 0
2, 328684, Note_on_c, 0, 61, 0
2, 328684, Note_on_c, 0, 67, 0
2, 328692, Note_on_c, 0, 62, 0
2, 328728, Note_on_c, 0, 67, 83
2, 328772, Note_on_c, 0, 91, 0
2, 328792, Note_on_c, 0, 70, 81
2, 328816, Note_on_c, 0, 67, 0
2, 328820, Note_on_c, 0, 79, 0
2, 328860, Note_on_c, 0, 74, 78
2, 328868, Note_on_c, 0, 70, 0
2, 328920, Note_on_c, 0, 74, 0
2, 328924, Note_on_c, 0, 67, 83
2, 328984, Control_c, 0, 64, 56
2, 328992, Control_c, 0, 64, 0
2, 329000, Note_on_c, 0, 67, 0
2, 329008, Note_on_c, 0, 77, 103
2, 329008, Note_on_c, 0, 65, 76
2, 329008, Note_on_c, 0, 37, 76
2, 329008, Note_on_c, 0, 49, 72
2, 329008, Note_on_c, 0, 61, 73
2, 329008, Note_on_c, 0, 89, 101
2, 329020, Control_c, 0, 64, 72
2, 329028, Control_c, 0, 64, 127
2, 329044, Note_on_c, 0, 37, 0
2, 329048, Note_on_c, 0, 49, 0
2, 329100, Note_on_c, 0, 64, 68
2, 329120, Note_on_c, 0, 64, 0
2, 329140, Note_on_c, 0, 65, 0
2, 329152, Note_on_c, 0, 67, 81
2, 329188, Note_on_c, 0, 74, 0
2, 329188, Note_on_c, 0, 67, 0
2, 329188, Note_on_c, 0, 70, 0
2, 329224, Note_on_c, 0, 70, 88
2, 329228, Note_on_c, 0, 89, 0
2, 329244, Note_on_c, 0, 67, 0
2, 329264, Note_on_c, 0, 77, 0
2, 329288, Note_on_c, 0, 70, 0
2, 329304, Note_on_c, 0, 76, 91
2, 329304, Note_on_c, 0, 64, 78
2, 329304, Note_on_c, 0, 88, 97
2, 329360, Note_on_c, 0, 67, 86
2, 329376, Note_on_c, 0, 76, 0
2, 329428, Note_on_c, 0, 67, 0
2, 329436, Note_on_c, 0, 64, 0
2, 329436, Note_on_c, 0, 50, 71
2, 329436, Note_on_c, 0, 38, 79
2, 329436, Control_c, 0, 64, 40
2, 329444, Note_on_c, 0, 77, 100
2, 329444, Note_on_c, 0, 65, 78
2, 329444, Note_on_c, 0, 89, 100
2, 329444, Note_on_c, 0, 62, 76
2, 329444, Control_c, 0, 64, 0
2, 329472, Note_on_c, 0, 50, 0
2, 329476, Control_c, 0, 64, 72
2, 329480, Note_on_c, 0, 38, 0
2, 329480, Control_c, 0, 64, 127
2, 329524, Note_on_c, 0, 88, 0
2, 329524, Note_on_c, 0, 61, 0
2, 329532, Note_on_c, 0, 62, 77
2, 329560, Note_on_c, 0, 62, 0
2, 329576, Note_on_c, 0, 65, 0
2, 329584, Note_on_c, 0, 65, 81
2, 329656, Note_on_c, 0, 69, 86
2, 329664, Note_on_c, 0, 62, 0
2, 329664, Note_on_c, 0, 89, 0
2, 329676, Note_on_c, 0, 65, 0
2, 329700, Note_on_c, 0, 77, 0
2, 329728, Note_on_c, 0, 74, 79
2, 329744, Note_on_c, 0, 69, 0
2, 329796, Note_on_c, 0, 74, 0
2, 329800, Note_on_c, 0, 65, 86
2, 329852, Note_on_c, 0, 65, 0
2, 329892, Note_on_c, 0, 82, 102
2, 329892, Note_on_c, 0, 70, 86
2, 329892, Note_on_c, 0, 58, 63
2, 329892, Note_on_c, 0, 50, 73
2, 329892, Control_c, 0, 64, 127
2, 329908, Note_on_c, 0, 50, 0
2, 329948, Note_on_c, 0, 58, 0
2, 329996, Note_on_c, 0, 65, 74
2, 330012, Note_on_c, 0, 70, 0
2, 330088, Note_on_c, 0, 70, 72
2, 330180, Note_on_c, 0, 74, 73
2, 330200, Note_on_c, 0, 70, 0
2, 330252, Note_on_c, 0, 77, 78
2, 330256, Note_on_c, 0, 82, 0
2, 330260, Note_on_c, 0, 74, 0
2, 330328, Note_on_c, 0, 70, 65
2, 330340, Note_on_c, 0, 77, 0
2, 330408, Note_on_c, 0, 70, 0
2, 330412, Note_on_c, 0, 80, 101
2, 330412, Note_on_c, 0, 68, 76
2, 330412, Note_on_c, 0, 65, 76
2, 330420, Note_on_c, 0, 65, 0
2, 330428, Note_on_c, 0, 59, 68
2, 330500, Note_on_c, 0, 65, 76
2, 330584, Note_on_c, 0, 68, 72
2, 330628, Note_on_c, 0, 65, 0
2, 330656, Note_on_c, 0, 68, 0
2, 330660, Note_on_c, 0, 59, 0
2, 330664, Note_on_c, 0, 71, 73
2, 330688, Note_on_c, 0, 80, 0
2, 330740, Note_on_c, 0, 77, 73
2, 330752, Note_on_c, 0, 71, 0
2, 330808, Note_on_c, 0, 77, 0
2, 330812, Note_on_c, 0, 68, 70
2, 330848, Note_on_c, 0, 68, 0
2, 330900, Control_c, 0, 64, 104
2, 330908, Control_c, 0, 64, 24
2, 330912, Note_on_c, 0, 81, 94
2, 330912, Note_on_c, 0, 72, 88
2, 330912, Note_on_c, 0, 69, 76
2, 330912, Note_on_c, 0, 63, 76
2, 330916, Note_on_c, 0, 39, 69
2, 330916, Control_c, 0, 64, 0
2, 330920, Note_on_c, 0, 51, 76
2, 330936, Control_c, 0, 64, 72
2, 330944, Control_c, 0, 64, 127
2, 330948, Note_on_c, 0, 39, 0
2, 330956, Note_on_c, 0, 81, 0
2, 330956, Note_on_c, 0, 72, 0
2, 330960, Note_on_c, 0, 51, 0
2, 331004, Note_on_c, 0, 53, 76
2, 331052, Note_on_c, 0, 65, 0
2, 331052, Note_on_c, 0, 68, 0
2, 331100, Note_on_c, 0, 65, 78
2, 331160, Note_on_c, 0, 65, 0
2, 331176, Note_on_c, 0, 69, 78
2, 331204, Note_on_c, 0, 53, 0
2, 331240, Note_on_c, 0, 69, 0
2, 331252, Note_on_c, 0, 72, 81
2, 331316, Note_on_c, 0, 72, 0
2, 331340, Note_on_c, 0, 60, 70
2, 331416, Control_c, 0, 64, 56
2, 331424, Control_c, 0, 64, 0
2, 331428, Note_on_c, 0, 60, 0
2, 331432, Note_on_c, 0, 69, 85
2, 331432, Note_on_c, 0, 61, 76
2, 331432, Note_on_c, 0, 42, 65
2, 331440, Note_on_c, 0, 49, 70
2, 331448, Note_on_c, 0, 37, 72
2, 331456, Control_c, 0, 64, 56
2, 331464, Control_c, 0, 64, 127
2, 331476, Note_on_c, 0, 49, 0
2, 331520, Note_on_c, 0, 37, 0
2, 331532, Note_on_c, 0, 53, 78
2, 331552, Note_on_c, 0, 69, 0
2, 331552, Note_on_c, 0, 63, 0
2, 331572, Note_on_c, 0, 53, 0
2, 331592, Note_on_c, 0, 69, 0
2, 331620, Note_on_c, 0, 57, 68
2, 331688, Note_on_c, 0, 61, 71
2, 331704, Note_on_c, 0, 57, 0
2, 331756, Note_on_c, 0, 61, 0
2, 331768, Note_on_c, 0, 65, 73
2, 331824, Note_on_c, 0, 65, 0
2, 331832, Note_on_c, 0, 57, 76
2, 331848, Note_on_c, 0, 57, 0
2, 331944, Control_c, 0, 64, 40
2, 331952, Control_c, 0, 64, 0
2, 331960, Note_on_c, 0, 82, 98
2, 331964, Note_on_c, 0, 70, 83
2, 331972, Note_on_c, 0, 58, 68
2, 331972, Note_on_c, 0, 50, 79
2, 331984, Control_c, 0, 64, 72
2, 331992, Control_c, 0, 64, 127
2, 332004, Note_on_c, 0, 50, 0
2, 332024, Note_on_c, 0, 58, 0
2, 332048, Note_on_c, 0, 65, 79
2, 332064, Note_on_c, 0, 70, 0
2, 332072, Note_on_c, 0, 42, 0
2, 332072, Note_on_c, 0, 61, 0
2, 332128, Note_on_c, 0, 70, 76
2, 332216, Note_on_c, 0, 70, 0
2, 332216, Note_on_c, 0, 74, 79
2, 332288, Note_on_c, 0, 77, 83
2, 332300, Note_on_c, 0, 82, 0
2, 332324, Note_on_c, 0, 74, 0
2, 332360, Note_on_c, 0, 70, 67
2, 332380, Note_on_c, 0, 77, 0
2, 332432, Note_on_c, 0, 70, 0
2, 332448, Note_on_c, 0, 80, 100
2, 332448, Note_on_c, 0, 68, 78
2, 332448, Note_on_c, 0, 65, 75
2, 332460, Note_on_c, 0, 65, 0
2, 332468, Note_on_c, 0, 59, 71
2, 332544, Note_on_c, 0, 65, 78
2, 332620, Note_on_c, 0, 68, 70
2, 332668, Note_on_c, 0, 65, 0
2, 332668, Note_on_c, 0, 68, 0
2, 332676, Note_on_c, 0, 65, 0
2, 332684, Note_on_c, 0, 68, 0
2, 332688, Note_on_c, 0, 80, 0
2, 332692, Note_on_c, 0, 71, 78
2, 332732, Note_on_c, 0, 59, 0
2, 332772, Note_on_c, 0, 77, 80
2, 332788, Note_on_c, 0, 71, 0
2, 332832, Note_on_c, 0, 68, 69
2, 332840, Note_on_c, 0, 77, 0
2, 332888, Note_on_c, 0, 68, 0
2, 332928, Control_c, 0, 64, 40
2, 332936, Note_on_c, 0, 81, 94
2, 332936, Note_on_c, 0, 72, 79
2, 332936, Note_on_c, 0, 63, 73
2, 332936, Control_c, 0, 64, 0
2, 332940, Note_on_c, 0, 69, 88
2, 332948, Note_on_c, 0, 51, 78
2, 332948, Note_on_c, 0, 39, 74
2, 332968, Control_c, 0, 64, 40
2, 332976, Note_on_c, 0, 39, 0
2, 332976, Note_on_c, 0, 81, 0
2, 332976, Control_c, 0, 64, 127
2, 332988, Note_on_c, 0, 51, 0
2, 332992, Note_on_c, 0, 69, 0
2, 333032, Note_on_c, 0, 53, 78
2, 333116, Note_on_c, 0, 65, 74
2, 333156, Note_on_c, 0, 63, 0
2, 333156, Note_on_c, 0, 72, 0
2, 333176, Note_on_c, 0, 65, 0
2, 333184, Note_on_c, 0, 69, 78
2, 333216, Note_on_c, 0, 53, 0
2, 333248, Note_on_c, 0, 69, 0
2, 333264, Note_on_c, 0, 72, 79
2, 333324, Note_on_c, 0, 72, 0
2, 333348, Note_on_c, 0, 60, 78
2, 333416, Control_c, 0, 64, 104
2, 333420, Note_on_c, 0, 60, 0
2, 333424, Control_c, 0, 64, 24
2, 333432, Control_c, 0, 64, 0
2, 333448, Note_on_c, 0, 69, 93
2, 333448, Note_on_c, 0, 37, 78
2, 333448, Note_on_c, 0, 49, 74
2, 333448, Note_on_c, 0, 61, 73
2, 333448, Note_on_c, 0, 42, 72
2, 333468, Control_c, 0, 64, 104
2, 333472, Note_on_c, 0, 37, 0
2, 333476, Control_c, 0, 64, 127
2, 333480, Note_on_c, 0, 49, 0
2, 333536, Note_on_c, 0, 53, 81
2, 333568, Note_on_c, 0, 53, 0
2, 333600, Note_on_c, 0, 69, 0
2, 333616, Note_on_c, 0, 57, 68
2, 333668, Note_on_c, 0, 42, 0
2, 333668, Note_on_c, 0, 61, 0
2, 333684, Note_on_c, 0, 61, 71
2, 333704, Note_on_c, 0, 57, 0
2, 333764, Note_on_c, 0, 61, 0
2, 333768, Note_on_c, 0, 65, 75
2, 333828, Note_on_c, 0, 65, 0
2, 333840, Note_on_c, 0, 57, 67
2, 333852, Note_on_c, 0, 57, 0
2, 333960, Note_on_c, 0, 82, 106
2, 333960, Note_on_c, 0, 70, 90
2, 333960, Control_c, 0, 64, 40
2, 333964, Control_c, 0, 64, 0
2, 333976, Note_on_c, 0, 50, 76
2, 333984, Note_on_c, 0, 58, 69
2, 333984, Note_on_c, 0, 53, 73
2, 333988, Control_c, 0, 64, 56
2, 333996, Control_c, 0, 64, 127
2, 334008, Note_on_c, 0, 50, 0
2, 334028, Note_on_c, 0, 58, 0
2, 334056, Note_on_c, 0, 65, 74
2, 334064, Note_on_c, 0, 70, 0
2, 334128, Note_on_c, 0, 70, 76
2, 334172, Note_on_c, 0, 70, 0
2, 334204, Note_on_c, 0, 53, 0
2, 334216, Note_on_c, 0, 74, 70
2, 334276, Note_on_c, 0, 74, 0
2, 334284, Note_on_c, 0, 77, 83
2, 334300, Note_on_c, 0, 82, 0
2, 334348, Note_on_c, 0, 77, 0
2, 334360, Note_on_c, 0, 70, 76
2, 334428, Note_on_c, 0, 70, 0
2, 334436, Note_on_c, 0, 80, 98
2, 334436, Note_on_c, 0, 68, 76
2, 334436, Note_on_c, 0, 65, 73
2, 334448, Note_on_c, 0, 59, 72
2, 334456, Note_on_c, 0, 65, 0
2, 334524, Note_on_c, 0, 65, 83
2, 334600, Note_on_c, 0, 68, 72
2, 334640, Note_on_c, 0, 80, 0
2, 334656, Note_on_c, 0, 68, 0
2, 334656, Note_on_c, 0, 65, 0
2, 334656, Note_on_c, 0, 68, 0
2, 334660, Note_on_c, 0, 65, 0
2, 334676, Note_on_c, 0, 71, 78
2, 334692, Note_on_c, 0, 59, 0
2, 334752, Note_on_c, 0, 77, 77
2, 334756, Note_on_c, 0, 71, 0
2, 334812, Note_on_c, 0, 68, 64
2, 334824, Note_on_c, 0, 77, 0
2, 334860, Note_on_c, 0, 68, 0
2, 334904, Control_c, 0, 64, 88
2, 334912, Note_on_c, 0, 81, 93
2, 334912, Control_c, 0, 64, 0
2, 334920, Note_on_c, 0, 69, 83
2, 334928, Note_on_c, 0, 39, 67
2, 334928, Note_on_c, 0, 54, 73
2, 334928, Note_on_c, 0, 66, 73
2, 334928, Note_on_c, 0, 63, 73
2, 334932, Note_on_c, 0, 51, 72
2, 334948, Note_on_c, 0, 39, 0
2, 334952, Note_on_c, 0, 81, 0
2, 334952, Control_c, 0, 64, 56
2, 334956, Control_c, 0, 64, 127
2, 334960, Note_on_c, 0, 69, 0
2, 334964, Note_on_c, 0, 51, 0
2, 335012, Note_on_c, 0, 54, 79
2, 335096, Note_on_c, 0, 57, 69
2, 335148, Note_on_c, 0, 54, 0
2, 335148, Note_on_c, 0, 63, 0
2, 335148, Note_on_c, 0, 66, 0
2, 335152, Note_on_c, 0, 54, 0
2, 335172, Note_on_c, 0, 61, 73
2, 335188, Note_on_c, 0, 57, 0
2, 335240, Note_on_c, 0, 61, 0
2, 335252, Note_on_c, 0, 66, 73
2, 335312, Note_on_c, 0, 66, 0
2, 335328, Note_on_c, 0, 57, 69
2, 335372, Note_on_c, 0, 57, 0
2, 335440, Note_on_c, 0, 40, 77
2, 335440, Note_on_c, 0, 67, 84
2, 335448, Note_on_c, 0, 52, 70
2, 335452, Control_c, 0, 64, 24
2, 335460, Control_c, 0, 64, 88
2, 335468, Control_c, 0, 64, 127
2, 335492, Note_on_c, 0, 40, 0
2, 335500, Note_on_c, 0, 52, 0
2, 335536, Note_on_c, 0, 55, 48
2, 335568, Note_on_c, 0, 55, 0
2, 335588, Note_on_c, 0, 67, 0
2, 335600, Note_on_c, 0, 58, 65
2, 335644, Note_on_c, 0, 58, 0
2, 335672, Note_on_c, 0, 61, 68
2, 335736, Note_on_c, 0, 61, 0
2, 335752, Note_on_c, 0, 64, 65
2, 335820, Note_on_c, 0, 64, 0
2, 335832, Note_on_c, 0, 58, 66
2, 335848, Note_on_c, 0, 58, 0
2, 335952, Note_on_c, 0, 80, 74
2, 335952, Note_on_c, 0, 92, 80
2, 335952, Note_on_c, 0, 83, 84
2, 335956, Note_on_c, 0, 68, 78
2, 335972, Note_on_c, 0, 52, 73
2, 335972, Note_on_c, 0, 59, 68
2, 335996, Control_c, 0, 64, 104
2, 336004, Control_c, 0, 64, 0
2, 336044, Note_on_c, 0, 64, 74
2, 336056, Control_c, 0, 64, 56
2, 336060, Note_on_c, 0, 68, 0
2, 336064, Control_c, 0, 64, 127
2, 336124, Note_on_c, 0, 68, 70
2, 336172, Note_on_c, 0, 92, 0
2, 336180, Note_on_c, 0, 80, 0
2, 336188, Note_on_c, 0, 68, 0
2, 336200, Note_on_c, 0, 71, 73
2, 336272, Note_on_c, 0, 71, 0
2, 336284, Note_on_c, 0, 76, 63
2, 336332, Note_on_c, 0, 76, 0
2, 336340, Note_on_c, 0, 68, 70
2, 336348, Note_on_c, 0, 59, 0
2, 336424, Note_on_c, 0, 64, 0
2, 336424, Note_on_c, 0, 68, 0
2, 336428, Note_on_c, 0, 78, 96
2, 336428, Note_on_c, 0, 90, 79
2, 336428, Note_on_c, 0, 52, 75
2, 336428, Note_on_c, 0, 64, 73
2, 336448, Note_on_c, 0, 59, 68
2, 336524, Note_on_c, 0, 64, 78
2, 336600, Note_on_c, 0, 66, 68
2, 336612, Note_on_c, 0, 64, 0
2, 336640, Note_on_c, 0, 59, 0
2, 336648, Note_on_c, 0, 64, 0
2, 336648, Note_on_c, 0, 90, 0
2, 336648, Note_on_c, 0, 52, 0
2, 336648, Note_on_c, 0, 52, 0
2, 336684, Note_on_c, 0, 71, 68
2, 336688, Note_on_c, 0, 66, 0
2, 336744, Note_on_c, 0, 78, 0
2, 336760, Note_on_c, 0, 71, 0
2, 336768, Note_on_c, 0, 76, 74
2, 336812, Note_on_c, 0, 66, 56
2, 336852, Note_on_c, 0, 66, 0
2, 336880, Note_on_c, 0, 76, 0
2, 336924, Control_c, 0, 64, 88
2, 336928, Note_on_c, 0, 79, 98
2, 336928, Note_on_c, 0, 91, 76
2, 336928, Note_on_c, 0, 64, 73
2, 336928, Note_on_c, 0, 82, 73
2, 336932, Note_on_c, 0, 67, 83
2, 336932, Note_on_c, 0, 40, 76
2, 336932, Control_c, 0, 64, 0
2, 336940, Note_on_c, 0, 83, 0
2, 336948, Note_on_c, 0, 52, 73
2, 336956, Note_on_c, 0, 40, 0
2, 336980, Note_on_c, 0, 79, 0
2, 336980, Control_c, 0, 64, 56
2, 336988, Control_c, 0, 64, 127
2, 336996, Note_on_c, 0, 67, 0
2, 336996, Note_on_c, 0, 52, 0
2, 337024, Note_on_c, 0, 55, 75
2, 337100, Note_on_c, 0, 58, 69
2, 337148, Note_on_c, 0, 64, 0
2, 337148, Note_on_c, 0, 91, 0
2, 337148, Note_on_c, 0, 82, 0
2, 337152, Note_on_c, 0, 58, 0
2, 337172, Note_on_c, 0, 61, 66
2, 337240, Note_on_c, 0, 61, 0
2, 337256, Note_on_c, 0, 64, 69
2, 337280, Note_on_c, 0, 55, 0
2, 337320, Note_on_c, 0, 64, 0
2, 337332, Note_on_c, 0, 58, 72
2, 337404, Note_on_c, 0, 58, 0
2, 337428, Control_c, 0, 64, 104
2, 337432, Note_on_c, 0, 40, 74
2, 337432, Note_on_c, 0, 65, 79
2, 337432, Note_on_c, 0, 61, 73
2, 337436, Control_c, 0, 64, 24
2, 337444, Note_on_c, 0, 52, 72
2, 337444, Control_c, 0, 64, 0
2, 337484, Control_c, 0, 64, 72
2, 337492, Control_c, 0, 64, 127
2, 337496, Note_on_c, 0, 52, 0
2, 337512, Note_on_c, 0, 53, 76
2, 337596, Note_on_c, 0, 59, 69
2, 337652, Note_on_c, 0, 61, 0
2, 337656, Note_on_c, 0, 59, 0
2, 337672, Note_on_c, 0, 61, 78
2, 337720, Note_on_c, 0, 61, 0
2, 337748, Note_on_c, 0, 65, 73
2, 337756, Note_on_c, 0, 53, 0
2, 337808, Note_on_c, 0, 65, 0
2, 337840, Note_on_c, 0, 59, 65
2, 337856, Note_on_c, 0, 59, 0
2, 337860, Note_on_c, 0, 40, 0
2, 337932, Note_on_c, 0, 59, 63
2, 337936, Note_on_c, 0, 78, 98
2, 337936, Note_on_c, 0, 90, 76
2, 337936, Note_on_c, 0, 86, 74
2, 337936, Note_on_c, 0, 52, 66
2, 337936, Note_on_c, 0, 66, 80
2, 337936, Note_on_c, 0, 62, 74
2, 337944, Note_on_c, 0, 65, 0
2, 338008, Control_c, 0, 64, 72
2, 338016, Control_c, 0, 64, 0
2, 338024, Note_on_c, 0, 66, 0
2, 338028, Note_on_c, 0, 62, 76
2, 338072, Control_c, 0, 64, 104
2, 338076, Control_c, 0, 64, 127
2, 338100, Note_on_c, 0, 66, 64
2, 338156, Note_on_c, 0, 66, 0
2, 338156, Note_on_c, 0, 62, 0
2, 338180, Note_on_c, 0, 71, 75
2, 338240, Note_on_c, 0, 71, 0
2, 338244, Note_on_c, 0, 78, 0
2, 338252, Note_on_c, 0, 74, 70
2, 338256, Note_on_c, 0, 59, 0
2, 338296, Note_on_c, 0, 74, 0
2, 338316, Note_on_c, 0, 66, 67
2, 338364, Note_on_c, 0, 66, 0
2, 338400, Note_on_c, 0, 62, 0
2, 338408, Note_on_c, 0, 76, 90
2, 338408, Note_on_c, 0, 88, 74
2, 338420, Note_on_c, 0, 59, 70
2, 338480, Control_c, 0, 64, 88
2, 338488, Control_c, 0, 64, 0
2, 338496, Note_on_c, 0, 62, 76
2, 338528, Control_c, 0, 64, 24
2, 338536, Control_c, 0, 64, 104
2, 338540, Note_on_c, 0, 90, 0
2, 338544, Control_c, 0, 64, 127
2, 338568, Note_on_c, 0, 64, 73
2, 338616, Note_on_c, 0, 64, 0
2, 338628, Note_on_c, 0, 52, 0
2, 338640, Note_on_c, 0, 68, 68
2, 338644, Note_on_c, 0, 62, 0
2, 338656, Note_on_c, 0, 59, 0
2, 338676, Note_on_c, 0, 76, 0
2, 338708, Note_on_c, 0, 68, 0
2, 338716, Note_on_c, 0, 74, 78
2, 338776, Note_on_c, 0, 74, 0
2, 338788, Note_on_c, 0, 64, 56
2, 338816, Note_on_c, 0, 64, 0
2, 338876, Control_c, 0, 64, 88
2, 338884, Note_on_c, 0, 77, 93
2, 338884, Note_on_c, 0, 89, 76
2, 338884, Note_on_c, 0, 83, 73
2, 338884, Note_on_c, 0, 62, 73
2, 338884, Control_c, 0, 64, 24
2, 338892, Note_on_c, 0, 65, 71
2, 338892, Note_on_c, 0, 40, 69
2, 338892, Control_c, 0, 64, 0
2, 338904, Note_on_c, 0, 52, 63
2, 338912, Note_on_c, 0, 40, 0
2, 338924, Note_on_c, 0, 77, 0
2, 338924, Note_on_c, 0, 86, 0
2, 338928, Control_c, 0, 64, 56
2, 338940, Note_on_c, 0, 65, 0
2, 338940, Control_c, 0, 64, 127
2, 338948, Note_on_c, 0, 52, 0
2, 338976, Note_on_c, 0, 53, 74
2, 339012, Note_on_c, 0, 88, 0
2, 339048, Note_on_c, 0, 56, 64
2, 339100, Note_on_c, 0, 56, 0
2, 339128, Note_on_c, 0, 59, 66
2, 339184, Note_on_c, 0, 59, 0
2, 339184, Note_on_c, 0, 53, 0
2, 339196, Note_on_c, 0, 62, 68
2, 339260, Note_on_c, 0, 62, 0
2, 339276, Note_on_c, 0, 56, 67
2, 339340, Note_on_c, 0, 56, 0
2, 339376, Note_on_c, 0, 63, 80
2, 339376, Note_on_c, 0, 40, 66
2, 339376, Note_on_c, 0, 52, 68
2, 339376, Note_on_c, 0, 47, 68
2, 339420, Control_c, 0, 64, 56
2, 339424, Control_c, 0, 64, 0
2, 339468, Note_on_c, 0, 51, 69
2, 339488, Note_on_c, 0, 62, 0
2, 339488, Note_on_c, 0, 83, 0
2, 339488, Note_on_c, 0, 89, 0
2, 339488, Control_c, 0, 64, 127
2, 339536, Note_on_c, 0, 63, 0
2, 339544, Note_on_c, 0, 57, 68
2, 339600, Note_on_c, 0, 57, 0
2, 339624, Note_on_c, 0, 40, 0
2, 339628, Note_on_c, 0, 60, 67
2, 339668, Note_on_c, 0, 51, 0
2, 339688, Note_on_c, 0, 60, 0
2, 339696, Note_on_c, 0, 63, 65
2, 339756, Note_on_c, 0, 63, 0
2, 339776, Note_on_c, 0, 57, 73
2, 339792, Note_on_c, 0, 57, 0
2, 339888, Note_on_c, 0, 76, 94
2, 339888, Note_on_c, 0, 88, 77
2, 339888, Note_on_c, 0, 84, 73
2, 339888, Note_on_c, 0, 60, 73
2, 339896, Note_on_c, 0, 64, 72
2, 339904, Note_on_c, 0, 57, 68
2, 339908, Note_on_c, 0, 52, 68
2, 339944, Control_c, 0, 64, 24
2, 339952, Control_c, 0, 64, 0
2, 339968, Note_on_c, 0, 60, 74
2, 339980, Note_on_c, 0, 47, 0
2, 339980, Note_on_c, 0, 52, 0
2, 339988, Note_on_c, 0, 64, 0
2, 340000, Control_c, 0, 64, 56
2, 340008, Control_c, 0, 64, 127
2, 340044, Note_on_c, 0, 64, 72
2, 340124, Note_on_c, 0, 69, 72
2, 340128, Note_on_c, 0, 64, 0
2, 340136, Note_on_c, 0, 60, 0
2, 340148, Note_on_c, 0, 52, 0
2, 340164, Note_on_c, 0, 57, 0
2, 340176, Note_on_c, 0, 76, 0
2, 340188, Note_on_c, 0, 69, 0
2, 340208, Note_on_c, 0, 72, 74
2, 340264, Note_on_c, 0, 72, 0
2, 340284, Note_on_c, 0, 64, 61
2, 340308, Note_on_c, 0, 64, 0
2, 340368, Note_on_c, 0, 73, 93
2, 340368, Note_on_c, 0, 85, 76
2, 340368, Note_on_c, 0, 80, 73
2, 340368, Note_on_c, 0, 52, 73
2, 340392, Note_on_c, 0, 40, 77
2, 340424, Control_c, 0, 64, 104
2, 340432, Control_c, 0, 64, 24
2, 340440, Control_c, 0, 64, 0
2, 340468, Note_on_c, 0, 52, 74
2, 340488, Control_c, 0, 64, 72
2, 340492, Note_on_c, 0, 84, 0
2, 340492, Note_on_c, 0, 60, 0
2, 340492, Note_on_c, 0, 88, 0
2, 340496, Control_c, 0, 64, 127
2, 340540, Note_on_c, 0, 61, 64
2, 340588, Note_on_c, 0, 40, 0
2, 340604, Note_on_c, 0, 52, 0
2, 340624, Note_on_c, 0, 61, 0
2, 340624, Note_on_c, 0, 65, 63
2, 340684, Note_on_c, 0, 65, 0
2, 340696, Note_on_c, 0, 68, 54
2, 340740, Note_on_c, 0, 68, 0
2, 340740, Note_on_c, 0, 73, 0
2, 340752, Note_on_c, 0, 61, 64
2, 340792, Note_on_c, 0, 61, 0
2, 340856, Note_on_c, 0, 74, 90
2, 340856, Note_on_c, 0, 86, 75
2, 340856, Note_on_c, 0, 80, 71
2, 340856, Note_on_c, 0, 64, 68
2, 340864, Note_on_c, 0, 56, 61
2, 340868, Note_on_c, 0, 52, 67
2, 340920, Control_c, 0, 64, 72
2, 340928, Control_c, 0, 64, 0
2, 340940, Note_on_c, 0, 59, 73
2, 340972, Note_on_c, 0, 85, 0
2, 340972, Note_on_c, 0, 52, 0
2, 340972, Note_on_c, 0, 80, 0
2, 340976, Control_c, 0, 64, 56
2, 340984, Control_c, 0, 64, 127
2, 341008, Note_on_c, 0, 62, 74
2, 341052, Note_on_c, 0, 74, 0
2, 341084, Note_on_c, 0, 65, 78
2, 341092, Note_on_c, 0, 62, 0
2, 341108, Note_on_c, 0, 59, 0
2, 341124, Note_on_c, 0, 52, 0
2, 341132, Note_on_c, 0, 56, 0
2, 341156, Note_on_c, 0, 68, 73
2, 341160, Note_on_c, 0, 65, 0
2, 341228, Note_on_c, 0, 68, 0
2, 341236, Note_on_c, 0, 62, 78
2, 341296, Note_on_c, 0, 62, 0
2, 341332, Note_on_c, 0, 71, 88
2, 341332, Note_on_c, 0, 83, 73
2, 341332, Note_on_c, 0, 80, 68
2, 341332, Note_on_c, 0, 76, 68
2, 341332, Note_on_c, 0, 74, 68
2, 341356, Note_on_c, 0, 40, 75
2, 341392, Control_c, 0, 64, 56
2, 341400, Control_c, 0, 64, 0
2, 341424, Note_on_c, 0, 52, 73
2, 341456, Control_c, 0, 64, 72
2, 341460, Note_on_c, 0, 64, 0
2, 341460, Note_on_c, 0, 80, 0
2, 341460, Note_on_c, 0, 86, 0
2, 341464, Control_c, 0, 64, 127
2, 341492, Note_on_c, 0, 59, 68
2, 341548, Note_on_c, 0, 71, 0
2, 341552, Note_on_c, 0, 59, 0
2, 341568, Note_on_c, 0, 62, 72
2, 341572, Note_on_c, 0, 40, 0
2, 341580, Note_on_c, 0, 52, 0
2, 341640, Note_on_c, 0, 62, 0
2, 341644, Note_on_c, 0, 65, 65
2, 341704, Note_on_c, 0, 65, 0
2, 341724, Note_on_c, 0, 59, 76
2, 341764, Note_on_c, 0, 59, 0
2, 341820, Note_on_c, 0, 72, 88
2, 341820, Note_on_c, 0, 84, 70
2, 341820, Note_on_c, 0, 81, 66
2, 341828, Note_on_c, 0, 52, 66
2, 341888, Control_c, 0, 64, 104
2, 341896, Control_c, 0, 64, 24
2, 341904, Control_c, 0, 64, 0
2, 341916, Note_on_c, 0, 57, 63
2, 341936, Note_on_c, 0, 83, 0
2, 341936, Note_on_c, 0, 74, 0
2, 341936, Note_on_c, 0, 80, 0
2, 341968, Control_c, 0, 64, 40
2, 341976, Note_on_c, 0, 60, 67
2, 341976, Control_c, 0, 64, 127
2, 342044, Note_on_c, 0, 60, 0
2, 342056, Note_on_c, 0, 64, 69
2, 342060, Note_on_c, 0, 57, 0
2, 342068, Note_on_c, 0, 52, 0
2, 342084, Note_on_c, 0, 72, 0
2, 342140, Note_on_c, 0, 64, 0
2, 342144, Note_on_c, 0, 69, 68
2, 342216, Note_on_c, 0, 69, 0
2, 342228, Note_on_c, 0, 60, 75
2, 342280, Note_on_c, 0, 60, 0
2, 342320, Note_on_c, 0, 76, 0
2, 342320, Note_on_c, 0, 70, 83
2, 342320, Note_on_c, 0, 82, 66
2, 342320, Note_on_c, 0, 79, 64
2, 342320, Note_on_c, 0, 76, 64
2, 342348, Note_on_c, 0, 40, 77
2, 342376, Control_c, 0, 64, 104
2, 342384, Control_c, 0, 64, 40
2, 342392, Control_c, 0, 64, 0
2, 342420, Note_on_c, 0, 52, 73
2, 342424, Note_on_c, 0, 84, 0
2, 342424, Note_on_c, 0, 81, 0
2, 342448, Control_c, 0, 64, 56
2, 342456, Control_c, 0, 64, 127
2, 342508, Note_on_c, 0, 58, 58
2, 342568, Note_on_c, 0, 58, 0
2, 342588, Note_on_c, 0, 62, 67
2, 342620, Note_on_c, 0, 40, 0
2, 342656, Note_on_c, 0, 52, 0
2, 342660, Note_on_c, 0, 70, 0
2, 342660, Note_on_c, 0, 62, 0
2, 342672, Note_on_c, 0, 67, 61
2, 342728, Note_on_c, 0, 67, 0
2, 342740, Note_on_c, 0, 58, 59
2, 342784, Note_on_c, 0, 58, 0
2, 342856, Note_on_c, 0, 71, 79
2, 342856, Note_on_c, 0, 83, 66
2, 342856, Note_on_c, 0, 80, 63
2, 342856, Note_on_c, 0, 74, 63
2, 342880, Note_on_c, 0, 52, 73
2, 342924, Note_on_c, 0, 82, 0
2, 342924, Note_on_c, 0, 76, 0
2, 342924, Note_on_c, 0, 79, 0
2, 342952, Control_c, 0, 64, 72
2, 342960, Note_on_c, 0, 56, 67
2, 342960, Control_c, 0, 64, 0
2, 343028, Control_c, 0, 64, 24
2, 343036, Note_on_c, 0, 59, 60
2, 343036, Control_c, 0, 64, 88
2, 343044, Control_c, 0, 64, 127
2, 343104, Note_on_c, 0, 59, 0
2, 343124, Note_on_c, 0, 62, 70
2, 343204, Note_on_c, 0, 71, 0
2, 343212, Note_on_c, 0, 62, 0
2, 343216, Note_on_c, 0, 68, 66
2, 343316, Note_on_c, 0, 56, 0
2, 343336, Note_on_c, 0, 68, 0
2, 343340, Note_on_c, 0, 59, 64
2, 343368, Note_on_c, 0, 59, 0
2, 343368, Note_on_c, 0, 52, 0
2, 343460, Note_on_c, 0, 80, 0
2, 343460, Note_on_c, 0, 74, 0
2, 343460, Note_on_c, 0, 83, 0
2, 343644, Note_on_c, 0, 72, 90
2, 343644, Note_on_c, 0, 69, 75
2, 343644, Note_on_c, 0, 45, 76
2, 343644, Note_on_c, 0, 64, 76
2, 343644, Note_on_c, 0, 60, 78
2, 343644, Note_on_c, 0, 52, 61
2, 343644, Note_on_c, 0, 57, 66
2, 343644, Control_c, 0, 64, 127
2, 343668, Control_c, 0, 64, 104
2, 343684, Control_c, 0, 64, 24
2, 343700, Control_c, 0, 64, 0
2, 343744, Control_c, 0, 64, 72
2, 343764, Control_c, 0, 64, 127
2, 343824, Control_c, 0, 64, 56
2, 343840, Control_c, 0, 64, 0
2, 343916, Control_c, 0, 64, 104
2, 343932, Control_c, 0, 64, 127
2, 344412, Note_on_c, 0, 69, 0
2, 344416, Note_on_c, 0, 60, 0
2, 344424, Note_on_c, 0, 45, 0
2, 344424, Note_on_c, 0, 52, 0
2, 344428, Note_on_c, 0, 57, 0
2, 344428, Note_on_c, 0, 72, 0
2, 344432, Note_on_c, 0, 64, 0
2, 344620, Note_on_c, 0, 71, 84
2, 344620, Note_on_c, 0, 64, 67
2, 344620, Note_on_c, 0, 68, 67
2, 344620, Note_on_c, 0, 50, 63
2, 344620, Note_on_c, 0, 52, 59
2, 344620, Note_on_c, 0, 59, 60
2, 344712, Control_c, 0, 64, 104
2, 344732, Control_c, 0, 64, 88
2, 344744, Control_c, 0, 64, 72
2, 344752, Control_c, 0, 64, 88
2, 344760, Control_c, 0, 64, 56
2, 344768, Control_c, 0, 64, 24
2, 344776, Control_c, 0, 64, 40
2, 344784, Control_c, 0, 64, 0
2, 344792, Control_c, 0, 64, 24
2, 344808, Control_c, 0, 64, 0
2, 344940, Control_c, 0, 64, 40
2, 344956, Control_c, 0, 64, 127
2, 344980, Note_on_c, 0, 50, 0
2, 345012, Note_on_c, 0, 52, 0
2, 345016, Note_on_c, 0, 59, 0
2, 345064, Note_on_c, 0, 68, 0
2, 345076, Note_on_c, 0, 64, 0
2, 345108, Note_on_c, 0, 71, 0
2, 345384, Note_on_c, 0, 69, 79
2, 345384, Note_on_c, 0, 64, 58
2, 345384, Note_on_c, 0, 57, 60
2, 345384, Note_on_c, 0, 48, 66
2, 345384, Note_on_c, 0, 52, 63
2, 345384, Control_c, 0, 64, 72
2, 345420, Control_c, 0, 64, 0
2, 345440, Note_on_c, 0, 48, 0
2, 345452, Control_c, 0, 64, 24
2, 345464, Note_on_c, 0, 57, 0
2, 345464, Control_c, 0, 64, 72
2, 345472, Note_on_c, 0, 52, 0
2, 345480, Control_c, 0, 64, 127
2, 345488, Note_on_c, 0, 64, 0
2, 345504, Note_on_c, 0, 69, 0
2, 345712, Note_on_c, 0, 69, 79
2, 345712, Note_on_c, 0, 57, 62
2, 345712, Note_on_c, 0, 48, 62
2, 345712, Note_on_c, 0, 52, 58
2, 345712, Note_on_c, 0, 64, 58
2, 345836, Control_c, 0, 64, 104
2, 345852, Control_c, 0, 64, 56
2, 345868, Control_c, 0, 64, 0
2, 346068, Control_c, 0, 64, 40
2, 346088, Control_c, 0, 64, 104
2, 346100, Control_c, 0, 64, 127
2, 346196, Note_on_c, 0, 48, 0
2, 346212, Note_on_c, 0, 52, 0
2, 346220, Note_on_c, 0, 64, 0
2, 346228, Note_on_c, 0, 57, 0
2, 346260, Note_on_c, 0, 69, 0
2, 346948, Note_on_c, 0, 48, 74
2, 346948, Note_on_c, 0, 69, 78
2, 346948, Note_on_c, 0, 64, 68
2, 346948, Note_on_c, 0, 57, 68
2, 346968, Control_c, 0, 64, 56
2, 346984, Control_c, 0, 64, 24
2, 347016, Note_on_c, 0, 57, 0
2, 347016, Control_c, 0, 64, 72
2, 347028, Note_on_c, 0, 64, 0
2, 347028, Control_c, 0, 64, 127
2, 347056, Note_on_c, 0, 48, 0
2, 347064, Note_on_c, 0, 69, 0
2, 347188, Note_on_c, 0, 71, 87
2, 347196, Note_on_c, 0, 52, 74
2, 347200, Control_c, 0, 64, 72
2, 347208, Note_on_c, 0, 64, 73
2, 347208, Note_on_c, 0, 59, 58
2, 347216, Control_c, 0, 64, 56
2, 347232, Note_on_c, 0, 68, 42
2, 347232, Control_c, 0, 64, 88
2, 347236, Note_on_c, 0, 52, 0
2, 347248, Control_c, 0, 64, 127
2, 347260, Note_on_c, 0, 59, 0
2, 347260, Note_on_c, 0, 68, 0
2, 347268, Note_on_c, 0, 64, 0
2, 347272, Note_on_c, 0, 71, 0
2, 347412, Note_on_c, 0, 72, 99
2, 347416, Control_c, 0, 64, 56
2, 347428, Note_on_c, 0, 64, 81
2, 347436, Note_on_c, 0, 57, 68
2, 347436, Control_c, 0, 64, 0
2, 347440, Note_on_c, 0, 60, 66
2, 347452, Note_on_c, 0, 69, 69
2, 347476, Note_on_c, 0, 69, 0
2, 347480, Control_c, 0, 64, 40
2, 347492, Note_on_c, 0, 64, 0
2, 347492, Note_on_c, 0, 60, 0
2, 347496, Control_c, 0, 64, 127
2, 347508, Note_on_c, 0, 57, 0
2, 347512, Note_on_c, 0, 72, 0
2, 347756, Note_on_c, 0, 76, 97
2, 347768, Note_on_c, 0, 64, 68
2, 347772, Note_on_c, 0, 57, 65
2, 347772, Note_on_c, 0, 50, 64
2, 347772, Note_on_c, 0, 69, 74
2, 347784, Note_on_c, 0, 65, 68
2, 347884, Control_c, 0, 64, 104
2, 347900, Control_c, 0, 64, 40
2, 347916, Control_c, 0, 64, 0
2, 348036, Control_c, 0, 64, 72
2, 348052, Control_c, 0, 64, 127
2, 348308, Note_on_c, 0, 64, 0
2, 348324, Note_on_c, 0, 57, 0
2, 348328, Note_on_c, 0, 50, 0
2, 348328, Note_on_c, 0, 69, 0
2, 348368, Note_on_c, 0, 76, 0
2, 348372, Note_on_c, 0, 65, 0
2, 348704, Note_on_c, 0, 65, 60
2, 348704, Note_on_c, 0, 74, 82
2, 348704, Note_on_c, 0, 69, 63
2, 348708, Note_on_c, 0, 62, 59
2, 348712, Note_on_c, 0, 50, 67
2, 348724, Note_on_c, 0, 57, 60
2, 348812, Control_c, 0, 64, 104
2, 348828, Control_c, 0, 64, 40
2, 348844, Control_c, 0, 64, 0
2, 348968, Control_c, 0, 64, 104
2, 348984, Control_c, 0, 64, 127
2, 349036, Note_on_c, 0, 69, 0
2, 349044, Note_on_c, 0, 50, 0
2, 349052, Note_on_c, 0, 74, 0
2, 349060, Note_on_c, 0, 65, 0
2, 349060, Note_on_c, 0, 62, 0
2, 349072, Note_on_c, 0, 57, 0
2, 349376, Note_on_c, 0, 72, 90
2, 349376, Note_on_c, 0, 51, 71
2, 349376, Note_on_c, 0, 69, 68
2, 349376, Note_on_c, 0, 57, 66
2, 349376, Note_on_c, 0, 60, 69
2, 349376, Note_on_c, 0, 66, 66
2, 349400, Control_c, 0, 64, 88
2, 349404, Control_c, 0, 64, 24
2, 349420, Note_on_c, 0, 69, 0
2, 349424, Note_on_c, 0, 57, 0
2, 349432, Control_c, 0, 64, 0
2, 349440, Note_on_c, 0, 60, 0
2, 349448, Note_on_c, 0, 66, 0
2, 349448, Control_c, 0, 64, 40
2, 349456, Note_on_c, 0, 51, 0
2, 349464, Control_c, 0, 64, 72
2, 349480, Control_c, 0, 64, 127
2, 349492, Note_on_c, 0, 72, 0
2, 349640, Note_on_c, 0, 72, 84
2, 349640, Note_on_c, 0, 64, 67
2, 349640, Note_on_c, 0, 60, 66
2, 349640, Note_on_c, 0, 57, 67
2, 349640, Note_on_c, 0, 52, 68
2, 349640, Note_on_c, 0, 69, 68
2, 349744, Control_c, 0, 64, 104
2, 349760, Control_c, 0, 64, 24
2, 349772, Control_c, 0, 64, 0
2, 349928, Control_c, 0, 64, 88
2, 349944, Control_c, 0, 64, 127
2, 350164, Note_on_c, 0, 69, 0
2, 350192, Note_on_c, 0, 60, 0
2, 350228, Note_on_c, 0, 52, 0
2, 350264, Note_on_c, 0, 72, 0
2, 350264, Note_on_c, 0, 64, 0
2, 350276, Note_on_c, 0, 57, 0
2, 350580, Note_on_c, 0, 71, 79
2, 350580, Note_on_c, 0, 68, 65
2, 350580, Note_on_c, 0, 64, 67
2, 350580, Note_on_c, 0, 52, 69
2, 350580, Note_on_c, 0, 59, 65
2, 350672, Control_c, 0, 64, 24
2, 350688, Control_c, 0, 64, 0
2, 350744, Note_on_c, 0, 52, 0
2, 350764, Note_on_c, 0, 59, 0
2, 350780, Control_c, 0, 64, 104
2, 350788, Note_on_c, 0, 68, 0
2, 350796, Control_c, 0, 64, 127
2, 350808, Note_on_c, 0, 64, 0
2, 350808, Note_on_c, 0, 71, 0
2, 351064, Note_on_c, 0, 70, 82
2, 351064, Note_on_c, 0, 58, 66
2, 351064, Note_on_c, 0, 64, 66
2, 351064, Note_on_c, 0, 50, 68
2, 351064, Note_on_c, 0, 67, 68
2, 351108, Control_c, 0, 64, 104
2, 351120, Control_c, 0, 64, 0
2, 351200, Control_c, 0, 64, 72
2, 351204, Note_on_c, 0, 50, 0
2, 351216, Control_c, 0, 64, 127
2, 351272, Note_on_c, 0, 58, 0
2, 351276, Note_on_c, 0, 64, 0
2, 351348, Note_on_c, 0, 67, 0
2, 351404, Note_on_c, 0, 70, 0
2, 351564, Note_on_c, 0, 69, 81
2, 351564, Note_on_c, 0, 57, 65
2, 351564, Note_on_c, 0, 49, 70
2, 351564, Note_on_c, 0, 64, 64
2, 351564, Note_on_c, 0, 67, 65
2, 351644, Control_c, 0, 64, 88
2, 351664, Control_c, 0, 64, 0
2, 351716, Note_on_c, 0, 49, 0
2, 351724, Note_on_c, 0, 64, 0
2, 351728, Note_on_c, 0, 67, 0
2, 351740, Note_on_c, 0, 57, 0
2, 351740, Control_c, 0, 64, 72
2, 351756, Control_c, 0, 64, 127
2, 351796, Note_on_c, 0, 69, 0
2, 351884, Note_on_c, 0, 49, 61
2, 351924, Note_on_c, 0, 49, 0
2, 351952, Note_on_c, 0, 57, 66
2, 352068, Note_on_c, 0, 57, 0
2, 352104, Note_on_c, 0, 64, 68
2, 352120, Note_on_c, 0, 81, 94
2, 352144, Note_on_c, 0, 69, 73
2, 352144, Note_on_c, 0, 67, 69
2, 352156, Note_on_c, 0, 64, 0
2, 352528, Note_on_c, 0, 67, 0
2, 352576, Note_on_c, 0, 69, 0
2, 352732, Note_on_c, 0, 81, 0
2, 352828, Note_on_c, 0, 76, 75
2, 352868, Note_on_c, 0, 76, 0
2, 352904, Note_on_c, 0, 77, 83
2, 352968, Note_on_c, 0, 76, 94
2, 352980, Note_on_c, 0, 77, 0
2, 353128, Note_on_c, 0, 76, 0
2, 353156, Note_on_c, 0, 75, 90
2, 353324, Note_on_c, 0, 75, 0
2, 353364, Note_on_c, 0, 76, 95
2, 353632, Note_on_c, 0, 76, 0
2, 353652, Note_on_c, 0, 79, 92
2, 353752, Control_c, 0, 64, 56
2, 353768, Control_c, 0, 64, 0
2, 353804, Control_c, 0, 64, 40
2, 353816, Control_c, 0, 64, 104
2, 353832, Control_c, 0, 64, 127
2, 353876, Note_on_c, 0, 79, 0
2, 354180, Note_on_c, 0, 77, 86
2, 354180, Note_on_c, 0, 50, 68
2, 354180, Note_on_c, 0, 57, 66
2, 354180, Note_on_c, 0, 65, 65
2, 354180, Note_on_c, 0, 69, 68
2, 354344, Control_c, 0, 64, 72
2, 354360, Control_c, 0, 64, 0
2, 354500, Control_c, 0, 64, 88
2, 354516, Control_c, 0, 64, 127
2, 354712, Note_on_c, 0, 50, 0
2, 354744, Note_on_c, 0, 65, 0
2, 354772, Note_on_c, 0, 57, 0
2, 354816, Note_on_c, 0, 77, 0
2, 354816, Note_on_c, 0, 69, 0
2, 355112, Note_on_c, 0, 73, 79
2, 355112, Note_on_c, 0, 67, 67
2, 355112, Note_on_c, 0, 69, 68
2, 355112, Note_on_c, 0, 52, 61
2, 355112, Note_on_c, 0, 57, 61
2, 355260, Control_c, 0, 64, 104
2, 355272, Control_c, 0, 64, 24
2, 355288, Control_c, 0, 64, 0
2, 355428, Control_c, 0, 64, 127
2, 355708, Note_on_c, 0, 73, 0
2, 355760, Note_on_c, 0, 57, 0
2, 355796, Note_on_c, 0, 52, 0
2, 355796, Note_on_c, 0, 69, 0
2, 355832, Note_on_c, 0, 67, 0
2, 355924, Note_on_c, 0, 76, 83
2, 356000, Note_on_c, 0, 76, 0
2, 356052, Note_on_c, 0, 74, 84
2, 356052, Note_on_c, 0, 53, 68
2, 356052, Note_on_c, 0, 57, 63
2, 356052, Note_on_c, 0, 69, 77
2, 356188, Control_c, 0, 64, 56
2, 356200, Control_c, 0, 64, 0
2, 356308, Control_c, 0, 64, 56
2, 356324, Control_c, 0, 64, 127
2, 356392, Note_on_c, 0, 74, 0
2, 356396, Note_on_c, 0, 69, 0
2, 356548, Note_on_c, 0, 53, 0
2, 356620, Note_on_c, 0, 57, 0
2, 356712, Note_on_c, 0, 72, 88
2, 356776, Note_on_c, 0, 72, 0
2, 356884, Control_c, 0, 64, 104
2, 356900, Control_c, 0, 64, 0
2, 356932, Note_on_c, 0, 71, 86
2, 356932, Note_on_c, 0, 62, 68
2, 356932, Note_on_c, 0, 50, 73
2, 356932, Note_on_c, 0, 65, 69
2, 356984, Note_on_c, 0, 62, 0
2, 356992, Control_c, 0, 64, 72
2, 357004, Note_on_c, 0, 65, 0
2, 357008, Note_on_c, 0, 71, 0
2, 357012, Note_on_c, 0, 50, 0
2, 357012, Control_c, 0, 64, 127
2, 357100, Control_c, 0, 64, 104
2, 357116, Control_c, 0, 64, 24
2, 357132, Control_c, 0, 64, 0
2, 357152, Note_on_c, 0, 69, 88
2, 357164, Note_on_c, 0, 66, 63
2, 357168, Note_on_c, 0, 60, 63
2, 357180, Note_on_c, 0, 51, 70
2, 357208, Control_c, 0, 64, 56
2, 357224, Control_c, 0, 64, 127
2, 357240, Note_on_c, 0, 60, 0
2, 357248, Note_on_c, 0, 69, 0
2, 357252, Note_on_c, 0, 66, 0
2, 357256, Note_on_c, 0, 51, 0
2, 357420, Note_on_c, 0, 69, 82
2, 357420, Note_on_c, 0, 64, 61
2, 357420, Note_on_c, 0, 52, 72
2, 357420, Note_on_c, 0, 60, 56
2, 357488, Control_c, 0, 64, 104
2, 357504, Control_c, 0, 64, 56
2, 357520, Control_c, 0, 64, 0
2, 357720, Control_c, 0, 64, 56
2, 357736, Control_c, 0, 64, 104
2, 357752, Control_c, 0, 64, 127
2, 358056, Note_on_c, 0, 60, 0
2, 358140, Note_on_c, 0, 69, 0
2, 358192, Note_on_c, 0, 64, 0
2, 358384, Note_on_c, 0, 68, 64
2, 358384, Note_on_c, 0, 64, 57
2, 358384, Note_on_c, 0, 59, 59
2, 358496, Control_c, 0, 64, 72
2, 358508, Control_c, 0, 64, 0
2, 358620, Control_c, 0, 64, 56
2, 358636, Control_c, 0, 64, 127
2, 358752, Note_on_c, 0, 52, 0
2, 358808, Note_on_c, 0, 64, 0
2, 358824, Note_on_c, 0, 59, 0
2, 358832, Note_on_c, 0, 68, 0
2, 359168, Note_on_c, 0, 57, 74
2, 359168, Note_on_c, 0, 57, 66
2, 359168, Note_on_c, 0, 33, 68
2, 359168, Note_on_c, 0, 45, 63
2, 359288, Control_c, 0, 64, 88
2, 359304, Control_c, 0, 64, 24
2, 359316, Control_c, 0, 64, 0
2, 359536, Control_c, 0, 64, 24
2, 359548, Control_c, 0, 64, 56
2, 359552, Note_on_c, 0, 84, 91
2, 359556, Note_on_c, 0, 57, 0
2, 359560, Note_on_c, 0, 81, 73
2, 359568, Note_on_c, 0, 76, 67
2, 359568, Control_c, 0, 64, 88
2, 359572, Note_on_c, 0, 64, 59
2, 359584, Note_on_c, 0, 72, 61
2, 359584, Control_c, 0, 64, 127
2, 359592, Note_on_c, 0, 69, 51
2, 359704, Note_on_c, 0, 33, 0
2, 359728, Note_on_c, 0, 45, 0
2, 359836, Note_on_c, 0, 57, 0
2, 359864, Note_on_c, 0, 64, 0
2, 359884, Note_on_c, 0, 69, 0
2, 359888, Note_on_c, 0, 72, 0
2, 359936, Note_on_c, 0, 81, 0
2, 359940, Note_on_c, 0, 76, 0
2, 359952, Note_on_c, 0, 84, 0
2, 360496, Note_on_c, 0, 83, 83
2, 360496, Note_on_c, 0, 76, 63
2, 360496, Note_on_c, 0, 71, 53
2, 360496, Note_on_c, 0, 62, 58
2, 360496, Note_on_c, 0, 80, 57
2, 360496, Note_on_c, 0, 64, 58
2, 360496, Note_on_c, 0, 68, 58
2, 360628, Control_c, 0, 64, 72
2, 360644, Control_c, 0, 64, 0
2, 360728, Control_c, 0, 64, 104
2, 360744, Control_c, 0, 64, 56
2, 360760, Control_c, 0, 64, 40
2, 360764, Control_c, 0, 64, 72
2, 360776, Control_c, 0, 64, 24
2, 360780, Control_c, 0, 64, 127
2, 360788, Control_c, 0, 64, 0
2, 361196, Note_on_c, 0, 81, 78
2, 361196, Note_on_c, 0, 64, 58
2, 361196, Note_on_c, 0, 76, 58
2, 361196, Note_on_c, 0, 60, 58
2, 361196, Note_on_c, 0, 69, 59
2, 361232, Control_c, 0, 64, 88
2, 361248, Control_c, 0, 64, 0
2, 361264, Note_on_c, 0, 68, 0
2, 361264, Note_on_c, 0, 80, 0
2, 361268, Note_on_c, 0, 62, 0
2, 361268, Note_on_c, 0, 83, 0
2, 361268, Note_on_c, 0, 64, 0
2, 361280, Note_on_c, 0, 76, 0
2, 361288, Note_on_c, 0, 71, 0
2, 361292, Note_on_c, 0, 76, 0
2, 361292, Note_on_c, 0, 60, 0
2, 361292, Note_on_c, 0, 69, 0
2, 361304, Note_on_c, 0, 64, 0
2, 361308, Control_c, 0, 64, 40
2, 361328, Control_c, 0, 64, 104
2, 361340, Note_on_c, 0, 81, 0
2, 361340, Control_c, 0, 64, 127
2, 361556, Note_on_c, 0, 81, 75
2, 361584, Note_on_c, 0, 64, 58
2, 361584, Note_on_c, 0, 60, 58
2, 361592, Note_on_c, 0, 76, 56
2, 361592, Note_on_c, 0, 69, 43
2, 361708, Control_c, 0, 64, 104
2, 361728, Control_c, 0, 64, 56
2, 361744, Control_c, 0, 64, 0
2, 361944, Control_c, 0, 64, 56
2, 361956, Control_c, 0, 64, 88
2, 361976, Control_c, 0, 64, 127
2, 362004, Note_on_c, 0, 60, 0
2, 362032, Note_on_c, 0, 76, 0
2, 362040, Note_on_c, 0, 69, 0
2, 362048, Note_on_c, 0, 81, 0
2, 362056, Note_on_c, 0, 64, 0
2, 362820, Note_on_c, 0, 81, 78
2, 362820, Control_c, 0, 64, 88
2, 362836, Note_on_c, 0, 69, 56
2, 362836, Control_c, 0, 64, 24
2, 362848, Note_on_c, 0, 64, 63
2, 362848, Note_on_c, 0, 60, 48
2, 362852, Control_c, 0, 64, 0
2, 362864, Note_on_c, 0, 76, 46
2, 362868, Control_c, 0, 64, 24
2, 362884, Control_c, 0, 64, 56
2, 362900, Control_c, 0, 64, 104
2, 362912, Note_on_c, 0, 64, 0
2, 362912, Control_c, 0, 64, 127
2, 362940, Note_on_c, 0, 69, 0
2, 362960, Note_on_c, 0, 60, 0
2, 362988, Note_on_c, 0, 81, 0
2, 362992, Note_on_c, 0, 76, 0
2, 363112, Control_c, 0, 64, 40
2, 363120, Note_on_c, 0, 83, 88
2, 363128, Control_c, 0, 64, 0
2, 363136, Note_on_c, 0, 64, 63
2, 363140, Note_on_c, 0, 71, 61
2, 363140, Note_on_c, 0, 76, 66
2, 363148, Note_on_c, 0, 80, 54
2, 363180, Control_c, 0, 64, 72
2, 363192, Note_on_c, 0, 80, 0
2, 363192, Note_on_c, 0, 64, 0
2, 363192, Control_c, 0, 64, 127
2, 363196, Note_on_c, 0, 76, 0
2, 363216, Note_on_c, 0, 71, 0
2, 363216, Note_on_c, 0, 83, 0
2, 363376, Note_on_c, 0, 84, 95
2, 363392, Note_on_c, 0, 76, 78
2, 363392, Note_on_c, 0, 69, 73
2, 363392, Control_c, 0, 64, 40
2, 363396, Note_on_c, 0, 81, 79
2, 363396, Note_on_c, 0, 72, 67
2, 363408, Control_c, 0, 64, 0
2, 363448, Note_on_c, 0, 76, 0
2, 363456, Control_c, 0, 64, 88
2, 363468, Note_on_c, 0, 81, 0
2, 363468, Control_c, 0, 64, 127
2, 363476, Note_on_c, 0, 84, 0
2, 363476, Note_on_c, 0, 72, 0
2, 363496, Note_on_c, 0, 69, 0
2, 363708, Note_on_c, 0, 88, 94
2, 363716, Note_on_c, 0, 76, 57
2, 363720, Note_on_c, 0, 62, 56
2, 363720, Note_on_c, 0, 81, 72
2, 363728, Note_on_c, 0, 69, 63
2, 363732, Note_on_c, 0, 77, 66
2, 363856, Control_c, 0, 64, 104
2, 363876, Control_c, 0, 64, 24
2, 363888, Control_c, 0, 64, 0
2, 364012, Control_c, 0, 64, 88
2, 364028, Control_c, 0, 64, 127
2, 364384, Note_on_c, 0, 76, 0
2, 364448, Note_on_c, 0, 69, 0
2, 364480, Note_on_c, 0, 81, 0
2, 364492, Note_on_c, 0, 77, 0
2, 364516, Note_on_c, 0, 62, 0
2, 364556, Note_on_c, 0, 88, 0
2, 364736, Note_on_c, 0, 86, 84
2, 364744, Note_on_c, 0, 62, 65
2, 364752, Note_on_c, 0, 69, 64
2, 364756, Note_on_c, 0, 74, 63
2, 364764, Note_on_c, 0, 77, 65
2, 364772, Note_on_c, 0, 81, 60
2, 364912, Control_c, 0, 64, 72
2, 364928, Control_c, 0, 64, 0
2, 365036, Control_c, 0, 64, 88
2, 365052, Control_c, 0, 64, 127
2, 365092, Note_on_c, 0, 86, 0
2, 365108, Note_on_c, 0, 77, 0
2, 365112, Note_on_c, 0, 74, 0
2, 365128, Note_on_c, 0, 62, 0
2, 365128, Note_on_c, 0, 81, 0
2, 365156, Note_on_c, 0, 69, 0
2, 365480, Note_on_c, 0, 84, 93
2, 365488, Note_on_c, 0, 63, 63
2, 365492, Note_on_c, 0, 78, 72
2, 365504, Note_on_c, 0, 81, 69
2, 365512, Note_on_c, 0, 72, 58
2, 365512, Control_c, 0, 64, 72
2, 365528, Note_on_c, 0, 69, 55
2, 365532, Control_c, 0, 64, 0
2, 365552, Note_on_c, 0, 81, 0
2, 365572, Note_on_c, 0, 78, 0
2, 365576, Control_c, 0, 64, 24
2, 365592, Control_c, 0, 64, 88
2, 365604, Note_on_c, 0, 69, 0
2, 365608, Note_on_c, 0, 72, 0
2, 365608, Control_c, 0, 64, 127
2, 365616, Note_on_c, 0, 84, 0
2, 365620, Note_on_c, 0, 63, 0
2, 365804, Note_on_c, 0, 84, 88
2, 365828, Note_on_c, 0, 79, 74
2, 365832, Note_on_c, 0, 76, 69
2, 365832, Note_on_c, 0, 72, 61
2, 365832, Note_on_c, 0, 64, 63
2, 365848, Note_on_c, 0, 67, 60
2, 365996, Control_c, 0, 64, 72
2, 366012, Control_c, 0, 64, 0
2, 366120, Control_c, 0, 64, 72
2, 366136, Control_c, 0, 64, 127
2, 366476, Note_on_c, 0, 64, 0
2, 366488, Note_on_c, 0, 67, 0
2, 366576, Note_on_c, 0, 65, 65
2, 366612, Note_on_c, 0, 72, 0
2, 366644, Note_on_c, 0, 76, 0
2, 366648, Note_on_c, 0, 79, 0
2, 366692, Note_on_c, 0, 65, 0
2, 366696, Note_on_c, 0, 84, 0
2, 366856, Note_on_c, 0, 83, 87
2, 366876, Note_on_c, 0, 74, 63
2, 366876, Note_on_c, 0, 79, 69
2, 366876, Note_on_c, 0, 67, 54
2, 366884, Note_on_c, 0, 71, 56
2, 366928, Control_c, 0, 64, 72
2, 366944, Control_c, 0, 64, 0
2, 367036, Control_c, 0, 64, 72
2, 367048, Control_c, 0, 64, 127
2, 367104, Note_on_c, 0, 83, 0
2, 367128, Note_on_c, 0, 67, 0
2, 367128, Note_on_c, 0, 74, 0
2, 367136, Note_on_c, 0, 71, 0
2, 367140, Note_on_c, 0, 79, 0
2, 367404, Note_on_c, 0, 82, 87
2, 367416, Note_on_c, 0, 70, 59
2, 367428, Note_on_c, 0, 74, 63
2, 367432, Note_on_c, 0, 79, 65
2, 367432, Note_on_c, 0, 65, 55
2, 367444, Note_on_c, 0, 67, 58
2, 367468, Control_c, 0, 64, 104
2, 367484, Control_c, 0, 64, 24
2, 367500, Control_c, 0, 64, 0
2, 367528, Control_c, 0, 64, 40
2, 367544, Control_c, 0, 64, 104
2, 367560, Control_c, 0, 64, 127
2, 367580, Note_on_c, 0, 67, 0
2, 367644, Note_on_c, 0, 74, 0
2, 367712, Note_on_c, 0, 65, 0
2, 367748, Note_on_c, 0, 70, 0
2, 367780, Note_on_c, 0, 79, 0
2, 367856, Note_on_c, 0, 82, 0
2, 367952, Note_on_c, 0, 81, 83
2, 367952, Note_on_c, 0, 64, 60
2, 367952, Note_on_c, 0, 67, 60
2, 367952, Note_on_c, 0, 79, 63
2, 367952, Note_on_c, 0, 73, 65
2, 367952, Note_on_c, 0, 69, 62
2, 368012, Control_c, 0, 64, 104
2, 368028, Control_c, 0, 64, 0
2, 368112, Note_on_c, 0, 64, 0
2, 368120, Control_c, 0, 64, 88
2, 368136, Control_c, 0, 64, 127
2, 368164, Note_on_c, 0, 79, 0
2, 368168, Note_on_c, 0, 69, 0
2, 368180, Note_on_c, 0, 73, 0
2, 368188, Note_on_c, 0, 67, 0
2, 368236, Note_on_c, 0, 81, 0
2, 368352, Control_c, 0, 64, 72
2, 368360, Note_on_c, 0, 61, 66
2, 368368, Control_c, 0, 64, 88
2, 368384, Control_c, 0, 64, 127
2, 368436, Note_on_c, 0, 61, 0
2, 368444, Note_on_c, 0, 69, 76
2, 368524, Note_on_c, 0, 69, 0
2, 368548, Note_on_c, 0, 76, 63
2, 368592, Note_on_c, 0, 76, 0
2, 368664, Note_on_c, 0, 93, 103
2, 368684, Note_on_c, 0, 81, 74
2, 368688, Note_on_c, 0, 79, 79
2, 369148, Note_on_c, 0, 93, 0
2, 369164, Note_on_c, 0, 79, 0
2, 369220, Note_on_c, 0, 81, 0
2, 369408, Note_on_c, 0, 88, 78
2, 369440, Note_on_c, 0, 88, 0
2, 369476, Note_on_c, 0, 89, 74
2, 369528, Note_on_c, 0, 88, 94
2, 369540, Note_on_c, 0, 89, 0
2, 369744, Note_on_c, 0, 88, 0
2, 369768, Note_on_c, 0, 87, 88
2, 369948, Note_on_c, 0, 87, 0
2, 369996, Note_on_c, 0, 88, 94
2, 370288, Note_on_c, 0, 91, 94
2, 370296, Note_on_c, 0, 88, 0
2, 370376, Note_on_c, 0, 91, 0
2, 370868, Note_on_c, 0, 89, 88
2, 370884, Note_on_c, 0, 77, 72
2, 370892, Note_on_c, 0, 74, 53
2, 370904, Note_on_c, 0, 62, 58
2, 370920, Note_on_c, 0, 69, 50
2, 371016, Control_c, 0, 64, 56
2, 371028, Control_c, 0, 64, 0
2, 371156, Control_c, 0, 64, 127
2, 371340, Note_on_c, 0, 62, 0
2, 371384, Note_on_c, 0, 77, 0
2, 371388, Note_on_c, 0, 74, 0
2, 371396, Note_on_c, 0, 89, 0
2, 371412, Note_on_c, 0, 69, 0
2, 371888, Note_on_c, 0, 85, 79
2, 371888, Note_on_c, 0, 69, 63
2, 371888, Note_on_c, 0, 64, 65
2, 371888, Note_on_c, 0, 79, 63
2, 372068, Control_c, 0, 64, 88
2, 372084, Control_c, 0, 64, 0
2, 372192, Control_c, 0, 64, 56
2, 372208, Control_c, 0, 64, 127
2, 372444, Note_on_c, 0, 64, 0
2, 372456, Note_on_c, 0, 69, 0
2, 372628, Note_on_c, 0, 79, 0
2, 372680, Note_on_c, 0, 85, 0
2, 372736, Note_on_c, 0, 88, 84
2, 372828, Note_on_c, 0, 88, 0
2, 372872, Note_on_c, 0, 86, 84
2, 372876, Note_on_c, 0, 81, 76
2, 372904, Note_on_c, 0, 65, 60
2, 372920, Note_on_c, 0, 69, 46
2, 372936, Control_c, 0, 64, 56
2, 372952, Control_c, 0, 64, 0
2, 373028, Control_c, 0, 64, 72
2, 373044, Control_c, 0, 64, 127
2, 373108, Note_on_c, 0, 81, 0
2, 373108, Note_on_c, 0, 86, 0
2, 373264, Note_on_c, 0, 69, 0
2, 373292, Note_on_c, 0, 65, 0
2, 373564, Note_on_c, 0, 84, 84
2, 373628, Note_on_c, 0, 84, 0
2, 373756, Control_c, 0, 64, 104
2, 373772, Control_c, 0, 64, 0
2, 373792, Note_on_c, 0, 83, 78
2, 373808, Note_on_c, 0, 62, 67
2, 373816, Note_on_c, 0, 74, 68
2, 373824, Note_on_c, 0, 77, 58
2, 373848, Control_c, 0, 64, 40
2, 373864, Note_on_c, 0, 74, 0
2, 373864, Control_c, 0, 64, 104
2, 373868, Note_on_c, 0, 77, 0
2, 373872, Note_on_c, 0, 83, 0
2, 373880, Control_c, 0, 64, 127
2, 373884, Note_on_c, 0, 62, 0
2, 373956, Control_c, 0, 64, 56
2, 373976, Control_c, 0, 64, 0
2, 374040, Note_on_c, 0, 81, 81
2, 374040, Note_on_c, 0, 63, 66
2, 374040, Note_on_c, 0, 72, 65
2, 374040, Note_on_c, 0, 78, 68
2, 374084, Control_c, 0, 64, 104
2, 374096, Note_on_c, 0, 72, 0
2, 374096, Control_c, 0, 64, 127
2, 374120, Note_on_c, 0, 63, 0
2, 374124, Note_on_c, 0, 78, 0
2, 374128, Note_on_c, 0, 81, 0
2, 374300, Control_c, 0, 64, 88
2, 374312, Control_c, 0, 64, 0
2, 374320, Note_on_c, 0, 80, 74
2, 374320, Note_on_c, 0, 76, 63
2, 374320, Note_on_c, 0, 74, 63
2, 374320, Note_on_c, 0, 64, 65
2, 374456, Control_c, 0, 64, 72
2, 374472, Control_c, 0, 64, 127
2, 374492, Note_on_c, 0, 76, 0
2, 374496, Note_on_c, 0, 64, 0
2, 374508, Note_on_c, 0, 74, 0
2, 374580, Note_on_c, 0, 80, 0
2, 374928, Note_on_c, 0, 81, 68
2, 374944, Note_on_c, 0, 57, 53
2, 374944, Note_on_c, 0, 76, 52
2, 374948, Note_on_c, 0, 72, 50
2, 374952, Note_on_c, 0, 64, 50
2, 375012, Control_c, 0, 64, 72
2, 375028, Control_c, 0, 64, 0
2, 375152, Control_c, 0, 64, 88
2, 375168, Control_c, 0, 64, 127
2, 375264, Note_on_c, 0, 76, 0
2, 375268, Note_on_c, 0, 81, 0
2, 375272, Note_on_c, 0, 72, 0
2, 375280, Note_on_c, 0, 57, 0
2, 375292, Note_on_c, 0, 64, 0
2, 376116, Note_on_c, 0, 52, 53
2, 376116, Note_on_c, 0, 64, 72
2, 376124, Note_on_c, 0, 45, 59
2, 376228, Note_on_c, 0, 57, 63
2, 376304, Note_on_c, 0, 57, 0
2, 376312, Note_on_c, 0, 60, 53
2, 376368, Note_on_c, 0, 60, 0
2, 376376, Note_on_c, 0, 64, 55
2, 376440, Note_on_c, 0, 64, 0
2, 376452, Note_on_c, 0, 57, 48
2, 376492, Note_on_c, 0, 57, 0
2, 376504, Note_on_c, 0, 52, 0
2, 376508, Note_on_c, 0, 64, 0
2, 376524, Note_on_c, 0, 53, 66
2, 376524, Note_on_c, 0, 65, 73
2, 376556, Control_c, 0, 64, 104
2, 376564, Control_c, 0, 64, 72
2, 376572, Control_c, 0, 64, 24
2, 376580, Control_c, 0, 64, 0
2, 376604, Note_on_c, 0, 57, 60
2, 376656, Control_c, 0, 64, 72
2, 376664, Control_c, 0, 64, 127
2, 376676, Note_on_c, 0, 57, 0
2, 376676, Note_on_c, 0, 60, 60
2, 376748, Note_on_c, 0, 60, 0
2, 376756, Note_on_c, 0, 65, 63
2, 376804, Note_on_c, 0, 53, 0
2, 376812, Note_on_c, 0, 45, 0
2, 376844, Note_on_c, 0, 57, 61
2, 376848, Note_on_c, 0, 65, 0
2, 376876, Note_on_c, 0, 57, 0
2, 376920, Note_on_c, 0, 65, 0
2, 376936, Note_on_c, 0, 52, 64
2, 376944, Note_on_c, 0, 44, 49
2, 376948, Note_on_c, 0, 64, 72
2, 376980, Control_c, 0, 64, 104
2, 376988, Control_c, 0, 64, 72
2, 376996, Control_c, 0, 64, 24
2, 377004, Control_c, 0, 64, 0
2, 377016, Note_on_c, 0, 56, 63
2, 377072, Control_c, 0, 64, 24
2, 377080, Control_c, 0, 64, 72
2, 377084, Note_on_c, 0, 59, 58
2, 377088, Note_on_c, 0, 56, 0
2, 377088, Control_c, 0, 64, 88
2, 377096, Control_c, 0, 64, 127
2, 377148, Note_on_c, 0, 59, 0
2, 377160, Note_on_c, 0, 64, 53
2, 377212, Note_on_c, 0, 64, 0
2, 377212, Note_on_c, 0, 56, 55
2, 377280, Note_on_c, 0, 56, 0
2, 377288, Note_on_c, 0, 44, 0
2, 377308, Note_on_c, 0, 43, 65
2, 377324, Control_c, 0, 64, 104
2, 377336, Control_c, 0, 64, 88
2, 377340, Control_c, 0, 64, 56
2, 377348, Control_c, 0, 64, 0
2, 377352, Note_on_c, 0, 64, 0
2, 377400, Note_on_c, 0, 55, 70
2, 377420, Control_c, 0, 64, 24
2, 377424, Control_c, 0, 64, 72
2, 377432, Control_c, 0, 64, 104
2, 377440, Control_c, 0, 64, 127
2, 377468, Note_on_c, 0, 55, 0
2, 377472, Note_on_c, 0, 58, 54
2, 377540, Note_on_c, 0, 58, 0
2, 377560, Note_on_c, 0, 64, 61
2, 377616, Note_on_c, 0, 64, 0
2, 377632, Note_on_c, 0, 52, 0
2, 377632, Note_on_c, 0, 55, 58
2, 377664, Note_on_c, 0, 55, 0
2, 377700, Note_on_c, 0, 43, 0
2, 377724, Note_on_c, 0, 50, 64
2, 377724, Note_on_c, 0, 41, 56
2, 377724, Note_on_c, 0, 62, 72
2, 377748, Control_c, 0, 64, 88
2, 377756, Control_c, 0, 64, 56
2, 377764, Control_c, 0, 64, 24
2, 377772, Control_c, 0, 64, 0
2, 377808, Note_on_c, 0, 53, 68
2, 377848, Control_c, 0, 64, 40
2, 377856, Control_c, 0, 64, 88
2, 377864, Control_c, 0, 64, 104
2, 377872, Control_c, 0, 64, 127
2, 377884, Note_on_c, 0, 53, 0
2, 377888, Note_on_c, 0, 57, 54
2, 377940, Note_on_c, 0, 57, 0
2, 377948, Note_on_c, 0, 62, 58
2, 378024, Note_on_c, 0, 62, 0
2, 378036, Note_on_c, 0, 50, 0
2, 378036, Note_on_c, 0, 53, 59
2, 378064, Note_on_c, 0, 53, 0
2, 378116, Note_on_c, 0, 41, 0
2, 378128, Note_on_c, 0, 40, 58
2, 378128, Note_on_c, 0, 48, 58
2, 378128, Note_on_c, 0, 60, 71
2, 378148, Note_on_c, 0, 62, 0
2, 378164, Control_c, 0, 64, 104
2, 378172, Control_c, 0, 64, 88
2, 378180, Control_c, 0, 64, 72
2, 378188, Control_c, 0, 64, 24
2, 378196, Control_c, 0, 64, 0
2, 378208, Note_on_c, 0, 52, 66
2, 378280, Control_c, 0, 64, 40
2, 378284, Note_on_c, 0, 57, 58
2, 378288, Control_c, 0, 64, 56
2, 378292, Note_on_c, 0, 52, 0
2, 378296, Control_c, 0, 64, 88
2, 378312, Control_c, 0, 64, 104
2, 378336, Control_c, 0, 64, 127
2, 378352, Note_on_c, 0, 57, 0
2, 378360, Note_on_c, 0, 60, 61
2, 378436, Note_on_c, 0, 60, 0
2, 378444, Note_on_c, 0, 52, 63
2, 378488, Note_on_c, 0, 52, 0
2, 378520, Note_on_c, 0, 48, 0
2, 378536, Note_on_c, 0, 47, 72
2, 378536, Note_on_c, 0, 59, 71
2, 378536, Note_on_c, 0, 28, 63
2, 378548, Note_on_c, 0, 60, 0
2, 378580, Control_c, 0, 64, 88
2, 378588, Control_c, 0, 64, 72
2, 378596, Control_c, 0, 64, 24
2, 378604, Control_c, 0, 64, 0
2, 378628, Note_on_c, 0, 50, 64
2, 378680, Control_c, 0, 64, 40
2, 378688, Control_c, 0, 64, 72
2, 378696, Control_c, 0, 64, 88
2, 378700, Control_c, 0, 64, 104
2, 378712, Control_c, 0, 64, 127
2, 378720, Note_on_c, 0, 56, 57
2, 378724, Note_on_c, 0, 50, 0
2, 378768, Note_on_c, 0, 56, 0
2, 378772, Note_on_c, 0, 59, 58
2, 378792, Note_on_c, 0, 28, 0
2, 378864, Note_on_c, 0, 59, 0
2, 378864, Note_on_c, 0, 50, 58
2, 378908, Note_on_c, 0, 50, 0
2, 378948, Note_on_c, 0, 47, 0
2, 378952, Note_on_c, 0, 45, 73
2, 378952, Note_on_c, 0, 57, 68
2, 378968, Note_on_c, 0, 59, 0
2, 378980, Note_on_c, 0, 40, 0
2, 378988, Control_c, 0, 64, 104
2, 378996, Control_c, 0, 64, 88
2, 379004, Control_c, 0, 64, 72
2, 379012, Control_c, 0, 64, 56
2, 379020, Control_c, 0, 64, 24
2, 379024, Control_c, 0, 64, 0
2, 379028, Note_on_c, 0, 48, 60
2, 379100, Note_on_c, 0, 48, 0
2, 379100, Note_on_c, 0, 52, 63
2, 379104, Control_c, 0, 64, 56
2, 379112, Control_c, 0, 64, 72
2, 379120, Control_c, 0, 64, 104
2, 379136, Control_c, 0, 64, 127
2, 379176, Note_on_c, 0, 52, 0
2, 379196, Note_on_c, 0, 57, 59
2, 379216, Note_on_c, 0, 45, 0
2, 379264, Note_on_c, 0, 57, 0
2, 379276, Note_on_c, 0, 48, 61
2, 379296, Note_on_c, 0, 48, 0
2, 379396, Note_on_c, 0, 52, 74
2, 379400, Note_on_c, 0, 57, 0
2, 379404, Note_on_c, 0, 45, 63
2, 379404, Note_on_c, 0, 64, 73
2, 379412, Control_c, 0, 64, 104
2, 379436, Control_c, 0, 64, 72
2, 379448, Control_c, 0, 64, 56
2, 379456, Control_c, 0, 64, 40
2, 379464, Control_c, 0, 64, 24
2, 379472, Control_c, 0, 64, 0
2, 379504, Note_on_c, 0, 57, 63
2, 379568, Note_on_c, 0, 60, 61
2, 379588, Control_c, 0, 64, 40
2, 379596, Control_c, 0, 64, 72
2, 379600, Note_on_c, 0, 57, 0
2, 379604, Control_c, 0, 64, 88
2, 379620, Control_c, 0, 64, 104
2, 379644, Note_on_c, 0, 60, 0
2, 379644, Note_on_c, 0, 64, 67
2, 379648, Control_c, 0, 64, 127
2, 379708, Note_on_c, 0, 57, 59
2, 379748, Note_on_c, 0, 64, 0
2, 379748, Note_on_c, 0, 64, 0
2, 379768, Note_on_c, 0, 57, 0
2, 379792, Note_on_c, 0, 52, 0
2, 379804, Note_on_c, 0, 53, 73
2, 379804, Note_on_c, 0, 65, 73
2, 379828, Control_c, 0, 64, 104
2, 379836, Control_c, 0, 64, 88
2, 379844, Control_c, 0, 64, 56
2, 379848, Control_c, 0, 64, 24
2, 379860, Control_c, 0, 64, 0
2, 379904, Note_on_c, 0, 57, 60
2, 379936, Control_c, 0, 64, 24
2, 379944, Control_c, 0, 64, 72
2, 379948, Control_c, 0, 64, 88
2, 379960, Control_c, 0, 64, 127
2, 379972, Note_on_c, 0, 60, 64
2, 379984, Note_on_c, 0, 57, 0
2, 380040, Note_on_c, 0, 60, 0
2, 380048, Note_on_c, 0, 65, 58
2, 380064, Note_on_c, 0, 45, 0
2, 380112, Note_on_c, 0, 53, 0
2, 380120, Note_on_c, 0, 57, 58
2, 380128, Note_on_c, 0, 65, 0
2, 380164, Note_on_c, 0, 57, 0
2, 380196, Note_on_c, 0, 65, 0
2, 380212, Note_on_c, 0, 52, 74
2, 380212, Note_on_c, 0, 44, 62
2, 380212, Note_on_c, 0, 64, 72
2, 380252, Control_c, 0, 64, 104
2, 380256, Control_c, 0, 64, 72
2, 380264, Control_c, 0, 64, 40
2, 380272, Control_c, 0, 64, 0
2, 380292, Note_on_c, 0, 56, 57
2, 380344, Control_c, 0, 64, 40
2, 380352, Control_c, 0, 64, 72
2, 380356, Control_c, 0, 64, 104
2, 380360, Note_on_c, 0, 59, 58
2, 380364, Control_c, 0, 64, 127
2, 380376, Note_on_c, 0, 56, 0
2, 380424, Note_on_c, 0, 59, 0
2, 380432, Note_on_c, 0, 64, 58
2, 380488, Note_on_c, 0, 64, 0
2, 380496, Note_on_c, 0, 56, 58
2, 380556, Note_on_c, 0, 56, 0
2, 380584, Note_on_c, 0, 44, 0
2, 380596, Note_on_c, 0, 43, 62
2, 380628, Control_c, 0, 64, 104
2, 380636, Control_c, 0, 64, 88
2, 380644, Control_c, 0, 64, 72
2, 380652, Note_on_c, 0, 64, 0
2, 380652, Control_c, 0, 64, 40
2, 380656, Control_c, 0, 64, 0
2, 380688, Note_on_c, 0, 55, 63
2, 380736, Control_c, 0, 64, 40
2, 380744, Control_c, 0, 64, 72
2, 380752, Control_c, 0, 64, 104
2, 380760, Note_on_c, 0, 55, 0
2, 380760, Note_on_c, 0, 58, 51
2, 380760, Control_c, 0, 64, 127
2, 380840, Note_on_c, 0, 64, 55
2, 380880, Note_on_c, 0, 58, 0
2, 380908, Note_on_c, 0, 64, 0
2, 380916, Note_on_c, 0, 55, 55
2, 380932, Note_on_c, 0, 52, 0
2, 380952, Note_on_c, 0, 55, 0
2, 381008, Note_on_c, 0, 43, 0
2, 381020, Note_on_c, 0, 50, 68
2, 381020, Note_on_c, 0, 41, 63
2, 381020, Note_on_c, 0, 62, 72
2, 381060, Control_c, 0, 64, 88
2, 381068, Control_c, 0, 64, 72
2, 381072, Control_c, 0, 64, 24
2, 381080, Control_c, 0, 64, 0
2, 381108, Note_on_c, 0, 53, 63
2, 381144, Control_c, 0, 64, 24
2, 381152, Control_c, 0, 64, 56
2, 381160, Control_c, 0, 64, 88
2, 381164, Control_c, 0, 64, 127
2, 381188, Note_on_c, 0, 57, 52
2, 381192, Note_on_c, 0, 53, 0
2, 381248, Note_on_c, 0, 57, 0
2, 381260, Note_on_c, 0, 62, 57
2, 381336, Note_on_c, 0, 62, 0
2, 381336, Note_on_c, 0, 50, 0
2, 381340, Note_on_c, 0, 53, 57
2, 381376, Note_on_c, 0, 53, 0
2, 381420, Note_on_c, 0, 41, 0
2, 381428, Note_on_c, 0, 40, 61
2, 381428, Note_on_c, 0, 60, 70
2, 381432, Note_on_c, 0, 48, 64
2, 381460, Note_on_c, 0, 62, 0
2, 381468, Control_c, 0, 64, 88
2, 381472, Control_c, 0, 64, 72
2, 381484, Control_c, 0, 64, 24
2, 381492, Control_c, 0, 64, 0
2, 381524, Note_on_c, 0, 52, 66
2, 381560, Control_c, 0, 64, 24
2, 381568, Control_c, 0, 64, 56
2, 381576, Control_c, 0, 64, 88
2, 381584, Control_c, 0, 64, 104
2, 381588, Control_c, 0, 64, 127
2, 381604, Note_on_c, 0, 57, 58
2, 381608, Note_on_c, 0, 52, 0
2, 381676, Note_on_c, 0, 57, 0
2, 381680, Note_on_c, 0, 60, 61
2, 381768, Note_on_c, 0, 52, 60
2, 381796, Note_on_c, 0, 60, 0
2, 381796, Note_on_c, 0, 60, 0
2, 381808, Note_on_c, 0, 40, 0
2, 381816, Note_on_c, 0, 52, 0
2, 381836, Note_on_c, 0, 48, 0
2, 381852, Note_on_c, 0, 40, 58
2, 381852, Note_on_c, 0, 59, 70
2, 381852, Note_on_c, 0, 47, 65
2, 381852, Note_on_c, 0, 28, 64
2, 381904, Control_c, 0, 64, 104
2, 381912, Control_c, 0, 64, 72
2, 381920, Control_c, 0, 64, 40
2, 381928, Control_c, 0, 64, 0
2, 381956, Note_on_c, 0, 50, 68
2, 381988, Control_c, 0, 64, 40
2, 381996, Control_c, 0, 64, 72
2, 382004, Control_c, 0, 64, 104
2, 382012, Control_c, 0, 64, 127
2, 382040, Note_on_c, 0, 56, 62
2, 382048, Note_on_c, 0, 50, 0
2, 382104, Note_on_c, 0, 59, 61
2, 382108, Note_on_c, 0, 28, 0
2, 382132, Note_on_c, 0, 56, 0
2, 382156, Note_on_c, 0, 59, 0
2, 382172, Note_on_c, 0, 50, 59
2, 382220, Note_on_c, 0, 50, 0
2, 382232, Note_on_c, 0, 47, 0
2, 382264, Note_on_c, 0, 40, 0
2, 382276, Note_on_c, 0, 45, 71
2, 382276, Note_on_c, 0, 57, 68
2, 382292, Note_on_c, 0, 59, 0
2, 382296, Control_c, 0, 64, 104
2, 382304, Control_c, 0, 64, 72
2, 382312, Control_c, 0, 64, 24
2, 382320, Control_c, 0, 64, 0
2, 382336, Note_on_c, 0, 48, 56
2, 382380, Control_c, 0, 64, 40
2, 382392, Control_c, 0, 64, 88
2, 382400, Control_c, 0, 64, 104
2, 382404, Note_on_c, 0, 52, 61
2, 382404, Control_c, 0, 64, 127
2, 382408, Note_on_c, 0, 48, 0
2, 382468, Note_on_c, 0, 52, 0
2, 382492, Note_on_c, 0, 57, 58
2, 382528, Note_on_c, 0, 45, 0
2, 382556, Note_on_c, 0, 57, 0
2, 382572, Note_on_c, 0, 48, 61
2, 382588, Note_on_c, 0, 48, 0
2, 382688, Note_on_c, 0, 52, 78
2, 382692, Note_on_c, 0, 45, 69
2, 382692, Note_on_c, 0, 64, 71
2, 382696, Note_on_c, 0, 57, 0
2, 382744, Control_c, 0, 64, 104
2, 382752, Control_c, 0, 64, 88
2, 382756, Control_c, 0, 64, 56
2, 382768, Control_c, 0, 64, 0
2, 382784, Note_on_c, 0, 57, 61
2, 382848, Note_on_c, 0, 60, 64
2, 382860, Control_c, 0, 64, 56
2, 382868, Control_c, 0, 64, 88
2, 382876, Control_c, 0, 64, 127
2, 382888, Note_on_c, 0, 57, 0
2, 382916, Note_on_c, 0, 60, 0
2, 382920, Note_on_c, 0, 64, 69
2, 382980, Note_on_c, 0, 64, 0
2, 383000, Note_on_c, 0, 57, 59
2, 383052, Note_on_c, 0, 57, 0
2, 383080, Note_on_c, 0, 52, 0
2, 383080, Note_on_c, 0, 53, 78
2, 383080, Note_on_c, 0, 65, 76
2, 383104, Note_on_c, 0, 64, 0
2, 383112, Control_c, 0, 64, 104
2, 383120, Control_c, 0, 64, 72
2, 383128, Control_c, 0, 64, 24
2, 383136, Control_c, 0, 64, 0
2, 383188, Note_on_c, 0, 57, 62
2, 383200, Control_c, 0, 64, 24
2, 383208, Control_c, 0, 64, 56
2, 383212, Control_c, 0, 64, 104
2, 383220, Control_c, 0, 64, 127
2, 383256, Note_on_c, 0, 60, 64
2, 383260, Note_on_c, 0, 57, 0
2, 383328, Note_on_c, 0, 60, 0
2, 383328, Note_on_c, 0, 65, 64
2, 383392, Note_on_c, 0, 65, 0
2, 383404, Note_on_c, 0, 57, 63
2, 383448, Note_on_c, 0, 57, 0
2, 383480, Note_on_c, 0, 45, 0
2, 383484, Note_on_c, 0, 53, 0
2, 383508, Note_on_c, 0, 47, 71
2, 383508, Note_on_c, 0, 62, 68
2, 383508, Note_on_c, 0, 67, 78
2, 383512, Note_on_c, 0, 65, 0
2, 383552, Control_c, 0, 64, 88
2, 383560, Control_c, 0, 64, 56
2, 383568, Control_c, 0, 64, 0
2, 383576, Note_on_c, 0, 55, 69
2, 383636, Control_c, 0, 64, 56
2, 383644, Control_c, 0, 64, 88
2, 383652, Control_c, 0, 64, 127
2, 383660, Note_on_c, 0, 62, 63
2, 383672, Note_on_c, 0, 55, 0
2, 383716, Note_on_c, 0, 62, 0
2, 383720, Note_on_c, 0, 67, 71
2, 383788, Note_on_c, 0, 67, 0
2, 383804, Note_on_c, 0, 55, 65
2, 383856, Note_on_c, 0, 55, 0
2, 383896, Note_on_c, 0, 47, 0
2, 383908, Note_on_c, 0, 48, 75
2, 383908, Note_on_c, 0, 64, 75
2, 383928, Control_c, 0, 64, 104
2, 383936, Control_c, 0, 64, 88
2, 383944, Control_c, 0, 64, 56
2, 383952, Note_on_c, 0, 62, 0
2, 383952, Control_c, 0, 64, 24
2, 383960, Control_c, 0, 64, 0
2, 383972, Note_on_c, 0, 67, 0
2, 383980, Note_on_c, 0, 55, 67
2, 384024, Control_c, 0, 64, 24
2, 384028, Control_c, 0, 64, 56
2, 384036, Control_c, 0, 64, 88
2, 384044, Control_c, 0, 64, 104
2, 384052, Control_c, 0, 64, 127
2, 384056, Note_on_c, 0, 60, 61
2, 384080, Note_on_c, 0, 55, 0
2, 384120, Note_on_c, 0, 60, 0
2, 384128, Note_on_c, 0, 64, 59
2, 384192, Note_on_c, 0, 64, 0
2, 384204, Note_on_c, 0, 55, 56
2, 384228, Note_on_c, 0, 55, 0
2, 384240, Note_on_c, 0, 48, 0
2, 384328, Note_on_c, 0, 48, 65
2, 384328, Note_on_c, 0, 52, 63
2, 384328, Note_on_c, 0, 64, 69
2, 384352, Note_on_c, 0, 64, 0
2, 384360, Control_c, 0, 64, 104
2, 384368, Control_c, 0, 64, 88
2, 384384, Control_c, 0, 64, 72
2, 384392, Control_c, 0, 64, 56
2, 384400, Control_c, 0, 64, 40
2, 384408, Control_c, 0, 64, 0
2, 384456, Note_on_c, 0, 55, 64
2, 384512, Control_c, 0, 64, 56
2, 384520, Control_c, 0, 64, 104
2, 384524, Note_on_c, 0, 60, 58
2, 384528, Note_on_c, 0, 55, 0
2, 384532, Control_c, 0, 64, 127
2, 384592, Note_on_c, 0, 60, 0
2, 384600, Note_on_c, 0, 64, 52
2, 384632, Note_on_c, 0, 52, 0
2, 384644, Note_on_c, 0, 64, 0
2, 384648, Note_on_c, 0, 55, 57
2, 384692, Note_on_c, 0, 55, 0
2, 384728, Note_on_c, 0, 48, 0
2, 384740, Note_on_c, 0, 53, 58
2, 384744, Note_on_c, 0, 45, 56
2, 384744, Note_on_c, 0, 65, 71
2, 384764, Note_on_c, 0, 64, 0
2, 384796, Control_c, 0, 64, 88
2, 384808, Control_c, 0, 64, 40
2, 384816, Control_c, 0, 64, 0
2, 384828, Note_on_c, 0, 57, 58
2, 384884, Control_c, 0, 64, 56
2, 384888, Note_on_c, 0, 60, 62
2, 384892, Note_on_c, 0, 57, 0
2, 384892, Control_c, 0, 64, 88
2, 384896, Control_c, 0, 64, 104
2, 384908, Control_c, 0, 64, 127
2, 384956, Note_on_c, 0, 60, 0
2, 384960, Note_on_c, 0, 65, 60
2, 385020, Note_on_c, 0, 65, 0
2, 385036, Note_on_c, 0, 57, 56
2, 385084, Note_on_c, 0, 57, 0
2, 385104, Note_on_c, 0, 45, 0
2, 385124, Note_on_c, 0, 53, 0
2, 385128, Note_on_c, 0, 47, 63
2, 385128, Note_on_c, 0, 67, 73
2, 385128, Note_on_c, 0, 62, 63
2, 385160, Note_on_c, 0, 65, 0
2, 385160, Control_c, 0, 64, 104
2, 385168, Control_c, 0, 64, 72
2, 385176, Control_c, 0, 64, 40
2, 385180, Control_c, 0, 64, 0
2, 385200, Note_on_c, 0, 55, 62
2, 385244, Control_c, 0, 64, 40
2, 385252, Control_c, 0, 64, 72
2, 385260, Control_c, 0, 64, 104
2, 385268, Control_c, 0, 64, 127
2, 385276, Note_on_c, 0, 62, 58
2, 385304, Note_on_c, 0, 55, 0
2, 385336, Note_on_c, 0, 62, 0
2, 385336, Note_on_c, 0, 62, 0
2, 385340, Note_on_c, 0, 67, 60
2, 385400, Note_on_c, 0, 67, 0
2, 385428, Note_on_c, 0, 55, 68
2, 385480, Note_on_c, 0, 55, 0
2, 385512, Note_on_c, 0, 47, 0
2, 385532, Note_on_c, 0, 48, 64
2, 385532, Note_on_c, 0, 64, 69
2, 385552, Control_c, 0, 64, 104
2, 385560, Control_c, 0, 64, 72
2, 385568, Control_c, 0, 64, 40
2, 385576, Control_c, 0, 64, 0
2, 385624, Note_on_c, 0, 67, 0
2, 385624, Note_on_c, 0, 55, 59
2, 385652, Control_c, 0, 64, 24
2, 385660, Control_c, 0, 64, 56
2, 385668, Control_c, 0, 64, 88
2, 385676, Control_c, 0, 64, 104
2, 385684, Control_c, 0, 64, 127
2, 385704, Note_on_c, 0, 55, 0
2, 385704, Note_on_c, 0, 60, 58
2, 385768, Note_on_c, 0, 60, 0
2, 385780, Note_on_c, 0, 64, 52
2, 385852, Note_on_c, 0, 48, 0
2, 385864, Note_on_c, 0, 55, 56
2, 385868, Note_on_c, 0, 64, 0
2, 385868, Note_on_c, 0, 64, 0
2, 385900, Note_on_c, 0, 55, 0
2, 385968, Note_on_c, 0, 55, 61
2, 385968, Note_on_c, 0, 60, 73
2, 385972, Note_on_c, 0, 52, 63
2, 385992, Note_on_c, 0, 48, 59
2, 385996, Note_on_c, 0, 36, 65
2, 386024, Control_c, 0, 64, 104
2, 386032, Control_c, 0, 64, 72
2, 386036, Control_c, 0, 64, 24
2, 386044, Control_c, 0, 64, 0
2, 386080, Note_on_c, 0, 55, 65
2, 386100, Note_on_c, 0, 60, 0
2, 386100, Control_c, 0, 64, 24
2, 386108, Control_c, 0, 64, 72
2, 386116, Control_c, 0, 64, 127
2, 386144, Note_on_c, 0, 55, 0
2, 386144, Note_on_c, 0, 60, 67
2, 386148, Note_on_c, 0, 52, 0
2, 386164, Note_on_c, 0, 62, 74
2, 386172, Note_on_c, 0, 59, 70
2, 386208, Note_on_c, 0, 60, 0
2, 386208, Note_on_c, 0, 64, 62
2, 386268, Note_on_c, 0, 64, 0
2, 386276, Note_on_c, 0, 55, 63
2, 386300, Note_on_c, 0, 55, 0
2, 386336, Note_on_c, 0, 55, 0
2, 386344, Note_on_c, 0, 59, 0
2, 386364, Note_on_c, 0, 62, 0
2, 386368, Note_on_c, 0, 60, 66
2, 386368, Note_on_c, 0, 64, 78
2, 386468, Note_on_c, 0, 55, 63
2, 386520, Note_on_c, 0, 64, 0
2, 386536, Note_on_c, 0, 60, 69
2, 386564, Note_on_c, 0, 62, 77
2, 386564, Note_on_c, 0, 59, 69
2, 386564, Note_on_c, 0, 55, 63
2, 386580, Note_on_c, 0, 60, 0
2, 386580, Note_on_c, 0, 55, 0
2, 386600, Note_on_c, 0, 60, 0
2, 386604, Note_on_c, 0, 64, 65
2, 386644, Note_on_c, 0, 59, 0
2, 386672, Note_on_c, 0, 64, 0
2, 386680, Note_on_c, 0, 55, 66
2, 386692, Note_on_c, 0, 62, 0
2, 386732, Note_on_c, 0, 55, 0
2, 386764, Note_on_c, 0, 64, 83
2, 386764, Note_on_c, 0, 60, 68
2, 386764, Note_on_c, 0, 48, 67
2, 386780, Note_on_c, 0, 55, 0
2, 386880, Note_on_c, 0, 64, 0
2, 386892, Note_on_c, 0, 60, 0
2, 386896, Note_on_c, 0, 48, 0
2, 386900, Note_on_c, 0, 55, 67
2, 386932, Note_on_c, 0, 48, 0
2, 386956, Note_on_c, 0, 60, 69
2, 386956, Note_on_c, 0, 67, 78
2, 386956, Note_on_c, 0, 64, 71
2, 386956, Note_on_c, 0, 52, 71
2, 386964, Note_on_c, 0, 36, 0
2, 386984, Note_on_c, 0, 55, 0
2, 386996, Note_on_c, 0, 52, 0
2, 387020, Note_on_c, 0, 64, 69
2, 387024, Note_on_c, 0, 60, 0
2, 387080, Note_on_c, 0, 64, 0
2, 387092, Note_on_c, 0, 55, 53
2, 387124, Note_on_c, 0, 64, 0
2, 387128, Note_on_c, 0, 67, 0
2, 387144, Note_on_c, 0, 55, 0
2, 387200, Note_on_c, 0, 43, 59
2, 387200, Note_on_c, 0, 31, 58
2, 387200, Note_on_c, 0, 55, 58
2, 387200, Note_on_c, 0, 62, 75
2, 387200, Note_on_c, 0, 59, 65
2, 387200, Note_on_c, 0, 43, 66
2, 387236, Control_c, 0, 64, 104
2, 387248, Control_c, 0, 64, 72
2, 387256, Control_c, 0, 64, 40
2, 387264, Control_c, 0, 64, 0
2, 387292, Note_on_c, 0, 55, 65
2, 387340, Control_c, 0, 64, 72
2, 387348, Control_c, 0, 64, 127
2, 387376, Note_on_c, 0, 59, 63
2, 387384, Note_on_c, 0, 55, 0
2, 387408, Note_on_c, 0, 31, 0
2, 387432, Note_on_c, 0, 59, 0
2, 387440, Note_on_c, 0, 43, 0
2, 387440, Note_on_c, 0, 43, 0
2, 387448, Note_on_c, 0, 59, 0
2, 387448, Note_on_c, 0, 62, 71
2, 387456, Note_on_c, 0, 62, 0
2, 387472, Note_on_c, 0, 55, 0
2, 387508, Note_on_c, 0, 62, 0
2, 387516, Note_on_c, 0, 55, 71
2, 387536, Note_on_c, 0, 55, 0
2, 387616, Note_on_c, 0, 52, 69
2, 387620, Note_on_c, 0, 40, 64
2, 387636, Note_on_c, 0, 76, 81
2, 387640, Control_c, 0, 64, 104
2, 387644, Note_on_c, 0, 71, 67
2, 387648, Control_c, 0, 64, 72
2, 387656, Control_c, 0, 64, 24
2, 387660, Control_c, 0, 64, 0
2, 387664, Note_on_c, 0, 59, 59
2, 387664, Note_on_c, 0, 67, 59
2, 387692, Note_on_c, 0, 59, 69
2, 387732, Control_c, 0, 64, 40
2, 387740, Control_c, 0, 64, 104
2, 387748, Control_c, 0, 64, 127
2, 387768, Note_on_c, 0, 64, 68
2, 387784, Note_on_c, 0, 59, 0
2, 387832, Note_on_c, 0, 64, 0
2, 387832, Note_on_c, 0, 67, 73
2, 387832, Note_on_c, 0, 78, 85
2, 387840, Note_on_c, 0, 67, 0
2, 387848, Note_on_c, 0, 76, 0
2, 387848, Note_on_c, 0, 75, 82
2, 387868, Note_on_c, 0, 66, 48
2, 387892, Note_on_c, 0, 67, 0
2, 387896, Note_on_c, 0, 66, 0
2, 387900, Note_on_c, 0, 59, 69
2, 387972, Note_on_c, 0, 59, 0
2, 387992, Note_on_c, 0, 75, 0
2, 388016, Note_on_c, 0, 78, 0
2, 388032, Note_on_c, 0, 79, 84
2, 388036, Note_on_c, 0, 76, 80
2, 388052, Note_on_c, 0, 59, 0
2, 388068, Note_on_c, 0, 64, 48
2, 388132, Note_on_c, 0, 59, 69
2, 388188, Note_on_c, 0, 79, 0
2, 388192, Note_on_c, 0, 64, 74
2, 388216, Note_on_c, 0, 64, 0
2, 388220, Note_on_c, 0, 76, 0
2, 388224, Note_on_c, 0, 59, 0
2, 388224, Note_on_c, 0, 78, 85
2, 388228, Note_on_c, 0, 63, 66
2, 388256, Note_on_c, 0, 67, 74
2, 388260, Note_on_c, 0, 64, 0
2, 388284, Note_on_c, 0, 63, 0
2, 388300, Note_on_c, 0, 78, 0
2, 388320, Note_on_c, 0, 67, 0
2, 388336, Note_on_c, 0, 71, 0
2, 388336, Note_on_c, 0, 59, 65
2, 388396, Note_on_c, 0, 59, 0
2, 388404, Note_on_c, 0, 79, 90
2, 388412, Note_on_c, 0, 71, 58
2, 388420, Note_on_c, 0, 52, 73
2, 388424, Note_on_c, 0, 64, 71
2, 388508, Note_on_c, 0, 79, 0
2, 388540, Note_on_c, 0, 59, 66
2, 388548, Note_on_c, 0, 52, 0
2, 388560, Note_on_c, 0, 52, 0
2, 388568, Note_on_c, 0, 40, 0
2, 388600, Note_on_c, 0, 64, 72
2, 388604, Note_on_c, 0, 79, 82
2, 388604, Note_on_c, 0, 83, 94
2, 388604, Note_on_c, 0, 55, 63
2, 388608, Note_on_c, 0, 59, 0
2, 388620, Note_on_c, 0, 64, 0
2, 388636, Note_on_c, 0, 64, 0
2, 388640, Note_on_c, 0, 67, 71
2, 388644, Note_on_c, 0, 79, 0
2, 388684, Note_on_c, 0, 71, 0
2, 388696, Note_on_c, 0, 67, 0
2, 388700, Note_on_c, 0, 59, 62
2, 388760, Note_on_c, 0, 55, 0
2, 388764, Note_on_c, 0, 59, 0
2, 388764, Note_on_c, 0, 83, 0
2, 388816, Note_on_c, 0, 47, 75
2, 388816, Note_on_c, 0, 35, 63
2, 388816, Note_on_c, 0, 78, 90
2, 388816, Note_on_c, 0, 59, 74
2, 388816, Note_on_c, 0, 63, 62
2, 388816, Note_on_c, 0, 71, 71
2, 388836, Control_c, 0, 64, 104
2, 388848, Control_c, 0, 64, 56
2, 388856, Control_c, 0, 64, 0
2, 388920, Note_on_c, 0, 59, 62
2, 388948, Control_c, 0, 64, 72
2, 388956, Control_c, 0, 64, 127
2, 388992, Note_on_c, 0, 63, 63
2, 389008, Note_on_c, 0, 35, 0
2, 389028, Note_on_c, 0, 59, 0
2, 389048, Note_on_c, 0, 47, 0
2, 389052, Note_on_c, 0, 59, 0
2, 389060, Note_on_c, 0, 63, 0
2, 389060, Note_on_c, 0, 63, 0
2, 389064, Note_on_c, 0, 66, 64
2, 389084, Note_on_c, 0, 71, 0
2, 389092, Note_on_c, 0, 78, 0
2, 389128, Note_on_c, 0, 66, 0
2, 389136, Note_on_c, 0, 59, 61
2, 389164, Note_on_c, 0, 59, 0
2, 389236, Note_on_c, 0, 67, 81
2, 389280, Note_on_c, 0, 55, 76
2, 389284, Note_on_c, 0, 52, 63
2, 389316, Control_c, 0, 64, 104
2, 389332, Control_c, 0, 64, 88
2, 389340, Control_c, 0, 64, 56
2, 389348, Control_c, 0, 64, 24
2, 389352, Control_c, 0, 64, 0
2, 389368, Note_on_c, 0, 59, 66
2, 389432, Note_on_c, 0, 64, 63
2, 389440, Control_c, 0, 64, 72
2, 389448, Control_c, 0, 64, 104
2, 389452, Control_c, 0, 64, 127
2, 389460, Note_on_c, 0, 59, 0
2, 389496, Note_on_c, 0, 64, 0
2, 389500, Note_on_c, 0, 67, 60
2, 389556, Note_on_c, 0, 67, 0
2, 389564, Note_on_c, 0, 59, 63
2, 389576, Note_on_c, 0, 55, 0
2, 389612, Note_on_c, 0, 59, 0
2, 389656, Note_on_c, 0, 69, 80
2, 389668, Note_on_c, 0, 57, 72
2, 389672, Note_on_c, 0, 67, 0
2, 389724, Control_c, 0, 64, 88
2, 389732, Control_c, 0, 64, 56
2, 389740, Control_c, 0, 64, 0
2, 389760, Note_on_c, 0, 60, 67
2, 389800, Control_c, 0, 64, 40
2, 389808, Control_c, 0, 64, 88
2, 389816, Control_c, 0, 64, 127
2, 389824, Note_on_c, 0, 64, 66
2, 389836, Note_on_c, 0, 60, 0
2, 389892, Note_on_c, 0, 64, 0
2, 389900, Note_on_c, 0, 69, 67
2, 389952, Note_on_c, 0, 69, 0
2, 389956, Note_on_c, 0, 60, 69
2, 390012, Note_on_c, 0, 60, 0
2, 390032, Note_on_c, 0, 57, 0
2, 390052, Note_on_c, 0, 52, 0
2, 390052, Note_on_c, 0, 51, 78
2, 390052, Note_on_c, 0, 66, 65
2, 390052, Note_on_c, 0, 59, 65
2, 390052, Note_on_c, 0, 71, 83
2, 390084, Note_on_c, 0, 69, 0
2, 390092, Control_c, 0, 64, 104
2, 390100, Control_c, 0, 64, 72
2, 390108, Control_c, 0, 64, 40
2, 390116, Control_c, 0, 64, 0
2, 390124, Note_on_c, 0, 59, 61
2, 390176, Control_c, 0, 64, 24
2, 390184, Control_c, 0, 64, 72
2, 390192, Control_c, 0, 64, 104
2, 390200, Note_on_c, 0, 66, 58
2, 390200, Control_c, 0, 64, 127
2, 390224, Note_on_c, 0, 59, 0
2, 390264, Note_on_c, 0, 66, 0
2, 390276, Note_on_c, 0, 71, 60
2, 390340, Note_on_c, 0, 71, 0
2, 390348, Note_on_c, 0, 59, 58
2, 390372, Note_on_c, 0, 66, 0
2, 390400, Note_on_c, 0, 71, 0
2, 390408, Note_on_c, 0, 59, 0
2, 390448, Note_on_c, 0, 52, 69
2, 390448, Note_on_c, 0, 67, 77
2, 390448, Note_on_c, 0, 52, 66
2, 390448, Note_on_c, 0, 64, 62
2, 390452, Note_on_c, 0, 51, 0
2, 390492, Control_c, 0, 64, 104
2, 390500, Control_c, 0, 64, 88
2, 390508, Control_c, 0, 64, 56
2, 390516, Control_c, 0, 64, 24
2, 390524, Control_c, 0, 64, 0
2, 390536, Note_on_c, 0, 59, 61
2, 390592, Control_c, 0, 64, 40
2, 390600, Control_c, 0, 64, 72
2, 390608, Control_c, 0, 64, 88
2, 390616, Note_on_c, 0, 64, 62
2, 390616, Control_c, 0, 64, 104
2, 390624, Control_c, 0, 64, 127
2, 390652, Note_on_c, 0, 59, 0
2, 390664, Note_on_c, 0, 59, 0
2, 390680, Note_on_c, 0, 52, 0
2, 390684, Note_on_c, 0, 64, 0
2, 390700, Note_on_c, 0, 67, 56
2, 390756, Note_on_c, 0, 64, 0
2, 390760, Note_on_c, 0, 67, 0
2, 390772, Note_on_c, 0, 59, 62
2, 390780, Note_on_c, 0, 67, 0
2, 390800, Note_on_c, 0, 52, 0
2, 390828, Note_on_c, 0, 59, 0
2, 390868, Note_on_c, 0, 67, 80
2, 390884, Note_on_c, 0, 55, 71
2, 390892, Note_on_c, 0, 52, 58
2, 390924, Control_c, 0, 64, 88
2, 390932, Control_c, 0, 64, 56
2, 390940, Control_c, 0, 64, 0
2, 390976, Note_on_c, 0, 59, 58
2, 391000, Control_c, 0, 64, 24
2, 391008, Control_c, 0, 64, 72
2, 391016, Control_c, 0, 64, 104
2, 391024, Control_c, 0, 64, 127
2, 391044, Note_on_c, 0, 64, 58
2, 391056, Note_on_c, 0, 59, 0
2, 391100, Note_on_c, 0, 64, 0
2, 391104, Note_on_c, 0, 67, 58
2, 391164, Note_on_c, 0, 67, 0
2, 391176, Note_on_c, 0, 55, 0
2, 391176, Note_on_c, 0, 59, 56
2, 391216, Note_on_c, 0, 59, 0
2, 391268, Note_on_c, 0, 57, 64
2, 391276, Note_on_c, 0, 69, 78
2, 391300, Note_on_c, 0, 67, 0
2, 391308, Control_c, 0, 64, 104
2, 391316, Control_c, 0, 64, 56
2, 391324, Control_c, 0, 64, 0
2, 391360, Note_on_c, 0, 60, 56
2, 391396, Control_c, 0, 64, 40
2, 391400, Control_c, 0, 64, 72
2, 391408, Control_c, 0, 64, 104
2, 391416, Control_c, 0, 64, 127
2, 391436, Note_on_c, 0, 60, 0
2, 391436, Note_on_c, 0, 64, 55
2, 391480, Note_on_c, 0, 64, 0
2, 391500, Note_on_c, 0, 69, 56
2, 391552, Note_on_c, 0, 69, 0
2, 391560, Note_on_c, 0, 60, 58
2, 391604, Note_on_c, 0, 60, 0
2, 391652, Note_on_c, 0, 57, 0
2, 391656, Note_on_c, 0, 71, 85
2, 391656, Note_on_c, 0, 59, 60
2, 391656, Note_on_c, 0, 66, 67
2, 391660, Note_on_c, 0, 51, 70
2, 391664, Note_on_c, 0, 52, 0
2, 391668, Note_on_c, 0, 69, 0
2, 391692, Control_c, 0, 64, 88
2, 391700, Control_c, 0, 64, 56
2, 391708, Control_c, 0, 64, 24
2, 391716, Control_c, 0, 64, 0
2, 391724, Note_on_c, 0, 59, 49
2, 391772, Control_c, 0, 64, 24
2, 391780, Control_c, 0, 64, 56
2, 391784, Control_c, 0, 64, 88
2, 391792, Control_c, 0, 64, 104
2, 391800, Control_c, 0, 64, 127
2, 391808, Note_on_c, 0, 66, 54
2, 391836, Note_on_c, 0, 59, 0
2, 391868, Note_on_c, 0, 66, 0
2, 391888, Note_on_c, 0, 71, 44
2, 391940, Note_on_c, 0, 71, 0
2, 391944, Note_on_c, 0, 59, 53
2, 392020, Note_on_c, 0, 66, 0
2, 392020, Note_on_c, 0, 59, 0
2, 392036, Note_on_c, 0, 71, 0
2, 392060, Note_on_c, 0, 51, 0
2, 392080, Note_on_c, 0, 52, 56
2, 392080, Note_on_c, 0, 52, 68
2, 392080, Note_on_c, 0, 67, 76
2, 392084, Note_on_c, 0, 64, 63
2, 392104, Control_c, 0, 64, 104
2, 392112, Control_c, 0, 64, 72
2, 392116, Control_c, 0, 64, 56
2, 392124, Control_c, 0, 64, 0
2, 392164, Note_on_c, 0, 59, 61
2, 392196, Control_c, 0, 64, 24
2, 392200, Control_c, 0, 64, 56
2, 392208, Control_c, 0, 64, 88
2, 392216, Control_c, 0, 64, 127
2, 392244, Note_on_c, 0, 64, 56
2, 392276, Note_on_c, 0, 59, 0
2, 392276, Note_on_c, 0, 59, 0
2, 392292, Note_on_c, 0, 64, 0
2, 392308, Note_on_c, 0, 67, 0
2, 392308, Note_on_c, 0, 64, 0
2, 392316, Note_on_c, 0, 67, 56
2, 392336, Note_on_c, 0, 52, 0
2, 392380, Note_on_c, 0, 52, 0
2, 392388, Note_on_c, 0, 67, 0
2, 392396, Note_on_c, 0, 59, 59
2, 392460, Note_on_c, 0, 59, 0
2, 392496, Note_on_c, 0, 64, 76
2, 392504, Note_on_c, 0, 59, 60
2, 392516, Note_on_c, 0, 55, 61
2, 392532, Note_on_c, 0, 52, 64
2, 392532, Note_on_c, 0, 40, 58
2, 392560, Note_on_c, 0, 59, 0
2, 392588, Control_c, 0, 64, 104
2, 392596, Control_c, 0, 64, 88
2, 392600, Control_c, 0, 64, 56
2, 392608, Control_c, 0, 64, 24
2, 392616, Control_c, 0, 64, 0
2, 392620, Note_on_c, 0, 59, 63
2, 392688, Note_on_c, 0, 64, 63
2, 392692, Note_on_c, 0, 64, 0
2, 392692, Note_on_c, 0, 66, 78
2, 392700, Note_on_c, 0, 59, 63
2, 392708, Note_on_c, 0, 59, 0
2, 392708, Control_c, 0, 64, 40
2, 392712, Note_on_c, 0, 63, 67
2, 392716, Control_c, 0, 64, 104
2, 392724, Control_c, 0, 64, 127
2, 392748, Note_on_c, 0, 55, 0
2, 392752, Note_on_c, 0, 64, 0
2, 392752, Note_on_c, 0, 67, 60
2, 392784, Note_on_c, 0, 59, 0
2, 392816, Note_on_c, 0, 67, 0
2, 392820, Note_on_c, 0, 59, 56
2, 392880, Note_on_c, 0, 59, 0
2, 392892, Note_on_c, 0, 63, 0
2, 392904, Note_on_c, 0, 66, 0
2, 392904, Note_on_c, 0, 67, 83
2, 392904, Note_on_c, 0, 64, 73
2, 393064, Note_on_c, 0, 59, 64
2, 393076, Note_on_c, 0, 64, 0
2, 393088, Note_on_c, 0, 66, 81
2, 393088, Note_on_c, 0, 59, 66
2, 393088, Note_on_c, 0, 63, 63
2, 393112, Note_on_c, 0, 64, 66
2, 393116, Note_on_c, 0, 67, 0
2, 393156, Note_on_c, 0, 59, 0
2, 393176, Note_on_c, 0, 64, 0
2, 393176, Note_on_c, 0, 67, 68
2, 393180, Note_on_c, 0, 63, 0
2, 393244, Note_on_c, 0, 66, 0
2, 393252, Note_on_c, 0, 67, 0
2, 393256, Note_on_c, 0, 59, 59
2, 393288, Note_on_c, 0, 59, 0
2, 393292, Note_on_c, 0, 67, 88
2, 393300, Note_on_c, 0, 64, 64
2, 393300, Note_on_c, 0, 52, 63
2, 393328, Note_on_c, 0, 59, 0
2, 393436, Note_on_c, 0, 67, 0
2, 393456, Note_on_c, 0, 59, 63
2, 393460, Note_on_c, 0, 64, 0
2, 393488, Note_on_c, 0, 71, 85
2, 393488, Note_on_c, 0, 55, 70
2, 393488, Note_on_c, 0, 67, 73
2, 393496, Note_on_c, 0, 52, 0
2, 393508, Note_on_c, 0, 52, 0
2, 393516, Note_on_c, 0, 64, 68
2, 393520, Note_on_c, 0, 40, 0
2, 393528, Note_on_c, 0, 55, 0
2, 393556, Note_on_c, 0, 59, 0
2, 393580, Note_on_c, 0, 64, 0
2, 393588, Note_on_c, 0, 67, 61
2, 393592, Note_on_c, 0, 67, 0
2, 393640, Note_on_c, 0, 67, 0
2, 393656, Note_on_c, 0, 59, 62
2, 393692, Note_on_c, 0, 71, 0
2, 393704, Note_on_c, 0, 59, 0
2, 393708, Note_on_c, 0, 47, 73
2, 393708, Note_on_c, 0, 35, 73
2, 393708, Note_on_c, 0, 59, 63
2, 393708, Note_on_c, 0, 66, 79
2, 393712, Note_on_c, 0, 63, 65
2, 393712, Note_on_c, 0, 47, 59
2, 393812, Control_c, 0, 64, 72
2, 393820, Control_c, 0, 64, 0
2, 393856, Note_on_c, 0, 59, 67
2, 393888, Control_c, 0, 64, 56
2, 393896, Note_on_c, 0, 35, 0
2, 393896, Control_c, 0, 64, 104
2, 393904, Control_c, 0, 64, 127
2, 393924, Note_on_c, 0, 47, 0
2, 393932, Note_on_c, 0, 63, 0
2, 393936, Note_on_c, 0, 63, 66
2, 393948, Note_on_c, 0, 47, 0
2, 393960, Note_on_c, 0, 66, 0
2, 393968, Note_on_c, 0, 59, 0
2, 393968, Note_on_c, 0, 59, 0
2, 394004, Note_on_c, 0, 66, 63
2, 394008, Note_on_c, 0, 63, 0
2, 394080, Note_on_c, 0, 66, 0
2, 394084, Note_on_c, 0, 59, 63
2, 394104, Note_on_c, 0, 59, 0
2, 394140, Note_on_c, 0, 79, 87
2, 394160, Note_on_c, 0, 74, 60
2, 394164, Note_on_c, 0, 59, 53
2, 394168, Note_on_c, 0, 67, 52
2, 394184, Note_on_c, 0, 55, 73
2, 394196, Note_on_c, 0, 43, 61
2, 394204, Control_c, 0, 64, 88
2, 394212, Control_c, 0, 64, 40
2, 394220, Control_c, 0, 64, 0
2, 394264, Note_on_c, 0, 62, 72
2, 394288, Control_c, 0, 64, 72
2, 394296, Control_c, 0, 64, 127
2, 394328, Note_on_c, 0, 67, 69
2, 394332, Note_on_c, 0, 62, 0
2, 394344, Note_on_c, 0, 67, 0
2, 394348, Note_on_c, 0, 59, 0
2, 394348, Note_on_c, 0, 79, 0
2, 394356, Note_on_c, 0, 81, 85
2, 394356, Note_on_c, 0, 66, 53
2, 394368, Note_on_c, 0, 62, 62
2, 394396, Note_on_c, 0, 67, 0
2, 394396, Note_on_c, 0, 71, 74
2, 394464, Note_on_c, 0, 71, 0
2, 394472, Note_on_c, 0, 62, 62
2, 394528, Note_on_c, 0, 62, 0
2, 394540, Note_on_c, 0, 81, 0
2, 394560, Note_on_c, 0, 66, 0
2, 394560, Note_on_c, 0, 83, 84
2, 394568, Note_on_c, 0, 62, 0
2, 394568, Note_on_c, 0, 79, 77
2, 394584, Note_on_c, 0, 67, 62
2, 394596, Note_on_c, 0, 74, 0
2, 394680, Note_on_c, 0, 62, 63
2, 394712, Note_on_c, 0, 83, 0
2, 394740, Note_on_c, 0, 67, 67
2, 394752, Note_on_c, 0, 81, 88
2, 394756, Note_on_c, 0, 79, 0
2, 394760, Note_on_c, 0, 66, 57
2, 394764, Note_on_c, 0, 67, 0
2, 394772, Note_on_c, 0, 62, 61
2, 394776, Note_on_c, 0, 62, 0
2, 394776, Note_on_c, 0, 74, 63
2, 394808, Note_on_c, 0, 71, 75
2, 394812, Note_on_c, 0, 67, 0
2, 394816, Note_on_c, 0, 66, 0
2, 394816, Note_on_c, 0, 62, 0
2, 394836, Note_on_c, 0, 81, 0
2, 394884, Note_on_c, 0, 71, 0
2, 394888, Note_on_c, 0, 62, 63
2, 394948, Note_on_c, 0, 83, 92
2, 394956, Note_on_c, 0, 62, 0
2, 394968, Note_on_c, 0, 55, 61
2, 394968, Note_on_c, 0, 67, 49
2, 394976, Note_on_c, 0, 79, 49
2, 394996, Note_on_c, 0, 79, 0
2, 395060, Note_on_c, 0, 74, 0
2, 395080, Note_on_c, 0, 83, 0
2, 395092, Note_on_c, 0, 62, 69
2, 395128, Note_on_c, 0, 55, 0
2, 395144, Note_on_c, 0, 86, 95
2, 395156, Note_on_c, 0, 83, 83
2, 395156, Note_on_c, 0, 59, 63
2, 395160, Note_on_c, 0, 67, 0
2, 395164, Note_on_c, 0, 67, 69
2, 395176, Note_on_c, 0, 55, 0
2, 395200, Note_on_c, 0, 43, 0
2, 395200, Note_on_c, 0, 62, 0
2, 395228, Note_on_c, 0, 67, 0
2, 395228, Note_on_c, 0, 71, 76
2, 395292, Note_on_c, 0, 71, 0
2, 395300, Note_on_c, 0, 62, 64
2, 395348, Note_on_c, 0, 62, 0
2, 395348, Note_on_c, 0, 59, 0
2, 395356, Note_on_c, 0, 83, 0
2, 395368, Note_on_c, 0, 86, 0
2, 395372, Note_on_c, 0, 50, 67
2, 395372, Note_on_c, 0, 38, 73
2, 395372, Note_on_c, 0, 81, 86
2, 395372, Note_on_c, 0, 66, 68
2, 395372, Note_on_c, 0, 74, 70
2, 395372, Note_on_c, 0, 62, 74
2, 395436, Control_c, 0, 64, 88
2, 395440, Control_c, 0, 64, 56
2, 395452, Control_c, 0, 64, 0
2, 395504, Note_on_c, 0, 62, 66
2, 395520, Control_c, 0, 64, 56
2, 395528, Control_c, 0, 64, 127
2, 395580, Note_on_c, 0, 66, 64
2, 395588, Note_on_c, 0, 50, 0
2, 395592, Note_on_c, 0, 62, 0
2, 395596, Note_on_c, 0, 62, 0
2, 395600, Note_on_c, 0, 74, 0
2, 395604, Note_on_c, 0, 66, 0
2, 395604, Note_on_c, 0, 38, 0
2, 395604, Note_on_c, 0, 81, 0
2, 395640, Note_on_c, 0, 66, 0
2, 395644, Note_on_c, 0, 69, 68
2, 395712, Note_on_c, 0, 69, 0
2, 395720, Note_on_c, 0, 62, 61
2, 395760, Note_on_c, 0, 62, 0
2, 395844, Note_on_c, 0, 67, 83
2, 395864, Note_on_c, 0, 62, 55
2, 395904, Note_on_c, 0, 67, 70
2, 395908, Note_on_c, 0, 59, 58
2, 395916, Note_on_c, 0, 43, 52
2, 395920, Note_on_c, 0, 31, 52
2, 395928, Control_c, 0, 64, 88
2, 395936, Control_c, 0, 64, 24
2, 395940, Control_c, 0, 64, 0
2, 395980, Control_c, 0, 64, 40
2, 395988, Control_c, 0, 64, 104
2, 395996, Control_c, 0, 64, 127
2, 396000, Note_on_c, 0, 59, 0
2, 396068, Note_on_c, 0, 67, 0
2, 396072, Note_on_c, 0, 69, 84
2, 396076, Note_on_c, 0, 66, 63
2, 396080, Note_on_c, 0, 67, 0
2, 396092, Note_on_c, 0, 62, 64
2, 396092, Note_on_c, 0, 69, 76
2, 396180, Note_on_c, 0, 62, 0
2, 396212, Note_on_c, 0, 66, 0
2, 396240, Note_on_c, 0, 69, 0
2, 396240, Note_on_c, 0, 62, 0
2, 396248, Note_on_c, 0, 69, 0
2, 396284, Note_on_c, 0, 71, 81
2, 396284, Note_on_c, 0, 67, 67
2, 396440, Note_on_c, 0, 67, 0
2, 396476, Note_on_c, 0, 71, 0
2, 396484, Note_on_c, 0, 69, 83
2, 396484, Note_on_c, 0, 62, 66
2, 396488, Note_on_c, 0, 31, 0
2, 396512, Note_on_c, 0, 43, 0
2, 396660, Note_on_c, 0, 62, 0
2, 396664, Note_on_c, 0, 69, 0
2, 396672, Note_on_c, 0, 71, 83
2, 396676, Note_on_c, 0, 67, 76
2, 396736, Note_on_c, 0, 67, 0
2, 396748, Note_on_c, 0, 71, 0
2, 396868, Note_on_c, 0, 76, 90
2, 396868, Note_on_c, 0, 70, 75
2, 396868, Note_on_c, 0, 67, 68
2, 396868, Note_on_c, 0, 61, 76
2, 396964, Note_on_c, 0, 76, 0
2, 396992, Note_on_c, 0, 70, 0
2, 397052, Note_on_c, 0, 67, 0
2, 397060, Note_on_c, 0, 61, 0
2, 397060, Control_c, 0, 64, 0
2, 397076, Note_on_c, 0, 69, 84
2, 397076, Note_on_c, 0, 62, 75
2, 397076, Note_on_c, 0, 66, 67
2, 397212, Control_c, 0, 64, 40
2, 397224, Control_c, 0, 64, 56
2, 397228, Note_on_c, 0, 66, 0
2, 397236, Control_c, 0, 64, 72
2, 397264, Note_on_c, 0, 69, 0
2, 397268, Note_on_c, 0, 68, 80
2, 397268, Note_on_c, 0, 65, 71
2, 397268, Control_c, 0, 64, 88
2, 397280, Control_c, 0, 64, 104
2, 397308, Control_c, 0, 64, 127
2, 397372, Note_on_c, 0, 68, 0
2, 397428, Note_on_c, 0, 65, 0
2, 397452, Note_on_c, 0, 69, 85
2, 397452, Note_on_c, 0, 66, 68
2, 397476, Note_on_c, 0, 66, 0
2, 397508, Note_on_c, 0, 69, 0
2, 397616, Control_c, 0, 64, 72
2, 397628, Note_on_c, 0, 62, 0
2, 397628, Control_c, 0, 64, 24
2, 397640, Note_on_c, 0, 68, 78
2, 397640, Note_on_c, 0, 74, 91
2, 397640, Control_c, 0, 64, 0
2, 397648, Note_on_c, 0, 65, 73
2, 397656, Note_on_c, 0, 59, 63
2, 397704, Note_on_c, 0, 65, 0
2, 397720, Note_on_c, 0, 68, 0
2, 397720, Control_c, 0, 64, 40
2, 397736, Control_c, 0, 64, 88
2, 397748, Control_c, 0, 64, 104
2, 397760, Control_c, 0, 64, 127
2, 397772, Note_on_c, 0, 74, 0
2, 397816, Control_c, 0, 64, 56
2, 397828, Control_c, 0, 64, 0
2, 397848, Note_on_c, 0, 59, 0
2, 397852, Note_on_c, 0, 67, 85
2, 397852, Note_on_c, 0, 60, 73
2, 397852, Note_on_c, 0, 64, 68
2, 397884, Note_on_c, 0, 64, 0
2, 397920, Note_on_c, 0, 67, 0
2, 397936, Control_c, 0, 64, 56
2, 397952, Control_c, 0, 64, 88
2, 397964, Control_c, 0, 64, 104
2, 397976, Control_c, 0, 64, 127
2, 398040, Note_on_c, 0, 66, 82
2, 398056, Note_on_c, 0, 63, 66
2, 398092, Note_on_c, 0, 63, 0
2, 398120, Note_on_c, 0, 66, 0
2, 398248, Note_on_c, 0, 67, 82
2, 398260, Note_on_c, 0, 64, 68
2, 398292, Note_on_c, 0, 64, 0
2, 398328, Note_on_c, 0, 67, 0
2, 398392, Control_c, 0, 64, 88
2, 398408, Control_c, 0, 64, 40
2, 398420, Control_c, 0, 64, 0
2, 398424, Note_on_c, 0, 60, 0
2, 398440, Note_on_c, 0, 72, 87
2, 398448, Note_on_c, 0, 63, 66
2, 398448, Note_on_c, 0, 69, 75
2, 398452, Note_on_c, 0, 54, 75
2, 398500, Control_c, 0, 64, 24
2, 398516, Control_c, 0, 64, 56
2, 398528, Control_c, 0, 64, 88
2, 398544, Note_on_c, 0, 63, 0
2, 398544, Control_c, 0, 64, 127
2, 398564, Note_on_c, 0, 72, 0
2, 398580, Note_on_c, 0, 69, 0
2, 398608, Control_c, 0, 64, 72
2, 398620, Control_c, 0, 64, 40
2, 398632, Control_c, 0, 64, 0
2, 398636, Note_on_c, 0, 54, 0
2, 398664, Note_on_c, 0, 71, 83
2, 398664, Note_on_c, 0, 55, 69
2, 398664, Note_on_c, 0, 62, 67
2, 398664, Note_on_c, 0, 67, 70
2, 398760, Note_on_c, 0, 55, 0
2, 398768, Note_on_c, 0, 67, 0
2, 398768, Note_on_c, 0, 62, 0
2, 398768, Control_c, 0, 64, 56
2, 398780, Note_on_c, 0, 71, 0
2, 398780, Control_c, 0, 64, 104
2, 398796, Control_c, 0, 64, 127
2, 399052, Control_c, 0, 64, 40
2, 399064, Note_on_c, 0, 55, 81
2, 399064, Note_on_c, 0, 31, 64
2, 399064, Note_on_c, 0, 43, 61
2, 399064, Note_on_c, 0, 47, 68
2, 399064, Note_on_c, 0, 67, 77
2, 399064, Control_c, 0, 64, 0
2, 399128, Note_on_c, 0, 47, 0
2, 399148, Control_c, 0, 64, 24
2, 399160, Control_c, 0, 64, 56
2, 399172, Control_c, 0, 64, 72
2, 399188, Note_on_c, 0, 67, 0
2, 399188, Control_c, 0, 64, 88
2, 399200, Control_c, 0, 64, 104
2, 399220, Note_on_c, 0, 55, 0
2, 399252, Note_on_c, 0, 57, 79
2, 399252, Note_on_c, 0, 50, 74
2, 399252, Note_on_c, 0, 62, 69
2, 399376, Note_on_c, 0, 62, 0
2, 399388, Control_c, 0, 64, 88
2, 399392, Note_on_c, 0, 50, 0
2, 399412, Note_on_c, 0, 57, 0
2, 399456, Control_c, 0, 64, 72
2, 399464, Note_on_c, 0, 55, 73
2, 399464, Note_on_c, 0, 59, 82
2, 399464, Note_on_c, 0, 67, 74
2, 399464, Note_on_c, 0, 43, 73
2, 399464, Note_on_c, 0, 31, 74
2, 399468, Control_c, 0, 64, 56
2, 399484, Control_c, 0, 64, 24
2, 399496, Control_c, 0, 64, 0
2, 399588, Note_on_c, 0, 67, 0
2, 399588, Note_on_c, 0, 43, 0
2, 399588, Note_on_c, 0, 31, 0
2, 399608, Note_on_c, 0, 59, 0
2, 399616, Note_on_c, 0, 55, 0
2, 399628, Control_c, 0, 64, 24
2, 399640, Note_on_c, 0, 57, 75
2, 399640, Control_c, 0, 64, 72
2, 399656, Control_c, 0, 64, 104
2, 399660, Note_on_c, 0, 50, 73
2, 399668, Control_c, 0, 64, 127
2, 399732, Note_on_c, 0, 31, 0
2, 399792, Note_on_c, 0, 50, 0
2, 399796, Note_on_c, 0, 43, 0
2, 399804, Note_on_c, 0, 57, 0
2, 399836, Note_on_c, 0, 59, 81
2, 399848, Note_on_c, 0, 55, 68
2, 399872, Note_on_c, 0, 55, 0
2, 399888, Note_on_c, 0, 59, 0
2, 400040, Note_on_c, 0, 49, 65
2, 400040, Note_on_c, 0, 64, 83
2, 400040, Note_on_c, 0, 58, 76
2, 400040, Note_on_c, 0, 55, 79
2, 400092, Note_on_c, 0, 64, 0
2, 400144, Note_on_c, 0, 58, 0
2, 400188, Note_on_c, 0, 55, 0
2, 400228, Note_on_c, 0, 49, 0
2, 400252, Control_c, 0, 64, 0
2, 400256, Note_on_c, 0, 57, 81
2, 400256, Note_on_c, 0, 50, 70
2, 400256, Note_on_c, 0, 54, 71
2, 400272, Control_c, 0, 64, 88
2, 400288, Control_c, 0, 64, 40
2, 400300, Control_c, 0, 64, 0
2, 400420, Note_on_c, 0, 54, 0
2, 400436, Note_on_c, 0, 57, 0
2, 400436, Control_c, 0, 64, 40
2, 400448, Note_on_c, 0, 56, 78
2, 400448, Control_c, 0, 64, 88
2, 400464, Control_c, 0, 64, 127
2, 400468, Note_on_c, 0, 53, 72
2, 400584, Note_on_c, 0, 53, 0
2, 400604, Note_on_c, 0, 56, 0
2, 400644, Note_on_c, 0, 57, 81
2, 400644, Note_on_c, 0, 54, 68
2, 400660, Note_on_c, 0, 56, 51
2, 400684, Note_on_c, 0, 56, 0
2, 400692, Note_on_c, 0, 54, 0
2, 400700, Note_on_c, 0, 57, 0
2, 400784, Note_on_c, 0, 50, 0
2, 400808, Control_c, 0, 64, 72
2, 400820, Control_c, 0, 64, 0
2, 400836, Note_on_c, 0, 56, 72
2, 400840, Note_on_c, 0, 62, 84
2, 400844, Note_on_c, 0, 53, 76
2, 400844, Note_on_c, 0, 47, 71
2, 400892, Control_c, 0, 64, 24
2, 400904, Control_c, 0, 64, 56
2, 400912, Note_on_c, 0, 53, 0
2, 400916, Control_c, 0, 64, 88
2, 400920, Note_on_c, 0, 56, 0
2, 400932, Control_c, 0, 64, 127
2, 400984, Note_on_c, 0, 62, 0
2, 401000, Control_c, 0, 64, 40
2, 401012, Control_c, 0, 64, 0
2, 401028, Note_on_c, 0, 47, 0
2, 401040, Note_on_c, 0, 55, 88
2, 401040, Note_on_c, 0, 52, 70
2, 401040, Note_on_c, 0, 48, 80
2, 401076, Note_on_c, 0, 52, 0
2, 401092, Control_c, 0, 64, 24
2, 401104, Control_c, 0, 64, 88
2, 401112, Note_on_c, 0, 55, 0
2, 401120, Control_c, 0, 64, 127
2, 401220, Note_on_c, 0, 51, 70
2, 401220, Note_on_c, 0, 54, 74
2, 401308, Note_on_c, 0, 54, 0
2, 401316, Note_on_c, 0, 51, 0
2, 401420, Note_on_c, 0, 55, 87
2, 401428, Note_on_c, 0, 52, 73
2, 401452, Note_on_c, 0, 52, 0
2, 401508, Note_on_c, 0, 55, 0
2, 401568, Note_on_c, 0, 48, 0
2, 401576, Control_c, 0, 64, 104
2, 401588, Control_c, 0, 64, 72
2, 401604, Control_c, 0, 64, 0
2, 401616, Note_on_c, 0, 60, 83
2, 401620, Note_on_c, 0, 51, 69
2, 401620, Note_on_c, 0, 42, 63
2, 401628, Note_on_c, 0, 57, 69
2, 401696, Control_c, 0, 64, 24
2, 401712, Note_on_c, 0, 51, 0
2, 401712, Control_c, 0, 64, 72
2, 401724, Note_on_c, 0, 60, 0
2, 401724, Control_c, 0, 64, 88
2, 401736, Control_c, 0, 64, 104
2, 401752, Note_on_c, 0, 57, 0
2, 401800, Control_c, 0, 64, 56
2, 401816, Note_on_c, 0, 42, 0
2, 401816, Control_c, 0, 64, 40
2, 401828, Note_on_c, 0, 59, 78
2, 401828, Note_on_c, 0, 43, 71
2, 401828, Note_on_c, 0, 50, 68
2, 401828, Note_on_c, 0, 55, 66
2, 401832, Control_c, 0, 64, 0
2, 401976, Note_on_c, 0, 50, 0
2, 402008, Control_c, 0, 64, 56
2, 402020, Note_on_c, 0, 59, 0
2, 402020, Control_c, 0, 64, 88
2, 402032, Note_on_c, 0, 55, 0
2, 402032, Control_c, 0, 64, 127
2, 402060, Note_on_c, 0, 43, 0
2, 402232, Control_c, 0, 64, 56
2, 402240, Note_on_c, 0, 60, 80
2, 402240, Note_on_c, 0, 52, 71
2, 402248, Control_c, 0, 64, 0
2, 402252, Note_on_c, 0, 48, 66
2, 402264, Note_on_c, 0, 36, 67
2, 402264, Note_on_c, 0, 43, 63
2, 402296, Note_on_c, 0, 52, 0
2, 402328, Control_c, 0, 64, 40
2, 402344, Control_c, 0, 64, 88
2, 402356, Control_c, 0, 64, 104
2, 402368, Control_c, 0, 64, 127
2, 402400, Note_on_c, 0, 60, 0
2, 402420, Note_on_c, 0, 62, 83
2, 402420, Note_on_c, 0, 55, 76
2, 402560, Note_on_c, 0, 55, 0
2, 402576, Note_on_c, 0, 62, 0
2, 402620, Note_on_c, 0, 64, 83
2, 402620, Note_on_c, 0, 60, 73
2, 402624, Control_c, 0, 64, 72
2, 402640, Control_c, 0, 64, 0
2, 402732, Control_c, 0, 64, 56
2, 402744, Control_c, 0, 64, 104
2, 402756, Control_c, 0, 64, 127
2, 402768, Note_on_c, 0, 64, 0
2, 402780, Note_on_c, 0, 60, 0
2, 402812, Note_on_c, 0, 62, 76
2, 402844, Note_on_c, 0, 59, 67
2, 402888, Note_on_c, 0, 36, 0
2, 402912, Note_on_c, 0, 43, 0
2, 402960, Note_on_c, 0, 48, 0
2, 402964, Note_on_c, 0, 62, 0
2, 403004, Note_on_c, 0, 64, 75
2, 403004, Note_on_c, 0, 60, 68
2, 403012, Note_on_c, 0, 59, 0
2, 403032, Note_on_c, 0, 60, 0
2, 403036, Note_on_c, 0, 64, 0
2, 403192, Note_on_c, 0, 67, 85
2, 403192, Note_on_c, 0, 52, 76
2, 403192, Note_on_c, 0, 64, 73
2, 403236, Note_on_c, 0, 64, 0
2, 403240, Note_on_c, 0, 52, 0
2, 403316, Note_on_c, 0, 67, 0
2, 403404, Note_on_c, 0, 62, 84
2, 403404, Note_on_c, 0, 59, 67
2, 403404, Note_on_c, 0, 55, 73
2, 403428, Control_c, 0, 64, 72
2, 403444, Control_c, 0, 64, 0
2, 403552, Control_c, 0, 64, 56
2, 403564, Control_c, 0, 64, 88
2, 403576, Note_on_c, 0, 55, 0
2, 403580, Note_on_c, 0, 62, 0
2, 403580, Control_c, 0, 64, 127
2, 403584, Note_on_c, 0, 59, 0
2, 403596, Note_on_c, 0, 61, 79
2, 403596, Note_on_c, 0, 58, 64
2, 403596, Note_on_c, 0, 67, 68
2, 403720, Note_on_c, 0, 67, 0
2, 403744, Note_on_c, 0, 58, 0
2, 403748, Note_on_c, 0, 61, 0
2, 403792, Note_on_c, 0, 62, 82
2, 403792, Note_on_c, 0, 55, 67
2, 403792, Note_on_c, 0, 59, 66
2, 403844, Note_on_c, 0, 55, 0
2, 403860, Note_on_c, 0, 59, 0
2, 403936, Note_on_c, 0, 62, 0
2, 403948, Control_c, 0, 64, 72
2, 403968, Control_c, 0, 64, 24
2, 403976, Note_on_c, 0, 64, 88
2, 403976, Note_on_c, 0, 58, 68
2, 403976, Note_on_c, 0, 61, 73
2, 403976, Control_c, 0, 64, 0
2, 404020, Control_c, 0, 64, 24
2, 404032, Control_c, 0, 64, 56
2, 404048, Control_c, 0, 64, 88
2, 404060, Control_c, 0, 64, 127
2, 404120, Note_on_c, 0, 61, 0
2, 404120, Note_on_c, 0, 58, 0
2, 404140, Control_c, 0, 64, 104
2, 404152, Note_on_c, 0, 64, 0
2, 404152, Control_c, 0, 64, 40
2, 404168, Control_c, 0, 64, 0
2, 404172, Note_on_c, 0, 65, 83
2, 404184, Note_on_c, 0, 60, 72
2, 404192, Note_on_c, 0, 57, 66
2, 404264, Control_c, 0, 64, 24
2, 404276, Control_c, 0, 64, 56
2, 404288, Control_c, 0, 64, 88
2, 404304, Control_c, 0, 64, 127
2, 404324, Note_on_c, 0, 65, 0
2, 404336, Note_on_c, 0, 60, 0
2, 404360, Note_on_c, 0, 57, 0
2, 404364, Note_on_c, 0, 64, 82
2, 404368, Note_on_c, 0, 58, 67
2, 404368, Note_on_c, 0, 61, 65
2, 404492, Note_on_c, 0, 61, 0
2, 404520, Note_on_c, 0, 58, 0
2, 404524, Note_on_c, 0, 64, 0
2, 404552, Note_on_c, 0, 65, 81
2, 404552, Note_on_c, 0, 60, 72
2, 404552, Note_on_c, 0, 57, 75
2, 404552, Note_on_c, 0, 31, 72
2, 404592, Note_on_c, 0, 65, 0
2, 404596, Note_on_c, 0, 60, 0
2, 404596, Note_on_c, 0, 57, 0
2, 404744, Note_on_c, 0, 67, 88
2, 404748, Note_on_c, 0, 59, 61
2, 404756, Note_on_c, 0, 55, 64
2, 404804, Note_on_c, 0, 59, 0
2, 404860, Note_on_c, 0, 31, 0
2, 404860, Note_on_c, 0, 67, 0
2, 404872, Note_on_c, 0, 55, 0
2, 404908, Control_c, 0, 64, 88
2, 404916, Control_c, 0, 64, 40
2, 404932, Control_c, 0, 64, 0
2, 404948, Note_on_c, 0, 64, 83
2, 404956, Note_on_c, 0, 60, 79
2, 404976, Note_on_c, 0, 36, 74
2, 404976, Note_on_c, 0, 48, 68
2, 405028, Control_c, 0, 64, 24
2, 405040, Control_c, 0, 64, 88
2, 405052, Control_c, 0, 64, 127
2, 405084, Note_on_c, 0, 60, 0
2, 405096, Note_on_c, 0, 64, 0
2, 405132, Note_on_c, 0, 55, 68
2, 405136, Note_on_c, 0, 62, 83
2, 405196, Note_on_c, 0, 48, 0
2, 405208, Note_on_c, 0, 55, 0
2, 405256, Note_on_c, 0, 36, 0
2, 405292, Note_on_c, 0, 62, 0
2, 405332, Note_on_c, 0, 60, 83
2, 405332, Note_on_c, 0, 52, 63
2, 405332, Note_on_c, 0, 48, 64
2, 405332, Note_on_c, 0, 36, 68
2, 405332, Note_on_c, 0, 43, 65
2, 405464, Note_on_c, 0, 52, 0
2, 405468, Note_on_c, 0, 60, 0
2, 405484, Control_c, 0, 64, 72
2, 405500, Control_c, 0, 64, 24
2, 405508, Control_c, 0, 64, 0
2, 405520, Note_on_c, 0, 62, 84
2, 405536, Note_on_c, 0, 55, 71
2, 405564, Control_c, 0, 64, 40
2, 405576, Control_c, 0, 64, 72
2, 405592, Control_c, 0, 64, 127
2, 405680, Note_on_c, 0, 36, 0
2, 405680, Note_on_c, 0, 43, 0
2, 405680, Note_on_c, 0, 48, 0
2, 405688, Note_on_c, 0, 62, 0
2, 405688, Note_on_c, 0, 55, 0
2, 405700, Control_c, 0, 64, 88
2, 405712, Note_on_c, 0, 64, 87
2, 405712, Note_on_c, 0, 60, 77
2, 405712, Note_on_c, 0, 48, 69
2, 405716, Control_c, 0, 64, 56
2, 405752, Control_c, 0, 64, 104
2, 405768, Control_c, 0, 64, 127
2, 405848, Note_on_c, 0, 60, 0
2, 405880, Note_on_c, 0, 64, 0
2, 405896, Note_on_c, 0, 62, 81
2, 405904, Note_on_c, 0, 59, 63
2, 406032, Note_on_c, 0, 59, 0
2, 406056, Note_on_c, 0, 62, 0
2, 406088, Note_on_c, 0, 64, 81
2, 406096, Note_on_c, 0, 60, 75
2, 406176, Note_on_c, 0, 60, 0
2, 406240, Note_on_c, 0, 64, 0
2, 406248, Control_c, 0, 64, 88
2, 406264, Control_c, 0, 64, 40
2, 406272, Note_on_c, 0, 67, 86
2, 406272, Note_on_c, 0, 52, 73
2, 406272, Note_on_c, 0, 64, 68
2, 406276, Control_c, 0, 64, 0
2, 406316, Control_c, 0, 64, 40
2, 406328, Control_c, 0, 64, 72
2, 406344, Control_c, 0, 64, 104
2, 406356, Control_c, 0, 64, 127
2, 406384, Note_on_c, 0, 52, 0
2, 406404, Note_on_c, 0, 67, 0
2, 406444, Note_on_c, 0, 48, 0
2, 406452, Note_on_c, 0, 64, 0
2, 406464, Note_on_c, 0, 62, 84
2, 406464, Note_on_c, 0, 55, 71
2, 406464, Note_on_c, 0, 59, 68
2, 406464, Control_c, 0, 64, 72
2, 406480, Control_c, 0, 64, 0
2, 406544, Control_c, 0, 64, 56
2, 406560, Control_c, 0, 64, 88
2, 406572, Control_c, 0, 64, 127
2, 406600, Note_on_c, 0, 59, 0
2, 406604, Note_on_c, 0, 55, 0
2, 406624, Note_on_c, 0, 62, 0
2, 406644, Note_on_c, 0, 61, 83
2, 406644, Note_on_c, 0, 58, 66
2, 406644, Note_on_c, 0, 67, 68
2, 406736, Control_c, 0, 64, 88
2, 406748, Control_c, 0, 64, 56
2, 406760, Control_c, 0, 64, 40
2, 406780, Note_on_c, 0, 58, 0
2, 406792, Note_on_c, 0, 61, 0
2, 406796, Control_c, 0, 64, 72
2, 406812, Control_c, 0, 64, 88
2, 406828, Control_c, 0, 64, 104
2, 406832, Note_on_c, 0, 62, 79
2, 406832, Note_on_c, 0, 55, 68
2, 406832, Note_on_c, 0, 59, 65
2, 406840, Control_c, 0, 64, 127
2, 406884, Note_on_c, 0, 55, 0
2, 406920, Note_on_c, 0, 59, 0
2, 406932, Control_c, 0, 64, 88
2, 406948, Control_c, 0, 64, 40
2, 406960, Control_c, 0, 64, 0
2, 406980, Note_on_c, 0, 62, 0
2, 406992, Note_on_c, 0, 67, 0
2, 407016, Note_on_c, 0, 64, 88
2, 407016, Note_on_c, 0, 61, 73
2, 407016, Note_on_c, 0, 58, 72
2, 407056, Control_c, 0, 64, 40
2, 407068, Control_c, 0, 64, 72
2, 407084, Control_c, 0, 64, 104
2, 407096, Control_c, 0, 64, 127
2, 407148, Control_c, 0, 64, 72
2, 407164, Note_on_c, 0, 61, 0
2, 407164, Control_c, 0, 64, 40
2, 407176, Note_on_c, 0, 58, 0
2, 407176, Control_c, 0, 64, 0
2, 407188, Note_on_c, 0, 64, 0
2, 407196, Note_on_c, 0, 65, 84
2, 407196, Note_on_c, 0, 60, 75
2, 407196, Note_on_c, 0, 57, 69
2, 407256, Control_c, 0, 64, 40
2, 407268, Control_c, 0, 64, 88
2, 407284, Control_c, 0, 64, 127
2, 407336, Note_on_c, 0, 57, 0
2, 407344, Note_on_c, 0, 60, 0
2, 407344, Note_on_c, 0, 65, 0
2, 407388, Note_on_c, 0, 64, 79
2, 407392, Note_on_c, 0, 61, 67
2, 407392, Note_on_c, 0, 58, 70
2, 407528, Note_on_c, 0, 58, 0
2, 407528, Note_on_c, 0, 61, 0
2, 407552, Note_on_c, 0, 64, 0
2, 407572, Note_on_c, 0, 65, 83
2, 407572, Note_on_c, 0, 57, 73
2, 407572, Note_on_c, 0, 60, 71
2, 407572, Note_on_c, 0, 31, 72
2, 407628, Note_on_c, 0, 60, 0
2, 407628, Note_on_c, 0, 65, 0
2, 407628, Note_on_c, 0, 57, 0
2, 407748, Note_on_c, 0, 67, 87
2, 407760, Note_on_c, 0, 55, 67
2, 407760, Note_on_c, 0, 59, 67
2, 407816, Note_on_c, 0, 59, 0
2, 407856, Note_on_c, 0, 67, 0
2, 407868, Note_on_c, 0, 55, 0
2, 407912, Control_c, 0, 64, 104
2, 407920, Note_on_c, 0, 31, 0
2, 407928, Control_c, 0, 64, 56
2, 407944, Note_on_c, 0, 64, 85
2, 407944, Control_c, 0, 64, 0
2, 407948, Note_on_c, 0, 55, 67
2, 407952, Note_on_c, 0, 60, 75
2, 407960, Note_on_c, 0, 36, 69
2, 408024, Control_c, 0, 64, 24
2, 408036, Control_c, 0, 64, 72
2, 408048, Control_c, 0, 64, 127
2, 408080, Note_on_c, 0, 64, 0
2, 408092, Note_on_c, 0, 55, 0
2, 408092, Note_on_c, 0, 60, 0
2, 408120, Note_on_c, 0, 62, 88
2, 408208, Note_on_c, 0, 62, 0
2, 408212, Note_on_c, 0, 36, 0
2, 408292, Control_c, 0, 64, 72
2, 408300, Note_on_c, 0, 60, 98
2, 408304, Control_c, 0, 64, 24
2, 408312, Note_on_c, 0, 48, 89
2, 408312, Note_on_c, 0, 36, 83
2, 408320, Control_c, 0, 64, 0
2, 408348, Note_on_c, 0, 36, 0
2, 408352, Note_on_c, 0, 48, 0
2, 408400, Note_on_c, 0, 60, 0
2, 408492, Note_on_c, 0, 62, 95
2, 408496, Note_on_c, 0, 50, 91
2, 408504, Note_on_c, 0, 38, 78
2, 408528, Note_on_c, 0, 38, 0
2, 408544, Note_on_c, 0, 50, 0
2, 408624, Note_on_c, 0, 62, 0
2, 408680, Note_on_c, 0, 64, 99
2, 408688, Note_on_c, 0, 52, 92
2, 408692, Note_on_c, 0, 40, 88
2, 408720, Note_on_c, 0, 40, 0
2, 408736, Note_on_c, 0, 52, 0
2, 408744, Note_on_c, 0, 64, 0
2, 408852, Note_on_c, 0, 65, 96
2, 408868, Note_on_c, 0, 53, 88
2, 408876, Note_on_c, 0, 41, 88
2, 408900, Note_on_c, 0, 41, 0
2, 408916, Note_on_c, 0, 53, 0
2, 408972, Note_on_c, 0, 65, 0
2, 409028, Note_on_c, 0, 67, 97
2, 409044, Note_on_c, 0, 55, 93
2, 409048, Note_on_c, 0, 43, 91
2, 409072, Note_on_c, 0, 43, 0
2, 409092, Note_on_c, 0, 55, 0
2, 409156, Note_on_c, 0, 67, 0
2, 409196, Note_on_c, 0, 69, 88
2, 409212, Note_on_c, 0, 57, 80
2, 409228, Note_on_c, 0, 45, 72
2, 409236, Note_on_c, 0, 57, 0
2, 409252, Note_on_c, 0, 45, 0
2, 409264, Note_on_c, 0, 69, 0
2, 409340, Note_on_c, 0, 70, 76
2, 409384, Note_on_c, 0, 72, 88
2, 409396, Note_on_c, 0, 70, 0
2, 409420, Note_on_c, 0, 70, 89
2, 409420, Note_on_c, 0, 58, 83
2, 409420, Note_on_c, 0, 46, 83
2, 409468, Note_on_c, 0, 72, 0
2, 409504, Note_on_c, 0, 46, 0
2, 409504, Note_on_c, 0, 58, 0
2, 409532, Note_on_c, 0, 70, 0
2, 409580, Note_on_c, 0, 67, 100
2, 409596, Note_on_c, 0, 55, 93
2, 409600, Note_on_c, 0, 43, 84
2, 409632, Note_on_c, 0, 55, 0
2, 409636, Note_on_c, 0, 43, 0
2, 409740, Note_on_c, 0, 67, 0
2, 409760, Note_on_c, 0, 64, 99
2, 409780, Note_on_c, 0, 52, 87
2, 409788, Note_on_c, 0, 40, 84
2, 409812, Note_on_c, 0, 40, 0
2, 409828, Note_on_c, 0, 52, 0
2, 409864, Note_on_c, 0, 64, 0
2, 409940, Note_on_c, 0, 62, 100
2, 409952, Note_on_c, 0, 50, 93
2, 409960, Note_on_c, 0, 38, 91
2, 409992, Note_on_c, 0, 38, 0
2, 410000, Note_on_c, 0, 50, 0
2, 410112, Note_on_c, 0, 62, 0
2, 410132, Note_on_c, 0, 60, 100
2, 410136, Note_on_c, 0, 48, 100
2, 410144, Note_on_c, 0, 36, 94
2, 410188, Note_on_c, 0, 48, 0
2, 410192, Note_on_c, 0, 36, 0
2, 410232, Note_on_c, 0, 60, 0
2, 410312, Note_on_c, 0, 46, 106
2, 410312, Note_on_c, 0, 58, 93
2, 410316, Note_on_c, 0, 34, 97
2, 410360, Note_on_c, 0, 46, 0
2, 410364, Note_on_c, 0, 34, 0
2, 410436, Note_on_c, 0, 58, 0
2, 410504, Note_on_c, 0, 57, 108
2, 410504, Note_on_c, 0, 45, 106
2, 410508, Note_on_c, 0, 33, 94
2, 410548, Note_on_c, 0, 45, 0
2, 410560, Note_on_c, 0, 33, 0
2, 410596, Note_on_c, 0, 57, 0
2, 410684, Note_on_c, 0, 55, 109
2, 410688, Note_on_c, 0, 43, 103
2, 410696, Note_on_c, 0, 31, 98
2, 410736, Note_on_c, 0, 43, 0
2, 410748, Note_on_c, 0, 31, 0
2, 410792, Note_on_c, 0, 55, 0
2, 410884, Note_on_c, 0, 54, 111
2, 410884, Note_on_c, 0, 42, 93
2, 410884, Note_on_c, 0, 30, 93
2, 411048, Control_c, 0, 64, 88
2, 411056, Control_c, 0, 64, 40
2, 411064, Control_c, 0, 64, 0
2, 411080, Note_on_c, 0, 54, 0
2, 411088, Note_on_c, 0, 42, 0
2, 411100, Note_on_c, 0, 30, 0
2, 411272, Note_on_c, 0, 71, 100
2, 411272, Note_on_c, 0, 62, 84
2, 411280, Note_on_c, 0, 66, 90
2, 411284, Note_on_c, 0, 54, 87
2, 411320, Note_on_c, 0, 62, 0
2, 411320, Control_c, 0, 64, 24
2, 411336, Note_on_c, 0, 66, 0
2, 411344, Note_on_c, 0, 54, 0
2, 411368, Control_c, 0, 64, 0
2, 411388, Note_on_c, 0, 71, 0
2, 411464, Note_on_c, 0, 66, 95
2, 411468, Note_on_c, 0, 73, 99
2, 411468, Control_c, 0, 64, 24
2, 411480, Note_on_c, 0, 54, 87
2, 411480, Control_c, 0, 64, 40
2, 411492, Control_c, 0, 64, 56
2, 411536, Note_on_c, 0, 54, 0
2, 411544, Control_c, 0, 64, 24
2, 411552, Note_on_c, 0, 66, 0
2, 411556, Control_c, 0, 64, 0
2, 411592, Note_on_c, 0, 73, 0
2, 411668, Note_on_c, 0, 74, 98
2, 411668, Note_on_c, 0, 71, 98
2, 411676, Note_on_c, 0, 66, 90
2, 411688, Note_on_c, 0, 54, 87
2, 411696, Control_c, 0, 64, 72
2, 411708, Control_c, 0, 64, 127
2, 411784, Note_on_c, 0, 74, 0
2, 411788, Note_on_c, 0, 71, 0
2, 411852, Note_on_c, 0, 73, 93
2, 411860, Note_on_c, 0, 70, 85
2, 411904, Note_on_c, 0, 70, 0
2, 411912, Note_on_c, 0, 54, 0
2, 411916, Note_on_c, 0, 66, 0
2, 411960, Note_on_c, 0, 73, 0
2, 411972, Control_c, 0, 64, 104
2, 411984, Control_c, 0, 64, 72
2, 411996, Control_c, 0, 64, 40
2, 412008, Control_c, 0, 64, 0
2, 412032, Note_on_c, 0, 74, 98
2, 412036, Note_on_c, 0, 71, 85
2, 412052, Note_on_c, 0, 66, 90
2, 412056, Note_on_c, 0, 54, 87
2, 412100, Note_on_c, 0, 71, 0
2, 412104, Note_on_c, 0, 54, 0
2, 412108, Note_on_c, 0, 66, 0
2, 412124, Note_on_c, 0, 74, 0
2, 412220, Note_on_c, 0, 74, 97
2, 412228, Note_on_c, 0, 78, 92
2, 412236, Note_on_c, 0, 66, 89
2, 412236, Note_on_c, 0, 71, 80
2, 412240, Note_on_c, 0, 54, 88
2, 412260, Note_on_c, 0, 71, 0
2, 412288, Note_on_c, 0, 66, 0
2, 412288, Note_on_c, 0, 54, 0
2, 412288, Note_on_c, 0, 74, 0
2, 412320, Note_on_c, 0, 78, 0
2, 412424, Note_on_c, 0, 73, 97
2, 412432, Note_on_c, 0, 70, 83
2, 412444, Note_on_c, 0, 66, 88
2, 412444, Control_c, 0, 64, 72
2, 412452, Note_on_c, 0, 54, 85
2, 412456, Control_c, 0, 64, 127
2, 412528, Note_on_c, 0, 70, 0
2, 412580, Note_on_c, 0, 73, 0
2, 412608, Note_on_c, 0, 71, 98
2, 412612, Note_on_c, 0, 68, 78
2, 412648, Note_on_c, 0, 54, 0
2, 412648, Control_c, 0, 64, 72
2, 412656, Note_on_c, 0, 66, 0
2, 412656, Note_on_c, 0, 68, 0
2, 412660, Control_c, 0, 64, 40
2, 412672, Control_c, 0, 64, 0
2, 412716, Note_on_c, 0, 71, 0
2, 412780, Note_on_c, 0, 73, 89
2, 412784, Note_on_c, 0, 70, 82
2, 412792, Note_on_c, 0, 66, 88
2, 412800, Note_on_c, 0, 54, 85
2, 412844, Note_on_c, 0, 54, 0
2, 412844, Note_on_c, 0, 66, 0
2, 412848, Note_on_c, 0, 70, 0
2, 412884, Note_on_c, 0, 73, 0
2, 412960, Note_on_c, 0, 74, 99
2, 412976, Note_on_c, 0, 71, 90
2, 412976, Note_on_c, 0, 66, 88
2, 412980, Note_on_c, 0, 54, 85
2, 413024, Note_on_c, 0, 54, 0
2, 413024, Note_on_c, 0, 66, 0
2, 413040, Note_on_c, 0, 71, 0
2, 413068, Note_on_c, 0, 74, 0
2, 413144, Note_on_c, 0, 73, 95
2, 413152, Note_on_c, 0, 76, 98
2, 413164, Note_on_c, 0, 66, 87
2, 413172, Note_on_c, 0, 54, 83
2, 413172, Control_c, 0, 64, 88
2, 413184, Control_c, 0, 64, 127
2, 413244, Note_on_c, 0, 76, 0
2, 413284, Note_on_c, 0, 73, 0
2, 413332, Note_on_c, 0, 74, 98
2, 413344, Note_on_c, 0, 71, 89
2, 413392, Note_on_c, 0, 54, 0
2, 413400, Note_on_c, 0, 66, 0
2, 413428, Note_on_c, 0, 71, 0
2, 413436, Note_on_c, 0, 74, 0
2, 413512, Note_on_c, 0, 76, 99
2, 413512, Note_on_c, 0, 73, 88
2, 413512, Control_c, 0, 64, 88
2, 413520, Note_on_c, 0, 66, 82
2, 413524, Note_on_c, 0, 54, 78
2, 413524, Control_c, 0, 64, 56
2, 413536, Control_c, 0, 64, 24
2, 413548, Control_c, 0, 64, 0
2, 413572, Note_on_c, 0, 76, 0
2, 413576, Note_on_c, 0, 54, 0
2, 413576, Note_on_c, 0, 66, 0
2, 413608, Note_on_c, 0, 73, 0
2, 413684, Note_on_c, 0, 78, 94
2, 413688, Note_on_c, 0, 70, 93
2, 413700, Note_on_c, 0, 54, 82
2, 413700, Note_on_c, 0, 66, 82
2, 413736, Note_on_c, 0, 78, 0
2, 413744, Note_on_c, 0, 70, 0
2, 413760, Note_on_c, 0, 54, 0
2, 413768, Note_on_c, 0, 66, 0
2, 413868, Note_on_c, 0, 74, 98
2, 413872, Note_on_c, 0, 71, 94
2, 413872, Note_on_c, 0, 66, 82
2, 413872, Control_c, 0, 64, 24
2, 413884, Note_on_c, 0, 59, 79
2, 413884, Control_c, 0, 64, 88
2, 413900, Control_c, 0, 64, 127
2, 413944, Note_on_c, 0, 59, 0
2, 413944, Note_on_c, 0, 66, 0
2, 413952, Note_on_c, 0, 74, 0
2, 414004, Note_on_c, 0, 71, 0
2, 414056, Note_on_c, 0, 73, 98
2, 414060, Note_on_c, 0, 66, 83
2, 414112, Note_on_c, 0, 66, 0
2, 414156, Note_on_c, 0, 73, 0
2, 414188, Control_c, 0, 64, 104
2, 414200, Control_c, 0, 64, 88
2, 414212, Control_c, 0, 64, 56
2, 414228, Control_c, 0, 64, 24
2, 414232, Note_on_c, 0, 71, 98
2, 414240, Note_on_c, 0, 70, 67
2, 414240, Control_c, 0, 64, 0
2, 414248, Note_on_c, 0, 62, 76
2, 414248, Note_on_c, 0, 60, 63
2, 414256, Note_on_c, 0, 66, 84
2, 414260, Note_on_c, 0, 54, 85
2, 414272, Note_on_c, 0, 60, 0
2, 414272, Note_on_c, 0, 62, 0
2, 414292, Note_on_c, 0, 70, 0
2, 414304, Note_on_c, 0, 54, 0
2, 414304, Note_on_c, 0, 66, 0
2, 414340, Note_on_c, 0, 71, 0
2, 414424, Note_on_c, 0, 66, 94
2, 414424, Note_on_c, 0, 73, 103
2, 414440, Note_on_c, 0, 54, 78
2, 414488, Note_on_c, 0, 54, 0
2, 414488, Note_on_c, 0, 66, 0
2, 414520, Note_on_c, 0, 73, 0
2, 414612, Note_on_c, 0, 74, 99
2, 414620, Note_on_c, 0, 71, 97
2, 414624, Control_c, 0, 64, 24
2, 414628, Note_on_c, 0, 66, 85
2, 414632, Note_on_c, 0, 54, 83
2, 414640, Control_c, 0, 64, 88
2, 414652, Control_c, 0, 64, 127
2, 414724, Note_on_c, 0, 71, 0
2, 414744, Note_on_c, 0, 74, 0
2, 414788, Note_on_c, 0, 73, 90
2, 414796, Note_on_c, 0, 70, 83
2, 414840, Note_on_c, 0, 54, 0
2, 414848, Note_on_c, 0, 66, 0
2, 414848, Note_on_c, 0, 70, 0
2, 414888, Control_c, 0, 64, 88
2, 414896, Note_on_c, 0, 73, 0
2, 414900, Control_c, 0, 64, 72
2, 414916, Control_c, 0, 64, 56
2, 414928, Control_c, 0, 64, 40
2, 414940, Control_c, 0, 64, 24
2, 414952, Control_c, 0, 64, 0
2, 414972, Note_on_c, 0, 71, 93
2, 414972, Note_on_c, 0, 74, 94
2, 414976, Note_on_c, 0, 66, 85
2, 414984, Note_on_c, 0, 54, 83
2, 415020, Note_on_c, 0, 71, 0
2, 415032, Note_on_c, 0, 54, 0
2, 415032, Note_on_c, 0, 66, 0
2, 415036, Note_on_c, 0, 74, 0
2, 415152, Note_on_c, 0, 74, 99
2, 415152, Note_on_c, 0, 78, 95
2, 415156, Note_on_c, 0, 66, 85
2, 415164, Note_on_c, 0, 54, 83
2, 415212, Note_on_c, 0, 54, 0
2, 415212, Note_on_c, 0, 66, 0
2, 415220, Note_on_c, 0, 74, 0
2, 415244, Note_on_c, 0, 78, 0
2, 415348, Note_on_c, 0, 73, 96
2, 415348, Note_on_c, 0, 70, 85
2, 415352, Control_c, 0, 64, 40
2, 415360, Note_on_c, 0, 66, 83
2, 415364, Control_c, 0, 64, 127
2, 415372, Note_on_c, 0, 54, 82
2, 415424, Note_on_c, 0, 70, 0
2, 415488, Note_on_c, 0, 73, 0
2, 415524, Note_on_c, 0, 68, 69
2, 415524, Note_on_c, 0, 71, 93
2, 415568, Note_on_c, 0, 54, 0
2, 415576, Note_on_c, 0, 66, 0
2, 415576, Note_on_c, 0, 68, 0
2, 415604, Control_c, 0, 64, 88
2, 415616, Control_c, 0, 64, 72
2, 415628, Note_on_c, 0, 71, 0
2, 415628, Control_c, 0, 64, 56
2, 415640, Control_c, 0, 64, 40
2, 415652, Control_c, 0, 64, 24
2, 415668, Control_c, 0, 64, 0
2, 415696, Note_on_c, 0, 73, 89
2, 415704, Note_on_c, 0, 70, 74
2, 415708, Note_on_c, 0, 66, 83
2, 415716, Note_on_c, 0, 54, 82
2, 415760, Note_on_c, 0, 70, 0
2, 415764, Note_on_c, 0, 54, 0
2, 415764, Note_on_c, 0, 66, 0
2, 415796, Note_on_c, 0, 73, 0
2, 415884, Note_on_c, 0, 74, 95
2, 415892, Note_on_c, 0, 71, 93
2, 415896, Note_on_c, 0, 66, 82
2, 415904, Note_on_c, 0, 54, 80
2, 415952, Note_on_c, 0, 66, 0
2, 415952, Note_on_c, 0, 71, 0
2, 415956, Note_on_c, 0, 54, 0
2, 415984, Note_on_c, 0, 74, 0
2, 416064, Note_on_c, 0, 73, 96
2, 416068, Note_on_c, 0, 76, 98
2, 416080, Note_on_c, 0, 66, 85
2, 416080, Control_c, 0, 64, 56
2, 416088, Note_on_c, 0, 54, 80
2, 416092, Control_c, 0, 64, 127
2, 416152, Note_on_c, 0, 76, 0
2, 416192, Note_on_c, 0, 73, 0
2, 416244, Note_on_c, 0, 74, 95
2, 416256, Note_on_c, 0, 71, 86
2, 416304, Note_on_c, 0, 54, 0
2, 416304, Control_c, 0, 64, 104
2, 416308, Note_on_c, 0, 66, 0
2, 416316, Control_c, 0, 64, 88
2, 416332, Control_c, 0, 64, 56
2, 416340, Control_c, 0, 64, 40
2, 416344, Note_on_c, 0, 71, 0
2, 416352, Control_c, 0, 64, 24
2, 416360, Note_on_c, 0, 74, 0
2, 416380, Control_c, 0, 64, 0
2, 416424, Note_on_c, 0, 73, 85
2, 416428, Note_on_c, 0, 76, 93
2, 416440, Note_on_c, 0, 66, 87
2, 416444, Note_on_c, 0, 54, 88
2, 416484, Note_on_c, 0, 76, 0
2, 416500, Note_on_c, 0, 54, 0
2, 416500, Note_on_c, 0, 66, 0
2, 416544, Note_on_c, 0, 73, 0
2, 416608, Note_on_c, 0, 78, 96
2, 416616, Note_on_c, 0, 70, 90
2, 416620, Note_on_c, 0, 66, 82
2, 416624, Note_on_c, 0, 54, 79
2, 416688, Note_on_c, 0, 70, 0
2, 416692, Note_on_c, 0, 78, 0
2, 416704, Note_on_c, 0, 66, 0
2, 416704, Note_on_c, 0, 54, 0
2, 416812, Note_on_c, 0, 74, 104
2, 416820, Note_on_c, 0, 71, 97
2, 416820, Note_on_c, 0, 66, 85
2, 416832, Note_on_c, 0, 59, 83
2, 416832, Control_c, 0, 64, 40
2, 416844, Control_c, 0, 64, 127
2, 416880, Note_on_c, 0, 66, 0
2, 416880, Note_on_c, 0, 71, 0
2, 416896, Note_on_c, 0, 59, 0
2, 416904, Note_on_c, 0, 74, 0
2, 417056, Control_c, 0, 64, 88
2, 417068, Control_c, 0, 64, 56
2, 417080, Control_c, 0, 64, 24
2, 417092, Control_c, 0, 64, 0
2, 417204, Note_on_c, 0, 64, 107
2, 417204, Note_on_c, 0, 80, 84
2, 417204, Note_on_c, 0, 92, 93
2, 417204, Note_on_c, 0, 88, 86
2, 417204, Note_on_c, 0, 86, 86
2, 417204, Note_on_c, 0, 83, 86
2, 417208, Note_on_c, 0, 52, 96
2, 417208, Note_on_c, 0, 40, 88
2, 417248, Note_on_c, 0, 52, 0
2, 417252, Note_on_c, 0, 40, 0
2, 417284, Note_on_c, 0, 64, 0
2, 417392, Note_on_c, 0, 42, 93
2, 417392, Note_on_c, 0, 54, 96
2, 417392, Note_on_c, 0, 66, 99
2, 417432, Note_on_c, 0, 54, 0
2, 417436, Note_on_c, 0, 42, 0
2, 417512, Note_on_c, 0, 66, 0
2, 417572, Note_on_c, 0, 68, 97
2, 417576, Note_on_c, 0, 56, 92
2, 417580, Note_on_c, 0, 44, 89
2, 417628, Note_on_c, 0, 44, 0
2, 417648, Note_on_c, 0, 68, 0
2, 417660, Note_on_c, 0, 56, 0
2, 417752, Note_on_c, 0, 69, 99
2, 417760, Note_on_c, 0, 57, 87
2, 417764, Note_on_c, 0, 45, 93
2, 417808, Note_on_c, 0, 45, 0
2, 417808, Note_on_c, 0, 57, 0
2, 417856, Note_on_c, 0, 69, 0
2, 417932, Note_on_c, 0, 71, 100
2, 417932, Note_on_c, 0, 59, 87
2, 417940, Note_on_c, 0, 47, 87
2, 417984, Note_on_c, 0, 47, 0
2, 417984, Note_on_c, 0, 59, 0
2, 418060, Note_on_c, 0, 71, 0
2, 418092, Note_on_c, 0, 61, 88
2, 418096, Note_on_c, 0, 73, 95
2, 418100, Note_on_c, 0, 49, 88
2, 418132, Note_on_c, 0, 49, 0
2, 418152, Note_on_c, 0, 61, 0
2, 418168, Note_on_c, 0, 73, 0
2, 418216, Note_on_c, 0, 74, 99
2, 418228, Note_on_c, 0, 83, 0
2, 418228, Note_on_c, 0, 92, 0
2, 418228, Note_on_c, 0, 88, 0
2, 418228, Note_on_c, 0, 80, 0
2, 418228, Note_on_c, 0, 86, 0
2, 418264, Note_on_c, 0, 74, 0
2, 418276, Note_on_c, 0, 76, 91
2, 418280, Note_on_c, 0, 62, 90
2, 418284, Note_on_c, 0, 50, 89
2, 418300, Note_on_c, 0, 74, 98
2, 418328, Note_on_c, 0, 62, 0
2, 418336, Note_on_c, 0, 50, 0
2, 418344, Note_on_c, 0, 76, 0
2, 418480, Note_on_c, 0, 74, 0
2, 418484, Note_on_c, 0, 71, 98
2, 418488, Note_on_c, 0, 47, 81
2, 418488, Note_on_c, 0, 59, 77
2, 418536, Note_on_c, 0, 47, 0
2, 418540, Note_on_c, 0, 59, 0
2, 418564, Note_on_c, 0, 71, 0
2, 418656, Note_on_c, 0, 68, 97
2, 418660, Note_on_c, 0, 56, 87
2, 418664, Note_on_c, 0, 44, 78
2, 418712, Note_on_c, 0, 56, 0
2, 418728, Note_on_c, 0, 44, 0
2, 418740, Note_on_c, 0, 68, 0
2, 418832, Note_on_c, 0, 65, 104
2, 418836, Note_on_c, 0, 53, 90
2, 418840, Note_on_c, 0, 41, 84
2, 418888, Note_on_c, 0, 53, 0
2, 418896, Note_on_c, 0, 41, 0
2, 418940, Note_on_c, 0, 65, 0
2, 419020, Note_on_c, 0, 64, 98
2, 419024, Note_on_c, 0, 52, 93
2, 419028, Note_on_c, 0, 40, 89
2, 419068, Note_on_c, 0, 52, 0
2, 419076, Note_on_c, 0, 40, 0
2, 419168, Note_on_c, 0, 64, 0
2, 419208, Note_on_c, 0, 62, 101
2, 419212, Note_on_c, 0, 50, 99
2, 419220, Note_on_c, 0, 38, 95
2, 419264, Note_on_c, 0, 50, 0
2, 419268, Note_on_c, 0, 38, 0
2, 419320, Note_on_c, 0, 62, 0
2, 419400, Note_on_c, 0, 60, 112
2, 419412, Note_on_c, 0, 48, 100
2, 419416, Note_on_c, 0, 36, 94
2, 419456, Note_on_c, 0, 48, 0
2, 419460, Note_on_c, 0, 36, 0
2, 419512, Note_on_c, 0, 60, 0
2, 419596, Note_on_c, 0, 59, 104
2, 419596, Note_on_c, 0, 47, 100
2, 419600, Note_on_c, 0, 35, 93
2, 419652, Note_on_c, 0, 47, 0
2, 419668, Note_on_c, 0, 35, 0
2, 419748, Note_on_c, 0, 59, 0
2, 419820, Note_on_c, 0, 57, 101
2, 419836, Note_on_c, 0, 45, 87
2, 419844, Note_on_c, 0, 33, 68
2, 419876, Control_c, 0, 64, 72
2, 419884, Note_on_c, 0, 33, 0
2, 419884, Control_c, 0, 64, 127
2, 419908, Note_on_c, 0, 57, 0
2, 419912, Note_on_c, 0, 45, 0
2, 420200, Note_on_c, 0, 76, 96
2, 420212, Note_on_c, 0, 64, 65
2, 420212, Control_c, 0, 64, 72
2, 420216, Note_on_c, 0, 72, 77
2, 420220, Note_on_c, 0, 57, 57
2, 420224, Control_c, 0, 64, 0
2, 420228, Note_on_c, 0, 60, 63
2, 420248, Control_c, 0, 64, 24
2, 420264, Control_c, 0, 64, 72
2, 420276, Control_c, 0, 64, 127
2, 420284, Note_on_c, 0, 60, 0
2, 420292, Note_on_c, 0, 64, 0
2, 420292, Note_on_c, 0, 57, 0
2, 420304, Note_on_c, 0, 72, 0
2, 420380, Note_on_c, 0, 76, 0
2, 420420, Note_on_c, 0, 77, 108
2, 420440, Note_on_c, 0, 64, 65
2, 420440, Control_c, 0, 64, 40
2, 420444, Note_on_c, 0, 72, 78
2, 420452, Note_on_c, 0, 57, 56
2, 420452, Control_c, 0, 64, 0
2, 420456, Note_on_c, 0, 60, 50
2, 420464, Control_c, 0, 64, 40
2, 420468, Note_on_c, 0, 72, 0
2, 420476, Control_c, 0, 64, 88
2, 420484, Control_c, 0, 64, 127
2, 420504, Note_on_c, 0, 64, 0
2, 420524, Note_on_c, 0, 77, 0
2, 420528, Note_on_c, 0, 60, 0
2, 420532, Note_on_c, 0, 57, 0
2, 420652, Note_on_c, 0, 77, 103
2, 420676, Note_on_c, 0, 65, 68
2, 420676, Note_on_c, 0, 72, 63
2, 420680, Note_on_c, 0, 57, 64
2, 420680, Note_on_c, 0, 45, 76
2, 420684, Note_on_c, 0, 60, 63
2, 420700, Control_c, 0, 64, 88
2, 420716, Control_c, 0, 64, 0
2, 420764, Control_c, 0, 64, 24
2, 420772, Control_c, 0, 64, 127
2, 420792, Note_on_c, 0, 57, 0
2, 420824, Note_on_c, 0, 60, 0
2, 420828, Note_on_c, 0, 65, 0
2, 420832, Note_on_c, 0, 72, 0
2, 420840, Note_on_c, 0, 77, 0
2, 420864, Note_on_c, 0, 84, 107
2, 420936, Note_on_c, 0, 45, 0
2, 420960, Note_on_c, 0, 84, 0
2, 421064, Note_on_c, 0, 84, 106
2, 421064, Note_on_c, 0, 65, 71
2, 421072, Note_on_c, 0, 72, 88
2, 421076, Note_on_c, 0, 60, 64
2, 421080, Note_on_c, 0, 57, 63
2, 421112, Note_on_c, 0, 60, 0
2, 421120, Note_on_c, 0, 72, 0
2, 421124, Note_on_c, 0, 57, 0
2, 421124, Note_on_c, 0, 65, 0
2, 421160, Note_on_c, 0, 84, 0
2, 421244, Note_on_c, 0, 82, 99
2, 421252, Note_on_c, 0, 65, 69
2, 421260, Note_on_c, 0, 72, 88
2, 421264, Note_on_c, 0, 57, 65
2, 421272, Note_on_c, 0, 60, 62
2, 421284, Note_on_c, 0, 72, 0
2, 421308, Note_on_c, 0, 60, 0
2, 421312, Note_on_c, 0, 57, 0
2, 421320, Note_on_c, 0, 65, 0
2, 421336, Note_on_c, 0, 82, 0
2, 421436, Note_on_c, 0, 82, 99
2, 421444, Note_on_c, 0, 65, 71
2, 421452, Note_on_c, 0, 60, 64
2, 421452, Note_on_c, 0, 72, 88
2, 421468, Note_on_c, 0, 57, 63
2, 421556, Note_on_c, 0, 82, 0
2, 421560, Note_on_c, 0, 72, 0
2, 421576, Note_on_c, 0, 57, 0
2, 421592, Note_on_c, 0, 60, 0
2, 421596, Note_on_c, 0, 65, 0
2, 421608, Note_on_c, 0, 81, 100
2, 421688, Note_on_c, 0, 81, 0
2, 421796, Note_on_c, 0, 81, 98
2, 421804, Note_on_c, 0, 69, 81
2, 421804, Control_c, 0, 64, 56
2, 421808, Note_on_c, 0, 72, 72
2, 421816, Control_c, 0, 64, 0
2, 421820, Note_on_c, 0, 57, 64
2, 421828, Note_on_c, 0, 60, 66
2, 421868, Control_c, 0, 64, 56
2, 421876, Note_on_c, 0, 60, 0
2, 421880, Note_on_c, 0, 69, 0
2, 421880, Note_on_c, 0, 57, 0
2, 421880, Control_c, 0, 64, 127
2, 421904, Note_on_c, 0, 72, 0
2, 421908, Note_on_c, 0, 81, 0
2, 421980, Note_on_c, 0, 79, 100
2, 422000, Note_on_c, 0, 67, 78
2, 422000, Note_on_c, 0, 72, 74
2, 422012, Note_on_c, 0, 60, 68
2, 422020, Note_on_c, 0, 57, 66
2, 422028, Note_on_c, 0, 72, 0
2, 422060, Note_on_c, 0, 60, 0
2, 422064, Note_on_c, 0, 67, 0
2, 422068, Note_on_c, 0, 57, 0
2, 422076, Note_on_c, 0, 79, 0
2, 422168, Note_on_c, 0, 79, 96
2, 422180, Note_on_c, 0, 72, 84
2, 422188, Note_on_c, 0, 67, 79
2, 422196, Note_on_c, 0, 57, 60
2, 422196, Note_on_c, 0, 60, 65
2, 422204, Control_c, 0, 64, 72
2, 422216, Control_c, 0, 64, 24
2, 422228, Control_c, 0, 64, 0
2, 422240, Control_c, 0, 64, 40
2, 422256, Control_c, 0, 64, 88
2, 422268, Control_c, 0, 64, 127
2, 422284, Note_on_c, 0, 67, 0
2, 422312, Note_on_c, 0, 57, 0
2, 422316, Note_on_c, 0, 79, 0
2, 422348, Note_on_c, 0, 72, 0
2, 422348, Note_on_c, 0, 60, 0
2, 422352, Note_on_c, 0, 77, 94
2, 422372, Note_on_c, 0, 65, 75
2, 422424, Note_on_c, 0, 65, 0
2, 422432, Note_on_c, 0, 77, 0
2, 422544, Note_on_c, 0, 77, 98
2, 422544, Control_c, 0, 64, 72
2, 422552, Note_on_c, 0, 72, 85
2, 422556, Note_on_c, 0, 65, 81
2, 422568, Note_on_c, 0, 60, 67
2, 422568, Note_on_c, 0, 57, 66
2, 422568, Control_c, 0, 64, 88
2, 422580, Control_c, 0, 64, 104
2, 422592, Control_c, 0, 64, 127
2, 422624, Note_on_c, 0, 65, 0
2, 422636, Note_on_c, 0, 72, 0
2, 422640, Note_on_c, 0, 57, 0
2, 422656, Note_on_c, 0, 60, 0
2, 422680, Note_on_c, 0, 77, 0
2, 422728, Note_on_c, 0, 76, 97
2, 422728, Note_on_c, 0, 64, 79
2, 422732, Note_on_c, 0, 72, 82
2, 422740, Note_on_c, 0, 57, 64
2, 422740, Note_on_c, 0, 60, 61
2, 422780, Note_on_c, 0, 57, 0
2, 422784, Note_on_c, 0, 72, 0
2, 422784, Note_on_c, 0, 60, 0
2, 422788, Note_on_c, 0, 64, 0
2, 422812, Note_on_c, 0, 76, 0
2, 422892, Control_c, 0, 64, 72
2, 422904, Note_on_c, 0, 76, 96
2, 422904, Control_c, 0, 64, 24
2, 422908, Note_on_c, 0, 64, 82
2, 422912, Note_on_c, 0, 57, 74
2, 422916, Note_on_c, 0, 72, 79
2, 422916, Control_c, 0, 64, 0
2, 422928, Note_on_c, 0, 60, 68
2, 422944, Control_c, 0, 64, 40
2, 422956, Control_c, 0, 64, 72
2, 422968, Control_c, 0, 64, 127
2, 423060, Note_on_c, 0, 72, 0
2, 423060, Note_on_c, 0, 64, 0
2, 423080, Note_on_c, 0, 76, 0
2, 423092, Note_on_c, 0, 75, 93
2, 423100, Note_on_c, 0, 60, 0
2, 423108, Note_on_c, 0, 63, 68
2, 423128, Note_on_c, 0, 57, 0
2, 423172, Note_on_c, 0, 63, 0
2, 423180, Note_on_c, 0, 75, 0
2, 423256, Control_c, 0, 64, 88
2, 423272, Control_c, 0, 64, 24
2, 423280, Note_on_c, 0, 75, 96
2, 423284, Control_c, 0, 64, 0
2, 423288, Note_on_c, 0, 63, 65
2, 423292, Note_on_c, 0, 71, 73
2, 423300, Note_on_c, 0, 55, 71
2, 423308, Control_c, 0, 64, 40
2, 423312, Note_on_c, 0, 59, 61
2, 423320, Control_c, 0, 64, 88
2, 423332, Control_c, 0, 64, 127
2, 423364, Note_on_c, 0, 59, 0
2, 423364, Note_on_c, 0, 63, 0
2, 423380, Note_on_c, 0, 75, 0
2, 423380, Note_on_c, 0, 71, 0
2, 423380, Note_on_c, 0, 55, 0
2, 423472, Note_on_c, 0, 76, 96
2, 423472, Note_on_c, 0, 55, 66
2, 423472, Note_on_c, 0, 59, 63
2, 423472, Note_on_c, 0, 64, 78
2, 423472, Note_on_c, 0, 71, 83
2, 423508, Note_on_c, 0, 55, 0
2, 423524, Note_on_c, 0, 59, 0
2, 423540, Note_on_c, 0, 64, 0
2, 423548, Note_on_c, 0, 71, 0
2, 423564, Note_on_c, 0, 76, 0
2, 423696, Note_on_c, 0, 64, 71
2, 423696, Note_on_c, 0, 43, 78
2, 423696, Note_on_c, 0, 55, 76
2, 423700, Note_on_c, 0, 59, 67
2, 423736, Note_on_c, 0, 76, 97
2, 423740, Note_on_c, 0, 71, 82
2, 423756, Control_c, 0, 64, 56
2, 423768, Control_c, 0, 64, 24
2, 423780, Control_c, 0, 64, 56
2, 423788, Note_on_c, 0, 59, 0
2, 423796, Note_on_c, 0, 71, 0
2, 423796, Control_c, 0, 64, 88
2, 423808, Control_c, 0, 64, 127
2, 423812, Note_on_c, 0, 64, 0
2, 423836, Note_on_c, 0, 76, 0
2, 423920, Note_on_c, 0, 55, 0
2, 423928, Note_on_c, 0, 71, 93
2, 423984, Note_on_c, 0, 71, 0
2, 424056, Note_on_c, 0, 43, 0
2, 424112, Note_on_c, 0, 71, 93
2, 424192, Note_on_c, 0, 71, 0
2, 424288, Note_on_c, 0, 71, 77
2, 424296, Note_on_c, 0, 69, 94
2, 424360, Note_on_c, 0, 69, 0
2, 424372, Note_on_c, 0, 71, 0
2, 424476, Note_on_c, 0, 71, 82
2, 424476, Note_on_c, 0, 69, 95
2, 424580, Note_on_c, 0, 71, 0
2, 424596, Note_on_c, 0, 69, 0
2, 424660, Note_on_c, 0, 83, 94
2, 424664, Note_on_c, 0, 67, 83
2, 424668, Note_on_c, 0, 71, 79
2, 424724, Note_on_c, 0, 71, 0
2, 424724, Note_on_c, 0, 67, 0
2, 424744, Note_on_c, 0, 83, 0
2, 424824, Control_c, 0, 64, 88
2, 424836, Note_on_c, 0, 83, 94
2, 424836, Control_c, 0, 64, 40
2, 424844, Note_on_c, 0, 71, 81
2, 424844, Note_on_c, 0, 67, 91
2, 424868, Control_c, 0, 64, 127
2, 424928, Note_on_c, 0, 83, 0
2, 424960, Note_on_c, 0, 71, 0
2, 424980, Note_on_c, 0, 67, 0
2, 425020, Note_on_c, 0, 66, 75
2, 425020, Note_on_c, 0, 81, 98
2, 425028, Note_on_c, 0, 71, 80
2, 425080, Note_on_c, 0, 71, 0
2, 425088, Note_on_c, 0, 66, 0
2, 425104, Note_on_c, 0, 81, 0
2, 425184, Control_c, 0, 64, 88
2, 425192, Note_on_c, 0, 81, 97
2, 425196, Control_c, 0, 64, 72
2, 425200, Note_on_c, 0, 71, 89
2, 425204, Note_on_c, 0, 66, 85
2, 425212, Control_c, 0, 64, 104
2, 425224, Control_c, 0, 64, 127
2, 425320, Note_on_c, 0, 81, 0
2, 425340, Note_on_c, 0, 66, 0
2, 425368, Note_on_c, 0, 64, 81
2, 425368, Note_on_c, 0, 79, 98
2, 425420, Note_on_c, 0, 71, 0
2, 425428, Note_on_c, 0, 64, 0
2, 425472, Note_on_c, 0, 79, 0
2, 425536, Control_c, 0, 64, 72
2, 425544, Note_on_c, 0, 79, 93
2, 425548, Note_on_c, 0, 71, 87
2, 425548, Control_c, 0, 64, 56
2, 425552, Note_on_c, 0, 64, 87
2, 425560, Control_c, 0, 64, 72
2, 425572, Control_c, 0, 64, 104
2, 425584, Control_c, 0, 64, 127
2, 425644, Note_on_c, 0, 79, 0
2, 425648, Note_on_c, 0, 71, 0
2, 425688, Note_on_c, 0, 64, 0
2, 425728, Note_on_c, 0, 78, 99
2, 425736, Note_on_c, 0, 62, 88
2, 425740, Note_on_c, 0, 71, 82
2, 425788, Note_on_c, 0, 62, 0
2, 425796, Note_on_c, 0, 71, 0
2, 425820, Note_on_c, 0, 78, 0
2, 425884, Control_c, 0, 64, 104
2, 425900, Note_on_c, 0, 78, 94
2, 425900, Control_c, 0, 64, 56
2, 425912, Control_c, 0, 64, 40
2, 425916, Note_on_c, 0, 71, 88
2, 425916, Note_on_c, 0, 62, 90
2, 425924, Control_c, 0, 64, 56
2, 425936, Control_c, 0, 64, 104
2, 425952, Control_c, 0, 64, 127
2, 426028, Note_on_c, 0, 71, 0
2, 426036, Note_on_c, 0, 78, 0
2, 426040, Note_on_c, 0, 62, 0
2, 426084, Note_on_c, 0, 76, 101
2, 426084, Note_on_c, 0, 61, 68
2, 426108, Note_on_c, 0, 61, 0
2, 426140, Note_on_c, 0, 76, 0
2, 426264, Note_on_c, 0, 76, 103
2, 426264, Control_c, 0, 64, 104
2, 426268, Note_on_c, 0, 64, 89
2, 426276, Control_c, 0, 64, 40
2, 426288, Control_c, 0, 64, 0
2, 426292, Note_on_c, 0, 55, 93
2, 426300, Note_on_c, 0, 43, 88
2, 426300, Control_c, 0, 64, 40
2, 426312, Control_c, 0, 64, 88
2, 426324, Control_c, 0, 64, 127
2, 426332, Note_on_c, 0, 64, 0
2, 426348, Note_on_c, 0, 55, 0
2, 426352, Note_on_c, 0, 76, 0
2, 426352, Note_on_c, 0, 43, 0
2, 426468, Note_on_c, 0, 76, 109
2, 426468, Note_on_c, 0, 64, 94
2, 426468, Note_on_c, 0, 55, 88
2, 426472, Note_on_c, 0, 43, 85
2, 426528, Note_on_c, 0, 55, 0
2, 426532, Note_on_c, 0, 64, 0
2, 426540, Note_on_c, 0, 43, 0
2, 426548, Note_on_c, 0, 76, 0
2, 426660, Note_on_c, 0, 64, 98
2, 426660, Note_on_c, 0, 76, 113
2, 426660, Note_on_c, 0, 43, 81
2, 426660, Note_on_c, 0, 55, 87
2, 426684, Note_on_c, 0, 43, 0
2, 426712, Note_on_c, 0, 55, 0
2, 426712, Note_on_c, 0, 64, 0
2, 426724, Note_on_c, 0, 76, 0
2, 426848, Note_on_c, 0, 64, 94
2, 426848, Note_on_c, 0, 52, 93
2, 426896, Note_on_c, 0, 52, 0
2, 426896, Note_on_c, 0, 64, 0
2, 427032, Note_on_c, 0, 76, 109
2, 427036, Note_on_c, 0, 64, 104
2, 427044, Note_on_c, 0, 52, 91
2, 427092, Note_on_c, 0, 52, 0
2, 427104, Note_on_c, 0, 64, 0
2, 427128, Note_on_c, 0, 76, 0
2, 427228, Note_on_c, 0, 76, 112
2, 427228, Note_on_c, 0, 62, 89
2, 427228, Note_on_c, 0, 64, 100
2, 427232, Note_on_c, 0, 50, 94
2, 427276, Note_on_c, 0, 62, 0
2, 427284, Note_on_c, 0, 50, 0
2, 427304, Note_on_c, 0, 64, 0
2, 427320, Note_on_c, 0, 76, 0
2, 427392, Control_c, 0, 64, 104
2, 427404, Control_c, 0, 64, 56
2, 427412, Note_on_c, 0, 64, 97
2, 427416, Note_on_c, 0, 76, 113
2, 427416, Note_on_c, 0, 62, 88
2, 427416, Control_c, 0, 64, 72
2, 427424, Note_on_c, 0, 50, 91
2, 427428, Control_c, 0, 64, 104
2, 427440, Control_c, 0, 64, 127
2, 427456, Note_on_c, 0, 64, 0
2, 427464, Note_on_c, 0, 50, 0
2, 427464, Note_on_c, 0, 62, 0
2, 427480, Note_on_c, 0, 76, 0
2, 427600, Note_on_c, 0, 88, 111
2, 427604, Note_on_c, 0, 76, 104
2, 427612, Note_on_c, 0, 61, 87
2, 427616, Note_on_c, 0, 49, 87
2, 427648, Note_on_c, 0, 76, 0
2, 427660, Note_on_c, 0, 49, 0
2, 427668, Note_on_c, 0, 61, 0
2, 427688, Note_on_c, 0, 88, 0
2, 427792, Note_on_c, 0, 88, 113
2, 427800, Note_on_c, 0, 76, 104
2, 427804, Note_on_c, 0, 61, 85
2, 427804, Note_on_c, 0, 49, 88
2, 427804, Control_c, 0, 64, 56
2, 427816, Control_c, 0, 64, 0
2, 427828, Control_c, 0, 64, 24
2, 427840, Control_c, 0, 64, 72
2, 427852, Control_c, 0, 64, 127
2, 427892, Note_on_c, 0, 61, 0
2, 427896, Note_on_c, 0, 88, 0
2, 427896, Note_on_c, 0, 76, 0
2, 427916, Note_on_c, 0, 49, 0
2, 427996, Note_on_c, 0, 86, 112
2, 428000, Note_on_c, 0, 74, 107
2, 428004, Note_on_c, 0, 59, 74
2, 428008, Note_on_c, 0, 47, 78
2, 428056, Note_on_c, 0, 47, 0
2, 428056, Note_on_c, 0, 74, 0
2, 428060, Note_on_c, 0, 59, 0
2, 428084, Note_on_c, 0, 86, 0
2, 428168, Control_c, 0, 64, 104
2, 428172, Note_on_c, 0, 86, 112
2, 428176, Note_on_c, 0, 74, 101
2, 428180, Note_on_c, 0, 59, 84
2, 428184, Note_on_c, 0, 47, 91
2, 428204, Control_c, 0, 64, 127
2, 428240, Note_on_c, 0, 59, 0
2, 428240, Note_on_c, 0, 74, 0
2, 428248, Note_on_c, 0, 47, 0
2, 428252, Note_on_c, 0, 86, 0
2, 428344, Control_c, 0, 64, 88
2, 428352, Note_on_c, 0, 85, 103
2, 428356, Note_on_c, 0, 73, 103
2, 428356, Control_c, 0, 64, 72
2, 428364, Note_on_c, 0, 57, 83
2, 428368, Note_on_c, 0, 45, 88
2, 428368, Control_c, 0, 64, 88
2, 428380, Control_c, 0, 64, 127
2, 428420, Note_on_c, 0, 73, 0
2, 428432, Note_on_c, 0, 57, 0
2, 428436, Note_on_c, 0, 45, 0
2, 428444, Note_on_c, 0, 85, 0
2, 428528, Note_on_c, 0, 85, 100
2, 428532, Note_on_c, 0, 73, 101
2, 428544, Note_on_c, 0, 57, 84
2, 428548, Note_on_c, 0, 45, 93
2, 428600, Note_on_c, 0, 45, 0
2, 428600, Note_on_c, 0, 85, 0
2, 428604, Note_on_c, 0, 73, 0
2, 428628, Note_on_c, 0, 57, 0
2, 428704, Control_c, 0, 64, 56
2, 428708, Note_on_c, 0, 83, 108
2, 428708, Note_on_c, 0, 71, 94
2, 428724, Note_on_c, 0, 55, 88
2, 428724, Note_on_c, 0, 43, 86
2, 428728, Control_c, 0, 64, 72
2, 428744, Control_c, 0, 64, 127
2, 428772, Note_on_c, 0, 71, 0
2, 428784, Note_on_c, 0, 55, 0
2, 428788, Note_on_c, 0, 43, 0
2, 428804, Note_on_c, 0, 83, 0
2, 428892, Note_on_c, 0, 83, 106
2, 428892, Note_on_c, 0, 71, 98
2, 428900, Note_on_c, 0, 55, 93
2, 428900, Note_on_c, 0, 43, 84
2, 428952, Note_on_c, 0, 43, 0
2, 428952, Note_on_c, 0, 55, 0
2, 428956, Note_on_c, 0, 71, 0
2, 428968, Note_on_c, 0, 83, 0
2, 429056, Control_c, 0, 64, 104
2, 429068, Control_c, 0, 64, 56
2, 429072, Note_on_c, 0, 54, 90
2, 429072, Note_on_c, 0, 81, 106
2, 429076, Note_on_c, 0, 42, 88
2, 429076, Note_on_c, 0, 69, 99
2, 429084, Control_c, 0, 64, 40
2, 429092, Control_c, 0, 64, 72
2, 429104, Control_c, 0, 64, 104
2, 429120, Control_c, 0, 64, 127
2, 429136, Note_on_c, 0, 54, 0
2, 429140, Note_on_c, 0, 69, 0
2, 429140, Note_on_c, 0, 42, 0
2, 429164, Note_on_c, 0, 81, 0
2, 429260, Note_on_c, 0, 81, 108
2, 429260, Note_on_c, 0, 42, 86
2, 429260, Note_on_c, 0, 69, 103
2, 429264, Note_on_c, 0, 54, 90
2, 429268, Control_c, 0, 64, 72
2, 429280, Note_on_c, 0, 45, 81
2, 429308, Note_on_c, 0, 45, 0
2, 429308, Control_c, 0, 64, 127
2, 429332, Note_on_c, 0, 69, 0
2, 429352, Note_on_c, 0, 54, 0
2, 429352, Note_on_c, 0, 81, 0
2, 429360, Note_on_c, 0, 42, 0
2, 429452, Note_on_c, 0, 79, 107
2, 429456, Note_on_c, 0, 52, 89
2, 429456, Note_on_c, 0, 45, 71
2, 429456, Note_on_c, 0, 69, 94
2, 429456, Control_c, 0, 64, 104
2, 429464, Note_on_c, 0, 73, 84
2, 429464, Note_on_c, 0, 40, 75
2, 429472, Control_c, 0, 64, 56
2, 429484, Control_c, 0, 64, 40
2, 429496, Control_c, 0, 64, 72
2, 429504, Control_c, 0, 64, 104
2, 429520, Control_c, 0, 64, 127
2, 429532, Note_on_c, 0, 40, 0
2, 429536, Note_on_c, 0, 73, 0
2, 429540, Note_on_c, 0, 52, 0
2, 429540, Note_on_c, 0, 69, 0
2, 429560, Note_on_c, 0, 79, 0
2, 429576, Note_on_c, 0, 45, 0
2, 429644, Control_c, 0, 64, 104
2, 429648, Note_on_c, 0, 79, 104
2, 429656, Note_on_c, 0, 69, 91
2, 429656, Note_on_c, 0, 73, 87
2, 429656, Note_on_c, 0, 57, 83
2, 429656, Control_c, 0, 64, 40
2, 429660, Note_on_c, 0, 52, 90
2, 429668, Note_on_c, 0, 40, 68
2, 429668, Note_on_c, 0, 45, 86
2, 429672, Control_c, 0, 64, 24
2, 429684, Control_c, 0, 64, 56
2, 429696, Control_c, 0, 64, 88
2, 429708, Control_c, 0, 64, 127
2, 429724, Note_on_c, 0, 40, 0
2, 429728, Note_on_c, 0, 52, 0
2, 429744, Note_on_c, 0, 69, 0
2, 429752, Note_on_c, 0, 79, 0
2, 429760, Note_on_c, 0, 73, 0
2, 429776, Note_on_c, 0, 45, 0
2, 429820, Control_c, 0, 64, 104
2, 429832, Control_c, 0, 64, 24
2, 429844, Note_on_c, 0, 78, 101
2, 429844, Control_c, 0, 64, 0
2, 429848, Note_on_c, 0, 45, 69
2, 429852, Note_on_c, 0, 50, 93
2, 429856, Note_on_c, 0, 69, 84
2, 429856, Note_on_c, 0, 74, 90
2, 429860, Note_on_c, 0, 38, 74
2, 429876, Note_on_c, 0, 40, 72
2, 429884, Control_c, 0, 64, 40
2, 429896, Control_c, 0, 64, 104
2, 429904, Note_on_c, 0, 40, 0
2, 429908, Control_c, 0, 64, 127
2, 429912, Note_on_c, 0, 57, 0
2, 429920, Note_on_c, 0, 69, 0
2, 429920, Note_on_c, 0, 74, 0
2, 429924, Note_on_c, 0, 50, 0
2, 429928, Note_on_c, 0, 38, 0
2, 429940, Note_on_c, 0, 45, 0
2, 429944, Note_on_c, 0, 78, 0
2, 430020, Control_c, 0, 64, 56
2, 430028, Note_on_c, 0, 78, 98
2, 430032, Control_c, 0, 64, 40
2, 430040, Note_on_c, 0, 69, 95
2, 430040, Note_on_c, 0, 74, 93
2, 430040, Note_on_c, 0, 50, 91
2, 430040, Note_on_c, 0, 45, 85
2, 430048, Control_c, 0, 64, 56
2, 430056, Note_on_c, 0, 74, 0
2, 430056, Control_c, 0, 64, 88
2, 430072, Control_c, 0, 64, 127
2, 430088, Note_on_c, 0, 78, 0
2, 430092, Note_on_c, 0, 69, 0
2, 430092, Note_on_c, 0, 50, 0
2, 430128, Note_on_c, 0, 45, 0
2, 430236, Note_on_c, 0, 74, 95
2, 430236, Control_c, 0, 64, 72
2, 430240, Note_on_c, 0, 54, 83
2, 430244, Note_on_c, 0, 62, 81
2, 430244, Note_on_c, 0, 45, 76
2, 430248, Control_c, 0, 64, 0
2, 430252, Note_on_c, 0, 69, 63
2, 430252, Note_on_c, 0, 42, 63
2, 430260, Control_c, 0, 64, 24
2, 430272, Control_c, 0, 64, 56
2, 430280, Note_on_c, 0, 69, 0
2, 430284, Control_c, 0, 64, 104
2, 430292, Note_on_c, 0, 62, 0
2, 430296, Note_on_c, 0, 54, 0
2, 430296, Control_c, 0, 64, 127
2, 430300, Note_on_c, 0, 42, 0
2, 430308, Note_on_c, 0, 45, 0
2, 430320, Note_on_c, 0, 74, 0
2, 430468, Note_on_c, 0, 74, 103
2, 430472, Note_on_c, 0, 62, 84
2, 430472, Note_on_c, 0, 69, 88
2, 430484, Note_on_c, 0, 54, 67
2, 430488, Note_on_c, 0, 42, 61
2, 430488, Note_on_c, 0, 45, 69
2, 430536, Control_c, 0, 64, 72
2, 430548, Control_c, 0, 64, 0
2, 430596, Control_c, 0, 64, 40
2, 430612, Control_c, 0, 64, 127
2, 430628, Note_on_c, 0, 74, 0
2, 430636, Note_on_c, 0, 69, 0
2, 430648, Note_on_c, 0, 54, 0
2, 430652, Note_on_c, 0, 45, 0
2, 430656, Note_on_c, 0, 62, 0
2, 430656, Note_on_c, 0, 42, 0
2, 430868, Note_on_c, 0, 69, 103
2, 430872, Note_on_c, 0, 57, 81
2, 430872, Note_on_c, 0, 62, 87
2, 430872, Note_on_c, 0, 54, 64
2, 430884, Control_c, 0, 64, 88
2, 430892, Note_on_c, 0, 42, 55
2, 430896, Control_c, 0, 64, 0
2, 430900, Note_on_c, 0, 45, 69
2, 430924, Control_c, 0, 64, 24
2, 430936, Control_c, 0, 64, 72
2, 430948, Control_c, 0, 64, 127
2, 430956, Note_on_c, 0, 62, 0
2, 430984, Note_on_c, 0, 42, 0
2, 430988, Note_on_c, 0, 54, 0
2, 430992, Note_on_c, 0, 69, 0
2, 430996, Note_on_c, 0, 45, 0
2, 431000, Note_on_c, 0, 57, 0
2, 431088, Control_c, 0, 64, 104
2, 431092, Note_on_c, 0, 67, 104
2, 431100, Control_c, 0, 64, 0
2, 431104, Note_on_c, 0, 52, 76
2, 431104, Note_on_c, 0, 57, 84
2, 431108, Note_on_c, 0, 40, 72
2, 431116, Note_on_c, 0, 45, 64
2, 431136, Control_c, 0, 64, 56
2, 431148, Control_c, 0, 64, 104
2, 431160, Control_c, 0, 64, 127
2, 431176, Note_on_c, 0, 57, 0
2, 431176, Note_on_c, 0, 52, 0
2, 431188, Note_on_c, 0, 45, 0
2, 431188, Note_on_c, 0, 40, 0
2, 431204, Note_on_c, 0, 67, 0
2, 431272, Control_c, 0, 64, 104
2, 431284, Control_c, 0, 64, 56
2, 431288, Note_on_c, 0, 67, 104
2, 431288, Note_on_c, 0, 45, 78
2, 431292, Note_on_c, 0, 52, 79
2, 431296, Note_on_c, 0, 57, 84
2, 431300, Note_on_c, 0, 61, 78
2, 431300, Note_on_c, 0, 40, 72
2, 431324, Control_c, 0, 64, 127
2, 431344, Note_on_c, 0, 52, 0
2, 431376, Note_on_c, 0, 57, 0
2, 431376, Note_on_c, 0, 40, 0
2, 431388, Note_on_c, 0, 67, 0
2, 431396, Note_on_c, 0, 61, 0
2, 431412, Note_on_c, 0, 45, 0
2, 431464, Control_c, 0, 64, 104
2, 431476, Control_c, 0, 64, 0
2, 431484, Note_on_c, 0, 66, 96
2, 431488, Note_on_c, 0, 45, 66
2, 431496, Note_on_c, 0, 62, 86
2, 431496, Note_on_c, 0, 50, 84
2, 431496, Note_on_c, 0, 57, 78
2, 431500, Note_on_c, 0, 38, 75
2, 431512, Control_c, 0, 64, 40
2, 431524, Control_c, 0, 64, 104
2, 431536, Control_c, 0, 64, 127
2, 431556, Note_on_c, 0, 62, 0
2, 431564, Note_on_c, 0, 57, 0
2, 431568, Note_on_c, 0, 50, 0
2, 431576, Note_on_c, 0, 38, 0
2, 431588, Note_on_c, 0, 45, 0
2, 431592, Note_on_c, 0, 66, 0
2, 431664, Control_c, 0, 64, 104
2, 431676, Control_c, 0, 64, 40
2, 431680, Note_on_c, 0, 66, 94
2, 431688, Note_on_c, 0, 57, 87
2, 431688, Note_on_c, 0, 45, 75
2, 431692, Note_on_c, 0, 50, 84
2, 431692, Note_on_c, 0, 62, 78
2, 431700, Note_on_c, 0, 38, 56
2, 431700, Control_c, 0, 64, 72
2, 431712, Control_c, 0, 64, 104
2, 431720, Note_on_c, 0, 62, 0
2, 431724, Control_c, 0, 64, 127
2, 431752, Note_on_c, 0, 66, 0
2, 431756, Note_on_c, 0, 45, 0
2, 431760, Note_on_c, 0, 38, 0
2, 431760, Note_on_c, 0, 57, 0
2, 431768, Note_on_c, 0, 50, 0
2, 431896, Note_on_c, 0, 62, 99
2, 431900, Note_on_c, 0, 57, 90
2, 431900, Control_c, 0, 64, 72
2, 431912, Control_c, 0, 64, 0
2, 431916, Note_on_c, 0, 50, 83
2, 431916, Note_on_c, 0, 42, 75
2, 431952, Control_c, 0, 64, 40
2, 431964, Control_c, 0, 64, 104
2, 431976, Control_c, 0, 64, 127
2, 431980, Note_on_c, 0, 50, 0
2, 431980, Note_on_c, 0, 57, 0
2, 431988, Note_on_c, 0, 42, 0
2, 432008, Note_on_c, 0, 62, 0
2, 432140, Note_on_c, 0, 62, 98
2, 432152, Note_on_c, 0, 57, 84
2, 432160, Note_on_c, 0, 42, 69
2, 432164, Note_on_c, 0, 50, 76
2, 432240, Control_c, 0, 64, 88
2, 432252, Control_c, 0, 64, 0
2, 432340, Control_c, 0, 64, 24
2, 432352, Control_c, 0, 64, 104
2, 432364, Control_c, 0, 64, 127
2, 432452, Note_on_c, 0, 50, 0
2, 432464, Note_on_c, 0, 62, 0
2, 432464, Note_on_c, 0, 57, 0
2, 432464, Note_on_c, 0, 42, 0
2, 432608, Note_on_c, 0, 62, 107
2, 432620, Note_on_c, 0, 42, 78
2, 432620, Note_on_c, 0, 57, 88
2, 432628, Note_on_c, 0, 50, 79
2, 432636, Control_c, 0, 64, 40
2, 432652, Control_c, 0, 64, 0
2, 432664, Control_c, 0, 64, 40
2, 432676, Control_c, 0, 64, 72
2, 432688, Control_c, 0, 64, 127
2, 432720, Note_on_c, 0, 50, 0
2, 432740, Note_on_c, 0, 57, 0
2, 432744, Note_on_c, 0, 42, 0
2, 432752, Note_on_c, 0, 62, 0
2, 432872, Note_on_c, 0, 61, 105
2, 432884, Note_on_c, 0, 57, 93
2, 432884, Note_on_c, 0, 40, 82
2, 432888, Note_on_c, 0, 52, 83
2, 432892, Control_c, 0, 64, 88
2, 432904, Control_c, 0, 64, 0
2, 432952, Control_c, 0, 64, 56
2, 432964, Control_c, 0, 64, 127
2, 432968, Note_on_c, 0, 57, 0
2, 432980, Note_on_c, 0, 52, 0
2, 432980, Note_on_c, 0, 40, 0
2, 433008, Note_on_c, 0, 61, 0
2, 433224, Note_on_c, 0, 60, 107
2, 433228, Note_on_c, 0, 54, 90
2, 433240, Note_on_c, 0, 39, 76
2, 433244, Note_on_c, 0, 45, 88
2, 433340, Control_c, 0, 64, 104
2, 433352, Control_c, 0, 64, 24
2, 433364, Control_c, 0, 64, 0
2, 433528, Control_c, 0, 64, 24
2, 433540, Control_c, 0, 64, 72
2, 433552, Control_c, 0, 64, 104
2, 433568, Control_c, 0, 64, 127
2, 434044, Note_on_c, 0, 60, 0
2, 434064, Note_on_c, 0, 59, 88
2, 434076, Note_on_c, 0, 45, 0
2, 434088, Note_on_c, 0, 47, 79
2, 434144, Control_c, 0, 64, 104
2, 434152, Control_c, 0, 64, 24
2, 434168, Control_c, 0, 64, 0
2, 434216, Control_c, 0, 64, 24
2, 434228, Control_c, 0, 64, 88
2, 434240, Control_c, 0, 64, 127
2, 434492, Note_on_c, 0, 47, 0
2, 434504, Note_on_c, 0, 57, 87
2, 434512, Note_on_c, 0, 48, 81
2, 434524, Note_on_c, 0, 59, 0
2, 434536, Note_on_c, 0, 39, 0
2, 434544, Control_c, 0, 64, 104
2, 434556, Control_c, 0, 64, 24
2, 434568, Control_c, 0, 64, 0
2, 434628, Control_c, 0, 64, 88
2, 434644, Control_c, 0, 64, 127
2, 434680, Note_on_c, 0, 54, 0
2, 434692, Note_on_c, 0, 57, 0
2, 434708, Note_on_c, 0, 48, 0
2, 434868, Control_c, 0, 64, 72
2, 434880, Control_c, 0, 64, 0
2, 434884, Note_on_c, 0, 40, 78
2, 434892, Note_on_c, 0, 57, 90
2, 434900, Note_on_c, 0, 49, 82
2, 434904, Note_on_c, 0, 52, 63
2, 434916, Control_c, 0, 64, 127
2, 434924, Note_on_c, 0, 40, 0
2, 434928, Note_on_c, 0, 52, 0
2, 434944, Note_on_c, 0, 49, 0
2, 434948, Note_on_c, 0, 57, 0
2, 435148, Note_on_c, 0, 73, 102
2, 435160, Note_on_c, 0, 52, 81
2, 435160, Note_on_c, 0, 69, 81
2, 435164, Note_on_c, 0, 64, 78
2, 435164, Note_on_c, 0, 61, 73
2, 435176, Note_on_c, 0, 57, 71
2, 435188, Note_on_c, 0, 64, 0
2, 435256, Note_on_c, 0, 64, 43
2, 435320, Control_c, 0, 64, 56
2, 435332, Control_c, 0, 64, 0
2, 435344, Control_c, 0, 64, 40
2, 435356, Control_c, 0, 64, 88
2, 435368, Control_c, 0, 64, 127
2, 435576, Note_on_c, 0, 57, 0
2, 435596, Note_on_c, 0, 52, 0
2, 435620, Note_on_c, 0, 61, 0
2, 435644, Note_on_c, 0, 69, 0
2, 435668, Note_on_c, 0, 64, 0
2, 435712, Note_on_c, 0, 73, 0
2, 435972, Note_on_c, 0, 71, 94
2, 435980, Note_on_c, 0, 68, 78
2, 435992, Note_on_c, 0, 64, 73
2, 435992, Note_on_c, 0, 59, 71
2, 435996, Note_on_c, 0, 50, 74
2, 435996, Note_on_c, 0, 56, 59
2, 436004, Note_on_c, 0, 52, 65
2, 436084, Control_c, 0, 64, 104
2, 436096, Control_c, 0, 64, 40
2, 436108, Control_c, 0, 64, 0
2, 436220, Control_c, 0, 64, 104
2, 436232, Control_c, 0, 64, 127
2, 436344, Note_on_c, 0, 59, 0
2, 436360, Note_on_c, 0, 50, 0
2, 436376, Note_on_c, 0, 52, 0
2, 436392, Note_on_c, 0, 56, 0
2, 436404, Note_on_c, 0, 64, 0
2, 436404, Note_on_c, 0, 68, 0
2, 436508, Note_on_c, 0, 71, 0
2, 436604, Note_on_c, 0, 69, 94
2, 436608, Note_on_c, 0, 49, 68
2, 436620, Note_on_c, 0, 57, 65
2, 436620, Note_on_c, 0, 52, 74
2, 436620, Control_c, 0, 64, 88
2, 436624, Note_on_c, 0, 64, 67
2, 436632, Control_c, 0, 64, 24
2, 436672, Control_c, 0, 64, 88
2, 436684, Control_c, 0, 64, 127
2, 436692, Note_on_c, 0, 64, 0
2, 436692, Note_on_c, 0, 57, 0
2, 436692, Note_on_c, 0, 52, 0
2, 436692, Note_on_c, 0, 49, 0
2, 436720, Note_on_c, 0, 69, 0
2, 436844, Note_on_c, 0, 69, 87
2, 436852, Note_on_c, 0, 57, 68
2, 436852, Note_on_c, 0, 49, 59
2, 436852, Note_on_c, 0, 64, 66
2, 436856, Note_on_c, 0, 52, 63
2, 436948, Control_c, 0, 64, 56
2, 436960, Control_c, 0, 64, 0
2, 437084, Control_c, 0, 64, 40
2, 437100, Control_c, 0, 64, 88
2, 437112, Control_c, 0, 64, 127
2, 437388, Control_c, 0, 64, 104
2, 437400, Control_c, 0, 64, 88
2, 437412, Control_c, 0, 64, 104
2, 437424, Control_c, 0, 64, 127
2, 437652, Note_on_c, 0, 52, 0
2, 437656, Note_on_c, 0, 49, 0
2, 437656, Note_on_c, 0, 64, 0
2, 437656, Note_on_c, 0, 57, 0
2, 437704, Note_on_c, 0, 69, 0
2, 437792, Note_on_c, 0, 49, 59
2, 437796, Note_on_c, 0, 69, 97
2, 437800, Note_on_c, 0, 57, 63
2, 437808, Note_on_c, 0, 52, 59
2, 437808, Note_on_c, 0, 64, 79
2, 437844, Note_on_c, 0, 52, 0
2, 437856, Note_on_c, 0, 57, 0
2, 437876, Note_on_c, 0, 64, 0
2, 437880, Note_on_c, 0, 49, 0
2, 437912, Note_on_c, 0, 69, 0
2, 437984, Note_on_c, 0, 71, 98
2, 437992, Note_on_c, 0, 68, 86
2, 437992, Note_on_c, 0, 52, 73
2, 437992, Note_on_c, 0, 59, 68
2, 437996, Note_on_c, 0, 64, 83
2, 437996, Note_on_c, 0, 56, 63
2, 438000, Control_c, 0, 64, 72
2, 438012, Control_c, 0, 64, 40
2, 438024, Control_c, 0, 64, 56
2, 438032, Note_on_c, 0, 56, 0
2, 438036, Control_c, 0, 64, 88
2, 438044, Note_on_c, 0, 64, 0
2, 438048, Note_on_c, 0, 68, 0
2, 438048, Control_c, 0, 64, 127
2, 438056, Note_on_c, 0, 71, 0
2, 438060, Note_on_c, 0, 59, 0
2, 438068, Note_on_c, 0, 52, 0
2, 438172, Note_on_c, 0, 73, 103
2, 438180, Note_on_c, 0, 57, 76
2, 438180, Note_on_c, 0, 64, 84
2, 438184, Note_on_c, 0, 69, 93
2, 438188, Note_on_c, 0, 61, 70
2, 438208, Note_on_c, 0, 64, 0
2, 438208, Note_on_c, 0, 57, 0
2, 438212, Note_on_c, 0, 69, 0
2, 438240, Note_on_c, 0, 61, 0
2, 438252, Note_on_c, 0, 73, 0
2, 438436, Note_on_c, 0, 76, 106
2, 438448, Note_on_c, 0, 73, 78
2, 438448, Note_on_c, 0, 67, 75
2, 438448, Note_on_c, 0, 70, 71
2, 438456, Note_on_c, 0, 64, 78
2, 438456, Note_on_c, 0, 58, 58
2, 438460, Note_on_c, 0, 55, 70
2, 438476, Note_on_c, 0, 61, 58
2, 438540, Control_c, 0, 64, 88
2, 438552, Control_c, 0, 64, 24
2, 438564, Control_c, 0, 64, 0
2, 438712, Control_c, 0, 64, 56
2, 438724, Control_c, 0, 64, 127
2, 438936, Note_on_c, 0, 55, 0
2, 438944, Note_on_c, 0, 61, 0
2, 438968, Note_on_c, 0, 76, 0
2, 438968, Note_on_c, 0, 64, 0
2, 438972, Note_on_c, 0, 73, 0
2, 438992, Note_on_c, 0, 58, 0
2, 438992, Note_on_c, 0, 67, 0
2, 439024, Note_on_c, 0, 70, 0
2, 439208, Note_on_c, 0, 74, 86
2, 439224, Note_on_c, 0, 66, 68
2, 439224, Note_on_c, 0, 62, 71
2, 439232, Note_on_c, 0, 71, 73
2, 439232, Note_on_c, 0, 54, 68
2, 439240, Note_on_c, 0, 59, 65
2, 439328, Control_c, 0, 64, 104
2, 439340, Control_c, 0, 64, 56
2, 439352, Control_c, 0, 64, 0
2, 439476, Control_c, 0, 64, 88
2, 439492, Control_c, 0, 64, 127
2, 439576, Note_on_c, 0, 62, 0
2, 439580, Note_on_c, 0, 71, 0
2, 439584, Note_on_c, 0, 59, 0
2, 439592, Note_on_c, 0, 66, 0
2, 439592, Note_on_c, 0, 54, 0
2, 439604, Note_on_c, 0, 74, 0
2, 439804, Note_on_c, 0, 70, 95
2, 439820, Note_on_c, 0, 67, 78
2, 439820, Note_on_c, 0, 61, 64
2, 439824, Note_on_c, 0, 52, 76
2, 439828, Note_on_c, 0, 58, 63
2, 439852, Note_on_c, 0, 67, 0
2, 439852, Note_on_c, 0, 55, 63
2, 439884, Note_on_c, 0, 55, 0
2, 439884, Note_on_c, 0, 52, 0
2, 439888, Note_on_c, 0, 58, 0
2, 439892, Note_on_c, 0, 61, 0
2, 439912, Note_on_c, 0, 70, 0
2, 440028, Note_on_c, 0, 70, 99
2, 440040, Note_on_c, 0, 52, 68
2, 440040, Note_on_c, 0, 61, 64
2, 440048, Note_on_c, 0, 67, 80
2, 440056, Note_on_c, 0, 55, 58
2, 440060, Note_on_c, 0, 58, 58
2, 440068, Control_c, 0, 64, 40
2, 440080, Control_c, 0, 64, 0
2, 440108, Note_on_c, 0, 67, 0
2, 440152, Note_on_c, 0, 55, 0
2, 440152, Note_on_c, 0, 52, 0
2, 440152, Control_c, 0, 64, 72
2, 440164, Control_c, 0, 64, 127
2, 440192, Note_on_c, 0, 70, 0
2, 440192, Note_on_c, 0, 61, 0
2, 440208, Note_on_c, 0, 58, 0
2, 440464, Note_on_c, 0, 71, 92
2, 440480, Note_on_c, 0, 66, 71
2, 440488, Note_on_c, 0, 54, 63
2, 440492, Note_on_c, 0, 59, 63
2, 440492, Note_on_c, 0, 50, 68
2, 440580, Control_c, 0, 64, 104
2, 440592, Control_c, 0, 64, 24
2, 440604, Control_c, 0, 64, 0
2, 440780, Control_c, 0, 64, 24
2, 440792, Control_c, 0, 64, 72
2, 440804, Control_c, 0, 64, 127
2, 440952, Note_on_c, 0, 50, 0
2, 440968, Note_on_c, 0, 59, 0
2, 440980, Note_on_c, 0, 54, 0
2, 441004, Note_on_c, 0, 71, 0
2, 441024, Note_on_c, 0, 66, 0
2, 441248, Note_on_c, 0, 69, 94
2, 441268, Note_on_c, 0, 49, 62
2, 441268, Note_on_c, 0, 64, 71
2, 441268, Note_on_c, 0, 57, 63
2, 441292, Note_on_c, 0, 52, 59
2, 441340, Control_c, 0, 64, 88
2, 441352, Control_c, 0, 64, 0
2, 441468, Control_c, 0, 64, 127
2, 441472, Note_on_c, 0, 64, 0
2, 441520, Note_on_c, 0, 69, 0
2, 441664, Note_on_c, 0, 64, 103
2, 441804, Note_on_c, 0, 57, 0
2, 441812, Note_on_c, 0, 64, 0
2, 441812, Note_on_c, 0, 52, 0
2, 441836, Note_on_c, 0, 49, 0
2, 442092, Note_on_c, 0, 74, 103
2, 442100, Note_on_c, 0, 64, 84
2, 442104, Note_on_c, 0, 62, 84
2, 442120, Note_on_c, 0, 56, 68
2, 442124, Note_on_c, 0, 52, 68
2, 442124, Note_on_c, 0, 47, 72
2, 442208, Control_c, 0, 64, 72
2, 442220, Control_c, 0, 64, 0
2, 442380, Control_c, 0, 64, 88
2, 442396, Control_c, 0, 64, 127
2, 442656, Note_on_c, 0, 47, 0
2, 442700, Note_on_c, 0, 74, 0
2, 442700, Note_on_c, 0, 56, 0
2, 442708, Note_on_c, 0, 64, 0
2, 442708, Note_on_c, 0, 62, 0
2, 442900, Note_on_c, 0, 52, 0
2, 442956, Note_on_c, 0, 73, 88
2, 442972, Note_on_c, 0, 61, 68
2, 442976, Note_on_c, 0, 57, 66
2, 442976, Note_on_c, 0, 45, 73
2, 443072, Control_c, 0, 64, 104
2, 443084, Control_c, 0, 64, 24
2, 443096, Control_c, 0, 64, 0
2, 443196, Control_c, 0, 64, 127
2, 443220, Note_on_c, 0, 73, 0
2, 443244, Note_on_c, 0, 61, 0
2, 443304, Note_on_c, 0, 57, 0
2, 443316, Note_on_c, 0, 45, 0
2, 443408, Note_on_c, 0, 61, 88
2, 443584, Note_on_c, 0, 61, 0
2, 443876, Note_on_c, 0, 71, 95
2, 443884, Note_on_c, 0, 61, 69
2, 443888, Note_on_c, 0, 59, 69
2, 443900, Note_on_c, 0, 44, 63
2, 443908, Note_on_c, 0, 49, 56
2, 443912, Note_on_c, 0, 53, 57
2, 443972, Control_c, 0, 64, 56
2, 443988, Control_c, 0, 64, 0
2, 444148, Control_c, 0, 64, 72
2, 444160, Control_c, 0, 64, 127
2, 444324, Note_on_c, 0, 71, 0
2, 444412, Note_on_c, 0, 59, 0
2, 444416, Note_on_c, 0, 53, 0
2, 444564, Note_on_c, 0, 44, 0
2, 444632, Note_on_c, 0, 49, 0
2, 444680, Note_on_c, 0, 69, 86
2, 444692, Note_on_c, 0, 61, 0
2, 444692, Note_on_c, 0, 57, 66
2, 444700, Note_on_c, 0, 42, 70
2, 444708, Note_on_c, 0, 54, 64
2, 444812, Control_c, 0, 64, 40
2, 444824, Control_c, 0, 64, 0
2, 444900, Control_c, 0, 64, 72
2, 444912, Control_c, 0, 64, 127
2, 444916, Note_on_c, 0, 69, 0
2, 444992, Note_on_c, 0, 57, 0
2, 445112, Note_on_c, 0, 57, 83
2, 445240, Note_on_c, 0, 57, 0
2, 445276, Note_on_c, 0, 59, 85
2, 445388, Note_on_c, 0, 59, 0
2, 445408, Note_on_c, 0, 57, 92
2, 445432, Note_on_c, 0, 54, 0
2, 445516, Note_on_c, 0, 57, 0
2, 445532, Note_on_c, 0, 56, 88
2, 445632, Note_on_c, 0, 56, 0
2, 445652, Note_on_c, 0, 57, 98
2, 445660, Note_on_c, 0, 42, 0
2, 445708, Note_on_c, 0, 57, 0
2, 445868, Note_on_c, 0, 67, 95
2, 445888, Note_on_c, 0, 57, 78
2, 445888, Note_on_c, 0, 49, 73
2, 445900, Note_on_c, 0, 40, 71
2, 445964, Control_c, 0, 64, 104
2, 445976, Control_c, 0, 64, 24
2, 445988, Control_c, 0, 64, 0
2, 446128, Control_c, 0, 64, 40
2, 446140, Control_c, 0, 64, 127
2, 446392, Note_on_c, 0, 67, 0
2, 446404, Note_on_c, 0, 57, 0
2, 446424, Note_on_c, 0, 40, 0
2, 446472, Note_on_c, 0, 49, 0
2, 446668, Note_on_c, 0, 66, 88
2, 446692, Note_on_c, 0, 57, 73
2, 446708, Note_on_c, 0, 50, 76
2, 446708, Note_on_c, 0, 38, 75
2, 446716, Control_c, 0, 64, 72
2, 446728, Control_c, 0, 64, 0
2, 446804, Control_c, 0, 64, 72
2, 446812, Control_c, 0, 64, 127
2, 446916, Note_on_c, 0, 50, 0
2, 446944, Note_on_c, 0, 38, 0
2, 446948, Note_on_c, 0, 49, 76
2, 447032, Note_on_c, 0, 57, 0
2, 447056, Note_on_c, 0, 66, 0
2, 447152, Note_on_c, 0, 49, 0
2, 447284, Note_on_c, 0, 66, 90
2, 447304, Note_on_c, 0, 56, 77
2, 447312, Note_on_c, 0, 47, 81
2, 447316, Note_on_c, 0, 40, 65
2, 447400, Control_c, 0, 64, 104
2, 447416, Control_c, 0, 64, 24
2, 447428, Control_c, 0, 64, 0
2, 447540, Control_c, 0, 64, 56
2, 447552, Control_c, 0, 64, 127
2, 448068, Note_on_c, 0, 50, 75
2, 448096, Note_on_c, 0, 47, 0
2, 448180, Control_c, 0, 64, 88
2, 448192, Control_c, 0, 64, 0
2, 448256, Control_c, 0, 64, 72
2, 448268, Control_c, 0, 64, 127
2, 448400, Note_on_c, 0, 66, 0
2, 448408, Note_on_c, 0, 64, 84
2, 448740, Note_on_c, 0, 64, 0
2, 448784, Note_on_c, 0, 63, 80
2, 448800, Note_on_c, 0, 47, 63
2, 448884, Control_c, 0, 64, 40
2, 448896, Control_c, 0, 64, 0
2, 448968, Control_c, 0, 64, 72
2, 448980, Control_c, 0, 64, 127
2, 449124, Note_on_c, 0, 63, 0
2, 449152, Note_on_c, 0, 62, 83
2, 449244, Note_on_c, 0, 56, 0
2, 449248, Note_on_c, 0, 50, 0
2, 449268, Note_on_c, 0, 47, 0
2, 449276, Note_on_c, 0, 40, 0
2, 449280, Note_on_c, 0, 62, 0
2, 449584, Note_on_c, 0, 69, 66
2, 449584, Note_on_c, 0, 73, 89
2, 449584, Note_on_c, 0, 45, 72
2, 449584, Note_on_c, 0, 57, 72
2, 449584, Note_on_c, 0, 33, 76
2, 449712, Note_on_c, 0, 64, 70
2, 449836, Note_on_c, 0, 61, 63
2, 449836, Control_c, 0, 64, 127
2, 449840, Note_on_c, 0, 33, 0
2, 449840, Note_on_c, 0, 57, 0
2, 449840, Note_on_c, 0, 45, 0
2, 449888, Note_on_c, 0, 61, 0
2, 449952, Note_on_c, 0, 57, 65
2, 450064, Note_on_c, 0, 57, 0
2, 450076, Note_on_c, 0, 52, 68
2, 450160, Note_on_c, 0, 69, 0
2, 450184, Note_on_c, 0, 73, 0
2, 450192, Note_on_c, 0, 52, 0
2, 450192, Note_on_c, 0, 45, 73
2, 450212, Note_on_c, 0, 45, 0
2, 450284, Note_on_c, 0, 64, 0
2, 450324, Note_on_c, 0, 74, 88
2, 450324, Note_on_c, 0, 71, 91
2, 450324, Note_on_c, 0, 62, 73
2, 450324, Note_on_c, 0, 59, 73
2, 450360, Control_c, 0, 64, 104
2, 450372, Control_c, 0, 64, 40
2, 450380, Control_c, 0, 64, 0
2, 450440, Note_on_c, 0, 64, 79
2, 450448, Control_c, 0, 64, 88
2, 450456, Control_c, 0, 64, 127
2, 450556, Note_on_c, 0, 62, 68
2, 450580, Note_on_c, 0, 59, 0
2, 450580, Note_on_c, 0, 62, 0
2, 450664, Note_on_c, 0, 62, 0
2, 450672, Note_on_c, 0, 59, 75
2, 450700, Note_on_c, 0, 59, 0
2, 450780, Note_on_c, 0, 52, 73
2, 450876, Note_on_c, 0, 71, 0
2, 450888, Note_on_c, 0, 69, 96
2, 450896, Note_on_c, 0, 52, 0
2, 450896, Note_on_c, 0, 45, 73
2, 450916, Note_on_c, 0, 74, 0
2, 450936, Note_on_c, 0, 45, 0
2, 450940, Note_on_c, 0, 64, 0
2, 450956, Note_on_c, 0, 69, 0
2, 451028, Note_on_c, 0, 75, 87
2, 451028, Note_on_c, 0, 72, 75
2, 451028, Note_on_c, 0, 69, 93
2, 451028, Note_on_c, 0, 63, 76
2, 451028, Note_on_c, 0, 60, 76
2, 451028, Note_on_c, 0, 57, 76
2, 451100, Control_c, 0, 64, 72
2, 451108, Control_c, 0, 64, 24
2, 451112, Control_c, 0, 64, 0
2, 451144, Note_on_c, 0, 64, 83
2, 451176, Control_c, 0, 64, 88
2, 451184, Control_c, 0, 64, 127
2, 451252, Note_on_c, 0, 63, 68
2, 451284, Note_on_c, 0, 57, 0
2, 451284, Note_on_c, 0, 63, 0
2, 451284, Note_on_c, 0, 60, 0
2, 451352, Note_on_c, 0, 63, 0
2, 451360, Note_on_c, 0, 60, 73
2, 451424, Note_on_c, 0, 60, 0
2, 451472, Note_on_c, 0, 57, 79
2, 451576, Note_on_c, 0, 57, 0
2, 451580, Note_on_c, 0, 64, 0
2, 451588, Note_on_c, 0, 45, 78
2, 451620, Note_on_c, 0, 75, 0
2, 451624, Note_on_c, 0, 72, 0
2, 451640, Note_on_c, 0, 45, 0
2, 451712, Note_on_c, 0, 76, 89
2, 451712, Note_on_c, 0, 73, 80
2, 451712, Note_on_c, 0, 64, 76
2, 451712, Note_on_c, 0, 61, 76
2, 451740, Control_c, 0, 64, 56
2, 451748, Control_c, 0, 64, 0
2, 451812, Control_c, 0, 64, 88
2, 451820, Control_c, 0, 64, 127
2, 451828, Note_on_c, 0, 69, 81
2, 451884, Note_on_c, 0, 69, 91
2, 451940, Note_on_c, 0, 64, 75
2, 451968, Note_on_c, 0, 61, 0
2, 451968, Note_on_c, 0, 64, 0
2, 452040, Note_on_c, 0, 64, 0
2, 452040, Note_on_c, 0, 73, 0
2, 452048, Note_on_c, 0, 61, 77
2, 452060, Note_on_c, 0, 71, 99
2, 452092, Note_on_c, 0, 61, 0
2, 452108, Note_on_c, 0, 69, 0
2, 452108, Note_on_c, 0, 69, 0
2, 452108, Note_on_c, 0, 69, 0
2, 452140, Note_on_c, 0, 57, 78
2, 452216, Note_on_c, 0, 57, 0
2, 452216, Note_on_c, 0, 71, 0
2, 452224, Note_on_c, 0, 73, 100
2, 452240, Note_on_c, 0, 76, 0
2, 452260, Note_on_c, 0, 45, 71
2, 452292, Note_on_c, 0, 45, 0
2, 452332, Note_on_c, 0, 73, 0
2, 452384, Note_on_c, 0, 77, 85
2, 452384, Note_on_c, 0, 71, 64
2, 452384, Note_on_c, 0, 74, 100
2, 452384, Note_on_c, 0, 57, 69
2, 452384, Note_on_c, 0, 68, 69
2, 452384, Note_on_c, 0, 62, 76
2, 452384, Note_on_c, 0, 65, 76
2, 452384, Note_on_c, 0, 45, 76
2, 452424, Control_c, 0, 64, 104
2, 452432, Control_c, 0, 64, 40
2, 452440, Control_c, 0, 64, 0
2, 452456, Note_on_c, 0, 71, 0
2, 452492, Note_on_c, 0, 68, 75
2, 452516, Control_c, 0, 64, 88
2, 452524, Control_c, 0, 64, 127
2, 452612, Note_on_c, 0, 65, 76
2, 452640, Note_on_c, 0, 45, 0
2, 452640, Note_on_c, 0, 65, 0
2, 452640, Note_on_c, 0, 62, 0
2, 452708, Note_on_c, 0, 65, 0
2, 452720, Note_on_c, 0, 62, 73
2, 452720, Note_on_c, 0, 62, 93
2, 452724, Note_on_c, 0, 68, 0
2, 452724, Note_on_c, 0, 68, 0
2, 452728, Note_on_c, 0, 74, 0
2, 452792, Note_on_c, 0, 62, 0
2, 452816, Note_on_c, 0, 77, 0
2, 452816, Note_on_c, 0, 59, 73
2, 452920, Note_on_c, 0, 59, 0
2, 452924, Note_on_c, 0, 57, 83
2, 452956, Note_on_c, 0, 57, 0
2, 452984, Note_on_c, 0, 62, 0
2, 453060, Note_on_c, 0, 89, 98
2, 453060, Note_on_c, 0, 77, 101
2, 453060, Note_on_c, 0, 56, 72
2, 453060, Note_on_c, 0, 59, 74
2, 453060, Note_on_c, 0, 45, 76
2, 453060, Note_on_c, 0, 50, 73
2, 453072, Note_on_c, 0, 86, 87
2, 453080, Note_on_c, 0, 83, 68
2, 453096, Control_c, 0, 64, 88
2, 453104, Note_on_c, 0, 83, 0
2, 453104, Control_c, 0, 64, 40
2, 453112, Control_c, 0, 64, 0
2, 453128, Control_c, 0, 64, 56
2, 453136, Control_c, 0, 64, 127
2, 453168, Note_on_c, 0, 80, 76
2, 453280, Note_on_c, 0, 77, 74
2, 453316, Note_on_c, 0, 50, 0
2, 453316, Note_on_c, 0, 56, 0
2, 453316, Note_on_c, 0, 45, 0
2, 453316, Note_on_c, 0, 59, 0
2, 453360, Note_on_c, 0, 77, 0
2, 453380, Note_on_c, 0, 74, 77
2, 453456, Note_on_c, 0, 74, 0
2, 453488, Note_on_c, 0, 71, 77
2, 453504, Note_on_c, 0, 57, 0
2, 453564, Note_on_c, 0, 71, 0
2, 453588, Note_on_c, 0, 68, 75
2, 453692, Note_on_c, 0, 68, 0
2, 453692, Note_on_c, 0, 65, 75
2, 453768, Note_on_c, 0, 65, 0
2, 453800, Note_on_c, 0, 62, 76
2, 453872, Note_on_c, 0, 62, 0
2, 453904, Note_on_c, 0, 59, 81
2, 453932, Control_c, 0, 64, 88
2, 453956, Control_c, 0, 64, 127
2, 454004, Note_on_c, 0, 59, 0
2, 454012, Note_on_c, 0, 56, 78
2, 454084, Note_on_c, 0, 77, 0
2, 454120, Note_on_c, 0, 56, 0
2, 454120, Note_on_c, 0, 53, 76
2, 454196, Note_on_c, 0, 53, 0
2, 454248, Note_on_c, 0, 50, 75
2, 454320, Note_on_c, 0, 50, 0
2, 454356, Note_on_c, 0, 47, 74
2, 454444, Note_on_c, 0, 47, 0
2, 454460, Note_on_c, 0, 44, 74
2, 454572, Note_on_c, 0, 41, 73
2, 454592, Note_on_c, 0, 44, 0
2, 454652, Note_on_c, 0, 41, 0
2, 454680, Note_on_c, 0, 40, 73
2, 454760, Note_on_c, 0, 40, 0
2, 454768, Note_on_c, 0, 80, 0
2, 454792, Note_on_c, 0, 38, 74
2, 454804, Note_on_c, 0, 86, 0
2, 454812, Note_on_c, 0, 89, 0
2, 454876, Note_on_c, 0, 38, 0
2, 454904, Note_on_c, 0, 35, 76
2, 454980, Note_on_c, 0, 35, 0
2, 455040, Control_c, 0, 64, 104
2, 455044, Note_on_c, 0, 73, 93
2, 455044, Note_on_c, 0, 33, 76
2, 455044, Note_on_c, 0, 69, 71
2, 455044, Note_on_c, 0, 57, 67
2, 455048, Control_c, 0, 64, 0
2, 455104, Note_on_c, 0, 33, 0
2, 455104, Control_c, 0, 64, 104
2, 455112, Control_c, 0, 64, 127
2, 455156, Note_on_c, 0, 64, 73
2, 455268, Note_on_c, 0, 61, 73
2, 455268, Note_on_c, 0, 57, 75
2, 455308, Note_on_c, 0, 61, 0
2, 455372, Note_on_c, 0, 57, 74
2, 455456, Note_on_c, 0, 57, 0
2, 455464, Note_on_c, 0, 52, 72
2, 455476, Note_on_c, 0, 69, 0
2, 455488, Note_on_c, 0, 64, 0
2, 455524, Note_on_c, 0, 57, 0
2, 455540, Note_on_c, 0, 73, 0
2, 455560, Note_on_c, 0, 52, 0
2, 455576, Note_on_c, 0, 45, 69
2, 455616, Note_on_c, 0, 45, 0
2, 455692, Note_on_c, 0, 74, 85
2, 455692, Note_on_c, 0, 71, 88
2, 455692, Note_on_c, 0, 62, 79
2, 455692, Note_on_c, 0, 59, 73
2, 455692, Note_on_c, 0, 57, 76
2, 455692, Note_on_c, 0, 45, 77
2, 455728, Control_c, 0, 64, 40
2, 455736, Control_c, 0, 64, 0
2, 455784, Control_c, 0, 64, 56
2, 455792, Note_on_c, 0, 64, 75
2, 455792, Control_c, 0, 64, 127
2, 455892, Note_on_c, 0, 62, 76
2, 455948, Note_on_c, 0, 45, 0
2, 455948, Note_on_c, 0, 57, 0
2, 455948, Note_on_c, 0, 57, 0
2, 455948, Note_on_c, 0, 59, 0
2, 455980, Note_on_c, 0, 62, 0
2, 455992, Note_on_c, 0, 59, 78
2, 455992, Note_on_c, 0, 62, 74
2, 455992, Note_on_c, 0, 57, 78
2, 456084, Note_on_c, 0, 59, 0
2, 456104, Note_on_c, 0, 52, 74
2, 456152, Note_on_c, 0, 62, 0
2, 456172, Note_on_c, 0, 71, 0
2, 456172, Note_on_c, 0, 69, 99
2, 456192, Note_on_c, 0, 52, 0
2, 456204, Note_on_c, 0, 45, 76
2, 456220, Note_on_c, 0, 74, 0
2, 456240, Note_on_c, 0, 45, 0
2, 456248, Note_on_c, 0, 57, 0
2, 456248, Note_on_c, 0, 62, 0
2, 456252, Note_on_c, 0, 64, 0
2, 456272, Note_on_c, 0, 69, 0
2, 456324, Note_on_c, 0, 75, 90
2, 456324, Note_on_c, 0, 72, 75
2, 456324, Note_on_c, 0, 69, 93
2, 456324, Note_on_c, 0, 63, 73
2, 456324, Note_on_c, 0, 60, 73
2, 456324, Note_on_c, 0, 57, 77
2, 456372, Control_c, 0, 64, 104
2, 456380, Control_c, 0, 64, 40
2, 456388, Control_c, 0, 64, 0
2, 456416, Note_on_c, 0, 64, 76
2, 456444, Control_c, 0, 64, 104
2, 456448, Control_c, 0, 64, 127
2, 456516, Note_on_c, 0, 63, 76
2, 456580, Note_on_c, 0, 57, 0
2, 456580, Note_on_c, 0, 63, 0
2, 456580, Note_on_c, 0, 60, 0
2, 456588, Note_on_c, 0, 63, 0
2, 456616, Note_on_c, 0, 60, 76
2, 456616, Note_on_c, 0, 63, 74
2, 456616, Note_on_c, 0, 57, 74
2, 456676, Note_on_c, 0, 60, 0
2, 456712, Note_on_c, 0, 57, 78
2, 456776, Note_on_c, 0, 57, 0
2, 456796, Note_on_c, 0, 64, 0
2, 456816, Note_on_c, 0, 45, 76
2, 456844, Note_on_c, 0, 75, 0
2, 456844, Note_on_c, 0, 72, 0
2, 456852, Note_on_c, 0, 45, 0
2, 456872, Note_on_c, 0, 63, 0
2, 456872, Note_on_c, 0, 57, 0
2, 456916, Note_on_c, 0, 76, 89
2, 456916, Note_on_c, 0, 73, 82
2, 456916, Note_on_c, 0, 33, 76
2, 456916, Note_on_c, 0, 45, 73
2, 456952, Control_c, 0, 64, 40
2, 456960, Control_c, 0, 64, 0
2, 457008, Control_c, 0, 64, 104
2, 457016, Control_c, 0, 64, 127
2, 457028, Note_on_c, 0, 69, 80
2, 457080, Note_on_c, 0, 69, 98
2, 457136, Note_on_c, 0, 64, 79
2, 457172, Note_on_c, 0, 45, 0
2, 457172, Note_on_c, 0, 33, 0
2, 457184, Note_on_c, 0, 69, 0
2, 457184, Note_on_c, 0, 61, 79
2, 457216, Note_on_c, 0, 61, 0
2, 457216, Note_on_c, 0, 69, 0
2, 457224, Note_on_c, 0, 64, 0
2, 457232, Note_on_c, 0, 71, 97
2, 457332, Note_on_c, 0, 57, 83
2, 457348, Note_on_c, 0, 71, 0
2, 457348, Note_on_c, 0, 69, 0
2, 457360, Note_on_c, 0, 73, 0
2, 457376, Note_on_c, 0, 57, 0
2, 457396, Note_on_c, 0, 76, 0
2, 457396, Note_on_c, 0, 73, 97
2, 457416, Note_on_c, 0, 54, 88
2, 457440, Note_on_c, 0, 45, 83
2, 457472, Note_on_c, 0, 54, 0
2, 457476, Note_on_c, 0, 45, 0
2, 457516, Note_on_c, 0, 73, 0
2, 457564, Note_on_c, 0, 79, 98
2, 457564, Note_on_c, 0, 73, 73
2, 457564, Note_on_c, 0, 76, 93
2, 457564, Note_on_c, 0, 70, 73
2, 457588, Control_c, 0, 64, 88
2, 457596, Control_c, 0, 64, 0
2, 457644, Note_on_c, 0, 73, 0
2, 457652, Control_c, 0, 64, 88
2, 457656, Note_on_c, 0, 70, 78
2, 457660, Control_c, 0, 64, 127
2, 457760, Note_on_c, 0, 67, 77
2, 457832, Note_on_c, 0, 67, 0
2, 457864, Note_on_c, 0, 64, 85
2, 457900, Note_on_c, 0, 70, 0
2, 457900, Note_on_c, 0, 76, 0
2, 457952, Note_on_c, 0, 61, 78
2, 457956, Note_on_c, 0, 64, 0
2, 457964, Note_on_c, 0, 79, 0
2, 458052, Note_on_c, 0, 54, 81
2, 458076, Note_on_c, 0, 61, 0
2, 458108, Note_on_c, 0, 54, 0
2, 458180, Note_on_c, 0, 91, 102
2, 458180, Note_on_c, 0, 79, 93
2, 458180, Note_on_c, 0, 58, 76
2, 458180, Note_on_c, 0, 52, 73
2, 458180, Note_on_c, 0, 49, 73
2, 458180, Note_on_c, 0, 42, 76
2, 458188, Note_on_c, 0, 88, 84
2, 458192, Note_on_c, 0, 85, 83
2, 458204, Note_on_c, 0, 85, 0
2, 458280, Note_on_c, 0, 82, 80
2, 458384, Note_on_c, 0, 79, 79
2, 458452, Note_on_c, 0, 79, 0
2, 458480, Note_on_c, 0, 76, 78
2, 458500, Note_on_c, 0, 70, 0
2, 458544, Note_on_c, 0, 76, 0
2, 458584, Note_on_c, 0, 73, 78
2, 458648, Note_on_c, 0, 73, 0
2, 458680, Note_on_c, 0, 70, 78
2, 458784, Note_on_c, 0, 70, 0
2, 458784, Note_on_c, 0, 67, 78
2, 458820, Note_on_c, 0, 52, 0
2, 458820, Note_on_c, 0, 79, 0
2, 458820, Note_on_c, 0, 58, 0
2, 458820, Note_on_c, 0, 42, 0
2, 458820, Note_on_c, 0, 49, 0
2, 458856, Note_on_c, 0, 67, 0
2, 458888, Note_on_c, 0, 64, 77
2, 458956, Note_on_c, 0, 64, 0
2, 458992, Note_on_c, 0, 61, 77
2, 459068, Note_on_c, 0, 61, 0
2, 459088, Note_on_c, 0, 58, 76
2, 459192, Note_on_c, 0, 58, 0
2, 459196, Note_on_c, 0, 55, 76
2, 459260, Note_on_c, 0, 55, 0
2, 459300, Note_on_c, 0, 52, 76
2, 459364, Note_on_c, 0, 52, 0
2, 459404, Note_on_c, 0, 49, 75
2, 459480, Note_on_c, 0, 49, 0
2, 459504, Note_on_c, 0, 46, 75
2, 459612, Note_on_c, 0, 43, 74
2, 459616, Note_on_c, 0, 46, 0
2, 459664, Note_on_c, 0, 43, 0
2, 459712, Note_on_c, 0, 42, 74
2, 459780, Note_on_c, 0, 42, 0
2, 459796, Note_on_c, 0, 82, 0
2, 459808, Note_on_c, 0, 88, 0
2, 459808, Note_on_c, 0, 40, 73
2, 459816, Note_on_c, 0, 91, 0
2, 459888, Note_on_c, 0, 40, 0
2, 459920, Note_on_c, 0, 37, 74
2, 460012, Note_on_c, 0, 37, 0
2, 460036, Note_on_c, 0, 35, 78
2, 460036, Note_on_c, 0, 74, 72
2, 460036, Note_on_c, 0, 78, 88
2, 460052, Control_c, 0, 64, 72
2, 460060, Control_c, 0, 64, 0
2, 460072, Note_on_c, 0, 62, 63
2, 460072, Note_on_c, 0, 59, 68
2, 460072, Note_on_c, 0, 66, 70
2, 460104, Control_c, 0, 64, 72
2, 460108, Note_on_c, 0, 35, 0
2, 460116, Control_c, 0, 64, 127
2, 460160, Note_on_c, 0, 71, 78
2, 460272, Note_on_c, 0, 66, 79
2, 460360, Note_on_c, 0, 66, 0
2, 460360, Note_on_c, 0, 66, 0
2, 460384, Note_on_c, 0, 62, 80
2, 460388, Note_on_c, 0, 59, 0
2, 460396, Note_on_c, 0, 62, 0
2, 460412, Note_on_c, 0, 62, 0
2, 460428, Note_on_c, 0, 78, 76
2, 460480, Note_on_c, 0, 59, 79
2, 460492, Note_on_c, 0, 71, 0
2, 460496, Note_on_c, 0, 74, 0
2, 460532, Note_on_c, 0, 78, 0
2, 460564, Note_on_c, 0, 59, 0
2, 460572, Note_on_c, 0, 78, 0
2, 460592, Note_on_c, 0, 47, 79
2, 460608, Note_on_c, 0, 47, 0
2, 460720, Note_on_c, 0, 93, 107
2, 460720, Note_on_c, 0, 90, 85
2, 460720, Note_on_c, 0, 87, 81
2, 460720, Note_on_c, 0, 44, 81
2, 460720, Note_on_c, 0, 51, 73
2, 460720, Note_on_c, 0, 54, 75
2, 460720, Note_on_c, 0, 81, 86
2, 460720, Note_on_c, 0, 60, 76
2, 460748, Control_c, 0, 64, 56
2, 460756, Control_c, 0, 64, 0
2, 460772, Note_on_c, 0, 54, 0
2, 460780, Note_on_c, 0, 51, 0
2, 460804, Note_on_c, 0, 44, 0
2, 460804, Control_c, 0, 64, 127
2, 460820, Note_on_c, 0, 84, 80
2, 460924, Note_on_c, 0, 81, 79
2, 460976, Note_on_c, 0, 60, 0
2, 460996, Note_on_c, 0, 81, 0
2, 461020, Note_on_c, 0, 78, 79
2, 461100, Note_on_c, 0, 78, 0
2, 461112, Note_on_c, 0, 75, 78
2, 461212, Note_on_c, 0, 72, 78
2, 461216, Note_on_c, 0, 75, 0
2, 461272, Note_on_c, 0, 81, 0
2, 461272, Note_on_c, 0, 72, 0
2, 461308, Note_on_c, 0, 69, 78
2, 461392, Note_on_c, 0, 69, 0
2, 461416, Note_on_c, 0, 66, 78
2, 461484, Note_on_c, 0, 66, 0
2, 461508, Note_on_c, 0, 63, 78
2, 461612, Note_on_c, 0, 63, 0
2, 461612, Note_on_c, 0, 60, 77
2, 461672, Note_on_c, 0, 60, 0
2, 461712, Note_on_c, 0, 57, 77
2, 461784, Note_on_c, 0, 57, 0
2, 461812, Note_on_c, 0, 54, 76
2, 461888, Note_on_c, 0, 54, 0
2, 461904, Note_on_c, 0, 51, 76
2, 462012, Note_on_c, 0, 48, 76
2, 462016, Note_on_c, 0, 51, 0
2, 462060, Note_on_c, 0, 48, 0
2, 462108, Note_on_c, 0, 45, 75
2, 462184, Note_on_c, 0, 45, 0
2, 462216, Note_on_c, 0, 44, 75
2, 462284, Note_on_c, 0, 44, 0
2, 462292, Note_on_c, 0, 93, 0
2, 462292, Note_on_c, 0, 87, 0
2, 462296, Note_on_c, 0, 90, 0
2, 462308, Note_on_c, 0, 84, 0
2, 462320, Note_on_c, 0, 42, 74
2, 462384, Note_on_c, 0, 42, 0
2, 462416, Note_on_c, 0, 39, 74
2, 462524, Note_on_c, 0, 39, 0
2, 462612, Note_on_c, 0, 37, 78
2, 462612, Note_on_c, 0, 76, 84
2, 462612, Note_on_c, 0, 73, 73
2, 462612, Note_on_c, 0, 49, 76
2, 462612, Note_on_c, 0, 61, 70
2, 462612, Note_on_c, 0, 64, 76
2, 462612, Note_on_c, 0, 56, 70
2, 462616, Control_c, 0, 64, 88
2, 462628, Control_c, 0, 64, 0
2, 462672, Note_on_c, 0, 37, 0
2, 462672, Control_c, 0, 64, 127
2, 462716, Note_on_c, 0, 68, 76
2, 462832, Note_on_c, 0, 64, 76
2, 462868, Note_on_c, 0, 64, 0
2, 462868, Note_on_c, 0, 56, 0
2, 462872, Note_on_c, 0, 64, 0
2, 462916, Note_on_c, 0, 68, 0
2, 462924, Note_on_c, 0, 61, 75
2, 462944, Note_on_c, 0, 49, 0
2, 462948, Note_on_c, 0, 73, 0
2, 462968, Note_on_c, 0, 61, 0
2, 462980, Note_on_c, 0, 61, 0
2, 462992, Note_on_c, 0, 76, 0
2, 463008, Note_on_c, 0, 56, 75
2, 463100, Note_on_c, 0, 56, 0
2, 463100, Note_on_c, 0, 49, 74
2, 463132, Note_on_c, 0, 49, 0
2, 463224, Note_on_c, 0, 83, 93
2, 463232, Note_on_c, 0, 78, 84
2, 463244, Control_c, 0, 64, 56
2, 463252, Control_c, 0, 64, 0
2, 463300, Control_c, 0, 64, 104
2, 463308, Control_c, 0, 64, 127
2, 463320, Note_on_c, 0, 73, 77
2, 463436, Note_on_c, 0, 69, 76
2, 463444, Note_on_c, 0, 83, 0
2, 463468, Note_on_c, 0, 69, 0
2, 463520, Note_on_c, 0, 66, 76
2, 463596, Note_on_c, 0, 78, 0
2, 463596, Note_on_c, 0, 61, 76
2, 463656, Note_on_c, 0, 66, 0
2, 463660, Note_on_c, 0, 81, 94
2, 463696, Note_on_c, 0, 73, 0
2, 463720, Note_on_c, 0, 54, 75
2, 463732, Note_on_c, 0, 61, 0
2, 463748, Note_on_c, 0, 54, 0
2, 463760, Note_on_c, 0, 81, 0
2, 463832, Note_on_c, 0, 76, 88
2, 463832, Note_on_c, 0, 73, 75
2, 463832, Note_on_c, 0, 49, 78
2, 463832, Note_on_c, 0, 61, 68
2, 463832, Note_on_c, 0, 56, 69
2, 463832, Note_on_c, 0, 64, 70
2, 463832, Note_on_c, 0, 37, 73
2, 463860, Control_c, 0, 64, 56
2, 463872, Control_c, 0, 64, 0
2, 463912, Note_on_c, 0, 68, 67
2, 463928, Control_c, 0, 64, 127
2, 464008, Note_on_c, 0, 64, 79
2, 464052, Note_on_c, 0, 64, 0
2, 464088, Note_on_c, 0, 64, 0
2, 464088, Note_on_c, 0, 37, 0
2, 464088, Note_on_c, 0, 56, 0
2, 464112, Note_on_c, 0, 61, 73
2, 464152, Note_on_c, 0, 68, 0
2, 464180, Note_on_c, 0, 73, 0
2, 464196, Note_on_c, 0, 61, 0
2, 464200, Note_on_c, 0, 56, 73
2, 464224, Note_on_c, 0, 76, 0
2, 464292, Note_on_c, 0, 49, 0
2, 464296, Note_on_c, 0, 49, 73
2, 464304, Note_on_c, 0, 61, 0
2, 464304, Note_on_c, 0, 56, 0
2, 464328, Note_on_c, 0, 49, 0
2, 464404, Note_on_c, 0, 83, 92
2, 464416, Note_on_c, 0, 78, 80
2, 464444, Control_c, 0, 64, 104
2, 464452, Control_c, 0, 64, 40
2, 464460, Control_c, 0, 64, 0
2, 464496, Note_on_c, 0, 73, 69
2, 464516, Control_c, 0, 64, 127
2, 464592, Note_on_c, 0, 69, 74
2, 464656, Note_on_c, 0, 69, 0
2, 464700, Note_on_c, 0, 83, 0
2, 464700, Note_on_c, 0, 66, 64
2, 464776, Note_on_c, 0, 61, 74
2, 464816, Note_on_c, 0, 78, 0
2, 464836, Note_on_c, 0, 81, 94
2, 464856, Note_on_c, 0, 66, 0
2, 464876, Note_on_c, 0, 73, 0
2, 464892, Note_on_c, 0, 81, 0
2, 464896, Note_on_c, 0, 54, 77
2, 464912, Note_on_c, 0, 61, 0
2, 464916, Note_on_c, 0, 54, 0
2, 464992, Note_on_c, 0, 76, 87
2, 464992, Note_on_c, 0, 73, 73
2, 464992, Note_on_c, 0, 61, 74
2, 464992, Note_on_c, 0, 49, 78
2, 464992, Note_on_c, 0, 37, 72
2, 464992, Note_on_c, 0, 64, 76
2, 464992, Note_on_c, 0, 56, 76
2, 465020, Control_c, 0, 64, 72
2, 465028, Control_c, 0, 64, 0
2, 465072, Control_c, 0, 64, 88
2, 465080, Note_on_c, 0, 68, 71
2, 465080, Control_c, 0, 64, 127
2, 465180, Note_on_c, 0, 66, 54
2, 465184, Note_on_c, 0, 64, 53
2, 465208, Note_on_c, 0, 64, 0
2, 465216, Note_on_c, 0, 66, 0
2, 465276, Note_on_c, 0, 61, 79
2, 465344, Note_on_c, 0, 61, 0
2, 465368, Note_on_c, 0, 56, 71
2, 465392, Note_on_c, 0, 76, 0
2, 465464, Note_on_c, 0, 61, 0
2, 465472, Note_on_c, 0, 56, 0
2, 465472, Note_on_c, 0, 49, 74
2, 465476, Note_on_c, 0, 68, 0
2, 465508, Note_on_c, 0, 49, 0
2, 465548, Note_on_c, 0, 73, 0
2, 465580, Note_on_c, 0, 78, 88
2, 465580, Note_on_c, 0, 74, 73
2, 465580, Note_on_c, 0, 47, 80
2, 465580, Note_on_c, 0, 59, 74
2, 465580, Note_on_c, 0, 71, 78
2, 465580, Note_on_c, 0, 66, 76
2, 465580, Note_on_c, 0, 62, 73
2, 465580, Note_on_c, 0, 35, 73
2, 465588, Note_on_c, 0, 49, 0
2, 465608, Control_c, 0, 64, 104
2, 465616, Control_c, 0, 64, 40
2, 465624, Control_c, 0, 64, 0
2, 465632, Note_on_c, 0, 37, 0
2, 465632, Note_on_c, 0, 56, 0
2, 465632, Note_on_c, 0, 64, 0
2, 465668, Control_c, 0, 64, 127
2, 465680, Note_on_c, 0, 71, 78
2, 465780, Note_on_c, 0, 66, 68
2, 465884, Note_on_c, 0, 62, 80
2, 465888, Note_on_c, 0, 66, 0
2, 465896, Note_on_c, 0, 47, 0
2, 465920, Note_on_c, 0, 62, 0
2, 465928, Note_on_c, 0, 59, 0
2, 465980, Note_on_c, 0, 59, 74
2, 466020, Note_on_c, 0, 74, 0
2, 466052, Note_on_c, 0, 59, 0
2, 466088, Note_on_c, 0, 47, 74
2, 466092, Note_on_c, 0, 71, 0
2, 466092, Note_on_c, 0, 71, 0
2, 466104, Note_on_c, 0, 47, 0
2, 466120, Note_on_c, 0, 78, 0
2, 466200, Note_on_c, 0, 80, 93
2, 466200, Note_on_c, 0, 76, 78
2, 466200, Note_on_c, 0, 74, 77
2, 466200, Note_on_c, 0, 52, 83
2, 466200, Note_on_c, 0, 62, 75
2, 466200, Note_on_c, 0, 71, 69
2, 466200, Note_on_c, 0, 68, 73
2, 466200, Note_on_c, 0, 59, 73
2, 466200, Note_on_c, 0, 40, 73
2, 466220, Note_on_c, 0, 66, 0
2, 466220, Note_on_c, 0, 35, 0
2, 466220, Note_on_c, 0, 62, 0
2, 466228, Control_c, 0, 64, 40
2, 466236, Control_c, 0, 64, 0
2, 466264, Control_c, 0, 64, 24
2, 466272, Control_c, 0, 64, 104
2, 466280, Control_c, 0, 64, 127
2, 466296, Note_on_c, 0, 71, 78
2, 466404, Note_on_c, 0, 68, 74
2, 466468, Note_on_c, 0, 68, 0
2, 466492, Note_on_c, 0, 64, 72
2, 466528, Note_on_c, 0, 62, 0
2, 466604, Note_on_c, 0, 62, 44
2, 466608, Note_on_c, 0, 61, 43
2, 466624, Note_on_c, 0, 71, 0
2, 466624, Note_on_c, 0, 71, 0
2, 466624, Note_on_c, 0, 74, 0
2, 466632, Note_on_c, 0, 61, 0
2, 466652, Note_on_c, 0, 76, 0
2, 466680, Note_on_c, 0, 80, 0
2, 466708, Note_on_c, 0, 52, 73
2, 466748, Note_on_c, 0, 52, 0
2, 466752, Note_on_c, 0, 62, 0
2, 466816, Note_on_c, 0, 85, 97
2, 466824, Note_on_c, 0, 80, 83
2, 466840, Note_on_c, 0, 40, 0
2, 466840, Note_on_c, 0, 68, 0
2, 466840, Note_on_c, 0, 59, 0
2, 466864, Control_c, 0, 64, 56
2, 466868, Control_c, 0, 64, 0
2, 466900, Control_c, 0, 64, 72
2, 466908, Control_c, 0, 64, 127
2, 466920, Note_on_c, 0, 76, 70
2, 466988, Note_on_c, 0, 64, 0
2, 467004, Note_on_c, 0, 52, 0
2, 467008, Note_on_c, 0, 85, 0
2, 467028, Note_on_c, 0, 74, 61
2, 467080, Note_on_c, 0, 74, 0
2, 467100, Note_on_c, 0, 71, 67
2, 467156, Note_on_c, 0, 71, 0
2, 467164, Note_on_c, 0, 68, 68
2, 467232, Note_on_c, 0, 83, 94
2, 467240, Note_on_c, 0, 80, 0
2, 467260, Note_on_c, 0, 68, 0
2, 467272, Note_on_c, 0, 64, 62
2, 467280, Note_on_c, 0, 76, 0
2, 467288, Note_on_c, 0, 83, 0
2, 467316, Note_on_c, 0, 64, 0
2, 467404, Note_on_c, 0, 76, 88
2, 467404, Note_on_c, 0, 73, 77
2, 467404, Note_on_c, 0, 45, 74
2, 467404, Note_on_c, 0, 33, 78
2, 467404, Note_on_c, 0, 64, 69
2, 467404, Note_on_c, 0, 61, 73
2, 467404, Note_on_c, 0, 57, 73
2, 467444, Control_c, 0, 64, 72
2, 467452, Control_c, 0, 64, 0
2, 467496, Note_on_c, 0, 69, 74
2, 467500, Control_c, 0, 64, 56
2, 467504, Control_c, 0, 64, 127
2, 467592, Note_on_c, 0, 64, 78
2, 467644, Note_on_c, 0, 64, 0
2, 467700, Note_on_c, 0, 61, 78
2, 467752, Note_on_c, 0, 64, 0
2, 467760, Note_on_c, 0, 73, 0
2, 467776, Note_on_c, 0, 61, 0
2, 467792, Note_on_c, 0, 57, 78
2, 467804, Note_on_c, 0, 76, 0
2, 467824, Note_on_c, 0, 45, 0
2, 467900, Note_on_c, 0, 45, 77
2, 467936, Note_on_c, 0, 69, 0
2, 467936, Note_on_c, 0, 33, 0
2, 467996, Note_on_c, 0, 45, 0
2, 468000, Note_on_c, 0, 57, 0
2, 468000, Note_on_c, 0, 85, 97
2, 468008, Note_on_c, 0, 78, 84
2, 468032, Control_c, 0, 64, 104
2, 468040, Control_c, 0, 64, 56
2, 468044, Note_on_c, 0, 61, 0
2, 468044, Note_on_c, 0, 57, 0
2, 468048, Control_c, 0, 64, 0
2, 468068, Control_c, 0, 64, 88
2, 468080, Control_c, 0, 64, 127
2, 468092, Note_on_c, 0, 74, 77
2, 468188, Note_on_c, 0, 73, 76
2, 468240, Note_on_c, 0, 73, 0
2, 468272, Note_on_c, 0, 69, 76
2, 468320, Note_on_c, 0, 69, 0
2, 468332, Note_on_c, 0, 66, 75
2, 468392, Note_on_c, 0, 85, 0
2, 468396, Note_on_c, 0, 66, 0
2, 468400, Note_on_c, 0, 78, 0
2, 468408, Note_on_c, 0, 62, 73
2, 468436, Note_on_c, 0, 62, 0
2, 468468, Note_on_c, 0, 74, 0
2, 468480, Note_on_c, 0, 83, 92
2, 468488, Note_on_c, 0, 74, 71
2, 468488, Note_on_c, 0, 80, 76
2, 468500, Note_on_c, 0, 71, 59
2, 468504, Note_on_c, 0, 68, 52
2, 468504, Note_on_c, 0, 64, 68
2, 468512, Note_on_c, 0, 80, 0
2, 468524, Note_on_c, 0, 68, 0
2, 468524, Note_on_c, 0, 71, 0
2, 468524, Note_on_c, 0, 83, 0
2, 468532, Note_on_c, 0, 64, 0
2, 468548, Note_on_c, 0, 74, 0
2, 468604, Note_on_c, 0, 76, 91
2, 468604, Note_on_c, 0, 73, 77
2, 468604, Note_on_c, 0, 45, 70
2, 468604, Note_on_c, 0, 33, 73
2, 468604, Note_on_c, 0, 64, 71
2, 468604, Note_on_c, 0, 61, 68
2, 468604, Note_on_c, 0, 57, 70
2, 468636, Control_c, 0, 64, 40
2, 468644, Control_c, 0, 64, 0
2, 468684, Control_c, 0, 64, 56
2, 468688, Note_on_c, 0, 69, 78
2, 468692, Control_c, 0, 64, 127
2, 468796, Note_on_c, 0, 64, 78
2, 468872, Note_on_c, 0, 64, 0
2, 468892, Note_on_c, 0, 61, 77
2, 468924, Note_on_c, 0, 61, 0
2, 468944, Note_on_c, 0, 69, 0
2, 468948, Note_on_c, 0, 73, 0
2, 468976, Note_on_c, 0, 57, 77
2, 469008, Note_on_c, 0, 76, 0
2, 469008, Note_on_c, 0, 45, 0
2, 469064, Note_on_c, 0, 33, 0
2, 469068, Note_on_c, 0, 45, 78
2, 469104, Note_on_c, 0, 45, 0
2, 469164, Note_on_c, 0, 85, 94
2, 469164, Note_on_c, 0, 78, 84
2, 469176, Note_on_c, 0, 57, 0
2, 469176, Control_c, 0, 64, 88
2, 469184, Control_c, 0, 64, 24
2, 469192, Control_c, 0, 64, 0
2, 469216, Control_c, 0, 64, 72
2, 469224, Control_c, 0, 64, 127
2, 469244, Note_on_c, 0, 61, 0
2, 469244, Note_on_c, 0, 64, 0
2, 469244, Note_on_c, 0, 57, 0
2, 469252, Note_on_c, 0, 74, 78
2, 469336, Note_on_c, 0, 73, 77
2, 469388, Note_on_c, 0, 73, 0
2, 469404, Note_on_c, 0, 69, 76
2, 469440, Note_on_c, 0, 85, 0
2, 469460, Note_on_c, 0, 69, 0
2, 469476, Note_on_c, 0, 78, 0
2, 469500, Note_on_c, 0, 62, 76
2, 469532, Note_on_c, 0, 74, 0
2, 469548, Note_on_c, 0, 62, 0
2, 469572, Note_on_c, 0, 68, 67
2, 469572, Note_on_c, 0, 71, 66
2, 469580, Note_on_c, 0, 64, 69
2, 469588, Note_on_c, 0, 83, 88
2, 469592, Note_on_c, 0, 80, 80
2, 469596, Note_on_c, 0, 74, 72
2, 469604, Note_on_c, 0, 71, 0
2, 469604, Note_on_c, 0, 68, 0
2, 469628, Note_on_c, 0, 64, 0
2, 469632, Note_on_c, 0, 83, 0
2, 469636, Note_on_c, 0, 80, 0
2, 469640, Note_on_c, 0, 74, 0
2, 469724, Note_on_c, 0, 76, 93
2, 469724, Note_on_c, 0, 73, 78
2, 469724, Note_on_c, 0, 64, 73
2, 469724, Note_on_c, 0, 61, 73
2, 469724, Note_on_c, 0, 57, 73
2, 469744, Control_c, 0, 64, 56
2, 469752, Control_c, 0, 64, 0
2, 469792, Control_c, 0, 64, 56
2, 469800, Control_c, 0, 64, 127
2, 469808, Note_on_c, 0, 69, 76
2, 469908, Note_on_c, 0, 64, 76
2, 469992, Note_on_c, 0, 64, 0
2, 470004, Note_on_c, 0, 61, 75
2, 470040, Note_on_c, 0, 61, 0
2, 470092, Note_on_c, 0, 57, 75
2, 470168, Note_on_c, 0, 57, 0
2, 470192, Note_on_c, 0, 45, 76
2, 470208, Note_on_c, 0, 45, 0
2, 470236, Note_on_c, 0, 73, 0
2, 470248, Note_on_c, 0, 76, 0
2, 470276, Note_on_c, 0, 69, 0
2, 470292, Note_on_c, 0, 78, 94
2, 470292, Note_on_c, 0, 75, 77
2, 470292, Note_on_c, 0, 57, 72
2, 470292, Note_on_c, 0, 66, 74
2, 470292, Note_on_c, 0, 45, 78
2, 470292, Note_on_c, 0, 63, 73
2, 470292, Note_on_c, 0, 61, 73
2, 470300, Control_c, 0, 64, 56
2, 470308, Control_c, 0, 64, 0
2, 470332, Control_c, 0, 64, 56
2, 470340, Control_c, 0, 64, 127
2, 470364, Note_on_c, 0, 61, 0
2, 470364, Note_on_c, 0, 57, 0
2, 470364, Note_on_c, 0, 64, 0
2, 470400, Note_on_c, 0, 73, 76
2, 470412, Note_on_c, 0, 75, 0
2, 470416, Note_on_c, 0, 78, 0
2, 470440, Note_on_c, 0, 73, 0
2, 470508, Note_on_c, 0, 69, 76
2, 470588, Note_on_c, 0, 66, 75
2, 470592, Note_on_c, 0, 57, 0
2, 470652, Note_on_c, 0, 66, 0
2, 470660, Note_on_c, 0, 63, 75
2, 470708, Note_on_c, 0, 45, 0
2, 470708, Note_on_c, 0, 69, 0
2, 470756, Note_on_c, 0, 63, 0
2, 470772, Note_on_c, 0, 57, 74
2, 470820, Note_on_c, 0, 57, 0
2, 470824, Note_on_c, 0, 66, 0
2, 470912, Note_on_c, 0, 80, 97
2, 470912, Note_on_c, 0, 75, 77
2, 470912, Note_on_c, 0, 44, 80
2, 470912, Note_on_c, 0, 56, 68
2, 470912, Note_on_c, 0, 68, 72
2, 470912, Note_on_c, 0, 63, 73
2, 470912, Note_on_c, 0, 60, 73
2, 470932, Note_on_c, 0, 63, 0
2, 470932, Note_on_c, 0, 61, 0
2, 470936, Control_c, 0, 64, 104
2, 470944, Control_c, 0, 64, 40
2, 470952, Control_c, 0, 64, 0
2, 470956, Note_on_c, 0, 75, 0
2, 470960, Control_c, 0, 64, 40
2, 470968, Control_c, 0, 64, 104
2, 470976, Control_c, 0, 64, 127
2, 470988, Note_on_c, 0, 72, 76
2, 471004, Note_on_c, 0, 80, 0
2, 471164, Note_on_c, 0, 68, 76
2, 471240, Note_on_c, 0, 63, 74
2, 471264, Note_on_c, 0, 68, 0
2, 471304, Note_on_c, 0, 63, 0
2, 471308, Note_on_c, 0, 60, 74
2, 471384, Note_on_c, 0, 60, 0
2, 471388, Note_on_c, 0, 72, 0
2, 471388, Note_on_c, 0, 68, 0
2, 471388, Note_on_c, 0, 56, 74
2, 471424, Note_on_c, 0, 56, 0
2, 471472, Note_on_c, 0, 88, 98
2, 471472, Note_on_c, 0, 84, 85
2, 471536, Note_on_c, 0, 84, 0
2, 471552, Note_on_c, 0, 63, 0
2, 471552, Note_on_c, 0, 60, 0
2, 471556, Note_on_c, 0, 78, 78
2, 471584, Note_on_c, 0, 44, 0
2, 471592, Note_on_c, 0, 78, 0
2, 471600, Note_on_c, 0, 56, 0
2, 471644, Note_on_c, 0, 88, 0
2, 471656, Note_on_c, 0, 80, 77
2, 471708, Note_on_c, 0, 80, 0
2, 471740, Note_on_c, 0, 75, 76
2, 471796, Note_on_c, 0, 75, 0
2, 471808, Note_on_c, 0, 72, 75
2, 471872, Note_on_c, 0, 87, 97
2, 471892, Note_on_c, 0, 72, 0
2, 471908, Note_on_c, 0, 68, 78
2, 471924, Note_on_c, 0, 87, 0
2, 471932, Note_on_c, 0, 68, 0
2, 472016, Note_on_c, 0, 80, 94
2, 472016, Note_on_c, 0, 76, 77
2, 472016, Note_on_c, 0, 49, 70
2, 472016, Note_on_c, 0, 37, 79
2, 472016, Note_on_c, 0, 64, 73
2, 472016, Note_on_c, 0, 68, 76
2, 472016, Note_on_c, 0, 61, 70
2, 472060, Control_c, 0, 64, 56
2, 472068, Control_c, 0, 64, 0
2, 472096, Note_on_c, 0, 73, 78
2, 472120, Control_c, 0, 64, 72
2, 472128, Control_c, 0, 64, 127
2, 472196, Note_on_c, 0, 68, 77
2, 472280, Note_on_c, 0, 68, 0
2, 472288, Note_on_c, 0, 49, 0
2, 472292, Note_on_c, 0, 37, 0
2, 472296, Note_on_c, 0, 64, 77
2, 472332, Note_on_c, 0, 64, 0
2, 472404, Note_on_c, 0, 56, 76
2, 472420, Note_on_c, 0, 80, 0
2, 472440, Note_on_c, 0, 56, 0
2, 472448, Note_on_c, 0, 76, 0
2, 472500, Note_on_c, 0, 49, 76
2, 472536, Note_on_c, 0, 73, 0
2, 472548, Note_on_c, 0, 49, 0
2, 472600, Note_on_c, 0, 82, 96
2, 472600, Note_on_c, 0, 78, 81
2, 472600, Note_on_c, 0, 76, 79
2, 472600, Note_on_c, 0, 30, 78
2, 472600, Note_on_c, 0, 42, 72
2, 472600, Note_on_c, 0, 70, 76
2, 472600, Note_on_c, 0, 64, 70
2, 472600, Note_on_c, 0, 66, 78
2, 472640, Control_c, 0, 64, 88
2, 472652, Control_c, 0, 64, 40
2, 472656, Note_on_c, 0, 70, 0
2, 472656, Note_on_c, 0, 61, 0
2, 472656, Control_c, 0, 64, 0
2, 472664, Control_c, 0, 64, 40
2, 472672, Control_c, 0, 64, 88
2, 472680, Note_on_c, 0, 73, 79
2, 472680, Control_c, 0, 64, 127
2, 472780, Note_on_c, 0, 70, 78
2, 472832, Note_on_c, 0, 70, 0
2, 472876, Note_on_c, 0, 66, 78
2, 472944, Note_on_c, 0, 66, 0
2, 472944, Note_on_c, 0, 76, 0
2, 472952, Note_on_c, 0, 64, 78
2, 472980, Note_on_c, 0, 78, 0
2, 472992, Note_on_c, 0, 64, 0
2, 472992, Note_on_c, 0, 64, 0
2, 473020, Note_on_c, 0, 73, 0
2, 473060, Note_on_c, 0, 54, 77
2, 473064, Note_on_c, 0, 82, 0
2, 473100, Note_on_c, 0, 30, 0
2, 473156, Note_on_c, 0, 54, 0
2, 473168, Note_on_c, 0, 83, 93
2, 473168, Note_on_c, 0, 81, 75
2, 473168, Note_on_c, 0, 78, 76
2, 473168, Note_on_c, 0, 35, 83
2, 473168, Note_on_c, 0, 71, 75
2, 473168, Note_on_c, 0, 47, 70
2, 473168, Note_on_c, 0, 63, 70
2, 473200, Control_c, 0, 64, 56
2, 473204, Control_c, 0, 64, 0
2, 473240, Note_on_c, 0, 64, 0
2, 473240, Note_on_c, 0, 42, 0
2, 473240, Note_on_c, 0, 68, 0
2, 473244, Control_c, 0, 64, 88
2, 473252, Control_c, 0, 64, 127
2, 473260, Note_on_c, 0, 75, 78
2, 473364, Note_on_c, 0, 71, 78
2, 473424, Note_on_c, 0, 66, 0
2, 473444, Note_on_c, 0, 71, 0
2, 473448, Note_on_c, 0, 69, 77
2, 473452, Note_on_c, 0, 78, 0
2, 473484, Note_on_c, 0, 81, 0
2, 473528, Note_on_c, 0, 69, 0
2, 473536, Note_on_c, 0, 83, 0
2, 473536, Note_on_c, 0, 66, 76
2, 473572, Note_on_c, 0, 66, 0
2, 473632, Note_on_c, 0, 59, 77
2, 473684, Note_on_c, 0, 35, 0
2, 473748, Note_on_c, 0, 75, 0
2, 473752, Note_on_c, 0, 92, 99
2, 473752, Note_on_c, 0, 87, 88
2, 473752, Note_on_c, 0, 57, 83
2, 473808, Note_on_c, 0, 63, 0
2, 473808, Note_on_c, 0, 47, 0
2, 473848, Note_on_c, 0, 71, 0
2, 473848, Note_on_c, 0, 83, 79
2, 473944, Note_on_c, 0, 81, 78
2, 473948, Note_on_c, 0, 83, 0
2, 474028, Note_on_c, 0, 92, 0
2, 474028, Note_on_c, 0, 81, 0
2, 474032, Note_on_c, 0, 69, 75
2, 474036, Note_on_c, 0, 78, 78
2, 474096, Note_on_c, 0, 78, 0
2, 474104, Note_on_c, 0, 63, 77
2, 474192, Note_on_c, 0, 90, 93
2, 474192, Note_on_c, 0, 66, 73
2, 474192, Note_on_c, 0, 69, 74
2, 474192, Note_on_c, 0, 75, 73
2, 474196, Note_on_c, 0, 87, 0
2, 474224, Note_on_c, 0, 63, 0
2, 474228, Note_on_c, 0, 71, 78
2, 474260, Note_on_c, 0, 71, 0
2, 474268, Note_on_c, 0, 69, 0
2, 474268, Note_on_c, 0, 90, 0
2, 474268, Note_on_c, 0, 59, 0
2, 474340, Note_on_c, 0, 88, 93
2, 474340, Note_on_c, 0, 83, 81
2, 474340, Note_on_c, 0, 40, 82
2, 474340, Note_on_c, 0, 64, 75
2, 474340, Note_on_c, 0, 68, 79
2, 474340, Note_on_c, 0, 56, 70
2, 474352, Control_c, 0, 64, 88
2, 474360, Control_c, 0, 64, 24
2, 474364, Note_on_c, 0, 57, 0
2, 474368, Control_c, 0, 64, 0
2, 474376, Note_on_c, 0, 52, 73
2, 474392, Control_c, 0, 64, 24
2, 474400, Control_c, 0, 64, 88
2, 474404, Control_c, 0, 64, 127
2, 474432, Note_on_c, 0, 80, 77
2, 474448, Note_on_c, 0, 75, 0
2, 474448, Note_on_c, 0, 69, 0
2, 474448, Note_on_c, 0, 66, 0
2, 474544, Note_on_c, 0, 76, 78
2, 474572, Note_on_c, 0, 68, 0
2, 474612, Note_on_c, 0, 64, 0
2, 474632, Note_on_c, 0, 71, 78
2, 474684, Note_on_c, 0, 88, 0
2, 474696, Note_on_c, 0, 52, 0
2, 474704, Note_on_c, 0, 76, 0
2, 474708, Note_on_c, 0, 68, 78
2, 474724, Note_on_c, 0, 80, 0
2, 474748, Note_on_c, 0, 71, 0
2, 474772, Note_on_c, 0, 40, 0
2, 474784, Note_on_c, 0, 68, 0
2, 474788, Note_on_c, 0, 64, 77
2, 474800, Note_on_c, 0, 83, 0
2, 474824, Note_on_c, 0, 64, 0
2, 474908, Note_on_c, 0, 86, 94
2, 474908, Note_on_c, 0, 83, 79
2, 474908, Note_on_c, 0, 74, 76
2, 474908, Note_on_c, 0, 52, 73
2, 474908, Note_on_c, 0, 40, 76
2, 474916, Note_on_c, 0, 80, 77
2, 474948, Control_c, 0, 64, 72
2, 474956, Control_c, 0, 64, 0
2, 474980, Note_on_c, 0, 56, 0
2, 474988, Note_on_c, 0, 80, 0
2, 474996, Control_c, 0, 64, 127
2, 475004, Note_on_c, 0, 74, 76
2, 475012, Note_on_c, 0, 80, 76
2, 475060, Note_on_c, 0, 74, 0
2, 475088, Note_on_c, 0, 80, 0
2, 475108, Note_on_c, 0, 77, 77
2, 475172, Note_on_c, 0, 77, 0
2, 475192, Note_on_c, 0, 71, 76
2, 475252, Note_on_c, 0, 71, 0
2, 475264, Note_on_c, 0, 83, 0
2, 475272, Note_on_c, 0, 68, 76
2, 475336, Note_on_c, 0, 68, 0
2, 475348, Note_on_c, 0, 65, 75
2, 475388, Note_on_c, 0, 65, 0
2, 475452, Note_on_c, 0, 83, 75
2, 475452, Note_on_c, 0, 80, 74
2, 475452, Note_on_c, 0, 52, 80
2, 475452, Note_on_c, 0, 86, 81
2, 475532, Note_on_c, 0, 74, 75
2, 475544, Note_on_c, 0, 40, 0
2, 475548, Note_on_c, 0, 52, 0
2, 475548, Note_on_c, 0, 74, 0
2, 475620, Note_on_c, 0, 74, 0
2, 475624, Note_on_c, 0, 77, 76
2, 475688, Note_on_c, 0, 77, 0
2, 475716, Note_on_c, 0, 71, 75
2, 475784, Note_on_c, 0, 71, 0
2, 475796, Note_on_c, 0, 68, 75
2, 475864, Note_on_c, 0, 68, 0
2, 475872, Note_on_c, 0, 80, 0
2, 475880, Note_on_c, 0, 65, 74
2, 475888, Note_on_c, 0, 86, 0
2, 475888, Note_on_c, 0, 86, 0
2, 475916, Note_on_c, 0, 83, 0
2, 475920, Note_on_c, 0, 65, 0
2, 475988, Note_on_c, 0, 88, 99
2, 475988, Note_on_c, 0, 76, 79
2, 475996, Note_on_c, 0, 83, 78
2, 476004, Control_c, 0, 64, 72
2, 476008, Control_c, 0, 64, 0
2, 476032, Control_c, 0, 64, 24
2, 476036, Note_on_c, 0, 83, 0
2, 476040, Control_c, 0, 64, 88
2, 476048, Control_c, 0, 64, 127
2, 476064, Note_on_c, 0, 80, 83
2, 476072, Note_on_c, 0, 83, 59
2, 476164, Note_on_c, 0, 76, 78
2, 476228, Note_on_c, 0, 76, 0
2, 476240, Note_on_c, 0, 80, 0
2, 476248, Note_on_c, 0, 71, 76
2, 476276, Note_on_c, 0, 83, 0
2, 476320, Note_on_c, 0, 71, 0
2, 476324, Note_on_c, 0, 68, 75
2, 476364, Note_on_c, 0, 88, 0
2, 476412, Note_on_c, 0, 68, 0
2, 476412, Note_on_c, 0, 64, 74
2, 476444, Note_on_c, 0, 52, 0
2, 476448, Note_on_c, 0, 64, 0
2, 476516, Note_on_c, 0, 89, 94
2, 476516, Note_on_c, 0, 86, 84
2, 476516, Note_on_c, 0, 83, 80
2, 476516, Note_on_c, 0, 77, 81
2, 476552, Control_c, 0, 64, 72
2, 476560, Control_c, 0, 64, 24
2, 476564, Note_on_c, 0, 83, 0
2, 476568, Control_c, 0, 64, 0
2, 476584, Control_c, 0, 64, 40
2, 476592, Control_c, 0, 64, 104
2, 476600, Control_c, 0, 64, 127
2, 476604, Note_on_c, 0, 77, 70
2, 476628, Note_on_c, 0, 76, 0
2, 476704, Note_on_c, 0, 74, 71
2, 476772, Note_on_c, 0, 77, 0
2, 476776, Note_on_c, 0, 74, 0
2, 476792, Note_on_c, 0, 71, 73
2, 476856, Note_on_c, 0, 71, 0
2, 476856, Note_on_c, 0, 86, 0
2, 476868, Note_on_c, 0, 68, 58
2, 476872, Note_on_c, 0, 77, 0
2, 476876, Note_on_c, 0, 89, 0
2, 476960, Note_on_c, 0, 68, 0
2, 476968, Note_on_c, 0, 62, 71
2, 477008, Note_on_c, 0, 62, 0
2, 477076, Note_on_c, 0, 80, 86
2, 477076, Note_on_c, 0, 77, 70
2, 477088, Note_on_c, 0, 74, 68
2, 477096, Control_c, 0, 64, 56
2, 477104, Control_c, 0, 64, 0
2, 477108, Control_c, 0, 64, 24
2, 477116, Control_c, 0, 64, 72
2, 477124, Control_c, 0, 64, 127
2, 477148, Note_on_c, 0, 74, 0
2, 477168, Note_on_c, 0, 68, 78
2, 477220, Note_on_c, 0, 68, 0
2, 477232, Note_on_c, 0, 77, 0
2, 477268, Note_on_c, 0, 71, 74
2, 477324, Note_on_c, 0, 71, 0
2, 477348, Note_on_c, 0, 65, 68
2, 477412, Note_on_c, 0, 65, 0
2, 477444, Note_on_c, 0, 62, 59
2, 477508, Note_on_c, 0, 62, 0
2, 477524, Note_on_c, 0, 59, 65
2, 477552, Note_on_c, 0, 59, 0
2, 477600, Note_on_c, 0, 80, 0
2, 477640, Note_on_c, 0, 77, 72
2, 477640, Note_on_c, 0, 68, 84
2, 477644, Note_on_c, 0, 74, 73
2, 477644, Note_on_c, 0, 52, 74
2, 477644, Note_on_c, 0, 40, 80
2, 477724, Note_on_c, 0, 68, 75
2, 477780, Note_on_c, 0, 68, 0
2, 477824, Note_on_c, 0, 71, 70
2, 477836, Note_on_c, 0, 74, 0
2, 477892, Note_on_c, 0, 71, 0
2, 477908, Note_on_c, 0, 65, 64
2, 477984, Note_on_c, 0, 65, 0
2, 478012, Note_on_c, 0, 62, 60
2, 478084, Note_on_c, 0, 62, 0
2, 478084, Note_on_c, 0, 77, 0
2, 478096, Note_on_c, 0, 59, 68
2, 478116, Note_on_c, 0, 59, 0
2, 478188, Note_on_c, 0, 81, 94
2, 478188, Note_on_c, 0, 69, 86
2, 478192, Note_on_c, 0, 77, 74
2, 478240, Control_c, 0, 64, 40
2, 478248, Control_c, 0, 64, 0
2, 478280, Note_on_c, 0, 68, 0
2, 478280, Note_on_c, 0, 74, 78
2, 478280, Control_c, 0, 64, 56
2, 478288, Control_c, 0, 64, 127
2, 478380, Note_on_c, 0, 69, 71
2, 478428, Note_on_c, 0, 52, 0
2, 478452, Note_on_c, 0, 69, 0
2, 478452, Note_on_c, 0, 65, 66
2, 478532, Note_on_c, 0, 65, 0
2, 478536, Note_on_c, 0, 62, 63
2, 478632, Note_on_c, 0, 62, 0
2, 478636, Note_on_c, 0, 57, 74
2, 478656, Note_on_c, 0, 81, 0
2, 478672, Note_on_c, 0, 57, 0
2, 478696, Note_on_c, 0, 77, 0
2, 478700, Note_on_c, 0, 74, 0
2, 478748, Note_on_c, 0, 83, 92
2, 478748, Note_on_c, 0, 71, 88
2, 478752, Note_on_c, 0, 77, 75
2, 478752, Note_on_c, 0, 74, 77
2, 478784, Control_c, 0, 64, 88
2, 478792, Note_on_c, 0, 40, 0
2, 478792, Control_c, 0, 64, 0
2, 478828, Note_on_c, 0, 69, 0
2, 478828, Control_c, 0, 64, 56
2, 478836, Note_on_c, 0, 71, 73
2, 478836, Control_c, 0, 64, 127
2, 478952, Note_on_c, 0, 68, 71
2, 479004, Note_on_c, 0, 71, 0
2, 479020, Note_on_c, 0, 68, 0
2, 479020, Note_on_c, 0, 65, 72
2, 479036, Note_on_c, 0, 71, 0
2, 479040, Note_on_c, 0, 83, 0
2, 479052, Note_on_c, 0, 74, 0
2, 479068, Note_on_c, 0, 77, 0
2, 479092, Note_on_c, 0, 65, 0
2, 479112, Note_on_c, 0, 62, 62
2, 479188, Note_on_c, 0, 62, 0
2, 479192, Note_on_c, 0, 56, 69
2, 479220, Note_on_c, 0, 56, 0
2, 479288, Note_on_c, 0, 74, 83
2, 479292, Note_on_c, 0, 71, 72
2, 479296, Note_on_c, 0, 68, 63
2, 479312, Control_c, 0, 64, 56
2, 479320, Control_c, 0, 64, 0
2, 479344, Control_c, 0, 64, 56
2, 479352, Control_c, 0, 64, 127
2, 479380, Note_on_c, 0, 62, 76
2, 479452, Note_on_c, 0, 62, 0
2, 479476, Note_on_c, 0, 65, 67
2, 479556, Note_on_c, 0, 65, 0
2, 479564, Note_on_c, 0, 59, 69
2, 479628, Note_on_c, 0, 59, 0
2, 479656, Note_on_c, 0, 56, 68
2, 479664, Note_on_c, 0, 71, 0
2, 479672, Note_on_c, 0, 68, 0
2, 479736, Note_on_c, 0, 56, 0
2, 479744, Note_on_c, 0, 53, 63
2, 479772, Note_on_c, 0, 53, 0
2, 479856, Note_on_c, 0, 71, 65
2, 479856, Note_on_c, 0, 41, 77
2, 479856, Note_on_c, 0, 53, 72
2, 479856, Note_on_c, 0, 62, 74
2, 479856, Note_on_c, 0, 59, 71
2, 479856, Note_on_c, 0, 56, 72
2, 479860, Note_on_c, 0, 68, 67
2, 479936, Note_on_c, 0, 62, 62
2, 479992, Note_on_c, 0, 62, 0
2, 480016, Note_on_c, 0, 65, 68
2, 480104, Note_on_c, 0, 53, 0
2, 480108, Note_on_c, 0, 68, 0
2, 480112, Note_on_c, 0, 62, 0
2, 480112, Note_on_c, 0, 59, 0
2, 480112, Note_on_c, 0, 56, 0
2, 480112, Note_on_c, 0, 59, 69
2, 480180, Note_on_c, 0, 59, 0
2, 480188, Note_on_c, 0, 56, 65
2, 480200, Note_on_c, 0, 71, 0
2, 480232, Note_on_c, 0, 74, 0
2, 480264, Note_on_c, 0, 56, 0
2, 480268, Note_on_c, 0, 53, 73
2, 480288, Note_on_c, 0, 41, 0
2, 480372, Note_on_c, 0, 75, 87
2, 480372, Note_on_c, 0, 63, 78
2, 480380, Note_on_c, 0, 72, 71
2, 480392, Note_on_c, 0, 69, 63
2, 480404, Control_c, 0, 64, 56
2, 480412, Control_c, 0, 64, 0
2, 480424, Note_on_c, 0, 69, 0
2, 480460, Note_on_c, 0, 63, 68
2, 480468, Control_c, 0, 64, 88
2, 480476, Control_c, 0, 64, 127
2, 480528, Note_on_c, 0, 63, 0
2, 480556, Note_on_c, 0, 66, 72
2, 480624, Note_on_c, 0, 66, 0
2, 480632, Note_on_c, 0, 60, 73
2, 480636, Note_on_c, 0, 53, 0
2, 480676, Note_on_c, 0, 65, 0
2, 480704, Note_on_c, 0, 60, 0
2, 480724, Note_on_c, 0, 57, 70
2, 480796, Note_on_c, 0, 57, 0
2, 480804, Note_on_c, 0, 54, 68
2, 480824, Note_on_c, 0, 72, 0
2, 480872, Note_on_c, 0, 54, 0
2, 480908, Note_on_c, 0, 72, 68
2, 480908, Note_on_c, 0, 69, 69
2, 480908, Note_on_c, 0, 54, 73
2, 480908, Note_on_c, 0, 42, 75
2, 480908, Note_on_c, 0, 60, 76
2, 480908, Note_on_c, 0, 57, 73
2, 480980, Note_on_c, 0, 63, 63
2, 481012, Note_on_c, 0, 63, 0
2, 481024, Note_on_c, 0, 69, 0
2, 481044, Note_on_c, 0, 63, 0
2, 481072, Note_on_c, 0, 66, 59
2, 481128, Note_on_c, 0, 54, 0
2, 481148, Note_on_c, 0, 60, 72
2, 481228, Note_on_c, 0, 72, 0
2, 481228, Note_on_c, 0, 60, 0
2, 481240, Note_on_c, 0, 57, 71
2, 481316, Note_on_c, 0, 57, 0
2, 481328, Note_on_c, 0, 75, 0
2, 481328, Note_on_c, 0, 54, 67
2, 481348, Note_on_c, 0, 42, 0
2, 481416, Note_on_c, 0, 76, 90
2, 481416, Note_on_c, 0, 73, 82
2, 481416, Note_on_c, 0, 70, 69
2, 481416, Note_on_c, 0, 64, 76
2, 481444, Control_c, 0, 64, 104
2, 481448, Control_c, 0, 64, 0
2, 481496, Note_on_c, 0, 64, 68
2, 481520, Control_c, 0, 64, 127
2, 481548, Note_on_c, 0, 57, 0
2, 481548, Note_on_c, 0, 60, 0
2, 481572, Note_on_c, 0, 64, 0
2, 481592, Note_on_c, 0, 70, 0
2, 481600, Note_on_c, 0, 67, 63
2, 481644, Note_on_c, 0, 73, 0
2, 481676, Note_on_c, 0, 67, 0
2, 481684, Note_on_c, 0, 61, 70
2, 481704, Note_on_c, 0, 54, 0
2, 481732, Note_on_c, 0, 66, 0
2, 481752, Note_on_c, 0, 61, 0
2, 481764, Note_on_c, 0, 58, 67
2, 481836, Note_on_c, 0, 58, 0
2, 481836, Note_on_c, 0, 64, 68
2, 481840, Note_on_c, 0, 55, 72
2, 481944, Note_on_c, 0, 73, 72
2, 481944, Note_on_c, 0, 70, 65
2, 481944, Note_on_c, 0, 43, 75
2, 481944, Note_on_c, 0, 55, 73
2, 481944, Note_on_c, 0, 61, 69
2, 481944, Note_on_c, 0, 58, 74
2, 481952, Note_on_c, 0, 55, 0
2, 482016, Note_on_c, 0, 64, 71
2, 482056, Note_on_c, 0, 64, 0
2, 482056, Note_on_c, 0, 64, 0
2, 482096, Note_on_c, 0, 67, 62
2, 482104, Note_on_c, 0, 61, 0
2, 482164, Note_on_c, 0, 70, 0
2, 482176, Note_on_c, 0, 67, 0
2, 482180, Note_on_c, 0, 61, 70
2, 482224, Note_on_c, 0, 64, 83
2, 482240, Note_on_c, 0, 61, 0
2, 482248, Note_on_c, 0, 58, 69
2, 482324, Note_on_c, 0, 64, 0
2, 482324, Note_on_c, 0, 58, 0
2, 482336, Note_on_c, 0, 55, 67
2, 482356, Note_on_c, 0, 55, 0
2, 482388, Note_on_c, 0, 76, 0
2, 482388, Note_on_c, 0, 73, 0
2, 482396, Note_on_c, 0, 68, 78
2, 482444, Note_on_c, 0, 64, 0
2, 482456, Note_on_c, 0, 76, 78
2, 482456, Note_on_c, 0, 71, 76
2, 482456, Note_on_c, 0, 74, 74
2, 482456, Note_on_c, 0, 66, 88
2, 482456, Note_on_c, 0, 44, 74
2, 482456, Note_on_c, 0, 62, 73
2, 482456, Note_on_c, 0, 59, 73
2, 482484, Note_on_c, 0, 68, 0
2, 482488, Control_c, 0, 64, 40
2, 482496, Control_c, 0, 64, 0
2, 482540, Note_on_c, 0, 64, 73
2, 482544, Control_c, 0, 64, 72
2, 482552, Control_c, 0, 64, 127
2, 482584, Note_on_c, 0, 58, 0
2, 482584, Note_on_c, 0, 43, 0
2, 482592, Note_on_c, 0, 64, 0
2, 482648, Note_on_c, 0, 68, 68
2, 482652, Note_on_c, 0, 55, 0
2, 482692, Note_on_c, 0, 71, 0
2, 482732, Note_on_c, 0, 68, 0
2, 482764, Note_on_c, 0, 62, 63
2, 482832, Note_on_c, 0, 62, 0
2, 482856, Note_on_c, 0, 59, 68
2, 482864, Note_on_c, 0, 74, 0
2, 482908, Note_on_c, 0, 76, 0
2, 482936, Note_on_c, 0, 64, 83
2, 482984, Note_on_c, 0, 59, 0
2, 482992, Note_on_c, 0, 56, 63
2, 483044, Note_on_c, 0, 44, 0
2, 483092, Note_on_c, 0, 66, 0
2, 483096, Note_on_c, 0, 59, 0
2, 483096, Note_on_c, 0, 62, 0
2, 483144, Note_on_c, 0, 64, 0
2, 483180, Note_on_c, 0, 56, 0
2, 483224, Note_on_c, 0, 69, 66
2, 483224, Note_on_c, 0, 73, 89
2, 483224, Note_on_c, 0, 45, 72
2, 483224, Note_on_c, 0, 57, 72
2, 483224, Note_on_c, 0, 33, 76
2, 483352, Note_on_c, 0, 64, 70
2, 483476, Note_on_c, 0, 61, 63
2, 483476, Control_c, 0, 64, 127
2, 483480, Note_on_c, 0, 33, 0
2, 483480, Note_on_c, 0, 57, 0
2, 483480, Note_on_c, 0, 45, 0
2, 483528, Note_on_c, 0, 61, 0
2, 483592, Note_on_c, 0, 57, 65
2, 483704, Note_on_c, 0, 57, 0
2, 483716, Note_on_c, 0, 52, 68
2, 483800, Note_on_c, 0, 69, 0
2, 483824, Note_on_c, 0, 73, 0
2, 483832, Note_on_c, 0, 52, 0
2, 483832, Note_on_c, 0, 45, 73
2, 483852, Note_on_c, 0, 45, 0
2, 483924, Note_on_c, 0, 64, 0
2, 483964, Note_on_c, 0, 74, 88
2, 483964, Note_on_c, 0, 71, 91
2, 483964, Note_on_c, 0, 62, 73
2, 483964, Note_on_c, 0, 59, 73
2, 484000, Control_c, 0, 64, 104
2, 484012, Control_c, 0, 64, 40
2, 484020, Control_c, 0, 64, 0
2, 484080, Note_on_c, 0, 64, 79
2, 484088, Control_c, 0, 64, 88
2, 484096, Control_c, 0, 64, 127
2, 484196, Note_on_c, 0, 62, 68
2, 484220, Note_on_c, 0, 59, 0
2, 484220, Note_on_c, 0, 62, 0
2, 484304, Note_on_c, 0, 62, 0
2, 484312, Note_on_c, 0, 59, 75
2, 484340, Note_on_c, 0, 59, 0
2, 484420, Note_on_c, 0, 52, 73
2, 484516, Note_on_c, 0, 71, 0
2, 484528, Note_on_c, 0, 69, 96
2, 484536, Note_on_c, 0, 52, 0
2, 484536, Note_on_c, 0, 45, 73
2, 484556, Note_on_c, 0, 74, 0
2, 484576, Note_on_c, 0, 45, 0
2, 484580, Note_on_c, 0, 64, 0
2, 484596, Note_on_c, 0, 69, 0
2, 484668, Note_on_c, 0, 75, 87
2, 484668, Note_on_c, 0, 72, 75
2, 484668, Note_on_c, 0, 69, 93
2, 484668, Note_on_c, 0, 63, 76
2, 484668, Note_on_c, 0, 60, 76
2, 484668, Note_on_c, 0, 57, 76
2, 484740, Control_c, 0, 64, 72
2, 484748, Control_c, 0, 64, 24
2, 484752, Control_c, 0, 64, 0
2, 484784, Note_on_c, 0, 64, 83
2, 484816, Control_c, 0, 64, 88
2, 484824, Control_c, 0, 64, 127
2, 484892, Note_on_c, 0, 63, 68
2, 484924, Note_on_c, 0, 57, 0
2, 484924, Note_on_c, 0, 63, 0
2, 484924, Note_on_c, 0, 60, 0
2, 484992, Note_on_c, 0, 63, 0
2, 485000, Note_on_c, 0, 60, 73
2, 485064, Note_on_c, 0, 60, 0
2, 485112, Note_on_c, 0, 57, 79
2, 485216, Note_on_c, 0, 57, 0
2, 485220, Note_on_c, 0, 64, 0
2, 485228, Note_on_c, 0, 45, 78
2, 485260, Note_on_c, 0, 75, 0
2, 485264, Note_on_c, 0, 72, 0
2, 485280, Note_on_c, 0, 45, 0
2, 485352, Note_on_c, 0, 76, 89
2, 485352, Note_on_c, 0, 73, 80
2, 485352, Note_on_c, 0, 64, 76
2, 485352, Note_on_c, 0, 61, 76
2, 485380, Control_c, 0, 64, 56
2, 485388, Control_c, 0, 64, 0
2, 485452, Control_c, 0, 64, 88
2, 485460, Control_c, 0, 64, 127
2, 485468, Note_on_c, 0, 69, 81
2, 485524, Note_on_c, 0, 69, 91
2, 485580, Note_on_c, 0, 64, 75
2, 485608, Note_on_c, 0, 61, 0
2, 485608, Note_on_c, 0, 64, 0
2, 485680, Note_on_c, 0, 64, 0
2, 485680, Note_on_c, 0, 73, 0
2, 485688, Note_on_c, 0, 61, 77
2, 485700, Note_on_c, 0, 71, 99
2, 485732, Note_on_c, 0, 61, 0
2, 485748, Note_on_c, 0, 69, 0
2, 485748, Note_on_c, 0, 69, 0
2, 485748, Note_on_c, 0, 69, 0
2, 485780, Note_on_c, 0, 57, 78
2, 485856, Note_on_c, 0, 57, 0
2, 485856, Note_on_c, 0, 71, 0
2, 485864, Note_on_c, 0, 73, 100
2, 485880, Note_on_c, 0, 76, 0
2, 485900, Note_on_c, 0, 45, 71
2, 485932, Note_on_c, 0, 45, 0
2, 485972, Note_on_c, 0, 73, 0
2, 486024, Note_on_c, 0, 77, 85
2, 486024, Note_on_c, 0, 71, 64
2, 486024, Note_on_c, 0, 74, 100
2, 486024, Note_on_c, 0, 57, 69
2, 486024, Note_on_c, 0, 68, 69
2, 486024, Note_on_c, 0, 62, 76
2, 486024, Note_on_c, 0, 65, 76
2, 486024, Note_on_c, 0, 45, 76
2, 486064, Control_c, 0, 64, 104
2, 486072, Control_c, 0, 64, 40
2, 486080, Control_c, 0, 64, 0
2, 486096, Note_on_c, 0, 71, 0
2, 486132, Note_on_c, 0, 68, 75
2, 486156, Control_c, 0, 64, 88
2, 486164, Control_c, 0, 64, 127
2, 486252, Note_on_c, 0, 65, 76
2, 486280, Note_on_c, 0, 45, 0
2, 486280, Note_on_c, 0, 65, 0
2, 486280, Note_on_c, 0, 62, 0
2, 486348, Note_on_c, 0, 65, 0
2, 486360, Note_on_c, 0, 62, 73
2, 486360, Note_on_c, 0, 62, 93
2, 486364, Note_on_c, 0, 68, 0
2, 486364, Note_on_c, 0, 68, 0
2, 486368, Note_on_c, 0, 74, 0
2, 486432, Note_on_c, 0, 62, 0
2, 486456, Note_on_c, 0, 77, 0
2, 486456, Note_on_c, 0, 59, 73
2, 486560, Note_on_c, 0, 59, 0
2, 486564, Note_on_c, 0, 57, 83
2, 486596, Note_on_c, 0, 57, 0
2, 486624, Note_on_c, 0, 62, 0
2, 486700, Note_on_c, 0, 89, 98
2, 486700, Note_on_c, 0, 77, 101
2, 486700, Note_on_c, 0, 56, 72
2, 486700, Note_on_c, 0, 59, 74
2, 486700, Note_on_c, 0, 45, 76
2, 486700, Note_on_c, 0, 50, 73
2, 486712, Note_on_c, 0, 86, 87
2, 486720, Note_on_c, 0, 83, 68
2, 486736, Control_c, 0, 64, 88
2, 486744, Note_on_c, 0, 83, 0
2, 486744, Control_c, 0, 64, 40
2, 486752, Control_c, 0, 64, 0
2, 486768, Control_c, 0, 64, 56
2, 486776, Control_c, 0, 64, 127
2, 486808, Note_on_c, 0, 80, 76
2, 486920, Note_on_c, 0, 77, 74
2, 486956, Note_on_c, 0, 50, 0
2, 486956, Note_on_c, 0, 56, 0
2, 486956, Note_on_c, 0, 45, 0
2, 486956, Note_on_c, 0, 59, 0
2, 487000, Note_on_c, 0, 77, 0
2, 487020, Note_on_c, 0, 74, 77
2, 487096, Note_on_c, 0, 74, 0
2, 487128, Note_on_c, 0, 71, 77
2, 487144, Note_on_c, 0, 57, 0
2, 487204, Note_on_c, 0, 71, 0
2, 487228, Note_on_c, 0, 68, 75
2, 487332, Note_on_c, 0, 68, 0
2, 487332, Note_on_c, 0, 65, 75
2, 487408, Note_on_c, 0, 65, 0
2, 487440, Note_on_c, 0, 62, 76
2, 487512, Note_on_c, 0, 62, 0
2, 487544, Note_on_c, 0, 59, 81
2, 487572, Control_c, 0, 64, 88
2, 487596, Control_c, 0, 64, 127
2, 487644, Note_on_c, 0, 59, 0
2, 487652, Note_on_c, 0, 56, 78
2, 487724, Note_on_c, 0, 77, 0
2, 487760, Note_on_c, 0, 56, 0
2, 487760, Note_on_c, 0, 53, 76
2, 487836, Note_on_c, 0, 53, 0
2, 487888, Note_on_c, 0, 50, 75
2, 487960, Note_on_c, 0, 50, 0
2, 487996, Note_on_c, 0, 47, 74
2, 488084, Note_on_c, 0, 47, 0
2, 488100, Note_on_c, 0, 44, 74
2, 488212, Note_on_c, 0, 41, 73
2, 488232, Note_on_c, 0, 44, 0
2, 488292, Note_on_c, 0, 41, 0
2, 488320, Note_on_c, 0, 40, 73
2, 488400, Note_on_c, 0, 40, 0
2, 488408, Note_on_c, 0, 80, 0
2, 488432, Note_on_c, 0, 38, 74
2, 488444, Note_on_c, 0, 86, 0
2, 488452, Note_on_c, 0, 89, 0
2, 488516, Note_on_c, 0, 38, 0
2, 488544, Note_on_c, 0, 35, 76
2, 488620, Note_on_c, 0, 35, 0
2, 488680, Control_c, 0, 64, 104
2, 488684, Note_on_c, 0, 73, 93
2, 488684, Note_on_c, 0, 33, 76
2, 488684, Note_on_c, 0, 69, 71
2, 488684, Note_on_c, 0, 57, 67
2, 488688, Control_c, 0, 64, 0
2, 488744, Note_on_c, 0, 33, 0
2, 488744, Control_c, 0, 64, 104
2, 488752, Control_c, 0, 64, 127
2, 488796, Note_on_c, 0, 64, 73
2, 488908, Note_on_c, 0, 61, 73
2, 488908, Note_on_c, 0, 57, 75
2, 488948, Note_on_c, 0, 61, 0
2, 489012, Note_on_c, 0, 57, 74
2, 489096, Note_on_c, 0, 57, 0
2, 489104, Note_on_c, 0, 52, 72
2, 489116, Note_on_c, 0, 69, 0
2, 489128, Note_on_c, 0, 64, 0
2, 489164, Note_on_c, 0, 57, 0
2, 489180, Note_on_c, 0, 73, 0
2, 489200, Note_on_c, 0, 52, 0
2, 489216, Note_on_c, 0, 45, 69
2, 489256, Note_on_c, 0, 45, 0
2, 489332, Note_on_c, 0, 74, 85
2, 489332, Note_on_c, 0, 71, 88
2, 489332, Note_on_c, 0, 62, 79
2, 489332, Note_on_c, 0, 59, 73
2, 489332, Note_on_c, 0, 57, 76
2, 489332, Note_on_c, 0, 45, 77
2, 489368, Control_c, 0, 64, 40
2, 489376, Control_c, 0, 64, 0
2, 489424, Control_c, 0, 64, 56
2, 489432, Note_on_c, 0, 64, 75
2, 489432, Control_c, 0, 64, 127
2, 489532, Note_on_c, 0, 62, 76
2, 489588, Note_on_c, 0, 45, 0
2, 489588, Note_on_c, 0, 57, 0
2, 489588, Note_on_c, 0, 57, 0
2, 489588, Note_on_c, 0, 59, 0
2, 489620, Note_on_c, 0, 62, 0
2, 489632, Note_on_c, 0, 59, 78
2, 489632, Note_on_c, 0, 62, 74
2, 489632, Note_on_c, 0, 57, 78
2, 489724, Note_on_c, 0, 59, 0
2, 489744, Note_on_c, 0, 52, 74
2, 489792, Note_on_c, 0, 62, 0
2, 489812, Note_on_c, 0, 71, 0
2, 489812, Note_on_c, 0, 69, 99
2, 489832, Note_on_c, 0, 52, 0
2, 489844, Note_on_c, 0, 45, 76
2, 489860, Note_on_c, 0, 74, 0
2, 489880, Note_on_c, 0, 45, 0
2, 489888, Note_on_c, 0, 57, 0
2, 489888, Note_on_c, 0, 62, 0
2, 489892, Note_on_c, 0, 64, 0
2, 489912, Note_on_c, 0, 69, 0
2, 489964, Note_on_c, 0, 75, 90
2, 489964, Note_on_c, 0, 72, 75
2, 489964, Note_on_c, 0, 69, 93
2, 489964, Note_on_c, 0, 63, 73
2, 489964, Note_on_c, 0, 60, 73
2, 489964, Note_on_c, 0, 57, 77
2, 490012, Control_c, 0, 64, 104
2, 490020, Control_c, 0, 64, 40
2, 490028, Control_c, 0, 64, 0
2, 490056, Note_on_c, 0, 64, 76
2, 490084, Control_c, 0, 64, 104
2, 490088, Control_c, 0, 64, 127
2, 490156, Note_on_c, 0, 63, 76
2, 490220, Note_on_c, 0, 57, 0
2, 490220, Note_on_c, 0, 63, 0
2, 490220, Note_on_c, 0, 60, 0
2, 490228, Note_on_c, 0, 63, 0
2, 490256, Note_on_c, 0, 60, 76
2, 490256, Note_on_c, 0, 63, 74
2, 490256, Note_on_c, 0, 57, 74
2, 490316, Note_on_c, 0, 60, 0
2, 490352, Note_on_c, 0, 57, 78
2, 490416, Note_on_c, 0, 57, 0
2, 490436, Note_on_c, 0, 64, 0
2, 490456, Note_on_c, 0, 45, 76
2, 490484, Note_on_c, 0, 75, 0
2, 490484, Note_on_c, 0, 72, 0
2, 490492, Note_on_c, 0, 45, 0
2, 490512, Note_on_c, 0, 63, 0
2, 490512, Note_on_c, 0, 57, 0
2, 490556, Note_on_c, 0, 76, 89
2, 490556, Note_on_c, 0, 73, 82
2, 490556, Note_on_c, 0, 33, 76
2, 490556, Note_on_c, 0, 45, 73
2, 490592, Control_c, 0, 64, 40
2, 490600, Control_c, 0, 64, 0
2, 490648, Control_c, 0, 64, 104
2, 490656, Control_c, 0, 64, 127
2, 490668, Note_on_c, 0, 69, 80
2, 490720, Note_on_c, 0, 69, 98
2, 490776, Note_on_c, 0, 64, 79
2, 490812, Note_on_c, 0, 45, 0
2, 490812, Note_on_c, 0, 33, 0
2, 490824, Note_on_c, 0, 69, 0
2, 490824, Note_on_c, 0, 61, 79
2, 490856, Note_on_c, 0, 61, 0
2, 490856, Note_on_c, 0, 69, 0
2, 490864, Note_on_c, 0, 64, 0
2, 490872, Note_on_c, 0, 71, 97
2, 490972, Note_on_c, 0, 57, 83
2, 490988, Note_on_c, 0, 71, 0
2, 490988, Note_on_c, 0, 69, 0
2, 491000, Note_on_c, 0, 73, 0
2, 491016, Note_on_c, 0, 57, 0
2, 491036, Note_on_c, 0, 76, 0
2, 491036, Note_on_c, 0, 73, 97
2, 491056, Note_on_c, 0, 54, 88
2, 491080, Note_on_c, 0, 45, 83
2, 491112, Note_on_c, 0, 54, 0
2, 491116, Note_on_c, 0, 45, 0
2, 491156, Note_on_c, 0, 73, 0
2, 491204, Note_on_c, 0, 79, 98
2, 491204, Note_on_c, 0, 73, 73
2, 491204, Note_on_c, 0, 76, 93
2, 491204, Note_on_c, 0, 70, 73
2, 491228, Control_c, 0, 64, 88
2, 491236, Control_c, 0, 64, 0
2, 491284, Note_on_c, 0, 73, 0
2, 491292, Control_c, 0, 64, 88
2, 491296, Note_on_c, 0, 70, 78
2, 491300, Control_c, 0, 64, 127
2, 491400, Note_on_c, 0, 67, 77
2, 491472, Note_on_c, 0, 67, 0
2, 491504, Note_on_c, 0, 64, 85
2, 491540, Note_on_c, 0, 70, 0
2, 491540, Note_on_c, 0, 70, 0
2, 491540, Note_on_c, 0, 76, 0
2, 491592, Note_on_c, 0, 61, 78
2, 491596, Note_on_c, 0, 64, 0
2, 491604, Note_on_c, 0, 79, 0
2, 491692, Note_on_c, 0, 54, 81
2, 491716, Note_on_c, 0, 61, 0
2, 491748, Note_on_c, 0, 54, 0
2, 491820, Note_on_c, 0, 91, 102
2, 491820, Note_on_c, 0, 79, 93
2, 491820, Note_on_c, 0, 58, 76
2, 491820, Note_on_c, 0, 52, 73
2, 491820, Note_on_c, 0, 49, 73
2, 491820, Note_on_c, 0, 42, 76
2, 491828, Note_on_c, 0, 88, 84
2, 491832, Note_on_c, 0, 85, 83
2, 491844, Note_on_c, 0, 85, 0
2, 491920, Note_on_c, 0, 82, 80
2, 492024, Note_on_c, 0, 79, 79
2, 492092, Note_on_c, 0, 79, 0
2, 492120, Note_on_c, 0, 76, 78
2, 492184, Note_on_c, 0, 76, 0
2, 492224, Note_on_c, 0, 73, 78
2, 492288, Note_on_c, 0, 73, 0
2, 492320, Note_on_c, 0, 70, 78
2, 492424, Note_on_c, 0, 70, 0
2, 492424, Note_on_c, 0, 67, 78
2, 492460, Note_on_c, 0, 79, 0
2, 492460, Note_on_c, 0, 49, 0
2, 492460, Note_on_c, 0, 52, 0
2, 492460, Note_on_c, 0, 42, 0
2, 492460, Note_on_c, 0, 58, 0
2, 492496, Note_on_c, 0, 67, 0
2, 492528, Note_on_c, 0, 64, 77
2, 492596, Note_on_c, 0, 64, 0
2, 492632, Note_on_c, 0, 61, 77
2, 492708, Note_on_c, 0, 61, 0
2, 492728, Note_on_c, 0, 58, 76
2, 492832, Note_on_c, 0, 58, 0
2, 492836, Note_on_c, 0, 55, 76
2, 492900, Note_on_c, 0, 55, 0
2, 492940, Note_on_c, 0, 52, 76
2, 493004, Note_on_c, 0, 52, 0
2, 493044, Note_on_c, 0, 49, 75
2, 493120, Note_on_c, 0, 49, 0
2, 493144, Note_on_c, 0, 46, 75
2, 493252, Note_on_c, 0, 43, 74
2, 493256, Note_on_c, 0, 46, 0
2, 493304, Note_on_c, 0, 43, 0
2, 493352, Note_on_c, 0, 30, 74
2, 493352, Note_on_c, 0, 71, 80
2, 493420, Note_on_c, 0, 30, 0
2, 493436, Note_on_c, 0, 82, 0
2, 493448, Note_on_c, 0, 88, 0
2, 493448, Note_on_c, 0, 28, 73
2, 493456, Note_on_c, 0, 91, 0
2, 493480, Note_on_c, 0, 71, 0
2, 493504, Note_on_c, 0, 73, 82
2, 493528, Note_on_c, 0, 28, 0
2, 493560, Note_on_c, 0, 25, 74
2, 493636, Note_on_c, 0, 73, 0
2, 493636, Note_on_c, 0, 76, 79
2, 493652, Note_on_c, 0, 25, 0
2, 493676, Note_on_c, 0, 66, 79
2, 493676, Note_on_c, 0, 62, 70
2, 493676, Note_on_c, 0, 74, 84
2, 493676, Note_on_c, 0, 59, 71
2, 493676, Note_on_c, 0, 54, 77
2, 493696, Note_on_c, 0, 76, 0
2, 493744, Control_c, 0, 64, 56
2, 493756, Control_c, 0, 64, 104
2, 493764, Control_c, 0, 64, 127
2, 493768, Note_on_c, 0, 74, 0
2, 493776, Note_on_c, 0, 59, 78
2, 493812, Note_on_c, 0, 73, 82
2, 493848, Note_on_c, 0, 54, 64
2, 493932, Note_on_c, 0, 54, 0
2, 493936, Note_on_c, 0, 50, 63
2, 493936, Note_on_c, 0, 74, 83
2, 493944, Note_on_c, 0, 59, 0
2, 493944, Note_on_c, 0, 73, 0
2, 493980, Note_on_c, 0, 50, 0
2, 493996, Note_on_c, 0, 47, 70
2, 494048, Note_on_c, 0, 47, 0
2, 494056, Note_on_c, 0, 78, 86
2, 494060, Note_on_c, 0, 59, 0
2, 494060, Note_on_c, 0, 54, 0
2, 494064, Note_on_c, 0, 66, 0
2, 494064, Note_on_c, 0, 42, 73
2, 494068, Note_on_c, 0, 74, 0
2, 494080, Note_on_c, 0, 62, 0
2, 494116, Note_on_c, 0, 42, 0
2, 494164, Note_on_c, 0, 66, 86
2, 494164, Note_on_c, 0, 61, 78
2, 494184, Note_on_c, 0, 78, 87
2, 494188, Note_on_c, 0, 78, 0
2, 494200, Control_c, 0, 64, 56
2, 494208, Control_c, 0, 64, 0
2, 494228, Note_on_c, 0, 61, 0
2, 494256, Note_on_c, 0, 58, 68
2, 494280, Control_c, 0, 64, 72
2, 494288, Control_c, 0, 64, 127
2, 494316, Note_on_c, 0, 78, 0
2, 494344, Note_on_c, 0, 54, 69
2, 494380, Note_on_c, 0, 58, 0
2, 494416, Note_on_c, 0, 54, 0
2, 494432, Note_on_c, 0, 52, 63
2, 494432, Note_on_c, 0, 78, 88
2, 494436, Note_on_c, 0, 66, 0
2, 494460, Note_on_c, 0, 52, 0
2, 494480, Note_on_c, 0, 49, 72
2, 494528, Note_on_c, 0, 49, 0
2, 494564, Note_on_c, 0, 78, 0
2, 494564, Note_on_c, 0, 42, 63
2, 494604, Note_on_c, 0, 42, 0
2, 494680, Note_on_c, 0, 78, 93
2, 494680, Note_on_c, 0, 62, 68
2, 494680, Note_on_c, 0, 66, 77
2, 494680, Note_on_c, 0, 42, 76
2, 494680, Note_on_c, 0, 50, 68
2, 494724, Control_c, 0, 64, 104
2, 494732, Control_c, 0, 64, 40
2, 494744, Control_c, 0, 64, 0
2, 494768, Note_on_c, 0, 59, 70
2, 494792, Control_c, 0, 64, 24
2, 494804, Control_c, 0, 64, 88
2, 494812, Control_c, 0, 64, 127
2, 494840, Note_on_c, 0, 54, 58
2, 494908, Note_on_c, 0, 54, 0
2, 494928, Note_on_c, 0, 50, 60
2, 494964, Note_on_c, 0, 50, 0
2, 494988, Note_on_c, 0, 62, 0
2, 494988, Note_on_c, 0, 47, 71
2, 495032, Note_on_c, 0, 78, 0
2, 495048, Note_on_c, 0, 59, 0
2, 495048, Note_on_c, 0, 47, 0
2, 495052, Note_on_c, 0, 74, 87
2, 495068, Note_on_c, 0, 42, 71
2, 495116, Note_on_c, 0, 42, 0
2, 495116, Note_on_c, 0, 42, 0
2, 495152, Note_on_c, 0, 50, 0
2, 495176, Note_on_c, 0, 61, 68
2, 495176, Note_on_c, 0, 66, 83
2, 495176, Note_on_c, 0, 73, 83
2, 495176, Note_on_c, 0, 58, 67
2, 495176, Note_on_c, 0, 54, 68
2, 495180, Control_c, 0, 64, 56
2, 495192, Control_c, 0, 64, 0
2, 495204, Note_on_c, 0, 74, 0
2, 495240, Control_c, 0, 64, 40
2, 495244, Note_on_c, 0, 58, 63
2, 495252, Control_c, 0, 64, 127
2, 495272, Note_on_c, 0, 58, 0
2, 495308, Note_on_c, 0, 66, 0
2, 495316, Note_on_c, 0, 54, 56
2, 495328, Note_on_c, 0, 73, 0
2, 495396, Note_on_c, 0, 54, 0
2, 495404, Note_on_c, 0, 66, 0
2, 495404, Note_on_c, 0, 52, 63
2, 495412, Note_on_c, 0, 71, 95
2, 495452, Note_on_c, 0, 52, 0
2, 495476, Note_on_c, 0, 49, 65
2, 495528, Note_on_c, 0, 49, 0
2, 495536, Note_on_c, 0, 71, 0
2, 495540, Note_on_c, 0, 73, 97
2, 495632, Note_on_c, 0, 61, 0
2, 495648, Note_on_c, 0, 58, 0
2, 495648, Note_on_c, 0, 54, 0
2, 495652, Note_on_c, 0, 73, 0
2, 495656, Note_on_c, 0, 76, 85
2, 495692, Note_on_c, 0, 74, 98
2, 495692, Note_on_c, 0, 66, 68
2, 495692, Note_on_c, 0, 62, 68
2, 495692, Note_on_c, 0, 59, 72
2, 495704, Control_c, 0, 64, 88
2, 495712, Note_on_c, 0, 76, 0
2, 495716, Control_c, 0, 64, 0
2, 495776, Control_c, 0, 64, 72
2, 495788, Control_c, 0, 64, 127
2, 495816, Note_on_c, 0, 66, 76
2, 495824, Note_on_c, 0, 73, 96
2, 495828, Note_on_c, 0, 74, 0
2, 495900, Note_on_c, 0, 62, 68
2, 495908, Note_on_c, 0, 66, 0
2, 495940, Note_on_c, 0, 73, 0
2, 495944, Note_on_c, 0, 74, 97
2, 495952, Note_on_c, 0, 62, 0
2, 495964, Note_on_c, 0, 59, 73
2, 496040, Note_on_c, 0, 59, 0
2, 496048, Note_on_c, 0, 54, 70
2, 496072, Note_on_c, 0, 54, 0
2, 496076, Note_on_c, 0, 78, 98
2, 496080, Note_on_c, 0, 74, 0
2, 496148, Note_on_c, 0, 78, 0
2, 496164, Note_on_c, 0, 66, 0
2, 496164, Note_on_c, 0, 62, 0
2, 496164, Note_on_c, 0, 59, 0
2, 496216, Note_on_c, 0, 78, 98
2, 496260, Control_c, 0, 64, 72
2, 496272, Control_c, 0, 64, 0
2, 496320, Control_c, 0, 64, 88
2, 496332, Control_c, 0, 64, 127
2, 496360, Note_on_c, 0, 66, 74
2, 496364, Note_on_c, 0, 78, 0
2, 496476, Note_on_c, 0, 78, 99
2, 496476, Note_on_c, 0, 61, 73
2, 496484, Note_on_c, 0, 66, 0
2, 496544, Note_on_c, 0, 61, 0
2, 496548, Note_on_c, 0, 58, 72
2, 496584, Note_on_c, 0, 78, 0
2, 496620, Note_on_c, 0, 58, 0
2, 496624, Note_on_c, 0, 54, 70
2, 496672, Note_on_c, 0, 54, 0
2, 496752, Note_on_c, 0, 78, 101
2, 496752, Note_on_c, 0, 66, 80
2, 496752, Note_on_c, 0, 62, 73
2, 496752, Note_on_c, 0, 59, 76
2, 496772, Control_c, 0, 64, 40
2, 496784, Control_c, 0, 64, 0
2, 496832, Control_c, 0, 64, 88
2, 496844, Control_c, 0, 64, 127
2, 496876, Note_on_c, 0, 66, 78
2, 496956, Note_on_c, 0, 66, 0
2, 496956, Note_on_c, 0, 62, 58
2, 497000, Note_on_c, 0, 62, 0
2, 497016, Note_on_c, 0, 59, 71
2, 497084, Note_on_c, 0, 78, 0
2, 497092, Note_on_c, 0, 59, 0
2, 497104, Note_on_c, 0, 74, 97
2, 497128, Note_on_c, 0, 54, 67
2, 497176, Note_on_c, 0, 54, 0
2, 497224, Note_on_c, 0, 59, 0
2, 497224, Note_on_c, 0, 62, 0
2, 497224, Note_on_c, 0, 66, 0
2, 497248, Note_on_c, 0, 73, 94
2, 497248, Note_on_c, 0, 61, 68
2, 497248, Note_on_c, 0, 58, 66
2, 497248, Note_on_c, 0, 54, 68
2, 497296, Control_c, 0, 64, 56
2, 497308, Note_on_c, 0, 74, 0
2, 497308, Control_c, 0, 64, 0
2, 497368, Control_c, 0, 64, 72
2, 497376, Control_c, 0, 64, 127
2, 497392, Note_on_c, 0, 66, 71
2, 497480, Note_on_c, 0, 66, 0
2, 497484, Note_on_c, 0, 61, 69
2, 497500, Note_on_c, 0, 73, 0
2, 497540, Note_on_c, 0, 61, 0
2, 497552, Note_on_c, 0, 58, 59
2, 497632, Note_on_c, 0, 58, 0
2, 497648, Note_on_c, 0, 54, 62
2, 497708, Note_on_c, 0, 54, 0
2, 497720, Note_on_c, 0, 58, 0
2, 497720, Note_on_c, 0, 61, 0
2, 497720, Note_on_c, 0, 54, 0
2, 497816, Note_on_c, 0, 60, 64
2, 497816, Note_on_c, 0, 64, 74
2, 497816, Note_on_c, 0, 57, 72
2, 497816, Note_on_c, 0, 52, 74
2, 497820, Control_c, 0, 64, 56
2, 497828, Control_c, 0, 64, 0
2, 497888, Control_c, 0, 64, 88
2, 497900, Control_c, 0, 64, 127
2, 497916, Note_on_c, 0, 57, 70
2, 497960, Note_on_c, 0, 71, 80
2, 498000, Note_on_c, 0, 57, 0
2, 498000, Note_on_c, 0, 57, 0
2, 498000, Note_on_c, 0, 52, 71
2, 498072, Note_on_c, 0, 52, 0
2, 498084, Note_on_c, 0, 48, 63
2, 498084, Note_on_c, 0, 72, 82
2, 498088, Note_on_c, 0, 52, 0
2, 498092, Note_on_c, 0, 71, 0
2, 498132, Note_on_c, 0, 48, 0
2, 498152, Note_on_c, 0, 45, 73
2, 498172, Note_on_c, 0, 64, 0
2, 498188, Note_on_c, 0, 76, 86
2, 498192, Note_on_c, 0, 60, 0
2, 498208, Note_on_c, 0, 45, 0
2, 498216, Note_on_c, 0, 72, 0
2, 498224, Note_on_c, 0, 40, 68
2, 498260, Note_on_c, 0, 40, 0
2, 498320, Note_on_c, 0, 76, 0
2, 498324, Note_on_c, 0, 64, 78
2, 498324, Note_on_c, 0, 76, 86
2, 498328, Note_on_c, 0, 59, 72
2, 498332, Control_c, 0, 64, 88
2, 498344, Control_c, 0, 64, 0
2, 498404, Control_c, 0, 64, 72
2, 498416, Note_on_c, 0, 56, 72
2, 498416, Control_c, 0, 64, 127
2, 498456, Note_on_c, 0, 76, 0
2, 498488, Note_on_c, 0, 52, 75
2, 498576, Note_on_c, 0, 52, 0
2, 498580, Note_on_c, 0, 50, 73
2, 498580, Note_on_c, 0, 76, 87
2, 498648, Note_on_c, 0, 59, 0
2, 498652, Note_on_c, 0, 50, 0
2, 498656, Note_on_c, 0, 64, 0
2, 498664, Note_on_c, 0, 47, 63
2, 498668, Note_on_c, 0, 56, 0
2, 498712, Note_on_c, 0, 76, 0
2, 498720, Note_on_c, 0, 47, 0
2, 498736, Note_on_c, 0, 40, 71
2, 498772, Note_on_c, 0, 40, 0
2, 498832, Note_on_c, 0, 60, 68
2, 498832, Note_on_c, 0, 64, 78
2, 498832, Note_on_c, 0, 76, 91
2, 498868, Control_c, 0, 64, 104
2, 498876, Control_c, 0, 64, 24
2, 498888, Control_c, 0, 64, 0
2, 498924, Note_on_c, 0, 57, 68
2, 498940, Control_c, 0, 64, 40
2, 498948, Control_c, 0, 64, 104
2, 498960, Control_c, 0, 64, 127
2, 498972, Note_on_c, 0, 52, 65
2, 499044, Note_on_c, 0, 52, 0
2, 499056, Note_on_c, 0, 48, 59
2, 499108, Note_on_c, 0, 48, 0
2, 499112, Note_on_c, 0, 64, 0
2, 499124, Note_on_c, 0, 45, 73
2, 499188, Note_on_c, 0, 45, 0
2, 499188, Note_on_c, 0, 60, 0
2, 499192, Note_on_c, 0, 72, 86
2, 499200, Note_on_c, 0, 40, 69
2, 499216, Note_on_c, 0, 76, 0
2, 499232, Note_on_c, 0, 57, 0
2, 499248, Note_on_c, 0, 40, 0
2, 499308, Note_on_c, 0, 64, 76
2, 499308, Note_on_c, 0, 59, 76
2, 499308, Note_on_c, 0, 71, 84
2, 499308, Control_c, 0, 64, 56
2, 499320, Control_c, 0, 64, 0
2, 499324, Note_on_c, 0, 72, 0
2, 499372, Control_c, 0, 64, 104
2, 499376, Note_on_c, 0, 59, 0
2, 499376, Note_on_c, 0, 56, 69
2, 499380, Control_c, 0, 64, 127
2, 499404, Note_on_c, 0, 56, 0
2, 499440, Note_on_c, 0, 71, 0
2, 499456, Note_on_c, 0, 52, 70
2, 499460, Note_on_c, 0, 64, 0
2, 499548, Note_on_c, 0, 52, 0
2, 499552, Note_on_c, 0, 50, 73
2, 499556, Note_on_c, 0, 69, 88
2, 499608, Note_on_c, 0, 50, 0
2, 499612, Note_on_c, 0, 47, 70
2, 499664, Note_on_c, 0, 69, 0
2, 499680, Note_on_c, 0, 47, 0
2, 499680, Note_on_c, 0, 71, 93
2, 499704, Note_on_c, 0, 40, 63
2, 499728, Note_on_c, 0, 40, 0
2, 499784, Note_on_c, 0, 71, 0
2, 499800, Note_on_c, 0, 74, 83
2, 499832, Note_on_c, 0, 72, 94
2, 499832, Control_c, 0, 64, 88
2, 499844, Control_c, 0, 64, 0
2, 499856, Note_on_c, 0, 74, 0
2, 499904, Control_c, 0, 64, 88
2, 499916, Control_c, 0, 64, 127
2, 499940, Note_on_c, 0, 64, 67
2, 499956, Note_on_c, 0, 72, 0
2, 499956, Note_on_c, 0, 71, 94
2, 500016, Note_on_c, 0, 60, 62
2, 500024, Note_on_c, 0, 64, 0
2, 500064, Note_on_c, 0, 60, 0
2, 500068, Note_on_c, 0, 71, 0
2, 500072, Note_on_c, 0, 72, 95
2, 500072, Note_on_c, 0, 57, 67
2, 500148, Note_on_c, 0, 57, 0
2, 500160, Note_on_c, 0, 52, 67
2, 500192, Note_on_c, 0, 52, 0
2, 500196, Note_on_c, 0, 72, 0
2, 500200, Note_on_c, 0, 76, 96
2, 500276, Note_on_c, 0, 76, 0
2, 500340, Note_on_c, 0, 76, 98
2, 500380, Control_c, 0, 64, 72
2, 500388, Control_c, 0, 64, 0
2, 500448, Control_c, 0, 64, 104
2, 500456, Control_c, 0, 64, 127
2, 500476, Note_on_c, 0, 64, 67
2, 500488, Note_on_c, 0, 76, 0
2, 500560, Note_on_c, 0, 64, 0
2, 500568, Note_on_c, 0, 59, 63
2, 500596, Note_on_c, 0, 76, 98
2, 500628, Note_on_c, 0, 59, 0
2, 500640, Note_on_c, 0, 56, 60
2, 500712, Note_on_c, 0, 76, 0
2, 500720, Note_on_c, 0, 56, 0
2, 500728, Note_on_c, 0, 52, 67
2, 500752, Note_on_c, 0, 52, 0
2, 500860, Note_on_c, 0, 76, 97
2, 500860, Note_on_c, 0, 64, 75
2, 500860, Note_on_c, 0, 60, 72
2, 500860, Note_on_c, 0, 57, 73
2, 500912, Control_c, 0, 64, 104
2, 500920, Control_c, 0, 64, 24
2, 500932, Control_c, 0, 64, 0
2, 500980, Control_c, 0, 64, 88
2, 500992, Control_c, 0, 64, 127
2, 501004, Note_on_c, 0, 64, 66
2, 501084, Note_on_c, 0, 60, 59
2, 501088, Note_on_c, 0, 64, 0
2, 501088, Note_on_c, 0, 64, 0
2, 501144, Note_on_c, 0, 60, 0
2, 501152, Note_on_c, 0, 57, 68
2, 501216, Note_on_c, 0, 57, 0
2, 501216, Note_on_c, 0, 57, 0
2, 501232, Note_on_c, 0, 60, 0
2, 501232, Note_on_c, 0, 72, 90
2, 501240, Note_on_c, 0, 76, 0
2, 501248, Note_on_c, 0, 52, 62
2, 501288, Note_on_c, 0, 52, 0
2, 501392, Note_on_c, 0, 71, 85
2, 501392, Note_on_c, 0, 59, 68
2, 501392, Note_on_c, 0, 56, 67
2, 501392, Note_on_c, 0, 52, 68
2, 501408, Note_on_c, 0, 72, 0
2, 501456, Control_c, 0, 64, 72
2, 501464, Control_c, 0, 64, 0
2, 501524, Note_on_c, 0, 64, 66
2, 501528, Control_c, 0, 64, 72
2, 501536, Control_c, 0, 64, 127
2, 501624, Note_on_c, 0, 64, 0
2, 501628, Note_on_c, 0, 59, 68
2, 501680, Note_on_c, 0, 59, 0
2, 501688, Note_on_c, 0, 56, 68
2, 501764, Note_on_c, 0, 52, 0
2, 501764, Note_on_c, 0, 59, 0
2, 501764, Note_on_c, 0, 56, 0
2, 501776, Note_on_c, 0, 56, 0
2, 501776, Note_on_c, 0, 52, 62
2, 501780, Note_on_c, 0, 71, 0
2, 501804, Note_on_c, 0, 52, 0
2, 501856, Note_on_c, 0, 71, 91
2, 502000, Note_on_c, 0, 76, 95
2, 502000, Note_on_c, 0, 73, 73
2, 502000, Note_on_c, 0, 69, 69
2, 502000, Note_on_c, 0, 64, 69
2, 502000, Note_on_c, 0, 40, 77
2, 502000, Note_on_c, 0, 52, 70
2, 502004, Note_on_c, 0, 71, 0
2, 502060, Control_c, 0, 64, 88
2, 502068, Control_c, 0, 64, 0
2, 502140, Control_c, 0, 64, 72
2, 502148, Control_c, 0, 64, 127
2, 502152, Note_on_c, 0, 64, 67
2, 502256, Note_on_c, 0, 61, 64
2, 502316, Note_on_c, 0, 61, 0
2, 502340, Note_on_c, 0, 57, 72
2, 502428, Note_on_c, 0, 57, 0
2, 502440, Note_on_c, 0, 73, 93
2, 502452, Note_on_c, 0, 52, 63
2, 502472, Note_on_c, 0, 64, 0
2, 502636, Note_on_c, 0, 64, 0
2, 502636, Note_on_c, 0, 71, 87
2, 502636, Note_on_c, 0, 68, 73
2, 502644, Note_on_c, 0, 73, 0
2, 502644, Note_on_c, 0, 73, 0
2, 502656, Note_on_c, 0, 69, 0
2, 502672, Note_on_c, 0, 52, 0
2, 502672, Note_on_c, 0, 52, 0
2, 502732, Control_c, 0, 64, 56
2, 502744, Control_c, 0, 64, 0
2, 502804, Control_c, 0, 64, 56
2, 502816, Control_c, 0, 64, 127
2, 502824, Note_on_c, 0, 64, 68
2, 502844, Note_on_c, 0, 76, 0
2, 502928, Note_on_c, 0, 64, 0
2, 502944, Note_on_c, 0, 59, 67
2, 503020, Note_on_c, 0, 59, 0
2, 503032, Note_on_c, 0, 56, 64
2, 503056, Note_on_c, 0, 40, 0
2, 503108, Note_on_c, 0, 68, 0
2, 503140, Note_on_c, 0, 56, 0
2, 503144, Note_on_c, 0, 52, 68
2, 503160, Note_on_c, 0, 71, 0
2, 503176, Note_on_c, 0, 52, 0
2, 503428, Note_on_c, 0, 71, 88
2, 503448, Control_c, 0, 64, 56
2, 503456, Control_c, 0, 64, 0
2, 503520, Control_c, 0, 64, 104
2, 503528, Control_c, 0, 64, 127
2, 503600, Note_on_c, 0, 64, 68
2, 503696, Note_on_c, 0, 59, 69
2, 503772, Note_on_c, 0, 59, 0
2, 503776, Note_on_c, 0, 56, 61
2, 503860, Note_on_c, 0, 50, 72
2, 503880, Note_on_c, 0, 56, 0
2, 503924, Note_on_c, 0, 50, 0
2, 503940, Note_on_c, 0, 71, 0
2, 503960, Note_on_c, 0, 64, 0
2, 503976, Note_on_c, 0, 73, 95
2, 504012, Control_c, 0, 64, 88
2, 504024, Control_c, 0, 64, 0
2, 504084, Control_c, 0, 64, 88
2, 504092, Control_c, 0, 64, 127
2, 504132, Note_on_c, 0, 64, 72
2, 504200, Note_on_c, 0, 57, 71
2, 504288, Note_on_c, 0, 57, 0
2, 504288, Note_on_c, 0, 52, 68
2, 504332, Note_on_c, 0, 73, 0
2, 504368, Note_on_c, 0, 52, 0
2, 504368, Note_on_c, 0, 49, 75
2, 504412, Note_on_c, 0, 49, 0
2, 504464, Note_on_c, 0, 64, 0
2, 504472, Note_on_c, 0, 76, 99
2, 504516, Control_c, 0, 64, 40
2, 504528, Control_c, 0, 64, 0
2, 504576, Control_c, 0, 64, 56
2, 504584, Control_c, 0, 64, 127
2, 504640, Note_on_c, 0, 64, 78
2, 504716, Note_on_c, 0, 58, 61
2, 504784, Note_on_c, 0, 58, 0
2, 504792, Note_on_c, 0, 54, 66
2, 504880, Note_on_c, 0, 47, 73
2, 504908, Note_on_c, 0, 47, 0
2, 504924, Note_on_c, 0, 54, 0
2, 504924, Note_on_c, 0, 64, 0
2, 505008, Note_on_c, 0, 76, 0
2, 505080, Note_on_c, 0, 62, 85
2, 505088, Control_c, 0, 64, 104
2, 505100, Control_c, 0, 64, 40
2, 505108, Control_c, 0, 64, 0
2, 505140, Control_c, 0, 64, 72
2, 505148, Control_c, 0, 64, 127
2, 505188, Note_on_c, 0, 74, 100
2, 505192, Note_on_c, 0, 59, 68
2, 505268, Note_on_c, 0, 59, 0
2, 505268, Note_on_c, 0, 54, 67
2, 505308, Note_on_c, 0, 62, 0
2, 505332, Note_on_c, 0, 54, 0
2, 505336, Note_on_c, 0, 50, 68
2, 505372, Note_on_c, 0, 50, 0
2, 505400, Note_on_c, 0, 74, 0
2, 505420, Note_on_c, 0, 73, 103
2, 505492, Control_c, 0, 64, 104
2, 505504, Control_c, 0, 64, 0
2, 505552, Control_c, 0, 64, 40
2, 505564, Control_c, 0, 64, 127
2, 505584, Note_on_c, 0, 64, 81
2, 505660, Note_on_c, 0, 61, 71
2, 505668, Note_on_c, 0, 64, 0
2, 505700, Note_on_c, 0, 61, 0
2, 505720, Note_on_c, 0, 57, 77
2, 505784, Note_on_c, 0, 57, 0
2, 505796, Note_on_c, 0, 52, 70
2, 505840, Note_on_c, 0, 52, 0
2, 505892, Note_on_c, 0, 71, 101
2, 505912, Note_on_c, 0, 73, 0
2, 505976, Control_c, 0, 64, 40
2, 505984, Control_c, 0, 64, 0
2, 506028, Note_on_c, 0, 68, 79
2, 506036, Control_c, 0, 64, 88
2, 506044, Control_c, 0, 64, 127
2, 506108, Note_on_c, 0, 68, 0
2, 506112, Note_on_c, 0, 62, 78
2, 506148, Note_on_c, 0, 71, 0
2, 506160, Note_on_c, 0, 62, 0
2, 506172, Note_on_c, 0, 59, 72
2, 506240, Note_on_c, 0, 53, 69
2, 506244, Note_on_c, 0, 59, 0
2, 506276, Note_on_c, 0, 53, 0
2, 506316, Note_on_c, 0, 71, 98
2, 506396, Note_on_c, 0, 71, 0
2, 506404, Note_on_c, 0, 73, 97
2, 506460, Note_on_c, 0, 68, 85
2, 506496, Note_on_c, 0, 71, 100
2, 506512, Note_on_c, 0, 73, 0
2, 506532, Note_on_c, 0, 68, 0
2, 506568, Note_on_c, 0, 71, 0
2, 506584, Note_on_c, 0, 62, 73
2, 506592, Note_on_c, 0, 70, 98
2, 506628, Note_on_c, 0, 62, 0
2, 506656, Note_on_c, 0, 70, 0
2, 506668, Note_on_c, 0, 59, 70
2, 506676, Note_on_c, 0, 71, 103
2, 506740, Note_on_c, 0, 59, 0
2, 506748, Note_on_c, 0, 71, 0
2, 506756, Note_on_c, 0, 54, 67
2, 506760, Note_on_c, 0, 73, 96
2, 506800, Note_on_c, 0, 54, 0
2, 506836, Note_on_c, 0, 73, 0
2, 506856, Note_on_c, 0, 69, 94
2, 506880, Control_c, 0, 64, 88
2, 506892, Control_c, 0, 64, 0
2, 506964, Control_c, 0, 64, 127
2, 506992, Note_on_c, 0, 66, 74
2, 507064, Note_on_c, 0, 66, 0
2, 507076, Note_on_c, 0, 62, 67
2, 507128, Note_on_c, 0, 62, 0
2, 507140, Note_on_c, 0, 57, 73
2, 507204, Note_on_c, 0, 69, 0
2, 507212, Note_on_c, 0, 57, 0
2, 507268, Note_on_c, 0, 66, 82
2, 507324, Note_on_c, 0, 54, 70
2, 507376, Note_on_c, 0, 54, 0
2, 507376, Control_c, 0, 64, 0
2, 507420, Control_c, 0, 64, 72
2, 507432, Note_on_c, 0, 59, 86
2, 507432, Note_on_c, 0, 56, 78
2, 507436, Control_c, 0, 64, 72
2, 507444, Control_c, 0, 64, 0
2, 507516, Control_c, 0, 64, 104
2, 507524, Note_on_c, 0, 64, 75
2, 507524, Control_c, 0, 64, 127
2, 507576, Note_on_c, 0, 64, 0
2, 507604, Note_on_c, 0, 71, 89
2, 507680, Note_on_c, 0, 71, 0
2, 507688, Note_on_c, 0, 74, 94
2, 507700, Note_on_c, 0, 66, 0
2, 507704, Note_on_c, 0, 56, 0
2, 507772, Note_on_c, 0, 76, 94
2, 507776, Note_on_c, 0, 74, 0
2, 507784, Note_on_c, 0, 59, 0
2, 507860, Note_on_c, 0, 64, 80
2, 507876, Note_on_c, 0, 76, 0
2, 507916, Note_on_c, 0, 64, 0
2, 507936, Note_on_c, 0, 61, 98
2, 507936, Note_on_c, 0, 57, 84
2, 507936, Note_on_c, 0, 55, 68
2, 507960, Control_c, 0, 64, 56
2, 507968, Control_c, 0, 64, 0
2, 508028, Control_c, 0, 64, 104
2, 508032, Note_on_c, 0, 64, 83
2, 508040, Control_c, 0, 64, 127
2, 508072, Note_on_c, 0, 64, 0
2, 508104, Note_on_c, 0, 69, 98
2, 508168, Note_on_c, 0, 69, 0
2, 508180, Note_on_c, 0, 57, 0
2, 508184, Note_on_c, 0, 73, 94
2, 508224, Note_on_c, 0, 55, 0
2, 508240, Note_on_c, 0, 61, 0
2, 508268, Note_on_c, 0, 73, 0
2, 508272, Note_on_c, 0, 76, 98
2, 508340, Note_on_c, 0, 64, 91
2, 508372, Note_on_c, 0, 64, 0
2, 508412, Note_on_c, 0, 76, 0
2, 508448, Note_on_c, 0, 64, 98
2, 508452, Note_on_c, 0, 57, 90
2, 508456, Note_on_c, 0, 54, 83
2, 508472, Control_c, 0, 64, 104
2, 508484, Control_c, 0, 64, 0
2, 508544, Note_on_c, 0, 69, 93
2, 508564, Control_c, 0, 64, 56
2, 508572, Control_c, 0, 64, 127
2, 508612, Note_on_c, 0, 69, 0
2, 508624, Note_on_c, 0, 73, 99
2, 508640, Note_on_c, 0, 69, 38
2, 508664, Note_on_c, 0, 69, 0
2, 508692, Note_on_c, 0, 73, 0
2, 508704, Note_on_c, 0, 76, 100
2, 508784, Note_on_c, 0, 81, 99
2, 508800, Note_on_c, 0, 76, 0
2, 508860, Note_on_c, 0, 64, 0
2, 508868, Note_on_c, 0, 69, 82
2, 508956, Note_on_c, 0, 69, 0
2, 508960, Note_on_c, 0, 62, 89
2, 508976, Control_c, 0, 64, 56
2, 508984, Control_c, 0, 64, 40
2, 508996, Control_c, 0, 64, 56
2, 509004, Control_c, 0, 64, 104
2, 509016, Control_c, 0, 64, 127
2, 509040, Note_on_c, 0, 57, 0
2, 509044, Note_on_c, 0, 69, 87
2, 509052, Note_on_c, 0, 81, 0
2, 509064, Note_on_c, 0, 54, 0
2, 509088, Note_on_c, 0, 62, 0
2, 509112, Note_on_c, 0, 69, 0
2, 509120, Note_on_c, 0, 74, 95
2, 509184, Note_on_c, 0, 74, 0
2, 509216, Note_on_c, 0, 61, 94
2, 509216, Note_on_c, 0, 57, 82
2, 509216, Control_c, 0, 64, 104
2, 509228, Note_on_c, 0, 52, 84
2, 509228, Control_c, 0, 64, 40
2, 509236, Control_c, 0, 64, 0
2, 509248, Control_c, 0, 64, 24
2, 509256, Control_c, 0, 64, 56
2, 509268, Control_c, 0, 64, 127
2, 509288, Note_on_c, 0, 52, 0
2, 509288, Note_on_c, 0, 57, 0
2, 509304, Note_on_c, 0, 69, 90
2, 509368, Note_on_c, 0, 61, 0
2, 509372, Note_on_c, 0, 73, 91
2, 509380, Note_on_c, 0, 69, 0
2, 509380, Control_c, 0, 64, 56
2, 509388, Control_c, 0, 64, 0
2, 509412, Note_on_c, 0, 51, 82
2, 509416, Note_on_c, 0, 73, 0
2, 509440, Control_c, 0, 64, 72
2, 509444, Note_on_c, 0, 57, 81
2, 509448, Control_c, 0, 64, 127
2, 509452, Note_on_c, 0, 51, 0
2, 509452, Note_on_c, 0, 59, 85
2, 509500, Note_on_c, 0, 66, 103
2, 509588, Note_on_c, 0, 71, 83
2, 509640, Note_on_c, 0, 71, 0
2, 509668, Note_on_c, 0, 78, 93
2, 509720, Note_on_c, 0, 66, 0
2, 509732, Note_on_c, 0, 57, 0
2, 509732, Note_on_c, 0, 59, 0
2, 509740, Note_on_c, 0, 78, 0
2, 509752, Note_on_c, 0, 81, 93
2, 509836, Note_on_c, 0, 83, 94
2, 509864, Note_on_c, 0, 81, 0
2, 509908, Note_on_c, 0, 83, 0
2, 509916, Note_on_c, 0, 71, 87
2, 509960, Note_on_c, 0, 71, 0
2, 510000, Note_on_c, 0, 59, 94
2, 510004, Control_c, 0, 64, 104
2, 510008, Note_on_c, 0, 56, 79
2, 510012, Note_on_c, 0, 50, 77
2, 510016, Control_c, 0, 64, 0
2, 510072, Control_c, 0, 64, 127
2, 510088, Note_on_c, 0, 64, 79
2, 510140, Note_on_c, 0, 64, 0
2, 510172, Note_on_c, 0, 68, 85
2, 510204, Note_on_c, 0, 50, 0
2, 510208, Note_on_c, 0, 56, 0
2, 510252, Note_on_c, 0, 71, 90
2, 510256, Note_on_c, 0, 68, 0
2, 510268, Note_on_c, 0, 59, 0
2, 510336, Note_on_c, 0, 76, 90
2, 510348, Note_on_c, 0, 71, 0
2, 510412, Note_on_c, 0, 64, 84
2, 510436, Control_c, 0, 64, 104
2, 510440, Note_on_c, 0, 49, 75
2, 510444, Control_c, 0, 64, 0
2, 510456, Note_on_c, 0, 64, 0
2, 510472, Note_on_c, 0, 57, 78
2, 510484, Note_on_c, 0, 49, 0
2, 510484, Control_c, 0, 64, 56
2, 510496, Note_on_c, 0, 76, 0
2, 510496, Control_c, 0, 64, 127
2, 510512, Note_on_c, 0, 57, 0
2, 510524, Note_on_c, 0, 64, 94
2, 510600, Note_on_c, 0, 69, 93
2, 510664, Note_on_c, 0, 69, 0
2, 510680, Note_on_c, 0, 73, 89
2, 510764, Note_on_c, 0, 73, 0
2, 510764, Note_on_c, 0, 76, 93
2, 510840, Note_on_c, 0, 81, 89
2, 510852, Note_on_c, 0, 76, 0
2, 510912, Note_on_c, 0, 81, 0
2, 510920, Note_on_c, 0, 69, 86
2, 510968, Note_on_c, 0, 69, 0
2, 510996, Note_on_c, 0, 64, 0
2, 511008, Note_on_c, 0, 61, 94
2, 511008, Note_on_c, 0, 45, 76
2, 511012, Control_c, 0, 64, 104
2, 511020, Control_c, 0, 64, 56
2, 511032, Control_c, 0, 64, 0
2, 511040, Control_c, 0, 64, 24
2, 511052, Control_c, 0, 64, 56
2, 511060, Control_c, 0, 64, 104
2, 511072, Control_c, 0, 64, 127
2, 511096, Note_on_c, 0, 64, 83
2, 511120, Note_on_c, 0, 61, 0
2, 511152, Note_on_c, 0, 64, 0
2, 511188, Note_on_c, 0, 69, 88
2, 511268, Note_on_c, 0, 69, 0
2, 511276, Note_on_c, 0, 73, 93
2, 511276, Note_on_c, 0, 57, 92
2, 511276, Note_on_c, 0, 49, 79
2, 511336, Note_on_c, 0, 57, 0
2, 511348, Note_on_c, 0, 45, 0
2, 511356, Note_on_c, 0, 76, 90
2, 511368, Note_on_c, 0, 73, 0
2, 511420, Note_on_c, 0, 76, 0
2, 511436, Note_on_c, 0, 64, 80
2, 511488, Note_on_c, 0, 64, 0
2, 511532, Note_on_c, 0, 56, 88
2, 511532, Note_on_c, 0, 52, 82
2, 511532, Note_on_c, 0, 50, 78
2, 511532, Note_on_c, 0, 59, 83
2, 511568, Control_c, 0, 64, 56
2, 511576, Control_c, 0, 64, 0
2, 511616, Note_on_c, 0, 49, 0
2, 511628, Note_on_c, 0, 59, 80
2, 511636, Control_c, 0, 64, 56
2, 511648, Control_c, 0, 64, 127
2, 511688, Note_on_c, 0, 59, 0
2, 511708, Note_on_c, 0, 64, 86
2, 511788, Note_on_c, 0, 68, 81
2, 511792, Note_on_c, 0, 64, 0
2, 511804, Note_on_c, 0, 50, 0
2, 511812, Note_on_c, 0, 52, 0
2, 511840, Note_on_c, 0, 56, 0
2, 511872, Note_on_c, 0, 59, 0
2, 511872, Note_on_c, 0, 71, 81
2, 511880, Note_on_c, 0, 68, 0
2, 511948, Note_on_c, 0, 59, 80
2, 511980, Note_on_c, 0, 59, 0
2, 512028, Note_on_c, 0, 57, 90
2, 512028, Note_on_c, 0, 49, 83
2, 512028, Note_on_c, 0, 52, 85
2, 512028, Note_on_c, 0, 61, 86
2, 512036, Note_on_c, 0, 71, 0
2, 512060, Control_c, 0, 64, 88
2, 512072, Control_c, 0, 64, 0
2, 512100, Note_on_c, 0, 61, 82
2, 512120, Control_c, 0, 64, 72
2, 512132, Control_c, 0, 64, 127
2, 512152, Note_on_c, 0, 61, 0
2, 512184, Note_on_c, 0, 64, 88
2, 512224, Note_on_c, 0, 49, 0
2, 512256, Note_on_c, 0, 64, 0
2, 512264, Note_on_c, 0, 69, 93
2, 512272, Note_on_c, 0, 52, 0
2, 512328, Note_on_c, 0, 57, 0
2, 512348, Note_on_c, 0, 69, 0
2, 512352, Note_on_c, 0, 73, 93
2, 512368, Note_on_c, 0, 61, 0
2, 512432, Note_on_c, 0, 61, 89
2, 512464, Note_on_c, 0, 46, 69
2, 512472, Note_on_c, 0, 61, 0
2, 512476, Control_c, 0, 64, 40
2, 512484, Control_c, 0, 64, 0
2, 512492, Note_on_c, 0, 54, 83
2, 512508, Note_on_c, 0, 46, 0
2, 512516, Control_c, 0, 64, 40
2, 512520, Note_on_c, 0, 73, 0
2, 512524, Control_c, 0, 64, 127
2, 512532, Note_on_c, 0, 61, 97
2, 512532, Note_on_c, 0, 64, 94
2, 512600, Note_on_c, 0, 64, 90
2, 512656, Note_on_c, 0, 64, 0
2, 512684, Note_on_c, 0, 66, 92
2, 512736, Note_on_c, 0, 66, 0
2, 512764, Note_on_c, 0, 73, 90
2, 512780, Note_on_c, 0, 61, 0
2, 512832, Note_on_c, 0, 73, 0
2, 512844, Note_on_c, 0, 54, 0
2, 512852, Note_on_c, 0, 76, 92
2, 512916, Note_on_c, 0, 76, 0
2, 512928, Note_on_c, 0, 64, 88
2, 512988, Note_on_c, 0, 64, 0
2, 512996, Control_c, 0, 64, 24
2, 513004, Note_on_c, 0, 59, 92
2, 513008, Note_on_c, 0, 47, 79
2, 513008, Note_on_c, 0, 56, 70
2, 513008, Note_on_c, 0, 62, 91
2, 513008, Control_c, 0, 64, 0
2, 513036, Control_c, 0, 64, 56
2, 513048, Control_c, 0, 64, 127
2, 513060, Note_on_c, 0, 47, 0
2, 513068, Note_on_c, 0, 62, 88
2, 513100, Note_on_c, 0, 56, 0
2, 513100, Note_on_c, 0, 59, 0
2, 513128, Note_on_c, 0, 62, 0
2, 513156, Note_on_c, 0, 74, 98
2, 513160, Note_on_c, 0, 68, 76
2, 513176, Note_on_c, 0, 68, 0
2, 513208, Note_on_c, 0, 74, 0
2, 513240, Control_c, 0, 64, 104
2, 513244, Note_on_c, 0, 57, 94
2, 513244, Note_on_c, 0, 49, 84
2, 513244, Note_on_c, 0, 61, 90
2, 513248, Note_on_c, 0, 52, 85
2, 513248, Control_c, 0, 64, 40
2, 513256, Note_on_c, 0, 64, 0
2, 513268, Control_c, 0, 64, 72
2, 513280, Control_c, 0, 64, 127
2, 513304, Note_on_c, 0, 61, 76
2, 513308, Note_on_c, 0, 49, 0
2, 513312, Note_on_c, 0, 52, 0
2, 513320, Note_on_c, 0, 57, 0
2, 513348, Note_on_c, 0, 62, 0
2, 513368, Note_on_c, 0, 61, 0
2, 513368, Note_on_c, 0, 61, 0
2, 513388, Note_on_c, 0, 73, 95
2, 513396, Note_on_c, 0, 69, 79
2, 513412, Note_on_c, 0, 69, 0
2, 513436, Note_on_c, 0, 73, 0
2, 513488, Note_on_c, 0, 56, 95
2, 513488, Note_on_c, 0, 52, 81
2, 513488, Note_on_c, 0, 50, 78
2, 513488, Note_on_c, 0, 59, 88
2, 513488, Note_on_c, 0, 71, 91
2, 513512, Control_c, 0, 64, 88
2, 513520, Control_c, 0, 64, 0
2, 513552, Note_on_c, 0, 52, 0
2, 513560, Control_c, 0, 64, 40
2, 513572, Control_c, 0, 64, 127
2, 513584, Note_on_c, 0, 59, 86
2, 513628, Note_on_c, 0, 59, 0
2, 513660, Note_on_c, 0, 64, 90
2, 513736, Note_on_c, 0, 64, 0
2, 513744, Note_on_c, 0, 68, 88
2, 513784, Note_on_c, 0, 50, 0
2, 513820, Note_on_c, 0, 56, 0
2, 513828, Note_on_c, 0, 71, 0
2, 513828, Note_on_c, 0, 59, 0
2, 513828, Note_on_c, 0, 71, 88
2, 513836, Note_on_c, 0, 68, 0
2, 513900, Note_on_c, 0, 59, 81
2, 513932, Note_on_c, 0, 71, 0
2, 513960, Note_on_c, 0, 59, 0
2, 513976, Control_c, 0, 64, 24
2, 513984, Note_on_c, 0, 57, 94
2, 513984, Note_on_c, 0, 52, 81
2, 513984, Note_on_c, 0, 49, 80
2, 513984, Note_on_c, 0, 73, 94
2, 513984, Note_on_c, 0, 61, 92
2, 513984, Control_c, 0, 64, 0
2, 514036, Control_c, 0, 64, 127
2, 514072, Note_on_c, 0, 61, 86
2, 514128, Note_on_c, 0, 61, 0
2, 514160, Note_on_c, 0, 64, 90
2, 514208, Note_on_c, 0, 49, 0
2, 514224, Note_on_c, 0, 64, 0
2, 514244, Note_on_c, 0, 69, 96
2, 514296, Note_on_c, 0, 52, 0
2, 514304, Note_on_c, 0, 57, 0
2, 514312, Note_on_c, 0, 69, 0
2, 514324, Note_on_c, 0, 61, 0
2, 514324, Note_on_c, 0, 73, 0
2, 514328, Note_on_c, 0, 73, 93
2, 514404, Note_on_c, 0, 61, 80
2, 514416, Control_c, 0, 64, 24
2, 514420, Note_on_c, 0, 46, 77
2, 514428, Control_c, 0, 64, 0
2, 514432, Note_on_c, 0, 61, 0
2, 514452, Note_on_c, 0, 73, 0
2, 514452, Note_on_c, 0, 54, 86
2, 514468, Note_on_c, 0, 46, 0
2, 514476, Control_c, 0, 64, 104
2, 514488, Control_c, 0, 64, 127
2, 514496, Note_on_c, 0, 61, 100
2, 514496, Note_on_c, 0, 64, 90
2, 514496, Note_on_c, 0, 76, 97
2, 514576, Note_on_c, 0, 64, 91
2, 514628, Note_on_c, 0, 64, 0
2, 514660, Note_on_c, 0, 66, 98
2, 514708, Note_on_c, 0, 66, 0
2, 514740, Note_on_c, 0, 73, 99
2, 514760, Note_on_c, 0, 54, 0
2, 514760, Note_on_c, 0, 61, 0
2, 514812, Note_on_c, 0, 73, 0
2, 514832, Note_on_c, 0, 76, 96
2, 514908, Note_on_c, 0, 64, 89
2, 514912, Note_on_c, 0, 76, 0
2, 514912, Note_on_c, 0, 76, 0
2, 514972, Control_c, 0, 64, 56
2, 514980, Note_on_c, 0, 64, 0
2, 514980, Control_c, 0, 64, 0
2, 514988, Note_on_c, 0, 62, 91
2, 514992, Note_on_c, 0, 59, 93
2, 514992, Note_on_c, 0, 47, 88
2, 514992, Note_on_c, 0, 56, 87
2, 514992, Note_on_c, 0, 74, 94
2, 515012, Control_c, 0, 64, 24
2, 515020, Control_c, 0, 64, 104
2, 515032, Control_c, 0, 64, 127
2, 515036, Note_on_c, 0, 47, 0
2, 515048, Note_on_c, 0, 62, 93
2, 515068, Note_on_c, 0, 56, 0
2, 515084, Note_on_c, 0, 59, 0
2, 515108, Note_on_c, 0, 62, 0
2, 515132, Note_on_c, 0, 74, 103
2, 515136, Note_on_c, 0, 68, 73
2, 515152, Note_on_c, 0, 68, 0
2, 515192, Note_on_c, 0, 74, 0
2, 515204, Control_c, 0, 64, 104
2, 515216, Note_on_c, 0, 49, 87
2, 515216, Note_on_c, 0, 52, 90
2, 515216, Note_on_c, 0, 57, 97
2, 515216, Note_on_c, 0, 61, 91
2, 515216, Note_on_c, 0, 73, 93
2, 515216, Control_c, 0, 64, 0
2, 515220, Note_on_c, 0, 64, 0
2, 515244, Control_c, 0, 64, 24
2, 515252, Control_c, 0, 64, 104
2, 515264, Control_c, 0, 64, 127
2, 515284, Note_on_c, 0, 52, 0
2, 515284, Note_on_c, 0, 49, 0
2, 515292, Note_on_c, 0, 61, 88
2, 515304, Note_on_c, 0, 57, 0
2, 515328, Note_on_c, 0, 62, 0
2, 515332, Note_on_c, 0, 61, 0
2, 515332, Note_on_c, 0, 74, 0
2, 515364, Note_on_c, 0, 73, 98
2, 515368, Note_on_c, 0, 69, 88
2, 515404, Note_on_c, 0, 69, 0
2, 515424, Note_on_c, 0, 73, 0
2, 515464, Note_on_c, 0, 57, 99
2, 515464, Note_on_c, 0, 71, 93
2, 515464, Note_on_c, 0, 59, 83
2, 515464, Control_c, 0, 64, 104
2, 515468, Note_on_c, 0, 54, 87
2, 515472, Note_on_c, 0, 50, 87
2, 515476, Control_c, 0, 64, 0
2, 515536, Control_c, 0, 64, 127
2, 515556, Note_on_c, 0, 73, 0
2, 515556, Note_on_c, 0, 61, 0
2, 515560, Note_on_c, 0, 59, 88
2, 515620, Note_on_c, 0, 59, 0
2, 515648, Note_on_c, 0, 66, 92
2, 515724, Note_on_c, 0, 66, 0
2, 515732, Note_on_c, 0, 69, 97
2, 515756, Note_on_c, 0, 54, 0
2, 515776, Note_on_c, 0, 50, 0
2, 515820, Note_on_c, 0, 57, 0
2, 515820, Note_on_c, 0, 71, 96
2, 515828, Note_on_c, 0, 69, 0
2, 515836, Note_on_c, 0, 59, 0
2, 515836, Note_on_c, 0, 71, 0
2, 515896, Note_on_c, 0, 59, 91
2, 515936, Note_on_c, 0, 59, 0
2, 515980, Note_on_c, 0, 57, 93
2, 515980, Note_on_c, 0, 51, 84
2, 515980, Note_on_c, 0, 59, 93
2, 515980, Note_on_c, 0, 78, 97
2, 515980, Note_on_c, 0, 66, 84
2, 515980, Note_on_c, 0, 39, 78
2, 515980, Note_on_c, 0, 69, 78
2, 515988, Note_on_c, 0, 71, 0
2, 515996, Control_c, 0, 64, 104
2, 516008, Control_c, 0, 64, 0
2, 516056, Note_on_c, 0, 66, 93
2, 516060, Control_c, 0, 64, 104
2, 516068, Control_c, 0, 64, 127
2, 516100, Note_on_c, 0, 66, 0
2, 516136, Note_on_c, 0, 69, 97
2, 516204, Note_on_c, 0, 69, 0
2, 516216, Note_on_c, 0, 71, 98
2, 516284, Note_on_c, 0, 71, 0
2, 516296, Note_on_c, 0, 57, 0
2, 516296, Note_on_c, 0, 51, 0
2, 516296, Note_on_c, 0, 78, 95
2, 516324, Note_on_c, 0, 59, 0
2, 516352, Note_on_c, 0, 66, 0
2, 516352, Note_on_c, 0, 78, 0
2, 516352, Note_on_c, 0, 39, 0
2, 516380, Note_on_c, 0, 66, 87
2, 516432, Note_on_c, 0, 78, 0
2, 516448, Note_on_c, 0, 66, 0
2, 516464, Note_on_c, 0, 59, 93
2, 516468, Note_on_c, 0, 52, 88
2, 516472, Note_on_c, 0, 57, 88
2, 516472, Note_on_c, 0, 76, 93
2, 516472, Note_on_c, 0, 64, 84
2, 516472, Note_on_c, 0, 40, 80
2, 516472, Note_on_c, 0, 71, 78
2, 516500, Control_c, 0, 64, 24
2, 516512, Control_c, 0, 64, 0
2, 516548, Note_on_c, 0, 64, 88
2, 516572, Control_c, 0, 64, 72
2, 516584, Control_c, 0, 64, 127
2, 516608, Note_on_c, 0, 64, 0
2, 516608, Note_on_c, 0, 64, 0
2, 516636, Note_on_c, 0, 69, 96
2, 516704, Note_on_c, 0, 69, 0
2, 516716, Note_on_c, 0, 71, 97
2, 516736, Note_on_c, 0, 69, 0
2, 516796, Note_on_c, 0, 57, 0
2, 516796, Note_on_c, 0, 76, 99
2, 516800, Note_on_c, 0, 71, 0
2, 516808, Note_on_c, 0, 52, 0
2, 516816, Note_on_c, 0, 59, 0
2, 516844, Note_on_c, 0, 76, 0
2, 516844, Note_on_c, 0, 71, 0
2, 516844, Note_on_c, 0, 40, 0
2, 516880, Note_on_c, 0, 64, 88
2, 516912, Note_on_c, 0, 76, 0
2, 516944, Note_on_c, 0, 64, 0
2, 516952, Note_on_c, 0, 59, 94
2, 516952, Note_on_c, 0, 57, 88
2, 516952, Note_on_c, 0, 54, 76
2, 516952, Note_on_c, 0, 75, 92
2, 516952, Note_on_c, 0, 63, 80
2, 516952, Note_on_c, 0, 69, 78
2, 516952, Note_on_c, 0, 42, 81
2, 517004, Control_c, 0, 64, 88
2, 517016, Control_c, 0, 64, 0
2, 517044, Note_on_c, 0, 63, 86
2, 517076, Control_c, 0, 64, 40
2, 517084, Control_c, 0, 64, 127
2, 517120, Note_on_c, 0, 63, 0
2, 517128, Note_on_c, 0, 69, 97
2, 517216, Note_on_c, 0, 71, 93
2, 517224, Note_on_c, 0, 69, 0
2, 517224, Note_on_c, 0, 69, 0
2, 517240, Note_on_c, 0, 57, 0
2, 517260, Note_on_c, 0, 54, 0
2, 517288, Note_on_c, 0, 75, 92
2, 517312, Note_on_c, 0, 71, 0
2, 517316, Note_on_c, 0, 59, 0
2, 517324, Note_on_c, 0, 75, 0
2, 517324, Note_on_c, 0, 63, 0
2, 517324, Note_on_c, 0, 42, 0
2, 517356, Note_on_c, 0, 63, 82
2, 517416, Note_on_c, 0, 75, 0
2, 517420, Note_on_c, 0, 63, 0
2, 517444, Note_on_c, 0, 58, 97
2, 517444, Note_on_c, 0, 55, 71
2, 517444, Note_on_c, 0, 74, 96
2, 517444, Note_on_c, 0, 62, 83
2, 517444, Note_on_c, 0, 70, 80
2, 517444, Note_on_c, 0, 43, 82
2, 517488, Control_c, 0, 64, 104
2, 517500, Control_c, 0, 64, 24
2, 517508, Control_c, 0, 64, 0
2, 517536, Note_on_c, 0, 62, 91
2, 517560, Control_c, 0, 64, 56
2, 517568, Control_c, 0, 64, 127
2, 517600, Note_on_c, 0, 62, 0
2, 517612, Note_on_c, 0, 67, 90
2, 517660, Note_on_c, 0, 55, 0
2, 517660, Note_on_c, 0, 58, 0
2, 517696, Note_on_c, 0, 70, 94
2, 517712, Note_on_c, 0, 67, 0
2, 517772, Note_on_c, 0, 74, 99
2, 517780, Note_on_c, 0, 70, 0
2, 517816, Note_on_c, 0, 74, 0
2, 517816, Note_on_c, 0, 62, 0
2, 517816, Note_on_c, 0, 43, 0
2, 517816, Note_on_c, 0, 70, 0
2, 517844, Note_on_c, 0, 62, 93
2, 517872, Note_on_c, 0, 62, 0
2, 517928, Note_on_c, 0, 74, 0
2, 517932, Note_on_c, 0, 64, 99
2, 517932, Note_on_c, 0, 62, 87
2, 517932, Note_on_c, 0, 83, 102
2, 517932, Note_on_c, 0, 71, 84
2, 517932, Note_on_c, 0, 74, 81
2, 517932, Note_on_c, 0, 44, 83
2, 517936, Note_on_c, 0, 56, 79
2, 517960, Control_c, 0, 64, 24
2, 517972, Control_c, 0, 64, 0
2, 518012, Control_c, 0, 64, 88
2, 518016, Note_on_c, 0, 71, 98
2, 518024, Control_c, 0, 64, 127
2, 518064, Note_on_c, 0, 83, 0
2, 518092, Note_on_c, 0, 74, 106
2, 518164, Note_on_c, 0, 74, 0
2, 518164, Note_on_c, 0, 74, 0
2, 518168, Note_on_c, 0, 76, 103
2, 518176, Note_on_c, 0, 56, 0
2, 518220, Note_on_c, 0, 62, 0
2, 518232, Note_on_c, 0, 76, 0
2, 518240, Note_on_c, 0, 64, 0
2, 518248, Note_on_c, 0, 83, 100
2, 518304, Note_on_c, 0, 71, 0
2, 518304, Note_on_c, 0, 71, 0
2, 518304, Note_on_c, 0, 44, 0
2, 518332, Note_on_c, 0, 71, 90
2, 518360, Note_on_c, 0, 83, 0
2, 518404, Note_on_c, 0, 71, 0
2, 518404, Note_on_c, 0, 64, 96
2, 518404, Note_on_c, 0, 57, 88
2, 518404, Note_on_c, 0, 81, 96
2, 518404, Note_on_c, 0, 69, 84
2, 518404, Note_on_c, 0, 74, 80
2, 518404, Note_on_c, 0, 45, 84
2, 518408, Note_on_c, 0, 62, 88
2, 518444, Control_c, 0, 64, 56
2, 518456, Control_c, 0, 64, 0
2, 518488, Note_on_c, 0, 69, 99
2, 518504, Control_c, 0, 64, 104
2, 518512, Control_c, 0, 64, 127
2, 518560, Note_on_c, 0, 69, 0
2, 518568, Note_on_c, 0, 74, 103
2, 518644, Note_on_c, 0, 76, 98
2, 518652, Note_on_c, 0, 74, 0
2, 518708, Note_on_c, 0, 62, 0
2, 518724, Note_on_c, 0, 81, 94
2, 518740, Note_on_c, 0, 64, 0
2, 518744, Note_on_c, 0, 76, 0
2, 518776, Note_on_c, 0, 45, 0
2, 518776, Note_on_c, 0, 81, 0
2, 518776, Note_on_c, 0, 57, 0
2, 518776, Note_on_c, 0, 81, 0
2, 518776, Note_on_c, 0, 74, 0
2, 518776, Note_on_c, 0, 69, 0
2, 518788, Note_on_c, 0, 69, 97
2, 518872, Note_on_c, 0, 69, 0
2, 518892, Note_on_c, 0, 64, 95
2, 518892, Note_on_c, 0, 80, 95
2, 518892, Note_on_c, 0, 68, 84
2, 518892, Note_on_c, 0, 74, 80
2, 518892, Note_on_c, 0, 47, 86
2, 518896, Note_on_c, 0, 62, 88
2, 518900, Note_on_c, 0, 59, 83
2, 518920, Control_c, 0, 64, 56
2, 518928, Control_c, 0, 64, 0
2, 518972, Note_on_c, 0, 68, 88
2, 518976, Control_c, 0, 64, 72
2, 518988, Control_c, 0, 64, 127
2, 519040, Note_on_c, 0, 68, 0
2, 519056, Note_on_c, 0, 74, 103
2, 519112, Note_on_c, 0, 62, 0
2, 519112, Note_on_c, 0, 64, 0
2, 519136, Note_on_c, 0, 59, 0
2, 519136, Note_on_c, 0, 76, 97
2, 519148, Note_on_c, 0, 74, 0
2, 519216, Note_on_c, 0, 80, 97
2, 519228, Note_on_c, 0, 76, 0
2, 519264, Note_on_c, 0, 80, 0
2, 519264, Note_on_c, 0, 47, 0
2, 519264, Note_on_c, 0, 74, 0
2, 519264, Note_on_c, 0, 68, 0
2, 519288, Note_on_c, 0, 68, 88
2, 519320, Control_c, 0, 64, 0
2, 519332, Note_on_c, 0, 80, 0
2, 519344, Note_on_c, 0, 48, 80
2, 519364, Note_on_c, 0, 56, 68
2, 519380, Note_on_c, 0, 48, 0
2, 519384, Control_c, 0, 64, 88
2, 519388, Note_on_c, 0, 68, 0
2, 519388, Note_on_c, 0, 63, 102
2, 519388, Note_on_c, 0, 68, 76
2, 519388, Note_on_c, 0, 78, 78
2, 519392, Control_c, 0, 64, 127
2, 519412, Note_on_c, 0, 56, 0
2, 519436, Note_on_c, 0, 63, 0
2, 519476, Note_on_c, 0, 68, 94
2, 519528, Note_on_c, 0, 68, 0
2, 519528, Note_on_c, 0, 78, 0
2, 519544, Note_on_c, 0, 75, 83
2, 519572, Note_on_c, 0, 68, 0
2, 519628, Note_on_c, 0, 75, 0
2, 519632, Note_on_c, 0, 66, 106
2, 519632, Note_on_c, 0, 78, 93
2, 519632, Note_on_c, 0, 68, 81
2, 519644, Control_c, 0, 64, 88
2, 519656, Control_c, 0, 64, 104
2, 519664, Control_c, 0, 64, 127
2, 519684, Note_on_c, 0, 66, 0
2, 519704, Note_on_c, 0, 68, 88
2, 519768, Note_on_c, 0, 78, 97
2, 519772, Note_on_c, 0, 68, 0
2, 519772, Note_on_c, 0, 78, 0
2, 519784, Note_on_c, 0, 68, 0
2, 519808, Note_on_c, 0, 49, 78
2, 519812, Control_c, 0, 64, 104
2, 519824, Control_c, 0, 64, 0
2, 519828, Note_on_c, 0, 56, 70
2, 519836, Note_on_c, 0, 78, 0
2, 519852, Note_on_c, 0, 49, 0
2, 519860, Note_on_c, 0, 56, 0
2, 519860, Note_on_c, 0, 64, 97
2, 519860, Note_on_c, 0, 61, 88
2, 519864, Control_c, 0, 64, 88
2, 519876, Control_c, 0, 64, 127
2, 519908, Note_on_c, 0, 64, 0
2, 519936, Note_on_c, 0, 68, 89
2, 520000, Note_on_c, 0, 61, 0
2, 520000, Note_on_c, 0, 76, 94
2, 520008, Note_on_c, 0, 68, 0
2, 520064, Control_c, 0, 64, 88
2, 520080, Note_on_c, 0, 76, 0
2, 520080, Control_c, 0, 64, 24
2, 520084, Note_on_c, 0, 61, 100
2, 520084, Note_on_c, 0, 64, 81
2, 520084, Note_on_c, 0, 68, 81
2, 520084, Note_on_c, 0, 76, 93
2, 520096, Control_c, 0, 64, 72
2, 520108, Control_c, 0, 64, 127
2, 520128, Note_on_c, 0, 61, 0
2, 520144, Note_on_c, 0, 64, 88
2, 520212, Note_on_c, 0, 64, 0
2, 520224, Note_on_c, 0, 76, 0
2, 520224, Note_on_c, 0, 68, 0
2, 520224, Note_on_c, 0, 64, 0
2, 520224, Note_on_c, 0, 73, 92
2, 520276, Control_c, 0, 64, 0
2, 520292, Note_on_c, 0, 44, 76
2, 520296, Note_on_c, 0, 52, 83
2, 520300, Note_on_c, 0, 73, 0
2, 520308, Note_on_c, 0, 44, 0
2, 520316, Control_c, 0, 64, 72
2, 520328, Note_on_c, 0, 59, 95
2, 520328, Note_on_c, 0, 56, 88
2, 520328, Control_c, 0, 64, 127
2, 520332, Note_on_c, 0, 52, 0
2, 520380, Note_on_c, 0, 59, 0
2, 520400, Note_on_c, 0, 64, 88
2, 520468, Note_on_c, 0, 64, 0
2, 520468, Note_on_c, 0, 56, 0
2, 520480, Note_on_c, 0, 71, 96
2, 520556, Note_on_c, 0, 71, 0
2, 520564, Note_on_c, 0, 62, 101
2, 520564, Note_on_c, 0, 74, 93
2, 520564, Note_on_c, 0, 71, 84
2, 520564, Note_on_c, 0, 64, 84
2, 520608, Note_on_c, 0, 62, 0
2, 520644, Note_on_c, 0, 64, 82
2, 520704, Note_on_c, 0, 74, 0
2, 520704, Note_on_c, 0, 64, 0
2, 520704, Note_on_c, 0, 71, 0
2, 520724, Note_on_c, 0, 74, 93
2, 520736, Note_on_c, 0, 64, 0
2, 520768, Note_on_c, 0, 52, 82
2, 520768, Note_on_c, 0, 45, 85
2, 520772, Control_c, 0, 64, 56
2, 520780, Control_c, 0, 64, 0
2, 520796, Note_on_c, 0, 45, 0
2, 520800, Note_on_c, 0, 74, 0
2, 520812, Note_on_c, 0, 52, 0
2, 520812, Note_on_c, 0, 61, 97
2, 520812, Note_on_c, 0, 57, 84
2, 520812, Control_c, 0, 64, 72
2, 520824, Control_c, 0, 64, 127
2, 520864, Note_on_c, 0, 61, 0
2, 520892, Note_on_c, 0, 64, 88
2, 520952, Note_on_c, 0, 57, 0
2, 520960, Note_on_c, 0, 64, 0
2, 520976, Note_on_c, 0, 73, 86
2, 521048, Note_on_c, 0, 57, 101
2, 521048, Note_on_c, 0, 64, 84
2, 521048, Note_on_c, 0, 69, 84
2, 521048, Note_on_c, 0, 73, 91
2, 521060, Note_on_c, 0, 73, 0
2, 521092, Note_on_c, 0, 57, 0
2, 521124, Note_on_c, 0, 61, 82
2, 521188, Note_on_c, 0, 69, 0
2, 521188, Note_on_c, 0, 73, 0
2, 521188, Note_on_c, 0, 64, 0
2, 521200, Note_on_c, 0, 61, 0
2, 521204, Note_on_c, 0, 69, 89
2, 521252, Note_on_c, 0, 38, 77
2, 521252, Control_c, 0, 64, 40
2, 521256, Note_on_c, 0, 69, 0
2, 521256, Note_on_c, 0, 45, 85
2, 521264, Control_c, 0, 64, 0
2, 521276, Note_on_c, 0, 45, 0
2, 521280, Note_on_c, 0, 38, 0
2, 521296, Note_on_c, 0, 53, 99
2, 521296, Note_on_c, 0, 50, 88
2, 521296, Control_c, 0, 64, 56
2, 521304, Control_c, 0, 64, 127
2, 521332, Note_on_c, 0, 53, 0
2, 521384, Note_on_c, 0, 57, 76
2, 521436, Note_on_c, 0, 50, 0
2, 521452, Note_on_c, 0, 65, 82
2, 521456, Note_on_c, 0, 57, 0
2, 521524, Note_on_c, 0, 54, 103
2, 521524, Note_on_c, 0, 66, 81
2, 521524, Note_on_c, 0, 69, 85
2, 521524, Note_on_c, 0, 57, 81
2, 521540, Note_on_c, 0, 65, 0
2, 521580, Note_on_c, 0, 54, 0
2, 521600, Note_on_c, 0, 57, 88
2, 521664, Note_on_c, 0, 69, 0
2, 521664, Note_on_c, 0, 57, 0
2, 521664, Note_on_c, 0, 66, 0
2, 521664, Note_on_c, 0, 66, 89
2, 521676, Note_on_c, 0, 57, 0
2, 521712, Note_on_c, 0, 66, 0
2, 521712, Note_on_c, 0, 39, 71
2, 521716, Note_on_c, 0, 47, 78
2, 521716, Control_c, 0, 64, 40
2, 521728, Control_c, 0, 64, 0
2, 521744, Note_on_c, 0, 39, 0
2, 521748, Control_c, 0, 64, 24
2, 521756, Note_on_c, 0, 47, 0
2, 521756, Control_c, 0, 64, 88
2, 521768, Control_c, 0, 64, 127
2, 521772, Note_on_c, 0, 56, 97
2, 521772, Note_on_c, 0, 51, 86
2, 521840, Note_on_c, 0, 56, 0
2, 521848, Note_on_c, 0, 59, 88
2, 521912, Note_on_c, 0, 59, 0
2, 521912, Note_on_c, 0, 51, 0
2, 521916, Note_on_c, 0, 68, 88
2, 521968, Note_on_c, 0, 68, 0
2, 521992, Note_on_c, 0, 57, 100
2, 521992, Note_on_c, 0, 69, 89
2, 521992, Note_on_c, 0, 66, 84
2, 521992, Note_on_c, 0, 59, 80
2, 522040, Note_on_c, 0, 57, 0
2, 522072, Note_on_c, 0, 57, 91
2, 522128, Note_on_c, 0, 57, 0
2, 522132, Note_on_c, 0, 59, 0
2, 522132, Note_on_c, 0, 66, 0
2, 522132, Note_on_c, 0, 69, 0
2, 522152, Note_on_c, 0, 69, 91
2, 522188, Note_on_c, 0, 40, 73
2, 522192, Note_on_c, 0, 49, 73
2, 522192, Control_c, 0, 64, 104
2, 522196, Note_on_c, 0, 69, 0
2, 522200, Control_c, 0, 64, 40
2, 522212, Note_on_c, 0, 40, 0
2, 522212, Control_c, 0, 64, 0
2, 522220, Control_c, 0, 64, 40
2, 522232, Note_on_c, 0, 49, 0
2, 522232, Control_c, 0, 64, 104
2, 522244, Control_c, 0, 64, 127
2, 522248, Note_on_c, 0, 57, 104
2, 522248, Note_on_c, 0, 52, 84
2, 522288, Note_on_c, 0, 57, 0
2, 522344, Note_on_c, 0, 57, 85
2, 522388, Note_on_c, 0, 52, 0
2, 522392, Note_on_c, 0, 57, 0
2, 522404, Note_on_c, 0, 69, 93
2, 522460, Note_on_c, 0, 69, 0
2, 522472, Note_on_c, 0, 49, 99
2, 522472, Note_on_c, 0, 61, 87
2, 522472, Note_on_c, 0, 57, 83
2, 522512, Note_on_c, 0, 49, 0
2, 522556, Note_on_c, 0, 57, 59
2, 522560, Note_on_c, 0, 56, 61
2, 522596, Note_on_c, 0, 56, 0
2, 522612, Note_on_c, 0, 61, 0
2, 522612, Note_on_c, 0, 57, 0
2, 522620, Note_on_c, 0, 57, 0
2, 522628, Note_on_c, 0, 61, 93
2, 522688, Note_on_c, 0, 61, 79
2, 522696, Note_on_c, 0, 61, 0
2, 522696, Note_on_c, 0, 61, 0
2, 522724, Control_c, 0, 64, 104
2, 522736, Control_c, 0, 64, 0
2, 522748, Note_on_c, 0, 50, 97
2, 522748, Note_on_c, 0, 64, 104
2, 522748, Note_on_c, 0, 52, 94
2, 522752, Note_on_c, 0, 59, 93
2, 522756, Note_on_c, 0, 56, 88
2, 522756, Note_on_c, 0, 40, 78
2, 522796, Control_c, 0, 64, 72
2, 522804, Note_on_c, 0, 59, 0
2, 522804, Control_c, 0, 64, 127
2, 522808, Note_on_c, 0, 40, 0
2, 522816, Note_on_c, 0, 50, 0
2, 522824, Note_on_c, 0, 56, 0
2, 522836, Note_on_c, 0, 52, 0
2, 522844, Note_on_c, 0, 64, 0
2, 523024, Note_on_c, 0, 81, 96
2, 523024, Note_on_c, 0, 69, 90
2, 523024, Note_on_c, 0, 73, 90
2, 523024, Note_on_c, 0, 52, 90
2, 523024, Note_on_c, 0, 40, 90
2, 523024, Control_c, 0, 64, 100
2, 523112, Note_on_c, 0, 40, 0
2, 523112, Note_on_c, 0, 73, 0
2, 523112, Note_on_c, 0, 81, 0
2, 523112, Note_on_c, 0, 69, 0
2, 523112, Note_on_c, 0, 52, 0
2, 523192, Note_on_c, 0, 83, 100
2, 523192, Note_on_c, 0, 71, 84
2, 523192, Note_on_c, 0, 76, 84
2, 523192, Note_on_c, 0, 52, 90
2, 523192, Note_on_c, 0, 40, 90
2, 523272, Control_c, 0, 64, 56
2, 523280, Note_on_c, 0, 40, 0
2, 523280, Note_on_c, 0, 76, 0
2, 523280, Note_on_c, 0, 83, 0
2, 523280, Note_on_c, 0, 71, 0
2, 523280, Note_on_c, 0, 52, 0
2, 523284, Control_c, 0, 64, 127
2, 523308, Note_on_c, 0, 45, 103
2, 523308, Note_on_c, 0, 40, 86
2, 523324, Note_on_c, 0, 33, 79
2, 523352, Note_on_c, 0, 85, 107
2, 523352, Note_on_c, 0, 76, 88
2, 523352, Note_on_c, 0, 73, 93
2, 523352, Note_on_c, 0, 33, 93
2, 523408, Note_on_c, 0, 73, 0
2, 523412, Note_on_c, 0, 76, 0
2, 523416, Note_on_c, 0, 52, 98
2, 523432, Note_on_c, 0, 85, 0
2, 523432, Note_on_c, 0, 45, 93
2, 523440, Note_on_c, 0, 33, 0
2, 523512, Note_on_c, 0, 71, 90
2, 523516, Note_on_c, 0, 40, 0
2, 523516, Note_on_c, 0, 33, 0
2, 523516, Note_on_c, 0, 83, 98
2, 523516, Note_on_c, 0, 76, 87
2, 523516, Note_on_c, 0, 33, 93
2, 523536, Note_on_c, 0, 57, 78
2, 523572, Note_on_c, 0, 71, 0
2, 523580, Note_on_c, 0, 83, 0
2, 523580, Note_on_c, 0, 76, 0
2, 523596, Note_on_c, 0, 45, 93
2, 523604, Note_on_c, 0, 33, 0
2, 523628, Note_on_c, 0, 61, 79
2, 523668, Note_on_c, 0, 73, 94
2, 523668, Note_on_c, 0, 85, 103
2, 523672, Note_on_c, 0, 76, 75
2, 523676, Note_on_c, 0, 33, 93
2, 523684, Note_on_c, 0, 45, 0
2, 523692, Note_on_c, 0, 52, 0
2, 523708, Note_on_c, 0, 57, 0
2, 523720, Note_on_c, 0, 73, 0
2, 523736, Note_on_c, 0, 76, 0
2, 523740, Note_on_c, 0, 85, 0
2, 523744, Note_on_c, 0, 64, 84
2, 523756, Note_on_c, 0, 45, 93
2, 523764, Note_on_c, 0, 33, 0
2, 523800, Note_on_c, 0, 61, 0
2, 523804, Note_on_c, 0, 88, 108
2, 523804, Note_on_c, 0, 76, 100
2, 523844, Note_on_c, 0, 45, 0
2, 523852, Note_on_c, 0, 45, 0
2, 523852, Note_on_c, 0, 45, 0
2, 523852, Note_on_c, 0, 52, 84
2, 523860, Note_on_c, 0, 64, 0
2, 523876, Note_on_c, 0, 76, 0
2, 523876, Note_on_c, 0, 88, 0
2, 523936, Note_on_c, 0, 44, 97
2, 523948, Note_on_c, 0, 52, 0
2, 523968, Control_c, 0, 64, 88
2, 523972, Note_on_c, 0, 88, 112
2, 523972, Note_on_c, 0, 40, 94
2, 523976, Note_on_c, 0, 76, 103
2, 523976, Note_on_c, 0, 80, 90
2, 523980, Note_on_c, 0, 83, 96
2, 523984, Control_c, 0, 64, 0
2, 524028, Control_c, 0, 64, 40
2, 524044, Control_c, 0, 64, 127
2, 524048, Note_on_c, 0, 52, 93
2, 524112, Note_on_c, 0, 76, 0
2, 524124, Note_on_c, 0, 88, 0
2, 524132, Note_on_c, 0, 44, 0
2, 524132, Note_on_c, 0, 80, 0
2, 524144, Note_on_c, 0, 40, 0
2, 524144, Note_on_c, 0, 83, 0
2, 524172, Note_on_c, 0, 59, 83
2, 524264, Note_on_c, 0, 62, 87
2, 524276, Note_on_c, 0, 83, 99
2, 524276, Note_on_c, 0, 88, 112
2, 524276, Note_on_c, 0, 76, 104
2, 524276, Note_on_c, 0, 80, 96
2, 524280, Note_on_c, 0, 64, 97
2, 524280, Note_on_c, 0, 52, 94
2, 524292, Note_on_c, 0, 59, 0
2, 524332, Note_on_c, 0, 52, 0
2, 524340, Note_on_c, 0, 52, 0
2, 524364, Note_on_c, 0, 83, 0
2, 524364, Note_on_c, 0, 64, 0
2, 524372, Note_on_c, 0, 76, 0
2, 524372, Note_on_c, 0, 80, 0
2, 524372, Note_on_c, 0, 64, 86
2, 524376, Note_on_c, 0, 88, 0
2, 524412, Note_on_c, 0, 62, 0
2, 524428, Note_on_c, 0, 52, 76
2, 524440, Note_on_c, 0, 64, 100
2, 524448, Note_on_c, 0, 52, 0
2, 524464, Note_on_c, 0, 52, 86
2, 524496, Note_on_c, 0, 64, 0
2, 524556, Note_on_c, 0, 64, 0
2, 524572, Note_on_c, 0, 40, 86
2, 524572, Note_on_c, 0, 45, 100
2, 524572, Control_c, 0, 64, 104
2, 524576, Note_on_c, 0, 52, 0
2, 524584, Note_on_c, 0, 33, 80
2, 524588, Control_c, 0, 64, 24
2, 524592, Note_on_c, 0, 85, 97
2, 524592, Note_on_c, 0, 76, 103
2, 524592, Note_on_c, 0, 81, 98
2, 524592, Note_on_c, 0, 88, 113
2, 524592, Note_on_c, 0, 45, 118
2, 524592, Note_on_c, 0, 33, 98
2, 524600, Control_c, 0, 64, 0
2, 524664, Control_c, 0, 64, 40
2, 524680, Note_on_c, 0, 52, 90
2, 524680, Control_c, 0, 64, 127
2, 524792, Note_on_c, 0, 57, 84
2, 524796, Note_on_c, 0, 33, 0
2, 524816, Note_on_c, 0, 40, 0
2, 524868, Note_on_c, 0, 81, 0
2, 524872, Note_on_c, 0, 61, 83
2, 524880, Note_on_c, 0, 85, 0
2, 524884, Note_on_c, 0, 88, 0
2, 524904, Note_on_c, 0, 57, 0
2, 524904, Note_on_c, 0, 76, 0
2, 524908, Note_on_c, 0, 33, 0
2, 524932, Note_on_c, 0, 45, 0
2, 524944, Note_on_c, 0, 45, 0
2, 524948, Note_on_c, 0, 52, 0
2, 525008, Note_on_c, 0, 33, 78
2, 525012, Note_on_c, 0, 76, 90
2, 525012, Note_on_c, 0, 73, 97
2, 525012, Note_on_c, 0, 85, 101
2, 525016, Note_on_c, 0, 64, 84
2, 525016, Note_on_c, 0, 81, 81
2, 525016, Note_on_c, 0, 45, 100
2, 525048, Note_on_c, 0, 33, 0
2, 525072, Note_on_c, 0, 76, 0
2, 525076, Note_on_c, 0, 61, 0
2, 525080, Note_on_c, 0, 73, 0
2, 525084, Note_on_c, 0, 85, 0
2, 525088, Note_on_c, 0, 81, 0
2, 525100, Note_on_c, 0, 64, 0
2, 525104, Note_on_c, 0, 52, 88
2, 525112, Note_on_c, 0, 45, 0
2, 525160, Note_on_c, 0, 40, 97
2, 525172, Note_on_c, 0, 83, 109
2, 525176, Note_on_c, 0, 80, 90
2, 525176, Note_on_c, 0, 71, 98
2, 525180, Note_on_c, 0, 76, 94
2, 525196, Note_on_c, 0, 44, 99
2, 525204, Note_on_c, 0, 52, 0
2, 525240, Control_c, 0, 64, 72
2, 525256, Control_c, 0, 64, 0
2, 525312, Note_on_c, 0, 52, 90
2, 525316, Control_c, 0, 64, 56
2, 525324, Note_on_c, 0, 76, 0
2, 525328, Control_c, 0, 64, 127
2, 525340, Note_on_c, 0, 80, 0
2, 525340, Note_on_c, 0, 83, 0
2, 525368, Note_on_c, 0, 71, 0
2, 525392, Note_on_c, 0, 44, 0
2, 525412, Note_on_c, 0, 40, 0
2, 525428, Note_on_c, 0, 59, 84
2, 525472, Note_on_c, 0, 81, 103
2, 525472, Note_on_c, 0, 69, 94
2, 525472, Note_on_c, 0, 73, 94
2, 525492, Note_on_c, 0, 40, 87
2, 525492, Note_on_c, 0, 52, 93
2, 525528, Note_on_c, 0, 62, 89
2, 525548, Note_on_c, 0, 81, 0
2, 525552, Note_on_c, 0, 73, 0
2, 525552, Note_on_c, 0, 69, 0
2, 525552, Note_on_c, 0, 59, 0
2, 525572, Note_on_c, 0, 52, 0
2, 525580, Note_on_c, 0, 52, 0
2, 525580, Note_on_c, 0, 40, 0
2, 525624, Note_on_c, 0, 76, 96
2, 525624, Note_on_c, 0, 71, 95
2, 525624, Note_on_c, 0, 83, 104
2, 525628, Note_on_c, 0, 40, 75
2, 525628, Note_on_c, 0, 52, 91
2, 525644, Note_on_c, 0, 64, 90
2, 525656, Note_on_c, 0, 52, 0
2, 525660, Note_on_c, 0, 40, 0
2, 525668, Note_on_c, 0, 62, 0
2, 525688, Note_on_c, 0, 83, 0
2, 525688, Note_on_c, 0, 76, 0
2, 525696, Note_on_c, 0, 71, 0
2, 525724, Note_on_c, 0, 52, 86
2, 525752, Note_on_c, 0, 64, 0
2, 525784, Note_on_c, 0, 33, 98
2, 525792, Note_on_c, 0, 81, 88
2, 525792, Note_on_c, 0, 85, 110
2, 525792, Note_on_c, 0, 73, 95
2, 525816, Note_on_c, 0, 45, 108
2, 525828, Note_on_c, 0, 52, 0
2, 525828, Note_on_c, 0, 33, 88
2, 525828, Control_c, 0, 64, 104
2, 525844, Control_c, 0, 64, 24
2, 525848, Note_on_c, 0, 81, 0
2, 525856, Control_c, 0, 64, 0
2, 525860, Note_on_c, 0, 73, 0
2, 525860, Note_on_c, 0, 33, 0
2, 525860, Note_on_c, 0, 45, 89
2, 525872, Note_on_c, 0, 85, 0
2, 525932, Note_on_c, 0, 52, 88
2, 525936, Control_c, 0, 64, 104
2, 525940, Note_on_c, 0, 45, 0
2, 525940, Note_on_c, 0, 33, 94
2, 525948, Note_on_c, 0, 76, 92
2, 525948, Note_on_c, 0, 71, 88
2, 525948, Note_on_c, 0, 83, 100
2, 525952, Control_c, 0, 64, 127
2, 526012, Note_on_c, 0, 71, 0
2, 526012, Note_on_c, 0, 76, 0
2, 526016, Note_on_c, 0, 83, 0
2, 526020, Note_on_c, 0, 33, 0
2, 526020, Note_on_c, 0, 33, 0
2, 526024, Note_on_c, 0, 57, 83
2, 526024, Note_on_c, 0, 45, 93
2, 526100, Note_on_c, 0, 81, 90
2, 526100, Note_on_c, 0, 85, 101
2, 526100, Note_on_c, 0, 73, 97
2, 526104, Note_on_c, 0, 61, 83
2, 526112, Note_on_c, 0, 33, 94
2, 526120, Note_on_c, 0, 81, 0
2, 526148, Note_on_c, 0, 73, 0
2, 526160, Note_on_c, 0, 85, 0
2, 526172, Note_on_c, 0, 57, 0
2, 526176, Note_on_c, 0, 52, 0
2, 526176, Note_on_c, 0, 45, 0
2, 526176, Note_on_c, 0, 45, 0
2, 526188, Note_on_c, 0, 33, 0
2, 526204, Note_on_c, 0, 45, 94
2, 526228, Note_on_c, 0, 64, 87
2, 526244, Note_on_c, 0, 45, 0
2, 526248, Note_on_c, 0, 85, 97
2, 526248, Note_on_c, 0, 81, 88
2, 526248, Note_on_c, 0, 88, 107
2, 526248, Note_on_c, 0, 76, 103
2, 526272, Note_on_c, 0, 33, 85
2, 526292, Note_on_c, 0, 81, 0
2, 526300, Note_on_c, 0, 85, 0
2, 526308, Note_on_c, 0, 61, 0
2, 526308, Note_on_c, 0, 76, 0
2, 526332, Note_on_c, 0, 64, 0
2, 526332, Note_on_c, 0, 45, 84
2, 526336, Note_on_c, 0, 88, 0
2, 526340, Note_on_c, 0, 52, 93
2, 526384, Note_on_c, 0, 45, 0
2, 526384, Note_on_c, 0, 33, 0
2, 526392, Note_on_c, 0, 76, 115
2, 526392, Note_on_c, 0, 80, 100
2, 526392, Note_on_c, 0, 83, 108
2, 526392, Note_on_c, 0, 88, 115
2, 526420, Note_on_c, 0, 40, 98
2, 526432, Note_on_c, 0, 52, 0
2, 526436, Note_on_c, 0, 44, 100
2, 526464, Control_c, 0, 64, 72
2, 526480, Control_c, 0, 64, 0
2, 526504, Note_on_c, 0, 80, 0
2, 526512, Note_on_c, 0, 76, 0
2, 526520, Note_on_c, 0, 83, 0
2, 526524, Control_c, 0, 64, 40
2, 526532, Note_on_c, 0, 88, 0
2, 526540, Control_c, 0, 64, 104
2, 526544, Note_on_c, 0, 52, 93
2, 526556, Control_c, 0, 64, 127
2, 526596, Note_on_c, 0, 44, 0
2, 526620, Note_on_c, 0, 40, 0
2, 526652, Note_on_c, 0, 59, 88
2, 526712, Note_on_c, 0, 80, 90
2, 526712, Note_on_c, 0, 83, 95
2, 526712, Note_on_c, 0, 76, 103
2, 526712, Note_on_c, 0, 88, 107
2, 526712, Note_on_c, 0, 64, 97
2, 526716, Note_on_c, 0, 52, 84
2, 526744, Note_on_c, 0, 62, 88
2, 526772, Note_on_c, 0, 59, 0
2, 526776, Note_on_c, 0, 52, 0
2, 526792, Note_on_c, 0, 64, 0
2, 526804, Note_on_c, 0, 83, 0
2, 526804, Note_on_c, 0, 80, 0
2, 526808, Note_on_c, 0, 76, 0
2, 526808, Note_on_c, 0, 52, 0
2, 526832, Note_on_c, 0, 88, 0
2, 526852, Note_on_c, 0, 64, 90
2, 526860, Note_on_c, 0, 64, 98
2, 526864, Note_on_c, 0, 52, 94
2, 526884, Note_on_c, 0, 62, 0
2, 526916, Note_on_c, 0, 52, 0
2, 526928, Note_on_c, 0, 64, 0
2, 526944, Note_on_c, 0, 52, 88
2, 526956, Note_on_c, 0, 64, 0
2, 527024, Note_on_c, 0, 45, 115
2, 527028, Note_on_c, 0, 81, 101
2, 527028, Note_on_c, 0, 76, 109
2, 527028, Note_on_c, 0, 85, 101
2, 527028, Note_on_c, 0, 88, 118
2, 527028, Note_on_c, 0, 33, 98
2, 527036, Note_on_c, 0, 52, 0
2, 527044, Note_on_c, 0, 45, 101
2, 527044, Note_on_c, 0, 40, 91
2, 527048, Note_on_c, 0, 33, 86
2, 527052, Control_c, 0, 64, 40
2, 527068, Control_c, 0, 64, 0
2, 527144, Control_c, 0, 64, 88
2, 527152, Note_on_c, 0, 52, 94
2, 527160, Control_c, 0, 64, 127
2, 527188, Note_on_c, 0, 33, 0
2, 527196, Note_on_c, 0, 40, 0
2, 527260, Note_on_c, 0, 57, 84
2, 527276, Note_on_c, 0, 45, 0
2, 527328, Note_on_c, 0, 61, 84
2, 527352, Note_on_c, 0, 81, 0
2, 527360, Note_on_c, 0, 85, 0
2, 527364, Note_on_c, 0, 88, 0
2, 527376, Note_on_c, 0, 52, 0
2, 527380, Note_on_c, 0, 57, 0
2, 527392, Note_on_c, 0, 33, 0
2, 527392, Note_on_c, 0, 76, 0
2, 527404, Note_on_c, 0, 45, 0
2, 527452, Note_on_c, 0, 64, 85
2, 527472, Note_on_c, 0, 85, 98
2, 527480, Note_on_c, 0, 73, 96
2, 527488, Note_on_c, 0, 33, 91
2, 527488, Note_on_c, 0, 45, 99
2, 527492, Note_on_c, 0, 76, 88
2, 527496, Note_on_c, 0, 61, 0
2, 527508, Note_on_c, 0, 76, 0
2, 527540, Note_on_c, 0, 33, 0
2, 527540, Note_on_c, 0, 52, 87
2, 527544, Note_on_c, 0, 64, 0
2, 527556, Note_on_c, 0, 73, 0
2, 527556, Note_on_c, 0, 85, 0
2, 527576, Note_on_c, 0, 45, 0
2, 527624, Note_on_c, 0, 83, 106
2, 527628, Note_on_c, 0, 80, 88
2, 527628, Note_on_c, 0, 71, 94
2, 527632, Note_on_c, 0, 76, 84
2, 527644, Note_on_c, 0, 52, 0
2, 527644, Note_on_c, 0, 52, 98
2, 527648, Note_on_c, 0, 44, 98
2, 527648, Note_on_c, 0, 40, 94
2, 527672, Control_c, 0, 64, 72
2, 527688, Control_c, 0, 64, 0
2, 527732, Control_c, 0, 64, 40
2, 527748, Control_c, 0, 64, 104
2, 527756, Note_on_c, 0, 71, 0
2, 527764, Note_on_c, 0, 52, 88
2, 527764, Control_c, 0, 64, 127
2, 527772, Note_on_c, 0, 76, 0
2, 527784, Note_on_c, 0, 80, 0
2, 527800, Note_on_c, 0, 83, 0
2, 527804, Note_on_c, 0, 44, 0
2, 527844, Note_on_c, 0, 40, 0
2, 527848, Note_on_c, 0, 52, 0
2, 527876, Note_on_c, 0, 59, 81
2, 527932, Note_on_c, 0, 76, 108
2, 527952, Note_on_c, 0, 52, 96
2, 527952, Note_on_c, 0, 40, 87
2, 527968, Note_on_c, 0, 62, 85
2, 527968, Note_on_c, 0, 64, 58
2, 527992, Note_on_c, 0, 64, 0
2, 528000, Note_on_c, 0, 59, 0
2, 528032, Note_on_c, 0, 40, 0
2, 528032, Note_on_c, 0, 52, 0
2, 528060, Note_on_c, 0, 76, 0
2, 528064, Note_on_c, 0, 52, 0
2, 528064, Note_on_c, 0, 88, 108
2, 528080, Note_on_c, 0, 64, 85
2, 528108, Note_on_c, 0, 62, 0
2, 528164, Note_on_c, 0, 88, 0
2, 528164, Note_on_c, 0, 52, 88
2, 528176, Note_on_c, 0, 64, 0
2, 528220, Note_on_c, 0, 57, 94
2, 528224, Note_on_c, 0, 45, 95
2, 528232, Note_on_c, 0, 88, 117
2, 528236, Note_on_c, 0, 76, 108
2, 528236, Note_on_c, 0, 85, 98
2, 528240, Note_on_c, 0, 81, 94
2, 528260, Note_on_c, 0, 52, 0
2, 528292, Note_on_c, 0, 45, 104
2, 528292, Control_c, 0, 64, 104
2, 528296, Note_on_c, 0, 33, 88
2, 528308, Control_c, 0, 64, 0
2, 528352, Note_on_c, 0, 57, 0
2, 528368, Control_c, 0, 64, 40
2, 528384, Note_on_c, 0, 61, 79
2, 528384, Control_c, 0, 64, 127
2, 528388, Note_on_c, 0, 57, 77
2, 528400, Note_on_c, 0, 52, 92
2, 528428, Note_on_c, 0, 45, 0
2, 528432, Note_on_c, 0, 33, 0
2, 528440, Note_on_c, 0, 57, 0
2, 528460, Note_on_c, 0, 64, 86
2, 528468, Note_on_c, 0, 61, 0
2, 528468, Note_on_c, 0, 45, 0
2, 528500, Note_on_c, 0, 57, 82
2, 528528, Note_on_c, 0, 64, 0
2, 528528, Note_on_c, 0, 57, 77
2, 528528, Note_on_c, 0, 61, 80
2, 528572, Note_on_c, 0, 61, 83
2, 528580, Note_on_c, 0, 57, 0
2, 528596, Note_on_c, 0, 52, 0
2, 528596, Note_on_c, 0, 64, 88
2, 528600, Note_on_c, 0, 61, 0
2, 528616, Note_on_c, 0, 57, 0
2, 528672, Note_on_c, 0, 64, 0
2, 528672, Note_on_c, 0, 61, 78
2, 528672, Note_on_c, 0, 57, 76
2, 528704, Note_on_c, 0, 64, 76
2, 528724, Note_on_c, 0, 57, 0
2, 528744, Note_on_c, 0, 61, 0
2, 528744, Note_on_c, 0, 61, 0
2, 528744, Note_on_c, 0, 64, 90
2, 528772, Note_on_c, 0, 52, 82
2, 528788, Note_on_c, 0, 64, 0
2, 528812, Note_on_c, 0, 64, 0
2, 528816, Note_on_c, 0, 61, 90
2, 528820, Note_on_c, 0, 57, 86
2, 528868, Note_on_c, 0, 57, 0
2, 528884, Note_on_c, 0, 52, 0
2, 528884, Note_on_c, 0, 64, 87
2, 528892, Note_on_c, 0, 61, 0
2, 528900, Note_on_c, 0, 45, 104
2, 528956, Note_on_c, 0, 64, 0
2, 528964, Note_on_c, 0, 57, 72
2, 528964, Note_on_c, 0, 61, 77
2, 528988, Note_on_c, 0, 45, 0
2, 529012, Note_on_c, 0, 52, 84
2, 529020, Note_on_c, 0, 57, 0
2, 529040, Note_on_c, 0, 61, 0
2, 529044, Note_on_c, 0, 64, 81
2, 529092, Note_on_c, 0, 57, 81
2, 529132, Note_on_c, 0, 64, 0
2, 529140, Note_on_c, 0, 61, 73
2, 529140, Note_on_c, 0, 57, 67
2, 529160, Note_on_c, 0, 61, 79
2, 529180, Note_on_c, 0, 52, 0
2, 529216, Note_on_c, 0, 61, 0
2, 529216, Note_on_c, 0, 57, 0
2, 529216, Note_on_c, 0, 57, 0
2, 529216, Note_on_c, 0, 61, 0
2, 529220, Note_on_c, 0, 64, 79
2, 529280, Note_on_c, 0, 64, 0
2, 529280, Note_on_c, 0, 85, 0
2, 529284, Note_on_c, 0, 88, 0
2, 529300, Note_on_c, 0, 61, 64
2, 529300, Note_on_c, 0, 57, 64
2, 529304, Note_on_c, 0, 76, 0
2, 529304, Note_on_c, 0, 64, 85
2, 529344, Note_on_c, 0, 81, 0
2, 529344, Note_on_c, 0, 57, 0
2, 529364, Note_on_c, 0, 61, 0
2, 529372, Note_on_c, 0, 64, 78
2, 529404, Note_on_c, 0, 52, 90
2, 529424, Note_on_c, 0, 64, 0
2, 529464, Note_on_c, 0, 52, 0
2, 529508, Note_on_c, 0, 89, 119
2, 529512, Note_on_c, 0, 77, 109
2, 529516, Note_on_c, 0, 87, 93
2, 529516, Note_on_c, 0, 81, 97
2, 529520, Note_on_c, 0, 84, 94
2, 529528, Note_on_c, 0, 64, 0
2, 529528, Note_on_c, 0, 41, 98
2, 529532, Note_on_c, 0, 53, 88
2, 529536, Note_on_c, 0, 29, 97
2, 529540, Note_on_c, 0, 41, 78
2, 529544, Control_c, 0, 64, 88
2, 529560, Control_c, 0, 64, 0
2, 529628, Note_on_c, 0, 57, 93
2, 529640, Control_c, 0, 64, 56
2, 529656, Control_c, 0, 64, 127
2, 529708, Note_on_c, 0, 29, 0
2, 529708, Note_on_c, 0, 63, 79
2, 529716, Note_on_c, 0, 60, 78
2, 529740, Note_on_c, 0, 60, 88
2, 529756, Note_on_c, 0, 41, 0
2, 529756, Note_on_c, 0, 41, 0
2, 529760, Note_on_c, 0, 60, 0
2, 529776, Note_on_c, 0, 63, 0
2, 529784, Note_on_c, 0, 65, 82
2, 529808, Note_on_c, 0, 57, 0
2, 529824, Note_on_c, 0, 63, 83
2, 529852, Note_on_c, 0, 60, 78
2, 529852, Note_on_c, 0, 63, 78
2, 529856, Note_on_c, 0, 65, 0
2, 529864, Note_on_c, 0, 60, 0
2, 529900, Note_on_c, 0, 60, 0
2, 529920, Note_on_c, 0, 63, 0
2, 529920, Note_on_c, 0, 65, 88
2, 529932, Note_on_c, 0, 69, 84
2, 529980, Note_on_c, 0, 63, 0
2, 529996, Note_on_c, 0, 60, 76
2, 530000, Note_on_c, 0, 63, 83
2, 530004, Note_on_c, 0, 65, 0
2, 530020, Note_on_c, 0, 57, 89
2, 530040, Note_on_c, 0, 60, 0
2, 530044, Note_on_c, 0, 69, 0
2, 530064, Note_on_c, 0, 63, 0
2, 530064, Note_on_c, 0, 65, 85
2, 530140, Note_on_c, 0, 57, 0
2, 530140, Note_on_c, 0, 63, 91
2, 530144, Note_on_c, 0, 65, 0
2, 530144, Note_on_c, 0, 53, 107
2, 530144, Note_on_c, 0, 60, 86
2, 530188, Note_on_c, 0, 60, 0
2, 530216, Note_on_c, 0, 63, 0
2, 530216, Note_on_c, 0, 65, 85
2, 530256, Note_on_c, 0, 57, 88
2, 530292, Note_on_c, 0, 65, 0
2, 530296, Note_on_c, 0, 60, 76
2, 530300, Note_on_c, 0, 63, 76
2, 530340, Note_on_c, 0, 60, 0
2, 530360, Note_on_c, 0, 63, 0
2, 530360, Note_on_c, 0, 60, 88
2, 530368, Note_on_c, 0, 65, 78
2, 530376, Note_on_c, 0, 53, 0
2, 530436, Note_on_c, 0, 65, 0
2, 530436, Note_on_c, 0, 63, 84
2, 530452, Note_on_c, 0, 60, 82
2, 530452, Note_on_c, 0, 63, 79
2, 530456, Note_on_c, 0, 57, 0
2, 530472, Note_on_c, 0, 60, 0
2, 530500, Note_on_c, 0, 60, 0
2, 530516, Note_on_c, 0, 63, 0
2, 530520, Note_on_c, 0, 65, 83
2, 530548, Note_on_c, 0, 69, 89
2, 530552, Note_on_c, 0, 53, 0
2, 530596, Note_on_c, 0, 63, 0
2, 530600, Note_on_c, 0, 60, 81
2, 530600, Note_on_c, 0, 63, 80
2, 530604, Note_on_c, 0, 65, 0
2, 530616, Note_on_c, 0, 81, 0
2, 530624, Note_on_c, 0, 84, 0
2, 530644, Note_on_c, 0, 60, 0
2, 530656, Note_on_c, 0, 57, 83
2, 530660, Note_on_c, 0, 87, 0
2, 530668, Note_on_c, 0, 65, 84
2, 530672, Note_on_c, 0, 63, 0
2, 530712, Note_on_c, 0, 65, 0
2, 530736, Note_on_c, 0, 57, 0
2, 530744, Note_on_c, 0, 69, 0
2, 530764, Note_on_c, 0, 34, 89
2, 530764, Note_on_c, 0, 46, 102
2, 530764, Note_on_c, 0, 46, 101
2, 530768, Note_on_c, 0, 34, 85
2, 530780, Note_on_c, 0, 82, 83
2, 530784, Note_on_c, 0, 86, 88
2, 530788, Control_c, 0, 64, 24
2, 530800, Control_c, 0, 64, 0
2, 530868, Note_on_c, 0, 89, 0
2, 530876, Control_c, 0, 64, 56
2, 530884, Note_on_c, 0, 58, 83
2, 530896, Control_c, 0, 64, 127
2, 530924, Note_on_c, 0, 77, 0
2, 530956, Note_on_c, 0, 58, 64
2, 530956, Note_on_c, 0, 53, 72
2, 530984, Note_on_c, 0, 53, 0
2, 530992, Note_on_c, 0, 62, 86
2, 531000, Note_on_c, 0, 86, 0
2, 531008, Note_on_c, 0, 58, 0
2, 531012, Note_on_c, 0, 62, 83
2, 531028, Note_on_c, 0, 58, 0
2, 531040, Note_on_c, 0, 34, 0
2, 531068, Note_on_c, 0, 82, 0
2, 531076, Note_on_c, 0, 62, 0
2, 531084, Note_on_c, 0, 65, 88
2, 531084, Note_on_c, 0, 86, 107
2, 531088, Note_on_c, 0, 74, 103
2, 531092, Note_on_c, 0, 46, 0
2, 531096, Note_on_c, 0, 53, 80
2, 531096, Note_on_c, 0, 58, 76
2, 531136, Note_on_c, 0, 62, 0
2, 531144, Note_on_c, 0, 53, 0
2, 531160, Note_on_c, 0, 58, 0
2, 531160, Note_on_c, 0, 62, 84
2, 531172, Note_on_c, 0, 70, 89
2, 531220, Note_on_c, 0, 65, 0
2, 531228, Note_on_c, 0, 62, 0
2, 531240, Note_on_c, 0, 53, 77
2, 531244, Note_on_c, 0, 34, 0
2, 531244, Note_on_c, 0, 58, 73
2, 531264, Note_on_c, 0, 58, 84
2, 531280, Note_on_c, 0, 46, 0
2, 531288, Note_on_c, 0, 53, 0
2, 531304, Note_on_c, 0, 62, 87
2, 531308, Note_on_c, 0, 58, 0
2, 531336, Note_on_c, 0, 74, 0
2, 531344, Note_on_c, 0, 86, 0
2, 531352, Note_on_c, 0, 70, 0
2, 531364, Note_on_c, 0, 62, 0
2, 531372, Note_on_c, 0, 58, 0
2, 531376, Note_on_c, 0, 53, 107
2, 531392, Note_on_c, 0, 50, 103
2, 531392, Note_on_c, 0, 38, 93
2, 531400, Note_on_c, 0, 84, 113
2, 531400, Note_on_c, 0, 72, 107
2, 531496, Note_on_c, 0, 58, 85
2, 531532, Note_on_c, 0, 53, 0
2, 531560, Note_on_c, 0, 58, 67
2, 531564, Note_on_c, 0, 53, 76
2, 531584, Note_on_c, 0, 72, 0
2, 531604, Note_on_c, 0, 62, 83
2, 531608, Note_on_c, 0, 53, 0
2, 531624, Note_on_c, 0, 58, 0
2, 531628, Note_on_c, 0, 62, 83
2, 531644, Note_on_c, 0, 58, 0
2, 531676, Note_on_c, 0, 84, 0
2, 531692, Note_on_c, 0, 62, 0
2, 531696, Note_on_c, 0, 65, 84
2, 531704, Note_on_c, 0, 70, 91
2, 531708, Note_on_c, 0, 82, 98
2, 531712, Note_on_c, 0, 58, 78
2, 531712, Note_on_c, 0, 53, 81
2, 531740, Note_on_c, 0, 62, 0
2, 531768, Note_on_c, 0, 53, 0
2, 531784, Note_on_c, 0, 58, 0
2, 531788, Note_on_c, 0, 62, 90
2, 531792, Note_on_c, 0, 70, 87
2, 531816, Note_on_c, 0, 70, 0
2, 531820, Note_on_c, 0, 38, 0
2, 531840, Note_on_c, 0, 65, 0
2, 531848, Note_on_c, 0, 62, 0
2, 531856, Note_on_c, 0, 53, 82
2, 531864, Note_on_c, 0, 58, 74
2, 531868, Note_on_c, 0, 82, 0
2, 531876, Note_on_c, 0, 50, 0
2, 531880, Note_on_c, 0, 58, 85
2, 531908, Note_on_c, 0, 70, 0
2, 531916, Note_on_c, 0, 53, 0
2, 531932, Note_on_c, 0, 62, 86
2, 531936, Note_on_c, 0, 58, 0
2, 531972, Note_on_c, 0, 62, 0
2, 531980, Note_on_c, 0, 58, 0
2, 532008, Note_on_c, 0, 40, 100
2, 532008, Note_on_c, 0, 28, 98
2, 532008, Note_on_c, 0, 88, 113
2, 532008, Note_on_c, 0, 80, 87
2, 532008, Note_on_c, 0, 76, 97
2, 532008, Note_on_c, 0, 83, 96
2, 532016, Note_on_c, 0, 52, 94
2, 532020, Note_on_c, 0, 40, 83
2, 532024, Control_c, 0, 64, 88
2, 532040, Control_c, 0, 64, 0
2, 532108, Note_on_c, 0, 59, 91
2, 532132, Control_c, 0, 64, 72
2, 532148, Control_c, 0, 64, 127
2, 532168, Note_on_c, 0, 56, 77
2, 532180, Note_on_c, 0, 59, 82
2, 532196, Note_on_c, 0, 28, 0
2, 532216, Note_on_c, 0, 62, 88
2, 532232, Note_on_c, 0, 56, 0
2, 532244, Note_on_c, 0, 40, 0
2, 532244, Note_on_c, 0, 40, 0
2, 532252, Note_on_c, 0, 64, 86
2, 532308, Note_on_c, 0, 64, 90
2, 532312, Note_on_c, 0, 64, 0
2, 532324, Note_on_c, 0, 56, 77
2, 532332, Note_on_c, 0, 59, 83
2, 532356, Note_on_c, 0, 59, 0
2, 532356, Note_on_c, 0, 59, 0
2, 532356, Note_on_c, 0, 62, 0
2, 532380, Note_on_c, 0, 56, 0
2, 532396, Note_on_c, 0, 59, 0
2, 532396, Note_on_c, 0, 64, 90
2, 532420, Note_on_c, 0, 68, 90
2, 532436, Note_on_c, 0, 52, 0
2, 532444, Note_on_c, 0, 64, 0
2, 532460, Note_on_c, 0, 64, 0
2, 532464, Note_on_c, 0, 76, 0
2, 532464, Note_on_c, 0, 56, 83
2, 532468, Note_on_c, 0, 80, 0
2, 532472, Note_on_c, 0, 59, 73
2, 532480, Note_on_c, 0, 83, 0
2, 532484, Note_on_c, 0, 88, 0
2, 532516, Note_on_c, 0, 59, 94
2, 532520, Note_on_c, 0, 68, 0
2, 532520, Note_on_c, 0, 56, 0
2, 532536, Note_on_c, 0, 64, 82
2, 532544, Note_on_c, 0, 59, 0
2, 532580, Note_on_c, 0, 64, 0
2, 532608, Note_on_c, 0, 59, 0
2, 532612, Note_on_c, 0, 88, 107
2, 532616, Note_on_c, 0, 76, 100
2, 532616, Note_on_c, 0, 56, 100
2, 532620, Note_on_c, 0, 80, 93
2, 532620, Note_on_c, 0, 83, 101
2, 532620, Note_on_c, 0, 44, 87
2, 532636, Note_on_c, 0, 52, 104
2, 532724, Note_on_c, 0, 59, 92
2, 532748, Note_on_c, 0, 52, 0
2, 532772, Note_on_c, 0, 59, 78
2, 532820, Note_on_c, 0, 62, 87
2, 532832, Note_on_c, 0, 76, 0
2, 532848, Note_on_c, 0, 59, 0
2, 532852, Note_on_c, 0, 64, 83
2, 532884, Note_on_c, 0, 59, 0
2, 532916, Note_on_c, 0, 64, 91
2, 532920, Note_on_c, 0, 64, 0
2, 532932, Note_on_c, 0, 76, 107
2, 532940, Note_on_c, 0, 59, 81
2, 532948, Note_on_c, 0, 62, 0
2, 532964, Note_on_c, 0, 80, 0
2, 533016, Note_on_c, 0, 59, 0
2, 533020, Note_on_c, 0, 64, 85
2, 533028, Note_on_c, 0, 76, 0
2, 533036, Note_on_c, 0, 68, 78
2, 533064, Note_on_c, 0, 64, 0
2, 533072, Note_on_c, 0, 76, 98
2, 533080, Note_on_c, 0, 64, 0
2, 533084, Note_on_c, 0, 59, 82
2, 533088, Note_on_c, 0, 83, 0
2, 533116, Note_on_c, 0, 44, 0
2, 533120, Note_on_c, 0, 59, 78
2, 533140, Note_on_c, 0, 68, 0
2, 533144, Note_on_c, 0, 59, 0
2, 533148, Note_on_c, 0, 64, 88
2, 533160, Note_on_c, 0, 56, 0
2, 533180, Note_on_c, 0, 88, 0
2, 533184, Note_on_c, 0, 64, 0
2, 533184, Note_on_c, 0, 76, 0
2, 533204, Note_on_c, 0, 59, 0
2, 533236, Note_on_c, 0, 57, 94
2, 533240, Note_on_c, 0, 45, 107
2, 533240, Note_on_c, 0, 88, 107
2, 533240, Note_on_c, 0, 45, 94
2, 533244, Note_on_c, 0, 76, 101
2, 533244, Note_on_c, 0, 85, 93
2, 533248, Note_on_c, 0, 33, 88
2, 533248, Note_on_c, 0, 81, 91
2, 533248, Control_c, 0, 64, 88
2, 533264, Control_c, 0, 64, 0
2, 533344, Note_on_c, 0, 57, 82
2, 533360, Control_c, 0, 64, 56
2, 533372, Control_c, 0, 64, 127
2, 533388, Note_on_c, 0, 57, 0
2, 533400, Note_on_c, 0, 61, 85
2, 533408, Note_on_c, 0, 57, 58
2, 533424, Note_on_c, 0, 33, 0
2, 533436, Note_on_c, 0, 61, 82
2, 533452, Note_on_c, 0, 57, 0
2, 533464, Note_on_c, 0, 61, 0
2, 533472, Note_on_c, 0, 64, 81
2, 533484, Note_on_c, 0, 45, 0
2, 533544, Note_on_c, 0, 64, 88
2, 533548, Note_on_c, 0, 64, 0
2, 533548, Note_on_c, 0, 61, 83
2, 533552, Note_on_c, 0, 57, 73
2, 533584, Note_on_c, 0, 61, 0
2, 533596, Note_on_c, 0, 57, 0
2, 533604, Note_on_c, 0, 57, 0
2, 533616, Note_on_c, 0, 61, 0
2, 533620, Note_on_c, 0, 64, 84
2, 533652, Note_on_c, 0, 69, 81
2, 533692, Note_on_c, 0, 64, 0
2, 533696, Note_on_c, 0, 64, 0
2, 533700, Note_on_c, 0, 61, 77
2, 533700, Note_on_c, 0, 57, 71
2, 533752, Note_on_c, 0, 57, 0
2, 533756, Note_on_c, 0, 69, 0
2, 533756, Note_on_c, 0, 57, 84
2, 533764, Note_on_c, 0, 61, 0
2, 533768, Note_on_c, 0, 64, 88
2, 533836, Note_on_c, 0, 64, 0
2, 533848, Note_on_c, 0, 61, 90
2, 533848, Note_on_c, 0, 57, 84
2, 533864, Note_on_c, 0, 57, 0
2, 533876, Note_on_c, 0, 52, 103
2, 533912, Note_on_c, 0, 57, 0
2, 533916, Note_on_c, 0, 61, 0
2, 533920, Note_on_c, 0, 64, 89
2, 533932, Note_on_c, 0, 45, 0
2, 533980, Note_on_c, 0, 57, 90
2, 533996, Note_on_c, 0, 64, 0
2, 534004, Note_on_c, 0, 57, 70
2, 534004, Note_on_c, 0, 61, 78
2, 534048, Note_on_c, 0, 52, 0
2, 534060, Note_on_c, 0, 57, 0
2, 534064, Note_on_c, 0, 61, 83
2, 534076, Note_on_c, 0, 61, 0
2, 534084, Note_on_c, 0, 64, 88
2, 534156, Note_on_c, 0, 64, 0
2, 534164, Note_on_c, 0, 57, 81
2, 534168, Note_on_c, 0, 61, 83
2, 534172, Note_on_c, 0, 64, 93
2, 534184, Note_on_c, 0, 57, 0
2, 534200, Note_on_c, 0, 61, 0
2, 534228, Note_on_c, 0, 57, 0
2, 534232, Note_on_c, 0, 61, 0
2, 534236, Note_on_c, 0, 64, 88
2, 534240, Note_on_c, 0, 85, 0
2, 534252, Note_on_c, 0, 76, 0
2, 534276, Note_on_c, 0, 88, 0
2, 534280, Note_on_c, 0, 69, 85
2, 534304, Note_on_c, 0, 64, 0
2, 534304, Note_on_c, 0, 64, 0
2, 534312, Note_on_c, 0, 61, 79
2, 534312, Note_on_c, 0, 57, 73
2, 534344, Note_on_c, 0, 57, 88
2, 534364, Note_on_c, 0, 69, 0
2, 534368, Note_on_c, 0, 57, 0
2, 534376, Note_on_c, 0, 61, 0
2, 534376, Note_on_c, 0, 64, 83
2, 534420, Note_on_c, 0, 64, 0
2, 534460, Note_on_c, 0, 81, 0
2, 534460, Note_on_c, 0, 57, 0
2, 534484, Note_on_c, 0, 41, 93
2, 534488, Note_on_c, 0, 53, 103
2, 534496, Note_on_c, 0, 41, 108
2, 534496, Note_on_c, 0, 29, 92
2, 534496, Note_on_c, 0, 89, 116
2, 534496, Note_on_c, 0, 81, 98
2, 534500, Note_on_c, 0, 77, 104
2, 534504, Note_on_c, 0, 87, 87
2, 534504, Control_c, 0, 64, 0
2, 534508, Note_on_c, 0, 84, 88
2, 534596, Control_c, 0, 64, 104
2, 534612, Control_c, 0, 64, 127
2, 534616, Note_on_c, 0, 57, 89
2, 534680, Note_on_c, 0, 63, 83
2, 534684, Note_on_c, 0, 60, 81
2, 534712, Note_on_c, 0, 60, 89
2, 534740, Note_on_c, 0, 60, 0
2, 534748, Note_on_c, 0, 63, 0
2, 534748, Note_on_c, 0, 65, 87
2, 534776, Note_on_c, 0, 29, 0
2, 534792, Note_on_c, 0, 63, 85
2, 534812, Note_on_c, 0, 65, 0
2, 534816, Note_on_c, 0, 63, 89
2, 534820, Note_on_c, 0, 60, 87
2, 534828, Note_on_c, 0, 57, 0
2, 534828, Note_on_c, 0, 41, 0
2, 534844, Note_on_c, 0, 60, 0
2, 534872, Note_on_c, 0, 60, 0
2, 534888, Note_on_c, 0, 63, 0
2, 534888, Note_on_c, 0, 65, 91
2, 534896, Note_on_c, 0, 69, 86
2, 534952, Note_on_c, 0, 63, 0
2, 534960, Note_on_c, 0, 65, 0
2, 534964, Note_on_c, 0, 63, 85
2, 534972, Note_on_c, 0, 60, 81
2, 535000, Note_on_c, 0, 69, 0
2, 535004, Note_on_c, 0, 57, 81
2, 535016, Note_on_c, 0, 60, 0
2, 535036, Note_on_c, 0, 63, 0
2, 535036, Note_on_c, 0, 65, 92
2, 535108, Note_on_c, 0, 65, 0
2, 535112, Note_on_c, 0, 53, 101
2, 535116, Note_on_c, 0, 57, 0
2, 535120, Note_on_c, 0, 63, 93
2, 535124, Note_on_c, 0, 60, 92
2, 535184, Note_on_c, 0, 60, 0
2, 535192, Note_on_c, 0, 65, 91
2, 535200, Note_on_c, 0, 63, 0
2, 535208, Note_on_c, 0, 57, 90
2, 535248, Note_on_c, 0, 53, 0
2, 535260, Note_on_c, 0, 65, 0
2, 535268, Note_on_c, 0, 63, 88
2, 535272, Note_on_c, 0, 60, 83
2, 535312, Note_on_c, 0, 60, 88
2, 535324, Note_on_c, 0, 60, 0
2, 535336, Note_on_c, 0, 63, 0
2, 535340, Note_on_c, 0, 65, 92
2, 535380, Note_on_c, 0, 63, 83
2, 535388, Note_on_c, 0, 57, 0
2, 535408, Note_on_c, 0, 65, 0
2, 535408, Note_on_c, 0, 63, 88
2, 535416, Note_on_c, 0, 60, 83
2, 535432, Note_on_c, 0, 60, 0
2, 535460, Note_on_c, 0, 60, 0
2, 535476, Note_on_c, 0, 63, 0
2, 535476, Note_on_c, 0, 87, 0
2, 535476, Note_on_c, 0, 65, 88
2, 535484, Note_on_c, 0, 81, 0
2, 535492, Note_on_c, 0, 69, 89
2, 535512, Note_on_c, 0, 53, 0
2, 535536, Note_on_c, 0, 63, 0
2, 535544, Note_on_c, 0, 41, 0
2, 535548, Note_on_c, 0, 65, 0
2, 535552, Note_on_c, 0, 63, 83
2, 535556, Note_on_c, 0, 60, 78
2, 535588, Note_on_c, 0, 84, 0
2, 535608, Note_on_c, 0, 60, 0
2, 535612, Note_on_c, 0, 57, 82
2, 535624, Note_on_c, 0, 65, 89
2, 535632, Note_on_c, 0, 63, 0
2, 535672, Note_on_c, 0, 65, 0
2, 535692, Note_on_c, 0, 57, 0
2, 535700, Note_on_c, 0, 69, 0
2, 535716, Note_on_c, 0, 86, 69
2, 535724, Note_on_c, 0, 82, 52
2, 535724, Note_on_c, 0, 46, 101
2, 535728, Note_on_c, 0, 34, 87
2, 535736, Note_on_c, 0, 46, 102
2, 535744, Note_on_c, 0, 34, 92
2, 535744, Control_c, 0, 64, 88
2, 535760, Control_c, 0, 64, 0
2, 535808, Note_on_c, 0, 86, 0
2, 535808, Note_on_c, 0, 89, 0
2, 535856, Note_on_c, 0, 77, 0
2, 535856, Note_on_c, 0, 58, 86
2, 535864, Control_c, 0, 64, 127
2, 535964, Note_on_c, 0, 62, 84
2, 535976, Note_on_c, 0, 34, 0
2, 535976, Note_on_c, 0, 34, 0
2, 536000, Note_on_c, 0, 58, 78
2, 536004, Note_on_c, 0, 53, 76
2, 536008, Note_on_c, 0, 58, 0
2, 536012, Note_on_c, 0, 46, 0
2, 536012, Note_on_c, 0, 46, 0
2, 536036, Note_on_c, 0, 82, 0
2, 536048, Note_on_c, 0, 86, 100
2, 536048, Note_on_c, 0, 74, 94
2, 536056, Note_on_c, 0, 53, 0
2, 536056, Note_on_c, 0, 65, 83
2, 536076, Note_on_c, 0, 58, 0
2, 536080, Note_on_c, 0, 62, 81
2, 536100, Note_on_c, 0, 62, 0
2, 536144, Note_on_c, 0, 62, 0
2, 536152, Note_on_c, 0, 70, 85
2, 536168, Note_on_c, 0, 58, 75
2, 536172, Note_on_c, 0, 53, 76
2, 536196, Note_on_c, 0, 65, 0
2, 536216, Note_on_c, 0, 53, 0
2, 536236, Note_on_c, 0, 58, 0
2, 536236, Note_on_c, 0, 62, 87
2, 536248, Note_on_c, 0, 58, 82
2, 536280, Note_on_c, 0, 62, 0
2, 536280, Note_on_c, 0, 86, 0
2, 536284, Note_on_c, 0, 74, 0
2, 536304, Note_on_c, 0, 70, 0
2, 536324, Note_on_c, 0, 50, 98
2, 536328, Note_on_c, 0, 38, 88
2, 536340, Note_on_c, 0, 84, 103
2, 536344, Note_on_c, 0, 72, 96
2, 536356, Note_on_c, 0, 58, 0
2, 536356, Note_on_c, 0, 53, 106
2, 536460, Note_on_c, 0, 58, 79
2, 536472, Note_on_c, 0, 58, 73
2, 536472, Note_on_c, 0, 53, 81
2, 536512, Note_on_c, 0, 53, 0
2, 536524, Note_on_c, 0, 53, 0
2, 536540, Note_on_c, 0, 58, 0
2, 536540, Note_on_c, 0, 62, 85
2, 536544, Note_on_c, 0, 72, 0
2, 536564, Note_on_c, 0, 62, 78
2, 536600, Note_on_c, 0, 62, 0
2, 536620, Note_on_c, 0, 58, 0
2, 536628, Note_on_c, 0, 84, 0
2, 536628, Note_on_c, 0, 53, 82
2, 536628, Note_on_c, 0, 58, 80
2, 536652, Note_on_c, 0, 65, 81
2, 536660, Note_on_c, 0, 70, 90
2, 536664, Note_on_c, 0, 82, 94
2, 536684, Note_on_c, 0, 53, 0
2, 536696, Note_on_c, 0, 58, 0
2, 536696, Note_on_c, 0, 62, 0
2, 536700, Note_on_c, 0, 62, 88
2, 536748, Note_on_c, 0, 70, 82
2, 536768, Note_on_c, 0, 62, 0
2, 536768, Note_on_c, 0, 70, 0
2, 536780, Note_on_c, 0, 53, 76
2, 536788, Note_on_c, 0, 58, 73
2, 536792, Note_on_c, 0, 65, 0
2, 536792, Note_on_c, 0, 82, 0
2, 536828, Note_on_c, 0, 58, 80
2, 536848, Note_on_c, 0, 38, 0
2, 536852, Note_on_c, 0, 53, 0
2, 536860, Note_on_c, 0, 58, 0
2, 536860, Note_on_c, 0, 58, 0
2, 536860, Note_on_c, 0, 62, 86
2, 536876, Note_on_c, 0, 70, 0
2, 536880, Note_on_c, 0, 50, 0
2, 536896, Note_on_c, 0, 62, 0
2, 536960, Note_on_c, 0, 52, 99
2, 536960, Note_on_c, 0, 40, 85
2, 536964, Note_on_c, 0, 88, 107
2, 536968, Note_on_c, 0, 76, 98
2, 536972, Note_on_c, 0, 80, 89
2, 536972, Note_on_c, 0, 83, 97
2, 536976, Note_on_c, 0, 40, 99
2, 536980, Note_on_c, 0, 28, 90
2, 537016, Control_c, 0, 64, 56
2, 537032, Control_c, 0, 64, 0
2, 537088, Note_on_c, 0, 59, 81
2, 537112, Note_on_c, 0, 56, 75
2, 537116, Note_on_c, 0, 59, 83
2, 537124, Control_c, 0, 64, 56
2, 537136, Control_c, 0, 64, 127
2, 537180, Note_on_c, 0, 56, 0
2, 537180, Note_on_c, 0, 62, 81
2, 537184, Note_on_c, 0, 28, 0
2, 537188, Note_on_c, 0, 59, 0
2, 537188, Note_on_c, 0, 64, 88
2, 537244, Note_on_c, 0, 40, 0
2, 537260, Note_on_c, 0, 64, 0
2, 537268, Note_on_c, 0, 56, 78
2, 537272, Note_on_c, 0, 59, 83
2, 537276, Note_on_c, 0, 64, 84
2, 537320, Note_on_c, 0, 62, 0
2, 537332, Note_on_c, 0, 56, 0
2, 537336, Note_on_c, 0, 59, 0
2, 537344, Note_on_c, 0, 64, 90
2, 537348, Note_on_c, 0, 59, 0
2, 537372, Note_on_c, 0, 40, 0
2, 537380, Note_on_c, 0, 68, 85
2, 537404, Note_on_c, 0, 52, 0
2, 537408, Note_on_c, 0, 64, 0
2, 537412, Note_on_c, 0, 64, 0
2, 537412, Note_on_c, 0, 56, 74
2, 537420, Note_on_c, 0, 59, 78
2, 537444, Note_on_c, 0, 76, 0
2, 537464, Note_on_c, 0, 80, 0
2, 537472, Note_on_c, 0, 88, 0
2, 537476, Note_on_c, 0, 83, 0
2, 537480, Note_on_c, 0, 56, 0
2, 537488, Note_on_c, 0, 64, 81
2, 537496, Note_on_c, 0, 59, 0
2, 537496, Note_on_c, 0, 59, 88
2, 537504, Note_on_c, 0, 68, 0
2, 537532, Note_on_c, 0, 64, 0
2, 537568, Note_on_c, 0, 88, 101
2, 537568, Note_on_c, 0, 56, 101
2, 537568, Note_on_c, 0, 44, 86
2, 537576, Note_on_c, 0, 76, 98
2, 537580, Note_on_c, 0, 80, 86
2, 537580, Note_on_c, 0, 83, 94
2, 537596, Note_on_c, 0, 59, 0
2, 537596, Note_on_c, 0, 52, 106
2, 537700, Note_on_c, 0, 59, 88
2, 537708, Note_on_c, 0, 52, 0
2, 537740, Note_on_c, 0, 59, 87
2, 537792, Note_on_c, 0, 76, 0
2, 537796, Note_on_c, 0, 62, 82
2, 537816, Note_on_c, 0, 64, 93
2, 537820, Note_on_c, 0, 59, 0
2, 537840, Note_on_c, 0, 59, 0
2, 537880, Note_on_c, 0, 64, 88
2, 537888, Note_on_c, 0, 64, 0
2, 537892, Note_on_c, 0, 59, 87
2, 537896, Note_on_c, 0, 76, 97
2, 537920, Note_on_c, 0, 62, 0
2, 537972, Note_on_c, 0, 59, 0
2, 537972, Note_on_c, 0, 64, 92
2, 537984, Note_on_c, 0, 68, 76
2, 537996, Note_on_c, 0, 76, 0
2, 538024, Note_on_c, 0, 64, 0
2, 538032, Note_on_c, 0, 80, 0
2, 538036, Note_on_c, 0, 64, 0
2, 538040, Note_on_c, 0, 59, 88
2, 538044, Note_on_c, 0, 76, 97
2, 538064, Note_on_c, 0, 59, 75
2, 538076, Note_on_c, 0, 83, 0
2, 538092, Note_on_c, 0, 44, 0
2, 538100, Note_on_c, 0, 64, 90
2, 538108, Note_on_c, 0, 59, 0
2, 538116, Note_on_c, 0, 68, 0
2, 538128, Note_on_c, 0, 56, 0
2, 538140, Note_on_c, 0, 64, 0
2, 538148, Note_on_c, 0, 88, 0
2, 538152, Note_on_c, 0, 59, 0
2, 538164, Note_on_c, 0, 76, 0
2, 538192, Note_on_c, 0, 57, 100
2, 538200, Note_on_c, 0, 45, 98
2, 538220, Note_on_c, 0, 45, 104
2, 538220, Note_on_c, 0, 88, 112
2, 538224, Note_on_c, 0, 76, 103
2, 538224, Note_on_c, 0, 85, 93
2, 538228, Note_on_c, 0, 81, 93
2, 538232, Note_on_c, 0, 33, 88
2, 538252, Control_c, 0, 64, 72
2, 538268, Control_c, 0, 64, 0
2, 538280, Note_on_c, 0, 57, 0
2, 538324, Note_on_c, 0, 57, 83
2, 538360, Note_on_c, 0, 57, 78
2, 538360, Control_c, 0, 64, 127
2, 538364, Note_on_c, 0, 61, 79
2, 538412, Note_on_c, 0, 33, 0
2, 538412, Note_on_c, 0, 61, 79
2, 538436, Note_on_c, 0, 61, 0
2, 538436, Note_on_c, 0, 64, 88
2, 538512, Note_on_c, 0, 64, 0
2, 538516, Note_on_c, 0, 64, 86
2, 538528, Note_on_c, 0, 57, 79
2, 538528, Note_on_c, 0, 61, 83
2, 538556, Note_on_c, 0, 57, 0
2, 538556, Note_on_c, 0, 57, 0
2, 538556, Note_on_c, 0, 61, 0
2, 538600, Note_on_c, 0, 57, 0
2, 538604, Note_on_c, 0, 64, 90
2, 538608, Note_on_c, 0, 61, 0
2, 538616, Note_on_c, 0, 69, 83
2, 538676, Note_on_c, 0, 64, 0
2, 538676, Note_on_c, 0, 64, 0
2, 538680, Note_on_c, 0, 61, 85
2, 538680, Note_on_c, 0, 57, 79
2, 538716, Note_on_c, 0, 57, 83
2, 538748, Note_on_c, 0, 57, 0
2, 538752, Note_on_c, 0, 61, 0
2, 538756, Note_on_c, 0, 64, 88
2, 538824, Note_on_c, 0, 69, 0
2, 538840, Note_on_c, 0, 64, 0
2, 538840, Note_on_c, 0, 61, 88
2, 538840, Note_on_c, 0, 57, 83
2, 538848, Note_on_c, 0, 45, 111
2, 538852, Note_on_c, 0, 57, 0
2, 538912, Note_on_c, 0, 64, 85
2, 538916, Note_on_c, 0, 57, 0
2, 538920, Note_on_c, 0, 61, 0
2, 538964, Note_on_c, 0, 57, 83
2, 538992, Note_on_c, 0, 64, 0
2, 538992, Note_on_c, 0, 61, 84
2, 538996, Note_on_c, 0, 57, 78
2, 539020, Note_on_c, 0, 45, 0
2, 539020, Note_on_c, 0, 45, 0
2, 539020, Note_on_c, 0, 45, 0
2, 539044, Note_on_c, 0, 61, 80
2, 539060, Note_on_c, 0, 61, 0
2, 539064, Note_on_c, 0, 57, 0
2, 539072, Note_on_c, 0, 64, 85
2, 539132, Note_on_c, 0, 76, 0
2, 539140, Note_on_c, 0, 81, 0
2, 539140, Note_on_c, 0, 64, 0
2, 539148, Note_on_c, 0, 57, 74
2, 539152, Note_on_c, 0, 61, 80
2, 539164, Note_on_c, 0, 64, 91
2, 539168, Note_on_c, 0, 85, 0
2, 539172, Note_on_c, 0, 88, 0
2, 539212, Note_on_c, 0, 61, 0
2, 539212, Note_on_c, 0, 57, 0
2, 539220, Note_on_c, 0, 61, 0
2, 539220, Note_on_c, 0, 57, 0
2, 539224, Note_on_c, 0, 64, 86
2, 539276, Note_on_c, 0, 69, 88
2, 539284, Note_on_c, 0, 64, 0
2, 539288, Note_on_c, 0, 61, 82
2, 539296, Note_on_c, 0, 57, 72
2, 539328, Note_on_c, 0, 64, 0
2, 539352, Note_on_c, 0, 64, 88
2, 539356, Note_on_c, 0, 61, 0
2, 539360, Note_on_c, 0, 57, 88
2, 539372, Note_on_c, 0, 57, 0
2, 539376, Note_on_c, 0, 69, 0
2, 539400, Note_on_c, 0, 64, 0
2, 539460, Note_on_c, 0, 57, 0
2, 539496, Note_on_c, 0, 53, 111
2, 539500, Note_on_c, 0, 41, 95
2, 539512, Note_on_c, 0, 41, 108
2, 539512, Note_on_c, 0, 29, 97
2, 539512, Note_on_c, 0, 93, 112
2, 539516, Note_on_c, 0, 81, 94
2, 539520, Note_on_c, 0, 87, 98
2, 539524, Note_on_c, 0, 84, 103
2, 539572, Control_c, 0, 64, 24
2, 539588, Control_c, 0, 64, 0
2, 539656, Note_on_c, 0, 57, 94
2, 539664, Control_c, 0, 64, 88
2, 539680, Control_c, 0, 64, 127
2, 539748, Note_on_c, 0, 29, 0
2, 539776, Note_on_c, 0, 41, 0
2, 539796, Note_on_c, 0, 60, 95
2, 539832, Note_on_c, 0, 57, 0
2, 539920, Note_on_c, 0, 63, 92
2, 539948, Note_on_c, 0, 60, 0
2, 539996, Note_on_c, 0, 63, 0
2, 540080, Note_on_c, 0, 41, 94
2, 540080, Note_on_c, 0, 53, 111
2, 540080, Note_on_c, 0, 65, 100
2, 540228, Note_on_c, 0, 69, 98
2, 540264, Note_on_c, 0, 65, 0
2, 540356, Note_on_c, 0, 69, 0
2, 540360, Note_on_c, 0, 72, 94
2, 540484, Note_on_c, 0, 75, 93
2, 540536, Note_on_c, 0, 72, 0
2, 540556, Note_on_c, 0, 75, 0
2, 540608, Note_on_c, 0, 41, 0
2, 540608, Note_on_c, 0, 41, 0
2, 540620, Note_on_c, 0, 77, 107
2, 540660, Note_on_c, 0, 53, 0
2, 540660, Note_on_c, 0, 53, 0
2, 540756, Note_on_c, 0, 81, 103
2, 540876, Note_on_c, 0, 81, 0
2, 540892, Note_on_c, 0, 84, 100
2, 541008, Note_on_c, 0, 84, 0
2, 541024, Note_on_c, 0, 87, 98
2, 541112, Note_on_c, 0, 77, 0
2, 541168, Note_on_c, 0, 84, 103
2, 541172, Note_on_c, 0, 87, 0
2, 541308, Note_on_c, 0, 81, 94
2, 541344, Note_on_c, 0, 84, 0
2, 541440, Note_on_c, 0, 81, 0
2, 541444, Note_on_c, 0, 77, 103
2, 541528, Note_on_c, 0, 93, 0
2, 541536, Note_on_c, 0, 77, 0
2, 541536, Note_on_c, 0, 84, 0
2, 541544, Note_on_c, 0, 81, 0
2, 541580, Note_on_c, 0, 75, 97
2, 541696, Note_on_c, 0, 75, 0
2, 541716, Note_on_c, 0, 87, 0
2, 541728, Note_on_c, 0, 72, 97
2, 541844, Note_on_c, 0, 72, 0
2, 541856, Note_on_c, 0, 69, 95
2, 541988, Note_on_c, 0, 69, 0
2, 541996, Note_on_c, 0, 65, 92
2, 542096, Note_on_c, 0, 65, 0
2, 542148, Note_on_c, 0, 63, 88
2, 542268, Note_on_c, 0, 63, 0
2, 542296, Note_on_c, 0, 60, 98
2, 542412, Note_on_c, 0, 60, 0
2, 542436, Note_on_c, 0, 57, 94
2, 542576, Note_on_c, 0, 57, 0
2, 542584, Note_on_c, 0, 53, 98
2, 542688, Note_on_c, 0, 53, 0
2, 542748, Note_on_c, 0, 51, 100
2, 542860, Note_on_c, 0, 51, 0
2, 542900, Note_on_c, 0, 48, 104
2, 543020, Note_on_c, 0, 48, 0
2, 543052, Note_on_c, 0, 45, 103
2, 543200, Note_on_c, 0, 45, 0
2, 543224, Note_on_c, 0, 41, 98
2, 543336, Note_on_c, 0, 41, 0
2, 543408, Note_on_c, 0, 39, 97
2, 543548, Note_on_c, 0, 39, 0
2, 543608, Note_on_c, 0, 36, 109
2, 543784, Note_on_c, 0, 36, 0
2, 543812, Note_on_c, 0, 33, 104
2, 544000, Note_on_c, 0, 33, 0
2, 544032, Note_on_c, 0, 36, 107
2, 544216, Note_on_c, 0, 36, 0
2, 544240, Note_on_c, 0, 33, 109
2, 544340, Note_on_c, 0, 33, 0
2, 544568, Note_on_c, 0, 29, 109
2, 544636, Control_c, 0, 64, 72
2, 544652, Control_c, 0, 64, 0
2, 544760, Control_c, 0, 64, 127
2, 544840, Note_on_c, 0, 29, 0
2, 545036, Note_on_c, 0, 68, 92
2, 545328, Note_on_c, 0, 69, 92
2, 545356, Note_on_c, 0, 63, 69
2, 545368, Note_on_c, 0, 68, 0
2, 545368, Note_on_c, 0, 57, 65
2, 545384, Note_on_c, 0, 53, 65
2, 545472, Control_c, 0, 64, 56
2, 545488, Control_c, 0, 64, 0
2, 545588, Note_on_c, 0, 71, 94
2, 545608, Note_on_c, 0, 69, 0
2, 545628, Control_c, 0, 64, 88
2, 545644, Control_c, 0, 64, 127
2, 545816, Note_on_c, 0, 74, 101
2, 545820, Note_on_c, 0, 71, 0
2, 546016, Note_on_c, 0, 74, 0
2, 546048, Note_on_c, 0, 72, 99
2, 546200, Note_on_c, 0, 63, 0
2, 546224, Note_on_c, 0, 57, 0
2, 546232, Note_on_c, 0, 72, 0
2, 546244, Note_on_c, 0, 71, 98
2, 546244, Note_on_c, 0, 59, 69
2, 546272, Note_on_c, 0, 53, 0
2, 546412, Note_on_c, 0, 71, 0
2, 546432, Note_on_c, 0, 59, 0
2, 546460, Note_on_c, 0, 60, 77
2, 546460, Note_on_c, 0, 69, 98
2, 546524, Note_on_c, 0, 69, 0
2, 546692, Note_on_c, 0, 52, 77
2, 546692, Note_on_c, 0, 69, 92
2, 546712, Control_c, 0, 64, 56
2, 546728, Control_c, 0, 64, 0
2, 546812, Note_on_c, 0, 60, 0
2, 546836, Control_c, 0, 64, 88
2, 546852, Control_c, 0, 64, 127
2, 546896, Note_on_c, 0, 58, 83
2, 547048, Note_on_c, 0, 69, 0
2, 547080, Note_on_c, 0, 68, 90
2, 547092, Note_on_c, 0, 59, 84
2, 547100, Control_c, 0, 64, 88
2, 547112, Note_on_c, 0, 58, 0
2, 547116, Control_c, 0, 64, 0
2, 547192, Control_c, 0, 64, 24
2, 547208, Control_c, 0, 64, 56
2, 547224, Control_c, 0, 64, 72
2, 547240, Control_c, 0, 64, 56
2, 547252, Control_c, 0, 64, 0
2, 547264, Note_on_c, 0, 59, 0
2, 547276, Note_on_c, 0, 60, 88
2, 547316, Control_c, 0, 64, 56
2, 547332, Control_c, 0, 64, 127
2, 547440, Note_on_c, 0, 68, 0
2, 547460, Note_on_c, 0, 64, 88
2, 547496, Note_on_c, 0, 60, 0
2, 547508, Note_on_c, 0, 52, 0
2, 547636, Note_on_c, 0, 62, 93
2, 547644, Note_on_c, 0, 64, 0
2, 547800, Note_on_c, 0, 62, 0
2, 547820, Note_on_c, 0, 60, 93
2, 547832, Note_on_c, 0, 50, 74
2, 547972, Note_on_c, 0, 60, 0
2, 548000, Note_on_c, 0, 59, 95
2, 548112, Note_on_c, 0, 59, 0
2, 548144, Note_on_c, 0, 50, 0
2, 548224, Note_on_c, 0, 67, 91
2, 548224, Note_on_c, 0, 64, 88
2, 548224, Note_on_c, 0, 58, 84
2, 548244, Control_c, 0, 64, 104
2, 548252, Note_on_c, 0, 49, 72
2, 548260, Control_c, 0, 64, 24
2, 548276, Control_c, 0, 64, 0
2, 548368, Control_c, 0, 64, 104
2, 548384, Control_c, 0, 64, 127
2, 548412, Note_on_c, 0, 49, 0
2, 548440, Note_on_c, 0, 51, 79
2, 548452, Note_on_c, 0, 58, 0
2, 548604, Note_on_c, 0, 64, 0
2, 548616, Note_on_c, 0, 57, 88
2, 548616, Note_on_c, 0, 52, 81
2, 548676, Note_on_c, 0, 51, 0
2, 548724, Note_on_c, 0, 57, 0
2, 548764, Note_on_c, 0, 52, 0
2, 548816, Note_on_c, 0, 53, 90
2, 548996, Note_on_c, 0, 53, 0
2, 549016, Note_on_c, 0, 57, 83
2, 549200, Note_on_c, 0, 55, 90
2, 549204, Control_c, 0, 64, 104
2, 549212, Note_on_c, 0, 57, 0
2, 549220, Control_c, 0, 64, 40
2, 549236, Control_c, 0, 64, 72
2, 549252, Control_c, 0, 64, 127
2, 549348, Note_on_c, 0, 55, 0
2, 549372, Note_on_c, 0, 53, 81
2, 549564, Note_on_c, 0, 52, 91
2, 549596, Note_on_c, 0, 53, 0
2, 549652, Note_on_c, 0, 52, 0
2, 549688, Note_on_c, 0, 67, 0
2, 549784, Note_on_c, 0, 67, 95
2, 549800, Note_on_c, 0, 62, 77
2, 549800, Note_on_c, 0, 50, 88
2, 549808, Note_on_c, 0, 57, 74
2, 549824, Control_c, 0, 64, 104
2, 549840, Control_c, 0, 64, 0
2, 549916, Note_on_c, 0, 50, 0
2, 549948, Control_c, 0, 64, 127
2, 550016, Note_on_c, 0, 37, 73
2, 550148, Note_on_c, 0, 37, 0
2, 550224, Note_on_c, 0, 65, 91
2, 550236, Note_on_c, 0, 67, 0
2, 550236, Note_on_c, 0, 38, 78
2, 550320, Control_c, 0, 64, 24
2, 550336, Control_c, 0, 64, 0
2, 550380, Note_on_c, 0, 38, 0
2, 550380, Control_c, 0, 64, 40
2, 550400, Control_c, 0, 64, 104
2, 550404, Note_on_c, 0, 40, 86
2, 550416, Control_c, 0, 64, 127
2, 550588, Note_on_c, 0, 40, 0
2, 550596, Note_on_c, 0, 43, 90
2, 550744, Note_on_c, 0, 43, 0
2, 550788, Note_on_c, 0, 41, 88
2, 550944, Note_on_c, 0, 41, 0
2, 551012, Note_on_c, 0, 40, 86
2, 551208, Note_on_c, 0, 40, 0
2, 551236, Note_on_c, 0, 38, 85
2, 551316, Note_on_c, 0, 57, 0
2, 551320, Note_on_c, 0, 62, 0
2, 551360, Note_on_c, 0, 65, 0
2, 551412, Note_on_c, 0, 38, 0
2, 551556, Note_on_c, 0, 65, 83
2, 551560, Control_c, 0, 64, 40
2, 551564, Note_on_c, 0, 56, 73
2, 551572, Note_on_c, 0, 48, 74
2, 551576, Note_on_c, 0, 62, 75
2, 551576, Control_c, 0, 64, 0
2, 551588, Note_on_c, 0, 36, 77
2, 551636, Note_on_c, 0, 56, 0
2, 551640, Control_c, 0, 64, 40
2, 551652, Note_on_c, 0, 62, 0
2, 551652, Control_c, 0, 64, 127
2, 551680, Note_on_c, 0, 48, 0
2, 551688, Note_on_c, 0, 36, 0
2, 551704, Note_on_c, 0, 65, 0
2, 551840, Note_on_c, 0, 73, 86
2, 551932, Note_on_c, 0, 35, 77
2, 551984, Note_on_c, 0, 35, 0
2, 552000, Note_on_c, 0, 47, 84
2, 552036, Note_on_c, 0, 73, 0
2, 552052, Note_on_c, 0, 47, 0
2, 552192, Note_on_c, 0, 74, 94
2, 552192, Note_on_c, 0, 55, 79
2, 552352, Control_c, 0, 64, 56
2, 552368, Control_c, 0, 64, 0
2, 552408, Control_c, 0, 64, 127
2, 552420, Note_on_c, 0, 74, 0
2, 552440, Note_on_c, 0, 76, 95
2, 552508, Note_on_c, 0, 55, 0
2, 552648, Note_on_c, 0, 79, 100
2, 552716, Note_on_c, 0, 76, 0
2, 552824, Note_on_c, 0, 79, 0
2, 552860, Note_on_c, 0, 77, 100
2, 552952, Note_on_c, 0, 77, 0
2, 553072, Note_on_c, 0, 76, 100
2, 553084, Note_on_c, 0, 67, 63
2, 553088, Note_on_c, 0, 65, 83
2, 553096, Note_on_c, 0, 47, 71
2, 553112, Note_on_c, 0, 35, 74
2, 553112, Control_c, 0, 64, 104
2, 553124, Control_c, 0, 64, 40
2, 553140, Control_c, 0, 64, 0
2, 553172, Control_c, 0, 64, 72
2, 553188, Control_c, 0, 64, 127
2, 553232, Note_on_c, 0, 76, 0
2, 553276, Note_on_c, 0, 75, 97
2, 553288, Note_on_c, 0, 65, 0
2, 553296, Note_on_c, 0, 67, 0
2, 553304, Note_on_c, 0, 35, 0
2, 553340, Note_on_c, 0, 47, 0
2, 553400, Note_on_c, 0, 75, 0
2, 553476, Note_on_c, 0, 76, 98
2, 553492, Note_on_c, 0, 64, 80
2, 553512, Control_c, 0, 64, 56
2, 553524, Control_c, 0, 64, 0
2, 553528, Note_on_c, 0, 48, 74
2, 553536, Note_on_c, 0, 36, 76
2, 553576, Control_c, 0, 64, 56
2, 553588, Control_c, 0, 64, 127
2, 553640, Note_on_c, 0, 76, 0
2, 553692, Note_on_c, 0, 36, 0
2, 553692, Note_on_c, 0, 72, 100
2, 553704, Note_on_c, 0, 64, 0
2, 553732, Note_on_c, 0, 48, 0
2, 553852, Note_on_c, 0, 72, 0
2, 553880, Note_on_c, 0, 71, 95
2, 553892, Note_on_c, 0, 65, 84
2, 553912, Note_on_c, 0, 50, 78
2, 553916, Control_c, 0, 64, 24
2, 553920, Note_on_c, 0, 38, 77
2, 553928, Control_c, 0, 64, 0
2, 553944, Control_c, 0, 64, 24
2, 553960, Control_c, 0, 64, 88
2, 553976, Control_c, 0, 64, 127
2, 554052, Note_on_c, 0, 38, 0
2, 554064, Note_on_c, 0, 65, 0
2, 554076, Note_on_c, 0, 71, 0
2, 554084, Note_on_c, 0, 74, 99
2, 554100, Note_on_c, 0, 50, 0
2, 554172, Note_on_c, 0, 74, 0
2, 554292, Note_on_c, 0, 72, 96
2, 554308, Note_on_c, 0, 60, 62
2, 554320, Note_on_c, 0, 52, 75
2, 554332, Note_on_c, 0, 40, 77
2, 554332, Control_c, 0, 64, 24
2, 554348, Control_c, 0, 64, 0
2, 554424, Control_c, 0, 64, 56
2, 554440, Note_on_c, 0, 72, 0
2, 554440, Control_c, 0, 64, 127
2, 554500, Note_on_c, 0, 67, 97
2, 554508, Note_on_c, 0, 40, 0
2, 554572, Note_on_c, 0, 52, 0
2, 554592, Note_on_c, 0, 67, 0
2, 554636, Note_on_c, 0, 60, 0
2, 554724, Note_on_c, 0, 68, 88
2, 554744, Note_on_c, 0, 62, 75
2, 554748, Note_on_c, 0, 60, 60
2, 554752, Control_c, 0, 64, 72
2, 554756, Note_on_c, 0, 53, 75
2, 554768, Note_on_c, 0, 41, 78
2, 554768, Control_c, 0, 64, 0
2, 554828, Control_c, 0, 64, 40
2, 554844, Control_c, 0, 64, 127
2, 554908, Note_on_c, 0, 41, 0
2, 554924, Note_on_c, 0, 60, 0
2, 554924, Note_on_c, 0, 68, 0
2, 554944, Note_on_c, 0, 69, 94
2, 554968, Note_on_c, 0, 53, 0
2, 555044, Note_on_c, 0, 62, 0
2, 555072, Note_on_c, 0, 69, 0
2, 555212, Note_on_c, 0, 67, 87
2, 555212, Note_on_c, 0, 43, 78
2, 555212, Note_on_c, 0, 53, 75
2, 555212, Note_on_c, 0, 55, 74
2, 555212, Note_on_c, 0, 59, 78
2, 555232, Control_c, 0, 64, 104
2, 555248, Control_c, 0, 64, 0
2, 555300, Note_on_c, 0, 59, 0
2, 555340, Control_c, 0, 64, 56
2, 555356, Control_c, 0, 64, 127
2, 555400, Note_on_c, 0, 67, 0
2, 555488, Note_on_c, 0, 73, 94
2, 555496, Note_on_c, 0, 43, 0
2, 555516, Note_on_c, 0, 53, 0
2, 555524, Note_on_c, 0, 55, 0
2, 555636, Note_on_c, 0, 73, 0
2, 555704, Note_on_c, 0, 74, 98
2, 555872, Note_on_c, 0, 74, 0
2, 555912, Note_on_c, 0, 76, 100
2, 556128, Note_on_c, 0, 76, 0
2, 556136, Note_on_c, 0, 79, 103
2, 556312, Note_on_c, 0, 79, 0
2, 556360, Note_on_c, 0, 77, 106
2, 556456, Note_on_c, 0, 77, 0
2, 556560, Note_on_c, 0, 76, 104
2, 556568, Note_on_c, 0, 67, 75
2, 556568, Note_on_c, 0, 65, 92
2, 556580, Control_c, 0, 64, 56
2, 556588, Note_on_c, 0, 47, 75
2, 556596, Note_on_c, 0, 35, 75
2, 556596, Control_c, 0, 64, 0
2, 556640, Control_c, 0, 64, 56
2, 556656, Control_c, 0, 64, 127
2, 556692, Note_on_c, 0, 76, 0
2, 556744, Note_on_c, 0, 35, 0
2, 556744, Note_on_c, 0, 65, 0
2, 556756, Note_on_c, 0, 67, 0
2, 556756, Note_on_c, 0, 75, 98
2, 556788, Note_on_c, 0, 47, 0
2, 556896, Note_on_c, 0, 75, 0
2, 556956, Note_on_c, 0, 76, 103
2, 556960, Note_on_c, 0, 64, 86
2, 556968, Control_c, 0, 64, 56
2, 556980, Control_c, 0, 64, 0
2, 556996, Note_on_c, 0, 48, 74
2, 557000, Note_on_c, 0, 36, 76
2, 557028, Control_c, 0, 64, 56
2, 557044, Control_c, 0, 64, 127
2, 557108, Note_on_c, 0, 36, 0
2, 557108, Note_on_c, 0, 76, 0
2, 557152, Note_on_c, 0, 48, 0
2, 557156, Note_on_c, 0, 72, 103
2, 557160, Note_on_c, 0, 64, 0
2, 557316, Note_on_c, 0, 72, 0
2, 557340, Note_on_c, 0, 71, 97
2, 557348, Note_on_c, 0, 65, 83
2, 557352, Control_c, 0, 64, 88
2, 557368, Note_on_c, 0, 50, 78
2, 557368, Control_c, 0, 64, 0
2, 557376, Note_on_c, 0, 38, 77
2, 557416, Control_c, 0, 64, 127
2, 557496, Note_on_c, 0, 38, 0
2, 557504, Note_on_c, 0, 65, 0
2, 557516, Note_on_c, 0, 71, 0
2, 557532, Note_on_c, 0, 50, 0
2, 557536, Note_on_c, 0, 74, 99
2, 557620, Note_on_c, 0, 74, 0
2, 557736, Note_on_c, 0, 72, 100
2, 557748, Note_on_c, 0, 60, 85
2, 557756, Control_c, 0, 64, 40
2, 557760, Note_on_c, 0, 52, 75
2, 557764, Note_on_c, 0, 40, 77
2, 557772, Control_c, 0, 64, 0
2, 557836, Control_c, 0, 64, 40
2, 557852, Control_c, 0, 64, 127
2, 557868, Note_on_c, 0, 72, 0
2, 557928, Note_on_c, 0, 40, 0
2, 557936, Note_on_c, 0, 67, 94
2, 557964, Note_on_c, 0, 52, 0
2, 558016, Note_on_c, 0, 60, 0
2, 558028, Note_on_c, 0, 67, 0
2, 558136, Note_on_c, 0, 68, 90
2, 558144, Control_c, 0, 64, 104
2, 558156, Note_on_c, 0, 60, 73
2, 558160, Note_on_c, 0, 62, 81
2, 558160, Note_on_c, 0, 53, 76
2, 558160, Control_c, 0, 64, 0
2, 558172, Note_on_c, 0, 41, 78
2, 558224, Control_c, 0, 64, 40
2, 558240, Control_c, 0, 64, 127
2, 558296, Note_on_c, 0, 41, 0
2, 558308, Note_on_c, 0, 60, 0
2, 558312, Note_on_c, 0, 62, 0
2, 558320, Note_on_c, 0, 68, 0
2, 558344, Note_on_c, 0, 53, 0
2, 558348, Note_on_c, 0, 69, 97
2, 558480, Note_on_c, 0, 69, 0
2, 558580, Note_on_c, 0, 67, 96
2, 558580, Note_on_c, 0, 43, 78
2, 558580, Note_on_c, 0, 55, 72
2, 558580, Note_on_c, 0, 53, 72
2, 558580, Note_on_c, 0, 59, 79
2, 558592, Control_c, 0, 64, 56
2, 558612, Control_c, 0, 64, 0
2, 558688, Control_c, 0, 64, 88
2, 558704, Control_c, 0, 64, 127
2, 558716, Note_on_c, 0, 67, 0
2, 558840, Note_on_c, 0, 73, 96
2, 558916, Note_on_c, 0, 59, 0
2, 558920, Note_on_c, 0, 43, 0
2, 558940, Note_on_c, 0, 55, 0
2, 558952, Note_on_c, 0, 53, 0
2, 558996, Note_on_c, 0, 73, 0
2, 559040, Note_on_c, 0, 74, 104
2, 559180, Note_on_c, 0, 74, 0
2, 559220, Note_on_c, 0, 76, 103
2, 559392, Note_on_c, 0, 76, 0
2, 559416, Note_on_c, 0, 79, 111
2, 559584, Note_on_c, 0, 79, 0
2, 559628, Note_on_c, 0, 77, 115
2, 559728, Note_on_c, 0, 77, 0
2, 559832, Note_on_c, 0, 76, 106
2, 559844, Note_on_c, 0, 65, 82
2, 559864, Note_on_c, 0, 44, 73
2, 559864, Control_c, 0, 64, 104
2, 559872, Note_on_c, 0, 32, 76
2, 559880, Control_c, 0, 64, 24
2, 559896, Control_c, 0, 64, 0
2, 559924, Control_c, 0, 64, 24
2, 559940, Control_c, 0, 64, 88
2, 559956, Control_c, 0, 64, 127
2, 559964, Note_on_c, 0, 76, 0
2, 560020, Note_on_c, 0, 65, 0
2, 560020, Note_on_c, 0, 74, 103
2, 560068, Note_on_c, 0, 32, 0
2, 560100, Note_on_c, 0, 44, 0
2, 560112, Note_on_c, 0, 74, 0
2, 560208, Note_on_c, 0, 72, 101
2, 560220, Control_c, 0, 64, 88
2, 560224, Note_on_c, 0, 64, 81
2, 560236, Note_on_c, 0, 45, 85
2, 560236, Control_c, 0, 64, 0
2, 560240, Note_on_c, 0, 33, 78
2, 560280, Control_c, 0, 64, 72
2, 560296, Control_c, 0, 64, 127
2, 560360, Note_on_c, 0, 72, 0
2, 560364, Note_on_c, 0, 64, 0
2, 560372, Note_on_c, 0, 33, 0
2, 560400, Note_on_c, 0, 69, 101
2, 560416, Note_on_c, 0, 45, 0
2, 560508, Note_on_c, 0, 69, 0
2, 560588, Note_on_c, 0, 62, 84
2, 560592, Note_on_c, 0, 68, 94
2, 560592, Note_on_c, 0, 64, 87
2, 560592, Control_c, 0, 64, 72
2, 560608, Note_on_c, 0, 47, 83
2, 560608, Control_c, 0, 64, 0
2, 560612, Note_on_c, 0, 35, 76
2, 560652, Control_c, 0, 64, 40
2, 560668, Control_c, 0, 64, 104
2, 560684, Control_c, 0, 64, 127
2, 560728, Note_on_c, 0, 35, 0
2, 560728, Note_on_c, 0, 64, 0
2, 560752, Note_on_c, 0, 62, 0
2, 560768, Note_on_c, 0, 68, 0
2, 560780, Note_on_c, 0, 71, 96
2, 560788, Note_on_c, 0, 47, 0
2, 560888, Note_on_c, 0, 71, 0
2, 560968, Note_on_c, 0, 69, 96
2, 560968, Note_on_c, 0, 64, 88
2, 560980, Control_c, 0, 64, 40
2, 560984, Note_on_c, 0, 48, 91
2, 560996, Note_on_c, 0, 36, 77
2, 560996, Control_c, 0, 64, 0
2, 561012, Control_c, 0, 64, 24
2, 561024, Control_c, 0, 64, 72
2, 561036, Note_on_c, 0, 64, 0
2, 561040, Control_c, 0, 64, 127
2, 561124, Note_on_c, 0, 36, 0
2, 561136, Note_on_c, 0, 69, 0
2, 561156, Note_on_c, 0, 64, 98
2, 561176, Note_on_c, 0, 48, 0
2, 561224, Note_on_c, 0, 64, 0
2, 561340, Note_on_c, 0, 64, 95
2, 561348, Note_on_c, 0, 57, 76
2, 561352, Control_c, 0, 64, 88
2, 561356, Note_on_c, 0, 59, 84
2, 561368, Note_on_c, 0, 50, 85
2, 561368, Control_c, 0, 64, 0
2, 561384, Note_on_c, 0, 38, 77
2, 561428, Control_c, 0, 64, 104
2, 561444, Control_c, 0, 64, 127
2, 561488, Note_on_c, 0, 38, 0
2, 561500, Note_on_c, 0, 64, 0
2, 561512, Note_on_c, 0, 57, 0
2, 561528, Note_on_c, 0, 65, 94
2, 561580, Note_on_c, 0, 50, 0
2, 561596, Note_on_c, 0, 59, 0
2, 561660, Note_on_c, 0, 65, 0
2, 561780, Note_on_c, 0, 64, 94
2, 561784, Note_on_c, 0, 56, 87
2, 561788, Control_c, 0, 64, 56
2, 561792, Note_on_c, 0, 52, 88
2, 561800, Note_on_c, 0, 40, 78
2, 561800, Control_c, 0, 64, 0
2, 561860, Note_on_c, 0, 56, 0
2, 561880, Control_c, 0, 64, 88
2, 561896, Control_c, 0, 64, 127
2, 561920, Note_on_c, 0, 64, 0
2, 561948, Note_on_c, 0, 50, 46
2, 562032, Note_on_c, 0, 70, 89
2, 562096, Note_on_c, 0, 50, 0
2, 562096, Note_on_c, 0, 40, 0
2, 562096, Note_on_c, 0, 52, 0
2, 562136, Note_on_c, 0, 70, 0
2, 562216, Note_on_c, 0, 71, 98
2, 562364, Note_on_c, 0, 71, 0
2, 562408, Note_on_c, 0, 72, 109
2, 562592, Note_on_c, 0, 72, 0
2, 562612, Note_on_c, 0, 76, 106
2, 562768, Note_on_c, 0, 76, 0
2, 562800, Note_on_c, 0, 74, 104
2, 562896, Note_on_c, 0, 74, 0
2, 562988, Note_on_c, 0, 72, 106
2, 562996, Control_c, 0, 64, 104
2, 563000, Note_on_c, 0, 64, 83
2, 563004, Note_on_c, 0, 62, 95
2, 563012, Note_on_c, 0, 44, 83
2, 563012, Control_c, 0, 64, 0
2, 563020, Note_on_c, 0, 32, 77
2, 563056, Control_c, 0, 64, 24
2, 563072, Control_c, 0, 64, 88
2, 563084, Control_c, 0, 64, 127
2, 563124, Note_on_c, 0, 72, 0
2, 563160, Note_on_c, 0, 62, 0
2, 563168, Note_on_c, 0, 64, 0
2, 563184, Note_on_c, 0, 71, 99
2, 563192, Note_on_c, 0, 32, 0
2, 563264, Note_on_c, 0, 44, 0
2, 563320, Note_on_c, 0, 71, 0
2, 563376, Note_on_c, 0, 72, 104
2, 563384, Note_on_c, 0, 60, 88
2, 563384, Control_c, 0, 64, 56
2, 563396, Control_c, 0, 64, 0
2, 563400, Note_on_c, 0, 45, 90
2, 563404, Note_on_c, 0, 33, 79
2, 563444, Control_c, 0, 64, 40
2, 563460, Control_c, 0, 64, 104
2, 563472, Control_c, 0, 64, 127
2, 563524, Note_on_c, 0, 72, 0
2, 563536, Note_on_c, 0, 33, 0
2, 563568, Note_on_c, 0, 60, 0
2, 563576, Note_on_c, 0, 69, 100
2, 563592, Note_on_c, 0, 45, 0
2, 563728, Note_on_c, 0, 69, 0
2, 563756, Note_on_c, 0, 68, 94
2, 563768, Note_on_c, 0, 62, 86
2, 563768, Control_c, 0, 64, 104
2, 563780, Note_on_c, 0, 47, 86
2, 563784, Control_c, 0, 64, 24
2, 563788, Note_on_c, 0, 35, 80
2, 563800, Control_c, 0, 64, 0
2, 563812, Control_c, 0, 64, 24
2, 563832, Control_c, 0, 64, 88
2, 563848, Control_c, 0, 64, 127
2, 563920, Note_on_c, 0, 62, 0
2, 563928, Note_on_c, 0, 35, 0
2, 563940, Note_on_c, 0, 68, 0
2, 563952, Note_on_c, 0, 71, 101
2, 563968, Note_on_c, 0, 47, 0
2, 564076, Note_on_c, 0, 71, 0
2, 564140, Control_c, 0, 64, 56
2, 564144, Note_on_c, 0, 69, 98
2, 564152, Note_on_c, 0, 64, 87
2, 564156, Control_c, 0, 64, 0
2, 564164, Note_on_c, 0, 48, 94
2, 564168, Note_on_c, 0, 36, 79
2, 564204, Note_on_c, 0, 64, 0
2, 564204, Control_c, 0, 64, 72
2, 564220, Control_c, 0, 64, 127
2, 564308, Note_on_c, 0, 36, 0
2, 564312, Note_on_c, 0, 69, 0
2, 564336, Note_on_c, 0, 64, 103
2, 564352, Note_on_c, 0, 48, 0
2, 564408, Note_on_c, 0, 64, 0
2, 564520, Note_on_c, 0, 64, 94
2, 564528, Control_c, 0, 64, 88
2, 564536, Note_on_c, 0, 59, 81
2, 564536, Note_on_c, 0, 57, 71
2, 564544, Control_c, 0, 64, 0
2, 564552, Note_on_c, 0, 50, 91
2, 564564, Note_on_c, 0, 38, 78
2, 564576, Control_c, 0, 64, 40
2, 564588, Control_c, 0, 64, 104
2, 564604, Control_c, 0, 64, 127
2, 564652, Note_on_c, 0, 38, 0
2, 564688, Note_on_c, 0, 64, 0
2, 564692, Note_on_c, 0, 57, 0
2, 564720, Note_on_c, 0, 50, 0
2, 564720, Note_on_c, 0, 65, 97
2, 564768, Note_on_c, 0, 59, 0
2, 564864, Note_on_c, 0, 65, 0
2, 564964, Note_on_c, 0, 64, 99
2, 564972, Note_on_c, 0, 56, 82
2, 564980, Note_on_c, 0, 52, 90
2, 564988, Note_on_c, 0, 40, 82
2, 565008, Control_c, 0, 64, 104
2, 565024, Control_c, 0, 64, 0
2, 565084, Note_on_c, 0, 56, 0
2, 565132, Control_c, 0, 64, 127
2, 565204, Note_on_c, 0, 64, 0
2, 565220, Note_on_c, 0, 58, 92
2, 565248, Note_on_c, 0, 40, 0
2, 565324, Note_on_c, 0, 58, 0
2, 565384, Note_on_c, 0, 59, 95
2, 565516, Note_on_c, 0, 59, 0
2, 565568, Note_on_c, 0, 60, 98
2, 565724, Note_on_c, 0, 60, 0
2, 565740, Note_on_c, 0, 64, 98
2, 565888, Note_on_c, 0, 64, 0
2, 565924, Note_on_c, 0, 62, 94
2, 566088, Note_on_c, 0, 60, 92
2, 566096, Note_on_c, 0, 56, 92
2, 566140, Note_on_c, 0, 62, 0
2, 566256, Note_on_c, 0, 59, 93
2, 566264, Note_on_c, 0, 60, 0
2, 566272, Note_on_c, 0, 52, 0
2, 566312, Note_on_c, 0, 59, 0
2, 566448, Note_on_c, 0, 65, 95
2, 566452, Note_on_c, 0, 60, 84
2, 566472, Note_on_c, 0, 52, 88
2, 566508, Control_c, 0, 64, 72
2, 566524, Control_c, 0, 64, 0
2, 566616, Control_c, 0, 64, 88
2, 566636, Note_on_c, 0, 64, 99
2, 566636, Control_c, 0, 64, 127
2, 566644, Note_on_c, 0, 65, 0
2, 566660, Note_on_c, 0, 60, 0
2, 566708, Note_on_c, 0, 64, 0
2, 566812, Note_on_c, 0, 65, 94
2, 566828, Note_on_c, 0, 57, 88
2, 566872, Note_on_c, 0, 56, 0
2, 566928, Control_c, 0, 64, 72
2, 566944, Control_c, 0, 64, 0
2, 566988, Note_on_c, 0, 69, 98
2, 567008, Control_c, 0, 64, 72
2, 567024, Control_c, 0, 64, 127
2, 567160, Note_on_c, 0, 69, 0
2, 567176, Note_on_c, 0, 72, 107
2, 567320, Note_on_c, 0, 72, 0
2, 567348, Note_on_c, 0, 71, 101
2, 567396, Note_on_c, 0, 65, 0
2, 567524, Note_on_c, 0, 62, 103
2, 567536, Note_on_c, 0, 71, 0
2, 567540, Note_on_c, 0, 69, 95
2, 567556, Note_on_c, 0, 65, 66
2, 567596, Control_c, 0, 64, 88
2, 567608, Control_c, 0, 64, 0
2, 567672, Control_c, 0, 64, 56
2, 567688, Control_c, 0, 64, 127
2, 567692, Note_on_c, 0, 69, 0
2, 567704, Note_on_c, 0, 68, 90
2, 567748, Note_on_c, 0, 65, 0
2, 567848, Note_on_c, 0, 68, 0
2, 567884, Note_on_c, 0, 57, 0
2, 567900, Note_on_c, 0, 69, 101
2, 567908, Note_on_c, 0, 64, 84
2, 567936, Control_c, 0, 64, 104
2, 567952, Control_c, 0, 64, 24
2, 567996, Control_c, 0, 64, 127
2, 568044, Note_on_c, 0, 69, 0
2, 568080, Note_on_c, 0, 68, 91
2, 568104, Note_on_c, 0, 62, 0
2, 568116, Note_on_c, 0, 60, 89
2, 568220, Note_on_c, 0, 60, 0
2, 568232, Note_on_c, 0, 68, 0
2, 568268, Note_on_c, 0, 69, 98
2, 568268, Note_on_c, 0, 59, 83
2, 568388, Note_on_c, 0, 59, 0
2, 568388, Note_on_c, 0, 69, 0
2, 568420, Note_on_c, 0, 72, 99
2, 568420, Note_on_c, 0, 57, 88
2, 568512, Note_on_c, 0, 72, 0
2, 568552, Note_on_c, 0, 72, 93
2, 568616, Control_c, 0, 64, 40
2, 568632, Note_on_c, 0, 76, 113
2, 568632, Control_c, 0, 64, 0
2, 568668, Note_on_c, 0, 72, 0
2, 568696, Control_c, 0, 64, 40
2, 568708, Control_c, 0, 64, 127
2, 568764, Note_on_c, 0, 76, 0
2, 568804, Note_on_c, 0, 74, 104
2, 568856, Note_on_c, 0, 64, 0
2, 568896, Note_on_c, 0, 74, 0
2, 568948, Note_on_c, 0, 57, 0
2, 568980, Note_on_c, 0, 72, 104
2, 568988, Note_on_c, 0, 56, 68
2, 568992, Note_on_c, 0, 62, 88
2, 569128, Note_on_c, 0, 52, 0
2, 569136, Note_on_c, 0, 72, 0
2, 569136, Note_on_c, 0, 62, 0
2, 569160, Note_on_c, 0, 71, 100
2, 569344, Note_on_c, 0, 71, 0
2, 569352, Note_on_c, 0, 74, 100
2, 569356, Note_on_c, 0, 62, 27
2, 569360, Control_c, 0, 64, 72
2, 569368, Note_on_c, 0, 53, 77
2, 569376, Control_c, 0, 64, 0
2, 569424, Control_c, 0, 64, 72
2, 569440, Control_c, 0, 64, 127
2, 569492, Note_on_c, 0, 74, 0
2, 569532, Note_on_c, 0, 72, 103
2, 569580, Note_on_c, 0, 62, 0
2, 569612, Note_on_c, 0, 56, 0
2, 569624, Note_on_c, 0, 72, 0
2, 569700, Note_on_c, 0, 71, 100
2, 569704, Note_on_c, 0, 60, 92
2, 569728, Note_on_c, 0, 57, 79
2, 569792, Note_on_c, 0, 60, 0
2, 569840, Note_on_c, 0, 71, 0
2, 569848, Note_on_c, 0, 53, 0
2, 569892, Note_on_c, 0, 69, 101
2, 570048, Note_on_c, 0, 69, 0
2, 570064, Note_on_c, 0, 57, 0
2, 570072, Control_c, 0, 64, 56
2, 570088, Note_on_c, 0, 72, 104
2, 570088, Control_c, 0, 64, 0
2, 570092, Note_on_c, 0, 65, 91
2, 570100, Note_on_c, 0, 62, 99
2, 570116, Note_on_c, 0, 50, 88
2, 570152, Control_c, 0, 64, 56
2, 570168, Control_c, 0, 64, 127
2, 570228, Note_on_c, 0, 50, 0
2, 570228, Note_on_c, 0, 72, 0
2, 570268, Note_on_c, 0, 62, 0
2, 570272, Note_on_c, 0, 65, 0
2, 570288, Note_on_c, 0, 71, 104
2, 570380, Note_on_c, 0, 71, 0
2, 570480, Note_on_c, 0, 69, 104
2, 570488, Note_on_c, 0, 62, 88
2, 570492, Control_c, 0, 64, 104
2, 570500, Note_on_c, 0, 52, 88
2, 570504, Note_on_c, 0, 59, 92
2, 570508, Control_c, 0, 64, 0
2, 570568, Control_c, 0, 64, 88
2, 570584, Control_c, 0, 64, 127
2, 570644, Note_on_c, 0, 69, 0
2, 570660, Note_on_c, 0, 62, 0
2, 570680, Note_on_c, 0, 68, 98
2, 570708, Note_on_c, 0, 52, 0
2, 570784, Note_on_c, 0, 59, 0
2, 570860, Note_on_c, 0, 68, 0
2, 570912, Note_on_c, 0, 69, 106
2, 570920, Note_on_c, 0, 60, 95
2, 570924, Control_c, 0, 64, 72
2, 570940, Note_on_c, 0, 53, 89
2, 570940, Note_on_c, 0, 57, 90
2, 570940, Control_c, 0, 64, 0
2, 570988, Control_c, 0, 64, 40
2, 570996, Note_on_c, 0, 60, 0
2, 571004, Control_c, 0, 64, 127
2, 571032, Note_on_c, 0, 53, 0
2, 571040, Note_on_c, 0, 57, 0
2, 571088, Note_on_c, 0, 69, 0
2, 571256, Note_on_c, 0, 53, 94
2, 571280, Control_c, 0, 64, 56
2, 571296, Control_c, 0, 64, 0
2, 571344, Note_on_c, 0, 65, 100
2, 571344, Control_c, 0, 64, 104
2, 571352, Note_on_c, 0, 53, 0
2, 571360, Control_c, 0, 64, 127
2, 571412, Note_on_c, 0, 65, 0
2, 571416, Note_on_c, 0, 69, 98
2, 571548, Note_on_c, 0, 81, 113
2, 571664, Note_on_c, 0, 81, 0
2, 571812, Note_on_c, 0, 79, 107
2, 571848, Note_on_c, 0, 69, 0
2, 571920, Note_on_c, 0, 79, 0
2, 571924, Note_on_c, 0, 50, 103
2, 571948, Control_c, 0, 64, 56
2, 571964, Control_c, 0, 64, 0
2, 571980, Control_c, 0, 64, 56
2, 571996, Note_on_c, 0, 62, 93
2, 571996, Control_c, 0, 64, 127
2, 572012, Note_on_c, 0, 65, 98
2, 572028, Note_on_c, 0, 50, 0
2, 572064, Note_on_c, 0, 62, 0
2, 572116, Note_on_c, 0, 77, 109
2, 572192, Note_on_c, 0, 65, 0
2, 572196, Note_on_c, 0, 77, 0
2, 572328, Note_on_c, 0, 76, 99
2, 572412, Note_on_c, 0, 76, 0
2, 572412, Note_on_c, 0, 47, 97
2, 572452, Note_on_c, 0, 62, 90
2, 572476, Control_c, 0, 64, 72
2, 572488, Note_on_c, 0, 59, 92
2, 572492, Control_c, 0, 64, 40
2, 572504, Control_c, 0, 64, 88
2, 572516, Note_on_c, 0, 47, 0
2, 572524, Control_c, 0, 64, 127
2, 572540, Note_on_c, 0, 59, 0
2, 572552, Note_on_c, 0, 74, 107
2, 572596, Note_on_c, 0, 62, 0
2, 572632, Note_on_c, 0, 74, 0
2, 572720, Note_on_c, 0, 72, 107
2, 572816, Note_on_c, 0, 44, 97
2, 572820, Note_on_c, 0, 72, 0
2, 572844, Control_c, 0, 64, 104
2, 572860, Control_c, 0, 64, 72
2, 572868, Note_on_c, 0, 59, 89
2, 572876, Note_on_c, 0, 56, 89
2, 572880, Control_c, 0, 64, 127
2, 572924, Note_on_c, 0, 44, 0
2, 572940, Note_on_c, 0, 56, 0
2, 572956, Note_on_c, 0, 59, 0
2, 572956, Note_on_c, 0, 71, 103
2, 573036, Note_on_c, 0, 71, 0
2, 573108, Note_on_c, 0, 69, 104
2, 573192, Note_on_c, 0, 40, 94
2, 573204, Note_on_c, 0, 69, 0
2, 573248, Control_c, 0, 64, 40
2, 573264, Note_on_c, 0, 56, 100
2, 573264, Note_on_c, 0, 52, 98
2, 573268, Control_c, 0, 64, 24
2, 573284, Control_c, 0, 64, 88
2, 573288, Note_on_c, 0, 40, 0
2, 573296, Control_c, 0, 64, 127
2, 573312, Note_on_c, 0, 52, 0
2, 573336, Note_on_c, 0, 68, 97
2, 573348, Note_on_c, 0, 56, 0
2, 573404, Note_on_c, 0, 68, 0
2, 573484, Note_on_c, 0, 66, 103
2, 573552, Note_on_c, 0, 36, 94
2, 573576, Note_on_c, 0, 66, 0
2, 573624, Control_c, 0, 64, 40
2, 573628, Note_on_c, 0, 48, 100
2, 573640, Note_on_c, 0, 52, 92
2, 573640, Control_c, 0, 64, 56
2, 573656, Control_c, 0, 64, 127
2, 573668, Note_on_c, 0, 36, 0
2, 573680, Note_on_c, 0, 48, 0
2, 573692, Note_on_c, 0, 64, 103
2, 573728, Note_on_c, 0, 52, 0
2, 573772, Note_on_c, 0, 64, 0
2, 573848, Note_on_c, 0, 62, 103
2, 573940, Note_on_c, 0, 62, 0
2, 573940, Note_on_c, 0, 33, 97
2, 573996, Control_c, 0, 64, 40
2, 574012, Note_on_c, 0, 45, 99
2, 574012, Control_c, 0, 64, 0
2, 574024, Control_c, 0, 64, 40
2, 574036, Note_on_c, 0, 48, 98
2, 574036, Note_on_c, 0, 60, 109
2, 574040, Control_c, 0, 64, 104
2, 574056, Control_c, 0, 64, 127
2, 574064, Note_on_c, 0, 45, 0
2, 574068, Note_on_c, 0, 33, 0
2, 574092, Note_on_c, 0, 48, 0
2, 574144, Note_on_c, 0, 60, 0
2, 574204, Note_on_c, 0, 59, 99
2, 574288, Note_on_c, 0, 59, 0
2, 574352, Control_c, 0, 64, 0
2, 574388, Note_on_c, 0, 29, 86
2, 574392, Note_on_c, 0, 41, 109
2, 574428, Control_c, 0, 64, 72
2, 574436, Note_on_c, 0, 29, 0
2, 574444, Control_c, 0, 64, 127
2, 574448, Note_on_c, 0, 41, 0
2, 574600, Note_on_c, 0, 57, 98
2, 574600, Note_on_c, 0, 53, 87
2, 574600, Note_on_c, 0, 48, 76
2, 574636, Note_on_c, 0, 48, 0
2, 574656, Note_on_c, 0, 53, 0
2, 574676, Note_on_c, 0, 57, 0
2, 574792, Note_on_c, 0, 60, 98
2, 574792, Note_on_c, 0, 57, 93
2, 574808, Note_on_c, 0, 53, 74
2, 574836, Note_on_c, 0, 53, 0
2, 574844, Note_on_c, 0, 57, 0
2, 574844, Note_on_c, 0, 60, 0
2, 574924, Control_c, 0, 64, 88
2, 574940, Control_c, 0, 64, 24
2, 574952, Control_c, 0, 64, 0
2, 574964, Note_on_c, 0, 65, 98
2, 574964, Note_on_c, 0, 57, 88
2, 574968, Note_on_c, 0, 60, 92
2, 574992, Note_on_c, 0, 60, 0
2, 574992, Note_on_c, 0, 57, 0
2, 575052, Note_on_c, 0, 65, 0
2, 575152, Note_on_c, 0, 69, 106
2, 575156, Note_on_c, 0, 65, 97
2, 575164, Note_on_c, 0, 60, 84
2, 575188, Control_c, 0, 64, 88
2, 575200, Control_c, 0, 64, 127
2, 575224, Note_on_c, 0, 60, 0
2, 575264, Note_on_c, 0, 69, 0
2, 575296, Note_on_c, 0, 65, 0
2, 575336, Note_on_c, 0, 58, 87
2, 575336, Note_on_c, 0, 67, 94
2, 575344, Note_on_c, 0, 64, 87
2, 575416, Note_on_c, 0, 58, 0
2, 575420, Note_on_c, 0, 64, 0
2, 575472, Note_on_c, 0, 67, 0
2, 575504, Note_on_c, 0, 65, 90
2, 575512, Control_c, 0, 64, 104
2, 575516, Note_on_c, 0, 57, 78
2, 575528, Control_c, 0, 64, 72
2, 575544, Control_c, 0, 64, 24
2, 575552, Note_on_c, 0, 57, 0
2, 575560, Control_c, 0, 64, 0
2, 575620, Note_on_c, 0, 65, 0
2, 575672, Note_on_c, 0, 67, 92
2, 575672, Note_on_c, 0, 58, 90
2, 575672, Note_on_c, 0, 64, 83
2, 575740, Note_on_c, 0, 58, 0
2, 575760, Note_on_c, 0, 64, 0
2, 575760, Note_on_c, 0, 67, 0
2, 575860, Note_on_c, 0, 69, 98
2, 575860, Note_on_c, 0, 65, 94
2, 575864, Note_on_c, 0, 60, 90
2, 575972, Note_on_c, 0, 60, 0
2, 575988, Note_on_c, 0, 65, 0
2, 576024, Control_c, 0, 64, 40
2, 576040, Note_on_c, 0, 57, 90
2, 576040, Control_c, 0, 64, 127
2, 576048, Note_on_c, 0, 53, 83
2, 576052, Note_on_c, 0, 48, 91
2, 576080, Note_on_c, 0, 69, 0
2, 576112, Note_on_c, 0, 48, 0
2, 576132, Note_on_c, 0, 53, 0
2, 576136, Note_on_c, 0, 57, 0
2, 576212, Note_on_c, 0, 60, 101
2, 576212, Note_on_c, 0, 57, 82
2, 576236, Note_on_c, 0, 53, 62
2, 576252, Note_on_c, 0, 57, 0
2, 576256, Note_on_c, 0, 60, 0
2, 576256, Control_c, 0, 64, 88
2, 576268, Note_on_c, 0, 53, 0
2, 576272, Control_c, 0, 64, 56
2, 576284, Control_c, 0, 64, 24
2, 576304, Control_c, 0, 64, 0
2, 576388, Note_on_c, 0, 65, 95
2, 576396, Note_on_c, 0, 60, 90
2, 576400, Note_on_c, 0, 57, 82
2, 576424, Note_on_c, 0, 60, 0
2, 576436, Note_on_c, 0, 57, 0
2, 576488, Note_on_c, 0, 65, 0
2, 576572, Note_on_c, 0, 69, 104
2, 576572, Note_on_c, 0, 65, 89
2, 576572, Note_on_c, 0, 60, 92
2, 576580, Control_c, 0, 64, 40
2, 576596, Control_c, 0, 64, 127
2, 576648, Note_on_c, 0, 60, 0
2, 576688, Note_on_c, 0, 69, 0
2, 576708, Note_on_c, 0, 65, 0
2, 576752, Note_on_c, 0, 67, 93
2, 576756, Note_on_c, 0, 58, 84
2, 576824, Note_on_c, 0, 58, 0
2, 576832, Note_on_c, 0, 67, 0
2, 576908, Control_c, 0, 64, 88
2, 576916, Note_on_c, 0, 65, 98
2, 576924, Note_on_c, 0, 57, 79
2, 576924, Control_c, 0, 64, 56
2, 576940, Control_c, 0, 64, 24
2, 576956, Control_c, 0, 64, 0
2, 576976, Note_on_c, 0, 57, 0
2, 577000, Note_on_c, 0, 65, 0
2, 577088, Note_on_c, 0, 64, 101
2, 577096, Note_on_c, 0, 33, 83
2, 577100, Note_on_c, 0, 45, 96
2, 577104, Note_on_c, 0, 55, 86
2, 577104, Note_on_c, 0, 61, 78
2, 577132, Note_on_c, 0, 55, 0
2, 577140, Note_on_c, 0, 33, 0
2, 577160, Note_on_c, 0, 45, 0
2, 577176, Note_on_c, 0, 61, 0
2, 577180, Note_on_c, 0, 64, 0
2, 577272, Note_on_c, 0, 65, 103
2, 577288, Note_on_c, 0, 57, 88
2, 577288, Note_on_c, 0, 62, 88
2, 577296, Note_on_c, 0, 50, 93
2, 577296, Control_c, 0, 64, 40
2, 577304, Note_on_c, 0, 38, 85
2, 577312, Control_c, 0, 64, 104
2, 577324, Control_c, 0, 64, 127
2, 577328, Note_on_c, 0, 50, 0
2, 577340, Note_on_c, 0, 62, 0
2, 577348, Note_on_c, 0, 57, 0
2, 577360, Note_on_c, 0, 38, 0
2, 577388, Note_on_c, 0, 65, 0
2, 577444, Note_on_c, 0, 65, 92
2, 577460, Note_on_c, 0, 57, 73
2, 577472, Note_on_c, 0, 62, 67
2, 577488, Note_on_c, 0, 57, 0
2, 577504, Note_on_c, 0, 62, 0
2, 577524, Note_on_c, 0, 65, 0
2, 577616, Note_on_c, 0, 69, 103
2, 577620, Note_on_c, 0, 62, 87
2, 577636, Note_on_c, 0, 65, 65
2, 577648, Note_on_c, 0, 62, 0
2, 577672, Note_on_c, 0, 65, 0
2, 577676, Note_on_c, 0, 69, 0
2, 577788, Note_on_c, 0, 74, 103
2, 577792, Note_on_c, 0, 65, 88
2, 577796, Note_on_c, 0, 69, 83
2, 577824, Note_on_c, 0, 69, 0
2, 577840, Note_on_c, 0, 65, 0
2, 577860, Note_on_c, 0, 74, 0
2, 577956, Note_on_c, 0, 77, 109
2, 577964, Note_on_c, 0, 74, 96
2, 577964, Note_on_c, 0, 69, 94
2, 578028, Note_on_c, 0, 69, 0
2, 578056, Note_on_c, 0, 77, 0
2, 578064, Note_on_c, 0, 74, 0
2, 578128, Note_on_c, 0, 76, 100
2, 578136, Note_on_c, 0, 73, 93
2, 578144, Note_on_c, 0, 67, 80
2, 578188, Note_on_c, 0, 67, 0
2, 578228, Note_on_c, 0, 73, 0
2, 578244, Note_on_c, 0, 76, 0
2, 578296, Note_on_c, 0, 74, 103
2, 578304, Note_on_c, 0, 65, 83
2, 578360, Note_on_c, 0, 65, 0
2, 578412, Note_on_c, 0, 74, 0
2, 578456, Control_c, 0, 64, 104
2, 578464, Note_on_c, 0, 33, 81
2, 578464, Note_on_c, 0, 76, 108
2, 578472, Note_on_c, 0, 67, 92
2, 578472, Note_on_c, 0, 45, 93
2, 578472, Note_on_c, 0, 73, 90
2, 578472, Control_c, 0, 64, 88
2, 578488, Control_c, 0, 64, 72
2, 578504, Control_c, 0, 64, 56
2, 578520, Note_on_c, 0, 33, 0
2, 578520, Control_c, 0, 64, 40
2, 578528, Note_on_c, 0, 45, 0
2, 578532, Control_c, 0, 64, 24
2, 578548, Note_on_c, 0, 73, 0
2, 578548, Note_on_c, 0, 67, 0
2, 578548, Control_c, 0, 64, 0
2, 578600, Note_on_c, 0, 76, 0
2, 578652, Note_on_c, 0, 77, 111
2, 578660, Note_on_c, 0, 74, 103
2, 578660, Note_on_c, 0, 69, 103
2, 578676, Control_c, 0, 64, 40
2, 578684, Note_on_c, 0, 50, 93
2, 578692, Note_on_c, 0, 38, 87
2, 578692, Control_c, 0, 64, 127
2, 578704, Note_on_c, 0, 69, 0
2, 578716, Note_on_c, 0, 74, 0
2, 578732, Note_on_c, 0, 77, 0
2, 578740, Note_on_c, 0, 50, 0
2, 578744, Note_on_c, 0, 38, 0
2, 578828, Note_on_c, 0, 62, 91
2, 578832, Note_on_c, 0, 53, 87
2, 578840, Note_on_c, 0, 57, 74
2, 578880, Note_on_c, 0, 53, 0
2, 578912, Note_on_c, 0, 57, 0
2, 578932, Note_on_c, 0, 62, 0
2, 579000, Note_on_c, 0, 65, 98
2, 579004, Note_on_c, 0, 62, 94
2, 579004, Note_on_c, 0, 57, 86
2, 579016, Control_c, 0, 64, 40
2, 579028, Control_c, 0, 64, 88
2, 579036, Note_on_c, 0, 65, 0
2, 579040, Note_on_c, 0, 57, 0
2, 579040, Note_on_c, 0, 62, 0
2, 579040, Control_c, 0, 64, 127
2, 579112, Control_c, 0, 64, 88
2, 579120, Control_c, 0, 64, 24
2, 579132, Control_c, 0, 64, 0
2, 579160, Note_on_c, 0, 69, 93
2, 579160, Note_on_c, 0, 62, 75
2, 579164, Note_on_c, 0, 65, 79
2, 579204, Note_on_c, 0, 62, 0
2, 579208, Control_c, 0, 64, 24
2, 579212, Note_on_c, 0, 65, 0
2, 579216, Control_c, 0, 64, 40
2, 579248, Control_c, 0, 64, 0
2, 579256, Note_on_c, 0, 69, 0
2, 579328, Note_on_c, 0, 65, 97
2, 579332, Note_on_c, 0, 74, 107
2, 579344, Note_on_c, 0, 69, 56
2, 579352, Control_c, 0, 64, 24
2, 579360, Control_c, 0, 64, 72
2, 579368, Note_on_c, 0, 69, 0
2, 579372, Control_c, 0, 64, 104
2, 579384, Control_c, 0, 64, 127
2, 579412, Note_on_c, 0, 74, 0
2, 579476, Note_on_c, 0, 65, 0
2, 579476, Control_c, 0, 64, 104
2, 579488, Control_c, 0, 64, 56
2, 579496, Note_on_c, 0, 72, 108
2, 579500, Control_c, 0, 64, 0
2, 579504, Note_on_c, 0, 64, 91
2, 579504, Note_on_c, 0, 65, 66
2, 579528, Control_c, 0, 64, 56
2, 579540, Note_on_c, 0, 65, 0
2, 579540, Control_c, 0, 64, 88
2, 579544, Note_on_c, 0, 64, 0
2, 579552, Control_c, 0, 64, 127
2, 579568, Note_on_c, 0, 72, 0
2, 579632, Control_c, 0, 64, 88
2, 579644, Control_c, 0, 64, 24
2, 579656, Control_c, 0, 64, 0
2, 579664, Note_on_c, 0, 71, 98
2, 579672, Note_on_c, 0, 65, 93
2, 579672, Note_on_c, 0, 62, 84
2, 579684, Control_c, 0, 64, 24
2, 579696, Control_c, 0, 64, 72
2, 579708, Control_c, 0, 64, 104
2, 579712, Note_on_c, 0, 65, 0
2, 579716, Note_on_c, 0, 62, 0
2, 579720, Note_on_c, 0, 71, 0
2, 579720, Control_c, 0, 64, 127
2, 579800, Control_c, 0, 64, 72
2, 579812, Control_c, 0, 64, 0
2, 579840, Note_on_c, 0, 63, 82
2, 579840, Note_on_c, 0, 69, 103
2, 579840, Note_on_c, 0, 47, 93
2, 579840, Note_on_c, 0, 35, 87
2, 579840, Note_on_c, 0, 66, 83
2, 579852, Control_c, 0, 64, 24
2, 579864, Control_c, 0, 64, 72
2, 579872, Control_c, 0, 64, 104
2, 579876, Note_on_c, 0, 47, 0
2, 579884, Note_on_c, 0, 35, 0
2, 579884, Note_on_c, 0, 63, 0
2, 579888, Control_c, 0, 64, 127
2, 579900, Note_on_c, 0, 66, 0
2, 579916, Note_on_c, 0, 69, 0
2, 579968, Control_c, 0, 64, 88
2, 579980, Control_c, 0, 64, 40
2, 579992, Control_c, 0, 64, 0
2, 580008, Note_on_c, 0, 68, 96
2, 580012, Note_on_c, 0, 59, 93
2, 580012, Note_on_c, 0, 64, 94
2, 580016, Note_on_c, 0, 52, 93
2, 580016, Note_on_c, 0, 40, 88
2, 580064, Control_c, 0, 64, 72
2, 580072, Control_c, 0, 64, 127
2, 580076, Note_on_c, 0, 59, 0
2, 580084, Note_on_c, 0, 68, 0
2, 580084, Note_on_c, 0, 64, 0
2, 580176, Note_on_c, 0, 59, 90
2, 580176, Note_on_c, 0, 68, 93
2, 580180, Note_on_c, 0, 64, 90
2, 580208, Note_on_c, 0, 64, 0
2, 580208, Note_on_c, 0, 59, 0
2, 580224, Note_on_c, 0, 68, 0
2, 580348, Note_on_c, 0, 71, 99
2, 580348, Note_on_c, 0, 68, 86
2, 580348, Note_on_c, 0, 64, 94
2, 580388, Note_on_c, 0, 64, 0
2, 580396, Note_on_c, 0, 68, 0
2, 580416, Note_on_c, 0, 71, 0
2, 580424, Note_on_c, 0, 40, 0
2, 580432, Note_on_c, 0, 52, 0
2, 580512, Note_on_c, 0, 71, 97
2, 580516, Note_on_c, 0, 68, 90
2, 580520, Note_on_c, 0, 76, 103
2, 580540, Note_on_c, 0, 68, 0
2, 580552, Note_on_c, 0, 71, 0
2, 580564, Note_on_c, 0, 76, 0
2, 580692, Note_on_c, 0, 80, 107
2, 580692, Note_on_c, 0, 76, 107
2, 580692, Note_on_c, 0, 71, 98
2, 580732, Note_on_c, 0, 71, 0
2, 580764, Note_on_c, 0, 76, 0
2, 580780, Note_on_c, 0, 80, 0
2, 580864, Note_on_c, 0, 75, 103
2, 580864, Note_on_c, 0, 78, 100
2, 580864, Note_on_c, 0, 69, 95
2, 580896, Note_on_c, 0, 69, 0
2, 580936, Note_on_c, 0, 75, 0
2, 580964, Note_on_c, 0, 78, 0
2, 581020, Note_on_c, 0, 68, 90
2, 581024, Note_on_c, 0, 76, 106
2, 581080, Note_on_c, 0, 68, 0
2, 581132, Note_on_c, 0, 76, 0
2, 581184, Note_on_c, 0, 78, 103
2, 581184, Note_on_c, 0, 69, 100
2, 581188, Note_on_c, 0, 75, 100
2, 581192, Note_on_c, 0, 35, 89
2, 581192, Note_on_c, 0, 47, 92
2, 581220, Note_on_c, 0, 69, 0
2, 581232, Note_on_c, 0, 35, 0
2, 581232, Note_on_c, 0, 47, 0
2, 581240, Note_on_c, 0, 75, 0
2, 581308, Control_c, 0, 64, 104
2, 581316, Control_c, 0, 64, 40
2, 581324, Note_on_c, 0, 78, 0
2, 581328, Control_c, 0, 64, 0
2, 581356, Note_on_c, 0, 80, 106
2, 581356, Note_on_c, 0, 71, 93
2, 581360, Note_on_c, 0, 76, 101
2, 581360, Note_on_c, 0, 40, 93
2, 581368, Note_on_c, 0, 52, 88
2, 581392, Control_c, 0, 64, 40
2, 581404, Note_on_c, 0, 52, 0
2, 581404, Note_on_c, 0, 71, 0
2, 581404, Control_c, 0, 64, 104
2, 581412, Note_on_c, 0, 40, 0
2, 581412, Control_c, 0, 64, 127
2, 581420, Note_on_c, 0, 76, 0
2, 581432, Note_on_c, 0, 80, 0
2, 581532, Note_on_c, 0, 56, 83
2, 581536, Note_on_c, 0, 64, 94
2, 581544, Note_on_c, 0, 59, 74
2, 581588, Note_on_c, 0, 56, 0
2, 581616, Note_on_c, 0, 64, 0
2, 581624, Note_on_c, 0, 59, 0
2, 581696, Note_on_c, 0, 68, 97
2, 581700, Note_on_c, 0, 59, 75
2, 581704, Note_on_c, 0, 64, 82
2, 581720, Note_on_c, 0, 64, 0
2, 581736, Note_on_c, 0, 59, 0
2, 581736, Note_on_c, 0, 68, 0
2, 581864, Note_on_c, 0, 71, 98
2, 581864, Note_on_c, 0, 68, 87
2, 581864, Note_on_c, 0, 64, 91
2, 581904, Note_on_c, 0, 64, 0
2, 581916, Note_on_c, 0, 68, 0
2, 581936, Note_on_c, 0, 71, 0
2, 582036, Note_on_c, 0, 68, 92
2, 582036, Note_on_c, 0, 76, 107
2, 582040, Note_on_c, 0, 71, 103
2, 582124, Note_on_c, 0, 76, 0
2, 582200, Note_on_c, 0, 74, 108
2, 582204, Note_on_c, 0, 65, 86
2, 582256, Note_on_c, 0, 65, 0
2, 582264, Note_on_c, 0, 68, 0
2, 582280, Note_on_c, 0, 71, 0
2, 582304, Note_on_c, 0, 74, 0
2, 582384, Note_on_c, 0, 72, 106
2, 582388, Note_on_c, 0, 64, 93
2, 582392, Note_on_c, 0, 68, 89
2, 582452, Note_on_c, 0, 64, 0
2, 582472, Note_on_c, 0, 72, 0
2, 582488, Note_on_c, 0, 68, 0
2, 582564, Note_on_c, 0, 71, 95
2, 582568, Note_on_c, 0, 68, 83
2, 582568, Note_on_c, 0, 62, 86
2, 582572, Note_on_c, 0, 40, 88
2, 582580, Note_on_c, 0, 52, 99
2, 582612, Note_on_c, 0, 52, 0
2, 582612, Note_on_c, 0, 40, 0
2, 582616, Note_on_c, 0, 62, 0
2, 582652, Note_on_c, 0, 68, 0
2, 582684, Note_on_c, 0, 71, 0
2, 582752, Control_c, 0, 64, 104
2, 582760, Control_c, 0, 64, 40
2, 582772, Note_on_c, 0, 72, 101
2, 582772, Control_c, 0, 64, 0
2, 582776, Note_on_c, 0, 69, 94
2, 582776, Note_on_c, 0, 57, 98
2, 582776, Note_on_c, 0, 64, 90
2, 582780, Note_on_c, 0, 45, 98
2, 582832, Note_on_c, 0, 69, 0
2, 582844, Control_c, 0, 64, 88
2, 582856, Note_on_c, 0, 64, 0
2, 582856, Control_c, 0, 64, 127
2, 582864, Note_on_c, 0, 72, 0
2, 582960, Note_on_c, 0, 69, 97
2, 582964, Note_on_c, 0, 60, 89
2, 582968, Note_on_c, 0, 45, 0
2, 582968, Note_on_c, 0, 64, 84
2, 582980, Note_on_c, 0, 57, 0
2, 583012, Note_on_c, 0, 64, 0
2, 583024, Note_on_c, 0, 60, 0
2, 583104, Note_on_c, 0, 69, 0
2, 583104, Control_c, 0, 64, 56
2, 583116, Control_c, 0, 64, 0
2, 583140, Note_on_c, 0, 72, 103
2, 583144, Note_on_c, 0, 64, 88
2, 583152, Note_on_c, 0, 55, 97
2, 583152, Note_on_c, 0, 69, 81
2, 583156, Note_on_c, 0, 43, 89
2, 583164, Note_on_c, 0, 64, 0
2, 583168, Note_on_c, 0, 69, 0
2, 583180, Control_c, 0, 64, 72
2, 583192, Control_c, 0, 64, 127
2, 583200, Note_on_c, 0, 72, 0
2, 583316, Note_on_c, 0, 76, 103
2, 583316, Note_on_c, 0, 69, 95
2, 583324, Note_on_c, 0, 72, 86
2, 583340, Note_on_c, 0, 72, 0
2, 583348, Note_on_c, 0, 55, 0
2, 583348, Note_on_c, 0, 43, 0
2, 583348, Note_on_c, 0, 69, 0
2, 583384, Note_on_c, 0, 76, 0
2, 583472, Control_c, 0, 64, 104
2, 583484, Control_c, 0, 64, 40
2, 583492, Note_on_c, 0, 81, 113
2, 583492, Control_c, 0, 64, 0
2, 583496, Note_on_c, 0, 72, 101
2, 583500, Note_on_c, 0, 69, 96
2, 583504, Note_on_c, 0, 53, 88
2, 583508, Note_on_c, 0, 41, 88
2, 583544, Note_on_c, 0, 69, 0
2, 583556, Note_on_c, 0, 72, 0
2, 583556, Control_c, 0, 64, 104
2, 583564, Control_c, 0, 64, 127
2, 583664, Note_on_c, 0, 72, 94
2, 583664, Note_on_c, 0, 69, 88
2, 583672, Note_on_c, 0, 53, 0
2, 583680, Note_on_c, 0, 41, 0
2, 583720, Note_on_c, 0, 69, 0
2, 583724, Note_on_c, 0, 72, 0
2, 583804, Note_on_c, 0, 81, 0
2, 583820, Note_on_c, 0, 73, 95
2, 583820, Note_on_c, 0, 67, 88
2, 583836, Note_on_c, 0, 52, 88
2, 583840, Note_on_c, 0, 40, 86
2, 583868, Note_on_c, 0, 67, 0
2, 583896, Note_on_c, 0, 73, 0
2, 583984, Note_on_c, 0, 73, 102
2, 583988, Note_on_c, 0, 79, 109
2, 583992, Note_on_c, 0, 52, 0
2, 583992, Note_on_c, 0, 40, 0
2, 584060, Note_on_c, 0, 79, 0
2, 584080, Note_on_c, 0, 73, 0
2, 584132, Control_c, 0, 64, 72
2, 584144, Control_c, 0, 64, 0
2, 584160, Note_on_c, 0, 77, 104
2, 584168, Note_on_c, 0, 69, 94
2, 584168, Note_on_c, 0, 74, 96
2, 584176, Note_on_c, 0, 50, 90
2, 584180, Note_on_c, 0, 38, 84
2, 584204, Note_on_c, 0, 74, 0
2, 584204, Note_on_c, 0, 77, 0
2, 584204, Control_c, 0, 64, 72
2, 584212, Note_on_c, 0, 69, 0
2, 584216, Control_c, 0, 64, 127
2, 584348, Note_on_c, 0, 38, 0
2, 584352, Note_on_c, 0, 62, 97
2, 584352, Note_on_c, 0, 53, 89
2, 584356, Note_on_c, 0, 57, 83
2, 584364, Note_on_c, 0, 50, 0
2, 584396, Note_on_c, 0, 53, 0
2, 584400, Note_on_c, 0, 57, 0
2, 584444, Note_on_c, 0, 62, 0
2, 584488, Control_c, 0, 64, 72
2, 584496, Control_c, 0, 64, 0
2, 584520, Note_on_c, 0, 65, 101
2, 584520, Note_on_c, 0, 62, 90
2, 584520, Note_on_c, 0, 57, 88
2, 584524, Note_on_c, 0, 53, 84
2, 584536, Note_on_c, 0, 48, 89
2, 584540, Note_on_c, 0, 57, 0
2, 584540, Note_on_c, 0, 36, 85
2, 584544, Note_on_c, 0, 53, 0
2, 584548, Control_c, 0, 64, 72
2, 584560, Control_c, 0, 64, 127
2, 584568, Note_on_c, 0, 62, 0
2, 584580, Note_on_c, 0, 65, 0
2, 584684, Note_on_c, 0, 69, 98
2, 584688, Note_on_c, 0, 62, 94
2, 584696, Note_on_c, 0, 65, 67
2, 584708, Note_on_c, 0, 64, 54
2, 584720, Note_on_c, 0, 65, 0
2, 584720, Note_on_c, 0, 48, 0
2, 584724, Note_on_c, 0, 36, 0
2, 584728, Note_on_c, 0, 62, 0
2, 584728, Note_on_c, 0, 64, 0
2, 584748, Note_on_c, 0, 69, 0
2, 584832, Control_c, 0, 64, 104
2, 584844, Control_c, 0, 64, 40
2, 584852, Control_c, 0, 64, 0
2, 584860, Note_on_c, 0, 74, 111
2, 584864, Note_on_c, 0, 65, 91
2, 584868, Note_on_c, 0, 62, 87
2, 584888, Note_on_c, 0, 47, 69
2, 584892, Note_on_c, 0, 35, 86
2, 584912, Control_c, 0, 64, 72
2, 584916, Note_on_c, 0, 65, 0
2, 584924, Control_c, 0, 64, 127
2, 584940, Note_on_c, 0, 62, 0
2, 585028, Note_on_c, 0, 65, 92
2, 585032, Note_on_c, 0, 62, 88
2, 585044, Note_on_c, 0, 35, 0
2, 585060, Note_on_c, 0, 47, 0
2, 585080, Note_on_c, 0, 62, 0
2, 585104, Note_on_c, 0, 65, 0
2, 585180, Note_on_c, 0, 60, 88
2, 585184, Note_on_c, 0, 66, 88
2, 585188, Note_on_c, 0, 74, 0
2, 585192, Note_on_c, 0, 45, 91
2, 585196, Note_on_c, 0, 33, 85
2, 585236, Note_on_c, 0, 60, 0
2, 585248, Note_on_c, 0, 45, 0
2, 585256, Note_on_c, 0, 66, 0
2, 585256, Note_on_c, 0, 33, 0
2, 585352, Note_on_c, 0, 72, 96
2, 585356, Note_on_c, 0, 66, 92
2, 585424, Note_on_c, 0, 72, 0
2, 585444, Note_on_c, 0, 66, 0
2, 585492, Control_c, 0, 64, 88
2, 585500, Control_c, 0, 64, 24
2, 585512, Control_c, 0, 64, 0
2, 585516, Note_on_c, 0, 71, 103
2, 585520, Note_on_c, 0, 67, 94
2, 585528, Note_on_c, 0, 62, 86
2, 585532, Note_on_c, 0, 43, 90
2, 585532, Note_on_c, 0, 31, 84
2, 585564, Control_c, 0, 64, 56
2, 585576, Note_on_c, 0, 31, 0
2, 585576, Note_on_c, 0, 67, 0
2, 585576, Control_c, 0, 64, 127
2, 585580, Note_on_c, 0, 43, 0
2, 585584, Note_on_c, 0, 62, 0
2, 585624, Note_on_c, 0, 71, 0
2, 585692, Note_on_c, 0, 67, 95
2, 585696, Note_on_c, 0, 62, 85
2, 585700, Note_on_c, 0, 59, 79
2, 585752, Note_on_c, 0, 62, 0
2, 585760, Note_on_c, 0, 59, 0
2, 585804, Note_on_c, 0, 67, 0
2, 585828, Control_c, 0, 64, 104
2, 585836, Control_c, 0, 64, 24
2, 585848, Control_c, 0, 64, 0
2, 585860, Note_on_c, 0, 71, 103
2, 585860, Note_on_c, 0, 62, 93
2, 585864, Note_on_c, 0, 67, 78
2, 585868, Note_on_c, 0, 59, 78
2, 585868, Note_on_c, 0, 53, 88
2, 585872, Note_on_c, 0, 41, 87
2, 585888, Note_on_c, 0, 59, 0
2, 585888, Note_on_c, 0, 62, 0
2, 585888, Control_c, 0, 64, 24
2, 585896, Control_c, 0, 64, 88
2, 585908, Note_on_c, 0, 67, 0
2, 585908, Control_c, 0, 64, 127
2, 585928, Note_on_c, 0, 71, 0
2, 586024, Note_on_c, 0, 67, 95
2, 586028, Note_on_c, 0, 74, 106
2, 586028, Note_on_c, 0, 71, 93
2, 586064, Note_on_c, 0, 71, 0
2, 586064, Note_on_c, 0, 41, 0
2, 586068, Note_on_c, 0, 53, 0
2, 586068, Note_on_c, 0, 67, 0
2, 586100, Note_on_c, 0, 74, 0
2, 586200, Control_c, 0, 64, 104
2, 586208, Note_on_c, 0, 79, 112
2, 586212, Note_on_c, 0, 72, 101
2, 586212, Note_on_c, 0, 67, 93
2, 586212, Control_c, 0, 64, 40
2, 586224, Control_c, 0, 64, 0
2, 586228, Note_on_c, 0, 52, 87
2, 586228, Note_on_c, 0, 40, 86
2, 586284, Note_on_c, 0, 72, 0
2, 586288, Note_on_c, 0, 67, 0
2, 586296, Control_c, 0, 64, 88
2, 586308, Control_c, 0, 64, 127
2, 586368, Note_on_c, 0, 67, 83
2, 586368, Note_on_c, 0, 72, 91
2, 586384, Note_on_c, 0, 40, 0
2, 586392, Note_on_c, 0, 52, 0
2, 586448, Note_on_c, 0, 67, 0
2, 586456, Note_on_c, 0, 72, 0
2, 586524, Note_on_c, 0, 71, 90
2, 586528, Note_on_c, 0, 65, 79
2, 586544, Note_on_c, 0, 79, 0
2, 586544, Note_on_c, 0, 50, 86
2, 586548, Note_on_c, 0, 38, 85
2, 586592, Note_on_c, 0, 65, 0
2, 586596, Note_on_c, 0, 71, 0
2, 586656, Note_on_c, 0, 50, 0
2, 586672, Note_on_c, 0, 38, 0
2, 586688, Note_on_c, 0, 77, 104
2, 586692, Note_on_c, 0, 71, 94
2, 586696, Note_on_c, 0, 65, 85
2, 586764, Note_on_c, 0, 65, 0
2, 586764, Note_on_c, 0, 77, 0
2, 586780, Note_on_c, 0, 71, 0
2, 586828, Control_c, 0, 64, 104
2, 586840, Control_c, 0, 64, 0
2, 586860, Note_on_c, 0, 76, 103
2, 586864, Note_on_c, 0, 72, 100
2, 586868, Note_on_c, 0, 64, 93
2, 586880, Note_on_c, 0, 48, 93
2, 586880, Note_on_c, 0, 36, 84
2, 586900, Note_on_c, 0, 72, 0
2, 586904, Control_c, 0, 64, 88
2, 586908, Note_on_c, 0, 64, 0
2, 586912, Control_c, 0, 64, 127
2, 586916, Note_on_c, 0, 76, 0
2, 586920, Note_on_c, 0, 48, 0
2, 586928, Note_on_c, 0, 36, 0
2, 587036, Note_on_c, 0, 60, 90
2, 587036, Note_on_c, 0, 52, 85
2, 587040, Note_on_c, 0, 55, 85
2, 587084, Note_on_c, 0, 55, 0
2, 587092, Note_on_c, 0, 52, 0
2, 587132, Note_on_c, 0, 60, 0
2, 587152, Control_c, 0, 64, 104
2, 587164, Control_c, 0, 64, 24
2, 587176, Control_c, 0, 64, 0
2, 587200, Note_on_c, 0, 55, 88
2, 587200, Note_on_c, 0, 64, 99
2, 587204, Note_on_c, 0, 60, 89
2, 587208, Note_on_c, 0, 52, 79
2, 587216, Note_on_c, 0, 46, 97
2, 587220, Note_on_c, 0, 34, 85
2, 587224, Note_on_c, 0, 55, 0
2, 587228, Note_on_c, 0, 52, 0
2, 587228, Control_c, 0, 64, 88
2, 587236, Control_c, 0, 64, 127
2, 587252, Note_on_c, 0, 60, 0
2, 587268, Note_on_c, 0, 64, 0
2, 587368, Note_on_c, 0, 67, 95
2, 587368, Note_on_c, 0, 60, 90
2, 587376, Note_on_c, 0, 64, 86
2, 587396, Note_on_c, 0, 64, 0
2, 587412, Note_on_c, 0, 60, 0
2, 587420, Note_on_c, 0, 34, 0
2, 587436, Note_on_c, 0, 46, 0
2, 587444, Note_on_c, 0, 67, 0
2, 587532, Control_c, 0, 64, 104
2, 587540, Control_c, 0, 64, 24
2, 587552, Note_on_c, 0, 72, 113
2, 587552, Note_on_c, 0, 65, 95
2, 587552, Control_c, 0, 64, 0
2, 587556, Note_on_c, 0, 60, 93
2, 587568, Note_on_c, 0, 45, 94
2, 587572, Note_on_c, 0, 33, 85
2, 587600, Control_c, 0, 64, 72
2, 587612, Control_c, 0, 64, 127
2, 587628, Note_on_c, 0, 65, 0
2, 587632, Note_on_c, 0, 60, 0
2, 587720, Note_on_c, 0, 65, 89
2, 587724, Note_on_c, 0, 60, 83
2, 587728, Note_on_c, 0, 33, 0
2, 587728, Note_on_c, 0, 45, 0
2, 587780, Note_on_c, 0, 60, 0
2, 587796, Note_on_c, 0, 65, 0
2, 587832, Note_on_c, 0, 72, 0
2, 587892, Note_on_c, 0, 64, 97
2, 587892, Note_on_c, 0, 58, 76
2, 587904, Note_on_c, 0, 43, 83
2, 587908, Note_on_c, 0, 31, 84
2, 587976, Note_on_c, 0, 58, 0
2, 587980, Note_on_c, 0, 64, 0
2, 588008, Note_on_c, 0, 43, 0
2, 588024, Note_on_c, 0, 31, 0
2, 588048, Note_on_c, 0, 70, 96
2, 588052, Note_on_c, 0, 64, 91
2, 588056, Note_on_c, 0, 58, 73
2, 588088, Note_on_c, 0, 58, 0
2, 588108, Note_on_c, 0, 64, 0
2, 588124, Note_on_c, 0, 70, 0
2, 588200, Control_c, 0, 64, 56
2, 588208, Control_c, 0, 64, 0
2, 588216, Note_on_c, 0, 69, 98
2, 588224, Note_on_c, 0, 65, 93
2, 588224, Note_on_c, 0, 60, 90
2, 588232, Note_on_c, 0, 41, 84
2, 588232, Note_on_c, 0, 29, 83
2, 588264, Control_c, 0, 64, 72
2, 588272, Note_on_c, 0, 60, 0
2, 588272, Control_c, 0, 64, 127
2, 588280, Note_on_c, 0, 29, 0
2, 588288, Note_on_c, 0, 41, 0
2, 588296, Note_on_c, 0, 65, 0
2, 588300, Note_on_c, 0, 69, 0
2, 588388, Note_on_c, 0, 65, 98
2, 588392, Note_on_c, 0, 57, 85
2, 588396, Note_on_c, 0, 60, 89
2, 588444, Note_on_c, 0, 60, 0
2, 588448, Note_on_c, 0, 57, 0
2, 588496, Note_on_c, 0, 65, 0
2, 588536, Control_c, 0, 64, 56
2, 588544, Control_c, 0, 64, 0
2, 588552, Note_on_c, 0, 69, 106
2, 588556, Note_on_c, 0, 60, 94
2, 588560, Note_on_c, 0, 65, 84
2, 588560, Note_on_c, 0, 57, 86
2, 588564, Note_on_c, 0, 52, 93
2, 588568, Note_on_c, 0, 40, 87
2, 588576, Note_on_c, 0, 57, 0
2, 588588, Control_c, 0, 64, 40
2, 588592, Note_on_c, 0, 60, 0
2, 588596, Control_c, 0, 64, 104
2, 588600, Note_on_c, 0, 65, 0
2, 588608, Control_c, 0, 64, 127
2, 588624, Note_on_c, 0, 69, 0
2, 588724, Note_on_c, 0, 72, 108
2, 588724, Note_on_c, 0, 65, 93
2, 588728, Note_on_c, 0, 69, 90
2, 588756, Note_on_c, 0, 40, 0
2, 588760, Note_on_c, 0, 69, 0
2, 588768, Note_on_c, 0, 65, 0
2, 588776, Note_on_c, 0, 52, 0
2, 588800, Note_on_c, 0, 72, 0
2, 588888, Control_c, 0, 64, 40
2, 588892, Note_on_c, 0, 77, 112
2, 588896, Note_on_c, 0, 65, 94
2, 588900, Note_on_c, 0, 69, 95
2, 588900, Control_c, 0, 64, 0
2, 588916, Note_on_c, 0, 50, 90
2, 588916, Note_on_c, 0, 38, 86
2, 588952, Control_c, 0, 64, 56
2, 588964, Control_c, 0, 64, 127
2, 588980, Note_on_c, 0, 65, 0
2, 588984, Note_on_c, 0, 69, 0
2, 589064, Note_on_c, 0, 38, 0
2, 589064, Note_on_c, 0, 69, 84
2, 589068, Note_on_c, 0, 65, 84
2, 589104, Note_on_c, 0, 50, 0
2, 589120, Note_on_c, 0, 69, 0
2, 589136, Note_on_c, 0, 65, 0
2, 589216, Note_on_c, 0, 68, 87
2, 589216, Control_c, 0, 64, 56
2, 589220, Note_on_c, 0, 64, 88
2, 589224, Control_c, 0, 64, 0
2, 589232, Note_on_c, 0, 52, 90
2, 589236, Note_on_c, 0, 40, 85
2, 589268, Control_c, 0, 64, 72
2, 589276, Control_c, 0, 64, 127
2, 589292, Note_on_c, 0, 77, 0
2, 589312, Note_on_c, 0, 64, 0
2, 589316, Note_on_c, 0, 68, 0
2, 589328, Note_on_c, 0, 52, 0
2, 589332, Note_on_c, 0, 40, 0
2, 589392, Note_on_c, 0, 71, 101
2, 589392, Note_on_c, 0, 68, 94
2, 589456, Note_on_c, 0, 68, 0
2, 589456, Note_on_c, 0, 71, 0
2, 589556, Control_c, 0, 64, 72
2, 589564, Note_on_c, 0, 70, 93
2, 589564, Note_on_c, 0, 76, 107
2, 589568, Note_on_c, 0, 67, 93
2, 589568, Control_c, 0, 64, 0
2, 589584, Note_on_c, 0, 37, 86
2, 589584, Note_on_c, 0, 49, 85
2, 589620, Control_c, 0, 64, 72
2, 589632, Control_c, 0, 64, 127
2, 589644, Note_on_c, 0, 67, 0
2, 589664, Note_on_c, 0, 70, 0
2, 589728, Note_on_c, 0, 67, 85
2, 589728, Note_on_c, 0, 64, 85
2, 589776, Note_on_c, 0, 76, 0
2, 589784, Note_on_c, 0, 37, 0
2, 589796, Note_on_c, 0, 67, 0
2, 589804, Note_on_c, 0, 49, 0
2, 589804, Note_on_c, 0, 64, 0
2, 589892, Control_c, 0, 64, 72
2, 589900, Note_on_c, 0, 66, 91
2, 589900, Note_on_c, 0, 62, 87
2, 589904, Control_c, 0, 64, 0
2, 589912, Note_on_c, 0, 50, 89
2, 589912, Note_on_c, 0, 38, 87
2, 589936, Control_c, 0, 64, 24
2, 589944, Control_c, 0, 64, 88
2, 589956, Note_on_c, 0, 62, 0
2, 589956, Control_c, 0, 64, 127
2, 589984, Note_on_c, 0, 66, 0
2, 589988, Note_on_c, 0, 50, 0
2, 589988, Note_on_c, 0, 38, 0
2, 590068, Note_on_c, 0, 66, 93
2, 590072, Note_on_c, 0, 69, 99
2, 590128, Note_on_c, 0, 69, 0
2, 590164, Note_on_c, 0, 66, 0
2, 590228, Control_c, 0, 64, 40
2, 590240, Note_on_c, 0, 74, 111
2, 590240, Note_on_c, 0, 68, 93
2, 590240, Control_c, 0, 64, 0
2, 590244, Note_on_c, 0, 65, 93
2, 590256, Note_on_c, 0, 47, 88
2, 590260, Note_on_c, 0, 35, 86
2, 590292, Note_on_c, 0, 65, 0
2, 590292, Control_c, 0, 64, 72
2, 590300, Control_c, 0, 64, 127
2, 590368, Note_on_c, 0, 68, 0
2, 590388, Note_on_c, 0, 35, 0
2, 590392, Note_on_c, 0, 47, 0
2, 590408, Note_on_c, 0, 65, 86
2, 590408, Note_on_c, 0, 62, 81
2, 590464, Note_on_c, 0, 62, 0
2, 590480, Note_on_c, 0, 65, 0
2, 590548, Note_on_c, 0, 74, 0
2, 590572, Note_on_c, 0, 64, 93
2, 590580, Note_on_c, 0, 60, 84
2, 590584, Control_c, 0, 64, 56
2, 590592, Note_on_c, 0, 48, 90
2, 590596, Note_on_c, 0, 36, 84
2, 590596, Control_c, 0, 64, 0
2, 590624, Control_c, 0, 64, 40
2, 590636, Control_c, 0, 64, 104
2, 590644, Note_on_c, 0, 60, 0
2, 590644, Control_c, 0, 64, 127
2, 590664, Note_on_c, 0, 64, 0
2, 590704, Note_on_c, 0, 36, 0
2, 590748, Note_on_c, 0, 72, 109
2, 590752, Note_on_c, 0, 48, 0
2, 590752, Note_on_c, 0, 60, 92
2, 590752, Note_on_c, 0, 64, 95
2, 590792, Note_on_c, 0, 60, 0
2, 590796, Note_on_c, 0, 64, 0
2, 590824, Note_on_c, 0, 72, 0
2, 590920, Note_on_c, 0, 71, 107
2, 590924, Note_on_c, 0, 62, 88
2, 590928, Note_on_c, 0, 65, 88
2, 590932, Control_c, 0, 64, 0
2, 590944, Note_on_c, 0, 50, 88
2, 590944, Note_on_c, 0, 38, 85
2, 590988, Note_on_c, 0, 65, 0
2, 591000, Note_on_c, 0, 62, 0
2, 591004, Control_c, 0, 64, 127
2, 591092, Note_on_c, 0, 65, 83
2, 591104, Note_on_c, 0, 62, 69
2, 591124, Note_on_c, 0, 38, 0
2, 591132, Note_on_c, 0, 62, 0
2, 591140, Note_on_c, 0, 50, 0
2, 591148, Note_on_c, 0, 71, 0
2, 591180, Note_on_c, 0, 65, 0
2, 591244, Control_c, 0, 64, 104
2, 591248, Note_on_c, 0, 66, 93
2, 591252, Control_c, 0, 64, 24
2, 591256, Note_on_c, 0, 60, 84
2, 591260, Note_on_c, 0, 51, 93
2, 591264, Control_c, 0, 64, 0
2, 591268, Note_on_c, 0, 39, 88
2, 591276, Control_c, 0, 64, 24
2, 591284, Control_c, 0, 64, 88
2, 591296, Control_c, 0, 64, 127
2, 591304, Note_on_c, 0, 60, 0
2, 591332, Note_on_c, 0, 66, 0
2, 591420, Note_on_c, 0, 69, 103
2, 591424, Note_on_c, 0, 66, 83
2, 591428, Note_on_c, 0, 60, 88
2, 591472, Note_on_c, 0, 39, 0
2, 591480, Note_on_c, 0, 66, 0
2, 591480, Note_on_c, 0, 60, 0
2, 591500, Note_on_c, 0, 51, 0
2, 591508, Note_on_c, 0, 69, 0
2, 591592, Note_on_c, 0, 69, 104
2, 591596, Control_c, 0, 64, 24
2, 591600, Note_on_c, 0, 64, 93
2, 591604, Note_on_c, 0, 60, 89
2, 591608, Control_c, 0, 64, 0
2, 591612, Note_on_c, 0, 52, 84
2, 591612, Note_on_c, 0, 40, 88
2, 591648, Control_c, 0, 64, 56
2, 591660, Note_on_c, 0, 64, 0
2, 591664, Control_c, 0, 64, 127
2, 591676, Note_on_c, 0, 60, 0
2, 591764, Note_on_c, 0, 64, 88
2, 591772, Note_on_c, 0, 60, 81
2, 591780, Note_on_c, 0, 40, 0
2, 591824, Note_on_c, 0, 52, 0
2, 591828, Note_on_c, 0, 64, 0
2, 591852, Note_on_c, 0, 60, 0
2, 591928, Note_on_c, 0, 63, 94
2, 591932, Control_c, 0, 64, 72
2, 591940, Note_on_c, 0, 60, 83
2, 591944, Note_on_c, 0, 53, 87
2, 591944, Control_c, 0, 64, 0
2, 591952, Note_on_c, 0, 41, 89
2, 591964, Control_c, 0, 64, 56
2, 591972, Note_on_c, 0, 69, 0
2, 591976, Control_c, 0, 64, 104
2, 591984, Control_c, 0, 64, 127
2, 591996, Note_on_c, 0, 60, 0
2, 592016, Note_on_c, 0, 63, 0
2, 592100, Note_on_c, 0, 69, 107
2, 592108, Note_on_c, 0, 63, 93
2, 592108, Note_on_c, 0, 60, 95
2, 592152, Note_on_c, 0, 60, 0
2, 592156, Note_on_c, 0, 53, 0
2, 592156, Note_on_c, 0, 41, 0
2, 592160, Note_on_c, 0, 63, 0
2, 592196, Note_on_c, 0, 69, 0
2, 592280, Note_on_c, 0, 69, 113
2, 592280, Control_c, 0, 64, 88
2, 592288, Note_on_c, 0, 60, 98
2, 592288, Note_on_c, 0, 64, 98
2, 592288, Control_c, 0, 64, 0
2, 592296, Note_on_c, 0, 52, 85
2, 592300, Note_on_c, 0, 40, 88
2, 592340, Control_c, 0, 64, 72
2, 592344, Note_on_c, 0, 64, 0
2, 592352, Control_c, 0, 64, 127
2, 592360, Note_on_c, 0, 60, 0
2, 592460, Note_on_c, 0, 64, 96
2, 592464, Note_on_c, 0, 60, 84
2, 592484, Note_on_c, 0, 40, 0
2, 592496, Note_on_c, 0, 52, 0
2, 592540, Note_on_c, 0, 60, 0
2, 592552, Note_on_c, 0, 64, 0
2, 592600, Control_c, 0, 64, 56
2, 592608, Note_on_c, 0, 66, 95
2, 592612, Note_on_c, 0, 51, 96
2, 592616, Note_on_c, 0, 60, 89
2, 592616, Note_on_c, 0, 39, 87
2, 592616, Control_c, 0, 64, 0
2, 592632, Note_on_c, 0, 69, 0
2, 592632, Control_c, 0, 64, 72
2, 592644, Control_c, 0, 64, 127
2, 592680, Note_on_c, 0, 60, 0
2, 592704, Note_on_c, 0, 66, 0
2, 592788, Note_on_c, 0, 69, 111
2, 592788, Note_on_c, 0, 66, 93
2, 592792, Note_on_c, 0, 60, 98
2, 592804, Note_on_c, 0, 39, 0
2, 592840, Note_on_c, 0, 51, 0
2, 592852, Note_on_c, 0, 60, 0
2, 592856, Note_on_c, 0, 66, 0
2, 592876, Note_on_c, 0, 69, 0
2, 592968, Note_on_c, 0, 69, 108
2, 592968, Control_c, 0, 64, 40
2, 592972, Note_on_c, 0, 64, 100
2, 592972, Note_on_c, 0, 60, 98
2, 592980, Note_on_c, 0, 52, 95
2, 592980, Note_on_c, 0, 40, 88
2, 592980, Control_c, 0, 64, 0
2, 593020, Control_c, 0, 64, 56
2, 593032, Control_c, 0, 64, 127
2, 593064, Note_on_c, 0, 64, 0
2, 593068, Note_on_c, 0, 60, 0
2, 593124, Note_on_c, 0, 69, 0
2, 593148, Note_on_c, 0, 40, 0
2, 593152, Note_on_c, 0, 64, 97
2, 593156, Note_on_c, 0, 60, 88
2, 593164, Note_on_c, 0, 69, 81
2, 593212, Note_on_c, 0, 52, 0
2, 593240, Note_on_c, 0, 64, 0
2, 593248, Note_on_c, 0, 69, 0
2, 593276, Note_on_c, 0, 60, 0
2, 593356, Note_on_c, 0, 63, 97
2, 593364, Note_on_c, 0, 60, 90
2, 593364, Note_on_c, 0, 53, 101
2, 593368, Note_on_c, 0, 41, 93
2, 593368, Control_c, 0, 64, 40
2, 593376, Control_c, 0, 64, 0
2, 593408, Control_c, 0, 64, 72
2, 593420, Control_c, 0, 64, 127
2, 593456, Note_on_c, 0, 41, 0
2, 593456, Note_on_c, 0, 60, 0
2, 593460, Note_on_c, 0, 53, 0
2, 593480, Note_on_c, 0, 63, 0
2, 593552, Note_on_c, 0, 69, 103
2, 593552, Note_on_c, 0, 63, 90
2, 593552, Note_on_c, 0, 60, 80
2, 593576, Note_on_c, 0, 60, 0
2, 593584, Note_on_c, 0, 63, 0
2, 593604, Note_on_c, 0, 69, 0
2, 593716, Note_on_c, 0, 75, 88
2, 593716, Note_on_c, 0, 52, 103
2, 593716, Note_on_c, 0, 40, 101
2, 593800, Note_on_c, 0, 75, 0
2, 593804, Note_on_c, 0, 76, 92
2, 593872, Note_on_c, 0, 77, 95
2, 593888, Note_on_c, 0, 76, 0
2, 593956, Note_on_c, 0, 77, 0
2, 593960, Note_on_c, 0, 76, 99
2, 593980, Note_on_c, 0, 72, 100
2, 593980, Note_on_c, 0, 64, 85
2, 593992, Note_on_c, 0, 69, 83
2, 594012, Control_c, 0, 64, 88
2, 594024, Control_c, 0, 64, 0
2, 594048, Note_on_c, 0, 77, 91
2, 594052, Note_on_c, 0, 76, 0
2, 594064, Control_c, 0, 64, 72
2, 594076, Control_c, 0, 64, 127
2, 594124, Note_on_c, 0, 77, 0
2, 594132, Note_on_c, 0, 76, 93
2, 594200, Note_on_c, 0, 76, 0
2, 594208, Note_on_c, 0, 77, 90
2, 594268, Note_on_c, 0, 77, 0
2, 594272, Note_on_c, 0, 76, 84
2, 594296, Note_on_c, 0, 52, 0
2, 594296, Note_on_c, 0, 40, 0
2, 594336, Note_on_c, 0, 76, 0
2, 594340, Note_on_c, 0, 77, 83
2, 594396, Note_on_c, 0, 77, 0
2, 594404, Note_on_c, 0, 76, 79
2, 594432, Note_on_c, 0, 64, 0
2, 594448, Note_on_c, 0, 69, 0
2, 594460, Note_on_c, 0, 76, 0
2, 594460, Note_on_c, 0, 77, 81
2, 594488, Note_on_c, 0, 72, 0
2, 594524, Note_on_c, 0, 77, 0
2, 594528, Note_on_c, 0, 76, 78
2, 594584, Note_on_c, 0, 76, 0
2, 594584, Note_on_c, 0, 77, 81
2, 594652, Note_on_c, 0, 77, 0
2, 594652, Note_on_c, 0, 76, 78
2, 594704, Note_on_c, 0, 77, 83
2, 594708, Note_on_c, 0, 76, 0
2, 594736, Note_on_c, 0, 71, 95
2, 594736, Note_on_c, 0, 68, 79
2, 594736, Note_on_c, 0, 62, 82
2, 594736, Note_on_c, 0, 64, 84
2, 594772, Note_on_c, 0, 77, 0
2, 594772, Note_on_c, 0, 76, 79
2, 594796, Control_c, 0, 64, 56
2, 594808, Control_c, 0, 64, 0
2, 594828, Note_on_c, 0, 77, 81
2, 594832, Note_on_c, 0, 76, 0
2, 594892, Control_c, 0, 64, 127
2, 594900, Note_on_c, 0, 77, 0
2, 594908, Note_on_c, 0, 76, 77
2, 594964, Note_on_c, 0, 76, 0
2, 594964, Note_on_c, 0, 77, 81
2, 595028, Note_on_c, 0, 77, 0
2, 595040, Note_on_c, 0, 76, 76
2, 595092, Note_on_c, 0, 76, 0
2, 595096, Note_on_c, 0, 77, 79
2, 595156, Note_on_c, 0, 77, 0
2, 595164, Note_on_c, 0, 76, 76
2, 595176, Note_on_c, 0, 64, 0
2, 595216, Note_on_c, 0, 62, 0
2, 595220, Note_on_c, 0, 76, 0
2, 595220, Note_on_c, 0, 77, 78
2, 595264, Note_on_c, 0, 71, 0
2, 595280, Note_on_c, 0, 77, 0
2, 595284, Note_on_c, 0, 76, 79
2, 595340, Note_on_c, 0, 77, 79
2, 595344, Note_on_c, 0, 76, 0
2, 595400, Note_on_c, 0, 68, 0
2, 595412, Note_on_c, 0, 77, 0
2, 595416, Note_on_c, 0, 76, 70
2, 595448, Note_on_c, 0, 69, 100
2, 595448, Note_on_c, 0, 64, 84
2, 595448, Note_on_c, 0, 60, 86
2, 595472, Note_on_c, 0, 76, 0
2, 595472, Note_on_c, 0, 77, 81
2, 595540, Note_on_c, 0, 77, 0
2, 595552, Note_on_c, 0, 76, 77
2, 595556, Note_on_c, 0, 64, 0
2, 595572, Note_on_c, 0, 60, 0
2, 595596, Note_on_c, 0, 69, 0
2, 595608, Note_on_c, 0, 76, 0
2, 595608, Note_on_c, 0, 77, 83
2, 595672, Note_on_c, 0, 77, 0
2, 595684, Note_on_c, 0, 76, 78
2, 595712, Note_on_c, 0, 69, 101
2, 595712, Note_on_c, 0, 64, 91
2, 595712, Note_on_c, 0, 60, 86
2, 595744, Note_on_c, 0, 76, 0
2, 595748, Note_on_c, 0, 77, 81
2, 595800, Control_c, 0, 64, 104
2, 595812, Note_on_c, 0, 77, 0
2, 595812, Control_c, 0, 64, 40
2, 595820, Note_on_c, 0, 76, 75
2, 595824, Control_c, 0, 64, 0
2, 595876, Note_on_c, 0, 76, 0
2, 595884, Note_on_c, 0, 77, 77
2, 595912, Control_c, 0, 64, 56
2, 595924, Control_c, 0, 64, 127
2, 595940, Note_on_c, 0, 77, 0
2, 595952, Note_on_c, 0, 76, 78
2, 596008, Note_on_c, 0, 76, 0
2, 596016, Note_on_c, 0, 77, 78
2, 596080, Note_on_c, 0, 77, 0
2, 596088, Note_on_c, 0, 76, 76
2, 596144, Note_on_c, 0, 76, 0
2, 596148, Note_on_c, 0, 77, 79
2, 596204, Note_on_c, 0, 77, 0
2, 596216, Note_on_c, 0, 76, 76
2, 596264, Note_on_c, 0, 76, 0
2, 596272, Note_on_c, 0, 77, 78
2, 596332, Note_on_c, 0, 77, 0
2, 596336, Note_on_c, 0, 76, 76
2, 596392, Note_on_c, 0, 76, 0
2, 596400, Note_on_c, 0, 77, 77
2, 596464, Note_on_c, 0, 77, 0
2, 596468, Note_on_c, 0, 76, 70
2, 596528, Note_on_c, 0, 76, 0
2, 596532, Note_on_c, 0, 77, 74
2, 596588, Note_on_c, 0, 77, 0
2, 596600, Note_on_c, 0, 76, 78
2, 596620, Note_on_c, 0, 64, 0
2, 596624, Note_on_c, 0, 60, 0
2, 596640, Note_on_c, 0, 69, 0
2, 596656, Note_on_c, 0, 76, 0
2, 596656, Note_on_c, 0, 77, 77
2, 596712, Note_on_c, 0, 77, 0
2, 596712, Note_on_c, 0, 76, 81
2, 596772, Note_on_c, 0, 76, 0
2, 596780, Note_on_c, 0, 77, 78
2, 596820, Note_on_c, 0, 69, 93
2, 596824, Note_on_c, 0, 60, 86
2, 596824, Note_on_c, 0, 64, 88
2, 596840, Note_on_c, 0, 77, 0
2, 596840, Note_on_c, 0, 76, 84
2, 596868, Note_on_c, 0, 60, 0
2, 596876, Note_on_c, 0, 64, 0
2, 596896, Note_on_c, 0, 76, 0
2, 596900, Note_on_c, 0, 69, 0
2, 596904, Note_on_c, 0, 77, 79
2, 596968, Note_on_c, 0, 77, 0
2, 596976, Note_on_c, 0, 76, 75
2, 597032, Note_on_c, 0, 68, 87
2, 597036, Note_on_c, 0, 76, 0
2, 597036, Note_on_c, 0, 77, 83
2, 597036, Note_on_c, 0, 64, 93
2, 597044, Note_on_c, 0, 71, 93
2, 597092, Note_on_c, 0, 77, 0
2, 597096, Note_on_c, 0, 76, 83
2, 597108, Note_on_c, 0, 64, 0
2, 597120, Note_on_c, 0, 68, 0
2, 597124, Note_on_c, 0, 71, 0
2, 597152, Note_on_c, 0, 76, 0
2, 597156, Note_on_c, 0, 77, 83
2, 597212, Note_on_c, 0, 77, 0
2, 597216, Note_on_c, 0, 76, 81
2, 597240, Note_on_c, 0, 64, 92
2, 597240, Note_on_c, 0, 72, 101
2, 597248, Note_on_c, 0, 69, 92
2, 597264, Note_on_c, 0, 77, 87
2, 597288, Note_on_c, 0, 76, 0
2, 597292, Note_on_c, 0, 64, 0
2, 597312, Note_on_c, 0, 77, 0
2, 597312, Note_on_c, 0, 72, 0
2, 597320, Note_on_c, 0, 69, 0
2, 597332, Note_on_c, 0, 80, 88
2, 597384, Note_on_c, 0, 80, 0
2, 597392, Note_on_c, 0, 81, 91
2, 597444, Note_on_c, 0, 81, 0
2, 597456, Note_on_c, 0, 83, 91
2, 597480, Note_on_c, 0, 65, 76
2, 597496, Note_on_c, 0, 76, 99
2, 597496, Note_on_c, 0, 62, 83
2, 597496, Note_on_c, 0, 69, 88
2, 597508, Note_on_c, 0, 83, 0
2, 597516, Note_on_c, 0, 81, 94
2, 597560, Control_c, 0, 64, 56
2, 597568, Note_on_c, 0, 81, 0
2, 597572, Control_c, 0, 64, 0
2, 597596, Note_on_c, 0, 83, 85
2, 597648, Note_on_c, 0, 83, 0
2, 597676, Note_on_c, 0, 81, 86
2, 597696, Control_c, 0, 64, 72
2, 597708, Control_c, 0, 64, 127
2, 597744, Note_on_c, 0, 81, 0
2, 597752, Note_on_c, 0, 83, 87
2, 597808, Note_on_c, 0, 83, 0
2, 597808, Note_on_c, 0, 81, 84
2, 597876, Note_on_c, 0, 81, 0
2, 597880, Note_on_c, 0, 83, 84
2, 597936, Note_on_c, 0, 83, 0
2, 597940, Note_on_c, 0, 81, 78
2, 598000, Note_on_c, 0, 81, 0
2, 598000, Note_on_c, 0, 83, 78
2, 598060, Note_on_c, 0, 83, 0
2, 598060, Note_on_c, 0, 81, 78
2, 598120, Note_on_c, 0, 81, 0
2, 598124, Note_on_c, 0, 83, 83
2, 598168, Note_on_c, 0, 65, 0
2, 598180, Note_on_c, 0, 83, 0
2, 598184, Note_on_c, 0, 81, 76
2, 598192, Note_on_c, 0, 62, 0
2, 598192, Note_on_c, 0, 76, 0
2, 598228, Note_on_c, 0, 69, 0
2, 598244, Note_on_c, 0, 81, 0
2, 598244, Note_on_c, 0, 83, 78
2, 598300, Note_on_c, 0, 83, 0
2, 598308, Note_on_c, 0, 81, 74
2, 598324, Note_on_c, 0, 74, 93
2, 598324, Note_on_c, 0, 69, 86
2, 598328, Note_on_c, 0, 65, 85
2, 598332, Note_on_c, 0, 62, 83
2, 598364, Note_on_c, 0, 81, 0
2, 598372, Note_on_c, 0, 83, 78
2, 598424, Note_on_c, 0, 83, 0
2, 598432, Note_on_c, 0, 81, 77
2, 598440, Control_c, 0, 64, 72
2, 598452, Control_c, 0, 64, 0
2, 598484, Note_on_c, 0, 81, 0
2, 598484, Note_on_c, 0, 83, 77
2, 598524, Control_c, 0, 64, 88
2, 598540, Control_c, 0, 64, 127
2, 598544, Note_on_c, 0, 83, 0
2, 598548, Note_on_c, 0, 81, 79
2, 598600, Note_on_c, 0, 81, 0
2, 598600, Note_on_c, 0, 83, 68
2, 598656, Note_on_c, 0, 83, 0
2, 598660, Note_on_c, 0, 81, 77
2, 598716, Note_on_c, 0, 81, 0
2, 598716, Note_on_c, 0, 74, 0
2, 598716, Note_on_c, 0, 83, 77
2, 598720, Note_on_c, 0, 65, 0
2, 598720, Note_on_c, 0, 62, 0
2, 598724, Note_on_c, 0, 69, 0
2, 598776, Note_on_c, 0, 83, 0
2, 598776, Note_on_c, 0, 81, 73
2, 598832, Note_on_c, 0, 81, 0
2, 598832, Note_on_c, 0, 83, 78
2, 598888, Note_on_c, 0, 83, 0
2, 598892, Note_on_c, 0, 81, 74
2, 598940, Note_on_c, 0, 72, 96
2, 598940, Note_on_c, 0, 66, 75
2, 598944, Note_on_c, 0, 63, 77
2, 598944, Note_on_c, 0, 69, 81
2, 598952, Note_on_c, 0, 81, 0
2, 598952, Note_on_c, 0, 83, 84
2, 599004, Note_on_c, 0, 83, 0
2, 599088, Note_on_c, 0, 78, 93
2, 599136, Note_on_c, 0, 66, 0
2, 599148, Note_on_c, 0, 78, 0
2, 599156, Note_on_c, 0, 63, 0
2, 599160, Note_on_c, 0, 72, 0
2, 599168, Note_on_c, 0, 79, 94
2, 599224, Note_on_c, 0, 79, 0
2, 599228, Note_on_c, 0, 81, 90
2, 599252, Note_on_c, 0, 69, 0
2, 599288, Note_on_c, 0, 81, 0
2, 599288, Note_on_c, 0, 79, 85
2, 599320, Note_on_c, 0, 72, 91
2, 599320, Note_on_c, 0, 64, 79
2, 599328, Note_on_c, 0, 67, 79
2, 599348, Control_c, 0, 64, 88
2, 599356, Control_c, 0, 64, 0
2, 599360, Note_on_c, 0, 79, 0
2, 599368, Note_on_c, 0, 81, 91
2, 599424, Note_on_c, 0, 81, 0
2, 599428, Note_on_c, 0, 79, 85
2, 599456, Control_c, 0, 64, 72
2, 599468, Control_c, 0, 64, 127
2, 599496, Note_on_c, 0, 79, 0
2, 599500, Note_on_c, 0, 81, 81
2, 599552, Note_on_c, 0, 81, 0
2, 599560, Note_on_c, 0, 79, 83
2, 599616, Note_on_c, 0, 79, 0
2, 599620, Note_on_c, 0, 81, 74
2, 599680, Note_on_c, 0, 81, 0
2, 599684, Note_on_c, 0, 79, 84
2, 599736, Note_on_c, 0, 79, 0
2, 599744, Note_on_c, 0, 81, 74
2, 599800, Note_on_c, 0, 81, 0
2, 599804, Note_on_c, 0, 79, 85
2, 599856, Note_on_c, 0, 79, 0
2, 599864, Note_on_c, 0, 81, 77
2, 599928, Note_on_c, 0, 81, 0
2, 599928, Note_on_c, 0, 79, 83
2, 599984, Note_on_c, 0, 79, 0
2, 599984, Note_on_c, 0, 64, 0
2, 599992, Note_on_c, 0, 81, 68
2, 600028, Note_on_c, 0, 67, 0
2, 600028, Note_on_c, 0, 65, 79
2, 600052, Note_on_c, 0, 81, 0
2, 600056, Note_on_c, 0, 79, 79
2, 600112, Note_on_c, 0, 79, 0
2, 600112, Note_on_c, 0, 81, 70
2, 600176, Note_on_c, 0, 81, 0
2, 600176, Note_on_c, 0, 72, 0
2, 600184, Note_on_c, 0, 79, 79
2, 600228, Note_on_c, 0, 81, 73
2, 600232, Note_on_c, 0, 79, 0
2, 600300, Note_on_c, 0, 81, 0
2, 600304, Note_on_c, 0, 71, 87
2, 600304, Note_on_c, 0, 67, 82
2, 600308, Note_on_c, 0, 79, 77
2, 600344, Note_on_c, 0, 65, 0
2, 600360, Note_on_c, 0, 79, 0
2, 600360, Note_on_c, 0, 81, 68
2, 600424, Note_on_c, 0, 81, 0
2, 600424, Control_c, 0, 64, 88
2, 600432, Note_on_c, 0, 79, 75
2, 600436, Control_c, 0, 64, 24
2, 600452, Control_c, 0, 64, 0
2, 600480, Note_on_c, 0, 81, 69
2, 600484, Note_on_c, 0, 79, 0
2, 600524, Control_c, 0, 64, 40
2, 600536, Control_c, 0, 64, 104
2, 600544, Note_on_c, 0, 81, 0
2, 600548, Control_c, 0, 64, 127
2, 600552, Note_on_c, 0, 79, 77
2, 600604, Note_on_c, 0, 79, 0
2, 600604, Note_on_c, 0, 81, 68
2, 600660, Note_on_c, 0, 81, 0
2, 600668, Note_on_c, 0, 79, 78
2, 600720, Note_on_c, 0, 79, 0
2, 600724, Note_on_c, 0, 81, 69
2, 600784, Note_on_c, 0, 81, 0
2, 600788, Note_on_c, 0, 79, 77
2, 600836, Note_on_c, 0, 79, 0
2, 600840, Note_on_c, 0, 81, 73
2, 600896, Note_on_c, 0, 81, 0
2, 600904, Note_on_c, 0, 79, 79
2, 600960, Note_on_c, 0, 79, 0
2, 600964, Note_on_c, 0, 81, 68
2, 600980, Note_on_c, 0, 71, 0
2, 600984, Note_on_c, 0, 67, 0
2, 601024, Note_on_c, 0, 81, 0
2, 601036, Note_on_c, 0, 79, 74
2, 601068, Note_on_c, 0, 70, 93
2, 601076, Note_on_c, 0, 65, 86
2, 601076, Note_on_c, 0, 67, 70
2, 601088, Note_on_c, 0, 79, 0
2, 601088, Note_on_c, 0, 81, 68
2, 601152, Note_on_c, 0, 81, 0
2, 601160, Note_on_c, 0, 79, 74
2, 601184, Note_on_c, 0, 67, 0
2, 601216, Note_on_c, 0, 79, 0
2, 601216, Note_on_c, 0, 65, 0
2, 601216, Note_on_c, 0, 81, 70
2, 601248, Note_on_c, 0, 70, 0
2, 601276, Note_on_c, 0, 81, 0
2, 601292, Note_on_c, 0, 79, 76
2, 601340, Note_on_c, 0, 81, 66
2, 601348, Note_on_c, 0, 79, 0
2, 601416, Note_on_c, 0, 81, 0
2, 601428, Note_on_c, 0, 74, 103
2, 601428, Note_on_c, 0, 70, 83
2, 601432, Note_on_c, 0, 79, 76
2, 601436, Note_on_c, 0, 67, 87
2, 601436, Note_on_c, 0, 65, 83
2, 601488, Note_on_c, 0, 79, 0
2, 601492, Note_on_c, 0, 81, 66
2, 601516, Control_c, 0, 64, 104
2, 601528, Control_c, 0, 64, 56
2, 601540, Control_c, 0, 64, 0
2, 601556, Note_on_c, 0, 81, 0
2, 601568, Note_on_c, 0, 79, 73
2, 601612, Note_on_c, 0, 81, 67
2, 601616, Note_on_c, 0, 79, 0
2, 601640, Control_c, 0, 64, 72
2, 601652, Control_c, 0, 64, 127
2, 601680, Note_on_c, 0, 81, 0
2, 601692, Note_on_c, 0, 79, 73
2, 601732, Note_on_c, 0, 81, 67
2, 601740, Note_on_c, 0, 79, 0
2, 601796, Note_on_c, 0, 81, 0
2, 601804, Note_on_c, 0, 79, 68
2, 601852, Note_on_c, 0, 81, 68
2, 601856, Note_on_c, 0, 79, 0
2, 601916, Note_on_c, 0, 81, 0
2, 601924, Note_on_c, 0, 79, 76
2, 601980, Note_on_c, 0, 79, 0
2, 601980, Note_on_c, 0, 81, 66
2, 602000, Note_on_c, 0, 67, 0
2, 602016, Note_on_c, 0, 74, 0
2, 602036, Note_on_c, 0, 65, 0
2, 602040, Note_on_c, 0, 81, 0
2, 602044, Note_on_c, 0, 79, 68
2, 602092, Note_on_c, 0, 70, 0
2, 602096, Note_on_c, 0, 81, 73
2, 602100, Note_on_c, 0, 79, 0
2, 602164, Note_on_c, 0, 81, 0
2, 602172, Note_on_c, 0, 79, 75
2, 602224, Note_on_c, 0, 81, 73
2, 602228, Note_on_c, 0, 79, 0
2, 602280, Note_on_c, 0, 73, 96
2, 602288, Note_on_c, 0, 64, 83
2, 602288, Note_on_c, 0, 70, 84
2, 602292, Note_on_c, 0, 81, 0
2, 602296, Note_on_c, 0, 67, 79
2, 602304, Note_on_c, 0, 79, 76
2, 602344, Control_c, 0, 64, 72
2, 602352, Note_on_c, 0, 81, 73
2, 602360, Note_on_c, 0, 79, 0
2, 602360, Control_c, 0, 64, 0
2, 602416, Note_on_c, 0, 81, 0
2, 602428, Note_on_c, 0, 79, 73
2, 602436, Control_c, 0, 64, 56
2, 602448, Control_c, 0, 64, 127
2, 602472, Note_on_c, 0, 81, 68
2, 602480, Note_on_c, 0, 79, 0
2, 602536, Note_on_c, 0, 81, 0
2, 602552, Note_on_c, 0, 79, 75
2, 602596, Note_on_c, 0, 81, 74
2, 602608, Note_on_c, 0, 79, 0
2, 602608, Note_on_c, 0, 64, 0
2, 602652, Note_on_c, 0, 73, 0
2, 602656, Note_on_c, 0, 67, 0
2, 602664, Note_on_c, 0, 81, 0
2, 602676, Note_on_c, 0, 79, 81
2, 602728, Note_on_c, 0, 79, 0
2, 602728, Note_on_c, 0, 81, 70
2, 602792, Note_on_c, 0, 70, 0
2, 602792, Note_on_c, 0, 79, 73
2, 602796, Note_on_c, 0, 81, 0
2, 602856, Note_on_c, 0, 81, 68
2, 602864, Note_on_c, 0, 79, 0
2, 602888, Note_on_c, 0, 74, 99
2, 602888, Note_on_c, 0, 70, 76
2, 602896, Note_on_c, 0, 62, 83
2, 602896, Note_on_c, 0, 67, 73
2, 602916, Note_on_c, 0, 81, 0
2, 602928, Note_on_c, 0, 79, 78
2, 602960, Note_on_c, 0, 62, 0
2, 602988, Note_on_c, 0, 81, 73
2, 602992, Note_on_c, 0, 79, 0
2, 602996, Note_on_c, 0, 67, 0
2, 602996, Note_on_c, 0, 74, 0
2, 603004, Note_on_c, 0, 70, 0
2, 603064, Note_on_c, 0, 81, 0
2, 603068, Note_on_c, 0, 61, 83
2, 603068, Control_c, 0, 64, 88
2, 603080, Control_c, 0, 64, 0
2, 603088, Note_on_c, 0, 67, 78
2, 603096, Note_on_c, 0, 70, 82
2, 603128, Note_on_c, 0, 61, 0
2, 603140, Control_c, 0, 64, 72
2, 603152, Control_c, 0, 64, 127
2, 603160, Note_on_c, 0, 76, 100
2, 603188, Note_on_c, 0, 79, 91
2, 603220, Note_on_c, 0, 70, 0
2, 603224, Note_on_c, 0, 67, 0
2, 603256, Note_on_c, 0, 79, 0
2, 603264, Note_on_c, 0, 81, 91
2, 603336, Note_on_c, 0, 79, 90
2, 603360, Note_on_c, 0, 81, 0
2, 603376, Note_on_c, 0, 76, 0
2, 603412, Note_on_c, 0, 79, 0
2, 603424, Note_on_c, 0, 76, 92
2, 603480, Note_on_c, 0, 76, 0
2, 603500, Note_on_c, 0, 73, 90
2, 603564, Note_on_c, 0, 70, 88
2, 603580, Note_on_c, 0, 73, 0
2, 603640, Note_on_c, 0, 67, 87
2, 603648, Note_on_c, 0, 70, 0
2, 603712, Note_on_c, 0, 64, 84
2, 603756, Note_on_c, 0, 67, 0
2, 603776, Note_on_c, 0, 64, 0
2, 603808, Note_on_c, 0, 67, 88
2, 603876, Note_on_c, 0, 67, 0
2, 603892, Note_on_c, 0, 69, 88
2, 603960, Note_on_c, 0, 67, 87
2, 603980, Note_on_c, 0, 69, 0
2, 604032, Note_on_c, 0, 67, 0
2, 604036, Note_on_c, 0, 64, 84
2, 604092, Note_on_c, 0, 64, 0
2, 604120, Note_on_c, 0, 61, 83
2, 604200, Note_on_c, 0, 58, 83
2, 604212, Note_on_c, 0, 61, 0
2, 604252, Note_on_c, 0, 55, 82
2, 604268, Note_on_c, 0, 58, 0
2, 604340, Note_on_c, 0, 52, 81
2, 604364, Note_on_c, 0, 55, 0
2, 604380, Note_on_c, 0, 52, 0
2, 604440, Note_on_c, 0, 66, 86
2, 604496, Note_on_c, 0, 66, 0
2, 604504, Note_on_c, 0, 67, 87
2, 604564, Note_on_c, 0, 67, 0
2, 604572, Note_on_c, 0, 69, 88
2, 604628, Note_on_c, 0, 69, 0
2, 604644, Note_on_c, 0, 67, 88
2, 604648, Note_on_c, 0, 62, 95
2, 604656, Note_on_c, 0, 58, 68
2, 604656, Note_on_c, 0, 53, 78
2, 604656, Control_c, 0, 64, 104
2, 604664, Note_on_c, 0, 55, 79
2, 604668, Control_c, 0, 64, 40
2, 604680, Control_c, 0, 64, 0
2, 604712, Note_on_c, 0, 67, 0
2, 604716, Note_on_c, 0, 69, 84
2, 604780, Note_on_c, 0, 69, 0
2, 604784, Note_on_c, 0, 67, 82
2, 604852, Note_on_c, 0, 67, 0
2, 604852, Note_on_c, 0, 69, 78
2, 604876, Control_c, 0, 64, 88
2, 604888, Control_c, 0, 64, 127
2, 604916, Note_on_c, 0, 69, 0
2, 604920, Note_on_c, 0, 67, 78
2, 604984, Note_on_c, 0, 67, 0
2, 604992, Note_on_c, 0, 69, 73
2, 605048, Note_on_c, 0, 69, 0
2, 605052, Note_on_c, 0, 67, 73
2, 605116, Note_on_c, 0, 67, 0
2, 605120, Note_on_c, 0, 69, 70
2, 605124, Note_on_c, 0, 55, 0
2, 605180, Note_on_c, 0, 69, 0
2, 605184, Note_on_c, 0, 67, 70
2, 605240, Note_on_c, 0, 67, 0
2, 605244, Note_on_c, 0, 69, 67
2, 605256, Note_on_c, 0, 53, 0
2, 605272, Note_on_c, 0, 62, 0
2, 605304, Note_on_c, 0, 69, 0
2, 605304, Note_on_c, 0, 67, 68
2, 605312, Note_on_c, 0, 58, 0
2, 605364, Note_on_c, 0, 67, 0
2, 605364, Note_on_c, 0, 69, 70
2, 605424, Note_on_c, 0, 69, 0
2, 605432, Note_on_c, 0, 61, 101
2, 605440, Note_on_c, 0, 52, 85
2, 605444, Note_on_c, 0, 67, 66
2, 605448, Note_on_c, 0, 58, 78
2, 605452, Note_on_c, 0, 55, 85
2, 605496, Note_on_c, 0, 67, 0
2, 605496, Note_on_c, 0, 69, 64
2, 605524, Control_c, 0, 64, 40
2, 605536, Control_c, 0, 64, 0
2, 605556, Note_on_c, 0, 69, 0
2, 605564, Note_on_c, 0, 67, 68
2, 605604, Control_c, 0, 64, 88
2, 605620, Note_on_c, 0, 67, 0
2, 605620, Control_c, 0, 64, 127
2, 605624, Note_on_c, 0, 69, 67
2, 605684, Note_on_c, 0, 69, 0
2, 605688, Note_on_c, 0, 67, 68
2, 605708, Note_on_c, 0, 52, 0
2, 605744, Note_on_c, 0, 55, 0
2, 605748, Note_on_c, 0, 67, 0
2, 605748, Note_on_c, 0, 69, 66
2, 605768, Note_on_c, 0, 61, 0
2, 605808, Note_on_c, 0, 69, 0
2, 605816, Note_on_c, 0, 67, 68
2, 605864, Note_on_c, 0, 69, 69
2, 605872, Note_on_c, 0, 67, 0
2, 605904, Note_on_c, 0, 58, 0
2, 605928, Note_on_c, 0, 69, 0
2, 605936, Note_on_c, 0, 67, 56
2, 605992, Note_on_c, 0, 69, 73
2, 605996, Note_on_c, 0, 67, 0
2, 606000, Note_on_c, 0, 62, 93
2, 606000, Note_on_c, 0, 58, 78
2, 606004, Note_on_c, 0, 50, 87
2, 606004, Note_on_c, 0, 55, 88
2, 606044, Note_on_c, 0, 67, 74
2, 606048, Note_on_c, 0, 69, 0
2, 606056, Note_on_c, 0, 50, 0
2, 606084, Note_on_c, 0, 58, 0
2, 606088, Note_on_c, 0, 62, 0
2, 606088, Note_on_c, 0, 55, 0
2, 606104, Note_on_c, 0, 67, 0
2, 606108, Note_on_c, 0, 69, 74
2, 606140, Control_c, 0, 64, 72
2, 606148, Note_on_c, 0, 49, 86
2, 606156, Control_c, 0, 64, 0
2, 606160, Note_on_c, 0, 55, 73
2, 606172, Note_on_c, 0, 58, 55
2, 606188, Note_on_c, 0, 69, 0
2, 606216, Note_on_c, 0, 49, 0
2, 606216, Control_c, 0, 64, 40
2, 606228, Control_c, 0, 64, 127
2, 606256, Note_on_c, 0, 64, 101
2, 606288, Note_on_c, 0, 67, 85
2, 606356, Note_on_c, 0, 67, 0
2, 606360, Note_on_c, 0, 69, 87
2, 606396, Note_on_c, 0, 64, 0
2, 606404, Note_on_c, 0, 55, 0
2, 606420, Note_on_c, 0, 58, 0
2, 606428, Note_on_c, 0, 67, 85
2, 606444, Note_on_c, 0, 69, 0
2, 606504, Note_on_c, 0, 67, 0
2, 606508, Note_on_c, 0, 64, 85
2, 606560, Note_on_c, 0, 64, 0
2, 606588, Note_on_c, 0, 61, 83
2, 606668, Note_on_c, 0, 58, 83
2, 606680, Note_on_c, 0, 61, 0
2, 606748, Note_on_c, 0, 58, 0
2, 606748, Note_on_c, 0, 55, 83
2, 606828, Note_on_c, 0, 52, 82
2, 606860, Note_on_c, 0, 55, 0
2, 606908, Note_on_c, 0, 52, 0
2, 606908, Note_on_c, 0, 55, 83
2, 606980, Note_on_c, 0, 55, 0
2, 606988, Note_on_c, 0, 57, 83
2, 607060, Note_on_c, 0, 57, 0
2, 607068, Note_on_c, 0, 55, 81
2, 607136, Note_on_c, 0, 55, 0
2, 607148, Note_on_c, 0, 52, 79
2, 607188, Note_on_c, 0, 52, 0
2, 607228, Note_on_c, 0, 49, 78
2, 607308, Note_on_c, 0, 46, 78
2, 607328, Note_on_c, 0, 49, 0
2, 607384, Note_on_c, 0, 46, 0
2, 607388, Note_on_c, 0, 43, 78
2, 607468, Note_on_c, 0, 40, 77
2, 607500, Note_on_c, 0, 43, 0
2, 607536, Note_on_c, 0, 40, 0
2, 607616, Note_on_c, 0, 64, 91
2, 607616, Note_on_c, 0, 60, 77
2, 607616, Note_on_c, 0, 55, 78
2, 607616, Note_on_c, 0, 45, 86
2, 607640, Control_c, 0, 64, 104
2, 607652, Control_c, 0, 64, 0
2, 607700, Note_on_c, 0, 45, 0
2, 607708, Note_on_c, 0, 47, 73
2, 607740, Control_c, 0, 64, 40
2, 607756, Control_c, 0, 64, 127
2, 607764, Note_on_c, 0, 47, 0
2, 607800, Note_on_c, 0, 45, 83
2, 607864, Note_on_c, 0, 45, 0
2, 607892, Note_on_c, 0, 47, 76
2, 607928, Note_on_c, 0, 47, 0
2, 607984, Note_on_c, 0, 45, 76
2, 608040, Note_on_c, 0, 45, 0
2, 608076, Note_on_c, 0, 47, 76
2, 608136, Note_on_c, 0, 47, 0
2, 608136, Note_on_c, 0, 60, 0
2, 608152, Note_on_c, 0, 55, 0
2, 608168, Note_on_c, 0, 45, 78
2, 608172, Note_on_c, 0, 64, 0
2, 608224, Note_on_c, 0, 45, 0
2, 608260, Note_on_c, 0, 47, 76
2, 608308, Note_on_c, 0, 45, 77
2, 608328, Note_on_c, 0, 47, 0
2, 608348, Note_on_c, 0, 63, 90
2, 608348, Note_on_c, 0, 60, 83
2, 608348, Note_on_c, 0, 45, 75
2, 608348, Note_on_c, 0, 54, 76
2, 608380, Note_on_c, 0, 45, 0
2, 608420, Note_on_c, 0, 60, 0
2, 608428, Note_on_c, 0, 45, 0
2, 608432, Note_on_c, 0, 47, 77
2, 608480, Note_on_c, 0, 47, 0
2, 608516, Note_on_c, 0, 45, 77
2, 608564, Note_on_c, 0, 45, 0
2, 608600, Note_on_c, 0, 47, 82
2, 608656, Note_on_c, 0, 47, 0
2, 608680, Note_on_c, 0, 54, 0
2, 608684, Note_on_c, 0, 45, 76
2, 608736, Note_on_c, 0, 45, 0
2, 608768, Note_on_c, 0, 47, 76
2, 608800, Note_on_c, 0, 63, 0
2, 608840, Note_on_c, 0, 47, 0
2, 608860, Note_on_c, 0, 64, 95
2, 608860, Note_on_c, 0, 45, 75
2, 608860, Note_on_c, 0, 55, 90
2, 608860, Note_on_c, 0, 60, 73
2, 608900, Note_on_c, 0, 45, 0
2, 608904, Note_on_c, 0, 60, 0
2, 608912, Note_on_c, 0, 55, 0
2, 608928, Note_on_c, 0, 64, 0
2, 608944, Note_on_c, 0, 47, 74
2, 608984, Note_on_c, 0, 47, 0
2, 609060, Note_on_c, 0, 57, 76
2, 609060, Note_on_c, 0, 63, 76
2, 609060, Note_on_c, 0, 66, 99
2, 609084, Note_on_c, 0, 60, 78
2, 609116, Control_c, 0, 64, 104
2, 609128, Control_c, 0, 64, 56
2, 609168, Note_on_c, 0, 47, 83
2, 609240, Note_on_c, 0, 47, 0
2, 609248, Note_on_c, 0, 45, 93
2, 609308, Note_on_c, 0, 45, 0
2, 609320, Note_on_c, 0, 44, 83
2, 609352, Note_on_c, 0, 60, 0
2, 609352, Note_on_c, 0, 57, 0
2, 609388, Note_on_c, 0, 45, 88
2, 609396, Note_on_c, 0, 63, 0
2, 609412, Note_on_c, 0, 66, 0
2, 609460, Note_on_c, 0, 44, 0
2, 609468, Note_on_c, 0, 45, 0
2, 609472, Note_on_c, 0, 48, 92
2, 609532, Note_on_c, 0, 48, 0
2, 609548, Note_on_c, 0, 55, 98
2, 609576, Control_c, 0, 64, 24
2, 609588, Control_c, 0, 64, 56
2, 609600, Control_c, 0, 64, 88
2, 609608, Control_c, 0, 64, 127
2, 609616, Note_on_c, 0, 55, 0
2, 609640, Note_on_c, 0, 54, 83
2, 609668, Control_c, 0, 64, 104
2, 609676, Control_c, 0, 64, 88
2, 609688, Control_c, 0, 64, 72
2, 609696, Note_on_c, 0, 54, 0
2, 609700, Control_c, 0, 64, 40
2, 609708, Control_c, 0, 64, 24
2, 609712, Note_on_c, 0, 55, 93
2, 609720, Control_c, 0, 64, 0
2, 609780, Note_on_c, 0, 55, 0
2, 609788, Note_on_c, 0, 54, 90
2, 609860, Note_on_c, 0, 54, 0
2, 609860, Control_c, 0, 64, 24
2, 609864, Note_on_c, 0, 53, 93
2, 609872, Control_c, 0, 64, 56
2, 609880, Control_c, 0, 64, 88
2, 609892, Control_c, 0, 64, 104
2, 609900, Control_c, 0, 64, 127
2, 609940, Note_on_c, 0, 53, 0
2, 609940, Note_on_c, 0, 54, 90
2, 609996, Note_on_c, 0, 54, 0
2, 610020, Note_on_c, 0, 57, 81
2, 610096, Note_on_c, 0, 57, 0
2, 610096, Note_on_c, 0, 60, 97
2, 610128, Note_on_c, 0, 60, 0
2, 610248, Note_on_c, 0, 67, 84
2, 610248, Note_on_c, 0, 76, 104
2, 610252, Note_on_c, 0, 72, 90
2, 610264, Note_on_c, 0, 57, 78
2, 610264, Control_c, 0, 64, 88
2, 610272, Control_c, 0, 64, 40
2, 610284, Control_c, 0, 64, 0
2, 610328, Note_on_c, 0, 57, 0
2, 610344, Note_on_c, 0, 59, 68
2, 610372, Control_c, 0, 64, 24
2, 610384, Control_c, 0, 64, 72
2, 610396, Control_c, 0, 64, 104
2, 610404, Note_on_c, 0, 59, 0
2, 610404, Control_c, 0, 64, 127
2, 610416, Note_on_c, 0, 57, 68
2, 610480, Note_on_c, 0, 57, 0
2, 610488, Note_on_c, 0, 59, 66
2, 610572, Note_on_c, 0, 59, 0
2, 610576, Note_on_c, 0, 57, 83
2, 610636, Note_on_c, 0, 57, 0
2, 610648, Note_on_c, 0, 59, 79
2, 610712, Note_on_c, 0, 59, 0
2, 610728, Note_on_c, 0, 57, 83
2, 610744, Note_on_c, 0, 67, 0
2, 610784, Note_on_c, 0, 57, 0
2, 610808, Note_on_c, 0, 59, 77
2, 610852, Note_on_c, 0, 72, 0
2, 610860, Note_on_c, 0, 76, 0
2, 610904, Note_on_c, 0, 75, 101
2, 610908, Note_on_c, 0, 59, 0
2, 610908, Note_on_c, 0, 72, 88
2, 610912, Note_on_c, 0, 66, 76
2, 610916, Note_on_c, 0, 57, 78
2, 610956, Note_on_c, 0, 72, 0
2, 610980, Note_on_c, 0, 57, 0
2, 611004, Note_on_c, 0, 59, 76
2, 611072, Note_on_c, 0, 59, 0
2, 611084, Note_on_c, 0, 57, 81
2, 611144, Note_on_c, 0, 57, 0
2, 611156, Note_on_c, 0, 59, 68
2, 611164, Note_on_c, 0, 72, 29
2, 611176, Note_on_c, 0, 66, 0
2, 611232, Note_on_c, 0, 75, 0
2, 611248, Note_on_c, 0, 59, 0
2, 611248, Note_on_c, 0, 57, 81
2, 611312, Note_on_c, 0, 57, 0
2, 611320, Note_on_c, 0, 59, 83
2, 611404, Note_on_c, 0, 72, 0
2, 611408, Note_on_c, 0, 76, 103
2, 611412, Note_on_c, 0, 67, 92
2, 611428, Note_on_c, 0, 59, 0
2, 611428, Note_on_c, 0, 57, 77
2, 611456, Note_on_c, 0, 67, 0
2, 611476, Note_on_c, 0, 76, 0
2, 611484, Note_on_c, 0, 57, 0
2, 611504, Note_on_c, 0, 59, 78
2, 611556, Note_on_c, 0, 59, 0
2, 611612, Note_on_c, 0, 78, 103
2, 611616, Note_on_c, 0, 75, 88
2, 611620, Note_on_c, 0, 69, 90
2, 611620, Note_on_c, 0, 57, 75
2, 611632, Note_on_c, 0, 72, 77
2, 611644, Control_c, 0, 64, 72
2, 611652, Control_c, 0, 64, 24
2, 611664, Control_c, 0, 64, 0
2, 611692, Note_on_c, 0, 57, 0
2, 611700, Note_on_c, 0, 59, 75
2, 611736, Control_c, 0, 64, 40
2, 611744, Control_c, 0, 64, 88
2, 611756, Control_c, 0, 64, 127
2, 611780, Note_on_c, 0, 59, 0
2, 611784, Note_on_c, 0, 57, 84
2, 611848, Note_on_c, 0, 57, 0
2, 611860, Note_on_c, 0, 56, 78
2, 611884, Note_on_c, 0, 72, 0
2, 611896, Note_on_c, 0, 75, 0
2, 611904, Note_on_c, 0, 78, 0
2, 611916, Note_on_c, 0, 69, 0
2, 611936, Note_on_c, 0, 57, 91
2, 611948, Note_on_c, 0, 56, 0
2, 612012, Note_on_c, 0, 57, 0
2, 612020, Note_on_c, 0, 60, 90
2, 612064, Note_on_c, 0, 60, 0
2, 612092, Note_on_c, 0, 67, 93
2, 612152, Note_on_c, 0, 67, 0
2, 612184, Note_on_c, 0, 66, 87
2, 612252, Note_on_c, 0, 66, 0
2, 612276, Note_on_c, 0, 67, 93
2, 612340, Note_on_c, 0, 67, 0
2, 612352, Note_on_c, 0, 66, 88
2, 612432, Note_on_c, 0, 65, 88
2, 612436, Note_on_c, 0, 66, 0
2, 612520, Note_on_c, 0, 65, 0
2, 612520, Note_on_c, 0, 66, 88
2, 612568, Note_on_c, 0, 66, 0
2, 612612, Note_on_c, 0, 69, 92
2, 612684, Note_on_c, 0, 69, 0
2, 612696, Note_on_c, 0, 72, 100
2, 612756, Note_on_c, 0, 72, 0
2, 612824, Note_on_c, 0, 78, 103
2, 612832, Note_on_c, 0, 71, 85
2, 612832, Control_c, 0, 64, 104
2, 612836, Note_on_c, 0, 59, 77
2, 612840, Control_c, 0, 64, 56
2, 612844, Note_on_c, 0, 55, 78
2, 612852, Control_c, 0, 64, 0
2, 612920, Control_c, 0, 64, 56
2, 612932, Control_c, 0, 64, 104
2, 612944, Note_on_c, 0, 59, 0
2, 612944, Control_c, 0, 64, 127
2, 612948, Note_on_c, 0, 60, 86
2, 613016, Note_on_c, 0, 60, 0
2, 613036, Note_on_c, 0, 55, 0
2, 613036, Note_on_c, 0, 59, 83
2, 613100, Note_on_c, 0, 59, 0
2, 613124, Note_on_c, 0, 58, 77
2, 613208, Note_on_c, 0, 59, 83
2, 613244, Note_on_c, 0, 58, 0
2, 613288, Note_on_c, 0, 59, 0
2, 613296, Note_on_c, 0, 63, 93
2, 613372, Note_on_c, 0, 78, 0
2, 613376, Note_on_c, 0, 63, 0
2, 613380, Note_on_c, 0, 76, 103
2, 613384, Note_on_c, 0, 64, 87
2, 613464, Note_on_c, 0, 64, 0
2, 613480, Note_on_c, 0, 66, 91
2, 613544, Note_on_c, 0, 66, 0
2, 613568, Note_on_c, 0, 64, 84
2, 613644, Note_on_c, 0, 64, 0
2, 613656, Note_on_c, 0, 63, 88
2, 613684, Note_on_c, 0, 71, 0
2, 613712, Note_on_c, 0, 63, 0
2, 613736, Note_on_c, 0, 64, 90
2, 613800, Note_on_c, 0, 76, 0
2, 613804, Note_on_c, 0, 79, 108
2, 613856, Note_on_c, 0, 64, 0
2, 613872, Note_on_c, 0, 71, 90
2, 613896, Note_on_c, 0, 79, 0
2, 613912, Note_on_c, 0, 71, 0
2, 613996, Note_on_c, 0, 79, 106
2, 614000, Note_on_c, 0, 72, 90
2, 614008, Note_on_c, 0, 60, 76
2, 614008, Note_on_c, 0, 57, 76
2, 614020, Control_c, 0, 64, 104
2, 614028, Control_c, 0, 64, 72
2, 614040, Control_c, 0, 64, 24
2, 614052, Control_c, 0, 64, 0
2, 614104, Note_on_c, 0, 74, 93
2, 614108, Note_on_c, 0, 72, 0
2, 614160, Control_c, 0, 64, 40
2, 614172, Control_c, 0, 64, 88
2, 614180, Note_on_c, 0, 74, 0
2, 614180, Control_c, 0, 64, 127
2, 614196, Note_on_c, 0, 72, 93
2, 614264, Note_on_c, 0, 72, 0
2, 614284, Note_on_c, 0, 71, 68
2, 614336, Note_on_c, 0, 71, 0
2, 614372, Note_on_c, 0, 72, 81
2, 614448, Note_on_c, 0, 72, 0
2, 614452, Note_on_c, 0, 76, 92
2, 614480, Note_on_c, 0, 79, 0
2, 614504, Note_on_c, 0, 76, 0
2, 614572, Note_on_c, 0, 77, 110
2, 614576, Note_on_c, 0, 72, 88
2, 614596, Control_c, 0, 64, 88
2, 614604, Control_c, 0, 64, 40
2, 614612, Control_c, 0, 64, 24
2, 614644, Control_c, 0, 64, 72
2, 614656, Control_c, 0, 64, 104
2, 614664, Control_c, 0, 64, 127
2, 614672, Note_on_c, 0, 77, 0
2, 614672, Note_on_c, 0, 79, 100
2, 614760, Note_on_c, 0, 77, 106
2, 614764, Note_on_c, 0, 79, 0
2, 614836, Note_on_c, 0, 77, 0
2, 614840, Note_on_c, 0, 76, 103
2, 614912, Note_on_c, 0, 57, 0
2, 614924, Note_on_c, 0, 77, 105
2, 614948, Note_on_c, 0, 60, 0
2, 614948, Note_on_c, 0, 76, 0
2, 615000, Note_on_c, 0, 72, 0
2, 615008, Note_on_c, 0, 77, 0
2, 615008, Note_on_c, 0, 81, 100
2, 615060, Note_on_c, 0, 81, 0
2, 615116, Note_on_c, 0, 81, 111
2, 615124, Note_on_c, 0, 74, 92
2, 615128, Note_on_c, 0, 62, 81
2, 615128, Control_c, 0, 64, 104
2, 615136, Note_on_c, 0, 59, 73
2, 615136, Control_c, 0, 64, 72
2, 615148, Control_c, 0, 64, 0
2, 615208, Note_on_c, 0, 62, 0
2, 615216, Control_c, 0, 64, 40
2, 615220, Note_on_c, 0, 64, 81
2, 615228, Control_c, 0, 64, 104
2, 615240, Control_c, 0, 64, 127
2, 615288, Note_on_c, 0, 64, 0
2, 615300, Note_on_c, 0, 59, 0
2, 615312, Note_on_c, 0, 62, 84
2, 615384, Note_on_c, 0, 62, 0
2, 615396, Note_on_c, 0, 61, 85
2, 615480, Note_on_c, 0, 62, 95
2, 615484, Note_on_c, 0, 61, 0
2, 615556, Note_on_c, 0, 62, 0
2, 615568, Note_on_c, 0, 67, 93
2, 615652, Note_on_c, 0, 67, 0
2, 615656, Note_on_c, 0, 81, 0
2, 615668, Note_on_c, 0, 80, 108
2, 615676, Note_on_c, 0, 68, 84
2, 615756, Note_on_c, 0, 68, 0
2, 615764, Note_on_c, 0, 69, 93
2, 615832, Note_on_c, 0, 69, 0
2, 615844, Note_on_c, 0, 68, 87
2, 615848, Note_on_c, 0, 74, 0
2, 615912, Note_on_c, 0, 68, 0
2, 615936, Note_on_c, 0, 67, 88
2, 616000, Note_on_c, 0, 68, 104
2, 616008, Note_on_c, 0, 67, 0
2, 616060, Note_on_c, 0, 80, 0
2, 616060, Note_on_c, 0, 83, 111
2, 616108, Note_on_c, 0, 68, 0
2, 616112, Note_on_c, 0, 74, 93
2, 616148, Note_on_c, 0, 74, 0
2, 616148, Note_on_c, 0, 83, 0
2, 616224, Note_on_c, 0, 83, 110
2, 616232, Note_on_c, 0, 76, 98
2, 616240, Note_on_c, 0, 64, 83
2, 616248, Note_on_c, 0, 60, 75
2, 616256, Control_c, 0, 64, 88
2, 616264, Control_c, 0, 64, 40
2, 616276, Control_c, 0, 64, 0
2, 616340, Note_on_c, 0, 76, 0
2, 616344, Note_on_c, 0, 77, 92
2, 616384, Control_c, 0, 64, 72
2, 616396, Control_c, 0, 64, 104
2, 616404, Control_c, 0, 64, 127
2, 616408, Note_on_c, 0, 77, 0
2, 616428, Note_on_c, 0, 76, 79
2, 616492, Note_on_c, 0, 76, 0
2, 616496, Note_on_c, 0, 75, 78
2, 616564, Note_on_c, 0, 75, 0
2, 616596, Note_on_c, 0, 76, 82
2, 616680, Note_on_c, 0, 80, 82
2, 616684, Note_on_c, 0, 76, 0
2, 616692, Note_on_c, 0, 83, 0
2, 616732, Note_on_c, 0, 80, 0
2, 616776, Note_on_c, 0, 81, 106
2, 616780, Note_on_c, 0, 76, 91
2, 616860, Note_on_c, 0, 81, 0
2, 616868, Note_on_c, 0, 83, 104
2, 616948, Note_on_c, 0, 83, 0
2, 616956, Note_on_c, 0, 81, 107
2, 617028, Note_on_c, 0, 81, 0
2, 617040, Note_on_c, 0, 80, 103
2, 617120, Note_on_c, 0, 80, 0
2, 617132, Note_on_c, 0, 81, 103
2, 617148, Note_on_c, 0, 60, 0
2, 617176, Note_on_c, 0, 64, 0
2, 617220, Note_on_c, 0, 81, 0
2, 617220, Note_on_c, 0, 84, 108
2, 617240, Note_on_c, 0, 76, 0
2, 617284, Note_on_c, 0, 84, 0
2, 617344, Note_on_c, 0, 84, 119
2, 617348, Note_on_c, 0, 77, 105
2, 617360, Note_on_c, 0, 62, 86
2, 617360, Note_on_c, 0, 65, 83
2, 617364, Control_c, 0, 64, 56
2, 617372, Control_c, 0, 64, 0
2, 617444, Control_c, 0, 64, 72
2, 617452, Note_on_c, 0, 67, 83
2, 617456, Note_on_c, 0, 65, 0
2, 617456, Control_c, 0, 64, 127
2, 617516, Note_on_c, 0, 67, 0
2, 617528, Note_on_c, 0, 65, 87
2, 617536, Note_on_c, 0, 62, 0
2, 617596, Note_on_c, 0, 65, 0
2, 617624, Note_on_c, 0, 64, 86
2, 617684, Note_on_c, 0, 66, 76
2, 617692, Note_on_c, 0, 64, 0
2, 617704, Note_on_c, 0, 65, 91
2, 617728, Note_on_c, 0, 66, 0
2, 617784, Note_on_c, 0, 65, 0
2, 617796, Note_on_c, 0, 69, 101
2, 617888, Note_on_c, 0, 69, 0
2, 617888, Note_on_c, 0, 84, 0
2, 617908, Note_on_c, 0, 82, 110
2, 617916, Note_on_c, 0, 70, 93
2, 617996, Note_on_c, 0, 70, 0
2, 618004, Note_on_c, 0, 72, 95
2, 618072, Note_on_c, 0, 72, 0
2, 618088, Note_on_c, 0, 70, 96
2, 618100, Note_on_c, 0, 77, 0
2, 618144, Note_on_c, 0, 82, 0
2, 618160, Note_on_c, 0, 70, 0
2, 618188, Note_on_c, 0, 69, 93
2, 618260, Note_on_c, 0, 70, 104
2, 618264, Note_on_c, 0, 69, 0
2, 618360, Note_on_c, 0, 86, 119
2, 618400, Note_on_c, 0, 70, 0
2, 618464, Note_on_c, 0, 74, 98
2, 618476, Note_on_c, 0, 86, 0
2, 618548, Note_on_c, 0, 74, 0
2, 618584, Note_on_c, 0, 86, 116
2, 618588, Note_on_c, 0, 74, 98
2, 618596, Note_on_c, 0, 64, 84
2, 618600, Note_on_c, 0, 67, 86
2, 618600, Note_on_c, 0, 70, 75
2, 618632, Control_c, 0, 64, 88
2, 618644, Control_c, 0, 64, 24
2, 618652, Control_c, 0, 64, 0
2, 618752, Note_on_c, 0, 94, 109
2, 618764, Control_c, 0, 64, 40
2, 618772, Control_c, 0, 64, 127
2, 618852, Note_on_c, 0, 94, 0
2, 618888, Note_on_c, 0, 86, 0
2, 618892, Note_on_c, 0, 91, 108
2, 618992, Note_on_c, 0, 91, 0
2, 619008, Note_on_c, 0, 88, 103
2, 619104, Note_on_c, 0, 88, 0
2, 619120, Note_on_c, 0, 84, 99
2, 619224, Note_on_c, 0, 84, 0
2, 619228, Note_on_c, 0, 85, 104
2, 619256, Note_on_c, 0, 74, 0
2, 619344, Note_on_c, 0, 85, 0
2, 619344, Note_on_c, 0, 88, 97
2, 619344, Note_on_c, 0, 72, 93
2, 619428, Control_c, 0, 64, 104
2, 619436, Control_c, 0, 64, 40
2, 619440, Note_on_c, 0, 88, 0
2, 619448, Note_on_c, 0, 86, 94
2, 619448, Control_c, 0, 64, 0
2, 619528, Control_c, 0, 64, 72
2, 619540, Control_c, 0, 64, 127
2, 619544, Note_on_c, 0, 84, 101
2, 619560, Note_on_c, 0, 86, 0
2, 619652, Note_on_c, 0, 82, 85
2, 619680, Note_on_c, 0, 84, 0
2, 619768, Note_on_c, 0, 82, 0
2, 619768, Note_on_c, 0, 81, 102
2, 619868, Note_on_c, 0, 64, 0
2, 619868, Note_on_c, 0, 80, 102
2, 619880, Note_on_c, 0, 81, 0
2, 619888, Note_on_c, 0, 67, 0
2, 619920, Note_on_c, 0, 72, 0
2, 619960, Note_on_c, 0, 69, 88
2, 619984, Note_on_c, 0, 70, 0
2, 619988, Note_on_c, 0, 80, 0
2, 620000, Note_on_c, 0, 82, 99
2, 620000, Note_on_c, 0, 72, 84
2, 620000, Note_on_c, 0, 65, 88
2, 620004, Note_on_c, 0, 69, 0
2, 620044, Control_c, 0, 64, 72
2, 620052, Control_c, 0, 64, 0
2, 620112, Note_on_c, 0, 81, 103
2, 620124, Control_c, 0, 64, 72
2, 620132, Control_c, 0, 64, 127
2, 620140, Note_on_c, 0, 82, 0
2, 620220, Note_on_c, 0, 79, 96
2, 620252, Note_on_c, 0, 81, 0
2, 620316, Note_on_c, 0, 79, 0
2, 620324, Note_on_c, 0, 77, 98
2, 620440, Note_on_c, 0, 76, 104
2, 620456, Note_on_c, 0, 77, 0
2, 620540, Note_on_c, 0, 76, 0
2, 620552, Note_on_c, 0, 74, 103
2, 620576, Note_on_c, 0, 72, 0
2, 620664, Note_on_c, 0, 74, 0
2, 620676, Note_on_c, 0, 79, 105
2, 620684, Control_c, 0, 64, 72
2, 620688, Note_on_c, 0, 72, 90
2, 620688, Note_on_c, 0, 70, 81
2, 620692, Note_on_c, 0, 65, 0
2, 620696, Control_c, 0, 64, 0
2, 620748, Control_c, 0, 64, 56
2, 620756, Control_c, 0, 64, 127
2, 620776, Note_on_c, 0, 70, 0
2, 620784, Note_on_c, 0, 79, 0
2, 620796, Note_on_c, 0, 77, 104
2, 620800, Note_on_c, 0, 69, 83
2, 620884, Note_on_c, 0, 72, 0
2, 620892, Note_on_c, 0, 69, 0
2, 620900, Note_on_c, 0, 77, 0
2, 620908, Note_on_c, 0, 76, 106
2, 620920, Note_on_c, 0, 67, 83
2, 621008, Note_on_c, 0, 67, 0
2, 621016, Note_on_c, 0, 76, 0
2, 621016, Note_on_c, 0, 74, 103
2, 621024, Note_on_c, 0, 65, 82
2, 621092, Note_on_c, 0, 65, 0
2, 621116, Note_on_c, 0, 64, 77
2, 621124, Note_on_c, 0, 74, 0
2, 621132, Note_on_c, 0, 72, 106
2, 621240, Note_on_c, 0, 70, 97
2, 621244, Note_on_c, 0, 64, 0
2, 621244, Note_on_c, 0, 62, 83
2, 621272, Note_on_c, 0, 62, 0
2, 621276, Note_on_c, 0, 72, 0
2, 621324, Note_on_c, 0, 70, 0
2, 621376, Note_on_c, 0, 70, 96
2, 621384, Note_on_c, 0, 60, 93
2, 621388, Note_on_c, 0, 53, 81
2, 621452, Control_c, 0, 64, 104
2, 621464, Control_c, 0, 64, 56
2, 621472, Control_c, 0, 64, 0
2, 621504, Note_on_c, 0, 69, 103
2, 621544, Note_on_c, 0, 70, 0
2, 621612, Note_on_c, 0, 67, 93
2, 621612, Control_c, 0, 64, 24
2, 621620, Control_c, 0, 64, 56
2, 621632, Control_c, 0, 64, 88
2, 621640, Control_c, 0, 64, 104
2, 621652, Control_c, 0, 64, 127
2, 621692, Note_on_c, 0, 69, 0
2, 621708, Note_on_c, 0, 67, 0
2, 621708, Note_on_c, 0, 65, 91
2, 621820, Note_on_c, 0, 65, 0
2, 621820, Note_on_c, 0, 64, 101
2, 621904, Note_on_c, 0, 64, 0
2, 621908, Note_on_c, 0, 60, 0
2, 621932, Note_on_c, 0, 62, 95
2, 622040, Note_on_c, 0, 62, 0
2, 622060, Note_on_c, 0, 67, 100
2, 622064, Note_on_c, 0, 58, 88
2, 622072, Note_on_c, 0, 60, 83
2, 622084, Control_c, 0, 64, 88
2, 622096, Control_c, 0, 64, 0
2, 622156, Control_c, 0, 64, 24
2, 622164, Note_on_c, 0, 53, 0
2, 622168, Note_on_c, 0, 58, 0
2, 622168, Control_c, 0, 64, 88
2, 622176, Note_on_c, 0, 65, 95
2, 622176, Control_c, 0, 64, 127
2, 622180, Note_on_c, 0, 57, 79
2, 622200, Note_on_c, 0, 67, 0
2, 622272, Note_on_c, 0, 57, 0
2, 622276, Note_on_c, 0, 65, 0
2, 622280, Note_on_c, 0, 60, 0
2, 622284, Note_on_c, 0, 64, 97
2, 622300, Note_on_c, 0, 55, 83
2, 622392, Note_on_c, 0, 64, 0
2, 622396, Note_on_c, 0, 55, 0
2, 622404, Note_on_c, 0, 62, 97
2, 622416, Note_on_c, 0, 53, 83
2, 622488, Note_on_c, 0, 53, 0
2, 622508, Note_on_c, 0, 62, 0
2, 622520, Note_on_c, 0, 52, 66
2, 622520, Note_on_c, 0, 60, 99
2, 622612, Note_on_c, 0, 52, 0
2, 622620, Note_on_c, 0, 60, 0
2, 622640, Note_on_c, 0, 50, 78
2, 622648, Note_on_c, 0, 58, 88
2, 622680, Note_on_c, 0, 50, 0
2, 622784, Note_on_c, 0, 58, 0
2, 622784, Note_on_c, 0, 57, 99
2, 622784, Note_on_c, 0, 48, 73
2, 622784, Note_on_c, 0, 41, 76
2, 622820, Control_c, 0, 64, 104
2, 622832, Control_c, 0, 64, 40
2, 622840, Control_c, 0, 64, 0
2, 622904, Note_on_c, 0, 58, 83
2, 622908, Note_on_c, 0, 57, 0
2, 622948, Control_c, 0, 64, 24
2, 622960, Control_c, 0, 64, 40
2, 622980, Control_c, 0, 64, 56
2, 622988, Control_c, 0, 64, 72
2, 623012, Control_c, 0, 64, 88
2, 623016, Note_on_c, 0, 57, 90
2, 623032, Note_on_c, 0, 58, 0
2, 623032, Control_c, 0, 64, 104
2, 623060, Control_c, 0, 64, 127
2, 623124, Note_on_c, 0, 57, 0
2, 623128, Note_on_c, 0, 56, 84
2, 623224, Note_on_c, 0, 56, 0
2, 623244, Note_on_c, 0, 57, 93
2, 623356, Note_on_c, 0, 57, 0
2, 623360, Note_on_c, 0, 59, 92
2, 623468, Note_on_c, 0, 59, 0
2, 623496, Note_on_c, 0, 60, 96
2, 623608, Note_on_c, 0, 60, 0
2, 623608, Note_on_c, 0, 62, 83
2, 623628, Control_c, 0, 64, 88
2, 623636, Control_c, 0, 64, 24
2, 623648, Control_c, 0, 64, 0
2, 623696, Control_c, 0, 64, 24
2, 623708, Control_c, 0, 64, 72
2, 623716, Control_c, 0, 64, 127
2, 623736, Note_on_c, 0, 62, 0
2, 623740, Note_on_c, 0, 60, 94
2, 623852, Note_on_c, 0, 60, 0
2, 623868, Note_on_c, 0, 59, 97
2, 623944, Note_on_c, 0, 48, 0
2, 623988, Note_on_c, 0, 41, 0
2, 623996, Note_on_c, 0, 59, 0
2, 624004, Note_on_c, 0, 60, 100
2, 624104, Note_on_c, 0, 60, 0
2, 624116, Note_on_c, 0, 62, 94
2, 624232, Control_c, 0, 64, 104
2, 624236, Note_on_c, 0, 62, 0
2, 624240, Control_c, 0, 64, 40
2, 624252, Control_c, 0, 64, 0
2, 624264, Note_on_c, 0, 63, 91
2, 624276, Note_on_c, 0, 29, 85
2, 624276, Note_on_c, 0, 41, 84
2, 624300, Control_c, 0, 64, 24
2, 624308, Control_c, 0, 64, 88
2, 624320, Note_on_c, 0, 29, 0
2, 624320, Control_c, 0, 64, 127
2, 624336, Note_on_c, 0, 41, 0
2, 624396, Note_on_c, 0, 63, 0
2, 624416, Note_on_c, 0, 64, 88
2, 624504, Note_on_c, 0, 56, 96
2, 624544, Note_on_c, 0, 64, 0
2, 624572, Note_on_c, 0, 63, 88
2, 624636, Note_on_c, 0, 56, 0
2, 624692, Note_on_c, 0, 63, 0
2, 624696, Note_on_c, 0, 64, 89
2, 624696, Note_on_c, 0, 57, 99
2, 624704, Control_c, 0, 64, 88
2, 624712, Control_c, 0, 64, 40
2, 624724, Control_c, 0, 64, 0
2, 624752, Control_c, 0, 64, 56
2, 624764, Control_c, 0, 64, 104
2, 624772, Control_c, 0, 64, 127
2, 624840, Note_on_c, 0, 65, 87
2, 624856, Note_on_c, 0, 64, 0
2, 624880, Note_on_c, 0, 57, 0
2, 624892, Note_on_c, 0, 59, 101
2, 624964, Note_on_c, 0, 65, 0
2, 624976, Note_on_c, 0, 68, 88
2, 625084, Note_on_c, 0, 68, 0
2, 625112, Note_on_c, 0, 69, 88
2, 625124, Note_on_c, 0, 59, 0
2, 625136, Note_on_c, 0, 62, 104
2, 625148, Control_c, 0, 64, 104
2, 625156, Control_c, 0, 64, 40
2, 625168, Control_c, 0, 64, 0
2, 625216, Control_c, 0, 64, 40
2, 625228, Control_c, 0, 64, 104
2, 625236, Note_on_c, 0, 69, 0
2, 625236, Control_c, 0, 64, 127
2, 625248, Note_on_c, 0, 71, 90
2, 625324, Note_on_c, 0, 62, 0
2, 625340, Note_on_c, 0, 60, 103
2, 625396, Note_on_c, 0, 71, 0
2, 625408, Note_on_c, 0, 69, 88
2, 625552, Note_on_c, 0, 69, 0
2, 625552, Note_on_c, 0, 60, 0
2, 625560, Note_on_c, 0, 68, 86
2, 625564, Note_on_c, 0, 59, 101
2, 625580, Control_c, 0, 64, 104
2, 625592, Control_c, 0, 64, 56
2, 625600, Control_c, 0, 64, 0
2, 625652, Control_c, 0, 64, 40
2, 625660, Control_c, 0, 64, 88
2, 625668, Control_c, 0, 64, 127
2, 625688, Note_on_c, 0, 68, 0
2, 625704, Note_on_c, 0, 69, 87
2, 625796, Note_on_c, 0, 57, 98
2, 625800, Note_on_c, 0, 59, 0
2, 625876, Note_on_c, 0, 75, 89
2, 625896, Note_on_c, 0, 69, 0
2, 626028, Note_on_c, 0, 57, 0
2, 626068, Note_on_c, 0, 75, 0
2, 626088, Note_on_c, 0, 76, 80
2, 626088, Note_on_c, 0, 56, 94
2, 626088, Note_on_c, 0, 52, 88
2, 626184, Note_on_c, 0, 76, 0
2, 626192, Note_on_c, 0, 77, 84
2, 626264, Note_on_c, 0, 77, 0
2, 626268, Note_on_c, 0, 76, 79
2, 626336, Note_on_c, 0, 76, 0
2, 626340, Note_on_c, 0, 77, 80
2, 626404, Note_on_c, 0, 76, 73
2, 626408, Note_on_c, 0, 77, 0
2, 626424, Control_c, 0, 64, 24
2, 626436, Control_c, 0, 64, 56
2, 626448, Control_c, 0, 64, 72
2, 626460, Control_c, 0, 64, 88
2, 626472, Note_on_c, 0, 76, 0
2, 626472, Note_on_c, 0, 77, 73
2, 626476, Control_c, 0, 64, 104
2, 626536, Note_on_c, 0, 76, 72
2, 626540, Note_on_c, 0, 77, 0
2, 626560, Control_c, 0, 64, 72
2, 626572, Control_c, 0, 64, 56
2, 626584, Control_c, 0, 64, 40
2, 626596, Note_on_c, 0, 76, 0
2, 626600, Note_on_c, 0, 77, 69
2, 626636, Control_c, 0, 64, 24
2, 626648, Control_c, 0, 64, 0
2, 626660, Note_on_c, 0, 77, 0
2, 626660, Note_on_c, 0, 76, 75
2, 626720, Note_on_c, 0, 76, 0
2, 626732, Note_on_c, 0, 52, 0
2, 626732, Note_on_c, 0, 56, 0
2, 626732, Note_on_c, 0, 77, 70
2, 626788, Note_on_c, 0, 77, 0
2, 626788, Note_on_c, 0, 76, 76
2, 626852, Note_on_c, 0, 76, 0
2, 626856, Note_on_c, 0, 77, 70
2, 626912, Note_on_c, 0, 77, 0
2, 626912, Note_on_c, 0, 76, 74
2, 626972, Note_on_c, 0, 76, 0
2, 626976, Note_on_c, 0, 77, 68
2, 627036, Note_on_c, 0, 77, 0
2, 627036, Note_on_c, 0, 76, 73
2, 627096, Note_on_c, 0, 76, 0
2, 627104, Note_on_c, 0, 77, 71
2, 627160, Note_on_c, 0, 77, 0
2, 627160, Note_on_c, 0, 76, 73
2, 627224, Note_on_c, 0, 76, 0
2, 627224, Note_on_c, 0, 77, 73
2, 627288, Note_on_c, 0, 77, 0
2, 627292, Note_on_c, 0, 76, 74
2, 627352, Note_on_c, 0, 76, 0
2, 627356, Note_on_c, 0, 77, 72
2, 627412, Note_on_c, 0, 77, 0
2, 627416, Note_on_c, 0, 76, 73
2, 627472, Note_on_c, 0, 76, 0
2, 627480, Note_on_c, 0, 77, 72
2, 627536, Note_on_c, 0, 77, 0
2, 627540, Note_on_c, 0, 76, 69
2, 627540, Note_on_c, 0, 64, 68
2, 627588, Note_on_c, 0, 64, 0
2, 627592, Note_on_c, 0, 76, 0
2, 627600, Note_on_c, 0, 77, 70
2, 627600, Note_on_c, 0, 65, 71
2, 627636, Note_on_c, 0, 65, 0
2, 627672, Note_on_c, 0, 77, 0
2, 627676, Note_on_c, 0, 76, 72
2, 627676, Note_on_c, 0, 64, 77
2, 627740, Note_on_c, 0, 64, 0
2, 627744, Note_on_c, 0, 76, 0
2, 627748, Note_on_c, 0, 77, 80
2, 627748, Note_on_c, 0, 65, 75
2, 627796, Note_on_c, 0, 65, 0
2, 627812, Note_on_c, 0, 76, 73
2, 627812, Note_on_c, 0, 64, 66
2, 627816, Note_on_c, 0, 77, 0
2, 627832, Control_c, 0, 64, 24
2, 627844, Control_c, 0, 64, 56
2, 627856, Control_c, 0, 64, 72
2, 627864, Note_on_c, 0, 65, 63
2, 627868, Control_c, 0, 64, 88
2, 627876, Note_on_c, 0, 64, 0
2, 627880, Note_on_c, 0, 76, 0
2, 627880, Note_on_c, 0, 77, 73
2, 627884, Control_c, 0, 64, 104
2, 627916, Note_on_c, 0, 65, 0
2, 627936, Note_on_c, 0, 64, 69
2, 627944, Note_on_c, 0, 76, 72
2, 627948, Note_on_c, 0, 77, 0
2, 627968, Control_c, 0, 64, 72
2, 627980, Control_c, 0, 64, 56
2, 627992, Note_on_c, 0, 64, 0
2, 627992, Control_c, 0, 64, 40
2, 628004, Note_on_c, 0, 76, 0
2, 628008, Note_on_c, 0, 77, 69
2, 628008, Note_on_c, 0, 65, 69
2, 628044, Control_c, 0, 64, 24
2, 628056, Control_c, 0, 64, 0
2, 628068, Note_on_c, 0, 65, 0
2, 628068, Note_on_c, 0, 77, 0
2, 628068, Note_on_c, 0, 76, 75
2, 628076, Note_on_c, 0, 64, 75
2, 628128, Note_on_c, 0, 76, 0
2, 628140, Note_on_c, 0, 64, 0
2, 628140, Note_on_c, 0, 77, 70
2, 628152, Note_on_c, 0, 65, 66
2, 628196, Note_on_c, 0, 77, 0
2, 628196, Note_on_c, 0, 76, 76
2, 628212, Note_on_c, 0, 64, 67
2, 628216, Note_on_c, 0, 65, 0
2, 628260, Note_on_c, 0, 76, 0
2, 628264, Note_on_c, 0, 77, 70
2, 628280, Note_on_c, 0, 64, 0
2, 628288, Note_on_c, 0, 65, 66
2, 628320, Note_on_c, 0, 77, 0
2, 628320, Note_on_c, 0, 76, 74
2, 628348, Note_on_c, 0, 64, 67
2, 628352, Note_on_c, 0, 65, 0
2, 628380, Note_on_c, 0, 76, 0
2, 628384, Note_on_c, 0, 77, 68
2, 628416, Note_on_c, 0, 64, 0
2, 628420, Note_on_c, 0, 65, 67
2, 628444, Note_on_c, 0, 77, 0
2, 628444, Note_on_c, 0, 76, 73
2, 628480, Note_on_c, 0, 64, 67
2, 628484, Note_on_c, 0, 65, 0
2, 628504, Note_on_c, 0, 76, 0
2, 628512, Note_on_c, 0, 77, 71
2, 628552, Note_on_c, 0, 64, 0
2, 628556, Note_on_c, 0, 65, 67
2, 628568, Note_on_c, 0, 77, 0
2, 628568, Note_on_c, 0, 76, 73
2, 628616, Note_on_c, 0, 64, 68
2, 628620, Note_on_c, 0, 65, 0
2, 628632, Note_on_c, 0, 76, 0
2, 628632, Note_on_c, 0, 77, 73
2, 628688, Note_on_c, 0, 64, 0
2, 628692, Note_on_c, 0, 65, 59
2, 628696, Note_on_c, 0, 77, 0
2, 628700, Note_on_c, 0, 76, 74
2, 628760, Note_on_c, 0, 76, 0
2, 628760, Note_on_c, 0, 65, 0
2, 628760, Note_on_c, 0, 64, 68
2, 628764, Note_on_c, 0, 77, 72
2, 628820, Note_on_c, 0, 77, 0
2, 628824, Note_on_c, 0, 76, 73
2, 628828, Note_on_c, 0, 64, 0
2, 628840, Note_on_c, 0, 65, 62
2, 628880, Note_on_c, 0, 76, 0
2, 628888, Note_on_c, 0, 77, 72
2, 628896, Note_on_c, 0, 64, 71
2, 628900, Note_on_c, 0, 65, 0
2, 628944, Note_on_c, 0, 77, 0
2, 628948, Note_on_c, 0, 76, 69
2, 628968, Note_on_c, 0, 64, 0
2, 628980, Note_on_c, 0, 65, 65
2, 629000, Note_on_c, 0, 76, 0
2, 629008, Note_on_c, 0, 77, 71
2, 629040, Note_on_c, 0, 65, 0
2, 629040, Note_on_c, 0, 64, 68
2, 629064, Note_on_c, 0, 77, 0
2, 629064, Note_on_c, 0, 76, 69
2, 629088, Note_on_c, 0, 72, 106
2, 629088, Note_on_c, 0, 64, 93
2, 629088, Note_on_c, 0, 69, 89
2, 629088, Note_on_c, 0, 60, 95
2, 629088, Note_on_c, 0, 45, 87
2, 629088, Note_on_c, 0, 57, 84
2, 629096, Control_c, 0, 64, 40
2, 629108, Note_on_c, 0, 64, 0
2, 629112, Control_c, 0, 64, 104
2, 629120, Note_on_c, 0, 76, 0
2, 629124, Note_on_c, 0, 77, 71
2, 629128, Note_on_c, 0, 65, 64
2, 629128, Control_c, 0, 64, 127
2, 629144, Note_on_c, 0, 69, 0
2, 629144, Note_on_c, 0, 45, 0
2, 629148, Note_on_c, 0, 60, 0
2, 629152, Note_on_c, 0, 64, 0
2, 629160, Note_on_c, 0, 57, 0
2, 629176, Note_on_c, 0, 72, 0
2, 629180, Note_on_c, 0, 77, 0
2, 629188, Note_on_c, 0, 65, 0
2, 629188, Note_on_c, 0, 76, 76
2, 629188, Note_on_c, 0, 64, 72
2, 629236, Note_on_c, 0, 76, 0
2, 629244, Note_on_c, 0, 77, 66
2, 629252, Note_on_c, 0, 64, 0
2, 629256, Note_on_c, 0, 65, 68
2, 629296, Note_on_c, 0, 76, 77
2, 629300, Note_on_c, 0, 77, 0
2, 629320, Note_on_c, 0, 65, 0
2, 629320, Note_on_c, 0, 64, 73
2, 629352, Note_on_c, 0, 76, 0
2, 629364, Note_on_c, 0, 77, 73
2, 629384, Note_on_c, 0, 64, 0
2, 629392, Note_on_c, 0, 65, 68
2, 629424, Note_on_c, 0, 77, 0
2, 629424, Note_on_c, 0, 76, 75
2, 629444, Note_on_c, 0, 71, 88
2, 629444, Note_on_c, 0, 52, 82
2, 629444, Note_on_c, 0, 59, 83
2, 629444, Note_on_c, 0, 64, 84
2, 629452, Note_on_c, 0, 65, 0
2, 629452, Note_on_c, 0, 64, 67
2, 629464, Control_c, 0, 64, 88
2, 629468, Note_on_c, 0, 59, 0
2, 629468, Note_on_c, 0, 52, 0
2, 629472, Control_c, 0, 64, 40
2, 629476, Note_on_c, 0, 76, 0
2, 629480, Note_on_c, 0, 64, 0
2, 629488, Note_on_c, 0, 77, 72
2, 629488, Control_c, 0, 64, 0
2, 629500, Note_on_c, 0, 71, 0
2, 629520, Note_on_c, 0, 64, 0
2, 629524, Note_on_c, 0, 65, 70
2, 629540, Note_on_c, 0, 77, 0
2, 629544, Note_on_c, 0, 76, 73
2, 629588, Note_on_c, 0, 65, 0
2, 629588, Note_on_c, 0, 64, 67
2, 629596, Note_on_c, 0, 76, 0
2, 629600, Note_on_c, 0, 77, 70
2, 629652, Note_on_c, 0, 77, 0
2, 629652, Note_on_c, 0, 64, 0
2, 629656, Note_on_c, 0, 65, 63
2, 629664, Note_on_c, 0, 76, 74
2, 629704, Note_on_c, 0, 69, 84
2, 629704, Note_on_c, 0, 57, 83
2, 629704, Note_on_c, 0, 60, 76
2, 629704, Note_on_c, 0, 48, 78
2, 629720, Note_on_c, 0, 76, 0
2, 629724, Note_on_c, 0, 65, 0
2, 629724, Note_on_c, 0, 64, 68
2, 629728, Note_on_c, 0, 77, 70
2, 629740, Note_on_c, 0, 57, 0
2, 629740, Note_on_c, 0, 69, 0
2, 629748, Note_on_c, 0, 48, 0
2, 629756, Note_on_c, 0, 60, 0
2, 629784, Note_on_c, 0, 64, 0
2, 629788, Note_on_c, 0, 77, 0
2, 629792, Note_on_c, 0, 76, 77
2, 629792, Note_on_c, 0, 65, 65
2, 629796, Note_on_c, 0, 60, 88
2, 629796, Note_on_c, 0, 69, 93
2, 629796, Note_on_c, 0, 57, 82
2, 629796, Note_on_c, 0, 48, 76
2, 629840, Note_on_c, 0, 57, 0
2, 629844, Note_on_c, 0, 76, 0
2, 629848, Note_on_c, 0, 60, 0
2, 629848, Note_on_c, 0, 64, 68
2, 629852, Note_on_c, 0, 65, 0
2, 629856, Note_on_c, 0, 69, 0
2, 629856, Note_on_c, 0, 77, 75
2, 629864, Note_on_c, 0, 48, 0
2, 629912, Note_on_c, 0, 77, 0
2, 629912, Note_on_c, 0, 64, 0
2, 629920, Note_on_c, 0, 65, 63
2, 629924, Note_on_c, 0, 76, 75
2, 629976, Note_on_c, 0, 76, 0
2, 629980, Note_on_c, 0, 65, 0
2, 629984, Note_on_c, 0, 64, 62
2, 629988, Note_on_c, 0, 77, 73
2, 630040, Note_on_c, 0, 77, 0
2, 630048, Note_on_c, 0, 64, 0
2, 630048, Note_on_c, 0, 76, 76
2, 630056, Note_on_c, 0, 65, 63
2, 630100, Note_on_c, 0, 76, 0
2, 630112, Note_on_c, 0, 77, 73
2, 630120, Note_on_c, 0, 65, 0
2, 630124, Note_on_c, 0, 64, 68
2, 630140, Note_on_c, 0, 71, 85
2, 630140, Note_on_c, 0, 52, 84
2, 630140, Note_on_c, 0, 64, 78
2, 630140, Note_on_c, 0, 59, 75
2, 630164, Note_on_c, 0, 77, 0
2, 630168, Note_on_c, 0, 76, 78
2, 630188, Note_on_c, 0, 64, 0
2, 630196, Note_on_c, 0, 52, 0
2, 630196, Note_on_c, 0, 65, 64
2, 630200, Note_on_c, 0, 64, 0
2, 630200, Note_on_c, 0, 59, 0
2, 630208, Note_on_c, 0, 71, 0
2, 630224, Note_on_c, 0, 76, 0
2, 630236, Note_on_c, 0, 77, 75
2, 630260, Note_on_c, 0, 65, 0
2, 630272, Note_on_c, 0, 64, 70
2, 630292, Note_on_c, 0, 77, 0
2, 630296, Note_on_c, 0, 76, 78
2, 630328, Note_on_c, 0, 64, 0
2, 630336, Note_on_c, 0, 65, 65
2, 630352, Note_on_c, 0, 76, 0
2, 630360, Note_on_c, 0, 77, 75
2, 630400, Note_on_c, 0, 65, 0
2, 630400, Note_on_c, 0, 64, 70
2, 630416, Note_on_c, 0, 77, 0
2, 630416, Note_on_c, 0, 76, 78
2, 630464, Note_on_c, 0, 64, 0
2, 630468, Note_on_c, 0, 65, 66
2, 630472, Note_on_c, 0, 76, 0
2, 630476, Note_on_c, 0, 77, 75
2, 630508, Note_on_c, 0, 72, 103
2, 630512, Note_on_c, 0, 64, 92
2, 630512, Note_on_c, 0, 60, 94
2, 630516, Note_on_c, 0, 69, 88
2, 630516, Note_on_c, 0, 57, 80
2, 630520, Note_on_c, 0, 45, 82
2, 630520, Control_c, 0, 64, 56
2, 630532, Note_on_c, 0, 65, 0
2, 630532, Note_on_c, 0, 64, 63
2, 630536, Note_on_c, 0, 77, 0
2, 630536, Note_on_c, 0, 76, 79
2, 630536, Control_c, 0, 64, 127
2, 630576, Note_on_c, 0, 45, 0
2, 630592, Note_on_c, 0, 64, 0
2, 630592, Note_on_c, 0, 64, 0
2, 630596, Note_on_c, 0, 76, 0
2, 630604, Note_on_c, 0, 65, 68
2, 630604, Note_on_c, 0, 77, 76
2, 630616, Note_on_c, 0, 57, 0
2, 630620, Note_on_c, 0, 72, 0
2, 630628, Note_on_c, 0, 60, 0
2, 630644, Note_on_c, 0, 69, 0
2, 630664, Note_on_c, 0, 65, 0
2, 630664, Note_on_c, 0, 77, 0
2, 630664, Note_on_c, 0, 76, 79
2, 630668, Note_on_c, 0, 64, 67
2, 630720, Note_on_c, 0, 76, 0
2, 630728, Note_on_c, 0, 64, 0
2, 630728, Note_on_c, 0, 77, 73
2, 630736, Note_on_c, 0, 65, 66
2, 630784, Note_on_c, 0, 77, 0
2, 630784, Note_on_c, 0, 76, 79
2, 630804, Note_on_c, 0, 65, 0
2, 630808, Note_on_c, 0, 64, 67
2, 630836, Note_on_c, 0, 76, 0
2, 630844, Note_on_c, 0, 77, 73
2, 630864, Note_on_c, 0, 71, 88
2, 630864, Note_on_c, 0, 52, 83
2, 630868, Note_on_c, 0, 64, 83
2, 630872, Note_on_c, 0, 59, 68
2, 630876, Note_on_c, 0, 64, 0
2, 630880, Control_c, 0, 64, 56
2, 630888, Note_on_c, 0, 65, 71
2, 630896, Note_on_c, 0, 52, 0
2, 630896, Control_c, 0, 64, 0
2, 630900, Note_on_c, 0, 77, 0
2, 630904, Note_on_c, 0, 59, 0
2, 630904, Note_on_c, 0, 76, 79
2, 630908, Note_on_c, 0, 64, 0
2, 630932, Note_on_c, 0, 71, 0
2, 630952, Note_on_c, 0, 65, 0
2, 630952, Note_on_c, 0, 76, 0
2, 630960, Note_on_c, 0, 64, 74
2, 630964, Note_on_c, 0, 77, 73
2, 631024, Note_on_c, 0, 77, 0
2, 631024, Note_on_c, 0, 76, 79
2, 631028, Note_on_c, 0, 64, 0
2, 631036, Note_on_c, 0, 65, 73
2, 631076, Note_on_c, 0, 76, 0
2, 631084, Note_on_c, 0, 77, 76
2, 631096, Note_on_c, 0, 57, 78
2, 631100, Note_on_c, 0, 65, 0
2, 631104, Note_on_c, 0, 69, 88
2, 631104, Note_on_c, 0, 60, 78
2, 631108, Note_on_c, 0, 48, 74
2, 631112, Note_on_c, 0, 64, 79
2, 631128, Note_on_c, 0, 69, 0
2, 631132, Note_on_c, 0, 48, 0
2, 631136, Note_on_c, 0, 60, 0
2, 631140, Note_on_c, 0, 57, 0
2, 631148, Note_on_c, 0, 77, 0
2, 631152, Note_on_c, 0, 76, 79
2, 631172, Note_on_c, 0, 64, 0
2, 631180, Note_on_c, 0, 60, 88
2, 631184, Note_on_c, 0, 69, 96
2, 631184, Note_on_c, 0, 65, 78
2, 631192, Note_on_c, 0, 57, 78
2, 631204, Note_on_c, 0, 76, 0
2, 631204, Note_on_c, 0, 48, 75
2, 631212, Note_on_c, 0, 77, 79
2, 631228, Note_on_c, 0, 60, 0
2, 631232, Note_on_c, 0, 48, 0
2, 631240, Note_on_c, 0, 64, 66
2, 631252, Note_on_c, 0, 57, 0
2, 631256, Note_on_c, 0, 69, 0
2, 631272, Note_on_c, 0, 77, 0
2, 631284, Note_on_c, 0, 76, 78
2, 631288, Note_on_c, 0, 65, 0
2, 631300, Note_on_c, 0, 64, 0
2, 631324, Note_on_c, 0, 76, 0
2, 631332, Note_on_c, 0, 77, 74
2, 631400, Note_on_c, 0, 76, 75
2, 631432, Note_on_c, 0, 77, 0
2, 631456, Note_on_c, 0, 76, 0
2, 631544, Note_on_c, 0, 79, 115
2, 631548, Note_on_c, 0, 67, 103
2, 631552, Note_on_c, 0, 74, 103
2, 631560, Note_on_c, 0, 47, 88
2, 631568, Note_on_c, 0, 59, 82
2, 631576, Note_on_c, 0, 47, 83
2, 631596, Control_c, 0, 64, 56
2, 631600, Note_on_c, 0, 35, 69
2, 631608, Control_c, 0, 64, 127
2, 631656, Note_on_c, 0, 55, 82
2, 631712, Note_on_c, 0, 55, 0
2, 631724, Note_on_c, 0, 62, 67
2, 631752, Note_on_c, 0, 67, 63
2, 631796, Note_on_c, 0, 62, 0
2, 631800, Note_on_c, 0, 55, 79
2, 631808, Note_on_c, 0, 67, 0
2, 631840, Note_on_c, 0, 55, 0
2, 631916, Note_on_c, 0, 47, 0
2, 631944, Note_on_c, 0, 59, 0
2, 631956, Note_on_c, 0, 79, 0
2, 631956, Note_on_c, 0, 55, 79
2, 631960, Note_on_c, 0, 74, 0
2, 631968, Note_on_c, 0, 67, 0
2, 632008, Note_on_c, 0, 55, 0
2, 632032, Note_on_c, 0, 67, 71
2, 632032, Note_on_c, 0, 62, 56
2, 632072, Note_on_c, 0, 35, 0
2, 632092, Note_on_c, 0, 62, 0
2, 632096, Note_on_c, 0, 47, 0
2, 632104, Note_on_c, 0, 67, 0
2, 632104, Note_on_c, 0, 55, 73
2, 632156, Note_on_c, 0, 55, 0
2, 632188, Note_on_c, 0, 48, 93
2, 632196, Note_on_c, 0, 36, 83
2, 632216, Note_on_c, 0, 76, 97
2, 632224, Note_on_c, 0, 67, 84
2, 632228, Note_on_c, 0, 72, 88
2, 632232, Note_on_c, 0, 60, 86
2, 632232, Note_on_c, 0, 48, 86
2, 632240, Control_c, 0, 64, 88
2, 632252, Control_c, 0, 64, 56
2, 632260, Note_on_c, 0, 72, 0
2, 632264, Control_c, 0, 64, 24
2, 632268, Note_on_c, 0, 48, 0
2, 632268, Note_on_c, 0, 48, 0
2, 632276, Note_on_c, 0, 67, 0
2, 632276, Note_on_c, 0, 60, 0
2, 632280, Control_c, 0, 64, 0
2, 632288, Note_on_c, 0, 76, 0
2, 632308, Note_on_c, 0, 55, 68
2, 632344, Note_on_c, 0, 55, 0
2, 632364, Note_on_c, 0, 60, 58
2, 632364, Note_on_c, 0, 64, 72
2, 632400, Note_on_c, 0, 60, 0
2, 632408, Note_on_c, 0, 64, 0
2, 632416, Note_on_c, 0, 55, 63
2, 632452, Note_on_c, 0, 36, 0
2, 632472, Note_on_c, 0, 55, 0
2, 632520, Note_on_c, 0, 38, 86
2, 632548, Note_on_c, 0, 74, 94
2, 632552, Note_on_c, 0, 71, 84
2, 632556, Note_on_c, 0, 65, 81
2, 632560, Note_on_c, 0, 62, 81
2, 632564, Note_on_c, 0, 50, 82
2, 632584, Note_on_c, 0, 53, 59
2, 632592, Note_on_c, 0, 50, 0
2, 632596, Note_on_c, 0, 62, 0
2, 632600, Note_on_c, 0, 65, 0
2, 632608, Note_on_c, 0, 71, 0
2, 632608, Note_on_c, 0, 74, 0
2, 632620, Note_on_c, 0, 53, 0
2, 632668, Note_on_c, 0, 62, 52
2, 632716, Note_on_c, 0, 53, 73
2, 632724, Note_on_c, 0, 62, 0
2, 632780, Note_on_c, 0, 53, 0
2, 632848, Note_on_c, 0, 38, 0
2, 632852, Note_on_c, 0, 40, 78
2, 632904, Note_on_c, 0, 71, 90
2, 632904, Note_on_c, 0, 59, 78
2, 632904, Note_on_c, 0, 64, 78
2, 632904, Note_on_c, 0, 68, 76
2, 632904, Note_on_c, 0, 52, 77
2, 632952, Note_on_c, 0, 52, 49
2, 632984, Note_on_c, 0, 52, 0
2, 633000, Note_on_c, 0, 59, 61
2, 633004, Note_on_c, 0, 64, 0
2, 633004, Note_on_c, 0, 59, 0
2, 633004, Note_on_c, 0, 68, 0
2, 633008, Note_on_c, 0, 52, 0
2, 633028, Note_on_c, 0, 71, 0
2, 633072, Note_on_c, 0, 59, 0
2, 633084, Note_on_c, 0, 52, 73
2, 633132, Note_on_c, 0, 52, 0
2, 633224, Note_on_c, 0, 48, 86
2, 633232, Note_on_c, 0, 36, 73
2, 633236, Note_on_c, 0, 40, 0
2, 633256, Note_on_c, 0, 76, 108
2, 633260, Note_on_c, 0, 64, 98
2, 633264, Note_on_c, 0, 67, 96
2, 633264, Note_on_c, 0, 72, 98
2, 633272, Note_on_c, 0, 60, 88
2, 633280, Note_on_c, 0, 48, 93
2, 633284, Control_c, 0, 64, 72
2, 633300, Control_c, 0, 64, 127
2, 633308, Note_on_c, 0, 55, 79
2, 633368, Note_on_c, 0, 55, 0
2, 633384, Note_on_c, 0, 60, 58
2, 633396, Note_on_c, 0, 64, 69
2, 633448, Note_on_c, 0, 60, 0
2, 633456, Note_on_c, 0, 55, 78
2, 633460, Note_on_c, 0, 64, 0
2, 633468, Note_on_c, 0, 60, 0
2, 633480, Note_on_c, 0, 67, 0
2, 633512, Note_on_c, 0, 48, 0
2, 633520, Note_on_c, 0, 55, 0
2, 633520, Note_on_c, 0, 48, 0
2, 633528, Note_on_c, 0, 76, 0
2, 633584, Note_on_c, 0, 72, 0
2, 633584, Note_on_c, 0, 64, 0
2, 633584, Note_on_c, 0, 48, 73
2, 633632, Note_on_c, 0, 74, 93
2, 633632, Note_on_c, 0, 55, 76
2, 633636, Note_on_c, 0, 62, 69
2, 633640, Note_on_c, 0, 67, 78
2, 633660, Control_c, 0, 64, 88
2, 633668, Note_on_c, 0, 62, 0
2, 633668, Note_on_c, 0, 55, 0
2, 633672, Note_on_c, 0, 67, 0
2, 633672, Note_on_c, 0, 55, 73
2, 633676, Control_c, 0, 64, 40
2, 633688, Control_c, 0, 64, 0
2, 633700, Note_on_c, 0, 74, 0
2, 633704, Note_on_c, 0, 55, 0
2, 633744, Note_on_c, 0, 65, 60
2, 633788, Note_on_c, 0, 65, 0
2, 633800, Note_on_c, 0, 55, 78
2, 633828, Note_on_c, 0, 48, 0
2, 633856, Note_on_c, 0, 55, 0
2, 633872, Note_on_c, 0, 72, 92
2, 633880, Note_on_c, 0, 64, 72
2, 633880, Note_on_c, 0, 52, 74
2, 633888, Note_on_c, 0, 60, 69
2, 633900, Note_on_c, 0, 72, 0
2, 633908, Note_on_c, 0, 64, 0
2, 633912, Note_on_c, 0, 52, 0
2, 633916, Note_on_c, 0, 60, 0
2, 633928, Note_on_c, 0, 48, 83
2, 633960, Note_on_c, 0, 72, 98
2, 633960, Note_on_c, 0, 64, 81
2, 633968, Note_on_c, 0, 52, 80
2, 633976, Note_on_c, 0, 60, 64
2, 634008, Note_on_c, 0, 60, 0
2, 634008, Note_on_c, 0, 52, 0
2, 634016, Note_on_c, 0, 64, 0
2, 634032, Note_on_c, 0, 72, 0
2, 634032, Note_on_c, 0, 55, 83
2, 634100, Note_on_c, 0, 55, 0
2, 634100, Note_on_c, 0, 64, 67
2, 634112, Note_on_c, 0, 60, 64
2, 634176, Note_on_c, 0, 60, 0
2, 634188, Note_on_c, 0, 55, 64
2, 634192, Note_on_c, 0, 48, 0
2, 634196, Note_on_c, 0, 64, 0
2, 634240, Note_on_c, 0, 55, 0
2, 634276, Note_on_c, 0, 48, 84
2, 634296, Note_on_c, 0, 74, 98
2, 634304, Note_on_c, 0, 67, 93
2, 634304, Note_on_c, 0, 62, 73
2, 634304, Note_on_c, 0, 55, 79
2, 634328, Note_on_c, 0, 62, 0
2, 634332, Note_on_c, 0, 55, 0
2, 634348, Note_on_c, 0, 55, 85
2, 634356, Note_on_c, 0, 67, 0
2, 634364, Note_on_c, 0, 74, 0
2, 634420, Note_on_c, 0, 55, 0
2, 634432, Note_on_c, 0, 65, 77
2, 634444, Note_on_c, 0, 62, 58
2, 634500, Note_on_c, 0, 65, 0
2, 634512, Note_on_c, 0, 55, 82
2, 634520, Note_on_c, 0, 62, 0
2, 634544, Note_on_c, 0, 48, 0
2, 634552, Note_on_c, 0, 36, 0
2, 634576, Note_on_c, 0, 55, 0
2, 634616, Note_on_c, 0, 48, 93
2, 634624, Note_on_c, 0, 36, 76
2, 634656, Note_on_c, 0, 76, 106
2, 634660, Note_on_c, 0, 64, 98
2, 634664, Note_on_c, 0, 72, 98
2, 634664, Note_on_c, 0, 67, 94
2, 634680, Note_on_c, 0, 60, 81
2, 634680, Control_c, 0, 64, 40
2, 634684, Note_on_c, 0, 48, 85
2, 634688, Control_c, 0, 64, 104
2, 634704, Note_on_c, 0, 55, 82
2, 634708, Control_c, 0, 64, 127
2, 634776, Note_on_c, 0, 55, 0
2, 634776, Note_on_c, 0, 64, 73
2, 634780, Note_on_c, 0, 60, 66
2, 634824, Note_on_c, 0, 48, 0
2, 634864, Note_on_c, 0, 60, 0
2, 634868, Note_on_c, 0, 60, 0
2, 634868, Note_on_c, 0, 55, 79
2, 634880, Note_on_c, 0, 64, 0
2, 634884, Note_on_c, 0, 76, 0
2, 634884, Note_on_c, 0, 67, 0
2, 634924, Note_on_c, 0, 48, 0
2, 634944, Note_on_c, 0, 64, 0
2, 634948, Note_on_c, 0, 55, 0
2, 634964, Note_on_c, 0, 72, 0
2, 634984, Note_on_c, 0, 48, 78
2, 635004, Note_on_c, 0, 74, 91
2, 635012, Note_on_c, 0, 67, 84
2, 635024, Note_on_c, 0, 55, 80
2, 635024, Note_on_c, 0, 62, 67
2, 635040, Control_c, 0, 64, 88
2, 635056, Note_on_c, 0, 55, 0
2, 635056, Control_c, 0, 64, 56
2, 635060, Note_on_c, 0, 62, 0
2, 635068, Control_c, 0, 64, 24
2, 635072, Note_on_c, 0, 55, 79
2, 635084, Note_on_c, 0, 67, 0
2, 635084, Control_c, 0, 64, 0
2, 635100, Note_on_c, 0, 74, 0
2, 635140, Note_on_c, 0, 55, 0
2, 635152, Note_on_c, 0, 65, 75
2, 635160, Note_on_c, 0, 62, 63
2, 635232, Note_on_c, 0, 55, 79
2, 635236, Note_on_c, 0, 65, 0
2, 635240, Note_on_c, 0, 48, 0
2, 635244, Note_on_c, 0, 62, 0
2, 635260, Note_on_c, 0, 72, 95
2, 635260, Note_on_c, 0, 60, 81
2, 635260, Note_on_c, 0, 64, 84
2, 635264, Note_on_c, 0, 52, 80
2, 635292, Note_on_c, 0, 52, 0
2, 635296, Note_on_c, 0, 55, 0
2, 635304, Note_on_c, 0, 64, 0
2, 635308, Note_on_c, 0, 60, 0
2, 635316, Note_on_c, 0, 72, 0
2, 635332, Note_on_c, 0, 48, 88
2, 635352, Note_on_c, 0, 64, 92
2, 635352, Note_on_c, 0, 72, 107
2, 635360, Note_on_c, 0, 52, 75
2, 635364, Note_on_c, 0, 60, 81
2, 635384, Note_on_c, 0, 64, 0
2, 635400, Note_on_c, 0, 55, 85
2, 635404, Note_on_c, 0, 52, 0
2, 635412, Note_on_c, 0, 60, 0
2, 635420, Note_on_c, 0, 72, 0
2, 635464, Note_on_c, 0, 55, 0
2, 635488, Note_on_c, 0, 60, 66
2, 635492, Note_on_c, 0, 64, 72
2, 635500, Note_on_c, 0, 36, 0
2, 635536, Note_on_c, 0, 48, 0
2, 635560, Note_on_c, 0, 60, 0
2, 635560, Note_on_c, 0, 55, 87
2, 635580, Note_on_c, 0, 64, 0
2, 635608, Note_on_c, 0, 55, 0
2, 635668, Note_on_c, 0, 83, 112
2, 635672, Note_on_c, 0, 71, 98
2, 635676, Note_on_c, 0, 78, 93
2, 635680, Note_on_c, 0, 51, 100
2, 635696, Note_on_c, 0, 51, 79
2, 635696, Note_on_c, 0, 39, 79
2, 635696, Control_c, 0, 64, 24
2, 635704, Note_on_c, 0, 59, 78
2, 635708, Control_c, 0, 64, 88
2, 635724, Control_c, 0, 64, 127
2, 635764, Note_on_c, 0, 59, 86
2, 635820, Note_on_c, 0, 51, 0
2, 635828, Note_on_c, 0, 59, 0
2, 635848, Note_on_c, 0, 66, 68
2, 635852, Note_on_c, 0, 71, 79
2, 635916, Note_on_c, 0, 59, 81
2, 635924, Note_on_c, 0, 66, 0
2, 635944, Note_on_c, 0, 51, 0
2, 635972, Note_on_c, 0, 78, 0
2, 635992, Note_on_c, 0, 59, 0
2, 635992, Note_on_c, 0, 39, 0
2, 635992, Note_on_c, 0, 50, 96
2, 636000, Note_on_c, 0, 38, 83
2, 636024, Note_on_c, 0, 80, 98
2, 636032, Note_on_c, 0, 83, 0
2, 636032, Note_on_c, 0, 62, 76
2, 636048, Note_on_c, 0, 50, 53
2, 636052, Note_on_c, 0, 71, 0
2, 636056, Note_on_c, 0, 62, 0
2, 636076, Note_on_c, 0, 59, 82
2, 636080, Note_on_c, 0, 50, 0
2, 636084, Note_on_c, 0, 59, 0
2, 636096, Note_on_c, 0, 71, 0
2, 636120, Note_on_c, 0, 80, 0
2, 636128, Control_c, 0, 64, 88
2, 636140, Control_c, 0, 64, 56
2, 636148, Note_on_c, 0, 59, 0
2, 636156, Control_c, 0, 64, 40
2, 636160, Note_on_c, 0, 68, 71
2, 636160, Note_on_c, 0, 64, 75
2, 636172, Control_c, 0, 64, 0
2, 636224, Note_on_c, 0, 64, 0
2, 636236, Note_on_c, 0, 59, 78
2, 636244, Note_on_c, 0, 38, 0
2, 636248, Note_on_c, 0, 68, 0
2, 636268, Note_on_c, 0, 50, 0
2, 636308, Note_on_c, 0, 59, 0
2, 636356, Note_on_c, 0, 48, 93
2, 636364, Note_on_c, 0, 81, 99
2, 636364, Note_on_c, 0, 36, 81
2, 636372, Note_on_c, 0, 69, 93
2, 636372, Note_on_c, 0, 76, 92
2, 636380, Note_on_c, 0, 60, 85
2, 636380, Control_c, 0, 64, 72
2, 636384, Note_on_c, 0, 48, 88
2, 636392, Control_c, 0, 64, 127
2, 636408, Note_on_c, 0, 48, 0
2, 636416, Note_on_c, 0, 60, 0
2, 636420, Note_on_c, 0, 57, 78
2, 636424, Note_on_c, 0, 69, 0
2, 636428, Note_on_c, 0, 76, 0
2, 636444, Note_on_c, 0, 81, 0
2, 636464, Control_c, 0, 64, 104
2, 636476, Control_c, 0, 64, 56
2, 636488, Control_c, 0, 64, 24
2, 636504, Note_on_c, 0, 57, 0
2, 636508, Control_c, 0, 64, 0
2, 636516, Note_on_c, 0, 69, 72
2, 636520, Note_on_c, 0, 64, 67
2, 636576, Note_on_c, 0, 36, 0
2, 636588, Note_on_c, 0, 64, 0
2, 636604, Note_on_c, 0, 69, 0
2, 636608, Note_on_c, 0, 57, 74
2, 636620, Note_on_c, 0, 48, 0
2, 636688, Note_on_c, 0, 57, 0
2, 636696, Note_on_c, 0, 50, 88
2, 636708, Note_on_c, 0, 38, 78
2, 636712, Note_on_c, 0, 77, 98
2, 636724, Note_on_c, 0, 69, 88
2, 636724, Note_on_c, 0, 74, 89
2, 636728, Note_on_c, 0, 50, 86
2, 636728, Note_on_c, 0, 62, 81
2, 636768, Note_on_c, 0, 50, 0
2, 636776, Note_on_c, 0, 62, 0
2, 636784, Note_on_c, 0, 74, 0
2, 636788, Note_on_c, 0, 69, 0
2, 636788, Note_on_c, 0, 57, 83
2, 636800, Note_on_c, 0, 77, 0
2, 636820, Note_on_c, 0, 38, 0
2, 636860, Note_on_c, 0, 57, 0
2, 636872, Note_on_c, 0, 65, 72
2, 636872, Note_on_c, 0, 62, 66
2, 636892, Note_on_c, 0, 50, 0
2, 636928, Note_on_c, 0, 62, 0
2, 636940, Note_on_c, 0, 57, 66
2, 636964, Note_on_c, 0, 65, 0
2, 637008, Note_on_c, 0, 57, 0
2, 637036, Note_on_c, 0, 52, 94
2, 637040, Note_on_c, 0, 40, 83
2, 637044, Note_on_c, 0, 76, 98
2, 637052, Note_on_c, 0, 68, 80
2, 637052, Note_on_c, 0, 71, 88
2, 637056, Note_on_c, 0, 56, 73
2, 637064, Note_on_c, 0, 64, 78
2, 637072, Note_on_c, 0, 52, 74
2, 637076, Control_c, 0, 64, 72
2, 637092, Control_c, 0, 64, 127
2, 637100, Note_on_c, 0, 68, 0
2, 637108, Note_on_c, 0, 71, 0
2, 637112, Note_on_c, 0, 52, 0
2, 637120, Note_on_c, 0, 56, 78
2, 637136, Note_on_c, 0, 76, 0
2, 637136, Note_on_c, 0, 40, 0
2, 637136, Note_on_c, 0, 64, 0
2, 637144, Note_on_c, 0, 56, 0
2, 637144, Note_on_c, 0, 52, 0
2, 637184, Note_on_c, 0, 56, 0
2, 637196, Note_on_c, 0, 64, 78
2, 637224, Note_on_c, 0, 59, 44
2, 637248, Note_on_c, 0, 56, 73
2, 637256, Note_on_c, 0, 59, 0
2, 637256, Note_on_c, 0, 64, 0
2, 637268, Note_on_c, 0, 52, 80
2, 637288, Note_on_c, 0, 52, 0
2, 637308, Note_on_c, 0, 56, 0
2, 637328, Control_c, 0, 64, 88
2, 637340, Control_c, 0, 64, 40
2, 637356, Control_c, 0, 64, 0
2, 637368, Note_on_c, 0, 45, 89
2, 637376, Note_on_c, 0, 45, 103
2, 637376, Note_on_c, 0, 33, 87
2, 637392, Note_on_c, 0, 45, 0
2, 637408, Note_on_c, 0, 84, 112
2, 637412, Note_on_c, 0, 72, 103
2, 637416, Control_c, 0, 64, 40
2, 637420, Note_on_c, 0, 76, 98
2, 637440, Control_c, 0, 64, 127
2, 637480, Note_on_c, 0, 52, 78
2, 637484, Note_on_c, 0, 60, 66
2, 637500, Note_on_c, 0, 57, 43
2, 637520, Note_on_c, 0, 60, 0
2, 637524, Note_on_c, 0, 57, 0
2, 637548, Note_on_c, 0, 84, 0
2, 637556, Note_on_c, 0, 52, 0
2, 637560, Note_on_c, 0, 60, 69
2, 637568, Note_on_c, 0, 57, 66
2, 637572, Note_on_c, 0, 72, 0
2, 637592, Note_on_c, 0, 76, 0
2, 637632, Note_on_c, 0, 60, 0
2, 637640, Note_on_c, 0, 45, 0
2, 637640, Note_on_c, 0, 57, 0
2, 637640, Note_on_c, 0, 52, 83
2, 637700, Note_on_c, 0, 52, 0
2, 637716, Note_on_c, 0, 45, 81
2, 637764, Note_on_c, 0, 83, 98
2, 637772, Note_on_c, 0, 71, 83
2, 637772, Note_on_c, 0, 52, 84
2, 637772, Note_on_c, 0, 59, 76
2, 637780, Note_on_c, 0, 76, 86
2, 637788, Note_on_c, 0, 52, 83
2, 637788, Control_c, 0, 64, 72
2, 637804, Note_on_c, 0, 76, 0
2, 637804, Control_c, 0, 64, 40
2, 637808, Note_on_c, 0, 59, 0
2, 637812, Note_on_c, 0, 52, 0
2, 637816, Control_c, 0, 64, 0
2, 637824, Note_on_c, 0, 83, 0
2, 637832, Note_on_c, 0, 71, 0
2, 637864, Note_on_c, 0, 52, 0
2, 637880, Note_on_c, 0, 62, 72
2, 637892, Note_on_c, 0, 59, 54
2, 637960, Note_on_c, 0, 59, 0
2, 637960, Note_on_c, 0, 52, 78
2, 637968, Note_on_c, 0, 62, 0
2, 637984, Note_on_c, 0, 45, 0
2, 638024, Note_on_c, 0, 81, 92
2, 638024, Note_on_c, 0, 69, 88
2, 638032, Note_on_c, 0, 52, 0
2, 638032, Note_on_c, 0, 76, 83
2, 638032, Note_on_c, 0, 57, 78
2, 638040, Note_on_c, 0, 48, 76
2, 638052, Note_on_c, 0, 76, 0
2, 638056, Note_on_c, 0, 57, 0
2, 638060, Note_on_c, 0, 45, 79
2, 638068, Note_on_c, 0, 48, 0
2, 638072, Note_on_c, 0, 81, 0
2, 638072, Note_on_c, 0, 69, 0
2, 638120, Note_on_c, 0, 69, 91
2, 638120, Note_on_c, 0, 81, 96
2, 638128, Note_on_c, 0, 76, 88
2, 638148, Note_on_c, 0, 48, 74
2, 638148, Note_on_c, 0, 57, 83
2, 638148, Note_on_c, 0, 52, 80
2, 638152, Note_on_c, 0, 76, 0
2, 638164, Note_on_c, 0, 69, 0
2, 638176, Note_on_c, 0, 48, 0
2, 638176, Note_on_c, 0, 57, 0
2, 638192, Note_on_c, 0, 81, 0
2, 638216, Note_on_c, 0, 52, 0
2, 638228, Note_on_c, 0, 60, 71
2, 638232, Note_on_c, 0, 57, 65
2, 638296, Note_on_c, 0, 57, 0
2, 638300, Note_on_c, 0, 52, 86
2, 638304, Note_on_c, 0, 60, 0
2, 638316, Note_on_c, 0, 45, 0
2, 638372, Note_on_c, 0, 52, 0
2, 638408, Note_on_c, 0, 45, 83
2, 638436, Note_on_c, 0, 52, 82
2, 638440, Note_on_c, 0, 59, 75
2, 638440, Note_on_c, 0, 83, 101
2, 638444, Note_on_c, 0, 71, 94
2, 638452, Note_on_c, 0, 76, 93
2, 638460, Note_on_c, 0, 52, 0
2, 638472, Note_on_c, 0, 59, 0
2, 638484, Note_on_c, 0, 52, 82
2, 638508, Note_on_c, 0, 71, 0
2, 638524, Note_on_c, 0, 76, 0
2, 638544, Note_on_c, 0, 83, 0
2, 638552, Note_on_c, 0, 52, 0
2, 638564, Note_on_c, 0, 62, 77
2, 638576, Note_on_c, 0, 59, 62
2, 638640, Note_on_c, 0, 62, 0
2, 638640, Note_on_c, 0, 52, 84
2, 638644, Note_on_c, 0, 59, 0
2, 638660, Note_on_c, 0, 45, 94
2, 638664, Note_on_c, 0, 45, 0
2, 638692, Note_on_c, 0, 33, 0
2, 638704, Note_on_c, 0, 52, 0
2, 638712, Note_on_c, 0, 45, 0
2, 638744, Note_on_c, 0, 45, 95
2, 638752, Note_on_c, 0, 33, 73
2, 638792, Note_on_c, 0, 84, 117
2, 638792, Note_on_c, 0, 72, 111
2, 638800, Note_on_c, 0, 76, 104
2, 638804, Note_on_c, 0, 60, 88
2, 638804, Note_on_c, 0, 57, 84
2, 638808, Control_c, 0, 64, 40
2, 638820, Control_c, 0, 64, 127
2, 638840, Note_on_c, 0, 52, 88
2, 638908, Note_on_c, 0, 60, 0
2, 638920, Note_on_c, 0, 60, 81
2, 638924, Note_on_c, 0, 52, 0
2, 638936, Note_on_c, 0, 57, 74
2, 638944, Note_on_c, 0, 57, 0
2, 638948, Note_on_c, 0, 84, 0
2, 638980, Note_on_c, 0, 72, 0
2, 639000, Note_on_c, 0, 76, 0
2, 639016, Note_on_c, 0, 57, 0
2, 639016, Note_on_c, 0, 60, 0
2, 639020, Note_on_c, 0, 45, 0
2, 639020, Note_on_c, 0, 52, 87
2, 639088, Note_on_c, 0, 52, 0
2, 639112, Note_on_c, 0, 45, 85
2, 639140, Note_on_c, 0, 83, 97
2, 639144, Note_on_c, 0, 71, 85
2, 639148, Note_on_c, 0, 76, 86
2, 639152, Note_on_c, 0, 59, 76
2, 639156, Note_on_c, 0, 52, 81
2, 639168, Control_c, 0, 64, 72
2, 639172, Note_on_c, 0, 76, 0
2, 639180, Note_on_c, 0, 52, 0
2, 639184, Note_on_c, 0, 59, 0
2, 639184, Control_c, 0, 64, 40
2, 639192, Note_on_c, 0, 52, 87
2, 639196, Control_c, 0, 64, 0
2, 639204, Note_on_c, 0, 83, 0
2, 639204, Note_on_c, 0, 71, 0
2, 639280, Note_on_c, 0, 52, 0
2, 639288, Note_on_c, 0, 62, 80
2, 639300, Note_on_c, 0, 59, 63
2, 639356, Note_on_c, 0, 45, 0
2, 639360, Note_on_c, 0, 62, 0
2, 639364, Note_on_c, 0, 59, 0
2, 639368, Note_on_c, 0, 52, 85
2, 639392, Note_on_c, 0, 81, 93
2, 639396, Note_on_c, 0, 69, 84
2, 639396, Note_on_c, 0, 57, 82
2, 639400, Note_on_c, 0, 76, 84
2, 639404, Note_on_c, 0, 48, 83
2, 639420, Note_on_c, 0, 76, 0
2, 639428, Note_on_c, 0, 57, 0
2, 639428, Note_on_c, 0, 69, 0
2, 639428, Note_on_c, 0, 48, 0
2, 639432, Note_on_c, 0, 52, 0
2, 639440, Note_on_c, 0, 81, 0
2, 639444, Note_on_c, 0, 45, 87
2, 639476, Note_on_c, 0, 69, 96
2, 639476, Note_on_c, 0, 81, 99
2, 639480, Note_on_c, 0, 76, 84
2, 639496, Note_on_c, 0, 57, 78
2, 639500, Note_on_c, 0, 48, 78
2, 639524, Note_on_c, 0, 52, 85
2, 639532, Note_on_c, 0, 76, 0
2, 639536, Note_on_c, 0, 69, 0
2, 639536, Note_on_c, 0, 48, 0
2, 639552, Note_on_c, 0, 57, 0
2, 639556, Note_on_c, 0, 81, 0
2, 639592, Note_on_c, 0, 52, 0
2, 639608, Note_on_c, 0, 60, 79
2, 639636, Note_on_c, 0, 33, 0
2, 639676, Note_on_c, 0, 45, 0
2, 639680, Note_on_c, 0, 52, 85
2, 639712, Note_on_c, 0, 57, 27
2, 639736, Note_on_c, 0, 52, 0
2, 639752, Note_on_c, 0, 57, 0
2, 639752, Note_on_c, 0, 60, 0
2, 639808, Note_on_c, 0, 47, 96
2, 639816, Note_on_c, 0, 35, 84
2, 639836, Note_on_c, 0, 79, 115
2, 639840, Note_on_c, 0, 67, 101
2, 639844, Note_on_c, 0, 74, 103
2, 639860, Note_on_c, 0, 47, 88
2, 639860, Note_on_c, 0, 59, 86
2, 639880, Control_c, 0, 64, 56
2, 639896, Note_on_c, 0, 55, 91
2, 639896, Control_c, 0, 64, 127
2, 639976, Note_on_c, 0, 55, 0
2, 639988, Note_on_c, 0, 62, 75
2, 640000, Note_on_c, 0, 67, 79
2, 640052, Note_on_c, 0, 62, 0
2, 640068, Note_on_c, 0, 67, 0
2, 640068, Note_on_c, 0, 55, 88
2, 640144, Note_on_c, 0, 55, 0
2, 640256, Note_on_c, 0, 55, 90
2, 640276, Note_on_c, 0, 47, 0
2, 640276, Note_on_c, 0, 47, 0
2, 640280, Note_on_c, 0, 74, 0
2, 640308, Note_on_c, 0, 79, 0
2, 640324, Note_on_c, 0, 55, 0
2, 640340, Note_on_c, 0, 67, 77
2, 640344, Note_on_c, 0, 62, 74
2, 640348, Note_on_c, 0, 67, 0
2, 640356, Note_on_c, 0, 59, 0
2, 640384, Note_on_c, 0, 35, 0
2, 640412, Note_on_c, 0, 62, 0
2, 640420, Note_on_c, 0, 67, 0
2, 640420, Note_on_c, 0, 55, 84
2, 640484, Note_on_c, 0, 55, 0
2, 640504, Note_on_c, 0, 48, 86
2, 640516, Note_on_c, 0, 36, 70
2, 640548, Note_on_c, 0, 76, 98
2, 640556, Note_on_c, 0, 67, 83
2, 640560, Note_on_c, 0, 48, 84
2, 640560, Note_on_c, 0, 72, 87
2, 640560, Note_on_c, 0, 60, 84
2, 640576, Control_c, 0, 64, 104
2, 640584, Note_on_c, 0, 48, 0
2, 640588, Note_on_c, 0, 60, 0
2, 640592, Note_on_c, 0, 72, 0
2, 640592, Control_c, 0, 64, 56
2, 640600, Note_on_c, 0, 55, 80
2, 640604, Control_c, 0, 64, 24
2, 640612, Note_on_c, 0, 67, 0
2, 640620, Note_on_c, 0, 76, 0
2, 640620, Control_c, 0, 64, 0
2, 640664, Note_on_c, 0, 55, 0
2, 640676, Note_on_c, 0, 64, 69
2, 640684, Note_on_c, 0, 60, 67
2, 640724, Note_on_c, 0, 60, 0
2, 640740, Note_on_c, 0, 64, 0
2, 640748, Note_on_c, 0, 55, 71
2, 640808, Note_on_c, 0, 55, 0
2, 640820, Note_on_c, 0, 48, 0
2, 640832, Note_on_c, 0, 36, 0
2, 640872, Note_on_c, 0, 38, 73
2, 640880, Note_on_c, 0, 74, 93
2, 640892, Note_on_c, 0, 71, 81
2, 640896, Note_on_c, 0, 65, 76
2, 640908, Note_on_c, 0, 50, 74
2, 640916, Note_on_c, 0, 62, 47
2, 640936, Note_on_c, 0, 50, 0
2, 640944, Note_on_c, 0, 65, 0
2, 640944, Note_on_c, 0, 62, 0
2, 640948, Note_on_c, 0, 71, 0
2, 640952, Note_on_c, 0, 53, 78
2, 640960, Note_on_c, 0, 74, 0
2, 641008, Note_on_c, 0, 53, 0
2, 641020, Note_on_c, 0, 62, 70
2, 641036, Note_on_c, 0, 59, 64
2, 641060, Note_on_c, 0, 59, 0
2, 641084, Note_on_c, 0, 38, 0
2, 641092, Note_on_c, 0, 53, 74
2, 641108, Note_on_c, 0, 62, 0
2, 641160, Note_on_c, 0, 53, 0
2, 641236, Note_on_c, 0, 59, 77
2, 641236, Note_on_c, 0, 52, 73
2, 641236, Note_on_c, 0, 71, 88
2, 641236, Note_on_c, 0, 68, 76
2, 641236, Note_on_c, 0, 64, 79
2, 641236, Note_on_c, 0, 40, 81
2, 641276, Note_on_c, 0, 52, 79
2, 641332, Note_on_c, 0, 52, 0
2, 641340, Note_on_c, 0, 71, 0
2, 641340, Note_on_c, 0, 68, 0
2, 641340, Note_on_c, 0, 59, 0
2, 641340, Note_on_c, 0, 52, 0
2, 641344, Note_on_c, 0, 64, 0
2, 641360, Note_on_c, 0, 59, 65
2, 641376, Note_on_c, 0, 56, 44
2, 641392, Note_on_c, 0, 40, 0
2, 641420, Note_on_c, 0, 59, 0
2, 641428, Note_on_c, 0, 56, 0
2, 641428, Note_on_c, 0, 52, 83
2, 641444, Note_on_c, 0, 45, 83
2, 641472, Note_on_c, 0, 45, 0
2, 641480, Note_on_c, 0, 52, 0
2, 641564, Note_on_c, 0, 48, 98
2, 641572, Note_on_c, 0, 36, 83
2, 641592, Note_on_c, 0, 88, 115
2, 641592, Note_on_c, 0, 79, 103
2, 641592, Note_on_c, 0, 76, 101
2, 641596, Control_c, 0, 64, 24
2, 641608, Control_c, 0, 64, 88
2, 641616, Note_on_c, 0, 60, 91
2, 641624, Note_on_c, 0, 64, 81
2, 641624, Control_c, 0, 64, 127
2, 641652, Note_on_c, 0, 55, 88
2, 641656, Note_on_c, 0, 64, 0
2, 641676, Note_on_c, 0, 60, 0
2, 641716, Note_on_c, 0, 55, 0
2, 641744, Note_on_c, 0, 60, 63
2, 641752, Note_on_c, 0, 88, 0
2, 641752, Note_on_c, 0, 64, 69
2, 641796, Note_on_c, 0, 76, 0
2, 641808, Note_on_c, 0, 79, 0
2, 641808, Note_on_c, 0, 55, 81
2, 641812, Note_on_c, 0, 60, 0
2, 641824, Note_on_c, 0, 64, 0
2, 641836, Note_on_c, 0, 48, 0
2, 641880, Note_on_c, 0, 55, 0
2, 641928, Note_on_c, 0, 48, 87
2, 641940, Note_on_c, 0, 86, 98
2, 641940, Note_on_c, 0, 62, 84
2, 641944, Note_on_c, 0, 55, 86
2, 641948, Note_on_c, 0, 74, 84
2, 641952, Note_on_c, 0, 79, 85
2, 641972, Note_on_c, 0, 62, 0
2, 641976, Note_on_c, 0, 55, 0
2, 641988, Note_on_c, 0, 79, 0
2, 642004, Note_on_c, 0, 74, 0
2, 642012, Note_on_c, 0, 86, 0
2, 642012, Note_on_c, 0, 55, 78
2, 642048, Control_c, 0, 64, 88
2, 642060, Note_on_c, 0, 55, 0
2, 642064, Control_c, 0, 64, 56
2, 642076, Control_c, 0, 64, 40
2, 642084, Note_on_c, 0, 65, 75
2, 642092, Note_on_c, 0, 62, 60
2, 642092, Control_c, 0, 64, 0
2, 642124, Note_on_c, 0, 62, 0
2, 642136, Note_on_c, 0, 48, 0
2, 642144, Note_on_c, 0, 65, 0
2, 642148, Note_on_c, 0, 55, 83
2, 642176, Note_on_c, 0, 84, 94
2, 642180, Note_on_c, 0, 72, 83
2, 642180, Note_on_c, 0, 60, 83
2, 642180, Note_on_c, 0, 52, 83
2, 642184, Note_on_c, 0, 79, 78
2, 642208, Note_on_c, 0, 79, 0
2, 642208, Note_on_c, 0, 72, 0
2, 642208, Note_on_c, 0, 52, 0
2, 642212, Note_on_c, 0, 55, 0
2, 642212, Note_on_c, 0, 60, 0
2, 642228, Note_on_c, 0, 84, 0
2, 642248, Note_on_c, 0, 48, 84
2, 642256, Note_on_c, 0, 72, 98
2, 642260, Note_on_c, 0, 84, 97
2, 642260, Note_on_c, 0, 79, 83
2, 642280, Note_on_c, 0, 52, 81
2, 642284, Note_on_c, 0, 60, 75
2, 642316, Note_on_c, 0, 79, 0
2, 642328, Note_on_c, 0, 72, 0
2, 642336, Note_on_c, 0, 55, 82
2, 642344, Note_on_c, 0, 52, 0
2, 642344, Note_on_c, 0, 84, 0
2, 642344, Note_on_c, 0, 60, 0
2, 642400, Note_on_c, 0, 55, 0
2, 642412, Note_on_c, 0, 64, 73
2, 642420, Note_on_c, 0, 60, 63
2, 642456, Note_on_c, 0, 48, 0
2, 642476, Note_on_c, 0, 60, 0
2, 642480, Note_on_c, 0, 64, 0
2, 642492, Note_on_c, 0, 55, 80
2, 642544, Note_on_c, 0, 55, 0
2, 642552, Note_on_c, 0, 48, 83
2, 642584, Note_on_c, 0, 55, 83
2, 642588, Note_on_c, 0, 62, 78
2, 642592, Note_on_c, 0, 86, 100
2, 642592, Note_on_c, 0, 74, 98
2, 642600, Note_on_c, 0, 79, 94
2, 642620, Note_on_c, 0, 62, 0
2, 642632, Note_on_c, 0, 55, 0
2, 642632, Note_on_c, 0, 55, 84
2, 642700, Note_on_c, 0, 55, 0
2, 642704, Note_on_c, 0, 74, 0
2, 642716, Note_on_c, 0, 65, 75
2, 642748, Note_on_c, 0, 86, 0
2, 642748, Note_on_c, 0, 62, 48
2, 642764, Note_on_c, 0, 79, 0
2, 642784, Note_on_c, 0, 62, 0
2, 642788, Note_on_c, 0, 48, 0
2, 642792, Note_on_c, 0, 65, 0
2, 642792, Note_on_c, 0, 55, 88
2, 642800, Note_on_c, 0, 48, 89
2, 642800, Control_c, 0, 64, 56
2, 642816, Control_c, 0, 64, 127
2, 642820, Note_on_c, 0, 36, 0
2, 642844, Note_on_c, 0, 48, 0
2, 642852, Note_on_c, 0, 55, 0
2, 642912, Note_on_c, 0, 48, 98
2, 642916, Note_on_c, 0, 36, 86
2, 642928, Note_on_c, 0, 88, 111
2, 642936, Note_on_c, 0, 79, 101
2, 642936, Note_on_c, 0, 76, 99
2, 642936, Note_on_c, 0, 60, 94
2, 642940, Note_on_c, 0, 64, 83
2, 642980, Note_on_c, 0, 64, 0
2, 642980, Note_on_c, 0, 60, 0
2, 643008, Note_on_c, 0, 55, 88
2, 643060, Note_on_c, 0, 88, 0
2, 643060, Note_on_c, 0, 76, 0
2, 643080, Note_on_c, 0, 79, 0
2, 643080, Note_on_c, 0, 55, 0
2, 643080, Note_on_c, 0, 64, 75
2, 643088, Note_on_c, 0, 60, 73
2, 643164, Note_on_c, 0, 60, 0
2, 643164, Note_on_c, 0, 64, 0
2, 643164, Note_on_c, 0, 48, 0
2, 643164, Note_on_c, 0, 55, 88
2, 643228, Note_on_c, 0, 55, 0
2, 643252, Note_on_c, 0, 48, 91
2, 643260, Note_on_c, 0, 86, 93
2, 643272, Note_on_c, 0, 74, 78
2, 643276, Note_on_c, 0, 62, 75
2, 643276, Control_c, 0, 64, 104
2, 643280, Note_on_c, 0, 55, 83
2, 643284, Note_on_c, 0, 79, 80
2, 643292, Control_c, 0, 64, 72
2, 643304, Control_c, 0, 64, 40
2, 643308, Note_on_c, 0, 62, 0
2, 643320, Note_on_c, 0, 55, 0
2, 643320, Control_c, 0, 64, 24
2, 643332, Note_on_c, 0, 86, 0
2, 643332, Control_c, 0, 64, 0
2, 643336, Note_on_c, 0, 55, 88
2, 643340, Note_on_c, 0, 74, 0
2, 643348, Note_on_c, 0, 79, 0
2, 643408, Note_on_c, 0, 55, 0
2, 643424, Note_on_c, 0, 65, 79
2, 643432, Note_on_c, 0, 62, 68
2, 643472, Note_on_c, 0, 48, 0
2, 643496, Note_on_c, 0, 62, 0
2, 643496, Note_on_c, 0, 65, 0
2, 643500, Note_on_c, 0, 55, 83
2, 643512, Note_on_c, 0, 84, 89
2, 643516, Note_on_c, 0, 79, 78
2, 643516, Note_on_c, 0, 60, 79
2, 643520, Note_on_c, 0, 72, 77
2, 643528, Note_on_c, 0, 52, 71
2, 643536, Note_on_c, 0, 84, 0
2, 643540, Note_on_c, 0, 79, 0
2, 643544, Note_on_c, 0, 60, 0
2, 643548, Note_on_c, 0, 72, 0
2, 643552, Note_on_c, 0, 55, 0
2, 643552, Note_on_c, 0, 52, 0
2, 643572, Note_on_c, 0, 48, 90
2, 643592, Note_on_c, 0, 84, 100
2, 643592, Note_on_c, 0, 79, 85
2, 643596, Note_on_c, 0, 72, 93
2, 643608, Note_on_c, 0, 60, 79
2, 643608, Note_on_c, 0, 52, 67
2, 643640, Note_on_c, 0, 55, 88
2, 643652, Note_on_c, 0, 72, 0
2, 643660, Note_on_c, 0, 79, 0
2, 643664, Note_on_c, 0, 60, 0
2, 643664, Note_on_c, 0, 52, 0
2, 643668, Note_on_c, 0, 84, 0
2, 643708, Note_on_c, 0, 55, 0
2, 643712, Note_on_c, 0, 36, 0
2, 643736, Note_on_c, 0, 64, 78
2, 643736, Note_on_c, 0, 60, 71
2, 643748, Note_on_c, 0, 48, 0
2, 643808, Note_on_c, 0, 60, 0
2, 643808, Note_on_c, 0, 64, 0
2, 643808, Note_on_c, 0, 55, 90
2, 643860, Note_on_c, 0, 55, 0
2, 643912, Note_on_c, 0, 51, 94
2, 643916, Note_on_c, 0, 39, 80
2, 643928, Note_on_c, 0, 83, 103
2, 643936, Note_on_c, 0, 71, 94
2, 643936, Note_on_c, 0, 78, 90
2, 643948, Note_on_c, 0, 51, 79
2, 643948, Control_c, 0, 64, 24
2, 643956, Note_on_c, 0, 59, 73
2, 643960, Control_c, 0, 64, 88
2, 643976, Control_c, 0, 64, 127
2, 644004, Note_on_c, 0, 59, 88
2, 644088, Note_on_c, 0, 59, 0
2, 644096, Note_on_c, 0, 66, 70
2, 644104, Note_on_c, 0, 51, 0
2, 644108, Note_on_c, 0, 71, 85
2, 644160, Note_on_c, 0, 78, 0
2, 644172, Note_on_c, 0, 66, 0
2, 644172, Note_on_c, 0, 59, 84
2, 644184, Note_on_c, 0, 71, 0
2, 644196, Note_on_c, 0, 51, 0
2, 644232, Note_on_c, 0, 39, 0
2, 644248, Note_on_c, 0, 59, 0
2, 644256, Note_on_c, 0, 50, 94
2, 644264, Note_on_c, 0, 38, 81
2, 644280, Note_on_c, 0, 80, 98
2, 644284, Note_on_c, 0, 50, 84
2, 644324, Note_on_c, 0, 83, 0
2, 644336, Note_on_c, 0, 59, 84
2, 644340, Note_on_c, 0, 50, 0
2, 644344, Note_on_c, 0, 59, 0
2, 644348, Note_on_c, 0, 71, 0
2, 644368, Note_on_c, 0, 80, 0
2, 644392, Control_c, 0, 64, 104
2, 644404, Control_c, 0, 64, 72
2, 644416, Note_on_c, 0, 59, 0
2, 644420, Control_c, 0, 64, 40
2, 644432, Note_on_c, 0, 68, 76
2, 644432, Control_c, 0, 64, 0
2, 644436, Note_on_c, 0, 64, 74
2, 644472, Note_on_c, 0, 64, 0
2, 644488, Note_on_c, 0, 38, 0
2, 644492, Note_on_c, 0, 50, 0
2, 644508, Note_on_c, 0, 59, 86
2, 644524, Note_on_c, 0, 68, 0
2, 644580, Note_on_c, 0, 59, 0
2, 644604, Note_on_c, 0, 48, 91
2, 644604, Note_on_c, 0, 36, 83
2, 644620, Note_on_c, 0, 81, 96
2, 644624, Note_on_c, 0, 69, 90
2, 644628, Note_on_c, 0, 76, 93
2, 644636, Note_on_c, 0, 48, 83
2, 644636, Note_on_c, 0, 57, 82
2, 644664, Note_on_c, 0, 48, 0
2, 644688, Note_on_c, 0, 57, 0
2, 644692, Note_on_c, 0, 57, 72
2, 644728, Note_on_c, 0, 76, 0
2, 644736, Note_on_c, 0, 81, 0
2, 644768, Note_on_c, 0, 69, 0
2, 644772, Note_on_c, 0, 57, 0
2, 644776, Note_on_c, 0, 36, 0
2, 644788, Note_on_c, 0, 64, 74
2, 644792, Note_on_c, 0, 69, 78
2, 644828, Note_on_c, 0, 48, 0
2, 644852, Note_on_c, 0, 64, 0
2, 644868, Note_on_c, 0, 69, 0
2, 644880, Note_on_c, 0, 57, 78
2, 644948, Note_on_c, 0, 57, 0
2, 644948, Note_on_c, 0, 50, 85
2, 644956, Note_on_c, 0, 38, 77
2, 644968, Note_on_c, 0, 77, 101
2, 644980, Note_on_c, 0, 74, 91
2, 644980, Note_on_c, 0, 62, 83
2, 644980, Note_on_c, 0, 69, 88
2, 644980, Note_on_c, 0, 50, 86
2, 645036, Note_on_c, 0, 50, 0
2, 645040, Note_on_c, 0, 62, 0
2, 645040, Note_on_c, 0, 74, 0
2, 645052, Note_on_c, 0, 69, 0
2, 645060, Note_on_c, 0, 57, 78
2, 645068, Note_on_c, 0, 77, 0
2, 645096, Note_on_c, 0, 38, 0
2, 645128, Note_on_c, 0, 57, 0
2, 645136, Note_on_c, 0, 65, 73
2, 645144, Note_on_c, 0, 62, 71
2, 645160, Note_on_c, 0, 50, 0
2, 645172, Note_on_c, 0, 62, 0
2, 645192, Note_on_c, 0, 57, 63
2, 645204, Note_on_c, 0, 65, 0
2, 645264, Note_on_c, 0, 57, 0
2, 645296, Note_on_c, 0, 52, 90
2, 645300, Note_on_c, 0, 40, 78
2, 645336, Note_on_c, 0, 76, 99
2, 645336, Note_on_c, 0, 68, 83
2, 645336, Control_c, 0, 64, 40
2, 645340, Note_on_c, 0, 71, 88
2, 645352, Note_on_c, 0, 64, 81
2, 645352, Note_on_c, 0, 59, 83
2, 645352, Note_on_c, 0, 52, 81
2, 645356, Control_c, 0, 64, 104
2, 645364, Control_c, 0, 64, 127
2, 645396, Note_on_c, 0, 52, 0
2, 645396, Note_on_c, 0, 56, 80
2, 645400, Note_on_c, 0, 71, 0
2, 645400, Note_on_c, 0, 59, 0
2, 645400, Note_on_c, 0, 64, 0
2, 645404, Note_on_c, 0, 52, 0
2, 645404, Note_on_c, 0, 68, 0
2, 645432, Note_on_c, 0, 76, 0
2, 645436, Note_on_c, 0, 40, 0
2, 645468, Note_on_c, 0, 56, 0
2, 645480, Note_on_c, 0, 64, 83
2, 645488, Note_on_c, 0, 59, 69
2, 645520, Control_c, 0, 64, 104
2, 645536, Note_on_c, 0, 59, 0
2, 645536, Control_c, 0, 64, 72
2, 645548, Note_on_c, 0, 56, 83
2, 645552, Control_c, 0, 64, 56
2, 645556, Note_on_c, 0, 64, 0
2, 645564, Control_c, 0, 64, 24
2, 645580, Control_c, 0, 64, 0
2, 645608, Note_on_c, 0, 56, 0
2, 645656, Note_on_c, 0, 45, 91
2, 645660, Note_on_c, 0, 33, 78
2, 645688, Note_on_c, 0, 81, 101
2, 645696, Note_on_c, 0, 69, 92
2, 645696, Note_on_c, 0, 60, 88
2, 645700, Note_on_c, 0, 72, 96
2, 645704, Note_on_c, 0, 57, 78
2, 645704, Control_c, 0, 64, 56
2, 645716, Control_c, 0, 64, 127
2, 645748, Note_on_c, 0, 60, 0
2, 645748, Note_on_c, 0, 52, 86
2, 645760, Note_on_c, 0, 57, 0
2, 645840, Note_on_c, 0, 57, 75
2, 645848, Note_on_c, 0, 52, 0
2, 645924, Note_on_c, 0, 60, 79
2, 645928, Note_on_c, 0, 57, 0
2, 646000, Note_on_c, 0, 60, 0
2, 646012, Note_on_c, 0, 64, 84
2, 646016, Note_on_c, 0, 52, 86
2, 646020, Note_on_c, 0, 59, 80
2, 646064, Control_c, 0, 64, 104
2, 646068, Note_on_c, 0, 59, 0
2, 646068, Note_on_c, 0, 52, 0
2, 646080, Note_on_c, 0, 60, 75
2, 646080, Control_c, 0, 64, 72
2, 646092, Control_c, 0, 64, 56
2, 646096, Note_on_c, 0, 64, 0
2, 646108, Control_c, 0, 64, 40
2, 646120, Control_c, 0, 64, 24
2, 646136, Note_on_c, 0, 57, 76
2, 646136, Control_c, 0, 64, 0
2, 646168, Note_on_c, 0, 60, 0
2, 646208, Note_on_c, 0, 57, 0
2, 646220, Note_on_c, 0, 52, 78
2, 646244, Note_on_c, 0, 45, 0
2, 646260, Note_on_c, 0, 52, 0
2, 646268, Note_on_c, 0, 57, 81
2, 646268, Note_on_c, 0, 48, 83
2, 646272, Note_on_c, 0, 33, 0
2, 646300, Note_on_c, 0, 48, 0
2, 646316, Note_on_c, 0, 57, 0
2, 646384, Note_on_c, 0, 45, 95
2, 646392, Note_on_c, 0, 33, 77
2, 646396, Note_on_c, 0, 91, 108
2, 646404, Note_on_c, 0, 79, 100
2, 646404, Note_on_c, 0, 88, 99
2, 646432, Note_on_c, 0, 72, 0
2, 646436, Note_on_c, 0, 69, 0
2, 646436, Control_c, 0, 64, 104
2, 646448, Control_c, 0, 64, 127
2, 646452, Note_on_c, 0, 88, 0
2, 646456, Note_on_c, 0, 81, 0
2, 646464, Note_on_c, 0, 79, 0
2, 646472, Note_on_c, 0, 91, 0
2, 646484, Note_on_c, 0, 55, 81
2, 646540, Note_on_c, 0, 58, 70
2, 646560, Note_on_c, 0, 33, 0
2, 646576, Note_on_c, 0, 55, 0
2, 646580, Note_on_c, 0, 45, 0
2, 646604, Note_on_c, 0, 61, 71
2, 646628, Note_on_c, 0, 58, 0
2, 646636, Note_on_c, 0, 64, 81
2, 646684, Note_on_c, 0, 61, 0
2, 646692, Note_on_c, 0, 67, 87
2, 646708, Note_on_c, 0, 64, 0
2, 646724, Note_on_c, 0, 89, 103
2, 646728, Note_on_c, 0, 77, 98
2, 646728, Note_on_c, 0, 86, 95
2, 646736, Note_on_c, 0, 57, 71
2, 646736, Note_on_c, 0, 70, 100
2, 646740, Note_on_c, 0, 45, 77
2, 646760, Note_on_c, 0, 67, 0
2, 646768, Note_on_c, 0, 70, 0
2, 646772, Note_on_c, 0, 86, 0
2, 646776, Note_on_c, 0, 77, 0
2, 646784, Note_on_c, 0, 89, 0
2, 646784, Note_on_c, 0, 57, 0
2, 646792, Note_on_c, 0, 45, 0
2, 646800, Note_on_c, 0, 64, 78
2, 646856, Note_on_c, 0, 61, 82
2, 646868, Note_on_c, 0, 64, 0
2, 646912, Note_on_c, 0, 58, 75
2, 646936, Note_on_c, 0, 61, 0
2, 646956, Note_on_c, 0, 57, 79
2, 646956, Note_on_c, 0, 85, 90
2, 646968, Note_on_c, 0, 76, 78
2, 646972, Note_on_c, 0, 88, 104
2, 646972, Note_on_c, 0, 55, 78
2, 646976, Note_on_c, 0, 58, 0
2, 646996, Note_on_c, 0, 57, 0
2, 647004, Note_on_c, 0, 85, 0
2, 647008, Note_on_c, 0, 76, 0
2, 647012, Note_on_c, 0, 88, 0
2, 647028, Note_on_c, 0, 55, 0
2, 647056, Note_on_c, 0, 45, 93
2, 647064, Note_on_c, 0, 33, 76
2, 647068, Note_on_c, 0, 77, 107
2, 647068, Note_on_c, 0, 86, 104
2, 647072, Note_on_c, 0, 89, 109
2, 647072, Control_c, 0, 64, 104
2, 647088, Control_c, 0, 64, 56
2, 647100, Note_on_c, 0, 65, 79
2, 647100, Control_c, 0, 64, 0
2, 647104, Note_on_c, 0, 62, 82
2, 647160, Note_on_c, 0, 53, 76
2, 647184, Control_c, 0, 64, 104
2, 647192, Note_on_c, 0, 65, 0
2, 647196, Control_c, 0, 64, 127
2, 647232, Note_on_c, 0, 57, 79
2, 647252, Note_on_c, 0, 62, 0
2, 647260, Note_on_c, 0, 53, 0
2, 647316, Note_on_c, 0, 62, 81
2, 647320, Note_on_c, 0, 57, 0
2, 647408, Note_on_c, 0, 65, 97
2, 647412, Note_on_c, 0, 64, 83
2, 647412, Note_on_c, 0, 57, 81
2, 647424, Note_on_c, 0, 62, 0
2, 647432, Note_on_c, 0, 89, 0
2, 647436, Note_on_c, 0, 86, 0
2, 647460, Note_on_c, 0, 77, 0
2, 647492, Note_on_c, 0, 65, 0
2, 647500, Note_on_c, 0, 62, 89
2, 647548, Note_on_c, 0, 64, 0
2, 647564, Note_on_c, 0, 57, 0
2, 647596, Note_on_c, 0, 57, 92
2, 647604, Note_on_c, 0, 62, 0
2, 647640, Note_on_c, 0, 45, 0
2, 647640, Note_on_c, 0, 33, 0
2, 647652, Note_on_c, 0, 53, 78
2, 647652, Note_on_c, 0, 62, 76
2, 647676, Note_on_c, 0, 57, 0
2, 647680, Note_on_c, 0, 53, 89
2, 647704, Note_on_c, 0, 53, 0
2, 647712, Control_c, 0, 64, 56
2, 647724, Note_on_c, 0, 62, 0
2, 647724, Control_c, 0, 64, 0
2, 647744, Note_on_c, 0, 53, 0
2, 647752, Note_on_c, 0, 86, 103
2, 647756, Note_on_c, 0, 74, 99
2, 647756, Note_on_c, 0, 83, 98
2, 647760, Note_on_c, 0, 62, 88
2, 647768, Note_on_c, 0, 59, 80
2, 647772, Note_on_c, 0, 45, 92
2, 647780, Note_on_c, 0, 33, 76
2, 647792, Control_c, 0, 64, 40
2, 647800, Note_on_c, 0, 62, 0
2, 647808, Note_on_c, 0, 83, 0
2, 647808, Note_on_c, 0, 74, 0
2, 647808, Control_c, 0, 64, 127
2, 647816, Note_on_c, 0, 59, 0
2, 647820, Note_on_c, 0, 86, 0
2, 647892, Note_on_c, 0, 53, 84
2, 647960, Note_on_c, 0, 56, 77
2, 647988, Note_on_c, 0, 53, 0
2, 648048, Note_on_c, 0, 59, 79
2, 648052, Note_on_c, 0, 56, 0
2, 648076, Note_on_c, 0, 84, 97
2, 648080, Note_on_c, 0, 72, 97
2, 648080, Note_on_c, 0, 81, 86
2, 648088, Note_on_c, 0, 57, 75
2, 648100, Note_on_c, 0, 45, 70
2, 648120, Note_on_c, 0, 81, 0
2, 648120, Note_on_c, 0, 84, 0
2, 648124, Note_on_c, 0, 59, 0
2, 648128, Note_on_c, 0, 72, 0
2, 648128, Note_on_c, 0, 45, 0
2, 648128, Note_on_c, 0, 62, 92
2, 648136, Note_on_c, 0, 57, 0
2, 648208, Note_on_c, 0, 62, 0
2, 648212, Note_on_c, 0, 59, 83
2, 648276, Note_on_c, 0, 56, 76
2, 648304, Note_on_c, 0, 59, 0
2, 648324, Note_on_c, 0, 80, 91
2, 648324, Note_on_c, 0, 83, 101
2, 648328, Note_on_c, 0, 71, 88
2, 648328, Note_on_c, 0, 45, 78
2, 648336, Note_on_c, 0, 56, 0
2, 648340, Note_on_c, 0, 57, 78
2, 648352, Note_on_c, 0, 45, 0
2, 648352, Note_on_c, 0, 53, 81
2, 648356, Note_on_c, 0, 45, 0
2, 648360, Note_on_c, 0, 33, 0
2, 648360, Note_on_c, 0, 71, 0
2, 648368, Note_on_c, 0, 83, 0
2, 648368, Note_on_c, 0, 80, 0
2, 648368, Note_on_c, 0, 57, 0
2, 648400, Control_c, 0, 64, 104
2, 648412, Note_on_c, 0, 53, 0
2, 648416, Control_c, 0, 64, 40
2, 648424, Note_on_c, 0, 84, 103
2, 648424, Note_on_c, 0, 72, 102
2, 648424, Note_on_c, 0, 81, 99
2, 648432, Note_on_c, 0, 45, 93
2, 648432, Control_c, 0, 64, 0
2, 648440, Note_on_c, 0, 33, 76
2, 648444, Note_on_c, 0, 60, 87
2, 648448, Note_on_c, 0, 57, 87
2, 648524, Control_c, 0, 64, 72
2, 648528, Note_on_c, 0, 52, 78
2, 648536, Control_c, 0, 64, 127
2, 648548, Note_on_c, 0, 60, 0
2, 648572, Note_on_c, 0, 57, 0
2, 648612, Note_on_c, 0, 57, 71
2, 648620, Note_on_c, 0, 52, 0
2, 648684, Note_on_c, 0, 60, 78
2, 648692, Note_on_c, 0, 57, 0
2, 648768, Note_on_c, 0, 60, 0
2, 648768, Note_on_c, 0, 64, 83
2, 648772, Note_on_c, 0, 59, 78
2, 648772, Note_on_c, 0, 52, 84
2, 648792, Note_on_c, 0, 72, 0
2, 648820, Note_on_c, 0, 81, 0
2, 648840, Note_on_c, 0, 64, 0
2, 648844, Note_on_c, 0, 84, 0
2, 648844, Note_on_c, 0, 60, 76
2, 648920, Note_on_c, 0, 59, 0
2, 648920, Note_on_c, 0, 57, 77
2, 648924, Note_on_c, 0, 60, 0
2, 648932, Note_on_c, 0, 52, 0
2, 648980, Note_on_c, 0, 57, 0
2, 648988, Note_on_c, 0, 52, 83
2, 649008, Note_on_c, 0, 48, 78
2, 649008, Note_on_c, 0, 57, 78
2, 649012, Note_on_c, 0, 45, 0
2, 649024, Note_on_c, 0, 33, 0
2, 649032, Note_on_c, 0, 52, 0
2, 649064, Note_on_c, 0, 57, 0
2, 649068, Note_on_c, 0, 48, 0
2, 649092, Note_on_c, 0, 45, 89
2, 649092, Note_on_c, 0, 33, 74
2, 649108, Control_c, 0, 64, 88
2, 649120, Control_c, 0, 64, 40
2, 649136, Control_c, 0, 64, 0
2, 649140, Note_on_c, 0, 91, 109
2, 649148, Note_on_c, 0, 79, 104
2, 649148, Note_on_c, 0, 88, 98
2, 649176, Note_on_c, 0, 55, 79
2, 649204, Control_c, 0, 64, 56
2, 649216, Control_c, 0, 64, 127
2, 649224, Note_on_c, 0, 58, 73
2, 649232, Note_on_c, 0, 88, 0
2, 649236, Note_on_c, 0, 91, 0
2, 649244, Note_on_c, 0, 33, 0
2, 649252, Note_on_c, 0, 79, 0
2, 649252, Note_on_c, 0, 55, 0
2, 649272, Note_on_c, 0, 45, 0
2, 649288, Note_on_c, 0, 61, 66
2, 649312, Note_on_c, 0, 58, 0
2, 649336, Note_on_c, 0, 64, 68
2, 649364, Note_on_c, 0, 61, 0
2, 649396, Note_on_c, 0, 67, 70
2, 649400, Note_on_c, 0, 64, 0
2, 649404, Note_on_c, 0, 65, 73
2, 649424, Note_on_c, 0, 65, 0
2, 649444, Note_on_c, 0, 67, 0
2, 649464, Note_on_c, 0, 89, 104
2, 649464, Note_on_c, 0, 70, 94
2, 649468, Note_on_c, 0, 86, 94
2, 649472, Note_on_c, 0, 77, 98
2, 649488, Note_on_c, 0, 45, 79
2, 649492, Note_on_c, 0, 57, 73
2, 649516, Note_on_c, 0, 45, 0
2, 649516, Note_on_c, 0, 86, 0
2, 649524, Note_on_c, 0, 70, 0
2, 649532, Note_on_c, 0, 57, 0
2, 649536, Note_on_c, 0, 89, 0
2, 649540, Note_on_c, 0, 77, 0
2, 649544, Note_on_c, 0, 67, 63
2, 649556, Note_on_c, 0, 64, 78
2, 649572, Note_on_c, 0, 67, 0
2, 649616, Note_on_c, 0, 61, 76
2, 649640, Note_on_c, 0, 64, 0
2, 649680, Note_on_c, 0, 58, 71
2, 649692, Note_on_c, 0, 61, 0
2, 649704, Note_on_c, 0, 85, 93
2, 649708, Note_on_c, 0, 88, 101
2, 649712, Note_on_c, 0, 76, 89
2, 649712, Note_on_c, 0, 57, 70
2, 649720, Note_on_c, 0, 58, 0
2, 649724, Note_on_c, 0, 55, 76
2, 649736, Note_on_c, 0, 57, 0
2, 649736, Note_on_c, 0, 77, 53
2, 649744, Note_on_c, 0, 76, 0
2, 649756, Note_on_c, 0, 85, 0
2, 649760, Note_on_c, 0, 77, 0
2, 649760, Note_on_c, 0, 88, 0
2, 649772, Note_on_c, 0, 55, 0
2, 649796, Control_c, 0, 64, 72
2, 649800, Note_on_c, 0, 45, 83
2, 649812, Note_on_c, 0, 89, 115
2, 649812, Note_on_c, 0, 86, 107
2, 649812, Note_on_c, 0, 77, 115
2, 649816, Note_on_c, 0, 33, 62
2, 649816, Control_c, 0, 64, 0
2, 649836, Note_on_c, 0, 62, 83
2, 649848, Note_on_c, 0, 65, 78
2, 649888, Note_on_c, 0, 65, 0
2, 649892, Note_on_c, 0, 53, 78
2, 649892, Control_c, 0, 64, 56
2, 649908, Control_c, 0, 64, 127
2, 649968, Note_on_c, 0, 57, 77
2, 649976, Note_on_c, 0, 53, 0
2, 650012, Note_on_c, 0, 62, 0
2, 650032, Note_on_c, 0, 57, 0
2, 650036, Note_on_c, 0, 62, 80
2, 650124, Note_on_c, 0, 62, 0
2, 650132, Note_on_c, 0, 65, 87
2, 650164, Note_on_c, 0, 64, 78
2, 650164, Note_on_c, 0, 57, 78
2, 650188, Note_on_c, 0, 89, 0
2, 650200, Note_on_c, 0, 86, 0
2, 650220, Note_on_c, 0, 65, 0
2, 650220, Note_on_c, 0, 62, 78
2, 650232, Note_on_c, 0, 77, 0
2, 650312, Note_on_c, 0, 62, 0
2, 650312, Note_on_c, 0, 57, 79
2, 650320, Note_on_c, 0, 64, 0
2, 650328, Note_on_c, 0, 57, 0
2, 650380, Note_on_c, 0, 45, 0
2, 650380, Note_on_c, 0, 57, 0
2, 650396, Note_on_c, 0, 53, 78
2, 650408, Note_on_c, 0, 33, 0
2, 650412, Note_on_c, 0, 62, 75
2, 650412, Note_on_c, 0, 53, 78
2, 650456, Note_on_c, 0, 53, 0
2, 650460, Note_on_c, 0, 53, 0
2, 650460, Note_on_c, 0, 62, 0
2, 650492, Control_c, 0, 64, 104
2, 650504, Control_c, 0, 64, 24
2, 650508, Note_on_c, 0, 45, 93
2, 650516, Note_on_c, 0, 33, 74
2, 650516, Control_c, 0, 64, 0
2, 650520, Note_on_c, 0, 86, 106
2, 650524, Note_on_c, 0, 74, 104
2, 650528, Note_on_c, 0, 62, 78
2, 650528, Note_on_c, 0, 83, 97
2, 650544, Note_on_c, 0, 59, 77
2, 650564, Note_on_c, 0, 62, 0
2, 650576, Note_on_c, 0, 59, 0
2, 650584, Control_c, 0, 64, 56
2, 650592, Note_on_c, 0, 74, 0
2, 650600, Control_c, 0, 64, 0
2, 650608, Note_on_c, 0, 83, 0
2, 650616, Note_on_c, 0, 86, 0
2, 650624, Note_on_c, 0, 53, 78
2, 650700, Note_on_c, 0, 56, 77
2, 650736, Note_on_c, 0, 53, 0
2, 650792, Note_on_c, 0, 56, 0
2, 650800, Note_on_c, 0, 59, 76
2, 650848, Note_on_c, 0, 84, 98
2, 650852, Note_on_c, 0, 72, 93
2, 650852, Note_on_c, 0, 81, 91
2, 650864, Note_on_c, 0, 57, 79
2, 650872, Note_on_c, 0, 45, 80
2, 650884, Note_on_c, 0, 59, 0
2, 650892, Note_on_c, 0, 62, 89
2, 650904, Note_on_c, 0, 81, 0
2, 650912, Note_on_c, 0, 72, 0
2, 650920, Note_on_c, 0, 45, 0
2, 650924, Note_on_c, 0, 84, 0
2, 650928, Note_on_c, 0, 57, 0
2, 650988, Note_on_c, 0, 62, 0
2, 650992, Note_on_c, 0, 59, 72
2, 651040, Note_on_c, 0, 56, 71
2, 651076, Note_on_c, 0, 33, 0
2, 651080, Note_on_c, 0, 59, 0
2, 651092, Note_on_c, 0, 45, 0
2, 651100, Note_on_c, 0, 56, 0
2, 651104, Note_on_c, 0, 83, 101
2, 651104, Note_on_c, 0, 71, 88
2, 651104, Note_on_c, 0, 80, 88
2, 651104, Note_on_c, 0, 57, 79
2, 651104, Note_on_c, 0, 45, 82
2, 651104, Note_on_c, 0, 53, 83
2, 651152, Note_on_c, 0, 53, 0
2, 651152, Note_on_c, 0, 71, 0
2, 651152, Note_on_c, 0, 80, 0
2, 651152, Note_on_c, 0, 57, 0
2, 651152, Note_on_c, 0, 45, 0
2, 651156, Note_on_c, 0, 83, 0
2, 651216, Note_on_c, 0, 60, 113
2, 651216, Note_on_c, 0, 36, 77
2, 651216, Note_on_c, 0, 48, 88
2, 651216, Note_on_c, 0, 84, 95
2, 651216, Note_on_c, 0, 81, 90
2, 651216, Note_on_c, 0, 72, 93
2, 651216, Note_on_c, 0, 57, 87
2, 651272, Control_c, 0, 64, 24
2, 651280, Note_on_c, 0, 57, 0
2, 651280, Note_on_c, 0, 81, 0
2, 651280, Note_on_c, 0, 72, 0
2, 651280, Control_c, 0, 64, 88
2, 651288, Control_c, 0, 64, 127
2, 651320, Note_on_c, 0, 84, 0
2, 651404, Note_on_c, 0, 48, 0
2, 651404, Note_on_c, 0, 36, 0
2, 651420, Note_on_c, 0, 60, 0
2, 651452, Note_on_c, 0, 62, 88
2, 651500, Note_on_c, 0, 60, 98
2, 651520, Note_on_c, 0, 62, 0
2, 651552, Control_c, 0, 64, 104
2, 651560, Note_on_c, 0, 59, 103
2, 651560, Note_on_c, 0, 47, 95
2, 651560, Control_c, 0, 64, 56
2, 651564, Note_on_c, 0, 60, 0
2, 651564, Note_on_c, 0, 35, 85
2, 651572, Control_c, 0, 64, 24
2, 651584, Control_c, 0, 64, 0
2, 651592, Note_on_c, 0, 35, 0
2, 651604, Note_on_c, 0, 47, 0
2, 651788, Note_on_c, 0, 59, 0
2, 651800, Note_on_c, 0, 45, 93
2, 651800, Note_on_c, 0, 57, 94
2, 651804, Note_on_c, 0, 33, 78
2, 651820, Note_on_c, 0, 45, 0
2, 651832, Note_on_c, 0, 33, 0
2, 651860, Note_on_c, 0, 57, 0
2, 651900, Note_on_c, 0, 55, 117
2, 651908, Note_on_c, 0, 43, 93
2, 651916, Note_on_c, 0, 31, 88
2, 651964, Control_c, 0, 64, 24
2, 651976, Control_c, 0, 64, 104
2, 651988, Control_c, 0, 64, 127
2, 652068, Note_on_c, 0, 55, 0
2, 652100, Note_on_c, 0, 31, 0
2, 652112, Note_on_c, 0, 57, 75
2, 652124, Note_on_c, 0, 43, 0
2, 652164, Note_on_c, 0, 55, 93
2, 652184, Note_on_c, 0, 57, 0
2, 652216, Note_on_c, 0, 55, 0
2, 652220, Note_on_c, 0, 53, 99
2, 652236, Note_on_c, 0, 29, 84
2, 652236, Note_on_c, 0, 41, 93
2, 652236, Control_c, 0, 64, 72
2, 652248, Control_c, 0, 64, 40
2, 652256, Control_c, 0, 64, 0
2, 652272, Note_on_c, 0, 41, 0
2, 652276, Note_on_c, 0, 29, 0
2, 652280, Note_on_c, 0, 53, 0
2, 652456, Note_on_c, 0, 52, 75
2, 652460, Note_on_c, 0, 40, 71
2, 652480, Note_on_c, 0, 28, 51
2, 652488, Note_on_c, 0, 40, 0
2, 652500, Note_on_c, 0, 28, 0
2, 652524, Note_on_c, 0, 52, 0
2, 652568, Note_on_c, 0, 51, 101
2, 652572, Note_on_c, 0, 39, 94
2, 652580, Note_on_c, 0, 27, 88
2, 652624, Control_c, 0, 64, 88
2, 652636, Control_c, 0, 64, 127
2, 652668, Note_on_c, 0, 54, 89
2, 652684, Note_on_c, 0, 51, 0
2, 652716, Note_on_c, 0, 54, 0
2, 652772, Note_on_c, 0, 57, 85
2, 652852, Note_on_c, 0, 57, 0
2, 652880, Note_on_c, 0, 60, 98
2, 652880, Note_on_c, 0, 78, 101
2, 652880, Note_on_c, 0, 66, 98
2, 652880, Note_on_c, 0, 72, 98
2, 652880, Note_on_c, 0, 69, 98
2, 652880, Note_on_c, 0, 51, 89
2, 652880, Note_on_c, 0, 39, 93
2, 652944, Note_on_c, 0, 51, 0
2, 652944, Note_on_c, 0, 69, 0
2, 652944, Note_on_c, 0, 78, 0
2, 652944, Note_on_c, 0, 66, 0
2, 652944, Note_on_c, 0, 39, 0
2, 652944, Note_on_c, 0, 72, 0
2, 652964, Note_on_c, 0, 60, 0
2, 652980, Note_on_c, 0, 66, 88
2, 653068, Note_on_c, 0, 66, 0
2, 653072, Note_on_c, 0, 69, 94
2, 653120, Note_on_c, 0, 27, 0
2, 653120, Note_on_c, 0, 39, 0
2, 653128, Note_on_c, 0, 69, 0
2, 653196, Note_on_c, 0, 38, 92
2, 653196, Note_on_c, 0, 26, 85
2, 653196, Note_on_c, 0, 52, 99
2, 653236, Control_c, 0, 64, 56
2, 653244, Control_c, 0, 64, 0
2, 653300, Note_on_c, 0, 56, 91
2, 653328, Note_on_c, 0, 52, 0
2, 653340, Control_c, 0, 64, 88
2, 653352, Control_c, 0, 64, 127
2, 653408, Note_on_c, 0, 59, 90
2, 653420, Note_on_c, 0, 56, 0
2, 653448, Note_on_c, 0, 59, 0
2, 653516, Note_on_c, 0, 64, 97
2, 653516, Note_on_c, 0, 80, 101
2, 653516, Note_on_c, 0, 68, 93
2, 653516, Note_on_c, 0, 76, 93
2, 653516, Note_on_c, 0, 71, 93
2, 653516, Note_on_c, 0, 38, 93
2, 653516, Note_on_c, 0, 50, 97
2, 653580, Note_on_c, 0, 50, 0
2, 653580, Note_on_c, 0, 71, 0
2, 653580, Note_on_c, 0, 80, 0
2, 653580, Note_on_c, 0, 68, 0
2, 653580, Note_on_c, 0, 38, 0
2, 653580, Note_on_c, 0, 76, 0
2, 653620, Note_on_c, 0, 68, 88
2, 653652, Note_on_c, 0, 64, 0
2, 653704, Note_on_c, 0, 68, 0
2, 653716, Note_on_c, 0, 71, 103
2, 653728, Note_on_c, 0, 26, 0
2, 653736, Note_on_c, 0, 38, 0
2, 653768, Note_on_c, 0, 71, 0
2, 653808, Note_on_c, 0, 64, 98
2, 653828, Control_c, 0, 64, 56
2, 653840, Control_c, 0, 64, 0
2, 653872, Note_on_c, 0, 36, 96
2, 653872, Note_on_c, 0, 24, 93
2, 653872, Note_on_c, 0, 76, 112
2, 653904, Note_on_c, 0, 64, 0
2, 653908, Note_on_c, 0, 36, 0
2, 653912, Note_on_c, 0, 24, 0
2, 653932, Note_on_c, 0, 76, 0
2, 654016, Control_c, 0, 64, 40
2, 654024, Control_c, 0, 64, 56
2, 654036, Control_c, 0, 64, 72
2, 654048, Control_c, 0, 64, 88
2, 654076, Control_c, 0, 64, 104
2, 654104, Note_on_c, 0, 74, 104
2, 654104, Note_on_c, 0, 86, 106
2, 654104, Note_on_c, 0, 83, 101
2, 654104, Note_on_c, 0, 77, 101
2, 654104, Note_on_c, 0, 50, 93
2, 654108, Note_on_c, 0, 71, 92
2, 654116, Note_on_c, 0, 65, 63
2, 654116, Note_on_c, 0, 38, 86
2, 654124, Note_on_c, 0, 26, 78
2, 654128, Note_on_c, 0, 71, 0
2, 654136, Note_on_c, 0, 65, 0
2, 654140, Note_on_c, 0, 74, 0
2, 654148, Note_on_c, 0, 26, 0
2, 654156, Note_on_c, 0, 38, 0
2, 654160, Control_c, 0, 64, 72
2, 654168, Note_on_c, 0, 77, 0
2, 654168, Note_on_c, 0, 50, 0
2, 654168, Note_on_c, 0, 86, 0
2, 654168, Note_on_c, 0, 83, 0
2, 654188, Control_c, 0, 64, 56
2, 654192, Note_on_c, 0, 64, 96
2, 654200, Control_c, 0, 64, 24
2, 654208, Control_c, 0, 64, 0
2, 654212, Note_on_c, 0, 28, 82
2, 654212, Note_on_c, 0, 69, 99
2, 654212, Note_on_c, 0, 72, 105
2, 654212, Note_on_c, 0, 40, 85
2, 654212, Note_on_c, 0, 84, 105
2, 654212, Note_on_c, 0, 81, 101
2, 654212, Note_on_c, 0, 76, 93
2, 654212, Note_on_c, 0, 52, 93
2, 654504, Control_c, 0, 64, 24
2, 654516, Control_c, 0, 64, 56
2, 654524, Control_c, 0, 64, 88
2, 654536, Control_c, 0, 64, 104
2, 654548, Control_c, 0, 64, 127
2, 654648, Note_on_c, 0, 84, 0
2, 654652, Note_on_c, 0, 28, 0
2, 654656, Note_on_c, 0, 72, 0
2, 654656, Note_on_c, 0, 69, 0
2, 654672, Note_on_c, 0, 64, 0
2, 654676, Note_on_c, 0, 52, 0
2, 654676, Note_on_c, 0, 76, 0
2, 654676, Note_on_c, 0, 81, 0
2, 654688, Note_on_c, 0, 40, 0
2, 654892, Control_c, 0, 64, 88
2, 654904, Note_on_c, 0, 71, 103
2, 654904, Note_on_c, 0, 68, 87
2, 654904, Note_on_c, 0, 83, 98
2, 654904, Note_on_c, 0, 80, 95
2, 654904, Note_on_c, 0, 76, 95
2, 654904, Note_on_c, 0, 52, 95
2, 654904, Control_c, 0, 64, 40
2, 654912, Note_on_c, 0, 28, 74
2, 654912, Note_on_c, 0, 64, 90
2, 654912, Note_on_c, 0, 40, 74
2, 654916, Control_c, 0, 64, 0
2, 654980, Control_c, 0, 64, 40
2, 654984, Note_on_c, 0, 64, 0
2, 654984, Note_on_c, 0, 28, 0
2, 654992, Control_c, 0, 64, 88
2, 655004, Control_c, 0, 64, 127
2, 655008, Note_on_c, 0, 40, 0
2, 655016, Note_on_c, 0, 68, 0
2, 655028, Note_on_c, 0, 71, 0
2, 655064, Note_on_c, 0, 76, 0
2, 655064, Note_on_c, 0, 80, 0
2, 655064, Note_on_c, 0, 52, 0
2, 655064, Note_on_c, 0, 83, 0
2, 655252, Control_c, 0, 64, 88
2, 655260, Note_on_c, 0, 72, 111
2, 655264, Control_c, 0, 64, 56
2, 655272, Note_on_c, 0, 60, 79
2, 655272, Control_c, 0, 64, 0
2, 655280, Note_on_c, 0, 48, 78
2, 655348, Control_c, 0, 64, 56
2, 655360, Control_c, 0, 64, 104
2, 655372, Control_c, 0, 64, 127
2, 655460, Note_on_c, 0, 72, 0
2, 655468, Note_on_c, 0, 48, 0
2, 655484, Note_on_c, 0, 60, 0
2, 655488, Note_on_c, 0, 74, 92
2, 655544, Note_on_c, 0, 72, 96
2, 655560, Note_on_c, 0, 74, 0
2, 655604, Note_on_c, 0, 71, 103
2, 655608, Note_on_c, 0, 72, 0
2, 655608, Control_c, 0, 64, 104
2, 655620, Note_on_c, 0, 59, 88
2, 655620, Control_c, 0, 64, 56
2, 655624, Note_on_c, 0, 47, 83
2, 655632, Control_c, 0, 64, 24
2, 655640, Control_c, 0, 64, 0
2, 655648, Note_on_c, 0, 47, 0
2, 655660, Note_on_c, 0, 59, 0
2, 655836, Note_on_c, 0, 71, 0
2, 655848, Note_on_c, 0, 69, 98
2, 655856, Note_on_c, 0, 57, 83
2, 655864, Note_on_c, 0, 45, 87
2, 655884, Note_on_c, 0, 45, 0
2, 655888, Note_on_c, 0, 57, 0
2, 655912, Note_on_c, 0, 69, 0
2, 655944, Note_on_c, 0, 67, 106
2, 655968, Note_on_c, 0, 55, 88
2, 655976, Note_on_c, 0, 43, 86
2, 656000, Control_c, 0, 64, 24
2, 656008, Control_c, 0, 64, 88
2, 656020, Control_c, 0, 64, 127
2, 656120, Note_on_c, 0, 67, 0
2, 656148, Note_on_c, 0, 69, 90
2, 656164, Note_on_c, 0, 43, 0
2, 656172, Note_on_c, 0, 55, 0
2, 656208, Note_on_c, 0, 67, 94
2, 656228, Note_on_c, 0, 69, 0
2, 656260, Note_on_c, 0, 65, 103
2, 656268, Note_on_c, 0, 67, 0
2, 656268, Control_c, 0, 64, 72
2, 656272, Note_on_c, 0, 53, 91
2, 656276, Note_on_c, 0, 41, 84
2, 656280, Control_c, 0, 64, 40
2, 656292, Control_c, 0, 64, 0
2, 656312, Note_on_c, 0, 41, 0
2, 656312, Note_on_c, 0, 53, 0
2, 656332, Note_on_c, 0, 65, 0
2, 656492, Note_on_c, 0, 64, 91
2, 656496, Note_on_c, 0, 52, 91
2, 656504, Note_on_c, 0, 40, 83
2, 656540, Note_on_c, 0, 40, 0
2, 656540, Note_on_c, 0, 52, 0
2, 656576, Note_on_c, 0, 64, 0
2, 656592, Note_on_c, 0, 63, 93
2, 656612, Note_on_c, 0, 51, 84
2, 656612, Note_on_c, 0, 39, 78
2, 656628, Control_c, 0, 64, 24
2, 656640, Control_c, 0, 64, 88
2, 656652, Control_c, 0, 64, 127
2, 656688, Note_on_c, 0, 66, 87
2, 656708, Note_on_c, 0, 63, 0
2, 656744, Note_on_c, 0, 66, 0
2, 656796, Note_on_c, 0, 69, 98
2, 656896, Note_on_c, 0, 72, 101
2, 656896, Note_on_c, 0, 78, 101
2, 656896, Note_on_c, 0, 66, 97
2, 656896, Note_on_c, 0, 69, 97
2, 656896, Note_on_c, 0, 51, 97
2, 656896, Note_on_c, 0, 39, 93
2, 656932, Note_on_c, 0, 69, 0
2, 656972, Note_on_c, 0, 72, 0
2, 656992, Note_on_c, 0, 78, 96
2, 657016, Note_on_c, 0, 69, 53
2, 657048, Note_on_c, 0, 69, 0
2, 657100, Note_on_c, 0, 81, 98
2, 657104, Note_on_c, 0, 78, 0
2, 657120, Note_on_c, 0, 51, 0
2, 657124, Note_on_c, 0, 39, 0
2, 657140, Note_on_c, 0, 81, 0
2, 657156, Note_on_c, 0, 66, 0
2, 657156, Note_on_c, 0, 39, 0
2, 657156, Note_on_c, 0, 78, 0
2, 657156, Note_on_c, 0, 69, 0
2, 657156, Note_on_c, 0, 51, 0
2, 657208, Note_on_c, 0, 64, 97
2, 657220, Note_on_c, 0, 50, 83
2, 657224, Note_on_c, 0, 38, 77
2, 657224, Control_c, 0, 64, 104
2, 657236, Control_c, 0, 64, 24
2, 657248, Control_c, 0, 64, 0
2, 657308, Note_on_c, 0, 68, 90
2, 657324, Control_c, 0, 64, 88
2, 657336, Note_on_c, 0, 64, 0
2, 657336, Control_c, 0, 64, 127
2, 657408, Note_on_c, 0, 71, 93
2, 657428, Note_on_c, 0, 68, 0
2, 657452, Note_on_c, 0, 71, 0
2, 657512, Note_on_c, 0, 76, 103
2, 657512, Note_on_c, 0, 80, 103
2, 657512, Note_on_c, 0, 68, 98
2, 657512, Note_on_c, 0, 71, 98
2, 657512, Note_on_c, 0, 50, 98
2, 657512, Note_on_c, 0, 38, 94
2, 657600, Note_on_c, 0, 80, 97
2, 657628, Note_on_c, 0, 76, 0
2, 657684, Note_on_c, 0, 80, 0
2, 657700, Note_on_c, 0, 83, 111
2, 657704, Note_on_c, 0, 50, 0
2, 657704, Note_on_c, 0, 38, 0
2, 657760, Note_on_c, 0, 83, 0
2, 657772, Note_on_c, 0, 71, 0
2, 657772, Note_on_c, 0, 68, 0
2, 657772, Note_on_c, 0, 38, 0
2, 657772, Note_on_c, 0, 80, 0
2, 657772, Note_on_c, 0, 50, 0
2, 657776, Note_on_c, 0, 76, 99
2, 657812, Control_c, 0, 64, 104
2, 657824, Control_c, 0, 64, 24
2, 657832, Control_c, 0, 64, 0
2, 657848, Note_on_c, 0, 88, 113
2, 657852, Note_on_c, 0, 48, 104
2, 657852, Note_on_c, 0, 36, 94
2, 657888, Note_on_c, 0, 36, 0
2, 657888, Note_on_c, 0, 48, 0
2, 657892, Note_on_c, 0, 76, 0
2, 657908, Note_on_c, 0, 88, 0
2, 657996, Control_c, 0, 64, 24
2, 658004, Control_c, 0, 64, 40
2, 658016, Control_c, 0, 64, 56
2, 658040, Control_c, 0, 64, 72
2, 658048, Control_c, 0, 64, 88
2, 658072, Control_c, 0, 64, 104
2, 658084, Note_on_c, 0, 86, 104
2, 658084, Note_on_c, 0, 77, 94
2, 658088, Note_on_c, 0, 74, 103
2, 658088, Note_on_c, 0, 83, 98
2, 658088, Note_on_c, 0, 50, 88
2, 658096, Note_on_c, 0, 38, 79
2, 658112, Note_on_c, 0, 83, 0
2, 658116, Note_on_c, 0, 38, 0
2, 658120, Note_on_c, 0, 86, 0
2, 658128, Note_on_c, 0, 50, 0
2, 658128, Note_on_c, 0, 74, 0
2, 658132, Note_on_c, 0, 77, 0
2, 658148, Control_c, 0, 64, 72
2, 658156, Control_c, 0, 64, 56
2, 658168, Control_c, 0, 64, 40
2, 658180, Note_on_c, 0, 84, 113
2, 658180, Note_on_c, 0, 76, 94
2, 658180, Control_c, 0, 64, 24
2, 658184, Note_on_c, 0, 72, 112
2, 658184, Note_on_c, 0, 81, 106
2, 658192, Note_on_c, 0, 52, 93
2, 658192, Control_c, 0, 64, 0
2, 658196, Note_on_c, 0, 40, 86
2, 658228, Note_on_c, 0, 76, 0
2, 658408, Control_c, 0, 64, 40
2, 658416, Control_c, 0, 64, 88
2, 658428, Control_c, 0, 64, 104
2, 658440, Control_c, 0, 64, 127
2, 658632, Note_on_c, 0, 81, 0
2, 658636, Note_on_c, 0, 84, 0
2, 658660, Note_on_c, 0, 72, 0
2, 658668, Note_on_c, 0, 52, 0
2, 658672, Note_on_c, 0, 40, 0
2, 658868, Note_on_c, 0, 80, 89
2, 658872, Note_on_c, 0, 83, 101
2, 658872, Note_on_c, 0, 71, 88
2, 658872, Note_on_c, 0, 76, 94
2, 658880, Note_on_c, 0, 50, 89
2, 658884, Note_on_c, 0, 38, 81
2, 658912, Note_on_c, 0, 71, 0
2, 658920, Note_on_c, 0, 76, 0
2, 658928, Note_on_c, 0, 50, 0
2, 658932, Note_on_c, 0, 38, 0
2, 658940, Note_on_c, 0, 80, 0
2, 658956, Note_on_c, 0, 83, 0
2, 659080, Note_on_c, 0, 76, 98
2, 659172, Note_on_c, 0, 88, 108
2, 659180, Note_on_c, 0, 84, 88
2, 659180, Note_on_c, 0, 48, 95
2, 659180, Note_on_c, 0, 36, 85
2, 659180, Control_c, 0, 64, 72
2, 659188, Control_c, 0, 64, 40
2, 659196, Control_c, 0, 64, 24
2, 659212, Control_c, 0, 64, 0
2, 659216, Note_on_c, 0, 36, 0
2, 659216, Note_on_c, 0, 48, 0
2, 659220, Note_on_c, 0, 84, 0
2, 659220, Note_on_c, 0, 76, 0
2, 659232, Note_on_c, 0, 88, 0
2, 659420, Note_on_c, 0, 86, 103
2, 659420, Note_on_c, 0, 77, 94
2, 659424, Note_on_c, 0, 83, 98
2, 659424, Note_on_c, 0, 74, 97
2, 659436, Note_on_c, 0, 50, 92
2, 659440, Note_on_c, 0, 38, 84
2, 659448, Note_on_c, 0, 83, 0
2, 659452, Note_on_c, 0, 50, 0
2, 659456, Note_on_c, 0, 74, 0
2, 659456, Note_on_c, 0, 86, 0
2, 659456, Note_on_c, 0, 38, 0
2, 659468, Note_on_c, 0, 77, 0
2, 659512, Note_on_c, 0, 84, 107
2, 659512, Note_on_c, 0, 76, 94
2, 659520, Note_on_c, 0, 72, 103
2, 659520, Note_on_c, 0, 81, 101
2, 659532, Note_on_c, 0, 52, 94
2, 659536, Note_on_c, 0, 40, 88
2, 659560, Note_on_c, 0, 76, 0
2, 659696, Control_c, 0, 64, 24
2, 659708, Control_c, 0, 64, 56
2, 659720, Control_c, 0, 64, 88
2, 659732, Control_c, 0, 64, 127
2, 659932, Note_on_c, 0, 81, 0
2, 659964, Note_on_c, 0, 84, 0
2, 659988, Note_on_c, 0, 72, 0
2, 659992, Note_on_c, 0, 40, 0
2, 660000, Note_on_c, 0, 52, 0
2, 660188, Note_on_c, 0, 83, 106
2, 660188, Note_on_c, 0, 80, 94
2, 660188, Note_on_c, 0, 76, 94
2, 660188, Control_c, 0, 64, 88
2, 660192, Note_on_c, 0, 71, 94
2, 660196, Control_c, 0, 64, 40
2, 660204, Note_on_c, 0, 52, 88
2, 660208, Note_on_c, 0, 40, 82
2, 660208, Control_c, 0, 64, 24
2, 660220, Control_c, 0, 64, 0
2, 660228, Control_c, 0, 64, 24
2, 660236, Note_on_c, 0, 76, 0
2, 660240, Control_c, 0, 64, 56
2, 660252, Control_c, 0, 64, 104
2, 660264, Control_c, 0, 64, 127
2, 660276, Note_on_c, 0, 52, 0
2, 660288, Note_on_c, 0, 40, 0
2, 660312, Note_on_c, 0, 83, 0
2, 660316, Note_on_c, 0, 80, 0
2, 660320, Note_on_c, 0, 71, 0
2, 660544, Note_on_c, 0, 81, 108
2, 660544, Note_on_c, 0, 33, 83
2, 660544, Note_on_c, 0, 45, 94
2, 660548, Note_on_c, 0, 69, 98
2, 660560, Note_on_c, 0, 45, 68
2, 660568, Note_on_c, 0, 33, 63
2, 660572, Note_on_c, 0, 76, 94
2, 660572, Note_on_c, 0, 72, 94
2, 660608, Control_c, 0, 64, 56
2, 660620, Control_c, 0, 64, 0
2, 660800, Note_on_c, 0, 33, 0
2, 660804, Note_on_c, 0, 45, 0
2, 660836, Note_on_c, 0, 69, 0
2, 660904, Note_on_c, 0, 78, 90
2, 660908, Note_on_c, 0, 61, 73
2, 660908, Note_on_c, 0, 64, 87
2, 660944, Note_on_c, 0, 76, 0
2, 660948, Note_on_c, 0, 81, 0
2, 660948, Note_on_c, 0, 72, 0
2, 660996, Control_c, 0, 64, 24
2, 661016, Note_on_c, 0, 79, 96
2, 661020, Control_c, 0, 64, 40
2, 661032, Note_on_c, 0, 78, 0
2, 661044, Control_c, 0, 64, 56
2, 661056, Control_c, 0, 64, 72
2, 661088, Control_c, 0, 64, 88
2, 661116, Note_on_c, 0, 67, 79
2, 661124, Control_c, 0, 64, 104
2, 661184, Control_c, 0, 64, 56
2, 661196, Control_c, 0, 64, 0
2, 661208, Note_on_c, 0, 79, 0
2, 661212, Note_on_c, 0, 67, 0
2, 661228, Note_on_c, 0, 77, 96
2, 661232, Note_on_c, 0, 62, 83
2, 661260, Note_on_c, 0, 61, 0
2, 661288, Note_on_c, 0, 64, 0
2, 661300, Control_c, 0, 64, 56
2, 661312, Note_on_c, 0, 33, 0
2, 661312, Control_c, 0, 64, 127
2, 661328, Note_on_c, 0, 77, 0
2, 661328, Note_on_c, 0, 78, 89
2, 661332, Note_on_c, 0, 45, 0
2, 661420, Note_on_c, 0, 66, 72
2, 661468, Note_on_c, 0, 78, 0
2, 661492, Note_on_c, 0, 66, 0
2, 661504, Note_on_c, 0, 62, 0
2, 661524, Control_c, 0, 64, 56
2, 661528, Note_on_c, 0, 76, 88
2, 661528, Note_on_c, 0, 68, 78
2, 661532, Note_on_c, 0, 59, 64
2, 661536, Control_c, 0, 64, 0
2, 661568, Note_on_c, 0, 57, 53
2, 661608, Control_c, 0, 64, 40
2, 661620, Control_c, 0, 64, 72
2, 661624, Note_on_c, 0, 76, 0
2, 661632, Note_on_c, 0, 77, 97
2, 661632, Control_c, 0, 64, 88
2, 661664, Control_c, 0, 64, 104
2, 661724, Note_on_c, 0, 77, 0
2, 661732, Note_on_c, 0, 65, 80
2, 661800, Note_on_c, 0, 68, 0
2, 661808, Control_c, 0, 64, 40
2, 661820, Control_c, 0, 64, 0
2, 661828, Note_on_c, 0, 59, 0
2, 661840, Note_on_c, 0, 69, 92
2, 661844, Note_on_c, 0, 75, 93
2, 661852, Note_on_c, 0, 65, 0
2, 661852, Note_on_c, 0, 60, 73
2, 661888, Control_c, 0, 64, 24
2, 661900, Control_c, 0, 64, 56
2, 661912, Control_c, 0, 64, 88
2, 661924, Control_c, 0, 64, 104
2, 661940, Note_on_c, 0, 75, 0
2, 661948, Note_on_c, 0, 76, 93
2, 661972, Control_c, 0, 64, 127
2, 662032, Note_on_c, 0, 76, 0
2, 662036, Note_on_c, 0, 64, 81
2, 662084, Note_on_c, 0, 69, 0
2, 662116, Note_on_c, 0, 60, 0
2, 662120, Note_on_c, 0, 64, 0
2, 662136, Control_c, 0, 64, 72
2, 662144, Note_on_c, 0, 67, 87
2, 662148, Note_on_c, 0, 75, 94
2, 662148, Control_c, 0, 64, 24
2, 662160, Control_c, 0, 64, 0
2, 662164, Note_on_c, 0, 58, 59
2, 662204, Control_c, 0, 64, 24
2, 662216, Control_c, 0, 64, 56
2, 662228, Control_c, 0, 64, 72
2, 662240, Control_c, 0, 64, 104
2, 662244, Note_on_c, 0, 75, 0
2, 662252, Note_on_c, 0, 76, 97
2, 662288, Control_c, 0, 64, 127
2, 662344, Note_on_c, 0, 64, 81
2, 662388, Note_on_c, 0, 76, 0
2, 662392, Note_on_c, 0, 67, 0
2, 662416, Note_on_c, 0, 64, 0
2, 662428, Control_c, 0, 64, 88
2, 662440, Note_on_c, 0, 58, 0
2, 662440, Control_c, 0, 64, 40
2, 662444, Note_on_c, 0, 74, 93
2, 662452, Control_c, 0, 64, 0
2, 662460, Note_on_c, 0, 66, 82
2, 662464, Note_on_c, 0, 59, 78
2, 662512, Control_c, 0, 64, 24
2, 662524, Control_c, 0, 64, 56
2, 662536, Control_c, 0, 64, 72
2, 662540, Note_on_c, 0, 74, 0
2, 662544, Note_on_c, 0, 75, 95
2, 662548, Control_c, 0, 64, 88
2, 662560, Control_c, 0, 64, 104
2, 662608, Control_c, 0, 64, 127
2, 662628, Note_on_c, 0, 75, 0
2, 662628, Note_on_c, 0, 59, 0
2, 662644, Note_on_c, 0, 63, 74
2, 662684, Note_on_c, 0, 66, 0
2, 662724, Note_on_c, 0, 63, 0
2, 662724, Control_c, 0, 64, 88
2, 662732, Note_on_c, 0, 65, 85
2, 662736, Control_c, 0, 64, 40
2, 662744, Note_on_c, 0, 56, 69
2, 662748, Note_on_c, 0, 73, 91
2, 662748, Control_c, 0, 64, 0
2, 662816, Note_on_c, 0, 57, 0
2, 662816, Control_c, 0, 64, 40
2, 662832, Control_c, 0, 64, 72
2, 662836, Note_on_c, 0, 73, 0
2, 662840, Control_c, 0, 64, 88
2, 662848, Note_on_c, 0, 74, 94
2, 662888, Control_c, 0, 64, 104
2, 662932, Note_on_c, 0, 74, 0
2, 662944, Note_on_c, 0, 62, 79
2, 662956, Note_on_c, 0, 65, 0
2, 663016, Control_c, 0, 64, 40
2, 663028, Control_c, 0, 64, 0
2, 663032, Note_on_c, 0, 62, 0
2, 663044, Note_on_c, 0, 64, 86
2, 663052, Note_on_c, 0, 57, 80
2, 663056, Note_on_c, 0, 71, 88
2, 663112, Control_c, 0, 64, 40
2, 663120, Note_on_c, 0, 56, 0
2, 663124, Control_c, 0, 64, 56
2, 663136, Note_on_c, 0, 57, 0
2, 663140, Note_on_c, 0, 71, 0
2, 663144, Note_on_c, 0, 72, 97
2, 663164, Note_on_c, 0, 64, 0
2, 663180, Control_c, 0, 64, 72
2, 663232, Note_on_c, 0, 60, 74
2, 663284, Note_on_c, 0, 60, 0
2, 663300, Control_c, 0, 64, 56
2, 663308, Control_c, 0, 64, 40
2, 663332, Note_on_c, 0, 72, 0
2, 663336, Control_c, 0, 64, 0
2, 663348, Note_on_c, 0, 62, 88
2, 663352, Note_on_c, 0, 50, 88
2, 663360, Note_on_c, 0, 71, 93
2, 663360, Note_on_c, 0, 74, 90
2, 663360, Note_on_c, 0, 65, 84
2, 663360, Note_on_c, 0, 38, 81
2, 663408, Note_on_c, 0, 38, 0
2, 663408, Note_on_c, 0, 74, 0
2, 663408, Note_on_c, 0, 65, 0
2, 663456, Note_on_c, 0, 71, 0
2, 663456, Note_on_c, 0, 74, 93
2, 663468, Note_on_c, 0, 65, 83
2, 663540, Note_on_c, 0, 65, 0
2, 663568, Note_on_c, 0, 72, 101
2, 663584, Note_on_c, 0, 74, 0
2, 663636, Note_on_c, 0, 72, 0
2, 663676, Note_on_c, 0, 52, 92
2, 663680, Note_on_c, 0, 72, 96
2, 663680, Note_on_c, 0, 60, 88
2, 663680, Note_on_c, 0, 69, 88
2, 663680, Note_on_c, 0, 40, 84
2, 663688, Note_on_c, 0, 64, 83
2, 663692, Note_on_c, 0, 50, 0
2, 663692, Note_on_c, 0, 62, 0
2, 663728, Note_on_c, 0, 69, 0
2, 663728, Note_on_c, 0, 64, 0
2, 663728, Note_on_c, 0, 60, 0
2, 663728, Note_on_c, 0, 40, 0
2, 663736, Note_on_c, 0, 72, 0
2, 663744, Note_on_c, 0, 52, 0
2, 663996, Note_on_c, 0, 71, 94
2, 663996, Note_on_c, 0, 59, 84
2, 663996, Note_on_c, 0, 64, 84
2, 663996, Note_on_c, 0, 52, 84
2, 664000, Note_on_c, 0, 62, 83
2, 664000, Note_on_c, 0, 40, 96
2, 664008, Note_on_c, 0, 68, 73
2, 664040, Note_on_c, 0, 40, 0
2, 664044, Note_on_c, 0, 64, 0
2, 664044, Note_on_c, 0, 59, 0
2, 664044, Note_on_c, 0, 52, 0
2, 664052, Note_on_c, 0, 68, 0
2, 664052, Note_on_c, 0, 62, 0
2, 664060, Note_on_c, 0, 71, 0
2, 664328, Note_on_c, 0, 69, 92
2, 664328, Note_on_c, 0, 57, 84
2, 664332, Note_on_c, 0, 45, 91
2, 664336, Note_on_c, 0, 60, 81
2, 664644, Note_on_c, 0, 66, 84
2, 664652, Note_on_c, 0, 52, 74
2, 664656, Note_on_c, 0, 49, 61
2, 664676, Note_on_c, 0, 57, 0
2, 664708, Note_on_c, 0, 69, 0
2, 664720, Note_on_c, 0, 60, 0
2, 664748, Note_on_c, 0, 67, 89
2, 664752, Note_on_c, 0, 66, 0
2, 664844, Note_on_c, 0, 55, 76
2, 664944, Note_on_c, 0, 67, 0
2, 664956, Note_on_c, 0, 55, 0
2, 664968, Note_on_c, 0, 50, 82
2, 664972, Note_on_c, 0, 52, 0
2, 664980, Note_on_c, 0, 65, 83
2, 665008, Note_on_c, 0, 49, 0
2, 665076, Note_on_c, 0, 65, 0
2, 665076, Note_on_c, 0, 66, 84
2, 665172, Note_on_c, 0, 54, 79
2, 665232, Note_on_c, 0, 66, 0
2, 665256, Note_on_c, 0, 54, 0
2, 665272, Note_on_c, 0, 56, 75
2, 665280, Note_on_c, 0, 47, 71
2, 665284, Note_on_c, 0, 64, 86
2, 665384, Note_on_c, 0, 64, 0
2, 665384, Note_on_c, 0, 65, 93
2, 665436, Note_on_c, 0, 45, 0
2, 665468, Note_on_c, 0, 65, 0
2, 665484, Note_on_c, 0, 53, 86
2, 665524, Note_on_c, 0, 56, 0
2, 665544, Note_on_c, 0, 50, 0
2, 665556, Note_on_c, 0, 47, 0
2, 665576, Note_on_c, 0, 57, 85
2, 665576, Note_on_c, 0, 48, 72
2, 665596, Note_on_c, 0, 53, 0
2, 665596, Note_on_c, 0, 63, 87
2, 665700, Note_on_c, 0, 63, 0
2, 665712, Note_on_c, 0, 64, 93
2, 665816, Note_on_c, 0, 52, 84
2, 665824, Note_on_c, 0, 64, 0
2, 665856, Note_on_c, 0, 57, 0
2, 665884, Note_on_c, 0, 48, 0
2, 665916, Note_on_c, 0, 55, 94
2, 665924, Note_on_c, 0, 63, 83
2, 665936, Note_on_c, 0, 46, 71
2, 665984, Note_on_c, 0, 52, 0
2, 666024, Note_on_c, 0, 63, 0
2, 666028, Note_on_c, 0, 64, 94
2, 666128, Note_on_c, 0, 64, 0
2, 666128, Note_on_c, 0, 52, 83
2, 666176, Note_on_c, 0, 55, 0
2, 666208, Note_on_c, 0, 52, 0
2, 666244, Note_on_c, 0, 62, 88
2, 666256, Note_on_c, 0, 54, 79
2, 666260, Note_on_c, 0, 47, 83
2, 666336, Note_on_c, 0, 62, 0
2, 666336, Note_on_c, 0, 63, 89
2, 666356, Note_on_c, 0, 46, 0
2, 666432, Note_on_c, 0, 51, 82
2, 666476, Note_on_c, 0, 63, 0
2, 666516, Note_on_c, 0, 54, 0
2, 666520, Note_on_c, 0, 51, 0
2, 666524, Note_on_c, 0, 47, 0
2, 666528, Note_on_c, 0, 61, 84
2, 666540, Note_on_c, 0, 53, 84
2, 666560, Note_on_c, 0, 47, 47
2, 666564, Note_on_c, 0, 44, 70
2, 666592, Note_on_c, 0, 47, 0
2, 666632, Note_on_c, 0, 61, 0
2, 666636, Note_on_c, 0, 62, 93
2, 666712, Note_on_c, 0, 62, 0
2, 666724, Note_on_c, 0, 50, 85
2, 666744, Note_on_c, 0, 53, 0
2, 666804, Note_on_c, 0, 50, 0
2, 666840, Note_on_c, 0, 59, 87
2, 666848, Note_on_c, 0, 52, 88
2, 666892, Note_on_c, 0, 44, 0
2, 666940, Note_on_c, 0, 60, 96
2, 666944, Note_on_c, 0, 59, 0
2, 667004, Note_on_c, 0, 52, 0
2, 667024, Note_on_c, 0, 48, 84
2, 667072, Note_on_c, 0, 48, 0
2, 667140, Note_on_c, 0, 60, 0
2, 667148, Note_on_c, 0, 59, 92
2, 667148, Note_on_c, 0, 38, 103
2, 667148, Note_on_c, 0, 74, 84
2, 667148, Note_on_c, 0, 62, 80
2, 667148, Note_on_c, 0, 71, 80
2, 667148, Note_on_c, 0, 65, 80
2, 667148, Note_on_c, 0, 50, 80
2, 667196, Note_on_c, 0, 50, 0
2, 667196, Note_on_c, 0, 71, 0
2, 667196, Note_on_c, 0, 62, 0
2, 667196, Note_on_c, 0, 74, 0
2, 667196, Note_on_c, 0, 65, 0
2, 667248, Note_on_c, 0, 62, 93
2, 667260, Note_on_c, 0, 53, 76
2, 667268, Note_on_c, 0, 59, 0
2, 667360, Note_on_c, 0, 53, 0
2, 667360, Note_on_c, 0, 62, 0
2, 667364, Note_on_c, 0, 60, 98
2, 667432, Note_on_c, 0, 60, 0
2, 667468, Note_on_c, 0, 38, 0
2, 667480, Note_on_c, 0, 60, 93
2, 667480, Note_on_c, 0, 52, 82
2, 667480, Note_on_c, 0, 40, 95
2, 667480, Note_on_c, 0, 72, 82
2, 667480, Note_on_c, 0, 69, 79
2, 667480, Note_on_c, 0, 64, 79
2, 667524, Note_on_c, 0, 52, 0
2, 667528, Note_on_c, 0, 69, 0
2, 667528, Note_on_c, 0, 72, 0
2, 667528, Note_on_c, 0, 64, 0
2, 667532, Note_on_c, 0, 40, 0
2, 667536, Note_on_c, 0, 60, 0
2, 667836, Note_on_c, 0, 59, 92
2, 667836, Note_on_c, 0, 59, 70
2, 667836, Note_on_c, 0, 40, 93
2, 667836, Note_on_c, 0, 71, 79
2, 667836, Note_on_c, 0, 68, 78
2, 667836, Note_on_c, 0, 64, 78
2, 667836, Note_on_c, 0, 52, 78
2, 667880, Note_on_c, 0, 40, 0
2, 667884, Note_on_c, 0, 64, 0
2, 667884, Note_on_c, 0, 59, 0
2, 667884, Note_on_c, 0, 71, 0
2, 667884, Note_on_c, 0, 68, 0
2, 667884, Note_on_c, 0, 52, 0
2, 667900, Note_on_c, 0, 59, 0
2, 668184, Note_on_c, 0, 33, 75
2, 668184, Note_on_c, 0, 45, 82
2, 668200, Note_on_c, 0, 72, 88
2, 668204, Note_on_c, 0, 57, 88
2, 668204, Note_on_c, 0, 33, 79
2, 668204, Note_on_c, 0, 45, 91
2, 668204, Note_on_c, 0, 60, 63
2, 668208, Note_on_c, 0, 69, 74
2, 668208, Note_on_c, 0, 57, 62
2, 668224, Note_on_c, 0, 45, 0
2, 668228, Note_on_c, 0, 33, 0
2, 668300, Note_on_c, 0, 52, 73
2, 668400, Note_on_c, 0, 57, 68
2, 668412, Note_on_c, 0, 60, 79
2, 668420, Note_on_c, 0, 52, 0
2, 668444, Note_on_c, 0, 33, 0
2, 668452, Note_on_c, 0, 60, 0
2, 668460, Note_on_c, 0, 57, 0
2, 668464, Note_on_c, 0, 57, 0
2, 668464, Note_on_c, 0, 45, 0
2, 668468, Note_on_c, 0, 60, 0
2, 668524, Note_on_c, 0, 72, 0
2, 668532, Note_on_c, 0, 57, 0
2, 668536, Note_on_c, 0, 45, 78
2, 668536, Note_on_c, 0, 33, 70
2, 668556, Note_on_c, 0, 64, 75
2, 668556, Note_on_c, 0, 59, 70
2, 668560, Note_on_c, 0, 45, 0
2, 668560, Note_on_c, 0, 52, 78
2, 668560, Note_on_c, 0, 71, 80
2, 668568, Note_on_c, 0, 33, 0
2, 668576, Note_on_c, 0, 69, 0
2, 668588, Note_on_c, 0, 59, 0
2, 668596, Note_on_c, 0, 52, 0
2, 668608, Note_on_c, 0, 64, 0
2, 668616, Note_on_c, 0, 71, 0
2, 668644, Note_on_c, 0, 52, 75
2, 668756, Note_on_c, 0, 52, 0
2, 668756, Note_on_c, 0, 62, 83
2, 668776, Note_on_c, 0, 59, 46
2, 668804, Note_on_c, 0, 57, 82
2, 668804, Note_on_c, 0, 69, 79
2, 668808, Note_on_c, 0, 48, 78
2, 668808, Note_on_c, 0, 60, 68
2, 668816, Note_on_c, 0, 59, 0
2, 668816, Note_on_c, 0, 62, 0
2, 668828, Note_on_c, 0, 48, 0
2, 668828, Note_on_c, 0, 57, 0
2, 668836, Note_on_c, 0, 69, 0
2, 668836, Note_on_c, 0, 60, 0
2, 668872, Note_on_c, 0, 45, 84
2, 668876, Note_on_c, 0, 69, 89
2, 668880, Note_on_c, 0, 60, 76
2, 668880, Note_on_c, 0, 33, 74
2, 668888, Note_on_c, 0, 48, 76
2, 668896, Note_on_c, 0, 57, 83
2, 668908, Note_on_c, 0, 33, 0
2, 668908, Note_on_c, 0, 45, 0
2, 668912, Note_on_c, 0, 48, 0
2, 668912, Note_on_c, 0, 60, 0
2, 668916, Note_on_c, 0, 57, 0
2, 668920, Note_on_c, 0, 69, 0
2, 668992, Note_on_c, 0, 52, 76
2, 669096, Note_on_c, 0, 52, 0
2, 669104, Note_on_c, 0, 60, 79
2, 669112, Note_on_c, 0, 57, 58
2, 669144, Note_on_c, 0, 57, 0
2, 669156, Note_on_c, 0, 60, 0
2, 669188, Note_on_c, 0, 45, 83
2, 669192, Note_on_c, 0, 64, 88
2, 669196, Note_on_c, 0, 52, 79
2, 669196, Note_on_c, 0, 71, 83
2, 669196, Note_on_c, 0, 33, 69
2, 669200, Note_on_c, 0, 59, 73
2, 669216, Note_on_c, 0, 52, 0
2, 669220, Note_on_c, 0, 45, 0
2, 669228, Note_on_c, 0, 33, 0
2, 669228, Note_on_c, 0, 59, 0
2, 669240, Note_on_c, 0, 64, 0
2, 669252, Note_on_c, 0, 71, 0
2, 669320, Note_on_c, 0, 52, 78
2, 669400, Note_on_c, 0, 52, 0
2, 669408, Note_on_c, 0, 62, 75
2, 669452, Note_on_c, 0, 62, 0
2, 669532, Note_on_c, 0, 45, 89
2, 669536, Note_on_c, 0, 33, 80
2, 669540, Note_on_c, 0, 72, 93
2, 669540, Note_on_c, 0, 69, 88
2, 669540, Note_on_c, 0, 60, 78
2, 669540, Note_on_c, 0, 57, 76
2, 669588, Note_on_c, 0, 33, 0
2, 669592, Note_on_c, 0, 45, 0
2, 669648, Note_on_c, 0, 52, 80
2, 669744, Note_on_c, 0, 57, 63
2, 669744, Note_on_c, 0, 60, 78
2, 669760, Note_on_c, 0, 52, 0
2, 669760, Note_on_c, 0, 60, 0
2, 669804, Note_on_c, 0, 57, 0
2, 669816, Note_on_c, 0, 60, 0
2, 669852, Note_on_c, 0, 72, 0
2, 669852, Note_on_c, 0, 45, 83
2, 669864, Note_on_c, 0, 33, 68
2, 669872, Note_on_c, 0, 64, 78
2, 669876, Note_on_c, 0, 59, 73
2, 669880, Note_on_c, 0, 71, 83
2, 669884, Note_on_c, 0, 52, 76
2, 669892, Note_on_c, 0, 33, 0
2, 669896, Note_on_c, 0, 57, 0
2, 669904, Note_on_c, 0, 45, 0
2, 669908, Note_on_c, 0, 69, 0
2, 669912, Note_on_c, 0, 52, 0
2, 669916, Note_on_c, 0, 59, 0
2, 669928, Note_on_c, 0, 64, 0
2, 669944, Note_on_c, 0, 71, 0
2, 669944, Note_on_c, 0, 52, 78
2, 670028, Note_on_c, 0, 62, 78
2, 670040, Note_on_c, 0, 52, 0
2, 670056, Note_on_c, 0, 59, 57
2, 670092, Note_on_c, 0, 62, 0
2, 670108, Note_on_c, 0, 59, 0
2, 670116, Note_on_c, 0, 69, 77
2, 670116, Note_on_c, 0, 57, 86
2, 670116, Note_on_c, 0, 60, 71
2, 670128, Note_on_c, 0, 48, 71
2, 670144, Note_on_c, 0, 60, 0
2, 670148, Note_on_c, 0, 69, 0
2, 670148, Note_on_c, 0, 57, 0
2, 670148, Note_on_c, 0, 48, 0
2, 670164, Note_on_c, 0, 45, 88
2, 670172, Note_on_c, 0, 33, 77
2, 670188, Note_on_c, 0, 60, 84
2, 670192, Note_on_c, 0, 69, 98
2, 670196, Note_on_c, 0, 33, 0
2, 670200, Note_on_c, 0, 57, 75
2, 670200, Note_on_c, 0, 48, 63
2, 670212, Note_on_c, 0, 45, 0
2, 670216, Note_on_c, 0, 60, 0
2, 670220, Note_on_c, 0, 57, 0
2, 670228, Note_on_c, 0, 48, 0
2, 670244, Note_on_c, 0, 69, 0
2, 670248, Note_on_c, 0, 52, 76
2, 670364, Note_on_c, 0, 60, 72
2, 670368, Note_on_c, 0, 57, 73
2, 670372, Note_on_c, 0, 52, 0
2, 670396, Note_on_c, 0, 57, 0
2, 670420, Note_on_c, 0, 60, 0
2, 670520, Note_on_c, 0, 79, 95
2, 670524, Note_on_c, 0, 67, 84
2, 670524, Note_on_c, 0, 47, 96
2, 670528, Note_on_c, 0, 74, 83
2, 670528, Note_on_c, 0, 35, 88
2, 670540, Note_on_c, 0, 59, 71
2, 670544, Note_on_c, 0, 47, 72
2, 670616, Note_on_c, 0, 55, 88
2, 670692, Note_on_c, 0, 35, 0
2, 670716, Note_on_c, 0, 62, 68
2, 670732, Note_on_c, 0, 55, 0
2, 670732, Note_on_c, 0, 67, 82
2, 670764, Note_on_c, 0, 59, 0
2, 670808, Note_on_c, 0, 62, 0
2, 670808, Note_on_c, 0, 67, 0
2, 670824, Note_on_c, 0, 47, 0
2, 670824, Note_on_c, 0, 47, 0
2, 670856, Note_on_c, 0, 74, 0
2, 670864, Note_on_c, 0, 79, 0
2, 670872, Note_on_c, 0, 36, 89
2, 670876, Note_on_c, 0, 76, 86
2, 670880, Note_on_c, 0, 48, 78
2, 670880, Note_on_c, 0, 72, 77
2, 670880, Note_on_c, 0, 48, 91
2, 670884, Note_on_c, 0, 60, 72
2, 670928, Note_on_c, 0, 36, 0
2, 670940, Note_on_c, 0, 48, 0
2, 670976, Note_on_c, 0, 48, 0
2, 670984, Note_on_c, 0, 55, 83
2, 671020, Note_on_c, 0, 72, 0
2, 671060, Note_on_c, 0, 64, 81
2, 671064, Note_on_c, 0, 55, 0
2, 671068, Note_on_c, 0, 60, 60
2, 671076, Note_on_c, 0, 60, 0
2, 671100, Note_on_c, 0, 60, 0
2, 671120, Note_on_c, 0, 64, 0
2, 671144, Note_on_c, 0, 76, 0
2, 671144, Note_on_c, 0, 67, 0
2, 671208, Note_on_c, 0, 38, 94
2, 671216, Note_on_c, 0, 74, 90
2, 671216, Note_on_c, 0, 65, 81
2, 671216, Note_on_c, 0, 59, 73
2, 671216, Note_on_c, 0, 62, 77
2, 671216, Note_on_c, 0, 71, 74
2, 671216, Note_on_c, 0, 50, 83
2, 671232, Note_on_c, 0, 71, 0
2, 671252, Note_on_c, 0, 62, 0
2, 671256, Note_on_c, 0, 38, 0
2, 671256, Note_on_c, 0, 65, 0
2, 671256, Note_on_c, 0, 59, 0
2, 671256, Note_on_c, 0, 50, 0
2, 671260, Note_on_c, 0, 74, 0
2, 671324, Note_on_c, 0, 53, 78
2, 671404, Note_on_c, 0, 59, 66
2, 671408, Note_on_c, 0, 53, 0
2, 671408, Note_on_c, 0, 62, 77
2, 671448, Note_on_c, 0, 59, 0
2, 671476, Note_on_c, 0, 62, 0
2, 671528, Note_on_c, 0, 40, 83
2, 671532, Note_on_c, 0, 72, 90
2, 671540, Note_on_c, 0, 64, 72
2, 671540, Note_on_c, 0, 52, 78
2, 671544, Note_on_c, 0, 60, 76
2, 671544, Note_on_c, 0, 57, 75
2, 671548, Note_on_c, 0, 69, 65
2, 671568, Note_on_c, 0, 57, 0
2, 671568, Note_on_c, 0, 64, 0
2, 671572, Note_on_c, 0, 60, 0
2, 671572, Note_on_c, 0, 52, 0
2, 671572, Note_on_c, 0, 69, 0
2, 671584, Note_on_c, 0, 40, 0
2, 671584, Note_on_c, 0, 72, 0
2, 671648, Note_on_c, 0, 52, 71
2, 671736, Note_on_c, 0, 57, 58
2, 671740, Note_on_c, 0, 60, 68
2, 671744, Note_on_c, 0, 52, 0
2, 671780, Note_on_c, 0, 57, 0
2, 671792, Note_on_c, 0, 60, 0
2, 671864, Note_on_c, 0, 40, 83
2, 671872, Note_on_c, 0, 68, 73
2, 671872, Note_on_c, 0, 56, 72
2, 671872, Note_on_c, 0, 71, 83
2, 671872, Note_on_c, 0, 59, 71
2, 671872, Note_on_c, 0, 64, 68
2, 671872, Note_on_c, 0, 52, 63
2, 671908, Note_on_c, 0, 40, 0
2, 671932, Note_on_c, 0, 64, 0
2, 671932, Note_on_c, 0, 56, 0
2, 671932, Note_on_c, 0, 71, 0
2, 671932, Note_on_c, 0, 68, 0
2, 671932, Note_on_c, 0, 52, 0
2, 671932, Note_on_c, 0, 59, 0
2, 671956, Note_on_c, 0, 52, 76
2, 672048, Note_on_c, 0, 56, 59
2, 672052, Note_on_c, 0, 52, 0
2, 672064, Note_on_c, 0, 59, 56
2, 672108, Note_on_c, 0, 59, 0
2, 672116, Note_on_c, 0, 56, 0
2, 672204, Note_on_c, 0, 45, 88
2, 672212, Note_on_c, 0, 33, 70
2, 672232, Note_on_c, 0, 60, 78
2, 672236, Note_on_c, 0, 72, 93
2, 672236, Note_on_c, 0, 69, 82
2, 672252, Note_on_c, 0, 57, 63
2, 672268, Note_on_c, 0, 45, 0
2, 672324, Note_on_c, 0, 52, 78
2, 672416, Note_on_c, 0, 60, 73
2, 672420, Note_on_c, 0, 60, 0
2, 672420, Note_on_c, 0, 57, 63
2, 672424, Note_on_c, 0, 52, 0
2, 672464, Note_on_c, 0, 33, 0
2, 672488, Note_on_c, 0, 57, 0
2, 672492, Note_on_c, 0, 60, 0
2, 672536, Note_on_c, 0, 72, 0
2, 672540, Note_on_c, 0, 33, 54
2, 672548, Note_on_c, 0, 45, 72
2, 672552, Note_on_c, 0, 57, 0
2, 672560, Note_on_c, 0, 69, 0
2, 672564, Note_on_c, 0, 64, 74
2, 672572, Note_on_c, 0, 71, 84
2, 672572, Note_on_c, 0, 52, 75
2, 672572, Note_on_c, 0, 59, 65
2, 672600, Note_on_c, 0, 59, 0
2, 672608, Note_on_c, 0, 52, 0
2, 672620, Note_on_c, 0, 64, 0
2, 672628, Note_on_c, 0, 45, 0
2, 672628, Note_on_c, 0, 33, 0
2, 672636, Note_on_c, 0, 71, 0
2, 672640, Note_on_c, 0, 52, 77
2, 672744, Note_on_c, 0, 62, 81
2, 672748, Note_on_c, 0, 59, 60
2, 672760, Note_on_c, 0, 52, 0
2, 672788, Note_on_c, 0, 59, 0
2, 672808, Note_on_c, 0, 62, 0
2, 672812, Note_on_c, 0, 69, 83
2, 672820, Note_on_c, 0, 57, 73
2, 672820, Note_on_c, 0, 60, 58
2, 672820, Note_on_c, 0, 48, 74
2, 672836, Note_on_c, 0, 69, 0
2, 672844, Note_on_c, 0, 57, 0
2, 672844, Note_on_c, 0, 60, 0
2, 672844, Note_on_c, 0, 48, 0
2, 672880, Note_on_c, 0, 45, 88
2, 672884, Note_on_c, 0, 33, 76
2, 672888, Note_on_c, 0, 60, 78
2, 672892, Note_on_c, 0, 69, 86
2, 672896, Note_on_c, 0, 48, 73
2, 672896, Note_on_c, 0, 57, 68
2, 672920, Note_on_c, 0, 48, 0
2, 672924, Note_on_c, 0, 57, 0
2, 672932, Note_on_c, 0, 60, 0
2, 672932, Note_on_c, 0, 33, 0
2, 672940, Note_on_c, 0, 45, 0
2, 672940, Note_on_c, 0, 69, 0
2, 672988, Note_on_c, 0, 52, 79
2, 673080, Note_on_c, 0, 60, 77
2, 673084, Note_on_c, 0, 52, 0
2, 673092, Note_on_c, 0, 57, 62
2, 673124, Note_on_c, 0, 57, 0
2, 673148, Note_on_c, 0, 60, 0
2, 673196, Note_on_c, 0, 71, 88
2, 673196, Note_on_c, 0, 52, 79
2, 673196, Note_on_c, 0, 45, 88
2, 673200, Note_on_c, 0, 59, 68
2, 673208, Note_on_c, 0, 64, 73
2, 673212, Note_on_c, 0, 33, 68
2, 673220, Note_on_c, 0, 52, 0
2, 673228, Note_on_c, 0, 59, 0
2, 673236, Note_on_c, 0, 64, 0
2, 673240, Note_on_c, 0, 33, 0
2, 673248, Note_on_c, 0, 71, 0
2, 673256, Note_on_c, 0, 45, 0
2, 673284, Note_on_c, 0, 52, 74
2, 673376, Note_on_c, 0, 62, 80
2, 673380, Note_on_c, 0, 52, 0
2, 673400, Note_on_c, 0, 59, 53
2, 673440, Note_on_c, 0, 59, 0
2, 673444, Note_on_c, 0, 62, 0
2, 673520, Note_on_c, 0, 72, 95
2, 673520, Note_on_c, 0, 60, 78
2, 673524, Note_on_c, 0, 57, 73
2, 673524, Note_on_c, 0, 45, 93
2, 673532, Note_on_c, 0, 69, 83
2, 673532, Note_on_c, 0, 33, 80
2, 673624, Note_on_c, 0, 52, 78
2, 673700, Note_on_c, 0, 33, 0
2, 673712, Note_on_c, 0, 60, 77
2, 673720, Note_on_c, 0, 45, 0
2, 673720, Note_on_c, 0, 52, 0
2, 673728, Note_on_c, 0, 57, 68
2, 673732, Note_on_c, 0, 60, 0
2, 673788, Note_on_c, 0, 57, 0
2, 673788, Note_on_c, 0, 60, 0
2, 673820, Note_on_c, 0, 72, 0
2, 673840, Note_on_c, 0, 57, 0
2, 673844, Note_on_c, 0, 64, 73
2, 673844, Note_on_c, 0, 71, 78
2, 673844, Note_on_c, 0, 45, 84
2, 673848, Note_on_c, 0, 59, 67
2, 673848, Note_on_c, 0, 33, 72
2, 673856, Note_on_c, 0, 52, 68
2, 673876, Note_on_c, 0, 69, 0
2, 673880, Note_on_c, 0, 59, 0
2, 673884, Note_on_c, 0, 52, 0
2, 673900, Note_on_c, 0, 64, 0
2, 673908, Note_on_c, 0, 33, 0
2, 673908, Note_on_c, 0, 71, 0
2, 673912, Note_on_c, 0, 45, 0
2, 673920, Note_on_c, 0, 52, 77
2, 674016, Note_on_c, 0, 62, 76
2, 674032, Note_on_c, 0, 52, 0
2, 674036, Note_on_c, 0, 59, 64
2, 674072, Note_on_c, 0, 69, 78
2, 674072, Note_on_c, 0, 57, 68
2, 674076, Note_on_c, 0, 48, 74
2, 674076, Note_on_c, 0, 60, 63
2, 674084, Note_on_c, 0, 62, 0
2, 674104, Note_on_c, 0, 48, 0
2, 674108, Note_on_c, 0, 57, 0
2, 674108, Note_on_c, 0, 69, 0
2, 674108, Note_on_c, 0, 60, 0
2, 674128, Note_on_c, 0, 59, 0
2, 674148, Note_on_c, 0, 45, 84
2, 674152, Note_on_c, 0, 33, 70
2, 674156, Note_on_c, 0, 60, 75
2, 674156, Note_on_c, 0, 69, 83
2, 674160, Note_on_c, 0, 57, 67
2, 674164, Note_on_c, 0, 48, 63
2, 674188, Note_on_c, 0, 60, 0
2, 674188, Note_on_c, 0, 33, 0
2, 674196, Note_on_c, 0, 57, 0
2, 674200, Note_on_c, 0, 48, 0
2, 674204, Note_on_c, 0, 45, 0
2, 674216, Note_on_c, 0, 69, 0
2, 674240, Note_on_c, 0, 52, 78
2, 674348, Note_on_c, 0, 52, 0
2, 674352, Note_on_c, 0, 60, 78
2, 674352, Note_on_c, 0, 57, 59
2, 674396, Note_on_c, 0, 57, 0
2, 674420, Note_on_c, 0, 60, 0
2, 674472, Note_on_c, 0, 47, 89
2, 674476, Note_on_c, 0, 35, 82
2, 674480, Note_on_c, 0, 79, 99
2, 674484, Note_on_c, 0, 67, 81
2, 674492, Note_on_c, 0, 74, 83
2, 674496, Note_on_c, 0, 59, 73
2, 674500, Note_on_c, 0, 47, 75
2, 674532, Note_on_c, 0, 35, 0
2, 674532, Note_on_c, 0, 47, 0
2, 674588, Note_on_c, 0, 55, 88
2, 674672, Note_on_c, 0, 55, 0
2, 674680, Note_on_c, 0, 67, 84
2, 674684, Note_on_c, 0, 59, 0
2, 674684, Note_on_c, 0, 62, 76
2, 674732, Note_on_c, 0, 67, 0
2, 674744, Note_on_c, 0, 62, 0
2, 674784, Note_on_c, 0, 74, 0
2, 674792, Note_on_c, 0, 47, 0
2, 674796, Note_on_c, 0, 48, 91
2, 674796, Note_on_c, 0, 36, 80
2, 674812, Note_on_c, 0, 76, 86
2, 674824, Note_on_c, 0, 60, 68
2, 674824, Note_on_c, 0, 48, 78
2, 674828, Note_on_c, 0, 72, 73
2, 674836, Note_on_c, 0, 36, 0
2, 674848, Note_on_c, 0, 48, 0
2, 674848, Note_on_c, 0, 79, 0
2, 674852, Note_on_c, 0, 48, 0
2, 674868, Note_on_c, 0, 60, 0
2, 674876, Note_on_c, 0, 72, 0
2, 674888, Note_on_c, 0, 76, 0
2, 674896, Note_on_c, 0, 67, 0
2, 674904, Note_on_c, 0, 55, 89
2, 674984, Note_on_c, 0, 55, 0
2, 674992, Note_on_c, 0, 64, 78
2, 674992, Note_on_c, 0, 60, 69
2, 675036, Note_on_c, 0, 60, 0
2, 675056, Note_on_c, 0, 64, 0
2, 675108, Note_on_c, 0, 38, 91
2, 675136, Note_on_c, 0, 74, 85
2, 675144, Note_on_c, 0, 50, 76
2, 675148, Note_on_c, 0, 62, 66
2, 675148, Note_on_c, 0, 59, 69
2, 675156, Note_on_c, 0, 65, 66
2, 675156, Note_on_c, 0, 71, 68
2, 675164, Note_on_c, 0, 38, 0
2, 675188, Note_on_c, 0, 65, 0
2, 675188, Note_on_c, 0, 62, 0
2, 675188, Note_on_c, 0, 71, 0
2, 675192, Note_on_c, 0, 50, 0
2, 675192, Note_on_c, 0, 59, 0
2, 675196, Note_on_c, 0, 74, 0
2, 675216, Note_on_c, 0, 53, 84
2, 675308, Note_on_c, 0, 62, 78
2, 675312, Note_on_c, 0, 59, 71
2, 675320, Note_on_c, 0, 53, 0
2, 675364, Note_on_c, 0, 59, 0
2, 675376, Note_on_c, 0, 62, 0
2, 675436, Note_on_c, 0, 40, 82
2, 675464, Note_on_c, 0, 72, 83
2, 675468, Note_on_c, 0, 52, 73
2, 675468, Note_on_c, 0, 57, 71
2, 675468, Note_on_c, 0, 60, 68
2, 675472, Note_on_c, 0, 64, 63
2, 675472, Note_on_c, 0, 69, 70
2, 675488, Note_on_c, 0, 52, 0
2, 675492, Note_on_c, 0, 40, 0
2, 675496, Note_on_c, 0, 57, 0
2, 675500, Note_on_c, 0, 60, 0
2, 675500, Note_on_c, 0, 69, 0
2, 675504, Note_on_c, 0, 64, 0
2, 675516, Note_on_c, 0, 72, 0
2, 675532, Note_on_c, 0, 52, 73
2, 675624, Note_on_c, 0, 52, 0
2, 675624, Note_on_c, 0, 60, 72
2, 675636, Note_on_c, 0, 57, 62
2, 675676, Note_on_c, 0, 57, 0
2, 675732, Note_on_c, 0, 60, 0
2, 675760, Note_on_c, 0, 40, 88
2, 675784, Note_on_c, 0, 71, 78
2, 675784, Note_on_c, 0, 68, 68
2, 675792, Note_on_c, 0, 56, 62
2, 675792, Note_on_c, 0, 52, 73
2, 675796, Note_on_c, 0, 64, 63
2, 675800, Note_on_c, 0, 59, 61
2, 675812, Note_on_c, 0, 40, 0
2, 675816, Note_on_c, 0, 52, 0
2, 675824, Note_on_c, 0, 56, 0
2, 675828, Note_on_c, 0, 64, 0
2, 675828, Note_on_c, 0, 59, 0
2, 675848, Note_on_c, 0, 71, 0
2, 675848, Note_on_c, 0, 68, 0
2, 675860, Note_on_c, 0, 52, 78
2, 675968, Note_on_c, 0, 52, 0
2, 675976, Note_on_c, 0, 59, 67
2, 676036, Note_on_c, 0, 59, 0
2, 676108, Note_on_c, 0, 45, 92
2, 676112, Note_on_c, 0, 33, 79
2, 676120, Note_on_c, 0, 72, 88
2, 676124, Note_on_c, 0, 57, 69
2, 676128, Note_on_c, 0, 60, 67
2, 676128, Note_on_c, 0, 69, 72
2, 676168, Note_on_c, 0, 45, 0
2, 676204, Note_on_c, 0, 69, 0
2, 676216, Note_on_c, 0, 52, 81
2, 676280, Note_on_c, 0, 60, 0
2, 676300, Note_on_c, 0, 60, 74
2, 676308, Note_on_c, 0, 52, 0
2, 676308, Note_on_c, 0, 57, 66
2, 676340, Note_on_c, 0, 57, 0
2, 676364, Note_on_c, 0, 60, 0
2, 676428, Note_on_c, 0, 45, 84
2, 676436, Note_on_c, 0, 72, 0
2, 676448, Note_on_c, 0, 57, 0
2, 676464, Note_on_c, 0, 76, 92
2, 676472, Note_on_c, 0, 52, 74
2, 676472, Note_on_c, 0, 64, 70
2, 676476, Note_on_c, 0, 68, 64
2, 676480, Note_on_c, 0, 71, 78
2, 676512, Note_on_c, 0, 52, 81
2, 676620, Note_on_c, 0, 62, 83
2, 676628, Note_on_c, 0, 52, 0
2, 676636, Note_on_c, 0, 59, 53
2, 676644, Note_on_c, 0, 45, 0
2, 676676, Note_on_c, 0, 33, 0
2, 676692, Note_on_c, 0, 62, 0
2, 676696, Note_on_c, 0, 59, 0
2, 676744, Note_on_c, 0, 68, 0
2, 676764, Note_on_c, 0, 71, 0
2, 676764, Note_on_c, 0, 45, 93
2, 676768, Note_on_c, 0, 33, 86
2, 676812, Note_on_c, 0, 72, 74
2, 676816, Note_on_c, 0, 69, 65
2, 676876, Note_on_c, 0, 52, 83
2, 676972, Note_on_c, 0, 60, 83
2, 676984, Note_on_c, 0, 57, 70
2, 676992, Note_on_c, 0, 69, 0
2, 676996, Note_on_c, 0, 52, 0
2, 676996, Note_on_c, 0, 45, 0
2, 677052, Note_on_c, 0, 57, 0
2, 677060, Note_on_c, 0, 60, 0
2, 677100, Note_on_c, 0, 45, 83
2, 677144, Note_on_c, 0, 72, 0
2, 677148, Note_on_c, 0, 68, 63
2, 677160, Note_on_c, 0, 71, 66
2, 677196, Note_on_c, 0, 52, 80
2, 677260, Note_on_c, 0, 45, 0
2, 677280, Note_on_c, 0, 33, 0
2, 677304, Note_on_c, 0, 62, 78
2, 677316, Note_on_c, 0, 52, 0
2, 677316, Note_on_c, 0, 59, 49
2, 677348, Note_on_c, 0, 68, 0
2, 677372, Note_on_c, 0, 62, 0
2, 677396, Note_on_c, 0, 71, 0
2, 677396, Note_on_c, 0, 59, 0
2, 677444, Note_on_c, 0, 45, 83
2, 677448, Note_on_c, 0, 64, 0
2, 677448, Note_on_c, 0, 33, 73
2, 677460, Note_on_c, 0, 52, 0
2, 677472, Note_on_c, 0, 76, 0
2, 677476, Note_on_c, 0, 72, 93
2, 677480, Note_on_c, 0, 69, 69
2, 677488, Note_on_c, 0, 60, 66
2, 677492, Note_on_c, 0, 57, 58
2, 677544, Note_on_c, 0, 52, 78
2, 677592, Note_on_c, 0, 69, 0
2, 677652, Note_on_c, 0, 60, 74
2, 677656, Note_on_c, 0, 52, 0
2, 677668, Note_on_c, 0, 57, 68
2, 677676, Note_on_c, 0, 45, 0
2, 677740, Note_on_c, 0, 60, 0
2, 677744, Note_on_c, 0, 57, 0
2, 677776, Note_on_c, 0, 45, 83
2, 677812, Note_on_c, 0, 60, 0
2, 677816, Note_on_c, 0, 72, 0
2, 677816, Note_on_c, 0, 76, 97
2, 677828, Note_on_c, 0, 68, 74
2, 677832, Note_on_c, 0, 71, 82
2, 677836, Note_on_c, 0, 52, 74
2, 677836, Note_on_c, 0, 64, 70
2, 677840, Note_on_c, 0, 57, 0
2, 677860, Note_on_c, 0, 71, 0
2, 677864, Note_on_c, 0, 52, 81
2, 677988, Note_on_c, 0, 62, 76
2, 677996, Note_on_c, 0, 59, 59
2, 678000, Note_on_c, 0, 52, 0
2, 678000, Note_on_c, 0, 45, 0
2, 678008, Note_on_c, 0, 33, 0
2, 678060, Note_on_c, 0, 62, 0
2, 678080, Note_on_c, 0, 59, 0
2, 678096, Note_on_c, 0, 68, 0
2, 678132, Note_on_c, 0, 45, 88
2, 678136, Note_on_c, 0, 33, 77
2, 678156, Note_on_c, 0, 72, 88
2, 678160, Note_on_c, 0, 69, 64
2, 678236, Note_on_c, 0, 52, 88
2, 678288, Note_on_c, 0, 69, 0
2, 678308, Note_on_c, 0, 45, 0
2, 678332, Note_on_c, 0, 60, 88
2, 678340, Note_on_c, 0, 57, 80
2, 678352, Note_on_c, 0, 52, 0
2, 678352, Note_on_c, 0, 52, 0
2, 678404, Note_on_c, 0, 57, 0
2, 678416, Note_on_c, 0, 60, 0
2, 678440, Note_on_c, 0, 72, 0
2, 678444, Note_on_c, 0, 45, 94
2, 678504, Note_on_c, 0, 71, 67
2, 678504, Note_on_c, 0, 68, 63
2, 678540, Note_on_c, 0, 52, 91
2, 678624, Note_on_c, 0, 45, 0
2, 678644, Note_on_c, 0, 33, 0
2, 678644, Note_on_c, 0, 62, 89
2, 678652, Note_on_c, 0, 68, 0
2, 678652, Note_on_c, 0, 59, 71
2, 678704, Note_on_c, 0, 59, 0
2, 678708, Note_on_c, 0, 62, 0
2, 678796, Note_on_c, 0, 45, 99
2, 678800, Note_on_c, 0, 71, 0
2, 678800, Note_on_c, 0, 33, 88
2, 678840, Note_on_c, 0, 72, 96
2, 678840, Note_on_c, 0, 60, 76
2, 678840, Note_on_c, 0, 69, 79
2, 678840, Note_on_c, 0, 57, 77
2, 678844, Note_on_c, 0, 52, 0
2, 678844, Note_on_c, 0, 64, 0
2, 678856, Note_on_c, 0, 76, 0
2, 678912, Note_on_c, 0, 52, 90
2, 679020, Note_on_c, 0, 52, 0
2, 679020, Note_on_c, 0, 60, 84
2, 679028, Note_on_c, 0, 57, 73
2, 679072, Note_on_c, 0, 45, 0
2, 679092, Note_on_c, 0, 57, 0
2, 679104, Note_on_c, 0, 60, 0
2, 679156, Note_on_c, 0, 45, 92
2, 679260, Note_on_c, 0, 52, 85
2, 679308, Note_on_c, 0, 57, 0
2, 679364, Note_on_c, 0, 52, 0
2, 679368, Note_on_c, 0, 60, 85
2, 679372, Note_on_c, 0, 57, 73
2, 679388, Note_on_c, 0, 69, 0
2, 679392, Note_on_c, 0, 45, 0
2, 679396, Note_on_c, 0, 60, 0
2, 679412, Note_on_c, 0, 57, 0
2, 679424, Note_on_c, 0, 72, 0
2, 679444, Note_on_c, 0, 60, 0
2, 679504, Note_on_c, 0, 45, 99
2, 679552, Note_on_c, 0, 71, 94
2, 679552, Note_on_c, 0, 59, 87
2, 679552, Note_on_c, 0, 52, 83
2, 679552, Note_on_c, 0, 64, 69
2, 679552, Note_on_c, 0, 52, 88
2, 679696, Note_on_c, 0, 52, 0
2, 679728, Note_on_c, 0, 60, 82
2, 679736, Note_on_c, 0, 57, 73
2, 679788, Note_on_c, 0, 45, 0
2, 679804, Note_on_c, 0, 57, 0
2, 679820, Note_on_c, 0, 60, 0
2, 679880, Note_on_c, 0, 45, 94
2, 679968, Note_on_c, 0, 59, 0
2, 679988, Note_on_c, 0, 52, 0
2, 679988, Note_on_c, 0, 52, 84
2, 679992, Note_on_c, 0, 71, 0
2, 680008, Note_on_c, 0, 64, 0
2, 680044, Note_on_c, 0, 57, 64
2, 680048, Note_on_c, 0, 69, 94
2, 680048, Note_on_c, 0, 48, 80
2, 680052, Note_on_c, 0, 60, 81
2, 680064, Note_on_c, 0, 57, 0
2, 680072, Note_on_c, 0, 48, 0
2, 680072, Note_on_c, 0, 60, 0
2, 680088, Note_on_c, 0, 52, 0
2, 680092, Note_on_c, 0, 60, 84
2, 680100, Note_on_c, 0, 69, 0
2, 680100, Note_on_c, 0, 57, 76
2, 680128, Note_on_c, 0, 57, 0
2, 680140, Note_on_c, 0, 45, 0
2, 680164, Note_on_c, 0, 60, 0
2, 680212, Note_on_c, 0, 45, 101
2, 680264, Note_on_c, 0, 88, 111
2, 680268, Note_on_c, 0, 76, 103
2, 680272, Note_on_c, 0, 81, 97
2, 680272, Note_on_c, 0, 84, 97
2, 680280, Note_on_c, 0, 48, 104
2, 680284, Note_on_c, 0, 45, 98
2, 680296, Note_on_c, 0, 36, 70
2, 680316, Note_on_c, 0, 33, 0
2, 680328, Note_on_c, 0, 52, 93
2, 680432, Note_on_c, 0, 52, 0
2, 680444, Note_on_c, 0, 57, 75
2, 680452, Note_on_c, 0, 60, 82
2, 680456, Note_on_c, 0, 45, 0
2, 680528, Note_on_c, 0, 57, 0
2, 680552, Note_on_c, 0, 60, 0
2, 680560, Note_on_c, 0, 45, 97
2, 680664, Note_on_c, 0, 52, 88
2, 680688, Note_on_c, 0, 45, 0
2, 680724, Note_on_c, 0, 48, 0
2, 680740, Note_on_c, 0, 36, 0
2, 680776, Note_on_c, 0, 52, 0
2, 680776, Note_on_c, 0, 57, 81
2, 680780, Note_on_c, 0, 60, 86
2, 680784, Note_on_c, 0, 45, 0
2, 680836, Note_on_c, 0, 57, 0
2, 680852, Note_on_c, 0, 60, 0
2, 680904, Note_on_c, 0, 45, 108
2, 680908, Note_on_c, 0, 33, 95
2, 680952, Note_on_c, 0, 45, 103
2, 680956, Note_on_c, 0, 35, 93
2, 680956, Note_on_c, 0, 47, 111
2, 681020, Note_on_c, 0, 52, 88
2, 681132, Note_on_c, 0, 52, 0
2, 681132, Note_on_c, 0, 57, 80
2, 681136, Note_on_c, 0, 33, 0
2, 681136, Note_on_c, 0, 60, 87
2, 681148, Note_on_c, 0, 45, 0
2, 681208, Note_on_c, 0, 57, 0
2, 681224, Note_on_c, 0, 60, 0
2, 681260, Note_on_c, 0, 45, 0
2, 681276, Note_on_c, 0, 45, 103
2, 681276, Note_on_c, 0, 33, 88
2, 681284, Note_on_c, 0, 35, 0
2, 681312, Note_on_c, 0, 47, 0
2, 681348, Note_on_c, 0, 33, 0
2, 681356, Note_on_c, 0, 45, 0
2, 681364, Note_on_c, 0, 52, 85
2, 681408, Note_on_c, 0, 76, 0
2, 681436, Note_on_c, 0, 81, 0
2, 681448, Note_on_c, 0, 84, 0
2, 681460, Note_on_c, 0, 52, 0
2, 681464, Note_on_c, 0, 60, 92
2, 681464, Note_on_c, 0, 57, 82
2, 681476, Note_on_c, 0, 88, 0
2, 681476, Note_on_c, 0, 45, 118
2, 681484, Note_on_c, 0, 33, 91
2, 681496, Note_on_c, 0, 57, 0
2, 681520, Note_on_c, 0, 60, 0
2, 681532, Note_on_c, 0, 33, 0
2, 681568, Note_on_c, 0, 45, 0
2, 681616, Note_on_c, 0, 45, 117
2, 681620, Note_on_c, 0, 33, 98
2, 681676, Control_c, 0, 64, 56
2, 681684, Note_on_c, 0, 93, 123
2, 681684, Note_on_c, 0, 45, 123
2, 681688, Note_on_c, 0, 81, 106
2, 681688, Note_on_c, 0, 88, 108
2, 681692, Note_on_c, 0, 84, 107
2, 681692, Note_on_c, 0, 33, 103
2, 681692, Control_c, 0, 64, 88
2, 681704, Control_c, 0, 64, 127
2, 681756, Note_on_c, 0, 45, 0
2, 681772, Note_on_c, 0, 33, 0
2, 681908, Control_c, 0, 64, 104
2, 681920, Control_c, 0, 64, 88
2, 681936, Control_c, 0, 64, 56
2, 681948, Control_c, 0, 64, 0
2, 682000, Note_on_c, 0, 33, 93
2, 682012, Note_on_c, 0, 45, 107
2, 682068, Control_c, 0, 64, 72
2, 682084, Note_on_c, 0, 33, 0
2, 682084, Control_c, 0, 64, 127
2, 682100, Note_on_c, 0, 45, 0
2, 682108, Note_on_c, 0, 36, 82
2, 682112, Note_on_c, 0, 33, 0
2, 682112, Note_on_c, 0, 48, 104
2, 682120, Note_on_c, 0, 45, 0
2, 682132, Note_on_c, 0, 93, 0
2, 682156, Note_on_c, 0, 81, 0
2, 682164, Note_on_c, 0, 84, 0
2, 682168, Note_on_c, 0, 88, 0
2, 682188, Note_on_c, 0, 36, 0
2, 682208, Note_on_c, 0, 52, 97
2, 682212, Note_on_c, 0, 48, 0
2, 682216, Note_on_c, 0, 40, 78
2, 682244, Note_on_c, 0, 52, 0
2, 682296, Note_on_c, 0, 40, 0
2, 682300, Note_on_c, 0, 57, 104
2, 682308, Note_on_c, 0, 45, 80
2, 682356, Note_on_c, 0, 45, 0
2, 682360, Note_on_c, 0, 57, 0
2, 682392, Note_on_c, 0, 60, 106
2, 682412, Note_on_c, 0, 48, 88
2, 682432, Note_on_c, 0, 48, 0
2, 682464, Note_on_c, 0, 60, 0
2, 682480, Note_on_c, 0, 64, 101
2, 682496, Note_on_c, 0, 52, 79
2, 682564, Note_on_c, 0, 52, 0
2, 682564, Note_on_c, 0, 64, 0
2, 682584, Note_on_c, 0, 69, 113
2, 682596, Note_on_c, 0, 57, 86
2, 682652, Note_on_c, 0, 57, 0
2, 682660, Note_on_c, 0, 69, 0
2, 682688, Note_on_c, 0, 64, 109
2, 682700, Note_on_c, 0, 52, 94
2, 682732, Control_c, 0, 64, 104
2, 682748, Control_c, 0, 64, 88
2, 682764, Note_on_c, 0, 64, 0
2, 682764, Control_c, 0, 64, 72
2, 682776, Control_c, 0, 64, 56
2, 682780, Note_on_c, 0, 52, 0
2, 682780, Note_on_c, 0, 60, 103
2, 682784, Note_on_c, 0, 48, 97
2, 682792, Control_c, 0, 64, 0
2, 682864, Note_on_c, 0, 48, 0
2, 682868, Note_on_c, 0, 60, 0
2, 682896, Note_on_c, 0, 57, 111
2, 682900, Note_on_c, 0, 45, 104
2, 682952, Control_c, 0, 64, 72
2, 682964, Control_c, 0, 64, 127
2, 682972, Note_on_c, 0, 45, 0
2, 683004, Note_on_c, 0, 57, 0
2, 683004, Note_on_c, 0, 60, 107
2, 683012, Note_on_c, 0, 48, 86
2, 683080, Note_on_c, 0, 48, 0
2, 683104, Note_on_c, 0, 64, 99
2, 683116, Note_on_c, 0, 52, 82
2, 683124, Note_on_c, 0, 60, 0
2, 683156, Note_on_c, 0, 64, 0
2, 683176, Note_on_c, 0, 52, 0
2, 683200, Note_on_c, 0, 57, 74
2, 683204, Note_on_c, 0, 69, 112
2, 683224, Note_on_c, 0, 57, 0
2, 683272, Note_on_c, 0, 69, 0
2, 683292, Note_on_c, 0, 60, 85
2, 683300, Note_on_c, 0, 72, 107
2, 683372, Note_on_c, 0, 60, 0
2, 683388, Note_on_c, 0, 64, 81
2, 683392, Note_on_c, 0, 76, 106
2, 683408, Note_on_c, 0, 72, 0
2, 683440, Control_c, 0, 64, 88
2, 683456, Control_c, 0, 64, 0
2, 683464, Note_on_c, 0, 64, 0
2, 683468, Note_on_c, 0, 76, 0
2, 683496, Note_on_c, 0, 57, 91
2, 683496, Note_on_c, 0, 69, 113
2, 683564, Control_c, 0, 64, 127
2, 683580, Note_on_c, 0, 57, 0
2, 683592, Note_on_c, 0, 72, 108
2, 683604, Note_on_c, 0, 60, 81
2, 683628, Note_on_c, 0, 69, 0
2, 683676, Note_on_c, 0, 60, 0
2, 683688, Note_on_c, 0, 76, 99
2, 683716, Note_on_c, 0, 64, 79
2, 683720, Note_on_c, 0, 72, 0
2, 683744, Note_on_c, 0, 76, 0
2, 683772, Note_on_c, 0, 64, 0
2, 683788, Note_on_c, 0, 81, 119
2, 683804, Note_on_c, 0, 69, 88
2, 683840, Note_on_c, 0, 81, 0
2, 683880, Note_on_c, 0, 69, 0
2, 683884, Note_on_c, 0, 84, 117
2, 683908, Note_on_c, 0, 72, 88
2, 683944, Note_on_c, 0, 84, 0
2, 683972, Note_on_c, 0, 88, 111
2, 683976, Note_on_c, 0, 72, 0
2, 683992, Note_on_c, 0, 76, 83
2, 684052, Control_c, 0, 64, 40
2, 684064, Note_on_c, 0, 88, 0
2, 684064, Control_c, 0, 64, 0
2, 684072, Note_on_c, 0, 76, 0
2, 684092, Note_on_c, 0, 93, 123
2, 684104, Note_on_c, 0, 81, 103
2, 684132, Control_c, 0, 64, 127
2, 684140, Note_on_c, 0, 81, 0
2, 684144, Note_on_c, 0, 93, 0
2, 684564, Control_c, 0, 64, 88
2, 684580, Control_c, 0, 64, 40
2, 684592, Control_c, 0, 64, 0
2, 684812, Note_on_c, 0, 69, 112
2, 684816, Note_on_c, 0, 75, 105
2, 684820, Note_on_c, 0, 81, 115
2, 684820, Note_on_c, 0, 72, 109
2, 684828, Note_on_c, 0, 41, 100
2, 684828, Note_on_c, 0, 53, 117
2, 684844, Note_on_c, 0, 81, 0
2, 684864, Control_c, 0, 64, 127
2, 684872, Note_on_c, 0, 41, 0
2, 684872, Note_on_c, 0, 53, 0
2, 684880, Note_on_c, 0, 69, 0
2, 684884, Note_on_c, 0, 72, 0
2, 684904, Note_on_c, 0, 75, 0
2, 685136, Control_c, 0, 64, 104
2, 685148, Control_c, 0, 64, 72
2, 685164, Control_c, 0, 64, 24
2, 685176, Control_c, 0, 64, 0
2, 685540, Note_on_c, 0, 88, 119
2, 685540, Note_on_c, 0, 76, 112
2, 685540, Note_on_c, 0, 84, 113
2, 685544, Note_on_c, 0, 40, 90
2, 685548, Note_on_c, 0, 52, 112
2, 685548, Note_on_c, 0, 81, 108
2, 685568, Control_c, 0, 64, 72
2, 685580, Control_c, 0, 64, 127
2, 685596, Note_on_c, 0, 40, 0
2, 685600, Note_on_c, 0, 52, 0
2, 685600, Note_on_c, 0, 76, 0
2, 685608, Note_on_c, 0, 81, 0
2, 685616, Note_on_c, 0, 88, 0
2, 685616, Note_on_c, 0, 84, 0
2, 685880, Control_c, 0, 64, 88
2, 685892, Control_c, 0, 64, 72
2, 685908, Control_c, 0, 64, 40
2, 685920, Control_c, 0, 64, 24
2, 685936, Control_c, 0, 64, 0
2, 686260, Note_on_c, 0, 68, 112
2, 686264, Note_on_c, 0, 59, 101
2, 686264, Note_on_c, 0, 40, 93
2, 686264, Note_on_c, 0, 62, 103
2, 686268, Note_on_c, 0, 64, 106
2, 686272, Note_on_c, 0, 52, 118
2, 686288, Control_c, 0, 64, 104
2, 686304, Control_c, 0, 64, 127
2, 686316, Note_on_c, 0, 59, 0
2, 686320, Note_on_c, 0, 40, 0
2, 686320, Note_on_c, 0, 62, 0
2, 686320, Note_on_c, 0, 52, 0
2, 686336, Note_on_c, 0, 64, 0
2, 686348, Note_on_c, 0, 68, 0
2, 686668, Control_c, 0, 64, 104
2, 686680, Control_c, 0, 64, 72
2, 686696, Control_c, 0, 64, 40
2, 686708, Control_c, 0, 64, 24
2, 686720, Control_c, 0, 64, 0
2, 687036, Note_on_c, 0, 69, 118
2, 687044, Note_on_c, 0, 57, 111
2, 687044, Note_on_c, 0, 33, 98
2, 687044, Note_on_c, 0, 60, 107
2, 687044, Note_on_c, 0, 45, 117
2, 687044, Note_on_c, 0, 64, 104
2, 687060, Control_c, 0, 64, 127
2, 687220, Note_on_c, 0, 69, 0
2, 687228, Note_on_c, 0, 33, 0
2, 687232, Note_on_c, 0, 57, 0
2, 687232, Note_on_c, 0, 64, 0
2, 687236, Note_on_c, 0, 45, 0
2, 687244, Note_on_c, 0, 60, 0
2, 687828, Control_c, 0, 64, 0
2, 691064, Note_on_c, 0, 69, 79
2, 691064, Note_on_c, 0, 65, 51
2, 691064, Note_on_c, 0, 60, 67
2, 691064, Note_on_c, 0, 53, 63
2, 691112, Note_on_c, 0, 65, 0
2, 691124, Note_on_c, 0, 53, 0
2, 691140, Note_on_c, 0, 60, 0
2, 691140, Note_on_c, 0, 69, 0
2, 691308, Note_on_c, 0, 70, 77
2, 691308, Note_on_c, 0, 55, 73
2, 691308, Note_on_c, 0, 65, 59
2, 691308, Note_on_c, 0, 60, 63
2, 691352, Note_on_c, 0, 65, 0
2, 691352, Note_on_c, 0, 55, 0
2, 691364, Note_on_c, 0, 60, 0
2, 691392, Note_on_c, 0, 70, 0
2, 691560, Note_on_c, 0, 72, 83
2, 691560, Note_on_c, 0, 65, 59
2, 691560, Note_on_c, 0, 60, 60
2, 691560, Note_on_c, 0, 57, 61
2, 691600, Note_on_c, 0, 57, 0
2, 691608, Note_on_c, 0, 60, 0
2, 691608, Note_on_c, 0, 65, 0
2, 691640, Note_on_c, 0, 72, 0
2, 691816, Note_on_c, 0, 74, 78
2, 691816, Note_on_c, 0, 58, 67
2, 691816, Note_on_c, 0, 65, 65
2, 691920, Control_c, 0, 64, 24
2, 691940, Control_c, 0, 64, 56
2, 691952, Control_c, 0, 64, 72
2, 691972, Control_c, 0, 64, 88
2, 691984, Control_c, 0, 64, 104
2, 692032, Note_on_c, 0, 66, 67
2, 692032, Note_on_c, 0, 62, 63
2, 692032, Note_on_c, 0, 60, 64
2, 692048, Control_c, 0, 64, 88
2, 692064, Control_c, 0, 64, 56
2, 692068, Note_on_c, 0, 60, 0
2, 692072, Note_on_c, 0, 62, 0
2, 692080, Control_c, 0, 64, 40
2, 692092, Control_c, 0, 64, 0
2, 692112, Note_on_c, 0, 66, 0
2, 692280, Note_on_c, 0, 67, 70
2, 692280, Note_on_c, 0, 58, 59
2, 692280, Note_on_c, 0, 62, 58
2, 692324, Note_on_c, 0, 58, 0
2, 692332, Note_on_c, 0, 62, 0
2, 692348, Note_on_c, 0, 58, 0
2, 692348, Note_on_c, 0, 65, 0
2, 692356, Note_on_c, 0, 74, 0
2, 692356, Note_on_c, 0, 67, 0
2, 692524, Note_on_c, 0, 69, 70
2, 692524, Note_on_c, 0, 57, 48
2, 692524, Note_on_c, 0, 62, 61
2, 692572, Note_on_c, 0, 57, 0
2, 692580, Note_on_c, 0, 62, 0
2, 692596, Note_on_c, 0, 69, 0
2, 692756, Note_on_c, 0, 70, 64
2, 692756, Note_on_c, 0, 55, 56
2, 692756, Note_on_c, 0, 62, 64
2, 692796, Note_on_c, 0, 55, 0
2, 692852, Note_on_c, 0, 62, 0
2, 692856, Note_on_c, 0, 70, 0
2, 693008, Note_on_c, 0, 67, 74
2, 693008, Note_on_c, 0, 60, 64
2, 693008, Note_on_c, 0, 64, 61
2, 693008, Note_on_c, 0, 58, 66
2, 693048, Note_on_c, 0, 60, 0
2, 693056, Note_on_c, 0, 64, 0
2, 693080, Note_on_c, 0, 58, 0
2, 693088, Note_on_c, 0, 67, 0
2, 693260, Note_on_c, 0, 69, 79
2, 693260, Note_on_c, 0, 64, 67
2, 693260, Note_on_c, 0, 60, 68
2, 693308, Note_on_c, 0, 60, 0
2, 693308, Note_on_c, 0, 64, 0
2, 693336, Note_on_c, 0, 69, 0
2, 693500, Note_on_c, 0, 70, 78
2, 693500, Note_on_c, 0, 55, 68
2, 693500, Note_on_c, 0, 60, 61
2, 693500, Note_on_c, 0, 64, 67
2, 693544, Note_on_c, 0, 60, 0
2, 693544, Note_on_c, 0, 55, 0
2, 693564, Note_on_c, 0, 64, 0
2, 693604, Note_on_c, 0, 70, 0
2, 693752, Note_on_c, 0, 72, 76
2, 693752, Note_on_c, 0, 65, 62
2, 693752, Note_on_c, 0, 57, 69
2, 693752, Note_on_c, 0, 60, 63
2, 693952, Control_c, 0, 64, 24
2, 693968, Control_c, 0, 64, 56
2, 693984, Control_c, 0, 64, 88
2, 693992, Note_on_c, 0, 64, 72
2, 693992, Note_on_c, 0, 58, 49
2, 693992, Note_on_c, 0, 60, 54
2, 694000, Control_c, 0, 64, 0
2, 694036, Note_on_c, 0, 58, 0
2, 694040, Note_on_c, 0, 60, 0
2, 694068, Note_on_c, 0, 64, 0
2, 694224, Note_on_c, 0, 65, 67
2, 694224, Note_on_c, 0, 57, 64
2, 694228, Note_on_c, 0, 60, 59
2, 694276, Note_on_c, 0, 60, 0
2, 694288, Note_on_c, 0, 57, 0
2, 694300, Note_on_c, 0, 65, 0
2, 694356, Control_c, 0, 64, 0
2, 694372, Note_on_c, 0, 57, 0
2, 694400, Note_on_c, 0, 60, 0
2, 694404, Control_c, 0, 64, 88
2, 694444, Note_on_c, 0, 67, 71
2, 694444, Note_on_c, 0, 55, 69
2, 694444, Note_on_c, 0, 60, 59
2, 694452, Note_on_c, 0, 65, 0
2, 694468, Note_on_c, 0, 72, 0
2, 694492, Note_on_c, 0, 55, 0
2, 694496, Control_c, 0, 64, 56
2, 694500, Note_on_c, 0, 60, 0
2, 694520, Note_on_c, 0, 67, 0
2, 694544, Control_c, 0, 64, 40
2, 694636, Control_c, 0, 64, 24
2, 694652, Control_c, 0, 64, 0
2, 694680, Note_on_c, 0, 60, 57
2, 694680, Note_on_c, 0, 69, 71
2, 694680, Note_on_c, 0, 53, 55
2, 694732, Note_on_c, 0, 53, 0
2, 694828, Note_on_c, 0, 60, 0
2, 694832, Note_on_c, 0, 69, 0
2, 694852, Control_c, 0, 64, 40
2, 694884, Control_c, 0, 64, 56
2, 694912, Note_on_c, 0, 69, 78
2, 694944, Control_c, 0, 64, 0
2, 695036, Control_c, 0, 64, 56
2, 695052, Control_c, 0, 64, 104
2, 695068, Control_c, 0, 64, 127
2, 695140, Note_on_c, 0, 69, 0
2, 695160, Note_on_c, 0, 67, 79
2, 695380, Note_on_c, 0, 67, 0
2, 695380, Note_on_c, 0, 65, 88
2, 695440, Note_on_c, 0, 65, 0
2, 695536, Note_on_c, 0, 65, 78
2, 695536, Note_on_c, 0, 67, 80
2, 695744, Note_on_c, 0, 50, 66
2, 695752, Note_on_c, 0, 59, 63
2, 695752, Note_on_c, 0, 53, 65
2, 695752, Note_on_c, 0, 77, 98
2, 695752, Note_on_c, 0, 71, 63
2, 695752, Note_on_c, 0, 65, 60
2, 695752, Note_on_c, 0, 38, 67
2, 695828, Control_c, 0, 64, 40
2, 695844, Control_c, 0, 64, 0
2, 696076, Control_c, 0, 64, 72
2, 696092, Control_c, 0, 64, 127
2, 696336, Note_on_c, 0, 50, 0
2, 696376, Note_on_c, 0, 59, 0
2, 696380, Note_on_c, 0, 53, 0
2, 696436, Note_on_c, 0, 65, 0
2, 696472, Note_on_c, 0, 67, 0
2, 696472, Note_on_c, 0, 77, 0
2, 696556, Note_on_c, 0, 74, 81
2, 696744, Note_on_c, 0, 74, 0
2, 696800, Note_on_c, 0, 71, 81
2, 697024, Note_on_c, 0, 71, 0
2, 697036, Note_on_c, 0, 67, 82
2, 697208, Note_on_c, 0, 67, 0
2, 697224, Note_on_c, 0, 71, 76
2, 697284, Note_on_c, 0, 69, 86
2, 697288, Note_on_c, 0, 71, 0
2, 697392, Note_on_c, 0, 38, 0
2, 697492, Note_on_c, 0, 69, 0
2, 697496, Note_on_c, 0, 67, 88
2, 697544, Control_c, 0, 64, 0
2, 697620, Note_on_c, 0, 52, 67
2, 697640, Note_on_c, 0, 65, 0
2, 697640, Control_c, 0, 64, 72
2, 697652, Note_on_c, 0, 52, 0
2, 697656, Control_c, 0, 64, 127
2, 697664, Note_on_c, 0, 58, 68
2, 697668, Note_on_c, 0, 67, 0
2, 697748, Note_on_c, 0, 58, 0
2, 697800, Note_on_c, 0, 71, 0
2, 697828, Note_on_c, 0, 79, 96
2, 697828, Note_on_c, 0, 72, 66
2, 697828, Note_on_c, 0, 67, 68
2, 697828, Note_on_c, 0, 70, 68
2, 697848, Note_on_c, 0, 48, 64
2, 697852, Note_on_c, 0, 52, 71
2, 697864, Note_on_c, 0, 40, 69
2, 698304, Note_on_c, 0, 70, 0
2, 698472, Note_on_c, 0, 72, 0
2, 698576, Note_on_c, 0, 79, 0
2, 698616, Note_on_c, 0, 76, 83
2, 698712, Note_on_c, 0, 67, 0
2, 698840, Note_on_c, 0, 76, 0
2, 698868, Note_on_c, 0, 72, 86
2, 699068, Note_on_c, 0, 72, 0
2, 699072, Note_on_c, 0, 48, 0
2, 699104, Note_on_c, 0, 73, 83
2, 699112, Note_on_c, 0, 52, 0
2, 699112, Note_on_c, 0, 40, 0
2, 699316, Note_on_c, 0, 73, 0
2, 699344, Note_on_c, 0, 74, 79
2, 699376, Control_c, 0, 64, 72
2, 699392, Control_c, 0, 64, 0
2, 699560, Note_on_c, 0, 74, 0
2, 699568, Note_on_c, 0, 70, 78
2, 699688, Control_c, 0, 64, 40
2, 699700, Control_c, 0, 64, 56
2, 699716, Control_c, 0, 64, 88
2, 699780, Note_on_c, 0, 70, 0
2, 699780, Control_c, 0, 64, 24
2, 699796, Control_c, 0, 64, 0
2, 699816, Note_on_c, 0, 69, 76
2, 699932, Control_c, 0, 64, 24
2, 699996, Control_c, 0, 64, 0
2, 700068, Note_on_c, 0, 72, 76
2, 700068, Note_on_c, 0, 61, 63
2, 700072, Note_on_c, 0, 69, 0
2, 700276, Note_on_c, 0, 61, 0
2, 700300, Note_on_c, 0, 72, 0
2, 700300, Note_on_c, 0, 70, 73
2, 700324, Note_on_c, 0, 62, 63
2, 700560, Note_on_c, 0, 67, 73
2, 700560, Note_on_c, 0, 58, 62
2, 700564, Note_on_c, 0, 62, 0
2, 700648, Note_on_c, 0, 70, 0
2, 700812, Note_on_c, 0, 67, 0
2, 700824, Note_on_c, 0, 62, 71
2, 700824, Note_on_c, 0, 55, 65
2, 701064, Control_c, 0, 64, 24
2, 701080, Control_c, 0, 64, 56
2, 701084, Note_on_c, 0, 58, 0
2, 701092, Control_c, 0, 64, 88
2, 701112, Control_c, 0, 64, 104
2, 701124, Control_c, 0, 64, 127
2, 701172, Control_c, 0, 64, 72
2, 701188, Control_c, 0, 64, 40
2, 701204, Control_c, 0, 64, 0
2, 701320, Note_on_c, 0, 55, 0
2, 701320, Note_on_c, 0, 62, 0
2, 701388, Note_on_c, 0, 64, 69
2, 701388, Note_on_c, 0, 61, 60
2, 701388, Note_on_c, 0, 55, 59
2, 701388, Note_on_c, 0, 45, 63
2, 701532, Control_c, 0, 64, 40
2, 701544, Control_c, 0, 64, 56
2, 701560, Control_c, 0, 64, 72
2, 701572, Note_on_c, 0, 45, 0
2, 701576, Control_c, 0, 64, 88
2, 701592, Note_on_c, 0, 55, 0
2, 701592, Control_c, 0, 64, 104
2, 701604, Note_on_c, 0, 61, 0
2, 701628, Note_on_c, 0, 64, 0
2, 701652, Control_c, 0, 64, 127
2, 701960, Note_on_c, 0, 65, 68
2, 701976, Note_on_c, 0, 62, 58
2, 701980, Note_on_c, 0, 50, 60
2, 701992, Note_on_c, 0, 53, 53
2, 702024, Control_c, 0, 64, 104
2, 702040, Control_c, 0, 64, 88
2, 702056, Control_c, 0, 64, 72
2, 702068, Control_c, 0, 64, 40
2, 702088, Control_c, 0, 64, 0
2, 702364, Control_c, 0, 64, 24
2, 702380, Control_c, 0, 64, 56
2, 702396, Control_c, 0, 64, 88
2, 702412, Control_c, 0, 64, 127
2, 702544, Note_on_c, 0, 53, 0
2, 702552, Note_on_c, 0, 50, 0
2, 702592, Note_on_c, 0, 62, 0
2, 702624, Note_on_c, 0, 65, 0
2, 703000, Note_on_c, 0, 67, 85
2, 703000, Note_on_c, 0, 52, 67
2, 703000, Note_on_c, 0, 43, 69
2, 703000, Note_on_c, 0, 60, 68
2, 703120, Control_c, 0, 64, 104
2, 703136, Control_c, 0, 64, 56
2, 703156, Control_c, 0, 64, 0
2, 703292, Control_c, 0, 64, 24
2, 703308, Control_c, 0, 64, 72
2, 703324, Control_c, 0, 64, 127
2, 703592, Note_on_c, 0, 60, 0
2, 703628, Note_on_c, 0, 43, 0
2, 703684, Note_on_c, 0, 52, 0
2, 703712, Note_on_c, 0, 67, 0
2, 704156, Note_on_c, 0, 76, 84
2, 704408, Note_on_c, 0, 76, 0
2, 704424, Note_on_c, 0, 72, 88
2, 704424, Note_on_c, 0, 66, 61
2, 704424, Note_on_c, 0, 63, 54
2, 704424, Note_on_c, 0, 60, 44
2, 704424, Note_on_c, 0, 51, 61
2, 704424, Note_on_c, 0, 69, 69
2, 704624, Note_on_c, 0, 63, 0
2, 704664, Note_on_c, 0, 81, 93
2, 704680, Note_on_c, 0, 66, 0
2, 704696, Note_on_c, 0, 72, 0
2, 704756, Note_on_c, 0, 81, 0
2, 704792, Note_on_c, 0, 60, 0
2, 704884, Note_on_c, 0, 51, 0
2, 704908, Note_on_c, 0, 69, 0
2, 704956, Note_on_c, 0, 79, 90
2, 704956, Note_on_c, 0, 65, 60
2, 704956, Note_on_c, 0, 62, 61
2, 704956, Note_on_c, 0, 55, 62
2, 704956, Note_on_c, 0, 71, 68
2, 704956, Note_on_c, 0, 59, 61
2, 704956, Note_on_c, 0, 67, 61
2, 704956, Note_on_c, 0, 43, 60
2, 704956, Note_on_c, 0, 50, 60
2, 705000, Control_c, 0, 64, 40
2, 705012, Control_c, 0, 64, 0
2, 705152, Control_c, 0, 64, 72
2, 705168, Control_c, 0, 64, 127
2, 705192, Note_on_c, 0, 79, 0
2, 705204, Note_on_c, 0, 77, 90
2, 705224, Note_on_c, 0, 71, 0
2, 705356, Note_on_c, 0, 67, 0
2, 705416, Note_on_c, 0, 77, 0
2, 705452, Note_on_c, 0, 69, 82
2, 705636, Note_on_c, 0, 59, 0
2, 705676, Note_on_c, 0, 69, 0
2, 705688, Note_on_c, 0, 71, 81
2, 705688, Note_on_c, 0, 55, 65
2, 705748, Note_on_c, 0, 65, 0
2, 705752, Note_on_c, 0, 50, 0
2, 705764, Note_on_c, 0, 55, 0
2, 705776, Note_on_c, 0, 43, 0
2, 705824, Note_on_c, 0, 55, 0
2, 705856, Note_on_c, 0, 62, 0
2, 705920, Note_on_c, 0, 71, 0
2, 705956, Note_on_c, 0, 72, 80
2, 705956, Note_on_c, 0, 64, 57
2, 705956, Note_on_c, 0, 60, 46
2, 705956, Note_on_c, 0, 67, 64
2, 705956, Note_on_c, 0, 36, 62
2, 705956, Note_on_c, 0, 48, 47
2, 705992, Control_c, 0, 64, 88
2, 706008, Control_c, 0, 64, 0
2, 706172, Note_on_c, 0, 72, 0
2, 706200, Note_on_c, 0, 73, 76
2, 706312, Note_on_c, 0, 36, 0
2, 706356, Note_on_c, 0, 48, 0
2, 706424, Note_on_c, 0, 67, 0
2, 706456, Note_on_c, 0, 74, 82
2, 706468, Note_on_c, 0, 73, 0
2, 706680, Note_on_c, 0, 74, 0
2, 706688, Note_on_c, 0, 69, 78
2, 706872, Note_on_c, 0, 60, 0
2, 706908, Note_on_c, 0, 64, 0
2, 706924, Note_on_c, 0, 69, 0
2, 706932, Note_on_c, 0, 72, 78
2, 707136, Note_on_c, 0, 72, 0
2, 707152, Note_on_c, 0, 70, 73
2, 707388, Note_on_c, 0, 62, 70
2, 707420, Note_on_c, 0, 70, 0
2, 707616, Note_on_c, 0, 62, 0
2, 707640, Note_on_c, 0, 64, 73
2, 707920, Note_on_c, 0, 64, 0
2, 707920, Note_on_c, 0, 65, 71
2, 708096, Control_c, 0, 64, 24
2, 708112, Control_c, 0, 64, 72
2, 708128, Control_c, 0, 64, 104
2, 708144, Control_c, 0, 64, 127
2, 708176, Note_on_c, 0, 65, 0
2, 708452, Note_on_c, 0, 77, 78
2, 708464, Note_on_c, 0, 65, 66
2, 708592, Control_c, 0, 64, 104
2, 708608, Control_c, 0, 64, 56
2, 708624, Control_c, 0, 64, 0
2, 708716, Control_c, 0, 64, 24
2, 708728, Control_c, 0, 64, 88
2, 708748, Control_c, 0, 64, 127
2, 709008, Note_on_c, 0, 65, 0
2, 709128, Note_on_c, 0, 77, 0
2, 709284, Note_on_c, 0, 79, 77
2, 709284, Note_on_c, 0, 64, 62
2, 709284, Note_on_c, 0, 65, 58
2, 709284, Note_on_c, 0, 67, 63
2, 709376, Note_on_c, 0, 67, 0
2, 709504, Note_on_c, 0, 79, 0
2, 709532, Note_on_c, 0, 81, 88
2, 709540, Note_on_c, 0, 69, 73
2, 709624, Note_on_c, 0, 69, 0
2, 709720, Note_on_c, 0, 81, 0
2, 709720, Note_on_c, 0, 64, 0
2, 709788, Note_on_c, 0, 82, 88
2, 709804, Note_on_c, 0, 70, 65
2, 709828, Note_on_c, 0, 62, 53
2, 709848, Control_c, 0, 64, 104
2, 709860, Control_c, 0, 64, 24
2, 709876, Control_c, 0, 64, 0
2, 709956, Control_c, 0, 64, 88
2, 709972, Control_c, 0, 64, 127
2, 710000, Note_on_c, 0, 82, 0
2, 710008, Note_on_c, 0, 65, 0
2, 710008, Note_on_c, 0, 70, 0
2, 710092, Note_on_c, 0, 62, 0
2, 710268, Note_on_c, 0, 81, 86
2, 710268, Note_on_c, 0, 69, 77
2, 710280, Control_c, 0, 64, 72
2, 710292, Note_on_c, 0, 65, 59
2, 710296, Note_on_c, 0, 60, 63
2, 710296, Control_c, 0, 64, 0
2, 710344, Control_c, 0, 64, 24
2, 710360, Control_c, 0, 64, 88
2, 710368, Note_on_c, 0, 69, 0
2, 710372, Control_c, 0, 64, 127
2, 710404, Note_on_c, 0, 81, 0
2, 710756, Note_on_c, 0, 86, 85
2, 710768, Note_on_c, 0, 74, 67
2, 710788, Note_on_c, 0, 60, 0
2, 710792, Control_c, 0, 64, 88
2, 710796, Note_on_c, 0, 58, 64
2, 710808, Control_c, 0, 64, 24
2, 710824, Control_c, 0, 64, 0
2, 710888, Control_c, 0, 64, 56
2, 710904, Control_c, 0, 64, 127
2, 710964, Note_on_c, 0, 86, 0
2, 710968, Note_on_c, 0, 58, 0
2, 710988, Note_on_c, 0, 74, 0
2, 711008, Note_on_c, 0, 65, 0
2, 711236, Note_on_c, 0, 84, 83
2, 711256, Note_on_c, 0, 72, 66
2, 711272, Note_on_c, 0, 65, 64
2, 711288, Note_on_c, 0, 57, 68
2, 711288, Control_c, 0, 64, 40
2, 711304, Control_c, 0, 64, 0
2, 711380, Control_c, 0, 64, 72
2, 711396, Control_c, 0, 64, 127
2, 711420, Note_on_c, 0, 84, 0
2, 711444, Note_on_c, 0, 57, 0
2, 711448, Note_on_c, 0, 72, 0
2, 711484, Note_on_c, 0, 65, 0
2, 711740, Note_on_c, 0, 83, 79
2, 711752, Note_on_c, 0, 71, 63
2, 711752, Control_c, 0, 64, 72
2, 711764, Note_on_c, 0, 65, 63
2, 711768, Control_c, 0, 64, 0
2, 711784, Note_on_c, 0, 55, 73
2, 711844, Control_c, 0, 64, 72
2, 711860, Control_c, 0, 64, 127
2, 712044, Note_on_c, 0, 77, 83
2, 712216, Note_on_c, 0, 77, 0
2, 712280, Note_on_c, 0, 74, 83
2, 712408, Note_on_c, 0, 65, 0
2, 712448, Note_on_c, 0, 74, 0
2, 712508, Note_on_c, 0, 71, 81
2, 712628, Note_on_c, 0, 83, 0
2, 712700, Note_on_c, 0, 55, 0
2, 712716, Note_on_c, 0, 71, 0
2, 712724, Note_on_c, 0, 71, 0
2, 712744, Note_on_c, 0, 67, 81
2, 712932, Note_on_c, 0, 67, 0
2, 712972, Note_on_c, 0, 68, 78
2, 712992, Control_c, 0, 64, 72
2, 713008, Control_c, 0, 64, 0
2, 713104, Control_c, 0, 64, 40
2, 713116, Control_c, 0, 64, 88
2, 713124, Note_on_c, 0, 68, 0
2, 713132, Control_c, 0, 64, 127
2, 713152, Note_on_c, 0, 71, 63
2, 713180, Control_c, 0, 64, 72
2, 713196, Control_c, 0, 64, 0
2, 713200, Note_on_c, 0, 71, 0
2, 713208, Note_on_c, 0, 69, 75
2, 713316, Control_c, 0, 64, 40
2, 713332, Control_c, 0, 64, 72
2, 713348, Control_c, 0, 64, 88
2, 713396, Control_c, 0, 64, 0
2, 713432, Note_on_c, 0, 69, 0
2, 713444, Note_on_c, 0, 65, 73
2, 713520, Control_c, 0, 64, 56
2, 713532, Control_c, 0, 64, 104
2, 713552, Control_c, 0, 64, 127
2, 713612, Control_c, 0, 64, 72
2, 713628, Control_c, 0, 64, 0
2, 713692, Note_on_c, 0, 64, 76
2, 713692, Note_on_c, 0, 82, 62
2, 713692, Note_on_c, 0, 70, 62
2, 713692, Note_on_c, 0, 60, 67
2, 713700, Note_on_c, 0, 65, 0
2, 713752, Control_c, 0, 64, 88
2, 713764, Control_c, 0, 64, 127
2, 713808, Note_on_c, 0, 64, 0
2, 713936, Note_on_c, 0, 36, 67
2, 714016, Note_on_c, 0, 82, 89
2, 714016, Note_on_c, 0, 48, 54
2, 714056, Note_on_c, 0, 48, 0
2, 714204, Note_on_c, 0, 82, 0
2, 714252, Note_on_c, 0, 79, 89
2, 714252, Note_on_c, 0, 52, 69
2, 714296, Note_on_c, 0, 36, 0
2, 714440, Note_on_c, 0, 79, 0
2, 714480, Note_on_c, 0, 76, 87
2, 714480, Note_on_c, 0, 55, 63
2, 714672, Note_on_c, 0, 76, 0
2, 714708, Note_on_c, 0, 72, 84
2, 714708, Note_on_c, 0, 58, 63
2, 714748, Note_on_c, 0, 52, 0
2, 714888, Note_on_c, 0, 60, 0
2, 714908, Note_on_c, 0, 55, 0
2, 714928, Note_on_c, 0, 72, 0
2, 714932, Note_on_c, 0, 73, 88
2, 714932, Note_on_c, 0, 60, 75
2, 714944, Note_on_c, 0, 58, 0
2, 714968, Note_on_c, 0, 70, 0
2, 714972, Note_on_c, 0, 82, 0
2, 715064, Note_on_c, 0, 60, 0
2, 715176, Note_on_c, 0, 73, 0
2, 715176, Note_on_c, 0, 74, 81
2, 715176, Note_on_c, 0, 64, 66
2, 715368, Note_on_c, 0, 74, 0
2, 715376, Note_on_c, 0, 64, 0
2, 715420, Note_on_c, 0, 70, 78
2, 715420, Note_on_c, 0, 67, 68
2, 715480, Note_on_c, 0, 67, 0
2, 715668, Note_on_c, 0, 70, 0
2, 715704, Note_on_c, 0, 69, 78
2, 715704, Note_on_c, 0, 65, 68
2, 715704, Note_on_c, 0, 53, 68
2, 715704, Control_c, 0, 64, 72
2, 715716, Control_c, 0, 64, 0
2, 715796, Note_on_c, 0, 69, 0
2, 715808, Control_c, 0, 64, 88
2, 715824, Control_c, 0, 64, 127
2, 715840, Note_on_c, 0, 65, 0
2, 715980, Note_on_c, 0, 77, 81
2, 716180, Note_on_c, 0, 77, 0
2, 716216, Note_on_c, 0, 76, 78
2, 716216, Note_on_c, 0, 65, 67
2, 716260, Control_c, 0, 64, 40
2, 716276, Control_c, 0, 64, 0
2, 716384, Control_c, 0, 64, 72
2, 716400, Control_c, 0, 64, 127
2, 716444, Note_on_c, 0, 76, 0
2, 716456, Note_on_c, 0, 77, 87
2, 716464, Note_on_c, 0, 53, 0
2, 716668, Note_on_c, 0, 77, 0
2, 716696, Note_on_c, 0, 76, 85
2, 716856, Note_on_c, 0, 65, 0
2, 716896, Note_on_c, 0, 76, 0
2, 716920, Note_on_c, 0, 77, 84
2, 717056, Note_on_c, 0, 77, 0
2, 717172, Note_on_c, 0, 79, 82
2, 717172, Note_on_c, 0, 67, 67
2, 717172, Note_on_c, 0, 65, 58
2, 717172, Note_on_c, 0, 64, 63
2, 717172, Control_c, 0, 64, 40
2, 717188, Control_c, 0, 64, 0
2, 717252, Control_c, 0, 64, 56
2, 717268, Control_c, 0, 64, 127
2, 717308, Note_on_c, 0, 67, 0
2, 717400, Note_on_c, 0, 79, 0
2, 717432, Note_on_c, 0, 81, 83
2, 717432, Note_on_c, 0, 69, 73
2, 717492, Note_on_c, 0, 69, 0
2, 717500, Note_on_c, 0, 65, 0
2, 717524, Note_on_c, 0, 81, 0
2, 717540, Note_on_c, 0, 64, 0
2, 717680, Note_on_c, 0, 65, 53
2, 717688, Note_on_c, 0, 84, 88
2, 717688, Control_c, 0, 64, 72
2, 717696, Note_on_c, 0, 72, 75
2, 717696, Note_on_c, 0, 62, 56
2, 717704, Control_c, 0, 64, 0
2, 717764, Control_c, 0, 64, 72
2, 717780, Control_c, 0, 64, 127
2, 717824, Note_on_c, 0, 72, 0
2, 717876, Note_on_c, 0, 84, 0
2, 717956, Note_on_c, 0, 82, 83
2, 717968, Note_on_c, 0, 70, 64
2, 717996, Note_on_c, 0, 65, 0
2, 718056, Note_on_c, 0, 62, 0
2, 718136, Control_c, 0, 64, 88
2, 718152, Control_c, 0, 64, 24
2, 718168, Control_c, 0, 64, 0
2, 718176, Note_on_c, 0, 65, 61
2, 718192, Note_on_c, 0, 60, 63
2, 718196, Control_c, 0, 64, 40
2, 718212, Control_c, 0, 64, 104
2, 718228, Control_c, 0, 64, 127
2, 718232, Note_on_c, 0, 82, 0
2, 718288, Note_on_c, 0, 70, 0
2, 718432, Note_on_c, 0, 69, 75
2, 718436, Note_on_c, 0, 81, 81
2, 718480, Note_on_c, 0, 65, 0
2, 718516, Note_on_c, 0, 60, 0
2, 718616, Control_c, 0, 64, 72
2, 718632, Control_c, 0, 64, 0
2, 718664, Control_c, 0, 64, 24
2, 718668, Note_on_c, 0, 69, 0
2, 718672, Note_on_c, 0, 58, 65
2, 718680, Note_on_c, 0, 65, 63
2, 718680, Control_c, 0, 64, 72
2, 718696, Control_c, 0, 64, 127
2, 718708, Note_on_c, 0, 81, 0
2, 718844, Note_on_c, 0, 58, 0
2, 718912, Note_on_c, 0, 65, 0
2, 718928, Note_on_c, 0, 86, 92
2, 718936, Note_on_c, 0, 74, 73
2, 719096, Control_c, 0, 64, 56
2, 719112, Control_c, 0, 64, 0
2, 719128, Control_c, 0, 64, 24
2, 719144, Control_c, 0, 64, 72
2, 719156, Control_c, 0, 64, 127
2, 719172, Note_on_c, 0, 65, 63
2, 719172, Note_on_c, 0, 57, 68
2, 719176, Note_on_c, 0, 86, 0
2, 719212, Note_on_c, 0, 74, 0
2, 719232, Note_on_c, 0, 57, 0
2, 719284, Note_on_c, 0, 65, 0
2, 719416, Note_on_c, 0, 84, 85
2, 719424, Note_on_c, 0, 72, 78
2, 719504, Note_on_c, 0, 84, 0
2, 719508, Note_on_c, 0, 72, 0
2, 719700, Control_c, 0, 64, 40
2, 719716, Control_c, 0, 64, 0
2, 719720, Note_on_c, 0, 83, 83
2, 719720, Note_on_c, 0, 67, 56
2, 719720, Note_on_c, 0, 65, 55
2, 719732, Note_on_c, 0, 71, 61
2, 719732, Note_on_c, 0, 55, 55
2, 719736, Note_on_c, 0, 62, 68
2, 719796, Control_c, 0, 64, 56
2, 719812, Control_c, 0, 64, 127
2, 719848, Note_on_c, 0, 65, 0
2, 719848, Note_on_c, 0, 67, 0
2, 719900, Note_on_c, 0, 62, 0
2, 719952, Note_on_c, 0, 55, 0
2, 719956, Note_on_c, 0, 83, 0
2, 720048, Note_on_c, 0, 71, 0
2, 720048, Note_on_c, 0, 65, 73
2, 720264, Note_on_c, 0, 65, 0
2, 720276, Note_on_c, 0, 77, 88
2, 720276, Note_on_c, 0, 62, 72
2, 720436, Note_on_c, 0, 62, 0
2, 720516, Note_on_c, 0, 59, 71
2, 720724, Note_on_c, 0, 59, 0
2, 720748, Note_on_c, 0, 55, 72
2, 720904, Note_on_c, 0, 77, 0
2, 720960, Note_on_c, 0, 55, 0
2, 721000, Note_on_c, 0, 56, 73
2, 721188, Note_on_c, 0, 56, 0
2, 721228, Note_on_c, 0, 71, 74
2, 721228, Note_on_c, 0, 57, 76
2, 721232, Control_c, 0, 64, 88
2, 721252, Control_c, 0, 64, 0
2, 721328, Note_on_c, 0, 71, 0
2, 721328, Control_c, 0, 64, 72
2, 721344, Control_c, 0, 64, 127
2, 721348, Note_on_c, 0, 72, 84
2, 721460, Note_on_c, 0, 72, 0
2, 721460, Note_on_c, 0, 71, 79
2, 721500, Note_on_c, 0, 53, 74
2, 721528, Note_on_c, 0, 57, 0
2, 721544, Note_on_c, 0, 71, 0
2, 721552, Note_on_c, 0, 53, 0
2, 721552, Note_on_c, 0, 70, 77
2, 721648, Note_on_c, 0, 70, 0
2, 721660, Note_on_c, 0, 71, 84
2, 721792, Control_c, 0, 64, 56
2, 721804, Note_on_c, 0, 71, 0
2, 721808, Control_c, 0, 64, 0
2, 721816, Note_on_c, 0, 74, 86
2, 721816, Note_on_c, 0, 52, 68
2, 721816, Note_on_c, 0, 48, 71
2, 721816, Note_on_c, 0, 60, 67
2, 721816, Note_on_c, 0, 64, 63
2, 721816, Note_on_c, 0, 82, 65
2, 721816, Note_on_c, 0, 70, 63
2, 721960, Control_c, 0, 64, 88
2, 721980, Control_c, 0, 64, 127
2, 722052, Note_on_c, 0, 52, 0
2, 722104, Note_on_c, 0, 58, 72
2, 722196, Note_on_c, 0, 48, 0
2, 722332, Control_c, 0, 64, 72
2, 722352, Control_c, 0, 64, 0
2, 722356, Note_on_c, 0, 72, 81
2, 722360, Note_on_c, 0, 55, 70
2, 722392, Note_on_c, 0, 74, 0
2, 722428, Control_c, 0, 64, 40
2, 722444, Control_c, 0, 64, 104
2, 722460, Control_c, 0, 64, 127
2, 722552, Note_on_c, 0, 55, 0
2, 722584, Note_on_c, 0, 52, 72
2, 722712, Note_on_c, 0, 58, 0
2, 722808, Note_on_c, 0, 52, 0
2, 722816, Control_c, 0, 64, 104
2, 722832, Control_c, 0, 64, 24
2, 722836, Note_on_c, 0, 48, 73
2, 722844, Control_c, 0, 64, 0
2, 722924, Control_c, 0, 64, 24
2, 722940, Control_c, 0, 64, 72
2, 722952, Control_c, 0, 64, 127
2, 723000, Control_c, 0, 64, 88
2, 723012, Note_on_c, 0, 60, 0
2, 723016, Note_on_c, 0, 48, 0
2, 723016, Control_c, 0, 64, 0
2, 723024, Note_on_c, 0, 64, 0
2, 723056, Note_on_c, 0, 70, 0
2, 723064, Note_on_c, 0, 82, 0
2, 723068, Note_on_c, 0, 49, 75
2, 723140, Control_c, 0, 64, 40
2, 723156, Control_c, 0, 64, 88
2, 723172, Control_c, 0, 64, 104
2, 723216, Control_c, 0, 64, 72
2, 723232, Control_c, 0, 64, 40
2, 723244, Control_c, 0, 64, 0
2, 723272, Note_on_c, 0, 49, 0
2, 723272, Note_on_c, 0, 72, 0
2, 723296, Note_on_c, 0, 70, 71
2, 723296, Note_on_c, 0, 50, 76
2, 723296, Note_on_c, 0, 60, 68
2, 723480, Note_on_c, 0, 50, 0
2, 723540, Note_on_c, 0, 52, 78
2, 723720, Note_on_c, 0, 70, 0
2, 723748, Note_on_c, 0, 52, 0
2, 723780, Note_on_c, 0, 69, 74
2, 723780, Note_on_c, 0, 53, 78
2, 723800, Note_on_c, 0, 60, 0
2, 723816, Note_on_c, 0, 53, 0
2, 723864, Note_on_c, 0, 69, 0
2, 724044, Note_on_c, 0, 69, 69
2, 724048, Note_on_c, 0, 53, 66
2, 724048, Note_on_c, 0, 65, 56
2, 724052, Note_on_c, 0, 60, 58
2, 724092, Note_on_c, 0, 53, 0
2, 724096, Note_on_c, 0, 65, 0
2, 724104, Note_on_c, 0, 60, 0
2, 724108, Note_on_c, 0, 69, 0
2, 724272, Note_on_c, 0, 70, 74
2, 724292, Note_on_c, 0, 55, 69
2, 724292, Note_on_c, 0, 65, 62
2, 724296, Note_on_c, 0, 60, 64
2, 724344, Note_on_c, 0, 60, 0
2, 724352, Note_on_c, 0, 65, 0
2, 724360, Note_on_c, 0, 55, 0
2, 724372, Note_on_c, 0, 70, 0
2, 724524, Note_on_c, 0, 72, 83
2, 724532, Note_on_c, 0, 65, 63
2, 724540, Note_on_c, 0, 57, 63
2, 724544, Note_on_c, 0, 60, 57
2, 724584, Note_on_c, 0, 57, 0
2, 724588, Note_on_c, 0, 60, 0
2, 724592, Note_on_c, 0, 65, 0
2, 724612, Note_on_c, 0, 72, 0
2, 724776, Note_on_c, 0, 74, 85
2, 724780, Note_on_c, 0, 58, 58
2, 724788, Note_on_c, 0, 65, 64
2, 724932, Note_on_c, 0, 58, 0
2, 724960, Note_on_c, 0, 65, 0
2, 724964, Note_on_c, 0, 74, 0
2, 725000, Note_on_c, 0, 67, 69
2, 725000, Note_on_c, 0, 58, 48
2, 725000, Note_on_c, 0, 79, 76
2, 725000, Note_on_c, 0, 64, 42
2, 725000, Note_on_c, 0, 60, 46
2, 725032, Note_on_c, 0, 64, 0
2, 725036, Note_on_c, 0, 60, 0
2, 725048, Note_on_c, 0, 67, 0
2, 725056, Note_on_c, 0, 79, 0
2, 725064, Note_on_c, 0, 58, 0
2, 725228, Note_on_c, 0, 81, 83
2, 725228, Note_on_c, 0, 57, 61
2, 725228, Note_on_c, 0, 69, 72
2, 725228, Note_on_c, 0, 60, 57
2, 725228, Note_on_c, 0, 65, 58
2, 725264, Note_on_c, 0, 69, 0
2, 725272, Note_on_c, 0, 60, 0
2, 725288, Note_on_c, 0, 65, 0
2, 725292, Note_on_c, 0, 57, 0
2, 725300, Note_on_c, 0, 81, 0
2, 725464, Note_on_c, 0, 70, 69
2, 725464, Note_on_c, 0, 64, 53
2, 725464, Note_on_c, 0, 60, 48
2, 725464, Note_on_c, 0, 55, 63
2, 725464, Note_on_c, 0, 82, 78
2, 725504, Note_on_c, 0, 60, 0
2, 725504, Note_on_c, 0, 70, 0
2, 725508, Note_on_c, 0, 55, 0
2, 725516, Note_on_c, 0, 64, 0
2, 725548, Note_on_c, 0, 82, 0
2, 725708, Note_on_c, 0, 84, 76
2, 725708, Note_on_c, 0, 65, 48
2, 725708, Note_on_c, 0, 57, 58
2, 725708, Note_on_c, 0, 60, 52
2, 725708, Note_on_c, 0, 72, 69
2, 725800, Note_on_c, 0, 65, 0
2, 725812, Note_on_c, 0, 60, 0
2, 725812, Note_on_c, 0, 57, 0
2, 725844, Note_on_c, 0, 84, 0
2, 725868, Note_on_c, 0, 72, 0
2, 725920, Note_on_c, 0, 65, 63
2, 725920, Note_on_c, 0, 69, 75
2, 725920, Note_on_c, 0, 53, 63
2, 725920, Note_on_c, 0, 60, 63
2, 725964, Note_on_c, 0, 53, 0
2, 725968, Note_on_c, 0, 60, 0
2, 725976, Note_on_c, 0, 65, 0
2, 726000, Note_on_c, 0, 69, 0
2, 726140, Note_on_c, 0, 70, 71
2, 726160, Note_on_c, 0, 65, 58
2, 726168, Note_on_c, 0, 55, 72
2, 726180, Note_on_c, 0, 60, 56
2, 726204, Note_on_c, 0, 55, 0
2, 726208, Note_on_c, 0, 65, 0
2, 726220, Note_on_c, 0, 60, 0
2, 726240, Note_on_c, 0, 70, 0
2, 726372, Note_on_c, 0, 72, 83
2, 726372, Note_on_c, 0, 65, 66
2, 726372, Note_on_c, 0, 60, 63
2, 726372, Note_on_c, 0, 57, 64
2, 726412, Note_on_c, 0, 57, 0
2, 726412, Note_on_c, 0, 60, 0
2, 726428, Note_on_c, 0, 65, 0
2, 726452, Note_on_c, 0, 72, 0
2, 726624, Note_on_c, 0, 74, 75
2, 726624, Note_on_c, 0, 58, 58
2, 726624, Note_on_c, 0, 65, 58
2, 726716, Note_on_c, 0, 58, 0
2, 726764, Note_on_c, 0, 65, 0
2, 726776, Note_on_c, 0, 74, 0
2, 726848, Note_on_c, 0, 79, 76
2, 726848, Note_on_c, 0, 58, 59
2, 726848, Note_on_c, 0, 64, 62
2, 726848, Note_on_c, 0, 67, 71
2, 726892, Note_on_c, 0, 64, 0
2, 726896, Note_on_c, 0, 58, 0
2, 726908, Note_on_c, 0, 67, 0
2, 726912, Note_on_c, 0, 79, 0
2, 727080, Note_on_c, 0, 81, 75
2, 727080, Note_on_c, 0, 57, 53
2, 727080, Note_on_c, 0, 60, 51
2, 727080, Note_on_c, 0, 65, 52
2, 727080, Note_on_c, 0, 69, 72
2, 727120, Note_on_c, 0, 69, 0
2, 727124, Note_on_c, 0, 60, 0
2, 727128, Note_on_c, 0, 57, 0
2, 727136, Note_on_c, 0, 81, 0
2, 727136, Note_on_c, 0, 65, 0
2, 727308, Note_on_c, 0, 82, 78
2, 727308, Note_on_c, 0, 70, 69
2, 727308, Note_on_c, 0, 64, 63
2, 727308, Note_on_c, 0, 55, 68
2, 727348, Note_on_c, 0, 55, 0
2, 727360, Note_on_c, 0, 64, 0
2, 727368, Note_on_c, 0, 70, 0
2, 727384, Note_on_c, 0, 82, 0
2, 727552, Note_on_c, 0, 84, 78
2, 727552, Note_on_c, 0, 57, 48
2, 727552, Note_on_c, 0, 60, 43
2, 727552, Note_on_c, 0, 65, 48
2, 727552, Note_on_c, 0, 72, 61
2, 727608, Note_on_c, 0, 65, 0
2, 727624, Note_on_c, 0, 60, 0
2, 727628, Note_on_c, 0, 57, 0
2, 727648, Note_on_c, 0, 72, 0
2, 727672, Note_on_c, 0, 84, 0
2, 727776, Note_on_c, 0, 65, 63
2, 727776, Note_on_c, 0, 69, 78
2, 727776, Note_on_c, 0, 53, 63
2, 727788, Note_on_c, 0, 60, 62
2, 727820, Note_on_c, 0, 53, 0
2, 727836, Note_on_c, 0, 60, 0
2, 727844, Note_on_c, 0, 65, 0
2, 727848, Note_on_c, 0, 69, 0
2, 727988, Note_on_c, 0, 70, 74
2, 728008, Note_on_c, 0, 55, 76
2, 728016, Note_on_c, 0, 60, 64
2, 728016, Note_on_c, 0, 65, 56
2, 728052, Note_on_c, 0, 55, 0
2, 728056, Note_on_c, 0, 60, 0
2, 728060, Note_on_c, 0, 65, 0
2, 728084, Note_on_c, 0, 70, 0
2, 728220, Note_on_c, 0, 72, 88
2, 728228, Note_on_c, 0, 65, 67
2, 728236, Note_on_c, 0, 57, 67
2, 728244, Note_on_c, 0, 60, 61
2, 728280, Note_on_c, 0, 57, 0
2, 728284, Note_on_c, 0, 60, 0
2, 728284, Note_on_c, 0, 65, 0
2, 728308, Note_on_c, 0, 72, 0
2, 728448, Note_on_c, 0, 74, 91
2, 728448, Note_on_c, 0, 65, 78
2, 728456, Note_on_c, 0, 58, 71
2, 728508, Note_on_c, 0, 65, 0
2, 728512, Note_on_c, 0, 74, 0
2, 728516, Note_on_c, 0, 58, 0
2, 728688, Note_on_c, 0, 76, 93
2, 728692, Note_on_c, 0, 67, 77
2, 728696, Note_on_c, 0, 58, 72
2, 728700, Note_on_c, 0, 61, 68
2, 728752, Note_on_c, 0, 67, 0
2, 728764, Note_on_c, 0, 61, 0
2, 728764, Note_on_c, 0, 58, 0
2, 728776, Note_on_c, 0, 76, 0
2, 728924, Note_on_c, 0, 77, 97
2, 728932, Note_on_c, 0, 58, 73
2, 728936, Note_on_c, 0, 65, 76
2, 728948, Note_on_c, 0, 62, 70
2, 728984, Note_on_c, 0, 62, 0
2, 728984, Note_on_c, 0, 65, 0
2, 729008, Note_on_c, 0, 58, 0
2, 729020, Note_on_c, 0, 77, 0
2, 729184, Note_on_c, 0, 79, 94
2, 729188, Note_on_c, 0, 58, 70
2, 729192, Note_on_c, 0, 62, 72
2, 729200, Note_on_c, 0, 74, 77
2, 729268, Note_on_c, 0, 58, 0
2, 729268, Control_c, 0, 64, 56
2, 729272, Note_on_c, 0, 74, 0
2, 729272, Note_on_c, 0, 62, 0
2, 729284, Control_c, 0, 64, 72
2, 729300, Note_on_c, 0, 79, 0
2, 729300, Control_c, 0, 64, 104
2, 729316, Control_c, 0, 64, 127
2, 729544, Note_on_c, 0, 81, 96
2, 729556, Note_on_c, 0, 73, 80
2, 729584, Note_on_c, 0, 64, 70
2, 729600, Note_on_c, 0, 57, 72
2, 729640, Control_c, 0, 64, 88
2, 729652, Control_c, 0, 64, 56
2, 729672, Control_c, 0, 64, 24
2, 729688, Control_c, 0, 64, 0
2, 729996, Control_c, 0, 64, 40
2, 730012, Control_c, 0, 64, 72
2, 730028, Control_c, 0, 64, 104
2, 730044, Control_c, 0, 64, 127
2, 730180, Note_on_c, 0, 64, 0
2, 730204, Note_on_c, 0, 57, 0
2, 730204, Note_on_c, 0, 81, 0
2, 730208, Note_on_c, 0, 73, 0
2, 730684, Note_on_c, 0, 81, 88
2, 730684, Note_on_c, 0, 72, 78
2, 730684, Note_on_c, 0, 63, 64
2, 730684, Note_on_c, 0, 53, 73
2, 730832, Control_c, 0, 64, 88
2, 730848, Control_c, 0, 64, 56
2, 730864, Control_c, 0, 64, 0
2, 731020, Control_c, 0, 64, 56
2, 731036, Control_c, 0, 64, 88
2, 731052, Control_c, 0, 64, 127
2, 731392, Note_on_c, 0, 53, 0
2, 731596, Note_on_c, 0, 72, 0
2, 731636, Note_on_c, 0, 63, 0
2, 731668, Note_on_c, 0, 81, 0
2, 731744, Note_on_c, 0, 74, 67
2, 731744, Note_on_c, 0, 62, 59
2, 731744, Note_on_c, 0, 58, 62
2, 731840, Control_c, 0, 64, 88
2, 731852, Control_c, 0, 64, 24
2, 731872, Control_c, 0, 64, 0
2, 731996, Control_c, 0, 64, 40
2, 732012, Control_c, 0, 64, 88
2, 732024, Control_c, 0, 64, 127
2, 732068, Note_on_c, 0, 62, 0
2, 732076, Note_on_c, 0, 74, 0
2, 732096, Note_on_c, 0, 58, 0
2, 732716, Note_on_c, 0, 81, 77
2, 732716, Note_on_c, 0, 63, 62
2, 732716, Note_on_c, 0, 53, 65
2, 732716, Note_on_c, 0, 72, 64
2, 732800, Control_c, 0, 64, 88
2, 732816, Control_c, 0, 64, 40
2, 732832, Control_c, 0, 64, 0
2, 732956, Control_c, 0, 64, 40
2, 732972, Control_c, 0, 64, 104
2, 732988, Control_c, 0, 64, 127
2, 733316, Note_on_c, 0, 53, 0
2, 733336, Note_on_c, 0, 81, 0
2, 733600, Note_on_c, 0, 63, 0
2, 733680, Note_on_c, 0, 72, 0
2, 733708, Note_on_c, 0, 74, 70
2, 733708, Note_on_c, 0, 58, 63
2, 733708, Note_on_c, 0, 62, 59
2, 733712, Control_c, 0, 64, 88
2, 733732, Control_c, 0, 64, 40
2, 733744, Control_c, 0, 64, 0
2, 733780, Note_on_c, 0, 58, 0
2, 733800, Note_on_c, 0, 62, 0
2, 733944, Note_on_c, 0, 73, 72
2, 733972, Note_on_c, 0, 74, 0
2, 734016, Note_on_c, 0, 73, 0
2, 734176, Note_on_c, 0, 74, 79
2, 734252, Note_on_c, 0, 74, 0
2, 734412, Note_on_c, 0, 76, 78
2, 734472, Note_on_c, 0, 76, 0
2, 734636, Note_on_c, 0, 77, 83
2, 734704, Note_on_c, 0, 77, 0
2, 734868, Note_on_c, 0, 69, 68
2, 734940, Note_on_c, 0, 69, 0
2, 735104, Note_on_c, 0, 70, 72
2, 735180, Note_on_c, 0, 70, 0
2, 735340, Note_on_c, 0, 72, 74
2, 735408, Note_on_c, 0, 72, 0
2, 735564, Note_on_c, 0, 74, 77
2, 735648, Note_on_c, 0, 74, 0
2, 735788, Note_on_c, 0, 66, 70
2, 735884, Note_on_c, 0, 66, 0
2, 736020, Note_on_c, 0, 67, 75
2, 736108, Note_on_c, 0, 67, 0
2, 736252, Note_on_c, 0, 69, 81
2, 736324, Note_on_c, 0, 69, 0
2, 736500, Note_on_c, 0, 70, 73
2, 736644, Control_c, 0, 64, 40
2, 736660, Control_c, 0, 64, 72
2, 736676, Control_c, 0, 64, 104
2, 736692, Control_c, 0, 64, 127
2, 736708, Note_on_c, 0, 70, 0
2, 736736, Note_on_c, 0, 62, 81
2, 736956, Note_on_c, 0, 62, 0
2, 737000, Note_on_c, 0, 70, 78
2, 737000, Note_on_c, 0, 46, 70
2, 737016, Control_c, 0, 64, 88
2, 737032, Control_c, 0, 64, 0
2, 737140, Control_c, 0, 64, 40
2, 737156, Control_c, 0, 64, 104
2, 737168, Control_c, 0, 64, 127
2, 737220, Note_on_c, 0, 70, 0
2, 737256, Note_on_c, 0, 67, 83
2, 737328, Note_on_c, 0, 67, 0
2, 737340, Note_on_c, 0, 46, 0
2, 737620, Note_on_c, 0, 72, 84
2, 737620, Note_on_c, 0, 58, 66
2, 737620, Note_on_c, 0, 48, 68
2, 737620, Note_on_c, 0, 64, 68
2, 737712, Control_c, 0, 64, 56
2, 737724, Control_c, 0, 64, 0
2, 737912, Control_c, 0, 64, 40
2, 737928, Control_c, 0, 64, 104
2, 737944, Control_c, 0, 64, 127
2, 738460, Note_on_c, 0, 64, 0
2, 738464, Note_on_c, 0, 72, 0
2, 738492, Note_on_c, 0, 58, 0
2, 738504, Note_on_c, 0, 48, 0
2, 738760, Note_on_c, 0, 77, 84
2, 738760, Note_on_c, 0, 50, 66
2, 738760, Note_on_c, 0, 57, 60
2, 738760, Note_on_c, 0, 65, 64
2, 738892, Control_c, 0, 64, 88
2, 738904, Control_c, 0, 64, 40
2, 738920, Control_c, 0, 64, 0
2, 739076, Control_c, 0, 64, 72
2, 739088, Control_c, 0, 64, 127
2, 739324, Note_on_c, 0, 57, 0
2, 739376, Note_on_c, 0, 50, 0
2, 739388, Note_on_c, 0, 77, 0
2, 739432, Note_on_c, 0, 65, 0
2, 739792, Note_on_c, 0, 70, 63
2, 739792, Note_on_c, 0, 58, 55
2, 739792, Note_on_c, 0, 55, 58
2, 739792, Note_on_c, 0, 62, 53
2, 739956, Control_c, 0, 64, 56
2, 739972, Control_c, 0, 64, 0
2, 740112, Control_c, 0, 64, 24
2, 740128, Control_c, 0, 64, 88
2, 740144, Note_on_c, 0, 62, 0
2, 740144, Control_c, 0, 64, 127
2, 740172, Note_on_c, 0, 55, 0
2, 740200, Note_on_c, 0, 58, 0
2, 740224, Note_on_c, 0, 70, 0
2, 740800, Note_on_c, 0, 77, 76
2, 740800, Note_on_c, 0, 57, 58
2, 740800, Note_on_c, 0, 50, 61
2, 740800, Note_on_c, 0, 65, 57
2, 740884, Control_c, 0, 64, 104
2, 740900, Control_c, 0, 64, 40
2, 740920, Control_c, 0, 64, 0
2, 741040, Control_c, 0, 64, 88
2, 741056, Control_c, 0, 64, 127
2, 741204, Note_on_c, 0, 57, 0
2, 741224, Note_on_c, 0, 77, 0
2, 741264, Note_on_c, 0, 65, 0
2, 741432, Note_on_c, 0, 50, 0
2, 741612, Control_c, 0, 64, 56
2, 741632, Control_c, 0, 64, 0
2, 741660, Note_on_c, 0, 70, 64
2, 741660, Note_on_c, 0, 58, 57
2, 741660, Note_on_c, 0, 62, 57
2, 741660, Note_on_c, 0, 55, 58
2, 741692, Note_on_c, 0, 55, 0
2, 741692, Control_c, 0, 64, 56
2, 741708, Note_on_c, 0, 58, 0
2, 741708, Control_c, 0, 64, 127
2, 741732, Note_on_c, 0, 62, 0
2, 741732, Note_on_c, 0, 70, 0
2, 741912, Control_c, 0, 64, 72
2, 741920, Note_on_c, 0, 42, 70
2, 741928, Control_c, 0, 64, 0
2, 741988, Note_on_c, 0, 42, 0
2, 742156, Note_on_c, 0, 43, 77
2, 742240, Note_on_c, 0, 43, 0
2, 742380, Note_on_c, 0, 45, 72
2, 742456, Note_on_c, 0, 45, 0
2, 742576, Note_on_c, 0, 48, 65
2, 742616, Note_on_c, 0, 46, 73
2, 742644, Note_on_c, 0, 48, 0
2, 742680, Note_on_c, 0, 46, 0
2, 742840, Note_on_c, 0, 54, 80
2, 742840, Note_on_c, 0, 45, 78
2, 742896, Note_on_c, 0, 45, 0
2, 742920, Note_on_c, 0, 54, 0
2, 743060, Note_on_c, 0, 55, 82
2, 743060, Note_on_c, 0, 46, 71
2, 743140, Note_on_c, 0, 46, 0
2, 743156, Note_on_c, 0, 55, 0
2, 743280, Note_on_c, 0, 57, 78
2, 743280, Note_on_c, 0, 48, 70
2, 743332, Note_on_c, 0, 48, 0
2, 743396, Note_on_c, 0, 57, 0
2, 743472, Note_on_c, 0, 60, 64
2, 743504, Note_on_c, 0, 58, 75
2, 743504, Note_on_c, 0, 50, 66
2, 743536, Note_on_c, 0, 50, 0
2, 743548, Note_on_c, 0, 60, 0
2, 743596, Note_on_c, 0, 58, 0
2, 743748, Note_on_c, 0, 66, 83
2, 743748, Note_on_c, 0, 57, 68
2, 743748, Note_on_c, 0, 48, 73
2, 743748, Note_on_c, 0, 51, 62
2, 743784, Note_on_c, 0, 48, 0
2, 743788, Note_on_c, 0, 51, 0
2, 743800, Note_on_c, 0, 66, 0
2, 743812, Note_on_c, 0, 57, 0
2, 743972, Note_on_c, 0, 67, 84
2, 743972, Note_on_c, 0, 58, 67
2, 743972, Note_on_c, 0, 50, 79
2, 743972, Note_on_c, 0, 46, 59
2, 744004, Note_on_c, 0, 58, 0
2, 744020, Note_on_c, 0, 46, 0
2, 744036, Note_on_c, 0, 50, 0
2, 744068, Note_on_c, 0, 67, 0
2, 744208, Note_on_c, 0, 69, 84
2, 744208, Note_on_c, 0, 60, 79
2, 744216, Note_on_c, 0, 48, 73
2, 744220, Note_on_c, 0, 45, 66
2, 744256, Note_on_c, 0, 60, 0
2, 744264, Note_on_c, 0, 45, 0
2, 744272, Note_on_c, 0, 48, 0
2, 744276, Note_on_c, 0, 69, 0
2, 744412, Note_on_c, 0, 72, 79
2, 744460, Note_on_c, 0, 70, 83
2, 744460, Note_on_c, 0, 62, 75
2, 744460, Note_on_c, 0, 46, 66
2, 744460, Note_on_c, 0, 43, 69
2, 744500, Note_on_c, 0, 72, 0
2, 744560, Control_c, 0, 64, 40
2, 744576, Control_c, 0, 64, 88
2, 744588, Control_c, 0, 64, 127
2, 744632, Note_on_c, 0, 70, 0
2, 744664, Note_on_c, 0, 69, 88
2, 744716, Note_on_c, 0, 46, 0
2, 744716, Note_on_c, 0, 43, 0
2, 744764, Note_on_c, 0, 69, 0
2, 744916, Control_c, 0, 64, 104
2, 744920, Note_on_c, 0, 70, 82
2, 744920, Note_on_c, 0, 55, 62
2, 744920, Note_on_c, 0, 46, 68
2, 744920, Note_on_c, 0, 61, 68
2, 744932, Control_c, 0, 64, 40
2, 744940, Note_on_c, 0, 62, 0
2, 744944, Control_c, 0, 64, 0
2, 745040, Control_c, 0, 64, 40
2, 745056, Control_c, 0, 64, 104
2, 745068, Control_c, 0, 64, 127
2, 745108, Note_on_c, 0, 70, 0
2, 745176, Note_on_c, 0, 67, 88
2, 745200, Note_on_c, 0, 61, 0
2, 745212, Note_on_c, 0, 55, 0
2, 745236, Note_on_c, 0, 46, 0
2, 745268, Note_on_c, 0, 67, 0
2, 745540, Note_on_c, 0, 64, 79
2, 745540, Note_on_c, 0, 58, 66
2, 745540, Note_on_c, 0, 48, 72
2, 745540, Note_on_c, 0, 84, 80
2, 745540, Note_on_c, 0, 72, 66
2, 745540, Note_on_c, 0, 76, 64
2, 745540, Note_on_c, 0, 58, 66
2, 745612, Control_c, 0, 64, 88
2, 745628, Control_c, 0, 64, 24
2, 745644, Control_c, 0, 64, 0
2, 745812, Control_c, 0, 64, 40
2, 745828, Control_c, 0, 64, 127
2, 746248, Note_on_c, 0, 58, 0
2, 746256, Note_on_c, 0, 64, 0
2, 746372, Note_on_c, 0, 58, 0
2, 746424, Note_on_c, 0, 48, 0
2, 746456, Note_on_c, 0, 76, 0
2, 746604, Note_on_c, 0, 65, 72
2, 746604, Note_on_c, 0, 41, 68
2, 746604, Note_on_c, 0, 57, 63
2, 746604, Note_on_c, 0, 77, 65
2, 746604, Note_on_c, 0, 53, 62
2, 746712, Control_c, 0, 64, 56
2, 746728, Control_c, 0, 64, 0
2, 746796, Note_on_c, 0, 84, 0
2, 746912, Control_c, 0, 64, 56
2, 746928, Control_c, 0, 64, 104
2, 746944, Control_c, 0, 64, 127
2, 746996, Note_on_c, 0, 53, 0
2, 747028, Note_on_c, 0, 57, 0
2, 747036, Note_on_c, 0, 41, 0
2, 747052, Note_on_c, 0, 77, 0
2, 747056, Note_on_c, 0, 65, 0
2, 747128, Note_on_c, 0, 57, 77
2, 747132, Note_on_c, 0, 72, 0
2, 747608, Note_on_c, 0, 57, 0
2, 747660, Note_on_c, 0, 36, 62
2, 747660, Note_on_c, 0, 48, 58
2, 747660, Note_on_c, 0, 55, 78
2, 747672, Control_c, 0, 64, 104
2, 747688, Control_c, 0, 64, 40
2, 747704, Control_c, 0, 64, 0
2, 747812, Control_c, 0, 64, 56
2, 747828, Control_c, 0, 64, 127
2, 747832, Note_on_c, 0, 52, 68
2, 747940, Note_on_c, 0, 52, 0
2, 747992, Note_on_c, 0, 60, 69
2, 748040, Note_on_c, 0, 60, 0
2, 748140, Note_on_c, 0, 55, 68
2, 748248, Note_on_c, 0, 55, 0
2, 748300, Note_on_c, 0, 64, 67
2, 748368, Note_on_c, 0, 64, 0
2, 748436, Note_on_c, 0, 60, 68
2, 748556, Note_on_c, 0, 60, 0
2, 748612, Note_on_c, 0, 67, 68
2, 748720, Note_on_c, 0, 67, 0
2, 748896, Note_on_c, 0, 48, 0
2, 748908, Note_on_c, 0, 36, 0
2, 749036, Note_on_c, 0, 64, 82
2, 749224, Note_on_c, 0, 55, 0
2, 749484, Note_on_c, 0, 64, 0
2, 749484, Control_c, 0, 64, 88
2, 749488, Note_on_c, 0, 43, 59
2, 749488, Control_c, 0, 64, 24
2, 749488, Note_on_c, 0, 60, 77
2, 749488, Note_on_c, 0, 43, 57
2, 749488, Note_on_c, 0, 31, 59
2, 749488, Note_on_c, 0, 52, 56
2, 749488, Note_on_c, 0, 55, 57
2, 749516, Control_c, 0, 64, 0
2, 749608, Control_c, 0, 64, 88
2, 749624, Control_c, 0, 64, 127
2, 749636, Note_on_c, 0, 55, 67
2, 749700, Note_on_c, 0, 55, 0
2, 749776, Note_on_c, 0, 64, 78
2, 749836, Note_on_c, 0, 64, 0
2, 749920, Note_on_c, 0, 60, 70
2, 750048, Note_on_c, 0, 67, 72
2, 750128, Note_on_c, 0, 67, 0
2, 750204, Note_on_c, 0, 64, 73
2, 750216, Note_on_c, 0, 43, 0
2, 750308, Note_on_c, 0, 31, 0
2, 750316, Note_on_c, 0, 60, 0
2, 750372, Note_on_c, 0, 52, 0
2, 750392, Note_on_c, 0, 64, 0
2, 750392, Note_on_c, 0, 55, 0
2, 750392, Note_on_c, 0, 72, 81
2, 750468, Note_on_c, 0, 43, 0
2, 750472, Note_on_c, 0, 72, 0
2, 750480, Note_on_c, 0, 60, 0
2, 750852, Note_on_c, 0, 54, 58
2, 750852, Note_on_c, 0, 51, 63
2, 750852, Note_on_c, 0, 69, 79
2, 750880, Control_c, 0, 64, 104
2, 750896, Control_c, 0, 64, 24
2, 750912, Control_c, 0, 64, 0
2, 750988, Control_c, 0, 64, 72
2, 751004, Control_c, 0, 64, 127
2, 751084, Note_on_c, 0, 51, 0
2, 751104, Note_on_c, 0, 54, 0
2, 751312, Control_c, 0, 64, 72
2, 751324, Note_on_c, 0, 69, 0
2, 751328, Control_c, 0, 64, 0
2, 751344, Note_on_c, 0, 67, 67
2, 751344, Note_on_c, 0, 59, 60
2, 751352, Note_on_c, 0, 67, 76
2, 751352, Note_on_c, 0, 43, 64
2, 751352, Note_on_c, 0, 59, 65
2, 751352, Note_on_c, 0, 50, 58
2, 751352, Note_on_c, 0, 53, 58
2, 751356, Note_on_c, 0, 53, 53
2, 751364, Note_on_c, 0, 43, 51
2, 751392, Note_on_c, 0, 50, 52
2, 751404, Control_c, 0, 64, 88
2, 751420, Control_c, 0, 64, 127
2, 751628, Note_on_c, 0, 80, 85
2, 751884, Note_on_c, 0, 80, 0
2, 751948, Note_on_c, 0, 83, 92
2, 751948, Note_on_c, 0, 55, 63
2, 751948, Note_on_c, 0, 62, 55
2, 751948, Note_on_c, 0, 65, 54
2, 751948, Note_on_c, 0, 71, 70
2, 752004, Note_on_c, 0, 50, 0
2, 752004, Note_on_c, 0, 43, 0
2, 752016, Note_on_c, 0, 53, 0
2, 752040, Note_on_c, 0, 59, 0
2, 752068, Note_on_c, 0, 67, 0
2, 752160, Note_on_c, 0, 59, 0
2, 752220, Note_on_c, 0, 67, 0
2, 752224, Control_c, 0, 64, 40
2, 752240, Control_c, 0, 64, 0
2, 752244, Note_on_c, 0, 43, 0
2, 752248, Note_on_c, 0, 50, 0
2, 752264, Note_on_c, 0, 53, 0
2, 752304, Control_c, 0, 64, 40
2, 752320, Control_c, 0, 64, 127
2, 752372, Note_on_c, 0, 71, 0
2, 752384, Note_on_c, 0, 62, 0
2, 752424, Note_on_c, 0, 83, 0
2, 752440, Note_on_c, 0, 65, 0
2, 752536, Note_on_c, 0, 55, 0
2, 752716, Note_on_c, 0, 81, 83
2, 752884, Note_on_c, 0, 81, 0
2, 752940, Note_on_c, 0, 77, 84
2, 753108, Note_on_c, 0, 77, 0
2, 753168, Note_on_c, 0, 74, 84
2, 753212, Note_on_c, 0, 74, 0
2, 753404, Note_on_c, 0, 71, 84
2, 753420, Note_on_c, 0, 67, 60
2, 753556, Note_on_c, 0, 67, 0
2, 753580, Note_on_c, 0, 71, 0
2, 753616, Note_on_c, 0, 68, 73
2, 753732, Note_on_c, 0, 68, 0
2, 753784, Note_on_c, 0, 71, 69
2, 753844, Note_on_c, 0, 69, 81
2, 753848, Note_on_c, 0, 71, 0
2, 753884, Control_c, 0, 64, 88
2, 753900, Control_c, 0, 64, 24
2, 753916, Control_c, 0, 64, 0
2, 753976, Control_c, 0, 64, 40
2, 753988, Control_c, 0, 64, 88
2, 754008, Control_c, 0, 64, 127
2, 754024, Note_on_c, 0, 69, 0
2, 754060, Note_on_c, 0, 65, 72
2, 754068, Control_c, 0, 64, 104
2, 754116, Control_c, 0, 64, 127
2, 754240, Note_on_c, 0, 65, 0
2, 754300, Note_on_c, 0, 62, 72
2, 754320, Control_c, 0, 64, 104
2, 754332, Control_c, 0, 64, 24
2, 754348, Control_c, 0, 64, 0
2, 754428, Control_c, 0, 64, 40
2, 754440, Control_c, 0, 64, 88
2, 754456, Control_c, 0, 64, 127
2, 754528, Note_on_c, 0, 62, 0
2, 754532, Control_c, 0, 64, 56
2, 754548, Control_c, 0, 64, 0
2, 754560, Note_on_c, 0, 59, 72
2, 754660, Control_c, 0, 64, 56
2, 754676, Control_c, 0, 64, 88
2, 754688, Control_c, 0, 64, 127
2, 754752, Note_on_c, 0, 59, 0
2, 754824, Note_on_c, 0, 57, 67
2, 754844, Control_c, 0, 64, 72
2, 754860, Control_c, 0, 64, 0
2, 754940, Note_on_c, 0, 57, 0
2, 754952, Control_c, 0, 64, 56
2, 754972, Control_c, 0, 64, 127
2, 755220, Note_on_c, 0, 55, 77
2, 755260, Note_on_c, 0, 55, 0
2, 755364, Note_on_c, 0, 52, 65
2, 755364, Note_on_c, 0, 55, 78
2, 755364, Note_on_c, 0, 36, 64
2, 755364, Note_on_c, 0, 48, 67
2, 755368, Control_c, 0, 64, 104
2, 755388, Control_c, 0, 64, 0
2, 755464, Control_c, 0, 64, 40
2, 755480, Control_c, 0, 64, 104
2, 755492, Control_c, 0, 64, 127
2, 755544, Note_on_c, 0, 52, 77
2, 755660, Note_on_c, 0, 52, 0
2, 755700, Note_on_c, 0, 60, 78
2, 755776, Note_on_c, 0, 60, 0
2, 755844, Note_on_c, 0, 55, 76
2, 755992, Note_on_c, 0, 64, 72
2, 756056, Note_on_c, 0, 55, 0
2, 756084, Note_on_c, 0, 64, 0
2, 756132, Note_on_c, 0, 36, 0
2, 756144, Note_on_c, 0, 60, 69
2, 756148, Note_on_c, 0, 48, 0
2, 756196, Note_on_c, 0, 52, 0
2, 756260, Note_on_c, 0, 60, 0
2, 756264, Note_on_c, 0, 55, 0
2, 756320, Note_on_c, 0, 67, 68
2, 756332, Control_c, 0, 64, 56
2, 756348, Control_c, 0, 64, 0
2, 756424, Control_c, 0, 64, 56
2, 756440, Control_c, 0, 64, 127
2, 756552, Note_on_c, 0, 67, 0
2, 756784, Note_on_c, 0, 64, 77
2, 757164, Note_on_c, 0, 64, 0
2, 757244, Note_on_c, 0, 43, 63
2, 757244, Note_on_c, 0, 60, 80
2, 757244, Note_on_c, 0, 52, 61
2, 757244, Note_on_c, 0, 31, 62
2, 757244, Note_on_c, 0, 55, 58
2, 757264, Control_c, 0, 64, 56
2, 757276, Control_c, 0, 64, 0
2, 757292, Note_on_c, 0, 43, 57
2, 757368, Control_c, 0, 64, 72
2, 757384, Control_c, 0, 64, 127
2, 757396, Note_on_c, 0, 55, 69
2, 757464, Note_on_c, 0, 55, 0
2, 757532, Note_on_c, 0, 64, 72
2, 757576, Note_on_c, 0, 64, 0
2, 757676, Note_on_c, 0, 60, 69
2, 757752, Note_on_c, 0, 43, 0
2, 757816, Note_on_c, 0, 67, 75
2, 757872, Note_on_c, 0, 60, 0
2, 757888, Note_on_c, 0, 67, 0
2, 757964, Note_on_c, 0, 64, 75
2, 758048, Note_on_c, 0, 52, 0
2, 758052, Note_on_c, 0, 31, 0
2, 758060, Note_on_c, 0, 55, 0
2, 758104, Note_on_c, 0, 64, 0
2, 758116, Note_on_c, 0, 43, 0
2, 758136, Note_on_c, 0, 60, 0
2, 758148, Note_on_c, 0, 72, 76
2, 758268, Note_on_c, 0, 72, 0
2, 758656, Note_on_c, 0, 54, 66
2, 758656, Note_on_c, 0, 51, 65
2, 758656, Note_on_c, 0, 69, 78
2, 758684, Control_c, 0, 64, 56
2, 758700, Control_c, 0, 64, 0
2, 758780, Control_c, 0, 64, 88
2, 758796, Control_c, 0, 64, 127
2, 758852, Note_on_c, 0, 51, 0
2, 758900, Note_on_c, 0, 54, 0
2, 759104, Control_c, 0, 64, 88
2, 759120, Control_c, 0, 64, 0
2, 759144, Note_on_c, 0, 69, 0
2, 759168, Note_on_c, 0, 58, 63
2, 759168, Note_on_c, 0, 67, 81
2, 759168, Note_on_c, 0, 55, 62
2, 759168, Note_on_c, 0, 52, 61
2, 759168, Note_on_c, 0, 43, 63
2, 759168, Note_on_c, 0, 61, 60
2, 759200, Control_c, 0, 64, 72
2, 759212, Control_c, 0, 64, 127
2, 759464, Note_on_c, 0, 81, 91
2, 759576, Note_on_c, 0, 81, 0
2, 759604, Note_on_c, 0, 58, 0
2, 759712, Note_on_c, 0, 61, 0
2, 759716, Note_on_c, 0, 43, 0
2, 759732, Note_on_c, 0, 55, 0
2, 759740, Note_on_c, 0, 52, 0
2, 759744, Note_on_c, 0, 67, 0
2, 759764, Note_on_c, 0, 84, 92
2, 759764, Note_on_c, 0, 61, 52
2, 759764, Note_on_c, 0, 58, 53
2, 759764, Note_on_c, 0, 55, 57
2, 759764, Note_on_c, 0, 64, 57
2, 759764, Note_on_c, 0, 73, 65
2, 760016, Control_c, 0, 64, 104
2, 760032, Control_c, 0, 64, 24
2, 760048, Control_c, 0, 64, 0
2, 760080, Control_c, 0, 64, 56
2, 760096, Control_c, 0, 64, 127
2, 760368, Note_on_c, 0, 84, 0
2, 760580, Note_on_c, 0, 82, 82
2, 760636, Note_on_c, 0, 73, 0
2, 760748, Note_on_c, 0, 82, 0
2, 760812, Note_on_c, 0, 79, 85
2, 760944, Note_on_c, 0, 79, 0
2, 761036, Note_on_c, 0, 76, 81
2, 761220, Note_on_c, 0, 76, 0
2, 761252, Note_on_c, 0, 73, 85
2, 761284, Note_on_c, 0, 55, 0
2, 761284, Note_on_c, 0, 61, 0
2, 761292, Note_on_c, 0, 58, 0
2, 761316, Note_on_c, 0, 64, 0
2, 761464, Note_on_c, 0, 73, 0
2, 761480, Note_on_c, 0, 69, 83
2, 761604, Note_on_c, 0, 69, 0
2, 761676, Note_on_c, 0, 72, 84
2, 761732, Note_on_c, 0, 70, 80
2, 761740, Control_c, 0, 64, 40
2, 761756, Control_c, 0, 64, 0
2, 761760, Note_on_c, 0, 72, 0
2, 761828, Control_c, 0, 64, 40
2, 761848, Control_c, 0, 64, 104
2, 761864, Control_c, 0, 64, 127
2, 761944, Note_on_c, 0, 70, 0
2, 761956, Note_on_c, 0, 67, 75
2, 762156, Note_on_c, 0, 67, 0
2, 762156, Control_c, 0, 64, 88
2, 762172, Control_c, 0, 64, 40
2, 762188, Note_on_c, 0, 64, 78
2, 762216, Control_c, 0, 64, 127
2, 762312, Note_on_c, 0, 64, 0
2, 762420, Note_on_c, 0, 61, 71
2, 762420, Control_c, 0, 64, 88
2, 762432, Control_c, 0, 64, 0
2, 762544, Control_c, 0, 64, 72
2, 762560, Control_c, 0, 64, 127
2, 762636, Control_c, 0, 64, 56
2, 762652, Control_c, 0, 64, 0
2, 762664, Note_on_c, 0, 58, 73
2, 762668, Note_on_c, 0, 61, 0
2, 762792, Control_c, 0, 64, 56
2, 762804, Control_c, 0, 64, 104
2, 762820, Control_c, 0, 64, 127
2, 763024, Note_on_c, 0, 58, 0
2, 763084, Note_on_c, 0, 57, 70
2, 763120, Note_on_c, 0, 57, 0
2, 763260, Note_on_c, 0, 41, 62
2, 763260, Note_on_c, 0, 29, 64
2, 763260, Note_on_c, 0, 57, 76
2, 763280, Control_c, 0, 64, 72
2, 763296, Control_c, 0, 64, 0
2, 763388, Control_c, 0, 64, 88
2, 763400, Control_c, 0, 64, 127
2, 763404, Note_on_c, 0, 50, 64
2, 763496, Note_on_c, 0, 50, 0
2, 763548, Note_on_c, 0, 57, 67
2, 763600, Note_on_c, 0, 57, 0
2, 763680, Note_on_c, 0, 53, 67
2, 763812, Note_on_c, 0, 62, 68
2, 763876, Note_on_c, 0, 53, 0
2, 763900, Note_on_c, 0, 62, 0
2, 763960, Note_on_c, 0, 57, 67
2, 764080, Note_on_c, 0, 57, 0
2, 764156, Note_on_c, 0, 65, 68
2, 764176, Control_c, 0, 64, 72
2, 764192, Control_c, 0, 64, 56
2, 764208, Control_c, 0, 64, 72
2, 764224, Control_c, 0, 64, 104
2, 764236, Control_c, 0, 64, 127
2, 764284, Note_on_c, 0, 65, 0
2, 764296, Note_on_c, 0, 57, 0
2, 764444, Note_on_c, 0, 29, 0
2, 764468, Note_on_c, 0, 41, 0
2, 764612, Note_on_c, 0, 65, 81
2, 765036, Note_on_c, 0, 65, 0
2, 765044, Control_c, 0, 64, 72
2, 765056, Control_c, 0, 64, 0
2, 765064, Note_on_c, 0, 44, 60
2, 765064, Note_on_c, 0, 32, 60
2, 765064, Note_on_c, 0, 64, 83
2, 765064, Note_on_c, 0, 62, 70
2, 765152, Control_c, 0, 64, 56
2, 765168, Control_c, 0, 64, 127
2, 765204, Note_on_c, 0, 52, 70
2, 765272, Note_on_c, 0, 52, 0
2, 765336, Note_on_c, 0, 62, 74
2, 765416, Note_on_c, 0, 62, 0
2, 765476, Note_on_c, 0, 59, 69
2, 765600, Note_on_c, 0, 64, 77
2, 765700, Note_on_c, 0, 64, 0
2, 765744, Note_on_c, 0, 62, 77
2, 765860, Note_on_c, 0, 62, 0
2, 765904, Note_on_c, 0, 62, 0
2, 765948, Note_on_c, 0, 71, 73
2, 766016, Note_on_c, 0, 59, 0
2, 766064, Note_on_c, 0, 71, 0
2, 766064, Note_on_c, 0, 32, 0
2, 766124, Note_on_c, 0, 44, 0
2, 766248, Note_on_c, 0, 64, 0
2, 766300, Note_on_c, 0, 59, 73
2, 766380, Note_on_c, 0, 59, 0
2, 766412, Note_on_c, 0, 60, 74
2, 766504, Note_on_c, 0, 60, 0
2, 766508, Note_on_c, 0, 59, 74
2, 766584, Note_on_c, 0, 59, 0
2, 766604, Note_on_c, 0, 58, 73
2, 766692, Note_on_c, 0, 58, 0
2, 766712, Note_on_c, 0, 59, 76
2, 766780, Control_c, 0, 64, 40
2, 766792, Control_c, 0, 64, 0
2, 766840, Note_on_c, 0, 59, 0
2, 766844, Note_on_c, 0, 33, 60
2, 766844, Note_on_c, 0, 45, 60
2, 766844, Note_on_c, 0, 62, 83
2, 766876, Note_on_c, 0, 45, 68
2, 766888, Control_c, 0, 64, 56
2, 766900, Control_c, 0, 64, 127
2, 766960, Note_on_c, 0, 52, 71
2, 767036, Note_on_c, 0, 52, 0
2, 767088, Note_on_c, 0, 60, 71
2, 767148, Note_on_c, 0, 60, 0
2, 767260, Note_on_c, 0, 57, 68
2, 767260, Note_on_c, 0, 60, 80
2, 767380, Note_on_c, 0, 64, 68
2, 767392, Note_on_c, 0, 62, 0
2, 767456, Note_on_c, 0, 57, 0
2, 767492, Note_on_c, 0, 64, 0
2, 767492, Note_on_c, 0, 60, 67
2, 767608, Note_on_c, 0, 60, 0
2, 767680, Note_on_c, 0, 69, 68
2, 767708, Note_on_c, 0, 45, 0
2, 767904, Note_on_c, 0, 69, 0
2, 767912, Note_on_c, 0, 33, 0
2, 768160, Note_on_c, 0, 72, 88
2, 768352, Note_on_c, 0, 60, 0
2, 768532, Control_c, 0, 64, 72
2, 768544, Control_c, 0, 64, 0
2, 768584, Note_on_c, 0, 72, 0
2, 768600, Note_on_c, 0, 30, 65
2, 768600, Note_on_c, 0, 71, 87
2, 768600, Note_on_c, 0, 63, 66
2, 768600, Note_on_c, 0, 60, 61
2, 768600, Note_on_c, 0, 42, 64
2, 768688, Control_c, 0, 64, 72
2, 768692, Note_on_c, 0, 45, 0
2, 768708, Control_c, 0, 64, 127
2, 768744, Note_on_c, 0, 51, 71
2, 768800, Note_on_c, 0, 51, 0
2, 768884, Note_on_c, 0, 60, 75
2, 768968, Note_on_c, 0, 60, 0
2, 769020, Note_on_c, 0, 57, 73
2, 769148, Note_on_c, 0, 63, 74
2, 769168, Note_on_c, 0, 57, 0
2, 769240, Note_on_c, 0, 63, 0
2, 769296, Note_on_c, 0, 60, 75
2, 769424, Note_on_c, 0, 60, 0
2, 769472, Note_on_c, 0, 69, 73
2, 769544, Note_on_c, 0, 69, 0
2, 769704, Note_on_c, 0, 30, 0
2, 769836, Note_on_c, 0, 42, 0
2, 769912, Note_on_c, 0, 71, 0
2, 769912, Note_on_c, 0, 63, 0
2, 769940, Note_on_c, 0, 60, 0
2, 769968, Note_on_c, 0, 69, 79
2, 770348, Control_c, 0, 64, 88
2, 770400, Note_on_c, 0, 43, 69
2, 770400, Note_on_c, 0, 31, 69
2, 770400, Note_on_c, 0, 60, 64
2, 770400, Note_on_c, 0, 64, 62
2, 770400, Note_on_c, 0, 67, 83
2, 770404, Control_c, 0, 64, 0
2, 770468, Note_on_c, 0, 69, 0
2, 770516, Control_c, 0, 64, 40
2, 770532, Control_c, 0, 64, 104
2, 770544, Control_c, 0, 64, 127
2, 770556, Note_on_c, 0, 52, 76
2, 770640, Note_on_c, 0, 52, 0
2, 770684, Note_on_c, 0, 60, 78
2, 770748, Note_on_c, 0, 60, 0
2, 770828, Note_on_c, 0, 55, 75
2, 770880, Note_on_c, 0, 55, 0
2, 770980, Note_on_c, 0, 64, 77
2, 771020, Note_on_c, 0, 64, 0
2, 771112, Note_on_c, 0, 43, 0
2, 771112, Note_on_c, 0, 31, 0
2, 771112, Note_on_c, 0, 60, 75
2, 771264, Note_on_c, 0, 67, 78
2, 771276, Note_on_c, 0, 60, 0
2, 771376, Note_on_c, 0, 67, 0
2, 771672, Note_on_c, 0, 67, 0
2, 771732, Note_on_c, 0, 76, 87
2, 771868, Note_on_c, 0, 60, 0
2, 771880, Note_on_c, 0, 64, 0
2, 772064, Control_c, 0, 64, 104
2, 772152, Note_on_c, 0, 43, 72
2, 772152, Note_on_c, 0, 31, 73
2, 772152, Control_c, 0, 64, 24
2, 772152, Note_on_c, 0, 55, 69
2, 772152, Note_on_c, 0, 64, 60
2, 772152, Note_on_c, 0, 60, 62
2, 772152, Note_on_c, 0, 72, 85
2, 772176, Control_c, 0, 64, 0
2, 772228, Note_on_c, 0, 76, 0
2, 772268, Control_c, 0, 64, 40
2, 772284, Control_c, 0, 64, 104
2, 772292, Note_on_c, 0, 55, 73
2, 772296, Control_c, 0, 64, 127
2, 772364, Note_on_c, 0, 55, 0
2, 772416, Note_on_c, 0, 64, 83
2, 772484, Note_on_c, 0, 64, 0
2, 772548, Note_on_c, 0, 60, 76
2, 772672, Note_on_c, 0, 67, 78
2, 772748, Note_on_c, 0, 67, 0
2, 772804, Note_on_c, 0, 64, 78
2, 772808, Note_on_c, 0, 31, 0
2, 772852, Note_on_c, 0, 43, 0
2, 772908, Note_on_c, 0, 55, 0
2, 772932, Note_on_c, 0, 64, 0
2, 772944, Note_on_c, 0, 64, 0
2, 772972, Note_on_c, 0, 60, 0
2, 772992, Note_on_c, 0, 72, 80
2, 773172, Note_on_c, 0, 60, 0
2, 773176, Note_on_c, 0, 72, 0
2, 773328, Note_on_c, 0, 72, 0
2, 773472, Note_on_c, 0, 51, 68
2, 773472, Note_on_c, 0, 81, 87
2, 773472, Note_on_c, 0, 63, 68
2, 773472, Note_on_c, 0, 69, 69
2, 773472, Note_on_c, 0, 54, 66
2, 773472, Note_on_c, 0, 57, 67
2, 773520, Control_c, 0, 64, 40
2, 773536, Control_c, 0, 64, 0
2, 773616, Control_c, 0, 64, 56
2, 773632, Control_c, 0, 64, 127
2, 773704, Note_on_c, 0, 51, 0
2, 773892, Control_c, 0, 64, 104
2, 773908, Control_c, 0, 64, 0
2, 773964, Note_on_c, 0, 50, 66
2, 773964, Note_on_c, 0, 43, 63
2, 773964, Note_on_c, 0, 59, 68
2, 773964, Note_on_c, 0, 67, 67
2, 773964, Note_on_c, 0, 55, 60
2, 773964, Note_on_c, 0, 62, 62
2, 773964, Note_on_c, 0, 53, 65
2, 773964, Note_on_c, 0, 79, 86
2, 773976, Control_c, 0, 64, 40
2, 773992, Control_c, 0, 64, 127
2, 774096, Note_on_c, 0, 63, 0
2, 774104, Note_on_c, 0, 69, 0
2, 774116, Note_on_c, 0, 81, 0
2, 774120, Note_on_c, 0, 57, 0
2, 774124, Note_on_c, 0, 54, 0
2, 774244, Note_on_c, 0, 80, 91
2, 774460, Note_on_c, 0, 43, 0
2, 774468, Note_on_c, 0, 50, 0
2, 774496, Note_on_c, 0, 83, 88
2, 774496, Note_on_c, 0, 55, 68
2, 774496, Note_on_c, 0, 65, 67
2, 774496, Note_on_c, 0, 62, 63
2, 774496, Note_on_c, 0, 71, 73
2, 774532, Note_on_c, 0, 80, 0
2, 774544, Control_c, 0, 64, 104
2, 774560, Control_c, 0, 64, 24
2, 774576, Control_c, 0, 64, 0
2, 774604, Control_c, 0, 64, 72
2, 774608, Note_on_c, 0, 55, 0
2, 774620, Control_c, 0, 64, 127
2, 774636, Note_on_c, 0, 67, 0
2, 774652, Note_on_c, 0, 62, 0
2, 774660, Note_on_c, 0, 53, 0
2, 774696, Note_on_c, 0, 83, 0
2, 774748, Note_on_c, 0, 81, 88
2, 774880, Note_on_c, 0, 81, 0
2, 774960, Note_on_c, 0, 43, 69
2, 774976, Note_on_c, 0, 77, 88
2, 775100, Note_on_c, 0, 43, 0
2, 775144, Note_on_c, 0, 71, 0
2, 775164, Note_on_c, 0, 77, 0
2, 775208, Note_on_c, 0, 74, 83
2, 775332, Note_on_c, 0, 79, 0
2, 775344, Note_on_c, 0, 74, 0
2, 775408, Note_on_c, 0, 59, 0
2, 775432, Note_on_c, 0, 69, 76
2, 775588, Note_on_c, 0, 55, 0
2, 775596, Note_on_c, 0, 62, 0
2, 775604, Note_on_c, 0, 65, 0
2, 775656, Note_on_c, 0, 69, 0
2, 775672, Note_on_c, 0, 71, 80
2, 775744, Note_on_c, 0, 71, 0
2, 775944, Note_on_c, 0, 72, 83
2, 775944, Note_on_c, 0, 48, 63
2, 775944, Note_on_c, 0, 64, 64
2, 775944, Note_on_c, 0, 52, 74
2, 775944, Note_on_c, 0, 60, 61
2, 775956, Control_c, 0, 64, 72
2, 775968, Control_c, 0, 64, 0
2, 776076, Control_c, 0, 64, 72
2, 776084, Note_on_c, 0, 52, 0
2, 776092, Control_c, 0, 64, 127
2, 776132, Note_on_c, 0, 72, 0
2, 776168, Note_on_c, 0, 73, 83
2, 776208, Note_on_c, 0, 64, 0
2, 776284, Note_on_c, 0, 48, 0
2, 776344, Note_on_c, 0, 73, 0
2, 776388, Note_on_c, 0, 74, 82
2, 776576, Note_on_c, 0, 74, 0
2, 776604, Note_on_c, 0, 69, 83
2, 776692, Note_on_c, 0, 60, 0
2, 776712, Note_on_c, 0, 69, 0
2, 776800, Note_on_c, 0, 72, 73
2, 776856, Note_on_c, 0, 70, 74
2, 776868, Control_c, 0, 64, 72
2, 776884, Control_c, 0, 64, 0
2, 776904, Note_on_c, 0, 72, 0
2, 776960, Control_c, 0, 64, 88
2, 776976, Control_c, 0, 64, 127
2, 777068, Note_on_c, 0, 70, 0
2, 777076, Note_on_c, 0, 67, 78
2, 777108, Note_on_c, 0, 67, 0
2, 777352, Note_on_c, 0, 63, 80
2, 777352, Note_on_c, 0, 55, 71
2, 777352, Note_on_c, 0, 60, 69
2, 777352, Note_on_c, 0, 51, 67
2, 777492, Note_on_c, 0, 51, 0
2, 777612, Note_on_c, 0, 58, 68
2, 777828, Note_on_c, 0, 58, 0
2, 777916, Note_on_c, 0, 60, 0
2, 777916, Note_on_c, 0, 62, 75
2, 777916, Note_on_c, 0, 48, 64
2, 777916, Note_on_c, 0, 36, 68
2, 777916, Note_on_c, 0, 54, 70
2, 777916, Note_on_c, 0, 57, 69
2, 777916, Note_on_c, 0, 50, 66
2, 777920, Note_on_c, 0, 55, 0
2, 777936, Control_c, 0, 64, 104
2, 777952, Control_c, 0, 64, 0
2, 777956, Note_on_c, 0, 63, 0
2, 778000, Note_on_c, 0, 54, 0
2, 778000, Note_on_c, 0, 57, 0
2, 778048, Control_c, 0, 64, 127
2, 778112, Note_on_c, 0, 50, 73
2, 778188, Note_on_c, 0, 50, 0
2, 778284, Note_on_c, 0, 57, 72
2, 778348, Note_on_c, 0, 36, 0
2, 778360, Note_on_c, 0, 48, 0
2, 778368, Note_on_c, 0, 57, 0
2, 778420, Note_on_c, 0, 54, 70
2, 778420, Note_on_c, 0, 57, 68
2, 778460, Note_on_c, 0, 62, 0
2, 778548, Note_on_c, 0, 54, 0
2, 778560, Note_on_c, 0, 57, 0
2, 778576, Note_on_c, 0, 62, 71
2, 778644, Note_on_c, 0, 62, 0
2, 778704, Note_on_c, 0, 57, 69
2, 778772, Note_on_c, 0, 50, 0
2, 778880, Note_on_c, 0, 66, 69
2, 778912, Note_on_c, 0, 57, 0
2, 778964, Note_on_c, 0, 66, 0
2, 779316, Note_on_c, 0, 70, 83
2, 779336, Note_on_c, 0, 58, 57
2, 779704, Control_c, 0, 64, 0
2, 779788, Note_on_c, 0, 70, 0
2, 779800, Note_on_c, 0, 58, 0
2, 779804, Note_on_c, 0, 34, 69
2, 779804, Note_on_c, 0, 46, 65
2, 779804, Note_on_c, 0, 67, 78
2, 779812, Control_c, 0, 64, 40
2, 779824, Control_c, 0, 64, 127
2, 779968, Note_on_c, 0, 50, 69
2, 780060, Note_on_c, 0, 50, 0
2, 780112, Note_on_c, 0, 58, 70
2, 780184, Note_on_c, 0, 58, 0
2, 780248, Note_on_c, 0, 55, 72
2, 780288, Note_on_c, 0, 67, 0
2, 780288, Note_on_c, 0, 34, 0
2, 780288, Note_on_c, 0, 46, 0
2, 780376, Note_on_c, 0, 62, 71
2, 780456, Note_on_c, 0, 62, 0
2, 780532, Note_on_c, 0, 58, 68
2, 780684, Note_on_c, 0, 58, 0
2, 780708, Note_on_c, 0, 67, 73
2, 780708, Note_on_c, 0, 62, 62
2, 780736, Note_on_c, 0, 55, 0
2, 780892, Note_on_c, 0, 62, 0
2, 780892, Note_on_c, 0, 67, 0
2, 781212, Note_on_c, 0, 75, 88
2, 781212, Note_on_c, 0, 63, 71
2, 781212, Note_on_c, 0, 31, 69
2, 781212, Note_on_c, 0, 43, 62
2, 781536, Control_c, 0, 64, 40
2, 781548, Control_c, 0, 64, 0
2, 781600, Note_on_c, 0, 63, 0
2, 781628, Control_c, 0, 64, 88
2, 781636, Note_on_c, 0, 31, 0
2, 781640, Control_c, 0, 64, 127
2, 781644, Note_on_c, 0, 75, 0
2, 781728, Note_on_c, 0, 74, 84
2, 781728, Note_on_c, 0, 62, 80
2, 781728, Note_on_c, 0, 30, 68
2, 781728, Note_on_c, 0, 42, 66
2, 781740, Note_on_c, 0, 43, 0
2, 781936, Note_on_c, 0, 62, 0
2, 781952, Note_on_c, 0, 86, 94
2, 782064, Note_on_c, 0, 86, 0
2, 782140, Note_on_c, 0, 74, 0
2, 782264, Note_on_c, 0, 87, 93
2, 782264, Note_on_c, 0, 69, 68
2, 782264, Note_on_c, 0, 62, 68
2, 782264, Note_on_c, 0, 72, 65
2, 782264, Note_on_c, 0, 74, 81
2, 782264, Note_on_c, 0, 60, 66
2, 782660, Note_on_c, 0, 87, 0
2, 782708, Note_on_c, 0, 62, 71
2, 782920, Note_on_c, 0, 74, 0
2, 782940, Note_on_c, 0, 62, 0
2, 782940, Note_on_c, 0, 72, 0
2, 782968, Note_on_c, 0, 62, 0
2, 782968, Note_on_c, 0, 81, 94
2, 782976, Note_on_c, 0, 69, 0
2, 783164, Note_on_c, 0, 60, 0
2, 783208, Note_on_c, 0, 81, 0
2, 783236, Note_on_c, 0, 82, 82
2, 783236, Note_on_c, 0, 72, 71
2, 783236, Note_on_c, 0, 62, 67
2, 783236, Note_on_c, 0, 69, 68
2, 783236, Note_on_c, 0, 74, 77
2, 783236, Note_on_c, 0, 57, 65
2, 783236, Note_on_c, 0, 50, 64
2, 783236, Note_on_c, 0, 38, 68
2, 783280, Note_on_c, 0, 30, 0
2, 783336, Note_on_c, 0, 42, 0
2, 783364, Note_on_c, 0, 72, 0
2, 783364, Note_on_c, 0, 62, 0
2, 783364, Note_on_c, 0, 69, 0
2, 783444, Note_on_c, 0, 82, 0
2, 783464, Note_on_c, 0, 84, 93
2, 783496, Note_on_c, 0, 50, 0
2, 783496, Note_on_c, 0, 57, 0
2, 783496, Note_on_c, 0, 38, 0
2, 783680, Note_on_c, 0, 84, 0
2, 783720, Note_on_c, 0, 82, 87
2, 783720, Note_on_c, 0, 43, 66
2, 783720, Note_on_c, 0, 31, 71
2, 783720, Control_c, 0, 64, 56
2, 783720, Note_on_c, 0, 70, 74
2, 783720, Note_on_c, 0, 58, 68
2, 783736, Control_c, 0, 64, 0
2, 783764, Note_on_c, 0, 31, 0
2, 783812, Control_c, 0, 64, 72
2, 783828, Control_c, 0, 64, 127
2, 783832, Note_on_c, 0, 43, 0
2, 783908, Note_on_c, 0, 82, 0
2, 783944, Note_on_c, 0, 79, 90
2, 783980, Note_on_c, 0, 58, 0
2, 784040, Note_on_c, 0, 74, 0
2, 784144, Note_on_c, 0, 79, 0
2, 784172, Note_on_c, 0, 74, 84
2, 784172, Note_on_c, 0, 70, 67
2, 784172, Note_on_c, 0, 62, 64
2, 784172, Note_on_c, 0, 67, 63
2, 784172, Note_on_c, 0, 58, 66
2, 784224, Note_on_c, 0, 67, 0
2, 784272, Note_on_c, 0, 70, 0
2, 784288, Note_on_c, 0, 74, 0
2, 784408, Note_on_c, 0, 70, 77
2, 784456, Note_on_c, 0, 62, 0
2, 784564, Note_on_c, 0, 70, 0
2, 784620, Note_on_c, 0, 70, 0
2, 784656, Note_on_c, 0, 67, 83
2, 784656, Note_on_c, 0, 62, 69
2, 784828, Note_on_c, 0, 67, 0
2, 784872, Note_on_c, 0, 58, 0
2, 784876, Note_on_c, 0, 62, 73
2, 784948, Note_on_c, 0, 62, 0
2, 785012, Note_on_c, 0, 62, 0
2, 785164, Note_on_c, 0, 65, 83
2, 785164, Note_on_c, 0, 62, 66
2, 785164, Note_on_c, 0, 46, 64
2, 785164, Note_on_c, 0, 34, 67
2, 785164, Note_on_c, 0, 58, 65
2, 785164, Note_on_c, 0, 53, 67
2, 785164, Note_on_c, 0, 55, 70
2, 785180, Control_c, 0, 64, 104
2, 785192, Control_c, 0, 64, 40
2, 785208, Control_c, 0, 64, 0
2, 785316, Control_c, 0, 64, 88
2, 785332, Control_c, 0, 64, 127
2, 785392, Note_on_c, 0, 65, 0
2, 785396, Note_on_c, 0, 34, 0
2, 785420, Note_on_c, 0, 58, 0
2, 785424, Note_on_c, 0, 62, 0
2, 785436, Note_on_c, 0, 46, 0
2, 785448, Note_on_c, 0, 57, 74
2, 785480, Note_on_c, 0, 55, 0
2, 785492, Note_on_c, 0, 53, 0
2, 785524, Note_on_c, 0, 57, 0
2, 785744, Note_on_c, 0, 64, 81
2, 785744, Note_on_c, 0, 50, 67
2, 785744, Note_on_c, 0, 59, 68
2, 785744, Note_on_c, 0, 38, 69
2, 785744, Note_on_c, 0, 56, 65
2, 785744, Note_on_c, 0, 52, 62
2, 785764, Control_c, 0, 64, 56
2, 785780, Control_c, 0, 64, 0
2, 785836, Note_on_c, 0, 56, 0
2, 785856, Control_c, 0, 64, 127
2, 785892, Note_on_c, 0, 59, 0
2, 785924, Note_on_c, 0, 64, 0
2, 785944, Note_on_c, 0, 52, 74
2, 786096, Note_on_c, 0, 59, 73
2, 786136, Note_on_c, 0, 52, 0
2, 786188, Note_on_c, 0, 59, 0
2, 786228, Note_on_c, 0, 56, 69
2, 786348, Note_on_c, 0, 56, 0
2, 786368, Note_on_c, 0, 64, 72
2, 786416, Note_on_c, 0, 64, 0
2, 786496, Note_on_c, 0, 59, 70
2, 786680, Note_on_c, 0, 68, 68
2, 786680, Note_on_c, 0, 59, 63
2, 786744, Note_on_c, 0, 59, 0
2, 786776, Note_on_c, 0, 68, 0
2, 786812, Note_on_c, 0, 52, 0
2, 786892, Note_on_c, 0, 59, 0
2, 786920, Note_on_c, 0, 38, 0
2, 786928, Note_on_c, 0, 50, 0
2, 787160, Note_on_c, 0, 72, 84
2, 787160, Note_on_c, 0, 60, 72
2, 787160, Note_on_c, 0, 56, 63
2, 787544, Control_c, 0, 64, 56
2, 787564, Control_c, 0, 64, 0
2, 787668, Note_on_c, 0, 69, 81
2, 787668, Note_on_c, 0, 36, 69
2, 787668, Note_on_c, 0, 48, 66
2, 787688, Control_c, 0, 64, 56
2, 787700, Control_c, 0, 64, 127
2, 787760, Note_on_c, 0, 72, 0
2, 787764, Note_on_c, 0, 60, 0
2, 787768, Note_on_c, 0, 56, 0
2, 787820, Note_on_c, 0, 52, 68
2, 787900, Note_on_c, 0, 52, 0
2, 787968, Note_on_c, 0, 60, 78
2, 788032, Note_on_c, 0, 60, 0
2, 788112, Note_on_c, 0, 57, 72
2, 788112, Note_on_c, 0, 60, 65
2, 788260, Note_on_c, 0, 64, 77
2, 788352, Note_on_c, 0, 64, 0
2, 788408, Note_on_c, 0, 60, 0
2, 788420, Note_on_c, 0, 60, 71
2, 788524, Note_on_c, 0, 57, 0
2, 788560, Note_on_c, 0, 60, 0
2, 788584, Note_on_c, 0, 69, 73
2, 788588, Note_on_c, 0, 69, 0
2, 788648, Note_on_c, 0, 48, 0
2, 788672, Note_on_c, 0, 36, 0
2, 788760, Note_on_c, 0, 69, 0
2, 788992, Note_on_c, 0, 81, 87
2, 788992, Note_on_c, 0, 69, 83
2, 788992, Note_on_c, 0, 45, 65
2, 788992, Note_on_c, 0, 33, 68
2, 789192, Note_on_c, 0, 81, 0
2, 789208, Note_on_c, 0, 69, 0
2, 789260, Note_on_c, 0, 77, 86
2, 789260, Note_on_c, 0, 65, 78
2, 789284, Note_on_c, 0, 33, 0
2, 789296, Note_on_c, 0, 45, 0
2, 789404, Control_c, 0, 64, 24
2, 789420, Control_c, 0, 64, 0
2, 789500, Control_c, 0, 64, 104
2, 789516, Control_c, 0, 64, 127
2, 789536, Note_on_c, 0, 76, 84
2, 789536, Note_on_c, 0, 64, 79
2, 789536, Note_on_c, 0, 44, 65
2, 789536, Note_on_c, 0, 32, 67
2, 789548, Note_on_c, 0, 77, 0
2, 789548, Note_on_c, 0, 65, 0
2, 789756, Note_on_c, 0, 88, 96
2, 789800, Note_on_c, 0, 64, 0
2, 789988, Note_on_c, 0, 76, 0
2, 789996, Note_on_c, 0, 88, 0
2, 790056, Note_on_c, 0, 89, 98
2, 790056, Note_on_c, 0, 71, 69
2, 790056, Note_on_c, 0, 74, 68
2, 790056, Note_on_c, 0, 76, 75
2, 790056, Note_on_c, 0, 62, 70
2, 790536, Note_on_c, 0, 64, 71
2, 790652, Note_on_c, 0, 74, 0
2, 790656, Note_on_c, 0, 89, 0
2, 790664, Note_on_c, 0, 76, 0
2, 790664, Note_on_c, 0, 32, 0
2, 790688, Note_on_c, 0, 71, 0
2, 790708, Note_on_c, 0, 83, 88
2, 790720, Note_on_c, 0, 44, 0
2, 790788, Note_on_c, 0, 64, 0
2, 790824, Note_on_c, 0, 62, 0
2, 790956, Note_on_c, 0, 83, 0
2, 790988, Note_on_c, 0, 88, 94
2, 790988, Note_on_c, 0, 76, 84
2, 790988, Note_on_c, 0, 74, 81
2, 790988, Note_on_c, 0, 64, 69
2, 790988, Note_on_c, 0, 71, 66
2, 790988, Note_on_c, 0, 62, 60
2, 790988, Note_on_c, 0, 74, 67
2, 790988, Note_on_c, 0, 52, 63
2, 790988, Note_on_c, 0, 40, 69
2, 791064, Note_on_c, 0, 71, 0
2, 791092, Note_on_c, 0, 64, 0
2, 791172, Note_on_c, 0, 88, 0
2, 791224, Note_on_c, 0, 86, 93
2, 791244, Note_on_c, 0, 40, 0
2, 791244, Note_on_c, 0, 52, 0
2, 791316, Note_on_c, 0, 86, 0
2, 791444, Note_on_c, 0, 74, 0
2, 791460, Note_on_c, 0, 76, 0
2, 791484, Control_c, 0, 64, 104
2, 791488, Note_on_c, 0, 84, 88
2, 791488, Note_on_c, 0, 45, 66
2, 791488, Note_on_c, 0, 33, 70
2, 791492, Control_c, 0, 64, 0
2, 791556, Note_on_c, 0, 33, 0
2, 791592, Control_c, 0, 64, 72
2, 791608, Note_on_c, 0, 45, 0
2, 791608, Control_c, 0, 64, 127
2, 791616, Note_on_c, 0, 74, 0
2, 791616, Note_on_c, 0, 62, 0
2, 791636, Note_on_c, 0, 84, 0
2, 791720, Note_on_c, 0, 81, 88
2, 791720, Note_on_c, 0, 60, 74
2, 791720, Note_on_c, 0, 72, 86
2, 791828, Note_on_c, 0, 60, 0
2, 791896, Note_on_c, 0, 72, 0
2, 791916, Note_on_c, 0, 81, 0
2, 791944, Note_on_c, 0, 76, 86
2, 791944, Note_on_c, 0, 72, 64
2, 791944, Note_on_c, 0, 64, 63
2, 791944, Note_on_c, 0, 69, 65
2, 791944, Note_on_c, 0, 71, 83
2, 791944, Note_on_c, 0, 59, 74
2, 791996, Note_on_c, 0, 72, 0
2, 792024, Note_on_c, 0, 59, 0
2, 792036, Note_on_c, 0, 69, 0
2, 792128, Note_on_c, 0, 64, 0
2, 792140, Note_on_c, 0, 76, 0
2, 792180, Note_on_c, 0, 72, 84
2, 792180, Note_on_c, 0, 60, 72
2, 792188, Note_on_c, 0, 71, 0
2, 792244, Note_on_c, 0, 60, 0
2, 792348, Note_on_c, 0, 72, 0
2, 792432, Note_on_c, 0, 69, 75
2, 792432, Note_on_c, 0, 74, 84
2, 792432, Note_on_c, 0, 62, 72
2, 792500, Note_on_c, 0, 62, 0
2, 792516, Note_on_c, 0, 74, 0
2, 792616, Note_on_c, 0, 69, 0
2, 792672, Note_on_c, 0, 64, 70
2, 792672, Note_on_c, 0, 60, 73
2, 792672, Note_on_c, 0, 72, 83
2, 792744, Note_on_c, 0, 64, 0
2, 792752, Note_on_c, 0, 72, 0
2, 792784, Note_on_c, 0, 60, 0
2, 792928, Note_on_c, 0, 71, 87
2, 792928, Note_on_c, 0, 59, 68
2, 792928, Note_on_c, 0, 48, 68
2, 792928, Note_on_c, 0, 36, 68
2, 792928, Note_on_c, 0, 66, 72
2, 792928, Note_on_c, 0, 63, 68
2, 793016, Control_c, 0, 64, 56
2, 793028, Control_c, 0, 64, 127
2, 793060, Note_on_c, 0, 59, 0
2, 793088, Note_on_c, 0, 71, 0
2, 793184, Note_on_c, 0, 69, 79
2, 793184, Note_on_c, 0, 57, 69
2, 793188, Note_on_c, 0, 36, 0
2, 793204, Note_on_c, 0, 48, 0
2, 793236, Note_on_c, 0, 66, 0
2, 793236, Note_on_c, 0, 63, 0
2, 793296, Note_on_c, 0, 57, 0
2, 793328, Note_on_c, 0, 69, 0
2, 793456, Control_c, 0, 64, 0
2, 793460, Note_on_c, 0, 67, 82
2, 793460, Note_on_c, 0, 47, 66
2, 793460, Note_on_c, 0, 35, 68
2, 793460, Note_on_c, 0, 62, 66
2, 793460, Note_on_c, 0, 55, 73
2, 793512, Control_c, 0, 64, 127
2, 793640, Note_on_c, 0, 55, 73
2, 793784, Note_on_c, 0, 65, 79
2, 793884, Note_on_c, 0, 55, 65
2, 793888, Note_on_c, 0, 65, 0
2, 793888, Note_on_c, 0, 55, 0
2, 793936, Note_on_c, 0, 62, 78
2, 794040, Note_on_c, 0, 62, 0
2, 794072, Note_on_c, 0, 67, 76
2, 794112, Note_on_c, 0, 47, 0
2, 794112, Note_on_c, 0, 67, 0
2, 794112, Note_on_c, 0, 35, 0
2, 794112, Note_on_c, 0, 62, 0
2, 794156, Note_on_c, 0, 67, 0
2, 794168, Note_on_c, 0, 55, 0
2, 794212, Note_on_c, 0, 65, 78
2, 794260, Note_on_c, 0, 65, 0
2, 794424, Note_on_c, 0, 74, 82
2, 794592, Note_on_c, 0, 74, 0
2, 794880, Control_c, 0, 64, 104
2, 794884, Note_on_c, 0, 48, 74
2, 794884, Note_on_c, 0, 36, 74
2, 794884, Note_on_c, 0, 52, 80
2, 794896, Control_c, 0, 64, 40
2, 794912, Control_c, 0, 64, 0
2, 794940, Control_c, 0, 64, 56
2, 794956, Control_c, 0, 64, 104
2, 794972, Control_c, 0, 64, 127
2, 794988, Note_on_c, 0, 36, 0
2, 795008, Note_on_c, 0, 48, 0
2, 795140, Note_on_c, 0, 50, 78
2, 795144, Note_on_c, 0, 52, 0
2, 795152, Note_on_c, 0, 38, 74
2, 795224, Note_on_c, 0, 38, 0
2, 795252, Note_on_c, 0, 50, 0
2, 795352, Note_on_c, 0, 55, 0
2, 795396, Note_on_c, 0, 51, 82
2, 795396, Note_on_c, 0, 39, 74
2, 795396, Note_on_c, 0, 60, 83
2, 795440, Control_c, 0, 64, 56
2, 795456, Control_c, 0, 64, 0
2, 795576, Control_c, 0, 64, 72
2, 795584, Note_on_c, 0, 54, 75
2, 795592, Control_c, 0, 64, 127
2, 795680, Note_on_c, 0, 54, 0
2, 795728, Note_on_c, 0, 60, 76
2, 795768, Note_on_c, 0, 60, 0
2, 795872, Note_on_c, 0, 57, 78
2, 796016, Note_on_c, 0, 63, 76
2, 796072, Note_on_c, 0, 57, 0
2, 796108, Note_on_c, 0, 63, 0
2, 796160, Note_on_c, 0, 60, 79
2, 796276, Note_on_c, 0, 60, 0
2, 796320, Note_on_c, 0, 69, 78
2, 796424, Note_on_c, 0, 69, 0
2, 796432, Note_on_c, 0, 51, 0
2, 796496, Note_on_c, 0, 39, 0
2, 796784, Note_on_c, 0, 36, 63
2, 796792, Note_on_c, 0, 69, 83
2, 796792, Note_on_c, 0, 66, 63
2, 796792, Note_on_c, 0, 63, 63
2, 796792, Note_on_c, 0, 48, 64
2, 796792, Note_on_c, 0, 36, 68
2, 796936, Note_on_c, 0, 36, 0
2, 797024, Note_on_c, 0, 48, 0
2, 797052, Note_on_c, 0, 36, 0
2, 797196, Note_on_c, 0, 60, 0
2, 797268, Control_c, 0, 64, 88
2, 797284, Control_c, 0, 64, 0
2, 797292, Note_on_c, 0, 66, 0
2, 797300, Note_on_c, 0, 67, 82
2, 797300, Note_on_c, 0, 55, 70
2, 797300, Note_on_c, 0, 47, 68
2, 797300, Note_on_c, 0, 35, 68
2, 797300, Note_on_c, 0, 62, 68
2, 797300, Note_on_c, 0, 65, 70
2, 797304, Note_on_c, 0, 63, 0
2, 797324, Note_on_c, 0, 69, 0
2, 797332, Note_on_c, 0, 62, 0
2, 797352, Note_on_c, 0, 55, 0
2, 797360, Control_c, 0, 64, 72
2, 797372, Control_c, 0, 64, 127
2, 797376, Note_on_c, 0, 65, 0
2, 797392, Note_on_c, 0, 35, 0
2, 797416, Note_on_c, 0, 67, 0
2, 797436, Note_on_c, 0, 47, 0
2, 797588, Note_on_c, 0, 80, 88
2, 797772, Note_on_c, 0, 80, 0
2, 797920, Note_on_c, 0, 83, 94
2, 797920, Note_on_c, 0, 55, 73
2, 797920, Note_on_c, 0, 62, 68
2, 797920, Note_on_c, 0, 65, 66
2, 797920, Note_on_c, 0, 71, 73
2, 798196, Control_c, 0, 64, 56
2, 798212, Control_c, 0, 64, 0
2, 798224, Control_c, 0, 64, 24
2, 798240, Control_c, 0, 64, 72
2, 798256, Control_c, 0, 64, 127
2, 798364, Note_on_c, 0, 83, 0
2, 798704, Note_on_c, 0, 81, 87
2, 798884, Note_on_c, 0, 81, 0
2, 798928, Note_on_c, 0, 77, 86
2, 799112, Note_on_c, 0, 77, 0
2, 799164, Note_on_c, 0, 74, 88
2, 799208, Note_on_c, 0, 71, 0
2, 799224, Note_on_c, 0, 74, 0
2, 799248, Note_on_c, 0, 65, 0
2, 799384, Note_on_c, 0, 71, 84
2, 799384, Note_on_c, 0, 67, 75
2, 799540, Note_on_c, 0, 67, 0
2, 799544, Note_on_c, 0, 62, 0
2, 799564, Note_on_c, 0, 71, 0
2, 799604, Note_on_c, 0, 68, 74
2, 799652, Note_on_c, 0, 55, 0
2, 799736, Note_on_c, 0, 68, 0
2, 799804, Note_on_c, 0, 71, 73
2, 799856, Note_on_c, 0, 69, 81
2, 799888, Note_on_c, 0, 71, 0
2, 799900, Control_c, 0, 64, 72
2, 799916, Control_c, 0, 64, 40
2, 799932, Control_c, 0, 64, 56
2, 799948, Control_c, 0, 64, 88
2, 799960, Control_c, 0, 64, 127
2, 800020, Note_on_c, 0, 69, 0
2, 800068, Note_on_c, 0, 65, 76
2, 800232, Note_on_c, 0, 65, 0
2, 800304, Note_on_c, 0, 62, 73
2, 800304, Control_c, 0, 64, 72
2, 800320, Control_c, 0, 64, 0
2, 800396, Control_c, 0, 64, 56
2, 800408, Control_c, 0, 64, 127
2, 800528, Note_on_c, 0, 62, 0
2, 800556, Note_on_c, 0, 59, 74
2, 800564, Control_c, 0, 64, 56
2, 800580, Control_c, 0, 64, 0
2, 800660, Control_c, 0, 64, 24
2, 800676, Control_c, 0, 64, 88
2, 800692, Control_c, 0, 64, 127
2, 800744, Note_on_c, 0, 59, 0
2, 800824, Note_on_c, 0, 57, 76
2, 800844, Control_c, 0, 64, 56
2, 800860, Control_c, 0, 64, 0
2, 800968, Control_c, 0, 64, 72
2, 800980, Control_c, 0, 64, 127
2, 801192, Note_on_c, 0, 57, 0
2, 801228, Note_on_c, 0, 55, 73
2, 801272, Note_on_c, 0, 55, 0
2, 801408, Note_on_c, 0, 55, 76
2, 801408, Note_on_c, 0, 36, 68
2, 801408, Note_on_c, 0, 52, 70
2, 801408, Note_on_c, 0, 48, 65
2, 801420, Control_c, 0, 64, 104
2, 801432, Control_c, 0, 64, 0
2, 801456, Note_on_c, 0, 52, 0
2, 801540, Control_c, 0, 64, 127
2, 801548, Note_on_c, 0, 52, 67
2, 801568, Note_on_c, 0, 55, 0
2, 801592, Note_on_c, 0, 52, 0
2, 801688, Note_on_c, 0, 60, 69
2, 801796, Note_on_c, 0, 60, 0
2, 801868, Note_on_c, 0, 55, 69
2, 802008, Note_on_c, 0, 64, 70
2, 802112, Note_on_c, 0, 64, 0
2, 802148, Note_on_c, 0, 60, 68
2, 802232, Note_on_c, 0, 55, 0
2, 802304, Note_on_c, 0, 67, 68
2, 802308, Note_on_c, 0, 60, 0
2, 802392, Note_on_c, 0, 67, 0
2, 802604, Note_on_c, 0, 48, 0
2, 802612, Note_on_c, 0, 36, 0
2, 802796, Note_on_c, 0, 64, 76
2, 803176, Note_on_c, 0, 64, 0
2, 803184, Control_c, 0, 64, 104
2, 803200, Control_c, 0, 64, 24
2, 803212, Control_c, 0, 64, 0
2, 803240, Note_on_c, 0, 52, 66
2, 803240, Note_on_c, 0, 31, 68
2, 803240, Note_on_c, 0, 43, 65
2, 803240, Note_on_c, 0, 60, 76
2, 803240, Note_on_c, 0, 55, 64
2, 803292, Control_c, 0, 64, 56
2, 803308, Control_c, 0, 64, 127
2, 803404, Note_on_c, 0, 55, 69
2, 803500, Note_on_c, 0, 55, 0
2, 803544, Note_on_c, 0, 64, 72
2, 803604, Note_on_c, 0, 64, 0
2, 803620, Note_on_c, 0, 55, 0
2, 803664, Note_on_c, 0, 60, 0
2, 803692, Note_on_c, 0, 60, 68
2, 803816, Note_on_c, 0, 67, 72
2, 803912, Note_on_c, 0, 67, 0
2, 803964, Note_on_c, 0, 64, 78
2, 804032, Note_on_c, 0, 52, 0
2, 804104, Note_on_c, 0, 60, 0
2, 804108, Note_on_c, 0, 64, 0
2, 804124, Note_on_c, 0, 31, 0
2, 804148, Note_on_c, 0, 72, 77
2, 804220, Note_on_c, 0, 43, 0
2, 804360, Note_on_c, 0, 72, 0
2, 804616, Note_on_c, 0, 69, 78
2, 804616, Note_on_c, 0, 64, 67
2, 804616, Note_on_c, 0, 60, 68
2, 804900, Note_on_c, 0, 67, 76
2, 804944, Note_on_c, 0, 64, 0
2, 804956, Note_on_c, 0, 60, 0
2, 804972, Note_on_c, 0, 69, 0
2, 805036, Note_on_c, 0, 67, 0
2, 805044, Control_c, 0, 64, 40
2, 805060, Control_c, 0, 64, 0
2, 805112, Note_on_c, 0, 67, 76
2, 805112, Note_on_c, 0, 58, 63
2, 805112, Note_on_c, 0, 64, 63
2, 805112, Note_on_c, 0, 43, 63
2, 805112, Note_on_c, 0, 31, 67
2, 805112, Note_on_c, 0, 61, 67
2, 805112, Note_on_c, 0, 55, 64
2, 805136, Control_c, 0, 64, 104
2, 805152, Control_c, 0, 64, 127
2, 805432, Note_on_c, 0, 81, 94
2, 805472, Note_on_c, 0, 31, 0
2, 805476, Note_on_c, 0, 43, 0
2, 805476, Note_on_c, 0, 58, 0
2, 805476, Note_on_c, 0, 61, 0
2, 805488, Note_on_c, 0, 64, 0
2, 805492, Note_on_c, 0, 67, 0
2, 805492, Note_on_c, 0, 55, 0
2, 805632, Note_on_c, 0, 81, 0
2, 805748, Note_on_c, 0, 84, 95
2, 805748, Note_on_c, 0, 58, 62
2, 805748, Note_on_c, 0, 73, 68
2, 805748, Note_on_c, 0, 55, 65
2, 805748, Note_on_c, 0, 61, 63
2, 805748, Note_on_c, 0, 64, 64
2, 806256, Note_on_c, 0, 84, 0
2, 806440, Note_on_c, 0, 73, 0
2, 806532, Note_on_c, 0, 82, 83
2, 806640, Note_on_c, 0, 82, 0
2, 806788, Note_on_c, 0, 79, 86
2, 806920, Note_on_c, 0, 79, 0
2, 807012, Note_on_c, 0, 76, 85
2, 807156, Note_on_c, 0, 76, 0
2, 807244, Note_on_c, 0, 73, 80
2, 807404, Note_on_c, 0, 55, 0
2, 807408, Note_on_c, 0, 61, 0
2, 807424, Note_on_c, 0, 58, 0
2, 807428, Note_on_c, 0, 64, 0
2, 807448, Note_on_c, 0, 73, 0
2, 807460, Note_on_c, 0, 69, 78
2, 807560, Note_on_c, 0, 69, 0
2, 807660, Note_on_c, 0, 72, 74
2, 807716, Note_on_c, 0, 70, 82
2, 807740, Control_c, 0, 64, 72
2, 807752, Note_on_c, 0, 72, 0
2, 807752, Control_c, 0, 64, 0
2, 807832, Control_c, 0, 64, 56
2, 807848, Control_c, 0, 64, 104
2, 807864, Control_c, 0, 64, 127
2, 807912, Control_c, 0, 64, 104
2, 807920, Note_on_c, 0, 70, 0
2, 807924, Control_c, 0, 64, 40
2, 807936, Note_on_c, 0, 67, 80
2, 807940, Control_c, 0, 64, 0
2, 807984, Control_c, 0, 64, 56
2, 808000, Control_c, 0, 64, 88
2, 808020, Control_c, 0, 64, 127
2, 808136, Note_on_c, 0, 67, 0
2, 808164, Note_on_c, 0, 64, 83
2, 808268, Note_on_c, 0, 64, 0
2, 808404, Note_on_c, 0, 61, 73
2, 808404, Control_c, 0, 64, 72
2, 808420, Control_c, 0, 64, 0
2, 808528, Control_c, 0, 64, 40
2, 808544, Control_c, 0, 64, 72
2, 808560, Control_c, 0, 64, 88
2, 808576, Control_c, 0, 64, 104
2, 808620, Note_on_c, 0, 61, 0
2, 808624, Control_c, 0, 64, 56
2, 808640, Control_c, 0, 64, 0
2, 808648, Note_on_c, 0, 58, 76
2, 808808, Control_c, 0, 64, 40
2, 808824, Control_c, 0, 64, 88
2, 808840, Control_c, 0, 64, 127
2, 809092, Note_on_c, 0, 57, 75
2, 809136, Note_on_c, 0, 57, 0
2, 809256, Note_on_c, 0, 29, 70
2, 809256, Control_c, 0, 64, 72
2, 809256, Note_on_c, 0, 41, 70
2, 809256, Note_on_c, 0, 57, 75
2, 809272, Control_c, 0, 64, 0
2, 809304, Note_on_c, 0, 58, 0
2, 809412, Control_c, 0, 64, 88
2, 809428, Control_c, 0, 64, 127
2, 809448, Note_on_c, 0, 50, 68
2, 809532, Note_on_c, 0, 50, 0
2, 809584, Note_on_c, 0, 57, 70
2, 809668, Note_on_c, 0, 57, 0
2, 809728, Note_on_c, 0, 53, 70
2, 809856, Note_on_c, 0, 53, 0
2, 809908, Note_on_c, 0, 62, 70
2, 810000, Note_on_c, 0, 62, 0
2, 810048, Note_on_c, 0, 57, 68
2, 810176, Note_on_c, 0, 57, 0
2, 810204, Note_on_c, 0, 65, 68
2, 810328, Note_on_c, 0, 41, 0
2, 810340, Note_on_c, 0, 57, 0
2, 810392, Note_on_c, 0, 29, 0
2, 810432, Note_on_c, 0, 65, 0
2, 810648, Note_on_c, 0, 65, 78
2, 811024, Control_c, 0, 64, 72
2, 811040, Control_c, 0, 64, 0
2, 811140, Note_on_c, 0, 65, 0
2, 811148, Control_c, 0, 64, 56
2, 811152, Note_on_c, 0, 32, 68
2, 811152, Note_on_c, 0, 64, 77
2, 811152, Note_on_c, 0, 44, 69
2, 811152, Note_on_c, 0, 62, 68
2, 811160, Control_c, 0, 64, 127
2, 811208, Note_on_c, 0, 62, 0
2, 811320, Note_on_c, 0, 52, 74
2, 811408, Note_on_c, 0, 52, 0
2, 811460, Note_on_c, 0, 62, 73
2, 811528, Note_on_c, 0, 62, 0
2, 811596, Note_on_c, 0, 59, 69
2, 811736, Note_on_c, 0, 64, 73
2, 811844, Note_on_c, 0, 64, 0
2, 811876, Note_on_c, 0, 62, 72
2, 812036, Note_on_c, 0, 62, 0
2, 812052, Note_on_c, 0, 71, 70
2, 812088, Note_on_c, 0, 59, 0
2, 812140, Note_on_c, 0, 32, 0
2, 812264, Note_on_c, 0, 71, 0
2, 812388, Note_on_c, 0, 64, 0
2, 812500, Note_on_c, 0, 59, 76
2, 812544, Note_on_c, 0, 44, 0
2, 812832, Control_c, 0, 64, 104
2, 812844, Control_c, 0, 64, 0
2, 812940, Control_c, 0, 64, 40
2, 812956, Control_c, 0, 64, 127
2, 812956, Note_on_c, 0, 62, 79
2, 812956, Note_on_c, 0, 45, 68
2, 812956, Note_on_c, 0, 33, 70
2, 812964, Note_on_c, 0, 59, 0
2, 813104, Note_on_c, 0, 52, 72
2, 813180, Note_on_c, 0, 52, 0
2, 813252, Note_on_c, 0, 60, 69
2, 813320, Note_on_c, 0, 60, 0
2, 813336, Note_on_c, 0, 33, 0
2, 813404, Note_on_c, 0, 57, 70
2, 813404, Note_on_c, 0, 60, 78
2, 813452, Note_on_c, 0, 62, 0
2, 813504, Note_on_c, 0, 57, 0
2, 813552, Note_on_c, 0, 64, 68
2, 813620, Note_on_c, 0, 64, 0
2, 813700, Note_on_c, 0, 60, 69
2, 813792, Note_on_c, 0, 60, 0
2, 813852, Note_on_c, 0, 69, 68
2, 813856, Control_c, 0, 64, 88
2, 813872, Control_c, 0, 64, 40
2, 813888, Control_c, 0, 64, 0
2, 813904, Control_c, 0, 64, 24
2, 813920, Control_c, 0, 64, 72
2, 813932, Control_c, 0, 64, 127
2, 814064, Note_on_c, 0, 69, 0
2, 814080, Note_on_c, 0, 45, 0
2, 814328, Note_on_c, 0, 72, 81
2, 814328, Note_on_c, 0, 64, 69
2, 814672, Note_on_c, 0, 64, 0
2, 814704, Note_on_c, 0, 72, 0
2, 814808, Control_c, 0, 64, 40
2, 814812, Control_c, 0, 64, 0
2, 814824, Note_on_c, 0, 30, 70
2, 814824, Note_on_c, 0, 71, 80
2, 814824, Note_on_c, 0, 42, 68
2, 814904, Control_c, 0, 64, 127
2, 814968, Note_on_c, 0, 51, 68
2, 815036, Note_on_c, 0, 51, 0
2, 815096, Note_on_c, 0, 60, 72
2, 815140, Note_on_c, 0, 60, 0
2, 815232, Note_on_c, 0, 57, 70
2, 815368, Note_on_c, 0, 63, 73
2, 815408, Note_on_c, 0, 57, 0
2, 815508, Note_on_c, 0, 60, 76
2, 815596, Note_on_c, 0, 60, 0
2, 815636, Note_on_c, 0, 60, 0
2, 815656, Note_on_c, 0, 69, 75
2, 815720, Note_on_c, 0, 69, 0
2, 815764, Note_on_c, 0, 63, 0
2, 815784, Note_on_c, 0, 71, 0
2, 815832, Note_on_c, 0, 30, 0
2, 816052, Note_on_c, 0, 42, 0
2, 816092, Note_on_c, 0, 81, 83
2, 816092, Note_on_c, 0, 69, 73
2, 816348, Note_on_c, 0, 69, 0
2, 816532, Note_on_c, 0, 81, 0
2, 816540, Note_on_c, 0, 79, 79
2, 816540, Note_on_c, 0, 67, 73
2, 816540, Note_on_c, 0, 43, 74
2, 816580, Note_on_c, 0, 43, 71
2, 816588, Note_on_c, 0, 31, 60
2, 816608, Control_c, 0, 64, 72
2, 816624, Control_c, 0, 64, 0
2, 816716, Control_c, 0, 64, 72
2, 816732, Control_c, 0, 64, 127
2, 816744, Note_on_c, 0, 52, 66
2, 816840, Note_on_c, 0, 52, 0
2, 816876, Note_on_c, 0, 60, 73
2, 816936, Note_on_c, 0, 60, 0
2, 817020, Note_on_c, 0, 55, 73
2, 817128, Note_on_c, 0, 55, 0
2, 817144, Note_on_c, 0, 64, 73
2, 817256, Note_on_c, 0, 64, 0
2, 817300, Note_on_c, 0, 60, 73
2, 817400, Note_on_c, 0, 67, 0
2, 817448, Note_on_c, 0, 60, 0
2, 817448, Note_on_c, 0, 67, 73
2, 817492, Note_on_c, 0, 79, 0
2, 817516, Note_on_c, 0, 67, 0
2, 817824, Note_on_c, 0, 88, 90
2, 817824, Note_on_c, 0, 76, 79
2, 818012, Note_on_c, 0, 76, 0
2, 818160, Note_on_c, 0, 43, 0
2, 818220, Control_c, 0, 64, 88
2, 818236, Control_c, 0, 64, 0
2, 818244, Note_on_c, 0, 88, 0
2, 818288, Note_on_c, 0, 54, 65
2, 818288, Note_on_c, 0, 51, 68
2, 818288, Note_on_c, 0, 84, 82
2, 818288, Note_on_c, 0, 72, 69
2, 818288, Note_on_c, 0, 55, 70
2, 818288, Note_on_c, 0, 63, 66
2, 818288, Note_on_c, 0, 66, 66
2, 818312, Control_c, 0, 64, 72
2, 818328, Control_c, 0, 64, 127
2, 818460, Note_on_c, 0, 57, 69
2, 818468, Note_on_c, 0, 54, 0
2, 818472, Note_on_c, 0, 51, 0
2, 818576, Note_on_c, 0, 63, 72
2, 818604, Note_on_c, 0, 57, 0
2, 818680, Note_on_c, 0, 63, 0
2, 818704, Note_on_c, 0, 60, 72
2, 818820, Note_on_c, 0, 60, 0
2, 818856, Note_on_c, 0, 69, 69
2, 818996, Note_on_c, 0, 63, 70
2, 819008, Note_on_c, 0, 69, 0
2, 819028, Note_on_c, 0, 72, 0
2, 819060, Note_on_c, 0, 63, 0
2, 819120, Note_on_c, 0, 84, 0
2, 819196, Note_on_c, 0, 72, 75
2, 819212, Note_on_c, 0, 63, 0
2, 819260, Note_on_c, 0, 66, 0
2, 819388, Note_on_c, 0, 72, 0
2, 819524, Note_on_c, 0, 31, 0
2, 819580, Note_on_c, 0, 43, 0
2, 819600, Note_on_c, 0, 81, 73
2, 819600, Note_on_c, 0, 69, 67
2, 819600, Note_on_c, 0, 93, 87
2, 819600, Note_on_c, 0, 66, 77
2, 819708, Note_on_c, 0, 55, 0
2, 820004, Note_on_c, 0, 81, 0
2, 820060, Note_on_c, 0, 66, 0
2, 820068, Note_on_c, 0, 69, 0
2, 820072, Note_on_c, 0, 93, 0
2, 820072, Note_on_c, 0, 53, 63
2, 820072, Note_on_c, 0, 43, 66
2, 820072, Note_on_c, 0, 50, 61
2, 820072, Note_on_c, 0, 67, 76
2, 820072, Note_on_c, 0, 59, 63
2, 820072, Note_on_c, 0, 91, 82
2, 820072, Note_on_c, 0, 79, 64
2, 820072, Note_on_c, 0, 65, 58
2, 820072, Note_on_c, 0, 62, 68
2, 820072, Note_on_c, 0, 71, 67
2, 820072, Note_on_c, 0, 55, 75
2, 820108, Control_c, 0, 64, 88
2, 820116, Control_c, 0, 64, 0
2, 820204, Control_c, 0, 64, 72
2, 820216, Control_c, 0, 64, 127
2, 820232, Note_on_c, 0, 59, 0
2, 820232, Note_on_c, 0, 67, 0
2, 820232, Note_on_c, 0, 50, 0
2, 820232, Note_on_c, 0, 43, 0
2, 820260, Note_on_c, 0, 53, 0
2, 820324, Note_on_c, 0, 80, 88
2, 820524, Note_on_c, 0, 55, 0
2, 820620, Note_on_c, 0, 80, 0
2, 820620, Note_on_c, 0, 83, 89
2, 820620, Note_on_c, 0, 65, 66
2, 820620, Note_on_c, 0, 55, 69
2, 820620, Note_on_c, 0, 62, 64
2, 820620, Note_on_c, 0, 71, 74
2, 820692, Control_c, 0, 64, 56
2, 820712, Control_c, 0, 64, 0
2, 820772, Control_c, 0, 64, 40
2, 820788, Control_c, 0, 64, 127
2, 820808, Note_on_c, 0, 83, 0
2, 820864, Note_on_c, 0, 81, 87
2, 820992, Note_on_c, 0, 81, 0
2, 821104, Note_on_c, 0, 77, 84
2, 821288, Note_on_c, 0, 77, 0
2, 821308, Note_on_c, 0, 71, 0
2, 821324, Note_on_c, 0, 65, 0
2, 821328, Note_on_c, 0, 91, 0
2, 821332, Note_on_c, 0, 74, 80
2, 821376, Note_on_c, 0, 79, 0
2, 821468, Note_on_c, 0, 65, 0
2, 821476, Note_on_c, 0, 74, 0
2, 821552, Note_on_c, 0, 69, 80
2, 821616, Note_on_c, 0, 69, 0
2, 821716, Note_on_c, 0, 71, 0
2, 821780, Note_on_c, 0, 71, 81
2, 821784, Note_on_c, 0, 62, 0
2, 821812, Note_on_c, 0, 55, 0
2, 821860, Note_on_c, 0, 71, 0
2, 821956, Note_on_c, 0, 62, 0
2, 822052, Note_on_c, 0, 72, 83
2, 822052, Note_on_c, 0, 48, 68
2, 822052, Note_on_c, 0, 84, 73
2, 822052, Note_on_c, 0, 60, 66
2, 822052, Note_on_c, 0, 64, 65
2, 822108, Control_c, 0, 64, 56
2, 822124, Control_c, 0, 64, 0
2, 822260, Control_c, 0, 64, 40
2, 822264, Note_on_c, 0, 72, 0
2, 822276, Control_c, 0, 64, 88
2, 822288, Note_on_c, 0, 73, 78
2, 822292, Control_c, 0, 64, 127
2, 822476, Note_on_c, 0, 84, 0
2, 822492, Note_on_c, 0, 60, 0
2, 822500, Note_on_c, 0, 73, 0
2, 822500, Note_on_c, 0, 64, 0
2, 822508, Control_c, 0, 64, 56
2, 822524, Control_c, 0, 64, 0
2, 822548, Note_on_c, 0, 74, 74
2, 822708, Control_c, 0, 64, 24
2, 822724, Note_on_c, 0, 74, 0
2, 822772, Note_on_c, 0, 69, 78
2, 822880, Note_on_c, 0, 69, 0
2, 822976, Note_on_c, 0, 72, 67
2, 823012, Note_on_c, 0, 70, 76
2, 823020, Control_c, 0, 64, 0
2, 823028, Note_on_c, 0, 72, 0
2, 823036, Note_on_c, 0, 48, 0
2, 823132, Note_on_c, 0, 70, 0
2, 823292, Note_on_c, 0, 69, 79
2, 823292, Note_on_c, 0, 60, 60
2, 823292, Note_on_c, 0, 53, 71
2, 823324, Note_on_c, 0, 53, 0
2, 823332, Note_on_c, 0, 60, 0
2, 823356, Note_on_c, 0, 69, 0
2, 823528, Note_on_c, 0, 70, 73
2, 823528, Note_on_c, 0, 60, 67
2, 823528, Note_on_c, 0, 55, 75
2, 823528, Note_on_c, 0, 65, 66
2, 823568, Note_on_c, 0, 55, 0
2, 823568, Note_on_c, 0, 60, 0
2, 823584, Note_on_c, 0, 65, 0
2, 823604, Note_on_c, 0, 70, 0
2, 823780, Note_on_c, 0, 72, 88
2, 823780, Note_on_c, 0, 57, 68
2, 823780, Note_on_c, 0, 65, 63
2, 823780, Note_on_c, 0, 60, 65
2, 823820, Note_on_c, 0, 65, 0
2, 823824, Note_on_c, 0, 57, 0
2, 823828, Note_on_c, 0, 60, 0
2, 823860, Note_on_c, 0, 72, 0
2, 824032, Note_on_c, 0, 74, 78
2, 824032, Note_on_c, 0, 58, 68
2, 824032, Note_on_c, 0, 65, 65
2, 824248, Note_on_c, 0, 66, 63
2, 824248, Note_on_c, 0, 60, 64
2, 824248, Note_on_c, 0, 62, 63
2, 824292, Note_on_c, 0, 60, 0
2, 824296, Note_on_c, 0, 62, 0
2, 824328, Note_on_c, 0, 66, 0
2, 824392, Note_on_c, 0, 58, 0
2, 824404, Note_on_c, 0, 74, 0
2, 824420, Note_on_c, 0, 65, 0
2, 824488, Note_on_c, 0, 67, 72
2, 824488, Note_on_c, 0, 58, 66
2, 824488, Note_on_c, 0, 62, 65
2, 824536, Note_on_c, 0, 62, 0
2, 824564, Note_on_c, 0, 58, 0
2, 824564, Note_on_c, 0, 67, 0
2, 824712, Note_on_c, 0, 69, 74
2, 824728, Note_on_c, 0, 62, 56
2, 824728, Note_on_c, 0, 57, 53
2, 824776, Note_on_c, 0, 62, 0
2, 824784, Note_on_c, 0, 57, 0
2, 824788, Note_on_c, 0, 69, 0
2, 824944, Note_on_c, 0, 70, 67
2, 824956, Note_on_c, 0, 62, 58
2, 824960, Note_on_c, 0, 55, 66
2, 825040, Note_on_c, 0, 55, 0
2, 825060, Note_on_c, 0, 62, 0
2, 825076, Note_on_c, 0, 70, 0
2, 825164, Note_on_c, 0, 64, 66
2, 825164, Note_on_c, 0, 67, 74
2, 825164, Note_on_c, 0, 58, 68
2, 825164, Note_on_c, 0, 60, 64
2, 825204, Note_on_c, 0, 64, 0
2, 825208, Note_on_c, 0, 60, 0
2, 825240, Note_on_c, 0, 58, 0
2, 825248, Note_on_c, 0, 67, 0
2, 825388, Note_on_c, 0, 69, 76
2, 825396, Note_on_c, 0, 65, 61
2, 825396, Note_on_c, 0, 57, 63
2, 825400, Note_on_c, 0, 60, 55
2, 825440, Note_on_c, 0, 65, 0
2, 825452, Note_on_c, 0, 60, 0
2, 825452, Note_on_c, 0, 57, 0
2, 825456, Note_on_c, 0, 69, 0
2, 825624, Note_on_c, 0, 70, 79
2, 825632, Note_on_c, 0, 55, 77
2, 825636, Note_on_c, 0, 64, 70
2, 825644, Note_on_c, 0, 60, 63
2, 825684, Note_on_c, 0, 60, 0
2, 825684, Note_on_c, 0, 55, 0
2, 825696, Note_on_c, 0, 64, 0
2, 825728, Note_on_c, 0, 70, 0
2, 825900, Note_on_c, 0, 72, 83
2, 825908, Note_on_c, 0, 65, 64
2, 825908, Note_on_c, 0, 60, 58
2, 825916, Note_on_c, 0, 57, 56
2, 826024, Control_c, 0, 64, 56
2, 826036, Note_on_c, 0, 57, 0
2, 826040, Control_c, 0, 64, 88
2, 826048, Note_on_c, 0, 60, 0
2, 826056, Control_c, 0, 64, 127
2, 826088, Note_on_c, 0, 65, 0
2, 826092, Note_on_c, 0, 58, 57
2, 826096, Note_on_c, 0, 72, 0
2, 826104, Note_on_c, 0, 64, 68
2, 826120, Note_on_c, 0, 60, 56
2, 826164, Note_on_c, 0, 60, 0
2, 826176, Note_on_c, 0, 64, 0
2, 826176, Note_on_c, 0, 58, 0
2, 826208, Control_c, 0, 64, 104
2, 826272, Control_c, 0, 64, 88
2, 826288, Control_c, 0, 64, 72
2, 826320, Control_c, 0, 64, 56
2, 826328, Note_on_c, 0, 65, 73
2, 826336, Note_on_c, 0, 57, 62
2, 826352, Control_c, 0, 64, 40
2, 826352, Note_on_c, 0, 60, 47
2, 826364, Control_c, 0, 64, 24
2, 826380, Control_c, 0, 64, 0
2, 826388, Note_on_c, 0, 60, 0
2, 826388, Note_on_c, 0, 57, 0
2, 826408, Note_on_c, 0, 65, 0
2, 826564, Note_on_c, 0, 67, 69
2, 826572, Note_on_c, 0, 60, 60
2, 826576, Note_on_c, 0, 55, 63
2, 826616, Note_on_c, 0, 55, 0
2, 826624, Note_on_c, 0, 60, 0
2, 826640, Note_on_c, 0, 67, 0
2, 826812, Note_on_c, 0, 69, 64
2, 826812, Note_on_c, 0, 60, 54
2, 826820, Note_on_c, 0, 53, 65
2, 826920, Note_on_c, 0, 53, 0
2, 826976, Note_on_c, 0, 60, 0
2, 826996, Note_on_c, 0, 69, 0
2, 827036, Note_on_c, 0, 69, 82
2, 827096, Control_c, 0, 64, 72
2, 827108, Control_c, 0, 64, 127
2, 827240, Note_on_c, 0, 69, 0
2, 827268, Note_on_c, 0, 67, 85
2, 827468, Note_on_c, 0, 67, 0
2, 827480, Note_on_c, 0, 65, 88
2, 827544, Note_on_c, 0, 65, 0
2, 827632, Note_on_c, 0, 67, 78
2, 827632, Note_on_c, 0, 65, 77
2, 827680, Note_on_c, 0, 65, 0
2, 827692, Note_on_c, 0, 67, 0
2, 827784, Note_on_c, 0, 77, 91
2, 827784, Note_on_c, 0, 55, 67
2, 827784, Note_on_c, 0, 50, 68
2, 827784, Note_on_c, 0, 59, 65
2, 827784, Note_on_c, 0, 38, 72
2, 827784, Note_on_c, 0, 65, 68
2, 827784, Note_on_c, 0, 71, 73
2, 827820, Control_c, 0, 64, 88
2, 827836, Control_c, 0, 64, 24
2, 827848, Control_c, 0, 64, 0
2, 828024, Control_c, 0, 64, 24
2, 828036, Control_c, 0, 64, 88
2, 828052, Control_c, 0, 64, 127
2, 828068, Note_on_c, 0, 55, 0
2, 828280, Note_on_c, 0, 53, 27
2, 828500, Note_on_c, 0, 77, 0
2, 828572, Note_on_c, 0, 74, 79
2, 828704, Note_on_c, 0, 50, 0
2, 828744, Note_on_c, 0, 53, 0
2, 828772, Note_on_c, 0, 59, 0
2, 828772, Note_on_c, 0, 74, 0
2, 828824, Note_on_c, 0, 71, 81
2, 829040, Note_on_c, 0, 71, 0
2, 829056, Note_on_c, 0, 67, 83
2, 829216, Note_on_c, 0, 38, 0
2, 829220, Note_on_c, 0, 67, 0
2, 829240, Note_on_c, 0, 71, 85
2, 829320, Note_on_c, 0, 69, 85
2, 829356, Note_on_c, 0, 71, 0
2, 829484, Note_on_c, 0, 71, 0
2, 829496, Note_on_c, 0, 65, 0
2, 829528, Note_on_c, 0, 69, 0
2, 829540, Note_on_c, 0, 67, 85
2, 829556, Control_c, 0, 64, 56
2, 829572, Control_c, 0, 64, 0
2, 829632, Control_c, 0, 64, 40
2, 829648, Note_on_c, 0, 52, 71
2, 829648, Control_c, 0, 64, 104
2, 829652, Note_on_c, 0, 67, 0
2, 829664, Control_c, 0, 64, 127
2, 829688, Note_on_c, 0, 52, 0
2, 829712, Note_on_c, 0, 58, 70
2, 829772, Note_on_c, 0, 60, 73
2, 829776, Note_on_c, 0, 58, 0
2, 829824, Note_on_c, 0, 60, 0
2, 829896, Note_on_c, 0, 79, 91
2, 829896, Note_on_c, 0, 48, 63
2, 829896, Note_on_c, 0, 52, 66
2, 829896, Note_on_c, 0, 40, 70
2, 829916, Note_on_c, 0, 72, 79
2, 829920, Note_on_c, 0, 67, 67
2, 829932, Note_on_c, 0, 70, 73
2, 830008, Note_on_c, 0, 70, 0
2, 830484, Note_on_c, 0, 72, 0
2, 830592, Note_on_c, 0, 79, 0
2, 830672, Note_on_c, 0, 76, 82
2, 830860, Note_on_c, 0, 67, 0
2, 830892, Note_on_c, 0, 76, 0
2, 830932, Note_on_c, 0, 72, 81
2, 831076, Note_on_c, 0, 48, 0
2, 831104, Note_on_c, 0, 40, 0
2, 831116, Note_on_c, 0, 72, 0
2, 831120, Note_on_c, 0, 52, 0
2, 831152, Note_on_c, 0, 73, 79
2, 831372, Note_on_c, 0, 73, 0
2, 831388, Note_on_c, 0, 74, 79
2, 831416, Control_c, 0, 64, 24
2, 831428, Control_c, 0, 64, 0
2, 831568, Control_c, 0, 64, 24
2, 831600, Note_on_c, 0, 74, 0
2, 831608, Note_on_c, 0, 70, 78
2, 831616, Control_c, 0, 64, 0
2, 831844, Note_on_c, 0, 70, 0
2, 831844, Note_on_c, 0, 69, 83
2, 832072, Note_on_c, 0, 69, 0
2, 832084, Note_on_c, 0, 72, 84
2, 832084, Note_on_c, 0, 61, 71
2, 832268, Note_on_c, 0, 61, 0
2, 832284, Note_on_c, 0, 72, 0
2, 832320, Note_on_c, 0, 70, 76
2, 832320, Note_on_c, 0, 62, 68
2, 832524, Note_on_c, 0, 62, 0
2, 832536, Note_on_c, 0, 70, 0
2, 832572, Note_on_c, 0, 67, 73
2, 832572, Note_on_c, 0, 58, 63
2, 832812, Note_on_c, 0, 67, 0
2, 832832, Note_on_c, 0, 62, 70
2, 832832, Note_on_c, 0, 55, 66
2, 833008, Note_on_c, 0, 55, 0
2, 833008, Control_c, 0, 64, 56
2, 833020, Note_on_c, 0, 58, 0
2, 833024, Control_c, 0, 64, 104
2, 833040, Control_c, 0, 64, 127
2, 833084, Note_on_c, 0, 62, 0
2, 833164, Control_c, 0, 64, 104
2, 833180, Control_c, 0, 64, 72
2, 833196, Control_c, 0, 64, 40
2, 833212, Control_c, 0, 64, 24
2, 833228, Control_c, 0, 64, 0
2, 833352, Note_on_c, 0, 64, 72
2, 833352, Note_on_c, 0, 55, 63
2, 833352, Note_on_c, 0, 45, 67
2, 833352, Note_on_c, 0, 61, 66
2, 833456, Control_c, 0, 64, 40
2, 833472, Control_c, 0, 64, 72
2, 833488, Control_c, 0, 64, 104
2, 833504, Control_c, 0, 64, 127
2, 833528, Note_on_c, 0, 61, 0
2, 833556, Note_on_c, 0, 55, 0
2, 833588, Note_on_c, 0, 45, 0
2, 833616, Note_on_c, 0, 64, 0
2, 833896, Note_on_c, 0, 65, 69
2, 833896, Note_on_c, 0, 50, 62
2, 833896, Note_on_c, 0, 53, 60
2, 833896, Note_on_c, 0, 62, 61
2, 834000, Control_c, 0, 64, 104
2, 834016, Control_c, 0, 64, 72
2, 834032, Control_c, 0, 64, 40
2, 834048, Control_c, 0, 64, 0
2, 834264, Control_c, 0, 64, 40
2, 834280, Control_c, 0, 64, 88
2, 834296, Control_c, 0, 64, 127
2, 834420, Note_on_c, 0, 53, 0
2, 834420, Note_on_c, 0, 50, 0
2, 834444, Note_on_c, 0, 62, 0
2, 834476, Note_on_c, 0, 65, 0
2, 835008, Note_on_c, 0, 67, 78
2, 835008, Note_on_c, 0, 43, 68
2, 835008, Note_on_c, 0, 52, 63
2, 835008, Note_on_c, 0, 60, 67
2, 835148, Control_c, 0, 64, 72
2, 835164, Control_c, 0, 64, 0
2, 835380, Control_c, 0, 64, 88
2, 835392, Control_c, 0, 64, 127
2, 835592, Note_on_c, 0, 60, 0
2, 835676, Note_on_c, 0, 67, 0
2, 835864, Note_on_c, 0, 43, 0
2, 835924, Note_on_c, 0, 52, 0
2, 836160, Note_on_c, 0, 76, 86
2, 836412, Note_on_c, 0, 76, 0
2, 836420, Note_on_c, 0, 72, 91
2, 836420, Note_on_c, 0, 63, 63
2, 836420, Note_on_c, 0, 66, 62
2, 836420, Note_on_c, 0, 69, 70
2, 836420, Note_on_c, 0, 60, 60
2, 836420, Note_on_c, 0, 51, 60
2, 836420, Note_on_c, 0, 54, 60
2, 836464, Control_c, 0, 64, 56
2, 836480, Control_c, 0, 64, 0
2, 836556, Control_c, 0, 64, 40
2, 836572, Control_c, 0, 64, 104
2, 836584, Control_c, 0, 64, 127
2, 836680, Note_on_c, 0, 81, 93
2, 836692, Note_on_c, 0, 63, 0
2, 836704, Note_on_c, 0, 66, 0
2, 836736, Note_on_c, 0, 72, 0
2, 836744, Note_on_c, 0, 60, 0
2, 836772, Note_on_c, 0, 81, 0
2, 836784, Note_on_c, 0, 54, 0
2, 836796, Note_on_c, 0, 51, 0
2, 836912, Note_on_c, 0, 69, 0
2, 836980, Note_on_c, 0, 79, 86
2, 836980, Note_on_c, 0, 65, 63
2, 836980, Note_on_c, 0, 62, 61
2, 836980, Note_on_c, 0, 55, 65
2, 836980, Note_on_c, 0, 71, 72
2, 836980, Note_on_c, 0, 43, 66
2, 836980, Note_on_c, 0, 67, 64
2, 836980, Note_on_c, 0, 50, 60
2, 836980, Note_on_c, 0, 53, 60
2, 836980, Note_on_c, 0, 65, 63
2, 836980, Note_on_c, 0, 59, 62
2, 837068, Control_c, 0, 64, 88
2, 837080, Control_c, 0, 64, 0
2, 837208, Control_c, 0, 64, 72
2, 837216, Note_on_c, 0, 79, 0
2, 837220, Control_c, 0, 64, 127
2, 837276, Note_on_c, 0, 71, 0
2, 837288, Note_on_c, 0, 77, 88
2, 837444, Note_on_c, 0, 77, 0
2, 837516, Note_on_c, 0, 69, 82
2, 837516, Note_on_c, 0, 67, 65
2, 837516, Note_on_c, 0, 55, 66
2, 837692, Note_on_c, 0, 53, 0
2, 837692, Note_on_c, 0, 50, 0
2, 837720, Note_on_c, 0, 43, 0
2, 837724, Note_on_c, 0, 69, 0
2, 837724, Note_on_c, 0, 65, 0
2, 837752, Note_on_c, 0, 71, 83
2, 837772, Note_on_c, 0, 55, 0
2, 837772, Note_on_c, 0, 67, 0
2, 837796, Note_on_c, 0, 59, 0
2, 837804, Note_on_c, 0, 65, 0
2, 837832, Note_on_c, 0, 55, 0
2, 837896, Note_on_c, 0, 62, 0
2, 837952, Note_on_c, 0, 71, 0
2, 838012, Note_on_c, 0, 72, 81
2, 838012, Note_on_c, 0, 60, 68
2, 838012, Note_on_c, 0, 67, 65
2, 838012, Note_on_c, 0, 64, 65
2, 838012, Note_on_c, 0, 36, 64
2, 838012, Note_on_c, 0, 48, 62
2, 838040, Note_on_c, 0, 67, 0
2, 838044, Control_c, 0, 64, 56
2, 838060, Control_c, 0, 64, 0
2, 838216, Note_on_c, 0, 72, 0
2, 838256, Note_on_c, 0, 73, 77
2, 838428, Note_on_c, 0, 67, 0
2, 838500, Note_on_c, 0, 74, 79
2, 838504, Note_on_c, 0, 73, 0
2, 838588, Note_on_c, 0, 64, 0
2, 838588, Note_on_c, 0, 60, 0
2, 838692, Note_on_c, 0, 36, 0
2, 838724, Note_on_c, 0, 74, 0
2, 838732, Note_on_c, 0, 69, 79
2, 838748, Note_on_c, 0, 48, 0
2, 838960, Note_on_c, 0, 69, 0
2, 838972, Note_on_c, 0, 72, 81
2, 839188, Note_on_c, 0, 72, 0
2, 839208, Note_on_c, 0, 70, 76
2, 839436, Note_on_c, 0, 70, 0
2, 839440, Note_on_c, 0, 62, 71
2, 839660, Note_on_c, 0, 62, 0
2, 839688, Note_on_c, 0, 64, 68
2, 839948, Note_on_c, 0, 64, 0
2, 839964, Note_on_c, 0, 65, 70
2, 840072, Control_c, 0, 64, 24
2, 840088, Control_c, 0, 64, 88
2, 840104, Control_c, 0, 64, 127
2, 840156, Note_on_c, 0, 65, 0
2, 840468, Note_on_c, 0, 77, 81
2, 840476, Note_on_c, 0, 65, 63
2, 840660, Control_c, 0, 64, 56
2, 840676, Control_c, 0, 64, 0
2, 840724, Control_c, 0, 64, 40
2, 840740, Control_c, 0, 64, 104
2, 840756, Control_c, 0, 64, 127
2, 841056, Note_on_c, 0, 65, 0
2, 841144, Note_on_c, 0, 77, 0
2, 841344, Note_on_c, 0, 79, 83
2, 841356, Note_on_c, 0, 67, 56
2, 841356, Control_c, 0, 64, 88
2, 841376, Note_on_c, 0, 64, 53
2, 841384, Note_on_c, 0, 65, 53
2, 841404, Control_c, 0, 64, 127
2, 841440, Note_on_c, 0, 67, 0
2, 841472, Note_on_c, 0, 79, 0
2, 841596, Note_on_c, 0, 81, 90
2, 841616, Note_on_c, 0, 69, 60
2, 841664, Note_on_c, 0, 69, 0
2, 841732, Note_on_c, 0, 81, 0
2, 841768, Note_on_c, 0, 64, 0
2, 841768, Note_on_c, 0, 65, 0
2, 841836, Note_on_c, 0, 82, 85
2, 841836, Note_on_c, 0, 65, 34
2, 841860, Note_on_c, 0, 70, 64
2, 841880, Note_on_c, 0, 62, 52
2, 841900, Control_c, 0, 64, 56
2, 841916, Control_c, 0, 64, 0
2, 841960, Control_c, 0, 64, 40
2, 841980, Control_c, 0, 64, 104
2, 841992, Control_c, 0, 64, 127
2, 842064, Note_on_c, 0, 82, 0
2, 842068, Note_on_c, 0, 70, 0
2, 842116, Note_on_c, 0, 65, 0
2, 842140, Note_on_c, 0, 62, 0
2, 842336, Note_on_c, 0, 81, 82
2, 842340, Note_on_c, 0, 69, 72
2, 842352, Note_on_c, 0, 65, 56
2, 842364, Note_on_c, 0, 60, 62
2, 842412, Control_c, 0, 64, 40
2, 842428, Control_c, 0, 64, 0
2, 842456, Control_c, 0, 64, 24
2, 842472, Control_c, 0, 64, 88
2, 842488, Control_c, 0, 64, 127
2, 842520, Note_on_c, 0, 69, 0
2, 842564, Note_on_c, 0, 81, 0
2, 842808, Note_on_c, 0, 86, 87
2, 842816, Note_on_c, 0, 74, 70
2, 842828, Note_on_c, 0, 58, 58
2, 842864, Note_on_c, 0, 60, 0
2, 842876, Control_c, 0, 64, 72
2, 842892, Control_c, 0, 64, 0
2, 842940, Control_c, 0, 64, 40
2, 842956, Control_c, 0, 64, 127
2, 843064, Note_on_c, 0, 58, 0
2, 843116, Note_on_c, 0, 86, 0
2, 843128, Note_on_c, 0, 65, 0
2, 843152, Note_on_c, 0, 74, 0
2, 843300, Note_on_c, 0, 84, 84
2, 843316, Note_on_c, 0, 72, 70
2, 843320, Note_on_c, 0, 65, 56
2, 843332, Note_on_c, 0, 57, 55
2, 843372, Control_c, 0, 64, 104
2, 843388, Control_c, 0, 64, 24
2, 843404, Control_c, 0, 64, 0
2, 843448, Control_c, 0, 64, 40
2, 843464, Control_c, 0, 64, 104
2, 843480, Note_on_c, 0, 57, 0
2, 843480, Control_c, 0, 64, 127
2, 843488, Note_on_c, 0, 84, 0
2, 843520, Note_on_c, 0, 72, 0
2, 843552, Note_on_c, 0, 65, 0
2, 843788, Control_c, 0, 64, 104
2, 843796, Note_on_c, 0, 83, 78
2, 843808, Control_c, 0, 64, 24
2, 843812, Note_on_c, 0, 65, 53
2, 843820, Note_on_c, 0, 71, 58
2, 843820, Control_c, 0, 64, 0
2, 843840, Note_on_c, 0, 55, 58
2, 843884, Control_c, 0, 64, 72
2, 843900, Control_c, 0, 64, 127
2, 843920, Note_on_c, 0, 83, 0
2, 844008, Note_on_c, 0, 71, 0
2, 844060, Note_on_c, 0, 65, 0
2, 844124, Note_on_c, 0, 77, 83
2, 844300, Note_on_c, 0, 77, 0
2, 844368, Note_on_c, 0, 74, 84
2, 844532, Note_on_c, 0, 55, 0
2, 844540, Note_on_c, 0, 74, 0
2, 844592, Note_on_c, 0, 71, 84
2, 844792, Note_on_c, 0, 71, 0
2, 844816, Note_on_c, 0, 67, 83
2, 845000, Note_on_c, 0, 67, 0
2, 845032, Note_on_c, 0, 68, 73
2, 845092, Control_c, 0, 64, 56
2, 845108, Control_c, 0, 64, 0
2, 845152, Control_c, 0, 64, 24
2, 845172, Control_c, 0, 64, 72
2, 845188, Control_c, 0, 64, 104
2, 845200, Control_c, 0, 64, 127
2, 845216, Note_on_c, 0, 68, 0
2, 845232, Note_on_c, 0, 71, 69
2, 845280, Control_c, 0, 64, 40
2, 845284, Note_on_c, 0, 69, 78
2, 845296, Control_c, 0, 64, 0
2, 845300, Note_on_c, 0, 71, 0
2, 845400, Control_c, 0, 64, 104
2, 845416, Control_c, 0, 64, 127
2, 845500, Note_on_c, 0, 69, 0
2, 845508, Note_on_c, 0, 65, 77
2, 845760, Note_on_c, 0, 64, 83
2, 845760, Control_c, 0, 64, 0
2, 845760, Note_on_c, 0, 82, 64
2, 845760, Note_on_c, 0, 70, 63
2, 845772, Note_on_c, 0, 65, 0
2, 845812, Note_on_c, 0, 64, 64
2, 845820, Note_on_c, 0, 60, 67
2, 845836, Control_c, 0, 64, 56
2, 845848, Note_on_c, 0, 64, 0
2, 845852, Control_c, 0, 64, 127
2, 845944, Note_on_c, 0, 36, 57
2, 846044, Note_on_c, 0, 82, 85
2, 846072, Note_on_c, 0, 36, 0
2, 846076, Note_on_c, 0, 48, 64
2, 846144, Note_on_c, 0, 48, 0
2, 846244, Note_on_c, 0, 82, 0
2, 846308, Note_on_c, 0, 79, 88
2, 846320, Note_on_c, 0, 52, 71
2, 846500, Note_on_c, 0, 79, 0
2, 846536, Note_on_c, 0, 76, 88
2, 846552, Note_on_c, 0, 55, 60
2, 846632, Note_on_c, 0, 52, 0
2, 846732, Note_on_c, 0, 76, 0
2, 846744, Note_on_c, 0, 55, 0
2, 846764, Note_on_c, 0, 72, 84
2, 846764, Note_on_c, 0, 58, 68
2, 846788, Note_on_c, 0, 60, 0
2, 846820, Note_on_c, 0, 70, 0
2, 846824, Note_on_c, 0, 64, 0
2, 846832, Note_on_c, 0, 82, 0
2, 846956, Note_on_c, 0, 72, 0
2, 846980, Note_on_c, 0, 58, 0
2, 846980, Note_on_c, 0, 73, 83
2, 847016, Note_on_c, 0, 60, 71
2, 847116, Note_on_c, 0, 60, 0
2, 847204, Note_on_c, 0, 73, 0
2, 847216, Note_on_c, 0, 74, 86
2, 847236, Note_on_c, 0, 64, 65
2, 847360, Note_on_c, 0, 74, 0
2, 847448, Note_on_c, 0, 64, 0
2, 847448, Note_on_c, 0, 70, 82
2, 847480, Note_on_c, 0, 67, 66
2, 847636, Note_on_c, 0, 67, 0
2, 847692, Note_on_c, 0, 70, 0
2, 847708, Control_c, 0, 64, 72
2, 847720, Note_on_c, 0, 69, 79
2, 847720, Note_on_c, 0, 53, 63
2, 847720, Note_on_c, 0, 65, 63
2, 847724, Control_c, 0, 64, 0
2, 847804, Control_c, 0, 64, 56
2, 847812, Note_on_c, 0, 65, 0
2, 847820, Control_c, 0, 64, 127
2, 847828, Note_on_c, 0, 69, 0
2, 848008, Note_on_c, 0, 77, 81
2, 848188, Note_on_c, 0, 77, 0
2, 848212, Note_on_c, 0, 76, 80
2, 848212, Note_on_c, 0, 65, 64
2, 848252, Control_c, 0, 64, 40
2, 848268, Control_c, 0, 64, 0
2, 848408, Control_c, 0, 64, 56
2, 848416, Note_on_c, 0, 76, 0
2, 848424, Control_c, 0, 64, 127
2, 848436, Note_on_c, 0, 77, 88
2, 848520, Note_on_c, 0, 53, 0
2, 848628, Note_on_c, 0, 77, 0
2, 848676, Note_on_c, 0, 76, 88
2, 848856, Note_on_c, 0, 76, 0
2, 848896, Note_on_c, 0, 77, 89
2, 848944, Note_on_c, 0, 65, 0
2, 849076, Note_on_c, 0, 77, 0
2, 849136, Note_on_c, 0, 79, 83
2, 849136, Note_on_c, 0, 63, 63
2, 849136, Note_on_c, 0, 65, 64
2, 849136, Note_on_c, 0, 67, 66
2, 849136, Control_c, 0, 64, 24
2, 849152, Control_c, 0, 64, 0
2, 849196, Control_c, 0, 64, 40
2, 849212, Control_c, 0, 64, 104
2, 849220, Note_on_c, 0, 67, 0
2, 849228, Control_c, 0, 64, 127
2, 849336, Note_on_c, 0, 79, 0
2, 849380, Note_on_c, 0, 81, 91
2, 849380, Note_on_c, 0, 69, 80
2, 849424, Note_on_c, 0, 65, 0
2, 849428, Note_on_c, 0, 69, 0
2, 849452, Note_on_c, 0, 81, 0
2, 849476, Note_on_c, 0, 63, 0
2, 849640, Note_on_c, 0, 84, 95
2, 849640, Note_on_c, 0, 65, 61
2, 849640, Note_on_c, 0, 61, 63
2, 849640, Note_on_c, 0, 72, 73
2, 849708, Control_c, 0, 64, 104
2, 849724, Control_c, 0, 64, 0
2, 849772, Note_on_c, 0, 72, 0
2, 849788, Control_c, 0, 64, 40
2, 849800, Control_c, 0, 64, 104
2, 849816, Control_c, 0, 64, 127
2, 849836, Note_on_c, 0, 84, 0
2, 849912, Note_on_c, 0, 82, 88
2, 849912, Note_on_c, 0, 70, 72
2, 849924, Note_on_c, 0, 65, 0
2, 849944, Note_on_c, 0, 61, 0
2, 850080, Control_c, 0, 64, 40
2, 850096, Control_c, 0, 64, 0
2, 850140, Note_on_c, 0, 65, 66
2, 850140, Note_on_c, 0, 60, 68
2, 850160, Control_c, 0, 64, 56
2, 850172, Control_c, 0, 64, 127
2, 850216, Note_on_c, 0, 70, 0
2, 850252, Note_on_c, 0, 82, 0
2, 850384, Note_on_c, 0, 80, 84
2, 850384, Note_on_c, 0, 68, 72
2, 850516, Control_c, 0, 64, 72
2, 850532, Control_c, 0, 64, 0
2, 850580, Note_on_c, 0, 60, 0
2, 850592, Control_c, 0, 64, 24
2, 850608, Control_c, 0, 64, 104
2, 850624, Control_c, 0, 64, 127
2, 850644, Note_on_c, 0, 68, 0
2, 850648, Note_on_c, 0, 58, 68
2, 850668, Note_on_c, 0, 80, 0
2, 850860, Note_on_c, 0, 85, 91
2, 850860, Note_on_c, 0, 73, 76
2, 850912, Note_on_c, 0, 58, 0
2, 850972, Note_on_c, 0, 65, 0
2, 851008, Control_c, 0, 64, 72
2, 851024, Control_c, 0, 64, 0
2, 851088, Control_c, 0, 64, 40
2, 851104, Control_c, 0, 64, 127
2, 851116, Note_on_c, 0, 65, 66
2, 851116, Note_on_c, 0, 56, 66
2, 851176, Note_on_c, 0, 73, 0
2, 851208, Note_on_c, 0, 85, 0
2, 851352, Note_on_c, 0, 84, 87
2, 851352, Note_on_c, 0, 72, 78
2, 851404, Note_on_c, 0, 56, 0
2, 851420, Note_on_c, 0, 65, 0
2, 851424, Note_on_c, 0, 72, 0
2, 851428, Note_on_c, 0, 84, 0
2, 851668, Note_on_c, 0, 83, 83
2, 851668, Note_on_c, 0, 55, 68
2, 851668, Note_on_c, 0, 65, 68
2, 851668, Note_on_c, 0, 71, 72
2, 851676, Control_c, 0, 64, 56
2, 851692, Control_c, 0, 64, 0
2, 851768, Control_c, 0, 64, 56
2, 851784, Control_c, 0, 64, 127
2, 851812, Note_on_c, 0, 65, 0
2, 851872, Note_on_c, 0, 83, 0
2, 851872, Note_on_c, 0, 55, 0
2, 851892, Note_on_c, 0, 71, 0
2, 851984, Note_on_c, 0, 65, 73
2, 852176, Note_on_c, 0, 65, 0
2, 852228, Note_on_c, 0, 77, 88
2, 852228, Note_on_c, 0, 62, 71
2, 852396, Note_on_c, 0, 62, 0
2, 852464, Note_on_c, 0, 59, 65
2, 852692, Note_on_c, 0, 59, 0
2, 852704, Note_on_c, 0, 55, 75
2, 852876, Note_on_c, 0, 77, 0
2, 852920, Note_on_c, 0, 55, 0
2, 852952, Note_on_c, 0, 56, 76
2, 853144, Note_on_c, 0, 56, 0
2, 853176, Note_on_c, 0, 71, 81
2, 853180, Control_c, 0, 64, 104
2, 853188, Note_on_c, 0, 57, 78
2, 853196, Control_c, 0, 64, 24
2, 853208, Control_c, 0, 64, 0
2, 853272, Control_c, 0, 64, 40
2, 853288, Control_c, 0, 64, 127
2, 853292, Note_on_c, 0, 71, 0
2, 853308, Note_on_c, 0, 72, 83
2, 853432, Note_on_c, 0, 72, 0
2, 853432, Note_on_c, 0, 71, 83
2, 853460, Note_on_c, 0, 53, 74
2, 853508, Note_on_c, 0, 57, 0
2, 853512, Note_on_c, 0, 71, 0
2, 853524, Note_on_c, 0, 70, 83
2, 853532, Note_on_c, 0, 53, 0
2, 853604, Note_on_c, 0, 70, 0
2, 853632, Note_on_c, 0, 71, 84
2, 853776, Note_on_c, 0, 71, 0
2, 853792, Note_on_c, 0, 74, 88
2, 853792, Note_on_c, 0, 52, 67
2, 853792, Note_on_c, 0, 70, 62
2, 853792, Note_on_c, 0, 82, 63
2, 853796, Control_c, 0, 64, 88
2, 853812, Note_on_c, 0, 64, 47
2, 853812, Note_on_c, 0, 60, 46
2, 853816, Control_c, 0, 64, 0
2, 853840, Note_on_c, 0, 48, 67
2, 853936, Control_c, 0, 64, 88
2, 853952, Control_c, 0, 64, 127
2, 854044, Note_on_c, 0, 52, 0
2, 854084, Note_on_c, 0, 58, 68
2, 854236, Note_on_c, 0, 48, 0
2, 854276, Note_on_c, 0, 74, 0
2, 854296, Note_on_c, 0, 58, 0
2, 854312, Note_on_c, 0, 72, 83
2, 854340, Note_on_c, 0, 55, 67
2, 854444, Note_on_c, 0, 55, 0
2, 854508, Note_on_c, 0, 52, 65
2, 854764, Note_on_c, 0, 52, 0
2, 854772, Note_on_c, 0, 48, 67
2, 854776, Control_c, 0, 64, 56
2, 854788, Control_c, 0, 64, 0
2, 854868, Control_c, 0, 64, 56
2, 854884, Control_c, 0, 64, 104
2, 854900, Control_c, 0, 64, 127
2, 854936, Note_on_c, 0, 48, 0
2, 854988, Note_on_c, 0, 49, 68
2, 855064, Note_on_c, 0, 82, 0
2, 855104, Note_on_c, 0, 70, 0
2, 855168, Note_on_c, 0, 49, 0
2, 855196, Control_c, 0, 64, 104
2, 855204, Note_on_c, 0, 72, 0
2, 855208, Control_c, 0, 64, 72
2, 855224, Control_c, 0, 64, 24
2, 855228, Note_on_c, 0, 50, 69
2, 855232, Note_on_c, 0, 70, 74
2, 855232, Note_on_c, 0, 60, 67
2, 855240, Control_c, 0, 64, 0
2, 855248, Note_on_c, 0, 60, 0
2, 855276, Note_on_c, 0, 64, 0
2, 855448, Note_on_c, 0, 50, 0
2, 855472, Note_on_c, 0, 52, 70
2, 855648, Note_on_c, 0, 70, 0
2, 855672, Note_on_c, 0, 60, 0
2, 855700, Note_on_c, 0, 52, 0
2, 855700, Note_on_c, 0, 69, 78
2, 855700, Note_on_c, 0, 53, 71
2, 855732, Note_on_c, 0, 53, 0
2, 855768, Note_on_c, 0, 69, 0
2, 855940, Note_on_c, 0, 69, 83
2, 855940, Note_on_c, 0, 65, 68
2, 855940, Note_on_c, 0, 60, 63
2, 855940, Note_on_c, 0, 53, 64
2, 855988, Note_on_c, 0, 53, 0
2, 855988, Note_on_c, 0, 60, 0
2, 855992, Note_on_c, 0, 65, 0
2, 856020, Note_on_c, 0, 69, 0
2, 856164, Note_on_c, 0, 70, 73
2, 856164, Note_on_c, 0, 55, 69
2, 856164, Note_on_c, 0, 60, 66
2, 856164, Note_on_c, 0, 65, 64
2, 856208, Note_on_c, 0, 60, 0
2, 856212, Note_on_c, 0, 65, 0
2, 856236, Note_on_c, 0, 55, 0
2, 856256, Note_on_c, 0, 70, 0
2, 856380, Note_on_c, 0, 72, 83
2, 856380, Note_on_c, 0, 57, 65
2, 856380, Note_on_c, 0, 60, 63
2, 856380, Note_on_c, 0, 65, 64
2, 856428, Note_on_c, 0, 65, 0
2, 856432, Note_on_c, 0, 60, 0
2, 856432, Note_on_c, 0, 57, 0
2, 856468, Note_on_c, 0, 72, 0
2, 856632, Note_on_c, 0, 74, 78
2, 856632, Note_on_c, 0, 65, 61
2, 856632, Note_on_c, 0, 58, 66
2, 856724, Note_on_c, 0, 58, 0
2, 856836, Note_on_c, 0, 65, 0
2, 856852, Note_on_c, 0, 74, 0
2, 856876, Note_on_c, 0, 79, 76
2, 856876, Note_on_c, 0, 60, 64
2, 856876, Note_on_c, 0, 64, 63
2, 856876, Note_on_c, 0, 58, 66
2, 856876, Note_on_c, 0, 67, 71
2, 856908, Note_on_c, 0, 64, 0
2, 856912, Note_on_c, 0, 60, 0
2, 856916, Note_on_c, 0, 67, 0
2, 856940, Note_on_c, 0, 58, 0
2, 856944, Note_on_c, 0, 79, 0
2, 857116, Note_on_c, 0, 81, 76
2, 857116, Note_on_c, 0, 57, 67
2, 857116, Note_on_c, 0, 65, 68
2, 857116, Note_on_c, 0, 60, 64
2, 857116, Note_on_c, 0, 69, 63
2, 857152, Note_on_c, 0, 69, 0
2, 857156, Note_on_c, 0, 57, 0
2, 857160, Note_on_c, 0, 60, 0
2, 857164, Note_on_c, 0, 81, 0
2, 857168, Note_on_c, 0, 65, 0
2, 857340, Note_on_c, 0, 82, 83
2, 857340, Note_on_c, 0, 55, 67
2, 857340, Note_on_c, 0, 64, 63
2, 857340, Note_on_c, 0, 70, 73
2, 857380, Note_on_c, 0, 55, 0
2, 857384, Note_on_c, 0, 64, 0
2, 857392, Note_on_c, 0, 70, 0
2, 857412, Note_on_c, 0, 82, 0
2, 857576, Note_on_c, 0, 84, 81
2, 857576, Note_on_c, 0, 72, 75
2, 857576, Note_on_c, 0, 57, 66
2, 857576, Note_on_c, 0, 60, 64
2, 857576, Note_on_c, 0, 65, 65
2, 857652, Note_on_c, 0, 60, 0
2, 857664, Note_on_c, 0, 65, 0
2, 857668, Note_on_c, 0, 57, 0
2, 857704, Note_on_c, 0, 84, 0
2, 857712, Note_on_c, 0, 72, 0
2, 857820, Note_on_c, 0, 69, 78
2, 857820, Note_on_c, 0, 60, 66
2, 857820, Note_on_c, 0, 53, 69
2, 857820, Note_on_c, 0, 65, 69
2, 857852, Note_on_c, 0, 53, 0
2, 857868, Note_on_c, 0, 60, 0
2, 857876, Note_on_c, 0, 65, 0
2, 857900, Note_on_c, 0, 69, 0
2, 858052, Note_on_c, 0, 70, 73
2, 858052, Note_on_c, 0, 60, 63
2, 858052, Note_on_c, 0, 55, 68
2, 858052, Note_on_c, 0, 65, 66
2, 858092, Note_on_c, 0, 55, 0
2, 858092, Note_on_c, 0, 60, 0
2, 858100, Note_on_c, 0, 65, 0
2, 858152, Note_on_c, 0, 70, 0
2, 858272, Note_on_c, 0, 72, 80
2, 858272, Note_on_c, 0, 57, 66
2, 858272, Note_on_c, 0, 60, 64
2, 858272, Note_on_c, 0, 65, 70
2, 858312, Note_on_c, 0, 65, 0
2, 858316, Note_on_c, 0, 60, 0
2, 858316, Note_on_c, 0, 57, 0
2, 858392, Note_on_c, 0, 72, 0
2, 858484, Note_on_c, 0, 74, 83
2, 858484, Note_on_c, 0, 58, 66
2, 858484, Note_on_c, 0, 65, 66
2, 858524, Note_on_c, 0, 58, 0
2, 858532, Note_on_c, 0, 65, 0
2, 858548, Note_on_c, 0, 74, 0
2, 858716, Note_on_c, 0, 76, 93
2, 858716, Note_on_c, 0, 58, 68
2, 858716, Note_on_c, 0, 61, 64
2, 858716, Note_on_c, 0, 67, 66
2, 858764, Note_on_c, 0, 67, 0
2, 858764, Note_on_c, 0, 61, 0
2, 858792, Note_on_c, 0, 58, 0
2, 858800, Note_on_c, 0, 76, 0
2, 858948, Note_on_c, 0, 77, 89
2, 858948, Note_on_c, 0, 62, 68
2, 858948, Note_on_c, 0, 58, 70
2, 858948, Note_on_c, 0, 65, 68
2, 858992, Note_on_c, 0, 62, 0
2, 858996, Note_on_c, 0, 65, 0
2, 859024, Note_on_c, 0, 58, 0
2, 859040, Note_on_c, 0, 77, 0
2, 859184, Note_on_c, 0, 79, 91
2, 859184, Note_on_c, 0, 74, 76
2, 859184, Note_on_c, 0, 62, 67
2, 859184, Note_on_c, 0, 58, 71
2, 859216, Note_on_c, 0, 74, 0
2, 859248, Note_on_c, 0, 62, 0
2, 859280, Note_on_c, 0, 79, 0
2, 859288, Note_on_c, 0, 58, 0
2, 859468, Note_on_c, 0, 81, 93
2, 859468, Note_on_c, 0, 73, 74
2, 859468, Note_on_c, 0, 57, 72
2, 859468, Note_on_c, 0, 64, 68
2, 859872, Control_c, 0, 64, 40
2, 859884, Control_c, 0, 64, 56
2, 859900, Control_c, 0, 64, 72
2, 859916, Control_c, 0, 64, 104
2, 859932, Control_c, 0, 64, 127
2, 860164, Note_on_c, 0, 57, 0
2, 860196, Note_on_c, 0, 64, 0
2, 860324, Note_on_c, 0, 81, 0
2, 860368, Note_on_c, 0, 73, 0
2, 860528, Note_on_c, 0, 81, 87
2, 860528, Note_on_c, 0, 72, 73
2, 860528, Note_on_c, 0, 63, 67
2, 860528, Note_on_c, 0, 53, 70
2, 860660, Control_c, 0, 64, 72
2, 860676, Control_c, 0, 64, 24
2, 860692, Control_c, 0, 64, 0
2, 860816, Control_c, 0, 64, 56
2, 860832, Control_c, 0, 64, 104
2, 860848, Control_c, 0, 64, 127
2, 861220, Note_on_c, 0, 53, 0
2, 861352, Note_on_c, 0, 63, 0
2, 861424, Note_on_c, 0, 72, 0
2, 861508, Note_on_c, 0, 81, 0
2, 861544, Note_on_c, 0, 74, 68
2, 861544, Note_on_c, 0, 62, 63
2, 861544, Note_on_c, 0, 58, 65
2, 861680, Control_c, 0, 64, 104
2, 861696, Control_c, 0, 64, 56
2, 861716, Control_c, 0, 64, 0
2, 861900, Control_c, 0, 64, 24
2, 861916, Control_c, 0, 64, 72
2, 861932, Control_c, 0, 64, 127
2, 861968, Note_on_c, 0, 62, 0
2, 862008, Note_on_c, 0, 58, 0
2, 862024, Note_on_c, 0, 74, 0
2, 862552, Note_on_c, 0, 81, 87
2, 862552, Note_on_c, 0, 72, 73
2, 862552, Note_on_c, 0, 63, 67
2, 862552, Note_on_c, 0, 53, 70
2, 862684, Control_c, 0, 64, 72
2, 862700, Control_c, 0, 64, 24
2, 862716, Control_c, 0, 64, 0
2, 862840, Control_c, 0, 64, 56
2, 862856, Control_c, 0, 64, 104
2, 862872, Control_c, 0, 64, 127
2, 863244, Note_on_c, 0, 53, 0
2, 863376, Note_on_c, 0, 63, 0
2, 863448, Note_on_c, 0, 72, 0
2, 863532, Note_on_c, 0, 81, 0
2, 863568, Note_on_c, 0, 74, 68
2, 863568, Note_on_c, 0, 62, 63
2, 863568, Note_on_c, 0, 58, 65
2, 863704, Control_c, 0, 64, 104
2, 863720, Control_c, 0, 64, 56
2, 863740, Control_c, 0, 64, 0
2, 863924, Control_c, 0, 64, 24
2, 863940, Control_c, 0, 64, 72
2, 863956, Control_c, 0, 64, 127
2, 863992, Note_on_c, 0, 62, 0
2, 864032, Note_on_c, 0, 58, 0
2, 864048, Note_on_c, 0, 74, 0
2, 864576, Note_on_c, 0, 53, 67
2, 864576, Note_on_c, 0, 63, 64
2, 864576, Note_on_c, 0, 69, 79
2, 864576, Note_on_c, 0, 57, 63
2, 864576, Note_on_c, 0, 41, 68
2, 864652, Control_c, 0, 64, 56
2, 864668, Control_c, 0, 64, 0
2, 864764, Control_c, 0, 64, 24
2, 864776, Control_c, 0, 64, 88
2, 864792, Control_c, 0, 64, 127
2, 864952, Note_on_c, 0, 53, 0
2, 864968, Note_on_c, 0, 41, 0
2, 864972, Note_on_c, 0, 63, 0
2, 865000, Note_on_c, 0, 57, 0
2, 865100, Note_on_c, 0, 69, 0
2, 865492, Control_c, 0, 64, 104
2, 865504, Control_c, 0, 64, 24
2, 865520, Control_c, 0, 64, 0
2, 865524, Note_on_c, 0, 62, 64
2, 865524, Note_on_c, 0, 40, 64
2, 865524, Note_on_c, 0, 52, 63
2, 865524, Note_on_c, 0, 56, 64
2, 865568, Control_c, 0, 64, 56
2, 865584, Control_c, 0, 64, 127
2, 865700, Note_on_c, 0, 62, 0
2, 865712, Note_on_c, 0, 52, 0
2, 865716, Note_on_c, 0, 56, 0
2, 865720, Note_on_c, 0, 40, 0
2, 865788, Note_on_c, 0, 73, 78
2, 865788, Note_on_c, 0, 61, 69
2, 865812, Control_c, 0, 64, 72
2, 865828, Note_on_c, 0, 61, 0
2, 865828, Note_on_c, 0, 73, 0
2, 865828, Control_c, 0, 64, 0
2, 865992, Note_on_c, 0, 74, 85
2, 865992, Note_on_c, 0, 62, 71
2, 866044, Note_on_c, 0, 62, 0
2, 866048, Note_on_c, 0, 74, 0
2, 866216, Note_on_c, 0, 76, 88
2, 866220, Note_on_c, 0, 64, 73
2, 866260, Note_on_c, 0, 64, 0
2, 866268, Note_on_c, 0, 76, 0
2, 866460, Note_on_c, 0, 79, 90
2, 866472, Note_on_c, 0, 67, 65
2, 866480, Control_c, 0, 64, 56
2, 866496, Control_c, 0, 64, 88
2, 866512, Control_c, 0, 64, 127
2, 866592, Control_c, 0, 64, 104
2, 866604, Control_c, 0, 64, 72
2, 866620, Control_c, 0, 64, 40
2, 866636, Control_c, 0, 64, 0
2, 866648, Note_on_c, 0, 67, 0
2, 866676, Note_on_c, 0, 77, 86
2, 866676, Note_on_c, 0, 65, 70
2, 866680, Note_on_c, 0, 79, 0
2, 866736, Note_on_c, 0, 65, 0
2, 866772, Note_on_c, 0, 77, 0
2, 866896, Note_on_c, 0, 76, 83
2, 866908, Note_on_c, 0, 64, 61
2, 866968, Note_on_c, 0, 64, 0
2, 866968, Note_on_c, 0, 76, 0
2, 867136, Note_on_c, 0, 74, 79
2, 867136, Note_on_c, 0, 62, 61
2, 867192, Note_on_c, 0, 62, 0
2, 867212, Note_on_c, 0, 74, 0
2, 867396, Note_on_c, 0, 72, 79
2, 867408, Note_on_c, 0, 60, 57
2, 867564, Control_c, 0, 64, 24
2, 867580, Control_c, 0, 64, 72
2, 867596, Control_c, 0, 64, 104
2, 867612, Control_c, 0, 64, 127
2, 867740, Note_on_c, 0, 60, 0
2, 867796, Note_on_c, 0, 72, 0
2, 868380, Note_on_c, 0, 67, 68
2, 868380, Note_on_c, 0, 61, 63
2, 868380, Note_on_c, 0, 51, 61
2, 868380, Note_on_c, 0, 39, 63
2, 868380, Note_on_c, 0, 55, 61
2, 868512, Control_c, 0, 64, 72
2, 868528, Control_c, 0, 64, 0
2, 868632, Control_c, 0, 64, 56
2, 868648, Control_c, 0, 64, 104
2, 868664, Control_c, 0, 64, 127
2, 868792, Note_on_c, 0, 61, 0
2, 868816, Note_on_c, 0, 39, 0
2, 868820, Note_on_c, 0, 55, 0
2, 868840, Note_on_c, 0, 51, 0
2, 868844, Note_on_c, 0, 67, 0
2, 869364, Control_c, 0, 64, 104
2, 869376, Control_c, 0, 64, 40
2, 869388, Note_on_c, 0, 60, 65
2, 869388, Note_on_c, 0, 50, 63
2, 869388, Note_on_c, 0, 54, 61
2, 869388, Note_on_c, 0, 38, 62
2, 869388, Control_c, 0, 64, 0
2, 869424, Control_c, 0, 64, 40
2, 869440, Control_c, 0, 64, 104
2, 869456, Control_c, 0, 64, 127
2, 869552, Note_on_c, 0, 54, 0
2, 869552, Note_on_c, 0, 60, 0
2, 869552, Note_on_c, 0, 50, 0
2, 869556, Note_on_c, 0, 38, 0
2, 869652, Note_on_c, 0, 71, 69
2, 869652, Note_on_c, 0, 59, 72
2, 869672, Control_c, 0, 64, 104
2, 869688, Control_c, 0, 64, 40
2, 869692, Note_on_c, 0, 59, 0
2, 869692, Note_on_c, 0, 71, 0
2, 869704, Control_c, 0, 64, 0
2, 869868, Note_on_c, 0, 72, 78
2, 869868, Note_on_c, 0, 60, 69
2, 869928, Note_on_c, 0, 60, 0
2, 869932, Note_on_c, 0, 72, 0
2, 870076, Note_on_c, 0, 74, 88
2, 870076, Note_on_c, 0, 62, 75
2, 870112, Note_on_c, 0, 62, 0
2, 870148, Note_on_c, 0, 74, 0
2, 870328, Note_on_c, 0, 77, 91
2, 870328, Note_on_c, 0, 65, 68
2, 870368, Control_c, 0, 64, 40
2, 870384, Control_c, 0, 64, 56
2, 870400, Control_c, 0, 64, 72
2, 870464, Control_c, 0, 64, 40
2, 870476, Control_c, 0, 64, 24
2, 870492, Control_c, 0, 64, 0
2, 870508, Note_on_c, 0, 65, 0
2, 870540, Note_on_c, 0, 75, 85
2, 870540, Note_on_c, 0, 63, 69
2, 870564, Note_on_c, 0, 77, 0
2, 870596, Note_on_c, 0, 63, 0
2, 870628, Note_on_c, 0, 75, 0
2, 870760, Note_on_c, 0, 74, 76
2, 870760, Note_on_c, 0, 62, 68
2, 870824, Note_on_c, 0, 62, 0
2, 870836, Note_on_c, 0, 74, 0
2, 870980, Note_on_c, 0, 72, 74
2, 870980, Note_on_c, 0, 60, 67
2, 871044, Note_on_c, 0, 60, 0
2, 871064, Note_on_c, 0, 72, 0
2, 871240, Note_on_c, 0, 70, 71
2, 871240, Note_on_c, 0, 58, 66
2, 871472, Control_c, 0, 64, 40
2, 871484, Control_c, 0, 64, 72
2, 871500, Control_c, 0, 64, 104
2, 871516, Control_c, 0, 64, 127
2, 871624, Note_on_c, 0, 70, 0
2, 871672, Note_on_c, 0, 58, 0
2, 872244, Note_on_c, 0, 65, 65
2, 872244, Note_on_c, 0, 53, 60
2, 872244, Note_on_c, 0, 37, 63
2, 872244, Note_on_c, 0, 49, 60
2, 872244, Note_on_c, 0, 59, 59
2, 872352, Control_c, 0, 64, 104
2, 872368, Control_c, 0, 64, 56
2, 872384, Control_c, 0, 64, 0
2, 872460, Control_c, 0, 64, 24
2, 872476, Control_c, 0, 64, 72
2, 872492, Control_c, 0, 64, 127
2, 872624, Note_on_c, 0, 59, 0
2, 872624, Note_on_c, 0, 37, 0
2, 872640, Note_on_c, 0, 49, 0
2, 872704, Note_on_c, 0, 53, 0
2, 872916, Note_on_c, 0, 65, 0
2, 873156, Control_c, 0, 64, 72
2, 873172, Control_c, 0, 64, 0
2, 873188, Note_on_c, 0, 58, 59
2, 873188, Note_on_c, 0, 36, 60
2, 873188, Note_on_c, 0, 48, 59
2, 873188, Note_on_c, 0, 52, 59
2, 873248, Control_c, 0, 64, 72
2, 873264, Control_c, 0, 64, 127
2, 873360, Note_on_c, 0, 36, 0
2, 873364, Note_on_c, 0, 58, 0
2, 873368, Note_on_c, 0, 48, 0
2, 873368, Note_on_c, 0, 52, 0
2, 873448, Note_on_c, 0, 57, 73
2, 873448, Note_on_c, 0, 69, 66
2, 873452, Control_c, 0, 64, 88
2, 873468, Control_c, 0, 64, 40
2, 873484, Control_c, 0, 64, 0
2, 873496, Note_on_c, 0, 69, 0
2, 873524, Note_on_c, 0, 57, 0
2, 873660, Note_on_c, 0, 70, 75
2, 873660, Note_on_c, 0, 58, 66
2, 873752, Note_on_c, 0, 58, 0
2, 873760, Note_on_c, 0, 70, 0
2, 873872, Note_on_c, 0, 72, 78
2, 873884, Note_on_c, 0, 60, 72
2, 873948, Note_on_c, 0, 60, 0
2, 873972, Note_on_c, 0, 72, 0
2, 874120, Note_on_c, 0, 63, 72
2, 874120, Note_on_c, 0, 75, 85
2, 874268, Note_on_c, 0, 63, 0
2, 874280, Note_on_c, 0, 75, 0
2, 874340, Note_on_c, 0, 73, 83
2, 874344, Note_on_c, 0, 61, 68
2, 874412, Note_on_c, 0, 61, 0
2, 874432, Note_on_c, 0, 73, 0
2, 874560, Note_on_c, 0, 72, 83
2, 874572, Note_on_c, 0, 60, 73
2, 874644, Note_on_c, 0, 60, 0
2, 874648, Note_on_c, 0, 72, 0
2, 874784, Note_on_c, 0, 70, 82
2, 874800, Note_on_c, 0, 58, 69
2, 874856, Note_on_c, 0, 58, 0
2, 874868, Note_on_c, 0, 70, 0
2, 875024, Note_on_c, 0, 69, 81
2, 875024, Note_on_c, 0, 57, 68
2, 875128, Note_on_c, 0, 57, 0
2, 875196, Note_on_c, 0, 69, 0
2, 875248, Note_on_c, 0, 68, 80
2, 875248, Note_on_c, 0, 56, 68
2, 875336, Note_on_c, 0, 56, 0
2, 875360, Note_on_c, 0, 68, 0
2, 875480, Note_on_c, 0, 69, 79
2, 875480, Note_on_c, 0, 57, 68
2, 875572, Note_on_c, 0, 57, 0
2, 875592, Note_on_c, 0, 69, 0
2, 875720, Note_on_c, 0, 71, 80
2, 875720, Note_on_c, 0, 59, 69
2, 875788, Note_on_c, 0, 59, 0
2, 875852, Note_on_c, 0, 71, 0
2, 875980, Note_on_c, 0, 74, 84
2, 875980, Note_on_c, 0, 62, 69
2, 875984, Note_on_c, 0, 69, 68
2, 875984, Note_on_c, 0, 63, 64
2, 875984, Note_on_c, 0, 41, 65
2, 875984, Note_on_c, 0, 53, 64
2, 875984, Note_on_c, 0, 57, 63
2, 876108, Note_on_c, 0, 62, 0
2, 876152, Note_on_c, 0, 74, 0
2, 876212, Note_on_c, 0, 72, 83
2, 876212, Note_on_c, 0, 60, 68
2, 876288, Note_on_c, 0, 60, 0
2, 876360, Note_on_c, 0, 72, 0
2, 876436, Note_on_c, 0, 53, 0
2, 876440, Note_on_c, 0, 71, 79
2, 876440, Note_on_c, 0, 59, 67
2, 876476, Note_on_c, 0, 57, 0
2, 876536, Note_on_c, 0, 59, 0
2, 876596, Note_on_c, 0, 71, 0
2, 876652, Note_on_c, 0, 69, 78
2, 876652, Note_on_c, 0, 57, 68
2, 876696, Note_on_c, 0, 57, 0
2, 876736, Note_on_c, 0, 69, 0
2, 876776, Note_on_c, 0, 41, 0
2, 876780, Note_on_c, 0, 63, 0
2, 876848, Note_on_c, 0, 69, 0
2, 876908, Note_on_c, 0, 52, 64
2, 876908, Note_on_c, 0, 64, 62
2, 876908, Note_on_c, 0, 40, 67
2, 876912, Note_on_c, 0, 68, 77
2, 876912, Note_on_c, 0, 56, 68
2, 877204, Note_on_c, 0, 85, 78
2, 877204, Note_on_c, 0, 73, 68
2, 877240, Note_on_c, 0, 85, 0
2, 877252, Note_on_c, 0, 73, 0
2, 877332, Note_on_c, 0, 64, 0
2, 877372, Note_on_c, 0, 52, 0
2, 877376, Note_on_c, 0, 40, 0
2, 877420, Note_on_c, 0, 86, 80
2, 877420, Note_on_c, 0, 74, 67
2, 877484, Note_on_c, 0, 74, 0
2, 877500, Note_on_c, 0, 86, 0
2, 877644, Note_on_c, 0, 88, 81
2, 877644, Note_on_c, 0, 76, 73
2, 877712, Note_on_c, 0, 76, 0
2, 877736, Note_on_c, 0, 56, 0
2, 877752, Note_on_c, 0, 88, 0
2, 877816, Note_on_c, 0, 68, 0
2, 877876, Note_on_c, 0, 89, 84
2, 877876, Note_on_c, 0, 77, 73
2, 877920, Note_on_c, 0, 77, 0
2, 877936, Note_on_c, 0, 89, 0
2, 878092, Note_on_c, 0, 82, 76
2, 878092, Note_on_c, 0, 70, 67
2, 878160, Note_on_c, 0, 82, 0
2, 878180, Note_on_c, 0, 70, 0
2, 878320, Note_on_c, 0, 83, 78
2, 878320, Note_on_c, 0, 71, 68
2, 878392, Note_on_c, 0, 71, 0
2, 878392, Note_on_c, 0, 83, 0
2, 878528, Note_on_c, 0, 84, 79
2, 878528, Note_on_c, 0, 72, 65
2, 878572, Note_on_c, 0, 72, 0
2, 878612, Note_on_c, 0, 84, 0
2, 878764, Note_on_c, 0, 86, 81
2, 878764, Note_on_c, 0, 74, 68
2, 878816, Note_on_c, 0, 74, 0
2, 878820, Note_on_c, 0, 86, 0
2, 878992, Note_on_c, 0, 56, 76
2, 879112, Note_on_c, 0, 56, 0
2, 879204, Note_on_c, 0, 57, 78
2, 879316, Control_c, 0, 64, 24
2, 879332, Control_c, 0, 64, 56
2, 879344, Control_c, 0, 64, 72
2, 879360, Control_c, 0, 64, 88
2, 879376, Control_c, 0, 64, 104
2, 879392, Control_c, 0, 64, 127
2, 879412, Note_on_c, 0, 57, 0
2, 879436, Note_on_c, 0, 59, 79
2, 879560, Note_on_c, 0, 59, 0
2, 879732, Note_on_c, 0, 62, 85
2, 879732, Note_on_c, 0, 57, 69
2, 879732, Note_on_c, 0, 29, 71
2, 879732, Note_on_c, 0, 41, 68
2, 879732, Note_on_c, 0, 51, 66
2, 879812, Control_c, 0, 64, 56
2, 879824, Control_c, 0, 64, 0
2, 879920, Control_c, 0, 64, 40
2, 879932, Control_c, 0, 64, 88
2, 879948, Note_on_c, 0, 62, 0
2, 879948, Control_c, 0, 64, 117
2, 879984, Note_on_c, 0, 57, 0
2, 879992, Note_on_c, 0, 60, 81
2, 880112, Note_on_c, 0, 60, 0
2, 880144, Note_on_c, 0, 51, 0
2, 880216, Note_on_c, 0, 59, 79
2, 880336, Note_on_c, 0, 59, 0
2, 880464, Note_on_c, 0, 57, 79
2, 880528, Note_on_c, 0, 41, 0
2, 880536, Note_on_c, 0, 29, 0
2, 880584, Note_on_c, 0, 57, 0
2, 880768, Note_on_c, 0, 64, 82
2, 880768, Note_on_c, 0, 56, 75
2, 880768, Note_on_c, 0, 40, 65
2, 880768, Note_on_c, 0, 28, 68
2, 880800, Control_c, 0, 64, 40
2, 880816, Control_c, 0, 64, 0
2, 880940, Control_c, 0, 64, 40
2, 880948, Note_on_c, 0, 28, 0
2, 880956, Control_c, 0, 64, 88
2, 880960, Note_on_c, 0, 56, 0
2, 880972, Control_c, 0, 64, 127
2, 880996, Note_on_c, 0, 40, 0
2, 881008, Note_on_c, 0, 73, 73
2, 881008, Note_on_c, 0, 61, 71
2, 881016, Note_on_c, 0, 64, 0
2, 881020, Control_c, 0, 64, 56
2, 881036, Control_c, 0, 64, 24
2, 881048, Control_c, 0, 64, 0
2, 881068, Note_on_c, 0, 73, 0
2, 881080, Note_on_c, 0, 61, 0
2, 881220, Note_on_c, 0, 74, 80
2, 881220, Note_on_c, 0, 62, 72
2, 881300, Note_on_c, 0, 62, 0
2, 881312, Note_on_c, 0, 74, 0
2, 881440, Note_on_c, 0, 76, 81
2, 881440, Note_on_c, 0, 64, 72
2, 881496, Note_on_c, 0, 64, 0
2, 881552, Note_on_c, 0, 76, 0
2, 881676, Note_on_c, 0, 77, 83
2, 881676, Note_on_c, 0, 65, 70
2, 881736, Note_on_c, 0, 65, 0
2, 881752, Note_on_c, 0, 77, 0
2, 881880, Note_on_c, 0, 70, 76
2, 881880, Note_on_c, 0, 58, 66
2, 881964, Note_on_c, 0, 58, 0
2, 881968, Note_on_c, 0, 70, 0
2, 882108, Note_on_c, 0, 71, 78
2, 882108, Note_on_c, 0, 59, 67
2, 882200, Note_on_c, 0, 71, 0
2, 882204, Note_on_c, 0, 59, 0
2, 882320, Note_on_c, 0, 72, 78
2, 882320, Note_on_c, 0, 60, 68
2, 882388, Note_on_c, 0, 60, 0
2, 882420, Note_on_c, 0, 72, 0
2, 882552, Note_on_c, 0, 74, 80
2, 882552, Note_on_c, 0, 62, 69
2, 882600, Note_on_c, 0, 62, 0
2, 882600, Note_on_c, 0, 74, 0
2, 882764, Note_on_c, 0, 73, 76
2, 882764, Note_on_c, 0, 61, 66
2, 882844, Note_on_c, 0, 61, 0
2, 882852, Note_on_c, 0, 73, 0
2, 883008, Note_on_c, 0, 74, 78
2, 883008, Note_on_c, 0, 62, 68
2, 883060, Note_on_c, 0, 62, 0
2, 883076, Note_on_c, 0, 74, 0
2, 883220, Note_on_c, 0, 76, 78
2, 883220, Note_on_c, 0, 64, 68
2, 883284, Note_on_c, 0, 64, 0
2, 883316, Note_on_c, 0, 76, 0
2, 883452, Note_on_c, 0, 77, 79
2, 883452, Note_on_c, 0, 65, 67
2, 883508, Note_on_c, 0, 65, 0
2, 883520, Note_on_c, 0, 77, 0
2, 883672, Note_on_c, 0, 70, 76
2, 883672, Note_on_c, 0, 58, 67
2, 883724, Note_on_c, 0, 58, 0
2, 883756, Note_on_c, 0, 70, 0
2, 883908, Note_on_c, 0, 71, 77
2, 883908, Note_on_c, 0, 59, 66
2, 883972, Note_on_c, 0, 59, 0
2, 883984, Note_on_c, 0, 71, 0
2, 884108, Note_on_c, 0, 72, 78
2, 884108, Note_on_c, 0, 60, 68
2, 884160, Note_on_c, 0, 60, 0
2, 884192, Note_on_c, 0, 72, 0
2, 884364, Note_on_c, 0, 74, 79
2, 884364, Note_on_c, 0, 62, 69
2, 884416, Note_on_c, 0, 62, 0
2, 884444, Note_on_c, 0, 74, 0
2, 884824, Note_on_c, 0, 61, 78
2, 884912, Note_on_c, 0, 61, 0
2, 885272, Note_on_c, 0, 62, 76
2, 885356, Note_on_c, 0, 62, 0
2, 885704, Note_on_c, 0, 64, 77
2, 885812, Note_on_c, 0, 64, 0
2, 886184, Note_on_c, 0, 65, 74
2, 887160, Note_on_c, 0, 65, 0
2, 887836, Note_on_c, 0, 64, 63
2, 889052, Note_on_c, 0, 64, 0
2, 889604, Note_on_c, 0, 73, 71
2, 889604, Note_on_c, 0, 69, 65
2, 889604, Note_on_c, 0, 57, 65
2, 889604, Note_on_c, 0, 61, 61
2, 889756, Control_c, 0, 64, 24
2, 889772, Control_c, 0, 64, 56
2, 889784, Control_c, 0, 64, 72
2, 889800, Control_c, 0, 64, 104
2, 889816, Control_c, 0, 64, 127
2, 890332, Note_on_c, 0, 69, 0
2, 890332, Note_on_c, 0, 73, 0
2, 890340, Note_on_c, 0, 61, 0
2, 890404, Note_on_c, 0, 57, 0
2, 890688, Note_on_c, 0, 71, 69
2, 890688, Note_on_c, 0, 52, 61
2, 890688, Note_on_c, 0, 64, 63
2, 890688, Note_on_c, 0, 59, 63
2, 890808, Control_c, 0, 64, 88
2, 890820, Control_c, 0, 64, 40
2, 890840, Control_c, 0, 64, 0
2, 890932, Control_c, 0, 64, 72
2, 890948, Control_c, 0, 64, 127
2, 891136, Note_on_c, 0, 52, 0
2, 891172, Note_on_c, 0, 71, 0
2, 891176, Note_on_c, 0, 59, 0
2, 891256, Note_on_c, 0, 64, 0
2, 891536, Note_on_c, 0, 69, 73
2, 891536, Note_on_c, 0, 61, 62
2, 891536, Note_on_c, 0, 49, 63
2, 891536, Note_on_c, 0, 57, 61
2, 891640, Note_on_c, 0, 61, 0
2, 891656, Note_on_c, 0, 69, 0
2, 891656, Note_on_c, 0, 49, 0
2, 891656, Note_on_c, 0, 57, 0
2, 891884, Note_on_c, 0, 69, 69
2, 891884, Note_on_c, 0, 49, 53
2, 891884, Note_on_c, 0, 61, 62
2, 891884, Note_on_c, 0, 57, 62
2, 891888, Control_c, 0, 64, 72
2, 891904, Control_c, 0, 64, 0
2, 891944, Note_on_c, 0, 61, 0
2, 891952, Note_on_c, 0, 49, 0
2, 891960, Note_on_c, 0, 57, 0
2, 891984, Control_c, 0, 64, 24
2, 892000, Control_c, 0, 64, 88
2, 892008, Note_on_c, 0, 69, 0
2, 892016, Control_c, 0, 64, 127
2, 892272, Note_on_c, 0, 95, 81
2, 892272, Note_on_c, 0, 80, 65
2, 892272, Note_on_c, 0, 86, 62
2, 892272, Note_on_c, 0, 89, 70
2, 892356, Note_on_c, 0, 89, 0
2, 892356, Note_on_c, 0, 86, 0
2, 892392, Note_on_c, 0, 80, 0
2, 892572, Note_on_c, 0, 95, 0
2, 892612, Note_on_c, 0, 88, 70
2, 892612, Note_on_c, 0, 85, 64
2, 892612, Note_on_c, 0, 81, 66
2, 892648, Note_on_c, 0, 81, 0
2, 892648, Note_on_c, 0, 88, 0
2, 892656, Note_on_c, 0, 85, 0
2, 892944, Note_on_c, 0, 83, 76
2, 892944, Note_on_c, 0, 68, 64
2, 892944, Note_on_c, 0, 74, 64
2, 892944, Note_on_c, 0, 77, 66
2, 892972, Control_c, 0, 64, 56
2, 892984, Control_c, 0, 64, 0
2, 893036, Control_c, 0, 64, 24
2, 893048, Note_on_c, 0, 68, 0
2, 893048, Control_c, 0, 64, 88
2, 893064, Note_on_c, 0, 74, 0
2, 893064, Control_c, 0, 64, 127
2, 893160, Note_on_c, 0, 83, 0
2, 893212, Note_on_c, 0, 77, 0
2, 893260, Note_on_c, 0, 76, 67
2, 893260, Note_on_c, 0, 69, 63
2, 893260, Note_on_c, 0, 73, 63
2, 893296, Note_on_c, 0, 69, 0
2, 893320, Note_on_c, 0, 73, 0
2, 893336, Note_on_c, 0, 76, 0
2, 893608, Note_on_c, 0, 71, 65
2, 893608, Note_on_c, 0, 65, 60
2, 893608, Note_on_c, 0, 62, 60
2, 893608, Note_on_c, 0, 56, 60
2, 893624, Control_c, 0, 64, 88
2, 893640, Control_c, 0, 64, 0
2, 893716, Control_c, 0, 64, 56
2, 893732, Control_c, 0, 64, 127
2, 893752, Note_on_c, 0, 56, 0
2, 893784, Note_on_c, 0, 62, 0
2, 893804, Note_on_c, 0, 71, 0
2, 893820, Note_on_c, 0, 65, 0
2, 893956, Note_on_c, 0, 64, 64
2, 893956, Note_on_c, 0, 61, 60
2, 893956, Note_on_c, 0, 57, 65
2, 893964, Control_c, 0, 64, 104
2, 893980, Control_c, 0, 64, 40
2, 893996, Control_c, 0, 64, 0
2, 894036, Note_on_c, 0, 57, 0
2, 894044, Note_on_c, 0, 61, 0
2, 894056, Control_c, 0, 64, 40
2, 894072, Control_c, 0, 64, 104
2, 894088, Control_c, 0, 64, 127
2, 894104, Note_on_c, 0, 64, 0
2, 894304, Note_on_c, 0, 59, 63
2, 894304, Note_on_c, 0, 53, 58
2, 894304, Note_on_c, 0, 50, 58
2, 894304, Note_on_c, 0, 44, 58
2, 894420, Note_on_c, 0, 50, 0
2, 894420, Note_on_c, 0, 59, 0
2, 894420, Note_on_c, 0, 53, 0
2, 894448, Note_on_c, 0, 44, 0
2, 894760, Control_c, 0, 64, 0
2, 894860, Note_on_c, 0, 72, 71
2, 894860, Note_on_c, 0, 69, 65
2, 894860, Note_on_c, 0, 57, 65
2, 894860, Note_on_c, 0, 60, 61
2, 894860, Control_c, 0, 64, 127
2, 895012, Control_c, 0, 64, 24
2, 895028, Control_c, 0, 64, 56
2, 895040, Control_c, 0, 64, 72
2, 895056, Control_c, 0, 64, 104
2, 895072, Control_c, 0, 64, 127
2, 895588, Note_on_c, 0, 69, 0
2, 895588, Note_on_c, 0, 72, 0
2, 895596, Note_on_c, 0, 60, 0
2, 895660, Note_on_c, 0, 57, 0
2, 895944, Note_on_c, 0, 71, 69
2, 895944, Note_on_c, 0, 52, 61
2, 895944, Note_on_c, 0, 64, 63
2, 895944, Note_on_c, 0, 59, 63
2, 896064, Control_c, 0, 64, 88
2, 896076, Control_c, 0, 64, 40
2, 896096, Control_c, 0, 64, 0
2, 896188, Control_c, 0, 64, 72
2, 896204, Control_c, 0, 64, 127
2, 896392, Note_on_c, 0, 52, 0
2, 896428, Note_on_c, 0, 71, 0
2, 896432, Note_on_c, 0, 59, 0
2, 896512, Note_on_c, 0, 64, 0
2, 896792, Note_on_c, 0, 69, 73
2, 896792, Note_on_c, 0, 60, 62
2, 896792, Note_on_c, 0, 48, 63
2, 896792, Note_on_c, 0, 57, 61
2, 896896, Note_on_c, 0, 60, 0
2, 896912, Note_on_c, 0, 69, 0
2, 896912, Note_on_c, 0, 48, 0
2, 896912, Note_on_c, 0, 57, 0
2, 897140, Note_on_c, 0, 69, 69
2, 897140, Note_on_c, 0, 48, 53
2, 897140, Note_on_c, 0, 60, 62
2, 897140, Note_on_c, 0, 57, 62
2, 897144, Control_c, 0, 64, 72
2, 897160, Control_c, 0, 64, 0
2, 897200, Note_on_c, 0, 60, 0
2, 897208, Note_on_c, 0, 48, 0
2, 897216, Note_on_c, 0, 57, 0
2, 897240, Control_c, 0, 64, 24
2, 897256, Control_c, 0, 64, 88
2, 897264, Note_on_c, 0, 69, 0
2, 897272, Control_c, 0, 64, 127
2, 897528, Note_on_c, 0, 95, 81
2, 897528, Note_on_c, 0, 80, 65
2, 897528, Note_on_c, 0, 86, 62
2, 897528, Note_on_c, 0, 89, 70
2, 897612, Note_on_c, 0, 89, 0
2, 897612, Note_on_c, 0, 86, 0
2, 897648, Note_on_c, 0, 80, 0
2, 897828, Note_on_c, 0, 95, 0
2, 897868, Note_on_c, 0, 88, 70
2, 897868, Note_on_c, 0, 84, 64
2, 897868, Note_on_c, 0, 81, 66
2, 897904, Note_on_c, 0, 81, 0
2, 897904, Note_on_c, 0, 88, 0
2, 897912, Note_on_c, 0, 84, 0
2, 898200, Note_on_c, 0, 83, 76
2, 898200, Note_on_c, 0, 68, 64
2, 898200, Note_on_c, 0, 74, 64
2, 898200, Note_on_c, 0, 77, 66
2, 898228, Control_c, 0, 64, 56
2, 898240, Control_c, 0, 64, 0
2, 898292, Control_c, 0, 64, 24
2, 898304, Note_on_c, 0, 68, 0
2, 898304, Control_c, 0, 64, 88
2, 898320, Note_on_c, 0, 74, 0
2, 898320, Control_c, 0, 64, 127
2, 898416, Note_on_c, 0, 83, 0
2, 898468, Note_on_c, 0, 77, 0
2, 898516, Note_on_c, 0, 76, 67
2, 898516, Note_on_c, 0, 69, 63
2, 898516, Note_on_c, 0, 72, 63
2, 898552, Note_on_c, 0, 69, 0
2, 898576, Note_on_c, 0, 72, 0
2, 898592, Note_on_c, 0, 76, 0
2, 898864, Note_on_c, 0, 71, 65
2, 898864, Note_on_c, 0, 65, 60
2, 898864, Note_on_c, 0, 62, 60
2, 898864, Note_on_c, 0, 56, 60
2, 898880, Control_c, 0, 64, 88
2, 898896, Control_c, 0, 64, 0
2, 898972, Control_c, 0, 64, 56
2, 898988, Control_c, 0, 64, 127
2, 899008, Note_on_c, 0, 56, 0
2, 899040, Note_on_c, 0, 62, 0
2, 899060, Note_on_c, 0, 71, 0
2, 899076, Note_on_c, 0, 65, 0
2, 899212, Note_on_c, 0, 64, 64
2, 899212, Note_on_c, 0, 60, 60
2, 899212, Note_on_c, 0, 57, 65
2, 899220, Control_c, 0, 64, 104
2, 899236, Control_c, 0, 64, 40
2, 899252, Control_c, 0, 64, 0
2, 899292, Note_on_c, 0, 57, 0
2, 899300, Note_on_c, 0, 60, 0
2, 899312, Control_c, 0, 64, 40
2, 899328, Control_c, 0, 64, 104
2, 899344, Control_c, 0, 64, 127
2, 899360, Note_on_c, 0, 64, 0
2, 899560, Note_on_c, 0, 59, 63
2, 899560, Note_on_c, 0, 53, 58
2, 899560, Note_on_c, 0, 50, 58
2, 899560, Note_on_c, 0, 44, 58
2, 899676, Note_on_c, 0, 50, 0
2, 899676, Note_on_c, 0, 59, 0
2, 899676, Note_on_c, 0, 53, 0
2, 899704, Note_on_c, 0, 44, 0
2, 900096, Note_on_c, 0, 73, 85
2, 900096, Note_on_c, 0, 61, 73
2, 900096, Note_on_c, 0, 69, 74
2, 900096, Note_on_c, 0, 57, 73
2, 900136, Control_c, 0, 64, 88
2, 900148, Control_c, 0, 64, 56
2, 900156, Control_c, 0, 64, 24
2, 900168, Control_c, 0, 64, 0
2, 900208, Control_c, 0, 64, 72
2, 900216, Control_c, 0, 64, 127
2, 900524, Note_on_c, 0, 69, 0
2, 900536, Note_on_c, 0, 61, 0
2, 900540, Note_on_c, 0, 73, 0
2, 900756, Note_on_c, 0, 57, 0
2, 900784, Note_on_c, 0, 71, 84
2, 900784, Note_on_c, 0, 64, 77
2, 900784, Note_on_c, 0, 52, 72
2, 900784, Note_on_c, 0, 59, 80
2, 900968, Note_on_c, 0, 64, 0
2, 901140, Note_on_c, 0, 71, 0
2, 901168, Note_on_c, 0, 59, 0
2, 901180, Note_on_c, 0, 52, 0
2, 901252, Note_on_c, 0, 69, 91
2, 901252, Note_on_c, 0, 61, 76
2, 901252, Note_on_c, 0, 49, 75
2, 901268, Note_on_c, 0, 61, 0
2, 901292, Note_on_c, 0, 69, 0
2, 901352, Note_on_c, 0, 49, 0
2, 901476, Note_on_c, 0, 88, 99
2, 901476, Note_on_c, 0, 85, 85
2, 901476, Note_on_c, 0, 57, 73
2, 901476, Note_on_c, 0, 52, 72
2, 901476, Note_on_c, 0, 61, 84
2, 901476, Note_on_c, 0, 81, 79
2, 901548, Control_c, 0, 64, 104
2, 901556, Control_c, 0, 64, 40
2, 901564, Control_c, 0, 64, 0
2, 901616, Control_c, 0, 64, 40
2, 901624, Control_c, 0, 64, 127
2, 901796, Note_on_c, 0, 85, 0
2, 901820, Note_on_c, 0, 81, 0
2, 901824, Note_on_c, 0, 57, 0
2, 901868, Note_on_c, 0, 52, 0
2, 901896, Note_on_c, 0, 61, 0
2, 902060, Note_on_c, 0, 83, 93
2, 902060, Note_on_c, 0, 76, 84
2, 902060, Note_on_c, 0, 56, 74
2, 902060, Note_on_c, 0, 52, 76
2, 902060, Note_on_c, 0, 59, 84
2, 902088, Control_c, 0, 64, 88
2, 902100, Control_c, 0, 64, 24
2, 902108, Note_on_c, 0, 76, 0
2, 902108, Control_c, 0, 64, 0
2, 902128, Control_c, 0, 64, 56
2, 902136, Note_on_c, 0, 88, 0
2, 902140, Control_c, 0, 64, 127
2, 902156, Note_on_c, 0, 83, 0
2, 902264, Note_on_c, 0, 52, 0
2, 902292, Note_on_c, 0, 69, 86
2, 902304, Note_on_c, 0, 59, 0
2, 902344, Note_on_c, 0, 71, 86
2, 902360, Note_on_c, 0, 69, 0
2, 902400, Note_on_c, 0, 73, 87
2, 902408, Note_on_c, 0, 71, 0
2, 902424, Note_on_c, 0, 57, 84
2, 902424, Note_on_c, 0, 49, 77
2, 902432, Note_on_c, 0, 56, 0
2, 902440, Note_on_c, 0, 73, 0
2, 902456, Note_on_c, 0, 74, 88
2, 902504, Note_on_c, 0, 74, 0
2, 902512, Note_on_c, 0, 76, 88
2, 902564, Note_on_c, 0, 78, 89
2, 902572, Note_on_c, 0, 76, 0
2, 902616, Note_on_c, 0, 49, 0
2, 902624, Note_on_c, 0, 80, 93
2, 902640, Note_on_c, 0, 78, 0
2, 902668, Note_on_c, 0, 57, 0
2, 902696, Note_on_c, 0, 80, 0
2, 902756, Note_on_c, 0, 73, 106
2, 902756, Note_on_c, 0, 69, 88
2, 902756, Note_on_c, 0, 61, 91
2, 902756, Note_on_c, 0, 81, 97
2, 902756, Note_on_c, 0, 76, 83
2, 902756, Note_on_c, 0, 45, 79
2, 902756, Note_on_c, 0, 33, 82
2, 902756, Note_on_c, 0, 57, 73
2, 902756, Control_c, 0, 64, 24
2, 902764, Control_c, 0, 64, 88
2, 902780, Control_c, 0, 64, 127
2, 902984, Note_on_c, 0, 57, 0
2, 902988, Note_on_c, 0, 61, 0
2, 903044, Note_on_c, 0, 81, 0
2, 903052, Note_on_c, 0, 69, 0
2, 903060, Note_on_c, 0, 76, 0
2, 903060, Note_on_c, 0, 33, 0
2, 903060, Note_on_c, 0, 45, 0
2, 903276, Note_on_c, 0, 73, 0
2, 903376, Note_on_c, 0, 69, 96
2, 903376, Note_on_c, 0, 57, 78
2, 903376, Note_on_c, 0, 49, 77
2, 903376, Note_on_c, 0, 61, 83
2, 903380, Control_c, 0, 64, 40
2, 903396, Control_c, 0, 64, 0
2, 903452, Control_c, 0, 64, 56
2, 903468, Control_c, 0, 64, 127
2, 903476, Note_on_c, 0, 61, 0
2, 903476, Note_on_c, 0, 49, 0
2, 903536, Note_on_c, 0, 57, 0
2, 903648, Note_on_c, 0, 69, 0
2, 903692, Note_on_c, 0, 71, 93
2, 903692, Note_on_c, 0, 59, 79
2, 903692, Note_on_c, 0, 52, 79
2, 903692, Note_on_c, 0, 64, 78
2, 903720, Note_on_c, 0, 64, 0
2, 903756, Note_on_c, 0, 71, 0
2, 903772, Note_on_c, 0, 52, 0
2, 903776, Note_on_c, 0, 59, 0
2, 903804, Note_on_c, 0, 73, 108
2, 903804, Note_on_c, 0, 61, 88
2, 903804, Note_on_c, 0, 57, 81
2, 903804, Note_on_c, 0, 69, 92
2, 903844, Control_c, 0, 64, 104
2, 903848, Note_on_c, 0, 69, 0
2, 903856, Control_c, 0, 64, 72
2, 903860, Note_on_c, 0, 57, 0
2, 903864, Note_on_c, 0, 61, 0
2, 903864, Note_on_c, 0, 73, 0
2, 903872, Control_c, 0, 64, 40
2, 903884, Control_c, 0, 64, 0
2, 903900, Note_on_c, 0, 74, 108
2, 903900, Note_on_c, 0, 71, 90
2, 903900, Note_on_c, 0, 62, 81
2, 903900, Note_on_c, 0, 59, 81
2, 903928, Note_on_c, 0, 71, 0
2, 903972, Note_on_c, 0, 74, 0
2, 904016, Note_on_c, 0, 76, 112
2, 904016, Note_on_c, 0, 64, 84
2, 904016, Note_on_c, 0, 61, 72
2, 904016, Note_on_c, 0, 73, 98
2, 904068, Control_c, 0, 64, 56
2, 904076, Note_on_c, 0, 64, 0
2, 904080, Control_c, 0, 64, 127
2, 904084, Note_on_c, 0, 73, 0
2, 904088, Note_on_c, 0, 61, 0
2, 904108, Note_on_c, 0, 76, 0
2, 904156, Note_on_c, 0, 62, 0
2, 904156, Note_on_c, 0, 59, 0
2, 904420, Note_on_c, 0, 69, 101
2, 904420, Note_on_c, 0, 57, 78
2, 904456, Note_on_c, 0, 57, 0
2, 904492, Note_on_c, 0, 69, 0
2, 904688, Note_on_c, 0, 81, 108
2, 904688, Note_on_c, 0, 73, 93
2, 904688, Note_on_c, 0, 61, 76
2, 904688, Note_on_c, 0, 69, 84
2, 904696, Control_c, 0, 64, 88
2, 904708, Control_c, 0, 64, 0
2, 904764, Note_on_c, 0, 73, 0
2, 904772, Note_on_c, 0, 61, 0
2, 904776, Control_c, 0, 64, 56
2, 904784, Note_on_c, 0, 69, 0
2, 904792, Control_c, 0, 64, 127
2, 904816, Note_on_c, 0, 81, 0
2, 905096, Note_on_c, 0, 59, 88
2, 905096, Note_on_c, 0, 39, 85
2, 905096, Note_on_c, 0, 51, 88
2, 905124, Note_on_c, 0, 61, 88
2, 905124, Note_on_c, 0, 63, 89
2, 905148, Note_on_c, 0, 59, 0
2, 905152, Note_on_c, 0, 64, 90
2, 905156, Note_on_c, 0, 61, 0
2, 905156, Note_on_c, 0, 63, 0
2, 905180, Note_on_c, 0, 66, 91
2, 905184, Note_on_c, 0, 64, 0
2, 905208, Note_on_c, 0, 68, 92
2, 905212, Note_on_c, 0, 66, 0
2, 905232, Note_on_c, 0, 69, 93
2, 905240, Note_on_c, 0, 68, 0
2, 905264, Note_on_c, 0, 69, 0
2, 905348, Note_on_c, 0, 83, 105
2, 905348, Note_on_c, 0, 69, 93
2, 905348, Note_on_c, 0, 63, 73
2, 905348, Note_on_c, 0, 59, 79
2, 905348, Note_on_c, 0, 66, 68
2, 905348, Note_on_c, 0, 81, 91
2, 905348, Note_on_c, 0, 71, 83
2, 905348, Note_on_c, 0, 78, 90
2, 905460, Control_c, 0, 64, 104
2, 905476, Control_c, 0, 64, 56
2, 905488, Control_c, 0, 64, 24
2, 905504, Control_c, 0, 64, 0
2, 905536, Note_on_c, 0, 51, 0
2, 905536, Note_on_c, 0, 39, 0
2, 905720, Note_on_c, 0, 71, 106
2, 905720, Note_on_c, 0, 57, 92
2, 905720, Note_on_c, 0, 66, 89
2, 905720, Note_on_c, 0, 59, 90
2, 905720, Note_on_c, 0, 39, 72
2, 905720, Note_on_c, 0, 51, 94
2, 905720, Note_on_c, 0, 69, 94
2, 905732, Control_c, 0, 64, 72
2, 905748, Note_on_c, 0, 57, 0
2, 905752, Note_on_c, 0, 39, 0
2, 905756, Control_c, 0, 64, 127
2, 905760, Note_on_c, 0, 59, 0
2, 905760, Note_on_c, 0, 51, 0
2, 905780, Note_on_c, 0, 69, 0
2, 905780, Note_on_c, 0, 66, 0
2, 905792, Note_on_c, 0, 71, 0
2, 905980, Note_on_c, 0, 83, 112
2, 905980, Note_on_c, 0, 71, 93
2, 905980, Note_on_c, 0, 78, 92
2, 905980, Note_on_c, 0, 59, 76
2, 905980, Note_on_c, 0, 57, 68
2, 905980, Note_on_c, 0, 69, 103
2, 905980, Note_on_c, 0, 66, 87
2, 906004, Note_on_c, 0, 69, 0
2, 906008, Note_on_c, 0, 57, 0
2, 906016, Note_on_c, 0, 71, 0
2, 906016, Note_on_c, 0, 59, 0
2, 906020, Note_on_c, 0, 66, 0
2, 906024, Note_on_c, 0, 78, 0
2, 906060, Note_on_c, 0, 83, 0
2, 906132, Note_on_c, 0, 59, 0
2, 906148, Note_on_c, 0, 66, 0
2, 906156, Note_on_c, 0, 69, 0
2, 906168, Note_on_c, 0, 63, 0
2, 906172, Note_on_c, 0, 81, 0
2, 906176, Note_on_c, 0, 83, 0
2, 906176, Note_on_c, 0, 71, 0
2, 906192, Note_on_c, 0, 78, 0
2, 906380, Note_on_c, 0, 64, 103
2, 906380, Note_on_c, 0, 40, 86
2, 906380, Note_on_c, 0, 52, 85
2, 906408, Note_on_c, 0, 66, 88
2, 906436, Note_on_c, 0, 68, 89
2, 906440, Note_on_c, 0, 66, 0
2, 906440, Note_on_c, 0, 64, 0
2, 906464, Note_on_c, 0, 69, 90
2, 906468, Note_on_c, 0, 68, 0
2, 906492, Note_on_c, 0, 71, 90
2, 906496, Note_on_c, 0, 69, 0
2, 906524, Note_on_c, 0, 71, 0
2, 906524, Note_on_c, 0, 73, 91
2, 906552, Note_on_c, 0, 74, 91
2, 906556, Note_on_c, 0, 73, 0
2, 906584, Note_on_c, 0, 74, 0
2, 906640, Note_on_c, 0, 88, 105
2, 906640, Note_on_c, 0, 76, 88
2, 906640, Note_on_c, 0, 74, 92
2, 906640, Note_on_c, 0, 83, 81
2, 906640, Note_on_c, 0, 64, 87
2, 906640, Note_on_c, 0, 86, 88
2, 906640, Note_on_c, 0, 71, 86
2, 906640, Note_on_c, 0, 80, 82
2, 906772, Control_c, 0, 64, 72
2, 906784, Control_c, 0, 64, 24
2, 906800, Control_c, 0, 64, 0
2, 906812, Note_on_c, 0, 40, 0
2, 906824, Note_on_c, 0, 52, 0
2, 907004, Note_on_c, 0, 64, 0
2, 907024, Note_on_c, 0, 86, 0
2, 907028, Note_on_c, 0, 71, 0
2, 907028, Note_on_c, 0, 74, 0
2, 907032, Note_on_c, 0, 83, 0
2, 907032, Note_on_c, 0, 76, 0
2, 907032, Note_on_c, 0, 88, 0
2, 907036, Note_on_c, 0, 80, 0
2, 907044, Note_on_c, 0, 76, 109
2, 907044, Note_on_c, 0, 62, 93
2, 907044, Note_on_c, 0, 71, 96
2, 907048, Note_on_c, 0, 64, 97
2, 907048, Note_on_c, 0, 68, 84
2, 907052, Note_on_c, 0, 40, 78
2, 907052, Control_c, 0, 64, 24
2, 907064, Control_c, 0, 64, 88
2, 907068, Note_on_c, 0, 52, 83
2, 907072, Note_on_c, 0, 64, 0
2, 907072, Note_on_c, 0, 62, 0
2, 907076, Note_on_c, 0, 68, 0
2, 907076, Note_on_c, 0, 40, 0
2, 907080, Control_c, 0, 64, 127
2, 907092, Note_on_c, 0, 71, 0
2, 907092, Note_on_c, 0, 52, 0
2, 907112, Note_on_c, 0, 76, 0
2, 907304, Note_on_c, 0, 88, 108
2, 907304, Note_on_c, 0, 76, 91
2, 907304, Note_on_c, 0, 74, 94
2, 907304, Note_on_c, 0, 64, 72
2, 907304, Note_on_c, 0, 71, 81
2, 907304, Note_on_c, 0, 68, 74
2, 907304, Note_on_c, 0, 62, 80
2, 907304, Note_on_c, 0, 80, 78
2, 907304, Note_on_c, 0, 83, 92
2, 907336, Note_on_c, 0, 83, 0
2, 907340, Note_on_c, 0, 80, 0
2, 907352, Note_on_c, 0, 71, 0
2, 907360, Note_on_c, 0, 76, 0
2, 907364, Note_on_c, 0, 74, 0
2, 907372, Note_on_c, 0, 64, 0
2, 907372, Note_on_c, 0, 62, 0
2, 907372, Note_on_c, 0, 68, 0
2, 907396, Note_on_c, 0, 88, 0
2, 907716, Note_on_c, 0, 64, 98
2, 907716, Note_on_c, 0, 52, 83
2, 907716, Note_on_c, 0, 62, 91
2, 907716, Note_on_c, 0, 76, 98
2, 907772, Note_on_c, 0, 62, 0
2, 907780, Note_on_c, 0, 52, 0
2, 907788, Note_on_c, 0, 64, 0
2, 907788, Note_on_c, 0, 76, 0
2, 907980, Note_on_c, 0, 73, 103
2, 907980, Note_on_c, 0, 69, 83
2, 907980, Note_on_c, 0, 45, 78
2, 907980, Note_on_c, 0, 57, 73
2, 907980, Note_on_c, 0, 52, 78
2, 907980, Note_on_c, 0, 61, 90
2, 907980, Note_on_c, 0, 85, 96
2, 907980, Note_on_c, 0, 33, 88
2, 907980, Note_on_c, 0, 81, 82
2, 908040, Note_on_c, 0, 61, 0
2, 908068, Control_c, 0, 64, 104
2, 908084, Control_c, 0, 64, 24
2, 908096, Control_c, 0, 64, 0
2, 908136, Note_on_c, 0, 33, 0
2, 908152, Note_on_c, 0, 81, 0
2, 908180, Note_on_c, 0, 85, 0
2, 908192, Control_c, 0, 64, 88
2, 908208, Control_c, 0, 64, 127
2, 908268, Note_on_c, 0, 45, 0
2, 908288, Note_on_c, 0, 69, 0
2, 908296, Note_on_c, 0, 52, 0
2, 908352, Note_on_c, 0, 57, 0
2, 908400, Note_on_c, 0, 61, 59
2, 908404, Note_on_c, 0, 69, 75
2, 908416, Note_on_c, 0, 64, 70
2, 908416, Note_on_c, 0, 57, 66
2, 908424, Note_on_c, 0, 45, 63
2, 908452, Note_on_c, 0, 45, 0
2, 908452, Note_on_c, 0, 64, 0
2, 908452, Note_on_c, 0, 57, 0
2, 908468, Note_on_c, 0, 69, 0
2, 908472, Note_on_c, 0, 61, 0
2, 908560, Note_on_c, 0, 73, 0
2, 908632, Note_on_c, 0, 61, 86
2, 908632, Note_on_c, 0, 69, 97
2, 908632, Note_on_c, 0, 64, 75
2, 908632, Note_on_c, 0, 45, 61
2, 908648, Note_on_c, 0, 49, 78
2, 908648, Note_on_c, 0, 57, 78
2, 908668, Control_c, 0, 64, 104
2, 908684, Control_c, 0, 64, 56
2, 908712, Note_on_c, 0, 61, 0
2, 908712, Control_c, 0, 64, 127
2, 908884, Note_on_c, 0, 49, 0
2, 908896, Note_on_c, 0, 45, 0
2, 908900, Note_on_c, 0, 69, 0
2, 908904, Note_on_c, 0, 57, 0
2, 908920, Note_on_c, 0, 64, 0
2, 908944, Note_on_c, 0, 59, 80
2, 908944, Note_on_c, 0, 52, 73
2, 908948, Note_on_c, 0, 71, 93
2, 908952, Note_on_c, 0, 64, 77
2, 908968, Note_on_c, 0, 52, 0
2, 908980, Note_on_c, 0, 64, 0
2, 908992, Note_on_c, 0, 71, 0
2, 909000, Note_on_c, 0, 59, 0
2, 909044, Note_on_c, 0, 61, 93
2, 909052, Note_on_c, 0, 73, 103
2, 909052, Note_on_c, 0, 69, 97
2, 909064, Note_on_c, 0, 57, 68
2, 909076, Note_on_c, 0, 57, 67
2, 909076, Note_on_c, 0, 45, 72
2, 909080, Note_on_c, 0, 64, 73
2, 909080, Note_on_c, 0, 61, 53
2, 909092, Note_on_c, 0, 57, 0
2, 909096, Note_on_c, 0, 61, 0
2, 909100, Control_c, 0, 64, 88
2, 909104, Note_on_c, 0, 73, 0
2, 909104, Note_on_c, 0, 69, 0
2, 909116, Control_c, 0, 64, 56
2, 909128, Control_c, 0, 64, 0
2, 909136, Note_on_c, 0, 45, 0
2, 909144, Note_on_c, 0, 57, 0
2, 909144, Note_on_c, 0, 74, 108
2, 909156, Note_on_c, 0, 64, 0
2, 909156, Note_on_c, 0, 61, 0
2, 909156, Note_on_c, 0, 62, 93
2, 909156, Note_on_c, 0, 59, 86
2, 909160, Note_on_c, 0, 71, 83
2, 909184, Note_on_c, 0, 71, 0
2, 909216, Note_on_c, 0, 74, 0
2, 909216, Note_on_c, 0, 62, 0
2, 909224, Note_on_c, 0, 59, 0
2, 909264, Note_on_c, 0, 76, 112
2, 909264, Note_on_c, 0, 73, 93
2, 909264, Note_on_c, 0, 64, 91
2, 909264, Note_on_c, 0, 61, 83
2, 909264, Note_on_c, 0, 69, 88
2, 909264, Note_on_c, 0, 45, 73
2, 909264, Note_on_c, 0, 57, 72
2, 909312, Note_on_c, 0, 64, 0
2, 909312, Control_c, 0, 64, 88
2, 909320, Note_on_c, 0, 61, 0
2, 909324, Note_on_c, 0, 73, 0
2, 909324, Control_c, 0, 64, 127
2, 909344, Note_on_c, 0, 76, 0
2, 909460, Note_on_c, 0, 45, 0
2, 909488, Note_on_c, 0, 57, 0
2, 909496, Note_on_c, 0, 69, 0
2, 909664, Note_on_c, 0, 69, 98
2, 909664, Note_on_c, 0, 57, 80
2, 909664, Note_on_c, 0, 61, 64
2, 909664, Note_on_c, 0, 45, 79
2, 909664, Note_on_c, 0, 64, 79
2, 909696, Note_on_c, 0, 57, 0
2, 909716, Note_on_c, 0, 45, 0
2, 909724, Note_on_c, 0, 61, 0
2, 909728, Note_on_c, 0, 64, 0
2, 909740, Note_on_c, 0, 69, 0
2, 909912, Note_on_c, 0, 81, 112
2, 909912, Note_on_c, 0, 61, 73
2, 909912, Note_on_c, 0, 69, 83
2, 909912, Note_on_c, 0, 73, 98
2, 909912, Note_on_c, 0, 61, 66
2, 909912, Note_on_c, 0, 57, 76
2, 909912, Note_on_c, 0, 45, 80
2, 909912, Note_on_c, 0, 64, 81
2, 909968, Control_c, 0, 64, 24
2, 909980, Control_c, 0, 64, 0
2, 910040, Note_on_c, 0, 73, 0
2, 910064, Control_c, 0, 64, 72
2, 910076, Control_c, 0, 64, 127
2, 910164, Note_on_c, 0, 64, 0
2, 910172, Note_on_c, 0, 57, 0
2, 910172, Note_on_c, 0, 45, 0
2, 910212, Note_on_c, 0, 61, 0
2, 910216, Note_on_c, 0, 61, 0
2, 910320, Note_on_c, 0, 75, 80
2, 910320, Note_on_c, 0, 63, 71
2, 910320, Note_on_c, 0, 72, 74
2, 910320, Note_on_c, 0, 60, 73
2, 910320, Note_on_c, 0, 69, 83
2, 910320, Note_on_c, 0, 42, 81
2, 910320, Note_on_c, 0, 54, 78
2, 910360, Note_on_c, 0, 72, 0
2, 910392, Note_on_c, 0, 42, 0
2, 910396, Note_on_c, 0, 54, 0
2, 910400, Note_on_c, 0, 75, 0
2, 910404, Note_on_c, 0, 63, 0
2, 910428, Note_on_c, 0, 60, 0
2, 910476, Note_on_c, 0, 69, 0
2, 910476, Note_on_c, 0, 69, 0
2, 910536, Control_c, 0, 64, 24
2, 910540, Note_on_c, 0, 76, 95
2, 910540, Note_on_c, 0, 61, 66
2, 910540, Note_on_c, 0, 73, 79
2, 910540, Note_on_c, 0, 64, 80
2, 910540, Note_on_c, 0, 68, 80
2, 910540, Note_on_c, 0, 52, 73
2, 910540, Note_on_c, 0, 40, 80
2, 910552, Control_c, 0, 64, 0
2, 910568, Note_on_c, 0, 81, 0
2, 910608, Control_c, 0, 64, 24
2, 910620, Control_c, 0, 64, 88
2, 910636, Control_c, 0, 64, 127
2, 910672, Note_on_c, 0, 64, 0
2, 910688, Note_on_c, 0, 40, 0
2, 910696, Note_on_c, 0, 52, 0
2, 910700, Note_on_c, 0, 76, 0
2, 910704, Note_on_c, 0, 68, 0
2, 910704, Control_c, 0, 64, 56
2, 910708, Note_on_c, 0, 69, 78
2, 910708, Note_on_c, 0, 81, 88
2, 910720, Control_c, 0, 64, 0
2, 910724, Note_on_c, 0, 61, 0
2, 910748, Note_on_c, 0, 68, 94
2, 910756, Note_on_c, 0, 80, 94
2, 910764, Note_on_c, 0, 73, 0
2, 910768, Note_on_c, 0, 69, 0
2, 910788, Note_on_c, 0, 81, 0
2, 910796, Note_on_c, 0, 68, 0
2, 910816, Note_on_c, 0, 80, 0
2, 910948, Note_on_c, 0, 78, 103
2, 910948, Note_on_c, 0, 69, 83
2, 910948, Note_on_c, 0, 61, 77
2, 910948, Note_on_c, 0, 57, 78
2, 910948, Note_on_c, 0, 66, 78
2, 910948, Note_on_c, 0, 73, 76
2, 910948, Note_on_c, 0, 54, 74
2, 910948, Note_on_c, 0, 42, 81
2, 910980, Control_c, 0, 64, 24
2, 910996, Note_on_c, 0, 57, 0
2, 910996, Control_c, 0, 64, 72
2, 911012, Note_on_c, 0, 69, 0
2, 911012, Control_c, 0, 64, 104
2, 911020, Note_on_c, 0, 54, 0
2, 911024, Note_on_c, 0, 42, 0
2, 911024, Control_c, 0, 64, 127
2, 911080, Control_c, 0, 64, 56
2, 911096, Control_c, 0, 64, 0
2, 911172, Note_on_c, 0, 73, 0
2, 911176, Control_c, 0, 64, 24
2, 911184, Note_on_c, 0, 68, 80
2, 911184, Note_on_c, 0, 56, 78
2, 911184, Note_on_c, 0, 44, 81
2, 911184, Note_on_c, 0, 61, 74
2, 911184, Note_on_c, 0, 64, 86
2, 911196, Control_c, 0, 64, 72
2, 911200, Note_on_c, 0, 66, 0
2, 911208, Note_on_c, 0, 78, 0
2, 911208, Control_c, 0, 64, 104
2, 911220, Control_c, 0, 64, 127
2, 911300, Note_on_c, 0, 68, 0
2, 911372, Note_on_c, 0, 78, 78
2, 911372, Note_on_c, 0, 66, 76
2, 911396, Note_on_c, 0, 61, 0
2, 911396, Note_on_c, 0, 61, 0
2, 911408, Note_on_c, 0, 76, 95
2, 911408, Note_on_c, 0, 64, 81
2, 911416, Control_c, 0, 64, 104
2, 911420, Note_on_c, 0, 44, 0
2, 911424, Note_on_c, 0, 64, 0
2, 911428, Control_c, 0, 64, 88
2, 911436, Note_on_c, 0, 64, 0
2, 911444, Control_c, 0, 64, 72
2, 911456, Note_on_c, 0, 56, 0
2, 911456, Control_c, 0, 64, 56
2, 911460, Note_on_c, 0, 66, 0
2, 911468, Note_on_c, 0, 78, 0
2, 911472, Control_c, 0, 64, 24
2, 911488, Control_c, 0, 64, 0
2, 911496, Note_on_c, 0, 76, 0
2, 911608, Note_on_c, 0, 75, 97
2, 911608, Note_on_c, 0, 66, 80
2, 911608, Note_on_c, 0, 72, 84
2, 911608, Note_on_c, 0, 63, 76
2, 911608, Note_on_c, 0, 54, 76
2, 911608, Note_on_c, 0, 60, 85
2, 911612, Note_on_c, 0, 63, 80
2, 911612, Note_on_c, 0, 44, 79
2, 911612, Note_on_c, 0, 54, 72
2, 911620, Note_on_c, 0, 60, 79
2, 911632, Note_on_c, 0, 72, 0
2, 911656, Note_on_c, 0, 63, 0
2, 911656, Note_on_c, 0, 60, 0
2, 911660, Note_on_c, 0, 54, 0
2, 911668, Note_on_c, 0, 66, 0
2, 911680, Note_on_c, 0, 44, 0
2, 911692, Note_on_c, 0, 60, 0
2, 911696, Note_on_c, 0, 75, 0
2, 911700, Note_on_c, 0, 63, 0
2, 911704, Note_on_c, 0, 54, 0
2, 911856, Note_on_c, 0, 73, 103
2, 911856, Note_on_c, 0, 68, 69
2, 911856, Note_on_c, 0, 52, 71
2, 911856, Note_on_c, 0, 56, 73
2, 911856, Note_on_c, 0, 61, 76
2, 911856, Note_on_c, 0, 64, 84
2, 911856, Note_on_c, 0, 49, 76
2, 911856, Note_on_c, 0, 37, 81
2, 911948, Control_c, 0, 64, 56
2, 911960, Control_c, 0, 64, 127
2, 912092, Note_on_c, 0, 68, 0
2, 912096, Note_on_c, 0, 64, 0
2, 912100, Note_on_c, 0, 37, 0
2, 912104, Note_on_c, 0, 49, 0
2, 912136, Note_on_c, 0, 52, 0
2, 912152, Note_on_c, 0, 56, 0
2, 912172, Note_on_c, 0, 73, 0
2, 912176, Note_on_c, 0, 61, 0
2, 912276, Note_on_c, 0, 52, 74
2, 912276, Note_on_c, 0, 49, 73
2, 912276, Note_on_c, 0, 37, 80
2, 912276, Note_on_c, 0, 61, 74
2, 912304, Note_on_c, 0, 52, 0
2, 912320, Note_on_c, 0, 49, 0
2, 912328, Note_on_c, 0, 37, 0
2, 912340, Note_on_c, 0, 61, 0
2, 912520, Note_on_c, 0, 79, 111
2, 912520, Note_on_c, 0, 73, 83
2, 912520, Note_on_c, 0, 61, 68
2, 912520, Note_on_c, 0, 64, 78
2, 912520, Note_on_c, 0, 76, 91
2, 912520, Note_on_c, 0, 67, 95
2, 912520, Note_on_c, 0, 46, 74
2, 912520, Note_on_c, 0, 34, 83
2, 912656, Control_c, 0, 64, 56
2, 912672, Control_c, 0, 64, 0
2, 912700, Note_on_c, 0, 34, 0
2, 912716, Note_on_c, 0, 46, 0
2, 912972, Note_on_c, 0, 67, 80
2, 912972, Note_on_c, 0, 61, 69
2, 912972, Note_on_c, 0, 64, 72
2, 912972, Note_on_c, 0, 46, 76
2, 912972, Note_on_c, 0, 58, 73
2, 912980, Control_c, 0, 64, 40
2, 912992, Control_c, 0, 64, 88
2, 913004, Control_c, 0, 64, 127
2, 913036, Note_on_c, 0, 64, 0
2, 913068, Note_on_c, 0, 46, 0
2, 913080, Note_on_c, 0, 58, 0
2, 913088, Note_on_c, 0, 61, 0
2, 913152, Note_on_c, 0, 67, 0
2, 913152, Note_on_c, 0, 67, 0
2, 913156, Note_on_c, 0, 76, 0
2, 913192, Note_on_c, 0, 73, 0
2, 913212, Note_on_c, 0, 64, 0
2, 913220, Note_on_c, 0, 79, 0
2, 913220, Note_on_c, 0, 66, 74
2, 913220, Note_on_c, 0, 47, 78
2, 913220, Note_on_c, 0, 62, 73
2, 913220, Note_on_c, 0, 59, 78
2, 913332, Note_on_c, 0, 61, 0
2, 913344, Note_on_c, 0, 59, 0
2, 913372, Note_on_c, 0, 47, 0
2, 913392, Note_on_c, 0, 62, 0
2, 913392, Note_on_c, 0, 79, 85
2, 913404, Note_on_c, 0, 71, 83
2, 913408, Note_on_c, 0, 78, 98
2, 913408, Note_on_c, 0, 74, 86
2, 913408, Note_on_c, 0, 66, 79
2, 913408, Note_on_c, 0, 62, 78
2, 913420, Control_c, 0, 64, 104
2, 913428, Note_on_c, 0, 66, 0
2, 913432, Note_on_c, 0, 62, 0
2, 913440, Control_c, 0, 64, 72
2, 913452, Note_on_c, 0, 74, 0
2, 913452, Control_c, 0, 64, 40
2, 913460, Note_on_c, 0, 79, 0
2, 913460, Note_on_c, 0, 66, 0
2, 913464, Note_on_c, 0, 71, 0
2, 913468, Control_c, 0, 64, 24
2, 913480, Note_on_c, 0, 78, 0
2, 913480, Control_c, 0, 64, 0
2, 913640, Note_on_c, 0, 76, 101
2, 913640, Note_on_c, 0, 71, 83
2, 913640, Note_on_c, 0, 64, 78
2, 913640, Note_on_c, 0, 55, 76
2, 913640, Note_on_c, 0, 59, 74
2, 913640, Note_on_c, 0, 67, 78
2, 913640, Note_on_c, 0, 40, 81
2, 913640, Note_on_c, 0, 52, 75
2, 913688, Control_c, 0, 64, 56
2, 913700, Note_on_c, 0, 52, 0
2, 913700, Note_on_c, 0, 40, 0
2, 913704, Control_c, 0, 64, 104
2, 913716, Control_c, 0, 64, 127
2, 913848, Note_on_c, 0, 62, 81
2, 913848, Note_on_c, 0, 54, 69
2, 913848, Note_on_c, 0, 59, 73
2, 913848, Note_on_c, 0, 42, 83
2, 913900, Note_on_c, 0, 67, 0
2, 913904, Note_on_c, 0, 55, 0
2, 913904, Note_on_c, 0, 59, 0
2, 913916, Note_on_c, 0, 76, 0
2, 913948, Note_on_c, 0, 71, 0
2, 913964, Note_on_c, 0, 64, 0
2, 914004, Note_on_c, 0, 59, 0
2, 914064, Note_on_c, 0, 76, 70
2, 914088, Note_on_c, 0, 74, 94
2, 914088, Note_on_c, 0, 66, 79
2, 914088, Note_on_c, 0, 59, 75
2, 914088, Note_on_c, 0, 54, 73
2, 914088, Note_on_c, 0, 62, 75
2, 914088, Note_on_c, 0, 71, 75
2, 914096, Note_on_c, 0, 42, 0
2, 914100, Note_on_c, 0, 54, 0
2, 914112, Note_on_c, 0, 71, 0
2, 914132, Note_on_c, 0, 62, 0
2, 914136, Note_on_c, 0, 59, 0
2, 914136, Control_c, 0, 64, 88
2, 914140, Note_on_c, 0, 54, 0
2, 914148, Note_on_c, 0, 76, 0
2, 914152, Note_on_c, 0, 62, 0
2, 914152, Control_c, 0, 64, 56
2, 914160, Note_on_c, 0, 66, 0
2, 914164, Control_c, 0, 64, 24
2, 914172, Note_on_c, 0, 74, 0
2, 914180, Control_c, 0, 64, 0
2, 914304, Note_on_c, 0, 73, 97
2, 914304, Note_on_c, 0, 66, 82
2, 914304, Note_on_c, 0, 64, 83
2, 914304, Note_on_c, 0, 61, 75
2, 914304, Note_on_c, 0, 54, 68
2, 914304, Note_on_c, 0, 70, 72
2, 914304, Note_on_c, 0, 58, 67
2, 914304, Note_on_c, 0, 52, 73
2, 914304, Note_on_c, 0, 42, 78
2, 914328, Note_on_c, 0, 70, 0
2, 914332, Note_on_c, 0, 54, 0
2, 914336, Note_on_c, 0, 52, 0
2, 914344, Note_on_c, 0, 58, 0
2, 914360, Note_on_c, 0, 66, 0
2, 914368, Note_on_c, 0, 61, 0
2, 914376, Note_on_c, 0, 64, 0
2, 914396, Note_on_c, 0, 42, 0
2, 914404, Note_on_c, 0, 73, 0
2, 914548, Note_on_c, 0, 71, 101
2, 914548, Note_on_c, 0, 62, 84
2, 914548, Note_on_c, 0, 54, 74
2, 914548, Note_on_c, 0, 66, 82
2, 914548, Note_on_c, 0, 59, 75
2, 914548, Note_on_c, 0, 50, 73
2, 914548, Note_on_c, 0, 35, 82
2, 914548, Note_on_c, 0, 47, 73
2, 914584, Control_c, 0, 64, 24
2, 914596, Control_c, 0, 64, 88
2, 914608, Control_c, 0, 64, 127
2, 914648, Note_on_c, 0, 66, 0
2, 914676, Note_on_c, 0, 62, 0
2, 914720, Note_on_c, 0, 50, 0
2, 914720, Note_on_c, 0, 35, 0
2, 914736, Note_on_c, 0, 71, 0
2, 914736, Note_on_c, 0, 54, 0
2, 914752, Note_on_c, 0, 47, 0
2, 914772, Note_on_c, 0, 59, 0
2, 914968, Note_on_c, 0, 71, 88
2, 914968, Note_on_c, 0, 59, 77
2, 914968, Note_on_c, 0, 47, 78
2, 914968, Note_on_c, 0, 50, 72
2, 915000, Control_c, 0, 64, 104
2, 915012, Control_c, 0, 64, 72
2, 915024, Note_on_c, 0, 47, 0
2, 915024, Note_on_c, 0, 71, 0
2, 915032, Note_on_c, 0, 50, 0
2, 915032, Control_c, 0, 64, 56
2, 915044, Control_c, 0, 64, 24
2, 915056, Note_on_c, 0, 73, 93
2, 915056, Control_c, 0, 64, 0
2, 915072, Note_on_c, 0, 61, 80
2, 915100, Note_on_c, 0, 59, 0
2, 915140, Note_on_c, 0, 61, 0
2, 915140, Note_on_c, 0, 73, 0
2, 915176, Note_on_c, 0, 74, 103
2, 915176, Note_on_c, 0, 68, 83
2, 915176, Note_on_c, 0, 56, 72
2, 915176, Note_on_c, 0, 62, 78
2, 915176, Note_on_c, 0, 71, 78
2, 915176, Note_on_c, 0, 59, 74
2, 915176, Note_on_c, 0, 65, 86
2, 915176, Note_on_c, 0, 44, 80
2, 915208, Note_on_c, 0, 71, 0
2, 915264, Control_c, 0, 64, 88
2, 915280, Control_c, 0, 64, 127
2, 915284, Note_on_c, 0, 68, 0
2, 915288, Note_on_c, 0, 59, 0
2, 915304, Note_on_c, 0, 56, 0
2, 915316, Note_on_c, 0, 62, 0
2, 915344, Note_on_c, 0, 74, 0
2, 915424, Note_on_c, 0, 62, 78
2, 915432, Note_on_c, 0, 74, 92
2, 915448, Note_on_c, 0, 44, 0
2, 915496, Note_on_c, 0, 62, 0
2, 915520, Note_on_c, 0, 65, 0
2, 915520, Note_on_c, 0, 74, 0
2, 915524, Note_on_c, 0, 76, 97
2, 915524, Note_on_c, 0, 64, 89
2, 915532, Control_c, 0, 64, 88
2, 915544, Control_c, 0, 64, 72
2, 915560, Control_c, 0, 64, 40
2, 915572, Control_c, 0, 64, 24
2, 915588, Control_c, 0, 64, 0
2, 915612, Note_on_c, 0, 64, 0
2, 915612, Note_on_c, 0, 77, 104
2, 915612, Note_on_c, 0, 65, 85
2, 915612, Note_on_c, 0, 56, 71
2, 915612, Note_on_c, 0, 44, 79
2, 915612, Note_on_c, 0, 59, 69
2, 915612, Note_on_c, 0, 62, 72
2, 915624, Note_on_c, 0, 76, 0
2, 915676, Note_on_c, 0, 65, 0
2, 915680, Note_on_c, 0, 44, 0
2, 915684, Note_on_c, 0, 62, 0
2, 915692, Note_on_c, 0, 77, 0
2, 915700, Note_on_c, 0, 59, 0
2, 915700, Note_on_c, 0, 56, 0
2, 915848, Note_on_c, 0, 76, 103
2, 915848, Note_on_c, 0, 57, 79
2, 915848, Note_on_c, 0, 64, 80
2, 915848, Note_on_c, 0, 61, 76
2, 915848, Note_on_c, 0, 45, 80
2, 915880, Control_c, 0, 64, 40
2, 915892, Control_c, 0, 64, 104
2, 915908, Control_c, 0, 64, 127
2, 915952, Note_on_c, 0, 61, 0
2, 916048, Note_on_c, 0, 57, 0
2, 916076, Note_on_c, 0, 73, 86
2, 916092, Note_on_c, 0, 61, 66
2, 916128, Note_on_c, 0, 45, 0
2, 916276, Note_on_c, 0, 76, 0
2, 916280, Note_on_c, 0, 73, 0
2, 916284, Note_on_c, 0, 69, 88
2, 916284, Note_on_c, 0, 57, 78
2, 916284, Note_on_c, 0, 45, 79
2, 916284, Note_on_c, 0, 64, 76
2, 916284, Note_on_c, 0, 57, 77
2, 916328, Note_on_c, 0, 64, 0
2, 916328, Note_on_c, 0, 61, 0
2, 916340, Note_on_c, 0, 64, 0
2, 916344, Note_on_c, 0, 45, 0
2, 916344, Note_on_c, 0, 57, 0
2, 916360, Note_on_c, 0, 69, 0
2, 916360, Note_on_c, 0, 57, 0
2, 916472, Note_on_c, 0, 71, 80
2, 916528, Note_on_c, 0, 69, 100
2, 916528, Note_on_c, 0, 63, 78
2, 916528, Note_on_c, 0, 54, 71
2, 916528, Note_on_c, 0, 57, 81
2, 916528, Note_on_c, 0, 42, 81
2, 916536, Control_c, 0, 64, 88
2, 916548, Control_c, 0, 64, 24
2, 916564, Note_on_c, 0, 71, 0
2, 916564, Control_c, 0, 64, 0
2, 916660, Control_c, 0, 64, 88
2, 916676, Control_c, 0, 64, 127
2, 916708, Note_on_c, 0, 63, 0
2, 916728, Note_on_c, 0, 54, 0
2, 916728, Note_on_c, 0, 69, 0
2, 916736, Note_on_c, 0, 68, 88
2, 916744, Note_on_c, 0, 56, 72
2, 916756, Note_on_c, 0, 57, 0
2, 916772, Control_c, 0, 64, 88
2, 916788, Control_c, 0, 64, 40
2, 916800, Note_on_c, 0, 56, 0
2, 916800, Control_c, 0, 64, 0
2, 916812, Note_on_c, 0, 68, 0
2, 916848, Note_on_c, 0, 42, 0
2, 916940, Control_c, 0, 64, 24
2, 916948, Note_on_c, 0, 69, 96
2, 916948, Note_on_c, 0, 63, 82
2, 916948, Note_on_c, 0, 57, 75
2, 916948, Note_on_c, 0, 54, 77
2, 916948, Note_on_c, 0, 42, 79
2, 916956, Control_c, 0, 64, 40
2, 916968, Control_c, 0, 64, 56
2, 916992, Note_on_c, 0, 54, 0
2, 916996, Note_on_c, 0, 57, 0
2, 917016, Note_on_c, 0, 63, 0
2, 917020, Note_on_c, 0, 42, 0
2, 917024, Note_on_c, 0, 69, 0
2, 917024, Control_c, 0, 64, 24
2, 917052, Control_c, 0, 64, 0
2, 917204, Note_on_c, 0, 71, 106
2, 917204, Note_on_c, 0, 68, 73
2, 917204, Note_on_c, 0, 52, 78
2, 917204, Note_on_c, 0, 59, 78
2, 917204, Note_on_c, 0, 64, 84
2, 917204, Note_on_c, 0, 62, 85
2, 917204, Note_on_c, 0, 56, 72
2, 917204, Note_on_c, 0, 40, 80
2, 917288, Note_on_c, 0, 64, 0
2, 917332, Control_c, 0, 64, 40
2, 917344, Control_c, 0, 64, 88
2, 917356, Control_c, 0, 64, 127
2, 917412, Note_on_c, 0, 56, 0
2, 917496, Note_on_c, 0, 40, 0
2, 917512, Note_on_c, 0, 62, 0
2, 917524, Note_on_c, 0, 52, 0
2, 917540, Note_on_c, 0, 59, 0
2, 917564, Note_on_c, 0, 71, 0
2, 917568, Note_on_c, 0, 68, 0
2, 917620, Note_on_c, 0, 68, 72
2, 917620, Note_on_c, 0, 71, 79
2, 917620, Note_on_c, 0, 62, 73
2, 917620, Note_on_c, 0, 52, 77
2, 917620, Note_on_c, 0, 40, 78
2, 917644, Note_on_c, 0, 62, 0
2, 917656, Note_on_c, 0, 68, 0
2, 917664, Note_on_c, 0, 71, 0
2, 917720, Note_on_c, 0, 40, 0
2, 917752, Note_on_c, 0, 52, 0
2, 917908, Note_on_c, 0, 76, 112
2, 917908, Note_on_c, 0, 68, 89
2, 917908, Note_on_c, 0, 64, 85
2, 917908, Note_on_c, 0, 62, 83
2, 917908, Note_on_c, 0, 52, 87
2, 917908, Note_on_c, 0, 72, 98
2, 917908, Note_on_c, 0, 83, 88
2, 917908, Note_on_c, 0, 86, 82
2, 917908, Note_on_c, 0, 74, 81
2, 917908, Note_on_c, 0, 80, 87
2, 917908, Note_on_c, 0, 88, 91
2, 917908, Note_on_c, 0, 40, 83
2, 917928, Note_on_c, 0, 86, 0
2, 917972, Control_c, 0, 64, 72
2, 917988, Control_c, 0, 64, 0
2, 918084, Control_c, 0, 64, 104
2, 918096, Control_c, 0, 64, 127
2, 918132, Note_on_c, 0, 40, 0
2, 918240, Note_on_c, 0, 68, 0
2, 918284, Note_on_c, 0, 62, 0
2, 918304, Note_on_c, 0, 72, 0
2, 918312, Note_on_c, 0, 52, 84
2, 918312, Note_on_c, 0, 40, 80
2, 918340, Note_on_c, 0, 88, 0
2, 918348, Note_on_c, 0, 83, 0
2, 918368, Note_on_c, 0, 52, 0
2, 918372, Note_on_c, 0, 40, 0
2, 918372, Note_on_c, 0, 80, 0
2, 918372, Note_on_c, 0, 74, 0
2, 918496, Note_on_c, 0, 52, 0
2, 918508, Note_on_c, 0, 76, 0
2, 918520, Note_on_c, 0, 64, 0
2, 918568, Note_on_c, 0, 73, 109
2, 918568, Note_on_c, 0, 61, 83
2, 918568, Note_on_c, 0, 57, 78
2, 918568, Note_on_c, 0, 69, 88
2, 918568, Note_on_c, 0, 61, 79
2, 918568, Note_on_c, 0, 85, 97
2, 918568, Note_on_c, 0, 76, 78
2, 918568, Note_on_c, 0, 45, 81
2, 918568, Note_on_c, 0, 33, 86
2, 918568, Note_on_c, 0, 81, 78
2, 918680, Note_on_c, 0, 33, 0
2, 918684, Control_c, 0, 64, 40
2, 918696, Control_c, 0, 64, 0
2, 918708, Note_on_c, 0, 45, 0
2, 918780, Control_c, 0, 64, 40
2, 918788, Note_on_c, 0, 69, 0
2, 918796, Control_c, 0, 64, 127
2, 918812, Note_on_c, 0, 57, 0
2, 918824, Note_on_c, 0, 61, 0
2, 918856, Note_on_c, 0, 73, 0
2, 918868, Note_on_c, 0, 76, 0
2, 918872, Note_on_c, 0, 61, 0
2, 918872, Note_on_c, 0, 81, 0
2, 918924, Note_on_c, 0, 85, 0
2, 918996, Note_on_c, 0, 69, 74
2, 918996, Note_on_c, 0, 61, 70
2, 918996, Note_on_c, 0, 57, 73
2, 918996, Note_on_c, 0, 64, 70
2, 918996, Note_on_c, 0, 45, 79
2, 919032, Note_on_c, 0, 64, 0
2, 919068, Note_on_c, 0, 57, 0
2, 919072, Note_on_c, 0, 45, 0
2, 919084, Note_on_c, 0, 61, 0
2, 919084, Note_on_c, 0, 69, 0
2, 919184, Control_c, 0, 64, 40
2, 919200, Control_c, 0, 64, 0
2, 919204, Note_on_c, 0, 57, 83
2, 919204, Note_on_c, 0, 49, 82
2, 919204, Note_on_c, 0, 61, 90
2, 919204, Note_on_c, 0, 69, 97
2, 919204, Note_on_c, 0, 64, 71
2, 919204, Note_on_c, 0, 45, 79
2, 919224, Control_c, 0, 64, 56
2, 919244, Control_c, 0, 64, 127
2, 919260, Note_on_c, 0, 61, 0
2, 919264, Note_on_c, 0, 57, 0
2, 919264, Note_on_c, 0, 49, 0
2, 919300, Note_on_c, 0, 69, 0
2, 919408, Note_on_c, 0, 64, 0
2, 919412, Note_on_c, 0, 45, 0
2, 919504, Note_on_c, 0, 71, 98
2, 919504, Note_on_c, 0, 59, 79
2, 919504, Note_on_c, 0, 64, 78
2, 919504, Note_on_c, 0, 52, 76
2, 919532, Note_on_c, 0, 64, 0
2, 919576, Note_on_c, 0, 71, 0
2, 919580, Note_on_c, 0, 69, 70
2, 919584, Note_on_c, 0, 57, 67
2, 919584, Note_on_c, 0, 61, 63
2, 919588, Note_on_c, 0, 52, 0
2, 919592, Note_on_c, 0, 45, 78
2, 919592, Note_on_c, 0, 64, 66
2, 919596, Note_on_c, 0, 59, 0
2, 919604, Note_on_c, 0, 73, 99
2, 919604, Note_on_c, 0, 69, 95
2, 919604, Note_on_c, 0, 57, 76
2, 919604, Note_on_c, 0, 61, 77
2, 919620, Control_c, 0, 64, 104
2, 919628, Note_on_c, 0, 61, 0
2, 919628, Note_on_c, 0, 64, 0
2, 919632, Control_c, 0, 64, 88
2, 919648, Note_on_c, 0, 45, 0
2, 919648, Control_c, 0, 64, 56
2, 919652, Note_on_c, 0, 57, 0
2, 919656, Note_on_c, 0, 69, 0
2, 919656, Note_on_c, 0, 69, 0
2, 919660, Control_c, 0, 64, 40
2, 919672, Control_c, 0, 64, 24
2, 919680, Note_on_c, 0, 61, 0
2, 919684, Note_on_c, 0, 73, 0
2, 919684, Control_c, 0, 64, 0
2, 919700, Note_on_c, 0, 71, 98
2, 919700, Note_on_c, 0, 74, 103
2, 919700, Note_on_c, 0, 59, 88
2, 919700, Note_on_c, 0, 62, 83
2, 919732, Note_on_c, 0, 57, 0
2, 919752, Note_on_c, 0, 71, 0
2, 919760, Note_on_c, 0, 74, 0
2, 919788, Note_on_c, 0, 59, 0
2, 919788, Note_on_c, 0, 62, 0
2, 919812, Note_on_c, 0, 76, 112
2, 919812, Note_on_c, 0, 64, 88
2, 919812, Note_on_c, 0, 61, 88
2, 919812, Note_on_c, 0, 73, 93
2, 919812, Note_on_c, 0, 69, 81
2, 919812, Note_on_c, 0, 57, 79
2, 919812, Note_on_c, 0, 45, 83
2, 919884, Control_c, 0, 64, 72
2, 919892, Note_on_c, 0, 61, 0
2, 919892, Note_on_c, 0, 64, 0
2, 919896, Control_c, 0, 64, 127
2, 920008, Note_on_c, 0, 73, 0
2, 920020, Note_on_c, 0, 57, 0
2, 920024, Note_on_c, 0, 45, 0
2, 920056, Note_on_c, 0, 69, 0
2, 920220, Note_on_c, 0, 76, 0
2, 920232, Note_on_c, 0, 45, 84
2, 920232, Note_on_c, 0, 64, 78
2, 920232, Note_on_c, 0, 61, 78
2, 920248, Note_on_c, 0, 69, 100
2, 920248, Note_on_c, 0, 57, 93
2, 920296, Note_on_c, 0, 45, 0
2, 920308, Note_on_c, 0, 57, 0
2, 920328, Note_on_c, 0, 64, 0
2, 920328, Note_on_c, 0, 69, 0
2, 920352, Note_on_c, 0, 61, 0
2, 920492, Note_on_c, 0, 81, 113
2, 920492, Note_on_c, 0, 64, 81
2, 920492, Note_on_c, 0, 69, 85
2, 920492, Note_on_c, 0, 61, 75
2, 920492, Note_on_c, 0, 73, 94
2, 920492, Note_on_c, 0, 42, 86
2, 920492, Note_on_c, 0, 54, 80
2, 920492, Note_on_c, 0, 66, 78
2, 920552, Control_c, 0, 64, 72
2, 920568, Control_c, 0, 64, 0
2, 920676, Control_c, 0, 64, 127
2, 920760, Note_on_c, 0, 64, 0
2, 920780, Note_on_c, 0, 42, 0
2, 920788, Note_on_c, 0, 54, 0
2, 920792, Note_on_c, 0, 61, 0
2, 920868, Note_on_c, 0, 66, 0
2, 920904, Note_on_c, 0, 73, 0
2, 920936, Note_on_c, 0, 63, 77
2, 920936, Note_on_c, 0, 72, 82
2, 920936, Note_on_c, 0, 60, 78
2, 920936, Note_on_c, 0, 54, 81
2, 920936, Note_on_c, 0, 42, 84
2, 920936, Note_on_c, 0, 69, 98
2, 921008, Note_on_c, 0, 72, 0
2, 921020, Note_on_c, 0, 54, 0
2, 921024, Note_on_c, 0, 42, 0
2, 921032, Note_on_c, 0, 63, 0
2, 921044, Note_on_c, 0, 60, 0
2, 921152, Control_c, 0, 64, 88
2, 921156, Note_on_c, 0, 61, 67
2, 921156, Note_on_c, 0, 73, 86
2, 921156, Note_on_c, 0, 64, 74
2, 921156, Note_on_c, 0, 68, 92
2, 921156, Note_on_c, 0, 52, 83
2, 921156, Note_on_c, 0, 40, 85
2, 921164, Control_c, 0, 64, 0
2, 921172, Note_on_c, 0, 69, 0
2, 921172, Note_on_c, 0, 69, 0
2, 921196, Note_on_c, 0, 81, 0
2, 921236, Control_c, 0, 64, 40
2, 921252, Control_c, 0, 64, 104
2, 921264, Control_c, 0, 64, 127
2, 921268, Note_on_c, 0, 64, 0
2, 921316, Note_on_c, 0, 40, 0
2, 921324, Note_on_c, 0, 52, 0
2, 921332, Note_on_c, 0, 81, 88
2, 921332, Note_on_c, 0, 69, 79
2, 921332, Control_c, 0, 64, 56
2, 921348, Note_on_c, 0, 68, 0
2, 921348, Control_c, 0, 64, 0
2, 921360, Note_on_c, 0, 80, 103
2, 921360, Note_on_c, 0, 68, 90
2, 921372, Note_on_c, 0, 61, 0
2, 921396, Note_on_c, 0, 73, 0
2, 921396, Note_on_c, 0, 68, 0
2, 921400, Note_on_c, 0, 81, 0
2, 921420, Note_on_c, 0, 69, 0
2, 921440, Note_on_c, 0, 80, 0
2, 921564, Note_on_c, 0, 78, 98
2, 921564, Note_on_c, 0, 69, 81
2, 921564, Note_on_c, 0, 66, 73
2, 921564, Note_on_c, 0, 73, 73
2, 921564, Note_on_c, 0, 61, 65
2, 921564, Note_on_c, 0, 57, 79
2, 921576, Note_on_c, 0, 42, 87
2, 921612, Control_c, 0, 64, 72
2, 921624, Note_on_c, 0, 57, 0
2, 921628, Control_c, 0, 64, 127
2, 921640, Note_on_c, 0, 69, 0
2, 921672, Note_on_c, 0, 42, 0
2, 921752, Control_c, 0, 64, 88
2, 921764, Control_c, 0, 64, 24
2, 921772, Note_on_c, 0, 73, 0
2, 921780, Control_c, 0, 64, 0
2, 921800, Note_on_c, 0, 68, 76
2, 921800, Note_on_c, 0, 56, 79
2, 921800, Note_on_c, 0, 44, 88
2, 921800, Note_on_c, 0, 64, 88
2, 921800, Note_on_c, 0, 56, 79
2, 921804, Control_c, 0, 64, 24
2, 921808, Note_on_c, 0, 61, 80
2, 921820, Control_c, 0, 64, 72
2, 921836, Control_c, 0, 64, 127
2, 921840, Note_on_c, 0, 78, 0
2, 921844, Note_on_c, 0, 66, 0
2, 921972, Note_on_c, 0, 78, 78
2, 921972, Note_on_c, 0, 66, 73
2, 921996, Note_on_c, 0, 61, 0
2, 922004, Control_c, 0, 64, 72
2, 922012, Note_on_c, 0, 76, 98
2, 922012, Note_on_c, 0, 64, 82
2, 922016, Note_on_c, 0, 61, 0
2, 922016, Control_c, 0, 64, 24
2, 922024, Note_on_c, 0, 56, 0
2, 922032, Control_c, 0, 64, 0
2, 922040, Note_on_c, 0, 66, 0
2, 922048, Note_on_c, 0, 56, 0
2, 922048, Note_on_c, 0, 44, 0
2, 922060, Note_on_c, 0, 78, 0
2, 922072, Note_on_c, 0, 68, 0
2, 922072, Note_on_c, 0, 64, 0
2, 922088, Note_on_c, 0, 64, 0
2, 922100, Note_on_c, 0, 76, 0
2, 922208, Note_on_c, 0, 75, 100
2, 922208, Note_on_c, 0, 63, 82
2, 922208, Note_on_c, 0, 72, 82
2, 922208, Note_on_c, 0, 54, 81
2, 922208, Note_on_c, 0, 60, 79
2, 922208, Note_on_c, 0, 66, 80
2, 922208, Note_on_c, 0, 44, 84
2, 922232, Note_on_c, 0, 72, 0
2, 922240, Control_c, 0, 64, 72
2, 922244, Note_on_c, 0, 60, 0
2, 922256, Control_c, 0, 64, 104
2, 922264, Note_on_c, 0, 54, 0
2, 922264, Control_c, 0, 64, 127
2, 922268, Note_on_c, 0, 63, 0
2, 922268, Note_on_c, 0, 66, 0
2, 922300, Note_on_c, 0, 44, 0
2, 922304, Note_on_c, 0, 75, 0
2, 922448, Note_on_c, 0, 73, 103
2, 922448, Note_on_c, 0, 52, 79
2, 922448, Note_on_c, 0, 56, 78
2, 922448, Note_on_c, 0, 68, 77
2, 922448, Note_on_c, 0, 61, 76
2, 922448, Note_on_c, 0, 64, 84
2, 922448, Note_on_c, 0, 49, 78
2, 922448, Note_on_c, 0, 37, 84
2, 922520, Control_c, 0, 64, 72
2, 922532, Control_c, 0, 64, 0
2, 922680, Note_on_c, 0, 37, 0
2, 922680, Note_on_c, 0, 49, 0
2, 922684, Control_c, 0, 64, 56
2, 922688, Note_on_c, 0, 68, 0
2, 922688, Note_on_c, 0, 64, 0
2, 922700, Note_on_c, 0, 52, 0
2, 922700, Control_c, 0, 64, 104
2, 922712, Control_c, 0, 64, 127
2, 922744, Note_on_c, 0, 61, 0
2, 922744, Note_on_c, 0, 56, 0
2, 922776, Note_on_c, 0, 73, 0
2, 922864, Note_on_c, 0, 61, 82
2, 922864, Note_on_c, 0, 52, 80
2, 922864, Note_on_c, 0, 37, 83
2, 922864, Note_on_c, 0, 49, 78
2, 922908, Note_on_c, 0, 49, 0
2, 922912, Note_on_c, 0, 37, 0
2, 922912, Note_on_c, 0, 52, 0
2, 922924, Note_on_c, 0, 61, 0
2, 923124, Note_on_c, 0, 79, 108
2, 923124, Note_on_c, 0, 67, 88
2, 923124, Note_on_c, 0, 73, 77
2, 923124, Note_on_c, 0, 61, 68
2, 923124, Note_on_c, 0, 55, 74
2, 923124, Note_on_c, 0, 64, 74
2, 923124, Note_on_c, 0, 76, 88
2, 923124, Note_on_c, 0, 34, 81
2, 923124, Note_on_c, 0, 46, 79
2, 923260, Control_c, 0, 64, 72
2, 923272, Control_c, 0, 64, 0
2, 923352, Note_on_c, 0, 34, 0
2, 923356, Note_on_c, 0, 46, 0
2, 923564, Note_on_c, 0, 61, 80
2, 923564, Note_on_c, 0, 46, 76
2, 923564, Note_on_c, 0, 58, 75
2, 923564, Note_on_c, 0, 64, 74
2, 923564, Note_on_c, 0, 67, 83
2, 923640, Note_on_c, 0, 46, 0
2, 923652, Note_on_c, 0, 64, 0
2, 923664, Note_on_c, 0, 61, 0
2, 923676, Note_on_c, 0, 58, 0
2, 923760, Note_on_c, 0, 67, 0
2, 923760, Note_on_c, 0, 67, 0
2, 923760, Control_c, 0, 64, 24
2, 923772, Control_c, 0, 64, 56
2, 923788, Control_c, 0, 64, 88
2, 923804, Control_c, 0, 64, 127
2, 923808, Note_on_c, 0, 76, 0
2, 923812, Note_on_c, 0, 66, 82
2, 923812, Note_on_c, 0, 47, 78
2, 923812, Note_on_c, 0, 62, 82
2, 923812, Note_on_c, 0, 59, 75
2, 923848, Note_on_c, 0, 73, 0
2, 923860, Control_c, 0, 64, 88
2, 923864, Note_on_c, 0, 55, 0
2, 923888, Note_on_c, 0, 64, 0
2, 923912, Note_on_c, 0, 79, 0
2, 923912, Control_c, 0, 64, 127
2, 923924, Note_on_c, 0, 61, 0
2, 923960, Note_on_c, 0, 59, 0
2, 923968, Control_c, 0, 64, 88
2, 923972, Note_on_c, 0, 62, 0
2, 923972, Note_on_c, 0, 79, 88
2, 923976, Note_on_c, 0, 47, 0
2, 923984, Control_c, 0, 64, 56
2, 923992, Note_on_c, 0, 78, 97
2, 923992, Note_on_c, 0, 71, 78
2, 923992, Note_on_c, 0, 54, 78
2, 923992, Note_on_c, 0, 59, 79
2, 923992, Note_on_c, 0, 62, 91
2, 923992, Note_on_c, 0, 74, 79
2, 923996, Control_c, 0, 64, 0
2, 924016, Note_on_c, 0, 66, 0
2, 924028, Note_on_c, 0, 59, 0
2, 924040, Note_on_c, 0, 54, 0
2, 924040, Note_on_c, 0, 79, 0
2, 924048, Note_on_c, 0, 62, 0
2, 924052, Note_on_c, 0, 74, 0
2, 924056, Note_on_c, 0, 71, 0
2, 924080, Note_on_c, 0, 78, 0
2, 924220, Note_on_c, 0, 76, 100
2, 924220, Note_on_c, 0, 64, 78
2, 924220, Note_on_c, 0, 59, 68
2, 924220, Note_on_c, 0, 55, 74
2, 924220, Note_on_c, 0, 71, 87
2, 924220, Note_on_c, 0, 67, 83
2, 924220, Note_on_c, 0, 40, 82
2, 924220, Note_on_c, 0, 52, 78
2, 924280, Note_on_c, 0, 40, 0
2, 924284, Note_on_c, 0, 52, 0
2, 924304, Control_c, 0, 64, 24
2, 924316, Control_c, 0, 64, 88
2, 924332, Control_c, 0, 64, 127
2, 924444, Note_on_c, 0, 59, 0
2, 924448, Note_on_c, 0, 67, 0
2, 924452, Note_on_c, 0, 54, 81
2, 924452, Note_on_c, 0, 42, 83
2, 924452, Note_on_c, 0, 62, 81
2, 924452, Note_on_c, 0, 59, 79
2, 924468, Note_on_c, 0, 55, 0
2, 924496, Note_on_c, 0, 64, 0
2, 924504, Note_on_c, 0, 76, 0
2, 924560, Note_on_c, 0, 71, 0
2, 924612, Note_on_c, 0, 76, 74
2, 924632, Note_on_c, 0, 59, 0
2, 924640, Note_on_c, 0, 74, 97
2, 924648, Note_on_c, 0, 71, 75
2, 924648, Note_on_c, 0, 66, 77
2, 924660, Note_on_c, 0, 59, 83
2, 924664, Note_on_c, 0, 62, 0
2, 924664, Note_on_c, 0, 62, 78
2, 924676, Note_on_c, 0, 54, 66
2, 924680, Control_c, 0, 64, 72
2, 924692, Note_on_c, 0, 76, 0
2, 924696, Control_c, 0, 64, 24
2, 924700, Note_on_c, 0, 71, 0
2, 924708, Control_c, 0, 64, 0
2, 924712, Note_on_c, 0, 42, 0
2, 924712, Note_on_c, 0, 59, 0
2, 924712, Note_on_c, 0, 54, 0
2, 924720, Note_on_c, 0, 66, 0
2, 924720, Note_on_c, 0, 62, 0
2, 924720, Note_on_c, 0, 54, 0
2, 924728, Note_on_c, 0, 74, 0
2, 924860, Note_on_c, 0, 73, 99
2, 924860, Note_on_c, 0, 52, 78
2, 924860, Note_on_c, 0, 58, 64
2, 924860, Note_on_c, 0, 66, 83
2, 924860, Note_on_c, 0, 64, 84
2, 924860, Note_on_c, 0, 61, 66
2, 924860, Note_on_c, 0, 42, 83
2, 924912, Note_on_c, 0, 58, 0
2, 924916, Note_on_c, 0, 66, 0
2, 924924, Note_on_c, 0, 52, 0
2, 924928, Note_on_c, 0, 64, 0
2, 924928, Note_on_c, 0, 61, 0
2, 924944, Note_on_c, 0, 42, 0
2, 924960, Note_on_c, 0, 73, 0
2, 925096, Note_on_c, 0, 71, 98
2, 925096, Note_on_c, 0, 62, 84
2, 925096, Note_on_c, 0, 66, 79
2, 925096, Note_on_c, 0, 54, 79
2, 925096, Note_on_c, 0, 59, 82
2, 925096, Note_on_c, 0, 50, 79
2, 925096, Note_on_c, 0, 47, 80
2, 925096, Note_on_c, 0, 35, 83
2, 925128, Control_c, 0, 64, 56
2, 925140, Control_c, 0, 64, 104
2, 925152, Control_c, 0, 64, 127
2, 925168, Note_on_c, 0, 66, 0
2, 925232, Note_on_c, 0, 62, 0
2, 925244, Note_on_c, 0, 35, 0
2, 925272, Note_on_c, 0, 47, 0
2, 925276, Note_on_c, 0, 50, 0
2, 925284, Note_on_c, 0, 54, 0
2, 925300, Note_on_c, 0, 71, 0
2, 925340, Note_on_c, 0, 59, 0
2, 925508, Note_on_c, 0, 71, 87
2, 925508, Note_on_c, 0, 59, 82
2, 925508, Note_on_c, 0, 50, 70
2, 925508, Note_on_c, 0, 47, 82
2, 925568, Note_on_c, 0, 47, 0
2, 925576, Note_on_c, 0, 50, 0
2, 925608, Note_on_c, 0, 73, 89
2, 925608, Note_on_c, 0, 61, 86
2, 925616, Control_c, 0, 64, 104
2, 925628, Control_c, 0, 64, 88
2, 925632, Note_on_c, 0, 71, 0
2, 925644, Control_c, 0, 64, 56
2, 925648, Note_on_c, 0, 59, 0
2, 925656, Control_c, 0, 64, 40
2, 925668, Control_c, 0, 64, 0
2, 925688, Note_on_c, 0, 73, 0
2, 925688, Note_on_c, 0, 61, 0
2, 925716, Note_on_c, 0, 74, 100
2, 925716, Note_on_c, 0, 62, 83
2, 925716, Note_on_c, 0, 56, 85
2, 925716, Note_on_c, 0, 71, 83
2, 925716, Note_on_c, 0, 59, 86
2, 925716, Note_on_c, 0, 65, 87
2, 925716, Note_on_c, 0, 44, 85
2, 925780, Note_on_c, 0, 71, 0
2, 925808, Note_on_c, 0, 59, 0
2, 925808, Note_on_c, 0, 56, 0
2, 925808, Control_c, 0, 64, 56
2, 925824, Control_c, 0, 64, 127
2, 925836, Note_on_c, 0, 62, 0
2, 925848, Note_on_c, 0, 74, 0
2, 925948, Note_on_c, 0, 74, 93
2, 925948, Note_on_c, 0, 62, 83
2, 925968, Note_on_c, 0, 44, 0
2, 926012, Note_on_c, 0, 65, 0
2, 926020, Note_on_c, 0, 62, 0
2, 926028, Note_on_c, 0, 76, 97
2, 926028, Note_on_c, 0, 64, 87
2, 926056, Note_on_c, 0, 74, 0
2, 926108, Note_on_c, 0, 64, 0
2, 926116, Note_on_c, 0, 77, 104
2, 926116, Note_on_c, 0, 65, 88
2, 926116, Note_on_c, 0, 56, 76
2, 926116, Note_on_c, 0, 62, 81
2, 926116, Note_on_c, 0, 44, 79
2, 926116, Note_on_c, 0, 59, 82
2, 926144, Note_on_c, 0, 76, 0
2, 926156, Note_on_c, 0, 59, 0
2, 926168, Note_on_c, 0, 62, 0
2, 926172, Control_c, 0, 64, 88
2, 926176, Note_on_c, 0, 65, 0
2, 926180, Note_on_c, 0, 44, 0
2, 926180, Note_on_c, 0, 77, 0
2, 926188, Control_c, 0, 64, 56
2, 926192, Note_on_c, 0, 56, 0
2, 926200, Control_c, 0, 64, 24
2, 926216, Control_c, 0, 64, 0
2, 926336, Note_on_c, 0, 76, 107
2, 926336, Note_on_c, 0, 57, 80
2, 926336, Note_on_c, 0, 64, 81
2, 926336, Note_on_c, 0, 73, 78
2, 926336, Note_on_c, 0, 61, 78
2, 926336, Note_on_c, 0, 45, 87
2, 926384, Control_c, 0, 64, 56
2, 926396, Control_c, 0, 64, 127
2, 926436, Note_on_c, 0, 45, 0
2, 926440, Note_on_c, 0, 73, 0
2, 926464, Note_on_c, 0, 61, 0
2, 926488, Note_on_c, 0, 57, 0
2, 926564, Note_on_c, 0, 73, 89
2, 926564, Note_on_c, 0, 61, 84
2, 926724, Note_on_c, 0, 76, 0
2, 926744, Note_on_c, 0, 73, 0
2, 926756, Note_on_c, 0, 64, 0
2, 926756, Note_on_c, 0, 69, 88
2, 926756, Note_on_c, 0, 57, 85
2, 926756, Note_on_c, 0, 64, 83
2, 926756, Note_on_c, 0, 61, 84
2, 926756, Note_on_c, 0, 45, 83
2, 926756, Note_on_c, 0, 57, 76
2, 926768, Note_on_c, 0, 61, 0
2, 926816, Note_on_c, 0, 57, 0
2, 926820, Note_on_c, 0, 69, 0
2, 926844, Note_on_c, 0, 61, 0
2, 926844, Note_on_c, 0, 64, 0
2, 926844, Note_on_c, 0, 57, 0
2, 926844, Note_on_c, 0, 45, 0
2, 926880, Note_on_c, 0, 69, 83
2, 926940, Note_on_c, 0, 69, 0
2, 926940, Note_on_c, 0, 71, 85
2, 926980, Control_c, 0, 64, 72
2, 926992, Note_on_c, 0, 69, 89
2, 926992, Note_on_c, 0, 57, 78
2, 926992, Note_on_c, 0, 54, 73
2, 926992, Note_on_c, 0, 63, 75
2, 926992, Note_on_c, 0, 42, 85
2, 926992, Control_c, 0, 64, 0
2, 927032, Note_on_c, 0, 71, 0
2, 927120, Note_on_c, 0, 42, 0
2, 927120, Control_c, 0, 64, 24
2, 927164, Control_c, 0, 64, 0
2, 927180, Note_on_c, 0, 63, 0
2, 927188, Note_on_c, 0, 69, 0
2, 927212, Note_on_c, 0, 68, 83
2, 927220, Note_on_c, 0, 54, 0
2, 927220, Note_on_c, 0, 56, 73
2, 927236, Note_on_c, 0, 57, 0
2, 927272, Note_on_c, 0, 56, 0
2, 927336, Note_on_c, 0, 68, 0
2, 927428, Note_on_c, 0, 69, 94
2, 927428, Note_on_c, 0, 63, 77
2, 927428, Note_on_c, 0, 57, 78
2, 927428, Note_on_c, 0, 54, 83
2, 927428, Note_on_c, 0, 42, 85
2, 927472, Note_on_c, 0, 54, 0
2, 927480, Note_on_c, 0, 57, 0
2, 927488, Note_on_c, 0, 63, 0
2, 927500, Note_on_c, 0, 69, 0
2, 927576, Note_on_c, 0, 42, 0
2, 927668, Note_on_c, 0, 71, 95
2, 927668, Note_on_c, 0, 68, 80
2, 927668, Note_on_c, 0, 59, 76
2, 927668, Note_on_c, 0, 52, 83
2, 927668, Note_on_c, 0, 62, 78
2, 927668, Note_on_c, 0, 40, 84
2, 927668, Note_on_c, 0, 52, 82
2, 927668, Note_on_c, 0, 83, 84
2, 927668, Note_on_c, 0, 80, 83
2, 927668, Note_on_c, 0, 76, 76
2, 927668, Note_on_c, 0, 74, 79
2, 927776, Control_c, 0, 64, 40
2, 927792, Control_c, 0, 64, 104
2, 927804, Control_c, 0, 64, 127
2, 927956, Note_on_c, 0, 40, 0
2, 927968, Note_on_c, 0, 52, 0
2, 927972, Note_on_c, 0, 74, 0
2, 927972, Note_on_c, 0, 76, 0
2, 927972, Note_on_c, 0, 80, 0
2, 928056, Note_on_c, 0, 59, 0
2, 928072, Note_on_c, 0, 62, 0
2, 928076, Note_on_c, 0, 52, 81
2, 928076, Note_on_c, 0, 40, 84
2, 928080, Note_on_c, 0, 52, 0
2, 928128, Note_on_c, 0, 52, 0
2, 928136, Note_on_c, 0, 40, 0
2, 928156, Note_on_c, 0, 68, 0
2, 928196, Note_on_c, 0, 83, 0
2, 928288, Note_on_c, 0, 71, 0
2, 928340, Note_on_c, 0, 69, 93
2, 928340, Note_on_c, 0, 61, 78
2, 928340, Note_on_c, 0, 45, 80
2, 928340, Note_on_c, 0, 52, 74
2, 928348, Note_on_c, 0, 81, 80
2, 928348, Note_on_c, 0, 76, 73
2, 928360, Note_on_c, 0, 45, 78
2, 928360, Note_on_c, 0, 73, 77
2, 928360, Note_on_c, 0, 33, 82
2, 928416, Control_c, 0, 64, 56
2, 928428, Control_c, 0, 64, 0
2, 928580, Note_on_c, 0, 33, 0
2, 928592, Note_on_c, 0, 76, 0
2, 928596, Note_on_c, 0, 45, 0
2, 928600, Note_on_c, 0, 81, 0
2, 928600, Note_on_c, 0, 45, 0
2, 928608, Note_on_c, 0, 73, 0
2, 928616, Note_on_c, 0, 52, 0
2, 928632, Note_on_c, 0, 61, 0
2, 928664, Note_on_c, 0, 69, 0
2, 928788, Control_c, 0, 64, 40
2, 928792, Note_on_c, 0, 73, 75
2, 928792, Note_on_c, 0, 69, 67
2, 928792, Note_on_c, 0, 66, 70
2, 928800, Control_c, 0, 64, 127
2, 928900, Note_on_c, 0, 74, 86
2, 928912, Note_on_c, 0, 73, 0
2, 928968, Note_on_c, 0, 74, 0
2, 928996, Note_on_c, 0, 69, 0
2, 928996, Note_on_c, 0, 73, 89
2, 929068, Note_on_c, 0, 73, 0
2, 929096, Note_on_c, 0, 81, 90
2, 929100, Note_on_c, 0, 66, 0
2, 929172, Control_c, 0, 64, 104
2, 929176, Note_on_c, 0, 81, 0
2, 929184, Control_c, 0, 64, 40
2, 929196, Note_on_c, 0, 68, 66
2, 929196, Note_on_c, 0, 80, 84
2, 929200, Control_c, 0, 64, 0
2, 929208, Note_on_c, 0, 64, 69
2, 929232, Control_c, 0, 64, 40
2, 929248, Control_c, 0, 64, 88
2, 929260, Control_c, 0, 64, 127
2, 929280, Note_on_c, 0, 80, 0
2, 929296, Note_on_c, 0, 73, 86
2, 929332, Note_on_c, 0, 64, 0
2, 929356, Control_c, 0, 64, 72
2, 929364, Note_on_c, 0, 68, 0
2, 929372, Control_c, 0, 64, 0
2, 929376, Note_on_c, 0, 73, 0
2, 929388, Note_on_c, 0, 66, 67
2, 929396, Note_on_c, 0, 63, 69
2, 929396, Control_c, 0, 64, 24
2, 929404, Note_on_c, 0, 72, 84
2, 929408, Control_c, 0, 64, 72
2, 929420, Control_c, 0, 64, 104
2, 929432, Control_c, 0, 64, 127
2, 929444, Note_on_c, 0, 66, 0
2, 929448, Note_on_c, 0, 63, 0
2, 929472, Note_on_c, 0, 72, 0
2, 929496, Note_on_c, 0, 78, 85
2, 929576, Note_on_c, 0, 78, 0
2, 929580, Control_c, 0, 64, 88
2, 929592, Control_c, 0, 64, 24
2, 929604, Note_on_c, 0, 76, 85
2, 929604, Note_on_c, 0, 61, 72
2, 929604, Note_on_c, 0, 64, 69
2, 929604, Note_on_c, 0, 73, 78
2, 929608, Control_c, 0, 64, 0
2, 929644, Control_c, 0, 64, 40
2, 929656, Control_c, 0, 64, 72
2, 929664, Control_c, 0, 64, 127
2, 929700, Note_on_c, 0, 76, 0
2, 929708, Note_on_c, 0, 73, 83
2, 929768, Note_on_c, 0, 73, 0
2, 929768, Note_on_c, 0, 64, 0
2, 929784, Note_on_c, 0, 61, 0
2, 929792, Control_c, 0, 64, 104
2, 929796, Note_on_c, 0, 73, 0
2, 929804, Control_c, 0, 64, 0
2, 929812, Note_on_c, 0, 72, 85
2, 929812, Note_on_c, 0, 56, 69
2, 929812, Note_on_c, 0, 63, 67
2, 929812, Note_on_c, 0, 75, 69
2, 929880, Control_c, 0, 64, 40
2, 929892, Control_c, 0, 64, 104
2, 929900, Control_c, 0, 64, 127
2, 929912, Note_on_c, 0, 72, 0
2, 929920, Note_on_c, 0, 75, 83
2, 929952, Control_c, 0, 64, 72
2, 929964, Control_c, 0, 64, 0
2, 929980, Note_on_c, 0, 75, 0
2, 929980, Note_on_c, 0, 63, 0
2, 929988, Note_on_c, 0, 56, 0
2, 930012, Note_on_c, 0, 75, 0
2, 930028, Note_on_c, 0, 73, 85
2, 930028, Control_c, 0, 64, 40
2, 930036, Note_on_c, 0, 61, 70
2, 930040, Control_c, 0, 64, 72
2, 930044, Note_on_c, 0, 64, 67
2, 930052, Control_c, 0, 64, 104
2, 930064, Control_c, 0, 64, 127
2, 930068, Note_on_c, 0, 61, 0
2, 930076, Note_on_c, 0, 64, 0
2, 930096, Note_on_c, 0, 73, 0
2, 930116, Note_on_c, 0, 68, 82
2, 930184, Note_on_c, 0, 68, 0
2, 930212, Control_c, 0, 64, 88
2, 930224, Control_c, 0, 64, 0
2, 930252, Note_on_c, 0, 73, 92
2, 930252, Note_on_c, 0, 69, 68
2, 930252, Note_on_c, 0, 66, 69
2, 930300, Control_c, 0, 64, 24
2, 930312, Control_c, 0, 64, 88
2, 930324, Control_c, 0, 64, 127
2, 930336, Note_on_c, 0, 69, 0
2, 930336, Note_on_c, 0, 73, 0
2, 930356, Note_on_c, 0, 81, 98
2, 930396, Note_on_c, 0, 66, 0
2, 930436, Note_on_c, 0, 81, 0
2, 930448, Control_c, 0, 64, 56
2, 930460, Note_on_c, 0, 80, 87
2, 930460, Note_on_c, 0, 68, 70
2, 930460, Note_on_c, 0, 64, 68
2, 930460, Control_c, 0, 64, 0
2, 930500, Control_c, 0, 64, 72
2, 930512, Control_c, 0, 64, 127
2, 930548, Note_on_c, 0, 80, 0
2, 930560, Note_on_c, 0, 73, 92
2, 930596, Note_on_c, 0, 64, 0
2, 930632, Control_c, 0, 64, 72
2, 930648, Control_c, 0, 64, 0
2, 930652, Note_on_c, 0, 73, 0
2, 930660, Note_on_c, 0, 68, 0
2, 930664, Note_on_c, 0, 66, 69
2, 930664, Note_on_c, 0, 72, 93
2, 930664, Note_on_c, 0, 63, 71
2, 930696, Control_c, 0, 64, 40
2, 930712, Control_c, 0, 64, 88
2, 930716, Note_on_c, 0, 66, 0
2, 930720, Note_on_c, 0, 63, 0
2, 930724, Control_c, 0, 64, 127
2, 930764, Note_on_c, 0, 78, 91
2, 930792, Note_on_c, 0, 72, 0
2, 930856, Note_on_c, 0, 78, 0
2, 930864, Note_on_c, 0, 64, 68
2, 930864, Note_on_c, 0, 76, 93
2, 930864, Note_on_c, 0, 73, 70
2, 930864, Control_c, 0, 64, 40
2, 930884, Note_on_c, 0, 61, 58
2, 930884, Control_c, 0, 64, 0
2, 930920, Control_c, 0, 64, 40
2, 930932, Control_c, 0, 64, 88
2, 930948, Control_c, 0, 64, 127
2, 930972, Note_on_c, 0, 73, 91
2, 930976, Note_on_c, 0, 76, 0
2, 930996, Note_on_c, 0, 73, 0
2, 931012, Note_on_c, 0, 64, 0
2, 931068, Note_on_c, 0, 73, 0
2, 931076, Note_on_c, 0, 61, 0
2, 931080, Note_on_c, 0, 72, 88
2, 931080, Note_on_c, 0, 75, 70
2, 931092, Control_c, 0, 64, 88
2, 931104, Control_c, 0, 64, 0
2, 931112, Note_on_c, 0, 63, 67
2, 931120, Note_on_c, 0, 56, 69
2, 931164, Note_on_c, 0, 72, 0
2, 931168, Control_c, 0, 64, 56
2, 931180, Control_c, 0, 64, 104
2, 931188, Note_on_c, 0, 75, 83
2, 931192, Control_c, 0, 64, 127
2, 931248, Note_on_c, 0, 75, 0
2, 931268, Control_c, 0, 64, 56
2, 931280, Note_on_c, 0, 63, 0
2, 931280, Control_c, 0, 64, 24
2, 931288, Note_on_c, 0, 75, 0
2, 931292, Control_c, 0, 64, 40
2, 931300, Control_c, 0, 64, 72
2, 931308, Note_on_c, 0, 56, 0
2, 931308, Note_on_c, 0, 73, 86
2, 931308, Note_on_c, 0, 61, 68
2, 931316, Control_c, 0, 64, 104
2, 931320, Note_on_c, 0, 64, 66
2, 931328, Control_c, 0, 64, 127
2, 931344, Note_on_c, 0, 61, 0
2, 931352, Note_on_c, 0, 64, 0
2, 931404, Note_on_c, 0, 73, 0
2, 931404, Note_on_c, 0, 68, 77
2, 931464, Note_on_c, 0, 68, 0
2, 931504, Control_c, 0, 64, 72
2, 931516, Control_c, 0, 64, 0
2, 931536, Note_on_c, 0, 64, 89
2, 931552, Note_on_c, 0, 46, 78
2, 931564, Control_c, 0, 64, 56
2, 931576, Control_c, 0, 64, 127
2, 931648, Note_on_c, 0, 64, 0
2, 931656, Note_on_c, 0, 67, 88
2, 931700, Note_on_c, 0, 67, 0
2, 931764, Note_on_c, 0, 64, 78
2, 931768, Note_on_c, 0, 72, 93
2, 931820, Note_on_c, 0, 64, 0
2, 931832, Note_on_c, 0, 72, 0
2, 931860, Note_on_c, 0, 73, 92
2, 931944, Note_on_c, 0, 73, 0
2, 931968, Note_on_c, 0, 75, 96
2, 931972, Note_on_c, 0, 46, 78
2, 931980, Note_on_c, 0, 46, 0
2, 932004, Note_on_c, 0, 46, 0
2, 932036, Note_on_c, 0, 75, 0
2, 932056, Note_on_c, 0, 76, 92
2, 932132, Note_on_c, 0, 76, 0
2, 932160, Control_c, 0, 64, 24
2, 932172, Control_c, 0, 64, 0
2, 932176, Note_on_c, 0, 80, 98
2, 932176, Note_on_c, 0, 47, 78
2, 932176, Note_on_c, 0, 56, 67
2, 932176, Note_on_c, 0, 59, 60
2, 932176, Note_on_c, 0, 64, 66
2, 932236, Control_c, 0, 64, 56
2, 932248, Control_c, 0, 64, 127
2, 932284, Note_on_c, 0, 75, 90
2, 932308, Note_on_c, 0, 80, 0
2, 932376, Note_on_c, 0, 75, 0
2, 932396, Note_on_c, 0, 64, 76
2, 932400, Note_on_c, 0, 56, 69
2, 932404, Note_on_c, 0, 76, 95
2, 932424, Note_on_c, 0, 64, 0
2, 932448, Note_on_c, 0, 56, 0
2, 932452, Note_on_c, 0, 76, 0
2, 932500, Note_on_c, 0, 70, 80
2, 932560, Note_on_c, 0, 70, 0
2, 932560, Note_on_c, 0, 59, 0
2, 932560, Note_on_c, 0, 56, 0
2, 932600, Note_on_c, 0, 73, 85
2, 932604, Note_on_c, 0, 47, 72
2, 932608, Note_on_c, 0, 47, 0
2, 932628, Note_on_c, 0, 47, 0
2, 932676, Note_on_c, 0, 73, 0
2, 932700, Note_on_c, 0, 71, 93
2, 932756, Control_c, 0, 64, 40
2, 932768, Control_c, 0, 64, 0
2, 932772, Note_on_c, 0, 71, 0
2, 932812, Note_on_c, 0, 69, 88
2, 932816, Note_on_c, 0, 49, 77
2, 932840, Control_c, 0, 64, 127
2, 932912, Note_on_c, 0, 73, 85
2, 932920, Note_on_c, 0, 69, 0
2, 932948, Note_on_c, 0, 64, 0
2, 933008, Note_on_c, 0, 75, 88
2, 933012, Note_on_c, 0, 64, 71
2, 933020, Note_on_c, 0, 73, 0
2, 933032, Note_on_c, 0, 57, 65
2, 933064, Note_on_c, 0, 75, 0
2, 933072, Note_on_c, 0, 64, 0
2, 933100, Note_on_c, 0, 76, 98
2, 933176, Note_on_c, 0, 57, 0
2, 933196, Note_on_c, 0, 76, 0
2, 933212, Note_on_c, 0, 80, 101
2, 933224, Note_on_c, 0, 49, 79
2, 933288, Note_on_c, 0, 49, 0
2, 933296, Note_on_c, 0, 80, 0
2, 933308, Note_on_c, 0, 49, 0
2, 933312, Note_on_c, 0, 81, 102
2, 933388, Control_c, 0, 64, 88
2, 933400, Control_c, 0, 64, 0
2, 933432, Note_on_c, 0, 85, 106
2, 933432, Note_on_c, 0, 51, 83
2, 933432, Note_on_c, 0, 59, 73
2, 933432, Note_on_c, 0, 66, 68
2, 933432, Note_on_c, 0, 69, 73
2, 933444, Note_on_c, 0, 81, 0
2, 933472, Control_c, 0, 64, 88
2, 933484, Control_c, 0, 64, 127
2, 933548, Note_on_c, 0, 83, 103
2, 933616, Note_on_c, 0, 85, 0
2, 933652, Note_on_c, 0, 59, 69
2, 933652, Note_on_c, 0, 82, 101
2, 933664, Note_on_c, 0, 69, 70
2, 933672, Note_on_c, 0, 66, 59
2, 933676, Note_on_c, 0, 83, 0
2, 933696, Note_on_c, 0, 66, 0
2, 933712, Note_on_c, 0, 69, 0
2, 933724, Note_on_c, 0, 59, 0
2, 933748, Note_on_c, 0, 82, 0
2, 933748, Note_on_c, 0, 81, 88
2, 933816, Note_on_c, 0, 69, 0
2, 933816, Note_on_c, 0, 66, 0
2, 933816, Note_on_c, 0, 59, 0
2, 933820, Note_on_c, 0, 81, 0
2, 933864, Note_on_c, 0, 51, 0
2, 933868, Note_on_c, 0, 80, 87
2, 933868, Note_on_c, 0, 51, 78
2, 933924, Note_on_c, 0, 51, 0
2, 933956, Note_on_c, 0, 80, 0
2, 933964, Note_on_c, 0, 78, 88
2, 934052, Note_on_c, 0, 78, 0
2, 934096, Note_on_c, 0, 80, 91
2, 934096, Note_on_c, 0, 52, 77
2, 934096, Note_on_c, 0, 68, 70
2, 934096, Note_on_c, 0, 64, 68
2, 934132, Control_c, 0, 64, 56
2, 934144, Control_c, 0, 64, 0
2, 934256, Control_c, 0, 64, 40
2, 934268, Control_c, 0, 64, 88
2, 934280, Control_c, 0, 64, 127
2, 934292, Note_on_c, 0, 64, 0
2, 934292, Note_on_c, 0, 68, 0
2, 934324, Note_on_c, 0, 80, 0
2, 934324, Note_on_c, 0, 68, 80
2, 934324, Note_on_c, 0, 60, 68
2, 934384, Note_on_c, 0, 52, 0
2, 934432, Note_on_c, 0, 78, 87
2, 934480, Note_on_c, 0, 68, 0
2, 934512, Note_on_c, 0, 78, 0
2, 934532, Note_on_c, 0, 60, 0
2, 934540, Note_on_c, 0, 61, 68
2, 934544, Note_on_c, 0, 76, 88
2, 934632, Note_on_c, 0, 76, 0
2, 934640, Note_on_c, 0, 73, 85
2, 934740, Note_on_c, 0, 73, 0
2, 934744, Note_on_c, 0, 61, 0
2, 934748, Note_on_c, 0, 72, 88
2, 934752, Control_c, 0, 64, 72
2, 934756, Note_on_c, 0, 63, 68
2, 934764, Control_c, 0, 64, 0
2, 934800, Control_c, 0, 64, 24
2, 934812, Control_c, 0, 64, 72
2, 934824, Control_c, 0, 64, 127
2, 934840, Note_on_c, 0, 72, 0
2, 934840, Note_on_c, 0, 75, 85
2, 934912, Control_c, 0, 64, 72
2, 934924, Control_c, 0, 64, 0
2, 934948, Note_on_c, 0, 73, 83
2, 934952, Note_on_c, 0, 75, 0
2, 934952, Note_on_c, 0, 63, 0
2, 934952, Control_c, 0, 64, 24
2, 934960, Control_c, 0, 64, 56
2, 934964, Note_on_c, 0, 64, 70
2, 934972, Control_c, 0, 64, 104
2, 934988, Control_c, 0, 64, 127
2, 935024, Note_on_c, 0, 73, 0
2, 935048, Note_on_c, 0, 68, 75
2, 935080, Note_on_c, 0, 68, 0
2, 935100, Note_on_c, 0, 67, 47
2, 935120, Note_on_c, 0, 67, 0
2, 935124, Note_on_c, 0, 64, 0
2, 935124, Control_c, 0, 64, 88
2, 935136, Control_c, 0, 64, 0
2, 935156, Note_on_c, 0, 71, 85
2, 935168, Note_on_c, 0, 53, 70
2, 935220, Control_c, 0, 64, 56
2, 935232, Control_c, 0, 64, 104
2, 935248, Note_on_c, 0, 71, 0
2, 935248, Control_c, 0, 64, 127
2, 935252, Note_on_c, 0, 68, 82
2, 935340, Note_on_c, 0, 68, 0
2, 935340, Note_on_c, 0, 53, 0
2, 935348, Control_c, 0, 64, 40
2, 935356, Note_on_c, 0, 54, 73
2, 935360, Note_on_c, 0, 69, 89
2, 935360, Control_c, 0, 64, 0
2, 935404, Control_c, 0, 64, 24
2, 935420, Control_c, 0, 64, 56
2, 935432, Control_c, 0, 64, 88
2, 935444, Control_c, 0, 64, 127
2, 935456, Note_on_c, 0, 69, 0
2, 935464, Note_on_c, 0, 66, 83
2, 935508, Control_c, 0, 64, 56
2, 935520, Control_c, 0, 64, 0
2, 935544, Note_on_c, 0, 54, 0
2, 935552, Note_on_c, 0, 66, 0
2, 935568, Note_on_c, 0, 65, 83
2, 935572, Note_on_c, 0, 56, 73
2, 935596, Control_c, 0, 64, 56
2, 935608, Control_c, 0, 64, 104
2, 935620, Control_c, 0, 64, 127
2, 935660, Note_on_c, 0, 68, 80
2, 935664, Note_on_c, 0, 65, 0
2, 935692, Control_c, 0, 64, 72
2, 935704, Control_c, 0, 64, 24
2, 935720, Control_c, 0, 64, 0
2, 935768, Note_on_c, 0, 66, 83
2, 935780, Note_on_c, 0, 57, 76
2, 935780, Control_c, 0, 64, 40
2, 935784, Note_on_c, 0, 68, 0
2, 935792, Control_c, 0, 64, 88
2, 935796, Note_on_c, 0, 56, 0
2, 935804, Control_c, 0, 64, 127
2, 935808, Note_on_c, 0, 57, 0
2, 935852, Note_on_c, 0, 66, 0
2, 935872, Note_on_c, 0, 61, 78
2, 935912, Note_on_c, 0, 61, 0
2, 935920, Note_on_c, 0, 60, 60
2, 935948, Note_on_c, 0, 60, 0
2, 935956, Control_c, 0, 64, 104
2, 935968, Note_on_c, 0, 46, 73
2, 935968, Control_c, 0, 64, 40
2, 935980, Note_on_c, 0, 64, 84
2, 935980, Control_c, 0, 64, 0
2, 936040, Control_c, 0, 64, 72
2, 936052, Control_c, 0, 64, 127
2, 936060, Note_on_c, 0, 64, 0
2, 936076, Note_on_c, 0, 61, 78
2, 936152, Control_c, 0, 64, 56
2, 936160, Note_on_c, 0, 61, 0
2, 936160, Note_on_c, 0, 46, 0
2, 936164, Control_c, 0, 64, 0
2, 936184, Note_on_c, 0, 63, 80
2, 936184, Note_on_c, 0, 47, 77
2, 936228, Control_c, 0, 64, 24
2, 936240, Control_c, 0, 64, 72
2, 936252, Control_c, 0, 64, 127
2, 936272, Note_on_c, 0, 63, 0
2, 936288, Note_on_c, 0, 59, 84
2, 936352, Control_c, 0, 64, 104
2, 936364, Control_c, 0, 64, 56
2, 936376, Control_c, 0, 64, 0
2, 936380, Note_on_c, 0, 47, 0
2, 936384, Note_on_c, 0, 59, 0
2, 936396, Note_on_c, 0, 61, 80
2, 936396, Note_on_c, 0, 51, 79
2, 936396, Note_on_c, 0, 57, 69
2, 936448, Control_c, 0, 64, 56
2, 936464, Control_c, 0, 64, 104
2, 936476, Control_c, 0, 64, 127
2, 936484, Note_on_c, 0, 57, 0
2, 936496, Note_on_c, 0, 61, 0
2, 936500, Note_on_c, 0, 57, 78
2, 936536, Control_c, 0, 64, 56
2, 936548, Control_c, 0, 64, 0
2, 936576, Note_on_c, 0, 51, 0
2, 936600, Note_on_c, 0, 56, 83
2, 936600, Note_on_c, 0, 52, 80
2, 936600, Note_on_c, 0, 59, 70
2, 936604, Note_on_c, 0, 57, 0
2, 936624, Control_c, 0, 64, 72
2, 936636, Control_c, 0, 64, 127
2, 936648, Note_on_c, 0, 56, 0
2, 936688, Note_on_c, 0, 59, 0
2, 936720, Note_on_c, 0, 68, 79
2, 936760, Control_c, 0, 64, 88
2, 936772, Control_c, 0, 64, 24
2, 936776, Note_on_c, 0, 52, 0
2, 936784, Control_c, 0, 64, 0
2, 936792, Note_on_c, 0, 68, 0
2, 936816, Note_on_c, 0, 48, 79
2, 936820, Note_on_c, 0, 66, 83
2, 936860, Control_c, 0, 64, 56
2, 936872, Control_c, 0, 64, 127
2, 936916, Note_on_c, 0, 63, 84
2, 936924, Note_on_c, 0, 66, 0
2, 936968, Control_c, 0, 64, 72
2, 936980, Control_c, 0, 64, 24
2, 936996, Control_c, 0, 64, 0
2, 937004, Note_on_c, 0, 63, 0
2, 937004, Note_on_c, 0, 48, 0
2, 937012, Note_on_c, 0, 61, 83
2, 937012, Note_on_c, 0, 49, 78
2, 937084, Control_c, 0, 64, 40
2, 937092, Note_on_c, 0, 61, 0
2, 937096, Control_c, 0, 64, 72
2, 937124, Note_on_c, 0, 64, 85
2, 937144, Control_c, 0, 64, 40
2, 937168, Control_c, 0, 64, 0
2, 937216, Note_on_c, 0, 51, 78
2, 937220, Note_on_c, 0, 63, 91
2, 937224, Note_on_c, 0, 49, 0
2, 937236, Note_on_c, 0, 64, 0
2, 937316, Control_c, 0, 64, 40
2, 937320, Note_on_c, 0, 63, 0
2, 937320, Note_on_c, 0, 60, 83
2, 937332, Control_c, 0, 64, 72
2, 937344, Control_c, 0, 64, 88
2, 937380, Control_c, 0, 64, 56
2, 937396, Note_on_c, 0, 60, 0
2, 937416, Note_on_c, 0, 51, 0
2, 937420, Note_on_c, 0, 61, 87
2, 937428, Note_on_c, 0, 52, 79
2, 937440, Control_c, 0, 64, 72
2, 937452, Control_c, 0, 64, 88
2, 937468, Control_c, 0, 64, 104
2, 937492, Control_c, 0, 64, 127
2, 937516, Note_on_c, 0, 61, 0
2, 937532, Note_on_c, 0, 56, 88
2, 937564, Note_on_c, 0, 52, 0
2, 937568, Control_c, 0, 64, 88
2, 937576, Control_c, 0, 64, 56
2, 937588, Control_c, 0, 64, 0
2, 937616, Note_on_c, 0, 41, 75
2, 937620, Note_on_c, 0, 56, 0
2, 937632, Note_on_c, 0, 59, 82
2, 937724, Note_on_c, 0, 59, 0
2, 937724, Note_on_c, 0, 56, 85
2, 937816, Note_on_c, 0, 56, 0
2, 937832, Note_on_c, 0, 41, 0
2, 937832, Note_on_c, 0, 57, 84
2, 937836, Note_on_c, 0, 42, 79
2, 937940, Note_on_c, 0, 54, 87
2, 937944, Note_on_c, 0, 57, 0
2, 938040, Note_on_c, 0, 53, 91
2, 938044, Note_on_c, 0, 54, 0
2, 938044, Note_on_c, 0, 44, 80
2, 938052, Note_on_c, 0, 42, 0
2, 938140, Note_on_c, 0, 56, 85
2, 938148, Note_on_c, 0, 53, 0
2, 938248, Note_on_c, 0, 44, 0
2, 938256, Note_on_c, 0, 54, 86
2, 938256, Note_on_c, 0, 45, 87
2, 938276, Note_on_c, 0, 56, 0
2, 938336, Note_on_c, 0, 54, 0
2, 938356, Note_on_c, 0, 49, 87
2, 938428, Note_on_c, 0, 49, 0
2, 938468, Note_on_c, 0, 52, 92
2, 938492, Note_on_c, 0, 45, 0
2, 938556, Note_on_c, 0, 49, 96
2, 938560, Note_on_c, 0, 52, 0
2, 938576, Note_on_c, 0, 34, 83
2, 938644, Note_on_c, 0, 34, 0
2, 938652, Note_on_c, 0, 49, 0
2, 938676, Note_on_c, 0, 51, 91
2, 938684, Note_on_c, 0, 35, 85
2, 938784, Note_on_c, 0, 47, 93
2, 938792, Note_on_c, 0, 51, 0
2, 938864, Note_on_c, 0, 35, 0
2, 938884, Note_on_c, 0, 49, 87
2, 938884, Note_on_c, 0, 39, 87
2, 938884, Note_on_c, 0, 51, 73
2, 938884, Note_on_c, 0, 57, 73
2, 938884, Note_on_c, 0, 61, 75
2, 938896, Note_on_c, 0, 47, 0
2, 938952, Control_c, 0, 64, 24
2, 938964, Note_on_c, 0, 49, 0
2, 938964, Control_c, 0, 64, 40
2, 938976, Note_on_c, 0, 45, 90
2, 939004, Control_c, 0, 64, 0
2, 939068, Note_on_c, 0, 39, 0
2, 939084, Note_on_c, 0, 45, 0
2, 939088, Note_on_c, 0, 57, 0
2, 939096, Note_on_c, 0, 51, 0
2, 939100, Note_on_c, 0, 44, 86
2, 939100, Note_on_c, 0, 40, 89
2, 939100, Note_on_c, 0, 59, 76
2, 939100, Note_on_c, 0, 56, 74
2, 939100, Note_on_c, 0, 52, 74
2, 939108, Note_on_c, 0, 61, 0
2, 939152, Control_c, 0, 64, 56
2, 939156, Note_on_c, 0, 44, 0
2, 939164, Control_c, 0, 64, 127
2, 939224, Note_on_c, 0, 47, 82
2, 939280, Note_on_c, 0, 47, 0
2, 939332, Note_on_c, 0, 52, 83
2, 939432, Note_on_c, 0, 40, 0
2, 939432, Note_on_c, 0, 52, 0
2, 939440, Note_on_c, 0, 56, 85
2, 939444, Note_on_c, 0, 59, 0
2, 939444, Note_on_c, 0, 52, 0
2, 939444, Note_on_c, 0, 56, 0
2, 939504, Note_on_c, 0, 56, 0
2, 939536, Note_on_c, 0, 59, 87
2, 939608, Note_on_c, 0, 59, 0
2, 939644, Note_on_c, 0, 64, 89
2, 939736, Note_on_c, 0, 64, 0
2, 939748, Note_on_c, 0, 49, 93
2, 939748, Note_on_c, 0, 58, 88
2, 939748, Note_on_c, 0, 64, 76
2, 939748, Control_c, 0, 64, 88
2, 939752, Note_on_c, 0, 37, 83
2, 939760, Control_c, 0, 64, 0
2, 939832, Control_c, 0, 64, 127
2, 939864, Note_on_c, 0, 61, 88
2, 939900, Note_on_c, 0, 61, 0
2, 939960, Note_on_c, 0, 64, 88
2, 940028, Note_on_c, 0, 64, 0
2, 940064, Note_on_c, 0, 70, 89
2, 940172, Note_on_c, 0, 73, 90
2, 940196, Note_on_c, 0, 70, 0
2, 940208, Note_on_c, 0, 64, 0
2, 940212, Note_on_c, 0, 49, 0
2, 940252, Note_on_c, 0, 58, 0
2, 940272, Note_on_c, 0, 76, 90
2, 940284, Note_on_c, 0, 73, 0
2, 940316, Note_on_c, 0, 76, 0
2, 940324, Note_on_c, 0, 37, 0
2, 940384, Note_on_c, 0, 75, 99
2, 940384, Note_on_c, 0, 35, 84
2, 940384, Note_on_c, 0, 47, 83
2, 940384, Note_on_c, 0, 63, 79
2, 940384, Note_on_c, 0, 59, 77
2, 940416, Control_c, 0, 64, 104
2, 940428, Control_c, 0, 64, 24
2, 940440, Control_c, 0, 64, 0
2, 940460, Note_on_c, 0, 75, 0
2, 940496, Note_on_c, 0, 81, 93
2, 940528, Control_c, 0, 64, 127
2, 940592, Note_on_c, 0, 78, 92
2, 940600, Note_on_c, 0, 81, 0
2, 940700, Note_on_c, 0, 75, 89
2, 940756, Note_on_c, 0, 78, 0
2, 940772, Note_on_c, 0, 47, 0
2, 940788, Note_on_c, 0, 75, 0
2, 940796, Note_on_c, 0, 35, 0
2, 940800, Note_on_c, 0, 69, 86
2, 940812, Note_on_c, 0, 59, 0
2, 940812, Note_on_c, 0, 63, 0
2, 940896, Note_on_c, 0, 66, 83
2, 940900, Note_on_c, 0, 69, 0
2, 940976, Note_on_c, 0, 66, 0
2, 941008, Note_on_c, 0, 68, 91
2, 941008, Note_on_c, 0, 29, 80
2, 941008, Note_on_c, 0, 41, 76
2, 941008, Note_on_c, 0, 56, 76
2, 941008, Note_on_c, 0, 62, 76
2, 941048, Control_c, 0, 64, 72
2, 941060, Control_c, 0, 64, 0
2, 941128, Note_on_c, 0, 74, 93
2, 941136, Control_c, 0, 64, 104
2, 941148, Control_c, 0, 64, 127
2, 941160, Note_on_c, 0, 68, 0
2, 941216, Note_on_c, 0, 74, 0
2, 941224, Note_on_c, 0, 71, 90
2, 941320, Note_on_c, 0, 68, 89
2, 941360, Note_on_c, 0, 71, 0
2, 941420, Note_on_c, 0, 68, 0
2, 941424, Note_on_c, 0, 62, 88
2, 941436, Note_on_c, 0, 62, 0
2, 941436, Note_on_c, 0, 56, 0
2, 941484, Note_on_c, 0, 41, 0
2, 941492, Note_on_c, 0, 62, 0
2, 941520, Note_on_c, 0, 59, 87
2, 941528, Note_on_c, 0, 29, 0
2, 941568, Note_on_c, 0, 59, 0
2, 941680, Note_on_c, 0, 45, 88
2, 941680, Note_on_c, 0, 30, 78
2, 941680, Note_on_c, 0, 42, 73
2, 941680, Note_on_c, 0, 57, 78
2, 941680, Note_on_c, 0, 61, 79
2, 941704, Control_c, 0, 64, 72
2, 941716, Control_c, 0, 64, 0
2, 941780, Control_c, 0, 64, 88
2, 941784, Note_on_c, 0, 49, 86
2, 941792, Control_c, 0, 64, 127
2, 941832, Note_on_c, 0, 45, 0
2, 941900, Note_on_c, 0, 54, 87
2, 941912, Note_on_c, 0, 49, 0
2, 941944, Note_on_c, 0, 54, 0
2, 941968, Note_on_c, 0, 30, 0
2, 942004, Note_on_c, 0, 57, 88
2, 942012, Note_on_c, 0, 42, 0
2, 942092, Note_on_c, 0, 61, 88
2, 942108, Note_on_c, 0, 61, 0
2, 942108, Note_on_c, 0, 57, 0
2, 942108, Note_on_c, 0, 57, 0
2, 942188, Note_on_c, 0, 61, 0
2, 942196, Note_on_c, 0, 66, 90
2, 942280, Note_on_c, 0, 66, 0
2, 942304, Note_on_c, 0, 56, 97
2, 942304, Note_on_c, 0, 50, 78
2, 942304, Note_on_c, 0, 38, 82
2, 942304, Note_on_c, 0, 60, 78
2, 942304, Note_on_c, 0, 66, 80
2, 942324, Control_c, 0, 64, 72
2, 942340, Control_c, 0, 64, 0
2, 942400, Control_c, 0, 64, 127
2, 942424, Note_on_c, 0, 60, 87
2, 942460, Note_on_c, 0, 56, 0
2, 942520, Note_on_c, 0, 66, 88
2, 942524, Note_on_c, 0, 60, 0
2, 942568, Note_on_c, 0, 66, 0
2, 942620, Note_on_c, 0, 68, 88
2, 942692, Note_on_c, 0, 68, 0
2, 942704, Note_on_c, 0, 38, 0
2, 942724, Note_on_c, 0, 72, 89
2, 942732, Note_on_c, 0, 66, 0
2, 942732, Note_on_c, 0, 60, 0
2, 942748, Note_on_c, 0, 50, 0
2, 942808, Note_on_c, 0, 72, 0
2, 942816, Note_on_c, 0, 78, 90
2, 942876, Note_on_c, 0, 78, 0
2, 942928, Note_on_c, 0, 77, 101
2, 942928, Note_on_c, 0, 37, 64
2, 942928, Note_on_c, 0, 49, 86
2, 942928, Note_on_c, 0, 65, 78
2, 942928, Note_on_c, 0, 61, 77
2, 942996, Control_c, 0, 64, 56
2, 943008, Control_c, 0, 64, 0
2, 943048, Note_on_c, 0, 77, 0
2, 943048, Note_on_c, 0, 83, 94
2, 943080, Control_c, 0, 64, 127
2, 943148, Note_on_c, 0, 80, 85
2, 943156, Note_on_c, 0, 83, 0
2, 943244, Note_on_c, 0, 49, 0
2, 943252, Note_on_c, 0, 77, 90
2, 943296, Note_on_c, 0, 80, 0
2, 943300, Note_on_c, 0, 37, 0
2, 943324, Note_on_c, 0, 77, 0
2, 943340, Note_on_c, 0, 71, 75
2, 943356, Note_on_c, 0, 61, 0
2, 943356, Note_on_c, 0, 65, 0
2, 943436, Note_on_c, 0, 68, 83
2, 943440, Note_on_c, 0, 71, 0
2, 943516, Note_on_c, 0, 68, 0
2, 943552, Note_on_c, 0, 70, 98
2, 943552, Note_on_c, 0, 31, 79
2, 943552, Note_on_c, 0, 43, 78
2, 943552, Note_on_c, 0, 58, 79
2, 943552, Note_on_c, 0, 64, 79
2, 943580, Control_c, 0, 64, 40
2, 943592, Control_c, 0, 64, 0
2, 943652, Control_c, 0, 64, 88
2, 943664, Control_c, 0, 64, 127
2, 943668, Note_on_c, 0, 76, 92
2, 943692, Note_on_c, 0, 70, 0
2, 943760, Note_on_c, 0, 76, 0
2, 943768, Note_on_c, 0, 73, 89
2, 943884, Note_on_c, 0, 70, 87
2, 943940, Note_on_c, 0, 73, 0
2, 943972, Note_on_c, 0, 70, 0
2, 943972, Note_on_c, 0, 64, 85
2, 943980, Note_on_c, 0, 64, 0
2, 943980, Note_on_c, 0, 58, 0
2, 944020, Note_on_c, 0, 31, 0
2, 944024, Note_on_c, 0, 43, 0
2, 944024, Note_on_c, 0, 64, 0
2, 944068, Note_on_c, 0, 61, 85
2, 944136, Note_on_c, 0, 61, 0
2, 944212, Note_on_c, 0, 59, 88
2, 944212, Note_on_c, 0, 32, 78
2, 944212, Note_on_c, 0, 44, 74
2, 944212, Note_on_c, 0, 63, 79
2, 944272, Control_c, 0, 64, 0
2, 944332, Note_on_c, 0, 47, 83
2, 944344, Control_c, 0, 64, 88
2, 944356, Control_c, 0, 64, 127
2, 944432, Note_on_c, 0, 51, 81
2, 944436, Note_on_c, 0, 59, 0
2, 944460, Note_on_c, 0, 47, 0
2, 944524, Note_on_c, 0, 56, 82
2, 944532, Note_on_c, 0, 51, 0
2, 944572, Note_on_c, 0, 56, 0
2, 944636, Note_on_c, 0, 59, 83
2, 944640, Note_on_c, 0, 63, 0
2, 944692, Note_on_c, 0, 32, 0
2, 944696, Note_on_c, 0, 59, 0
2, 944716, Note_on_c, 0, 44, 0
2, 944736, Note_on_c, 0, 63, 82
2, 944820, Note_on_c, 0, 63, 0
2, 944856, Note_on_c, 0, 71, 97
2, 944856, Note_on_c, 0, 43, 76
2, 944856, Note_on_c, 0, 31, 79
2, 944856, Note_on_c, 0, 64, 78
2, 944856, Control_c, 0, 64, 24
2, 944868, Control_c, 0, 64, 0
2, 944904, Control_c, 0, 64, 40
2, 944916, Control_c, 0, 64, 127
2, 944924, Note_on_c, 0, 71, 0
2, 944992, Note_on_c, 0, 52, 77
2, 945076, Note_on_c, 0, 52, 0
2, 945084, Note_on_c, 0, 55, 79
2, 945180, Note_on_c, 0, 55, 0
2, 945188, Note_on_c, 0, 58, 73
2, 945236, Note_on_c, 0, 58, 0
2, 945284, Note_on_c, 0, 64, 0
2, 945304, Note_on_c, 0, 59, 80
2, 945324, Note_on_c, 0, 31, 0
2, 945324, Note_on_c, 0, 43, 0
2, 945352, Note_on_c, 0, 59, 0
2, 945412, Note_on_c, 0, 71, 93
2, 945492, Note_on_c, 0, 71, 0
2, 945512, Control_c, 0, 64, 56
2, 945524, Note_on_c, 0, 70, 94
2, 945524, Note_on_c, 0, 30, 78
2, 945524, Note_on_c, 0, 42, 72
2, 945524, Note_on_c, 0, 61, 76
2, 945524, Note_on_c, 0, 64, 76
2, 945524, Control_c, 0, 64, 0
2, 945576, Control_c, 0, 64, 88
2, 945588, Note_on_c, 0, 70, 0
2, 945588, Control_c, 0, 64, 127
2, 945652, Note_on_c, 0, 52, 83
2, 945736, Note_on_c, 0, 52, 0
2, 945760, Note_on_c, 0, 58, 76
2, 945860, Note_on_c, 0, 58, 0
2, 945864, Note_on_c, 0, 30, 0
2, 945864, Note_on_c, 0, 61, 72
2, 945880, Note_on_c, 0, 42, 0
2, 945896, Note_on_c, 0, 61, 0
2, 945952, Note_on_c, 0, 61, 0
2, 945972, Note_on_c, 0, 64, 81
2, 946028, Note_on_c, 0, 64, 0
2, 946064, Note_on_c, 0, 70, 88
2, 946156, Control_c, 0, 64, 104
2, 946164, Note_on_c, 0, 70, 0
2, 946168, Control_c, 0, 64, 0
2, 946176, Note_on_c, 0, 76, 100
2, 946176, Note_on_c, 0, 36, 76
2, 946176, Note_on_c, 0, 48, 84
2, 946176, Note_on_c, 0, 69, 80
2, 946240, Note_on_c, 0, 76, 0
2, 946244, Control_c, 0, 64, 127
2, 946304, Note_on_c, 0, 57, 81
2, 946400, Note_on_c, 0, 60, 86
2, 946404, Note_on_c, 0, 57, 0
2, 946496, Note_on_c, 0, 63, 82
2, 946500, Note_on_c, 0, 60, 0
2, 946552, Note_on_c, 0, 63, 0
2, 946604, Note_on_c, 0, 69, 0
2, 946604, Note_on_c, 0, 64, 94
2, 946628, Note_on_c, 0, 48, 0
2, 946632, Note_on_c, 0, 36, 0
2, 946660, Note_on_c, 0, 64, 0
2, 946712, Note_on_c, 0, 76, 103
2, 946720, Note_on_c, 0, 64, 0
2, 946788, Note_on_c, 0, 76, 0
2, 946800, Control_c, 0, 64, 88
2, 946812, Control_c, 0, 64, 0
2, 946820, Note_on_c, 0, 75, 100
2, 946820, Note_on_c, 0, 47, 83
2, 946820, Note_on_c, 0, 35, 80
2, 946820, Note_on_c, 0, 69, 76
2, 946820, Note_on_c, 0, 66, 76
2, 946872, Control_c, 0, 64, 104
2, 946884, Control_c, 0, 64, 127
2, 946888, Note_on_c, 0, 75, 0
2, 946952, Note_on_c, 0, 57, 83
2, 947032, Note_on_c, 0, 57, 0
2, 947052, Note_on_c, 0, 63, 83
2, 947144, Note_on_c, 0, 63, 0
2, 947144, Note_on_c, 0, 35, 0
2, 947144, Note_on_c, 0, 66, 76
2, 947176, Note_on_c, 0, 66, 0
2, 947184, Note_on_c, 0, 47, 0
2, 947236, Note_on_c, 0, 69, 94
2, 947248, Note_on_c, 0, 69, 0
2, 947248, Note_on_c, 0, 66, 0
2, 947304, Note_on_c, 0, 69, 0
2, 947332, Note_on_c, 0, 75, 94
2, 947424, Note_on_c, 0, 75, 0
2, 947432, Control_c, 0, 64, 40
2, 947440, Note_on_c, 0, 81, 103
2, 947440, Note_on_c, 0, 41, 85
2, 947440, Note_on_c, 0, 53, 88
2, 947440, Note_on_c, 0, 69, 84
2, 947440, Note_on_c, 0, 57, 80
2, 947440, Note_on_c, 0, 62, 78
2, 947444, Control_c, 0, 64, 0
2, 947504, Note_on_c, 0, 81, 0
2, 947508, Control_c, 0, 64, 127
2, 947572, Note_on_c, 0, 62, 88
2, 947652, Note_on_c, 0, 65, 83
2, 947668, Note_on_c, 0, 62, 0
2, 947748, Note_on_c, 0, 68, 80
2, 947752, Note_on_c, 0, 65, 0
2, 947796, Note_on_c, 0, 68, 0
2, 947864, Note_on_c, 0, 69, 81
2, 947868, Note_on_c, 0, 57, 0
2, 947868, Note_on_c, 0, 69, 0
2, 947868, Note_on_c, 0, 62, 0
2, 947908, Note_on_c, 0, 69, 0
2, 947912, Note_on_c, 0, 41, 0
2, 947932, Note_on_c, 0, 53, 0
2, 947960, Note_on_c, 0, 81, 100
2, 948040, Note_on_c, 0, 81, 0
2, 948064, Note_on_c, 0, 80, 100
2, 948064, Note_on_c, 0, 52, 88
2, 948064, Note_on_c, 0, 40, 78
2, 948064, Note_on_c, 0, 68, 82
2, 948064, Note_on_c, 0, 62, 78
2, 948064, Note_on_c, 0, 59, 78
2, 948064, Control_c, 0, 64, 72
2, 948076, Control_c, 0, 64, 0
2, 948128, Note_on_c, 0, 80, 0
2, 948128, Control_c, 0, 64, 88
2, 948140, Control_c, 0, 64, 127
2, 948188, Note_on_c, 0, 62, 83
2, 948276, Note_on_c, 0, 68, 83
2, 948280, Note_on_c, 0, 62, 0
2, 948280, Note_on_c, 0, 62, 0
2, 948364, Note_on_c, 0, 40, 0
2, 948376, Note_on_c, 0, 71, 87
2, 948388, Note_on_c, 0, 68, 0
2, 948404, Note_on_c, 0, 71, 0
2, 948416, Note_on_c, 0, 52, 0
2, 948484, Note_on_c, 0, 74, 93
2, 948492, Note_on_c, 0, 68, 0
2, 948492, Note_on_c, 0, 59, 0
2, 948544, Note_on_c, 0, 74, 0
2, 948576, Note_on_c, 0, 80, 97
2, 948676, Note_on_c, 0, 80, 0
2, 948684, Note_on_c, 0, 86, 100
2, 948684, Note_on_c, 0, 44, 88
2, 948684, Note_on_c, 0, 56, 97
2, 948684, Note_on_c, 0, 74, 83
2, 948684, Note_on_c, 0, 64, 80
2, 948684, Control_c, 0, 64, 24
2, 948696, Control_c, 0, 64, 0
2, 948748, Note_on_c, 0, 86, 0
2, 948748, Control_c, 0, 64, 72
2, 948760, Control_c, 0, 64, 127
2, 948824, Note_on_c, 0, 64, 88
2, 948908, Note_on_c, 0, 64, 0
2, 948908, Note_on_c, 0, 64, 0
2, 948912, Note_on_c, 0, 71, 84
2, 948996, Note_on_c, 0, 71, 0
2, 948996, Note_on_c, 0, 74, 83
2, 949016, Note_on_c, 0, 74, 0
2, 949080, Note_on_c, 0, 76, 90
2, 949112, Note_on_c, 0, 44, 0
2, 949112, Note_on_c, 0, 74, 0
2, 949140, Note_on_c, 0, 76, 0
2, 949180, Note_on_c, 0, 86, 98
2, 949184, Note_on_c, 0, 56, 0
2, 949280, Control_c, 0, 64, 88
2, 949288, Note_on_c, 0, 86, 0
2, 949288, Note_on_c, 0, 85, 99
2, 949288, Note_on_c, 0, 57, 93
2, 949288, Note_on_c, 0, 45, 95
2, 949288, Note_on_c, 0, 73, 80
2, 949288, Note_on_c, 0, 64, 80
2, 949288, Control_c, 0, 64, 0
2, 949340, Note_on_c, 0, 85, 0
2, 949340, Control_c, 0, 64, 56
2, 949352, Control_c, 0, 64, 127
2, 949412, Note_on_c, 0, 64, 86
2, 949500, Note_on_c, 0, 45, 0
2, 949500, Note_on_c, 0, 73, 82
2, 949544, Note_on_c, 0, 73, 0
2, 949548, Note_on_c, 0, 57, 0
2, 949604, Note_on_c, 0, 76, 93
2, 949688, Note_on_c, 0, 76, 0
2, 949700, Note_on_c, 0, 85, 87
2, 949716, Note_on_c, 0, 73, 0
2, 949716, Note_on_c, 0, 64, 0
2, 949716, Note_on_c, 0, 64, 0
2, 949716, Note_on_c, 0, 61, 102
2, 949724, Note_on_c, 0, 49, 92
2, 949752, Note_on_c, 0, 85, 0
2, 949804, Note_on_c, 0, 88, 96
2, 949884, Note_on_c, 0, 88, 0
2, 949900, Note_on_c, 0, 97, 93
2, 949984, Note_on_c, 0, 97, 0
2, 949996, Note_on_c, 0, 88, 87
2, 950016, Note_on_c, 0, 88, 0
2, 950036, Note_on_c, 0, 49, 0
2, 950044, Note_on_c, 0, 61, 0
2, 950096, Note_on_c, 0, 85, 93
2, 950116, Note_on_c, 0, 63, 93
2, 950116, Note_on_c, 0, 51, 85
2, 950164, Note_on_c, 0, 85, 0
2, 950192, Note_on_c, 0, 76, 84
2, 950200, Note_on_c, 0, 51, 0
2, 950232, Note_on_c, 0, 76, 0
2, 950244, Note_on_c, 0, 63, 0
2, 950300, Note_on_c, 0, 64, 98
2, 950308, Note_on_c, 0, 52, 90
2, 950316, Note_on_c, 0, 76, 84
2, 950340, Note_on_c, 0, 64, 0
2, 950348, Note_on_c, 0, 52, 0
2, 950356, Note_on_c, 0, 76, 0
2, 950392, Note_on_c, 0, 64, 83
2, 950420, Note_on_c, 0, 46, 101
2, 950468, Note_on_c, 0, 46, 0
2, 950468, Note_on_c, 0, 64, 0
2, 950532, Note_on_c, 0, 73, 87
2, 950556, Control_c, 0, 64, 24
2, 950564, Note_on_c, 0, 66, 110
2, 950564, Note_on_c, 0, 54, 96
2, 950572, Control_c, 0, 64, 0
2, 950620, Note_on_c, 0, 54, 0
2, 950620, Note_on_c, 0, 54, 47
2, 950620, Control_c, 0, 64, 88
2, 950632, Control_c, 0, 64, 127
2, 950640, Note_on_c, 0, 73, 0
2, 950652, Note_on_c, 0, 64, 94
2, 950752, Note_on_c, 0, 64, 0
2, 950756, Note_on_c, 0, 73, 84
2, 950808, Note_on_c, 0, 73, 0
2, 950844, Note_on_c, 0, 54, 0
2, 950860, Note_on_c, 0, 66, 0
2, 950868, Note_on_c, 0, 76, 89
2, 950956, Note_on_c, 0, 64, 102
2, 950964, Note_on_c, 0, 52, 90
2, 950968, Note_on_c, 0, 76, 0
2, 950968, Note_on_c, 0, 85, 88
2, 951012, Note_on_c, 0, 85, 0
2, 951064, Note_on_c, 0, 88, 104
2, 951172, Note_on_c, 0, 88, 0
2, 951172, Note_on_c, 0, 97, 107
2, 951272, Note_on_c, 0, 97, 0
2, 951280, Note_on_c, 0, 88, 88
2, 951292, Note_on_c, 0, 52, 0
2, 951292, Note_on_c, 0, 64, 0
2, 951328, Note_on_c, 0, 88, 0
2, 951392, Note_on_c, 0, 63, 97
2, 951396, Note_on_c, 0, 51, 94
2, 951412, Note_on_c, 0, 85, 87
2, 951444, Note_on_c, 0, 51, 0
2, 951452, Note_on_c, 0, 63, 0
2, 951460, Note_on_c, 0, 85, 0
2, 951492, Note_on_c, 0, 76, 83
2, 951548, Note_on_c, 0, 76, 0
2, 951600, Note_on_c, 0, 73, 83
2, 951604, Note_on_c, 0, 61, 94
2, 951612, Note_on_c, 0, 49, 90
2, 951660, Note_on_c, 0, 73, 0
2, 951672, Note_on_c, 0, 49, 0
2, 951684, Note_on_c, 0, 61, 0
2, 951692, Note_on_c, 0, 64, 82
2, 951820, Note_on_c, 0, 64, 0
2, 951820, Control_c, 0, 64, 40
2, 951836, Control_c, 0, 64, 0
2, 951852, Note_on_c, 0, 71, 101
2, 951852, Note_on_c, 0, 59, 83
2, 951852, Note_on_c, 0, 47, 84
2, 951852, Note_on_c, 0, 68, 87
2, 951896, Note_on_c, 0, 47, 0
2, 951900, Note_on_c, 0, 68, 0
2, 951904, Note_on_c, 0, 59, 0
2, 951908, Control_c, 0, 64, 127
2, 951924, Note_on_c, 0, 71, 0
2, 952088, Note_on_c, 0, 83, 98
2, 952088, Note_on_c, 0, 76, 80
2, 952088, Note_on_c, 0, 68, 80
2, 952088, Note_on_c, 0, 59, 73
2, 952128, Note_on_c, 0, 76, 0
2, 952136, Note_on_c, 0, 68, 0
2, 952140, Note_on_c, 0, 59, 0
2, 952152, Control_c, 0, 64, 104
2, 952168, Control_c, 0, 64, 72
2, 952172, Note_on_c, 0, 83, 0
2, 952180, Control_c, 0, 64, 0
2, 952268, Control_c, 0, 64, 72
2, 952280, Control_c, 0, 64, 127
2, 952312, Note_on_c, 0, 84, 103
2, 952312, Note_on_c, 0, 59, 72
2, 952312, Note_on_c, 0, 76, 79
2, 952312, Note_on_c, 0, 68, 84
2, 952340, Note_on_c, 0, 76, 0
2, 952356, Note_on_c, 0, 59, 0
2, 952364, Note_on_c, 0, 68, 0
2, 952388, Note_on_c, 0, 84, 0
2, 952620, Note_on_c, 0, 87, 103
2, 952620, Note_on_c, 0, 59, 83
2, 952620, Note_on_c, 0, 69, 80
2, 952620, Note_on_c, 0, 75, 92
2, 952760, Control_c, 0, 64, 72
2, 952776, Control_c, 0, 64, 0
2, 952848, Control_c, 0, 64, 127
2, 952864, Note_on_c, 0, 75, 0
2, 952964, Note_on_c, 0, 87, 0
2, 952988, Note_on_c, 0, 85, 88
2, 953092, Note_on_c, 0, 85, 0
2, 953100, Note_on_c, 0, 81, 84
2, 953144, Note_on_c, 0, 81, 0
2, 953192, Note_on_c, 0, 78, 89
2, 953196, Note_on_c, 0, 69, 0
2, 953200, Note_on_c, 0, 59, 0
2, 953296, Note_on_c, 0, 75, 85
2, 953300, Note_on_c, 0, 78, 0
2, 953400, Note_on_c, 0, 73, 80
2, 953424, Note_on_c, 0, 75, 0
2, 953504, Note_on_c, 0, 69, 82
2, 953508, Note_on_c, 0, 73, 0
2, 953564, Note_on_c, 0, 69, 0
2, 953608, Note_on_c, 0, 66, 81
2, 953704, Note_on_c, 0, 66, 0
2, 953712, Note_on_c, 0, 63, 79
2, 953816, Note_on_c, 0, 61, 79
2, 953816, Control_c, 0, 64, 0
2, 953836, Note_on_c, 0, 63, 0
2, 953912, Note_on_c, 0, 59, 79
2, 953948, Note_on_c, 0, 61, 0
2, 954000, Note_on_c, 0, 59, 0
2, 954016, Note_on_c, 0, 57, 78
2, 954104, Note_on_c, 0, 57, 0
2, 954124, Note_on_c, 0, 54, 78
2, 954124, Note_on_c, 0, 66, 85
2, 954124, Note_on_c, 0, 63, 74
2, 954124, Note_on_c, 0, 59, 73
2, 954124, Note_on_c, 0, 47, 74
2, 954124, Note_on_c, 0, 35, 76
2, 954200, Control_c, 0, 64, 72
2, 954212, Note_on_c, 0, 54, 0
2, 954216, Control_c, 0, 64, 0
2, 954228, Note_on_c, 0, 51, 78
2, 954292, Note_on_c, 0, 63, 0
2, 954292, Note_on_c, 0, 47, 0
2, 954292, Note_on_c, 0, 59, 0
2, 954292, Note_on_c, 0, 66, 0
2, 954292, Note_on_c, 0, 35, 0
2, 954316, Note_on_c, 0, 51, 0
2, 954332, Note_on_c, 0, 47, 78
2, 954420, Note_on_c, 0, 47, 0
2, 954436, Note_on_c, 0, 51, 78
2, 954436, Note_on_c, 0, 67, 83
2, 954436, Note_on_c, 0, 63, 74
2, 954436, Note_on_c, 0, 59, 73
2, 954436, Note_on_c, 0, 47, 75
2, 954436, Note_on_c, 0, 35, 75
2, 954524, Note_on_c, 0, 51, 0
2, 954548, Note_on_c, 0, 68, 83
2, 954556, Note_on_c, 0, 40, 73
2, 954556, Note_on_c, 0, 52, 76
2, 954560, Note_on_c, 0, 59, 68
2, 954568, Note_on_c, 0, 64, 70
2, 954584, Note_on_c, 0, 40, 0
2, 954592, Note_on_c, 0, 59, 0
2, 954600, Note_on_c, 0, 64, 0
2, 954600, Note_on_c, 0, 52, 0
2, 954604, Note_on_c, 0, 35, 0
2, 954604, Note_on_c, 0, 67, 0
2, 954604, Note_on_c, 0, 63, 0
2, 954604, Note_on_c, 0, 59, 0
2, 954604, Note_on_c, 0, 47, 0
2, 954620, Note_on_c, 0, 68, 0
2, 954968, Note_on_c, 0, 39, 63
2, 954968, Note_on_c, 0, 64, 76
2, 954968, Note_on_c, 0, 60, 73
2, 954968, Note_on_c, 0, 51, 73
2, 954968, Note_on_c, 0, 68, 80
2, 955004, Note_on_c, 0, 64, 0
2, 955008, Note_on_c, 0, 39, 0
2, 955008, Note_on_c, 0, 60, 0
2, 955020, Note_on_c, 0, 51, 0
2, 955052, Note_on_c, 0, 68, 0
2, 955376, Note_on_c, 0, 68, 82
2, 955376, Note_on_c, 0, 49, 77
2, 955376, Note_on_c, 0, 37, 63
2, 955376, Note_on_c, 0, 61, 67
2, 955376, Note_on_c, 0, 64, 78
2, 955400, Note_on_c, 0, 37, 0
2, 955404, Note_on_c, 0, 49, 0
2, 955408, Note_on_c, 0, 64, 0
2, 955436, Note_on_c, 0, 61, 0
2, 955480, Note_on_c, 0, 68, 0
2, 955708, Note_on_c, 0, 64, 78
2, 955708, Note_on_c, 0, 45, 71
2, 955708, Note_on_c, 0, 61, 67
2, 955708, Note_on_c, 0, 33, 63
2, 955708, Note_on_c, 0, 69, 86
2, 955732, Note_on_c, 0, 45, 0
2, 955740, Note_on_c, 0, 33, 0
2, 955744, Note_on_c, 0, 64, 0
2, 955756, Note_on_c, 0, 61, 0
2, 955764, Note_on_c, 0, 69, 0
2, 955808, Note_on_c, 0, 35, 79
2, 955808, Note_on_c, 0, 59, 75
2, 955808, Note_on_c, 0, 47, 88
2, 955808, Note_on_c, 0, 64, 90
2, 955808, Note_on_c, 0, 68, 85
2, 955832, Note_on_c, 0, 35, 0
2, 955836, Note_on_c, 0, 47, 0
2, 955844, Note_on_c, 0, 59, 0
2, 955872, Note_on_c, 0, 64, 0
2, 955884, Note_on_c, 0, 68, 0
2, 956244, Note_on_c, 0, 66, 82
2, 956244, Note_on_c, 0, 64, 81
2, 956244, Note_on_c, 0, 35, 66
2, 956244, Note_on_c, 0, 47, 67
2, 956244, Note_on_c, 0, 57, 73
2, 956272, Note_on_c, 0, 47, 0
2, 956272, Note_on_c, 0, 35, 0
2, 956296, Note_on_c, 0, 57, 0
2, 956316, Note_on_c, 0, 64, 0
2, 956332, Note_on_c, 0, 66, 0
2, 956668, Note_on_c, 0, 66, 82
2, 956676, Note_on_c, 0, 63, 73
2, 956680, Note_on_c, 0, 57, 66
2, 956684, Note_on_c, 0, 35, 75
2, 956684, Note_on_c, 0, 47, 75
2, 956708, Note_on_c, 0, 47, 0
2, 956708, Note_on_c, 0, 57, 0
2, 956708, Note_on_c, 0, 35, 0
2, 956724, Note_on_c, 0, 63, 0
2, 956732, Note_on_c, 0, 66, 0
2, 956996, Note_on_c, 0, 68, 86
2, 956996, Note_on_c, 0, 56, 78
2, 957000, Note_on_c, 0, 63, 77
2, 957008, Note_on_c, 0, 36, 79
2, 957012, Note_on_c, 0, 48, 70
2, 957036, Note_on_c, 0, 36, 0
2, 957040, Note_on_c, 0, 68, 0
2, 957040, Note_on_c, 0, 48, 0
2, 957048, Note_on_c, 0, 56, 0
2, 957056, Note_on_c, 0, 63, 0
2, 957100, Note_on_c, 0, 66, 92
2, 957100, Note_on_c, 0, 56, 71
2, 957100, Note_on_c, 0, 37, 73
2, 957100, Note_on_c, 0, 61, 78
2, 957100, Note_on_c, 0, 49, 80
2, 957136, Note_on_c, 0, 49, 0
2, 957148, Note_on_c, 0, 37, 0
2, 957160, Note_on_c, 0, 56, 0
2, 957168, Note_on_c, 0, 61, 0
2, 957180, Note_on_c, 0, 66, 0
2, 957508, Note_on_c, 0, 56, 71
2, 957508, Note_on_c, 0, 64, 84
2, 957508, Note_on_c, 0, 52, 75
2, 957508, Note_on_c, 0, 40, 74
2, 957508, Note_on_c, 0, 61, 66
2, 957560, Note_on_c, 0, 40, 0
2, 957564, Note_on_c, 0, 52, 0
2, 957572, Note_on_c, 0, 56, 0
2, 957584, Note_on_c, 0, 61, 0
2, 957592, Note_on_c, 0, 64, 0
2, 957908, Note_on_c, 0, 64, 86
2, 957912, Note_on_c, 0, 61, 64
2, 957920, Note_on_c, 0, 54, 76
2, 957920, Note_on_c, 0, 42, 75
2, 957920, Note_on_c, 0, 59, 72
2, 957956, Note_on_c, 0, 59, 0
2, 957956, Note_on_c, 0, 54, 0
2, 957972, Note_on_c, 0, 42, 0
2, 957988, Note_on_c, 0, 61, 0
2, 957992, Note_on_c, 0, 64, 0
2, 958220, Note_on_c, 0, 30, 74
2, 958224, Note_on_c, 0, 66, 82
2, 958224, Note_on_c, 0, 61, 74
2, 958228, Note_on_c, 0, 42, 77
2, 958228, Note_on_c, 0, 58, 69
2, 958260, Note_on_c, 0, 42, 0
2, 958268, Note_on_c, 0, 30, 0
2, 958276, Note_on_c, 0, 66, 0
2, 958276, Note_on_c, 0, 58, 0
2, 958280, Note_on_c, 0, 61, 0
2, 958336, Note_on_c, 0, 35, 85
2, 958336, Note_on_c, 0, 54, 78
2, 958336, Note_on_c, 0, 59, 83
2, 958336, Note_on_c, 0, 47, 89
2, 958336, Note_on_c, 0, 63, 86
2, 958356, Note_on_c, 0, 47, 0
2, 958368, Note_on_c, 0, 35, 0
2, 958392, Note_on_c, 0, 54, 0
2, 958396, Note_on_c, 0, 63, 0
2, 958408, Note_on_c, 0, 59, 0
2, 958764, Note_on_c, 0, 61, 74
2, 958772, Note_on_c, 0, 54, 68
2, 958772, Note_on_c, 0, 52, 74
2, 958772, Note_on_c, 0, 58, 66
2, 958780, Note_on_c, 0, 37, 73
2, 958780, Note_on_c, 0, 49, 71
2, 958812, Note_on_c, 0, 52, 0
2, 958824, Note_on_c, 0, 54, 0
2, 958824, Note_on_c, 0, 37, 0
2, 958824, Note_on_c, 0, 49, 0
2, 958856, Note_on_c, 0, 61, 0
2, 958856, Note_on_c, 0, 58, 0
2, 959184, Note_on_c, 0, 54, 75
2, 959192, Note_on_c, 0, 59, 86
2, 959196, Note_on_c, 0, 51, 80
2, 959200, Note_on_c, 0, 39, 68
2, 959236, Note_on_c, 0, 54, 0
2, 959240, Note_on_c, 0, 59, 0
2, 959244, Note_on_c, 0, 51, 0
2, 959260, Note_on_c, 0, 39, 0
2, 959524, Note_on_c, 0, 71, 88
2, 959524, Note_on_c, 0, 59, 73
2, 959524, Note_on_c, 0, 47, 50
2, 959524, Note_on_c, 0, 35, 76
2, 959548, Note_on_c, 0, 47, 0
2, 959560, Note_on_c, 0, 35, 0
2, 959568, Note_on_c, 0, 59, 0
2, 959576, Note_on_c, 0, 71, 0
2, 959628, Note_on_c, 0, 68, 86
2, 959632, Note_on_c, 0, 59, 77
2, 959636, Note_on_c, 0, 64, 84
2, 959652, Note_on_c, 0, 52, 82
2, 959664, Note_on_c, 0, 40, 78
2, 959676, Note_on_c, 0, 52, 0
2, 959692, Note_on_c, 0, 40, 0
2, 959696, Note_on_c, 0, 59, 0
2, 959704, Note_on_c, 0, 64, 0
2, 959728, Note_on_c, 0, 68, 0
2, 960028, Note_on_c, 0, 68, 82
2, 960040, Note_on_c, 0, 64, 75
2, 960040, Note_on_c, 0, 60, 78
2, 960040, Note_on_c, 0, 39, 77
2, 960048, Note_on_c, 0, 51, 65
2, 960084, Note_on_c, 0, 64, 0
2, 960088, Note_on_c, 0, 51, 0
2, 960104, Note_on_c, 0, 39, 0
2, 960104, Note_on_c, 0, 60, 0
2, 960140, Note_on_c, 0, 68, 0
2, 960436, Note_on_c, 0, 68, 76
2, 960436, Note_on_c, 0, 64, 83
2, 960440, Note_on_c, 0, 49, 78
2, 960444, Note_on_c, 0, 61, 65
2, 960448, Note_on_c, 0, 37, 76
2, 960488, Note_on_c, 0, 49, 0
2, 960496, Note_on_c, 0, 37, 0
2, 960500, Note_on_c, 0, 64, 0
2, 960512, Note_on_c, 0, 61, 0
2, 960532, Note_on_c, 0, 68, 0
2, 960760, Note_on_c, 0, 69, 83
2, 960760, Note_on_c, 0, 61, 66
2, 960760, Note_on_c, 0, 45, 76
2, 960760, Note_on_c, 0, 33, 78
2, 960768, Note_on_c, 0, 64, 73
2, 960792, Note_on_c, 0, 33, 0
2, 960792, Note_on_c, 0, 45, 0
2, 960796, Note_on_c, 0, 64, 0
2, 960796, Note_on_c, 0, 61, 0
2, 960800, Note_on_c, 0, 69, 0
2, 960856, Note_on_c, 0, 68, 90
2, 960856, Note_on_c, 0, 64, 74
2, 960856, Note_on_c, 0, 59, 71
2, 960856, Note_on_c, 0, 35, 81
2, 960856, Note_on_c, 0, 47, 82
2, 960888, Note_on_c, 0, 35, 0
2, 960892, Note_on_c, 0, 47, 0
2, 960932, Note_on_c, 0, 64, 0
2, 960940, Note_on_c, 0, 59, 0
2, 960952, Note_on_c, 0, 68, 0
2, 961264, Note_on_c, 0, 66, 78
2, 961268, Note_on_c, 0, 64, 77
2, 961272, Note_on_c, 0, 57, 73
2, 961280, Note_on_c, 0, 47, 75
2, 961284, Note_on_c, 0, 35, 77
2, 961316, Note_on_c, 0, 35, 0
2, 961316, Note_on_c, 0, 57, 0
2, 961324, Note_on_c, 0, 47, 0
2, 961340, Note_on_c, 0, 64, 0
2, 961352, Note_on_c, 0, 66, 0
2, 961660, Note_on_c, 0, 66, 85
2, 961668, Note_on_c, 0, 63, 73
2, 961672, Note_on_c, 0, 57, 70
2, 961684, Note_on_c, 0, 35, 77
2, 961684, Note_on_c, 0, 47, 72
2, 961704, Note_on_c, 0, 57, 0
2, 961712, Note_on_c, 0, 35, 0
2, 961712, Note_on_c, 0, 47, 0
2, 961728, Note_on_c, 0, 63, 0
2, 961744, Note_on_c, 0, 66, 0
2, 961964, Note_on_c, 0, 68, 87
2, 961968, Note_on_c, 0, 56, 74
2, 961968, Note_on_c, 0, 63, 75
2, 961988, Note_on_c, 0, 36, 78
2, 962016, Note_on_c, 0, 36, 0
2, 962016, Note_on_c, 0, 68, 0
2, 962016, Note_on_c, 0, 56, 0
2, 962024, Note_on_c, 0, 63, 0
2, 962072, Note_on_c, 0, 66, 91
2, 962080, Note_on_c, 0, 56, 70
2, 962084, Note_on_c, 0, 37, 80
2, 962084, Note_on_c, 0, 61, 73
2, 962084, Note_on_c, 0, 49, 75
2, 962124, Note_on_c, 0, 49, 0
2, 962132, Note_on_c, 0, 37, 0
2, 962168, Note_on_c, 0, 56, 0
2, 962176, Note_on_c, 0, 61, 0
2, 962196, Note_on_c, 0, 66, 0
2, 962480, Note_on_c, 0, 64, 84
2, 962480, Note_on_c, 0, 49, 70
2, 962480, Note_on_c, 0, 37, 77
2, 962480, Note_on_c, 0, 56, 67
2, 962480, Note_on_c, 0, 61, 74
2, 962544, Note_on_c, 0, 37, 0
2, 962544, Note_on_c, 0, 49, 0
2, 962548, Note_on_c, 0, 56, 0
2, 962568, Note_on_c, 0, 64, 0
2, 962576, Note_on_c, 0, 61, 0
2, 962868, Note_on_c, 0, 63, 80
2, 962876, Note_on_c, 0, 58, 67
2, 962880, Note_on_c, 0, 49, 78
2, 962884, Note_on_c, 0, 54, 63
2, 962936, Note_on_c, 0, 49, 0
2, 962940, Note_on_c, 0, 54, 0
2, 962944, Note_on_c, 0, 58, 0
2, 962956, Note_on_c, 0, 63, 0
2, 963184, Note_on_c, 0, 64, 86
2, 963184, Note_on_c, 0, 49, 77
2, 963188, Note_on_c, 0, 58, 61
2, 963192, Note_on_c, 0, 52, 71
2, 963220, Note_on_c, 0, 52, 0
2, 963220, Note_on_c, 0, 49, 0
2, 963224, Note_on_c, 0, 58, 0
2, 963244, Note_on_c, 0, 64, 0
2, 963296, Note_on_c, 0, 66, 90
2, 963308, Note_on_c, 0, 59, 79
2, 963316, Note_on_c, 0, 47, 80
2, 963320, Note_on_c, 0, 52, 76
2, 963360, Note_on_c, 0, 59, 0
2, 963364, Note_on_c, 0, 47, 0
2, 963372, Note_on_c, 0, 66, 0
2, 963392, Note_on_c, 0, 52, 0
2, 963696, Note_on_c, 0, 66, 80
2, 963704, Note_on_c, 0, 59, 76
2, 963704, Note_on_c, 0, 57, 67
2, 963712, Note_on_c, 0, 51, 72
2, 963716, Note_on_c, 0, 47, 78
2, 963776, Note_on_c, 0, 51, 0
2, 963784, Note_on_c, 0, 47, 0
2, 963792, Note_on_c, 0, 57, 0
2, 963792, Note_on_c, 0, 59, 0
2, 963812, Note_on_c, 0, 66, 0
2, 964128, Note_on_c, 0, 64, 78
2, 964128, Note_on_c, 0, 56, 68
2, 964128, Note_on_c, 0, 52, 71
2, 964128, Note_on_c, 0, 40, 74
2, 964364, Note_on_c, 0, 40, 0
2, 964364, Note_on_c, 0, 64, 0
2, 964364, Note_on_c, 0, 56, 0
2, 964364, Note_on_c, 0, 52, 0
2, 964652, Note_on_c, 0, 75, 83
2, 964652, Note_on_c, 0, 66, 66
2, 964652, Note_on_c, 0, 59, 61
2, 964652, Note_on_c, 0, 63, 64
2, 964752, Control_c, 0, 64, 56
2, 964768, Control_c, 0, 64, 88
2, 964780, Control_c, 0, 64, 127
2, 964844, Note_on_c, 0, 59, 0
2, 964876, Note_on_c, 0, 66, 0
2, 964884, Note_on_c, 0, 63, 0
2, 964904, Note_on_c, 0, 75, 0
2, 965116, Note_on_c, 0, 75, 89
2, 965140, Note_on_c, 0, 67, 61
2, 965144, Note_on_c, 0, 61, 53
2, 965148, Note_on_c, 0, 58, 55
2, 965180, Control_c, 0, 64, 72
2, 965192, Control_c, 0, 64, 0
2, 965260, Control_c, 0, 64, 40
2, 965272, Note_on_c, 0, 61, 0
2, 965272, Control_c, 0, 64, 104
2, 965280, Note_on_c, 0, 58, 0
2, 965288, Control_c, 0, 64, 127
2, 965300, Note_on_c, 0, 67, 0
2, 965372, Note_on_c, 0, 75, 0
2, 965544, Note_on_c, 0, 75, 91
2, 965552, Control_c, 0, 64, 56
2, 965560, Note_on_c, 0, 68, 74
2, 965560, Note_on_c, 0, 56, 63
2, 965568, Control_c, 0, 64, 0
2, 965572, Note_on_c, 0, 59, 54
2, 965628, Control_c, 0, 64, 72
2, 965644, Note_on_c, 0, 68, 0
2, 965644, Control_c, 0, 64, 127
2, 965648, Note_on_c, 0, 59, 0
2, 965656, Note_on_c, 0, 56, 0
2, 965668, Note_on_c, 0, 75, 0
2, 965892, Note_on_c, 0, 76, 97
2, 965892, Note_on_c, 0, 68, 78
2, 965908, Note_on_c, 0, 52, 66
2, 965908, Note_on_c, 0, 59, 63
2, 965944, Note_on_c, 0, 68, 0
2, 965948, Note_on_c, 0, 76, 0
2, 965948, Note_on_c, 0, 52, 0
2, 965948, Note_on_c, 0, 59, 0
2, 966008, Note_on_c, 0, 75, 98
2, 966016, Note_on_c, 0, 66, 77
2, 966032, Note_on_c, 0, 59, 57
2, 966032, Control_c, 0, 64, 104
2, 966044, Note_on_c, 0, 54, 62
2, 966044, Control_c, 0, 64, 24
2, 966056, Control_c, 0, 64, 0
2, 966164, Control_c, 0, 64, 40
2, 966176, Control_c, 0, 64, 127
2, 966308, Note_on_c, 0, 54, 0
2, 966320, Note_on_c, 0, 66, 0
2, 966324, Note_on_c, 0, 75, 0
2, 966352, Note_on_c, 0, 59, 0
2, 966492, Note_on_c, 0, 73, 83
2, 966500, Note_on_c, 0, 55, 67
2, 966504, Note_on_c, 0, 64, 73
2, 966512, Note_on_c, 0, 58, 54
2, 966536, Control_c, 0, 64, 104
2, 966548, Control_c, 0, 64, 24
2, 966564, Control_c, 0, 64, 0
2, 966644, Control_c, 0, 64, 72
2, 966652, Control_c, 0, 64, 127
2, 966672, Note_on_c, 0, 64, 0
2, 966712, Note_on_c, 0, 55, 0
2, 966812, Note_on_c, 0, 58, 0
2, 966820, Note_on_c, 0, 73, 0
2, 966908, Control_c, 0, 64, 56
2, 966920, Control_c, 0, 64, 0
2, 966928, Note_on_c, 0, 71, 84
2, 966928, Note_on_c, 0, 63, 68
2, 966928, Note_on_c, 0, 56, 64
2, 966928, Note_on_c, 0, 59, 62
2, 966976, Control_c, 0, 64, 24
2, 966980, Note_on_c, 0, 59, 0
2, 966988, Control_c, 0, 64, 88
2, 966992, Note_on_c, 0, 56, 0
2, 967000, Control_c, 0, 64, 127
2, 967092, Note_on_c, 0, 63, 0
2, 967124, Note_on_c, 0, 71, 0
2, 967216, Note_on_c, 0, 75, 83
2, 967228, Control_c, 0, 64, 72
2, 967244, Control_c, 0, 64, 0
2, 967252, Note_on_c, 0, 73, 88
2, 967252, Note_on_c, 0, 64, 73
2, 967252, Note_on_c, 0, 58, 67
2, 967252, Note_on_c, 0, 49, 74
2, 967288, Note_on_c, 0, 75, 0
2, 967304, Note_on_c, 0, 58, 0
2, 967308, Note_on_c, 0, 49, 0
2, 967316, Note_on_c, 0, 64, 0
2, 967360, Note_on_c, 0, 73, 0
2, 967404, Note_on_c, 0, 71, 88
2, 967404, Note_on_c, 0, 63, 59
2, 967404, Note_on_c, 0, 51, 65
2, 967404, Note_on_c, 0, 56, 63
2, 967532, Control_c, 0, 64, 56
2, 967544, Control_c, 0, 64, 104
2, 967560, Control_c, 0, 64, 127
2, 967640, Note_on_c, 0, 71, 0
2, 967656, Note_on_c, 0, 51, 0
2, 967676, Note_on_c, 0, 63, 0
2, 967736, Note_on_c, 0, 56, 0
2, 967876, Note_on_c, 0, 70, 82
2, 967876, Note_on_c, 0, 55, 68
2, 967876, Note_on_c, 0, 51, 70
2, 967876, Note_on_c, 0, 61, 68
2, 967960, Control_c, 0, 64, 40
2, 967972, Control_c, 0, 64, 0
2, 968052, Control_c, 0, 64, 40
2, 968068, Control_c, 0, 64, 104
2, 968080, Control_c, 0, 64, 127
2, 968084, Note_on_c, 0, 61, 0
2, 968088, Note_on_c, 0, 70, 0
2, 968092, Note_on_c, 0, 51, 0
2, 968116, Note_on_c, 0, 55, 0
2, 968276, Control_c, 0, 64, 104
2, 968292, Control_c, 0, 64, 72
2, 968304, Control_c, 0, 64, 24
2, 968316, Control_c, 0, 64, 0
2, 968332, Note_on_c, 0, 68, 77
2, 968344, Note_on_c, 0, 59, 63
2, 968348, Note_on_c, 0, 56, 56
2, 968352, Note_on_c, 0, 52, 66
2, 968424, Control_c, 0, 64, 24
2, 968432, Note_on_c, 0, 59, 0
2, 968440, Control_c, 0, 64, 88
2, 968452, Control_c, 0, 64, 127
2, 968476, Note_on_c, 0, 52, 0
2, 968484, Note_on_c, 0, 68, 0
2, 968524, Note_on_c, 0, 56, 0
2, 968696, Note_on_c, 0, 73, 85
2, 968708, Note_on_c, 0, 52, 72
2, 968708, Note_on_c, 0, 55, 77
2, 968712, Note_on_c, 0, 64, 64
2, 968740, Note_on_c, 0, 55, 0
2, 968748, Note_on_c, 0, 64, 0
2, 968752, Note_on_c, 0, 73, 0
2, 968772, Note_on_c, 0, 52, 0
2, 968772, Control_c, 0, 64, 56
2, 968784, Control_c, 0, 64, 0
2, 968808, Note_on_c, 0, 70, 87
2, 968816, Note_on_c, 0, 64, 74
2, 968820, Note_on_c, 0, 66, 71
2, 968820, Note_on_c, 0, 54, 83
2, 969228, Note_on_c, 0, 66, 0
2, 969232, Note_on_c, 0, 64, 0
2, 969240, Note_on_c, 0, 54, 0
2, 969256, Note_on_c, 0, 70, 0
2, 969268, Note_on_c, 0, 71, 88
2, 969268, Note_on_c, 0, 54, 72
2, 969268, Note_on_c, 0, 66, 68
2, 969268, Note_on_c, 0, 47, 68
2, 969268, Note_on_c, 0, 63, 74
2, 969396, Note_on_c, 0, 47, 0
2, 969396, Note_on_c, 0, 54, 0
2, 969400, Note_on_c, 0, 71, 0
2, 969400, Note_on_c, 0, 66, 0
2, 969404, Note_on_c, 0, 63, 0
2, 969728, Note_on_c, 0, 71, 85
2, 969728, Note_on_c, 0, 64, 74
2, 969728, Note_on_c, 0, 49, 77
2, 969728, Note_on_c, 0, 54, 69
2, 969728, Note_on_c, 0, 70, 74
2, 969768, Note_on_c, 0, 64, 0
2, 969768, Note_on_c, 0, 71, 0
2, 969772, Note_on_c, 0, 54, 0
2, 969772, Note_on_c, 0, 49, 0
2, 969804, Note_on_c, 0, 70, 0
2, 970072, Note_on_c, 0, 66, 73
2, 970072, Note_on_c, 0, 71, 78
2, 970072, Note_on_c, 0, 51, 79
2, 970072, Note_on_c, 0, 69, 75
2, 970072, Note_on_c, 0, 54, 75
2, 970132, Note_on_c, 0, 54, 0
2, 970132, Note_on_c, 0, 51, 0
2, 970132, Note_on_c, 0, 69, 0
2, 970136, Note_on_c, 0, 71, 0
2, 970136, Note_on_c, 0, 66, 0
2, 970212, Note_on_c, 0, 50, 76
2, 970212, Note_on_c, 0, 80, 90
2, 970212, Note_on_c, 0, 68, 73
2, 970212, Note_on_c, 0, 38, 75
2, 970212, Note_on_c, 0, 71, 79
2, 970212, Note_on_c, 0, 76, 84
2, 970236, Note_on_c, 0, 76, 0
2, 970236, Note_on_c, 0, 71, 0
2, 970240, Note_on_c, 0, 38, 0
2, 970268, Note_on_c, 0, 50, 0
2, 970276, Note_on_c, 0, 80, 0
2, 970280, Note_on_c, 0, 68, 0
2, 970332, Note_on_c, 0, 64, 74
2, 970396, Note_on_c, 0, 64, 0
2, 970452, Note_on_c, 0, 63, 76
2, 970520, Note_on_c, 0, 63, 0
2, 970560, Note_on_c, 0, 64, 79
2, 970624, Note_on_c, 0, 64, 0
2, 970676, Note_on_c, 0, 68, 77
2, 970676, Note_on_c, 0, 49, 73
2, 970676, Note_on_c, 0, 80, 90
2, 970676, Note_on_c, 0, 77, 81
2, 970676, Note_on_c, 0, 73, 73
2, 970676, Note_on_c, 0, 37, 74
2, 970708, Note_on_c, 0, 37, 0
2, 970708, Note_on_c, 0, 77, 0
2, 970724, Note_on_c, 0, 49, 0
2, 970724, Note_on_c, 0, 73, 0
2, 970752, Note_on_c, 0, 80, 0
2, 970752, Note_on_c, 0, 68, 0
2, 970792, Note_on_c, 0, 65, 83
2, 970864, Note_on_c, 0, 65, 0
2, 970908, Note_on_c, 0, 64, 77
2, 970988, Note_on_c, 0, 64, 0
2, 971024, Note_on_c, 0, 65, 78
2, 971060, Note_on_c, 0, 65, 0
2, 971128, Note_on_c, 0, 80, 90
2, 971128, Note_on_c, 0, 47, 76
2, 971128, Note_on_c, 0, 74, 82
2, 971128, Note_on_c, 0, 77, 83
2, 971128, Note_on_c, 0, 60, 81
2, 971128, Note_on_c, 0, 35, 78
2, 971128, Note_on_c, 0, 68, 83
2, 971160, Note_on_c, 0, 74, 0
2, 971164, Note_on_c, 0, 47, 0
2, 971168, Note_on_c, 0, 35, 0
2, 971188, Note_on_c, 0, 68, 0
2, 971192, Note_on_c, 0, 60, 0
2, 971212, Note_on_c, 0, 77, 0
2, 971220, Note_on_c, 0, 80, 0
2, 971248, Note_on_c, 0, 61, 78
2, 971312, Note_on_c, 0, 61, 0
2, 971356, Note_on_c, 0, 63, 73
2, 971428, Note_on_c, 0, 63, 0
2, 971480, Note_on_c, 0, 81, 86
2, 971480, Note_on_c, 0, 69, 75
2, 971480, Note_on_c, 0, 74, 68
2, 971480, Note_on_c, 0, 77, 79
2, 971480, Note_on_c, 0, 65, 78
2, 971480, Note_on_c, 0, 35, 78
2, 971480, Note_on_c, 0, 47, 76
2, 971508, Note_on_c, 0, 74, 0
2, 971508, Note_on_c, 0, 69, 0
2, 971520, Note_on_c, 0, 77, 0
2, 971528, Note_on_c, 0, 81, 0
2, 971556, Note_on_c, 0, 65, 0
2, 971564, Note_on_c, 0, 47, 0
2, 971564, Note_on_c, 0, 35, 0
2, 971592, Note_on_c, 0, 80, 93
2, 971592, Note_on_c, 0, 34, 78
2, 971592, Note_on_c, 0, 68, 89
2, 971592, Note_on_c, 0, 46, 73
2, 971592, Note_on_c, 0, 73, 83
2, 971592, Note_on_c, 0, 78, 71
2, 971616, Note_on_c, 0, 78, 0
2, 971636, Note_on_c, 0, 34, 0
2, 971640, Note_on_c, 0, 46, 0
2, 971652, Note_on_c, 0, 68, 0
2, 971656, Note_on_c, 0, 73, 0
2, 971672, Note_on_c, 0, 80, 0
2, 971708, Note_on_c, 0, 61, 75
2, 971772, Note_on_c, 0, 61, 0
2, 971832, Note_on_c, 0, 60, 66
2, 971872, Note_on_c, 0, 60, 0
2, 971944, Note_on_c, 0, 61, 68
2, 972000, Note_on_c, 0, 61, 0
2, 972044, Note_on_c, 0, 78, 92
2, 972044, Note_on_c, 0, 73, 78
2, 972044, Note_on_c, 0, 33, 78
2, 972044, Note_on_c, 0, 45, 72
2, 972044, Note_on_c, 0, 66, 82
2, 972092, Note_on_c, 0, 33, 0
2, 972100, Note_on_c, 0, 73, 0
2, 972104, Note_on_c, 0, 45, 0
2, 972108, Note_on_c, 0, 78, 0
2, 972112, Note_on_c, 0, 66, 0
2, 972172, Note_on_c, 0, 61, 78
2, 972244, Note_on_c, 0, 61, 0
2, 972276, Note_on_c, 0, 60, 71
2, 972360, Note_on_c, 0, 60, 0
2, 972388, Note_on_c, 0, 61, 72
2, 972412, Note_on_c, 0, 61, 0
2, 972524, Note_on_c, 0, 78, 84
2, 972524, Note_on_c, 0, 66, 77
2, 972524, Note_on_c, 0, 73, 76
2, 972524, Note_on_c, 0, 56, 83
2, 972524, Note_on_c, 0, 44, 73
2, 972524, Note_on_c, 0, 32, 77
2, 972568, Note_on_c, 0, 44, 0
2, 972576, Note_on_c, 0, 32, 0
2, 972580, Note_on_c, 0, 56, 0
2, 972600, Note_on_c, 0, 66, 0
2, 972612, Note_on_c, 0, 78, 0
2, 972616, Note_on_c, 0, 73, 0
2, 972624, Note_on_c, 0, 58, 73
2, 972684, Note_on_c, 0, 58, 0
2, 972732, Note_on_c, 0, 59, 75
2, 972800, Note_on_c, 0, 59, 0
2, 972836, Note_on_c, 0, 80, 89
2, 972836, Note_on_c, 0, 60, 78
2, 972836, Note_on_c, 0, 72, 69
2, 972836, Note_on_c, 0, 68, 68
2, 972836, Note_on_c, 0, 44, 76
2, 972836, Note_on_c, 0, 32, 79
2, 972860, Note_on_c, 0, 72, 0
2, 972876, Note_on_c, 0, 68, 0
2, 972880, Note_on_c, 0, 60, 0
2, 972888, Note_on_c, 0, 80, 0
2, 972920, Note_on_c, 0, 44, 0
2, 972920, Note_on_c, 0, 32, 0
2, 972956, Note_on_c, 0, 78, 91
2, 972956, Note_on_c, 0, 73, 73
2, 972956, Note_on_c, 0, 37, 80
2, 972956, Note_on_c, 0, 49, 77
2, 972956, Note_on_c, 0, 68, 87
2, 972956, Note_on_c, 0, 66, 88
2, 973012, Note_on_c, 0, 73, 0
2, 973016, Note_on_c, 0, 49, 0
2, 973020, Note_on_c, 0, 78, 0
2, 973024, Note_on_c, 0, 68, 0
2, 973028, Note_on_c, 0, 66, 0
2, 973032, Note_on_c, 0, 37, 0
2, 973084, Note_on_c, 0, 56, 78
2, 973148, Note_on_c, 0, 56, 0
2, 973196, Note_on_c, 0, 55, 67
2, 973248, Note_on_c, 0, 55, 0
2, 973288, Note_on_c, 0, 56, 73
2, 973344, Note_on_c, 0, 56, 0
2, 973436, Note_on_c, 0, 76, 85
2, 973436, Note_on_c, 0, 73, 74
2, 973436, Note_on_c, 0, 68, 68
2, 973436, Note_on_c, 0, 40, 78
2, 973436, Note_on_c, 0, 52, 73
2, 973436, Note_on_c, 0, 64, 83
2, 973492, Note_on_c, 0, 68, 0
2, 973492, Note_on_c, 0, 73, 0
2, 973500, Note_on_c, 0, 76, 0
2, 973500, Note_on_c, 0, 64, 0
2, 973528, Note_on_c, 0, 61, 79
2, 973588, Note_on_c, 0, 40, 0
2, 973604, Note_on_c, 0, 61, 0
2, 973640, Note_on_c, 0, 60, 75
2, 973652, Note_on_c, 0, 52, 0
2, 973696, Note_on_c, 0, 60, 0
2, 973744, Note_on_c, 0, 61, 73
2, 973812, Note_on_c, 0, 61, 0
2, 973888, Note_on_c, 0, 76, 94
2, 973888, Note_on_c, 0, 66, 80
2, 973888, Note_on_c, 0, 73, 83
2, 973888, Note_on_c, 0, 54, 73
2, 973888, Note_on_c, 0, 42, 79
2, 973888, Note_on_c, 0, 64, 81
2, 973944, Note_on_c, 0, 66, 0
2, 973960, Note_on_c, 0, 64, 0
2, 973968, Note_on_c, 0, 54, 0
2, 973972, Note_on_c, 0, 76, 0
2, 973976, Note_on_c, 0, 61, 73
2, 973980, Note_on_c, 0, 73, 0
2, 973980, Note_on_c, 0, 42, 0
2, 974052, Note_on_c, 0, 61, 0
2, 974096, Note_on_c, 0, 57, 63
2, 974136, Note_on_c, 0, 57, 0
2, 974220, Note_on_c, 0, 78, 89
2, 974220, Note_on_c, 0, 70, 75
2, 974220, Note_on_c, 0, 58, 77
2, 974220, Note_on_c, 0, 66, 82
2, 974220, Note_on_c, 0, 54, 76
2, 974220, Note_on_c, 0, 42, 79
2, 974256, Note_on_c, 0, 70, 0
2, 974272, Note_on_c, 0, 78, 0
2, 974284, Note_on_c, 0, 58, 0
2, 974304, Note_on_c, 0, 66, 0
2, 974304, Note_on_c, 0, 54, 0
2, 974304, Note_on_c, 0, 42, 0
2, 974328, Note_on_c, 0, 63, 88
2, 974328, Note_on_c, 0, 75, 90
2, 974328, Note_on_c, 0, 66, 73
2, 974328, Note_on_c, 0, 71, 76
2, 974328, Note_on_c, 0, 35, 81
2, 974328, Note_on_c, 0, 47, 77
2, 974372, Note_on_c, 0, 35, 0
2, 974380, Note_on_c, 0, 47, 0
2, 974384, Note_on_c, 0, 66, 0
2, 974388, Note_on_c, 0, 71, 0
2, 974416, Note_on_c, 0, 75, 0
2, 974416, Note_on_c, 0, 63, 0
2, 974436, Note_on_c, 0, 59, 78
2, 974512, Note_on_c, 0, 59, 0
2, 974564, Note_on_c, 0, 58, 73
2, 974636, Note_on_c, 0, 58, 0
2, 974664, Note_on_c, 0, 59, 81
2, 974740, Note_on_c, 0, 59, 0
2, 974764, Note_on_c, 0, 63, 83
2, 974784, Note_on_c, 0, 73, 87
2, 974784, Note_on_c, 0, 61, 85
2, 974784, Note_on_c, 0, 49, 73
2, 974784, Note_on_c, 0, 37, 77
2, 974784, Note_on_c, 0, 70, 79
2, 974844, Note_on_c, 0, 37, 0
2, 974844, Note_on_c, 0, 63, 0
2, 974848, Note_on_c, 0, 49, 0
2, 974860, Note_on_c, 0, 73, 0
2, 974864, Note_on_c, 0, 70, 0
2, 974868, Note_on_c, 0, 61, 0
2, 974888, Note_on_c, 0, 59, 79
2, 974972, Note_on_c, 0, 59, 0
2, 975016, Note_on_c, 0, 58, 78
2, 975088, Note_on_c, 0, 58, 0
2, 975120, Note_on_c, 0, 59, 78
2, 975212, Note_on_c, 0, 59, 0
2, 975248, Note_on_c, 0, 71, 88
2, 975248, Note_on_c, 0, 59, 80
2, 975248, Note_on_c, 0, 51, 73
2, 975248, Note_on_c, 0, 39, 78
2, 975248, Note_on_c, 0, 58, 82
2, 975292, Note_on_c, 0, 59, 0
2, 975312, Note_on_c, 0, 51, 0
2, 975316, Note_on_c, 0, 71, 0
2, 975324, Note_on_c, 0, 58, 0
2, 975324, Note_on_c, 0, 39, 0
2, 975384, Note_on_c, 0, 59, 76
2, 975452, Note_on_c, 0, 59, 0
2, 975492, Note_on_c, 0, 63, 78
2, 975568, Note_on_c, 0, 63, 0
2, 975592, Note_on_c, 0, 83, 95
2, 975592, Note_on_c, 0, 71, 78
2, 975592, Note_on_c, 0, 35, 78
2, 975592, Note_on_c, 0, 47, 73
2, 975592, Note_on_c, 0, 66, 82
2, 975616, Note_on_c, 0, 35, 0
2, 975620, Note_on_c, 0, 47, 0
2, 975624, Note_on_c, 0, 71, 0
2, 975640, Note_on_c, 0, 83, 0
2, 975668, Note_on_c, 0, 66, 0
2, 975712, Note_on_c, 0, 80, 97
2, 975712, Note_on_c, 0, 71, 93
2, 975712, Note_on_c, 0, 52, 72
2, 975712, Note_on_c, 0, 40, 75
2, 975712, Note_on_c, 0, 68, 88
2, 975752, Note_on_c, 0, 40, 0
2, 975756, Note_on_c, 0, 52, 0
2, 975788, Note_on_c, 0, 71, 0
2, 975796, Note_on_c, 0, 68, 0
2, 975804, Note_on_c, 0, 80, 0
2, 975872, Note_on_c, 0, 64, 80
2, 975928, Note_on_c, 0, 64, 0
2, 975984, Note_on_c, 0, 63, 79
2, 976056, Note_on_c, 0, 63, 0
2, 976088, Note_on_c, 0, 64, 84
2, 976144, Note_on_c, 0, 64, 0
2, 976196, Note_on_c, 0, 68, 87
2, 976204, Note_on_c, 0, 80, 94
2, 976204, Note_on_c, 0, 78, 83
2, 976204, Note_on_c, 0, 72, 88
2, 976204, Note_on_c, 0, 38, 78
2, 976204, Note_on_c, 0, 50, 74
2, 976244, Note_on_c, 0, 38, 0
2, 976244, Note_on_c, 0, 72, 0
2, 976276, Note_on_c, 0, 68, 0
2, 976280, Note_on_c, 0, 78, 0
2, 976284, Note_on_c, 0, 50, 0
2, 976300, Note_on_c, 0, 80, 0
2, 976316, Note_on_c, 0, 66, 83
2, 976400, Note_on_c, 0, 66, 0
2, 976420, Note_on_c, 0, 65, 84
2, 976492, Note_on_c, 0, 65, 0
2, 976528, Note_on_c, 0, 66, 82
2, 976616, Note_on_c, 0, 66, 0
2, 976660, Note_on_c, 0, 71, 92
2, 976676, Note_on_c, 0, 83, 106
2, 976676, Note_on_c, 0, 49, 77
2, 976676, Note_on_c, 0, 37, 78
2, 976676, Note_on_c, 0, 77, 95
2, 976676, Note_on_c, 0, 56, 73
2, 976728, Note_on_c, 0, 37, 0
2, 976728, Note_on_c, 0, 49, 0
2, 976748, Note_on_c, 0, 71, 0
2, 976760, Note_on_c, 0, 56, 0
2, 976772, Note_on_c, 0, 77, 0
2, 976780, Note_on_c, 0, 83, 0
2, 976780, Note_on_c, 0, 64, 81
2, 976848, Note_on_c, 0, 64, 0
2, 976900, Note_on_c, 0, 65, 81
2, 976960, Note_on_c, 0, 65, 0
2, 977008, Note_on_c, 0, 81, 91
2, 977008, Note_on_c, 0, 69, 92
2, 977008, Note_on_c, 0, 77, 79
2, 977008, Note_on_c, 0, 37, 79
2, 977008, Note_on_c, 0, 49, 77
2, 977008, Note_on_c, 0, 59, 75
2, 977028, Note_on_c, 0, 77, 0
2, 977060, Note_on_c, 0, 81, 0
2, 977064, Note_on_c, 0, 69, 0
2, 977092, Note_on_c, 0, 37, 0
2, 977092, Note_on_c, 0, 59, 0
2, 977092, Note_on_c, 0, 49, 0
2, 977136, Note_on_c, 0, 80, 92
2, 977136, Note_on_c, 0, 73, 79
2, 977136, Note_on_c, 0, 57, 78
2, 977136, Note_on_c, 0, 42, 78
2, 977136, Note_on_c, 0, 54, 73
2, 977136, Note_on_c, 0, 68, 92
2, 977180, Note_on_c, 0, 57, 0
2, 977208, Note_on_c, 0, 54, 0
2, 977208, Note_on_c, 0, 42, 0
2, 977240, Note_on_c, 0, 68, 0
2, 977272, Note_on_c, 0, 61, 73
2, 977296, Note_on_c, 0, 73, 0
2, 977312, Note_on_c, 0, 80, 0
2, 977344, Note_on_c, 0, 61, 0
2, 977392, Note_on_c, 0, 60, 72
2, 977460, Note_on_c, 0, 60, 0
2, 977496, Note_on_c, 0, 61, 78
2, 977568, Note_on_c, 0, 61, 0
2, 977596, Note_on_c, 0, 78, 88
2, 977596, Note_on_c, 0, 52, 78
2, 977596, Note_on_c, 0, 40, 81
2, 977596, Note_on_c, 0, 66, 87
2, 977596, Note_on_c, 0, 73, 76
2, 977596, Note_on_c, 0, 58, 78
2, 977652, Note_on_c, 0, 73, 0
2, 977652, Note_on_c, 0, 52, 0
2, 977664, Note_on_c, 0, 40, 0
2, 977680, Note_on_c, 0, 78, 0
2, 977680, Note_on_c, 0, 66, 0
2, 977680, Note_on_c, 0, 58, 0
2, 977744, Note_on_c, 0, 58, 77
2, 977820, Note_on_c, 0, 58, 0
2, 977860, Note_on_c, 0, 57, 73
2, 977924, Note_on_c, 0, 57, 0
2, 977964, Note_on_c, 0, 58, 77
2, 978016, Note_on_c, 0, 58, 0
2, 978068, Note_on_c, 0, 81, 103
2, 978068, Note_on_c, 0, 51, 71
2, 978068, Note_on_c, 0, 39, 75
2, 978068, Note_on_c, 0, 71, 87
2, 978068, Note_on_c, 0, 69, 93
2, 978128, Note_on_c, 0, 69, 0
2, 978128, Note_on_c, 0, 51, 0
2, 978144, Note_on_c, 0, 39, 0
2, 978160, Note_on_c, 0, 81, 0
2, 978184, Note_on_c, 0, 71, 0
2, 978196, Note_on_c, 0, 58, 85
2, 978256, Note_on_c, 0, 58, 0
2, 978304, Note_on_c, 0, 59, 78
2, 978372, Note_on_c, 0, 59, 0
2, 978444, Note_on_c, 0, 80, 96
2, 978444, Note_on_c, 0, 71, 55
2, 978444, Note_on_c, 0, 51, 75
2, 978444, Note_on_c, 0, 39, 77
2, 978444, Note_on_c, 0, 68, 87
2, 978468, Note_on_c, 0, 71, 0
2, 978488, Note_on_c, 0, 39, 0
2, 978488, Note_on_c, 0, 51, 0
2, 978496, Note_on_c, 0, 80, 0
2, 978512, Note_on_c, 0, 68, 0
2, 978560, Note_on_c, 0, 78, 94
2, 978560, Note_on_c, 0, 38, 76
2, 978560, Note_on_c, 0, 71, 83
2, 978560, Note_on_c, 0, 68, 71
2, 978560, Note_on_c, 0, 50, 73
2, 978560, Note_on_c, 0, 66, 88
2, 978604, Note_on_c, 0, 38, 0
2, 978628, Note_on_c, 0, 66, 0
2, 978640, Note_on_c, 0, 50, 0
2, 978664, Note_on_c, 0, 78, 0
2, 978664, Note_on_c, 0, 68, 0
2, 978672, Note_on_c, 0, 71, 0
2, 978672, Note_on_c, 0, 56, 87
2, 978736, Note_on_c, 0, 56, 0
2, 978784, Note_on_c, 0, 55, 78
2, 978848, Note_on_c, 0, 55, 0
2, 978876, Note_on_c, 0, 56, 86
2, 978944, Note_on_c, 0, 56, 0
2, 979016, Note_on_c, 0, 57, 72
2, 979016, Note_on_c, 0, 76, 97
2, 979016, Note_on_c, 0, 69, 78
2, 979016, Note_on_c, 0, 49, 73
2, 979016, Note_on_c, 0, 37, 78
2, 979016, Note_on_c, 0, 64, 82
2, 979072, Note_on_c, 0, 49, 0
2, 979076, Note_on_c, 0, 37, 0
2, 979092, Note_on_c, 0, 64, 0
2, 979120, Note_on_c, 0, 76, 0
2, 979120, Note_on_c, 0, 61, 75
2, 979136, Note_on_c, 0, 69, 0
2, 979140, Note_on_c, 0, 57, 0
2, 979172, Note_on_c, 0, 61, 0
2, 979232, Note_on_c, 0, 56, 84
2, 979300, Note_on_c, 0, 56, 0
2, 979344, Note_on_c, 0, 57, 78
2, 979408, Note_on_c, 0, 57, 0
2, 979456, Note_on_c, 0, 63, 82
2, 979464, Note_on_c, 0, 75, 94
2, 979464, Note_on_c, 0, 48, 78
2, 979464, Note_on_c, 0, 70, 79
2, 979464, Note_on_c, 0, 36, 79
2, 979464, Note_on_c, 0, 57, 68
2, 979516, Note_on_c, 0, 36, 0
2, 979524, Note_on_c, 0, 48, 0
2, 979528, Note_on_c, 0, 63, 0
2, 979532, Note_on_c, 0, 57, 0
2, 979576, Note_on_c, 0, 58, 83
2, 979628, Note_on_c, 0, 70, 0
2, 979628, Note_on_c, 0, 75, 0
2, 979652, Note_on_c, 0, 58, 0
2, 979696, Note_on_c, 0, 63, 83
2, 979780, Note_on_c, 0, 63, 0
2, 979820, Note_on_c, 0, 76, 96
2, 979820, Note_on_c, 0, 70, 79
2, 979820, Note_on_c, 0, 64, 85
2, 979820, Note_on_c, 0, 48, 77
2, 979820, Note_on_c, 0, 36, 79
2, 979868, Note_on_c, 0, 70, 0
2, 979872, Note_on_c, 0, 76, 0
2, 979872, Note_on_c, 0, 64, 0
2, 979904, Note_on_c, 0, 48, 0
2, 979904, Note_on_c, 0, 36, 0
2, 979952, Note_on_c, 0, 47, 73
2, 979952, Note_on_c, 0, 69, 83
2, 979952, Note_on_c, 0, 78, 97
2, 979952, Note_on_c, 0, 76, 82
2, 979952, Note_on_c, 0, 35, 77
2, 979952, Note_on_c, 0, 64, 77
2, 979952, Note_on_c, 0, 66, 88
2, 979988, Note_on_c, 0, 47, 0
2, 980000, Note_on_c, 0, 35, 0
2, 980024, Note_on_c, 0, 64, 0
2, 980040, Note_on_c, 0, 76, 0
2, 980044, Note_on_c, 0, 59, 78
2, 980052, Note_on_c, 0, 66, 0
2, 980076, Note_on_c, 0, 69, 0
2, 980080, Note_on_c, 0, 78, 0
2, 980112, Note_on_c, 0, 59, 0
2, 980152, Note_on_c, 0, 58, 76
2, 980224, Note_on_c, 0, 58, 0
2, 980268, Note_on_c, 0, 59, 78
2, 980332, Note_on_c, 0, 59, 0
2, 980412, Note_on_c, 0, 78, 92
2, 980412, Note_on_c, 0, 47, 74
2, 980412, Note_on_c, 0, 35, 79
2, 980412, Note_on_c, 0, 63, 79
2, 980412, Note_on_c, 0, 66, 85
2, 980412, Note_on_c, 0, 69, 88
2, 980412, Note_on_c, 0, 75, 82
2, 980460, Note_on_c, 0, 47, 0
2, 980468, Note_on_c, 0, 35, 0
2, 980488, Note_on_c, 0, 69, 0
2, 980492, Note_on_c, 0, 63, 0
2, 980496, Note_on_c, 0, 66, 0
2, 980496, Note_on_c, 0, 75, 0
2, 980500, Note_on_c, 0, 57, 76
2, 980508, Note_on_c, 0, 78, 0
2, 980572, Note_on_c, 0, 57, 0
2, 980616, Note_on_c, 0, 56, 79
2, 980688, Note_on_c, 0, 56, 0
2, 980728, Note_on_c, 0, 57, 81
2, 980788, Note_on_c, 0, 57, 0
2, 980860, Note_on_c, 0, 64, 88
2, 980864, Note_on_c, 0, 76, 89
2, 980864, Note_on_c, 0, 56, 68
2, 980864, Note_on_c, 0, 68, 70
2, 980864, Note_on_c, 0, 52, 78
2, 980864, Note_on_c, 0, 71, 76
2, 980864, Note_on_c, 0, 40, 82
2, 980928, Control_c, 0, 64, 56
2, 980936, Note_on_c, 0, 52, 0
2, 980940, Note_on_c, 0, 40, 0
2, 980940, Control_c, 0, 64, 127
2, 980980, Note_on_c, 0, 56, 0
2, 981004, Note_on_c, 0, 64, 0
2, 981088, Note_on_c, 0, 71, 0
2, 981100, Note_on_c, 0, 68, 0
2, 981104, Note_on_c, 0, 76, 0
2, 981208, Note_on_c, 0, 66, 90
2, 981216, Note_on_c, 0, 54, 75
2, 981216, Note_on_c, 0, 42, 73
2, 981252, Note_on_c, 0, 42, 0
2, 981252, Note_on_c, 0, 54, 0
2, 981280, Note_on_c, 0, 66, 0
2, 981300, Control_c, 0, 64, 56
2, 981308, Note_on_c, 0, 68, 99
2, 981308, Note_on_c, 0, 56, 90
2, 981308, Note_on_c, 0, 44, 86
2, 981316, Control_c, 0, 64, 0
2, 981360, Note_on_c, 0, 44, 0
2, 981376, Note_on_c, 0, 56, 0
2, 981396, Control_c, 0, 64, 56
2, 981412, Control_c, 0, 64, 127
2, 981440, Note_on_c, 0, 68, 0
2, 981748, Note_on_c, 0, 68, 101
2, 981748, Note_on_c, 0, 56, 85
2, 981748, Note_on_c, 0, 44, 78
2, 981748, Control_c, 0, 64, 104
2, 981760, Control_c, 0, 64, 24
2, 981772, Control_c, 0, 64, 0
2, 981816, Control_c, 0, 64, 56
2, 981832, Note_on_c, 0, 44, 0
2, 981832, Control_c, 0, 64, 127
2, 981868, Note_on_c, 0, 56, 0
2, 982056, Note_on_c, 0, 68, 0
2, 982188, Note_on_c, 0, 61, 76
2, 982188, Note_on_c, 0, 73, 100
2, 982188, Note_on_c, 0, 56, 78
2, 982196, Note_on_c, 0, 58, 77
2, 982196, Control_c, 0, 64, 40
2, 982200, Note_on_c, 0, 68, 83
2, 982208, Note_on_c, 0, 70, 77
2, 982208, Control_c, 0, 64, 0
2, 982232, Note_on_c, 0, 70, 0
2, 982240, Note_on_c, 0, 56, 0
2, 982244, Note_on_c, 0, 58, 0
2, 982248, Note_on_c, 0, 61, 0
2, 982248, Control_c, 0, 64, 56
2, 982252, Note_on_c, 0, 68, 0
2, 982264, Control_c, 0, 64, 127
2, 982280, Note_on_c, 0, 73, 0
2, 982516, Note_on_c, 0, 76, 99
2, 982520, Note_on_c, 0, 73, 82
2, 982520, Note_on_c, 0, 68, 78
2, 982520, Note_on_c, 0, 61, 73
2, 982524, Note_on_c, 0, 64, 78
2, 982528, Note_on_c, 0, 56, 68
2, 982552, Note_on_c, 0, 56, 0
2, 982552, Note_on_c, 0, 64, 0
2, 982564, Note_on_c, 0, 76, 0
2, 982568, Note_on_c, 0, 68, 0
2, 982572, Note_on_c, 0, 73, 0
2, 982572, Note_on_c, 0, 61, 0
2, 982584, Control_c, 0, 64, 56
2, 982596, Control_c, 0, 64, 0
2, 982608, Note_on_c, 0, 75, 105
2, 982608, Note_on_c, 0, 56, 78
2, 982608, Note_on_c, 0, 63, 78
2, 982608, Note_on_c, 0, 71, 81
2, 982608, Note_on_c, 0, 68, 73
2, 982608, Note_on_c, 0, 59, 76
2, 982708, Control_c, 0, 64, 88
2, 982724, Note_on_c, 0, 68, 0
2, 982724, Control_c, 0, 64, 127
2, 982728, Note_on_c, 0, 56, 0
2, 982732, Note_on_c, 0, 71, 0
2, 982736, Note_on_c, 0, 63, 0
2, 982744, Note_on_c, 0, 59, 0
2, 982796, Note_on_c, 0, 75, 0
2, 983016, Note_on_c, 0, 68, 98
2, 983048, Note_on_c, 0, 56, 82
2, 983092, Note_on_c, 0, 68, 0
2, 983268, Control_c, 0, 64, 104
2, 983280, Control_c, 0, 64, 0
2, 983284, Note_on_c, 0, 80, 114
2, 983296, Note_on_c, 0, 68, 88
2, 983352, Note_on_c, 0, 68, 0
2, 983364, Control_c, 0, 64, 88
2, 983380, Control_c, 0, 64, 127
2, 983388, Note_on_c, 0, 56, 0
2, 983688, Note_on_c, 0, 62, 81
2, 983692, Note_on_c, 0, 56, 68
2, 983692, Note_on_c, 0, 59, 68
2, 983700, Note_on_c, 0, 53, 72
2, 983700, Control_c, 0, 64, 72
2, 983712, Control_c, 0, 64, 0
2, 983744, Note_on_c, 0, 53, 0
2, 983756, Note_on_c, 0, 62, 0
2, 983756, Control_c, 0, 64, 72
2, 983768, Control_c, 0, 64, 127
2, 983780, Note_on_c, 0, 59, 0
2, 983792, Note_on_c, 0, 56, 0
2, 983896, Control_c, 0, 64, 72
2, 983908, Control_c, 0, 64, 0
2, 983920, Note_on_c, 0, 56, 72
2, 983924, Note_on_c, 0, 63, 82
2, 983928, Note_on_c, 0, 59, 76
2, 983932, Note_on_c, 0, 51, 77
2, 983992, Control_c, 0, 64, 88
2, 984004, Control_c, 0, 64, 127
2, 984084, Note_on_c, 0, 80, 0
2, 984120, Note_on_c, 0, 51, 0
2, 984120, Note_on_c, 0, 75, 94
2, 984148, Note_on_c, 0, 63, 0
2, 984156, Note_on_c, 0, 59, 0
2, 984156, Note_on_c, 0, 56, 0
2, 984212, Note_on_c, 0, 75, 0
2, 984316, Note_on_c, 0, 87, 111
2, 984368, Control_c, 0, 64, 88
2, 984380, Control_c, 0, 64, 0
2, 984408, Note_on_c, 0, 51, 74
2, 984456, Note_on_c, 0, 58, 73
2, 984468, Control_c, 0, 64, 88
2, 984472, Note_on_c, 0, 51, 0
2, 984480, Control_c, 0, 64, 127
2, 984488, Note_on_c, 0, 61, 73
2, 984564, Note_on_c, 0, 67, 88
2, 984612, Note_on_c, 0, 58, 0
2, 984620, Note_on_c, 0, 87, 0
2, 984676, Note_on_c, 0, 88, 99
2, 984700, Note_on_c, 0, 58, 49
2, 984760, Note_on_c, 0, 88, 0
2, 984784, Note_on_c, 0, 85, 95
2, 984876, Note_on_c, 0, 82, 93
2, 984892, Note_on_c, 0, 85, 0
2, 984964, Note_on_c, 0, 67, 0
2, 984968, Note_on_c, 0, 61, 0
2, 984968, Note_on_c, 0, 82, 0
2, 984976, Note_on_c, 0, 79, 94
2, 984984, Note_on_c, 0, 58, 0
2, 985056, Note_on_c, 0, 79, 0
2, 985076, Note_on_c, 0, 87, 100
2, 985128, Note_on_c, 0, 87, 0
2, 985164, Note_on_c, 0, 80, 98
2, 985164, Control_c, 0, 64, 104
2, 985180, Control_c, 0, 64, 40
2, 985184, Note_on_c, 0, 68, 78
2, 985184, Note_on_c, 0, 63, 73
2, 985192, Control_c, 0, 64, 0
2, 985196, Note_on_c, 0, 59, 67
2, 985200, Note_on_c, 0, 56, 57
2, 985252, Note_on_c, 0, 80, 0
2, 985260, Control_c, 0, 64, 72
2, 985276, Note_on_c, 0, 83, 96
2, 985276, Control_c, 0, 64, 127
2, 985360, Note_on_c, 0, 83, 0
2, 985368, Note_on_c, 0, 80, 88
2, 985464, Note_on_c, 0, 75, 93
2, 985476, Note_on_c, 0, 80, 0
2, 985492, Note_on_c, 0, 68, 0
2, 985536, Note_on_c, 0, 59, 0
2, 985552, Note_on_c, 0, 63, 0
2, 985552, Note_on_c, 0, 75, 0
2, 985564, Note_on_c, 0, 56, 0
2, 985564, Note_on_c, 0, 71, 89
2, 985644, Note_on_c, 0, 71, 0
2, 985660, Note_on_c, 0, 68, 92
2, 985736, Note_on_c, 0, 68, 0
2, 985764, Note_on_c, 0, 56, 89
2, 985824, Note_on_c, 0, 56, 0
2, 985888, Control_c, 0, 64, 88
2, 985904, Control_c, 0, 64, 56
2, 985916, Control_c, 0, 64, 0
2, 986004, Note_on_c, 0, 68, 98
2, 986012, Note_on_c, 0, 56, 88
2, 986012, Note_on_c, 0, 44, 85
2, 986072, Control_c, 0, 64, 72
2, 986076, Note_on_c, 0, 44, 0
2, 986076, Note_on_c, 0, 56, 0
2, 986084, Control_c, 0, 64, 127
2, 986132, Note_on_c, 0, 68, 0
2, 986316, Note_on_c, 0, 70, 91
2, 986328, Note_on_c, 0, 58, 82
2, 986336, Note_on_c, 0, 46, 83
2, 986388, Note_on_c, 0, 46, 0
2, 986388, Note_on_c, 0, 58, 0
2, 986396, Note_on_c, 0, 70, 0
2, 986412, Note_on_c, 0, 71, 103
2, 986440, Note_on_c, 0, 59, 90
2, 986448, Note_on_c, 0, 47, 84
2, 986448, Control_c, 0, 64, 40
2, 986460, Control_c, 0, 64, 0
2, 986560, Control_c, 0, 64, 88
2, 986572, Control_c, 0, 64, 127
2, 986576, Note_on_c, 0, 47, 0
2, 986612, Note_on_c, 0, 59, 0
2, 986616, Note_on_c, 0, 71, 0
2, 986836, Note_on_c, 0, 71, 99
2, 986856, Note_on_c, 0, 59, 81
2, 986864, Note_on_c, 0, 47, 78
2, 986864, Control_c, 0, 64, 56
2, 986876, Control_c, 0, 64, 0
2, 986964, Control_c, 0, 64, 72
2, 986976, Control_c, 0, 64, 127
2, 987044, Note_on_c, 0, 47, 0
2, 987092, Note_on_c, 0, 59, 0
2, 987196, Note_on_c, 0, 71, 0
2, 987292, Note_on_c, 0, 76, 101
2, 987304, Note_on_c, 0, 73, 79
2, 987304, Note_on_c, 0, 61, 75
2, 987304, Note_on_c, 0, 59, 71
2, 987304, Note_on_c, 0, 71, 77
2, 987308, Note_on_c, 0, 64, 78
2, 987312, Control_c, 0, 64, 72
2, 987324, Control_c, 0, 64, 0
2, 987344, Note_on_c, 0, 73, 0
2, 987356, Note_on_c, 0, 71, 0
2, 987368, Note_on_c, 0, 59, 0
2, 987368, Note_on_c, 0, 64, 0
2, 987368, Control_c, 0, 64, 104
2, 987380, Note_on_c, 0, 61, 0
2, 987380, Control_c, 0, 64, 127
2, 987396, Note_on_c, 0, 76, 0
2, 987608, Note_on_c, 0, 80, 97
2, 987616, Note_on_c, 0, 68, 86
2, 987624, Note_on_c, 0, 76, 84
2, 987624, Note_on_c, 0, 59, 76
2, 987628, Note_on_c, 0, 71, 78
2, 987632, Note_on_c, 0, 64, 73
2, 987648, Note_on_c, 0, 76, 0
2, 987652, Note_on_c, 0, 71, 0
2, 987652, Note_on_c, 0, 59, 0
2, 987656, Note_on_c, 0, 64, 0
2, 987664, Note_on_c, 0, 68, 0
2, 987672, Note_on_c, 0, 80, 0
2, 987688, Control_c, 0, 64, 72
2, 987700, Control_c, 0, 64, 0
2, 987712, Note_on_c, 0, 78, 107
2, 987720, Note_on_c, 0, 71, 78
2, 987728, Note_on_c, 0, 63, 76
2, 987728, Note_on_c, 0, 66, 78
2, 987732, Note_on_c, 0, 75, 72
2, 987752, Note_on_c, 0, 59, 78
2, 987772, Note_on_c, 0, 75, 0
2, 987796, Note_on_c, 0, 71, 0
2, 987800, Control_c, 0, 64, 72
2, 987816, Control_c, 0, 64, 127
2, 987832, Note_on_c, 0, 66, 0
2, 987832, Note_on_c, 0, 63, 0
2, 987840, Note_on_c, 0, 59, 0
2, 988068, Note_on_c, 0, 78, 0
2, 988088, Note_on_c, 0, 71, 100
2, 988088, Note_on_c, 0, 59, 80
2, 988184, Note_on_c, 0, 71, 0
2, 988300, Control_c, 0, 64, 104
2, 988316, Control_c, 0, 64, 0
2, 988332, Note_on_c, 0, 83, 115
2, 988348, Note_on_c, 0, 71, 88
2, 988384, Note_on_c, 0, 59, 0
2, 988400, Control_c, 0, 64, 88
2, 988404, Note_on_c, 0, 71, 0
2, 988416, Control_c, 0, 64, 127
2, 988692, Control_c, 0, 64, 88
2, 988704, Note_on_c, 0, 59, 79
2, 988708, Note_on_c, 0, 65, 83
2, 988708, Control_c, 0, 64, 0
2, 988712, Note_on_c, 0, 56, 66
2, 988728, Note_on_c, 0, 62, 65
2, 988748, Control_c, 0, 64, 40
2, 988760, Note_on_c, 0, 62, 0
2, 988764, Control_c, 0, 64, 104
2, 988772, Note_on_c, 0, 65, 0
2, 988776, Note_on_c, 0, 56, 0
2, 988776, Control_c, 0, 64, 127
2, 988832, Note_on_c, 0, 59, 0
2, 988928, Control_c, 0, 64, 104
2, 988944, Control_c, 0, 64, 24
2, 988948, Note_on_c, 0, 83, 0
2, 988948, Note_on_c, 0, 66, 88
2, 988952, Note_on_c, 0, 59, 80
2, 988952, Note_on_c, 0, 63, 79
2, 988956, Note_on_c, 0, 54, 74
2, 988960, Control_c, 0, 64, 0
2, 989016, Control_c, 0, 64, 88
2, 989028, Control_c, 0, 64, 127
2, 989144, Note_on_c, 0, 63, 0
2, 989152, Note_on_c, 0, 78, 106
2, 989176, Note_on_c, 0, 54, 0
2, 989176, Note_on_c, 0, 59, 0
2, 989212, Note_on_c, 0, 66, 0
2, 989256, Note_on_c, 0, 78, 0
2, 989332, Note_on_c, 0, 90, 102
2, 989404, Control_c, 0, 64, 56
2, 989412, Note_on_c, 0, 54, 76
2, 989420, Control_c, 0, 64, 0
2, 989472, Note_on_c, 0, 61, 76
2, 989472, Control_c, 0, 64, 56
2, 989476, Note_on_c, 0, 54, 0
2, 989484, Control_c, 0, 64, 127
2, 989508, Note_on_c, 0, 64, 83
2, 989576, Note_on_c, 0, 70, 87
2, 989576, Note_on_c, 0, 66, 78
2, 989612, Note_on_c, 0, 90, 0
2, 989648, Note_on_c, 0, 92, 98
2, 989724, Note_on_c, 0, 92, 0
2, 989744, Note_on_c, 0, 88, 97
2, 989824, Note_on_c, 0, 66, 0
2, 989840, Note_on_c, 0, 88, 0
2, 989840, Note_on_c, 0, 85, 96
2, 989852, Note_on_c, 0, 64, 0
2, 989912, Note_on_c, 0, 61, 0
2, 989936, Note_on_c, 0, 70, 0
2, 989940, Note_on_c, 0, 85, 0
2, 989948, Note_on_c, 0, 82, 88
2, 990020, Note_on_c, 0, 82, 0
2, 990032, Note_on_c, 0, 90, 95
2, 990128, Note_on_c, 0, 90, 0
2, 990144, Control_c, 0, 64, 88
2, 990152, Note_on_c, 0, 83, 97
2, 990152, Note_on_c, 0, 71, 83
2, 990152, Note_on_c, 0, 59, 78
2, 990152, Note_on_c, 0, 66, 73
2, 990152, Note_on_c, 0, 47, 76
2, 990164, Control_c, 0, 64, 0
2, 990168, Note_on_c, 0, 63, 71
2, 990232, Control_c, 0, 64, 56
2, 990236, Note_on_c, 0, 83, 0
2, 990244, Control_c, 0, 64, 127
2, 990256, Note_on_c, 0, 87, 93
2, 990360, Note_on_c, 0, 83, 91
2, 990380, Note_on_c, 0, 87, 0
2, 990408, Note_on_c, 0, 47, 0
2, 990444, Note_on_c, 0, 83, 0
2, 990448, Note_on_c, 0, 78, 93
2, 990520, Note_on_c, 0, 78, 0
2, 990544, Note_on_c, 0, 71, 0
2, 990556, Note_on_c, 0, 75, 89
2, 990620, Note_on_c, 0, 75, 0
2, 990648, Note_on_c, 0, 78, 96
2, 990736, Note_on_c, 0, 78, 0
2, 990752, Note_on_c, 0, 66, 0
2, 990752, Note_on_c, 0, 59, 0
2, 990752, Note_on_c, 0, 71, 96
2, 990768, Note_on_c, 0, 63, 0
2, 990804, Note_on_c, 0, 71, 0
2, 990820, Control_c, 0, 64, 88
2, 990832, Control_c, 0, 64, 56
2, 990844, Control_c, 0, 64, 24
2, 990860, Control_c, 0, 64, 0
2, 990952, Note_on_c, 0, 69, 85
2, 990952, Note_on_c, 0, 66, 78
2, 990956, Note_on_c, 0, 83, 94
2, 990960, Note_on_c, 0, 75, 85
2, 990960, Note_on_c, 0, 59, 73
2, 990996, Note_on_c, 0, 59, 0
2, 991004, Note_on_c, 0, 75, 0
2, 991008, Note_on_c, 0, 69, 0
2, 991008, Note_on_c, 0, 66, 0
2, 991028, Note_on_c, 0, 83, 0
2, 991188, Note_on_c, 0, 84, 100
2, 991196, Note_on_c, 0, 75, 80
2, 991196, Note_on_c, 0, 69, 79
2, 991196, Note_on_c, 0, 66, 70
2, 991204, Note_on_c, 0, 59, 69
2, 991240, Note_on_c, 0, 75, 0
2, 991252, Note_on_c, 0, 66, 0
2, 991256, Note_on_c, 0, 59, 0
2, 991256, Note_on_c, 0, 69, 0
2, 991260, Note_on_c, 0, 84, 0
2, 991484, Note_on_c, 0, 87, 103
2, 991484, Note_on_c, 0, 69, 70
2, 991484, Note_on_c, 0, 66, 70
2, 991484, Note_on_c, 0, 75, 88
2, 991484, Note_on_c, 0, 59, 75
2, 991516, Control_c, 0, 64, 24
2, 991528, Control_c, 0, 64, 56
2, 991544, Control_c, 0, 64, 104
2, 991556, Control_c, 0, 64, 127
2, 991744, Note_on_c, 0, 87, 0
2, 991816, Note_on_c, 0, 75, 0
2, 991840, Note_on_c, 0, 85, 89
2, 991928, Note_on_c, 0, 85, 0
2, 991948, Note_on_c, 0, 81, 89
2, 992036, Note_on_c, 0, 78, 89
2, 992064, Note_on_c, 0, 81, 0
2, 992124, Note_on_c, 0, 78, 0
2, 992124, Note_on_c, 0, 75, 85
2, 992180, Note_on_c, 0, 75, 0
2, 992216, Note_on_c, 0, 66, 0
2, 992236, Note_on_c, 0, 71, 78
2, 992252, Note_on_c, 0, 69, 0
2, 992304, Note_on_c, 0, 71, 0
2, 992344, Note_on_c, 0, 75, 97
2, 992352, Note_on_c, 0, 70, 82
2, 992364, Note_on_c, 0, 66, 61
2, 992368, Note_on_c, 0, 59, 0
2, 992376, Note_on_c, 0, 69, 61
2, 992404, Note_on_c, 0, 70, 0
2, 992412, Note_on_c, 0, 69, 0
2, 992440, Note_on_c, 0, 75, 0
2, 992440, Note_on_c, 0, 66, 0
2, 992448, Note_on_c, 0, 71, 91
2, 992520, Note_on_c, 0, 71, 0
2, 992556, Note_on_c, 0, 76, 101
2, 992564, Note_on_c, 0, 73, 78
2, 992564, Note_on_c, 0, 64, 72
2, 992576, Note_on_c, 0, 69, 68
2, 992628, Note_on_c, 0, 69, 0
2, 992628, Note_on_c, 0, 73, 0
2, 992636, Note_on_c, 0, 64, 0
2, 992640, Note_on_c, 0, 76, 0
2, 992680, Note_on_c, 0, 71, 86
2, 992764, Note_on_c, 0, 71, 0
2, 992824, Note_on_c, 0, 80, 97
2, 992844, Note_on_c, 0, 69, 68
2, 992852, Note_on_c, 0, 62, 68
2, 992860, Note_on_c, 0, 59, 68
2, 992912, Control_c, 0, 64, 104
2, 992924, Control_c, 0, 64, 24
2, 992940, Control_c, 0, 64, 0
2, 993036, Control_c, 0, 64, 104
2, 993048, Control_c, 0, 64, 127
2, 993096, Note_on_c, 0, 80, 0
2, 993148, Note_on_c, 0, 78, 87
2, 993248, Note_on_c, 0, 75, 88
2, 993272, Note_on_c, 0, 63, 68
2, 993280, Note_on_c, 0, 78, 0
2, 993316, Note_on_c, 0, 62, 0
2, 993344, Note_on_c, 0, 75, 0
2, 993344, Note_on_c, 0, 69, 0
2, 993356, Note_on_c, 0, 71, 87
2, 993376, Note_on_c, 0, 63, 0
2, 993384, Note_on_c, 0, 59, 0
2, 993408, Note_on_c, 0, 71, 0
2, 993460, Note_on_c, 0, 69, 79
2, 993528, Note_on_c, 0, 69, 0
2, 993560, Note_on_c, 0, 66, 78
2, 993640, Note_on_c, 0, 66, 0
2, 993696, Note_on_c, 0, 71, 93
2, 993704, Note_on_c, 0, 63, 67
2, 993760, Control_c, 0, 64, 56
2, 993776, Control_c, 0, 64, 0
2, 993788, Control_c, 0, 64, 40
2, 993796, Note_on_c, 0, 71, 0
2, 993800, Note_on_c, 0, 57, 73
2, 993804, Control_c, 0, 64, 88
2, 993816, Control_c, 0, 64, 127
2, 993824, Note_on_c, 0, 63, 0
2, 993916, Note_on_c, 0, 72, 97
2, 993928, Note_on_c, 0, 54, 70
2, 993928, Note_on_c, 0, 63, 63
2, 993936, Note_on_c, 0, 57, 0
2, 993992, Note_on_c, 0, 63, 0
2, 994016, Note_on_c, 0, 54, 0
2, 994020, Note_on_c, 0, 72, 0
2, 994044, Note_on_c, 0, 51, 71
2, 994112, Note_on_c, 0, 51, 0
2, 994208, Note_on_c, 0, 75, 97
2, 994208, Note_on_c, 0, 63, 68
2, 994208, Note_on_c, 0, 47, 78
2, 994208, Note_on_c, 0, 54, 68
2, 994208, Note_on_c, 0, 57, 68
2, 994208, Note_on_c, 0, 59, 70
2, 994264, Control_c, 0, 64, 104
2, 994276, Control_c, 0, 64, 0
2, 994416, Control_c, 0, 64, 104
2, 994432, Control_c, 0, 64, 127
2, 994472, Note_on_c, 0, 75, 0
2, 994548, Note_on_c, 0, 63, 0
2, 994572, Note_on_c, 0, 73, 87
2, 994680, Note_on_c, 0, 73, 0
2, 994692, Note_on_c, 0, 69, 85
2, 994800, Note_on_c, 0, 66, 84
2, 994816, Note_on_c, 0, 69, 0
2, 994848, Note_on_c, 0, 59, 0
2, 994880, Note_on_c, 0, 66, 0
2, 994888, Note_on_c, 0, 54, 0
2, 994904, Note_on_c, 0, 63, 83
2, 994968, Note_on_c, 0, 63, 0
2, 994976, Note_on_c, 0, 57, 0
2, 995004, Note_on_c, 0, 59, 83
2, 995100, Note_on_c, 0, 59, 0
2, 995120, Note_on_c, 0, 63, 86
2, 995128, Note_on_c, 0, 54, 66
2, 995132, Note_on_c, 0, 58, 66
2, 995140, Note_on_c, 0, 57, 54
2, 995140, Control_c, 0, 64, 88
2, 995156, Control_c, 0, 64, 24
2, 995172, Control_c, 0, 64, 0
2, 995184, Note_on_c, 0, 63, 0
2, 995184, Control_c, 0, 64, 40
2, 995192, Note_on_c, 0, 58, 0
2, 995196, Note_on_c, 0, 47, 0
2, 995200, Control_c, 0, 64, 72
2, 995212, Control_c, 0, 64, 127
2, 995228, Note_on_c, 0, 57, 0
2, 995228, Note_on_c, 0, 59, 82
2, 995268, Note_on_c, 0, 54, 0
2, 995328, Note_on_c, 0, 59, 0
2, 995344, Note_on_c, 0, 64, 93
2, 995364, Note_on_c, 0, 61, 73
2, 995364, Note_on_c, 0, 52, 65
2, 995364, Note_on_c, 0, 57, 54
2, 995364, Control_c, 0, 64, 72
2, 995380, Control_c, 0, 64, 0
2, 995420, Control_c, 0, 64, 24
2, 995432, Control_c, 0, 64, 88
2, 995440, Note_on_c, 0, 61, 0
2, 995444, Note_on_c, 0, 64, 0
2, 995444, Note_on_c, 0, 52, 0
2, 995444, Note_on_c, 0, 57, 0
2, 995448, Control_c, 0, 64, 127
2, 995472, Note_on_c, 0, 59, 76
2, 995572, Note_on_c, 0, 59, 0
2, 995628, Note_on_c, 0, 68, 88
2, 995636, Note_on_c, 0, 57, 66
2, 995648, Note_on_c, 0, 50, 68
2, 995660, Note_on_c, 0, 47, 76
2, 995728, Control_c, 0, 64, 56
2, 995740, Control_c, 0, 64, 0
2, 995840, Control_c, 0, 64, 56
2, 995856, Control_c, 0, 64, 127
2, 995904, Note_on_c, 0, 68, 0
2, 995960, Note_on_c, 0, 66, 84
2, 996060, Control_c, 0, 64, 88
2, 996064, Note_on_c, 0, 63, 83
2, 996072, Note_on_c, 0, 66, 0
2, 996072, Note_on_c, 0, 51, 74
2, 996076, Control_c, 0, 64, 0
2, 996084, Note_on_c, 0, 50, 0
2, 996116, Control_c, 0, 64, 40
2, 996132, Control_c, 0, 64, 104
2, 996148, Control_c, 0, 64, 127
2, 996156, Note_on_c, 0, 63, 0
2, 996176, Note_on_c, 0, 59, 83
2, 996212, Note_on_c, 0, 57, 0
2, 996256, Note_on_c, 0, 59, 0
2, 996276, Note_on_c, 0, 58, 83
2, 996348, Note_on_c, 0, 58, 0
2, 996356, Note_on_c, 0, 51, 0
2, 996360, Note_on_c, 0, 47, 0
2, 996388, Note_on_c, 0, 57, 83
2, 996456, Note_on_c, 0, 57, 0
2, 996532, Note_on_c, 0, 56, 79
2, 996532, Note_on_c, 0, 47, 68
2, 996532, Note_on_c, 0, 40, 76
2, 996568, Control_c, 0, 64, 40
2, 996580, Control_c, 0, 64, 72
2, 996600, Note_on_c, 0, 56, 0
2, 996616, Note_on_c, 0, 47, 0
2, 996628, Control_c, 0, 64, 40
2, 996640, Note_on_c, 0, 59, 80
2, 996640, Control_c, 0, 64, 24
2, 996644, Note_on_c, 0, 52, 70
2, 996648, Control_c, 0, 64, 0
2, 996688, Control_c, 0, 64, 40
2, 996692, Note_on_c, 0, 59, 0
2, 996704, Note_on_c, 0, 52, 0
2, 996712, Control_c, 0, 64, 56
2, 996720, Control_c, 0, 64, 72
2, 996732, Note_on_c, 0, 64, 84
2, 996740, Note_on_c, 0, 56, 71
2, 996760, Note_on_c, 0, 40, 0
2, 996788, Control_c, 0, 64, 56
2, 996792, Note_on_c, 0, 64, 0
2, 996800, Note_on_c, 0, 56, 0
2, 996800, Control_c, 0, 64, 40
2, 996812, Control_c, 0, 64, 24
2, 996820, Control_c, 0, 64, 0
2, 996832, Note_on_c, 0, 68, 77
2, 996836, Note_on_c, 0, 59, 71
2, 996920, Note_on_c, 0, 68, 0
2, 996924, Note_on_c, 0, 59, 0
2, 996944, Note_on_c, 0, 71, 87
2, 996948, Note_on_c, 0, 64, 78
2, 996952, Control_c, 0, 64, 40
2, 996964, Control_c, 0, 64, 72
2, 996972, Control_c, 0, 64, 104
2, 996984, Control_c, 0, 64, 127
2, 996988, Note_on_c, 0, 64, 0
2, 997008, Note_on_c, 0, 71, 0
2, 997048, Note_on_c, 0, 68, 73
2, 997132, Note_on_c, 0, 68, 0
2, 997156, Note_on_c, 0, 64, 74
2, 997228, Note_on_c, 0, 64, 0
2, 997252, Note_on_c, 0, 59, 72
2, 997296, Control_c, 0, 64, 104
2, 997304, Note_on_c, 0, 59, 0
2, 997304, Control_c, 0, 64, 88
2, 997316, Control_c, 0, 64, 56
2, 997324, Control_c, 0, 64, 0
2, 997364, Note_on_c, 0, 56, 76
2, 997372, Note_on_c, 0, 40, 68
2, 997376, Note_on_c, 0, 47, 63
2, 997380, Note_on_c, 0, 52, 63
2, 997388, Control_c, 0, 64, 24
2, 997396, Control_c, 0, 64, 72
2, 997408, Control_c, 0, 64, 104
2, 997416, Control_c, 0, 64, 127
2, 997440, Note_on_c, 0, 56, 0
2, 997464, Note_on_c, 0, 59, 76
2, 997520, Note_on_c, 0, 40, 0
2, 997536, Note_on_c, 0, 59, 0
2, 997540, Note_on_c, 0, 47, 0
2, 997560, Note_on_c, 0, 52, 0
2, 997568, Note_on_c, 0, 56, 78
2, 997632, Note_on_c, 0, 56, 0
2, 997664, Note_on_c, 0, 59, 77
2, 997668, Control_c, 0, 64, 104
2, 997688, Control_c, 0, 64, 88
2, 997696, Control_c, 0, 64, 72
2, 997704, Note_on_c, 0, 59, 0
2, 997704, Control_c, 0, 64, 56
2, 997716, Control_c, 0, 64, 24
2, 997728, Control_c, 0, 64, 0
2, 997776, Note_on_c, 0, 58, 82
2, 997776, Note_on_c, 0, 64, 83
2, 997776, Note_on_c, 0, 42, 71
2, 997776, Note_on_c, 0, 49, 68
2, 997836, Control_c, 0, 64, 40
2, 997844, Note_on_c, 0, 49, 0
2, 997848, Control_c, 0, 64, 72
2, 997860, Control_c, 0, 64, 104
2, 997868, Note_on_c, 0, 42, 0
2, 997868, Control_c, 0, 64, 127
2, 997876, Note_on_c, 0, 61, 82
2, 997880, Note_on_c, 0, 64, 0
2, 997880, Note_on_c, 0, 58, 0
2, 997884, Note_on_c, 0, 52, 71
2, 997920, Note_on_c, 0, 61, 0
2, 997932, Note_on_c, 0, 52, 0
2, 997976, Note_on_c, 0, 64, 89
2, 998032, Note_on_c, 0, 64, 0
2, 998076, Note_on_c, 0, 76, 94
2, 998076, Note_on_c, 0, 58, 68
2, 998076, Note_on_c, 0, 54, 79
2, 998076, Note_on_c, 0, 64, 81
2, 998112, Note_on_c, 0, 58, 0
2, 998116, Note_on_c, 0, 76, 0
2, 998140, Control_c, 0, 64, 104
2, 998152, Control_c, 0, 64, 72
2, 998160, Control_c, 0, 64, 40
2, 998168, Control_c, 0, 64, 0
2, 998180, Note_on_c, 0, 54, 0
2, 998180, Note_on_c, 0, 64, 0
2, 998188, Note_on_c, 0, 75, 91
2, 998188, Note_on_c, 0, 63, 79
2, 998192, Note_on_c, 0, 69, 73
2, 998192, Note_on_c, 0, 71, 74
2, 998196, Note_on_c, 0, 59, 73
2, 998196, Note_on_c, 0, 47, 79
2, 998196, Note_on_c, 0, 54, 68
2, 998260, Control_c, 0, 64, 24
2, 998272, Note_on_c, 0, 75, 0
2, 998272, Control_c, 0, 64, 72
2, 998280, Note_on_c, 0, 69, 0
2, 998280, Control_c, 0, 64, 127
2, 998288, Note_on_c, 0, 47, 0
2, 998292, Note_on_c, 0, 63, 0
2, 998304, Note_on_c, 0, 81, 87
2, 998312, Note_on_c, 0, 59, 0
2, 998316, Note_on_c, 0, 71, 0
2, 998316, Note_on_c, 0, 54, 0
2, 998368, Note_on_c, 0, 81, 0
2, 998404, Note_on_c, 0, 78, 79
2, 998460, Note_on_c, 0, 78, 0
2, 998488, Note_on_c, 0, 75, 86
2, 998552, Note_on_c, 0, 75, 0
2, 998576, Control_c, 0, 64, 72
2, 998584, Control_c, 0, 64, 0
2, 998592, Note_on_c, 0, 71, 83
2, 998608, Note_on_c, 0, 59, 75
2, 998608, Note_on_c, 0, 69, 83
2, 998608, Note_on_c, 0, 66, 66
2, 998672, Note_on_c, 0, 71, 0
2, 998684, Control_c, 0, 64, 24
2, 998688, Note_on_c, 0, 72, 86
2, 998736, Control_c, 0, 64, 0
2, 998744, Note_on_c, 0, 72, 0
2, 998756, Note_on_c, 0, 75, 81
2, 998796, Note_on_c, 0, 73, 86
2, 998812, Note_on_c, 0, 66, 0
2, 998816, Control_c, 0, 64, 24
2, 998820, Note_on_c, 0, 75, 0
2, 998824, Note_on_c, 0, 59, 0
2, 998828, Control_c, 0, 64, 40
2, 998864, Note_on_c, 0, 73, 0
2, 998880, Note_on_c, 0, 69, 85
2, 998896, Control_c, 0, 64, 24
2, 998904, Control_c, 0, 64, 0
2, 998956, Note_on_c, 0, 69, 0
2, 998956, Note_on_c, 0, 69, 0
2, 998984, Note_on_c, 0, 68, 76
2, 998984, Note_on_c, 0, 52, 72
2, 998984, Note_on_c, 0, 59, 73
2, 999016, Control_c, 0, 64, 40
2, 999028, Control_c, 0, 64, 88
2, 999036, Control_c, 0, 64, 127
2, 999040, Note_on_c, 0, 68, 0
2, 999048, Note_on_c, 0, 52, 0
2, 999060, Note_on_c, 0, 59, 0
2, 999088, Note_on_c, 0, 71, 80
2, 999096, Note_on_c, 0, 64, 58
2, 999132, Note_on_c, 0, 64, 0
2, 999136, Note_on_c, 0, 71, 0
2, 999188, Note_on_c, 0, 76, 93
2, 999188, Note_on_c, 0, 68, 65
2, 999232, Note_on_c, 0, 68, 0
2, 999240, Note_on_c, 0, 76, 0
2, 999284, Note_on_c, 0, 80, 89
2, 999288, Note_on_c, 0, 71, 62
2, 999340, Control_c, 0, 64, 72
2, 999348, Control_c, 0, 64, 24
2, 999360, Control_c, 0, 64, 0
2, 999364, Note_on_c, 0, 71, 0
2, 999364, Note_on_c, 0, 80, 0
2, 999388, Note_on_c, 0, 83, 93
2, 999392, Note_on_c, 0, 76, 88
2, 999408, Control_c, 0, 64, 24
2, 999420, Control_c, 0, 64, 88
2, 999428, Note_on_c, 0, 76, 0
2, 999428, Control_c, 0, 64, 127
2, 999460, Note_on_c, 0, 83, 0
2, 999488, Note_on_c, 0, 80, 84
2, 999592, Note_on_c, 0, 76, 83
2, 999648, Note_on_c, 0, 80, 0
2, 999664, Note_on_c, 0, 76, 0
2, 999680, Note_on_c, 0, 71, 83
2, 999728, Note_on_c, 0, 71, 0
2, 999764, Control_c, 0, 64, 88
2, 999772, Control_c, 0, 64, 40
2, 999784, Control_c, 0, 64, 0
2, 999792, Note_on_c, 0, 68, 83
2, 999796, Note_on_c, 0, 64, 69
2, 999800, Note_on_c, 0, 52, 67
2, 999800, Note_on_c, 0, 59, 64
2, 999824, Control_c, 0, 64, 40
2, 999832, Control_c, 0, 64, 88
2, 999844, Control_c, 0, 64, 127
2, 999868, Note_on_c, 0, 68, 0
2, 999892, Note_on_c, 0, 71, 86
2, 999952, Note_on_c, 0, 71, 0
2, 999972, Note_on_c, 0, 52, 0
2, 999984, Note_on_c, 0, 68, 83
2, 1000004, Note_on_c, 0, 59, 0
2, 1000044, Note_on_c, 0, 64, 0
2, 1000056, Note_on_c, 0, 68, 0
2, 1000076, Note_on_c, 0, 71, 88
2, 1000120, Note_on_c, 0, 71, 0
2, 1000156, Control_c, 0, 64, 72
2, 1000164, Control_c, 0, 64, 0
2, 1000188, Note_on_c, 0, 70, 90
2, 1000188, Note_on_c, 0, 54, 71
2, 1000188, Note_on_c, 0, 61, 68
2, 1000188, Note_on_c, 0, 76, 84
2, 1000236, Control_c, 0, 64, 40
2, 1000248, Control_c, 0, 64, 88
2, 1000256, Note_on_c, 0, 54, 0
2, 1000256, Control_c, 0, 64, 127
2, 1000264, Note_on_c, 0, 61, 0
2, 1000276, Note_on_c, 0, 73, 90
2, 1000280, Note_on_c, 0, 70, 0
2, 1000288, Note_on_c, 0, 64, 76
2, 1000292, Note_on_c, 0, 76, 0
2, 1000320, Note_on_c, 0, 73, 0
2, 1000336, Note_on_c, 0, 64, 0
2, 1000380, Note_on_c, 0, 76, 93
2, 1000384, Note_on_c, 0, 66, 74
2, 1000436, Note_on_c, 0, 76, 0
2, 1000440, Note_on_c, 0, 66, 0
2, 1000476, Note_on_c, 0, 88, 99
2, 1000476, Note_on_c, 0, 70, 69
2, 1000476, Note_on_c, 0, 76, 84
2, 1000476, Note_on_c, 0, 54, 86
2, 1000516, Note_on_c, 0, 70, 0
2, 1000528, Note_on_c, 0, 88, 0
2, 1000548, Control_c, 0, 64, 72
2, 1000556, Control_c, 0, 64, 0
2, 1000580, Note_on_c, 0, 76, 0
2, 1000580, Note_on_c, 0, 54, 0
2, 1000588, Note_on_c, 0, 87, 97
2, 1000588, Note_on_c, 0, 59, 77
2, 1000588, Note_on_c, 0, 71, 74
2, 1000588, Note_on_c, 0, 66, 73
2, 1000588, Note_on_c, 0, 83, 68
2, 1000588, Note_on_c, 0, 78, 69
2, 1000588, Note_on_c, 0, 81, 67
2, 1000588, Note_on_c, 0, 75, 81
2, 1000588, Note_on_c, 0, 47, 80
2, 1000624, Note_on_c, 0, 83, 0
2, 1000628, Note_on_c, 0, 78, 0
2, 1000636, Note_on_c, 0, 81, 0
2, 1000640, Control_c, 0, 64, 72
2, 1000648, Control_c, 0, 64, 127
2, 1000668, Note_on_c, 0, 87, 0
2, 1000672, Note_on_c, 0, 59, 0
2, 1000692, Note_on_c, 0, 47, 0
2, 1000692, Note_on_c, 0, 75, 0
2, 1000696, Note_on_c, 0, 93, 100
2, 1000700, Note_on_c, 0, 66, 0
2, 1000712, Note_on_c, 0, 71, 0
2, 1000760, Note_on_c, 0, 93, 0
2, 1000788, Note_on_c, 0, 90, 88
2, 1000860, Note_on_c, 0, 90, 0
2, 1000880, Note_on_c, 0, 87, 90
2, 1000956, Note_on_c, 0, 87, 0
2, 1000972, Control_c, 0, 64, 104
2, 1000980, Control_c, 0, 64, 24
2, 1000988, Note_on_c, 0, 83, 85
2, 1000988, Note_on_c, 0, 78, 67
2, 1000988, Note_on_c, 0, 81, 67
2, 1000988, Note_on_c, 0, 71, 68
2, 1000988, Note_on_c, 0, 59, 76
2, 1000988, Note_on_c, 0, 47, 79
2, 1000992, Control_c, 0, 64, 0
2, 1001032, Control_c, 0, 64, 56
2, 1001040, Control_c, 0, 64, 104
2, 1001052, Control_c, 0, 64, 127
2, 1001056, Note_on_c, 0, 83, 0
2, 1001076, Note_on_c, 0, 84, 91
2, 1001092, Note_on_c, 0, 59, 0
2, 1001092, Note_on_c, 0, 47, 0
2, 1001132, Note_on_c, 0, 84, 0
2, 1001148, Note_on_c, 0, 87, 78
2, 1001172, Note_on_c, 0, 81, 0
2, 1001184, Note_on_c, 0, 85, 91
2, 1001188, Note_on_c, 0, 71, 0
2, 1001192, Note_on_c, 0, 78, 0
2, 1001216, Note_on_c, 0, 87, 0
2, 1001260, Note_on_c, 0, 85, 0
2, 1001280, Note_on_c, 0, 81, 87
2, 1001336, Control_c, 0, 64, 72
2, 1001344, Control_c, 0, 64, 0
2, 1001356, Note_on_c, 0, 81, 0
2, 1001384, Note_on_c, 0, 80, 83
2, 1001388, Note_on_c, 0, 71, 65
2, 1001396, Note_on_c, 0, 64, 73
2, 1001416, Control_c, 0, 64, 40
2, 1001424, Control_c, 0, 64, 88
2, 1001436, Note_on_c, 0, 80, 0
2, 1001436, Control_c, 0, 64, 127
2, 1001448, Note_on_c, 0, 64, 0
2, 1001460, Note_on_c, 0, 71, 0
2, 1001484, Note_on_c, 0, 83, 87
2, 1001492, Note_on_c, 0, 76, 70
2, 1001520, Note_on_c, 0, 76, 0
2, 1001532, Note_on_c, 0, 83, 0
2, 1001580, Note_on_c, 0, 88, 93
2, 1001584, Note_on_c, 0, 80, 69
2, 1001624, Note_on_c, 0, 88, 0
2, 1001632, Note_on_c, 0, 80, 0
2, 1001636, Control_c, 0, 64, 104
2, 1001644, Control_c, 0, 64, 56
2, 1001652, Control_c, 0, 64, 0
2, 1001672, Note_on_c, 0, 92, 91
2, 1001680, Note_on_c, 0, 83, 73
2, 1001716, Control_c, 0, 64, 40
2, 1001724, Control_c, 0, 64, 104
2, 1001736, Note_on_c, 0, 83, 0
2, 1001736, Control_c, 0, 64, 127
2, 1001740, Note_on_c, 0, 92, 0
2, 1001776, Note_on_c, 0, 88, 78
2, 1001780, Note_on_c, 0, 95, 91
2, 1001820, Note_on_c, 0, 88, 0
2, 1001844, Note_on_c, 0, 95, 0
2, 1001868, Note_on_c, 0, 92, 83
2, 1001968, Note_on_c, 0, 88, 78
2, 1001984, Note_on_c, 0, 92, 0
2, 1002040, Note_on_c, 0, 88, 0
2, 1002064, Note_on_c, 0, 83, 66
2, 1002104, Note_on_c, 0, 83, 0
2, 1002164, Note_on_c, 0, 80, 85
2, 1002172, Note_on_c, 0, 76, 60
2, 1002176, Note_on_c, 0, 64, 62
2, 1002180, Note_on_c, 0, 71, 59
2, 1002224, Note_on_c, 0, 80, 0
2, 1002260, Note_on_c, 0, 83, 86
2, 1002316, Note_on_c, 0, 83, 0
2, 1002352, Note_on_c, 0, 76, 0
2, 1002352, Note_on_c, 0, 80, 88
2, 1002376, Note_on_c, 0, 64, 0
2, 1002404, Note_on_c, 0, 71, 0
2, 1002420, Note_on_c, 0, 80, 0
2, 1002444, Note_on_c, 0, 83, 86
2, 1002492, Note_on_c, 0, 83, 0
2, 1002520, Control_c, 0, 64, 72
2, 1002532, Control_c, 0, 64, 0
2, 1002552, Note_on_c, 0, 77, 89
2, 1002552, Note_on_c, 0, 61, 71
2, 1002552, Note_on_c, 0, 68, 69
2, 1002552, Note_on_c, 0, 65, 72
2, 1002552, Note_on_c, 0, 56, 68
2, 1002552, Note_on_c, 0, 49, 70
2, 1002584, Control_c, 0, 64, 24
2, 1002592, Control_c, 0, 64, 88
2, 1002604, Note_on_c, 0, 61, 0
2, 1002604, Control_c, 0, 64, 127
2, 1002616, Note_on_c, 0, 77, 0
2, 1002628, Note_on_c, 0, 68, 0
2, 1002644, Note_on_c, 0, 80, 86
2, 1002644, Note_on_c, 0, 73, 75
2, 1002656, Note_on_c, 0, 65, 0
2, 1002656, Note_on_c, 0, 49, 0
2, 1002656, Note_on_c, 0, 56, 0
2, 1002700, Note_on_c, 0, 73, 0
2, 1002712, Note_on_c, 0, 80, 0
2, 1002748, Note_on_c, 0, 85, 90
2, 1002748, Note_on_c, 0, 77, 76
2, 1002800, Note_on_c, 0, 77, 0
2, 1002812, Note_on_c, 0, 85, 0
2, 1002840, Note_on_c, 0, 89, 98
2, 1002840, Note_on_c, 0, 80, 78
2, 1002840, Note_on_c, 0, 65, 72
2, 1002840, Note_on_c, 0, 61, 70
2, 1002840, Note_on_c, 0, 56, 68
2, 1002840, Note_on_c, 0, 49, 68
2, 1002896, Note_on_c, 0, 89, 0
2, 1002912, Note_on_c, 0, 80, 0
2, 1002944, Note_on_c, 0, 56, 0
2, 1002944, Note_on_c, 0, 61, 0
2, 1002944, Note_on_c, 0, 49, 0
2, 1002944, Note_on_c, 0, 65, 0
2, 1002944, Control_c, 0, 64, 88
2, 1002948, Note_on_c, 0, 90, 94
2, 1002948, Note_on_c, 0, 81, 81
2, 1002948, Note_on_c, 0, 66, 78
2, 1002948, Note_on_c, 0, 61, 71
2, 1002948, Note_on_c, 0, 57, 71
2, 1002948, Note_on_c, 0, 54, 76
2, 1002956, Control_c, 0, 64, 0
2, 1003004, Control_c, 0, 64, 72
2, 1003016, Control_c, 0, 64, 127
2, 1003020, Note_on_c, 0, 81, 0
2, 1003036, Note_on_c, 0, 90, 0
2, 1003044, Note_on_c, 0, 85, 85
2, 1003052, Note_on_c, 0, 57, 0
2, 1003052, Note_on_c, 0, 66, 0
2, 1003052, Note_on_c, 0, 61, 0
2, 1003052, Note_on_c, 0, 54, 0
2, 1003140, Note_on_c, 0, 85, 0
2, 1003152, Note_on_c, 0, 81, 79
2, 1003180, Note_on_c, 0, 81, 0
2, 1003244, Note_on_c, 0, 78, 80
2, 1003308, Note_on_c, 0, 78, 0
2, 1003344, Note_on_c, 0, 73, 80
2, 1003344, Note_on_c, 0, 66, 76
2, 1003344, Note_on_c, 0, 54, 74
2, 1003344, Note_on_c, 0, 61, 66
2, 1003344, Note_on_c, 0, 57, 70
2, 1003356, Control_c, 0, 64, 56
2, 1003368, Control_c, 0, 64, 0
2, 1003396, Control_c, 0, 64, 24
2, 1003408, Control_c, 0, 64, 72
2, 1003416, Control_c, 0, 64, 127
2, 1003428, Note_on_c, 0, 73, 0
2, 1003440, Note_on_c, 0, 78, 82
2, 1003448, Note_on_c, 0, 57, 0
2, 1003504, Note_on_c, 0, 54, 0
2, 1003508, Note_on_c, 0, 78, 0
2, 1003524, Note_on_c, 0, 61, 0
2, 1003532, Note_on_c, 0, 73, 83
2, 1003540, Note_on_c, 0, 66, 0
2, 1003604, Note_on_c, 0, 73, 0
2, 1003628, Note_on_c, 0, 78, 80
2, 1003700, Note_on_c, 0, 78, 0
2, 1003732, Control_c, 0, 64, 104
2, 1003736, Note_on_c, 0, 54, 71
2, 1003736, Note_on_c, 0, 69, 87
2, 1003740, Note_on_c, 0, 61, 71
2, 1003740, Control_c, 0, 64, 40
2, 1003752, Control_c, 0, 64, 0
2, 1003780, Control_c, 0, 64, 40
2, 1003788, Note_on_c, 0, 54, 0
2, 1003792, Control_c, 0, 64, 88
2, 1003800, Control_c, 0, 64, 127
2, 1003812, Note_on_c, 0, 69, 0
2, 1003828, Note_on_c, 0, 73, 82
2, 1003836, Note_on_c, 0, 61, 0
2, 1003856, Note_on_c, 0, 66, 73
2, 1003904, Note_on_c, 0, 66, 0
2, 1003920, Note_on_c, 0, 78, 83
2, 1003936, Note_on_c, 0, 73, 0
2, 1003944, Note_on_c, 0, 69, 68
2, 1003960, Note_on_c, 0, 78, 0
2, 1003984, Note_on_c, 0, 69, 0
2, 1004016, Note_on_c, 0, 81, 92
2, 1004032, Note_on_c, 0, 73, 77
2, 1004092, Note_on_c, 0, 81, 0
2, 1004124, Note_on_c, 0, 85, 90
2, 1004124, Note_on_c, 0, 78, 85
2, 1004124, Control_c, 0, 64, 72
2, 1004132, Control_c, 0, 64, 0
2, 1004164, Control_c, 0, 64, 40
2, 1004176, Control_c, 0, 64, 88
2, 1004184, Control_c, 0, 64, 127
2, 1004200, Note_on_c, 0, 78, 0
2, 1004228, Note_on_c, 0, 81, 84
2, 1004232, Note_on_c, 0, 85, 0
2, 1004252, Note_on_c, 0, 73, 0
2, 1004272, Note_on_c, 0, 81, 0
2, 1004332, Note_on_c, 0, 78, 86
2, 1004388, Note_on_c, 0, 78, 0
2, 1004420, Note_on_c, 0, 73, 83
2, 1004492, Note_on_c, 0, 73, 0
2, 1004516, Note_on_c, 0, 69, 87
2, 1004516, Control_c, 0, 64, 72
2, 1004524, Control_c, 0, 64, 0
2, 1004532, Note_on_c, 0, 61, 63
2, 1004540, Note_on_c, 0, 54, 57
2, 1004584, Control_c, 0, 64, 88
2, 1004596, Control_c, 0, 64, 127
2, 1004600, Note_on_c, 0, 69, 0
2, 1004624, Note_on_c, 0, 73, 79
2, 1004688, Note_on_c, 0, 73, 0
2, 1004716, Note_on_c, 0, 69, 83
2, 1004756, Note_on_c, 0, 54, 0
2, 1004784, Note_on_c, 0, 61, 0
2, 1004800, Note_on_c, 0, 69, 0
2, 1004800, Note_on_c, 0, 73, 79
2, 1004844, Note_on_c, 0, 73, 0
2, 1004880, Control_c, 0, 64, 88
2, 1004888, Control_c, 0, 64, 0
2, 1004908, Note_on_c, 0, 68, 84
2, 1004908, Note_on_c, 0, 52, 72
2, 1004908, Note_on_c, 0, 62, 73
2, 1004908, Note_on_c, 0, 64, 76
2, 1004908, Note_on_c, 0, 59, 76
2, 1004928, Control_c, 0, 64, 40
2, 1004940, Control_c, 0, 64, 104
2, 1004944, Note_on_c, 0, 52, 0
2, 1004948, Note_on_c, 0, 62, 0
2, 1004948, Control_c, 0, 64, 127
2, 1004956, Note_on_c, 0, 68, 0
2, 1004996, Note_on_c, 0, 59, 0
2, 1004996, Note_on_c, 0, 64, 0
2, 1005012, Note_on_c, 0, 71, 78
2, 1005020, Note_on_c, 0, 64, 78
2, 1005060, Note_on_c, 0, 71, 0
2, 1005076, Note_on_c, 0, 64, 0
2, 1005104, Note_on_c, 0, 76, 91
2, 1005116, Note_on_c, 0, 68, 78
2, 1005164, Note_on_c, 0, 76, 0
2, 1005176, Note_on_c, 0, 68, 0
2, 1005196, Note_on_c, 0, 80, 87
2, 1005196, Note_on_c, 0, 71, 76
2, 1005196, Note_on_c, 0, 68, 76
2, 1005196, Note_on_c, 0, 64, 76
2, 1005196, Note_on_c, 0, 59, 76
2, 1005196, Note_on_c, 0, 52, 76
2, 1005228, Note_on_c, 0, 71, 0
2, 1005272, Note_on_c, 0, 80, 0
2, 1005284, Note_on_c, 0, 59, 0
2, 1005284, Note_on_c, 0, 64, 0
2, 1005284, Note_on_c, 0, 52, 0
2, 1005284, Note_on_c, 0, 68, 0
2, 1005304, Note_on_c, 0, 81, 93
2, 1005304, Note_on_c, 0, 69, 84
2, 1005304, Note_on_c, 0, 61, 77
2, 1005304, Note_on_c, 0, 57, 70
2, 1005312, Control_c, 0, 64, 56
2, 1005324, Control_c, 0, 64, 0
2, 1005376, Note_on_c, 0, 81, 0
2, 1005392, Control_c, 0, 64, 56
2, 1005400, Control_c, 0, 64, 127
2, 1005412, Note_on_c, 0, 76, 88
2, 1005444, Note_on_c, 0, 69, 0
2, 1005448, Note_on_c, 0, 57, 0
2, 1005480, Note_on_c, 0, 61, 0
2, 1005480, Note_on_c, 0, 76, 0
2, 1005500, Note_on_c, 0, 73, 84
2, 1005580, Note_on_c, 0, 73, 0
2, 1005592, Note_on_c, 0, 69, 85
2, 1005644, Note_on_c, 0, 69, 0
2, 1005700, Note_on_c, 0, 64, 90
2, 1005700, Note_on_c, 0, 45, 77
2, 1005700, Note_on_c, 0, 49, 66
2, 1005700, Note_on_c, 0, 57, 72
2, 1005700, Note_on_c, 0, 61, 76
2, 1005716, Control_c, 0, 64, 72
2, 1005724, Control_c, 0, 64, 0
2, 1005780, Note_on_c, 0, 64, 0
2, 1005784, Control_c, 0, 64, 72
2, 1005788, Note_on_c, 0, 61, 0
2, 1005796, Note_on_c, 0, 69, 85
2, 1005796, Control_c, 0, 64, 127
2, 1005856, Note_on_c, 0, 69, 0
2, 1005860, Note_on_c, 0, 45, 0
2, 1005892, Note_on_c, 0, 64, 84
2, 1005916, Note_on_c, 0, 49, 0
2, 1005932, Note_on_c, 0, 57, 0
2, 1005956, Note_on_c, 0, 64, 0
2, 1005984, Note_on_c, 0, 69, 86
2, 1006048, Note_on_c, 0, 69, 0
2, 1006068, Control_c, 0, 64, 0
2, 1006088, Note_on_c, 0, 63, 82
2, 1006088, Note_on_c, 0, 54, 72
2, 1006088, Note_on_c, 0, 47, 78
2, 1006088, Note_on_c, 0, 69, 82
2, 1006128, Control_c, 0, 64, 40
2, 1006136, Control_c, 0, 64, 104
2, 1006148, Control_c, 0, 64, 127
2, 1006160, Note_on_c, 0, 47, 0
2, 1006176, Note_on_c, 0, 69, 0
2, 1006176, Note_on_c, 0, 54, 0
2, 1006184, Note_on_c, 0, 66, 80
2, 1006184, Note_on_c, 0, 57, 72
2, 1006188, Note_on_c, 0, 63, 0
2, 1006216, Note_on_c, 0, 57, 0
2, 1006220, Note_on_c, 0, 66, 0
2, 1006292, Note_on_c, 0, 69, 81
2, 1006292, Note_on_c, 0, 59, 74
2, 1006340, Note_on_c, 0, 69, 0
2, 1006344, Note_on_c, 0, 59, 0
2, 1006380, Note_on_c, 0, 81, 93
2, 1006380, Note_on_c, 0, 63, 73
2, 1006380, Note_on_c, 0, 69, 83
2, 1006380, Note_on_c, 0, 47, 78
2, 1006424, Note_on_c, 0, 63, 0
2, 1006432, Note_on_c, 0, 81, 0
2, 1006468, Note_on_c, 0, 69, 0
2, 1006468, Note_on_c, 0, 47, 0
2, 1006468, Control_c, 0, 64, 72
2, 1006480, Control_c, 0, 64, 0
2, 1006488, Note_on_c, 0, 80, 92
2, 1006488, Note_on_c, 0, 76, 69
2, 1006488, Note_on_c, 0, 74, 73
2, 1006488, Note_on_c, 0, 59, 63
2, 1006488, Note_on_c, 0, 64, 70
2, 1006488, Note_on_c, 0, 52, 73
2, 1006488, Note_on_c, 0, 68, 83
2, 1006524, Note_on_c, 0, 74, 0
2, 1006540, Note_on_c, 0, 76, 0
2, 1006560, Control_c, 0, 64, 88
2, 1006572, Control_c, 0, 64, 127
2, 1006576, Note_on_c, 0, 68, 0
2, 1006580, Note_on_c, 0, 52, 0
2, 1006588, Note_on_c, 0, 80, 0
2, 1006596, Note_on_c, 0, 59, 0
2, 1006600, Note_on_c, 0, 86, 88
2, 1006616, Note_on_c, 0, 64, 0
2, 1006660, Note_on_c, 0, 86, 0
2, 1006696, Note_on_c, 0, 83, 84
2, 1006748, Note_on_c, 0, 83, 0
2, 1006780, Note_on_c, 0, 80, 85
2, 1006844, Note_on_c, 0, 80, 0
2, 1006872, Control_c, 0, 64, 88
2, 1006884, Note_on_c, 0, 76, 83
2, 1006884, Note_on_c, 0, 64, 74
2, 1006884, Note_on_c, 0, 71, 71
2, 1006884, Note_on_c, 0, 74, 90
2, 1006884, Note_on_c, 0, 52, 74
2, 1006884, Control_c, 0, 64, 0
2, 1006944, Control_c, 0, 64, 72
2, 1006952, Control_c, 0, 64, 127
2, 1006956, Note_on_c, 0, 76, 0
2, 1006972, Note_on_c, 0, 52, 0
2, 1006980, Note_on_c, 0, 77, 89
2, 1007032, Note_on_c, 0, 77, 0
2, 1007044, Note_on_c, 0, 80, 73
2, 1007068, Note_on_c, 0, 74, 0
2, 1007072, Note_on_c, 0, 71, 0
2, 1007080, Note_on_c, 0, 78, 86
2, 1007088, Note_on_c, 0, 64, 0
2, 1007108, Note_on_c, 0, 80, 0
2, 1007140, Note_on_c, 0, 78, 0
2, 1007172, Note_on_c, 0, 74, 86
2, 1007244, Control_c, 0, 64, 56
2, 1007248, Note_on_c, 0, 74, 0
2, 1007256, Control_c, 0, 64, 0
2, 1007272, Note_on_c, 0, 73, 79
2, 1007272, Note_on_c, 0, 64, 72
2, 1007280, Note_on_c, 0, 57, 63
2, 1007312, Note_on_c, 0, 57, 0
2, 1007312, Control_c, 0, 64, 72
2, 1007324, Note_on_c, 0, 73, 0
2, 1007324, Control_c, 0, 64, 127
2, 1007332, Note_on_c, 0, 64, 0
2, 1007372, Note_on_c, 0, 76, 79
2, 1007380, Note_on_c, 0, 69, 56
2, 1007420, Note_on_c, 0, 69, 0
2, 1007420, Note_on_c, 0, 76, 0
2, 1007464, Note_on_c, 0, 73, 66
2, 1007472, Note_on_c, 0, 81, 83
2, 1007516, Note_on_c, 0, 73, 0
2, 1007516, Control_c, 0, 64, 88
2, 1007524, Note_on_c, 0, 81, 0
2, 1007528, Control_c, 0, 64, 0
2, 1007560, Note_on_c, 0, 85, 86
2, 1007564, Note_on_c, 0, 76, 71
2, 1007576, Control_c, 0, 64, 40
2, 1007588, Control_c, 0, 64, 104
2, 1007596, Control_c, 0, 64, 127
2, 1007624, Note_on_c, 0, 76, 0
2, 1007636, Note_on_c, 0, 85, 0
2, 1007664, Note_on_c, 0, 88, 88
2, 1007668, Note_on_c, 0, 81, 77
2, 1007704, Note_on_c, 0, 81, 0
2, 1007732, Note_on_c, 0, 88, 0
2, 1007756, Note_on_c, 0, 85, 82
2, 1007844, Note_on_c, 0, 85, 0
2, 1007860, Note_on_c, 0, 81, 76
2, 1007928, Note_on_c, 0, 81, 0
2, 1007944, Note_on_c, 0, 76, 87
2, 1007992, Note_on_c, 0, 76, 0
2, 1008044, Note_on_c, 0, 73, 84
2, 1008056, Note_on_c, 0, 69, 59
2, 1008056, Note_on_c, 0, 64, 58
2, 1008064, Note_on_c, 0, 57, 54
2, 1008104, Note_on_c, 0, 73, 0
2, 1008136, Note_on_c, 0, 76, 88
2, 1008164, Note_on_c, 0, 57, 0
2, 1008192, Note_on_c, 0, 76, 0
2, 1008200, Note_on_c, 0, 64, 0
2, 1008236, Note_on_c, 0, 73, 83
2, 1008300, Note_on_c, 0, 73, 0
2, 1008324, Note_on_c, 0, 76, 85
2, 1008360, Note_on_c, 0, 69, 0
2, 1008380, Note_on_c, 0, 76, 0
2, 1008404, Control_c, 0, 64, 88
2, 1008416, Control_c, 0, 64, 0
2, 1008424, Note_on_c, 0, 75, 92
2, 1008424, Note_on_c, 0, 59, 75
2, 1008424, Note_on_c, 0, 66, 67
2, 1008424, Note_on_c, 0, 69, 83
2, 1008424, Note_on_c, 0, 63, 76
2, 1008424, Note_on_c, 0, 47, 76
2, 1008464, Control_c, 0, 64, 56
2, 1008472, Control_c, 0, 64, 127
2, 1008512, Note_on_c, 0, 47, 0
2, 1008512, Note_on_c, 0, 69, 0
2, 1008512, Note_on_c, 0, 63, 0
2, 1008516, Note_on_c, 0, 59, 0
2, 1008516, Note_on_c, 0, 66, 0
2, 1008516, Note_on_c, 0, 78, 87
2, 1008524, Note_on_c, 0, 75, 0
2, 1008532, Note_on_c, 0, 69, 76
2, 1008564, Note_on_c, 0, 78, 0
2, 1008576, Note_on_c, 0, 69, 0
2, 1008612, Note_on_c, 0, 71, 72
2, 1008628, Note_on_c, 0, 81, 88
2, 1008672, Note_on_c, 0, 81, 0
2, 1008672, Note_on_c, 0, 71, 0
2, 1008716, Note_on_c, 0, 93, 106
2, 1008716, Note_on_c, 0, 75, 78
2, 1008716, Note_on_c, 0, 47, 76
2, 1008716, Note_on_c, 0, 59, 76
2, 1008716, Note_on_c, 0, 63, 76
2, 1008716, Note_on_c, 0, 69, 83
2, 1008768, Note_on_c, 0, 75, 0
2, 1008772, Note_on_c, 0, 93, 0
2, 1008804, Note_on_c, 0, 63, 0
2, 1008804, Note_on_c, 0, 59, 0
2, 1008804, Note_on_c, 0, 69, 0
2, 1008804, Note_on_c, 0, 47, 0
2, 1008832, Note_on_c, 0, 92, 97
2, 1008832, Note_on_c, 0, 64, 78
2, 1008832, Note_on_c, 0, 76, 81
2, 1008832, Note_on_c, 0, 88, 73
2, 1008832, Note_on_c, 0, 86, 78
2, 1008832, Note_on_c, 0, 68, 83
2, 1008832, Note_on_c, 0, 52, 76
2, 1008832, Control_c, 0, 64, 40
2, 1008844, Control_c, 0, 64, 0
2, 1008852, Note_on_c, 0, 71, 68
2, 1008888, Note_on_c, 0, 86, 0
2, 1008896, Note_on_c, 0, 88, 0
2, 1008908, Control_c, 0, 64, 88
2, 1008916, Note_on_c, 0, 92, 0
2, 1008916, Control_c, 0, 64, 127
2, 1008920, Note_on_c, 0, 68, 0
2, 1008920, Note_on_c, 0, 64, 0
2, 1008920, Note_on_c, 0, 52, 0
2, 1008944, Note_on_c, 0, 71, 0
2, 1008952, Note_on_c, 0, 98, 94
2, 1008968, Note_on_c, 0, 76, 0
2, 1009016, Note_on_c, 0, 98, 0
2, 1009044, Note_on_c, 0, 95, 88
2, 1009108, Note_on_c, 0, 95, 0
2, 1009128, Note_on_c, 0, 92, 90
2, 1009196, Note_on_c, 0, 92, 0
2, 1009232, Note_on_c, 0, 88, 88
2, 1009232, Note_on_c, 0, 76, 76
2, 1009232, Note_on_c, 0, 83, 75
2, 1009232, Note_on_c, 0, 86, 74
2, 1009232, Note_on_c, 0, 64, 83
2, 1009232, Note_on_c, 0, 52, 78
2, 1009240, Control_c, 0, 64, 56
2, 1009248, Control_c, 0, 64, 0
2, 1009288, Control_c, 0, 64, 56
2, 1009300, Control_c, 0, 64, 104
2, 1009308, Control_c, 0, 64, 127
2, 1009312, Note_on_c, 0, 88, 0
2, 1009320, Note_on_c, 0, 64, 0
2, 1009320, Note_on_c, 0, 52, 0
2, 1009328, Note_on_c, 0, 89, 93
2, 1009396, Note_on_c, 0, 89, 0
2, 1009396, Note_on_c, 0, 86, 0
2, 1009404, Note_on_c, 0, 92, 84
2, 1009416, Note_on_c, 0, 83, 0
2, 1009420, Note_on_c, 0, 76, 0
2, 1009448, Note_on_c, 0, 90, 83
2, 1009476, Note_on_c, 0, 92, 0
2, 1009516, Note_on_c, 0, 90, 0
2, 1009532, Note_on_c, 0, 86, 89
2, 1009552, Control_c, 0, 64, 104
2, 1009560, Control_c, 0, 64, 56
2, 1009572, Control_c, 0, 64, 0
2, 1009596, Note_on_c, 0, 86, 0
2, 1009624, Note_on_c, 0, 76, 75
2, 1009624, Note_on_c, 0, 85, 83
2, 1009624, Note_on_c, 0, 69, 73
2, 1009632, Control_c, 0, 64, 40
2, 1009644, Control_c, 0, 64, 104
2, 1009652, Control_c, 0, 64, 127
2, 1009664, Note_on_c, 0, 69, 0
2, 1009676, Note_on_c, 0, 85, 0
2, 1009684, Note_on_c, 0, 76, 0
2, 1009724, Note_on_c, 0, 88, 84
2, 1009744, Note_on_c, 0, 81, 56
2, 1009772, Note_on_c, 0, 88, 0
2, 1009780, Note_on_c, 0, 81, 0
2, 1009820, Note_on_c, 0, 93, 94
2, 1009820, Note_on_c, 0, 85, 71
2, 1009868, Note_on_c, 0, 85, 0
2, 1009872, Note_on_c, 0, 93, 0
2, 1009908, Note_on_c, 0, 97, 89
2, 1009912, Note_on_c, 0, 88, 72
2, 1009980, Note_on_c, 0, 88, 0
2, 1009984, Note_on_c, 0, 97, 0
2, 1010016, Note_on_c, 0, 100, 90
2, 1010020, Note_on_c, 0, 93, 91
2, 1010060, Note_on_c, 0, 93, 0
2, 1010088, Note_on_c, 0, 100, 0
2, 1010116, Note_on_c, 0, 97, 85
2, 1010220, Note_on_c, 0, 93, 84
2, 1010232, Note_on_c, 0, 97, 0
2, 1010292, Note_on_c, 0, 93, 0
2, 1010304, Note_on_c, 0, 88, 83
2, 1010352, Note_on_c, 0, 88, 0
2, 1010408, Note_on_c, 0, 85, 82
2, 1010408, Note_on_c, 0, 69, 72
2, 1010408, Note_on_c, 0, 76, 71
2, 1010408, Note_on_c, 0, 64, 68
2, 1010408, Note_on_c, 0, 61, 68
2, 1010408, Note_on_c, 0, 57, 68
2, 1010408, Note_on_c, 0, 45, 73
2, 1010468, Note_on_c, 0, 85, 0
2, 1010496, Note_on_c, 0, 57, 0
2, 1010496, Note_on_c, 0, 61, 0
2, 1010496, Note_on_c, 0, 64, 0
2, 1010496, Note_on_c, 0, 45, 0
2, 1010500, Note_on_c, 0, 88, 79
2, 1010516, Note_on_c, 0, 69, 0
2, 1010536, Note_on_c, 0, 76, 0
2, 1010556, Note_on_c, 0, 88, 0
2, 1010596, Note_on_c, 0, 85, 74
2, 1010656, Note_on_c, 0, 85, 0
2, 1010688, Note_on_c, 0, 88, 78
2, 1010740, Note_on_c, 0, 88, 0
2, 1010760, Control_c, 0, 64, 104
2, 1010772, Control_c, 0, 64, 24
2, 1010780, Control_c, 0, 64, 0
2, 1010788, Note_on_c, 0, 84, 83
2, 1010792, Note_on_c, 0, 76, 68
2, 1010812, Note_on_c, 0, 72, 54
2, 1010840, Control_c, 0, 64, 127
2, 1010844, Note_on_c, 0, 72, 0
2, 1010868, Note_on_c, 0, 76, 0
2, 1010884, Note_on_c, 0, 88, 83
2, 1010888, Note_on_c, 0, 84, 0
2, 1010904, Note_on_c, 0, 79, 72
2, 1010928, Note_on_c, 0, 88, 0
2, 1010956, Note_on_c, 0, 79, 0
2, 1010984, Note_on_c, 0, 91, 81
2, 1011000, Note_on_c, 0, 84, 50
2, 1011032, Note_on_c, 0, 91, 0
2, 1011044, Note_on_c, 0, 84, 0
2, 1011076, Note_on_c, 0, 96, 89
2, 1011088, Note_on_c, 0, 88, 69
2, 1011140, Note_on_c, 0, 96, 0
2, 1011152, Note_on_c, 0, 88, 0
2, 1011168, Note_on_c, 0, 100, 88
2, 1011184, Note_on_c, 0, 91, 77
2, 1011216, Note_on_c, 0, 91, 0
2, 1011268, Note_on_c, 0, 96, 86
2, 1011336, Note_on_c, 0, 100, 0
2, 1011352, Note_on_c, 0, 96, 0
2, 1011360, Note_on_c, 0, 91, 81
2, 1011400, Note_on_c, 0, 91, 0
2, 1011452, Note_on_c, 0, 88, 83
2, 1011508, Note_on_c, 0, 88, 0
2, 1011548, Note_on_c, 0, 84, 87
2, 1011548, Note_on_c, 0, 72, 71
2, 1011548, Note_on_c, 0, 76, 68
2, 1011548, Note_on_c, 0, 67, 76
2, 1011548, Note_on_c, 0, 64, 73
2, 1011548, Note_on_c, 0, 60, 73
2, 1011548, Note_on_c, 0, 48, 74
2, 1011620, Note_on_c, 0, 84, 0
2, 1011636, Note_on_c, 0, 60, 0
2, 1011636, Note_on_c, 0, 64, 0
2, 1011636, Note_on_c, 0, 67, 0
2, 1011636, Note_on_c, 0, 48, 0
2, 1011644, Note_on_c, 0, 88, 84
2, 1011704, Note_on_c, 0, 72, 0
2, 1011704, Note_on_c, 0, 76, 0
2, 1011708, Note_on_c, 0, 88, 0
2, 1011732, Note_on_c, 0, 84, 83
2, 1011816, Note_on_c, 0, 84, 0
2, 1011824, Note_on_c, 0, 88, 81
2, 1011848, Note_on_c, 0, 88, 0
2, 1011944, Note_on_c, 0, 74, 90
2, 1011948, Control_c, 0, 64, 56
2, 1011956, Note_on_c, 0, 60, 73
2, 1011956, Note_on_c, 0, 66, 65
2, 1011960, Control_c, 0, 64, 0
2, 1011968, Note_on_c, 0, 62, 60
2, 1012008, Control_c, 0, 64, 72
2, 1012020, Control_c, 0, 64, 127
2, 1012028, Note_on_c, 0, 62, 0
2, 1012028, Note_on_c, 0, 66, 0
2, 1012044, Note_on_c, 0, 74, 0
2, 1012044, Note_on_c, 0, 78, 83
2, 1012048, Note_on_c, 0, 60, 0
2, 1012056, Note_on_c, 0, 69, 68
2, 1012080, Note_on_c, 0, 78, 0
2, 1012104, Note_on_c, 0, 69, 0
2, 1012136, Note_on_c, 0, 81, 88
2, 1012148, Note_on_c, 0, 66, 53
2, 1012196, Note_on_c, 0, 81, 0
2, 1012200, Note_on_c, 0, 66, 0
2, 1012232, Note_on_c, 0, 86, 91
2, 1012236, Note_on_c, 0, 69, 63
2, 1012296, Note_on_c, 0, 69, 0
2, 1012304, Note_on_c, 0, 86, 0
2, 1012328, Note_on_c, 0, 90, 83
2, 1012328, Note_on_c, 0, 66, 61
2, 1012396, Note_on_c, 0, 66, 0
2, 1012416, Note_on_c, 0, 90, 0
2, 1012424, Note_on_c, 0, 86, 84
2, 1012428, Note_on_c, 0, 69, 64
2, 1012492, Note_on_c, 0, 69, 0
2, 1012496, Note_on_c, 0, 86, 0
2, 1012508, Note_on_c, 0, 81, 87
2, 1012520, Note_on_c, 0, 66, 59
2, 1012552, Note_on_c, 0, 81, 0
2, 1012576, Note_on_c, 0, 66, 0
2, 1012596, Note_on_c, 0, 78, 91
2, 1012612, Note_on_c, 0, 69, 64
2, 1012660, Note_on_c, 0, 78, 0
2, 1012664, Note_on_c, 0, 69, 0
2, 1012696, Note_on_c, 0, 74, 88
2, 1012696, Note_on_c, 0, 48, 78
2, 1012696, Note_on_c, 0, 62, 76
2, 1012696, Note_on_c, 0, 66, 67
2, 1012696, Note_on_c, 0, 60, 63
2, 1012696, Note_on_c, 0, 57, 72
2, 1012696, Note_on_c, 0, 54, 71
2, 1012712, Control_c, 0, 64, 88
2, 1012724, Control_c, 0, 64, 40
2, 1012752, Control_c, 0, 64, 104
2, 1012760, Control_c, 0, 64, 127
2, 1012764, Note_on_c, 0, 66, 0
2, 1012764, Note_on_c, 0, 62, 0
2, 1012764, Note_on_c, 0, 74, 0
2, 1012788, Note_on_c, 0, 60, 0
2, 1012788, Note_on_c, 0, 78, 83
2, 1012788, Note_on_c, 0, 69, 71
2, 1012852, Note_on_c, 0, 69, 0
2, 1012856, Note_on_c, 0, 78, 0
2, 1012876, Note_on_c, 0, 54, 0
2, 1012876, Note_on_c, 0, 57, 0
2, 1012876, Note_on_c, 0, 48, 0
2, 1012888, Note_on_c, 0, 74, 89
2, 1012888, Note_on_c, 0, 66, 58
2, 1012904, Note_on_c, 0, 62, 48
2, 1012916, Note_on_c, 0, 60, 49
2, 1012944, Note_on_c, 0, 60, 0
2, 1012948, Note_on_c, 0, 66, 0
2, 1012956, Note_on_c, 0, 62, 0
2, 1012960, Note_on_c, 0, 74, 0
2, 1012972, Note_on_c, 0, 78, 86
2, 1012984, Note_on_c, 0, 69, 66
2, 1013032, Note_on_c, 0, 69, 0
2, 1013044, Note_on_c, 0, 78, 0
2, 1013076, Note_on_c, 0, 75, 93
2, 1013076, Note_on_c, 0, 63, 83
2, 1013076, Control_c, 0, 64, 72
2, 1013080, Note_on_c, 0, 66, 73
2, 1013084, Note_on_c, 0, 63, 71
2, 1013088, Control_c, 0, 64, 0
2, 1013092, Note_on_c, 0, 60, 68
2, 1013128, Control_c, 0, 64, 56
2, 1013136, Control_c, 0, 64, 127
2, 1013152, Note_on_c, 0, 66, 0
2, 1013160, Note_on_c, 0, 63, 0
2, 1013168, Note_on_c, 0, 78, 82
2, 1013180, Note_on_c, 0, 75, 0
2, 1013180, Note_on_c, 0, 69, 65
2, 1013212, Note_on_c, 0, 78, 0
2, 1013244, Note_on_c, 0, 69, 0
2, 1013256, Note_on_c, 0, 63, 0
2, 1013268, Note_on_c, 0, 81, 91
2, 1013276, Note_on_c, 0, 63, 67
2, 1013288, Note_on_c, 0, 66, 58
2, 1013340, Note_on_c, 0, 63, 0
2, 1013344, Note_on_c, 0, 66, 0
2, 1013344, Note_on_c, 0, 81, 0
2, 1013356, Note_on_c, 0, 87, 88
2, 1013356, Note_on_c, 0, 69, 68
2, 1013356, Note_on_c, 0, 63, 83
2, 1013404, Note_on_c, 0, 69, 0
2, 1013416, Note_on_c, 0, 60, 0
2, 1013444, Note_on_c, 0, 87, 0
2, 1013460, Note_on_c, 0, 63, 0
2, 1013468, Note_on_c, 0, 90, 93
2, 1013468, Note_on_c, 0, 62, 79
2, 1013472, Note_on_c, 0, 66, 66
2, 1013480, Note_on_c, 0, 62, 73
2, 1013480, Control_c, 0, 64, 72
2, 1013484, Note_on_c, 0, 60, 68
2, 1013488, Control_c, 0, 64, 0
2, 1013528, Control_c, 0, 64, 40
2, 1013536, Note_on_c, 0, 66, 0
2, 1013540, Control_c, 0, 64, 127
2, 1013544, Note_on_c, 0, 62, 0
2, 1013556, Note_on_c, 0, 69, 73
2, 1013564, Note_on_c, 0, 90, 0
2, 1013568, Note_on_c, 0, 86, 89
2, 1013620, Note_on_c, 0, 69, 0
2, 1013644, Note_on_c, 0, 86, 0
2, 1013648, Note_on_c, 0, 62, 0
2, 1013656, Note_on_c, 0, 81, 86
2, 1013664, Note_on_c, 0, 66, 58
2, 1013680, Note_on_c, 0, 62, 53
2, 1013700, Note_on_c, 0, 81, 0
2, 1013716, Note_on_c, 0, 66, 0
2, 1013736, Note_on_c, 0, 62, 0
2, 1013744, Note_on_c, 0, 78, 83
2, 1013756, Note_on_c, 0, 69, 64
2, 1013804, Note_on_c, 0, 78, 0
2, 1013812, Note_on_c, 0, 69, 0
2, 1013844, Note_on_c, 0, 74, 86
2, 1013844, Note_on_c, 0, 66, 69
2, 1013844, Note_on_c, 0, 62, 76
2, 1013844, Note_on_c, 0, 57, 71
2, 1013844, Note_on_c, 0, 54, 70
2, 1013844, Note_on_c, 0, 48, 77
2, 1013908, Note_on_c, 0, 74, 0
2, 1013920, Note_on_c, 0, 66, 0
2, 1013932, Note_on_c, 0, 78, 82
2, 1013948, Note_on_c, 0, 69, 72
2, 1014000, Note_on_c, 0, 69, 0
2, 1014004, Note_on_c, 0, 78, 0
2, 1014024, Note_on_c, 0, 48, 0
2, 1014024, Note_on_c, 0, 62, 0
2, 1014024, Note_on_c, 0, 57, 0
2, 1014024, Note_on_c, 0, 54, 0
2, 1014024, Note_on_c, 0, 66, 62
2, 1014032, Note_on_c, 0, 74, 85
2, 1014088, Note_on_c, 0, 66, 0
2, 1014100, Note_on_c, 0, 74, 0
2, 1014104, Note_on_c, 0, 60, 0
2, 1014112, Note_on_c, 0, 78, 82
2, 1014116, Note_on_c, 0, 69, 71
2, 1014176, Note_on_c, 0, 69, 0
2, 1014192, Note_on_c, 0, 78, 0
2, 1014192, Control_c, 0, 64, 40
2, 1014204, Control_c, 0, 64, 0
2, 1014216, Note_on_c, 0, 74, 88
2, 1014228, Note_on_c, 0, 65, 80
2, 1014232, Note_on_c, 0, 62, 73
2, 1014240, Note_on_c, 0, 60, 69
2, 1014244, Control_c, 0, 64, 40
2, 1014252, Control_c, 0, 64, 127
2, 1014260, Note_on_c, 0, 60, 0
2, 1014264, Note_on_c, 0, 74, 0
2, 1014284, Note_on_c, 0, 65, 0
2, 1014320, Note_on_c, 0, 77, 90
2, 1014320, Note_on_c, 0, 68, 90
2, 1014328, Note_on_c, 0, 60, 49
2, 1014384, Note_on_c, 0, 77, 0
2, 1014408, Note_on_c, 0, 68, 0
2, 1014408, Note_on_c, 0, 80, 85
2, 1014420, Note_on_c, 0, 65, 74
2, 1014472, Note_on_c, 0, 80, 0
2, 1014488, Note_on_c, 0, 65, 0
2, 1014496, Note_on_c, 0, 86, 84
2, 1014500, Note_on_c, 0, 62, 0
2, 1014512, Note_on_c, 0, 60, 0
2, 1014512, Note_on_c, 0, 68, 80
2, 1014572, Note_on_c, 0, 68, 0
2, 1014572, Note_on_c, 0, 86, 0
2, 1014604, Note_on_c, 0, 65, 66
2, 1014608, Note_on_c, 0, 89, 92
2, 1014608, Control_c, 0, 64, 72
2, 1014616, Control_c, 0, 64, 0
2, 1014624, Note_on_c, 0, 59, 60
2, 1014628, Note_on_c, 0, 62, 63
2, 1014656, Control_c, 0, 64, 24
2, 1014664, Note_on_c, 0, 89, 0
2, 1014668, Control_c, 0, 64, 88
2, 1014676, Note_on_c, 0, 65, 0
2, 1014676, Control_c, 0, 64, 127
2, 1014692, Note_on_c, 0, 86, 74
2, 1014704, Note_on_c, 0, 67, 79
2, 1014708, Note_on_c, 0, 62, 0
2, 1014764, Note_on_c, 0, 86, 0
2, 1014772, Note_on_c, 0, 67, 0
2, 1014784, Note_on_c, 0, 79, 86
2, 1014800, Note_on_c, 0, 65, 76
2, 1014800, Note_on_c, 0, 62, 63
2, 1014864, Note_on_c, 0, 79, 0
2, 1014868, Note_on_c, 0, 65, 0
2, 1014872, Note_on_c, 0, 77, 89
2, 1014900, Note_on_c, 0, 67, 79
2, 1014920, Note_on_c, 0, 77, 0
2, 1014944, Note_on_c, 0, 67, 0
2, 1014968, Note_on_c, 0, 74, 90
2, 1014968, Note_on_c, 0, 65, 70
2, 1014968, Note_on_c, 0, 67, 79
2, 1014968, Note_on_c, 0, 62, 74
2, 1014968, Note_on_c, 0, 59, 76
2, 1015028, Note_on_c, 0, 65, 0
2, 1015032, Note_on_c, 0, 74, 0
2, 1015060, Note_on_c, 0, 77, 86
2, 1015072, Note_on_c, 0, 67, 70
2, 1015124, Note_on_c, 0, 77, 0
2, 1015124, Note_on_c, 0, 67, 0
2, 1015148, Note_on_c, 0, 59, 0
2, 1015148, Note_on_c, 0, 62, 0
2, 1015148, Note_on_c, 0, 67, 0
2, 1015156, Note_on_c, 0, 74, 87
2, 1015156, Note_on_c, 0, 65, 71
2, 1015160, Note_on_c, 0, 62, 0
2, 1015192, Note_on_c, 0, 59, 0
2, 1015216, Note_on_c, 0, 65, 0
2, 1015220, Note_on_c, 0, 74, 0
2, 1015248, Note_on_c, 0, 67, 71
2, 1015248, Note_on_c, 0, 77, 86
2, 1015304, Note_on_c, 0, 67, 0
2, 1015312, Note_on_c, 0, 77, 0
2, 1015312, Control_c, 0, 64, 88
2, 1015320, Control_c, 0, 64, 24
2, 1015332, Control_c, 0, 64, 0
2, 1015340, Note_on_c, 0, 65, 82
2, 1015340, Note_on_c, 0, 62, 73
2, 1015340, Note_on_c, 0, 60, 76
2, 1015340, Note_on_c, 0, 74, 84
2, 1015340, Note_on_c, 0, 68, 82
2, 1015360, Control_c, 0, 64, 24
2, 1015372, Control_c, 0, 64, 72
2, 1015380, Note_on_c, 0, 74, 0
2, 1015380, Control_c, 0, 64, 127
2, 1015412, Note_on_c, 0, 65, 0
2, 1015440, Note_on_c, 0, 60, 32
2, 1015444, Note_on_c, 0, 77, 88
2, 1015444, Note_on_c, 0, 68, 81
2, 1015500, Note_on_c, 0, 77, 0
2, 1015504, Note_on_c, 0, 60, 0
2, 1015512, Note_on_c, 0, 68, 0
2, 1015520, Note_on_c, 0, 68, 0
2, 1015532, Note_on_c, 0, 80, 86
2, 1015536, Note_on_c, 0, 65, 81
2, 1015584, Note_on_c, 0, 60, 0
2, 1015592, Note_on_c, 0, 62, 0
2, 1015600, Note_on_c, 0, 80, 0
2, 1015612, Note_on_c, 0, 65, 0
2, 1015624, Note_on_c, 0, 86, 90
2, 1015624, Note_on_c, 0, 68, 81
2, 1015624, Note_on_c, 0, 60, 76
2, 1015700, Note_on_c, 0, 86, 0
2, 1015712, Note_on_c, 0, 60, 0
2, 1015712, Note_on_c, 0, 68, 0
2, 1015724, Note_on_c, 0, 65, 75
2, 1015724, Control_c, 0, 64, 56
2, 1015728, Note_on_c, 0, 89, 91
2, 1015728, Note_on_c, 0, 62, 73
2, 1015728, Note_on_c, 0, 67, 78
2, 1015736, Control_c, 0, 64, 0
2, 1015740, Note_on_c, 0, 59, 74
2, 1015784, Note_on_c, 0, 89, 0
2, 1015784, Control_c, 0, 64, 72
2, 1015792, Note_on_c, 0, 65, 0
2, 1015796, Control_c, 0, 64, 127
2, 1015812, Note_on_c, 0, 62, 0
2, 1015812, Note_on_c, 0, 86, 81
2, 1015820, Note_on_c, 0, 67, 77
2, 1015860, Note_on_c, 0, 67, 0
2, 1015860, Note_on_c, 0, 67, 0
2, 1015888, Note_on_c, 0, 86, 0
2, 1015912, Note_on_c, 0, 79, 78
2, 1015916, Note_on_c, 0, 65, 76
2, 1015920, Note_on_c, 0, 62, 68
2, 1015956, Note_on_c, 0, 59, 0
2, 1015984, Note_on_c, 0, 79, 0
2, 1015984, Note_on_c, 0, 65, 0
2, 1015996, Note_on_c, 0, 62, 0
2, 1015996, Note_on_c, 0, 77, 88
2, 1016012, Note_on_c, 0, 67, 78
2, 1016052, Note_on_c, 0, 77, 0
2, 1016068, Note_on_c, 0, 67, 0
2, 1016104, Note_on_c, 0, 74, 88
2, 1016104, Note_on_c, 0, 62, 73
2, 1016104, Note_on_c, 0, 65, 76
2, 1016104, Note_on_c, 0, 67, 78
2, 1016104, Note_on_c, 0, 59, 76
2, 1016168, Note_on_c, 0, 65, 0
2, 1016172, Note_on_c, 0, 74, 0
2, 1016192, Note_on_c, 0, 59, 0
2, 1016192, Note_on_c, 0, 67, 0
2, 1016200, Note_on_c, 0, 77, 88
2, 1016204, Note_on_c, 0, 67, 69
2, 1016264, Note_on_c, 0, 67, 0
2, 1016264, Note_on_c, 0, 77, 0
2, 1016288, Note_on_c, 0, 65, 68
2, 1016296, Note_on_c, 0, 74, 81
2, 1016360, Note_on_c, 0, 65, 0
2, 1016364, Note_on_c, 0, 74, 0
2, 1016396, Note_on_c, 0, 77, 84
2, 1016396, Note_on_c, 0, 67, 74
2, 1016424, Note_on_c, 0, 62, 0
2, 1016440, Note_on_c, 0, 67, 0
2, 1016460, Note_on_c, 0, 77, 0
2, 1016516, Note_on_c, 0, 60, 94
2, 1016516, Note_on_c, 0, 43, 74
2, 1016516, Note_on_c, 0, 36, 82
2, 1016540, Control_c, 0, 64, 88
2, 1016552, Control_c, 0, 64, 127
2, 1016580, Note_on_c, 0, 60, 0
2, 1016596, Note_on_c, 0, 36, 0
2, 1016596, Note_on_c, 0, 43, 0
2, 1016620, Note_on_c, 0, 48, 81
2, 1016620, Note_on_c, 0, 64, 83
2, 1016668, Note_on_c, 0, 48, 0
2, 1016680, Note_on_c, 0, 64, 0
2, 1016712, Note_on_c, 0, 52, 73
2, 1016720, Note_on_c, 0, 67, 92
2, 1016740, Note_on_c, 0, 52, 0
2, 1016792, Note_on_c, 0, 67, 0
2, 1016804, Note_on_c, 0, 55, 73
2, 1016812, Note_on_c, 0, 72, 100
2, 1016888, Note_on_c, 0, 55, 0
2, 1016892, Note_on_c, 0, 72, 0
2, 1016908, Note_on_c, 0, 76, 98
2, 1016920, Note_on_c, 0, 60, 73
2, 1016956, Note_on_c, 0, 60, 0
2, 1016972, Note_on_c, 0, 76, 0
2, 1016996, Note_on_c, 0, 72, 94
2, 1017032, Note_on_c, 0, 72, 0
2, 1017072, Control_c, 0, 64, 72
2, 1017080, Control_c, 0, 64, 0
2, 1017100, Note_on_c, 0, 64, 83
2, 1017104, Note_on_c, 0, 55, 80
2, 1017112, Note_on_c, 0, 48, 82
2, 1017128, Control_c, 0, 64, 56
2, 1017136, Note_on_c, 0, 64, 0
2, 1017136, Control_c, 0, 64, 127
2, 1017168, Note_on_c, 0, 48, 0
2, 1017188, Note_on_c, 0, 55, 0
2, 1017196, Note_on_c, 0, 67, 88
2, 1017208, Note_on_c, 0, 60, 72
2, 1017248, Note_on_c, 0, 67, 0
2, 1017252, Note_on_c, 0, 60, 0
2, 1017292, Note_on_c, 0, 72, 98
2, 1017296, Note_on_c, 0, 64, 78
2, 1017340, Note_on_c, 0, 64, 0
2, 1017348, Note_on_c, 0, 72, 0
2, 1017372, Note_on_c, 0, 76, 100
2, 1017384, Note_on_c, 0, 67, 73
2, 1017460, Note_on_c, 0, 67, 0
2, 1017460, Note_on_c, 0, 76, 0
2, 1017472, Note_on_c, 0, 79, 108
2, 1017472, Note_on_c, 0, 72, 84
2, 1017472, Note_on_c, 0, 60, 71
2, 1017472, Note_on_c, 0, 64, 74
2, 1017472, Note_on_c, 0, 48, 76
2, 1017504, Note_on_c, 0, 72, 0
2, 1017568, Note_on_c, 0, 79, 0
2, 1017572, Note_on_c, 0, 76, 90
2, 1017608, Note_on_c, 0, 76, 0
2, 1017676, Control_c, 0, 64, 104
2, 1017684, Note_on_c, 0, 60, 94
2, 1017684, Note_on_c, 0, 48, 75
2, 1017684, Note_on_c, 0, 43, 78
2, 1017688, Control_c, 0, 64, 40
2, 1017696, Control_c, 0, 64, 0
2, 1017724, Note_on_c, 0, 43, 0
2, 1017724, Note_on_c, 0, 60, 0
2, 1017724, Control_c, 0, 64, 72
2, 1017728, Note_on_c, 0, 60, 0
2, 1017728, Note_on_c, 0, 48, 0
2, 1017728, Note_on_c, 0, 64, 0
2, 1017732, Control_c, 0, 64, 127
2, 1017752, Note_on_c, 0, 48, 0
2, 1017776, Note_on_c, 0, 62, 88
2, 1017776, Note_on_c, 0, 50, 74
2, 1017776, Note_on_c, 0, 60, 76
2, 1017804, Note_on_c, 0, 50, 0
2, 1017820, Note_on_c, 0, 62, 0
2, 1017836, Note_on_c, 0, 60, 0
2, 1017872, Note_on_c, 0, 67, 88
2, 1017872, Note_on_c, 0, 55, 76
2, 1017872, Note_on_c, 0, 60, 76
2, 1017920, Note_on_c, 0, 60, 75
2, 1017932, Note_on_c, 0, 60, 0
2, 1017932, Note_on_c, 0, 67, 0
2, 1017932, Note_on_c, 0, 55, 0
2, 1017956, Note_on_c, 0, 72, 98
2, 1018032, Note_on_c, 0, 72, 0
2, 1018044, Note_on_c, 0, 74, 99
2, 1018044, Note_on_c, 0, 62, 76
2, 1018044, Note_on_c, 0, 43, 81
2, 1018072, Note_on_c, 0, 60, 0
2, 1018080, Note_on_c, 0, 62, 0
2, 1018128, Note_on_c, 0, 74, 0
2, 1018144, Note_on_c, 0, 72, 78
2, 1018176, Note_on_c, 0, 72, 0
2, 1018248, Note_on_c, 0, 62, 88
2, 1018248, Note_on_c, 0, 43, 78
2, 1018248, Note_on_c, 0, 50, 82
2, 1018248, Control_c, 0, 64, 56
2, 1018252, Control_c, 0, 64, 0
2, 1018284, Control_c, 0, 64, 40
2, 1018288, Note_on_c, 0, 62, 0
2, 1018292, Note_on_c, 0, 43, 0
2, 1018292, Control_c, 0, 64, 104
2, 1018300, Control_c, 0, 64, 127
2, 1018316, Note_on_c, 0, 43, 0
2, 1018328, Note_on_c, 0, 50, 0
2, 1018348, Note_on_c, 0, 55, 74
2, 1018348, Note_on_c, 0, 67, 83
2, 1018372, Note_on_c, 0, 55, 0
2, 1018392, Note_on_c, 0, 67, 0
2, 1018432, Note_on_c, 0, 71, 88
2, 1018436, Note_on_c, 0, 59, 76
2, 1018480, Note_on_c, 0, 59, 0
2, 1018488, Note_on_c, 0, 71, 0
2, 1018520, Note_on_c, 0, 74, 91
2, 1018524, Note_on_c, 0, 62, 79
2, 1018596, Note_on_c, 0, 74, 0
2, 1018612, Note_on_c, 0, 62, 0
2, 1018612, Note_on_c, 0, 79, 98
2, 1018612, Note_on_c, 0, 67, 78
2, 1018612, Note_on_c, 0, 55, 76
2, 1018612, Note_on_c, 0, 59, 74
2, 1018652, Note_on_c, 0, 67, 0
2, 1018692, Note_on_c, 0, 79, 0
2, 1018716, Note_on_c, 0, 74, 81
2, 1018732, Note_on_c, 0, 74, 0
2, 1018800, Control_c, 0, 64, 72
2, 1018812, Control_c, 0, 64, 0
2, 1018820, Note_on_c, 0, 62, 91
2, 1018820, Note_on_c, 0, 45, 79
2, 1018820, Note_on_c, 0, 38, 82
2, 1018852, Note_on_c, 0, 59, 0
2, 1018852, Control_c, 0, 64, 56
2, 1018860, Control_c, 0, 64, 127
2, 1018864, Note_on_c, 0, 55, 0
2, 1018868, Note_on_c, 0, 62, 0
2, 1018888, Note_on_c, 0, 38, 0
2, 1018900, Note_on_c, 0, 45, 0
2, 1018912, Note_on_c, 0, 65, 88
2, 1018912, Note_on_c, 0, 50, 78
2, 1018940, Note_on_c, 0, 50, 0
2, 1018972, Note_on_c, 0, 65, 0
2, 1019020, Note_on_c, 0, 69, 86
2, 1019020, Note_on_c, 0, 53, 76
2, 1019072, Note_on_c, 0, 69, 0
2, 1019080, Note_on_c, 0, 53, 0
2, 1019100, Note_on_c, 0, 74, 98
2, 1019100, Note_on_c, 0, 57, 82
2, 1019152, Note_on_c, 0, 57, 0
2, 1019172, Note_on_c, 0, 74, 0
2, 1019196, Note_on_c, 0, 77, 101
2, 1019196, Note_on_c, 0, 62, 81
2, 1019236, Note_on_c, 0, 62, 0
2, 1019272, Note_on_c, 0, 77, 0
2, 1019292, Note_on_c, 0, 74, 84
2, 1019332, Note_on_c, 0, 74, 0
2, 1019392, Note_on_c, 0, 65, 87
2, 1019392, Note_on_c, 0, 57, 76
2, 1019392, Note_on_c, 0, 50, 78
2, 1019392, Control_c, 0, 64, 56
2, 1019400, Control_c, 0, 64, 0
2, 1019420, Control_c, 0, 64, 24
2, 1019428, Control_c, 0, 64, 72
2, 1019432, Note_on_c, 0, 65, 0
2, 1019436, Control_c, 0, 64, 127
2, 1019456, Note_on_c, 0, 50, 0
2, 1019456, Note_on_c, 0, 57, 0
2, 1019484, Note_on_c, 0, 69, 88
2, 1019484, Note_on_c, 0, 62, 76
2, 1019520, Note_on_c, 0, 62, 0
2, 1019536, Note_on_c, 0, 69, 0
2, 1019584, Note_on_c, 0, 74, 96
2, 1019592, Note_on_c, 0, 65, 74
2, 1019620, Note_on_c, 0, 65, 0
2, 1019636, Note_on_c, 0, 74, 0
2, 1019668, Note_on_c, 0, 77, 103
2, 1019672, Note_on_c, 0, 69, 73
2, 1019752, Note_on_c, 0, 69, 0
2, 1019752, Note_on_c, 0, 77, 0
2, 1019768, Note_on_c, 0, 81, 104
2, 1019768, Note_on_c, 0, 74, 87
2, 1019768, Note_on_c, 0, 62, 76
2, 1019768, Note_on_c, 0, 65, 78
2, 1019768, Note_on_c, 0, 57, 76
2, 1019768, Note_on_c, 0, 50, 78
2, 1019800, Note_on_c, 0, 74, 0
2, 1019852, Note_on_c, 0, 81, 0
2, 1019864, Note_on_c, 0, 77, 88
2, 1019896, Note_on_c, 0, 77, 0
2, 1019968, Control_c, 0, 64, 104
2, 1019972, Note_on_c, 0, 50, 78
2, 1019972, Note_on_c, 0, 62, 94
2, 1019980, Control_c, 0, 64, 40
2, 1019984, Note_on_c, 0, 45, 83
2, 1019988, Control_c, 0, 64, 0
2, 1020004, Control_c, 0, 64, 56
2, 1020008, Note_on_c, 0, 62, 0
2, 1020008, Note_on_c, 0, 57, 0
2, 1020008, Note_on_c, 0, 65, 0
2, 1020008, Note_on_c, 0, 50, 0
2, 1020016, Note_on_c, 0, 62, 0
2, 1020016, Control_c, 0, 64, 104
2, 1020024, Control_c, 0, 64, 127
2, 1020052, Note_on_c, 0, 50, 0
2, 1020056, Note_on_c, 0, 45, 0
2, 1020072, Note_on_c, 0, 64, 87
2, 1020072, Note_on_c, 0, 52, 80
2, 1020072, Note_on_c, 0, 62, 78
2, 1020116, Note_on_c, 0, 64, 0
2, 1020128, Note_on_c, 0, 52, 0
2, 1020132, Note_on_c, 0, 62, 0
2, 1020168, Note_on_c, 0, 69, 83
2, 1020168, Note_on_c, 0, 57, 73
2, 1020168, Note_on_c, 0, 62, 78
2, 1020208, Note_on_c, 0, 57, 0
2, 1020224, Note_on_c, 0, 69, 0
2, 1020228, Note_on_c, 0, 62, 0
2, 1020248, Note_on_c, 0, 62, 78
2, 1020256, Note_on_c, 0, 74, 95
2, 1020336, Note_on_c, 0, 74, 0
2, 1020348, Note_on_c, 0, 62, 0
2, 1020348, Note_on_c, 0, 76, 99
2, 1020348, Note_on_c, 0, 64, 85
2, 1020348, Note_on_c, 0, 45, 80
2, 1020388, Note_on_c, 0, 64, 0
2, 1020428, Note_on_c, 0, 76, 0
2, 1020444, Note_on_c, 0, 74, 77
2, 1020476, Note_on_c, 0, 74, 0
2, 1020536, Control_c, 0, 64, 72
2, 1020548, Note_on_c, 0, 52, 78
2, 1020548, Control_c, 0, 64, 0
2, 1020552, Note_on_c, 0, 64, 82
2, 1020556, Note_on_c, 0, 45, 78
2, 1020560, Note_on_c, 0, 45, 0
2, 1020576, Control_c, 0, 64, 40
2, 1020584, Control_c, 0, 64, 88
2, 1020592, Control_c, 0, 64, 127
2, 1020596, Note_on_c, 0, 64, 0
2, 1020624, Note_on_c, 0, 45, 0
2, 1020640, Note_on_c, 0, 52, 0
2, 1020640, Note_on_c, 0, 69, 86
2, 1020648, Note_on_c, 0, 57, 64
2, 1020684, Note_on_c, 0, 57, 0
2, 1020692, Note_on_c, 0, 69, 0
2, 1020740, Note_on_c, 0, 72, 89
2, 1020744, Note_on_c, 0, 60, 76
2, 1020792, Note_on_c, 0, 72, 0
2, 1020796, Note_on_c, 0, 60, 0
2, 1020828, Note_on_c, 0, 76, 93
2, 1020836, Note_on_c, 0, 64, 75
2, 1020908, Note_on_c, 0, 76, 0
2, 1020924, Note_on_c, 0, 81, 101
2, 1020924, Note_on_c, 0, 69, 79
2, 1020924, Note_on_c, 0, 57, 78
2, 1020924, Note_on_c, 0, 64, 76
2, 1020924, Note_on_c, 0, 60, 76
2, 1020936, Note_on_c, 0, 64, 0
2, 1021000, Note_on_c, 0, 81, 0
2, 1021028, Note_on_c, 0, 76, 85
2, 1021068, Note_on_c, 0, 76, 0
2, 1021100, Note_on_c, 0, 69, 0
2, 1021104, Note_on_c, 0, 64, 0
2, 1021108, Note_on_c, 0, 57, 0
2, 1021112, Note_on_c, 0, 60, 0
2, 1021124, Control_c, 0, 64, 88
2, 1021132, Control_c, 0, 64, 0
2, 1021184, Note_on_c, 0, 48, 69
2, 1021184, Note_on_c, 0, 57, 78
2, 1021188, Note_on_c, 0, 41, 78
2, 1021208, Control_c, 0, 64, 88
2, 1021216, Control_c, 0, 64, 127
2, 1021268, Note_on_c, 0, 48, 0
2, 1021272, Note_on_c, 0, 57, 0
2, 1021276, Note_on_c, 0, 60, 76
2, 1021292, Note_on_c, 0, 53, 61
2, 1021316, Note_on_c, 0, 53, 0
2, 1021316, Note_on_c, 0, 60, 0
2, 1021372, Note_on_c, 0, 65, 78
2, 1021376, Note_on_c, 0, 57, 74
2, 1021392, Note_on_c, 0, 41, 0
2, 1021416, Note_on_c, 0, 65, 0
2, 1021424, Note_on_c, 0, 57, 0
2, 1021472, Note_on_c, 0, 69, 76
2, 1021476, Note_on_c, 0, 60, 65
2, 1021528, Note_on_c, 0, 69, 0
2, 1021548, Note_on_c, 0, 60, 0
2, 1021572, Note_on_c, 0, 72, 80
2, 1021572, Note_on_c, 0, 65, 62
2, 1021616, Note_on_c, 0, 72, 0
2, 1021620, Note_on_c, 0, 65, 0
2, 1021660, Note_on_c, 0, 69, 63
2, 1021720, Note_on_c, 0, 69, 0
2, 1021744, Note_on_c, 0, 65, 70
2, 1021808, Note_on_c, 0, 65, 0
2, 1021848, Note_on_c, 0, 60, 70
2, 1021900, Note_on_c, 0, 60, 0
2, 1021948, Note_on_c, 0, 57, 78
2, 1021948, Note_on_c, 0, 41, 69
2, 1021948, Note_on_c, 0, 48, 70
2, 1021948, Note_on_c, 0, 53, 72
2, 1021948, Note_on_c, 0, 65, 72
2, 1021960, Control_c, 0, 64, 40
2, 1021968, Control_c, 0, 64, 0
2, 1022028, Note_on_c, 0, 57, 0
2, 1022032, Control_c, 0, 64, 72
2, 1022040, Control_c, 0, 64, 127
2, 1022048, Note_on_c, 0, 60, 81
2, 1022052, Note_on_c, 0, 41, 0
2, 1022060, Note_on_c, 0, 48, 0
2, 1022072, Note_on_c, 0, 53, 0
2, 1022084, Note_on_c, 0, 65, 0
2, 1022116, Note_on_c, 0, 60, 0
2, 1022140, Note_on_c, 0, 57, 78
2, 1022208, Note_on_c, 0, 57, 0
2, 1022240, Note_on_c, 0, 60, 78
2, 1022280, Note_on_c, 0, 60, 0
2, 1022328, Control_c, 0, 64, 24
2, 1022336, Note_on_c, 0, 59, 83
2, 1022336, Note_on_c, 0, 43, 72
2, 1022336, Note_on_c, 0, 50, 73
2, 1022336, Note_on_c, 0, 65, 76
2, 1022336, Control_c, 0, 64, 0
2, 1022396, Control_c, 0, 64, 127
2, 1022408, Note_on_c, 0, 50, 0
2, 1022412, Note_on_c, 0, 43, 0
2, 1022436, Note_on_c, 0, 59, 0
2, 1022440, Note_on_c, 0, 62, 82
2, 1022444, Note_on_c, 0, 53, 69
2, 1022472, Note_on_c, 0, 62, 0
2, 1022472, Note_on_c, 0, 65, 0
2, 1022484, Note_on_c, 0, 53, 0
2, 1022528, Note_on_c, 0, 55, 79
2, 1022536, Note_on_c, 0, 65, 84
2, 1022536, Control_c, 0, 64, 88
2, 1022548, Control_c, 0, 64, 104
2, 1022556, Control_c, 0, 64, 127
2, 1022584, Note_on_c, 0, 65, 0
2, 1022584, Note_on_c, 0, 55, 0
2, 1022624, Note_on_c, 0, 59, 74
2, 1022624, Note_on_c, 0, 65, 76
2, 1022624, Note_on_c, 0, 43, 76
2, 1022628, Note_on_c, 0, 77, 95
2, 1022640, Note_on_c, 0, 59, 0
2, 1022664, Note_on_c, 0, 77, 0
2, 1022688, Note_on_c, 0, 43, 0
2, 1022688, Note_on_c, 0, 65, 0
2, 1022720, Control_c, 0, 64, 72
2, 1022728, Note_on_c, 0, 76, 99
2, 1022728, Note_on_c, 0, 64, 82
2, 1022728, Control_c, 0, 64, 0
2, 1022732, Note_on_c, 0, 70, 71
2, 1022748, Note_on_c, 0, 55, 69
2, 1022752, Note_on_c, 0, 48, 80
2, 1022752, Note_on_c, 0, 60, 72
2, 1022792, Note_on_c, 0, 64, 0
2, 1022804, Control_c, 0, 64, 88
2, 1022812, Control_c, 0, 64, 127
2, 1022820, Note_on_c, 0, 48, 0
2, 1022824, Note_on_c, 0, 76, 0
2, 1022824, Note_on_c, 0, 70, 0
2, 1022828, Note_on_c, 0, 55, 0
2, 1022828, Note_on_c, 0, 60, 0
2, 1022832, Note_on_c, 0, 82, 89
2, 1022904, Note_on_c, 0, 82, 0
2, 1022932, Note_on_c, 0, 79, 89
2, 1023004, Note_on_c, 0, 79, 0
2, 1023028, Note_on_c, 0, 76, 90
2, 1023092, Note_on_c, 0, 76, 0
2, 1023112, Control_c, 0, 64, 72
2, 1023124, Note_on_c, 0, 72, 86
2, 1023124, Note_on_c, 0, 67, 69
2, 1023124, Note_on_c, 0, 60, 70
2, 1023124, Note_on_c, 0, 70, 83
2, 1023124, Note_on_c, 0, 64, 72
2, 1023124, Note_on_c, 0, 48, 74
2, 1023124, Control_c, 0, 64, 0
2, 1023160, Control_c, 0, 64, 24
2, 1023168, Control_c, 0, 64, 72
2, 1023176, Control_c, 0, 64, 127
2, 1023212, Note_on_c, 0, 72, 0
2, 1023220, Note_on_c, 0, 67, 0
2, 1023224, Note_on_c, 0, 73, 85
2, 1023228, Note_on_c, 0, 60, 0
2, 1023268, Note_on_c, 0, 48, 0
2, 1023268, Note_on_c, 0, 64, 0
2, 1023284, Note_on_c, 0, 73, 0
2, 1023300, Note_on_c, 0, 70, 0
2, 1023300, Note_on_c, 0, 76, 78
2, 1023320, Note_on_c, 0, 74, 91
2, 1023324, Control_c, 0, 64, 72
2, 1023332, Control_c, 0, 64, 56
2, 1023340, Note_on_c, 0, 76, 0
2, 1023344, Control_c, 0, 64, 72
2, 1023352, Control_c, 0, 64, 88
2, 1023360, Control_c, 0, 64, 127
2, 1023388, Note_on_c, 0, 74, 0
2, 1023408, Note_on_c, 0, 70, 86
2, 1023460, Note_on_c, 0, 70, 0
2, 1023500, Control_c, 0, 64, 24
2, 1023508, Note_on_c, 0, 69, 88
2, 1023508, Control_c, 0, 64, 0
2, 1023520, Note_on_c, 0, 60, 68
2, 1023528, Note_on_c, 0, 53, 75
2, 1023544, Control_c, 0, 64, 40
2, 1023552, Control_c, 0, 64, 104
2, 1023556, Note_on_c, 0, 69, 0
2, 1023564, Control_c, 0, 64, 127
2, 1023592, Note_on_c, 0, 60, 0
2, 1023600, Note_on_c, 0, 72, 90
2, 1023604, Note_on_c, 0, 53, 0
2, 1023620, Note_on_c, 0, 65, 58
2, 1023648, Note_on_c, 0, 72, 0
2, 1023664, Note_on_c, 0, 65, 0
2, 1023696, Note_on_c, 0, 77, 94
2, 1023708, Note_on_c, 0, 69, 75
2, 1023744, Note_on_c, 0, 69, 0
2, 1023748, Note_on_c, 0, 77, 0
2, 1023792, Note_on_c, 0, 81, 91
2, 1023800, Note_on_c, 0, 72, 73
2, 1023856, Note_on_c, 0, 81, 0
2, 1023868, Note_on_c, 0, 72, 0
2, 1023888, Note_on_c, 0, 84, 93
2, 1023892, Control_c, 0, 64, 56
2, 1023896, Note_on_c, 0, 77, 83
2, 1023904, Control_c, 0, 64, 40
2, 1023908, Control_c, 0, 64, 56
2, 1023920, Control_c, 0, 64, 104
2, 1023928, Control_c, 0, 64, 127
2, 1023956, Note_on_c, 0, 84, 0
2, 1023968, Note_on_c, 0, 77, 0
2, 1023980, Note_on_c, 0, 81, 83
2, 1024056, Note_on_c, 0, 81, 0
2, 1024068, Note_on_c, 0, 77, 88
2, 1024140, Note_on_c, 0, 77, 0
2, 1024168, Note_on_c, 0, 72, 73
2, 1024208, Note_on_c, 0, 72, 0
2, 1024256, Note_on_c, 0, 69, 80
2, 1024264, Note_on_c, 0, 65, 67
2, 1024272, Note_on_c, 0, 60, 67
2, 1024272, Note_on_c, 0, 53, 73
2, 1024280, Control_c, 0, 64, 88
2, 1024288, Control_c, 0, 64, 24
2, 1024296, Control_c, 0, 64, 0
2, 1024324, Note_on_c, 0, 69, 0
2, 1024332, Control_c, 0, 64, 24
2, 1024344, Control_c, 0, 64, 88
2, 1024352, Note_on_c, 0, 72, 83
2, 1024352, Control_c, 0, 64, 127
2, 1024408, Note_on_c, 0, 72, 0
2, 1024416, Note_on_c, 0, 60, 0
2, 1024428, Note_on_c, 0, 53, 0
2, 1024440, Note_on_c, 0, 69, 86
2, 1024504, Note_on_c, 0, 69, 0
2, 1024528, Note_on_c, 0, 72, 86
2, 1024572, Note_on_c, 0, 65, 0
2, 1024576, Note_on_c, 0, 72, 0
2, 1024628, Note_on_c, 0, 71, 89
2, 1024628, Note_on_c, 0, 62, 69
2, 1024628, Note_on_c, 0, 55, 75
2, 1024628, Note_on_c, 0, 67, 76
2, 1024628, Note_on_c, 0, 59, 70
2, 1024628, Control_c, 0, 64, 56
2, 1024636, Control_c, 0, 64, 0
2, 1024680, Control_c, 0, 64, 56
2, 1024688, Control_c, 0, 64, 127
2, 1024708, Note_on_c, 0, 55, 0
2, 1024712, Note_on_c, 0, 62, 0
2, 1024724, Note_on_c, 0, 59, 0
2, 1024724, Note_on_c, 0, 67, 0
2, 1024728, Note_on_c, 0, 71, 0
2, 1024728, Note_on_c, 0, 74, 88
2, 1024736, Note_on_c, 0, 65, 63
2, 1024764, Note_on_c, 0, 74, 0
2, 1024784, Note_on_c, 0, 65, 0
2, 1024824, Note_on_c, 0, 77, 99
2, 1024828, Note_on_c, 0, 67, 74
2, 1024876, Note_on_c, 0, 77, 0
2, 1024888, Note_on_c, 0, 67, 0
2, 1024912, Note_on_c, 0, 71, 77
2, 1024912, Note_on_c, 0, 89, 99
2, 1024912, Note_on_c, 0, 59, 69
2, 1024912, Note_on_c, 0, 55, 76
2, 1024912, Note_on_c, 0, 67, 73
2, 1024912, Note_on_c, 0, 62, 72
2, 1024960, Note_on_c, 0, 89, 0
2, 1024964, Note_on_c, 0, 71, 0
2, 1025008, Note_on_c, 0, 67, 0
2, 1025008, Note_on_c, 0, 55, 0
2, 1025008, Note_on_c, 0, 62, 0
2, 1025008, Note_on_c, 0, 59, 0
2, 1025012, Control_c, 0, 64, 40
2, 1025020, Control_c, 0, 64, 0
2, 1025024, Note_on_c, 0, 88, 91
2, 1025024, Note_on_c, 0, 67, 68
2, 1025024, Note_on_c, 0, 60, 77
2, 1025024, Note_on_c, 0, 72, 68
2, 1025024, Note_on_c, 0, 82, 77
2, 1025024, Note_on_c, 0, 64, 72
2, 1025084, Control_c, 0, 64, 88
2, 1025092, Control_c, 0, 64, 127
2, 1025108, Note_on_c, 0, 82, 0
2, 1025108, Note_on_c, 0, 88, 0
2, 1025112, Note_on_c, 0, 60, 0
2, 1025120, Note_on_c, 0, 64, 0
2, 1025128, Note_on_c, 0, 94, 93
2, 1025136, Note_on_c, 0, 67, 0
2, 1025148, Note_on_c, 0, 72, 0
2, 1025188, Note_on_c, 0, 94, 0
2, 1025220, Note_on_c, 0, 91, 89
2, 1025284, Note_on_c, 0, 91, 0
2, 1025316, Note_on_c, 0, 88, 93
2, 1025388, Note_on_c, 0, 88, 0
2, 1025396, Control_c, 0, 64, 104
2, 1025404, Control_c, 0, 64, 40
2, 1025416, Note_on_c, 0, 84, 86
2, 1025416, Note_on_c, 0, 79, 74
2, 1025416, Note_on_c, 0, 72, 71
2, 1025416, Note_on_c, 0, 82, 73
2, 1025416, Note_on_c, 0, 60, 72
2, 1025416, Note_on_c, 0, 48, 78
2, 1025416, Control_c, 0, 64, 24
2, 1025432, Control_c, 0, 64, 72
2, 1025440, Control_c, 0, 64, 127
2, 1025472, Note_on_c, 0, 72, 0
2, 1025476, Note_on_c, 0, 79, 0
2, 1025488, Note_on_c, 0, 82, 0
2, 1025492, Note_on_c, 0, 84, 0
2, 1025512, Note_on_c, 0, 85, 88
2, 1025576, Note_on_c, 0, 85, 0
2, 1025584, Note_on_c, 0, 88, 78
2, 1025596, Note_on_c, 0, 48, 0
2, 1025596, Note_on_c, 0, 60, 0
2, 1025616, Note_on_c, 0, 86, 94
2, 1025636, Note_on_c, 0, 88, 0
2, 1025680, Note_on_c, 0, 86, 0
2, 1025696, Note_on_c, 0, 82, 90
2, 1025748, Note_on_c, 0, 82, 0
2, 1025764, Control_c, 0, 64, 72
2, 1025772, Control_c, 0, 64, 0
2, 1025796, Note_on_c, 0, 81, 89
2, 1025796, Note_on_c, 0, 65, 73
2, 1025808, Note_on_c, 0, 72, 68
2, 1025820, Control_c, 0, 64, 56
2, 1025828, Control_c, 0, 64, 127
2, 1025836, Note_on_c, 0, 81, 0
2, 1025864, Note_on_c, 0, 72, 0
2, 1025872, Note_on_c, 0, 65, 0
2, 1025884, Note_on_c, 0, 84, 95
2, 1025928, Note_on_c, 0, 84, 0
2, 1025984, Note_on_c, 0, 89, 92
2, 1025992, Note_on_c, 0, 81, 68
2, 1026028, Note_on_c, 0, 89, 0
2, 1026032, Note_on_c, 0, 81, 0
2, 1026076, Note_on_c, 0, 93, 97
2, 1026088, Note_on_c, 0, 84, 74
2, 1026136, Note_on_c, 0, 84, 0
2, 1026144, Note_on_c, 0, 93, 0
2, 1026176, Note_on_c, 0, 96, 91
2, 1026184, Note_on_c, 0, 89, 83
2, 1026220, Note_on_c, 0, 89, 0
2, 1026240, Note_on_c, 0, 96, 0
2, 1026264, Note_on_c, 0, 93, 85
2, 1026356, Note_on_c, 0, 93, 0
2, 1026364, Note_on_c, 0, 89, 81
2, 1026432, Note_on_c, 0, 89, 0
2, 1026452, Note_on_c, 0, 84, 74
2, 1026484, Note_on_c, 0, 84, 0
2, 1026556, Note_on_c, 0, 81, 82
2, 1026556, Note_on_c, 0, 65, 67
2, 1026556, Note_on_c, 0, 72, 69
2, 1026556, Note_on_c, 0, 69, 74
2, 1026556, Note_on_c, 0, 53, 74
2, 1026556, Note_on_c, 0, 60, 74
2, 1026616, Note_on_c, 0, 81, 0
2, 1026636, Note_on_c, 0, 65, 0
2, 1026640, Note_on_c, 0, 72, 0
2, 1026648, Note_on_c, 0, 84, 84
2, 1026652, Note_on_c, 0, 69, 0
2, 1026652, Note_on_c, 0, 60, 0
2, 1026652, Note_on_c, 0, 53, 0
2, 1026712, Note_on_c, 0, 84, 0
2, 1026744, Note_on_c, 0, 81, 83
2, 1026808, Note_on_c, 0, 81, 0
2, 1026836, Note_on_c, 0, 84, 78
2, 1026896, Note_on_c, 0, 84, 0
2, 1026900, Control_c, 0, 64, 88
2, 1026908, Control_c, 0, 64, 0
2, 1026936, Note_on_c, 0, 80, 71
2, 1026936, Note_on_c, 0, 72, 74
2, 1026944, Note_on_c, 0, 65, 62
2, 1026964, Control_c, 0, 64, 56
2, 1026972, Control_c, 0, 64, 127
2, 1026980, Note_on_c, 0, 80, 0
2, 1026992, Note_on_c, 0, 65, 0
2, 1027000, Note_on_c, 0, 72, 0
2, 1027032, Note_on_c, 0, 84, 83
2, 1027036, Note_on_c, 0, 77, 74
2, 1027084, Note_on_c, 0, 77, 0
2, 1027084, Note_on_c, 0, 84, 0
2, 1027124, Note_on_c, 0, 89, 91
2, 1027124, Note_on_c, 0, 80, 70
2, 1027172, Note_on_c, 0, 80, 0
2, 1027184, Note_on_c, 0, 89, 0
2, 1027220, Note_on_c, 0, 92, 97
2, 1027232, Note_on_c, 0, 84, 68
2, 1027296, Note_on_c, 0, 84, 0
2, 1027300, Note_on_c, 0, 92, 0
2, 1027316, Note_on_c, 0, 96, 100
2, 1027320, Note_on_c, 0, 89, 86
2, 1027364, Note_on_c, 0, 89, 0
2, 1027400, Note_on_c, 0, 96, 0
2, 1027420, Note_on_c, 0, 92, 88
2, 1027496, Note_on_c, 0, 92, 0
2, 1027520, Note_on_c, 0, 89, 86
2, 1027592, Note_on_c, 0, 89, 0
2, 1027608, Note_on_c, 0, 84, 84
2, 1027656, Note_on_c, 0, 84, 0
2, 1027708, Note_on_c, 0, 80, 77
2, 1027708, Note_on_c, 0, 72, 68
2, 1027708, Note_on_c, 0, 65, 73
2, 1027708, Note_on_c, 0, 60, 71
2, 1027708, Note_on_c, 0, 53, 72
2, 1027708, Note_on_c, 0, 68, 69
2, 1027784, Note_on_c, 0, 80, 0
2, 1027804, Note_on_c, 0, 53, 0
2, 1027804, Note_on_c, 0, 60, 0
2, 1027804, Note_on_c, 0, 68, 0
2, 1027808, Note_on_c, 0, 72, 0
2, 1027808, Note_on_c, 0, 84, 76
2, 1027820, Note_on_c, 0, 65, 0
2, 1027868, Note_on_c, 0, 84, 0
2, 1027904, Note_on_c, 0, 80, 76
2, 1027972, Note_on_c, 0, 80, 0
2, 1028004, Note_on_c, 0, 84, 76
2, 1028060, Note_on_c, 0, 84, 0
2, 1028140, Note_on_c, 0, 37, 81
2, 1028140, Note_on_c, 0, 49, 90
2, 1028160, Control_c, 0, 64, 88
2, 1028168, Control_c, 0, 64, 127
2, 1028204, Note_on_c, 0, 49, 0
2, 1028220, Note_on_c, 0, 37, 0
2, 1028252, Note_on_c, 0, 44, 73
2, 1028252, Note_on_c, 0, 53, 79
2, 1028296, Note_on_c, 0, 53, 0
2, 1028312, Note_on_c, 0, 44, 0
2, 1028352, Note_on_c, 0, 56, 80
2, 1028352, Note_on_c, 0, 49, 76
2, 1028412, Note_on_c, 0, 56, 0
2, 1028420, Note_on_c, 0, 49, 0
2, 1028444, Note_on_c, 0, 61, 84
2, 1028444, Note_on_c, 0, 53, 78
2, 1028516, Note_on_c, 0, 53, 0
2, 1028528, Note_on_c, 0, 61, 0
2, 1028548, Note_on_c, 0, 65, 98
2, 1028548, Note_on_c, 0, 56, 78
2, 1028584, Note_on_c, 0, 56, 0
2, 1028612, Note_on_c, 0, 65, 0
2, 1028648, Note_on_c, 0, 61, 80
2, 1028688, Note_on_c, 0, 61, 0
2, 1028732, Control_c, 0, 64, 56
2, 1028740, Control_c, 0, 64, 0
2, 1028752, Note_on_c, 0, 53, 97
2, 1028752, Note_on_c, 0, 37, 77
2, 1028752, Note_on_c, 0, 44, 74
2, 1028796, Note_on_c, 0, 53, 0
2, 1028796, Control_c, 0, 64, 88
2, 1028804, Control_c, 0, 64, 127
2, 1028812, Note_on_c, 0, 44, 0
2, 1028824, Note_on_c, 0, 37, 0
2, 1028856, Note_on_c, 0, 56, 87
2, 1028856, Note_on_c, 0, 49, 77
2, 1028916, Note_on_c, 0, 56, 0
2, 1028920, Note_on_c, 0, 49, 0
2, 1028952, Note_on_c, 0, 53, 77
2, 1028956, Note_on_c, 0, 61, 88
2, 1029024, Note_on_c, 0, 61, 0
2, 1029036, Note_on_c, 0, 53, 0
2, 1029052, Note_on_c, 0, 65, 94
2, 1029052, Note_on_c, 0, 56, 81
2, 1029128, Note_on_c, 0, 56, 0
2, 1029132, Note_on_c, 0, 65, 0
2, 1029148, Note_on_c, 0, 68, 100
2, 1029148, Note_on_c, 0, 61, 76
2, 1029148, Note_on_c, 0, 65, 74
2, 1029148, Note_on_c, 0, 56, 74
2, 1029148, Note_on_c, 0, 49, 76
2, 1029188, Note_on_c, 0, 61, 0
2, 1029220, Note_on_c, 0, 68, 0
2, 1029248, Note_on_c, 0, 65, 84
2, 1029288, Note_on_c, 0, 56, 0
2, 1029288, Note_on_c, 0, 49, 0
2, 1029288, Note_on_c, 0, 65, 0
2, 1029296, Note_on_c, 0, 65, 0
2, 1029336, Control_c, 0, 64, 72
2, 1029344, Control_c, 0, 64, 24
2, 1029356, Control_c, 0, 64, 0
2, 1029360, Note_on_c, 0, 49, 102
2, 1029368, Note_on_c, 0, 32, 73
2, 1029400, Control_c, 0, 64, 72
2, 1029408, Note_on_c, 0, 49, 0
2, 1029408, Control_c, 0, 64, 127
2, 1029464, Note_on_c, 0, 51, 95
2, 1029464, Note_on_c, 0, 61, 76
2, 1029472, Note_on_c, 0, 39, 70
2, 1029500, Note_on_c, 0, 32, 0
2, 1029516, Note_on_c, 0, 51, 0
2, 1029524, Note_on_c, 0, 61, 0
2, 1029544, Note_on_c, 0, 39, 0
2, 1029564, Note_on_c, 0, 44, 75
2, 1029568, Note_on_c, 0, 56, 88
2, 1029568, Note_on_c, 0, 61, 76
2, 1029624, Note_on_c, 0, 44, 0
2, 1029628, Note_on_c, 0, 61, 0
2, 1029632, Note_on_c, 0, 56, 0
2, 1029664, Note_on_c, 0, 61, 88
2, 1029684, Note_on_c, 0, 48, 61
2, 1029708, Note_on_c, 0, 48, 0
2, 1029744, Note_on_c, 0, 61, 0
2, 1029768, Note_on_c, 0, 63, 98
2, 1029768, Note_on_c, 0, 44, 76
2, 1029772, Note_on_c, 0, 51, 79
2, 1029812, Note_on_c, 0, 51, 0
2, 1029840, Note_on_c, 0, 63, 0
2, 1029864, Note_on_c, 0, 61, 83
2, 1029904, Note_on_c, 0, 61, 0
2, 1029908, Note_on_c, 0, 44, 0
2, 1029936, Control_c, 0, 64, 88
2, 1029944, Control_c, 0, 64, 24
2, 1029952, Control_c, 0, 64, 0
2, 1029976, Note_on_c, 0, 51, 99
2, 1029980, Note_on_c, 0, 32, 72
2, 1029996, Control_c, 0, 64, 72
2, 1030004, Control_c, 0, 64, 127
2, 1030024, Note_on_c, 0, 51, 0
2, 1030072, Note_on_c, 0, 39, 77
2, 1030076, Note_on_c, 0, 56, 83
2, 1030096, Note_on_c, 0, 32, 0
2, 1030132, Note_on_c, 0, 56, 0
2, 1030136, Note_on_c, 0, 39, 0
2, 1030164, Note_on_c, 0, 44, 74
2, 1030172, Note_on_c, 0, 60, 92
2, 1030208, Note_on_c, 0, 44, 0
2, 1030240, Note_on_c, 0, 60, 0
2, 1030268, Note_on_c, 0, 63, 91
2, 1030268, Note_on_c, 0, 51, 83
2, 1030352, Note_on_c, 0, 63, 0
2, 1030368, Note_on_c, 0, 68, 102
2, 1030368, Note_on_c, 0, 60, 76
2, 1030376, Note_on_c, 0, 56, 95
2, 1030420, Note_on_c, 0, 56, 0
2, 1030452, Note_on_c, 0, 51, 0
2, 1030472, Note_on_c, 0, 68, 0
2, 1030476, Note_on_c, 0, 63, 78
2, 1030508, Note_on_c, 0, 60, 0
2, 1030512, Note_on_c, 0, 63, 0
2, 1030564, Control_c, 0, 64, 56
2, 1030576, Control_c, 0, 64, 0
2, 1030588, Note_on_c, 0, 51, 97
2, 1030588, Note_on_c, 0, 39, 68
2, 1030628, Control_c, 0, 64, 72
2, 1030636, Control_c, 0, 64, 127
2, 1030640, Note_on_c, 0, 51, 0
2, 1030676, Note_on_c, 0, 54, 85
2, 1030696, Note_on_c, 0, 46, 68
2, 1030704, Note_on_c, 0, 39, 0
2, 1030724, Note_on_c, 0, 54, 0
2, 1030760, Note_on_c, 0, 46, 0
2, 1030772, Note_on_c, 0, 58, 79
2, 1030784, Note_on_c, 0, 51, 76
2, 1030832, Note_on_c, 0, 58, 0
2, 1030860, Note_on_c, 0, 63, 88
2, 1030864, Note_on_c, 0, 54, 78
2, 1030868, Note_on_c, 0, 51, 0
2, 1030952, Note_on_c, 0, 63, 0
2, 1030972, Note_on_c, 0, 66, 100
2, 1030980, Note_on_c, 0, 58, 78
2, 1031024, Note_on_c, 0, 58, 0
2, 1031032, Note_on_c, 0, 54, 0
2, 1031076, Note_on_c, 0, 63, 73
2, 1031084, Note_on_c, 0, 66, 0
2, 1031104, Note_on_c, 0, 63, 0
2, 1031156, Control_c, 0, 64, 104
2, 1031164, Control_c, 0, 64, 40
2, 1031172, Control_c, 0, 64, 0
2, 1031180, Note_on_c, 0, 54, 73
2, 1031184, Note_on_c, 0, 39, 59
2, 1031188, Control_c, 0, 64, 24
2, 1031196, Control_c, 0, 64, 72
2, 1031208, Control_c, 0, 64, 127
2, 1031220, Note_on_c, 0, 54, 0
2, 1031268, Note_on_c, 0, 58, 79
2, 1031268, Note_on_c, 0, 51, 73
2, 1031296, Note_on_c, 0, 39, 0
2, 1031328, Note_on_c, 0, 58, 0
2, 1031340, Note_on_c, 0, 51, 0
2, 1031360, Note_on_c, 0, 63, 87
2, 1031364, Note_on_c, 0, 54, 73
2, 1031424, Note_on_c, 0, 63, 0
2, 1031428, Note_on_c, 0, 54, 0
2, 1031452, Note_on_c, 0, 58, 79
2, 1031456, Note_on_c, 0, 66, 96
2, 1031536, Note_on_c, 0, 66, 0
2, 1031556, Note_on_c, 0, 70, 100
2, 1031556, Note_on_c, 0, 63, 80
2, 1031556, Note_on_c, 0, 66, 79
2, 1031556, Note_on_c, 0, 58, 76
2, 1031556, Note_on_c, 0, 51, 78
2, 1031608, Note_on_c, 0, 63, 0
2, 1031628, Note_on_c, 0, 58, 0
2, 1031648, Note_on_c, 0, 66, 83
2, 1031652, Note_on_c, 0, 70, 0
2, 1031684, Note_on_c, 0, 66, 0
2, 1031696, Note_on_c, 0, 58, 0
2, 1031696, Note_on_c, 0, 51, 0
2, 1031696, Note_on_c, 0, 66, 0
2, 1031752, Control_c, 0, 64, 56
2, 1031760, Control_c, 0, 64, 0
2, 1031772, Note_on_c, 0, 51, 92
2, 1031776, Note_on_c, 0, 34, 68
2, 1031796, Control_c, 0, 64, 24
2, 1031804, Control_c, 0, 64, 88
2, 1031816, Note_on_c, 0, 51, 0
2, 1031816, Control_c, 0, 64, 127
2, 1031864, Note_on_c, 0, 53, 85
2, 1031864, Note_on_c, 0, 63, 76
2, 1031868, Note_on_c, 0, 41, 77
2, 1031908, Note_on_c, 0, 34, 0
2, 1031912, Note_on_c, 0, 53, 0
2, 1031924, Note_on_c, 0, 63, 0
2, 1031932, Note_on_c, 0, 41, 0
2, 1031952, Note_on_c, 0, 46, 68
2, 1031960, Note_on_c, 0, 58, 89
2, 1031960, Note_on_c, 0, 63, 76
2, 1032000, Note_on_c, 0, 46, 0
2, 1032020, Note_on_c, 0, 63, 0
2, 1032032, Note_on_c, 0, 58, 0
2, 1032048, Note_on_c, 0, 51, 75
2, 1032052, Note_on_c, 0, 63, 91
2, 1032140, Note_on_c, 0, 63, 0
2, 1032152, Note_on_c, 0, 51, 0
2, 1032160, Note_on_c, 0, 65, 100
2, 1032164, Note_on_c, 0, 53, 84
2, 1032164, Note_on_c, 0, 46, 76
2, 1032204, Note_on_c, 0, 53, 0
2, 1032240, Note_on_c, 0, 65, 0
2, 1032252, Note_on_c, 0, 63, 82
2, 1032300, Note_on_c, 0, 63, 0
2, 1032324, Note_on_c, 0, 46, 0
2, 1032348, Control_c, 0, 64, 88
2, 1032356, Control_c, 0, 64, 40
2, 1032360, Note_on_c, 0, 53, 87
2, 1032364, Control_c, 0, 64, 0
2, 1032372, Note_on_c, 0, 34, 67
2, 1032400, Note_on_c, 0, 53, 0
2, 1032404, Control_c, 0, 64, 72
2, 1032412, Control_c, 0, 64, 127
2, 1032460, Note_on_c, 0, 58, 83
2, 1032472, Note_on_c, 0, 41, 74
2, 1032500, Note_on_c, 0, 34, 0
2, 1032516, Note_on_c, 0, 58, 0
2, 1032532, Note_on_c, 0, 41, 0
2, 1032552, Note_on_c, 0, 61, 85
2, 1032556, Note_on_c, 0, 46, 77
2, 1032596, Note_on_c, 0, 46, 0
2, 1032620, Note_on_c, 0, 61, 0
2, 1032648, Note_on_c, 0, 49, 73
2, 1032652, Note_on_c, 0, 65, 94
2, 1032732, Note_on_c, 0, 65, 0
2, 1032752, Note_on_c, 0, 70, 100
2, 1032752, Note_on_c, 0, 58, 85
2, 1032752, Note_on_c, 0, 61, 84
2, 1032828, Note_on_c, 0, 58, 0
2, 1032844, Note_on_c, 0, 70, 0
2, 1032856, Note_on_c, 0, 65, 81
2, 1032864, Note_on_c, 0, 49, 0
2, 1032892, Note_on_c, 0, 65, 0
2, 1032928, Note_on_c, 0, 61, 0
2, 1032980, Control_c, 0, 64, 104
2, 1032988, Control_c, 0, 64, 40
2, 1033000, Control_c, 0, 64, 0
2, 1033012, Note_on_c, 0, 58, 76
2, 1033016, Note_on_c, 0, 49, 71
2, 1033016, Note_on_c, 0, 42, 76
2, 1033068, Control_c, 0, 64, 88
2, 1033072, Note_on_c, 0, 58, 0
2, 1033080, Control_c, 0, 64, 127
2, 1033092, Note_on_c, 0, 42, 0
2, 1033100, Note_on_c, 0, 49, 0
2, 1033104, Note_on_c, 0, 61, 78
2, 1033108, Note_on_c, 0, 54, 71
2, 1033156, Note_on_c, 0, 61, 0
2, 1033176, Note_on_c, 0, 54, 0
2, 1033200, Note_on_c, 0, 66, 80
2, 1033208, Note_on_c, 0, 58, 68
2, 1033260, Note_on_c, 0, 66, 0
2, 1033284, Note_on_c, 0, 58, 0
2, 1033288, Note_on_c, 0, 61, 62
2, 1033292, Note_on_c, 0, 70, 87
2, 1033364, Note_on_c, 0, 70, 0
2, 1033388, Note_on_c, 0, 73, 87
2, 1033396, Note_on_c, 0, 66, 83
2, 1033444, Note_on_c, 0, 66, 0
2, 1033452, Note_on_c, 0, 61, 0
2, 1033480, Note_on_c, 0, 73, 0
2, 1033484, Note_on_c, 0, 70, 80
2, 1033560, Note_on_c, 0, 66, 73
2, 1033596, Note_on_c, 0, 70, 0
2, 1033640, Note_on_c, 0, 66, 0
2, 1033656, Note_on_c, 0, 61, 76
2, 1033712, Note_on_c, 0, 61, 0
2, 1033760, Note_on_c, 0, 58, 79
2, 1033764, Note_on_c, 0, 42, 68
2, 1033768, Note_on_c, 0, 49, 72
2, 1033772, Control_c, 0, 64, 104
2, 1033784, Control_c, 0, 64, 56
2, 1033792, Control_c, 0, 64, 0
2, 1033836, Control_c, 0, 64, 72
2, 1033840, Note_on_c, 0, 58, 0
2, 1033844, Control_c, 0, 64, 127
2, 1033860, Note_on_c, 0, 61, 78
2, 1033900, Note_on_c, 0, 42, 0
2, 1033916, Note_on_c, 0, 49, 0
2, 1033920, Note_on_c, 0, 61, 0
2, 1033948, Note_on_c, 0, 58, 76
2, 1033948, Note_on_c, 0, 70, 80
2, 1033948, Note_on_c, 0, 61, 66
2, 1033948, Note_on_c, 0, 42, 67
2, 1033948, Note_on_c, 0, 30, 79
2, 1034032, Note_on_c, 0, 58, 0
2, 1034040, Note_on_c, 0, 61, 82
2, 1034088, Note_on_c, 0, 61, 0
2, 1034128, Note_on_c, 0, 30, 0
2, 1034128, Note_on_c, 0, 70, 0
2, 1034128, Note_on_c, 0, 42, 0
2, 1034128, Note_on_c, 0, 61, 0
2, 1034140, Control_c, 0, 64, 72
2, 1034144, Note_on_c, 0, 52, 81
2, 1034144, Note_on_c, 0, 61, 88
2, 1034148, Control_c, 0, 64, 0
2, 1034152, Note_on_c, 0, 46, 71
2, 1034184, Control_c, 0, 64, 56
2, 1034192, Control_c, 0, 64, 127
2, 1034204, Note_on_c, 0, 61, 0
2, 1034216, Note_on_c, 0, 52, 0
2, 1034220, Note_on_c, 0, 46, 0
2, 1034240, Note_on_c, 0, 55, 79
2, 1034244, Note_on_c, 0, 64, 93
2, 1034312, Note_on_c, 0, 55, 0
2, 1034320, Note_on_c, 0, 64, 0
2, 1034340, Note_on_c, 0, 58, 53
2, 1034340, Note_on_c, 0, 67, 95
2, 1034380, Note_on_c, 0, 58, 0
2, 1034412, Note_on_c, 0, 67, 0
2, 1034416, Note_on_c, 0, 58, 37
2, 1034432, Note_on_c, 0, 73, 97
2, 1034436, Note_on_c, 0, 64, 63
2, 1034512, Note_on_c, 0, 64, 0
2, 1034516, Note_on_c, 0, 73, 0
2, 1034532, Note_on_c, 0, 76, 99
2, 1034540, Note_on_c, 0, 67, 85
2, 1034552, Note_on_c, 0, 64, 56
2, 1034588, Note_on_c, 0, 64, 0
2, 1034612, Note_on_c, 0, 67, 0
2, 1034612, Note_on_c, 0, 76, 0
2, 1034620, Note_on_c, 0, 73, 87
2, 1034668, Note_on_c, 0, 58, 0
2, 1034708, Note_on_c, 0, 73, 0
2, 1034728, Note_on_c, 0, 67, 83
2, 1034792, Note_on_c, 0, 67, 0
2, 1034828, Note_on_c, 0, 64, 84
2, 1034888, Note_on_c, 0, 64, 0
2, 1034916, Note_on_c, 0, 61, 88
2, 1034928, Note_on_c, 0, 55, 77
2, 1034932, Note_on_c, 0, 52, 64
2, 1034932, Note_on_c, 0, 46, 63
2, 1034992, Note_on_c, 0, 61, 0
2, 1035016, Note_on_c, 0, 64, 90
2, 1035076, Note_on_c, 0, 64, 0
2, 1035108, Note_on_c, 0, 61, 85
2, 1035108, Note_on_c, 0, 73, 83
2, 1035108, Note_on_c, 0, 67, 70
2, 1035108, Note_on_c, 0, 64, 77
2, 1035108, Note_on_c, 0, 46, 70
2, 1035108, Note_on_c, 0, 34, 77
2, 1035124, Note_on_c, 0, 52, 0
2, 1035148, Note_on_c, 0, 46, 0
2, 1035160, Note_on_c, 0, 55, 0
2, 1035184, Note_on_c, 0, 61, 0
2, 1035200, Note_on_c, 0, 64, 87
2, 1035232, Note_on_c, 0, 64, 0
2, 1035272, Control_c, 0, 64, 56
2, 1035280, Control_c, 0, 64, 0
2, 1035288, Note_on_c, 0, 67, 0
2, 1035288, Note_on_c, 0, 73, 0
2, 1035288, Note_on_c, 0, 34, 0
2, 1035288, Note_on_c, 0, 64, 0
2, 1035288, Note_on_c, 0, 46, 0
2, 1035304, Note_on_c, 0, 68, 98
2, 1035308, Note_on_c, 0, 56, 74
2, 1035308, Note_on_c, 0, 47, 75
2, 1035324, Control_c, 0, 64, 40
2, 1035332, Control_c, 0, 64, 104
2, 1035340, Control_c, 0, 64, 127
2, 1035360, Note_on_c, 0, 68, 0
2, 1035380, Note_on_c, 0, 47, 0
2, 1035400, Note_on_c, 0, 71, 96
2, 1035412, Note_on_c, 0, 56, 0
2, 1035412, Note_on_c, 0, 59, 83
2, 1035452, Note_on_c, 0, 59, 0
2, 1035492, Note_on_c, 0, 71, 0
2, 1035504, Note_on_c, 0, 76, 103
2, 1035512, Note_on_c, 0, 64, 74
2, 1035560, Note_on_c, 0, 64, 0
2, 1035580, Note_on_c, 0, 76, 0
2, 1035596, Note_on_c, 0, 80, 101
2, 1035600, Note_on_c, 0, 68, 73
2, 1035684, Note_on_c, 0, 80, 0
2, 1035696, Note_on_c, 0, 83, 103
2, 1035696, Note_on_c, 0, 68, 71
2, 1035696, Note_on_c, 0, 64, 68
2, 1035696, Note_on_c, 0, 47, 69
2, 1035696, Note_on_c, 0, 35, 80
2, 1035700, Note_on_c, 0, 71, 91
2, 1035792, Note_on_c, 0, 80, 90
2, 1035816, Note_on_c, 0, 68, 0
2, 1035816, Note_on_c, 0, 68, 0
2, 1035816, Note_on_c, 0, 83, 0
2, 1035888, Note_on_c, 0, 76, 80
2, 1035956, Note_on_c, 0, 76, 0
2, 1035956, Note_on_c, 0, 80, 0
2, 1035976, Note_on_c, 0, 71, 86
2, 1036024, Note_on_c, 0, 71, 0
2, 1036028, Note_on_c, 0, 35, 0
2, 1036028, Note_on_c, 0, 64, 0
2, 1036028, Note_on_c, 0, 47, 0
2, 1036032, Note_on_c, 0, 71, 0
2, 1036080, Note_on_c, 0, 68, 90
2, 1036084, Note_on_c, 0, 56, 71
2, 1036088, Note_on_c, 0, 59, 71
2, 1036092, Note_on_c, 0, 47, 67
2, 1036108, Control_c, 0, 64, 72
2, 1036116, Control_c, 0, 64, 40
2, 1036144, Control_c, 0, 64, 104
2, 1036152, Control_c, 0, 64, 127
2, 1036160, Note_on_c, 0, 68, 0
2, 1036172, Note_on_c, 0, 71, 88
2, 1036240, Note_on_c, 0, 71, 0
2, 1036268, Note_on_c, 0, 68, 87
2, 1036276, Note_on_c, 0, 47, 0
2, 1036280, Note_on_c, 0, 56, 0
2, 1036344, Note_on_c, 0, 68, 0
2, 1036352, Note_on_c, 0, 59, 0
2, 1036364, Note_on_c, 0, 71, 88
2, 1036408, Note_on_c, 0, 71, 0
2, 1036456, Note_on_c, 0, 67, 89
2, 1036456, Control_c, 0, 64, 56
2, 1036464, Control_c, 0, 64, 0
2, 1036468, Note_on_c, 0, 55, 79
2, 1036468, Note_on_c, 0, 47, 72
2, 1036500, Control_c, 0, 64, 24
2, 1036508, Control_c, 0, 64, 88
2, 1036520, Control_c, 0, 64, 127
2, 1036524, Note_on_c, 0, 47, 0
2, 1036540, Note_on_c, 0, 55, 0
2, 1036544, Note_on_c, 0, 70, 87
2, 1036556, Note_on_c, 0, 58, 77
2, 1036560, Note_on_c, 0, 67, 0
2, 1036608, Note_on_c, 0, 58, 0
2, 1036632, Note_on_c, 0, 73, 87
2, 1036640, Note_on_c, 0, 70, 0
2, 1036648, Note_on_c, 0, 61, 65
2, 1036672, Note_on_c, 0, 73, 0
2, 1036716, Note_on_c, 0, 76, 99
2, 1036744, Note_on_c, 0, 64, 82
2, 1036824, Note_on_c, 0, 76, 0
2, 1036832, Note_on_c, 0, 85, 103
2, 1036844, Note_on_c, 0, 73, 98
2, 1036844, Note_on_c, 0, 67, 73
2, 1036844, Note_on_c, 0, 64, 71
2, 1036844, Note_on_c, 0, 58, 70
2, 1036844, Note_on_c, 0, 47, 71
2, 1036844, Note_on_c, 0, 35, 83
2, 1036936, Note_on_c, 0, 85, 0
2, 1036936, Note_on_c, 0, 76, 82
2, 1036948, Note_on_c, 0, 64, 0
2, 1036976, Note_on_c, 0, 76, 0
2, 1036992, Note_on_c, 0, 61, 0
2, 1037024, Note_on_c, 0, 73, 80
2, 1037076, Note_on_c, 0, 73, 0
2, 1037108, Note_on_c, 0, 70, 80
2, 1037176, Note_on_c, 0, 58, 0
2, 1037176, Note_on_c, 0, 47, 0
2, 1037176, Note_on_c, 0, 64, 0
2, 1037176, Note_on_c, 0, 67, 0
2, 1037176, Note_on_c, 0, 35, 0
2, 1037180, Note_on_c, 0, 73, 0
2, 1037196, Note_on_c, 0, 70, 0
2, 1037208, Note_on_c, 0, 67, 93
2, 1037212, Note_on_c, 0, 55, 83
2, 1037216, Note_on_c, 0, 58, 82
2, 1037220, Note_on_c, 0, 47, 77
2, 1037304, Note_on_c, 0, 70, 87
2, 1037320, Note_on_c, 0, 67, 0
2, 1037384, Note_on_c, 0, 70, 0
2, 1037396, Note_on_c, 0, 47, 0
2, 1037404, Note_on_c, 0, 67, 83
2, 1037412, Note_on_c, 0, 58, 0
2, 1037480, Note_on_c, 0, 67, 0
2, 1037480, Note_on_c, 0, 70, 86
2, 1037532, Note_on_c, 0, 55, 0
2, 1037540, Control_c, 0, 64, 104
2, 1037552, Control_c, 0, 64, 40
2, 1037560, Note_on_c, 0, 70, 0
2, 1037560, Control_c, 0, 64, 0
2, 1037580, Note_on_c, 0, 47, 81
2, 1037588, Note_on_c, 0, 69, 100
2, 1037588, Note_on_c, 0, 57, 81
2, 1037604, Control_c, 0, 64, 88
2, 1037612, Control_c, 0, 64, 127
2, 1037620, Note_on_c, 0, 47, 0
2, 1037664, Note_on_c, 0, 57, 0
2, 1037680, Note_on_c, 0, 71, 92
2, 1037688, Note_on_c, 0, 69, 0
2, 1037696, Note_on_c, 0, 62, 68
2, 1037712, Note_on_c, 0, 71, 0
2, 1037772, Note_on_c, 0, 62, 0
2, 1037772, Note_on_c, 0, 74, 98
2, 1037780, Note_on_c, 0, 65, 84
2, 1037840, Note_on_c, 0, 74, 0
2, 1037856, Note_on_c, 0, 65, 0
2, 1037856, Note_on_c, 0, 81, 101
2, 1037952, Note_on_c, 0, 81, 0
2, 1037960, Note_on_c, 0, 86, 105
2, 1037960, Note_on_c, 0, 74, 104
2, 1037960, Note_on_c, 0, 69, 78
2, 1037960, Note_on_c, 0, 65, 78
2, 1037960, Note_on_c, 0, 59, 81
2, 1037960, Note_on_c, 0, 47, 84
2, 1038068, Note_on_c, 0, 81, 98
2, 1038084, Note_on_c, 0, 86, 0
2, 1038140, Note_on_c, 0, 81, 0
2, 1038152, Note_on_c, 0, 74, 90
2, 1038192, Note_on_c, 0, 74, 0
2, 1038248, Note_on_c, 0, 71, 94
2, 1038328, Note_on_c, 0, 71, 0
2, 1038348, Note_on_c, 0, 65, 88
2, 1038352, Note_on_c, 0, 62, 79
2, 1038356, Note_on_c, 0, 69, 83
2, 1038356, Note_on_c, 0, 59, 77
2, 1038360, Note_on_c, 0, 57, 77
2, 1038424, Note_on_c, 0, 69, 0
2, 1038444, Note_on_c, 0, 71, 92
2, 1038512, Note_on_c, 0, 71, 0
2, 1038540, Note_on_c, 0, 69, 90
2, 1038552, Note_on_c, 0, 65, 0
2, 1038552, Note_on_c, 0, 62, 0
2, 1038564, Note_on_c, 0, 57, 0
2, 1038568, Note_on_c, 0, 59, 0
2, 1038612, Note_on_c, 0, 69, 0
2, 1038632, Note_on_c, 0, 71, 88
2, 1038676, Note_on_c, 0, 65, 0
2, 1038676, Note_on_c, 0, 47, 0
2, 1038676, Note_on_c, 0, 59, 0
2, 1038676, Note_on_c, 0, 69, 0
2, 1038684, Note_on_c, 0, 74, 0
2, 1038696, Note_on_c, 0, 71, 0
2, 1038700, Control_c, 0, 64, 104
2, 1038708, Control_c, 0, 64, 24
2, 1038720, Control_c, 0, 64, 0
2, 1038728, Note_on_c, 0, 68, 90
2, 1038736, Note_on_c, 0, 59, 80
2, 1038736, Note_on_c, 0, 52, 83
2, 1038772, Control_c, 0, 64, 72
2, 1038780, Control_c, 0, 64, 127
2, 1038816, Note_on_c, 0, 59, 0
2, 1038820, Note_on_c, 0, 52, 0
2, 1038820, Note_on_c, 0, 71, 88
2, 1038828, Note_on_c, 0, 68, 0
2, 1038832, Note_on_c, 0, 62, 84
2, 1038852, Note_on_c, 0, 71, 0
2, 1038880, Note_on_c, 0, 62, 0
2, 1038920, Note_on_c, 0, 74, 100
2, 1038932, Note_on_c, 0, 64, 74
2, 1038976, Note_on_c, 0, 64, 0
2, 1038976, Note_on_c, 0, 74, 0
2, 1039012, Note_on_c, 0, 76, 101
2, 1039012, Note_on_c, 0, 68, 68
2, 1039096, Note_on_c, 0, 76, 0
2, 1039116, Note_on_c, 0, 86, 108
2, 1039124, Note_on_c, 0, 74, 97
2, 1039124, Note_on_c, 0, 68, 80
2, 1039124, Note_on_c, 0, 64, 77
2, 1039124, Note_on_c, 0, 59, 77
2, 1039124, Note_on_c, 0, 52, 82
2, 1039124, Note_on_c, 0, 40, 88
2, 1039204, Note_on_c, 0, 86, 0
2, 1039216, Note_on_c, 0, 76, 84
2, 1039288, Note_on_c, 0, 68, 0
2, 1039308, Note_on_c, 0, 76, 0
2, 1039308, Note_on_c, 0, 74, 82
2, 1039344, Note_on_c, 0, 74, 0
2, 1039408, Note_on_c, 0, 71, 88
2, 1039464, Note_on_c, 0, 71, 0
2, 1039504, Note_on_c, 0, 68, 83
2, 1039512, Note_on_c, 0, 62, 78
2, 1039516, Note_on_c, 0, 59, 75
2, 1039520, Note_on_c, 0, 52, 79
2, 1039548, Control_c, 0, 64, 104
2, 1039556, Control_c, 0, 64, 24
2, 1039564, Control_c, 0, 64, 0
2, 1039576, Note_on_c, 0, 68, 0
2, 1039600, Note_on_c, 0, 71, 91
2, 1039620, Control_c, 0, 64, 88
2, 1039628, Control_c, 0, 64, 127
2, 1039668, Note_on_c, 0, 71, 0
2, 1039692, Note_on_c, 0, 68, 85
2, 1039720, Note_on_c, 0, 62, 0
2, 1039724, Note_on_c, 0, 59, 0
2, 1039744, Note_on_c, 0, 52, 0
2, 1039768, Note_on_c, 0, 68, 0
2, 1039788, Note_on_c, 0, 71, 89
2, 1039840, Note_on_c, 0, 52, 0
2, 1039840, Note_on_c, 0, 59, 0
2, 1039840, Note_on_c, 0, 64, 0
2, 1039840, Note_on_c, 0, 40, 0
2, 1039864, Note_on_c, 0, 71, 0
2, 1039876, Control_c, 0, 64, 104
2, 1039888, Control_c, 0, 64, 0
2, 1039896, Note_on_c, 0, 64, 94
2, 1039908, Note_on_c, 0, 52, 84
2, 1039908, Note_on_c, 0, 45, 88
2, 1039948, Control_c, 0, 64, 72
2, 1039956, Control_c, 0, 64, 127
2, 1039968, Note_on_c, 0, 68, 0
2, 1039984, Note_on_c, 0, 45, 0
2, 1039992, Note_on_c, 0, 52, 0
2, 1039992, Note_on_c, 0, 69, 90
2, 1039996, Note_on_c, 0, 74, 0
2, 1040008, Note_on_c, 0, 57, 77
2, 1040016, Note_on_c, 0, 64, 0
2, 1040072, Note_on_c, 0, 57, 0
2, 1040084, Note_on_c, 0, 73, 87
2, 1040096, Note_on_c, 0, 69, 0
2, 1040100, Note_on_c, 0, 61, 78
2, 1040124, Note_on_c, 0, 73, 0
2, 1040172, Note_on_c, 0, 61, 0
2, 1040176, Note_on_c, 0, 76, 103
2, 1040184, Note_on_c, 0, 64, 84
2, 1040244, Note_on_c, 0, 64, 0
2, 1040296, Control_c, 0, 64, 56
2, 1040300, Note_on_c, 0, 85, 99
2, 1040300, Note_on_c, 0, 81, 92
2, 1040300, Note_on_c, 0, 33, 88
2, 1040300, Note_on_c, 0, 73, 91
2, 1040300, Note_on_c, 0, 45, 88
2, 1040300, Control_c, 0, 64, 127
2, 1040340, Note_on_c, 0, 45, 0
2, 1040344, Note_on_c, 0, 73, 0
2, 1040348, Note_on_c, 0, 81, 0
2, 1040348, Note_on_c, 0, 76, 0
2, 1040372, Note_on_c, 0, 85, 0
2, 1040404, Note_on_c, 0, 33, 0
2, 1040568, Note_on_c, 0, 61, 71
2, 1040580, Note_on_c, 0, 57, 67
2, 1040604, Note_on_c, 0, 57, 0
2, 1040612, Note_on_c, 0, 61, 0
2, 1040680, Note_on_c, 0, 61, 71
2, 1040680, Note_on_c, 0, 57, 67
2, 1040716, Note_on_c, 0, 57, 0
2, 1040724, Note_on_c, 0, 61, 0
2, 1040796, Note_on_c, 0, 61, 71
2, 1040796, Note_on_c, 0, 57, 67
2, 1040836, Note_on_c, 0, 57, 0
2, 1040840, Note_on_c, 0, 61, 0
2, 1040900, Note_on_c, 0, 61, 71
2, 1040904, Note_on_c, 0, 57, 67
2, 1040948, Note_on_c, 0, 57, 0
2, 1040948, Note_on_c, 0, 61, 0
2, 1041020, Note_on_c, 0, 81, 96
2, 1041024, Note_on_c, 0, 73, 85
2, 1041024, Note_on_c, 0, 61, 71
2, 1041024, Note_on_c, 0, 69, 83
2, 1041028, Note_on_c, 0, 57, 66
2, 1041052, Note_on_c, 0, 69, 0
2, 1041060, Note_on_c, 0, 73, 0
2, 1041068, Note_on_c, 0, 61, 0
2, 1041072, Note_on_c, 0, 57, 0
2, 1041088, Note_on_c, 0, 81, 0
2, 1041136, Note_on_c, 0, 61, 71
2, 1041140, Note_on_c, 0, 57, 66
2, 1041184, Note_on_c, 0, 61, 0
2, 1041188, Note_on_c, 0, 57, 0
2, 1041248, Note_on_c, 0, 61, 72
2, 1041248, Note_on_c, 0, 57, 67
2, 1041292, Note_on_c, 0, 61, 0
2, 1041296, Note_on_c, 0, 57, 0
2, 1041360, Note_on_c, 0, 83, 98
2, 1041364, Note_on_c, 0, 76, 84
2, 1041364, Note_on_c, 0, 61, 70
2, 1041368, Note_on_c, 0, 57, 73
2, 1041408, Note_on_c, 0, 61, 0
2, 1041408, Note_on_c, 0, 76, 0
2, 1041416, Note_on_c, 0, 57, 0
2, 1041440, Note_on_c, 0, 83, 0
2, 1041472, Note_on_c, 0, 85, 96
2, 1041476, Note_on_c, 0, 81, 93
2, 1041476, Note_on_c, 0, 57, 72
2, 1041476, Note_on_c, 0, 61, 67
2, 1041516, Note_on_c, 0, 61, 0
2, 1041528, Note_on_c, 0, 57, 0
2, 1041528, Note_on_c, 0, 81, 0
2, 1041540, Note_on_c, 0, 85, 0
2, 1041584, Note_on_c, 0, 86, 101
2, 1041588, Note_on_c, 0, 61, 72
2, 1041588, Note_on_c, 0, 83, 93
2, 1041588, Note_on_c, 0, 57, 71
2, 1041624, Note_on_c, 0, 61, 0
2, 1041628, Note_on_c, 0, 83, 0
2, 1041632, Note_on_c, 0, 57, 0
2, 1041644, Note_on_c, 0, 86, 0
2, 1041696, Note_on_c, 0, 85, 97
2, 1041700, Note_on_c, 0, 88, 104
2, 1041704, Note_on_c, 0, 57, 76
2, 1041704, Note_on_c, 0, 61, 71
2, 1041748, Note_on_c, 0, 61, 0
2, 1041752, Note_on_c, 0, 57, 0
2, 1041756, Note_on_c, 0, 85, 0
2, 1041768, Note_on_c, 0, 88, 0
2, 1041820, Note_on_c, 0, 61, 73
2, 1041824, Note_on_c, 0, 57, 75
2, 1041868, Note_on_c, 0, 61, 0
2, 1041872, Note_on_c, 0, 57, 0
2, 1041936, Note_on_c, 0, 61, 70
2, 1041936, Note_on_c, 0, 57, 58
2, 1041980, Note_on_c, 0, 61, 0
2, 1041988, Note_on_c, 0, 57, 0
2, 1042044, Note_on_c, 0, 61, 79
2, 1042048, Note_on_c, 0, 57, 63
2, 1042084, Note_on_c, 0, 61, 0
2, 1042088, Note_on_c, 0, 57, 0
2, 1042148, Note_on_c, 0, 61, 70
2, 1042152, Note_on_c, 0, 81, 97
2, 1042160, Note_on_c, 0, 57, 64
2, 1042196, Note_on_c, 0, 57, 0
2, 1042196, Note_on_c, 0, 81, 0
2, 1042196, Note_on_c, 0, 61, 0
2, 1042260, Note_on_c, 0, 61, 78
2, 1042264, Note_on_c, 0, 57, 63
2, 1042304, Note_on_c, 0, 61, 0
2, 1042308, Note_on_c, 0, 57, 0
2, 1042384, Note_on_c, 0, 61, 73
2, 1042388, Note_on_c, 0, 57, 68
2, 1042396, Note_on_c, 0, 93, 112
2, 1042400, Note_on_c, 0, 85, 87
2, 1042400, Note_on_c, 0, 81, 90
2, 1042436, Note_on_c, 0, 61, 0
2, 1042440, Note_on_c, 0, 85, 0
2, 1042440, Note_on_c, 0, 57, 0
2, 1042452, Note_on_c, 0, 81, 0
2, 1042456, Note_on_c, 0, 93, 0
2, 1042500, Note_on_c, 0, 61, 66
2, 1042508, Note_on_c, 0, 57, 58
2, 1042548, Note_on_c, 0, 61, 0
2, 1042552, Note_on_c, 0, 57, 0
2, 1042600, Note_on_c, 0, 61, 66
2, 1042604, Note_on_c, 0, 57, 58
2, 1042648, Note_on_c, 0, 61, 0
2, 1042652, Note_on_c, 0, 57, 0
2, 1042712, Note_on_c, 0, 61, 74
2, 1042724, Note_on_c, 0, 57, 63
2, 1042744, Note_on_c, 0, 57, 0
2, 1042748, Note_on_c, 0, 61, 0
2, 1042856, Control_c, 0, 64, 104
2, 1042864, Control_c, 0, 64, 40
2, 1042876, Note_on_c, 0, 69, 104
2, 1042876, Note_on_c, 0, 57, 97
2, 1042876, Note_on_c, 0, 61, 85
2, 1042876, Control_c, 0, 64, 0
2, 1042884, Note_on_c, 0, 66, 78
2, 1042888, Note_on_c, 0, 42, 87
2, 1042892, Note_on_c, 0, 54, 83
2, 1042892, Note_on_c, 0, 49, 84
2, 1042916, Note_on_c, 0, 61, 0
2, 1042920, Note_on_c, 0, 57, 0
2, 1042924, Note_on_c, 0, 42, 0
2, 1042924, Note_on_c, 0, 49, 0
2, 1042924, Control_c, 0, 64, 40
2, 1042928, Note_on_c, 0, 54, 0
2, 1042936, Control_c, 0, 64, 127
2, 1042940, Note_on_c, 0, 66, 0
2, 1042956, Note_on_c, 0, 69, 0
2, 1043152, Note_on_c, 0, 81, 98
2, 1043152, Note_on_c, 0, 69, 94
2, 1043160, Note_on_c, 0, 73, 83
2, 1043160, Note_on_c, 0, 78, 80
2, 1043184, Note_on_c, 0, 57, 68
2, 1043188, Note_on_c, 0, 54, 54
2, 1043208, Note_on_c, 0, 57, 0
2, 1043212, Note_on_c, 0, 54, 0
2, 1043248, Note_on_c, 0, 69, 0
2, 1043256, Note_on_c, 0, 73, 0
2, 1043264, Note_on_c, 0, 81, 0
2, 1043264, Note_on_c, 0, 78, 0
2, 1043276, Note_on_c, 0, 54, 65
2, 1043276, Note_on_c, 0, 57, 76
2, 1043312, Note_on_c, 0, 57, 0
2, 1043316, Note_on_c, 0, 54, 0
2, 1043388, Note_on_c, 0, 57, 73
2, 1043388, Note_on_c, 0, 54, 55
2, 1043424, Note_on_c, 0, 54, 0
2, 1043432, Note_on_c, 0, 57, 0
2, 1043508, Note_on_c, 0, 54, 55
2, 1043508, Note_on_c, 0, 57, 70
2, 1043548, Note_on_c, 0, 57, 0
2, 1043548, Note_on_c, 0, 54, 0
2, 1043620, Note_on_c, 0, 54, 57
2, 1043624, Note_on_c, 0, 57, 72
2, 1043660, Note_on_c, 0, 54, 0
2, 1043664, Note_on_c, 0, 57, 0
2, 1043728, Note_on_c, 0, 54, 63
2, 1043732, Note_on_c, 0, 57, 70
2, 1043760, Note_on_c, 0, 54, 0
2, 1043768, Note_on_c, 0, 57, 0
2, 1043832, Control_c, 0, 64, 88
2, 1043836, Note_on_c, 0, 78, 99
2, 1043840, Note_on_c, 0, 66, 83
2, 1043840, Control_c, 0, 64, 56
2, 1043844, Note_on_c, 0, 57, 71
2, 1043844, Note_on_c, 0, 69, 87
2, 1043844, Note_on_c, 0, 54, 66
2, 1043872, Control_c, 0, 64, 127
2, 1043880, Note_on_c, 0, 66, 0
2, 1043892, Note_on_c, 0, 69, 0
2, 1043892, Note_on_c, 0, 54, 0
2, 1043896, Note_on_c, 0, 57, 0
2, 1043936, Note_on_c, 0, 78, 0
2, 1043964, Note_on_c, 0, 54, 58
2, 1043964, Note_on_c, 0, 57, 72
2, 1044004, Note_on_c, 0, 54, 0
2, 1044012, Note_on_c, 0, 57, 0
2, 1044072, Note_on_c, 0, 57, 66
2, 1044076, Note_on_c, 0, 54, 57
2, 1044100, Note_on_c, 0, 54, 0
2, 1044120, Note_on_c, 0, 57, 0
2, 1044176, Note_on_c, 0, 54, 63
2, 1044180, Note_on_c, 0, 80, 89
2, 1044184, Note_on_c, 0, 57, 64
2, 1044184, Note_on_c, 0, 73, 78
2, 1044220, Note_on_c, 0, 54, 0
2, 1044228, Note_on_c, 0, 57, 0
2, 1044248, Note_on_c, 0, 73, 0
2, 1044256, Note_on_c, 0, 80, 0
2, 1044284, Note_on_c, 0, 78, 87
2, 1044284, Note_on_c, 0, 81, 90
2, 1044288, Note_on_c, 0, 54, 70
2, 1044292, Note_on_c, 0, 57, 69
2, 1044292, Note_on_c, 0, 73, 64
2, 1044324, Note_on_c, 0, 73, 0
2, 1044332, Note_on_c, 0, 54, 0
2, 1044336, Note_on_c, 0, 57, 0
2, 1044348, Note_on_c, 0, 81, 0
2, 1044348, Note_on_c, 0, 78, 0
2, 1044384, Note_on_c, 0, 83, 98
2, 1044388, Note_on_c, 0, 80, 86
2, 1044400, Note_on_c, 0, 54, 70
2, 1044400, Note_on_c, 0, 57, 70
2, 1044432, Note_on_c, 0, 83, 0
2, 1044440, Note_on_c, 0, 54, 0
2, 1044444, Note_on_c, 0, 80, 0
2, 1044448, Note_on_c, 0, 57, 0
2, 1044508, Note_on_c, 0, 85, 100
2, 1044508, Note_on_c, 0, 73, 93
2, 1044512, Note_on_c, 0, 81, 93
2, 1044520, Note_on_c, 0, 54, 65
2, 1044520, Note_on_c, 0, 57, 80
2, 1044560, Note_on_c, 0, 54, 0
2, 1044568, Note_on_c, 0, 57, 0
2, 1044572, Note_on_c, 0, 73, 0
2, 1044596, Note_on_c, 0, 81, 0
2, 1044612, Note_on_c, 0, 85, 0
2, 1044628, Note_on_c, 0, 54, 66
2, 1044632, Note_on_c, 0, 57, 71
2, 1044672, Note_on_c, 0, 54, 0
2, 1044680, Note_on_c, 0, 57, 0
2, 1044728, Note_on_c, 0, 57, 67
2, 1044736, Note_on_c, 0, 54, 63
2, 1044776, Note_on_c, 0, 54, 0
2, 1044784, Note_on_c, 0, 57, 0
2, 1044832, Note_on_c, 0, 57, 67
2, 1044832, Note_on_c, 0, 54, 68
2, 1044876, Note_on_c, 0, 54, 0
2, 1044880, Note_on_c, 0, 57, 0
2, 1044940, Note_on_c, 0, 78, 98
2, 1044948, Note_on_c, 0, 54, 62
2, 1044948, Note_on_c, 0, 57, 80
2, 1044988, Note_on_c, 0, 54, 0
2, 1044996, Note_on_c, 0, 57, 0
2, 1045012, Note_on_c, 0, 78, 0
2, 1045048, Note_on_c, 0, 57, 74
2, 1045052, Note_on_c, 0, 54, 73
2, 1045092, Note_on_c, 0, 54, 0
2, 1045100, Note_on_c, 0, 57, 0
2, 1045172, Note_on_c, 0, 81, 94
2, 1045172, Note_on_c, 0, 78, 98
2, 1045172, Note_on_c, 0, 57, 81
2, 1045172, Note_on_c, 0, 54, 68
2, 1045172, Note_on_c, 0, 90, 103
2, 1045212, Note_on_c, 0, 81, 0
2, 1045216, Note_on_c, 0, 78, 0
2, 1045224, Note_on_c, 0, 54, 0
2, 1045228, Note_on_c, 0, 57, 0
2, 1045240, Note_on_c, 0, 90, 0
2, 1045276, Note_on_c, 0, 57, 69
2, 1045280, Note_on_c, 0, 54, 63
2, 1045324, Note_on_c, 0, 54, 0
2, 1045332, Note_on_c, 0, 57, 0
2, 1045376, Note_on_c, 0, 57, 64
2, 1045384, Note_on_c, 0, 54, 59
2, 1045424, Note_on_c, 0, 54, 0
2, 1045432, Note_on_c, 0, 57, 0
2, 1045484, Note_on_c, 0, 57, 63
2, 1045560, Note_on_c, 0, 57, 0
2, 1045576, Control_c, 0, 64, 104
2, 1045584, Control_c, 0, 64, 24
2, 1045596, Control_c, 0, 64, 0
2, 1045620, Note_on_c, 0, 69, 94
2, 1045624, Note_on_c, 0, 78, 102
2, 1045624, Note_on_c, 0, 73, 92
2, 1045628, Note_on_c, 0, 61, 87
2, 1045628, Note_on_c, 0, 66, 90
2, 1045628, Note_on_c, 0, 57, 81
2, 1045656, Note_on_c, 0, 66, 0
2, 1045656, Control_c, 0, 64, 40
2, 1045660, Note_on_c, 0, 69, 0
2, 1045664, Note_on_c, 0, 61, 0
2, 1045664, Note_on_c, 0, 73, 0
2, 1045664, Control_c, 0, 64, 127
2, 1045676, Note_on_c, 0, 78, 0
2, 1045676, Note_on_c, 0, 57, 0
2, 1045848, Control_c, 0, 64, 88
2, 1045856, Control_c, 0, 64, 0
2, 1045872, Note_on_c, 0, 48, 97
2, 1045872, Note_on_c, 0, 36, 85
2, 1045872, Note_on_c, 0, 59, 76
2, 1045872, Note_on_c, 0, 47, 78
2, 1045872, Note_on_c, 0, 81, 84
2, 1045872, Note_on_c, 0, 78, 80
2, 1045872, Note_on_c, 0, 69, 80
2, 1045900, Note_on_c, 0, 36, 0
2, 1045908, Note_on_c, 0, 48, 0
2, 1045916, Control_c, 0, 64, 56
2, 1045928, Control_c, 0, 64, 104
2, 1045936, Control_c, 0, 64, 127
2, 1045976, Note_on_c, 0, 60, 89
2, 1046012, Note_on_c, 0, 47, 0
2, 1046012, Note_on_c, 0, 59, 0
2, 1046028, Control_c, 0, 64, 72
2, 1046036, Note_on_c, 0, 60, 0
2, 1046040, Control_c, 0, 64, 24
2, 1046048, Control_c, 0, 64, 0
2, 1046084, Note_on_c, 0, 47, 88
2, 1046088, Note_on_c, 0, 35, 75
2, 1046104, Note_on_c, 0, 35, 0
2, 1046116, Control_c, 0, 64, 24
2, 1046124, Note_on_c, 0, 47, 0
2, 1046128, Control_c, 0, 64, 40
2, 1046168, Control_c, 0, 64, 24
2, 1046192, Note_on_c, 0, 59, 84
2, 1046248, Control_c, 0, 64, 0
2, 1046252, Note_on_c, 0, 59, 0
2, 1046292, Note_on_c, 0, 51, 97
2, 1046300, Note_on_c, 0, 39, 77
2, 1046328, Note_on_c, 0, 51, 0
2, 1046344, Note_on_c, 0, 39, 0
2, 1046396, Note_on_c, 0, 63, 87
2, 1046472, Note_on_c, 0, 63, 0
2, 1046504, Note_on_c, 0, 47, 94
2, 1046504, Note_on_c, 0, 35, 83
2, 1046532, Note_on_c, 0, 35, 0
2, 1046544, Note_on_c, 0, 47, 0
2, 1046576, Note_on_c, 0, 78, 0
2, 1046576, Note_on_c, 0, 81, 0
2, 1046576, Note_on_c, 0, 69, 0
2, 1046604, Note_on_c, 0, 59, 95
2, 1046668, Note_on_c, 0, 59, 0
2, 1046700, Note_on_c, 0, 54, 106
2, 1046700, Note_on_c, 0, 42, 87
2, 1046712, Control_c, 0, 64, 40
2, 1046720, Control_c, 0, 64, 104
2, 1046732, Control_c, 0, 64, 127
2, 1046740, Note_on_c, 0, 54, 0
2, 1046748, Note_on_c, 0, 42, 0
2, 1046804, Note_on_c, 0, 66, 91
2, 1046868, Note_on_c, 0, 66, 0
2, 1046912, Note_on_c, 0, 47, 93
2, 1046912, Note_on_c, 0, 35, 79
2, 1046912, Note_on_c, 0, 66, 84
2, 1046932, Control_c, 0, 64, 104
2, 1046944, Note_on_c, 0, 35, 0
2, 1046944, Control_c, 0, 64, 88
2, 1046952, Control_c, 0, 64, 56
2, 1046956, Note_on_c, 0, 47, 0
2, 1046964, Control_c, 0, 64, 40
2, 1046972, Control_c, 0, 64, 24
2, 1046976, Note_on_c, 0, 66, 0
2, 1046984, Control_c, 0, 64, 0
2, 1047024, Note_on_c, 0, 59, 87
2, 1047092, Note_on_c, 0, 59, 0
2, 1047124, Note_on_c, 0, 49, 99
2, 1047124, Note_on_c, 0, 37, 86
2, 1047124, Note_on_c, 0, 80, 84
2, 1047124, Note_on_c, 0, 68, 80
2, 1047124, Note_on_c, 0, 76, 80
2, 1047124, Note_on_c, 0, 59, 78
2, 1047124, Note_on_c, 0, 47, 80
2, 1047160, Note_on_c, 0, 37, 0
2, 1047160, Note_on_c, 0, 49, 0
2, 1047232, Note_on_c, 0, 61, 84
2, 1047268, Note_on_c, 0, 59, 0
2, 1047268, Note_on_c, 0, 47, 0
2, 1047296, Note_on_c, 0, 61, 0
2, 1047340, Note_on_c, 0, 47, 94
2, 1047340, Note_on_c, 0, 35, 79
2, 1047360, Note_on_c, 0, 35, 0
2, 1047376, Note_on_c, 0, 47, 0
2, 1047440, Note_on_c, 0, 59, 84
2, 1047504, Note_on_c, 0, 76, 0
2, 1047524, Note_on_c, 0, 59, 0
2, 1047548, Note_on_c, 0, 52, 94
2, 1047548, Note_on_c, 0, 40, 74
2, 1047568, Note_on_c, 0, 52, 0
2, 1047576, Note_on_c, 0, 40, 0
2, 1047632, Note_on_c, 0, 64, 92
2, 1047660, Note_on_c, 0, 46, 50
2, 1047676, Note_on_c, 0, 46, 0
2, 1047688, Note_on_c, 0, 64, 0
2, 1047736, Note_on_c, 0, 35, 83
2, 1047740, Note_on_c, 0, 47, 100
2, 1047768, Note_on_c, 0, 35, 0
2, 1047776, Note_on_c, 0, 47, 0
2, 1047828, Note_on_c, 0, 59, 93
2, 1047872, Note_on_c, 0, 80, 0
2, 1047872, Note_on_c, 0, 68, 0
2, 1047896, Note_on_c, 0, 59, 0
2, 1047936, Note_on_c, 0, 56, 103
2, 1047940, Note_on_c, 0, 44, 83
2, 1047944, Control_c, 0, 64, 40
2, 1047956, Control_c, 0, 64, 127
2, 1047976, Note_on_c, 0, 56, 0
2, 1047988, Note_on_c, 0, 44, 0
2, 1048036, Note_on_c, 0, 68, 93
2, 1048104, Note_on_c, 0, 68, 0
2, 1048152, Note_on_c, 0, 47, 91
2, 1048152, Note_on_c, 0, 35, 83
2, 1048152, Note_on_c, 0, 68, 84
2, 1048156, Control_c, 0, 64, 104
2, 1048168, Control_c, 0, 64, 72
2, 1048176, Control_c, 0, 64, 40
2, 1048188, Control_c, 0, 64, 0
2, 1048196, Note_on_c, 0, 35, 0
2, 1048196, Note_on_c, 0, 47, 0
2, 1048252, Note_on_c, 0, 59, 82
2, 1048296, Note_on_c, 0, 68, 0
2, 1048324, Note_on_c, 0, 59, 0
2, 1048352, Note_on_c, 0, 49, 93
2, 1048352, Note_on_c, 0, 37, 77
2, 1048352, Note_on_c, 0, 83, 88
2, 1048352, Note_on_c, 0, 71, 80
2, 1048352, Note_on_c, 0, 59, 78
2, 1048352, Note_on_c, 0, 47, 79
2, 1048352, Note_on_c, 0, 80, 79
2, 1048388, Note_on_c, 0, 49, 0
2, 1048400, Note_on_c, 0, 37, 0
2, 1048464, Note_on_c, 0, 61, 83
2, 1048528, Note_on_c, 0, 61, 0
2, 1048556, Note_on_c, 0, 47, 96
2, 1048556, Note_on_c, 0, 35, 82
2, 1048584, Note_on_c, 0, 35, 0
2, 1048600, Note_on_c, 0, 47, 0
2, 1048660, Note_on_c, 0, 59, 86
2, 1048752, Note_on_c, 0, 59, 0
2, 1048760, Note_on_c, 0, 53, 95
2, 1048768, Note_on_c, 0, 41, 85
2, 1048796, Note_on_c, 0, 53, 0
2, 1048812, Note_on_c, 0, 41, 0
2, 1048864, Note_on_c, 0, 65, 87
2, 1048932, Note_on_c, 0, 65, 0
2, 1048968, Note_on_c, 0, 47, 98
2, 1048968, Note_on_c, 0, 35, 83
2, 1049004, Note_on_c, 0, 35, 0
2, 1049020, Note_on_c, 0, 47, 0
2, 1049056, Note_on_c, 0, 59, 0
2, 1049056, Note_on_c, 0, 80, 0
2, 1049056, Note_on_c, 0, 71, 0
2, 1049056, Note_on_c, 0, 47, 0
2, 1049056, Note_on_c, 0, 83, 0
2, 1049064, Note_on_c, 0, 59, 94
2, 1049132, Note_on_c, 0, 59, 0
2, 1049172, Note_on_c, 0, 56, 106
2, 1049176, Note_on_c, 0, 44, 88
2, 1049180, Control_c, 0, 64, 72
2, 1049192, Control_c, 0, 64, 127
2, 1049216, Note_on_c, 0, 56, 0
2, 1049224, Note_on_c, 0, 44, 0
2, 1049264, Note_on_c, 0, 68, 90
2, 1049340, Note_on_c, 0, 68, 0
2, 1049376, Note_on_c, 0, 35, 79
2, 1049376, Note_on_c, 0, 47, 87
2, 1049376, Note_on_c, 0, 68, 87
2, 1049384, Control_c, 0, 64, 104
2, 1049396, Control_c, 0, 64, 88
2, 1049404, Control_c, 0, 64, 56
2, 1049416, Note_on_c, 0, 35, 0
2, 1049416, Control_c, 0, 64, 40
2, 1049420, Note_on_c, 0, 47, 0
2, 1049424, Control_c, 0, 64, 24
2, 1049436, Control_c, 0, 64, 0
2, 1049472, Note_on_c, 0, 59, 88
2, 1049516, Note_on_c, 0, 68, 0
2, 1049560, Note_on_c, 0, 59, 0
2, 1049576, Note_on_c, 0, 37, 84
2, 1049576, Note_on_c, 0, 49, 100
2, 1049576, Note_on_c, 0, 81, 89
2, 1049576, Note_on_c, 0, 78, 83
2, 1049576, Note_on_c, 0, 69, 83
2, 1049576, Note_on_c, 0, 59, 83
2, 1049576, Note_on_c, 0, 47, 84
2, 1049616, Note_on_c, 0, 49, 0
2, 1049616, Note_on_c, 0, 37, 0
2, 1049680, Note_on_c, 0, 61, 85
2, 1049748, Note_on_c, 0, 61, 0
2, 1049772, Note_on_c, 0, 35, 82
2, 1049776, Note_on_c, 0, 47, 93
2, 1049812, Note_on_c, 0, 35, 0
2, 1049820, Note_on_c, 0, 47, 0
2, 1049880, Note_on_c, 0, 59, 88
2, 1049956, Note_on_c, 0, 59, 0
2, 1049980, Note_on_c, 0, 54, 101
2, 1049984, Note_on_c, 0, 42, 83
2, 1050016, Note_on_c, 0, 54, 0
2, 1050024, Note_on_c, 0, 42, 0
2, 1050076, Note_on_c, 0, 66, 90
2, 1050156, Note_on_c, 0, 66, 0
2, 1050172, Note_on_c, 0, 35, 81
2, 1050172, Note_on_c, 0, 47, 94
2, 1050180, Control_c, 0, 64, 24
2, 1050192, Control_c, 0, 64, 72
2, 1050200, Control_c, 0, 64, 127
2, 1050208, Note_on_c, 0, 35, 0
2, 1050216, Note_on_c, 0, 47, 0
2, 1050216, Note_on_c, 0, 47, 0
2, 1050268, Note_on_c, 0, 59, 93
2, 1050300, Note_on_c, 0, 69, 0
2, 1050300, Note_on_c, 0, 81, 0
2, 1050300, Note_on_c, 0, 78, 0
2, 1050300, Note_on_c, 0, 59, 0
2, 1050336, Note_on_c, 0, 59, 0
2, 1050344, Control_c, 0, 64, 72
2, 1050352, Control_c, 0, 64, 24
2, 1050360, Control_c, 0, 64, 0
2, 1050380, Note_on_c, 0, 57, 94
2, 1050380, Note_on_c, 0, 45, 88
2, 1050392, Control_c, 0, 64, 24
2, 1050404, Control_c, 0, 64, 72
2, 1050412, Control_c, 0, 64, 127
2, 1050416, Note_on_c, 0, 45, 0
2, 1050420, Note_on_c, 0, 57, 0
2, 1050476, Note_on_c, 0, 69, 98
2, 1050540, Note_on_c, 0, 69, 0
2, 1050584, Note_on_c, 0, 47, 94
2, 1050584, Note_on_c, 0, 35, 82
2, 1050584, Note_on_c, 0, 69, 84
2, 1050624, Note_on_c, 0, 35, 0
2, 1050628, Note_on_c, 0, 47, 0
2, 1050684, Note_on_c, 0, 59, 93
2, 1050756, Note_on_c, 0, 59, 0
2, 1050756, Control_c, 0, 64, 88
2, 1050764, Control_c, 0, 64, 0
2, 1050792, Note_on_c, 0, 58, 97
2, 1050792, Note_on_c, 0, 85, 90
2, 1050792, Note_on_c, 0, 82, 82
2, 1050792, Note_on_c, 0, 73, 83
2, 1050792, Note_on_c, 0, 59, 78
2, 1050792, Note_on_c, 0, 47, 82
2, 1050824, Control_c, 0, 64, 24
2, 1050828, Note_on_c, 0, 58, 0
2, 1050836, Control_c, 0, 64, 88
2, 1050844, Control_c, 0, 64, 127
2, 1050900, Note_on_c, 0, 70, 92
2, 1050920, Note_on_c, 0, 69, 0
2, 1050968, Note_on_c, 0, 70, 0
2, 1050996, Note_on_c, 0, 47, 94
2, 1051036, Note_on_c, 0, 47, 0
2, 1051108, Note_on_c, 0, 59, 88
2, 1051168, Note_on_c, 0, 59, 0
2, 1051168, Note_on_c, 0, 59, 0
2, 1051172, Note_on_c, 0, 73, 0
2, 1051172, Note_on_c, 0, 82, 0
2, 1051172, Note_on_c, 0, 47, 0
2, 1051172, Note_on_c, 0, 85, 0
2, 1051188, Control_c, 0, 64, 72
2, 1051196, Control_c, 0, 64, 24
2, 1051208, Note_on_c, 0, 61, 103
2, 1051228, Control_c, 0, 64, 127
2, 1051244, Note_on_c, 0, 61, 0
2, 1051300, Note_on_c, 0, 73, 90
2, 1051364, Note_on_c, 0, 73, 0
2, 1051404, Note_on_c, 0, 47, 88
2, 1051444, Note_on_c, 0, 47, 0
2, 1051508, Note_on_c, 0, 59, 89
2, 1051560, Note_on_c, 0, 59, 0
2, 1051600, Control_c, 0, 64, 56
2, 1051608, Note_on_c, 0, 64, 106
2, 1051620, Control_c, 0, 64, 72
2, 1051632, Control_c, 0, 64, 127
2, 1051652, Note_on_c, 0, 64, 0
2, 1051712, Note_on_c, 0, 76, 98
2, 1051760, Note_on_c, 0, 76, 0
2, 1051808, Note_on_c, 0, 47, 87
2, 1051840, Note_on_c, 0, 47, 0
2, 1051908, Note_on_c, 0, 59, 91
2, 1051948, Note_on_c, 0, 59, 0
2, 1052004, Control_c, 0, 64, 72
2, 1052012, Control_c, 0, 64, 0
2, 1052016, Note_on_c, 0, 64, 98
2, 1052016, Note_on_c, 0, 61, 85
2, 1052020, Note_on_c, 0, 55, 88
2, 1052020, Note_on_c, 0, 58, 73
2, 1052048, Note_on_c, 0, 64, 0
2, 1052052, Note_on_c, 0, 61, 0
2, 1052052, Control_c, 0, 64, 40
2, 1052056, Note_on_c, 0, 55, 0
2, 1052060, Note_on_c, 0, 58, 0
2, 1052064, Control_c, 0, 64, 127
2, 1052108, Note_on_c, 0, 67, 91
2, 1052108, Note_on_c, 0, 76, 98
2, 1052108, Note_on_c, 0, 70, 83
2, 1052108, Note_on_c, 0, 73, 78
2, 1052148, Note_on_c, 0, 67, 0
2, 1052152, Note_on_c, 0, 70, 0
2, 1052156, Note_on_c, 0, 76, 0
2, 1052156, Note_on_c, 0, 73, 0
2, 1052212, Note_on_c, 0, 47, 88
2, 1052252, Note_on_c, 0, 47, 0
2, 1052320, Note_on_c, 0, 59, 85
2, 1052364, Note_on_c, 0, 59, 0
2, 1052396, Control_c, 0, 64, 72
2, 1052404, Control_c, 0, 64, 0
2, 1052420, Note_on_c, 0, 64, 98
2, 1052420, Note_on_c, 0, 61, 87
2, 1052420, Note_on_c, 0, 55, 87
2, 1052420, Note_on_c, 0, 58, 77
2, 1052428, Control_c, 0, 64, 24
2, 1052436, Control_c, 0, 64, 72
2, 1052448, Control_c, 0, 64, 127
2, 1052452, Note_on_c, 0, 64, 0
2, 1052456, Note_on_c, 0, 61, 0
2, 1052456, Note_on_c, 0, 55, 0
2, 1052468, Note_on_c, 0, 58, 0
2, 1052516, Note_on_c, 0, 76, 96
2, 1052520, Note_on_c, 0, 67, 85
2, 1052524, Note_on_c, 0, 70, 78
2, 1052524, Note_on_c, 0, 73, 77
2, 1052564, Note_on_c, 0, 67, 0
2, 1052568, Note_on_c, 0, 70, 0
2, 1052572, Note_on_c, 0, 76, 0
2, 1052572, Note_on_c, 0, 73, 0
2, 1052612, Note_on_c, 0, 47, 92
2, 1052652, Note_on_c, 0, 47, 0
2, 1052720, Note_on_c, 0, 59, 89
2, 1052768, Note_on_c, 0, 59, 0
2, 1052824, Note_on_c, 0, 64, 98
2, 1052824, Note_on_c, 0, 55, 81
2, 1052824, Note_on_c, 0, 58, 77
2, 1052828, Note_on_c, 0, 61, 79
2, 1052852, Note_on_c, 0, 55, 0
2, 1052856, Note_on_c, 0, 61, 0
2, 1052860, Note_on_c, 0, 64, 0
2, 1052872, Note_on_c, 0, 58, 0
2, 1052932, Note_on_c, 0, 76, 90
2, 1052936, Note_on_c, 0, 67, 83
2, 1052936, Note_on_c, 0, 70, 76
2, 1052944, Note_on_c, 0, 73, 68
2, 1053000, Note_on_c, 0, 76, 0
2, 1053008, Note_on_c, 0, 73, 0
2, 1053020, Note_on_c, 0, 47, 98
2, 1053036, Note_on_c, 0, 67, 0
2, 1053056, Note_on_c, 0, 70, 0
2, 1053068, Note_on_c, 0, 47, 0
2, 1053124, Note_on_c, 0, 59, 89
2, 1053164, Note_on_c, 0, 59, 0
2, 1053288, Note_on_c, 0, 66, 88
2, 1053292, Note_on_c, 0, 71, 108
2, 1053292, Note_on_c, 0, 64, 93
2, 1053312, Note_on_c, 0, 78, 92
2, 1053320, Control_c, 0, 64, 88
2, 1053332, Control_c, 0, 64, 0
2, 1053396, Note_on_c, 0, 78, 0
2, 1053404, Note_on_c, 0, 80, 83
2, 1053424, Control_c, 0, 64, 72
2, 1053432, Control_c, 0, 64, 127
2, 1053460, Note_on_c, 0, 78, 85
2, 1053464, Note_on_c, 0, 80, 0
2, 1053516, Note_on_c, 0, 78, 0
2, 1053516, Note_on_c, 0, 80, 79
2, 1053528, Note_on_c, 0, 71, 0
2, 1053544, Note_on_c, 0, 64, 0
2, 1053556, Note_on_c, 0, 66, 0
2, 1053572, Note_on_c, 0, 80, 0
2, 1053572, Note_on_c, 0, 78, 78
2, 1053620, Note_on_c, 0, 78, 0
2, 1053620, Note_on_c, 0, 80, 74
2, 1053668, Note_on_c, 0, 78, 68
2, 1053672, Note_on_c, 0, 80, 0
2, 1053716, Note_on_c, 0, 80, 65
2, 1053720, Note_on_c, 0, 78, 0
2, 1053776, Note_on_c, 0, 80, 0
2, 1053780, Note_on_c, 0, 78, 63
2, 1053804, Note_on_c, 0, 59, 94
2, 1053820, Note_on_c, 0, 78, 0
2, 1053824, Note_on_c, 0, 80, 70
2, 1053860, Note_on_c, 0, 59, 0
2, 1053880, Note_on_c, 0, 80, 0
2, 1053884, Note_on_c, 0, 78, 73
2, 1053928, Note_on_c, 0, 78, 0
2, 1053928, Note_on_c, 0, 80, 73
2, 1053984, Note_on_c, 0, 78, 73
2, 1053988, Note_on_c, 0, 80, 0
2, 1054032, Note_on_c, 0, 78, 0
2, 1054036, Note_on_c, 0, 80, 72
2, 1054080, Note_on_c, 0, 61, 90
2, 1054092, Note_on_c, 0, 80, 0
2, 1054092, Note_on_c, 0, 78, 75
2, 1054132, Note_on_c, 0, 61, 0
2, 1054140, Note_on_c, 0, 78, 0
2, 1054144, Note_on_c, 0, 80, 78
2, 1054164, Note_on_c, 0, 63, 92
2, 1054200, Note_on_c, 0, 80, 0
2, 1054200, Note_on_c, 0, 78, 74
2, 1054224, Note_on_c, 0, 63, 0
2, 1054240, Note_on_c, 0, 64, 98
2, 1054244, Note_on_c, 0, 78, 0
2, 1054244, Note_on_c, 0, 80, 73
2, 1054292, Note_on_c, 0, 64, 0
2, 1054304, Note_on_c, 0, 80, 0
2, 1054312, Note_on_c, 0, 78, 77
2, 1054344, Note_on_c, 0, 66, 107
2, 1054352, Note_on_c, 0, 80, 75
2, 1054364, Note_on_c, 0, 78, 0
2, 1054388, Note_on_c, 0, 66, 0
2, 1054412, Note_on_c, 0, 80, 0
2, 1054428, Note_on_c, 0, 78, 85
2, 1054476, Note_on_c, 0, 78, 0
2, 1054476, Note_on_c, 0, 80, 82
2, 1054540, Note_on_c, 0, 80, 0
2, 1054544, Note_on_c, 0, 78, 78
2, 1054596, Note_on_c, 0, 78, 0
2, 1054600, Note_on_c, 0, 80, 79
2, 1054648, Note_on_c, 0, 80, 0
2, 1054660, Note_on_c, 0, 78, 80
2, 1054692, Note_on_c, 0, 59, 94
2, 1054696, Note_on_c, 0, 78, 0
2, 1054696, Note_on_c, 0, 80, 78
2, 1054752, Note_on_c, 0, 80, 0
2, 1054756, Note_on_c, 0, 78, 86
2, 1054776, Note_on_c, 0, 59, 0
2, 1054800, Note_on_c, 0, 80, 78
2, 1054804, Note_on_c, 0, 78, 0
2, 1054860, Note_on_c, 0, 80, 0
2, 1054872, Note_on_c, 0, 78, 78
2, 1054892, Note_on_c, 0, 71, 113
2, 1054924, Note_on_c, 0, 78, 0
2, 1054924, Note_on_c, 0, 80, 82
2, 1054984, Note_on_c, 0, 80, 0
2, 1054992, Note_on_c, 0, 78, 82
2, 1055032, Note_on_c, 0, 78, 0
2, 1055040, Note_on_c, 0, 80, 77
2, 1055088, Note_on_c, 0, 80, 0
2, 1055096, Note_on_c, 0, 78, 78
2, 1055128, Note_on_c, 0, 78, 0
2, 1055132, Note_on_c, 0, 80, 65
2, 1055184, Note_on_c, 0, 80, 0
2, 1055192, Note_on_c, 0, 78, 82
2, 1055232, Note_on_c, 0, 78, 0
2, 1055244, Note_on_c, 0, 80, 79
2, 1055264, Note_on_c, 0, 59, 88
2, 1055264, Note_on_c, 0, 66, 88
2, 1055284, Note_on_c, 0, 80, 0
2, 1055296, Note_on_c, 0, 78, 79
2, 1055324, Note_on_c, 0, 78, 0
2, 1055324, Note_on_c, 0, 71, 0
2, 1055332, Note_on_c, 0, 80, 78
2, 1055384, Note_on_c, 0, 80, 0
2, 1055384, Note_on_c, 0, 78, 88
2, 1055404, Note_on_c, 0, 59, 0
2, 1055404, Note_on_c, 0, 66, 0
2, 1055428, Note_on_c, 0, 78, 0
2, 1055428, Note_on_c, 0, 80, 78
2, 1055480, Note_on_c, 0, 80, 0
2, 1055492, Control_c, 0, 64, 88
2, 1055496, Note_on_c, 0, 78, 82
2, 1055496, Note_on_c, 0, 69, 89
2, 1055496, Note_on_c, 0, 76, 113
2, 1055496, Note_on_c, 0, 71, 94
2, 1055496, Note_on_c, 0, 59, 78
2, 1055496, Note_on_c, 0, 47, 84
2, 1055496, Note_on_c, 0, 66, 76
2, 1055496, Note_on_c, 0, 64, 74
2, 1055520, Control_c, 0, 64, 127
2, 1055540, Note_on_c, 0, 78, 0
2, 1055544, Note_on_c, 0, 80, 84
2, 1055556, Note_on_c, 0, 69, 0
2, 1055564, Note_on_c, 0, 71, 0
2, 1055564, Note_on_c, 0, 76, 0
2, 1055592, Note_on_c, 0, 80, 0
2, 1055604, Note_on_c, 0, 78, 80
2, 1055636, Note_on_c, 0, 64, 0
2, 1055636, Note_on_c, 0, 66, 0
2, 1055648, Note_on_c, 0, 78, 0
2, 1055652, Note_on_c, 0, 80, 79
2, 1055704, Note_on_c, 0, 80, 0
2, 1055712, Note_on_c, 0, 78, 76
2, 1055736, Note_on_c, 0, 47, 0
2, 1055748, Note_on_c, 0, 78, 0
2, 1055756, Note_on_c, 0, 80, 72
2, 1055804, Note_on_c, 0, 80, 0
2, 1055816, Note_on_c, 0, 78, 78
2, 1055852, Note_on_c, 0, 80, 74
2, 1055856, Note_on_c, 0, 78, 0
2, 1055908, Note_on_c, 0, 80, 0
2, 1055916, Note_on_c, 0, 78, 77
2, 1055956, Note_on_c, 0, 78, 0
2, 1055956, Note_on_c, 0, 80, 72
2, 1056012, Note_on_c, 0, 80, 0
2, 1056024, Note_on_c, 0, 78, 82
2, 1056024, Note_on_c, 0, 66, 96
2, 1056064, Note_on_c, 0, 80, 74
2, 1056068, Note_on_c, 0, 78, 0
2, 1056080, Note_on_c, 0, 66, 0
2, 1056120, Note_on_c, 0, 80, 0
2, 1056128, Note_on_c, 0, 78, 86
2, 1056168, Note_on_c, 0, 78, 0
2, 1056172, Note_on_c, 0, 80, 79
2, 1056236, Note_on_c, 0, 80, 0
2, 1056252, Note_on_c, 0, 78, 64
2, 1056260, Note_on_c, 0, 59, 0
2, 1056284, Note_on_c, 0, 69, 93
2, 1056308, Note_on_c, 0, 80, 72
2, 1056312, Note_on_c, 0, 78, 0
2, 1056340, Note_on_c, 0, 69, 0
2, 1056368, Note_on_c, 0, 71, 97
2, 1056376, Note_on_c, 0, 80, 0
2, 1056384, Note_on_c, 0, 78, 82
2, 1056420, Note_on_c, 0, 71, 0
2, 1056432, Note_on_c, 0, 78, 0
2, 1056436, Note_on_c, 0, 80, 78
2, 1056448, Note_on_c, 0, 73, 97
2, 1056508, Note_on_c, 0, 80, 0
2, 1056512, Note_on_c, 0, 73, 0
2, 1056512, Note_on_c, 0, 78, 73
2, 1056548, Note_on_c, 0, 75, 106
2, 1056568, Note_on_c, 0, 78, 0
2, 1056576, Note_on_c, 0, 80, 79
2, 1056588, Note_on_c, 0, 75, 0
2, 1056636, Note_on_c, 0, 80, 0
2, 1056640, Note_on_c, 0, 78, 76
2, 1056684, Note_on_c, 0, 78, 0
2, 1056684, Note_on_c, 0, 80, 75
2, 1056740, Note_on_c, 0, 80, 0
2, 1056748, Note_on_c, 0, 78, 80
2, 1056776, Note_on_c, 0, 80, 64
2, 1056784, Note_on_c, 0, 78, 0
2, 1056844, Note_on_c, 0, 80, 0
2, 1056852, Note_on_c, 0, 78, 76
2, 1056880, Note_on_c, 0, 71, 94
2, 1056896, Note_on_c, 0, 78, 0
2, 1056900, Note_on_c, 0, 80, 73
2, 1056928, Note_on_c, 0, 71, 0
2, 1056952, Note_on_c, 0, 80, 0
2, 1056968, Note_on_c, 0, 78, 71
2, 1057032, Note_on_c, 0, 80, 68
2, 1057036, Note_on_c, 0, 78, 0
2, 1057068, Note_on_c, 0, 80, 0
2, 1057092, Note_on_c, 0, 78, 114
2, 1057092, Note_on_c, 0, 71, 84
2, 1057116, Note_on_c, 0, 81, 80
2, 1057124, Note_on_c, 0, 78, 0
2, 1057164, Note_on_c, 0, 81, 0
2, 1057184, Note_on_c, 0, 83, 79
2, 1057232, Note_on_c, 0, 83, 0
2, 1057232, Note_on_c, 0, 81, 83
2, 1057276, Note_on_c, 0, 81, 0
2, 1057288, Note_on_c, 0, 83, 75
2, 1057336, Note_on_c, 0, 83, 0
2, 1057340, Note_on_c, 0, 81, 76
2, 1057380, Note_on_c, 0, 81, 0
2, 1057384, Note_on_c, 0, 83, 78
2, 1057420, Note_on_c, 0, 66, 86
2, 1057420, Note_on_c, 0, 59, 88
2, 1057440, Note_on_c, 0, 83, 0
2, 1057444, Note_on_c, 0, 81, 78
2, 1057480, Note_on_c, 0, 83, 73
2, 1057488, Note_on_c, 0, 81, 0
2, 1057508, Note_on_c, 0, 59, 0
2, 1057508, Note_on_c, 0, 66, 0
2, 1057536, Note_on_c, 0, 83, 0
2, 1057536, Note_on_c, 0, 81, 75
2, 1057564, Note_on_c, 0, 71, 0
2, 1057588, Note_on_c, 0, 81, 0
2, 1057588, Note_on_c, 0, 83, 79
2, 1057632, Note_on_c, 0, 59, 86
2, 1057632, Note_on_c, 0, 47, 93
2, 1057632, Note_on_c, 0, 66, 84
2, 1057632, Note_on_c, 0, 69, 84
2, 1057632, Note_on_c, 0, 76, 88
2, 1057636, Note_on_c, 0, 83, 0
2, 1057644, Note_on_c, 0, 81, 78
2, 1057696, Note_on_c, 0, 81, 0
2, 1057696, Note_on_c, 0, 83, 79
2, 1057720, Note_on_c, 0, 66, 0
2, 1057720, Note_on_c, 0, 69, 0
2, 1057744, Note_on_c, 0, 83, 0
2, 1057744, Note_on_c, 0, 81, 81
2, 1057788, Note_on_c, 0, 83, 83
2, 1057796, Note_on_c, 0, 81, 0
2, 1057844, Note_on_c, 0, 83, 0
2, 1057852, Note_on_c, 0, 81, 83
2, 1057864, Note_on_c, 0, 47, 0
2, 1057892, Note_on_c, 0, 83, 79
2, 1057900, Note_on_c, 0, 81, 0
2, 1057948, Note_on_c, 0, 83, 0
2, 1057952, Note_on_c, 0, 66, 88
2, 1057952, Note_on_c, 0, 57, 83
2, 1057952, Note_on_c, 0, 64, 79
2, 1057960, Note_on_c, 0, 81, 81
2, 1057984, Note_on_c, 0, 64, 0
2, 1057984, Note_on_c, 0, 57, 0
2, 1058000, Note_on_c, 0, 66, 0
2, 1058000, Note_on_c, 0, 83, 81
2, 1058004, Note_on_c, 0, 81, 0
2, 1058060, Note_on_c, 0, 83, 0
2, 1058068, Note_on_c, 0, 81, 84
2, 1058120, Note_on_c, 0, 81, 0
2, 1058120, Note_on_c, 0, 83, 81
2, 1058160, Note_on_c, 0, 71, 90
2, 1058160, Note_on_c, 0, 78, 102
2, 1058160, Note_on_c, 0, 69, 86
2, 1058160, Note_on_c, 0, 76, 94
2, 1058168, Note_on_c, 0, 83, 0
2, 1058180, Note_on_c, 0, 81, 86
2, 1058204, Note_on_c, 0, 78, 0
2, 1058208, Note_on_c, 0, 69, 0
2, 1058212, Note_on_c, 0, 76, 0
2, 1058224, Note_on_c, 0, 81, 0
2, 1058224, Note_on_c, 0, 83, 80
2, 1058276, Note_on_c, 0, 83, 0
2, 1058284, Note_on_c, 0, 81, 81
2, 1058324, Note_on_c, 0, 83, 76
2, 1058328, Note_on_c, 0, 81, 0
2, 1058380, Note_on_c, 0, 83, 0
2, 1058388, Note_on_c, 0, 81, 76
2, 1058420, Note_on_c, 0, 83, 73
2, 1058428, Note_on_c, 0, 81, 0
2, 1058480, Note_on_c, 0, 83, 0
2, 1058480, Note_on_c, 0, 81, 75
2, 1058488, Note_on_c, 0, 76, 0
2, 1058488, Note_on_c, 0, 59, 0
2, 1058492, Note_on_c, 0, 66, 88
2, 1058492, Note_on_c, 0, 59, 88
2, 1058520, Note_on_c, 0, 83, 75
2, 1058528, Note_on_c, 0, 81, 0
2, 1058580, Note_on_c, 0, 59, 0
2, 1058580, Note_on_c, 0, 83, 0
2, 1058580, Note_on_c, 0, 66, 0
2, 1058588, Note_on_c, 0, 81, 80
2, 1058620, Note_on_c, 0, 83, 74
2, 1058628, Note_on_c, 0, 81, 0
2, 1058680, Note_on_c, 0, 83, 0
2, 1058680, Note_on_c, 0, 81, 78
2, 1058692, Note_on_c, 0, 78, 83
2, 1058692, Note_on_c, 0, 76, 81
2, 1058692, Note_on_c, 0, 47, 94
2, 1058692, Note_on_c, 0, 59, 84
2, 1058720, Note_on_c, 0, 83, 78
2, 1058724, Note_on_c, 0, 81, 0
2, 1058772, Note_on_c, 0, 66, 83
2, 1058776, Note_on_c, 0, 83, 0
2, 1058776, Note_on_c, 0, 81, 80
2, 1058816, Note_on_c, 0, 83, 78
2, 1058824, Note_on_c, 0, 81, 0
2, 1058824, Note_on_c, 0, 76, 0
2, 1058824, Note_on_c, 0, 78, 0
2, 1058856, Note_on_c, 0, 78, 81
2, 1058856, Note_on_c, 0, 76, 78
2, 1058884, Note_on_c, 0, 83, 0
2, 1058888, Note_on_c, 0, 81, 83
2, 1058904, Note_on_c, 0, 66, 0
2, 1058932, Note_on_c, 0, 83, 78
2, 1058932, Note_on_c, 0, 66, 83
2, 1058936, Note_on_c, 0, 81, 0
2, 1058944, Note_on_c, 0, 76, 0
2, 1058972, Note_on_c, 0, 71, 0
2, 1058972, Note_on_c, 0, 66, 88
2, 1058972, Note_on_c, 0, 59, 75
2, 1058972, Note_on_c, 0, 63, 82
2, 1058972, Note_on_c, 0, 57, 83
2, 1058976, Note_on_c, 0, 78, 0
2, 1058992, Note_on_c, 0, 59, 0
2, 1058992, Note_on_c, 0, 47, 0
2, 1058996, Note_on_c, 0, 57, 0
2, 1058996, Note_on_c, 0, 83, 0
2, 1059004, Note_on_c, 0, 63, 0
2, 1059008, Note_on_c, 0, 78, 83
2, 1059008, Note_on_c, 0, 76, 79
2, 1059008, Note_on_c, 0, 81, 78
2, 1059016, Note_on_c, 0, 66, 0
2, 1059048, Note_on_c, 0, 81, 0
2, 1059060, Note_on_c, 0, 83, 78
2, 1059064, Note_on_c, 0, 66, 0
2, 1059088, Note_on_c, 0, 66, 83
2, 1059096, Note_on_c, 0, 76, 0
2, 1059096, Note_on_c, 0, 81, 78
2, 1059100, Note_on_c, 0, 78, 0
2, 1059128, Note_on_c, 0, 83, 0
2, 1059136, Note_on_c, 0, 81, 0
2, 1059168, Note_on_c, 0, 78, 103
2, 1059168, Note_on_c, 0, 69, 90
2, 1059168, Note_on_c, 0, 75, 84
2, 1059168, Note_on_c, 0, 69, 83
2, 1059168, Note_on_c, 0, 59, 84
2, 1059168, Note_on_c, 0, 47, 88
2, 1059172, Note_on_c, 0, 71, 86
2, 1059204, Note_on_c, 0, 87, 91
2, 1059220, Note_on_c, 0, 66, 0
2, 1059236, Note_on_c, 0, 69, 0
2, 1059248, Note_on_c, 0, 87, 0
2, 1059256, Note_on_c, 0, 78, 0
2, 1059260, Note_on_c, 0, 75, 0
2, 1059260, Note_on_c, 0, 66, 83
2, 1059272, Note_on_c, 0, 88, 88
2, 1059280, Note_on_c, 0, 71, 0
2, 1059300, Note_on_c, 0, 69, 0
2, 1059316, Note_on_c, 0, 88, 0
2, 1059328, Note_on_c, 0, 87, 85
2, 1059356, Note_on_c, 0, 78, 86
2, 1059356, Note_on_c, 0, 75, 82
2, 1059356, Note_on_c, 0, 69, 83
2, 1059376, Note_on_c, 0, 87, 0
2, 1059376, Note_on_c, 0, 88, 87
2, 1059392, Note_on_c, 0, 66, 0
2, 1059424, Note_on_c, 0, 88, 0
2, 1059424, Note_on_c, 0, 87, 78
2, 1059444, Note_on_c, 0, 75, 0
2, 1059456, Note_on_c, 0, 66, 83
2, 1059476, Note_on_c, 0, 87, 0
2, 1059480, Note_on_c, 0, 88, 88
2, 1059484, Note_on_c, 0, 78, 0
2, 1059488, Note_on_c, 0, 69, 0
2, 1059488, Note_on_c, 0, 47, 0
2, 1059524, Note_on_c, 0, 88, 0
2, 1059528, Note_on_c, 0, 59, 90
2, 1059528, Note_on_c, 0, 47, 95
2, 1059536, Note_on_c, 0, 87, 82
2, 1059556, Note_on_c, 0, 78, 90
2, 1059556, Note_on_c, 0, 75, 81
2, 1059556, Note_on_c, 0, 69, 83
2, 1059576, Note_on_c, 0, 47, 0
2, 1059576, Note_on_c, 0, 59, 0
2, 1059576, Note_on_c, 0, 59, 0
2, 1059584, Note_on_c, 0, 87, 0
2, 1059584, Note_on_c, 0, 88, 90
2, 1059588, Note_on_c, 0, 66, 0
2, 1059632, Note_on_c, 0, 87, 90
2, 1059640, Note_on_c, 0, 88, 0
2, 1059644, Note_on_c, 0, 75, 0
2, 1059672, Note_on_c, 0, 78, 0
2, 1059680, Note_on_c, 0, 87, 0
2, 1059684, Note_on_c, 0, 85, 91
2, 1059688, Note_on_c, 0, 69, 0
2, 1059708, Note_on_c, 0, 66, 83
2, 1059732, Note_on_c, 0, 85, 0
2, 1059744, Note_on_c, 0, 87, 96
2, 1059792, Note_on_c, 0, 87, 0
2, 1059828, Control_c, 0, 64, 72
2, 1059840, Note_on_c, 0, 66, 0
2, 1059848, Control_c, 0, 64, 56
2, 1059852, Note_on_c, 0, 80, 98
2, 1059852, Note_on_c, 0, 40, 93
2, 1059852, Note_on_c, 0, 88, 101
2, 1059860, Note_on_c, 0, 76, 94
2, 1059860, Control_c, 0, 64, 127
2, 1059932, Note_on_c, 0, 76, 0
2, 1059960, Note_on_c, 0, 52, 65
2, 1059964, Note_on_c, 0, 68, 76
2, 1060016, Note_on_c, 0, 52, 0
2, 1060048, Note_on_c, 0, 68, 0
2, 1060064, Note_on_c, 0, 76, 87
2, 1060064, Note_on_c, 0, 40, 70
2, 1060076, Note_on_c, 0, 59, 0
2, 1060104, Note_on_c, 0, 40, 0
2, 1060120, Note_on_c, 0, 40, 0
2, 1060144, Note_on_c, 0, 76, 0
2, 1060144, Note_on_c, 0, 52, 70
2, 1060160, Note_on_c, 0, 68, 78
2, 1060220, Note_on_c, 0, 88, 0
2, 1060232, Note_on_c, 0, 52, 0
2, 1060248, Note_on_c, 0, 40, 73
2, 1060256, Note_on_c, 0, 68, 0
2, 1060260, Note_on_c, 0, 76, 78
2, 1060308, Note_on_c, 0, 80, 0
2, 1060328, Note_on_c, 0, 76, 0
2, 1060328, Note_on_c, 0, 40, 0
2, 1060328, Note_on_c, 0, 68, 82
2, 1060340, Note_on_c, 0, 52, 70
2, 1060376, Note_on_c, 0, 68, 0
2, 1060408, Note_on_c, 0, 52, 0
2, 1060444, Note_on_c, 0, 76, 100
2, 1060448, Note_on_c, 0, 68, 88
2, 1060452, Note_on_c, 0, 40, 75
2, 1060508, Note_on_c, 0, 68, 0
2, 1060524, Note_on_c, 0, 40, 0
2, 1060540, Note_on_c, 0, 64, 89
2, 1060540, Note_on_c, 0, 52, 75
2, 1060616, Note_on_c, 0, 52, 0
2, 1060632, Note_on_c, 0, 64, 0
2, 1060636, Note_on_c, 0, 68, 86
2, 1060648, Note_on_c, 0, 40, 75
2, 1060676, Note_on_c, 0, 68, 0
2, 1060692, Note_on_c, 0, 76, 0
2, 1060716, Note_on_c, 0, 40, 0
2, 1060736, Note_on_c, 0, 52, 76
2, 1060744, Note_on_c, 0, 78, 101
2, 1060748, Note_on_c, 0, 71, 85
2, 1060788, Note_on_c, 0, 71, 0
2, 1060792, Note_on_c, 0, 78, 0
2, 1060812, Note_on_c, 0, 52, 0
2, 1060844, Note_on_c, 0, 80, 94
2, 1060844, Note_on_c, 0, 76, 94
2, 1060848, Note_on_c, 0, 40, 78
2, 1060892, Note_on_c, 0, 76, 0
2, 1060912, Note_on_c, 0, 80, 0
2, 1060928, Note_on_c, 0, 40, 0
2, 1060936, Note_on_c, 0, 81, 96
2, 1060936, Note_on_c, 0, 52, 74
2, 1060940, Note_on_c, 0, 78, 82
2, 1060980, Note_on_c, 0, 78, 0
2, 1060988, Note_on_c, 0, 81, 0
2, 1061004, Note_on_c, 0, 52, 0
2, 1061044, Note_on_c, 0, 83, 106
2, 1061048, Note_on_c, 0, 80, 88
2, 1061048, Note_on_c, 0, 40, 80
2, 1061124, Note_on_c, 0, 40, 0
2, 1061124, Note_on_c, 0, 80, 0
2, 1061140, Note_on_c, 0, 52, 69
2, 1061156, Note_on_c, 0, 71, 83
2, 1061208, Note_on_c, 0, 52, 0
2, 1061232, Note_on_c, 0, 71, 0
2, 1061240, Note_on_c, 0, 40, 77
2, 1061248, Note_on_c, 0, 80, 90
2, 1061312, Note_on_c, 0, 40, 0
2, 1061324, Note_on_c, 0, 80, 0
2, 1061328, Note_on_c, 0, 52, 69
2, 1061340, Note_on_c, 0, 71, 84
2, 1061396, Note_on_c, 0, 71, 0
2, 1061400, Note_on_c, 0, 52, 0
2, 1061404, Note_on_c, 0, 83, 0
2, 1061436, Note_on_c, 0, 40, 79
2, 1061444, Note_on_c, 0, 76, 100
2, 1061444, Note_on_c, 0, 83, 78
2, 1061512, Note_on_c, 0, 40, 0
2, 1061520, Note_on_c, 0, 76, 0
2, 1061532, Note_on_c, 0, 52, 73
2, 1061532, Note_on_c, 0, 71, 90
2, 1061556, Note_on_c, 0, 83, 0
2, 1061580, Note_on_c, 0, 71, 0
2, 1061608, Note_on_c, 0, 52, 0
2, 1061640, Note_on_c, 0, 40, 79
2, 1061640, Note_on_c, 0, 52, 70
2, 1061640, Note_on_c, 0, 80, 98
2, 1061640, Note_on_c, 0, 88, 104
2, 1061704, Note_on_c, 0, 80, 0
2, 1061712, Note_on_c, 0, 52, 0
2, 1061716, Note_on_c, 0, 40, 0
2, 1061740, Note_on_c, 0, 76, 93
2, 1061808, Note_on_c, 0, 76, 0
2, 1061844, Note_on_c, 0, 80, 85
2, 1061920, Note_on_c, 0, 80, 0
2, 1061940, Note_on_c, 0, 76, 91
2, 1062008, Note_on_c, 0, 76, 0
2, 1062036, Note_on_c, 0, 82, 90
2, 1062036, Note_on_c, 0, 52, 71
2, 1062036, Note_on_c, 0, 79, 90
2, 1062036, Note_on_c, 0, 40, 78
2, 1062088, Note_on_c, 0, 79, 0
2, 1062112, Note_on_c, 0, 40, 0
2, 1062136, Note_on_c, 0, 82, 0
2, 1062144, Note_on_c, 0, 76, 90
2, 1062200, Note_on_c, 0, 88, 0
2, 1062224, Note_on_c, 0, 76, 0
2, 1062228, Note_on_c, 0, 52, 0
2, 1062248, Note_on_c, 0, 83, 92
2, 1062248, Note_on_c, 0, 40, 74
2, 1062248, Note_on_c, 0, 80, 90
2, 1062248, Note_on_c, 0, 52, 68
2, 1062308, Note_on_c, 0, 80, 0
2, 1062308, Note_on_c, 0, 40, 0
2, 1062336, Note_on_c, 0, 83, 0
2, 1062340, Note_on_c, 0, 52, 0
2, 1062488, Control_c, 0, 64, 72
2, 1062500, Control_c, 0, 64, 40
2, 1062508, Control_c, 0, 64, 0
2, 1062648, Note_on_c, 0, 74, 90
2, 1062872, Note_on_c, 0, 86, 98
2, 1062872, Note_on_c, 0, 80, 82
2, 1062872, Note_on_c, 0, 52, 69
2, 1062872, Note_on_c, 0, 40, 73
2, 1062888, Note_on_c, 0, 74, 0
2, 1062976, Control_c, 0, 64, 24
2, 1063004, Note_on_c, 0, 86, 0
2, 1063008, Note_on_c, 0, 80, 0
2, 1063020, Control_c, 0, 64, 0
2, 1063108, Note_on_c, 0, 52, 0
2, 1063108, Note_on_c, 0, 40, 0
2, 1063260, Note_on_c, 0, 71, 84
2, 1063468, Note_on_c, 0, 71, 0
2, 1063484, Note_on_c, 0, 83, 93
2, 1063616, Note_on_c, 0, 83, 0
2, 1063868, Note_on_c, 0, 68, 80
2, 1064088, Note_on_c, 0, 80, 88
2, 1064088, Note_on_c, 0, 59, 62
2, 1064088, Note_on_c, 0, 52, 63
2, 1064088, Note_on_c, 0, 74, 83
2, 1064088, Note_on_c, 0, 56, 57
2, 1064128, Note_on_c, 0, 52, 0
2, 1064136, Note_on_c, 0, 68, 0
2, 1064136, Control_c, 0, 64, 40
2, 1064144, Note_on_c, 0, 56, 0
2, 1064148, Note_on_c, 0, 80, 0
2, 1064148, Control_c, 0, 64, 56
2, 1064152, Note_on_c, 0, 59, 0
2, 1064160, Control_c, 0, 64, 88
2, 1064164, Note_on_c, 0, 74, 0
2, 1064228, Control_c, 0, 64, 72
2, 1064240, Control_c, 0, 64, 56
2, 1064256, Control_c, 0, 64, 40
2, 1064268, Control_c, 0, 64, 24
2, 1064276, Control_c, 0, 64, 0
2, 1064452, Note_on_c, 0, 61, 78
2, 1064452, Note_on_c, 0, 56, 67
2, 1064452, Note_on_c, 0, 59, 72
2, 1064452, Note_on_c, 0, 52, 73
2, 1064484, Note_on_c, 0, 52, 0
2, 1064488, Note_on_c, 0, 59, 0
2, 1064488, Note_on_c, 0, 56, 0
2, 1064528, Note_on_c, 0, 61, 0
2, 1064684, Note_on_c, 0, 56, 70
2, 1064684, Note_on_c, 0, 73, 81
2, 1064684, Note_on_c, 0, 68, 88
2, 1064684, Note_on_c, 0, 53, 73
2, 1064684, Note_on_c, 0, 59, 69
2, 1064684, Note_on_c, 0, 61, 72
2, 1064776, Control_c, 0, 64, 24
2, 1064788, Control_c, 0, 64, 56
2, 1064860, Control_c, 0, 64, 24
2, 1064872, Control_c, 0, 64, 0
2, 1064972, Control_c, 0, 64, 24
2, 1065020, Control_c, 0, 64, 0
2, 1065144, Note_on_c, 0, 68, 0
2, 1065152, Note_on_c, 0, 73, 0
2, 1065228, Note_on_c, 0, 61, 83
2, 1065332, Note_on_c, 0, 56, 0
2, 1065340, Note_on_c, 0, 53, 0
2, 1065368, Note_on_c, 0, 59, 0
2, 1065532, Note_on_c, 0, 63, 77
2, 1065552, Note_on_c, 0, 61, 0
2, 1065552, Note_on_c, 0, 61, 0
2, 1065572, Note_on_c, 0, 63, 0
2, 1065612, Note_on_c, 0, 65, 81
2, 1065668, Note_on_c, 0, 65, 0
2, 1065704, Note_on_c, 0, 66, 83
2, 1065752, Note_on_c, 0, 66, 0
2, 1065796, Note_on_c, 0, 68, 88
2, 1066084, Note_on_c, 0, 68, 0
2, 1066176, Note_on_c, 0, 61, 83
2, 1066224, Note_on_c, 0, 61, 0
2, 1066412, Note_on_c, 0, 85, 75
2, 1066412, Note_on_c, 0, 80, 71
2, 1066412, Note_on_c, 0, 61, 68
2, 1066412, Note_on_c, 0, 73, 97
2, 1066412, Note_on_c, 0, 53, 67
2, 1066412, Note_on_c, 0, 56, 69
2, 1066544, Note_on_c, 0, 53, 0
2, 1066556, Note_on_c, 0, 56, 0
2, 1066560, Note_on_c, 0, 61, 0
2, 1066640, Note_on_c, 0, 80, 0
2, 1066668, Note_on_c, 0, 85, 0
2, 1066792, Note_on_c, 0, 85, 77
2, 1066792, Note_on_c, 0, 80, 71
2, 1066792, Note_on_c, 0, 53, 69
2, 1066792, Note_on_c, 0, 61, 74
2, 1066792, Note_on_c, 0, 56, 70
2, 1066840, Note_on_c, 0, 56, 0
2, 1066848, Note_on_c, 0, 80, 0
2, 1066864, Note_on_c, 0, 53, 0
2, 1066868, Note_on_c, 0, 61, 0
2, 1066868, Note_on_c, 0, 85, 0
2, 1067020, Note_on_c, 0, 73, 93
2, 1067020, Note_on_c, 0, 85, 78
2, 1067020, Note_on_c, 0, 81, 71
2, 1067020, Note_on_c, 0, 57, 68
2, 1067020, Note_on_c, 0, 54, 71
2, 1067020, Note_on_c, 0, 61, 78
2, 1067084, Note_on_c, 0, 57, 0
2, 1067112, Note_on_c, 0, 61, 0
2, 1067152, Note_on_c, 0, 62, 71
2, 1067184, Control_c, 0, 64, 40
2, 1067192, Control_c, 0, 64, 56
2, 1067196, Note_on_c, 0, 61, 81
2, 1067204, Note_on_c, 0, 62, 0
2, 1067204, Control_c, 0, 64, 72
2, 1067216, Control_c, 0, 64, 88
2, 1067228, Control_c, 0, 64, 127
2, 1067248, Note_on_c, 0, 61, 0
2, 1067280, Note_on_c, 0, 54, 0
2, 1067348, Note_on_c, 0, 81, 0
2, 1067352, Note_on_c, 0, 85, 0
2, 1067392, Note_on_c, 0, 59, 80
2, 1067504, Note_on_c, 0, 73, 0
2, 1067504, Note_on_c, 0, 73, 0
2, 1067600, Note_on_c, 0, 59, 0
2, 1067600, Control_c, 0, 64, 88
2, 1067612, Control_c, 0, 64, 56
2, 1067624, Note_on_c, 0, 66, 88
2, 1067624, Control_c, 0, 64, 24
2, 1067636, Control_c, 0, 64, 0
2, 1067740, Control_c, 0, 64, 40
2, 1067752, Control_c, 0, 64, 72
2, 1067756, Note_on_c, 0, 59, 78
2, 1067764, Control_c, 0, 64, 88
2, 1067784, Control_c, 0, 64, 104
2, 1067800, Note_on_c, 0, 59, 0
2, 1067800, Note_on_c, 0, 57, 84
2, 1067820, Control_c, 0, 64, 127
2, 1067844, Note_on_c, 0, 57, 0
2, 1067904, Control_c, 0, 64, 88
2, 1067916, Note_on_c, 0, 66, 0
2, 1067916, Control_c, 0, 64, 72
2, 1067928, Control_c, 0, 64, 40
2, 1067932, Note_on_c, 0, 68, 85
2, 1067940, Control_c, 0, 64, 0
2, 1067980, Note_on_c, 0, 68, 0
2, 1067992, Note_on_c, 0, 56, 85
2, 1068012, Note_on_c, 0, 69, 87
2, 1068084, Note_on_c, 0, 69, 0
2, 1068100, Note_on_c, 0, 71, 89
2, 1068180, Note_on_c, 0, 71, 0
2, 1068188, Note_on_c, 0, 56, 0
2, 1068188, Note_on_c, 0, 73, 91
2, 1068316, Note_on_c, 0, 56, 82
2, 1068352, Note_on_c, 0, 73, 0
2, 1068352, Note_on_c, 0, 54, 87
2, 1068360, Note_on_c, 0, 56, 0
2, 1068396, Note_on_c, 0, 54, 0
2, 1068572, Note_on_c, 0, 64, 82
2, 1068584, Note_on_c, 0, 66, 79
2, 1068624, Note_on_c, 0, 64, 0
2, 1068628, Note_on_c, 0, 66, 0
2, 1068764, Note_on_c, 0, 54, 75
2, 1068764, Note_on_c, 0, 63, 80
2, 1068764, Note_on_c, 0, 57, 72
2, 1068796, Note_on_c, 0, 57, 0
2, 1068796, Note_on_c, 0, 78, 100
2, 1068796, Note_on_c, 0, 73, 73
2, 1068796, Note_on_c, 0, 69, 83
2, 1068844, Control_c, 0, 64, 40
2, 1068856, Control_c, 0, 64, 56
2, 1068868, Control_c, 0, 64, 72
2, 1068880, Control_c, 0, 64, 88
2, 1068884, Note_on_c, 0, 73, 0
2, 1068892, Note_on_c, 0, 69, 0
2, 1068912, Control_c, 0, 64, 104
2, 1068916, Note_on_c, 0, 63, 0
2, 1068944, Note_on_c, 0, 64, 76
2, 1068960, Control_c, 0, 64, 88
2, 1068976, Note_on_c, 0, 64, 0
2, 1068980, Note_on_c, 0, 63, 87
2, 1068988, Note_on_c, 0, 54, 0
2, 1068992, Control_c, 0, 64, 72
2, 1069044, Note_on_c, 0, 63, 0
2, 1069156, Control_c, 0, 64, 56
2, 1069164, Note_on_c, 0, 73, 78
2, 1069164, Note_on_c, 0, 69, 71
2, 1069164, Note_on_c, 0, 61, 76
2, 1069164, Note_on_c, 0, 54, 79
2, 1069204, Note_on_c, 0, 54, 0
2, 1069212, Note_on_c, 0, 69, 0
2, 1069216, Note_on_c, 0, 61, 0
2, 1069244, Note_on_c, 0, 73, 0
2, 1069248, Control_c, 0, 64, 40
2, 1069284, Control_c, 0, 64, 24
2, 1069296, Control_c, 0, 64, 0
2, 1069380, Note_on_c, 0, 72, 76
2, 1069380, Note_on_c, 0, 68, 67
2, 1069380, Note_on_c, 0, 56, 79
2, 1069380, Note_on_c, 0, 63, 87
2, 1069380, Note_on_c, 0, 60, 77
2, 1069384, Note_on_c, 0, 78, 0
2, 1069476, Note_on_c, 0, 72, 0
2, 1069536, Note_on_c, 0, 80, 78
2, 1069564, Note_on_c, 0, 78, 90
2, 1069588, Note_on_c, 0, 68, 0
2, 1069596, Note_on_c, 0, 80, 0
2, 1069624, Note_on_c, 0, 78, 0
2, 1069720, Note_on_c, 0, 60, 0
2, 1069748, Note_on_c, 0, 56, 0
2, 1069776, Note_on_c, 0, 76, 91
2, 1069964, Note_on_c, 0, 56, 88
2, 1070040, Note_on_c, 0, 76, 0
2, 1070140, Note_on_c, 0, 76, 76
2, 1070168, Note_on_c, 0, 63, 0
2, 1070168, Note_on_c, 0, 75, 87
2, 1070204, Note_on_c, 0, 76, 0
2, 1070212, Note_on_c, 0, 75, 0
2, 1070240, Note_on_c, 0, 56, 0
2, 1070268, Note_on_c, 0, 58, 77
2, 1070320, Note_on_c, 0, 58, 0
2, 1070344, Note_on_c, 0, 60, 84
2, 1070372, Note_on_c, 0, 73, 86
2, 1070420, Note_on_c, 0, 60, 0
2, 1070424, Note_on_c, 0, 61, 83
2, 1070508, Note_on_c, 0, 61, 0
2, 1070532, Note_on_c, 0, 63, 86
2, 1070604, Note_on_c, 0, 73, 0
2, 1070712, Note_on_c, 0, 73, 78
2, 1070744, Note_on_c, 0, 72, 90
2, 1070788, Note_on_c, 0, 73, 0
2, 1070800, Note_on_c, 0, 72, 0
2, 1070940, Note_on_c, 0, 69, 89
2, 1070940, Note_on_c, 0, 56, 82
2, 1070992, Note_on_c, 0, 56, 0
2, 1071004, Note_on_c, 0, 69, 0
2, 1071012, Note_on_c, 0, 63, 0
2, 1071164, Note_on_c, 0, 75, 73
2, 1071164, Note_on_c, 0, 68, 89
2, 1071164, Note_on_c, 0, 56, 82
2, 1071164, Note_on_c, 0, 48, 75
2, 1071344, Note_on_c, 0, 75, 0
2, 1071352, Note_on_c, 0, 69, 73
2, 1071380, Note_on_c, 0, 68, 83
2, 1071396, Note_on_c, 0, 69, 0
2, 1071436, Note_on_c, 0, 48, 0
2, 1071464, Note_on_c, 0, 56, 0
2, 1071576, Note_on_c, 0, 75, 80
2, 1071576, Note_on_c, 0, 66, 83
2, 1071576, Note_on_c, 0, 68, 88
2, 1071576, Note_on_c, 0, 56, 78
2, 1071576, Note_on_c, 0, 48, 77
2, 1071620, Note_on_c, 0, 68, 0
2, 1071628, Note_on_c, 0, 66, 0
2, 1071644, Note_on_c, 0, 68, 0
2, 1071644, Note_on_c, 0, 68, 0
2, 1071652, Note_on_c, 0, 75, 0
2, 1071652, Note_on_c, 0, 48, 0
2, 1071684, Note_on_c, 0, 56, 0
2, 1071784, Note_on_c, 0, 76, 85
2, 1071784, Note_on_c, 0, 68, 91
2, 1071784, Note_on_c, 0, 64, 83
2, 1071784, Note_on_c, 0, 49, 78
2, 1071784, Note_on_c, 0, 56, 92
2, 1071864, Note_on_c, 0, 76, 0
2, 1071896, Note_on_c, 0, 68, 0
2, 1071936, Note_on_c, 0, 64, 0
2, 1071964, Note_on_c, 0, 69, 79
2, 1072004, Note_on_c, 0, 68, 84
2, 1072012, Note_on_c, 0, 69, 0
2, 1072072, Note_on_c, 0, 68, 0
2, 1072152, Note_on_c, 0, 49, 0
2, 1072176, Note_on_c, 0, 66, 88
2, 1072356, Note_on_c, 0, 56, 0
2, 1072368, Note_on_c, 0, 49, 88
2, 1072536, Note_on_c, 0, 66, 0
2, 1072572, Note_on_c, 0, 64, 78
2, 1072628, Note_on_c, 0, 49, 0
2, 1072636, Note_on_c, 0, 64, 0
2, 1072664, Note_on_c, 0, 51, 86
2, 1072716, Note_on_c, 0, 51, 0
2, 1072744, Note_on_c, 0, 52, 88
2, 1072744, Note_on_c, 0, 63, 82
2, 1072800, Note_on_c, 0, 52, 0
2, 1072824, Note_on_c, 0, 54, 91
2, 1072880, Note_on_c, 0, 54, 0
2, 1072944, Note_on_c, 0, 56, 91
2, 1073020, Note_on_c, 0, 63, 0
2, 1073144, Note_on_c, 0, 63, 74
2, 1073160, Note_on_c, 0, 56, 0
2, 1073172, Note_on_c, 0, 61, 84
2, 1073192, Note_on_c, 0, 63, 0
2, 1073236, Note_on_c, 0, 61, 0
2, 1073376, Note_on_c, 0, 59, 89
2, 1073376, Note_on_c, 0, 49, 76
2, 1073412, Note_on_c, 0, 49, 0
2, 1073420, Note_on_c, 0, 59, 0
2, 1073580, Note_on_c, 0, 73, 89
2, 1073580, Note_on_c, 0, 64, 76
2, 1073580, Note_on_c, 0, 49, 75
2, 1073580, Note_on_c, 0, 58, 77
2, 1073580, Note_on_c, 0, 61, 78
2, 1073656, Control_c, 0, 64, 24
2, 1073668, Control_c, 0, 64, 40
2, 1073672, Note_on_c, 0, 58, 0
2, 1073712, Note_on_c, 0, 59, 81
2, 1073712, Control_c, 0, 64, 56
2, 1073748, Note_on_c, 0, 61, 0
2, 1073756, Note_on_c, 0, 58, 87
2, 1073772, Note_on_c, 0, 64, 0
2, 1073772, Note_on_c, 0, 59, 0
2, 1073808, Note_on_c, 0, 58, 0
2, 1073812, Note_on_c, 0, 73, 0
2, 1073820, Note_on_c, 0, 49, 0
2, 1073828, Control_c, 0, 64, 40
2, 1073932, Control_c, 0, 64, 24
2, 1073968, Note_on_c, 0, 56, 76
2, 1073968, Note_on_c, 0, 49, 74
2, 1073968, Control_c, 0, 64, 0
2, 1073988, Note_on_c, 0, 73, 92
2, 1073988, Note_on_c, 0, 64, 72
2, 1074012, Note_on_c, 0, 49, 0
2, 1074016, Note_on_c, 0, 64, 0
2, 1074024, Note_on_c, 0, 56, 0
2, 1074060, Note_on_c, 0, 73, 0
2, 1074200, Note_on_c, 0, 55, 85
2, 1074204, Note_on_c, 0, 46, 77
2, 1074216, Note_on_c, 0, 73, 93
2, 1074228, Note_on_c, 0, 64, 78
2, 1074328, Control_c, 0, 64, 24
2, 1074372, Control_c, 0, 64, 40
2, 1074424, Control_c, 0, 64, 56
2, 1074456, Control_c, 0, 64, 72
2, 1074508, Note_on_c, 0, 64, 0
2, 1074524, Control_c, 0, 64, 88
2, 1074572, Control_c, 0, 64, 104
2, 1074720, Note_on_c, 0, 73, 0
2, 1074792, Control_c, 0, 64, 72
2, 1074804, Control_c, 0, 64, 56
2, 1074816, Control_c, 0, 64, 40
2, 1074828, Note_on_c, 0, 67, 84
2, 1074828, Control_c, 0, 64, 0
2, 1075156, Note_on_c, 0, 46, 0
2, 1075156, Note_on_c, 0, 72, 76
2, 1075196, Note_on_c, 0, 55, 0
2, 1075204, Note_on_c, 0, 67, 0
2, 1075216, Note_on_c, 0, 72, 0
2, 1075232, Note_on_c, 0, 73, 78
2, 1075316, Note_on_c, 0, 75, 80
2, 1075336, Note_on_c, 0, 73, 0
2, 1075384, Note_on_c, 0, 75, 0
2, 1075416, Note_on_c, 0, 76, 98
2, 1075420, Note_on_c, 0, 67, 97
2, 1075512, Control_c, 0, 64, 24
2, 1075548, Control_c, 0, 64, 40
2, 1075628, Control_c, 0, 64, 24
2, 1075652, Note_on_c, 0, 76, 0
2, 1075688, Control_c, 0, 64, 0
2, 1075724, Note_on_c, 0, 72, 83
2, 1075768, Note_on_c, 0, 67, 0
2, 1075780, Note_on_c, 0, 72, 0
2, 1075808, Note_on_c, 0, 73, 86
2, 1075880, Note_on_c, 0, 73, 0
2, 1075896, Note_on_c, 0, 75, 94
2, 1075968, Note_on_c, 0, 75, 0
2, 1075996, Note_on_c, 0, 76, 99
2, 1075996, Note_on_c, 0, 67, 79
2, 1075996, Note_on_c, 0, 55, 83
2, 1075996, Note_on_c, 0, 46, 75
2, 1075996, Note_on_c, 0, 73, 84
2, 1076084, Note_on_c, 0, 73, 0
2, 1076196, Note_on_c, 0, 67, 0
2, 1076248, Note_on_c, 0, 55, 0
2, 1076320, Note_on_c, 0, 60, 89
2, 1076376, Note_on_c, 0, 60, 0
2, 1076388, Note_on_c, 0, 76, 0
2, 1076396, Note_on_c, 0, 67, 89
2, 1076396, Note_on_c, 0, 61, 87
2, 1076440, Note_on_c, 0, 46, 0
2, 1076464, Note_on_c, 0, 61, 0
2, 1076480, Note_on_c, 0, 67, 0
2, 1076480, Note_on_c, 0, 63, 97
2, 1076576, Note_on_c, 0, 63, 0
2, 1076608, Note_on_c, 0, 76, 99
2, 1076608, Note_on_c, 0, 55, 72
2, 1076608, Note_on_c, 0, 49, 75
2, 1076608, Note_on_c, 0, 67, 72
2, 1076608, Note_on_c, 0, 70, 72
2, 1076608, Note_on_c, 0, 64, 98
2, 1076680, Note_on_c, 0, 55, 0
2, 1076768, Control_c, 0, 64, 24
2, 1076780, Control_c, 0, 64, 40
2, 1076792, Control_c, 0, 64, 56
2, 1076816, Control_c, 0, 64, 72
2, 1076872, Note_on_c, 0, 70, 0
2, 1076908, Note_on_c, 0, 67, 0
2, 1076988, Control_c, 0, 64, 88
2, 1077084, Note_on_c, 0, 76, 0
2, 1077116, Control_c, 0, 64, 72
2, 1077128, Control_c, 0, 64, 56
2, 1077140, Control_c, 0, 64, 40
2, 1077152, Control_c, 0, 64, 24
2, 1077164, Note_on_c, 0, 70, 91
2, 1077164, Control_c, 0, 64, 0
2, 1077368, Note_on_c, 0, 49, 0
2, 1077428, Note_on_c, 0, 64, 0
2, 1077472, Note_on_c, 0, 75, 88
2, 1077520, Note_on_c, 0, 70, 0
2, 1077540, Note_on_c, 0, 75, 0
2, 1077560, Note_on_c, 0, 76, 90
2, 1077636, Note_on_c, 0, 76, 0
2, 1077648, Note_on_c, 0, 78, 93
2, 1077728, Note_on_c, 0, 78, 0
2, 1077748, Note_on_c, 0, 79, 96
2, 1077748, Note_on_c, 0, 70, 98
2, 1077840, Control_c, 0, 64, 40
2, 1077848, Control_c, 0, 64, 72
2, 1077860, Control_c, 0, 64, 88
2, 1077872, Control_c, 0, 64, 104
2, 1077884, Control_c, 0, 64, 127
2, 1077960, Note_on_c, 0, 79, 0
2, 1077964, Control_c, 0, 64, 104
2, 1077984, Note_on_c, 0, 70, 0
2, 1078012, Control_c, 0, 64, 88
2, 1078060, Note_on_c, 0, 75, 85
2, 1078116, Note_on_c, 0, 75, 0
2, 1078128, Control_c, 0, 64, 72
2, 1078148, Note_on_c, 0, 76, 88
2, 1078212, Note_on_c, 0, 76, 0
2, 1078240, Note_on_c, 0, 78, 90
2, 1078288, Control_c, 0, 64, 56
2, 1078316, Note_on_c, 0, 78, 0
2, 1078340, Control_c, 0, 64, 40
2, 1078356, Note_on_c, 0, 79, 98
2, 1078356, Note_on_c, 0, 70, 98
2, 1078356, Note_on_c, 0, 58, 73
2, 1078356, Note_on_c, 0, 49, 72
2, 1078372, Control_c, 0, 64, 0
2, 1078640, Note_on_c, 0, 63, 82
2, 1078712, Note_on_c, 0, 63, 0
2, 1078728, Note_on_c, 0, 64, 83
2, 1078792, Note_on_c, 0, 70, 0
2, 1078804, Note_on_c, 0, 64, 0
2, 1078808, Note_on_c, 0, 66, 87
2, 1078828, Note_on_c, 0, 58, 0
2, 1078840, Note_on_c, 0, 49, 0
2, 1078892, Note_on_c, 0, 66, 0
2, 1078916, Note_on_c, 0, 67, 88
2, 1078916, Note_on_c, 0, 58, 70
2, 1078916, Note_on_c, 0, 64, 84
2, 1078916, Note_on_c, 0, 48, 78
2, 1079004, Note_on_c, 0, 79, 0
2, 1079024, Note_on_c, 0, 60, 67
2, 1079112, Note_on_c, 0, 60, 0
2, 1079120, Note_on_c, 0, 67, 0
2, 1079128, Note_on_c, 0, 72, 86
2, 1079128, Note_on_c, 0, 64, 70
2, 1079228, Note_on_c, 0, 60, 72
2, 1079308, Note_on_c, 0, 48, 0
2, 1079312, Note_on_c, 0, 64, 0
2, 1079312, Note_on_c, 0, 64, 0
2, 1079316, Note_on_c, 0, 72, 0
2, 1079320, Note_on_c, 0, 60, 0
2, 1079320, Note_on_c, 0, 58, 0
2, 1079324, Note_on_c, 0, 76, 88
2, 1079324, Note_on_c, 0, 64, 71
2, 1079408, Note_on_c, 0, 60, 71
2, 1079500, Note_on_c, 0, 64, 0
2, 1079504, Note_on_c, 0, 76, 0
2, 1079512, Note_on_c, 0, 60, 0
2, 1079512, Note_on_c, 0, 77, 96
2, 1079512, Note_on_c, 0, 57, 73
2, 1079512, Note_on_c, 0, 65, 80
2, 1079592, Note_on_c, 0, 60, 69
2, 1079624, Note_on_c, 0, 65, 0
2, 1079684, Note_on_c, 0, 60, 0
2, 1079720, Note_on_c, 0, 86, 95
2, 1079720, Note_on_c, 0, 65, 71
2, 1079736, Note_on_c, 0, 77, 0
2, 1079800, Note_on_c, 0, 60, 67
2, 1079848, Note_on_c, 0, 65, 0
2, 1079896, Note_on_c, 0, 83, 96
2, 1079896, Note_on_c, 0, 56, 70
2, 1079896, Note_on_c, 0, 62, 73
2, 1079904, Note_on_c, 0, 86, 0
2, 1079908, Note_on_c, 0, 60, 0
2, 1079940, Note_on_c, 0, 57, 0
2, 1080008, Note_on_c, 0, 59, 67
2, 1080052, Note_on_c, 0, 59, 0
2, 1080084, Note_on_c, 0, 56, 0
2, 1080092, Note_on_c, 0, 62, 0
2, 1080104, Note_on_c, 0, 84, 94
2, 1080104, Note_on_c, 0, 60, 79
2, 1080104, Note_on_c, 0, 55, 73
2, 1080120, Note_on_c, 0, 83, 0
2, 1080204, Note_on_c, 0, 64, 71
2, 1080224, Note_on_c, 0, 60, 0
2, 1080296, Note_on_c, 0, 64, 0
2, 1080300, Note_on_c, 0, 79, 90
2, 1080300, Note_on_c, 0, 60, 77
2, 1080340, Note_on_c, 0, 84, 0
2, 1080396, Note_on_c, 0, 60, 0
2, 1080396, Note_on_c, 0, 64, 73
2, 1080420, Note_on_c, 0, 55, 0
2, 1080484, Note_on_c, 0, 64, 0
2, 1080500, Note_on_c, 0, 79, 0
2, 1080508, Note_on_c, 0, 82, 91
2, 1080508, Note_on_c, 0, 52, 69
2, 1080508, Note_on_c, 0, 55, 71
2, 1080584, Note_on_c, 0, 60, 72
2, 1080660, Note_on_c, 0, 55, 0
2, 1080688, Note_on_c, 0, 52, 0
2, 1080692, Note_on_c, 0, 82, 0
2, 1080708, Note_on_c, 0, 81, 88
2, 1080708, Note_on_c, 0, 53, 73
2, 1080708, Note_on_c, 0, 57, 70
2, 1080712, Note_on_c, 0, 60, 0
2, 1080800, Note_on_c, 0, 60, 72
2, 1080824, Note_on_c, 0, 57, 0
2, 1080892, Note_on_c, 0, 60, 0
2, 1080908, Note_on_c, 0, 81, 0
2, 1080920, Note_on_c, 0, 77, 87
2, 1080920, Note_on_c, 0, 57, 69
2, 1080980, Note_on_c, 0, 60, 71
2, 1081028, Note_on_c, 0, 60, 0
2, 1081092, Note_on_c, 0, 53, 0
2, 1081096, Note_on_c, 0, 57, 0
2, 1081112, Note_on_c, 0, 77, 0
2, 1081124, Note_on_c, 0, 74, 84
2, 1081124, Note_on_c, 0, 55, 70
2, 1081124, Note_on_c, 0, 59, 68
2, 1081224, Note_on_c, 0, 65, 70
2, 1081236, Note_on_c, 0, 55, 0
2, 1081304, Note_on_c, 0, 74, 0
2, 1081324, Note_on_c, 0, 72, 83
2, 1081324, Note_on_c, 0, 64, 68
2, 1081324, Note_on_c, 0, 48, 82
2, 1081340, Note_on_c, 0, 65, 0
2, 1081380, Control_c, 0, 64, 40
2, 1081388, Note_on_c, 0, 59, 0
2, 1081392, Control_c, 0, 64, 56
2, 1081404, Control_c, 0, 64, 72
2, 1081408, Note_on_c, 0, 64, 0
2, 1081412, Note_on_c, 0, 72, 0
2, 1081416, Control_c, 0, 64, 88
2, 1081420, Note_on_c, 0, 60, 72
2, 1081464, Control_c, 0, 64, 104
2, 1081520, Control_c, 0, 64, 88
2, 1081532, Note_on_c, 0, 60, 0
2, 1081532, Control_c, 0, 64, 72
2, 1081544, Control_c, 0, 64, 56
2, 1081548, Note_on_c, 0, 72, 84
2, 1081548, Note_on_c, 0, 60, 78
2, 1081548, Note_on_c, 0, 64, 69
2, 1081552, Control_c, 0, 64, 24
2, 1081568, Control_c, 0, 64, 0
2, 1081624, Note_on_c, 0, 60, 68
2, 1081632, Note_on_c, 0, 64, 0
2, 1081648, Control_c, 0, 64, 24
2, 1081660, Control_c, 0, 64, 56
2, 1081672, Control_c, 0, 64, 72
2, 1081684, Control_c, 0, 64, 88
2, 1081696, Control_c, 0, 64, 104
2, 1081712, Note_on_c, 0, 60, 0
2, 1081728, Note_on_c, 0, 72, 0
2, 1081732, Note_on_c, 0, 60, 0
2, 1081744, Note_on_c, 0, 76, 93
2, 1081744, Note_on_c, 0, 64, 71
2, 1081744, Control_c, 0, 64, 127
2, 1081828, Note_on_c, 0, 60, 71
2, 1081844, Note_on_c, 0, 64, 0
2, 1081916, Note_on_c, 0, 76, 0
2, 1081916, Control_c, 0, 64, 88
2, 1081924, Note_on_c, 0, 77, 91
2, 1081924, Note_on_c, 0, 65, 78
2, 1081928, Control_c, 0, 64, 24
2, 1081936, Note_on_c, 0, 60, 0
2, 1081940, Control_c, 0, 64, 0
2, 1081944, Note_on_c, 0, 69, 73
2, 1082020, Control_c, 0, 64, 88
2, 1082032, Note_on_c, 0, 60, 69
2, 1082032, Control_c, 0, 64, 127
2, 1082036, Note_on_c, 0, 65, 0
2, 1082112, Note_on_c, 0, 60, 0
2, 1082124, Note_on_c, 0, 86, 97
2, 1082124, Note_on_c, 0, 74, 74
2, 1082124, Note_on_c, 0, 65, 70
2, 1082148, Note_on_c, 0, 77, 0
2, 1082208, Note_on_c, 0, 60, 68
2, 1082216, Note_on_c, 0, 65, 0
2, 1082272, Note_on_c, 0, 74, 0
2, 1082288, Note_on_c, 0, 69, 0
2, 1082296, Note_on_c, 0, 86, 0
2, 1082300, Note_on_c, 0, 83, 99
2, 1082300, Note_on_c, 0, 71, 80
2, 1082300, Note_on_c, 0, 62, 73
2, 1082300, Note_on_c, 0, 68, 72
2, 1082308, Note_on_c, 0, 60, 0
2, 1082324, Control_c, 0, 64, 56
2, 1082336, Control_c, 0, 64, 0
2, 1082376, Note_on_c, 0, 62, 0
2, 1082392, Control_c, 0, 64, 24
2, 1082404, Control_c, 0, 64, 72
2, 1082416, Note_on_c, 0, 59, 68
2, 1082416, Control_c, 0, 64, 127
2, 1082444, Note_on_c, 0, 68, 0
2, 1082464, Note_on_c, 0, 71, 0
2, 1082492, Note_on_c, 0, 59, 0
2, 1082500, Note_on_c, 0, 84, 94
2, 1082500, Note_on_c, 0, 72, 78
2, 1082500, Note_on_c, 0, 67, 70
2, 1082500, Note_on_c, 0, 64, 73
2, 1082508, Control_c, 0, 64, 72
2, 1082520, Note_on_c, 0, 83, 0
2, 1082520, Control_c, 0, 64, 0
2, 1082568, Note_on_c, 0, 64, 0
2, 1082596, Note_on_c, 0, 60, 73
2, 1082604, Note_on_c, 0, 67, 0
2, 1082616, Control_c, 0, 64, 40
2, 1082624, Control_c, 0, 64, 88
2, 1082636, Control_c, 0, 64, 104
2, 1082648, Control_c, 0, 64, 127
2, 1082684, Note_on_c, 0, 60, 0
2, 1082684, Control_c, 0, 64, 56
2, 1082696, Control_c, 0, 64, 0
2, 1082708, Note_on_c, 0, 79, 94
2, 1082708, Note_on_c, 0, 67, 82
2, 1082708, Note_on_c, 0, 72, 75
2, 1082708, Note_on_c, 0, 64, 76
2, 1082712, Note_on_c, 0, 72, 0
2, 1082716, Note_on_c, 0, 84, 0
2, 1082764, Control_c, 0, 64, 56
2, 1082776, Control_c, 0, 64, 88
2, 1082780, Note_on_c, 0, 60, 74
2, 1082784, Note_on_c, 0, 64, 0
2, 1082788, Control_c, 0, 64, 127
2, 1082796, Control_c, 0, 64, 24
2, 1082804, Control_c, 0, 64, 40
2, 1082812, Control_c, 0, 64, 56
2, 1082820, Control_c, 0, 64, 72
2, 1082840, Note_on_c, 0, 60, 0
2, 1082844, Control_c, 0, 64, 104
2, 1082852, Note_on_c, 0, 72, 0
2, 1082860, Control_c, 0, 64, 56
2, 1082868, Control_c, 0, 64, 0
2, 1082872, Note_on_c, 0, 67, 0
2, 1082880, Control_c, 0, 64, 40
2, 1082888, Control_c, 0, 64, 24
2, 1082892, Note_on_c, 0, 79, 0
2, 1082892, Note_on_c, 0, 82, 90
2, 1082892, Note_on_c, 0, 70, 78
2, 1082892, Note_on_c, 0, 76, 73
2, 1082892, Note_on_c, 0, 58, 73
2, 1082896, Control_c, 0, 64, 0
2, 1082916, Control_c, 0, 64, 24
2, 1082928, Control_c, 0, 64, 56
2, 1082940, Control_c, 0, 64, 104
2, 1082952, Control_c, 0, 64, 127
2, 1082984, Note_on_c, 0, 58, 0
2, 1083016, Note_on_c, 0, 60, 69
2, 1083036, Note_on_c, 0, 70, 0
2, 1083056, Control_c, 0, 64, 88
2, 1083064, Note_on_c, 0, 82, 0
2, 1083064, Control_c, 0, 64, 24
2, 1083072, Note_on_c, 0, 76, 0
2, 1083076, Control_c, 0, 64, 0
2, 1083088, Note_on_c, 0, 81, 87
2, 1083088, Note_on_c, 0, 69, 78
2, 1083088, Note_on_c, 0, 77, 74
2, 1083088, Note_on_c, 0, 57, 70
2, 1083088, Note_on_c, 0, 48, 82
2, 1083116, Note_on_c, 0, 60, 0
2, 1083160, Control_c, 0, 64, 56
2, 1083172, Note_on_c, 0, 57, 0
2, 1083172, Control_c, 0, 64, 88
2, 1083184, Control_c, 0, 64, 104
2, 1083196, Control_c, 0, 64, 127
2, 1083200, Note_on_c, 0, 60, 69
2, 1083252, Control_c, 0, 64, 88
2, 1083260, Control_c, 0, 64, 56
2, 1083276, Note_on_c, 0, 81, 0
2, 1083276, Control_c, 0, 64, 0
2, 1083280, Note_on_c, 0, 69, 0
2, 1083288, Note_on_c, 0, 60, 0
2, 1083288, Note_on_c, 0, 77, 86
2, 1083288, Note_on_c, 0, 65, 76
2, 1083288, Note_on_c, 0, 57, 71
2, 1083288, Note_on_c, 0, 86, 85
2, 1083332, Control_c, 0, 64, 56
2, 1083340, Note_on_c, 0, 48, 0
2, 1083344, Control_c, 0, 64, 88
2, 1083356, Control_c, 0, 64, 127
2, 1083364, Note_on_c, 0, 57, 0
2, 1083380, Note_on_c, 0, 60, 69
2, 1083444, Note_on_c, 0, 65, 0
2, 1083448, Note_on_c, 0, 60, 0
2, 1083472, Note_on_c, 0, 77, 0
2, 1083472, Note_on_c, 0, 77, 0
2, 1083472, Note_on_c, 0, 86, 0
2, 1083484, Note_on_c, 0, 74, 84
2, 1083484, Note_on_c, 0, 62, 77
2, 1083484, Note_on_c, 0, 83, 83
2, 1083484, Note_on_c, 0, 62, 70
2, 1083484, Note_on_c, 0, 55, 72
2, 1083544, Note_on_c, 0, 55, 0
2, 1083564, Note_on_c, 0, 62, 0
2, 1083580, Note_on_c, 0, 65, 69
2, 1083640, Note_on_c, 0, 62, 0
2, 1083640, Note_on_c, 0, 74, 0
2, 1083660, Note_on_c, 0, 65, 0
2, 1083676, Note_on_c, 0, 84, 87
2, 1083676, Note_on_c, 0, 64, 68
2, 1083680, Note_on_c, 0, 72, 78
2, 1083680, Note_on_c, 0, 60, 76
2, 1083696, Note_on_c, 0, 60, 68
2, 1083704, Note_on_c, 0, 83, 0
2, 1083720, Control_c, 0, 64, 88
2, 1083728, Control_c, 0, 64, 56
2, 1083740, Control_c, 0, 64, 0
2, 1083768, Note_on_c, 0, 64, 0
2, 1083768, Note_on_c, 0, 62, 70
2, 1083860, Note_on_c, 0, 84, 0
2, 1083888, Note_on_c, 0, 60, 0
2, 1083888, Note_on_c, 0, 60, 0
2, 1083896, Note_on_c, 0, 74, 80
2, 1083896, Note_on_c, 0, 66, 70
2, 1083904, Note_on_c, 0, 72, 0
2, 1083908, Note_on_c, 0, 62, 0
2, 1083996, Note_on_c, 0, 62, 69
2, 1084004, Note_on_c, 0, 66, 0
2, 1084076, Note_on_c, 0, 48, 0
2, 1084084, Note_on_c, 0, 62, 0
2, 1084092, Note_on_c, 0, 78, 83
2, 1084092, Note_on_c, 0, 60, 76
2, 1084092, Note_on_c, 0, 62, 75
2, 1084116, Note_on_c, 0, 74, 0
2, 1084188, Note_on_c, 0, 66, 68
2, 1084208, Note_on_c, 0, 62, 0
2, 1084212, Note_on_c, 0, 60, 0
2, 1084288, Note_on_c, 0, 78, 0
2, 1084288, Note_on_c, 0, 79, 87
2, 1084288, Note_on_c, 0, 58, 77
2, 1084288, Note_on_c, 0, 67, 73
2, 1084300, Note_on_c, 0, 66, 0
2, 1084392, Note_on_c, 0, 67, 0
2, 1084396, Note_on_c, 0, 62, 68
2, 1084480, Note_on_c, 0, 62, 0
2, 1084488, Note_on_c, 0, 87, 90
2, 1084488, Note_on_c, 0, 67, 72
2, 1084508, Note_on_c, 0, 79, 0
2, 1084556, Note_on_c, 0, 58, 0
2, 1084568, Note_on_c, 0, 62, 72
2, 1084576, Note_on_c, 0, 67, 0
2, 1084648, Note_on_c, 0, 62, 0
2, 1084668, Note_on_c, 0, 87, 0
2, 1084672, Note_on_c, 0, 85, 88
2, 1084672, Note_on_c, 0, 64, 70
2, 1084672, Note_on_c, 0, 55, 73
2, 1084768, Note_on_c, 0, 61, 70
2, 1084776, Note_on_c, 0, 64, 0
2, 1084808, Note_on_c, 0, 55, 0
2, 1084816, Note_on_c, 0, 61, 0
2, 1084872, Note_on_c, 0, 86, 90
2, 1084876, Note_on_c, 0, 62, 73
2, 1084876, Note_on_c, 0, 54, 78
2, 1084896, Note_on_c, 0, 85, 0
2, 1084964, Note_on_c, 0, 62, 0
2, 1084968, Note_on_c, 0, 57, 69
2, 1085040, Note_on_c, 0, 57, 0
2, 1085056, Note_on_c, 0, 86, 0
2, 1085064, Note_on_c, 0, 81, 88
2, 1085064, Note_on_c, 0, 62, 72
2, 1085156, Note_on_c, 0, 57, 73
2, 1085160, Note_on_c, 0, 62, 0
2, 1085252, Note_on_c, 0, 81, 0
2, 1085256, Note_on_c, 0, 54, 71
2, 1085260, Note_on_c, 0, 84, 88
2, 1085260, Note_on_c, 0, 50, 80
2, 1085268, Note_on_c, 0, 57, 0
2, 1085336, Note_on_c, 0, 54, 0
2, 1085360, Note_on_c, 0, 57, 70
2, 1085424, Note_on_c, 0, 84, 0
2, 1085448, Note_on_c, 0, 82, 87
2, 1085448, Note_on_c, 0, 55, 78
2, 1085448, Note_on_c, 0, 58, 73
2, 1085468, Note_on_c, 0, 57, 0
2, 1085472, Note_on_c, 0, 50, 0
2, 1085536, Note_on_c, 0, 54, 0
2, 1085548, Note_on_c, 0, 62, 69
2, 1085632, Note_on_c, 0, 82, 0
2, 1085648, Note_on_c, 0, 62, 0
2, 1085648, Note_on_c, 0, 79, 85
2, 1085648, Note_on_c, 0, 67, 74
2, 1085668, Note_on_c, 0, 58, 0
2, 1085732, Note_on_c, 0, 67, 0
2, 1085736, Note_on_c, 0, 62, 69
2, 1085812, Note_on_c, 0, 79, 0
2, 1085848, Note_on_c, 0, 62, 0
2, 1085848, Note_on_c, 0, 76, 83
2, 1085848, Note_on_c, 0, 58, 74
2, 1085848, Note_on_c, 0, 67, 74
2, 1085940, Note_on_c, 0, 61, 69
2, 1085944, Note_on_c, 0, 58, 0
2, 1086028, Note_on_c, 0, 76, 0
2, 1086044, Note_on_c, 0, 74, 81
2, 1086044, Note_on_c, 0, 50, 73
2, 1086044, Note_on_c, 0, 66, 74
2, 1086056, Note_on_c, 0, 61, 0
2, 1086060, Control_c, 0, 64, 24
2, 1086068, Note_on_c, 0, 67, 0
2, 1086072, Control_c, 0, 64, 40
2, 1086084, Control_c, 0, 64, 56
2, 1086092, Control_c, 0, 64, 72
2, 1086104, Control_c, 0, 64, 88
2, 1086108, Note_on_c, 0, 74, 0
2, 1086108, Note_on_c, 0, 66, 0
2, 1086132, Note_on_c, 0, 62, 70
2, 1086152, Control_c, 0, 64, 104
2, 1086224, Note_on_c, 0, 62, 0
2, 1086256, Control_c, 0, 64, 72
2, 1086268, Note_on_c, 0, 74, 87
2, 1086268, Note_on_c, 0, 66, 71
2, 1086268, Control_c, 0, 64, 40
2, 1086280, Note_on_c, 0, 62, 77
2, 1086280, Control_c, 0, 64, 0
2, 1086336, Note_on_c, 0, 62, 71
2, 1086356, Note_on_c, 0, 66, 0
2, 1086360, Note_on_c, 0, 55, 0
2, 1086360, Control_c, 0, 64, 24
2, 1086372, Control_c, 0, 64, 56
2, 1086384, Control_c, 0, 64, 72
2, 1086396, Control_c, 0, 64, 88
2, 1086432, Control_c, 0, 64, 24
2, 1086440, Control_c, 0, 64, 0
2, 1086452, Note_on_c, 0, 74, 0
2, 1086460, Note_on_c, 0, 62, 0
2, 1086460, Note_on_c, 0, 62, 0
2, 1086464, Note_on_c, 0, 78, 94
2, 1086464, Note_on_c, 0, 66, 78
2, 1086492, Control_c, 0, 64, 24
2, 1086500, Control_c, 0, 64, 56
2, 1086512, Control_c, 0, 64, 88
2, 1086524, Control_c, 0, 64, 104
2, 1086536, Control_c, 0, 64, 127
2, 1086556, Note_on_c, 0, 62, 70
2, 1086596, Note_on_c, 0, 66, 0
2, 1086616, Note_on_c, 0, 50, 0
2, 1086628, Control_c, 0, 64, 56
2, 1086640, Control_c, 0, 64, 0
2, 1086648, Note_on_c, 0, 79, 97
2, 1086648, Note_on_c, 0, 67, 78
2, 1086648, Note_on_c, 0, 38, 79
2, 1086648, Note_on_c, 0, 50, 71
2, 1086652, Note_on_c, 0, 78, 0
2, 1086696, Note_on_c, 0, 62, 0
2, 1086708, Control_c, 0, 64, 40
2, 1086720, Control_c, 0, 64, 88
2, 1086732, Control_c, 0, 64, 127
2, 1086748, Note_on_c, 0, 67, 0
2, 1086756, Note_on_c, 0, 62, 73
2, 1086840, Note_on_c, 0, 62, 0
2, 1086844, Note_on_c, 0, 87, 99
2, 1086844, Note_on_c, 0, 75, 82
2, 1086844, Note_on_c, 0, 58, 73
2, 1086864, Note_on_c, 0, 79, 0
2, 1086932, Note_on_c, 0, 58, 0
2, 1086936, Note_on_c, 0, 62, 70
2, 1086996, Note_on_c, 0, 62, 0
2, 1087000, Note_on_c, 0, 87, 0
2, 1087012, Control_c, 0, 64, 88
2, 1087020, Note_on_c, 0, 75, 0
2, 1087020, Note_on_c, 0, 85, 96
2, 1087020, Note_on_c, 0, 73, 77
2, 1087020, Note_on_c, 0, 55, 73
2, 1087024, Control_c, 0, 64, 40
2, 1087036, Control_c, 0, 64, 0
2, 1087084, Control_c, 0, 64, 24
2, 1087092, Control_c, 0, 64, 56
2, 1087104, Control_c, 0, 64, 104
2, 1087116, Note_on_c, 0, 55, 0
2, 1087116, Control_c, 0, 64, 127
2, 1087120, Note_on_c, 0, 61, 69
2, 1087176, Control_c, 0, 64, 104
2, 1087188, Control_c, 0, 64, 56
2, 1087196, Control_c, 0, 64, 0
2, 1087200, Note_on_c, 0, 73, 0
2, 1087208, Note_on_c, 0, 61, 0
2, 1087212, Note_on_c, 0, 85, 0
2, 1087216, Note_on_c, 0, 86, 96
2, 1087216, Note_on_c, 0, 74, 78
2, 1087216, Note_on_c, 0, 62, 72
2, 1087244, Control_c, 0, 64, 24
2, 1087248, Note_on_c, 0, 38, 0
2, 1087256, Control_c, 0, 64, 72
2, 1087268, Control_c, 0, 64, 127
2, 1087288, Note_on_c, 0, 74, 0
2, 1087396, Note_on_c, 0, 62, 0
2, 1087408, Note_on_c, 0, 86, 0
2, 1087432, Note_on_c, 0, 77, 95
2, 1087432, Note_on_c, 0, 65, 82
2, 1087432, Note_on_c, 0, 69, 73
2, 1087440, Control_c, 0, 64, 88
2, 1087452, Control_c, 0, 64, 40
2, 1087464, Control_c, 0, 64, 0
2, 1087500, Control_c, 0, 64, 24
2, 1087512, Control_c, 0, 64, 40
2, 1087516, Note_on_c, 0, 65, 75
2, 1087524, Control_c, 0, 64, 88
2, 1087536, Control_c, 0, 64, 127
2, 1087544, Note_on_c, 0, 69, 0
2, 1087604, Note_on_c, 0, 65, 0
2, 1087608, Note_on_c, 0, 65, 0
2, 1087616, Control_c, 0, 64, 72
2, 1087624, Note_on_c, 0, 81, 97
2, 1087624, Note_on_c, 0, 69, 80
2, 1087624, Note_on_c, 0, 75, 74
2, 1087624, Note_on_c, 0, 72, 72
2, 1087628, Note_on_c, 0, 77, 0
2, 1087628, Control_c, 0, 64, 24
2, 1087640, Control_c, 0, 64, 0
2, 1087664, Note_on_c, 0, 50, 0
2, 1087676, Control_c, 0, 64, 56
2, 1087688, Control_c, 0, 64, 127
2, 1087708, Note_on_c, 0, 65, 73
2, 1087752, Note_on_c, 0, 65, 0
2, 1087768, Control_c, 0, 64, 56
2, 1087780, Control_c, 0, 64, 0
2, 1087792, Note_on_c, 0, 69, 0
2, 1087800, Note_on_c, 0, 82, 98
2, 1087800, Note_on_c, 0, 70, 84
2, 1087800, Note_on_c, 0, 74, 73
2, 1087800, Note_on_c, 0, 70, 75
2, 1087812, Control_c, 0, 64, 56
2, 1087824, Note_on_c, 0, 81, 0
2, 1087824, Control_c, 0, 64, 127
2, 1087844, Note_on_c, 0, 72, 0
2, 1087860, Note_on_c, 0, 70, 0
2, 1087864, Note_on_c, 0, 82, 0
2, 1087868, Note_on_c, 0, 75, 0
2, 1087896, Note_on_c, 0, 70, 0
2, 1087900, Note_on_c, 0, 65, 71
2, 1087916, Note_on_c, 0, 74, 0
2, 1087996, Note_on_c, 0, 91, 103
2, 1087996, Note_on_c, 0, 70, 71
2, 1087996, Note_on_c, 0, 74, 71
2, 1088004, Note_on_c, 0, 79, 82
2, 1088036, Note_on_c, 0, 65, 0
2, 1088088, Note_on_c, 0, 70, 0
2, 1088088, Note_on_c, 0, 65, 71
2, 1088096, Note_on_c, 0, 74, 0
2, 1088164, Note_on_c, 0, 91, 0
2, 1088184, Note_on_c, 0, 65, 0
2, 1088184, Note_on_c, 0, 88, 100
2, 1088188, Note_on_c, 0, 70, 63
2, 1088188, Note_on_c, 0, 73, 59
2, 1088192, Note_on_c, 0, 79, 0
2, 1088204, Note_on_c, 0, 76, 77
2, 1088220, Control_c, 0, 64, 56
2, 1088232, Control_c, 0, 64, 0
2, 1088256, Note_on_c, 0, 70, 0
2, 1088268, Note_on_c, 0, 65, 74
2, 1088272, Note_on_c, 0, 73, 0
2, 1088280, Control_c, 0, 64, 40
2, 1088292, Control_c, 0, 64, 88
2, 1088304, Control_c, 0, 64, 127
2, 1088364, Note_on_c, 0, 65, 0
2, 1088380, Note_on_c, 0, 76, 0
2, 1088380, Note_on_c, 0, 89, 100
2, 1088380, Note_on_c, 0, 77, 81
2, 1088380, Note_on_c, 0, 69, 75
2, 1088380, Note_on_c, 0, 72, 72
2, 1088388, Control_c, 0, 64, 72
2, 1088404, Note_on_c, 0, 88, 0
2, 1088404, Control_c, 0, 64, 0
2, 1088456, Note_on_c, 0, 65, 70
2, 1088512, Control_c, 0, 64, 40
2, 1088524, Control_c, 0, 64, 88
2, 1088536, Control_c, 0, 64, 127
2, 1088548, Note_on_c, 0, 65, 0
2, 1088580, Note_on_c, 0, 77, 0
2, 1088588, Note_on_c, 0, 72, 74
2, 1088588, Note_on_c, 0, 84, 97
2, 1088588, Note_on_c, 0, 65, 72
2, 1088612, Note_on_c, 0, 89, 0
2, 1088672, Note_on_c, 0, 65, 69
2, 1088688, Note_on_c, 0, 65, 0
2, 1088748, Note_on_c, 0, 72, 0
2, 1088748, Note_on_c, 0, 72, 0
2, 1088768, Note_on_c, 0, 84, 0
2, 1088784, Note_on_c, 0, 87, 100
2, 1088784, Note_on_c, 0, 75, 73
2, 1088784, Note_on_c, 0, 63, 73
2, 1088784, Note_on_c, 0, 69, 73
2, 1088872, Note_on_c, 0, 65, 0
2, 1088872, Note_on_c, 0, 65, 63
2, 1088888, Note_on_c, 0, 63, 0
2, 1088916, Note_on_c, 0, 87, 0
2, 1088948, Note_on_c, 0, 75, 0
2, 1088948, Note_on_c, 0, 69, 0
2, 1088952, Note_on_c, 0, 65, 0
2, 1088988, Control_c, 0, 64, 104
2, 1088992, Note_on_c, 0, 86, 95
2, 1088992, Note_on_c, 0, 74, 81
2, 1088992, Note_on_c, 0, 62, 76
2, 1088992, Note_on_c, 0, 70, 75
2, 1089000, Control_c, 0, 64, 40
2, 1089012, Control_c, 0, 64, 0
2, 1089076, Note_on_c, 0, 65, 73
2, 1089080, Note_on_c, 0, 62, 0
2, 1089080, Control_c, 0, 64, 24
2, 1089088, Note_on_c, 0, 70, 0
2, 1089092, Control_c, 0, 64, 56
2, 1089104, Control_c, 0, 64, 88
2, 1089116, Control_c, 0, 64, 127
2, 1089152, Note_on_c, 0, 74, 0
2, 1089164, Note_on_c, 0, 86, 0
2, 1089180, Note_on_c, 0, 82, 90
2, 1089180, Note_on_c, 0, 70, 78
2, 1089180, Note_on_c, 0, 79, 81
2, 1089180, Note_on_c, 0, 62, 72
2, 1089188, Note_on_c, 0, 65, 0
2, 1089220, Note_on_c, 0, 69, 0
2, 1089260, Note_on_c, 0, 62, 0
2, 1089272, Note_on_c, 0, 65, 73
2, 1089324, Note_on_c, 0, 65, 0
2, 1089332, Note_on_c, 0, 70, 0
2, 1089356, Note_on_c, 0, 82, 0
2, 1089372, Note_on_c, 0, 79, 0
2, 1089384, Note_on_c, 0, 79, 87
2, 1089384, Note_on_c, 0, 67, 78
2, 1089384, Note_on_c, 0, 58, 77
2, 1089384, Note_on_c, 0, 48, 81
2, 1089384, Note_on_c, 0, 76, 77
2, 1089396, Control_c, 0, 64, 72
2, 1089408, Control_c, 0, 64, 0
2, 1089476, Control_c, 0, 64, 24
2, 1089484, Note_on_c, 0, 64, 73
2, 1089488, Control_c, 0, 64, 56
2, 1089500, Control_c, 0, 64, 88
2, 1089508, Control_c, 0, 64, 104
2, 1089524, Control_c, 0, 64, 127
2, 1089548, Note_on_c, 0, 76, 0
2, 1089548, Note_on_c, 0, 67, 0
2, 1089560, Note_on_c, 0, 58, 0
2, 1089564, Note_on_c, 0, 64, 0
2, 1089564, Note_on_c, 0, 48, 0
2, 1089568, Control_c, 0, 64, 104
2, 1089576, Note_on_c, 0, 79, 0
2, 1089580, Control_c, 0, 64, 88
2, 1089584, Note_on_c, 0, 77, 85
2, 1089584, Note_on_c, 0, 65, 75
2, 1089584, Note_on_c, 0, 57, 74
2, 1089584, Note_on_c, 0, 41, 79
2, 1089584, Control_c, 0, 64, 72
2, 1089604, Control_c, 0, 64, 56
2, 1089616, Control_c, 0, 64, 24
2, 1089624, Control_c, 0, 64, 0
2, 1089672, Note_on_c, 0, 65, 67
2, 1089756, Note_on_c, 0, 65, 0
2, 1089756, Note_on_c, 0, 65, 0
2, 1089772, Note_on_c, 0, 72, 76
2, 1089772, Note_on_c, 0, 29, 74
2, 1089772, Note_on_c, 0, 41, 80
2, 1089832, Note_on_c, 0, 29, 0
2, 1089848, Note_on_c, 0, 41, 0
2, 1089848, Note_on_c, 0, 41, 0
2, 1089856, Note_on_c, 0, 65, 63
2, 1089868, Note_on_c, 0, 53, 78
2, 1089924, Note_on_c, 0, 53, 0
2, 1089952, Note_on_c, 0, 72, 0
2, 1089964, Note_on_c, 0, 75, 79
2, 1089964, Note_on_c, 0, 45, 88
2, 1089964, Note_on_c, 0, 33, 80
2, 1090004, Note_on_c, 0, 33, 0
2, 1090020, Note_on_c, 0, 45, 0
2, 1090048, Note_on_c, 0, 65, 0
2, 1090052, Note_on_c, 0, 57, 82
2, 1090064, Note_on_c, 0, 57, 0
2, 1090068, Note_on_c, 0, 65, 71
2, 1090072, Note_on_c, 0, 75, 0
2, 1090072, Note_on_c, 0, 77, 0
2, 1090164, Note_on_c, 0, 65, 0
2, 1090164, Note_on_c, 0, 74, 82
2, 1090164, Note_on_c, 0, 58, 51
2, 1090164, Note_on_c, 0, 34, 76
2, 1090164, Note_on_c, 0, 46, 86
2, 1090176, Note_on_c, 0, 46, 55
2, 1090188, Note_on_c, 0, 57, 0
2, 1090196, Note_on_c, 0, 34, 0
2, 1090200, Note_on_c, 0, 46, 0
2, 1090244, Note_on_c, 0, 58, 82
2, 1090260, Note_on_c, 0, 65, 71
2, 1090280, Note_on_c, 0, 58, 0
2, 1090348, Note_on_c, 0, 65, 0
2, 1090360, Note_on_c, 0, 74, 0
2, 1090364, Note_on_c, 0, 70, 72
2, 1090364, Note_on_c, 0, 43, 83
2, 1090364, Note_on_c, 0, 55, 93
2, 1090396, Note_on_c, 0, 55, 0
2, 1090408, Note_on_c, 0, 43, 0
2, 1090412, Note_on_c, 0, 46, 0
2, 1090460, Note_on_c, 0, 58, 0
2, 1090460, Note_on_c, 0, 65, 73
2, 1090460, Note_on_c, 0, 67, 83
2, 1090516, Note_on_c, 0, 67, 0
2, 1090544, Note_on_c, 0, 65, 0
2, 1090544, Note_on_c, 0, 70, 0
2, 1090560, Note_on_c, 0, 67, 80
2, 1090560, Note_on_c, 0, 61, 69
2, 1090560, Note_on_c, 0, 58, 70
2, 1090560, Note_on_c, 0, 40, 80
2, 1090560, Note_on_c, 0, 52, 91
2, 1090596, Note_on_c, 0, 40, 0
2, 1090600, Note_on_c, 0, 52, 0
2, 1090656, Note_on_c, 0, 65, 75
2, 1090656, Note_on_c, 0, 64, 89
2, 1090668, Note_on_c, 0, 67, 0
2, 1090700, Note_on_c, 0, 64, 0
2, 1090704, Note_on_c, 0, 61, 0
2, 1090724, Note_on_c, 0, 58, 0
2, 1090736, Note_on_c, 0, 65, 0
2, 1090760, Note_on_c, 0, 65, 89
2, 1090760, Note_on_c, 0, 60, 68
2, 1090760, Note_on_c, 0, 57, 68
2, 1090760, Note_on_c, 0, 53, 86
2, 1090832, Note_on_c, 0, 57, 0
2, 1090832, Note_on_c, 0, 60, 0
2, 1090856, Note_on_c, 0, 53, 0
2, 1090864, Note_on_c, 0, 65, 88
2, 1090952, Note_on_c, 0, 65, 0
2, 1090968, Note_on_c, 0, 52, 88
2, 1090968, Note_on_c, 0, 40, 85
2, 1091000, Note_on_c, 0, 40, 0
2, 1091008, Note_on_c, 0, 52, 0
2, 1091028, Note_on_c, 0, 65, 0
2, 1091056, Note_on_c, 0, 64, 85
2, 1091148, Note_on_c, 0, 55, 87
2, 1091156, Note_on_c, 0, 43, 83
2, 1091192, Note_on_c, 0, 55, 0
2, 1091200, Note_on_c, 0, 64, 0
2, 1091204, Note_on_c, 0, 43, 0
2, 1091236, Note_on_c, 0, 67, 87
2, 1091292, Note_on_c, 0, 67, 0
2, 1091336, Note_on_c, 0, 53, 90
2, 1091336, Note_on_c, 0, 41, 84
2, 1091376, Note_on_c, 0, 41, 0
2, 1091388, Note_on_c, 0, 53, 0
2, 1091424, Note_on_c, 0, 65, 88
2, 1091500, Note_on_c, 0, 65, 0
2, 1091520, Note_on_c, 0, 55, 91
2, 1091520, Note_on_c, 0, 43, 87
2, 1091568, Note_on_c, 0, 43, 0
2, 1091568, Note_on_c, 0, 55, 0
2, 1091608, Note_on_c, 0, 67, 88
2, 1091704, Note_on_c, 0, 57, 89
2, 1091704, Note_on_c, 0, 45, 90
2, 1091732, Note_on_c, 0, 45, 0
2, 1091748, Note_on_c, 0, 57, 0
2, 1091752, Note_on_c, 0, 67, 0
2, 1091792, Note_on_c, 0, 69, 92
2, 1091828, Note_on_c, 0, 69, 0
2, 1091896, Note_on_c, 0, 70, 97
2, 1091896, Note_on_c, 0, 58, 86
2, 1091896, Note_on_c, 0, 46, 88
2, 1092052, Note_on_c, 0, 46, 0
2, 1092060, Note_on_c, 0, 58, 0
2, 1092060, Note_on_c, 0, 70, 0
2, 1092288, Note_on_c, 0, 58, 75
2, 1092292, Note_on_c, 0, 77, 103
2, 1092292, Note_on_c, 0, 65, 96
2, 1092292, Note_on_c, 0, 62, 83
2, 1092296, Note_on_c, 0, 74, 91
2, 1092316, Note_on_c, 0, 62, 0
2, 1092328, Note_on_c, 0, 65, 0
2, 1092328, Note_on_c, 0, 58, 0
2, 1092340, Note_on_c, 0, 74, 0
2, 1092344, Note_on_c, 0, 77, 0
2, 1092532, Note_on_c, 0, 78, 106
2, 1092532, Note_on_c, 0, 66, 103
2, 1092536, Note_on_c, 0, 75, 97
2, 1092536, Note_on_c, 0, 63, 93
2, 1092540, Note_on_c, 0, 58, 79
2, 1092540, Note_on_c, 0, 60, 88
2, 1092564, Note_on_c, 0, 60, 0
2, 1092576, Note_on_c, 0, 63, 0
2, 1092576, Control_c, 0, 64, 72
2, 1092580, Note_on_c, 0, 66, 0
2, 1092580, Note_on_c, 0, 78, 0
2, 1092584, Note_on_c, 0, 75, 0
2, 1092584, Note_on_c, 0, 58, 0
2, 1092588, Control_c, 0, 64, 127
2, 1092944, Note_on_c, 0, 57, 98
2, 1092952, Note_on_c, 0, 45, 96
2, 1092952, Note_on_c, 0, 33, 85
2, 1092984, Note_on_c, 0, 45, 0
2, 1093000, Note_on_c, 0, 33, 0
2, 1093036, Note_on_c, 0, 57, 0
2, 1093128, Control_c, 0, 64, 72
2, 1093140, Control_c, 0, 64, 0
2, 1093164, Note_on_c, 0, 58, 97
2, 1093164, Note_on_c, 0, 34, 85
2, 1093176, Note_on_c, 0, 46, 92
2, 1093208, Control_c, 0, 64, 72
2, 1093220, Control_c, 0, 64, 127
2, 1093376, Note_on_c, 0, 57, 83
2, 1093380, Note_on_c, 0, 45, 83
2, 1093428, Note_on_c, 0, 57, 0
2, 1093432, Note_on_c, 0, 45, 0
2, 1093468, Note_on_c, 0, 48, 88
2, 1093476, Note_on_c, 0, 60, 94
2, 1093528, Note_on_c, 0, 48, 0
2, 1093540, Note_on_c, 0, 60, 0
2, 1093556, Note_on_c, 0, 51, 84
2, 1093560, Note_on_c, 0, 63, 88
2, 1093592, Note_on_c, 0, 34, 0
2, 1093604, Note_on_c, 0, 46, 0
2, 1093628, Note_on_c, 0, 58, 0
2, 1093644, Note_on_c, 0, 51, 0
2, 1093652, Note_on_c, 0, 66, 85
2, 1093656, Note_on_c, 0, 54, 83
2, 1093684, Note_on_c, 0, 63, 0
2, 1093704, Note_on_c, 0, 66, 0
2, 1093740, Note_on_c, 0, 57, 83
2, 1093744, Note_on_c, 0, 54, 0
2, 1093756, Note_on_c, 0, 69, 98
2, 1093768, Note_on_c, 0, 57, 0
2, 1093808, Note_on_c, 0, 69, 0
2, 1093844, Note_on_c, 0, 60, 83
2, 1093852, Note_on_c, 0, 72, 100
2, 1093908, Note_on_c, 0, 60, 0
2, 1093940, Note_on_c, 0, 63, 83
2, 1093948, Note_on_c, 0, 75, 93
2, 1093952, Note_on_c, 0, 72, 0
2, 1093988, Note_on_c, 0, 75, 0
2, 1094020, Note_on_c, 0, 63, 0
2, 1094036, Note_on_c, 0, 78, 101
2, 1094036, Note_on_c, 0, 66, 83
2, 1094096, Note_on_c, 0, 78, 0
2, 1094112, Note_on_c, 0, 66, 0
2, 1094120, Note_on_c, 0, 81, 103
2, 1094140, Note_on_c, 0, 69, 65
2, 1094188, Note_on_c, 0, 69, 0
2, 1094216, Note_on_c, 0, 81, 0
2, 1094216, Note_on_c, 0, 72, 93
2, 1094220, Note_on_c, 0, 84, 98
2, 1094280, Note_on_c, 0, 72, 0
2, 1094284, Note_on_c, 0, 84, 0
2, 1094288, Control_c, 0, 64, 88
2, 1094304, Control_c, 0, 64, 0
2, 1094328, Note_on_c, 0, 86, 109
2, 1094328, Note_on_c, 0, 70, 83
2, 1094328, Note_on_c, 0, 65, 83
2, 1094328, Note_on_c, 0, 74, 93
2, 1094328, Note_on_c, 0, 82, 95
2, 1094328, Note_on_c, 0, 77, 104
2, 1094328, Note_on_c, 0, 58, 80
2, 1094328, Note_on_c, 0, 46, 84
2, 1094372, Note_on_c, 0, 77, 0
2, 1094372, Note_on_c, 0, 74, 0
2, 1094376, Note_on_c, 0, 82, 0
2, 1094384, Note_on_c, 0, 65, 0
2, 1094384, Note_on_c, 0, 70, 0
2, 1094384, Control_c, 0, 64, 127
2, 1094388, Note_on_c, 0, 46, 0
2, 1094388, Note_on_c, 0, 58, 0
2, 1094400, Note_on_c, 0, 86, 0
2, 1094700, Control_c, 0, 64, 88
2, 1094712, Control_c, 0, 64, 56
2, 1094724, Control_c, 0, 64, 0
2, 1094732, Note_on_c, 0, 77, 106
2, 1094732, Note_on_c, 0, 74, 93
2, 1094732, Note_on_c, 0, 65, 96
2, 1094732, Note_on_c, 0, 58, 74
2, 1094740, Note_on_c, 0, 62, 83
2, 1094772, Note_on_c, 0, 58, 0
2, 1094772, Note_on_c, 0, 65, 0
2, 1094780, Note_on_c, 0, 62, 0
2, 1094788, Note_on_c, 0, 74, 0
2, 1094796, Note_on_c, 0, 77, 0
2, 1094956, Note_on_c, 0, 80, 101
2, 1094956, Note_on_c, 0, 68, 96
2, 1094956, Note_on_c, 0, 65, 92
2, 1094956, Note_on_c, 0, 59, 88
2, 1094956, Note_on_c, 0, 62, 89
2, 1094956, Note_on_c, 0, 77, 99
2, 1094984, Note_on_c, 0, 62, 0
2, 1094996, Control_c, 0, 64, 127
2, 1095000, Note_on_c, 0, 65, 0
2, 1095000, Note_on_c, 0, 77, 0
2, 1095004, Note_on_c, 0, 68, 0
2, 1095004, Note_on_c, 0, 59, 0
2, 1095024, Note_on_c, 0, 80, 0
2, 1095348, Note_on_c, 0, 59, 94
2, 1095348, Note_on_c, 0, 47, 78
2, 1095348, Note_on_c, 0, 35, 80
2, 1095376, Note_on_c, 0, 35, 0
2, 1095384, Note_on_c, 0, 47, 0
2, 1095420, Note_on_c, 0, 59, 0
2, 1095488, Control_c, 0, 64, 104
2, 1095500, Control_c, 0, 64, 56
2, 1095512, Control_c, 0, 64, 0
2, 1095572, Note_on_c, 0, 60, 108
2, 1095588, Note_on_c, 0, 48, 93
2, 1095588, Note_on_c, 0, 36, 87
2, 1095620, Control_c, 0, 64, 56
2, 1095632, Control_c, 0, 64, 127
2, 1095792, Note_on_c, 0, 59, 78
2, 1095800, Note_on_c, 0, 47, 66
2, 1095844, Note_on_c, 0, 59, 0
2, 1095884, Note_on_c, 0, 62, 93
2, 1095888, Note_on_c, 0, 50, 84
2, 1095900, Note_on_c, 0, 47, 0
2, 1095960, Note_on_c, 0, 62, 0
2, 1095968, Note_on_c, 0, 50, 0
2, 1095972, Note_on_c, 0, 65, 88
2, 1095984, Note_on_c, 0, 53, 87
2, 1096016, Note_on_c, 0, 36, 0
2, 1096028, Note_on_c, 0, 48, 0
2, 1096032, Note_on_c, 0, 60, 0
2, 1096060, Note_on_c, 0, 68, 87
2, 1096072, Note_on_c, 0, 56, 79
2, 1096080, Note_on_c, 0, 53, 0
2, 1096092, Note_on_c, 0, 65, 0
2, 1096108, Note_on_c, 0, 68, 0
2, 1096108, Note_on_c, 0, 56, 0
2, 1096164, Note_on_c, 0, 71, 88
2, 1096180, Note_on_c, 0, 59, 79
2, 1096216, Note_on_c, 0, 71, 0
2, 1096260, Note_on_c, 0, 74, 98
2, 1096272, Note_on_c, 0, 62, 84
2, 1096280, Note_on_c, 0, 59, 0
2, 1096332, Note_on_c, 0, 74, 0
2, 1096340, Note_on_c, 0, 62, 0
2, 1096352, Note_on_c, 0, 77, 99
2, 1096364, Note_on_c, 0, 65, 81
2, 1096436, Note_on_c, 0, 80, 90
2, 1096452, Note_on_c, 0, 65, 0
2, 1096456, Note_on_c, 0, 68, 85
2, 1096468, Note_on_c, 0, 77, 0
2, 1096480, Note_on_c, 0, 80, 0
2, 1096492, Note_on_c, 0, 68, 0
2, 1096532, Note_on_c, 0, 83, 98
2, 1096532, Note_on_c, 0, 71, 84
2, 1096600, Note_on_c, 0, 71, 0
2, 1096604, Note_on_c, 0, 83, 0
2, 1096624, Note_on_c, 0, 86, 103
2, 1096636, Note_on_c, 0, 74, 93
2, 1096680, Note_on_c, 0, 86, 0
2, 1096692, Note_on_c, 0, 74, 0
2, 1096760, Note_on_c, 0, 87, 103
2, 1096760, Note_on_c, 0, 79, 93
2, 1096760, Note_on_c, 0, 84, 79
2, 1096760, Note_on_c, 0, 72, 81
2, 1096760, Note_on_c, 0, 75, 79
2, 1096760, Note_on_c, 0, 67, 75
2, 1096760, Note_on_c, 0, 48, 83
2, 1096760, Note_on_c, 0, 60, 76
2, 1096780, Note_on_c, 0, 84, 0
2, 1096828, Control_c, 0, 64, 88
2, 1096840, Control_c, 0, 64, 24
2, 1096852, Control_c, 0, 64, 0
2, 1096868, Note_on_c, 0, 60, 0
2, 1096884, Note_on_c, 0, 48, 0
2, 1096904, Note_on_c, 0, 72, 0
2, 1096904, Note_on_c, 0, 67, 0
2, 1096924, Note_on_c, 0, 75, 0
2, 1096948, Control_c, 0, 64, 88
2, 1096960, Control_c, 0, 64, 127
2, 1096976, Note_on_c, 0, 67, 83
2, 1097040, Note_on_c, 0, 79, 0
2, 1097100, Note_on_c, 0, 87, 0
2, 1097164, Note_on_c, 0, 67, 0
2, 1097188, Note_on_c, 0, 71, 86
2, 1097244, Note_on_c, 0, 71, 0
2, 1097356, Control_c, 0, 64, 88
2, 1097368, Control_c, 0, 64, 56
2, 1097380, Control_c, 0, 64, 0
2, 1097424, Note_on_c, 0, 92, 97
2, 1097424, Note_on_c, 0, 75, 75
2, 1097424, Note_on_c, 0, 72, 73
2, 1097424, Note_on_c, 0, 72, 87
2, 1097444, Control_c, 0, 64, 88
2, 1097456, Control_c, 0, 64, 127
2, 1097476, Note_on_c, 0, 72, 0
2, 1097496, Note_on_c, 0, 75, 0
2, 1097500, Note_on_c, 0, 92, 0
2, 1097528, Note_on_c, 0, 94, 88
2, 1097532, Note_on_c, 0, 80, 69
2, 1097604, Note_on_c, 0, 80, 0
2, 1097608, Note_on_c, 0, 94, 0
2, 1097624, Note_on_c, 0, 92, 97
2, 1097636, Note_on_c, 0, 75, 68
2, 1097648, Note_on_c, 0, 72, 64
2, 1097676, Note_on_c, 0, 72, 0
2, 1097696, Note_on_c, 0, 75, 0
2, 1097712, Note_on_c, 0, 72, 0
2, 1097732, Note_on_c, 0, 80, 70
2, 1097732, Note_on_c, 0, 94, 87
2, 1097812, Note_on_c, 0, 92, 0
2, 1097816, Note_on_c, 0, 94, 0
2, 1097816, Note_on_c, 0, 80, 0
2, 1097828, Note_on_c, 0, 92, 97
2, 1097828, Note_on_c, 0, 78, 87
2, 1097836, Note_on_c, 0, 75, 68
2, 1097856, Note_on_c, 0, 72, 60
2, 1097896, Note_on_c, 0, 72, 0
2, 1097908, Note_on_c, 0, 92, 0
2, 1097912, Note_on_c, 0, 75, 0
2, 1097928, Note_on_c, 0, 94, 86
2, 1097940, Note_on_c, 0, 80, 61
2, 1098004, Note_on_c, 0, 80, 0
2, 1098012, Note_on_c, 0, 94, 0
2, 1098032, Control_c, 0, 64, 56
2, 1098040, Note_on_c, 0, 91, 100
2, 1098040, Note_on_c, 0, 79, 88
2, 1098044, Note_on_c, 0, 78, 0
2, 1098044, Note_on_c, 0, 71, 70
2, 1098044, Control_c, 0, 64, 0
2, 1098056, Note_on_c, 0, 74, 71
2, 1098112, Note_on_c, 0, 74, 0
2, 1098112, Control_c, 0, 64, 24
2, 1098116, Note_on_c, 0, 71, 0
2, 1098124, Control_c, 0, 64, 104
2, 1098132, Note_on_c, 0, 91, 0
2, 1098132, Note_on_c, 0, 92, 98
2, 1098136, Note_on_c, 0, 79, 71
2, 1098136, Control_c, 0, 64, 127
2, 1098200, Note_on_c, 0, 79, 0
2, 1098204, Note_on_c, 0, 92, 0
2, 1098232, Note_on_c, 0, 91, 96
2, 1098232, Note_on_c, 0, 74, 88
2, 1098248, Note_on_c, 0, 71, 63
2, 1098252, Note_on_c, 0, 74, 61
2, 1098272, Note_on_c, 0, 79, 0
2, 1098292, Note_on_c, 0, 74, 0
2, 1098308, Note_on_c, 0, 71, 0
2, 1098320, Note_on_c, 0, 91, 0
2, 1098332, Note_on_c, 0, 92, 97
2, 1098340, Note_on_c, 0, 79, 73
2, 1098408, Note_on_c, 0, 79, 0
2, 1098408, Note_on_c, 0, 92, 0
2, 1098424, Note_on_c, 0, 74, 0
2, 1098428, Note_on_c, 0, 91, 92
2, 1098428, Note_on_c, 0, 75, 93
2, 1098452, Note_on_c, 0, 71, 63
2, 1098452, Note_on_c, 0, 74, 65
2, 1098504, Note_on_c, 0, 74, 0
2, 1098512, Note_on_c, 0, 71, 0
2, 1098524, Note_on_c, 0, 91, 0
2, 1098524, Note_on_c, 0, 92, 98
2, 1098536, Note_on_c, 0, 79, 73
2, 1098608, Note_on_c, 0, 79, 0
2, 1098608, Note_on_c, 0, 92, 0
2, 1098628, Note_on_c, 0, 89, 98
2, 1098628, Note_on_c, 0, 67, 76
2, 1098628, Note_on_c, 0, 77, 94
2, 1098640, Note_on_c, 0, 75, 0
2, 1098640, Control_c, 0, 64, 88
2, 1098652, Note_on_c, 0, 71, 66
2, 1098652, Control_c, 0, 64, 24
2, 1098660, Note_on_c, 0, 74, 61
2, 1098664, Control_c, 0, 64, 0
2, 1098708, Note_on_c, 0, 89, 0
2, 1098712, Control_c, 0, 64, 40
2, 1098724, Note_on_c, 0, 71, 0
2, 1098724, Note_on_c, 0, 74, 0
2, 1098724, Control_c, 0, 64, 104
2, 1098728, Note_on_c, 0, 91, 95
2, 1098736, Control_c, 0, 64, 127
2, 1098740, Note_on_c, 0, 79, 72
2, 1098804, Note_on_c, 0, 79, 0
2, 1098804, Note_on_c, 0, 91, 0
2, 1098832, Note_on_c, 0, 74, 81
2, 1098836, Note_on_c, 0, 89, 103
2, 1098848, Note_on_c, 0, 74, 64
2, 1098856, Note_on_c, 0, 71, 57
2, 1098864, Note_on_c, 0, 77, 0
2, 1098908, Note_on_c, 0, 89, 0
2, 1098912, Note_on_c, 0, 74, 0
2, 1098916, Note_on_c, 0, 71, 0
2, 1098936, Note_on_c, 0, 91, 93
2, 1098940, Note_on_c, 0, 79, 74
2, 1099004, Note_on_c, 0, 91, 0
2, 1099008, Note_on_c, 0, 79, 0
2, 1099032, Note_on_c, 0, 89, 101
2, 1099032, Note_on_c, 0, 79, 93
2, 1099040, Note_on_c, 0, 74, 0
2, 1099052, Note_on_c, 0, 74, 58
2, 1099056, Note_on_c, 0, 71, 57
2, 1099100, Note_on_c, 0, 74, 0
2, 1099104, Note_on_c, 0, 71, 0
2, 1099108, Note_on_c, 0, 89, 0
2, 1099136, Note_on_c, 0, 91, 93
2, 1099136, Note_on_c, 0, 79, 77
2, 1099144, Note_on_c, 0, 67, 0
2, 1099200, Note_on_c, 0, 79, 0
2, 1099208, Note_on_c, 0, 79, 0
2, 1099220, Note_on_c, 0, 91, 0
2, 1099240, Control_c, 0, 64, 104
2, 1099244, Note_on_c, 0, 87, 93
2, 1099244, Note_on_c, 0, 72, 77
2, 1099244, Note_on_c, 0, 75, 74
2, 1099244, Note_on_c, 0, 75, 85
2, 1099252, Control_c, 0, 64, 40
2, 1099264, Control_c, 0, 64, 0
2, 1099308, Note_on_c, 0, 75, 0
2, 1099308, Note_on_c, 0, 72, 0
2, 1099332, Note_on_c, 0, 87, 0
2, 1099332, Control_c, 0, 64, 88
2, 1099336, Note_on_c, 0, 89, 95
2, 1099336, Note_on_c, 0, 79, 68
2, 1099348, Control_c, 0, 64, 127
2, 1099404, Note_on_c, 0, 79, 0
2, 1099416, Note_on_c, 0, 89, 0
2, 1099440, Note_on_c, 0, 87, 94
2, 1099440, Note_on_c, 0, 75, 70
2, 1099440, Note_on_c, 0, 72, 70
2, 1099440, Note_on_c, 0, 51, 69
2, 1099440, Note_on_c, 0, 63, 73
2, 1099448, Note_on_c, 0, 75, 0
2, 1099476, Note_on_c, 0, 72, 0
2, 1099496, Note_on_c, 0, 75, 0
2, 1099524, Note_on_c, 0, 87, 0
2, 1099532, Note_on_c, 0, 89, 92
2, 1099532, Note_on_c, 0, 79, 72
2, 1099616, Note_on_c, 0, 79, 0
2, 1099616, Note_on_c, 0, 63, 0
2, 1099620, Note_on_c, 0, 89, 0
2, 1099632, Note_on_c, 0, 87, 96
2, 1099632, Note_on_c, 0, 72, 68
2, 1099632, Note_on_c, 0, 75, 68
2, 1099632, Note_on_c, 0, 67, 81
2, 1099632, Note_on_c, 0, 55, 76
2, 1099636, Note_on_c, 0, 51, 0
2, 1099676, Note_on_c, 0, 72, 0
2, 1099684, Note_on_c, 0, 75, 0
2, 1099720, Note_on_c, 0, 87, 0
2, 1099728, Note_on_c, 0, 89, 94
2, 1099728, Note_on_c, 0, 79, 71
2, 1099804, Note_on_c, 0, 79, 0
2, 1099812, Note_on_c, 0, 89, 0
2, 1099820, Note_on_c, 0, 55, 0
2, 1099824, Note_on_c, 0, 67, 0
2, 1099836, Note_on_c, 0, 87, 97
2, 1099836, Note_on_c, 0, 75, 72
2, 1099836, Note_on_c, 0, 72, 71
2, 1099836, Note_on_c, 0, 56, 79
2, 1099836, Note_on_c, 0, 68, 90
2, 1099888, Note_on_c, 0, 72, 0
2, 1099900, Note_on_c, 0, 75, 0
2, 1099924, Note_on_c, 0, 87, 0
2, 1099928, Note_on_c, 0, 89, 91
2, 1099928, Note_on_c, 0, 80, 68
2, 1099996, Note_on_c, 0, 56, 0
2, 1100012, Note_on_c, 0, 89, 0
2, 1100016, Note_on_c, 0, 80, 0
2, 1100036, Note_on_c, 0, 87, 93
2, 1100036, Note_on_c, 0, 72, 70
2, 1100036, Note_on_c, 0, 75, 71
2, 1100036, Note_on_c, 0, 65, 77
2, 1100036, Note_on_c, 0, 77, 95
2, 1100096, Note_on_c, 0, 75, 0
2, 1100104, Note_on_c, 0, 72, 0
2, 1100116, Note_on_c, 0, 87, 0
2, 1100124, Note_on_c, 0, 80, 70
2, 1100132, Note_on_c, 0, 89, 91
2, 1100208, Note_on_c, 0, 89, 0
2, 1100208, Note_on_c, 0, 80, 0
2, 1100236, Note_on_c, 0, 87, 97
2, 1100236, Note_on_c, 0, 71, 74
2, 1100236, Note_on_c, 0, 74, 72
2, 1100236, Note_on_c, 0, 62, 79
2, 1100236, Note_on_c, 0, 74, 94
2, 1100244, Note_on_c, 0, 77, 0
2, 1100268, Note_on_c, 0, 65, 0
2, 1100292, Note_on_c, 0, 74, 0
2, 1100292, Note_on_c, 0, 74, 0
2, 1100304, Note_on_c, 0, 71, 0
2, 1100316, Note_on_c, 0, 87, 0
2, 1100332, Note_on_c, 0, 89, 93
2, 1100332, Note_on_c, 0, 80, 76
2, 1100392, Note_on_c, 0, 80, 0
2, 1100404, Control_c, 0, 64, 104
2, 1100408, Note_on_c, 0, 89, 0
2, 1100416, Note_on_c, 0, 62, 0
2, 1100416, Control_c, 0, 64, 40
2, 1100424, Note_on_c, 0, 75, 94
2, 1100428, Note_on_c, 0, 70, 77
2, 1100428, Control_c, 0, 64, 0
2, 1100432, Note_on_c, 0, 73, 73
2, 1100432, Note_on_c, 0, 87, 95
2, 1100432, Note_on_c, 0, 63, 73
2, 1100476, Note_on_c, 0, 68, 0
2, 1100500, Control_c, 0, 64, 24
2, 1100508, Note_on_c, 0, 73, 0
2, 1100508, Note_on_c, 0, 70, 0
2, 1100508, Control_c, 0, 64, 104
2, 1100512, Note_on_c, 0, 87, 0
2, 1100520, Control_c, 0, 64, 127
2, 1100528, Note_on_c, 0, 89, 92
2, 1100528, Note_on_c, 0, 80, 74
2, 1100612, Note_on_c, 0, 80, 0
2, 1100612, Note_on_c, 0, 89, 0
2, 1100640, Note_on_c, 0, 87, 97
2, 1100640, Note_on_c, 0, 70, 69
2, 1100640, Note_on_c, 0, 73, 65
2, 1100640, Note_on_c, 0, 70, 80
2, 1100640, Note_on_c, 0, 58, 73
2, 1100664, Note_on_c, 0, 75, 0
2, 1100688, Note_on_c, 0, 63, 0
2, 1100712, Note_on_c, 0, 70, 0
2, 1100712, Note_on_c, 0, 73, 0
2, 1100716, Note_on_c, 0, 87, 0
2, 1100732, Note_on_c, 0, 89, 94
2, 1100732, Note_on_c, 0, 80, 76
2, 1100816, Note_on_c, 0, 58, 0
2, 1100820, Note_on_c, 0, 80, 0
2, 1100820, Note_on_c, 0, 89, 0
2, 1100840, Note_on_c, 0, 87, 95
2, 1100840, Note_on_c, 0, 70, 73
2, 1100840, Note_on_c, 0, 73, 71
2, 1100840, Note_on_c, 0, 60, 77
2, 1100840, Note_on_c, 0, 72, 96
2, 1100844, Note_on_c, 0, 70, 0
2, 1100892, Note_on_c, 0, 60, 0
2, 1100904, Note_on_c, 0, 73, 0
2, 1100912, Note_on_c, 0, 87, 0
2, 1100924, Note_on_c, 0, 70, 0
2, 1100924, Note_on_c, 0, 89, 92
2, 1100924, Note_on_c, 0, 80, 75
2, 1100992, Note_on_c, 0, 80, 0
2, 1101008, Note_on_c, 0, 89, 0
2, 1101036, Note_on_c, 0, 85, 96
2, 1101036, Note_on_c, 0, 70, 76
2, 1101036, Note_on_c, 0, 73, 86
2, 1101036, Note_on_c, 0, 67, 74
2, 1101036, Note_on_c, 0, 51, 82
2, 1101036, Note_on_c, 0, 61, 70
2, 1101040, Control_c, 0, 64, 104
2, 1101044, Note_on_c, 0, 72, 0
2, 1101052, Control_c, 0, 64, 56
2, 1101060, Control_c, 0, 64, 0
2, 1101108, Note_on_c, 0, 70, 0
2, 1101120, Control_c, 0, 64, 56
2, 1101124, Note_on_c, 0, 85, 0
2, 1101132, Note_on_c, 0, 87, 89
2, 1101132, Note_on_c, 0, 79, 74
2, 1101132, Control_c, 0, 64, 127
2, 1101200, Note_on_c, 0, 79, 0
2, 1101220, Note_on_c, 0, 87, 0
2, 1101228, Note_on_c, 0, 85, 95
2, 1101228, Note_on_c, 0, 73, 71
2, 1101228, Note_on_c, 0, 70, 79
2, 1101228, Note_on_c, 0, 58, 72
2, 1101288, Note_on_c, 0, 73, 0
2, 1101304, Note_on_c, 0, 61, 0
2, 1101312, Note_on_c, 0, 85, 0
2, 1101324, Note_on_c, 0, 87, 87
2, 1101336, Note_on_c, 0, 79, 78
2, 1101420, Note_on_c, 0, 87, 0
2, 1101424, Note_on_c, 0, 58, 0
2, 1101428, Note_on_c, 0, 67, 0
2, 1101428, Note_on_c, 0, 73, 0
2, 1101428, Note_on_c, 0, 85, 90
2, 1101428, Note_on_c, 0, 73, 74
2, 1101428, Note_on_c, 0, 75, 83
2, 1101428, Note_on_c, 0, 63, 77
2, 1101440, Note_on_c, 0, 79, 0
2, 1101504, Note_on_c, 0, 73, 0
2, 1101520, Note_on_c, 0, 70, 0
2, 1101520, Note_on_c, 0, 85, 0
2, 1101520, Note_on_c, 0, 87, 82
2, 1101520, Note_on_c, 0, 79, 77
2, 1101560, Note_on_c, 0, 63, 0
2, 1101592, Control_c, 0, 64, 56
2, 1101600, Control_c, 0, 64, 0
2, 1101608, Note_on_c, 0, 51, 0
2, 1101608, Note_on_c, 0, 79, 0
2, 1101620, Note_on_c, 0, 75, 0
2, 1101624, Note_on_c, 0, 84, 88
2, 1101624, Note_on_c, 0, 68, 72
2, 1101624, Note_on_c, 0, 72, 78
2, 1101624, Note_on_c, 0, 80, 82
2, 1101628, Note_on_c, 0, 72, 89
2, 1101632, Note_on_c, 0, 60, 73
2, 1101644, Note_on_c, 0, 68, 68
2, 1101648, Note_on_c, 0, 56, 74
2, 1101656, Note_on_c, 0, 87, 0
2, 1101664, Note_on_c, 0, 72, 0
2, 1101672, Note_on_c, 0, 80, 0
2, 1101672, Control_c, 0, 64, 127
2, 1101680, Note_on_c, 0, 84, 0
2, 1101688, Note_on_c, 0, 68, 0
2, 1101688, Note_on_c, 0, 72, 0
2, 1101696, Note_on_c, 0, 68, 0
2, 1101716, Note_on_c, 0, 60, 0
2, 1101780, Note_on_c, 0, 56, 0
2, 1101844, Note_on_c, 0, 72, 94
2, 1101848, Note_on_c, 0, 51, 79
2, 1101900, Note_on_c, 0, 72, 0
2, 1101920, Control_c, 0, 64, 104
2, 1101932, Control_c, 0, 64, 88
2, 1101944, Note_on_c, 0, 71, 88
2, 1101956, Control_c, 0, 64, 72
2, 1101968, Control_c, 0, 64, 56
2, 1101988, Control_c, 0, 64, 40
2, 1102000, Control_c, 0, 64, 24
2, 1102012, Control_c, 0, 64, 0
2, 1102032, Note_on_c, 0, 71, 0
2, 1102036, Note_on_c, 0, 72, 94
2, 1102048, Note_on_c, 0, 51, 0
2, 1102048, Note_on_c, 0, 56, 80
2, 1102132, Note_on_c, 0, 72, 0
2, 1102136, Note_on_c, 0, 74, 95
2, 1102220, Note_on_c, 0, 74, 0
2, 1102236, Note_on_c, 0, 75, 84
2, 1102236, Note_on_c, 0, 44, 86
2, 1102236, Note_on_c, 0, 60, 86
2, 1102236, Note_on_c, 0, 56, 80
2, 1102296, Note_on_c, 0, 60, 0
2, 1102304, Note_on_c, 0, 44, 0
2, 1102304, Note_on_c, 0, 56, 0
2, 1102324, Note_on_c, 0, 75, 0
2, 1102336, Note_on_c, 0, 74, 97
2, 1102436, Note_on_c, 0, 74, 0
2, 1102440, Note_on_c, 0, 77, 88
2, 1102452, Note_on_c, 0, 60, 79
2, 1102452, Note_on_c, 0, 60, 79
2, 1102524, Note_on_c, 0, 77, 0
2, 1102536, Note_on_c, 0, 75, 92
2, 1102636, Note_on_c, 0, 54, 73
2, 1102636, Note_on_c, 0, 51, 68
2, 1102640, Note_on_c, 0, 74, 93
2, 1102648, Note_on_c, 0, 63, 85
2, 1102656, Note_on_c, 0, 75, 0
2, 1102660, Note_on_c, 0, 60, 0
2, 1102684, Note_on_c, 0, 60, 0
2, 1102684, Note_on_c, 0, 51, 0
2, 1102688, Note_on_c, 0, 54, 0
2, 1102712, Note_on_c, 0, 56, 0
2, 1102720, Note_on_c, 0, 74, 0
2, 1102732, Note_on_c, 0, 72, 94
2, 1102820, Note_on_c, 0, 72, 0
2, 1102832, Note_on_c, 0, 67, 93
2, 1102836, Note_on_c, 0, 79, 101
2, 1102844, Note_on_c, 0, 43, 79
2, 1102848, Note_on_c, 0, 43, 86
2, 1102848, Note_on_c, 0, 55, 76
2, 1102856, Note_on_c, 0, 63, 0
2, 1102904, Note_on_c, 0, 43, 0
2, 1102920, Note_on_c, 0, 79, 0
2, 1102940, Note_on_c, 0, 78, 93
2, 1102952, Note_on_c, 0, 67, 0
2, 1103032, Note_on_c, 0, 78, 0
2, 1103036, Note_on_c, 0, 80, 89
2, 1103036, Note_on_c, 0, 60, 78
2, 1103044, Note_on_c, 0, 60, 81
2, 1103132, Note_on_c, 0, 79, 98
2, 1103148, Note_on_c, 0, 80, 0
2, 1103168, Note_on_c, 0, 55, 0
2, 1103200, Note_on_c, 0, 43, 0
2, 1103228, Note_on_c, 0, 79, 0
2, 1103228, Note_on_c, 0, 77, 94
2, 1103240, Note_on_c, 0, 51, 68
2, 1103240, Note_on_c, 0, 55, 71
2, 1103244, Note_on_c, 0, 63, 75
2, 1103248, Note_on_c, 0, 60, 0
2, 1103252, Note_on_c, 0, 60, 0
2, 1103268, Note_on_c, 0, 55, 0
2, 1103296, Note_on_c, 0, 51, 0
2, 1103312, Note_on_c, 0, 77, 0
2, 1103328, Note_on_c, 0, 75, 92
2, 1103408, Note_on_c, 0, 75, 0
2, 1103432, Note_on_c, 0, 43, 78
2, 1103432, Note_on_c, 0, 74, 90
2, 1103436, Note_on_c, 0, 67, 89
2, 1103444, Note_on_c, 0, 43, 78
2, 1103448, Note_on_c, 0, 63, 0
2, 1103456, Note_on_c, 0, 31, 86
2, 1103484, Note_on_c, 0, 43, 0
2, 1103512, Note_on_c, 0, 74, 0
2, 1103528, Note_on_c, 0, 75, 89
2, 1103608, Note_on_c, 0, 75, 0
2, 1103624, Note_on_c, 0, 59, 74
2, 1103628, Note_on_c, 0, 74, 83
2, 1103632, Note_on_c, 0, 62, 73
2, 1103640, Note_on_c, 0, 67, 0
2, 1103696, Note_on_c, 0, 74, 0
2, 1103720, Note_on_c, 0, 75, 87
2, 1103752, Note_on_c, 0, 31, 0
2, 1103788, Note_on_c, 0, 43, 0
2, 1103796, Note_on_c, 0, 75, 0
2, 1103820, Note_on_c, 0, 77, 90
2, 1103820, Note_on_c, 0, 50, 75
2, 1103824, Note_on_c, 0, 55, 70
2, 1103832, Note_on_c, 0, 62, 0
2, 1103832, Note_on_c, 0, 67, 74
2, 1103864, Note_on_c, 0, 59, 0
2, 1103876, Note_on_c, 0, 55, 0
2, 1103876, Note_on_c, 0, 50, 0
2, 1103912, Note_on_c, 0, 77, 0
2, 1103912, Note_on_c, 0, 79, 90
2, 1103996, Note_on_c, 0, 67, 0
2, 1104004, Note_on_c, 0, 79, 0
2, 1104008, Note_on_c, 0, 75, 83
2, 1104008, Note_on_c, 0, 36, 87
2, 1104008, Note_on_c, 0, 48, 83
2, 1104008, Note_on_c, 0, 63, 77
2, 1104104, Note_on_c, 0, 75, 0
2, 1104112, Note_on_c, 0, 48, 0
2, 1104116, Note_on_c, 0, 74, 95
2, 1104208, Note_on_c, 0, 55, 74
2, 1104216, Note_on_c, 0, 74, 0
2, 1104220, Note_on_c, 0, 72, 94
2, 1104224, Note_on_c, 0, 60, 84
2, 1104296, Note_on_c, 0, 36, 0
2, 1104308, Note_on_c, 0, 71, 88
2, 1104316, Note_on_c, 0, 72, 0
2, 1104360, Note_on_c, 0, 60, 0
2, 1104392, Note_on_c, 0, 55, 0
2, 1104404, Note_on_c, 0, 55, 78
2, 1104408, Note_on_c, 0, 71, 0
2, 1104408, Note_on_c, 0, 60, 73
2, 1104412, Note_on_c, 0, 51, 67
2, 1104416, Note_on_c, 0, 63, 0
2, 1104420, Note_on_c, 0, 72, 98
2, 1104448, Note_on_c, 0, 55, 0
2, 1104468, Note_on_c, 0, 51, 0
2, 1104516, Note_on_c, 0, 74, 100
2, 1104524, Note_on_c, 0, 72, 0
2, 1104608, Note_on_c, 0, 63, 77
2, 1104608, Note_on_c, 0, 57, 83
2, 1104612, Note_on_c, 0, 60, 0
2, 1104612, Note_on_c, 0, 45, 88
2, 1104620, Note_on_c, 0, 74, 0
2, 1104628, Note_on_c, 0, 75, 98
2, 1104632, Note_on_c, 0, 45, 79
2, 1104672, Note_on_c, 0, 45, 0
2, 1104716, Note_on_c, 0, 74, 101
2, 1104724, Note_on_c, 0, 75, 0
2, 1104732, Note_on_c, 0, 63, 0
2, 1104812, Note_on_c, 0, 60, 78
2, 1104816, Note_on_c, 0, 74, 0
2, 1104816, Note_on_c, 0, 77, 95
2, 1104816, Note_on_c, 0, 63, 78
2, 1104908, Note_on_c, 0, 75, 97
2, 1104924, Note_on_c, 0, 77, 0
2, 1105000, Note_on_c, 0, 72, 98
2, 1105012, Note_on_c, 0, 74, 97
2, 1105016, Note_on_c, 0, 53, 68
2, 1105020, Note_on_c, 0, 51, 63
2, 1105056, Note_on_c, 0, 60, 0
2, 1105064, Note_on_c, 0, 53, 0
2, 1105072, Note_on_c, 0, 75, 0
2, 1105080, Note_on_c, 0, 51, 0
2, 1105100, Note_on_c, 0, 57, 0
2, 1105104, Note_on_c, 0, 74, 0
2, 1105108, Note_on_c, 0, 72, 100
2, 1105184, Note_on_c, 0, 72, 0
2, 1105184, Note_on_c, 0, 72, 0
2, 1105188, Note_on_c, 0, 45, 0
2, 1105200, Note_on_c, 0, 70, 87
2, 1105200, Note_on_c, 0, 58, 80
2, 1105200, Note_on_c, 0, 46, 87
2, 1105208, Note_on_c, 0, 82, 96
2, 1105212, Note_on_c, 0, 46, 82
2, 1105224, Note_on_c, 0, 63, 0
2, 1105268, Note_on_c, 0, 46, 0
2, 1105292, Note_on_c, 0, 82, 0
2, 1105300, Note_on_c, 0, 81, 100
2, 1105388, Note_on_c, 0, 81, 0
2, 1105408, Note_on_c, 0, 84, 97
2, 1105412, Note_on_c, 0, 63, 68
2, 1105416, Note_on_c, 0, 63, 77
2, 1105488, Note_on_c, 0, 84, 0
2, 1105504, Note_on_c, 0, 82, 88
2, 1105536, Note_on_c, 0, 58, 0
2, 1105568, Note_on_c, 0, 46, 0
2, 1105584, Note_on_c, 0, 70, 0
2, 1105592, Note_on_c, 0, 82, 0
2, 1105592, Note_on_c, 0, 67, 81
2, 1105600, Note_on_c, 0, 80, 94
2, 1105600, Note_on_c, 0, 58, 67
2, 1105608, Note_on_c, 0, 55, 70
2, 1105640, Note_on_c, 0, 63, 0
2, 1105640, Note_on_c, 0, 63, 0
2, 1105656, Note_on_c, 0, 58, 0
2, 1105656, Note_on_c, 0, 55, 0
2, 1105692, Note_on_c, 0, 79, 99
2, 1105696, Note_on_c, 0, 80, 0
2, 1105772, Note_on_c, 0, 67, 0
2, 1105784, Note_on_c, 0, 70, 94
2, 1105800, Note_on_c, 0, 46, 82
2, 1105800, Note_on_c, 0, 77, 98
2, 1105804, Note_on_c, 0, 46, 72
2, 1105808, Note_on_c, 0, 79, 0
2, 1105808, Note_on_c, 0, 34, 83
2, 1105860, Note_on_c, 0, 46, 0
2, 1105896, Note_on_c, 0, 79, 97
2, 1105904, Note_on_c, 0, 77, 0
2, 1105984, Note_on_c, 0, 62, 69
2, 1105988, Note_on_c, 0, 79, 0
2, 1105996, Note_on_c, 0, 77, 95
2, 1106000, Note_on_c, 0, 62, 85
2, 1106092, Note_on_c, 0, 79, 100
2, 1106116, Note_on_c, 0, 77, 0
2, 1106144, Note_on_c, 0, 62, 0
2, 1106160, Note_on_c, 0, 62, 0
2, 1106172, Note_on_c, 0, 34, 0
2, 1106176, Note_on_c, 0, 65, 71
2, 1106180, Note_on_c, 0, 46, 0
2, 1106184, Note_on_c, 0, 79, 0
2, 1106192, Note_on_c, 0, 58, 72
2, 1106192, Note_on_c, 0, 80, 93
2, 1106196, Note_on_c, 0, 56, 66
2, 1106264, Note_on_c, 0, 56, 0
2, 1106288, Note_on_c, 0, 58, 0
2, 1106292, Note_on_c, 0, 82, 93
2, 1106328, Note_on_c, 0, 80, 0
2, 1106364, Note_on_c, 0, 65, 0
2, 1106376, Note_on_c, 0, 70, 0
2, 1106384, Note_on_c, 0, 63, 76
2, 1106392, Note_on_c, 0, 39, 83
2, 1106396, Note_on_c, 0, 51, 67
2, 1106408, Note_on_c, 0, 75, 99
2, 1106412, Note_on_c, 0, 82, 0
2, 1106416, Note_on_c, 0, 58, 70
2, 1106416, Note_on_c, 0, 51, 80
2, 1106420, Note_on_c, 0, 63, 78
2, 1106424, Note_on_c, 0, 55, 73
2, 1106444, Note_on_c, 0, 55, 0
2, 1106456, Note_on_c, 0, 58, 0
2, 1106460, Note_on_c, 0, 63, 0
2, 1106460, Note_on_c, 0, 63, 0
2, 1106464, Note_on_c, 0, 51, 0
2, 1106464, Note_on_c, 0, 51, 0
2, 1106468, Note_on_c, 0, 75, 0
2, 1106748, Note_on_c, 0, 39, 0
2, 1106800, Note_on_c, 0, 75, 99
2, 1106804, Note_on_c, 0, 63, 79
2, 1106808, Note_on_c, 0, 67, 94
2, 1106808, Note_on_c, 0, 58, 70
2, 1106812, Note_on_c, 0, 70, 74
2, 1106816, Note_on_c, 0, 55, 73
2, 1106832, Note_on_c, 0, 70, 0
2, 1106836, Note_on_c, 0, 55, 0
2, 1106844, Note_on_c, 0, 63, 0
2, 1106844, Note_on_c, 0, 58, 0
2, 1106848, Note_on_c, 0, 67, 0
2, 1106876, Note_on_c, 0, 75, 0
2, 1107036, Note_on_c, 0, 76, 107
2, 1107036, Note_on_c, 0, 68, 97
2, 1107040, Note_on_c, 0, 56, 86
2, 1107044, Note_on_c, 0, 71, 95
2, 1107044, Note_on_c, 0, 64, 92
2, 1107048, Note_on_c, 0, 59, 83
2, 1107068, Control_c, 0, 64, 72
2, 1107076, Control_c, 0, 64, 127
2, 1107088, Note_on_c, 0, 64, 0
2, 1107088, Note_on_c, 0, 71, 0
2, 1107088, Note_on_c, 0, 68, 0
2, 1107092, Note_on_c, 0, 59, 0
2, 1107104, Note_on_c, 0, 76, 0
2, 1107104, Note_on_c, 0, 56, 0
2, 1107440, Note_on_c, 0, 50, 95
2, 1107440, Note_on_c, 0, 38, 79
2, 1107440, Note_on_c, 0, 26, 80
2, 1107504, Note_on_c, 0, 38, 0
2, 1107528, Note_on_c, 0, 26, 0
2, 1107560, Note_on_c, 0, 50, 0
2, 1107620, Control_c, 0, 64, 24
2, 1107632, Control_c, 0, 64, 0
2, 1107648, Note_on_c, 0, 39, 82
2, 1107648, Note_on_c, 0, 27, 83
2, 1107652, Note_on_c, 0, 51, 103
2, 1107688, Control_c, 0, 64, 40
2, 1107700, Control_c, 0, 64, 127
2, 1107852, Note_on_c, 0, 40, 78
2, 1107856, Note_on_c, 0, 52, 83
2, 1107904, Note_on_c, 0, 52, 0
2, 1107928, Note_on_c, 0, 40, 0
2, 1107944, Note_on_c, 0, 44, 84
2, 1107948, Note_on_c, 0, 56, 87
2, 1108040, Note_on_c, 0, 44, 0
2, 1108048, Note_on_c, 0, 59, 86
2, 1108048, Note_on_c, 0, 47, 79
2, 1108056, Note_on_c, 0, 56, 0
2, 1108088, Note_on_c, 0, 59, 0
2, 1108100, Note_on_c, 0, 51, 0
2, 1108104, Note_on_c, 0, 39, 0
2, 1108120, Note_on_c, 0, 27, 0
2, 1108120, Note_on_c, 0, 47, 0
2, 1108140, Note_on_c, 0, 52, 83
2, 1108148, Note_on_c, 0, 64, 94
2, 1108208, Note_on_c, 0, 64, 0
2, 1108216, Note_on_c, 0, 52, 0
2, 1108248, Note_on_c, 0, 68, 92
2, 1108248, Note_on_c, 0, 56, 74
2, 1108316, Note_on_c, 0, 56, 0
2, 1108332, Note_on_c, 0, 71, 92
2, 1108344, Note_on_c, 0, 59, 80
2, 1108352, Note_on_c, 0, 68, 0
2, 1108368, Note_on_c, 0, 71, 0
2, 1108420, Note_on_c, 0, 59, 0
2, 1108428, Note_on_c, 0, 76, 94
2, 1108440, Note_on_c, 0, 64, 83
2, 1108492, Note_on_c, 0, 76, 0
2, 1108508, Note_on_c, 0, 64, 0
2, 1108520, Note_on_c, 0, 80, 94
2, 1108544, Note_on_c, 0, 68, 79
2, 1108616, Note_on_c, 0, 83, 97
2, 1108620, Note_on_c, 0, 80, 0
2, 1108624, Note_on_c, 0, 68, 0
2, 1108640, Note_on_c, 0, 71, 88
2, 1108700, Note_on_c, 0, 83, 0
2, 1108712, Note_on_c, 0, 88, 101
2, 1108720, Note_on_c, 0, 71, 0
2, 1108736, Note_on_c, 0, 76, 78
2, 1108756, Note_on_c, 0, 76, 0
2, 1108776, Note_on_c, 0, 88, 0
2, 1108792, Control_c, 0, 64, 24
2, 1108804, Control_c, 0, 64, 0
2, 1108828, Note_on_c, 0, 87, 107
2, 1108828, Note_on_c, 0, 79, 92
2, 1108828, Note_on_c, 0, 67, 83
2, 1108828, Note_on_c, 0, 70, 80
2, 1108828, Note_on_c, 0, 75, 97
2, 1108828, Note_on_c, 0, 82, 78
2, 1108828, Note_on_c, 0, 63, 73
2, 1108828, Note_on_c, 0, 51, 78
2, 1108848, Note_on_c, 0, 82, 0
2, 1108860, Note_on_c, 0, 75, 0
2, 1108872, Note_on_c, 0, 79, 0
2, 1108876, Note_on_c, 0, 70, 0
2, 1108876, Note_on_c, 0, 67, 0
2, 1108876, Control_c, 0, 64, 127
2, 1108888, Note_on_c, 0, 51, 0
2, 1108888, Note_on_c, 0, 63, 0
2, 1108904, Note_on_c, 0, 87, 0
2, 1109076, Control_c, 0, 64, 88
2, 1109088, Control_c, 0, 64, 40
2, 1109096, Control_c, 0, 64, 0
2, 1109220, Note_on_c, 0, 75, 98
2, 1109228, Note_on_c, 0, 58, 72
2, 1109228, Note_on_c, 0, 63, 80
2, 1109228, Note_on_c, 0, 67, 86
2, 1109228, Note_on_c, 0, 55, 82
2, 1109240, Note_on_c, 0, 70, 63
2, 1109260, Note_on_c, 0, 70, 0
2, 1109268, Note_on_c, 0, 55, 0
2, 1109272, Note_on_c, 0, 63, 0
2, 1109272, Note_on_c, 0, 67, 0
2, 1109272, Note_on_c, 0, 58, 0
2, 1109300, Note_on_c, 0, 75, 0
2, 1109452, Note_on_c, 0, 74, 100
2, 1109456, Note_on_c, 0, 68, 87
2, 1109464, Note_on_c, 0, 71, 85
2, 1109468, Note_on_c, 0, 56, 76
2, 1109468, Note_on_c, 0, 59, 78
2, 1109468, Note_on_c, 0, 62, 81
2, 1109484, Note_on_c, 0, 71, 0
2, 1109500, Control_c, 0, 64, 72
2, 1109512, Control_c, 0, 64, 127
2, 1109524, Note_on_c, 0, 68, 0
2, 1109528, Note_on_c, 0, 62, 0
2, 1109544, Note_on_c, 0, 59, 0
2, 1109544, Note_on_c, 0, 74, 0
2, 1109548, Note_on_c, 0, 56, 0
2, 1109848, Note_on_c, 0, 51, 101
2, 1109848, Note_on_c, 0, 39, 88
2, 1109848, Note_on_c, 0, 27, 84
2, 1109892, Note_on_c, 0, 39, 0
2, 1109900, Note_on_c, 0, 51, 0
2, 1109936, Note_on_c, 0, 27, 0
2, 1110028, Control_c, 0, 64, 40
2, 1110040, Control_c, 0, 64, 0
2, 1110064, Note_on_c, 0, 52, 99
2, 1110064, Note_on_c, 0, 40, 88
2, 1110064, Note_on_c, 0, 28, 89
2, 1110108, Control_c, 0, 64, 56
2, 1110120, Control_c, 0, 64, 127
2, 1110276, Note_on_c, 0, 86, 94
2, 1110284, Note_on_c, 0, 74, 83
2, 1110320, Control_c, 0, 64, 56
2, 1110328, Control_c, 0, 64, 88
2, 1110340, Control_c, 0, 64, 104
2, 1110352, Control_c, 0, 64, 127
2, 1110372, Note_on_c, 0, 83, 94
2, 1110376, Note_on_c, 0, 74, 0
2, 1110380, Note_on_c, 0, 86, 0
2, 1110396, Note_on_c, 0, 71, 72
2, 1110460, Note_on_c, 0, 80, 88
2, 1110476, Note_on_c, 0, 71, 0
2, 1110476, Note_on_c, 0, 68, 78
2, 1110496, Note_on_c, 0, 52, 0
2, 1110508, Note_on_c, 0, 40, 0
2, 1110528, Note_on_c, 0, 68, 0
2, 1110536, Note_on_c, 0, 28, 0
2, 1110544, Note_on_c, 0, 83, 0
2, 1110560, Note_on_c, 0, 80, 0
2, 1110560, Note_on_c, 0, 74, 94
2, 1110584, Note_on_c, 0, 62, 80
2, 1110600, Note_on_c, 0, 74, 0
2, 1110636, Note_on_c, 0, 62, 0
2, 1110664, Note_on_c, 0, 71, 81
2, 1110672, Note_on_c, 0, 59, 73
2, 1110736, Note_on_c, 0, 71, 0
2, 1110740, Note_on_c, 0, 59, 0
2, 1110760, Note_on_c, 0, 68, 80
2, 1110760, Note_on_c, 0, 56, 75
2, 1110812, Note_on_c, 0, 56, 0
2, 1110856, Note_on_c, 0, 68, 0
2, 1110856, Note_on_c, 0, 62, 89
2, 1110868, Note_on_c, 0, 50, 83
2, 1110900, Note_on_c, 0, 62, 0
2, 1110912, Note_on_c, 0, 50, 0
2, 1110956, Note_on_c, 0, 59, 78
2, 1110960, Note_on_c, 0, 47, 56
2, 1110992, Note_on_c, 0, 47, 0
2, 1111008, Note_on_c, 0, 44, 62
2, 1111024, Note_on_c, 0, 59, 0
2, 1111052, Note_on_c, 0, 56, 70
2, 1111128, Note_on_c, 0, 56, 0
2, 1111136, Note_on_c, 0, 44, 0
2, 1111152, Note_on_c, 0, 38, 75
2, 1111152, Note_on_c, 0, 50, 90
2, 1111212, Note_on_c, 0, 38, 0
2, 1111244, Note_on_c, 0, 50, 0
2, 1111252, Control_c, 0, 64, 88
2, 1111256, Note_on_c, 0, 63, 68
2, 1111260, Note_on_c, 0, 39, 71
2, 1111264, Note_on_c, 0, 51, 98
2, 1111264, Control_c, 0, 64, 0
2, 1111276, Note_on_c, 0, 51, 68
2, 1111288, Note_on_c, 0, 39, 73
2, 1111356, Note_on_c, 0, 51, 0
2, 1111356, Note_on_c, 0, 51, 0
2, 1111364, Control_c, 0, 64, 24
2, 1111376, Control_c, 0, 64, 40
2, 1111384, Note_on_c, 0, 55, 76
2, 1111408, Control_c, 0, 64, 0
2, 1111464, Note_on_c, 0, 55, 0
2, 1111464, Note_on_c, 0, 63, 0
2, 1111464, Note_on_c, 0, 74, 88
2, 1111480, Note_on_c, 0, 58, 79
2, 1111504, Control_c, 0, 64, 56
2, 1111516, Control_c, 0, 64, 104
2, 1111528, Control_c, 0, 64, 127
2, 1111592, Note_on_c, 0, 63, 80
2, 1111608, Note_on_c, 0, 58, 0
2, 1111624, Note_on_c, 0, 39, 0
2, 1111624, Note_on_c, 0, 39, 0
2, 1111632, Note_on_c, 0, 63, 0
2, 1111676, Note_on_c, 0, 75, 95
2, 1111684, Note_on_c, 0, 67, 91
2, 1111696, Note_on_c, 0, 74, 0
2, 1111716, Note_on_c, 0, 75, 0
2, 1111744, Note_on_c, 0, 67, 0
2, 1111784, Note_on_c, 0, 70, 79
2, 1111868, Note_on_c, 0, 70, 0
2, 1111880, Control_c, 0, 64, 88
2, 1111888, Control_c, 0, 64, 24
2, 1111892, Note_on_c, 0, 73, 92
2, 1111892, Note_on_c, 0, 65, 74
2, 1111892, Note_on_c, 0, 85, 97
2, 1111892, Note_on_c, 0, 65, 71
2, 1111892, Note_on_c, 0, 80, 70
2, 1111892, Note_on_c, 0, 68, 68
2, 1111892, Note_on_c, 0, 63, 76
2, 1111900, Control_c, 0, 64, 0
2, 1111956, Control_c, 0, 64, 56
2, 1111964, Control_c, 0, 64, 127
2, 1111976, Note_on_c, 0, 65, 0
2, 1111992, Note_on_c, 0, 73, 0
2, 1111996, Note_on_c, 0, 75, 89
2, 1111996, Note_on_c, 0, 68, 78
2, 1112056, Note_on_c, 0, 68, 0
2, 1112080, Note_on_c, 0, 75, 0
2, 1112100, Note_on_c, 0, 73, 90
2, 1112100, Note_on_c, 0, 65, 73
2, 1112100, Note_on_c, 0, 72, 84
2, 1112168, Note_on_c, 0, 65, 0
2, 1112188, Note_on_c, 0, 73, 0
2, 1112204, Note_on_c, 0, 75, 87
2, 1112204, Note_on_c, 0, 68, 69
2, 1112288, Note_on_c, 0, 75, 0
2, 1112292, Note_on_c, 0, 68, 0
2, 1112304, Note_on_c, 0, 73, 90
2, 1112304, Note_on_c, 0, 65, 68
2, 1112316, Note_on_c, 0, 72, 0
2, 1112316, Note_on_c, 0, 65, 0
2, 1112336, Note_on_c, 0, 63, 0
2, 1112360, Note_on_c, 0, 85, 0
2, 1112368, Note_on_c, 0, 65, 0
2, 1112396, Note_on_c, 0, 75, 87
2, 1112396, Note_on_c, 0, 68, 68
2, 1112408, Note_on_c, 0, 68, 0
2, 1112476, Note_on_c, 0, 73, 0
2, 1112476, Note_on_c, 0, 68, 0
2, 1112484, Note_on_c, 0, 80, 0
2, 1112496, Note_on_c, 0, 75, 0
2, 1112516, Note_on_c, 0, 72, 98
2, 1112516, Note_on_c, 0, 63, 73
2, 1112516, Note_on_c, 0, 63, 70
2, 1112516, Note_on_c, 0, 84, 89
2, 1112516, Note_on_c, 0, 67, 72
2, 1112516, Note_on_c, 0, 72, 91
2, 1112516, Control_c, 0, 64, 88
2, 1112524, Control_c, 0, 64, 40
2, 1112536, Control_c, 0, 64, 0
2, 1112592, Note_on_c, 0, 63, 0
2, 1112592, Note_on_c, 0, 63, 0
2, 1112604, Note_on_c, 0, 72, 0
2, 1112604, Note_on_c, 0, 72, 0
2, 1112612, Control_c, 0, 64, 24
2, 1112616, Note_on_c, 0, 73, 90
2, 1112616, Note_on_c, 0, 67, 68
2, 1112624, Control_c, 0, 64, 72
2, 1112636, Control_c, 0, 64, 104
2, 1112648, Control_c, 0, 64, 127
2, 1112688, Note_on_c, 0, 67, 0
2, 1112696, Note_on_c, 0, 73, 0
2, 1112716, Note_on_c, 0, 72, 92
2, 1112716, Note_on_c, 0, 63, 67
2, 1112716, Note_on_c, 0, 71, 84
2, 1112792, Note_on_c, 0, 72, 0
2, 1112816, Note_on_c, 0, 73, 84
2, 1112816, Note_on_c, 0, 67, 67
2, 1112880, Note_on_c, 0, 67, 0
2, 1112880, Note_on_c, 0, 67, 0
2, 1112896, Note_on_c, 0, 73, 0
2, 1112920, Note_on_c, 0, 72, 94
2, 1112920, Note_on_c, 0, 63, 67
2, 1112960, Note_on_c, 0, 71, 0
2, 1112960, Note_on_c, 0, 63, 0
2, 1112988, Note_on_c, 0, 63, 0
2, 1113004, Note_on_c, 0, 72, 0
2, 1113016, Note_on_c, 0, 73, 84
2, 1113016, Note_on_c, 0, 67, 70
2, 1113076, Note_on_c, 0, 67, 0
2, 1113100, Note_on_c, 0, 73, 0
2, 1113116, Control_c, 0, 64, 88
2, 1113128, Note_on_c, 0, 70, 83
2, 1113128, Note_on_c, 0, 61, 70
2, 1113128, Note_on_c, 0, 77, 86
2, 1113128, Note_on_c, 0, 65, 75
2, 1113128, Note_on_c, 0, 82, 88
2, 1113128, Note_on_c, 0, 61, 74
2, 1113128, Note_on_c, 0, 51, 76
2, 1113132, Control_c, 0, 64, 40
2, 1113136, Note_on_c, 0, 84, 0
2, 1113140, Control_c, 0, 64, 0
2, 1113204, Note_on_c, 0, 61, 0
2, 1113204, Note_on_c, 0, 61, 0
2, 1113208, Control_c, 0, 64, 24
2, 1113216, Note_on_c, 0, 70, 0
2, 1113216, Control_c, 0, 64, 56
2, 1113228, Control_c, 0, 64, 88
2, 1113232, Note_on_c, 0, 72, 92
2, 1113236, Note_on_c, 0, 65, 68
2, 1113236, Control_c, 0, 64, 104
2, 1113248, Control_c, 0, 64, 127
2, 1113300, Note_on_c, 0, 65, 0
2, 1113308, Note_on_c, 0, 72, 0
2, 1113336, Note_on_c, 0, 70, 87
2, 1113336, Note_on_c, 0, 61, 68
2, 1113336, Note_on_c, 0, 69, 71
2, 1113336, Note_on_c, 0, 84, 88
2, 1113344, Note_on_c, 0, 77, 0
2, 1113356, Note_on_c, 0, 82, 0
2, 1113368, Note_on_c, 0, 65, 0
2, 1113400, Note_on_c, 0, 69, 0
2, 1113424, Note_on_c, 0, 70, 0
2, 1113444, Note_on_c, 0, 72, 88
2, 1113444, Note_on_c, 0, 65, 72
2, 1113520, Note_on_c, 0, 65, 0
2, 1113524, Note_on_c, 0, 72, 0
2, 1113524, Control_c, 0, 64, 88
2, 1113536, Control_c, 0, 64, 56
2, 1113548, Control_c, 0, 64, 24
2, 1113552, Note_on_c, 0, 70, 86
2, 1113552, Note_on_c, 0, 61, 69
2, 1113552, Note_on_c, 0, 67, 76
2, 1113552, Note_on_c, 0, 70, 75
2, 1113552, Note_on_c, 0, 79, 88
2, 1113556, Control_c, 0, 64, 0
2, 1113572, Note_on_c, 0, 51, 0
2, 1113572, Note_on_c, 0, 61, 0
2, 1113580, Note_on_c, 0, 84, 0
2, 1113588, Control_c, 0, 64, 72
2, 1113600, Control_c, 0, 64, 104
2, 1113612, Control_c, 0, 64, 127
2, 1113632, Note_on_c, 0, 70, 0
2, 1113632, Note_on_c, 0, 67, 0
2, 1113640, Note_on_c, 0, 70, 0
2, 1113656, Note_on_c, 0, 72, 92
2, 1113656, Note_on_c, 0, 63, 78
2, 1113672, Note_on_c, 0, 63, 0
2, 1113676, Note_on_c, 0, 61, 0
2, 1113700, Note_on_c, 0, 72, 0
2, 1113700, Note_on_c, 0, 79, 0
2, 1113776, Control_c, 0, 64, 56
2, 1113780, Note_on_c, 0, 68, 93
2, 1113780, Note_on_c, 0, 60, 84
2, 1113780, Note_on_c, 0, 63, 72
2, 1113780, Note_on_c, 0, 56, 73
2, 1113780, Note_on_c, 0, 44, 77
2, 1113780, Note_on_c, 0, 44, 78
2, 1113780, Note_on_c, 0, 72, 83
2, 1113780, Note_on_c, 0, 80, 97
2, 1113788, Control_c, 0, 64, 0
2, 1113836, Note_on_c, 0, 44, 0
2, 1113844, Control_c, 0, 64, 72
2, 1113852, Note_on_c, 0, 56, 0
2, 1113852, Note_on_c, 0, 63, 0
2, 1113852, Note_on_c, 0, 60, 0
2, 1113852, Control_c, 0, 64, 127
2, 1113896, Note_on_c, 0, 68, 0
2, 1114028, Control_c, 0, 64, 88
2, 1114040, Control_c, 0, 64, 40
2, 1114052, Control_c, 0, 64, 0
2, 1114056, Note_on_c, 0, 44, 0
2, 1114068, Note_on_c, 0, 72, 0
2, 1114092, Note_on_c, 0, 80, 0
2, 1114216, Note_on_c, 0, 80, 101
2, 1114216, Note_on_c, 0, 68, 83
2, 1114224, Note_on_c, 0, 72, 89
2, 1114224, Note_on_c, 0, 75, 88
2, 1114228, Note_on_c, 0, 60, 80
2, 1114228, Note_on_c, 0, 63, 71
2, 1114244, Note_on_c, 0, 60, 0
2, 1114248, Note_on_c, 0, 72, 0
2, 1114248, Note_on_c, 0, 63, 0
2, 1114260, Note_on_c, 0, 68, 0
2, 1114264, Note_on_c, 0, 75, 0
2, 1114288, Note_on_c, 0, 80, 0
2, 1114448, Note_on_c, 0, 81, 106
2, 1114448, Note_on_c, 0, 73, 97
2, 1114456, Note_on_c, 0, 76, 100
2, 1114456, Note_on_c, 0, 61, 78
2, 1114460, Note_on_c, 0, 64, 84
2, 1114460, Note_on_c, 0, 69, 90
2, 1114480, Control_c, 0, 64, 72
2, 1114492, Control_c, 0, 64, 127
2, 1114496, Note_on_c, 0, 73, 0
2, 1114500, Note_on_c, 0, 76, 0
2, 1114500, Note_on_c, 0, 69, 0
2, 1114504, Note_on_c, 0, 64, 0
2, 1114508, Note_on_c, 0, 61, 0
2, 1114512, Note_on_c, 0, 81, 0
2, 1114860, Note_on_c, 0, 55, 96
2, 1114864, Note_on_c, 0, 43, 74
2, 1114944, Note_on_c, 0, 43, 0
2, 1115028, Note_on_c, 0, 55, 0
2, 1115052, Control_c, 0, 64, 56
2, 1115060, Control_c, 0, 64, 0
2, 1115080, Note_on_c, 0, 56, 97
2, 1115080, Note_on_c, 0, 44, 85
2, 1115136, Control_c, 0, 64, 88
2, 1115148, Note_on_c, 0, 44, 0
2, 1115152, Control_c, 0, 64, 127
2, 1115164, Note_on_c, 0, 56, 0
2, 1115296, Note_on_c, 0, 57, 73
2, 1115300, Note_on_c, 0, 45, 81
2, 1115352, Note_on_c, 0, 45, 0
2, 1115364, Note_on_c, 0, 57, 0
2, 1115380, Note_on_c, 0, 49, 79
2, 1115384, Note_on_c, 0, 61, 87
2, 1115456, Note_on_c, 0, 49, 0
2, 1115480, Note_on_c, 0, 64, 93
2, 1115488, Note_on_c, 0, 52, 75
2, 1115500, Note_on_c, 0, 61, 0
2, 1115528, Note_on_c, 0, 64, 0
2, 1115560, Note_on_c, 0, 52, 0
2, 1115584, Note_on_c, 0, 57, 71
2, 1115588, Note_on_c, 0, 69, 93
2, 1115656, Note_on_c, 0, 69, 0
2, 1115656, Note_on_c, 0, 57, 0
2, 1115680, Note_on_c, 0, 61, 70
2, 1115688, Note_on_c, 0, 73, 93
2, 1115760, Note_on_c, 0, 61, 0
2, 1115780, Note_on_c, 0, 76, 94
2, 1115788, Note_on_c, 0, 64, 72
2, 1115796, Note_on_c, 0, 73, 0
2, 1115820, Note_on_c, 0, 76, 0
2, 1115856, Note_on_c, 0, 64, 0
2, 1115884, Note_on_c, 0, 81, 91
2, 1115892, Note_on_c, 0, 69, 74
2, 1115948, Note_on_c, 0, 81, 0
2, 1115952, Note_on_c, 0, 69, 0
2, 1115972, Note_on_c, 0, 85, 90
2, 1115972, Note_on_c, 0, 73, 79
2, 1116048, Note_on_c, 0, 73, 0
2, 1116060, Note_on_c, 0, 85, 0
2, 1116076, Note_on_c, 0, 88, 93
2, 1116080, Note_on_c, 0, 76, 68
2, 1116152, Note_on_c, 0, 88, 0
2, 1116156, Note_on_c, 0, 76, 0
2, 1116176, Note_on_c, 0, 93, 103
2, 1116188, Note_on_c, 0, 81, 71
2, 1116220, Note_on_c, 0, 81, 0
2, 1116252, Note_on_c, 0, 93, 0
2, 1116280, Control_c, 0, 64, 40
2, 1116292, Control_c, 0, 64, 0
2, 1116304, Note_on_c, 0, 92, 105
2, 1116312, Note_on_c, 0, 80, 92
2, 1116312, Note_on_c, 0, 84, 89
2, 1116312, Note_on_c, 0, 68, 76
2, 1116312, Note_on_c, 0, 56, 76
2, 1116312, Note_on_c, 0, 44, 78
2, 1116312, Note_on_c, 0, 60, 74
2, 1116316, Note_on_c, 0, 87, 83
2, 1116316, Note_on_c, 0, 72, 87
2, 1116320, Note_on_c, 0, 75, 78
2, 1116332, Note_on_c, 0, 87, 0
2, 1116336, Note_on_c, 0, 72, 0
2, 1116344, Control_c, 0, 64, 127
2, 1116348, Note_on_c, 0, 84, 0
2, 1116352, Note_on_c, 0, 80, 0
2, 1116364, Note_on_c, 0, 92, 0
2, 1116364, Note_on_c, 0, 75, 0
2, 1116372, Note_on_c, 0, 60, 0
2, 1116372, Note_on_c, 0, 56, 0
2, 1116372, Note_on_c, 0, 68, 0
2, 1116372, Note_on_c, 0, 44, 0
2, 1116500, Control_c, 0, 64, 72
2, 1116512, Control_c, 0, 64, 40
2, 1116520, Control_c, 0, 64, 0
2, 1116700, Note_on_c, 0, 80, 99
2, 1116708, Note_on_c, 0, 68, 80
2, 1116712, Note_on_c, 0, 75, 85
2, 1116712, Note_on_c, 0, 72, 91
2, 1116712, Note_on_c, 0, 63, 77
2, 1116716, Note_on_c, 0, 60, 77
2, 1116736, Note_on_c, 0, 60, 0
2, 1116744, Note_on_c, 0, 75, 0
2, 1116744, Note_on_c, 0, 72, 0
2, 1116748, Note_on_c, 0, 68, 0
2, 1116756, Note_on_c, 0, 63, 0
2, 1116768, Note_on_c, 0, 80, 0
2, 1116936, Note_on_c, 0, 83, 103
2, 1116936, Note_on_c, 0, 75, 93
2, 1116940, Note_on_c, 0, 66, 79
2, 1116944, Note_on_c, 0, 78, 86
2, 1116944, Note_on_c, 0, 71, 83
2, 1116944, Note_on_c, 0, 63, 78
2, 1116948, Control_c, 0, 64, 72
2, 1116960, Control_c, 0, 64, 127
2, 1116980, Note_on_c, 0, 71, 0
2, 1116984, Note_on_c, 0, 78, 0
2, 1116984, Note_on_c, 0, 75, 0
2, 1116988, Note_on_c, 0, 66, 0
2, 1116992, Note_on_c, 0, 83, 0
2, 1116992, Note_on_c, 0, 63, 0
2, 1117340, Note_on_c, 0, 57, 94
2, 1117340, Note_on_c, 0, 45, 83
2, 1117356, Note_on_c, 0, 33, 58
2, 1117396, Note_on_c, 0, 33, 0
2, 1117400, Note_on_c, 0, 45, 0
2, 1117472, Note_on_c, 0, 57, 0
2, 1117532, Control_c, 0, 64, 104
2, 1117544, Control_c, 0, 64, 0
2, 1117556, Note_on_c, 0, 58, 93
2, 1117560, Note_on_c, 0, 34, 78
2, 1117572, Note_on_c, 0, 46, 79
2, 1117604, Note_on_c, 0, 34, 0
2, 1117620, Control_c, 0, 64, 127
2, 1117624, Note_on_c, 0, 46, 0
2, 1117636, Note_on_c, 0, 58, 0
2, 1117776, Note_on_c, 0, 59, 84
2, 1117776, Note_on_c, 0, 47, 77
2, 1117848, Note_on_c, 0, 59, 0
2, 1117868, Note_on_c, 0, 47, 0
2, 1117872, Note_on_c, 0, 63, 90
2, 1117872, Note_on_c, 0, 51, 82
2, 1117940, Note_on_c, 0, 51, 0
2, 1117964, Note_on_c, 0, 66, 83
2, 1117964, Note_on_c, 0, 54, 78
2, 1117988, Note_on_c, 0, 63, 0
2, 1118016, Note_on_c, 0, 66, 0
2, 1118040, Note_on_c, 0, 54, 0
2, 1118072, Note_on_c, 0, 71, 93
2, 1118072, Note_on_c, 0, 59, 79
2, 1118144, Note_on_c, 0, 59, 0
2, 1118148, Note_on_c, 0, 71, 0
2, 1118172, Note_on_c, 0, 63, 82
2, 1118176, Note_on_c, 0, 75, 93
2, 1118244, Note_on_c, 0, 63, 0
2, 1118276, Note_on_c, 0, 66, 77
2, 1118276, Note_on_c, 0, 78, 88
2, 1118292, Note_on_c, 0, 75, 0
2, 1118320, Note_on_c, 0, 78, 0
2, 1118348, Note_on_c, 0, 66, 0
2, 1118376, Note_on_c, 0, 71, 71
2, 1118384, Note_on_c, 0, 83, 94
2, 1118448, Note_on_c, 0, 71, 0
2, 1118460, Note_on_c, 0, 83, 0
2, 1118476, Note_on_c, 0, 87, 97
2, 1118476, Note_on_c, 0, 75, 83
2, 1118544, Note_on_c, 0, 75, 0
2, 1118564, Note_on_c, 0, 87, 0
2, 1118572, Note_on_c, 0, 90, 95
2, 1118576, Note_on_c, 0, 78, 82
2, 1118648, Note_on_c, 0, 78, 0
2, 1118660, Note_on_c, 0, 90, 0
2, 1118668, Note_on_c, 0, 95, 103
2, 1118672, Note_on_c, 0, 83, 85
2, 1118716, Note_on_c, 0, 83, 0
2, 1118748, Note_on_c, 0, 95, 0
2, 1118800, Note_on_c, 0, 94, 102
2, 1118800, Note_on_c, 0, 82, 84
2, 1118800, Note_on_c, 0, 77, 88
2, 1118800, Note_on_c, 0, 73, 74
2, 1118800, Note_on_c, 0, 85, 78
2, 1118800, Note_on_c, 0, 89, 87
2, 1118800, Note_on_c, 0, 70, 73
2, 1118800, Note_on_c, 0, 61, 67
2, 1118800, Note_on_c, 0, 58, 67
2, 1118804, Note_on_c, 0, 46, 77
2, 1118860, Control_c, 0, 64, 88
2, 1118868, Control_c, 0, 64, 24
2, 1118880, Control_c, 0, 64, 0
2, 1118988, Control_c, 0, 64, 56
2, 1119000, Control_c, 0, 64, 127
2, 1119024, Note_on_c, 0, 89, 0
2, 1119028, Note_on_c, 0, 77, 0
2, 1119032, Note_on_c, 0, 73, 0
2, 1119032, Note_on_c, 0, 82, 0
2, 1119036, Note_on_c, 0, 85, 0
2, 1119044, Note_on_c, 0, 61, 0
2, 1119044, Note_on_c, 0, 65, 81
2, 1119064, Note_on_c, 0, 94, 0
2, 1119076, Note_on_c, 0, 70, 0
2, 1119228, Note_on_c, 0, 65, 0
2, 1119296, Note_on_c, 0, 69, 83
2, 1119428, Control_c, 0, 64, 88
2, 1119436, Note_on_c, 0, 69, 0
2, 1119440, Control_c, 0, 64, 24
2, 1119452, Control_c, 0, 64, 0
2, 1119520, Note_on_c, 0, 90, 87
2, 1119520, Note_on_c, 0, 70, 72
2, 1119520, Note_on_c, 0, 73, 73
2, 1119520, Note_on_c, 0, 70, 87
2, 1119536, Control_c, 0, 64, 72
2, 1119548, Control_c, 0, 64, 127
2, 1119588, Note_on_c, 0, 70, 0
2, 1119596, Note_on_c, 0, 73, 0
2, 1119612, Note_on_c, 0, 90, 0
2, 1119632, Note_on_c, 0, 92, 88
2, 1119632, Note_on_c, 0, 78, 70
2, 1119708, Note_on_c, 0, 78, 0
2, 1119716, Note_on_c, 0, 92, 0
2, 1119736, Note_on_c, 0, 90, 87
2, 1119736, Note_on_c, 0, 70, 69
2, 1119736, Note_on_c, 0, 73, 67
2, 1119736, Note_on_c, 0, 78, 87
2, 1119776, Note_on_c, 0, 73, 0
2, 1119788, Note_on_c, 0, 70, 0
2, 1119816, Note_on_c, 0, 90, 0
2, 1119844, Note_on_c, 0, 92, 89
2, 1119844, Note_on_c, 0, 78, 68
2, 1119916, Note_on_c, 0, 92, 0
2, 1119944, Note_on_c, 0, 90, 87
2, 1119944, Note_on_c, 0, 73, 66
2, 1119944, Note_on_c, 0, 70, 68
2, 1119944, Note_on_c, 0, 76, 88
2, 1119952, Note_on_c, 0, 78, 0
2, 1119980, Note_on_c, 0, 78, 0
2, 1119988, Note_on_c, 0, 73, 0
2, 1120000, Note_on_c, 0, 70, 0
2, 1120020, Note_on_c, 0, 90, 0
2, 1120040, Note_on_c, 0, 92, 84
2, 1120040, Note_on_c, 0, 78, 68
2, 1120104, Note_on_c, 0, 78, 0
2, 1120116, Note_on_c, 0, 46, 0
2, 1120124, Note_on_c, 0, 58, 0
2, 1120128, Note_on_c, 0, 92, 0
2, 1120152, Note_on_c, 0, 89, 91
2, 1120152, Note_on_c, 0, 69, 72
2, 1120152, Note_on_c, 0, 72, 79
2, 1120152, Note_on_c, 0, 77, 90
2, 1120152, Control_c, 0, 64, 88
2, 1120164, Control_c, 0, 64, 0
2, 1120176, Note_on_c, 0, 76, 0
2, 1120220, Note_on_c, 0, 72, 0
2, 1120220, Control_c, 0, 64, 56
2, 1120224, Note_on_c, 0, 70, 0
2, 1120228, Note_on_c, 0, 69, 0
2, 1120228, Control_c, 0, 64, 127
2, 1120240, Note_on_c, 0, 89, 0
2, 1120252, Note_on_c, 0, 90, 87
2, 1120252, Note_on_c, 0, 77, 73
2, 1120316, Note_on_c, 0, 77, 0
2, 1120316, Note_on_c, 0, 77, 0
2, 1120324, Note_on_c, 0, 90, 0
2, 1120356, Note_on_c, 0, 89, 89
2, 1120356, Note_on_c, 0, 69, 69
2, 1120356, Note_on_c, 0, 72, 86
2, 1120420, Note_on_c, 0, 69, 0
2, 1120432, Note_on_c, 0, 89, 0
2, 1120456, Note_on_c, 0, 90, 87
2, 1120456, Note_on_c, 0, 77, 70
2, 1120528, Note_on_c, 0, 77, 0
2, 1120536, Note_on_c, 0, 90, 0
2, 1120560, Note_on_c, 0, 89, 88
2, 1120560, Note_on_c, 0, 69, 68
2, 1120560, Note_on_c, 0, 72, 67
2, 1120560, Note_on_c, 0, 73, 90
2, 1120576, Note_on_c, 0, 72, 0
2, 1120616, Note_on_c, 0, 69, 0
2, 1120628, Note_on_c, 0, 72, 0
2, 1120656, Note_on_c, 0, 89, 0
2, 1120660, Note_on_c, 0, 90, 85
2, 1120684, Note_on_c, 0, 77, 69
2, 1120744, Note_on_c, 0, 90, 0
2, 1120752, Note_on_c, 0, 77, 0
2, 1120764, Note_on_c, 0, 73, 0
2, 1120772, Note_on_c, 0, 87, 87
2, 1120772, Note_on_c, 0, 72, 68
2, 1120772, Note_on_c, 0, 69, 69
2, 1120772, Note_on_c, 0, 75, 90
2, 1120772, Note_on_c, 0, 65, 72
2, 1120776, Control_c, 0, 64, 56
2, 1120788, Control_c, 0, 64, 0
2, 1120832, Note_on_c, 0, 69, 0
2, 1120832, Control_c, 0, 64, 40
2, 1120840, Note_on_c, 0, 72, 0
2, 1120844, Control_c, 0, 64, 104
2, 1120856, Control_c, 0, 64, 127
2, 1120864, Note_on_c, 0, 87, 0
2, 1120872, Note_on_c, 0, 89, 93
2, 1120872, Note_on_c, 0, 77, 68
2, 1120936, Note_on_c, 0, 77, 0
2, 1120952, Note_on_c, 0, 89, 0
2, 1120980, Note_on_c, 0, 87, 89
2, 1120980, Note_on_c, 0, 69, 68
2, 1120980, Note_on_c, 0, 72, 88
2, 1121016, Note_on_c, 0, 75, 0
2, 1121044, Note_on_c, 0, 69, 0
2, 1121064, Note_on_c, 0, 87, 0
2, 1121084, Note_on_c, 0, 89, 88
2, 1121084, Note_on_c, 0, 77, 69
2, 1121148, Note_on_c, 0, 77, 0
2, 1121168, Note_on_c, 0, 89, 0
2, 1121188, Note_on_c, 0, 87, 86
2, 1121188, Note_on_c, 0, 69, 68
2, 1121188, Note_on_c, 0, 72, 66
2, 1121188, Note_on_c, 0, 77, 89
2, 1121212, Note_on_c, 0, 72, 0
2, 1121244, Note_on_c, 0, 72, 0
2, 1121256, Note_on_c, 0, 69, 0
2, 1121284, Note_on_c, 0, 87, 0
2, 1121292, Note_on_c, 0, 89, 89
2, 1121292, Note_on_c, 0, 77, 71
2, 1121320, Note_on_c, 0, 65, 0
2, 1121348, Note_on_c, 0, 77, 0
2, 1121364, Note_on_c, 0, 89, 0
2, 1121372, Note_on_c, 0, 77, 0
2, 1121404, Note_on_c, 0, 85, 88
2, 1121404, Note_on_c, 0, 70, 70
2, 1121404, Note_on_c, 0, 73, 82
2, 1121404, Control_c, 0, 64, 104
2, 1121416, Control_c, 0, 64, 40
2, 1121428, Control_c, 0, 64, 0
2, 1121468, Note_on_c, 0, 70, 0
2, 1121468, Control_c, 0, 64, 56
2, 1121480, Control_c, 0, 64, 127
2, 1121504, Note_on_c, 0, 85, 0
2, 1121516, Note_on_c, 0, 87, 89
2, 1121516, Note_on_c, 0, 77, 70
2, 1121584, Note_on_c, 0, 77, 0
2, 1121600, Note_on_c, 0, 87, 0
2, 1121608, Note_on_c, 0, 73, 0
2, 1121624, Note_on_c, 0, 85, 88
2, 1121624, Note_on_c, 0, 73, 67
2, 1121624, Note_on_c, 0, 70, 69
2, 1121624, Note_on_c, 0, 49, 71
2, 1121624, Note_on_c, 0, 61, 79
2, 1121688, Note_on_c, 0, 70, 0
2, 1121688, Note_on_c, 0, 73, 0
2, 1121716, Note_on_c, 0, 85, 0
2, 1121724, Note_on_c, 0, 87, 92
2, 1121728, Note_on_c, 0, 77, 74
2, 1121796, Note_on_c, 0, 77, 0
2, 1121820, Note_on_c, 0, 87, 0
2, 1121828, Note_on_c, 0, 85, 92
2, 1121828, Note_on_c, 0, 70, 69
2, 1121828, Note_on_c, 0, 73, 66
2, 1121828, Note_on_c, 0, 65, 88
2, 1121828, Note_on_c, 0, 53, 75
2, 1121832, Note_on_c, 0, 49, 0
2, 1121836, Note_on_c, 0, 61, 0
2, 1121876, Note_on_c, 0, 73, 0
2, 1121884, Note_on_c, 0, 70, 0
2, 1121924, Note_on_c, 0, 85, 0
2, 1121936, Note_on_c, 0, 87, 95
2, 1121936, Note_on_c, 0, 77, 73
2, 1122008, Note_on_c, 0, 77, 0
2, 1122036, Note_on_c, 0, 87, 0
2, 1122040, Note_on_c, 0, 53, 0
2, 1122040, Control_c, 0, 64, 72
2, 1122044, Note_on_c, 0, 85, 97
2, 1122044, Note_on_c, 0, 73, 73
2, 1122044, Note_on_c, 0, 70, 72
2, 1122044, Note_on_c, 0, 54, 83
2, 1122044, Note_on_c, 0, 66, 89
2, 1122048, Note_on_c, 0, 65, 0
2, 1122052, Control_c, 0, 64, 0
2, 1122108, Control_c, 0, 64, 72
2, 1122116, Note_on_c, 0, 73, 0
2, 1122120, Note_on_c, 0, 70, 0
2, 1122120, Control_c, 0, 64, 127
2, 1122140, Note_on_c, 0, 85, 0
2, 1122148, Note_on_c, 0, 78, 97
2, 1122148, Note_on_c, 0, 87, 91
2, 1122208, Note_on_c, 0, 54, 0
2, 1122232, Note_on_c, 0, 87, 0
2, 1122248, Note_on_c, 0, 85, 82
2, 1122248, Note_on_c, 0, 73, 66
2, 1122248, Note_on_c, 0, 70, 70
2, 1122248, Note_on_c, 0, 75, 95
2, 1122248, Note_on_c, 0, 63, 80
2, 1122252, Note_on_c, 0, 78, 0
2, 1122300, Note_on_c, 0, 73, 0
2, 1122312, Note_on_c, 0, 70, 0
2, 1122340, Note_on_c, 0, 85, 0
2, 1122356, Note_on_c, 0, 87, 88
2, 1122356, Note_on_c, 0, 78, 78
2, 1122448, Note_on_c, 0, 87, 0
2, 1122452, Note_on_c, 0, 75, 0
2, 1122456, Note_on_c, 0, 78, 0
2, 1122468, Note_on_c, 0, 63, 0
2, 1122468, Note_on_c, 0, 85, 85
2, 1122468, Note_on_c, 0, 69, 82
2, 1122468, Note_on_c, 0, 60, 76
2, 1122468, Note_on_c, 0, 72, 96
2, 1122468, Control_c, 0, 64, 104
2, 1122480, Note_on_c, 0, 66, 0
2, 1122480, Control_c, 0, 64, 56
2, 1122492, Control_c, 0, 64, 0
2, 1122524, Control_c, 0, 64, 56
2, 1122532, Note_on_c, 0, 69, 0
2, 1122536, Control_c, 0, 64, 104
2, 1122544, Control_c, 0, 64, 127
2, 1122568, Note_on_c, 0, 85, 0
2, 1122580, Note_on_c, 0, 87, 89
2, 1122580, Note_on_c, 0, 78, 79
2, 1122668, Note_on_c, 0, 78, 0
2, 1122672, Note_on_c, 0, 87, 0
2, 1122672, Note_on_c, 0, 60, 0
2, 1122700, Note_on_c, 0, 71, 83
2, 1122700, Note_on_c, 0, 85, 83
2, 1122700, Note_on_c, 0, 68, 83
2, 1122700, Note_on_c, 0, 61, 75
2, 1122700, Note_on_c, 0, 73, 88
2, 1122700, Control_c, 0, 64, 40
2, 1122708, Note_on_c, 0, 72, 0
2, 1122712, Control_c, 0, 64, 0
2, 1122764, Control_c, 0, 64, 88
2, 1122776, Control_c, 0, 64, 127
2, 1122780, Note_on_c, 0, 68, 0
2, 1122788, Note_on_c, 0, 71, 0
2, 1122788, Note_on_c, 0, 85, 0
2, 1122804, Note_on_c, 0, 87, 85
2, 1122804, Note_on_c, 0, 78, 93
2, 1122888, Note_on_c, 0, 87, 0
2, 1122904, Note_on_c, 0, 78, 0
2, 1122920, Note_on_c, 0, 85, 76
2, 1122920, Note_on_c, 0, 71, 69
2, 1122920, Note_on_c, 0, 56, 72
2, 1122920, Note_on_c, 0, 68, 86
2, 1122960, Note_on_c, 0, 73, 0
2, 1122972, Note_on_c, 0, 61, 0
2, 1122988, Note_on_c, 0, 71, 0
2, 1123000, Note_on_c, 0, 85, 0
2, 1123024, Note_on_c, 0, 87, 78
2, 1123024, Note_on_c, 0, 78, 81
2, 1123104, Note_on_c, 0, 87, 0
2, 1123108, Note_on_c, 0, 78, 0
2, 1123132, Note_on_c, 0, 56, 0
2, 1123140, Note_on_c, 0, 85, 80
2, 1123140, Note_on_c, 0, 68, 69
2, 1123140, Note_on_c, 0, 71, 67
2, 1123140, Note_on_c, 0, 58, 79
2, 1123140, Note_on_c, 0, 70, 88
2, 1123148, Note_on_c, 0, 68, 0
2, 1123208, Note_on_c, 0, 71, 0
2, 1123220, Note_on_c, 0, 68, 0
2, 1123228, Note_on_c, 0, 85, 0
2, 1123240, Note_on_c, 0, 87, 82
2, 1123240, Note_on_c, 0, 78, 77
2, 1123308, Note_on_c, 0, 78, 0
2, 1123332, Note_on_c, 0, 87, 0
2, 1123332, Note_on_c, 0, 70, 0
2, 1123340, Note_on_c, 0, 58, 0
2, 1123348, Control_c, 0, 64, 72
2, 1123352, Note_on_c, 0, 83, 86
2, 1123352, Note_on_c, 0, 68, 71
2, 1123352, Note_on_c, 0, 49, 79
2, 1123352, Note_on_c, 0, 59, 71
2, 1123352, Note_on_c, 0, 65, 74
2, 1123352, Note_on_c, 0, 71, 80
2, 1123356, Control_c, 0, 64, 0
2, 1123416, Control_c, 0, 64, 40
2, 1123420, Note_on_c, 0, 68, 0
2, 1123424, Control_c, 0, 64, 127
2, 1123448, Note_on_c, 0, 83, 0
2, 1123452, Note_on_c, 0, 77, 83
2, 1123452, Note_on_c, 0, 85, 85
2, 1123528, Note_on_c, 0, 85, 0
2, 1123528, Note_on_c, 0, 77, 0
2, 1123564, Note_on_c, 0, 83, 85
2, 1123564, Note_on_c, 0, 68, 69
2, 1123564, Note_on_c, 0, 71, 68
2, 1123564, Note_on_c, 0, 68, 88
2, 1123564, Note_on_c, 0, 56, 79
2, 1123624, Note_on_c, 0, 71, 0
2, 1123624, Note_on_c, 0, 71, 0
2, 1123648, Note_on_c, 0, 68, 0
2, 1123648, Note_on_c, 0, 68, 0
2, 1123652, Note_on_c, 0, 83, 0
2, 1123664, Note_on_c, 0, 59, 0
2, 1123672, Note_on_c, 0, 85, 85
2, 1123672, Note_on_c, 0, 77, 84
2, 1123740, Note_on_c, 0, 77, 0
2, 1123752, Note_on_c, 0, 85, 0
2, 1123776, Note_on_c, 0, 83, 88
2, 1123776, Note_on_c, 0, 71, 73
2, 1123776, Note_on_c, 0, 68, 73
2, 1123776, Note_on_c, 0, 61, 77
2, 1123776, Note_on_c, 0, 73, 87
2, 1123792, Note_on_c, 0, 65, 0
2, 1123804, Note_on_c, 0, 56, 0
2, 1123848, Note_on_c, 0, 71, 0
2, 1123864, Note_on_c, 0, 83, 0
2, 1123876, Note_on_c, 0, 85, 88
2, 1123876, Note_on_c, 0, 77, 81
2, 1123928, Note_on_c, 0, 77, 0
2, 1123940, Note_on_c, 0, 68, 0
2, 1123952, Note_on_c, 0, 61, 0
2, 1123976, Note_on_c, 0, 85, 0
2, 1123980, Note_on_c, 0, 73, 0
2, 1123996, Note_on_c, 0, 49, 0
2, 1123996, Control_c, 0, 64, 88
2, 1124004, Note_on_c, 0, 82, 89
2, 1124004, Note_on_c, 0, 66, 73
2, 1124004, Note_on_c, 0, 78, 79
2, 1124004, Note_on_c, 0, 58, 73
2, 1124004, Note_on_c, 0, 70, 76
2, 1124008, Note_on_c, 0, 54, 82
2, 1124008, Control_c, 0, 64, 0
2, 1124060, Note_on_c, 0, 78, 0
2, 1124060, Control_c, 0, 64, 40
2, 1124072, Note_on_c, 0, 82, 0
2, 1124072, Note_on_c, 0, 66, 0
2, 1124072, Control_c, 0, 64, 127
2, 1124120, Note_on_c, 0, 58, 0
2, 1124140, Note_on_c, 0, 70, 0
2, 1124148, Note_on_c, 0, 54, 0
2, 1124244, Note_on_c, 0, 70, 85
2, 1124244, Note_on_c, 0, 49, 78
2, 1124248, Control_c, 0, 64, 104
2, 1124260, Control_c, 0, 64, 56
2, 1124268, Control_c, 0, 64, 0
2, 1124320, Note_on_c, 0, 70, 0
2, 1124344, Note_on_c, 0, 69, 87
2, 1124448, Note_on_c, 0, 70, 87
2, 1124448, Note_on_c, 0, 54, 83
2, 1124452, Note_on_c, 0, 69, 0
2, 1124476, Note_on_c, 0, 49, 0
2, 1124532, Note_on_c, 0, 70, 0
2, 1124552, Note_on_c, 0, 72, 93
2, 1124664, Note_on_c, 0, 73, 93
2, 1124664, Note_on_c, 0, 42, 75
2, 1124664, Note_on_c, 0, 58, 73
2, 1124664, Note_on_c, 0, 42, 83
2, 1124668, Note_on_c, 0, 72, 0
2, 1124728, Note_on_c, 0, 42, 0
2, 1124760, Note_on_c, 0, 58, 0
2, 1124764, Note_on_c, 0, 73, 0
2, 1124780, Note_on_c, 0, 72, 94
2, 1124888, Note_on_c, 0, 75, 88
2, 1124888, Note_on_c, 0, 58, 79
2, 1124888, Note_on_c, 0, 58, 73
2, 1124904, Note_on_c, 0, 72, 0
2, 1124972, Note_on_c, 0, 75, 0
2, 1124988, Note_on_c, 0, 73, 88
2, 1125088, Note_on_c, 0, 73, 0
2, 1125092, Note_on_c, 0, 72, 97
2, 1125092, Note_on_c, 0, 52, 81
2, 1125092, Note_on_c, 0, 49, 74
2, 1125092, Note_on_c, 0, 61, 83
2, 1125104, Note_on_c, 0, 58, 0
2, 1125104, Note_on_c, 0, 58, 0
2, 1125144, Note_on_c, 0, 52, 0
2, 1125148, Note_on_c, 0, 49, 0
2, 1125180, Note_on_c, 0, 72, 0
2, 1125184, Note_on_c, 0, 54, 0
2, 1125192, Note_on_c, 0, 70, 88
2, 1125256, Note_on_c, 0, 42, 0
2, 1125284, Note_on_c, 0, 70, 0
2, 1125308, Note_on_c, 0, 77, 94
2, 1125308, Note_on_c, 0, 41, 79
2, 1125308, Note_on_c, 0, 53, 79
2, 1125308, Note_on_c, 0, 41, 84
2, 1125356, Note_on_c, 0, 41, 0
2, 1125400, Note_on_c, 0, 77, 0
2, 1125420, Note_on_c, 0, 76, 87
2, 1125428, Note_on_c, 0, 61, 0
2, 1125492, Note_on_c, 0, 76, 0
2, 1125524, Note_on_c, 0, 78, 96
2, 1125524, Note_on_c, 0, 58, 82
2, 1125628, Note_on_c, 0, 77, 98
2, 1125632, Note_on_c, 0, 78, 0
2, 1125704, Note_on_c, 0, 53, 0
2, 1125720, Note_on_c, 0, 75, 90
2, 1125720, Note_on_c, 0, 53, 71
2, 1125720, Note_on_c, 0, 49, 72
2, 1125720, Note_on_c, 0, 61, 82
2, 1125740, Note_on_c, 0, 77, 0
2, 1125740, Note_on_c, 0, 41, 0
2, 1125760, Note_on_c, 0, 49, 0
2, 1125764, Note_on_c, 0, 53, 0
2, 1125808, Note_on_c, 0, 75, 0
2, 1125824, Note_on_c, 0, 73, 89
2, 1125928, Note_on_c, 0, 72, 97
2, 1125928, Note_on_c, 0, 41, 79
2, 1125928, Note_on_c, 0, 65, 83
2, 1125928, Note_on_c, 0, 29, 88
2, 1125932, Note_on_c, 0, 73, 0
2, 1125932, Note_on_c, 0, 61, 0
2, 1125984, Note_on_c, 0, 41, 0
2, 1126028, Note_on_c, 0, 73, 88
2, 1126044, Note_on_c, 0, 72, 0
2, 1126132, Note_on_c, 0, 58, 0
2, 1126136, Note_on_c, 0, 73, 0
2, 1126140, Note_on_c, 0, 65, 0
2, 1126140, Note_on_c, 0, 72, 95
2, 1126140, Note_on_c, 0, 57, 77
2, 1126140, Note_on_c, 0, 60, 74
2, 1126232, Note_on_c, 0, 73, 88
2, 1126240, Note_on_c, 0, 72, 0
2, 1126320, Note_on_c, 0, 73, 0
2, 1126324, Note_on_c, 0, 29, 0
2, 1126340, Note_on_c, 0, 75, 85
2, 1126340, Note_on_c, 0, 48, 76
2, 1126340, Note_on_c, 0, 51, 72
2, 1126340, Note_on_c, 0, 65, 78
2, 1126372, Note_on_c, 0, 60, 0
2, 1126396, Note_on_c, 0, 48, 0
2, 1126404, Note_on_c, 0, 51, 0
2, 1126424, Note_on_c, 0, 57, 0
2, 1126428, Note_on_c, 0, 75, 0
2, 1126444, Note_on_c, 0, 77, 89
2, 1126520, Note_on_c, 0, 65, 0
2, 1126544, Note_on_c, 0, 61, 74
2, 1126544, Note_on_c, 0, 34, 87
2, 1126556, Note_on_c, 0, 73, 85
2, 1126556, Note_on_c, 0, 46, 82
2, 1126588, Note_on_c, 0, 77, 0
2, 1126668, Note_on_c, 0, 72, 94
2, 1126672, Note_on_c, 0, 73, 0
2, 1126732, Note_on_c, 0, 46, 0
2, 1126740, Note_on_c, 0, 61, 0
2, 1126768, Note_on_c, 0, 72, 0
2, 1126768, Note_on_c, 0, 70, 85
2, 1126768, Note_on_c, 0, 58, 83
2, 1126768, Note_on_c, 0, 53, 74
2, 1126848, Note_on_c, 0, 70, 0
2, 1126872, Note_on_c, 0, 69, 93
2, 1126908, Note_on_c, 0, 34, 0
2, 1126952, Note_on_c, 0, 58, 0
2, 1126968, Note_on_c, 0, 53, 0
2, 1126984, Note_on_c, 0, 70, 87
2, 1126984, Note_on_c, 0, 53, 70
2, 1126984, Note_on_c, 0, 49, 68
2, 1126984, Note_on_c, 0, 58, 75
2, 1126988, Note_on_c, 0, 69, 0
2, 1127016, Note_on_c, 0, 49, 0
2, 1127016, Note_on_c, 0, 53, 0
2, 1127052, Note_on_c, 0, 70, 0
2, 1127084, Note_on_c, 0, 72, 97
2, 1127200, Note_on_c, 0, 72, 0
2, 1127200, Note_on_c, 0, 73, 93
2, 1127200, Note_on_c, 0, 43, 82
2, 1127200, Note_on_c, 0, 55, 71
2, 1127200, Note_on_c, 0, 61, 79
2, 1127232, Note_on_c, 0, 58, 0
2, 1127256, Note_on_c, 0, 43, 0
2, 1127300, Note_on_c, 0, 73, 0
2, 1127304, Note_on_c, 0, 72, 95
2, 1127340, Note_on_c, 0, 61, 0
2, 1127416, Note_on_c, 0, 72, 0
2, 1127416, Note_on_c, 0, 75, 90
2, 1127416, Note_on_c, 0, 58, 85
2, 1127416, Note_on_c, 0, 61, 84
2, 1127512, Note_on_c, 0, 75, 0
2, 1127520, Note_on_c, 0, 73, 93
2, 1127624, Note_on_c, 0, 49, 68
2, 1127628, Note_on_c, 0, 72, 96
2, 1127628, Note_on_c, 0, 51, 76
2, 1127628, Note_on_c, 0, 70, 91
2, 1127640, Note_on_c, 0, 73, 0
2, 1127652, Note_on_c, 0, 58, 0
2, 1127696, Note_on_c, 0, 49, 0
2, 1127708, Note_on_c, 0, 55, 0
2, 1127732, Note_on_c, 0, 70, 90
2, 1127740, Note_on_c, 0, 72, 0
2, 1127792, Note_on_c, 0, 51, 0
2, 1127792, Note_on_c, 0, 70, 0
2, 1127828, Note_on_c, 0, 68, 88
2, 1127848, Note_on_c, 0, 70, 0
2, 1127852, Note_on_c, 0, 80, 93
2, 1127852, Note_on_c, 0, 44, 78
2, 1127852, Note_on_c, 0, 56, 71
2, 1127876, Note_on_c, 0, 61, 0
2, 1127884, Control_c, 0, 64, 24
2, 1127896, Control_c, 0, 64, 40
2, 1127912, Note_on_c, 0, 80, 0
2, 1127924, Note_on_c, 0, 44, 0
2, 1127952, Note_on_c, 0, 79, 95
2, 1128020, Control_c, 0, 64, 24
2, 1128028, Note_on_c, 0, 79, 0
2, 1128040, Control_c, 0, 64, 0
2, 1128064, Note_on_c, 0, 82, 97
2, 1128064, Note_on_c, 0, 61, 86
2, 1128064, Note_on_c, 0, 61, 74
2, 1128136, Note_on_c, 0, 82, 0
2, 1128164, Note_on_c, 0, 80, 93
2, 1128176, Note_on_c, 0, 56, 0
2, 1128224, Note_on_c, 0, 68, 0
2, 1128268, Note_on_c, 0, 56, 71
2, 1128268, Note_on_c, 0, 78, 92
2, 1128268, Note_on_c, 0, 53, 74
2, 1128268, Note_on_c, 0, 65, 78
2, 1128276, Note_on_c, 0, 80, 0
2, 1128280, Note_on_c, 0, 61, 0
2, 1128280, Note_on_c, 0, 61, 0
2, 1128308, Note_on_c, 0, 53, 0
2, 1128316, Note_on_c, 0, 56, 0
2, 1128364, Note_on_c, 0, 78, 0
2, 1128368, Note_on_c, 0, 77, 98
2, 1128448, Note_on_c, 0, 77, 0
2, 1128452, Note_on_c, 0, 65, 0
2, 1128472, Note_on_c, 0, 44, 78
2, 1128472, Note_on_c, 0, 75, 90
2, 1128472, Note_on_c, 0, 68, 77
2, 1128472, Note_on_c, 0, 32, 86
2, 1128544, Note_on_c, 0, 44, 0
2, 1128572, Note_on_c, 0, 75, 0
2, 1128572, Note_on_c, 0, 77, 95
2, 1128676, Note_on_c, 0, 75, 95
2, 1128676, Note_on_c, 0, 60, 86
2, 1128680, Note_on_c, 0, 77, 0
2, 1128776, Note_on_c, 0, 75, 0
2, 1128780, Note_on_c, 0, 77, 95
2, 1128868, Note_on_c, 0, 77, 0
2, 1128884, Note_on_c, 0, 78, 92
2, 1128884, Note_on_c, 0, 51, 80
2, 1128884, Note_on_c, 0, 54, 74
2, 1128892, Note_on_c, 0, 32, 0
2, 1128892, Note_on_c, 0, 63, 77
2, 1128944, Note_on_c, 0, 51, 0
2, 1128948, Note_on_c, 0, 60, 0
2, 1128952, Note_on_c, 0, 54, 0
2, 1128984, Note_on_c, 0, 78, 0
2, 1128992, Note_on_c, 0, 80, 96
2, 1129040, Note_on_c, 0, 68, 0
2, 1129116, Note_on_c, 0, 63, 0
2, 1129120, Note_on_c, 0, 80, 0
2, 1129120, Note_on_c, 0, 73, 98
2, 1129120, Note_on_c, 0, 61, 82
2, 1129120, Note_on_c, 0, 53, 82
2, 1129120, Note_on_c, 0, 49, 83
2, 1129120, Note_on_c, 0, 61, 79
2, 1129120, Note_on_c, 0, 37, 86
2, 1129136, Control_c, 0, 64, 40
2, 1129148, Control_c, 0, 64, 88
2, 1129156, Note_on_c, 0, 53, 0
2, 1129160, Note_on_c, 0, 49, 0
2, 1129160, Control_c, 0, 64, 127
2, 1129168, Note_on_c, 0, 61, 0
2, 1129180, Note_on_c, 0, 73, 0
2, 1129212, Control_c, 0, 64, 104
2, 1129224, Control_c, 0, 64, 72
2, 1129236, Control_c, 0, 64, 56
2, 1129248, Control_c, 0, 64, 24
2, 1129256, Control_c, 0, 64, 0
2, 1129280, Note_on_c, 0, 37, 0
2, 1129356, Note_on_c, 0, 61, 0
2, 1129520, Note_on_c, 0, 73, 99
2, 1129524, Note_on_c, 0, 61, 73
2, 1129524, Note_on_c, 0, 53, 78
2, 1129524, Note_on_c, 0, 56, 76
2, 1129528, Note_on_c, 0, 65, 88
2, 1129532, Note_on_c, 0, 68, 78
2, 1129560, Note_on_c, 0, 68, 0
2, 1129560, Note_on_c, 0, 61, 0
2, 1129568, Note_on_c, 0, 56, 0
2, 1129568, Note_on_c, 0, 65, 0
2, 1129568, Note_on_c, 0, 53, 0
2, 1129596, Note_on_c, 0, 73, 0
2, 1129760, Note_on_c, 0, 74, 104
2, 1129760, Note_on_c, 0, 69, 93
2, 1129760, Note_on_c, 0, 62, 88
2, 1129760, Note_on_c, 0, 54, 80
2, 1129760, Note_on_c, 0, 57, 78
2, 1129760, Note_on_c, 0, 66, 91
2, 1129796, Control_c, 0, 64, 40
2, 1129804, Note_on_c, 0, 57, 0
2, 1129804, Note_on_c, 0, 62, 0
2, 1129808, Note_on_c, 0, 69, 0
2, 1129808, Control_c, 0, 64, 127
2, 1129820, Note_on_c, 0, 66, 0
2, 1129820, Note_on_c, 0, 54, 0
2, 1129824, Note_on_c, 0, 74, 0
2, 1130200, Note_on_c, 0, 48, 103
2, 1130200, Note_on_c, 0, 36, 88
2, 1130248, Note_on_c, 0, 36, 0
2, 1130360, Note_on_c, 0, 48, 0
2, 1130400, Control_c, 0, 64, 104
2, 1130412, Control_c, 0, 64, 56
2, 1130424, Control_c, 0, 64, 0
2, 1130440, Note_on_c, 0, 49, 101
2, 1130440, Note_on_c, 0, 37, 80
2, 1130500, Control_c, 0, 64, 56
2, 1130512, Control_c, 0, 64, 127
2, 1130648, Note_on_c, 0, 50, 88
2, 1130652, Note_on_c, 0, 38, 81
2, 1130704, Note_on_c, 0, 38, 0
2, 1130708, Note_on_c, 0, 50, 0
2, 1130748, Note_on_c, 0, 42, 73
2, 1130752, Note_on_c, 0, 54, 90
2, 1130816, Note_on_c, 0, 42, 0
2, 1130840, Note_on_c, 0, 54, 0
2, 1130852, Note_on_c, 0, 57, 88
2, 1130860, Note_on_c, 0, 45, 79
2, 1130872, Note_on_c, 0, 37, 0
2, 1130888, Note_on_c, 0, 57, 0
2, 1130904, Note_on_c, 0, 49, 0
2, 1130916, Note_on_c, 0, 45, 0
2, 1130944, Note_on_c, 0, 50, 87
2, 1130956, Note_on_c, 0, 62, 94
2, 1131008, Note_on_c, 0, 62, 0
2, 1131012, Note_on_c, 0, 50, 0
2, 1131048, Note_on_c, 0, 54, 71
2, 1131052, Note_on_c, 0, 66, 88
2, 1131128, Note_on_c, 0, 54, 0
2, 1131148, Note_on_c, 0, 69, 92
2, 1131156, Note_on_c, 0, 57, 73
2, 1131160, Note_on_c, 0, 66, 0
2, 1131188, Note_on_c, 0, 69, 0
2, 1131220, Note_on_c, 0, 57, 0
2, 1131248, Note_on_c, 0, 62, 76
2, 1131252, Note_on_c, 0, 74, 95
2, 1131316, Note_on_c, 0, 74, 0
2, 1131332, Note_on_c, 0, 62, 0
2, 1131348, Note_on_c, 0, 78, 93
2, 1131356, Note_on_c, 0, 66, 74
2, 1131432, Note_on_c, 0, 66, 0
2, 1131436, Note_on_c, 0, 78, 0
2, 1131452, Note_on_c, 0, 81, 94
2, 1131460, Note_on_c, 0, 69, 83
2, 1131528, Note_on_c, 0, 81, 0
2, 1131544, Note_on_c, 0, 69, 0
2, 1131548, Note_on_c, 0, 86, 103
2, 1131556, Note_on_c, 0, 74, 85
2, 1131604, Note_on_c, 0, 74, 0
2, 1131624, Note_on_c, 0, 86, 0
2, 1131652, Control_c, 0, 64, 72
2, 1131664, Control_c, 0, 64, 0
2, 1131672, Note_on_c, 0, 85, 102
2, 1131672, Note_on_c, 0, 80, 86
2, 1131672, Note_on_c, 0, 68, 79
2, 1131672, Note_on_c, 0, 73, 98
2, 1131672, Note_on_c, 0, 65, 84
2, 1131672, Note_on_c, 0, 77, 89
2, 1131672, Note_on_c, 0, 61, 76
2, 1131672, Note_on_c, 0, 49, 79
2, 1131696, Note_on_c, 0, 80, 0
2, 1131700, Note_on_c, 0, 77, 0
2, 1131704, Note_on_c, 0, 73, 0
2, 1131712, Note_on_c, 0, 68, 0
2, 1131720, Note_on_c, 0, 65, 0
2, 1131720, Control_c, 0, 64, 127
2, 1131728, Note_on_c, 0, 85, 0
2, 1131732, Note_on_c, 0, 49, 0
2, 1131732, Note_on_c, 0, 61, 0
2, 1131872, Control_c, 0, 64, 104
2, 1131884, Control_c, 0, 64, 56
2, 1131896, Control_c, 0, 64, 0
2, 1132080, Note_on_c, 0, 53, 83
2, 1132080, Note_on_c, 0, 61, 79
2, 1132080, Note_on_c, 0, 73, 98
2, 1132084, Note_on_c, 0, 56, 68
2, 1132092, Note_on_c, 0, 65, 87
2, 1132092, Note_on_c, 0, 68, 76
2, 1132116, Note_on_c, 0, 53, 0
2, 1132124, Note_on_c, 0, 56, 0
2, 1132124, Note_on_c, 0, 61, 0
2, 1132124, Note_on_c, 0, 68, 0
2, 1132128, Note_on_c, 0, 65, 0
2, 1132152, Note_on_c, 0, 73, 0
2, 1132324, Note_on_c, 0, 69, 87
2, 1132324, Note_on_c, 0, 78, 103
2, 1132324, Note_on_c, 0, 57, 78
2, 1132328, Note_on_c, 0, 66, 87
2, 1132332, Note_on_c, 0, 72, 89
2, 1132332, Note_on_c, 0, 60, 77
2, 1132356, Control_c, 0, 64, 88
2, 1132364, Control_c, 0, 64, 127
2, 1132376, Note_on_c, 0, 66, 0
2, 1132380, Note_on_c, 0, 72, 0
2, 1132380, Note_on_c, 0, 60, 0
2, 1132384, Note_on_c, 0, 69, 0
2, 1132396, Note_on_c, 0, 57, 0
2, 1132404, Note_on_c, 0, 78, 0
2, 1132712, Note_on_c, 0, 49, 93
2, 1132712, Note_on_c, 0, 37, 65
2, 1132816, Note_on_c, 0, 49, 0
2, 1132832, Note_on_c, 0, 37, 0
2, 1132868, Control_c, 0, 64, 88
2, 1132880, Control_c, 0, 64, 24
2, 1132892, Control_c, 0, 64, 0
2, 1132936, Note_on_c, 0, 50, 103
2, 1132944, Note_on_c, 0, 38, 93
2, 1132968, Control_c, 0, 64, 88
2, 1132980, Control_c, 0, 64, 127
2, 1133136, Note_on_c, 0, 62, 90
2, 1133144, Note_on_c, 0, 50, 73
2, 1133172, Control_c, 0, 64, 40
2, 1133184, Control_c, 0, 64, 72
2, 1133192, Control_c, 0, 64, 88
2, 1133204, Control_c, 0, 64, 104
2, 1133212, Control_c, 0, 64, 127
2, 1133236, Note_on_c, 0, 54, 73
2, 1133240, Note_on_c, 0, 62, 0
2, 1133240, Note_on_c, 0, 50, 0
2, 1133240, Note_on_c, 0, 66, 90
2, 1133328, Note_on_c, 0, 54, 0
2, 1133336, Note_on_c, 0, 66, 0
2, 1133336, Note_on_c, 0, 69, 94
2, 1133348, Note_on_c, 0, 57, 74
2, 1133364, Note_on_c, 0, 50, 0
2, 1133372, Note_on_c, 0, 38, 0
2, 1133376, Note_on_c, 0, 69, 0
2, 1133420, Note_on_c, 0, 57, 0
2, 1133440, Note_on_c, 0, 74, 100
2, 1133440, Note_on_c, 0, 62, 78
2, 1133528, Note_on_c, 0, 62, 0
2, 1133540, Note_on_c, 0, 74, 0
2, 1133544, Note_on_c, 0, 66, 76
2, 1133548, Note_on_c, 0, 78, 95
2, 1133620, Note_on_c, 0, 66, 0
2, 1133648, Note_on_c, 0, 81, 88
2, 1133652, Note_on_c, 0, 69, 68
2, 1133664, Note_on_c, 0, 78, 0
2, 1133680, Note_on_c, 0, 81, 0
2, 1133728, Note_on_c, 0, 69, 0
2, 1133752, Note_on_c, 0, 86, 96
2, 1133756, Note_on_c, 0, 74, 78
2, 1133828, Note_on_c, 0, 86, 0
2, 1133832, Note_on_c, 0, 74, 0
2, 1133848, Note_on_c, 0, 90, 94
2, 1133848, Note_on_c, 0, 78, 75
2, 1133928, Note_on_c, 0, 78, 0
2, 1133928, Note_on_c, 0, 90, 0
2, 1133948, Note_on_c, 0, 93, 98
2, 1133948, Note_on_c, 0, 81, 76
2, 1133948, Note_on_c, 0, 38, 74
2, 1133948, Note_on_c, 0, 50, 72
2, 1133980, Note_on_c, 0, 38, 0
2, 1133992, Note_on_c, 0, 50, 0
2, 1134024, Note_on_c, 0, 81, 0
2, 1134032, Note_on_c, 0, 93, 0
2, 1134040, Note_on_c, 0, 96, 96
2, 1134056, Note_on_c, 0, 84, 86
2, 1134084, Note_on_c, 0, 84, 0
2, 1134116, Control_c, 0, 64, 88
2, 1134124, Note_on_c, 0, 96, 0
2, 1134128, Control_c, 0, 64, 40
2, 1134140, Control_c, 0, 64, 0
2, 1134152, Note_on_c, 0, 97, 100
2, 1134152, Note_on_c, 0, 85, 98
2, 1134152, Note_on_c, 0, 77, 80
2, 1134152, Note_on_c, 0, 37, 80
2, 1134152, Note_on_c, 0, 49, 77
2, 1134220, Control_c, 0, 64, 56
2, 1134228, Control_c, 0, 64, 104
2, 1134240, Note_on_c, 0, 97, 0
2, 1134240, Control_c, 0, 64, 127
2, 1134252, Note_on_c, 0, 92, 92
2, 1134256, Note_on_c, 0, 80, 85
2, 1134348, Note_on_c, 0, 80, 0
2, 1134348, Note_on_c, 0, 92, 0
2, 1134360, Note_on_c, 0, 89, 99
2, 1134364, Note_on_c, 0, 77, 88
2, 1134428, Note_on_c, 0, 77, 0
2, 1134436, Note_on_c, 0, 89, 0
2, 1134456, Note_on_c, 0, 92, 100
2, 1134456, Note_on_c, 0, 80, 92
2, 1134512, Note_on_c, 0, 77, 0
2, 1134536, Note_on_c, 0, 92, 0
2, 1134536, Note_on_c, 0, 80, 0
2, 1134552, Note_on_c, 0, 89, 97
2, 1134552, Note_on_c, 0, 77, 89
2, 1134552, Note_on_c, 0, 72, 89
2, 1134636, Note_on_c, 0, 89, 0
2, 1134644, Note_on_c, 0, 77, 0
2, 1134648, Note_on_c, 0, 85, 0
2, 1134648, Note_on_c, 0, 85, 87
2, 1134648, Note_on_c, 0, 73, 82
2, 1134720, Note_on_c, 0, 73, 0
2, 1134724, Note_on_c, 0, 85, 0
2, 1134760, Note_on_c, 0, 89, 96
2, 1134760, Note_on_c, 0, 77, 87
2, 1134760, Note_on_c, 0, 73, 94
2, 1134764, Note_on_c, 0, 72, 0
2, 1134764, Control_c, 0, 64, 104
2, 1134776, Control_c, 0, 64, 56
2, 1134784, Control_c, 0, 64, 24
2, 1134796, Note_on_c, 0, 37, 0
2, 1134816, Control_c, 0, 64, 88
2, 1134820, Note_on_c, 0, 49, 0
2, 1134824, Control_c, 0, 64, 127
2, 1134844, Note_on_c, 0, 89, 0
2, 1134852, Note_on_c, 0, 77, 0
2, 1134852, Note_on_c, 0, 85, 85
2, 1134856, Note_on_c, 0, 73, 85
2, 1134928, Note_on_c, 0, 85, 0
2, 1134952, Note_on_c, 0, 80, 82
2, 1134968, Note_on_c, 0, 73, 0
2, 1134968, Note_on_c, 0, 68, 74
2, 1135012, Note_on_c, 0, 80, 0
2, 1135032, Note_on_c, 0, 68, 0
2, 1135056, Note_on_c, 0, 73, 83
2, 1135064, Note_on_c, 0, 85, 85
2, 1135076, Note_on_c, 0, 73, 0
2, 1135124, Note_on_c, 0, 85, 0
2, 1135148, Note_on_c, 0, 73, 0
2, 1135156, Note_on_c, 0, 80, 88
2, 1135156, Note_on_c, 0, 68, 79
2, 1135156, Note_on_c, 0, 60, 83
2, 1135228, Note_on_c, 0, 80, 0
2, 1135252, Note_on_c, 0, 77, 98
2, 1135256, Note_on_c, 0, 68, 0
2, 1135256, Note_on_c, 0, 65, 78
2, 1135312, Note_on_c, 0, 65, 0
2, 1135336, Note_on_c, 0, 77, 0
2, 1135348, Control_c, 0, 64, 104
2, 1135352, Note_on_c, 0, 80, 90
2, 1135352, Note_on_c, 0, 68, 78
2, 1135352, Note_on_c, 0, 61, 90
2, 1135356, Note_on_c, 0, 60, 0
2, 1135356, Control_c, 0, 64, 40
2, 1135368, Control_c, 0, 64, 0
2, 1135416, Control_c, 0, 64, 40
2, 1135428, Control_c, 0, 64, 104
2, 1135440, Control_c, 0, 64, 127
2, 1135452, Note_on_c, 0, 77, 97
2, 1135456, Note_on_c, 0, 80, 0
2, 1135456, Note_on_c, 0, 65, 78
2, 1135464, Note_on_c, 0, 68, 0
2, 1135536, Note_on_c, 0, 77, 0
2, 1135548, Note_on_c, 0, 65, 0
2, 1135552, Note_on_c, 0, 73, 85
2, 1135560, Note_on_c, 0, 61, 76
2, 1135620, Note_on_c, 0, 73, 0
2, 1135632, Note_on_c, 0, 61, 0
2, 1135632, Note_on_c, 0, 61, 0
2, 1135664, Note_on_c, 0, 77, 94
2, 1135664, Note_on_c, 0, 65, 82
2, 1135736, Note_on_c, 0, 77, 0
2, 1135740, Note_on_c, 0, 65, 0
2, 1135756, Note_on_c, 0, 61, 76
2, 1135756, Note_on_c, 0, 73, 82
2, 1135832, Note_on_c, 0, 73, 0
2, 1135856, Note_on_c, 0, 68, 78
2, 1135860, Note_on_c, 0, 61, 0
2, 1135860, Note_on_c, 0, 68, 79
2, 1135860, Note_on_c, 0, 56, 77
2, 1135916, Note_on_c, 0, 68, 0
2, 1135916, Note_on_c, 0, 68, 0
2, 1135924, Note_on_c, 0, 56, 0
2, 1135964, Note_on_c, 0, 73, 88
2, 1135964, Note_on_c, 0, 61, 86
2, 1135964, Control_c, 0, 64, 104
2, 1135972, Control_c, 0, 64, 24
2, 1135984, Control_c, 0, 64, 0
2, 1136032, Control_c, 0, 64, 56
2, 1136044, Control_c, 0, 64, 104
2, 1136052, Control_c, 0, 64, 127
2, 1136056, Note_on_c, 0, 56, 74
2, 1136060, Note_on_c, 0, 68, 83
2, 1136064, Note_on_c, 0, 61, 0
2, 1136064, Note_on_c, 0, 73, 0
2, 1136140, Note_on_c, 0, 68, 0
2, 1136156, Note_on_c, 0, 65, 83
2, 1136160, Note_on_c, 0, 56, 0
2, 1136172, Note_on_c, 0, 53, 76
2, 1136216, Note_on_c, 0, 53, 0
2, 1136220, Note_on_c, 0, 65, 0
2, 1136256, Note_on_c, 0, 56, 73
2, 1136268, Note_on_c, 0, 68, 85
2, 1136348, Note_on_c, 0, 68, 0
2, 1136356, Note_on_c, 0, 56, 0
2, 1136368, Note_on_c, 0, 53, 75
2, 1136372, Note_on_c, 0, 65, 86
2, 1136468, Note_on_c, 0, 65, 0
2, 1136468, Note_on_c, 0, 53, 0
2, 1136472, Note_on_c, 0, 61, 83
2, 1136472, Note_on_c, 0, 49, 68
2, 1136504, Note_on_c, 0, 61, 0
2, 1136512, Note_on_c, 0, 49, 0
2, 1136664, Note_on_c, 0, 33, 84
2, 1136668, Note_on_c, 0, 45, 82
2, 1136668, Note_on_c, 0, 73, 87
2, 1136668, Note_on_c, 0, 69, 84
2, 1136744, Note_on_c, 0, 45, 0
2, 1136756, Note_on_c, 0, 44, 76
2, 1136768, Note_on_c, 0, 33, 0
2, 1136768, Note_on_c, 0, 32, 63
2, 1136844, Note_on_c, 0, 44, 0
2, 1136852, Note_on_c, 0, 45, 78
2, 1136860, Note_on_c, 0, 32, 0
2, 1136872, Note_on_c, 0, 33, 65
2, 1136952, Note_on_c, 0, 45, 0
2, 1136956, Note_on_c, 0, 44, 77
2, 1136960, Note_on_c, 0, 33, 0
2, 1136964, Note_on_c, 0, 32, 62
2, 1137048, Note_on_c, 0, 32, 0
2, 1137048, Note_on_c, 0, 44, 0
2, 1137052, Note_on_c, 0, 45, 85
2, 1137068, Note_on_c, 0, 33, 59
2, 1137148, Note_on_c, 0, 45, 0
2, 1137148, Note_on_c, 0, 44, 80
2, 1137160, Note_on_c, 0, 33, 0
2, 1137164, Note_on_c, 0, 32, 70
2, 1137240, Note_on_c, 0, 44, 0
2, 1137244, Note_on_c, 0, 45, 87
2, 1137244, Note_on_c, 0, 33, 75
2, 1137244, Note_on_c, 0, 61, 65
2, 1137244, Note_on_c, 0, 69, 79
2, 1137244, Note_on_c, 0, 73, 80
2, 1137244, Note_on_c, 0, 81, 94
2, 1137252, Note_on_c, 0, 32, 0
2, 1137304, Note_on_c, 0, 69, 0
2, 1137304, Note_on_c, 0, 73, 0
2, 1137332, Note_on_c, 0, 33, 0
2, 1137344, Note_on_c, 0, 45, 0
2, 1137352, Note_on_c, 0, 44, 74
2, 1137352, Note_on_c, 0, 32, 72
2, 1137380, Note_on_c, 0, 61, 0
2, 1137384, Note_on_c, 0, 73, 0
2, 1137384, Note_on_c, 0, 69, 0
2, 1137428, Note_on_c, 0, 81, 0
2, 1137440, Note_on_c, 0, 32, 0
2, 1137448, Note_on_c, 0, 44, 0
2, 1137456, Note_on_c, 0, 45, 80
2, 1137464, Note_on_c, 0, 33, 57
2, 1137548, Note_on_c, 0, 45, 0
2, 1137552, Note_on_c, 0, 33, 0
2, 1137552, Note_on_c, 0, 44, 80
2, 1137552, Note_on_c, 0, 76, 84
2, 1137552, Note_on_c, 0, 64, 78
2, 1137552, Note_on_c, 0, 71, 78
2, 1137552, Note_on_c, 0, 83, 100
2, 1137556, Note_on_c, 0, 32, 55
2, 1137592, Note_on_c, 0, 76, 0
2, 1137596, Note_on_c, 0, 71, 0
2, 1137616, Note_on_c, 0, 83, 0
2, 1137616, Note_on_c, 0, 64, 0
2, 1137648, Note_on_c, 0, 32, 0
2, 1137656, Note_on_c, 0, 44, 0
2, 1137656, Note_on_c, 0, 45, 87
2, 1137656, Note_on_c, 0, 81, 88
2, 1137656, Note_on_c, 0, 73, 68
2, 1137656, Note_on_c, 0, 85, 91
2, 1137656, Note_on_c, 0, 69, 78
2, 1137664, Control_c, 0, 64, 24
2, 1137668, Note_on_c, 0, 33, 58
2, 1137680, Note_on_c, 0, 73, 0
2, 1137696, Note_on_c, 0, 81, 0
2, 1137712, Note_on_c, 0, 69, 0
2, 1137716, Note_on_c, 0, 85, 0
2, 1137740, Note_on_c, 0, 45, 0
2, 1137740, Control_c, 0, 64, 56
2, 1137748, Control_c, 0, 64, 88
2, 1137752, Note_on_c, 0, 44, 82
2, 1137752, Note_on_c, 0, 74, 66
2, 1137752, Note_on_c, 0, 83, 77
2, 1137752, Note_on_c, 0, 86, 103
2, 1137756, Note_on_c, 0, 33, 0
2, 1137756, Control_c, 0, 64, 104
2, 1137760, Note_on_c, 0, 32, 73
2, 1137764, Control_c, 0, 64, 127
2, 1137768, Note_on_c, 0, 83, 0
2, 1137784, Note_on_c, 0, 32, 0
2, 1137792, Note_on_c, 0, 74, 0
2, 1137800, Note_on_c, 0, 44, 0
2, 1137804, Note_on_c, 0, 86, 0
2, 1137852, Control_c, 0, 64, 104
2, 1137860, Note_on_c, 0, 45, 83
2, 1137860, Note_on_c, 0, 76, 82
2, 1137860, Note_on_c, 0, 73, 85
2, 1137860, Note_on_c, 0, 88, 104
2, 1137860, Note_on_c, 0, 85, 92
2, 1137860, Control_c, 0, 64, 56
2, 1137868, Control_c, 0, 64, 0
2, 1137872, Note_on_c, 0, 33, 62
2, 1137952, Note_on_c, 0, 45, 0
2, 1137956, Note_on_c, 0, 49, 83
2, 1137960, Note_on_c, 0, 33, 0
2, 1137964, Note_on_c, 0, 37, 57
2, 1137988, Control_c, 0, 64, 24
2, 1137996, Control_c, 0, 64, 56
2, 1138004, Control_c, 0, 64, 72
2, 1138016, Control_c, 0, 64, 88
2, 1138032, Control_c, 0, 64, 104
2, 1138044, Note_on_c, 0, 37, 0
2, 1138048, Control_c, 0, 64, 127
2, 1138060, Note_on_c, 0, 49, 0
2, 1138060, Note_on_c, 0, 52, 87
2, 1138068, Note_on_c, 0, 85, 0
2, 1138068, Note_on_c, 0, 40, 67
2, 1138088, Note_on_c, 0, 52, 0
2, 1138136, Note_on_c, 0, 40, 0
2, 1138160, Note_on_c, 0, 57, 74
2, 1138164, Note_on_c, 0, 45, 76
2, 1138220, Note_on_c, 0, 57, 0
2, 1138224, Note_on_c, 0, 45, 0
2, 1138244, Control_c, 0, 64, 104
2, 1138260, Note_on_c, 0, 61, 79
2, 1138260, Note_on_c, 0, 49, 66
2, 1138260, Note_on_c, 0, 81, 97
2, 1138260, Note_on_c, 0, 69, 68
2, 1138300, Note_on_c, 0, 88, 0
2, 1138324, Note_on_c, 0, 49, 0
2, 1138324, Note_on_c, 0, 73, 0
2, 1138332, Note_on_c, 0, 61, 0
2, 1138336, Note_on_c, 0, 81, 0
2, 1138344, Note_on_c, 0, 76, 0
2, 1138352, Note_on_c, 0, 64, 85
2, 1138356, Note_on_c, 0, 52, 68
2, 1138364, Control_c, 0, 64, 127
2, 1138428, Control_c, 0, 64, 56
2, 1138440, Note_on_c, 0, 52, 0
2, 1138440, Control_c, 0, 64, 0
2, 1138452, Note_on_c, 0, 64, 0
2, 1138456, Note_on_c, 0, 69, 83
2, 1138456, Note_on_c, 0, 57, 69
2, 1138456, Note_on_c, 0, 85, 94
2, 1138456, Note_on_c, 0, 93, 113
2, 1138456, Note_on_c, 0, 81, 75
2, 1138456, Note_on_c, 0, 73, 73
2, 1138508, Control_c, 0, 64, 40
2, 1138516, Control_c, 0, 64, 72
2, 1138520, Note_on_c, 0, 57, 0
2, 1138524, Control_c, 0, 64, 104
2, 1138540, Note_on_c, 0, 69, 0
2, 1138544, Control_c, 0, 64, 127
2, 1138548, Note_on_c, 0, 64, 83
2, 1138556, Note_on_c, 0, 52, 73
2, 1138620, Note_on_c, 0, 52, 0
2, 1138624, Note_on_c, 0, 64, 0
2, 1138644, Note_on_c, 0, 61, 77
2, 1138656, Note_on_c, 0, 81, 0
2, 1138656, Note_on_c, 0, 49, 63
2, 1138664, Note_on_c, 0, 69, 0
2, 1138692, Note_on_c, 0, 73, 0
2, 1138712, Note_on_c, 0, 49, 0
2, 1138724, Note_on_c, 0, 61, 0
2, 1138744, Note_on_c, 0, 64, 83
2, 1138752, Note_on_c, 0, 52, 60
2, 1138804, Note_on_c, 0, 93, 0
2, 1138816, Control_c, 0, 64, 88
2, 1138820, Note_on_c, 0, 64, 0
2, 1138824, Control_c, 0, 64, 56
2, 1138828, Note_on_c, 0, 85, 0
2, 1138832, Note_on_c, 0, 52, 0
2, 1138832, Control_c, 0, 64, 0
2, 1138844, Note_on_c, 0, 57, 77
2, 1138844, Note_on_c, 0, 45, 69
2, 1138880, Control_c, 0, 64, 40
2, 1138892, Control_c, 0, 64, 72
2, 1138900, Control_c, 0, 64, 104
2, 1138908, Control_c, 0, 64, 127
2, 1138924, Note_on_c, 0, 45, 0
2, 1138940, Note_on_c, 0, 57, 0
2, 1138940, Note_on_c, 0, 61, 71
2, 1138948, Note_on_c, 0, 49, 62
2, 1138964, Note_on_c, 0, 49, 0
2, 1138976, Note_on_c, 0, 61, 0
2, 1139060, Control_c, 0, 64, 104
2, 1139072, Control_c, 0, 64, 88
2, 1139080, Note_on_c, 0, 45, 79
2, 1139080, Note_on_c, 0, 33, 63
2, 1139080, Note_on_c, 0, 69, 78
2, 1139080, Note_on_c, 0, 73, 100
2, 1139080, Control_c, 0, 64, 56
2, 1139088, Control_c, 0, 64, 40
2, 1139096, Control_c, 0, 64, 24
2, 1139104, Control_c, 0, 64, 0
2, 1139148, Note_on_c, 0, 45, 0
2, 1139172, Note_on_c, 0, 44, 72
2, 1139172, Note_on_c, 0, 32, 69
2, 1139180, Note_on_c, 0, 33, 0
2, 1139252, Note_on_c, 0, 44, 0
2, 1139252, Note_on_c, 0, 32, 0
2, 1139272, Note_on_c, 0, 45, 83
2, 1139272, Note_on_c, 0, 33, 69
2, 1139356, Note_on_c, 0, 45, 0
2, 1139360, Control_c, 0, 64, 24
2, 1139364, Note_on_c, 0, 33, 0
2, 1139368, Note_on_c, 0, 44, 74
2, 1139368, Note_on_c, 0, 32, 57
2, 1139444, Note_on_c, 0, 32, 0
2, 1139452, Note_on_c, 0, 44, 0
2, 1139468, Note_on_c, 0, 45, 81
2, 1139468, Note_on_c, 0, 33, 67
2, 1139488, Control_c, 0, 64, 0
2, 1139492, Note_on_c, 0, 73, 0
2, 1139548, Note_on_c, 0, 33, 0
2, 1139556, Note_on_c, 0, 45, 0
2, 1139564, Note_on_c, 0, 44, 68
2, 1139564, Note_on_c, 0, 32, 68
2, 1139576, Note_on_c, 0, 69, 0
2, 1139644, Note_on_c, 0, 32, 0
2, 1139660, Note_on_c, 0, 44, 0
2, 1139672, Note_on_c, 0, 45, 79
2, 1139672, Note_on_c, 0, 33, 67
2, 1139672, Note_on_c, 0, 81, 94
2, 1139672, Note_on_c, 0, 73, 68
2, 1139672, Note_on_c, 0, 69, 68
2, 1139672, Note_on_c, 0, 61, 68
2, 1139708, Note_on_c, 0, 73, 0
2, 1139744, Note_on_c, 0, 33, 0
2, 1139748, Note_on_c, 0, 45, 0
2, 1139764, Note_on_c, 0, 44, 77
2, 1139776, Note_on_c, 0, 32, 51
2, 1139832, Note_on_c, 0, 61, 0
2, 1139836, Note_on_c, 0, 44, 0
2, 1139840, Note_on_c, 0, 69, 0
2, 1139844, Note_on_c, 0, 32, 0
2, 1139844, Control_c, 0, 64, 24
2, 1139848, Note_on_c, 0, 81, 0
2, 1139860, Note_on_c, 0, 45, 74
2, 1139868, Note_on_c, 0, 33, 54
2, 1139872, Control_c, 0, 64, 40
2, 1139920, Control_c, 0, 64, 56
2, 1139932, Note_on_c, 0, 45, 0
2, 1139944, Note_on_c, 0, 33, 0
2, 1139948, Control_c, 0, 64, 72
2, 1139964, Note_on_c, 0, 44, 68
2, 1139968, Note_on_c, 0, 32, 51
2, 1139968, Note_on_c, 0, 83, 97
2, 1139968, Note_on_c, 0, 76, 82
2, 1139968, Note_on_c, 0, 64, 78
2, 1139968, Note_on_c, 0, 71, 76
2, 1139972, Control_c, 0, 64, 88
2, 1140000, Note_on_c, 0, 76, 0
2, 1140000, Control_c, 0, 64, 104
2, 1140020, Note_on_c, 0, 64, 0
2, 1140024, Note_on_c, 0, 44, 0
2, 1140024, Note_on_c, 0, 71, 0
2, 1140032, Note_on_c, 0, 83, 0
2, 1140048, Note_on_c, 0, 32, 0
2, 1140060, Note_on_c, 0, 45, 66
2, 1140060, Note_on_c, 0, 85, 94
2, 1140060, Note_on_c, 0, 73, 82
2, 1140060, Note_on_c, 0, 81, 85
2, 1140060, Note_on_c, 0, 69, 82
2, 1140064, Note_on_c, 0, 33, 64
2, 1140064, Control_c, 0, 64, 127
2, 1140084, Note_on_c, 0, 81, 0
2, 1140092, Note_on_c, 0, 73, 0
2, 1140116, Note_on_c, 0, 69, 0
2, 1140120, Note_on_c, 0, 85, 0
2, 1140124, Note_on_c, 0, 45, 0
2, 1140144, Note_on_c, 0, 33, 0
2, 1140148, Note_on_c, 0, 44, 68
2, 1140148, Note_on_c, 0, 32, 65
2, 1140148, Note_on_c, 0, 71, 70
2, 1140148, Note_on_c, 0, 74, 83
2, 1140148, Note_on_c, 0, 83, 93
2, 1140148, Note_on_c, 0, 86, 100
2, 1140164, Note_on_c, 0, 32, 0
2, 1140176, Note_on_c, 0, 83, 0
2, 1140180, Note_on_c, 0, 85, 55
2, 1140184, Note_on_c, 0, 71, 0
2, 1140188, Note_on_c, 0, 74, 0
2, 1140192, Note_on_c, 0, 85, 0
2, 1140200, Note_on_c, 0, 86, 0
2, 1140228, Control_c, 0, 64, 104
2, 1140236, Control_c, 0, 64, 24
2, 1140244, Note_on_c, 0, 44, 0
2, 1140248, Control_c, 0, 64, 0
2, 1140260, Note_on_c, 0, 45, 86
2, 1140260, Note_on_c, 0, 33, 58
2, 1140260, Note_on_c, 0, 88, 98
2, 1140260, Note_on_c, 0, 73, 73
2, 1140260, Note_on_c, 0, 76, 85
2, 1140260, Note_on_c, 0, 85, 87
2, 1140284, Note_on_c, 0, 45, 0
2, 1140288, Control_c, 0, 64, 24
2, 1140296, Control_c, 0, 64, 72
2, 1140304, Control_c, 0, 64, 127
2, 1140340, Control_c, 0, 64, 72
2, 1140348, Control_c, 0, 64, 24
2, 1140356, Control_c, 0, 64, 0
2, 1140360, Note_on_c, 0, 33, 0
2, 1140360, Note_on_c, 0, 52, 88
2, 1140372, Note_on_c, 0, 40, 58
2, 1140408, Control_c, 0, 64, 40
2, 1140416, Control_c, 0, 64, 88
2, 1140420, Note_on_c, 0, 52, 0
2, 1140424, Control_c, 0, 64, 127
2, 1140452, Note_on_c, 0, 40, 0
2, 1140460, Note_on_c, 0, 57, 83
2, 1140468, Note_on_c, 0, 45, 76
2, 1140512, Note_on_c, 0, 85, 0
2, 1140536, Note_on_c, 0, 45, 0
2, 1140552, Note_on_c, 0, 61, 78
2, 1140552, Note_on_c, 0, 49, 73
2, 1140556, Note_on_c, 0, 57, 0
2, 1140584, Note_on_c, 0, 61, 0
2, 1140620, Note_on_c, 0, 49, 0
2, 1140628, Note_on_c, 0, 73, 0
2, 1140648, Note_on_c, 0, 88, 0
2, 1140648, Note_on_c, 0, 64, 81
2, 1140648, Note_on_c, 0, 52, 71
2, 1140648, Note_on_c, 0, 69, 74
2, 1140648, Note_on_c, 0, 81, 95
2, 1140668, Note_on_c, 0, 76, 0
2, 1140704, Note_on_c, 0, 52, 0
2, 1140712, Note_on_c, 0, 81, 0
2, 1140748, Note_on_c, 0, 69, 87
2, 1140748, Note_on_c, 0, 57, 66
2, 1140780, Note_on_c, 0, 64, 0
2, 1140824, Control_c, 0, 64, 104
2, 1140836, Note_on_c, 0, 69, 0
2, 1140836, Note_on_c, 0, 69, 0
2, 1140836, Control_c, 0, 64, 56
2, 1140844, Note_on_c, 0, 93, 108
2, 1140844, Control_c, 0, 64, 0
2, 1140848, Note_on_c, 0, 57, 0
2, 1140848, Note_on_c, 0, 73, 88
2, 1140848, Note_on_c, 0, 61, 73
2, 1140848, Note_on_c, 0, 85, 90
2, 1140852, Note_on_c, 0, 76, 81
2, 1140892, Control_c, 0, 64, 40
2, 1140900, Control_c, 0, 64, 72
2, 1140912, Control_c, 0, 64, 104
2, 1140920, Control_c, 0, 64, 127
2, 1140928, Note_on_c, 0, 61, 0
2, 1140936, Note_on_c, 0, 73, 0
2, 1140948, Note_on_c, 0, 69, 93
2, 1140948, Note_on_c, 0, 57, 65
2, 1141000, Note_on_c, 0, 57, 0
2, 1141028, Note_on_c, 0, 69, 0
2, 1141044, Note_on_c, 0, 64, 89
2, 1141052, Note_on_c, 0, 52, 64
2, 1141120, Note_on_c, 0, 52, 0
2, 1141132, Note_on_c, 0, 64, 0
2, 1141148, Note_on_c, 0, 57, 61
2, 1141152, Note_on_c, 0, 69, 84
2, 1141200, Note_on_c, 0, 57, 0
2, 1141224, Note_on_c, 0, 69, 0
2, 1141240, Note_on_c, 0, 61, 76
2, 1141240, Note_on_c, 0, 49, 67
2, 1141240, Note_on_c, 0, 69, 81
2, 1141244, Note_on_c, 0, 93, 0
2, 1141260, Note_on_c, 0, 85, 0
2, 1141324, Note_on_c, 0, 49, 0
2, 1141336, Note_on_c, 0, 61, 0
2, 1141336, Note_on_c, 0, 64, 80
2, 1141356, Note_on_c, 0, 64, 0
2, 1141436, Note_on_c, 0, 76, 0
2, 1141464, Control_c, 0, 64, 40
2, 1141472, Note_on_c, 0, 33, 68
2, 1141472, Note_on_c, 0, 73, 82
2, 1141472, Note_on_c, 0, 76, 80
2, 1141472, Note_on_c, 0, 85, 98
2, 1141472, Control_c, 0, 64, 0
2, 1141476, Note_on_c, 0, 45, 81
2, 1141516, Control_c, 0, 64, 56
2, 1141520, Note_on_c, 0, 45, 0
2, 1141524, Control_c, 0, 64, 127
2, 1141552, Note_on_c, 0, 76, 0
2, 1141576, Note_on_c, 0, 52, 84
2, 1141580, Note_on_c, 0, 40, 54
2, 1141620, Note_on_c, 0, 52, 0
2, 1141624, Note_on_c, 0, 33, 0
2, 1141652, Note_on_c, 0, 40, 0
2, 1141664, Note_on_c, 0, 57, 83
2, 1141672, Note_on_c, 0, 45, 77
2, 1141732, Note_on_c, 0, 45, 0
2, 1141748, Note_on_c, 0, 57, 0
2, 1141756, Note_on_c, 0, 61, 77
2, 1141768, Note_on_c, 0, 49, 71
2, 1141780, Note_on_c, 0, 61, 0
2, 1141828, Note_on_c, 0, 49, 0
2, 1141848, Note_on_c, 0, 64, 80
2, 1141848, Note_on_c, 0, 52, 68
2, 1141848, Note_on_c, 0, 81, 97
2, 1141860, Note_on_c, 0, 85, 0
2, 1141868, Note_on_c, 0, 69, 0
2, 1141888, Note_on_c, 0, 81, 0
2, 1141896, Note_on_c, 0, 73, 0
2, 1141896, Note_on_c, 0, 52, 0
2, 1141916, Note_on_c, 0, 64, 0
2, 1141948, Note_on_c, 0, 69, 85
2, 1141948, Note_on_c, 0, 57, 73
2, 1142024, Note_on_c, 0, 57, 0
2, 1142028, Control_c, 0, 64, 88
2, 1142032, Note_on_c, 0, 69, 0
2, 1142036, Control_c, 0, 64, 40
2, 1142044, Note_on_c, 0, 73, 84
2, 1142044, Note_on_c, 0, 61, 68
2, 1142044, Note_on_c, 0, 88, 88
2, 1142044, Note_on_c, 0, 79, 91
2, 1142044, Note_on_c, 0, 85, 79
2, 1142044, Note_on_c, 0, 93, 108
2, 1142044, Note_on_c, 0, 61, 74
2, 1142044, Note_on_c, 0, 69, 71
2, 1142044, Control_c, 0, 64, 0
2, 1142080, Control_c, 0, 64, 40
2, 1142084, Control_c, 0, 64, 72
2, 1142092, Control_c, 0, 64, 127
2, 1142116, Note_on_c, 0, 61, 0
2, 1142124, Note_on_c, 0, 73, 0
2, 1142144, Note_on_c, 0, 69, 88
2, 1142224, Note_on_c, 0, 69, 0
2, 1142244, Note_on_c, 0, 64, 84
2, 1142248, Note_on_c, 0, 52, 69
2, 1142280, Note_on_c, 0, 69, 0
2, 1142320, Note_on_c, 0, 52, 0
2, 1142320, Note_on_c, 0, 64, 0
2, 1142344, Note_on_c, 0, 69, 82
2, 1142348, Note_on_c, 0, 57, 68
2, 1142372, Note_on_c, 0, 88, 0
2, 1142404, Note_on_c, 0, 57, 0
2, 1142408, Note_on_c, 0, 69, 0
2, 1142428, Note_on_c, 0, 93, 0
2, 1142432, Note_on_c, 0, 61, 77
2, 1142432, Note_on_c, 0, 49, 69
2, 1142444, Note_on_c, 0, 69, 81
2, 1142452, Note_on_c, 0, 85, 0
2, 1142464, Note_on_c, 0, 79, 0
2, 1142500, Note_on_c, 0, 49, 0
2, 1142504, Note_on_c, 0, 61, 0
2, 1142528, Note_on_c, 0, 64, 82
2, 1142536, Note_on_c, 0, 52, 66
2, 1142592, Note_on_c, 0, 52, 0
2, 1142600, Note_on_c, 0, 64, 0
2, 1142612, Control_c, 0, 64, 88
2, 1142624, Control_c, 0, 64, 40
2, 1142628, Note_on_c, 0, 57, 83
2, 1142628, Note_on_c, 0, 45, 77
2, 1142628, Note_on_c, 0, 85, 98
2, 1142628, Note_on_c, 0, 76, 88
2, 1142628, Note_on_c, 0, 73, 73
2, 1142632, Control_c, 0, 64, 0
2, 1142692, Note_on_c, 0, 61, 0
2, 1142708, Control_c, 0, 64, 24
2, 1142712, Note_on_c, 0, 45, 0
2, 1142716, Control_c, 0, 64, 88
2, 1142724, Note_on_c, 0, 61, 74
2, 1142724, Control_c, 0, 64, 127
2, 1142728, Note_on_c, 0, 57, 0
2, 1142732, Note_on_c, 0, 49, 70
2, 1142808, Note_on_c, 0, 49, 0
2, 1142824, Note_on_c, 0, 61, 0
2, 1142828, Note_on_c, 0, 64, 78
2, 1142828, Note_on_c, 0, 52, 73
2, 1142852, Note_on_c, 0, 64, 0
2, 1142880, Note_on_c, 0, 52, 0
2, 1142928, Note_on_c, 0, 69, 79
2, 1142928, Note_on_c, 0, 57, 66
2, 1142984, Note_on_c, 0, 57, 0
2, 1142984, Note_on_c, 0, 69, 0
2, 1143004, Note_on_c, 0, 76, 0
2, 1143012, Note_on_c, 0, 73, 77
2, 1143012, Note_on_c, 0, 61, 76
2, 1143012, Note_on_c, 0, 81, 93
2, 1143036, Note_on_c, 0, 85, 0
2, 1143060, Note_on_c, 0, 81, 0
2, 1143084, Note_on_c, 0, 73, 0
2, 1143096, Note_on_c, 0, 61, 0
2, 1143108, Note_on_c, 0, 76, 88
2, 1143108, Note_on_c, 0, 64, 78
2, 1143176, Note_on_c, 0, 64, 0
2, 1143180, Note_on_c, 0, 76, 0
2, 1143204, Note_on_c, 0, 69, 87
2, 1143212, Control_c, 0, 64, 56
2, 1143220, Note_on_c, 0, 57, 68
2, 1143220, Note_on_c, 0, 93, 106
2, 1143220, Note_on_c, 0, 85, 86
2, 1143220, Note_on_c, 0, 88, 85
2, 1143220, Note_on_c, 0, 61, 79
2, 1143220, Note_on_c, 0, 81, 90
2, 1143220, Control_c, 0, 64, 0
2, 1143288, Control_c, 0, 64, 72
2, 1143296, Control_c, 0, 64, 127
2, 1143300, Note_on_c, 0, 76, 88
2, 1143300, Note_on_c, 0, 64, 58
2, 1143304, Note_on_c, 0, 57, 0
2, 1143308, Note_on_c, 0, 69, 0
2, 1143308, Note_on_c, 0, 69, 0
2, 1143364, Note_on_c, 0, 64, 0
2, 1143396, Note_on_c, 0, 81, 85
2, 1143396, Note_on_c, 0, 69, 71
2, 1143412, Note_on_c, 0, 76, 0
2, 1143428, Note_on_c, 0, 81, 0
2, 1143440, Note_on_c, 0, 61, 0
2, 1143464, Note_on_c, 0, 93, 0
2, 1143468, Note_on_c, 0, 73, 0
2, 1143472, Note_on_c, 0, 88, 0
2, 1143476, Note_on_c, 0, 85, 0
2, 1143480, Note_on_c, 0, 85, 91
2, 1143480, Note_on_c, 0, 73, 68
2, 1143484, Note_on_c, 0, 81, 0
2, 1143532, Note_on_c, 0, 73, 0
2, 1143536, Note_on_c, 0, 69, 0
2, 1143548, Note_on_c, 0, 85, 0
2, 1143580, Note_on_c, 0, 88, 85
2, 1143580, Note_on_c, 0, 76, 61
2, 1143580, Note_on_c, 0, 81, 101
2, 1143580, Note_on_c, 0, 69, 84
2, 1143580, Note_on_c, 0, 57, 84
2, 1143580, Note_on_c, 0, 45, 88
2, 1143580, Note_on_c, 0, 76, 83
2, 1143580, Note_on_c, 0, 73, 83
2, 1143648, Note_on_c, 0, 76, 0
2, 1143676, Note_on_c, 0, 81, 63
2, 1143676, Note_on_c, 0, 93, 88
2, 1143680, Note_on_c, 0, 88, 0
2, 1143700, Note_on_c, 0, 69, 0
2, 1143700, Note_on_c, 0, 73, 0
2, 1143700, Note_on_c, 0, 45, 0
2, 1143700, Note_on_c, 0, 81, 0
2, 1143700, Note_on_c, 0, 57, 0
2, 1143700, Note_on_c, 0, 76, 0
2, 1143712, Note_on_c, 0, 93, 0
2, 1143716, Note_on_c, 0, 81, 0
2, 1143808, Note_on_c, 0, 78, 105
2, 1143812, Note_on_c, 0, 74, 97
2, 1143816, Note_on_c, 0, 50, 96
2, 1143820, Note_on_c, 0, 38, 85
2, 1143860, Control_c, 0, 64, 88
2, 1143868, Control_c, 0, 64, 127
2, 1143912, Note_on_c, 0, 66, 79
2, 1143984, Note_on_c, 0, 66, 0
2, 1144000, Note_on_c, 0, 74, 0
2, 1144028, Note_on_c, 0, 69, 82
2, 1144108, Note_on_c, 0, 69, 0
2, 1144120, Note_on_c, 0, 66, 76
2, 1144200, Note_on_c, 0, 66, 0
2, 1144220, Note_on_c, 0, 69, 81
2, 1144268, Note_on_c, 0, 78, 0
2, 1144288, Note_on_c, 0, 69, 0
2, 1144296, Note_on_c, 0, 66, 78
2, 1144328, Note_on_c, 0, 66, 0
2, 1144340, Note_on_c, 0, 50, 0
2, 1144404, Note_on_c, 0, 74, 98
2, 1144404, Note_on_c, 0, 50, 88
2, 1144404, Control_c, 0, 64, 104
2, 1144412, Note_on_c, 0, 69, 92
2, 1144412, Note_on_c, 0, 66, 78
2, 1144416, Control_c, 0, 64, 56
2, 1144424, Control_c, 0, 64, 0
2, 1144476, Control_c, 0, 64, 24
2, 1144484, Control_c, 0, 64, 88
2, 1144488, Note_on_c, 0, 66, 0
2, 1144492, Control_c, 0, 64, 127
2, 1144504, Note_on_c, 0, 62, 82
2, 1144512, Note_on_c, 0, 69, 0
2, 1144592, Note_on_c, 0, 66, 82
2, 1144600, Note_on_c, 0, 62, 0
2, 1144620, Note_on_c, 0, 66, 0
2, 1144644, Note_on_c, 0, 74, 0
2, 1144652, Note_on_c, 0, 50, 0
2, 1144700, Note_on_c, 0, 38, 0
2, 1144704, Note_on_c, 0, 76, 103
2, 1144704, Note_on_c, 0, 69, 91
2, 1144716, Note_on_c, 0, 50, 80
2, 1144776, Note_on_c, 0, 76, 0
2, 1144796, Note_on_c, 0, 78, 95
2, 1144808, Note_on_c, 0, 74, 91
2, 1144808, Note_on_c, 0, 38, 79
2, 1144820, Note_on_c, 0, 50, 0
2, 1144860, Note_on_c, 0, 74, 0
2, 1144872, Note_on_c, 0, 78, 0
2, 1144880, Note_on_c, 0, 38, 0
2, 1144888, Note_on_c, 0, 79, 103
2, 1144892, Note_on_c, 0, 76, 88
2, 1144892, Note_on_c, 0, 50, 78
2, 1144908, Note_on_c, 0, 69, 0
2, 1144920, Note_on_c, 0, 76, 0
2, 1144936, Note_on_c, 0, 50, 0
2, 1144940, Note_on_c, 0, 79, 0
2, 1144992, Note_on_c, 0, 81, 103
2, 1144996, Note_on_c, 0, 78, 90
2, 1144996, Control_c, 0, 64, 88
2, 1145000, Note_on_c, 0, 50, 85
2, 1145004, Control_c, 0, 64, 40
2, 1145008, Note_on_c, 0, 38, 71
2, 1145012, Control_c, 0, 64, 0
2, 1145056, Control_c, 0, 64, 40
2, 1145064, Control_c, 0, 64, 104
2, 1145072, Note_on_c, 0, 78, 0
2, 1145072, Control_c, 0, 64, 127
2, 1145088, Note_on_c, 0, 69, 83
2, 1145172, Note_on_c, 0, 69, 0
2, 1145184, Note_on_c, 0, 78, 87
2, 1145240, Note_on_c, 0, 38, 0
2, 1145264, Note_on_c, 0, 78, 0
2, 1145268, Note_on_c, 0, 50, 0
2, 1145276, Note_on_c, 0, 69, 85
2, 1145320, Note_on_c, 0, 81, 0
2, 1145328, Note_on_c, 0, 69, 0
2, 1145376, Note_on_c, 0, 74, 101
2, 1145380, Note_on_c, 0, 69, 79
2, 1145384, Note_on_c, 0, 50, 88
2, 1145384, Note_on_c, 0, 38, 83
2, 1145412, Note_on_c, 0, 38, 0
2, 1145416, Note_on_c, 0, 69, 0
2, 1145432, Note_on_c, 0, 50, 0
2, 1145468, Note_on_c, 0, 74, 0
2, 1145476, Note_on_c, 0, 66, 98
2, 1145516, Note_on_c, 0, 66, 0
2, 1145604, Note_on_c, 0, 86, 113
2, 1145608, Note_on_c, 0, 78, 98
2, 1145612, Note_on_c, 0, 62, 89
2, 1145616, Note_on_c, 0, 50, 88
2, 1145620, Note_on_c, 0, 57, 78
2, 1145624, Control_c, 0, 64, 88
2, 1145636, Control_c, 0, 64, 40
2, 1145644, Control_c, 0, 64, 0
2, 1145696, Note_on_c, 0, 74, 84
2, 1145696, Control_c, 0, 64, 56
2, 1145700, Note_on_c, 0, 78, 0
2, 1145704, Control_c, 0, 64, 127
2, 1145784, Note_on_c, 0, 62, 0
2, 1145792, Note_on_c, 0, 57, 0
2, 1145796, Note_on_c, 0, 74, 0
2, 1145796, Note_on_c, 0, 78, 84
2, 1145804, Note_on_c, 0, 50, 0
2, 1145884, Note_on_c, 0, 78, 0
2, 1145896, Note_on_c, 0, 74, 88
2, 1145964, Note_on_c, 0, 86, 0
2, 1145968, Note_on_c, 0, 74, 0
2, 1145984, Control_c, 0, 64, 72
2, 1145992, Control_c, 0, 64, 0
2, 1146004, Note_on_c, 0, 86, 106
2, 1146004, Note_on_c, 0, 80, 96
2, 1146004, Note_on_c, 0, 77, 98
2, 1146016, Note_on_c, 0, 47, 88
2, 1146016, Note_on_c, 0, 35, 81
2, 1146036, Control_c, 0, 64, 40
2, 1146048, Control_c, 0, 64, 104
2, 1146056, Control_c, 0, 64, 127
2, 1146096, Note_on_c, 0, 77, 0
2, 1146108, Note_on_c, 0, 47, 0
2, 1146108, Note_on_c, 0, 80, 0
2, 1146112, Note_on_c, 0, 74, 88
2, 1146116, Note_on_c, 0, 35, 0
2, 1146156, Note_on_c, 0, 74, 0
2, 1146188, Control_c, 0, 64, 88
2, 1146196, Control_c, 0, 64, 24
2, 1146204, Note_on_c, 0, 85, 104
2, 1146204, Control_c, 0, 64, 0
2, 1146212, Control_c, 0, 64, 24
2, 1146220, Note_on_c, 0, 45, 90
2, 1146224, Note_on_c, 0, 86, 0
2, 1146224, Note_on_c, 0, 33, 84
2, 1146224, Control_c, 0, 64, 56
2, 1146232, Control_c, 0, 64, 104
2, 1146240, Control_c, 0, 64, 127
2, 1146272, Note_on_c, 0, 33, 0
2, 1146296, Note_on_c, 0, 85, 0
2, 1146300, Note_on_c, 0, 45, 0
2, 1146312, Note_on_c, 0, 78, 88
2, 1146404, Note_on_c, 0, 86, 88
2, 1146408, Note_on_c, 0, 78, 0
2, 1146408, Control_c, 0, 64, 88
2, 1146416, Control_c, 0, 64, 24
2, 1146420, Note_on_c, 0, 85, 104
2, 1146424, Control_c, 0, 64, 0
2, 1146432, Note_on_c, 0, 57, 87
2, 1146436, Note_on_c, 0, 45, 86
2, 1146456, Note_on_c, 0, 86, 0
2, 1146460, Control_c, 0, 64, 40
2, 1146468, Control_c, 0, 64, 104
2, 1146472, Note_on_c, 0, 45, 0
2, 1146476, Note_on_c, 0, 57, 0
2, 1146476, Control_c, 0, 64, 127
2, 1146520, Note_on_c, 0, 85, 0
2, 1146520, Note_on_c, 0, 78, 74
2, 1146552, Note_on_c, 0, 78, 0
2, 1146600, Control_c, 0, 64, 88
2, 1146608, Control_c, 0, 64, 40
2, 1146612, Note_on_c, 0, 83, 103
2, 1146616, Control_c, 0, 64, 0
2, 1146620, Note_on_c, 0, 47, 78
2, 1146624, Note_on_c, 0, 35, 78
2, 1146652, Control_c, 0, 64, 40
2, 1146664, Control_c, 0, 64, 88
2, 1146672, Note_on_c, 0, 35, 0
2, 1146672, Control_c, 0, 64, 127
2, 1146692, Note_on_c, 0, 47, 0
2, 1146712, Note_on_c, 0, 78, 85
2, 1146716, Note_on_c, 0, 74, 84
2, 1146776, Control_c, 0, 64, 88
2, 1146784, Control_c, 0, 64, 24
2, 1146792, Control_c, 0, 64, 0
2, 1146812, Note_on_c, 0, 49, 93
2, 1146812, Note_on_c, 0, 37, 78
2, 1146816, Note_on_c, 0, 78, 0
2, 1146820, Control_c, 0, 64, 24
2, 1146828, Control_c, 0, 64, 72
2, 1146836, Control_c, 0, 64, 127
2, 1146844, Note_on_c, 0, 49, 0
2, 1146844, Note_on_c, 0, 37, 0
2, 1146892, Note_on_c, 0, 74, 0
2, 1146912, Note_on_c, 0, 78, 90
2, 1146920, Note_on_c, 0, 83, 0
2, 1146988, Note_on_c, 0, 78, 0
2, 1146996, Note_on_c, 0, 83, 83
2, 1146996, Control_c, 0, 64, 72
2, 1147004, Control_c, 0, 64, 0
2, 1147012, Note_on_c, 0, 81, 97
2, 1147016, Note_on_c, 0, 61, 90
2, 1147016, Note_on_c, 0, 49, 83
2, 1147044, Note_on_c, 0, 61, 0
2, 1147056, Note_on_c, 0, 49, 0
2, 1147056, Note_on_c, 0, 83, 0
2, 1147056, Control_c, 0, 64, 72
2, 1147068, Control_c, 0, 64, 127
2, 1147112, Note_on_c, 0, 81, 0
2, 1147112, Note_on_c, 0, 78, 90
2, 1147124, Note_on_c, 0, 73, 57
2, 1147148, Note_on_c, 0, 73, 0
2, 1147164, Note_on_c, 0, 78, 0
2, 1147188, Control_c, 0, 64, 88
2, 1147196, Control_c, 0, 64, 24
2, 1147204, Control_c, 0, 64, 0
2, 1147212, Note_on_c, 0, 80, 103
2, 1147220, Note_on_c, 0, 49, 94
2, 1147220, Note_on_c, 0, 37, 79
2, 1147248, Note_on_c, 0, 37, 0
2, 1147248, Note_on_c, 0, 49, 0
2, 1147252, Control_c, 0, 64, 56
2, 1147260, Control_c, 0, 64, 104
2, 1147268, Control_c, 0, 64, 127
2, 1147296, Note_on_c, 0, 80, 0
2, 1147304, Note_on_c, 0, 77, 89
2, 1147308, Note_on_c, 0, 71, 83
2, 1147340, Note_on_c, 0, 77, 0
2, 1147356, Note_on_c, 0, 71, 0
2, 1147416, Note_on_c, 0, 78, 100
2, 1147424, Control_c, 0, 64, 104
2, 1147432, Note_on_c, 0, 42, 76
2, 1147432, Note_on_c, 0, 54, 82
2, 1147432, Control_c, 0, 64, 72
2, 1147444, Control_c, 0, 64, 40
2, 1147452, Control_c, 0, 64, 0
2, 1147516, Note_on_c, 0, 69, 84
2, 1147540, Control_c, 0, 64, 56
2, 1147548, Control_c, 0, 64, 127
2, 1147600, Note_on_c, 0, 69, 0
2, 1147620, Note_on_c, 0, 73, 68
2, 1147688, Note_on_c, 0, 73, 0
2, 1147704, Note_on_c, 0, 42, 0
2, 1147708, Note_on_c, 0, 54, 0
2, 1147712, Note_on_c, 0, 69, 78
2, 1147788, Note_on_c, 0, 69, 0
2, 1147800, Note_on_c, 0, 54, 83
2, 1147804, Note_on_c, 0, 42, 74
2, 1147812, Note_on_c, 0, 73, 70
2, 1147832, Note_on_c, 0, 54, 0
2, 1147844, Note_on_c, 0, 42, 0
2, 1147880, Note_on_c, 0, 73, 0
2, 1147884, Note_on_c, 0, 78, 0
2, 1147892, Note_on_c, 0, 69, 81
2, 1147912, Note_on_c, 0, 69, 0
2, 1148012, Note_on_c, 0, 84, 106
2, 1148024, Note_on_c, 0, 51, 94
2, 1148028, Note_on_c, 0, 39, 82
2, 1148032, Control_c, 0, 64, 88
2, 1148040, Control_c, 0, 64, 40
2, 1148048, Control_c, 0, 64, 0
2, 1148116, Note_on_c, 0, 72, 80
2, 1148120, Control_c, 0, 64, 56
2, 1148128, Control_c, 0, 64, 127
2, 1148192, Note_on_c, 0, 72, 0
2, 1148212, Note_on_c, 0, 81, 81
2, 1148212, Note_on_c, 0, 78, 68
2, 1148284, Note_on_c, 0, 78, 0
2, 1148284, Note_on_c, 0, 81, 0
2, 1148304, Note_on_c, 0, 72, 80
2, 1148336, Note_on_c, 0, 39, 0
2, 1148340, Note_on_c, 0, 51, 0
2, 1148376, Note_on_c, 0, 72, 0
2, 1148392, Note_on_c, 0, 39, 73
2, 1148392, Note_on_c, 0, 51, 92
2, 1148400, Note_on_c, 0, 78, 73
2, 1148400, Note_on_c, 0, 81, 82
2, 1148420, Note_on_c, 0, 39, 0
2, 1148428, Note_on_c, 0, 51, 0
2, 1148484, Note_on_c, 0, 81, 0
2, 1148488, Note_on_c, 0, 72, 83
2, 1148508, Note_on_c, 0, 78, 0
2, 1148540, Note_on_c, 0, 72, 0
2, 1148600, Note_on_c, 0, 64, 93
2, 1148604, Note_on_c, 0, 55, 85
2, 1148604, Note_on_c, 0, 59, 85
2, 1148604, Control_c, 0, 64, 72
2, 1148612, Control_c, 0, 64, 0
2, 1148672, Note_on_c, 0, 84, 0
2, 1148680, Control_c, 0, 64, 40
2, 1148688, Control_c, 0, 64, 88
2, 1148692, Note_on_c, 0, 71, 77
2, 1148700, Note_on_c, 0, 76, 84
2, 1148700, Control_c, 0, 64, 127
2, 1148776, Note_on_c, 0, 76, 0
2, 1148788, Note_on_c, 0, 71, 0
2, 1148800, Note_on_c, 0, 83, 101
2, 1148852, Note_on_c, 0, 55, 0
2, 1148872, Note_on_c, 0, 59, 0
2, 1148892, Note_on_c, 0, 64, 0
2, 1148904, Note_on_c, 0, 83, 0
2, 1148908, Note_on_c, 0, 76, 75
2, 1148908, Note_on_c, 0, 71, 68
2, 1148924, Note_on_c, 0, 76, 0
2, 1148928, Note_on_c, 0, 71, 0
2, 1148996, Control_c, 0, 64, 88
2, 1149004, Note_on_c, 0, 81, 104
2, 1149004, Control_c, 0, 64, 40
2, 1149012, Note_on_c, 0, 66, 80
2, 1149012, Note_on_c, 0, 57, 82
2, 1149016, Control_c, 0, 64, 0
2, 1149020, Note_on_c, 0, 60, 76
2, 1149068, Control_c, 0, 64, 24
2, 1149076, Control_c, 0, 64, 88
2, 1149084, Note_on_c, 0, 57, 0
2, 1149084, Control_c, 0, 64, 127
2, 1149092, Note_on_c, 0, 60, 0
2, 1149108, Note_on_c, 0, 72, 74
2, 1149112, Note_on_c, 0, 76, 83
2, 1149128, Note_on_c, 0, 66, 0
2, 1149160, Note_on_c, 0, 72, 0
2, 1149172, Note_on_c, 0, 76, 0
2, 1149188, Control_c, 0, 64, 88
2, 1149200, Control_c, 0, 64, 24
2, 1149204, Note_on_c, 0, 59, 84
2, 1149204, Note_on_c, 0, 67, 88
2, 1149208, Note_on_c, 0, 64, 84
2, 1149208, Control_c, 0, 64, 0
2, 1149268, Control_c, 0, 64, 40
2, 1149280, Control_c, 0, 64, 88
2, 1149288, Control_c, 0, 64, 127
2, 1149296, Note_on_c, 0, 81, 0
2, 1149304, Note_on_c, 0, 76, 88
2, 1149308, Note_on_c, 0, 71, 79
2, 1149368, Note_on_c, 0, 76, 0
2, 1149372, Note_on_c, 0, 71, 0
2, 1149392, Note_on_c, 0, 81, 94
2, 1149408, Note_on_c, 0, 79, 96
2, 1149448, Note_on_c, 0, 81, 0
2, 1149484, Note_on_c, 0, 59, 0
2, 1149504, Note_on_c, 0, 79, 0
2, 1149504, Note_on_c, 0, 71, 73
2, 1149508, Note_on_c, 0, 76, 83
2, 1149528, Note_on_c, 0, 64, 0
2, 1149532, Note_on_c, 0, 67, 0
2, 1149544, Note_on_c, 0, 71, 0
2, 1149544, Note_on_c, 0, 76, 0
2, 1149560, Control_c, 0, 64, 104
2, 1149568, Control_c, 0, 64, 72
2, 1149576, Control_c, 0, 64, 0
2, 1149596, Note_on_c, 0, 78, 103
2, 1149604, Note_on_c, 0, 63, 78
2, 1149604, Note_on_c, 0, 59, 83
2, 1149640, Control_c, 0, 64, 40
2, 1149648, Control_c, 0, 64, 88
2, 1149656, Note_on_c, 0, 59, 0
2, 1149656, Note_on_c, 0, 63, 0
2, 1149656, Control_c, 0, 64, 127
2, 1149684, Note_on_c, 0, 78, 0
2, 1149688, Note_on_c, 0, 75, 84
2, 1149700, Note_on_c, 0, 69, 78
2, 1149728, Note_on_c, 0, 75, 0
2, 1149768, Note_on_c, 0, 69, 0
2, 1149804, Note_on_c, 0, 76, 100
2, 1149804, Note_on_c, 0, 64, 86
2, 1149804, Control_c, 0, 64, 88
2, 1149808, Note_on_c, 0, 52, 85
2, 1149812, Note_on_c, 0, 59, 82
2, 1149816, Control_c, 0, 64, 40
2, 1149824, Control_c, 0, 64, 0
2, 1149844, Note_on_c, 0, 64, 0
2, 1149868, Control_c, 0, 64, 72
2, 1149876, Control_c, 0, 64, 127
2, 1149896, Note_on_c, 0, 67, 79
2, 1149900, Note_on_c, 0, 71, 87
2, 1149964, Note_on_c, 0, 67, 0
2, 1149968, Note_on_c, 0, 71, 0
2, 1149988, Note_on_c, 0, 64, 83
2, 1150024, Note_on_c, 0, 52, 0
2, 1150036, Note_on_c, 0, 59, 0
2, 1150084, Note_on_c, 0, 64, 0
2, 1150104, Note_on_c, 0, 71, 82
2, 1150104, Note_on_c, 0, 67, 81
2, 1150140, Note_on_c, 0, 76, 0
2, 1150144, Note_on_c, 0, 71, 0
2, 1150192, Note_on_c, 0, 67, 0
2, 1150196, Note_on_c, 0, 76, 106
2, 1150204, Note_on_c, 0, 64, 83
2, 1150268, Note_on_c, 0, 64, 0
2, 1150280, Note_on_c, 0, 76, 0
2, 1150284, Note_on_c, 0, 66, 81
2, 1150288, Note_on_c, 0, 78, 97
2, 1150336, Note_on_c, 0, 66, 0
2, 1150356, Note_on_c, 0, 78, 0
2, 1150384, Control_c, 0, 64, 104
2, 1150388, Note_on_c, 0, 79, 106
2, 1150396, Control_c, 0, 64, 72
2, 1150400, Note_on_c, 0, 76, 84
2, 1150400, Note_on_c, 0, 67, 82
2, 1150400, Note_on_c, 0, 73, 72
2, 1150400, Note_on_c, 0, 64, 80
2, 1150400, Note_on_c, 0, 61, 83
2, 1150404, Control_c, 0, 64, 0
2, 1150484, Note_on_c, 0, 76, 0
2, 1150492, Control_c, 0, 64, 88
2, 1150500, Control_c, 0, 64, 127
2, 1150504, Note_on_c, 0, 73, 0
2, 1150508, Note_on_c, 0, 79, 0
2, 1150540, Note_on_c, 0, 67, 0
2, 1150584, Note_on_c, 0, 64, 0
2, 1150612, Note_on_c, 0, 67, 79
2, 1150612, Note_on_c, 0, 79, 99
2, 1150620, Note_on_c, 0, 64, 80
2, 1150696, Note_on_c, 0, 79, 0
2, 1150704, Note_on_c, 0, 61, 0
2, 1150704, Note_on_c, 0, 81, 95
2, 1150708, Note_on_c, 0, 69, 83
2, 1150736, Note_on_c, 0, 64, 0
2, 1150740, Note_on_c, 0, 67, 0
2, 1150748, Note_on_c, 0, 69, 0
2, 1150776, Note_on_c, 0, 81, 0
2, 1150788, Control_c, 0, 64, 104
2, 1150800, Control_c, 0, 64, 40
2, 1150804, Note_on_c, 0, 82, 100
2, 1150808, Control_c, 0, 64, 0
2, 1150812, Note_on_c, 0, 79, 94
2, 1150812, Note_on_c, 0, 70, 86
2, 1150816, Note_on_c, 0, 64, 82
2, 1150824, Note_on_c, 0, 61, 82
2, 1150856, Note_on_c, 0, 79, 0
2, 1150868, Control_c, 0, 64, 40
2, 1150876, Control_c, 0, 64, 88
2, 1150884, Note_on_c, 0, 64, 0
2, 1150884, Control_c, 0, 64, 127
2, 1150888, Note_on_c, 0, 61, 0
2, 1150900, Note_on_c, 0, 70, 0
2, 1150928, Note_on_c, 0, 82, 0
2, 1151004, Note_on_c, 0, 81, 98
2, 1151008, Note_on_c, 0, 78, 89
2, 1151016, Note_on_c, 0, 66, 81
2, 1151016, Note_on_c, 0, 69, 83
2, 1151016, Note_on_c, 0, 62, 85
2, 1151052, Control_c, 0, 64, 104
2, 1151060, Control_c, 0, 64, 72
2, 1151072, Control_c, 0, 64, 24
2, 1151080, Control_c, 0, 64, 0
2, 1151136, Note_on_c, 0, 78, 0
2, 1151140, Note_on_c, 0, 66, 0
2, 1151140, Control_c, 0, 64, 40
2, 1151148, Control_c, 0, 64, 104
2, 1151160, Control_c, 0, 64, 127
2, 1151200, Note_on_c, 0, 62, 0
2, 1151216, Note_on_c, 0, 78, 89
2, 1151232, Note_on_c, 0, 66, 78
2, 1151388, Note_on_c, 0, 81, 0
2, 1151396, Note_on_c, 0, 62, 86
2, 1151396, Note_on_c, 0, 74, 88
2, 1151400, Note_on_c, 0, 78, 0
2, 1151408, Note_on_c, 0, 69, 0
2, 1151416, Note_on_c, 0, 66, 0
2, 1151432, Note_on_c, 0, 62, 0
2, 1151444, Note_on_c, 0, 74, 0
2, 1151568, Note_on_c, 0, 76, 79
2, 1151568, Note_on_c, 0, 64, 78
2, 1151596, Note_on_c, 0, 68, 83
2, 1151596, Note_on_c, 0, 74, 103
2, 1151596, Note_on_c, 0, 62, 80
2, 1151596, Note_on_c, 0, 59, 81
2, 1151596, Note_on_c, 0, 52, 84
2, 1151596, Control_c, 0, 64, 88
2, 1151608, Control_c, 0, 64, 40
2, 1151616, Control_c, 0, 64, 0
2, 1151620, Note_on_c, 0, 64, 0
2, 1151620, Note_on_c, 0, 76, 0
2, 1151712, Control_c, 0, 64, 72
2, 1151720, Control_c, 0, 64, 127
2, 1151728, Note_on_c, 0, 59, 0
2, 1151748, Note_on_c, 0, 62, 0
2, 1151800, Note_on_c, 0, 74, 0
2, 1151812, Note_on_c, 0, 73, 92
2, 1151820, Note_on_c, 0, 61, 76
2, 1151836, Note_on_c, 0, 68, 0
2, 1151876, Note_on_c, 0, 52, 0
2, 1151880, Note_on_c, 0, 61, 0
2, 1151932, Note_on_c, 0, 73, 0
2, 1152000, Control_c, 0, 64, 72
2, 1152004, Note_on_c, 0, 74, 101
2, 1152012, Note_on_c, 0, 68, 82
2, 1152012, Control_c, 0, 64, 0
2, 1152016, Note_on_c, 0, 62, 83
2, 1152020, Note_on_c, 0, 52, 84
2, 1152020, Note_on_c, 0, 59, 81
2, 1152080, Note_on_c, 0, 52, 0
2, 1152080, Control_c, 0, 64, 72
2, 1152088, Control_c, 0, 64, 127
2, 1152092, Note_on_c, 0, 59, 0
2, 1152096, Note_on_c, 0, 74, 0
2, 1152124, Note_on_c, 0, 62, 0
2, 1152124, Note_on_c, 0, 68, 0
2, 1152236, Note_on_c, 0, 76, 106
2, 1152244, Note_on_c, 0, 69, 88
2, 1152244, Note_on_c, 0, 73, 81
2, 1152244, Note_on_c, 0, 61, 83
2, 1152244, Note_on_c, 0, 57, 86
2, 1152292, Control_c, 0, 64, 104
2, 1152300, Control_c, 0, 64, 56
2, 1152308, Control_c, 0, 64, 0
2, 1152424, Control_c, 0, 64, 72
2, 1152432, Control_c, 0, 64, 127
2, 1152616, Note_on_c, 0, 57, 0
2, 1152620, Note_on_c, 0, 61, 0
2, 1152660, Note_on_c, 0, 76, 0
2, 1152664, Note_on_c, 0, 73, 0
2, 1152684, Note_on_c, 0, 69, 0
2, 1152904, Note_on_c, 0, 77, 112
2, 1152904, Note_on_c, 0, 67, 86
2, 1152904, Note_on_c, 0, 69, 87
2, 1152904, Note_on_c, 0, 33, 88
2, 1152904, Note_on_c, 0, 45, 84
2, 1152904, Note_on_c, 0, 73, 87
2, 1152960, Control_c, 0, 64, 104
2, 1152968, Control_c, 0, 64, 56
2, 1152976, Control_c, 0, 64, 0
2, 1153044, Control_c, 0, 64, 40
2, 1153056, Control_c, 0, 64, 104
2, 1153064, Control_c, 0, 64, 127
2, 1153196, Note_on_c, 0, 33, 0
2, 1153252, Note_on_c, 0, 45, 0
2, 1153348, Note_on_c, 0, 69, 0
2, 1153360, Note_on_c, 0, 67, 0
2, 1153380, Note_on_c, 0, 77, 0
2, 1153396, Note_on_c, 0, 73, 0
2, 1153600, Note_on_c, 0, 78, 103
2, 1153600, Note_on_c, 0, 74, 93
2, 1153600, Note_on_c, 0, 62, 86
2, 1153600, Note_on_c, 0, 66, 82
2, 1153600, Note_on_c, 0, 50, 84
2, 1153600, Note_on_c, 0, 38, 87
2, 1153632, Control_c, 0, 64, 104
2, 1153644, Control_c, 0, 64, 56
2, 1153648, Note_on_c, 0, 74, 0
2, 1153652, Control_c, 0, 64, 24
2, 1153660, Control_c, 0, 64, 0
2, 1153740, Control_c, 0, 64, 24
2, 1153748, Control_c, 0, 64, 88
2, 1153756, Control_c, 0, 64, 127
2, 1153808, Note_on_c, 0, 66, 0
2, 1153808, Note_on_c, 0, 62, 0
2, 1153820, Note_on_c, 0, 38, 0
2, 1153820, Note_on_c, 0, 50, 0
2, 1153888, Note_on_c, 0, 78, 0
2, 1153996, Note_on_c, 0, 74, 84
2, 1154000, Note_on_c, 0, 62, 73
2, 1154000, Note_on_c, 0, 50, 83
2, 1154004, Note_on_c, 0, 66, 67
2, 1154008, Note_on_c, 0, 38, 70
2, 1154028, Note_on_c, 0, 38, 0
2, 1154032, Note_on_c, 0, 62, 0
2, 1154044, Note_on_c, 0, 66, 0
2, 1154060, Note_on_c, 0, 50, 0
2, 1154060, Note_on_c, 0, 74, 0
2, 1154200, Note_on_c, 0, 74, 99
2, 1154200, Note_on_c, 0, 62, 87
2, 1154208, Note_on_c, 0, 66, 90
2, 1154208, Note_on_c, 0, 54, 84
2, 1154220, Note_on_c, 0, 50, 78
2, 1154220, Note_on_c, 0, 38, 78
2, 1154252, Note_on_c, 0, 66, 0
2, 1154288, Note_on_c, 0, 38, 0
2, 1154296, Note_on_c, 0, 74, 0
2, 1154316, Note_on_c, 0, 50, 0
2, 1154420, Note_on_c, 0, 62, 0
2, 1154428, Note_on_c, 0, 54, 0
2, 1154504, Note_on_c, 0, 76, 98
2, 1154508, Note_on_c, 0, 69, 86
2, 1154508, Note_on_c, 0, 64, 84
2, 1154512, Note_on_c, 0, 57, 75
2, 1154548, Note_on_c, 0, 64, 0
2, 1154552, Note_on_c, 0, 57, 0
2, 1154568, Note_on_c, 0, 76, 0
2, 1154588, Note_on_c, 0, 78, 90
2, 1154588, Note_on_c, 0, 66, 78
2, 1154588, Note_on_c, 0, 74, 83
2, 1154588, Note_on_c, 0, 62, 83
2, 1154588, Note_on_c, 0, 50, 84
2, 1154588, Note_on_c, 0, 38, 88
2, 1154608, Note_on_c, 0, 74, 0
2, 1154632, Note_on_c, 0, 66, 0
2, 1154632, Note_on_c, 0, 69, 0
2, 1154640, Note_on_c, 0, 62, 0
2, 1154656, Note_on_c, 0, 78, 0
2, 1154672, Note_on_c, 0, 79, 98
2, 1154680, Note_on_c, 0, 64, 78
2, 1154684, Note_on_c, 0, 76, 76
2, 1154688, Note_on_c, 0, 50, 0
2, 1154688, Note_on_c, 0, 38, 0
2, 1154704, Note_on_c, 0, 76, 0
2, 1154720, Note_on_c, 0, 64, 0
2, 1154728, Note_on_c, 0, 79, 0
2, 1154772, Note_on_c, 0, 81, 101
2, 1154772, Note_on_c, 0, 66, 87
2, 1154772, Note_on_c, 0, 69, 85
2, 1154772, Note_on_c, 0, 62, 83
2, 1154772, Note_on_c, 0, 57, 76
2, 1154772, Note_on_c, 0, 78, 90
2, 1154772, Note_on_c, 0, 38, 88
2, 1154772, Note_on_c, 0, 50, 84
2, 1154776, Control_c, 0, 64, 88
2, 1154784, Control_c, 0, 64, 24
2, 1154792, Control_c, 0, 64, 0
2, 1154804, Note_on_c, 0, 69, 0
2, 1154836, Note_on_c, 0, 78, 0
2, 1154844, Control_c, 0, 64, 40
2, 1154856, Control_c, 0, 64, 104
2, 1154864, Control_c, 0, 64, 127
2, 1154904, Note_on_c, 0, 62, 0
2, 1154984, Note_on_c, 0, 57, 0
2, 1155016, Note_on_c, 0, 66, 0
2, 1155152, Note_on_c, 0, 81, 0
2, 1155168, Note_on_c, 0, 74, 103
2, 1155168, Note_on_c, 0, 66, 76
2, 1155168, Note_on_c, 0, 62, 79
2, 1155168, Note_on_c, 0, 50, 84
2, 1155168, Note_on_c, 0, 38, 87
2, 1155200, Note_on_c, 0, 62, 0
2, 1155216, Note_on_c, 0, 66, 0
2, 1155216, Note_on_c, 0, 74, 0
2, 1155256, Note_on_c, 0, 50, 0
2, 1155256, Note_on_c, 0, 38, 0
2, 1155268, Note_on_c, 0, 50, 0
2, 1155268, Note_on_c, 0, 38, 0
2, 1155368, Note_on_c, 0, 86, 108
2, 1155368, Note_on_c, 0, 74, 94
2, 1155368, Note_on_c, 0, 66, 82
2, 1155368, Note_on_c, 0, 78, 98
2, 1155368, Note_on_c, 0, 38, 87
2, 1155368, Note_on_c, 0, 50, 84
2, 1155384, Control_c, 0, 64, 104
2, 1155392, Control_c, 0, 64, 56
2, 1155400, Control_c, 0, 64, 0
2, 1155460, Control_c, 0, 64, 56
2, 1155468, Control_c, 0, 64, 127
2, 1155528, Note_on_c, 0, 74, 0
2, 1155556, Note_on_c, 0, 66, 0
2, 1155616, Note_on_c, 0, 78, 0
2, 1155624, Note_on_c, 0, 86, 0
2, 1155768, Control_c, 0, 64, 56
2, 1155776, Note_on_c, 0, 80, 90
2, 1155776, Note_on_c, 0, 77, 93
2, 1155776, Note_on_c, 0, 47, 84
2, 1155776, Note_on_c, 0, 59, 87
2, 1155776, Note_on_c, 0, 74, 93
2, 1155776, Note_on_c, 0, 86, 103
2, 1155776, Control_c, 0, 64, 0
2, 1155820, Note_on_c, 0, 77, 0
2, 1155828, Control_c, 0, 64, 72
2, 1155832, Note_on_c, 0, 59, 0
2, 1155836, Note_on_c, 0, 47, 0
2, 1155840, Control_c, 0, 64, 127
2, 1155844, Note_on_c, 0, 80, 0
2, 1155852, Note_on_c, 0, 38, 0
2, 1155852, Note_on_c, 0, 50, 0
2, 1155860, Note_on_c, 0, 74, 0
2, 1155892, Note_on_c, 0, 86, 0
2, 1155968, Control_c, 0, 64, 104
2, 1155976, Control_c, 0, 64, 56
2, 1155980, Note_on_c, 0, 85, 98
2, 1155980, Note_on_c, 0, 78, 87
2, 1155980, Note_on_c, 0, 73, 98
2, 1155980, Note_on_c, 0, 45, 86
2, 1155980, Note_on_c, 0, 57, 85
2, 1155988, Control_c, 0, 64, 0
2, 1156020, Note_on_c, 0, 45, 0
2, 1156032, Note_on_c, 0, 57, 0
2, 1156036, Note_on_c, 0, 78, 0
2, 1156040, Control_c, 0, 64, 56
2, 1156048, Note_on_c, 0, 85, 0
2, 1156048, Control_c, 0, 64, 127
2, 1156060, Note_on_c, 0, 73, 0
2, 1156152, Control_c, 0, 64, 104
2, 1156164, Control_c, 0, 64, 56
2, 1156172, Control_c, 0, 64, 0
2, 1156188, Note_on_c, 0, 57, 84
2, 1156188, Note_on_c, 0, 45, 89
2, 1156188, Note_on_c, 0, 78, 98
2, 1156188, Note_on_c, 0, 73, 87
2, 1156188, Note_on_c, 0, 85, 98
2, 1156216, Control_c, 0, 64, 56
2, 1156220, Note_on_c, 0, 45, 0
2, 1156224, Control_c, 0, 64, 127
2, 1156228, Note_on_c, 0, 73, 0
2, 1156232, Note_on_c, 0, 57, 0
2, 1156248, Note_on_c, 0, 78, 0
2, 1156288, Note_on_c, 0, 85, 0
2, 1156348, Control_c, 0, 64, 104
2, 1156356, Control_c, 0, 64, 40
2, 1156364, Control_c, 0, 64, 0
2, 1156380, Note_on_c, 0, 83, 103
2, 1156380, Note_on_c, 0, 78, 88
2, 1156380, Note_on_c, 0, 47, 80
2, 1156380, Note_on_c, 0, 59, 77
2, 1156380, Note_on_c, 0, 74, 87
2, 1156416, Control_c, 0, 64, 24
2, 1156424, Note_on_c, 0, 47, 0
2, 1156424, Control_c, 0, 64, 72
2, 1156436, Note_on_c, 0, 74, 0
2, 1156436, Control_c, 0, 64, 127
2, 1156440, Note_on_c, 0, 59, 0
2, 1156484, Note_on_c, 0, 78, 0
2, 1156504, Note_on_c, 0, 83, 0
2, 1156556, Control_c, 0, 64, 56
2, 1156568, Note_on_c, 0, 81, 98
2, 1156568, Note_on_c, 0, 78, 89
2, 1156568, Note_on_c, 0, 73, 87
2, 1156568, Note_on_c, 0, 49, 87
2, 1156568, Note_on_c, 0, 61, 85
2, 1156568, Control_c, 0, 64, 0
2, 1156612, Note_on_c, 0, 61, 0
2, 1156612, Note_on_c, 0, 49, 0
2, 1156620, Control_c, 0, 64, 56
2, 1156628, Control_c, 0, 64, 127
2, 1156636, Note_on_c, 0, 78, 0
2, 1156648, Note_on_c, 0, 81, 0
2, 1156668, Note_on_c, 0, 73, 0
2, 1156732, Control_c, 0, 64, 104
2, 1156744, Control_c, 0, 64, 56
2, 1156752, Control_c, 0, 64, 0
2, 1156772, Note_on_c, 0, 81, 98
2, 1156772, Note_on_c, 0, 49, 89
2, 1156772, Note_on_c, 0, 73, 84
2, 1156772, Note_on_c, 0, 78, 83
2, 1156772, Note_on_c, 0, 61, 84
2, 1156804, Note_on_c, 0, 61, 0
2, 1156804, Control_c, 0, 64, 56
2, 1156808, Note_on_c, 0, 73, 0
2, 1156812, Note_on_c, 0, 78, 0
2, 1156812, Note_on_c, 0, 49, 0
2, 1156812, Control_c, 0, 64, 104
2, 1156820, Note_on_c, 0, 81, 0
2, 1156824, Control_c, 0, 64, 127
2, 1156940, Control_c, 0, 64, 104
2, 1156948, Control_c, 0, 64, 56
2, 1156960, Control_c, 0, 64, 0
2, 1156972, Note_on_c, 0, 80, 98
2, 1156972, Note_on_c, 0, 73, 88
2, 1156972, Note_on_c, 0, 37, 88
2, 1156972, Note_on_c, 0, 49, 88
2, 1156972, Note_on_c, 0, 71, 86
2, 1156972, Note_on_c, 0, 77, 91
2, 1157012, Note_on_c, 0, 49, 0
2, 1157012, Note_on_c, 0, 37, 0
2, 1157024, Control_c, 0, 64, 56
2, 1157028, Note_on_c, 0, 77, 0
2, 1157032, Control_c, 0, 64, 127
2, 1157036, Note_on_c, 0, 73, 0
2, 1157044, Note_on_c, 0, 71, 0
2, 1157064, Note_on_c, 0, 80, 0
2, 1157200, Note_on_c, 0, 78, 97
2, 1157200, Note_on_c, 0, 54, 84
2, 1157200, Note_on_c, 0, 42, 86
2, 1157200, Note_on_c, 0, 73, 84
2, 1157200, Note_on_c, 0, 69, 84
2, 1157200, Control_c, 0, 64, 72
2, 1157208, Control_c, 0, 64, 0
2, 1157260, Control_c, 0, 64, 24
2, 1157268, Control_c, 0, 64, 88
2, 1157280, Control_c, 0, 64, 127
2, 1157328, Note_on_c, 0, 42, 0
2, 1157352, Note_on_c, 0, 54, 0
2, 1157432, Note_on_c, 0, 69, 84
2, 1157432, Note_on_c, 0, 57, 80
2, 1157460, Note_on_c, 0, 78, 0
2, 1157460, Note_on_c, 0, 69, 0
2, 1157460, Note_on_c, 0, 73, 0
2, 1157520, Note_on_c, 0, 73, 98
2, 1157520, Note_on_c, 0, 61, 84
2, 1157556, Note_on_c, 0, 69, 0
2, 1157556, Note_on_c, 0, 57, 0
2, 1157604, Note_on_c, 0, 78, 94
2, 1157604, Note_on_c, 0, 66, 84
2, 1157604, Note_on_c, 0, 54, 84
2, 1157604, Note_on_c, 0, 42, 88
2, 1157604, Note_on_c, 0, 57, 83
2, 1157620, Note_on_c, 0, 73, 0
2, 1157620, Note_on_c, 0, 61, 0
2, 1157620, Note_on_c, 0, 69, 47
2, 1157648, Note_on_c, 0, 69, 0
2, 1157688, Note_on_c, 0, 78, 0
2, 1157692, Note_on_c, 0, 81, 100
2, 1157704, Note_on_c, 0, 54, 0
2, 1157704, Note_on_c, 0, 57, 0
2, 1157704, Note_on_c, 0, 66, 0
2, 1157704, Note_on_c, 0, 42, 0
2, 1157736, Note_on_c, 0, 81, 0
2, 1157796, Note_on_c, 0, 84, 106
2, 1157796, Note_on_c, 0, 81, 83
2, 1157796, Note_on_c, 0, 69, 79
2, 1157796, Note_on_c, 0, 72, 92
2, 1157796, Note_on_c, 0, 60, 83
2, 1157796, Note_on_c, 0, 66, 83
2, 1157796, Note_on_c, 0, 57, 83
2, 1157796, Note_on_c, 0, 51, 86
2, 1157796, Note_on_c, 0, 39, 88
2, 1157812, Control_c, 0, 64, 88
2, 1157824, Control_c, 0, 64, 56
2, 1157832, Control_c, 0, 64, 0
2, 1157892, Control_c, 0, 64, 24
2, 1157904, Control_c, 0, 64, 88
2, 1157912, Control_c, 0, 64, 127
2, 1157952, Note_on_c, 0, 81, 0
2, 1158040, Note_on_c, 0, 69, 0
2, 1158204, Note_on_c, 0, 78, 96
2, 1158204, Note_on_c, 0, 66, 84
2, 1158204, Note_on_c, 0, 39, 84
2, 1158204, Note_on_c, 0, 51, 83
2, 1158204, Note_on_c, 0, 60, 83
2, 1158204, Note_on_c, 0, 57, 83
2, 1158252, Note_on_c, 0, 66, 0
2, 1158280, Note_on_c, 0, 39, 0
2, 1158280, Note_on_c, 0, 51, 0
2, 1158280, Note_on_c, 0, 60, 0
2, 1158280, Note_on_c, 0, 57, 0
2, 1158288, Note_on_c, 0, 78, 0
2, 1158304, Note_on_c, 0, 60, 0
2, 1158304, Note_on_c, 0, 39, 0
2, 1158304, Note_on_c, 0, 51, 0
2, 1158304, Note_on_c, 0, 57, 0
2, 1158384, Control_c, 0, 64, 88
2, 1158388, Note_on_c, 0, 66, 0
2, 1158392, Control_c, 0, 64, 40
2, 1158400, Note_on_c, 0, 79, 95
2, 1158400, Note_on_c, 0, 67, 81
2, 1158400, Note_on_c, 0, 59, 83
2, 1158400, Note_on_c, 0, 55, 83
2, 1158400, Note_on_c, 0, 52, 83
2, 1158400, Note_on_c, 0, 40, 85
2, 1158400, Control_c, 0, 64, 0
2, 1158416, Note_on_c, 0, 84, 0
2, 1158456, Control_c, 0, 64, 24
2, 1158464, Control_c, 0, 64, 72
2, 1158472, Control_c, 0, 64, 127
2, 1158564, Note_on_c, 0, 84, 89
2, 1158572, Note_on_c, 0, 79, 0
2, 1158592, Note_on_c, 0, 83, 101
2, 1158604, Note_on_c, 0, 71, 59
2, 1158608, Note_on_c, 0, 84, 0
2, 1158636, Note_on_c, 0, 71, 0
2, 1158648, Note_on_c, 0, 83, 0
2, 1158780, Control_c, 0, 64, 88
2, 1158788, Control_c, 0, 64, 24
2, 1158796, Note_on_c, 0, 81, 103
2, 1158796, Note_on_c, 0, 69, 73
2, 1158796, Note_on_c, 0, 57, 76
2, 1158796, Note_on_c, 0, 66, 67
2, 1158796, Note_on_c, 0, 72, 76
2, 1158796, Note_on_c, 0, 60, 79
2, 1158796, Note_on_c, 0, 78, 87
2, 1158796, Control_c, 0, 64, 0
2, 1158836, Note_on_c, 0, 45, 82
2, 1158836, Note_on_c, 0, 33, 84
2, 1158840, Note_on_c, 0, 57, 0
2, 1158852, Note_on_c, 0, 66, 0
2, 1158860, Control_c, 0, 64, 56
2, 1158868, Control_c, 0, 64, 104
2, 1158876, Note_on_c, 0, 72, 0
2, 1158876, Note_on_c, 0, 72, 0
2, 1158876, Control_c, 0, 64, 127
2, 1158884, Note_on_c, 0, 52, 0
2, 1158884, Note_on_c, 0, 40, 0
2, 1158884, Note_on_c, 0, 59, 0
2, 1158884, Note_on_c, 0, 55, 0
2, 1158912, Note_on_c, 0, 60, 0
2, 1158936, Note_on_c, 0, 45, 0
2, 1158936, Note_on_c, 0, 33, 0
2, 1158948, Note_on_c, 0, 67, 0
2, 1158976, Note_on_c, 0, 78, 0
2, 1158992, Control_c, 0, 64, 88
2, 1158996, Control_c, 0, 64, 40
2, 1159004, Note_on_c, 0, 76, 88
2, 1159004, Note_on_c, 0, 59, 72
2, 1159004, Note_on_c, 0, 71, 76
2, 1159004, Note_on_c, 0, 64, 78
2, 1159004, Note_on_c, 0, 35, 84
2, 1159004, Note_on_c, 0, 47, 81
2, 1159008, Control_c, 0, 64, 0
2, 1159052, Control_c, 0, 64, 56
2, 1159060, Control_c, 0, 64, 104
2, 1159068, Control_c, 0, 64, 127
2, 1159104, Note_on_c, 0, 47, 0
2, 1159104, Note_on_c, 0, 35, 0
2, 1159140, Note_on_c, 0, 64, 0
2, 1159156, Note_on_c, 0, 76, 0
2, 1159160, Note_on_c, 0, 81, 83
2, 1159160, Note_on_c, 0, 69, 83
2, 1159184, Note_on_c, 0, 79, 99
2, 1159184, Note_on_c, 0, 67, 88
2, 1159196, Note_on_c, 0, 69, 0
2, 1159208, Note_on_c, 0, 81, 0
2, 1159232, Note_on_c, 0, 67, 0
2, 1159244, Note_on_c, 0, 69, 0
2, 1159264, Note_on_c, 0, 79, 0
2, 1159264, Note_on_c, 0, 59, 0
2, 1159284, Note_on_c, 0, 71, 0
2, 1159368, Control_c, 0, 64, 104
2, 1159376, Control_c, 0, 64, 72
2, 1159384, Note_on_c, 0, 78, 107
2, 1159384, Note_on_c, 0, 66, 80
2, 1159384, Note_on_c, 0, 59, 82
2, 1159384, Note_on_c, 0, 71, 81
2, 1159384, Note_on_c, 0, 63, 84
2, 1159384, Note_on_c, 0, 75, 78
2, 1159384, Note_on_c, 0, 47, 84
2, 1159384, Note_on_c, 0, 54, 84
2, 1159384, Control_c, 0, 64, 24
2, 1159396, Control_c, 0, 64, 0
2, 1159436, Note_on_c, 0, 63, 0
2, 1159436, Note_on_c, 0, 81, 0
2, 1159436, Note_on_c, 0, 59, 0
2, 1159440, Note_on_c, 0, 66, 0
2, 1159440, Control_c, 0, 64, 24
2, 1159448, Note_on_c, 0, 75, 0
2, 1159448, Control_c, 0, 64, 72
2, 1159456, Control_c, 0, 64, 127
2, 1159460, Note_on_c, 0, 71, 0
2, 1159480, Note_on_c, 0, 78, 0
2, 1159484, Note_on_c, 0, 47, 0
2, 1159484, Note_on_c, 0, 54, 0
2, 1159620, Note_on_c, 0, 76, 103
2, 1159620, Note_on_c, 0, 71, 85
2, 1159620, Note_on_c, 0, 64, 87
2, 1159620, Note_on_c, 0, 67, 82
2, 1159620, Note_on_c, 0, 59, 80
2, 1159620, Note_on_c, 0, 52, 82
2, 1159620, Note_on_c, 0, 40, 84
2, 1159620, Note_on_c, 0, 55, 82
2, 1159648, Control_c, 0, 64, 104
2, 1159656, Control_c, 0, 64, 72
2, 1159668, Control_c, 0, 64, 56
2, 1159676, Control_c, 0, 64, 0
2, 1159772, Control_c, 0, 64, 72
2, 1159780, Control_c, 0, 64, 127
2, 1159816, Note_on_c, 0, 71, 0
2, 1159820, Note_on_c, 0, 52, 0
2, 1159828, Note_on_c, 0, 67, 0
2, 1159844, Note_on_c, 0, 59, 0
2, 1159856, Note_on_c, 0, 64, 0
2, 1159860, Note_on_c, 0, 76, 0
2, 1160044, Note_on_c, 0, 76, 94
2, 1160044, Note_on_c, 0, 64, 78
2, 1160044, Note_on_c, 0, 55, 82
2, 1160044, Note_on_c, 0, 59, 82
2, 1160044, Note_on_c, 0, 52, 83
2, 1160044, Note_on_c, 0, 40, 84
2, 1160096, Note_on_c, 0, 64, 0
2, 1160104, Note_on_c, 0, 40, 0
2, 1160104, Note_on_c, 0, 55, 0
2, 1160108, Note_on_c, 0, 76, 0
2, 1160120, Note_on_c, 0, 78, 93
2, 1160124, Note_on_c, 0, 66, 78
2, 1160144, Note_on_c, 0, 55, 0
2, 1160144, Note_on_c, 0, 52, 0
2, 1160144, Note_on_c, 0, 40, 0
2, 1160144, Note_on_c, 0, 59, 0
2, 1160172, Note_on_c, 0, 66, 0
2, 1160192, Note_on_c, 0, 78, 0
2, 1160212, Control_c, 0, 64, 72
2, 1160216, Note_on_c, 0, 79, 99
2, 1160216, Note_on_c, 0, 73, 75
2, 1160216, Note_on_c, 0, 76, 92
2, 1160216, Note_on_c, 0, 64, 80
2, 1160216, Note_on_c, 0, 61, 77
2, 1160216, Note_on_c, 0, 70, 82
2, 1160216, Note_on_c, 0, 58, 82
2, 1160216, Note_on_c, 0, 49, 82
2, 1160216, Note_on_c, 0, 37, 84
2, 1160220, Control_c, 0, 64, 0
2, 1160228, Note_on_c, 0, 67, 81
2, 1160288, Note_on_c, 0, 73, 0
2, 1160300, Control_c, 0, 64, 40
2, 1160308, Control_c, 0, 64, 104
2, 1160316, Control_c, 0, 64, 127
2, 1160320, Note_on_c, 0, 79, 0
2, 1160428, Note_on_c, 0, 79, 97
2, 1160432, Note_on_c, 0, 67, 78
2, 1160488, Note_on_c, 0, 79, 0
2, 1160504, Note_on_c, 0, 81, 90
2, 1160516, Note_on_c, 0, 69, 78
2, 1160540, Note_on_c, 0, 69, 0
2, 1160544, Note_on_c, 0, 67, 0
2, 1160572, Note_on_c, 0, 81, 0
2, 1160592, Control_c, 0, 64, 104
2, 1160604, Note_on_c, 0, 82, 97
2, 1160604, Note_on_c, 0, 79, 91
2, 1160604, Note_on_c, 0, 64, 82
2, 1160604, Note_on_c, 0, 58, 82
2, 1160604, Note_on_c, 0, 49, 83
2, 1160604, Note_on_c, 0, 37, 83
2, 1160604, Control_c, 0, 64, 56
2, 1160612, Note_on_c, 0, 70, 80
2, 1160616, Note_on_c, 0, 67, 79
2, 1160616, Control_c, 0, 64, 0
2, 1160648, Note_on_c, 0, 79, 0
2, 1160676, Control_c, 0, 64, 72
2, 1160684, Control_c, 0, 64, 127
2, 1160704, Note_on_c, 0, 37, 0
2, 1160704, Note_on_c, 0, 64, 0
2, 1160704, Note_on_c, 0, 67, 0
2, 1160704, Note_on_c, 0, 49, 0
2, 1160704, Note_on_c, 0, 58, 0
2, 1160712, Note_on_c, 0, 70, 0
2, 1160724, Note_on_c, 0, 82, 0
2, 1160816, Note_on_c, 0, 81, 96
2, 1160816, Note_on_c, 0, 78, 90
2, 1160824, Note_on_c, 0, 69, 81
2, 1160824, Note_on_c, 0, 66, 82
2, 1160824, Note_on_c, 0, 62, 83
2, 1160824, Note_on_c, 0, 38, 84
2, 1160824, Note_on_c, 0, 50, 83
2, 1160852, Control_c, 0, 64, 104
2, 1160860, Control_c, 0, 64, 56
2, 1160868, Control_c, 0, 64, 0
2, 1160924, Note_on_c, 0, 50, 0
2, 1160924, Note_on_c, 0, 38, 0
2, 1160932, Control_c, 0, 64, 40
2, 1160940, Control_c, 0, 64, 88
2, 1160948, Control_c, 0, 64, 127
2, 1161028, Note_on_c, 0, 78, 92
2, 1161036, Note_on_c, 0, 66, 73
2, 1161056, Note_on_c, 0, 76, 0
2, 1161068, Note_on_c, 0, 78, 0
2, 1161072, Note_on_c, 0, 67, 0
2, 1161084, Note_on_c, 0, 70, 0
2, 1161084, Note_on_c, 0, 49, 0
2, 1161084, Note_on_c, 0, 37, 0
2, 1161084, Note_on_c, 0, 58, 0
2, 1161188, Note_on_c, 0, 81, 0
2, 1161196, Note_on_c, 0, 62, 78
2, 1161196, Note_on_c, 0, 74, 84
2, 1161196, Note_on_c, 0, 50, 83
2, 1161196, Note_on_c, 0, 38, 84
2, 1161196, Note_on_c, 0, 66, 82
2, 1161204, Note_on_c, 0, 78, 0
2, 1161212, Note_on_c, 0, 69, 0
2, 1161224, Note_on_c, 0, 66, 0
2, 1161236, Note_on_c, 0, 74, 0
2, 1161236, Note_on_c, 0, 62, 0
2, 1161284, Note_on_c, 0, 61, 0
2, 1161296, Note_on_c, 0, 38, 0
2, 1161296, Note_on_c, 0, 50, 0
2, 1161300, Note_on_c, 0, 64, 0
2, 1161340, Note_on_c, 0, 74, 89
2, 1161380, Note_on_c, 0, 74, 0
2, 1161380, Note_on_c, 0, 76, 88
2, 1161396, Control_c, 0, 64, 104
2, 1161404, Control_c, 0, 64, 56
2, 1161412, Note_on_c, 0, 74, 83
2, 1161412, Note_on_c, 0, 62, 81
2, 1161412, Note_on_c, 0, 59, 82
2, 1161412, Note_on_c, 0, 68, 87
2, 1161412, Note_on_c, 0, 56, 83
2, 1161412, Note_on_c, 0, 47, 82
2, 1161412, Note_on_c, 0, 35, 84
2, 1161416, Control_c, 0, 64, 0
2, 1161436, Note_on_c, 0, 76, 0
2, 1161512, Note_on_c, 0, 56, 0
2, 1161512, Note_on_c, 0, 35, 0
2, 1161512, Note_on_c, 0, 47, 0
2, 1161512, Control_c, 0, 64, 56
2, 1161520, Control_c, 0, 64, 127
2, 1161604, Note_on_c, 0, 74, 0
2, 1161608, Note_on_c, 0, 62, 0
2, 1161612, Note_on_c, 0, 73, 88
2, 1161616, Note_on_c, 0, 61, 72
2, 1161652, Note_on_c, 0, 68, 0
2, 1161684, Note_on_c, 0, 61, 0
2, 1161708, Note_on_c, 0, 66, 0
2, 1161708, Note_on_c, 0, 66, 0
2, 1161732, Note_on_c, 0, 73, 0
2, 1161744, Note_on_c, 0, 62, 0
2, 1161808, Note_on_c, 0, 74, 100
2, 1161808, Note_on_c, 0, 59, 78
2, 1161808, Note_on_c, 0, 62, 83
2, 1161808, Note_on_c, 0, 68, 79
2, 1161808, Note_on_c, 0, 56, 82
2, 1161808, Note_on_c, 0, 47, 82
2, 1161808, Note_on_c, 0, 35, 84
2, 1161808, Control_c, 0, 64, 104
2, 1161812, Control_c, 0, 64, 56
2, 1161820, Control_c, 0, 64, 0
2, 1161876, Note_on_c, 0, 59, 0
2, 1161888, Note_on_c, 0, 74, 0
2, 1161888, Control_c, 0, 64, 56
2, 1161892, Note_on_c, 0, 62, 0
2, 1161892, Note_on_c, 0, 68, 0
2, 1161896, Control_c, 0, 64, 127
2, 1161908, Note_on_c, 0, 56, 0
2, 1161908, Note_on_c, 0, 35, 0
2, 1161908, Note_on_c, 0, 47, 0
2, 1162036, Note_on_c, 0, 57, 83
2, 1162036, Note_on_c, 0, 61, 78
2, 1162036, Note_on_c, 0, 73, 87
2, 1162036, Note_on_c, 0, 69, 83
2, 1162036, Note_on_c, 0, 67, 83
2, 1162036, Note_on_c, 0, 76, 103
2, 1162036, Note_on_c, 0, 33, 84
2, 1162036, Note_on_c, 0, 45, 83
2, 1162116, Control_c, 0, 64, 72
2, 1162124, Control_c, 0, 64, 0
2, 1162292, Control_c, 0, 64, 40
2, 1162300, Control_c, 0, 64, 72
2, 1162316, Control_c, 0, 64, 56
2, 1162328, Control_c, 0, 64, 24
2, 1162336, Control_c, 0, 64, 0
2, 1162388, Control_c, 0, 64, 72
2, 1162396, Control_c, 0, 64, 127
2, 1162400, Note_on_c, 0, 59, 0
2, 1162692, Note_on_c, 0, 74, 88
2, 1162692, Note_on_c, 0, 62, 83
2, 1162692, Note_on_c, 0, 69, 83
2, 1162692, Note_on_c, 0, 57, 79
2, 1162692, Note_on_c, 0, 50, 83
2, 1162692, Note_on_c, 0, 66, 86
2, 1162692, Note_on_c, 0, 38, 84
2, 1162740, Control_c, 0, 64, 104
2, 1162748, Control_c, 0, 64, 56
2, 1162756, Control_c, 0, 64, 24
2, 1162768, Control_c, 0, 64, 0
2, 1162880, Note_on_c, 0, 57, 0
2, 1162880, Note_on_c, 0, 57, 0
2, 1162880, Note_on_c, 0, 61, 0
2, 1162900, Note_on_c, 0, 67, 0
2, 1162904, Note_on_c, 0, 33, 0
2, 1162904, Note_on_c, 0, 45, 0
2, 1162904, Control_c, 0, 64, 40
2, 1162924, Control_c, 0, 64, 56
2, 1162928, Note_on_c, 0, 73, 0
2, 1162952, Control_c, 0, 64, 72
2, 1162960, Control_c, 0, 64, 88
2, 1162968, Control_c, 0, 64, 104
2, 1162984, Control_c, 0, 64, 127
2, 1162988, Note_on_c, 0, 76, 0
2, 1163016, Note_on_c, 0, 38, 0
2, 1163016, Note_on_c, 0, 50, 0
2, 1163016, Note_on_c, 0, 66, 0
2, 1163024, Note_on_c, 0, 62, 0
2, 1163024, Note_on_c, 0, 74, 0
2, 1163028, Note_on_c, 0, 69, 0
2, 1163028, Note_on_c, 0, 69, 0
2, 1163072, Control_c, 0, 64, 104
2, 1163080, Control_c, 0, 64, 88
2, 1163092, Control_c, 0, 64, 72
2, 1163100, Control_c, 0, 64, 56
2, 1163108, Control_c, 0, 64, 24
2, 1163116, Control_c, 0, 64, 0
2, 1163172, Note_on_c, 0, 78, 75
2, 1163172, Note_on_c, 0, 74, 67
2, 1163172, Note_on_c, 0, 71, 70
2, 1163180, Control_c, 0, 64, 127
2, 1163280, Note_on_c, 0, 79, 86
2, 1163292, Note_on_c, 0, 78, 0
2, 1163348, Note_on_c, 0, 79, 0
2, 1163376, Note_on_c, 0, 74, 0
2, 1163376, Note_on_c, 0, 78, 89
2, 1163448, Note_on_c, 0, 78, 0
2, 1163476, Note_on_c, 0, 86, 90
2, 1163480, Note_on_c, 0, 71, 0
2, 1163552, Control_c, 0, 64, 104
2, 1163556, Note_on_c, 0, 86, 0
2, 1163564, Control_c, 0, 64, 40
2, 1163576, Note_on_c, 0, 73, 66
2, 1163576, Note_on_c, 0, 85, 84
2, 1163580, Control_c, 0, 64, 0
2, 1163588, Note_on_c, 0, 69, 69
2, 1163612, Control_c, 0, 64, 40
2, 1163628, Control_c, 0, 64, 88
2, 1163640, Control_c, 0, 64, 127
2, 1163660, Note_on_c, 0, 85, 0
2, 1163676, Note_on_c, 0, 78, 86
2, 1163712, Note_on_c, 0, 69, 0
2, 1163736, Control_c, 0, 64, 72
2, 1163744, Note_on_c, 0, 73, 0
2, 1163752, Control_c, 0, 64, 0
2, 1163756, Note_on_c, 0, 78, 0
2, 1163768, Note_on_c, 0, 71, 67
2, 1163776, Note_on_c, 0, 68, 69
2, 1163776, Control_c, 0, 64, 24
2, 1163784, Note_on_c, 0, 77, 84
2, 1163788, Control_c, 0, 64, 72
2, 1163800, Control_c, 0, 64, 104
2, 1163812, Control_c, 0, 64, 127
2, 1163824, Note_on_c, 0, 71, 0
2, 1163828, Note_on_c, 0, 68, 0
2, 1163852, Note_on_c, 0, 77, 0
2, 1163876, Note_on_c, 0, 83, 85
2, 1163956, Note_on_c, 0, 83, 0
2, 1163960, Control_c, 0, 64, 88
2, 1163972, Control_c, 0, 64, 24
2, 1163984, Note_on_c, 0, 81, 85
2, 1163984, Note_on_c, 0, 66, 72
2, 1163984, Note_on_c, 0, 69, 69
2, 1163984, Note_on_c, 0, 78, 78
2, 1163984, Note_on_c, 0, 54, 71
2, 1163988, Control_c, 0, 64, 0
2, 1164024, Control_c, 0, 64, 40
2, 1164036, Control_c, 0, 64, 72
2, 1164044, Control_c, 0, 64, 127
2, 1164080, Note_on_c, 0, 81, 0
2, 1164088, Note_on_c, 0, 78, 83
2, 1164148, Note_on_c, 0, 78, 0
2, 1164148, Note_on_c, 0, 69, 0
2, 1164164, Note_on_c, 0, 66, 0
2, 1164164, Note_on_c, 0, 54, 0
2, 1164172, Control_c, 0, 64, 104
2, 1164176, Note_on_c, 0, 78, 0
2, 1164184, Control_c, 0, 64, 0
2, 1164192, Note_on_c, 0, 77, 85
2, 1164192, Note_on_c, 0, 61, 69
2, 1164192, Note_on_c, 0, 68, 67
2, 1164192, Note_on_c, 0, 80, 69
2, 1164192, Note_on_c, 0, 65, 73
2, 1164192, Note_on_c, 0, 49, 70
2, 1164260, Control_c, 0, 64, 40
2, 1164272, Control_c, 0, 64, 104
2, 1164280, Control_c, 0, 64, 127
2, 1164292, Note_on_c, 0, 77, 0
2, 1164300, Note_on_c, 0, 80, 83
2, 1164332, Control_c, 0, 64, 72
2, 1164344, Control_c, 0, 64, 0
2, 1164360, Note_on_c, 0, 80, 0
2, 1164360, Note_on_c, 0, 68, 0
2, 1164368, Note_on_c, 0, 61, 0
2, 1164372, Note_on_c, 0, 49, 0
2, 1164372, Note_on_c, 0, 65, 0
2, 1164392, Note_on_c, 0, 80, 0
2, 1164408, Note_on_c, 0, 78, 85
2, 1164408, Control_c, 0, 64, 40
2, 1164416, Note_on_c, 0, 66, 70
2, 1164416, Note_on_c, 0, 54, 77
2, 1164420, Control_c, 0, 64, 72
2, 1164424, Note_on_c, 0, 69, 69
2, 1164432, Control_c, 0, 64, 104
2, 1164444, Control_c, 0, 64, 127
2, 1164456, Note_on_c, 0, 69, 0
2, 1164476, Note_on_c, 0, 78, 0
2, 1164480, Note_on_c, 0, 66, 0
2, 1164496, Note_on_c, 0, 73, 82
2, 1164564, Note_on_c, 0, 73, 0
2, 1164592, Control_c, 0, 64, 88
2, 1164596, Note_on_c, 0, 54, 0
2, 1164604, Control_c, 0, 64, 0
2, 1164632, Note_on_c, 0, 78, 92
2, 1164632, Note_on_c, 0, 74, 68
2, 1164632, Note_on_c, 0, 71, 69
2, 1164680, Control_c, 0, 64, 24
2, 1164692, Control_c, 0, 64, 88
2, 1164704, Control_c, 0, 64, 127
2, 1164716, Note_on_c, 0, 74, 0
2, 1164716, Note_on_c, 0, 78, 0
2, 1164736, Note_on_c, 0, 86, 98
2, 1164776, Note_on_c, 0, 71, 0
2, 1164816, Note_on_c, 0, 86, 0
2, 1164828, Control_c, 0, 64, 56
2, 1164840, Note_on_c, 0, 85, 87
2, 1164840, Note_on_c, 0, 73, 70
2, 1164840, Note_on_c, 0, 69, 68
2, 1164840, Control_c, 0, 64, 0
2, 1164880, Control_c, 0, 64, 72
2, 1164892, Control_c, 0, 64, 127
2, 1164928, Note_on_c, 0, 85, 0
2, 1164940, Note_on_c, 0, 78, 92
2, 1164976, Note_on_c, 0, 69, 0
2, 1165012, Control_c, 0, 64, 72
2, 1165028, Control_c, 0, 64, 0
2, 1165032, Note_on_c, 0, 78, 0
2, 1165040, Note_on_c, 0, 73, 0
2, 1165044, Note_on_c, 0, 71, 69
2, 1165044, Note_on_c, 0, 77, 93
2, 1165044, Note_on_c, 0, 68, 71
2, 1165076, Control_c, 0, 64, 40
2, 1165092, Control_c, 0, 64, 88
2, 1165096, Note_on_c, 0, 71, 0
2, 1165100, Note_on_c, 0, 68, 0
2, 1165104, Control_c, 0, 64, 127
2, 1165144, Note_on_c, 0, 83, 91
2, 1165172, Note_on_c, 0, 77, 0
2, 1165236, Note_on_c, 0, 83, 0
2, 1165244, Note_on_c, 0, 69, 68
2, 1165244, Note_on_c, 0, 81, 93
2, 1165244, Note_on_c, 0, 78, 70
2, 1165244, Control_c, 0, 64, 40
2, 1165264, Note_on_c, 0, 66, 73
2, 1165264, Note_on_c, 0, 54, 70
2, 1165264, Control_c, 0, 64, 0
2, 1165300, Control_c, 0, 64, 40
2, 1165312, Control_c, 0, 64, 88
2, 1165328, Control_c, 0, 64, 127
2, 1165352, Note_on_c, 0, 78, 91
2, 1165356, Note_on_c, 0, 81, 0
2, 1165376, Note_on_c, 0, 78, 0
2, 1165392, Note_on_c, 0, 69, 0
2, 1165444, Note_on_c, 0, 54, 0
2, 1165448, Note_on_c, 0, 78, 0
2, 1165456, Note_on_c, 0, 66, 0
2, 1165460, Note_on_c, 0, 77, 88
2, 1165460, Note_on_c, 0, 80, 70
2, 1165472, Control_c, 0, 64, 88
2, 1165484, Control_c, 0, 64, 0
2, 1165492, Note_on_c, 0, 68, 67
2, 1165500, Note_on_c, 0, 61, 69
2, 1165500, Note_on_c, 0, 49, 73
2, 1165500, Note_on_c, 0, 65, 69
2, 1165544, Note_on_c, 0, 77, 0
2, 1165548, Control_c, 0, 64, 56
2, 1165560, Control_c, 0, 64, 104
2, 1165568, Note_on_c, 0, 80, 83
2, 1165572, Control_c, 0, 64, 127
2, 1165628, Note_on_c, 0, 80, 0
2, 1165648, Control_c, 0, 64, 56
2, 1165660, Note_on_c, 0, 68, 0
2, 1165660, Control_c, 0, 64, 24
2, 1165668, Note_on_c, 0, 80, 0
2, 1165672, Control_c, 0, 64, 40
2, 1165680, Note_on_c, 0, 65, 0
2, 1165680, Note_on_c, 0, 49, 0
2, 1165680, Control_c, 0, 64, 72
2, 1165688, Note_on_c, 0, 61, 0
2, 1165688, Note_on_c, 0, 78, 86
2, 1165688, Note_on_c, 0, 66, 68
2, 1165696, Control_c, 0, 64, 104
2, 1165700, Note_on_c, 0, 69, 70
2, 1165700, Note_on_c, 0, 54, 76
2, 1165708, Control_c, 0, 64, 127
2, 1165724, Note_on_c, 0, 66, 0
2, 1165732, Note_on_c, 0, 69, 0
2, 1165784, Note_on_c, 0, 78, 0
2, 1165784, Note_on_c, 0, 73, 77
2, 1165844, Note_on_c, 0, 73, 0
2, 1165880, Note_on_c, 0, 54, 0
2, 1165884, Control_c, 0, 64, 72
2, 1165896, Control_c, 0, 64, 0
2, 1165916, Note_on_c, 0, 69, 89
2, 1165932, Note_on_c, 0, 51, 83
2, 1165944, Control_c, 0, 64, 56
2, 1165956, Control_c, 0, 64, 127
2, 1166028, Note_on_c, 0, 69, 0
2, 1166036, Note_on_c, 0, 72, 88
2, 1166080, Note_on_c, 0, 72, 0
2, 1166144, Note_on_c, 0, 69, 78
2, 1166148, Note_on_c, 0, 77, 93
2, 1166200, Note_on_c, 0, 69, 0
2, 1166212, Note_on_c, 0, 77, 0
2, 1166240, Note_on_c, 0, 78, 92
2, 1166324, Note_on_c, 0, 78, 0
2, 1166348, Note_on_c, 0, 80, 96
2, 1166352, Note_on_c, 0, 51, 78
2, 1166384, Note_on_c, 0, 51, 0
2, 1166416, Note_on_c, 0, 80, 0
2, 1166436, Note_on_c, 0, 81, 92
2, 1166512, Note_on_c, 0, 81, 0
2, 1166540, Control_c, 0, 64, 24
2, 1166552, Control_c, 0, 64, 0
2, 1166556, Note_on_c, 0, 85, 98
2, 1166556, Note_on_c, 0, 52, 82
2, 1166556, Note_on_c, 0, 61, 68
2, 1166556, Note_on_c, 0, 64, 68
2, 1166556, Note_on_c, 0, 69, 68
2, 1166616, Control_c, 0, 64, 56
2, 1166628, Control_c, 0, 64, 127
2, 1166664, Note_on_c, 0, 80, 90
2, 1166688, Note_on_c, 0, 85, 0
2, 1166744, Note_on_c, 0, 51, 0
2, 1166756, Note_on_c, 0, 80, 0
2, 1166776, Note_on_c, 0, 69, 78
2, 1166780, Note_on_c, 0, 61, 69
2, 1166784, Note_on_c, 0, 81, 95
2, 1166804, Note_on_c, 0, 69, 0
2, 1166828, Note_on_c, 0, 61, 0
2, 1166832, Note_on_c, 0, 81, 0
2, 1166880, Note_on_c, 0, 75, 80
2, 1166940, Note_on_c, 0, 75, 0
2, 1166940, Note_on_c, 0, 64, 0
2, 1166940, Note_on_c, 0, 61, 0
2, 1166980, Note_on_c, 0, 78, 85
2, 1166984, Note_on_c, 0, 52, 73
2, 1167044, Note_on_c, 0, 52, 0
2, 1167056, Note_on_c, 0, 78, 0
2, 1167080, Note_on_c, 0, 76, 93
2, 1167136, Control_c, 0, 64, 40
2, 1167148, Control_c, 0, 64, 0
2, 1167152, Note_on_c, 0, 76, 0
2, 1167192, Note_on_c, 0, 74, 88
2, 1167196, Note_on_c, 0, 54, 82
2, 1167220, Control_c, 0, 64, 127
2, 1167292, Note_on_c, 0, 78, 85
2, 1167300, Note_on_c, 0, 74, 0
2, 1167372, Note_on_c, 0, 52, 0
2, 1167388, Note_on_c, 0, 80, 88
2, 1167392, Note_on_c, 0, 69, 71
2, 1167400, Note_on_c, 0, 78, 0
2, 1167412, Note_on_c, 0, 62, 68
2, 1167444, Note_on_c, 0, 80, 0
2, 1167452, Note_on_c, 0, 69, 0
2, 1167480, Note_on_c, 0, 81, 98
2, 1167556, Note_on_c, 0, 62, 0
2, 1167576, Note_on_c, 0, 81, 0
2, 1167592, Note_on_c, 0, 85, 101
2, 1167604, Note_on_c, 0, 54, 79
2, 1167676, Note_on_c, 0, 85, 0
2, 1167688, Note_on_c, 0, 54, 0
2, 1167692, Note_on_c, 0, 86, 102
2, 1167712, Note_on_c, 0, 69, 0
2, 1167768, Control_c, 0, 64, 88
2, 1167780, Control_c, 0, 64, 0
2, 1167812, Note_on_c, 0, 90, 106
2, 1167812, Note_on_c, 0, 56, 85
2, 1167812, Note_on_c, 0, 64, 73
2, 1167812, Note_on_c, 0, 71, 71
2, 1167812, Note_on_c, 0, 74, 74
2, 1167824, Note_on_c, 0, 86, 0
2, 1167852, Control_c, 0, 64, 88
2, 1167864, Control_c, 0, 64, 127
2, 1167928, Note_on_c, 0, 88, 103
2, 1167996, Note_on_c, 0, 90, 0
2, 1168032, Note_on_c, 0, 64, 73
2, 1168032, Note_on_c, 0, 87, 103
2, 1168044, Note_on_c, 0, 74, 74
2, 1168052, Note_on_c, 0, 54, 0
2, 1168052, Note_on_c, 0, 71, 72
2, 1168056, Note_on_c, 0, 88, 0
2, 1168076, Note_on_c, 0, 71, 0
2, 1168092, Note_on_c, 0, 74, 0
2, 1168104, Note_on_c, 0, 64, 0
2, 1168128, Note_on_c, 0, 87, 0
2, 1168128, Note_on_c, 0, 86, 98
2, 1168196, Note_on_c, 0, 71, 0
2, 1168196, Note_on_c, 0, 64, 0
2, 1168196, Note_on_c, 0, 74, 0
2, 1168200, Note_on_c, 0, 86, 0
2, 1168244, Note_on_c, 0, 56, 0
2, 1168248, Note_on_c, 0, 85, 95
2, 1168248, Note_on_c, 0, 56, 80
2, 1168304, Note_on_c, 0, 56, 0
2, 1168336, Note_on_c, 0, 85, 0
2, 1168344, Note_on_c, 0, 83, 94
2, 1168432, Note_on_c, 0, 83, 0
2, 1168476, Note_on_c, 0, 85, 96
2, 1168476, Note_on_c, 0, 57, 83
2, 1168476, Note_on_c, 0, 73, 73
2, 1168476, Note_on_c, 0, 69, 72
2, 1168512, Control_c, 0, 64, 56
2, 1168524, Control_c, 0, 64, 0
2, 1168636, Control_c, 0, 64, 40
2, 1168648, Control_c, 0, 64, 88
2, 1168660, Control_c, 0, 64, 127
2, 1168672, Note_on_c, 0, 69, 0
2, 1168672, Note_on_c, 0, 73, 0
2, 1168704, Note_on_c, 0, 85, 0
2, 1168704, Note_on_c, 0, 73, 80
2, 1168704, Note_on_c, 0, 65, 71
2, 1168764, Note_on_c, 0, 57, 0
2, 1168812, Note_on_c, 0, 83, 87
2, 1168860, Note_on_c, 0, 73, 0
2, 1168892, Note_on_c, 0, 83, 0
2, 1168912, Note_on_c, 0, 65, 0
2, 1168920, Note_on_c, 0, 66, 73
2, 1168924, Note_on_c, 0, 81, 88
2, 1169012, Note_on_c, 0, 81, 0
2, 1169020, Note_on_c, 0, 78, 85
2, 1169120, Note_on_c, 0, 78, 0
2, 1169124, Note_on_c, 0, 66, 0
2, 1169128, Note_on_c, 0, 77, 88
2, 1169132, Control_c, 0, 64, 72
2, 1169136, Note_on_c, 0, 68, 74
2, 1169144, Control_c, 0, 64, 0
2, 1169180, Control_c, 0, 64, 24
2, 1169192, Control_c, 0, 64, 72
2, 1169204, Control_c, 0, 64, 127
2, 1169220, Note_on_c, 0, 77, 0
2, 1169220, Note_on_c, 0, 80, 85
2, 1169292, Control_c, 0, 64, 72
2, 1169304, Control_c, 0, 64, 0
2, 1169328, Note_on_c, 0, 78, 85
2, 1169332, Note_on_c, 0, 80, 0
2, 1169332, Note_on_c, 0, 68, 0
2, 1169332, Control_c, 0, 64, 24
2, 1169340, Control_c, 0, 64, 56
2, 1169344, Note_on_c, 0, 69, 79
2, 1169352, Control_c, 0, 64, 104
2, 1169368, Control_c, 0, 64, 127
2, 1169404, Note_on_c, 0, 78, 0
2, 1169428, Note_on_c, 0, 73, 75
2, 1169460, Note_on_c, 0, 73, 0
2, 1169480, Note_on_c, 0, 72, 47
2, 1169500, Note_on_c, 0, 72, 0
2, 1169504, Note_on_c, 0, 69, 0
2, 1169504, Control_c, 0, 64, 88
2, 1169516, Control_c, 0, 64, 0
2, 1169536, Note_on_c, 0, 76, 85
2, 1169548, Note_on_c, 0, 58, 74
2, 1169600, Control_c, 0, 64, 56
2, 1169612, Control_c, 0, 64, 104
2, 1169628, Note_on_c, 0, 76, 0
2, 1169628, Control_c, 0, 64, 127
2, 1169632, Note_on_c, 0, 73, 82
2, 1169720, Note_on_c, 0, 73, 0
2, 1169720, Note_on_c, 0, 58, 0
2, 1169728, Control_c, 0, 64, 40
2, 1169736, Note_on_c, 0, 59, 76
2, 1169740, Note_on_c, 0, 74, 89
2, 1169740, Control_c, 0, 64, 0
2, 1169784, Control_c, 0, 64, 24
2, 1169800, Control_c, 0, 64, 56
2, 1169812, Control_c, 0, 64, 88
2, 1169824, Control_c, 0, 64, 127
2, 1169836, Note_on_c, 0, 74, 0
2, 1169844, Note_on_c, 0, 71, 83
2, 1169888, Control_c, 0, 64, 56
2, 1169900, Control_c, 0, 64, 0
2, 1169924, Note_on_c, 0, 59, 0
2, 1169932, Note_on_c, 0, 71, 0
2, 1169948, Note_on_c, 0, 70, 83
2, 1169952, Note_on_c, 0, 61, 77
2, 1169976, Control_c, 0, 64, 56
2, 1169988, Control_c, 0, 64, 104
2, 1170000, Control_c, 0, 64, 127
2, 1170040, Note_on_c, 0, 73, 80
2, 1170044, Note_on_c, 0, 70, 0
2, 1170072, Control_c, 0, 64, 72
2, 1170084, Control_c, 0, 64, 24
2, 1170100, Control_c, 0, 64, 0
2, 1170148, Note_on_c, 0, 71, 83
2, 1170160, Note_on_c, 0, 62, 78
2, 1170160, Control_c, 0, 64, 40
2, 1170164, Note_on_c, 0, 73, 0
2, 1170172, Control_c, 0, 64, 88
2, 1170176, Note_on_c, 0, 61, 0
2, 1170184, Control_c, 0, 64, 127
2, 1170188, Note_on_c, 0, 62, 0
2, 1170232, Note_on_c, 0, 71, 0
2, 1170252, Note_on_c, 0, 66, 80
2, 1170292, Note_on_c, 0, 66, 0
2, 1170336, Control_c, 0, 64, 104
2, 1170348, Note_on_c, 0, 51, 78
2, 1170348, Control_c, 0, 64, 40
2, 1170360, Note_on_c, 0, 69, 84
2, 1170360, Control_c, 0, 64, 0
2, 1170420, Control_c, 0, 64, 72
2, 1170432, Control_c, 0, 64, 127
2, 1170440, Note_on_c, 0, 69, 0
2, 1170456, Note_on_c, 0, 66, 78
2, 1170532, Control_c, 0, 64, 56
2, 1170540, Note_on_c, 0, 66, 0
2, 1170540, Note_on_c, 0, 51, 0
2, 1170544, Control_c, 0, 64, 0
2, 1170564, Note_on_c, 0, 68, 80
2, 1170564, Note_on_c, 0, 52, 79
2, 1170608, Control_c, 0, 64, 24
2, 1170620, Control_c, 0, 64, 72
2, 1170632, Control_c, 0, 64, 127
2, 1170652, Note_on_c, 0, 68, 0
2, 1170668, Note_on_c, 0, 64, 84
2, 1170732, Control_c, 0, 64, 104
2, 1170744, Control_c, 0, 64, 56
2, 1170756, Control_c, 0, 64, 0
2, 1170760, Note_on_c, 0, 52, 0
2, 1170764, Note_on_c, 0, 64, 0
2, 1170776, Note_on_c, 0, 66, 80
2, 1170776, Note_on_c, 0, 56, 81
2, 1170776, Note_on_c, 0, 62, 69
2, 1170828, Control_c, 0, 64, 56
2, 1170844, Control_c, 0, 64, 104
2, 1170856, Control_c, 0, 64, 127
2, 1170864, Note_on_c, 0, 62, 0
2, 1170876, Note_on_c, 0, 66, 0
2, 1170880, Note_on_c, 0, 62, 78
2, 1170916, Control_c, 0, 64, 56
2, 1170928, Control_c, 0, 64, 0
2, 1170956, Note_on_c, 0, 56, 0
2, 1170980, Note_on_c, 0, 61, 83
2, 1170980, Note_on_c, 0, 57, 83
2, 1170980, Note_on_c, 0, 64, 70
2, 1170984, Note_on_c, 0, 62, 0
2, 1171004, Control_c, 0, 64, 72
2, 1171016, Control_c, 0, 64, 127
2, 1171028, Note_on_c, 0, 61, 0
2, 1171068, Note_on_c, 0, 64, 0
2, 1171100, Note_on_c, 0, 73, 79
2, 1171140, Control_c, 0, 64, 88
2, 1171152, Control_c, 0, 64, 24
2, 1171156, Note_on_c, 0, 57, 0
2, 1171164, Control_c, 0, 64, 0
2, 1171172, Note_on_c, 0, 73, 0
2, 1171196, Note_on_c, 0, 53, 79
2, 1171200, Note_on_c, 0, 71, 83
2, 1171240, Control_c, 0, 64, 56
2, 1171252, Control_c, 0, 64, 127
2, 1171296, Note_on_c, 0, 68, 84
2, 1171304, Note_on_c, 0, 71, 0
2, 1171348, Control_c, 0, 64, 72
2, 1171360, Control_c, 0, 64, 24
2, 1171376, Control_c, 0, 64, 0
2, 1171384, Note_on_c, 0, 68, 0
2, 1171384, Note_on_c, 0, 53, 0
2, 1171392, Note_on_c, 0, 66, 83
2, 1171392, Note_on_c, 0, 54, 80
2, 1171464, Control_c, 0, 64, 40
2, 1171472, Note_on_c, 0, 66, 0
2, 1171476, Control_c, 0, 64, 72
2, 1171504, Note_on_c, 0, 69, 85
2, 1171524, Control_c, 0, 64, 40
2, 1171548, Control_c, 0, 64, 0
2, 1171596, Note_on_c, 0, 56, 82
2, 1171600, Note_on_c, 0, 68, 91
2, 1171604, Note_on_c, 0, 54, 0
2, 1171616, Note_on_c, 0, 69, 0
2, 1171696, Control_c, 0, 64, 40
2, 1171700, Note_on_c, 0, 68, 0
2, 1171700, Note_on_c, 0, 65, 83
2, 1171712, Control_c, 0, 64, 72
2, 1171724, Control_c, 0, 64, 88
2, 1171760, Control_c, 0, 64, 56
2, 1171776, Note_on_c, 0, 65, 0
2, 1171796, Note_on_c, 0, 56, 0
2, 1171800, Note_on_c, 0, 66, 87
2, 1171808, Note_on_c, 0, 57, 83
2, 1171820, Control_c, 0, 64, 72
2, 1171832, Control_c, 0, 64, 88
2, 1171848, Control_c, 0, 64, 104
2, 1171872, Control_c, 0, 64, 127
2, 1171896, Note_on_c, 0, 66, 0
2, 1171912, Note_on_c, 0, 61, 88
2, 1171944, Note_on_c, 0, 57, 0
2, 1171948, Control_c, 0, 64, 88
2, 1171956, Control_c, 0, 64, 56
2, 1171968, Control_c, 0, 64, 0
2, 1171996, Note_on_c, 0, 46, 79
2, 1172000, Note_on_c, 0, 61, 0
2, 1172012, Note_on_c, 0, 64, 82
2, 1172104, Note_on_c, 0, 64, 0
2, 1172104, Note_on_c, 0, 61, 85
2, 1172196, Note_on_c, 0, 61, 0
2, 1172212, Note_on_c, 0, 46, 0
2, 1172212, Note_on_c, 0, 62, 84
2, 1172216, Note_on_c, 0, 47, 81
2, 1172320, Note_on_c, 0, 59, 87
2, 1172324, Note_on_c, 0, 62, 0
2, 1172420, Note_on_c, 0, 58, 91
2, 1172424, Note_on_c, 0, 59, 0
2, 1172424, Note_on_c, 0, 49, 83
2, 1172432, Note_on_c, 0, 47, 0
2, 1172520, Note_on_c, 0, 61, 85
2, 1172528, Note_on_c, 0, 58, 0
2, 1172628, Note_on_c, 0, 49, 0
2, 1172636, Note_on_c, 0, 59, 86
2, 1172636, Note_on_c, 0, 50, 87
2, 1172656, Note_on_c, 0, 61, 0
2, 1172716, Note_on_c, 0, 59, 0
2, 1172736, Note_on_c, 0, 54, 87
2, 1172808, Note_on_c, 0, 54, 0
2, 1172848, Note_on_c, 0, 57, 92
2, 1172872, Note_on_c, 0, 50, 0
2, 1172936, Note_on_c, 0, 54, 96
2, 1172940, Note_on_c, 0, 57, 0
2, 1172956, Note_on_c, 0, 39, 84
2, 1173024, Note_on_c, 0, 39, 0
2, 1173032, Note_on_c, 0, 54, 0
2, 1173056, Note_on_c, 0, 56, 91
2, 1173064, Note_on_c, 0, 40, 86
2, 1173164, Note_on_c, 0, 52, 93
2, 1173172, Note_on_c, 0, 56, 0
2, 1173244, Note_on_c, 0, 40, 0
2, 1173264, Note_on_c, 0, 54, 87
2, 1173264, Note_on_c, 0, 44, 87
2, 1173264, Note_on_c, 0, 56, 73
2, 1173264, Note_on_c, 0, 62, 73
2, 1173264, Note_on_c, 0, 66, 75
2, 1173276, Note_on_c, 0, 52, 0
2, 1173332, Control_c, 0, 64, 24
2, 1173344, Note_on_c, 0, 54, 0
2, 1173344, Control_c, 0, 64, 40
2, 1173356, Note_on_c, 0, 50, 90
2, 1173384, Control_c, 0, 64, 0
2, 1173448, Note_on_c, 0, 44, 0
2, 1173464, Note_on_c, 0, 50, 0
2, 1173468, Note_on_c, 0, 62, 0
2, 1173476, Note_on_c, 0, 56, 0
2, 1173480, Note_on_c, 0, 49, 86
2, 1173480, Note_on_c, 0, 45, 89
2, 1173480, Note_on_c, 0, 64, 76
2, 1173480, Note_on_c, 0, 61, 74
2, 1173480, Note_on_c, 0, 57, 74
2, 1173488, Note_on_c, 0, 66, 0
2, 1173532, Control_c, 0, 64, 56
2, 1173536, Note_on_c, 0, 49, 0
2, 1173544, Control_c, 0, 64, 127
2, 1173604, Note_on_c, 0, 52, 82
2, 1173660, Note_on_c, 0, 52, 0
2, 1173712, Note_on_c, 0, 57, 83
2, 1173812, Note_on_c, 0, 45, 0
2, 1173812, Note_on_c, 0, 57, 0
2, 1173820, Note_on_c, 0, 61, 85
2, 1173824, Note_on_c, 0, 64, 0
2, 1173824, Note_on_c, 0, 57, 0
2, 1173824, Note_on_c, 0, 61, 0
2, 1173884, Note_on_c, 0, 61, 0
2, 1173916, Note_on_c, 0, 64, 87
2, 1173988, Note_on_c, 0, 64, 0
2, 1174024, Note_on_c, 0, 69, 89
2, 1174116, Note_on_c, 0, 69, 0
2, 1174128, Note_on_c, 0, 54, 93
2, 1174128, Note_on_c, 0, 63, 88
2, 1174128, Note_on_c, 0, 69, 76
2, 1174128, Control_c, 0, 64, 88
2, 1174132, Note_on_c, 0, 42, 87
2, 1174140, Control_c, 0, 64, 0
2, 1174212, Control_c, 0, 64, 127
2, 1174244, Note_on_c, 0, 66, 88
2, 1174280, Note_on_c, 0, 66, 0
2, 1174340, Note_on_c, 0, 69, 88
2, 1174408, Note_on_c, 0, 69, 0
2, 1174444, Note_on_c, 0, 75, 89
2, 1174552, Note_on_c, 0, 78, 90
2, 1174576, Note_on_c, 0, 75, 0
2, 1174588, Note_on_c, 0, 69, 0
2, 1174592, Note_on_c, 0, 54, 0
2, 1174632, Note_on_c, 0, 63, 0
2, 1174652, Note_on_c, 0, 81, 90
2, 1174664, Note_on_c, 0, 78, 0
2, 1174696, Note_on_c, 0, 81, 0
2, 1174704, Note_on_c, 0, 42, 0
2, 1174764, Note_on_c, 0, 80, 99
2, 1174764, Note_on_c, 0, 40, 88
2, 1174764, Note_on_c, 0, 52, 84
2, 1174764, Note_on_c, 0, 68, 79
2, 1174764, Note_on_c, 0, 64, 77
2, 1174796, Control_c, 0, 64, 104
2, 1174808, Control_c, 0, 64, 24
2, 1174820, Control_c, 0, 64, 0
2, 1174840, Note_on_c, 0, 80, 0
2, 1174876, Note_on_c, 0, 86, 93
2, 1174908, Control_c, 0, 64, 127
2, 1174972, Note_on_c, 0, 83, 92
2, 1174980, Note_on_c, 0, 86, 0
2, 1175080, Note_on_c, 0, 80, 89
2, 1175136, Note_on_c, 0, 83, 0
2, 1175152, Note_on_c, 0, 52, 0
2, 1175168, Note_on_c, 0, 80, 0
2, 1175176, Note_on_c, 0, 40, 0
2, 1175180, Note_on_c, 0, 74, 86
2, 1175192, Note_on_c, 0, 64, 0
2, 1175192, Note_on_c, 0, 68, 0
2, 1175276, Note_on_c, 0, 71, 83
2, 1175280, Note_on_c, 0, 74, 0
2, 1175356, Note_on_c, 0, 71, 0
2, 1175388, Note_on_c, 0, 73, 91
2, 1175388, Note_on_c, 0, 34, 86
2, 1175388, Note_on_c, 0, 46, 80
2, 1175388, Note_on_c, 0, 61, 76
2, 1175388, Note_on_c, 0, 67, 76
2, 1175428, Control_c, 0, 64, 72
2, 1175440, Control_c, 0, 64, 0
2, 1175508, Note_on_c, 0, 79, 93
2, 1175516, Control_c, 0, 64, 104
2, 1175528, Control_c, 0, 64, 127
2, 1175540, Note_on_c, 0, 73, 0
2, 1175596, Note_on_c, 0, 79, 0
2, 1175604, Note_on_c, 0, 76, 90
2, 1175700, Note_on_c, 0, 73, 89
2, 1175740, Note_on_c, 0, 76, 0
2, 1175800, Note_on_c, 0, 73, 0
2, 1175804, Note_on_c, 0, 67, 88
2, 1175816, Note_on_c, 0, 67, 0
2, 1175816, Note_on_c, 0, 61, 0
2, 1175864, Note_on_c, 0, 46, 0
2, 1175872, Note_on_c, 0, 67, 0
2, 1175900, Note_on_c, 0, 64, 87
2, 1175908, Note_on_c, 0, 34, 0
2, 1175948, Note_on_c, 0, 64, 0
2, 1176060, Note_on_c, 0, 50, 88
2, 1176060, Note_on_c, 0, 35, 88
2, 1176060, Note_on_c, 0, 47, 83
2, 1176060, Note_on_c, 0, 62, 78
2, 1176060, Note_on_c, 0, 66, 79
2, 1176084, Control_c, 0, 64, 72
2, 1176096, Control_c, 0, 64, 0
2, 1176160, Control_c, 0, 64, 88
2, 1176164, Note_on_c, 0, 54, 86
2, 1176172, Control_c, 0, 64, 127
2, 1176212, Note_on_c, 0, 50, 0
2, 1176280, Note_on_c, 0, 59, 87
2, 1176292, Note_on_c, 0, 54, 0
2, 1176324, Note_on_c, 0, 59, 0
2, 1176348, Note_on_c, 0, 35, 0
2, 1176384, Note_on_c, 0, 62, 88
2, 1176392, Note_on_c, 0, 47, 0
2, 1176472, Note_on_c, 0, 66, 88
2, 1176488, Note_on_c, 0, 66, 0
2, 1176488, Note_on_c, 0, 62, 0
2, 1176488, Note_on_c, 0, 62, 0
2, 1176568, Note_on_c, 0, 66, 0
2, 1176576, Note_on_c, 0, 71, 90
2, 1176660, Note_on_c, 0, 71, 0
2, 1176684, Note_on_c, 0, 61, 97
2, 1176684, Note_on_c, 0, 55, 83
2, 1176684, Note_on_c, 0, 43, 88
2, 1176684, Note_on_c, 0, 65, 78
2, 1176684, Note_on_c, 0, 71, 80
2, 1176704, Control_c, 0, 64, 72
2, 1176720, Control_c, 0, 64, 0
2, 1176780, Control_c, 0, 64, 127
2, 1176804, Note_on_c, 0, 65, 87
2, 1176840, Note_on_c, 0, 61, 0
2, 1176900, Note_on_c, 0, 71, 88
2, 1176904, Note_on_c, 0, 65, 0
2, 1176948, Note_on_c, 0, 71, 0
2, 1177000, Note_on_c, 0, 73, 88
2, 1177072, Note_on_c, 0, 73, 0
2, 1177084, Note_on_c, 0, 43, 0
2, 1177104, Note_on_c, 0, 77, 89
2, 1177112, Note_on_c, 0, 71, 0
2, 1177112, Note_on_c, 0, 65, 0
2, 1177128, Note_on_c, 0, 55, 0
2, 1177188, Note_on_c, 0, 77, 0
2, 1177196, Note_on_c, 0, 83, 90
2, 1177256, Note_on_c, 0, 83, 0
2, 1177308, Note_on_c, 0, 82, 101
2, 1177308, Note_on_c, 0, 42, 87
2, 1177308, Note_on_c, 0, 54, 85
2, 1177308, Note_on_c, 0, 70, 78
2, 1177308, Note_on_c, 0, 66, 77
2, 1177376, Control_c, 0, 64, 56
2, 1177388, Control_c, 0, 64, 0
2, 1177428, Note_on_c, 0, 82, 0
2, 1177428, Note_on_c, 0, 88, 94
2, 1177460, Control_c, 0, 64, 127
2, 1177528, Note_on_c, 0, 85, 85
2, 1177536, Note_on_c, 0, 88, 0
2, 1177624, Note_on_c, 0, 54, 0
2, 1177632, Note_on_c, 0, 82, 90
2, 1177676, Note_on_c, 0, 85, 0
2, 1177680, Note_on_c, 0, 42, 0
2, 1177704, Note_on_c, 0, 82, 0
2, 1177720, Note_on_c, 0, 76, 75
2, 1177736, Note_on_c, 0, 66, 0
2, 1177736, Note_on_c, 0, 70, 0
2, 1177816, Note_on_c, 0, 73, 83
2, 1177820, Note_on_c, 0, 76, 0
2, 1177896, Note_on_c, 0, 73, 0
2, 1177932, Note_on_c, 0, 75, 98
2, 1177932, Note_on_c, 0, 36, 86
2, 1177932, Note_on_c, 0, 48, 83
2, 1177932, Note_on_c, 0, 63, 79
2, 1177932, Note_on_c, 0, 69, 79
2, 1177960, Control_c, 0, 64, 40
2, 1177972, Control_c, 0, 64, 0
2, 1178032, Control_c, 0, 64, 88
2, 1178044, Control_c, 0, 64, 127
2, 1178048, Note_on_c, 0, 81, 92
2, 1178072, Note_on_c, 0, 75, 0
2, 1178140, Note_on_c, 0, 81, 0
2, 1178148, Note_on_c, 0, 78, 89
2, 1178264, Note_on_c, 0, 75, 87
2, 1178320, Note_on_c, 0, 78, 0
2, 1178352, Note_on_c, 0, 75, 0
2, 1178352, Note_on_c, 0, 69, 85
2, 1178360, Note_on_c, 0, 69, 0
2, 1178360, Note_on_c, 0, 63, 0
2, 1178400, Note_on_c, 0, 36, 0
2, 1178404, Note_on_c, 0, 48, 0
2, 1178404, Note_on_c, 0, 69, 0
2, 1178448, Note_on_c, 0, 66, 85
2, 1178516, Note_on_c, 0, 66, 0
2, 1178592, Note_on_c, 0, 64, 88
2, 1178592, Note_on_c, 0, 37, 86
2, 1178592, Note_on_c, 0, 49, 81
2, 1178592, Note_on_c, 0, 68, 79
2, 1178652, Control_c, 0, 64, 0
2, 1178712, Note_on_c, 0, 52, 83
2, 1178724, Control_c, 0, 64, 88
2, 1178736, Control_c, 0, 64, 127
2, 1178812, Note_on_c, 0, 56, 81
2, 1178816, Note_on_c, 0, 64, 0
2, 1178840, Note_on_c, 0, 52, 0
2, 1178904, Note_on_c, 0, 61, 82
2, 1178912, Note_on_c, 0, 56, 0
2, 1178952, Note_on_c, 0, 61, 0
2, 1179016, Note_on_c, 0, 64, 83
2, 1179020, Note_on_c, 0, 68, 0
2, 1179072, Note_on_c, 0, 37, 0
2, 1179076, Note_on_c, 0, 64, 0
2, 1179096, Note_on_c, 0, 49, 0
2, 1179116, Note_on_c, 0, 68, 82
2, 1179200, Note_on_c, 0, 68, 0
2, 1179236, Note_on_c, 0, 76, 97
2, 1179236, Note_on_c, 0, 48, 83
2, 1179236, Note_on_c, 0, 36, 86
2, 1179236, Note_on_c, 0, 69, 81
2, 1179236, Control_c, 0, 64, 24
2, 1179248, Control_c, 0, 64, 0
2, 1179284, Control_c, 0, 64, 40
2, 1179296, Control_c, 0, 64, 127
2, 1179304, Note_on_c, 0, 76, 0
2, 1179372, Note_on_c, 0, 57, 77
2, 1179456, Note_on_c, 0, 57, 0
2, 1179464, Note_on_c, 0, 60, 79
2, 1179560, Note_on_c, 0, 60, 0
2, 1179568, Note_on_c, 0, 63, 73
2, 1179616, Note_on_c, 0, 63, 0
2, 1179664, Note_on_c, 0, 69, 0
2, 1179684, Note_on_c, 0, 64, 80
2, 1179704, Note_on_c, 0, 36, 0
2, 1179704, Note_on_c, 0, 48, 0
2, 1179732, Note_on_c, 0, 64, 0
2, 1179792, Note_on_c, 0, 76, 93
2, 1179872, Note_on_c, 0, 76, 0
2, 1179892, Control_c, 0, 64, 56
2, 1179904, Note_on_c, 0, 75, 94
2, 1179904, Note_on_c, 0, 35, 85
2, 1179904, Note_on_c, 0, 47, 79
2, 1179904, Note_on_c, 0, 66, 76
2, 1179904, Note_on_c, 0, 69, 76
2, 1179904, Control_c, 0, 64, 0
2, 1179956, Control_c, 0, 64, 88
2, 1179968, Note_on_c, 0, 75, 0
2, 1179968, Control_c, 0, 64, 127
2, 1180032, Note_on_c, 0, 57, 83
2, 1180116, Note_on_c, 0, 57, 0
2, 1180140, Note_on_c, 0, 63, 76
2, 1180240, Note_on_c, 0, 63, 0
2, 1180244, Note_on_c, 0, 35, 0
2, 1180244, Note_on_c, 0, 66, 72
2, 1180260, Note_on_c, 0, 47, 0
2, 1180276, Note_on_c, 0, 66, 0
2, 1180332, Note_on_c, 0, 66, 0
2, 1180352, Note_on_c, 0, 69, 81
2, 1180408, Note_on_c, 0, 69, 0
2, 1180444, Note_on_c, 0, 75, 88
2, 1180536, Control_c, 0, 64, 104
2, 1180544, Note_on_c, 0, 75, 0
2, 1180548, Control_c, 0, 64, 0
2, 1180556, Note_on_c, 0, 81, 100
2, 1180556, Note_on_c, 0, 41, 87
2, 1180556, Note_on_c, 0, 53, 84
2, 1180556, Note_on_c, 0, 74, 80
2, 1180620, Note_on_c, 0, 81, 0
2, 1180624, Control_c, 0, 64, 127
2, 1180684, Note_on_c, 0, 62, 81
2, 1180780, Note_on_c, 0, 65, 86
2, 1180784, Note_on_c, 0, 62, 0
2, 1180876, Note_on_c, 0, 68, 82
2, 1180880, Note_on_c, 0, 65, 0
2, 1180932, Note_on_c, 0, 68, 0
2, 1180984, Note_on_c, 0, 74, 0
2, 1180984, Note_on_c, 0, 69, 94
2, 1181008, Note_on_c, 0, 53, 0
2, 1181012, Note_on_c, 0, 41, 0
2, 1181040, Note_on_c, 0, 69, 0
2, 1181092, Note_on_c, 0, 81, 103
2, 1181100, Note_on_c, 0, 69, 0
2, 1181168, Note_on_c, 0, 81, 0
2, 1181180, Control_c, 0, 64, 88
2, 1181192, Control_c, 0, 64, 0
2, 1181200, Note_on_c, 0, 80, 100
2, 1181200, Note_on_c, 0, 52, 85
2, 1181200, Note_on_c, 0, 40, 87
2, 1181200, Note_on_c, 0, 74, 76
2, 1181200, Note_on_c, 0, 71, 76
2, 1181252, Control_c, 0, 64, 104
2, 1181264, Control_c, 0, 64, 127
2, 1181268, Note_on_c, 0, 80, 0
2, 1181332, Note_on_c, 0, 62, 83
2, 1181412, Note_on_c, 0, 62, 0
2, 1181432, Note_on_c, 0, 68, 83
2, 1181524, Note_on_c, 0, 68, 0
2, 1181524, Note_on_c, 0, 40, 0
2, 1181524, Note_on_c, 0, 71, 76
2, 1181556, Note_on_c, 0, 71, 0
2, 1181564, Note_on_c, 0, 52, 0
2, 1181616, Note_on_c, 0, 74, 94
2, 1181628, Note_on_c, 0, 74, 0
2, 1181628, Note_on_c, 0, 71, 0
2, 1181684, Note_on_c, 0, 74, 0
2, 1181712, Note_on_c, 0, 80, 94
2, 1181804, Note_on_c, 0, 80, 0
2, 1181812, Control_c, 0, 64, 40
2, 1181820, Note_on_c, 0, 86, 103
2, 1181820, Note_on_c, 0, 46, 88
2, 1181820, Note_on_c, 0, 58, 86
2, 1181820, Note_on_c, 0, 74, 84
2, 1181820, Note_on_c, 0, 62, 80
2, 1181820, Note_on_c, 0, 67, 78
2, 1181824, Control_c, 0, 64, 0
2, 1181884, Note_on_c, 0, 86, 0
2, 1181888, Control_c, 0, 64, 127
2, 1181952, Note_on_c, 0, 67, 88
2, 1182032, Note_on_c, 0, 70, 83
2, 1182048, Note_on_c, 0, 67, 0
2, 1182128, Note_on_c, 0, 73, 80
2, 1182132, Note_on_c, 0, 70, 0
2, 1182176, Note_on_c, 0, 73, 0
2, 1182244, Note_on_c, 0, 74, 81
2, 1182248, Note_on_c, 0, 62, 0
2, 1182248, Note_on_c, 0, 74, 0
2, 1182248, Note_on_c, 0, 67, 0
2, 1182288, Note_on_c, 0, 74, 0
2, 1182292, Note_on_c, 0, 46, 0
2, 1182312, Note_on_c, 0, 58, 0
2, 1182340, Note_on_c, 0, 86, 100
2, 1182420, Note_on_c, 0, 86, 0
2, 1182444, Note_on_c, 0, 85, 100
2, 1182444, Note_on_c, 0, 57, 87
2, 1182444, Note_on_c, 0, 45, 87
2, 1182444, Note_on_c, 0, 73, 82
2, 1182444, Note_on_c, 0, 67, 78
2, 1182444, Note_on_c, 0, 64, 78
2, 1182444, Control_c, 0, 64, 72
2, 1182456, Control_c, 0, 64, 0
2, 1182508, Note_on_c, 0, 85, 0
2, 1182508, Control_c, 0, 64, 88
2, 1182520, Control_c, 0, 64, 127
2, 1182568, Note_on_c, 0, 67, 83
2, 1182656, Note_on_c, 0, 73, 83
2, 1182660, Note_on_c, 0, 67, 0
2, 1182660, Note_on_c, 0, 67, 0
2, 1182744, Note_on_c, 0, 45, 0
2, 1182756, Note_on_c, 0, 76, 87
2, 1182768, Note_on_c, 0, 73, 0
2, 1182784, Note_on_c, 0, 76, 0
2, 1182796, Note_on_c, 0, 57, 0
2, 1182864, Note_on_c, 0, 79, 93
2, 1182872, Note_on_c, 0, 73, 0
2, 1182872, Note_on_c, 0, 64, 0
2, 1182924, Note_on_c, 0, 79, 0
2, 1182956, Note_on_c, 0, 85, 97
2, 1183056, Note_on_c, 0, 85, 0
2, 1183064, Note_on_c, 0, 91, 100
2, 1183064, Note_on_c, 0, 49, 90
2, 1183064, Note_on_c, 0, 61, 97
2, 1183064, Note_on_c, 0, 79, 83
2, 1183064, Note_on_c, 0, 69, 80
2, 1183064, Control_c, 0, 64, 24
2, 1183076, Control_c, 0, 64, 0
2, 1183128, Note_on_c, 0, 91, 0
2, 1183128, Control_c, 0, 64, 72
2, 1183140, Control_c, 0, 64, 127
2, 1183204, Note_on_c, 0, 69, 88
2, 1183288, Note_on_c, 0, 69, 0
2, 1183288, Note_on_c, 0, 69, 0
2, 1183292, Note_on_c, 0, 76, 84
2, 1183376, Note_on_c, 0, 76, 0
2, 1183376, Note_on_c, 0, 79, 83
2, 1183396, Note_on_c, 0, 79, 0
2, 1183460, Note_on_c, 0, 81, 90
2, 1183492, Note_on_c, 0, 49, 0
2, 1183492, Note_on_c, 0, 79, 0
2, 1183520, Note_on_c, 0, 81, 0
2, 1183560, Note_on_c, 0, 91, 98
2, 1183564, Note_on_c, 0, 61, 0
2, 1183660, Control_c, 0, 64, 88
2, 1183668, Note_on_c, 0, 91, 0
2, 1183668, Note_on_c, 0, 90, 99
2, 1183668, Note_on_c, 0, 62, 93
2, 1183668, Note_on_c, 0, 50, 95
2, 1183668, Note_on_c, 0, 78, 80
2, 1183668, Note_on_c, 0, 69, 80
2, 1183668, Control_c, 0, 64, 0
2, 1183720, Note_on_c, 0, 90, 0
2, 1183720, Control_c, 0, 64, 56
2, 1183732, Control_c, 0, 64, 127
2, 1183792, Note_on_c, 0, 69, 86
2, 1183880, Note_on_c, 0, 50, 0
2, 1183880, Note_on_c, 0, 78, 82
2, 1183924, Note_on_c, 0, 78, 0
2, 1183928, Note_on_c, 0, 62, 0
2, 1183984, Note_on_c, 0, 81, 93
2, 1184068, Note_on_c, 0, 81, 0
2, 1184080, Note_on_c, 0, 90, 87
2, 1184096, Note_on_c, 0, 78, 0
2, 1184096, Note_on_c, 0, 69, 0
2, 1184096, Note_on_c, 0, 69, 0
2, 1184096, Note_on_c, 0, 66, 102
2, 1184104, Note_on_c, 0, 54, 92
2, 1184132, Note_on_c, 0, 90, 0
2, 1184184, Note_on_c, 0, 93, 96
2, 1184264, Note_on_c, 0, 93, 0
2, 1184280, Note_on_c, 0, 102, 93
2, 1184364, Note_on_c, 0, 102, 0
2, 1184376, Note_on_c, 0, 93, 87
2, 1184396, Note_on_c, 0, 93, 0
2, 1184416, Note_on_c, 0, 54, 0
2, 1184424, Note_on_c, 0, 66, 0
2, 1184476, Note_on_c, 0, 90, 93
2, 1184496, Note_on_c, 0, 68, 93
2, 1184496, Note_on_c, 0, 56, 85
2, 1184544, Note_on_c, 0, 90, 0
2, 1184572, Note_on_c, 0, 81, 84
2, 1184580, Note_on_c, 0, 56, 0
2, 1184612, Note_on_c, 0, 81, 0
2, 1184624, Note_on_c, 0, 68, 0
2, 1184680, Note_on_c, 0, 69, 98
2, 1184688, Note_on_c, 0, 57, 90
2, 1184696, Note_on_c, 0, 81, 84
2, 1184720, Note_on_c, 0, 69, 0
2, 1184728, Note_on_c, 0, 57, 0
2, 1184736, Note_on_c, 0, 81, 0
2, 1184772, Note_on_c, 0, 69, 83
2, 1184800, Note_on_c, 0, 51, 101
2, 1184848, Note_on_c, 0, 51, 0
2, 1184848, Note_on_c, 0, 69, 0
2, 1184912, Note_on_c, 0, 78, 87
2, 1184936, Control_c, 0, 64, 24
2, 1184944, Note_on_c, 0, 71, 110
2, 1184944, Note_on_c, 0, 59, 96
2, 1184952, Control_c, 0, 64, 0
2, 1185000, Note_on_c, 0, 59, 0
2, 1185000, Note_on_c, 0, 59, 47
2, 1185000, Control_c, 0, 64, 88
2, 1185012, Control_c, 0, 64, 127
2, 1185020, Note_on_c, 0, 78, 0
2, 1185032, Note_on_c, 0, 69, 94
2, 1185132, Note_on_c, 0, 69, 0
2, 1185136, Note_on_c, 0, 78, 84
2, 1185188, Note_on_c, 0, 78, 0
2, 1185224, Note_on_c, 0, 59, 0
2, 1185240, Note_on_c, 0, 71, 0
2, 1185248, Note_on_c, 0, 81, 89
2, 1185336, Note_on_c, 0, 69, 102
2, 1185344, Note_on_c, 0, 57, 90
2, 1185348, Note_on_c, 0, 81, 0
2, 1185348, Note_on_c, 0, 90, 88
2, 1185392, Note_on_c, 0, 90, 0
2, 1185444, Note_on_c, 0, 93, 104
2, 1185552, Note_on_c, 0, 93, 0
2, 1185552, Note_on_c, 0, 102, 107
2, 1185652, Note_on_c, 0, 102, 0
2, 1185660, Note_on_c, 0, 93, 88
2, 1185672, Note_on_c, 0, 57, 0
2, 1185672, Note_on_c, 0, 69, 0
2, 1185708, Note_on_c, 0, 93, 0
2, 1185772, Note_on_c, 0, 68, 97
2, 1185776, Note_on_c, 0, 56, 94
2, 1185792, Note_on_c, 0, 90, 87
2, 1185824, Note_on_c, 0, 56, 0
2, 1185832, Note_on_c, 0, 68, 0
2, 1185840, Note_on_c, 0, 90, 0
2, 1185872, Note_on_c, 0, 81, 83
2, 1185928, Note_on_c, 0, 81, 0
2, 1185980, Note_on_c, 0, 78, 83
2, 1185984, Note_on_c, 0, 66, 94
2, 1185992, Note_on_c, 0, 54, 90
2, 1186040, Note_on_c, 0, 78, 0
2, 1186052, Note_on_c, 0, 54, 0
2, 1186064, Note_on_c, 0, 66, 0
2, 1186072, Note_on_c, 0, 69, 82
2, 1186200, Note_on_c, 0, 69, 0
2, 1186200, Control_c, 0, 64, 40
2, 1186216, Control_c, 0, 64, 0
2, 1186232, Note_on_c, 0, 76, 101
2, 1186232, Note_on_c, 0, 64, 83
2, 1186232, Note_on_c, 0, 52, 84
2, 1186232, Note_on_c, 0, 73, 87
2, 1186276, Note_on_c, 0, 52, 0
2, 1186280, Note_on_c, 0, 73, 0
2, 1186284, Note_on_c, 0, 64, 0
2, 1186288, Control_c, 0, 64, 127
2, 1186304, Note_on_c, 0, 76, 0
2, 1186468, Note_on_c, 0, 88, 98
2, 1186468, Note_on_c, 0, 81, 80
2, 1186468, Note_on_c, 0, 73, 80
2, 1186468, Note_on_c, 0, 64, 73
2, 1186508, Note_on_c, 0, 81, 0
2, 1186516, Note_on_c, 0, 73, 0
2, 1186520, Note_on_c, 0, 64, 0
2, 1186532, Control_c, 0, 64, 104
2, 1186548, Control_c, 0, 64, 72
2, 1186552, Note_on_c, 0, 88, 0
2, 1186560, Control_c, 0, 64, 0
2, 1186648, Control_c, 0, 64, 72
2, 1186660, Control_c, 0, 64, 127
2, 1186692, Note_on_c, 0, 89, 103
2, 1186692, Note_on_c, 0, 64, 72
2, 1186692, Note_on_c, 0, 81, 79
2, 1186692, Note_on_c, 0, 73, 84
2, 1186720, Note_on_c, 0, 81, 0
2, 1186736, Note_on_c, 0, 64, 0
2, 1186744, Note_on_c, 0, 73, 0
2, 1186768, Note_on_c, 0, 89, 0
2, 1187000, Note_on_c, 0, 92, 103
2, 1187000, Note_on_c, 0, 64, 86
2, 1187000, Note_on_c, 0, 74, 80
2, 1187000, Note_on_c, 0, 80, 92
2, 1187140, Control_c, 0, 64, 72
2, 1187156, Control_c, 0, 64, 0
2, 1187228, Control_c, 0, 64, 127
2, 1187244, Note_on_c, 0, 80, 0
2, 1187344, Note_on_c, 0, 92, 0
2, 1187368, Note_on_c, 0, 90, 88
2, 1187472, Note_on_c, 0, 90, 0
2, 1187480, Note_on_c, 0, 86, 84
2, 1187524, Note_on_c, 0, 86, 0
2, 1187572, Note_on_c, 0, 83, 89
2, 1187576, Note_on_c, 0, 74, 0
2, 1187580, Note_on_c, 0, 64, 0
2, 1187676, Note_on_c, 0, 80, 85
2, 1187680, Note_on_c, 0, 83, 0
2, 1187780, Note_on_c, 0, 78, 80
2, 1187804, Note_on_c, 0, 80, 0
2, 1187884, Note_on_c, 0, 74, 82
2, 1187888, Note_on_c, 0, 78, 0
2, 1187944, Note_on_c, 0, 74, 0
2, 1187988, Note_on_c, 0, 71, 81
2, 1188084, Note_on_c, 0, 71, 0
2, 1188092, Note_on_c, 0, 68, 79
2, 1188196, Note_on_c, 0, 66, 79
2, 1188196, Control_c, 0, 64, 0
2, 1188216, Note_on_c, 0, 68, 0
2, 1188292, Note_on_c, 0, 64, 79
2, 1188328, Note_on_c, 0, 66, 0
2, 1188380, Note_on_c, 0, 64, 0
2, 1188396, Note_on_c, 0, 62, 78
2, 1188484, Note_on_c, 0, 62, 0
2, 1188504, Note_on_c, 0, 59, 78
2, 1188504, Note_on_c, 0, 71, 85
2, 1188504, Note_on_c, 0, 68, 74
2, 1188504, Note_on_c, 0, 64, 73
2, 1188504, Note_on_c, 0, 52, 74
2, 1188504, Note_on_c, 0, 40, 76
2, 1188580, Control_c, 0, 64, 72
2, 1188592, Note_on_c, 0, 59, 0
2, 1188596, Control_c, 0, 64, 0
2, 1188608, Note_on_c, 0, 56, 78
2, 1188672, Note_on_c, 0, 68, 0
2, 1188672, Note_on_c, 0, 52, 0
2, 1188672, Note_on_c, 0, 64, 0
2, 1188672, Note_on_c, 0, 71, 0
2, 1188672, Note_on_c, 0, 40, 0
2, 1188696, Note_on_c, 0, 56, 0
2, 1188712, Note_on_c, 0, 52, 78
2, 1188800, Note_on_c, 0, 52, 0
2, 1188816, Note_on_c, 0, 56, 78
2, 1188816, Note_on_c, 0, 72, 83
2, 1188816, Note_on_c, 0, 68, 74
2, 1188816, Note_on_c, 0, 64, 73
2, 1188816, Note_on_c, 0, 52, 75
2, 1188816, Note_on_c, 0, 40, 75
2, 1188904, Note_on_c, 0, 56, 0
2, 1188928, Note_on_c, 0, 73, 85
2, 1188928, Note_on_c, 0, 45, 73
2, 1188928, Note_on_c, 0, 57, 76
2, 1188928, Note_on_c, 0, 69, 70
2, 1188928, Note_on_c, 0, 64, 68
2, 1188960, Note_on_c, 0, 69, 0
2, 1188968, Note_on_c, 0, 45, 0
2, 1188972, Note_on_c, 0, 57, 0
2, 1188972, Note_on_c, 0, 64, 0
2, 1188972, Note_on_c, 0, 64, 0
2, 1188984, Note_on_c, 0, 72, 0
2, 1188984, Note_on_c, 0, 68, 0
2, 1188984, Note_on_c, 0, 52, 0
2, 1188984, Note_on_c, 0, 40, 0
2, 1189000, Note_on_c, 0, 73, 0
2, 1189348, Note_on_c, 0, 44, 63
2, 1189348, Note_on_c, 0, 69, 76
2, 1189348, Note_on_c, 0, 65, 73
2, 1189348, Note_on_c, 0, 56, 73
2, 1189348, Note_on_c, 0, 73, 80
2, 1189384, Note_on_c, 0, 69, 0
2, 1189388, Note_on_c, 0, 44, 0
2, 1189388, Note_on_c, 0, 65, 0
2, 1189400, Note_on_c, 0, 56, 0
2, 1189432, Note_on_c, 0, 73, 0
2, 1189756, Note_on_c, 0, 73, 82
2, 1189756, Note_on_c, 0, 54, 77
2, 1189756, Note_on_c, 0, 42, 63
2, 1189756, Note_on_c, 0, 66, 67
2, 1189756, Note_on_c, 0, 69, 78
2, 1189780, Note_on_c, 0, 42, 0
2, 1189784, Note_on_c, 0, 54, 0
2, 1189788, Note_on_c, 0, 69, 0
2, 1189816, Note_on_c, 0, 66, 0
2, 1189860, Note_on_c, 0, 73, 0
2, 1190088, Note_on_c, 0, 69, 78
2, 1190088, Note_on_c, 0, 50, 71
2, 1190088, Note_on_c, 0, 66, 67
2, 1190088, Note_on_c, 0, 38, 63
2, 1190088, Note_on_c, 0, 74, 86
2, 1190112, Note_on_c, 0, 50, 0
2, 1190120, Note_on_c, 0, 38, 0
2, 1190124, Note_on_c, 0, 69, 0
2, 1190136, Note_on_c, 0, 66, 0
2, 1190144, Note_on_c, 0, 74, 0
2, 1190188, Note_on_c, 0, 40, 79
2, 1190188, Note_on_c, 0, 64, 75
2, 1190188, Note_on_c, 0, 52, 88
2, 1190188, Note_on_c, 0, 69, 90
2, 1190188, Note_on_c, 0, 73, 85
2, 1190212, Note_on_c, 0, 40, 0
2, 1190216, Note_on_c, 0, 52, 0
2, 1190224, Note_on_c, 0, 64, 0
2, 1190252, Note_on_c, 0, 69, 0
2, 1190264, Note_on_c, 0, 73, 0
2, 1190624, Note_on_c, 0, 71, 82
2, 1190624, Note_on_c, 0, 69, 81
2, 1190624, Note_on_c, 0, 40, 66
2, 1190624, Note_on_c, 0, 52, 67
2, 1190624, Note_on_c, 0, 62, 73
2, 1190652, Note_on_c, 0, 52, 0
2, 1190652, Note_on_c, 0, 40, 0
2, 1190676, Note_on_c, 0, 62, 0
2, 1190696, Note_on_c, 0, 69, 0
2, 1190712, Note_on_c, 0, 71, 0
2, 1191048, Note_on_c, 0, 71, 82
2, 1191056, Note_on_c, 0, 68, 73
2, 1191060, Note_on_c, 0, 62, 66
2, 1191064, Note_on_c, 0, 40, 75
2, 1191064, Note_on_c, 0, 52, 75
2, 1191088, Note_on_c, 0, 52, 0
2, 1191088, Note_on_c, 0, 62, 0
2, 1191088, Note_on_c, 0, 40, 0
2, 1191104, Note_on_c, 0, 68, 0
2, 1191112, Note_on_c, 0, 71, 0
2, 1191376, Note_on_c, 0, 73, 86
2, 1191376, Note_on_c, 0, 61, 78
2, 1191380, Note_on_c, 0, 68, 77
2, 1191388, Note_on_c, 0, 41, 79
2, 1191392, Note_on_c, 0, 53, 70
2, 1191416, Note_on_c, 0, 41, 0
2, 1191420, Note_on_c, 0, 73, 0
2, 1191420, Note_on_c, 0, 53, 0
2, 1191428, Note_on_c, 0, 61, 0
2, 1191436, Note_on_c, 0, 68, 0
2, 1191480, Note_on_c, 0, 71, 92
2, 1191480, Note_on_c, 0, 61, 71
2, 1191480, Note_on_c, 0, 42, 73
2, 1191480, Note_on_c, 0, 66, 78
2, 1191480, Note_on_c, 0, 54, 80
2, 1191516, Note_on_c, 0, 54, 0
2, 1191528, Note_on_c, 0, 42, 0
2, 1191540, Note_on_c, 0, 61, 0
2, 1191548, Note_on_c, 0, 66, 0
2, 1191560, Note_on_c, 0, 71, 0
2, 1191888, Note_on_c, 0, 61, 71
2, 1191888, Note_on_c, 0, 69, 84
2, 1191892, Note_on_c, 0, 66, 66
2, 1191896, Note_on_c, 0, 57, 75
2, 1191896, Note_on_c, 0, 45, 74
2, 1191948, Note_on_c, 0, 45, 0
2, 1191952, Note_on_c, 0, 61, 0
2, 1191952, Note_on_c, 0, 57, 0
2, 1191968, Note_on_c, 0, 66, 0
2, 1191972, Note_on_c, 0, 69, 0
2, 1192300, Note_on_c, 0, 59, 76
2, 1192300, Note_on_c, 0, 47, 75
2, 1192300, Note_on_c, 0, 64, 72
2, 1192300, Note_on_c, 0, 69, 86
2, 1192300, Note_on_c, 0, 66, 64
2, 1192336, Note_on_c, 0, 64, 0
2, 1192336, Note_on_c, 0, 59, 0
2, 1192352, Note_on_c, 0, 47, 0
2, 1192376, Note_on_c, 0, 66, 0
2, 1192384, Note_on_c, 0, 69, 0
2, 1192600, Note_on_c, 0, 35, 74
2, 1192604, Note_on_c, 0, 71, 82
2, 1192604, Note_on_c, 0, 66, 74
2, 1192608, Note_on_c, 0, 47, 77
2, 1192608, Note_on_c, 0, 63, 69
2, 1192640, Note_on_c, 0, 47, 0
2, 1192648, Note_on_c, 0, 35, 0
2, 1192656, Note_on_c, 0, 71, 0
2, 1192656, Note_on_c, 0, 63, 0
2, 1192660, Note_on_c, 0, 66, 0
2, 1192716, Note_on_c, 0, 40, 85
2, 1192716, Note_on_c, 0, 59, 78
2, 1192716, Note_on_c, 0, 64, 83
2, 1192716, Note_on_c, 0, 52, 89
2, 1192716, Note_on_c, 0, 68, 86
2, 1192736, Note_on_c, 0, 52, 0
2, 1192748, Note_on_c, 0, 40, 0
2, 1192772, Note_on_c, 0, 59, 0
2, 1192776, Note_on_c, 0, 68, 0
2, 1192788, Note_on_c, 0, 64, 0
2, 1193144, Note_on_c, 0, 66, 74
2, 1193152, Note_on_c, 0, 59, 68
2, 1193152, Note_on_c, 0, 57, 74
2, 1193152, Note_on_c, 0, 63, 66
2, 1193160, Note_on_c, 0, 42, 73
2, 1193160, Note_on_c, 0, 54, 71
2, 1193192, Note_on_c, 0, 57, 0
2, 1193204, Note_on_c, 0, 59, 0
2, 1193204, Note_on_c, 0, 42, 0
2, 1193204, Note_on_c, 0, 54, 0
2, 1193236, Note_on_c, 0, 66, 0
2, 1193236, Note_on_c, 0, 63, 0
2, 1193564, Note_on_c, 0, 59, 75
2, 1193572, Note_on_c, 0, 64, 86
2, 1193576, Note_on_c, 0, 56, 80
2, 1193580, Note_on_c, 0, 44, 68
2, 1193616, Note_on_c, 0, 59, 0
2, 1193620, Note_on_c, 0, 64, 0
2, 1193624, Note_on_c, 0, 56, 0
2, 1193640, Note_on_c, 0, 44, 0
2, 1193904, Note_on_c, 0, 76, 88
2, 1193904, Note_on_c, 0, 64, 73
2, 1193904, Note_on_c, 0, 52, 50
2, 1193904, Note_on_c, 0, 40, 76
2, 1193928, Note_on_c, 0, 52, 0
2, 1193940, Note_on_c, 0, 40, 0
2, 1193948, Note_on_c, 0, 64, 0
2, 1193956, Note_on_c, 0, 76, 0
2, 1194008, Note_on_c, 0, 73, 86
2, 1194012, Note_on_c, 0, 64, 77
2, 1194016, Note_on_c, 0, 69, 84
2, 1194032, Note_on_c, 0, 57, 82
2, 1194044, Note_on_c, 0, 45, 78
2, 1194056, Note_on_c, 0, 57, 0
2, 1194072, Note_on_c, 0, 45, 0
2, 1194076, Note_on_c, 0, 64, 0
2, 1194084, Note_on_c, 0, 69, 0
2, 1194108, Note_on_c, 0, 73, 0
2, 1194408, Note_on_c, 0, 73, 82
2, 1194420, Note_on_c, 0, 69, 75
2, 1194420, Note_on_c, 0, 65, 78
2, 1194420, Note_on_c, 0, 44, 77
2, 1194428, Note_on_c, 0, 56, 65
2, 1194464, Note_on_c, 0, 69, 0
2, 1194468, Note_on_c, 0, 56, 0
2, 1194484, Note_on_c, 0, 44, 0
2, 1194484, Note_on_c, 0, 65, 0
2, 1194520, Note_on_c, 0, 73, 0
2, 1194816, Note_on_c, 0, 73, 76
2, 1194816, Note_on_c, 0, 69, 83
2, 1194820, Note_on_c, 0, 54, 78
2, 1194824, Note_on_c, 0, 66, 65
2, 1194828, Note_on_c, 0, 42, 76
2, 1194868, Note_on_c, 0, 54, 0
2, 1194876, Note_on_c, 0, 42, 0
2, 1194880, Note_on_c, 0, 69, 0
2, 1194892, Note_on_c, 0, 66, 0
2, 1194912, Note_on_c, 0, 73, 0
2, 1195140, Note_on_c, 0, 74, 83
2, 1195140, Note_on_c, 0, 66, 66
2, 1195140, Note_on_c, 0, 50, 76
2, 1195140, Note_on_c, 0, 38, 78
2, 1195148, Note_on_c, 0, 69, 73
2, 1195172, Note_on_c, 0, 38, 0
2, 1195172, Note_on_c, 0, 50, 0
2, 1195176, Note_on_c, 0, 69, 0
2, 1195176, Note_on_c, 0, 66, 0
2, 1195180, Note_on_c, 0, 74, 0
2, 1195236, Note_on_c, 0, 73, 90
2, 1195236, Note_on_c, 0, 69, 74
2, 1195236, Note_on_c, 0, 64, 71
2, 1195236, Note_on_c, 0, 40, 81
2, 1195236, Note_on_c, 0, 52, 82
2, 1195268, Note_on_c, 0, 40, 0
2, 1195272, Note_on_c, 0, 52, 0
2, 1195312, Note_on_c, 0, 69, 0
2, 1195320, Note_on_c, 0, 64, 0
2, 1195332, Note_on_c, 0, 73, 0
2, 1195644, Note_on_c, 0, 71, 78
2, 1195648, Note_on_c, 0, 69, 77
2, 1195652, Note_on_c, 0, 62, 69
2, 1195660, Note_on_c, 0, 52, 69
2, 1195664, Note_on_c, 0, 40, 77
2, 1195696, Note_on_c, 0, 40, 0
2, 1195696, Note_on_c, 0, 62, 0
2, 1195704, Note_on_c, 0, 52, 0
2, 1195720, Note_on_c, 0, 69, 0
2, 1195732, Note_on_c, 0, 71, 0
2, 1196040, Note_on_c, 0, 71, 85
2, 1196048, Note_on_c, 0, 68, 73
2, 1196052, Note_on_c, 0, 62, 70
2, 1196064, Note_on_c, 0, 40, 77
2, 1196064, Note_on_c, 0, 52, 72
2, 1196084, Note_on_c, 0, 62, 0
2, 1196092, Note_on_c, 0, 40, 0
2, 1196092, Note_on_c, 0, 52, 0
2, 1196108, Note_on_c, 0, 68, 0
2, 1196124, Note_on_c, 0, 71, 0
2, 1196344, Note_on_c, 0, 73, 87
2, 1196348, Note_on_c, 0, 61, 74
2, 1196348, Note_on_c, 0, 68, 75
2, 1196368, Note_on_c, 0, 41, 78
2, 1196396, Note_on_c, 0, 41, 0
2, 1196396, Note_on_c, 0, 73, 0
2, 1196396, Note_on_c, 0, 61, 0
2, 1196404, Note_on_c, 0, 68, 0
2, 1196452, Note_on_c, 0, 71, 91
2, 1196460, Note_on_c, 0, 61, 70
2, 1196464, Note_on_c, 0, 42, 80
2, 1196464, Note_on_c, 0, 66, 73
2, 1196464, Note_on_c, 0, 54, 75
2, 1196504, Note_on_c, 0, 54, 0
2, 1196512, Note_on_c, 0, 42, 0
2, 1196548, Note_on_c, 0, 61, 0
2, 1196556, Note_on_c, 0, 66, 0
2, 1196576, Note_on_c, 0, 71, 0
2, 1196860, Note_on_c, 0, 69, 84
2, 1196860, Note_on_c, 0, 54, 70
2, 1196860, Note_on_c, 0, 42, 77
2, 1196860, Note_on_c, 0, 61, 67
2, 1196860, Note_on_c, 0, 66, 74
2, 1196924, Note_on_c, 0, 42, 0
2, 1196924, Note_on_c, 0, 54, 0
2, 1196928, Note_on_c, 0, 61, 0
2, 1196948, Note_on_c, 0, 69, 0
2, 1196956, Note_on_c, 0, 66, 0
2, 1197248, Note_on_c, 0, 68, 80
2, 1197248, Note_on_c, 0, 63, 67
2, 1197248, Note_on_c, 0, 59, 63
2, 1197248, Note_on_c, 0, 54, 78
2, 1197248, Note_on_c, 0, 42, 80
2, 1197304, Note_on_c, 0, 54, 0
2, 1197304, Note_on_c, 0, 59, 0
2, 1197316, Note_on_c, 0, 42, 0
2, 1197316, Note_on_c, 0, 63, 0
2, 1197336, Note_on_c, 0, 68, 0
2, 1197564, Note_on_c, 0, 69, 86
2, 1197564, Note_on_c, 0, 54, 78
2, 1197568, Note_on_c, 0, 63, 61
2, 1197572, Note_on_c, 0, 57, 71
2, 1197600, Note_on_c, 0, 57, 0
2, 1197600, Note_on_c, 0, 54, 0
2, 1197604, Note_on_c, 0, 63, 0
2, 1197624, Note_on_c, 0, 69, 0
2, 1197676, Note_on_c, 0, 71, 90
2, 1197688, Note_on_c, 0, 64, 79
2, 1197696, Note_on_c, 0, 52, 78
2, 1197700, Note_on_c, 0, 57, 70
2, 1197732, Note_on_c, 0, 57, 0
2, 1197740, Note_on_c, 0, 64, 0
2, 1197744, Note_on_c, 0, 52, 0
2, 1197752, Note_on_c, 0, 71, 0
2, 1198076, Note_on_c, 0, 71, 80
2, 1198084, Note_on_c, 0, 64, 76
2, 1198084, Note_on_c, 0, 62, 67
2, 1198092, Note_on_c, 0, 56, 72
2, 1198096, Note_on_c, 0, 52, 78
2, 1198156, Note_on_c, 0, 56, 0
2, 1198164, Note_on_c, 0, 52, 0
2, 1198172, Note_on_c, 0, 62, 0
2, 1198172, Note_on_c, 0, 64, 0
2, 1198192, Note_on_c, 0, 71, 0
2, 1198508, Note_on_c, 0, 69, 78
2, 1198508, Note_on_c, 0, 61, 68
2, 1198508, Note_on_c, 0, 57, 71
2, 1198508, Note_on_c, 0, 45, 74
2, 1198744, Note_on_c, 0, 45, 0
2, 1198744, Note_on_c, 0, 69, 0
2, 1198744, Note_on_c, 0, 61, 0
2, 1198744, Note_on_c, 0, 57, 0
2, 1199032, Note_on_c, 0, 80, 83
2, 1199032, Note_on_c, 0, 71, 66
2, 1199032, Note_on_c, 0, 64, 61
2, 1199032, Note_on_c, 0, 68, 64
2, 1199132, Control_c, 0, 64, 56
2, 1199148, Control_c, 0, 64, 88
2, 1199160, Control_c, 0, 64, 127
2, 1199224, Note_on_c, 0, 64, 0
2, 1199256, Note_on_c, 0, 71, 0
2, 1199264, Note_on_c, 0, 68, 0
2, 1199284, Note_on_c, 0, 80, 0
2, 1199496, Note_on_c, 0, 80, 89
2, 1199520, Note_on_c, 0, 72, 61
2, 1199524, Note_on_c, 0, 66, 53
2, 1199528, Note_on_c, 0, 63, 55
2, 1199560, Control_c, 0, 64, 72
2, 1199572, Control_c, 0, 64, 0
2, 1199640, Control_c, 0, 64, 40
2, 1199652, Note_on_c, 0, 66, 0
2, 1199652, Control_c, 0, 64, 104
2, 1199660, Note_on_c, 0, 63, 0
2, 1199668, Control_c, 0, 64, 127
2, 1199680, Note_on_c, 0, 72, 0
2, 1199752, Note_on_c, 0, 80, 0
2, 1199924, Note_on_c, 0, 80, 91
2, 1199932, Control_c, 0, 64, 56
2, 1199940, Note_on_c, 0, 73, 74
2, 1199940, Note_on_c, 0, 61, 63
2, 1199948, Control_c, 0, 64, 0
2, 1199952, Note_on_c, 0, 64, 54
2, 1200008, Control_c, 0, 64, 72
2, 1200024, Note_on_c, 0, 73, 0
2, 1200024, Control_c, 0, 64, 127
2, 1200028, Note_on_c, 0, 64, 0
2, 1200036, Note_on_c, 0, 61, 0
2, 1200048, Note_on_c, 0, 80, 0
2, 1200272, Note_on_c, 0, 81, 97
2, 1200272, Note_on_c, 0, 73, 78
2, 1200288, Note_on_c, 0, 57, 66
2, 1200288, Note_on_c, 0, 64, 63
2, 1200324, Note_on_c, 0, 73, 0
2, 1200328, Note_on_c, 0, 81, 0
2, 1200328, Note_on_c, 0, 57, 0
2, 1200328, Note_on_c, 0, 64, 0
2, 1200388, Note_on_c, 0, 80, 98
2, 1200396, Note_on_c, 0, 71, 77
2, 1200412, Note_on_c, 0, 64, 57
2, 1200412, Control_c, 0, 64, 104
2, 1200424, Note_on_c, 0, 59, 62
2, 1200424, Control_c, 0, 64, 24
2, 1200436, Control_c, 0, 64, 0
2, 1200544, Control_c, 0, 64, 40
2, 1200556, Control_c, 0, 64, 127
2, 1200688, Note_on_c, 0, 59, 0
2, 1200700, Note_on_c, 0, 71, 0
2, 1200704, Note_on_c, 0, 80, 0
2, 1200732, Note_on_c, 0, 64, 0
2, 1200872, Note_on_c, 0, 78, 83
2, 1200880, Note_on_c, 0, 60, 67
2, 1200884, Note_on_c, 0, 69, 73
2, 1200892, Note_on_c, 0, 63, 54
2, 1200916, Control_c, 0, 64, 104
2, 1200928, Control_c, 0, 64, 24
2, 1200944, Control_c, 0, 64, 0
2, 1201024, Control_c, 0, 64, 72
2, 1201032, Control_c, 0, 64, 127
2, 1201052, Note_on_c, 0, 69, 0
2, 1201092, Note_on_c, 0, 60, 0
2, 1201192, Note_on_c, 0, 63, 0
2, 1201200, Note_on_c, 0, 78, 0
2, 1201288, Control_c, 0, 64, 56
2, 1201300, Note_on_c, 0, 68, 68
2, 1201300, Control_c, 0, 64, 0
2, 1201308, Note_on_c, 0, 76, 84
2, 1201316, Note_on_c, 0, 61, 62
2, 1201324, Note_on_c, 0, 64, 58
2, 1201356, Control_c, 0, 64, 24
2, 1201368, Control_c, 0, 64, 88
2, 1201376, Note_on_c, 0, 64, 0
2, 1201380, Note_on_c, 0, 61, 0
2, 1201380, Control_c, 0, 64, 127
2, 1201464, Note_on_c, 0, 68, 0
2, 1201504, Note_on_c, 0, 76, 0
2, 1201596, Note_on_c, 0, 80, 83
2, 1201608, Control_c, 0, 64, 72
2, 1201624, Control_c, 0, 64, 0
2, 1201632, Note_on_c, 0, 78, 88
2, 1201632, Note_on_c, 0, 69, 73
2, 1201632, Note_on_c, 0, 63, 67
2, 1201632, Note_on_c, 0, 54, 74
2, 1201668, Note_on_c, 0, 80, 0
2, 1201684, Note_on_c, 0, 63, 0
2, 1201688, Note_on_c, 0, 54, 0
2, 1201696, Note_on_c, 0, 69, 0
2, 1201740, Note_on_c, 0, 78, 0
2, 1201784, Note_on_c, 0, 76, 88
2, 1201784, Note_on_c, 0, 68, 59
2, 1201784, Note_on_c, 0, 56, 65
2, 1201784, Note_on_c, 0, 61, 63
2, 1201912, Control_c, 0, 64, 56
2, 1201924, Control_c, 0, 64, 104
2, 1201940, Control_c, 0, 64, 127
2, 1202020, Note_on_c, 0, 76, 0
2, 1202036, Note_on_c, 0, 56, 0
2, 1202056, Note_on_c, 0, 68, 0
2, 1202116, Note_on_c, 0, 61, 0
2, 1202256, Note_on_c, 0, 75, 82
2, 1202256, Note_on_c, 0, 60, 68
2, 1202256, Note_on_c, 0, 56, 70
2, 1202256, Note_on_c, 0, 66, 68
2, 1202340, Control_c, 0, 64, 40
2, 1202352, Control_c, 0, 64, 0
2, 1202432, Control_c, 0, 64, 40
2, 1202448, Control_c, 0, 64, 104
2, 1202460, Control_c, 0, 64, 127
2, 1202464, Note_on_c, 0, 66, 0
2, 1202468, Note_on_c, 0, 75, 0
2, 1202472, Note_on_c, 0, 56, 0
2, 1202496, Note_on_c, 0, 60, 0
2, 1202656, Control_c, 0, 64, 104
2, 1202668, Control_c, 0, 64, 72
2, 1202676, Control_c, 0, 64, 24
2, 1202684, Control_c, 0, 64, 0
2, 1202700, Note_on_c, 0, 73, 77
2, 1202712, Note_on_c, 0, 64, 63
2, 1202716, Note_on_c, 0, 61, 56
2, 1202720, Note_on_c, 0, 57, 66
2, 1202792, Control_c, 0, 64, 24
2, 1202800, Note_on_c, 0, 64, 0
2, 1202808, Control_c, 0, 64, 88
2, 1202820, Control_c, 0, 64, 127
2, 1202844, Note_on_c, 0, 57, 0
2, 1202852, Note_on_c, 0, 73, 0
2, 1202892, Note_on_c, 0, 61, 0
2, 1203064, Note_on_c, 0, 78, 85
2, 1203076, Note_on_c, 0, 57, 72
2, 1203076, Note_on_c, 0, 60, 77
2, 1203080, Note_on_c, 0, 69, 64
2, 1203108, Note_on_c, 0, 60, 0
2, 1203116, Note_on_c, 0, 69, 0
2, 1203120, Note_on_c, 0, 78, 0
2, 1203140, Note_on_c, 0, 57, 0
2, 1203140, Control_c, 0, 64, 56
2, 1203152, Control_c, 0, 64, 0
2, 1203176, Note_on_c, 0, 75, 87
2, 1203184, Note_on_c, 0, 69, 74
2, 1203188, Note_on_c, 0, 71, 71
2, 1203188, Note_on_c, 0, 59, 83
2, 1203596, Note_on_c, 0, 71, 0
2, 1203600, Note_on_c, 0, 69, 0
2, 1203608, Note_on_c, 0, 59, 0
2, 1203624, Note_on_c, 0, 75, 0
2, 1203636, Note_on_c, 0, 76, 88
2, 1203640, Note_on_c, 0, 68, 74
2, 1203644, Note_on_c, 0, 59, 72
2, 1203644, Note_on_c, 0, 71, 68
2, 1203660, Note_on_c, 0, 52, 68
2, 1203776, Note_on_c, 0, 71, 0
2, 1203780, Note_on_c, 0, 76, 0
2, 1203784, Note_on_c, 0, 68, 0
2, 1203784, Note_on_c, 0, 59, 0
2, 1203796, Note_on_c, 0, 52, 0
2, 1204084, Note_on_c, 0, 75, 74
2, 1204096, Note_on_c, 0, 76, 85
2, 1204096, Note_on_c, 0, 69, 73
2, 1204100, Note_on_c, 0, 59, 69
2, 1204100, Note_on_c, 0, 54, 77
2, 1204116, Note_on_c, 0, 71, 53
2, 1204136, Note_on_c, 0, 69, 0
2, 1204136, Note_on_c, 0, 76, 0
2, 1204140, Note_on_c, 0, 59, 0
2, 1204140, Note_on_c, 0, 54, 0
2, 1204144, Note_on_c, 0, 71, 0
2, 1204164, Note_on_c, 0, 75, 0
2, 1204436, Note_on_c, 0, 56, 77
2, 1204440, Note_on_c, 0, 71, 66
2, 1204440, Note_on_c, 0, 76, 73
2, 1204460, Note_on_c, 0, 56, 0
2, 1204504, Note_on_c, 0, 76, 0
2, 1204504, Note_on_c, 0, 71, 0
2, 1204580, Note_on_c, 0, 55, 76
2, 1204580, Note_on_c, 0, 85, 90
2, 1204580, Note_on_c, 0, 73, 73
2, 1204580, Note_on_c, 0, 43, 75
2, 1204580, Note_on_c, 0, 76, 79
2, 1204580, Note_on_c, 0, 81, 84
2, 1204604, Note_on_c, 0, 81, 0
2, 1204604, Note_on_c, 0, 76, 0
2, 1204608, Note_on_c, 0, 43, 0
2, 1204636, Note_on_c, 0, 55, 0
2, 1204644, Note_on_c, 0, 85, 0
2, 1204648, Note_on_c, 0, 73, 0
2, 1204700, Note_on_c, 0, 69, 74
2, 1204764, Note_on_c, 0, 69, 0
2, 1204820, Note_on_c, 0, 68, 76
2, 1204888, Note_on_c, 0, 68, 0
2, 1204928, Note_on_c, 0, 69, 79
2, 1204992, Note_on_c, 0, 69, 0
2, 1205044, Note_on_c, 0, 73, 77
2, 1205044, Note_on_c, 0, 54, 73
2, 1205044, Note_on_c, 0, 85, 90
2, 1205044, Note_on_c, 0, 82, 81
2, 1205044, Note_on_c, 0, 78, 73
2, 1205044, Note_on_c, 0, 42, 74
2, 1205076, Note_on_c, 0, 42, 0
2, 1205076, Note_on_c, 0, 82, 0
2, 1205092, Note_on_c, 0, 54, 0
2, 1205092, Note_on_c, 0, 78, 0
2, 1205120, Note_on_c, 0, 85, 0
2, 1205120, Note_on_c, 0, 73, 0
2, 1205160, Note_on_c, 0, 70, 83
2, 1205232, Note_on_c, 0, 70, 0
2, 1205276, Note_on_c, 0, 69, 77
2, 1205356, Note_on_c, 0, 69, 0
2, 1205392, Note_on_c, 0, 70, 78
2, 1205428, Note_on_c, 0, 70, 0
2, 1205492, Note_on_c, 0, 73, 83
2, 1205492, Note_on_c, 0, 40, 78
2, 1205492, Note_on_c, 0, 65, 81
2, 1205492, Note_on_c, 0, 82, 83
2, 1205492, Note_on_c, 0, 79, 82
2, 1205492, Note_on_c, 0, 52, 76
2, 1205492, Note_on_c, 0, 85, 90
2, 1205520, Note_on_c, 0, 40, 0
2, 1205524, Note_on_c, 0, 79, 0
2, 1205528, Note_on_c, 0, 52, 0
2, 1205552, Note_on_c, 0, 73, 0
2, 1205556, Note_on_c, 0, 65, 0
2, 1205576, Note_on_c, 0, 82, 0
2, 1205584, Note_on_c, 0, 85, 0
2, 1205616, Note_on_c, 0, 66, 78
2, 1205680, Note_on_c, 0, 66, 0
2, 1205724, Note_on_c, 0, 68, 73
2, 1205796, Note_on_c, 0, 68, 0
2, 1205848, Note_on_c, 0, 86, 86
2, 1205848, Note_on_c, 0, 70, 78
2, 1205848, Note_on_c, 0, 74, 75
2, 1205848, Note_on_c, 0, 79, 68
2, 1205848, Note_on_c, 0, 82, 79
2, 1205848, Note_on_c, 0, 52, 78
2, 1205848, Note_on_c, 0, 40, 80
2, 1205876, Note_on_c, 0, 79, 0
2, 1205876, Note_on_c, 0, 74, 0
2, 1205888, Note_on_c, 0, 82, 0
2, 1205888, Note_on_c, 0, 52, 0
2, 1205896, Note_on_c, 0, 86, 0
2, 1205916, Note_on_c, 0, 40, 0
2, 1205924, Note_on_c, 0, 70, 0
2, 1205960, Note_on_c, 0, 85, 93
2, 1205960, Note_on_c, 0, 39, 76
2, 1205960, Note_on_c, 0, 73, 89
2, 1205960, Note_on_c, 0, 51, 73
2, 1205960, Note_on_c, 0, 78, 83
2, 1205960, Note_on_c, 0, 83, 70
2, 1205984, Note_on_c, 0, 83, 0
2, 1205984, Note_on_c, 0, 51, 0
2, 1205992, Note_on_c, 0, 39, 0
2, 1206020, Note_on_c, 0, 73, 0
2, 1206024, Note_on_c, 0, 78, 0
2, 1206040, Note_on_c, 0, 85, 0
2, 1206076, Note_on_c, 0, 66, 78
2, 1206140, Note_on_c, 0, 66, 0
2, 1206200, Note_on_c, 0, 65, 76
2, 1206240, Note_on_c, 0, 65, 0
2, 1206312, Note_on_c, 0, 66, 76
2, 1206368, Note_on_c, 0, 66, 0
2, 1206412, Note_on_c, 0, 83, 92
2, 1206412, Note_on_c, 0, 78, 78
2, 1206412, Note_on_c, 0, 38, 77
2, 1206412, Note_on_c, 0, 50, 72
2, 1206412, Note_on_c, 0, 71, 82
2, 1206460, Note_on_c, 0, 38, 0
2, 1206468, Note_on_c, 0, 78, 0
2, 1206472, Note_on_c, 0, 50, 0
2, 1206476, Note_on_c, 0, 83, 0
2, 1206480, Note_on_c, 0, 71, 0
2, 1206540, Note_on_c, 0, 66, 78
2, 1206612, Note_on_c, 0, 66, 0
2, 1206644, Note_on_c, 0, 65, 73
2, 1206728, Note_on_c, 0, 65, 0
2, 1206756, Note_on_c, 0, 66, 72
2, 1206792, Note_on_c, 0, 66, 0
2, 1206884, Note_on_c, 0, 83, 84
2, 1206884, Note_on_c, 0, 71, 77
2, 1206884, Note_on_c, 0, 78, 76
2, 1206884, Note_on_c, 0, 61, 83
2, 1206884, Note_on_c, 0, 49, 73
2, 1206884, Note_on_c, 0, 37, 77
2, 1206928, Note_on_c, 0, 49, 0
2, 1206936, Note_on_c, 0, 37, 0
2, 1206940, Note_on_c, 0, 61, 0
2, 1206960, Note_on_c, 0, 71, 0
2, 1206972, Note_on_c, 0, 83, 0
2, 1206976, Note_on_c, 0, 78, 0
2, 1206992, Note_on_c, 0, 63, 73
2, 1207052, Note_on_c, 0, 63, 0
2, 1207100, Note_on_c, 0, 64, 75
2, 1207168, Note_on_c, 0, 64, 0
2, 1207204, Note_on_c, 0, 85, 89
2, 1207204, Note_on_c, 0, 65, 78
2, 1207204, Note_on_c, 0, 77, 69
2, 1207204, Note_on_c, 0, 73, 68
2, 1207204, Note_on_c, 0, 49, 78
2, 1207204, Note_on_c, 0, 37, 81
2, 1207228, Note_on_c, 0, 77, 0
2, 1207244, Note_on_c, 0, 73, 0
2, 1207248, Note_on_c, 0, 49, 0
2, 1207248, Note_on_c, 0, 65, 0
2, 1207248, Note_on_c, 0, 37, 0
2, 1207256, Note_on_c, 0, 85, 0
2, 1207324, Note_on_c, 0, 83, 91
2, 1207324, Note_on_c, 0, 78, 73
2, 1207324, Note_on_c, 0, 30, 79
2, 1207324, Note_on_c, 0, 42, 77
2, 1207324, Note_on_c, 0, 73, 87
2, 1207324, Note_on_c, 0, 71, 88
2, 1207324, Note_on_c, 0, 54, 76
2, 1207380, Note_on_c, 0, 78, 0
2, 1207384, Note_on_c, 0, 42, 0
2, 1207388, Note_on_c, 0, 83, 0
2, 1207392, Note_on_c, 0, 73, 0
2, 1207396, Note_on_c, 0, 71, 0
2, 1207400, Note_on_c, 0, 30, 0
2, 1207408, Note_on_c, 0, 54, 0
2, 1207452, Note_on_c, 0, 61, 78
2, 1207516, Note_on_c, 0, 61, 0
2, 1207564, Note_on_c, 0, 60, 74
2, 1207616, Note_on_c, 0, 60, 0
2, 1207656, Note_on_c, 0, 61, 75
2, 1207712, Note_on_c, 0, 61, 0
2, 1207784, Note_on_c, 0, 69, 83
2, 1207804, Note_on_c, 0, 81, 85
2, 1207804, Note_on_c, 0, 78, 74
2, 1207804, Note_on_c, 0, 73, 68
2, 1207804, Note_on_c, 0, 33, 80
2, 1207804, Note_on_c, 0, 45, 78
2, 1207804, Note_on_c, 0, 57, 76
2, 1207848, Note_on_c, 0, 69, 0
2, 1207860, Note_on_c, 0, 73, 0
2, 1207860, Note_on_c, 0, 78, 0
2, 1207868, Note_on_c, 0, 81, 0
2, 1207888, Note_on_c, 0, 57, 0
2, 1207896, Note_on_c, 0, 66, 79
2, 1207956, Note_on_c, 0, 33, 0
2, 1207972, Note_on_c, 0, 66, 0
2, 1208008, Note_on_c, 0, 65, 75
2, 1208020, Note_on_c, 0, 45, 0
2, 1208064, Note_on_c, 0, 65, 0
2, 1208112, Note_on_c, 0, 66, 75
2, 1208180, Note_on_c, 0, 66, 0
2, 1208256, Note_on_c, 0, 81, 94
2, 1208256, Note_on_c, 0, 71, 80
2, 1208256, Note_on_c, 0, 78, 83
2, 1208256, Note_on_c, 0, 47, 74
2, 1208256, Note_on_c, 0, 35, 80
2, 1208256, Note_on_c, 0, 69, 81
2, 1208312, Note_on_c, 0, 71, 0
2, 1208328, Note_on_c, 0, 69, 0
2, 1208336, Note_on_c, 0, 47, 0
2, 1208340, Note_on_c, 0, 81, 0
2, 1208344, Note_on_c, 0, 66, 73
2, 1208348, Note_on_c, 0, 78, 0
2, 1208348, Note_on_c, 0, 35, 0
2, 1208420, Note_on_c, 0, 66, 0
2, 1208464, Note_on_c, 0, 62, 63
2, 1208504, Note_on_c, 0, 62, 0
2, 1208588, Note_on_c, 0, 83, 89
2, 1208588, Note_on_c, 0, 75, 75
2, 1208588, Note_on_c, 0, 63, 77
2, 1208588, Note_on_c, 0, 71, 82
2, 1208588, Note_on_c, 0, 35, 78
2, 1208588, Note_on_c, 0, 47, 76
2, 1208624, Note_on_c, 0, 75, 0
2, 1208632, Note_on_c, 0, 35, 0
2, 1208632, Note_on_c, 0, 47, 0
2, 1208640, Note_on_c, 0, 83, 0
2, 1208652, Note_on_c, 0, 63, 0
2, 1208672, Note_on_c, 0, 71, 0
2, 1208696, Note_on_c, 0, 68, 88
2, 1208696, Note_on_c, 0, 80, 90
2, 1208696, Note_on_c, 0, 71, 73
2, 1208696, Note_on_c, 0, 76, 76
2, 1208696, Note_on_c, 0, 40, 76
2, 1208696, Note_on_c, 0, 52, 72
2, 1208740, Note_on_c, 0, 40, 0
2, 1208748, Note_on_c, 0, 52, 0
2, 1208752, Note_on_c, 0, 71, 0
2, 1208756, Note_on_c, 0, 76, 0
2, 1208784, Note_on_c, 0, 80, 0
2, 1208784, Note_on_c, 0, 68, 0
2, 1208804, Note_on_c, 0, 64, 78
2, 1208880, Note_on_c, 0, 64, 0
2, 1208932, Note_on_c, 0, 63, 73
2, 1209004, Note_on_c, 0, 63, 0
2, 1209032, Note_on_c, 0, 64, 81
2, 1209108, Note_on_c, 0, 64, 0
2, 1209132, Note_on_c, 0, 68, 83
2, 1209152, Note_on_c, 0, 78, 87
2, 1209152, Note_on_c, 0, 66, 85
2, 1209152, Note_on_c, 0, 54, 78
2, 1209152, Note_on_c, 0, 75, 79
2, 1209152, Note_on_c, 0, 59, 78
2, 1209152, Note_on_c, 0, 64, 76
2, 1209152, Note_on_c, 0, 42, 79
2, 1209212, Note_on_c, 0, 68, 0
2, 1209216, Note_on_c, 0, 54, 0
2, 1209228, Note_on_c, 0, 78, 0
2, 1209232, Note_on_c, 0, 75, 0
2, 1209236, Note_on_c, 0, 66, 0
2, 1209236, Note_on_c, 0, 42, 0
2, 1209236, Note_on_c, 0, 64, 0
2, 1209248, Note_on_c, 0, 59, 0
2, 1209256, Note_on_c, 0, 64, 79
2, 1209340, Note_on_c, 0, 64, 0
2, 1209384, Note_on_c, 0, 63, 78
2, 1209456, Note_on_c, 0, 63, 0
2, 1209488, Note_on_c, 0, 64, 78
2, 1209580, Note_on_c, 0, 64, 0
2, 1209616, Note_on_c, 0, 76, 88
2, 1209616, Note_on_c, 0, 64, 80
2, 1209616, Note_on_c, 0, 56, 73
2, 1209616, Note_on_c, 0, 64, 78
2, 1209616, Note_on_c, 0, 63, 82
2, 1209616, Note_on_c, 0, 44, 78
2, 1209660, Note_on_c, 0, 64, 0
2, 1209680, Note_on_c, 0, 56, 0
2, 1209684, Note_on_c, 0, 76, 0
2, 1209692, Note_on_c, 0, 63, 0
2, 1209700, Note_on_c, 0, 44, 0
2, 1209700, Note_on_c, 0, 64, 0
2, 1209752, Note_on_c, 0, 64, 76
2, 1209820, Note_on_c, 0, 64, 0
2, 1209860, Note_on_c, 0, 68, 78
2, 1209936, Note_on_c, 0, 68, 0
2, 1209960, Note_on_c, 0, 88, 95
2, 1209960, Note_on_c, 0, 76, 78
2, 1209960, Note_on_c, 0, 40, 78
2, 1209960, Note_on_c, 0, 52, 73
2, 1209960, Note_on_c, 0, 71, 82
2, 1209984, Note_on_c, 0, 40, 0
2, 1209988, Note_on_c, 0, 52, 0
2, 1209992, Note_on_c, 0, 76, 0
2, 1210008, Note_on_c, 0, 88, 0
2, 1210036, Note_on_c, 0, 71, 0
2, 1210080, Note_on_c, 0, 85, 97
2, 1210080, Note_on_c, 0, 76, 93
2, 1210080, Note_on_c, 0, 57, 72
2, 1210080, Note_on_c, 0, 45, 75
2, 1210080, Note_on_c, 0, 73, 88
2, 1210120, Note_on_c, 0, 45, 0
2, 1210124, Note_on_c, 0, 57, 0
2, 1210156, Note_on_c, 0, 76, 0
2, 1210164, Note_on_c, 0, 73, 0
2, 1210172, Note_on_c, 0, 85, 0
2, 1210240, Note_on_c, 0, 69, 80
2, 1210296, Note_on_c, 0, 69, 0
2, 1210352, Note_on_c, 0, 68, 79
2, 1210424, Note_on_c, 0, 68, 0
2, 1210456, Note_on_c, 0, 69, 84
2, 1210512, Note_on_c, 0, 69, 0
2, 1210572, Note_on_c, 0, 85, 94
2, 1210572, Note_on_c, 0, 83, 83
2, 1210572, Note_on_c, 0, 77, 88
2, 1210572, Note_on_c, 0, 43, 78
2, 1210572, Note_on_c, 0, 55, 74
2, 1210572, Note_on_c, 0, 73, 87
2, 1210612, Note_on_c, 0, 43, 0
2, 1210612, Note_on_c, 0, 77, 0
2, 1210648, Note_on_c, 0, 83, 0
2, 1210652, Note_on_c, 0, 73, 0
2, 1210652, Note_on_c, 0, 55, 0
2, 1210668, Note_on_c, 0, 85, 0
2, 1210684, Note_on_c, 0, 71, 83
2, 1210768, Note_on_c, 0, 71, 0
2, 1210788, Note_on_c, 0, 70, 84
2, 1210860, Note_on_c, 0, 70, 0
2, 1210896, Note_on_c, 0, 71, 82
2, 1210984, Note_on_c, 0, 71, 0
2, 1211044, Note_on_c, 0, 88, 106
2, 1211044, Note_on_c, 0, 54, 78
2, 1211044, Note_on_c, 0, 61, 73
2, 1211044, Note_on_c, 0, 76, 92
2, 1211044, Note_on_c, 0, 82, 95
2, 1211044, Note_on_c, 0, 42, 78
2, 1211096, Note_on_c, 0, 61, 0
2, 1211096, Note_on_c, 0, 54, 0
2, 1211128, Note_on_c, 0, 42, 0
2, 1211132, Note_on_c, 0, 76, 0
2, 1211140, Note_on_c, 0, 82, 0
2, 1211148, Note_on_c, 0, 88, 0
2, 1211148, Note_on_c, 0, 69, 81
2, 1211216, Note_on_c, 0, 69, 0
2, 1211268, Note_on_c, 0, 70, 81
2, 1211328, Note_on_c, 0, 70, 0
2, 1211376, Note_on_c, 0, 86, 91
2, 1211376, Note_on_c, 0, 74, 92
2, 1211376, Note_on_c, 0, 82, 79
2, 1211376, Note_on_c, 0, 64, 76
2, 1211376, Note_on_c, 0, 54, 78
2, 1211376, Note_on_c, 0, 42, 78
2, 1211416, Note_on_c, 0, 82, 0
2, 1211428, Note_on_c, 0, 86, 0
2, 1211432, Note_on_c, 0, 74, 0
2, 1211460, Note_on_c, 0, 64, 0
2, 1211460, Note_on_c, 0, 42, 0
2, 1211460, Note_on_c, 0, 54, 0
2, 1211504, Note_on_c, 0, 85, 92
2, 1211504, Note_on_c, 0, 78, 79
2, 1211504, Note_on_c, 0, 62, 76
2, 1211504, Note_on_c, 0, 59, 77
2, 1211504, Note_on_c, 0, 73, 92
2, 1211504, Note_on_c, 0, 47, 78
2, 1211548, Note_on_c, 0, 62, 0
2, 1211576, Note_on_c, 0, 59, 0
2, 1211588, Note_on_c, 0, 47, 0
2, 1211608, Note_on_c, 0, 73, 0
2, 1211640, Note_on_c, 0, 66, 73
2, 1211664, Note_on_c, 0, 78, 0
2, 1211680, Note_on_c, 0, 85, 0
2, 1211712, Note_on_c, 0, 66, 0
2, 1211760, Note_on_c, 0, 65, 72
2, 1211828, Note_on_c, 0, 65, 0
2, 1211864, Note_on_c, 0, 66, 78
2, 1211936, Note_on_c, 0, 66, 0
2, 1211968, Note_on_c, 0, 78, 76
2, 1211968, Note_on_c, 0, 71, 87
2, 1211968, Note_on_c, 0, 63, 76
2, 1211968, Note_on_c, 0, 57, 78
2, 1211968, Note_on_c, 0, 83, 88
2, 1211968, Note_on_c, 0, 45, 78
2, 1212024, Note_on_c, 0, 57, 0
2, 1212024, Note_on_c, 0, 78, 0
2, 1212032, Note_on_c, 0, 63, 0
2, 1212052, Note_on_c, 0, 71, 0
2, 1212052, Note_on_c, 0, 83, 0
2, 1212052, Note_on_c, 0, 45, 0
2, 1212112, Note_on_c, 0, 63, 77
2, 1212188, Note_on_c, 0, 63, 0
2, 1212228, Note_on_c, 0, 62, 73
2, 1212292, Note_on_c, 0, 62, 0
2, 1212332, Note_on_c, 0, 63, 77
2, 1212384, Note_on_c, 0, 63, 0
2, 1212436, Note_on_c, 0, 86, 103
2, 1212436, Note_on_c, 0, 56, 77
2, 1212436, Note_on_c, 0, 76, 87
2, 1212436, Note_on_c, 0, 74, 93
2, 1212436, Note_on_c, 0, 44, 78
2, 1212496, Note_on_c, 0, 74, 0
2, 1212496, Note_on_c, 0, 56, 0
2, 1212520, Note_on_c, 0, 44, 0
2, 1212528, Note_on_c, 0, 86, 0
2, 1212552, Note_on_c, 0, 76, 0
2, 1212564, Note_on_c, 0, 63, 85
2, 1212624, Note_on_c, 0, 63, 0
2, 1212672, Note_on_c, 0, 64, 78
2, 1212740, Note_on_c, 0, 64, 0
2, 1212800, Note_on_c, 0, 56, 76
2, 1212800, Note_on_c, 0, 44, 78
2, 1212800, Note_on_c, 0, 76, 68
2, 1212800, Note_on_c, 0, 73, 87
2, 1212800, Note_on_c, 0, 85, 96
2, 1212852, Note_on_c, 0, 85, 0
2, 1212852, Note_on_c, 0, 76, 0
2, 1212868, Note_on_c, 0, 73, 0
2, 1212884, Note_on_c, 0, 44, 0
2, 1212884, Note_on_c, 0, 56, 0
2, 1212928, Note_on_c, 0, 83, 94
2, 1212928, Note_on_c, 0, 55, 73
2, 1212928, Note_on_c, 0, 71, 88
2, 1212928, Note_on_c, 0, 43, 76
2, 1212928, Note_on_c, 0, 76, 83
2, 1212928, Note_on_c, 0, 73, 71
2, 1212972, Note_on_c, 0, 43, 0
2, 1212996, Note_on_c, 0, 71, 0
2, 1213008, Note_on_c, 0, 55, 0
2, 1213032, Note_on_c, 0, 83, 0
2, 1213032, Note_on_c, 0, 73, 0
2, 1213040, Note_on_c, 0, 76, 0
2, 1213040, Note_on_c, 0, 61, 87
2, 1213104, Note_on_c, 0, 61, 0
2, 1213152, Note_on_c, 0, 60, 78
2, 1213216, Note_on_c, 0, 60, 0
2, 1213252, Note_on_c, 0, 61, 86
2, 1213320, Note_on_c, 0, 61, 0
2, 1213384, Note_on_c, 0, 62, 67
2, 1213384, Note_on_c, 0, 81, 97
2, 1213384, Note_on_c, 0, 42, 78
2, 1213384, Note_on_c, 0, 54, 70
2, 1213384, Note_on_c, 0, 69, 82
2, 1213396, Note_on_c, 0, 74, 78
2, 1213440, Note_on_c, 0, 54, 0
2, 1213444, Note_on_c, 0, 42, 0
2, 1213460, Note_on_c, 0, 69, 0
2, 1213488, Note_on_c, 0, 81, 0
2, 1213488, Note_on_c, 0, 66, 83
2, 1213508, Note_on_c, 0, 62, 0
2, 1213516, Note_on_c, 0, 74, 0
2, 1213540, Note_on_c, 0, 66, 0
2, 1213600, Note_on_c, 0, 61, 84
2, 1213668, Note_on_c, 0, 61, 0
2, 1213712, Note_on_c, 0, 62, 78
2, 1213776, Note_on_c, 0, 62, 0
2, 1213824, Note_on_c, 0, 68, 82
2, 1213832, Note_on_c, 0, 80, 94
2, 1213832, Note_on_c, 0, 53, 74
2, 1213832, Note_on_c, 0, 75, 79
2, 1213832, Note_on_c, 0, 41, 77
2, 1213832, Note_on_c, 0, 62, 68
2, 1213884, Note_on_c, 0, 41, 0
2, 1213892, Note_on_c, 0, 53, 0
2, 1213896, Note_on_c, 0, 68, 0
2, 1213900, Note_on_c, 0, 62, 0
2, 1213944, Note_on_c, 0, 63, 83
2, 1213996, Note_on_c, 0, 75, 0
2, 1213996, Note_on_c, 0, 80, 0
2, 1214020, Note_on_c, 0, 63, 0
2, 1214064, Note_on_c, 0, 68, 83
2, 1214148, Note_on_c, 0, 68, 0
2, 1214188, Note_on_c, 0, 81, 96
2, 1214188, Note_on_c, 0, 75, 79
2, 1214188, Note_on_c, 0, 69, 85
2, 1214188, Note_on_c, 0, 53, 76
2, 1214188, Note_on_c, 0, 41, 79
2, 1214236, Note_on_c, 0, 75, 0
2, 1214240, Note_on_c, 0, 81, 0
2, 1214240, Note_on_c, 0, 69, 0
2, 1214272, Note_on_c, 0, 53, 0
2, 1214272, Note_on_c, 0, 41, 0
2, 1214320, Note_on_c, 0, 52, 73
2, 1214320, Note_on_c, 0, 74, 83
2, 1214320, Note_on_c, 0, 83, 97
2, 1214320, Note_on_c, 0, 81, 82
2, 1214320, Note_on_c, 0, 40, 80
2, 1214320, Note_on_c, 0, 69, 77
2, 1214320, Note_on_c, 0, 71, 88
2, 1214356, Note_on_c, 0, 52, 0
2, 1214368, Note_on_c, 0, 40, 0
2, 1214392, Note_on_c, 0, 69, 0
2, 1214408, Note_on_c, 0, 81, 0
2, 1214420, Note_on_c, 0, 71, 0
2, 1214420, Note_on_c, 0, 64, 79
2, 1214444, Note_on_c, 0, 74, 0
2, 1214448, Note_on_c, 0, 83, 0
2, 1214488, Note_on_c, 0, 64, 0
2, 1214540, Note_on_c, 0, 63, 78
2, 1214612, Note_on_c, 0, 63, 0
2, 1214660, Note_on_c, 0, 64, 79
2, 1214724, Note_on_c, 0, 64, 0
2, 1214780, Note_on_c, 0, 83, 92
2, 1214780, Note_on_c, 0, 74, 88
2, 1214780, Note_on_c, 0, 80, 82
2, 1214780, Note_on_c, 0, 52, 74
2, 1214780, Note_on_c, 0, 40, 79
2, 1214780, Note_on_c, 0, 68, 79
2, 1214780, Note_on_c, 0, 71, 85
2, 1214828, Note_on_c, 0, 52, 0
2, 1214836, Note_on_c, 0, 40, 0
2, 1214856, Note_on_c, 0, 74, 0
2, 1214860, Note_on_c, 0, 68, 0
2, 1214864, Note_on_c, 0, 80, 0
2, 1214864, Note_on_c, 0, 71, 0
2, 1214876, Note_on_c, 0, 83, 0
2, 1214876, Note_on_c, 0, 62, 80
2, 1214948, Note_on_c, 0, 62, 0
2, 1214984, Note_on_c, 0, 61, 82
2, 1215056, Note_on_c, 0, 61, 0
2, 1215096, Note_on_c, 0, 62, 81
2, 1215156, Note_on_c, 0, 62, 0
2, 1215232, Note_on_c, 0, 81, 89
2, 1215232, Note_on_c, 0, 61, 68
2, 1215232, Note_on_c, 0, 73, 70
2, 1215232, Note_on_c, 0, 57, 78
2, 1215232, Note_on_c, 0, 76, 73
2, 1215232, Note_on_c, 0, 45, 82
2, 1215232, Note_on_c, 0, 69, 88
2, 1215296, Control_c, 0, 64, 56
2, 1215304, Note_on_c, 0, 57, 0
2, 1215308, Note_on_c, 0, 45, 0
2, 1215308, Control_c, 0, 64, 127
2, 1215348, Note_on_c, 0, 61, 0
2, 1215376, Note_on_c, 0, 69, 0
2, 1215456, Note_on_c, 0, 76, 0
2, 1215468, Note_on_c, 0, 73, 0
2, 1215472, Note_on_c, 0, 81, 0
2, 1215576, Note_on_c, 0, 71, 90
2, 1215584, Note_on_c, 0, 59, 75
2, 1215584, Note_on_c, 0, 47, 73
2, 1215620, Note_on_c, 0, 47, 0
2, 1215620, Note_on_c, 0, 59, 0
2, 1215648, Note_on_c, 0, 71, 0
2, 1215668, Control_c, 0, 64, 56
2, 1215676, Note_on_c, 0, 73, 99
2, 1215684, Control_c, 0, 64, 0
2, 1215692, Note_on_c, 0, 61, 90
2, 1215700, Note_on_c, 0, 49, 86
2, 1215752, Note_on_c, 0, 49, 0
2, 1215760, Note_on_c, 0, 61, 0
2, 1215764, Control_c, 0, 64, 56
2, 1215780, Control_c, 0, 64, 127
2, 1215808, Note_on_c, 0, 73, 0
2, 1216116, Note_on_c, 0, 73, 101
2, 1216116, Control_c, 0, 64, 104
2, 1216124, Note_on_c, 0, 61, 85
2, 1216124, Note_on_c, 0, 49, 78
2, 1216128, Control_c, 0, 64, 24
2, 1216140, Control_c, 0, 64, 0
2, 1216184, Control_c, 0, 64, 56
2, 1216200, Control_c, 0, 64, 127
2, 1216208, Note_on_c, 0, 49, 0
2, 1216244, Note_on_c, 0, 61, 0
2, 1216424, Note_on_c, 0, 73, 0
2, 1216556, Note_on_c, 0, 66, 76
2, 1216556, Note_on_c, 0, 78, 100
2, 1216556, Note_on_c, 0, 61, 78
2, 1216564, Note_on_c, 0, 63, 77
2, 1216564, Control_c, 0, 64, 40
2, 1216568, Note_on_c, 0, 73, 83
2, 1216576, Note_on_c, 0, 75, 77
2, 1216576, Control_c, 0, 64, 0
2, 1216600, Note_on_c, 0, 75, 0
2, 1216608, Note_on_c, 0, 61, 0
2, 1216612, Note_on_c, 0, 63, 0
2, 1216616, Note_on_c, 0, 66, 0
2, 1216616, Control_c, 0, 64, 56
2, 1216620, Note_on_c, 0, 73, 0
2, 1216632, Control_c, 0, 64, 127
2, 1216648, Note_on_c, 0, 78, 0
2, 1216884, Note_on_c, 0, 81, 99
2, 1216888, Note_on_c, 0, 78, 82
2, 1216888, Note_on_c, 0, 73, 78
2, 1216888, Note_on_c, 0, 66, 73
2, 1216892, Note_on_c, 0, 69, 78
2, 1216896, Note_on_c, 0, 61, 68
2, 1216920, Note_on_c, 0, 61, 0
2, 1216920, Note_on_c, 0, 69, 0
2, 1216932, Note_on_c, 0, 81, 0
2, 1216936, Note_on_c, 0, 73, 0
2, 1216940, Note_on_c, 0, 78, 0
2, 1216940, Note_on_c, 0, 66, 0
2, 1216952, Control_c, 0, 64, 56
2, 1216964, Control_c, 0, 64, 0
2, 1216976, Note_on_c, 0, 80, 105
2, 1216976, Note_on_c, 0, 61, 78
2, 1216976, Note_on_c, 0, 68, 78
2, 1216976, Note_on_c, 0, 76, 81
2, 1216976, Note_on_c, 0, 73, 73
2, 1216976, Note_on_c, 0, 64, 76
2, 1217076, Control_c, 0, 64, 88
2, 1217092, Note_on_c, 0, 73, 0
2, 1217092, Control_c, 0, 64, 127
2, 1217096, Note_on_c, 0, 61, 0
2, 1217100, Note_on_c, 0, 76, 0
2, 1217104, Note_on_c, 0, 68, 0
2, 1217112, Note_on_c, 0, 64, 0
2, 1217164, Note_on_c, 0, 80, 0
2, 1217384, Note_on_c, 0, 73, 98
2, 1217416, Note_on_c, 0, 61, 82
2, 1217460, Note_on_c, 0, 73, 0
2, 1217636, Control_c, 0, 64, 104
2, 1217648, Control_c, 0, 64, 0
2, 1217652, Note_on_c, 0, 85, 114
2, 1217664, Note_on_c, 0, 73, 88
2, 1217720, Note_on_c, 0, 73, 0
2, 1217732, Control_c, 0, 64, 88
2, 1217748, Control_c, 0, 64, 127
2, 1217756, Note_on_c, 0, 61, 0
2, 1218056, Note_on_c, 0, 67, 81
2, 1218060, Note_on_c, 0, 61, 66
2, 1218060, Note_on_c, 0, 64, 68
2, 1218068, Note_on_c, 0, 58, 69
2, 1218068, Control_c, 0, 64, 72
2, 1218080, Control_c, 0, 64, 0
2, 1218112, Note_on_c, 0, 58, 0
2, 1218124, Note_on_c, 0, 67, 0
2, 1218124, Control_c, 0, 64, 72
2, 1218136, Control_c, 0, 64, 127
2, 1218148, Note_on_c, 0, 64, 0
2, 1218160, Note_on_c, 0, 61, 0
2, 1218264, Control_c, 0, 64, 72
2, 1218276, Control_c, 0, 64, 0
2, 1218288, Note_on_c, 0, 61, 72
2, 1218292, Note_on_c, 0, 68, 82
2, 1218296, Note_on_c, 0, 64, 76
2, 1218300, Note_on_c, 0, 56, 73
2, 1218360, Control_c, 0, 64, 88
2, 1218372, Control_c, 0, 64, 127
2, 1218452, Note_on_c, 0, 85, 0
2, 1218488, Note_on_c, 0, 56, 0
2, 1218488, Note_on_c, 0, 80, 94
2, 1218516, Note_on_c, 0, 68, 0
2, 1218524, Note_on_c, 0, 64, 0
2, 1218524, Note_on_c, 0, 61, 0
2, 1218580, Note_on_c, 0, 80, 0
2, 1218684, Note_on_c, 0, 92, 111
2, 1218736, Control_c, 0, 64, 88
2, 1218748, Control_c, 0, 64, 0
2, 1218776, Note_on_c, 0, 56, 72
2, 1218824, Note_on_c, 0, 63, 73
2, 1218836, Control_c, 0, 64, 88
2, 1218840, Note_on_c, 0, 56, 0
2, 1218848, Control_c, 0, 64, 127
2, 1218856, Note_on_c, 0, 66, 73
2, 1218932, Note_on_c, 0, 72, 88
2, 1218980, Note_on_c, 0, 63, 0
2, 1218988, Note_on_c, 0, 92, 0
2, 1219044, Note_on_c, 0, 93, 99
2, 1219068, Note_on_c, 0, 63, 49
2, 1219128, Note_on_c, 0, 93, 0
2, 1219152, Note_on_c, 0, 90, 95
2, 1219244, Note_on_c, 0, 87, 93
2, 1219260, Note_on_c, 0, 90, 0
2, 1219332, Note_on_c, 0, 72, 0
2, 1219336, Note_on_c, 0, 66, 0
2, 1219336, Note_on_c, 0, 87, 0
2, 1219344, Note_on_c, 0, 84, 94
2, 1219352, Note_on_c, 0, 63, 0
2, 1219424, Note_on_c, 0, 84, 0
2, 1219444, Note_on_c, 0, 92, 100
2, 1219496, Note_on_c, 0, 92, 0
2, 1219532, Note_on_c, 0, 85, 98
2, 1219532, Control_c, 0, 64, 104
2, 1219548, Control_c, 0, 64, 40
2, 1219552, Note_on_c, 0, 73, 78
2, 1219552, Note_on_c, 0, 68, 73
2, 1219560, Control_c, 0, 64, 0
2, 1219564, Note_on_c, 0, 64, 67
2, 1219568, Note_on_c, 0, 61, 57
2, 1219620, Note_on_c, 0, 85, 0
2, 1219628, Control_c, 0, 64, 72
2, 1219644, Note_on_c, 0, 88, 96
2, 1219644, Control_c, 0, 64, 127
2, 1219728, Note_on_c, 0, 88, 0
2, 1219736, Note_on_c, 0, 85, 88
2, 1219832, Note_on_c, 0, 80, 93
2, 1219844, Note_on_c, 0, 85, 0
2, 1219860, Note_on_c, 0, 73, 0
2, 1219904, Note_on_c, 0, 64, 0
2, 1219920, Note_on_c, 0, 68, 0
2, 1219920, Note_on_c, 0, 80, 0
2, 1219932, Note_on_c, 0, 61, 0
2, 1219932, Note_on_c, 0, 76, 89
2, 1220012, Note_on_c, 0, 76, 0
2, 1220028, Note_on_c, 0, 73, 92
2, 1220104, Note_on_c, 0, 73, 0
2, 1220132, Note_on_c, 0, 61, 89
2, 1220192, Note_on_c, 0, 61, 0
2, 1220256, Control_c, 0, 64, 88
2, 1220272, Control_c, 0, 64, 56
2, 1220284, Control_c, 0, 64, 0
2, 1220372, Note_on_c, 0, 73, 98
2, 1220380, Note_on_c, 0, 61, 88
2, 1220380, Note_on_c, 0, 49, 85
2, 1220440, Control_c, 0, 64, 72
2, 1220444, Note_on_c, 0, 49, 0
2, 1220444, Note_on_c, 0, 61, 0
2, 1220452, Control_c, 0, 64, 127
2, 1220500, Note_on_c, 0, 73, 0
2, 1220684, Note_on_c, 0, 75, 91
2, 1220696, Note_on_c, 0, 63, 82
2, 1220704, Note_on_c, 0, 51, 83
2, 1220756, Note_on_c, 0, 51, 0
2, 1220756, Note_on_c, 0, 63, 0
2, 1220764, Note_on_c, 0, 75, 0
2, 1220780, Note_on_c, 0, 76, 103
2, 1220808, Note_on_c, 0, 64, 90
2, 1220816, Note_on_c, 0, 52, 84
2, 1220816, Control_c, 0, 64, 40
2, 1220828, Control_c, 0, 64, 0
2, 1220928, Control_c, 0, 64, 88
2, 1220940, Control_c, 0, 64, 127
2, 1220944, Note_on_c, 0, 52, 0
2, 1220980, Note_on_c, 0, 64, 0
2, 1220984, Note_on_c, 0, 76, 0
2, 1221204, Note_on_c, 0, 76, 99
2, 1221224, Note_on_c, 0, 64, 81
2, 1221232, Note_on_c, 0, 52, 78
2, 1221232, Control_c, 0, 64, 56
2, 1221244, Control_c, 0, 64, 0
2, 1221332, Control_c, 0, 64, 72
2, 1221344, Control_c, 0, 64, 127
2, 1221412, Note_on_c, 0, 52, 0
2, 1221460, Note_on_c, 0, 64, 0
2, 1221564, Note_on_c, 0, 76, 0
2, 1221660, Note_on_c, 0, 81, 101
2, 1221672, Note_on_c, 0, 78, 79
2, 1221672, Note_on_c, 0, 66, 75
2, 1221672, Note_on_c, 0, 64, 69
2, 1221672, Note_on_c, 0, 76, 77
2, 1221676, Note_on_c, 0, 69, 78
2, 1221680, Control_c, 0, 64, 72
2, 1221692, Control_c, 0, 64, 0
2, 1221712, Note_on_c, 0, 78, 0
2, 1221724, Note_on_c, 0, 76, 0
2, 1221736, Note_on_c, 0, 64, 0
2, 1221736, Note_on_c, 0, 69, 0
2, 1221736, Control_c, 0, 64, 104
2, 1221748, Note_on_c, 0, 66, 0
2, 1221748, Control_c, 0, 64, 127
2, 1221764, Note_on_c, 0, 81, 0
2, 1221976, Note_on_c, 0, 85, 97
2, 1221984, Note_on_c, 0, 73, 86
2, 1221992, Note_on_c, 0, 81, 84
2, 1221992, Note_on_c, 0, 64, 76
2, 1221996, Note_on_c, 0, 76, 78
2, 1222000, Note_on_c, 0, 69, 73
2, 1222016, Note_on_c, 0, 81, 0
2, 1222020, Note_on_c, 0, 76, 0
2, 1222020, Note_on_c, 0, 64, 0
2, 1222024, Note_on_c, 0, 69, 0
2, 1222032, Note_on_c, 0, 73, 0
2, 1222040, Note_on_c, 0, 85, 0
2, 1222056, Control_c, 0, 64, 72
2, 1222068, Control_c, 0, 64, 0
2, 1222080, Note_on_c, 0, 83, 107
2, 1222088, Note_on_c, 0, 76, 78
2, 1222096, Note_on_c, 0, 68, 76
2, 1222096, Note_on_c, 0, 71, 78
2, 1222100, Note_on_c, 0, 80, 72
2, 1222120, Note_on_c, 0, 80, 0
2, 1222120, Note_on_c, 0, 64, 46
2, 1222164, Note_on_c, 0, 76, 0
2, 1222168, Control_c, 0, 64, 72
2, 1222172, Note_on_c, 0, 64, 0
2, 1222184, Control_c, 0, 64, 127
2, 1222200, Note_on_c, 0, 71, 0
2, 1222200, Note_on_c, 0, 68, 0
2, 1222436, Note_on_c, 0, 83, 0
2, 1222456, Note_on_c, 0, 76, 100
2, 1222456, Note_on_c, 0, 64, 80
2, 1222552, Note_on_c, 0, 76, 0
2, 1222668, Control_c, 0, 64, 104
2, 1222684, Control_c, 0, 64, 0
2, 1222700, Note_on_c, 0, 88, 115
2, 1222716, Note_on_c, 0, 76, 88
2, 1222752, Note_on_c, 0, 64, 0
2, 1222768, Control_c, 0, 64, 88
2, 1222772, Note_on_c, 0, 76, 0
2, 1222784, Control_c, 0, 64, 127
2, 1223060, Control_c, 0, 64, 88
2, 1223072, Note_on_c, 0, 64, 79
2, 1223076, Note_on_c, 0, 70, 83
2, 1223076, Control_c, 0, 64, 0
2, 1223080, Note_on_c, 0, 61, 66
2, 1223096, Note_on_c, 0, 67, 65
2, 1223116, Control_c, 0, 64, 40
2, 1223128, Note_on_c, 0, 67, 0
2, 1223132, Control_c, 0, 64, 104
2, 1223140, Note_on_c, 0, 70, 0
2, 1223144, Note_on_c, 0, 61, 0
2, 1223144, Control_c, 0, 64, 127
2, 1223200, Note_on_c, 0, 64, 0
2, 1223296, Control_c, 0, 64, 104
2, 1223312, Control_c, 0, 64, 24
2, 1223316, Note_on_c, 0, 88, 0
2, 1223316, Note_on_c, 0, 71, 88
2, 1223320, Note_on_c, 0, 64, 80
2, 1223320, Note_on_c, 0, 68, 79
2, 1223324, Note_on_c, 0, 59, 74
2, 1223328, Control_c, 0, 64, 0
2, 1223384, Control_c, 0, 64, 88
2, 1223396, Control_c, 0, 64, 127
2, 1223512, Note_on_c, 0, 68, 0
2, 1223520, Note_on_c, 0, 83, 106
2, 1223544, Note_on_c, 0, 59, 0
2, 1223544, Note_on_c, 0, 64, 0
2, 1223580, Note_on_c, 0, 71, 0
2, 1223624, Note_on_c, 0, 83, 0
2, 1223700, Note_on_c, 0, 95, 102
2, 1223772, Control_c, 0, 64, 56
2, 1223780, Note_on_c, 0, 59, 76
2, 1223788, Control_c, 0, 64, 0
2, 1223840, Note_on_c, 0, 66, 76
2, 1223840, Control_c, 0, 64, 56
2, 1223844, Note_on_c, 0, 59, 0
2, 1223852, Control_c, 0, 64, 127
2, 1223876, Note_on_c, 0, 69, 83
2, 1223944, Note_on_c, 0, 75, 80
2, 1223944, Note_on_c, 0, 71, 78
2, 1223980, Note_on_c, 0, 95, 0
2, 1224016, Note_on_c, 0, 97, 98
2, 1224092, Note_on_c, 0, 97, 0
2, 1224112, Note_on_c, 0, 93, 97
2, 1224192, Note_on_c, 0, 71, 0
2, 1224208, Note_on_c, 0, 93, 0
2, 1224208, Note_on_c, 0, 90, 96
2, 1224220, Note_on_c, 0, 69, 0
2, 1224280, Note_on_c, 0, 66, 0
2, 1224304, Note_on_c, 0, 75, 0
2, 1224308, Note_on_c, 0, 90, 0
2, 1224316, Note_on_c, 0, 87, 88
2, 1224388, Note_on_c, 0, 87, 0
2, 1224400, Note_on_c, 0, 95, 95
2, 1224496, Note_on_c, 0, 95, 0
2, 1224512, Control_c, 0, 64, 88
2, 1224520, Note_on_c, 0, 88, 97
2, 1224520, Note_on_c, 0, 76, 83
2, 1224520, Note_on_c, 0, 64, 78
2, 1224520, Note_on_c, 0, 71, 73
2, 1224520, Note_on_c, 0, 52, 73
2, 1224532, Control_c, 0, 64, 0
2, 1224536, Note_on_c, 0, 68, 71
2, 1224600, Control_c, 0, 64, 56
2, 1224604, Note_on_c, 0, 88, 0
2, 1224612, Control_c, 0, 64, 127
2, 1224624, Note_on_c, 0, 92, 93
2, 1224728, Note_on_c, 0, 88, 91
2, 1224748, Note_on_c, 0, 92, 0
2, 1224776, Note_on_c, 0, 52, 0
2, 1224812, Note_on_c, 0, 88, 0
2, 1224816, Note_on_c, 0, 83, 93
2, 1224888, Note_on_c, 0, 83, 0
2, 1224912, Note_on_c, 0, 76, 0
2, 1224924, Note_on_c, 0, 80, 89
2, 1224988, Note_on_c, 0, 80, 0
2, 1225016, Note_on_c, 0, 83, 96
2, 1225104, Note_on_c, 0, 83, 0
2, 1225120, Note_on_c, 0, 71, 0
2, 1225120, Note_on_c, 0, 64, 0
2, 1225120, Note_on_c, 0, 76, 96
2, 1225136, Note_on_c, 0, 68, 0
2, 1225172, Note_on_c, 0, 76, 0
2, 1225188, Control_c, 0, 64, 88
2, 1225200, Control_c, 0, 64, 56
2, 1225212, Control_c, 0, 64, 24
2, 1225228, Control_c, 0, 64, 0
2, 1225320, Note_on_c, 0, 74, 85
2, 1225320, Note_on_c, 0, 71, 78
2, 1225324, Note_on_c, 0, 88, 94
2, 1225328, Note_on_c, 0, 80, 85
2, 1225328, Note_on_c, 0, 64, 73
2, 1225364, Note_on_c, 0, 64, 0
2, 1225372, Note_on_c, 0, 80, 0
2, 1225376, Note_on_c, 0, 74, 0
2, 1225376, Note_on_c, 0, 71, 0
2, 1225396, Note_on_c, 0, 88, 0
2, 1225556, Note_on_c, 0, 89, 100
2, 1225564, Note_on_c, 0, 80, 80
2, 1225564, Note_on_c, 0, 74, 79
2, 1225564, Note_on_c, 0, 71, 70
2, 1225572, Note_on_c, 0, 64, 69
2, 1225608, Note_on_c, 0, 80, 0
2, 1225620, Note_on_c, 0, 71, 0
2, 1225624, Note_on_c, 0, 64, 0
2, 1225624, Note_on_c, 0, 74, 0
2, 1225628, Note_on_c, 0, 89, 0
2, 1225852, Note_on_c, 0, 92, 103
2, 1225852, Note_on_c, 0, 74, 70
2, 1225852, Note_on_c, 0, 71, 70
2, 1225852, Note_on_c, 0, 80, 88
2, 1225852, Note_on_c, 0, 64, 80
2, 1225884, Control_c, 0, 64, 24
2, 1225896, Control_c, 0, 64, 56
2, 1225912, Control_c, 0, 64, 104
2, 1225924, Control_c, 0, 64, 127
2, 1226112, Note_on_c, 0, 92, 0
2, 1226184, Note_on_c, 0, 80, 0
2, 1226208, Note_on_c, 0, 90, 89
2, 1226296, Note_on_c, 0, 90, 0
2, 1226316, Note_on_c, 0, 86, 89
2, 1226404, Note_on_c, 0, 83, 89
2, 1226432, Note_on_c, 0, 86, 0
2, 1226492, Note_on_c, 0, 83, 0
2, 1226492, Note_on_c, 0, 80, 85
2, 1226548, Note_on_c, 0, 80, 0
2, 1226584, Note_on_c, 0, 71, 0
2, 1226604, Note_on_c, 0, 76, 78
2, 1226620, Note_on_c, 0, 74, 0
2, 1226672, Note_on_c, 0, 76, 0
2, 1226712, Note_on_c, 0, 80, 97
2, 1226720, Note_on_c, 0, 75, 82
2, 1226732, Note_on_c, 0, 71, 61
2, 1226736, Note_on_c, 0, 64, 0
2, 1226744, Note_on_c, 0, 74, 61
2, 1226772, Note_on_c, 0, 75, 0
2, 1226780, Note_on_c, 0, 74, 0
2, 1226808, Note_on_c, 0, 80, 0
2, 1226808, Note_on_c, 0, 71, 0
2, 1226816, Note_on_c, 0, 76, 91
2, 1226888, Note_on_c, 0, 76, 0
2, 1226924, Note_on_c, 0, 81, 101
2, 1226932, Note_on_c, 0, 78, 78
2, 1226932, Note_on_c, 0, 69, 72
2, 1226944, Note_on_c, 0, 74, 68
2, 1226996, Note_on_c, 0, 74, 0
2, 1226996, Note_on_c, 0, 78, 0
2, 1227004, Note_on_c, 0, 69, 0
2, 1227008, Note_on_c, 0, 81, 0
2, 1227048, Note_on_c, 0, 76, 86
2, 1227132, Note_on_c, 0, 76, 0
2, 1227192, Note_on_c, 0, 85, 97
2, 1227212, Note_on_c, 0, 74, 68
2, 1227220, Note_on_c, 0, 67, 68
2, 1227228, Note_on_c, 0, 64, 68
2, 1227280, Control_c, 0, 64, 104
2, 1227292, Control_c, 0, 64, 24
2, 1227308, Control_c, 0, 64, 0
2, 1227404, Control_c, 0, 64, 104
2, 1227416, Control_c, 0, 64, 127
2, 1227464, Note_on_c, 0, 85, 0
2, 1227516, Note_on_c, 0, 83, 87
2, 1227616, Note_on_c, 0, 80, 88
2, 1227640, Note_on_c, 0, 68, 68
2, 1227648, Note_on_c, 0, 83, 0
2, 1227684, Note_on_c, 0, 67, 0
2, 1227712, Note_on_c, 0, 80, 0
2, 1227712, Note_on_c, 0, 74, 0
2, 1227724, Note_on_c, 0, 76, 87
2, 1227744, Note_on_c, 0, 68, 0
2, 1227752, Note_on_c, 0, 64, 0
2, 1227776, Note_on_c, 0, 76, 0
2, 1227828, Note_on_c, 0, 74, 79
2, 1227896, Note_on_c, 0, 74, 0
2, 1227928, Note_on_c, 0, 71, 78
2, 1228008, Note_on_c, 0, 71, 0
2, 1228064, Note_on_c, 0, 76, 93
2, 1228072, Note_on_c, 0, 68, 67
2, 1228128, Control_c, 0, 64, 56
2, 1228144, Control_c, 0, 64, 0
2, 1228156, Control_c, 0, 64, 40
2, 1228164, Note_on_c, 0, 76, 0
2, 1228168, Note_on_c, 0, 62, 73
2, 1228172, Control_c, 0, 64, 88
2, 1228184, Control_c, 0, 64, 127
2, 1228192, Note_on_c, 0, 68, 0
2, 1228284, Note_on_c, 0, 77, 97
2, 1228296, Note_on_c, 0, 59, 70
2, 1228296, Note_on_c, 0, 68, 63
2, 1228304, Note_on_c, 0, 62, 0
2, 1228360, Note_on_c, 0, 68, 0
2, 1228384, Note_on_c, 0, 59, 0
2, 1228388, Note_on_c, 0, 77, 0
2, 1228412, Note_on_c, 0, 56, 78
2, 1228480, Note_on_c, 0, 56, 0
2, 1228576, Note_on_c, 0, 80, 96
2, 1228576, Note_on_c, 0, 68, 75
2, 1228576, Note_on_c, 0, 52, 81
2, 1228576, Note_on_c, 0, 59, 74
2, 1228576, Note_on_c, 0, 62, 74
2, 1228576, Note_on_c, 0, 64, 70
2, 1228632, Control_c, 0, 64, 104
2, 1228644, Control_c, 0, 64, 0
2, 1228784, Control_c, 0, 64, 104
2, 1228800, Control_c, 0, 64, 127
2, 1228840, Note_on_c, 0, 80, 0
2, 1228916, Note_on_c, 0, 68, 0
2, 1228940, Note_on_c, 0, 78, 87
2, 1229048, Note_on_c, 0, 78, 0
2, 1229060, Note_on_c, 0, 74, 85
2, 1229168, Note_on_c, 0, 71, 84
2, 1229184, Note_on_c, 0, 74, 0
2, 1229216, Note_on_c, 0, 64, 0
2, 1229248, Note_on_c, 0, 71, 0
2, 1229256, Note_on_c, 0, 59, 0
2, 1229272, Note_on_c, 0, 68, 83
2, 1229336, Note_on_c, 0, 68, 0
2, 1229344, Note_on_c, 0, 62, 0
2, 1229372, Note_on_c, 0, 64, 83
2, 1229468, Note_on_c, 0, 64, 0
2, 1229488, Note_on_c, 0, 68, 86
2, 1229496, Note_on_c, 0, 59, 66
2, 1229500, Note_on_c, 0, 63, 66
2, 1229508, Note_on_c, 0, 62, 54
2, 1229508, Control_c, 0, 64, 88
2, 1229524, Control_c, 0, 64, 24
2, 1229540, Control_c, 0, 64, 0
2, 1229552, Note_on_c, 0, 68, 0
2, 1229552, Control_c, 0, 64, 40
2, 1229560, Note_on_c, 0, 63, 0
2, 1229564, Note_on_c, 0, 52, 0
2, 1229568, Control_c, 0, 64, 72
2, 1229580, Control_c, 0, 64, 127
2, 1229596, Note_on_c, 0, 62, 0
2, 1229596, Note_on_c, 0, 64, 82
2, 1229636, Note_on_c, 0, 59, 0
2, 1229696, Note_on_c, 0, 64, 0
2, 1229712, Note_on_c, 0, 69, 93
2, 1229732, Note_on_c, 0, 66, 73
2, 1229732, Note_on_c, 0, 57, 65
2, 1229732, Note_on_c, 0, 62, 54
2, 1229732, Control_c, 0, 64, 72
2, 1229748, Control_c, 0, 64, 0
2, 1229788, Control_c, 0, 64, 24
2, 1229800, Control_c, 0, 64, 88
2, 1229808, Note_on_c, 0, 66, 0
2, 1229812, Note_on_c, 0, 69, 0
2, 1229812, Note_on_c, 0, 57, 0
2, 1229812, Note_on_c, 0, 62, 0
2, 1229816, Control_c, 0, 64, 127
2, 1229840, Note_on_c, 0, 64, 76
2, 1229940, Note_on_c, 0, 64, 0
2, 1229996, Note_on_c, 0, 73, 88
2, 1230004, Note_on_c, 0, 62, 66
2, 1230016, Note_on_c, 0, 55, 68
2, 1230028, Note_on_c, 0, 52, 76
2, 1230096, Control_c, 0, 64, 56
2, 1230108, Control_c, 0, 64, 0
2, 1230208, Control_c, 0, 64, 56
2, 1230224, Control_c, 0, 64, 127
2, 1230272, Note_on_c, 0, 73, 0
2, 1230328, Note_on_c, 0, 71, 84
2, 1230428, Control_c, 0, 64, 88
2, 1230432, Note_on_c, 0, 68, 83
2, 1230440, Note_on_c, 0, 71, 0
2, 1230440, Note_on_c, 0, 56, 74
2, 1230444, Control_c, 0, 64, 0
2, 1230452, Note_on_c, 0, 55, 0
2, 1230484, Control_c, 0, 64, 40
2, 1230500, Control_c, 0, 64, 104
2, 1230516, Control_c, 0, 64, 127
2, 1230524, Note_on_c, 0, 68, 0
2, 1230544, Note_on_c, 0, 64, 83
2, 1230580, Note_on_c, 0, 62, 0
2, 1230624, Note_on_c, 0, 64, 0
2, 1230644, Note_on_c, 0, 63, 83
2, 1230716, Note_on_c, 0, 63, 0
2, 1230724, Note_on_c, 0, 56, 0
2, 1230728, Note_on_c, 0, 52, 0
2, 1230756, Note_on_c, 0, 62, 83
2, 1230824, Note_on_c, 0, 62, 0
2, 1230900, Note_on_c, 0, 61, 79
2, 1230900, Note_on_c, 0, 52, 72
2, 1230900, Note_on_c, 0, 45, 81
2, 1230936, Control_c, 0, 64, 40
2, 1230948, Control_c, 0, 64, 72
2, 1230968, Note_on_c, 0, 61, 0
2, 1230984, Note_on_c, 0, 52, 0
2, 1230996, Control_c, 0, 64, 40
2, 1231008, Note_on_c, 0, 64, 80
2, 1231008, Control_c, 0, 64, 24
2, 1231012, Note_on_c, 0, 57, 70
2, 1231016, Control_c, 0, 64, 0
2, 1231056, Control_c, 0, 64, 40
2, 1231060, Note_on_c, 0, 64, 0
2, 1231072, Note_on_c, 0, 57, 0
2, 1231080, Control_c, 0, 64, 56
2, 1231088, Control_c, 0, 64, 72
2, 1231100, Note_on_c, 0, 69, 84
2, 1231108, Note_on_c, 0, 61, 71
2, 1231128, Note_on_c, 0, 45, 0
2, 1231156, Control_c, 0, 64, 56
2, 1231160, Note_on_c, 0, 69, 0
2, 1231168, Note_on_c, 0, 61, 0
2, 1231168, Control_c, 0, 64, 40
2, 1231180, Control_c, 0, 64, 24
2, 1231188, Control_c, 0, 64, 0
2, 1231200, Note_on_c, 0, 73, 77
2, 1231204, Note_on_c, 0, 64, 71
2, 1231288, Note_on_c, 0, 73, 0
2, 1231292, Note_on_c, 0, 64, 0
2, 1231312, Note_on_c, 0, 76, 87
2, 1231316, Note_on_c, 0, 69, 78
2, 1231320, Control_c, 0, 64, 40
2, 1231332, Control_c, 0, 64, 72
2, 1231340, Control_c, 0, 64, 104
2, 1231352, Control_c, 0, 64, 127
2, 1231356, Note_on_c, 0, 69, 0
2, 1231376, Note_on_c, 0, 76, 0
2, 1231416, Note_on_c, 0, 73, 73
2, 1231500, Note_on_c, 0, 73, 0
2, 1231524, Note_on_c, 0, 69, 74
2, 1231596, Note_on_c, 0, 69, 0
2, 1231620, Note_on_c, 0, 64, 72
2, 1231664, Control_c, 0, 64, 104
2, 1231672, Note_on_c, 0, 64, 0
2, 1231672, Control_c, 0, 64, 88
2, 1231684, Control_c, 0, 64, 56
2, 1231692, Control_c, 0, 64, 0
2, 1231732, Note_on_c, 0, 61, 76
2, 1231740, Note_on_c, 0, 45, 68
2, 1231744, Note_on_c, 0, 52, 63
2, 1231748, Note_on_c, 0, 57, 63
2, 1231756, Control_c, 0, 64, 24
2, 1231764, Control_c, 0, 64, 72
2, 1231776, Control_c, 0, 64, 104
2, 1231784, Control_c, 0, 64, 127
2, 1231808, Note_on_c, 0, 61, 0
2, 1231832, Note_on_c, 0, 64, 76
2, 1231888, Note_on_c, 0, 45, 0
2, 1231904, Note_on_c, 0, 64, 0
2, 1231908, Note_on_c, 0, 52, 0
2, 1231928, Note_on_c, 0, 57, 0
2, 1231936, Note_on_c, 0, 61, 78
2, 1232000, Note_on_c, 0, 61, 0
2, 1232032, Note_on_c, 0, 64, 77
2, 1232036, Control_c, 0, 64, 104
2, 1232056, Control_c, 0, 64, 88
2, 1232064, Control_c, 0, 64, 72
2, 1232072, Note_on_c, 0, 64, 0
2, 1232072, Control_c, 0, 64, 56
2, 1232084, Control_c, 0, 64, 24
2, 1232096, Control_c, 0, 64, 0
2, 1232144, Note_on_c, 0, 63, 82
2, 1232144, Note_on_c, 0, 69, 83
2, 1232144, Note_on_c, 0, 47, 71
2, 1232144, Note_on_c, 0, 54, 68
2, 1232204, Control_c, 0, 64, 40
2, 1232212, Note_on_c, 0, 54, 0
2, 1232216, Control_c, 0, 64, 72
2, 1232228, Control_c, 0, 64, 104
2, 1232236, Note_on_c, 0, 47, 0
2, 1232236, Control_c, 0, 64, 127
2, 1232244, Note_on_c, 0, 66, 82
2, 1232248, Note_on_c, 0, 69, 0
2, 1232248, Note_on_c, 0, 63, 0
2, 1232252, Note_on_c, 0, 57, 71
2, 1232288, Note_on_c, 0, 66, 0
2, 1232300, Note_on_c, 0, 57, 0
2, 1232344, Note_on_c, 0, 69, 89
2, 1232400, Note_on_c, 0, 69, 0
2, 1232444, Note_on_c, 0, 81, 94
2, 1232444, Note_on_c, 0, 63, 68
2, 1232444, Note_on_c, 0, 59, 79
2, 1232444, Note_on_c, 0, 69, 81
2, 1232480, Note_on_c, 0, 63, 0
2, 1232484, Note_on_c, 0, 81, 0
2, 1232508, Control_c, 0, 64, 104
2, 1232520, Control_c, 0, 64, 72
2, 1232528, Control_c, 0, 64, 40
2, 1232536, Control_c, 0, 64, 0
2, 1232548, Note_on_c, 0, 59, 0
2, 1232548, Note_on_c, 0, 69, 0
2, 1232556, Note_on_c, 0, 80, 91
2, 1232556, Note_on_c, 0, 68, 79
2, 1232560, Note_on_c, 0, 74, 73
2, 1232560, Note_on_c, 0, 76, 74
2, 1232564, Note_on_c, 0, 64, 73
2, 1232564, Note_on_c, 0, 52, 79
2, 1232564, Note_on_c, 0, 59, 68
2, 1232628, Control_c, 0, 64, 24
2, 1232640, Note_on_c, 0, 80, 0
2, 1232640, Control_c, 0, 64, 72
2, 1232648, Note_on_c, 0, 74, 0
2, 1232648, Control_c, 0, 64, 127
2, 1232656, Note_on_c, 0, 52, 0
2, 1232660, Note_on_c, 0, 68, 0
2, 1232672, Note_on_c, 0, 86, 87
2, 1232680, Note_on_c, 0, 64, 0
2, 1232684, Note_on_c, 0, 76, 0
2, 1232684, Note_on_c, 0, 59, 0
2, 1232736, Note_on_c, 0, 86, 0
2, 1232772, Note_on_c, 0, 83, 79
2, 1232828, Note_on_c, 0, 83, 0
2, 1232856, Note_on_c, 0, 80, 86
2, 1232920, Note_on_c, 0, 80, 0
2, 1232944, Control_c, 0, 64, 72
2, 1232952, Control_c, 0, 64, 0
2, 1232960, Note_on_c, 0, 76, 83
2, 1232976, Note_on_c, 0, 64, 75
2, 1232976, Note_on_c, 0, 74, 83
2, 1232976, Note_on_c, 0, 71, 66
2, 1233040, Note_on_c, 0, 76, 0
2, 1233052, Control_c, 0, 64, 24
2, 1233056, Note_on_c, 0, 77, 86
2, 1233104, Control_c, 0, 64, 0
2, 1233112, Note_on_c, 0, 77, 0
2, 1233124, Note_on_c, 0, 80, 81
2, 1233164, Note_on_c, 0, 78, 86
2, 1233180, Note_on_c, 0, 71, 0
2, 1233184, Control_c, 0, 64, 24
2, 1233188, Note_on_c, 0, 80, 0
2, 1233192, Note_on_c, 0, 64, 0
2, 1233196, Control_c, 0, 64, 40
2, 1233232, Note_on_c, 0, 78, 0
2, 1233248, Note_on_c, 0, 74, 85
2, 1233264, Control_c, 0, 64, 24
2, 1233272, Control_c, 0, 64, 0
2, 1233324, Note_on_c, 0, 74, 0
2, 1233324, Note_on_c, 0, 74, 0
2, 1233352, Note_on_c, 0, 73, 76
2, 1233352, Note_on_c, 0, 57, 72
2, 1233352, Note_on_c, 0, 64, 73
2, 1233384, Control_c, 0, 64, 40
2, 1233396, Control_c, 0, 64, 88
2, 1233404, Control_c, 0, 64, 127
2, 1233408, Note_on_c, 0, 73, 0
2, 1233416, Note_on_c, 0, 57, 0
2, 1233428, Note_on_c, 0, 64, 0
2, 1233456, Note_on_c, 0, 76, 80
2, 1233464, Note_on_c, 0, 69, 58
2, 1233500, Note_on_c, 0, 69, 0
2, 1233504, Note_on_c, 0, 76, 0
2, 1233556, Note_on_c, 0, 81, 93
2, 1233556, Note_on_c, 0, 73, 65
2, 1233600, Note_on_c, 0, 73, 0
2, 1233608, Note_on_c, 0, 81, 0
2, 1233652, Note_on_c, 0, 85, 89
2, 1233656, Note_on_c, 0, 76, 62
2, 1233708, Control_c, 0, 64, 72
2, 1233716, Control_c, 0, 64, 24
2, 1233728, Control_c, 0, 64, 0
2, 1233732, Note_on_c, 0, 76, 0
2, 1233732, Note_on_c, 0, 85, 0
2, 1233756, Note_on_c, 0, 88, 93
2, 1233760, Note_on_c, 0, 81, 88
2, 1233776, Control_c, 0, 64, 24
2, 1233788, Control_c, 0, 64, 88
2, 1233796, Note_on_c, 0, 81, 0
2, 1233796, Control_c, 0, 64, 127
2, 1233828, Note_on_c, 0, 88, 0
2, 1233856, Note_on_c, 0, 85, 84
2, 1233960, Note_on_c, 0, 81, 83
2, 1234016, Note_on_c, 0, 85, 0
2, 1234032, Note_on_c, 0, 81, 0
2, 1234048, Note_on_c, 0, 76, 83
2, 1234096, Note_on_c, 0, 76, 0
2, 1234132, Control_c, 0, 64, 88
2, 1234140, Control_c, 0, 64, 40
2, 1234152, Control_c, 0, 64, 0
2, 1234160, Note_on_c, 0, 73, 83
2, 1234164, Note_on_c, 0, 69, 69
2, 1234168, Note_on_c, 0, 57, 67
2, 1234168, Note_on_c, 0, 64, 64
2, 1234192, Control_c, 0, 64, 40
2, 1234200, Control_c, 0, 64, 88
2, 1234212, Control_c, 0, 64, 127
2, 1234236, Note_on_c, 0, 73, 0
2, 1234260, Note_on_c, 0, 76, 86
2, 1234320, Note_on_c, 0, 76, 0
2, 1234340, Note_on_c, 0, 57, 0
2, 1234352, Note_on_c, 0, 73, 83
2, 1234372, Note_on_c, 0, 64, 0
2, 1234412, Note_on_c, 0, 69, 0
2, 1234424, Note_on_c, 0, 73, 0
2, 1234444, Note_on_c, 0, 76, 88
2, 1234488, Note_on_c, 0, 76, 0
2, 1234524, Control_c, 0, 64, 72
2, 1234532, Control_c, 0, 64, 0
2, 1234556, Note_on_c, 0, 75, 90
2, 1234556, Note_on_c, 0, 59, 71
2, 1234556, Note_on_c, 0, 66, 68
2, 1234556, Note_on_c, 0, 81, 84
2, 1234604, Control_c, 0, 64, 40
2, 1234616, Control_c, 0, 64, 88
2, 1234624, Note_on_c, 0, 59, 0
2, 1234624, Control_c, 0, 64, 127
2, 1234632, Note_on_c, 0, 66, 0
2, 1234644, Note_on_c, 0, 78, 90
2, 1234648, Note_on_c, 0, 75, 0
2, 1234656, Note_on_c, 0, 69, 76
2, 1234660, Note_on_c, 0, 81, 0
2, 1234688, Note_on_c, 0, 78, 0
2, 1234704, Note_on_c, 0, 69, 0
2, 1234748, Note_on_c, 0, 81, 93
2, 1234752, Note_on_c, 0, 71, 74
2, 1234804, Note_on_c, 0, 81, 0
2, 1234808, Note_on_c, 0, 71, 0
2, 1234844, Note_on_c, 0, 93, 99
2, 1234844, Note_on_c, 0, 75, 69
2, 1234844, Note_on_c, 0, 81, 84
2, 1234844, Note_on_c, 0, 59, 86
2, 1234884, Note_on_c, 0, 75, 0
2, 1234896, Note_on_c, 0, 93, 0
2, 1234916, Control_c, 0, 64, 72
2, 1234924, Control_c, 0, 64, 0
2, 1234948, Note_on_c, 0, 81, 0
2, 1234948, Note_on_c, 0, 59, 0
2, 1234956, Note_on_c, 0, 92, 97
2, 1234956, Note_on_c, 0, 64, 77
2, 1234956, Note_on_c, 0, 76, 74
2, 1234956, Note_on_c, 0, 71, 73
2, 1234956, Note_on_c, 0, 88, 68
2, 1234956, Note_on_c, 0, 83, 69
2, 1234956, Note_on_c, 0, 86, 67
2, 1234956, Note_on_c, 0, 80, 81
2, 1234956, Note_on_c, 0, 52, 80
2, 1234992, Note_on_c, 0, 88, 0
2, 1234996, Note_on_c, 0, 83, 0
2, 1235004, Note_on_c, 0, 86, 0
2, 1235008, Control_c, 0, 64, 72
2, 1235016, Control_c, 0, 64, 127
2, 1235036, Note_on_c, 0, 92, 0
2, 1235040, Note_on_c, 0, 64, 0
2, 1235060, Note_on_c, 0, 52, 0
2, 1235060, Note_on_c, 0, 80, 0
2, 1235064, Note_on_c, 0, 98, 100
2, 1235068, Note_on_c, 0, 71, 0
2, 1235080, Note_on_c, 0, 76, 0
2, 1235128, Note_on_c, 0, 98, 0
2, 1235156, Note_on_c, 0, 95, 88
2, 1235228, Note_on_c, 0, 95, 0
2, 1235248, Note_on_c, 0, 92, 90
2, 1235324, Note_on_c, 0, 92, 0
2, 1235340, Control_c, 0, 64, 104
2, 1235348, Control_c, 0, 64, 24
2, 1235356, Note_on_c, 0, 88, 85
2, 1235356, Note_on_c, 0, 83, 67
2, 1235356, Note_on_c, 0, 86, 67
2, 1235356, Note_on_c, 0, 76, 68
2, 1235356, Note_on_c, 0, 64, 76
2, 1235356, Note_on_c, 0, 52, 79
2, 1235360, Control_c, 0, 64, 0
2, 1235400, Control_c, 0, 64, 56
2, 1235408, Control_c, 0, 64, 104
2, 1235420, Control_c, 0, 64, 127
2, 1235424, Note_on_c, 0, 88, 0
2, 1235444, Note_on_c, 0, 89, 91
2, 1235460, Note_on_c, 0, 64, 0
2, 1235460, Note_on_c, 0, 52, 0
2, 1235500, Note_on_c, 0, 89, 0
2, 1235516, Note_on_c, 0, 92, 78
2, 1235540, Note_on_c, 0, 86, 0
2, 1235552, Note_on_c, 0, 90, 91
2, 1235556, Note_on_c, 0, 76, 0
2, 1235560, Note_on_c, 0, 83, 0
2, 1235584, Note_on_c, 0, 92, 0
2, 1235628, Note_on_c, 0, 90, 0
2, 1235648, Note_on_c, 0, 86, 87
2, 1235704, Control_c, 0, 64, 72
2, 1235712, Control_c, 0, 64, 0
2, 1235724, Note_on_c, 0, 86, 0
2, 1235752, Note_on_c, 0, 73, 83
2, 1235756, Note_on_c, 0, 64, 65
2, 1235764, Note_on_c, 0, 57, 73
2, 1235784, Control_c, 0, 64, 40
2, 1235792, Control_c, 0, 64, 88
2, 1235804, Note_on_c, 0, 73, 0
2, 1235804, Control_c, 0, 64, 127
2, 1235816, Note_on_c, 0, 57, 0
2, 1235828, Note_on_c, 0, 64, 0
2, 1235852, Note_on_c, 0, 76, 87
2, 1235860, Note_on_c, 0, 69, 70
2, 1235888, Note_on_c, 0, 69, 0
2, 1235900, Note_on_c, 0, 76, 0
2, 1235948, Note_on_c, 0, 81, 93
2, 1235952, Note_on_c, 0, 73, 69
2, 1235992, Note_on_c, 0, 81, 0
2, 1236000, Note_on_c, 0, 73, 0
2, 1236004, Control_c, 0, 64, 104
2, 1236012, Control_c, 0, 64, 56
2, 1236020, Control_c, 0, 64, 0
2, 1236040, Note_on_c, 0, 85, 91
2, 1236048, Note_on_c, 0, 76, 73
2, 1236084, Control_c, 0, 64, 40
2, 1236092, Control_c, 0, 64, 104
2, 1236104, Note_on_c, 0, 76, 0
2, 1236104, Control_c, 0, 64, 127
2, 1236108, Note_on_c, 0, 85, 0
2, 1236144, Note_on_c, 0, 81, 78
2, 1236148, Note_on_c, 0, 88, 91
2, 1236188, Note_on_c, 0, 81, 0
2, 1236212, Note_on_c, 0, 88, 0
2, 1236236, Note_on_c, 0, 85, 83
2, 1236336, Note_on_c, 0, 81, 78
2, 1236352, Note_on_c, 0, 85, 0
2, 1236408, Note_on_c, 0, 81, 0
2, 1236432, Note_on_c, 0, 76, 66
2, 1236472, Note_on_c, 0, 76, 0
2, 1236532, Note_on_c, 0, 73, 85
2, 1236540, Note_on_c, 0, 69, 60
2, 1236544, Note_on_c, 0, 57, 62
2, 1236548, Note_on_c, 0, 64, 59
2, 1236592, Note_on_c, 0, 73, 0
2, 1236628, Note_on_c, 0, 76, 86
2, 1236684, Note_on_c, 0, 76, 0
2, 1236720, Note_on_c, 0, 69, 0
2, 1236720, Note_on_c, 0, 73, 88
2, 1236744, Note_on_c, 0, 57, 0
2, 1236772, Note_on_c, 0, 64, 0
2, 1236788, Note_on_c, 0, 73, 0
2, 1236812, Note_on_c, 0, 76, 86
2, 1236860, Note_on_c, 0, 76, 0
2, 1236888, Control_c, 0, 64, 72
2, 1236900, Control_c, 0, 64, 0
2, 1236920, Note_on_c, 0, 70, 89
2, 1236920, Note_on_c, 0, 54, 71
2, 1236920, Note_on_c, 0, 61, 69
2, 1236920, Note_on_c, 0, 66, 74
2, 1236952, Control_c, 0, 64, 24
2, 1236960, Control_c, 0, 64, 88
2, 1236972, Note_on_c, 0, 54, 0
2, 1236972, Control_c, 0, 64, 127
2, 1236984, Note_on_c, 0, 70, 0
2, 1236996, Note_on_c, 0, 61, 0
2, 1237012, Note_on_c, 0, 73, 86
2, 1237012, Note_on_c, 0, 66, 75
2, 1237032, Note_on_c, 0, 66, 0
2, 1237068, Note_on_c, 0, 66, 0
2, 1237080, Note_on_c, 0, 73, 0
2, 1237116, Note_on_c, 0, 78, 90
2, 1237116, Note_on_c, 0, 70, 76
2, 1237168, Note_on_c, 0, 70, 0
2, 1237180, Note_on_c, 0, 78, 0
2, 1237208, Note_on_c, 0, 82, 98
2, 1237208, Note_on_c, 0, 73, 78
2, 1237208, Note_on_c, 0, 70, 72
2, 1237208, Note_on_c, 0, 66, 70
2, 1237208, Note_on_c, 0, 61, 72
2, 1237208, Note_on_c, 0, 54, 74
2, 1237264, Note_on_c, 0, 82, 0
2, 1237280, Note_on_c, 0, 73, 0
2, 1237300, Note_on_c, 0, 54, 0
2, 1237312, Note_on_c, 0, 66, 0
2, 1237312, Note_on_c, 0, 61, 0
2, 1237312, Note_on_c, 0, 70, 0
2, 1237312, Control_c, 0, 64, 88
2, 1237316, Note_on_c, 0, 83, 94
2, 1237316, Note_on_c, 0, 74, 81
2, 1237316, Note_on_c, 0, 71, 78
2, 1237316, Note_on_c, 0, 66, 71
2, 1237316, Note_on_c, 0, 62, 71
2, 1237316, Note_on_c, 0, 59, 76
2, 1237324, Control_c, 0, 64, 0
2, 1237372, Control_c, 0, 64, 72
2, 1237384, Control_c, 0, 64, 127
2, 1237388, Note_on_c, 0, 74, 0
2, 1237404, Note_on_c, 0, 83, 0
2, 1237412, Note_on_c, 0, 78, 85
2, 1237420, Note_on_c, 0, 62, 0
2, 1237420, Note_on_c, 0, 71, 0
2, 1237420, Note_on_c, 0, 66, 0
2, 1237420, Note_on_c, 0, 59, 0
2, 1237508, Note_on_c, 0, 78, 0
2, 1237520, Note_on_c, 0, 74, 79
2, 1237548, Note_on_c, 0, 74, 0
2, 1237612, Note_on_c, 0, 71, 80
2, 1237676, Note_on_c, 0, 71, 0
2, 1237712, Note_on_c, 0, 66, 80
2, 1237712, Note_on_c, 0, 71, 76
2, 1237712, Note_on_c, 0, 47, 80
2, 1237712, Note_on_c, 0, 62, 66
2, 1237724, Control_c, 0, 64, 56
2, 1237736, Control_c, 0, 64, 0
2, 1237764, Control_c, 0, 64, 24
2, 1237776, Control_c, 0, 64, 72
2, 1237784, Control_c, 0, 64, 127
2, 1237796, Note_on_c, 0, 66, 0
2, 1237808, Note_on_c, 0, 71, 82
2, 1237872, Note_on_c, 0, 47, 0
2, 1237876, Note_on_c, 0, 71, 0
2, 1237892, Note_on_c, 0, 62, 0
2, 1237900, Note_on_c, 0, 66, 83
2, 1237908, Note_on_c, 0, 71, 0
2, 1237972, Note_on_c, 0, 66, 0
2, 1237996, Note_on_c, 0, 71, 80
2, 1238068, Note_on_c, 0, 71, 0
2, 1238100, Control_c, 0, 64, 104
2, 1238104, Note_on_c, 0, 47, 71
2, 1238104, Note_on_c, 0, 62, 87
2, 1238108, Note_on_c, 0, 54, 71
2, 1238108, Control_c, 0, 64, 40
2, 1238120, Control_c, 0, 64, 0
2, 1238148, Control_c, 0, 64, 40
2, 1238156, Note_on_c, 0, 47, 0
2, 1238160, Control_c, 0, 64, 88
2, 1238168, Control_c, 0, 64, 127
2, 1238180, Note_on_c, 0, 62, 0
2, 1238196, Note_on_c, 0, 66, 82
2, 1238204, Note_on_c, 0, 54, 0
2, 1238224, Note_on_c, 0, 59, 73
2, 1238272, Note_on_c, 0, 59, 0
2, 1238288, Note_on_c, 0, 71, 83
2, 1238304, Note_on_c, 0, 66, 0
2, 1238312, Note_on_c, 0, 62, 68
2, 1238328, Note_on_c, 0, 71, 0
2, 1238352, Note_on_c, 0, 62, 0
2, 1238384, Note_on_c, 0, 74, 92
2, 1238400, Note_on_c, 0, 66, 77
2, 1238460, Note_on_c, 0, 74, 0
2, 1238492, Note_on_c, 0, 78, 90
2, 1238492, Note_on_c, 0, 71, 85
2, 1238492, Control_c, 0, 64, 72
2, 1238500, Control_c, 0, 64, 0
2, 1238532, Control_c, 0, 64, 40
2, 1238544, Control_c, 0, 64, 88
2, 1238552, Control_c, 0, 64, 127
2, 1238568, Note_on_c, 0, 71, 0
2, 1238596, Note_on_c, 0, 74, 84
2, 1238600, Note_on_c, 0, 78, 0
2, 1238620, Note_on_c, 0, 66, 0
2, 1238640, Note_on_c, 0, 74, 0
2, 1238700, Note_on_c, 0, 71, 86
2, 1238756, Note_on_c, 0, 71, 0
2, 1238788, Note_on_c, 0, 66, 83
2, 1238860, Note_on_c, 0, 66, 0
2, 1238884, Note_on_c, 0, 62, 87
2, 1238884, Control_c, 0, 64, 72
2, 1238892, Control_c, 0, 64, 0
2, 1238900, Note_on_c, 0, 54, 63
2, 1238908, Note_on_c, 0, 47, 66
2, 1238952, Control_c, 0, 64, 88
2, 1238964, Control_c, 0, 64, 127
2, 1238968, Note_on_c, 0, 62, 0
2, 1238992, Note_on_c, 0, 66, 79
2, 1239056, Note_on_c, 0, 66, 0
2, 1239084, Note_on_c, 0, 62, 83
2, 1239124, Note_on_c, 0, 47, 0
2, 1239152, Note_on_c, 0, 54, 0
2, 1239168, Note_on_c, 0, 62, 0
2, 1239168, Note_on_c, 0, 66, 79
2, 1239212, Note_on_c, 0, 66, 0
2, 1239248, Control_c, 0, 64, 88
2, 1239256, Control_c, 0, 64, 0
2, 1239276, Note_on_c, 0, 61, 84
2, 1239276, Note_on_c, 0, 55, 73
2, 1239276, Note_on_c, 0, 57, 76
2, 1239276, Note_on_c, 0, 73, 79
2, 1239276, Note_on_c, 0, 69, 74
2, 1239276, Note_on_c, 0, 64, 74
2, 1239296, Control_c, 0, 64, 40
2, 1239308, Control_c, 0, 64, 104
2, 1239316, Note_on_c, 0, 55, 0
2, 1239316, Control_c, 0, 64, 127
2, 1239324, Note_on_c, 0, 61, 0
2, 1239364, Note_on_c, 0, 73, 0
2, 1239364, Note_on_c, 0, 57, 0
2, 1239368, Note_on_c, 0, 64, 0
2, 1239368, Note_on_c, 0, 69, 0
2, 1239380, Note_on_c, 0, 64, 78
2, 1239388, Note_on_c, 0, 57, 78
2, 1239428, Note_on_c, 0, 64, 0
2, 1239444, Note_on_c, 0, 57, 0
2, 1239472, Note_on_c, 0, 69, 91
2, 1239484, Note_on_c, 0, 61, 78
2, 1239532, Note_on_c, 0, 69, 0
2, 1239544, Note_on_c, 0, 61, 0
2, 1239564, Note_on_c, 0, 73, 87
2, 1239564, Note_on_c, 0, 64, 76
2, 1239564, Note_on_c, 0, 57, 76
2, 1239564, Note_on_c, 0, 52, 76
2, 1239564, Note_on_c, 0, 69, 76
2, 1239596, Note_on_c, 0, 64, 0
2, 1239640, Note_on_c, 0, 73, 0
2, 1239652, Note_on_c, 0, 52, 0
2, 1239652, Note_on_c, 0, 57, 0
2, 1239652, Note_on_c, 0, 69, 0
2, 1239672, Note_on_c, 0, 74, 93
2, 1239672, Note_on_c, 0, 62, 84
2, 1239672, Note_on_c, 0, 54, 77
2, 1239672, Note_on_c, 0, 50, 79
2, 1239672, Note_on_c, 0, 69, 74
2, 1239672, Note_on_c, 0, 66, 74
2, 1239680, Control_c, 0, 64, 56
2, 1239692, Control_c, 0, 64, 0
2, 1239744, Note_on_c, 0, 74, 0
2, 1239760, Control_c, 0, 64, 56
2, 1239764, Note_on_c, 0, 69, 0
2, 1239764, Note_on_c, 0, 66, 0
2, 1239768, Control_c, 0, 64, 127
2, 1239780, Note_on_c, 0, 69, 88
2, 1239812, Note_on_c, 0, 62, 0
2, 1239816, Note_on_c, 0, 50, 0
2, 1239848, Note_on_c, 0, 54, 0
2, 1239848, Note_on_c, 0, 69, 0
2, 1239868, Note_on_c, 0, 66, 84
2, 1239948, Note_on_c, 0, 66, 0
2, 1239960, Note_on_c, 0, 62, 85
2, 1240012, Note_on_c, 0, 62, 0
2, 1240068, Note_on_c, 0, 57, 90
2, 1240068, Note_on_c, 0, 38, 77
2, 1240068, Note_on_c, 0, 42, 66
2, 1240068, Note_on_c, 0, 50, 72
2, 1240068, Note_on_c, 0, 74, 83
2, 1240068, Note_on_c, 0, 69, 78
2, 1240068, Note_on_c, 0, 66, 76
2, 1240068, Note_on_c, 0, 62, 76
2, 1240084, Control_c, 0, 64, 72
2, 1240092, Control_c, 0, 64, 0
2, 1240148, Note_on_c, 0, 57, 0
2, 1240152, Control_c, 0, 64, 72
2, 1240156, Note_on_c, 0, 74, 0
2, 1240160, Note_on_c, 0, 69, 0
2, 1240160, Note_on_c, 0, 62, 0
2, 1240160, Note_on_c, 0, 66, 0
2, 1240164, Note_on_c, 0, 62, 85
2, 1240164, Control_c, 0, 64, 127
2, 1240224, Note_on_c, 0, 62, 0
2, 1240228, Note_on_c, 0, 38, 0
2, 1240260, Note_on_c, 0, 57, 84
2, 1240284, Note_on_c, 0, 42, 0
2, 1240300, Note_on_c, 0, 50, 0
2, 1240324, Note_on_c, 0, 57, 0
2, 1240352, Note_on_c, 0, 62, 86
2, 1240416, Note_on_c, 0, 62, 0
2, 1240436, Control_c, 0, 64, 0
2, 1240456, Note_on_c, 0, 56, 82
2, 1240456, Note_on_c, 0, 47, 72
2, 1240456, Note_on_c, 0, 40, 78
2, 1240456, Note_on_c, 0, 74, 82
2, 1240456, Note_on_c, 0, 68, 76
2, 1240456, Note_on_c, 0, 64, 76
2, 1240496, Control_c, 0, 64, 40
2, 1240504, Control_c, 0, 64, 104
2, 1240516, Control_c, 0, 64, 127
2, 1240528, Note_on_c, 0, 40, 0
2, 1240544, Note_on_c, 0, 74, 0
2, 1240544, Note_on_c, 0, 47, 0
2, 1240548, Note_on_c, 0, 64, 0
2, 1240548, Note_on_c, 0, 68, 0
2, 1240552, Note_on_c, 0, 59, 80
2, 1240552, Note_on_c, 0, 50, 72
2, 1240556, Note_on_c, 0, 56, 0
2, 1240584, Note_on_c, 0, 50, 0
2, 1240588, Note_on_c, 0, 59, 0
2, 1240660, Note_on_c, 0, 62, 81
2, 1240660, Note_on_c, 0, 52, 74
2, 1240708, Note_on_c, 0, 62, 0
2, 1240712, Note_on_c, 0, 52, 0
2, 1240748, Note_on_c, 0, 74, 93
2, 1240748, Note_on_c, 0, 56, 73
2, 1240748, Note_on_c, 0, 62, 83
2, 1240748, Note_on_c, 0, 40, 78
2, 1240748, Note_on_c, 0, 64, 76
2, 1240748, Note_on_c, 0, 68, 76
2, 1240792, Note_on_c, 0, 56, 0
2, 1240800, Note_on_c, 0, 74, 0
2, 1240836, Note_on_c, 0, 40, 0
2, 1240836, Note_on_c, 0, 62, 0
2, 1240836, Control_c, 0, 64, 72
2, 1240840, Note_on_c, 0, 68, 0
2, 1240840, Note_on_c, 0, 64, 0
2, 1240848, Control_c, 0, 64, 0
2, 1240856, Note_on_c, 0, 73, 92
2, 1240856, Note_on_c, 0, 69, 69
2, 1240856, Note_on_c, 0, 67, 73
2, 1240856, Note_on_c, 0, 52, 63
2, 1240856, Note_on_c, 0, 57, 70
2, 1240856, Note_on_c, 0, 45, 73
2, 1240856, Note_on_c, 0, 61, 83
2, 1240892, Note_on_c, 0, 67, 0
2, 1240908, Note_on_c, 0, 69, 0
2, 1240928, Control_c, 0, 64, 88
2, 1240940, Control_c, 0, 64, 127
2, 1240944, Note_on_c, 0, 61, 0
2, 1240948, Note_on_c, 0, 45, 0
2, 1240956, Note_on_c, 0, 73, 0
2, 1240964, Note_on_c, 0, 52, 0
2, 1240968, Note_on_c, 0, 79, 88
2, 1240984, Note_on_c, 0, 57, 0
2, 1241028, Note_on_c, 0, 79, 0
2, 1241064, Note_on_c, 0, 76, 84
2, 1241116, Note_on_c, 0, 76, 0
2, 1241148, Note_on_c, 0, 73, 85
2, 1241212, Note_on_c, 0, 73, 0
2, 1241240, Control_c, 0, 64, 88
2, 1241252, Note_on_c, 0, 69, 83
2, 1241252, Note_on_c, 0, 57, 74
2, 1241252, Note_on_c, 0, 64, 71
2, 1241252, Note_on_c, 0, 67, 90
2, 1241252, Note_on_c, 0, 45, 74
2, 1241252, Note_on_c, 0, 79, 90
2, 1241252, Control_c, 0, 64, 0
2, 1241312, Control_c, 0, 64, 72
2, 1241320, Control_c, 0, 64, 127
2, 1241324, Note_on_c, 0, 69, 0
2, 1241340, Note_on_c, 0, 45, 0
2, 1241344, Note_on_c, 0, 79, 0
2, 1241348, Note_on_c, 0, 70, 89
2, 1241400, Note_on_c, 0, 70, 0
2, 1241412, Note_on_c, 0, 73, 73
2, 1241436, Note_on_c, 0, 67, 0
2, 1241440, Note_on_c, 0, 64, 0
2, 1241448, Note_on_c, 0, 71, 86
2, 1241456, Note_on_c, 0, 57, 0
2, 1241476, Note_on_c, 0, 73, 0
2, 1241508, Note_on_c, 0, 71, 0
2, 1241540, Note_on_c, 0, 67, 86
2, 1241612, Control_c, 0, 64, 56
2, 1241616, Note_on_c, 0, 67, 0
2, 1241624, Control_c, 0, 64, 0
2, 1241640, Note_on_c, 0, 66, 79
2, 1241640, Note_on_c, 0, 57, 72
2, 1241648, Note_on_c, 0, 50, 63
2, 1241680, Note_on_c, 0, 50, 0
2, 1241680, Control_c, 0, 64, 72
2, 1241692, Note_on_c, 0, 66, 0
2, 1241692, Control_c, 0, 64, 127
2, 1241700, Note_on_c, 0, 57, 0
2, 1241740, Note_on_c, 0, 69, 79
2, 1241748, Note_on_c, 0, 62, 56
2, 1241788, Note_on_c, 0, 62, 0
2, 1241788, Note_on_c, 0, 69, 0
2, 1241832, Note_on_c, 0, 66, 66
2, 1241840, Note_on_c, 0, 74, 83
2, 1241884, Note_on_c, 0, 66, 0
2, 1241884, Control_c, 0, 64, 88
2, 1241892, Note_on_c, 0, 74, 0
2, 1241896, Control_c, 0, 64, 0
2, 1241928, Note_on_c, 0, 78, 86
2, 1241932, Note_on_c, 0, 69, 71
2, 1241944, Control_c, 0, 64, 40
2, 1241956, Control_c, 0, 64, 104
2, 1241964, Control_c, 0, 64, 127
2, 1241992, Note_on_c, 0, 69, 0
2, 1242004, Note_on_c, 0, 78, 0
2, 1242032, Note_on_c, 0, 81, 88
2, 1242036, Note_on_c, 0, 74, 77
2, 1242072, Note_on_c, 0, 74, 0
2, 1242100, Note_on_c, 0, 81, 0
2, 1242124, Note_on_c, 0, 78, 82
2, 1242212, Note_on_c, 0, 78, 0
2, 1242228, Note_on_c, 0, 74, 76
2, 1242296, Note_on_c, 0, 74, 0
2, 1242312, Note_on_c, 0, 69, 87
2, 1242360, Note_on_c, 0, 69, 0
2, 1242412, Note_on_c, 0, 66, 84
2, 1242424, Note_on_c, 0, 62, 59
2, 1242424, Note_on_c, 0, 57, 58
2, 1242432, Note_on_c, 0, 50, 54
2, 1242472, Note_on_c, 0, 66, 0
2, 1242504, Note_on_c, 0, 69, 88
2, 1242532, Note_on_c, 0, 50, 0
2, 1242560, Note_on_c, 0, 69, 0
2, 1242568, Note_on_c, 0, 57, 0
2, 1242604, Note_on_c, 0, 66, 83
2, 1242668, Note_on_c, 0, 66, 0
2, 1242692, Note_on_c, 0, 69, 85
2, 1242728, Note_on_c, 0, 62, 0
2, 1242748, Note_on_c, 0, 69, 0
2, 1242772, Control_c, 0, 64, 88
2, 1242784, Control_c, 0, 64, 0
2, 1242792, Note_on_c, 0, 68, 92
2, 1242792, Note_on_c, 0, 64, 75
2, 1242792, Note_on_c, 0, 59, 67
2, 1242792, Note_on_c, 0, 74, 83
2, 1242792, Note_on_c, 0, 52, 76
2, 1242832, Control_c, 0, 64, 56
2, 1242840, Control_c, 0, 64, 127
2, 1242880, Note_on_c, 0, 52, 0
2, 1242880, Note_on_c, 0, 74, 0
2, 1242884, Note_on_c, 0, 59, 0
2, 1242884, Note_on_c, 0, 64, 0
2, 1242884, Note_on_c, 0, 71, 87
2, 1242892, Note_on_c, 0, 68, 0
2, 1242900, Note_on_c, 0, 62, 76
2, 1242932, Note_on_c, 0, 71, 0
2, 1242944, Note_on_c, 0, 62, 0
2, 1242980, Note_on_c, 0, 64, 72
2, 1242996, Note_on_c, 0, 74, 88
2, 1243040, Note_on_c, 0, 74, 0
2, 1243040, Note_on_c, 0, 64, 0
2, 1243084, Note_on_c, 0, 86, 106
2, 1243084, Note_on_c, 0, 68, 78
2, 1243084, Note_on_c, 0, 52, 76
2, 1243084, Note_on_c, 0, 64, 76
2, 1243084, Note_on_c, 0, 74, 83
2, 1243084, Note_on_c, 0, 59, 76
2, 1243136, Note_on_c, 0, 68, 0
2, 1243140, Note_on_c, 0, 86, 0
2, 1243172, Note_on_c, 0, 74, 0
2, 1243172, Note_on_c, 0, 64, 0
2, 1243172, Note_on_c, 0, 52, 0
2, 1243176, Note_on_c, 0, 59, 0
2, 1243200, Note_on_c, 0, 85, 97
2, 1243200, Note_on_c, 0, 57, 80
2, 1243200, Note_on_c, 0, 69, 76
2, 1243200, Note_on_c, 0, 81, 73
2, 1243200, Note_on_c, 0, 79, 78
2, 1243200, Note_on_c, 0, 61, 75
2, 1243200, Note_on_c, 0, 73, 76
2, 1243200, Control_c, 0, 64, 40
2, 1243212, Control_c, 0, 64, 0
2, 1243220, Note_on_c, 0, 64, 68
2, 1243256, Note_on_c, 0, 79, 0
2, 1243264, Note_on_c, 0, 81, 0
2, 1243276, Control_c, 0, 64, 88
2, 1243284, Note_on_c, 0, 85, 0
2, 1243284, Control_c, 0, 64, 127
2, 1243288, Note_on_c, 0, 61, 0
2, 1243288, Note_on_c, 0, 57, 0
2, 1243288, Note_on_c, 0, 73, 0
2, 1243312, Note_on_c, 0, 64, 0
2, 1243320, Note_on_c, 0, 91, 94
2, 1243336, Note_on_c, 0, 69, 0
2, 1243384, Note_on_c, 0, 91, 0
2, 1243412, Note_on_c, 0, 88, 88
2, 1243476, Note_on_c, 0, 88, 0
2, 1243496, Note_on_c, 0, 85, 90
2, 1243564, Note_on_c, 0, 85, 0
2, 1243600, Note_on_c, 0, 81, 88
2, 1243600, Note_on_c, 0, 69, 76
2, 1243600, Note_on_c, 0, 76, 75
2, 1243600, Note_on_c, 0, 79, 74
2, 1243600, Note_on_c, 0, 57, 76
2, 1243600, Note_on_c, 0, 45, 80
2, 1243608, Control_c, 0, 64, 56
2, 1243616, Control_c, 0, 64, 0
2, 1243656, Control_c, 0, 64, 56
2, 1243668, Control_c, 0, 64, 104
2, 1243676, Control_c, 0, 64, 127
2, 1243680, Note_on_c, 0, 81, 0
2, 1243688, Note_on_c, 0, 57, 0
2, 1243688, Note_on_c, 0, 45, 0
2, 1243696, Note_on_c, 0, 82, 93
2, 1243764, Note_on_c, 0, 82, 0
2, 1243764, Note_on_c, 0, 79, 0
2, 1243772, Note_on_c, 0, 85, 84
2, 1243784, Note_on_c, 0, 76, 0
2, 1243788, Note_on_c, 0, 69, 0
2, 1243816, Note_on_c, 0, 83, 83
2, 1243844, Note_on_c, 0, 85, 0
2, 1243884, Note_on_c, 0, 83, 0
2, 1243900, Note_on_c, 0, 79, 89
2, 1243920, Control_c, 0, 64, 104
2, 1243928, Control_c, 0, 64, 56
2, 1243940, Control_c, 0, 64, 0
2, 1243964, Note_on_c, 0, 79, 0
2, 1243992, Note_on_c, 0, 69, 75
2, 1243992, Note_on_c, 0, 78, 83
2, 1243992, Note_on_c, 0, 62, 73
2, 1244000, Control_c, 0, 64, 40
2, 1244012, Control_c, 0, 64, 104
2, 1244020, Control_c, 0, 64, 127
2, 1244032, Note_on_c, 0, 62, 0
2, 1244044, Note_on_c, 0, 78, 0
2, 1244052, Note_on_c, 0, 69, 0
2, 1244092, Note_on_c, 0, 81, 84
2, 1244112, Note_on_c, 0, 74, 56
2, 1244140, Note_on_c, 0, 81, 0
2, 1244148, Note_on_c, 0, 74, 0
2, 1244188, Note_on_c, 0, 86, 94
2, 1244188, Note_on_c, 0, 78, 71
2, 1244236, Note_on_c, 0, 78, 0
2, 1244240, Note_on_c, 0, 86, 0
2, 1244276, Note_on_c, 0, 90, 89
2, 1244280, Note_on_c, 0, 81, 72
2, 1244348, Note_on_c, 0, 81, 0
2, 1244352, Note_on_c, 0, 90, 0
2, 1244384, Note_on_c, 0, 93, 90
2, 1244388, Note_on_c, 0, 86, 91
2, 1244428, Note_on_c, 0, 86, 0
2, 1244456, Note_on_c, 0, 93, 0
2, 1244484, Note_on_c, 0, 90, 85
2, 1244588, Note_on_c, 0, 86, 84
2, 1244600, Note_on_c, 0, 90, 0
2, 1244660, Note_on_c, 0, 86, 0
2, 1244672, Note_on_c, 0, 81, 83
2, 1244720, Note_on_c, 0, 81, 0
2, 1244776, Note_on_c, 0, 78, 82
2, 1244776, Note_on_c, 0, 62, 72
2, 1244776, Note_on_c, 0, 69, 71
2, 1244776, Note_on_c, 0, 74, 74
2, 1244776, Note_on_c, 0, 66, 73
2, 1244776, Note_on_c, 0, 50, 75
2, 1244836, Note_on_c, 0, 78, 0
2, 1244864, Note_on_c, 0, 66, 0
2, 1244864, Note_on_c, 0, 74, 0
2, 1244864, Note_on_c, 0, 50, 0
2, 1244868, Note_on_c, 0, 81, 79
2, 1244884, Note_on_c, 0, 62, 0
2, 1244904, Note_on_c, 0, 69, 0
2, 1244924, Note_on_c, 0, 81, 0
2, 1244964, Note_on_c, 0, 78, 74
2, 1245024, Note_on_c, 0, 78, 0
2, 1245056, Note_on_c, 0, 81, 78
2, 1245108, Note_on_c, 0, 81, 0
2, 1245128, Control_c, 0, 64, 104
2, 1245140, Control_c, 0, 64, 24
2, 1245148, Control_c, 0, 64, 0
2, 1245156, Note_on_c, 0, 77, 83
2, 1245160, Note_on_c, 0, 69, 68
2, 1245180, Note_on_c, 0, 65, 54
2, 1245208, Control_c, 0, 64, 127
2, 1245212, Note_on_c, 0, 65, 0
2, 1245236, Note_on_c, 0, 69, 0
2, 1245252, Note_on_c, 0, 81, 83
2, 1245256, Note_on_c, 0, 77, 0
2, 1245272, Note_on_c, 0, 72, 72
2, 1245296, Note_on_c, 0, 81, 0
2, 1245324, Note_on_c, 0, 72, 0
2, 1245352, Note_on_c, 0, 84, 81
2, 1245368, Note_on_c, 0, 77, 50
2, 1245400, Note_on_c, 0, 84, 0
2, 1245412, Note_on_c, 0, 77, 0
2, 1245444, Note_on_c, 0, 89, 89
2, 1245456, Note_on_c, 0, 81, 69
2, 1245508, Note_on_c, 0, 89, 0
2, 1245520, Note_on_c, 0, 81, 0
2, 1245536, Note_on_c, 0, 93, 88
2, 1245552, Note_on_c, 0, 84, 77
2, 1245584, Note_on_c, 0, 84, 0
2, 1245636, Note_on_c, 0, 89, 86
2, 1245704, Note_on_c, 0, 93, 0
2, 1245720, Note_on_c, 0, 89, 0
2, 1245728, Note_on_c, 0, 84, 81
2, 1245768, Note_on_c, 0, 84, 0
2, 1245820, Note_on_c, 0, 81, 83
2, 1245876, Note_on_c, 0, 81, 0
2, 1245916, Note_on_c, 0, 77, 87
2, 1245916, Note_on_c, 0, 65, 71
2, 1245916, Note_on_c, 0, 69, 68
2, 1245916, Note_on_c, 0, 60, 76
2, 1245916, Note_on_c, 0, 72, 74
2, 1245916, Note_on_c, 0, 53, 73
2, 1245988, Note_on_c, 0, 77, 0
2, 1246004, Note_on_c, 0, 72, 0
2, 1246004, Note_on_c, 0, 60, 0
2, 1246004, Note_on_c, 0, 53, 0
2, 1246012, Note_on_c, 0, 81, 84
2, 1246072, Note_on_c, 0, 65, 0
2, 1246072, Note_on_c, 0, 69, 0
2, 1246076, Note_on_c, 0, 81, 0
2, 1246100, Note_on_c, 0, 77, 83
2, 1246184, Note_on_c, 0, 77, 0
2, 1246192, Note_on_c, 0, 81, 81
2, 1246216, Note_on_c, 0, 81, 0
2, 1246312, Note_on_c, 0, 79, 90
2, 1246316, Control_c, 0, 64, 56
2, 1246324, Note_on_c, 0, 65, 73
2, 1246324, Note_on_c, 0, 71, 65
2, 1246328, Control_c, 0, 64, 0
2, 1246336, Note_on_c, 0, 67, 60
2, 1246376, Control_c, 0, 64, 72
2, 1246388, Control_c, 0, 64, 127
2, 1246396, Note_on_c, 0, 67, 0
2, 1246396, Note_on_c, 0, 71, 0
2, 1246412, Note_on_c, 0, 79, 0
2, 1246412, Note_on_c, 0, 83, 83
2, 1246416, Note_on_c, 0, 65, 0
2, 1246424, Note_on_c, 0, 74, 68
2, 1246448, Note_on_c, 0, 83, 0
2, 1246472, Note_on_c, 0, 74, 0
2, 1246504, Note_on_c, 0, 86, 88
2, 1246516, Note_on_c, 0, 71, 53
2, 1246564, Note_on_c, 0, 86, 0
2, 1246568, Note_on_c, 0, 71, 0
2, 1246600, Note_on_c, 0, 91, 91
2, 1246604, Note_on_c, 0, 74, 63
2, 1246664, Note_on_c, 0, 74, 0
2, 1246672, Note_on_c, 0, 91, 0
2, 1246696, Note_on_c, 0, 95, 83
2, 1246696, Note_on_c, 0, 71, 61
2, 1246764, Note_on_c, 0, 71, 0
2, 1246784, Note_on_c, 0, 95, 0
2, 1246792, Note_on_c, 0, 91, 84
2, 1246796, Note_on_c, 0, 74, 64
2, 1246860, Note_on_c, 0, 74, 0
2, 1246864, Note_on_c, 0, 91, 0
2, 1246876, Note_on_c, 0, 86, 87
2, 1246888, Note_on_c, 0, 71, 59
2, 1246920, Note_on_c, 0, 86, 0
2, 1246944, Note_on_c, 0, 71, 0
2, 1246964, Note_on_c, 0, 83, 91
2, 1246980, Note_on_c, 0, 74, 64
2, 1247028, Note_on_c, 0, 83, 0
2, 1247032, Note_on_c, 0, 74, 0
2, 1247064, Note_on_c, 0, 79, 88
2, 1247064, Note_on_c, 0, 53, 72
2, 1247064, Note_on_c, 0, 67, 76
2, 1247064, Note_on_c, 0, 71, 67
2, 1247064, Note_on_c, 0, 65, 63
2, 1247064, Note_on_c, 0, 62, 72
2, 1247064, Note_on_c, 0, 59, 71
2, 1247080, Control_c, 0, 64, 88
2, 1247092, Control_c, 0, 64, 40
2, 1247120, Control_c, 0, 64, 104
2, 1247128, Control_c, 0, 64, 127
2, 1247132, Note_on_c, 0, 71, 0
2, 1247132, Note_on_c, 0, 67, 0
2, 1247132, Note_on_c, 0, 79, 0
2, 1247156, Note_on_c, 0, 65, 0
2, 1247156, Note_on_c, 0, 83, 83
2, 1247156, Note_on_c, 0, 74, 71
2, 1247220, Note_on_c, 0, 74, 0
2, 1247224, Note_on_c, 0, 83, 0
2, 1247244, Note_on_c, 0, 59, 0
2, 1247244, Note_on_c, 0, 62, 0
2, 1247244, Note_on_c, 0, 53, 0
2, 1247256, Note_on_c, 0, 79, 89
2, 1247256, Note_on_c, 0, 71, 58
2, 1247272, Note_on_c, 0, 67, 48
2, 1247284, Note_on_c, 0, 65, 49
2, 1247312, Note_on_c, 0, 65, 0
2, 1247316, Note_on_c, 0, 71, 0
2, 1247324, Note_on_c, 0, 67, 0
2, 1247328, Note_on_c, 0, 79, 0
2, 1247340, Note_on_c, 0, 83, 86
2, 1247352, Note_on_c, 0, 74, 66
2, 1247400, Note_on_c, 0, 74, 0
2, 1247412, Note_on_c, 0, 83, 0
2, 1247444, Note_on_c, 0, 80, 93
2, 1247444, Note_on_c, 0, 68, 83
2, 1247444, Control_c, 0, 64, 72
2, 1247448, Note_on_c, 0, 71, 73
2, 1247452, Note_on_c, 0, 68, 71
2, 1247456, Control_c, 0, 64, 0
2, 1247460, Note_on_c, 0, 65, 68
2, 1247496, Control_c, 0, 64, 56
2, 1247504, Control_c, 0, 64, 127
2, 1247520, Note_on_c, 0, 71, 0
2, 1247528, Note_on_c, 0, 68, 0
2, 1247536, Note_on_c, 0, 83, 82
2, 1247548, Note_on_c, 0, 80, 0
2, 1247548, Note_on_c, 0, 74, 65
2, 1247580, Note_on_c, 0, 83, 0
2, 1247612, Note_on_c, 0, 74, 0
2, 1247624, Note_on_c, 0, 68, 0
2, 1247636, Note_on_c, 0, 86, 91
2, 1247644, Note_on_c, 0, 68, 67
2, 1247656, Note_on_c, 0, 71, 58
2, 1247708, Note_on_c, 0, 68, 0
2, 1247712, Note_on_c, 0, 71, 0
2, 1247712, Note_on_c, 0, 86, 0
2, 1247724, Note_on_c, 0, 92, 88
2, 1247724, Note_on_c, 0, 74, 68
2, 1247724, Note_on_c, 0, 68, 83
2, 1247772, Note_on_c, 0, 74, 0
2, 1247784, Note_on_c, 0, 65, 0
2, 1247812, Note_on_c, 0, 92, 0
2, 1247828, Note_on_c, 0, 68, 0
2, 1247836, Note_on_c, 0, 95, 93
2, 1247836, Note_on_c, 0, 67, 79
2, 1247840, Note_on_c, 0, 71, 66
2, 1247848, Note_on_c, 0, 67, 73
2, 1247848, Control_c, 0, 64, 72
2, 1247852, Note_on_c, 0, 65, 68
2, 1247856, Control_c, 0, 64, 0
2, 1247896, Control_c, 0, 64, 40
2, 1247904, Note_on_c, 0, 71, 0
2, 1247908, Control_c, 0, 64, 127
2, 1247912, Note_on_c, 0, 67, 0
2, 1247924, Note_on_c, 0, 74, 73
2, 1247932, Note_on_c, 0, 95, 0
2, 1247936, Note_on_c, 0, 91, 89
2, 1247988, Note_on_c, 0, 74, 0
2, 1248012, Note_on_c, 0, 91, 0
2, 1248016, Note_on_c, 0, 67, 0
2, 1248024, Note_on_c, 0, 86, 86
2, 1248032, Note_on_c, 0, 71, 58
2, 1248048, Note_on_c, 0, 67, 53
2, 1248068, Note_on_c, 0, 86, 0
2, 1248084, Note_on_c, 0, 71, 0
2, 1248104, Note_on_c, 0, 67, 0
2, 1248112, Note_on_c, 0, 83, 83
2, 1248124, Note_on_c, 0, 74, 64
2, 1248172, Note_on_c, 0, 83, 0
2, 1248180, Note_on_c, 0, 74, 0
2, 1248212, Note_on_c, 0, 79, 86
2, 1248212, Note_on_c, 0, 71, 69
2, 1248212, Note_on_c, 0, 67, 76
2, 1248212, Note_on_c, 0, 62, 71
2, 1248212, Note_on_c, 0, 59, 70
2, 1248212, Note_on_c, 0, 53, 73
2, 1248276, Note_on_c, 0, 79, 0
2, 1248288, Note_on_c, 0, 71, 0
2, 1248300, Note_on_c, 0, 83, 82
2, 1248316, Note_on_c, 0, 74, 72
2, 1248368, Note_on_c, 0, 74, 0
2, 1248372, Note_on_c, 0, 83, 0
2, 1248392, Note_on_c, 0, 53, 0
2, 1248392, Note_on_c, 0, 67, 0
2, 1248392, Note_on_c, 0, 62, 0
2, 1248392, Note_on_c, 0, 59, 0
2, 1248392, Note_on_c, 0, 71, 62
2, 1248400, Note_on_c, 0, 79, 85
2, 1248456, Note_on_c, 0, 71, 0
2, 1248468, Note_on_c, 0, 79, 0
2, 1248472, Note_on_c, 0, 65, 0
2, 1248480, Note_on_c, 0, 83, 82
2, 1248484, Note_on_c, 0, 74, 71
2, 1248544, Note_on_c, 0, 74, 0
2, 1248560, Note_on_c, 0, 83, 0
2, 1248560, Control_c, 0, 64, 40
2, 1248572, Control_c, 0, 64, 0
2, 1248584, Note_on_c, 0, 79, 88
2, 1248596, Note_on_c, 0, 70, 80
2, 1248600, Note_on_c, 0, 67, 73
2, 1248608, Note_on_c, 0, 65, 69
2, 1248612, Control_c, 0, 64, 40
2, 1248620, Control_c, 0, 64, 127
2, 1248628, Note_on_c, 0, 65, 0
2, 1248632, Note_on_c, 0, 79, 0
2, 1248652, Note_on_c, 0, 70, 0
2, 1248688, Note_on_c, 0, 82, 90
2, 1248688, Note_on_c, 0, 73, 90
2, 1248696, Note_on_c, 0, 65, 49
2, 1248752, Note_on_c, 0, 82, 0
2, 1248776, Note_on_c, 0, 73, 0
2, 1248776, Note_on_c, 0, 85, 85
2, 1248788, Note_on_c, 0, 70, 74
2, 1248840, Note_on_c, 0, 85, 0
2, 1248856, Note_on_c, 0, 70, 0
2, 1248864, Note_on_c, 0, 91, 84
2, 1248868, Note_on_c, 0, 67, 0
2, 1248880, Note_on_c, 0, 65, 0
2, 1248880, Note_on_c, 0, 73, 73
2, 1248940, Note_on_c, 0, 73, 0
2, 1248940, Note_on_c, 0, 91, 0
2, 1248972, Note_on_c, 0, 70, 66
2, 1248976, Note_on_c, 0, 94, 92
2, 1248976, Control_c, 0, 64, 72
2, 1248984, Control_c, 0, 64, 0
2, 1248992, Note_on_c, 0, 64, 60
2, 1248996, Note_on_c, 0, 67, 63
2, 1249024, Control_c, 0, 64, 24
2, 1249032, Note_on_c, 0, 94, 0
2, 1249036, Control_c, 0, 64, 88
2, 1249044, Note_on_c, 0, 70, 0
2, 1249044, Control_c, 0, 64, 127
2, 1249060, Note_on_c, 0, 91, 74
2, 1249072, Note_on_c, 0, 72, 77
2, 1249076, Note_on_c, 0, 67, 0
2, 1249132, Note_on_c, 0, 91, 0
2, 1249140, Note_on_c, 0, 72, 0
2, 1249152, Note_on_c, 0, 84, 86
2, 1249168, Note_on_c, 0, 70, 76
2, 1249168, Note_on_c, 0, 67, 63
2, 1249228, Note_on_c, 0, 84, 0
2, 1249232, Note_on_c, 0, 70, 0
2, 1249236, Note_on_c, 0, 82, 89
2, 1249264, Note_on_c, 0, 72, 63
2, 1249284, Note_on_c, 0, 82, 0
2, 1249308, Note_on_c, 0, 72, 0
2, 1249332, Note_on_c, 0, 79, 90
2, 1249332, Note_on_c, 0, 70, 70
2, 1249332, Note_on_c, 0, 72, 79
2, 1249332, Note_on_c, 0, 67, 74
2, 1249332, Note_on_c, 0, 64, 76
2, 1249392, Note_on_c, 0, 70, 0
2, 1249396, Note_on_c, 0, 79, 0
2, 1249424, Note_on_c, 0, 82, 86
2, 1249436, Note_on_c, 0, 72, 68
2, 1249488, Note_on_c, 0, 82, 0
2, 1249488, Note_on_c, 0, 72, 0
2, 1249512, Note_on_c, 0, 64, 0
2, 1249512, Note_on_c, 0, 67, 0
2, 1249512, Note_on_c, 0, 72, 0
2, 1249520, Note_on_c, 0, 79, 87
2, 1249520, Note_on_c, 0, 70, 71
2, 1249524, Note_on_c, 0, 67, 0
2, 1249556, Note_on_c, 0, 64, 0
2, 1249580, Note_on_c, 0, 70, 0
2, 1249584, Note_on_c, 0, 79, 0
2, 1249612, Note_on_c, 0, 72, 64
2, 1249612, Note_on_c, 0, 82, 86
2, 1249668, Note_on_c, 0, 72, 0
2, 1249676, Note_on_c, 0, 82, 0
2, 1249676, Control_c, 0, 64, 88
2, 1249684, Control_c, 0, 64, 24
2, 1249696, Control_c, 0, 64, 0
2, 1249704, Note_on_c, 0, 70, 82
2, 1249704, Note_on_c, 0, 67, 73
2, 1249704, Note_on_c, 0, 65, 76
2, 1249704, Note_on_c, 0, 79, 84
2, 1249704, Note_on_c, 0, 73, 80
2, 1249724, Control_c, 0, 64, 24
2, 1249736, Control_c, 0, 64, 72
2, 1249744, Note_on_c, 0, 79, 0
2, 1249744, Control_c, 0, 64, 127
2, 1249776, Note_on_c, 0, 70, 0
2, 1249804, Note_on_c, 0, 65, 32
2, 1249808, Note_on_c, 0, 82, 88
2, 1249808, Note_on_c, 0, 73, 80
2, 1249864, Note_on_c, 0, 82, 0
2, 1249868, Note_on_c, 0, 65, 0
2, 1249868, Note_on_c, 0, 65, 0
2, 1249876, Note_on_c, 0, 73, 0
2, 1249876, Note_on_c, 0, 73, 0
2, 1249896, Note_on_c, 0, 85, 86
2, 1249900, Note_on_c, 0, 70, 81
2, 1249956, Note_on_c, 0, 67, 0
2, 1249964, Note_on_c, 0, 85, 0
2, 1249976, Note_on_c, 0, 70, 0
2, 1249988, Note_on_c, 0, 91, 90
2, 1249988, Note_on_c, 0, 73, 81
2, 1249988, Note_on_c, 0, 65, 76
2, 1250064, Note_on_c, 0, 91, 0
2, 1250076, Note_on_c, 0, 65, 0
2, 1250076, Note_on_c, 0, 73, 0
2, 1250088, Note_on_c, 0, 70, 75
2, 1250088, Control_c, 0, 64, 56
2, 1250092, Note_on_c, 0, 94, 91
2, 1250092, Note_on_c, 0, 67, 73
2, 1250092, Note_on_c, 0, 72, 76
2, 1250100, Control_c, 0, 64, 0
2, 1250104, Note_on_c, 0, 64, 74
2, 1250148, Note_on_c, 0, 94, 0
2, 1250148, Control_c, 0, 64, 72
2, 1250156, Note_on_c, 0, 70, 0
2, 1250160, Control_c, 0, 64, 127
2, 1250176, Note_on_c, 0, 67, 0
2, 1250176, Note_on_c, 0, 91, 81
2, 1250184, Note_on_c, 0, 72, 77
2, 1250224, Note_on_c, 0, 72, 0
2, 1250224, Note_on_c, 0, 72, 0
2, 1250252, Note_on_c, 0, 91, 0
2, 1250276, Note_on_c, 0, 84, 78
2, 1250280, Note_on_c, 0, 70, 76
2, 1250284, Note_on_c, 0, 67, 68
2, 1250320, Note_on_c, 0, 64, 0
2, 1250348, Note_on_c, 0, 84, 0
2, 1250348, Note_on_c, 0, 70, 0
2, 1250360, Note_on_c, 0, 67, 0
2, 1250360, Note_on_c, 0, 82, 88
2, 1250376, Note_on_c, 0, 72, 68
2, 1250416, Note_on_c, 0, 82, 0
2, 1250432, Note_on_c, 0, 72, 0
2, 1250468, Note_on_c, 0, 79, 88
2, 1250468, Note_on_c, 0, 67, 73
2, 1250468, Note_on_c, 0, 70, 76
2, 1250468, Note_on_c, 0, 72, 76
2, 1250468, Note_on_c, 0, 64, 76
2, 1250532, Note_on_c, 0, 70, 0
2, 1250536, Note_on_c, 0, 79, 0
2, 1250556, Note_on_c, 0, 64, 0
2, 1250556, Note_on_c, 0, 72, 0
2, 1250564, Note_on_c, 0, 82, 88
2, 1250568, Note_on_c, 0, 72, 69
2, 1250628, Note_on_c, 0, 72, 0
2, 1250628, Note_on_c, 0, 82, 0
2, 1250652, Note_on_c, 0, 70, 68
2, 1250660, Note_on_c, 0, 79, 81
2, 1250724, Note_on_c, 0, 70, 0
2, 1250728, Note_on_c, 0, 79, 0
2, 1250760, Note_on_c, 0, 82, 84
2, 1250760, Note_on_c, 0, 72, 74
2, 1250788, Note_on_c, 0, 67, 0
2, 1250804, Note_on_c, 0, 72, 0
2, 1250824, Note_on_c, 0, 82, 0
2, 1250880, Note_on_c, 0, 65, 94
2, 1250880, Note_on_c, 0, 48, 68
2, 1250880, Note_on_c, 0, 41, 69
2, 1250904, Control_c, 0, 64, 88
2, 1250916, Control_c, 0, 64, 127
2, 1250944, Note_on_c, 0, 65, 0
2, 1250960, Note_on_c, 0, 41, 0
2, 1250960, Note_on_c, 0, 48, 0
2, 1250984, Note_on_c, 0, 53, 81
2, 1250984, Note_on_c, 0, 69, 83
2, 1251032, Note_on_c, 0, 53, 0
2, 1251044, Note_on_c, 0, 69, 0
2, 1251076, Note_on_c, 0, 57, 73
2, 1251084, Note_on_c, 0, 72, 92
2, 1251104, Note_on_c, 0, 57, 0
2, 1251156, Note_on_c, 0, 72, 0
2, 1251168, Note_on_c, 0, 60, 73
2, 1251176, Note_on_c, 0, 77, 100
2, 1251252, Note_on_c, 0, 60, 0
2, 1251256, Note_on_c, 0, 77, 0
2, 1251272, Note_on_c, 0, 81, 98
2, 1251284, Note_on_c, 0, 65, 73
2, 1251320, Note_on_c, 0, 65, 0
2, 1251336, Note_on_c, 0, 81, 0
2, 1251360, Note_on_c, 0, 77, 94
2, 1251396, Note_on_c, 0, 77, 0
2, 1251436, Control_c, 0, 64, 72
2, 1251444, Control_c, 0, 64, 0
2, 1251464, Note_on_c, 0, 69, 83
2, 1251468, Note_on_c, 0, 60, 80
2, 1251476, Note_on_c, 0, 53, 82
2, 1251492, Control_c, 0, 64, 56
2, 1251500, Note_on_c, 0, 69, 0
2, 1251500, Control_c, 0, 64, 127
2, 1251532, Note_on_c, 0, 53, 0
2, 1251552, Note_on_c, 0, 60, 0
2, 1251560, Note_on_c, 0, 72, 88
2, 1251572, Note_on_c, 0, 65, 72
2, 1251612, Note_on_c, 0, 72, 0
2, 1251616, Note_on_c, 0, 65, 0
2, 1251656, Note_on_c, 0, 77, 98
2, 1251660, Note_on_c, 0, 69, 78
2, 1251704, Note_on_c, 0, 69, 0
2, 1251712, Note_on_c, 0, 77, 0
2, 1251736, Note_on_c, 0, 81, 100
2, 1251748, Note_on_c, 0, 72, 73
2, 1251824, Note_on_c, 0, 72, 0
2, 1251824, Note_on_c, 0, 81, 0
2, 1251836, Note_on_c, 0, 84, 108
2, 1251836, Note_on_c, 0, 77, 84
2, 1251836, Note_on_c, 0, 65, 71
2, 1251836, Note_on_c, 0, 69, 74
2, 1251836, Note_on_c, 0, 53, 76
2, 1251868, Note_on_c, 0, 77, 0
2, 1251932, Note_on_c, 0, 84, 0
2, 1251936, Note_on_c, 0, 81, 90
2, 1251972, Note_on_c, 0, 81, 0
2, 1252040, Control_c, 0, 64, 104
2, 1252048, Note_on_c, 0, 65, 94
2, 1252048, Note_on_c, 0, 53, 75
2, 1252048, Note_on_c, 0, 48, 77
2, 1252052, Control_c, 0, 64, 40
2, 1252060, Control_c, 0, 64, 0
2, 1252088, Note_on_c, 0, 48, 0
2, 1252088, Note_on_c, 0, 65, 0
2, 1252088, Control_c, 0, 64, 72
2, 1252092, Note_on_c, 0, 65, 0
2, 1252092, Note_on_c, 0, 53, 0
2, 1252092, Note_on_c, 0, 69, 0
2, 1252096, Control_c, 0, 64, 127
2, 1252116, Note_on_c, 0, 53, 0
2, 1252140, Note_on_c, 0, 67, 88
2, 1252140, Note_on_c, 0, 55, 74
2, 1252140, Note_on_c, 0, 65, 76
2, 1252168, Note_on_c, 0, 55, 0
2, 1252184, Note_on_c, 0, 67, 0
2, 1252200, Note_on_c, 0, 65, 0
2, 1252236, Note_on_c, 0, 72, 88
2, 1252236, Note_on_c, 0, 60, 76
2, 1252236, Note_on_c, 0, 65, 76
2, 1252284, Note_on_c, 0, 65, 75
2, 1252296, Note_on_c, 0, 65, 0
2, 1252296, Note_on_c, 0, 72, 0
2, 1252296, Note_on_c, 0, 60, 0
2, 1252320, Note_on_c, 0, 77, 98
2, 1252396, Note_on_c, 0, 77, 0
2, 1252408, Note_on_c, 0, 79, 99
2, 1252408, Note_on_c, 0, 67, 76
2, 1252408, Note_on_c, 0, 48, 76
2, 1252436, Note_on_c, 0, 65, 0
2, 1252444, Note_on_c, 0, 67, 0
2, 1252492, Note_on_c, 0, 79, 0
2, 1252508, Note_on_c, 0, 77, 78
2, 1252540, Note_on_c, 0, 77, 0
2, 1252612, Note_on_c, 0, 67, 88
2, 1252612, Note_on_c, 0, 48, 74
2, 1252612, Note_on_c, 0, 55, 82
2, 1252612, Control_c, 0, 64, 56
2, 1252616, Control_c, 0, 64, 0
2, 1252648, Control_c, 0, 64, 40
2, 1252652, Note_on_c, 0, 67, 0
2, 1252656, Note_on_c, 0, 48, 0
2, 1252656, Control_c, 0, 64, 104
2, 1252664, Control_c, 0, 64, 127
2, 1252680, Note_on_c, 0, 48, 0
2, 1252692, Note_on_c, 0, 55, 0
2, 1252712, Note_on_c, 0, 60, 74
2, 1252712, Note_on_c, 0, 72, 83
2, 1252736, Note_on_c, 0, 60, 0
2, 1252756, Note_on_c, 0, 72, 0
2, 1252796, Note_on_c, 0, 76, 88
2, 1252800, Note_on_c, 0, 64, 76
2, 1252844, Note_on_c, 0, 64, 0
2, 1252852, Note_on_c, 0, 76, 0
2, 1252884, Note_on_c, 0, 79, 91
2, 1252888, Note_on_c, 0, 67, 79
2, 1252960, Note_on_c, 0, 79, 0
2, 1252976, Note_on_c, 0, 67, 0
2, 1252976, Note_on_c, 0, 84, 98
2, 1252976, Note_on_c, 0, 72, 78
2, 1252976, Note_on_c, 0, 60, 76
2, 1252976, Note_on_c, 0, 64, 74
2, 1253016, Note_on_c, 0, 72, 0
2, 1253056, Note_on_c, 0, 84, 0
2, 1253080, Note_on_c, 0, 79, 81
2, 1253096, Note_on_c, 0, 79, 0
2, 1253164, Control_c, 0, 64, 72
2, 1253176, Control_c, 0, 64, 0
2, 1253184, Note_on_c, 0, 67, 91
2, 1253184, Note_on_c, 0, 50, 79
2, 1253184, Note_on_c, 0, 43, 75
2, 1253216, Note_on_c, 0, 64, 0
2, 1253216, Control_c, 0, 64, 56
2, 1253224, Control_c, 0, 64, 127
2, 1253228, Note_on_c, 0, 60, 0
2, 1253232, Note_on_c, 0, 67, 0
2, 1253252, Note_on_c, 0, 43, 0
2, 1253264, Note_on_c, 0, 50, 0
2, 1253276, Note_on_c, 0, 70, 88
2, 1253276, Note_on_c, 0, 55, 78
2, 1253304, Note_on_c, 0, 55, 0
2, 1253336, Note_on_c, 0, 70, 0
2, 1253384, Note_on_c, 0, 74, 86
2, 1253384, Note_on_c, 0, 58, 76
2, 1253436, Note_on_c, 0, 74, 0
2, 1253444, Note_on_c, 0, 58, 0
2, 1253464, Note_on_c, 0, 79, 98
2, 1253464, Note_on_c, 0, 62, 82
2, 1253516, Note_on_c, 0, 62, 0
2, 1253536, Note_on_c, 0, 79, 0
2, 1253560, Note_on_c, 0, 82, 101
2, 1253560, Note_on_c, 0, 67, 81
2, 1253600, Note_on_c, 0, 67, 0
2, 1253636, Note_on_c, 0, 82, 0
2, 1253656, Note_on_c, 0, 79, 84
2, 1253696, Note_on_c, 0, 79, 0
2, 1253756, Note_on_c, 0, 70, 87
2, 1253756, Note_on_c, 0, 62, 76
2, 1253756, Note_on_c, 0, 55, 78
2, 1253756, Control_c, 0, 64, 56
2, 1253764, Control_c, 0, 64, 0
2, 1253784, Control_c, 0, 64, 24
2, 1253792, Control_c, 0, 64, 72
2, 1253796, Note_on_c, 0, 70, 0
2, 1253800, Control_c, 0, 64, 127
2, 1253820, Note_on_c, 0, 55, 0
2, 1253820, Note_on_c, 0, 62, 0
2, 1253848, Note_on_c, 0, 74, 88
2, 1253848, Note_on_c, 0, 67, 76
2, 1253884, Note_on_c, 0, 67, 0
2, 1253900, Note_on_c, 0, 74, 0
2, 1253948, Note_on_c, 0, 79, 96
2, 1253956, Note_on_c, 0, 70, 74
2, 1253984, Note_on_c, 0, 70, 0
2, 1254000, Note_on_c, 0, 79, 0
2, 1254032, Note_on_c, 0, 82, 103
2, 1254036, Note_on_c, 0, 74, 73
2, 1254116, Note_on_c, 0, 74, 0
2, 1254116, Note_on_c, 0, 82, 0
2, 1254132, Note_on_c, 0, 86, 104
2, 1254132, Note_on_c, 0, 79, 87
2, 1254132, Note_on_c, 0, 67, 76
2, 1254132, Note_on_c, 0, 70, 78
2, 1254132, Note_on_c, 0, 62, 76
2, 1254132, Note_on_c, 0, 55, 78
2, 1254164, Note_on_c, 0, 79, 0
2, 1254216, Note_on_c, 0, 86, 0
2, 1254228, Note_on_c, 0, 82, 88
2, 1254260, Note_on_c, 0, 82, 0
2, 1254332, Control_c, 0, 64, 104
2, 1254336, Note_on_c, 0, 55, 78
2, 1254336, Note_on_c, 0, 67, 94
2, 1254344, Control_c, 0, 64, 40
2, 1254348, Note_on_c, 0, 50, 81
2, 1254352, Control_c, 0, 64, 0
2, 1254368, Control_c, 0, 64, 56
2, 1254372, Note_on_c, 0, 67, 0
2, 1254372, Note_on_c, 0, 62, 0
2, 1254372, Note_on_c, 0, 70, 0
2, 1254372, Note_on_c, 0, 55, 0
2, 1254380, Note_on_c, 0, 67, 0
2, 1254380, Control_c, 0, 64, 104
2, 1254388, Control_c, 0, 64, 127
2, 1254416, Note_on_c, 0, 55, 0
2, 1254420, Note_on_c, 0, 50, 0
2, 1254436, Note_on_c, 0, 69, 87
2, 1254436, Note_on_c, 0, 57, 80
2, 1254436, Note_on_c, 0, 67, 78
2, 1254480, Note_on_c, 0, 69, 0
2, 1254492, Note_on_c, 0, 57, 0
2, 1254496, Note_on_c, 0, 67, 0
2, 1254532, Note_on_c, 0, 74, 83
2, 1254532, Note_on_c, 0, 62, 73
2, 1254532, Note_on_c, 0, 67, 78
2, 1254572, Note_on_c, 0, 62, 0
2, 1254588, Note_on_c, 0, 74, 0
2, 1254592, Note_on_c, 0, 67, 0
2, 1254612, Note_on_c, 0, 67, 78
2, 1254620, Note_on_c, 0, 79, 95
2, 1254700, Note_on_c, 0, 79, 0
2, 1254712, Note_on_c, 0, 67, 0
2, 1254712, Note_on_c, 0, 81, 99
2, 1254712, Note_on_c, 0, 69, 85
2, 1254712, Note_on_c, 0, 50, 78
2, 1254752, Note_on_c, 0, 69, 0
2, 1254792, Note_on_c, 0, 81, 0
2, 1254808, Note_on_c, 0, 79, 77
2, 1254840, Note_on_c, 0, 79, 0
2, 1254900, Control_c, 0, 64, 72
2, 1254912, Note_on_c, 0, 57, 78
2, 1254912, Control_c, 0, 64, 0
2, 1254916, Note_on_c, 0, 69, 82
2, 1254920, Note_on_c, 0, 50, 78
2, 1254924, Note_on_c, 0, 50, 0
2, 1254940, Control_c, 0, 64, 40
2, 1254948, Control_c, 0, 64, 88
2, 1254956, Control_c, 0, 64, 127
2, 1254960, Note_on_c, 0, 69, 0
2, 1254988, Note_on_c, 0, 50, 0
2, 1255004, Note_on_c, 0, 57, 0
2, 1255004, Note_on_c, 0, 74, 86
2, 1255012, Note_on_c, 0, 62, 64
2, 1255048, Note_on_c, 0, 62, 0
2, 1255056, Note_on_c, 0, 74, 0
2, 1255104, Note_on_c, 0, 77, 89
2, 1255108, Note_on_c, 0, 65, 76
2, 1255156, Note_on_c, 0, 77, 0
2, 1255160, Note_on_c, 0, 65, 0
2, 1255192, Note_on_c, 0, 81, 93
2, 1255200, Note_on_c, 0, 69, 75
2, 1255272, Note_on_c, 0, 81, 0
2, 1255288, Note_on_c, 0, 86, 101
2, 1255288, Note_on_c, 0, 74, 79
2, 1255288, Note_on_c, 0, 62, 78
2, 1255288, Note_on_c, 0, 69, 76
2, 1255288, Note_on_c, 0, 65, 76
2, 1255300, Note_on_c, 0, 69, 0
2, 1255364, Note_on_c, 0, 86, 0
2, 1255392, Note_on_c, 0, 81, 85
2, 1255432, Note_on_c, 0, 81, 0
2, 1255464, Note_on_c, 0, 74, 0
2, 1255468, Note_on_c, 0, 69, 0
2, 1255472, Note_on_c, 0, 62, 0
2, 1255476, Note_on_c, 0, 65, 0
2, 1255488, Control_c, 0, 64, 88
2, 1255496, Control_c, 0, 64, 0
2, 1255548, Note_on_c, 0, 53, 69
2, 1255548, Note_on_c, 0, 62, 78
2, 1255552, Note_on_c, 0, 46, 69
2, 1255572, Control_c, 0, 64, 88
2, 1255580, Control_c, 0, 64, 127
2, 1255632, Note_on_c, 0, 53, 0
2, 1255636, Note_on_c, 0, 62, 0
2, 1255640, Note_on_c, 0, 46, 0
2, 1255640, Note_on_c, 0, 65, 76
2, 1255656, Note_on_c, 0, 58, 61
2, 1255680, Note_on_c, 0, 58, 0
2, 1255680, Note_on_c, 0, 65, 0
2, 1255736, Note_on_c, 0, 70, 78
2, 1255740, Note_on_c, 0, 62, 74
2, 1255780, Note_on_c, 0, 70, 0
2, 1255788, Note_on_c, 0, 62, 0
2, 1255836, Note_on_c, 0, 74, 76
2, 1255840, Note_on_c, 0, 65, 65
2, 1255892, Note_on_c, 0, 74, 0
2, 1255912, Note_on_c, 0, 65, 0
2, 1255936, Note_on_c, 0, 77, 80
2, 1255936, Note_on_c, 0, 70, 62
2, 1255980, Note_on_c, 0, 77, 0
2, 1255984, Note_on_c, 0, 70, 0
2, 1256024, Note_on_c, 0, 74, 63
2, 1256084, Note_on_c, 0, 74, 0
2, 1256108, Note_on_c, 0, 70, 70
2, 1256172, Note_on_c, 0, 70, 0
2, 1256212, Note_on_c, 0, 65, 70
2, 1256264, Note_on_c, 0, 65, 0
2, 1256312, Note_on_c, 0, 62, 78
2, 1256312, Note_on_c, 0, 46, 69
2, 1256312, Note_on_c, 0, 53, 70
2, 1256312, Note_on_c, 0, 58, 72
2, 1256312, Note_on_c, 0, 70, 72
2, 1256324, Control_c, 0, 64, 40
2, 1256332, Control_c, 0, 64, 0
2, 1256392, Note_on_c, 0, 62, 0
2, 1256396, Control_c, 0, 64, 72
2, 1256404, Control_c, 0, 64, 127
2, 1256412, Note_on_c, 0, 65, 81
2, 1256416, Note_on_c, 0, 46, 0
2, 1256424, Note_on_c, 0, 53, 0
2, 1256436, Note_on_c, 0, 58, 0
2, 1256448, Note_on_c, 0, 70, 0
2, 1256480, Note_on_c, 0, 65, 0
2, 1256504, Note_on_c, 0, 62, 78
2, 1256572, Note_on_c, 0, 62, 0
2, 1256604, Note_on_c, 0, 65, 78
2, 1256644, Note_on_c, 0, 65, 0
2, 1256692, Control_c, 0, 64, 24
2, 1256700, Note_on_c, 0, 64, 83
2, 1256700, Note_on_c, 0, 48, 72
2, 1256700, Note_on_c, 0, 55, 73
2, 1256700, Note_on_c, 0, 70, 76
2, 1256700, Control_c, 0, 64, 0
2, 1256760, Control_c, 0, 64, 127
2, 1256772, Note_on_c, 0, 55, 0
2, 1256776, Note_on_c, 0, 48, 0
2, 1256800, Note_on_c, 0, 64, 0
2, 1256804, Note_on_c, 0, 67, 82
2, 1256808, Note_on_c, 0, 58, 69
2, 1256836, Note_on_c, 0, 67, 0
2, 1256836, Note_on_c, 0, 70, 0
2, 1256848, Note_on_c, 0, 58, 0
2, 1256892, Note_on_c, 0, 60, 79
2, 1256900, Note_on_c, 0, 70, 84
2, 1256900, Control_c, 0, 64, 88
2, 1256912, Control_c, 0, 64, 104
2, 1256920, Control_c, 0, 64, 127
2, 1256948, Note_on_c, 0, 70, 0
2, 1256948, Note_on_c, 0, 60, 0
2, 1256988, Note_on_c, 0, 64, 74
2, 1256988, Note_on_c, 0, 70, 76
2, 1256988, Note_on_c, 0, 48, 76
2, 1256992, Note_on_c, 0, 82, 95
2, 1257004, Note_on_c, 0, 64, 0
2, 1257028, Note_on_c, 0, 82, 0
2, 1257052, Note_on_c, 0, 48, 0
2, 1257052, Note_on_c, 0, 70, 0
2, 1257084, Control_c, 0, 64, 72
2, 1257092, Note_on_c, 0, 81, 99
2, 1257092, Note_on_c, 0, 69, 82
2, 1257092, Control_c, 0, 64, 0
2, 1257096, Note_on_c, 0, 75, 71
2, 1257112, Note_on_c, 0, 60, 69
2, 1257116, Note_on_c, 0, 53, 78
2, 1257116, Note_on_c, 0, 65, 72
2, 1257156, Note_on_c, 0, 69, 0
2, 1257168, Control_c, 0, 64, 88
2, 1257176, Control_c, 0, 64, 127
2, 1257184, Note_on_c, 0, 53, 0
2, 1257188, Note_on_c, 0, 81, 0
2, 1257188, Note_on_c, 0, 75, 0
2, 1257192, Note_on_c, 0, 60, 0
2, 1257192, Note_on_c, 0, 65, 0
2, 1257196, Note_on_c, 0, 87, 89
2, 1257268, Note_on_c, 0, 87, 0
2, 1257296, Note_on_c, 0, 84, 89
2, 1257368, Note_on_c, 0, 84, 0
2, 1257392, Note_on_c, 0, 81, 90
2, 1257456, Note_on_c, 0, 81, 0
2, 1257476, Control_c, 0, 64, 72
2, 1257488, Note_on_c, 0, 77, 86
2, 1257488, Note_on_c, 0, 72, 69
2, 1257488, Note_on_c, 0, 65, 70
2, 1257488, Note_on_c, 0, 75, 83
2, 1257488, Note_on_c, 0, 69, 72
2, 1257488, Note_on_c, 0, 53, 74
2, 1257488, Control_c, 0, 64, 0
2, 1257524, Control_c, 0, 64, 24
2, 1257532, Control_c, 0, 64, 72
2, 1257540, Control_c, 0, 64, 127
2, 1257576, Note_on_c, 0, 77, 0
2, 1257584, Note_on_c, 0, 72, 0
2, 1257588, Note_on_c, 0, 78, 85
2, 1257592, Note_on_c, 0, 65, 0
2, 1257632, Note_on_c, 0, 53, 0
2, 1257632, Note_on_c, 0, 69, 0
2, 1257648, Note_on_c, 0, 78, 0
2, 1257664, Note_on_c, 0, 75, 0
2, 1257664, Note_on_c, 0, 81, 78
2, 1257684, Note_on_c, 0, 79, 91
2, 1257688, Control_c, 0, 64, 72
2, 1257696, Control_c, 0, 64, 56
2, 1257704, Note_on_c, 0, 81, 0
2, 1257708, Control_c, 0, 64, 72
2, 1257716, Control_c, 0, 64, 88
2, 1257724, Control_c, 0, 64, 127
2, 1257752, Note_on_c, 0, 79, 0
2, 1257772, Note_on_c, 0, 75, 86
2, 1257824, Note_on_c, 0, 75, 0
2, 1257864, Control_c, 0, 64, 24
2, 1257872, Note_on_c, 0, 74, 88
2, 1257872, Control_c, 0, 64, 0
2, 1257884, Note_on_c, 0, 65, 68
2, 1257892, Note_on_c, 0, 58, 58
2, 1257908, Control_c, 0, 64, 40
2, 1257916, Control_c, 0, 64, 104
2, 1257920, Note_on_c, 0, 74, 0
2, 1257928, Control_c, 0, 64, 127
2, 1257956, Note_on_c, 0, 65, 0
2, 1257964, Note_on_c, 0, 77, 90
2, 1257968, Note_on_c, 0, 58, 0
2, 1257984, Note_on_c, 0, 70, 58
2, 1258012, Note_on_c, 0, 77, 0
2, 1258028, Note_on_c, 0, 70, 0
2, 1258060, Note_on_c, 0, 82, 94
2, 1258072, Note_on_c, 0, 74, 75
2, 1258108, Note_on_c, 0, 74, 0
2, 1258112, Note_on_c, 0, 82, 0
2, 1258156, Note_on_c, 0, 86, 91
2, 1258164, Note_on_c, 0, 77, 73
2, 1258220, Note_on_c, 0, 86, 0
2, 1258232, Note_on_c, 0, 77, 0
2, 1258252, Note_on_c, 0, 89, 93
2, 1258256, Control_c, 0, 64, 56
2, 1258260, Note_on_c, 0, 82, 83
2, 1258268, Control_c, 0, 64, 40
2, 1258272, Control_c, 0, 64, 56
2, 1258284, Control_c, 0, 64, 104
2, 1258292, Control_c, 0, 64, 127
2, 1258320, Note_on_c, 0, 89, 0
2, 1258332, Note_on_c, 0, 82, 0
2, 1258344, Note_on_c, 0, 86, 83
2, 1258420, Note_on_c, 0, 86, 0
2, 1258432, Note_on_c, 0, 82, 88
2, 1258504, Note_on_c, 0, 82, 0
2, 1258532, Note_on_c, 0, 77, 73
2, 1258572, Note_on_c, 0, 77, 0
2, 1258620, Note_on_c, 0, 74, 80
2, 1258628, Note_on_c, 0, 70, 67
2, 1258636, Note_on_c, 0, 65, 63
2, 1258636, Note_on_c, 0, 58, 61
2, 1258644, Control_c, 0, 64, 88
2, 1258652, Control_c, 0, 64, 24
2, 1258660, Control_c, 0, 64, 0
2, 1258688, Note_on_c, 0, 74, 0
2, 1258696, Control_c, 0, 64, 24
2, 1258708, Control_c, 0, 64, 88
2, 1258716, Note_on_c, 0, 77, 83
2, 1258716, Control_c, 0, 64, 127
2, 1258772, Note_on_c, 0, 77, 0
2, 1258780, Note_on_c, 0, 65, 0
2, 1258792, Note_on_c, 0, 58, 0
2, 1258804, Note_on_c, 0, 74, 86
2, 1258868, Note_on_c, 0, 74, 0
2, 1258892, Note_on_c, 0, 77, 86
2, 1258936, Note_on_c, 0, 70, 0
2, 1258940, Note_on_c, 0, 77, 0
2, 1258992, Note_on_c, 0, 76, 89
2, 1258992, Note_on_c, 0, 67, 69
2, 1258992, Note_on_c, 0, 60, 75
2, 1258992, Note_on_c, 0, 72, 76
2, 1258992, Note_on_c, 0, 64, 70
2, 1258992, Control_c, 0, 64, 56
2, 1259000, Control_c, 0, 64, 0
2, 1259044, Control_c, 0, 64, 56
2, 1259052, Control_c, 0, 64, 127
2, 1259072, Note_on_c, 0, 60, 0
2, 1259076, Note_on_c, 0, 67, 0
2, 1259088, Note_on_c, 0, 64, 0
2, 1259088, Note_on_c, 0, 72, 0
2, 1259092, Note_on_c, 0, 76, 0
2, 1259092, Note_on_c, 0, 79, 88
2, 1259100, Note_on_c, 0, 70, 63
2, 1259128, Note_on_c, 0, 79, 0
2, 1259148, Note_on_c, 0, 70, 0
2, 1259188, Note_on_c, 0, 82, 99
2, 1259192, Note_on_c, 0, 72, 74
2, 1259240, Note_on_c, 0, 82, 0
2, 1259252, Note_on_c, 0, 72, 0
2, 1259276, Note_on_c, 0, 76, 77
2, 1259276, Note_on_c, 0, 94, 99
2, 1259276, Note_on_c, 0, 64, 69
2, 1259276, Note_on_c, 0, 60, 76
2, 1259276, Note_on_c, 0, 72, 73
2, 1259276, Note_on_c, 0, 67, 72
2, 1259324, Note_on_c, 0, 94, 0
2, 1259328, Note_on_c, 0, 76, 0
2, 1259372, Note_on_c, 0, 72, 0
2, 1259372, Note_on_c, 0, 60, 0
2, 1259372, Note_on_c, 0, 67, 0
2, 1259372, Note_on_c, 0, 64, 0
2, 1259376, Control_c, 0, 64, 40
2, 1259384, Control_c, 0, 64, 0
2, 1259388, Note_on_c, 0, 93, 91
2, 1259388, Note_on_c, 0, 72, 68
2, 1259388, Note_on_c, 0, 65, 73
2, 1259388, Note_on_c, 0, 77, 68
2, 1259388, Note_on_c, 0, 87, 77
2, 1259388, Note_on_c, 0, 69, 72
2, 1259448, Control_c, 0, 64, 88
2, 1259456, Control_c, 0, 64, 127
2, 1259472, Note_on_c, 0, 87, 0
2, 1259472, Note_on_c, 0, 93, 0
2, 1259476, Note_on_c, 0, 65, 0
2, 1259484, Note_on_c, 0, 69, 0
2, 1259492, Note_on_c, 0, 99, 93
2, 1259500, Note_on_c, 0, 72, 0
2, 1259512, Note_on_c, 0, 77, 0
2, 1259552, Note_on_c, 0, 99, 0
2, 1259584, Note_on_c, 0, 96, 89
2, 1259648, Note_on_c, 0, 96, 0
2, 1259680, Note_on_c, 0, 93, 93
2, 1259752, Note_on_c, 0, 93, 0
2, 1259760, Control_c, 0, 64, 104
2, 1259768, Control_c, 0, 64, 40
2, 1259780, Note_on_c, 0, 89, 86
2, 1259780, Note_on_c, 0, 84, 74
2, 1259780, Note_on_c, 0, 77, 71
2, 1259780, Note_on_c, 0, 87, 73
2, 1259780, Note_on_c, 0, 65, 72
2, 1259780, Note_on_c, 0, 53, 74
2, 1259780, Control_c, 0, 64, 24
2, 1259796, Control_c, 0, 64, 72
2, 1259804, Control_c, 0, 64, 127
2, 1259836, Note_on_c, 0, 77, 0
2, 1259840, Note_on_c, 0, 84, 0
2, 1259852, Note_on_c, 0, 87, 0
2, 1259856, Note_on_c, 0, 89, 0
2, 1259876, Note_on_c, 0, 90, 88
2, 1259940, Note_on_c, 0, 90, 0
2, 1259948, Note_on_c, 0, 93, 78
2, 1259960, Note_on_c, 0, 53, 0
2, 1259960, Note_on_c, 0, 65, 0
2, 1259980, Note_on_c, 0, 91, 94
2, 1260000, Note_on_c, 0, 93, 0
2, 1260044, Note_on_c, 0, 91, 0
2, 1260060, Note_on_c, 0, 87, 90
2, 1260112, Note_on_c, 0, 87, 0
2, 1260128, Control_c, 0, 64, 72
2, 1260136, Control_c, 0, 64, 0
2, 1260160, Note_on_c, 0, 74, 89
2, 1260160, Note_on_c, 0, 70, 68
2, 1260172, Note_on_c, 0, 77, 66
2, 1260184, Control_c, 0, 64, 56
2, 1260192, Control_c, 0, 64, 127
2, 1260200, Note_on_c, 0, 74, 0
2, 1260228, Note_on_c, 0, 77, 0
2, 1260236, Note_on_c, 0, 70, 0
2, 1260248, Note_on_c, 0, 77, 95
2, 1260292, Note_on_c, 0, 77, 0
2, 1260348, Note_on_c, 0, 82, 92
2, 1260348, Note_on_c, 0, 74, 68
2, 1260388, Note_on_c, 0, 74, 0
2, 1260392, Note_on_c, 0, 82, 0
2, 1260440, Note_on_c, 0, 86, 97
2, 1260440, Note_on_c, 0, 77, 74
2, 1260488, Note_on_c, 0, 77, 0
2, 1260508, Note_on_c, 0, 86, 0
2, 1260540, Note_on_c, 0, 89, 91
2, 1260548, Note_on_c, 0, 82, 83
2, 1260584, Note_on_c, 0, 82, 0
2, 1260604, Note_on_c, 0, 89, 0
2, 1260628, Note_on_c, 0, 86, 85
2, 1260720, Note_on_c, 0, 86, 0
2, 1260728, Note_on_c, 0, 82, 81
2, 1260796, Note_on_c, 0, 82, 0
2, 1260816, Note_on_c, 0, 77, 74
2, 1260848, Note_on_c, 0, 77, 0
2, 1260920, Note_on_c, 0, 74, 82
2, 1260920, Note_on_c, 0, 58, 67
2, 1260920, Note_on_c, 0, 65, 69
2, 1260920, Note_on_c, 0, 62, 74
2, 1260920, Note_on_c, 0, 46, 74
2, 1260920, Note_on_c, 0, 53, 74
2, 1260980, Note_on_c, 0, 74, 0
2, 1261000, Note_on_c, 0, 58, 0
2, 1261004, Note_on_c, 0, 65, 0
2, 1261012, Note_on_c, 0, 77, 84
2, 1261016, Note_on_c, 0, 62, 0
2, 1261016, Note_on_c, 0, 53, 0
2, 1261016, Note_on_c, 0, 46, 0
2, 1261076, Note_on_c, 0, 77, 0
2, 1261108, Note_on_c, 0, 74, 83
2, 1261172, Note_on_c, 0, 74, 0
2, 1261200, Note_on_c, 0, 77, 78
2, 1261260, Note_on_c, 0, 77, 0
2, 1261264, Control_c, 0, 64, 88
2, 1261272, Control_c, 0, 64, 0
2, 1261300, Note_on_c, 0, 73, 71
2, 1261300, Note_on_c, 0, 65, 74
2, 1261308, Note_on_c, 0, 58, 62
2, 1261328, Control_c, 0, 64, 56
2, 1261336, Control_c, 0, 64, 127
2, 1261344, Note_on_c, 0, 73, 0
2, 1261356, Note_on_c, 0, 58, 0
2, 1261364, Note_on_c, 0, 65, 0
2, 1261396, Note_on_c, 0, 77, 83
2, 1261400, Note_on_c, 0, 70, 74
2, 1261448, Note_on_c, 0, 70, 0
2, 1261448, Note_on_c, 0, 77, 0
2, 1261488, Note_on_c, 0, 82, 91
2, 1261488, Note_on_c, 0, 73, 70
2, 1261536, Note_on_c, 0, 73, 0
2, 1261548, Note_on_c, 0, 82, 0
2, 1261584, Note_on_c, 0, 85, 97
2, 1261596, Note_on_c, 0, 77, 68
2, 1261660, Note_on_c, 0, 77, 0
2, 1261664, Note_on_c, 0, 85, 0
2, 1261680, Note_on_c, 0, 89, 100
2, 1261684, Note_on_c, 0, 82, 86
2, 1261728, Note_on_c, 0, 82, 0
2, 1261764, Note_on_c, 0, 89, 0
2, 1261784, Note_on_c, 0, 85, 88
2, 1261860, Note_on_c, 0, 85, 0
2, 1261884, Note_on_c, 0, 82, 86
2, 1261956, Note_on_c, 0, 82, 0
2, 1261972, Note_on_c, 0, 77, 84
2, 1262020, Note_on_c, 0, 77, 0
2, 1262072, Note_on_c, 0, 73, 77
2, 1262072, Note_on_c, 0, 65, 68
2, 1262072, Note_on_c, 0, 58, 73
2, 1262072, Note_on_c, 0, 53, 71
2, 1262072, Note_on_c, 0, 46, 72
2, 1262072, Note_on_c, 0, 61, 69
2, 1262148, Note_on_c, 0, 73, 0
2, 1262168, Note_on_c, 0, 46, 0
2, 1262168, Note_on_c, 0, 53, 0
2, 1262168, Note_on_c, 0, 61, 0
2, 1262172, Note_on_c, 0, 65, 0
2, 1262172, Note_on_c, 0, 77, 76
2, 1262184, Note_on_c, 0, 58, 0
2, 1262232, Note_on_c, 0, 77, 0
2, 1262268, Note_on_c, 0, 73, 76
2, 1262336, Note_on_c, 0, 73, 0
2, 1262368, Note_on_c, 0, 77, 76
2, 1262424, Note_on_c, 0, 77, 0
2, 1262504, Note_on_c, 0, 42, 81
2, 1262504, Note_on_c, 0, 54, 90
2, 1262524, Control_c, 0, 64, 88
2, 1262532, Control_c, 0, 64, 127
2, 1262568, Note_on_c, 0, 54, 0
2, 1262584, Note_on_c, 0, 42, 0
2, 1262616, Note_on_c, 0, 49, 73
2, 1262616, Note_on_c, 0, 58, 79
2, 1262660, Note_on_c, 0, 58, 0
2, 1262676, Note_on_c, 0, 49, 0
2, 1262716, Note_on_c, 0, 61, 80
2, 1262716, Note_on_c, 0, 54, 76
2, 1262776, Note_on_c, 0, 61, 0
2, 1262784, Note_on_c, 0, 54, 0
2, 1262808, Note_on_c, 0, 66, 84
2, 1262808, Note_on_c, 0, 58, 78
2, 1262880, Note_on_c, 0, 58, 0
2, 1262892, Note_on_c, 0, 66, 0
2, 1262912, Note_on_c, 0, 70, 98
2, 1262912, Note_on_c, 0, 61, 78
2, 1262948, Note_on_c, 0, 61, 0
2, 1262976, Note_on_c, 0, 70, 0
2, 1263012, Note_on_c, 0, 66, 80
2, 1263052, Note_on_c, 0, 66, 0
2, 1263096, Control_c, 0, 64, 56
2, 1263104, Control_c, 0, 64, 0
2, 1263116, Note_on_c, 0, 58, 97
2, 1263116, Note_on_c, 0, 42, 77
2, 1263116, Note_on_c, 0, 49, 74
2, 1263160, Note_on_c, 0, 58, 0
2, 1263160, Control_c, 0, 64, 88
2, 1263168, Control_c, 0, 64, 127
2, 1263176, Note_on_c, 0, 49, 0
2, 1263188, Note_on_c, 0, 42, 0
2, 1263220, Note_on_c, 0, 61, 87
2, 1263220, Note_on_c, 0, 54, 77
2, 1263280, Note_on_c, 0, 61, 0
2, 1263284, Note_on_c, 0, 54, 0
2, 1263316, Note_on_c, 0, 58, 77
2, 1263320, Note_on_c, 0, 66, 88
2, 1263388, Note_on_c, 0, 66, 0
2, 1263400, Note_on_c, 0, 58, 0
2, 1263416, Note_on_c, 0, 70, 94
2, 1263416, Note_on_c, 0, 61, 81
2, 1263492, Note_on_c, 0, 61, 0
2, 1263496, Note_on_c, 0, 70, 0
2, 1263512, Note_on_c, 0, 73, 100
2, 1263512, Note_on_c, 0, 66, 76
2, 1263512, Note_on_c, 0, 70, 74
2, 1263512, Note_on_c, 0, 61, 74
2, 1263512, Note_on_c, 0, 54, 76
2, 1263552, Note_on_c, 0, 66, 0
2, 1263584, Note_on_c, 0, 73, 0
2, 1263612, Note_on_c, 0, 70, 84
2, 1263652, Note_on_c, 0, 61, 0
2, 1263652, Note_on_c, 0, 54, 0
2, 1263652, Note_on_c, 0, 70, 0
2, 1263660, Note_on_c, 0, 70, 0
2, 1263700, Control_c, 0, 64, 72
2, 1263708, Control_c, 0, 64, 24
2, 1263720, Control_c, 0, 64, 0
2, 1263724, Note_on_c, 0, 54, 102
2, 1263732, Note_on_c, 0, 37, 73
2, 1263764, Control_c, 0, 64, 72
2, 1263772, Note_on_c, 0, 54, 0
2, 1263772, Control_c, 0, 64, 127
2, 1263828, Note_on_c, 0, 56, 95
2, 1263828, Note_on_c, 0, 66, 76
2, 1263836, Note_on_c, 0, 44, 70
2, 1263864, Note_on_c, 0, 37, 0
2, 1263880, Note_on_c, 0, 56, 0
2, 1263888, Note_on_c, 0, 66, 0
2, 1263908, Note_on_c, 0, 44, 0
2, 1263928, Note_on_c, 0, 49, 75
2, 1263932, Note_on_c, 0, 61, 88
2, 1263932, Note_on_c, 0, 66, 76
2, 1263988, Note_on_c, 0, 49, 0
2, 1263992, Note_on_c, 0, 66, 0
2, 1263996, Note_on_c, 0, 61, 0
2, 1264028, Note_on_c, 0, 66, 88
2, 1264048, Note_on_c, 0, 53, 61
2, 1264072, Note_on_c, 0, 53, 0
2, 1264108, Note_on_c, 0, 66, 0
2, 1264132, Note_on_c, 0, 68, 98
2, 1264132, Note_on_c, 0, 49, 76
2, 1264136, Note_on_c, 0, 56, 79
2, 1264176, Note_on_c, 0, 56, 0
2, 1264204, Note_on_c, 0, 68, 0
2, 1264228, Note_on_c, 0, 66, 83
2, 1264268, Note_on_c, 0, 66, 0
2, 1264272, Note_on_c, 0, 49, 0
2, 1264300, Control_c, 0, 64, 88
2, 1264308, Control_c, 0, 64, 24
2, 1264316, Control_c, 0, 64, 0
2, 1264340, Note_on_c, 0, 56, 99
2, 1264344, Note_on_c, 0, 37, 72
2, 1264360, Control_c, 0, 64, 72
2, 1264368, Control_c, 0, 64, 127
2, 1264388, Note_on_c, 0, 56, 0
2, 1264436, Note_on_c, 0, 44, 77
2, 1264440, Note_on_c, 0, 61, 83
2, 1264460, Note_on_c, 0, 37, 0
2, 1264496, Note_on_c, 0, 61, 0
2, 1264500, Note_on_c, 0, 44, 0
2, 1264528, Note_on_c, 0, 49, 74
2, 1264536, Note_on_c, 0, 65, 92
2, 1264572, Note_on_c, 0, 49, 0
2, 1264604, Note_on_c, 0, 65, 0
2, 1264632, Note_on_c, 0, 68, 91
2, 1264632, Note_on_c, 0, 56, 83
2, 1264716, Note_on_c, 0, 68, 0
2, 1264732, Note_on_c, 0, 73, 102
2, 1264732, Note_on_c, 0, 65, 76
2, 1264740, Note_on_c, 0, 61, 95
2, 1264784, Note_on_c, 0, 61, 0
2, 1264816, Note_on_c, 0, 56, 0
2, 1264836, Note_on_c, 0, 73, 0
2, 1264840, Note_on_c, 0, 68, 78
2, 1264872, Note_on_c, 0, 65, 0
2, 1264876, Note_on_c, 0, 68, 0
2, 1264928, Control_c, 0, 64, 56
2, 1264940, Control_c, 0, 64, 0
2, 1264952, Note_on_c, 0, 56, 97
2, 1264952, Note_on_c, 0, 44, 75
2, 1264992, Control_c, 0, 64, 72
2, 1265000, Control_c, 0, 64, 127
2, 1265004, Note_on_c, 0, 56, 0
2, 1265040, Note_on_c, 0, 59, 85
2, 1265060, Note_on_c, 0, 51, 68
2, 1265068, Note_on_c, 0, 44, 0
2, 1265088, Note_on_c, 0, 59, 0
2, 1265124, Note_on_c, 0, 51, 0
2, 1265136, Note_on_c, 0, 63, 79
2, 1265148, Note_on_c, 0, 56, 76
2, 1265196, Note_on_c, 0, 63, 0
2, 1265224, Note_on_c, 0, 68, 88
2, 1265228, Note_on_c, 0, 59, 78
2, 1265232, Note_on_c, 0, 56, 0
2, 1265316, Note_on_c, 0, 68, 0
2, 1265336, Note_on_c, 0, 71, 100
2, 1265344, Note_on_c, 0, 63, 78
2, 1265388, Note_on_c, 0, 63, 0
2, 1265396, Note_on_c, 0, 59, 0
2, 1265440, Note_on_c, 0, 68, 73
2, 1265448, Note_on_c, 0, 71, 0
2, 1265468, Note_on_c, 0, 68, 0
2, 1265520, Control_c, 0, 64, 104
2, 1265528, Control_c, 0, 64, 40
2, 1265536, Control_c, 0, 64, 0
2, 1265544, Note_on_c, 0, 59, 73
2, 1265548, Note_on_c, 0, 44, 77
2, 1265552, Control_c, 0, 64, 24
2, 1265560, Control_c, 0, 64, 72
2, 1265572, Control_c, 0, 64, 127
2, 1265584, Note_on_c, 0, 59, 0
2, 1265632, Note_on_c, 0, 63, 79
2, 1265632, Note_on_c, 0, 56, 73
2, 1265660, Note_on_c, 0, 44, 0
2, 1265692, Note_on_c, 0, 63, 0
2, 1265704, Note_on_c, 0, 56, 0
2, 1265724, Note_on_c, 0, 68, 87
2, 1265728, Note_on_c, 0, 59, 73
2, 1265788, Note_on_c, 0, 68, 0
2, 1265792, Note_on_c, 0, 59, 0
2, 1265816, Note_on_c, 0, 63, 79
2, 1265820, Note_on_c, 0, 71, 96
2, 1265900, Note_on_c, 0, 71, 0
2, 1265920, Note_on_c, 0, 75, 100
2, 1265920, Note_on_c, 0, 68, 80
2, 1265920, Note_on_c, 0, 71, 79
2, 1265920, Note_on_c, 0, 63, 76
2, 1265920, Note_on_c, 0, 56, 78
2, 1265972, Note_on_c, 0, 68, 0
2, 1265992, Note_on_c, 0, 63, 0
2, 1266012, Note_on_c, 0, 71, 83
2, 1266016, Note_on_c, 0, 75, 0
2, 1266048, Note_on_c, 0, 71, 0
2, 1266060, Note_on_c, 0, 63, 0
2, 1266060, Note_on_c, 0, 56, 0
2, 1266060, Note_on_c, 0, 71, 0
2, 1266116, Control_c, 0, 64, 56
2, 1266124, Control_c, 0, 64, 0
2, 1266136, Note_on_c, 0, 56, 92
2, 1266140, Note_on_c, 0, 39, 73
2, 1266160, Control_c, 0, 64, 24
2, 1266168, Control_c, 0, 64, 88
2, 1266180, Note_on_c, 0, 56, 0
2, 1266180, Control_c, 0, 64, 127
2, 1266228, Note_on_c, 0, 58, 85
2, 1266228, Note_on_c, 0, 68, 76
2, 1266232, Note_on_c, 0, 46, 77
2, 1266272, Note_on_c, 0, 39, 0
2, 1266276, Note_on_c, 0, 58, 0
2, 1266288, Note_on_c, 0, 68, 0
2, 1266296, Note_on_c, 0, 46, 0
2, 1266316, Note_on_c, 0, 51, 68
2, 1266324, Note_on_c, 0, 63, 89
2, 1266324, Note_on_c, 0, 68, 76
2, 1266364, Note_on_c, 0, 51, 0
2, 1266384, Note_on_c, 0, 68, 0
2, 1266396, Note_on_c, 0, 63, 0
2, 1266412, Note_on_c, 0, 56, 75
2, 1266416, Note_on_c, 0, 68, 91
2, 1266504, Note_on_c, 0, 68, 0
2, 1266516, Note_on_c, 0, 56, 0
2, 1266524, Note_on_c, 0, 70, 100
2, 1266528, Note_on_c, 0, 58, 84
2, 1266528, Note_on_c, 0, 51, 76
2, 1266568, Note_on_c, 0, 58, 0
2, 1266604, Note_on_c, 0, 70, 0
2, 1266616, Note_on_c, 0, 68, 82
2, 1266664, Note_on_c, 0, 68, 0
2, 1266688, Note_on_c, 0, 51, 0
2, 1266712, Control_c, 0, 64, 88
2, 1266720, Control_c, 0, 64, 40
2, 1266724, Note_on_c, 0, 58, 87
2, 1266728, Control_c, 0, 64, 0
2, 1266736, Note_on_c, 0, 39, 73
2, 1266764, Note_on_c, 0, 58, 0
2, 1266768, Control_c, 0, 64, 72
2, 1266776, Control_c, 0, 64, 127
2, 1266824, Note_on_c, 0, 63, 83
2, 1266836, Note_on_c, 0, 46, 74
2, 1266864, Note_on_c, 0, 39, 0
2, 1266880, Note_on_c, 0, 63, 0
2, 1266896, Note_on_c, 0, 46, 0
2, 1266916, Note_on_c, 0, 66, 85
2, 1266920, Note_on_c, 0, 51, 77
2, 1266960, Note_on_c, 0, 51, 0
2, 1266984, Note_on_c, 0, 66, 0
2, 1267012, Note_on_c, 0, 54, 73
2, 1267016, Note_on_c, 0, 70, 94
2, 1267096, Note_on_c, 0, 70, 0
2, 1267116, Note_on_c, 0, 75, 100
2, 1267116, Note_on_c, 0, 63, 85
2, 1267116, Note_on_c, 0, 66, 84
2, 1267192, Note_on_c, 0, 63, 0
2, 1267208, Note_on_c, 0, 75, 0
2, 1267220, Note_on_c, 0, 70, 81
2, 1267228, Note_on_c, 0, 54, 0
2, 1267256, Note_on_c, 0, 70, 0
2, 1267292, Note_on_c, 0, 66, 0
2, 1267344, Control_c, 0, 64, 104
2, 1267352, Control_c, 0, 64, 40
2, 1267364, Control_c, 0, 64, 0
2, 1267376, Note_on_c, 0, 63, 76
2, 1267380, Note_on_c, 0, 54, 71
2, 1267380, Note_on_c, 0, 47, 75
2, 1267432, Control_c, 0, 64, 88
2, 1267436, Note_on_c, 0, 63, 0
2, 1267444, Control_c, 0, 64, 127
2, 1267456, Note_on_c, 0, 47, 0
2, 1267464, Note_on_c, 0, 54, 0
2, 1267468, Note_on_c, 0, 66, 78
2, 1267472, Note_on_c, 0, 59, 71
2, 1267520, Note_on_c, 0, 66, 0
2, 1267540, Note_on_c, 0, 59, 0
2, 1267564, Note_on_c, 0, 71, 80
2, 1267572, Note_on_c, 0, 63, 68
2, 1267624, Note_on_c, 0, 71, 0
2, 1267648, Note_on_c, 0, 63, 0
2, 1267652, Note_on_c, 0, 66, 62
2, 1267656, Note_on_c, 0, 75, 87
2, 1267728, Note_on_c, 0, 75, 0
2, 1267752, Note_on_c, 0, 78, 87
2, 1267760, Note_on_c, 0, 71, 83
2, 1267808, Note_on_c, 0, 71, 0
2, 1267816, Note_on_c, 0, 66, 0
2, 1267844, Note_on_c, 0, 78, 0
2, 1267848, Note_on_c, 0, 75, 80
2, 1267924, Note_on_c, 0, 71, 73
2, 1267960, Note_on_c, 0, 75, 0
2, 1268004, Note_on_c, 0, 71, 0
2, 1268020, Note_on_c, 0, 66, 76
2, 1268076, Note_on_c, 0, 66, 0
2, 1268124, Note_on_c, 0, 63, 79
2, 1268128, Note_on_c, 0, 47, 68
2, 1268132, Note_on_c, 0, 54, 72
2, 1268136, Control_c, 0, 64, 104
2, 1268148, Control_c, 0, 64, 56
2, 1268156, Control_c, 0, 64, 0
2, 1268200, Control_c, 0, 64, 72
2, 1268204, Note_on_c, 0, 63, 0
2, 1268208, Control_c, 0, 64, 127
2, 1268224, Note_on_c, 0, 66, 78
2, 1268264, Note_on_c, 0, 47, 0
2, 1268280, Note_on_c, 0, 54, 0
2, 1268284, Note_on_c, 0, 66, 0
2, 1268312, Note_on_c, 0, 63, 76
2, 1268312, Note_on_c, 0, 75, 80
2, 1268312, Note_on_c, 0, 66, 66
2, 1268312, Note_on_c, 0, 47, 67
2, 1268312, Note_on_c, 0, 35, 79
2, 1268396, Note_on_c, 0, 63, 0
2, 1268404, Note_on_c, 0, 66, 82
2, 1268452, Note_on_c, 0, 66, 0
2, 1268492, Note_on_c, 0, 35, 0
2, 1268492, Note_on_c, 0, 75, 0
2, 1268492, Note_on_c, 0, 47, 0
2, 1268492, Note_on_c, 0, 66, 0
2, 1268504, Control_c, 0, 64, 72
2, 1268508, Note_on_c, 0, 57, 81
2, 1268508, Note_on_c, 0, 66, 88
2, 1268512, Control_c, 0, 64, 0
2, 1268516, Note_on_c, 0, 51, 71
2, 1268548, Control_c, 0, 64, 56
2, 1268556, Control_c, 0, 64, 127
2, 1268568, Note_on_c, 0, 66, 0
2, 1268580, Note_on_c, 0, 57, 0
2, 1268584, Note_on_c, 0, 51, 0
2, 1268604, Note_on_c, 0, 60, 79
2, 1268608, Note_on_c, 0, 69, 93
2, 1268676, Note_on_c, 0, 60, 0
2, 1268684, Note_on_c, 0, 69, 0
2, 1268704, Note_on_c, 0, 63, 53
2, 1268704, Note_on_c, 0, 72, 95
2, 1268744, Note_on_c, 0, 63, 0
2, 1268776, Note_on_c, 0, 72, 0
2, 1268780, Note_on_c, 0, 63, 37
2, 1268796, Note_on_c, 0, 78, 97
2, 1268800, Note_on_c, 0, 69, 63
2, 1268876, Note_on_c, 0, 69, 0
2, 1268880, Note_on_c, 0, 78, 0
2, 1268896, Note_on_c, 0, 81, 99
2, 1268904, Note_on_c, 0, 72, 85
2, 1268916, Note_on_c, 0, 69, 56
2, 1268952, Note_on_c, 0, 69, 0
2, 1268976, Note_on_c, 0, 72, 0
2, 1268976, Note_on_c, 0, 81, 0
2, 1268984, Note_on_c, 0, 78, 87
2, 1269032, Note_on_c, 0, 63, 0
2, 1269072, Note_on_c, 0, 78, 0
2, 1269092, Note_on_c, 0, 72, 83
2, 1269156, Note_on_c, 0, 72, 0
2, 1269192, Note_on_c, 0, 69, 84
2, 1269252, Note_on_c, 0, 69, 0
2, 1269280, Note_on_c, 0, 66, 88
2, 1269292, Note_on_c, 0, 60, 77
2, 1269296, Note_on_c, 0, 57, 64
2, 1269296, Note_on_c, 0, 51, 63
2, 1269356, Note_on_c, 0, 66, 0
2, 1269380, Note_on_c, 0, 69, 90
2, 1269440, Note_on_c, 0, 69, 0
2, 1269472, Note_on_c, 0, 66, 85
2, 1269472, Note_on_c, 0, 78, 83
2, 1269472, Note_on_c, 0, 72, 70
2, 1269472, Note_on_c, 0, 69, 77
2, 1269472, Note_on_c, 0, 51, 70
2, 1269472, Note_on_c, 0, 39, 78
2, 1269488, Note_on_c, 0, 57, 0
2, 1269512, Note_on_c, 0, 51, 0
2, 1269524, Note_on_c, 0, 60, 0
2, 1269548, Note_on_c, 0, 66, 0
2, 1269564, Note_on_c, 0, 69, 87
2, 1269596, Note_on_c, 0, 69, 0
2, 1269636, Control_c, 0, 64, 56
2, 1269644, Control_c, 0, 64, 0
2, 1269652, Note_on_c, 0, 72, 0
2, 1269652, Note_on_c, 0, 78, 0
2, 1269652, Note_on_c, 0, 39, 0
2, 1269652, Note_on_c, 0, 69, 0
2, 1269652, Note_on_c, 0, 51, 0
2, 1269668, Note_on_c, 0, 73, 98
2, 1269672, Note_on_c, 0, 61, 74
2, 1269672, Note_on_c, 0, 52, 75
2, 1269688, Control_c, 0, 64, 40
2, 1269696, Control_c, 0, 64, 104
2, 1269704, Control_c, 0, 64, 127
2, 1269724, Note_on_c, 0, 73, 0
2, 1269744, Note_on_c, 0, 52, 0
2, 1269764, Note_on_c, 0, 76, 96
2, 1269776, Note_on_c, 0, 61, 0
2, 1269776, Note_on_c, 0, 64, 83
2, 1269816, Note_on_c, 0, 64, 0
2, 1269856, Note_on_c, 0, 76, 0
2, 1269868, Note_on_c, 0, 81, 103
2, 1269876, Note_on_c, 0, 69, 74
2, 1269924, Note_on_c, 0, 69, 0
2, 1269944, Note_on_c, 0, 81, 0
2, 1269960, Note_on_c, 0, 85, 101
2, 1269964, Note_on_c, 0, 73, 73
2, 1270048, Note_on_c, 0, 85, 0
2, 1270060, Note_on_c, 0, 88, 103
2, 1270060, Note_on_c, 0, 73, 71
2, 1270060, Note_on_c, 0, 69, 68
2, 1270060, Note_on_c, 0, 52, 69
2, 1270060, Note_on_c, 0, 40, 79
2, 1270064, Note_on_c, 0, 76, 91
2, 1270156, Note_on_c, 0, 85, 90
2, 1270180, Note_on_c, 0, 73, 0
2, 1270180, Note_on_c, 0, 73, 0
2, 1270180, Note_on_c, 0, 88, 0
2, 1270252, Note_on_c, 0, 81, 80
2, 1270320, Note_on_c, 0, 81, 0
2, 1270320, Note_on_c, 0, 85, 0
2, 1270340, Note_on_c, 0, 76, 86
2, 1270388, Note_on_c, 0, 76, 0
2, 1270392, Note_on_c, 0, 40, 0
2, 1270392, Note_on_c, 0, 69, 0
2, 1270392, Note_on_c, 0, 52, 0
2, 1270396, Note_on_c, 0, 76, 0
2, 1270444, Note_on_c, 0, 73, 90
2, 1270448, Note_on_c, 0, 61, 71
2, 1270452, Note_on_c, 0, 64, 71
2, 1270456, Note_on_c, 0, 52, 67
2, 1270472, Control_c, 0, 64, 72
2, 1270480, Control_c, 0, 64, 40
2, 1270508, Control_c, 0, 64, 104
2, 1270516, Control_c, 0, 64, 127
2, 1270524, Note_on_c, 0, 73, 0
2, 1270536, Note_on_c, 0, 76, 88
2, 1270604, Note_on_c, 0, 76, 0
2, 1270632, Note_on_c, 0, 73, 87
2, 1270640, Note_on_c, 0, 52, 0
2, 1270644, Note_on_c, 0, 61, 0
2, 1270708, Note_on_c, 0, 73, 0
2, 1270716, Note_on_c, 0, 64, 0
2, 1270728, Note_on_c, 0, 76, 88
2, 1270772, Note_on_c, 0, 76, 0
2, 1270820, Note_on_c, 0, 72, 89
2, 1270820, Control_c, 0, 64, 56
2, 1270828, Control_c, 0, 64, 0
2, 1270832, Note_on_c, 0, 60, 79
2, 1270832, Note_on_c, 0, 52, 72
2, 1270864, Control_c, 0, 64, 24
2, 1270872, Control_c, 0, 64, 88
2, 1270884, Control_c, 0, 64, 127
2, 1270888, Note_on_c, 0, 52, 0
2, 1270904, Note_on_c, 0, 60, 0
2, 1270908, Note_on_c, 0, 75, 87
2, 1270920, Note_on_c, 0, 63, 77
2, 1270924, Note_on_c, 0, 72, 0
2, 1270972, Note_on_c, 0, 63, 0
2, 1270996, Note_on_c, 0, 78, 87
2, 1271004, Note_on_c, 0, 75, 0
2, 1271012, Note_on_c, 0, 66, 65
2, 1271036, Note_on_c, 0, 78, 0
2, 1271080, Note_on_c, 0, 81, 99
2, 1271108, Note_on_c, 0, 69, 82
2, 1271188, Note_on_c, 0, 81, 0
2, 1271196, Note_on_c, 0, 90, 103
2, 1271208, Note_on_c, 0, 78, 98
2, 1271208, Note_on_c, 0, 72, 73
2, 1271208, Note_on_c, 0, 69, 71
2, 1271208, Note_on_c, 0, 63, 70
2, 1271208, Note_on_c, 0, 52, 71
2, 1271208, Note_on_c, 0, 40, 81
2, 1271300, Note_on_c, 0, 90, 0
2, 1271300, Note_on_c, 0, 81, 82
2, 1271312, Note_on_c, 0, 69, 0
2, 1271340, Note_on_c, 0, 81, 0
2, 1271356, Note_on_c, 0, 66, 0
2, 1271388, Note_on_c, 0, 78, 80
2, 1271440, Note_on_c, 0, 78, 0
2, 1271472, Note_on_c, 0, 75, 80
2, 1271540, Note_on_c, 0, 63, 0
2, 1271540, Note_on_c, 0, 52, 0
2, 1271540, Note_on_c, 0, 69, 0
2, 1271540, Note_on_c, 0, 72, 0
2, 1271540, Note_on_c, 0, 40, 0
2, 1271544, Note_on_c, 0, 78, 0
2, 1271560, Note_on_c, 0, 75, 0
2, 1271572, Note_on_c, 0, 72, 93
2, 1271576, Note_on_c, 0, 60, 83
2, 1271580, Note_on_c, 0, 63, 82
2, 1271584, Note_on_c, 0, 52, 77
2, 1271668, Note_on_c, 0, 75, 87
2, 1271684, Note_on_c, 0, 72, 0
2, 1271748, Note_on_c, 0, 75, 0
2, 1271760, Note_on_c, 0, 52, 0
2, 1271768, Note_on_c, 0, 72, 83
2, 1271776, Note_on_c, 0, 63, 0
2, 1271844, Note_on_c, 0, 72, 0
2, 1271844, Note_on_c, 0, 75, 86
2, 1271896, Note_on_c, 0, 60, 0
2, 1271904, Control_c, 0, 64, 104
2, 1271916, Control_c, 0, 64, 40
2, 1271924, Note_on_c, 0, 75, 0
2, 1271924, Control_c, 0, 64, 0
2, 1271944, Note_on_c, 0, 52, 81
2, 1271952, Note_on_c, 0, 74, 100
2, 1271952, Note_on_c, 0, 62, 81
2, 1271968, Control_c, 0, 64, 88
2, 1271976, Control_c, 0, 64, 127
2, 1271984, Note_on_c, 0, 52, 0
2, 1272028, Note_on_c, 0, 62, 0
2, 1272044, Note_on_c, 0, 76, 92
2, 1272052, Note_on_c, 0, 74, 0
2, 1272060, Note_on_c, 0, 67, 68
2, 1272076, Note_on_c, 0, 76, 0
2, 1272136, Note_on_c, 0, 67, 0
2, 1272136, Note_on_c, 0, 79, 98
2, 1272144, Note_on_c, 0, 70, 84
2, 1272204, Note_on_c, 0, 79, 0
2, 1272220, Note_on_c, 0, 70, 0
2, 1272220, Note_on_c, 0, 86, 101
2, 1272316, Note_on_c, 0, 86, 0
2, 1272324, Note_on_c, 0, 91, 105
2, 1272324, Note_on_c, 0, 79, 104
2, 1272324, Note_on_c, 0, 74, 78
2, 1272324, Note_on_c, 0, 70, 78
2, 1272324, Note_on_c, 0, 64, 78
2, 1272324, Note_on_c, 0, 52, 83
2, 1272432, Note_on_c, 0, 86, 98
2, 1272448, Note_on_c, 0, 91, 0
2, 1272504, Note_on_c, 0, 86, 0
2, 1272516, Note_on_c, 0, 79, 90
2, 1272556, Note_on_c, 0, 79, 0
2, 1272612, Note_on_c, 0, 76, 94
2, 1272692, Note_on_c, 0, 76, 0
2, 1272712, Note_on_c, 0, 70, 88
2, 1272716, Note_on_c, 0, 67, 79
2, 1272720, Note_on_c, 0, 74, 83
2, 1272720, Note_on_c, 0, 64, 77
2, 1272724, Note_on_c, 0, 62, 77
2, 1272788, Note_on_c, 0, 74, 0
2, 1272808, Note_on_c, 0, 76, 92
2, 1272876, Note_on_c, 0, 76, 0
2, 1272904, Note_on_c, 0, 74, 90
2, 1272916, Note_on_c, 0, 70, 0
2, 1272916, Note_on_c, 0, 67, 0
2, 1272916, Note_on_c, 0, 70, 0
2, 1272928, Note_on_c, 0, 62, 0
2, 1272932, Note_on_c, 0, 64, 0
2, 1272932, Note_on_c, 0, 64, 0
2, 1272976, Note_on_c, 0, 74, 0
2, 1272996, Note_on_c, 0, 76, 88
2, 1273040, Note_on_c, 0, 52, 0
2, 1273040, Note_on_c, 0, 74, 0
2, 1273048, Note_on_c, 0, 79, 0
2, 1273060, Note_on_c, 0, 76, 0
2, 1273064, Control_c, 0, 64, 104
2, 1273072, Control_c, 0, 64, 24
2, 1273084, Control_c, 0, 64, 0
2, 1273092, Note_on_c, 0, 73, 90
2, 1273100, Note_on_c, 0, 64, 80
2, 1273100, Note_on_c, 0, 57, 83
2, 1273136, Control_c, 0, 64, 72
2, 1273144, Control_c, 0, 64, 127
2, 1273180, Note_on_c, 0, 64, 0
2, 1273184, Note_on_c, 0, 57, 0
2, 1273184, Note_on_c, 0, 76, 88
2, 1273192, Note_on_c, 0, 73, 0
2, 1273196, Note_on_c, 0, 67, 84
2, 1273216, Note_on_c, 0, 76, 0
2, 1273244, Note_on_c, 0, 67, 0
2, 1273284, Note_on_c, 0, 79, 100
2, 1273296, Note_on_c, 0, 69, 74
2, 1273340, Note_on_c, 0, 69, 0
2, 1273340, Note_on_c, 0, 79, 0
2, 1273376, Note_on_c, 0, 81, 101
2, 1273376, Note_on_c, 0, 73, 68
2, 1273460, Note_on_c, 0, 81, 0
2, 1273480, Note_on_c, 0, 91, 108
2, 1273488, Note_on_c, 0, 79, 97
2, 1273488, Note_on_c, 0, 73, 80
2, 1273488, Note_on_c, 0, 69, 77
2, 1273488, Note_on_c, 0, 64, 77
2, 1273488, Note_on_c, 0, 57, 83
2, 1273488, Note_on_c, 0, 45, 89
2, 1273568, Note_on_c, 0, 91, 0
2, 1273580, Note_on_c, 0, 81, 84
2, 1273652, Note_on_c, 0, 73, 0
2, 1273672, Note_on_c, 0, 81, 0
2, 1273672, Note_on_c, 0, 79, 82
2, 1273708, Note_on_c, 0, 79, 0
2, 1273772, Note_on_c, 0, 76, 88
2, 1273828, Note_on_c, 0, 76, 0
2, 1273868, Note_on_c, 0, 73, 83
2, 1273876, Note_on_c, 0, 67, 78
2, 1273880, Note_on_c, 0, 64, 75
2, 1273884, Note_on_c, 0, 57, 79
2, 1273912, Control_c, 0, 64, 104
2, 1273920, Control_c, 0, 64, 24
2, 1273928, Control_c, 0, 64, 0
2, 1273940, Note_on_c, 0, 73, 0
2, 1273964, Note_on_c, 0, 76, 91
2, 1273984, Control_c, 0, 64, 88
2, 1273992, Control_c, 0, 64, 127
2, 1274032, Note_on_c, 0, 76, 0
2, 1274056, Note_on_c, 0, 73, 85
2, 1274084, Note_on_c, 0, 67, 0
2, 1274088, Note_on_c, 0, 64, 0
2, 1274108, Note_on_c, 0, 57, 0
2, 1274132, Note_on_c, 0, 73, 0
2, 1274152, Note_on_c, 0, 76, 89
2, 1274204, Note_on_c, 0, 57, 0
2, 1274204, Note_on_c, 0, 64, 0
2, 1274204, Note_on_c, 0, 69, 0
2, 1274204, Note_on_c, 0, 45, 0
2, 1274228, Note_on_c, 0, 76, 0
2, 1274240, Control_c, 0, 64, 104
2, 1274252, Control_c, 0, 64, 0
2, 1274260, Note_on_c, 0, 69, 94
2, 1274272, Note_on_c, 0, 57, 81
2, 1274272, Note_on_c, 0, 50, 84
2, 1274312, Control_c, 0, 64, 72
2, 1274320, Control_c, 0, 64, 127
2, 1274332, Note_on_c, 0, 73, 0
2, 1274348, Note_on_c, 0, 50, 0
2, 1274356, Note_on_c, 0, 57, 0
2, 1274356, Note_on_c, 0, 74, 90
2, 1274360, Note_on_c, 0, 79, 0
2, 1274372, Note_on_c, 0, 62, 77
2, 1274380, Note_on_c, 0, 69, 0
2, 1274436, Note_on_c, 0, 62, 0
2, 1274448, Note_on_c, 0, 78, 87
2, 1274460, Note_on_c, 0, 74, 0
2, 1274464, Note_on_c, 0, 66, 78
2, 1274488, Note_on_c, 0, 78, 0
2, 1274536, Note_on_c, 0, 66, 0
2, 1274540, Note_on_c, 0, 81, 103
2, 1274548, Note_on_c, 0, 69, 84
2, 1274608, Note_on_c, 0, 69, 0
2, 1274660, Control_c, 0, 64, 56
2, 1274664, Note_on_c, 0, 90, 99
2, 1274664, Note_on_c, 0, 86, 92
2, 1274664, Note_on_c, 0, 38, 84
2, 1274664, Note_on_c, 0, 78, 91
2, 1274664, Note_on_c, 0, 50, 91
2, 1274664, Control_c, 0, 64, 127
2, 1274704, Note_on_c, 0, 50, 0
2, 1274708, Note_on_c, 0, 78, 0
2, 1274712, Note_on_c, 0, 86, 0
2, 1274712, Note_on_c, 0, 81, 0
2, 1274736, Note_on_c, 0, 90, 0
2, 1274768, Note_on_c, 0, 38, 0
2, 1274932, Note_on_c, 0, 66, 71
2, 1274944, Note_on_c, 0, 62, 67
2, 1274968, Note_on_c, 0, 62, 0
2, 1274976, Note_on_c, 0, 66, 0
2, 1275044, Note_on_c, 0, 66, 71
2, 1275044, Note_on_c, 0, 62, 67
2, 1275080, Note_on_c, 0, 62, 0
2, 1275088, Note_on_c, 0, 66, 0
2, 1275160, Note_on_c, 0, 66, 71
2, 1275160, Note_on_c, 0, 62, 67
2, 1275200, Note_on_c, 0, 62, 0
2, 1275204, Note_on_c, 0, 66, 0
2, 1275264, Note_on_c, 0, 66, 71
2, 1275268, Note_on_c, 0, 62, 67
2, 1275312, Note_on_c, 0, 62, 0
2, 1275312, Note_on_c, 0, 66, 0
2, 1275384, Note_on_c, 0, 86, 96
2, 1275388, Note_on_c, 0, 78, 85
2, 1275388, Note_on_c, 0, 66, 71
2, 1275388, Note_on_c, 0, 74, 83
2, 1275392, Note_on_c, 0, 62, 66
2, 1275416, Note_on_c, 0, 74, 0
2, 1275424, Note_on_c, 0, 78, 0
2, 1275432, Note_on_c, 0, 66, 0
2, 1275436, Note_on_c, 0, 62, 0
2, 1275452, Note_on_c, 0, 86, 0
2, 1275500, Note_on_c, 0, 66, 71
2, 1275504, Note_on_c, 0, 62, 66
2, 1275548, Note_on_c, 0, 66, 0
2, 1275552, Note_on_c, 0, 62, 0
2, 1275612, Note_on_c, 0, 66, 72
2, 1275612, Note_on_c, 0, 62, 67
2, 1275656, Note_on_c, 0, 66, 0
2, 1275660, Note_on_c, 0, 62, 0
2, 1275724, Note_on_c, 0, 88, 98
2, 1275728, Note_on_c, 0, 81, 84
2, 1275728, Note_on_c, 0, 66, 70
2, 1275732, Note_on_c, 0, 62, 73
2, 1275772, Note_on_c, 0, 66, 0
2, 1275772, Note_on_c, 0, 81, 0
2, 1275780, Note_on_c, 0, 62, 0
2, 1275804, Note_on_c, 0, 88, 0
2, 1275836, Note_on_c, 0, 90, 96
2, 1275840, Note_on_c, 0, 86, 93
2, 1275840, Note_on_c, 0, 62, 72
2, 1275840, Note_on_c, 0, 66, 67
2, 1275880, Note_on_c, 0, 66, 0
2, 1275892, Note_on_c, 0, 62, 0
2, 1275892, Note_on_c, 0, 86, 0
2, 1275904, Note_on_c, 0, 90, 0
2, 1275948, Note_on_c, 0, 91, 101
2, 1275952, Note_on_c, 0, 66, 72
2, 1275952, Note_on_c, 0, 88, 93
2, 1275952, Note_on_c, 0, 62, 71
2, 1275988, Note_on_c, 0, 66, 0
2, 1275992, Note_on_c, 0, 88, 0
2, 1275996, Note_on_c, 0, 62, 0
2, 1276008, Note_on_c, 0, 91, 0
2, 1276060, Note_on_c, 0, 90, 97
2, 1276064, Note_on_c, 0, 93, 104
2, 1276068, Note_on_c, 0, 62, 76
2, 1276068, Note_on_c, 0, 66, 71
2, 1276112, Note_on_c, 0, 66, 0
2, 1276116, Note_on_c, 0, 62, 0
2, 1276120, Note_on_c, 0, 90, 0
2, 1276132, Note_on_c, 0, 93, 0
2, 1276184, Note_on_c, 0, 66, 73
2, 1276188, Note_on_c, 0, 62, 75
2, 1276232, Note_on_c, 0, 66, 0
2, 1276236, Note_on_c, 0, 62, 0
2, 1276300, Note_on_c, 0, 66, 70
2, 1276300, Note_on_c, 0, 62, 58
2, 1276344, Note_on_c, 0, 66, 0
2, 1276352, Note_on_c, 0, 62, 0
2, 1276408, Note_on_c, 0, 66, 79
2, 1276412, Note_on_c, 0, 62, 63
2, 1276448, Note_on_c, 0, 66, 0
2, 1276452, Note_on_c, 0, 62, 0
2, 1276512, Note_on_c, 0, 66, 70
2, 1276516, Note_on_c, 0, 86, 97
2, 1276524, Note_on_c, 0, 62, 64
2, 1276560, Note_on_c, 0, 62, 0
2, 1276560, Note_on_c, 0, 86, 0
2, 1276560, Note_on_c, 0, 66, 0
2, 1276624, Note_on_c, 0, 66, 78
2, 1276628, Note_on_c, 0, 62, 63
2, 1276668, Note_on_c, 0, 66, 0
2, 1276672, Note_on_c, 0, 62, 0
2, 1276748, Note_on_c, 0, 66, 73
2, 1276752, Note_on_c, 0, 62, 68
2, 1276760, Note_on_c, 0, 98, 112
2, 1276764, Note_on_c, 0, 90, 87
2, 1276764, Note_on_c, 0, 86, 90
2, 1276800, Note_on_c, 0, 66, 0
2, 1276804, Note_on_c, 0, 90, 0
2, 1276804, Note_on_c, 0, 62, 0
2, 1276816, Note_on_c, 0, 86, 0
2, 1276820, Note_on_c, 0, 98, 0
2, 1276864, Note_on_c, 0, 66, 66
2, 1276872, Note_on_c, 0, 62, 58
2, 1276912, Note_on_c, 0, 66, 0
2, 1276916, Note_on_c, 0, 62, 0
2, 1276964, Note_on_c, 0, 66, 66
2, 1276968, Note_on_c, 0, 62, 58
2, 1277012, Note_on_c, 0, 66, 0
2, 1277016, Note_on_c, 0, 62, 0
2, 1277076, Note_on_c, 0, 66, 74
2, 1277088, Note_on_c, 0, 62, 63
2, 1277108, Note_on_c, 0, 62, 0
2, 1277112, Note_on_c, 0, 66, 0
2, 1277220, Control_c, 0, 64, 104
2, 1277228, Control_c, 0, 64, 40
2, 1277240, Note_on_c, 0, 74, 104
2, 1277240, Note_on_c, 0, 62, 97
2, 1277240, Note_on_c, 0, 66, 85
2, 1277240, Control_c, 0, 64, 0
2, 1277248, Note_on_c, 0, 71, 78
2, 1277252, Note_on_c, 0, 47, 87
2, 1277256, Note_on_c, 0, 59, 83
2, 1277256, Note_on_c, 0, 54, 84
2, 1277280, Note_on_c, 0, 66, 0
2, 1277284, Note_on_c, 0, 62, 0
2, 1277288, Note_on_c, 0, 47, 0
2, 1277288, Note_on_c, 0, 54, 0
2, 1277288, Control_c, 0, 64, 40
2, 1277292, Note_on_c, 0, 59, 0
2, 1277300, Control_c, 0, 64, 127
2, 1277304, Note_on_c, 0, 71, 0
2, 1277320, Note_on_c, 0, 74, 0
2, 1277516, Note_on_c, 0, 86, 98
2, 1277516, Note_on_c, 0, 74, 94
2, 1277524, Note_on_c, 0, 78, 83
2, 1277524, Note_on_c, 0, 83, 80
2, 1277548, Note_on_c, 0, 62, 68
2, 1277552, Note_on_c, 0, 59, 54
2, 1277572, Note_on_c, 0, 62, 0
2, 1277576, Note_on_c, 0, 59, 0
2, 1277612, Note_on_c, 0, 74, 0
2, 1277620, Note_on_c, 0, 78, 0
2, 1277628, Note_on_c, 0, 86, 0
2, 1277628, Note_on_c, 0, 83, 0
2, 1277640, Note_on_c, 0, 59, 65
2, 1277640, Note_on_c, 0, 62, 76
2, 1277676, Note_on_c, 0, 62, 0
2, 1277680, Note_on_c, 0, 59, 0
2, 1277752, Note_on_c, 0, 62, 73
2, 1277752, Note_on_c, 0, 59, 55
2, 1277788, Note_on_c, 0, 59, 0
2, 1277796, Note_on_c, 0, 62, 0
2, 1277872, Note_on_c, 0, 59, 55
2, 1277872, Note_on_c, 0, 62, 70
2, 1277908, Note_on_c, 0, 62, 0
2, 1277908, Note_on_c, 0, 59, 0
2, 1277980, Note_on_c, 0, 59, 57
2, 1277984, Note_on_c, 0, 62, 72
2, 1278020, Note_on_c, 0, 59, 0
2, 1278024, Note_on_c, 0, 62, 0
2, 1278088, Note_on_c, 0, 59, 63
2, 1278092, Note_on_c, 0, 62, 70
2, 1278120, Note_on_c, 0, 59, 0
2, 1278128, Note_on_c, 0, 62, 0
2, 1278192, Control_c, 0, 64, 88
2, 1278196, Note_on_c, 0, 83, 99
2, 1278200, Note_on_c, 0, 71, 83
2, 1278200, Control_c, 0, 64, 56
2, 1278204, Note_on_c, 0, 62, 71
2, 1278204, Note_on_c, 0, 74, 87
2, 1278204, Note_on_c, 0, 59, 66
2, 1278232, Control_c, 0, 64, 127
2, 1278240, Note_on_c, 0, 71, 0
2, 1278252, Note_on_c, 0, 74, 0
2, 1278252, Note_on_c, 0, 59, 0
2, 1278256, Note_on_c, 0, 62, 0
2, 1278296, Note_on_c, 0, 83, 0
2, 1278324, Note_on_c, 0, 59, 58
2, 1278324, Note_on_c, 0, 62, 72
2, 1278364, Note_on_c, 0, 59, 0
2, 1278372, Note_on_c, 0, 62, 0
2, 1278432, Note_on_c, 0, 62, 66
2, 1278436, Note_on_c, 0, 59, 57
2, 1278460, Note_on_c, 0, 59, 0
2, 1278480, Note_on_c, 0, 62, 0
2, 1278536, Note_on_c, 0, 59, 63
2, 1278540, Note_on_c, 0, 85, 89
2, 1278544, Note_on_c, 0, 62, 64
2, 1278544, Note_on_c, 0, 78, 78
2, 1278580, Note_on_c, 0, 59, 0
2, 1278588, Note_on_c, 0, 62, 0
2, 1278608, Note_on_c, 0, 78, 0
2, 1278616, Note_on_c, 0, 85, 0
2, 1278644, Note_on_c, 0, 83, 87
2, 1278644, Note_on_c, 0, 86, 90
2, 1278648, Note_on_c, 0, 59, 70
2, 1278652, Note_on_c, 0, 62, 69
2, 1278652, Note_on_c, 0, 78, 64
2, 1278684, Note_on_c, 0, 78, 0
2, 1278692, Note_on_c, 0, 59, 0
2, 1278696, Note_on_c, 0, 62, 0
2, 1278708, Note_on_c, 0, 86, 0
2, 1278708, Note_on_c, 0, 83, 0
2, 1278744, Note_on_c, 0, 88, 98
2, 1278748, Note_on_c, 0, 85, 86
2, 1278760, Note_on_c, 0, 59, 70
2, 1278760, Note_on_c, 0, 62, 70
2, 1278792, Note_on_c, 0, 88, 0
2, 1278800, Note_on_c, 0, 59, 0
2, 1278804, Note_on_c, 0, 85, 0
2, 1278808, Note_on_c, 0, 62, 0
2, 1278868, Note_on_c, 0, 90, 100
2, 1278868, Note_on_c, 0, 78, 93
2, 1278872, Note_on_c, 0, 86, 93
2, 1278880, Note_on_c, 0, 59, 65
2, 1278880, Note_on_c, 0, 62, 80
2, 1278920, Note_on_c, 0, 59, 0
2, 1278928, Note_on_c, 0, 62, 0
2, 1278932, Note_on_c, 0, 78, 0
2, 1278956, Note_on_c, 0, 86, 0
2, 1278972, Note_on_c, 0, 90, 0
2, 1278988, Note_on_c, 0, 59, 66
2, 1278992, Note_on_c, 0, 62, 71
2, 1279032, Note_on_c, 0, 59, 0
2, 1279040, Note_on_c, 0, 62, 0
2, 1279088, Note_on_c, 0, 62, 67
2, 1279096, Note_on_c, 0, 59, 63
2, 1279136, Note_on_c, 0, 59, 0
2, 1279144, Note_on_c, 0, 62, 0
2, 1279192, Note_on_c, 0, 62, 67
2, 1279192, Note_on_c, 0, 59, 68
2, 1279236, Note_on_c, 0, 59, 0
2, 1279240, Note_on_c, 0, 62, 0
2, 1279300, Note_on_c, 0, 83, 98
2, 1279308, Note_on_c, 0, 59, 62
2, 1279308, Note_on_c, 0, 62, 80
2, 1279348, Note_on_c, 0, 59, 0
2, 1279356, Note_on_c, 0, 62, 0
2, 1279372, Note_on_c, 0, 83, 0
2, 1279408, Note_on_c, 0, 62, 74
2, 1279412, Note_on_c, 0, 59, 73
2, 1279452, Note_on_c, 0, 59, 0
2, 1279460, Note_on_c, 0, 62, 0
2, 1279532, Note_on_c, 0, 86, 94
2, 1279532, Note_on_c, 0, 83, 98
2, 1279532, Note_on_c, 0, 62, 81
2, 1279532, Note_on_c, 0, 59, 68
2, 1279532, Note_on_c, 0, 95, 103
2, 1279572, Note_on_c, 0, 86, 0
2, 1279576, Note_on_c, 0, 83, 0
2, 1279584, Note_on_c, 0, 59, 0
2, 1279588, Note_on_c, 0, 62, 0
2, 1279600, Note_on_c, 0, 95, 0
2, 1279636, Note_on_c, 0, 62, 69
2, 1279640, Note_on_c, 0, 59, 63
2, 1279684, Note_on_c, 0, 59, 0
2, 1279692, Note_on_c, 0, 62, 0
2, 1279736, Note_on_c, 0, 62, 64
2, 1279744, Note_on_c, 0, 59, 59
2, 1279784, Note_on_c, 0, 59, 0
2, 1279792, Note_on_c, 0, 62, 0
2, 1279844, Note_on_c, 0, 62, 63
2, 1279920, Note_on_c, 0, 62, 0
2, 1279936, Control_c, 0, 64, 104
2, 1279944, Control_c, 0, 64, 24
2, 1279956, Control_c, 0, 64, 0
2, 1279980, Note_on_c, 0, 74, 94
2, 1279984, Note_on_c, 0, 83, 102
2, 1279984, Note_on_c, 0, 78, 92
2, 1279988, Note_on_c, 0, 66, 87
2, 1279988, Note_on_c, 0, 71, 90
2, 1279988, Note_on_c, 0, 62, 81
2, 1280016, Note_on_c, 0, 71, 0
2, 1280016, Control_c, 0, 64, 40
2, 1280020, Note_on_c, 0, 74, 0
2, 1280024, Note_on_c, 0, 66, 0
2, 1280024, Note_on_c, 0, 78, 0
2, 1280024, Control_c, 0, 64, 127
2, 1280036, Note_on_c, 0, 83, 0
2, 1280036, Note_on_c, 0, 62, 0
2, 1280208, Control_c, 0, 64, 88
2, 1280216, Control_c, 0, 64, 0
2, 1280232, Note_on_c, 0, 53, 97
2, 1280232, Note_on_c, 0, 41, 85
2, 1280232, Note_on_c, 0, 52, 76
2, 1280232, Note_on_c, 0, 40, 78
2, 1280232, Note_on_c, 0, 74, 84
2, 1280232, Note_on_c, 0, 71, 80
2, 1280232, Note_on_c, 0, 62, 80
2, 1280260, Note_on_c, 0, 41, 0
2, 1280268, Note_on_c, 0, 53, 0
2, 1280276, Control_c, 0, 64, 56
2, 1280288, Control_c, 0, 64, 104
2, 1280296, Control_c, 0, 64, 127
2, 1280336, Note_on_c, 0, 65, 89
2, 1280372, Note_on_c, 0, 40, 0
2, 1280372, Note_on_c, 0, 52, 0
2, 1280388, Control_c, 0, 64, 72
2, 1280396, Note_on_c, 0, 65, 0
2, 1280400, Control_c, 0, 64, 24
2, 1280408, Control_c, 0, 64, 0
2, 1280444, Note_on_c, 0, 52, 88
2, 1280448, Note_on_c, 0, 40, 75
2, 1280464, Note_on_c, 0, 40, 0
2, 1280476, Control_c, 0, 64, 24
2, 1280484, Note_on_c, 0, 52, 0
2, 1280488, Control_c, 0, 64, 40
2, 1280528, Control_c, 0, 64, 24
2, 1280552, Note_on_c, 0, 64, 84
2, 1280608, Control_c, 0, 64, 0
2, 1280612, Note_on_c, 0, 64, 0
2, 1280652, Note_on_c, 0, 56, 97
2, 1280660, Note_on_c, 0, 44, 77
2, 1280688, Note_on_c, 0, 56, 0
2, 1280704, Note_on_c, 0, 44, 0
2, 1280756, Note_on_c, 0, 68, 87
2, 1280832, Note_on_c, 0, 68, 0
2, 1280864, Note_on_c, 0, 52, 94
2, 1280864, Note_on_c, 0, 40, 83
2, 1280892, Note_on_c, 0, 40, 0
2, 1280904, Note_on_c, 0, 52, 0
2, 1280936, Note_on_c, 0, 71, 0
2, 1280936, Note_on_c, 0, 74, 0
2, 1280936, Note_on_c, 0, 62, 0
2, 1280964, Note_on_c, 0, 64, 95
2, 1281028, Note_on_c, 0, 64, 0
2, 1281060, Note_on_c, 0, 59, 106
2, 1281060, Note_on_c, 0, 47, 87
2, 1281072, Control_c, 0, 64, 40
2, 1281080, Control_c, 0, 64, 104
2, 1281092, Control_c, 0, 64, 127
2, 1281100, Note_on_c, 0, 59, 0
2, 1281108, Note_on_c, 0, 47, 0
2, 1281164, Note_on_c, 0, 71, 91
2, 1281228, Note_on_c, 0, 71, 0
2, 1281272, Note_on_c, 0, 52, 93
2, 1281272, Note_on_c, 0, 40, 79
2, 1281272, Note_on_c, 0, 71, 84
2, 1281292, Control_c, 0, 64, 104
2, 1281304, Note_on_c, 0, 40, 0
2, 1281304, Control_c, 0, 64, 88
2, 1281312, Control_c, 0, 64, 56
2, 1281316, Note_on_c, 0, 52, 0
2, 1281324, Control_c, 0, 64, 40
2, 1281332, Control_c, 0, 64, 24
2, 1281336, Note_on_c, 0, 71, 0
2, 1281344, Control_c, 0, 64, 0
2, 1281384, Note_on_c, 0, 64, 87
2, 1281452, Note_on_c, 0, 64, 0
2, 1281484, Note_on_c, 0, 54, 99
2, 1281484, Note_on_c, 0, 42, 86
2, 1281484, Note_on_c, 0, 73, 84
2, 1281484, Note_on_c, 0, 61, 80
2, 1281484, Note_on_c, 0, 69, 80
2, 1281484, Note_on_c, 0, 52, 78
2, 1281484, Note_on_c, 0, 40, 80
2, 1281520, Note_on_c, 0, 40, 0
2, 1281520, Note_on_c, 0, 52, 0
2, 1281592, Note_on_c, 0, 66, 84
2, 1281628, Note_on_c, 0, 54, 0
2, 1281628, Note_on_c, 0, 42, 0
2, 1281656, Note_on_c, 0, 66, 0
2, 1281700, Note_on_c, 0, 52, 94
2, 1281700, Note_on_c, 0, 40, 79
2, 1281720, Note_on_c, 0, 40, 0
2, 1281736, Note_on_c, 0, 52, 0
2, 1281800, Note_on_c, 0, 64, 84
2, 1281864, Note_on_c, 0, 69, 0
2, 1281884, Note_on_c, 0, 64, 0
2, 1281908, Note_on_c, 0, 57, 94
2, 1281912, Note_on_c, 0, 45, 74
2, 1281944, Note_on_c, 0, 57, 0
2, 1281952, Note_on_c, 0, 45, 0
2, 1282008, Note_on_c, 0, 69, 92
2, 1282036, Note_on_c, 0, 51, 50
2, 1282052, Note_on_c, 0, 51, 0
2, 1282064, Note_on_c, 0, 69, 0
2, 1282112, Note_on_c, 0, 40, 83
2, 1282116, Note_on_c, 0, 52, 100
2, 1282144, Note_on_c, 0, 40, 0
2, 1282152, Note_on_c, 0, 52, 0
2, 1282204, Note_on_c, 0, 64, 93
2, 1282248, Note_on_c, 0, 73, 0
2, 1282248, Note_on_c, 0, 61, 0
2, 1282272, Note_on_c, 0, 64, 0
2, 1282312, Note_on_c, 0, 61, 103
2, 1282316, Note_on_c, 0, 49, 83
2, 1282320, Control_c, 0, 64, 40
2, 1282332, Control_c, 0, 64, 127
2, 1282352, Note_on_c, 0, 61, 0
2, 1282364, Note_on_c, 0, 49, 0
2, 1282412, Note_on_c, 0, 73, 93
2, 1282480, Note_on_c, 0, 73, 0
2, 1282528, Note_on_c, 0, 52, 91
2, 1282528, Note_on_c, 0, 40, 83
2, 1282528, Note_on_c, 0, 73, 84
2, 1282532, Control_c, 0, 64, 104
2, 1282544, Control_c, 0, 64, 72
2, 1282552, Control_c, 0, 64, 40
2, 1282564, Control_c, 0, 64, 0
2, 1282572, Note_on_c, 0, 40, 0
2, 1282572, Note_on_c, 0, 52, 0
2, 1282628, Note_on_c, 0, 64, 82
2, 1282672, Note_on_c, 0, 73, 0
2, 1282700, Note_on_c, 0, 64, 0
2, 1282728, Note_on_c, 0, 54, 93
2, 1282728, Note_on_c, 0, 42, 77
2, 1282728, Note_on_c, 0, 76, 88
2, 1282728, Note_on_c, 0, 64, 80
2, 1282728, Note_on_c, 0, 52, 78
2, 1282728, Note_on_c, 0, 40, 79
2, 1282728, Note_on_c, 0, 73, 79
2, 1282728, Note_on_c, 0, 70, 77
2, 1282764, Note_on_c, 0, 54, 0
2, 1282776, Note_on_c, 0, 42, 0
2, 1282840, Note_on_c, 0, 66, 83
2, 1282864, Note_on_c, 0, 70, 0
2, 1282904, Note_on_c, 0, 66, 0
2, 1282932, Note_on_c, 0, 52, 96
2, 1282932, Note_on_c, 0, 40, 82
2, 1282960, Note_on_c, 0, 40, 0
2, 1282976, Note_on_c, 0, 52, 0
2, 1282976, Note_on_c, 0, 40, 0
2, 1283036, Note_on_c, 0, 64, 86
2, 1283128, Note_on_c, 0, 52, 0
2, 1283136, Note_on_c, 0, 58, 95
2, 1283144, Note_on_c, 0, 46, 85
2, 1283172, Note_on_c, 0, 58, 0
2, 1283188, Note_on_c, 0, 46, 0
2, 1283240, Note_on_c, 0, 70, 87
2, 1283308, Note_on_c, 0, 70, 0
2, 1283344, Note_on_c, 0, 52, 98
2, 1283344, Note_on_c, 0, 40, 83
2, 1283380, Note_on_c, 0, 40, 0
2, 1283432, Note_on_c, 0, 76, 0
2, 1283432, Note_on_c, 0, 64, 0
2, 1283432, Note_on_c, 0, 64, 0
2, 1283432, Note_on_c, 0, 52, 0
2, 1283432, Note_on_c, 0, 73, 0
2, 1283440, Note_on_c, 0, 64, 94
2, 1283508, Note_on_c, 0, 64, 0
2, 1283548, Note_on_c, 0, 61, 106
2, 1283552, Note_on_c, 0, 49, 88
2, 1283556, Control_c, 0, 64, 72
2, 1283568, Control_c, 0, 64, 127
2, 1283592, Note_on_c, 0, 61, 0
2, 1283600, Note_on_c, 0, 49, 0
2, 1283640, Note_on_c, 0, 73, 90
2, 1283716, Note_on_c, 0, 73, 0
2, 1283752, Note_on_c, 0, 40, 79
2, 1283752, Note_on_c, 0, 52, 87
2, 1283752, Note_on_c, 0, 73, 87
2, 1283760, Control_c, 0, 64, 104
2, 1283772, Control_c, 0, 64, 88
2, 1283780, Control_c, 0, 64, 56
2, 1283792, Note_on_c, 0, 40, 0
2, 1283792, Control_c, 0, 64, 40
2, 1283796, Note_on_c, 0, 52, 0
2, 1283800, Control_c, 0, 64, 24
2, 1283812, Control_c, 0, 64, 0
2, 1283848, Note_on_c, 0, 64, 88
2, 1283892, Note_on_c, 0, 73, 0
2, 1283936, Note_on_c, 0, 64, 0
2, 1283952, Note_on_c, 0, 42, 84
2, 1283952, Note_on_c, 0, 54, 100
2, 1283952, Note_on_c, 0, 74, 88
2, 1283952, Note_on_c, 0, 71, 83
2, 1283952, Note_on_c, 0, 62, 83
2, 1283952, Note_on_c, 0, 52, 83
2, 1283952, Note_on_c, 0, 40, 84
2, 1283992, Note_on_c, 0, 54, 0
2, 1283992, Note_on_c, 0, 42, 0
2, 1284056, Note_on_c, 0, 66, 85
2, 1284124, Note_on_c, 0, 66, 0
2, 1284148, Note_on_c, 0, 40, 82
2, 1284152, Note_on_c, 0, 52, 93
2, 1284188, Note_on_c, 0, 40, 0
2, 1284196, Note_on_c, 0, 40, 0
2, 1284256, Note_on_c, 0, 64, 88
2, 1284332, Note_on_c, 0, 52, 0
2, 1284356, Note_on_c, 0, 59, 101
2, 1284360, Note_on_c, 0, 47, 83
2, 1284392, Note_on_c, 0, 59, 0
2, 1284400, Note_on_c, 0, 47, 0
2, 1284452, Note_on_c, 0, 71, 90
2, 1284532, Note_on_c, 0, 71, 0
2, 1284548, Note_on_c, 0, 40, 81
2, 1284548, Note_on_c, 0, 52, 94
2, 1284556, Control_c, 0, 64, 24
2, 1284568, Control_c, 0, 64, 72
2, 1284576, Control_c, 0, 64, 127
2, 1284584, Note_on_c, 0, 40, 0
2, 1284592, Note_on_c, 0, 52, 0
2, 1284592, Note_on_c, 0, 52, 0
2, 1284644, Note_on_c, 0, 64, 93
2, 1284676, Note_on_c, 0, 62, 0
2, 1284676, Note_on_c, 0, 64, 0
2, 1284676, Note_on_c, 0, 74, 0
2, 1284676, Note_on_c, 0, 71, 0
2, 1284712, Note_on_c, 0, 64, 0
2, 1284720, Control_c, 0, 64, 72
2, 1284728, Control_c, 0, 64, 24
2, 1284736, Control_c, 0, 64, 0
2, 1284756, Note_on_c, 0, 62, 94
2, 1284756, Note_on_c, 0, 50, 88
2, 1284768, Control_c, 0, 64, 24
2, 1284780, Control_c, 0, 64, 72
2, 1284788, Control_c, 0, 64, 127
2, 1284792, Note_on_c, 0, 50, 0
2, 1284796, Note_on_c, 0, 62, 0
2, 1284852, Note_on_c, 0, 74, 98
2, 1284916, Note_on_c, 0, 74, 0
2, 1284960, Note_on_c, 0, 52, 94
2, 1284960, Note_on_c, 0, 40, 82
2, 1284960, Note_on_c, 0, 74, 84
2, 1285000, Note_on_c, 0, 40, 0
2, 1285004, Note_on_c, 0, 52, 0
2, 1285060, Note_on_c, 0, 64, 93
2, 1285132, Note_on_c, 0, 64, 0
2, 1285132, Control_c, 0, 64, 88
2, 1285140, Control_c, 0, 64, 0
2, 1285168, Note_on_c, 0, 63, 97
2, 1285168, Note_on_c, 0, 78, 84
2, 1285168, Note_on_c, 0, 75, 78
2, 1285168, Note_on_c, 0, 66, 79
2, 1285168, Note_on_c, 0, 52, 78
2, 1285168, Note_on_c, 0, 40, 82
2, 1285168, Note_on_c, 0, 72, 82
2, 1285200, Control_c, 0, 64, 24
2, 1285204, Note_on_c, 0, 63, 0
2, 1285212, Control_c, 0, 64, 88
2, 1285220, Control_c, 0, 64, 127
2, 1285260, Note_on_c, 0, 72, 0
2, 1285276, Note_on_c, 0, 75, 92
2, 1285296, Note_on_c, 0, 74, 0
2, 1285344, Note_on_c, 0, 75, 0
2, 1285372, Note_on_c, 0, 52, 94
2, 1285412, Note_on_c, 0, 40, 0
2, 1285484, Note_on_c, 0, 64, 88
2, 1285544, Note_on_c, 0, 64, 0
2, 1285544, Note_on_c, 0, 52, 0
2, 1285548, Note_on_c, 0, 66, 0
2, 1285548, Note_on_c, 0, 75, 0
2, 1285548, Note_on_c, 0, 52, 0
2, 1285548, Note_on_c, 0, 78, 0
2, 1285564, Control_c, 0, 64, 72
2, 1285572, Control_c, 0, 64, 24
2, 1285584, Note_on_c, 0, 66, 103
2, 1285604, Control_c, 0, 64, 127
2, 1285620, Note_on_c, 0, 66, 0
2, 1285676, Note_on_c, 0, 78, 90
2, 1285740, Note_on_c, 0, 78, 0
2, 1285780, Note_on_c, 0, 52, 88
2, 1285820, Note_on_c, 0, 52, 0
2, 1285884, Note_on_c, 0, 64, 89
2, 1285936, Note_on_c, 0, 64, 0
2, 1285976, Control_c, 0, 64, 56
2, 1285984, Note_on_c, 0, 69, 106
2, 1285996, Control_c, 0, 64, 72
2, 1286008, Control_c, 0, 64, 127
2, 1286028, Note_on_c, 0, 69, 0
2, 1286088, Note_on_c, 0, 81, 98
2, 1286136, Note_on_c, 0, 81, 0
2, 1286184, Note_on_c, 0, 52, 87
2, 1286216, Note_on_c, 0, 52, 0
2, 1286284, Note_on_c, 0, 64, 91
2, 1286324, Note_on_c, 0, 64, 0
2, 1286380, Control_c, 0, 64, 72
2, 1286388, Control_c, 0, 64, 0
2, 1286392, Note_on_c, 0, 69, 98
2, 1286392, Note_on_c, 0, 66, 85
2, 1286396, Note_on_c, 0, 60, 88
2, 1286396, Note_on_c, 0, 63, 73
2, 1286424, Note_on_c, 0, 69, 0
2, 1286428, Note_on_c, 0, 66, 0
2, 1286428, Control_c, 0, 64, 40
2, 1286432, Note_on_c, 0, 60, 0
2, 1286436, Note_on_c, 0, 63, 0
2, 1286440, Control_c, 0, 64, 127
2, 1286484, Note_on_c, 0, 72, 91
2, 1286484, Note_on_c, 0, 81, 98
2, 1286484, Note_on_c, 0, 75, 83
2, 1286484, Note_on_c, 0, 78, 78
2, 1286524, Note_on_c, 0, 72, 0
2, 1286528, Note_on_c, 0, 75, 0
2, 1286532, Note_on_c, 0, 81, 0
2, 1286532, Note_on_c, 0, 78, 0
2, 1286588, Note_on_c, 0, 52, 88
2, 1286628, Note_on_c, 0, 52, 0
2, 1286696, Note_on_c, 0, 64, 85
2, 1286740, Note_on_c, 0, 64, 0
2, 1286772, Control_c, 0, 64, 72
2, 1286780, Control_c, 0, 64, 0
2, 1286796, Note_on_c, 0, 69, 98
2, 1286796, Note_on_c, 0, 66, 87
2, 1286796, Note_on_c, 0, 60, 87
2, 1286796, Note_on_c, 0, 63, 77
2, 1286804, Control_c, 0, 64, 24
2, 1286812, Control_c, 0, 64, 72
2, 1286824, Control_c, 0, 64, 127
2, 1286828, Note_on_c, 0, 69, 0
2, 1286832, Note_on_c, 0, 66, 0
2, 1286832, Note_on_c, 0, 60, 0
2, 1286844, Note_on_c, 0, 63, 0
2, 1286892, Note_on_c, 0, 81, 96
2, 1286896, Note_on_c, 0, 72, 85
2, 1286900, Note_on_c, 0, 75, 78
2, 1286900, Note_on_c, 0, 78, 77
2, 1286940, Note_on_c, 0, 72, 0
2, 1286944, Note_on_c, 0, 75, 0
2, 1286948, Note_on_c, 0, 81, 0
2, 1286948, Note_on_c, 0, 78, 0
2, 1286988, Note_on_c, 0, 52, 92
2, 1287028, Note_on_c, 0, 52, 0
2, 1287096, Note_on_c, 0, 64, 89
2, 1287144, Note_on_c, 0, 64, 0
2, 1287200, Note_on_c, 0, 69, 98
2, 1287200, Note_on_c, 0, 60, 81
2, 1287200, Note_on_c, 0, 63, 77
2, 1287204, Note_on_c, 0, 66, 79
2, 1287228, Note_on_c, 0, 60, 0
2, 1287232, Note_on_c, 0, 66, 0
2, 1287236, Note_on_c, 0, 69, 0
2, 1287248, Note_on_c, 0, 63, 0
2, 1287308, Note_on_c, 0, 81, 90
2, 1287312, Note_on_c, 0, 72, 83
2, 1287312, Note_on_c, 0, 75, 76
2, 1287320, Note_on_c, 0, 78, 68
2, 1287376, Note_on_c, 0, 81, 0
2, 1287384, Note_on_c, 0, 78, 0
2, 1287396, Note_on_c, 0, 52, 98
2, 1287412, Note_on_c, 0, 72, 0
2, 1287432, Note_on_c, 0, 75, 0
2, 1287444, Note_on_c, 0, 52, 0
2, 1287500, Note_on_c, 0, 64, 89
2, 1287540, Note_on_c, 0, 64, 0
2, 1287664, Note_on_c, 0, 71, 88
2, 1287668, Note_on_c, 0, 76, 108
2, 1287668, Note_on_c, 0, 69, 93
2, 1287688, Note_on_c, 0, 83, 92
2, 1287696, Control_c, 0, 64, 88
2, 1287708, Control_c, 0, 64, 0
2, 1287772, Note_on_c, 0, 83, 0
2, 1287780, Note_on_c, 0, 85, 83
2, 1287800, Control_c, 0, 64, 72
2, 1287808, Control_c, 0, 64, 127
2, 1287836, Note_on_c, 0, 83, 85
2, 1287840, Note_on_c, 0, 85, 0
2, 1287892, Note_on_c, 0, 83, 0
2, 1287892, Note_on_c, 0, 85, 79
2, 1287904, Note_on_c, 0, 76, 0
2, 1287920, Note_on_c, 0, 69, 0
2, 1287932, Note_on_c, 0, 71, 0
2, 1287948, Note_on_c, 0, 85, 0
2, 1287948, Note_on_c, 0, 83, 78
2, 1287996, Note_on_c, 0, 83, 0
2, 1287996, Note_on_c, 0, 85, 74
2, 1288044, Note_on_c, 0, 83, 68
2, 1288048, Note_on_c, 0, 85, 0
2, 1288092, Note_on_c, 0, 85, 65
2, 1288096, Note_on_c, 0, 83, 0
2, 1288152, Note_on_c, 0, 85, 0
2, 1288156, Note_on_c, 0, 83, 63
2, 1288180, Note_on_c, 0, 64, 94
2, 1288196, Note_on_c, 0, 83, 0
2, 1288200, Note_on_c, 0, 85, 70
2, 1288236, Note_on_c, 0, 64, 0
2, 1288256, Note_on_c, 0, 85, 0
2, 1288260, Note_on_c, 0, 83, 73
2, 1288304, Note_on_c, 0, 83, 0
2, 1288304, Note_on_c, 0, 85, 73
2, 1288360, Note_on_c, 0, 83, 73
2, 1288364, Note_on_c, 0, 85, 0
2, 1288408, Note_on_c, 0, 83, 0
2, 1288412, Note_on_c, 0, 85, 72
2, 1288456, Note_on_c, 0, 66, 90
2, 1288468, Note_on_c, 0, 85, 0
2, 1288468, Note_on_c, 0, 83, 75
2, 1288508, Note_on_c, 0, 66, 0
2, 1288516, Note_on_c, 0, 83, 0
2, 1288520, Note_on_c, 0, 85, 78
2, 1288540, Note_on_c, 0, 68, 92
2, 1288576, Note_on_c, 0, 85, 0
2, 1288576, Note_on_c, 0, 83, 74
2, 1288600, Note_on_c, 0, 68, 0
2, 1288616, Note_on_c, 0, 69, 98
2, 1288620, Note_on_c, 0, 83, 0
2, 1288620, Note_on_c, 0, 85, 73
2, 1288668, Note_on_c, 0, 69, 0
2, 1288680, Note_on_c, 0, 85, 0
2, 1288688, Note_on_c, 0, 83, 77
2, 1288720, Note_on_c, 0, 71, 107
2, 1288728, Note_on_c, 0, 85, 75
2, 1288740, Note_on_c, 0, 83, 0
2, 1288764, Note_on_c, 0, 71, 0
2, 1288788, Note_on_c, 0, 85, 0
2, 1288804, Note_on_c, 0, 83, 85
2, 1288852, Note_on_c, 0, 83, 0
2, 1288852, Note_on_c, 0, 85, 82
2, 1288916, Note_on_c, 0, 85, 0
2, 1288920, Note_on_c, 0, 83, 78
2, 1288972, Note_on_c, 0, 83, 0
2, 1288976, Note_on_c, 0, 85, 79
2, 1289024, Note_on_c, 0, 85, 0
2, 1289036, Note_on_c, 0, 83, 80
2, 1289068, Note_on_c, 0, 64, 94
2, 1289072, Note_on_c, 0, 83, 0
2, 1289072, Note_on_c, 0, 85, 78
2, 1289128, Note_on_c, 0, 85, 0
2, 1289132, Note_on_c, 0, 83, 86
2, 1289152, Note_on_c, 0, 64, 0
2, 1289176, Note_on_c, 0, 85, 78
2, 1289180, Note_on_c, 0, 83, 0
2, 1289236, Note_on_c, 0, 85, 0
2, 1289248, Note_on_c, 0, 83, 78
2, 1289268, Note_on_c, 0, 76, 113
2, 1289300, Note_on_c, 0, 83, 0
2, 1289300, Note_on_c, 0, 85, 82
2, 1289360, Note_on_c, 0, 85, 0
2, 1289368, Note_on_c, 0, 83, 82
2, 1289408, Note_on_c, 0, 83, 0
2, 1289416, Note_on_c, 0, 85, 77
2, 1289464, Note_on_c, 0, 85, 0
2, 1289472, Note_on_c, 0, 83, 78
2, 1289504, Note_on_c, 0, 83, 0
2, 1289508, Note_on_c, 0, 85, 65
2, 1289560, Note_on_c, 0, 85, 0
2, 1289568, Note_on_c, 0, 83, 82
2, 1289608, Note_on_c, 0, 83, 0
2, 1289620, Note_on_c, 0, 85, 79
2, 1289640, Note_on_c, 0, 64, 88
2, 1289640, Note_on_c, 0, 71, 88
2, 1289660, Note_on_c, 0, 85, 0
2, 1289672, Note_on_c, 0, 83, 79
2, 1289700, Note_on_c, 0, 83, 0
2, 1289700, Note_on_c, 0, 76, 0
2, 1289708, Note_on_c, 0, 85, 78
2, 1289760, Note_on_c, 0, 85, 0
2, 1289760, Note_on_c, 0, 83, 88
2, 1289780, Note_on_c, 0, 64, 0
2, 1289780, Note_on_c, 0, 71, 0
2, 1289804, Note_on_c, 0, 83, 0
2, 1289804, Note_on_c, 0, 85, 78
2, 1289856, Note_on_c, 0, 85, 0
2, 1289868, Control_c, 0, 64, 88
2, 1289872, Note_on_c, 0, 83, 82
2, 1289872, Note_on_c, 0, 74, 89
2, 1289872, Note_on_c, 0, 81, 113
2, 1289872, Note_on_c, 0, 76, 94
2, 1289872, Note_on_c, 0, 64, 78
2, 1289872, Note_on_c, 0, 52, 84
2, 1289872, Note_on_c, 0, 71, 76
2, 1289872, Note_on_c, 0, 69, 74
2, 1289896, Control_c, 0, 64, 127
2, 1289916, Note_on_c, 0, 83, 0
2, 1289920, Note_on_c, 0, 85, 84
2, 1289932, Note_on_c, 0, 74, 0
2, 1289940, Note_on_c, 0, 76, 0
2, 1289940, Note_on_c, 0, 81, 0
2, 1289968, Note_on_c, 0, 85, 0
2, 1289980, Note_on_c, 0, 83, 80
2, 1290012, Note_on_c, 0, 69, 0
2, 1290012, Note_on_c, 0, 71, 0
2, 1290024, Note_on_c, 0, 83, 0
2, 1290028, Note_on_c, 0, 85, 79
2, 1290080, Note_on_c, 0, 85, 0
2, 1290088, Note_on_c, 0, 83, 76
2, 1290112, Note_on_c, 0, 52, 0
2, 1290124, Note_on_c, 0, 83, 0
2, 1290132, Note_on_c, 0, 85, 72
2, 1290180, Note_on_c, 0, 85, 0
2, 1290192, Note_on_c, 0, 83, 78
2, 1290228, Note_on_c, 0, 85, 74
2, 1290232, Note_on_c, 0, 83, 0
2, 1290284, Note_on_c, 0, 85, 0
2, 1290292, Note_on_c, 0, 83, 77
2, 1290332, Note_on_c, 0, 83, 0
2, 1290332, Note_on_c, 0, 85, 72
2, 1290388, Note_on_c, 0, 85, 0
2, 1290400, Note_on_c, 0, 83, 82
2, 1290400, Note_on_c, 0, 71, 96
2, 1290440, Note_on_c, 0, 85, 74
2, 1290444, Note_on_c, 0, 83, 0
2, 1290456, Note_on_c, 0, 71, 0
2, 1290496, Note_on_c, 0, 85, 0
2, 1290504, Note_on_c, 0, 83, 86
2, 1290544, Note_on_c, 0, 83, 0
2, 1290548, Note_on_c, 0, 85, 79
2, 1290612, Note_on_c, 0, 85, 0
2, 1290628, Note_on_c, 0, 83, 64
2, 1290636, Note_on_c, 0, 64, 0
2, 1290660, Note_on_c, 0, 74, 93
2, 1290684, Note_on_c, 0, 85, 72
2, 1290688, Note_on_c, 0, 83, 0
2, 1290716, Note_on_c, 0, 74, 0
2, 1290744, Note_on_c, 0, 76, 97
2, 1290752, Note_on_c, 0, 85, 0
2, 1290760, Note_on_c, 0, 83, 82
2, 1290796, Note_on_c, 0, 76, 0
2, 1290808, Note_on_c, 0, 83, 0
2, 1290812, Note_on_c, 0, 85, 78
2, 1290824, Note_on_c, 0, 78, 97
2, 1290884, Note_on_c, 0, 85, 0
2, 1290888, Note_on_c, 0, 78, 0
2, 1290888, Note_on_c, 0, 83, 73
2, 1290924, Note_on_c, 0, 80, 106
2, 1290944, Note_on_c, 0, 83, 0
2, 1290952, Note_on_c, 0, 85, 79
2, 1290964, Note_on_c, 0, 80, 0
2, 1291012, Note_on_c, 0, 85, 0
2, 1291016, Note_on_c, 0, 83, 76
2, 1291060, Note_on_c, 0, 83, 0
2, 1291060, Note_on_c, 0, 85, 75
2, 1291116, Note_on_c, 0, 85, 0
2, 1291124, Note_on_c, 0, 83, 80
2, 1291152, Note_on_c, 0, 85, 64
2, 1291160, Note_on_c, 0, 83, 0
2, 1291220, Note_on_c, 0, 85, 0
2, 1291228, Note_on_c, 0, 83, 76
2, 1291256, Note_on_c, 0, 76, 94
2, 1291272, Note_on_c, 0, 83, 0
2, 1291276, Note_on_c, 0, 85, 73
2, 1291304, Note_on_c, 0, 76, 0
2, 1291328, Note_on_c, 0, 85, 0
2, 1291344, Note_on_c, 0, 83, 71
2, 1291408, Note_on_c, 0, 85, 68
2, 1291412, Note_on_c, 0, 83, 0
2, 1291444, Note_on_c, 0, 85, 0
2, 1291468, Note_on_c, 0, 83, 114
2, 1291468, Note_on_c, 0, 76, 84
2, 1291492, Note_on_c, 0, 86, 80
2, 1291500, Note_on_c, 0, 83, 0
2, 1291540, Note_on_c, 0, 86, 0
2, 1291560, Note_on_c, 0, 88, 79
2, 1291608, Note_on_c, 0, 88, 0
2, 1291608, Note_on_c, 0, 86, 83
2, 1291652, Note_on_c, 0, 86, 0
2, 1291664, Note_on_c, 0, 88, 75
2, 1291712, Note_on_c, 0, 88, 0
2, 1291716, Note_on_c, 0, 86, 76
2, 1291756, Note_on_c, 0, 86, 0
2, 1291760, Note_on_c, 0, 88, 78
2, 1291796, Note_on_c, 0, 71, 86
2, 1291796, Note_on_c, 0, 64, 88
2, 1291816, Note_on_c, 0, 88, 0
2, 1291820, Note_on_c, 0, 86, 78
2, 1291856, Note_on_c, 0, 88, 73
2, 1291864, Note_on_c, 0, 86, 0
2, 1291884, Note_on_c, 0, 64, 0
2, 1291884, Note_on_c, 0, 71, 0
2, 1291912, Note_on_c, 0, 88, 0
2, 1291912, Note_on_c, 0, 86, 75
2, 1291940, Note_on_c, 0, 76, 0
2, 1291964, Note_on_c, 0, 86, 0
2, 1291964, Note_on_c, 0, 88, 79
2, 1292008, Note_on_c, 0, 64, 86
2, 1292008, Note_on_c, 0, 52, 93
2, 1292008, Note_on_c, 0, 71, 84
2, 1292008, Note_on_c, 0, 74, 84
2, 1292008, Note_on_c, 0, 81, 88
2, 1292012, Note_on_c, 0, 88, 0
2, 1292020, Note_on_c, 0, 86, 78
2, 1292072, Note_on_c, 0, 86, 0
2, 1292072, Note_on_c, 0, 88, 79
2, 1292096, Note_on_c, 0, 71, 0
2, 1292096, Note_on_c, 0, 74, 0
2, 1292120, Note_on_c, 0, 88, 0
2, 1292120, Note_on_c, 0, 86, 81
2, 1292164, Note_on_c, 0, 88, 83
2, 1292172, Note_on_c, 0, 86, 0
2, 1292220, Note_on_c, 0, 88, 0
2, 1292228, Note_on_c, 0, 86, 83
2, 1292240, Note_on_c, 0, 52, 0
2, 1292268, Note_on_c, 0, 88, 79
2, 1292276, Note_on_c, 0, 86, 0
2, 1292324, Note_on_c, 0, 88, 0
2, 1292328, Note_on_c, 0, 71, 88
2, 1292328, Note_on_c, 0, 62, 80
2, 1292328, Note_on_c, 0, 69, 79
2, 1292336, Note_on_c, 0, 86, 81
2, 1292360, Note_on_c, 0, 69, 0
2, 1292360, Note_on_c, 0, 62, 0
2, 1292376, Note_on_c, 0, 71, 0
2, 1292376, Note_on_c, 0, 88, 81
2, 1292380, Note_on_c, 0, 86, 0
2, 1292436, Note_on_c, 0, 88, 0
2, 1292444, Note_on_c, 0, 86, 84
2, 1292496, Note_on_c, 0, 86, 0
2, 1292496, Note_on_c, 0, 88, 81
2, 1292536, Note_on_c, 0, 76, 90
2, 1292536, Note_on_c, 0, 83, 102
2, 1292536, Note_on_c, 0, 74, 86
2, 1292536, Note_on_c, 0, 81, 94
2, 1292544, Note_on_c, 0, 88, 0
2, 1292556, Note_on_c, 0, 86, 86
2, 1292580, Note_on_c, 0, 83, 0
2, 1292584, Note_on_c, 0, 74, 0
2, 1292588, Note_on_c, 0, 81, 0
2, 1292600, Note_on_c, 0, 86, 0
2, 1292600, Note_on_c, 0, 88, 80
2, 1292652, Note_on_c, 0, 88, 0
2, 1292660, Note_on_c, 0, 86, 81
2, 1292700, Note_on_c, 0, 88, 76
2, 1292704, Note_on_c, 0, 86, 0
2, 1292756, Note_on_c, 0, 88, 0
2, 1292764, Note_on_c, 0, 86, 76
2, 1292796, Note_on_c, 0, 88, 73
2, 1292804, Note_on_c, 0, 86, 0
2, 1292856, Note_on_c, 0, 88, 0
2, 1292856, Note_on_c, 0, 86, 75
2, 1292864, Note_on_c, 0, 81, 0
2, 1292864, Note_on_c, 0, 64, 0
2, 1292868, Note_on_c, 0, 71, 88
2, 1292868, Note_on_c, 0, 64, 88
2, 1292896, Note_on_c, 0, 88, 75
2, 1292904, Note_on_c, 0, 86, 0
2, 1292956, Note_on_c, 0, 64, 0
2, 1292956, Note_on_c, 0, 88, 0
2, 1292956, Note_on_c, 0, 71, 0
2, 1292964, Note_on_c, 0, 86, 80
2, 1292996, Note_on_c, 0, 88, 74
2, 1293004, Note_on_c, 0, 86, 0
2, 1293056, Note_on_c, 0, 88, 0
2, 1293056, Note_on_c, 0, 86, 78
2, 1293068, Note_on_c, 0, 83, 83
2, 1293068, Note_on_c, 0, 81, 81
2, 1293068, Note_on_c, 0, 52, 93
2, 1293068, Note_on_c, 0, 64, 84
2, 1293096, Note_on_c, 0, 88, 78
2, 1293100, Note_on_c, 0, 86, 0
2, 1293148, Note_on_c, 0, 71, 83
2, 1293152, Note_on_c, 0, 88, 0
2, 1293152, Note_on_c, 0, 86, 80
2, 1293192, Note_on_c, 0, 88, 78
2, 1293200, Note_on_c, 0, 86, 0
2, 1293200, Note_on_c, 0, 81, 0
2, 1293200, Note_on_c, 0, 83, 0
2, 1293232, Note_on_c, 0, 83, 81
2, 1293232, Note_on_c, 0, 81, 78
2, 1293260, Note_on_c, 0, 88, 0
2, 1293264, Note_on_c, 0, 86, 83
2, 1293280, Note_on_c, 0, 71, 0
2, 1293308, Note_on_c, 0, 88, 78
2, 1293308, Note_on_c, 0, 71, 83
2, 1293312, Note_on_c, 0, 86, 0
2, 1293320, Note_on_c, 0, 81, 0
2, 1293348, Note_on_c, 0, 76, 0
2, 1293348, Note_on_c, 0, 71, 88
2, 1293348, Note_on_c, 0, 64, 75
2, 1293348, Note_on_c, 0, 68, 82
2, 1293348, Note_on_c, 0, 62, 83
2, 1293352, Note_on_c, 0, 83, 0
2, 1293368, Note_on_c, 0, 64, 0
2, 1293368, Note_on_c, 0, 52, 0
2, 1293372, Note_on_c, 0, 62, 0
2, 1293372, Note_on_c, 0, 88, 0
2, 1293380, Note_on_c, 0, 68, 0
2, 1293384, Note_on_c, 0, 83, 83
2, 1293384, Note_on_c, 0, 81, 79
2, 1293384, Note_on_c, 0, 86, 78
2, 1293392, Note_on_c, 0, 71, 0
2, 1293424, Note_on_c, 0, 86, 0
2, 1293436, Note_on_c, 0, 88, 78
2, 1293440, Note_on_c, 0, 71, 0
2, 1293464, Note_on_c, 0, 71, 83
2, 1293472, Note_on_c, 0, 81, 0
2, 1293472, Note_on_c, 0, 86, 78
2, 1293476, Note_on_c, 0, 83, 0
2, 1293504, Note_on_c, 0, 88, 0
2, 1293512, Note_on_c, 0, 86, 0
2, 1293544, Note_on_c, 0, 83, 103
2, 1293544, Note_on_c, 0, 74, 90
2, 1293544, Note_on_c, 0, 80, 84
2, 1293544, Note_on_c, 0, 74, 83
2, 1293544, Note_on_c, 0, 64, 84
2, 1293544, Note_on_c, 0, 52, 88
2, 1293548, Note_on_c, 0, 76, 86
2, 1293580, Note_on_c, 0, 92, 91
2, 1293596, Note_on_c, 0, 71, 0
2, 1293612, Note_on_c, 0, 74, 0
2, 1293624, Note_on_c, 0, 92, 0
2, 1293632, Note_on_c, 0, 83, 0
2, 1293636, Note_on_c, 0, 80, 0
2, 1293636, Note_on_c, 0, 71, 83
2, 1293648, Note_on_c, 0, 93, 88
2, 1293656, Note_on_c, 0, 76, 0
2, 1293676, Note_on_c, 0, 74, 0
2, 1293692, Note_on_c, 0, 93, 0
2, 1293704, Note_on_c, 0, 92, 85
2, 1293732, Note_on_c, 0, 83, 86
2, 1293732, Note_on_c, 0, 80, 82
2, 1293732, Note_on_c, 0, 74, 83
2, 1293752, Note_on_c, 0, 92, 0
2, 1293752, Note_on_c, 0, 93, 87
2, 1293768, Note_on_c, 0, 71, 0
2, 1293800, Note_on_c, 0, 93, 0
2, 1293800, Note_on_c, 0, 92, 78
2, 1293820, Note_on_c, 0, 80, 0
2, 1293832, Note_on_c, 0, 71, 83
2, 1293852, Note_on_c, 0, 92, 0
2, 1293856, Note_on_c, 0, 93, 88
2, 1293860, Note_on_c, 0, 83, 0
2, 1293864, Note_on_c, 0, 74, 0
2, 1293864, Note_on_c, 0, 52, 0
2, 1293900, Note_on_c, 0, 93, 0
2, 1293904, Note_on_c, 0, 64, 90
2, 1293904, Note_on_c, 0, 52, 95
2, 1293912, Note_on_c, 0, 92, 82
2, 1293932, Note_on_c, 0, 83, 90
2, 1293932, Note_on_c, 0, 80, 81
2, 1293932, Note_on_c, 0, 74, 83
2, 1293952, Note_on_c, 0, 52, 0
2, 1293952, Note_on_c, 0, 64, 0
2, 1293952, Note_on_c, 0, 64, 0
2, 1293960, Note_on_c, 0, 92, 0
2, 1293960, Note_on_c, 0, 93, 90
2, 1293964, Note_on_c, 0, 71, 0
2, 1294008, Note_on_c, 0, 92, 90
2, 1294016, Note_on_c, 0, 93, 0
2, 1294020, Note_on_c, 0, 80, 0
2, 1294048, Note_on_c, 0, 83, 0
2, 1294056, Note_on_c, 0, 92, 0
2, 1294060, Note_on_c, 0, 90, 91
2, 1294064, Note_on_c, 0, 74, 0
2, 1294084, Note_on_c, 0, 71, 83
2, 1294108, Note_on_c, 0, 90, 0
2, 1294120, Note_on_c, 0, 92, 96
2, 1294168, Note_on_c, 0, 92, 0
2, 1294204, Control_c, 0, 64, 72
2, 1294216, Note_on_c, 0, 71, 0
2, 1294224, Control_c, 0, 64, 56
2, 1294228, Note_on_c, 0, 85, 101
2, 1294232, Note_on_c, 0, 81, 95
2, 1294240, Note_on_c, 0, 45, 90
2, 1294240, Control_c, 0, 64, 56
2, 1294248, Control_c, 0, 64, 127
2, 1294324, Note_on_c, 0, 45, 0
2, 1294336, Note_on_c, 0, 73, 76
2, 1294340, Note_on_c, 0, 57, 76
2, 1294400, Note_on_c, 0, 57, 0
2, 1294420, Note_on_c, 0, 73, 0
2, 1294452, Note_on_c, 0, 64, 0
2, 1294456, Note_on_c, 0, 45, 82
2, 1294468, Note_on_c, 0, 76, 83
2, 1294528, Note_on_c, 0, 45, 0
2, 1294540, Note_on_c, 0, 76, 0
2, 1294568, Note_on_c, 0, 73, 78
2, 1294576, Note_on_c, 0, 57, 76
2, 1294644, Note_on_c, 0, 57, 0
2, 1294656, Note_on_c, 0, 73, 0
2, 1294696, Note_on_c, 0, 45, 82
2, 1294696, Note_on_c, 0, 76, 84
2, 1294760, Note_on_c, 0, 81, 0
2, 1294776, Note_on_c, 0, 85, 0
2, 1294788, Note_on_c, 0, 76, 0
2, 1294796, Note_on_c, 0, 45, 0
2, 1294800, Note_on_c, 0, 73, 85
2, 1294816, Note_on_c, 0, 57, 77
2, 1294836, Note_on_c, 0, 73, 0
2, 1294928, Note_on_c, 0, 81, 99
2, 1294932, Note_on_c, 0, 76, 94
2, 1294932, Note_on_c, 0, 73, 86
2, 1294936, Note_on_c, 0, 45, 83
2, 1295016, Note_on_c, 0, 73, 0
2, 1295028, Note_on_c, 0, 76, 0
2, 1295048, Note_on_c, 0, 69, 93
2, 1295168, Note_on_c, 0, 69, 0
2, 1295168, Note_on_c, 0, 76, 88
2, 1295192, Note_on_c, 0, 76, 0
2, 1295208, Note_on_c, 0, 81, 0
2, 1295280, Note_on_c, 0, 83, 103
2, 1295280, Note_on_c, 0, 76, 94
2, 1295328, Note_on_c, 0, 76, 0
2, 1295360, Note_on_c, 0, 83, 0
2, 1295400, Note_on_c, 0, 85, 98
2, 1295408, Note_on_c, 0, 81, 90
2, 1295420, Note_on_c, 0, 76, 53
2, 1295440, Note_on_c, 0, 76, 0
2, 1295464, Note_on_c, 0, 81, 0
2, 1295480, Note_on_c, 0, 85, 0
2, 1295516, Note_on_c, 0, 86, 107
2, 1295516, Note_on_c, 0, 83, 98
2, 1295556, Note_on_c, 0, 83, 0
2, 1295560, Note_on_c, 0, 45, 0
2, 1295576, Note_on_c, 0, 57, 0
2, 1295580, Note_on_c, 0, 86, 0
2, 1295620, Control_c, 0, 64, 72
2, 1295628, Control_c, 0, 64, 0
2, 1295636, Note_on_c, 0, 88, 104
2, 1295636, Note_on_c, 0, 85, 95
2, 1295648, Note_on_c, 0, 45, 84
2, 1295696, Control_c, 0, 64, 88
2, 1295708, Control_c, 0, 64, 127
2, 1295744, Note_on_c, 0, 85, 0
2, 1295752, Note_on_c, 0, 76, 85
2, 1295764, Note_on_c, 0, 57, 76
2, 1295772, Note_on_c, 0, 45, 0
2, 1295832, Note_on_c, 0, 57, 0
2, 1295848, Note_on_c, 0, 76, 0
2, 1295868, Note_on_c, 0, 85, 83
2, 1295876, Note_on_c, 0, 45, 83
2, 1295960, Note_on_c, 0, 88, 0
2, 1295968, Note_on_c, 0, 85, 0
2, 1295980, Note_on_c, 0, 45, 0
2, 1295980, Note_on_c, 0, 76, 91
2, 1295992, Note_on_c, 0, 57, 69
2, 1296024, Note_on_c, 0, 76, 0
2, 1296052, Note_on_c, 0, 57, 0
2, 1296092, Note_on_c, 0, 81, 99
2, 1296100, Note_on_c, 0, 76, 91
2, 1296112, Note_on_c, 0, 45, 84
2, 1296188, Note_on_c, 0, 76, 0
2, 1296196, Note_on_c, 0, 81, 0
2, 1296220, Note_on_c, 0, 45, 0
2, 1296224, Note_on_c, 0, 73, 92
2, 1296236, Note_on_c, 0, 57, 68
2, 1296248, Note_on_c, 0, 73, 0
2, 1296292, Note_on_c, 0, 57, 0
2, 1296360, Note_on_c, 0, 93, 113
2, 1296364, Note_on_c, 0, 45, 88
2, 1296368, Note_on_c, 0, 85, 97
2, 1296484, Note_on_c, 0, 85, 0
2, 1296488, Note_on_c, 0, 81, 92
2, 1296576, Note_on_c, 0, 81, 0
2, 1296600, Note_on_c, 0, 45, 0
2, 1296628, Note_on_c, 0, 85, 82
2, 1296652, Note_on_c, 0, 93, 0
2, 1296700, Note_on_c, 0, 85, 0
2, 1296732, Note_on_c, 0, 81, 89
2, 1296804, Note_on_c, 0, 81, 0
2, 1296820, Control_c, 0, 64, 88
2, 1296828, Control_c, 0, 64, 0
2, 1296848, Note_on_c, 0, 87, 90
2, 1296848, Note_on_c, 0, 93, 109
2, 1296852, Note_on_c, 0, 84, 90
2, 1296856, Note_on_c, 0, 42, 86
2, 1296856, Note_on_c, 0, 54, 83
2, 1296888, Control_c, 0, 64, 40
2, 1296900, Control_c, 0, 64, 104
2, 1296908, Control_c, 0, 64, 127
2, 1296932, Note_on_c, 0, 54, 0
2, 1296940, Note_on_c, 0, 84, 0
2, 1296944, Note_on_c, 0, 42, 0
2, 1296960, Note_on_c, 0, 87, 0
2, 1296972, Note_on_c, 0, 81, 86
2, 1297016, Note_on_c, 0, 81, 0
2, 1297056, Note_on_c, 0, 93, 0
2, 1297080, Control_c, 0, 64, 40
2, 1297084, Note_on_c, 0, 92, 103
2, 1297088, Control_c, 0, 64, 0
2, 1297100, Note_on_c, 0, 40, 84
2, 1297100, Note_on_c, 0, 52, 80
2, 1297128, Control_c, 0, 64, 40
2, 1297140, Control_c, 0, 64, 88
2, 1297148, Control_c, 0, 64, 127
2, 1297196, Note_on_c, 0, 92, 0
2, 1297208, Note_on_c, 0, 85, 85
2, 1297228, Note_on_c, 0, 40, 0
2, 1297264, Note_on_c, 0, 52, 0
2, 1297268, Note_on_c, 0, 85, 0
2, 1297284, Note_on_c, 0, 93, 100
2, 1297320, Note_on_c, 0, 92, 93
2, 1297336, Note_on_c, 0, 40, 83
2, 1297340, Note_on_c, 0, 52, 82
2, 1297340, Control_c, 0, 64, 72
2, 1297344, Note_on_c, 0, 93, 0
2, 1297348, Control_c, 0, 64, 24
2, 1297360, Control_c, 0, 64, 0
2, 1297380, Control_c, 0, 64, 40
2, 1297392, Control_c, 0, 64, 88
2, 1297400, Control_c, 0, 64, 127
2, 1297420, Note_on_c, 0, 92, 0
2, 1297424, Note_on_c, 0, 40, 0
2, 1297436, Note_on_c, 0, 52, 0
2, 1297440, Note_on_c, 0, 85, 84
2, 1297484, Note_on_c, 0, 85, 0
2, 1297544, Control_c, 0, 64, 88
2, 1297552, Control_c, 0, 64, 0
2, 1297564, Note_on_c, 0, 90, 101
2, 1297572, Note_on_c, 0, 42, 86
2, 1297576, Note_on_c, 0, 54, 79
2, 1297600, Control_c, 0, 64, 40
2, 1297612, Control_c, 0, 64, 104
2, 1297624, Control_c, 0, 64, 127
2, 1297680, Note_on_c, 0, 81, 78
2, 1297688, Note_on_c, 0, 85, 73
2, 1297696, Note_on_c, 0, 42, 0
2, 1297704, Note_on_c, 0, 90, 0
2, 1297712, Note_on_c, 0, 54, 0
2, 1297748, Note_on_c, 0, 81, 0
2, 1297772, Note_on_c, 0, 85, 0
2, 1297784, Control_c, 0, 64, 72
2, 1297796, Note_on_c, 0, 88, 101
2, 1297796, Control_c, 0, 64, 0
2, 1297804, Note_on_c, 0, 44, 86
2, 1297804, Note_on_c, 0, 56, 78
2, 1297836, Control_c, 0, 64, 24
2, 1297844, Control_c, 0, 64, 72
2, 1297856, Control_c, 0, 64, 127
2, 1297916, Note_on_c, 0, 88, 0
2, 1297932, Note_on_c, 0, 85, 80
2, 1297932, Note_on_c, 0, 80, 68
2, 1297960, Note_on_c, 0, 44, 0
2, 1297968, Note_on_c, 0, 85, 0
2, 1297976, Note_on_c, 0, 80, 0
2, 1297980, Note_on_c, 0, 56, 0
2, 1297992, Note_on_c, 0, 90, 92
2, 1298044, Note_on_c, 0, 88, 97
2, 1298044, Note_on_c, 0, 56, 78
2, 1298044, Note_on_c, 0, 44, 84
2, 1298048, Control_c, 0, 64, 104
2, 1298056, Control_c, 0, 64, 40
2, 1298064, Control_c, 0, 64, 0
2, 1298068, Note_on_c, 0, 90, 0
2, 1298108, Control_c, 0, 64, 40
2, 1298116, Control_c, 0, 64, 104
2, 1298128, Control_c, 0, 64, 127
2, 1298160, Note_on_c, 0, 88, 0
2, 1298172, Note_on_c, 0, 80, 78
2, 1298216, Note_on_c, 0, 44, 0
2, 1298220, Note_on_c, 0, 56, 0
2, 1298264, Note_on_c, 0, 80, 0
2, 1298280, Control_c, 0, 64, 72
2, 1298288, Note_on_c, 0, 87, 102
2, 1298288, Control_c, 0, 64, 0
2, 1298300, Note_on_c, 0, 56, 82
2, 1298304, Note_on_c, 0, 44, 79
2, 1298348, Control_c, 0, 64, 72
2, 1298356, Control_c, 0, 64, 127
2, 1298368, Note_on_c, 0, 56, 0
2, 1298384, Note_on_c, 0, 44, 0
2, 1298412, Note_on_c, 0, 87, 0
2, 1298416, Note_on_c, 0, 78, 77
2, 1298420, Note_on_c, 0, 84, 83
2, 1298472, Note_on_c, 0, 84, 0
2, 1298488, Note_on_c, 0, 78, 0
2, 1298532, Note_on_c, 0, 85, 101
2, 1298552, Note_on_c, 0, 49, 83
2, 1298556, Note_on_c, 0, 37, 87
2, 1298580, Control_c, 0, 64, 88
2, 1298588, Control_c, 0, 64, 40
2, 1298600, Control_c, 0, 64, 0
2, 1298656, Note_on_c, 0, 76, 83
2, 1298660, Control_c, 0, 64, 56
2, 1298668, Control_c, 0, 64, 127
2, 1298744, Note_on_c, 0, 76, 0
2, 1298780, Note_on_c, 0, 80, 72
2, 1298864, Note_on_c, 0, 37, 0
2, 1298868, Note_on_c, 0, 80, 0
2, 1298888, Note_on_c, 0, 49, 0
2, 1298892, Note_on_c, 0, 76, 77
2, 1298988, Note_on_c, 0, 76, 0
2, 1299024, Note_on_c, 0, 37, 84
2, 1299024, Note_on_c, 0, 49, 76
2, 1299032, Note_on_c, 0, 80, 70
2, 1299072, Note_on_c, 0, 37, 0
2, 1299080, Note_on_c, 0, 49, 0
2, 1299124, Note_on_c, 0, 85, 0
2, 1299128, Note_on_c, 0, 80, 0
2, 1299132, Note_on_c, 0, 76, 92
2, 1299168, Note_on_c, 0, 76, 0
2, 1299276, Note_on_c, 0, 91, 111
2, 1299292, Note_on_c, 0, 58, 85
2, 1299292, Note_on_c, 0, 46, 88
2, 1299316, Control_c, 0, 64, 56
2, 1299324, Control_c, 0, 64, 0
2, 1299396, Control_c, 0, 64, 127
2, 1299400, Note_on_c, 0, 79, 83
2, 1299500, Note_on_c, 0, 79, 0
2, 1299516, Note_on_c, 0, 88, 87
2, 1299528, Note_on_c, 0, 85, 70
2, 1299616, Note_on_c, 0, 88, 0
2, 1299620, Note_on_c, 0, 85, 0
2, 1299632, Note_on_c, 0, 79, 88
2, 1299720, Note_on_c, 0, 79, 0
2, 1299752, Note_on_c, 0, 88, 83
2, 1299752, Note_on_c, 0, 85, 70
2, 1299816, Note_on_c, 0, 91, 0
2, 1299832, Note_on_c, 0, 88, 0
2, 1299832, Note_on_c, 0, 85, 0
2, 1299852, Note_on_c, 0, 79, 82
2, 1299872, Note_on_c, 0, 46, 0
2, 1299896, Note_on_c, 0, 79, 0
2, 1299896, Note_on_c, 0, 58, 0
2, 1299968, Control_c, 0, 64, 56
2, 1299972, Note_on_c, 0, 90, 97
2, 1299980, Control_c, 0, 64, 0
2, 1299988, Note_on_c, 0, 59, 82
2, 1299992, Note_on_c, 0, 47, 87
2, 1300028, Note_on_c, 0, 59, 0
2, 1300028, Control_c, 0, 64, 40
2, 1300040, Control_c, 0, 64, 104
2, 1300048, Note_on_c, 0, 47, 0
2, 1300048, Control_c, 0, 64, 127
2, 1300072, Note_on_c, 0, 90, 0
2, 1300084, Note_on_c, 0, 78, 80
2, 1300092, Note_on_c, 0, 86, 83
2, 1300116, Note_on_c, 0, 86, 0
2, 1300144, Note_on_c, 0, 78, 0
2, 1300184, Note_on_c, 0, 91, 100
2, 1300228, Note_on_c, 0, 35, 86
2, 1300232, Note_on_c, 0, 47, 81
2, 1300232, Note_on_c, 0, 90, 97
2, 1300260, Note_on_c, 0, 91, 0
2, 1300268, Note_on_c, 0, 35, 0
2, 1300296, Note_on_c, 0, 47, 0
2, 1300332, Note_on_c, 0, 90, 0
2, 1300360, Note_on_c, 0, 86, 85
2, 1300360, Note_on_c, 0, 78, 66
2, 1300392, Note_on_c, 0, 86, 0
2, 1300416, Note_on_c, 0, 78, 0
2, 1300452, Control_c, 0, 64, 104
2, 1300456, Note_on_c, 0, 88, 103
2, 1300464, Control_c, 0, 64, 24
2, 1300472, Control_c, 0, 64, 0
2, 1300476, Note_on_c, 0, 52, 81
2, 1300480, Note_on_c, 0, 40, 83
2, 1300532, Control_c, 0, 64, 72
2, 1300544, Control_c, 0, 64, 127
2, 1300576, Note_on_c, 0, 85, 79
2, 1300584, Note_on_c, 0, 79, 76
2, 1300588, Note_on_c, 0, 88, 0
2, 1300616, Note_on_c, 0, 52, 0
2, 1300628, Note_on_c, 0, 40, 0
2, 1300660, Note_on_c, 0, 85, 0
2, 1300660, Note_on_c, 0, 79, 0
2, 1300684, Control_c, 0, 64, 88
2, 1300692, Note_on_c, 0, 86, 95
2, 1300696, Control_c, 0, 64, 0
2, 1300708, Note_on_c, 0, 54, 77
2, 1300712, Note_on_c, 0, 42, 84
2, 1300736, Control_c, 0, 64, 40
2, 1300744, Control_c, 0, 64, 88
2, 1300756, Control_c, 0, 64, 127
2, 1300800, Note_on_c, 0, 86, 0
2, 1300824, Note_on_c, 0, 78, 57
2, 1300836, Note_on_c, 0, 83, 58
2, 1300844, Note_on_c, 0, 42, 0
2, 1300864, Note_on_c, 0, 54, 0
2, 1300864, Note_on_c, 0, 83, 0
2, 1300868, Note_on_c, 0, 78, 0
2, 1300884, Note_on_c, 0, 88, 97
2, 1300916, Control_c, 0, 64, 72
2, 1300920, Note_on_c, 0, 42, 83
2, 1300920, Note_on_c, 0, 54, 80
2, 1300928, Control_c, 0, 64, 0
2, 1300932, Note_on_c, 0, 86, 88
2, 1300964, Note_on_c, 0, 88, 0
2, 1300968, Control_c, 0, 64, 40
2, 1300976, Control_c, 0, 64, 88
2, 1300988, Control_c, 0, 64, 127
2, 1301000, Note_on_c, 0, 78, 47
2, 1301028, Note_on_c, 0, 42, 0
2, 1301040, Note_on_c, 0, 54, 0
2, 1301044, Note_on_c, 0, 86, 0
2, 1301052, Note_on_c, 0, 83, 87
2, 1301088, Note_on_c, 0, 78, 0
2, 1301104, Note_on_c, 0, 83, 0
2, 1301156, Control_c, 0, 64, 88
2, 1301164, Note_on_c, 0, 85, 103
2, 1301168, Control_c, 0, 64, 24
2, 1301176, Note_on_c, 0, 54, 76
2, 1301176, Note_on_c, 0, 42, 84
2, 1301180, Control_c, 0, 64, 0
2, 1301228, Control_c, 0, 64, 24
2, 1301236, Note_on_c, 0, 42, 0
2, 1301236, Control_c, 0, 64, 88
2, 1301248, Control_c, 0, 64, 127
2, 1301260, Note_on_c, 0, 54, 0
2, 1301292, Note_on_c, 0, 85, 0
2, 1301292, Note_on_c, 0, 82, 78
2, 1301296, Note_on_c, 0, 76, 78
2, 1301324, Note_on_c, 0, 82, 0
2, 1301352, Note_on_c, 0, 76, 0
2, 1301416, Note_on_c, 0, 83, 98
2, 1301428, Control_c, 0, 64, 104
2, 1301432, Note_on_c, 0, 59, 79
2, 1301440, Note_on_c, 0, 47, 84
2, 1301440, Control_c, 0, 64, 56
2, 1301448, Control_c, 0, 64, 0
2, 1301512, Control_c, 0, 64, 40
2, 1301520, Control_c, 0, 64, 127
2, 1301532, Note_on_c, 0, 78, 84
2, 1301656, Note_on_c, 0, 78, 0
2, 1301660, Note_on_c, 0, 74, 78
2, 1301708, Note_on_c, 0, 47, 0
2, 1301748, Note_on_c, 0, 59, 0
2, 1301764, Note_on_c, 0, 78, 85
2, 1301772, Note_on_c, 0, 83, 0
2, 1301780, Note_on_c, 0, 74, 0
2, 1301808, Note_on_c, 0, 78, 0
2, 1301892, Note_on_c, 0, 71, 91
2, 1301892, Note_on_c, 0, 59, 73
2, 1301976, Note_on_c, 0, 59, 0
2, 1301976, Note_on_c, 0, 71, 0
2, 1302008, Note_on_c, 0, 73, 88
2, 1302020, Note_on_c, 0, 61, 61
2, 1302072, Note_on_c, 0, 61, 0
2, 1302080, Note_on_c, 0, 73, 0
2, 1302128, Note_on_c, 0, 74, 103
2, 1302136, Note_on_c, 0, 68, 70
2, 1302136, Note_on_c, 0, 71, 83
2, 1302144, Note_on_c, 0, 59, 69
2, 1302144, Control_c, 0, 64, 40
2, 1302148, Note_on_c, 0, 62, 70
2, 1302148, Note_on_c, 0, 56, 62
2, 1302156, Note_on_c, 0, 71, 0
2, 1302156, Control_c, 0, 64, 0
2, 1302168, Note_on_c, 0, 68, 0
2, 1302228, Control_c, 0, 64, 40
2, 1302236, Control_c, 0, 64, 127
2, 1302256, Note_on_c, 0, 62, 0
2, 1302276, Note_on_c, 0, 74, 0
2, 1302392, Note_on_c, 0, 74, 98
2, 1302408, Note_on_c, 0, 62, 68
2, 1302440, Note_on_c, 0, 59, 0
2, 1302484, Note_on_c, 0, 74, 0
2, 1302496, Note_on_c, 0, 76, 98
2, 1302500, Note_on_c, 0, 56, 0
2, 1302504, Note_on_c, 0, 62, 0
2, 1302516, Note_on_c, 0, 64, 84
2, 1302604, Note_on_c, 0, 76, 0
2, 1302608, Note_on_c, 0, 64, 0
2, 1302624, Note_on_c, 0, 65, 84
2, 1302628, Note_on_c, 0, 77, 108
2, 1302664, Note_on_c, 0, 65, 0
2, 1302692, Note_on_c, 0, 77, 0
2, 1302860, Note_on_c, 0, 76, 106
2, 1302868, Note_on_c, 0, 73, 85
2, 1302868, Note_on_c, 0, 64, 73
2, 1302876, Note_on_c, 0, 57, 70
2, 1302928, Control_c, 0, 64, 88
2, 1302940, Control_c, 0, 64, 24
2, 1302948, Control_c, 0, 64, 0
2, 1303032, Note_on_c, 0, 73, 0
2, 1303032, Control_c, 0, 64, 104
2, 1303040, Control_c, 0, 64, 127
2, 1303116, Note_on_c, 0, 73, 93
2, 1303132, Note_on_c, 0, 61, 73
2, 1303148, Note_on_c, 0, 76, 0
2, 1303160, Note_on_c, 0, 57, 0
2, 1303344, Note_on_c, 0, 73, 0
2, 1303352, Note_on_c, 0, 69, 86
2, 1303368, Note_on_c, 0, 57, 43
2, 1303376, Note_on_c, 0, 64, 0
2, 1303384, Note_on_c, 0, 61, 0
2, 1303400, Note_on_c, 0, 57, 0
2, 1303408, Note_on_c, 0, 69, 0
2, 1303524, Note_on_c, 0, 71, 94
2, 1303580, Note_on_c, 0, 71, 0
2, 1303592, Note_on_c, 0, 69, 98
2, 1303604, Note_on_c, 0, 63, 73
2, 1303608, Note_on_c, 0, 54, 59
2, 1303612, Note_on_c, 0, 47, 69
2, 1303612, Note_on_c, 0, 57, 58
2, 1303624, Control_c, 0, 64, 88
2, 1303636, Control_c, 0, 64, 0
2, 1303728, Control_c, 0, 64, 104
2, 1303736, Control_c, 0, 64, 127
2, 1303796, Note_on_c, 0, 54, 0
2, 1303820, Note_on_c, 0, 69, 0
2, 1303844, Note_on_c, 0, 68, 90
2, 1303856, Note_on_c, 0, 56, 75
2, 1303860, Note_on_c, 0, 63, 0
2, 1303872, Note_on_c, 0, 57, 0
2, 1303924, Note_on_c, 0, 56, 0
2, 1303948, Note_on_c, 0, 47, 0
2, 1304000, Note_on_c, 0, 68, 0
2, 1304096, Note_on_c, 0, 69, 98
2, 1304104, Note_on_c, 0, 63, 78
2, 1304108, Control_c, 0, 64, 104
2, 1304112, Note_on_c, 0, 57, 67
2, 1304112, Note_on_c, 0, 54, 61
2, 1304116, Note_on_c, 0, 47, 68
2, 1304120, Control_c, 0, 64, 24
2, 1304128, Control_c, 0, 64, 0
2, 1304168, Note_on_c, 0, 63, 0
2, 1304188, Note_on_c, 0, 47, 0
2, 1304188, Control_c, 0, 64, 56
2, 1304200, Control_c, 0, 64, 127
2, 1304208, Note_on_c, 0, 69, 0
2, 1304208, Note_on_c, 0, 54, 0
2, 1304232, Note_on_c, 0, 57, 0
2, 1304368, Note_on_c, 0, 71, 99
2, 1304384, Note_on_c, 0, 64, 72
2, 1304384, Note_on_c, 0, 62, 83
2, 1304388, Note_on_c, 0, 56, 68
2, 1304388, Note_on_c, 0, 52, 74
2, 1304440, Control_c, 0, 64, 104
2, 1304452, Control_c, 0, 64, 40
2, 1304460, Control_c, 0, 64, 0
2, 1304592, Control_c, 0, 64, 56
2, 1304600, Control_c, 0, 64, 127
2, 1304916, Note_on_c, 0, 62, 0
2, 1304916, Note_on_c, 0, 64, 0
2, 1304940, Note_on_c, 0, 52, 0
2, 1304940, Note_on_c, 0, 56, 0
2, 1304944, Note_on_c, 0, 71, 0
2, 1305192, Note_on_c, 0, 88, 108
2, 1305196, Note_on_c, 0, 84, 94
2, 1305196, Note_on_c, 0, 74, 98
2, 1305196, Note_on_c, 0, 76, 88
2, 1305200, Note_on_c, 0, 80, 88
2, 1305204, Note_on_c, 0, 52, 84
2, 1305208, Note_on_c, 0, 40, 79
2, 1305236, Control_c, 0, 64, 72
2, 1305244, Control_c, 0, 64, 0
2, 1305336, Control_c, 0, 64, 127
2, 1305712, Note_on_c, 0, 88, 0
2, 1305720, Note_on_c, 0, 84, 0
2, 1305728, Note_on_c, 0, 40, 0
2, 1305732, Note_on_c, 0, 80, 0
2, 1305740, Note_on_c, 0, 74, 0
2, 1305744, Note_on_c, 0, 76, 0
2, 1305756, Note_on_c, 0, 52, 0
2, 1305972, Control_c, 0, 64, 40
2, 1305980, Control_c, 0, 64, 0
2, 1305988, Note_on_c, 0, 85, 100
2, 1305992, Note_on_c, 0, 81, 98
2, 1305996, Note_on_c, 0, 45, 97
2, 1306040, Control_c, 0, 64, 88
2, 1306052, Control_c, 0, 64, 127
2, 1306120, Note_on_c, 0, 73, 80
2, 1306120, Note_on_c, 0, 57, 63
2, 1306140, Note_on_c, 0, 45, 0
2, 1306196, Note_on_c, 0, 73, 0
2, 1306208, Note_on_c, 0, 57, 0
2, 1306236, Note_on_c, 0, 45, 76
2, 1306240, Note_on_c, 0, 76, 83
2, 1306324, Note_on_c, 0, 76, 0
2, 1306336, Note_on_c, 0, 73, 68
2, 1306340, Note_on_c, 0, 45, 0
2, 1306352, Note_on_c, 0, 57, 63
2, 1306432, Note_on_c, 0, 57, 0
2, 1306432, Note_on_c, 0, 73, 0
2, 1306460, Note_on_c, 0, 76, 83
2, 1306472, Note_on_c, 0, 45, 81
2, 1306560, Note_on_c, 0, 85, 0
2, 1306568, Note_on_c, 0, 81, 0
2, 1306568, Note_on_c, 0, 76, 0
2, 1306572, Note_on_c, 0, 45, 0
2, 1306572, Note_on_c, 0, 73, 83
2, 1306596, Note_on_c, 0, 57, 58
2, 1306616, Note_on_c, 0, 73, 0
2, 1306632, Note_on_c, 0, 57, 0
2, 1306704, Note_on_c, 0, 81, 99
2, 1306708, Note_on_c, 0, 76, 94
2, 1306708, Note_on_c, 0, 73, 88
2, 1306716, Note_on_c, 0, 45, 78
2, 1306804, Note_on_c, 0, 73, 0
2, 1306816, Note_on_c, 0, 76, 0
2, 1306820, Note_on_c, 0, 69, 83
2, 1306920, Note_on_c, 0, 73, 87
2, 1306940, Note_on_c, 0, 69, 0
2, 1306968, Note_on_c, 0, 73, 0
2, 1306972, Note_on_c, 0, 81, 0
2, 1307032, Note_on_c, 0, 45, 0
2, 1307044, Note_on_c, 0, 83, 107
2, 1307044, Note_on_c, 0, 76, 95
2, 1307056, Note_on_c, 0, 57, 71
2, 1307128, Note_on_c, 0, 57, 0
2, 1307132, Note_on_c, 0, 83, 0
2, 1307152, Note_on_c, 0, 76, 0
2, 1307156, Note_on_c, 0, 85, 99
2, 1307168, Note_on_c, 0, 76, 51
2, 1307168, Note_on_c, 0, 81, 91
2, 1307168, Note_on_c, 0, 45, 86
2, 1307240, Note_on_c, 0, 81, 0
2, 1307248, Note_on_c, 0, 85, 0
2, 1307260, Note_on_c, 0, 45, 0
2, 1307276, Note_on_c, 0, 86, 103
2, 1307280, Note_on_c, 0, 83, 96
2, 1307284, Note_on_c, 0, 57, 71
2, 1307296, Note_on_c, 0, 76, 0
2, 1307316, Note_on_c, 0, 83, 0
2, 1307340, Note_on_c, 0, 86, 0
2, 1307368, Note_on_c, 0, 57, 0
2, 1307396, Note_on_c, 0, 88, 103
2, 1307396, Note_on_c, 0, 85, 93
2, 1307408, Note_on_c, 0, 45, 83
2, 1307508, Note_on_c, 0, 85, 0
2, 1307524, Note_on_c, 0, 76, 85
2, 1307616, Note_on_c, 0, 76, 0
2, 1307628, Note_on_c, 0, 85, 87
2, 1307720, Note_on_c, 0, 85, 0
2, 1307728, Note_on_c, 0, 88, 0
2, 1307736, Note_on_c, 0, 76, 88
2, 1307780, Note_on_c, 0, 45, 0
2, 1307784, Note_on_c, 0, 76, 0
2, 1307860, Note_on_c, 0, 81, 100
2, 1307868, Note_on_c, 0, 76, 91
2, 1307872, Note_on_c, 0, 57, 74
2, 1307880, Note_on_c, 0, 45, 79
2, 1307952, Note_on_c, 0, 81, 0
2, 1307956, Note_on_c, 0, 76, 0
2, 1307984, Note_on_c, 0, 73, 92
2, 1308016, Note_on_c, 0, 73, 0
2, 1308032, Note_on_c, 0, 45, 0
2, 1308036, Note_on_c, 0, 57, 0
2, 1308124, Note_on_c, 0, 93, 113
2, 1308128, Note_on_c, 0, 85, 95
2, 1308132, Note_on_c, 0, 57, 81
2, 1308136, Note_on_c, 0, 45, 86
2, 1308148, Note_on_c, 0, 87, 45
2, 1308156, Control_c, 0, 64, 104
2, 1308164, Note_on_c, 0, 87, 0
2, 1308164, Control_c, 0, 64, 24
2, 1308176, Control_c, 0, 64, 0
2, 1308228, Control_c, 0, 64, 104
2, 1308236, Note_on_c, 0, 85, 0
2, 1308236, Control_c, 0, 64, 127
2, 1308240, Note_on_c, 0, 81, 81
2, 1308344, Note_on_c, 0, 81, 0
2, 1308356, Note_on_c, 0, 85, 80
2, 1308412, Note_on_c, 0, 57, 0
2, 1308416, Note_on_c, 0, 45, 0
2, 1308460, Note_on_c, 0, 85, 0
2, 1308464, Note_on_c, 0, 93, 0
2, 1308472, Note_on_c, 0, 81, 83
2, 1308564, Note_on_c, 0, 81, 0
2, 1308604, Note_on_c, 0, 87, 91
2, 1308604, Note_on_c, 0, 93, 108
2, 1308608, Control_c, 0, 64, 72
2, 1308612, Note_on_c, 0, 84, 89
2, 1308620, Control_c, 0, 64, 0
2, 1308624, Note_on_c, 0, 54, 83
2, 1308624, Note_on_c, 0, 42, 78
2, 1308648, Control_c, 0, 64, 24
2, 1308660, Control_c, 0, 64, 88
2, 1308668, Control_c, 0, 64, 127
2, 1308688, Note_on_c, 0, 84, 0
2, 1308716, Note_on_c, 0, 54, 0
2, 1308716, Note_on_c, 0, 87, 0
2, 1308720, Note_on_c, 0, 81, 83
2, 1308736, Note_on_c, 0, 42, 0
2, 1308780, Note_on_c, 0, 81, 0
2, 1308824, Note_on_c, 0, 93, 0
2, 1308848, Note_on_c, 0, 92, 100
2, 1308872, Note_on_c, 0, 52, 80
2, 1308872, Note_on_c, 0, 40, 83
2, 1308872, Control_c, 0, 64, 56
2, 1308880, Control_c, 0, 64, 24
2, 1308892, Control_c, 0, 64, 56
2, 1308900, Control_c, 0, 64, 88
2, 1308912, Control_c, 0, 64, 127
2, 1308948, Note_on_c, 0, 92, 0
2, 1308964, Note_on_c, 0, 85, 78
2, 1309004, Note_on_c, 0, 40, 0
2, 1309020, Note_on_c, 0, 52, 0
2, 1309028, Note_on_c, 0, 85, 0
2, 1309044, Note_on_c, 0, 93, 90
2, 1309076, Note_on_c, 0, 92, 96
2, 1309100, Note_on_c, 0, 93, 0
2, 1309100, Note_on_c, 0, 40, 83
2, 1309196, Note_on_c, 0, 92, 0
2, 1309200, Note_on_c, 0, 85, 85
2, 1309224, Note_on_c, 0, 40, 0
2, 1309272, Note_on_c, 0, 85, 0
2, 1309320, Note_on_c, 0, 90, 93
2, 1309320, Note_on_c, 0, 42, 84
2, 1309344, Control_c, 0, 64, 40
2, 1309352, Control_c, 0, 64, 0
2, 1309384, Control_c, 0, 64, 40
2, 1309392, Control_c, 0, 64, 104
2, 1309404, Control_c, 0, 64, 127
2, 1309436, Note_on_c, 0, 85, 78
2, 1309440, Note_on_c, 0, 81, 69
2, 1309488, Note_on_c, 0, 42, 0
2, 1309496, Note_on_c, 0, 90, 0
2, 1309508, Note_on_c, 0, 81, 0
2, 1309524, Note_on_c, 0, 85, 0
2, 1309544, Note_on_c, 0, 88, 103
2, 1309544, Note_on_c, 0, 56, 88
2, 1309556, Control_c, 0, 64, 72
2, 1309564, Control_c, 0, 64, 0
2, 1309596, Control_c, 0, 64, 24
2, 1309604, Control_c, 0, 64, 88
2, 1309616, Control_c, 0, 64, 127
2, 1309656, Note_on_c, 0, 88, 0
2, 1309660, Note_on_c, 0, 80, 67
2, 1309668, Note_on_c, 0, 85, 68
2, 1309728, Note_on_c, 0, 80, 0
2, 1309740, Note_on_c, 0, 85, 0
2, 1309744, Note_on_c, 0, 90, 88
2, 1309800, Note_on_c, 0, 88, 100
2, 1309808, Note_on_c, 0, 44, 82
2, 1309828, Control_c, 0, 64, 72
2, 1309832, Note_on_c, 0, 90, 0
2, 1309836, Control_c, 0, 64, 0
2, 1309852, Note_on_c, 0, 56, 0
2, 1309868, Control_c, 0, 64, 40
2, 1309876, Control_c, 0, 64, 88
2, 1309888, Control_c, 0, 64, 127
2, 1309940, Note_on_c, 0, 80, 63
2, 1309944, Note_on_c, 0, 88, 0
2, 1310012, Note_on_c, 0, 80, 0
2, 1310036, Note_on_c, 0, 87, 97
2, 1310048, Control_c, 0, 64, 88
2, 1310052, Note_on_c, 0, 56, 83
2, 1310060, Control_c, 0, 64, 0
2, 1310100, Control_c, 0, 64, 56
2, 1310108, Control_c, 0, 64, 127
2, 1310136, Note_on_c, 0, 56, 0
2, 1310164, Note_on_c, 0, 78, 78
2, 1310168, Note_on_c, 0, 87, 0
2, 1310168, Note_on_c, 0, 44, 0
2, 1310172, Note_on_c, 0, 84, 79
2, 1310196, Note_on_c, 0, 84, 0
2, 1310240, Note_on_c, 0, 78, 0
2, 1310292, Note_on_c, 0, 85, 99
2, 1310312, Note_on_c, 0, 49, 89
2, 1310340, Control_c, 0, 64, 24
2, 1310352, Control_c, 0, 64, 0
2, 1310412, Note_on_c, 0, 80, 80
2, 1310412, Control_c, 0, 64, 56
2, 1310424, Control_c, 0, 64, 127
2, 1310504, Note_on_c, 0, 80, 0
2, 1310548, Note_on_c, 0, 76, 80
2, 1310568, Note_on_c, 0, 49, 0
2, 1310640, Note_on_c, 0, 76, 0
2, 1310664, Note_on_c, 0, 80, 82
2, 1310768, Note_on_c, 0, 80, 0
2, 1310784, Note_on_c, 0, 76, 82
2, 1310788, Note_on_c, 0, 49, 82
2, 1310788, Note_on_c, 0, 37, 85
2, 1310832, Note_on_c, 0, 37, 0
2, 1310836, Note_on_c, 0, 49, 0
2, 1310888, Note_on_c, 0, 80, 86
2, 1310892, Note_on_c, 0, 76, 0
2, 1310900, Note_on_c, 0, 85, 0
2, 1310924, Note_on_c, 0, 80, 0
2, 1310988, Note_on_c, 0, 90, 48
2, 1311008, Note_on_c, 0, 90, 0
2, 1311044, Note_on_c, 0, 91, 107
2, 1311056, Note_on_c, 0, 46, 82
2, 1311056, Note_on_c, 0, 58, 85
2, 1311084, Control_c, 0, 64, 40
2, 1311096, Control_c, 0, 64, 0
2, 1311148, Control_c, 0, 64, 40
2, 1311156, Control_c, 0, 64, 127
2, 1311188, Note_on_c, 0, 79, 93
2, 1311196, Note_on_c, 0, 81, 57
2, 1311220, Note_on_c, 0, 81, 0
2, 1311288, Note_on_c, 0, 79, 0
2, 1311296, Note_on_c, 0, 88, 90
2, 1311304, Note_on_c, 0, 85, 76
2, 1311384, Note_on_c, 0, 85, 0
2, 1311404, Note_on_c, 0, 88, 0
2, 1311412, Note_on_c, 0, 79, 80
2, 1311456, Note_on_c, 0, 58, 0
2, 1311456, Note_on_c, 0, 46, 0
2, 1311500, Note_on_c, 0, 79, 0
2, 1311524, Note_on_c, 0, 88, 88
2, 1311524, Note_on_c, 0, 58, 74
2, 1311524, Note_on_c, 0, 46, 81
2, 1311528, Note_on_c, 0, 85, 71
2, 1311596, Note_on_c, 0, 85, 0
2, 1311612, Note_on_c, 0, 46, 0
2, 1311628, Note_on_c, 0, 88, 0
2, 1311632, Note_on_c, 0, 79, 78
2, 1311656, Note_on_c, 0, 58, 0
2, 1311688, Note_on_c, 0, 91, 0
2, 1311704, Note_on_c, 0, 79, 0
2, 1311732, Control_c, 0, 64, 40
2, 1311736, Note_on_c, 0, 90, 92
2, 1311740, Control_c, 0, 64, 0
2, 1311752, Note_on_c, 0, 59, 80
2, 1311756, Note_on_c, 0, 47, 84
2, 1311780, Control_c, 0, 64, 40
2, 1311788, Note_on_c, 0, 59, 0
2, 1311792, Control_c, 0, 64, 104
2, 1311800, Control_c, 0, 64, 127
2, 1311804, Note_on_c, 0, 47, 0
2, 1311828, Note_on_c, 0, 90, 0
2, 1311852, Note_on_c, 0, 78, 68
2, 1311896, Note_on_c, 0, 86, 43
2, 1311912, Note_on_c, 0, 78, 0
2, 1311916, Note_on_c, 0, 86, 0
2, 1311944, Note_on_c, 0, 91, 97
2, 1311980, Note_on_c, 0, 90, 90
2, 1311992, Note_on_c, 0, 35, 87
2, 1311992, Note_on_c, 0, 47, 88
2, 1312012, Note_on_c, 0, 91, 0
2, 1312012, Control_c, 0, 64, 56
2, 1312020, Control_c, 0, 64, 0
2, 1312048, Note_on_c, 0, 35, 0
2, 1312052, Control_c, 0, 64, 72
2, 1312064, Control_c, 0, 64, 127
2, 1312080, Note_on_c, 0, 47, 0
2, 1312104, Note_on_c, 0, 90, 0
2, 1312108, Note_on_c, 0, 86, 74
2, 1312108, Note_on_c, 0, 78, 71
2, 1312128, Note_on_c, 0, 86, 0
2, 1312184, Note_on_c, 0, 78, 0
2, 1312220, Note_on_c, 0, 88, 101
2, 1312224, Control_c, 0, 64, 104
2, 1312232, Control_c, 0, 64, 24
2, 1312244, Control_c, 0, 64, 0
2, 1312248, Note_on_c, 0, 52, 81
2, 1312248, Note_on_c, 0, 40, 86
2, 1312284, Control_c, 0, 64, 56
2, 1312296, Control_c, 0, 64, 127
2, 1312320, Note_on_c, 0, 40, 0
2, 1312324, Note_on_c, 0, 52, 0
2, 1312336, Note_on_c, 0, 85, 79
2, 1312344, Note_on_c, 0, 79, 72
2, 1312360, Note_on_c, 0, 88, 0
2, 1312416, Note_on_c, 0, 79, 0
2, 1312432, Note_on_c, 0, 85, 0
2, 1312444, Control_c, 0, 64, 88
2, 1312456, Control_c, 0, 64, 0
2, 1312460, Note_on_c, 0, 86, 94
2, 1312476, Note_on_c, 0, 54, 82
2, 1312476, Control_c, 0, 64, 24
2, 1312480, Note_on_c, 0, 42, 83
2, 1312484, Control_c, 0, 64, 56
2, 1312496, Control_c, 0, 64, 127
2, 1312512, Note_on_c, 0, 54, 0
2, 1312528, Note_on_c, 0, 42, 0
2, 1312568, Note_on_c, 0, 86, 0
2, 1312584, Note_on_c, 0, 78, 67
2, 1312596, Note_on_c, 0, 83, 71
2, 1312644, Note_on_c, 0, 83, 0
2, 1312644, Note_on_c, 0, 78, 0
2, 1312664, Note_on_c, 0, 88, 88
2, 1312696, Note_on_c, 0, 86, 93
2, 1312704, Note_on_c, 0, 42, 83
2, 1312712, Note_on_c, 0, 30, 86
2, 1312728, Note_on_c, 0, 88, 0
2, 1312748, Note_on_c, 0, 42, 0
2, 1312752, Note_on_c, 0, 30, 0
2, 1312812, Note_on_c, 0, 86, 0
2, 1312812, Note_on_c, 0, 83, 73
2, 1312828, Note_on_c, 0, 78, 31
2, 1312880, Note_on_c, 0, 78, 0
2, 1312880, Note_on_c, 0, 83, 0
2, 1312936, Note_on_c, 0, 85, 102
2, 1312948, Note_on_c, 0, 54, 83
2, 1312948, Control_c, 0, 64, 40
2, 1312952, Note_on_c, 0, 42, 85
2, 1312960, Control_c, 0, 64, 0
2, 1313008, Note_on_c, 0, 54, 0
2, 1313012, Control_c, 0, 64, 72
2, 1313020, Control_c, 0, 64, 127
2, 1313028, Note_on_c, 0, 42, 0
2, 1313060, Note_on_c, 0, 82, 73
2, 1313064, Note_on_c, 0, 76, 70
2, 1313072, Note_on_c, 0, 85, 0
2, 1313104, Note_on_c, 0, 82, 0
2, 1313144, Note_on_c, 0, 76, 0
2, 1313196, Note_on_c, 0, 83, 98
2, 1313220, Note_on_c, 0, 59, 81
2, 1313228, Note_on_c, 0, 47, 85
2, 1313252, Control_c, 0, 64, 72
2, 1313264, Control_c, 0, 64, 0
2, 1313320, Note_on_c, 0, 78, 75
2, 1313352, Control_c, 0, 64, 56
2, 1313364, Control_c, 0, 64, 127
2, 1313424, Note_on_c, 0, 78, 0
2, 1313440, Note_on_c, 0, 74, 76
2, 1313516, Note_on_c, 0, 47, 0
2, 1313548, Note_on_c, 0, 59, 0
2, 1313552, Note_on_c, 0, 78, 73
2, 1313564, Note_on_c, 0, 83, 0
2, 1313576, Note_on_c, 0, 74, 0
2, 1313588, Note_on_c, 0, 78, 0
2, 1313680, Note_on_c, 0, 71, 94
2, 1313688, Note_on_c, 0, 59, 74
2, 1313752, Note_on_c, 0, 59, 0
2, 1313764, Note_on_c, 0, 71, 0
2, 1313796, Note_on_c, 0, 73, 90
2, 1313800, Note_on_c, 0, 61, 73
2, 1313844, Note_on_c, 0, 61, 0
2, 1313868, Note_on_c, 0, 73, 0
2, 1313920, Note_on_c, 0, 74, 103
2, 1313928, Note_on_c, 0, 71, 80
2, 1313928, Note_on_c, 0, 59, 70
2, 1313932, Note_on_c, 0, 68, 68
2, 1313940, Note_on_c, 0, 62, 74
2, 1313940, Note_on_c, 0, 56, 67
2, 1313948, Control_c, 0, 64, 56
2, 1313956, Control_c, 0, 64, 0
2, 1313960, Note_on_c, 0, 71, 0
2, 1314028, Control_c, 0, 64, 104
2, 1314032, Note_on_c, 0, 62, 0
2, 1314036, Control_c, 0, 64, 127
2, 1314084, Note_on_c, 0, 74, 0
2, 1314092, Note_on_c, 0, 68, 0
2, 1314176, Note_on_c, 0, 74, 98
2, 1314188, Note_on_c, 0, 62, 70
2, 1314268, Note_on_c, 0, 74, 0
2, 1314292, Note_on_c, 0, 76, 94
2, 1314304, Note_on_c, 0, 62, 0
2, 1314308, Note_on_c, 0, 64, 78
2, 1314320, Note_on_c, 0, 59, 0
2, 1314324, Note_on_c, 0, 56, 0
2, 1314392, Note_on_c, 0, 76, 0
2, 1314396, Note_on_c, 0, 64, 0
2, 1314408, Note_on_c, 0, 77, 104
2, 1314412, Note_on_c, 0, 65, 84
2, 1314452, Note_on_c, 0, 65, 0
2, 1314484, Note_on_c, 0, 77, 0
2, 1314660, Note_on_c, 0, 76, 101
2, 1314660, Note_on_c, 0, 73, 85
2, 1314668, Note_on_c, 0, 64, 78
2, 1314680, Note_on_c, 0, 57, 70
2, 1314724, Control_c, 0, 64, 88
2, 1314728, Control_c, 0, 64, 0
2, 1314784, Note_on_c, 0, 73, 0
2, 1314800, Control_c, 0, 64, 88
2, 1314812, Control_c, 0, 64, 127
2, 1314920, Note_on_c, 0, 73, 94
2, 1314924, Note_on_c, 0, 61, 72
2, 1314936, Note_on_c, 0, 57, 0
2, 1314968, Note_on_c, 0, 76, 0
2, 1315156, Note_on_c, 0, 73, 0
2, 1315160, Note_on_c, 0, 69, 89
2, 1315164, Note_on_c, 0, 57, 69
2, 1315184, Note_on_c, 0, 64, 0
2, 1315192, Note_on_c, 0, 61, 0
2, 1315204, Note_on_c, 0, 57, 0
2, 1315224, Note_on_c, 0, 69, 0
2, 1315348, Note_on_c, 0, 71, 86
2, 1315376, Note_on_c, 0, 59, 74
2, 1315412, Note_on_c, 0, 69, 99
2, 1315416, Note_on_c, 0, 71, 0
2, 1315428, Note_on_c, 0, 63, 64
2, 1315432, Note_on_c, 0, 59, 0
2, 1315432, Note_on_c, 0, 57, 76
2, 1315432, Note_on_c, 0, 54, 64
2, 1315448, Control_c, 0, 64, 40
2, 1315452, Note_on_c, 0, 63, 0
2, 1315456, Control_c, 0, 64, 0
2, 1315528, Control_c, 0, 64, 56
2, 1315536, Control_c, 0, 64, 127
2, 1315648, Note_on_c, 0, 57, 0
2, 1315672, Note_on_c, 0, 69, 0
2, 1315680, Note_on_c, 0, 68, 85
2, 1315684, Note_on_c, 0, 56, 65
2, 1315756, Note_on_c, 0, 54, 0
2, 1315820, Note_on_c, 0, 56, 0
2, 1315868, Note_on_c, 0, 68, 0
2, 1315928, Note_on_c, 0, 69, 98
2, 1315936, Note_on_c, 0, 63, 71
2, 1315936, Note_on_c, 0, 54, 70
2, 1315940, Note_on_c, 0, 57, 73
2, 1315940, Control_c, 0, 64, 104
2, 1315948, Control_c, 0, 64, 0
2, 1316020, Note_on_c, 0, 63, 0
2, 1316020, Control_c, 0, 64, 104
2, 1316028, Note_on_c, 0, 57, 0
2, 1316032, Note_on_c, 0, 69, 0
2, 1316032, Control_c, 0, 64, 127
2, 1316052, Note_on_c, 0, 54, 0
2, 1316200, Note_on_c, 0, 71, 104
2, 1316204, Note_on_c, 0, 68, 80
2, 1316208, Note_on_c, 0, 62, 87
2, 1316216, Note_on_c, 0, 52, 79
2, 1316220, Note_on_c, 0, 59, 73
2, 1316272, Control_c, 0, 64, 88
2, 1316280, Control_c, 0, 64, 0
2, 1316412, Control_c, 0, 64, 88
2, 1316424, Control_c, 0, 64, 127
2, 1316744, Note_on_c, 0, 62, 0
2, 1316752, Note_on_c, 0, 71, 0
2, 1316764, Note_on_c, 0, 59, 0
2, 1316768, Note_on_c, 0, 52, 0
2, 1316772, Note_on_c, 0, 68, 0
2, 1316980, Note_on_c, 0, 73, 93
2, 1316988, Note_on_c, 0, 67, 85
2, 1316992, Note_on_c, 0, 64, 78
2, 1317000, Note_on_c, 0, 57, 65
2, 1317004, Note_on_c, 0, 45, 72
2, 1317068, Control_c, 0, 64, 104
2, 1317076, Control_c, 0, 64, 40
2, 1317088, Control_c, 0, 64, 0
2, 1317220, Control_c, 0, 64, 104
2, 1317228, Control_c, 0, 64, 127
2, 1317392, Control_c, 0, 64, 104
2, 1317400, Control_c, 0, 64, 40
2, 1317412, Control_c, 0, 64, 0
2, 1317688, Note_on_c, 0, 45, 0
2, 1317688, Note_on_c, 0, 64, 0
2, 1317700, Note_on_c, 0, 57, 0
2, 1317700, Note_on_c, 0, 67, 0
2, 1317724, Note_on_c, 0, 73, 0
2, 1317808, Note_on_c, 0, 66, 78
2, 1317828, Note_on_c, 0, 50, 68
2, 1317928, Note_on_c, 0, 65, 84
2, 1317932, Note_on_c, 0, 66, 0
2, 1318032, Note_on_c, 0, 66, 82
2, 1318036, Note_on_c, 0, 50, 0
2, 1318040, Note_on_c, 0, 65, 0
2, 1318056, Note_on_c, 0, 57, 58
2, 1318056, Note_on_c, 0, 54, 56
2, 1318144, Note_on_c, 0, 66, 0
2, 1318156, Note_on_c, 0, 68, 83
2, 1318232, Note_on_c, 0, 68, 0
2, 1318260, Note_on_c, 0, 69, 80
2, 1318280, Note_on_c, 0, 50, 64
2, 1318312, Note_on_c, 0, 54, 0
2, 1318356, Note_on_c, 0, 50, 0
2, 1318364, Note_on_c, 0, 69, 0
2, 1318372, Note_on_c, 0, 71, 92
2, 1318468, Note_on_c, 0, 57, 0
2, 1318476, Note_on_c, 0, 71, 0
2, 1318492, Note_on_c, 0, 73, 88
2, 1318492, Note_on_c, 0, 65, 76
2, 1318492, Note_on_c, 0, 61, 61
2, 1318492, Note_on_c, 0, 37, 69
2, 1318492, Note_on_c, 0, 49, 59
2, 1318524, Note_on_c, 0, 49, 56
2, 1318536, Control_c, 0, 64, 40
2, 1318548, Control_c, 0, 64, 72
2, 1318560, Control_c, 0, 64, 104
2, 1318572, Control_c, 0, 64, 127
2, 1318588, Note_on_c, 0, 73, 0
2, 1318592, Note_on_c, 0, 80, 89
2, 1318688, Note_on_c, 0, 80, 0
2, 1318700, Note_on_c, 0, 73, 87
2, 1318700, Note_on_c, 0, 53, 60
2, 1318700, Note_on_c, 0, 61, 62
2, 1318716, Note_on_c, 0, 49, 0
2, 1318716, Note_on_c, 0, 49, 0
2, 1318772, Note_on_c, 0, 73, 0
2, 1318804, Note_on_c, 0, 71, 84
2, 1318884, Note_on_c, 0, 71, 0
2, 1318896, Note_on_c, 0, 53, 0
2, 1318912, Note_on_c, 0, 69, 83
2, 1318912, Note_on_c, 0, 49, 66
2, 1318924, Note_on_c, 0, 37, 0
2, 1318944, Note_on_c, 0, 61, 0
2, 1318984, Note_on_c, 0, 49, 0
2, 1319000, Note_on_c, 0, 69, 0
2, 1319012, Note_on_c, 0, 68, 83
2, 1319016, Note_on_c, 0, 61, 0
2, 1319068, Control_c, 0, 64, 104
2, 1319080, Control_c, 0, 64, 72
2, 1319092, Control_c, 0, 64, 40
2, 1319096, Note_on_c, 0, 68, 0
2, 1319100, Control_c, 0, 64, 0
2, 1319112, Note_on_c, 0, 66, 83
2, 1319112, Note_on_c, 0, 50, 69
2, 1319112, Note_on_c, 0, 62, 61
2, 1319112, Note_on_c, 0, 38, 69
2, 1319136, Note_on_c, 0, 65, 0
2, 1319176, Control_c, 0, 64, 40
2, 1319188, Control_c, 0, 64, 88
2, 1319200, Control_c, 0, 64, 127
2, 1319216, Note_on_c, 0, 66, 0
2, 1319216, Note_on_c, 0, 65, 85
2, 1319296, Note_on_c, 0, 62, 0
2, 1319300, Note_on_c, 0, 38, 0
2, 1319300, Note_on_c, 0, 50, 0
2, 1319312, Note_on_c, 0, 65, 0
2, 1319320, Note_on_c, 0, 66, 82
2, 1319320, Note_on_c, 0, 54, 59
2, 1319320, Note_on_c, 0, 57, 58
2, 1319424, Note_on_c, 0, 66, 0
2, 1319424, Note_on_c, 0, 68, 86
2, 1319492, Note_on_c, 0, 54, 0
2, 1319500, Note_on_c, 0, 68, 0
2, 1319520, Note_on_c, 0, 69, 93
2, 1319520, Note_on_c, 0, 50, 60
2, 1319556, Note_on_c, 0, 50, 0
2, 1319596, Note_on_c, 0, 69, 0
2, 1319604, Note_on_c, 0, 57, 0
2, 1319620, Note_on_c, 0, 71, 89
2, 1319664, Control_c, 0, 64, 104
2, 1319676, Control_c, 0, 64, 88
2, 1319688, Control_c, 0, 64, 56
2, 1319696, Control_c, 0, 64, 0
2, 1319700, Note_on_c, 0, 71, 0
2, 1319724, Note_on_c, 0, 73, 90
2, 1319724, Note_on_c, 0, 49, 64
2, 1319724, Note_on_c, 0, 61, 62
2, 1319724, Note_on_c, 0, 65, 60
2, 1319724, Note_on_c, 0, 49, 59
2, 1319724, Note_on_c, 0, 37, 69
2, 1319784, Control_c, 0, 64, 24
2, 1319796, Control_c, 0, 64, 88
2, 1319808, Control_c, 0, 64, 127
2, 1319824, Note_on_c, 0, 73, 0
2, 1319832, Note_on_c, 0, 80, 88
2, 1319896, Note_on_c, 0, 49, 0
2, 1319924, Note_on_c, 0, 80, 0
2, 1319928, Note_on_c, 0, 73, 86
2, 1319928, Note_on_c, 0, 53, 64
2, 1319928, Note_on_c, 0, 61, 67
2, 1320000, Note_on_c, 0, 73, 0
2, 1320032, Note_on_c, 0, 71, 86
2, 1320100, Note_on_c, 0, 53, 0
2, 1320112, Note_on_c, 0, 71, 0
2, 1320136, Note_on_c, 0, 69, 83
2, 1320144, Note_on_c, 0, 49, 65
2, 1320204, Note_on_c, 0, 61, 0
2, 1320204, Note_on_c, 0, 61, 0
2, 1320212, Note_on_c, 0, 49, 0
2, 1320220, Note_on_c, 0, 69, 0
2, 1320224, Note_on_c, 0, 68, 83
2, 1320232, Note_on_c, 0, 37, 0
2, 1320244, Note_on_c, 0, 49, 0
2, 1320308, Note_on_c, 0, 65, 0
2, 1320316, Control_c, 0, 64, 88
2, 1320320, Note_on_c, 0, 68, 0
2, 1320328, Control_c, 0, 64, 72
2, 1320340, Note_on_c, 0, 62, 64
2, 1320340, Control_c, 0, 64, 24
2, 1320344, Note_on_c, 0, 66, 84
2, 1320348, Control_c, 0, 64, 0
2, 1320368, Note_on_c, 0, 50, 65
2, 1320368, Note_on_c, 0, 38, 70
2, 1320448, Control_c, 0, 64, 24
2, 1320456, Note_on_c, 0, 66, 0
2, 1320456, Note_on_c, 0, 65, 84
2, 1320456, Control_c, 0, 64, 56
2, 1320468, Control_c, 0, 64, 88
2, 1320480, Control_c, 0, 64, 127
2, 1320496, Note_on_c, 0, 62, 0
2, 1320536, Note_on_c, 0, 38, 0
2, 1320560, Note_on_c, 0, 50, 0
2, 1320560, Note_on_c, 0, 65, 0
2, 1320560, Note_on_c, 0, 66, 83
2, 1320584, Note_on_c, 0, 54, 51
2, 1320592, Note_on_c, 0, 57, 53
2, 1320660, Note_on_c, 0, 66, 0
2, 1320668, Note_on_c, 0, 68, 83
2, 1320752, Note_on_c, 0, 68, 0
2, 1320768, Note_on_c, 0, 54, 0
2, 1320772, Note_on_c, 0, 69, 85
2, 1320772, Note_on_c, 0, 50, 61
2, 1320804, Note_on_c, 0, 50, 0
2, 1320820, Note_on_c, 0, 57, 0
2, 1320852, Note_on_c, 0, 69, 0
2, 1320876, Note_on_c, 0, 71, 90
2, 1320944, Control_c, 0, 64, 88
2, 1320952, Note_on_c, 0, 71, 0
2, 1320956, Control_c, 0, 64, 40
2, 1320968, Control_c, 0, 64, 0
2, 1320984, Note_on_c, 0, 73, 90
2, 1320984, Note_on_c, 0, 51, 67
2, 1320984, Note_on_c, 0, 69, 80
2, 1320984, Note_on_c, 0, 66, 66
2, 1320984, Note_on_c, 0, 59, 63
2, 1320984, Note_on_c, 0, 39, 72
2, 1321044, Control_c, 0, 64, 56
2, 1321052, Control_c, 0, 64, 127
2, 1321080, Note_on_c, 0, 73, 0
2, 1321092, Note_on_c, 0, 81, 86
2, 1321104, Note_on_c, 0, 51, 0
2, 1321172, Note_on_c, 0, 81, 0
2, 1321200, Note_on_c, 0, 71, 87
2, 1321200, Note_on_c, 0, 59, 62
2, 1321200, Note_on_c, 0, 66, 61
2, 1321276, Note_on_c, 0, 71, 0
2, 1321296, Note_on_c, 0, 66, 0
2, 1321296, Note_on_c, 0, 69, 83
2, 1321372, Note_on_c, 0, 59, 0
2, 1321384, Note_on_c, 0, 69, 0
2, 1321400, Note_on_c, 0, 68, 78
2, 1321400, Note_on_c, 0, 51, 66
2, 1321464, Note_on_c, 0, 66, 0
2, 1321472, Note_on_c, 0, 51, 0
2, 1321476, Note_on_c, 0, 68, 0
2, 1321484, Note_on_c, 0, 39, 0
2, 1321500, Note_on_c, 0, 66, 87
2, 1321516, Note_on_c, 0, 59, 0
2, 1321584, Control_c, 0, 64, 72
2, 1321588, Note_on_c, 0, 69, 0
2, 1321596, Note_on_c, 0, 66, 0
2, 1321596, Control_c, 0, 64, 24
2, 1321608, Control_c, 0, 64, 0
2, 1321612, Note_on_c, 0, 68, 84
2, 1321612, Note_on_c, 0, 52, 68
2, 1321612, Note_on_c, 0, 64, 62
2, 1321612, Note_on_c, 0, 59, 60
2, 1321612, Note_on_c, 0, 40, 73
2, 1321684, Control_c, 0, 64, 24
2, 1321696, Control_c, 0, 64, 88
2, 1321704, Note_on_c, 0, 68, 0
2, 1321704, Control_c, 0, 64, 127
2, 1321716, Note_on_c, 0, 66, 79
2, 1321772, Note_on_c, 0, 40, 0
2, 1321796, Note_on_c, 0, 59, 0
2, 1321804, Note_on_c, 0, 52, 0
2, 1321816, Note_on_c, 0, 64, 0
2, 1321820, Note_on_c, 0, 66, 0
2, 1321832, Note_on_c, 0, 64, 76
2, 1321832, Note_on_c, 0, 62, 56
2, 1321832, Note_on_c, 0, 59, 60
2, 1321916, Note_on_c, 0, 64, 0
2, 1321928, Note_on_c, 0, 66, 76
2, 1322032, Note_on_c, 0, 66, 0
2, 1322036, Note_on_c, 0, 68, 78
2, 1322036, Note_on_c, 0, 52, 63
2, 1322036, Note_on_c, 0, 71, 76
2, 1322036, Note_on_c, 0, 64, 61
2, 1322036, Note_on_c, 0, 62, 60
2, 1322036, Note_on_c, 0, 40, 69
2, 1322108, Note_on_c, 0, 68, 0
2, 1322128, Note_on_c, 0, 71, 0
2, 1322132, Note_on_c, 0, 69, 88
2, 1322180, Note_on_c, 0, 71, 77
2, 1322216, Note_on_c, 0, 73, 80
2, 1322216, Control_c, 0, 64, 104
2, 1322232, Note_on_c, 0, 69, 0
2, 1322236, Control_c, 0, 64, 127
2, 1322240, Note_on_c, 0, 62, 0
2, 1322252, Note_on_c, 0, 71, 89
2, 1322264, Note_on_c, 0, 71, 0
2, 1322268, Note_on_c, 0, 64, 0
2, 1322272, Note_on_c, 0, 40, 0
2, 1322300, Note_on_c, 0, 73, 0
2, 1322324, Control_c, 0, 64, 56
2, 1322328, Note_on_c, 0, 71, 0
2, 1322332, Control_c, 0, 64, 72
2, 1322344, Control_c, 0, 64, 104
2, 1322356, Note_on_c, 0, 62, 0
2, 1322356, Control_c, 0, 64, 127
2, 1322360, Note_on_c, 0, 70, 79
2, 1322400, Note_on_c, 0, 59, 0
2, 1322440, Note_on_c, 0, 70, 0
2, 1322444, Control_c, 0, 64, 104
2, 1322452, Control_c, 0, 64, 72
2, 1322464, Control_c, 0, 64, 40
2, 1322472, Note_on_c, 0, 71, 90
2, 1322472, Note_on_c, 0, 62, 59
2, 1322472, Note_on_c, 0, 56, 63
2, 1322472, Note_on_c, 0, 64, 64
2, 1322472, Note_on_c, 0, 62, 56
2, 1322472, Note_on_c, 0, 52, 73
2, 1322472, Note_on_c, 0, 40, 71
2, 1322472, Note_on_c, 0, 72, 72
2, 1322504, Note_on_c, 0, 40, 0
2, 1322508, Control_c, 0, 64, 56
2, 1322516, Control_c, 0, 64, 88
2, 1322528, Control_c, 0, 64, 104
2, 1322536, Note_on_c, 0, 52, 0
2, 1322540, Control_c, 0, 64, 127
2, 1322548, Note_on_c, 0, 62, 0
2, 1322552, Note_on_c, 0, 56, 0
2, 1322564, Note_on_c, 0, 71, 0
2, 1322584, Note_on_c, 0, 72, 0
2, 1322584, Note_on_c, 0, 72, 91
2, 1322600, Note_on_c, 0, 62, 0
2, 1322616, Note_on_c, 0, 64, 0
2, 1322640, Control_c, 0, 64, 88
2, 1322648, Control_c, 0, 64, 40
2, 1322660, Control_c, 0, 64, 0
2, 1322676, Note_on_c, 0, 72, 0
2, 1322696, Note_on_c, 0, 73, 83
2, 1322696, Note_on_c, 0, 61, 58
2, 1322696, Note_on_c, 0, 64, 66
2, 1322696, Note_on_c, 0, 57, 73
2, 1322704, Note_on_c, 0, 52, 0
2, 1322712, Control_c, 0, 64, 40
2, 1322724, Control_c, 0, 64, 72
2, 1322736, Control_c, 0, 64, 104
2, 1322744, Note_on_c, 0, 57, 0
2, 1322744, Control_c, 0, 64, 127
2, 1322752, Note_on_c, 0, 61, 0
2, 1322760, Note_on_c, 0, 64, 0
2, 1322788, Note_on_c, 0, 73, 0
2, 1322812, Note_on_c, 0, 69, 81
2, 1322876, Control_c, 0, 64, 104
2, 1322888, Control_c, 0, 64, 56
2, 1322892, Note_on_c, 0, 69, 0
2, 1322900, Control_c, 0, 64, 0
2, 1322944, Note_on_c, 0, 66, 83
2, 1322944, Note_on_c, 0, 50, 70
2, 1322944, Note_on_c, 0, 62, 73
2, 1322944, Note_on_c, 0, 38, 73
2, 1323016, Control_c, 0, 64, 56
2, 1323028, Control_c, 0, 64, 88
2, 1323040, Control_c, 0, 64, 104
2, 1323048, Note_on_c, 0, 66, 0
2, 1323052, Control_c, 0, 64, 127
2, 1323060, Note_on_c, 0, 65, 85
2, 1323140, Note_on_c, 0, 50, 0
2, 1323152, Note_on_c, 0, 65, 0
2, 1323156, Note_on_c, 0, 66, 80
2, 1323168, Note_on_c, 0, 54, 57
2, 1323184, Note_on_c, 0, 57, 53
2, 1323244, Note_on_c, 0, 66, 0
2, 1323268, Note_on_c, 0, 68, 79
2, 1323332, Note_on_c, 0, 68, 0
2, 1323344, Note_on_c, 0, 62, 0
2, 1323352, Note_on_c, 0, 54, 0
2, 1323360, Note_on_c, 0, 69, 83
2, 1323360, Note_on_c, 0, 50, 64
2, 1323416, Note_on_c, 0, 50, 0
2, 1323440, Note_on_c, 0, 69, 0
2, 1323460, Note_on_c, 0, 57, 0
2, 1323472, Note_on_c, 0, 71, 88
2, 1323564, Note_on_c, 0, 71, 0
2, 1323572, Note_on_c, 0, 38, 0
2, 1323584, Note_on_c, 0, 73, 88
2, 1323584, Note_on_c, 0, 49, 74
2, 1323584, Note_on_c, 0, 65, 78
2, 1323584, Note_on_c, 0, 61, 58
2, 1323584, Note_on_c, 0, 37, 68
2, 1323592, Control_c, 0, 64, 88
2, 1323604, Control_c, 0, 64, 40
2, 1323612, Control_c, 0, 64, 0
2, 1323688, Note_on_c, 0, 73, 0
2, 1323696, Note_on_c, 0, 80, 86
2, 1323700, Control_c, 0, 64, 88
2, 1323712, Control_c, 0, 64, 127
2, 1323792, Note_on_c, 0, 80, 0
2, 1323804, Note_on_c, 0, 49, 0
2, 1323804, Note_on_c, 0, 73, 83
2, 1323804, Note_on_c, 0, 53, 65
2, 1323804, Note_on_c, 0, 61, 60
2, 1323880, Note_on_c, 0, 73, 0
2, 1323908, Note_on_c, 0, 71, 84
2, 1323984, Note_on_c, 0, 71, 0
2, 1324020, Note_on_c, 0, 69, 78
2, 1324020, Note_on_c, 0, 49, 63
2, 1324032, Note_on_c, 0, 53, 0
2, 1324096, Note_on_c, 0, 69, 0
2, 1324104, Note_on_c, 0, 49, 0
2, 1324108, Note_on_c, 0, 37, 0
2, 1324112, Note_on_c, 0, 61, 0
2, 1324112, Note_on_c, 0, 61, 0
2, 1324116, Note_on_c, 0, 68, 78
2, 1324212, Note_on_c, 0, 68, 0
2, 1324224, Note_on_c, 0, 65, 0
2, 1324240, Note_on_c, 0, 66, 81
2, 1324240, Note_on_c, 0, 50, 81
2, 1324240, Note_on_c, 0, 38, 71
2, 1324240, Note_on_c, 0, 62, 64
2, 1324256, Control_c, 0, 64, 104
2, 1324264, Control_c, 0, 64, 56
2, 1324276, Control_c, 0, 64, 0
2, 1324336, Note_on_c, 0, 66, 0
2, 1324348, Note_on_c, 0, 65, 85
2, 1324360, Control_c, 0, 64, 56
2, 1324372, Control_c, 0, 64, 104
2, 1324384, Control_c, 0, 64, 127
2, 1324444, Note_on_c, 0, 65, 0
2, 1324444, Note_on_c, 0, 50, 0
2, 1324448, Note_on_c, 0, 66, 83
2, 1324448, Note_on_c, 0, 57, 59
2, 1324448, Note_on_c, 0, 54, 63
2, 1324472, Note_on_c, 0, 62, 0
2, 1324516, Note_on_c, 0, 38, 0
2, 1324556, Note_on_c, 0, 68, 83
2, 1324560, Note_on_c, 0, 66, 0
2, 1324612, Note_on_c, 0, 54, 0
2, 1324636, Note_on_c, 0, 68, 0
2, 1324660, Note_on_c, 0, 69, 87
2, 1324660, Note_on_c, 0, 50, 62
2, 1324704, Note_on_c, 0, 57, 0
2, 1324716, Note_on_c, 0, 50, 0
2, 1324744, Note_on_c, 0, 69, 0
2, 1324768, Note_on_c, 0, 71, 89
2, 1324840, Note_on_c, 0, 71, 0
2, 1324860, Control_c, 0, 64, 72
2, 1324872, Control_c, 0, 64, 24
2, 1324876, Note_on_c, 0, 73, 87
2, 1324876, Note_on_c, 0, 49, 67
2, 1324876, Note_on_c, 0, 65, 78
2, 1324876, Note_on_c, 0, 61, 65
2, 1324880, Note_on_c, 0, 37, 70
2, 1324884, Control_c, 0, 64, 0
2, 1324948, Control_c, 0, 64, 40
2, 1324960, Control_c, 0, 64, 88
2, 1324972, Note_on_c, 0, 73, 0
2, 1324972, Control_c, 0, 64, 127
2, 1324980, Note_on_c, 0, 80, 88
2, 1325076, Note_on_c, 0, 49, 0
2, 1325088, Note_on_c, 0, 73, 83
2, 1325088, Note_on_c, 0, 53, 61
2, 1325088, Note_on_c, 0, 61, 61
2, 1325100, Note_on_c, 0, 80, 0
2, 1325164, Note_on_c, 0, 73, 0
2, 1325184, Note_on_c, 0, 71, 88
2, 1325264, Note_on_c, 0, 71, 0
2, 1325292, Note_on_c, 0, 53, 0
2, 1325292, Note_on_c, 0, 69, 83
2, 1325292, Note_on_c, 0, 49, 63
2, 1325360, Note_on_c, 0, 37, 0
2, 1325364, Note_on_c, 0, 61, 0
2, 1325364, Note_on_c, 0, 61, 0
2, 1325376, Note_on_c, 0, 69, 0
2, 1325376, Note_on_c, 0, 49, 0
2, 1325388, Note_on_c, 0, 68, 82
2, 1325460, Note_on_c, 0, 65, 0
2, 1325476, Note_on_c, 0, 68, 0
2, 1325480, Control_c, 0, 64, 104
2, 1325492, Control_c, 0, 64, 40
2, 1325500, Control_c, 0, 64, 0
2, 1325512, Note_on_c, 0, 66, 81
2, 1325512, Note_on_c, 0, 50, 72
2, 1325512, Note_on_c, 0, 38, 70
2, 1325512, Note_on_c, 0, 62, 58
2, 1325588, Control_c, 0, 64, 72
2, 1325600, Control_c, 0, 64, 127
2, 1325612, Note_on_c, 0, 66, 0
2, 1325628, Note_on_c, 0, 65, 84
2, 1325700, Note_on_c, 0, 50, 0
2, 1325724, Note_on_c, 0, 62, 0
2, 1325724, Note_on_c, 0, 65, 0
2, 1325728, Note_on_c, 0, 66, 88
2, 1325728, Note_on_c, 0, 54, 61
2, 1325728, Note_on_c, 0, 57, 58
2, 1325764, Note_on_c, 0, 38, 0
2, 1325836, Note_on_c, 0, 66, 0
2, 1325836, Note_on_c, 0, 68, 84
2, 1325900, Note_on_c, 0, 54, 0
2, 1325912, Note_on_c, 0, 68, 0
2, 1325944, Note_on_c, 0, 69, 85
2, 1325944, Note_on_c, 0, 50, 69
2, 1325968, Note_on_c, 0, 57, 0
2, 1326008, Note_on_c, 0, 50, 0
2, 1326028, Note_on_c, 0, 69, 0
2, 1326052, Note_on_c, 0, 71, 89
2, 1326120, Control_c, 0, 64, 56
2, 1326128, Note_on_c, 0, 71, 0
2, 1326128, Control_c, 0, 64, 0
2, 1326156, Note_on_c, 0, 73, 87
2, 1326156, Note_on_c, 0, 51, 72
2, 1326156, Note_on_c, 0, 69, 83
2, 1326156, Note_on_c, 0, 59, 67
2, 1326156, Note_on_c, 0, 66, 68
2, 1326156, Note_on_c, 0, 39, 71
2, 1326196, Control_c, 0, 64, 72
2, 1326208, Control_c, 0, 64, 127
2, 1326248, Note_on_c, 0, 73, 0
2, 1326268, Note_on_c, 0, 81, 88
2, 1326296, Note_on_c, 0, 51, 0
2, 1326340, Note_on_c, 0, 81, 0
2, 1326368, Note_on_c, 0, 71, 86
2, 1326368, Note_on_c, 0, 59, 64
2, 1326368, Note_on_c, 0, 66, 61
2, 1326448, Note_on_c, 0, 71, 0
2, 1326464, Note_on_c, 0, 69, 85
2, 1326468, Note_on_c, 0, 66, 0
2, 1326528, Note_on_c, 0, 59, 0
2, 1326552, Note_on_c, 0, 69, 0
2, 1326564, Note_on_c, 0, 39, 0
2, 1326568, Note_on_c, 0, 68, 80
2, 1326568, Note_on_c, 0, 51, 66
2, 1326588, Note_on_c, 0, 59, 0
2, 1326592, Note_on_c, 0, 66, 0
2, 1326632, Note_on_c, 0, 51, 0
2, 1326648, Note_on_c, 0, 68, 0
2, 1326668, Note_on_c, 0, 66, 83
2, 1326724, Note_on_c, 0, 69, 0
2, 1326768, Note_on_c, 0, 66, 0
2, 1326768, Control_c, 0, 64, 104
2, 1326780, Control_c, 0, 64, 56
2, 1326788, Note_on_c, 0, 68, 82
2, 1326788, Note_on_c, 0, 52, 63
2, 1326788, Note_on_c, 0, 64, 69
2, 1326788, Note_on_c, 0, 40, 72
2, 1326788, Note_on_c, 0, 59, 58
2, 1326792, Control_c, 0, 64, 0
2, 1326868, Control_c, 0, 64, 24
2, 1326872, Note_on_c, 0, 68, 0
2, 1326880, Control_c, 0, 64, 72
2, 1326888, Control_c, 0, 64, 104
2, 1326892, Note_on_c, 0, 66, 80
2, 1326900, Control_c, 0, 64, 127
2, 1326976, Note_on_c, 0, 59, 0
2, 1326988, Note_on_c, 0, 66, 0
2, 1327004, Note_on_c, 0, 64, 83
2, 1327004, Note_on_c, 0, 59, 62
2, 1327004, Note_on_c, 0, 62, 58
2, 1327020, Note_on_c, 0, 52, 0
2, 1327020, Note_on_c, 0, 64, 0
2, 1327028, Note_on_c, 0, 40, 0
2, 1327096, Note_on_c, 0, 64, 0
2, 1327104, Note_on_c, 0, 66, 75
2, 1327212, Note_on_c, 0, 66, 0
2, 1327212, Note_on_c, 0, 68, 80
2, 1327212, Note_on_c, 0, 52, 76
2, 1327212, Note_on_c, 0, 64, 63
2, 1327212, Note_on_c, 0, 62, 58
2, 1327212, Note_on_c, 0, 40, 71
2, 1327212, Note_on_c, 0, 71, 72
2, 1327216, Control_c, 0, 64, 56
2, 1327228, Control_c, 0, 64, 0
2, 1327272, Control_c, 0, 64, 24
2, 1327280, Control_c, 0, 64, 56
2, 1327284, Note_on_c, 0, 68, 0
2, 1327288, Control_c, 0, 64, 88
2, 1327304, Control_c, 0, 64, 127
2, 1327308, Note_on_c, 0, 69, 88
2, 1327388, Note_on_c, 0, 69, 0
2, 1327420, Note_on_c, 0, 71, 88
2, 1327452, Note_on_c, 0, 64, 0
2, 1327468, Note_on_c, 0, 62, 0
2, 1327484, Note_on_c, 0, 71, 0
2, 1327484, Note_on_c, 0, 71, 0
2, 1327496, Note_on_c, 0, 62, 0
2, 1327508, Note_on_c, 0, 40, 0
2, 1327524, Note_on_c, 0, 70, 78
2, 1327536, Note_on_c, 0, 59, 0
2, 1327600, Note_on_c, 0, 70, 0
2, 1327628, Control_c, 0, 64, 104
2, 1327636, Control_c, 0, 64, 56
2, 1327644, Note_on_c, 0, 71, 84
2, 1327644, Note_on_c, 0, 56, 61
2, 1327644, Note_on_c, 0, 62, 64
2, 1327644, Note_on_c, 0, 64, 66
2, 1327644, Note_on_c, 0, 52, 68
2, 1327644, Note_on_c, 0, 40, 71
2, 1327644, Note_on_c, 0, 72, 73
2, 1327648, Control_c, 0, 64, 40
2, 1327680, Control_c, 0, 64, 72
2, 1327684, Note_on_c, 0, 40, 0
2, 1327692, Control_c, 0, 64, 88
2, 1327704, Note_on_c, 0, 52, 0
2, 1327704, Control_c, 0, 64, 104
2, 1327716, Control_c, 0, 64, 127
2, 1327720, Note_on_c, 0, 71, 0
2, 1327732, Note_on_c, 0, 72, 0
2, 1327752, Note_on_c, 0, 72, 88
2, 1327760, Note_on_c, 0, 56, 0
2, 1327768, Note_on_c, 0, 64, 0
2, 1327804, Note_on_c, 0, 62, 0
2, 1327820, Control_c, 0, 64, 88
2, 1327832, Control_c, 0, 64, 40
2, 1327844, Note_on_c, 0, 72, 0
2, 1327844, Control_c, 0, 64, 0
2, 1327872, Note_on_c, 0, 73, 82
2, 1327872, Note_on_c, 0, 61, 58
2, 1327872, Note_on_c, 0, 45, 73
2, 1327872, Note_on_c, 0, 57, 68
2, 1327872, Note_on_c, 0, 64, 67
2, 1327888, Note_on_c, 0, 52, 0
2, 1327888, Control_c, 0, 64, 24
2, 1327896, Note_on_c, 0, 64, 0
2, 1327900, Control_c, 0, 64, 56
2, 1327908, Control_c, 0, 64, 104
2, 1327912, Note_on_c, 0, 61, 0
2, 1327920, Note_on_c, 0, 57, 0
2, 1327920, Note_on_c, 0, 45, 0
2, 1327920, Control_c, 0, 64, 127
2, 1327952, Note_on_c, 0, 73, 0
2, 1327988, Note_on_c, 0, 69, 79
2, 1328020, Control_c, 0, 64, 56
2, 1328028, Control_c, 0, 64, 0
2, 1328084, Note_on_c, 0, 69, 0
2, 1328120, Note_on_c, 0, 76, 98
2, 1328120, Note_on_c, 0, 45, 84
2, 1328120, Note_on_c, 0, 64, 65
2, 1328120, Note_on_c, 0, 69, 68
2, 1328120, Note_on_c, 0, 57, 64
2, 1328120, Note_on_c, 0, 73, 69
2, 1328136, Control_c, 0, 64, 88
2, 1328148, Control_c, 0, 64, 127
2, 1328172, Note_on_c, 0, 45, 0
2, 1328240, Note_on_c, 0, 73, 82
2, 1328312, Note_on_c, 0, 73, 0
2, 1328340, Note_on_c, 0, 55, 71
2, 1328340, Note_on_c, 0, 64, 70
2, 1328344, Note_on_c, 0, 69, 77
2, 1328344, Note_on_c, 0, 61, 56
2, 1328428, Note_on_c, 0, 57, 0
2, 1328432, Note_on_c, 0, 55, 0
2, 1328432, Note_on_c, 0, 64, 0
2, 1328436, Note_on_c, 0, 73, 83
2, 1328444, Note_on_c, 0, 61, 0
2, 1328464, Note_on_c, 0, 76, 0
2, 1328504, Note_on_c, 0, 69, 0
2, 1328520, Note_on_c, 0, 73, 0
2, 1328528, Note_on_c, 0, 64, 0
2, 1328552, Note_on_c, 0, 73, 0
2, 1328556, Note_on_c, 0, 76, 87
2, 1328620, Note_on_c, 0, 69, 0
2, 1328628, Note_on_c, 0, 76, 0
2, 1328652, Note_on_c, 0, 81, 84
2, 1328724, Control_c, 0, 64, 88
2, 1328732, Note_on_c, 0, 81, 0
2, 1328736, Control_c, 0, 64, 0
2, 1328772, Note_on_c, 0, 75, 92
2, 1328772, Note_on_c, 0, 45, 86
2, 1328772, Note_on_c, 0, 33, 66
2, 1328772, Note_on_c, 0, 69, 74
2, 1328772, Note_on_c, 0, 63, 61
2, 1328772, Note_on_c, 0, 72, 68
2, 1328788, Control_c, 0, 64, 88
2, 1328800, Note_on_c, 0, 45, 0
2, 1328800, Control_c, 0, 64, 127
2, 1328884, Note_on_c, 0, 72, 91
2, 1328972, Note_on_c, 0, 72, 0
2, 1328992, Note_on_c, 0, 69, 80
2, 1328992, Note_on_c, 0, 60, 72
2, 1328992, Note_on_c, 0, 54, 63
2, 1328992, Note_on_c, 0, 63, 78
2, 1329068, Note_on_c, 0, 75, 0
2, 1329092, Note_on_c, 0, 72, 88
2, 1329104, Note_on_c, 0, 60, 0
2, 1329108, Note_on_c, 0, 33, 0
2, 1329120, Note_on_c, 0, 63, 0
2, 1329124, Note_on_c, 0, 54, 0
2, 1329164, Note_on_c, 0, 72, 0
2, 1329164, Note_on_c, 0, 72, 0
2, 1329168, Note_on_c, 0, 69, 0
2, 1329168, Note_on_c, 0, 69, 0
2, 1329200, Note_on_c, 0, 75, 80
2, 1329272, Note_on_c, 0, 75, 0
2, 1329296, Note_on_c, 0, 81, 87
2, 1329300, Note_on_c, 0, 63, 0
2, 1329364, Note_on_c, 0, 81, 0
2, 1329376, Control_c, 0, 64, 40
2, 1329384, Control_c, 0, 64, 0
2, 1329400, Note_on_c, 0, 74, 92
2, 1329400, Note_on_c, 0, 45, 91
2, 1329400, Note_on_c, 0, 57, 61
2, 1329400, Note_on_c, 0, 62, 71
2, 1329400, Note_on_c, 0, 69, 68
2, 1329400, Note_on_c, 0, 71, 69
2, 1329428, Control_c, 0, 64, 56
2, 1329440, Control_c, 0, 64, 127
2, 1329448, Note_on_c, 0, 45, 0
2, 1329480, Note_on_c, 0, 74, 0
2, 1329508, Note_on_c, 0, 71, 78
2, 1329588, Note_on_c, 0, 71, 0
2, 1329608, Note_on_c, 0, 69, 78
2, 1329616, Note_on_c, 0, 62, 77
2, 1329624, Note_on_c, 0, 59, 68
2, 1329632, Note_on_c, 0, 53, 62
2, 1329704, Note_on_c, 0, 71, 81
2, 1329712, Note_on_c, 0, 57, 0
2, 1329728, Note_on_c, 0, 59, 0
2, 1329732, Note_on_c, 0, 53, 0
2, 1329732, Note_on_c, 0, 62, 0
2, 1329732, Note_on_c, 0, 62, 0
2, 1329780, Note_on_c, 0, 71, 0
2, 1329780, Note_on_c, 0, 71, 0
2, 1329816, Note_on_c, 0, 74, 84
2, 1329840, Note_on_c, 0, 69, 0
2, 1329840, Note_on_c, 0, 69, 0
2, 1329888, Note_on_c, 0, 74, 0
2, 1329904, Note_on_c, 0, 81, 84
2, 1329964, Note_on_c, 0, 81, 0
2, 1330004, Control_c, 0, 64, 72
2, 1330016, Control_c, 0, 64, 0
2, 1330032, Note_on_c, 0, 73, 90
2, 1330032, Note_on_c, 0, 45, 88
2, 1330032, Note_on_c, 0, 61, 64
2, 1330032, Note_on_c, 0, 69, 68
2, 1330036, Note_on_c, 0, 33, 67
2, 1330052, Note_on_c, 0, 45, 0
2, 1330068, Control_c, 0, 64, 56
2, 1330080, Control_c, 0, 64, 127
2, 1330104, Note_on_c, 0, 73, 0
2, 1330128, Note_on_c, 0, 71, 83
2, 1330216, Note_on_c, 0, 71, 0
2, 1330236, Note_on_c, 0, 69, 81
2, 1330240, Note_on_c, 0, 61, 68
2, 1330244, Note_on_c, 0, 52, 71
2, 1330252, Note_on_c, 0, 57, 70
2, 1330308, Note_on_c, 0, 57, 0
2, 1330312, Note_on_c, 0, 33, 0
2, 1330328, Note_on_c, 0, 52, 0
2, 1330332, Note_on_c, 0, 69, 0
2, 1330332, Note_on_c, 0, 61, 0
2, 1330340, Note_on_c, 0, 71, 80
2, 1330356, Note_on_c, 0, 61, 0
2, 1330408, Note_on_c, 0, 71, 0
2, 1330412, Note_on_c, 0, 69, 0
2, 1330440, Note_on_c, 0, 73, 80
2, 1330520, Note_on_c, 0, 73, 0
2, 1330536, Note_on_c, 0, 74, 88
2, 1330632, Note_on_c, 0, 74, 0
2, 1330632, Control_c, 0, 64, 56
2, 1330644, Control_c, 0, 64, 0
2, 1330648, Note_on_c, 0, 76, 98
2, 1330656, Note_on_c, 0, 73, 66
2, 1330672, Note_on_c, 0, 43, 75
2, 1330672, Note_on_c, 0, 69, 66
2, 1330672, Note_on_c, 0, 55, 66
2, 1330676, Note_on_c, 0, 43, 65
2, 1330696, Control_c, 0, 64, 40
2, 1330700, Note_on_c, 0, 43, 0
2, 1330708, Control_c, 0, 64, 127
2, 1330760, Note_on_c, 0, 73, 74
2, 1330844, Note_on_c, 0, 73, 0
2, 1330868, Note_on_c, 0, 69, 76
2, 1330868, Note_on_c, 0, 57, 63
2, 1330868, Note_on_c, 0, 64, 69
2, 1330868, Note_on_c, 0, 61, 66
2, 1330940, Note_on_c, 0, 76, 0
2, 1330960, Note_on_c, 0, 64, 0
2, 1330972, Note_on_c, 0, 73, 79
2, 1330976, Note_on_c, 0, 61, 0
2, 1330984, Note_on_c, 0, 57, 0
2, 1331028, Note_on_c, 0, 69, 0
2, 1331052, Note_on_c, 0, 73, 0
2, 1331084, Note_on_c, 0, 76, 86
2, 1331104, Note_on_c, 0, 55, 0
2, 1331156, Note_on_c, 0, 76, 0
2, 1331176, Note_on_c, 0, 81, 90
2, 1331208, Note_on_c, 0, 69, 0
2, 1331244, Note_on_c, 0, 43, 0
2, 1331252, Note_on_c, 0, 73, 0
2, 1331252, Note_on_c, 0, 81, 0
2, 1331264, Control_c, 0, 64, 72
2, 1331272, Control_c, 0, 64, 0
2, 1331288, Note_on_c, 0, 75, 96
2, 1331288, Note_on_c, 0, 42, 75
2, 1331288, Note_on_c, 0, 54, 65
2, 1331288, Note_on_c, 0, 69, 65
2, 1331288, Note_on_c, 0, 72, 68
2, 1331328, Control_c, 0, 64, 88
2, 1331340, Control_c, 0, 64, 127
2, 1331344, Note_on_c, 0, 42, 0
2, 1331392, Note_on_c, 0, 69, 0
2, 1331404, Note_on_c, 0, 72, 89
2, 1331472, Note_on_c, 0, 75, 0
2, 1331484, Note_on_c, 0, 72, 0
2, 1331500, Note_on_c, 0, 69, 81
2, 1331500, Note_on_c, 0, 57, 61
2, 1331500, Note_on_c, 0, 63, 58
2, 1331544, Note_on_c, 0, 57, 0
2, 1331560, Note_on_c, 0, 63, 0
2, 1331608, Note_on_c, 0, 72, 83
2, 1331664, Note_on_c, 0, 54, 0
2, 1331668, Note_on_c, 0, 72, 0
2, 1331668, Note_on_c, 0, 72, 0
2, 1331708, Note_on_c, 0, 75, 78
2, 1331784, Note_on_c, 0, 75, 0
2, 1331808, Note_on_c, 0, 81, 84
2, 1331880, Note_on_c, 0, 81, 0
2, 1331892, Note_on_c, 0, 69, 0
2, 1331892, Control_c, 0, 64, 88
2, 1331900, Control_c, 0, 64, 0
2, 1331916, Note_on_c, 0, 74, 94
2, 1331916, Note_on_c, 0, 41, 83
2, 1331916, Note_on_c, 0, 69, 66
2, 1331916, Note_on_c, 0, 53, 66
2, 1331916, Note_on_c, 0, 71, 68
2, 1331944, Control_c, 0, 64, 40
2, 1331956, Control_c, 0, 64, 127
2, 1331968, Note_on_c, 0, 41, 0
2, 1332008, Note_on_c, 0, 74, 0
2, 1332024, Note_on_c, 0, 71, 84
2, 1332112, Note_on_c, 0, 71, 0
2, 1332128, Note_on_c, 0, 69, 83
2, 1332128, Note_on_c, 0, 57, 71
2, 1332128, Note_on_c, 0, 62, 76
2, 1332192, Note_on_c, 0, 62, 0
2, 1332208, Note_on_c, 0, 57, 0
2, 1332232, Note_on_c, 0, 71, 83
2, 1332308, Note_on_c, 0, 71, 0
2, 1332340, Note_on_c, 0, 74, 84
2, 1332384, Note_on_c, 0, 69, 0
2, 1332384, Note_on_c, 0, 53, 0
2, 1332384, Note_on_c, 0, 69, 0
2, 1332412, Note_on_c, 0, 74, 0
2, 1332436, Note_on_c, 0, 81, 81
2, 1332492, Note_on_c, 0, 81, 0
2, 1332520, Note_on_c, 0, 71, 0
2, 1332520, Control_c, 0, 64, 104
2, 1332528, Control_c, 0, 64, 24
2, 1332544, Control_c, 0, 64, 0
2, 1332552, Note_on_c, 0, 73, 91
2, 1332552, Note_on_c, 0, 40, 80
2, 1332552, Note_on_c, 0, 52, 69
2, 1332552, Note_on_c, 0, 69, 68
2, 1332576, Control_c, 0, 64, 24
2, 1332584, Control_c, 0, 64, 88
2, 1332588, Note_on_c, 0, 40, 0
2, 1332596, Control_c, 0, 64, 127
2, 1332636, Note_on_c, 0, 73, 0
2, 1332660, Note_on_c, 0, 69, 85
2, 1332740, Note_on_c, 0, 69, 0
2, 1332764, Note_on_c, 0, 64, 83
2, 1332768, Note_on_c, 0, 61, 68
2, 1332772, Note_on_c, 0, 57, 73
2, 1332868, Note_on_c, 0, 69, 88
2, 1332940, Note_on_c, 0, 52, 0
2, 1332956, Note_on_c, 0, 64, 0
2, 1332964, Note_on_c, 0, 69, 0
2, 1332968, Note_on_c, 0, 73, 82
2, 1332972, Note_on_c, 0, 61, 0
2, 1332972, Note_on_c, 0, 57, 0
2, 1333048, Note_on_c, 0, 69, 0
2, 1333080, Note_on_c, 0, 81, 88
2, 1333096, Note_on_c, 0, 73, 0
2, 1333120, Note_on_c, 0, 71, 79
2, 1333148, Note_on_c, 0, 81, 0
2, 1333156, Note_on_c, 0, 73, 83
2, 1333196, Note_on_c, 0, 51, 63
2, 1333200, Note_on_c, 0, 39, 61
2, 1333204, Note_on_c, 0, 71, 0
2, 1333204, Note_on_c, 0, 71, 91
2, 1333204, Note_on_c, 0, 51, 77
2, 1333204, Control_c, 0, 64, 40
2, 1333216, Control_c, 0, 64, 0
2, 1333240, Note_on_c, 0, 73, 0
2, 1333280, Control_c, 0, 64, 104
2, 1333288, Control_c, 0, 64, 127
2, 1333304, Note_on_c, 0, 51, 0
2, 1333308, Note_on_c, 0, 71, 0
2, 1333316, Note_on_c, 0, 70, 79
2, 1333404, Note_on_c, 0, 70, 0
2, 1333432, Note_on_c, 0, 71, 85
2, 1333432, Note_on_c, 0, 66, 53
2, 1333432, Note_on_c, 0, 59, 66
2, 1333432, Note_on_c, 0, 69, 70
2, 1333476, Note_on_c, 0, 59, 0
2, 1333524, Note_on_c, 0, 39, 0
2, 1333536, Note_on_c, 0, 71, 0
2, 1333540, Note_on_c, 0, 51, 0
2, 1333552, Note_on_c, 0, 81, 87
2, 1333624, Note_on_c, 0, 81, 0
2, 1333648, Note_on_c, 0, 66, 0
2, 1333652, Note_on_c, 0, 60, 68
2, 1333652, Note_on_c, 0, 72, 91
2, 1333652, Note_on_c, 0, 52, 69
2, 1333652, Note_on_c, 0, 40, 67
2, 1333676, Note_on_c, 0, 69, 0
2, 1333692, Note_on_c, 0, 60, 0
2, 1333712, Note_on_c, 0, 52, 0
2, 1333728, Note_on_c, 0, 72, 0
2, 1333764, Note_on_c, 0, 81, 83
2, 1333840, Note_on_c, 0, 81, 0
2, 1333844, Note_on_c, 0, 40, 0
2, 1333844, Control_c, 0, 64, 72
2, 1333856, Control_c, 0, 64, 0
2, 1333876, Note_on_c, 0, 71, 88
2, 1333876, Note_on_c, 0, 51, 83
2, 1333876, Note_on_c, 0, 39, 65
2, 1333876, Note_on_c, 0, 69, 68
2, 1333876, Note_on_c, 0, 66, 66
2, 1333908, Control_c, 0, 64, 40
2, 1333916, Note_on_c, 0, 51, 0
2, 1333920, Control_c, 0, 64, 104
2, 1333932, Control_c, 0, 64, 127
2, 1333976, Note_on_c, 0, 71, 0
2, 1333996, Note_on_c, 0, 81, 93
2, 1334100, Note_on_c, 0, 81, 0
2, 1334108, Note_on_c, 0, 80, 90
2, 1334108, Note_on_c, 0, 69, 69
2, 1334108, Note_on_c, 0, 59, 67
2, 1334108, Note_on_c, 0, 66, 63
2, 1334124, Note_on_c, 0, 69, 0
2, 1334136, Note_on_c, 0, 66, 0
2, 1334180, Note_on_c, 0, 39, 0
2, 1334188, Note_on_c, 0, 80, 0
2, 1334204, Note_on_c, 0, 69, 0
2, 1334216, Note_on_c, 0, 81, 91
2, 1334224, Note_on_c, 0, 59, 0
2, 1334240, Note_on_c, 0, 66, 0
2, 1334308, Note_on_c, 0, 81, 0
2, 1334316, Note_on_c, 0, 80, 87
2, 1334400, Note_on_c, 0, 80, 0
2, 1334416, Note_on_c, 0, 78, 89
2, 1334528, Control_c, 0, 64, 40
2, 1334536, Note_on_c, 0, 78, 0
2, 1334540, Note_on_c, 0, 76, 94
2, 1334540, Note_on_c, 0, 50, 80
2, 1334540, Note_on_c, 0, 38, 66
2, 1334540, Control_c, 0, 64, 0
2, 1334592, Control_c, 0, 64, 72
2, 1334604, Control_c, 0, 64, 127
2, 1334648, Note_on_c, 0, 75, 90
2, 1334652, Note_on_c, 0, 76, 0
2, 1334660, Note_on_c, 0, 50, 0
2, 1334752, Note_on_c, 0, 75, 0
2, 1334756, Note_on_c, 0, 76, 96
2, 1334756, Note_on_c, 0, 56, 62
2, 1334756, Note_on_c, 0, 64, 70
2, 1334756, Note_on_c, 0, 59, 68
2, 1334816, Note_on_c, 0, 64, 0
2, 1334836, Note_on_c, 0, 56, 0
2, 1334860, Note_on_c, 0, 76, 0
2, 1334872, Note_on_c, 0, 83, 93
2, 1334964, Note_on_c, 0, 83, 0
2, 1334984, Note_on_c, 0, 77, 92
2, 1334984, Note_on_c, 0, 49, 73
2, 1334984, Note_on_c, 0, 37, 61
2, 1334984, Note_on_c, 0, 65, 93
2, 1335008, Note_on_c, 0, 38, 0
2, 1335068, Note_on_c, 0, 49, 0
2, 1335072, Note_on_c, 0, 77, 0
2, 1335092, Note_on_c, 0, 83, 92
2, 1335100, Note_on_c, 0, 37, 0
2, 1335164, Note_on_c, 0, 65, 0
2, 1335168, Note_on_c, 0, 83, 0
2, 1335168, Control_c, 0, 64, 72
2, 1335180, Control_c, 0, 64, 0
2, 1335196, Note_on_c, 0, 76, 92
2, 1335196, Note_on_c, 0, 50, 84
2, 1335196, Note_on_c, 0, 64, 76
2, 1335208, Note_on_c, 0, 38, 56
2, 1335232, Control_c, 0, 64, 40
2, 1335244, Control_c, 0, 64, 104
2, 1335252, Control_c, 0, 64, 127
2, 1335316, Note_on_c, 0, 86, 93
2, 1335396, Note_on_c, 0, 59, 0
2, 1335404, Note_on_c, 0, 86, 0
2, 1335428, Note_on_c, 0, 64, 79
2, 1335432, Note_on_c, 0, 85, 92
2, 1335440, Note_on_c, 0, 59, 68
2, 1335444, Note_on_c, 0, 56, 59
2, 1335456, Note_on_c, 0, 64, 0
2, 1335496, Note_on_c, 0, 76, 0
2, 1335500, Note_on_c, 0, 38, 0
2, 1335504, Note_on_c, 0, 50, 0
2, 1335520, Note_on_c, 0, 85, 0
2, 1335544, Note_on_c, 0, 86, 92
2, 1335572, Note_on_c, 0, 64, 0
2, 1335612, Note_on_c, 0, 59, 0
2, 1335640, Note_on_c, 0, 56, 0
2, 1335640, Note_on_c, 0, 86, 0
2, 1335648, Note_on_c, 0, 85, 87
2, 1335724, Note_on_c, 0, 85, 0
2, 1335748, Note_on_c, 0, 83, 90
2, 1335828, Control_c, 0, 64, 56
2, 1335840, Control_c, 0, 64, 0
2, 1335848, Note_on_c, 0, 83, 0
2, 1335864, Note_on_c, 0, 82, 90
2, 1335864, Note_on_c, 0, 49, 78
2, 1335864, Note_on_c, 0, 37, 65
2, 1335896, Control_c, 0, 64, 72
2, 1335904, Note_on_c, 0, 49, 0
2, 1335904, Control_c, 0, 64, 127
2, 1335964, Note_on_c, 0, 82, 0
2, 1335984, Note_on_c, 0, 88, 93
2, 1336060, Note_on_c, 0, 88, 0
2, 1336096, Note_on_c, 0, 86, 93
2, 1336096, Note_on_c, 0, 64, 60
2, 1336096, Note_on_c, 0, 67, 62
2, 1336096, Note_on_c, 0, 58, 57
2, 1336096, Note_on_c, 0, 70, 73
2, 1336096, Note_on_c, 0, 76, 93
2, 1336176, Note_on_c, 0, 67, 0
2, 1336176, Note_on_c, 0, 86, 0
2, 1336184, Note_on_c, 0, 64, 0
2, 1336200, Note_on_c, 0, 88, 89
2, 1336208, Note_on_c, 0, 58, 0
2, 1336284, Note_on_c, 0, 88, 0
2, 1336316, Note_on_c, 0, 86, 88
2, 1336348, Note_on_c, 0, 76, 0
2, 1336360, Note_on_c, 0, 70, 0
2, 1336388, Note_on_c, 0, 37, 0
2, 1336408, Note_on_c, 0, 86, 0
2, 1336416, Note_on_c, 0, 85, 92
2, 1336476, Control_c, 0, 64, 104
2, 1336492, Control_c, 0, 64, 24
2, 1336500, Control_c, 0, 64, 0
2, 1336504, Note_on_c, 0, 85, 0
2, 1336524, Note_on_c, 0, 83, 91
2, 1336524, Note_on_c, 0, 50, 83
2, 1336524, Note_on_c, 0, 38, 72
2, 1336544, Control_c, 0, 64, 40
2, 1336552, Note_on_c, 0, 50, 0
2, 1336556, Control_c, 0, 64, 104
2, 1336564, Control_c, 0, 64, 127
2, 1336616, Note_on_c, 0, 83, 0
2, 1336628, Note_on_c, 0, 86, 93
2, 1336716, Note_on_c, 0, 86, 0
2, 1336732, Note_on_c, 0, 66, 67
2, 1336732, Note_on_c, 0, 85, 91
2, 1336732, Note_on_c, 0, 59, 68
2, 1336732, Note_on_c, 0, 71, 76
2, 1336732, Note_on_c, 0, 74, 83
2, 1336808, Note_on_c, 0, 85, 0
2, 1336836, Note_on_c, 0, 86, 93
2, 1336920, Note_on_c, 0, 86, 0
2, 1336924, Note_on_c, 0, 59, 0
2, 1336932, Note_on_c, 0, 85, 92
2, 1336940, Note_on_c, 0, 71, 0
2, 1336968, Note_on_c, 0, 38, 0
2, 1336976, Note_on_c, 0, 66, 0
2, 1336984, Note_on_c, 0, 74, 0
2, 1337012, Note_on_c, 0, 85, 0
2, 1337032, Note_on_c, 0, 83, 92
2, 1337124, Note_on_c, 0, 83, 0
2, 1337144, Note_on_c, 0, 81, 88
2, 1337144, Note_on_c, 0, 52, 79
2, 1337144, Note_on_c, 0, 40, 68
2, 1337164, Control_c, 0, 64, 56
2, 1337176, Control_c, 0, 64, 0
2, 1337228, Control_c, 0, 64, 40
2, 1337240, Note_on_c, 0, 81, 0
2, 1337240, Control_c, 0, 64, 127
2, 1337248, Note_on_c, 0, 85, 88
2, 1337336, Note_on_c, 0, 85, 0
2, 1337360, Note_on_c, 0, 83, 91
2, 1337360, Note_on_c, 0, 64, 68
2, 1337360, Note_on_c, 0, 61, 67
2, 1337360, Note_on_c, 0, 73, 82
2, 1337360, Note_on_c, 0, 69, 68
2, 1337448, Note_on_c, 0, 83, 0
2, 1337464, Note_on_c, 0, 85, 86
2, 1337488, Note_on_c, 0, 52, 0
2, 1337548, Note_on_c, 0, 85, 0
2, 1337568, Note_on_c, 0, 83, 91
2, 1337636, Note_on_c, 0, 69, 0
2, 1337652, Note_on_c, 0, 40, 0
2, 1337652, Note_on_c, 0, 83, 0
2, 1337668, Note_on_c, 0, 81, 94
2, 1337688, Note_on_c, 0, 73, 0
2, 1337728, Note_on_c, 0, 81, 0
2, 1337768, Note_on_c, 0, 61, 0
2, 1337776, Note_on_c, 0, 80, 96
2, 1337776, Note_on_c, 0, 52, 70
2, 1337776, Note_on_c, 0, 40, 68
2, 1337792, Control_c, 0, 64, 104
2, 1337796, Note_on_c, 0, 64, 0
2, 1337804, Control_c, 0, 64, 24
2, 1337812, Control_c, 0, 64, 0
2, 1337860, Note_on_c, 0, 80, 0
2, 1337868, Control_c, 0, 64, 88
2, 1337880, Control_c, 0, 64, 127
2, 1337896, Note_on_c, 0, 83, 96
2, 1337980, Note_on_c, 0, 83, 0
2, 1338000, Note_on_c, 0, 81, 95
2, 1338000, Note_on_c, 0, 62, 73
2, 1338000, Note_on_c, 0, 59, 74
2, 1338000, Note_on_c, 0, 64, 63
2, 1338000, Note_on_c, 0, 68, 62
2, 1338000, Note_on_c, 0, 71, 75
2, 1338084, Note_on_c, 0, 81, 0
2, 1338112, Note_on_c, 0, 83, 93
2, 1338152, Note_on_c, 0, 71, 0
2, 1338152, Note_on_c, 0, 68, 0
2, 1338156, Note_on_c, 0, 64, 0
2, 1338196, Note_on_c, 0, 83, 0
2, 1338204, Note_on_c, 0, 40, 0
2, 1338208, Note_on_c, 0, 52, 0
2, 1338212, Note_on_c, 0, 81, 93
2, 1338288, Note_on_c, 0, 59, 0
2, 1338296, Note_on_c, 0, 81, 0
2, 1338304, Note_on_c, 0, 62, 0
2, 1338316, Note_on_c, 0, 80, 90
2, 1338380, Note_on_c, 0, 80, 0
2, 1338432, Control_c, 0, 64, 72
2, 1338440, Note_on_c, 0, 81, 97
2, 1338440, Note_on_c, 0, 51, 83
2, 1338440, Control_c, 0, 64, 0
2, 1338488, Control_c, 0, 64, 24
2, 1338496, Control_c, 0, 64, 104
2, 1338508, Control_c, 0, 64, 127
2, 1338520, Note_on_c, 0, 81, 0
2, 1338540, Note_on_c, 0, 78, 87
2, 1338620, Note_on_c, 0, 78, 0
2, 1338640, Note_on_c, 0, 75, 90
2, 1338640, Note_on_c, 0, 59, 60
2, 1338640, Note_on_c, 0, 66, 49
2, 1338640, Note_on_c, 0, 69, 79
2, 1338640, Note_on_c, 0, 66, 68
2, 1338640, Note_on_c, 0, 59, 69
2, 1338640, Note_on_c, 0, 51, 68
2, 1338640, Note_on_c, 0, 39, 69
2, 1338644, Note_on_c, 0, 51, 0
2, 1338720, Note_on_c, 0, 75, 0
2, 1338724, Note_on_c, 0, 59, 0
2, 1338744, Note_on_c, 0, 71, 89
2, 1338756, Note_on_c, 0, 39, 0
2, 1338760, Note_on_c, 0, 51, 0
2, 1338816, Note_on_c, 0, 59, 0
2, 1338832, Note_on_c, 0, 66, 0
2, 1338844, Note_on_c, 0, 71, 0
2, 1338844, Note_on_c, 0, 66, 0
2, 1338856, Note_on_c, 0, 81, 94
2, 1338856, Note_on_c, 0, 60, 79
2, 1338856, Note_on_c, 0, 52, 78
2, 1338856, Note_on_c, 0, 40, 67
2, 1338868, Control_c, 0, 64, 56
2, 1338880, Control_c, 0, 64, 0
2, 1338888, Control_c, 0, 64, 24
2, 1338900, Control_c, 0, 64, 40
2, 1338912, Control_c, 0, 64, 88
2, 1338920, Note_on_c, 0, 52, 0
2, 1338920, Control_c, 0, 64, 127
2, 1338924, Note_on_c, 0, 60, 0
2, 1338932, Note_on_c, 0, 81, 0
2, 1338952, Note_on_c, 0, 72, 94
2, 1339008, Note_on_c, 0, 40, 0
2, 1339040, Note_on_c, 0, 72, 0
2, 1339052, Control_c, 0, 64, 104
2, 1339060, Control_c, 0, 64, 24
2, 1339072, Control_c, 0, 64, 0
2, 1339076, Note_on_c, 0, 81, 93
2, 1339076, Note_on_c, 0, 51, 78
2, 1339076, Note_on_c, 0, 59, 73
2, 1339076, Note_on_c, 0, 39, 64
2, 1339116, Note_on_c, 0, 51, 0
2, 1339116, Control_c, 0, 64, 56
2, 1339124, Control_c, 0, 64, 127
2, 1339144, Note_on_c, 0, 81, 0
2, 1339176, Note_on_c, 0, 71, 86
2, 1339268, Note_on_c, 0, 71, 0
2, 1339288, Note_on_c, 0, 70, 79
2, 1339292, Note_on_c, 0, 66, 68
2, 1339296, Note_on_c, 0, 69, 79
2, 1339296, Note_on_c, 0, 59, 72
2, 1339300, Control_c, 0, 64, 104
2, 1339312, Control_c, 0, 64, 40
2, 1339320, Control_c, 0, 64, 24
2, 1339332, Control_c, 0, 64, 56
2, 1339336, Note_on_c, 0, 59, 0
2, 1339336, Note_on_c, 0, 59, 0
2, 1339336, Note_on_c, 0, 69, 0
2, 1339336, Note_on_c, 0, 69, 0
2, 1339344, Control_c, 0, 64, 88
2, 1339352, Note_on_c, 0, 39, 0
2, 1339352, Control_c, 0, 64, 127
2, 1339360, Note_on_c, 0, 70, 0
2, 1339396, Note_on_c, 0, 71, 88
2, 1339488, Note_on_c, 0, 66, 0
2, 1339500, Note_on_c, 0, 75, 83
2, 1339572, Note_on_c, 0, 75, 0
2, 1339604, Note_on_c, 0, 78, 87
2, 1339692, Note_on_c, 0, 71, 0
2, 1339708, Note_on_c, 0, 78, 0
2, 1339712, Control_c, 0, 64, 56
2, 1339724, Control_c, 0, 64, 0
2, 1339728, Note_on_c, 0, 83, 95
2, 1339728, Note_on_c, 0, 50, 79
2, 1339788, Control_c, 0, 64, 127
2, 1339820, Note_on_c, 0, 83, 0
2, 1339828, Note_on_c, 0, 50, 0
2, 1339844, Note_on_c, 0, 80, 86
2, 1339932, Note_on_c, 0, 80, 0
2, 1339944, Note_on_c, 0, 76, 93
2, 1339944, Note_on_c, 0, 56, 68
2, 1339944, Note_on_c, 0, 64, 68
2, 1339944, Note_on_c, 0, 68, 70
2, 1339944, Note_on_c, 0, 71, 71
2, 1339944, Note_on_c, 0, 50, 68
2, 1339944, Note_on_c, 0, 38, 71
2, 1339988, Note_on_c, 0, 64, 0
2, 1340012, Note_on_c, 0, 56, 0
2, 1340020, Note_on_c, 0, 76, 0
2, 1340036, Note_on_c, 0, 50, 0
2, 1340044, Note_on_c, 0, 71, 88
2, 1340140, Note_on_c, 0, 38, 0
2, 1340152, Note_on_c, 0, 68, 0
2, 1340164, Note_on_c, 0, 83, 98
2, 1340164, Note_on_c, 0, 49, 76
2, 1340164, Note_on_c, 0, 65, 71
2, 1340164, Note_on_c, 0, 37, 68
2, 1340204, Note_on_c, 0, 71, 0
2, 1340204, Note_on_c, 0, 71, 0
2, 1340224, Note_on_c, 0, 65, 0
2, 1340256, Note_on_c, 0, 83, 0
2, 1340272, Note_on_c, 0, 77, 93
2, 1340300, Note_on_c, 0, 37, 0
2, 1340312, Note_on_c, 0, 49, 0
2, 1340352, Control_c, 0, 64, 104
2, 1340360, Note_on_c, 0, 77, 0
2, 1340364, Control_c, 0, 64, 40
2, 1340372, Note_on_c, 0, 83, 96
2, 1340372, Note_on_c, 0, 50, 83
2, 1340372, Note_on_c, 0, 64, 85
2, 1340372, Note_on_c, 0, 38, 68
2, 1340372, Control_c, 0, 64, 0
2, 1340404, Control_c, 0, 64, 40
2, 1340416, Note_on_c, 0, 64, 0
2, 1340416, Note_on_c, 0, 50, 0
2, 1340416, Control_c, 0, 64, 88
2, 1340428, Control_c, 0, 64, 127
2, 1340472, Note_on_c, 0, 83, 0
2, 1340480, Note_on_c, 0, 76, 94
2, 1340516, Note_on_c, 0, 38, 0
2, 1340572, Note_on_c, 0, 76, 0
2, 1340580, Control_c, 0, 64, 72
2, 1340584, Note_on_c, 0, 85, 98
2, 1340584, Note_on_c, 0, 49, 80
2, 1340584, Note_on_c, 0, 73, 71
2, 1340584, Note_on_c, 0, 37, 68
2, 1340584, Note_on_c, 0, 64, 68
2, 1340584, Note_on_c, 0, 69, 67
2, 1340612, Note_on_c, 0, 69, 0
2, 1340612, Control_c, 0, 64, 127
2, 1340632, Note_on_c, 0, 64, 0
2, 1340680, Note_on_c, 0, 85, 0
2, 1340688, Note_on_c, 0, 76, 93
2, 1340700, Note_on_c, 0, 49, 0
2, 1340724, Note_on_c, 0, 37, 0
2, 1340748, Note_on_c, 0, 73, 0
2, 1340764, Control_c, 0, 64, 72
2, 1340772, Control_c, 0, 64, 0
2, 1340784, Note_on_c, 0, 76, 0
2, 1340804, Note_on_c, 0, 86, 99
2, 1340804, Note_on_c, 0, 47, 71
2, 1340804, Note_on_c, 0, 50, 73
2, 1340804, Note_on_c, 0, 71, 69
2, 1340804, Note_on_c, 0, 64, 68
2, 1340804, Note_on_c, 0, 74, 73
2, 1340804, Note_on_c, 0, 35, 68
2, 1340808, Control_c, 0, 64, 40
2, 1340820, Control_c, 0, 64, 88
2, 1340828, Control_c, 0, 64, 127
2, 1340872, Note_on_c, 0, 47, 0
2, 1340880, Note_on_c, 0, 35, 0
2, 1340888, Note_on_c, 0, 86, 0
2, 1340892, Note_on_c, 0, 64, 0
2, 1340900, Note_on_c, 0, 50, 0
2, 1340904, Note_on_c, 0, 74, 85
2, 1340908, Note_on_c, 0, 71, 0
2, 1340952, Note_on_c, 0, 74, 0
2, 1340960, Control_c, 0, 64, 72
2, 1340972, Control_c, 0, 64, 0
2, 1340976, Note_on_c, 0, 74, 0
2, 1341024, Note_on_c, 0, 46, 79
2, 1341024, Note_on_c, 0, 88, 101
2, 1341024, Note_on_c, 0, 46, 68
2, 1341024, Note_on_c, 0, 34, 73
2, 1341032, Control_c, 0, 64, 40
2, 1341044, Control_c, 0, 64, 127
2, 1341052, Note_on_c, 0, 46, 0
2, 1341060, Note_on_c, 0, 88, 0
2, 1341132, Note_on_c, 0, 73, 87
2, 1341180, Note_on_c, 0, 73, 0
2, 1341232, Note_on_c, 0, 76, 93
2, 1341232, Note_on_c, 0, 61, 65
2, 1341232, Note_on_c, 0, 55, 66
2, 1341232, Note_on_c, 0, 64, 68
2, 1341232, Note_on_c, 0, 73, 73
2, 1341260, Note_on_c, 0, 64, 0
2, 1341276, Note_on_c, 0, 61, 0
2, 1341276, Note_on_c, 0, 55, 0
2, 1341296, Note_on_c, 0, 76, 0
2, 1341328, Note_on_c, 0, 79, 95
2, 1341388, Note_on_c, 0, 79, 0
2, 1341412, Note_on_c, 0, 73, 0
2, 1341440, Note_on_c, 0, 85, 96
2, 1341440, Note_on_c, 0, 46, 72
2, 1341468, Note_on_c, 0, 46, 0
2, 1341468, Note_on_c, 0, 34, 0
2, 1341516, Note_on_c, 0, 85, 0
2, 1341544, Note_on_c, 0, 88, 99
2, 1341572, Note_on_c, 0, 46, 0
2, 1341620, Control_c, 0, 64, 56
2, 1341624, Note_on_c, 0, 88, 0
2, 1341632, Control_c, 0, 64, 0
2, 1341652, Note_on_c, 0, 86, 98
2, 1341652, Note_on_c, 0, 47, 76
2, 1341652, Note_on_c, 0, 35, 80
2, 1341676, Note_on_c, 0, 47, 0
2, 1341684, Control_c, 0, 64, 88
2, 1341688, Note_on_c, 0, 86, 0
2, 1341700, Control_c, 0, 64, 127
2, 1341764, Note_on_c, 0, 71, 91
2, 1341796, Note_on_c, 0, 71, 0
2, 1341864, Note_on_c, 0, 54, 68
2, 1341864, Note_on_c, 0, 74, 94
2, 1341864, Note_on_c, 0, 59, 67
2, 1341864, Note_on_c, 0, 62, 75
2, 1341864, Note_on_c, 0, 71, 81
2, 1341888, Note_on_c, 0, 59, 0
2, 1341900, Note_on_c, 0, 62, 0
2, 1341920, Note_on_c, 0, 54, 0
2, 1341924, Note_on_c, 0, 74, 0
2, 1341960, Note_on_c, 0, 78, 93
2, 1342028, Note_on_c, 0, 35, 0
2, 1342036, Note_on_c, 0, 78, 0
2, 1342052, Note_on_c, 0, 71, 0
2, 1342068, Note_on_c, 0, 83, 94
2, 1342068, Note_on_c, 0, 47, 76
2, 1342140, Note_on_c, 0, 83, 0
2, 1342168, Note_on_c, 0, 86, 94
2, 1342240, Control_c, 0, 64, 40
2, 1342252, Note_on_c, 0, 86, 0
2, 1342252, Control_c, 0, 64, 0
2, 1342272, Note_on_c, 0, 47, 0
2, 1342276, Note_on_c, 0, 85, 97
2, 1342276, Note_on_c, 0, 52, 81
2, 1342276, Note_on_c, 0, 40, 80
2, 1342296, Control_c, 0, 64, 40
2, 1342304, Control_c, 0, 64, 127
2, 1342324, Note_on_c, 0, 85, 0
2, 1342356, Note_on_c, 0, 52, 0
2, 1342376, Note_on_c, 0, 69, 87
2, 1342440, Note_on_c, 0, 69, 0
2, 1342480, Note_on_c, 0, 73, 85
2, 1342480, Note_on_c, 0, 64, 81
2, 1342480, Note_on_c, 0, 69, 74
2, 1342532, Note_on_c, 0, 73, 0
2, 1342584, Note_on_c, 0, 76, 94
2, 1342648, Note_on_c, 0, 69, 0
2, 1342660, Note_on_c, 0, 76, 0
2, 1342692, Note_on_c, 0, 64, 0
2, 1342696, Note_on_c, 0, 81, 94
2, 1342696, Note_on_c, 0, 52, 76
2, 1342744, Note_on_c, 0, 40, 0
2, 1342780, Note_on_c, 0, 81, 0
2, 1342784, Note_on_c, 0, 52, 0
2, 1342788, Note_on_c, 0, 85, 90
2, 1342880, Control_c, 0, 64, 88
2, 1342888, Note_on_c, 0, 85, 0
2, 1342892, Control_c, 0, 64, 0
2, 1342904, Note_on_c, 0, 83, 95
2, 1342904, Note_on_c, 0, 52, 84
2, 1342904, Note_on_c, 0, 40, 78
2, 1342944, Note_on_c, 0, 83, 0
2, 1342944, Control_c, 0, 64, 72
2, 1342956, Control_c, 0, 64, 127
2, 1343024, Note_on_c, 0, 68, 90
2, 1343072, Note_on_c, 0, 68, 0
2, 1343124, Note_on_c, 0, 71, 89
2, 1343124, Note_on_c, 0, 62, 70
2, 1343124, Note_on_c, 0, 64, 68
2, 1343124, Note_on_c, 0, 68, 67
2, 1343124, Note_on_c, 0, 64, 71
2, 1343172, Note_on_c, 0, 52, 0
2, 1343196, Note_on_c, 0, 71, 0
2, 1343224, Note_on_c, 0, 76, 94
2, 1343296, Note_on_c, 0, 68, 0
2, 1343300, Note_on_c, 0, 64, 0
2, 1343300, Note_on_c, 0, 64, 0
2, 1343304, Note_on_c, 0, 76, 0
2, 1343320, Note_on_c, 0, 40, 0
2, 1343332, Note_on_c, 0, 80, 90
2, 1343332, Note_on_c, 0, 52, 76
2, 1343372, Note_on_c, 0, 62, 0
2, 1343380, Note_on_c, 0, 52, 0
2, 1343428, Note_on_c, 0, 80, 0
2, 1343436, Note_on_c, 0, 83, 94
2, 1343484, Note_on_c, 0, 83, 0
2, 1343488, Control_c, 0, 64, 104
2, 1343500, Control_c, 0, 64, 24
2, 1343508, Control_c, 0, 64, 0
2, 1343528, Note_on_c, 0, 45, 83
2, 1343536, Note_on_c, 0, 52, 81
2, 1343564, Note_on_c, 0, 45, 0
2, 1343564, Control_c, 0, 64, 40
2, 1343572, Control_c, 0, 64, 127
2, 1343580, Note_on_c, 0, 81, 99
2, 1343580, Note_on_c, 0, 33, 58
2, 1343580, Note_on_c, 0, 45, 75
2, 1343580, Note_on_c, 0, 64, 78
2, 1343584, Note_on_c, 0, 69, 89
2, 1343588, Note_on_c, 0, 61, 82
2, 1343588, Note_on_c, 0, 73, 73
2, 1343588, Note_on_c, 0, 76, 80
2, 1343600, Note_on_c, 0, 52, 0
2, 1343608, Note_on_c, 0, 76, 0
2, 1343612, Note_on_c, 0, 73, 0
2, 1343612, Note_on_c, 0, 61, 0
2, 1343620, Note_on_c, 0, 69, 0
2, 1343644, Note_on_c, 0, 81, 0
2, 1343820, Note_on_c, 0, 69, 93
2, 1343824, Note_on_c, 0, 61, 66
2, 1343828, Note_on_c, 0, 57, 69
2, 1343852, Note_on_c, 0, 57, 0
2, 1343852, Note_on_c, 0, 61, 0
2, 1343896, Note_on_c, 0, 69, 0
2, 1343912, Note_on_c, 0, 33, 0
2, 1343916, Note_on_c, 0, 45, 0
2, 1343916, Note_on_c, 0, 64, 0
2, 1343924, Note_on_c, 0, 61, 82
2, 1343924, Note_on_c, 0, 64, 83
2, 1343924, Note_on_c, 0, 57, 78
2, 1343928, Note_on_c, 0, 71, 94
2, 1343956, Note_on_c, 0, 57, 0
2, 1343968, Note_on_c, 0, 61, 0
2, 1343976, Note_on_c, 0, 64, 0
2, 1343988, Note_on_c, 0, 71, 0
2, 1344028, Note_on_c, 0, 57, 78
2, 1344028, Note_on_c, 0, 61, 74
2, 1344028, Note_on_c, 0, 73, 93
2, 1344032, Note_on_c, 0, 64, 67
2, 1344064, Note_on_c, 0, 61, 0
2, 1344064, Note_on_c, 0, 57, 0
2, 1344076, Note_on_c, 0, 64, 0
2, 1344092, Note_on_c, 0, 73, 0
2, 1344120, Note_on_c, 0, 74, 96
2, 1344128, Note_on_c, 0, 71, 75
2, 1344132, Note_on_c, 0, 57, 76
2, 1344132, Note_on_c, 0, 61, 79
2, 1344164, Note_on_c, 0, 71, 0
2, 1344168, Note_on_c, 0, 61, 0
2, 1344176, Note_on_c, 0, 57, 0
2, 1344184, Note_on_c, 0, 74, 0
2, 1344228, Note_on_c, 0, 73, 87
2, 1344232, Note_on_c, 0, 76, 95
2, 1344232, Note_on_c, 0, 57, 74
2, 1344240, Note_on_c, 0, 61, 80
2, 1344276, Note_on_c, 0, 61, 0
2, 1344280, Note_on_c, 0, 57, 0
2, 1344292, Note_on_c, 0, 76, 0
2, 1344296, Note_on_c, 0, 73, 0
2, 1344336, Note_on_c, 0, 57, 69
2, 1344340, Note_on_c, 0, 61, 76
2, 1344344, Control_c, 0, 64, 104
2, 1344356, Control_c, 0, 64, 72
2, 1344368, Control_c, 0, 64, 40
2, 1344376, Control_c, 0, 64, 0
2, 1344380, Note_on_c, 0, 61, 0
2, 1344388, Note_on_c, 0, 57, 0
2, 1344436, Note_on_c, 0, 57, 74
2, 1344440, Note_on_c, 0, 61, 78
2, 1344444, Note_on_c, 0, 69, 94
2, 1344480, Note_on_c, 0, 61, 0
2, 1344488, Note_on_c, 0, 57, 0
2, 1344508, Note_on_c, 0, 69, 0
2, 1344552, Note_on_c, 0, 61, 82
2, 1344552, Note_on_c, 0, 57, 76
2, 1344588, Note_on_c, 0, 61, 0
2, 1344592, Note_on_c, 0, 57, 0
2, 1344688, Note_on_c, 0, 81, 99
2, 1344688, Note_on_c, 0, 61, 76
2, 1344688, Note_on_c, 0, 76, 84
2, 1344692, Note_on_c, 0, 69, 92
2, 1344692, Note_on_c, 0, 73, 86
2, 1344696, Note_on_c, 0, 57, 73
2, 1344700, Control_c, 0, 64, 24
2, 1344712, Control_c, 0, 64, 104
2, 1344724, Note_on_c, 0, 81, 0
2, 1344724, Control_c, 0, 64, 127
2, 1344728, Note_on_c, 0, 73, 0
2, 1344728, Note_on_c, 0, 61, 0
2, 1344736, Note_on_c, 0, 69, 0
2, 1344736, Note_on_c, 0, 76, 0
2, 1344740, Note_on_c, 0, 57, 0
2, 1344952, Note_on_c, 0, 69, 106
2, 1344952, Note_on_c, 0, 57, 96
2, 1344952, Note_on_c, 0, 81, 93
2, 1344952, Note_on_c, 0, 78, 86
2, 1344952, Note_on_c, 0, 73, 86
2, 1344956, Note_on_c, 0, 66, 83
2, 1344956, Note_on_c, 0, 61, 80
2, 1344956, Note_on_c, 0, 42, 76
2, 1344964, Note_on_c, 0, 54, 74
2, 1344964, Note_on_c, 0, 49, 78
2, 1344984, Control_c, 0, 64, 104
2, 1344996, Control_c, 0, 64, 127
2, 1345000, Note_on_c, 0, 73, 0
2, 1345000, Note_on_c, 0, 78, 0
2, 1345000, Note_on_c, 0, 81, 0
2, 1345004, Note_on_c, 0, 49, 0
2, 1345008, Note_on_c, 0, 54, 0
2, 1345008, Note_on_c, 0, 42, 0
2, 1345012, Note_on_c, 0, 61, 0
2, 1345024, Note_on_c, 0, 57, 0
2, 1345028, Note_on_c, 0, 66, 0
2, 1345040, Note_on_c, 0, 69, 0
2, 1345180, Note_on_c, 0, 66, 93
2, 1345184, Note_on_c, 0, 54, 72
2, 1345188, Note_on_c, 0, 57, 68
2, 1345212, Note_on_c, 0, 57, 0
2, 1345220, Note_on_c, 0, 54, 0
2, 1345244, Note_on_c, 0, 66, 0
2, 1345276, Note_on_c, 0, 54, 73
2, 1345284, Note_on_c, 0, 68, 94
2, 1345284, Note_on_c, 0, 61, 77
2, 1345284, Note_on_c, 0, 57, 73
2, 1345316, Note_on_c, 0, 57, 0
2, 1345316, Note_on_c, 0, 54, 0
2, 1345324, Note_on_c, 0, 61, 0
2, 1345336, Note_on_c, 0, 68, 0
2, 1345368, Note_on_c, 0, 54, 76
2, 1345380, Note_on_c, 0, 69, 94
2, 1345380, Note_on_c, 0, 57, 80
2, 1345408, Note_on_c, 0, 57, 0
2, 1345420, Note_on_c, 0, 54, 0
2, 1345440, Note_on_c, 0, 69, 0
2, 1345472, Note_on_c, 0, 54, 79
2, 1345472, Note_on_c, 0, 71, 96
2, 1345480, Note_on_c, 0, 57, 86
2, 1345516, Note_on_c, 0, 57, 0
2, 1345520, Note_on_c, 0, 54, 0
2, 1345532, Note_on_c, 0, 71, 0
2, 1345584, Note_on_c, 0, 54, 79
2, 1345584, Note_on_c, 0, 73, 98
2, 1345588, Note_on_c, 0, 57, 81
2, 1345592, Note_on_c, 0, 69, 78
2, 1345616, Note_on_c, 0, 57, 0
2, 1345628, Note_on_c, 0, 54, 0
2, 1345640, Note_on_c, 0, 69, 0
2, 1345664, Note_on_c, 0, 73, 0
2, 1345684, Note_on_c, 0, 54, 79
2, 1345688, Control_c, 0, 64, 88
2, 1345692, Note_on_c, 0, 57, 86
2, 1345696, Control_c, 0, 64, 24
2, 1345712, Control_c, 0, 64, 0
2, 1345728, Note_on_c, 0, 54, 0
2, 1345732, Note_on_c, 0, 57, 0
2, 1345780, Note_on_c, 0, 54, 79
2, 1345784, Note_on_c, 0, 57, 79
2, 1345792, Note_on_c, 0, 69, 95
2, 1345832, Note_on_c, 0, 57, 0
2, 1345832, Note_on_c, 0, 54, 0
2, 1345848, Note_on_c, 0, 69, 0
2, 1346000, Note_on_c, 0, 78, 93
2, 1346000, Note_on_c, 0, 73, 83
2, 1346000, Note_on_c, 0, 54, 84
2, 1346000, Note_on_c, 0, 61, 69
2, 1346000, Note_on_c, 0, 69, 82
2, 1346000, Note_on_c, 0, 66, 79
2, 1346000, Control_c, 0, 64, 40
2, 1346016, Control_c, 0, 64, 104
2, 1346020, Note_on_c, 0, 66, 0
2, 1346024, Control_c, 0, 64, 127
2, 1346040, Note_on_c, 0, 73, 0
2, 1346040, Note_on_c, 0, 54, 0
2, 1346040, Note_on_c, 0, 69, 0
2, 1346044, Note_on_c, 0, 61, 0
2, 1346052, Note_on_c, 0, 78, 0
2, 1346220, Control_c, 0, 64, 104
2, 1346228, Note_on_c, 0, 47, 94
2, 1346228, Note_on_c, 0, 35, 84
2, 1346228, Note_on_c, 0, 51, 66
2, 1346228, Note_on_c, 0, 39, 71
2, 1346232, Control_c, 0, 64, 0
2, 1346272, Control_c, 0, 64, 24
2, 1346284, Control_c, 0, 64, 104
2, 1346296, Control_c, 0, 64, 127
2, 1346312, Note_on_c, 0, 47, 0
2, 1346336, Note_on_c, 0, 51, 90
2, 1346336, Note_on_c, 0, 39, 72
2, 1346396, Note_on_c, 0, 35, 0
2, 1346444, Note_on_c, 0, 54, 82
2, 1346444, Note_on_c, 0, 42, 73
2, 1346460, Note_on_c, 0, 51, 0
2, 1346464, Note_on_c, 0, 39, 0
2, 1346496, Note_on_c, 0, 54, 0
2, 1346532, Note_on_c, 0, 42, 0
2, 1346556, Note_on_c, 0, 57, 91
2, 1346556, Note_on_c, 0, 45, 78
2, 1346572, Note_on_c, 0, 45, 0
2, 1346620, Note_on_c, 0, 57, 0
2, 1346656, Note_on_c, 0, 59, 81
2, 1346656, Note_on_c, 0, 47, 76
2, 1346708, Note_on_c, 0, 51, 0
2, 1346708, Note_on_c, 0, 39, 0
2, 1346748, Note_on_c, 0, 59, 0
2, 1346752, Note_on_c, 0, 47, 0
2, 1346756, Note_on_c, 0, 63, 84
2, 1346756, Note_on_c, 0, 51, 77
2, 1346824, Note_on_c, 0, 63, 0
2, 1346828, Note_on_c, 0, 51, 0
2, 1346864, Note_on_c, 0, 59, 93
2, 1346864, Note_on_c, 0, 47, 92
2, 1346864, Note_on_c, 0, 65, 76
2, 1346864, Note_on_c, 0, 50, 76
2, 1346864, Note_on_c, 0, 38, 78
2, 1346880, Control_c, 0, 64, 40
2, 1346892, Control_c, 0, 64, 0
2, 1346948, Note_on_c, 0, 47, 0
2, 1346948, Control_c, 0, 64, 72
2, 1346960, Control_c, 0, 64, 127
2, 1346964, Note_on_c, 0, 59, 0
2, 1346968, Note_on_c, 0, 62, 90
2, 1346968, Note_on_c, 0, 50, 79
2, 1347064, Note_on_c, 0, 50, 0
2, 1347064, Note_on_c, 0, 50, 0
2, 1347068, Note_on_c, 0, 62, 0
2, 1347112, Note_on_c, 0, 65, 77
2, 1347112, Note_on_c, 0, 53, 73
2, 1347192, Note_on_c, 0, 65, 0
2, 1347204, Note_on_c, 0, 53, 0
2, 1347204, Note_on_c, 0, 57, 75
2, 1347204, Note_on_c, 0, 69, 91
2, 1347260, Note_on_c, 0, 69, 0
2, 1347260, Note_on_c, 0, 57, 0
2, 1347316, Note_on_c, 0, 71, 94
2, 1347316, Note_on_c, 0, 59, 76
2, 1347344, Note_on_c, 0, 65, 0
2, 1347344, Note_on_c, 0, 38, 0
2, 1347372, Note_on_c, 0, 71, 0
2, 1347404, Note_on_c, 0, 59, 0
2, 1347404, Note_on_c, 0, 74, 100
2, 1347404, Note_on_c, 0, 62, 81
2, 1347492, Note_on_c, 0, 74, 0
2, 1347512, Note_on_c, 0, 62, 0
2, 1347528, Note_on_c, 0, 77, 105
2, 1347528, Note_on_c, 0, 65, 88
2, 1347528, Note_on_c, 0, 71, 80
2, 1347528, Control_c, 0, 64, 88
2, 1347544, Control_c, 0, 64, 40
2, 1347576, Control_c, 0, 64, 127
2, 1347644, Note_on_c, 0, 74, 73
2, 1347644, Note_on_c, 0, 62, 81
2, 1347708, Note_on_c, 0, 74, 0
2, 1347736, Note_on_c, 0, 62, 0
2, 1347736, Note_on_c, 0, 71, 88
2, 1347736, Note_on_c, 0, 59, 80
2, 1347820, Note_on_c, 0, 71, 0
2, 1347820, Note_on_c, 0, 71, 0
2, 1347836, Note_on_c, 0, 69, 93
2, 1347836, Note_on_c, 0, 57, 72
2, 1347844, Note_on_c, 0, 59, 0
2, 1347872, Note_on_c, 0, 57, 0
2, 1347900, Note_on_c, 0, 65, 0
2, 1347908, Note_on_c, 0, 77, 0
2, 1347932, Note_on_c, 0, 69, 0
2, 1347936, Note_on_c, 0, 65, 93
2, 1347936, Note_on_c, 0, 53, 87
2, 1348008, Note_on_c, 0, 53, 0
2, 1348008, Note_on_c, 0, 65, 0
2, 1348040, Note_on_c, 0, 62, 92
2, 1348040, Note_on_c, 0, 50, 87
2, 1348056, Note_on_c, 0, 50, 0
2, 1348080, Note_on_c, 0, 62, 0
2, 1348172, Control_c, 0, 64, 88
2, 1348176, Note_on_c, 0, 76, 105
2, 1348176, Note_on_c, 0, 64, 91
2, 1348176, Note_on_c, 0, 68, 82
2, 1348176, Note_on_c, 0, 62, 73
2, 1348176, Note_on_c, 0, 56, 73
2, 1348176, Note_on_c, 0, 52, 76
2, 1348176, Note_on_c, 0, 40, 84
2, 1348220, Control_c, 0, 64, 56
2, 1348228, Control_c, 0, 64, 127
2, 1348272, Note_on_c, 0, 74, 96
2, 1348272, Note_on_c, 0, 62, 84
2, 1348352, Note_on_c, 0, 74, 0
2, 1348360, Note_on_c, 0, 62, 0
2, 1348376, Note_on_c, 0, 59, 76
2, 1348376, Note_on_c, 0, 71, 90
2, 1348452, Note_on_c, 0, 71, 0
2, 1348464, Note_on_c, 0, 68, 84
2, 1348464, Note_on_c, 0, 56, 75
2, 1348476, Note_on_c, 0, 59, 0
2, 1348516, Note_on_c, 0, 56, 0
2, 1348544, Note_on_c, 0, 64, 0
2, 1348552, Note_on_c, 0, 68, 0
2, 1348552, Note_on_c, 0, 68, 0
2, 1348556, Note_on_c, 0, 76, 0
2, 1348568, Note_on_c, 0, 64, 86
2, 1348568, Note_on_c, 0, 52, 83
2, 1348632, Note_on_c, 0, 52, 0
2, 1348644, Note_on_c, 0, 64, 0
2, 1348656, Note_on_c, 0, 40, 0
2, 1348656, Note_on_c, 0, 62, 0
2, 1348656, Note_on_c, 0, 52, 0
2, 1348656, Note_on_c, 0, 56, 0
2, 1348676, Note_on_c, 0, 62, 92
2, 1348676, Note_on_c, 0, 50, 77
2, 1348740, Note_on_c, 0, 62, 0
2, 1348748, Note_on_c, 0, 50, 0
2, 1348752, Control_c, 0, 64, 88
2, 1348760, Control_c, 0, 64, 0
2, 1348792, Note_on_c, 0, 45, 73
2, 1348820, Note_on_c, 0, 69, 101
2, 1348820, Note_on_c, 0, 61, 83
2, 1348820, Note_on_c, 0, 57, 76
2, 1348820, Note_on_c, 0, 52, 67
2, 1348820, Note_on_c, 0, 64, 88
2, 1348820, Note_on_c, 0, 73, 97
2, 1348824, Control_c, 0, 64, 40
2, 1348832, Control_c, 0, 64, 127
2, 1348848, Note_on_c, 0, 45, 0
2, 1348868, Note_on_c, 0, 64, 0
2, 1348868, Note_on_c, 0, 61, 0
2, 1348868, Note_on_c, 0, 57, 0
2, 1348868, Note_on_c, 0, 73, 0
2, 1348876, Note_on_c, 0, 52, 0
2, 1348896, Note_on_c, 0, 69, 0
2, 1349060, Note_on_c, 0, 69, 93
2, 1349064, Note_on_c, 0, 61, 66
2, 1349068, Note_on_c, 0, 57, 69
2, 1349092, Note_on_c, 0, 57, 0
2, 1349092, Note_on_c, 0, 61, 0
2, 1349136, Note_on_c, 0, 69, 0
2, 1349164, Note_on_c, 0, 61, 82
2, 1349164, Note_on_c, 0, 64, 83
2, 1349164, Note_on_c, 0, 57, 78
2, 1349168, Note_on_c, 0, 71, 94
2, 1349196, Note_on_c, 0, 57, 0
2, 1349208, Note_on_c, 0, 61, 0
2, 1349216, Note_on_c, 0, 64, 0
2, 1349228, Note_on_c, 0, 71, 0
2, 1349268, Note_on_c, 0, 57, 78
2, 1349268, Note_on_c, 0, 61, 74
2, 1349268, Note_on_c, 0, 73, 93
2, 1349272, Note_on_c, 0, 64, 67
2, 1349304, Note_on_c, 0, 61, 0
2, 1349304, Note_on_c, 0, 57, 0
2, 1349316, Note_on_c, 0, 64, 0
2, 1349332, Note_on_c, 0, 73, 0
2, 1349360, Note_on_c, 0, 74, 96
2, 1349368, Note_on_c, 0, 71, 75
2, 1349372, Note_on_c, 0, 57, 76
2, 1349372, Note_on_c, 0, 61, 79
2, 1349404, Note_on_c, 0, 71, 0
2, 1349408, Note_on_c, 0, 61, 0
2, 1349416, Note_on_c, 0, 57, 0
2, 1349424, Note_on_c, 0, 74, 0
2, 1349468, Note_on_c, 0, 73, 87
2, 1349472, Note_on_c, 0, 76, 95
2, 1349472, Note_on_c, 0, 57, 74
2, 1349480, Note_on_c, 0, 61, 80
2, 1349516, Note_on_c, 0, 61, 0
2, 1349520, Note_on_c, 0, 57, 0
2, 1349532, Note_on_c, 0, 76, 0
2, 1349536, Note_on_c, 0, 73, 0
2, 1349576, Note_on_c, 0, 57, 69
2, 1349580, Note_on_c, 0, 61, 76
2, 1349584, Control_c, 0, 64, 104
2, 1349596, Control_c, 0, 64, 72
2, 1349608, Control_c, 0, 64, 40
2, 1349616, Control_c, 0, 64, 0
2, 1349620, Note_on_c, 0, 61, 0
2, 1349628, Note_on_c, 0, 57, 0
2, 1349676, Note_on_c, 0, 57, 74
2, 1349680, Note_on_c, 0, 61, 78
2, 1349684, Note_on_c, 0, 69, 94
2, 1349720, Note_on_c, 0, 61, 0
2, 1349728, Note_on_c, 0, 57, 0
2, 1349748, Note_on_c, 0, 69, 0
2, 1349792, Note_on_c, 0, 61, 82
2, 1349792, Note_on_c, 0, 57, 76
2, 1349828, Note_on_c, 0, 61, 0
2, 1349832, Note_on_c, 0, 57, 0
2, 1349928, Note_on_c, 0, 81, 99
2, 1349928, Note_on_c, 0, 61, 76
2, 1349928, Note_on_c, 0, 76, 80
2, 1349932, Note_on_c, 0, 69, 92
2, 1349932, Note_on_c, 0, 73, 86
2, 1349936, Note_on_c, 0, 57, 73
2, 1349940, Control_c, 0, 64, 24
2, 1349952, Control_c, 0, 64, 104
2, 1349964, Note_on_c, 0, 81, 0
2, 1349964, Control_c, 0, 64, 127
2, 1349968, Note_on_c, 0, 73, 0
2, 1349968, Note_on_c, 0, 61, 0
2, 1349976, Note_on_c, 0, 69, 0
2, 1349976, Note_on_c, 0, 76, 0
2, 1349980, Note_on_c, 0, 57, 0
2, 1350192, Note_on_c, 0, 69, 106
2, 1350192, Note_on_c, 0, 57, 96
2, 1350192, Note_on_c, 0, 49, 78
2, 1350192, Note_on_c, 0, 54, 74
2, 1350192, Note_on_c, 0, 42, 76
2, 1350192, Note_on_c, 0, 61, 80
2, 1350192, Note_on_c, 0, 66, 83
2, 1350192, Note_on_c, 0, 81, 93
2, 1350192, Note_on_c, 0, 78, 88
2, 1350192, Note_on_c, 0, 73, 88
2, 1350224, Control_c, 0, 64, 104
2, 1350232, Note_on_c, 0, 49, 0
2, 1350236, Note_on_c, 0, 54, 0
2, 1350236, Control_c, 0, 64, 127
2, 1350240, Note_on_c, 0, 78, 0
2, 1350240, Note_on_c, 0, 81, 0
2, 1350240, Note_on_c, 0, 73, 0
2, 1350244, Note_on_c, 0, 42, 0
2, 1350248, Note_on_c, 0, 61, 0
2, 1350264, Note_on_c, 0, 66, 0
2, 1350264, Note_on_c, 0, 57, 0
2, 1350280, Note_on_c, 0, 69, 0
2, 1350420, Note_on_c, 0, 66, 93
2, 1350424, Note_on_c, 0, 54, 72
2, 1350428, Note_on_c, 0, 57, 68
2, 1350452, Note_on_c, 0, 57, 0
2, 1350460, Note_on_c, 0, 54, 0
2, 1350484, Note_on_c, 0, 66, 0
2, 1350516, Note_on_c, 0, 54, 73
2, 1350524, Note_on_c, 0, 68, 94
2, 1350524, Note_on_c, 0, 61, 77
2, 1350524, Note_on_c, 0, 57, 73
2, 1350556, Note_on_c, 0, 57, 0
2, 1350556, Note_on_c, 0, 54, 0
2, 1350564, Note_on_c, 0, 61, 0
2, 1350576, Note_on_c, 0, 68, 0
2, 1350608, Note_on_c, 0, 54, 76
2, 1350620, Note_on_c, 0, 69, 94
2, 1350620, Note_on_c, 0, 57, 80
2, 1350648, Note_on_c, 0, 57, 0
2, 1350660, Note_on_c, 0, 54, 0
2, 1350680, Note_on_c, 0, 69, 0
2, 1350712, Note_on_c, 0, 54, 79
2, 1350712, Note_on_c, 0, 71, 96
2, 1350720, Note_on_c, 0, 57, 86
2, 1350756, Note_on_c, 0, 57, 0
2, 1350760, Note_on_c, 0, 54, 0
2, 1350772, Note_on_c, 0, 71, 0
2, 1350824, Note_on_c, 0, 54, 79
2, 1350824, Note_on_c, 0, 73, 98
2, 1350828, Note_on_c, 0, 57, 81
2, 1350832, Note_on_c, 0, 69, 78
2, 1350856, Note_on_c, 0, 57, 0
2, 1350868, Note_on_c, 0, 54, 0
2, 1350880, Note_on_c, 0, 69, 0
2, 1350904, Note_on_c, 0, 73, 0
2, 1350924, Note_on_c, 0, 54, 79
2, 1350928, Control_c, 0, 64, 88
2, 1350932, Note_on_c, 0, 57, 86
2, 1350936, Control_c, 0, 64, 24
2, 1350952, Control_c, 0, 64, 0
2, 1350968, Note_on_c, 0, 54, 0
2, 1350972, Note_on_c, 0, 57, 0
2, 1351020, Note_on_c, 0, 54, 79
2, 1351024, Note_on_c, 0, 57, 79
2, 1351032, Note_on_c, 0, 69, 95
2, 1351072, Note_on_c, 0, 57, 0
2, 1351072, Note_on_c, 0, 54, 0
2, 1351088, Note_on_c, 0, 69, 0
2, 1351240, Note_on_c, 0, 78, 98
2, 1351240, Note_on_c, 0, 73, 85
2, 1351240, Note_on_c, 0, 54, 84
2, 1351240, Note_on_c, 0, 61, 69
2, 1351240, Note_on_c, 0, 69, 82
2, 1351240, Note_on_c, 0, 66, 79
2, 1351240, Control_c, 0, 64, 40
2, 1351256, Control_c, 0, 64, 104
2, 1351260, Note_on_c, 0, 66, 0
2, 1351264, Control_c, 0, 64, 127
2, 1351280, Note_on_c, 0, 73, 0
2, 1351280, Note_on_c, 0, 54, 0
2, 1351280, Note_on_c, 0, 69, 0
2, 1351284, Note_on_c, 0, 61, 0
2, 1351292, Note_on_c, 0, 78, 0
2, 1351460, Control_c, 0, 64, 104
2, 1351468, Note_on_c, 0, 47, 94
2, 1351468, Note_on_c, 0, 35, 84
2, 1351468, Note_on_c, 0, 51, 66
2, 1351468, Note_on_c, 0, 39, 71
2, 1351472, Control_c, 0, 64, 0
2, 1351512, Control_c, 0, 64, 24
2, 1351524, Control_c, 0, 64, 104
2, 1351536, Control_c, 0, 64, 127
2, 1351552, Note_on_c, 0, 47, 0
2, 1351576, Note_on_c, 0, 51, 90
2, 1351576, Note_on_c, 0, 39, 72
2, 1351632, Note_on_c, 0, 35, 0
2, 1351680, Note_on_c, 0, 54, 82
2, 1351680, Note_on_c, 0, 42, 73
2, 1351696, Note_on_c, 0, 51, 0
2, 1351696, Note_on_c, 0, 51, 0
2, 1351700, Note_on_c, 0, 39, 0
2, 1351700, Note_on_c, 0, 39, 0
2, 1351732, Note_on_c, 0, 54, 0
2, 1351768, Note_on_c, 0, 42, 0
2, 1351792, Note_on_c, 0, 57, 91
2, 1351792, Note_on_c, 0, 45, 78
2, 1351808, Note_on_c, 0, 45, 0
2, 1351856, Note_on_c, 0, 57, 0
2, 1351892, Note_on_c, 0, 59, 81
2, 1351892, Note_on_c, 0, 47, 76
2, 1351984, Note_on_c, 0, 59, 0
2, 1351988, Note_on_c, 0, 47, 0
2, 1351992, Note_on_c, 0, 63, 84
2, 1351992, Note_on_c, 0, 51, 77
2, 1352060, Note_on_c, 0, 63, 0
2, 1352064, Note_on_c, 0, 51, 0
2, 1352100, Note_on_c, 0, 59, 93
2, 1352100, Note_on_c, 0, 47, 92
2, 1352100, Note_on_c, 0, 65, 76
2, 1352100, Note_on_c, 0, 50, 76
2, 1352100, Note_on_c, 0, 38, 78
2, 1352116, Control_c, 0, 64, 40
2, 1352128, Control_c, 0, 64, 0
2, 1352184, Note_on_c, 0, 47, 0
2, 1352184, Control_c, 0, 64, 72
2, 1352196, Control_c, 0, 64, 127
2, 1352200, Note_on_c, 0, 59, 0
2, 1352204, Note_on_c, 0, 62, 90
2, 1352204, Note_on_c, 0, 50, 79
2, 1352300, Note_on_c, 0, 50, 0
2, 1352304, Note_on_c, 0, 62, 0
2, 1352348, Note_on_c, 0, 65, 77
2, 1352348, Note_on_c, 0, 53, 73
2, 1352428, Note_on_c, 0, 65, 0
2, 1352440, Note_on_c, 0, 53, 0
2, 1352440, Note_on_c, 0, 57, 75
2, 1352440, Note_on_c, 0, 69, 91
2, 1352496, Note_on_c, 0, 69, 0
2, 1352496, Note_on_c, 0, 57, 0
2, 1352552, Note_on_c, 0, 71, 94
2, 1352552, Note_on_c, 0, 59, 76
2, 1352580, Note_on_c, 0, 65, 0
2, 1352580, Note_on_c, 0, 50, 0
2, 1352580, Note_on_c, 0, 38, 0
2, 1352608, Note_on_c, 0, 71, 0
2, 1352640, Note_on_c, 0, 59, 0
2, 1352640, Note_on_c, 0, 74, 100
2, 1352640, Note_on_c, 0, 62, 81
2, 1352728, Note_on_c, 0, 74, 0
2, 1352748, Note_on_c, 0, 62, 0
2, 1352764, Note_on_c, 0, 77, 101
2, 1352764, Note_on_c, 0, 65, 88
2, 1352764, Note_on_c, 0, 71, 80
2, 1352764, Control_c, 0, 64, 88
2, 1352780, Control_c, 0, 64, 40
2, 1352812, Control_c, 0, 64, 127
2, 1352880, Note_on_c, 0, 74, 73
2, 1352880, Note_on_c, 0, 62, 81
2, 1352944, Note_on_c, 0, 74, 0
2, 1352972, Note_on_c, 0, 62, 0
2, 1352972, Note_on_c, 0, 71, 88
2, 1352972, Note_on_c, 0, 59, 80
2, 1352980, Note_on_c, 0, 59, 79
2, 1352980, Note_on_c, 0, 65, 79
2, 1352980, Note_on_c, 0, 71, 79
2, 1352980, Note_on_c, 0, 77, 79
2, 1352980, Note_on_c, 0, 71, 78
2, 1353056, Note_on_c, 0, 71, 0
2, 1353056, Note_on_c, 0, 71, 0
2, 1353056, Note_on_c, 0, 71, 0
2, 1353056, Note_on_c, 0, 71, 0
2, 1353072, Note_on_c, 0, 69, 93
2, 1353072, Note_on_c, 0, 57, 72
2, 1353080, Note_on_c, 0, 59, 0
2, 1353080, Note_on_c, 0, 59, 0
2, 1353108, Note_on_c, 0, 57, 0
2, 1353136, Note_on_c, 0, 65, 0
2, 1353136, Note_on_c, 0, 65, 0
2, 1353144, Note_on_c, 0, 77, 0
2, 1353144, Note_on_c, 0, 77, 0
2, 1353168, Note_on_c, 0, 69, 0
2, 1353172, Note_on_c, 0, 65, 93
2, 1353172, Note_on_c, 0, 53, 87
2, 1353244, Note_on_c, 0, 53, 0
2, 1353244, Note_on_c, 0, 65, 0
2, 1353276, Note_on_c, 0, 62, 92
2, 1353276, Note_on_c, 0, 50, 87
2, 1353292, Note_on_c, 0, 50, 0
2, 1353316, Note_on_c, 0, 62, 0
2, 1353408, Control_c, 0, 64, 88
2, 1353412, Note_on_c, 0, 76, 101
2, 1353412, Note_on_c, 0, 64, 92
2, 1353412, Note_on_c, 0, 68, 82
2, 1353412, Note_on_c, 0, 62, 73
2, 1353412, Note_on_c, 0, 56, 73
2, 1353412, Note_on_c, 0, 52, 76
2, 1353412, Note_on_c, 0, 40, 84
2, 1353456, Control_c, 0, 64, 56
2, 1353464, Control_c, 0, 64, 127
2, 1353508, Note_on_c, 0, 71, 96
2, 1353508, Note_on_c, 0, 59, 84
2, 1353588, Note_on_c, 0, 71, 0
2, 1353596, Note_on_c, 0, 59, 0
2, 1353612, Note_on_c, 0, 56, 76
2, 1353612, Note_on_c, 0, 68, 90
2, 1353688, Note_on_c, 0, 68, 0
2, 1353700, Note_on_c, 0, 64, 84
2, 1353700, Note_on_c, 0, 52, 75
2, 1353712, Note_on_c, 0, 56, 0
2, 1353712, Note_on_c, 0, 56, 0
2, 1353752, Note_on_c, 0, 52, 0
2, 1353752, Note_on_c, 0, 52, 0
2, 1353780, Note_on_c, 0, 64, 0
2, 1353780, Note_on_c, 0, 64, 0
2, 1353792, Note_on_c, 0, 76, 0
2, 1353804, Note_on_c, 0, 59, 86
2, 1353804, Note_on_c, 0, 47, 83
2, 1353868, Note_on_c, 0, 47, 0
2, 1353880, Note_on_c, 0, 59, 0
2, 1353892, Note_on_c, 0, 40, 0
2, 1353892, Note_on_c, 0, 62, 0
2, 1353892, Note_on_c, 0, 68, 0
2, 1353912, Note_on_c, 0, 56, 92
2, 1353912, Note_on_c, 0, 44, 77
2, 1353976, Note_on_c, 0, 56, 0
2, 1353984, Note_on_c, 0, 44, 0
2, 1353988, Control_c, 0, 64, 88
2, 1354048, Note_on_c, 0, 60, 95
2, 1354048, Note_on_c, 0, 40, 71
2, 1354048, Note_on_c, 0, 48, 81
2, 1354048, Note_on_c, 0, 72, 81
2, 1354048, Note_on_c, 0, 68, 78
2, 1354084, Control_c, 0, 64, 72
2, 1354096, Control_c, 0, 64, 127
2, 1354124, Note_on_c, 0, 40, 0
2, 1354136, Note_on_c, 0, 48, 0
2, 1354164, Note_on_c, 0, 64, 94
2, 1354176, Note_on_c, 0, 52, 76
2, 1354212, Note_on_c, 0, 60, 0
2, 1354228, Note_on_c, 0, 52, 0
2, 1354276, Note_on_c, 0, 68, 87
2, 1354288, Note_on_c, 0, 64, 0
2, 1354324, Note_on_c, 0, 68, 0
2, 1354324, Note_on_c, 0, 68, 0
2, 1354380, Note_on_c, 0, 72, 103
2, 1354392, Note_on_c, 0, 60, 78
2, 1354440, Note_on_c, 0, 60, 0
2, 1354440, Note_on_c, 0, 72, 0
2, 1354480, Note_on_c, 0, 76, 99
2, 1354488, Note_on_c, 0, 64, 56
2, 1354528, Note_on_c, 0, 72, 0
2, 1354544, Note_on_c, 0, 64, 0
2, 1354564, Note_on_c, 0, 76, 0
2, 1354576, Note_on_c, 0, 80, 95
2, 1354580, Note_on_c, 0, 68, 67
2, 1354660, Note_on_c, 0, 80, 0
2, 1354664, Note_on_c, 0, 68, 0
2, 1354672, Control_c, 0, 64, 88
2, 1354684, Control_c, 0, 64, 24
2, 1354688, Note_on_c, 0, 69, 87
2, 1354688, Note_on_c, 0, 81, 101
2, 1354688, Note_on_c, 0, 53, 76
2, 1354688, Note_on_c, 0, 41, 79
2, 1354696, Control_c, 0, 64, 0
2, 1354764, Note_on_c, 0, 69, 0
2, 1354764, Control_c, 0, 64, 72
2, 1354776, Control_c, 0, 64, 127
2, 1354780, Note_on_c, 0, 81, 0
2, 1354792, Note_on_c, 0, 77, 97
2, 1354796, Note_on_c, 0, 65, 78
2, 1354880, Note_on_c, 0, 77, 0
2, 1354896, Note_on_c, 0, 72, 93
2, 1354900, Note_on_c, 0, 65, 0
2, 1354908, Note_on_c, 0, 60, 81
2, 1354956, Note_on_c, 0, 60, 0
2, 1354980, Note_on_c, 0, 72, 0
2, 1354992, Note_on_c, 0, 69, 93
2, 1355016, Note_on_c, 0, 57, 83
2, 1355040, Note_on_c, 0, 69, 0
2, 1355080, Note_on_c, 0, 57, 0
2, 1355096, Note_on_c, 0, 65, 93
2, 1355132, Note_on_c, 0, 53, 76
2, 1355168, Note_on_c, 0, 53, 0
2, 1355168, Note_on_c, 0, 41, 0
2, 1355176, Note_on_c, 0, 65, 0
2, 1355200, Note_on_c, 0, 53, 0
2, 1355204, Note_on_c, 0, 60, 94
2, 1355212, Note_on_c, 0, 48, 77
2, 1355232, Note_on_c, 0, 48, 0
2, 1355248, Note_on_c, 0, 60, 0
2, 1355324, Control_c, 0, 64, 88
2, 1355328, Note_on_c, 0, 54, 79
2, 1355328, Note_on_c, 0, 62, 104
2, 1355328, Note_on_c, 0, 42, 74
2, 1355328, Note_on_c, 0, 50, 81
2, 1355328, Note_on_c, 0, 74, 79
2, 1355328, Note_on_c, 0, 70, 76
2, 1355336, Control_c, 0, 64, 24
2, 1355352, Control_c, 0, 64, 0
2, 1355428, Note_on_c, 0, 50, 0
2, 1355428, Note_on_c, 0, 42, 0
2, 1355432, Control_c, 0, 64, 72
2, 1355440, Control_c, 0, 64, 127
2, 1355452, Note_on_c, 0, 66, 97
2, 1355456, Note_on_c, 0, 54, 71
2, 1355508, Note_on_c, 0, 54, 0
2, 1355556, Note_on_c, 0, 70, 91
2, 1355564, Note_on_c, 0, 58, 71
2, 1355568, Note_on_c, 0, 66, 0
2, 1355604, Note_on_c, 0, 70, 0
2, 1355636, Note_on_c, 0, 58, 0
2, 1355660, Note_on_c, 0, 74, 98
2, 1355736, Note_on_c, 0, 74, 0
2, 1355772, Note_on_c, 0, 78, 103
2, 1355808, Note_on_c, 0, 74, 0
2, 1355808, Note_on_c, 0, 70, 0
2, 1355812, Note_on_c, 0, 54, 0
2, 1355816, Note_on_c, 0, 62, 0
2, 1355856, Note_on_c, 0, 78, 0
2, 1355876, Note_on_c, 0, 82, 102
2, 1355880, Note_on_c, 0, 70, 76
2, 1355920, Note_on_c, 0, 70, 0
2, 1355956, Note_on_c, 0, 82, 0
2, 1355980, Control_c, 0, 64, 88
2, 1355992, Note_on_c, 0, 83, 109
2, 1355992, Note_on_c, 0, 71, 81
2, 1355992, Note_on_c, 0, 62, 76
2, 1355992, Note_on_c, 0, 55, 78
2, 1355992, Note_on_c, 0, 43, 81
2, 1355992, Control_c, 0, 64, 0
2, 1356068, Note_on_c, 0, 71, 0
2, 1356076, Control_c, 0, 64, 24
2, 1356088, Note_on_c, 0, 83, 0
2, 1356088, Control_c, 0, 64, 104
2, 1356096, Note_on_c, 0, 79, 94
2, 1356100, Control_c, 0, 64, 127
2, 1356112, Note_on_c, 0, 67, 78
2, 1356196, Note_on_c, 0, 79, 0
2, 1356208, Note_on_c, 0, 74, 96
2, 1356224, Note_on_c, 0, 67, 0
2, 1356224, Note_on_c, 0, 62, 83
2, 1356268, Note_on_c, 0, 62, 0
2, 1356300, Note_on_c, 0, 74, 0
2, 1356308, Note_on_c, 0, 71, 94
2, 1356332, Note_on_c, 0, 59, 76
2, 1356356, Note_on_c, 0, 71, 0
2, 1356400, Note_on_c, 0, 59, 0
2, 1356420, Note_on_c, 0, 67, 94
2, 1356444, Note_on_c, 0, 55, 76
2, 1356472, Note_on_c, 0, 62, 0
2, 1356472, Note_on_c, 0, 43, 0
2, 1356472, Note_on_c, 0, 55, 0
2, 1356504, Note_on_c, 0, 67, 0
2, 1356516, Note_on_c, 0, 55, 0
2, 1356532, Note_on_c, 0, 62, 89
2, 1356532, Note_on_c, 0, 50, 79
2, 1356568, Note_on_c, 0, 50, 0
2, 1356568, Note_on_c, 0, 62, 0
2, 1356672, Control_c, 0, 64, 104
2, 1356684, Control_c, 0, 64, 72
2, 1356696, Note_on_c, 0, 76, 108
2, 1356696, Note_on_c, 0, 71, 81
2, 1356696, Note_on_c, 0, 64, 81
2, 1356696, Note_on_c, 0, 56, 78
2, 1356696, Note_on_c, 0, 44, 81
2, 1356696, Control_c, 0, 64, 0
2, 1356776, Control_c, 0, 64, 72
2, 1356788, Control_c, 0, 64, 127
2, 1356796, Note_on_c, 0, 64, 82
2, 1356804, Note_on_c, 0, 52, 79
2, 1356860, Note_on_c, 0, 52, 0
2, 1356876, Note_on_c, 0, 71, 0
2, 1356900, Note_on_c, 0, 71, 83
2, 1356900, Note_on_c, 0, 59, 69
2, 1356924, Note_on_c, 0, 44, 0
2, 1356940, Note_on_c, 0, 59, 0
2, 1356968, Note_on_c, 0, 64, 0
2, 1356968, Note_on_c, 0, 64, 0
2, 1356980, Note_on_c, 0, 71, 0
2, 1356996, Note_on_c, 0, 73, 95
2, 1356996, Note_on_c, 0, 45, 79
2, 1357016, Control_c, 0, 64, 72
2, 1357028, Control_c, 0, 64, 0
2, 1357040, Note_on_c, 0, 56, 0
2, 1357064, Control_c, 0, 64, 24
2, 1357076, Control_c, 0, 64, 72
2, 1357084, Note_on_c, 0, 45, 0
2, 1357088, Note_on_c, 0, 64, 77
2, 1357088, Note_on_c, 0, 57, 76
2, 1357088, Note_on_c, 0, 45, 78
2, 1357088, Note_on_c, 0, 52, 75
2, 1357088, Control_c, 0, 64, 127
2, 1357140, Note_on_c, 0, 52, 0
2, 1357164, Note_on_c, 0, 73, 0
2, 1357164, Note_on_c, 0, 64, 0
2, 1357168, Note_on_c, 0, 69, 88
2, 1357168, Note_on_c, 0, 61, 74
2, 1357204, Note_on_c, 0, 61, 0
2, 1357204, Note_on_c, 0, 76, 0
2, 1357208, Note_on_c, 0, 69, 0
2, 1357288, Note_on_c, 0, 78, 109
2, 1357288, Note_on_c, 0, 46, 87
2, 1357288, Note_on_c, 0, 66, 83
2, 1357288, Note_on_c, 0, 73, 80
2, 1357288, Note_on_c, 0, 58, 80
2, 1357316, Control_c, 0, 64, 56
2, 1357328, Control_c, 0, 64, 0
2, 1357384, Note_on_c, 0, 46, 0
2, 1357384, Control_c, 0, 64, 40
2, 1357396, Note_on_c, 0, 66, 79
2, 1357396, Note_on_c, 0, 54, 73
2, 1357396, Control_c, 0, 64, 104
2, 1357408, Control_c, 0, 64, 127
2, 1357432, Note_on_c, 0, 45, 0
2, 1357432, Note_on_c, 0, 57, 0
2, 1357456, Note_on_c, 0, 54, 0
2, 1357492, Note_on_c, 0, 73, 78
2, 1357504, Note_on_c, 0, 66, 0
2, 1357520, Note_on_c, 0, 61, 59
2, 1357568, Note_on_c, 0, 61, 0
2, 1357576, Note_on_c, 0, 73, 0
2, 1357604, Note_on_c, 0, 74, 94
2, 1357620, Note_on_c, 0, 47, 80
2, 1357632, Note_on_c, 0, 58, 0
2, 1357632, Note_on_c, 0, 73, 0
2, 1357640, Control_c, 0, 64, 56
2, 1357652, Control_c, 0, 64, 0
2, 1357684, Control_c, 0, 64, 40
2, 1357688, Note_on_c, 0, 47, 0
2, 1357692, Note_on_c, 0, 66, 76
2, 1357692, Note_on_c, 0, 54, 73
2, 1357692, Note_on_c, 0, 47, 83
2, 1357692, Note_on_c, 0, 59, 78
2, 1357696, Control_c, 0, 64, 104
2, 1357704, Control_c, 0, 64, 127
2, 1357724, Note_on_c, 0, 66, 0
2, 1357760, Note_on_c, 0, 54, 0
2, 1357776, Note_on_c, 0, 78, 0
2, 1357792, Note_on_c, 0, 66, 0
2, 1357792, Note_on_c, 0, 71, 78
2, 1357796, Note_on_c, 0, 74, 0
2, 1357796, Note_on_c, 0, 62, 68
2, 1357820, Note_on_c, 0, 62, 0
2, 1357840, Note_on_c, 0, 71, 0
2, 1357916, Note_on_c, 0, 78, 109
2, 1357916, Note_on_c, 0, 46, 86
2, 1357916, Note_on_c, 0, 73, 78
2, 1357916, Note_on_c, 0, 66, 80
2, 1357916, Note_on_c, 0, 58, 78
2, 1357948, Control_c, 0, 64, 88
2, 1357960, Control_c, 0, 64, 0
2, 1358004, Note_on_c, 0, 46, 0
2, 1358012, Note_on_c, 0, 66, 74
2, 1358016, Control_c, 0, 64, 72
2, 1358028, Control_c, 0, 64, 127
2, 1358032, Note_on_c, 0, 54, 75
2, 1358036, Note_on_c, 0, 47, 0
2, 1358036, Note_on_c, 0, 59, 0
2, 1358100, Note_on_c, 0, 54, 0
2, 1358100, Note_on_c, 0, 73, 75
2, 1358124, Note_on_c, 0, 66, 0
2, 1358140, Note_on_c, 0, 61, 57
2, 1358196, Note_on_c, 0, 61, 0
2, 1358196, Note_on_c, 0, 73, 0
2, 1358236, Note_on_c, 0, 74, 94
2, 1358236, Note_on_c, 0, 47, 83
2, 1358260, Note_on_c, 0, 66, 0
2, 1358260, Note_on_c, 0, 58, 0
2, 1358260, Note_on_c, 0, 73, 0
2, 1358272, Control_c, 0, 64, 56
2, 1358280, Control_c, 0, 64, 0
2, 1358308, Note_on_c, 0, 47, 0
2, 1358316, Control_c, 0, 64, 40
2, 1358328, Control_c, 0, 64, 104
2, 1358340, Control_c, 0, 64, 127
2, 1358344, Note_on_c, 0, 66, 70
2, 1358344, Note_on_c, 0, 54, 72
2, 1358344, Note_on_c, 0, 59, 80
2, 1358344, Note_on_c, 0, 47, 83
2, 1358408, Note_on_c, 0, 74, 0
2, 1358416, Note_on_c, 0, 54, 0
2, 1358436, Note_on_c, 0, 78, 0
2, 1358440, Note_on_c, 0, 71, 78
2, 1358448, Note_on_c, 0, 66, 0
2, 1358456, Note_on_c, 0, 62, 59
2, 1358460, Note_on_c, 0, 71, 0
2, 1358488, Note_on_c, 0, 62, 0
2, 1358540, Note_on_c, 0, 81, 113
2, 1358540, Note_on_c, 0, 49, 90
2, 1358540, Note_on_c, 0, 69, 86
2, 1358540, Note_on_c, 0, 76, 83
2, 1358540, Note_on_c, 0, 61, 83
2, 1358548, Control_c, 0, 64, 24
2, 1358560, Control_c, 0, 64, 0
2, 1358604, Control_c, 0, 64, 56
2, 1358612, Note_on_c, 0, 49, 0
2, 1358616, Control_c, 0, 64, 127
2, 1358644, Note_on_c, 0, 69, 88
2, 1358644, Note_on_c, 0, 57, 78
2, 1358688, Note_on_c, 0, 47, 0
2, 1358688, Note_on_c, 0, 59, 0
2, 1358720, Note_on_c, 0, 57, 0
2, 1358748, Note_on_c, 0, 76, 85
2, 1358748, Note_on_c, 0, 64, 75
2, 1358808, Note_on_c, 0, 64, 0
2, 1358820, Note_on_c, 0, 69, 0
2, 1358832, Note_on_c, 0, 76, 0
2, 1358864, Note_on_c, 0, 78, 109
2, 1358864, Note_on_c, 0, 50, 83
2, 1358880, Control_c, 0, 64, 72
2, 1358884, Note_on_c, 0, 69, 0
2, 1358884, Note_on_c, 0, 61, 0
2, 1358884, Note_on_c, 0, 76, 0
2, 1358892, Control_c, 0, 64, 0
2, 1358924, Note_on_c, 0, 50, 0
2, 1358940, Control_c, 0, 64, 72
2, 1358952, Control_c, 0, 64, 127
2, 1358956, Note_on_c, 0, 69, 86
2, 1358956, Note_on_c, 0, 62, 83
2, 1358956, Note_on_c, 0, 50, 86
2, 1358960, Note_on_c, 0, 57, 73
2, 1359012, Note_on_c, 0, 57, 0
2, 1359048, Note_on_c, 0, 81, 0
2, 1359048, Note_on_c, 0, 66, 68
2, 1359060, Note_on_c, 0, 69, 0
2, 1359064, Note_on_c, 0, 74, 84
2, 1359100, Note_on_c, 0, 66, 0
2, 1359104, Note_on_c, 0, 78, 0
2, 1359120, Note_on_c, 0, 74, 0
2, 1359184, Control_c, 0, 64, 72
2, 1359192, Control_c, 0, 64, 0
2, 1359204, Note_on_c, 0, 76, 111
2, 1359212, Note_on_c, 0, 69, 92
2, 1359216, Note_on_c, 0, 73, 86
2, 1359220, Note_on_c, 0, 61, 81
2, 1359220, Note_on_c, 0, 64, 84
2, 1359236, Note_on_c, 0, 52, 88
2, 1359240, Note_on_c, 0, 73, 0
2, 1359240, Note_on_c, 0, 57, 82
2, 1359248, Note_on_c, 0, 69, 0
2, 1359264, Control_c, 0, 64, 40
2, 1359272, Note_on_c, 0, 52, 0
2, 1359276, Note_on_c, 0, 57, 0
2, 1359276, Control_c, 0, 64, 127
2, 1359284, Note_on_c, 0, 61, 0
2, 1359288, Note_on_c, 0, 76, 0
2, 1359296, Note_on_c, 0, 64, 0
2, 1359300, Note_on_c, 0, 50, 0
2, 1359300, Note_on_c, 0, 62, 0
2, 1359444, Note_on_c, 0, 88, 106
2, 1359452, Note_on_c, 0, 76, 78
2, 1359460, Control_c, 0, 64, 56
2, 1359468, Control_c, 0, 64, 24
2, 1359480, Control_c, 0, 64, 40
2, 1359492, Note_on_c, 0, 76, 0
2, 1359492, Control_c, 0, 64, 72
2, 1359504, Control_c, 0, 64, 127
2, 1359528, Note_on_c, 0, 88, 0
2, 1359536, Note_on_c, 0, 76, 84
2, 1359560, Note_on_c, 0, 64, 69
2, 1359624, Note_on_c, 0, 76, 0
2, 1359648, Note_on_c, 0, 64, 0
2, 1359656, Note_on_c, 0, 86, 104
2, 1359656, Note_on_c, 0, 80, 89
2, 1359660, Note_on_c, 0, 74, 79
2, 1359720, Note_on_c, 0, 74, 0
2, 1359756, Note_on_c, 0, 86, 0
2, 1359760, Note_on_c, 0, 80, 91
2, 1359772, Note_on_c, 0, 68, 70
2, 1359776, Note_on_c, 0, 76, 83
2, 1359844, Note_on_c, 0, 68, 0
2, 1359844, Note_on_c, 0, 80, 0
2, 1359860, Note_on_c, 0, 85, 93
2, 1359860, Note_on_c, 0, 81, 85
2, 1359872, Note_on_c, 0, 76, 0
2, 1359872, Control_c, 0, 64, 56
2, 1359876, Note_on_c, 0, 73, 79
2, 1359876, Note_on_c, 0, 64, 61
2, 1359884, Note_on_c, 0, 80, 0
2, 1359884, Control_c, 0, 64, 0
2, 1359916, Control_c, 0, 64, 24
2, 1359928, Control_c, 0, 64, 56
2, 1359940, Control_c, 0, 64, 104
2, 1359948, Note_on_c, 0, 73, 0
2, 1359952, Control_c, 0, 64, 127
2, 1359956, Note_on_c, 0, 64, 0
2, 1359972, Note_on_c, 0, 85, 0
2, 1359972, Note_on_c, 0, 81, 93
2, 1359984, Note_on_c, 0, 69, 75
2, 1359984, Note_on_c, 0, 76, 78
2, 1360052, Note_on_c, 0, 69, 0
2, 1360056, Note_on_c, 0, 81, 0
2, 1360056, Note_on_c, 0, 81, 0
2, 1360068, Control_c, 0, 64, 56
2, 1360076, Note_on_c, 0, 76, 0
2, 1360076, Control_c, 0, 64, 0
2, 1360080, Note_on_c, 0, 71, 76
2, 1360084, Note_on_c, 0, 83, 99
2, 1360084, Note_on_c, 0, 90, 84
2, 1360096, Note_on_c, 0, 64, 75
2, 1360112, Control_c, 0, 64, 40
2, 1360124, Control_c, 0, 64, 72
2, 1360136, Control_c, 0, 64, 104
2, 1360144, Note_on_c, 0, 83, 0
2, 1360144, Note_on_c, 0, 71, 0
2, 1360148, Control_c, 0, 64, 127
2, 1360172, Note_on_c, 0, 74, 83
2, 1360184, Note_on_c, 0, 62, 76
2, 1360188, Note_on_c, 0, 76, 76
2, 1360220, Note_on_c, 0, 64, 0
2, 1360252, Note_on_c, 0, 62, 0
2, 1360264, Note_on_c, 0, 76, 0
2, 1360264, Note_on_c, 0, 74, 0
2, 1360276, Control_c, 0, 64, 72
2, 1360284, Control_c, 0, 64, 24
2, 1360292, Note_on_c, 0, 69, 78
2, 1360292, Note_on_c, 0, 81, 95
2, 1360292, Note_on_c, 0, 87, 84
2, 1360300, Note_on_c, 0, 64, 76
2, 1360308, Note_on_c, 0, 90, 0
2, 1360320, Control_c, 0, 64, 40
2, 1360328, Control_c, 0, 64, 72
2, 1360344, Control_c, 0, 64, 88
2, 1360356, Control_c, 0, 64, 127
2, 1360368, Note_on_c, 0, 69, 0
2, 1360396, Note_on_c, 0, 81, 0
2, 1360404, Note_on_c, 0, 75, 88
2, 1360404, Note_on_c, 0, 63, 73
2, 1360404, Note_on_c, 0, 76, 73
2, 1360428, Note_on_c, 0, 64, 0
2, 1360468, Control_c, 0, 64, 72
2, 1360480, Control_c, 0, 64, 0
2, 1360484, Note_on_c, 0, 76, 0
2, 1360488, Note_on_c, 0, 63, 0
2, 1360488, Note_on_c, 0, 75, 0
2, 1360508, Note_on_c, 0, 80, 89
2, 1360508, Note_on_c, 0, 88, 88
2, 1360512, Note_on_c, 0, 68, 75
2, 1360512, Note_on_c, 0, 64, 70
2, 1360524, Note_on_c, 0, 87, 0
2, 1360552, Control_c, 0, 64, 24
2, 1360560, Control_c, 0, 64, 40
2, 1360572, Control_c, 0, 64, 56
2, 1360584, Control_c, 0, 64, 72
2, 1360592, Note_on_c, 0, 68, 0
2, 1360608, Note_on_c, 0, 76, 71
2, 1360612, Note_on_c, 0, 80, 0
2, 1360620, Note_on_c, 0, 64, 0
2, 1360620, Note_on_c, 0, 76, 88
2, 1360628, Note_on_c, 0, 64, 74
2, 1360628, Control_c, 0, 64, 88
2, 1360668, Note_on_c, 0, 76, 0
2, 1360676, Control_c, 0, 64, 56
2, 1360688, Control_c, 0, 64, 40
2, 1360700, Note_on_c, 0, 64, 0
2, 1360708, Note_on_c, 0, 76, 0
2, 1360724, Note_on_c, 0, 66, 72
2, 1360724, Note_on_c, 0, 64, 74
2, 1360732, Note_on_c, 0, 78, 92
2, 1360732, Note_on_c, 0, 83, 87
2, 1360736, Note_on_c, 0, 88, 0
2, 1360736, Control_c, 0, 64, 72
2, 1360744, Control_c, 0, 64, 88
2, 1360756, Control_c, 0, 64, 104
2, 1360804, Control_c, 0, 64, 127
2, 1360812, Note_on_c, 0, 78, 0
2, 1360812, Note_on_c, 0, 66, 0
2, 1360824, Note_on_c, 0, 64, 0
2, 1360832, Note_on_c, 0, 71, 92
2, 1360832, Note_on_c, 0, 59, 78
2, 1360832, Note_on_c, 0, 76, 72
2, 1360892, Note_on_c, 0, 76, 0
2, 1360896, Control_c, 0, 64, 88
2, 1360904, Control_c, 0, 64, 56
2, 1360916, Control_c, 0, 64, 0
2, 1360924, Note_on_c, 0, 71, 0
2, 1360932, Note_on_c, 0, 64, 78
2, 1360936, Note_on_c, 0, 76, 100
2, 1360936, Note_on_c, 0, 85, 81
2, 1360948, Note_on_c, 0, 59, 0
2, 1360968, Note_on_c, 0, 83, 0
2, 1360984, Control_c, 0, 64, 24
2, 1360996, Control_c, 0, 64, 56
2, 1361008, Note_on_c, 0, 64, 0
2, 1361008, Control_c, 0, 64, 72
2, 1361024, Control_c, 0, 64, 88
2, 1361032, Note_on_c, 0, 76, 0
2, 1361036, Note_on_c, 0, 61, 72
2, 1361036, Note_on_c, 0, 76, 69
2, 1361040, Note_on_c, 0, 73, 90
2, 1361080, Control_c, 0, 64, 56
2, 1361092, Control_c, 0, 64, 24
2, 1361100, Control_c, 0, 64, 0
2, 1361116, Note_on_c, 0, 76, 0
2, 1361124, Note_on_c, 0, 61, 0
2, 1361128, Note_on_c, 0, 73, 0
2, 1361148, Note_on_c, 0, 74, 95
2, 1361148, Note_on_c, 0, 62, 78
2, 1361148, Note_on_c, 0, 86, 89
2, 1361148, Note_on_c, 0, 64, 77
2, 1361152, Note_on_c, 0, 66, 67
2, 1361160, Control_c, 0, 64, 24
2, 1361168, Note_on_c, 0, 85, 0
2, 1361172, Control_c, 0, 64, 56
2, 1361180, Control_c, 0, 64, 72
2, 1361192, Control_c, 0, 64, 88
2, 1361208, Note_on_c, 0, 62, 0
2, 1361228, Control_c, 0, 64, 104
2, 1361240, Note_on_c, 0, 66, 0
2, 1361240, Note_on_c, 0, 54, 68
2, 1361244, Note_on_c, 0, 66, 83
2, 1361256, Note_on_c, 0, 74, 0
2, 1361260, Note_on_c, 0, 64, 0
2, 1361260, Note_on_c, 0, 76, 65
2, 1361260, Control_c, 0, 64, 127
2, 1361316, Note_on_c, 0, 76, 0
2, 1361320, Note_on_c, 0, 66, 0
2, 1361340, Note_on_c, 0, 54, 0
2, 1361352, Note_on_c, 0, 59, 74
2, 1361356, Note_on_c, 0, 71, 93
2, 1361356, Note_on_c, 0, 83, 82
2, 1361360, Note_on_c, 0, 67, 77
2, 1361360, Note_on_c, 0, 64, 74
2, 1361380, Note_on_c, 0, 86, 0
2, 1361444, Note_on_c, 0, 67, 0
2, 1361444, Note_on_c, 0, 59, 0
2, 1361444, Note_on_c, 0, 71, 0
2, 1361456, Note_on_c, 0, 76, 75
2, 1361460, Note_on_c, 0, 64, 0
2, 1361460, Note_on_c, 0, 67, 86
2, 1361472, Note_on_c, 0, 55, 75
2, 1361532, Note_on_c, 0, 76, 0
2, 1361536, Control_c, 0, 64, 88
2, 1361544, Note_on_c, 0, 67, 0
2, 1361548, Note_on_c, 0, 55, 0
2, 1361552, Control_c, 0, 64, 40
2, 1361556, Note_on_c, 0, 68, 71
2, 1361564, Note_on_c, 0, 76, 100
2, 1361564, Note_on_c, 0, 88, 86
2, 1361564, Control_c, 0, 64, 0
2, 1361568, Note_on_c, 0, 64, 78
2, 1361576, Note_on_c, 0, 83, 0
2, 1361632, Control_c, 0, 64, 40
2, 1361636, Note_on_c, 0, 68, 0
2, 1361644, Note_on_c, 0, 64, 0
2, 1361644, Control_c, 0, 64, 72
2, 1361652, Control_c, 0, 64, 104
2, 1361660, Note_on_c, 0, 76, 67
2, 1361664, Control_c, 0, 64, 127
2, 1361668, Note_on_c, 0, 76, 0
2, 1361668, Note_on_c, 0, 68, 93
2, 1361680, Note_on_c, 0, 56, 65
2, 1361688, Note_on_c, 0, 76, 0
2, 1361744, Control_c, 0, 64, 104
2, 1361756, Control_c, 0, 64, 56
2, 1361760, Note_on_c, 0, 56, 0
2, 1361760, Note_on_c, 0, 68, 0
2, 1361768, Control_c, 0, 64, 24
2, 1361772, Note_on_c, 0, 76, 79
2, 1361772, Note_on_c, 0, 64, 76
2, 1361772, Note_on_c, 0, 69, 76
2, 1361776, Note_on_c, 0, 73, 93
2, 1361776, Note_on_c, 0, 85, 83
2, 1361780, Note_on_c, 0, 61, 73
2, 1361780, Control_c, 0, 64, 0
2, 1361784, Note_on_c, 0, 88, 0
2, 1361828, Control_c, 0, 64, 24
2, 1361840, Control_c, 0, 64, 56
2, 1361848, Control_c, 0, 64, 88
2, 1361860, Control_c, 0, 64, 104
2, 1361872, Control_c, 0, 64, 127
2, 1361876, Note_on_c, 0, 73, 0
2, 1361884, Note_on_c, 0, 61, 0
2, 1361888, Note_on_c, 0, 69, 93
2, 1361892, Note_on_c, 0, 57, 77
2, 1361908, Note_on_c, 0, 85, 0
2, 1361916, Note_on_c, 0, 76, 0
2, 1361940, Note_on_c, 0, 69, 0
2, 1361944, Note_on_c, 0, 64, 0
2, 1361952, Control_c, 0, 64, 104
2, 1361956, Note_on_c, 0, 57, 0
2, 1361964, Control_c, 0, 64, 72
2, 1361976, Note_on_c, 0, 69, 0
2, 1361976, Control_c, 0, 64, 24
2, 1361988, Note_on_c, 0, 76, 100
2, 1361988, Note_on_c, 0, 64, 81
2, 1361988, Control_c, 0, 64, 0
2, 1362020, Control_c, 0, 64, 56
2, 1362032, Control_c, 0, 64, 88
2, 1362044, Control_c, 0, 64, 127
2, 1362048, Note_on_c, 0, 64, 0
2, 1362076, Note_on_c, 0, 76, 0
2, 1362088, Note_on_c, 0, 64, 84
2, 1362104, Note_on_c, 0, 52, 73
2, 1362164, Note_on_c, 0, 64, 0
2, 1362180, Note_on_c, 0, 52, 0
2, 1362180, Control_c, 0, 64, 88
2, 1362192, Control_c, 0, 64, 40
2, 1362196, Note_on_c, 0, 74, 104
2, 1362196, Note_on_c, 0, 68, 78
2, 1362200, Note_on_c, 0, 62, 76
2, 1362204, Control_c, 0, 64, 0
2, 1362220, Note_on_c, 0, 64, 66
2, 1362248, Note_on_c, 0, 64, 0
2, 1362252, Control_c, 0, 64, 40
2, 1362260, Control_c, 0, 64, 72
2, 1362272, Note_on_c, 0, 62, 0
2, 1362272, Control_c, 0, 64, 127
2, 1362300, Note_on_c, 0, 68, 84
2, 1362304, Note_on_c, 0, 64, 75
2, 1362312, Note_on_c, 0, 56, 64
2, 1362320, Note_on_c, 0, 74, 0
2, 1362388, Control_c, 0, 64, 72
2, 1362396, Note_on_c, 0, 64, 0
2, 1362396, Note_on_c, 0, 56, 0
2, 1362400, Note_on_c, 0, 68, 0
2, 1362400, Note_on_c, 0, 68, 0
2, 1362400, Note_on_c, 0, 73, 91
2, 1362400, Note_on_c, 0, 69, 88
2, 1362400, Control_c, 0, 64, 40
2, 1362412, Control_c, 0, 64, 0
2, 1362416, Note_on_c, 0, 61, 72
2, 1362424, Note_on_c, 0, 52, 78
2, 1362448, Control_c, 0, 64, 56
2, 1362460, Control_c, 0, 64, 88
2, 1362468, Control_c, 0, 64, 127
2, 1362496, Note_on_c, 0, 61, 0
2, 1362516, Note_on_c, 0, 73, 0
2, 1362516, Note_on_c, 0, 69, 89
2, 1362520, Note_on_c, 0, 64, 76
2, 1362524, Note_on_c, 0, 57, 68
2, 1362564, Note_on_c, 0, 52, 0
2, 1362580, Note_on_c, 0, 64, 0
2, 1362596, Note_on_c, 0, 57, 0
2, 1362596, Control_c, 0, 64, 88
2, 1362600, Note_on_c, 0, 69, 0
2, 1362608, Control_c, 0, 64, 56
2, 1362616, Note_on_c, 0, 69, 0
2, 1362620, Control_c, 0, 64, 0
2, 1362624, Note_on_c, 0, 59, 75
2, 1362624, Note_on_c, 0, 71, 94
2, 1362624, Note_on_c, 0, 78, 83
2, 1362632, Note_on_c, 0, 52, 73
2, 1362664, Control_c, 0, 64, 56
2, 1362676, Control_c, 0, 64, 88
2, 1362680, Note_on_c, 0, 71, 0
2, 1362688, Control_c, 0, 64, 127
2, 1362692, Note_on_c, 0, 59, 0
2, 1362708, Note_on_c, 0, 62, 83
2, 1362720, Note_on_c, 0, 64, 71
2, 1362736, Note_on_c, 0, 52, 0
2, 1362740, Note_on_c, 0, 50, 73
2, 1362784, Note_on_c, 0, 64, 0
2, 1362792, Control_c, 0, 64, 104
2, 1362804, Control_c, 0, 64, 72
2, 1362808, Note_on_c, 0, 50, 0
2, 1362812, Note_on_c, 0, 62, 0
2, 1362816, Control_c, 0, 64, 24
2, 1362824, Control_c, 0, 64, 0
2, 1362836, Note_on_c, 0, 78, 0
2, 1362840, Note_on_c, 0, 69, 88
2, 1362840, Note_on_c, 0, 57, 76
2, 1362840, Note_on_c, 0, 75, 83
2, 1362844, Note_on_c, 0, 52, 69
2, 1362860, Control_c, 0, 64, 40
2, 1362872, Control_c, 0, 64, 72
2, 1362884, Control_c, 0, 64, 104
2, 1362896, Control_c, 0, 64, 127
2, 1362912, Note_on_c, 0, 57, 0
2, 1362912, Note_on_c, 0, 69, 0
2, 1362936, Note_on_c, 0, 63, 87
2, 1362936, Note_on_c, 0, 64, 68
2, 1362944, Note_on_c, 0, 51, 78
2, 1362968, Note_on_c, 0, 52, 0
2, 1362992, Note_on_c, 0, 64, 0
2, 1363028, Note_on_c, 0, 63, 0
2, 1363044, Control_c, 0, 64, 88
2, 1363052, Note_on_c, 0, 76, 83
2, 1363056, Note_on_c, 0, 75, 0
2, 1363056, Note_on_c, 0, 68, 90
2, 1363056, Control_c, 0, 64, 24
2, 1363064, Note_on_c, 0, 51, 0
2, 1363068, Control_c, 0, 64, 0
2, 1363116, Control_c, 0, 64, 24
2, 1363120, Note_on_c, 0, 52, 67
2, 1363124, Control_c, 0, 64, 56
2, 1363136, Control_c, 0, 64, 88
2, 1363148, Note_on_c, 0, 68, 0
2, 1363148, Control_c, 0, 64, 127
2, 1363152, Note_on_c, 0, 52, 0
2, 1363168, Note_on_c, 0, 64, 93
2, 1363188, Note_on_c, 0, 52, 40
2, 1363240, Control_c, 0, 64, 88
2, 1363244, Note_on_c, 0, 52, 0
2, 1363248, Note_on_c, 0, 64, 0
2, 1363252, Control_c, 0, 64, 40
2, 1363264, Control_c, 0, 64, 0
2, 1363268, Note_on_c, 0, 52, 75
2, 1363276, Note_on_c, 0, 76, 0
2, 1363276, Note_on_c, 0, 66, 96
2, 1363276, Note_on_c, 0, 71, 76
2, 1363284, Note_on_c, 0, 54, 79
2, 1363308, Control_c, 0, 64, 40
2, 1363320, Control_c, 0, 64, 88
2, 1363332, Control_c, 0, 64, 127
2, 1363356, Note_on_c, 0, 66, 0
2, 1363368, Note_on_c, 0, 52, 0
2, 1363368, Note_on_c, 0, 54, 0
2, 1363372, Note_on_c, 0, 59, 88
2, 1363372, Note_on_c, 0, 64, 68
2, 1363396, Note_on_c, 0, 47, 78
2, 1363440, Note_on_c, 0, 64, 0
2, 1363472, Control_c, 0, 64, 72
2, 1363476, Note_on_c, 0, 47, 0
2, 1363480, Note_on_c, 0, 59, 0
2, 1363480, Control_c, 0, 64, 24
2, 1363488, Note_on_c, 0, 64, 96
2, 1363488, Note_on_c, 0, 73, 83
2, 1363492, Note_on_c, 0, 52, 80
2, 1363492, Control_c, 0, 64, 0
2, 1363500, Note_on_c, 0, 71, 0
2, 1363540, Control_c, 0, 64, 24
2, 1363548, Control_c, 0, 64, 56
2, 1363560, Note_on_c, 0, 52, 0
2, 1363560, Control_c, 0, 64, 88
2, 1363572, Control_c, 0, 64, 127
2, 1363576, Note_on_c, 0, 64, 71
2, 1363592, Note_on_c, 0, 64, 0
2, 1363596, Note_on_c, 0, 61, 87
2, 1363600, Note_on_c, 0, 49, 73
2, 1363652, Note_on_c, 0, 64, 0
2, 1363680, Note_on_c, 0, 49, 0
2, 1363684, Note_on_c, 0, 61, 0
2, 1363688, Note_on_c, 0, 54, 79
2, 1363688, Note_on_c, 0, 52, 78
2, 1363688, Control_c, 0, 64, 72
2, 1363700, Control_c, 0, 64, 24
2, 1363704, Note_on_c, 0, 62, 93
2, 1363704, Note_on_c, 0, 50, 78
2, 1363704, Note_on_c, 0, 74, 88
2, 1363712, Control_c, 0, 64, 0
2, 1363724, Note_on_c, 0, 73, 0
2, 1363768, Control_c, 0, 64, 24
2, 1363772, Note_on_c, 0, 50, 0
2, 1363780, Note_on_c, 0, 54, 0
2, 1363780, Control_c, 0, 64, 72
2, 1363792, Note_on_c, 0, 42, 67
2, 1363792, Control_c, 0, 64, 104
2, 1363796, Note_on_c, 0, 64, 68
2, 1363804, Note_on_c, 0, 54, 82
2, 1363804, Control_c, 0, 64, 127
2, 1363808, Note_on_c, 0, 52, 0
2, 1363840, Note_on_c, 0, 62, 0
2, 1363860, Note_on_c, 0, 64, 0
2, 1363884, Control_c, 0, 64, 88
2, 1363892, Note_on_c, 0, 54, 0
2, 1363896, Control_c, 0, 64, 40
2, 1363908, Note_on_c, 0, 42, 0
2, 1363908, Note_on_c, 0, 47, 83
2, 1363908, Note_on_c, 0, 59, 93
2, 1363908, Note_on_c, 0, 71, 77
2, 1363908, Control_c, 0, 64, 0
2, 1363912, Note_on_c, 0, 55, 79
2, 1363912, Note_on_c, 0, 52, 70
2, 1363944, Note_on_c, 0, 74, 0
2, 1363952, Control_c, 0, 64, 40
2, 1363964, Control_c, 0, 64, 72
2, 1363976, Control_c, 0, 64, 104
2, 1363988, Control_c, 0, 64, 127
2, 1364000, Note_on_c, 0, 55, 0
2, 1364004, Note_on_c, 0, 47, 0
2, 1364008, Note_on_c, 0, 59, 0
2, 1364016, Note_on_c, 0, 55, 88
2, 1364020, Note_on_c, 0, 64, 68
2, 1364028, Note_on_c, 0, 43, 73
2, 1364032, Note_on_c, 0, 52, 0
2, 1364100, Note_on_c, 0, 64, 0
2, 1364100, Note_on_c, 0, 43, 0
2, 1364104, Note_on_c, 0, 55, 0
2, 1364116, Note_on_c, 0, 56, 71
2, 1364120, Note_on_c, 0, 64, 95
2, 1364120, Note_on_c, 0, 76, 86
2, 1364124, Note_on_c, 0, 52, 76
2, 1364128, Note_on_c, 0, 71, 0
2, 1364132, Note_on_c, 0, 52, 73
2, 1364196, Note_on_c, 0, 52, 0
2, 1364200, Note_on_c, 0, 56, 0
2, 1364216, Note_on_c, 0, 64, 0
2, 1364220, Note_on_c, 0, 64, 71
2, 1364224, Note_on_c, 0, 44, 73
2, 1364224, Note_on_c, 0, 56, 83
2, 1364232, Note_on_c, 0, 52, 0
2, 1364276, Note_on_c, 0, 64, 0
2, 1364308, Control_c, 0, 64, 104
2, 1364316, Note_on_c, 0, 56, 0
2, 1364320, Control_c, 0, 64, 56
2, 1364324, Note_on_c, 0, 44, 0
2, 1364332, Control_c, 0, 64, 0
2, 1364336, Note_on_c, 0, 52, 79
2, 1364340, Note_on_c, 0, 76, 0
2, 1364340, Note_on_c, 0, 61, 93
2, 1364340, Note_on_c, 0, 73, 87
2, 1364352, Note_on_c, 0, 45, 96
2, 1364356, Note_on_c, 0, 57, 84
2, 1364412, Note_on_c, 0, 57, 0
2, 1364412, Control_c, 0, 64, 56
2, 1364424, Control_c, 0, 64, 127
2, 1364460, Note_on_c, 0, 45, 0
2, 1364548, Note_on_c, 0, 61, 0
2, 1364568, Note_on_c, 0, 52, 97
2, 1364572, Control_c, 0, 64, 56
2, 1364584, Note_on_c, 0, 40, 77
2, 1364584, Control_c, 0, 64, 0
2, 1364588, Note_on_c, 0, 52, 0
2, 1364620, Note_on_c, 0, 73, 0
2, 1364632, Control_c, 0, 64, 56
2, 1364640, Control_c, 0, 64, 104
2, 1364652, Control_c, 0, 64, 127
2, 1364668, Note_on_c, 0, 52, 0
2, 1364668, Note_on_c, 0, 64, 91
2, 1364704, Note_on_c, 0, 40, 0
2, 1364732, Note_on_c, 0, 64, 0
2, 1364756, Control_c, 0, 64, 104
2, 1364768, Control_c, 0, 64, 24
2, 1364780, Note_on_c, 0, 56, 97
2, 1364780, Note_on_c, 0, 44, 76
2, 1364780, Control_c, 0, 64, 0
2, 1364800, Control_c, 0, 64, 24
2, 1364816, Control_c, 0, 64, 72
2, 1364828, Control_c, 0, 64, 127
2, 1364860, Note_on_c, 0, 56, 0
2, 1364884, Note_on_c, 0, 68, 85
2, 1364944, Note_on_c, 0, 44, 0
2, 1364952, Control_c, 0, 64, 104
2, 1364964, Note_on_c, 0, 68, 0
2, 1364964, Control_c, 0, 64, 24
2, 1364976, Control_c, 0, 64, 0
2, 1364992, Note_on_c, 0, 57, 95
2, 1365000, Note_on_c, 0, 45, 86
2, 1365012, Control_c, 0, 64, 24
2, 1365024, Control_c, 0, 64, 56
2, 1365032, Control_c, 0, 64, 104
2, 1365044, Control_c, 0, 64, 127
2, 1365048, Note_on_c, 0, 45, 0
2, 1365076, Note_on_c, 0, 57, 0
2, 1365092, Note_on_c, 0, 69, 94
2, 1365144, Note_on_c, 0, 69, 0
2, 1365180, Control_c, 0, 64, 104
2, 1365192, Control_c, 0, 64, 24
2, 1365204, Control_c, 0, 64, 0
2, 1365220, Note_on_c, 0, 66, 96
2, 1365224, Note_on_c, 0, 54, 78
2, 1365264, Control_c, 0, 64, 40
2, 1365276, Control_c, 0, 64, 88
2, 1365288, Control_c, 0, 64, 127
2, 1365300, Note_on_c, 0, 66, 0
2, 1365320, Note_on_c, 0, 78, 99
2, 1365404, Note_on_c, 0, 78, 0
2, 1365408, Note_on_c, 0, 54, 0
2, 1365412, Control_c, 0, 64, 88
2, 1365424, Control_c, 0, 64, 24
2, 1365428, Note_on_c, 0, 63, 99
2, 1365432, Note_on_c, 0, 51, 76
2, 1365436, Control_c, 0, 64, 0
2, 1365468, Control_c, 0, 64, 24
2, 1365480, Control_c, 0, 64, 72
2, 1365492, Control_c, 0, 64, 104
2, 1365504, Control_c, 0, 64, 127
2, 1365524, Note_on_c, 0, 63, 0
2, 1365532, Note_on_c, 0, 75, 86
2, 1365596, Note_on_c, 0, 51, 0
2, 1365608, Control_c, 0, 64, 88
2, 1365616, Note_on_c, 0, 75, 0
2, 1365616, Control_c, 0, 64, 24
2, 1365632, Control_c, 0, 64, 0
2, 1365636, Note_on_c, 0, 64, 97
2, 1365648, Note_on_c, 0, 52, 84
2, 1365676, Control_c, 0, 64, 40
2, 1365688, Control_c, 0, 64, 88
2, 1365692, Note_on_c, 0, 52, 0
2, 1365700, Control_c, 0, 64, 127
2, 1365740, Note_on_c, 0, 64, 0
2, 1365744, Note_on_c, 0, 76, 99
2, 1365792, Note_on_c, 0, 76, 0
2, 1365816, Control_c, 0, 64, 88
2, 1365828, Control_c, 0, 64, 24
2, 1365840, Control_c, 0, 64, 0
2, 1365844, Note_on_c, 0, 61, 83
2, 1365856, Note_on_c, 0, 73, 103
2, 1365872, Control_c, 0, 64, 56
2, 1365884, Control_c, 0, 64, 88
2, 1365896, Control_c, 0, 64, 127
2, 1365948, Note_on_c, 0, 73, 0
2, 1365960, Note_on_c, 0, 85, 98
2, 1366012, Note_on_c, 0, 85, 0
2, 1366056, Note_on_c, 0, 61, 0
2, 1366056, Note_on_c, 0, 56, 73
2, 1366064, Note_on_c, 0, 68, 94
2, 1366152, Note_on_c, 0, 68, 0
2, 1366160, Note_on_c, 0, 80, 97
2, 1366240, Note_on_c, 0, 56, 0
2, 1366240, Control_c, 0, 64, 72
2, 1366252, Note_on_c, 0, 80, 0
2, 1366252, Control_c, 0, 64, 0
2, 1366268, Note_on_c, 0, 69, 99
2, 1366280, Note_on_c, 0, 57, 81
2, 1366320, Note_on_c, 0, 57, 0
2, 1366320, Control_c, 0, 64, 56
2, 1366332, Control_c, 0, 64, 88
2, 1366344, Control_c, 0, 64, 127
2, 1366368, Note_on_c, 0, 69, 0
2, 1366372, Note_on_c, 0, 81, 97
2, 1366416, Note_on_c, 0, 81, 0
2, 1366468, Control_c, 0, 64, 56
2, 1366472, Note_on_c, 0, 66, 95
2, 1366480, Note_on_c, 0, 78, 100
2, 1366480, Control_c, 0, 64, 0
2, 1366500, Note_on_c, 0, 80, 53
2, 1366516, Control_c, 0, 64, 40
2, 1366528, Control_c, 0, 64, 72
2, 1366540, Control_c, 0, 64, 127
2, 1366544, Note_on_c, 0, 80, 0
2, 1366568, Note_on_c, 0, 78, 0
2, 1366584, Note_on_c, 0, 90, 98
2, 1366660, Note_on_c, 0, 90, 0
2, 1366676, Note_on_c, 0, 66, 0
2, 1366676, Control_c, 0, 64, 88
2, 1366688, Note_on_c, 0, 75, 103
2, 1366688, Control_c, 0, 64, 24
2, 1366696, Note_on_c, 0, 63, 80
2, 1366700, Control_c, 0, 64, 0
2, 1366756, Control_c, 0, 64, 40
2, 1366768, Control_c, 0, 64, 88
2, 1366780, Note_on_c, 0, 87, 93
2, 1366780, Control_c, 0, 64, 127
2, 1366788, Note_on_c, 0, 75, 0
2, 1366860, Control_c, 0, 64, 72
2, 1366868, Note_on_c, 0, 87, 0
2, 1366872, Note_on_c, 0, 64, 100
2, 1366872, Control_c, 0, 64, 0
2, 1366888, Note_on_c, 0, 63, 0
2, 1366932, Control_c, 0, 64, 24
2, 1366940, Control_c, 0, 64, 72
2, 1366952, Control_c, 0, 64, 104
2, 1366964, Control_c, 0, 64, 127
2, 1366976, Note_on_c, 0, 88, 103
2, 1366976, Note_on_c, 0, 76, 95
2, 1366980, Note_on_c, 0, 64, 0
2, 1367024, Note_on_c, 0, 76, 0
2, 1367048, Note_on_c, 0, 88, 0
2, 1367068, Control_c, 0, 64, 72
2, 1367080, Control_c, 0, 64, 0
2, 1367096, Note_on_c, 0, 64, 100
2, 1367160, Control_c, 0, 64, 24
2, 1367172, Control_c, 0, 64, 72
2, 1367184, Control_c, 0, 64, 104
2, 1367196, Note_on_c, 0, 88, 95
2, 1367196, Control_c, 0, 64, 127
2, 1367200, Note_on_c, 0, 76, 88
2, 1367228, Note_on_c, 0, 64, 0
2, 1367244, Note_on_c, 0, 76, 0
2, 1367264, Note_on_c, 0, 88, 0
2, 1367276, Control_c, 0, 64, 72
2, 1367284, Control_c, 0, 64, 0
2, 1367300, Note_on_c, 0, 66, 100
2, 1367356, Control_c, 0, 64, 40
2, 1367364, Control_c, 0, 64, 72
2, 1367380, Control_c, 0, 64, 127
2, 1367408, Note_on_c, 0, 78, 84
2, 1367408, Note_on_c, 0, 90, 95
2, 1367456, Note_on_c, 0, 78, 0
2, 1367480, Note_on_c, 0, 66, 0
2, 1367480, Control_c, 0, 64, 104
2, 1367492, Control_c, 0, 64, 40
2, 1367496, Note_on_c, 0, 90, 0
2, 1367504, Control_c, 0, 64, 0
2, 1367512, Note_on_c, 0, 67, 106
2, 1367516, Note_on_c, 0, 79, 94
2, 1367520, Note_on_c, 0, 70, 80
2, 1367524, Note_on_c, 0, 73, 78
2, 1367524, Note_on_c, 0, 52, 76
2, 1367524, Note_on_c, 0, 40, 88
2, 1367528, Note_on_c, 0, 76, 82
2, 1367584, Control_c, 0, 64, 56
2, 1367596, Control_c, 0, 64, 104
2, 1367608, Control_c, 0, 64, 127
2, 1367628, Note_on_c, 0, 91, 97
2, 1367636, Note_on_c, 0, 79, 88
2, 1367672, Note_on_c, 0, 40, 0
2, 1367676, Note_on_c, 0, 91, 0
2, 1367676, Note_on_c, 0, 52, 0
2, 1367688, Note_on_c, 0, 79, 0
2, 1367688, Note_on_c, 0, 67, 0
2, 1367688, Note_on_c, 0, 76, 0
2, 1367692, Note_on_c, 0, 79, 0
2, 1367700, Note_on_c, 0, 73, 0
2, 1367712, Note_on_c, 0, 70, 0
2, 1367712, Control_c, 0, 64, 104
2, 1367724, Note_on_c, 0, 64, 97
2, 1367724, Control_c, 0, 64, 40
2, 1367736, Control_c, 0, 64, 0
2, 1367768, Control_c, 0, 64, 40
2, 1367780, Control_c, 0, 64, 72
2, 1367792, Control_c, 0, 64, 104
2, 1367804, Control_c, 0, 64, 127
2, 1367828, Note_on_c, 0, 88, 94
2, 1367828, Note_on_c, 0, 76, 79
2, 1367828, Note_on_c, 0, 58, 51
2, 1367828, Note_on_c, 0, 61, 68
2, 1367828, Note_on_c, 0, 67, 79
2, 1367844, Note_on_c, 0, 64, 0
2, 1367852, Note_on_c, 0, 58, 0
2, 1367868, Note_on_c, 0, 61, 0
2, 1367876, Note_on_c, 0, 76, 0
2, 1367880, Note_on_c, 0, 67, 0
2, 1367896, Note_on_c, 0, 88, 0
2, 1367932, Note_on_c, 0, 61, 87
2, 1367932, Note_on_c, 0, 58, 73
2, 1367932, Note_on_c, 0, 67, 75
2, 1367984, Note_on_c, 0, 58, 0
2, 1367996, Note_on_c, 0, 67, 0
2, 1368016, Note_on_c, 0, 61, 0
2, 1368024, Note_on_c, 0, 85, 90
2, 1368024, Note_on_c, 0, 73, 85
2, 1368024, Note_on_c, 0, 67, 88
2, 1368024, Note_on_c, 0, 58, 65
2, 1368024, Note_on_c, 0, 61, 60
2, 1368064, Note_on_c, 0, 73, 0
2, 1368076, Note_on_c, 0, 58, 0
2, 1368076, Note_on_c, 0, 61, 0
2, 1368080, Note_on_c, 0, 85, 0
2, 1368088, Note_on_c, 0, 67, 0
2, 1368100, Control_c, 0, 64, 72
2, 1368112, Control_c, 0, 64, 24
2, 1368124, Control_c, 0, 64, 0
2, 1368136, Note_on_c, 0, 66, 98
2, 1368136, Note_on_c, 0, 62, 84
2, 1368136, Note_on_c, 0, 40, 83
2, 1368136, Note_on_c, 0, 57, 69
2, 1368136, Note_on_c, 0, 52, 71
2, 1368208, Control_c, 0, 64, 56
2, 1368216, Note_on_c, 0, 52, 0
2, 1368216, Note_on_c, 0, 40, 0
2, 1368216, Control_c, 0, 64, 104
2, 1368228, Control_c, 0, 64, 127
2, 1368232, Note_on_c, 0, 57, 0
2, 1368232, Note_on_c, 0, 62, 0
2, 1368244, Note_on_c, 0, 78, 85
2, 1368244, Note_on_c, 0, 90, 90
2, 1368280, Note_on_c, 0, 66, 0
2, 1368296, Note_on_c, 0, 90, 0
2, 1368296, Note_on_c, 0, 78, 0
2, 1368344, Note_on_c, 0, 62, 93
2, 1368344, Control_c, 0, 64, 88
2, 1368356, Control_c, 0, 64, 72
2, 1368368, Control_c, 0, 64, 88
2, 1368376, Control_c, 0, 64, 104
2, 1368388, Control_c, 0, 64, 127
2, 1368440, Note_on_c, 0, 86, 92
2, 1368444, Note_on_c, 0, 74, 84
2, 1368484, Note_on_c, 0, 86, 0
2, 1368500, Note_on_c, 0, 74, 0
2, 1368504, Note_on_c, 0, 62, 0
2, 1368536, Note_on_c, 0, 57, 92
2, 1368624, Note_on_c, 0, 57, 0
2, 1368644, Note_on_c, 0, 69, 85
2, 1368648, Note_on_c, 0, 81, 89
2, 1368672, Note_on_c, 0, 69, 0
2, 1368692, Note_on_c, 0, 81, 0
2, 1368736, Control_c, 0, 64, 104
2, 1368748, Note_on_c, 0, 65, 101
2, 1368748, Note_on_c, 0, 77, 103
2, 1368748, Note_on_c, 0, 68, 80
2, 1368748, Note_on_c, 0, 74, 83
2, 1368748, Note_on_c, 0, 71, 84
2, 1368748, Note_on_c, 0, 52, 82
2, 1368748, Note_on_c, 0, 40, 84
2, 1368748, Control_c, 0, 64, 56
2, 1368760, Control_c, 0, 64, 0
2, 1368836, Control_c, 0, 64, 56
2, 1368848, Control_c, 0, 64, 104
2, 1368860, Control_c, 0, 64, 127
2, 1368864, Note_on_c, 0, 89, 97
2, 1368864, Note_on_c, 0, 77, 93
2, 1368872, Note_on_c, 0, 52, 0
2, 1368884, Note_on_c, 0, 40, 0
2, 1368908, Note_on_c, 0, 89, 0
2, 1368912, Note_on_c, 0, 77, 0
2, 1368916, Note_on_c, 0, 65, 0
2, 1368924, Note_on_c, 0, 71, 0
2, 1368940, Note_on_c, 0, 74, 0
2, 1368948, Note_on_c, 0, 77, 0
2, 1368960, Note_on_c, 0, 62, 93
2, 1368976, Note_on_c, 0, 68, 0
2, 1369064, Note_on_c, 0, 86, 93
2, 1369064, Note_on_c, 0, 74, 87
2, 1369064, Note_on_c, 0, 56, 73
2, 1369064, Note_on_c, 0, 65, 83
2, 1369064, Note_on_c, 0, 62, 68
2, 1369084, Note_on_c, 0, 62, 0
2, 1369104, Note_on_c, 0, 56, 0
2, 1369108, Note_on_c, 0, 65, 0
2, 1369120, Note_on_c, 0, 86, 0
2, 1369120, Note_on_c, 0, 62, 0
2, 1369120, Note_on_c, 0, 74, 0
2, 1369160, Note_on_c, 0, 59, 82
2, 1369160, Note_on_c, 0, 56, 76
2, 1369160, Note_on_c, 0, 62, 71
2, 1369160, Note_on_c, 0, 65, 83
2, 1369184, Note_on_c, 0, 62, 0
2, 1369200, Note_on_c, 0, 56, 0
2, 1369212, Note_on_c, 0, 65, 0
2, 1369264, Note_on_c, 0, 83, 86
2, 1369264, Note_on_c, 0, 71, 78
2, 1369264, Note_on_c, 0, 56, 60
2, 1369264, Note_on_c, 0, 62, 77
2, 1369264, Note_on_c, 0, 65, 82
2, 1369300, Note_on_c, 0, 71, 0
2, 1369304, Note_on_c, 0, 83, 0
2, 1369308, Note_on_c, 0, 56, 0
2, 1369328, Note_on_c, 0, 59, 0
2, 1369332, Note_on_c, 0, 65, 0
2, 1369332, Note_on_c, 0, 62, 0
2, 1369340, Control_c, 0, 64, 88
2, 1369356, Control_c, 0, 64, 40
2, 1369364, Note_on_c, 0, 64, 101
2, 1369364, Note_on_c, 0, 57, 76
2, 1369364, Note_on_c, 0, 40, 82
2, 1369364, Note_on_c, 0, 61, 73
2, 1369364, Control_c, 0, 64, 0
2, 1369404, Note_on_c, 0, 52, 72
2, 1369456, Control_c, 0, 64, 24
2, 1369468, Note_on_c, 0, 88, 96
2, 1369468, Note_on_c, 0, 76, 88
2, 1369472, Control_c, 0, 64, 72
2, 1369476, Note_on_c, 0, 57, 0
2, 1369480, Control_c, 0, 64, 104
2, 1369492, Control_c, 0, 64, 127
2, 1369504, Note_on_c, 0, 61, 0
2, 1369520, Note_on_c, 0, 64, 0
2, 1369520, Note_on_c, 0, 76, 0
2, 1369524, Note_on_c, 0, 40, 0
2, 1369528, Note_on_c, 0, 88, 0
2, 1369564, Note_on_c, 0, 61, 92
2, 1369584, Note_on_c, 0, 52, 0
2, 1369664, Note_on_c, 0, 85, 97
2, 1369664, Note_on_c, 0, 73, 88
2, 1369672, Note_on_c, 0, 61, 0
2, 1369728, Note_on_c, 0, 73, 0
2, 1369772, Note_on_c, 0, 62, 103
2, 1369780, Note_on_c, 0, 85, 0
2, 1369860, Note_on_c, 0, 74, 90
2, 1369860, Note_on_c, 0, 86, 96
2, 1369892, Note_on_c, 0, 62, 0
2, 1369908, Note_on_c, 0, 74, 0
2, 1369928, Note_on_c, 0, 86, 0
2, 1369976, Note_on_c, 0, 64, 103
2, 1369984, Note_on_c, 0, 76, 100
2, 1369988, Note_on_c, 0, 73, 78
2, 1369988, Note_on_c, 0, 67, 83
2, 1369988, Control_c, 0, 64, 88
2, 1369992, Note_on_c, 0, 70, 77
2, 1369992, Note_on_c, 0, 57, 81
2, 1370000, Note_on_c, 0, 45, 84
2, 1370000, Control_c, 0, 64, 40
2, 1370008, Control_c, 0, 64, 0
2, 1370092, Note_on_c, 0, 88, 98
2, 1370092, Control_c, 0, 64, 24
2, 1370096, Note_on_c, 0, 76, 88
2, 1370104, Control_c, 0, 64, 72
2, 1370116, Control_c, 0, 64, 127
2, 1370152, Note_on_c, 0, 64, 0
2, 1370156, Note_on_c, 0, 76, 0
2, 1370164, Note_on_c, 0, 88, 0
2, 1370168, Note_on_c, 0, 57, 0
2, 1370188, Note_on_c, 0, 76, 0
2, 1370192, Note_on_c, 0, 45, 0
2, 1370196, Note_on_c, 0, 73, 0
2, 1370196, Note_on_c, 0, 70, 0
2, 1370196, Note_on_c, 0, 61, 96
2, 1370200, Note_on_c, 0, 67, 0
2, 1370284, Note_on_c, 0, 61, 0
2, 1370288, Note_on_c, 0, 85, 93
2, 1370288, Note_on_c, 0, 73, 82
2, 1370288, Note_on_c, 0, 55, 77
2, 1370288, Note_on_c, 0, 61, 64
2, 1370288, Note_on_c, 0, 64, 82
2, 1370324, Note_on_c, 0, 55, 0
2, 1370328, Note_on_c, 0, 61, 0
2, 1370332, Note_on_c, 0, 64, 0
2, 1370336, Note_on_c, 0, 73, 0
2, 1370364, Note_on_c, 0, 85, 0
2, 1370392, Note_on_c, 0, 58, 90
2, 1370392, Note_on_c, 0, 55, 77
2, 1370392, Note_on_c, 0, 64, 88
2, 1370392, Note_on_c, 0, 61, 57
2, 1370412, Note_on_c, 0, 61, 0
2, 1370416, Note_on_c, 0, 55, 0
2, 1370444, Note_on_c, 0, 64, 0
2, 1370472, Note_on_c, 0, 58, 0
2, 1370484, Note_on_c, 0, 82, 92
2, 1370484, Note_on_c, 0, 70, 88
2, 1370484, Note_on_c, 0, 64, 85
2, 1370484, Note_on_c, 0, 61, 76
2, 1370484, Note_on_c, 0, 55, 78
2, 1370520, Note_on_c, 0, 55, 0
2, 1370528, Note_on_c, 0, 70, 0
2, 1370540, Note_on_c, 0, 64, 0
2, 1370548, Note_on_c, 0, 82, 0
2, 1370548, Note_on_c, 0, 61, 0
2, 1370572, Control_c, 0, 64, 104
2, 1370588, Note_on_c, 0, 63, 95
2, 1370588, Control_c, 0, 64, 40
2, 1370592, Note_on_c, 0, 63, 102
2, 1370596, Note_on_c, 0, 54, 80
2, 1370596, Control_c, 0, 64, 0
2, 1370608, Note_on_c, 0, 60, 82
2, 1370616, Note_on_c, 0, 45, 85
2, 1370616, Note_on_c, 0, 33, 89
2, 1370676, Control_c, 0, 64, 56
2, 1370688, Control_c, 0, 64, 104
2, 1370700, Control_c, 0, 64, 127
2, 1370704, Note_on_c, 0, 87, 89
2, 1370708, Note_on_c, 0, 75, 90
2, 1370728, Note_on_c, 0, 60, 0
2, 1370736, Note_on_c, 0, 63, 0
2, 1370736, Note_on_c, 0, 63, 0
2, 1370744, Note_on_c, 0, 54, 0
2, 1370752, Note_on_c, 0, 87, 0
2, 1370760, Note_on_c, 0, 33, 0
2, 1370768, Note_on_c, 0, 75, 0
2, 1370808, Note_on_c, 0, 45, 0
2, 1370812, Note_on_c, 0, 60, 94
2, 1370916, Note_on_c, 0, 84, 94
2, 1370924, Note_on_c, 0, 72, 80
2, 1370936, Note_on_c, 0, 60, 0
2, 1370972, Note_on_c, 0, 72, 0
2, 1370980, Note_on_c, 0, 84, 0
2, 1371004, Note_on_c, 0, 57, 88
2, 1371084, Note_on_c, 0, 57, 0
2, 1371104, Note_on_c, 0, 69, 83
2, 1371104, Note_on_c, 0, 81, 94
2, 1371132, Note_on_c, 0, 69, 0
2, 1371156, Note_on_c, 0, 81, 0
2, 1371208, Control_c, 0, 64, 104
2, 1371212, Note_on_c, 0, 62, 101
2, 1371216, Note_on_c, 0, 74, 99
2, 1371216, Control_c, 0, 64, 56
2, 1371224, Note_on_c, 0, 65, 81
2, 1371228, Note_on_c, 0, 71, 81
2, 1371228, Note_on_c, 0, 68, 73
2, 1371228, Note_on_c, 0, 57, 77
2, 1371228, Control_c, 0, 64, 0
2, 1371232, Note_on_c, 0, 45, 83
2, 1371308, Control_c, 0, 64, 40
2, 1371320, Note_on_c, 0, 86, 94
2, 1371320, Control_c, 0, 64, 88
2, 1371324, Note_on_c, 0, 74, 84
2, 1371332, Control_c, 0, 64, 127
2, 1371372, Note_on_c, 0, 86, 0
2, 1371372, Note_on_c, 0, 74, 0
2, 1371372, Note_on_c, 0, 62, 0
2, 1371408, Note_on_c, 0, 59, 90
2, 1371452, Note_on_c, 0, 57, 0
2, 1371468, Note_on_c, 0, 71, 0
2, 1371468, Note_on_c, 0, 74, 0
2, 1371484, Note_on_c, 0, 68, 0
2, 1371484, Note_on_c, 0, 65, 0
2, 1371492, Note_on_c, 0, 45, 0
2, 1371512, Note_on_c, 0, 59, 0
2, 1371512, Note_on_c, 0, 83, 96
2, 1371512, Note_on_c, 0, 71, 75
2, 1371512, Note_on_c, 0, 59, 63
2, 1371512, Note_on_c, 0, 53, 63
2, 1371512, Note_on_c, 0, 62, 78
2, 1371536, Note_on_c, 0, 53, 0
2, 1371536, Note_on_c, 0, 59, 0
2, 1371556, Note_on_c, 0, 71, 0
2, 1371560, Note_on_c, 0, 62, 0
2, 1371576, Note_on_c, 0, 83, 0
2, 1371616, Note_on_c, 0, 56, 90
2, 1371616, Note_on_c, 0, 59, 73
2, 1371616, Note_on_c, 0, 53, 74
2, 1371616, Note_on_c, 0, 62, 79
2, 1371644, Note_on_c, 0, 53, 0
2, 1371660, Note_on_c, 0, 59, 0
2, 1371668, Note_on_c, 0, 62, 0
2, 1371704, Note_on_c, 0, 56, 0
2, 1371704, Note_on_c, 0, 80, 92
2, 1371704, Note_on_c, 0, 68, 80
2, 1371704, Note_on_c, 0, 62, 90
2, 1371704, Note_on_c, 0, 59, 64
2, 1371704, Note_on_c, 0, 53, 84
2, 1371744, Note_on_c, 0, 68, 0
2, 1371752, Note_on_c, 0, 59, 0
2, 1371752, Note_on_c, 0, 53, 0
2, 1371768, Note_on_c, 0, 80, 0
2, 1371772, Note_on_c, 0, 62, 0
2, 1371780, Control_c, 0, 64, 104
2, 1371792, Control_c, 0, 64, 72
2, 1371800, Control_c, 0, 64, 40
2, 1371804, Note_on_c, 0, 61, 98
2, 1371816, Control_c, 0, 64, 0
2, 1371828, Note_on_c, 0, 61, 85
2, 1371840, Note_on_c, 0, 52, 78
2, 1371844, Note_on_c, 0, 57, 70
2, 1371852, Note_on_c, 0, 45, 75
2, 1371856, Note_on_c, 0, 33, 82
2, 1371884, Control_c, 0, 64, 40
2, 1371896, Control_c, 0, 64, 88
2, 1371904, Control_c, 0, 64, 127
2, 1371912, Note_on_c, 0, 73, 85
2, 1371912, Note_on_c, 0, 85, 89
2, 1371932, Note_on_c, 0, 61, 0
2, 1371948, Note_on_c, 0, 52, 0
2, 1371960, Note_on_c, 0, 85, 0
2, 1371960, Note_on_c, 0, 57, 0
2, 1371964, Note_on_c, 0, 73, 0
2, 1371988, Control_c, 0, 64, 88
2, 1371992, Note_on_c, 0, 33, 0
2, 1372000, Control_c, 0, 64, 40
2, 1372008, Note_on_c, 0, 61, 0
2, 1372008, Note_on_c, 0, 57, 91
2, 1372012, Control_c, 0, 64, 0
2, 1372028, Note_on_c, 0, 45, 0
2, 1372044, Control_c, 0, 64, 24
2, 1372056, Control_c, 0, 64, 56
2, 1372068, Control_c, 0, 64, 104
2, 1372080, Control_c, 0, 64, 127
2, 1372108, Note_on_c, 0, 57, 0
2, 1372108, Note_on_c, 0, 81, 97
2, 1372112, Note_on_c, 0, 69, 92
2, 1372164, Note_on_c, 0, 69, 0
2, 1372196, Note_on_c, 0, 81, 0
2, 1372220, Note_on_c, 0, 59, 104
2, 1372300, Note_on_c, 0, 83, 103
2, 1372304, Note_on_c, 0, 71, 88
2, 1372336, Note_on_c, 0, 59, 0
2, 1372356, Note_on_c, 0, 71, 0
2, 1372376, Note_on_c, 0, 83, 0
2, 1372400, Note_on_c, 0, 84, 96
2, 1372408, Note_on_c, 0, 60, 106
2, 1372408, Note_on_c, 0, 72, 87
2, 1372408, Note_on_c, 0, 78, 73
2, 1372412, Note_on_c, 0, 81, 83
2, 1372412, Note_on_c, 0, 60, 76
2, 1372420, Note_on_c, 0, 51, 84
2, 1372424, Note_on_c, 0, 54, 69
2, 1372436, Control_c, 0, 64, 104
2, 1372440, Note_on_c, 0, 57, 71
2, 1372448, Control_c, 0, 64, 40
2, 1372456, Control_c, 0, 64, 0
2, 1372516, Note_on_c, 0, 84, 98
2, 1372520, Note_on_c, 0, 72, 94
2, 1372524, Control_c, 0, 64, 56
2, 1372540, Control_c, 0, 64, 104
2, 1372552, Control_c, 0, 64, 127
2, 1372588, Note_on_c, 0, 72, 0
2, 1372588, Note_on_c, 0, 84, 0
2, 1372588, Note_on_c, 0, 60, 0
2, 1372620, Note_on_c, 0, 57, 99
2, 1372732, Note_on_c, 0, 69, 87
2, 1372736, Note_on_c, 0, 81, 84
2, 1372788, Note_on_c, 0, 69, 0
2, 1372792, Note_on_c, 0, 57, 0
2, 1372792, Note_on_c, 0, 57, 0
2, 1372796, Note_on_c, 0, 81, 0
2, 1372820, Note_on_c, 0, 54, 98
2, 1372852, Note_on_c, 0, 84, 0
2, 1372900, Note_on_c, 0, 72, 0
2, 1372904, Note_on_c, 0, 78, 0
2, 1372912, Note_on_c, 0, 78, 98
2, 1372912, Note_on_c, 0, 66, 83
2, 1372920, Note_on_c, 0, 60, 0
2, 1372924, Note_on_c, 0, 51, 0
2, 1372948, Note_on_c, 0, 66, 0
2, 1372972, Note_on_c, 0, 78, 0
2, 1373004, Note_on_c, 0, 54, 0
2, 1373004, Note_on_c, 0, 83, 99
2, 1373016, Note_on_c, 0, 71, 78
2, 1373020, Note_on_c, 0, 54, 0
2, 1373020, Note_on_c, 0, 59, 101
2, 1373020, Note_on_c, 0, 76, 82
2, 1373020, Note_on_c, 0, 59, 68
2, 1373020, Note_on_c, 0, 57, 78
2, 1373024, Note_on_c, 0, 52, 85
2, 1373044, Control_c, 0, 64, 56
2, 1373056, Control_c, 0, 64, 0
2, 1373116, Note_on_c, 0, 83, 98
2, 1373120, Note_on_c, 0, 71, 88
2, 1373136, Control_c, 0, 64, 56
2, 1373148, Control_c, 0, 64, 104
2, 1373160, Control_c, 0, 64, 127
2, 1373176, Note_on_c, 0, 71, 0
2, 1373184, Note_on_c, 0, 83, 0
2, 1373188, Note_on_c, 0, 59, 0
2, 1373188, Note_on_c, 0, 59, 0
2, 1373216, Control_c, 0, 64, 72
2, 1373224, Note_on_c, 0, 57, 97
2, 1373228, Control_c, 0, 64, 40
2, 1373264, Control_c, 0, 64, 88
2, 1373272, Control_c, 0, 64, 127
2, 1373320, Note_on_c, 0, 57, 0
2, 1373324, Note_on_c, 0, 81, 94
2, 1373332, Note_on_c, 0, 69, 83
2, 1373352, Note_on_c, 0, 52, 0
2, 1373384, Note_on_c, 0, 69, 0
2, 1373388, Note_on_c, 0, 81, 0
2, 1373388, Note_on_c, 0, 57, 0
2, 1373412, Control_c, 0, 64, 104
2, 1373420, Note_on_c, 0, 52, 97
2, 1373424, Control_c, 0, 64, 40
2, 1373436, Control_c, 0, 64, 0
2, 1373448, Note_on_c, 0, 71, 0
2, 1373460, Note_on_c, 0, 83, 0
2, 1373460, Control_c, 0, 64, 24
2, 1373468, Control_c, 0, 64, 72
2, 1373472, Note_on_c, 0, 81, 0
2, 1373480, Control_c, 0, 64, 104
2, 1373492, Control_c, 0, 64, 127
2, 1373524, Note_on_c, 0, 76, 0
2, 1373524, Note_on_c, 0, 52, 0
2, 1373536, Note_on_c, 0, 64, 78
2, 1373540, Note_on_c, 0, 76, 93
2, 1373564, Note_on_c, 0, 64, 0
2, 1373580, Note_on_c, 0, 76, 0
2, 1373616, Note_on_c, 0, 85, 97
2, 1373624, Note_on_c, 0, 73, 78
2, 1373632, Note_on_c, 0, 76, 83
2, 1373632, Note_on_c, 0, 79, 81
2, 1373636, Note_on_c, 0, 61, 103
2, 1373644, Note_on_c, 0, 33, 83
2, 1373648, Note_on_c, 0, 45, 76
2, 1373652, Control_c, 0, 64, 56
2, 1373664, Control_c, 0, 64, 0
2, 1373724, Control_c, 0, 64, 56
2, 1373732, Control_c, 0, 64, 127
2, 1373740, Note_on_c, 0, 85, 93
2, 1373744, Note_on_c, 0, 73, 87
2, 1373784, Note_on_c, 0, 85, 0
2, 1373792, Note_on_c, 0, 73, 0
2, 1373808, Note_on_c, 0, 61, 0
2, 1373844, Note_on_c, 0, 55, 96
2, 1373872, Control_c, 0, 64, 88
2, 1373884, Control_c, 0, 64, 40
2, 1373920, Control_c, 0, 64, 88
2, 1373924, Note_on_c, 0, 33, 0
2, 1373932, Control_c, 0, 64, 127
2, 1373936, Note_on_c, 0, 79, 0
2, 1373936, Note_on_c, 0, 79, 95
2, 1373940, Note_on_c, 0, 76, 0
2, 1373944, Note_on_c, 0, 85, 0
2, 1373952, Note_on_c, 0, 67, 60
2, 1373964, Note_on_c, 0, 45, 0
2, 1373968, Note_on_c, 0, 73, 0
2, 1373992, Note_on_c, 0, 67, 0
2, 1374000, Note_on_c, 0, 79, 0
2, 1374032, Control_c, 0, 64, 104
2, 1374036, Note_on_c, 0, 52, 95
2, 1374044, Control_c, 0, 64, 40
2, 1374048, Note_on_c, 0, 55, 0
2, 1374056, Control_c, 0, 64, 0
2, 1374068, Control_c, 0, 64, 24
2, 1374080, Control_c, 0, 64, 40
2, 1374092, Control_c, 0, 64, 88
2, 1374104, Control_c, 0, 64, 127
2, 1374136, Note_on_c, 0, 76, 93
2, 1374140, Note_on_c, 0, 52, 0
2, 1374140, Note_on_c, 0, 64, 86
2, 1374184, Note_on_c, 0, 76, 0
2, 1374192, Note_on_c, 0, 64, 0
2, 1374300, Control_c, 0, 64, 0
2, 1374312, Note_on_c, 0, 66, 78
2, 1374312, Note_on_c, 0, 78, 75
2, 1374312, Note_on_c, 0, 69, 76
2, 1374312, Note_on_c, 0, 62, 73
2, 1374312, Note_on_c, 0, 57, 73
2, 1374332, Note_on_c, 0, 50, 68
2, 1374432, Note_on_c, 0, 65, 84
2, 1374436, Note_on_c, 0, 66, 0
2, 1374532, Note_on_c, 0, 57, 0
2, 1374532, Note_on_c, 0, 78, 0
2, 1374532, Note_on_c, 0, 62, 0
2, 1374532, Note_on_c, 0, 69, 0
2, 1374536, Note_on_c, 0, 66, 82
2, 1374540, Note_on_c, 0, 50, 0
2, 1374544, Note_on_c, 0, 65, 0
2, 1374560, Note_on_c, 0, 57, 58
2, 1374560, Note_on_c, 0, 54, 56
2, 1374648, Note_on_c, 0, 66, 0
2, 1374660, Note_on_c, 0, 68, 83
2, 1374736, Note_on_c, 0, 68, 0
2, 1374764, Note_on_c, 0, 69, 80
2, 1374784, Note_on_c, 0, 50, 64
2, 1374816, Note_on_c, 0, 54, 0
2, 1374860, Note_on_c, 0, 50, 0
2, 1374868, Note_on_c, 0, 69, 0
2, 1374876, Note_on_c, 0, 71, 92
2, 1374972, Note_on_c, 0, 57, 0
2, 1374980, Note_on_c, 0, 71, 0
2, 1374996, Note_on_c, 0, 73, 88
2, 1374996, Note_on_c, 0, 65, 76
2, 1374996, Note_on_c, 0, 61, 61
2, 1374996, Note_on_c, 0, 37, 69
2, 1374996, Note_on_c, 0, 49, 59
2, 1374996, Note_on_c, 0, 85, 88
2, 1374996, Note_on_c, 0, 77, 80
2, 1375028, Note_on_c, 0, 49, 62
2, 1375040, Control_c, 0, 64, 40
2, 1375052, Control_c, 0, 64, 72
2, 1375064, Control_c, 0, 64, 104
2, 1375076, Control_c, 0, 64, 127
2, 1375092, Note_on_c, 0, 73, 0
2, 1375096, Note_on_c, 0, 80, 89
2, 1375192, Note_on_c, 0, 80, 0
2, 1375204, Note_on_c, 0, 73, 87
2, 1375204, Note_on_c, 0, 53, 60
2, 1375204, Note_on_c, 0, 61, 62
2, 1375220, Note_on_c, 0, 49, 0
2, 1375220, Note_on_c, 0, 49, 0
2, 1375276, Note_on_c, 0, 73, 0
2, 1375308, Note_on_c, 0, 71, 84
2, 1375388, Note_on_c, 0, 71, 0
2, 1375400, Note_on_c, 0, 53, 0
2, 1375416, Note_on_c, 0, 69, 83
2, 1375416, Note_on_c, 0, 49, 66
2, 1375428, Note_on_c, 0, 37, 0
2, 1375448, Note_on_c, 0, 61, 0
2, 1375448, Note_on_c, 0, 61, 0
2, 1375480, Note_on_c, 0, 77, 0
2, 1375480, Note_on_c, 0, 85, 0
2, 1375488, Note_on_c, 0, 49, 0
2, 1375504, Note_on_c, 0, 69, 0
2, 1375516, Note_on_c, 0, 68, 83
2, 1375572, Control_c, 0, 64, 104
2, 1375584, Control_c, 0, 64, 72
2, 1375596, Control_c, 0, 64, 40
2, 1375600, Note_on_c, 0, 68, 0
2, 1375604, Control_c, 0, 64, 0
2, 1375616, Note_on_c, 0, 66, 83
2, 1375616, Note_on_c, 0, 50, 69
2, 1375616, Note_on_c, 0, 62, 61
2, 1375616, Note_on_c, 0, 38, 69
2, 1375616, Note_on_c, 0, 78, 73
2, 1375616, Note_on_c, 0, 69, 76
2, 1375640, Note_on_c, 0, 65, 0
2, 1375680, Control_c, 0, 64, 40
2, 1375692, Control_c, 0, 64, 88
2, 1375704, Control_c, 0, 64, 127
2, 1375720, Note_on_c, 0, 66, 0
2, 1375720, Note_on_c, 0, 65, 85
2, 1375800, Note_on_c, 0, 62, 0
2, 1375804, Note_on_c, 0, 38, 0
2, 1375804, Note_on_c, 0, 50, 0
2, 1375816, Note_on_c, 0, 65, 0
2, 1375824, Note_on_c, 0, 66, 82
2, 1375824, Note_on_c, 0, 54, 59
2, 1375824, Note_on_c, 0, 57, 58
2, 1375836, Note_on_c, 0, 78, 0
2, 1375836, Note_on_c, 0, 69, 0
2, 1375928, Note_on_c, 0, 66, 0
2, 1375928, Note_on_c, 0, 68, 86
2, 1375996, Note_on_c, 0, 54, 0
2, 1376004, Note_on_c, 0, 68, 0
2, 1376024, Note_on_c, 0, 69, 93
2, 1376024, Note_on_c, 0, 50, 60
2, 1376060, Note_on_c, 0, 50, 0
2, 1376100, Note_on_c, 0, 69, 0
2, 1376108, Note_on_c, 0, 57, 0
2, 1376124, Note_on_c, 0, 71, 89
2, 1376168, Control_c, 0, 64, 104
2, 1376180, Control_c, 0, 64, 88
2, 1376192, Control_c, 0, 64, 56
2, 1376200, Control_c, 0, 64, 0
2, 1376204, Note_on_c, 0, 71, 0
2, 1376228, Note_on_c, 0, 73, 90
2, 1376228, Note_on_c, 0, 49, 64
2, 1376228, Note_on_c, 0, 61, 62
2, 1376228, Note_on_c, 0, 65, 60
2, 1376228, Note_on_c, 0, 49, 59
2, 1376228, Note_on_c, 0, 37, 69
2, 1376228, Note_on_c, 0, 85, 84
2, 1376228, Note_on_c, 0, 77, 80
2, 1376288, Control_c, 0, 64, 24
2, 1376300, Control_c, 0, 64, 88
2, 1376312, Control_c, 0, 64, 127
2, 1376328, Note_on_c, 0, 73, 0
2, 1376336, Note_on_c, 0, 80, 88
2, 1376400, Note_on_c, 0, 49, 0
2, 1376428, Note_on_c, 0, 80, 0
2, 1376432, Note_on_c, 0, 73, 86
2, 1376432, Note_on_c, 0, 53, 64
2, 1376432, Note_on_c, 0, 61, 67
2, 1376504, Note_on_c, 0, 73, 0
2, 1376536, Note_on_c, 0, 71, 86
2, 1376604, Note_on_c, 0, 53, 0
2, 1376616, Note_on_c, 0, 71, 0
2, 1376640, Note_on_c, 0, 69, 83
2, 1376648, Note_on_c, 0, 49, 65
2, 1376708, Note_on_c, 0, 61, 0
2, 1376708, Note_on_c, 0, 61, 0
2, 1376712, Note_on_c, 0, 77, 0
2, 1376712, Note_on_c, 0, 85, 0
2, 1376716, Note_on_c, 0, 49, 0
2, 1376716, Note_on_c, 0, 49, 0
2, 1376724, Note_on_c, 0, 69, 0
2, 1376728, Note_on_c, 0, 68, 83
2, 1376736, Note_on_c, 0, 37, 0
2, 1376812, Note_on_c, 0, 65, 0
2, 1376820, Control_c, 0, 64, 88
2, 1376824, Note_on_c, 0, 68, 0
2, 1376832, Control_c, 0, 64, 72
2, 1376844, Note_on_c, 0, 62, 64
2, 1376844, Control_c, 0, 64, 24
2, 1376848, Note_on_c, 0, 66, 84
2, 1376848, Note_on_c, 0, 78, 72
2, 1376848, Note_on_c, 0, 69, 76
2, 1376852, Control_c, 0, 64, 0
2, 1376872, Note_on_c, 0, 50, 65
2, 1376872, Note_on_c, 0, 38, 70
2, 1376952, Control_c, 0, 64, 24
2, 1376960, Note_on_c, 0, 66, 0
2, 1376960, Note_on_c, 0, 65, 84
2, 1376960, Control_c, 0, 64, 56
2, 1376972, Control_c, 0, 64, 88
2, 1376984, Control_c, 0, 64, 127
2, 1377000, Note_on_c, 0, 62, 0
2, 1377040, Note_on_c, 0, 38, 0
2, 1377064, Note_on_c, 0, 50, 0
2, 1377064, Note_on_c, 0, 65, 0
2, 1377064, Note_on_c, 0, 66, 83
2, 1377068, Note_on_c, 0, 69, 0
2, 1377068, Note_on_c, 0, 78, 0
2, 1377088, Note_on_c, 0, 54, 51
2, 1377096, Note_on_c, 0, 57, 53
2, 1377164, Note_on_c, 0, 66, 0
2, 1377172, Note_on_c, 0, 68, 83
2, 1377256, Note_on_c, 0, 68, 0
2, 1377272, Note_on_c, 0, 54, 0
2, 1377276, Note_on_c, 0, 69, 85
2, 1377276, Note_on_c, 0, 50, 61
2, 1377308, Note_on_c, 0, 50, 0
2, 1377324, Note_on_c, 0, 57, 0
2, 1377356, Note_on_c, 0, 69, 0
2, 1377380, Note_on_c, 0, 71, 90
2, 1377448, Control_c, 0, 64, 88
2, 1377456, Note_on_c, 0, 71, 0
2, 1377460, Control_c, 0, 64, 40
2, 1377472, Control_c, 0, 64, 0
2, 1377488, Note_on_c, 0, 73, 90
2, 1377488, Note_on_c, 0, 51, 67
2, 1377488, Note_on_c, 0, 81, 80
2, 1377488, Note_on_c, 0, 78, 73
2, 1377488, Note_on_c, 0, 59, 63
2, 1377488, Note_on_c, 0, 39, 72
2, 1377488, Note_on_c, 0, 71, 73
2, 1377488, Note_on_c, 0, 69, 72
2, 1377548, Control_c, 0, 64, 56
2, 1377556, Control_c, 0, 64, 127
2, 1377584, Note_on_c, 0, 73, 0
2, 1377596, Note_on_c, 0, 81, 86
2, 1377608, Note_on_c, 0, 51, 0
2, 1377676, Note_on_c, 0, 81, 0
2, 1377704, Note_on_c, 0, 71, 87
2, 1377704, Note_on_c, 0, 59, 62
2, 1377704, Note_on_c, 0, 66, 61
2, 1377708, Note_on_c, 0, 69, 0
2, 1377708, Note_on_c, 0, 71, 0
2, 1377780, Note_on_c, 0, 71, 0
2, 1377800, Note_on_c, 0, 78, 0
2, 1377800, Note_on_c, 0, 69, 83
2, 1377876, Note_on_c, 0, 59, 0
2, 1377888, Note_on_c, 0, 81, 0
2, 1377904, Note_on_c, 0, 68, 78
2, 1377904, Note_on_c, 0, 51, 66
2, 1377968, Note_on_c, 0, 66, 0
2, 1377976, Note_on_c, 0, 51, 0
2, 1377980, Note_on_c, 0, 68, 0
2, 1377988, Note_on_c, 0, 39, 0
2, 1378004, Note_on_c, 0, 66, 87
2, 1378020, Note_on_c, 0, 59, 0
2, 1378088, Control_c, 0, 64, 72
2, 1378092, Note_on_c, 0, 69, 0
2, 1378100, Note_on_c, 0, 66, 0
2, 1378100, Control_c, 0, 64, 24
2, 1378112, Control_c, 0, 64, 0
2, 1378116, Note_on_c, 0, 68, 84
2, 1378116, Note_on_c, 0, 52, 68
2, 1378116, Note_on_c, 0, 88, 77
2, 1378116, Note_on_c, 0, 76, 72
2, 1378116, Note_on_c, 0, 40, 75
2, 1378188, Control_c, 0, 64, 24
2, 1378200, Control_c, 0, 64, 88
2, 1378208, Note_on_c, 0, 68, 0
2, 1378208, Control_c, 0, 64, 127
2, 1378220, Note_on_c, 0, 66, 79
2, 1378276, Note_on_c, 0, 40, 0
2, 1378300, Note_on_c, 0, 76, 0
2, 1378308, Note_on_c, 0, 52, 0
2, 1378320, Note_on_c, 0, 88, 0
2, 1378324, Note_on_c, 0, 66, 0
2, 1378336, Note_on_c, 0, 64, 76
2, 1378336, Note_on_c, 0, 62, 56
2, 1378336, Note_on_c, 0, 59, 60
2, 1378420, Note_on_c, 0, 64, 0
2, 1378432, Note_on_c, 0, 66, 76
2, 1378536, Note_on_c, 0, 66, 0
2, 1378540, Note_on_c, 0, 68, 78
2, 1378540, Note_on_c, 0, 52, 63
2, 1378540, Note_on_c, 0, 71, 76
2, 1378540, Note_on_c, 0, 64, 61
2, 1378540, Note_on_c, 0, 62, 60
2, 1378540, Note_on_c, 0, 40, 69
2, 1378612, Note_on_c, 0, 68, 0
2, 1378632, Note_on_c, 0, 71, 0
2, 1378636, Note_on_c, 0, 69, 88
2, 1378684, Note_on_c, 0, 71, 77
2, 1378720, Note_on_c, 0, 73, 80
2, 1378720, Control_c, 0, 64, 104
2, 1378736, Note_on_c, 0, 69, 0
2, 1378740, Control_c, 0, 64, 127
2, 1378744, Note_on_c, 0, 62, 0
2, 1378756, Note_on_c, 0, 71, 89
2, 1378756, Note_on_c, 0, 88, 76
2, 1378756, Note_on_c, 0, 76, 72
2, 1378768, Note_on_c, 0, 71, 0
2, 1378772, Note_on_c, 0, 64, 0
2, 1378776, Note_on_c, 0, 40, 0
2, 1378804, Note_on_c, 0, 73, 0
2, 1378828, Control_c, 0, 64, 56
2, 1378832, Note_on_c, 0, 71, 0
2, 1378836, Control_c, 0, 64, 72
2, 1378848, Control_c, 0, 64, 104
2, 1378860, Note_on_c, 0, 62, 0
2, 1378860, Control_c, 0, 64, 127
2, 1378864, Note_on_c, 0, 70, 79
2, 1378904, Note_on_c, 0, 59, 0
2, 1378944, Note_on_c, 0, 70, 0
2, 1378948, Control_c, 0, 64, 104
2, 1378956, Control_c, 0, 64, 72
2, 1378968, Control_c, 0, 64, 40
2, 1378976, Note_on_c, 0, 71, 90
2, 1378976, Note_on_c, 0, 62, 59
2, 1378976, Note_on_c, 0, 56, 63
2, 1378976, Note_on_c, 0, 64, 64
2, 1378976, Note_on_c, 0, 62, 56
2, 1378976, Note_on_c, 0, 52, 73
2, 1378976, Note_on_c, 0, 40, 71
2, 1378976, Note_on_c, 0, 72, 72
2, 1379008, Note_on_c, 0, 40, 0
2, 1379012, Control_c, 0, 64, 56
2, 1379020, Control_c, 0, 64, 88
2, 1379032, Control_c, 0, 64, 104
2, 1379040, Note_on_c, 0, 52, 0
2, 1379044, Control_c, 0, 64, 127
2, 1379052, Note_on_c, 0, 62, 0
2, 1379056, Note_on_c, 0, 56, 0
2, 1379068, Note_on_c, 0, 71, 0
2, 1379088, Note_on_c, 0, 72, 0
2, 1379088, Note_on_c, 0, 72, 91
2, 1379104, Note_on_c, 0, 62, 0
2, 1379120, Note_on_c, 0, 64, 0
2, 1379144, Control_c, 0, 64, 88
2, 1379152, Control_c, 0, 64, 40
2, 1379164, Control_c, 0, 64, 0
2, 1379180, Note_on_c, 0, 72, 0
2, 1379200, Note_on_c, 0, 73, 83
2, 1379200, Note_on_c, 0, 61, 58
2, 1379200, Note_on_c, 0, 64, 66
2, 1379200, Note_on_c, 0, 57, 73
2, 1379208, Note_on_c, 0, 52, 0
2, 1379216, Control_c, 0, 64, 40
2, 1379228, Control_c, 0, 64, 72
2, 1379240, Control_c, 0, 64, 104
2, 1379248, Note_on_c, 0, 57, 0
2, 1379248, Control_c, 0, 64, 127
2, 1379256, Note_on_c, 0, 61, 0
2, 1379264, Note_on_c, 0, 64, 0
2, 1379292, Note_on_c, 0, 73, 0
2, 1379316, Note_on_c, 0, 69, 81
2, 1379360, Note_on_c, 0, 76, 0
2, 1379360, Note_on_c, 0, 88, 0
2, 1379380, Control_c, 0, 64, 104
2, 1379392, Control_c, 0, 64, 56
2, 1379396, Note_on_c, 0, 69, 0
2, 1379404, Control_c, 0, 64, 0
2, 1379408, Note_on_c, 0, 83, 75
2, 1379448, Note_on_c, 0, 66, 83
2, 1379448, Note_on_c, 0, 50, 70
2, 1379448, Note_on_c, 0, 62, 73
2, 1379448, Note_on_c, 0, 38, 73
2, 1379448, Note_on_c, 0, 81, 85
2, 1379448, Note_on_c, 0, 69, 76
2, 1379468, Note_on_c, 0, 83, 0
2, 1379508, Note_on_c, 0, 81, 0
2, 1379508, Note_on_c, 0, 69, 0
2, 1379520, Control_c, 0, 64, 56
2, 1379532, Control_c, 0, 64, 88
2, 1379544, Control_c, 0, 64, 104
2, 1379552, Note_on_c, 0, 66, 0
2, 1379556, Control_c, 0, 64, 127
2, 1379564, Note_on_c, 0, 65, 85
2, 1379644, Note_on_c, 0, 50, 0
2, 1379656, Note_on_c, 0, 65, 0
2, 1379660, Note_on_c, 0, 66, 80
2, 1379660, Note_on_c, 0, 80, 84
2, 1379660, Note_on_c, 0, 69, 76
2, 1379672, Note_on_c, 0, 54, 57
2, 1379688, Note_on_c, 0, 57, 53
2, 1379720, Note_on_c, 0, 69, 0
2, 1379720, Note_on_c, 0, 80, 0
2, 1379748, Note_on_c, 0, 66, 0
2, 1379772, Note_on_c, 0, 68, 79
2, 1379836, Note_on_c, 0, 68, 0
2, 1379848, Note_on_c, 0, 62, 0
2, 1379856, Note_on_c, 0, 54, 0
2, 1379864, Note_on_c, 0, 69, 83
2, 1379864, Note_on_c, 0, 50, 64
2, 1379864, Note_on_c, 0, 66, 76
2, 1379864, Note_on_c, 0, 78, 83
2, 1379920, Note_on_c, 0, 50, 0
2, 1379924, Note_on_c, 0, 66, 0
2, 1379924, Note_on_c, 0, 78, 0
2, 1379944, Note_on_c, 0, 69, 0
2, 1379964, Note_on_c, 0, 57, 0
2, 1379976, Note_on_c, 0, 71, 88
2, 1380068, Note_on_c, 0, 71, 0
2, 1380076, Note_on_c, 0, 38, 0
2, 1380088, Note_on_c, 0, 73, 88
2, 1380088, Note_on_c, 0, 49, 74
2, 1380088, Note_on_c, 0, 65, 78
2, 1380088, Note_on_c, 0, 61, 63
2, 1380088, Note_on_c, 0, 37, 68
2, 1380088, Note_on_c, 0, 85, 98
2, 1380088, Note_on_c, 0, 77, 83
2, 1380096, Control_c, 0, 64, 88
2, 1380108, Control_c, 0, 64, 40
2, 1380116, Control_c, 0, 64, 0
2, 1380192, Note_on_c, 0, 73, 0
2, 1380200, Note_on_c, 0, 80, 86
2, 1380204, Control_c, 0, 64, 88
2, 1380216, Control_c, 0, 64, 127
2, 1380296, Note_on_c, 0, 80, 0
2, 1380308, Note_on_c, 0, 49, 0
2, 1380308, Note_on_c, 0, 73, 83
2, 1380308, Note_on_c, 0, 53, 65
2, 1380308, Note_on_c, 0, 61, 60
2, 1380384, Note_on_c, 0, 73, 0
2, 1380412, Note_on_c, 0, 71, 84
2, 1380488, Note_on_c, 0, 71, 0
2, 1380524, Note_on_c, 0, 69, 78
2, 1380524, Note_on_c, 0, 49, 63
2, 1380532, Note_on_c, 0, 85, 0
2, 1380532, Note_on_c, 0, 77, 0
2, 1380536, Note_on_c, 0, 53, 0
2, 1380600, Note_on_c, 0, 69, 0
2, 1380608, Note_on_c, 0, 49, 0
2, 1380612, Note_on_c, 0, 37, 0
2, 1380616, Note_on_c, 0, 61, 0
2, 1380616, Note_on_c, 0, 61, 0
2, 1380620, Note_on_c, 0, 68, 78
2, 1380716, Note_on_c, 0, 68, 0
2, 1380728, Note_on_c, 0, 65, 0
2, 1380744, Note_on_c, 0, 66, 81
2, 1380744, Note_on_c, 0, 50, 81
2, 1380744, Note_on_c, 0, 38, 71
2, 1380744, Note_on_c, 0, 74, 70
2, 1380744, Note_on_c, 0, 78, 74
2, 1380760, Control_c, 0, 64, 104
2, 1380768, Control_c, 0, 64, 56
2, 1380780, Control_c, 0, 64, 0
2, 1380840, Note_on_c, 0, 66, 0
2, 1380852, Note_on_c, 0, 65, 85
2, 1380864, Control_c, 0, 64, 56
2, 1380876, Control_c, 0, 64, 104
2, 1380888, Control_c, 0, 64, 127
2, 1380948, Note_on_c, 0, 65, 0
2, 1380948, Note_on_c, 0, 50, 0
2, 1380952, Note_on_c, 0, 66, 83
2, 1380952, Note_on_c, 0, 57, 59
2, 1380952, Note_on_c, 0, 54, 63
2, 1380964, Note_on_c, 0, 78, 0
2, 1380976, Note_on_c, 0, 74, 0
2, 1381020, Note_on_c, 0, 38, 0
2, 1381060, Note_on_c, 0, 68, 83
2, 1381064, Note_on_c, 0, 66, 0
2, 1381116, Note_on_c, 0, 54, 0
2, 1381140, Note_on_c, 0, 68, 0
2, 1381164, Note_on_c, 0, 69, 87
2, 1381164, Note_on_c, 0, 50, 62
2, 1381208, Note_on_c, 0, 57, 0
2, 1381220, Note_on_c, 0, 50, 0
2, 1381248, Note_on_c, 0, 69, 0
2, 1381272, Note_on_c, 0, 71, 89
2, 1381344, Note_on_c, 0, 71, 0
2, 1381364, Control_c, 0, 64, 72
2, 1381376, Control_c, 0, 64, 24
2, 1381380, Note_on_c, 0, 73, 87
2, 1381380, Note_on_c, 0, 49, 69
2, 1381380, Note_on_c, 0, 85, 98
2, 1381380, Note_on_c, 0, 77, 73
2, 1381384, Note_on_c, 0, 37, 70
2, 1381388, Control_c, 0, 64, 0
2, 1381452, Control_c, 0, 64, 40
2, 1381464, Control_c, 0, 64, 88
2, 1381476, Note_on_c, 0, 73, 0
2, 1381476, Control_c, 0, 64, 127
2, 1381484, Note_on_c, 0, 80, 88
2, 1381580, Note_on_c, 0, 49, 0
2, 1381592, Note_on_c, 0, 73, 83
2, 1381592, Note_on_c, 0, 53, 61
2, 1381592, Note_on_c, 0, 61, 61
2, 1381604, Note_on_c, 0, 80, 0
2, 1381668, Note_on_c, 0, 73, 0
2, 1381688, Note_on_c, 0, 71, 88
2, 1381768, Note_on_c, 0, 71, 0
2, 1381796, Note_on_c, 0, 53, 0
2, 1381796, Note_on_c, 0, 69, 83
2, 1381796, Note_on_c, 0, 49, 63
2, 1381864, Note_on_c, 0, 37, 0
2, 1381868, Note_on_c, 0, 77, 0
2, 1381880, Note_on_c, 0, 69, 0
2, 1381880, Note_on_c, 0, 49, 0
2, 1381892, Note_on_c, 0, 68, 82
2, 1381896, Note_on_c, 0, 61, 0
2, 1381964, Note_on_c, 0, 85, 0
2, 1381980, Note_on_c, 0, 68, 0
2, 1381984, Control_c, 0, 64, 104
2, 1381996, Control_c, 0, 64, 40
2, 1382004, Control_c, 0, 64, 0
2, 1382016, Note_on_c, 0, 66, 81
2, 1382016, Note_on_c, 0, 50, 72
2, 1382016, Note_on_c, 0, 38, 70
2, 1382016, Note_on_c, 0, 78, 74
2, 1382016, Note_on_c, 0, 74, 72
2, 1382092, Control_c, 0, 64, 72
2, 1382104, Control_c, 0, 64, 127
2, 1382116, Note_on_c, 0, 66, 0
2, 1382132, Note_on_c, 0, 65, 84
2, 1382204, Note_on_c, 0, 50, 0
2, 1382228, Note_on_c, 0, 78, 0
2, 1382228, Note_on_c, 0, 65, 0
2, 1382232, Note_on_c, 0, 66, 88
2, 1382232, Note_on_c, 0, 54, 61
2, 1382232, Note_on_c, 0, 57, 58
2, 1382236, Note_on_c, 0, 74, 0
2, 1382268, Note_on_c, 0, 38, 0
2, 1382340, Note_on_c, 0, 66, 0
2, 1382340, Note_on_c, 0, 68, 84
2, 1382404, Note_on_c, 0, 54, 0
2, 1382416, Note_on_c, 0, 68, 0
2, 1382448, Note_on_c, 0, 69, 85
2, 1382448, Note_on_c, 0, 50, 69
2, 1382472, Note_on_c, 0, 57, 0
2, 1382512, Note_on_c, 0, 50, 0
2, 1382532, Note_on_c, 0, 69, 0
2, 1382556, Note_on_c, 0, 71, 89
2, 1382624, Control_c, 0, 64, 56
2, 1382632, Note_on_c, 0, 71, 0
2, 1382632, Control_c, 0, 64, 0
2, 1382660, Note_on_c, 0, 73, 87
2, 1382660, Note_on_c, 0, 51, 72
2, 1382660, Note_on_c, 0, 81, 94
2, 1382660, Note_on_c, 0, 71, 68
2, 1382660, Note_on_c, 0, 78, 68
2, 1382660, Note_on_c, 0, 39, 71
2, 1382660, Note_on_c, 0, 69, 69
2, 1382700, Control_c, 0, 64, 72
2, 1382712, Control_c, 0, 64, 127
2, 1382752, Note_on_c, 0, 73, 0
2, 1382772, Note_on_c, 0, 81, 88
2, 1382800, Note_on_c, 0, 51, 0
2, 1382844, Note_on_c, 0, 81, 0
2, 1382844, Note_on_c, 0, 81, 0
2, 1382872, Note_on_c, 0, 71, 86
2, 1382872, Note_on_c, 0, 59, 64
2, 1382872, Note_on_c, 0, 66, 61
2, 1382880, Note_on_c, 0, 69, 0
2, 1382952, Note_on_c, 0, 71, 0
2, 1382952, Note_on_c, 0, 71, 0
2, 1382968, Note_on_c, 0, 69, 85
2, 1382972, Note_on_c, 0, 78, 0
2, 1383068, Note_on_c, 0, 39, 0
2, 1383072, Note_on_c, 0, 68, 80
2, 1383072, Note_on_c, 0, 51, 66
2, 1383092, Note_on_c, 0, 59, 0
2, 1383096, Note_on_c, 0, 66, 0
2, 1383136, Note_on_c, 0, 51, 0
2, 1383152, Note_on_c, 0, 68, 0
2, 1383172, Note_on_c, 0, 66, 83
2, 1383228, Note_on_c, 0, 69, 0
2, 1383272, Note_on_c, 0, 66, 0
2, 1383272, Control_c, 0, 64, 104
2, 1383284, Control_c, 0, 64, 56
2, 1383292, Note_on_c, 0, 68, 82
2, 1383292, Note_on_c, 0, 52, 67
2, 1383292, Note_on_c, 0, 40, 76
2, 1383292, Note_on_c, 0, 59, 67
2, 1383292, Note_on_c, 0, 88, 99
2, 1383292, Note_on_c, 0, 76, 76
2, 1383296, Control_c, 0, 64, 0
2, 1383372, Control_c, 0, 64, 24
2, 1383376, Note_on_c, 0, 68, 0
2, 1383384, Control_c, 0, 64, 72
2, 1383392, Control_c, 0, 64, 104
2, 1383396, Note_on_c, 0, 66, 80
2, 1383404, Control_c, 0, 64, 127
2, 1383480, Note_on_c, 0, 59, 0
2, 1383492, Note_on_c, 0, 66, 0
2, 1383508, Note_on_c, 0, 64, 83
2, 1383508, Note_on_c, 0, 59, 62
2, 1383508, Note_on_c, 0, 62, 58
2, 1383524, Note_on_c, 0, 52, 0
2, 1383532, Note_on_c, 0, 40, 0
2, 1383600, Note_on_c, 0, 64, 0
2, 1383608, Note_on_c, 0, 66, 75
2, 1383716, Note_on_c, 0, 66, 0
2, 1383716, Note_on_c, 0, 68, 80
2, 1383716, Note_on_c, 0, 52, 76
2, 1383716, Note_on_c, 0, 64, 63
2, 1383720, Control_c, 0, 64, 56
2, 1383732, Control_c, 0, 64, 0
2, 1383776, Control_c, 0, 64, 24
2, 1383784, Control_c, 0, 64, 56
2, 1383788, Note_on_c, 0, 68, 0
2, 1383792, Control_c, 0, 64, 88
2, 1383808, Control_c, 0, 64, 127
2, 1383812, Note_on_c, 0, 69, 88
2, 1383872, Note_on_c, 0, 71, 76
2, 1383892, Note_on_c, 0, 69, 0
2, 1383896, Note_on_c, 0, 76, 0
2, 1383900, Note_on_c, 0, 73, 76
2, 1383908, Note_on_c, 0, 88, 0
2, 1383916, Note_on_c, 0, 71, 0
2, 1383924, Note_on_c, 0, 71, 90
2, 1383924, Note_on_c, 0, 76, 78
2, 1383924, Note_on_c, 0, 64, 73
2, 1383944, Note_on_c, 0, 73, 0
2, 1383956, Note_on_c, 0, 64, 0
2, 1383972, Note_on_c, 0, 62, 0
2, 1383988, Note_on_c, 0, 71, 0
2, 1384028, Note_on_c, 0, 70, 84
2, 1384040, Note_on_c, 0, 59, 0
2, 1384104, Note_on_c, 0, 70, 0
2, 1384132, Control_c, 0, 64, 104
2, 1384140, Control_c, 0, 64, 56
2, 1384148, Note_on_c, 0, 71, 84
2, 1384148, Note_on_c, 0, 56, 61
2, 1384148, Note_on_c, 0, 62, 64
2, 1384148, Note_on_c, 0, 64, 66
2, 1384148, Note_on_c, 0, 52, 68
2, 1384152, Control_c, 0, 64, 40
2, 1384184, Control_c, 0, 64, 72
2, 1384196, Control_c, 0, 64, 88
2, 1384208, Note_on_c, 0, 52, 0
2, 1384208, Control_c, 0, 64, 104
2, 1384220, Control_c, 0, 64, 127
2, 1384224, Note_on_c, 0, 71, 0
2, 1384256, Note_on_c, 0, 72, 88
2, 1384264, Note_on_c, 0, 56, 0
2, 1384272, Note_on_c, 0, 64, 0
2, 1384308, Note_on_c, 0, 62, 0
2, 1384324, Control_c, 0, 64, 88
2, 1384336, Control_c, 0, 64, 40
2, 1384348, Note_on_c, 0, 72, 0
2, 1384348, Control_c, 0, 64, 0
2, 1384352, Note_on_c, 0, 64, 0
2, 1384352, Note_on_c, 0, 76, 0
2, 1384376, Note_on_c, 0, 73, 86
2, 1384376, Note_on_c, 0, 61, 66
2, 1384376, Note_on_c, 0, 57, 68
2, 1384376, Note_on_c, 0, 64, 67
2, 1384392, Note_on_c, 0, 52, 0
2, 1384392, Control_c, 0, 64, 24
2, 1384400, Note_on_c, 0, 64, 0
2, 1384404, Control_c, 0, 64, 56
2, 1384412, Control_c, 0, 64, 104
2, 1384416, Note_on_c, 0, 61, 0
2, 1384424, Note_on_c, 0, 57, 0
2, 1384424, Control_c, 0, 64, 127
2, 1384456, Note_on_c, 0, 73, 0
2, 1384492, Note_on_c, 0, 69, 83
2, 1384524, Control_c, 0, 64, 56
2, 1384532, Control_c, 0, 64, 0
2, 1384588, Note_on_c, 0, 69, 0
2, 1384624, Note_on_c, 0, 76, 98
2, 1384624, Note_on_c, 0, 45, 84
2, 1384624, Note_on_c, 0, 52, 73
2, 1384624, Note_on_c, 0, 61, 74
2, 1384640, Control_c, 0, 64, 88
2, 1384652, Control_c, 0, 64, 127
2, 1384676, Note_on_c, 0, 45, 0
2, 1384728, Note_on_c, 0, 76, 0
2, 1384744, Note_on_c, 0, 73, 82
2, 1384844, Note_on_c, 0, 55, 71
2, 1384844, Note_on_c, 0, 64, 70
2, 1384848, Note_on_c, 0, 69, 77
2, 1384848, Note_on_c, 0, 61, 56
2, 1384932, Note_on_c, 0, 61, 0
2, 1384936, Note_on_c, 0, 55, 0
2, 1384936, Note_on_c, 0, 52, 0
2, 1384940, Note_on_c, 0, 73, 83
2, 1384948, Note_on_c, 0, 61, 0
2, 1385024, Note_on_c, 0, 73, 0
2, 1385024, Note_on_c, 0, 73, 0
2, 1385032, Note_on_c, 0, 64, 0
2, 1385060, Note_on_c, 0, 76, 87
2, 1385124, Note_on_c, 0, 69, 0
2, 1385132, Note_on_c, 0, 76, 0
2, 1385156, Note_on_c, 0, 81, 84
2, 1385228, Control_c, 0, 64, 88
2, 1385236, Note_on_c, 0, 81, 0
2, 1385240, Control_c, 0, 64, 0
2, 1385276, Note_on_c, 0, 75, 92
2, 1385276, Note_on_c, 0, 45, 86
2, 1385276, Note_on_c, 0, 66, 77
2, 1385276, Note_on_c, 0, 63, 68
2, 1385276, Note_on_c, 0, 60, 73
2, 1385292, Control_c, 0, 64, 88
2, 1385304, Control_c, 0, 64, 127
2, 1385312, Note_on_c, 0, 45, 0
2, 1385368, Note_on_c, 0, 75, 0
2, 1385388, Note_on_c, 0, 72, 91
2, 1385496, Note_on_c, 0, 69, 80
2, 1385496, Note_on_c, 0, 60, 72
2, 1385496, Note_on_c, 0, 54, 63
2, 1385496, Note_on_c, 0, 63, 78
2, 1385596, Note_on_c, 0, 72, 88
2, 1385608, Note_on_c, 0, 60, 0
2, 1385628, Note_on_c, 0, 54, 0
2, 1385668, Note_on_c, 0, 72, 0
2, 1385672, Note_on_c, 0, 66, 0
2, 1385704, Note_on_c, 0, 75, 80
2, 1385720, Note_on_c, 0, 60, 0
2, 1385724, Note_on_c, 0, 63, 0
2, 1385776, Note_on_c, 0, 75, 0
2, 1385800, Note_on_c, 0, 81, 87
2, 1385804, Note_on_c, 0, 63, 0
2, 1385832, Note_on_c, 0, 69, 0
2, 1385864, Note_on_c, 0, 72, 0
2, 1385868, Note_on_c, 0, 81, 0
2, 1385880, Control_c, 0, 64, 40
2, 1385888, Control_c, 0, 64, 0
2, 1385904, Note_on_c, 0, 74, 92
2, 1385904, Note_on_c, 0, 45, 91
2, 1385904, Note_on_c, 0, 59, 71
2, 1385904, Note_on_c, 0, 62, 71
2, 1385904, Note_on_c, 0, 68, 68
2, 1385932, Control_c, 0, 64, 56
2, 1385944, Control_c, 0, 64, 127
2, 1385952, Note_on_c, 0, 45, 0
2, 1385984, Note_on_c, 0, 74, 0
2, 1386012, Note_on_c, 0, 71, 78
2, 1386112, Note_on_c, 0, 69, 78
2, 1386120, Note_on_c, 0, 62, 77
2, 1386128, Note_on_c, 0, 59, 68
2, 1386136, Note_on_c, 0, 53, 62
2, 1386208, Note_on_c, 0, 71, 81
2, 1386216, Note_on_c, 0, 59, 0
2, 1386232, Note_on_c, 0, 59, 0
2, 1386236, Note_on_c, 0, 53, 0
2, 1386236, Note_on_c, 0, 62, 0
2, 1386284, Note_on_c, 0, 71, 0
2, 1386320, Note_on_c, 0, 74, 84
2, 1386344, Note_on_c, 0, 68, 0
2, 1386384, Note_on_c, 0, 62, 0
2, 1386392, Note_on_c, 0, 74, 0
2, 1386408, Note_on_c, 0, 81, 84
2, 1386420, Note_on_c, 0, 69, 0
2, 1386468, Note_on_c, 0, 81, 0
2, 1386508, Control_c, 0, 64, 72
2, 1386520, Control_c, 0, 64, 0
2, 1386536, Note_on_c, 0, 73, 90
2, 1386536, Note_on_c, 0, 45, 88
2, 1386536, Note_on_c, 0, 61, 64
2, 1386536, Note_on_c, 0, 69, 68
2, 1386556, Note_on_c, 0, 45, 0
2, 1386572, Control_c, 0, 64, 56
2, 1386580, Note_on_c, 0, 71, 0
2, 1386584, Control_c, 0, 64, 127
2, 1386608, Note_on_c, 0, 73, 0
2, 1386632, Note_on_c, 0, 69, 83
2, 1386720, Note_on_c, 0, 69, 0
2, 1386740, Note_on_c, 0, 64, 81
2, 1386740, Note_on_c, 0, 61, 68
2, 1386740, Note_on_c, 0, 52, 71
2, 1386740, Note_on_c, 0, 57, 70
2, 1386796, Note_on_c, 0, 57, 0
2, 1386824, Note_on_c, 0, 52, 0
2, 1386836, Note_on_c, 0, 61, 0
2, 1386836, Note_on_c, 0, 69, 0
2, 1386844, Note_on_c, 0, 69, 80
2, 1386856, Note_on_c, 0, 61, 0
2, 1386912, Note_on_c, 0, 69, 0
2, 1386916, Note_on_c, 0, 64, 0
2, 1386944, Note_on_c, 0, 73, 80
2, 1387024, Note_on_c, 0, 73, 0
2, 1387040, Note_on_c, 0, 81, 88
2, 1387136, Note_on_c, 0, 81, 0
2, 1387136, Control_c, 0, 64, 56
2, 1387148, Control_c, 0, 64, 0
2, 1387152, Note_on_c, 0, 73, 98
2, 1387176, Note_on_c, 0, 64, 73
2, 1387176, Note_on_c, 0, 33, 72
2, 1387176, Note_on_c, 0, 43, 86
2, 1387176, Note_on_c, 0, 45, 74
2, 1387200, Control_c, 0, 64, 40
2, 1387212, Control_c, 0, 64, 127
2, 1387264, Note_on_c, 0, 69, 74
2, 1387372, Note_on_c, 0, 57, 63
2, 1387372, Note_on_c, 0, 64, 72
2, 1387372, Note_on_c, 0, 61, 71
2, 1387432, Note_on_c, 0, 43, 0
2, 1387444, Note_on_c, 0, 73, 0
2, 1387464, Note_on_c, 0, 64, 0
2, 1387464, Note_on_c, 0, 64, 0
2, 1387476, Note_on_c, 0, 69, 81
2, 1387480, Note_on_c, 0, 61, 0
2, 1387488, Note_on_c, 0, 57, 0
2, 1387520, Note_on_c, 0, 45, 0
2, 1387556, Note_on_c, 0, 69, 0
2, 1387556, Note_on_c, 0, 69, 0
2, 1387588, Note_on_c, 0, 73, 86
2, 1387608, Note_on_c, 0, 33, 0
2, 1387660, Note_on_c, 0, 73, 0
2, 1387680, Note_on_c, 0, 81, 90
2, 1387756, Note_on_c, 0, 81, 0
2, 1387792, Note_on_c, 0, 63, 68
2, 1387792, Note_on_c, 0, 42, 88
2, 1387792, Note_on_c, 0, 45, 69
2, 1387792, Note_on_c, 0, 72, 98
2, 1387792, Note_on_c, 0, 60, 76
2, 1387792, Note_on_c, 0, 69, 73
2, 1387812, Control_c, 0, 64, 40
2, 1387820, Control_c, 0, 64, 104
2, 1387832, Control_c, 0, 64, 127
2, 1387900, Note_on_c, 0, 69, 81
2, 1387968, Note_on_c, 0, 42, 0
2, 1387976, Note_on_c, 0, 63, 0
2, 1387988, Note_on_c, 0, 72, 0
2, 1387992, Note_on_c, 0, 69, 0
2, 1388008, Note_on_c, 0, 63, 72
2, 1388016, Note_on_c, 0, 60, 72
2, 1388024, Note_on_c, 0, 57, 70
2, 1388048, Note_on_c, 0, 45, 0
2, 1388052, Note_on_c, 0, 60, 0
2, 1388056, Note_on_c, 0, 63, 0
2, 1388068, Note_on_c, 0, 57, 0
2, 1388100, Note_on_c, 0, 69, 78
2, 1388196, Note_on_c, 0, 72, 81
2, 1388220, Note_on_c, 0, 69, 0
2, 1388220, Note_on_c, 0, 60, 0
2, 1388220, Note_on_c, 0, 69, 0
2, 1388268, Note_on_c, 0, 72, 0
2, 1388296, Note_on_c, 0, 81, 79
2, 1388312, Control_c, 0, 64, 88
2, 1388320, Control_c, 0, 64, 56
2, 1388332, Control_c, 0, 64, 24
2, 1388344, Note_on_c, 0, 81, 0
2, 1388344, Control_c, 0, 64, 0
2, 1388404, Note_on_c, 0, 41, 88
2, 1388404, Note_on_c, 0, 45, 74
2, 1388412, Note_on_c, 0, 71, 93
2, 1388412, Note_on_c, 0, 62, 76
2, 1388412, Note_on_c, 0, 59, 72
2, 1388424, Control_c, 0, 64, 40
2, 1388436, Control_c, 0, 64, 127
2, 1388456, Note_on_c, 0, 41, 0
2, 1388508, Note_on_c, 0, 71, 0
2, 1388528, Note_on_c, 0, 69, 88
2, 1388624, Note_on_c, 0, 69, 0
2, 1388632, Note_on_c, 0, 62, 81
2, 1388636, Note_on_c, 0, 59, 72
2, 1388648, Note_on_c, 0, 57, 64
2, 1388664, Note_on_c, 0, 62, 0
2, 1388668, Note_on_c, 0, 59, 0
2, 1388672, Note_on_c, 0, 57, 0
2, 1388728, Note_on_c, 0, 69, 83
2, 1388748, Note_on_c, 0, 45, 0
2, 1388808, Note_on_c, 0, 69, 0
2, 1388828, Note_on_c, 0, 71, 83
2, 1388840, Note_on_c, 0, 59, 0
2, 1388840, Note_on_c, 0, 62, 0
2, 1388876, Note_on_c, 0, 71, 0
2, 1388936, Note_on_c, 0, 81, 84
2, 1388980, Control_c, 0, 64, 56
2, 1388992, Control_c, 0, 64, 0
2, 1389000, Note_on_c, 0, 81, 0
2, 1389028, Note_on_c, 0, 61, 68
2, 1389028, Note_on_c, 0, 40, 88
2, 1389028, Note_on_c, 0, 69, 89
2, 1389028, Note_on_c, 0, 57, 69
2, 1389028, Note_on_c, 0, 45, 70
2, 1389048, Control_c, 0, 64, 40
2, 1389060, Control_c, 0, 64, 127
2, 1389068, Note_on_c, 0, 40, 0
2, 1389100, Note_on_c, 0, 69, 0
2, 1389140, Note_on_c, 0, 64, 84
2, 1389160, Note_on_c, 0, 64, 0
2, 1389244, Note_on_c, 0, 61, 80
2, 1389248, Note_on_c, 0, 57, 82
2, 1389348, Note_on_c, 0, 69, 94
2, 1389412, Note_on_c, 0, 61, 0
2, 1389416, Note_on_c, 0, 57, 0
2, 1389448, Note_on_c, 0, 73, 88
2, 1389456, Note_on_c, 0, 57, 0
2, 1389456, Note_on_c, 0, 61, 0
2, 1389460, Note_on_c, 0, 45, 0
2, 1389524, Note_on_c, 0, 69, 0
2, 1389532, Note_on_c, 0, 73, 0
2, 1389544, Note_on_c, 0, 81, 83
2, 1389564, Note_on_c, 0, 81, 0
2, 1389672, Control_c, 0, 64, 72
2, 1389684, Control_c, 0, 64, 0
2, 1389704, Note_on_c, 0, 85, 107
2, 1389704, Note_on_c, 0, 73, 101
2, 1389704, Note_on_c, 0, 81, 90
2, 1389704, Note_on_c, 0, 50, 98
2, 1389704, Note_on_c, 0, 38, 93
2, 1389704, Note_on_c, 0, 78, 87
2, 1389704, Note_on_c, 0, 61, 84
2, 1389720, Note_on_c, 0, 81, 0
2, 1389748, Note_on_c, 0, 50, 0
2, 1389752, Note_on_c, 0, 78, 0
2, 1389752, Control_c, 0, 64, 104
2, 1389756, Note_on_c, 0, 38, 0
2, 1389756, Note_on_c, 0, 73, 0
2, 1389764, Note_on_c, 0, 85, 0
2, 1389764, Control_c, 0, 64, 127
2, 1389940, Note_on_c, 0, 50, 86
2, 1389956, Note_on_c, 0, 38, 73
2, 1389960, Note_on_c, 0, 61, 0
2, 1390012, Note_on_c, 0, 50, 0
2, 1390028, Note_on_c, 0, 38, 0
2, 1390040, Note_on_c, 0, 54, 86
2, 1390048, Note_on_c, 0, 42, 68
2, 1390120, Note_on_c, 0, 54, 0
2, 1390140, Note_on_c, 0, 42, 0
2, 1390144, Note_on_c, 0, 61, 85
2, 1390168, Note_on_c, 0, 49, 71
2, 1390204, Note_on_c, 0, 61, 0
2, 1390216, Note_on_c, 0, 49, 0
2, 1390256, Note_on_c, 0, 50, 88
2, 1390268, Note_on_c, 0, 38, 78
2, 1390344, Note_on_c, 0, 38, 0
2, 1390360, Note_on_c, 0, 54, 89
2, 1390360, Note_on_c, 0, 42, 73
2, 1390360, Note_on_c, 0, 66, 88
2, 1390388, Note_on_c, 0, 50, 0
2, 1390452, Note_on_c, 0, 42, 0
2, 1390456, Note_on_c, 0, 49, 75
2, 1390460, Note_on_c, 0, 61, 82
2, 1390468, Note_on_c, 0, 54, 0
2, 1390476, Note_on_c, 0, 49, 0
2, 1390496, Note_on_c, 0, 61, 0
2, 1390568, Note_on_c, 0, 62, 88
2, 1390580, Note_on_c, 0, 50, 67
2, 1390616, Note_on_c, 0, 66, 0
2, 1390620, Note_on_c, 0, 62, 0
2, 1390648, Note_on_c, 0, 50, 0
2, 1390660, Note_on_c, 0, 66, 85
2, 1390660, Note_on_c, 0, 54, 69
2, 1390660, Note_on_c, 0, 68, 90
2, 1390660, Note_on_c, 0, 56, 83
2, 1390720, Note_on_c, 0, 56, 0
2, 1390720, Note_on_c, 0, 68, 0
2, 1390732, Note_on_c, 0, 66, 0
2, 1390740, Note_on_c, 0, 54, 0
2, 1390760, Note_on_c, 0, 73, 88
2, 1390760, Note_on_c, 0, 61, 75
2, 1390760, Note_on_c, 0, 69, 91
2, 1390760, Note_on_c, 0, 57, 84
2, 1390812, Note_on_c, 0, 61, 0
2, 1390820, Note_on_c, 0, 57, 0
2, 1390820, Note_on_c, 0, 69, 0
2, 1390836, Note_on_c, 0, 73, 0
2, 1390864, Note_on_c, 0, 62, 97
2, 1390864, Note_on_c, 0, 50, 81
2, 1390864, Note_on_c, 0, 71, 93
2, 1390864, Note_on_c, 0, 59, 84
2, 1390924, Note_on_c, 0, 59, 0
2, 1390924, Note_on_c, 0, 71, 0
2, 1390968, Note_on_c, 0, 66, 93
2, 1390968, Note_on_c, 0, 54, 78
2, 1390968, Note_on_c, 0, 73, 96
2, 1390968, Note_on_c, 0, 61, 86
2, 1390972, Note_on_c, 0, 50, 0
2, 1391016, Note_on_c, 0, 62, 0
2, 1391028, Note_on_c, 0, 73, 0
2, 1391028, Note_on_c, 0, 61, 0
2, 1391072, Note_on_c, 0, 73, 83
2, 1391076, Note_on_c, 0, 54, 0
2, 1391076, Note_on_c, 0, 61, 72
2, 1391088, Note_on_c, 0, 66, 0
2, 1391112, Note_on_c, 0, 73, 0
2, 1391124, Note_on_c, 0, 61, 0
2, 1391180, Note_on_c, 0, 74, 85
2, 1391204, Note_on_c, 0, 62, 77
2, 1391228, Note_on_c, 0, 74, 0
2, 1391260, Note_on_c, 0, 62, 0
2, 1391268, Note_on_c, 0, 78, 88
2, 1391276, Note_on_c, 0, 66, 70
2, 1391348, Note_on_c, 0, 78, 0
2, 1391356, Note_on_c, 0, 66, 0
2, 1391364, Note_on_c, 0, 85, 92
2, 1391364, Note_on_c, 0, 73, 74
2, 1391364, Note_on_c, 0, 66, 98
2, 1391364, Note_on_c, 0, 54, 88
2, 1391420, Note_on_c, 0, 73, 0
2, 1391424, Note_on_c, 0, 54, 0
2, 1391424, Note_on_c, 0, 66, 0
2, 1391440, Note_on_c, 0, 85, 0
2, 1391460, Note_on_c, 0, 74, 97
2, 1391480, Note_on_c, 0, 62, 81
2, 1391560, Note_on_c, 0, 78, 102
2, 1391560, Note_on_c, 0, 66, 87
2, 1391560, Note_on_c, 0, 73, 88
2, 1391560, Note_on_c, 0, 69, 88
2, 1391560, Note_on_c, 0, 62, 88
2, 1391560, Note_on_c, 0, 50, 91
2, 1391576, Note_on_c, 0, 62, 0
2, 1391596, Note_on_c, 0, 74, 0
2, 1391660, Note_on_c, 0, 85, 87
2, 1391672, Note_on_c, 0, 73, 72
2, 1391696, Note_on_c, 0, 73, 0
2, 1391704, Note_on_c, 0, 85, 0
2, 1391720, Note_on_c, 0, 69, 0
2, 1391724, Note_on_c, 0, 62, 0
2, 1391736, Note_on_c, 0, 50, 0
2, 1391744, Note_on_c, 0, 73, 0
2, 1391768, Note_on_c, 0, 86, 97
2, 1391780, Note_on_c, 0, 78, 0
2, 1391780, Note_on_c, 0, 66, 0
2, 1391796, Note_on_c, 0, 74, 70
2, 1391856, Note_on_c, 0, 90, 96
2, 1391864, Note_on_c, 0, 78, 73
2, 1391872, Note_on_c, 0, 86, 0
2, 1391956, Note_on_c, 0, 78, 0
2, 1391956, Note_on_c, 0, 97, 99
2, 1391956, Note_on_c, 0, 85, 78
2, 1391956, Note_on_c, 0, 73, 91
2, 1391956, Note_on_c, 0, 69, 84
2, 1391956, Note_on_c, 0, 62, 83
2, 1391956, Note_on_c, 0, 50, 84
2, 1391972, Note_on_c, 0, 90, 0
2, 1392036, Note_on_c, 0, 85, 0
2, 1392048, Note_on_c, 0, 97, 0
2, 1392060, Note_on_c, 0, 74, 0
2, 1392060, Note_on_c, 0, 86, 94
2, 1392060, Note_on_c, 0, 74, 80
2, 1392096, Note_on_c, 0, 74, 0
2, 1392136, Note_on_c, 0, 62, 0
2, 1392136, Note_on_c, 0, 69, 0
2, 1392136, Note_on_c, 0, 50, 0
2, 1392136, Note_on_c, 0, 73, 0
2, 1392144, Note_on_c, 0, 86, 0
2, 1392180, Control_c, 0, 64, 72
2, 1392196, Control_c, 0, 64, 0
2, 1392212, Note_on_c, 0, 83, 109
2, 1392212, Note_on_c, 0, 56, 88
2, 1392212, Note_on_c, 0, 78, 89
2, 1392212, Note_on_c, 0, 68, 86
2, 1392212, Note_on_c, 0, 74, 94
2, 1392212, Note_on_c, 0, 71, 93
2, 1392212, Note_on_c, 0, 54, 84
2, 1392212, Note_on_c, 0, 44, 87
2, 1392248, Note_on_c, 0, 68, 0
2, 1392252, Note_on_c, 0, 74, 0
2, 1392252, Control_c, 0, 64, 72
2, 1392256, Note_on_c, 0, 56, 0
2, 1392260, Note_on_c, 0, 78, 0
2, 1392264, Control_c, 0, 64, 127
2, 1392268, Note_on_c, 0, 83, 0
2, 1392392, Note_on_c, 0, 54, 0
2, 1392392, Note_on_c, 0, 71, 0
2, 1392392, Note_on_c, 0, 44, 0
2, 1392464, Note_on_c, 0, 50, 84
2, 1392464, Note_on_c, 0, 38, 83
2, 1392508, Note_on_c, 0, 50, 0
2, 1392560, Note_on_c, 0, 54, 93
2, 1392564, Note_on_c, 0, 38, 0
2, 1392572, Note_on_c, 0, 42, 73
2, 1392648, Note_on_c, 0, 54, 0
2, 1392660, Note_on_c, 0, 42, 0
2, 1392672, Note_on_c, 0, 59, 87
2, 1392696, Note_on_c, 0, 47, 68
2, 1392728, Note_on_c, 0, 47, 0
2, 1392736, Note_on_c, 0, 59, 0
2, 1392776, Note_on_c, 0, 50, 94
2, 1392784, Note_on_c, 0, 38, 79
2, 1392856, Control_c, 0, 64, 88
2, 1392864, Control_c, 0, 64, 24
2, 1392876, Control_c, 0, 64, 0
2, 1392880, Note_on_c, 0, 42, 74
2, 1392880, Note_on_c, 0, 54, 92
2, 1392880, Note_on_c, 0, 71, 91
2, 1392880, Note_on_c, 0, 59, 84
2, 1392900, Note_on_c, 0, 38, 0
2, 1392900, Control_c, 0, 64, 56
2, 1392912, Control_c, 0, 64, 127
2, 1392952, Note_on_c, 0, 50, 0
2, 1392984, Note_on_c, 0, 59, 81
2, 1392988, Note_on_c, 0, 47, 72
2, 1392996, Note_on_c, 0, 54, 0
2, 1392996, Note_on_c, 0, 42, 0
2, 1393012, Note_on_c, 0, 47, 0
2, 1393020, Note_on_c, 0, 59, 0
2, 1393060, Note_on_c, 0, 59, 0
2, 1393060, Note_on_c, 0, 71, 0
2, 1393096, Note_on_c, 0, 62, 88
2, 1393108, Note_on_c, 0, 50, 81
2, 1393172, Note_on_c, 0, 62, 0
2, 1393176, Note_on_c, 0, 50, 0
2, 1393192, Note_on_c, 0, 66, 86
2, 1393192, Note_on_c, 0, 54, 77
2, 1393192, Note_on_c, 0, 73, 93
2, 1393192, Note_on_c, 0, 61, 84
2, 1393272, Note_on_c, 0, 54, 0
2, 1393280, Note_on_c, 0, 66, 0
2, 1393280, Note_on_c, 0, 73, 0
2, 1393280, Note_on_c, 0, 61, 0
2, 1393308, Note_on_c, 0, 71, 85
2, 1393308, Note_on_c, 0, 59, 75
2, 1393308, Note_on_c, 0, 74, 94
2, 1393308, Note_on_c, 0, 62, 86
2, 1393380, Note_on_c, 0, 71, 0
2, 1393384, Note_on_c, 0, 59, 0
2, 1393396, Note_on_c, 0, 74, 0
2, 1393396, Note_on_c, 0, 62, 0
2, 1393412, Note_on_c, 0, 62, 88
2, 1393412, Note_on_c, 0, 50, 79
2, 1393412, Note_on_c, 0, 76, 97
2, 1393412, Note_on_c, 0, 64, 88
2, 1393492, Control_c, 0, 64, 72
2, 1393500, Note_on_c, 0, 64, 0
2, 1393500, Note_on_c, 0, 76, 0
2, 1393500, Control_c, 0, 64, 0
2, 1393516, Note_on_c, 0, 66, 87
2, 1393516, Note_on_c, 0, 54, 74
2, 1393516, Note_on_c, 0, 78, 98
2, 1393516, Note_on_c, 0, 66, 88
2, 1393520, Note_on_c, 0, 50, 0
2, 1393528, Control_c, 0, 64, 40
2, 1393536, Control_c, 0, 64, 88
2, 1393548, Control_c, 0, 64, 127
2, 1393600, Note_on_c, 0, 62, 0
2, 1393604, Note_on_c, 0, 78, 0
2, 1393604, Note_on_c, 0, 66, 0
2, 1393604, Note_on_c, 0, 66, 0
2, 1393612, Note_on_c, 0, 71, 84
2, 1393620, Note_on_c, 0, 54, 0
2, 1393620, Note_on_c, 0, 59, 76
2, 1393640, Note_on_c, 0, 59, 0
2, 1393656, Note_on_c, 0, 71, 0
2, 1393724, Note_on_c, 0, 74, 91
2, 1393736, Note_on_c, 0, 62, 81
2, 1393804, Note_on_c, 0, 74, 0
2, 1393816, Note_on_c, 0, 62, 0
2, 1393816, Note_on_c, 0, 78, 92
2, 1393816, Note_on_c, 0, 66, 72
2, 1393816, Note_on_c, 0, 73, 94
2, 1393904, Note_on_c, 0, 73, 0
2, 1393904, Note_on_c, 0, 66, 0
2, 1393908, Note_on_c, 0, 78, 0
2, 1393928, Note_on_c, 0, 83, 94
2, 1393928, Note_on_c, 0, 74, 96
2, 1393940, Note_on_c, 0, 71, 76
2, 1394008, Note_on_c, 0, 83, 0
2, 1394016, Note_on_c, 0, 71, 0
2, 1394016, Note_on_c, 0, 74, 0
2, 1394028, Note_on_c, 0, 74, 97
2, 1394028, Note_on_c, 0, 62, 78
2, 1394028, Note_on_c, 0, 76, 98
2, 1394116, Note_on_c, 0, 76, 0
2, 1394128, Note_on_c, 0, 78, 97
2, 1394128, Note_on_c, 0, 66, 79
2, 1394128, Note_on_c, 0, 83, 99
2, 1394128, Note_on_c, 0, 74, 86
2, 1394128, Note_on_c, 0, 71, 86
2, 1394128, Note_on_c, 0, 56, 86
2, 1394128, Note_on_c, 0, 44, 88
2, 1394136, Note_on_c, 0, 62, 0
2, 1394212, Note_on_c, 0, 74, 0
2, 1394216, Note_on_c, 0, 56, 0
2, 1394216, Note_on_c, 0, 74, 0
2, 1394216, Note_on_c, 0, 44, 0
2, 1394216, Note_on_c, 0, 83, 0
2, 1394216, Note_on_c, 0, 71, 0
2, 1394232, Note_on_c, 0, 83, 92
2, 1394236, Note_on_c, 0, 66, 0
2, 1394244, Note_on_c, 0, 71, 74
2, 1394252, Note_on_c, 0, 78, 0
2, 1394268, Note_on_c, 0, 71, 0
2, 1394272, Note_on_c, 0, 83, 0
2, 1394348, Note_on_c, 0, 86, 94
2, 1394368, Note_on_c, 0, 74, 83
2, 1394444, Note_on_c, 0, 78, 78
2, 1394448, Note_on_c, 0, 90, 98
2, 1394464, Note_on_c, 0, 74, 0
2, 1394484, Note_on_c, 0, 86, 0
2, 1394548, Note_on_c, 0, 78, 0
2, 1394556, Note_on_c, 0, 95, 99
2, 1394556, Note_on_c, 0, 83, 78
2, 1394556, Note_on_c, 0, 71, 93
2, 1394556, Note_on_c, 0, 66, 87
2, 1394556, Note_on_c, 0, 62, 87
2, 1394556, Note_on_c, 0, 56, 88
2, 1394576, Note_on_c, 0, 90, 0
2, 1394636, Note_on_c, 0, 83, 0
2, 1394644, Note_on_c, 0, 62, 0
2, 1394644, Note_on_c, 0, 71, 0
2, 1394644, Note_on_c, 0, 66, 0
2, 1394644, Note_on_c, 0, 56, 0
2, 1394656, Note_on_c, 0, 95, 0
2, 1394660, Note_on_c, 0, 86, 91
2, 1394660, Note_on_c, 0, 74, 82
2, 1394712, Note_on_c, 0, 86, 0
2, 1394728, Note_on_c, 0, 74, 0
2, 1394776, Control_c, 0, 64, 88
2, 1394784, Control_c, 0, 64, 0
2, 1394804, Note_on_c, 0, 83, 103
2, 1394804, Note_on_c, 0, 49, 89
2, 1394804, Note_on_c, 0, 61, 97
2, 1394804, Note_on_c, 0, 76, 94
2, 1394804, Note_on_c, 0, 73, 96
2, 1394804, Note_on_c, 0, 71, 84
2, 1394804, Note_on_c, 0, 59, 84
2, 1394844, Note_on_c, 0, 76, 0
2, 1394852, Note_on_c, 0, 61, 0
2, 1394852, Note_on_c, 0, 49, 0
2, 1394856, Note_on_c, 0, 73, 0
2, 1394856, Note_on_c, 0, 83, 0
2, 1394856, Control_c, 0, 64, 127
2, 1395048, Note_on_c, 0, 49, 83
2, 1395060, Note_on_c, 0, 71, 0
2, 1395060, Note_on_c, 0, 59, 0
2, 1395060, Note_on_c, 0, 37, 75
2, 1395100, Note_on_c, 0, 49, 0
2, 1395108, Note_on_c, 0, 37, 0
2, 1395148, Note_on_c, 0, 40, 70
2, 1395152, Note_on_c, 0, 52, 88
2, 1395232, Note_on_c, 0, 52, 0
2, 1395244, Note_on_c, 0, 40, 0
2, 1395264, Note_on_c, 0, 59, 87
2, 1395280, Note_on_c, 0, 47, 83
2, 1395328, Note_on_c, 0, 59, 0
2, 1395340, Note_on_c, 0, 47, 0
2, 1395364, Note_on_c, 0, 49, 92
2, 1395364, Note_on_c, 0, 37, 82
2, 1395452, Note_on_c, 0, 49, 0
2, 1395476, Note_on_c, 0, 52, 93
2, 1395476, Note_on_c, 0, 40, 78
2, 1395476, Note_on_c, 0, 64, 93
2, 1395476, Note_on_c, 0, 52, 84
2, 1395480, Note_on_c, 0, 37, 0
2, 1395480, Control_c, 0, 64, 56
2, 1395492, Control_c, 0, 64, 24
2, 1395500, Control_c, 0, 64, 40
2, 1395512, Control_c, 0, 64, 72
2, 1395524, Control_c, 0, 64, 127
2, 1395580, Note_on_c, 0, 47, 81
2, 1395584, Note_on_c, 0, 52, 0
2, 1395584, Note_on_c, 0, 40, 0
2, 1395584, Note_on_c, 0, 59, 84
2, 1395608, Note_on_c, 0, 47, 0
2, 1395624, Note_on_c, 0, 59, 0
2, 1395692, Note_on_c, 0, 61, 82
2, 1395720, Note_on_c, 0, 49, 53
2, 1395732, Note_on_c, 0, 52, 0
2, 1395732, Note_on_c, 0, 64, 0
2, 1395756, Note_on_c, 0, 61, 0
2, 1395764, Note_on_c, 0, 49, 0
2, 1395784, Note_on_c, 0, 64, 88
2, 1395784, Note_on_c, 0, 52, 78
2, 1395784, Note_on_c, 0, 66, 94
2, 1395784, Note_on_c, 0, 54, 87
2, 1395856, Note_on_c, 0, 52, 0
2, 1395868, Note_on_c, 0, 64, 0
2, 1395880, Note_on_c, 0, 66, 0
2, 1395880, Note_on_c, 0, 54, 0
2, 1395888, Note_on_c, 0, 71, 91
2, 1395888, Note_on_c, 0, 59, 75
2, 1395888, Note_on_c, 0, 56, 87
2, 1395888, Note_on_c, 0, 68, 96
2, 1395952, Note_on_c, 0, 71, 0
2, 1395960, Note_on_c, 0, 59, 0
2, 1395984, Note_on_c, 0, 56, 0
2, 1395984, Note_on_c, 0, 68, 0
2, 1395996, Note_on_c, 0, 61, 87
2, 1395996, Note_on_c, 0, 49, 80
2, 1395996, Note_on_c, 0, 69, 97
2, 1395996, Note_on_c, 0, 57, 88
2, 1396068, Control_c, 0, 64, 88
2, 1396080, Control_c, 0, 64, 24
2, 1396092, Note_on_c, 0, 57, 0
2, 1396092, Note_on_c, 0, 69, 0
2, 1396092, Control_c, 0, 64, 40
2, 1396096, Note_on_c, 0, 49, 0
2, 1396096, Note_on_c, 0, 64, 94
2, 1396096, Note_on_c, 0, 52, 83
2, 1396096, Note_on_c, 0, 71, 98
2, 1396096, Note_on_c, 0, 59, 88
2, 1396104, Control_c, 0, 64, 88
2, 1396116, Control_c, 0, 64, 127
2, 1396128, Note_on_c, 0, 61, 0
2, 1396204, Note_on_c, 0, 52, 0
2, 1396208, Note_on_c, 0, 64, 0
2, 1396208, Note_on_c, 0, 71, 83
2, 1396208, Note_on_c, 0, 59, 75
2, 1396232, Note_on_c, 0, 59, 0
2, 1396236, Note_on_c, 0, 71, 0
2, 1396236, Note_on_c, 0, 71, 0
2, 1396236, Note_on_c, 0, 59, 0
2, 1396304, Note_on_c, 0, 73, 88
2, 1396304, Note_on_c, 0, 61, 80
2, 1396368, Note_on_c, 0, 61, 0
2, 1396368, Note_on_c, 0, 73, 0
2, 1396404, Note_on_c, 0, 76, 94
2, 1396412, Note_on_c, 0, 64, 73
2, 1396484, Note_on_c, 0, 64, 0
2, 1396484, Note_on_c, 0, 76, 0
2, 1396504, Note_on_c, 0, 83, 94
2, 1396504, Note_on_c, 0, 71, 79
2, 1396504, Note_on_c, 0, 64, 96
2, 1396504, Note_on_c, 0, 52, 84
2, 1396572, Note_on_c, 0, 71, 0
2, 1396572, Note_on_c, 0, 83, 0
2, 1396604, Note_on_c, 0, 73, 93
2, 1396604, Note_on_c, 0, 61, 77
2, 1396684, Note_on_c, 0, 64, 0
2, 1396684, Note_on_c, 0, 52, 0
2, 1396708, Note_on_c, 0, 61, 0
2, 1396708, Note_on_c, 0, 76, 97
2, 1396708, Note_on_c, 0, 64, 83
2, 1396708, Note_on_c, 0, 71, 84
2, 1396708, Note_on_c, 0, 68, 84
2, 1396708, Note_on_c, 0, 61, 84
2, 1396708, Note_on_c, 0, 49, 88
2, 1396740, Note_on_c, 0, 73, 0
2, 1396816, Note_on_c, 0, 83, 92
2, 1396816, Note_on_c, 0, 71, 83
2, 1396844, Note_on_c, 0, 71, 0
2, 1396856, Note_on_c, 0, 83, 0
2, 1396888, Note_on_c, 0, 49, 0
2, 1396888, Note_on_c, 0, 71, 0
2, 1396888, Note_on_c, 0, 68, 0
2, 1396888, Note_on_c, 0, 61, 0
2, 1396888, Note_on_c, 0, 64, 0
2, 1396920, Note_on_c, 0, 76, 0
2, 1396920, Note_on_c, 0, 85, 91
2, 1396936, Note_on_c, 0, 73, 82
2, 1396996, Note_on_c, 0, 85, 0
2, 1397000, Note_on_c, 0, 73, 0
2, 1397020, Note_on_c, 0, 88, 93
2, 1397036, Note_on_c, 0, 76, 83
2, 1397124, Note_on_c, 0, 95, 103
2, 1397124, Note_on_c, 0, 83, 86
2, 1397124, Note_on_c, 0, 71, 87
2, 1397124, Note_on_c, 0, 68, 87
2, 1397124, Note_on_c, 0, 61, 84
2, 1397124, Note_on_c, 0, 49, 88
2, 1397128, Note_on_c, 0, 76, 0
2, 1397144, Note_on_c, 0, 88, 0
2, 1397192, Note_on_c, 0, 83, 0
2, 1397216, Note_on_c, 0, 95, 0
2, 1397220, Note_on_c, 0, 73, 80
2, 1397232, Note_on_c, 0, 85, 93
2, 1397280, Note_on_c, 0, 73, 0
2, 1397304, Note_on_c, 0, 71, 0
2, 1397304, Note_on_c, 0, 61, 0
2, 1397304, Note_on_c, 0, 49, 0
2, 1397304, Note_on_c, 0, 68, 0
2, 1397312, Note_on_c, 0, 85, 0
2, 1397364, Control_c, 0, 64, 72
2, 1397372, Note_on_c, 0, 81, 106
2, 1397372, Note_on_c, 0, 54, 93
2, 1397372, Note_on_c, 0, 76, 92
2, 1397372, Note_on_c, 0, 73, 98
2, 1397372, Note_on_c, 0, 69, 91
2, 1397372, Note_on_c, 0, 52, 88
2, 1397372, Note_on_c, 0, 42, 88
2, 1397376, Control_c, 0, 64, 0
2, 1397388, Note_on_c, 0, 66, 93
2, 1397416, Note_on_c, 0, 76, 0
2, 1397420, Note_on_c, 0, 73, 0
2, 1397428, Note_on_c, 0, 81, 0
2, 1397428, Note_on_c, 0, 54, 0
2, 1397432, Note_on_c, 0, 66, 0
2, 1397432, Control_c, 0, 64, 127
2, 1397552, Note_on_c, 0, 42, 0
2, 1397552, Note_on_c, 0, 52, 0
2, 1397552, Note_on_c, 0, 69, 0
2, 1397608, Note_on_c, 0, 49, 86
2, 1397608, Note_on_c, 0, 37, 73
2, 1397672, Note_on_c, 0, 37, 0
2, 1397672, Note_on_c, 0, 49, 0
2, 1397708, Note_on_c, 0, 40, 73
2, 1397708, Note_on_c, 0, 52, 88
2, 1397784, Note_on_c, 0, 52, 0
2, 1397800, Note_on_c, 0, 40, 0
2, 1397812, Note_on_c, 0, 57, 86
2, 1397812, Note_on_c, 0, 45, 75
2, 1397868, Note_on_c, 0, 45, 0
2, 1397880, Note_on_c, 0, 57, 0
2, 1397920, Note_on_c, 0, 49, 88
2, 1397920, Note_on_c, 0, 37, 70
2, 1398008, Note_on_c, 0, 49, 0
2, 1398020, Note_on_c, 0, 37, 0
2, 1398024, Note_on_c, 0, 40, 78
2, 1398024, Note_on_c, 0, 52, 95
2, 1398024, Note_on_c, 0, 69, 88
2, 1398024, Note_on_c, 0, 45, 84
2, 1398024, Control_c, 0, 64, 72
2, 1398036, Control_c, 0, 64, 0
2, 1398080, Control_c, 0, 64, 56
2, 1398092, Control_c, 0, 64, 127
2, 1398132, Note_on_c, 0, 52, 0
2, 1398132, Note_on_c, 0, 57, 85
2, 1398132, Note_on_c, 0, 45, 83
2, 1398140, Note_on_c, 0, 40, 0
2, 1398172, Note_on_c, 0, 57, 0
2, 1398172, Note_on_c, 0, 45, 0
2, 1398204, Note_on_c, 0, 69, 0
2, 1398204, Note_on_c, 0, 45, 0
2, 1398240, Note_on_c, 0, 61, 83
2, 1398240, Note_on_c, 0, 49, 77
2, 1398292, Note_on_c, 0, 61, 0
2, 1398300, Note_on_c, 0, 49, 0
2, 1398336, Note_on_c, 0, 64, 91
2, 1398336, Note_on_c, 0, 52, 78
2, 1398336, Note_on_c, 0, 71, 93
2, 1398336, Note_on_c, 0, 47, 86
2, 1398404, Note_on_c, 0, 52, 0
2, 1398412, Note_on_c, 0, 64, 0
2, 1398444, Note_on_c, 0, 69, 92
2, 1398444, Note_on_c, 0, 57, 73
2, 1398444, Note_on_c, 0, 49, 86
2, 1398444, Note_on_c, 0, 73, 93
2, 1398504, Note_on_c, 0, 69, 0
2, 1398508, Note_on_c, 0, 57, 0
2, 1398516, Note_on_c, 0, 47, 0
2, 1398516, Note_on_c, 0, 71, 0
2, 1398544, Note_on_c, 0, 61, 91
2, 1398544, Note_on_c, 0, 49, 79
2, 1398544, Note_on_c, 0, 74, 96
2, 1398544, Note_on_c, 0, 50, 88
2, 1398624, Note_on_c, 0, 73, 0
2, 1398624, Note_on_c, 0, 49, 0
2, 1398636, Note_on_c, 0, 74, 0
2, 1398636, Note_on_c, 0, 50, 0
2, 1398652, Note_on_c, 0, 64, 97
2, 1398652, Note_on_c, 0, 52, 88
2, 1398652, Note_on_c, 0, 76, 98
2, 1398656, Note_on_c, 0, 49, 0
2, 1398660, Control_c, 0, 64, 104
2, 1398672, Control_c, 0, 64, 88
2, 1398684, Control_c, 0, 64, 127
2, 1398692, Note_on_c, 0, 61, 0
2, 1398756, Note_on_c, 0, 69, 93
2, 1398756, Note_on_c, 0, 57, 78
2, 1398768, Note_on_c, 0, 64, 0
2, 1398784, Note_on_c, 0, 57, 0
2, 1398796, Note_on_c, 0, 69, 0
2, 1398804, Note_on_c, 0, 52, 0
2, 1398824, Note_on_c, 0, 76, 0
2, 1398860, Note_on_c, 0, 73, 96
2, 1398860, Note_on_c, 0, 61, 83
2, 1398916, Note_on_c, 0, 73, 0
2, 1398948, Note_on_c, 0, 61, 0
2, 1398964, Note_on_c, 0, 76, 100
2, 1398964, Note_on_c, 0, 64, 83
2, 1398964, Note_on_c, 0, 71, 93
2, 1399048, Note_on_c, 0, 76, 0
2, 1399052, Note_on_c, 0, 71, 0
2, 1399060, Note_on_c, 0, 64, 0
2, 1399060, Note_on_c, 0, 81, 97
2, 1399060, Note_on_c, 0, 69, 86
2, 1399060, Note_on_c, 0, 73, 94
2, 1399060, Note_on_c, 0, 45, 91
2, 1399140, Note_on_c, 0, 81, 0
2, 1399144, Note_on_c, 0, 69, 0
2, 1399148, Note_on_c, 0, 73, 0
2, 1399148, Note_on_c, 0, 45, 0
2, 1399160, Note_on_c, 0, 73, 98
2, 1399160, Note_on_c, 0, 61, 80
2, 1399160, Note_on_c, 0, 74, 98
2, 1399248, Note_on_c, 0, 74, 0
2, 1399264, Note_on_c, 0, 61, 0
2, 1399264, Note_on_c, 0, 64, 83
2, 1399264, Note_on_c, 0, 76, 98
2, 1399264, Note_on_c, 0, 81, 98
2, 1399264, Note_on_c, 0, 73, 86
2, 1399264, Note_on_c, 0, 69, 86
2, 1399264, Note_on_c, 0, 54, 86
2, 1399264, Note_on_c, 0, 42, 88
2, 1399312, Note_on_c, 0, 73, 0
2, 1399352, Note_on_c, 0, 42, 0
2, 1399352, Note_on_c, 0, 69, 0
2, 1399352, Note_on_c, 0, 73, 0
2, 1399352, Note_on_c, 0, 81, 0
2, 1399352, Note_on_c, 0, 54, 0
2, 1399364, Note_on_c, 0, 81, 89
2, 1399372, Note_on_c, 0, 64, 0
2, 1399372, Note_on_c, 0, 69, 84
2, 1399376, Note_on_c, 0, 76, 0
2, 1399396, Note_on_c, 0, 69, 0
2, 1399404, Note_on_c, 0, 81, 0
2, 1399468, Note_on_c, 0, 85, 94
2, 1399468, Note_on_c, 0, 73, 84
2, 1399532, Note_on_c, 0, 85, 0
2, 1399536, Note_on_c, 0, 73, 0
2, 1399568, Note_on_c, 0, 76, 84
2, 1399576, Note_on_c, 0, 88, 98
2, 1399660, Note_on_c, 0, 76, 0
2, 1399676, Note_on_c, 0, 88, 0
2, 1399680, Note_on_c, 0, 81, 83
2, 1399680, Note_on_c, 0, 93, 107
2, 1399680, Note_on_c, 0, 69, 93
2, 1399680, Note_on_c, 0, 66, 86
2, 1399680, Note_on_c, 0, 64, 86
2, 1399680, Note_on_c, 0, 61, 86
2, 1399680, Note_on_c, 0, 54, 86
2, 1399680, Note_on_c, 0, 42, 88
2, 1399720, Note_on_c, 0, 81, 0
2, 1399760, Note_on_c, 0, 93, 0
2, 1399768, Note_on_c, 0, 61, 0
2, 1399768, Note_on_c, 0, 69, 0
2, 1399768, Note_on_c, 0, 64, 0
2, 1399768, Note_on_c, 0, 42, 0
2, 1399768, Note_on_c, 0, 54, 0
2, 1399768, Note_on_c, 0, 66, 0
2, 1399772, Note_on_c, 0, 85, 90
2, 1399772, Note_on_c, 0, 73, 78
2, 1399832, Note_on_c, 0, 73, 0
2, 1399832, Note_on_c, 0, 85, 0
2, 1399888, Control_c, 0, 64, 104
2, 1399900, Control_c, 0, 64, 0
2, 1399916, Note_on_c, 0, 81, 101
2, 1399916, Note_on_c, 0, 69, 88
2, 1399916, Note_on_c, 0, 59, 96
2, 1399916, Note_on_c, 0, 47, 98
2, 1399916, Note_on_c, 0, 78, 89
2, 1399916, Note_on_c, 0, 75, 88
2, 1399916, Note_on_c, 0, 35, 93
2, 1399956, Control_c, 0, 64, 40
2, 1399964, Note_on_c, 0, 59, 0
2, 1399968, Note_on_c, 0, 47, 0
2, 1399968, Control_c, 0, 64, 127
2, 1399972, Note_on_c, 0, 81, 0
2, 1399972, Note_on_c, 0, 78, 0
2, 1399972, Note_on_c, 0, 75, 0
2, 1399976, Note_on_c, 0, 69, 0
2, 1400004, Note_on_c, 0, 35, 0
2, 1400140, Note_on_c, 0, 48, 92
2, 1400184, Note_on_c, 0, 48, 0
2, 1400228, Note_on_c, 0, 60, 88
2, 1400304, Note_on_c, 0, 60, 0
2, 1400344, Note_on_c, 0, 47, 100
2, 1400344, Note_on_c, 0, 35, 88
2, 1400364, Control_c, 0, 64, 56
2, 1400376, Control_c, 0, 64, 0
2, 1400388, Note_on_c, 0, 35, 0
2, 1400400, Note_on_c, 0, 47, 0
2, 1400412, Control_c, 0, 64, 72
2, 1400424, Control_c, 0, 64, 127
2, 1400448, Note_on_c, 0, 59, 89
2, 1400532, Note_on_c, 0, 59, 0
2, 1400536, Control_c, 0, 64, 104
2, 1400544, Note_on_c, 0, 51, 103
2, 1400548, Control_c, 0, 64, 40
2, 1400552, Note_on_c, 0, 39, 85
2, 1400556, Control_c, 0, 64, 0
2, 1400568, Control_c, 0, 64, 24
2, 1400580, Control_c, 0, 64, 56
2, 1400588, Note_on_c, 0, 51, 0
2, 1400592, Control_c, 0, 64, 104
2, 1400604, Note_on_c, 0, 39, 0
2, 1400604, Control_c, 0, 64, 127
2, 1400664, Note_on_c, 0, 63, 80
2, 1400748, Note_on_c, 0, 63, 0
2, 1400752, Control_c, 0, 64, 88
2, 1400764, Note_on_c, 0, 47, 98
2, 1400764, Note_on_c, 0, 35, 88
2, 1400784, Control_c, 0, 64, 127
2, 1400800, Note_on_c, 0, 35, 0
2, 1400812, Note_on_c, 0, 47, 0
2, 1400872, Note_on_c, 0, 59, 89
2, 1400964, Note_on_c, 0, 59, 0
2, 1400964, Note_on_c, 0, 54, 98
2, 1400968, Control_c, 0, 64, 104
2, 1400972, Note_on_c, 0, 42, 84
2, 1400980, Control_c, 0, 64, 56
2, 1400992, Control_c, 0, 64, 40
2, 1401000, Control_c, 0, 64, 72
2, 1401004, Note_on_c, 0, 54, 0
2, 1401012, Note_on_c, 0, 42, 0
2, 1401012, Control_c, 0, 64, 104
2, 1401024, Control_c, 0, 64, 127
2, 1401080, Note_on_c, 0, 66, 83
2, 1401172, Control_c, 0, 64, 104
2, 1401180, Note_on_c, 0, 35, 88
2, 1401180, Note_on_c, 0, 47, 98
2, 1401184, Control_c, 0, 64, 88
2, 1401192, Note_on_c, 0, 66, 0
2, 1401196, Control_c, 0, 64, 104
2, 1401208, Control_c, 0, 64, 127
2, 1401216, Note_on_c, 0, 35, 0
2, 1401232, Note_on_c, 0, 47, 0
2, 1401276, Note_on_c, 0, 59, 91
2, 1401324, Note_on_c, 0, 59, 0
2, 1401396, Note_on_c, 0, 59, 101
2, 1401400, Control_c, 0, 64, 104
2, 1401408, Control_c, 0, 64, 40
2, 1401432, Control_c, 0, 64, 56
2, 1401444, Control_c, 0, 64, 88
2, 1401456, Control_c, 0, 64, 127
2, 1401476, Note_on_c, 0, 59, 0
2, 1401496, Note_on_c, 0, 71, 95
2, 1401552, Note_on_c, 0, 71, 0
2, 1401584, Note_on_c, 0, 51, 94
2, 1401640, Note_on_c, 0, 51, 0
2, 1401688, Note_on_c, 0, 63, 89
2, 1401744, Note_on_c, 0, 63, 0
2, 1401792, Note_on_c, 0, 63, 93
2, 1401796, Control_c, 0, 64, 88
2, 1401808, Control_c, 0, 64, 56
2, 1401832, Control_c, 0, 64, 88
2, 1401840, Control_c, 0, 64, 127
2, 1401844, Note_on_c, 0, 63, 0
2, 1401888, Note_on_c, 0, 75, 89
2, 1401972, Note_on_c, 0, 75, 0
2, 1401988, Note_on_c, 0, 54, 90
2, 1402076, Note_on_c, 0, 54, 0
2, 1402092, Note_on_c, 0, 66, 83
2, 1402132, Note_on_c, 0, 66, 0
2, 1402184, Note_on_c, 0, 66, 91
2, 1402184, Note_on_c, 0, 81, 93
2, 1402184, Note_on_c, 0, 69, 88
2, 1402184, Note_on_c, 0, 59, 88
2, 1402184, Note_on_c, 0, 47, 88
2, 1402184, Note_on_c, 0, 75, 88
2, 1402204, Control_c, 0, 64, 104
2, 1402216, Control_c, 0, 64, 72
2, 1402224, Note_on_c, 0, 66, 0
2, 1402248, Control_c, 0, 64, 127
2, 1402272, Note_on_c, 0, 69, 0
2, 1402272, Note_on_c, 0, 59, 0
2, 1402272, Note_on_c, 0, 81, 0
2, 1402272, Note_on_c, 0, 75, 0
2, 1402272, Note_on_c, 0, 47, 0
2, 1402284, Note_on_c, 0, 78, 94
2, 1402344, Note_on_c, 0, 78, 0
2, 1402420, Note_on_c, 0, 86, 112
2, 1402424, Note_on_c, 0, 74, 107
2, 1402424, Note_on_c, 0, 58, 90
2, 1402424, Note_on_c, 0, 46, 83
2, 1402424, Note_on_c, 0, 34, 83
2, 1402424, Note_on_c, 0, 62, 78
2, 1402424, Note_on_c, 0, 55, 77
2, 1402428, Note_on_c, 0, 79, 104
2, 1402460, Control_c, 0, 64, 127
2, 1402464, Note_on_c, 0, 58, 0
2, 1402472, Note_on_c, 0, 79, 0
2, 1402472, Note_on_c, 0, 74, 0
2, 1402480, Note_on_c, 0, 86, 0
2, 1402512, Note_on_c, 0, 62, 0
2, 1402512, Note_on_c, 0, 55, 0
2, 1402612, Note_on_c, 0, 46, 0
2, 1402640, Note_on_c, 0, 45, 88
2, 1402656, Note_on_c, 0, 33, 57
2, 1402660, Note_on_c, 0, 34, 0
2, 1402676, Note_on_c, 0, 45, 0
2, 1402684, Note_on_c, 0, 33, 0
2, 1402744, Note_on_c, 0, 57, 88
2, 1402816, Note_on_c, 0, 57, 0
2, 1402836, Control_c, 0, 64, 72
2, 1402848, Note_on_c, 0, 43, 97
2, 1402848, Control_c, 0, 64, 0
2, 1402852, Note_on_c, 0, 31, 81
2, 1402876, Note_on_c, 0, 31, 0
2, 1402896, Note_on_c, 0, 43, 0
2, 1402904, Control_c, 0, 64, 40
2, 1402916, Control_c, 0, 64, 88
2, 1402928, Control_c, 0, 64, 127
2, 1402948, Note_on_c, 0, 55, 89
2, 1403020, Control_c, 0, 64, 104
2, 1403032, Note_on_c, 0, 55, 0
2, 1403032, Control_c, 0, 64, 24
2, 1403044, Control_c, 0, 64, 0
2, 1403052, Note_on_c, 0, 46, 91
2, 1403064, Note_on_c, 0, 34, 87
2, 1403088, Control_c, 0, 64, 56
2, 1403092, Note_on_c, 0, 46, 0
2, 1403100, Note_on_c, 0, 34, 0
2, 1403100, Control_c, 0, 64, 104
2, 1403108, Control_c, 0, 64, 127
2, 1403152, Note_on_c, 0, 58, 83
2, 1403220, Note_on_c, 0, 58, 0
2, 1403232, Control_c, 0, 64, 56
2, 1403244, Control_c, 0, 64, 0
2, 1403268, Note_on_c, 0, 43, 81
2, 1403280, Note_on_c, 0, 31, 84
2, 1403292, Control_c, 0, 64, 40
2, 1403296, Note_on_c, 0, 43, 0
2, 1403304, Control_c, 0, 64, 88
2, 1403308, Note_on_c, 0, 31, 0
2, 1403316, Control_c, 0, 64, 127
2, 1403360, Note_on_c, 0, 55, 92
2, 1403420, Note_on_c, 0, 55, 0
2, 1403440, Control_c, 0, 64, 104
2, 1403452, Control_c, 0, 64, 40
2, 1403460, Note_on_c, 0, 50, 98
2, 1403460, Control_c, 0, 64, 0
2, 1403488, Note_on_c, 0, 38, 63
2, 1403496, Control_c, 0, 64, 40
2, 1403504, Note_on_c, 0, 50, 0
2, 1403508, Note_on_c, 0, 38, 0
2, 1403508, Control_c, 0, 64, 72
2, 1403516, Control_c, 0, 64, 127
2, 1403560, Note_on_c, 0, 62, 91
2, 1403640, Control_c, 0, 64, 104
2, 1403648, Note_on_c, 0, 62, 0
2, 1403656, Note_on_c, 0, 31, 84
2, 1403656, Note_on_c, 0, 43, 99
2, 1403656, Control_c, 0, 64, 40
2, 1403668, Control_c, 0, 64, 0
2, 1403688, Control_c, 0, 64, 24
2, 1403700, Note_on_c, 0, 31, 0
2, 1403700, Control_c, 0, 64, 56
2, 1403712, Note_on_c, 0, 43, 0
2, 1403712, Control_c, 0, 64, 104
2, 1403724, Control_c, 0, 64, 127
2, 1403760, Note_on_c, 0, 55, 94
2, 1403800, Note_on_c, 0, 55, 0
2, 1403872, Control_c, 0, 64, 72
2, 1403876, Note_on_c, 0, 55, 104
2, 1403880, Control_c, 0, 64, 24
2, 1403916, Control_c, 0, 64, 88
2, 1403928, Note_on_c, 0, 55, 0
2, 1403928, Control_c, 0, 64, 127
2, 1403972, Note_on_c, 0, 67, 94
2, 1404028, Note_on_c, 0, 67, 0
2, 1404064, Control_c, 0, 64, 104
2, 1404068, Note_on_c, 0, 46, 97
2, 1404076, Control_c, 0, 64, 56
2, 1404088, Control_c, 0, 64, 0
2, 1404112, Control_c, 0, 64, 40
2, 1404120, Control_c, 0, 64, 72
2, 1404124, Note_on_c, 0, 46, 0
2, 1404132, Control_c, 0, 64, 127
2, 1404172, Note_on_c, 0, 58, 92
2, 1404224, Note_on_c, 0, 58, 0
2, 1404268, Control_c, 0, 64, 72
2, 1404284, Note_on_c, 0, 58, 98
2, 1404300, Control_c, 0, 64, 127
2, 1404328, Note_on_c, 0, 58, 0
2, 1404372, Note_on_c, 0, 70, 91
2, 1404444, Note_on_c, 0, 70, 0
2, 1404480, Note_on_c, 0, 50, 95
2, 1404484, Control_c, 0, 64, 56
2, 1404496, Control_c, 0, 64, 40
2, 1404508, Control_c, 0, 64, 56
2, 1404520, Control_c, 0, 64, 72
2, 1404528, Control_c, 0, 64, 104
2, 1404532, Note_on_c, 0, 50, 0
2, 1404540, Control_c, 0, 64, 127
2, 1404576, Note_on_c, 0, 62, 88
2, 1404632, Note_on_c, 0, 62, 0
2, 1404676, Note_on_c, 0, 62, 95
2, 1404676, Note_on_c, 0, 74, 91
2, 1404676, Note_on_c, 0, 67, 87
2, 1404676, Note_on_c, 0, 58, 87
2, 1404676, Note_on_c, 0, 46, 89
2, 1404700, Note_on_c, 0, 62, 0
2, 1404768, Note_on_c, 0, 74, 91
2, 1404800, Note_on_c, 0, 74, 0
2, 1404816, Note_on_c, 0, 46, 0
2, 1404816, Note_on_c, 0, 58, 0
2, 1404816, Note_on_c, 0, 67, 0
2, 1404816, Note_on_c, 0, 74, 0
2, 1404876, Note_on_c, 0, 79, 91
2, 1404876, Note_on_c, 0, 67, 86
2, 1404884, Note_on_c, 0, 45, 84
2, 1404884, Note_on_c, 0, 73, 73
2, 1404884, Note_on_c, 0, 76, 81
2, 1404884, Note_on_c, 0, 33, 88
2, 1404924, Control_c, 0, 64, 56
2, 1404936, Control_c, 0, 64, 88
2, 1404948, Control_c, 0, 64, 127
2, 1404976, Note_on_c, 0, 45, 0
2, 1404980, Note_on_c, 0, 73, 0
2, 1404984, Note_on_c, 0, 57, 78
2, 1404984, Note_on_c, 0, 45, 76
2, 1404988, Note_on_c, 0, 76, 0
2, 1404988, Note_on_c, 0, 67, 68
2, 1404992, Note_on_c, 0, 79, 0
2, 1405028, Note_on_c, 0, 57, 0
2, 1405032, Note_on_c, 0, 45, 0
2, 1405080, Note_on_c, 0, 67, 0
2, 1405084, Control_c, 0, 64, 104
2, 1405088, Note_on_c, 0, 79, 88
2, 1405096, Note_on_c, 0, 76, 79
2, 1405096, Note_on_c, 0, 45, 71
2, 1405096, Note_on_c, 0, 34, 76
2, 1405104, Note_on_c, 0, 73, 63
2, 1405124, Control_c, 0, 64, 127
2, 1405132, Note_on_c, 0, 67, 0
2, 1405144, Note_on_c, 0, 34, 0
2, 1405176, Note_on_c, 0, 45, 0
2, 1405176, Note_on_c, 0, 67, 73
2, 1405184, Note_on_c, 0, 76, 0
2, 1405184, Note_on_c, 0, 73, 0
2, 1405184, Note_on_c, 0, 57, 69
2, 1405184, Note_on_c, 0, 46, 76
2, 1405192, Note_on_c, 0, 79, 0
2, 1405228, Note_on_c, 0, 33, 0
2, 1405232, Note_on_c, 0, 46, 0
2, 1405252, Note_on_c, 0, 57, 0
2, 1405280, Note_on_c, 0, 67, 0
2, 1405284, Note_on_c, 0, 79, 94
2, 1405288, Note_on_c, 0, 73, 75
2, 1405288, Note_on_c, 0, 76, 86
2, 1405288, Note_on_c, 0, 45, 82
2, 1405288, Note_on_c, 0, 33, 78
2, 1405336, Note_on_c, 0, 33, 0
2, 1405372, Note_on_c, 0, 73, 0
2, 1405372, Note_on_c, 0, 45, 0
2, 1405376, Note_on_c, 0, 67, 81
2, 1405380, Note_on_c, 0, 76, 0
2, 1405384, Note_on_c, 0, 57, 77
2, 1405384, Note_on_c, 0, 45, 78
2, 1405392, Note_on_c, 0, 79, 0
2, 1405432, Note_on_c, 0, 45, 0
2, 1405460, Note_on_c, 0, 57, 0
2, 1405472, Note_on_c, 0, 67, 0
2, 1405476, Note_on_c, 0, 79, 99
2, 1405484, Note_on_c, 0, 76, 91
2, 1405484, Note_on_c, 0, 73, 79
2, 1405488, Note_on_c, 0, 45, 83
2, 1405488, Note_on_c, 0, 37, 79
2, 1405536, Note_on_c, 0, 37, 0
2, 1405564, Note_on_c, 0, 73, 0
2, 1405572, Note_on_c, 0, 45, 0
2, 1405572, Note_on_c, 0, 67, 81
2, 1405576, Note_on_c, 0, 79, 0
2, 1405576, Note_on_c, 0, 57, 69
2, 1405576, Note_on_c, 0, 49, 79
2, 1405580, Note_on_c, 0, 76, 0
2, 1405624, Note_on_c, 0, 49, 0
2, 1405664, Note_on_c, 0, 57, 0
2, 1405664, Note_on_c, 0, 67, 0
2, 1405672, Note_on_c, 0, 79, 103
2, 1405672, Note_on_c, 0, 76, 93
2, 1405672, Note_on_c, 0, 73, 85
2, 1405672, Note_on_c, 0, 45, 85
2, 1405672, Note_on_c, 0, 33, 79
2, 1405720, Note_on_c, 0, 33, 0
2, 1405736, Note_on_c, 0, 73, 0
2, 1405748, Note_on_c, 0, 45, 0
2, 1405768, Note_on_c, 0, 76, 0
2, 1405768, Note_on_c, 0, 79, 0
2, 1405768, Note_on_c, 0, 67, 84
2, 1405768, Note_on_c, 0, 45, 82
2, 1405792, Note_on_c, 0, 57, 64
2, 1405816, Note_on_c, 0, 45, 0
2, 1405856, Note_on_c, 0, 67, 0
2, 1405864, Note_on_c, 0, 57, 0
2, 1405872, Note_on_c, 0, 73, 82
2, 1405876, Note_on_c, 0, 79, 98
2, 1405876, Note_on_c, 0, 76, 88
2, 1405876, Note_on_c, 0, 45, 81
2, 1405876, Note_on_c, 0, 40, 83
2, 1405924, Note_on_c, 0, 40, 0
2, 1405944, Note_on_c, 0, 73, 0
2, 1405952, Note_on_c, 0, 45, 0
2, 1405952, Note_on_c, 0, 76, 0
2, 1405956, Note_on_c, 0, 79, 0
2, 1405960, Note_on_c, 0, 67, 86
2, 1405960, Note_on_c, 0, 52, 82
2, 1405976, Note_on_c, 0, 67, 0
2, 1405992, Note_on_c, 0, 57, 72
2, 1406008, Note_on_c, 0, 52, 0
2, 1406028, Note_on_c, 0, 57, 0
2, 1406084, Note_on_c, 0, 91, 100
2, 1406084, Note_on_c, 0, 85, 94
2, 1406084, Note_on_c, 0, 45, 88
2, 1406084, Note_on_c, 0, 52, 83
2, 1406084, Note_on_c, 0, 88, 91
2, 1406084, Note_on_c, 0, 33, 84
2, 1406132, Note_on_c, 0, 33, 0
2, 1406156, Note_on_c, 0, 85, 0
2, 1406156, Note_on_c, 0, 45, 0
2, 1406164, Note_on_c, 0, 52, 0
2, 1406168, Note_on_c, 0, 88, 0
2, 1406176, Note_on_c, 0, 91, 0
2, 1406176, Note_on_c, 0, 79, 94
2, 1406176, Note_on_c, 0, 45, 84
2, 1406204, Note_on_c, 0, 57, 56
2, 1406224, Note_on_c, 0, 45, 0
2, 1406236, Note_on_c, 0, 57, 0
2, 1406240, Note_on_c, 0, 79, 0
2, 1406280, Note_on_c, 0, 91, 111
2, 1406280, Note_on_c, 0, 45, 84
2, 1406284, Note_on_c, 0, 85, 91
2, 1406288, Note_on_c, 0, 88, 94
2, 1406300, Note_on_c, 0, 45, 84
2, 1406300, Note_on_c, 0, 52, 75
2, 1406328, Note_on_c, 0, 45, 0
2, 1406368, Note_on_c, 0, 52, 0
2, 1406372, Note_on_c, 0, 85, 0
2, 1406376, Note_on_c, 0, 45, 0
2, 1406376, Note_on_c, 0, 79, 88
2, 1406376, Note_on_c, 0, 57, 84
2, 1406384, Note_on_c, 0, 88, 0
2, 1406392, Note_on_c, 0, 57, 61
2, 1406396, Note_on_c, 0, 91, 0
2, 1406424, Note_on_c, 0, 57, 0
2, 1406440, Note_on_c, 0, 57, 0
2, 1406464, Note_on_c, 0, 79, 0
2, 1406476, Note_on_c, 0, 91, 109
2, 1406476, Note_on_c, 0, 45, 84
2, 1406476, Note_on_c, 0, 43, 84
2, 1406480, Note_on_c, 0, 88, 95
2, 1406484, Note_on_c, 0, 85, 88
2, 1406488, Note_on_c, 0, 52, 78
2, 1406492, Note_on_c, 0, 45, 82
2, 1406524, Note_on_c, 0, 45, 0
2, 1406524, Note_on_c, 0, 45, 0
2, 1406524, Note_on_c, 0, 43, 0
2, 1406564, Note_on_c, 0, 52, 0
2, 1406568, Note_on_c, 0, 85, 0
2, 1406576, Note_on_c, 0, 79, 91
2, 1406576, Note_on_c, 0, 55, 84
2, 1406584, Note_on_c, 0, 88, 0
2, 1406584, Note_on_c, 0, 91, 0
2, 1406592, Note_on_c, 0, 57, 67
2, 1406624, Note_on_c, 0, 55, 0
2, 1406648, Note_on_c, 0, 57, 0
2, 1406660, Note_on_c, 0, 79, 0
2, 1406672, Note_on_c, 0, 91, 108
2, 1406672, Note_on_c, 0, 85, 89
2, 1406672, Note_on_c, 0, 40, 84
2, 1406676, Note_on_c, 0, 88, 94
2, 1406684, Note_on_c, 0, 52, 78
2, 1406692, Note_on_c, 0, 45, 79
2, 1406720, Note_on_c, 0, 40, 0
2, 1406760, Note_on_c, 0, 85, 0
2, 1406768, Note_on_c, 0, 52, 0
2, 1406772, Note_on_c, 0, 88, 0
2, 1406776, Note_on_c, 0, 45, 0
2, 1406776, Note_on_c, 0, 91, 0
2, 1406776, Note_on_c, 0, 79, 98
2, 1406776, Note_on_c, 0, 73, 84
2, 1406776, Note_on_c, 0, 64, 84
2, 1406788, Note_on_c, 0, 57, 72
2, 1406824, Note_on_c, 0, 64, 0
2, 1406824, Note_on_c, 0, 73, 0
2, 1406856, Note_on_c, 0, 57, 0
2, 1406864, Note_on_c, 0, 79, 0
2, 1406872, Note_on_c, 0, 91, 111
2, 1406872, Note_on_c, 0, 69, 84
2, 1406876, Note_on_c, 0, 85, 93
2, 1406876, Note_on_c, 0, 88, 97
2, 1406884, Note_on_c, 0, 52, 80
2, 1406892, Note_on_c, 0, 45, 81
2, 1406920, Note_on_c, 0, 69, 0
2, 1406956, Note_on_c, 0, 85, 0
2, 1406960, Note_on_c, 0, 52, 0
2, 1406960, Note_on_c, 0, 45, 0
2, 1406968, Note_on_c, 0, 88, 0
2, 1406972, Note_on_c, 0, 91, 0
2, 1406972, Note_on_c, 0, 79, 101
2, 1406972, Note_on_c, 0, 67, 84
2, 1406972, Note_on_c, 0, 49, 84
2, 1406984, Note_on_c, 0, 57, 74
2, 1407020, Note_on_c, 0, 49, 0
2, 1407020, Note_on_c, 0, 67, 0
2, 1407052, Note_on_c, 0, 57, 0
2, 1407072, Note_on_c, 0, 79, 0
2, 1407084, Note_on_c, 0, 91, 106
2, 1407088, Note_on_c, 0, 85, 87
2, 1407088, Note_on_c, 0, 88, 87
2, 1407088, Note_on_c, 0, 76, 84
2, 1407092, Note_on_c, 0, 52, 75
2, 1407104, Note_on_c, 0, 45, 81
2, 1407136, Note_on_c, 0, 76, 0
2, 1407192, Note_on_c, 0, 88, 0
2, 1407196, Note_on_c, 0, 79, 98
2, 1407196, Note_on_c, 0, 57, 70
2, 1407196, Note_on_c, 0, 69, 84
2, 1407196, Note_on_c, 0, 67, 84
2, 1407216, Note_on_c, 0, 85, 0
2, 1407216, Note_on_c, 0, 45, 0
2, 1407216, Control_c, 0, 64, 0
2, 1407232, Note_on_c, 0, 52, 0
2, 1407232, Note_on_c, 0, 57, 0
2, 1407240, Note_on_c, 0, 91, 0
2, 1407244, Note_on_c, 0, 69, 0
2, 1407244, Note_on_c, 0, 67, 0
2, 1407244, Note_on_c, 0, 79, 0
2, 1407332, Note_on_c, 0, 78, 88
2, 1407400, Note_on_c, 0, 78, 0
2, 1407424, Note_on_c, 0, 90, 96
2, 1407424, Note_on_c, 0, 50, 81
2, 1407424, Note_on_c, 0, 78, 72
2, 1407424, Note_on_c, 0, 66, 71
2, 1407424, Note_on_c, 0, 69, 69
2, 1407424, Note_on_c, 0, 38, 74
2, 1407424, Control_c, 0, 64, 104
2, 1407432, Control_c, 0, 64, 127
2, 1407564, Note_on_c, 0, 38, 0
2, 1407564, Note_on_c, 0, 66, 0
2, 1407564, Note_on_c, 0, 78, 0
2, 1407564, Note_on_c, 0, 69, 0
2, 1407624, Note_on_c, 0, 56, 71
2, 1407676, Note_on_c, 0, 90, 0
2, 1407704, Note_on_c, 0, 89, 96
2, 1407800, Note_on_c, 0, 89, 0
2, 1407820, Note_on_c, 0, 50, 0
2, 1407820, Note_on_c, 0, 92, 97
2, 1407820, Note_on_c, 0, 57, 73
2, 1407820, Note_on_c, 0, 78, 76
2, 1407820, Note_on_c, 0, 74, 73
2, 1407820, Note_on_c, 0, 69, 73
2, 1407840, Note_on_c, 0, 56, 0
2, 1407860, Note_on_c, 0, 57, 0
2, 1407888, Note_on_c, 0, 92, 0
2, 1407924, Note_on_c, 0, 90, 93
2, 1407960, Note_on_c, 0, 78, 0
2, 1407960, Note_on_c, 0, 74, 0
2, 1407960, Note_on_c, 0, 69, 0
2, 1408000, Control_c, 0, 64, 104
2, 1408008, Control_c, 0, 64, 72
2, 1408016, Note_on_c, 0, 88, 96
2, 1408020, Control_c, 0, 64, 0
2, 1408028, Note_on_c, 0, 65, 78
2, 1408040, Note_on_c, 0, 56, 84
2, 1408052, Note_on_c, 0, 90, 0
2, 1408080, Control_c, 0, 64, 24
2, 1408092, Control_c, 0, 64, 88
2, 1408104, Control_c, 0, 64, 127
2, 1408108, Note_on_c, 0, 88, 0
2, 1408112, Note_on_c, 0, 86, 92
2, 1408188, Note_on_c, 0, 86, 0
2, 1408204, Note_on_c, 0, 85, 88
2, 1408292, Note_on_c, 0, 85, 0
2, 1408308, Note_on_c, 0, 83, 90
2, 1408308, Note_on_c, 0, 56, 76
2, 1408308, Note_on_c, 0, 77, 72
2, 1408308, Note_on_c, 0, 74, 68
2, 1408308, Note_on_c, 0, 71, 67
2, 1408352, Note_on_c, 0, 56, 0
2, 1408388, Note_on_c, 0, 83, 0
2, 1408396, Note_on_c, 0, 85, 93
2, 1408396, Note_on_c, 0, 56, 76
2, 1408396, Note_on_c, 0, 71, 67
2, 1408396, Note_on_c, 0, 74, 68
2, 1408396, Note_on_c, 0, 77, 71
2, 1408436, Note_on_c, 0, 56, 0
2, 1408448, Note_on_c, 0, 74, 0
2, 1408448, Note_on_c, 0, 65, 0
2, 1408448, Note_on_c, 0, 77, 0
2, 1408448, Note_on_c, 0, 71, 0
2, 1408452, Note_on_c, 0, 56, 0
2, 1408484, Note_on_c, 0, 85, 0
2, 1408504, Note_on_c, 0, 86, 88
2, 1408536, Note_on_c, 0, 77, 0
2, 1408536, Note_on_c, 0, 71, 0
2, 1408536, Note_on_c, 0, 74, 0
2, 1408576, Note_on_c, 0, 76, 80
2, 1408604, Note_on_c, 0, 86, 0
2, 1408636, Note_on_c, 0, 88, 103
2, 1408636, Control_c, 0, 64, 104
2, 1408648, Control_c, 0, 64, 56
2, 1408656, Note_on_c, 0, 49, 76
2, 1408656, Note_on_c, 0, 37, 76
2, 1408660, Control_c, 0, 64, 0
2, 1408752, Note_on_c, 0, 76, 0
2, 1408764, Control_c, 0, 64, 72
2, 1408772, Control_c, 0, 64, 127
2, 1408796, Note_on_c, 0, 37, 0
2, 1408824, Note_on_c, 0, 56, 72
2, 1408896, Note_on_c, 0, 88, 0
2, 1408916, Note_on_c, 0, 87, 89
2, 1409004, Note_on_c, 0, 87, 0
2, 1409016, Note_on_c, 0, 49, 0
2, 1409020, Note_on_c, 0, 90, 91
2, 1409020, Note_on_c, 0, 57, 74
2, 1409020, Note_on_c, 0, 76, 72
2, 1409020, Note_on_c, 0, 64, 69
2, 1409020, Note_on_c, 0, 73, 69
2, 1409048, Note_on_c, 0, 56, 0
2, 1409080, Note_on_c, 0, 90, 0
2, 1409116, Note_on_c, 0, 88, 94
2, 1409160, Note_on_c, 0, 64, 0
2, 1409160, Note_on_c, 0, 76, 0
2, 1409160, Note_on_c, 0, 73, 0
2, 1409180, Note_on_c, 0, 57, 0
2, 1409212, Control_c, 0, 64, 56
2, 1409216, Note_on_c, 0, 88, 0
2, 1409216, Note_on_c, 0, 54, 78
2, 1409216, Note_on_c, 0, 86, 98
2, 1409220, Note_on_c, 0, 64, 77
2, 1409224, Control_c, 0, 64, 0
2, 1409284, Control_c, 0, 64, 40
2, 1409296, Control_c, 0, 64, 104
2, 1409300, Note_on_c, 0, 85, 93
2, 1409304, Note_on_c, 0, 86, 0
2, 1409304, Control_c, 0, 64, 127
2, 1409388, Note_on_c, 0, 85, 0
2, 1409396, Note_on_c, 0, 83, 90
2, 1409400, Note_on_c, 0, 54, 0
2, 1409476, Note_on_c, 0, 83, 0
2, 1409496, Note_on_c, 0, 81, 83
2, 1409496, Note_on_c, 0, 54, 79
2, 1409496, Note_on_c, 0, 76, 72
2, 1409496, Note_on_c, 0, 73, 68
2, 1409496, Note_on_c, 0, 69, 68
2, 1409540, Note_on_c, 0, 54, 0
2, 1409572, Note_on_c, 0, 81, 0
2, 1409592, Note_on_c, 0, 83, 93
2, 1409592, Note_on_c, 0, 54, 77
2, 1409592, Note_on_c, 0, 69, 68
2, 1409592, Note_on_c, 0, 73, 69
2, 1409592, Note_on_c, 0, 76, 73
2, 1409624, Note_on_c, 0, 64, 0
2, 1409636, Note_on_c, 0, 73, 0
2, 1409636, Note_on_c, 0, 76, 0
2, 1409636, Note_on_c, 0, 69, 0
2, 1409644, Note_on_c, 0, 54, 0
2, 1409668, Note_on_c, 0, 83, 0
2, 1409684, Note_on_c, 0, 85, 87
2, 1409732, Note_on_c, 0, 76, 0
2, 1409732, Note_on_c, 0, 73, 0
2, 1409732, Note_on_c, 0, 69, 0
2, 1409796, Note_on_c, 0, 85, 0
2, 1409804, Note_on_c, 0, 86, 103
2, 1409804, Note_on_c, 0, 80, 73
2, 1409820, Control_c, 0, 64, 104
2, 1409832, Control_c, 0, 64, 40
2, 1409840, Control_c, 0, 64, 0
2, 1409848, Note_on_c, 0, 47, 79
2, 1409848, Note_on_c, 0, 35, 75
2, 1409912, Control_c, 0, 64, 88
2, 1409916, Note_on_c, 0, 47, 0
2, 1409924, Control_c, 0, 64, 127
2, 1409988, Note_on_c, 0, 35, 0
2, 1410012, Note_on_c, 0, 62, 76
2, 1410112, Note_on_c, 0, 83, 91
2, 1410196, Note_on_c, 0, 62, 0
2, 1410216, Note_on_c, 0, 81, 93
2, 1410216, Note_on_c, 0, 56, 70
2, 1410216, Note_on_c, 0, 52, 73
2, 1410216, Note_on_c, 0, 74, 78
2, 1410216, Note_on_c, 0, 68, 74
2, 1410224, Note_on_c, 0, 83, 0
2, 1410264, Note_on_c, 0, 52, 0
2, 1410292, Note_on_c, 0, 81, 0
2, 1410308, Note_on_c, 0, 56, 0
2, 1410316, Note_on_c, 0, 80, 92
2, 1410328, Note_on_c, 0, 80, 0
2, 1410356, Note_on_c, 0, 68, 0
2, 1410356, Note_on_c, 0, 74, 0
2, 1410424, Control_c, 0, 64, 88
2, 1410428, Note_on_c, 0, 88, 104
2, 1410428, Note_on_c, 0, 37, 78
2, 1410428, Note_on_c, 0, 49, 78
2, 1410436, Control_c, 0, 64, 24
2, 1410444, Control_c, 0, 64, 0
2, 1410488, Note_on_c, 0, 86, 0
2, 1410520, Note_on_c, 0, 49, 0
2, 1410520, Control_c, 0, 64, 88
2, 1410532, Control_c, 0, 64, 127
2, 1410568, Note_on_c, 0, 37, 0
2, 1410624, Note_on_c, 0, 64, 72
2, 1410684, Note_on_c, 0, 88, 0
2, 1410712, Note_on_c, 0, 85, 88
2, 1410796, Note_on_c, 0, 64, 0
2, 1410812, Note_on_c, 0, 54, 73
2, 1410812, Note_on_c, 0, 83, 83
2, 1410812, Note_on_c, 0, 57, 70
2, 1410812, Note_on_c, 0, 69, 75
2, 1410812, Note_on_c, 0, 76, 79
2, 1410828, Note_on_c, 0, 85, 0
2, 1410840, Note_on_c, 0, 57, 0
2, 1410860, Note_on_c, 0, 54, 0
2, 1410888, Note_on_c, 0, 83, 0
2, 1410908, Note_on_c, 0, 81, 87
2, 1410952, Note_on_c, 0, 80, 0
2, 1410952, Note_on_c, 0, 76, 0
2, 1410952, Note_on_c, 0, 69, 0
2, 1410960, Note_on_c, 0, 81, 0
2, 1410984, Note_on_c, 0, 74, 86
2, 1411020, Control_c, 0, 64, 56
2, 1411032, Note_on_c, 0, 86, 98
2, 1411032, Note_on_c, 0, 35, 78
2, 1411032, Note_on_c, 0, 80, 83
2, 1411032, Control_c, 0, 64, 0
2, 1411048, Note_on_c, 0, 47, 76
2, 1411104, Control_c, 0, 64, 72
2, 1411108, Note_on_c, 0, 47, 0
2, 1411112, Control_c, 0, 64, 127
2, 1411228, Note_on_c, 0, 62, 78
2, 1411288, Note_on_c, 0, 35, 0
2, 1411312, Note_on_c, 0, 83, 93
2, 1411332, Note_on_c, 0, 86, 0
2, 1411408, Note_on_c, 0, 56, 68
2, 1411412, Note_on_c, 0, 81, 94
2, 1411412, Note_on_c, 0, 52, 72
2, 1411412, Note_on_c, 0, 74, 75
2, 1411416, Note_on_c, 0, 62, 0
2, 1411428, Note_on_c, 0, 83, 0
2, 1411448, Note_on_c, 0, 74, 0
2, 1411456, Note_on_c, 0, 52, 0
2, 1411472, Note_on_c, 0, 74, 0
2, 1411480, Note_on_c, 0, 81, 0
2, 1411492, Note_on_c, 0, 80, 90
2, 1411524, Note_on_c, 0, 56, 0
2, 1411564, Note_on_c, 0, 80, 0
2, 1411576, Note_on_c, 0, 76, 97
2, 1411616, Control_c, 0, 64, 56
2, 1411628, Control_c, 0, 64, 0
2, 1411656, Note_on_c, 0, 88, 99
2, 1411656, Note_on_c, 0, 48, 74
2, 1411656, Note_on_c, 0, 36, 79
2, 1411712, Control_c, 0, 64, 88
2, 1411720, Note_on_c, 0, 48, 0
2, 1411720, Control_c, 0, 64, 127
2, 1411796, Note_on_c, 0, 36, 0
2, 1411820, Note_on_c, 0, 80, 0
2, 1411860, Note_on_c, 0, 64, 71
2, 1411936, Note_on_c, 0, 88, 0
2, 1411948, Note_on_c, 0, 84, 84
2, 1412052, Note_on_c, 0, 83, 92
2, 1412052, Note_on_c, 0, 57, 68
2, 1412052, Note_on_c, 0, 81, 73
2, 1412052, Note_on_c, 0, 76, 72
2, 1412064, Note_on_c, 0, 64, 0
2, 1412068, Note_on_c, 0, 84, 0
2, 1412092, Note_on_c, 0, 57, 0
2, 1412128, Note_on_c, 0, 76, 0
2, 1412128, Note_on_c, 0, 76, 0
2, 1412140, Note_on_c, 0, 83, 0
2, 1412156, Note_on_c, 0, 81, 83
2, 1412212, Note_on_c, 0, 81, 0
2, 1412224, Note_on_c, 0, 77, 93
2, 1412232, Note_on_c, 0, 81, 0
2, 1412300, Control_c, 0, 64, 88
2, 1412308, Control_c, 0, 64, 0
2, 1412320, Note_on_c, 0, 89, 100
2, 1412320, Note_on_c, 0, 50, 78
2, 1412320, Note_on_c, 0, 77, 77
2, 1412320, Note_on_c, 0, 81, 78
2, 1412320, Note_on_c, 0, 57, 73
2, 1412412, Note_on_c, 0, 77, 0
2, 1412424, Control_c, 0, 64, 72
2, 1412432, Control_c, 0, 64, 127
2, 1412512, Note_on_c, 0, 56, 70
2, 1412596, Note_on_c, 0, 89, 0
2, 1412604, Note_on_c, 0, 88, 94
2, 1412664, Note_on_c, 0, 50, 0
2, 1412696, Note_on_c, 0, 88, 0
2, 1412704, Note_on_c, 0, 91, 97
2, 1412720, Note_on_c, 0, 57, 72
2, 1412744, Note_on_c, 0, 56, 0
2, 1412748, Note_on_c, 0, 57, 0
2, 1412784, Note_on_c, 0, 91, 0
2, 1412800, Note_on_c, 0, 89, 93
2, 1412844, Note_on_c, 0, 77, 0
2, 1412844, Note_on_c, 0, 81, 0
2, 1412844, Note_on_c, 0, 57, 0
2, 1412900, Note_on_c, 0, 88, 93
2, 1412900, Note_on_c, 0, 65, 74
2, 1412900, Note_on_c, 0, 55, 79
2, 1412900, Note_on_c, 0, 71, 73
2, 1412900, Note_on_c, 0, 59, 73
2, 1412904, Control_c, 0, 64, 104
2, 1412916, Control_c, 0, 64, 24
2, 1412924, Note_on_c, 0, 89, 0
2, 1412924, Control_c, 0, 64, 0
2, 1412976, Control_c, 0, 64, 88
2, 1412988, Control_c, 0, 64, 127
2, 1412996, Note_on_c, 0, 86, 93
2, 1413012, Note_on_c, 0, 88, 0
2, 1413076, Note_on_c, 0, 55, 0
2, 1413084, Note_on_c, 0, 86, 0
2, 1413088, Note_on_c, 0, 84, 92
2, 1413172, Note_on_c, 0, 84, 0
2, 1413180, Note_on_c, 0, 83, 89
2, 1413184, Note_on_c, 0, 55, 75
2, 1413232, Note_on_c, 0, 55, 0
2, 1413260, Note_on_c, 0, 83, 0
2, 1413276, Note_on_c, 0, 84, 98
2, 1413276, Note_on_c, 0, 67, 72
2, 1413296, Note_on_c, 0, 55, 75
2, 1413312, Note_on_c, 0, 65, 0
2, 1413360, Note_on_c, 0, 84, 0
2, 1413360, Note_on_c, 0, 55, 0
2, 1413376, Note_on_c, 0, 86, 88
2, 1413416, Note_on_c, 0, 67, 0
2, 1413424, Note_on_c, 0, 59, 0
2, 1413424, Note_on_c, 0, 71, 0
2, 1413444, Note_on_c, 0, 76, 78
2, 1413456, Note_on_c, 0, 86, 0
2, 1413512, Note_on_c, 0, 88, 103
2, 1413512, Note_on_c, 0, 48, 80
2, 1413512, Note_on_c, 0, 76, 76
2, 1413512, Note_on_c, 0, 55, 75
2, 1413532, Control_c, 0, 64, 104
2, 1413540, Control_c, 0, 64, 40
2, 1413552, Control_c, 0, 64, 0
2, 1413616, Note_on_c, 0, 76, 0
2, 1413624, Control_c, 0, 64, 40
2, 1413636, Control_c, 0, 64, 104
2, 1413648, Control_c, 0, 64, 127
2, 1413724, Note_on_c, 0, 54, 76
2, 1413800, Note_on_c, 0, 88, 0
2, 1413808, Note_on_c, 0, 87, 92
2, 1413816, Note_on_c, 0, 54, 0
2, 1413884, Note_on_c, 0, 76, 0
2, 1413904, Note_on_c, 0, 87, 0
2, 1413916, Note_on_c, 0, 89, 98
2, 1413916, Note_on_c, 0, 76, 81
2, 1413940, Note_on_c, 0, 55, 78
2, 1413944, Note_on_c, 0, 48, 0
2, 1413992, Note_on_c, 0, 55, 0
2, 1414000, Note_on_c, 0, 89, 0
2, 1414012, Note_on_c, 0, 88, 94
2, 1414036, Note_on_c, 0, 55, 0
2, 1414124, Note_on_c, 0, 86, 94
2, 1414124, Note_on_c, 0, 64, 79
2, 1414124, Note_on_c, 0, 53, 76
2, 1414124, Note_on_c, 0, 57, 73
2, 1414124, Note_on_c, 0, 69, 73
2, 1414128, Note_on_c, 0, 88, 0
2, 1414144, Control_c, 0, 64, 104
2, 1414160, Control_c, 0, 64, 40
2, 1414168, Control_c, 0, 64, 0
2, 1414224, Note_on_c, 0, 86, 0
2, 1414224, Note_on_c, 0, 84, 95
2, 1414232, Control_c, 0, 64, 24
2, 1414244, Control_c, 0, 64, 104
2, 1414252, Control_c, 0, 64, 127
2, 1414320, Note_on_c, 0, 83, 97
2, 1414324, Note_on_c, 0, 84, 0
2, 1414424, Note_on_c, 0, 81, 94
2, 1414432, Note_on_c, 0, 53, 0
2, 1414440, Note_on_c, 0, 76, 0
2, 1414440, Note_on_c, 0, 53, 75
2, 1414456, Note_on_c, 0, 83, 0
2, 1414508, Note_on_c, 0, 81, 0
2, 1414520, Note_on_c, 0, 83, 94
2, 1414520, Note_on_c, 0, 53, 76
2, 1414520, Note_on_c, 0, 65, 76
2, 1414532, Note_on_c, 0, 64, 0
2, 1414560, Note_on_c, 0, 53, 0
2, 1414568, Note_on_c, 0, 53, 0
2, 1414600, Note_on_c, 0, 83, 0
2, 1414620, Note_on_c, 0, 84, 93
2, 1414648, Note_on_c, 0, 69, 0
2, 1414648, Note_on_c, 0, 57, 0
2, 1414660, Note_on_c, 0, 65, 0
2, 1414720, Note_on_c, 0, 84, 0
2, 1414728, Note_on_c, 0, 86, 104
2, 1414728, Note_on_c, 0, 74, 83
2, 1414728, Note_on_c, 0, 56, 73
2, 1414736, Note_on_c, 0, 74, 81
2, 1414756, Control_c, 0, 64, 56
2, 1414768, Note_on_c, 0, 47, 76
2, 1414768, Control_c, 0, 64, 0
2, 1414828, Control_c, 0, 64, 40
2, 1414832, Note_on_c, 0, 47, 0
2, 1414840, Control_c, 0, 64, 127
2, 1414940, Note_on_c, 0, 62, 73
2, 1415004, Note_on_c, 0, 86, 0
2, 1415016, Note_on_c, 0, 83, 90
2, 1415120, Note_on_c, 0, 81, 93
2, 1415120, Note_on_c, 0, 74, 73
2, 1415128, Note_on_c, 0, 56, 68
2, 1415132, Note_on_c, 0, 83, 0
2, 1415136, Note_on_c, 0, 62, 0
2, 1415136, Note_on_c, 0, 52, 69
2, 1415164, Note_on_c, 0, 74, 0
2, 1415164, Note_on_c, 0, 74, 0
2, 1415164, Note_on_c, 0, 74, 0
2, 1415188, Note_on_c, 0, 52, 0
2, 1415192, Note_on_c, 0, 81, 0
2, 1415216, Note_on_c, 0, 80, 90
2, 1415264, Note_on_c, 0, 56, 0
2, 1415264, Note_on_c, 0, 56, 0
2, 1415300, Note_on_c, 0, 80, 0
2, 1415324, Note_on_c, 0, 88, 99
2, 1415324, Note_on_c, 0, 76, 86
2, 1415324, Note_on_c, 0, 70, 71
2, 1415324, Note_on_c, 0, 58, 72
2, 1415332, Control_c, 0, 64, 88
2, 1415340, Control_c, 0, 64, 24
2, 1415348, Note_on_c, 0, 49, 78
2, 1415352, Control_c, 0, 64, 0
2, 1415404, Control_c, 0, 64, 56
2, 1415412, Control_c, 0, 64, 127
2, 1415428, Note_on_c, 0, 49, 0
2, 1415464, Note_on_c, 0, 70, 0
2, 1415464, Note_on_c, 0, 58, 0
2, 1415528, Note_on_c, 0, 64, 73
2, 1415620, Note_on_c, 0, 85, 94
2, 1415652, Note_on_c, 0, 88, 0
2, 1415720, Note_on_c, 0, 58, 71
2, 1415728, Note_on_c, 0, 85, 0
2, 1415728, Note_on_c, 0, 83, 94
2, 1415728, Note_on_c, 0, 55, 61
2, 1415728, Note_on_c, 0, 76, 73
2, 1415780, Note_on_c, 0, 64, 0
2, 1415800, Note_on_c, 0, 76, 0
2, 1415808, Note_on_c, 0, 55, 0
2, 1415808, Note_on_c, 0, 83, 0
2, 1415820, Note_on_c, 0, 58, 0
2, 1415824, Note_on_c, 0, 82, 85
2, 1415868, Note_on_c, 0, 76, 0
2, 1415892, Note_on_c, 0, 82, 0
2, 1415940, Note_on_c, 0, 90, 103
2, 1415940, Note_on_c, 0, 78, 87
2, 1415940, Note_on_c, 0, 72, 78
2, 1415940, Note_on_c, 0, 48, 74
2, 1415952, Note_on_c, 0, 51, 73
2, 1415972, Control_c, 0, 64, 56
2, 1415980, Control_c, 0, 64, 104
2, 1415988, Control_c, 0, 64, 127
2, 1416040, Note_on_c, 0, 51, 0
2, 1416144, Note_on_c, 0, 66, 70
2, 1416156, Note_on_c, 0, 90, 0
2, 1416224, Note_on_c, 0, 84, 94
2, 1416304, Note_on_c, 0, 84, 0
2, 1416316, Note_on_c, 0, 83, 93
2, 1416316, Note_on_c, 0, 78, 74
2, 1416324, Note_on_c, 0, 60, 68
2, 1416348, Note_on_c, 0, 57, 49
2, 1416356, Note_on_c, 0, 66, 0
2, 1416380, Note_on_c, 0, 83, 0
2, 1416404, Note_on_c, 0, 81, 99
2, 1416432, Note_on_c, 0, 57, 0
2, 1416432, Note_on_c, 0, 60, 0
2, 1416456, Note_on_c, 0, 78, 0
2, 1416480, Note_on_c, 0, 81, 0
2, 1416492, Control_c, 0, 64, 72
2, 1416504, Control_c, 0, 64, 0
2, 1416512, Note_on_c, 0, 92, 109
2, 1416512, Note_on_c, 0, 80, 88
2, 1416512, Note_on_c, 0, 74, 76
2, 1416512, Note_on_c, 0, 62, 76
2, 1416524, Note_on_c, 0, 53, 81
2, 1416572, Control_c, 0, 64, 72
2, 1416576, Note_on_c, 0, 53, 0
2, 1416580, Control_c, 0, 64, 127
2, 1416716, Note_on_c, 0, 68, 76
2, 1416756, Note_on_c, 0, 92, 0
2, 1416800, Note_on_c, 0, 86, 98
2, 1416848, Note_on_c, 0, 72, 0
2, 1416848, Note_on_c, 0, 48, 0
2, 1416848, Note_on_c, 0, 78, 0
2, 1416880, Note_on_c, 0, 86, 0
2, 1416896, Note_on_c, 0, 85, 95
2, 1416896, Note_on_c, 0, 62, 69
2, 1416896, Note_on_c, 0, 80, 78
2, 1416900, Note_on_c, 0, 59, 65
2, 1416940, Note_on_c, 0, 68, 0
2, 1416944, Note_on_c, 0, 62, 0
2, 1416968, Note_on_c, 0, 85, 0
2, 1416976, Note_on_c, 0, 59, 0
2, 1416980, Note_on_c, 0, 83, 97
2, 1417008, Control_c, 0, 64, 88
2, 1417016, Control_c, 0, 64, 0
2, 1417036, Note_on_c, 0, 80, 0
2, 1417036, Note_on_c, 0, 54, 78
2, 1417048, Note_on_c, 0, 61, 72
2, 1417068, Note_on_c, 0, 83, 0
2, 1417080, Note_on_c, 0, 54, 0
2, 1417084, Control_c, 0, 64, 72
2, 1417096, Note_on_c, 0, 93, 115
2, 1417096, Note_on_c, 0, 42, 83
2, 1417096, Note_on_c, 0, 54, 83
2, 1417096, Note_on_c, 0, 81, 88
2, 1417096, Note_on_c, 0, 78, 80
2, 1417096, Note_on_c, 0, 73, 80
2, 1417096, Control_c, 0, 64, 127
2, 1417108, Note_on_c, 0, 61, 0
2, 1417108, Note_on_c, 0, 69, 75
2, 1417152, Note_on_c, 0, 69, 0
2, 1417216, Note_on_c, 0, 93, 0
2, 1417308, Note_on_c, 0, 85, 97
2, 1417316, Note_on_c, 0, 61, 71
2, 1417408, Note_on_c, 0, 93, 103
2, 1417412, Note_on_c, 0, 85, 0
2, 1417420, Note_on_c, 0, 61, 0
2, 1417420, Note_on_c, 0, 74, 0
2, 1417440, Note_on_c, 0, 81, 0
2, 1417440, Note_on_c, 0, 78, 0
2, 1417440, Note_on_c, 0, 62, 0
2, 1417440, Note_on_c, 0, 73, 0
2, 1417440, Note_on_c, 0, 54, 0
2, 1417492, Note_on_c, 0, 93, 0
2, 1417512, Note_on_c, 0, 92, 89
2, 1417520, Note_on_c, 0, 65, 69
2, 1417584, Note_on_c, 0, 92, 0
2, 1417588, Note_on_c, 0, 42, 0
2, 1417596, Note_on_c, 0, 83, 93
2, 1417668, Note_on_c, 0, 83, 0
2, 1417684, Note_on_c, 0, 65, 0
2, 1417692, Note_on_c, 0, 90, 90
2, 1417692, Note_on_c, 0, 66, 82
2, 1417792, Note_on_c, 0, 81, 92
2, 1417804, Note_on_c, 0, 80, 0
2, 1417808, Note_on_c, 0, 90, 0
2, 1417872, Note_on_c, 0, 81, 0
2, 1417876, Note_on_c, 0, 78, 90
2, 1417888, Note_on_c, 0, 66, 0
2, 1417892, Note_on_c, 0, 69, 75
2, 1417948, Note_on_c, 0, 78, 0
2, 1417964, Note_on_c, 0, 86, 97
2, 1418052, Note_on_c, 0, 86, 0
2, 1418060, Note_on_c, 0, 84, 98
2, 1418064, Note_on_c, 0, 69, 0
2, 1418076, Note_on_c, 0, 74, 79
2, 1418132, Note_on_c, 0, 84, 0
2, 1418152, Note_on_c, 0, 78, 85
2, 1418220, Note_on_c, 0, 78, 0
2, 1418244, Note_on_c, 0, 74, 0
2, 1418244, Note_on_c, 0, 85, 93
2, 1418248, Note_on_c, 0, 73, 82
2, 1418280, Note_on_c, 0, 73, 0
2, 1418344, Note_on_c, 0, 77, 97
2, 1418428, Note_on_c, 0, 77, 0
2, 1418436, Note_on_c, 0, 73, 92
2, 1418436, Note_on_c, 0, 61, 80
2, 1418436, Note_on_c, 0, 77, 83
2, 1418476, Control_c, 0, 64, 24
2, 1418484, Note_on_c, 0, 77, 0
2, 1418484, Control_c, 0, 64, 40
2, 1418496, Control_c, 0, 64, 56
2, 1418500, Note_on_c, 0, 73, 0
2, 1418504, Control_c, 0, 64, 72
2, 1418508, Note_on_c, 0, 61, 0
2, 1418512, Control_c, 0, 64, 88
2, 1418528, Note_on_c, 0, 77, 101
2, 1418528, Note_on_c, 0, 73, 82
2, 1418548, Note_on_c, 0, 85, 0
2, 1418572, Control_c, 0, 64, 56
2, 1418576, Note_on_c, 0, 73, 0
2, 1418580, Control_c, 0, 64, 40
2, 1418588, Control_c, 0, 64, 0
2, 1418612, Note_on_c, 0, 77, 0
2, 1418620, Note_on_c, 0, 72, 83
2, 1418624, Note_on_c, 0, 78, 95
2, 1418624, Note_on_c, 0, 60, 78
2, 1418644, Control_c, 0, 64, 24
2, 1418652, Control_c, 0, 64, 56
2, 1418664, Note_on_c, 0, 72, 0
2, 1418664, Control_c, 0, 64, 72
2, 1418668, Note_on_c, 0, 60, 0
2, 1418672, Control_c, 0, 64, 88
2, 1418700, Note_on_c, 0, 78, 0
2, 1418700, Control_c, 0, 64, 104
2, 1418708, Note_on_c, 0, 73, 92
2, 1418736, Control_c, 0, 64, 72
2, 1418748, Control_c, 0, 64, 56
2, 1418756, Control_c, 0, 64, 24
2, 1418764, Control_c, 0, 64, 0
2, 1418796, Note_on_c, 0, 73, 0
2, 1418812, Note_on_c, 0, 80, 98
2, 1418812, Note_on_c, 0, 71, 79
2, 1418824, Note_on_c, 0, 59, 64
2, 1418848, Control_c, 0, 64, 24
2, 1418860, Control_c, 0, 64, 40
2, 1418864, Note_on_c, 0, 59, 0
2, 1418876, Note_on_c, 0, 71, 0
2, 1418900, Note_on_c, 0, 80, 0
2, 1418904, Note_on_c, 0, 73, 93
2, 1418952, Control_c, 0, 64, 0
2, 1419000, Note_on_c, 0, 73, 0
2, 1419008, Note_on_c, 0, 81, 101
2, 1419012, Note_on_c, 0, 69, 78
2, 1419012, Note_on_c, 0, 61, 68
2, 1419016, Control_c, 0, 64, 24
2, 1419020, Note_on_c, 0, 57, 67
2, 1419024, Control_c, 0, 64, 40
2, 1419032, Control_c, 0, 64, 72
2, 1419044, Control_c, 0, 64, 88
2, 1419056, Note_on_c, 0, 57, 0
2, 1419064, Control_c, 0, 64, 104
2, 1419068, Note_on_c, 0, 69, 0
2, 1419076, Note_on_c, 0, 61, 0
2, 1419092, Control_c, 0, 64, 127
2, 1419100, Note_on_c, 0, 73, 85
2, 1419104, Note_on_c, 0, 81, 0
2, 1419144, Control_c, 0, 64, 88
2, 1419164, Control_c, 0, 64, 72
2, 1419188, Note_on_c, 0, 73, 0
2, 1419192, Note_on_c, 0, 83, 101
2, 1419204, Note_on_c, 0, 68, 67
2, 1419204, Note_on_c, 0, 61, 64
2, 1419208, Note_on_c, 0, 56, 62
2, 1419232, Control_c, 0, 64, 88
2, 1419244, Note_on_c, 0, 68, 0
2, 1419248, Note_on_c, 0, 61, 0
2, 1419252, Note_on_c, 0, 56, 0
2, 1419268, Note_on_c, 0, 83, 0
2, 1419284, Control_c, 0, 64, 104
2, 1419292, Note_on_c, 0, 73, 83
2, 1419332, Control_c, 0, 64, 72
2, 1419344, Note_on_c, 0, 73, 0
2, 1419352, Control_c, 0, 64, 40
2, 1419360, Control_c, 0, 64, 0
2, 1419392, Note_on_c, 0, 81, 97
2, 1419392, Note_on_c, 0, 42, 88
2, 1419392, Note_on_c, 0, 73, 80
2, 1419392, Note_on_c, 0, 69, 80
2, 1419396, Note_on_c, 0, 66, 76
2, 1419400, Note_on_c, 0, 61, 72
2, 1419400, Note_on_c, 0, 54, 76
2, 1419424, Control_c, 0, 64, 40
2, 1419432, Control_c, 0, 64, 72
2, 1419444, Control_c, 0, 64, 104
2, 1419448, Note_on_c, 0, 61, 0
2, 1419448, Note_on_c, 0, 66, 0
2, 1419452, Control_c, 0, 64, 127
2, 1419464, Note_on_c, 0, 54, 0
2, 1419552, Note_on_c, 0, 73, 0
2, 1419552, Note_on_c, 0, 69, 0
2, 1419552, Note_on_c, 0, 42, 0
2, 1419556, Note_on_c, 0, 81, 0
2, 1419584, Control_c, 0, 64, 88
2, 1419592, Control_c, 0, 64, 56
2, 1419604, Control_c, 0, 64, 0
2, 1419612, Note_on_c, 0, 73, 93
2, 1419624, Note_on_c, 0, 49, 75
2, 1419664, Control_c, 0, 64, 40
2, 1419676, Control_c, 0, 64, 56
2, 1419684, Control_c, 0, 64, 72
2, 1419692, Note_on_c, 0, 73, 0
2, 1419696, Control_c, 0, 64, 88
2, 1419700, Note_on_c, 0, 81, 96
2, 1419732, Control_c, 0, 64, 104
2, 1419748, Control_c, 0, 64, 72
2, 1419752, Note_on_c, 0, 81, 0
2, 1419756, Control_c, 0, 64, 40
2, 1419768, Note_on_c, 0, 49, 0
2, 1419768, Control_c, 0, 64, 0
2, 1419772, Note_on_c, 0, 80, 88
2, 1419792, Note_on_c, 0, 53, 78
2, 1419832, Control_c, 0, 64, 40
2, 1419844, Control_c, 0, 64, 56
2, 1419852, Control_c, 0, 64, 72
2, 1419856, Note_on_c, 0, 80, 0
2, 1419868, Note_on_c, 0, 71, 84
2, 1419908, Control_c, 0, 64, 88
2, 1419944, Note_on_c, 0, 71, 0
2, 1419944, Control_c, 0, 64, 40
2, 1419952, Control_c, 0, 64, 0
2, 1419968, Note_on_c, 0, 78, 90
2, 1419972, Note_on_c, 0, 53, 0
2, 1419972, Note_on_c, 0, 54, 80
2, 1420040, Control_c, 0, 64, 24
2, 1420048, Control_c, 0, 64, 40
2, 1420056, Control_c, 0, 64, 56
2, 1420064, Note_on_c, 0, 69, 89
2, 1420072, Note_on_c, 0, 78, 0
2, 1420084, Control_c, 0, 64, 72
2, 1420132, Control_c, 0, 64, 0
2, 1420144, Note_on_c, 0, 69, 0
2, 1420152, Note_on_c, 0, 66, 87
2, 1420160, Note_on_c, 0, 54, 0
2, 1420164, Note_on_c, 0, 57, 68
2, 1420204, Control_c, 0, 64, 24
2, 1420216, Control_c, 0, 64, 40
2, 1420224, Control_c, 0, 64, 56
2, 1420228, Note_on_c, 0, 66, 0
2, 1420244, Note_on_c, 0, 74, 98
2, 1420288, Control_c, 0, 64, 0
2, 1420336, Note_on_c, 0, 74, 0
2, 1420336, Note_on_c, 0, 57, 0
2, 1420340, Note_on_c, 0, 72, 101
2, 1420348, Note_on_c, 0, 62, 73
2, 1420364, Control_c, 0, 64, 24
2, 1420372, Control_c, 0, 64, 56
2, 1420380, Control_c, 0, 64, 88
2, 1420392, Control_c, 0, 64, 104
2, 1420396, Note_on_c, 0, 62, 0
2, 1420400, Control_c, 0, 64, 127
2, 1420412, Note_on_c, 0, 72, 0
2, 1420424, Note_on_c, 0, 66, 85
2, 1420480, Note_on_c, 0, 66, 0
2, 1420492, Control_c, 0, 64, 104
2, 1420504, Control_c, 0, 64, 56
2, 1420512, Control_c, 0, 64, 0
2, 1420520, Note_on_c, 0, 73, 93
2, 1420528, Note_on_c, 0, 61, 78
2, 1420568, Note_on_c, 0, 61, 0
2, 1420568, Control_c, 0, 64, 40
2, 1420576, Control_c, 0, 64, 88
2, 1420584, Control_c, 0, 64, 127
2, 1420616, Note_on_c, 0, 65, 90
2, 1420680, Note_on_c, 0, 65, 0
2, 1420708, Note_on_c, 0, 61, 84
2, 1420708, Note_on_c, 0, 65, 80
2, 1420720, Note_on_c, 0, 49, 72
2, 1420760, Note_on_c, 0, 49, 0
2, 1420772, Note_on_c, 0, 73, 0
2, 1420776, Note_on_c, 0, 61, 0
2, 1420804, Note_on_c, 0, 65, 91
2, 1420804, Note_on_c, 0, 61, 80
2, 1420864, Control_c, 0, 64, 104
2, 1420868, Note_on_c, 0, 65, 0
2, 1420876, Control_c, 0, 64, 72
2, 1420884, Note_on_c, 0, 65, 0
2, 1420884, Control_c, 0, 64, 24
2, 1420892, Control_c, 0, 64, 0
2, 1420896, Note_on_c, 0, 60, 88
2, 1420896, Note_on_c, 0, 66, 90
2, 1420904, Note_on_c, 0, 48, 81
2, 1420920, Control_c, 0, 64, 24
2, 1420932, Control_c, 0, 64, 56
2, 1420936, Note_on_c, 0, 48, 0
2, 1420936, Note_on_c, 0, 60, 0
2, 1420940, Control_c, 0, 64, 88
2, 1420948, Control_c, 0, 64, 104
2, 1420960, Control_c, 0, 64, 127
2, 1420964, Note_on_c, 0, 61, 0
2, 1420972, Note_on_c, 0, 66, 0
2, 1420984, Note_on_c, 0, 61, 83
2, 1421040, Control_c, 0, 64, 104
2, 1421052, Control_c, 0, 64, 72
2, 1421060, Control_c, 0, 64, 40
2, 1421068, Note_on_c, 0, 61, 0
2, 1421072, Control_c, 0, 64, 0
2, 1421080, Note_on_c, 0, 68, 89
2, 1421088, Note_on_c, 0, 59, 81
2, 1421092, Note_on_c, 0, 47, 75
2, 1421092, Note_on_c, 0, 49, 71
2, 1421116, Control_c, 0, 64, 24
2, 1421124, Control_c, 0, 64, 56
2, 1421128, Note_on_c, 0, 47, 0
2, 1421132, Control_c, 0, 64, 88
2, 1421136, Note_on_c, 0, 59, 0
2, 1421144, Control_c, 0, 64, 104
2, 1421148, Note_on_c, 0, 49, 0
2, 1421152, Control_c, 0, 64, 127
2, 1421164, Note_on_c, 0, 68, 0
2, 1421172, Note_on_c, 0, 61, 80
2, 1421228, Control_c, 0, 64, 104
2, 1421236, Control_c, 0, 64, 72
2, 1421244, Control_c, 0, 64, 24
2, 1421256, Control_c, 0, 64, 0
2, 1421260, Note_on_c, 0, 61, 0
2, 1421268, Note_on_c, 0, 69, 96
2, 1421272, Note_on_c, 0, 49, 77
2, 1421276, Note_on_c, 0, 57, 75
2, 1421284, Note_on_c, 0, 45, 73
2, 1421292, Control_c, 0, 64, 24
2, 1421304, Control_c, 0, 64, 56
2, 1421308, Note_on_c, 0, 45, 0
2, 1421312, Control_c, 0, 64, 88
2, 1421320, Control_c, 0, 64, 104
2, 1421324, Note_on_c, 0, 49, 0
2, 1421328, Note_on_c, 0, 57, 0
2, 1421340, Control_c, 0, 64, 127
2, 1421360, Note_on_c, 0, 69, 0
2, 1421360, Note_on_c, 0, 61, 80
2, 1421412, Control_c, 0, 64, 88
2, 1421424, Control_c, 0, 64, 56
2, 1421432, Control_c, 0, 64, 0
2, 1421448, Note_on_c, 0, 61, 0
2, 1421456, Note_on_c, 0, 71, 94
2, 1421468, Note_on_c, 0, 56, 69
2, 1421472, Note_on_c, 0, 49, 70
2, 1421476, Note_on_c, 0, 44, 61
2, 1421480, Control_c, 0, 64, 40
2, 1421488, Control_c, 0, 64, 56
2, 1421500, Control_c, 0, 64, 72
2, 1421508, Note_on_c, 0, 56, 0
2, 1421508, Control_c, 0, 64, 88
2, 1421512, Note_on_c, 0, 49, 0
2, 1421516, Control_c, 0, 64, 104
2, 1421524, Note_on_c, 0, 44, 0
2, 1421536, Note_on_c, 0, 71, 0
2, 1421544, Control_c, 0, 64, 127
2, 1421556, Note_on_c, 0, 61, 74
2, 1421600, Note_on_c, 0, 61, 0
2, 1421608, Control_c, 0, 64, 88
2, 1421616, Control_c, 0, 64, 56
2, 1421628, Control_c, 0, 64, 24
2, 1421636, Control_c, 0, 64, 0
2, 1421668, Note_on_c, 0, 69, 94
2, 1421672, Note_on_c, 0, 42, 88
2, 1421672, Note_on_c, 0, 54, 80
2, 1421672, Note_on_c, 0, 49, 80
2, 1421692, Control_c, 0, 64, 40
2, 1421704, Control_c, 0, 64, 88
2, 1421712, Control_c, 0, 64, 127
2, 1421724, Note_on_c, 0, 42, 0
2, 1421740, Note_on_c, 0, 69, 0
2, 1421760, Note_on_c, 0, 61, 80
2, 1421844, Note_on_c, 0, 61, 0
2, 1421852, Note_on_c, 0, 54, 0
2, 1421852, Note_on_c, 0, 49, 0
2, 1421856, Note_on_c, 0, 60, 88
2, 1421864, Note_on_c, 0, 57, 67
2, 1421868, Note_on_c, 0, 54, 63
2, 1421916, Note_on_c, 0, 57, 0
2, 1421924, Note_on_c, 0, 60, 0
2, 1421948, Note_on_c, 0, 61, 76
2, 1422012, Note_on_c, 0, 54, 0
2, 1422028, Note_on_c, 0, 61, 0
2, 1422040, Note_on_c, 0, 62, 84
2, 1422124, Note_on_c, 0, 62, 0
2, 1422128, Note_on_c, 0, 63, 89
2, 1422168, Note_on_c, 0, 63, 0
2, 1422196, Control_c, 0, 64, 88
2, 1422204, Control_c, 0, 64, 40
2, 1422212, Control_c, 0, 64, 0
2, 1422240, Note_on_c, 0, 71, 96
2, 1422240, Note_on_c, 0, 41, 86
2, 1422240, Note_on_c, 0, 53, 82
2, 1422240, Note_on_c, 0, 69, 82
2, 1422240, Note_on_c, 0, 62, 82
2, 1422276, Control_c, 0, 64, 56
2, 1422288, Note_on_c, 0, 41, 0
2, 1422288, Control_c, 0, 64, 104
2, 1422296, Control_c, 0, 64, 127
2, 1422328, Note_on_c, 0, 71, 0
2, 1422332, Note_on_c, 0, 62, 88
2, 1422420, Note_on_c, 0, 62, 0
2, 1422420, Note_on_c, 0, 62, 0
2, 1422420, Note_on_c, 0, 53, 0
2, 1422420, Note_on_c, 0, 69, 0
2, 1422420, Note_on_c, 0, 61, 83
2, 1422436, Note_on_c, 0, 53, 68
2, 1422436, Note_on_c, 0, 57, 61
2, 1422476, Note_on_c, 0, 61, 0
2, 1422504, Note_on_c, 0, 62, 82
2, 1422556, Note_on_c, 0, 57, 0
2, 1422568, Note_on_c, 0, 53, 0
2, 1422576, Note_on_c, 0, 62, 0
2, 1422596, Note_on_c, 0, 63, 79
2, 1422660, Note_on_c, 0, 63, 0
2, 1422684, Note_on_c, 0, 64, 88
2, 1422732, Control_c, 0, 64, 88
2, 1422744, Note_on_c, 0, 64, 0
2, 1422744, Control_c, 0, 64, 56
2, 1422752, Control_c, 0, 64, 0
2, 1422780, Note_on_c, 0, 73, 99
2, 1422780, Note_on_c, 0, 69, 83
2, 1422788, Note_on_c, 0, 40, 88
2, 1422788, Note_on_c, 0, 52, 82
2, 1422808, Control_c, 0, 64, 24
2, 1422820, Control_c, 0, 64, 72
2, 1422828, Control_c, 0, 64, 127
2, 1422880, Note_on_c, 0, 40, 0
2, 1422880, Note_on_c, 0, 64, 89
2, 1422948, Note_on_c, 0, 64, 0
2, 1422960, Note_on_c, 0, 69, 0
2, 1422964, Note_on_c, 0, 63, 83
2, 1422968, Note_on_c, 0, 52, 0
2, 1422972, Note_on_c, 0, 61, 73
2, 1422976, Note_on_c, 0, 57, 73
2, 1422980, Note_on_c, 0, 52, 71
2, 1422984, Note_on_c, 0, 73, 0
2, 1423032, Note_on_c, 0, 63, 0
2, 1423052, Note_on_c, 0, 64, 93
2, 1423084, Note_on_c, 0, 61, 0
2, 1423092, Note_on_c, 0, 57, 0
2, 1423096, Note_on_c, 0, 52, 0
2, 1423124, Note_on_c, 0, 64, 0
2, 1423148, Note_on_c, 0, 65, 90
2, 1423216, Note_on_c, 0, 65, 0
2, 1423232, Note_on_c, 0, 68, 88
2, 1423292, Control_c, 0, 64, 72
2, 1423300, Control_c, 0, 64, 24
2, 1423312, Control_c, 0, 64, 0
2, 1423320, Note_on_c, 0, 68, 0
2, 1423336, Note_on_c, 0, 71, 98
2, 1423336, Note_on_c, 0, 38, 87
2, 1423336, Note_on_c, 0, 68, 87
2, 1423336, Note_on_c, 0, 50, 83
2, 1423364, Control_c, 0, 64, 72
2, 1423376, Control_c, 0, 64, 127
2, 1423412, Note_on_c, 0, 71, 0
2, 1423424, Note_on_c, 0, 64, 78
2, 1423504, Note_on_c, 0, 64, 0
2, 1423512, Note_on_c, 0, 38, 0
2, 1423516, Note_on_c, 0, 68, 0
2, 1423516, Note_on_c, 0, 50, 0
2, 1423528, Note_on_c, 0, 63, 82
2, 1423536, Note_on_c, 0, 56, 66
2, 1423540, Note_on_c, 0, 59, 72
2, 1423548, Note_on_c, 0, 52, 65
2, 1423580, Note_on_c, 0, 63, 0
2, 1423612, Note_on_c, 0, 64, 93
2, 1423660, Note_on_c, 0, 59, 0
2, 1423676, Note_on_c, 0, 56, 0
2, 1423680, Note_on_c, 0, 52, 0
2, 1423688, Note_on_c, 0, 64, 0
2, 1423704, Note_on_c, 0, 68, 83
2, 1423768, Note_on_c, 0, 68, 0
2, 1423792, Note_on_c, 0, 71, 88
2, 1423840, Control_c, 0, 64, 104
2, 1423848, Control_c, 0, 64, 56
2, 1423860, Control_c, 0, 64, 0
2, 1423880, Note_on_c, 0, 71, 0
2, 1423892, Note_on_c, 0, 76, 101
2, 1423896, Note_on_c, 0, 37, 86
2, 1423896, Note_on_c, 0, 49, 83
2, 1423896, Note_on_c, 0, 69, 83
2, 1423924, Control_c, 0, 64, 56
2, 1423932, Control_c, 0, 64, 127
2, 1423980, Note_on_c, 0, 76, 0
2, 1423992, Note_on_c, 0, 69, 94
2, 1424032, Note_on_c, 0, 37, 0
2, 1424068, Note_on_c, 0, 69, 0
2, 1424076, Note_on_c, 0, 49, 0
2, 1424076, Note_on_c, 0, 69, 0
2, 1424088, Note_on_c, 0, 68, 86
2, 1424096, Note_on_c, 0, 64, 81
2, 1424100, Note_on_c, 0, 52, 79
2, 1424108, Note_on_c, 0, 57, 72
2, 1424148, Note_on_c, 0, 68, 0
2, 1424172, Note_on_c, 0, 69, 98
2, 1424180, Note_on_c, 0, 64, 0
2, 1424208, Note_on_c, 0, 57, 0
2, 1424212, Note_on_c, 0, 52, 0
2, 1424244, Note_on_c, 0, 69, 0
2, 1424272, Note_on_c, 0, 73, 87
2, 1424336, Note_on_c, 0, 73, 0
2, 1424364, Note_on_c, 0, 76, 94
2, 1424396, Control_c, 0, 64, 104
2, 1424408, Control_c, 0, 64, 56
2, 1424416, Control_c, 0, 64, 0
2, 1424444, Note_on_c, 0, 76, 0
2, 1424456, Note_on_c, 0, 42, 87
2, 1424456, Note_on_c, 0, 81, 104
2, 1424456, Note_on_c, 0, 54, 84
2, 1424456, Note_on_c, 0, 69, 84
2, 1424456, Note_on_c, 0, 75, 84
2, 1424480, Control_c, 0, 64, 88
2, 1424488, Control_c, 0, 64, 127
2, 1424492, Note_on_c, 0, 42, 0
2, 1424548, Note_on_c, 0, 71, 87
2, 1424620, Note_on_c, 0, 71, 0
2, 1424636, Note_on_c, 0, 75, 0
2, 1424636, Note_on_c, 0, 69, 0
2, 1424636, Note_on_c, 0, 54, 0
2, 1424648, Note_on_c, 0, 63, 76
2, 1424652, Note_on_c, 0, 70, 84
2, 1424652, Note_on_c, 0, 59, 84
2, 1424652, Note_on_c, 0, 69, 95
2, 1424684, Note_on_c, 0, 81, 0
2, 1424700, Note_on_c, 0, 70, 0
2, 1424732, Note_on_c, 0, 71, 95
2, 1424788, Note_on_c, 0, 69, 0
2, 1424800, Note_on_c, 0, 71, 0
2, 1424804, Note_on_c, 0, 59, 0
2, 1424808, Note_on_c, 0, 63, 0
2, 1424824, Note_on_c, 0, 75, 91
2, 1424896, Note_on_c, 0, 75, 0
2, 1424908, Note_on_c, 0, 78, 87
2, 1424968, Note_on_c, 0, 78, 0
2, 1424984, Control_c, 0, 64, 104
2, 1424992, Control_c, 0, 64, 56
2, 1425004, Control_c, 0, 64, 0
2, 1425016, Note_on_c, 0, 40, 89
2, 1425016, Note_on_c, 0, 85, 106
2, 1425016, Note_on_c, 0, 73, 87
2, 1425016, Note_on_c, 0, 81, 84
2, 1425016, Note_on_c, 0, 76, 84
2, 1425016, Note_on_c, 0, 52, 84
2, 1425056, Control_c, 0, 64, 40
2, 1425068, Control_c, 0, 64, 127
2, 1425088, Note_on_c, 0, 85, 0
2, 1425108, Note_on_c, 0, 76, 93
2, 1425172, Note_on_c, 0, 76, 0
2, 1425192, Note_on_c, 0, 75, 92
2, 1425196, Note_on_c, 0, 52, 0
2, 1425196, Note_on_c, 0, 73, 0
2, 1425196, Note_on_c, 0, 81, 0
2, 1425196, Note_on_c, 0, 76, 0
2, 1425204, Note_on_c, 0, 40, 0
2, 1425204, Note_on_c, 0, 64, 85
2, 1425204, Note_on_c, 0, 69, 84
2, 1425204, Note_on_c, 0, 61, 73
2, 1425252, Note_on_c, 0, 75, 0
2, 1425276, Note_on_c, 0, 76, 98
2, 1425296, Note_on_c, 0, 69, 0
2, 1425312, Note_on_c, 0, 64, 0
2, 1425340, Note_on_c, 0, 61, 0
2, 1425360, Note_on_c, 0, 76, 0
2, 1425372, Note_on_c, 0, 81, 86
2, 1425448, Note_on_c, 0, 81, 0
2, 1425452, Note_on_c, 0, 85, 97
2, 1425508, Note_on_c, 0, 85, 0
2, 1425512, Control_c, 0, 64, 88
2, 1425524, Control_c, 0, 64, 40
2, 1425532, Control_c, 0, 64, 0
2, 1425552, Note_on_c, 0, 40, 91
2, 1425552, Note_on_c, 0, 83, 104
2, 1425552, Note_on_c, 0, 52, 84
2, 1425552, Note_on_c, 0, 80, 84
2, 1425552, Note_on_c, 0, 74, 84
2, 1425552, Note_on_c, 0, 71, 84
2, 1425588, Control_c, 0, 64, 40
2, 1425592, Note_on_c, 0, 40, 0
2, 1425596, Control_c, 0, 64, 104
2, 1425608, Control_c, 0, 64, 127
2, 1425640, Note_on_c, 0, 76, 93
2, 1425712, Note_on_c, 0, 76, 0
2, 1425732, Note_on_c, 0, 71, 0
2, 1425732, Note_on_c, 0, 80, 0
2, 1425732, Note_on_c, 0, 74, 0
2, 1425732, Note_on_c, 0, 52, 0
2, 1425740, Note_on_c, 0, 75, 93
2, 1425752, Note_on_c, 0, 68, 80
2, 1425756, Note_on_c, 0, 71, 84
2, 1425756, Note_on_c, 0, 64, 80
2, 1425756, Note_on_c, 0, 62, 81
2, 1425788, Note_on_c, 0, 83, 0
2, 1425804, Note_on_c, 0, 75, 0
2, 1425820, Note_on_c, 0, 76, 94
2, 1425916, Note_on_c, 0, 71, 0
2, 1425916, Note_on_c, 0, 80, 87
2, 1425928, Note_on_c, 0, 68, 0
2, 1425928, Note_on_c, 0, 62, 0
2, 1425936, Note_on_c, 0, 64, 0
2, 1425988, Control_c, 0, 64, 0
2, 1425992, Note_on_c, 0, 80, 0
2, 1425992, Note_on_c, 0, 83, 97
2, 1426012, Note_on_c, 0, 76, 0
2, 1426032, Note_on_c, 0, 83, 0
2, 1426116, Control_c, 0, 64, 127
2, 1426120, Note_on_c, 0, 81, 108
2, 1426120, Note_on_c, 0, 76, 94
2, 1426120, Note_on_c, 0, 69, 84
2, 1426120, Note_on_c, 0, 57, 86
2, 1426120, Note_on_c, 0, 61, 72
2, 1426120, Note_on_c, 0, 73, 89
2, 1426120, Note_on_c, 0, 45, 91
2, 1426304, Note_on_c, 0, 52, 103
2, 1426304, Note_on_c, 0, 40, 85
2, 1426344, Note_on_c, 0, 40, 0
2, 1426356, Note_on_c, 0, 52, 0
2, 1426372, Note_on_c, 0, 76, 0
2, 1426392, Note_on_c, 0, 64, 93
2, 1426408, Note_on_c, 0, 69, 0
2, 1426424, Note_on_c, 0, 61, 0
2, 1426424, Note_on_c, 0, 73, 0
2, 1426428, Note_on_c, 0, 57, 0
2, 1426436, Note_on_c, 0, 81, 0
2, 1426456, Note_on_c, 0, 45, 0
2, 1426464, Note_on_c, 0, 64, 0
2, 1426476, Note_on_c, 0, 56, 96
2, 1426476, Note_on_c, 0, 44, 84
2, 1426520, Note_on_c, 0, 44, 0
2, 1426552, Note_on_c, 0, 56, 0
2, 1426556, Note_on_c, 0, 68, 90
2, 1426620, Note_on_c, 0, 68, 0
2, 1426644, Note_on_c, 0, 57, 95
2, 1426644, Note_on_c, 0, 45, 87
2, 1426644, Note_on_c, 0, 69, 98
2, 1426756, Note_on_c, 0, 69, 0
2, 1426756, Note_on_c, 0, 45, 0
2, 1426756, Note_on_c, 0, 57, 0
2, 1426824, Note_on_c, 0, 40, 83
2, 1426828, Note_on_c, 0, 52, 94
2, 1426844, Note_on_c, 0, 40, 0
2, 1426864, Note_on_c, 0, 52, 0
2, 1426912, Note_on_c, 0, 64, 94
2, 1426976, Note_on_c, 0, 64, 0
2, 1427004, Note_on_c, 0, 57, 94
2, 1427004, Control_c, 0, 64, 0
2, 1427008, Note_on_c, 0, 45, 88
2, 1427024, Note_on_c, 0, 45, 0
2, 1427060, Note_on_c, 0, 57, 0
2, 1427088, Note_on_c, 0, 69, 99
2, 1427144, Note_on_c, 0, 69, 0
2, 1427176, Note_on_c, 0, 46, 93
2, 1427176, Note_on_c, 0, 58, 99
2, 1427176, Note_on_c, 0, 82, 91
2, 1427176, Note_on_c, 0, 76, 82
2, 1427176, Note_on_c, 0, 73, 82
2, 1427176, Note_on_c, 0, 52, 82
2, 1427176, Note_on_c, 0, 61, 82
2, 1427176, Note_on_c, 0, 64, 82
2, 1427176, Note_on_c, 0, 70, 93
2, 1427176, Control_c, 0, 64, 127
2, 1427284, Note_on_c, 0, 58, 0
2, 1427288, Note_on_c, 0, 70, 0
2, 1427288, Note_on_c, 0, 46, 0
2, 1427300, Note_on_c, 0, 52, 0
2, 1427300, Note_on_c, 0, 76, 0
2, 1427300, Note_on_c, 0, 73, 0
2, 1427300, Note_on_c, 0, 64, 0
2, 1427300, Note_on_c, 0, 61, 0
2, 1427304, Note_on_c, 0, 82, 0
2, 1427352, Note_on_c, 0, 40, 83
2, 1427352, Note_on_c, 0, 52, 97
2, 1427380, Note_on_c, 0, 40, 0
2, 1427384, Note_on_c, 0, 52, 0
2, 1427428, Note_on_c, 0, 64, 94
2, 1427504, Note_on_c, 0, 64, 0
2, 1427524, Note_on_c, 0, 57, 98
2, 1427532, Note_on_c, 0, 45, 94
2, 1427548, Note_on_c, 0, 45, 0
2, 1427580, Note_on_c, 0, 57, 0
2, 1427608, Note_on_c, 0, 69, 99
2, 1427608, Control_c, 0, 64, 0
2, 1427676, Note_on_c, 0, 69, 0
2, 1427700, Note_on_c, 0, 58, 98
2, 1427700, Control_c, 0, 64, 0
2, 1427708, Note_on_c, 0, 46, 88
2, 1427736, Note_on_c, 0, 58, 0
2, 1427740, Note_on_c, 0, 46, 0
2, 1427792, Note_on_c, 0, 70, 88
2, 1427872, Note_on_c, 0, 40, 88
2, 1427876, Note_on_c, 0, 52, 96
2, 1427896, Note_on_c, 0, 70, 0
2, 1427908, Note_on_c, 0, 52, 0
2, 1427908, Note_on_c, 0, 40, 0
2, 1427956, Note_on_c, 0, 64, 94
2, 1428044, Note_on_c, 0, 58, 98
2, 1428044, Control_c, 0, 64, 0
2, 1428048, Note_on_c, 0, 64, 0
2, 1428048, Note_on_c, 0, 46, 85
2, 1428088, Note_on_c, 0, 46, 0
2, 1428120, Note_on_c, 0, 58, 0
2, 1428124, Note_on_c, 0, 70, 94
2, 1428188, Note_on_c, 0, 70, 0
2, 1428208, Note_on_c, 0, 59, 98
2, 1428208, Note_on_c, 0, 47, 87
2, 1428208, Note_on_c, 0, 83, 92
2, 1428208, Note_on_c, 0, 71, 82
2, 1428208, Note_on_c, 0, 78, 82
2, 1428208, Note_on_c, 0, 74, 82
2, 1428208, Note_on_c, 0, 64, 82
2, 1428208, Note_on_c, 0, 52, 82
2, 1428208, Control_c, 0, 64, 127
2, 1428236, Note_on_c, 0, 59, 0
2, 1428244, Note_on_c, 0, 47, 0
2, 1428300, Note_on_c, 0, 71, 95
2, 1428380, Note_on_c, 0, 40, 81
2, 1428384, Note_on_c, 0, 52, 97
2, 1428408, Note_on_c, 0, 40, 0
2, 1428408, Note_on_c, 0, 71, 0
2, 1428420, Note_on_c, 0, 52, 0
2, 1428460, Note_on_c, 0, 64, 89
2, 1428504, Note_on_c, 0, 52, 0
2, 1428504, Note_on_c, 0, 71, 0
2, 1428508, Note_on_c, 0, 83, 0
2, 1428512, Note_on_c, 0, 64, 0
2, 1428516, Note_on_c, 0, 78, 0
2, 1428516, Note_on_c, 0, 74, 0
2, 1428532, Note_on_c, 0, 64, 0
2, 1428552, Note_on_c, 0, 59, 93
2, 1428552, Note_on_c, 0, 47, 94
2, 1428552, Note_on_c, 0, 71, 82
2, 1428552, Note_on_c, 0, 65, 79
2, 1428552, Note_on_c, 0, 62, 79
2, 1428552, Control_c, 0, 64, 0
2, 1428584, Note_on_c, 0, 47, 0
2, 1428604, Note_on_c, 0, 59, 0
2, 1428628, Note_on_c, 0, 71, 95
2, 1428684, Note_on_c, 0, 65, 0
2, 1428684, Note_on_c, 0, 62, 0
2, 1428684, Note_on_c, 0, 71, 0
2, 1428688, Note_on_c, 0, 71, 0
2, 1428716, Note_on_c, 0, 62, 100
2, 1428716, Note_on_c, 0, 50, 93
2, 1428716, Note_on_c, 0, 59, 79
2, 1428716, Note_on_c, 0, 47, 79
2, 1428748, Note_on_c, 0, 62, 0
2, 1428752, Note_on_c, 0, 50, 0
2, 1428808, Note_on_c, 0, 74, 98
2, 1428808, Control_c, 0, 64, 127
2, 1428848, Note_on_c, 0, 59, 0
2, 1428848, Note_on_c, 0, 47, 0
2, 1428872, Note_on_c, 0, 74, 0
2, 1428880, Note_on_c, 0, 41, 90
2, 1428884, Note_on_c, 0, 53, 97
2, 1428916, Note_on_c, 0, 41, 0
2, 1428928, Note_on_c, 0, 53, 0
2, 1428968, Note_on_c, 0, 65, 83
2, 1429048, Note_on_c, 0, 62, 94
2, 1429048, Note_on_c, 0, 50, 83
2, 1429048, Note_on_c, 0, 74, 82
2, 1429048, Note_on_c, 0, 71, 78
2, 1429048, Note_on_c, 0, 65, 78
2, 1429048, Control_c, 0, 64, 0
2, 1429052, Note_on_c, 0, 65, 0
2, 1429084, Note_on_c, 0, 50, 0
2, 1429088, Note_on_c, 0, 62, 0
2, 1429132, Note_on_c, 0, 74, 98
2, 1429180, Note_on_c, 0, 74, 0
2, 1429180, Note_on_c, 0, 71, 0
2, 1429180, Note_on_c, 0, 65, 0
2, 1429220, Note_on_c, 0, 59, 98
2, 1429220, Note_on_c, 0, 47, 83
2, 1429220, Note_on_c, 0, 64, 81
2, 1429220, Note_on_c, 0, 52, 81
2, 1429232, Note_on_c, 0, 74, 0
2, 1429252, Note_on_c, 0, 47, 0
2, 1429256, Note_on_c, 0, 59, 0
2, 1429300, Note_on_c, 0, 71, 94
2, 1429300, Control_c, 0, 64, 127
2, 1429352, Note_on_c, 0, 52, 0
2, 1429352, Note_on_c, 0, 64, 0
2, 1429380, Note_on_c, 0, 40, 83
2, 1429380, Note_on_c, 0, 52, 92
2, 1429408, Note_on_c, 0, 71, 0
2, 1429412, Note_on_c, 0, 40, 0
2, 1429424, Note_on_c, 0, 52, 0
2, 1429460, Note_on_c, 0, 64, 94
2, 1429516, Note_on_c, 0, 64, 0
2, 1429528, Control_c, 0, 64, 0
2, 1429536, Note_on_c, 0, 59, 94
2, 1429536, Note_on_c, 0, 47, 94
2, 1429596, Note_on_c, 0, 47, 0
2, 1429596, Note_on_c, 0, 59, 0
2, 1429612, Note_on_c, 0, 71, 95
2, 1429612, Note_on_c, 0, 69, 86
2, 1429612, Note_on_c, 0, 64, 83
2, 1429672, Note_on_c, 0, 71, 0
2, 1429704, Control_c, 0, 64, 127
2, 1429708, Note_on_c, 0, 64, 98
2, 1429708, Note_on_c, 0, 52, 93
2, 1429708, Note_on_c, 0, 40, 88
2, 1429740, Note_on_c, 0, 64, 0
2, 1429744, Note_on_c, 0, 69, 0
2, 1429744, Note_on_c, 0, 64, 0
2, 1429752, Note_on_c, 0, 52, 0
2, 1429792, Note_on_c, 0, 76, 100
2, 1429872, Note_on_c, 0, 40, 83
2, 1429876, Note_on_c, 0, 52, 89
2, 1429880, Note_on_c, 0, 76, 0
2, 1429904, Note_on_c, 0, 40, 0
2, 1429920, Note_on_c, 0, 52, 0
2, 1429940, Control_c, 0, 64, 0
2, 1429944, Note_on_c, 0, 64, 93
2, 1429948, Control_c, 0, 64, 0
2, 1429968, Note_on_c, 0, 40, 0
2, 1429980, Note_on_c, 0, 64, 0
2, 1429992, Control_c, 0, 64, 0
2, 1430032, Control_c, 0, 64, 0
2, 1430036, Note_on_c, 0, 64, 93
2, 1430036, Note_on_c, 0, 62, 84
2, 1430036, Note_on_c, 0, 76, 91
2, 1430036, Note_on_c, 0, 68, 84
2, 1430036, Control_c, 0, 64, 0
2, 1430040, Note_on_c, 0, 52, 84
2, 1430040, Control_c, 0, 64, 0
2, 1430048, Control_c, 0, 64, 0
2, 1430068, Note_on_c, 0, 52, 0
2, 1430072, Note_on_c, 0, 64, 0
2, 1430116, Note_on_c, 0, 76, 103
2, 1430152, Control_c, 0, 64, 0
2, 1430176, Note_on_c, 0, 76, 0
2, 1430192, Note_on_c, 0, 61, 97
2, 1430192, Note_on_c, 0, 85, 90
2, 1430192, Note_on_c, 0, 49, 96
2, 1430192, Note_on_c, 0, 45, 88
2, 1430192, Note_on_c, 0, 81, 84
2, 1430192, Note_on_c, 0, 73, 84
2, 1430192, Note_on_c, 0, 52, 84
2, 1430192, Note_on_c, 0, 57, 84
2, 1430192, Control_c, 0, 64, 127
2, 1430204, Note_on_c, 0, 68, 0
2, 1430204, Note_on_c, 0, 76, 0
2, 1430204, Note_on_c, 0, 62, 0
2, 1430220, Note_on_c, 0, 49, 0
2, 1430228, Note_on_c, 0, 61, 0
2, 1430276, Note_on_c, 0, 73, 89
2, 1430336, Note_on_c, 0, 73, 0
2, 1430364, Note_on_c, 0, 40, 83
2, 1430364, Note_on_c, 0, 52, 100
2, 1430408, Note_on_c, 0, 40, 0
2, 1430408, Note_on_c, 0, 52, 0
2, 1430440, Note_on_c, 0, 64, 94
2, 1430460, Note_on_c, 0, 73, 0
2, 1430460, Note_on_c, 0, 52, 0
2, 1430460, Note_on_c, 0, 85, 0
2, 1430460, Note_on_c, 0, 57, 0
2, 1430460, Note_on_c, 0, 81, 0
2, 1430520, Note_on_c, 0, 56, 98
2, 1430524, Note_on_c, 0, 64, 0
2, 1430524, Note_on_c, 0, 44, 93
2, 1430556, Note_on_c, 0, 44, 0
2, 1430556, Note_on_c, 0, 56, 0
2, 1430584, Note_on_c, 0, 45, 0
2, 1430600, Note_on_c, 0, 68, 90
2, 1430664, Note_on_c, 0, 68, 0
2, 1430692, Note_on_c, 0, 57, 97
2, 1430696, Note_on_c, 0, 45, 94
2, 1430724, Note_on_c, 0, 57, 0
2, 1430732, Note_on_c, 0, 45, 0
2, 1430776, Note_on_c, 0, 69, 93
2, 1430824, Note_on_c, 0, 69, 0
2, 1430864, Note_on_c, 0, 40, 85
2, 1430868, Note_on_c, 0, 52, 98
2, 1430900, Note_on_c, 0, 40, 0
2, 1430904, Note_on_c, 0, 52, 0
2, 1430944, Note_on_c, 0, 64, 93
2, 1431012, Note_on_c, 0, 64, 0
2, 1431028, Note_on_c, 0, 57, 97
2, 1431032, Note_on_c, 0, 45, 93
2, 1431032, Control_c, 0, 64, 0
2, 1431076, Note_on_c, 0, 45, 0
2, 1431084, Note_on_c, 0, 57, 0
2, 1431108, Note_on_c, 0, 69, 97
2, 1431172, Note_on_c, 0, 69, 0
2, 1431192, Note_on_c, 0, 58, 93
2, 1431192, Note_on_c, 0, 82, 93
2, 1431192, Note_on_c, 0, 70, 88
2, 1431192, Note_on_c, 0, 79, 88
2, 1431192, Note_on_c, 0, 73, 88
2, 1431192, Note_on_c, 0, 52, 88
2, 1431196, Note_on_c, 0, 46, 93
2, 1431196, Control_c, 0, 64, 127
2, 1431228, Note_on_c, 0, 58, 0
2, 1431236, Note_on_c, 0, 46, 0
2, 1431276, Note_on_c, 0, 70, 89
2, 1431276, Control_c, 0, 64, 127
2, 1431352, Note_on_c, 0, 70, 0
2, 1431356, Note_on_c, 0, 40, 83
2, 1431364, Note_on_c, 0, 52, 92
2, 1431400, Note_on_c, 0, 40, 0
2, 1431400, Note_on_c, 0, 52, 0
2, 1431440, Note_on_c, 0, 64, 93
2, 1431460, Note_on_c, 0, 70, 0
2, 1431460, Note_on_c, 0, 73, 0
2, 1431460, Note_on_c, 0, 79, 0
2, 1431460, Note_on_c, 0, 82, 0
2, 1431460, Note_on_c, 0, 52, 0
2, 1431516, Note_on_c, 0, 64, 0
2, 1431528, Note_on_c, 0, 57, 97
2, 1431532, Note_on_c, 0, 45, 97
2, 1431572, Note_on_c, 0, 45, 0
2, 1431584, Note_on_c, 0, 57, 0
2, 1431608, Note_on_c, 0, 69, 98
2, 1431668, Note_on_c, 0, 69, 0
2, 1431692, Note_on_c, 0, 58, 101
2, 1431696, Note_on_c, 0, 46, 95
2, 1431728, Note_on_c, 0, 46, 0
2, 1431728, Note_on_c, 0, 58, 0
2, 1431780, Note_on_c, 0, 70, 90
2, 1431856, Note_on_c, 0, 70, 0
2, 1431860, Note_on_c, 0, 40, 85
2, 1431864, Note_on_c, 0, 52, 100
2, 1431896, Note_on_c, 0, 40, 0
2, 1431908, Note_on_c, 0, 52, 0
2, 1431944, Note_on_c, 0, 64, 93
2, 1432024, Note_on_c, 0, 64, 0
2, 1432032, Note_on_c, 0, 58, 98
2, 1432036, Note_on_c, 0, 46, 97
2, 1432064, Note_on_c, 0, 46, 0
2, 1432064, Note_on_c, 0, 58, 0
2, 1432076, Control_c, 0, 64, 24
2, 1432116, Note_on_c, 0, 70, 97
2, 1432132, Control_c, 0, 64, 0
2, 1432180, Note_on_c, 0, 70, 0
2, 1432192, Note_on_c, 0, 59, 96
2, 1432192, Note_on_c, 0, 47, 83
2, 1432192, Note_on_c, 0, 83, 95
2, 1432192, Note_on_c, 0, 71, 90
2, 1432192, Note_on_c, 0, 78, 90
2, 1432192, Note_on_c, 0, 74, 90
2, 1432192, Note_on_c, 0, 52, 90
2, 1432220, Note_on_c, 0, 47, 0
2, 1432228, Note_on_c, 0, 59, 0
2, 1432232, Control_c, 0, 64, 24
2, 1432244, Control_c, 0, 64, 56
2, 1432252, Control_c, 0, 64, 72
2, 1432260, Control_c, 0, 64, 88
2, 1432272, Control_c, 0, 64, 104
2, 1432288, Note_on_c, 0, 71, 94
2, 1432320, Control_c, 0, 64, 72
2, 1432328, Control_c, 0, 64, 24
2, 1432336, Control_c, 0, 64, 0
2, 1432368, Note_on_c, 0, 40, 81
2, 1432372, Note_on_c, 0, 52, 103
2, 1432380, Control_c, 0, 64, 24
2, 1432388, Note_on_c, 0, 71, 0
2, 1432392, Control_c, 0, 64, 56
2, 1432400, Control_c, 0, 64, 72
2, 1432404, Note_on_c, 0, 40, 0
2, 1432412, Note_on_c, 0, 52, 0
2, 1432412, Control_c, 0, 64, 88
2, 1432420, Control_c, 0, 64, 104
2, 1432448, Note_on_c, 0, 64, 92
2, 1432448, Control_c, 0, 64, 127
2, 1432460, Note_on_c, 0, 71, 0
2, 1432460, Note_on_c, 0, 52, 0
2, 1432460, Note_on_c, 0, 78, 0
2, 1432460, Note_on_c, 0, 83, 0
2, 1432460, Note_on_c, 0, 74, 0
2, 1432504, Control_c, 0, 64, 72
2, 1432512, Note_on_c, 0, 64, 0
2, 1432512, Control_c, 0, 64, 24
2, 1432524, Control_c, 0, 64, 0
2, 1432536, Note_on_c, 0, 59, 91
2, 1432536, Note_on_c, 0, 47, 90
2, 1432560, Control_c, 0, 64, 40
2, 1432568, Control_c, 0, 64, 56
2, 1432576, Note_on_c, 0, 47, 0
2, 1432580, Control_c, 0, 64, 72
2, 1432584, Control_c, 0, 64, 88
2, 1432592, Note_on_c, 0, 59, 0
2, 1432608, Note_on_c, 0, 71, 98
2, 1432644, Control_c, 0, 64, 24
2, 1432652, Control_c, 0, 64, 0
2, 1432668, Note_on_c, 0, 71, 0
2, 1432700, Note_on_c, 0, 62, 97
2, 1432700, Note_on_c, 0, 59, 90
2, 1432700, Note_on_c, 0, 47, 90
2, 1432704, Note_on_c, 0, 50, 91
2, 1432720, Control_c, 0, 64, 40
2, 1432728, Control_c, 0, 64, 72
2, 1432736, Control_c, 0, 64, 104
2, 1432740, Note_on_c, 0, 62, 0
2, 1432744, Note_on_c, 0, 50, 0
2, 1432748, Control_c, 0, 64, 127
2, 1432792, Note_on_c, 0, 74, 96
2, 1432828, Control_c, 0, 64, 88
2, 1432840, Control_c, 0, 64, 40
2, 1432848, Control_c, 0, 64, 0
2, 1432852, Note_on_c, 0, 74, 0
2, 1432864, Note_on_c, 0, 41, 85
2, 1432868, Note_on_c, 0, 53, 96
2, 1432900, Note_on_c, 0, 41, 0
2, 1432904, Control_c, 0, 64, 40
2, 1432908, Note_on_c, 0, 53, 0
2, 1432912, Control_c, 0, 64, 72
2, 1432920, Control_c, 0, 64, 88
2, 1432932, Control_c, 0, 64, 104
2, 1432952, Note_on_c, 0, 65, 93
2, 1432968, Note_on_c, 0, 47, 0
2, 1432968, Note_on_c, 0, 59, 0
2, 1433004, Control_c, 0, 64, 24
2, 1433012, Note_on_c, 0, 65, 0
2, 1433012, Control_c, 0, 64, 0
2, 1433040, Note_on_c, 0, 62, 93
2, 1433040, Note_on_c, 0, 50, 88
2, 1433040, Note_on_c, 0, 74, 93
2, 1433040, Note_on_c, 0, 65, 89
2, 1433060, Control_c, 0, 64, 40
2, 1433072, Control_c, 0, 64, 72
2, 1433076, Note_on_c, 0, 50, 0
2, 1433076, Note_on_c, 0, 62, 0
2, 1433080, Control_c, 0, 64, 88
2, 1433088, Control_c, 0, 64, 104
2, 1433124, Note_on_c, 0, 74, 98
2, 1433156, Control_c, 0, 64, 72
2, 1433164, Control_c, 0, 64, 24
2, 1433172, Control_c, 0, 64, 0
2, 1433192, Note_on_c, 0, 74, 0
2, 1433212, Note_on_c, 0, 59, 93
2, 1433212, Note_on_c, 0, 47, 78
2, 1433212, Note_on_c, 0, 64, 89
2, 1433212, Note_on_c, 0, 52, 89
2, 1433240, Note_on_c, 0, 59, 0
2, 1433244, Note_on_c, 0, 47, 0
2, 1433248, Control_c, 0, 64, 56
2, 1433256, Control_c, 0, 64, 88
2, 1433264, Control_c, 0, 64, 104
2, 1433276, Control_c, 0, 64, 127
2, 1433288, Note_on_c, 0, 71, 92
2, 1433308, Note_on_c, 0, 65, 0
2, 1433308, Note_on_c, 0, 74, 0
2, 1433332, Control_c, 0, 64, 72
2, 1433340, Control_c, 0, 64, 0
2, 1433360, Note_on_c, 0, 71, 0
2, 1433368, Note_on_c, 0, 40, 83
2, 1433376, Note_on_c, 0, 52, 94
2, 1433396, Control_c, 0, 64, 40
2, 1433404, Note_on_c, 0, 40, 0
2, 1433404, Control_c, 0, 64, 72
2, 1433412, Note_on_c, 0, 52, 0
2, 1433416, Control_c, 0, 64, 104
2, 1433424, Control_c, 0, 64, 127
2, 1433448, Note_on_c, 0, 64, 91
2, 1433480, Note_on_c, 0, 64, 0
2, 1433480, Note_on_c, 0, 52, 0
2, 1433496, Note_on_c, 0, 64, 0
2, 1433500, Control_c, 0, 64, 88
2, 1433508, Control_c, 0, 64, 40
2, 1433516, Control_c, 0, 64, 0
2, 1433552, Note_on_c, 0, 64, 94
2, 1433552, Note_on_c, 0, 69, 84
2, 1433552, Note_on_c, 0, 71, 88
2, 1433556, Note_on_c, 0, 52, 79
2, 1433556, Control_c, 0, 64, 24
2, 1433564, Control_c, 0, 64, 56
2, 1433572, Control_c, 0, 64, 88
2, 1433584, Note_on_c, 0, 64, 0
2, 1433584, Control_c, 0, 64, 104
2, 1433592, Control_c, 0, 64, 127
2, 1433596, Note_on_c, 0, 52, 0
2, 1433624, Note_on_c, 0, 71, 95
2, 1433680, Note_on_c, 0, 71, 0
2, 1433692, Control_c, 0, 64, 88
2, 1433704, Control_c, 0, 64, 104
2, 1433712, Note_on_c, 0, 64, 94
2, 1433712, Note_on_c, 0, 52, 86
2, 1433712, Note_on_c, 0, 40, 93
2, 1433712, Control_c, 0, 64, 0
2, 1433748, Control_c, 0, 64, 24
2, 1433756, Note_on_c, 0, 64, 0
2, 1433760, Control_c, 0, 64, 72
2, 1433768, Control_c, 0, 64, 127
2, 1433804, Note_on_c, 0, 76, 93
2, 1433816, Note_on_c, 0, 52, 0
2, 1433820, Note_on_c, 0, 69, 0
2, 1433820, Note_on_c, 0, 71, 0
2, 1433860, Control_c, 0, 64, 72
2, 1433868, Control_c, 0, 64, 24
2, 1433876, Control_c, 0, 64, 0
2, 1433884, Note_on_c, 0, 76, 0
2, 1433892, Note_on_c, 0, 52, 88
2, 1433908, Control_c, 0, 64, 40
2, 1433916, Control_c, 0, 64, 72
2, 1433924, Control_c, 0, 64, 104
2, 1433932, Note_on_c, 0, 52, 0
2, 1433936, Control_c, 0, 64, 127
2, 1433952, Note_on_c, 0, 64, 88
2, 1433980, Note_on_c, 0, 40, 0
2, 1433992, Note_on_c, 0, 64, 0
2, 1434044, Note_on_c, 0, 64, 88
2, 1434044, Note_on_c, 0, 76, 93
2, 1434044, Note_on_c, 0, 68, 93
2, 1434048, Note_on_c, 0, 52, 84
2, 1434088, Note_on_c, 0, 64, 0
2, 1434092, Note_on_c, 0, 52, 0
2, 1434128, Note_on_c, 0, 76, 96
2, 1434180, Note_on_c, 0, 76, 0
2, 1434180, Note_on_c, 0, 76, 0
2, 1434212, Control_c, 0, 64, 72
2, 1434224, Control_c, 0, 64, 40
2, 1434232, Control_c, 0, 64, 0
2, 1434240, Note_on_c, 0, 69, 91
2, 1434240, Note_on_c, 0, 73, 94
2, 1434240, Note_on_c, 0, 61, 88
2, 1434240, Note_on_c, 0, 57, 85
2, 1434240, Note_on_c, 0, 45, 89
2, 1434240, Note_on_c, 0, 76, 89
2, 1434240, Note_on_c, 0, 81, 89
2, 1434240, Note_on_c, 0, 85, 90
2, 1434276, Note_on_c, 0, 61, 0
2, 1434288, Control_c, 0, 64, 40
2, 1434296, Note_on_c, 0, 73, 0
2, 1434296, Control_c, 0, 64, 88
2, 1434304, Control_c, 0, 64, 127
2, 1434312, Note_on_c, 0, 68, 0
2, 1434312, Note_on_c, 0, 69, 0
2, 1434400, Control_c, 0, 64, 104
2, 1434408, Control_c, 0, 64, 88
2, 1434416, Note_on_c, 0, 45, 0
2, 1434416, Note_on_c, 0, 57, 0
2, 1434416, Note_on_c, 0, 85, 0
2, 1434416, Note_on_c, 0, 76, 0
2, 1434416, Note_on_c, 0, 81, 0
2, 1434416, Control_c, 0, 64, 72
2, 1434428, Control_c, 0, 64, 40
2, 1434436, Control_c, 0, 64, 24
2, 1434448, Note_on_c, 0, 57, 94
2, 1434448, Control_c, 0, 64, 127
2, 1434564, Note_on_c, 0, 81, 94
2, 1434568, Note_on_c, 0, 69, 91
2, 1434600, Note_on_c, 0, 69, 0
2, 1434616, Note_on_c, 0, 81, 0
2, 1434616, Note_on_c, 0, 57, 0
2, 1434680, Note_on_c, 0, 61, 92
2, 1434776, Note_on_c, 0, 73, 91
2, 1434776, Note_on_c, 0, 85, 98
2, 1434820, Note_on_c, 0, 73, 0
2, 1434824, Note_on_c, 0, 85, 0
2, 1434864, Note_on_c, 0, 61, 0
2, 1434896, Note_on_c, 0, 64, 99
2, 1434948, Note_on_c, 0, 64, 0
2, 1435004, Note_on_c, 0, 76, 91
2, 1435008, Note_on_c, 0, 88, 96
2, 1435040, Note_on_c, 0, 76, 0
2, 1435056, Note_on_c, 0, 88, 0
2, 1435112, Note_on_c, 0, 73, 101
2, 1435212, Note_on_c, 0, 97, 105
2, 1435212, Note_on_c, 0, 85, 97
2, 1435252, Note_on_c, 0, 85, 0
2, 1435252, Note_on_c, 0, 97, 0
2, 1435280, Note_on_c, 0, 73, 0
2, 1435320, Note_on_c, 0, 68, 93
2, 1435416, Note_on_c, 0, 92, 103
2, 1435420, Note_on_c, 0, 80, 98
2, 1435468, Note_on_c, 0, 80, 0
2, 1435516, Note_on_c, 0, 68, 0
2, 1435528, Note_on_c, 0, 69, 99
2, 1435532, Note_on_c, 0, 92, 0
2, 1435572, Note_on_c, 0, 69, 0
2, 1435632, Note_on_c, 0, 93, 103
2, 1435640, Note_on_c, 0, 81, 93
2, 1435676, Note_on_c, 0, 93, 0
2, 1435680, Note_on_c, 0, 81, 0
2, 1435736, Note_on_c, 0, 61, 93
2, 1435764, Control_c, 0, 64, 72
2, 1435776, Control_c, 0, 64, 0
2, 1435812, Control_c, 0, 64, 56
2, 1435824, Control_c, 0, 64, 104
2, 1435832, Control_c, 0, 64, 127
2, 1435848, Note_on_c, 0, 73, 90
2, 1435852, Note_on_c, 0, 85, 99
2, 1435884, Note_on_c, 0, 73, 0
2, 1435900, Note_on_c, 0, 85, 0
2, 1435928, Note_on_c, 0, 61, 0
2, 1435960, Note_on_c, 0, 66, 98
2, 1435960, Note_on_c, 0, 69, 80
2, 1436056, Note_on_c, 0, 90, 97
2, 1436056, Note_on_c, 0, 78, 96
2, 1436108, Note_on_c, 0, 78, 0
2, 1436112, Note_on_c, 0, 90, 0
2, 1436132, Note_on_c, 0, 66, 0
2, 1436168, Note_on_c, 0, 64, 94
2, 1436260, Note_on_c, 0, 88, 97
2, 1436264, Note_on_c, 0, 76, 93
2, 1436304, Note_on_c, 0, 76, 0
2, 1436308, Note_on_c, 0, 88, 0
2, 1436312, Note_on_c, 0, 64, 0
2, 1436372, Note_on_c, 0, 57, 94
2, 1436400, Control_c, 0, 64, 104
2, 1436408, Control_c, 0, 64, 24
2, 1436416, Control_c, 0, 64, 0
2, 1436444, Control_c, 0, 64, 24
2, 1436456, Control_c, 0, 64, 72
2, 1436464, Control_c, 0, 64, 127
2, 1436472, Note_on_c, 0, 81, 95
2, 1436476, Note_on_c, 0, 69, 84
2, 1436516, Note_on_c, 0, 69, 0
2, 1436528, Note_on_c, 0, 81, 0
2, 1436540, Note_on_c, 0, 57, 0
2, 1436572, Note_on_c, 0, 59, 93
2, 1436572, Note_on_c, 0, 71, 88
2, 1436572, Note_on_c, 0, 68, 79
2, 1436572, Note_on_c, 0, 64, 80
2, 1436572, Note_on_c, 0, 57, 84
2, 1436572, Note_on_c, 0, 45, 87
2, 1436612, Note_on_c, 0, 69, 0
2, 1436672, Note_on_c, 0, 83, 96
2, 1436680, Note_on_c, 0, 71, 84
2, 1436704, Note_on_c, 0, 57, 0
2, 1436704, Note_on_c, 0, 64, 0
2, 1436704, Note_on_c, 0, 68, 0
2, 1436704, Note_on_c, 0, 71, 0
2, 1436704, Note_on_c, 0, 45, 0
2, 1436716, Note_on_c, 0, 71, 0
2, 1436732, Note_on_c, 0, 83, 0
2, 1436768, Note_on_c, 0, 59, 0
2, 1436772, Control_c, 0, 64, 72
2, 1436784, Control_c, 0, 64, 24
2, 1436788, Note_on_c, 0, 61, 97
2, 1436788, Note_on_c, 0, 73, 93
2, 1436788, Note_on_c, 0, 69, 86
2, 1436788, Note_on_c, 0, 64, 86
2, 1436788, Note_on_c, 0, 45, 86
2, 1436788, Note_on_c, 0, 33, 90
2, 1436804, Control_c, 0, 64, 40
2, 1436812, Control_c, 0, 64, 72
2, 1436824, Control_c, 0, 64, 127
2, 1436828, Note_on_c, 0, 61, 0
2, 1436888, Note_on_c, 0, 85, 94
2, 1436892, Note_on_c, 0, 73, 91
2, 1436920, Note_on_c, 0, 69, 0
2, 1436920, Note_on_c, 0, 45, 0
2, 1436920, Note_on_c, 0, 73, 0
2, 1436920, Note_on_c, 0, 64, 0
2, 1436920, Note_on_c, 0, 33, 0
2, 1436924, Note_on_c, 0, 85, 0
2, 1436928, Note_on_c, 0, 73, 0
2, 1436988, Note_on_c, 0, 45, 98
2, 1437032, Control_c, 0, 64, 40
2, 1437040, Control_c, 0, 64, 0
2, 1437068, Control_c, 0, 64, 56
2, 1437076, Control_c, 0, 64, 127
2, 1437096, Note_on_c, 0, 69, 94
2, 1437100, Note_on_c, 0, 57, 83
2, 1437128, Note_on_c, 0, 45, 0
2, 1437136, Note_on_c, 0, 57, 0
2, 1437148, Note_on_c, 0, 69, 0
2, 1437208, Note_on_c, 0, 49, 95
2, 1437208, Control_c, 0, 64, 104
2, 1437216, Control_c, 0, 64, 24
2, 1437228, Control_c, 0, 64, 0
2, 1437248, Control_c, 0, 64, 40
2, 1437256, Control_c, 0, 64, 72
2, 1437264, Control_c, 0, 64, 127
2, 1437308, Note_on_c, 0, 61, 89
2, 1437308, Note_on_c, 0, 73, 98
2, 1437348, Note_on_c, 0, 61, 0
2, 1437364, Note_on_c, 0, 73, 0
2, 1437392, Note_on_c, 0, 49, 0
2, 1437416, Note_on_c, 0, 52, 103
2, 1437424, Control_c, 0, 64, 88
2, 1437444, Control_c, 0, 64, 127
2, 1437460, Note_on_c, 0, 52, 0
2, 1437524, Note_on_c, 0, 76, 97
2, 1437524, Note_on_c, 0, 64, 88
2, 1437552, Note_on_c, 0, 64, 0
2, 1437572, Note_on_c, 0, 76, 0
2, 1437624, Note_on_c, 0, 61, 98
2, 1437668, Control_c, 0, 64, 88
2, 1437688, Control_c, 0, 64, 127
2, 1437720, Note_on_c, 0, 85, 93
2, 1437724, Note_on_c, 0, 73, 89
2, 1437764, Note_on_c, 0, 85, 0
2, 1437772, Note_on_c, 0, 73, 0
2, 1437788, Note_on_c, 0, 61, 0
2, 1437828, Note_on_c, 0, 56, 96
2, 1437840, Control_c, 0, 64, 104
2, 1437848, Control_c, 0, 64, 88
2, 1437860, Control_c, 0, 64, 104
2, 1437868, Control_c, 0, 64, 127
2, 1437924, Note_on_c, 0, 80, 98
2, 1437924, Note_on_c, 0, 68, 93
2, 1437988, Note_on_c, 0, 68, 0
2, 1438000, Note_on_c, 0, 56, 0
2, 1438004, Note_on_c, 0, 80, 0
2, 1438032, Note_on_c, 0, 57, 93
2, 1438036, Control_c, 0, 64, 104
2, 1438048, Control_c, 0, 64, 88
2, 1438056, Control_c, 0, 64, 104
2, 1438064, Control_c, 0, 64, 127
2, 1438080, Note_on_c, 0, 57, 0
2, 1438132, Note_on_c, 0, 81, 94
2, 1438140, Note_on_c, 0, 69, 88
2, 1438176, Note_on_c, 0, 69, 0
2, 1438176, Note_on_c, 0, 81, 0
2, 1438236, Note_on_c, 0, 49, 97
2, 1438256, Control_c, 0, 64, 72
2, 1438264, Control_c, 0, 64, 40
2, 1438272, Control_c, 0, 64, 56
2, 1438284, Control_c, 0, 64, 88
2, 1438292, Control_c, 0, 64, 127
2, 1438352, Note_on_c, 0, 73, 93
2, 1438356, Note_on_c, 0, 61, 76
2, 1438392, Note_on_c, 0, 61, 0
2, 1438404, Note_on_c, 0, 73, 0
2, 1438440, Note_on_c, 0, 49, 0
2, 1438456, Note_on_c, 0, 54, 101
2, 1438456, Note_on_c, 0, 69, 88
2, 1438472, Control_c, 0, 64, 88
2, 1438480, Control_c, 0, 64, 40
2, 1438508, Control_c, 0, 64, 88
2, 1438520, Control_c, 0, 64, 127
2, 1438556, Note_on_c, 0, 78, 89
2, 1438560, Note_on_c, 0, 66, 83
2, 1438612, Note_on_c, 0, 78, 0
2, 1438624, Note_on_c, 0, 66, 0
2, 1438640, Note_on_c, 0, 54, 0
2, 1438672, Note_on_c, 0, 52, 98
2, 1438680, Control_c, 0, 64, 88
2, 1438688, Control_c, 0, 64, 0
2, 1438744, Control_c, 0, 64, 56
2, 1438752, Control_c, 0, 64, 127
2, 1438772, Note_on_c, 0, 76, 95
2, 1438776, Note_on_c, 0, 64, 84
2, 1438812, Note_on_c, 0, 76, 0
2, 1438816, Note_on_c, 0, 64, 0
2, 1438848, Note_on_c, 0, 52, 0
2, 1438876, Note_on_c, 0, 45, 99
2, 1438892, Control_c, 0, 64, 56
2, 1438904, Control_c, 0, 64, 40
2, 1438916, Control_c, 0, 64, 56
2, 1438924, Control_c, 0, 64, 88
2, 1438932, Control_c, 0, 64, 127
2, 1438972, Note_on_c, 0, 69, 0
2, 1438980, Note_on_c, 0, 69, 97
2, 1438984, Note_on_c, 0, 57, 83
2, 1439016, Note_on_c, 0, 57, 0
2, 1439016, Note_on_c, 0, 45, 0
2, 1439036, Note_on_c, 0, 69, 0
2, 1439088, Note_on_c, 0, 47, 93
2, 1439088, Note_on_c, 0, 45, 88
2, 1439088, Note_on_c, 0, 52, 88
2, 1439088, Note_on_c, 0, 71, 91
2, 1439088, Note_on_c, 0, 68, 86
2, 1439088, Note_on_c, 0, 64, 86
2, 1439088, Note_on_c, 0, 33, 89
2, 1439104, Control_c, 0, 64, 104
2, 1439112, Control_c, 0, 64, 40
2, 1439120, Control_c, 0, 64, 0
2, 1439132, Control_c, 0, 64, 24
2, 1439140, Note_on_c, 0, 45, 0
2, 1439140, Control_c, 0, 64, 56
2, 1439152, Control_c, 0, 64, 88
2, 1439160, Control_c, 0, 64, 127
2, 1439164, Note_on_c, 0, 47, 0
2, 1439188, Note_on_c, 0, 71, 103
2, 1439192, Note_on_c, 0, 59, 90
2, 1439200, Note_on_c, 0, 68, 67
2, 1439200, Note_on_c, 0, 64, 79
2, 1439216, Note_on_c, 0, 68, 0
2, 1439220, Note_on_c, 0, 52, 0
2, 1439220, Note_on_c, 0, 71, 0
2, 1439220, Note_on_c, 0, 64, 0
2, 1439220, Note_on_c, 0, 68, 0
2, 1439220, Note_on_c, 0, 64, 0
2, 1439220, Note_on_c, 0, 33, 0
2, 1439228, Note_on_c, 0, 59, 0
2, 1439248, Note_on_c, 0, 71, 0
2, 1439308, Note_on_c, 0, 73, 101
2, 1439312, Note_on_c, 0, 61, 93
2, 1439312, Control_c, 0, 64, 40
2, 1439316, Note_on_c, 0, 69, 88
2, 1439316, Note_on_c, 0, 64, 88
2, 1439320, Control_c, 0, 64, 0
2, 1439324, Note_on_c, 0, 52, 79
2, 1439328, Note_on_c, 0, 45, 78
2, 1439328, Note_on_c, 0, 33, 93
2, 1439356, Control_c, 0, 64, 56
2, 1439368, Note_on_c, 0, 64, 0
2, 1439368, Control_c, 0, 64, 127
2, 1439376, Note_on_c, 0, 69, 0
2, 1439376, Note_on_c, 0, 61, 0
2, 1439380, Note_on_c, 0, 73, 0
2, 1439460, Note_on_c, 0, 33, 0
2, 1439556, Note_on_c, 0, 69, 101
2, 1439556, Note_on_c, 0, 64, 87
2, 1439560, Note_on_c, 0, 57, 92
2, 1439592, Note_on_c, 0, 57, 0
2, 1439596, Note_on_c, 0, 45, 0
2, 1439612, Note_on_c, 0, 69, 0
2, 1439632, Note_on_c, 0, 52, 0
2, 1439664, Note_on_c, 0, 61, 93
2, 1439688, Note_on_c, 0, 64, 0
2, 1439720, Note_on_c, 0, 61, 0
2, 1439772, Note_on_c, 0, 71, 101
2, 1439772, Note_on_c, 0, 68, 83
2, 1439776, Note_on_c, 0, 59, 91
2, 1439776, Note_on_c, 0, 52, 90
2, 1439780, Note_on_c, 0, 64, 87
2, 1439816, Note_on_c, 0, 59, 0
2, 1439832, Note_on_c, 0, 52, 0
2, 1439836, Note_on_c, 0, 64, 0
2, 1439840, Note_on_c, 0, 68, 0
2, 1439840, Note_on_c, 0, 71, 0
2, 1439880, Note_on_c, 0, 64, 93
2, 1439956, Note_on_c, 0, 64, 0
2, 1439980, Control_c, 0, 64, 88
2, 1439988, Note_on_c, 0, 73, 101
2, 1439988, Control_c, 0, 64, 0
2, 1439996, Note_on_c, 0, 61, 90
2, 1440000, Note_on_c, 0, 69, 92
2, 1440004, Note_on_c, 0, 52, 83
2, 1440004, Note_on_c, 0, 64, 88
2, 1440008, Note_on_c, 0, 45, 81
2, 1440008, Note_on_c, 0, 33, 86
2, 1440044, Control_c, 0, 64, 88
2, 1440056, Control_c, 0, 64, 127
2, 1440068, Note_on_c, 0, 64, 0
2, 1440076, Note_on_c, 0, 69, 0
2, 1440088, Note_on_c, 0, 73, 0
2, 1440096, Note_on_c, 0, 61, 0
2, 1440104, Note_on_c, 0, 64, 89
2, 1440140, Note_on_c, 0, 33, 0
2, 1440152, Note_on_c, 0, 64, 0
2, 1440224, Note_on_c, 0, 69, 93
2, 1440224, Note_on_c, 0, 64, 82
2, 1440248, Note_on_c, 0, 45, 0
2, 1440292, Note_on_c, 0, 69, 0
2, 1440304, Note_on_c, 0, 52, 0
2, 1440328, Note_on_c, 0, 61, 93
2, 1440356, Note_on_c, 0, 64, 0
2, 1440376, Note_on_c, 0, 61, 0
2, 1440428, Note_on_c, 0, 71, 103
2, 1440428, Note_on_c, 0, 68, 88
2, 1440432, Note_on_c, 0, 59, 88
2, 1440440, Note_on_c, 0, 64, 83
2, 1440440, Note_on_c, 0, 52, 87
2, 1440472, Note_on_c, 0, 59, 0
2, 1440488, Note_on_c, 0, 64, 0
2, 1440496, Note_on_c, 0, 71, 0
2, 1440496, Note_on_c, 0, 68, 0
2, 1440496, Note_on_c, 0, 52, 0
2, 1440628, Control_c, 0, 64, 104
2, 1440640, Control_c, 0, 64, 24
2, 1440648, Note_on_c, 0, 73, 98
2, 1440648, Control_c, 0, 64, 0
2, 1440652, Note_on_c, 0, 61, 87
2, 1440656, Note_on_c, 0, 69, 92
2, 1440660, Note_on_c, 0, 64, 89
2, 1440664, Note_on_c, 0, 52, 79
2, 1440668, Note_on_c, 0, 45, 80
2, 1440668, Note_on_c, 0, 33, 88
2, 1440696, Control_c, 0, 64, 56
2, 1440704, Control_c, 0, 64, 127
2, 1440716, Note_on_c, 0, 64, 0
2, 1440736, Note_on_c, 0, 69, 0
2, 1440748, Note_on_c, 0, 73, 0
2, 1440756, Note_on_c, 0, 61, 0
2, 1440768, Note_on_c, 0, 73, 91
2, 1440800, Note_on_c, 0, 33, 0
2, 1440816, Note_on_c, 0, 73, 0
2, 1440884, Note_on_c, 0, 81, 92
2, 1440884, Note_on_c, 0, 76, 86
2, 1440892, Note_on_c, 0, 45, 0
2, 1440940, Note_on_c, 0, 52, 0
2, 1440956, Note_on_c, 0, 81, 0
2, 1440984, Note_on_c, 0, 73, 91
2, 1441016, Note_on_c, 0, 76, 0
2, 1441032, Note_on_c, 0, 73, 0
2, 1441088, Note_on_c, 0, 71, 101
2, 1441088, Note_on_c, 0, 83, 101
2, 1441088, Note_on_c, 0, 80, 93
2, 1441092, Note_on_c, 0, 68, 82
2, 1441092, Note_on_c, 0, 59, 84
2, 1441100, Note_on_c, 0, 64, 79
2, 1441104, Note_on_c, 0, 52, 84
2, 1441128, Note_on_c, 0, 64, 0
2, 1441132, Note_on_c, 0, 59, 0
2, 1441148, Note_on_c, 0, 52, 0
2, 1441160, Note_on_c, 0, 71, 0
2, 1441160, Note_on_c, 0, 68, 0
2, 1441168, Note_on_c, 0, 80, 0
2, 1441168, Note_on_c, 0, 83, 0
2, 1441196, Note_on_c, 0, 76, 93
2, 1441276, Note_on_c, 0, 76, 0
2, 1441304, Note_on_c, 0, 73, 98
2, 1441304, Note_on_c, 0, 85, 97
2, 1441304, Note_on_c, 0, 81, 93
2, 1441308, Control_c, 0, 64, 56
2, 1441312, Note_on_c, 0, 69, 91
2, 1441312, Note_on_c, 0, 61, 82
2, 1441312, Note_on_c, 0, 33, 89
2, 1441316, Note_on_c, 0, 45, 83
2, 1441316, Note_on_c, 0, 64, 81
2, 1441320, Note_on_c, 0, 52, 76
2, 1441320, Control_c, 0, 64, 0
2, 1441360, Note_on_c, 0, 64, 0
2, 1441364, Control_c, 0, 64, 40
2, 1441376, Control_c, 0, 64, 127
2, 1441384, Note_on_c, 0, 81, 0
2, 1441384, Note_on_c, 0, 85, 0
2, 1441388, Note_on_c, 0, 69, 0
2, 1441396, Note_on_c, 0, 61, 0
2, 1441412, Note_on_c, 0, 73, 0
2, 1441424, Note_on_c, 0, 76, 93
2, 1441444, Note_on_c, 0, 33, 0
2, 1441504, Note_on_c, 0, 76, 0
2, 1441548, Note_on_c, 0, 81, 97
2, 1441548, Note_on_c, 0, 76, 88
2, 1441608, Note_on_c, 0, 45, 0
2, 1441616, Note_on_c, 0, 52, 0
2, 1441668, Note_on_c, 0, 81, 0
2, 1441668, Note_on_c, 0, 73, 93
2, 1441680, Note_on_c, 0, 76, 0
2, 1441748, Note_on_c, 0, 73, 0
2, 1441768, Note_on_c, 0, 71, 98
2, 1441768, Note_on_c, 0, 68, 87
2, 1441768, Note_on_c, 0, 83, 105
2, 1441768, Note_on_c, 0, 80, 93
2, 1441772, Note_on_c, 0, 52, 80
2, 1441776, Note_on_c, 0, 59, 83
2, 1441816, Note_on_c, 0, 59, 0
2, 1441824, Note_on_c, 0, 52, 0
2, 1441840, Note_on_c, 0, 71, 0
2, 1441844, Note_on_c, 0, 68, 0
2, 1441848, Note_on_c, 0, 83, 0
2, 1441848, Note_on_c, 0, 80, 0
2, 1441880, Note_on_c, 0, 76, 101
2, 1441980, Control_c, 0, 64, 56
2, 1441988, Control_c, 0, 64, 0
2, 1441992, Note_on_c, 0, 73, 97
2, 1441992, Note_on_c, 0, 85, 109
2, 1441992, Note_on_c, 0, 81, 101
2, 1442000, Note_on_c, 0, 61, 87
2, 1442008, Note_on_c, 0, 69, 84
2, 1442008, Note_on_c, 0, 64, 85
2, 1442008, Note_on_c, 0, 52, 93
2, 1442008, Note_on_c, 0, 33, 93
2, 1442016, Note_on_c, 0, 45, 81
2, 1442040, Note_on_c, 0, 52, 0
2, 1442040, Note_on_c, 0, 64, 0
2, 1442040, Note_on_c, 0, 69, 0
2, 1442040, Note_on_c, 0, 73, 0
2, 1442040, Control_c, 0, 64, 88
2, 1442048, Note_on_c, 0, 61, 0
2, 1442048, Note_on_c, 0, 45, 0
2, 1442052, Control_c, 0, 64, 127
2, 1442056, Note_on_c, 0, 76, 0
2, 1442140, Note_on_c, 0, 33, 0
2, 1442168, Note_on_c, 0, 85, 0
2, 1442168, Note_on_c, 0, 81, 0
2, 1442232, Note_on_c, 0, 49, 93
2, 1442236, Note_on_c, 0, 40, 78
2, 1442240, Note_on_c, 0, 33, 75
2, 1442292, Note_on_c, 0, 49, 0
2, 1442304, Note_on_c, 0, 33, 0
2, 1442316, Note_on_c, 0, 40, 0
2, 1442328, Note_on_c, 0, 52, 79
2, 1442332, Note_on_c, 0, 45, 84
2, 1442384, Note_on_c, 0, 45, 0
2, 1442428, Note_on_c, 0, 52, 0
2, 1442428, Note_on_c, 0, 57, 78
2, 1442432, Note_on_c, 0, 49, 82
2, 1442444, Note_on_c, 0, 57, 0
2, 1442472, Note_on_c, 0, 49, 0
2, 1442516, Note_on_c, 0, 61, 87
2, 1442516, Note_on_c, 0, 52, 78
2, 1442568, Note_on_c, 0, 52, 0
2, 1442572, Note_on_c, 0, 61, 0
2, 1442628, Control_c, 0, 64, 88
2, 1442632, Note_on_c, 0, 64, 107
2, 1442632, Note_on_c, 0, 61, 94
2, 1442632, Note_on_c, 0, 57, 83
2, 1442636, Note_on_c, 0, 52, 83
2, 1442640, Note_on_c, 0, 45, 81
2, 1442640, Control_c, 0, 64, 0
2, 1442692, Control_c, 0, 64, 40
2, 1442704, Control_c, 0, 64, 104
2, 1442712, Control_c, 0, 64, 127
2, 1442732, Note_on_c, 0, 52, 0
2, 1442756, Note_on_c, 0, 61, 0
2, 1442760, Note_on_c, 0, 45, 0
2, 1442768, Note_on_c, 0, 57, 0
2, 1442800, Note_on_c, 0, 64, 0
2, 1442852, Note_on_c, 0, 61, 87
2, 1442860, Note_on_c, 0, 52, 75
2, 1442860, Note_on_c, 0, 45, 82
2, 1442904, Note_on_c, 0, 61, 0
2, 1442940, Note_on_c, 0, 45, 0
2, 1442944, Note_on_c, 0, 52, 0
2, 1442944, Note_on_c, 0, 64, 90
2, 1442956, Note_on_c, 0, 57, 78
2, 1443000, Note_on_c, 0, 57, 0
2, 1443048, Note_on_c, 0, 69, 89
2, 1443052, Note_on_c, 0, 64, 0
2, 1443052, Note_on_c, 0, 61, 71
2, 1443076, Note_on_c, 0, 69, 0
2, 1443096, Note_on_c, 0, 61, 0
2, 1443132, Note_on_c, 0, 73, 96
2, 1443140, Note_on_c, 0, 64, 79
2, 1443180, Note_on_c, 0, 73, 0
2, 1443200, Note_on_c, 0, 64, 0
2, 1443240, Control_c, 0, 64, 72
2, 1443248, Note_on_c, 0, 73, 98
2, 1443248, Note_on_c, 0, 76, 107
2, 1443248, Note_on_c, 0, 81, 88
2, 1443248, Note_on_c, 0, 85, 93
2, 1443252, Note_on_c, 0, 69, 88
2, 1443252, Control_c, 0, 64, 0
2, 1443256, Note_on_c, 0, 64, 75
2, 1443260, Note_on_c, 0, 57, 76
2, 1443260, Note_on_c, 0, 33, 93
2, 1443260, Note_on_c, 0, 45, 88
2, 1443308, Control_c, 0, 64, 72
2, 1443316, Control_c, 0, 64, 127
2, 1443360, Note_on_c, 0, 64, 0
2, 1443376, Note_on_c, 0, 57, 0
2, 1443388, Note_on_c, 0, 73, 0
2, 1443396, Note_on_c, 0, 69, 0
2, 1443424, Note_on_c, 0, 76, 0
2, 1443424, Note_on_c, 0, 85, 0
2, 1443424, Note_on_c, 0, 81, 0
2, 1443436, Note_on_c, 0, 45, 0
2, 1443436, Note_on_c, 0, 33, 0
2, 1443468, Note_on_c, 0, 73, 91
2, 1443472, Note_on_c, 0, 64, 79
2, 1443472, Note_on_c, 0, 57, 74
2, 1443528, Note_on_c, 0, 73, 0
2, 1443560, Note_on_c, 0, 57, 0
2, 1443560, Note_on_c, 0, 76, 90
2, 1443564, Note_on_c, 0, 64, 0
2, 1443576, Note_on_c, 0, 69, 78
2, 1443620, Note_on_c, 0, 69, 0
2, 1443652, Note_on_c, 0, 81, 90
2, 1443672, Note_on_c, 0, 76, 0
2, 1443672, Note_on_c, 0, 73, 85
2, 1443688, Note_on_c, 0, 81, 0
2, 1443720, Note_on_c, 0, 73, 0
2, 1443736, Note_on_c, 0, 85, 98
2, 1443756, Note_on_c, 0, 76, 83
2, 1443784, Note_on_c, 0, 85, 0
2, 1443824, Note_on_c, 0, 76, 0
2, 1443852, Control_c, 0, 64, 104
2, 1443856, Note_on_c, 0, 85, 103
2, 1443856, Note_on_c, 0, 88, 108
2, 1443856, Note_on_c, 0, 33, 93
2, 1443856, Note_on_c, 0, 45, 88
2, 1443856, Note_on_c, 0, 73, 93
2, 1443860, Note_on_c, 0, 76, 89
2, 1443864, Note_on_c, 0, 81, 89
2, 1443864, Note_on_c, 0, 69, 87
2, 1443864, Control_c, 0, 64, 40
2, 1443872, Control_c, 0, 64, 0
2, 1443908, Control_c, 0, 64, 56
2, 1443920, Control_c, 0, 64, 127
2, 1443960, Note_on_c, 0, 69, 0
2, 1443960, Note_on_c, 0, 76, 0
2, 1443992, Note_on_c, 0, 81, 0
2, 1443996, Note_on_c, 0, 85, 0
2, 1444028, Note_on_c, 0, 88, 0
2, 1444032, Note_on_c, 0, 45, 0
2, 1444032, Note_on_c, 0, 33, 0
2, 1444032, Note_on_c, 0, 73, 0
2, 1444072, Note_on_c, 0, 85, 96
2, 1444072, Note_on_c, 0, 76, 88
2, 1444080, Note_on_c, 0, 69, 82
2, 1444140, Note_on_c, 0, 85, 0
2, 1444152, Note_on_c, 0, 69, 0
2, 1444160, Note_on_c, 0, 88, 88
2, 1444168, Note_on_c, 0, 76, 0
2, 1444180, Note_on_c, 0, 81, 84
2, 1444228, Note_on_c, 0, 81, 0
2, 1444256, Note_on_c, 0, 93, 94
2, 1444272, Note_on_c, 0, 88, 0
2, 1444276, Note_on_c, 0, 85, 84
2, 1444288, Note_on_c, 0, 93, 0
2, 1444324, Note_on_c, 0, 85, 0
2, 1444352, Note_on_c, 0, 97, 100
2, 1444356, Note_on_c, 0, 88, 88
2, 1444392, Note_on_c, 0, 97, 0
2, 1444452, Note_on_c, 0, 88, 0
2, 1444472, Note_on_c, 0, 100, 103
2, 1444472, Note_on_c, 0, 97, 97
2, 1444484, Note_on_c, 0, 88, 82
2, 1444484, Note_on_c, 0, 81, 85
2, 1444484, Note_on_c, 0, 93, 98
2, 1444484, Note_on_c, 0, 33, 93
2, 1444484, Note_on_c, 0, 45, 88
2, 1444484, Note_on_c, 0, 85, 93
2, 1444484, Control_c, 0, 64, 127
2, 1444500, Note_on_c, 0, 33, 101
2, 1444508, Note_on_c, 0, 97, 0
2, 1444516, Note_on_c, 0, 93, 0
2, 1444516, Note_on_c, 0, 81, 0
2, 1444516, Note_on_c, 0, 88, 0
2, 1444524, Note_on_c, 0, 100, 0
2, 1444588, Note_on_c, 0, 45, 101
2, 1444600, Note_on_c, 0, 33, 0
2, 1444640, Note_on_c, 0, 45, 0
2, 1444660, Note_on_c, 0, 85, 0
2, 1444660, Note_on_c, 0, 33, 0
2, 1444660, Note_on_c, 0, 45, 0
2, 1444664, Note_on_c, 0, 33, 89
2, 1444724, Note_on_c, 0, 45, 89
2, 1444732, Note_on_c, 0, 33, 0
2, 1444780, Note_on_c, 0, 45, 0
2, 1444804, Note_on_c, 0, 33, 86
2, 1444856, Note_on_c, 0, 45, 82
2, 1444864, Note_on_c, 0, 33, 0
2, 1444912, Note_on_c, 0, 45, 0
2, 1444932, Note_on_c, 0, 33, 88
2, 1444992, Note_on_c, 0, 33, 0
2, 1444996, Note_on_c, 0, 45, 97
2, 1445040, Note_on_c, 0, 45, 0
2, 1445056, Note_on_c, 0, 33, 92
2, 1445124, Note_on_c, 0, 45, 93
2, 1445128, Note_on_c, 0, 33, 0
2, 1445168, Note_on_c, 0, 45, 0
2, 1445180, Note_on_c, 0, 33, 82
2, 1445244, Note_on_c, 0, 45, 92
2, 1445252, Note_on_c, 0, 33, 0
2, 1445296, Note_on_c, 0, 45, 0
2, 1445308, Note_on_c, 0, 33, 74
2, 1445376, Note_on_c, 0, 45, 94
2, 1445384, Note_on_c, 0, 33, 0
2, 1445432, Note_on_c, 0, 45, 0
2, 1445448, Note_on_c, 0, 33, 82
2, 1445512, Note_on_c, 0, 45, 92
2, 1445516, Note_on_c, 0, 33, 0
2, 1445564, Note_on_c, 0, 45, 0
2, 1445584, Note_on_c, 0, 33, 89
2, 1445604, Note_on_c, 0, 81, 103
2, 1445604, Note_on_c, 0, 69, 96
2, 1445604, Note_on_c, 0, 76, 94
2, 1445604, Note_on_c, 0, 57, 98
2, 1445604, Note_on_c, 0, 52, 88
2, 1445604, Note_on_c, 0, 64, 94
2, 1445604, Note_on_c, 0, 61, 89
2, 1445604, Note_on_c, 0, 73, 87
2, 1445604, Control_c, 0, 64, 56
2, 1445604, Control_c, 0, 64, 104
2, 1445624, Control_c, 0, 64, 0
2, 1445640, Note_on_c, 0, 64, 0
2, 1445640, Note_on_c, 0, 52, 0
2, 1445644, Note_on_c, 0, 57, 0
2, 1445644, Note_on_c, 0, 45, 94
2, 1445644, Control_c, 0, 64, 24
2, 1445648, Note_on_c, 0, 61, 0
2, 1445652, Note_on_c, 0, 73, 0
2, 1445652, Note_on_c, 0, 69, 0
2, 1445652, Control_c, 0, 64, 72
2, 1445656, Note_on_c, 0, 33, 0
2, 1445660, Note_on_c, 0, 76, 0
2, 1445664, Control_c, 0, 64, 127
2, 1445684, Note_on_c, 0, 81, 0
2, 1445700, Note_on_c, 0, 45, 0
2, 1445708, Note_on_c, 0, 33, 88
2, 1445772, Note_on_c, 0, 45, 93
2, 1445780, Note_on_c, 0, 33, 0
2, 1445828, Note_on_c, 0, 45, 0
2, 1445836, Note_on_c, 0, 33, 86
2, 1445896, Note_on_c, 0, 45, 92
2, 1445908, Note_on_c, 0, 33, 0
2, 1445956, Note_on_c, 0, 45, 0
2, 1445960, Note_on_c, 0, 33, 84
2, 1446024, Note_on_c, 0, 33, 0
2, 1446028, Note_on_c, 0, 45, 99
2, 1446076, Note_on_c, 0, 45, 0
2, 1446092, Note_on_c, 0, 33, 93
2, 1446148, Note_on_c, 0, 45, 91
2, 1446156, Note_on_c, 0, 33, 0
2, 1446208, Note_on_c, 0, 45, 0
2, 1446228, Note_on_c, 0, 33, 94
2, 1446284, Note_on_c, 0, 45, 96
2, 1446288, Note_on_c, 0, 33, 0
2, 1446340, Note_on_c, 0, 45, 0
2, 1446352, Note_on_c, 0, 33, 97
2, 1446412, Note_on_c, 0, 45, 97
2, 1446420, Note_on_c, 0, 33, 0
2, 1446468, Note_on_c, 0, 45, 0
2, 1446472, Note_on_c, 0, 33, 89
2, 1446540, Note_on_c, 0, 45, 96
2, 1446552, Note_on_c, 0, 33, 0
2, 1446596, Note_on_c, 0, 45, 0
2, 1446600, Note_on_c, 0, 33, 86
2, 1446668, Note_on_c, 0, 45, 96
2, 1446676, Note_on_c, 0, 33, 0
2, 1446732, Note_on_c, 0, 45, 0
2, 1446752, Note_on_c, 0, 33, 99
2, 1446812, Note_on_c, 0, 33, 0
2, 1446820, Note_on_c, 0, 45, 99
2, 1446872, Note_on_c, 0, 45, 0
2, 1446892, Note_on_c, 0, 33, 97
2, 1446900, Note_on_c, 0, 81, 109
2, 1446900, Note_on_c, 0, 57, 108
2, 1446900, Note_on_c, 0, 76, 93
2, 1446900, Note_on_c, 0, 73, 93
2, 1446900, Note_on_c, 0, 69, 93
2, 1446908, Note_on_c, 0, 45, 99
2, 1446912, Note_on_c, 0, 33, 96
2, 1446956, Control_c, 0, 64, 56
2, 1446960, Note_on_c, 0, 33, 0
2, 1446964, Note_on_c, 0, 45, 99
2, 1446964, Control_c, 0, 64, 0
2, 1447016, Note_on_c, 0, 45, 0
2, 1447032, Note_on_c, 0, 33, 88
2, 1447068, Control_c, 0, 64, 127
2, 1447972, Control_c, 0, 64, 72
2, 1447980, Control_c, 0, 64, 0
2, 1448228, Note_on_c, 0, 73, 0
2, 1448228, Note_on_c, 0, 81, 0
2, 1448228, Note_on_c, 0, 76, 0
2, 1448228, Note_on_c, 0, 69, 0
2, 1448248, Note_on_c, 0, 33, 0
2, 1448248, Note_on_c, 0, 33, 0
2, 1448288, Note_on_c, 0, 45, 0
2, 1448344, Note_on_c, 0, 57, 0
2, 1449604, Control_c, 0, 64, 0
2, 1450692, Control_c, 0, 64, 104
2, 1450700, Control_c, 0, 64, 88
2, 1450712, Control_c, 0, 64, 56
2, 1450720, Control_c, 0, 64, 40
2, 1450732, Control_c, 0, 64, 0
2, 1451780, Control_c, 0, 64, 127
2, 1451780, End_track
3, 0, Start_track
3, 0, Title_t, "Robert Schumann"
3, 0, End_track
4, 0, Start_track
4, 0, Title_t, "Robert Finley, piano"
4, 0, End_track
0, 0, End_of_file
