0, 0, Header, 1, 16, 240
1, 0, Start_track
1, 0, Time_signature, 4, 2, 24, 8
1, 0, Tempo, 500000
1, 0, Marker_t, "Mit grosster energie"
1, 33600, Tempo, 545455
1, 34560, Tempo, 500000
1, 48000, Tempo, 545455
1, 54720, Tempo, 500000
1, 54720, End_track
2, 0, Start_track
2, 0, Title_t, "Robert Schumann:"
2, 0, Program_c, 0, 0
2, 0, Control_c, 0, 7, 127
2, 48, Note_on_c, 0, 39, 59
2, 62, Note_on_c, 0, 51, 61
2, 79, Control_c, 0, 64, 127
2, 126, Note_on_c, 0, 58, 36
2, 181, Note_on_c, 0, 63, 36
2, 207, Note_off_c, 0, 58, 64
2, 228, Note_off_c, 0, 63, 64
2, 232, Note_on_c, 0, 66, 36
2, 271, Note_off_c, 0, 66, 64
2, 280, Note_on_c, 0, 63, 36
2, 325, Note_on_c, 0, 58, 37
2, 341, Note_off_c, 0, 63, 64
2, 388, Note_off_c, 0, 58, 64
2, 388, Note_on_c, 0, 57, 38
2, 410, Note_on_c, 0, 70, 76
2, 433, Note_on_c, 0, 58, 38
2, 478, Note_on_c, 0, 63, 38
2, 480, Note_off_c, 0, 57, 64
2, 530, Note_off_c, 0, 63, 64
2, 534, Note_on_c, 0, 66, 39
2, 541, Note_off_c, 0, 58, 64
2, 581, Note_off_c, 0, 66, 64
2, 592, Note_on_c, 0, 63, 39
2, 645, Note_off_c, 0, 63, 64
2, 648, Note_on_c, 0, 58, 40
2, 659, Note_off_c, 0, 39, 64
2, 673, Note_off_c, 0, 51, 64
2, 686, Control_c, 0, 64, 0
2, 712, Note_on_c, 0, 49, 48
2, 717, Note_on_c, 0, 37, 40
2, 718, Control_c, 0, 64, 0
2, 720, Note_off_c, 0, 58, 64
2, 731, Control_c, 0, 64, 127
2, 741, Note_on_c, 0, 75, 80
2, 757, Note_off_c, 0, 70, 64
2, 763, Control_c, 0, 64, 127
2, 812, Note_on_c, 0, 58, 40
2, 861, Note_on_c, 0, 63, 40
2, 883, Note_off_c, 0, 58, 64
2, 913, Note_on_c, 0, 66, 40
2, 915, Note_off_c, 0, 63, 64
2, 952, Note_on_c, 0, 63, 40
2, 967, Note_off_c, 0, 66, 64
2, 1000, Note_on_c, 0, 58, 40
2, 1006, Note_off_c, 0, 63, 64
2, 1040, Note_on_c, 0, 57, 40
2, 1047, Note_off_c, 0, 58, 64
2, 1081, Note_on_c, 0, 58, 40
2, 1127, Note_on_c, 0, 63, 40
2, 1135, Note_off_c, 0, 57, 64
2, 1153, Note_off_c, 0, 58, 64
2, 1180, Note_off_c, 0, 63, 64
2, 1206, Note_on_c, 0, 66, 51
2, 1216, Note_on_c, 0, 63, 39
2, 1221, Note_off_c, 0, 75, 64
2, 1264, Note_on_c, 0, 58, 39
2, 1284, Note_off_c, 0, 63, 64
2, 1303, Note_off_c, 0, 37, 64
2, 1318, Note_off_c, 0, 49, 64
2, 1322, Control_c, 0, 64, 0
2, 1342, Note_on_c, 0, 48, 54
2, 1342, Note_on_c, 0, 36, 56
2, 1344, Note_off_c, 0, 58, 64
2, 1354, Control_c, 0, 64, 0
2, 1364, Note_on_c, 0, 70, 67
2, 1372, Control_c, 0, 64, 127
2, 1376, Note_off_c, 0, 66, 64
2, 1404, Control_c, 0, 64, 127
2, 1408, Note_on_c, 0, 56, 37
2, 1454, Note_on_c, 0, 63, 37
2, 1478, Note_off_c, 0, 56, 64
2, 1502, Note_on_c, 0, 66, 36
2, 1508, Note_off_c, 0, 63, 64
2, 1548, Note_on_c, 0, 63, 36
2, 1566, Note_off_c, 0, 66, 64
2, 1593, Note_on_c, 0, 56, 36
2, 1600, Note_off_c, 0, 63, 64
2, 1648, Note_on_c, 0, 55, 35
2, 1659, Note_off_c, 0, 56, 64
2, 1673, Note_on_c, 0, 68, 51
2, 1681, Note_off_c, 0, 70, 64
2, 1685, Note_on_c, 0, 56, 34
2, 1731, Note_on_c, 0, 63, 34
2, 1741, Note_off_c, 0, 55, 64
2, 1766, Note_off_c, 0, 56, 64
2, 1785, Note_off_c, 0, 63, 64
2, 1787, Note_on_c, 0, 66, 33
2, 1832, Note_on_c, 0, 63, 33
2, 1850, Note_off_c, 0, 66, 64
2, 1881, Note_on_c, 0, 56, 32
2, 1907, Note_off_c, 0, 63, 64
2, 1916, Control_c, 0, 64, 0
2, 1933, Note_off_c, 0, 36, 64
2, 1933, Note_off_c, 0, 48, 64
2, 1941, Note_on_c, 0, 49, 43
2, 1944, Note_on_c, 0, 37, 40
2, 1947, Note_off_c, 0, 56, 64
2, 1948, Control_c, 0, 64, 0
2, 1966, Control_c, 0, 64, 127
2, 1985, Note_off_c, 0, 68, 64
2, 1992, Note_on_c, 0, 56, 31
2, 1998, Control_c, 0, 64, 127
2, 2040, Note_on_c, 0, 61, 44
2, 2073, Note_off_c, 0, 56, 64
2, 2095, Note_off_c, 0, 61, 64
2, 2120, Note_on_c, 0, 61, 44
2, 2125, Note_on_c, 0, 65, 40
2, 2173, Note_off_c, 0, 61, 64
2, 2176, Note_on_c, 0, 56, 44
2, 2241, Note_on_c, 0, 55, 44
2, 2261, Note_off_c, 0, 56, 64
2, 2262, Note_on_c, 0, 64, 46
2, 2276, Note_off_c, 0, 65, 64
2, 2279, Note_on_c, 0, 56, 44
2, 2326, Note_on_c, 0, 61, 44
2, 2350, Note_off_c, 0, 56, 64
2, 2353, Note_off_c, 0, 55, 64
2, 2392, Note_off_c, 0, 61, 64
2, 2409, Note_on_c, 0, 65, 52
2, 2416, Note_on_c, 0, 61, 44
2, 2417, Note_off_c, 0, 64, 64
2, 2488, Note_on_c, 0, 56, 44
2, 2501, Note_off_c, 0, 61, 64
2, 2504, Control_c, 0, 64, 0
2, 2532, Note_off_c, 0, 49, 64
2, 2535, Note_off_c, 0, 37, 64
2, 2536, Control_c, 0, 64, 0
2, 2544, Note_on_c, 0, 34, 51
2, 2547, Note_on_c, 0, 46, 43
2, 2574, Note_off_c, 0, 56, 64
2, 2581, Control_c, 0, 64, 127
2, 2585, Note_on_c, 0, 68, 59
2, 2606, Note_off_c, 0, 65, 64
2, 2609, Note_on_c, 0, 54, 25
2, 2613, Control_c, 0, 64, 127
2, 2653, Note_on_c, 0, 61, 25
2, 2683, Note_off_c, 0, 54, 64
2, 2709, Note_off_c, 0, 61, 64
2, 2725, Note_on_c, 0, 66, 46
2, 2728, Note_on_c, 0, 61, 25
2, 2765, Note_off_c, 0, 68, 64
2, 2776, Note_on_c, 0, 54, 25
2, 2784, Note_off_c, 0, 61, 64
2, 2838, Note_off_c, 0, 66, 64
2, 2840, Note_on_c, 0, 53, 25
2, 2853, Note_off_c, 0, 54, 64
2, 2884, Note_on_c, 0, 66, 50
2, 2889, Note_on_c, 0, 54, 25
2, 2915, Note_off_c, 0, 53, 64
2, 2936, Note_on_c, 0, 61, 25
2, 2969, Note_off_c, 0, 54, 64
2, 2991, Note_off_c, 0, 61, 64
2, 3010, Note_off_c, 0, 66, 64
2, 3024, Note_on_c, 0, 61, 25
2, 3040, Note_on_c, 0, 66, 57
2, 3072, Note_on_c, 0, 54, 25
2, 3085, Note_off_c, 0, 61, 64
2, 3112, Control_c, 0, 64, 0
2, 3134, Note_on_c, 0, 36, 44
2, 3135, Note_off_c, 0, 34, 64
2, 3138, Note_off_c, 0, 46, 64
2, 3141, Note_on_c, 0, 48, 43
2, 3144, Control_c, 0, 64, 0
2, 3163, Control_c, 0, 64, 127
2, 3164, Note_off_c, 0, 54, 64
2, 3164, Note_on_c, 0, 68, 57
2, 3178, Note_off_c, 0, 66, 64
2, 3187, Note_on_c, 0, 54, 28
2, 3195, Control_c, 0, 64, 127
2, 3229, Note_on_c, 0, 60, 29
2, 3254, Note_off_c, 0, 54, 64
2, 3288, Note_off_c, 0, 60, 64
2, 3291, Note_on_c, 0, 63, 31
2, 3326, Note_on_c, 0, 60, 32
2, 3347, Note_off_c, 0, 63, 64
2, 3368, Note_on_c, 0, 54, 32
2, 3391, Note_off_c, 0, 60, 64
2, 3414, Note_off_c, 0, 54, 64
2, 3424, Note_on_c, 0, 53, 32
2, 3456, Note_on_c, 0, 54, 32
2, 3499, Note_off_c, 0, 53, 64
2, 3512, Note_on_c, 0, 60, 32
2, 3534, Note_off_c, 0, 54, 64
2, 3558, Note_off_c, 0, 60, 64
2, 3584, Note_on_c, 0, 66, 56
2, 3608, Note_on_c, 0, 60, 32
2, 3619, Note_off_c, 0, 68, 64
2, 3653, Note_on_c, 0, 54, 32
2, 3669, Note_off_c, 0, 60, 64
2, 3676, Control_c, 0, 64, 0
2, 3684, Note_off_c, 0, 36, 64
2, 3691, Note_off_c, 0, 48, 64
2, 3698, Note_on_c, 0, 33, 33
2, 3703, Note_on_c, 0, 45, 39
2, 3708, Control_c, 0, 64, 0
2, 3709, Note_off_c, 0, 54, 64
2, 3733, Control_c, 0, 64, 127
2, 3741, Note_on_c, 0, 65, 48
2, 3753, Note_on_c, 0, 53, 36
2, 3763, Note_off_c, 0, 66, 64
2, 3765, Control_c, 0, 64, 127
2, 3800, Note_on_c, 0, 60, 36
2, 3828, Note_off_c, 0, 53, 64
2, 3847, Note_on_c, 0, 63, 37
2, 3851, Note_off_c, 0, 60, 64
2, 3893, Note_on_c, 0, 60, 38
2, 3911, Note_off_c, 0, 63, 64
2, 3945, Note_on_c, 0, 53, 38
2, 3953, Note_off_c, 0, 60, 64
2, 3992, Note_on_c, 0, 52, 39
2, 4001, Note_off_c, 0, 53, 64
2, 4047, Note_on_c, 0, 53, 40
2, 4068, Note_off_c, 0, 52, 64
2, 4086, Note_on_c, 0, 60, 40
2, 4116, Note_off_c, 0, 65, 64
2, 4130, Note_off_c, 0, 53, 64
2, 4133, Note_on_c, 0, 63, 41
2, 4136, Note_off_c, 0, 60, 64
2, 4182, Note_on_c, 0, 60, 41
2, 4197, Note_off_c, 0, 63, 64
2, 4231, Note_on_c, 0, 53, 42
2, 4241, Note_off_c, 0, 60, 64
2, 4256, Control_c, 0, 64, 0
2, 4268, Note_off_c, 0, 33, 64
2, 4273, Note_off_c, 0, 45, 64
2, 4277, Note_on_c, 0, 46, 49
2, 4277, Note_on_c, 0, 34, 51
2, 4288, Control_c, 0, 64, 0
2, 4296, Note_off_c, 0, 53, 64
2, 4307, Control_c, 0, 64, 127
2, 4337, Note_on_c, 0, 53, 37
2, 4339, Control_c, 0, 64, 127
2, 4368, Note_on_c, 0, 58, 38
2, 4419, Note_off_c, 0, 53, 64
2, 4428, Note_on_c, 0, 61, 39
2, 4432, Note_off_c, 0, 58, 64
2, 4469, Note_on_c, 0, 58, 39
2, 4494, Note_off_c, 0, 61, 64
2, 4520, Note_on_c, 0, 53, 40
2, 4541, Note_off_c, 0, 58, 64
2, 4563, Control_c, 0, 64, 0
2, 4574, Note_on_c, 0, 49, 65
2, 4585, Note_off_c, 0, 53, 64
2, 4587, Note_off_c, 0, 34, 64
2, 4587, Note_off_c, 0, 46, 64
2, 4595, Control_c, 0, 64, 0
2, 4605, Control_c, 0, 64, 127
2, 4616, Note_on_c, 0, 53, 41
2, 4637, Control_c, 0, 64, 127
2, 4657, Note_on_c, 0, 58, 41
2, 4689, Note_off_c, 0, 53, 64
2, 4715, Note_on_c, 0, 61, 42
2, 4722, Note_off_c, 0, 58, 64
2, 4753, Note_on_c, 0, 58, 42
2, 4769, Note_off_c, 0, 61, 64
2, 4805, Note_on_c, 0, 53, 43
2, 4807, Note_off_c, 0, 58, 64
2, 4844, Control_c, 0, 64, 0
2, 4861, Note_off_c, 0, 53, 64
2, 4874, Note_on_c, 0, 51, 66
2, 4876, Control_c, 0, 64, 0
2, 4882, Note_on_c, 0, 39, 38
2, 4891, Note_off_c, 0, 49, 64
2, 4892, Control_c, 0, 64, 127
2, 4924, Control_c, 0, 64, 127
2, 4937, Note_on_c, 0, 58, 44
2, 4976, Note_on_c, 0, 63, 44
2, 5030, Note_off_c, 0, 63, 64
2, 5034, Note_on_c, 0, 66, 44
2, 5038, Note_off_c, 0, 58, 64
2, 5080, Note_on_c, 0, 63, 44
2, 5090, Note_off_c, 0, 66, 64
2, 5127, Note_off_c, 0, 63, 64
2, 5128, Note_on_c, 0, 58, 44
2, 5170, Note_on_c, 0, 57, 44
2, 5195, Note_off_c, 0, 58, 64
2, 5198, Note_on_c, 0, 70, 74
2, 5209, Note_on_c, 0, 58, 44
2, 5251, Note_on_c, 0, 63, 44
2, 5276, Note_off_c, 0, 57, 64
2, 5296, Note_on_c, 0, 66, 44
2, 5300, Note_off_c, 0, 63, 64
2, 5320, Note_off_c, 0, 58, 64
2, 5339, Note_on_c, 0, 63, 44
2, 5343, Note_off_c, 0, 66, 64
2, 5376, Note_off_c, 0, 63, 64
2, 5377, Note_on_c, 0, 58, 44
2, 5423, Note_off_c, 0, 58, 64
2, 5432, Note_on_c, 0, 37, 51
2, 5435, Note_on_c, 0, 49, 54
2, 5441, Control_c, 0, 64, 0
2, 5444, Note_off_c, 0, 51, 64
2, 5452, Note_off_c, 0, 39, 64
2, 5473, Control_c, 0, 64, 0
2, 5487, Control_c, 0, 64, 127
2, 5496, Note_on_c, 0, 58, 44
2, 5497, Note_on_c, 0, 75, 80
2, 5506, Note_off_c, 0, 70, 64
2, 5519, Control_c, 0, 64, 127
2, 5552, Note_on_c, 0, 63, 43
2, 5592, Note_off_c, 0, 58, 64
2, 5600, Note_on_c, 0, 66, 43
2, 5608, Note_off_c, 0, 63, 64
2, 5640, Note_on_c, 0, 63, 42
2, 5656, Note_off_c, 0, 66, 64
2, 5688, Note_on_c, 0, 58, 42
2, 5696, Note_off_c, 0, 63, 64
2, 5736, Note_on_c, 0, 57, 41
2, 5765, Note_off_c, 0, 58, 64
2, 5802, Note_on_c, 0, 58, 40
2, 5830, Note_off_c, 0, 57, 64
2, 5845, Note_on_c, 0, 63, 40
2, 5870, Note_off_c, 0, 58, 64
2, 5901, Note_off_c, 0, 63, 64
2, 5916, Note_on_c, 0, 66, 52
2, 5920, Note_on_c, 0, 63, 39
2, 5923, Note_off_c, 0, 75, 64
2, 5968, Note_on_c, 0, 58, 39
2, 5988, Note_off_c, 0, 63, 64
2, 6009, Control_c, 0, 64, 0
2, 6022, Note_off_c, 0, 37, 64
2, 6025, Note_off_c, 0, 49, 64
2, 6041, Control_c, 0, 64, 0
2, 6042, Note_on_c, 0, 48, 50
2, 6042, Note_on_c, 0, 36, 42
2, 6049, Note_off_c, 0, 58, 64
2, 6068, Control_c, 0, 64, 127
2, 6070, Note_on_c, 0, 70, 68
2, 6072, Note_off_c, 0, 66, 64
2, 6093, Note_on_c, 0, 56, 37
2, 6100, Control_c, 0, 64, 127
2, 6128, Note_on_c, 0, 63, 37
2, 6165, Note_off_c, 0, 56, 64
2, 6177, Note_on_c, 0, 66, 36
2, 6184, Note_off_c, 0, 63, 64
2, 6222, Note_on_c, 0, 63, 36
2, 6238, Note_off_c, 0, 66, 64
2, 6264, Note_on_c, 0, 56, 36
2, 6274, Note_off_c, 0, 63, 64
2, 6313, Note_on_c, 0, 55, 35
2, 6321, Note_off_c, 0, 56, 64
2, 6346, Note_on_c, 0, 68, 48
2, 6351, Note_on_c, 0, 56, 35
2, 6354, Note_off_c, 0, 70, 64
2, 6402, Note_on_c, 0, 63, 34
2, 6409, Note_off_c, 0, 55, 64
2, 6432, Note_off_c, 0, 56, 64
2, 6452, Note_off_c, 0, 63, 64
2, 6461, Note_on_c, 0, 66, 34
2, 6505, Note_on_c, 0, 63, 33
2, 6515, Note_off_c, 0, 66, 64
2, 6544, Note_on_c, 0, 56, 33
2, 6557, Note_off_c, 0, 63, 64
2, 6568, Control_c, 0, 64, 0
2, 6591, Note_off_c, 0, 56, 64
2, 6592, Note_on_c, 0, 49, 40
2, 6597, Note_on_c, 0, 37, 35
2, 6600, Control_c, 0, 64, 0
2, 6602, Note_off_c, 0, 36, 64
2, 6602, Note_off_c, 0, 48, 64
2, 6619, Control_c, 0, 64, 127
2, 6624, Note_off_c, 0, 68, 64
2, 6648, Note_on_c, 0, 56, 32
2, 6651, Control_c, 0, 64, 127
2, 6692, Note_on_c, 0, 61, 32
2, 6719, Note_off_c, 0, 56, 64
2, 6747, Note_off_c, 0, 61, 64
2, 6760, Note_on_c, 0, 61, 44
2, 6782, Note_on_c, 0, 65, 42
2, 6808, Note_on_c, 0, 56, 44
2, 6815, Note_off_c, 0, 61, 64
2, 6864, Note_on_c, 0, 55, 44
2, 6900, Note_off_c, 0, 56, 64
2, 6906, Note_on_c, 0, 64, 52
2, 6916, Note_on_c, 0, 56, 44
2, 6933, Note_off_c, 0, 65, 64
2, 6954, Note_off_c, 0, 55, 64
2, 6962, Note_on_c, 0, 61, 44
2, 6990, Note_off_c, 0, 56, 64
2, 7011, Note_off_c, 0, 61, 64
2, 7044, Note_on_c, 0, 65, 50
2, 7048, Note_on_c, 0, 61, 44
2, 7075, Note_off_c, 0, 64, 64
2, 7095, Note_off_c, 0, 61, 64
2, 7096, Note_on_c, 0, 56, 44
2, 7115, Control_c, 0, 64, 0
2, 7142, Note_off_c, 0, 49, 64
2, 7147, Note_off_c, 0, 37, 64
2, 7147, Control_c, 0, 64, 0
2, 7149, Note_on_c, 0, 46, 42
2, 7157, Note_on_c, 0, 34, 45
2, 7176, Control_c, 0, 64, 127
2, 7189, Note_on_c, 0, 68, 58
2, 7196, Note_off_c, 0, 56, 64
2, 7207, Note_off_c, 0, 65, 64
2, 7208, Control_c, 0, 64, 127
2, 7213, Note_on_c, 0, 55, 32
2, 7251, Note_on_c, 0, 61, 25
2, 7283, Note_off_c, 0, 55, 64
2, 7310, Note_off_c, 0, 61, 64
2, 7329, Note_on_c, 0, 67, 57
2, 7344, Note_on_c, 0, 61, 25
2, 7369, Note_off_c, 0, 68, 64
2, 7376, Note_on_c, 0, 55, 25
2, 7412, Note_off_c, 0, 61, 64
2, 7436, Note_on_c, 0, 54, 25
2, 7454, Note_off_c, 0, 67, 64
2, 7462, Note_off_c, 0, 55, 64
2, 7492, Note_on_c, 0, 67, 52
2, 7495, Note_on_c, 0, 55, 25
2, 7521, Note_off_c, 0, 54, 64
2, 7536, Note_on_c, 0, 61, 25
2, 7577, Note_off_c, 0, 55, 64
2, 7595, Note_off_c, 0, 61, 64
2, 7608, Note_on_c, 0, 61, 25
2, 7617, Note_off_c, 0, 67, 64
2, 7628, Note_on_c, 0, 67, 56
2, 7656, Note_on_c, 0, 55, 25
2, 7672, Control_c, 0, 64, 0
2, 7678, Note_off_c, 0, 61, 64
2, 7704, Control_c, 0, 64, 0
2, 7709, Note_off_c, 0, 46, 64
2, 7717, Note_off_c, 0, 34, 64
2, 7718, Note_off_c, 0, 55, 64
2, 7721, Note_on_c, 0, 36, 49
2, 7723, Note_on_c, 0, 48, 45
2, 7743, Control_c, 0, 64, 127
2, 7760, Note_on_c, 0, 68, 50
2, 7775, Control_c, 0, 64, 127
2, 7782, Note_on_c, 0, 58, 27
2, 7790, Note_off_c, 0, 67, 64
2, 7827, Note_on_c, 0, 60, 26
2, 7842, Note_off_c, 0, 58, 64
2, 7872, Note_on_c, 0, 64, 25
2, 7883, Note_off_c, 0, 60, 64
2, 7915, Note_on_c, 0, 60, 27
2, 7929, Note_off_c, 0, 64, 64
2, 7950, Note_on_c, 0, 58, 30
2, 7984, Note_off_c, 0, 60, 64
2, 8004, Note_on_c, 0, 57, 31
2, 8013, Note_off_c, 0, 58, 64
2, 8049, Note_on_c, 0, 58, 32
2, 8095, Note_on_c, 0, 60, 27
2, 8099, Note_off_c, 0, 57, 64
2, 8114, Note_off_c, 0, 58, 64
2, 8144, Note_off_c, 0, 60, 64
2, 8176, Note_off_c, 0, 68, 64
2, 8176, Note_on_c, 0, 60, 32
2, 8181, Note_on_c, 0, 64, 49
2, 8238, Note_off_c, 0, 60, 64
2, 8240, Note_on_c, 0, 58, 40
2, 8287, Note_on_c, 0, 41, 41
2, 8291, Note_off_c, 0, 36, 64
2, 8291, Note_on_c, 0, 29, 45
2, 8293, Note_off_c, 0, 48, 64
2, 8311, Note_off_c, 0, 58, 64
2, 8330, Note_on_c, 0, 65, 47
2, 8348, Note_on_c, 0, 57, 43
2, 8349, Note_off_c, 0, 64, 64
2, 8391, Note_on_c, 0, 60, 32
2, 8421, Note_off_c, 0, 57, 64
2, 8444, Note_on_c, 0, 65, 35
2, 8448, Note_off_c, 0, 60, 64
2, 8455, Note_off_c, 0, 65, 64
2, 8489, Note_on_c, 0, 60, 30
2, 8517, Note_off_c, 0, 65, 64
2, 8536, Note_on_c, 0, 57, 43
2, 8552, Note_off_c, 0, 60, 64
2, 8574, Control_c, 0, 64, 0
2, 8583, Note_on_c, 0, 56, 43
2, 8596, Note_off_c, 0, 57, 64
2, 8606, Control_c, 0, 64, 0
2, 8615, Control_c, 0, 64, 127
2, 8642, Note_on_c, 0, 57, 35
2, 8647, Control_c, 0, 64, 127
2, 8684, Note_on_c, 0, 60, 35
2, 8717, Note_off_c, 0, 57, 64
2, 8728, Note_on_c, 0, 65, 34
2, 8735, Note_off_c, 0, 60, 64
2, 8767, Note_on_c, 0, 60, 34
2, 8790, Note_off_c, 0, 65, 64
2, 8810, Note_on_c, 0, 57, 33
2, 8827, Note_off_c, 0, 60, 64
2, 8866, Note_off_c, 0, 57, 64
2, 8868, Note_off_c, 0, 56, 64
2, 8876, Note_on_c, 0, 48, 48
2, 8921, Note_on_c, 0, 57, 37
2, 8961, Note_on_c, 0, 60, 36
2, 8969, Control_c, 0, 64, 0
2, 8999, Control_c, 0, 64, 127
2, 9001, Control_c, 0, 64, 0
2, 9003, Note_off_c, 0, 57, 64
2, 9012, Note_on_c, 0, 65, 36
2, 9018, Note_off_c, 0, 60, 64
2, 9031, Control_c, 0, 64, 127
2, 9058, Note_on_c, 0, 60, 35
2, 9078, Note_off_c, 0, 65, 64
2, 9106, Note_off_c, 0, 29, 64
2, 9106, Note_on_c, 0, 57, 34
2, 9119, Note_off_c, 0, 60, 64
2, 9120, Control_c, 0, 64, 0
2, 9121, Note_off_c, 0, 41, 64
2, 9152, Note_on_c, 0, 41, 39
2, 9152, Control_c, 0, 64, 0
2, 9160, Control_c, 0, 64, 127
2, 9165, Note_off_c, 0, 57, 64
2, 9189, Note_on_c, 0, 57, 32
2, 9192, Control_c, 0, 64, 127
2, 9195, Note_off_c, 0, 48, 64
2, 9241, Note_on_c, 0, 60, 31
2, 9278, Note_off_c, 0, 57, 64
2, 9284, Note_on_c, 0, 65, 30
2, 9289, Note_off_c, 0, 60, 64
2, 9334, Note_on_c, 0, 60, 29
2, 9355, Note_off_c, 0, 65, 64
2, 9381, Note_on_c, 0, 57, 29
2, 9386, Note_off_c, 0, 60, 64
2, 9421, Control_c, 0, 64, 0
2, 9422, Note_off_c, 0, 41, 64
2, 9446, Note_off_c, 0, 57, 64
2, 9447, Note_on_c, 0, 49, 45
2, 9451, Note_on_c, 0, 37, 47
2, 9453, Control_c, 0, 64, 0
2, 9472, Control_c, 0, 64, 127
2, 9488, Note_on_c, 0, 58, 44
2, 9504, Control_c, 0, 64, 127
2, 9536, Note_on_c, 0, 61, 44
2, 9591, Note_off_c, 0, 61, 64
2, 9596, Note_on_c, 0, 65, 44
2, 9599, Note_off_c, 0, 58, 64
2, 9633, Note_on_c, 0, 61, 44
2, 9642, Note_off_c, 0, 65, 64
2, 9678, Note_on_c, 0, 58, 44
2, 9697, Note_off_c, 0, 61, 64
2, 9743, Note_on_c, 0, 57, 44
2, 9749, Note_off_c, 0, 58, 64
2, 9765, Note_on_c, 0, 70, 72
2, 9783, Note_on_c, 0, 58, 44
2, 9824, Note_on_c, 0, 61, 44
2, 9834, Note_off_c, 0, 57, 64
2, 9873, Note_off_c, 0, 61, 64
2, 9880, Note_on_c, 0, 65, 44
2, 9884, Note_off_c, 0, 58, 64
2, 9913, Note_on_c, 0, 61, 44
2, 9919, Note_off_c, 0, 65, 64
2, 9956, Note_off_c, 0, 61, 64
2, 9960, Note_on_c, 0, 58, 44
2, 9987, Note_off_c, 0, 49, 64
2, 9991, Note_off_c, 0, 37, 64
2, 10004, Note_on_c, 0, 39, 40
2, 10006, Note_on_c, 0, 51, 40
2, 10016, Note_off_c, 0, 58, 64
2, 10037, Control_c, 0, 64, 0
2, 10069, Control_c, 0, 64, 0
2, 10083, Control_c, 0, 64, 127
2, 10098, Note_on_c, 0, 73, 80
2, 10104, Note_off_c, 0, 70, 64
2, 10115, Control_c, 0, 64, 127
2, 10126, Note_on_c, 0, 63, 44
2, 10172, Note_on_c, 0, 66, 44
2, 10199, Note_off_c, 0, 63, 64
2, 10212, Note_off_c, 0, 66, 64
2, 10212, Note_on_c, 0, 69, 44
2, 10247, Note_on_c, 0, 66, 44
2, 10263, Note_off_c, 0, 69, 64
2, 10285, Note_on_c, 0, 63, 44
2, 10293, Note_off_c, 0, 66, 64
2, 10328, Note_off_c, 0, 63, 64
2, 10340, Note_on_c, 0, 62, 44
2, 10391, Note_on_c, 0, 63, 44
2, 10426, Note_on_c, 0, 66, 44
2, 10460, Note_off_c, 0, 62, 64
2, 10479, Note_off_c, 0, 66, 64
2, 10486, Note_off_c, 0, 63, 64
2, 10512, Note_on_c, 0, 69, 40
2, 10528, Note_on_c, 0, 66, 44
2, 10538, Note_off_c, 0, 73, 64
2, 10582, Note_off_c, 0, 66, 64
2, 10584, Note_on_c, 0, 63, 44
2, 10598, Note_off_c, 0, 69, 64
2, 10601, Control_c, 0, 64, 0
2, 10625, Note_off_c, 0, 39, 64
2, 10633, Control_c, 0, 64, 0
2, 10636, Note_on_c, 0, 49, 51
2, 10639, Note_off_c, 0, 51, 64
2, 10640, Note_on_c, 0, 37, 51
2, 10650, Control_c, 0, 64, 127
2, 10657, Note_off_c, 0, 63, 64
2, 10682, Control_c, 0, 64, 127
2, 10683, Note_on_c, 0, 58, 44
2, 10722, Note_on_c, 0, 61, 44
2, 10762, Note_off_c, 0, 58, 64
2, 10766, Note_off_c, 0, 61, 64
2, 10778, Note_on_c, 0, 65, 44
2, 10807, Note_on_c, 0, 61, 44
2, 10843, Note_off_c, 0, 65, 64
2, 10856, Note_on_c, 0, 58, 44
2, 10867, Note_off_c, 0, 61, 64
2, 10909, Note_on_c, 0, 57, 44
2, 10918, Note_off_c, 0, 58, 64
2, 10945, Note_on_c, 0, 70, 80
2, 10955, Note_on_c, 0, 58, 44
2, 10998, Note_on_c, 0, 61, 44
2, 11018, Note_off_c, 0, 57, 64
2, 11031, Note_off_c, 0, 58, 64
2, 11044, Note_on_c, 0, 65, 44
2, 11063, Note_off_c, 0, 61, 64
2, 11088, Note_on_c, 0, 61, 44
2, 11109, Note_off_c, 0, 65, 64
2, 11144, Note_off_c, 0, 61, 64
2, 11144, Note_on_c, 0, 58, 44
2, 11176, Note_off_c, 0, 49, 64
2, 11180, Note_off_c, 0, 37, 64
2, 11186, Note_on_c, 0, 42, 55
2, 11191, Note_on_c, 0, 54, 44
2, 11200, Note_off_c, 0, 58, 64
2, 11203, Control_c, 0, 64, 0
2, 11235, Control_c, 0, 64, 0
2, 11248, Note_on_c, 0, 65, 44
2, 11250, Control_c, 0, 64, 127
2, 11258, Note_on_c, 0, 77, 88
2, 11281, Note_off_c, 0, 70, 64
2, 11282, Control_c, 0, 64, 127
2, 11296, Note_on_c, 0, 69, 44
2, 11310, Note_off_c, 0, 65, 64
2, 11328, Note_on_c, 0, 72, 44
2, 11340, Note_off_c, 0, 69, 64
2, 11376, Note_on_c, 0, 69, 44
2, 11397, Note_off_c, 0, 72, 64
2, 11436, Note_off_c, 0, 69, 64
2, 11440, Note_on_c, 0, 65, 44
2, 11495, Note_on_c, 0, 59, 44
2, 11505, Note_off_c, 0, 65, 64
2, 11543, Note_on_c, 0, 60, 44
2, 11584, Note_on_c, 0, 69, 44
2, 11588, Note_off_c, 0, 59, 64
2, 11626, Note_off_c, 0, 60, 64
2, 11633, Note_off_c, 0, 69, 64
2, 11660, Note_on_c, 0, 72, 54
2, 11676, Note_on_c, 0, 69, 44
2, 11692, Note_off_c, 0, 77, 64
2, 11718, Note_on_c, 0, 60, 44
2, 11723, Note_off_c, 0, 72, 64
2, 11735, Control_c, 0, 64, 0
2, 11742, Note_off_c, 0, 69, 64
2, 11743, Note_off_c, 0, 42, 64
2, 11748, Note_off_c, 0, 54, 64
2, 11765, Note_on_c, 0, 53, 45
2, 11767, Control_c, 0, 64, 0
2, 11770, Note_on_c, 0, 41, 44
2, 11774, Note_off_c, 0, 60, 64
2, 11780, Control_c, 0, 64, 127
2, 11812, Note_on_c, 0, 61, 44
2, 11812, Control_c, 0, 64, 127
2, 11853, Note_on_c, 0, 68, 44
2, 11886, Note_off_c, 0, 61, 64
2, 11908, Note_off_c, 0, 68, 64
2, 11920, Note_on_c, 0, 68, 44
2, 11934, Note_on_c, 0, 73, 80
2, 11984, Note_on_c, 0, 61, 44
2, 11986, Note_off_c, 0, 68, 64
2, 12032, Note_on_c, 0, 60, 44
2, 12050, Note_off_c, 0, 61, 64
2, 12062, Note_off_c, 0, 73, 64
2, 12069, Note_on_c, 0, 73, 84
2, 12072, Note_on_c, 0, 61, 44
2, 12118, Note_off_c, 0, 60, 64
2, 12120, Note_off_c, 0, 61, 64
2, 12120, Note_on_c, 0, 68, 44
2, 12168, Note_off_c, 0, 68, 64
2, 12191, Note_off_c, 0, 73, 64
2, 12200, Note_on_c, 0, 68, 44
2, 12201, Note_on_c, 0, 73, 88
2, 12254, Note_off_c, 0, 68, 64
2, 12256, Note_on_c, 0, 61, 44
2, 12295, Note_off_c, 0, 53, 64
2, 12300, Note_off_c, 0, 41, 64
2, 12303, Note_off_c, 0, 61, 64
2, 12326, Control_c, 0, 64, 0
2, 12342, Note_on_c, 0, 43, 49
2, 12342, Note_on_c, 0, 55, 49
2, 12358, Control_c, 0, 64, 0
2, 12363, Control_c, 0, 64, 127
2, 12379, Note_on_c, 0, 84, 71
2, 12395, Control_c, 0, 64, 127
2, 12410, Note_on_c, 0, 70, 33
2, 12416, Note_off_c, 0, 73, 64
2, 12463, Note_on_c, 0, 73, 33
2, 12477, Note_off_c, 0, 70, 64
2, 12507, Note_off_c, 0, 73, 64
2, 12511, Note_on_c, 0, 75, 33
2, 12544, Note_on_c, 0, 73, 33
2, 12557, Note_off_c, 0, 75, 64
2, 12592, Note_on_c, 0, 70, 33
2, 12596, Note_off_c, 0, 73, 64
2, 12624, Note_on_c, 0, 67, 33
2, 12658, Note_off_c, 0, 70, 64
2, 12679, Note_on_c, 0, 70, 33
2, 12712, Note_on_c, 0, 73, 33
2, 12758, Note_off_c, 0, 67, 64
2, 12760, Note_off_c, 0, 70, 64
2, 12769, Note_off_c, 0, 73, 64
2, 12800, Note_on_c, 0, 82, 68
2, 12808, Note_on_c, 0, 73, 33
2, 12818, Note_off_c, 0, 84, 64
2, 12873, Note_off_c, 0, 73, 64
2, 12880, Note_on_c, 0, 70, 33
2, 12895, Control_c, 0, 64, 0
2, 12905, Note_on_c, 0, 56, 54
2, 12910, Note_off_c, 0, 55, 64
2, 12910, Note_off_c, 0, 43, 64
2, 12911, Note_off_c, 0, 82, 64
2, 12914, Note_on_c, 0, 44, 45
2, 12927, Control_c, 0, 64, 0
2, 12934, Note_on_c, 0, 82, 65
2, 12941, Control_c, 0, 64, 127
2, 12945, Note_off_c, 0, 70, 64
2, 12948, Note_on_c, 0, 68, 33
2, 12973, Control_c, 0, 64, 127
2, 12992, Note_on_c, 0, 72, 33
2, 13016, Note_off_c, 0, 68, 64
2, 13046, Note_off_c, 0, 72, 64
2, 13067, Note_on_c, 0, 75, 51
2, 13072, Note_on_c, 0, 72, 33
2, 13081, Note_off_c, 0, 82, 64
2, 13112, Note_on_c, 0, 68, 33
2, 13138, Note_off_c, 0, 72, 64
2, 13178, Note_on_c, 0, 67, 33
2, 13186, Note_off_c, 0, 75, 64
2, 13188, Note_off_c, 0, 68, 64
2, 13204, Note_on_c, 0, 75, 54
2, 13212, Note_on_c, 0, 68, 33
2, 13259, Note_on_c, 0, 72, 33
2, 13288, Note_off_c, 0, 68, 64
2, 13300, Note_off_c, 0, 67, 64
2, 13317, Note_off_c, 0, 75, 64
2, 13320, Note_off_c, 0, 72, 64
2, 13342, Note_on_c, 0, 75, 55
2, 13344, Note_on_c, 0, 72, 33
2, 13400, Note_on_c, 0, 68, 33
2, 13417, Note_off_c, 0, 72, 64
2, 13429, Control_c, 0, 64, 0
2, 13435, Note_off_c, 0, 56, 64
2, 13444, Note_off_c, 0, 44, 64
2, 13461, Control_c, 0, 64, 0
2, 13462, Note_on_c, 0, 53, 43
2, 13469, Note_on_c, 0, 41, 34
2, 13480, Control_c, 0, 64, 127
2, 13488, Note_off_c, 0, 68, 64
2, 13492, Note_on_c, 0, 82, 66
2, 13509, Note_on_c, 0, 68, 33
2, 13512, Control_c, 0, 64, 127
2, 13525, Note_off_c, 0, 75, 64
2, 13546, Note_on_c, 0, 72, 33
2, 13580, Note_off_c, 0, 68, 64
2, 13592, Note_on_c, 0, 73, 33
2, 13605, Note_off_c, 0, 72, 64
2, 13642, Note_on_c, 0, 72, 33
2, 13656, Note_off_c, 0, 73, 64
2, 13673, Note_on_c, 0, 68, 33
2, 13704, Note_off_c, 0, 72, 64
2, 13723, Note_on_c, 0, 67, 33
2, 13737, Note_off_c, 0, 68, 64
2, 13778, Note_on_c, 0, 68, 33
2, 13812, Note_on_c, 0, 72, 33
2, 13856, Note_off_c, 0, 68, 64
2, 13863, Note_off_c, 0, 67, 64
2, 13868, Note_off_c, 0, 72, 64
2, 13888, Note_on_c, 0, 72, 33
2, 13890, Note_on_c, 0, 80, 57
2, 13906, Note_off_c, 0, 82, 64
2, 13944, Note_on_c, 0, 68, 33
2, 13963, Note_off_c, 0, 72, 64
2, 13985, Control_c, 0, 64, 0
2, 14004, Note_on_c, 0, 54, 42
2, 14008, Note_off_c, 0, 53, 64
2, 14010, Note_off_c, 0, 80, 64
2, 14014, Note_off_c, 0, 41, 64
2, 14015, Note_on_c, 0, 42, 29
2, 14017, Note_off_c, 0, 68, 64
2, 14017, Control_c, 0, 64, 0
2, 14036, Note_on_c, 0, 80, 58
2, 14040, Control_c, 0, 64, 127
2, 14057, Note_on_c, 0, 66, 33
2, 14072, Control_c, 0, 64, 127
2, 14094, Note_on_c, 0, 70, 33
2, 14120, Note_off_c, 0, 66, 64
2, 14147, Note_off_c, 0, 70, 64
2, 14168, Note_on_c, 0, 70, 33
2, 14177, Note_on_c, 0, 73, 57
2, 14201, Note_off_c, 0, 80, 64
2, 14216, Note_on_c, 0, 66, 33
2, 14230, Note_off_c, 0, 70, 64
2, 14284, Note_on_c, 0, 65, 33
2, 14288, Note_off_c, 0, 66, 64
2, 14296, Note_off_c, 0, 73, 64
2, 14314, Note_on_c, 0, 73, 54
2, 14326, Note_on_c, 0, 66, 33
2, 14366, Note_on_c, 0, 70, 33
2, 14398, Note_off_c, 0, 66, 64
2, 14414, Note_off_c, 0, 65, 64
2, 14424, Note_off_c, 0, 70, 64
2, 14433, Note_off_c, 0, 73, 64
2, 14446, Note_on_c, 0, 73, 56
2, 14448, Note_on_c, 0, 70, 33
2, 14496, Note_on_c, 0, 66, 33
2, 14519, Note_off_c, 0, 70, 64
2, 14539, Control_c, 0, 64, 0
2, 14561, Note_on_c, 0, 51, 42
2, 14564, Note_off_c, 0, 54, 64
2, 14569, Note_on_c, 0, 39, 40
2, 14571, Control_c, 0, 64, 0
2, 14575, Note_off_c, 0, 42, 64
2, 14590, Note_off_c, 0, 66, 64
2, 14591, Control_c, 0, 64, 127
2, 14597, Note_on_c, 0, 80, 53
2, 14622, Note_on_c, 0, 66, 33
2, 14623, Control_c, 0, 64, 127
2, 14638, Note_off_c, 0, 73, 64
2, 14660, Note_on_c, 0, 70, 33
2, 14690, Note_off_c, 0, 66, 64
2, 14712, Note_on_c, 0, 75, 33
2, 14714, Note_off_c, 0, 70, 64
2, 14746, Note_on_c, 0, 70, 33
2, 14780, Note_on_c, 0, 66, 33
2, 14786, Note_off_c, 0, 75, 64
2, 14802, Note_off_c, 0, 70, 64
2, 14829, Note_on_c, 0, 65, 33
2, 14832, Note_off_c, 0, 66, 64
2, 14879, Note_on_c, 0, 66, 33
2, 14913, Note_on_c, 0, 70, 33
2, 14941, Note_off_c, 0, 65, 64
2, 14952, Note_off_c, 0, 66, 64
2, 14963, Note_off_c, 0, 70, 64
2, 14989, Note_on_c, 0, 78, 57
2, 15008, Note_on_c, 0, 70, 33
2, 15011, Note_off_c, 0, 80, 64
2, 15041, Note_off_c, 0, 51, 64
2, 15044, Note_on_c, 0, 66, 33
2, 15049, Note_off_c, 0, 39, 64
2, 15058, Note_off_c, 0, 70, 64
2, 15083, Control_c, 0, 64, 0
2, 15100, Note_off_c, 0, 66, 64
2, 15114, Note_on_c, 0, 51, 44
2, 15115, Control_c, 0, 64, 0
2, 15117, Note_on_c, 0, 39, 45
2, 15134, Control_c, 0, 64, 127
2, 15146, Note_on_c, 0, 77, 51
2, 15164, Note_on_c, 0, 65, 33
2, 15166, Control_c, 0, 64, 127
2, 15172, Note_off_c, 0, 78, 64
2, 15204, Note_on_c, 0, 69, 33
2, 15241, Note_off_c, 0, 65, 64
2, 15251, Note_off_c, 0, 69, 64
2, 15276, Note_on_c, 0, 72, 50
2, 15277, Note_off_c, 0, 77, 64
2, 15287, Note_on_c, 0, 69, 33
2, 15331, Note_on_c, 0, 65, 33
2, 15341, Note_off_c, 0, 69, 64
2, 15382, Control_c, 0, 64, 0
2, 15396, Note_on_c, 0, 60, 51
2, 15399, Note_off_c, 0, 65, 64
2, 15405, Note_off_c, 0, 72, 64
2, 15410, Control_c, 0, 64, 127
2, 15414, Control_c, 0, 64, 0
2, 15424, Note_on_c, 0, 72, 53
2, 15428, Note_on_c, 0, 69, 33
2, 15442, Control_c, 0, 64, 127
2, 15469, Note_on_c, 0, 65, 33
2, 15477, Note_off_c, 0, 69, 64
2, 15528, Note_off_c, 0, 65, 64
2, 15537, Note_off_c, 0, 72, 64
2, 15544, Note_on_c, 0, 69, 34
2, 15548, Note_on_c, 0, 72, 55
2, 15592, Note_on_c, 0, 65, 34
2, 15605, Note_off_c, 0, 69, 64
2, 15662, Note_off_c, 0, 65, 64
2, 15662, Note_off_c, 0, 72, 64
2, 15681, Note_on_c, 0, 72, 58
2, 15692, Note_on_c, 0, 65, 34
2, 15736, Note_on_c, 0, 68, 35
2, 15737, Control_c, 0, 64, 0
2, 15763, Note_off_c, 0, 65, 64
2, 15769, Control_c, 0, 64, 0
2, 15784, Note_on_c, 0, 62, 48
2, 15786, Control_c, 0, 64, 127
2, 15798, Note_off_c, 0, 68, 64
2, 15801, Note_off_c, 0, 72, 64
2, 15812, Note_on_c, 0, 71, 62
2, 15818, Control_c, 0, 64, 127
2, 15827, Note_off_c, 0, 60, 64
2, 15827, Note_on_c, 0, 68, 35
2, 15870, Note_on_c, 0, 65, 35
2, 15872, Note_off_c, 0, 68, 64
2, 15888, Control_c, 0, 64, 0
2, 15912, Note_off_c, 0, 62, 64
2, 15920, Control_c, 0, 64, 0
2, 15928, Note_on_c, 0, 62, 50
2, 15929, Note_off_c, 0, 71, 64
2, 15930, Note_off_c, 0, 65, 64
2, 15937, Control_c, 0, 64, 127
2, 15957, Note_on_c, 0, 71, 64
2, 15964, Note_on_c, 0, 68, 36
2, 15969, Control_c, 0, 64, 127
2, 16018, Note_on_c, 0, 65, 36
2, 16019, Note_off_c, 0, 68, 64
2, 16074, Note_off_c, 0, 71, 64
2, 16084, Note_off_c, 0, 65, 64
2, 16095, Note_on_c, 0, 71, 68
2, 16102, Note_on_c, 0, 68, 36
2, 16147, Note_off_c, 0, 62, 64
2, 16147, Note_on_c, 0, 65, 36
2, 16156, Note_on_c, 0, 62, 58
2, 16167, Note_off_c, 0, 68, 64
2, 16200, Note_off_c, 0, 62, 64
2, 16204, Note_on_c, 0, 62, 55
2, 16211, Note_off_c, 0, 71, 64
2, 16214, Note_off_c, 0, 65, 64
2, 16233, Note_on_c, 0, 71, 68
2, 16244, Note_on_c, 0, 64, 37
2, 16288, Note_on_c, 0, 67, 37
2, 16318, Note_off_c, 0, 64, 64
2, 16320, Control_c, 0, 64, 0
2, 16352, Note_on_c, 0, 61, 60
2, 16352, Control_c, 0, 64, 0
2, 16353, Note_off_c, 0, 67, 64
2, 16358, Note_off_c, 0, 62, 64
2, 16367, Note_off_c, 0, 71, 64
2, 16370, Control_c, 0, 64, 127
2, 16381, Note_on_c, 0, 70, 70
2, 16395, Note_on_c, 0, 67, 38
2, 16402, Control_c, 0, 64, 127
2, 16440, Note_on_c, 0, 64, 38
2, 16458, Note_off_c, 0, 61, 64
2, 16460, Note_off_c, 0, 67, 64
2, 16461, Control_c, 0, 64, 0
2, 16493, Control_c, 0, 64, 0
2, 16496, Note_on_c, 0, 61, 45
2, 16510, Control_c, 0, 64, 127
2, 16516, Note_off_c, 0, 70, 64
2, 16530, Note_on_c, 0, 70, 62
2, 16531, Note_off_c, 0, 64, 64
2, 16536, Note_on_c, 0, 67, 33
2, 16542, Control_c, 0, 64, 127
2, 16591, Note_off_c, 0, 61, 64
2, 16592, Note_on_c, 0, 64, 33
2, 16601, Note_off_c, 0, 67, 64
2, 16601, Control_c, 0, 64, 0
2, 16633, Control_c, 0, 64, 0
2, 16648, Note_on_c, 0, 61, 46
2, 16658, Control_c, 0, 64, 127
2, 16668, Note_off_c, 0, 70, 64
2, 16674, Note_on_c, 0, 70, 63
2, 16680, Note_on_c, 0, 67, 33
2, 16681, Note_off_c, 0, 64, 64
2, 16690, Control_c, 0, 64, 127
2, 16736, Note_on_c, 0, 64, 34
2, 16745, Note_off_c, 0, 67, 64
2, 16749, Control_c, 0, 64, 0
2, 16750, Note_off_c, 0, 61, 64
2, 16781, Control_c, 0, 64, 0
2, 16787, Note_on_c, 0, 61, 48
2, 16805, Control_c, 0, 64, 127
2, 16809, Note_off_c, 0, 70, 64
2, 16818, Note_off_c, 0, 64, 64
2, 16832, Note_on_c, 0, 70, 66
2, 16837, Control_c, 0, 64, 127
2, 16848, Note_on_c, 0, 63, 34
2, 16880, Note_on_c, 0, 66, 34
2, 16895, Control_c, 0, 64, 0
2, 16916, Note_off_c, 0, 63, 64
2, 16927, Control_c, 0, 64, 0
2, 16930, Note_on_c, 0, 56, 40
2, 16935, Note_on_c, 0, 60, 44
2, 16941, Note_off_c, 0, 61, 64
2, 16945, Note_off_c, 0, 66, 64
2, 16952, Control_c, 0, 64, 127
2, 16956, Note_on_c, 0, 68, 67
2, 16967, Note_off_c, 0, 70, 64
2, 16984, Control_c, 0, 64, 127
2, 16992, Note_on_c, 0, 66, 34
2, 17036, Note_on_c, 0, 63, 34
2, 17057, Note_off_c, 0, 66, 64
2, 17067, Note_off_c, 0, 60, 64
2, 17070, Note_off_c, 0, 56, 64
2, 17091, Note_off_c, 0, 68, 64
2, 17100, Note_on_c, 0, 56, 48
2, 17106, Note_on_c, 0, 60, 48
2, 17128, Note_off_c, 0, 63, 64
2, 17132, Note_on_c, 0, 68, 70
2, 17152, Note_on_c, 0, 66, 35
2, 17204, Note_on_c, 0, 63, 35
2, 17218, Note_off_c, 0, 56, 64
2, 17221, Note_off_c, 0, 66, 64
2, 17228, Note_off_c, 0, 60, 64
2, 17284, Note_on_c, 0, 60, 50
2, 17286, Note_on_c, 0, 56, 52
2, 17305, Note_off_c, 0, 68, 64
2, 17316, Note_on_c, 0, 68, 73
2, 17318, Note_off_c, 0, 63, 64
2, 17348, Note_on_c, 0, 66, 36
2, 17388, Note_off_c, 0, 60, 64
2, 17397, Note_off_c, 0, 56, 64
2, 17427, Note_off_c, 0, 66, 64
2, 17428, Note_off_c, 0, 51, 64
2, 17431, Note_off_c, 0, 39, 64
2, 17448, Note_on_c, 0, 63, 36
2, 17508, Control_c, 0, 64, 0
2, 17520, Note_on_c, 0, 51, 77
2, 17525, Note_off_c, 0, 63, 64
2, 17526, Note_on_c, 0, 39, 65
2, 17534, Note_off_c, 0, 68, 64
2, 17540, Control_c, 0, 64, 0
2, 17556, Control_c, 0, 64, 127
2, 17588, Control_c, 0, 64, 127
2, 17591, Note_on_c, 0, 58, 44
2, 17643, Note_on_c, 0, 63, 44
2, 17675, Note_off_c, 0, 58, 64
2, 17690, Note_on_c, 0, 66, 44
2, 17692, Note_off_c, 0, 63, 64
2, 17731, Note_on_c, 0, 63, 44
2, 17736, Note_off_c, 0, 66, 64
2, 17770, Note_on_c, 0, 58, 44
2, 17778, Note_off_c, 0, 63, 64
2, 17828, Note_on_c, 0, 57, 44
2, 17847, Note_off_c, 0, 58, 64
2, 17860, Note_on_c, 0, 70, 74
2, 17877, Note_on_c, 0, 58, 44
2, 17921, Note_on_c, 0, 63, 44
2, 17928, Note_off_c, 0, 57, 64
2, 17960, Note_on_c, 0, 66, 44
2, 17968, Note_off_c, 0, 63, 64
2, 17968, Note_off_c, 0, 58, 64
2, 18000, Note_on_c, 0, 63, 44
2, 18016, Note_off_c, 0, 66, 64
2, 18039, Note_on_c, 0, 58, 44
2, 18056, Note_off_c, 0, 63, 64
2, 18090, Note_off_c, 0, 51, 64
2, 18095, Note_off_c, 0, 58, 64
2, 18096, Note_off_c, 0, 39, 64
2, 18106, Control_c, 0, 64, 0
2, 18119, Note_on_c, 0, 49, 58
2, 18120, Note_on_c, 0, 37, 60
2, 18138, Control_c, 0, 64, 0
2, 18141, Control_c, 0, 64, 127
2, 18161, Note_on_c, 0, 75, 82
2, 18173, Control_c, 0, 64, 127
2, 18188, Note_off_c, 0, 70, 64
2, 18200, Note_on_c, 0, 58, 44
2, 18250, Note_off_c, 0, 58, 64
2, 18252, Note_on_c, 0, 63, 44
2, 18288, Note_on_c, 0, 66, 44
2, 18290, Note_off_c, 0, 63, 64
2, 18320, Note_on_c, 0, 63, 44
2, 18365, Note_off_c, 0, 66, 64
2, 18370, Note_on_c, 0, 58, 44
2, 18377, Note_off_c, 0, 63, 64
2, 18417, Note_on_c, 0, 57, 44
2, 18428, Note_off_c, 0, 58, 64
2, 18469, Note_on_c, 0, 58, 44
2, 18516, Note_on_c, 0, 63, 44
2, 18543, Note_off_c, 0, 57, 64
2, 18547, Note_off_c, 0, 58, 64
2, 18567, Note_off_c, 0, 63, 64
2, 18589, Note_off_c, 0, 75, 64
2, 18591, Note_on_c, 0, 66, 70
2, 18592, Note_on_c, 0, 63, 44
2, 18643, Note_off_c, 0, 63, 64
2, 18648, Note_on_c, 0, 58, 44
2, 18676, Note_off_c, 0, 49, 64
2, 18677, Note_off_c, 0, 37, 64
2, 18685, Control_c, 0, 64, 0
2, 18705, Note_on_c, 0, 36, 58
2, 18705, Note_on_c, 0, 48, 61
2, 18717, Control_c, 0, 64, 0
2, 18724, Control_c, 0, 64, 127
2, 18730, Note_off_c, 0, 58, 64
2, 18731, Note_on_c, 0, 70, 78
2, 18750, Note_on_c, 0, 56, 44
2, 18755, Note_off_c, 0, 66, 64
2, 18756, Control_c, 0, 64, 127
2, 18794, Note_on_c, 0, 63, 42
2, 18824, Note_off_c, 0, 56, 64
2, 18831, Note_off_c, 0, 63, 64
2, 18837, Note_on_c, 0, 66, 41
2, 18881, Note_on_c, 0, 63, 40
2, 18901, Note_off_c, 0, 66, 64
2, 18920, Note_on_c, 0, 56, 44
2, 18931, Note_off_c, 0, 63, 64
2, 18989, Note_on_c, 0, 55, 44
2, 19009, Note_off_c, 0, 56, 64
2, 19023, Note_on_c, 0, 68, 53
2, 19037, Note_on_c, 0, 56, 44
2, 19042, Note_off_c, 0, 70, 64
2, 19085, Note_on_c, 0, 63, 36
2, 19104, Note_off_c, 0, 55, 64
2, 19119, Note_off_c, 0, 56, 64
2, 19138, Note_off_c, 0, 63, 64
2, 19140, Note_on_c, 0, 66, 34
2, 19182, Note_on_c, 0, 63, 33
2, 19197, Note_off_c, 0, 66, 64
2, 19223, Note_on_c, 0, 56, 44
2, 19239, Control_c, 0, 64, 0
2, 19246, Note_off_c, 0, 63, 64
2, 19271, Control_c, 0, 64, 0
2, 19273, Note_on_c, 0, 49, 54
2, 19275, Note_off_c, 0, 48, 64
2, 19275, Note_off_c, 0, 36, 64
2, 19275, Note_on_c, 0, 37, 49
2, 19283, Note_off_c, 0, 56, 64
2, 19290, Control_c, 0, 64, 127
2, 19322, Control_c, 0, 64, 127
2, 19324, Note_on_c, 0, 56, 44
2, 19361, Note_off_c, 0, 68, 64
2, 19368, Note_on_c, 0, 61, 44
2, 19400, Note_off_c, 0, 56, 64
2, 19417, Note_off_c, 0, 61, 64
2, 19440, Note_on_c, 0, 61, 44
2, 19442, Note_on_c, 0, 65, 59
2, 19472, Note_on_c, 0, 56, 44
2, 19496, Note_off_c, 0, 61, 64
2, 19544, Note_on_c, 0, 55, 44
2, 19560, Note_off_c, 0, 56, 64
2, 19573, Note_on_c, 0, 64, 61
2, 19586, Note_on_c, 0, 56, 44
2, 19593, Note_off_c, 0, 65, 64
2, 19631, Note_on_c, 0, 61, 44
2, 19648, Note_off_c, 0, 55, 64
2, 19653, Note_off_c, 0, 56, 64
2, 19680, Note_off_c, 0, 61, 64
2, 19704, Note_on_c, 0, 61, 44
2, 19706, Note_on_c, 0, 65, 61
2, 19724, Note_off_c, 0, 64, 64
2, 19764, Note_off_c, 0, 61, 64
2, 19768, Note_on_c, 0, 56, 44
2, 19796, Control_c, 0, 64, 0
2, 19808, Note_on_c, 0, 34, 60
2, 19813, Note_off_c, 0, 49, 64
2, 19815, Note_off_c, 0, 37, 64
2, 19818, Note_on_c, 0, 46, 60
2, 19828, Control_c, 0, 64, 0
2, 19842, Control_c, 0, 64, 127
2, 19850, Note_on_c, 0, 68, 70
2, 19860, Note_off_c, 0, 56, 64
2, 19873, Note_off_c, 0, 65, 64
2, 19874, Control_c, 0, 64, 127
2, 19901, Note_on_c, 0, 54, 44
2, 19939, Note_on_c, 0, 61, 44
2, 19966, Note_off_c, 0, 54, 64
2, 19985, Note_off_c, 0, 61, 64
2, 20008, Note_on_c, 0, 61, 44
2, 20011, Note_on_c, 0, 66, 52
2, 20030, Note_off_c, 0, 68, 64
2, 20040, Note_on_c, 0, 54, 44
2, 20063, Control_c, 0, 64, 0
2, 20065, Note_off_c, 0, 61, 64
2, 20095, Control_c, 0, 64, 0
2, 20101, Note_on_c, 0, 53, 44
2, 20105, Note_off_c, 0, 54, 64
2, 20113, Control_c, 0, 64, 127
2, 20126, Note_off_c, 0, 66, 64
2, 20135, Note_on_c, 0, 54, 44
2, 20135, Note_on_c, 0, 66, 69
2, 20145, Control_c, 0, 64, 127
2, 20182, Note_off_c, 0, 53, 64
2, 20184, Note_on_c, 0, 61, 44
2, 20215, Note_off_c, 0, 54, 64
2, 20236, Note_off_c, 0, 61, 64
2, 20250, Note_off_c, 0, 66, 64
2, 20256, Note_on_c, 0, 61, 44
2, 20260, Note_on_c, 0, 66, 63
2, 20310, Note_off_c, 0, 61, 64
2, 20312, Note_on_c, 0, 54, 44
2, 20358, Note_off_c, 0, 34, 64
2, 20368, Note_off_c, 0, 46, 64
2, 20378, Note_on_c, 0, 48, 62
2, 20384, Note_on_c, 0, 36, 59
2, 20389, Control_c, 0, 64, 0
2, 20396, Note_off_c, 0, 54, 64
2, 20405, Note_on_c, 0, 68, 63
2, 20421, Control_c, 0, 64, 0
2, 20423, Note_on_c, 0, 54, 44
2, 20429, Control_c, 0, 64, 127
2, 20431, Note_off_c, 0, 66, 64
2, 20461, Control_c, 0, 64, 127
2, 20473, Note_on_c, 0, 60, 44
2, 20508, Note_off_c, 0, 54, 64
2, 20514, Note_off_c, 0, 60, 64
2, 20515, Note_on_c, 0, 63, 44
2, 20562, Note_off_c, 0, 63, 64
2, 20566, Note_on_c, 0, 60, 44
2, 20596, Note_on_c, 0, 54, 44
2, 20610, Note_off_c, 0, 60, 64
2, 20652, Note_on_c, 0, 53, 44
2, 20665, Note_off_c, 0, 54, 64
2, 20701, Note_on_c, 0, 54, 44
2, 20745, Note_off_c, 0, 53, 64
2, 20745, Note_on_c, 0, 60, 44
2, 20781, Note_off_c, 0, 54, 64
2, 20791, Note_off_c, 0, 60, 64
2, 20814, Note_on_c, 0, 66, 64
2, 20831, Note_off_c, 0, 68, 64
2, 20840, Note_on_c, 0, 60, 44
2, 20873, Note_on_c, 0, 54, 44
2, 20884, Note_off_c, 0, 60, 64
2, 20905, Control_c, 0, 64, 0
2, 20918, Note_off_c, 0, 54, 64
2, 20927, Note_on_c, 0, 33, 59
2, 20927, Note_on_c, 0, 45, 59
2, 20928, Note_off_c, 0, 48, 64
2, 20934, Note_off_c, 0, 36, 64
2, 20937, Control_c, 0, 64, 0
2, 20949, Control_c, 0, 64, 127
2, 20968, Note_on_c, 0, 65, 59
2, 20981, Control_c, 0, 64, 127
2, 20989, Note_on_c, 0, 53, 44
2, 20999, Note_off_c, 0, 66, 64
2, 21031, Note_on_c, 0, 60, 44
2, 21069, Note_off_c, 0, 53, 64
2, 21076, Note_off_c, 0, 60, 64
2, 21079, Note_on_c, 0, 63, 44
2, 21129, Note_on_c, 0, 60, 44
2, 21144, Note_off_c, 0, 63, 64
2, 21170, Note_on_c, 0, 53, 44
2, 21175, Note_off_c, 0, 60, 64
2, 21220, Note_off_c, 0, 53, 64
2, 21220, Note_on_c, 0, 52, 51
2, 21263, Note_on_c, 0, 53, 44
2, 21306, Note_on_c, 0, 60, 44
2, 21317, Note_off_c, 0, 52, 64
2, 21351, Note_off_c, 0, 53, 64
2, 21351, Note_on_c, 0, 63, 44
2, 21357, Note_off_c, 0, 60, 64
2, 21396, Note_on_c, 0, 60, 44
2, 21410, Note_off_c, 0, 63, 64
2, 21453, Note_on_c, 0, 53, 44
2, 21458, Note_off_c, 0, 60, 64
2, 21463, Control_c, 0, 64, 0
2, 21487, Note_off_c, 0, 45, 64
2, 21487, Note_off_c, 0, 33, 64
2, 21495, Control_c, 0, 64, 0
2, 21497, Note_off_c, 0, 53, 64
2, 21499, Note_on_c, 0, 46, 54
2, 21504, Note_on_c, 0, 34, 54
2, 21525, Control_c, 0, 64, 127
2, 21545, Note_on_c, 0, 53, 44
2, 21557, Control_c, 0, 64, 127
2, 21584, Note_on_c, 0, 58, 44
2, 21624, Note_off_c, 0, 53, 64
2, 21639, Note_on_c, 0, 61, 44
2, 21645, Note_off_c, 0, 58, 64
2, 21684, Note_on_c, 0, 58, 44
2, 21715, Note_off_c, 0, 61, 64
2, 21735, Note_on_c, 0, 53, 44
2, 21747, Note_off_c, 0, 58, 64
2, 21750, Control_c, 0, 64, 0
2, 21782, Control_c, 0, 64, 0
2, 21784, Note_on_c, 0, 49, 60
2, 21788, Note_off_c, 0, 53, 64
2, 21789, Note_off_c, 0, 46, 64
2, 21791, Note_on_c, 0, 37, 56
2, 21794, Note_off_c, 0, 34, 64
2, 21801, Control_c, 0, 64, 127
2, 21833, Control_c, 0, 64, 127
2, 21841, Note_on_c, 0, 53, 44
2, 21873, Note_on_c, 0, 58, 44
2, 21922, Note_off_c, 0, 53, 64
2, 21928, Note_on_c, 0, 61, 44
2, 21931, Note_off_c, 0, 58, 64
2, 21969, Note_on_c, 0, 58, 44
2, 22002, Note_off_c, 0, 61, 64
2, 22019, Note_on_c, 0, 53, 44
2, 22028, Note_off_c, 0, 58, 64
2, 22034, Control_c, 0, 64, 0
2, 22065, Note_off_c, 0, 65, 64
2, 22066, Control_c, 0, 64, 0
2, 22072, Note_on_c, 0, 31, 59
2, 22074, Note_on_c, 0, 43, 56
2, 22078, Note_off_c, 0, 53, 64
2, 22084, Note_off_c, 0, 49, 64
2, 22091, Note_off_c, 0, 37, 64
2, 22097, Control_c, 0, 64, 127
2, 22129, Control_c, 0, 64, 127
2, 22134, Note_on_c, 0, 51, 44
2, 22178, Note_on_c, 0, 58, 44
2, 22214, Note_off_c, 0, 51, 64
2, 22229, Note_on_c, 0, 61, 44
2, 22234, Note_off_c, 0, 58, 64
2, 22277, Note_on_c, 0, 58, 44
2, 22289, Note_off_c, 0, 61, 64
2, 22320, Note_on_c, 0, 51, 44
2, 22325, Note_off_c, 0, 58, 64
2, 22355, Control_c, 0, 64, 0
2, 22381, Note_on_c, 0, 50, 44
2, 22387, Control_c, 0, 64, 0
2, 22396, Note_off_c, 0, 51, 64
2, 22403, Control_c, 0, 64, 127
2, 22411, Note_on_c, 0, 63, 60
2, 22421, Note_on_c, 0, 51, 44
2, 22435, Control_c, 0, 64, 127
2, 22458, Note_off_c, 0, 50, 64
2, 22471, Note_on_c, 0, 58, 44
2, 22504, Note_on_c, 0, 61, 44
2, 22508, Note_off_c, 0, 51, 64
2, 22527, Note_off_c, 0, 58, 64
2, 22541, Note_on_c, 0, 58, 44
2, 22560, Note_off_c, 0, 61, 64
2, 22592, Note_on_c, 0, 51, 44
2, 22597, Note_off_c, 0, 58, 64
2, 22638, Control_c, 0, 64, 0
2, 22640, Note_off_c, 0, 51, 64
2, 22663, Note_off_c, 0, 31, 64
2, 22664, Note_on_c, 0, 42, 59
2, 22665, Note_off_c, 0, 43, 64
2, 22670, Control_c, 0, 64, 0
2, 22671, Note_on_c, 0, 30, 54
2, 22694, Control_c, 0, 64, 127
2, 22701, Note_on_c, 0, 68, 70
2, 22706, Note_off_c, 0, 63, 64
2, 22726, Control_c, 0, 64, 127
2, 22748, Note_on_c, 0, 51, 44
2, 22794, Note_on_c, 0, 56, 44
2, 22808, Note_off_c, 0, 51, 64
2, 22840, Note_on_c, 0, 60, 44
2, 22850, Note_off_c, 0, 56, 64
2, 22875, Note_on_c, 0, 56, 44
2, 22878, Note_off_c, 0, 60, 64
2, 22912, Note_on_c, 0, 51, 44
2, 22936, Note_off_c, 0, 56, 64
2, 22971, Note_off_c, 0, 51, 64
2, 22977, Note_on_c, 0, 50, 44
2, 23028, Note_on_c, 0, 51, 44
2, 23066, Note_on_c, 0, 56, 44
2, 23087, Note_off_c, 0, 50, 64
2, 23096, Note_off_c, 0, 51, 64
2, 23114, Note_off_c, 0, 56, 64
2, 23136, Note_on_c, 0, 56, 44
2, 23144, Note_on_c, 0, 60, 58
2, 23190, Note_off_c, 0, 56, 64
2, 23191, Note_off_c, 0, 68, 64
2, 23208, Note_on_c, 0, 51, 44
2, 23225, Control_c, 0, 64, 0
2, 23232, Note_off_c, 0, 42, 64
2, 23239, Note_off_c, 0, 30, 64
2, 23250, Note_on_c, 0, 41, 59
2, 23254, Note_on_c, 0, 29, 59
2, 23257, Control_c, 0, 64, 0
2, 23274, Control_c, 0, 64, 127
2, 23280, Note_on_c, 0, 63, 69
2, 23291, Note_off_c, 0, 51, 64
2, 23302, Note_on_c, 0, 49, 44
2, 23305, Note_off_c, 0, 60, 64
2, 23306, Control_c, 0, 64, 127
2, 23349, Note_on_c, 0, 56, 41
2, 23393, Note_off_c, 0, 49, 64
2, 23404, Note_on_c, 0, 59, 40
2, 23405, Note_off_c, 0, 56, 64
2, 23455, Note_on_c, 0, 56, 39
2, 23465, Note_off_c, 0, 59, 64
2, 23484, Note_on_c, 0, 49, 44
2, 23511, Note_off_c, 0, 56, 64
2, 23520, Control_c, 0, 64, 0
2, 23536, Note_on_c, 0, 48, 44
2, 23549, Note_off_c, 0, 49, 64
2, 23552, Control_c, 0, 64, 0
2, 23567, Note_on_c, 0, 61, 50
2, 23570, Control_c, 0, 64, 127
2, 23574, Note_on_c, 0, 49, 44
2, 23602, Control_c, 0, 64, 127
2, 23616, Note_on_c, 0, 56, 36
2, 23625, Note_off_c, 0, 63, 64
2, 23651, Note_off_c, 0, 48, 64
2, 23662, Note_on_c, 0, 59, 35
2, 23666, Note_off_c, 0, 56, 64
2, 23671, Note_off_c, 0, 49, 64
2, 23720, Note_on_c, 0, 56, 33
2, 23738, Note_off_c, 0, 59, 64
2, 23760, Note_on_c, 0, 49, 44
2, 23771, Note_off_c, 0, 56, 64
2, 23790, Control_c, 0, 64, 0
2, 23816, Note_on_c, 0, 30, 56
2, 23816, Note_on_c, 0, 42, 60
2, 23820, Note_off_c, 0, 41, 64
2, 23822, Control_c, 0, 64, 0
2, 23824, Note_off_c, 0, 29, 64
2, 23838, Note_off_c, 0, 49, 64
2, 23838, Control_c, 0, 64, 127
2, 23864, Note_on_c, 0, 49, 44
2, 23870, Control_c, 0, 64, 127
2, 23909, Note_on_c, 0, 54, 44
2, 23938, Note_off_c, 0, 49, 64
2, 23942, Note_off_c, 0, 61, 64
2, 23955, Note_off_c, 0, 54, 64
2, 23976, Note_on_c, 0, 54, 44
2, 23982, Note_on_c, 0, 58, 63
2, 24016, Note_on_c, 0, 49, 44
2, 24025, Note_off_c, 0, 54, 64
2, 24072, Note_on_c, 0, 48, 44
2, 24098, Note_off_c, 0, 49, 64
2, 24112, Note_on_c, 0, 57, 64
2, 24130, Note_on_c, 0, 49, 44
2, 24135, Note_off_c, 0, 58, 64
2, 24179, Note_on_c, 0, 54, 44
2, 24200, Note_off_c, 0, 48, 64
2, 24215, Note_off_c, 0, 49, 64
2, 24232, Note_off_c, 0, 54, 64
2, 24248, Note_on_c, 0, 54, 44
2, 24256, Note_on_c, 0, 58, 66
2, 24285, Note_off_c, 0, 57, 64
2, 24296, Control_c, 0, 64, 0
2, 24301, Note_off_c, 0, 54, 64
2, 24304, Note_on_c, 0, 49, 44
2, 24328, Control_c, 0, 64, 0
2, 24346, Note_off_c, 0, 42, 64
2, 24346, Note_off_c, 0, 30, 64
2, 24360, Note_on_c, 0, 27, 68
2, 24361, Note_on_c, 0, 39, 68
2, 24374, Note_off_c, 0, 49, 64
2, 24378, Control_c, 0, 64, 127
2, 24385, Note_on_c, 0, 61, 74
2, 24410, Control_c, 0, 64, 127
2, 24412, Note_on_c, 0, 48, 44
2, 24414, Note_off_c, 0, 58, 64
2, 24448, Note_on_c, 0, 54, 40
2, 24488, Note_off_c, 0, 48, 64
2, 24509, Note_off_c, 0, 54, 64
2, 24527, Note_on_c, 0, 60, 58
2, 24528, Note_on_c, 0, 54, 40
2, 24537, Note_off_c, 0, 61, 64
2, 24560, Note_on_c, 0, 48, 44
2, 24598, Note_off_c, 0, 54, 64
2, 24608, Control_c, 0, 64, 0
2, 24634, Note_on_c, 0, 47, 29
2, 24640, Control_c, 0, 64, 0
2, 24647, Note_off_c, 0, 60, 64
2, 24654, Note_off_c, 0, 48, 64
2, 24665, Control_c, 0, 64, 127
2, 24672, Note_on_c, 0, 48, 44
2, 24697, Control_c, 0, 64, 127
2, 24700, Note_on_c, 0, 60, 65
2, 24725, Note_off_c, 0, 48, 64
2, 24725, Note_on_c, 0, 54, 41
2, 24781, Note_off_c, 0, 47, 64
2, 24789, Note_off_c, 0, 54, 64
2, 24800, Note_on_c, 0, 54, 41
2, 24826, Note_off_c, 0, 60, 64
2, 24848, Note_on_c, 0, 48, 44
2, 24852, Note_on_c, 0, 60, 73
2, 24859, Note_off_c, 0, 54, 64
2, 24890, Note_off_c, 0, 27, 64
2, 24891, Note_off_c, 0, 39, 64
2, 24893, Control_c, 0, 64, 0
2, 24904, Note_on_c, 0, 29, 58
2, 24904, Note_on_c, 0, 41, 57
2, 24925, Control_c, 0, 64, 0
2, 24944, Note_off_c, 0, 48, 79
2, 24951, Control_c, 0, 64, 127
2, 24959, Note_on_c, 0, 61, 79
2, 24964, Note_on_c, 0, 51, 44
2, 24978, Note_off_c, 0, 60, 64
2, 24983, Control_c, 0, 64, 127
2, 25012, Note_on_c, 0, 53, 42
2, 25037, Note_off_c, 0, 51, 64
2, 25070, Note_on_c, 0, 57, 39
2, 25073, Note_off_c, 0, 53, 64
2, 25123, Note_on_c, 0, 53, 43
2, 25133, Note_off_c, 0, 57, 64
2, 25160, Note_on_c, 0, 51, 44
2, 25188, Note_off_c, 0, 53, 64
2, 25209, Note_on_c, 0, 50, 44
2, 25225, Note_off_c, 0, 51, 64
2, 25255, Note_on_c, 0, 51, 44
2, 25309, Note_on_c, 0, 53, 44
2, 25322, Note_off_c, 0, 50, 64
2, 25326, Note_off_c, 0, 51, 64
2, 25361, Note_off_c, 0, 53, 64
2, 25376, Note_on_c, 0, 53, 44
2, 25396, Note_on_c, 0, 57, 54
2, 25402, Note_off_c, 0, 61, 64
2, 25416, Note_on_c, 0, 51, 44
2, 25446, Note_off_c, 0, 53, 64
2, 25474, Note_off_c, 0, 41, 64
2, 25474, Note_off_c, 0, 29, 64
2, 25480, Note_on_c, 0, 46, 60
2, 25486, Note_on_c, 0, 34, 41
2, 25491, Note_off_c, 0, 51, 64
2, 25530, Note_on_c, 0, 58, 53
2, 25538, Note_on_c, 0, 50, 44
2, 25550, Note_off_c, 0, 57, 64
2, 25584, Note_on_c, 0, 53, 44
2, 25603, Note_off_c, 0, 58, 64
2, 25617, Note_off_c, 0, 50, 64
2, 25630, Note_on_c, 0, 58, 44
2, 25643, Note_off_c, 0, 53, 64
2, 25685, Note_on_c, 0, 53, 44
2, 25719, Note_off_c, 0, 46, 64
2, 25724, Note_on_c, 0, 50, 44
2, 25740, Note_off_c, 0, 53, 64
2, 25768, Note_off_c, 0, 58, 64
2, 25779, Note_on_c, 0, 46, 66
2, 25785, Note_off_c, 0, 50, 64
2, 25805, Control_c, 0, 64, 0
2, 25831, Note_on_c, 0, 50, 44
2, 25837, Control_c, 0, 64, 0
2, 25860, Control_c, 0, 64, 127
2, 25870, Note_on_c, 0, 53, 44
2, 25892, Control_c, 0, 64, 127
2, 25905, Note_off_c, 0, 50, 64
2, 25912, Note_on_c, 0, 58, 44
2, 25921, Note_off_c, 0, 53, 64
2, 25971, Note_on_c, 0, 53, 44
2, 26015, Note_off_c, 0, 58, 64
2, 26016, Note_on_c, 0, 50, 44
2, 26026, Control_c, 0, 64, 0
2, 26030, Note_off_c, 0, 53, 64
2, 26058, Control_c, 0, 64, 0
2, 26062, Note_on_c, 0, 41, 59
2, 26063, Note_off_c, 0, 50, 64
2, 26070, Note_off_c, 0, 46, 64
2, 26074, Control_c, 0, 64, 127
2, 26106, Control_c, 0, 64, 127
2, 26112, Note_on_c, 0, 50, 44
2, 26154, Note_on_c, 0, 53, 44
2, 26167, Note_off_c, 0, 34, 64
2, 26192, Note_off_c, 0, 50, 64
2, 26207, Note_on_c, 0, 58, 44
2, 26216, Note_off_c, 0, 53, 64
2, 26254, Note_on_c, 0, 53, 44
2, 26288, Note_off_c, 0, 58, 64
2, 26299, Note_on_c, 0, 50, 44
2, 26301, Control_c, 0, 64, 0
2, 26315, Note_off_c, 0, 53, 64
2, 26333, Control_c, 0, 64, 0
2, 26346, Note_on_c, 0, 34, 60
2, 26348, Note_off_c, 0, 41, 64
2, 26350, Note_off_c, 0, 50, 64
2, 26364, Control_c, 0, 64, 127
2, 26396, Control_c, 0, 64, 127
2, 26408, Note_on_c, 0, 50, 44
2, 26446, Note_on_c, 0, 53, 44
2, 26494, Note_off_c, 0, 50, 64
2, 26494, Note_on_c, 0, 58, 44
2, 26500, Note_off_c, 0, 53, 64
2, 26540, Note_on_c, 0, 53, 44
2, 26554, Note_off_c, 0, 58, 64
2, 26574, Note_off_c, 0, 34, 64
2, 26576, Note_on_c, 0, 50, 44
2, 26596, Note_off_c, 0, 53, 64
2, 26620, Control_c, 0, 64, 0
2, 26632, Note_off_c, 0, 50, 64
2, 26632, Note_on_c, 0, 54, 57
2, 26634, Note_on_c, 0, 42, 57
2, 26652, Control_c, 0, 64, 0
2, 26668, Control_c, 0, 64, 127
2, 26696, Note_on_c, 0, 63, 42
2, 26700, Control_c, 0, 64, 127
2, 26746, Note_off_c, 0, 63, 64
2, 26752, Note_on_c, 0, 66, 42
2, 26788, Note_on_c, 0, 70, 42
2, 26796, Note_off_c, 0, 66, 64
2, 26815, Note_on_c, 0, 66, 42
2, 26828, Note_off_c, 0, 70, 64
2, 26862, Note_on_c, 0, 63, 42
2, 26877, Note_off_c, 0, 66, 64
2, 26925, Note_on_c, 0, 62, 42
2, 26929, Note_off_c, 0, 63, 64
2, 26950, Note_on_c, 0, 75, 73
2, 26964, Note_on_c, 0, 63, 42
2, 27000, Note_on_c, 0, 66, 42
2, 27034, Note_off_c, 0, 62, 64
2, 27039, Note_off_c, 0, 63, 64
2, 27049, Note_off_c, 0, 66, 64
2, 27052, Note_on_c, 0, 70, 42
2, 27091, Note_on_c, 0, 66, 42
2, 27098, Note_off_c, 0, 70, 64
2, 27128, Note_off_c, 0, 66, 64
2, 27131, Note_on_c, 0, 63, 42
2, 27162, Note_off_c, 0, 54, 64
2, 27164, Note_off_c, 0, 42, 64
2, 27173, Note_off_c, 0, 63, 64
2, 27191, Note_on_c, 0, 56, 50
2, 27192, Note_on_c, 0, 44, 50
2, 27192, Control_c, 0, 64, 0
2, 27224, Control_c, 0, 64, 0
2, 27232, Control_c, 0, 64, 127
2, 27253, Note_on_c, 0, 78, 80
2, 27264, Control_c, 0, 64, 127
2, 27267, Note_off_c, 0, 75, 64
2, 27282, Note_on_c, 0, 68, 42
2, 27329, Note_on_c, 0, 71, 42
2, 27352, Note_off_c, 0, 68, 64
2, 27362, Note_off_c, 0, 71, 64
2, 27363, Note_on_c, 0, 74, 42
2, 27402, Note_on_c, 0, 71, 42
2, 27408, Note_off_c, 0, 74, 64
2, 27438, Note_on_c, 0, 68, 42
2, 27448, Note_off_c, 0, 71, 64
2, 27484, Note_on_c, 0, 67, 42
2, 27485, Note_off_c, 0, 68, 64
2, 27528, Note_on_c, 0, 68, 42
2, 27571, Note_on_c, 0, 71, 42
2, 27578, Note_off_c, 0, 67, 64
2, 27605, Note_off_c, 0, 68, 64
2, 27615, Note_off_c, 0, 71, 64
2, 27648, Note_on_c, 0, 74, 48
2, 27654, Note_off_c, 0, 78, 64
2, 27669, Note_on_c, 0, 71, 42
2, 27705, Note_on_c, 0, 68, 42
2, 27710, Note_off_c, 0, 71, 64
2, 27731, Control_c, 0, 64, 0
2, 27737, Note_off_c, 0, 56, 64
2, 27738, Note_off_c, 0, 44, 64
2, 27747, Note_off_c, 0, 74, 64
2, 27756, Note_off_c, 0, 68, 64
2, 27758, Note_on_c, 0, 54, 57
2, 27763, Control_c, 0, 64, 0
2, 27765, Note_on_c, 0, 42, 57
2, 27787, Control_c, 0, 64, 127
2, 27819, Control_c, 0, 64, 127
2, 27820, Note_on_c, 0, 63, 42
2, 27860, Note_on_c, 0, 66, 42
2, 27879, Note_off_c, 0, 63, 64
2, 27903, Note_on_c, 0, 70, 42
2, 27907, Note_off_c, 0, 66, 64
2, 27942, Note_on_c, 0, 66, 42
2, 27954, Note_off_c, 0, 70, 64
2, 27983, Note_on_c, 0, 63, 42
2, 28007, Note_off_c, 0, 66, 64
2, 28034, Note_on_c, 0, 62, 42
2, 28048, Note_off_c, 0, 63, 64
2, 28062, Note_on_c, 0, 75, 73
2, 28073, Note_on_c, 0, 63, 42
2, 28122, Note_on_c, 0, 66, 42
2, 28125, Note_off_c, 0, 62, 64
2, 28152, Note_off_c, 0, 63, 64
2, 28160, Note_on_c, 0, 70, 42
2, 28164, Note_off_c, 0, 66, 64
2, 28200, Note_on_c, 0, 66, 42
2, 28207, Note_off_c, 0, 70, 64
2, 28229, Note_on_c, 0, 63, 42
2, 28254, Note_off_c, 0, 66, 64
2, 28283, Note_off_c, 0, 63, 64
2, 28285, Note_on_c, 0, 59, 50
2, 28290, Note_on_c, 0, 47, 50
2, 28298, Note_off_c, 0, 54, 64
2, 28305, Note_off_c, 0, 42, 64
2, 28317, Control_c, 0, 64, 0
2, 28349, Control_c, 0, 64, 0
2, 28363, Control_c, 0, 64, 127
2, 28376, Note_on_c, 0, 82, 79
2, 28390, Note_off_c, 0, 75, 64
2, 28395, Control_c, 0, 64, 127
2, 28406, Note_on_c, 0, 70, 42
2, 28456, Note_on_c, 0, 74, 42
2, 28471, Note_off_c, 0, 70, 64
2, 28485, Note_on_c, 0, 77, 42
2, 28510, Note_off_c, 0, 74, 64
2, 28523, Note_on_c, 0, 74, 42
2, 28537, Note_off_c, 0, 77, 64
2, 28558, Note_on_c, 0, 70, 42
2, 28563, Control_c, 0, 64, 0
2, 28574, Note_off_c, 0, 74, 64
2, 28595, Control_c, 0, 64, 0
2, 28598, Note_off_c, 0, 70, 64
2, 28604, Note_on_c, 0, 64, 42
2, 28613, Control_c, 0, 64, 127
2, 28645, Control_c, 0, 64, 127
2, 28652, Note_on_c, 0, 65, 42
2, 28700, Note_on_c, 0, 74, 42
2, 28731, Note_off_c, 0, 64, 64
2, 28740, Note_off_c, 0, 65, 64
2, 28745, Note_off_c, 0, 74, 64
2, 28774, Note_off_c, 0, 82, 64
2, 28774, Note_on_c, 0, 77, 70
2, 28778, Note_on_c, 0, 74, 42
2, 28824, Note_on_c, 0, 65, 42
2, 28839, Note_off_c, 0, 74, 64
2, 28842, Note_off_c, 0, 59, 64
2, 28847, Note_off_c, 0, 47, 64
2, 28847, Control_c, 0, 64, 0
2, 28864, Note_off_c, 0, 77, 64
2, 28866, Note_off_c, 0, 65, 64
2, 28875, Note_on_c, 0, 58, 57
2, 28879, Note_on_c, 0, 46, 57
2, 28879, Control_c, 0, 64, 0
2, 28897, Control_c, 0, 64, 127
2, 28925, Note_on_c, 0, 66, 42
2, 28929, Control_c, 0, 64, 127
2, 28975, Note_on_c, 0, 73, 42
2, 29003, Note_off_c, 0, 66, 64
2, 29028, Note_off_c, 0, 73, 64
2, 29040, Note_on_c, 0, 78, 64
2, 29040, Note_on_c, 0, 73, 42
2, 29092, Note_off_c, 0, 73, 64
2, 29096, Note_on_c, 0, 66, 42
2, 29139, Note_off_c, 0, 78, 64
2, 29152, Note_on_c, 0, 65, 42
2, 29164, Note_on_c, 0, 78, 69
2, 29169, Note_off_c, 0, 66, 64
2, 29189, Note_on_c, 0, 66, 42
2, 29229, Note_on_c, 0, 73, 42
2, 29260, Note_off_c, 0, 66, 64
2, 29267, Note_off_c, 0, 65, 64
2, 29280, Note_off_c, 0, 73, 64
2, 29291, Note_off_c, 0, 78, 64
2, 29310, Note_on_c, 0, 78, 83
2, 29320, Note_on_c, 0, 73, 42
2, 29389, Note_off_c, 0, 73, 64
2, 29400, Note_on_c, 0, 66, 42
2, 29421, Control_c, 0, 64, 0
2, 29445, Note_off_c, 0, 58, 64
2, 29449, Note_off_c, 0, 46, 64
2, 29453, Control_c, 0, 64, 0
2, 29455, Note_on_c, 0, 60, 56
2, 29458, Note_on_c, 0, 48, 50
2, 29465, Note_off_c, 0, 66, 64
2, 29465, Control_c, 0, 64, 127
2, 29487, Note_on_c, 0, 89, 81
2, 29493, Note_off_c, 0, 78, 64
2, 29497, Control_c, 0, 64, 127
2, 29521, Note_on_c, 0, 75, 42
2, 29569, Note_on_c, 0, 78, 42
2, 29575, Note_off_c, 0, 75, 64
2, 29600, Note_off_c, 0, 78, 64
2, 29608, Note_on_c, 0, 80, 42
2, 29638, Note_off_c, 0, 80, 64
2, 29647, Note_on_c, 0, 78, 42
2, 29682, Note_on_c, 0, 75, 42
2, 29696, Note_off_c, 0, 78, 64
2, 29721, Note_on_c, 0, 74, 42
2, 29732, Note_off_c, 0, 75, 64
2, 29772, Note_on_c, 0, 75, 42
2, 29810, Note_on_c, 0, 78, 42
2, 29844, Note_off_c, 0, 75, 64
2, 29848, Note_off_c, 0, 74, 64
2, 29865, Note_off_c, 0, 78, 64
2, 29892, Note_on_c, 0, 87, 71
2, 29901, Note_off_c, 0, 89, 64
2, 29904, Note_on_c, 0, 78, 42
2, 29944, Note_on_c, 0, 75, 42
2, 29968, Note_off_c, 0, 78, 64
2, 29982, Control_c, 0, 64, 0
2, 30001, Note_off_c, 0, 60, 64
2, 30004, Note_off_c, 0, 48, 64
2, 30007, Note_on_c, 0, 61, 41
2, 30010, Note_on_c, 0, 49, 40
2, 30014, Control_c, 0, 64, 0
2, 30018, Note_off_c, 0, 87, 64
2, 30024, Note_off_c, 0, 75, 64
2, 30027, Control_c, 0, 64, 127
2, 30037, Note_on_c, 0, 87, 71
2, 30044, Note_on_c, 0, 73, 42
2, 30059, Control_c, 0, 64, 127
2, 30086, Note_on_c, 0, 77, 42
2, 30119, Note_off_c, 0, 73, 64
2, 30137, Note_off_c, 0, 77, 64
2, 30163, Note_on_c, 0, 80, 53
2, 30166, Note_off_c, 0, 87, 64
2, 30176, Note_on_c, 0, 77, 42
2, 30224, Note_on_c, 0, 73, 42
2, 30236, Note_off_c, 0, 77, 64
2, 30268, Note_on_c, 0, 72, 42
2, 30280, Note_off_c, 0, 80, 64
2, 30293, Note_off_c, 0, 73, 64
2, 30302, Note_on_c, 0, 80, 66
2, 30304, Note_on_c, 0, 73, 42
2, 30352, Note_on_c, 0, 77, 42
2, 30373, Note_off_c, 0, 72, 64
2, 30382, Note_off_c, 0, 73, 64
2, 30405, Note_off_c, 0, 77, 64
2, 30415, Note_off_c, 0, 80, 64
2, 30432, Note_on_c, 0, 77, 42
2, 30440, Note_on_c, 0, 80, 70
2, 30509, Note_off_c, 0, 77, 64
2, 30524, Control_c, 0, 64, 0
2, 30528, Note_on_c, 0, 73, 42
2, 30547, Note_off_c, 0, 61, 64
2, 30550, Note_off_c, 0, 49, 64
2, 30552, Note_on_c, 0, 58, 54
2, 30554, Note_on_c, 0, 46, 50
2, 30556, Control_c, 0, 64, 0
2, 30569, Control_c, 0, 64, 127
2, 30590, Note_on_c, 0, 87, 80
2, 30601, Note_off_c, 0, 73, 64
2, 30601, Control_c, 0, 64, 127
2, 30614, Note_on_c, 0, 73, 42
2, 30620, Note_off_c, 0, 80, 64
2, 30659, Note_on_c, 0, 77, 42
2, 30685, Note_off_c, 0, 73, 64
2, 30705, Note_off_c, 0, 77, 64
2, 30705, Note_on_c, 0, 78, 42
2, 30743, Note_on_c, 0, 77, 42
2, 30751, Note_off_c, 0, 78, 64
2, 30773, Note_on_c, 0, 73, 42
2, 30799, Note_off_c, 0, 77, 64
2, 30818, Note_off_c, 0, 73, 64
2, 30822, Note_on_c, 0, 72, 42
2, 30854, Note_on_c, 0, 73, 42
2, 30903, Note_on_c, 0, 77, 42
2, 30913, Note_off_c, 0, 72, 64
2, 30944, Note_off_c, 0, 73, 64
2, 30958, Note_off_c, 0, 77, 64
2, 30979, Note_on_c, 0, 85, 71
2, 30994, Note_off_c, 0, 87, 64
2, 30999, Note_on_c, 0, 77, 42
2, 31039, Note_on_c, 0, 73, 42
2, 31053, Note_off_c, 0, 77, 64
2, 31065, Control_c, 0, 64, 0
2, 31087, Note_off_c, 0, 58, 64
2, 31089, Note_off_c, 0, 46, 64
2, 31093, Note_on_c, 0, 59, 49
2, 31095, Note_on_c, 0, 47, 49
2, 31096, Note_off_c, 0, 85, 64
2, 31097, Control_c, 0, 64, 0
2, 31099, Note_off_c, 0, 73, 64
2, 31109, Control_c, 0, 64, 127
2, 31122, Note_on_c, 0, 85, 71
2, 31141, Control_c, 0, 64, 127
2, 31144, Note_on_c, 0, 71, 42
2, 31185, Note_on_c, 0, 75, 42
2, 31216, Note_off_c, 0, 71, 64
2, 31239, Note_off_c, 0, 75, 64
2, 31274, Note_on_c, 0, 78, 47
2, 31283, Note_on_c, 0, 71, 42
2, 31286, Note_off_c, 0, 85, 64
2, 31320, Note_on_c, 0, 75, 42
2, 31342, Note_off_c, 0, 71, 64
2, 31370, Note_on_c, 0, 70, 42
2, 31372, Note_off_c, 0, 75, 64
2, 31384, Note_off_c, 0, 78, 64
2, 31396, Note_on_c, 0, 78, 66
2, 31412, Note_on_c, 0, 71, 42
2, 31459, Note_on_c, 0, 75, 42
2, 31467, Note_off_c, 0, 70, 64
2, 31482, Note_off_c, 0, 71, 64
2, 31516, Note_off_c, 0, 75, 64
2, 31523, Note_off_c, 0, 78, 64
2, 31539, Note_on_c, 0, 78, 79
2, 31552, Note_on_c, 0, 71, 42
2, 31594, Note_on_c, 0, 75, 42
2, 31623, Note_off_c, 0, 59, 64
2, 31625, Note_off_c, 0, 47, 64
2, 31628, Note_off_c, 0, 71, 64
2, 31633, Control_c, 0, 64, 0
2, 31644, Note_on_c, 0, 44, 56
2, 31644, Note_on_c, 0, 56, 56
2, 31653, Note_off_c, 0, 75, 64
2, 31665, Control_c, 0, 64, 0
2, 31677, Note_on_c, 0, 85, 80
2, 31678, Control_c, 0, 64, 127
2, 31698, Note_off_c, 0, 78, 64
2, 31710, Note_on_c, 0, 71, 42
2, 31710, Control_c, 0, 64, 127
2, 31744, Note_on_c, 0, 75, 42
2, 31791, Note_off_c, 0, 71, 64
2, 31795, Note_on_c, 0, 80, 42
2, 31797, Note_off_c, 0, 75, 64
2, 31842, Note_on_c, 0, 75, 42
2, 31885, Note_on_c, 0, 71, 42
2, 31920, Note_off_c, 0, 75, 64
2, 31921, Note_on_c, 0, 70, 42
2, 31942, Note_off_c, 0, 71, 64
2, 31953, Note_off_c, 0, 80, 64
2, 31970, Note_on_c, 0, 71, 42
2, 32008, Note_on_c, 0, 75, 42
2, 32021, Note_off_c, 0, 70, 64
2, 32047, Note_off_c, 0, 71, 64
2, 32067, Note_off_c, 0, 75, 64
2, 32086, Note_on_c, 0, 83, 59
2, 32088, Note_on_c, 0, 75, 42
2, 32096, Note_off_c, 0, 85, 64
2, 32144, Note_on_c, 0, 71, 42
2, 32147, Note_off_c, 0, 75, 64
2, 32174, Note_off_c, 0, 44, 64
2, 32179, Control_c, 0, 64, 0
2, 32184, Note_off_c, 0, 56, 64
2, 32198, Note_on_c, 0, 44, 48
2, 32203, Note_on_c, 0, 56, 48
2, 32211, Control_c, 0, 64, 0
2, 32212, Note_off_c, 0, 71, 64
2, 32215, Control_c, 0, 64, 127
2, 32226, Note_on_c, 0, 82, 52
2, 32238, Note_on_c, 0, 70, 42
2, 32247, Control_c, 0, 64, 127
2, 32248, Note_off_c, 0, 83, 64
2, 32284, Note_on_c, 0, 74, 42
2, 32305, Note_off_c, 0, 70, 64
2, 32325, Note_off_c, 0, 74, 64
2, 32355, Note_on_c, 0, 77, 55
2, 32367, Note_off_c, 0, 82, 64
2, 32368, Note_on_c, 0, 74, 42
2, 32409, Note_on_c, 0, 70, 42
2, 32417, Note_off_c, 0, 74, 64
2, 32462, Note_on_c, 0, 65, 44
2, 32488, Note_off_c, 0, 70, 64
2, 32493, Note_off_c, 0, 77, 64
2, 32498, Note_on_c, 0, 77, 64
2, 32508, Note_on_c, 0, 74, 42
2, 32556, Note_off_c, 0, 74, 64
2, 32564, Note_on_c, 0, 70, 42
2, 32608, Note_off_c, 0, 77, 64
2, 32628, Note_on_c, 0, 77, 65
2, 32633, Note_off_c, 0, 70, 64
2, 32636, Note_on_c, 0, 74, 42
2, 32684, Note_on_c, 0, 70, 42
2, 32697, Note_off_c, 0, 74, 64
2, 32744, Note_off_c, 0, 77, 64
2, 32749, Note_off_c, 0, 70, 64
2, 32760, Note_on_c, 0, 77, 75
2, 32765, Note_on_c, 0, 70, 42
2, 32810, Note_on_c, 0, 73, 42
2, 32815, Control_c, 0, 64, 0
2, 32839, Note_off_c, 0, 70, 64
2, 32844, Note_off_c, 0, 65, 64
2, 32847, Control_c, 0, 64, 0
2, 32848, Note_on_c, 0, 67, 48
2, 32859, Note_off_c, 0, 73, 64
2, 32860, Control_c, 0, 64, 127
2, 32880, Note_on_c, 0, 73, 42
2, 32885, Note_off_c, 0, 77, 64
2, 32885, Note_on_c, 0, 76, 64
2, 32892, Control_c, 0, 64, 127
2, 32928, Note_on_c, 0, 70, 42
2, 32934, Note_off_c, 0, 73, 64
2, 32965, Note_off_c, 0, 67, 64
2, 32992, Note_on_c, 0, 67, 48
2, 33014, Note_off_c, 0, 76, 64
2, 33016, Note_on_c, 0, 76, 60
2, 33018, Note_off_c, 0, 70, 64
2, 33024, Note_on_c, 0, 73, 42
2, 33072, Note_on_c, 0, 70, 42
2, 33089, Note_off_c, 0, 73, 64
2, 33136, Note_off_c, 0, 76, 64
2, 33152, Note_on_c, 0, 76, 59
2, 33152, Note_on_c, 0, 73, 42
2, 33154, Note_off_c, 0, 70, 64
2, 33184, Note_on_c, 0, 70, 42
2, 33202, Note_off_c, 0, 67, 64
2, 33206, Note_off_c, 0, 73, 64
2, 33216, Note_on_c, 0, 67, 59
2, 33243, Note_off_c, 0, 70, 64
2, 33256, Note_off_c, 0, 67, 64
2, 33265, Note_off_c, 0, 76, 64
2, 33272, Note_on_c, 0, 67, 59
2, 33276, Note_on_c, 0, 76, 64
2, 33304, Note_on_c, 0, 69, 42
2, 33352, Note_on_c, 0, 72, 42
2, 33369, Note_off_c, 0, 69, 64
2, 33389, Control_c, 0, 64, 0
2, 33402, Note_off_c, 0, 72, 64
2, 33404, Note_off_c, 0, 76, 64
2, 33404, Note_on_c, 0, 75, 60
2, 33407, Note_on_c, 0, 66, 56
2, 33421, Control_c, 0, 64, 0
2, 33426, Note_off_c, 0, 67, 64
2, 33439, Control_c, 0, 64, 127
2, 33464, Note_on_c, 0, 72, 42
2, 33471, Control_c, 0, 64, 127
2, 33498, Note_on_c, 0, 69, 42
2, 33509, Note_off_c, 0, 66, 64
2, 33525, Note_off_c, 0, 72, 64
2, 33526, Note_off_c, 0, 75, 64
2, 33552, Note_on_c, 0, 66, 60
2, 33552, Note_on_c, 0, 75, 70
2, 33579, Note_off_c, 0, 69, 64
2, 33592, Note_on_c, 0, 72, 42
2, 33638, Note_on_c, 0, 69, 42
2, 33649, Note_off_c, 0, 66, 64
2, 33670, Note_off_c, 0, 72, 64
2, 33674, Note_off_c, 0, 75, 64
2, 33684, Note_on_c, 0, 75, 77
2, 33684, Note_on_c, 0, 66, 64
2, 33712, Note_off_c, 0, 69, 64
2, 33744, Note_on_c, 0, 72, 42
2, 33771, Note_off_c, 0, 66, 64
2, 33784, Note_on_c, 0, 69, 42
2, 33805, Note_off_c, 0, 72, 64
2, 33819, Note_off_c, 0, 75, 64
2, 33832, Note_on_c, 0, 75, 91
2, 33832, Note_on_c, 0, 66, 63
2, 33855, Note_off_c, 0, 69, 64
2, 33884, Note_on_c, 0, 68, 42
2, 33928, Note_on_c, 0, 71, 42
2, 33944, Control_c, 0, 64, 0
2, 33949, Note_off_c, 0, 68, 64
2, 33961, Note_off_c, 0, 75, 64
2, 33964, Note_on_c, 0, 65, 60
2, 33968, Note_on_c, 0, 73, 77
2, 33971, Note_on_c, 0, 61, 38
2, 33972, Note_off_c, 0, 66, 64
2, 33976, Control_c, 0, 64, 0
2, 33987, Note_off_c, 0, 71, 64
2, 33993, Control_c, 0, 64, 127
2, 34024, Note_on_c, 0, 71, 42
2, 34025, Control_c, 0, 64, 127
2, 34072, Note_on_c, 0, 68, 42
2, 34085, Note_off_c, 0, 65, 64
2, 34089, Note_off_c, 0, 71, 64
2, 34091, Note_off_c, 0, 61, 64
2, 34112, Note_off_c, 0, 73, 64
2, 34132, Note_on_c, 0, 73, 84
2, 34132, Note_on_c, 0, 65, 60
2, 34135, Note_on_c, 0, 61, 56
2, 34151, Note_off_c, 0, 68, 64
2, 34176, Note_on_c, 0, 71, 42
2, 34216, Note_on_c, 0, 68, 42
2, 34235, Note_off_c, 0, 61, 64
2, 34239, Note_off_c, 0, 71, 64
2, 34242, Note_off_c, 0, 65, 64
2, 34267, Note_off_c, 0, 73, 64
2, 34276, Note_on_c, 0, 73, 82
2, 34280, Note_on_c, 0, 65, 54
2, 34280, Note_on_c, 0, 61, 56
2, 34304, Note_off_c, 0, 68, 64
2, 34312, Note_on_c, 0, 71, 42
2, 34371, Note_off_c, 0, 71, 64
2, 34376, Note_on_c, 0, 68, 42
2, 34378, Note_off_c, 0, 44, 64
2, 34383, Note_off_c, 0, 56, 64
2, 34391, Note_off_c, 0, 61, 64
2, 34391, Note_off_c, 0, 65, 64
2, 34428, Note_off_c, 0, 73, 64
2, 34463, Note_off_c, 0, 68, 64
2, 34464, Note_on_c, 0, 44, 63
2, 34464, Note_on_c, 0, 56, 65
2, 34552, Control_c, 0, 64, 127
2, 34570, Note_on_c, 0, 63, 47
2, 34584, Control_c, 0, 64, 127
2, 34608, Note_on_c, 0, 68, 47
2, 34638, Note_off_c, 0, 63, 64
2, 34661, Note_off_c, 0, 68, 64
2, 34671, Note_on_c, 0, 71, 47
2, 34699, Note_on_c, 0, 68, 47
2, 34712, Note_off_c, 0, 71, 64
2, 34752, Note_on_c, 0, 63, 47
2, 34762, Note_off_c, 0, 68, 64
2, 34794, Note_on_c, 0, 62, 47
2, 34808, Note_off_c, 0, 63, 64
2, 34824, Note_on_c, 0, 75, 85
2, 34838, Note_on_c, 0, 63, 47
2, 34880, Note_on_c, 0, 68, 47
2, 34894, Note_off_c, 0, 62, 64
2, 34921, Note_on_c, 0, 71, 47
2, 34924, Note_off_c, 0, 68, 64
2, 34929, Note_off_c, 0, 63, 64
2, 34959, Note_on_c, 0, 68, 47
2, 34974, Note_off_c, 0, 71, 64
2, 34999, Note_off_c, 0, 68, 64
2, 35000, Note_on_c, 0, 63, 47
2, 35034, Note_off_c, 0, 56, 64
2, 35034, Note_off_c, 0, 44, 64
2, 35056, Note_off_c, 0, 63, 64
2, 35062, Note_on_c, 0, 42, 64
2, 35070, Note_on_c, 0, 54, 63
2, 35086, Control_c, 0, 64, 0
2, 35111, Control_c, 0, 64, 127
2, 35112, Note_on_c, 0, 80, 90
2, 35118, Control_c, 0, 64, 0
2, 35119, Note_off_c, 0, 75, 64
2, 35143, Control_c, 0, 64, 127
2, 35184, Note_on_c, 0, 63, 47
2, 35224, Note_on_c, 0, 68, 47
2, 35246, Note_off_c, 0, 63, 64
2, 35256, Note_on_c, 0, 71, 47
2, 35280, Note_off_c, 0, 68, 64
2, 35304, Note_on_c, 0, 68, 47
2, 35312, Note_off_c, 0, 71, 64
2, 35328, Note_on_c, 0, 63, 47
2, 35349, Note_off_c, 0, 68, 64
2, 35377, Note_on_c, 0, 62, 47
2, 35384, Note_off_c, 0, 63, 64
2, 35434, Note_on_c, 0, 63, 47
2, 35475, Note_off_c, 0, 62, 64
2, 35476, Note_on_c, 0, 68, 47
2, 35508, Note_off_c, 0, 63, 64
2, 35520, Note_on_c, 0, 71, 80
2, 35528, Note_off_c, 0, 68, 64
2, 35552, Note_on_c, 0, 68, 47
2, 35558, Note_off_c, 0, 80, 64
2, 35608, Note_on_c, 0, 63, 47
2, 35610, Note_off_c, 0, 68, 64
2, 35619, Note_off_c, 0, 42, 64
2, 35627, Note_off_c, 0, 54, 64
2, 35636, Control_c, 0, 64, 0
2, 35651, Note_off_c, 0, 71, 64
2, 35651, Note_on_c, 0, 53, 71
2, 35658, Note_on_c, 0, 41, 75
2, 35668, Control_c, 0, 64, 0
2, 35675, Control_c, 0, 64, 127
2, 35678, Note_on_c, 0, 75, 79
2, 35698, Note_off_c, 0, 63, 64
2, 35707, Control_c, 0, 64, 127
2, 35715, Note_on_c, 0, 61, 47
2, 35752, Note_on_c, 0, 68, 47
2, 35791, Note_on_c, 0, 71, 47
2, 35798, Note_off_c, 0, 68, 64
2, 35800, Note_off_c, 0, 61, 64
2, 35842, Note_on_c, 0, 68, 47
2, 35862, Note_off_c, 0, 71, 64
2, 35882, Note_on_c, 0, 61, 47
2, 35912, Note_off_c, 0, 68, 64
2, 35935, Note_on_c, 0, 60, 47
2, 35940, Note_off_c, 0, 61, 64
2, 35952, Note_on_c, 0, 73, 73
2, 35972, Note_on_c, 0, 61, 47
2, 35973, Note_off_c, 0, 75, 64
2, 36010, Note_on_c, 0, 68, 47
2, 36023, Note_off_c, 0, 60, 64
2, 36050, Note_off_c, 0, 61, 64
2, 36055, Note_on_c, 0, 71, 47
2, 36059, Note_off_c, 0, 68, 64
2, 36104, Note_on_c, 0, 68, 47
2, 36128, Note_off_c, 0, 71, 64
2, 36145, Note_on_c, 0, 61, 47
2, 36175, Note_off_c, 0, 68, 64
2, 36191, Control_c, 0, 64, 0
2, 36200, Note_off_c, 0, 61, 64
2, 36201, Note_on_c, 0, 54, 53
2, 36205, Note_on_c, 0, 42, 53
2, 36211, Note_off_c, 0, 53, 64
2, 36218, Note_off_c, 0, 41, 64
2, 36223, Control_c, 0, 64, 0
2, 36227, Control_c, 0, 64, 127
2, 36251, Note_on_c, 0, 61, 47
2, 36259, Control_c, 0, 64, 127
2, 36264, Note_off_c, 0, 73, 64
2, 36290, Note_on_c, 0, 66, 47
2, 36321, Note_off_c, 0, 61, 64
2, 36343, Note_off_c, 0, 66, 64
2, 36360, Note_on_c, 0, 66, 47
2, 36366, Note_on_c, 0, 70, 69
2, 36414, Note_off_c, 0, 66, 64
2, 36416, Note_on_c, 0, 61, 47
2, 36469, Note_on_c, 0, 60, 47
2, 36496, Note_off_c, 0, 61, 64
2, 36498, Note_on_c, 0, 69, 87
2, 36514, Note_on_c, 0, 61, 47
2, 36525, Note_off_c, 0, 70, 64
2, 36551, Note_off_c, 0, 60, 64
2, 36562, Note_on_c, 0, 66, 47
2, 36597, Note_off_c, 0, 61, 64
2, 36614, Note_off_c, 0, 66, 64
2, 36640, Note_on_c, 0, 70, 77
2, 36656, Note_on_c, 0, 66, 47
2, 36660, Note_off_c, 0, 69, 64
2, 36712, Note_on_c, 0, 61, 47
2, 36720, Control_c, 0, 64, 0
2, 36721, Note_off_c, 0, 66, 64
2, 36731, Note_off_c, 0, 54, 64
2, 36735, Note_off_c, 0, 42, 64
2, 36738, Note_on_c, 0, 51, 68
2, 36741, Note_on_c, 0, 39, 65
2, 36752, Control_c, 0, 64, 0
2, 36759, Control_c, 0, 64, 127
2, 36771, Note_on_c, 0, 73, 85
2, 36791, Note_off_c, 0, 61, 64
2, 36791, Control_c, 0, 64, 127
2, 36799, Note_off_c, 0, 70, 64
2, 36799, Note_on_c, 0, 59, 47
2, 36839, Note_on_c, 0, 66, 47
2, 36872, Note_off_c, 0, 59, 64
2, 36900, Note_off_c, 0, 66, 64
2, 36920, Note_on_c, 0, 66, 47
2, 36921, Note_on_c, 0, 71, 68
2, 36936, Note_off_c, 0, 73, 64
2, 36952, Note_on_c, 0, 59, 47
2, 36985, Note_off_c, 0, 66, 64
2, 37021, Note_on_c, 0, 58, 47
2, 37033, Note_off_c, 0, 59, 64
2, 37044, Note_off_c, 0, 71, 64
2, 37058, Note_on_c, 0, 71, 94
2, 37064, Note_on_c, 0, 59, 47
2, 37106, Note_on_c, 0, 66, 47
2, 37110, Note_off_c, 0, 58, 64
2, 37157, Note_off_c, 0, 59, 64
2, 37164, Note_off_c, 0, 66, 64
2, 37169, Note_off_c, 0, 71, 64
2, 37184, Note_on_c, 0, 71, 92
2, 37184, Note_on_c, 0, 66, 47
2, 37240, Note_on_c, 0, 59, 47
2, 37251, Note_off_c, 0, 66, 64
2, 37273, Control_c, 0, 64, 0
2, 37278, Note_off_c, 0, 51, 64
2, 37281, Note_off_c, 0, 39, 64
2, 37290, Note_on_c, 0, 53, 63
2, 37296, Note_on_c, 0, 41, 63
2, 37305, Control_c, 0, 64, 0
2, 37312, Control_c, 0, 64, 127
2, 37325, Note_off_c, 0, 59, 64
2, 37330, Note_on_c, 0, 73, 102
2, 37343, Note_off_c, 0, 71, 64
2, 37344, Control_c, 0, 64, 127
2, 37345, Note_on_c, 0, 59, 47
2, 37384, Note_on_c, 0, 65, 47
2, 37427, Note_off_c, 0, 59, 64
2, 37429, Note_on_c, 0, 68, 47
2, 37436, Note_off_c, 0, 65, 64
2, 37475, Note_on_c, 0, 65, 47
2, 37511, Note_off_c, 0, 68, 64
2, 37518, Note_on_c, 0, 59, 47
2, 37530, Note_off_c, 0, 65, 64
2, 37560, Note_on_c, 0, 58, 47
2, 37563, Note_off_c, 0, 59, 64
2, 37604, Note_on_c, 0, 59, 47
2, 37638, Note_on_c, 0, 65, 47
2, 37653, Note_off_c, 0, 58, 64
2, 37683, Note_off_c, 0, 59, 64
2, 37692, Note_off_c, 0, 65, 64
2, 37710, Note_on_c, 0, 71, 70
2, 37712, Note_on_c, 0, 65, 47
2, 37725, Note_off_c, 0, 73, 64
2, 37774, Note_off_c, 0, 65, 64
2, 37784, Note_on_c, 0, 59, 47
2, 37810, Control_c, 0, 64, 0
2, 37830, Note_off_c, 0, 53, 64
2, 37831, Note_on_c, 0, 50, 67
2, 37836, Note_off_c, 0, 41, 64
2, 37836, Note_on_c, 0, 38, 60
2, 37842, Control_c, 0, 64, 127
2, 37842, Control_c, 0, 64, 0
2, 37845, Note_off_c, 0, 59, 64
2, 37856, Note_on_c, 0, 70, 74
2, 37868, Note_on_c, 0, 58, 47
2, 37874, Control_c, 0, 64, 127
2, 37885, Note_off_c, 0, 71, 64
2, 37916, Note_on_c, 0, 65, 47
2, 37950, Note_off_c, 0, 58, 64
2, 37966, Note_off_c, 0, 65, 64
2, 37967, Note_on_c, 0, 68, 47
2, 38012, Note_on_c, 0, 65, 47
2, 38026, Note_off_c, 0, 68, 64
2, 38047, Note_on_c, 0, 58, 47
2, 38060, Note_off_c, 0, 65, 64
2, 38097, Note_off_c, 0, 58, 64
2, 38100, Note_on_c, 0, 57, 47
2, 38132, Note_on_c, 0, 58, 47
2, 38175, Note_on_c, 0, 65, 47
2, 38221, Note_on_c, 0, 68, 47
2, 38223, Note_off_c, 0, 65, 64
2, 38223, Note_off_c, 0, 57, 64
2, 38232, Note_off_c, 0, 58, 64
2, 38276, Note_on_c, 0, 65, 47
2, 38299, Note_off_c, 0, 68, 64
2, 38314, Note_on_c, 0, 58, 47
2, 38325, Note_off_c, 0, 65, 64
2, 38341, Control_c, 0, 64, 0
2, 38359, Note_on_c, 0, 51, 49
2, 38363, Note_off_c, 0, 58, 64
2, 38365, Note_on_c, 0, 39, 47
2, 38371, Note_off_c, 0, 50, 64
2, 38373, Control_c, 0, 64, 0
2, 38376, Note_off_c, 0, 38, 64
2, 38384, Control_c, 0, 64, 127
2, 38409, Note_on_c, 0, 58, 47
2, 38416, Control_c, 0, 64, 127
2, 38449, Note_on_c, 0, 63, 47
2, 38488, Note_off_c, 0, 58, 64
2, 38496, Note_off_c, 0, 63, 64
2, 38504, Note_on_c, 0, 66, 47
2, 38540, Note_on_c, 0, 63, 47
2, 38550, Note_off_c, 0, 66, 64
2, 38554, Note_off_c, 0, 70, 64
2, 38576, Note_on_c, 0, 58, 47
2, 38594, Note_off_c, 0, 63, 64
2, 38632, Note_off_c, 0, 58, 64
2, 38635, Note_on_c, 0, 42, 48
2, 38640, Note_on_c, 0, 54, 60
2, 38649, Note_off_c, 0, 51, 64
2, 38655, Note_off_c, 0, 39, 64
2, 38686, Note_on_c, 0, 58, 47
2, 38731, Note_on_c, 0, 63, 47
2, 38775, Note_off_c, 0, 63, 64
2, 38777, Note_off_c, 0, 58, 64
2, 38777, Note_on_c, 0, 66, 47
2, 38819, Note_on_c, 0, 63, 47
2, 38826, Note_off_c, 0, 66, 64
2, 38866, Note_on_c, 0, 58, 47
2, 38872, Note_off_c, 0, 63, 64
2, 38898, Control_c, 0, 64, 0
2, 38905, Note_off_c, 0, 42, 64
2, 38910, Note_off_c, 0, 54, 64
2, 38912, Note_off_c, 0, 58, 64
2, 38918, Note_on_c, 0, 36, 64
2, 38918, Note_on_c, 0, 48, 64
2, 38930, Control_c, 0, 64, 0
2, 38942, Control_c, 0, 64, 127
2, 38973, Note_on_c, 0, 56, 47
2, 38974, Control_c, 0, 64, 127
2, 39018, Note_on_c, 0, 63, 47
2, 39059, Note_off_c, 0, 56, 64
2, 39064, Note_on_c, 0, 66, 47
2, 39068, Note_off_c, 0, 63, 64
2, 39104, Note_on_c, 0, 63, 47
2, 39114, Note_off_c, 0, 66, 64
2, 39150, Note_on_c, 0, 56, 47
2, 39167, Note_off_c, 0, 63, 64
2, 39211, Note_on_c, 0, 55, 47
2, 39213, Note_off_c, 0, 56, 64
2, 39243, Note_on_c, 0, 68, 87
2, 39249, Note_on_c, 0, 56, 47
2, 39272, Note_off_c, 0, 55, 64
2, 39293, Note_on_c, 0, 63, 47
2, 39332, Note_off_c, 0, 56, 64
2, 39334, Note_off_c, 0, 63, 64
2, 39349, Note_on_c, 0, 66, 47
2, 39388, Note_on_c, 0, 63, 47
2, 39403, Note_off_c, 0, 66, 64
2, 39432, Note_on_c, 0, 56, 47
2, 39442, Note_off_c, 0, 63, 64
2, 39475, Control_c, 0, 64, 0
2, 39478, Note_off_c, 0, 48, 64
2, 39478, Note_off_c, 0, 36, 64
2, 39495, Note_on_c, 0, 47, 65
2, 39497, Note_off_c, 0, 56, 64
2, 39504, Note_on_c, 0, 35, 65
2, 39507, Control_c, 0, 64, 0
2, 39516, Control_c, 0, 64, 127
2, 39524, Note_on_c, 0, 73, 90
2, 39536, Note_off_c, 0, 68, 64
2, 39548, Control_c, 0, 64, 127
2, 39558, Note_on_c, 0, 56, 47
2, 39608, Note_on_c, 0, 61, 47
2, 39628, Note_off_c, 0, 56, 64
2, 39650, Note_off_c, 0, 61, 64
2, 39654, Note_on_c, 0, 65, 47
2, 39689, Note_on_c, 0, 61, 47
2, 39701, Note_off_c, 0, 65, 64
2, 39725, Note_on_c, 0, 56, 47
2, 39749, Note_off_c, 0, 61, 64
2, 39780, Note_off_c, 0, 56, 64
2, 39787, Note_on_c, 0, 55, 47
2, 39835, Note_on_c, 0, 56, 47
2, 39871, Note_on_c, 0, 61, 47
2, 39902, Note_off_c, 0, 55, 64
2, 39906, Note_off_c, 0, 56, 64
2, 39918, Note_off_c, 0, 61, 64
2, 39948, Note_on_c, 0, 65, 68
2, 39952, Note_on_c, 0, 61, 47
2, 39962, Note_off_c, 0, 73, 64
2, 40008, Note_on_c, 0, 56, 47
2, 40016, Note_off_c, 0, 61, 64
2, 40037, Control_c, 0, 64, 0
2, 40041, Note_off_c, 0, 47, 64
2, 40050, Note_off_c, 0, 35, 64
2, 40054, Note_on_c, 0, 46, 70
2, 40056, Note_on_c, 0, 34, 59
2, 40069, Control_c, 0, 64, 0
2, 40081, Note_off_c, 0, 56, 64
2, 40081, Control_c, 0, 64, 127
2, 40088, Note_on_c, 0, 68, 84
2, 40107, Note_off_c, 0, 65, 64
2, 40108, Note_on_c, 0, 54, 47
2, 40113, Control_c, 0, 64, 127
2, 40143, Note_on_c, 0, 61, 47
2, 40184, Note_on_c, 0, 64, 47
2, 40194, Note_off_c, 0, 61, 64
2, 40195, Note_off_c, 0, 54, 64
2, 40239, Note_on_c, 0, 61, 47
2, 40270, Note_on_c, 0, 54, 47
2, 40288, Note_off_c, 0, 64, 64
2, 40295, Note_off_c, 0, 61, 64
2, 40309, Control_c, 0, 64, 0
2, 40325, Note_on_c, 0, 53, 47
2, 40331, Note_off_c, 0, 54, 64
2, 40341, Control_c, 0, 64, 0
2, 40351, Control_c, 0, 64, 127
2, 40360, Note_on_c, 0, 66, 56
2, 40365, Note_on_c, 0, 54, 47
2, 40383, Control_c, 0, 64, 127
2, 40385, Note_off_c, 0, 68, 64
2, 40405, Note_on_c, 0, 61, 47
2, 40453, Note_on_c, 0, 64, 47
2, 40458, Note_off_c, 0, 61, 64
2, 40467, Note_off_c, 0, 54, 64
2, 40476, Note_off_c, 0, 53, 64
2, 40511, Note_on_c, 0, 61, 47
2, 40523, Note_off_c, 0, 64, 64
2, 40549, Note_on_c, 0, 54, 47
2, 40558, Note_off_c, 0, 66, 64
2, 40571, Note_off_c, 0, 61, 64
2, 40587, Control_c, 0, 64, 0
2, 40607, Note_on_c, 0, 47, 73
2, 40608, Note_on_c, 0, 35, 49
2, 40613, Note_off_c, 0, 54, 64
2, 40614, Note_off_c, 0, 46, 64
2, 40616, Note_off_c, 0, 34, 64
2, 40619, Control_c, 0, 64, 0
2, 40625, Control_c, 0, 64, 127
2, 40649, Note_on_c, 0, 54, 47
2, 40657, Control_c, 0, 64, 127
2, 40696, Note_on_c, 0, 59, 47
2, 40723, Note_off_c, 0, 54, 64
2, 40761, Note_off_c, 0, 59, 64
2, 40766, Note_on_c, 0, 63, 65
2, 40776, Note_on_c, 0, 59, 47
2, 40808, Note_on_c, 0, 54, 47
2, 40833, Note_off_c, 0, 59, 64
2, 40844, Control_c, 0, 64, 0
2, 40871, Note_on_c, 0, 53, 47
2, 40876, Control_c, 0, 64, 0
2, 40881, Control_c, 0, 64, 127
2, 40887, Note_off_c, 0, 54, 64
2, 40892, Note_on_c, 0, 62, 63
2, 40905, Note_on_c, 0, 54, 47
2, 40913, Control_c, 0, 64, 127
2, 40917, Note_off_c, 0, 63, 64
2, 40945, Note_on_c, 0, 59, 47
2, 40960, Note_off_c, 0, 53, 64
2, 40971, Note_off_c, 0, 54, 64
2, 41000, Note_off_c, 0, 59, 64
2, 41024, Note_on_c, 0, 59, 47
2, 41025, Note_on_c, 0, 63, 77
2, 41045, Note_off_c, 0, 62, 64
2, 41072, Note_off_c, 0, 59, 64
2, 41072, Note_on_c, 0, 54, 47
2, 41093, Control_c, 0, 64, 0
2, 41124, Note_on_c, 0, 32, 67
2, 41124, Note_on_c, 0, 44, 75
2, 41125, Control_c, 0, 64, 0
2, 41127, Note_off_c, 0, 47, 64
2, 41128, Note_off_c, 0, 35, 64
2, 41138, Control_c, 0, 64, 127
2, 41156, Note_on_c, 0, 66, 62
2, 41158, Note_off_c, 0, 54, 64
2, 41170, Control_c, 0, 64, 127
2, 41172, Note_on_c, 0, 53, 47
2, 41178, Note_off_c, 0, 63, 64
2, 41217, Note_on_c, 0, 59, 47
2, 41249, Note_off_c, 0, 53, 64
2, 41282, Note_off_c, 0, 59, 64
2, 41304, Note_on_c, 0, 65, 79
2, 41312, Note_on_c, 0, 59, 47
2, 41320, Note_off_c, 0, 66, 64
2, 41348, Note_on_c, 0, 53, 47
2, 41375, Note_off_c, 0, 59, 64
2, 41403, Note_on_c, 0, 52, 39
2, 41418, Note_off_c, 0, 65, 64
2, 41436, Note_on_c, 0, 65, 89
2, 41438, Note_off_c, 0, 53, 64
2, 41446, Note_on_c, 0, 53, 47
2, 41485, Note_on_c, 0, 59, 47
2, 41494, Note_off_c, 0, 52, 64
2, 41519, Note_off_c, 0, 53, 64
2, 41549, Note_off_c, 0, 59, 64
2, 41559, Note_off_c, 0, 65, 64
2, 41567, Note_on_c, 0, 65, 88
2, 41568, Note_on_c, 0, 59, 47
2, 41632, Note_on_c, 0, 53, 47
2, 41634, Note_off_c, 0, 59, 64
2, 41663, Control_c, 0, 64, 0
2, 41672, Note_on_c, 0, 46, 76
2, 41674, Note_off_c, 0, 44, 64
2, 41674, Note_off_c, 0, 32, 64
2, 41676, Note_on_c, 0, 34, 33
2, 41688, Note_off_c, 0, 53, 64
2, 41695, Control_c, 0, 64, 0
2, 41709, Control_c, 0, 64, 127
2, 41712, Note_on_c, 0, 66, 86
2, 41723, Note_on_c, 0, 56, 47
2, 41737, Note_off_c, 0, 65, 64
2, 41741, Control_c, 0, 64, 127
2, 41771, Note_on_c, 0, 58, 47
2, 41811, Note_off_c, 0, 56, 64
2, 41820, Note_on_c, 0, 62, 47
2, 41823, Note_off_c, 0, 58, 64
2, 41858, Note_on_c, 0, 58, 47
2, 41878, Note_off_c, 0, 62, 64
2, 41902, Note_on_c, 0, 56, 47
2, 41925, Note_off_c, 0, 58, 64
2, 41953, Note_on_c, 0, 55, 47
2, 41958, Note_off_c, 0, 56, 64
2, 42003, Note_on_c, 0, 56, 47
2, 42043, Note_on_c, 0, 58, 47
2, 42046, Note_off_c, 0, 55, 64
2, 42066, Note_off_c, 0, 56, 64
2, 42089, Note_off_c, 0, 58, 64
2, 42120, Note_off_c, 0, 66, 64
2, 42127, Note_on_c, 0, 62, 63
2, 42140, Note_on_c, 0, 58, 47
2, 42184, Note_on_c, 0, 56, 47
2, 42207, Control_c, 0, 64, 0
2, 42215, Note_off_c, 0, 58, 64
2, 42221, Note_on_c, 0, 27, 72
2, 42223, Note_on_c, 0, 39, 72
2, 42232, Note_off_c, 0, 46, 64
2, 42236, Note_off_c, 0, 34, 64
2, 42239, Control_c, 0, 64, 0
2, 42240, Note_off_c, 0, 56, 64
2, 42243, Control_c, 0, 64, 127
2, 42263, Note_on_c, 0, 63, 77
2, 42272, Note_on_c, 0, 55, 56
2, 42275, Control_c, 0, 64, 127
2, 42283, Note_off_c, 0, 62, 64
2, 42316, Note_on_c, 0, 58, 56
2, 42343, Note_off_c, 0, 55, 64
2, 42359, Note_on_c, 0, 63, 47
2, 42367, Note_off_c, 0, 58, 64
2, 42379, Note_off_c, 0, 63, 64
2, 42403, Note_on_c, 0, 58, 56
2, 42447, Note_off_c, 0, 63, 64
2, 42448, Note_on_c, 0, 55, 56
2, 42457, Note_off_c, 0, 58, 64
2, 42494, Note_off_c, 0, 55, 64
2, 42505, Note_on_c, 0, 46, 89
2, 42556, Note_on_c, 0, 55, 56
2, 42596, Note_on_c, 0, 58, 56
2, 42632, Note_off_c, 0, 55, 64
2, 42636, Note_on_c, 0, 63, 56
2, 42659, Note_off_c, 0, 58, 64
2, 42680, Note_on_c, 0, 58, 56
2, 42707, Note_off_c, 0, 63, 64
2, 42730, Note_off_c, 0, 58, 64
2, 42740, Note_on_c, 0, 55, 56
2, 42742, Control_c, 0, 64, 0
2, 42774, Control_c, 0, 64, 0
2, 42785, Note_on_c, 0, 51, 90
2, 42791, Note_off_c, 0, 46, 64
2, 42800, Control_c, 0, 64, 127
2, 42805, Note_off_c, 0, 55, 64
2, 42812, Note_off_c, 0, 27, 64
2, 42814, Note_off_c, 0, 39, 64
2, 42831, Note_on_c, 0, 58, 56
2, 42832, Control_c, 0, 64, 127
2, 42868, Note_on_c, 0, 61, 56
2, 42888, Note_off_c, 0, 58, 64
2, 42916, Note_off_c, 0, 61, 64
2, 42923, Note_on_c, 0, 63, 56
2, 42956, Note_on_c, 0, 61, 56
2, 42962, Note_off_c, 0, 63, 64
2, 43000, Note_on_c, 0, 58, 56
2, 43015, Note_off_c, 0, 61, 64
2, 43039, Note_off_c, 0, 58, 64
2, 43076, Note_on_c, 0, 58, 56
2, 43079, Note_on_c, 0, 70, 97
2, 43116, Note_on_c, 0, 61, 56
2, 43148, Note_on_c, 0, 63, 56
2, 43152, Note_on_c, 0, 43, 77
2, 43153, Note_off_c, 0, 58, 64
2, 43161, Note_off_c, 0, 61, 64
2, 43200, Note_on_c, 0, 61, 56
2, 43204, Note_off_c, 0, 63, 64
2, 43232, Note_on_c, 0, 58, 56
2, 43256, Note_off_c, 0, 61, 64
2, 43256, Note_on_c, 0, 32, 100
2, 43264, Note_off_c, 0, 51, 64
2, 43297, Note_off_c, 0, 58, 64
2, 43312, Note_on_c, 0, 46, 85
2, 43320, Note_off_c, 0, 43, 64
2, 43342, Note_on_c, 0, 75, 100
2, 43352, Note_off_c, 0, 70, 64
2, 43387, Note_on_c, 0, 56, 56
2, 43428, Note_on_c, 0, 61, 56
2, 43442, Note_off_c, 0, 56, 64
2, 43468, Note_on_c, 0, 63, 56
2, 43475, Note_off_c, 0, 61, 64
2, 43503, Note_on_c, 0, 61, 56
2, 43512, Note_off_c, 0, 63, 64
2, 43544, Note_on_c, 0, 56, 56
2, 43559, Note_off_c, 0, 61, 64
2, 43593, Note_on_c, 0, 44, 100
2, 43600, Note_off_c, 0, 56, 64
2, 43602, Note_off_c, 0, 46, 64
2, 43643, Note_on_c, 0, 59, 56
2, 43690, Note_on_c, 0, 63, 56
2, 43719, Note_off_c, 0, 59, 64
2, 43748, Note_off_c, 0, 63, 64
2, 43765, Note_on_c, 0, 68, 90
2, 43769, Note_on_c, 0, 63, 56
2, 43770, Note_off_c, 0, 75, 64
2, 43784, Note_off_c, 0, 32, 64
2, 43802, Note_off_c, 0, 63, 64
2, 43805, Note_on_c, 0, 59, 56
2, 43858, Note_off_c, 0, 59, 64
2, 43881, Note_on_c, 0, 29, 87
2, 43911, Note_on_c, 0, 71, 102
2, 43921, Note_off_c, 0, 68, 64
2, 43942, Note_on_c, 0, 59, 56
2, 43976, Note_on_c, 0, 62, 56
2, 43986, Note_off_c, 0, 59, 64
2, 44016, Note_off_c, 0, 62, 64
2, 44022, Note_on_c, 0, 65, 56
2, 44066, Note_on_c, 0, 62, 56
2, 44083, Note_off_c, 0, 65, 64
2, 44104, Note_on_c, 0, 59, 56
2, 44110, Note_off_c, 0, 62, 64
2, 44131, Control_c, 0, 64, 0
2, 44145, Note_off_c, 0, 44, 64
2, 44152, Note_on_c, 0, 34, 90
2, 44157, Note_on_c, 0, 46, 90
2, 44161, Note_off_c, 0, 59, 64
2, 44163, Control_c, 0, 64, 0
2, 44178, Control_c, 0, 64, 127
2, 44187, Note_off_c, 0, 29, 64
2, 44199, Note_on_c, 0, 56, 56
2, 44210, Control_c, 0, 64, 127
2, 44240, Note_on_c, 0, 62, 56
2, 44285, Note_off_c, 0, 56, 64
2, 44296, Note_off_c, 0, 62, 64
2, 44316, Note_on_c, 0, 65, 85
2, 44336, Note_off_c, 0, 71, 64
2, 44336, Note_on_c, 0, 62, 56
2, 44380, Note_on_c, 0, 56, 56
2, 44383, Note_off_c, 0, 62, 64
2, 44414, Control_c, 0, 64, 0
2, 44437, Note_on_c, 0, 39, 83
2, 44442, Note_off_c, 0, 34, 64
2, 44444, Note_on_c, 0, 27, 52
2, 44446, Control_c, 0, 64, 0
2, 44447, Note_off_c, 0, 46, 64
2, 44460, Control_c, 0, 64, 127
2, 44465, Note_on_c, 0, 70, 104
2, 44483, Note_off_c, 0, 56, 64
2, 44484, Note_off_c, 0, 65, 64
2, 44484, Note_on_c, 0, 55, 56
2, 44492, Control_c, 0, 64, 127
2, 44530, Note_on_c, 0, 58, 56
2, 44560, Note_off_c, 0, 55, 64
2, 44571, Note_on_c, 0, 63, 56
2, 44576, Note_off_c, 0, 58, 64
2, 44608, Note_on_c, 0, 58, 56
2, 44654, Note_off_c, 0, 63, 64
2, 44655, Note_on_c, 0, 55, 56
2, 44671, Note_off_c, 0, 58, 64
2, 44691, Control_c, 0, 64, 0
2, 44712, Note_on_c, 0, 34, 90
2, 44716, Note_off_c, 0, 55, 64
2, 44723, Control_c, 0, 64, 0
2, 44746, Control_c, 0, 64, 127
2, 44768, Note_on_c, 0, 55, 56
2, 44772, Note_off_c, 0, 70, 64
2, 44778, Control_c, 0, 64, 127
2, 44798, Note_on_c, 0, 58, 56
2, 44828, Note_off_c, 0, 39, 64
2, 44840, Note_off_c, 0, 27, 64
2, 44848, Note_off_c, 0, 55, 64
2, 44853, Note_on_c, 0, 63, 56
2, 44859, Note_off_c, 0, 58, 64
2, 44890, Note_on_c, 0, 58, 56
2, 44931, Note_off_c, 0, 63, 64
2, 44935, Note_on_c, 0, 55, 56
2, 44944, Control_c, 0, 64, 0
2, 44953, Note_off_c, 0, 58, 64
2, 44976, Control_c, 0, 64, 0
2, 44994, Note_on_c, 0, 39, 107
2, 44997, Note_off_c, 0, 55, 64
2, 45006, Control_c, 0, 64, 127
2, 45010, Note_off_c, 0, 34, 64
2, 45038, Control_c, 0, 64, 127
2, 45044, Note_on_c, 0, 55, 56
2, 45084, Note_on_c, 0, 58, 56
2, 45110, Note_off_c, 0, 55, 64
2, 45128, Note_on_c, 0, 63, 56
2, 45137, Note_off_c, 0, 58, 64
2, 45156, Note_off_c, 0, 39, 64
2, 45164, Note_on_c, 0, 58, 56
2, 45187, Note_off_c, 0, 63, 64
2, 45204, Note_on_c, 0, 55, 56
2, 45218, Note_off_c, 0, 58, 64
2, 45254, Note_off_c, 0, 55, 64
2, 45272, Note_on_c, 0, 46, 85
2, 45322, Note_on_c, 0, 58, 56
2, 45353, Note_on_c, 0, 61, 56
2, 45382, Note_off_c, 0, 58, 64
2, 45404, Note_on_c, 0, 63, 56
2, 45412, Note_off_c, 0, 61, 64
2, 45418, Note_on_c, 0, 31, 90
2, 45449, Note_on_c, 0, 61, 56
2, 45473, Note_off_c, 0, 63, 64
2, 45496, Note_on_c, 0, 58, 56
2, 45528, Note_off_c, 0, 61, 64
2, 45553, Note_off_c, 0, 58, 64
2, 45566, Control_c, 0, 64, 0
2, 45578, Note_off_c, 0, 46, 64
2, 45579, Note_on_c, 0, 51, 85
2, 45582, Note_on_c, 0, 34, 102
2, 45594, Note_off_c, 0, 31, 64
2, 45598, Control_c, 0, 64, 0
2, 45624, Control_c, 0, 64, 127
2, 45628, Note_on_c, 0, 56, 56
2, 45656, Control_c, 0, 64, 127
2, 45670, Note_on_c, 0, 61, 56
2, 45705, Note_off_c, 0, 56, 64
2, 45716, Note_on_c, 0, 63, 56
2, 45722, Note_off_c, 0, 61, 64
2, 45757, Note_on_c, 0, 61, 56
2, 45796, Note_off_c, 0, 63, 64
2, 45807, Note_on_c, 0, 56, 56
2, 45827, Note_off_c, 0, 61, 64
2, 45874, Note_on_c, 0, 32, 97
2, 45878, Note_off_c, 0, 56, 64
2, 45888, Note_off_c, 0, 34, 64
2, 45919, Note_on_c, 0, 56, 56
2, 45960, Note_on_c, 0, 59, 56
2, 46008, Note_on_c, 0, 63, 56
2, 46008, Note_on_c, 0, 44, 85
2, 46010, Note_off_c, 0, 59, 64
2, 46043, Note_off_c, 0, 56, 64
2, 46056, Note_on_c, 0, 59, 56
2, 46110, Note_off_c, 0, 59, 64
2, 46112, Note_on_c, 0, 56, 56
2, 46144, Note_off_c, 0, 63, 64
2, 46154, Note_on_c, 0, 47, 82
2, 46172, Note_off_c, 0, 56, 64
2, 46173, Note_off_c, 0, 44, 64
2, 46200, Note_on_c, 0, 56, 56
2, 46242, Note_off_c, 0, 32, 64
2, 46242, Note_on_c, 0, 59, 56
2, 46290, Note_off_c, 0, 56, 64
2, 46290, Note_on_c, 0, 63, 56
2, 46295, Note_off_c, 0, 59, 64
2, 46328, Note_off_c, 0, 51, 64
2, 46340, Note_on_c, 0, 59, 56
2, 46370, Note_off_c, 0, 63, 64
2, 46376, Note_on_c, 0, 56, 56
2, 46391, Note_off_c, 0, 59, 64
2, 46436, Note_off_c, 0, 56, 64
2, 46440, Note_on_c, 0, 34, 93
2, 46446, Note_off_c, 0, 47, 64
2, 46497, Note_on_c, 0, 56, 56
2, 46536, Note_on_c, 0, 58, 56
2, 46582, Note_off_c, 0, 56, 64
2, 46583, Note_on_c, 0, 46, 85
2, 46585, Note_off_c, 0, 58, 64
2, 46585, Note_on_c, 0, 62, 56
2, 46624, Note_on_c, 0, 58, 56
2, 46671, Note_off_c, 0, 62, 64
2, 46680, Note_on_c, 0, 56, 56
2, 46689, Note_off_c, 0, 58, 64
2, 46713, Control_c, 0, 64, 0
2, 46718, Note_off_c, 0, 34, 64
2, 46723, Note_off_c, 0, 46, 64
2, 46741, Note_on_c, 0, 46, 77
2, 46741, Note_on_c, 0, 39, 73
2, 46745, Control_c, 0, 64, 0
2, 46756, Note_off_c, 0, 56, 64
2, 46769, Control_c, 0, 64, 127
2, 46801, Note_on_c, 0, 55, 56
2, 46801, Control_c, 0, 64, 127
2, 46840, Note_on_c, 0, 58, 56
2, 46866, Note_off_c, 0, 55, 64
2, 46890, Note_on_c, 0, 63, 56
2, 46897, Note_off_c, 0, 58, 64
2, 46931, Note_on_c, 0, 58, 56
2, 46938, Note_off_c, 0, 39, 64
2, 46938, Note_off_c, 0, 46, 64
2, 46976, Note_off_c, 0, 63, 64
2, 46983, Note_on_c, 0, 55, 56
2, 46998, Note_off_c, 0, 58, 64
2, 47034, Note_on_c, 0, 46, 75
2, 47048, Note_off_c, 0, 55, 64
2, 47086, Note_on_c, 0, 55, 56
2, 47136, Note_on_c, 0, 58, 56
2, 47162, Note_off_c, 0, 55, 64
2, 47173, Note_on_c, 0, 63, 56
2, 47201, Note_off_c, 0, 58, 64
2, 47224, Note_on_c, 0, 58, 56
2, 47255, Note_off_c, 0, 63, 64
2, 47274, Note_on_c, 0, 55, 56
2, 47282, Note_off_c, 0, 58, 64
2, 47306, Note_on_c, 0, 51, 66
2, 47315, Note_off_c, 0, 46, 64
2, 47339, Note_off_c, 0, 55, 64
2, 47369, Note_on_c, 0, 55, 56
2, 47408, Note_on_c, 0, 58, 56
2, 47425, Note_off_c, 0, 55, 64
2, 47444, Note_on_c, 0, 63, 56
2, 47454, Note_off_c, 0, 58, 64
2, 47492, Note_on_c, 0, 58, 56
2, 47526, Note_off_c, 0, 63, 64
2, 47532, Note_on_c, 0, 55, 56
2, 47548, Note_off_c, 0, 58, 64
2, 47613, Note_off_c, 0, 55, 64
2, 47632, Note_on_c, 0, 70, 85
2, 47641, Note_on_c, 0, 55, 56
2, 47688, Note_on_c, 0, 58, 56
2, 47728, Note_on_c, 0, 63, 56
2, 47731, Note_off_c, 0, 55, 64
2, 47737, Note_on_c, 0, 43, 77
2, 47751, Note_off_c, 0, 58, 64
2, 47767, Note_on_c, 0, 58, 56
2, 47785, Note_off_c, 0, 63, 64
2, 47821, Note_off_c, 0, 58, 64
2, 47823, Note_on_c, 0, 55, 56
2, 47870, Note_off_c, 0, 55, 64
2, 47874, Note_off_c, 0, 51, 64
2, 47879, Note_on_c, 0, 46, 86
2, 47899, Note_off_c, 0, 43, 64
2, 47914, Note_on_c, 0, 75, 78
2, 47936, Note_on_c, 0, 55, 56
2, 47990, Note_off_c, 0, 55, 64
2, 47996, Note_on_c, 0, 58, 56
2, 48024, Note_off_c, 0, 70, 64
2, 48037, Note_off_c, 0, 58, 64
2, 48040, Note_on_c, 0, 63, 56
2, 48096, Note_on_c, 0, 58, 56
2, 48104, Note_off_c, 0, 63, 64
2, 48136, Note_on_c, 0, 55, 56
2, 48157, Note_off_c, 0, 58, 64
2, 48179, Note_off_c, 0, 55, 64
2, 48187, Note_on_c, 0, 39, 76
2, 48189, Note_off_c, 0, 46, 64
2, 48253, Note_on_c, 0, 55, 56
2, 48287, Note_on_c, 0, 58, 56
2, 48318, Note_off_c, 0, 55, 64
2, 48344, Note_on_c, 0, 63, 63
2, 48352, Note_off_c, 0, 58, 64
2, 48384, Note_on_c, 0, 58, 56
2, 48424, Note_on_c, 0, 55, 56
2, 48433, Note_off_c, 0, 75, 64
2, 48444, Note_off_c, 0, 58, 64
2, 48464, Note_on_c, 0, 43, 76
2, 48487, Note_off_c, 0, 55, 64
2, 48496, Note_on_c, 0, 70, 75
2, 48548, Note_on_c, 0, 55, 56
2, 48620, Note_on_c, 0, 58, 56
2, 48628, Note_off_c, 0, 55, 64
2, 48665, Note_off_c, 0, 63, 64
2, 48676, Note_on_c, 0, 63, 54
2, 48707, Note_off_c, 0, 58, 64
2, 48735, Note_off_c, 0, 63, 64
2, 48736, Note_on_c, 0, 58, 56
2, 48772, Note_off_c, 0, 39, 64
2, 48800, Note_on_c, 0, 55, 56
2, 48823, Note_off_c, 0, 58, 64
2, 48871, Note_off_c, 0, 55, 64
2, 48883, Note_on_c, 0, 34, 76
2, 48944, Note_on_c, 0, 51, 47
2, 48992, Note_on_c, 0, 55, 56
2, 48999, Note_off_c, 0, 43, 64
2, 49028, Note_off_c, 0, 51, 64
2, 49058, Note_off_c, 0, 55, 64
2, 49074, Note_off_c, 0, 70, 64
2, 49081, Note_on_c, 0, 58, 60
2, 49176, Note_on_c, 0, 55, 44
2, 49240, Note_on_c, 0, 51, 32
2, 49304, Note_on_c, 0, 27, 90
2, 49327, Note_on_c, 0, 63, 58
2, 49351, Note_off_c, 0, 58, 64
2, 49384, Control_c, 0, 64, 0
2, 49416, Control_c, 0, 64, 0
2, 49472, Control_c, 0, 64, 127
2, 49504, Control_c, 0, 64, 127
2, 50175, Control_c, 0, 64, 0
2, 50207, Control_c, 0, 64, 0
2, 50323, Note_off_c, 0, 63, 64
2, 50336, Note_off_c, 0, 55, 64
2, 50340, Note_off_c, 0, 51, 64
2, 50348, Note_on_c, 0, 63, 47
2, 50348, Note_on_c, 0, 58, 44
2, 50348, Note_on_c, 0, 46, 36
2, 50352, Note_on_c, 0, 55, 38
2, 50352, Note_on_c, 0, 51, 29
2, 50378, Control_c, 0, 64, 127
2, 50410, Control_c, 0, 64, 127
2, 50827, Note_off_c, 0, 46, 64
2, 50827, Note_off_c, 0, 58, 64
2, 50827, Note_off_c, 0, 63, 64
2, 50831, Note_off_c, 0, 51, 64
2, 50831, Note_off_c, 0, 55, 64
2, 50836, Note_on_c, 0, 63, 44
2, 50840, Note_on_c, 0, 46, 50
2, 50840, Note_on_c, 0, 51, 32
2, 50840, Note_on_c, 0, 55, 38
2, 50840, Note_on_c, 0, 58, 47
2, 51333, Note_off_c, 0, 34, 64
2, 51656, Note_off_c, 0, 63, 64
2, 51660, Note_off_c, 0, 58, 64
2, 51660, Note_off_c, 0, 55, 64
2, 51660, Note_off_c, 0, 51, 64
2, 51660, Note_off_c, 0, 46, 64
2, 51668, Note_on_c, 0, 39, 56
2, 51668, Note_on_c, 0, 46, 45
2, 51668, Note_on_c, 0, 51, 26
2, 51668, Note_on_c, 0, 63, 43
2, 51674, Note_on_c, 0, 55, 37
2, 51674, Note_on_c, 0, 58, 43
2, 51839, Note_off_c, 0, 27, 64
2, 54547, Note_off_c, 0, 58, 64
2, 54553, Note_off_c, 0, 55, 64
2, 54562, Note_off_c, 0, 63, 64
2, 54564, Note_off_c, 0, 46, 64
2, 54568, Note_off_c, 0, 51, 64
2, 54580, Note_off_c, 0, 39, 64
2, 54671, Control_c, 0, 64, 0
2, 54703, Control_c, 0, 64, 0
2, 54703, End_track
3, 0, Start_track
3, 0, Title_t, "Intermezzo Op. 26 No. 4 (from"
3, 0, End_track
4, 0, Start_track
4, 0, Title_t, "Faschingsschwank aus Wien)"
4, 0, End_track
5, 0, Start_track
5, 0, End_track
6, 0, Start_track
6, 0, Title_t, "Realtime performance 06/30/97 "
6, 0, End_track
7, 0, Start_track
7, 0, Title_t, "by Dr. Ron Lubetsky"
7, 0, End_track
8, 0, Start_track
8, 0, Title_t, "Copyright  1997 by "
8, 0, End_track
9, 0, Start_track
9, 0, Title_t, "Ron Lubetsky, M.D."
9, 0, End_track
10, 0, Start_track
10, 0, Title_t, "All Rights Reserved"
10, 0, End_track
11, 0, Start_track
11, 0, End_track
12, 0, Start_track
12, 0, Title_t, "Email: drlubetsky@aol.com"
12, 0, End_track
13, 0, Start_track
13, 0, Title_t, "Internet: "
13, 0, End_track
14, 0, Start_track
14, 0, Title_t, "'Realtime Piano Sequences'"
14, 0, End_track
15, 0, Start_track
15, 0, Title_t, "http://"
15, 0, End_track
16, 0, Start_track
16, 0, Title_t, "members.aol.com/drlubetsky"
16, 0, End_track
0, 0, End_of_file
