0, 0, Header, 0, 1, 384
1, 0, Start_track
1, 0, Tempo, 512820
1, 0, Title_t, "Kinderszenen OpuKuriose Geschich"
1, 0, Program_c, 0, 0
1, 0, Control_c, 0, 7, 100
1, 3, Control_c, 0, 10, 64
1, 3, Control_c, 0, 91, 127
1, 3, Program_c, 0, 0
1, 6, Control_c, 0, 7, 100
1, 6, Control_c, 0, 10, 64
1, 6, Control_c, 0, 64, 0
1, 667, Control_c, 0, 91, 127
1, 667, Control_c, 0, 91, 127
1, 748, Note_on_c, 0, 66, 80
1, 748, Note_on_c, 0, 50, 66
1, 748, Note_on_c, 0, 57, 66
1, 751, Control_c, 0, 64, 127
1, 999, Note_on_c, 0, 66, 0
1, 999, Note_on_c, 0, 71, 65
1, 1038, Note_on_c, 0, 69, 71
1, 1038, Note_on_c, 0, 71, 0
1, 1078, Note_on_c, 0, 69, 0
1, 1078, Note_on_c, 0, 61, 80
1, 1078, Note_on_c, 0, 67, 80
1, 1078, Note_on_c, 0, 57, 0
1, 1078, Note_on_c, 0, 50, 0
1, 1078, Note_on_c, 0, 57, 72
1, 1078, Note_on_c, 0, 52, 72
1, 1125, Control_c, 0, 64, 0
1, 1160, Note_on_c, 0, 67, 0
1, 1160, Note_on_c, 0, 61, 0
1, 1160, Note_on_c, 0, 52, 0
1, 1163, Note_on_c, 0, 57, 0
1, 1322, Note_on_c, 0, 61, 73
1, 1322, Note_on_c, 0, 66, 73
1, 1322, Note_on_c, 0, 51, 61
1, 1325, Note_on_c, 0, 57, 61
1, 1401, Note_on_c, 0, 66, 0
1, 1401, Note_on_c, 0, 61, 0
1, 1401, Note_on_c, 0, 67, 77
1, 1404, Note_on_c, 0, 61, 77
1, 1404, Note_on_c, 0, 57, 0
1, 1404, Note_on_c, 0, 51, 0
1, 1407, Note_on_c, 0, 52, 66
1, 1407, Note_on_c, 0, 57, 66
1, 1560, Note_on_c, 0, 61, 0
1, 1560, Note_on_c, 0, 67, 0
1, 1560, Note_on_c, 0, 57, 0
1, 1563, Note_on_c, 0, 52, 0
1, 1736, Note_on_c, 0, 61, 80
1, 1736, Note_on_c, 0, 71, 80
1, 1736, Note_on_c, 0, 57, 71
1, 1739, Note_on_c, 0, 55, 71
1, 1748, Control_c, 0, 64, 127
1, 2067, Note_on_c, 0, 71, 0
1, 2067, Note_on_c, 0, 61, 0
1, 2067, Note_on_c, 0, 69, 82
1, 2070, Note_on_c, 0, 62, 82
1, 2070, Note_on_c, 0, 55, 0
1, 2070, Note_on_c, 0, 57, 0
1, 2073, Note_on_c, 0, 54, 71
1, 2073, Note_on_c, 0, 57, 71
1, 2141, Control_c, 0, 64, 0
1, 2148, Note_on_c, 0, 57, 0
1, 2148, Note_on_c, 0, 54, 0
1, 2311, Note_on_c, 0, 57, 63
1, 2311, Note_on_c, 0, 53, 63
1, 2390, Note_on_c, 0, 53, 0
1, 2390, Note_on_c, 0, 57, 0
1, 2390, Note_on_c, 0, 57, 67
1, 2393, Note_on_c, 0, 54, 67
1, 2548, Note_on_c, 0, 54, 0
1, 2548, Note_on_c, 0, 57, 0
1, 2714, Note_on_c, 0, 62, 0
1, 2714, Note_on_c, 0, 69, 0
1, 2714, Note_on_c, 0, 74, 82
1, 2717, Note_on_c, 0, 69, 82
1, 2717, Note_on_c, 0, 57, 71
1, 2717, Note_on_c, 0, 54, 71
1, 2726, Control_c, 0, 64, 127
1, 3045, Note_on_c, 0, 69, 0
1, 3045, Note_on_c, 0, 74, 0
1, 3045, Note_on_c, 0, 73, 82
1, 3048, Note_on_c, 0, 67, 82
1, 3048, Note_on_c, 0, 54, 0
1, 3048, Note_on_c, 0, 57, 0
1, 3051, Note_on_c, 0, 52, 71
1, 3051, Note_on_c, 0, 57, 71
1, 3097, Control_c, 0, 64, 0
1, 3126, Note_on_c, 0, 67, 0
1, 3126, Note_on_c, 0, 73, 0
1, 3126, Note_on_c, 0, 57, 0
1, 3129, Note_on_c, 0, 52, 0
1, 3288, Note_on_c, 0, 66, 72
1, 3288, Note_on_c, 0, 71, 72
1, 3288, Note_on_c, 0, 57, 67
1, 3291, Note_on_c, 0, 50, 67
1, 3367, Note_on_c, 0, 71, 0
1, 3367, Note_on_c, 0, 66, 0
1, 3367, Note_on_c, 0, 69, 77
1, 3370, Note_on_c, 0, 64, 77
1, 3370, Note_on_c, 0, 50, 0
1, 3370, Note_on_c, 0, 57, 0
1, 3373, Note_on_c, 0, 57, 72
1, 3373, Note_on_c, 0, 49, 72
1, 3525, Note_on_c, 0, 64, 0
1, 3525, Note_on_c, 0, 69, 0
1, 3525, Note_on_c, 0, 49, 0
1, 3528, Note_on_c, 0, 57, 0
1, 3705, Note_on_c, 0, 79, 86
1, 3705, Note_on_c, 0, 67, 86
1, 3705, Note_on_c, 0, 69, 86
1, 3708, Note_on_c, 0, 45, 79
1, 3708, Note_on_c, 0, 57, 79
1, 3708, Control_c, 0, 64, 127
1, 4039, Note_on_c, 0, 69, 0
1, 4039, Note_on_c, 0, 67, 0
1, 4039, Note_on_c, 0, 79, 0
1, 4042, Note_on_c, 0, 66, 86
1, 4042, Note_on_c, 0, 74, 86
1, 4042, Note_on_c, 0, 78, 86
1, 4045, Note_on_c, 0, 57, 0
1, 4045, Note_on_c, 0, 45, 0
1, 4045, Note_on_c, 0, 57, 75
1, 4048, Note_on_c, 0, 50, 75
1, 4088, Control_c, 0, 64, 0
1, 4121, Note_on_c, 0, 78, 0
1, 4121, Note_on_c, 0, 74, 0
1, 4121, Note_on_c, 0, 66, 0
1, 4124, Note_on_c, 0, 50, 0
1, 4124, Note_on_c, 0, 57, 0
1, 4284, Note_on_c, 0, 67, 76
1, 4284, Note_on_c, 0, 76, 76
1, 4284, Note_on_c, 0, 73, 76
1, 4287, Note_on_c, 0, 52, 72
1, 4287, Note_on_c, 0, 57, 72
1, 4363, Note_on_c, 0, 73, 0
1, 4363, Note_on_c, 0, 76, 0
1, 4363, Note_on_c, 0, 67, 0
1, 4366, Note_on_c, 0, 69, 72
1, 4366, Note_on_c, 0, 74, 72
1, 4366, Note_on_c, 0, 57, 0
1, 4369, Note_on_c, 0, 52, 0
1, 4369, Note_on_c, 0, 57, 68
1, 4369, Note_on_c, 0, 54, 68
1, 4521, Note_on_c, 0, 74, 0
1, 4521, Note_on_c, 0, 69, 0
1, 4521, Note_on_c, 0, 54, 0
1, 4524, Note_on_c, 0, 57, 0
1, 4687, Note_on_c, 0, 66, 75
1, 4687, Note_on_c, 0, 50, 65
1, 4687, Note_on_c, 0, 57, 65
1, 4690, Control_c, 0, 64, 127
1, 4935, Note_on_c, 0, 66, 0
1, 4935, Note_on_c, 0, 71, 65
1, 4974, Note_on_c, 0, 69, 71
1, 4974, Note_on_c, 0, 71, 0
1, 5013, Note_on_c, 0, 69, 0
1, 5013, Note_on_c, 0, 67, 79
1, 5013, Note_on_c, 0, 61, 79
1, 5013, Note_on_c, 0, 57, 0
1, 5013, Note_on_c, 0, 50, 0
1, 5013, Note_on_c, 0, 52, 72
1, 5013, Note_on_c, 0, 57, 72
1, 5063, Control_c, 0, 64, 0
1, 5134, Note_on_c, 0, 61, 0
1, 5134, Note_on_c, 0, 67, 0
1, 5134, Note_on_c, 0, 57, 0
1, 5137, Note_on_c, 0, 52, 0
1, 5254, Note_on_c, 0, 66, 73
1, 5254, Note_on_c, 0, 61, 73
1, 5254, Note_on_c, 0, 57, 68
1, 5257, Note_on_c, 0, 51, 68
1, 5332, Note_on_c, 0, 61, 0
1, 5332, Note_on_c, 0, 66, 0
1, 5332, Note_on_c, 0, 67, 79
1, 5335, Note_on_c, 0, 61, 79
1, 5335, Note_on_c, 0, 51, 0
1, 5335, Note_on_c, 0, 57, 0
1, 5338, Note_on_c, 0, 57, 72
1, 5338, Note_on_c, 0, 52, 72
1, 5489, Note_on_c, 0, 61, 0
1, 5489, Note_on_c, 0, 67, 0
1, 5489, Note_on_c, 0, 52, 0
1, 5492, Note_on_c, 0, 57, 0
1, 5666, Note_on_c, 0, 61, 82
1, 5666, Note_on_c, 0, 71, 82
1, 5666, Note_on_c, 0, 55, 75
1, 5669, Note_on_c, 0, 57, 75
1, 5682, Control_c, 0, 64, 127
1, 5998, Note_on_c, 0, 71, 0
1, 5998, Note_on_c, 0, 61, 0
1, 5998, Note_on_c, 0, 62, 82
1, 6001, Note_on_c, 0, 69, 82
1, 6001, Note_on_c, 0, 57, 0
1, 6001, Note_on_c, 0, 55, 0
1, 6004, Note_on_c, 0, 57, 75
1, 6004, Note_on_c, 0, 54, 75
1, 6036, Control_c, 0, 64, 0
1, 6120, Note_on_c, 0, 54, 0
1, 6120, Note_on_c, 0, 57, 0
1, 6242, Note_on_c, 0, 53, 70
1, 6242, Note_on_c, 0, 57, 70
1, 6321, Note_on_c, 0, 57, 0
1, 6321, Note_on_c, 0, 53, 0
1, 6321, Note_on_c, 0, 57, 75
1, 6324, Note_on_c, 0, 54, 75
1, 6480, Note_on_c, 0, 54, 0
1, 6480, Note_on_c, 0, 57, 0
1, 6652, Note_on_c, 0, 69, 0
1, 6652, Note_on_c, 0, 62, 0
1, 6652, Note_on_c, 0, 74, 77
1, 6655, Note_on_c, 0, 69, 77
1, 6655, Note_on_c, 0, 57, 67
1, 6655, Note_on_c, 0, 54, 67
1, 6814, Note_on_c, 0, 57, 0
1, 6814, Note_on_c, 0, 59, 63
1, 6896, Note_on_c, 0, 74, 0
1, 6896, Note_on_c, 0, 73, 72
1, 6979, Note_on_c, 0, 73, 0
1, 6979, Note_on_c, 0, 69, 0
1, 6979, Note_on_c, 0, 73, 77
1, 6982, Note_on_c, 0, 69, 77
1, 6982, Note_on_c, 0, 59, 0
1, 6982, Note_on_c, 0, 54, 0
1, 6985, Note_on_c, 0, 52, 62
1, 6985, Note_on_c, 0, 61, 62
1, 7146, Note_on_c, 0, 73, 0
1, 7146, Note_on_c, 0, 74, 70
1, 7146, Note_on_c, 0, 61, 0
1, 7149, Note_on_c, 0, 62, 65
1, 7313, Note_on_c, 0, 74, 0
1, 7313, Note_on_c, 0, 76, 73
1, 7313, Note_on_c, 0, 62, 0
1, 7316, Note_on_c, 0, 52, 0
1, 7316, Note_on_c, 0, 64, 66
1, 7476, Note_on_c, 0, 76, 0
1, 7476, Note_on_c, 0, 78, 77
1, 7476, Note_on_c, 0, 64, 0
1, 7479, Note_on_c, 0, 66, 68
1, 7639, Note_on_c, 0, 78, 0
1, 7639, Note_on_c, 0, 69, 0
1, 7639, Note_on_c, 0, 78, 80
1, 7642, Note_on_c, 0, 74, 58
1, 7642, Note_on_c, 0, 66, 0
1, 7642, Note_on_c, 0, 66, 71
1, 7645, Note_on_c, 0, 64, 58
1, 7920, Note_on_c, 0, 78, 0
1, 7920, Note_on_c, 0, 80, 71
1, 7920, Note_on_c, 0, 66, 0
1, 7923, Note_on_c, 0, 68, 62
1, 8032, Note_on_c, 0, 80, 0
1, 8032, Note_on_c, 0, 80, 66
1, 8032, Note_on_c, 0, 68, 0
1, 8035, Control_c, 0, 64, 127
1, 8035, Note_on_c, 0, 68, 58
1, 8356, Control_c, 0, 64, 0
1, 8406, Note_on_c, 0, 80, 0
1, 8406, Note_on_c, 0, 74, 0
1, 8406, Note_on_c, 0, 81, 59
1, 8409, Note_on_c, 0, 73, 52
1, 8409, Note_on_c, 0, 68, 0
1, 8409, Note_on_c, 0, 64, 0
1, 8412, Note_on_c, 0, 57, 48
1, 8412, Note_on_c, 0, 69, 48
1, 8704, Note_on_c, 0, 73, 0
1, 8704, Note_on_c, 0, 81, 0
1, 8704, Note_on_c, 0, 69, 0
1, 8707, Note_on_c, 0, 57, 0
1, 8804, Control_c, 0, 91, 127
1, 8804, Note_on_c, 0, 66, 76
1, 8804, Control_c, 0, 64, 127
1, 8807, Control_c, 0, 91, 127
1, 8807, Note_on_c, 0, 50, 65
1, 8807, Note_on_c, 0, 57, 65
1, 9055, Note_on_c, 0, 66, 0
1, 9055, Note_on_c, 0, 71, 65
1, 9095, Note_on_c, 0, 71, 0
1, 9095, Note_on_c, 0, 69, 71
1, 9134, Note_on_c, 0, 69, 0
1, 9134, Note_on_c, 0, 61, 81
1, 9134, Note_on_c, 0, 67, 81
1, 9137, Note_on_c, 0, 57, 0
1, 9137, Note_on_c, 0, 50, 0
1, 9137, Note_on_c, 0, 52, 75
1, 9140, Note_on_c, 0, 57, 75
1, 9181, Control_c, 0, 64, 0
1, 9216, Note_on_c, 0, 67, 0
1, 9216, Note_on_c, 0, 61, 0
1, 9216, Note_on_c, 0, 57, 0
1, 9219, Note_on_c, 0, 52, 0
1, 9378, Note_on_c, 0, 61, 72
1, 9378, Note_on_c, 0, 66, 72
1, 9378, Note_on_c, 0, 51, 70
1, 9381, Note_on_c, 0, 57, 70
1, 9456, Note_on_c, 0, 66, 0
1, 9456, Note_on_c, 0, 61, 0
1, 9456, Note_on_c, 0, 61, 77
1, 9459, Note_on_c, 0, 67, 77
1, 9459, Note_on_c, 0, 57, 0
1, 9459, Note_on_c, 0, 51, 0
1, 9462, Note_on_c, 0, 52, 73
1, 9462, Note_on_c, 0, 57, 73
1, 9613, Note_on_c, 0, 67, 0
1, 9613, Note_on_c, 0, 61, 0
1, 9613, Note_on_c, 0, 57, 0
1, 9616, Note_on_c, 0, 52, 0
1, 9789, Note_on_c, 0, 61, 81
1, 9789, Note_on_c, 0, 71, 81
1, 9789, Note_on_c, 0, 55, 73
1, 9792, Note_on_c, 0, 57, 73
1, 9809, Control_c, 0, 64, 127
1, 10120, Note_on_c, 0, 71, 0
1, 10120, Note_on_c, 0, 61, 0
1, 10120, Note_on_c, 0, 62, 81
1, 10123, Note_on_c, 0, 69, 81
1, 10123, Note_on_c, 0, 57, 0
1, 10123, Note_on_c, 0, 55, 0
1, 10126, Note_on_c, 0, 54, 73
1, 10126, Note_on_c, 0, 57, 73
1, 10170, Control_c, 0, 64, 0
1, 10201, Note_on_c, 0, 57, 0
1, 10201, Note_on_c, 0, 54, 0
1, 10364, Note_on_c, 0, 53, 68
1, 10364, Note_on_c, 0, 57, 68
1, 10443, Note_on_c, 0, 57, 0
1, 10443, Note_on_c, 0, 53, 0
1, 10443, Note_on_c, 0, 54, 73
1, 10446, Note_on_c, 0, 57, 73
1, 10601, Note_on_c, 0, 57, 0
1, 10601, Note_on_c, 0, 54, 0
1, 10767, Note_on_c, 0, 69, 0
1, 10767, Note_on_c, 0, 62, 0
1, 10767, Note_on_c, 0, 69, 82
1, 10770, Note_on_c, 0, 74, 82
1, 10770, Control_c, 0, 64, 127
1, 10770, Note_on_c, 0, 54, 72
1, 10773, Note_on_c, 0, 57, 72
1, 11097, Note_on_c, 0, 74, 0
1, 11097, Note_on_c, 0, 69, 0
1, 11097, Note_on_c, 0, 67, 82
1, 11100, Note_on_c, 0, 73, 82
1, 11100, Note_on_c, 0, 57, 0
1, 11100, Note_on_c, 0, 54, 0
1, 11103, Note_on_c, 0, 52, 72
1, 11103, Note_on_c, 0, 57, 72
1, 11135, Control_c, 0, 64, 0
1, 11179, Note_on_c, 0, 73, 0
1, 11179, Note_on_c, 0, 67, 0
1, 11179, Note_on_c, 0, 57, 0
1, 11182, Note_on_c, 0, 52, 0
1, 11341, Note_on_c, 0, 66, 73
1, 11341, Note_on_c, 0, 71, 73
1, 11341, Note_on_c, 0, 50, 68
1, 11344, Note_on_c, 0, 57, 68
1, 11420, Note_on_c, 0, 71, 0
1, 11420, Note_on_c, 0, 66, 0
1, 11420, Note_on_c, 0, 64, 77
1, 11423, Note_on_c, 0, 69, 77
1, 11423, Note_on_c, 0, 57, 0
1, 11423, Note_on_c, 0, 50, 0
1, 11426, Note_on_c, 0, 49, 73
1, 11426, Note_on_c, 0, 57, 73
1, 11577, Note_on_c, 0, 69, 0
1, 11577, Note_on_c, 0, 64, 0
1, 11577, Note_on_c, 0, 57, 0
1, 11580, Note_on_c, 0, 49, 0
1, 11762, Note_on_c, 0, 67, 88
1, 11762, Note_on_c, 0, 69, 88
1, 11762, Note_on_c, 0, 79, 88
1, 11765, Note_on_c, 0, 45, 77
1, 11765, Note_on_c, 0, 57, 77
1, 11777, Control_c, 0, 64, 127
1, 12096, Note_on_c, 0, 79, 0
1, 12096, Note_on_c, 0, 69, 0
1, 12096, Note_on_c, 0, 67, 0
1, 12099, Note_on_c, 0, 66, 88
1, 12099, Note_on_c, 0, 74, 88
1, 12099, Note_on_c, 0, 78, 88
1, 12102, Note_on_c, 0, 57, 0
1, 12102, Note_on_c, 0, 45, 0
1, 12102, Note_on_c, 0, 50, 73
1, 12105, Note_on_c, 0, 57, 73
1, 12137, Control_c, 0, 64, 0
1, 12178, Note_on_c, 0, 78, 0
1, 12178, Note_on_c, 0, 74, 0
1, 12178, Note_on_c, 0, 66, 0
1, 12181, Note_on_c, 0, 57, 0
1, 12181, Note_on_c, 0, 50, 0
1, 12341, Note_on_c, 0, 67, 77
1, 12341, Note_on_c, 0, 73, 77
1, 12341, Note_on_c, 0, 76, 77
1, 12344, Note_on_c, 0, 52, 71
1, 12344, Note_on_c, 0, 57, 71
1, 12419, Note_on_c, 0, 76, 0
1, 12419, Note_on_c, 0, 73, 0
1, 12419, Note_on_c, 0, 67, 0
1, 12422, Note_on_c, 0, 69, 73
1, 12422, Note_on_c, 0, 74, 73
1, 12422, Note_on_c, 0, 57, 0
1, 12425, Note_on_c, 0, 52, 0
1, 12425, Note_on_c, 0, 54, 71
1, 12425, Note_on_c, 0, 57, 71
1, 12576, Note_on_c, 0, 74, 0
1, 12576, Note_on_c, 0, 69, 0
1, 12576, Note_on_c, 0, 57, 0
1, 12579, Note_on_c, 0, 54, 0
1, 12741, Note_on_c, 0, 66, 76
1, 12741, Note_on_c, 0, 50, 67
1, 12741, Note_on_c, 0, 57, 67
1, 12761, Control_c, 0, 64, 127
1, 12989, Note_on_c, 0, 66, 0
1, 12989, Note_on_c, 0, 71, 65
1, 13028, Note_on_c, 0, 69, 71
1, 13028, Note_on_c, 0, 71, 0
1, 13067, Note_on_c, 0, 69, 0
1, 13067, Note_on_c, 0, 61, 84
1, 13067, Note_on_c, 0, 67, 84
1, 13067, Note_on_c, 0, 57, 0
1, 13067, Note_on_c, 0, 50, 0
1, 13067, Note_on_c, 0, 52, 72
1, 13067, Note_on_c, 0, 57, 72
1, 13141, Control_c, 0, 64, 0
1, 13188, Note_on_c, 0, 67, 0
1, 13188, Note_on_c, 0, 61, 0
1, 13188, Note_on_c, 0, 57, 0
1, 13191, Note_on_c, 0, 52, 0
1, 13308, Note_on_c, 0, 61, 73
1, 13308, Note_on_c, 0, 66, 73
1, 13308, Note_on_c, 0, 51, 68
1, 13311, Note_on_c, 0, 57, 68
1, 13386, Note_on_c, 0, 66, 0
1, 13386, Note_on_c, 0, 61, 0
1, 13386, Note_on_c, 0, 61, 77
1, 13389, Note_on_c, 0, 67, 77
1, 13389, Note_on_c, 0, 57, 0
1, 13389, Note_on_c, 0, 51, 0
1, 13392, Note_on_c, 0, 52, 71
1, 13392, Note_on_c, 0, 57, 71
1, 13542, Note_on_c, 0, 67, 0
1, 13542, Note_on_c, 0, 61, 0
1, 13542, Note_on_c, 0, 57, 0
1, 13545, Note_on_c, 0, 52, 0
1, 13722, Note_on_c, 0, 61, 81
1, 13722, Note_on_c, 0, 71, 81
1, 13722, Note_on_c, 0, 55, 72
1, 13725, Note_on_c, 0, 57, 72
1, 13742, Control_c, 0, 64, 127
1, 14053, Note_on_c, 0, 71, 0
1, 14053, Note_on_c, 0, 61, 0
1, 14053, Note_on_c, 0, 62, 81
1, 14056, Note_on_c, 0, 69, 81
1, 14056, Note_on_c, 0, 57, 0
1, 14056, Note_on_c, 0, 55, 0
1, 14059, Note_on_c, 0, 54, 72
1, 14059, Note_on_c, 0, 57, 72
1, 14123, Control_c, 0, 64, 0
1, 14176, Note_on_c, 0, 57, 0
1, 14176, Note_on_c, 0, 54, 0
1, 14298, Note_on_c, 0, 53, 70
1, 14298, Note_on_c, 0, 57, 70
1, 14377, Note_on_c, 0, 57, 0
1, 14377, Note_on_c, 0, 53, 0
1, 14377, Note_on_c, 0, 54, 75
1, 14380, Note_on_c, 0, 57, 75
1, 14534, Note_on_c, 0, 57, 0
1, 14534, Note_on_c, 0, 54, 0
1, 14706, Note_on_c, 0, 69, 0
1, 14706, Note_on_c, 0, 62, 0
1, 14706, Note_on_c, 0, 74, 77
1, 14709, Note_on_c, 0, 69, 77
1, 14709, Note_on_c, 0, 57, 67
1, 14709, Note_on_c, 0, 54, 67
1, 14869, Note_on_c, 0, 57, 0
1, 14869, Note_on_c, 0, 59, 63
1, 14950, Note_on_c, 0, 74, 0
1, 14950, Note_on_c, 0, 73, 72
1, 15033, Note_on_c, 0, 73, 0
1, 15033, Note_on_c, 0, 69, 0
1, 15033, Note_on_c, 0, 73, 77
1, 15036, Note_on_c, 0, 69, 77
1, 15036, Note_on_c, 0, 59, 0
1, 15036, Note_on_c, 0, 54, 0
1, 15039, Note_on_c, 0, 61, 62
1, 15039, Note_on_c, 0, 52, 62
1, 15201, Note_on_c, 0, 73, 0
1, 15201, Note_on_c, 0, 74, 70
1, 15201, Note_on_c, 0, 61, 0
1, 15204, Note_on_c, 0, 62, 65
1, 15368, Note_on_c, 0, 74, 0
1, 15368, Note_on_c, 0, 76, 73
1, 15368, Note_on_c, 0, 62, 0
1, 15371, Note_on_c, 0, 52, 0
1, 15371, Note_on_c, 0, 64, 66
1, 15531, Note_on_c, 0, 76, 0
1, 15531, Note_on_c, 0, 78, 77
1, 15531, Note_on_c, 0, 64, 0
1, 15534, Note_on_c, 0, 66, 68
1, 15694, Note_on_c, 0, 78, 0
1, 15694, Note_on_c, 0, 69, 0
1, 15694, Note_on_c, 0, 74, 58
1, 15697, Note_on_c, 0, 78, 80
1, 15697, Note_on_c, 0, 66, 0
1, 15697, Note_on_c, 0, 64, 58
1, 15700, Note_on_c, 0, 66, 71
1, 15996, Note_on_c, 0, 78, 0
1, 15996, Note_on_c, 0, 80, 71
1, 15996, Note_on_c, 0, 66, 0
1, 15999, Note_on_c, 0, 68, 62
1, 16108, Note_on_c, 0, 80, 0
1, 16108, Note_on_c, 0, 80, 66
1, 16108, Note_on_c, 0, 68, 0
1, 16111, Control_c, 0, 64, 127
1, 16111, Note_on_c, 0, 68, 58
1, 16447, Control_c, 0, 64, 0
1, 16491, Note_on_c, 0, 80, 0
1, 16491, Note_on_c, 0, 74, 0
1, 16491, Note_on_c, 0, 73, 52
1, 16494, Note_on_c, 0, 81, 59
1, 16494, Note_on_c, 0, 68, 0
1, 16494, Note_on_c, 0, 64, 0
1, 16497, Note_on_c, 0, 69, 48
1, 16497, Note_on_c, 0, 57, 48
1, 16779, Note_on_c, 0, 81, 0
1, 16779, Note_on_c, 0, 73, 0
1, 16779, Note_on_c, 0, 57, 0
1, 16782, Note_on_c, 0, 69, 0
1, 16875, Note_on_c, 0, 72, 53
1, 16875, Note_on_c, 0, 76, 53
1, 16875, Note_on_c, 0, 57, 53
1, 16878, Note_on_c, 0, 64, 53
1, 17053, Note_on_c, 0, 76, 0
1, 17053, Note_on_c, 0, 78, 53
1, 17053, Note_on_c, 0, 64, 0
1, 17056, Note_on_c, 0, 66, 53
1, 17229, Note_on_c, 0, 78, 0
1, 17229, Note_on_c, 0, 72, 0
1, 17229, Note_on_c, 0, 71, 52
1, 17232, Note_on_c, 0, 79, 58
1, 17232, Note_on_c, 0, 66, 0
1, 17232, Note_on_c, 0, 57, 0
1, 17235, Note_on_c, 0, 59, 52
1, 17235, Note_on_c, 0, 67, 57
1, 17408, Note_on_c, 0, 79, 0
1, 17408, Note_on_c, 0, 81, 53
1, 17408, Note_on_c, 0, 67, 0
1, 17411, Note_on_c, 0, 69, 53
1, 17583, Note_on_c, 0, 81, 0
1, 17583, Note_on_c, 0, 79, 53
1, 17583, Note_on_c, 0, 69, 0
1, 17586, Note_on_c, 0, 67, 53
1, 17759, Note_on_c, 0, 79, 0
1, 17759, Note_on_c, 0, 78, 53
1, 17759, Note_on_c, 0, 67, 0
1, 17762, Note_on_c, 0, 66, 50
1, 17931, Note_on_c, 0, 78, 0
1, 17931, Note_on_c, 0, 71, 0
1, 17931, Note_on_c, 0, 75, 52
1, 17934, Note_on_c, 0, 79, 56
1, 17934, Note_on_c, 0, 66, 0
1, 17934, Note_on_c, 0, 59, 0
1, 17937, Note_on_c, 0, 59, 52
1, 17937, Note_on_c, 0, 67, 53
1, 18104, Note_on_c, 0, 79, 0
1, 18104, Note_on_c, 0, 78, 58
1, 18104, Note_on_c, 0, 67, 0
1, 18107, Note_on_c, 0, 66, 57
1, 18285, Note_on_c, 0, 78, 0
1, 18285, Note_on_c, 0, 75, 0
1, 18285, Note_on_c, 0, 72, 61
1, 18288, Note_on_c, 0, 76, 61
1, 18288, Note_on_c, 0, 66, 0
1, 18288, Note_on_c, 0, 59, 0
1, 18291, Note_on_c, 0, 60, 59
1, 18291, Note_on_c, 0, 64, 59
1, 18457, Note_on_c, 0, 60, 0
1, 18457, Note_on_c, 0, 59, 56
1, 18630, Note_on_c, 0, 59, 0
1, 18630, Note_on_c, 0, 57, 54
1, 18803, Note_on_c, 0, 57, 0
1, 18803, Note_on_c, 0, 55, 53
1, 18976, Note_on_c, 0, 76, 0
1, 18976, Note_on_c, 0, 72, 0
1, 18976, Note_on_c, 0, 69, 57
1, 18979, Note_on_c, 0, 74, 57
1, 18979, Note_on_c, 0, 55, 0
1, 18979, Note_on_c, 0, 64, 0
1, 18982, Note_on_c, 0, 55, 57
1, 18982, Note_on_c, 0, 62, 57
1, 19153, Note_on_c, 0, 74, 0
1, 19153, Note_on_c, 0, 72, 56
1, 19153, Note_on_c, 0, 55, 0
1, 19156, Note_on_c, 0, 54, 56
1, 19330, Note_on_c, 0, 72, 0
1, 19330, Note_on_c, 0, 69, 0
1, 19330, Note_on_c, 0, 67, 53
1, 19333, Note_on_c, 0, 71, 53
1, 19333, Note_on_c, 0, 54, 0
1, 19333, Note_on_c, 0, 55, 56
1, 19506, Note_on_c, 0, 55, 0
1, 19506, Note_on_c, 0, 54, 54
1, 19683, Note_on_c, 0, 71, 0
1, 19683, Note_on_c, 0, 67, 0
1, 19683, Note_on_c, 0, 67, 57
1, 19686, Note_on_c, 0, 72, 57
1, 19686, Note_on_c, 0, 54, 0
1, 19686, Note_on_c, 0, 62, 0
1, 19689, Note_on_c, 0, 52, 53
1, 19689, Note_on_c, 0, 60, 53
1, 19867, Note_on_c, 0, 67, 0
1, 19867, Note_on_c, 0, 69, 56
1, 19867, Note_on_c, 0, 52, 0
1, 19870, Note_on_c, 0, 54, 52
1, 20050, Note_on_c, 0, 69, 0
1, 20050, Note_on_c, 0, 72, 0
1, 20050, Note_on_c, 0, 62, 54
1, 20053, Note_on_c, 0, 69, 54
1, 20053, Note_on_c, 0, 71, 54
1, 20053, Note_on_c, 0, 54, 0
1, 20056, Note_on_c, 0, 60, 0
1, 20056, Note_on_c, 0, 55, 53
1, 20056, Note_on_c, 0, 59, 53
1, 20233, Note_on_c, 0, 69, 0
1, 20233, Note_on_c, 0, 62, 0
1, 20233, Note_on_c, 0, 67, 53
1, 20236, Note_on_c, 0, 55, 0
1, 20236, Note_on_c, 0, 50, 53
1, 20423, Note_on_c, 0, 67, 0
1, 20423, Note_on_c, 0, 71, 0
1, 20423, Note_on_c, 0, 62, 48
1, 20426, Note_on_c, 0, 67, 48
1, 20426, Note_on_c, 0, 69, 48
1, 20426, Note_on_c, 0, 50, 0
1, 20429, Note_on_c, 0, 59, 0
1, 20429, Note_on_c, 0, 55, 47
1, 20429, Note_on_c, 0, 50, 47
1, 20432, Note_on_c, 0, 57, 47
1, 20608, Note_on_c, 0, 67, 0
1, 20608, Note_on_c, 0, 62, 0
1, 20608, Note_on_c, 0, 66, 45
1, 20611, Note_on_c, 0, 55, 0
1, 20611, Note_on_c, 0, 54, 45
1, 20795, Note_on_c, 0, 66, 0
1, 20795, Note_on_c, 0, 64, 44
1, 20795, Note_on_c, 0, 54, 0
1, 20798, Note_on_c, 0, 52, 44
1, 20983, Note_on_c, 0, 64, 0
1, 20983, Note_on_c, 0, 62, 42
1, 20983, Note_on_c, 0, 52, 0
1, 20986, Note_on_c, 0, 50, 42
1, 21168, Control_c, 0, 64, 127
1, 21174, Note_on_c, 0, 62, 0
1, 21174, Note_on_c, 0, 69, 0
1, 21174, Note_on_c, 0, 62, 54
1, 21177, Note_on_c, 0, 66, 54
1, 21177, Note_on_c, 0, 50, 0
1, 21177, Note_on_c, 0, 57, 0
1, 21180, Note_on_c, 0, 50, 0
1, 21180, Note_on_c, 0, 50, 52
1, 21180, Note_on_c, 0, 57, 52
1, 21341, Note_on_c, 0, 62, 0
1, 21341, Note_on_c, 0, 60, 58
1, 21341, Note_on_c, 0, 50, 0
1, 21344, Note_on_c, 0, 51, 56
1, 21424, Note_on_c, 0, 66, 0
1, 21424, Note_on_c, 0, 71, 52
1, 21463, Note_on_c, 0, 69, 57
1, 21463, Note_on_c, 0, 71, 0
1, 21503, Note_on_c, 0, 69, 0
1, 21503, Note_on_c, 0, 60, 0
1, 21503, Note_on_c, 0, 61, 63
1, 21503, Note_on_c, 0, 67, 63
1, 21503, Note_on_c, 0, 51, 0
1, 21503, Note_on_c, 0, 57, 0
1, 21503, Note_on_c, 0, 52, 57
1, 21503, Note_on_c, 0, 57, 57
1, 21562, Control_c, 0, 64, 0
1, 21585, Note_on_c, 0, 67, 0
1, 21585, Note_on_c, 0, 61, 0
1, 21585, Note_on_c, 0, 57, 0
1, 21588, Note_on_c, 0, 52, 0
1, 21748, Note_on_c, 0, 61, 57
1, 21748, Note_on_c, 0, 66, 57
1, 21748, Note_on_c, 0, 51, 49
1, 21751, Note_on_c, 0, 57, 49
1, 21826, Note_on_c, 0, 66, 0
1, 21826, Note_on_c, 0, 61, 0
1, 21826, Note_on_c, 0, 61, 61
1, 21829, Note_on_c, 0, 67, 61
1, 21829, Note_on_c, 0, 57, 0
1, 21829, Note_on_c, 0, 51, 0
1, 21832, Note_on_c, 0, 52, 52
1, 21832, Note_on_c, 0, 57, 52
1, 21984, Note_on_c, 0, 67, 0
1, 21984, Note_on_c, 0, 61, 0
1, 21984, Note_on_c, 0, 57, 0
1, 21987, Note_on_c, 0, 52, 0
1, 22161, Note_on_c, 0, 61, 63
1, 22161, Note_on_c, 0, 71, 63
1, 22161, Note_on_c, 0, 55, 57
1, 22164, Note_on_c, 0, 57, 57
1, 22176, Control_c, 0, 64, 127
1, 22491, Note_on_c, 0, 71, 0
1, 22491, Note_on_c, 0, 61, 0
1, 22491, Note_on_c, 0, 62, 66
1, 22494, Note_on_c, 0, 69, 66
1, 22494, Note_on_c, 0, 57, 0
1, 22494, Note_on_c, 0, 55, 0
1, 22497, Note_on_c, 0, 54, 57
1, 22497, Note_on_c, 0, 57, 57
1, 22553, Control_c, 0, 64, 0
1, 22573, Note_on_c, 0, 57, 0
1, 22573, Note_on_c, 0, 54, 0
1, 22735, Note_on_c, 0, 53, 50
1, 22735, Note_on_c, 0, 57, 50
1, 22814, Note_on_c, 0, 57, 0
1, 22814, Note_on_c, 0, 53, 0
1, 22814, Note_on_c, 0, 54, 56
1, 22817, Note_on_c, 0, 57, 56
1, 22972, Note_on_c, 0, 57, 0
1, 22972, Note_on_c, 0, 54, 0
1, 23138, Note_on_c, 0, 69, 0
1, 23138, Note_on_c, 0, 62, 0
1, 23138, Note_on_c, 0, 69, 66
1, 23141, Note_on_c, 0, 74, 66
1, 23141, Note_on_c, 0, 54, 57
1, 23141, Note_on_c, 0, 57, 57
1, 23158, Control_c, 0, 64, 127
1, 23468, Note_on_c, 0, 74, 0
1, 23468, Note_on_c, 0, 69, 0
1, 23468, Note_on_c, 0, 67, 66
1, 23471, Note_on_c, 0, 73, 66
1, 23471, Note_on_c, 0, 57, 0
1, 23471, Note_on_c, 0, 54, 0
1, 23474, Note_on_c, 0, 52, 57
1, 23474, Note_on_c, 0, 57, 57
1, 23549, Note_on_c, 0, 73, 0
1, 23549, Note_on_c, 0, 67, 0
1, 23549, Note_on_c, 0, 57, 0
1, 23552, Note_on_c, 0, 52, 0
1, 23552, Control_c, 0, 64, 0
1, 23712, Note_on_c, 0, 66, 58
1, 23712, Note_on_c, 0, 71, 58
1, 23712, Note_on_c, 0, 50, 52
1, 23715, Note_on_c, 0, 57, 52
1, 23791, Note_on_c, 0, 71, 0
1, 23791, Note_on_c, 0, 66, 0
1, 23791, Note_on_c, 0, 64, 63
1, 23794, Note_on_c, 0, 69, 63
1, 23794, Note_on_c, 0, 57, 0
1, 23794, Note_on_c, 0, 50, 0
1, 23797, Note_on_c, 0, 49, 57
1, 23797, Note_on_c, 0, 57, 57
1, 23948, Note_on_c, 0, 69, 0
1, 23948, Note_on_c, 0, 64, 0
1, 23948, Note_on_c, 0, 57, 0
1, 23951, Note_on_c, 0, 49, 0
1, 24129, Note_on_c, 0, 67, 68
1, 24129, Note_on_c, 0, 69, 68
1, 24129, Note_on_c, 0, 79, 68
1, 24132, Control_c, 0, 64, 127
1, 24132, Note_on_c, 0, 45, 62
1, 24132, Note_on_c, 0, 57, 62
1, 24296, Note_on_c, 0, 45, 0
1, 24296, Note_on_c, 0, 49, 62
1, 24463, Note_on_c, 0, 79, 0
1, 24463, Note_on_c, 0, 69, 0
1, 24463, Note_on_c, 0, 67, 0
1, 24466, Note_on_c, 0, 66, 68
1, 24466, Note_on_c, 0, 74, 68
1, 24466, Note_on_c, 0, 78, 68
1, 24469, Note_on_c, 0, 49, 0
1, 24469, Note_on_c, 0, 57, 0
1, 24469, Note_on_c, 0, 50, 59
1, 24472, Note_on_c, 0, 57, 59
1, 24527, Control_c, 0, 64, 0
1, 24544, Note_on_c, 0, 78, 0
1, 24544, Note_on_c, 0, 74, 0
1, 24544, Note_on_c, 0, 66, 0
1, 24547, Note_on_c, 0, 57, 0
1, 24547, Note_on_c, 0, 50, 0
1, 24707, Note_on_c, 0, 67, 62
1, 24707, Note_on_c, 0, 73, 62
1, 24707, Note_on_c, 0, 76, 62
1, 24710, Note_on_c, 0, 52, 53
1, 24710, Note_on_c, 0, 57, 53
1, 24786, Note_on_c, 0, 76, 0
1, 24786, Note_on_c, 0, 73, 0
1, 24786, Note_on_c, 0, 67, 0
1, 24789, Note_on_c, 0, 69, 58
1, 24789, Note_on_c, 0, 74, 58
1, 24789, Note_on_c, 0, 57, 0
1, 24792, Note_on_c, 0, 52, 0
1, 24792, Note_on_c, 0, 54, 53
1, 24792, Note_on_c, 0, 57, 53
1, 24944, Note_on_c, 0, 74, 0
1, 24944, Note_on_c, 0, 69, 0
1, 24944, Note_on_c, 0, 57, 0
1, 24947, Note_on_c, 0, 54, 0
1, 25110, Note_on_c, 0, 66, 72
1, 25110, Note_on_c, 0, 50, 71
1, 25110, Note_on_c, 0, 57, 71
1, 25124, Control_c, 0, 64, 127
1, 25358, Note_on_c, 0, 66, 0
1, 25358, Note_on_c, 0, 71, 65
1, 25396, Note_on_c, 0, 69, 71
1, 25396, Note_on_c, 0, 71, 0
1, 25436, Note_on_c, 0, 69, 0
1, 25436, Note_on_c, 0, 61, 79
1, 25436, Note_on_c, 0, 67, 79
1, 25439, Note_on_c, 0, 57, 0
1, 25439, Note_on_c, 0, 50, 0
1, 25439, Note_on_c, 0, 52, 72
1, 25442, Note_on_c, 0, 57, 72
1, 25494, Control_c, 0, 64, 0
1, 25557, Note_on_c, 0, 67, 0
1, 25557, Note_on_c, 0, 61, 0
1, 25557, Note_on_c, 0, 57, 0
1, 25560, Note_on_c, 0, 52, 0
1, 25677, Note_on_c, 0, 61, 72
1, 25677, Note_on_c, 0, 66, 72
1, 25677, Note_on_c, 0, 51, 61
1, 25680, Note_on_c, 0, 57, 61
1, 25755, Note_on_c, 0, 66, 0
1, 25755, Note_on_c, 0, 61, 0
1, 25755, Note_on_c, 0, 61, 76
1, 25758, Note_on_c, 0, 67, 76
1, 25758, Note_on_c, 0, 57, 0
1, 25758, Note_on_c, 0, 51, 0
1, 25761, Note_on_c, 0, 52, 65
1, 25761, Note_on_c, 0, 57, 65
1, 25911, Note_on_c, 0, 67, 0
1, 25911, Note_on_c, 0, 61, 0
1, 25911, Note_on_c, 0, 57, 0
1, 25914, Note_on_c, 0, 52, 0
1, 26088, Note_on_c, 0, 71, 77
1, 26088, Note_on_c, 0, 61, 77
1, 26088, Note_on_c, 0, 57, 67
1, 26091, Note_on_c, 0, 55, 67
1, 26095, Control_c, 0, 64, 127
1, 26332, Note_on_c, 0, 71, 0
1, 26332, Note_on_c, 0, 69, 72
1, 26373, Control_c, 0, 64, 0
1, 26419, Note_on_c, 0, 69, 0
1, 26419, Note_on_c, 0, 61, 0
1, 26419, Note_on_c, 0, 69, 77
1, 26422, Note_on_c, 0, 62, 77
1, 26422, Note_on_c, 0, 55, 0
1, 26422, Note_on_c, 0, 57, 0
1, 26425, Note_on_c, 0, 57, 58
1, 26425, Note_on_c, 0, 54, 58
1, 26602, Note_on_c, 0, 69, 0
1, 26602, Note_on_c, 0, 71, 67
1, 26602, Note_on_c, 0, 57, 0
1, 26605, Note_on_c, 0, 59, 58
1, 26774, Note_on_c, 0, 71, 0
1, 26774, Note_on_c, 0, 62, 0
1, 26774, Note_on_c, 0, 73, 70
1, 26777, Note_on_c, 0, 59, 0
1, 26777, Note_on_c, 0, 61, 59
1, 26938, Note_on_c, 0, 73, 0
1, 26938, Note_on_c, 0, 74, 71
1, 26938, Note_on_c, 0, 61, 0
1, 26941, Note_on_c, 0, 62, 61
1, 27110, Note_on_c, 0, 74, 0
1, 27110, Note_on_c, 0, 71, 73
1, 27110, Note_on_c, 0, 74, 73
1, 27113, Note_on_c, 0, 62, 0
1, 27113, Note_on_c, 0, 54, 0
1, 27113, Note_on_c, 0, 55, 62
1, 27116, Note_on_c, 0, 62, 62
1, 27295, Note_on_c, 0, 74, 0
1, 27295, Note_on_c, 0, 76, 76
1, 27295, Note_on_c, 0, 62, 0
1, 27298, Note_on_c, 0, 64, 63
1, 27484, Note_on_c, 0, 76, 0
1, 27484, Note_on_c, 0, 71, 0
1, 27484, Note_on_c, 0, 69, 79
1, 27487, Note_on_c, 0, 78, 79
1, 27487, Note_on_c, 0, 64, 0
1, 27487, Note_on_c, 0, 55, 0
1, 27490, Note_on_c, 0, 57, 65
1, 27490, Note_on_c, 0, 66, 65
1, 27664, Note_on_c, 0, 66, 0
1, 27664, Note_on_c, 0, 67, 61
1, 27844, Note_on_c, 0, 69, 0
1, 27844, Note_on_c, 0, 69, 67
1, 27844, Note_on_c, 0, 67, 0
1, 28025, Note_on_c, 0, 69, 0
1, 28025, Note_on_c, 0, 71, 66
1, 28222, Note_on_c, 0, 71, 0
1, 28222, Note_on_c, 0, 78, 0
1, 28222, Note_on_c, 0, 71, 62
1, 28225, Note_on_c, 0, 76, 62
1, 28225, Note_on_c, 0, 67, 53
1, 28428, Note_on_c, 0, 71, 0
1, 28428, Note_on_c, 0, 73, 62
1, 28659, Note_on_c, 0, 73, 0
1, 28659, Note_on_c, 0, 73, 59
1, 28659, Note_on_c, 0, 57, 0
1, 28662, Control_c, 0, 64, 127
1, 28662, Note_on_c, 0, 62, 56
1, 29077, Control_c, 0, 64, 0
1, 29150, Note_on_c, 0, 73, 0
1, 29150, Note_on_c, 0, 76, 0
1, 29150, Note_on_c, 0, 74, 49
1, 29153, Note_on_c, 0, 67, 0
1, 29153, Note_on_c, 0, 66, 45
1, 29518, Note_on_c, 0, 74, 0
1, 29518, Note_on_c, 0, 66, 0
1, 29641, Note_on_c, 0, 72, 53
1, 29641, Note_on_c, 0, 76, 53
1, 29641, Note_on_c, 0, 62, 0
1, 29644, Note_on_c, 0, 57, 53
1, 29644, Note_on_c, 0, 64, 53
1, 29821, Note_on_c, 0, 76, 0
1, 29821, Note_on_c, 0, 78, 53
1, 29821, Note_on_c, 0, 64, 0
1, 29824, Note_on_c, 0, 66, 53
1, 29997, Note_on_c, 0, 78, 0
1, 29997, Note_on_c, 0, 72, 0
1, 29997, Note_on_c, 0, 71, 52
1, 30000, Note_on_c, 0, 79, 58
1, 30000, Note_on_c, 0, 66, 0
1, 30000, Note_on_c, 0, 57, 0
1, 30003, Note_on_c, 0, 59, 52
1, 30003, Note_on_c, 0, 67, 57
1, 30176, Note_on_c, 0, 79, 0
1, 30176, Note_on_c, 0, 81, 53
1, 30176, Note_on_c, 0, 67, 0
1, 30179, Note_on_c, 0, 69, 53
1, 30351, Note_on_c, 0, 81, 0
1, 30351, Note_on_c, 0, 79, 53
1, 30351, Note_on_c, 0, 69, 0
1, 30354, Note_on_c, 0, 67, 53
1, 30526, Note_on_c, 0, 79, 0
1, 30526, Note_on_c, 0, 78, 53
1, 30526, Note_on_c, 0, 67, 0
1, 30529, Note_on_c, 0, 66, 50
1, 30698, Note_on_c, 0, 78, 0
1, 30698, Note_on_c, 0, 71, 0
1, 30698, Note_on_c, 0, 75, 52
1, 30701, Note_on_c, 0, 79, 56
1, 30701, Note_on_c, 0, 66, 0
1, 30701, Note_on_c, 0, 59, 0
1, 30704, Note_on_c, 0, 59, 52
1, 30704, Note_on_c, 0, 67, 53
1, 30874, Note_on_c, 0, 79, 0
1, 30874, Note_on_c, 0, 78, 58
1, 30874, Note_on_c, 0, 67, 0
1, 30877, Note_on_c, 0, 66, 57
1, 31055, Note_on_c, 0, 78, 0
1, 31055, Note_on_c, 0, 75, 0
1, 31055, Note_on_c, 0, 72, 61
1, 31058, Note_on_c, 0, 76, 61
1, 31058, Note_on_c, 0, 66, 0
1, 31058, Note_on_c, 0, 59, 0
1, 31061, Note_on_c, 0, 60, 59
1, 31061, Note_on_c, 0, 64, 59
1, 31228, Note_on_c, 0, 60, 0
1, 31228, Note_on_c, 0, 59, 56
1, 31400, Note_on_c, 0, 59, 0
1, 31400, Note_on_c, 0, 57, 54
1, 31573, Note_on_c, 0, 57, 0
1, 31573, Note_on_c, 0, 55, 53
1, 31746, Note_on_c, 0, 76, 0
1, 31746, Note_on_c, 0, 72, 0
1, 31746, Note_on_c, 0, 69, 57
1, 31749, Note_on_c, 0, 74, 57
1, 31749, Note_on_c, 0, 55, 0
1, 31749, Note_on_c, 0, 64, 0
1, 31752, Note_on_c, 0, 55, 57
1, 31752, Note_on_c, 0, 62, 57
1, 31923, Note_on_c, 0, 74, 0
1, 31923, Note_on_c, 0, 72, 56
1, 31923, Note_on_c, 0, 55, 0
1, 31926, Note_on_c, 0, 54, 56
1, 32100, Note_on_c, 0, 72, 0
1, 32100, Note_on_c, 0, 69, 0
1, 32100, Note_on_c, 0, 67, 53
1, 32103, Note_on_c, 0, 71, 53
1, 32103, Note_on_c, 0, 54, 0
1, 32103, Note_on_c, 0, 55, 56
1, 32277, Note_on_c, 0, 55, 0
1, 32277, Note_on_c, 0, 54, 54
1, 32454, Note_on_c, 0, 71, 0
1, 32454, Note_on_c, 0, 67, 0
1, 32454, Note_on_c, 0, 67, 57
1, 32457, Note_on_c, 0, 72, 57
1, 32457, Note_on_c, 0, 54, 0
1, 32457, Note_on_c, 0, 62, 0
1, 32460, Note_on_c, 0, 52, 53
1, 32460, Note_on_c, 0, 60, 53
1, 32637, Note_on_c, 0, 67, 0
1, 32637, Note_on_c, 0, 69, 56
1, 32637, Note_on_c, 0, 52, 0
1, 32640, Note_on_c, 0, 54, 52
1, 32820, Note_on_c, 0, 69, 0
1, 32820, Note_on_c, 0, 72, 0
1, 32820, Note_on_c, 0, 62, 54
1, 32823, Note_on_c, 0, 69, 54
1, 32823, Note_on_c, 0, 71, 54
1, 32823, Note_on_c, 0, 54, 0
1, 32826, Note_on_c, 0, 60, 0
1, 32826, Note_on_c, 0, 55, 53
1, 32826, Note_on_c, 0, 59, 53
1, 33004, Note_on_c, 0, 69, 0
1, 33004, Note_on_c, 0, 62, 0
1, 33004, Note_on_c, 0, 67, 53
1, 33007, Note_on_c, 0, 55, 0
1, 33007, Note_on_c, 0, 50, 53
1, 33193, Note_on_c, 0, 67, 0
1, 33193, Note_on_c, 0, 71, 0
1, 33193, Note_on_c, 0, 62, 48
1, 33196, Note_on_c, 0, 67, 48
1, 33196, Note_on_c, 0, 69, 48
1, 33196, Note_on_c, 0, 50, 0
1, 33199, Note_on_c, 0, 59, 0
1, 33199, Note_on_c, 0, 55, 47
1, 33199, Note_on_c, 0, 50, 47
1, 33202, Note_on_c, 0, 57, 47
1, 33378, Note_on_c, 0, 67, 0
1, 33378, Note_on_c, 0, 62, 0
1, 33378, Note_on_c, 0, 66, 45
1, 33381, Note_on_c, 0, 55, 0
1, 33381, Note_on_c, 0, 54, 45
1, 33565, Note_on_c, 0, 66, 0
1, 33565, Note_on_c, 0, 64, 44
1, 33565, Note_on_c, 0, 54, 0
1, 33568, Note_on_c, 0, 52, 44
1, 33754, Note_on_c, 0, 64, 0
1, 33754, Note_on_c, 0, 62, 42
1, 33754, Note_on_c, 0, 52, 0
1, 33757, Note_on_c, 0, 50, 42
1, 33944, Note_on_c, 0, 62, 0
1, 33944, Note_on_c, 0, 69, 0
1, 33944, Note_on_c, 0, 62, 54
1, 33947, Note_on_c, 0, 66, 54
1, 33947, Note_on_c, 0, 50, 0
1, 33947, Note_on_c, 0, 57, 0
1, 33950, Note_on_c, 0, 50, 0
1, 33950, Note_on_c, 0, 50, 52
1, 33950, Note_on_c, 0, 57, 52
1, 33953, Control_c, 0, 64, 127
1, 34111, Note_on_c, 0, 62, 0
1, 34111, Note_on_c, 0, 60, 58
1, 34111, Note_on_c, 0, 50, 0
1, 34114, Note_on_c, 0, 51, 56
1, 34194, Note_on_c, 0, 66, 0
1, 34194, Note_on_c, 0, 71, 52
1, 34234, Note_on_c, 0, 69, 57
1, 34234, Note_on_c, 0, 71, 0
1, 34273, Note_on_c, 0, 69, 0
1, 34273, Note_on_c, 0, 60, 0
1, 34273, Note_on_c, 0, 61, 63
1, 34273, Note_on_c, 0, 67, 63
1, 34273, Note_on_c, 0, 51, 0
1, 34273, Note_on_c, 0, 57, 0
1, 34273, Note_on_c, 0, 52, 57
1, 34273, Note_on_c, 0, 57, 57
1, 34332, Control_c, 0, 64, 0
1, 34355, Note_on_c, 0, 67, 0
1, 34355, Note_on_c, 0, 61, 0
1, 34355, Note_on_c, 0, 57, 0
1, 34358, Note_on_c, 0, 52, 0
1, 34518, Note_on_c, 0, 61, 61
1, 34518, Note_on_c, 0, 66, 61
1, 34518, Note_on_c, 0, 51, 50
1, 34521, Note_on_c, 0, 57, 50
1, 34596, Note_on_c, 0, 66, 0
1, 34596, Note_on_c, 0, 61, 0
1, 34596, Note_on_c, 0, 61, 65
1, 34599, Note_on_c, 0, 67, 65
1, 34599, Note_on_c, 0, 57, 0
1, 34599, Note_on_c, 0, 51, 0
1, 34602, Note_on_c, 0, 52, 56
1, 34602, Note_on_c, 0, 57, 56
1, 34753, Note_on_c, 0, 67, 0
1, 34753, Note_on_c, 0, 61, 0
1, 34753, Note_on_c, 0, 57, 0
1, 34756, Note_on_c, 0, 52, 0
1, 34930, Note_on_c, 0, 61, 63
1, 34930, Note_on_c, 0, 71, 63
1, 34930, Note_on_c, 0, 55, 57
1, 34933, Note_on_c, 0, 57, 57
1, 34957, Control_c, 0, 64, 127
1, 35260, Note_on_c, 0, 71, 0
1, 35260, Note_on_c, 0, 61, 0
1, 35260, Note_on_c, 0, 62, 66
1, 35263, Note_on_c, 0, 69, 66
1, 35263, Note_on_c, 0, 57, 0
1, 35263, Note_on_c, 0, 55, 0
1, 35266, Note_on_c, 0, 54, 57
1, 35266, Note_on_c, 0, 57, 57
1, 35330, Control_c, 0, 64, 0
1, 35342, Note_on_c, 0, 57, 0
1, 35342, Note_on_c, 0, 54, 0
1, 35505, Note_on_c, 0, 53, 49
1, 35505, Note_on_c, 0, 57, 49
1, 35583, Note_on_c, 0, 57, 0
1, 35583, Note_on_c, 0, 53, 0
1, 35583, Note_on_c, 0, 54, 56
1, 35586, Note_on_c, 0, 57, 56
1, 35740, Note_on_c, 0, 57, 0
1, 35740, Note_on_c, 0, 54, 0
1, 35906, Note_on_c, 0, 69, 0
1, 35906, Note_on_c, 0, 62, 0
1, 35906, Note_on_c, 0, 69, 66
1, 35909, Note_on_c, 0, 74, 66
1, 35909, Note_on_c, 0, 54, 57
1, 35909, Note_on_c, 0, 57, 57
1, 35914, Control_c, 0, 64, 127
1, 36237, Note_on_c, 0, 74, 0
1, 36237, Note_on_c, 0, 69, 0
1, 36237, Note_on_c, 0, 67, 66
1, 36240, Note_on_c, 0, 73, 66
1, 36240, Note_on_c, 0, 57, 0
1, 36240, Note_on_c, 0, 54, 0
1, 36243, Note_on_c, 0, 52, 57
1, 36243, Note_on_c, 0, 57, 57
1, 36294, Control_c, 0, 64, 0
1, 36318, Note_on_c, 0, 73, 0
1, 36318, Note_on_c, 0, 67, 0
1, 36318, Note_on_c, 0, 57, 0
1, 36321, Note_on_c, 0, 52, 0
1, 36480, Note_on_c, 0, 66, 61
1, 36480, Note_on_c, 0, 71, 61
1, 36480, Note_on_c, 0, 50, 53
1, 36483, Note_on_c, 0, 57, 53
1, 36559, Note_on_c, 0, 71, 0
1, 36559, Note_on_c, 0, 66, 0
1, 36559, Note_on_c, 0, 64, 65
1, 36562, Note_on_c, 0, 69, 65
1, 36562, Note_on_c, 0, 57, 0
1, 36562, Note_on_c, 0, 50, 0
1, 36565, Note_on_c, 0, 49, 57
1, 36565, Note_on_c, 0, 57, 57
1, 36717, Note_on_c, 0, 69, 0
1, 36717, Note_on_c, 0, 64, 0
1, 36717, Note_on_c, 0, 57, 0
1, 36720, Note_on_c, 0, 49, 0
1, 36897, Note_on_c, 0, 67, 68
1, 36897, Note_on_c, 0, 69, 68
1, 36897, Note_on_c, 0, 79, 68
1, 36900, Note_on_c, 0, 45, 62
1, 36900, Note_on_c, 0, 57, 62
1, 36912, Control_c, 0, 64, 127
1, 37064, Note_on_c, 0, 45, 0
1, 37064, Note_on_c, 0, 49, 62
1, 37231, Note_on_c, 0, 79, 0
1, 37231, Note_on_c, 0, 69, 0
1, 37231, Note_on_c, 0, 67, 0
1, 37234, Note_on_c, 0, 66, 68
1, 37234, Note_on_c, 0, 74, 68
1, 37234, Note_on_c, 0, 78, 68
1, 37237, Note_on_c, 0, 49, 0
1, 37237, Note_on_c, 0, 57, 0
1, 37237, Note_on_c, 0, 50, 59
1, 37240, Note_on_c, 0, 57, 59
1, 37313, Note_on_c, 0, 78, 0
1, 37313, Note_on_c, 0, 74, 0
1, 37313, Note_on_c, 0, 66, 0
1, 37316, Note_on_c, 0, 57, 0
1, 37316, Note_on_c, 0, 50, 0
1, 37316, Control_c, 0, 64, 0
1, 37476, Note_on_c, 0, 67, 63
1, 37476, Note_on_c, 0, 73, 63
1, 37476, Note_on_c, 0, 76, 63
1, 37479, Note_on_c, 0, 52, 54
1, 37479, Note_on_c, 0, 57, 54
1, 37555, Note_on_c, 0, 76, 0
1, 37555, Note_on_c, 0, 73, 0
1, 37555, Note_on_c, 0, 67, 0
1, 37558, Note_on_c, 0, 69, 62
1, 37558, Note_on_c, 0, 74, 62
1, 37558, Note_on_c, 0, 57, 0
1, 37561, Note_on_c, 0, 52, 0
1, 37561, Note_on_c, 0, 54, 54
1, 37561, Note_on_c, 0, 57, 54
1, 37714, Note_on_c, 0, 74, 0
1, 37714, Note_on_c, 0, 69, 0
1, 37714, Note_on_c, 0, 57, 0
1, 37717, Note_on_c, 0, 54, 0
1, 37880, Note_on_c, 0, 66, 72
1, 37880, Note_on_c, 0, 50, 71
1, 37880, Note_on_c, 0, 57, 71
1, 37894, Control_c, 0, 64, 127
1, 38128, Note_on_c, 0, 66, 0
1, 38128, Note_on_c, 0, 71, 65
1, 38166, Note_on_c, 0, 69, 71
1, 38166, Note_on_c, 0, 71, 0
1, 38206, Note_on_c, 0, 69, 0
1, 38206, Note_on_c, 0, 61, 79
1, 38206, Note_on_c, 0, 67, 79
1, 38209, Note_on_c, 0, 57, 0
1, 38209, Note_on_c, 0, 50, 0
1, 38209, Note_on_c, 0, 52, 72
1, 38212, Note_on_c, 0, 57, 72
1, 38256, Control_c, 0, 64, 0
1, 38327, Note_on_c, 0, 67, 0
1, 38327, Note_on_c, 0, 61, 0
1, 38327, Note_on_c, 0, 57, 0
1, 38330, Note_on_c, 0, 52, 0
1, 38447, Note_on_c, 0, 61, 68
1, 38447, Note_on_c, 0, 66, 68
1, 38447, Note_on_c, 0, 51, 61
1, 38450, Note_on_c, 0, 57, 61
1, 38524, Note_on_c, 0, 66, 0
1, 38524, Note_on_c, 0, 61, 0
1, 38524, Note_on_c, 0, 61, 73
1, 38527, Note_on_c, 0, 67, 73
1, 38527, Note_on_c, 0, 57, 0
1, 38527, Note_on_c, 0, 51, 0
1, 38530, Note_on_c, 0, 52, 67
1, 38530, Note_on_c, 0, 57, 67
1, 38680, Note_on_c, 0, 67, 0
1, 38680, Note_on_c, 0, 61, 0
1, 38680, Note_on_c, 0, 57, 0
1, 38683, Note_on_c, 0, 52, 0
1, 38857, Note_on_c, 0, 71, 77
1, 38857, Note_on_c, 0, 61, 77
1, 38857, Note_on_c, 0, 57, 67
1, 38860, Note_on_c, 0, 55, 67
1, 39101, Note_on_c, 0, 71, 0
1, 39101, Note_on_c, 0, 69, 72
1, 39188, Note_on_c, 0, 69, 0
1, 39188, Note_on_c, 0, 61, 0
1, 39188, Note_on_c, 0, 69, 77
1, 39191, Note_on_c, 0, 62, 77
1, 39191, Note_on_c, 0, 55, 0
1, 39191, Note_on_c, 0, 57, 0
1, 39194, Note_on_c, 0, 57, 58
1, 39194, Note_on_c, 0, 54, 58
1, 39371, Note_on_c, 0, 69, 0
1, 39371, Note_on_c, 0, 71, 67
1, 39371, Note_on_c, 0, 57, 0
1, 39374, Note_on_c, 0, 59, 58
1, 39544, Note_on_c, 0, 71, 0
1, 39544, Note_on_c, 0, 62, 0
1, 39544, Note_on_c, 0, 73, 70
1, 39547, Note_on_c, 0, 59, 0
1, 39547, Note_on_c, 0, 61, 59
1, 39707, Note_on_c, 0, 73, 0
1, 39707, Note_on_c, 0, 74, 71
1, 39707, Note_on_c, 0, 61, 0
1, 39710, Note_on_c, 0, 62, 61
1, 39879, Note_on_c, 0, 74, 0
1, 39879, Note_on_c, 0, 71, 73
1, 39879, Note_on_c, 0, 74, 73
1, 39882, Note_on_c, 0, 62, 0
1, 39882, Note_on_c, 0, 54, 0
1, 39882, Note_on_c, 0, 55, 62
1, 39885, Note_on_c, 0, 62, 62
1, 40070, Note_on_c, 0, 74, 0
1, 40070, Note_on_c, 0, 76, 76
1, 40070, Note_on_c, 0, 62, 0
1, 40073, Note_on_c, 0, 64, 63
1, 40265, Note_on_c, 0, 76, 0
1, 40265, Note_on_c, 0, 71, 0
1, 40265, Note_on_c, 0, 69, 79
1, 40268, Note_on_c, 0, 78, 79
1, 40268, Note_on_c, 0, 64, 0
1, 40268, Note_on_c, 0, 55, 0
1, 40271, Note_on_c, 0, 57, 65
1, 40271, Note_on_c, 0, 66, 65
1, 40453, Note_on_c, 0, 66, 0
1, 40453, Note_on_c, 0, 67, 61
1, 40642, Note_on_c, 0, 69, 0
1, 40642, Note_on_c, 0, 69, 67
1, 40642, Note_on_c, 0, 67, 0
1, 40831, Note_on_c, 0, 69, 0
1, 40831, Note_on_c, 0, 71, 66
1, 41040, Note_on_c, 0, 71, 0
1, 41040, Note_on_c, 0, 78, 0
1, 41040, Note_on_c, 0, 71, 62
1, 41043, Note_on_c, 0, 76, 62
1, 41043, Note_on_c, 0, 67, 53
1, 41269, Note_on_c, 0, 71, 0
1, 41269, Note_on_c, 0, 73, 62
1, 41528, Note_on_c, 0, 73, 0
1, 41528, Note_on_c, 0, 73, 59
1, 41528, Note_on_c, 0, 57, 0
1, 41531, Control_c, 0, 64, 127
1, 41531, Note_on_c, 0, 62, 56
1, 42015, Control_c, 0, 64, 0
1, 42044, Note_on_c, 0, 73, 0
1, 42044, Note_on_c, 0, 76, 0
1, 42044, Note_on_c, 0, 74, 49
1, 42047, Note_on_c, 0, 67, 0
1, 42047, Note_on_c, 0, 66, 45
1, 42560, Note_on_c, 0, 74, 0
1, 42560, Note_on_c, 0, 66, 0
1, 42560, Note_on_c, 0, 62, 0
1, 44058, End_track
0, 0, End_of_file
