0, 0, Header, 0, 1, 384
1, 0, Start_track
1, 0, Tempo, 512820
1, 0, Title_t, "Kinderszenen OpuRitter vom Steck"
1, 0, Program_c, 0, 0
1, 0, Control_c, 0, 7, 100
1, 3, Control_c, 0, 91, 127
1, 3, Program_c, 0, 0
1, 3, Control_c, 0, 7, 100
1, 6, Control_c, 0, 91, 127
1, 6, Control_c, 0, 64, 0
1, 748, Note_on_c, 0, 64, 70
1, 748, Note_on_c, 0, 67, 70
1, 840, Note_on_c, 0, 79, 59
1, 840, Note_on_c, 0, 72, 59
1, 944, Note_on_c, 0, 55, 63
1, 1049, Note_on_c, 0, 72, 0
1, 1049, Note_on_c, 0, 79, 0
1, 1049, Note_on_c, 0, 79, 59
1, 1052, Note_on_c, 0, 72, 59
1, 1147, Note_on_c, 0, 72, 0
1, 1147, Note_on_c, 0, 79, 0
1, 1147, Note_on_c, 0, 72, 72
1, 1150, Note_on_c, 0, 81, 72
1, 1150, Note_on_c, 0, 63, 53
1, 1150, Note_on_c, 0, 66, 53
1, 1153, Note_on_c, 0, 67, 0
1, 1153, Note_on_c, 0, 64, 0
1, 1335, Note_on_c, 0, 81, 0
1, 1335, Note_on_c, 0, 72, 0
1, 1335, Note_on_c, 0, 63, 0
1, 1338, Note_on_c, 0, 66, 0
1, 1338, Note_on_c, 0, 64, 72
1, 1338, Note_on_c, 0, 67, 72
1, 1427, Note_on_c, 0, 79, 59
1, 1427, Note_on_c, 0, 72, 59
1, 1531, Note_on_c, 0, 55, 0
1, 1531, Note_on_c, 0, 55, 61
1, 1636, Note_on_c, 0, 72, 0
1, 1636, Note_on_c, 0, 79, 0
1, 1636, Note_on_c, 0, 79, 59
1, 1639, Note_on_c, 0, 72, 59
1, 1733, Note_on_c, 0, 72, 0
1, 1733, Note_on_c, 0, 79, 0
1, 1733, Note_on_c, 0, 76, 70
1, 1736, Note_on_c, 0, 72, 70
1, 1736, Note_on_c, 0, 67, 0
1, 1736, Note_on_c, 0, 64, 0
1, 1739, Note_on_c, 0, 67, 53
1, 1739, Note_on_c, 0, 60, 53
1, 1922, Note_on_c, 0, 72, 0
1, 1922, Note_on_c, 0, 76, 0
1, 1922, Note_on_c, 0, 60, 0
1, 1925, Note_on_c, 0, 67, 0
1, 1925, Note_on_c, 0, 67, 71
1, 1925, Note_on_c, 0, 62, 71
1, 2014, Note_on_c, 0, 77, 56
1, 2014, Note_on_c, 0, 72, 56
1, 2119, Note_on_c, 0, 55, 0
1, 2119, Note_on_c, 0, 55, 60
1, 2223, Note_on_c, 0, 72, 0
1, 2223, Note_on_c, 0, 77, 0
1, 2223, Note_on_c, 0, 72, 56
1, 2226, Note_on_c, 0, 77, 56
1, 2323, Note_on_c, 0, 77, 0
1, 2323, Note_on_c, 0, 72, 0
1, 2323, Note_on_c, 0, 74, 67
1, 2326, Note_on_c, 0, 79, 67
1, 2326, Note_on_c, 0, 62, 0
1, 2326, Note_on_c, 0, 67, 0
1, 2329, Note_on_c, 0, 59, 49
1, 2329, Note_on_c, 0, 67, 49
1, 2514, Note_on_c, 0, 79, 0
1, 2514, Note_on_c, 0, 74, 0
1, 2514, Note_on_c, 0, 67, 0
1, 2517, Note_on_c, 0, 59, 0
1, 2517, Note_on_c, 0, 60, 71
1, 2517, Note_on_c, 0, 67, 71
1, 2608, Note_on_c, 0, 76, 53
1, 2608, Note_on_c, 0, 72, 53
1, 2712, Note_on_c, 0, 55, 0
1, 2712, Note_on_c, 0, 55, 59
1, 2817, Note_on_c, 0, 72, 0
1, 2817, Note_on_c, 0, 76, 0
1, 2817, Note_on_c, 0, 72, 53
1, 2820, Note_on_c, 0, 76, 53
1, 2917, Note_on_c, 0, 76, 0
1, 2917, Note_on_c, 0, 72, 0
1, 2917, Note_on_c, 0, 67, 62
1, 2920, Note_on_c, 0, 72, 62
1, 2920, Note_on_c, 0, 67, 0
1, 2920, Note_on_c, 0, 60, 0
1, 2923, Note_on_c, 0, 60, 48
1, 2923, Note_on_c, 0, 64, 48
1, 3110, Note_on_c, 0, 72, 0
1, 3110, Note_on_c, 0, 67, 0
1, 3110, Control_c, 0, 91, 127
1, 3113, Note_on_c, 0, 64, 0
1, 3113, Note_on_c, 0, 60, 0
1, 3113, Control_c, 0, 91, 127
1, 3116, Note_on_c, 0, 64, 68
1, 3202, Note_on_c, 0, 67, 47
1, 3202, Note_on_c, 0, 72, 47
1, 3306, Note_on_c, 0, 55, 0
1, 3306, Note_on_c, 0, 55, 48
1, 3411, Note_on_c, 0, 72, 0
1, 3411, Note_on_c, 0, 67, 0
1, 3411, Note_on_c, 0, 67, 47
1, 3414, Note_on_c, 0, 72, 47
1, 3509, Note_on_c, 0, 72, 0
1, 3509, Note_on_c, 0, 67, 0
1, 3509, Note_on_c, 0, 72, 57
1, 3512, Note_on_c, 0, 69, 57
1, 3512, Note_on_c, 0, 65, 41
1, 3512, Note_on_c, 0, 64, 0
1, 3697, Note_on_c, 0, 69, 0
1, 3697, Note_on_c, 0, 72, 0
1, 3697, Note_on_c, 0, 65, 0
1, 3700, Note_on_c, 0, 64, 68
1, 3789, Note_on_c, 0, 72, 47
1, 3789, Note_on_c, 0, 67, 47
1, 3894, Note_on_c, 0, 55, 0
1, 3894, Note_on_c, 0, 55, 46
1, 3998, Note_on_c, 0, 67, 0
1, 3998, Note_on_c, 0, 72, 0
1, 3998, Note_on_c, 0, 72, 48
1, 4001, Note_on_c, 0, 67, 48
1, 4096, Note_on_c, 0, 67, 0
1, 4096, Note_on_c, 0, 72, 0
1, 4096, Note_on_c, 0, 72, 56
1, 4099, Note_on_c, 0, 64, 56
1, 4099, Note_on_c, 0, 64, 0
1, 4099, Note_on_c, 0, 60, 41
1, 4287, Note_on_c, 0, 64, 0
1, 4287, Note_on_c, 0, 72, 0
1, 4287, Note_on_c, 0, 60, 0
1, 4290, Note_on_c, 0, 62, 61
1, 4380, Note_on_c, 0, 65, 45
1, 4380, Note_on_c, 0, 67, 45
1, 4485, Note_on_c, 0, 55, 0
1, 4485, Note_on_c, 0, 55, 46
1, 4589, Note_on_c, 0, 67, 0
1, 4589, Note_on_c, 0, 65, 0
1, 4589, Note_on_c, 0, 67, 45
1, 4592, Note_on_c, 0, 65, 45
1, 4690, Note_on_c, 0, 65, 0
1, 4690, Note_on_c, 0, 67, 0
1, 4690, Note_on_c, 0, 67, 53
1, 4693, Note_on_c, 0, 67, 53
1, 4693, Note_on_c, 0, 62, 0
1, 4693, Note_on_c, 0, 64, 40
1, 4884, Note_on_c, 0, 67, 0
1, 4884, Note_on_c, 0, 67, 0
1, 4884, Note_on_c, 0, 64, 0
1, 4887, Note_on_c, 0, 60, 59
1, 4980, Note_on_c, 0, 67, 36
1, 4980, Note_on_c, 0, 64, 36
1, 5084, Note_on_c, 0, 55, 0
1, 5084, Note_on_c, 0, 55, 46
1, 5189, Note_on_c, 0, 64, 0
1, 5189, Note_on_c, 0, 67, 0
1, 5189, Note_on_c, 0, 67, 36
1, 5192, Note_on_c, 0, 64, 36
1, 5290, Note_on_c, 0, 64, 0
1, 5290, Note_on_c, 0, 67, 0
1, 5290, Note_on_c, 0, 64, 47
1, 5293, Note_on_c, 0, 67, 47
1, 5293, Note_on_c, 0, 60, 0
1, 5293, Note_on_c, 0, 60, 37
1, 5481, Note_on_c, 0, 67, 0
1, 5481, Note_on_c, 0, 64, 0
1, 5481, Control_c, 0, 91, 127
1, 5484, Note_on_c, 0, 60, 0
1, 5484, Note_on_c, 0, 55, 0
1, 5484, Control_c, 0, 91, 127
1, 5487, Note_on_c, 0, 67, 75
1, 5487, Note_on_c, 0, 64, 75
1, 5573, Note_on_c, 0, 79, 59
1, 5573, Note_on_c, 0, 72, 59
1, 5678, Note_on_c, 0, 55, 63
1, 5782, Note_on_c, 0, 72, 0
1, 5782, Note_on_c, 0, 79, 0
1, 5782, Note_on_c, 0, 72, 59
1, 5785, Note_on_c, 0, 79, 59
1, 5880, Note_on_c, 0, 79, 0
1, 5880, Note_on_c, 0, 72, 0
1, 5880, Note_on_c, 0, 72, 72
1, 5883, Note_on_c, 0, 81, 72
1, 5883, Note_on_c, 0, 63, 53
1, 5883, Note_on_c, 0, 66, 53
1, 5886, Note_on_c, 0, 64, 0
1, 5886, Note_on_c, 0, 67, 0
1, 6068, Note_on_c, 0, 81, 0
1, 6068, Note_on_c, 0, 72, 0
1, 6068, Note_on_c, 0, 63, 0
1, 6071, Note_on_c, 0, 66, 0
1, 6071, Note_on_c, 0, 64, 75
1, 6071, Note_on_c, 0, 67, 75
1, 6160, Note_on_c, 0, 79, 59
1, 6160, Note_on_c, 0, 72, 59
1, 6264, Note_on_c, 0, 55, 0
1, 6264, Note_on_c, 0, 55, 61
1, 6369, Note_on_c, 0, 72, 0
1, 6369, Note_on_c, 0, 79, 0
1, 6369, Note_on_c, 0, 72, 59
1, 6372, Note_on_c, 0, 79, 59
1, 6467, Note_on_c, 0, 79, 0
1, 6467, Note_on_c, 0, 72, 0
1, 6467, Note_on_c, 0, 72, 70
1, 6470, Note_on_c, 0, 76, 70
1, 6470, Note_on_c, 0, 67, 0
1, 6470, Note_on_c, 0, 64, 0
1, 6473, Note_on_c, 0, 60, 53
1, 6473, Note_on_c, 0, 67, 53
1, 6655, Note_on_c, 0, 76, 0
1, 6655, Note_on_c, 0, 72, 0
1, 6655, Note_on_c, 0, 67, 0
1, 6658, Note_on_c, 0, 60, 0
1, 6658, Note_on_c, 0, 62, 72
1, 6658, Note_on_c, 0, 67, 72
1, 6747, Note_on_c, 0, 72, 56
1, 6747, Note_on_c, 0, 77, 56
1, 6852, Note_on_c, 0, 55, 0
1, 6852, Note_on_c, 0, 55, 60
1, 6956, Note_on_c, 0, 77, 0
1, 6956, Note_on_c, 0, 72, 0
1, 6956, Note_on_c, 0, 72, 56
1, 6959, Note_on_c, 0, 77, 56
1, 7056, Note_on_c, 0, 77, 0
1, 7056, Note_on_c, 0, 72, 0
1, 7056, Note_on_c, 0, 74, 69
1, 7059, Note_on_c, 0, 79, 69
1, 7059, Note_on_c, 0, 67, 0
1, 7059, Note_on_c, 0, 62, 0
1, 7062, Note_on_c, 0, 59, 49
1, 7062, Note_on_c, 0, 67, 49
1, 7247, Note_on_c, 0, 79, 0
1, 7247, Note_on_c, 0, 74, 0
1, 7247, Note_on_c, 0, 67, 0
1, 7250, Note_on_c, 0, 59, 0
1, 7250, Note_on_c, 0, 60, 73
1, 7250, Note_on_c, 0, 67, 73
1, 7341, Note_on_c, 0, 72, 53
1, 7341, Note_on_c, 0, 76, 53
1, 7445, Note_on_c, 0, 55, 0
1, 7445, Note_on_c, 0, 55, 59
1, 7550, Note_on_c, 0, 76, 0
1, 7550, Note_on_c, 0, 72, 0
1, 7550, Note_on_c, 0, 72, 53
1, 7553, Note_on_c, 0, 76, 53
1, 7650, Note_on_c, 0, 76, 0
1, 7650, Note_on_c, 0, 72, 0
1, 7650, Note_on_c, 0, 67, 65
1, 7653, Note_on_c, 0, 72, 65
1, 7653, Note_on_c, 0, 67, 0
1, 7653, Note_on_c, 0, 60, 0
1, 7656, Note_on_c, 0, 60, 48
1, 7656, Note_on_c, 0, 64, 48
1, 7843, Note_on_c, 0, 72, 0
1, 7843, Note_on_c, 0, 67, 0
1, 7843, Control_c, 0, 91, 127
1, 7846, Note_on_c, 0, 64, 0
1, 7846, Note_on_c, 0, 60, 0
1, 7846, Control_c, 0, 91, 127
1, 7849, Note_on_c, 0, 64, 68
1, 7935, Note_on_c, 0, 72, 47
1, 7935, Note_on_c, 0, 67, 47
1, 8040, Note_on_c, 0, 55, 0
1, 8040, Note_on_c, 0, 55, 48
1, 8144, Note_on_c, 0, 67, 0
1, 8144, Note_on_c, 0, 72, 0
1, 8144, Note_on_c, 0, 67, 47
1, 8147, Note_on_c, 0, 72, 47
1, 8242, Note_on_c, 0, 72, 0
1, 8242, Note_on_c, 0, 67, 0
1, 8242, Note_on_c, 0, 72, 58
1, 8245, Note_on_c, 0, 69, 58
1, 8245, Note_on_c, 0, 65, 41
1, 8245, Note_on_c, 0, 64, 0
1, 8430, Note_on_c, 0, 69, 0
1, 8430, Note_on_c, 0, 72, 0
1, 8430, Note_on_c, 0, 65, 0
1, 8433, Note_on_c, 0, 64, 68
1, 8523, Note_on_c, 0, 67, 47
1, 8523, Note_on_c, 0, 72, 47
1, 8627, Note_on_c, 0, 55, 0
1, 8627, Note_on_c, 0, 55, 46
1, 8732, Note_on_c, 0, 72, 0
1, 8732, Note_on_c, 0, 67, 0
1, 8732, Note_on_c, 0, 72, 48
1, 8735, Note_on_c, 0, 67, 48
1, 8830, Note_on_c, 0, 67, 0
1, 8830, Note_on_c, 0, 72, 0
1, 8830, Note_on_c, 0, 72, 57
1, 8833, Note_on_c, 0, 64, 57
1, 8833, Note_on_c, 0, 64, 0
1, 8833, Note_on_c, 0, 60, 41
1, 9020, Note_on_c, 0, 64, 0
1, 9020, Note_on_c, 0, 72, 0
1, 9020, Note_on_c, 0, 60, 0
1, 9023, Note_on_c, 0, 62, 61
1, 9114, Note_on_c, 0, 67, 45
1, 9114, Note_on_c, 0, 65, 45
1, 9218, Note_on_c, 0, 55, 0
1, 9218, Note_on_c, 0, 55, 46
1, 9323, Note_on_c, 0, 65, 0
1, 9323, Note_on_c, 0, 67, 0
1, 9323, Note_on_c, 0, 67, 45
1, 9326, Note_on_c, 0, 65, 45
1, 9423, Note_on_c, 0, 65, 0
1, 9423, Note_on_c, 0, 67, 0
1, 9423, Note_on_c, 0, 67, 52
1, 9426, Note_on_c, 0, 67, 52
1, 9426, Note_on_c, 0, 62, 0
1, 9426, Note_on_c, 0, 64, 40
1, 9617, Note_on_c, 0, 67, 0
1, 9617, Note_on_c, 0, 67, 0
1, 9617, Note_on_c, 0, 64, 0
1, 9620, Note_on_c, 0, 60, 59
1, 9713, Note_on_c, 0, 67, 36
1, 9713, Note_on_c, 0, 64, 36
1, 9817, Note_on_c, 0, 55, 0
1, 9817, Note_on_c, 0, 55, 46
1, 9922, Note_on_c, 0, 64, 0
1, 9922, Note_on_c, 0, 67, 0
1, 9922, Note_on_c, 0, 67, 36
1, 9925, Note_on_c, 0, 64, 36
1, 10024, Note_on_c, 0, 64, 0
1, 10024, Note_on_c, 0, 67, 0
1, 10024, Note_on_c, 0, 67, 48
1, 10027, Note_on_c, 0, 64, 48
1, 10027, Note_on_c, 0, 60, 0
1, 10027, Note_on_c, 0, 60, 37
1, 10225, Note_on_c, 0, 64, 0
1, 10225, Note_on_c, 0, 67, 0
1, 10225, Control_c, 0, 91, 127
1, 10228, Note_on_c, 0, 60, 0
1, 10228, Note_on_c, 0, 55, 0
1, 10228, Note_on_c, 0, 58, 62
1, 10231, Control_c, 0, 91, 127
1, 10317, Note_on_c, 0, 67, 48
1, 10317, Note_on_c, 0, 64, 48
1, 10317, Note_on_c, 0, 72, 48
1, 10422, Note_on_c, 0, 60, 60
1, 10526, Note_on_c, 0, 72, 0
1, 10526, Note_on_c, 0, 64, 0
1, 10526, Note_on_c, 0, 67, 0
1, 10529, Note_on_c, 0, 72, 48
1, 10529, Note_on_c, 0, 64, 48
1, 10529, Note_on_c, 0, 67, 48
1, 10624, Note_on_c, 0, 67, 0
1, 10624, Note_on_c, 0, 64, 0
1, 10624, Note_on_c, 0, 72, 0
1, 10627, Note_on_c, 0, 69, 57
1, 10627, Note_on_c, 0, 72, 57
1, 10627, Note_on_c, 0, 64, 57
1, 10630, Note_on_c, 0, 58, 0
1, 10630, Note_on_c, 0, 57, 58
1, 10812, Note_on_c, 0, 64, 0
1, 10812, Note_on_c, 0, 72, 0
1, 10812, Note_on_c, 0, 69, 0
1, 10815, Control_c, 0, 91, 127
1, 10815, Note_on_c, 0, 57, 0
1, 10815, Note_on_c, 0, 55, 66
1, 10818, Control_c, 0, 91, 127
1, 10904, Note_on_c, 0, 70, 49
1, 10904, Note_on_c, 0, 64, 49
1, 10904, Note_on_c, 0, 72, 49
1, 11009, Note_on_c, 0, 60, 0
1, 11009, Note_on_c, 0, 60, 62
1, 11113, Note_on_c, 0, 72, 0
1, 11113, Note_on_c, 0, 64, 0
1, 11113, Note_on_c, 0, 70, 0
1, 11116, Note_on_c, 0, 72, 49
1, 11116, Note_on_c, 0, 64, 49
1, 11116, Note_on_c, 0, 70, 49
1, 11211, Note_on_c, 0, 70, 0
1, 11211, Note_on_c, 0, 64, 0
1, 11211, Note_on_c, 0, 72, 0
1, 11214, Note_on_c, 0, 70, 59
1, 11214, Note_on_c, 0, 72, 59
1, 11214, Note_on_c, 0, 65, 59
1, 11217, Note_on_c, 0, 55, 0
1, 11217, Note_on_c, 0, 53, 60
1, 11399, Note_on_c, 0, 65, 0
1, 11399, Note_on_c, 0, 72, 0
1, 11399, Note_on_c, 0, 70, 0
1, 11402, Control_c, 0, 91, 127
1, 11402, Note_on_c, 0, 53, 0
1, 11402, Note_on_c, 0, 52, 72
1, 11405, Control_c, 0, 91, 127
1, 11491, Note_on_c, 0, 70, 56
1, 11491, Note_on_c, 0, 67, 56
1, 11491, Note_on_c, 0, 72, 56
1, 11596, Note_on_c, 0, 60, 0
1, 11596, Note_on_c, 0, 60, 70
1, 11700, Note_on_c, 0, 72, 0
1, 11700, Note_on_c, 0, 67, 0
1, 11700, Note_on_c, 0, 70, 0
1, 11703, Note_on_c, 0, 72, 56
1, 11703, Note_on_c, 0, 67, 56
1, 11703, Note_on_c, 0, 70, 56
1, 11799, Note_on_c, 0, 70, 0
1, 11799, Note_on_c, 0, 67, 0
1, 11799, Note_on_c, 0, 72, 0
1, 11802, Note_on_c, 0, 70, 69
1, 11802, Note_on_c, 0, 73, 69
1, 11802, Note_on_c, 0, 67, 69
1, 11805, Note_on_c, 0, 60, 0
1, 11805, Note_on_c, 0, 52, 0
1, 11805, Note_on_c, 0, 61, 70
1, 11808, Note_on_c, 0, 51, 70
1, 11989, Note_on_c, 0, 67, 0
1, 11989, Note_on_c, 0, 73, 0
1, 11989, Note_on_c, 0, 70, 0
1, 11992, Control_c, 0, 91, 127
1, 11992, Note_on_c, 0, 51, 0
1, 11992, Note_on_c, 0, 50, 80
1, 11995, Control_c, 0, 91, 127
1, 12081, Note_on_c, 0, 70, 59
1, 12081, Note_on_c, 0, 67, 59
1, 12081, Note_on_c, 0, 74, 59
1, 12186, Note_on_c, 0, 61, 0
1, 12186, Note_on_c, 0, 62, 75
1, 12290, Note_on_c, 0, 74, 0
1, 12290, Note_on_c, 0, 67, 0
1, 12290, Note_on_c, 0, 70, 0
1, 12293, Note_on_c, 0, 74, 59
1, 12293, Note_on_c, 0, 67, 59
1, 12293, Note_on_c, 0, 70, 59
1, 12389, Note_on_c, 0, 70, 0
1, 12389, Note_on_c, 0, 67, 0
1, 12389, Note_on_c, 0, 74, 0
1, 12392, Note_on_c, 0, 70, 75
1, 12392, Note_on_c, 0, 76, 75
1, 12392, Note_on_c, 0, 67, 75
1, 12395, Note_on_c, 0, 62, 0
1, 12395, Note_on_c, 0, 50, 0
1, 12395, Note_on_c, 0, 64, 75
1, 12398, Note_on_c, 0, 49, 75
1, 12579, Note_on_c, 0, 67, 0
1, 12579, Note_on_c, 0, 76, 0
1, 12579, Note_on_c, 0, 70, 0
1, 12582, Control_c, 0, 91, 127
1, 12582, Note_on_c, 0, 49, 0
1, 12582, Note_on_c, 0, 64, 0
1, 12585, Note_on_c, 0, 50, 88
1, 12585, Control_c, 0, 91, 127
1, 12672, Note_on_c, 0, 77, 61
1, 12672, Note_on_c, 0, 69, 61
1, 12672, Note_on_c, 0, 74, 61
1, 12776, Note_on_c, 0, 62, 83
1, 12881, Note_on_c, 0, 74, 0
1, 12881, Note_on_c, 0, 69, 0
1, 12881, Note_on_c, 0, 77, 0
1, 12884, Note_on_c, 0, 74, 61
1, 12884, Note_on_c, 0, 69, 61
1, 12884, Note_on_c, 0, 77, 61
1, 12978, Note_on_c, 0, 77, 0
1, 12978, Note_on_c, 0, 69, 0
1, 12978, Note_on_c, 0, 74, 0
1, 12981, Note_on_c, 0, 70, 84
1, 12981, Note_on_c, 0, 76, 84
1, 12981, Note_on_c, 0, 67, 84
1, 12984, Note_on_c, 0, 62, 0
1, 12984, Note_on_c, 0, 50, 0
1, 12984, Note_on_c, 0, 55, 79
1, 12987, Note_on_c, 0, 43, 79
1, 13167, Note_on_c, 0, 67, 0
1, 13167, Note_on_c, 0, 76, 0
1, 13167, Note_on_c, 0, 70, 0
1, 13170, Control_c, 0, 91, 127
1, 13170, Note_on_c, 0, 43, 0
1, 13170, Note_on_c, 0, 55, 0
1, 13173, Note_on_c, 0, 45, 103
1, 13173, Control_c, 0, 91, 127
1, 13259, Note_on_c, 0, 69, 69
1, 13259, Note_on_c, 0, 65, 69
1, 13259, Note_on_c, 0, 74, 69
1, 13363, Note_on_c, 0, 57, 99
1, 13468, Note_on_c, 0, 74, 0
1, 13468, Note_on_c, 0, 65, 0
1, 13468, Note_on_c, 0, 69, 0
1, 13471, Note_on_c, 0, 69, 69
1, 13471, Note_on_c, 0, 65, 69
1, 13471, Note_on_c, 0, 74, 69
1, 13566, Note_on_c, 0, 74, 0
1, 13566, Note_on_c, 0, 65, 0
1, 13566, Note_on_c, 0, 69, 0
1, 13569, Note_on_c, 0, 69, 90
1, 13569, Note_on_c, 0, 73, 90
1, 13569, Note_on_c, 0, 64, 90
1, 13572, Note_on_c, 0, 57, 0
1, 13572, Note_on_c, 0, 45, 0
1, 13572, Note_on_c, 0, 45, 97
1, 13575, Note_on_c, 0, 33, 97
1, 13756, Note_on_c, 0, 64, 0
1, 13756, Note_on_c, 0, 73, 0
1, 13756, Note_on_c, 0, 69, 0
1, 13759, Control_c, 0, 91, 127
1, 13759, Note_on_c, 0, 33, 0
1, 13759, Note_on_c, 0, 45, 0
1, 13762, Note_on_c, 0, 38, 110
1, 13762, Control_c, 0, 91, 127
1, 13849, Note_on_c, 0, 69, 74
1, 13849, Note_on_c, 0, 65, 74
1, 13849, Note_on_c, 0, 74, 74
1, 13953, Note_on_c, 0, 50, 103
1, 14058, Note_on_c, 0, 74, 0
1, 14058, Note_on_c, 0, 65, 0
1, 14058, Note_on_c, 0, 69, 0
1, 14061, Note_on_c, 0, 69, 75
1, 14061, Note_on_c, 0, 65, 75
1, 14061, Note_on_c, 0, 74, 75
1, 14155, Note_on_c, 0, 74, 0
1, 14155, Note_on_c, 0, 65, 0
1, 14155, Note_on_c, 0, 69, 0
1, 14158, Note_on_c, 0, 66, 94
1, 14158, Note_on_c, 0, 72, 94
1, 14158, Note_on_c, 0, 63, 94
1, 14161, Note_on_c, 0, 50, 0
1, 14161, Note_on_c, 0, 38, 0
1, 14161, Note_on_c, 0, 44, 99
1, 14164, Note_on_c, 0, 32, 99
1, 14344, Note_on_c, 0, 63, 0
1, 14344, Note_on_c, 0, 72, 0
1, 14344, Note_on_c, 0, 66, 0
1, 14347, Control_c, 0, 91, 127
1, 14347, Note_on_c, 0, 32, 0
1, 14347, Note_on_c, 0, 44, 0
1, 14350, Note_on_c, 0, 31, 113
1, 14350, Note_on_c, 0, 43, 113
1, 14350, Control_c, 0, 91, 127
1, 14436, Note_on_c, 0, 65, 81
1, 14436, Note_on_c, 0, 62, 81
1, 14436, Note_on_c, 0, 72, 81
1, 14540, Note_on_c, 0, 43, 0
1, 14540, Note_on_c, 0, 31, 0
1, 14540, Note_on_c, 0, 55, 108
1, 14645, Note_on_c, 0, 72, 0
1, 14645, Note_on_c, 0, 62, 0
1, 14645, Note_on_c, 0, 65, 0
1, 14648, Note_on_c, 0, 65, 81
1, 14648, Note_on_c, 0, 62, 81
1, 14648, Note_on_c, 0, 72, 81
1, 14744, Note_on_c, 0, 72, 0
1, 14744, Note_on_c, 0, 62, 0
1, 14744, Note_on_c, 0, 65, 0
1, 14747, Note_on_c, 0, 65, 96
1, 14747, Note_on_c, 0, 71, 96
1, 14747, Note_on_c, 0, 62, 96
1, 14750, Note_on_c, 0, 55, 0
1, 14750, Note_on_c, 0, 43, 102
1, 14750, Note_on_c, 0, 31, 102
1, 14935, Note_on_c, 0, 62, 0
1, 14935, Note_on_c, 0, 71, 0
1, 14935, Note_on_c, 0, 65, 0
1, 14938, Control_c, 0, 91, 127
1, 14938, Note_on_c, 0, 31, 0
1, 14938, Note_on_c, 0, 43, 0
1, 14941, Note_on_c, 0, 36, 116
1, 14941, Control_c, 0, 91, 127
1, 15027, Note_on_c, 0, 72, 79
1, 15027, Note_on_c, 0, 67, 79
1, 15132, Note_on_c, 0, 36, 0
1, 15132, Note_on_c, 0, 52, 97
1, 15236, Note_on_c, 0, 67, 0
1, 15236, Note_on_c, 0, 72, 0
1, 15236, Note_on_c, 0, 67, 79
1, 15239, Note_on_c, 0, 72, 79
1, 15334, Note_on_c, 0, 72, 0
1, 15334, Note_on_c, 0, 67, 0
1, 15334, Note_on_c, 0, 72, 98
1, 15337, Note_on_c, 0, 69, 98
1, 15337, Note_on_c, 0, 52, 0
1, 15337, Note_on_c, 0, 53, 93
1, 15522, Note_on_c, 0, 69, 0
1, 15522, Note_on_c, 0, 72, 0
1, 15522, Note_on_c, 0, 53, 0
1, 15525, Note_on_c, 0, 52, 116
1, 15614, Note_on_c, 0, 67, 82
1, 15614, Note_on_c, 0, 72, 82
1, 15718, Note_on_c, 0, 36, 97
1, 15823, Note_on_c, 0, 72, 0
1, 15823, Note_on_c, 0, 67, 0
1, 15823, Note_on_c, 0, 72, 82
1, 15826, Note_on_c, 0, 67, 82
1, 15918, Note_on_c, 0, 67, 0
1, 15918, Note_on_c, 0, 72, 0
1, 15918, Note_on_c, 0, 67, 98
1, 15921, Note_on_c, 0, 72, 98
1, 15921, Note_on_c, 0, 64, 98
1, 15921, Note_on_c, 0, 52, 0
1, 15924, Note_on_c, 0, 48, 94
1, 16106, Note_on_c, 0, 64, 0
1, 16106, Note_on_c, 0, 72, 0
1, 16106, Note_on_c, 0, 67, 0
1, 16109, Note_on_c, 0, 48, 0
1, 16109, Note_on_c, 0, 36, 0
1, 16109, Note_on_c, 0, 50, 118
1, 16198, Note_on_c, 0, 72, 88
1, 16198, Note_on_c, 0, 67, 88
1, 16198, Note_on_c, 0, 65, 88
1, 16303, Note_on_c, 0, 36, 99
1, 16407, Note_on_c, 0, 65, 0
1, 16407, Note_on_c, 0, 67, 0
1, 16407, Note_on_c, 0, 72, 0
1, 16410, Note_on_c, 0, 72, 88
1, 16410, Note_on_c, 0, 67, 88
1, 16410, Note_on_c, 0, 65, 88
1, 16503, Note_on_c, 0, 65, 0
1, 16503, Note_on_c, 0, 67, 0
1, 16503, Note_on_c, 0, 72, 0
1, 16506, Note_on_c, 0, 72, 104
1, 16506, Note_on_c, 0, 67, 104
1, 16506, Note_on_c, 0, 67, 104
1, 16509, Note_on_c, 0, 50, 0
1, 16509, Note_on_c, 0, 52, 94
1, 16690, Note_on_c, 0, 67, 0
1, 16690, Note_on_c, 0, 67, 0
1, 16690, Note_on_c, 0, 72, 0
1, 16693, Note_on_c, 0, 52, 0
1, 16693, Note_on_c, 0, 36, 0
1, 16693, Note_on_c, 0, 48, 117
1, 16781, Note_on_c, 0, 72, 91
1, 16781, Note_on_c, 0, 67, 91
1, 16781, Note_on_c, 0, 64, 91
1, 16886, Note_on_c, 0, 36, 100
1, 16990, Note_on_c, 0, 64, 0
1, 16990, Note_on_c, 0, 67, 0
1, 16990, Note_on_c, 0, 72, 0
1, 16993, Note_on_c, 0, 72, 91
1, 16993, Note_on_c, 0, 67, 91
1, 16993, Note_on_c, 0, 64, 91
1, 17092, Note_on_c, 0, 64, 0
1, 17092, Note_on_c, 0, 67, 0
1, 17092, Note_on_c, 0, 72, 0
1, 17095, Note_on_c, 0, 72, 107
1, 17095, Note_on_c, 0, 67, 107
1, 17095, Note_on_c, 0, 60, 107
1, 17098, Note_on_c, 0, 48, 0
1, 17098, Note_on_c, 0, 43, 98
1, 17283, Note_on_c, 0, 60, 0
1, 17283, Note_on_c, 0, 67, 0
1, 17283, Note_on_c, 0, 72, 0
1, 17286, Control_c, 0, 91, 127
1, 17286, Note_on_c, 0, 43, 0
1, 17286, Note_on_c, 0, 36, 0
1, 17289, Note_on_c, 0, 52, 116
1, 17289, Note_on_c, 0, 43, 98
1, 17289, Control_c, 0, 91, 127
1, 17375, Note_on_c, 0, 64, 82
1, 17375, Note_on_c, 0, 72, 82
1, 17375, Note_on_c, 0, 67, 82
1, 17479, Note_on_c, 0, 36, 93
1, 17584, Note_on_c, 0, 67, 0
1, 17584, Note_on_c, 0, 72, 0
1, 17584, Note_on_c, 0, 64, 0
1, 17587, Note_on_c, 0, 64, 82
1, 17587, Note_on_c, 0, 67, 82
1, 17587, Note_on_c, 0, 72, 82
1, 17679, Note_on_c, 0, 72, 0
1, 17679, Note_on_c, 0, 67, 0
1, 17679, Note_on_c, 0, 64, 0
1, 17682, Note_on_c, 0, 65, 99
1, 17682, Note_on_c, 0, 72, 99
1, 17682, Note_on_c, 0, 67, 99
1, 17685, Note_on_c, 0, 43, 0
1, 17685, Note_on_c, 0, 52, 0
1, 17685, Note_on_c, 0, 45, 86
1, 17688, Note_on_c, 0, 53, 101
1, 17867, Note_on_c, 0, 67, 0
1, 17867, Note_on_c, 0, 72, 0
1, 17867, Note_on_c, 0, 65, 0
1, 17870, Note_on_c, 0, 53, 0
1, 17870, Note_on_c, 0, 45, 0
1, 17870, Note_on_c, 0, 36, 0
1, 17873, Note_on_c, 0, 43, 98
1, 17873, Note_on_c, 0, 52, 116
1, 17959, Note_on_c, 0, 64, 82
1, 17959, Note_on_c, 0, 67, 82
1, 17959, Note_on_c, 0, 72, 82
1, 18063, Note_on_c, 0, 36, 93
1, 18168, Note_on_c, 0, 72, 0
1, 18168, Note_on_c, 0, 67, 0
1, 18168, Note_on_c, 0, 64, 0
1, 18171, Note_on_c, 0, 64, 82
1, 18171, Note_on_c, 0, 72, 82
1, 18171, Note_on_c, 0, 67, 82
1, 18262, Note_on_c, 0, 67, 0
1, 18262, Note_on_c, 0, 72, 0
1, 18262, Note_on_c, 0, 64, 0
1, 18265, Note_on_c, 0, 67, 98
1, 18265, Note_on_c, 0, 72, 98
1, 18265, Note_on_c, 0, 60, 98
1, 18268, Note_on_c, 0, 52, 0
1, 18268, Note_on_c, 0, 43, 0
1, 18268, Note_on_c, 0, 40, 85
1, 18271, Note_on_c, 0, 48, 100
1, 18448, Note_on_c, 0, 60, 0
1, 18448, Note_on_c, 0, 72, 0
1, 18448, Note_on_c, 0, 67, 0
1, 18451, Note_on_c, 0, 48, 0
1, 18451, Note_on_c, 0, 40, 0
1, 18451, Note_on_c, 0, 36, 0
1, 18454, Note_on_c, 0, 41, 97
1, 18454, Note_on_c, 0, 50, 114
1, 18539, Note_on_c, 0, 72, 81
1, 18539, Note_on_c, 0, 62, 81
1, 18539, Note_on_c, 0, 67, 81
1, 18645, Note_on_c, 0, 36, 94
1, 18751, Note_on_c, 0, 67, 0
1, 18751, Note_on_c, 0, 62, 0
1, 18751, Note_on_c, 0, 72, 0
1, 18754, Note_on_c, 0, 72, 81
1, 18754, Note_on_c, 0, 62, 81
1, 18754, Note_on_c, 0, 67, 81
1, 18852, Note_on_c, 0, 67, 0
1, 18852, Note_on_c, 0, 62, 0
1, 18852, Note_on_c, 0, 72, 0
1, 18855, Note_on_c, 0, 72, 98
1, 18855, Note_on_c, 0, 64, 98
1, 18855, Note_on_c, 0, 67, 98
1, 18858, Note_on_c, 0, 50, 0
1, 18858, Note_on_c, 0, 41, 0
1, 18858, Note_on_c, 0, 43, 86
1, 18861, Note_on_c, 0, 52, 101
1, 19045, Note_on_c, 0, 67, 0
1, 19045, Note_on_c, 0, 64, 0
1, 19045, Note_on_c, 0, 72, 0
1, 19048, Note_on_c, 0, 52, 0
1, 19048, Note_on_c, 0, 43, 0
1, 19048, Note_on_c, 0, 36, 0
1, 19051, Note_on_c, 0, 40, 96
1, 19051, Note_on_c, 0, 48, 113
1, 19137, Note_on_c, 0, 72, 80
1, 19137, Note_on_c, 0, 67, 80
1, 19137, Note_on_c, 0, 60, 80
1, 19244, Note_on_c, 0, 36, 95
1, 19350, Note_on_c, 0, 60, 0
1, 19350, Note_on_c, 0, 67, 0
1, 19350, Note_on_c, 0, 72, 0
1, 19353, Note_on_c, 0, 72, 80
1, 19353, Note_on_c, 0, 60, 80
1, 19452, Note_on_c, 0, 60, 0
1, 19452, Note_on_c, 0, 72, 0
1, 19452, Note_on_c, 0, 72, 99
1, 19455, Note_on_c, 0, 60, 99
1, 19455, Note_on_c, 0, 48, 0
1, 19455, Note_on_c, 0, 40, 0
1, 19458, Note_on_c, 0, 48, 103
1, 19602, Note_on_c, 0, 60, 0
1, 19602, Note_on_c, 0, 72, 0
1, 19602, Note_on_c, 0, 48, 0
1, 19658, Control_c, 0, 91, 127
1, 19658, Note_on_c, 0, 36, 0
1, 19658, Note_on_c, 0, 58, 62
1, 19661, Control_c, 0, 91, 127
1, 19750, Note_on_c, 0, 67, 48
1, 19750, Note_on_c, 0, 64, 48
1, 19750, Note_on_c, 0, 72, 48
1, 19854, Note_on_c, 0, 60, 60
1, 19959, Note_on_c, 0, 72, 0
1, 19959, Note_on_c, 0, 64, 0
1, 19959, Note_on_c, 0, 67, 0
1, 19962, Note_on_c, 0, 72, 48
1, 19962, Note_on_c, 0, 64, 48
1, 19962, Note_on_c, 0, 67, 48
1, 20057, Note_on_c, 0, 67, 0
1, 20057, Note_on_c, 0, 64, 0
1, 20057, Note_on_c, 0, 72, 0
1, 20060, Note_on_c, 0, 69, 58
1, 20060, Note_on_c, 0, 72, 58
1, 20060, Note_on_c, 0, 64, 58
1, 20063, Note_on_c, 0, 58, 0
1, 20063, Note_on_c, 0, 57, 58
1, 20245, Note_on_c, 0, 64, 0
1, 20245, Note_on_c, 0, 72, 0
1, 20245, Note_on_c, 0, 69, 0
1, 20248, Control_c, 0, 91, 127
1, 20248, Note_on_c, 0, 57, 0
1, 20248, Note_on_c, 0, 55, 66
1, 20251, Control_c, 0, 91, 127
1, 20337, Note_on_c, 0, 70, 49
1, 20337, Note_on_c, 0, 64, 49
1, 20337, Note_on_c, 0, 72, 49
1, 20442, Note_on_c, 0, 60, 0
1, 20442, Note_on_c, 0, 60, 62
1, 20546, Note_on_c, 0, 72, 0
1, 20546, Note_on_c, 0, 64, 0
1, 20546, Note_on_c, 0, 70, 0
1, 20549, Note_on_c, 0, 72, 49
1, 20549, Note_on_c, 0, 64, 49
1, 20549, Note_on_c, 0, 70, 49
1, 20644, Note_on_c, 0, 70, 0
1, 20644, Note_on_c, 0, 64, 0
1, 20644, Note_on_c, 0, 72, 0
1, 20647, Note_on_c, 0, 70, 60
1, 20647, Note_on_c, 0, 72, 60
1, 20647, Note_on_c, 0, 65, 60
1, 20650, Note_on_c, 0, 55, 0
1, 20650, Note_on_c, 0, 53, 60
1, 20832, Note_on_c, 0, 65, 0
1, 20832, Note_on_c, 0, 72, 0
1, 20832, Note_on_c, 0, 70, 0
1, 20835, Control_c, 0, 91, 127
1, 20835, Note_on_c, 0, 53, 0
1, 20835, Note_on_c, 0, 52, 72
1, 20838, Control_c, 0, 91, 127
1, 20924, Note_on_c, 0, 70, 56
1, 20924, Note_on_c, 0, 67, 56
1, 20924, Note_on_c, 0, 72, 56
1, 21029, Note_on_c, 0, 60, 0
1, 21029, Note_on_c, 0, 60, 70
1, 21133, Note_on_c, 0, 72, 0
1, 21133, Note_on_c, 0, 67, 0
1, 21133, Note_on_c, 0, 70, 0
1, 21136, Note_on_c, 0, 72, 56
1, 21136, Note_on_c, 0, 67, 56
1, 21136, Note_on_c, 0, 70, 56
1, 21232, Note_on_c, 0, 70, 0
1, 21232, Note_on_c, 0, 67, 0
1, 21232, Note_on_c, 0, 72, 0
1, 21235, Note_on_c, 0, 70, 69
1, 21235, Note_on_c, 0, 73, 69
1, 21235, Note_on_c, 0, 67, 69
1, 21238, Note_on_c, 0, 60, 0
1, 21238, Note_on_c, 0, 52, 0
1, 21238, Note_on_c, 0, 61, 70
1, 21241, Note_on_c, 0, 51, 70
1, 21422, Note_on_c, 0, 67, 0
1, 21422, Note_on_c, 0, 73, 0
1, 21422, Note_on_c, 0, 70, 0
1, 21425, Control_c, 0, 91, 127
1, 21425, Note_on_c, 0, 51, 0
1, 21425, Note_on_c, 0, 50, 80
1, 21428, Control_c, 0, 91, 127
1, 21514, Note_on_c, 0, 70, 59
1, 21514, Note_on_c, 0, 67, 59
1, 21514, Note_on_c, 0, 74, 59
1, 21619, Note_on_c, 0, 61, 0
1, 21619, Note_on_c, 0, 62, 75
1, 21723, Note_on_c, 0, 74, 0
1, 21723, Note_on_c, 0, 67, 0
1, 21723, Note_on_c, 0, 70, 0
1, 21726, Note_on_c, 0, 74, 59
1, 21726, Note_on_c, 0, 67, 59
1, 21726, Note_on_c, 0, 70, 59
1, 21822, Note_on_c, 0, 70, 0
1, 21822, Note_on_c, 0, 67, 0
1, 21822, Note_on_c, 0, 74, 0
1, 21825, Note_on_c, 0, 70, 75
1, 21825, Note_on_c, 0, 76, 75
1, 21825, Note_on_c, 0, 67, 75
1, 21828, Note_on_c, 0, 62, 0
1, 21828, Note_on_c, 0, 50, 0
1, 21828, Note_on_c, 0, 64, 75
1, 21831, Note_on_c, 0, 49, 75
1, 22012, Note_on_c, 0, 67, 0
1, 22012, Note_on_c, 0, 76, 0
1, 22012, Note_on_c, 0, 70, 0
1, 22015, Control_c, 0, 91, 127
1, 22015, Note_on_c, 0, 49, 0
1, 22015, Note_on_c, 0, 64, 0
1, 22018, Note_on_c, 0, 50, 88
1, 22018, Control_c, 0, 91, 127
1, 22104, Note_on_c, 0, 77, 61
1, 22104, Note_on_c, 0, 69, 61
1, 22104, Note_on_c, 0, 74, 61
1, 22209, Note_on_c, 0, 62, 83
1, 22313, Note_on_c, 0, 74, 0
1, 22313, Note_on_c, 0, 69, 0
1, 22313, Note_on_c, 0, 77, 0
1, 22316, Note_on_c, 0, 74, 61
1, 22316, Note_on_c, 0, 69, 61
1, 22316, Note_on_c, 0, 77, 61
1, 22411, Note_on_c, 0, 77, 0
1, 22411, Note_on_c, 0, 69, 0
1, 22411, Note_on_c, 0, 74, 0
1, 22414, Note_on_c, 0, 70, 84
1, 22414, Note_on_c, 0, 76, 84
1, 22414, Note_on_c, 0, 67, 84
1, 22417, Note_on_c, 0, 62, 0
1, 22417, Note_on_c, 0, 50, 0
1, 22417, Note_on_c, 0, 55, 79
1, 22420, Note_on_c, 0, 43, 79
1, 22599, Note_on_c, 0, 67, 0
1, 22599, Note_on_c, 0, 76, 0
1, 22599, Note_on_c, 0, 70, 0
1, 22602, Control_c, 0, 91, 127
1, 22602, Note_on_c, 0, 43, 0
1, 22602, Note_on_c, 0, 55, 0
1, 22605, Note_on_c, 0, 45, 103
1, 22605, Control_c, 0, 91, 127
1, 22691, Note_on_c, 0, 69, 69
1, 22691, Note_on_c, 0, 65, 69
1, 22691, Note_on_c, 0, 74, 69
1, 22796, Note_on_c, 0, 57, 99
1, 22900, Note_on_c, 0, 74, 0
1, 22900, Note_on_c, 0, 65, 0
1, 22900, Note_on_c, 0, 69, 0
1, 22903, Note_on_c, 0, 69, 69
1, 22903, Note_on_c, 0, 65, 69
1, 22903, Note_on_c, 0, 74, 69
1, 22999, Note_on_c, 0, 74, 0
1, 22999, Note_on_c, 0, 65, 0
1, 22999, Note_on_c, 0, 69, 0
1, 23002, Note_on_c, 0, 69, 90
1, 23002, Note_on_c, 0, 73, 90
1, 23002, Note_on_c, 0, 64, 90
1, 23005, Note_on_c, 0, 57, 0
1, 23005, Note_on_c, 0, 45, 0
1, 23005, Note_on_c, 0, 45, 97
1, 23008, Note_on_c, 0, 33, 97
1, 23189, Note_on_c, 0, 64, 0
1, 23189, Note_on_c, 0, 73, 0
1, 23189, Note_on_c, 0, 69, 0
1, 23192, Control_c, 0, 91, 127
1, 23192, Note_on_c, 0, 33, 0
1, 23192, Note_on_c, 0, 45, 0
1, 23195, Note_on_c, 0, 38, 110
1, 23195, Control_c, 0, 91, 127
1, 23281, Note_on_c, 0, 69, 74
1, 23281, Note_on_c, 0, 65, 74
1, 23281, Note_on_c, 0, 74, 74
1, 23386, Note_on_c, 0, 50, 103
1, 23490, Note_on_c, 0, 74, 0
1, 23490, Note_on_c, 0, 65, 0
1, 23490, Note_on_c, 0, 69, 0
1, 23493, Note_on_c, 0, 69, 75
1, 23493, Note_on_c, 0, 65, 75
1, 23493, Note_on_c, 0, 74, 75
1, 23588, Note_on_c, 0, 74, 0
1, 23588, Note_on_c, 0, 65, 0
1, 23588, Note_on_c, 0, 69, 0
1, 23591, Note_on_c, 0, 66, 94
1, 23591, Note_on_c, 0, 72, 94
1, 23591, Note_on_c, 0, 63, 94
1, 23594, Note_on_c, 0, 50, 0
1, 23594, Note_on_c, 0, 38, 0
1, 23594, Note_on_c, 0, 44, 99
1, 23597, Note_on_c, 0, 32, 99
1, 23776, Note_on_c, 0, 63, 0
1, 23776, Note_on_c, 0, 72, 0
1, 23776, Note_on_c, 0, 66, 0
1, 23779, Control_c, 0, 91, 127
1, 23779, Note_on_c, 0, 32, 0
1, 23779, Note_on_c, 0, 44, 0
1, 23782, Note_on_c, 0, 31, 113
1, 23782, Note_on_c, 0, 43, 113
1, 23782, Control_c, 0, 91, 127
1, 23868, Note_on_c, 0, 65, 81
1, 23868, Note_on_c, 0, 62, 81
1, 23868, Note_on_c, 0, 72, 81
1, 23973, Note_on_c, 0, 43, 0
1, 23973, Note_on_c, 0, 31, 0
1, 23973, Note_on_c, 0, 55, 108
1, 24077, Note_on_c, 0, 72, 0
1, 24077, Note_on_c, 0, 62, 0
1, 24077, Note_on_c, 0, 65, 0
1, 24080, Note_on_c, 0, 65, 81
1, 24080, Note_on_c, 0, 62, 81
1, 24080, Note_on_c, 0, 72, 81
1, 24177, Note_on_c, 0, 72, 0
1, 24177, Note_on_c, 0, 62, 0
1, 24177, Note_on_c, 0, 65, 0
1, 24180, Note_on_c, 0, 65, 96
1, 24180, Note_on_c, 0, 71, 96
1, 24180, Note_on_c, 0, 62, 96
1, 24183, Note_on_c, 0, 55, 0
1, 24183, Note_on_c, 0, 43, 102
1, 24183, Note_on_c, 0, 31, 102
1, 24368, Note_on_c, 0, 62, 0
1, 24368, Note_on_c, 0, 71, 0
1, 24368, Note_on_c, 0, 65, 0
1, 24371, Control_c, 0, 91, 127
1, 24371, Note_on_c, 0, 31, 0
1, 24371, Note_on_c, 0, 43, 0
1, 24374, Note_on_c, 0, 36, 120
1, 24374, Control_c, 0, 91, 127
1, 24460, Note_on_c, 0, 72, 79
1, 24460, Note_on_c, 0, 67, 79
1, 24564, Note_on_c, 0, 36, 0
1, 24564, Note_on_c, 0, 52, 98
1, 24669, Note_on_c, 0, 67, 0
1, 24669, Note_on_c, 0, 72, 0
1, 24669, Note_on_c, 0, 67, 79
1, 24672, Note_on_c, 0, 72, 79
1, 24767, Note_on_c, 0, 72, 0
1, 24767, Note_on_c, 0, 67, 0
1, 24767, Note_on_c, 0, 72, 98
1, 24770, Note_on_c, 0, 69, 98
1, 24770, Note_on_c, 0, 52, 0
1, 24770, Note_on_c, 0, 53, 93
1, 24955, Note_on_c, 0, 69, 0
1, 24955, Note_on_c, 0, 72, 0
1, 24955, Note_on_c, 0, 53, 0
1, 24958, Note_on_c, 0, 52, 118
1, 25047, Note_on_c, 0, 67, 82
1, 25047, Note_on_c, 0, 72, 82
1, 25151, Note_on_c, 0, 36, 98
1, 25256, Note_on_c, 0, 72, 0
1, 25256, Note_on_c, 0, 67, 0
1, 25256, Note_on_c, 0, 72, 82
1, 25259, Note_on_c, 0, 67, 82
1, 25351, Note_on_c, 0, 67, 0
1, 25351, Note_on_c, 0, 72, 0
1, 25351, Note_on_c, 0, 67, 98
1, 25354, Note_on_c, 0, 72, 98
1, 25354, Note_on_c, 0, 64, 98
1, 25354, Note_on_c, 0, 52, 0
1, 25357, Note_on_c, 0, 48, 93
1, 25539, Note_on_c, 0, 64, 0
1, 25539, Note_on_c, 0, 72, 0
1, 25539, Note_on_c, 0, 67, 0
1, 25542, Note_on_c, 0, 48, 0
1, 25542, Note_on_c, 0, 36, 0
1, 25542, Note_on_c, 0, 50, 116
1, 25631, Note_on_c, 0, 72, 88
1, 25631, Note_on_c, 0, 67, 88
1, 25631, Note_on_c, 0, 65, 88
1, 25735, Note_on_c, 0, 36, 98
1, 25840, Note_on_c, 0, 65, 0
1, 25840, Note_on_c, 0, 67, 0
1, 25840, Note_on_c, 0, 72, 0
1, 25843, Note_on_c, 0, 72, 88
1, 25843, Note_on_c, 0, 67, 88
1, 25843, Note_on_c, 0, 65, 88
1, 25935, Note_on_c, 0, 65, 0
1, 25935, Note_on_c, 0, 67, 0
1, 25935, Note_on_c, 0, 72, 0
1, 25938, Note_on_c, 0, 72, 106
1, 25938, Note_on_c, 0, 67, 106
1, 25938, Note_on_c, 0, 67, 106
1, 25941, Note_on_c, 0, 50, 0
1, 25941, Note_on_c, 0, 52, 95
1, 26123, Note_on_c, 0, 67, 0
1, 26123, Note_on_c, 0, 67, 0
1, 26123, Note_on_c, 0, 72, 0
1, 26126, Note_on_c, 0, 52, 0
1, 26126, Note_on_c, 0, 36, 0
1, 26126, Note_on_c, 0, 48, 117
1, 26214, Note_on_c, 0, 72, 91
1, 26214, Note_on_c, 0, 67, 91
1, 26214, Note_on_c, 0, 64, 91
1, 26319, Note_on_c, 0, 36, 99
1, 26423, Note_on_c, 0, 64, 0
1, 26423, Note_on_c, 0, 67, 0
1, 26423, Note_on_c, 0, 72, 0
1, 26426, Note_on_c, 0, 72, 91
1, 26426, Note_on_c, 0, 67, 91
1, 26426, Note_on_c, 0, 64, 91
1, 26525, Note_on_c, 0, 64, 0
1, 26525, Note_on_c, 0, 67, 0
1, 26525, Note_on_c, 0, 72, 0
1, 26528, Note_on_c, 0, 72, 106
1, 26528, Note_on_c, 0, 67, 106
1, 26528, Note_on_c, 0, 60, 106
1, 26531, Note_on_c, 0, 48, 0
1, 26531, Note_on_c, 0, 43, 95
1, 26716, Note_on_c, 0, 60, 0
1, 26716, Note_on_c, 0, 67, 0
1, 26716, Note_on_c, 0, 72, 0
1, 26719, Control_c, 0, 91, 127
1, 26719, Note_on_c, 0, 43, 0
1, 26719, Note_on_c, 0, 36, 0
1, 26722, Note_on_c, 0, 52, 115
1, 26722, Note_on_c, 0, 43, 115
1, 26722, Control_c, 0, 91, 127
1, 26808, Note_on_c, 0, 64, 86
1, 26808, Note_on_c, 0, 72, 86
1, 26808, Note_on_c, 0, 67, 86
1, 26912, Note_on_c, 0, 36, 97
1, 27016, Note_on_c, 0, 67, 0
1, 27016, Note_on_c, 0, 72, 0
1, 27016, Note_on_c, 0, 64, 0
1, 27019, Note_on_c, 0, 64, 86
1, 27019, Note_on_c, 0, 67, 86
1, 27019, Note_on_c, 0, 72, 86
1, 27113, Note_on_c, 0, 72, 0
1, 27113, Note_on_c, 0, 67, 0
1, 27113, Note_on_c, 0, 64, 0
1, 27116, Note_on_c, 0, 65, 103
1, 27116, Note_on_c, 0, 72, 103
1, 27116, Note_on_c, 0, 67, 103
1, 27119, Note_on_c, 0, 43, 0
1, 27119, Note_on_c, 0, 52, 0
1, 27119, Note_on_c, 0, 45, 94
1, 27122, Note_on_c, 0, 53, 94
1, 27303, Note_on_c, 0, 67, 0
1, 27303, Note_on_c, 0, 72, 0
1, 27303, Note_on_c, 0, 65, 0
1, 27306, Note_on_c, 0, 53, 0
1, 27306, Note_on_c, 0, 45, 0
1, 27306, Note_on_c, 0, 36, 0
1, 27309, Note_on_c, 0, 43, 116
1, 27309, Note_on_c, 0, 52, 116
1, 27395, Note_on_c, 0, 64, 86
1, 27395, Note_on_c, 0, 67, 86
1, 27395, Note_on_c, 0, 72, 86
1, 27500, Note_on_c, 0, 36, 97
1, 27604, Note_on_c, 0, 72, 0
1, 27604, Note_on_c, 0, 67, 0
1, 27604, Note_on_c, 0, 64, 0
1, 27607, Note_on_c, 0, 64, 86
1, 27607, Note_on_c, 0, 72, 86
1, 27607, Note_on_c, 0, 67, 86
1, 27700, Note_on_c, 0, 67, 0
1, 27700, Note_on_c, 0, 72, 0
1, 27700, Note_on_c, 0, 64, 0
1, 27703, Note_on_c, 0, 67, 102
1, 27703, Note_on_c, 0, 72, 102
1, 27703, Note_on_c, 0, 60, 102
1, 27706, Note_on_c, 0, 52, 0
1, 27706, Note_on_c, 0, 43, 0
1, 27706, Note_on_c, 0, 40, 95
1, 27709, Note_on_c, 0, 48, 95
1, 27890, Note_on_c, 0, 60, 0
1, 27890, Note_on_c, 0, 72, 0
1, 27890, Note_on_c, 0, 67, 0
1, 27893, Note_on_c, 0, 48, 0
1, 27893, Note_on_c, 0, 40, 0
1, 27893, Note_on_c, 0, 36, 0
1, 27896, Note_on_c, 0, 41, 116
1, 27896, Note_on_c, 0, 50, 116
1, 27981, Note_on_c, 0, 72, 84
1, 27981, Note_on_c, 0, 62, 84
1, 27981, Note_on_c, 0, 67, 84
1, 28087, Note_on_c, 0, 36, 98
1, 28193, Note_on_c, 0, 67, 0
1, 28193, Note_on_c, 0, 62, 0
1, 28193, Note_on_c, 0, 72, 0
1, 28196, Note_on_c, 0, 72, 84
1, 28196, Note_on_c, 0, 62, 84
1, 28196, Note_on_c, 0, 67, 84
1, 28295, Note_on_c, 0, 67, 0
1, 28295, Note_on_c, 0, 62, 0
1, 28295, Note_on_c, 0, 72, 0
1, 28298, Note_on_c, 0, 72, 102
1, 28298, Note_on_c, 0, 64, 102
1, 28298, Note_on_c, 0, 67, 102
1, 28301, Note_on_c, 0, 50, 0
1, 28301, Note_on_c, 0, 41, 0
1, 28301, Note_on_c, 0, 43, 96
1, 28304, Note_on_c, 0, 52, 96
1, 28492, Note_on_c, 0, 67, 0
1, 28492, Note_on_c, 0, 64, 0
1, 28492, Note_on_c, 0, 72, 0
1, 28495, Note_on_c, 0, 52, 0
1, 28495, Note_on_c, 0, 43, 0
1, 28495, Note_on_c, 0, 36, 0
1, 28498, Note_on_c, 0, 40, 117
1, 28498, Note_on_c, 0, 48, 117
1, 28584, Note_on_c, 0, 72, 83
1, 28584, Note_on_c, 0, 67, 83
1, 28584, Note_on_c, 0, 60, 83
1, 28690, Note_on_c, 0, 36, 99
1, 28797, Note_on_c, 0, 60, 0
1, 28797, Note_on_c, 0, 67, 0
1, 28797, Note_on_c, 0, 72, 0
1, 28800, Note_on_c, 0, 72, 83
1, 28800, Note_on_c, 0, 60, 83
1, 28899, Note_on_c, 0, 60, 0
1, 28899, Note_on_c, 0, 72, 0
1, 28899, Note_on_c, 0, 72, 103
1, 28902, Note_on_c, 0, 60, 103
1, 28902, Note_on_c, 0, 48, 0
1, 28902, Note_on_c, 0, 40, 0
1, 28905, Note_on_c, 0, 48, 112
1, 29093, Note_on_c, 0, 60, 0
1, 29093, Note_on_c, 0, 72, 0
1, 29093, Note_on_c, 0, 48, 0
1, 29096, Note_on_c, 0, 36, 0
1, 30594, End_track
0, 0, End_of_file
