0, 0, Header, 0, 1, 384
1, 0, Start_track
1, 0, Tempo, 512820
1, 0, Title_t, "Kreisleriana Teil 5"
1, 0, Program_c, 0, 0
1, 0, Control_c, 0, 91, 127
1, 3, Program_c, 0, 0
1, 748, Note_on_c, 0, 31, 54
1, 748, Control_c, 0, 91, 127
1, 748, Program_c, 0, 0
1, 803, Note_on_c, 0, 31, 0
1, 1038, Note_on_c, 0, 55, 50
1, 1108, Note_on_c, 0, 55, 0
1, 1108, Note_on_c, 0, 57, 42
1, 1178, Note_on_c, 0, 57, 0
1, 1178, Note_on_c, 0, 55, 44
1, 1248, Note_on_c, 0, 55, 0
1, 1248, Note_on_c, 0, 50, 44
1, 1324, Note_on_c, 0, 50, 0
1, 1324, Note_on_c, 0, 62, 50
1, 1405, Note_on_c, 0, 62, 0
1, 1558, Note_on_c, 0, 50, 50
1, 1558, Note_on_c, 0, 55, 50
1, 1558, Note_on_c, 0, 34, 45
1, 1613, Note_on_c, 0, 55, 0
1, 1613, Note_on_c, 0, 50, 0
1, 1613, Note_on_c, 0, 34, 0
1, 1631, Note_on_c, 0, 54, 56
1, 1631, Note_on_c, 0, 48, 56
1, 1631, Note_on_c, 0, 33, 50
1, 1685, Note_on_c, 0, 48, 0
1, 1685, Note_on_c, 0, 54, 0
1, 1685, Note_on_c, 0, 33, 0
1, 1920, Note_on_c, 0, 60, 53
1, 1990, Note_on_c, 0, 60, 0
1, 1990, Note_on_c, 0, 62, 47
1, 2060, Note_on_c, 0, 62, 0
1, 2060, Note_on_c, 0, 60, 47
1, 2130, Note_on_c, 0, 60, 0
1, 2130, Note_on_c, 0, 57, 47
1, 2207, Note_on_c, 0, 57, 0
1, 2207, Note_on_c, 0, 69, 59
1, 2286, Note_on_c, 0, 69, 0
1, 2438, Note_on_c, 0, 50, 54
1, 2438, Note_on_c, 0, 60, 54
1, 2438, Note_on_c, 0, 30, 43
1, 2492, Note_on_c, 0, 60, 0
1, 2492, Note_on_c, 0, 50, 0
1, 2492, Note_on_c, 0, 30, 0
1, 2510, Note_on_c, 0, 58, 58
1, 2510, Note_on_c, 0, 50, 58
1, 2510, Note_on_c, 0, 31, 50
1, 2564, Note_on_c, 0, 50, 0
1, 2564, Note_on_c, 0, 58, 0
1, 2564, Note_on_c, 0, 31, 0
1, 2798, Note_on_c, 0, 55, 50
1, 2868, Note_on_c, 0, 55, 0
1, 2868, Note_on_c, 0, 57, 44
1, 2939, Note_on_c, 0, 57, 0
1, 2939, Note_on_c, 0, 55, 44
1, 3009, Note_on_c, 0, 55, 0
1, 3009, Note_on_c, 0, 50, 44
1, 3085, Note_on_c, 0, 50, 0
1, 3085, Note_on_c, 0, 67, 60
1, 3141, Note_on_c, 0, 67, 0
1, 3305, Note_on_c, 0, 55, 54
1, 3305, Note_on_c, 0, 65, 54
1, 3305, Note_on_c, 0, 34, 42
1, 3359, Note_on_c, 0, 65, 0
1, 3359, Note_on_c, 0, 55, 0
1, 3359, Note_on_c, 0, 34, 0
1, 3377, Note_on_c, 0, 63, 57
1, 3377, Note_on_c, 0, 55, 57
1, 3377, Note_on_c, 0, 36, 47
1, 3431, Note_on_c, 0, 55, 0
1, 3431, Note_on_c, 0, 63, 0
1, 3431, Note_on_c, 0, 36, 0
1, 3591, Note_on_c, 0, 55, 50
1, 3591, Note_on_c, 0, 62, 50
1, 3591, Note_on_c, 0, 38, 43
1, 3647, Note_on_c, 0, 62, 0
1, 3647, Note_on_c, 0, 55, 0
1, 3647, Note_on_c, 0, 38, 0
1, 3665, Note_on_c, 0, 60, 54
1, 3665, Note_on_c, 0, 55, 54
1, 3665, Note_on_c, 0, 39, 48
1, 3719, Note_on_c, 0, 55, 0
1, 3719, Note_on_c, 0, 60, 0
1, 3719, Note_on_c, 0, 39, 0
1, 3878, Note_on_c, 0, 58, 60
1, 3934, Note_on_c, 0, 58, 0
1, 3952, Note_on_c, 0, 57, 56
1, 3952, Note_on_c, 0, 61, 56
1, 3952, Note_on_c, 0, 51, 50
1, 4006, Note_on_c, 0, 61, 0
1, 4006, Note_on_c, 0, 57, 0
1, 4006, Note_on_c, 0, 51, 0
1, 4168, Note_on_c, 0, 55, 50
1, 4229, Note_on_c, 0, 55, 0
1, 4249, Note_on_c, 0, 54, 60
1, 4249, Note_on_c, 0, 62, 60
1, 4249, Note_on_c, 0, 38, 55
1, 4252, Note_on_c, 0, 50, 55
1, 4303, Note_on_c, 0, 62, 0
1, 4303, Note_on_c, 0, 54, 0
1, 4303, Note_on_c, 0, 50, 0
1, 4306, Note_on_c, 0, 38, 0
1, 4537, Note_on_c, 0, 74, 82
1, 4609, Control_c, 0, 64, 127
1, 4825, Note_on_c, 0, 62, 71
1, 4825, Note_on_c, 0, 30, 50
1, 5041, Note_on_c, 0, 74, 0
1, 5041, Note_on_c, 0, 72, 68
1, 5113, Note_on_c, 0, 72, 0
1, 5113, Note_on_c, 0, 70, 75
1, 5113, Note_on_c, 0, 30, 0
1, 5116, Note_on_c, 0, 31, 54
1, 5116, Control_c, 0, 64, 0
1, 5166, Note_on_c, 0, 70, 0
1, 5254, Note_on_c, 0, 31, 0
1, 5325, Note_on_c, 0, 69, 65
1, 5379, Note_on_c, 0, 69, 0
1, 5397, Note_on_c, 0, 62, 0
1, 5397, Note_on_c, 0, 67, 74
1, 5397, Note_on_c, 0, 70, 74
1, 5400, Note_on_c, 0, 55, 70
1, 5450, Note_on_c, 0, 67, 0
1, 5608, Note_on_c, 0, 65, 66
1, 5663, Note_on_c, 0, 65, 0
1, 5681, Note_on_c, 0, 70, 0
1, 5681, Note_on_c, 0, 63, 74
1, 5734, Note_on_c, 0, 63, 0
1, 5892, Note_on_c, 0, 62, 66
1, 5892, Note_on_c, 0, 55, 0
1, 5892, Note_on_c, 0, 53, 61
1, 5947, Note_on_c, 0, 62, 0
1, 5965, Note_on_c, 0, 60, 74
1, 5965, Note_on_c, 0, 53, 0
1, 5965, Note_on_c, 0, 51, 68
1, 6017, Note_on_c, 0, 60, 0
1, 6017, Note_on_c, 0, 51, 0
1, 6175, Note_on_c, 0, 50, 61
1, 6230, Note_on_c, 0, 50, 0
1, 6248, Note_on_c, 0, 77, 78
1, 6248, Note_on_c, 0, 48, 67
1, 6302, Note_on_c, 0, 48, 0
1, 6358, Control_c, 0, 64, 127
1, 6464, Note_on_c, 0, 46, 60
1, 6518, Note_on_c, 0, 46, 0
1, 6536, Note_on_c, 0, 65, 71
1, 6536, Note_on_c, 0, 33, 50
1, 6752, Note_on_c, 0, 77, 0
1, 6752, Note_on_c, 0, 75, 68
1, 6824, Note_on_c, 0, 75, 0
1, 6824, Note_on_c, 0, 74, 75
1, 6824, Note_on_c, 0, 33, 0
1, 6827, Note_on_c, 0, 34, 54
1, 6877, Note_on_c, 0, 74, 0
1, 6891, Control_c, 0, 64, 0
1, 6965, Note_on_c, 0, 34, 0
1, 7036, Note_on_c, 0, 72, 65
1, 7090, Note_on_c, 0, 72, 0
1, 7108, Note_on_c, 0, 65, 0
1, 7108, Note_on_c, 0, 70, 74
1, 7108, Note_on_c, 0, 74, 74
1, 7111, Note_on_c, 0, 58, 70
1, 7161, Note_on_c, 0, 70, 0
1, 7319, Note_on_c, 0, 69, 66
1, 7373, Note_on_c, 0, 69, 0
1, 7392, Note_on_c, 0, 74, 0
1, 7392, Note_on_c, 0, 67, 74
1, 7444, Note_on_c, 0, 67, 0
1, 7603, Note_on_c, 0, 65, 66
1, 7603, Note_on_c, 0, 58, 0
1, 7603, Note_on_c, 0, 57, 61
1, 7658, Note_on_c, 0, 65, 0
1, 7676, Note_on_c, 0, 64, 74
1, 7676, Note_on_c, 0, 57, 0
1, 7676, Note_on_c, 0, 55, 68
1, 7728, Note_on_c, 0, 64, 0
1, 7728, Note_on_c, 0, 55, 0
1, 7886, Note_on_c, 0, 53, 61
1, 7941, Note_on_c, 0, 53, 0
1, 7959, Note_on_c, 0, 81, 80
1, 7959, Note_on_c, 0, 52, 67
1, 8013, Note_on_c, 0, 52, 0
1, 8058, Control_c, 0, 64, 127
1, 8175, Note_on_c, 0, 50, 60
1, 8229, Note_on_c, 0, 50, 0
1, 8247, Note_on_c, 0, 69, 71
1, 8247, Note_on_c, 0, 37, 50
1, 8463, Note_on_c, 0, 81, 0
1, 8463, Note_on_c, 0, 79, 68
1, 8535, Note_on_c, 0, 79, 0
1, 8535, Note_on_c, 0, 78, 75
1, 8535, Note_on_c, 0, 37, 0
1, 8538, Note_on_c, 0, 38, 54
1, 8538, Control_c, 0, 64, 0
1, 8588, Note_on_c, 0, 78, 0
1, 8676, Note_on_c, 0, 38, 0
1, 8746, Note_on_c, 0, 75, 65
1, 8801, Note_on_c, 0, 75, 0
1, 8819, Note_on_c, 0, 69, 0
1, 8819, Note_on_c, 0, 74, 74
1, 8819, Note_on_c, 0, 78, 74
1, 8822, Note_on_c, 0, 62, 68
1, 8872, Note_on_c, 0, 74, 0
1, 9030, Note_on_c, 0, 72, 66
1, 9084, Note_on_c, 0, 72, 0
1, 9103, Note_on_c, 0, 78, 0
1, 9103, Note_on_c, 0, 79, 74
1, 9103, Note_on_c, 0, 70, 74
1, 9155, Note_on_c, 0, 70, 0
1, 9155, Note_on_c, 0, 79, 0
1, 9314, Note_on_c, 0, 69, 66
1, 9314, Note_on_c, 0, 62, 0
1, 9314, Note_on_c, 0, 60, 61
1, 9369, Note_on_c, 0, 69, 0
1, 9369, Note_on_c, 0, 60, 0
1, 9387, Note_on_c, 0, 67, 74
1, 9387, Note_on_c, 0, 58, 68
1, 9439, Note_on_c, 0, 67, 0
1, 9439, Note_on_c, 0, 58, 0
1, 9597, Note_on_c, 0, 57, 61
1, 9652, Note_on_c, 0, 57, 0
1, 9670, Note_on_c, 0, 70, 81
1, 9670, Note_on_c, 0, 55, 67
1, 9724, Note_on_c, 0, 55, 0
1, 9886, Note_on_c, 0, 53, 60
1, 9940, Note_on_c, 0, 53, 0
1, 9958, Note_on_c, 0, 70, 0
1, 9958, Note_on_c, 0, 69, 62
1, 9958, Note_on_c, 0, 73, 72
1, 9961, Note_on_c, 0, 52, 67
1, 10012, Note_on_c, 0, 52, 0
1, 10033, Control_c, 0, 64, 127
1, 10174, Note_on_c, 0, 69, 0
1, 10174, Note_on_c, 0, 67, 68
1, 10174, Note_on_c, 0, 51, 60
1, 10228, Note_on_c, 0, 51, 0
1, 10246, Note_on_c, 0, 67, 0
1, 10246, Note_on_c, 0, 73, 0
1, 10246, Note_on_c, 0, 66, 66
1, 10249, Note_on_c, 0, 74, 71
1, 10249, Note_on_c, 0, 50, 68
1, 10249, Control_c, 0, 64, 0
1, 10299, Note_on_c, 0, 74, 0
1, 10299, Note_on_c, 0, 66, 0
1, 10299, Note_on_c, 0, 50, 0
1, 10457, Note_on_c, 0, 63, 61
1, 10512, Note_on_c, 0, 63, 0
1, 10530, Note_on_c, 0, 66, 69
1, 10530, Note_on_c, 0, 62, 69
1, 10530, Note_on_c, 0, 50, 70
1, 10583, Note_on_c, 0, 62, 0
1, 10741, Note_on_c, 0, 60, 60
1, 10814, Note_on_c, 0, 60, 0
1, 10814, Note_on_c, 0, 66, 0
1, 10814, Note_on_c, 0, 67, 67
1, 10817, Note_on_c, 0, 58, 67
1, 10866, Note_on_c, 0, 58, 0
1, 10866, Note_on_c, 0, 67, 0
1, 11025, Note_on_c, 0, 57, 59
1, 11025, Note_on_c, 0, 50, 0
1, 11025, Note_on_c, 0, 48, 55
1, 11079, Note_on_c, 0, 57, 0
1, 11098, Note_on_c, 0, 55, 67
1, 11098, Note_on_c, 0, 48, 0
1, 11098, Note_on_c, 0, 46, 61
1, 11150, Note_on_c, 0, 55, 0
1, 11150, Note_on_c, 0, 46, 0
1, 11308, Note_on_c, 0, 45, 54
1, 11363, Note_on_c, 0, 45, 0
1, 11381, Note_on_c, 0, 58, 71
1, 11381, Note_on_c, 0, 43, 62
1, 11434, Note_on_c, 0, 43, 0
1, 11592, Note_on_c, 0, 41, 52
1, 11647, Note_on_c, 0, 41, 0
1, 11665, Note_on_c, 0, 58, 0
1, 11665, Note_on_c, 0, 61, 65
1, 11665, Note_on_c, 0, 57, 65
1, 11668, Note_on_c, 0, 40, 58
1, 11719, Note_on_c, 0, 57, 0
1, 11719, Note_on_c, 0, 40, 0
1, 11883, Note_on_c, 0, 55, 57
1, 11883, Note_on_c, 0, 39, 45
1, 11938, Note_on_c, 0, 55, 0
1, 11938, Note_on_c, 0, 39, 0
1, 11956, Note_on_c, 0, 61, 0
1, 11956, Note_on_c, 0, 54, 64
1, 11956, Note_on_c, 0, 62, 64
1, 11959, Note_on_c, 0, 38, 51
1, 12011, Note_on_c, 0, 38, 0
1, 12102, Note_on_c, 0, 62, 0
1, 12102, Note_on_c, 0, 54, 0
1, 12174, Note_on_c, 0, 36, 39
1, 12229, Note_on_c, 0, 36, 0
1, 12247, Note_on_c, 0, 55, 50
1, 12247, Note_on_c, 0, 34, 45
1, 12300, Note_on_c, 0, 34, 0
1, 12317, Note_on_c, 0, 55, 0
1, 12317, Note_on_c, 0, 57, 42
1, 12387, Note_on_c, 0, 57, 0
1, 12387, Note_on_c, 0, 55, 44
1, 12457, Note_on_c, 0, 55, 0
1, 12457, Note_on_c, 0, 50, 44
1, 12457, Note_on_c, 0, 33, 38
1, 12514, Note_on_c, 0, 33, 0
1, 12533, Note_on_c, 0, 50, 0
1, 12533, Note_on_c, 0, 62, 50
1, 12533, Note_on_c, 0, 31, 45
1, 12594, Note_on_c, 0, 62, 0
1, 12594, Note_on_c, 0, 31, 0
1, 12767, Note_on_c, 0, 55, 50
1, 12767, Note_on_c, 0, 50, 50
1, 12767, Note_on_c, 0, 34, 45
1, 12821, Note_on_c, 0, 50, 0
1, 12821, Note_on_c, 0, 55, 0
1, 12821, Note_on_c, 0, 34, 0
1, 12840, Note_on_c, 0, 48, 56
1, 12840, Note_on_c, 0, 54, 56
1, 12840, Note_on_c, 0, 33, 50
1, 12894, Note_on_c, 0, 54, 0
1, 12894, Note_on_c, 0, 48, 0
1, 12894, Note_on_c, 0, 33, 0
1, 13129, Note_on_c, 0, 60, 53
1, 13199, Note_on_c, 0, 60, 0
1, 13199, Note_on_c, 0, 62, 47
1, 13268, Note_on_c, 0, 62, 0
1, 13268, Note_on_c, 0, 60, 47
1, 13338, Note_on_c, 0, 60, 0
1, 13338, Note_on_c, 0, 57, 47
1, 13415, Note_on_c, 0, 57, 0
1, 13415, Note_on_c, 0, 69, 59
1, 13475, Note_on_c, 0, 69, 0
1, 13647, Note_on_c, 0, 60, 54
1, 13647, Note_on_c, 0, 50, 54
1, 13647, Note_on_c, 0, 30, 43
1, 13701, Note_on_c, 0, 50, 0
1, 13701, Note_on_c, 0, 60, 0
1, 13701, Note_on_c, 0, 30, 0
1, 13719, Note_on_c, 0, 50, 58
1, 13719, Note_on_c, 0, 58, 58
1, 13719, Note_on_c, 0, 31, 50
1, 13773, Note_on_c, 0, 58, 0
1, 13773, Note_on_c, 0, 50, 0
1, 13773, Note_on_c, 0, 31, 0
1, 14007, Note_on_c, 0, 55, 50
1, 14077, Note_on_c, 0, 55, 0
1, 14077, Note_on_c, 0, 57, 44
1, 14147, Note_on_c, 0, 57, 0
1, 14147, Note_on_c, 0, 55, 44
1, 14217, Note_on_c, 0, 55, 0
1, 14217, Note_on_c, 0, 50, 44
1, 14294, Note_on_c, 0, 50, 0
1, 14294, Note_on_c, 0, 67, 60
1, 14350, Note_on_c, 0, 67, 0
1, 14514, Note_on_c, 0, 65, 54
1, 14514, Note_on_c, 0, 55, 54
1, 14514, Note_on_c, 0, 34, 42
1, 14568, Note_on_c, 0, 55, 0
1, 14568, Note_on_c, 0, 65, 0
1, 14568, Note_on_c, 0, 34, 0
1, 14586, Note_on_c, 0, 63, 57
1, 14586, Note_on_c, 0, 55, 57
1, 14586, Note_on_c, 0, 36, 47
1, 14639, Note_on_c, 0, 55, 0
1, 14639, Note_on_c, 0, 63, 0
1, 14639, Note_on_c, 0, 36, 0
1, 14800, Note_on_c, 0, 55, 50
1, 14800, Note_on_c, 0, 62, 50
1, 14800, Note_on_c, 0, 38, 43
1, 14856, Note_on_c, 0, 62, 0
1, 14856, Note_on_c, 0, 55, 0
1, 14856, Note_on_c, 0, 38, 0
1, 14874, Note_on_c, 0, 55, 54
1, 14874, Note_on_c, 0, 60, 54
1, 14874, Note_on_c, 0, 39, 48
1, 14927, Note_on_c, 0, 60, 0
1, 14927, Note_on_c, 0, 55, 0
1, 14927, Note_on_c, 0, 39, 0
1, 15087, Note_on_c, 0, 58, 60
1, 15143, Note_on_c, 0, 58, 0
1, 15161, Note_on_c, 0, 57, 56
1, 15161, Note_on_c, 0, 61, 56
1, 15161, Note_on_c, 0, 51, 50
1, 15215, Note_on_c, 0, 61, 0
1, 15215, Note_on_c, 0, 57, 0
1, 15215, Note_on_c, 0, 51, 0
1, 15376, Note_on_c, 0, 55, 50
1, 15437, Note_on_c, 0, 55, 0
1, 15458, Note_on_c, 0, 54, 60
1, 15458, Note_on_c, 0, 62, 60
1, 15458, Note_on_c, 0, 38, 55
1, 15461, Note_on_c, 0, 50, 55
1, 15530, Note_on_c, 0, 62, 0
1, 15530, Note_on_c, 0, 54, 0
1, 15530, Note_on_c, 0, 50, 0
1, 15533, Note_on_c, 0, 38, 0
1, 15746, Note_on_c, 0, 74, 82
1, 15818, Control_c, 0, 64, 127
1, 16034, Note_on_c, 0, 62, 71
1, 16034, Note_on_c, 0, 30, 50
1, 16250, Note_on_c, 0, 74, 0
1, 16250, Note_on_c, 0, 72, 68
1, 16322, Note_on_c, 0, 72, 0
1, 16322, Note_on_c, 0, 70, 75
1, 16322, Note_on_c, 0, 30, 0
1, 16325, Note_on_c, 0, 31, 54
1, 16325, Control_c, 0, 64, 0
1, 16375, Note_on_c, 0, 70, 0
1, 16463, Note_on_c, 0, 31, 0
1, 16533, Note_on_c, 0, 69, 65
1, 16588, Note_on_c, 0, 69, 0
1, 16606, Note_on_c, 0, 62, 0
1, 16606, Note_on_c, 0, 67, 74
1, 16606, Note_on_c, 0, 70, 74
1, 16609, Note_on_c, 0, 55, 70
1, 16659, Note_on_c, 0, 67, 0
1, 16817, Note_on_c, 0, 65, 66
1, 16871, Note_on_c, 0, 65, 0
1, 16890, Note_on_c, 0, 70, 0
1, 16890, Note_on_c, 0, 63, 74
1, 16942, Note_on_c, 0, 63, 0
1, 17101, Note_on_c, 0, 62, 66
1, 17101, Note_on_c, 0, 55, 0
1, 17101, Note_on_c, 0, 53, 61
1, 17155, Note_on_c, 0, 62, 0
1, 17174, Note_on_c, 0, 60, 74
1, 17174, Note_on_c, 0, 53, 0
1, 17174, Note_on_c, 0, 51, 68
1, 17226, Note_on_c, 0, 60, 0
1, 17226, Note_on_c, 0, 51, 0
1, 17384, Note_on_c, 0, 50, 61
1, 17439, Note_on_c, 0, 50, 0
1, 17457, Note_on_c, 0, 77, 78
1, 17457, Note_on_c, 0, 48, 67
1, 17511, Note_on_c, 0, 48, 0
1, 17567, Control_c, 0, 64, 127
1, 17673, Note_on_c, 0, 46, 60
1, 17727, Note_on_c, 0, 46, 0
1, 17745, Note_on_c, 0, 65, 71
1, 17745, Note_on_c, 0, 33, 50
1, 17961, Note_on_c, 0, 77, 0
1, 17961, Note_on_c, 0, 75, 68
1, 18033, Note_on_c, 0, 75, 0
1, 18033, Note_on_c, 0, 74, 75
1, 18033, Note_on_c, 0, 33, 0
1, 18036, Note_on_c, 0, 34, 54
1, 18086, Note_on_c, 0, 74, 0
1, 18099, Control_c, 0, 64, 0
1, 18174, Note_on_c, 0, 34, 0
1, 18244, Note_on_c, 0, 72, 65
1, 18299, Note_on_c, 0, 72, 0
1, 18317, Note_on_c, 0, 65, 0
1, 18317, Note_on_c, 0, 70, 74
1, 18317, Note_on_c, 0, 74, 74
1, 18320, Note_on_c, 0, 58, 70
1, 18370, Note_on_c, 0, 70, 0
1, 18527, Note_on_c, 0, 69, 66
1, 18582, Note_on_c, 0, 69, 0
1, 18600, Note_on_c, 0, 74, 0
1, 18600, Note_on_c, 0, 67, 74
1, 18653, Note_on_c, 0, 67, 0
1, 18812, Note_on_c, 0, 65, 66
1, 18812, Note_on_c, 0, 58, 0
1, 18812, Note_on_c, 0, 57, 61
1, 18866, Note_on_c, 0, 65, 0
1, 18885, Note_on_c, 0, 64, 74
1, 18885, Note_on_c, 0, 57, 0
1, 18885, Note_on_c, 0, 55, 68
1, 18937, Note_on_c, 0, 64, 0
1, 18937, Note_on_c, 0, 55, 0
1, 19095, Note_on_c, 0, 53, 61
1, 19150, Note_on_c, 0, 53, 0
1, 19168, Note_on_c, 0, 81, 80
1, 19168, Note_on_c, 0, 52, 67
1, 19222, Note_on_c, 0, 52, 0
1, 19267, Control_c, 0, 64, 127
1, 19384, Note_on_c, 0, 50, 60
1, 19438, Note_on_c, 0, 50, 0
1, 19456, Note_on_c, 0, 69, 71
1, 19456, Note_on_c, 0, 37, 50
1, 19672, Note_on_c, 0, 81, 0
1, 19672, Note_on_c, 0, 79, 68
1, 19744, Note_on_c, 0, 79, 0
1, 19744, Note_on_c, 0, 78, 75
1, 19744, Note_on_c, 0, 37, 0
1, 19747, Note_on_c, 0, 38, 54
1, 19747, Control_c, 0, 64, 0
1, 19797, Note_on_c, 0, 78, 0
1, 19885, Note_on_c, 0, 38, 0
1, 19955, Note_on_c, 0, 75, 65
1, 20010, Note_on_c, 0, 75, 0
1, 20028, Note_on_c, 0, 69, 0
1, 20028, Note_on_c, 0, 74, 74
1, 20028, Note_on_c, 0, 78, 74
1, 20031, Note_on_c, 0, 62, 68
1, 20081, Note_on_c, 0, 74, 0
1, 20238, Note_on_c, 0, 72, 66
1, 20293, Note_on_c, 0, 72, 0
1, 20311, Note_on_c, 0, 78, 0
1, 20311, Note_on_c, 0, 79, 74
1, 20311, Note_on_c, 0, 70, 74
1, 20364, Note_on_c, 0, 70, 0
1, 20364, Note_on_c, 0, 79, 0
1, 20523, Note_on_c, 0, 69, 66
1, 20523, Note_on_c, 0, 62, 0
1, 20523, Note_on_c, 0, 60, 61
1, 20577, Note_on_c, 0, 69, 0
1, 20596, Note_on_c, 0, 67, 74
1, 20596, Note_on_c, 0, 60, 0
1, 20596, Note_on_c, 0, 58, 68
1, 20648, Note_on_c, 0, 67, 0
1, 20648, Note_on_c, 0, 58, 0
1, 20806, Note_on_c, 0, 57, 61
1, 20861, Note_on_c, 0, 57, 0
1, 20879, Note_on_c, 0, 70, 81
1, 20879, Note_on_c, 0, 55, 67
1, 20933, Note_on_c, 0, 55, 0
1, 21095, Note_on_c, 0, 53, 60
1, 21149, Note_on_c, 0, 53, 0
1, 21167, Note_on_c, 0, 70, 0
1, 21167, Note_on_c, 0, 69, 62
1, 21167, Note_on_c, 0, 73, 72
1, 21170, Note_on_c, 0, 52, 67
1, 21221, Note_on_c, 0, 52, 0
1, 21242, Control_c, 0, 64, 127
1, 21383, Note_on_c, 0, 69, 0
1, 21383, Note_on_c, 0, 67, 68
1, 21383, Note_on_c, 0, 51, 60
1, 21437, Note_on_c, 0, 51, 0
1, 21455, Note_on_c, 0, 67, 0
1, 21455, Note_on_c, 0, 73, 0
1, 21455, Note_on_c, 0, 74, 71
1, 21458, Note_on_c, 0, 66, 66
1, 21458, Note_on_c, 0, 50, 68
1, 21458, Control_c, 0, 64, 0
1, 21508, Note_on_c, 0, 66, 0
1, 21508, Note_on_c, 0, 74, 0
1, 21508, Note_on_c, 0, 50, 0
1, 21666, Note_on_c, 0, 63, 61
1, 21721, Note_on_c, 0, 63, 0
1, 21739, Note_on_c, 0, 62, 69
1, 21739, Note_on_c, 0, 66, 69
1, 21739, Note_on_c, 0, 50, 70
1, 21792, Note_on_c, 0, 62, 0
1, 21949, Note_on_c, 0, 60, 60
1, 22004, Note_on_c, 0, 60, 0
1, 22022, Note_on_c, 0, 66, 0
1, 22022, Note_on_c, 0, 67, 67
1, 22022, Note_on_c, 0, 58, 67
1, 22075, Note_on_c, 0, 58, 0
1, 22075, Note_on_c, 0, 67, 0
1, 22233, Note_on_c, 0, 57, 59
1, 22233, Note_on_c, 0, 50, 0
1, 22233, Note_on_c, 0, 48, 55
1, 22288, Note_on_c, 0, 57, 0
1, 22307, Note_on_c, 0, 55, 67
1, 22307, Note_on_c, 0, 48, 0
1, 22307, Note_on_c, 0, 46, 61
1, 22359, Note_on_c, 0, 55, 0
1, 22359, Note_on_c, 0, 46, 0
1, 22517, Note_on_c, 0, 45, 54
1, 22571, Note_on_c, 0, 45, 0
1, 22590, Note_on_c, 0, 58, 71
1, 22590, Note_on_c, 0, 43, 62
1, 22642, Note_on_c, 0, 43, 0
1, 22801, Note_on_c, 0, 41, 55
1, 22855, Note_on_c, 0, 41, 0
1, 22874, Note_on_c, 0, 58, 0
1, 22874, Note_on_c, 0, 57, 65
1, 22874, Note_on_c, 0, 61, 65
1, 22877, Note_on_c, 0, 40, 60
1, 22928, Note_on_c, 0, 57, 0
1, 22928, Note_on_c, 0, 40, 0
1, 23092, Note_on_c, 0, 55, 57
1, 23092, Note_on_c, 0, 39, 60
1, 23147, Note_on_c, 0, 55, 0
1, 23147, Note_on_c, 0, 39, 0
1, 23165, Note_on_c, 0, 61, 0
1, 23165, Note_on_c, 0, 62, 64
1, 23165, Note_on_c, 0, 54, 64
1, 23168, Note_on_c, 0, 38, 60
1, 23317, Note_on_c, 0, 54, 0
1, 23317, Note_on_c, 0, 62, 0
1, 23317, Note_on_c, 0, 38, 0
1, 23469, Note_on_c, 0, 70, 68
1, 23480, Control_c, 0, 64, 127
1, 23762, Note_on_c, 0, 58, 50
1, 23762, Note_on_c, 0, 38, 50
1, 23762, Note_on_c, 0, 46, 50
1, 23992, Note_on_c, 0, 70, 0
1, 23992, Note_on_c, 0, 66, 60
1, 24070, Note_on_c, 0, 66, 0
1, 24070, Note_on_c, 0, 67, 66
1, 24070, Note_on_c, 0, 38, 0
1, 24073, Note_on_c, 0, 39, 50
1, 24073, Control_c, 0, 64, 0
1, 24113, Control_c, 0, 64, 127
1, 24297, Note_on_c, 0, 67, 0
1, 24297, Note_on_c, 0, 69, 61
1, 24373, Note_on_c, 0, 69, 0
1, 24373, Note_on_c, 0, 58, 0
1, 24373, Note_on_c, 0, 70, 67
1, 24376, Note_on_c, 0, 39, 0
1, 24376, Note_on_c, 0, 46, 0
1, 24381, Control_c, 0, 64, 0
1, 24439, Control_c, 0, 64, 127
1, 24663, Note_on_c, 0, 58, 50
1, 24663, Note_on_c, 0, 38, 50
1, 24663, Note_on_c, 0, 46, 50
1, 24894, Note_on_c, 0, 70, 0
1, 24894, Note_on_c, 0, 66, 64
1, 24971, Note_on_c, 0, 66, 0
1, 24971, Note_on_c, 0, 67, 71
1, 24971, Note_on_c, 0, 38, 0
1, 24974, Note_on_c, 0, 39, 50
1, 24992, Control_c, 0, 64, 0
1, 25032, Control_c, 0, 64, 127
1, 25200, Note_on_c, 0, 67, 0
1, 25200, Note_on_c, 0, 69, 62
1, 25276, Note_on_c, 0, 69, 0
1, 25276, Note_on_c, 0, 58, 0
1, 25276, Note_on_c, 0, 70, 67
1, 25279, Note_on_c, 0, 39, 0
1, 25279, Note_on_c, 0, 46, 0
1, 25287, Control_c, 0, 64, 0
1, 25323, Control_c, 0, 64, 127
1, 25423, Note_on_c, 0, 70, 0
1, 25423, Note_on_c, 0, 58, 57
1, 25540, Note_on_c, 0, 36, 43
1, 25579, Note_on_c, 0, 58, 0
1, 25579, Note_on_c, 0, 74, 74
1, 25579, Note_on_c, 0, 51, 50
1, 25732, Note_on_c, 0, 74, 0
1, 25732, Note_on_c, 0, 72, 67
1, 25885, Note_on_c, 0, 72, 0
1, 25885, Note_on_c, 0, 74, 76
1, 25934, Control_c, 0, 64, 0
1, 25996, Control_c, 0, 64, 127
1, 26036, Note_on_c, 0, 74, 0
1, 26036, Note_on_c, 0, 72, 73
1, 26186, Note_on_c, 0, 72, 0
1, 26186, Note_on_c, 0, 70, 69
1, 26186, Note_on_c, 0, 36, 0
1, 26189, Note_on_c, 0, 48, 50
1, 26193, Control_c, 0, 64, 0
1, 26246, Control_c, 0, 64, 127
1, 26283, Note_on_c, 0, 70, 0
1, 26283, Note_on_c, 0, 67, 61
1, 26379, Note_on_c, 0, 67, 0
1, 26379, Note_on_c, 0, 63, 61
1, 26476, Note_on_c, 0, 63, 0
1, 26476, Note_on_c, 0, 62, 67
1, 26476, Note_on_c, 0, 57, 46
1, 26479, Note_on_c, 0, 48, 0
1, 26479, Note_on_c, 0, 51, 0
1, 26479, Note_on_c, 0, 53, 46
1, 26482, Note_on_c, 0, 41, 46
1, 26482, Control_c, 0, 64, 0
1, 26540, Control_c, 0, 64, 127
1, 26717, Note_on_c, 0, 62, 0
1, 26717, Note_on_c, 0, 60, 57
1, 26717, Note_on_c, 0, 53, 0
1, 26720, Note_on_c, 0, 51, 42
1, 26803, Note_on_c, 0, 60, 0
1, 26803, Note_on_c, 0, 57, 0
1, 26803, Note_on_c, 0, 58, 64
1, 26806, Note_on_c, 0, 51, 0
1, 26806, Note_on_c, 0, 41, 0
1, 26806, Note_on_c, 0, 46, 47
1, 26809, Note_on_c, 0, 50, 47
1, 26809, Control_c, 0, 64, 0
1, 26967, Note_on_c, 0, 58, 0
1, 26967, Note_on_c, 0, 50, 0
1, 26967, Note_on_c, 0, 46, 0
1, 27131, Note_on_c, 0, 77, 68
1, 27141, Control_c, 0, 64, 127
1, 27382, Note_on_c, 0, 41, 38
1, 27400, Note_on_c, 0, 49, 42
1, 27418, Note_on_c, 0, 65, 50
1, 27418, Note_on_c, 0, 57, 46
1, 27648, Note_on_c, 0, 77, 0
1, 27648, Note_on_c, 0, 73, 60
1, 27726, Note_on_c, 0, 73, 0
1, 27726, Note_on_c, 0, 74, 66
1, 27726, Note_on_c, 0, 57, 0
1, 27729, Note_on_c, 0, 49, 0
1, 27729, Note_on_c, 0, 41, 0
1, 27729, Note_on_c, 0, 58, 50
1, 27732, Note_on_c, 0, 50, 50
1, 27732, Control_c, 0, 64, 0
1, 27769, Control_c, 0, 64, 127
1, 27954, Note_on_c, 0, 74, 0
1, 27954, Note_on_c, 0, 75, 61
1, 28030, Note_on_c, 0, 75, 0
1, 28030, Note_on_c, 0, 65, 0
1, 28030, Note_on_c, 0, 77, 67
1, 28033, Note_on_c, 0, 50, 0
1, 28033, Note_on_c, 0, 58, 0
1, 28037, Control_c, 0, 64, 0
1, 28095, Control_c, 0, 64, 127
1, 28283, Note_on_c, 0, 41, 39
1, 28301, Note_on_c, 0, 49, 42
1, 28319, Note_on_c, 0, 65, 50
1, 28319, Note_on_c, 0, 57, 46
1, 28550, Note_on_c, 0, 77, 0
1, 28550, Note_on_c, 0, 73, 64
1, 28629, Note_on_c, 0, 73, 0
1, 28629, Note_on_c, 0, 74, 71
1, 28629, Note_on_c, 0, 57, 0
1, 28632, Note_on_c, 0, 49, 0
1, 28632, Note_on_c, 0, 41, 0
1, 28632, Note_on_c, 0, 58, 50
1, 28635, Note_on_c, 0, 50, 50
1, 28649, Control_c, 0, 64, 0
1, 28689, Control_c, 0, 64, 127
1, 28857, Note_on_c, 0, 74, 0
1, 28857, Note_on_c, 0, 75, 62
1, 28933, Note_on_c, 0, 75, 0
1, 28933, Note_on_c, 0, 65, 0
1, 28933, Note_on_c, 0, 77, 67
1, 28936, Note_on_c, 0, 50, 0
1, 28936, Note_on_c, 0, 58, 0
1, 28944, Control_c, 0, 64, 0
1, 28980, Control_c, 0, 64, 127
1, 29080, Note_on_c, 0, 77, 0
1, 29080, Note_on_c, 0, 65, 57
1, 29190, Note_on_c, 0, 46, 43
1, 29209, Note_on_c, 0, 53, 43
1, 29227, Note_on_c, 0, 65, 0
1, 29227, Note_on_c, 0, 81, 74
1, 29227, Note_on_c, 0, 62, 50
1, 29376, Note_on_c, 0, 81, 0
1, 29376, Note_on_c, 0, 79, 67
1, 29529, Note_on_c, 0, 79, 0
1, 29529, Note_on_c, 0, 81, 76
1, 29529, Note_on_c, 0, 62, 0
1, 29532, Note_on_c, 0, 46, 0
1, 29532, Note_on_c, 0, 62, 50
1, 29577, Control_c, 0, 64, 0
1, 29638, Control_c, 0, 64, 127
1, 29678, Note_on_c, 0, 81, 0
1, 29678, Note_on_c, 0, 79, 73
1, 29828, Note_on_c, 0, 79, 0
1, 29828, Note_on_c, 0, 77, 69
1, 29828, Note_on_c, 0, 53, 0
1, 29831, Note_on_c, 0, 55, 50
1, 29835, Control_c, 0, 64, 0
1, 29888, Control_c, 0, 64, 127
1, 29925, Note_on_c, 0, 77, 0
1, 29925, Note_on_c, 0, 74, 61
1, 30021, Note_on_c, 0, 74, 0
1, 30021, Note_on_c, 0, 70, 61
1, 30118, Note_on_c, 0, 70, 0
1, 30118, Note_on_c, 0, 64, 46
1, 30118, Note_on_c, 0, 69, 67
1, 30121, Note_on_c, 0, 55, 0
1, 30121, Note_on_c, 0, 62, 0
1, 30121, Note_on_c, 0, 60, 46
1, 30124, Note_on_c, 0, 48, 46
1, 30124, Control_c, 0, 64, 0
1, 30182, Control_c, 0, 64, 127
1, 30358, Note_on_c, 0, 69, 0
1, 30358, Note_on_c, 0, 67, 57
1, 30358, Note_on_c, 0, 60, 0
1, 30361, Note_on_c, 0, 58, 42
1, 30444, Note_on_c, 0, 67, 0
1, 30444, Note_on_c, 0, 64, 0
1, 30444, Note_on_c, 0, 65, 64
1, 30447, Note_on_c, 0, 58, 0
1, 30447, Note_on_c, 0, 48, 0
1, 30447, Note_on_c, 0, 53, 47
1, 30450, Note_on_c, 0, 57, 47
1, 30450, Control_c, 0, 64, 0
1, 30608, Note_on_c, 0, 65, 0
1, 30608, Note_on_c, 0, 57, 0
1, 30608, Note_on_c, 0, 53, 0
1, 30772, Note_on_c, 0, 82, 68
1, 30783, Control_c, 0, 64, 127
1, 31028, Note_on_c, 0, 50, 42
1, 31047, Note_on_c, 0, 58, 46
1, 31065, Note_on_c, 0, 70, 50
1, 31065, Note_on_c, 0, 65, 50
1, 31292, Note_on_c, 0, 82, 0
1, 31292, Note_on_c, 0, 77, 60
1, 31311, Note_on_c, 0, 58, 0
1, 31311, Note_on_c, 0, 50, 0
1, 31311, Note_on_c, 0, 51, 37
1, 31331, Note_on_c, 0, 54, 43
1, 31350, Note_on_c, 0, 58, 50
1, 31370, Note_on_c, 0, 77, 0
1, 31370, Note_on_c, 0, 78, 70
1, 31370, Note_on_c, 0, 66, 50
1, 31375, Control_c, 0, 64, 0
1, 31375, Note_on_c, 0, 65, 0
1, 31413, Control_c, 0, 64, 127
1, 31598, Note_on_c, 0, 78, 0
1, 31598, Note_on_c, 0, 80, 67
1, 31674, Note_on_c, 0, 80, 0
1, 31674, Note_on_c, 0, 70, 0
1, 31674, Note_on_c, 0, 82, 72
1, 31677, Note_on_c, 0, 58, 0
1, 31677, Note_on_c, 0, 51, 0
1, 31677, Note_on_c, 0, 54, 0
1, 31680, Note_on_c, 0, 66, 0
1, 31680, Control_c, 0, 64, 0
1, 31740, Control_c, 0, 64, 127
1, 31928, Note_on_c, 0, 50, 43
1, 31946, Note_on_c, 0, 58, 46
1, 31964, Note_on_c, 0, 70, 50
1, 31964, Note_on_c, 0, 65, 50
1, 32154, Note_on_c, 0, 50, 0
1, 32193, Note_on_c, 0, 82, 0
1, 32193, Note_on_c, 0, 77, 67
1, 32212, Note_on_c, 0, 65, 0
1, 32212, Note_on_c, 0, 58, 0
1, 32212, Note_on_c, 0, 51, 37
1, 32232, Note_on_c, 0, 54, 41
1, 32251, Note_on_c, 0, 58, 45
1, 32271, Note_on_c, 0, 77, 0
1, 32271, Note_on_c, 0, 78, 73
1, 32271, Note_on_c, 0, 66, 50
1, 32291, Control_c, 0, 64, 0
1, 32331, Control_c, 0, 64, 127
1, 32499, Note_on_c, 0, 78, 0
1, 32499, Note_on_c, 0, 80, 65
1, 32576, Note_on_c, 0, 80, 0
1, 32576, Note_on_c, 0, 70, 0
1, 32576, Note_on_c, 0, 82, 70
1, 32579, Note_on_c, 0, 66, 0
1, 32579, Note_on_c, 0, 51, 0
1, 32579, Note_on_c, 0, 54, 0
1, 32582, Note_on_c, 0, 58, 0
1, 32587, Control_c, 0, 64, 0
1, 32623, Control_c, 0, 64, 127
1, 32722, Note_on_c, 0, 82, 0
1, 32722, Note_on_c, 0, 73, 60
1, 32833, Note_on_c, 0, 54, 43
1, 32851, Note_on_c, 0, 61, 43
1, 32869, Note_on_c, 0, 73, 0
1, 32869, Note_on_c, 0, 89, 75
1, 32869, Note_on_c, 0, 70, 50
1, 33020, Note_on_c, 0, 89, 0
1, 33020, Note_on_c, 0, 87, 70
1, 33170, Note_on_c, 0, 87, 0
1, 33170, Note_on_c, 0, 89, 76
1, 33170, Note_on_c, 0, 70, 0
1, 33173, Note_on_c, 0, 54, 0
1, 33173, Note_on_c, 0, 70, 50
1, 33218, Control_c, 0, 64, 0
1, 33279, Control_c, 0, 64, 127
1, 33319, Note_on_c, 0, 89, 0
1, 33319, Note_on_c, 0, 87, 73
1, 33468, Note_on_c, 0, 87, 0
1, 33468, Note_on_c, 0, 85, 72
1, 33468, Note_on_c, 0, 61, 0
1, 33471, Note_on_c, 0, 63, 50
1, 33476, Control_c, 0, 64, 0
1, 33528, Control_c, 0, 64, 127
1, 33565, Note_on_c, 0, 85, 0
1, 33565, Note_on_c, 0, 82, 67
1, 33662, Note_on_c, 0, 82, 0
1, 33662, Note_on_c, 0, 78, 61
1, 33758, Note_on_c, 0, 78, 0
1, 33758, Note_on_c, 0, 72, 46
1, 33758, Note_on_c, 0, 77, 67
1, 33761, Note_on_c, 0, 63, 0
1, 33761, Note_on_c, 0, 70, 0
1, 33761, Note_on_c, 0, 66, 46
1, 33764, Note_on_c, 0, 56, 46
1, 33764, Control_c, 0, 64, 0
1, 33822, Control_c, 0, 64, 127
1, 33999, Note_on_c, 0, 77, 0
1, 33999, Note_on_c, 0, 75, 57
1, 34086, Note_on_c, 0, 75, 0
1, 34086, Note_on_c, 0, 72, 0
1, 34086, Note_on_c, 0, 73, 64
1, 34089, Note_on_c, 0, 56, 0
1, 34089, Note_on_c, 0, 66, 0
1, 34089, Note_on_c, 0, 61, 47
1, 34092, Note_on_c, 0, 65, 47
1, 34092, Control_c, 0, 64, 0
1, 34249, Note_on_c, 0, 73, 0
1, 34249, Note_on_c, 0, 65, 0
1, 34249, Note_on_c, 0, 61, 0
1, 34413, Note_on_c, 0, 80, 68
1, 34423, Control_c, 0, 64, 127
1, 34669, Note_on_c, 0, 44, 38
1, 34687, Note_on_c, 0, 51, 42
1, 34705, Note_on_c, 0, 68, 50
1, 34705, Note_on_c, 0, 60, 46
1, 34931, Note_on_c, 0, 80, 0
1, 34931, Note_on_c, 0, 75, 60
1, 35005, Note_on_c, 0, 75, 0
1, 35005, Note_on_c, 0, 77, 66
1, 35005, Note_on_c, 0, 60, 0
1, 35008, Note_on_c, 0, 51, 0
1, 35008, Note_on_c, 0, 44, 0
1, 35008, Note_on_c, 0, 61, 50
1, 35011, Note_on_c, 0, 53, 50
1, 35011, Control_c, 0, 64, 0
1, 35048, Control_c, 0, 64, 127
1, 35233, Note_on_c, 0, 77, 0
1, 35233, Note_on_c, 0, 78, 61
1, 35309, Note_on_c, 0, 78, 0
1, 35309, Note_on_c, 0, 68, 0
1, 35309, Note_on_c, 0, 80, 67
1, 35312, Note_on_c, 0, 53, 0
1, 35312, Note_on_c, 0, 61, 0
1, 35316, Control_c, 0, 64, 0
1, 35375, Control_c, 0, 64, 127
1, 35564, Note_on_c, 0, 44, 39
1, 35582, Note_on_c, 0, 51, 42
1, 35600, Note_on_c, 0, 68, 50
1, 35600, Note_on_c, 0, 60, 46
1, 35829, Note_on_c, 0, 80, 0
1, 35829, Note_on_c, 0, 75, 64
1, 35906, Note_on_c, 0, 75, 0
1, 35906, Note_on_c, 0, 77, 71
1, 35906, Note_on_c, 0, 60, 0
1, 35909, Note_on_c, 0, 51, 0
1, 35909, Note_on_c, 0, 44, 0
1, 35909, Note_on_c, 0, 61, 50
1, 35912, Note_on_c, 0, 53, 50
1, 35926, Control_c, 0, 64, 0
1, 35966, Control_c, 0, 64, 127
1, 36136, Note_on_c, 0, 77, 0
1, 36136, Note_on_c, 0, 78, 62
1, 36214, Note_on_c, 0, 78, 0
1, 36214, Note_on_c, 0, 68, 0
1, 36214, Note_on_c, 0, 80, 67
1, 36217, Note_on_c, 0, 53, 0
1, 36217, Note_on_c, 0, 61, 0
1, 36225, Control_c, 0, 64, 0
1, 36261, Control_c, 0, 64, 127
1, 36361, Note_on_c, 0, 80, 0
1, 36361, Note_on_c, 0, 70, 57
1, 36471, Note_on_c, 0, 49, 43
1, 36490, Note_on_c, 0, 56, 43
1, 36508, Note_on_c, 0, 70, 0
1, 36508, Note_on_c, 0, 84, 74
1, 36508, Note_on_c, 0, 65, 50
1, 36659, Note_on_c, 0, 84, 0
1, 36659, Note_on_c, 0, 82, 67
1, 36810, Note_on_c, 0, 82, 0
1, 36810, Note_on_c, 0, 84, 76
1, 36810, Note_on_c, 0, 65, 0
1, 36813, Note_on_c, 0, 49, 0
1, 36813, Note_on_c, 0, 65, 50
1, 36857, Control_c, 0, 64, 0
1, 36919, Control_c, 0, 64, 127
1, 36958, Note_on_c, 0, 84, 0
1, 36958, Note_on_c, 0, 82, 73
1, 37107, Note_on_c, 0, 82, 0
1, 37107, Note_on_c, 0, 80, 69
1, 37107, Note_on_c, 0, 56, 0
1, 37110, Note_on_c, 0, 58, 50
1, 37114, Control_c, 0, 64, 0
1, 37167, Control_c, 0, 64, 127
1, 37204, Note_on_c, 0, 80, 0
1, 37204, Note_on_c, 0, 77, 61
1, 37302, Note_on_c, 0, 77, 0
1, 37302, Note_on_c, 0, 73, 61
1, 37399, Note_on_c, 0, 73, 0
1, 37399, Note_on_c, 0, 72, 67
1, 37399, Note_on_c, 0, 67, 46
1, 37402, Note_on_c, 0, 58, 0
1, 37402, Note_on_c, 0, 65, 0
1, 37402, Note_on_c, 0, 61, 46
1, 37405, Note_on_c, 0, 51, 46
1, 37405, Control_c, 0, 64, 0
1, 37462, Control_c, 0, 64, 127
1, 37630, Note_on_c, 0, 72, 0
1, 37630, Note_on_c, 0, 70, 57
1, 37712, Note_on_c, 0, 70, 0
1, 37712, Note_on_c, 0, 67, 0
1, 37712, Note_on_c, 0, 68, 64
1, 37715, Note_on_c, 0, 51, 0
1, 37715, Note_on_c, 0, 61, 0
1, 37715, Note_on_c, 0, 56, 47
1, 37718, Note_on_c, 0, 60, 47
1, 37718, Control_c, 0, 64, 0
1, 37876, Note_on_c, 0, 68, 0
1, 37876, Note_on_c, 0, 60, 0
1, 37876, Note_on_c, 0, 56, 0
1, 38040, Note_on_c, 0, 54, 59
1, 38040, Control_c, 0, 64, 127
1, 38325, Note_on_c, 0, 68, 50
1, 38325, Note_on_c, 0, 63, 44
1, 38325, Note_on_c, 0, 60, 44
1, 38328, Note_on_c, 0, 44, 42
1, 38553, Note_on_c, 0, 54, 0
1, 38553, Note_on_c, 0, 50, 52
1, 38629, Note_on_c, 0, 50, 0
1, 38629, Note_on_c, 0, 51, 57
1, 38636, Control_c, 0, 64, 0
1, 38703, Control_c, 0, 64, 127
1, 38850, Note_on_c, 0, 51, 0
1, 38850, Note_on_c, 0, 53, 53
1, 38923, Note_on_c, 0, 60, 0
1, 38923, Note_on_c, 0, 63, 0
1, 38923, Note_on_c, 0, 68, 0
1, 38926, Note_on_c, 0, 69, 62
1, 38926, Note_on_c, 0, 53, 0
1, 38926, Note_on_c, 0, 44, 0
1, 38929, Note_on_c, 0, 54, 59
1, 38929, Control_c, 0, 64, 0
1, 38995, Control_c, 0, 64, 127
1, 39211, Note_on_c, 0, 44, 42
1, 39439, Note_on_c, 0, 69, 0
1, 39439, Note_on_c, 0, 62, 55
1, 39515, Note_on_c, 0, 62, 0
1, 39515, Note_on_c, 0, 63, 60
1, 39515, Note_on_c, 0, 54, 0
1, 39519, Control_c, 0, 64, 0
1, 39572, Control_c, 0, 64, 127
1, 39737, Note_on_c, 0, 63, 0
1, 39737, Note_on_c, 0, 65, 55
1, 39811, Note_on_c, 0, 65, 0
1, 39811, Note_on_c, 0, 60, 60
1, 39811, Note_on_c, 0, 66, 61
1, 39814, Note_on_c, 0, 44, 0
1, 39814, Note_on_c, 0, 51, 56
1, 39818, Control_c, 0, 64, 0
1, 39859, Control_c, 0, 64, 127
1, 40098, Note_on_c, 0, 44, 42
1, 40327, Note_on_c, 0, 51, 0
1, 40327, Note_on_c, 0, 47, 53
1, 40403, Note_on_c, 0, 47, 0
1, 40403, Note_on_c, 0, 48, 57
1, 40410, Control_c, 0, 64, 0
1, 40480, Control_c, 0, 64, 127
1, 40624, Note_on_c, 0, 48, 0
1, 40624, Note_on_c, 0, 49, 52
1, 40690, Control_c, 0, 64, 0
1, 40698, Note_on_c, 0, 66, 0
1, 40698, Note_on_c, 0, 60, 0
1, 40698, Note_on_c, 0, 66, 62
1, 40701, Note_on_c, 0, 49, 0
1, 40701, Note_on_c, 0, 44, 0
1, 40701, Note_on_c, 0, 51, 57
1, 40745, Control_c, 0, 64, 127
1, 40985, Note_on_c, 0, 44, 42
1, 41213, Note_on_c, 0, 66, 0
1, 41213, Note_on_c, 0, 59, 55
1, 41289, Note_on_c, 0, 59, 0
1, 41289, Note_on_c, 0, 60, 60
1, 41289, Control_c, 0, 64, 0
1, 41353, Control_c, 0, 64, 127
1, 41511, Note_on_c, 0, 60, 0
1, 41511, Note_on_c, 0, 61, 55
1, 41584, Note_on_c, 0, 61, 0
1, 41584, Note_on_c, 0, 63, 61
1, 41590, Control_c, 0, 64, 0
1, 41653, Control_c, 0, 64, 127
1, 41871, Note_on_c, 0, 44, 0
1, 41871, Note_on_c, 0, 51, 0
1, 41871, Note_on_c, 0, 45, 42
1, 42099, Note_on_c, 0, 53, 55
1, 42175, Note_on_c, 0, 53, 0
1, 42175, Note_on_c, 0, 63, 0
1, 42175, Note_on_c, 0, 63, 61
1, 42178, Note_on_c, 0, 54, 60
1, 42178, Control_c, 0, 64, 0
1, 42231, Control_c, 0, 64, 127
1, 42396, Note_on_c, 0, 54, 0
1, 42396, Note_on_c, 0, 56, 55
1, 42469, Note_on_c, 0, 56, 0
1, 42469, Note_on_c, 0, 63, 0
1, 42469, Note_on_c, 0, 57, 61
1, 42475, Control_c, 0, 64, 0
1, 42534, Control_c, 0, 64, 127
1, 42756, Note_on_c, 0, 45, 0
1, 42756, Note_on_c, 0, 47, 42
1, 42984, Note_on_c, 0, 50, 55
1, 43060, Note_on_c, 0, 50, 0
1, 43060, Note_on_c, 0, 51, 60
1, 43065, Control_c, 0, 64, 0
1, 43120, Control_c, 0, 64, 127
1, 43281, Note_on_c, 0, 51, 0
1, 43281, Note_on_c, 0, 52, 55
1, 43355, Note_on_c, 0, 52, 0
1, 43355, Note_on_c, 0, 57, 0
1, 43355, Note_on_c, 0, 54, 61
1, 43360, Control_c, 0, 64, 0
1, 43413, Control_c, 0, 64, 127
1, 43642, Note_on_c, 0, 47, 0
1, 43642, Note_on_c, 0, 48, 42
1, 43873, Note_on_c, 0, 49, 55
1, 43952, Note_on_c, 0, 49, 0
1, 43952, Note_on_c, 0, 50, 60
1, 43952, Control_c, 0, 64, 0
1, 44002, Control_c, 0, 64, 127
1, 44193, Note_on_c, 0, 50, 0
1, 44193, Note_on_c, 0, 52, 61
1, 44273, Note_on_c, 0, 52, 0
1, 44273, Note_on_c, 0, 54, 0
1, 44273, Note_on_c, 0, 54, 65
1, 44278, Control_c, 0, 64, 0
1, 44438, Note_on_c, 0, 48, 0
1, 44438, Note_on_c, 0, 50, 55
1, 44619, Note_on_c, 0, 50, 0
1, 44619, Note_on_c, 0, 52, 61
1, 44794, Note_on_c, 0, 52, 0
1, 44794, Note_on_c, 0, 54, 64
1, 44881, Note_on_c, 0, 54, 0
1, 45300, Note_on_c, 0, 55, 50
1, 45300, Note_on_c, 0, 54, 0
1, 45300, Note_on_c, 0, 31, 54
1, 45370, Note_on_c, 0, 55, 0
1, 45370, Note_on_c, 0, 57, 42
1, 45440, Note_on_c, 0, 57, 0
1, 45440, Note_on_c, 0, 55, 44
1, 45510, Note_on_c, 0, 55, 0
1, 45510, Note_on_c, 0, 50, 44
1, 45586, Note_on_c, 0, 50, 0
1, 45586, Note_on_c, 0, 62, 50
1, 45647, Note_on_c, 0, 62, 0
1, 45820, Note_on_c, 0, 50, 50
1, 45820, Note_on_c, 0, 55, 50
1, 45820, Note_on_c, 0, 31, 0
1, 45823, Note_on_c, 0, 34, 45
1, 45874, Note_on_c, 0, 55, 0
1, 45874, Note_on_c, 0, 50, 0
1, 45874, Note_on_c, 0, 34, 0
1, 45892, Note_on_c, 0, 48, 56
1, 45892, Note_on_c, 0, 54, 56
1, 45892, Note_on_c, 0, 33, 50
1, 45947, Note_on_c, 0, 54, 0
1, 45947, Note_on_c, 0, 48, 0
1, 45947, Note_on_c, 0, 33, 0
1, 46182, Note_on_c, 0, 60, 53
1, 46251, Note_on_c, 0, 60, 0
1, 46251, Note_on_c, 0, 62, 47
1, 46321, Note_on_c, 0, 62, 0
1, 46321, Note_on_c, 0, 60, 47
1, 46391, Note_on_c, 0, 60, 0
1, 46391, Note_on_c, 0, 57, 47
1, 46468, Note_on_c, 0, 57, 0
1, 46468, Note_on_c, 0, 69, 59
1, 46528, Note_on_c, 0, 69, 0
1, 46700, Note_on_c, 0, 60, 54
1, 46700, Note_on_c, 0, 50, 54
1, 46700, Note_on_c, 0, 30, 43
1, 46754, Note_on_c, 0, 50, 0
1, 46754, Note_on_c, 0, 60, 0
1, 46754, Note_on_c, 0, 30, 0
1, 46772, Note_on_c, 0, 58, 58
1, 46772, Note_on_c, 0, 50, 58
1, 46772, Note_on_c, 0, 31, 50
1, 46826, Note_on_c, 0, 50, 0
1, 46826, Note_on_c, 0, 58, 0
1, 46826, Note_on_c, 0, 31, 0
1, 47060, Note_on_c, 0, 55, 50
1, 47130, Note_on_c, 0, 55, 0
1, 47130, Note_on_c, 0, 57, 44
1, 47200, Note_on_c, 0, 57, 0
1, 47200, Note_on_c, 0, 55, 44
1, 47270, Note_on_c, 0, 55, 0
1, 47270, Note_on_c, 0, 50, 44
1, 47347, Note_on_c, 0, 50, 0
1, 47347, Note_on_c, 0, 67, 60
1, 47403, Note_on_c, 0, 67, 0
1, 47567, Note_on_c, 0, 65, 54
1, 47567, Note_on_c, 0, 55, 54
1, 47567, Note_on_c, 0, 34, 42
1, 47621, Note_on_c, 0, 55, 0
1, 47621, Note_on_c, 0, 65, 0
1, 47621, Note_on_c, 0, 34, 0
1, 47639, Note_on_c, 0, 63, 57
1, 47639, Note_on_c, 0, 55, 57
1, 47639, Note_on_c, 0, 36, 47
1, 47692, Note_on_c, 0, 55, 0
1, 47692, Note_on_c, 0, 63, 0
1, 47692, Note_on_c, 0, 36, 0
1, 47853, Note_on_c, 0, 62, 50
1, 47853, Note_on_c, 0, 55, 50
1, 47853, Note_on_c, 0, 38, 43
1, 47908, Note_on_c, 0, 55, 0
1, 47908, Note_on_c, 0, 62, 0
1, 47908, Note_on_c, 0, 38, 0
1, 47927, Note_on_c, 0, 60, 54
1, 47927, Note_on_c, 0, 55, 54
1, 47927, Note_on_c, 0, 39, 48
1, 47980, Note_on_c, 0, 55, 0
1, 47980, Note_on_c, 0, 60, 0
1, 47980, Note_on_c, 0, 39, 0
1, 48140, Note_on_c, 0, 58, 60
1, 48196, Note_on_c, 0, 58, 0
1, 48214, Note_on_c, 0, 61, 56
1, 48214, Note_on_c, 0, 57, 56
1, 48214, Note_on_c, 0, 51, 50
1, 48268, Note_on_c, 0, 57, 0
1, 48268, Note_on_c, 0, 61, 0
1, 48268, Note_on_c, 0, 51, 0
1, 48429, Note_on_c, 0, 55, 50
1, 48490, Note_on_c, 0, 55, 0
1, 48511, Note_on_c, 0, 62, 60
1, 48511, Note_on_c, 0, 54, 60
1, 48511, Note_on_c, 0, 38, 55
1, 48514, Note_on_c, 0, 50, 55
1, 48565, Note_on_c, 0, 54, 0
1, 48565, Note_on_c, 0, 62, 0
1, 48565, Note_on_c, 0, 50, 0
1, 48568, Note_on_c, 0, 38, 0
1, 48799, Note_on_c, 0, 74, 82
1, 48871, Control_c, 0, 64, 127
1, 49087, Note_on_c, 0, 62, 71
1, 49087, Note_on_c, 0, 30, 50
1, 49303, Note_on_c, 0, 74, 0
1, 49303, Note_on_c, 0, 72, 68
1, 49375, Note_on_c, 0, 72, 0
1, 49375, Note_on_c, 0, 70, 75
1, 49375, Note_on_c, 0, 30, 0
1, 49378, Note_on_c, 0, 31, 54
1, 49378, Control_c, 0, 64, 0
1, 49428, Note_on_c, 0, 70, 0
1, 49516, Note_on_c, 0, 31, 0
1, 49586, Note_on_c, 0, 69, 65
1, 49641, Note_on_c, 0, 69, 0
1, 49659, Note_on_c, 0, 62, 0
1, 49659, Note_on_c, 0, 70, 74
1, 49659, Note_on_c, 0, 67, 74
1, 49662, Note_on_c, 0, 55, 70
1, 49712, Note_on_c, 0, 67, 0
1, 49869, Note_on_c, 0, 65, 66
1, 49924, Note_on_c, 0, 65, 0
1, 49942, Note_on_c, 0, 70, 0
1, 49942, Note_on_c, 0, 63, 74
1, 49995, Note_on_c, 0, 63, 0
1, 50154, Note_on_c, 0, 62, 66
1, 50154, Note_on_c, 0, 55, 0
1, 50154, Note_on_c, 0, 53, 61
1, 50208, Note_on_c, 0, 62, 0
1, 50227, Note_on_c, 0, 60, 74
1, 50227, Note_on_c, 0, 53, 0
1, 50227, Note_on_c, 0, 51, 68
1, 50279, Note_on_c, 0, 60, 0
1, 50279, Note_on_c, 0, 51, 0
1, 50437, Note_on_c, 0, 50, 61
1, 50492, Note_on_c, 0, 50, 0
1, 50510, Note_on_c, 0, 77, 78
1, 50510, Note_on_c, 0, 48, 67
1, 50564, Note_on_c, 0, 48, 0
1, 50620, Control_c, 0, 64, 127
1, 50726, Note_on_c, 0, 46, 60
1, 50780, Note_on_c, 0, 46, 0
1, 50798, Note_on_c, 0, 65, 71
1, 50798, Note_on_c, 0, 33, 50
1, 51014, Note_on_c, 0, 77, 0
1, 51014, Note_on_c, 0, 75, 68
1, 51086, Note_on_c, 0, 75, 0
1, 51086, Note_on_c, 0, 74, 75
1, 51086, Note_on_c, 0, 33, 0
1, 51089, Note_on_c, 0, 34, 54
1, 51139, Note_on_c, 0, 74, 0
1, 51152, Control_c, 0, 64, 0
1, 51227, Note_on_c, 0, 34, 0
1, 51297, Note_on_c, 0, 72, 65
1, 51352, Note_on_c, 0, 72, 0
1, 51370, Note_on_c, 0, 65, 0
1, 51370, Note_on_c, 0, 70, 74
1, 51370, Note_on_c, 0, 74, 74
1, 51373, Note_on_c, 0, 58, 70
1, 51423, Note_on_c, 0, 70, 0
1, 51580, Note_on_c, 0, 69, 66
1, 51635, Note_on_c, 0, 69, 0
1, 51653, Note_on_c, 0, 74, 0
1, 51653, Note_on_c, 0, 67, 74
1, 51706, Note_on_c, 0, 67, 0
1, 51864, Note_on_c, 0, 65, 66
1, 51864, Note_on_c, 0, 58, 0
1, 51864, Note_on_c, 0, 57, 61
1, 51919, Note_on_c, 0, 65, 0
1, 51938, Note_on_c, 0, 64, 74
1, 51938, Note_on_c, 0, 57, 0
1, 51938, Note_on_c, 0, 55, 68
1, 51990, Note_on_c, 0, 64, 0
1, 51990, Note_on_c, 0, 55, 0
1, 52148, Note_on_c, 0, 53, 61
1, 52202, Note_on_c, 0, 53, 0
1, 52221, Note_on_c, 0, 81, 80
1, 52221, Note_on_c, 0, 52, 67
1, 52275, Note_on_c, 0, 52, 0
1, 52320, Control_c, 0, 64, 127
1, 52437, Note_on_c, 0, 50, 60
1, 52491, Note_on_c, 0, 50, 0
1, 52509, Note_on_c, 0, 69, 71
1, 52509, Note_on_c, 0, 37, 50
1, 52725, Note_on_c, 0, 81, 0
1, 52725, Note_on_c, 0, 79, 68
1, 52797, Note_on_c, 0, 79, 0
1, 52797, Note_on_c, 0, 78, 75
1, 52797, Note_on_c, 0, 37, 0
1, 52800, Note_on_c, 0, 38, 54
1, 52800, Control_c, 0, 64, 0
1, 52850, Note_on_c, 0, 78, 0
1, 52938, Note_on_c, 0, 38, 0
1, 53008, Note_on_c, 0, 75, 65
1, 53063, Note_on_c, 0, 75, 0
1, 53081, Note_on_c, 0, 69, 0
1, 53081, Note_on_c, 0, 74, 74
1, 53081, Note_on_c, 0, 78, 74
1, 53084, Note_on_c, 0, 62, 68
1, 53134, Note_on_c, 0, 74, 0
1, 53291, Note_on_c, 0, 72, 66
1, 53346, Note_on_c, 0, 72, 0
1, 53364, Note_on_c, 0, 78, 0
1, 53364, Note_on_c, 0, 79, 74
1, 53364, Note_on_c, 0, 70, 74
1, 53417, Note_on_c, 0, 70, 0
1, 53435, Note_on_c, 0, 79, 0
1, 53575, Note_on_c, 0, 69, 66
1, 53575, Note_on_c, 0, 62, 0
1, 53575, Note_on_c, 0, 60, 61
1, 53630, Note_on_c, 0, 69, 0
1, 53648, Note_on_c, 0, 67, 74
1, 53648, Note_on_c, 0, 60, 0
1, 53648, Note_on_c, 0, 58, 68
1, 53701, Note_on_c, 0, 67, 0
1, 53701, Note_on_c, 0, 58, 0
1, 53859, Note_on_c, 0, 57, 61
1, 53913, Note_on_c, 0, 57, 0
1, 53932, Note_on_c, 0, 70, 81
1, 53932, Note_on_c, 0, 55, 67
1, 53986, Note_on_c, 0, 55, 0
1, 54148, Note_on_c, 0, 53, 60
1, 54202, Note_on_c, 0, 53, 0
1, 54220, Note_on_c, 0, 70, 0
1, 54220, Note_on_c, 0, 69, 62
1, 54220, Note_on_c, 0, 73, 72
1, 54223, Note_on_c, 0, 52, 67
1, 54274, Note_on_c, 0, 52, 0
1, 54295, Control_c, 0, 64, 127
1, 54436, Note_on_c, 0, 69, 0
1, 54436, Note_on_c, 0, 67, 68
1, 54436, Note_on_c, 0, 51, 60
1, 54490, Note_on_c, 0, 51, 0
1, 54508, Note_on_c, 0, 67, 0
1, 54508, Note_on_c, 0, 73, 0
1, 54508, Note_on_c, 0, 66, 66
1, 54511, Note_on_c, 0, 74, 71
1, 54511, Note_on_c, 0, 50, 68
1, 54511, Control_c, 0, 64, 0
1, 54649, Note_on_c, 0, 74, 0
1, 54649, Note_on_c, 0, 66, 0
1, 54649, Note_on_c, 0, 50, 0
1, 54719, Note_on_c, 0, 68, 61
1, 54774, Note_on_c, 0, 68, 0
1, 54792, Note_on_c, 0, 67, 69
1, 54792, Note_on_c, 0, 71, 69
1, 54792, Note_on_c, 0, 55, 70
1, 54842, Control_c, 0, 64, 127
1, 54934, Note_on_c, 0, 67, 0
1, 55006, Note_on_c, 0, 65, 59
1, 55063, Note_on_c, 0, 65, 0
1, 55082, Note_on_c, 0, 71, 0
1, 55082, Note_on_c, 0, 63, 65
1, 55082, Note_on_c, 0, 72, 65
1, 55228, Note_on_c, 0, 72, 0
1, 55228, Note_on_c, 0, 63, 0
1, 55300, Note_on_c, 0, 62, 57
1, 55300, Note_on_c, 0, 55, 0
1, 55300, Note_on_c, 0, 53, 53
1, 55358, Note_on_c, 0, 62, 0
1, 55374, Control_c, 0, 64, 0
1, 55378, Note_on_c, 0, 60, 64
1, 55378, Note_on_c, 0, 53, 0
1, 55378, Note_on_c, 0, 51, 58
1, 55530, Note_on_c, 0, 51, 0
1, 55605, Note_on_c, 0, 50, 50
1, 55666, Note_on_c, 0, 50, 0
1, 55686, Note_on_c, 0, 60, 0
1, 55686, Note_on_c, 0, 63, 66
1, 55686, Note_on_c, 0, 50, 48
1, 55689, Note_on_c, 0, 48, 58
1, 55840, Note_on_c, 0, 48, 0
1, 55923, Note_on_c, 0, 46, 48
1, 55984, Note_on_c, 0, 46, 0
1, 56005, Note_on_c, 0, 63, 0
1, 56005, Note_on_c, 0, 66, 59
1, 56005, Note_on_c, 0, 62, 59
1, 56008, Note_on_c, 0, 45, 53
1, 56035, Control_c, 0, 64, 127
1, 56250, Note_on_c, 0, 62, 0
1, 56250, Note_on_c, 0, 60, 51
1, 56250, Note_on_c, 0, 45, 0
1, 56253, Note_on_c, 0, 44, 40
1, 56357, Note_on_c, 0, 60, 0
1, 56357, Note_on_c, 0, 66, 0
1, 56357, Note_on_c, 0, 58, 49
1, 56360, Note_on_c, 0, 67, 57
1, 56360, Note_on_c, 0, 44, 0
1, 56360, Note_on_c, 0, 43, 42
1, 56363, Control_c, 0, 64, 0
1, 56999, Note_on_c, 0, 67, 0
1, 56999, Note_on_c, 0, 58, 0
1, 56999, Note_on_c, 0, 63, 48
1, 57002, Note_on_c, 0, 60, 48
1, 57002, Note_on_c, 0, 67, 55
1, 57002, Note_on_c, 0, 43, 0
1, 57005, Note_on_c, 0, 50, 0
1, 57005, Note_on_c, 0, 48, 41
1, 57005, Note_on_c, 0, 55, 47
1, 57035, Control_c, 0, 64, 127
1, 57271, Note_on_c, 0, 67, 0
1, 57271, Note_on_c, 0, 60, 0
1, 57271, Note_on_c, 0, 63, 0
1, 57274, Note_on_c, 0, 69, 58
1, 57274, Note_on_c, 0, 66, 50
1, 57274, Note_on_c, 0, 60, 50
1, 57277, Note_on_c, 0, 63, 50
1, 57277, Note_on_c, 0, 55, 0
1, 57277, Note_on_c, 0, 48, 0
1, 57280, Note_on_c, 0, 48, 48
1, 57280, Note_on_c, 0, 57, 55
1, 57280, Control_c, 0, 64, 0
1, 57328, Control_c, 0, 64, 127
1, 57508, Note_on_c, 0, 57, 0
1, 57508, Note_on_c, 0, 48, 0
1, 57508, Note_on_c, 0, 43, 52
1, 57542, Note_on_c, 0, 63, 0
1, 57542, Note_on_c, 0, 69, 0
1, 57542, Note_on_c, 0, 66, 0
1, 57545, Note_on_c, 0, 60, 0
1, 57545, Note_on_c, 0, 70, 67
1, 57545, Note_on_c, 0, 62, 58
1, 57548, Note_on_c, 0, 43, 0
1, 57548, Note_on_c, 0, 58, 57
1, 57548, Control_c, 0, 64, 0
1, 57587, Control_c, 0, 64, 127
1, 57672, Note_on_c, 0, 62, 0
1, 57672, Note_on_c, 0, 70, 0
1, 57672, Note_on_c, 0, 72, 57
1, 57675, Note_on_c, 0, 58, 0
1, 57675, Note_on_c, 0, 60, 46
1, 57788, Note_on_c, 0, 72, 0
1, 57788, Note_on_c, 0, 69, 61
1, 57788, Note_on_c, 0, 60, 0
1, 57791, Note_on_c, 0, 57, 52
1, 57791, Control_c, 0, 64, 0
1, 57836, Control_c, 0, 64, 127
1, 57904, Note_on_c, 0, 69, 0
1, 57904, Note_on_c, 0, 70, 57
1, 57904, Note_on_c, 0, 57, 0
1, 57907, Note_on_c, 0, 58, 48
1, 58031, Note_on_c, 0, 70, 0
1, 58031, Note_on_c, 0, 67, 68
1, 58031, Note_on_c, 0, 58, 0
1, 58034, Note_on_c, 0, 55, 62
1, 58034, Control_c, 0, 64, 0
1, 58139, Note_on_c, 0, 67, 0
1, 58139, Note_on_c, 0, 74, 64
1, 58139, Note_on_c, 0, 55, 0
1, 58142, Note_on_c, 0, 62, 56
1, 58147, Control_c, 0, 64, 127
1, 58276, Note_on_c, 0, 74, 0
1, 58276, Note_on_c, 0, 74, 72
1, 58276, Note_on_c, 0, 62, 0
1, 58279, Note_on_c, 0, 62, 64
1, 58279, Control_c, 0, 64, 0
1, 58540, Note_on_c, 0, 74, 0
1, 58540, Note_on_c, 0, 63, 50
1, 58540, Note_on_c, 0, 67, 57
1, 58543, Note_on_c, 0, 60, 50
1, 58543, Note_on_c, 0, 62, 0
1, 58543, Note_on_c, 0, 48, 42
1, 58546, Note_on_c, 0, 55, 48
1, 58576, Control_c, 0, 64, 127
1, 58788, Note_on_c, 0, 60, 0
1, 58788, Note_on_c, 0, 67, 0
1, 58788, Note_on_c, 0, 63, 0
1, 58791, Note_on_c, 0, 69, 60
1, 58791, Note_on_c, 0, 63, 52
1, 58791, Note_on_c, 0, 60, 52
1, 58794, Note_on_c, 0, 66, 52
1, 58794, Note_on_c, 0, 55, 0
1, 58794, Note_on_c, 0, 48, 0
1, 58797, Note_on_c, 0, 48, 49
1, 58797, Note_on_c, 0, 57, 57
1, 58797, Control_c, 0, 64, 0
1, 58823, Control_c, 0, 64, 127
1, 59005, Note_on_c, 0, 57, 0
1, 59005, Note_on_c, 0, 48, 0
1, 59005, Note_on_c, 0, 43, 54
1, 59036, Note_on_c, 0, 66, 0
1, 59036, Note_on_c, 0, 69, 0
1, 59036, Note_on_c, 0, 63, 0
1, 59039, Note_on_c, 0, 60, 0
1, 59039, Note_on_c, 0, 62, 60
1, 59039, Note_on_c, 0, 70, 69
1, 59042, Note_on_c, 0, 43, 0
1, 59042, Note_on_c, 0, 58, 59
1, 59042, Control_c, 0, 64, 0
1, 59128, Control_c, 0, 64, 127
1, 59167, Note_on_c, 0, 70, 0
1, 59167, Note_on_c, 0, 62, 0
1, 59167, Note_on_c, 0, 72, 59
1, 59170, Note_on_c, 0, 58, 0
1, 59170, Note_on_c, 0, 60, 47
1, 59280, Note_on_c, 0, 72, 0
1, 59280, Note_on_c, 0, 69, 63
1, 59280, Note_on_c, 0, 60, 0
1, 59283, Note_on_c, 0, 57, 54
1, 59286, Control_c, 0, 64, 0
1, 59360, Control_c, 0, 64, 127
1, 59394, Note_on_c, 0, 69, 0
1, 59394, Note_on_c, 0, 70, 59
1, 59394, Note_on_c, 0, 57, 0
1, 59397, Note_on_c, 0, 58, 49
1, 59516, Note_on_c, 0, 70, 0
1, 59516, Note_on_c, 0, 67, 73
1, 59516, Note_on_c, 0, 58, 0
1, 59519, Note_on_c, 0, 55, 65
1, 59519, Control_c, 0, 64, 0
1, 59586, Control_c, 0, 64, 127
1, 59624, Note_on_c, 0, 67, 0
1, 59624, Note_on_c, 0, 75, 66
1, 59624, Note_on_c, 0, 55, 0
1, 59627, Note_on_c, 0, 63, 57
1, 59765, Note_on_c, 0, 75, 0
1, 59765, Note_on_c, 0, 75, 73
1, 59765, Note_on_c, 0, 63, 0
1, 59768, Note_on_c, 0, 63, 66
1, 59768, Control_c, 0, 64, 0
1, 60030, Note_on_c, 0, 75, 0
1, 60030, Note_on_c, 0, 63, 57
1, 60030, Note_on_c, 0, 67, 66
1, 60033, Note_on_c, 0, 60, 57
1, 60033, Note_on_c, 0, 63, 0
1, 60033, Note_on_c, 0, 48, 44
1, 60036, Note_on_c, 0, 55, 50
1, 60071, Control_c, 0, 64, 127
1, 60278, Note_on_c, 0, 60, 0
1, 60278, Note_on_c, 0, 67, 0
1, 60278, Note_on_c, 0, 63, 0
1, 60281, Note_on_c, 0, 60, 59
1, 60281, Note_on_c, 0, 63, 59
1, 60281, Note_on_c, 0, 69, 69
1, 60284, Note_on_c, 0, 55, 0
1, 60284, Note_on_c, 0, 48, 0
1, 60284, Note_on_c, 0, 41, 51
1, 60287, Note_on_c, 0, 53, 59
1, 60287, Control_c, 0, 64, 0
1, 60388, Control_c, 0, 64, 127
1, 60526, Note_on_c, 0, 63, 0
1, 60526, Note_on_c, 0, 60, 0
1, 60526, Note_on_c, 0, 62, 62
1, 60529, Note_on_c, 0, 41, 0
1, 60529, Note_on_c, 0, 46, 61
1, 60556, Control_c, 0, 64, 0
1, 60649, Control_c, 0, 64, 127
1, 60656, Note_on_c, 0, 62, 0
1, 60656, Note_on_c, 0, 69, 0
1, 60656, Note_on_c, 0, 70, 61
1, 60659, Note_on_c, 0, 46, 0
1, 60659, Note_on_c, 0, 53, 0
1, 60659, Note_on_c, 0, 58, 49
1, 60771, Note_on_c, 0, 70, 0
1, 60771, Note_on_c, 0, 67, 66
1, 60771, Note_on_c, 0, 58, 0
1, 60774, Note_on_c, 0, 55, 56
1, 60774, Control_c, 0, 64, 0
1, 60873, Control_c, 0, 64, 127
1, 60886, Note_on_c, 0, 67, 0
1, 60886, Note_on_c, 0, 69, 61
1, 60886, Note_on_c, 0, 55, 0
1, 60889, Note_on_c, 0, 57, 51
1, 61009, Note_on_c, 0, 69, 0
1, 61009, Note_on_c, 0, 65, 73
1, 61009, Note_on_c, 0, 57, 0
1, 61012, Note_on_c, 0, 53, 65
1, 61015, Control_c, 0, 64, 0
1, 61048, Control_c, 0, 64, 127
1, 61120, Note_on_c, 0, 65, 0
1, 61120, Note_on_c, 0, 74, 66
1, 61120, Note_on_c, 0, 53, 0
1, 61123, Note_on_c, 0, 62, 58
1, 61256, Note_on_c, 0, 74, 0
1, 61256, Note_on_c, 0, 74, 77
1, 61256, Note_on_c, 0, 62, 0
1, 61259, Note_on_c, 0, 62, 68
1, 61259, Control_c, 0, 64, 0
1, 61447, Control_c, 0, 64, 127
1, 61521, Note_on_c, 0, 74, 0
1, 61521, Note_on_c, 0, 58, 57
1, 61521, Note_on_c, 0, 62, 57
1, 61524, Note_on_c, 0, 65, 66
1, 61524, Note_on_c, 0, 62, 0
1, 61524, Note_on_c, 0, 46, 44
1, 61527, Note_on_c, 0, 53, 50
1, 61769, Note_on_c, 0, 65, 0
1, 61769, Note_on_c, 0, 62, 0
1, 61769, Note_on_c, 0, 58, 0
1, 61772, Note_on_c, 0, 62, 59
1, 61772, Note_on_c, 0, 67, 69
1, 61772, Note_on_c, 0, 58, 59
1, 61775, Note_on_c, 0, 53, 0
1, 61775, Note_on_c, 0, 46, 0
1, 61775, Note_on_c, 0, 39, 51
1, 61778, Note_on_c, 0, 51, 59
1, 61778, Control_c, 0, 64, 0
1, 61851, Control_c, 0, 64, 127
1, 62017, Note_on_c, 0, 58, 0
1, 62017, Note_on_c, 0, 62, 0
1, 62017, Note_on_c, 0, 60, 62
1, 62020, Note_on_c, 0, 39, 0
1, 62020, Note_on_c, 0, 45, 61
1, 62020, Control_c, 0, 64, 0
1, 62101, Control_c, 0, 64, 127
1, 62147, Note_on_c, 0, 60, 0
1, 62147, Note_on_c, 0, 67, 0
1, 62147, Note_on_c, 0, 69, 61
1, 62150, Note_on_c, 0, 45, 0
1, 62150, Note_on_c, 0, 51, 0
1, 62150, Note_on_c, 0, 57, 49
1, 62259, Note_on_c, 0, 69, 0
1, 62259, Note_on_c, 0, 65, 66
1, 62259, Note_on_c, 0, 57, 0
1, 62262, Note_on_c, 0, 53, 56
1, 62262, Control_c, 0, 64, 0
1, 62344, Control_c, 0, 64, 127
1, 62371, Note_on_c, 0, 65, 0
1, 62371, Note_on_c, 0, 67, 61
1, 62371, Note_on_c, 0, 53, 0
1, 62374, Note_on_c, 0, 55, 51
1, 62491, Note_on_c, 0, 67, 0
1, 62491, Note_on_c, 0, 63, 73
1, 62491, Note_on_c, 0, 55, 0
1, 62494, Note_on_c, 0, 51, 65
1, 62497, Control_c, 0, 64, 0
1, 62572, Control_c, 0, 64, 127
1, 62605, Note_on_c, 0, 63, 0
1, 62605, Note_on_c, 0, 72, 66
1, 62605, Note_on_c, 0, 51, 0
1, 62608, Note_on_c, 0, 60, 58
1, 62741, Note_on_c, 0, 72, 0
1, 62741, Note_on_c, 0, 72, 77
1, 62741, Note_on_c, 0, 60, 0
1, 62744, Note_on_c, 0, 60, 68
1, 62744, Control_c, 0, 64, 0
1, 63006, Note_on_c, 0, 72, 0
1, 63006, Note_on_c, 0, 60, 57
1, 63006, Note_on_c, 0, 55, 57
1, 63009, Note_on_c, 0, 63, 66
1, 63009, Note_on_c, 0, 60, 0
1, 63009, Note_on_c, 0, 36, 44
1, 63012, Note_on_c, 0, 48, 50
1, 63123, Control_c, 0, 64, 127
1, 63254, Note_on_c, 0, 63, 0
1, 63254, Note_on_c, 0, 55, 0
1, 63254, Note_on_c, 0, 60, 0
1, 63257, Note_on_c, 0, 57, 59
1, 63257, Note_on_c, 0, 54, 59
1, 63257, Note_on_c, 0, 62, 68
1, 63260, Note_on_c, 0, 48, 0
1, 63260, Note_on_c, 0, 36, 0
1, 63260, Note_on_c, 0, 38, 51
1, 63263, Note_on_c, 0, 50, 59
1, 63263, Control_c, 0, 64, 0
1, 63384, Control_c, 0, 64, 127
1, 63502, Note_on_c, 0, 54, 0
1, 63502, Note_on_c, 0, 57, 0
1, 63502, Note_on_c, 0, 55, 62
1, 63505, Note_on_c, 0, 38, 0
1, 63505, Note_on_c, 0, 43, 61
1, 63532, Control_c, 0, 64, 0
1, 63586, Control_c, 0, 64, 127
1, 63632, Note_on_c, 0, 55, 0
1, 63632, Note_on_c, 0, 62, 0
1, 63632, Note_on_c, 0, 63, 60
1, 63635, Note_on_c, 0, 43, 0
1, 63635, Note_on_c, 0, 50, 0
1, 63635, Note_on_c, 0, 51, 48
1, 63746, Note_on_c, 0, 63, 0
1, 63746, Note_on_c, 0, 60, 65
1, 63746, Note_on_c, 0, 51, 0
1, 63749, Note_on_c, 0, 48, 55
1, 63749, Control_c, 0, 64, 0
1, 63819, Control_c, 0, 64, 127
1, 63860, Note_on_c, 0, 60, 0
1, 63860, Note_on_c, 0, 62, 60
1, 63860, Note_on_c, 0, 48, 0
1, 63863, Note_on_c, 0, 50, 50
1, 63981, Note_on_c, 0, 62, 0
1, 63981, Note_on_c, 0, 58, 74
1, 63981, Note_on_c, 0, 50, 0
1, 63984, Note_on_c, 0, 46, 66
1, 63987, Control_c, 0, 64, 0
1, 64084, Control_c, 0, 64, 127
1, 64097, Note_on_c, 0, 58, 0
1, 64097, Note_on_c, 0, 67, 66
1, 64097, Note_on_c, 0, 46, 0
1, 64100, Note_on_c, 0, 55, 59
1, 64240, Note_on_c, 0, 67, 0
1, 64240, Note_on_c, 0, 67, 74
1, 64240, Note_on_c, 0, 55, 0
1, 64243, Note_on_c, 0, 55, 69
1, 64243, Control_c, 0, 64, 0
1, 64505, Note_on_c, 0, 67, 0
1, 64505, Note_on_c, 0, 60, 61
1, 64505, Note_on_c, 0, 55, 61
1, 64508, Note_on_c, 0, 63, 71
1, 64508, Note_on_c, 0, 55, 0
1, 64508, Note_on_c, 0, 36, 47
1, 64511, Note_on_c, 0, 48, 54
1, 64599, Control_c, 0, 64, 127
1, 64753, Note_on_c, 0, 63, 0
1, 64753, Note_on_c, 0, 55, 0
1, 64753, Note_on_c, 0, 60, 0
1, 64756, Note_on_c, 0, 54, 64
1, 64756, Note_on_c, 0, 62, 74
1, 64756, Note_on_c, 0, 57, 64
1, 64759, Note_on_c, 0, 48, 0
1, 64759, Note_on_c, 0, 36, 0
1, 64759, Note_on_c, 0, 38, 55
1, 64762, Note_on_c, 0, 50, 64
1, 64762, Control_c, 0, 64, 0
1, 64871, Control_c, 0, 64, 127
1, 65001, Note_on_c, 0, 57, 0
1, 65001, Note_on_c, 0, 54, 0
1, 65001, Note_on_c, 0, 55, 67
1, 65004, Note_on_c, 0, 38, 0
1, 65004, Note_on_c, 0, 43, 66
1, 65007, Control_c, 0, 64, 0
1, 65100, Control_c, 0, 64, 127
1, 65131, Note_on_c, 0, 55, 0
1, 65131, Note_on_c, 0, 62, 0
1, 65131, Note_on_c, 0, 62, 66
1, 65134, Note_on_c, 0, 43, 0
1, 65134, Note_on_c, 0, 50, 0
1, 65134, Note_on_c, 0, 50, 59
1, 65247, Note_on_c, 0, 62, 0
1, 65247, Note_on_c, 0, 64, 69
1, 65247, Note_on_c, 0, 50, 0
1, 65250, Note_on_c, 0, 52, 65
1, 65250, Control_c, 0, 64, 0
1, 65325, Control_c, 0, 64, 127
1, 65364, Note_on_c, 0, 64, 0
1, 65364, Note_on_c, 0, 66, 73
1, 65364, Note_on_c, 0, 52, 0
1, 65367, Note_on_c, 0, 54, 69
1, 65483, Note_on_c, 0, 66, 0
1, 65483, Note_on_c, 0, 67, 76
1, 65483, Note_on_c, 0, 54, 0
1, 65486, Note_on_c, 0, 55, 72
1, 65596, Note_on_c, 0, 67, 0
1, 65596, Note_on_c, 0, 69, 79
1, 65596, Note_on_c, 0, 55, 0
1, 65599, Note_on_c, 0, 57, 76
1, 65724, Note_on_c, 0, 69, 0
1, 65724, Note_on_c, 0, 70, 85
1, 65724, Note_on_c, 0, 57, 0
1, 65727, Note_on_c, 0, 58, 79
1, 65727, Control_c, 0, 64, 0
1, 65989, Note_on_c, 0, 70, 0
1, 65989, Note_on_c, 0, 70, 77
1, 65989, Note_on_c, 0, 67, 77
1, 65992, Note_on_c, 0, 74, 90
1, 65992, Note_on_c, 0, 58, 0
1, 65992, Note_on_c, 0, 55, 58
1, 65995, Note_on_c, 0, 58, 58
1, 65995, Note_on_c, 0, 62, 67
1, 66004, Control_c, 0, 64, 127
1, 66238, Note_on_c, 0, 74, 0
1, 66238, Note_on_c, 0, 67, 0
1, 66238, Note_on_c, 0, 70, 0
1, 66241, Note_on_c, 0, 70, 80
1, 66241, Note_on_c, 0, 67, 80
1, 66241, Note_on_c, 0, 76, 93
1, 66244, Note_on_c, 0, 73, 80
1, 66244, Note_on_c, 0, 62, 0
1, 66244, Note_on_c, 0, 58, 0
1, 66247, Note_on_c, 0, 55, 0
1, 66247, Note_on_c, 0, 55, 69
1, 66247, Note_on_c, 0, 58, 69
1, 66250, Note_on_c, 0, 61, 69
1, 66250, Note_on_c, 0, 64, 80
1, 66250, Control_c, 0, 64, 0
1, 66260, Control_c, 0, 64, 127
1, 66455, Note_on_c, 0, 64, 0
1, 66455, Note_on_c, 0, 55, 0
1, 66455, Note_on_c, 0, 58, 0
1, 66458, Note_on_c, 0, 61, 0
1, 66458, Note_on_c, 0, 50, 70
1, 66470, Note_on_c, 0, 57, 70
1, 66486, Note_on_c, 0, 73, 0
1, 66486, Note_on_c, 0, 70, 0
1, 66486, Note_on_c, 0, 67, 0
1, 66489, Note_on_c, 0, 76, 0
1, 66489, Note_on_c, 0, 77, 84
1, 66489, Note_on_c, 0, 69, 72
1, 66492, Note_on_c, 0, 74, 72
1, 66492, Note_on_c, 0, 65, 83
1, 66492, Control_c, 0, 64, 0
1, 66522, Control_c, 0, 64, 127
1, 66616, Note_on_c, 0, 74, 0
1, 66616, Note_on_c, 0, 69, 0
1, 66616, Note_on_c, 0, 77, 0
1, 66619, Note_on_c, 0, 79, 83
1, 66619, Note_on_c, 0, 65, 0
1, 66619, Note_on_c, 0, 57, 0
1, 66622, Note_on_c, 0, 50, 0
1, 66622, Note_on_c, 0, 67, 66
1, 66730, Note_on_c, 0, 79, 0
1, 66730, Note_on_c, 0, 76, 90
1, 66730, Note_on_c, 0, 67, 0
1, 66733, Note_on_c, 0, 64, 76
1, 66733, Control_c, 0, 64, 0
1, 66763, Control_c, 0, 64, 127
1, 66843, Note_on_c, 0, 76, 0
1, 66843, Note_on_c, 0, 77, 83
1, 66843, Note_on_c, 0, 64, 0
1, 66846, Note_on_c, 0, 65, 69
1, 66967, Note_on_c, 0, 77, 0
1, 66967, Note_on_c, 0, 74, 98
1, 66967, Note_on_c, 0, 65, 0
1, 66970, Note_on_c, 0, 62, 88
1, 67083, Note_on_c, 0, 74, 0
1, 67083, Note_on_c, 0, 82, 90
1, 67083, Note_on_c, 0, 62, 0
1, 67086, Note_on_c, 0, 70, 78
1, 67219, Note_on_c, 0, 82, 0
1, 67219, Note_on_c, 0, 82, 98
1, 67219, Note_on_c, 0, 70, 0
1, 67222, Note_on_c, 0, 70, 90
1, 67225, Control_c, 0, 64, 0
1, 67253, Control_c, 0, 64, 127
1, 67484, Note_on_c, 0, 82, 0
1, 67484, Note_on_c, 0, 70, 77
1, 67484, Note_on_c, 0, 67, 77
1, 67487, Note_on_c, 0, 74, 90
1, 67487, Note_on_c, 0, 70, 0
1, 67487, Note_on_c, 0, 55, 58
1, 67490, Note_on_c, 0, 58, 58
1, 67490, Note_on_c, 0, 62, 67
1, 67490, Control_c, 0, 64, 0
1, 67510, Control_c, 0, 64, 127
1, 67732, Note_on_c, 0, 74, 0
1, 67732, Note_on_c, 0, 67, 0
1, 67732, Note_on_c, 0, 70, 0
1, 67735, Note_on_c, 0, 70, 80
1, 67735, Note_on_c, 0, 67, 80
1, 67735, Note_on_c, 0, 76, 93
1, 67738, Note_on_c, 0, 73, 80
1, 67738, Note_on_c, 0, 62, 0
1, 67738, Note_on_c, 0, 58, 0
1, 67741, Note_on_c, 0, 55, 0
1, 67741, Note_on_c, 0, 55, 69
1, 67741, Note_on_c, 0, 58, 69
1, 67744, Note_on_c, 0, 61, 69
1, 67744, Note_on_c, 0, 64, 80
1, 67744, Control_c, 0, 64, 0
1, 67786, Control_c, 0, 64, 127
1, 67949, Note_on_c, 0, 64, 0
1, 67949, Note_on_c, 0, 55, 0
1, 67949, Note_on_c, 0, 58, 0
1, 67952, Note_on_c, 0, 61, 0
1, 67952, Note_on_c, 0, 50, 70
1, 67964, Note_on_c, 0, 57, 70
1, 67980, Note_on_c, 0, 73, 0
1, 67980, Note_on_c, 0, 70, 0
1, 67980, Note_on_c, 0, 67, 0
1, 67983, Note_on_c, 0, 76, 0
1, 67983, Note_on_c, 0, 77, 84
1, 67983, Note_on_c, 0, 69, 72
1, 67986, Note_on_c, 0, 74, 72
1, 67986, Note_on_c, 0, 65, 83
1, 67993, Control_c, 0, 64, 0
1, 68018, Control_c, 0, 64, 127
1, 68110, Note_on_c, 0, 74, 0
1, 68110, Note_on_c, 0, 69, 0
1, 68110, Note_on_c, 0, 77, 0
1, 68113, Note_on_c, 0, 79, 83
1, 68113, Note_on_c, 0, 65, 0
1, 68113, Note_on_c, 0, 57, 0
1, 68116, Note_on_c, 0, 50, 0
1, 68116, Note_on_c, 0, 67, 66
1, 68225, Note_on_c, 0, 79, 0
1, 68225, Note_on_c, 0, 76, 90
1, 68225, Note_on_c, 0, 67, 0
1, 68228, Note_on_c, 0, 64, 76
1, 68228, Control_c, 0, 64, 0
1, 68262, Control_c, 0, 64, 127
1, 68339, Note_on_c, 0, 76, 0
1, 68339, Note_on_c, 0, 77, 83
1, 68339, Note_on_c, 0, 64, 0
1, 68342, Note_on_c, 0, 65, 69
1, 68464, Note_on_c, 0, 77, 0
1, 68464, Note_on_c, 0, 74, 97
1, 68464, Note_on_c, 0, 65, 0
1, 68467, Note_on_c, 0, 62, 87
1, 68580, Note_on_c, 0, 74, 0
1, 68580, Note_on_c, 0, 82, 90
1, 68580, Note_on_c, 0, 62, 0
1, 68583, Note_on_c, 0, 70, 78
1, 68715, Note_on_c, 0, 82, 0
1, 68715, Note_on_c, 0, 82, 99
1, 68715, Note_on_c, 0, 70, 0
1, 68718, Note_on_c, 0, 70, 90
1, 68718, Control_c, 0, 64, 0
1, 68841, Control_c, 0, 64, 127
1, 68980, Note_on_c, 0, 82, 0
1, 68980, Note_on_c, 0, 74, 72
1, 68980, Note_on_c, 0, 65, 61
1, 68983, Note_on_c, 0, 70, 61
1, 68983, Note_on_c, 0, 70, 0
1, 68983, Note_on_c, 0, 50, 47
1, 68986, Note_on_c, 0, 58, 47
1, 68986, Note_on_c, 0, 62, 54
1, 68986, Control_c, 0, 64, 0
1, 69098, Control_c, 0, 64, 127
1, 69228, Note_on_c, 0, 70, 0
1, 69228, Note_on_c, 0, 65, 0
1, 69228, Note_on_c, 0, 74, 0
1, 69231, Note_on_c, 0, 70, 64
1, 69231, Note_on_c, 0, 66, 64
1, 69231, Note_on_c, 0, 74, 74
1, 69234, Note_on_c, 0, 62, 0
1, 69234, Note_on_c, 0, 58, 0
1, 69234, Note_on_c, 0, 50, 0
1, 69237, Note_on_c, 0, 50, 55
1, 69237, Note_on_c, 0, 58, 55
1, 69237, Note_on_c, 0, 62, 64
1, 69240, Control_c, 0, 64, 0
1, 69346, Control_c, 0, 64, 127
1, 69476, Note_on_c, 0, 74, 0
1, 69476, Note_on_c, 0, 66, 0
1, 69476, Note_on_c, 0, 70, 0
1, 69479, Note_on_c, 0, 67, 62
1, 69479, Note_on_c, 0, 72, 72
1, 69479, Note_on_c, 0, 70, 62
1, 69482, Note_on_c, 0, 62, 0
1, 69482, Note_on_c, 0, 58, 0
1, 69482, Note_on_c, 0, 50, 0
1, 69485, Note_on_c, 0, 51, 59
1, 69485, Note_on_c, 0, 58, 59
1, 69485, Note_on_c, 0, 60, 68
1, 69488, Control_c, 0, 64, 0
1, 69552, Control_c, 0, 64, 127
1, 69606, Note_on_c, 0, 70, 0
1, 69606, Note_on_c, 0, 72, 0
1, 69606, Note_on_c, 0, 67, 0
1, 69609, Note_on_c, 0, 79, 75
1, 69609, Note_on_c, 0, 60, 0
1, 69609, Note_on_c, 0, 58, 0
1, 69612, Note_on_c, 0, 51, 0
1, 69612, Note_on_c, 0, 67, 72
1, 69612, Control_c, 0, 64, 0
1, 69710, Control_c, 0, 64, 127
1, 69835, Note_on_c, 0, 79, 0
1, 69835, Note_on_c, 0, 75, 66
1, 69835, Note_on_c, 0, 67, 0
1, 69838, Note_on_c, 0, 63, 55
1, 69947, Note_on_c, 0, 75, 0
1, 69947, Note_on_c, 0, 72, 76
1, 69947, Note_on_c, 0, 63, 0
1, 69950, Note_on_c, 0, 60, 65
1, 70055, Note_on_c, 0, 72, 0
1, 70055, Note_on_c, 0, 70, 64
1, 70055, Note_on_c, 0, 60, 0
1, 70058, Note_on_c, 0, 58, 55
1, 70183, Note_on_c, 0, 70, 0
1, 70183, Note_on_c, 0, 69, 71
1, 70183, Note_on_c, 0, 58, 0
1, 70186, Note_on_c, 0, 53, 52
1, 70186, Note_on_c, 0, 57, 60
1, 70186, Control_c, 0, 64, 0
1, 70284, Control_c, 0, 64, 127
1, 70316, Note_on_c, 0, 69, 0
1, 70316, Note_on_c, 0, 75, 78
1, 70316, Note_on_c, 0, 57, 0
1, 70319, Note_on_c, 0, 53, 0
1, 70319, Note_on_c, 0, 63, 57
1, 70561, Note_on_c, 0, 75, 0
1, 70561, Note_on_c, 0, 72, 57
1, 70561, Note_on_c, 0, 63, 0
1, 70564, Note_on_c, 0, 60, 51
1, 70689, Note_on_c, 0, 72, 0
1, 70689, Note_on_c, 0, 69, 67
1, 70689, Note_on_c, 0, 60, 0
1, 70692, Note_on_c, 0, 57, 55
1, 70815, Note_on_c, 0, 69, 0
1, 70815, Note_on_c, 0, 67, 55
1, 70815, Note_on_c, 0, 57, 0
1, 70818, Note_on_c, 0, 55, 51
1, 70963, Note_on_c, 0, 67, 0
1, 70963, Note_on_c, 0, 69, 62
1, 70963, Note_on_c, 0, 55, 0
1, 70966, Note_on_c, 0, 54, 45
1, 70966, Note_on_c, 0, 57, 50
1, 70966, Control_c, 0, 64, 0
1, 70998, Control_c, 0, 64, 127
1, 71030, Note_on_c, 0, 69, 0
1, 71030, Note_on_c, 0, 74, 53
1, 71030, Note_on_c, 0, 57, 0
1, 71033, Note_on_c, 0, 54, 0
1, 71033, Note_on_c, 0, 62, 49
1, 71078, Control_c, 0, 64, 0
1, 71199, Note_on_c, 0, 74, 0
1, 71199, Note_on_c, 0, 62, 0
1, 71300, Note_on_c, 0, 67, 55
1, 71300, Note_on_c, 0, 60, 48
1, 71300, Note_on_c, 0, 63, 48
1, 71303, Note_on_c, 0, 48, 41
1, 71303, Note_on_c, 0, 55, 47
1, 71335, Control_c, 0, 64, 127
1, 71566, Note_on_c, 0, 63, 0
1, 71566, Note_on_c, 0, 60, 0
1, 71566, Note_on_c, 0, 67, 0
1, 71569, Note_on_c, 0, 63, 50
1, 71569, Note_on_c, 0, 66, 50
1, 71569, Note_on_c, 0, 60, 50
1, 71572, Note_on_c, 0, 69, 58
1, 71572, Note_on_c, 0, 55, 0
1, 71572, Note_on_c, 0, 48, 0
1, 71575, Note_on_c, 0, 48, 48
1, 71575, Note_on_c, 0, 57, 55
1, 71575, Control_c, 0, 64, 0
1, 71623, Control_c, 0, 64, 127
1, 71799, Note_on_c, 0, 57, 0
1, 71799, Note_on_c, 0, 48, 0
1, 71799, Note_on_c, 0, 43, 52
1, 71832, Note_on_c, 0, 69, 0
1, 71832, Note_on_c, 0, 63, 0
1, 71832, Note_on_c, 0, 66, 0
1, 71835, Note_on_c, 0, 60, 0
1, 71835, Note_on_c, 0, 62, 58
1, 71835, Note_on_c, 0, 70, 67
1, 71838, Note_on_c, 0, 43, 0
1, 71838, Note_on_c, 0, 58, 57
1, 71838, Control_c, 0, 64, 0
1, 71878, Control_c, 0, 64, 127
1, 71962, Note_on_c, 0, 70, 0
1, 71962, Note_on_c, 0, 62, 0
1, 71962, Note_on_c, 0, 72, 57
1, 71965, Note_on_c, 0, 58, 0
1, 71965, Note_on_c, 0, 60, 46
1, 72078, Note_on_c, 0, 72, 0
1, 72078, Note_on_c, 0, 69, 61
1, 72078, Note_on_c, 0, 60, 0
1, 72081, Note_on_c, 0, 57, 52
1, 72081, Control_c, 0, 64, 0
1, 72133, Control_c, 0, 64, 127
1, 72194, Note_on_c, 0, 69, 0
1, 72194, Note_on_c, 0, 70, 57
1, 72194, Note_on_c, 0, 57, 0
1, 72197, Note_on_c, 0, 58, 48
1, 72318, Note_on_c, 0, 70, 0
1, 72318, Note_on_c, 0, 67, 71
1, 72318, Note_on_c, 0, 58, 0
1, 72321, Note_on_c, 0, 55, 63
1, 72321, Control_c, 0, 64, 0
1, 72426, Note_on_c, 0, 67, 0
1, 72426, Note_on_c, 0, 74, 64
1, 72426, Note_on_c, 0, 55, 0
1, 72429, Note_on_c, 0, 62, 60
1, 72434, Control_c, 0, 64, 127
1, 72563, Note_on_c, 0, 74, 0
1, 72563, Note_on_c, 0, 74, 76
1, 72563, Note_on_c, 0, 62, 0
1, 72566, Note_on_c, 0, 62, 65
1, 72566, Control_c, 0, 64, 0
1, 72828, Note_on_c, 0, 74, 0
1, 72828, Note_on_c, 0, 60, 50
1, 72828, Note_on_c, 0, 63, 50
1, 72831, Note_on_c, 0, 67, 57
1, 72831, Note_on_c, 0, 62, 0
1, 72831, Note_on_c, 0, 48, 42
1, 72834, Note_on_c, 0, 55, 48
1, 72864, Control_c, 0, 64, 127
1, 73076, Note_on_c, 0, 67, 0
1, 73076, Note_on_c, 0, 63, 0
1, 73076, Note_on_c, 0, 60, 0
1, 73079, Note_on_c, 0, 63, 52
1, 73079, Note_on_c, 0, 66, 52
1, 73079, Note_on_c, 0, 60, 52
1, 73082, Note_on_c, 0, 69, 60
1, 73082, Note_on_c, 0, 55, 0
1, 73082, Note_on_c, 0, 48, 0
1, 73085, Note_on_c, 0, 48, 49
1, 73085, Note_on_c, 0, 57, 57
1, 73085, Control_c, 0, 64, 0
1, 73110, Control_c, 0, 64, 127
1, 73293, Note_on_c, 0, 57, 0
1, 73293, Note_on_c, 0, 48, 0
1, 73293, Note_on_c, 0, 43, 54
1, 73324, Note_on_c, 0, 69, 0
1, 73324, Note_on_c, 0, 63, 0
1, 73324, Note_on_c, 0, 66, 0
1, 73327, Note_on_c, 0, 60, 0
1, 73327, Note_on_c, 0, 70, 69
1, 73327, Note_on_c, 0, 62, 60
1, 73330, Note_on_c, 0, 43, 0
1, 73330, Note_on_c, 0, 58, 59
1, 73330, Control_c, 0, 64, 0
1, 73416, Control_c, 0, 64, 127
1, 73454, Note_on_c, 0, 62, 0
1, 73454, Note_on_c, 0, 70, 0
1, 73454, Note_on_c, 0, 72, 59
1, 73457, Note_on_c, 0, 58, 0
1, 73457, Note_on_c, 0, 60, 47
1, 73568, Note_on_c, 0, 72, 0
1, 73568, Note_on_c, 0, 69, 63
1, 73568, Note_on_c, 0, 60, 0
1, 73571, Note_on_c, 0, 57, 54
1, 73571, Control_c, 0, 64, 0
1, 73647, Control_c, 0, 64, 127
1, 73681, Note_on_c, 0, 69, 0
1, 73681, Note_on_c, 0, 70, 59
1, 73681, Note_on_c, 0, 57, 0
1, 73684, Note_on_c, 0, 58, 49
1, 73803, Note_on_c, 0, 70, 0
1, 73803, Note_on_c, 0, 67, 75
1, 73803, Note_on_c, 0, 58, 0
1, 73806, Note_on_c, 0, 55, 66
1, 73806, Control_c, 0, 64, 0
1, 73873, Control_c, 0, 64, 127
1, 73911, Note_on_c, 0, 67, 0
1, 73911, Note_on_c, 0, 75, 68
1, 73911, Note_on_c, 0, 55, 0
1, 73914, Note_on_c, 0, 63, 58
1, 74058, Note_on_c, 0, 75, 0
1, 74058, Note_on_c, 0, 75, 78
1, 74058, Note_on_c, 0, 63, 0
1, 74061, Note_on_c, 0, 63, 72
1, 74061, Control_c, 0, 64, 0
1, 74323, Note_on_c, 0, 75, 0
1, 74323, Note_on_c, 0, 63, 57
1, 74323, Note_on_c, 0, 60, 57
1, 74326, Note_on_c, 0, 67, 66
1, 74326, Note_on_c, 0, 63, 0
1, 74326, Note_on_c, 0, 48, 44
1, 74329, Note_on_c, 0, 55, 50
1, 74365, Control_c, 0, 64, 127
1, 74571, Note_on_c, 0, 67, 0
1, 74571, Note_on_c, 0, 60, 0
1, 74571, Note_on_c, 0, 63, 0
1, 74574, Note_on_c, 0, 60, 59
1, 74574, Note_on_c, 0, 69, 69
1, 74574, Note_on_c, 0, 63, 59
1, 74577, Note_on_c, 0, 55, 0
1, 74577, Note_on_c, 0, 48, 0
1, 74577, Note_on_c, 0, 41, 51
1, 74580, Note_on_c, 0, 53, 59
1, 74580, Control_c, 0, 64, 0
1, 74682, Control_c, 0, 64, 127
1, 74820, Note_on_c, 0, 63, 0
1, 74820, Note_on_c, 0, 60, 0
1, 74820, Note_on_c, 0, 62, 62
1, 74823, Note_on_c, 0, 41, 0
1, 74823, Note_on_c, 0, 46, 61
1, 74850, Control_c, 0, 64, 0
1, 74942, Control_c, 0, 64, 127
1, 74950, Note_on_c, 0, 62, 0
1, 74950, Note_on_c, 0, 69, 0
1, 74950, Note_on_c, 0, 70, 61
1, 74953, Note_on_c, 0, 46, 0
1, 74953, Note_on_c, 0, 53, 0
1, 74953, Note_on_c, 0, 58, 49
1, 75065, Note_on_c, 0, 70, 0
1, 75065, Note_on_c, 0, 67, 66
1, 75065, Note_on_c, 0, 58, 0
1, 75068, Note_on_c, 0, 55, 56
1, 75068, Control_c, 0, 64, 0
1, 75166, Control_c, 0, 64, 127
1, 75179, Note_on_c, 0, 67, 0
1, 75179, Note_on_c, 0, 69, 61
1, 75179, Note_on_c, 0, 55, 0
1, 75182, Note_on_c, 0, 57, 51
1, 75298, Note_on_c, 0, 69, 0
1, 75298, Note_on_c, 0, 65, 73
1, 75298, Note_on_c, 0, 57, 0
1, 75301, Note_on_c, 0, 53, 65
1, 75304, Control_c, 0, 64, 0
1, 75337, Control_c, 0, 64, 127
1, 75409, Note_on_c, 0, 65, 0
1, 75409, Note_on_c, 0, 74, 66
1, 75409, Note_on_c, 0, 53, 0
1, 75412, Note_on_c, 0, 62, 58
1, 75546, Note_on_c, 0, 74, 0
1, 75546, Note_on_c, 0, 74, 77
1, 75546, Note_on_c, 0, 62, 0
1, 75549, Note_on_c, 0, 62, 68
1, 75549, Control_c, 0, 64, 0
1, 75737, Control_c, 0, 64, 127
1, 75811, Note_on_c, 0, 74, 0
1, 75811, Note_on_c, 0, 65, 66
1, 75811, Note_on_c, 0, 58, 57
1, 75814, Note_on_c, 0, 62, 57
1, 75814, Note_on_c, 0, 62, 0
1, 75814, Note_on_c, 0, 46, 44
1, 75817, Note_on_c, 0, 53, 50
1, 76059, Note_on_c, 0, 62, 0
1, 76059, Note_on_c, 0, 58, 0
1, 76059, Note_on_c, 0, 65, 0
1, 76062, Note_on_c, 0, 62, 59
1, 76062, Note_on_c, 0, 58, 59
1, 76062, Note_on_c, 0, 67, 69
1, 76065, Note_on_c, 0, 53, 0
1, 76065, Note_on_c, 0, 46, 0
1, 76065, Note_on_c, 0, 39, 51
1, 76068, Note_on_c, 0, 51, 59
1, 76068, Control_c, 0, 64, 0
1, 76141, Control_c, 0, 64, 127
1, 76307, Note_on_c, 0, 58, 0
1, 76307, Note_on_c, 0, 62, 0
1, 76307, Note_on_c, 0, 60, 62
1, 76310, Note_on_c, 0, 39, 0
1, 76310, Note_on_c, 0, 45, 61
1, 76310, Control_c, 0, 64, 0
1, 76391, Control_c, 0, 64, 127
1, 76437, Note_on_c, 0, 60, 0
1, 76437, Note_on_c, 0, 67, 0
1, 76437, Note_on_c, 0, 69, 61
1, 76440, Note_on_c, 0, 45, 0
1, 76440, Note_on_c, 0, 51, 0
1, 76440, Note_on_c, 0, 57, 49
1, 76549, Note_on_c, 0, 69, 0
1, 76549, Note_on_c, 0, 65, 66
1, 76549, Note_on_c, 0, 57, 0
1, 76552, Note_on_c, 0, 53, 56
1, 76552, Control_c, 0, 64, 0
1, 76634, Control_c, 0, 64, 127
1, 76661, Note_on_c, 0, 65, 0
1, 76661, Note_on_c, 0, 67, 61
1, 76661, Note_on_c, 0, 53, 0
1, 76664, Note_on_c, 0, 55, 51
1, 76779, Note_on_c, 0, 67, 0
1, 76779, Note_on_c, 0, 63, 76
1, 76779, Note_on_c, 0, 55, 0
1, 76782, Note_on_c, 0, 51, 65
1, 76782, Control_c, 0, 64, 0
1, 76859, Control_c, 0, 64, 127
1, 76893, Note_on_c, 0, 63, 0
1, 76893, Note_on_c, 0, 72, 72
1, 76893, Note_on_c, 0, 51, 0
1, 76896, Note_on_c, 0, 60, 58
1, 77028, Note_on_c, 0, 72, 0
1, 77028, Note_on_c, 0, 72, 77
1, 77028, Note_on_c, 0, 60, 0
1, 77031, Note_on_c, 0, 60, 68
1, 77031, Control_c, 0, 64, 0
1, 77293, Note_on_c, 0, 72, 0
1, 77293, Note_on_c, 0, 60, 57
1, 77293, Note_on_c, 0, 55, 57
1, 77296, Note_on_c, 0, 63, 66
1, 77296, Note_on_c, 0, 60, 0
1, 77296, Note_on_c, 0, 36, 44
1, 77299, Note_on_c, 0, 48, 50
1, 77411, Control_c, 0, 64, 127
1, 77541, Note_on_c, 0, 63, 0
1, 77541, Note_on_c, 0, 55, 0
1, 77541, Note_on_c, 0, 60, 0
1, 77544, Note_on_c, 0, 54, 59
1, 77544, Note_on_c, 0, 62, 68
1, 77544, Note_on_c, 0, 57, 59
1, 77547, Note_on_c, 0, 48, 0
1, 77547, Note_on_c, 0, 36, 0
1, 77547, Note_on_c, 0, 38, 51
1, 77550, Note_on_c, 0, 50, 59
1, 77550, Control_c, 0, 64, 0
1, 77671, Control_c, 0, 64, 127
1, 77790, Note_on_c, 0, 57, 0
1, 77790, Note_on_c, 0, 54, 0
1, 77790, Note_on_c, 0, 55, 62
1, 77793, Note_on_c, 0, 38, 0
1, 77793, Note_on_c, 0, 43, 61
1, 77820, Control_c, 0, 64, 0
1, 77874, Control_c, 0, 64, 127
1, 77920, Note_on_c, 0, 55, 0
1, 77920, Note_on_c, 0, 62, 0
1, 77920, Note_on_c, 0, 63, 60
1, 77923, Note_on_c, 0, 43, 0
1, 77923, Note_on_c, 0, 50, 0
1, 77923, Note_on_c, 0, 51, 48
1, 78033, Note_on_c, 0, 63, 0
1, 78033, Note_on_c, 0, 60, 65
1, 78033, Note_on_c, 0, 51, 0
1, 78036, Note_on_c, 0, 48, 55
1, 78036, Control_c, 0, 64, 0
1, 78107, Control_c, 0, 64, 127
1, 78147, Note_on_c, 0, 60, 0
1, 78147, Note_on_c, 0, 62, 60
1, 78147, Note_on_c, 0, 48, 0
1, 78150, Note_on_c, 0, 50, 50
1, 78270, Note_on_c, 0, 62, 0
1, 78270, Note_on_c, 0, 58, 77
1, 78270, Note_on_c, 0, 50, 0
1, 78273, Note_on_c, 0, 46, 67
1, 78276, Control_c, 0, 64, 0
1, 78373, Control_c, 0, 64, 127
1, 78386, Note_on_c, 0, 58, 0
1, 78386, Note_on_c, 0, 67, 71
1, 78386, Note_on_c, 0, 46, 0
1, 78389, Note_on_c, 0, 55, 62
1, 78524, Note_on_c, 0, 67, 0
1, 78524, Note_on_c, 0, 67, 79
1, 78524, Note_on_c, 0, 55, 0
1, 78527, Note_on_c, 0, 55, 71
1, 78527, Control_c, 0, 64, 0
1, 78789, Note_on_c, 0, 67, 0
1, 78789, Note_on_c, 0, 55, 61
1, 78789, Note_on_c, 0, 60, 61
1, 78792, Note_on_c, 0, 63, 71
1, 78792, Note_on_c, 0, 55, 0
1, 78792, Note_on_c, 0, 36, 47
1, 78795, Note_on_c, 0, 48, 54
1, 78883, Control_c, 0, 64, 127
1, 79037, Note_on_c, 0, 63, 0
1, 79037, Note_on_c, 0, 60, 0
1, 79037, Note_on_c, 0, 55, 0
1, 79040, Note_on_c, 0, 57, 58
1, 79040, Note_on_c, 0, 54, 58
1, 79040, Note_on_c, 0, 62, 67
1, 79043, Note_on_c, 0, 48, 0
1, 79043, Note_on_c, 0, 36, 0
1, 79043, Note_on_c, 0, 38, 50
1, 79046, Note_on_c, 0, 50, 58
1, 79046, Control_c, 0, 64, 0
1, 79155, Control_c, 0, 64, 127
1, 79285, Note_on_c, 0, 54, 0
1, 79285, Note_on_c, 0, 57, 0
1, 79285, Note_on_c, 0, 55, 60
1, 79288, Note_on_c, 0, 38, 0
1, 79288, Note_on_c, 0, 43, 52
1, 79288, Control_c, 0, 64, 0
1, 79320, Control_c, 0, 64, 127
1, 79398, Control_c, 0, 64, 0
1, 79550, Note_on_c, 0, 55, 0
1, 79550, Note_on_c, 0, 62, 0
1, 79550, Note_on_c, 0, 53, 70
1, 79553, Note_on_c, 0, 58, 70
1, 79553, Note_on_c, 0, 62, 81
1, 79553, Note_on_c, 0, 43, 0
1, 79556, Note_on_c, 0, 50, 0
1, 79556, Note_on_c, 0, 34, 57
1, 79556, Note_on_c, 0, 46, 66
1, 79585, Control_c, 0, 64, 127
1, 79683, Note_on_c, 0, 62, 0
1, 79683, Note_on_c, 0, 58, 0
1, 79683, Note_on_c, 0, 53, 0
1, 79686, Note_on_c, 0, 46, 0
1, 79686, Note_on_c, 0, 34, 0
1, 79816, Note_on_c, 0, 53, 73
1, 79816, Note_on_c, 0, 60, 73
1, 79816, Note_on_c, 0, 65, 85
1, 79819, Note_on_c, 0, 33, 59
1, 79819, Note_on_c, 0, 45, 68
1, 79822, Control_c, 0, 64, 0
1, 79872, Control_c, 0, 64, 127
1, 79949, Note_on_c, 0, 65, 0
1, 79949, Note_on_c, 0, 60, 0
1, 79949, Note_on_c, 0, 53, 0
1, 79952, Note_on_c, 0, 45, 0
1, 79952, Note_on_c, 0, 33, 0
1, 80082, Note_on_c, 0, 65, 77
1, 80082, Note_on_c, 0, 62, 77
1, 80082, Note_on_c, 0, 70, 89
1, 80085, Note_on_c, 0, 32, 66
1, 80085, Note_on_c, 0, 44, 77
1, 80085, Control_c, 0, 64, 0
1, 80127, Control_c, 0, 64, 127
1, 80147, Note_on_c, 0, 70, 0
1, 80147, Note_on_c, 0, 62, 0
1, 80147, Note_on_c, 0, 65, 0
1, 80150, Note_on_c, 0, 44, 0
1, 80150, Note_on_c, 0, 32, 0
1, 80212, Note_on_c, 0, 70, 74
1, 80212, Note_on_c, 0, 58, 66
1, 80325, Note_on_c, 0, 70, 0
1, 80325, Note_on_c, 0, 65, 82
1, 80325, Note_on_c, 0, 58, 0
1, 80328, Note_on_c, 0, 53, 72
1, 80336, Control_c, 0, 64, 0
1, 80365, Control_c, 0, 64, 127
1, 80438, Note_on_c, 0, 65, 0
1, 80438, Note_on_c, 0, 67, 77
1, 80438, Note_on_c, 0, 53, 0
1, 80441, Note_on_c, 0, 55, 62
1, 80561, Note_on_c, 0, 67, 0
1, 80561, Note_on_c, 0, 58, 86
1, 80561, Note_on_c, 0, 55, 0
1, 80564, Note_on_c, 0, 46, 72
1, 80564, Control_c, 0, 64, 0
1, 80674, Control_c, 0, 64, 127
1, 80731, Note_on_c, 0, 58, 0
1, 80731, Note_on_c, 0, 70, 76
1, 80731, Note_on_c, 0, 46, 0
1, 80734, Note_on_c, 0, 58, 65
1, 80806, Note_on_c, 0, 70, 0
1, 80806, Note_on_c, 0, 70, 88
1, 80806, Note_on_c, 0, 58, 0
1, 80809, Note_on_c, 0, 58, 73
1, 80809, Control_c, 0, 64, 0
1, 81070, Note_on_c, 0, 70, 0
1, 81070, Note_on_c, 0, 62, 79
1, 81070, Note_on_c, 0, 65, 79
1, 81073, Note_on_c, 0, 70, 91
1, 81073, Note_on_c, 0, 58, 0
1, 81073, Note_on_c, 0, 32, 57
1, 81076, Note_on_c, 0, 44, 66
1, 81105, Control_c, 0, 64, 127
1, 81203, Note_on_c, 0, 70, 0
1, 81203, Note_on_c, 0, 65, 0
1, 81203, Note_on_c, 0, 62, 0
1, 81206, Note_on_c, 0, 44, 0
1, 81206, Note_on_c, 0, 32, 0
1, 81336, Note_on_c, 0, 65, 82
1, 81336, Note_on_c, 0, 70, 82
1, 81336, Note_on_c, 0, 74, 96
1, 81339, Note_on_c, 0, 31, 59
1, 81339, Note_on_c, 0, 43, 68
1, 81342, Control_c, 0, 64, 0
1, 81392, Control_c, 0, 64, 127
1, 81469, Note_on_c, 0, 74, 0
1, 81469, Note_on_c, 0, 70, 0
1, 81469, Note_on_c, 0, 65, 0
1, 81472, Note_on_c, 0, 43, 0
1, 81472, Note_on_c, 0, 31, 0
1, 81602, Note_on_c, 0, 74, 87
1, 81602, Note_on_c, 0, 68, 87
1, 81602, Note_on_c, 0, 77, 100
1, 81605, Note_on_c, 0, 29, 66
1, 81605, Note_on_c, 0, 41, 77
1, 81605, Control_c, 0, 64, 0
1, 81647, Control_c, 0, 64, 127
1, 81667, Note_on_c, 0, 77, 0
1, 81667, Note_on_c, 0, 68, 0
1, 81667, Note_on_c, 0, 74, 0
1, 81670, Note_on_c, 0, 41, 0
1, 81670, Note_on_c, 0, 29, 0
1, 81732, Note_on_c, 0, 77, 83
1, 81732, Note_on_c, 0, 65, 74
1, 81845, Note_on_c, 0, 77, 0
1, 81845, Note_on_c, 0, 72, 92
1, 81845, Note_on_c, 0, 65, 0
1, 81848, Note_on_c, 0, 60, 81
1, 81855, Control_c, 0, 64, 0
1, 81885, Control_c, 0, 64, 127
1, 81958, Note_on_c, 0, 72, 0
1, 81958, Note_on_c, 0, 74, 87
1, 81958, Note_on_c, 0, 60, 0
1, 81961, Note_on_c, 0, 62, 69
1, 82081, Note_on_c, 0, 74, 0
1, 82081, Note_on_c, 0, 68, 97
1, 82081, Note_on_c, 0, 62, 0
1, 82084, Note_on_c, 0, 56, 81
1, 82084, Control_c, 0, 64, 0
1, 82194, Control_c, 0, 64, 127
1, 82251, Note_on_c, 0, 68, 0
1, 82251, Note_on_c, 0, 80, 85
1, 82251, Note_on_c, 0, 56, 0
1, 82254, Note_on_c, 0, 68, 73
1, 82327, Note_on_c, 0, 80, 0
1, 82327, Note_on_c, 0, 80, 99
1, 82327, Note_on_c, 0, 68, 0
1, 82330, Note_on_c, 0, 68, 82
1, 82330, Control_c, 0, 64, 0
1, 82591, Note_on_c, 0, 80, 0
1, 82591, Note_on_c, 0, 68, 92
1, 82591, Note_on_c, 0, 72, 92
1, 82594, Note_on_c, 0, 80, 107
1, 82594, Note_on_c, 0, 68, 0
1, 82594, Note_on_c, 0, 29, 61
1, 82597, Note_on_c, 0, 41, 71
1, 82626, Control_c, 0, 64, 127
1, 82726, Note_on_c, 0, 80, 0
1, 82726, Note_on_c, 0, 72, 0
1, 82726, Note_on_c, 0, 68, 0
1, 82729, Note_on_c, 0, 41, 0
1, 82729, Note_on_c, 0, 29, 0
1, 82861, Note_on_c, 0, 72, 99
1, 82861, Note_on_c, 0, 77, 99
1, 82861, Note_on_c, 0, 84, 116
1, 82864, Note_on_c, 0, 27, 67
1, 82864, Note_on_c, 0, 39, 77
1, 82868, Control_c, 0, 64, 0
1, 82922, Control_c, 0, 64, 127
1, 83006, Note_on_c, 0, 84, 0
1, 83006, Note_on_c, 0, 77, 0
1, 83006, Note_on_c, 0, 72, 0
1, 83009, Note_on_c, 0, 39, 0
1, 83009, Note_on_c, 0, 27, 0
1, 83151, Note_on_c, 0, 82, 108
1, 83151, Note_on_c, 0, 77, 108
1, 83151, Note_on_c, 0, 89, 125
1, 83154, Note_on_c, 0, 26, 79
1, 83154, Note_on_c, 0, 38, 93
1, 83154, Control_c, 0, 64, 0
1, 83197, Control_c, 0, 64, 127
1, 83216, Note_on_c, 0, 89, 0
1, 83216, Note_on_c, 0, 77, 0
1, 83216, Note_on_c, 0, 82, 0
1, 83219, Note_on_c, 0, 38, 0
1, 83219, Note_on_c, 0, 26, 0
1, 83282, Note_on_c, 0, 89, 80
1, 83410, Note_on_c, 0, 89, 0
1, 83410, Note_on_c, 0, 82, 87
1, 83538, Note_on_c, 0, 82, 0
1, 83538, Note_on_c, 0, 84, 79
1, 83672, Note_on_c, 0, 84, 0
1, 83672, Note_on_c, 0, 77, 86
1, 83770, Note_on_c, 0, 77, 0
1, 83802, Note_on_c, 0, 77, 76
1, 83931, Note_on_c, 0, 77, 0
1, 83931, Note_on_c, 0, 70, 89
1, 84060, Note_on_c, 0, 70, 0
1, 84060, Note_on_c, 0, 72, 74
1, 84192, Note_on_c, 0, 72, 0
1, 84192, Note_on_c, 0, 65, 84
1, 84290, Note_on_c, 0, 65, 0
1, 84322, Note_on_c, 0, 65, 75
1, 84450, Note_on_c, 0, 65, 0
1, 84450, Note_on_c, 0, 58, 85
1, 84578, Note_on_c, 0, 58, 0
1, 84578, Note_on_c, 0, 60, 78
1, 84710, Note_on_c, 0, 60, 0
1, 84710, Note_on_c, 0, 53, 84
1, 84710, Note_on_c, 0, 38, 70
1, 84759, Control_c, 0, 64, 0
1, 84839, Note_on_c, 0, 65, 64
1, 84845, Control_c, 0, 64, 127
1, 84969, Note_on_c, 0, 65, 0
1, 84969, Note_on_c, 0, 58, 70
1, 85096, Note_on_c, 0, 58, 0
1, 85096, Note_on_c, 0, 60, 64
1, 85227, Note_on_c, 0, 60, 0
1, 85227, Note_on_c, 0, 53, 0
1, 85227, Note_on_c, 0, 54, 84
1, 85230, Note_on_c, 0, 46, 76
1, 85234, Control_c, 0, 64, 0
1, 85354, Note_on_c, 0, 66, 64
1, 85354, Control_c, 0, 64, 127
1, 85479, Note_on_c, 0, 66, 0
1, 85479, Note_on_c, 0, 58, 70
1, 85604, Note_on_c, 0, 58, 0
1, 85604, Note_on_c, 0, 60, 65
1, 85734, Note_on_c, 0, 60, 0
1, 85734, Note_on_c, 0, 54, 0
1, 85734, Note_on_c, 0, 55, 84
1, 85737, Note_on_c, 0, 38, 0
1, 85737, Note_on_c, 0, 39, 70
1, 85740, Control_c, 0, 64, 0
1, 85830, Control_c, 0, 64, 127
1, 85860, Note_on_c, 0, 67, 64
1, 85985, Note_on_c, 0, 67, 0
1, 85985, Note_on_c, 0, 60, 70
1, 85985, Note_on_c, 0, 39, 0
1, 85988, Note_on_c, 0, 40, 70
1, 86110, Note_on_c, 0, 60, 0
1, 86110, Note_on_c, 0, 61, 65
1, 86239, Note_on_c, 0, 61, 0
1, 86239, Note_on_c, 0, 55, 0
1, 86239, Note_on_c, 0, 56, 84
1, 86242, Note_on_c, 0, 40, 0
1, 86242, Note_on_c, 0, 41, 70
1, 86242, Control_c, 0, 64, 0
1, 86358, Control_c, 0, 64, 127
1, 86364, Note_on_c, 0, 68, 65
1, 86487, Note_on_c, 0, 68, 0
1, 86487, Note_on_c, 0, 62, 70
1, 86610, Note_on_c, 0, 62, 0
1, 86610, Note_on_c, 0, 63, 65
1, 86737, Note_on_c, 0, 63, 0
1, 86737, Note_on_c, 0, 56, 0
1, 86737, Note_on_c, 0, 57, 84
1, 86740, Note_on_c, 0, 41, 0
1, 86740, Note_on_c, 0, 46, 0
1, 86740, Note_on_c, 0, 46, 79
1, 86743, Note_on_c, 0, 42, 70
1, 86743, Control_c, 0, 64, 0
1, 86824, Control_c, 0, 64, 127
1, 86859, Note_on_c, 0, 69, 64
1, 86979, Note_on_c, 0, 69, 0
1, 86979, Note_on_c, 0, 62, 70
1, 87098, Note_on_c, 0, 62, 0
1, 87098, Note_on_c, 0, 63, 64
1, 87223, Note_on_c, 0, 63, 0
1, 87223, Note_on_c, 0, 57, 0
1, 87223, Note_on_c, 0, 58, 84
1, 87226, Note_on_c, 0, 42, 0
1, 87226, Note_on_c, 0, 43, 70
1, 87229, Control_c, 0, 64, 0
1, 87281, Control_c, 0, 64, 127
1, 87344, Note_on_c, 0, 70, 64
1, 87464, Note_on_c, 0, 70, 0
1, 87464, Note_on_c, 0, 58, 0
1, 87464, Note_on_c, 0, 59, 80
1, 87467, Note_on_c, 0, 46, 0
1, 87467, Note_on_c, 0, 51, 76
1, 87585, Note_on_c, 0, 71, 65
1, 87708, Note_on_c, 0, 71, 0
1, 87708, Note_on_c, 0, 59, 0
1, 87708, Note_on_c, 0, 60, 86
1, 87711, Note_on_c, 0, 43, 0
1, 87711, Note_on_c, 0, 45, 71
1, 87714, Control_c, 0, 64, 0
1, 87789, Control_c, 0, 64, 127
1, 87829, Note_on_c, 0, 72, 65
1, 87952, Note_on_c, 0, 72, 0
1, 87952, Note_on_c, 0, 65, 73
1, 88072, Note_on_c, 0, 65, 0
1, 88072, Note_on_c, 0, 66, 66
1, 88197, Note_on_c, 0, 66, 0
1, 88197, Note_on_c, 0, 60, 0
1, 88197, Note_on_c, 0, 62, 89
1, 88200, Note_on_c, 0, 51, 0
1, 88200, Note_on_c, 0, 53, 74
1, 88203, Control_c, 0, 64, 0
1, 88289, Control_c, 0, 64, 127
1, 88318, Note_on_c, 0, 74, 68
1, 88438, Note_on_c, 0, 74, 0
1, 88438, Note_on_c, 0, 65, 75
1, 88560, Note_on_c, 0, 65, 0
1, 88560, Note_on_c, 0, 66, 68
1, 88688, Note_on_c, 0, 66, 0
1, 88688, Note_on_c, 0, 62, 0
1, 88688, Note_on_c, 0, 63, 92
1, 88691, Note_on_c, 0, 53, 0
1, 88691, Note_on_c, 0, 45, 0
1, 88691, Note_on_c, 0, 54, 76
1, 88694, Note_on_c, 0, 45, 76
1, 88694, Control_c, 0, 64, 0
1, 88789, Control_c, 0, 64, 127
1, 88813, Note_on_c, 0, 75, 69
1, 88937, Note_on_c, 0, 75, 0
1, 88937, Note_on_c, 0, 71, 77
1, 89068, Note_on_c, 0, 71, 0
1, 89068, Note_on_c, 0, 72, 70
1, 89210, Note_on_c, 0, 72, 0
1, 89210, Note_on_c, 0, 63, 0
1, 89210, Note_on_c, 0, 67, 89
1, 89213, Note_on_c, 0, 45, 0
1, 89213, Note_on_c, 0, 54, 0
1, 89213, Note_on_c, 0, 55, 79
1, 89216, Note_on_c, 0, 46, 79
1, 89216, Control_c, 0, 64, 0
1, 89317, Control_c, 0, 64, 127
1, 89341, Note_on_c, 0, 79, 72
1, 89465, Note_on_c, 0, 79, 0
1, 89465, Note_on_c, 0, 74, 79
1, 89589, Note_on_c, 0, 74, 0
1, 89589, Note_on_c, 0, 75, 70
1, 89719, Note_on_c, 0, 75, 0
1, 89719, Note_on_c, 0, 67, 0
1, 89719, Note_on_c, 0, 65, 84
1, 89722, Note_on_c, 0, 46, 0
1, 89722, Note_on_c, 0, 55, 0
1, 89722, Note_on_c, 0, 56, 70
1, 89725, Note_on_c, 0, 47, 70
1, 89725, Control_c, 0, 64, 0
1, 89808, Control_c, 0, 64, 127
1, 89846, Note_on_c, 0, 77, 72
1, 89970, Note_on_c, 0, 77, 0
1, 89970, Note_on_c, 0, 73, 76
1, 90093, Note_on_c, 0, 73, 0
1, 90093, Note_on_c, 0, 74, 70
1, 90224, Note_on_c, 0, 74, 0
1, 90224, Note_on_c, 0, 65, 0
1, 90224, Note_on_c, 0, 63, 81
1, 90227, Note_on_c, 0, 47, 0
1, 90227, Note_on_c, 0, 56, 0
1, 90227, Note_on_c, 0, 55, 68
1, 90230, Note_on_c, 0, 48, 68
1, 90230, Control_c, 0, 64, 0
1, 90312, Control_c, 0, 64, 127
1, 90347, Note_on_c, 0, 75, 67
1, 90471, Note_on_c, 0, 75, 0
1, 90471, Note_on_c, 0, 74, 67
1, 90471, Note_on_c, 0, 55, 0
1, 90474, Note_on_c, 0, 57, 67
1, 90502, Note_on_c, 0, 74, 0
1, 90502, Note_on_c, 0, 75, 66
1, 90533, Note_on_c, 0, 75, 0
1, 90533, Note_on_c, 0, 74, 71
1, 90595, Note_on_c, 0, 74, 0
1, 90595, Note_on_c, 0, 72, 66
1, 90727, Note_on_c, 0, 72, 0
1, 90727, Note_on_c, 0, 63, 0
1, 90727, Note_on_c, 0, 65, 76
1, 90730, Note_on_c, 0, 48, 0
1, 90730, Note_on_c, 0, 50, 64
1, 90730, Control_c, 0, 64, 0
1, 90809, Control_c, 0, 64, 127
1, 90850, Note_on_c, 0, 77, 67
1, 90973, Note_on_c, 0, 77, 0
1, 90973, Note_on_c, 0, 70, 71
1, 91095, Note_on_c, 0, 70, 0
1, 91095, Note_on_c, 0, 72, 66
1, 91226, Note_on_c, 0, 72, 0
1, 91226, Note_on_c, 0, 65, 0
1, 91226, Note_on_c, 0, 66, 78
1, 91229, Note_on_c, 0, 57, 0
1, 91229, Note_on_c, 0, 58, 65
1, 91229, Control_c, 0, 64, 0
1, 91325, Control_c, 0, 64, 127
1, 91349, Note_on_c, 0, 78, 66
1, 91471, Note_on_c, 0, 78, 0
1, 91471, Note_on_c, 0, 70, 73
1, 91593, Note_on_c, 0, 70, 0
1, 91593, Note_on_c, 0, 72, 66
1, 91725, Note_on_c, 0, 72, 0
1, 91725, Note_on_c, 0, 66, 0
1, 91725, Note_on_c, 0, 67, 81
1, 91728, Note_on_c, 0, 50, 0
1, 91728, Note_on_c, 0, 51, 67
1, 91732, Control_c, 0, 64, 0
1, 91812, Control_c, 0, 64, 127
1, 91847, Note_on_c, 0, 79, 69
1, 91970, Note_on_c, 0, 79, 0
1, 91970, Note_on_c, 0, 72, 78
1, 91970, Note_on_c, 0, 51, 0
1, 91973, Note_on_c, 0, 52, 68
1, 92094, Note_on_c, 0, 72, 0
1, 92094, Note_on_c, 0, 73, 68
1, 92226, Note_on_c, 0, 73, 0
1, 92226, Note_on_c, 0, 67, 0
1, 92226, Note_on_c, 0, 68, 84
1, 92229, Note_on_c, 0, 52, 0
1, 92229, Note_on_c, 0, 53, 70
1, 92229, Control_c, 0, 64, 0
1, 92310, Control_c, 0, 64, 127
1, 92352, Note_on_c, 0, 80, 64
1, 92474, Note_on_c, 0, 80, 0
1, 92474, Note_on_c, 0, 74, 78
1, 92597, Note_on_c, 0, 74, 0
1, 92597, Note_on_c, 0, 75, 73
1, 92727, Note_on_c, 0, 75, 0
1, 92727, Note_on_c, 0, 68, 0
1, 92727, Note_on_c, 0, 69, 86
1, 92730, Note_on_c, 0, 53, 0
1, 92730, Note_on_c, 0, 58, 0
1, 92730, Note_on_c, 0, 58, 71
1, 92733, Note_on_c, 0, 54, 71
1, 92733, Control_c, 0, 64, 0
1, 92827, Control_c, 0, 64, 127
1, 92851, Note_on_c, 0, 81, 67
1, 92972, Note_on_c, 0, 81, 0
1, 92972, Note_on_c, 0, 74, 80
1, 93093, Note_on_c, 0, 74, 0
1, 93093, Note_on_c, 0, 75, 78
1, 93219, Note_on_c, 0, 75, 0
1, 93219, Note_on_c, 0, 69, 0
1, 93219, Note_on_c, 0, 70, 88
1, 93222, Note_on_c, 0, 54, 0
1, 93222, Note_on_c, 0, 55, 73
1, 93225, Control_c, 0, 64, 0
1, 93312, Control_c, 0, 64, 127
1, 93340, Note_on_c, 0, 82, 74
1, 93462, Note_on_c, 0, 82, 0
1, 93462, Note_on_c, 0, 70, 0
1, 93462, Note_on_c, 0, 71, 89
1, 93465, Note_on_c, 0, 58, 0
1, 93465, Note_on_c, 0, 63, 74
1, 93583, Note_on_c, 0, 83, 73
1, 93716, Note_on_c, 0, 83, 0
1, 93716, Note_on_c, 0, 71, 0
1, 93716, Note_on_c, 0, 72, 94
1, 93719, Note_on_c, 0, 55, 0
1, 93719, Note_on_c, 0, 56, 76
1, 93719, Control_c, 0, 64, 0
1, 93780, Control_c, 0, 64, 127
1, 93839, Note_on_c, 0, 84, 70
1, 93960, Note_on_c, 0, 84, 0
1, 93960, Note_on_c, 0, 77, 76
1, 94081, Note_on_c, 0, 77, 0
1, 94081, Note_on_c, 0, 78, 70
1, 94206, Note_on_c, 0, 78, 0
1, 94206, Note_on_c, 0, 72, 0
1, 94206, Note_on_c, 0, 74, 95
1, 94209, Note_on_c, 0, 63, 0
1, 94209, Note_on_c, 0, 65, 77
1, 94216, Control_c, 0, 64, 0
1, 94285, Control_c, 0, 64, 127
1, 94333, Note_on_c, 0, 86, 71
1, 94455, Note_on_c, 0, 86, 0
1, 94455, Note_on_c, 0, 77, 76
1, 94576, Note_on_c, 0, 77, 0
1, 94576, Note_on_c, 0, 78, 63
1, 94708, Note_on_c, 0, 78, 0
1, 94708, Note_on_c, 0, 74, 0
1, 94708, Note_on_c, 0, 75, 93
1, 94711, Note_on_c, 0, 65, 0
1, 94711, Note_on_c, 0, 56, 0
1, 94711, Note_on_c, 0, 57, 52
1, 94714, Note_on_c, 0, 66, 60
1, 94714, Control_c, 0, 64, 0
1, 94784, Control_c, 0, 64, 127
1, 94832, Note_on_c, 0, 87, 69
1, 94955, Note_on_c, 0, 87, 0
1, 94955, Note_on_c, 0, 83, 79
1, 95085, Note_on_c, 0, 83, 0
1, 95085, Note_on_c, 0, 84, 73
1, 95236, Note_on_c, 0, 84, 0
1, 95236, Note_on_c, 0, 75, 0
1, 95236, Note_on_c, 0, 79, 95
1, 95239, Note_on_c, 0, 66, 0
1, 95239, Note_on_c, 0, 57, 0
1, 95239, Note_on_c, 0, 58, 49
1, 95242, Note_on_c, 0, 67, 57
1, 95242, Control_c, 0, 64, 0
1, 95340, Control_c, 0, 64, 127
1, 95362, Note_on_c, 0, 91, 80
1, 95486, Note_on_c, 0, 91, 0
1, 95486, Note_on_c, 0, 86, 85
1, 95609, Note_on_c, 0, 86, 0
1, 95609, Note_on_c, 0, 87, 77
1, 95738, Note_on_c, 0, 87, 0
1, 95738, Note_on_c, 0, 79, 0
1, 95738, Note_on_c, 0, 77, 88
1, 95741, Note_on_c, 0, 67, 0
1, 95741, Note_on_c, 0, 58, 0
1, 95741, Note_on_c, 0, 59, 39
1, 95744, Note_on_c, 0, 62, 39
1, 95744, Note_on_c, 0, 65, 47
1, 95744, Note_on_c, 0, 68, 54
1, 95747, Control_c, 0, 64, 0
1, 95864, Note_on_c, 0, 89, 62
1, 95878, Control_c, 0, 64, 127
1, 95985, Note_on_c, 0, 89, 0
1, 95985, Note_on_c, 0, 85, 74
1, 96106, Note_on_c, 0, 85, 0
1, 96106, Note_on_c, 0, 86, 69
1, 96235, Note_on_c, 0, 86, 0
1, 96235, Note_on_c, 0, 77, 0
1, 96235, Note_on_c, 0, 75, 78
1, 96238, Note_on_c, 0, 68, 0
1, 96238, Note_on_c, 0, 59, 0
1, 96238, Note_on_c, 0, 62, 0
1, 96241, Note_on_c, 0, 65, 0
1, 96241, Note_on_c, 0, 60, 37
1, 96241, Note_on_c, 0, 63, 37
1, 96244, Note_on_c, 0, 66, 44
1, 96244, Note_on_c, 0, 69, 51
1, 96244, Control_c, 0, 64, 0
1, 96313, Control_c, 0, 64, 127
1, 96361, Note_on_c, 0, 87, 64
1, 96484, Note_on_c, 0, 87, 0
1, 96484, Note_on_c, 0, 83, 73
1, 96606, Note_on_c, 0, 83, 0
1, 96606, Note_on_c, 0, 84, 63
1, 96737, Note_on_c, 0, 84, 0
1, 96737, Note_on_c, 0, 75, 0
1, 96737, Note_on_c, 0, 74, 69
1, 96740, Note_on_c, 0, 69, 0
1, 96740, Note_on_c, 0, 60, 0
1, 96740, Note_on_c, 0, 63, 0
1, 96743, Note_on_c, 0, 66, 0
1, 96743, Note_on_c, 0, 62, 35
1, 96743, Note_on_c, 0, 65, 42
1, 96746, Note_on_c, 0, 70, 48
1, 96746, Control_c, 0, 64, 0
1, 96841, Control_c, 0, 64, 127
1, 96863, Note_on_c, 0, 86, 58
1, 96986, Note_on_c, 0, 86, 0
1, 96986, Note_on_c, 0, 82, 64
1, 97109, Note_on_c, 0, 82, 0
1, 97109, Note_on_c, 0, 84, 57
1, 97241, Note_on_c, 0, 84, 0
1, 97241, Note_on_c, 0, 74, 0
1, 97241, Note_on_c, 0, 72, 69
1, 97244, Note_on_c, 0, 70, 0
1, 97244, Note_on_c, 0, 65, 0
1, 97244, Note_on_c, 0, 62, 0
1, 97247, Note_on_c, 0, 64, 35
1, 97247, Note_on_c, 0, 67, 42
1, 97247, Note_on_c, 0, 70, 48
1, 97250, Control_c, 0, 64, 0
1, 97352, Control_c, 0, 64, 127
1, 97366, Note_on_c, 0, 84, 57
1, 97489, Note_on_c, 0, 84, 0
1, 97489, Note_on_c, 0, 80, 64
1, 97611, Note_on_c, 0, 80, 0
1, 97611, Note_on_c, 0, 82, 57
1, 97741, Note_on_c, 0, 82, 0
1, 97741, Note_on_c, 0, 72, 0
1, 97741, Note_on_c, 0, 70, 69
1, 97744, Note_on_c, 0, 70, 0
1, 97744, Note_on_c, 0, 67, 0
1, 97744, Note_on_c, 0, 64, 0
1, 97747, Note_on_c, 0, 65, 42
1, 97747, Note_on_c, 0, 68, 48
1, 97750, Control_c, 0, 64, 0
1, 97825, Control_c, 0, 64, 127
1, 97867, Note_on_c, 0, 82, 57
1, 97992, Note_on_c, 0, 82, 0
1, 97992, Note_on_c, 0, 79, 64
1, 98116, Note_on_c, 0, 79, 0
1, 98116, Note_on_c, 0, 80, 56
1, 98248, Note_on_c, 0, 80, 0
1, 98248, Note_on_c, 0, 70, 0
1, 98248, Note_on_c, 0, 70, 69
1, 98251, Note_on_c, 0, 68, 0
1, 98251, Note_on_c, 0, 65, 0
1, 98251, Note_on_c, 0, 62, 35
1, 98254, Note_on_c, 0, 65, 42
1, 98254, Note_on_c, 0, 68, 48
1, 98254, Control_c, 0, 64, 0
1, 98325, Control_c, 0, 64, 127
1, 98372, Note_on_c, 0, 82, 56
1, 98496, Note_on_c, 0, 82, 0
1, 98496, Note_on_c, 0, 79, 63
1, 98619, Note_on_c, 0, 79, 0
1, 98619, Note_on_c, 0, 80, 56
1, 98748, Note_on_c, 0, 80, 0
1, 98748, Note_on_c, 0, 70, 0
1, 98748, Note_on_c, 0, 71, 69
1, 98751, Note_on_c, 0, 68, 0
1, 98751, Note_on_c, 0, 65, 0
1, 98751, Note_on_c, 0, 62, 0
1, 98754, Note_on_c, 0, 63, 35
1, 98754, Note_on_c, 0, 65, 42
1, 98754, Note_on_c, 0, 68, 48
1, 98758, Control_c, 0, 64, 0
1, 98844, Control_c, 0, 64, 127
1, 98874, Note_on_c, 0, 82, 57
1, 99000, Note_on_c, 0, 82, 0
1, 99000, Note_on_c, 0, 79, 63
1, 99126, Note_on_c, 0, 79, 0
1, 99126, Note_on_c, 0, 80, 57
1, 99250, Note_on_c, 0, 80, 0
1, 99250, Note_on_c, 0, 71, 0
1, 99250, Note_on_c, 0, 70, 69
1, 99253, Note_on_c, 0, 68, 0
1, 99253, Note_on_c, 0, 65, 0
1, 99253, Note_on_c, 0, 63, 0
1, 99256, Note_on_c, 0, 62, 35
1, 99256, Note_on_c, 0, 65, 42
1, 99256, Note_on_c, 0, 68, 48
1, 99259, Control_c, 0, 64, 0
1, 99368, Control_c, 0, 64, 127
1, 99374, Note_on_c, 0, 82, 54
1, 99499, Note_on_c, 0, 82, 0
1, 99499, Note_on_c, 0, 70, 0
1, 99499, Note_on_c, 0, 79, 62
1, 99502, Note_on_c, 0, 71, 62
1, 99628, Note_on_c, 0, 79, 0
1, 99628, Note_on_c, 0, 80, 56
1, 99758, Note_on_c, 0, 80, 0
1, 99758, Note_on_c, 0, 71, 0
1, 99758, Note_on_c, 0, 72, 69
1, 99761, Note_on_c, 0, 68, 0
1, 99761, Note_on_c, 0, 65, 0
1, 99761, Note_on_c, 0, 62, 0
1, 99764, Note_on_c, 0, 60, 35
1, 99764, Note_on_c, 0, 65, 42
1, 99764, Note_on_c, 0, 68, 48
1, 99764, Control_c, 0, 64, 0
1, 99861, Control_c, 0, 64, 127
1, 99885, Note_on_c, 0, 82, 56
1, 100012, Note_on_c, 0, 82, 0
1, 100012, Note_on_c, 0, 80, 63
1, 100140, Note_on_c, 0, 80, 0
1, 100140, Note_on_c, 0, 82, 56
1, 100270, Note_on_c, 0, 82, 0
1, 100270, Note_on_c, 0, 72, 0
1, 100270, Note_on_c, 0, 73, 69
1, 100273, Note_on_c, 0, 68, 0
1, 100273, Note_on_c, 0, 65, 0
1, 100273, Note_on_c, 0, 60, 0
1, 100276, Note_on_c, 0, 59, 35
1, 100276, Note_on_c, 0, 65, 42
1, 100276, Note_on_c, 0, 68, 48
1, 100279, Control_c, 0, 64, 0
1, 100367, Control_c, 0, 64, 127
1, 100398, Note_on_c, 0, 82, 58
1, 100526, Note_on_c, 0, 82, 0
1, 100526, Note_on_c, 0, 79, 64
1, 100654, Note_on_c, 0, 79, 0
1, 100654, Note_on_c, 0, 80, 58
1, 100785, Note_on_c, 0, 80, 0
1, 100785, Note_on_c, 0, 73, 0
1, 100785, Note_on_c, 0, 72, 69
1, 100788, Note_on_c, 0, 68, 0
1, 100788, Note_on_c, 0, 65, 0
1, 100788, Note_on_c, 0, 59, 0
1, 100791, Note_on_c, 0, 60, 35
1, 100791, Note_on_c, 0, 65, 42
1, 100791, Note_on_c, 0, 68, 48
1, 100791, Control_c, 0, 64, 0
1, 100864, Control_c, 0, 64, 127
1, 100913, Note_on_c, 0, 82, 58
1, 101040, Note_on_c, 0, 82, 0
1, 101040, Note_on_c, 0, 72, 0
1, 101040, Note_on_c, 0, 79, 58
1, 101043, Note_on_c, 0, 73, 69
1, 101171, Note_on_c, 0, 79, 0
1, 101171, Note_on_c, 0, 80, 58
1, 101313, Note_on_c, 0, 80, 0
1, 101313, Note_on_c, 0, 73, 0
1, 101313, Note_on_c, 0, 74, 69
1, 101316, Note_on_c, 0, 68, 0
1, 101316, Note_on_c, 0, 65, 0
1, 101316, Note_on_c, 0, 60, 0
1, 101319, Note_on_c, 0, 59, 35
1, 101319, Note_on_c, 0, 65, 42
1, 101319, Note_on_c, 0, 68, 48
1, 101319, Control_c, 0, 64, 0
1, 101396, Control_c, 0, 64, 127
1, 101448, Note_on_c, 0, 82, 58
1, 101723, Note_on_c, 0, 82, 0
1, 101723, Note_on_c, 0, 80, 55
1, 101859, Note_on_c, 0, 80, 0
1, 101859, Note_on_c, 0, 77, 60
1, 101995, Note_on_c, 0, 77, 0
1, 101995, Note_on_c, 0, 74, 58
1, 102130, Note_on_c, 0, 74, 0
1, 102130, Note_on_c, 0, 74, 0
1, 102130, Note_on_c, 0, 71, 60
1, 102133, Control_c, 0, 64, 0
1, 102281, Note_on_c, 0, 71, 0
1, 102281, Note_on_c, 0, 79, 56
1, 102281, Note_on_c, 0, 68, 0
1, 102284, Note_on_c, 0, 65, 0
1, 102284, Note_on_c, 0, 59, 0
1, 102284, Note_on_c, 0, 70, 46
1, 102405, Control_c, 0, 64, 127
1, 102571, Note_on_c, 0, 79, 0
1, 102571, Note_on_c, 0, 77, 42
1, 102571, Note_on_c, 0, 70, 0
1, 102574, Note_on_c, 0, 68, 37
1, 102726, Note_on_c, 0, 77, 0
1, 102726, Note_on_c, 0, 74, 50
1, 102726, Note_on_c, 0, 68, 0
1, 102729, Note_on_c, 0, 65, 47
1, 102890, Note_on_c, 0, 74, 0
1, 102890, Note_on_c, 0, 70, 43
1, 102890, Note_on_c, 0, 65, 0
1, 102893, Note_on_c, 0, 62, 40
1, 103073, Note_on_c, 0, 70, 0
1, 103073, Note_on_c, 0, 68, 38
1, 103073, Note_on_c, 0, 62, 0
1, 103076, Note_on_c, 0, 59, 37
1, 103076, Control_c, 0, 64, 0
1, 103465, Note_on_c, 0, 68, 0
1, 103465, Note_on_c, 0, 63, 42
1, 103465, Note_on_c, 0, 60, 34
1, 103468, Note_on_c, 0, 67, 48
1, 103468, Note_on_c, 0, 59, 0
1, 103468, Note_on_c, 0, 48, 31
1, 103471, Note_on_c, 0, 55, 41
1, 103500, Control_c, 0, 64, 127
1, 103736, Note_on_c, 0, 67, 0
1, 103736, Note_on_c, 0, 60, 0
1, 103736, Note_on_c, 0, 63, 0
1, 103739, Note_on_c, 0, 69, 50
1, 103739, Note_on_c, 0, 66, 44
1, 103739, Note_on_c, 0, 60, 35
1, 103742, Note_on_c, 0, 63, 38
1, 103742, Note_on_c, 0, 55, 0
1, 103742, Note_on_c, 0, 48, 0
1, 103745, Note_on_c, 0, 48, 42
1, 103745, Note_on_c, 0, 57, 48
1, 103745, Control_c, 0, 64, 0
1, 103794, Control_c, 0, 64, 127
1, 103974, Note_on_c, 0, 57, 0
1, 103974, Note_on_c, 0, 48, 0
1, 103974, Note_on_c, 0, 43, 45
1, 104008, Note_on_c, 0, 63, 0
1, 104008, Note_on_c, 0, 69, 0
1, 104008, Note_on_c, 0, 66, 0
1, 104011, Note_on_c, 0, 60, 0
1, 104011, Note_on_c, 0, 70, 58
1, 104011, Note_on_c, 0, 62, 50
1, 104014, Note_on_c, 0, 43, 0
1, 104014, Note_on_c, 0, 58, 49
1, 104014, Control_c, 0, 64, 0
1, 104053, Control_c, 0, 64, 127
1, 104138, Note_on_c, 0, 62, 0
1, 104138, Note_on_c, 0, 70, 0
1, 104138, Note_on_c, 0, 72, 52
1, 104141, Note_on_c, 0, 58, 0
1, 104141, Note_on_c, 0, 60, 43
1, 104254, Note_on_c, 0, 72, 0
1, 104254, Note_on_c, 0, 69, 57
1, 104254, Note_on_c, 0, 60, 0
1, 104257, Note_on_c, 0, 57, 48
1, 104257, Control_c, 0, 64, 0
1, 104294, Control_c, 0, 64, 127
1, 104369, Note_on_c, 0, 69, 0
1, 104369, Note_on_c, 0, 70, 52
1, 104369, Note_on_c, 0, 57, 0
1, 104372, Note_on_c, 0, 58, 45
1, 104496, Note_on_c, 0, 70, 0
1, 104496, Note_on_c, 0, 67, 66
1, 104496, Note_on_c, 0, 58, 0
1, 104499, Note_on_c, 0, 55, 57
1, 104499, Control_c, 0, 64, 0
1, 104604, Note_on_c, 0, 67, 0
1, 104604, Note_on_c, 0, 74, 57
1, 104604, Note_on_c, 0, 55, 0
1, 104607, Note_on_c, 0, 62, 50
1, 104612, Control_c, 0, 64, 127
1, 104743, Note_on_c, 0, 74, 0
1, 104743, Note_on_c, 0, 74, 66
1, 104743, Note_on_c, 0, 62, 0
1, 104746, Note_on_c, 0, 62, 59
1, 104746, Control_c, 0, 64, 0
1, 105007, Note_on_c, 0, 74, 0
1, 105007, Note_on_c, 0, 63, 44
1, 105007, Note_on_c, 0, 67, 50
1, 105010, Note_on_c, 0, 60, 44
1, 105010, Note_on_c, 0, 62, 0
1, 105010, Note_on_c, 0, 48, 37
1, 105013, Note_on_c, 0, 55, 42
1, 105043, Control_c, 0, 64, 127
1, 105255, Note_on_c, 0, 60, 0
1, 105255, Note_on_c, 0, 67, 0
1, 105255, Note_on_c, 0, 63, 0
1, 105258, Note_on_c, 0, 69, 52
1, 105258, Note_on_c, 0, 63, 45
1, 105258, Note_on_c, 0, 60, 45
1, 105261, Note_on_c, 0, 66, 45
1, 105261, Note_on_c, 0, 55, 0
1, 105261, Note_on_c, 0, 48, 0
1, 105264, Note_on_c, 0, 48, 43
1, 105264, Note_on_c, 0, 57, 49
1, 105264, Control_c, 0, 64, 0
1, 105290, Control_c, 0, 64, 127
1, 105472, Note_on_c, 0, 57, 0
1, 105472, Note_on_c, 0, 48, 0
1, 105472, Note_on_c, 0, 43, 47
1, 105503, Note_on_c, 0, 66, 0
1, 105503, Note_on_c, 0, 69, 0
1, 105503, Note_on_c, 0, 63, 0
1, 105506, Note_on_c, 0, 60, 0
1, 105506, Note_on_c, 0, 62, 52
1, 105506, Note_on_c, 0, 70, 60
1, 105509, Note_on_c, 0, 43, 0
1, 105509, Note_on_c, 0, 58, 51
1, 105509, Control_c, 0, 64, 0
1, 105595, Control_c, 0, 64, 127
1, 105633, Note_on_c, 0, 70, 0
1, 105633, Note_on_c, 0, 62, 0
1, 105633, Note_on_c, 0, 72, 55
1, 105636, Note_on_c, 0, 58, 0
1, 105636, Note_on_c, 0, 60, 44
1, 105747, Note_on_c, 0, 72, 0
1, 105747, Note_on_c, 0, 69, 59
1, 105747, Note_on_c, 0, 60, 0
1, 105750, Note_on_c, 0, 57, 50
1, 105753, Control_c, 0, 64, 0
1, 105827, Control_c, 0, 64, 127
1, 105860, Note_on_c, 0, 69, 0
1, 105860, Note_on_c, 0, 70, 55
1, 105860, Note_on_c, 0, 57, 0
1, 105863, Note_on_c, 0, 58, 46
1, 105980, Note_on_c, 0, 70, 0
1, 105980, Note_on_c, 0, 67, 68
1, 105980, Note_on_c, 0, 58, 0
1, 105983, Note_on_c, 0, 55, 61
1, 105983, Control_c, 0, 64, 0
1, 106050, Control_c, 0, 64, 127
1, 106088, Note_on_c, 0, 67, 0
1, 106088, Note_on_c, 0, 75, 62
1, 106088, Note_on_c, 0, 55, 0
1, 106091, Note_on_c, 0, 63, 55
1, 106231, Note_on_c, 0, 75, 0
1, 106231, Note_on_c, 0, 75, 73
1, 106231, Note_on_c, 0, 63, 0
1, 106234, Note_on_c, 0, 63, 62
1, 106234, Control_c, 0, 64, 0
1, 106496, Note_on_c, 0, 75, 0
1, 106496, Note_on_c, 0, 63, 49
1, 106496, Note_on_c, 0, 67, 57
1, 106499, Note_on_c, 0, 60, 49
1, 106499, Note_on_c, 0, 63, 0
1, 106499, Note_on_c, 0, 48, 38
1, 106502, Note_on_c, 0, 55, 44
1, 106538, Control_c, 0, 64, 127
1, 106744, Note_on_c, 0, 60, 0
1, 106744, Note_on_c, 0, 67, 0
1, 106744, Note_on_c, 0, 63, 0
1, 106747, Note_on_c, 0, 60, 51
1, 106747, Note_on_c, 0, 63, 51
1, 106747, Note_on_c, 0, 69, 60
1, 106750, Note_on_c, 0, 55, 0
1, 106750, Note_on_c, 0, 48, 0
1, 106750, Note_on_c, 0, 41, 44
1, 106753, Note_on_c, 0, 53, 51
1, 106753, Control_c, 0, 64, 0
1, 106854, Control_c, 0, 64, 127
1, 106992, Note_on_c, 0, 63, 0
1, 106992, Note_on_c, 0, 60, 0
1, 106992, Note_on_c, 0, 62, 54
1, 106995, Note_on_c, 0, 41, 0
1, 106995, Note_on_c, 0, 46, 53
1, 107023, Control_c, 0, 64, 0
1, 107115, Control_c, 0, 64, 127
1, 107123, Note_on_c, 0, 62, 0
1, 107123, Note_on_c, 0, 69, 0
1, 107123, Note_on_c, 0, 70, 57
1, 107126, Note_on_c, 0, 46, 0
1, 107126, Note_on_c, 0, 53, 0
1, 107126, Note_on_c, 0, 58, 46
1, 107238, Note_on_c, 0, 70, 0
1, 107238, Note_on_c, 0, 67, 61
1, 107238, Note_on_c, 0, 58, 0
1, 107241, Note_on_c, 0, 55, 52
1, 107241, Control_c, 0, 64, 0
1, 107339, Control_c, 0, 64, 127
1, 107352, Note_on_c, 0, 67, 0
1, 107352, Note_on_c, 0, 69, 57
1, 107352, Note_on_c, 0, 55, 0
1, 107355, Note_on_c, 0, 57, 47
1, 107467, Note_on_c, 0, 69, 0
1, 107467, Note_on_c, 0, 65, 68
1, 107467, Note_on_c, 0, 57, 0
1, 107470, Note_on_c, 0, 53, 60
1, 107473, Control_c, 0, 64, 0
1, 107506, Control_c, 0, 64, 127
1, 107579, Note_on_c, 0, 65, 0
1, 107579, Note_on_c, 0, 74, 61
1, 107579, Note_on_c, 0, 53, 0
1, 107582, Note_on_c, 0, 62, 54
1, 107714, Note_on_c, 0, 74, 0
1, 107714, Note_on_c, 0, 74, 71
1, 107714, Note_on_c, 0, 62, 0
1, 107717, Note_on_c, 0, 62, 63
1, 107717, Control_c, 0, 64, 0
1, 107905, Control_c, 0, 64, 127
1, 107979, Note_on_c, 0, 74, 0
1, 107979, Note_on_c, 0, 58, 49
1, 107979, Note_on_c, 0, 62, 49
1, 107982, Note_on_c, 0, 65, 57
1, 107982, Note_on_c, 0, 62, 0
1, 107982, Note_on_c, 0, 46, 38
1, 107985, Note_on_c, 0, 53, 44
1, 108227, Note_on_c, 0, 65, 0
1, 108227, Note_on_c, 0, 62, 0
1, 108227, Note_on_c, 0, 58, 0
1, 108230, Note_on_c, 0, 62, 51
1, 108230, Note_on_c, 0, 67, 60
1, 108230, Note_on_c, 0, 58, 51
1, 108233, Note_on_c, 0, 53, 0
1, 108233, Note_on_c, 0, 46, 0
1, 108233, Note_on_c, 0, 39, 44
1, 108236, Note_on_c, 0, 51, 51
1, 108236, Control_c, 0, 64, 0
1, 108310, Control_c, 0, 64, 127
1, 108475, Note_on_c, 0, 58, 0
1, 108475, Note_on_c, 0, 62, 0
1, 108475, Note_on_c, 0, 60, 54
1, 108478, Note_on_c, 0, 39, 0
1, 108478, Note_on_c, 0, 45, 53
1, 108478, Control_c, 0, 64, 0
1, 108559, Control_c, 0, 64, 127
1, 108606, Note_on_c, 0, 60, 0
1, 108606, Note_on_c, 0, 67, 0
1, 108606, Note_on_c, 0, 69, 53
1, 108609, Note_on_c, 0, 45, 0
1, 108609, Note_on_c, 0, 51, 0
1, 108609, Note_on_c, 0, 57, 43
1, 108717, Note_on_c, 0, 69, 0
1, 108717, Note_on_c, 0, 65, 61
1, 108717, Note_on_c, 0, 57, 0
1, 108720, Note_on_c, 0, 53, 52
1, 108720, Control_c, 0, 64, 0
1, 108802, Control_c, 0, 64, 127
1, 108829, Note_on_c, 0, 65, 0
1, 108829, Note_on_c, 0, 67, 57
1, 108829, Note_on_c, 0, 53, 0
1, 108832, Note_on_c, 0, 55, 47
1, 108941, Note_on_c, 0, 67, 0
1, 108941, Note_on_c, 0, 63, 68
1, 108941, Note_on_c, 0, 55, 0
1, 108944, Note_on_c, 0, 51, 60
1, 108944, Control_c, 0, 64, 0
1, 109021, Control_c, 0, 64, 127
1, 109055, Note_on_c, 0, 63, 0
1, 109055, Note_on_c, 0, 72, 61
1, 109055, Note_on_c, 0, 51, 0
1, 109058, Note_on_c, 0, 60, 54
1, 109183, Note_on_c, 0, 72, 0
1, 109183, Note_on_c, 0, 72, 71
1, 109183, Note_on_c, 0, 60, 0
1, 109186, Note_on_c, 0, 60, 63
1, 109186, Control_c, 0, 64, 0
1, 109448, Note_on_c, 0, 72, 0
1, 109448, Note_on_c, 0, 60, 49
1, 109448, Note_on_c, 0, 55, 49
1, 109451, Note_on_c, 0, 63, 57
1, 109451, Note_on_c, 0, 60, 0
1, 109451, Note_on_c, 0, 36, 38
1, 109454, Note_on_c, 0, 48, 44
1, 109566, Control_c, 0, 64, 127
1, 109696, Note_on_c, 0, 63, 0
1, 109696, Note_on_c, 0, 55, 0
1, 109696, Note_on_c, 0, 60, 0
1, 109699, Note_on_c, 0, 57, 51
1, 109699, Note_on_c, 0, 54, 51
1, 109699, Note_on_c, 0, 62, 59
1, 109702, Note_on_c, 0, 48, 0
1, 109702, Note_on_c, 0, 36, 0
1, 109702, Note_on_c, 0, 38, 44
1, 109705, Note_on_c, 0, 50, 51
1, 109705, Control_c, 0, 64, 0
1, 109826, Control_c, 0, 64, 127
1, 109944, Note_on_c, 0, 54, 0
1, 109944, Note_on_c, 0, 57, 0
1, 109944, Note_on_c, 0, 55, 54
1, 109947, Note_on_c, 0, 38, 0
1, 109947, Note_on_c, 0, 43, 53
1, 109975, Control_c, 0, 64, 0
1, 110028, Control_c, 0, 64, 127
1, 110075, Note_on_c, 0, 55, 0
1, 110075, Note_on_c, 0, 62, 0
1, 110075, Note_on_c, 0, 63, 56
1, 110078, Note_on_c, 0, 43, 0
1, 110078, Note_on_c, 0, 50, 0
1, 110078, Note_on_c, 0, 51, 45
1, 110188, Note_on_c, 0, 63, 0
1, 110188, Note_on_c, 0, 60, 60
1, 110188, Note_on_c, 0, 51, 0
1, 110191, Note_on_c, 0, 48, 51
1, 110191, Control_c, 0, 64, 0
1, 110262, Control_c, 0, 64, 127
1, 110302, Note_on_c, 0, 60, 0
1, 110302, Note_on_c, 0, 62, 56
1, 110302, Note_on_c, 0, 48, 0
1, 110305, Note_on_c, 0, 50, 47
1, 110416, Note_on_c, 0, 62, 0
1, 110416, Note_on_c, 0, 58, 67
1, 110416, Note_on_c, 0, 50, 0
1, 110419, Note_on_c, 0, 46, 59
1, 110419, Control_c, 0, 64, 0
1, 110518, Control_c, 0, 64, 127
1, 110532, Note_on_c, 0, 58, 0
1, 110532, Note_on_c, 0, 67, 59
1, 110532, Note_on_c, 0, 46, 0
1, 110535, Note_on_c, 0, 55, 52
1, 110660, Note_on_c, 0, 67, 0
1, 110660, Note_on_c, 0, 67, 69
1, 110660, Note_on_c, 0, 55, 0
1, 110663, Note_on_c, 0, 55, 61
1, 110663, Control_c, 0, 64, 0
1, 110925, Note_on_c, 0, 67, 0
1, 110925, Note_on_c, 0, 60, 53
1, 110925, Note_on_c, 0, 55, 53
1, 110928, Note_on_c, 0, 63, 61
1, 110928, Note_on_c, 0, 55, 0
1, 110928, Note_on_c, 0, 36, 41
1, 110931, Note_on_c, 0, 48, 47
1, 111028, Control_c, 0, 64, 127
1, 111195, Note_on_c, 0, 63, 0
1, 111195, Note_on_c, 0, 55, 0
1, 111195, Note_on_c, 0, 60, 0
1, 111198, Note_on_c, 0, 54, 55
1, 111198, Note_on_c, 0, 62, 64
1, 111198, Note_on_c, 0, 57, 55
1, 111201, Note_on_c, 0, 48, 0
1, 111201, Note_on_c, 0, 36, 0
1, 111201, Note_on_c, 0, 38, 48
1, 111204, Note_on_c, 0, 50, 55
1, 111204, Control_c, 0, 64, 0
1, 111330, Control_c, 0, 64, 127
1, 111479, Note_on_c, 0, 57, 0
1, 111479, Note_on_c, 0, 54, 0
1, 111479, Note_on_c, 0, 55, 58
1, 111482, Note_on_c, 0, 38, 0
1, 111482, Note_on_c, 0, 43, 57
1, 111482, Control_c, 0, 64, 0
1, 111774, Note_on_c, 0, 55, 0
1, 111774, Note_on_c, 0, 62, 0
1, 111774, Note_on_c, 0, 70, 68
1, 111777, Note_on_c, 0, 43, 0
1, 111777, Note_on_c, 0, 50, 0
1, 111847, Control_c, 0, 64, 127
1, 112067, Note_on_c, 0, 58, 50
1, 112067, Note_on_c, 0, 38, 50
1, 112067, Note_on_c, 0, 46, 50
1, 112295, Note_on_c, 0, 70, 0
1, 112295, Note_on_c, 0, 66, 60
1, 112371, Note_on_c, 0, 66, 0
1, 112371, Note_on_c, 0, 67, 66
1, 112371, Note_on_c, 0, 38, 0
1, 112374, Note_on_c, 0, 39, 50
1, 112377, Control_c, 0, 64, 0
1, 112414, Control_c, 0, 64, 127
1, 112600, Note_on_c, 0, 67, 0
1, 112600, Note_on_c, 0, 69, 61
1, 112676, Note_on_c, 0, 69, 0
1, 112676, Note_on_c, 0, 58, 0
1, 112676, Note_on_c, 0, 70, 67
1, 112679, Note_on_c, 0, 39, 0
1, 112679, Note_on_c, 0, 46, 0
1, 112683, Control_c, 0, 64, 0
1, 112741, Control_c, 0, 64, 127
1, 112966, Note_on_c, 0, 58, 50
1, 112966, Note_on_c, 0, 38, 50
1, 112966, Note_on_c, 0, 46, 50
1, 113195, Note_on_c, 0, 70, 0
1, 113195, Note_on_c, 0, 66, 64
1, 113271, Note_on_c, 0, 66, 0
1, 113271, Note_on_c, 0, 67, 71
1, 113271, Note_on_c, 0, 38, 0
1, 113274, Note_on_c, 0, 39, 50
1, 113291, Control_c, 0, 64, 0
1, 113332, Control_c, 0, 64, 127
1, 113500, Note_on_c, 0, 67, 0
1, 113500, Note_on_c, 0, 69, 62
1, 113577, Note_on_c, 0, 69, 0
1, 113577, Note_on_c, 0, 58, 0
1, 113577, Note_on_c, 0, 70, 67
1, 113580, Note_on_c, 0, 39, 0
1, 113580, Note_on_c, 0, 46, 0
1, 113588, Control_c, 0, 64, 0
1, 113624, Control_c, 0, 64, 127
1, 113724, Note_on_c, 0, 70, 0
1, 113724, Note_on_c, 0, 58, 57
1, 113834, Note_on_c, 0, 36, 43
1, 113870, Note_on_c, 0, 58, 0
1, 113870, Note_on_c, 0, 74, 74
1, 113870, Note_on_c, 0, 51, 50
1, 114024, Note_on_c, 0, 74, 0
1, 114024, Note_on_c, 0, 72, 67
1, 114177, Note_on_c, 0, 72, 0
1, 114177, Note_on_c, 0, 74, 76
1, 114225, Control_c, 0, 64, 0
1, 114287, Control_c, 0, 64, 127
1, 114327, Note_on_c, 0, 74, 0
1, 114327, Note_on_c, 0, 72, 73
1, 114478, Note_on_c, 0, 72, 0
1, 114478, Note_on_c, 0, 70, 69
1, 114478, Note_on_c, 0, 36, 0
1, 114481, Note_on_c, 0, 48, 50
1, 114485, Control_c, 0, 64, 0
1, 114537, Control_c, 0, 64, 127
1, 114574, Note_on_c, 0, 70, 0
1, 114574, Note_on_c, 0, 67, 61
1, 114670, Note_on_c, 0, 67, 0
1, 114670, Note_on_c, 0, 63, 61
1, 114766, Note_on_c, 0, 63, 0
1, 114766, Note_on_c, 0, 62, 67
1, 114766, Note_on_c, 0, 57, 46
1, 114769, Note_on_c, 0, 48, 0
1, 114769, Note_on_c, 0, 51, 0
1, 114769, Note_on_c, 0, 53, 46
1, 114772, Note_on_c, 0, 41, 46
1, 114772, Control_c, 0, 64, 0
1, 114829, Control_c, 0, 64, 127
1, 114997, Note_on_c, 0, 62, 0
1, 114997, Note_on_c, 0, 60, 57
1, 114997, Note_on_c, 0, 53, 0
1, 115000, Note_on_c, 0, 51, 42
1, 115079, Note_on_c, 0, 60, 0
1, 115079, Note_on_c, 0, 57, 0
1, 115079, Note_on_c, 0, 58, 64
1, 115082, Note_on_c, 0, 51, 0
1, 115082, Note_on_c, 0, 41, 0
1, 115082, Note_on_c, 0, 46, 47
1, 115085, Note_on_c, 0, 50, 47
1, 115085, Control_c, 0, 64, 0
1, 115243, Note_on_c, 0, 58, 0
1, 115243, Note_on_c, 0, 50, 0
1, 115243, Note_on_c, 0, 46, 0
1, 115407, Note_on_c, 0, 77, 68
1, 115417, Control_c, 0, 64, 127
1, 115663, Note_on_c, 0, 41, 38
1, 115681, Note_on_c, 0, 49, 42
1, 115700, Note_on_c, 0, 65, 50
1, 115700, Note_on_c, 0, 57, 46
1, 115928, Note_on_c, 0, 77, 0
1, 115928, Note_on_c, 0, 73, 60
1, 116007, Note_on_c, 0, 73, 0
1, 116007, Note_on_c, 0, 74, 66
1, 116007, Note_on_c, 0, 57, 0
1, 116010, Note_on_c, 0, 49, 0
1, 116010, Note_on_c, 0, 41, 0
1, 116010, Note_on_c, 0, 58, 50
1, 116013, Note_on_c, 0, 50, 50
1, 116013, Control_c, 0, 64, 0
1, 116050, Control_c, 0, 64, 127
1, 116235, Note_on_c, 0, 74, 0
1, 116235, Note_on_c, 0, 75, 61
1, 116311, Note_on_c, 0, 75, 0
1, 116311, Note_on_c, 0, 65, 0
1, 116311, Note_on_c, 0, 77, 67
1, 116314, Note_on_c, 0, 50, 0
1, 116314, Note_on_c, 0, 58, 0
1, 116318, Control_c, 0, 64, 0
1, 116376, Control_c, 0, 64, 127
1, 116565, Note_on_c, 0, 41, 39
1, 116583, Note_on_c, 0, 49, 42
1, 116601, Note_on_c, 0, 65, 50
1, 116601, Note_on_c, 0, 57, 46
1, 116829, Note_on_c, 0, 77, 0
1, 116829, Note_on_c, 0, 73, 64
1, 116907, Note_on_c, 0, 73, 0
1, 116907, Note_on_c, 0, 74, 71
1, 116907, Note_on_c, 0, 57, 0
1, 116910, Note_on_c, 0, 49, 0
1, 116910, Note_on_c, 0, 41, 0
1, 116910, Note_on_c, 0, 58, 50
1, 116913, Note_on_c, 0, 50, 50
1, 116927, Control_c, 0, 64, 0
1, 116967, Control_c, 0, 64, 127
1, 117135, Note_on_c, 0, 74, 0
1, 117135, Note_on_c, 0, 75, 62
1, 117211, Note_on_c, 0, 75, 0
1, 117211, Note_on_c, 0, 65, 0
1, 117211, Note_on_c, 0, 77, 67
1, 117214, Note_on_c, 0, 50, 0
1, 117214, Note_on_c, 0, 58, 0
1, 117222, Control_c, 0, 64, 0
1, 117258, Control_c, 0, 64, 127
1, 117358, Note_on_c, 0, 77, 0
1, 117358, Note_on_c, 0, 65, 57
1, 117468, Note_on_c, 0, 46, 43
1, 117487, Note_on_c, 0, 53, 43
1, 117505, Note_on_c, 0, 65, 0
1, 117505, Note_on_c, 0, 81, 74
1, 117505, Note_on_c, 0, 62, 50
1, 117658, Note_on_c, 0, 81, 0
1, 117658, Note_on_c, 0, 79, 67
1, 117812, Note_on_c, 0, 79, 0
1, 117812, Note_on_c, 0, 81, 76
1, 117812, Note_on_c, 0, 62, 0
1, 117815, Note_on_c, 0, 46, 0
1, 117815, Note_on_c, 0, 62, 50
1, 117860, Control_c, 0, 64, 0
1, 117921, Control_c, 0, 64, 127
1, 117961, Note_on_c, 0, 81, 0
1, 117961, Note_on_c, 0, 79, 73
1, 118111, Note_on_c, 0, 79, 0
1, 118111, Note_on_c, 0, 77, 69
1, 118111, Note_on_c, 0, 53, 0
1, 118114, Note_on_c, 0, 55, 50
1, 118118, Control_c, 0, 64, 0
1, 118171, Control_c, 0, 64, 127
1, 118207, Note_on_c, 0, 77, 0
1, 118207, Note_on_c, 0, 74, 61
1, 118304, Note_on_c, 0, 74, 0
1, 118304, Note_on_c, 0, 70, 61
1, 118400, Note_on_c, 0, 70, 0
1, 118400, Note_on_c, 0, 64, 46
1, 118400, Note_on_c, 0, 69, 67
1, 118403, Note_on_c, 0, 55, 0
1, 118403, Note_on_c, 0, 62, 0
1, 118403, Note_on_c, 0, 60, 46
1, 118406, Note_on_c, 0, 48, 46
1, 118406, Control_c, 0, 64, 0
1, 118464, Control_c, 0, 64, 127
1, 118632, Note_on_c, 0, 69, 0
1, 118632, Note_on_c, 0, 67, 57
1, 118632, Note_on_c, 0, 60, 0
1, 118635, Note_on_c, 0, 58, 42
1, 118714, Note_on_c, 0, 67, 0
1, 118714, Note_on_c, 0, 64, 0
1, 118714, Note_on_c, 0, 65, 64
1, 118717, Note_on_c, 0, 58, 0
1, 118717, Note_on_c, 0, 48, 0
1, 118717, Note_on_c, 0, 53, 47
1, 118720, Note_on_c, 0, 57, 47
1, 118720, Control_c, 0, 64, 0
1, 118878, Note_on_c, 0, 65, 0
1, 118878, Note_on_c, 0, 57, 0
1, 118878, Note_on_c, 0, 53, 0
1, 119042, Note_on_c, 0, 82, 68
1, 119052, Control_c, 0, 64, 127
1, 119298, Note_on_c, 0, 50, 42
1, 119316, Note_on_c, 0, 58, 46
1, 119334, Note_on_c, 0, 70, 50
1, 119334, Note_on_c, 0, 65, 50
1, 119563, Note_on_c, 0, 82, 0
1, 119563, Note_on_c, 0, 77, 63
1, 119582, Note_on_c, 0, 58, 0
1, 119582, Note_on_c, 0, 50, 0
1, 119582, Note_on_c, 0, 51, 37
1, 119601, Note_on_c, 0, 54, 43
1, 119620, Note_on_c, 0, 58, 50
1, 119639, Note_on_c, 0, 77, 0
1, 119639, Note_on_c, 0, 78, 67
1, 119639, Note_on_c, 0, 66, 50
1, 119645, Control_c, 0, 64, 0
1, 119645, Note_on_c, 0, 65, 0
1, 119682, Control_c, 0, 64, 127
1, 119867, Note_on_c, 0, 78, 0
1, 119867, Note_on_c, 0, 80, 65
1, 119943, Note_on_c, 0, 80, 0
1, 119943, Note_on_c, 0, 70, 0
1, 119943, Note_on_c, 0, 82, 68
1, 119946, Note_on_c, 0, 58, 0
1, 119946, Note_on_c, 0, 51, 0
1, 119946, Note_on_c, 0, 54, 0
1, 119949, Note_on_c, 0, 66, 0
1, 119949, Control_c, 0, 64, 0
1, 120009, Control_c, 0, 64, 127
1, 120197, Note_on_c, 0, 50, 43
1, 120215, Note_on_c, 0, 58, 46
1, 120233, Note_on_c, 0, 70, 50
1, 120233, Note_on_c, 0, 65, 50
1, 120424, Note_on_c, 0, 50, 0
1, 120462, Note_on_c, 0, 82, 0
1, 120462, Note_on_c, 0, 77, 64
1, 120482, Note_on_c, 0, 65, 0
1, 120482, Note_on_c, 0, 58, 0
1, 120482, Note_on_c, 0, 51, 37
1, 120501, Note_on_c, 0, 54, 41
1, 120520, Note_on_c, 0, 58, 45
1, 120539, Note_on_c, 0, 77, 0
1, 120539, Note_on_c, 0, 78, 71
1, 120539, Note_on_c, 0, 66, 50
1, 120559, Control_c, 0, 64, 0
1, 120599, Control_c, 0, 64, 127
1, 120768, Note_on_c, 0, 78, 0
1, 120768, Note_on_c, 0, 80, 66
1, 120844, Note_on_c, 0, 80, 0
1, 120844, Note_on_c, 0, 70, 0
1, 120844, Note_on_c, 0, 82, 71
1, 120847, Note_on_c, 0, 66, 0
1, 120847, Note_on_c, 0, 51, 0
1, 120847, Note_on_c, 0, 54, 0
1, 120850, Note_on_c, 0, 58, 0
1, 120855, Control_c, 0, 64, 0
1, 120892, Control_c, 0, 64, 127
1, 120991, Note_on_c, 0, 82, 0
1, 120991, Note_on_c, 0, 73, 57
1, 121101, Note_on_c, 0, 54, 43
1, 121120, Note_on_c, 0, 61, 43
1, 121138, Note_on_c, 0, 73, 0
1, 121138, Note_on_c, 0, 89, 74
1, 121138, Note_on_c, 0, 70, 50
1, 121289, Note_on_c, 0, 89, 0
1, 121289, Note_on_c, 0, 87, 67
1, 121440, Note_on_c, 0, 87, 0
1, 121440, Note_on_c, 0, 89, 76
1, 121440, Note_on_c, 0, 70, 0
1, 121443, Note_on_c, 0, 54, 0
1, 121443, Note_on_c, 0, 70, 50
1, 121487, Control_c, 0, 64, 0
1, 121548, Control_c, 0, 64, 127
1, 121587, Note_on_c, 0, 89, 0
1, 121587, Note_on_c, 0, 87, 73
1, 121735, Note_on_c, 0, 87, 0
1, 121735, Note_on_c, 0, 85, 69
1, 121735, Note_on_c, 0, 61, 0
1, 121738, Note_on_c, 0, 63, 50
1, 121742, Control_c, 0, 64, 0
1, 121795, Control_c, 0, 64, 127
1, 121831, Note_on_c, 0, 85, 0
1, 121831, Note_on_c, 0, 82, 61
1, 121928, Note_on_c, 0, 82, 0
1, 121928, Note_on_c, 0, 78, 61
1, 122024, Note_on_c, 0, 78, 0
1, 122024, Note_on_c, 0, 72, 46
1, 122024, Note_on_c, 0, 77, 67
1, 122027, Note_on_c, 0, 63, 0
1, 122027, Note_on_c, 0, 70, 0
1, 122027, Note_on_c, 0, 66, 46
1, 122030, Note_on_c, 0, 56, 46
1, 122030, Control_c, 0, 64, 0
1, 122088, Control_c, 0, 64, 127
1, 122257, Note_on_c, 0, 77, 0
1, 122257, Note_on_c, 0, 75, 57
1, 122344, Note_on_c, 0, 75, 0
1, 122344, Note_on_c, 0, 72, 0
1, 122344, Note_on_c, 0, 73, 64
1, 122347, Note_on_c, 0, 56, 0
1, 122347, Note_on_c, 0, 66, 0
1, 122347, Note_on_c, 0, 61, 47
1, 122350, Note_on_c, 0, 65, 47
1, 122350, Control_c, 0, 64, 0
1, 122507, Note_on_c, 0, 73, 0
1, 122507, Note_on_c, 0, 65, 0
1, 122507, Note_on_c, 0, 61, 0
1, 122671, Note_on_c, 0, 80, 68
1, 122681, Control_c, 0, 64, 127
1, 122927, Note_on_c, 0, 44, 42
1, 122945, Note_on_c, 0, 51, 46
1, 122963, Note_on_c, 0, 68, 50
1, 122963, Note_on_c, 0, 60, 50
1, 123190, Note_on_c, 0, 80, 0
1, 123190, Note_on_c, 0, 75, 60
1, 123267, Note_on_c, 0, 75, 0
1, 123267, Note_on_c, 0, 77, 66
1, 123267, Note_on_c, 0, 60, 0
1, 123270, Note_on_c, 0, 51, 0
1, 123270, Note_on_c, 0, 44, 0
1, 123270, Note_on_c, 0, 61, 50
1, 123273, Note_on_c, 0, 53, 50
1, 123273, Control_c, 0, 64, 0
1, 123310, Control_c, 0, 64, 127
1, 123495, Note_on_c, 0, 77, 0
1, 123495, Note_on_c, 0, 78, 61
1, 123571, Note_on_c, 0, 78, 0
1, 123571, Note_on_c, 0, 68, 0
1, 123571, Note_on_c, 0, 80, 67
1, 123574, Note_on_c, 0, 53, 0
1, 123574, Note_on_c, 0, 61, 0
1, 123578, Control_c, 0, 64, 0
1, 123636, Control_c, 0, 64, 127
1, 123824, Note_on_c, 0, 44, 43
1, 123842, Note_on_c, 0, 51, 46
1, 123860, Note_on_c, 0, 68, 50
1, 123860, Note_on_c, 0, 60, 50
1, 124090, Note_on_c, 0, 80, 0
1, 124090, Note_on_c, 0, 75, 64
1, 124166, Note_on_c, 0, 75, 0
1, 124166, Note_on_c, 0, 77, 71
1, 124166, Note_on_c, 0, 60, 0
1, 124169, Note_on_c, 0, 51, 0
1, 124169, Note_on_c, 0, 44, 0
1, 124169, Note_on_c, 0, 61, 50
1, 124172, Note_on_c, 0, 53, 50
1, 124186, Control_c, 0, 64, 0
1, 124227, Control_c, 0, 64, 127
1, 124395, Note_on_c, 0, 77, 0
1, 124395, Note_on_c, 0, 78, 62
1, 124472, Note_on_c, 0, 78, 0
1, 124472, Note_on_c, 0, 68, 0
1, 124472, Note_on_c, 0, 80, 67
1, 124475, Note_on_c, 0, 53, 0
1, 124475, Note_on_c, 0, 61, 0
1, 124483, Control_c, 0, 64, 0
1, 124519, Control_c, 0, 64, 127
1, 124619, Note_on_c, 0, 80, 0
1, 124619, Note_on_c, 0, 70, 57
1, 124729, Note_on_c, 0, 49, 43
1, 124747, Note_on_c, 0, 56, 43
1, 124765, Note_on_c, 0, 70, 0
1, 124765, Note_on_c, 0, 84, 74
1, 124765, Note_on_c, 0, 65, 50
1, 124917, Note_on_c, 0, 84, 0
1, 124917, Note_on_c, 0, 82, 67
1, 125068, Note_on_c, 0, 82, 0
1, 125068, Note_on_c, 0, 84, 76
1, 125068, Note_on_c, 0, 65, 0
1, 125071, Note_on_c, 0, 49, 0
1, 125071, Note_on_c, 0, 65, 50
1, 125116, Control_c, 0, 64, 0
1, 125178, Control_c, 0, 64, 127
1, 125218, Note_on_c, 0, 84, 0
1, 125218, Note_on_c, 0, 82, 73
1, 125367, Note_on_c, 0, 82, 0
1, 125367, Note_on_c, 0, 80, 69
1, 125367, Note_on_c, 0, 56, 0
1, 125370, Note_on_c, 0, 58, 50
1, 125375, Control_c, 0, 64, 0
1, 125428, Control_c, 0, 64, 127
1, 125465, Note_on_c, 0, 80, 0
1, 125465, Note_on_c, 0, 77, 61
1, 125563, Note_on_c, 0, 77, 0
1, 125563, Note_on_c, 0, 73, 61
1, 125660, Note_on_c, 0, 73, 0
1, 125660, Note_on_c, 0, 72, 67
1, 125660, Note_on_c, 0, 67, 46
1, 125663, Note_on_c, 0, 58, 0
1, 125663, Note_on_c, 0, 65, 0
1, 125663, Note_on_c, 0, 61, 46
1, 125666, Note_on_c, 0, 51, 46
1, 125666, Control_c, 0, 64, 0
1, 125724, Control_c, 0, 64, 127
1, 125893, Note_on_c, 0, 72, 0
1, 125893, Note_on_c, 0, 70, 57
1, 125978, Note_on_c, 0, 70, 0
1, 125978, Note_on_c, 0, 67, 0
1, 125978, Note_on_c, 0, 68, 64
1, 125981, Note_on_c, 0, 51, 0
1, 125981, Note_on_c, 0, 61, 0
1, 125981, Note_on_c, 0, 56, 47
1, 125984, Note_on_c, 0, 60, 47
1, 125984, Control_c, 0, 64, 0
1, 126141, Note_on_c, 0, 68, 0
1, 126141, Note_on_c, 0, 60, 0
1, 126141, Note_on_c, 0, 56, 0
1, 126304, Note_on_c, 0, 54, 56
1, 126304, Control_c, 0, 64, 127
1, 126589, Note_on_c, 0, 68, 50
1, 126589, Note_on_c, 0, 63, 44
1, 126589, Note_on_c, 0, 60, 44
1, 126592, Note_on_c, 0, 44, 42
1, 126817, Note_on_c, 0, 54, 0
1, 126817, Note_on_c, 0, 50, 53
1, 126894, Note_on_c, 0, 50, 0
1, 126894, Note_on_c, 0, 51, 59
1, 126900, Control_c, 0, 64, 0
1, 126967, Control_c, 0, 64, 127
1, 127114, Note_on_c, 0, 51, 0
1, 127114, Note_on_c, 0, 53, 52
1, 127187, Note_on_c, 0, 60, 0
1, 127187, Note_on_c, 0, 63, 0
1, 127187, Note_on_c, 0, 68, 0
1, 127190, Note_on_c, 0, 69, 62
1, 127190, Note_on_c, 0, 53, 0
1, 127190, Note_on_c, 0, 44, 0
1, 127193, Note_on_c, 0, 54, 59
1, 127193, Control_c, 0, 64, 0
1, 127259, Control_c, 0, 64, 127
1, 127475, Note_on_c, 0, 44, 42
1, 127703, Note_on_c, 0, 69, 0
1, 127703, Note_on_c, 0, 62, 55
1, 127779, Note_on_c, 0, 62, 0
1, 127779, Note_on_c, 0, 63, 60
1, 127779, Note_on_c, 0, 54, 0
1, 127783, Control_c, 0, 64, 0
1, 127836, Control_c, 0, 64, 127
1, 128001, Note_on_c, 0, 63, 0
1, 128001, Note_on_c, 0, 65, 55
1, 128075, Note_on_c, 0, 65, 0
1, 128075, Note_on_c, 0, 60, 60
1, 128075, Note_on_c, 0, 66, 61
1, 128078, Note_on_c, 0, 44, 0
1, 128078, Note_on_c, 0, 51, 56
1, 128082, Control_c, 0, 64, 0
1, 128123, Control_c, 0, 64, 127
1, 128362, Note_on_c, 0, 44, 42
1, 128591, Note_on_c, 0, 51, 0
1, 128591, Note_on_c, 0, 47, 52
1, 128667, Note_on_c, 0, 47, 0
1, 128667, Note_on_c, 0, 48, 59
1, 128674, Control_c, 0, 64, 0
1, 128744, Control_c, 0, 64, 127
1, 128888, Note_on_c, 0, 48, 0
1, 128888, Note_on_c, 0, 49, 54
1, 128954, Control_c, 0, 64, 0
1, 128962, Note_on_c, 0, 66, 0
1, 128962, Note_on_c, 0, 60, 0
1, 128962, Note_on_c, 0, 66, 62
1, 128965, Note_on_c, 0, 49, 0
1, 128965, Note_on_c, 0, 44, 0
1, 128965, Note_on_c, 0, 51, 58
1, 129010, Control_c, 0, 64, 127
1, 129249, Note_on_c, 0, 44, 42
1, 129478, Note_on_c, 0, 66, 0
1, 129478, Note_on_c, 0, 59, 55
1, 129554, Note_on_c, 0, 59, 0
1, 129554, Note_on_c, 0, 60, 60
1, 129554, Note_on_c, 0, 51, 0
1, 129557, Control_c, 0, 64, 0
1, 129618, Control_c, 0, 64, 127
1, 129775, Note_on_c, 0, 60, 0
1, 129775, Note_on_c, 0, 61, 55
1, 129849, Note_on_c, 0, 61, 0
1, 129849, Note_on_c, 0, 63, 61
1, 129854, Control_c, 0, 64, 0
1, 129917, Control_c, 0, 64, 127
1, 130135, Note_on_c, 0, 44, 0
1, 130135, Note_on_c, 0, 45, 42
1, 130364, Note_on_c, 0, 53, 55
1, 130440, Note_on_c, 0, 53, 0
1, 130440, Note_on_c, 0, 63, 0
1, 130440, Note_on_c, 0, 63, 61
1, 130443, Note_on_c, 0, 54, 60
1, 130443, Control_c, 0, 64, 0
1, 130495, Control_c, 0, 64, 127
1, 130660, Note_on_c, 0, 54, 0
1, 130660, Note_on_c, 0, 56, 55
1, 130734, Note_on_c, 0, 56, 0
1, 130734, Note_on_c, 0, 63, 0
1, 130734, Note_on_c, 0, 57, 61
1, 130740, Control_c, 0, 64, 0
1, 130798, Control_c, 0, 64, 127
1, 131020, Note_on_c, 0, 45, 0
1, 131020, Note_on_c, 0, 47, 42
1, 131248, Note_on_c, 0, 50, 55
1, 131324, Note_on_c, 0, 50, 0
1, 131324, Note_on_c, 0, 51, 60
1, 131329, Control_c, 0, 64, 0
1, 131384, Control_c, 0, 64, 127
1, 131546, Note_on_c, 0, 51, 0
1, 131546, Note_on_c, 0, 52, 55
1, 131619, Note_on_c, 0, 52, 0
1, 131619, Note_on_c, 0, 57, 0
1, 131619, Note_on_c, 0, 54, 61
1, 131624, Control_c, 0, 64, 0
1, 131677, Control_c, 0, 64, 127
1, 131907, Note_on_c, 0, 47, 0
1, 131907, Note_on_c, 0, 48, 42
1, 132135, Note_on_c, 0, 49, 55
1, 132211, Note_on_c, 0, 49, 0
1, 132211, Note_on_c, 0, 50, 60
1, 132211, Control_c, 0, 64, 0
1, 132259, Control_c, 0, 64, 127
1, 132444, Note_on_c, 0, 50, 0
1, 132444, Note_on_c, 0, 52, 61
1, 132521, Note_on_c, 0, 52, 0
1, 132521, Note_on_c, 0, 54, 0
1, 132521, Note_on_c, 0, 54, 65
1, 132526, Control_c, 0, 64, 0
1, 132686, Note_on_c, 0, 48, 0
1, 132686, Note_on_c, 0, 50, 53
1, 132865, Note_on_c, 0, 50, 0
1, 132865, Note_on_c, 0, 52, 59
1, 133039, Note_on_c, 0, 52, 0
1, 133039, Note_on_c, 0, 54, 63
1, 133126, Note_on_c, 0, 54, 0
1, 133554, Note_on_c, 0, 55, 50
1, 133554, Note_on_c, 0, 54, 0
1, 133554, Note_on_c, 0, 31, 54
1, 133624, Note_on_c, 0, 55, 0
1, 133624, Note_on_c, 0, 57, 42
1, 133694, Note_on_c, 0, 57, 0
1, 133694, Note_on_c, 0, 55, 44
1, 133764, Note_on_c, 0, 55, 0
1, 133764, Note_on_c, 0, 50, 44
1, 133840, Note_on_c, 0, 50, 0
1, 133840, Note_on_c, 0, 62, 50
1, 133901, Note_on_c, 0, 62, 0
1, 134074, Note_on_c, 0, 50, 50
1, 134074, Note_on_c, 0, 55, 50
1, 134074, Note_on_c, 0, 31, 0
1, 134077, Note_on_c, 0, 34, 45
1, 134128, Note_on_c, 0, 55, 0
1, 134128, Note_on_c, 0, 50, 0
1, 134128, Note_on_c, 0, 34, 0
1, 134146, Note_on_c, 0, 48, 56
1, 134146, Note_on_c, 0, 54, 56
1, 134146, Note_on_c, 0, 33, 50
1, 134201, Note_on_c, 0, 54, 0
1, 134201, Note_on_c, 0, 48, 0
1, 134201, Note_on_c, 0, 33, 0
1, 134435, Note_on_c, 0, 60, 53
1, 134505, Note_on_c, 0, 60, 0
1, 134505, Note_on_c, 0, 62, 47
1, 134575, Note_on_c, 0, 62, 0
1, 134575, Note_on_c, 0, 60, 47
1, 134645, Note_on_c, 0, 60, 0
1, 134645, Note_on_c, 0, 57, 47
1, 134722, Note_on_c, 0, 57, 0
1, 134722, Note_on_c, 0, 69, 59
1, 134782, Note_on_c, 0, 69, 0
1, 134954, Note_on_c, 0, 60, 54
1, 134954, Note_on_c, 0, 50, 54
1, 134954, Note_on_c, 0, 30, 43
1, 135008, Note_on_c, 0, 50, 0
1, 135008, Note_on_c, 0, 60, 0
1, 135008, Note_on_c, 0, 30, 0
1, 135026, Note_on_c, 0, 58, 58
1, 135026, Note_on_c, 0, 50, 58
1, 135026, Note_on_c, 0, 31, 50
1, 135080, Note_on_c, 0, 50, 0
1, 135080, Note_on_c, 0, 58, 0
1, 135080, Note_on_c, 0, 31, 0
1, 135314, Note_on_c, 0, 55, 50
1, 135384, Note_on_c, 0, 55, 0
1, 135384, Note_on_c, 0, 57, 44
1, 135454, Note_on_c, 0, 57, 0
1, 135454, Note_on_c, 0, 55, 44
1, 135524, Note_on_c, 0, 55, 0
1, 135524, Note_on_c, 0, 50, 44
1, 135601, Note_on_c, 0, 50, 0
1, 135601, Note_on_c, 0, 67, 60
1, 135656, Note_on_c, 0, 67, 0
1, 135821, Note_on_c, 0, 65, 54
1, 135821, Note_on_c, 0, 55, 54
1, 135821, Note_on_c, 0, 34, 42
1, 135875, Note_on_c, 0, 55, 0
1, 135875, Note_on_c, 0, 65, 0
1, 135875, Note_on_c, 0, 34, 0
1, 135893, Note_on_c, 0, 63, 57
1, 135893, Note_on_c, 0, 55, 57
1, 135893, Note_on_c, 0, 36, 47
1, 135946, Note_on_c, 0, 55, 0
1, 135946, Note_on_c, 0, 63, 0
1, 135946, Note_on_c, 0, 36, 0
1, 136107, Note_on_c, 0, 62, 50
1, 136107, Note_on_c, 0, 55, 50
1, 136107, Note_on_c, 0, 38, 43
1, 136162, Note_on_c, 0, 55, 0
1, 136162, Note_on_c, 0, 62, 0
1, 136162, Note_on_c, 0, 38, 0
1, 136181, Note_on_c, 0, 60, 54
1, 136181, Note_on_c, 0, 55, 54
1, 136181, Note_on_c, 0, 39, 48
1, 136234, Note_on_c, 0, 55, 0
1, 136234, Note_on_c, 0, 60, 0
1, 136234, Note_on_c, 0, 39, 0
1, 136394, Note_on_c, 0, 58, 60
1, 136449, Note_on_c, 0, 58, 0
1, 136468, Note_on_c, 0, 61, 56
1, 136468, Note_on_c, 0, 57, 56
1, 136468, Note_on_c, 0, 51, 50
1, 136522, Note_on_c, 0, 57, 0
1, 136522, Note_on_c, 0, 61, 0
1, 136522, Note_on_c, 0, 51, 0
1, 136683, Note_on_c, 0, 55, 50
1, 136744, Note_on_c, 0, 55, 0
1, 136765, Note_on_c, 0, 62, 60
1, 136765, Note_on_c, 0, 54, 60
1, 136765, Note_on_c, 0, 38, 55
1, 136768, Note_on_c, 0, 50, 55
1, 136819, Note_on_c, 0, 54, 0
1, 136819, Note_on_c, 0, 62, 0
1, 136819, Note_on_c, 0, 50, 0
1, 136822, Note_on_c, 0, 38, 0
1, 137053, Note_on_c, 0, 74, 82
1, 137125, Control_c, 0, 64, 127
1, 137341, Note_on_c, 0, 62, 71
1, 137341, Note_on_c, 0, 30, 50
1, 137557, Note_on_c, 0, 74, 0
1, 137557, Note_on_c, 0, 72, 68
1, 137629, Note_on_c, 0, 72, 0
1, 137629, Note_on_c, 0, 70, 75
1, 137629, Note_on_c, 0, 30, 0
1, 137632, Note_on_c, 0, 31, 54
1, 137632, Control_c, 0, 64, 0
1, 137682, Note_on_c, 0, 70, 0
1, 137770, Note_on_c, 0, 31, 0
1, 137840, Note_on_c, 0, 69, 65
1, 137895, Note_on_c, 0, 69, 0
1, 137913, Note_on_c, 0, 62, 0
1, 137913, Note_on_c, 0, 70, 74
1, 137913, Note_on_c, 0, 67, 74
1, 137916, Note_on_c, 0, 55, 70
1, 137966, Note_on_c, 0, 67, 0
1, 138123, Note_on_c, 0, 65, 66
1, 138178, Note_on_c, 0, 65, 0
1, 138196, Note_on_c, 0, 70, 0
1, 138196, Note_on_c, 0, 63, 74
1, 138249, Note_on_c, 0, 63, 0
1, 138407, Note_on_c, 0, 62, 66
1, 138407, Note_on_c, 0, 55, 0
1, 138407, Note_on_c, 0, 53, 61
1, 138462, Note_on_c, 0, 62, 0
1, 138480, Note_on_c, 0, 60, 74
1, 138480, Note_on_c, 0, 53, 0
1, 138480, Note_on_c, 0, 51, 68
1, 138533, Note_on_c, 0, 60, 0
1, 138533, Note_on_c, 0, 51, 0
1, 138691, Note_on_c, 0, 50, 61
1, 138745, Note_on_c, 0, 50, 0
1, 138764, Note_on_c, 0, 77, 78
1, 138764, Note_on_c, 0, 48, 67
1, 138818, Note_on_c, 0, 48, 0
1, 138874, Control_c, 0, 64, 127
1, 138980, Note_on_c, 0, 46, 60
1, 139034, Note_on_c, 0, 46, 0
1, 139052, Note_on_c, 0, 65, 71
1, 139052, Note_on_c, 0, 33, 50
1, 139268, Note_on_c, 0, 77, 0
1, 139268, Note_on_c, 0, 75, 68
1, 139340, Note_on_c, 0, 75, 0
1, 139340, Note_on_c, 0, 74, 75
1, 139340, Note_on_c, 0, 33, 0
1, 139343, Note_on_c, 0, 34, 54
1, 139393, Note_on_c, 0, 74, 0
1, 139406, Control_c, 0, 64, 0
1, 139481, Note_on_c, 0, 34, 0
1, 139551, Note_on_c, 0, 72, 65
1, 139606, Note_on_c, 0, 72, 0
1, 139624, Note_on_c, 0, 65, 0
1, 139624, Note_on_c, 0, 70, 74
1, 139624, Note_on_c, 0, 74, 74
1, 139627, Note_on_c, 0, 58, 70
1, 139676, Note_on_c, 0, 70, 0
1, 139834, Note_on_c, 0, 69, 66
1, 139889, Note_on_c, 0, 69, 0
1, 139907, Note_on_c, 0, 74, 0
1, 139907, Note_on_c, 0, 67, 74
1, 139960, Note_on_c, 0, 67, 0
1, 140118, Note_on_c, 0, 65, 66
1, 140118, Note_on_c, 0, 58, 0
1, 140118, Note_on_c, 0, 57, 61
1, 140173, Note_on_c, 0, 65, 0
1, 140191, Note_on_c, 0, 64, 74
1, 140191, Note_on_c, 0, 57, 0
1, 140191, Note_on_c, 0, 55, 68
1, 140244, Note_on_c, 0, 64, 0
1, 140244, Note_on_c, 0, 55, 0
1, 140402, Note_on_c, 0, 53, 61
1, 140456, Note_on_c, 0, 53, 0
1, 140475, Note_on_c, 0, 81, 80
1, 140475, Note_on_c, 0, 52, 67
1, 140529, Note_on_c, 0, 52, 0
1, 140574, Control_c, 0, 64, 127
1, 140691, Note_on_c, 0, 50, 60
1, 140745, Note_on_c, 0, 50, 0
1, 140763, Note_on_c, 0, 69, 71
1, 140763, Note_on_c, 0, 37, 50
1, 140979, Note_on_c, 0, 81, 0
1, 140979, Note_on_c, 0, 79, 68
1, 141051, Note_on_c, 0, 79, 0
1, 141051, Note_on_c, 0, 78, 75
1, 141051, Note_on_c, 0, 37, 0
1, 141054, Note_on_c, 0, 38, 54
1, 141054, Control_c, 0, 64, 0
1, 141104, Note_on_c, 0, 78, 0
1, 141192, Note_on_c, 0, 38, 0
1, 141262, Note_on_c, 0, 75, 65
1, 141317, Note_on_c, 0, 75, 0
1, 141335, Note_on_c, 0, 69, 0
1, 141335, Note_on_c, 0, 74, 74
1, 141335, Note_on_c, 0, 78, 74
1, 141338, Note_on_c, 0, 62, 68
1, 141387, Note_on_c, 0, 74, 0
1, 141545, Note_on_c, 0, 72, 66
1, 141600, Note_on_c, 0, 72, 0
1, 141618, Note_on_c, 0, 78, 0
1, 141618, Note_on_c, 0, 79, 74
1, 141618, Note_on_c, 0, 70, 74
1, 141671, Note_on_c, 0, 70, 0
1, 141689, Note_on_c, 0, 79, 0
1, 141829, Note_on_c, 0, 69, 66
1, 141829, Note_on_c, 0, 62, 0
1, 141829, Note_on_c, 0, 60, 61
1, 141884, Note_on_c, 0, 69, 0
1, 141902, Note_on_c, 0, 67, 74
1, 141902, Note_on_c, 0, 60, 0
1, 141902, Note_on_c, 0, 58, 68
1, 141955, Note_on_c, 0, 67, 0
1, 141955, Note_on_c, 0, 58, 0
1, 142113, Note_on_c, 0, 57, 61
1, 142167, Note_on_c, 0, 57, 0
1, 142186, Note_on_c, 0, 70, 81
1, 142186, Note_on_c, 0, 55, 67
1, 142240, Note_on_c, 0, 55, 0
1, 142402, Note_on_c, 0, 53, 60
1, 142456, Note_on_c, 0, 53, 0
1, 142474, Note_on_c, 0, 70, 0
1, 142474, Note_on_c, 0, 69, 62
1, 142474, Note_on_c, 0, 73, 72
1, 142477, Note_on_c, 0, 52, 67
1, 142528, Note_on_c, 0, 52, 0
1, 142549, Control_c, 0, 64, 127
1, 142690, Note_on_c, 0, 69, 0
1, 142690, Note_on_c, 0, 67, 68
1, 142690, Note_on_c, 0, 51, 60
1, 142744, Note_on_c, 0, 51, 0
1, 142762, Note_on_c, 0, 67, 0
1, 142762, Note_on_c, 0, 73, 0
1, 142762, Note_on_c, 0, 66, 66
1, 142765, Note_on_c, 0, 74, 71
1, 142765, Note_on_c, 0, 50, 68
1, 142765, Control_c, 0, 64, 0
1, 142903, Note_on_c, 0, 74, 0
1, 142903, Note_on_c, 0, 66, 0
1, 142903, Note_on_c, 0, 50, 0
1, 142973, Note_on_c, 0, 63, 61
1, 143028, Note_on_c, 0, 63, 0
1, 143046, Note_on_c, 0, 62, 69
1, 143046, Note_on_c, 0, 66, 69
1, 143046, Note_on_c, 0, 50, 70
1, 143096, Control_c, 0, 64, 127
1, 143188, Note_on_c, 0, 62, 0
1, 143260, Note_on_c, 0, 60, 59
1, 143317, Note_on_c, 0, 60, 0
1, 143336, Note_on_c, 0, 66, 0
1, 143336, Note_on_c, 0, 58, 65
1, 143336, Note_on_c, 0, 67, 65
1, 143482, Note_on_c, 0, 67, 0
1, 143482, Note_on_c, 0, 58, 0
1, 143554, Note_on_c, 0, 57, 57
1, 143554, Note_on_c, 0, 50, 0
1, 143554, Note_on_c, 0, 48, 53
1, 143612, Note_on_c, 0, 57, 0
1, 143628, Control_c, 0, 64, 0
1, 143632, Note_on_c, 0, 55, 64
1, 143632, Note_on_c, 0, 48, 0
1, 143632, Note_on_c, 0, 46, 63
1, 143697, Control_c, 0, 64, 127
1, 143868, Note_on_c, 0, 46, 0
1, 143868, Note_on_c, 0, 45, 59
1, 143955, Note_on_c, 0, 55, 0
1, 143955, Note_on_c, 0, 58, 66
1, 143955, Note_on_c, 0, 45, 0
1, 143958, Note_on_c, 0, 43, 58
1, 143964, Control_c, 0, 64, 0
1, 144002, Control_c, 0, 64, 127
1, 144119, Note_on_c, 0, 43, 0
1, 144119, Note_on_c, 0, 41, 52
1, 144293, Note_on_c, 0, 58, 0
1, 144293, Note_on_c, 0, 61, 57
1, 144293, Note_on_c, 0, 57, 57
1, 144296, Note_on_c, 0, 41, 0
1, 144296, Note_on_c, 0, 40, 51
1, 144307, Control_c, 0, 64, 0
1, 144397, Control_c, 0, 64, 127
1, 144501, Note_on_c, 0, 57, 0
1, 144501, Note_on_c, 0, 55, 48
1, 144501, Note_on_c, 0, 40, 0
1, 144504, Note_on_c, 0, 39, 42
1, 144757, Note_on_c, 0, 55, 0
1, 144757, Note_on_c, 0, 61, 0
1, 144757, Note_on_c, 0, 39, 0
1, 144760, Note_on_c, 0, 38, 57
1, 144768, Control_c, 0, 64, 0
1, 144927, Note_on_c, 0, 54, 45
1, 144927, Note_on_c, 0, 62, 52
1, 144927, Note_on_c, 0, 45, 39
1, 144930, Control_c, 0, 64, 127
1, 146118, Note_on_c, 0, 62, 0
1, 146118, Note_on_c, 0, 54, 0
1, 146118, Note_on_c, 0, 45, 0
1, 146121, Note_on_c, 0, 38, 0
1, 146264, Control_c, 0, 64, 0
1, 147762, End_track
0, 0, End_of_file
