0, 0, Header, 1, 5, 384
1, 0, Start_track
1, 0, Sequencer_specific, 3, 0, 0, 65
1, 0, Time_signature, 4, 2, 24, 8
1, 0, Key_signature, 0, "major"
1, 0, Tempo, 413793
1, 4944, Tempo, 400000
1, 24156, Tempo, 375000
1, 37536, Tempo, 472441
1, 47300, Tempo, 454545
1, 57456, Tempo, 447761
1, 72632, Tempo, 545455
1, 77584, Tempo, 454545
1, 88116, Tempo, 472441
1, 91948, Tempo, 500000
1, 98796, Tempo, 468750
1, 112016, Tempo, 444444
1, 114400, Tempo, 333333
1, 115140, Tempo, 363636
1, 119844, Tempo, 375000
1, 127428, Tempo, 400000
1, 145920, Tempo, 400000
1, 145984, Tempo, 402685
1, 146048, Tempo, 405405
1, 146112, Tempo, 408163
1, 146176, Tempo, 410959
1, 146240, Tempo, 413793
1, 146304, Tempo, 416667
1, 146368, Tempo, 419580
1, 146432, Tempo, 422535
1, 146496, Tempo, 425532
1, 146560, Tempo, 428571
1, 146624, Tempo, 431655
1, 146688, Tempo, 434783
1, 146752, Tempo, 437956
1, 146816, Tempo, 441176
1, 146880, Tempo, 444444
1, 147992, Tempo, 333333
1, 148732, Tempo, 363636
1, 153444, Tempo, 375000
1, 158440, Tempo, 500000
1, 160112, Tempo, 468750
1, 162516, Tempo, 500000
1, 166764, Tempo, 571429
1, 168192, Tempo, 545455
1, 171068, Tempo, 571429
1, 171604, Tempo, 618557
1, 172136, Tempo, 550459
1, 184136, Tempo, 545455
1, 189808, Tempo, 413793
1, 210432, Tempo, 413793
1, 210616, Tempo, 416667
1, 210800, Tempo, 419580
1, 210896, Tempo, 416667
1, 210984, Tempo, 422535
1, 211168, Tempo, 425532
1, 211352, Tempo, 428571
1, 211360, Tempo, 419580
1, 211536, Tempo, 431655
1, 211824, Tempo, 422535
1, 212288, Tempo, 425532
1, 212752, Tempo, 428571
1, 213216, Tempo, 431655
1, 213680, Tempo, 434783
1, 214144, Tempo, 437956
1, 214608, Tempo, 441176
1, 215072, Tempo, 444444
1, 216692, Tempo, 437956
1, 273948, Tempo, 545455
1, 293564, Tempo, 480000
1, 302268, Tempo, 500000
1, 315116, Tempo, 461538
1, 316544, Tempo, 480000
1, 329916, Tempo, 428571
1, 339456, Tempo, 428571
1, 339640, Tempo, 431655
1, 339824, Tempo, 434783
1, 340008, Tempo, 437956
1, 340192, Tempo, 441176
1, 340376, Tempo, 444444
1, 340560, Tempo, 447761
1, 340744, Tempo, 451128
1, 340928, Tempo, 454545
1, 341112, Tempo, 458015
1, 341296, Tempo, 461538
1, 341480, Tempo, 465116
1, 341664, Tempo, 468750
1, 341848, Tempo, 472441
1, 342032, Tempo, 476190
1, 342216, Tempo, 480000
1, 342400, Tempo, 483871
1, 342584, Tempo, 487805
1, 342768, Tempo, 491803
1, 342952, Tempo, 495868
1, 343136, Tempo, 500000
1, 343644, Tempo, 400000
1, 362820, Tempo, 387097
1, 376116, Tempo, 451128
1, 420220, Tempo, 472441
1, 449596, Tempo, 352941
1, 455048, Tempo, 375000
1, 471476, Tempo, 387097
1, 483228, Tempo, 342857
1, 488688, Tempo, 375000
1, 493352, Tempo, 472441
1, 505188, Tempo, 521739
1, 523024, Tempo, 408163
1, 524592, Tempo, 428571
1, 528232, Tempo, 408163
1, 545696, Tempo, 461538
1, 578700, Tempo, 444444
1, 580028, Tempo, 434783
1, 582052, Tempo, 422535
1, 591360, Tempo, 422535
1, 591420, Tempo, 410959
1, 591444, Tempo, 425532
1, 591480, Tempo, 413793
1, 591528, Tempo, 428571
1, 591540, Tempo, 416667
1, 591600, Tempo, 419580
1, 591612, Tempo, 431655
1, 591660, Tempo, 422535
1, 591696, Tempo, 434783
1, 591720, Tempo, 425532
1, 591780, Tempo, 437956
1, 591840, Tempo, 431655
1, 591864, Tempo, 441176
1, 591900, Tempo, 434783
1, 591948, Tempo, 444444
1, 591960, Tempo, 437956
1, 592020, Tempo, 441176
1, 592032, Tempo, 447761
1, 592080, Tempo, 444444
1, 592116, Tempo, 451128
1, 592140, Tempo, 447761
1, 592200, Tempo, 454545
1, 592260, Tempo, 454545
1, 592284, Tempo, 458015
1, 592368, Tempo, 461538
1, 592452, Tempo, 465116
1, 592536, Tempo, 468750
1, 592620, Tempo, 472441
1, 593720, Tempo, 472441
1, 607628, Tempo, 500000
1, 626092, Tempo, 428571
1, 626092, End_track
2, 0, Start_track
2, 0, MIDI_port, 0
2, 0, Title_t, "Concerto in A Min 1st mov"
2, 0, Control_c, 0, 0, 0
2, 0, Control_c, 0, 32, 0
2, 0, Program_c, 0, 0
2, 92, Control_c, 0, 91, 120
2, 108, Control_c, 0, 64, 104
2, 124, Control_c, 0, 64, 127
2, 168, Note_on_c, 0, 76, 89
2, 168, Note_on_c, 0, 52, 86
2, 172, Note_on_c, 0, 40, 79
2, 224, Note_on_c, 0, 40, 0
2, 492, Control_c, 0, 64, 40
2, 504, Control_c, 0, 64, 127
2, 540, Note_on_c, 0, 88, 85
2, 540, Note_on_c, 0, 80, 65
2, 540, Note_on_c, 0, 72, 68
2, 540, Note_on_c, 0, 76, 66
2, 540, Note_on_c, 0, 68, 61
2, 552, Note_on_c, 0, 84, 64
2, 580, Note_on_c, 0, 84, 0
2, 592, Note_on_c, 0, 76, 0
2, 604, Note_on_c, 0, 72, 0
2, 604, Note_on_c, 0, 68, 0
2, 612, Note_on_c, 0, 52, 0
2, 612, Note_on_c, 0, 80, 0
2, 616, Note_on_c, 0, 76, 0
2, 624, Note_on_c, 0, 88, 0
2, 652, Note_on_c, 0, 89, 96
2, 652, Note_on_c, 0, 69, 82
2, 652, Note_on_c, 0, 72, 70
2, 652, Note_on_c, 0, 77, 83
2, 652, Note_on_c, 0, 84, 82
2, 652, Note_on_c, 0, 81, 83
2, 688, Note_on_c, 0, 72, 0
2, 696, Note_on_c, 0, 84, 0
2, 700, Note_on_c, 0, 77, 0
2, 700, Note_on_c, 0, 81, 0
2, 712, Note_on_c, 0, 69, 0
2, 720, Note_on_c, 0, 89, 0
2, 1144, Control_c, 0, 64, 104
2, 1204, Control_c, 0, 64, 88
2, 1224, Control_c, 0, 64, 72
2, 1240, Note_on_c, 0, 85, 82
2, 1240, Note_on_c, 0, 73, 64
2, 1240, Note_on_c, 0, 81, 74
2, 1240, Note_on_c, 0, 64, 70
2, 1240, Note_on_c, 0, 69, 58
2, 1240, Note_on_c, 0, 76, 68
2, 1240, Control_c, 0, 64, 56
2, 1252, Control_c, 0, 64, 40
2, 1264, Note_on_c, 0, 76, 0
2, 1268, Note_on_c, 0, 69, 0
2, 1268, Control_c, 0, 64, 0
2, 1284, Note_on_c, 0, 64, 0
2, 1292, Note_on_c, 0, 81, 0
2, 1292, Note_on_c, 0, 73, 0
2, 1312, Note_on_c, 0, 85, 0
2, 1328, Control_c, 0, 64, 72
2, 1340, Note_on_c, 0, 86, 93
2, 1340, Note_on_c, 0, 77, 93
2, 1340, Note_on_c, 0, 65, 73
2, 1340, Note_on_c, 0, 74, 74
2, 1340, Note_on_c, 0, 69, 58
2, 1340, Control_c, 0, 64, 56
2, 1360, Note_on_c, 0, 74, 0
2, 1360, Control_c, 0, 64, 104
2, 1368, Note_on_c, 0, 69, 0
2, 1372, Note_on_c, 0, 65, 0
2, 1372, Control_c, 0, 64, 127
2, 1384, Note_on_c, 0, 77, 0
2, 1388, Note_on_c, 0, 86, 0
2, 1620, Note_on_c, 0, 81, 78
2, 1620, Note_on_c, 0, 73, 70
2, 1620, Note_on_c, 0, 61, 62
2, 1620, Note_on_c, 0, 69, 79
2, 1620, Note_on_c, 0, 77, 75
2, 1644, Note_on_c, 0, 77, 0
2, 1644, Note_on_c, 0, 69, 0
2, 1660, Note_on_c, 0, 73, 0
2, 1676, Note_on_c, 0, 81, 0
2, 1684, Control_c, 0, 64, 72
2, 1688, Note_on_c, 0, 61, 0
2, 1692, Note_on_c, 0, 82, 90
2, 1692, Note_on_c, 0, 65, 71
2, 1692, Note_on_c, 0, 70, 69
2, 1692, Note_on_c, 0, 62, 74
2, 1692, Note_on_c, 0, 77, 58
2, 1692, Note_on_c, 0, 74, 89
2, 1700, Control_c, 0, 64, 0
2, 1716, Note_on_c, 0, 77, 0
2, 1720, Note_on_c, 0, 70, 0
2, 1720, Note_on_c, 0, 65, 0
2, 1724, Note_on_c, 0, 62, 0
2, 1732, Control_c, 0, 64, 72
2, 1744, Note_on_c, 0, 74, 0
2, 1744, Control_c, 0, 64, 127
2, 1772, Note_on_c, 0, 82, 0
2, 1972, Note_on_c, 0, 80, 83
2, 1972, Note_on_c, 0, 71, 64
2, 1972, Note_on_c, 0, 76, 64
2, 1972, Note_on_c, 0, 68, 38
2, 1972, Note_on_c, 0, 59, 54
2, 2000, Note_on_c, 0, 76, 0
2, 2000, Note_on_c, 0, 71, 0
2, 2004, Note_on_c, 0, 59, 0
2, 2004, Note_on_c, 0, 64, 48
2, 2012, Note_on_c, 0, 68, 0
2, 2040, Note_on_c, 0, 64, 0
2, 2056, Control_c, 0, 64, 88
2, 2068, Note_on_c, 0, 64, 59
2, 2068, Note_on_c, 0, 76, 64
2, 2068, Note_on_c, 0, 81, 99
2, 2068, Note_on_c, 0, 72, 64
2, 2068, Note_on_c, 0, 60, 77
2, 2068, Note_on_c, 0, 69, 70
2, 2068, Control_c, 0, 64, 24
2, 2084, Control_c, 0, 64, 40
2, 2096, Note_on_c, 0, 80, 0
2, 2104, Control_c, 0, 64, 104
2, 2108, Note_on_c, 0, 72, 0
2, 2108, Note_on_c, 0, 76, 0
2, 2112, Note_on_c, 0, 64, 0
2, 2112, Note_on_c, 0, 69, 0
2, 2120, Control_c, 0, 64, 127
2, 2124, Note_on_c, 0, 60, 0
2, 2136, Note_on_c, 0, 81, 0
2, 2336, Note_on_c, 0, 56, 67
2, 2336, Note_on_c, 0, 76, 73
2, 2336, Note_on_c, 0, 68, 53
2, 2336, Note_on_c, 0, 64, 68
2, 2336, Note_on_c, 0, 72, 49
2, 2336, Note_on_c, 0, 60, 70
2, 2364, Note_on_c, 0, 72, 0
2, 2368, Note_on_c, 0, 64, 0
2, 2376, Note_on_c, 0, 60, 0
2, 2380, Note_on_c, 0, 68, 0
2, 2392, Note_on_c, 0, 56, 0
2, 2396, Note_on_c, 0, 76, 0
2, 2416, Note_on_c, 0, 77, 86
2, 2416, Note_on_c, 0, 60, 74
2, 2416, Note_on_c, 0, 65, 76
2, 2416, Note_on_c, 0, 57, 69
2, 2416, Note_on_c, 0, 72, 55
2, 2416, Note_on_c, 0, 69, 83
2, 2428, Control_c, 0, 64, 24
2, 2444, Control_c, 0, 64, 0
2, 2448, Note_on_c, 0, 72, 0
2, 2456, Note_on_c, 0, 65, 0
2, 2464, Note_on_c, 0, 57, 0
2, 2468, Note_on_c, 0, 60, 0
2, 2468, Note_on_c, 0, 69, 0
2, 2476, Control_c, 0, 64, 56
2, 2492, Note_on_c, 0, 77, 0
2, 2492, Control_c, 0, 64, 127
2, 2692, Note_on_c, 0, 73, 76
2, 2692, Note_on_c, 0, 61, 65
2, 2692, Note_on_c, 0, 52, 71
2, 2692, Note_on_c, 0, 64, 59
2, 2692, Note_on_c, 0, 57, 58
2, 2692, Note_on_c, 0, 69, 59
2, 2716, Note_on_c, 0, 57, 0
2, 2720, Note_on_c, 0, 69, 0
2, 2724, Note_on_c, 0, 64, 0
2, 2728, Note_on_c, 0, 52, 0
2, 2736, Note_on_c, 0, 61, 0
2, 2760, Note_on_c, 0, 73, 0
2, 2780, Note_on_c, 0, 74, 96
2, 2780, Note_on_c, 0, 65, 72
2, 2780, Note_on_c, 0, 53, 71
2, 2780, Note_on_c, 0, 62, 53
2, 2780, Note_on_c, 0, 57, 57
2, 2784, Control_c, 0, 64, 24
2, 2800, Control_c, 0, 64, 0
2, 2812, Note_on_c, 0, 62, 0
2, 2816, Control_c, 0, 64, 56
2, 2824, Note_on_c, 0, 65, 0
2, 2828, Note_on_c, 0, 57, 0
2, 2832, Control_c, 0, 64, 127
2, 2840, Note_on_c, 0, 53, 0
2, 2848, Note_on_c, 0, 74, 0
2, 3048, Note_on_c, 0, 61, 65
2, 3052, Note_on_c, 0, 69, 78
2, 3052, Note_on_c, 0, 49, 73
2, 3052, Note_on_c, 0, 53, 75
2, 3052, Note_on_c, 0, 65, 60
2, 3052, Note_on_c, 0, 57, 73
2, 3080, Note_on_c, 0, 65, 0
2, 3092, Control_c, 0, 64, 104
2, 3100, Note_on_c, 0, 57, 0
2, 3104, Note_on_c, 0, 61, 0
2, 3108, Note_on_c, 0, 49, 0
2, 3108, Control_c, 0, 64, 40
2, 3112, Note_on_c, 0, 69, 0
2, 3112, Note_on_c, 0, 53, 0
2, 3124, Control_c, 0, 64, 88
2, 3128, Note_on_c, 0, 70, 91
2, 3128, Note_on_c, 0, 62, 86
2, 3128, Note_on_c, 0, 50, 64
2, 3128, Note_on_c, 0, 53, 57
2, 3128, Note_on_c, 0, 58, 67
2, 3140, Control_c, 0, 64, 127
2, 3156, Note_on_c, 0, 58, 0
2, 3156, Note_on_c, 0, 53, 0
2, 3180, Note_on_c, 0, 62, 0
2, 3184, Note_on_c, 0, 50, 0
2, 3224, Note_on_c, 0, 70, 0
2, 3404, Note_on_c, 0, 68, 82
2, 3404, Note_on_c, 0, 59, 63
2, 3404, Note_on_c, 0, 56, 60
2, 3404, Note_on_c, 0, 64, 66
2, 3404, Note_on_c, 0, 52, 53
2, 3404, Note_on_c, 0, 47, 63
2, 3436, Note_on_c, 0, 52, 0
2, 3440, Note_on_c, 0, 59, 0
2, 3444, Note_on_c, 0, 64, 0
2, 3464, Note_on_c, 0, 47, 0
2, 3468, Note_on_c, 0, 56, 0
2, 3476, Note_on_c, 0, 68, 0
2, 3500, Note_on_c, 0, 69, 94
2, 3500, Note_on_c, 0, 57, 82
2, 3500, Note_on_c, 0, 52, 74
2, 3500, Note_on_c, 0, 48, 85
2, 3516, Control_c, 0, 64, 104
2, 3528, Note_on_c, 0, 52, 0
2, 3528, Note_on_c, 0, 57, 0
2, 3528, Control_c, 0, 64, 24
2, 3552, Note_on_c, 0, 48, 0
2, 3568, Note_on_c, 0, 69, 0
2, 3576, Control_c, 0, 64, 127
2, 3804, Control_c, 0, 64, 40
2, 3820, Note_on_c, 0, 65, 82
2, 3820, Note_on_c, 0, 57, 61
2, 3820, Note_on_c, 0, 62, 66
2, 3820, Note_on_c, 0, 38, 68
2, 3820, Note_on_c, 0, 50, 81
2, 3836, Control_c, 0, 64, 127
2, 3848, Note_on_c, 0, 38, 0
2, 3852, Note_on_c, 0, 57, 0
2, 3864, Note_on_c, 0, 50, 0
2, 3864, Note_on_c, 0, 62, 0
2, 3884, Note_on_c, 0, 65, 0
2, 3924, Note_on_c, 0, 64, 100
2, 3924, Note_on_c, 0, 60, 84
2, 3924, Note_on_c, 0, 52, 89
2, 3924, Note_on_c, 0, 40, 78
2, 3924, Note_on_c, 0, 57, 74
2, 3948, Control_c, 0, 64, 56
2, 3952, Note_on_c, 0, 60, 0
2, 3960, Control_c, 0, 64, 0
2, 3964, Note_on_c, 0, 40, 0
2, 3972, Note_on_c, 0, 57, 0
2, 3976, Note_on_c, 0, 52, 0
2, 3976, Control_c, 0, 64, 56
2, 3992, Control_c, 0, 64, 104
2, 4008, Control_c, 0, 64, 127
2, 4020, Note_on_c, 0, 64, 0
2, 4208, Control_c, 0, 64, 88
2, 4228, Control_c, 0, 64, 0
2, 4384, Note_on_c, 0, 80, 87
2, 4388, Note_on_c, 0, 64, 63
2, 4388, Control_c, 0, 64, 56
2, 4392, Note_on_c, 0, 80, 97
2, 4392, Note_on_c, 0, 68, 85
2, 4392, Note_on_c, 0, 76, 83
2, 4392, Note_on_c, 0, 76, 78
2, 4392, Note_on_c, 0, 71, 70
2, 4392, Note_on_c, 0, 52, 56
2, 4392, Note_on_c, 0, 59, 53
2, 4404, Note_on_c, 0, 71, 82
2, 4408, Note_on_c, 0, 74, 77
2, 4408, Control_c, 0, 64, 104
2, 4412, Control_c, 0, 64, 127
2, 4416, Note_on_c, 0, 40, 73
2, 4416, Note_on_c, 0, 52, 83
2, 4424, Note_on_c, 0, 64, 0
2, 4424, Control_c, 0, 64, 127
2, 4432, Note_on_c, 0, 59, 0
2, 4436, Note_on_c, 0, 74, 0
2, 4460, Note_on_c, 0, 68, 0
2, 4460, Note_on_c, 0, 71, 0
2, 4460, Note_on_c, 0, 76, 0
2, 4464, Note_on_c, 0, 52, 0
2, 4468, Note_on_c, 0, 52, 0
2, 4468, Note_on_c, 0, 40, 0
2, 4472, Note_on_c, 0, 71, 0
2, 4476, Note_on_c, 0, 80, 0
2, 4480, Note_on_c, 0, 76, 0
2, 4504, Note_on_c, 0, 80, 0
2, 4700, Control_c, 0, 64, 104
2, 4712, Control_c, 0, 64, 40
2, 4732, Note_on_c, 0, 33, 74
2, 4736, Note_on_c, 0, 45, 76
2, 4764, Control_c, 0, 64, 127
2, 4844, Control_c, 0, 64, 24
2, 4860, Control_c, 0, 64, 0
2, 4944, Note_on_c, 0, 81, 100
2, 4948, Note_on_c, 0, 33, 0
2, 4952, Note_on_c, 0, 69, 90
2, 4956, Note_on_c, 0, 72, 88
2, 4956, Note_on_c, 0, 76, 89
2, 4964, Note_on_c, 0, 45, 0
2, 4964, Note_on_c, 0, 33, 79
2, 4968, Note_on_c, 0, 45, 88
2, 4968, Note_on_c, 0, 64, 60
2, 4972, Control_c, 0, 64, 56
2, 4976, Note_on_c, 0, 69, 68
2, 4984, Control_c, 0, 64, 127
2, 4984, Note_on_c, 0, 72, 77
2, 5000, Note_on_c, 0, 60, 62
2, 5008, Control_c, 0, 64, 104
2, 5012, Note_on_c, 0, 33, 0
2, 5012, Note_on_c, 0, 57, 48
2, 5020, Note_on_c, 0, 52, 42
2, 5024, Control_c, 0, 64, 24
2, 5040, Control_c, 0, 64, 0
2, 5084, Control_c, 0, 64, 72
2, 5104, Control_c, 0, 64, 127
2, 5164, Control_c, 0, 64, 56
2, 5180, Control_c, 0, 64, 0
2, 5256, Control_c, 0, 64, 104
2, 5272, Control_c, 0, 64, 127
2, 5720, Note_on_c, 0, 81, 0
2, 5728, Note_on_c, 0, 69, 0
2, 5732, Note_on_c, 0, 76, 0
2, 5740, Note_on_c, 0, 72, 0
2, 5744, Note_on_c, 0, 69, 0
2, 5748, Note_on_c, 0, 45, 0
2, 5756, Note_on_c, 0, 64, 0
2, 5768, Note_on_c, 0, 72, 0
2, 5772, Note_on_c, 0, 60, 0
2, 5796, Note_on_c, 0, 57, 0
2, 5800, Note_on_c, 0, 52, 0
2, 5960, Note_on_c, 0, 71, 70
2, 5960, Note_on_c, 0, 64, 49
2, 5960, Note_on_c, 0, 68, 49
2, 5960, Note_on_c, 0, 50, 44
2, 5960, Note_on_c, 0, 52, 40
2, 5960, Note_on_c, 0, 59, 41
2, 6052, Control_c, 0, 64, 104
2, 6072, Control_c, 0, 64, 88
2, 6084, Control_c, 0, 64, 72
2, 6092, Control_c, 0, 64, 88
2, 6100, Control_c, 0, 64, 56
2, 6108, Control_c, 0, 64, 24
2, 6116, Control_c, 0, 64, 40
2, 6124, Control_c, 0, 64, 0
2, 6132, Control_c, 0, 64, 24
2, 6148, Control_c, 0, 64, 0
2, 6280, Control_c, 0, 64, 40
2, 6296, Control_c, 0, 64, 127
2, 6320, Note_on_c, 0, 50, 0
2, 6352, Note_on_c, 0, 52, 0
2, 6356, Note_on_c, 0, 59, 0
2, 6404, Note_on_c, 0, 68, 0
2, 6416, Note_on_c, 0, 64, 0
2, 6448, Note_on_c, 0, 71, 0
2, 6724, Note_on_c, 0, 69, 64
2, 6724, Note_on_c, 0, 64, 39
2, 6724, Note_on_c, 0, 57, 41
2, 6724, Note_on_c, 0, 48, 48
2, 6724, Note_on_c, 0, 52, 44
2, 6724, Control_c, 0, 64, 72
2, 6760, Control_c, 0, 64, 0
2, 6780, Note_on_c, 0, 48, 0
2, 6792, Control_c, 0, 64, 24
2, 6804, Note_on_c, 0, 57, 0
2, 6804, Control_c, 0, 64, 72
2, 6812, Note_on_c, 0, 52, 0
2, 6820, Control_c, 0, 64, 127
2, 6828, Note_on_c, 0, 64, 0
2, 6844, Note_on_c, 0, 69, 0
2, 7052, Note_on_c, 0, 69, 64
2, 7052, Note_on_c, 0, 57, 43
2, 7052, Note_on_c, 0, 48, 43
2, 7052, Note_on_c, 0, 52, 38
2, 7052, Note_on_c, 0, 64, 39
2, 7176, Control_c, 0, 64, 104
2, 7192, Control_c, 0, 64, 56
2, 7208, Control_c, 0, 64, 0
2, 7408, Control_c, 0, 64, 40
2, 7428, Control_c, 0, 64, 104
2, 7440, Control_c, 0, 64, 127
2, 7536, Note_on_c, 0, 48, 0
2, 7552, Note_on_c, 0, 52, 0
2, 7560, Note_on_c, 0, 64, 0
2, 7568, Note_on_c, 0, 57, 0
2, 7600, Note_on_c, 0, 69, 0
2, 8288, Note_on_c, 0, 48, 58
2, 8288, Note_on_c, 0, 69, 62
2, 8288, Note_on_c, 0, 64, 51
2, 8288, Note_on_c, 0, 57, 50
2, 8308, Control_c, 0, 64, 56
2, 8324, Control_c, 0, 64, 24
2, 8356, Note_on_c, 0, 57, 0
2, 8356, Control_c, 0, 64, 72
2, 8368, Note_on_c, 0, 64, 0
2, 8368, Control_c, 0, 64, 127
2, 8396, Note_on_c, 0, 48, 0
2, 8404, Note_on_c, 0, 69, 0
2, 8528, Note_on_c, 0, 71, 73
2, 8536, Note_on_c, 0, 52, 58
2, 8540, Control_c, 0, 64, 72
2, 8548, Note_on_c, 0, 64, 56
2, 8548, Note_on_c, 0, 59, 39
2, 8556, Control_c, 0, 64, 56
2, 8572, Note_on_c, 0, 68, 19
2, 8572, Control_c, 0, 64, 88
2, 8576, Note_on_c, 0, 52, 0
2, 8588, Control_c, 0, 64, 127
2, 8600, Note_on_c, 0, 59, 0
2, 8600, Note_on_c, 0, 68, 0
2, 8608, Note_on_c, 0, 64, 0
2, 8612, Note_on_c, 0, 71, 0
2, 8752, Note_on_c, 0, 72, 88
2, 8756, Control_c, 0, 64, 56
2, 8768, Note_on_c, 0, 64, 66
2, 8776, Note_on_c, 0, 57, 50
2, 8776, Control_c, 0, 64, 0
2, 8780, Note_on_c, 0, 60, 48
2, 8792, Note_on_c, 0, 69, 52
2, 8816, Note_on_c, 0, 69, 0
2, 8820, Control_c, 0, 64, 40
2, 8832, Note_on_c, 0, 64, 0
2, 8832, Note_on_c, 0, 60, 0
2, 8836, Control_c, 0, 64, 127
2, 8848, Note_on_c, 0, 57, 0
2, 8852, Note_on_c, 0, 72, 0
2, 9096, Note_on_c, 0, 76, 85
2, 9108, Note_on_c, 0, 64, 51
2, 9112, Note_on_c, 0, 57, 47
2, 9112, Note_on_c, 0, 50, 46
2, 9112, Note_on_c, 0, 69, 58
2, 9124, Note_on_c, 0, 65, 51
2, 9224, Control_c, 0, 64, 104
2, 9240, Control_c, 0, 64, 40
2, 9256, Control_c, 0, 64, 0
2, 9376, Control_c, 0, 64, 72
2, 9392, Control_c, 0, 64, 127
2, 9648, Note_on_c, 0, 64, 0
2, 9664, Note_on_c, 0, 57, 0
2, 9668, Note_on_c, 0, 50, 0
2, 9668, Note_on_c, 0, 69, 0
2, 9708, Note_on_c, 0, 76, 0
2, 9712, Note_on_c, 0, 65, 0
2, 10044, Note_on_c, 0, 65, 41
2, 10044, Note_on_c, 0, 74, 67
2, 10044, Note_on_c, 0, 69, 44
2, 10048, Note_on_c, 0, 62, 40
2, 10052, Note_on_c, 0, 50, 49
2, 10064, Note_on_c, 0, 57, 41
2, 10152, Control_c, 0, 64, 104
2, 10168, Control_c, 0, 64, 40
2, 10184, Control_c, 0, 64, 0
2, 10308, Control_c, 0, 64, 104
2, 10324, Control_c, 0, 64, 127
2, 10376, Note_on_c, 0, 69, 0
2, 10384, Note_on_c, 0, 50, 0
2, 10392, Note_on_c, 0, 74, 0
2, 10400, Note_on_c, 0, 65, 0
2, 10400, Note_on_c, 0, 62, 0
2, 10412, Note_on_c, 0, 57, 0
2, 10716, Note_on_c, 0, 72, 77
2, 10716, Note_on_c, 0, 51, 54
2, 10716, Note_on_c, 0, 69, 51
2, 10716, Note_on_c, 0, 57, 48
2, 10716, Note_on_c, 0, 60, 52
2, 10716, Note_on_c, 0, 66, 48
2, 10740, Control_c, 0, 64, 88
2, 10744, Control_c, 0, 64, 24
2, 10760, Note_on_c, 0, 69, 0
2, 10764, Note_on_c, 0, 57, 0
2, 10772, Control_c, 0, 64, 0
2, 10780, Note_on_c, 0, 60, 0
2, 10788, Note_on_c, 0, 66, 0
2, 10788, Control_c, 0, 64, 40
2, 10796, Note_on_c, 0, 51, 0
2, 10804, Control_c, 0, 64, 72
2, 10820, Control_c, 0, 64, 127
2, 10832, Note_on_c, 0, 72, 0
2, 10980, Note_on_c, 0, 72, 70
2, 10980, Note_on_c, 0, 64, 49
2, 10980, Note_on_c, 0, 60, 48
2, 10980, Note_on_c, 0, 57, 49
2, 10980, Note_on_c, 0, 52, 50
2, 10980, Note_on_c, 0, 69, 50
2, 11084, Control_c, 0, 64, 104
2, 11100, Control_c, 0, 64, 24
2, 11112, Control_c, 0, 64, 0
2, 11268, Control_c, 0, 64, 88
2, 11284, Control_c, 0, 64, 127
2, 11504, Note_on_c, 0, 69, 0
2, 11532, Note_on_c, 0, 60, 0
2, 11568, Note_on_c, 0, 52, 0
2, 11604, Note_on_c, 0, 72, 0
2, 11604, Note_on_c, 0, 64, 0
2, 11616, Note_on_c, 0, 57, 0
2, 11920, Note_on_c, 0, 71, 64
2, 11920, Note_on_c, 0, 68, 47
2, 11920, Note_on_c, 0, 64, 49
2, 11920, Note_on_c, 0, 52, 52
2, 11920, Note_on_c, 0, 59, 47
2, 12012, Control_c, 0, 64, 24
2, 12028, Control_c, 0, 64, 0
2, 12084, Note_on_c, 0, 52, 0
2, 12104, Note_on_c, 0, 59, 0
2, 12120, Control_c, 0, 64, 104
2, 12128, Note_on_c, 0, 68, 0
2, 12136, Control_c, 0, 64, 127
2, 12148, Note_on_c, 0, 64, 0
2, 12148, Note_on_c, 0, 71, 0
2, 12404, Note_on_c, 0, 70, 67
2, 12404, Note_on_c, 0, 58, 48
2, 12404, Note_on_c, 0, 64, 48
2, 12404, Note_on_c, 0, 50, 50
2, 12404, Note_on_c, 0, 67, 51
2, 12448, Control_c, 0, 64, 104
2, 12460, Control_c, 0, 64, 0
2, 12540, Control_c, 0, 64, 72
2, 12544, Note_on_c, 0, 50, 0
2, 12556, Control_c, 0, 64, 127
2, 12612, Note_on_c, 0, 58, 0
2, 12616, Note_on_c, 0, 64, 0
2, 12688, Note_on_c, 0, 67, 0
2, 12744, Note_on_c, 0, 70, 0
2, 12904, Note_on_c, 0, 69, 66
2, 12904, Note_on_c, 0, 57, 47
2, 12904, Note_on_c, 0, 49, 53
2, 12904, Note_on_c, 0, 64, 46
2, 12904, Note_on_c, 0, 67, 47
2, 12984, Control_c, 0, 64, 88
2, 13004, Control_c, 0, 64, 0
2, 13056, Note_on_c, 0, 49, 0
2, 13064, Note_on_c, 0, 64, 0
2, 13068, Note_on_c, 0, 67, 0
2, 13080, Note_on_c, 0, 57, 0
2, 13080, Control_c, 0, 64, 72
2, 13096, Control_c, 0, 64, 127
2, 13136, Note_on_c, 0, 69, 0
2, 13224, Note_on_c, 0, 49, 42
2, 13264, Note_on_c, 0, 49, 0
2, 13292, Note_on_c, 0, 57, 48
2, 13408, Note_on_c, 0, 57, 0
2, 13444, Note_on_c, 0, 64, 51
2, 13460, Note_on_c, 0, 81, 82
2, 13484, Note_on_c, 0, 69, 57
2, 13484, Note_on_c, 0, 67, 52
2, 13496, Note_on_c, 0, 64, 0
2, 13868, Note_on_c, 0, 67, 0
2, 13916, Note_on_c, 0, 69, 0
2, 14072, Note_on_c, 0, 81, 0
2, 14168, Note_on_c, 0, 76, 59
2, 14208, Note_on_c, 0, 76, 0
2, 14244, Note_on_c, 0, 77, 68
2, 14308, Note_on_c, 0, 76, 82
2, 14320, Note_on_c, 0, 77, 0
2, 14468, Note_on_c, 0, 76, 0
2, 14496, Note_on_c, 0, 75, 77
2, 14664, Note_on_c, 0, 75, 0
2, 14704, Note_on_c, 0, 76, 83
2, 14972, Note_on_c, 0, 76, 0
2, 14992, Note_on_c, 0, 79, 79
2, 15092, Control_c, 0, 64, 56
2, 15108, Control_c, 0, 64, 0
2, 15144, Control_c, 0, 64, 40
2, 15156, Control_c, 0, 64, 104
2, 15172, Control_c, 0, 64, 127
2, 15216, Note_on_c, 0, 79, 0
2, 15520, Note_on_c, 0, 77, 72
2, 15520, Note_on_c, 0, 50, 50
2, 15520, Note_on_c, 0, 57, 48
2, 15520, Note_on_c, 0, 65, 47
2, 15520, Note_on_c, 0, 69, 51
2, 15684, Control_c, 0, 64, 72
2, 15700, Control_c, 0, 64, 0
2, 15840, Control_c, 0, 64, 88
2, 15856, Control_c, 0, 64, 127
2, 16052, Note_on_c, 0, 50, 0
2, 16084, Note_on_c, 0, 65, 0
2, 16112, Note_on_c, 0, 57, 0
2, 16156, Note_on_c, 0, 77, 0
2, 16156, Note_on_c, 0, 69, 0
2, 16452, Note_on_c, 0, 73, 64
2, 16452, Note_on_c, 0, 67, 49
2, 16452, Note_on_c, 0, 69, 51
2, 16452, Note_on_c, 0, 52, 42
2, 16452, Note_on_c, 0, 57, 42
2, 16600, Control_c, 0, 64, 104
2, 16612, Control_c, 0, 64, 24
2, 16628, Control_c, 0, 64, 0
2, 16768, Control_c, 0, 64, 127
2, 17048, Note_on_c, 0, 73, 0
2, 17100, Note_on_c, 0, 57, 0
2, 17136, Note_on_c, 0, 52, 0
2, 17136, Note_on_c, 0, 69, 0
2, 17172, Note_on_c, 0, 67, 0
2, 17264, Note_on_c, 0, 76, 69
2, 17340, Note_on_c, 0, 76, 0
2, 17392, Note_on_c, 0, 74, 70
2, 17392, Note_on_c, 0, 53, 50
2, 17392, Note_on_c, 0, 57, 45
2, 17392, Note_on_c, 0, 69, 61
2, 17528, Control_c, 0, 64, 56
2, 17540, Control_c, 0, 64, 0
2, 17648, Control_c, 0, 64, 56
2, 17664, Control_c, 0, 64, 127
2, 17732, Note_on_c, 0, 74, 0
2, 17736, Note_on_c, 0, 69, 0
2, 17888, Note_on_c, 0, 53, 0
2, 17960, Note_on_c, 0, 57, 0
2, 18052, Note_on_c, 0, 72, 74
2, 18116, Note_on_c, 0, 72, 0
2, 18224, Control_c, 0, 64, 104
2, 18240, Control_c, 0, 64, 0
2, 18272, Note_on_c, 0, 71, 72
2, 18272, Note_on_c, 0, 62, 51
2, 18272, Note_on_c, 0, 50, 56
2, 18272, Note_on_c, 0, 65, 52
2, 18324, Note_on_c, 0, 62, 0
2, 18332, Control_c, 0, 64, 72
2, 18344, Note_on_c, 0, 65, 0
2, 18348, Note_on_c, 0, 71, 0
2, 18352, Note_on_c, 0, 50, 0
2, 18352, Control_c, 0, 64, 127
2, 18440, Control_c, 0, 64, 104
2, 18456, Control_c, 0, 64, 24
2, 18472, Control_c, 0, 64, 0
2, 18492, Note_on_c, 0, 69, 74
2, 18504, Note_on_c, 0, 66, 45
2, 18508, Note_on_c, 0, 60, 45
2, 18520, Note_on_c, 0, 51, 53
2, 18548, Control_c, 0, 64, 56
2, 18564, Control_c, 0, 64, 127
2, 18580, Note_on_c, 0, 60, 0
2, 18588, Note_on_c, 0, 69, 0
2, 18592, Note_on_c, 0, 66, 0
2, 18596, Note_on_c, 0, 51, 0
2, 18760, Note_on_c, 0, 69, 67
2, 18760, Note_on_c, 0, 64, 42
2, 18760, Note_on_c, 0, 52, 55
2, 18760, Note_on_c, 0, 60, 36
2, 18828, Control_c, 0, 64, 104
2, 18844, Control_c, 0, 64, 56
2, 18860, Control_c, 0, 64, 0
2, 19060, Control_c, 0, 64, 56
2, 19076, Control_c, 0, 64, 104
2, 19092, Control_c, 0, 64, 127
2, 19396, Note_on_c, 0, 60, 0
2, 19480, Note_on_c, 0, 69, 0
2, 19532, Note_on_c, 0, 64, 0
2, 19724, Note_on_c, 0, 68, 46
2, 19724, Note_on_c, 0, 64, 37
2, 19724, Note_on_c, 0, 59, 40
2, 19836, Control_c, 0, 64, 72
2, 19848, Control_c, 0, 64, 0
2, 19960, Control_c, 0, 64, 56
2, 19976, Control_c, 0, 64, 127
2, 20092, Note_on_c, 0, 52, 0
2, 20148, Note_on_c, 0, 64, 0
2, 20164, Note_on_c, 0, 59, 0
2, 20172, Note_on_c, 0, 68, 0
2, 20508, Note_on_c, 0, 57, 58
2, 20508, Note_on_c, 0, 57, 48
2, 20508, Note_on_c, 0, 33, 50
2, 20508, Note_on_c, 0, 45, 44
2, 20628, Control_c, 0, 64, 88
2, 20644, Control_c, 0, 64, 24
2, 20656, Control_c, 0, 64, 0
2, 20876, Control_c, 0, 64, 24
2, 20888, Control_c, 0, 64, 56
2, 20892, Note_on_c, 0, 84, 78
2, 20896, Note_on_c, 0, 57, 0
2, 20900, Note_on_c, 0, 81, 56
2, 20908, Note_on_c, 0, 76, 49
2, 20908, Control_c, 0, 64, 88
2, 20912, Note_on_c, 0, 64, 40
2, 20924, Note_on_c, 0, 72, 42
2, 20924, Control_c, 0, 64, 127
2, 20932, Note_on_c, 0, 69, 30
2, 21044, Note_on_c, 0, 33, 0
2, 21068, Note_on_c, 0, 45, 0
2, 21176, Note_on_c, 0, 57, 0
2, 21204, Note_on_c, 0, 64, 0
2, 21224, Note_on_c, 0, 69, 0
2, 21228, Note_on_c, 0, 72, 0
2, 21276, Note_on_c, 0, 81, 0
2, 21280, Note_on_c, 0, 76, 0
2, 21292, Note_on_c, 0, 84, 0
2, 21836, Note_on_c, 0, 83, 68
2, 21836, Note_on_c, 0, 76, 45
2, 21836, Note_on_c, 0, 71, 32
2, 21836, Note_on_c, 0, 62, 38
2, 21836, Note_on_c, 0, 80, 37
2, 21836, Note_on_c, 0, 64, 39
2, 21836, Note_on_c, 0, 68, 38
2, 21968, Control_c, 0, 64, 72
2, 21984, Control_c, 0, 64, 0
2, 22068, Control_c, 0, 64, 104
2, 22084, Control_c, 0, 64, 56
2, 22100, Control_c, 0, 64, 40
2, 22104, Control_c, 0, 64, 72
2, 22116, Control_c, 0, 64, 24
2, 22120, Control_c, 0, 64, 127
2, 22128, Control_c, 0, 64, 0
2, 22536, Note_on_c, 0, 81, 62
2, 22536, Note_on_c, 0, 64, 39
2, 22536, Note_on_c, 0, 76, 39
2, 22536, Note_on_c, 0, 60, 39
2, 22536, Note_on_c, 0, 69, 40
2, 22572, Control_c, 0, 64, 88
2, 22588, Control_c, 0, 64, 0
2, 22604, Note_on_c, 0, 68, 0
2, 22604, Note_on_c, 0, 80, 0
2, 22608, Note_on_c, 0, 64, 0
2, 22608, Note_on_c, 0, 62, 0
2, 22608, Note_on_c, 0, 83, 0
2, 22620, Note_on_c, 0, 76, 0
2, 22628, Note_on_c, 0, 71, 0
2, 22632, Note_on_c, 0, 60, 0
2, 22632, Note_on_c, 0, 76, 0
2, 22632, Note_on_c, 0, 69, 0
2, 22644, Note_on_c, 0, 64, 0
2, 22648, Control_c, 0, 64, 40
2, 22668, Control_c, 0, 64, 104
2, 22680, Note_on_c, 0, 81, 0
2, 22680, Control_c, 0, 64, 127
2, 22896, Note_on_c, 0, 81, 59
2, 22924, Note_on_c, 0, 64, 38
2, 22924, Note_on_c, 0, 60, 38
2, 22932, Note_on_c, 0, 76, 36
2, 22932, Note_on_c, 0, 69, 21
2, 23048, Control_c, 0, 64, 104
2, 23068, Control_c, 0, 64, 56
2, 23084, Control_c, 0, 64, 0
2, 23284, Control_c, 0, 64, 56
2, 23296, Control_c, 0, 64, 88
2, 23316, Control_c, 0, 64, 127
2, 23344, Note_on_c, 0, 60, 0
2, 23372, Note_on_c, 0, 76, 0
2, 23380, Note_on_c, 0, 69, 0
2, 23388, Note_on_c, 0, 81, 0
2, 23396, Note_on_c, 0, 64, 0
2, 24160, Note_on_c, 0, 81, 63
2, 24160, Control_c, 0, 64, 88
2, 24176, Note_on_c, 0, 69, 36
2, 24176, Control_c, 0, 64, 24
2, 24188, Note_on_c, 0, 64, 44
2, 24188, Note_on_c, 0, 60, 27
2, 24192, Control_c, 0, 64, 0
2, 24204, Note_on_c, 0, 76, 24
2, 24208, Control_c, 0, 64, 24
2, 24224, Control_c, 0, 64, 56
2, 24240, Control_c, 0, 64, 104
2, 24252, Note_on_c, 0, 64, 0
2, 24252, Control_c, 0, 64, 127
2, 24280, Note_on_c, 0, 69, 0
2, 24300, Note_on_c, 0, 60, 0
2, 24328, Note_on_c, 0, 81, 0
2, 24332, Note_on_c, 0, 76, 0
2, 24452, Control_c, 0, 64, 40
2, 24460, Note_on_c, 0, 83, 74
2, 24468, Control_c, 0, 64, 0
2, 24476, Note_on_c, 0, 64, 44
2, 24480, Note_on_c, 0, 71, 42
2, 24480, Note_on_c, 0, 76, 48
2, 24488, Note_on_c, 0, 80, 34
2, 24520, Control_c, 0, 64, 72
2, 24532, Note_on_c, 0, 80, 0
2, 24532, Note_on_c, 0, 64, 0
2, 24532, Control_c, 0, 64, 127
2, 24536, Note_on_c, 0, 76, 0
2, 24556, Note_on_c, 0, 71, 0
2, 24556, Note_on_c, 0, 83, 0
2, 24716, Note_on_c, 0, 84, 83
2, 24732, Note_on_c, 0, 76, 62
2, 24732, Note_on_c, 0, 69, 56
2, 24732, Control_c, 0, 64, 40
2, 24736, Note_on_c, 0, 81, 64
2, 24736, Note_on_c, 0, 72, 49
2, 24748, Control_c, 0, 64, 0
2, 24788, Note_on_c, 0, 76, 0
2, 24796, Control_c, 0, 64, 88
2, 24808, Note_on_c, 0, 81, 0
2, 24808, Control_c, 0, 64, 127
2, 24816, Note_on_c, 0, 84, 0
2, 24816, Note_on_c, 0, 72, 0
2, 24836, Note_on_c, 0, 69, 0
2, 25048, Note_on_c, 0, 88, 82
2, 25056, Note_on_c, 0, 76, 37
2, 25060, Note_on_c, 0, 62, 36
2, 25060, Note_on_c, 0, 81, 55
2, 25068, Note_on_c, 0, 69, 44
2, 25072, Note_on_c, 0, 77, 48
2, 25196, Control_c, 0, 64, 104
2, 25216, Control_c, 0, 64, 24
2, 25228, Control_c, 0, 64, 0
2, 25352, Control_c, 0, 64, 88
2, 25368, Control_c, 0, 64, 127
2, 25724, Note_on_c, 0, 76, 0
2, 25788, Note_on_c, 0, 69, 0
2, 25820, Note_on_c, 0, 81, 0
2, 25832, Note_on_c, 0, 77, 0
2, 25856, Note_on_c, 0, 62, 0
2, 25896, Note_on_c, 0, 88, 0
2, 26076, Note_on_c, 0, 86, 70
2, 26084, Note_on_c, 0, 62, 47
2, 26092, Note_on_c, 0, 69, 46
2, 26096, Note_on_c, 0, 74, 45
2, 26104, Note_on_c, 0, 77, 47
2, 26112, Note_on_c, 0, 81, 41
2, 26252, Control_c, 0, 64, 72
2, 26268, Control_c, 0, 64, 0
2, 26376, Control_c, 0, 64, 88
2, 26392, Control_c, 0, 64, 127
2, 26432, Note_on_c, 0, 86, 0
2, 26448, Note_on_c, 0, 77, 0
2, 26452, Note_on_c, 0, 74, 0
2, 26468, Note_on_c, 0, 62, 0
2, 26468, Note_on_c, 0, 81, 0
2, 26496, Note_on_c, 0, 69, 0
2, 26820, Note_on_c, 0, 84, 81
2, 26828, Note_on_c, 0, 63, 44
2, 26832, Note_on_c, 0, 78, 55
2, 26844, Note_on_c, 0, 81, 52
2, 26852, Note_on_c, 0, 72, 38
2, 26852, Control_c, 0, 64, 72
2, 26868, Note_on_c, 0, 69, 35
2, 26872, Control_c, 0, 64, 0
2, 26892, Note_on_c, 0, 81, 0
2, 26912, Note_on_c, 0, 78, 0
2, 26916, Control_c, 0, 64, 24
2, 26932, Control_c, 0, 64, 88
2, 26944, Note_on_c, 0, 69, 0
2, 26948, Note_on_c, 0, 72, 0
2, 26948, Control_c, 0, 64, 127
2, 26956, Note_on_c, 0, 84, 0
2, 26960, Note_on_c, 0, 63, 0
2, 27144, Note_on_c, 0, 84, 75
2, 27168, Note_on_c, 0, 79, 58
2, 27172, Note_on_c, 0, 76, 52
2, 27172, Note_on_c, 0, 72, 42
2, 27172, Note_on_c, 0, 64, 45
2, 27188, Note_on_c, 0, 67, 41
2, 27336, Control_c, 0, 64, 72
2, 27352, Control_c, 0, 64, 0
2, 27460, Control_c, 0, 64, 72
2, 27476, Control_c, 0, 64, 127
2, 27816, Note_on_c, 0, 64, 0
2, 27828, Note_on_c, 0, 67, 0
2, 27916, Note_on_c, 0, 65, 47
2, 27952, Note_on_c, 0, 72, 0
2, 27984, Note_on_c, 0, 76, 0
2, 27988, Note_on_c, 0, 79, 0
2, 28032, Note_on_c, 0, 65, 0
2, 28036, Note_on_c, 0, 84, 0
2, 28196, Note_on_c, 0, 83, 73
2, 28216, Note_on_c, 0, 74, 44
2, 28216, Note_on_c, 0, 79, 52
2, 28216, Note_on_c, 0, 67, 34
2, 28224, Note_on_c, 0, 71, 36
2, 28268, Control_c, 0, 64, 72
2, 28284, Control_c, 0, 64, 0
2, 28376, Control_c, 0, 64, 72
2, 28388, Control_c, 0, 64, 127
2, 28444, Note_on_c, 0, 83, 0
2, 28468, Note_on_c, 0, 67, 0
2, 28468, Note_on_c, 0, 74, 0
2, 28476, Note_on_c, 0, 71, 0
2, 28480, Note_on_c, 0, 79, 0
2, 28744, Note_on_c, 0, 82, 73
2, 28756, Note_on_c, 0, 70, 40
2, 28768, Note_on_c, 0, 74, 44
2, 28772, Note_on_c, 0, 79, 47
2, 28772, Note_on_c, 0, 65, 35
2, 28784, Note_on_c, 0, 67, 38
2, 28808, Control_c, 0, 64, 104
2, 28824, Control_c, 0, 64, 24
2, 28840, Control_c, 0, 64, 0
2, 28868, Control_c, 0, 64, 40
2, 28884, Control_c, 0, 64, 104
2, 28900, Control_c, 0, 64, 127
2, 28920, Note_on_c, 0, 67, 0
2, 28984, Note_on_c, 0, 74, 0
2, 29052, Note_on_c, 0, 65, 0
2, 29088, Note_on_c, 0, 70, 0
2, 29120, Note_on_c, 0, 79, 0
2, 29196, Note_on_c, 0, 82, 0
2, 29292, Note_on_c, 0, 81, 68
2, 29292, Note_on_c, 0, 64, 41
2, 29292, Note_on_c, 0, 67, 41
2, 29292, Note_on_c, 0, 79, 44
2, 29292, Note_on_c, 0, 73, 47
2, 29292, Note_on_c, 0, 69, 43
2, 29352, Control_c, 0, 64, 104
2, 29368, Control_c, 0, 64, 0
2, 29452, Note_on_c, 0, 64, 0
2, 29460, Control_c, 0, 64, 88
2, 29476, Control_c, 0, 64, 127
2, 29504, Note_on_c, 0, 79, 0
2, 29508, Note_on_c, 0, 69, 0
2, 29520, Note_on_c, 0, 73, 0
2, 29528, Note_on_c, 0, 67, 0
2, 29576, Note_on_c, 0, 81, 0
2, 29692, Control_c, 0, 64, 72
2, 29700, Note_on_c, 0, 61, 48
2, 29708, Control_c, 0, 64, 88
2, 29724, Control_c, 0, 64, 127
2, 29776, Note_on_c, 0, 61, 0
2, 29784, Note_on_c, 0, 69, 60
2, 29864, Note_on_c, 0, 69, 0
2, 29888, Note_on_c, 0, 76, 45
2, 29932, Note_on_c, 0, 76, 0
2, 30004, Note_on_c, 0, 93, 92
2, 30024, Note_on_c, 0, 81, 58
2, 30028, Note_on_c, 0, 79, 64
2, 30488, Note_on_c, 0, 93, 0
2, 30504, Note_on_c, 0, 79, 0
2, 30560, Note_on_c, 0, 81, 0
2, 30748, Note_on_c, 0, 88, 63
2, 30780, Note_on_c, 0, 88, 0
2, 30816, Note_on_c, 0, 89, 58
2, 30868, Note_on_c, 0, 88, 82
2, 30880, Note_on_c, 0, 89, 0
2, 31084, Note_on_c, 0, 88, 0
2, 31108, Note_on_c, 0, 87, 74
2, 31288, Note_on_c, 0, 87, 0
2, 31336, Note_on_c, 0, 88, 82
2, 31628, Note_on_c, 0, 91, 82
2, 31636, Note_on_c, 0, 88, 0
2, 31716, Note_on_c, 0, 91, 0
2, 32208, Note_on_c, 0, 89, 74
2, 32224, Note_on_c, 0, 77, 55
2, 32232, Note_on_c, 0, 74, 33
2, 32244, Note_on_c, 0, 62, 39
2, 32260, Note_on_c, 0, 69, 29
2, 32356, Control_c, 0, 64, 56
2, 32368, Control_c, 0, 64, 0
2, 32496, Control_c, 0, 64, 127
2, 32680, Note_on_c, 0, 62, 0
2, 32724, Note_on_c, 0, 77, 0
2, 32728, Note_on_c, 0, 74, 0
2, 32736, Note_on_c, 0, 89, 0
2, 32752, Note_on_c, 0, 69, 0
2, 33228, Note_on_c, 0, 85, 64
2, 33228, Note_on_c, 0, 69, 44
2, 33228, Note_on_c, 0, 64, 47
2, 33228, Note_on_c, 0, 79, 44
2, 33408, Control_c, 0, 64, 88
2, 33424, Control_c, 0, 64, 0
2, 33532, Control_c, 0, 64, 56
2, 33548, Control_c, 0, 64, 127
2, 33784, Note_on_c, 0, 64, 0
2, 33796, Note_on_c, 0, 69, 0
2, 33968, Note_on_c, 0, 79, 0
2, 34020, Note_on_c, 0, 85, 0
2, 34076, Note_on_c, 0, 88, 70
2, 34168, Note_on_c, 0, 88, 0
2, 34212, Note_on_c, 0, 86, 70
2, 34216, Note_on_c, 0, 81, 60
2, 34244, Note_on_c, 0, 65, 41
2, 34260, Note_on_c, 0, 69, 24
2, 34276, Control_c, 0, 64, 56
2, 34292, Control_c, 0, 64, 0
2, 34368, Control_c, 0, 64, 72
2, 34384, Control_c, 0, 64, 127
2, 34448, Note_on_c, 0, 81, 0
2, 34448, Note_on_c, 0, 86, 0
2, 34604, Note_on_c, 0, 69, 0
2, 34632, Note_on_c, 0, 65, 0
2, 34904, Note_on_c, 0, 84, 70
2, 34968, Note_on_c, 0, 84, 0
2, 35096, Control_c, 0, 64, 104
2, 35112, Control_c, 0, 64, 0
2, 35132, Note_on_c, 0, 83, 63
2, 35148, Note_on_c, 0, 62, 49
2, 35156, Note_on_c, 0, 74, 50
2, 35164, Note_on_c, 0, 77, 39
2, 35188, Control_c, 0, 64, 40
2, 35204, Note_on_c, 0, 74, 0
2, 35204, Control_c, 0, 64, 104
2, 35208, Note_on_c, 0, 77, 0
2, 35212, Note_on_c, 0, 83, 0
2, 35220, Control_c, 0, 64, 127
2, 35224, Note_on_c, 0, 62, 0
2, 35296, Control_c, 0, 64, 56
2, 35316, Control_c, 0, 64, 0
2, 35380, Note_on_c, 0, 81, 66
2, 35380, Note_on_c, 0, 63, 48
2, 35380, Note_on_c, 0, 72, 47
2, 35380, Note_on_c, 0, 78, 50
2, 35424, Control_c, 0, 64, 104
2, 35436, Note_on_c, 0, 72, 0
2, 35436, Control_c, 0, 64, 127
2, 35460, Note_on_c, 0, 63, 0
2, 35464, Note_on_c, 0, 78, 0
2, 35468, Note_on_c, 0, 81, 0
2, 35640, Control_c, 0, 64, 88
2, 35652, Control_c, 0, 64, 0
2, 35660, Note_on_c, 0, 80, 58
2, 35660, Note_on_c, 0, 76, 44
2, 35660, Note_on_c, 0, 74, 44
2, 35660, Note_on_c, 0, 64, 47
2, 35796, Control_c, 0, 64, 72
2, 35812, Control_c, 0, 64, 127
2, 35832, Note_on_c, 0, 76, 0
2, 35836, Note_on_c, 0, 64, 0
2, 35848, Note_on_c, 0, 74, 0
2, 35920, Note_on_c, 0, 80, 0
2, 36268, Note_on_c, 0, 81, 50
2, 36284, Note_on_c, 0, 57, 33
2, 36284, Note_on_c, 0, 76, 31
2, 36288, Note_on_c, 0, 72, 29
2, 36292, Note_on_c, 0, 64, 29
2, 36352, Control_c, 0, 64, 72
2, 36368, Control_c, 0, 64, 0
2, 36492, Control_c, 0, 64, 88
2, 36508, Control_c, 0, 64, 127
2, 36604, Note_on_c, 0, 76, 0
2, 36608, Note_on_c, 0, 81, 0
2, 36612, Note_on_c, 0, 72, 0
2, 36620, Note_on_c, 0, 57, 0
2, 36632, Note_on_c, 0, 64, 0
2, 37456, Note_on_c, 0, 52, 33
2, 37456, Note_on_c, 0, 64, 55
2, 37464, Note_on_c, 0, 45, 40
2, 37568, Note_on_c, 0, 57, 45
2, 37644, Note_on_c, 0, 57, 0
2, 37652, Note_on_c, 0, 60, 32
2, 37708, Note_on_c, 0, 60, 0
2, 37716, Note_on_c, 0, 64, 35
2, 37780, Note_on_c, 0, 64, 0
2, 37792, Note_on_c, 0, 57, 27
2, 37832, Note_on_c, 0, 57, 0
2, 37844, Note_on_c, 0, 52, 0
2, 37848, Note_on_c, 0, 64, 0
2, 37864, Note_on_c, 0, 53, 48
2, 37864, Note_on_c, 0, 65, 57
2, 37896, Control_c, 0, 64, 104
2, 37904, Control_c, 0, 64, 72
2, 37912, Control_c, 0, 64, 24
2, 37920, Control_c, 0, 64, 0
2, 37944, Note_on_c, 0, 57, 41
2, 37996, Control_c, 0, 64, 72
2, 38004, Control_c, 0, 64, 127
2, 38016, Note_on_c, 0, 57, 0
2, 38016, Note_on_c, 0, 60, 41
2, 38088, Note_on_c, 0, 60, 0
2, 38096, Note_on_c, 0, 65, 44
2, 38144, Note_on_c, 0, 53, 0
2, 38152, Note_on_c, 0, 45, 0
2, 38184, Note_on_c, 0, 57, 42
2, 38188, Note_on_c, 0, 65, 0
2, 38216, Note_on_c, 0, 57, 0
2, 38260, Note_on_c, 0, 65, 0
2, 38276, Note_on_c, 0, 52, 46
2, 38284, Note_on_c, 0, 44, 28
2, 38288, Note_on_c, 0, 64, 55
2, 38320, Control_c, 0, 64, 104
2, 38328, Control_c, 0, 64, 72
2, 38336, Control_c, 0, 64, 24
2, 38344, Control_c, 0, 64, 0
2, 38356, Note_on_c, 0, 56, 44
2, 38412, Control_c, 0, 64, 24
2, 38420, Control_c, 0, 64, 72
2, 38424, Note_on_c, 0, 59, 39
2, 38428, Note_on_c, 0, 56, 0
2, 38428, Control_c, 0, 64, 88
2, 38436, Control_c, 0, 64, 127
2, 38488, Note_on_c, 0, 59, 0
2, 38500, Note_on_c, 0, 64, 33
2, 38552, Note_on_c, 0, 64, 0
2, 38552, Note_on_c, 0, 56, 35
2, 38620, Note_on_c, 0, 56, 0
2, 38628, Note_on_c, 0, 44, 0
2, 38648, Note_on_c, 0, 43, 47
2, 38664, Control_c, 0, 64, 104
2, 38676, Control_c, 0, 64, 88
2, 38680, Control_c, 0, 64, 56
2, 38688, Control_c, 0, 64, 0
2, 38692, Note_on_c, 0, 64, 0
2, 38740, Note_on_c, 0, 55, 53
2, 38760, Control_c, 0, 64, 24
2, 38764, Control_c, 0, 64, 72
2, 38772, Control_c, 0, 64, 104
2, 38780, Control_c, 0, 64, 127
2, 38808, Note_on_c, 0, 55, 0
2, 38812, Note_on_c, 0, 58, 34
2, 38880, Note_on_c, 0, 58, 0
2, 38900, Note_on_c, 0, 64, 42
2, 38956, Note_on_c, 0, 64, 0
2, 38972, Note_on_c, 0, 52, 0
2, 38972, Note_on_c, 0, 55, 38
2, 39004, Note_on_c, 0, 55, 0
2, 39040, Note_on_c, 0, 43, 0
2, 39064, Note_on_c, 0, 50, 46
2, 39064, Note_on_c, 0, 41, 36
2, 39064, Note_on_c, 0, 62, 55
2, 39088, Control_c, 0, 64, 88
2, 39096, Control_c, 0, 64, 56
2, 39104, Control_c, 0, 64, 24
2, 39112, Control_c, 0, 64, 0
2, 39148, Note_on_c, 0, 53, 50
2, 39188, Control_c, 0, 64, 40
2, 39196, Control_c, 0, 64, 88
2, 39204, Control_c, 0, 64, 104
2, 39212, Control_c, 0, 64, 127
2, 39224, Note_on_c, 0, 53, 0
2, 39228, Note_on_c, 0, 57, 34
2, 39280, Note_on_c, 0, 57, 0
2, 39288, Note_on_c, 0, 62, 38
2, 39364, Note_on_c, 0, 62, 0
2, 39376, Note_on_c, 0, 50, 0
2, 39376, Note_on_c, 0, 53, 40
2, 39404, Note_on_c, 0, 53, 0
2, 39456, Note_on_c, 0, 41, 0
2, 39468, Note_on_c, 0, 40, 39
2, 39468, Note_on_c, 0, 48, 39
2, 39468, Note_on_c, 0, 60, 54
2, 39488, Note_on_c, 0, 62, 0
2, 39504, Control_c, 0, 64, 104
2, 39512, Control_c, 0, 64, 88
2, 39520, Control_c, 0, 64, 72
2, 39528, Control_c, 0, 64, 24
2, 39536, Control_c, 0, 64, 0
2, 39548, Note_on_c, 0, 52, 48
2, 39620, Control_c, 0, 64, 40
2, 39624, Note_on_c, 0, 57, 39
2, 39628, Control_c, 0, 64, 56
2, 39632, Note_on_c, 0, 52, 0
2, 39636, Control_c, 0, 64, 88
2, 39652, Control_c, 0, 64, 104
2, 39676, Control_c, 0, 64, 127
2, 39692, Note_on_c, 0, 57, 0
2, 39700, Note_on_c, 0, 60, 42
2, 39776, Note_on_c, 0, 60, 0
2, 39784, Note_on_c, 0, 52, 45
2, 39828, Note_on_c, 0, 52, 0
2, 39860, Note_on_c, 0, 48, 0
2, 39876, Note_on_c, 0, 47, 55
2, 39876, Note_on_c, 0, 59, 54
2, 39876, Note_on_c, 0, 28, 45
2, 39888, Note_on_c, 0, 60, 0
2, 39920, Control_c, 0, 64, 88
2, 39928, Control_c, 0, 64, 72
2, 39936, Control_c, 0, 64, 24
2, 39944, Control_c, 0, 64, 0
2, 39968, Note_on_c, 0, 50, 46
2, 40020, Control_c, 0, 64, 40
2, 40028, Control_c, 0, 64, 72
2, 40036, Control_c, 0, 64, 88
2, 40040, Control_c, 0, 64, 104
2, 40052, Control_c, 0, 64, 127
2, 40060, Note_on_c, 0, 56, 37
2, 40064, Note_on_c, 0, 50, 0
2, 40108, Note_on_c, 0, 56, 0
2, 40112, Note_on_c, 0, 59, 38
2, 40132, Note_on_c, 0, 28, 0
2, 40204, Note_on_c, 0, 59, 0
2, 40204, Note_on_c, 0, 50, 39
2, 40248, Note_on_c, 0, 50, 0
2, 40288, Note_on_c, 0, 47, 0
2, 40292, Note_on_c, 0, 45, 56
2, 40292, Note_on_c, 0, 57, 50
2, 40308, Note_on_c, 0, 59, 0
2, 40320, Note_on_c, 0, 40, 0
2, 40328, Control_c, 0, 64, 104
2, 40336, Control_c, 0, 64, 88
2, 40344, Control_c, 0, 64, 72
2, 40352, Control_c, 0, 64, 56
2, 40360, Control_c, 0, 64, 24
2, 40364, Control_c, 0, 64, 0
2, 40368, Note_on_c, 0, 48, 41
2, 40440, Note_on_c, 0, 48, 0
2, 40440, Note_on_c, 0, 52, 44
2, 40444, Control_c, 0, 64, 56
2, 40452, Control_c, 0, 64, 72
2, 40460, Control_c, 0, 64, 104
2, 40476, Control_c, 0, 64, 127
2, 40516, Note_on_c, 0, 52, 0
2, 40536, Note_on_c, 0, 57, 40
2, 40556, Note_on_c, 0, 45, 0
2, 40604, Note_on_c, 0, 57, 0
2, 40616, Note_on_c, 0, 48, 42
2, 40636, Note_on_c, 0, 48, 0
2, 40736, Note_on_c, 0, 52, 58
2, 40740, Note_on_c, 0, 57, 0
2, 40744, Note_on_c, 0, 45, 44
2, 40744, Note_on_c, 0, 64, 56
2, 40752, Control_c, 0, 64, 104
2, 40776, Control_c, 0, 64, 72
2, 40788, Control_c, 0, 64, 56
2, 40796, Control_c, 0, 64, 40
2, 40804, Control_c, 0, 64, 24
2, 40812, Control_c, 0, 64, 0
2, 40844, Note_on_c, 0, 57, 44
2, 40908, Note_on_c, 0, 60, 42
2, 40928, Control_c, 0, 64, 40
2, 40936, Control_c, 0, 64, 72
2, 40940, Note_on_c, 0, 57, 0
2, 40944, Control_c, 0, 64, 88
2, 40960, Control_c, 0, 64, 104
2, 40984, Note_on_c, 0, 60, 0
2, 40984, Note_on_c, 0, 64, 49
2, 40988, Control_c, 0, 64, 127
2, 41048, Note_on_c, 0, 57, 40
2, 41088, Note_on_c, 0, 64, 0
2, 41088, Note_on_c, 0, 64, 0
2, 41108, Note_on_c, 0, 57, 0
2, 41132, Note_on_c, 0, 52, 0
2, 41144, Note_on_c, 0, 53, 56
2, 41144, Note_on_c, 0, 65, 57
2, 41168, Control_c, 0, 64, 104
2, 41176, Control_c, 0, 64, 88
2, 41184, Control_c, 0, 64, 56
2, 41188, Control_c, 0, 64, 24
2, 41200, Control_c, 0, 64, 0
2, 41244, Note_on_c, 0, 57, 41
2, 41276, Control_c, 0, 64, 24
2, 41284, Control_c, 0, 64, 72
2, 41288, Control_c, 0, 64, 88
2, 41300, Control_c, 0, 64, 127
2, 41312, Note_on_c, 0, 60, 46
2, 41324, Note_on_c, 0, 57, 0
2, 41380, Note_on_c, 0, 60, 0
2, 41388, Note_on_c, 0, 65, 38
2, 41404, Note_on_c, 0, 45, 0
2, 41452, Note_on_c, 0, 53, 0
2, 41460, Note_on_c, 0, 57, 38
2, 41468, Note_on_c, 0, 65, 0
2, 41504, Note_on_c, 0, 57, 0
2, 41536, Note_on_c, 0, 65, 0
2, 41552, Note_on_c, 0, 52, 58
2, 41552, Note_on_c, 0, 44, 43
2, 41552, Note_on_c, 0, 64, 55
2, 41592, Control_c, 0, 64, 104
2, 41596, Control_c, 0, 64, 72
2, 41604, Control_c, 0, 64, 40
2, 41612, Control_c, 0, 64, 0
2, 41632, Note_on_c, 0, 56, 37
2, 41684, Control_c, 0, 64, 40
2, 41692, Control_c, 0, 64, 72
2, 41696, Control_c, 0, 64, 104
2, 41700, Note_on_c, 0, 59, 38
2, 41704, Control_c, 0, 64, 127
2, 41716, Note_on_c, 0, 56, 0
2, 41764, Note_on_c, 0, 59, 0
2, 41772, Note_on_c, 0, 64, 39
2, 41828, Note_on_c, 0, 64, 0
2, 41836, Note_on_c, 0, 56, 38
2, 41896, Note_on_c, 0, 56, 0
2, 41924, Note_on_c, 0, 44, 0
2, 41936, Note_on_c, 0, 43, 43
2, 41968, Control_c, 0, 64, 104
2, 41976, Control_c, 0, 64, 88
2, 41984, Control_c, 0, 64, 72
2, 41992, Note_on_c, 0, 64, 0
2, 41992, Control_c, 0, 64, 40
2, 41996, Control_c, 0, 64, 0
2, 42028, Note_on_c, 0, 55, 45
2, 42076, Control_c, 0, 64, 40
2, 42084, Control_c, 0, 64, 72
2, 42092, Control_c, 0, 64, 104
2, 42100, Note_on_c, 0, 55, 0
2, 42100, Note_on_c, 0, 58, 30
2, 42100, Control_c, 0, 64, 127
2, 42180, Note_on_c, 0, 64, 35
2, 42220, Note_on_c, 0, 58, 0
2, 42248, Note_on_c, 0, 64, 0
2, 42256, Note_on_c, 0, 55, 35
2, 42272, Note_on_c, 0, 52, 0
2, 42292, Note_on_c, 0, 55, 0
2, 42348, Note_on_c, 0, 43, 0
2, 42360, Note_on_c, 0, 50, 51
2, 42360, Note_on_c, 0, 41, 45
2, 42360, Note_on_c, 0, 62, 55
2, 42400, Control_c, 0, 64, 88
2, 42408, Control_c, 0, 64, 72
2, 42412, Control_c, 0, 64, 24
2, 42420, Control_c, 0, 64, 0
2, 42448, Note_on_c, 0, 53, 45
2, 42484, Control_c, 0, 64, 24
2, 42492, Control_c, 0, 64, 56
2, 42500, Control_c, 0, 64, 88
2, 42504, Control_c, 0, 64, 127
2, 42528, Note_on_c, 0, 57, 31
2, 42532, Note_on_c, 0, 53, 0
2, 42588, Note_on_c, 0, 57, 0
2, 42600, Note_on_c, 0, 62, 37
2, 42676, Note_on_c, 0, 62, 0
2, 42676, Note_on_c, 0, 50, 0
2, 42680, Note_on_c, 0, 53, 37
2, 42716, Note_on_c, 0, 53, 0
2, 42760, Note_on_c, 0, 41, 0
2, 42768, Note_on_c, 0, 40, 42
2, 42768, Note_on_c, 0, 60, 53
2, 42772, Note_on_c, 0, 48, 46
2, 42800, Note_on_c, 0, 62, 0
2, 42808, Control_c, 0, 64, 88
2, 42812, Control_c, 0, 64, 72
2, 42824, Control_c, 0, 64, 24
2, 42832, Control_c, 0, 64, 0
2, 42864, Note_on_c, 0, 52, 48
2, 42900, Control_c, 0, 64, 24
2, 42908, Control_c, 0, 64, 56
2, 42916, Control_c, 0, 64, 88
2, 42924, Control_c, 0, 64, 104
2, 42928, Control_c, 0, 64, 127
2, 42944, Note_on_c, 0, 57, 39
2, 42948, Note_on_c, 0, 52, 0
2, 43016, Note_on_c, 0, 57, 0
2, 43020, Note_on_c, 0, 60, 42
2, 43108, Note_on_c, 0, 52, 41
2, 43136, Note_on_c, 0, 60, 0
2, 43148, Note_on_c, 0, 40, 0
2, 43156, Note_on_c, 0, 52, 0
2, 43176, Note_on_c, 0, 48, 0
2, 43192, Note_on_c, 0, 40, 39
2, 43192, Note_on_c, 0, 59, 53
2, 43192, Note_on_c, 0, 47, 47
2, 43192, Note_on_c, 0, 28, 46
2, 43212, Note_on_c, 0, 60, 0
2, 43244, Control_c, 0, 64, 104
2, 43252, Control_c, 0, 64, 72
2, 43260, Control_c, 0, 64, 40
2, 43268, Control_c, 0, 64, 0
2, 43296, Note_on_c, 0, 50, 51
2, 43328, Control_c, 0, 64, 40
2, 43336, Control_c, 0, 64, 72
2, 43344, Control_c, 0, 64, 104
2, 43352, Control_c, 0, 64, 127
2, 43380, Note_on_c, 0, 56, 43
2, 43388, Note_on_c, 0, 50, 0
2, 43444, Note_on_c, 0, 59, 42
2, 43448, Note_on_c, 0, 28, 0
2, 43472, Note_on_c, 0, 56, 0
2, 43496, Note_on_c, 0, 59, 0
2, 43512, Note_on_c, 0, 50, 40
2, 43560, Note_on_c, 0, 50, 0
2, 43572, Note_on_c, 0, 47, 0
2, 43604, Note_on_c, 0, 40, 0
2, 43616, Note_on_c, 0, 45, 54
2, 43616, Note_on_c, 0, 57, 50
2, 43632, Note_on_c, 0, 59, 0
2, 43636, Control_c, 0, 64, 104
2, 43644, Control_c, 0, 64, 72
2, 43652, Control_c, 0, 64, 24
2, 43660, Control_c, 0, 64, 0
2, 43676, Note_on_c, 0, 48, 36
2, 43720, Control_c, 0, 64, 40
2, 43732, Control_c, 0, 64, 88
2, 43740, Control_c, 0, 64, 104
2, 43744, Note_on_c, 0, 52, 42
2, 43744, Control_c, 0, 64, 127
2, 43748, Note_on_c, 0, 48, 0
2, 43808, Note_on_c, 0, 52, 0
2, 43832, Note_on_c, 0, 57, 38
2, 43868, Note_on_c, 0, 45, 0
2, 43896, Note_on_c, 0, 57, 0
2, 43912, Note_on_c, 0, 48, 42
2, 43928, Note_on_c, 0, 48, 0
2, 44028, Note_on_c, 0, 52, 63
2, 44032, Note_on_c, 0, 45, 52
2, 44032, Note_on_c, 0, 64, 54
2, 44036, Note_on_c, 0, 57, 0
2, 44084, Control_c, 0, 64, 104
2, 44092, Control_c, 0, 64, 88
2, 44096, Control_c, 0, 64, 56
2, 44108, Control_c, 0, 64, 0
2, 44124, Note_on_c, 0, 57, 42
2, 44188, Note_on_c, 0, 60, 46
2, 44200, Control_c, 0, 64, 56
2, 44208, Control_c, 0, 64, 88
2, 44216, Control_c, 0, 64, 127
2, 44228, Note_on_c, 0, 57, 0
2, 44256, Note_on_c, 0, 60, 0
2, 44260, Note_on_c, 0, 64, 52
2, 44320, Note_on_c, 0, 64, 0
2, 44340, Note_on_c, 0, 57, 40
2, 44392, Note_on_c, 0, 57, 0
2, 44420, Note_on_c, 0, 52, 0
2, 44420, Note_on_c, 0, 53, 63
2, 44420, Note_on_c, 0, 65, 60
2, 44444, Note_on_c, 0, 64, 0
2, 44452, Control_c, 0, 64, 104
2, 44460, Control_c, 0, 64, 72
2, 44468, Control_c, 0, 64, 24
2, 44476, Control_c, 0, 64, 0
2, 44528, Note_on_c, 0, 57, 43
2, 44540, Control_c, 0, 64, 24
2, 44548, Control_c, 0, 64, 56
2, 44552, Control_c, 0, 64, 104
2, 44560, Control_c, 0, 64, 127
2, 44596, Note_on_c, 0, 60, 46
2, 44600, Note_on_c, 0, 57, 0
2, 44668, Note_on_c, 0, 60, 0
2, 44668, Note_on_c, 0, 65, 46
2, 44732, Note_on_c, 0, 65, 0
2, 44744, Note_on_c, 0, 57, 45
2, 44788, Note_on_c, 0, 57, 0
2, 44820, Note_on_c, 0, 45, 0
2, 44824, Note_on_c, 0, 53, 0
2, 44848, Note_on_c, 0, 47, 54
2, 44848, Note_on_c, 0, 62, 50
2, 44848, Note_on_c, 0, 67, 63
2, 44852, Note_on_c, 0, 65, 0
2, 44892, Control_c, 0, 64, 88
2, 44900, Control_c, 0, 64, 56
2, 44908, Control_c, 0, 64, 0
2, 44916, Note_on_c, 0, 55, 52
2, 44976, Control_c, 0, 64, 56
2, 44984, Control_c, 0, 64, 88
2, 44992, Control_c, 0, 64, 127
2, 45000, Note_on_c, 0, 62, 45
2, 45012, Note_on_c, 0, 55, 0
2, 45056, Note_on_c, 0, 62, 0
2, 45060, Note_on_c, 0, 67, 54
2, 45128, Note_on_c, 0, 67, 0
2, 45144, Note_on_c, 0, 55, 47
2, 45196, Note_on_c, 0, 55, 0
2, 45236, Note_on_c, 0, 47, 0
2, 45248, Note_on_c, 0, 48, 59
2, 45248, Note_on_c, 0, 64, 59
2, 45268, Control_c, 0, 64, 104
2, 45276, Control_c, 0, 64, 88
2, 45284, Control_c, 0, 64, 56
2, 45292, Note_on_c, 0, 62, 0
2, 45292, Control_c, 0, 64, 24
2, 45300, Control_c, 0, 64, 0
2, 45312, Note_on_c, 0, 67, 0
2, 45320, Note_on_c, 0, 55, 49
2, 45364, Control_c, 0, 64, 24
2, 45368, Control_c, 0, 64, 56
2, 45376, Control_c, 0, 64, 88
2, 45384, Control_c, 0, 64, 104
2, 45392, Control_c, 0, 64, 127
2, 45396, Note_on_c, 0, 60, 42
2, 45420, Note_on_c, 0, 55, 0
2, 45460, Note_on_c, 0, 60, 0
2, 45468, Note_on_c, 0, 64, 40
2, 45532, Note_on_c, 0, 64, 0
2, 45544, Note_on_c, 0, 55, 36
2, 45568, Note_on_c, 0, 55, 0
2, 45580, Note_on_c, 0, 48, 0
2, 45668, Note_on_c, 0, 48, 47
2, 45668, Note_on_c, 0, 52, 44
2, 45668, Note_on_c, 0, 64, 52
2, 45692, Note_on_c, 0, 64, 0
2, 45700, Control_c, 0, 64, 104
2, 45708, Control_c, 0, 64, 88
2, 45724, Control_c, 0, 64, 72
2, 45732, Control_c, 0, 64, 56
2, 45740, Control_c, 0, 64, 40
2, 45748, Control_c, 0, 64, 0
2, 45796, Note_on_c, 0, 55, 46
2, 45852, Control_c, 0, 64, 56
2, 45860, Control_c, 0, 64, 104
2, 45864, Note_on_c, 0, 60, 38
2, 45868, Note_on_c, 0, 55, 0
2, 45872, Control_c, 0, 64, 127
2, 45932, Note_on_c, 0, 60, 0
2, 45940, Note_on_c, 0, 64, 31
2, 45972, Note_on_c, 0, 52, 0
2, 45984, Note_on_c, 0, 64, 0
2, 45988, Note_on_c, 0, 55, 37
2, 46032, Note_on_c, 0, 55, 0
2, 46068, Note_on_c, 0, 48, 0
2, 46080, Note_on_c, 0, 53, 38
2, 46084, Note_on_c, 0, 45, 36
2, 46084, Note_on_c, 0, 65, 54
2, 46104, Note_on_c, 0, 64, 0
2, 46136, Control_c, 0, 64, 88
2, 46148, Control_c, 0, 64, 40
2, 46156, Control_c, 0, 64, 0
2, 46168, Note_on_c, 0, 57, 38
2, 46224, Control_c, 0, 64, 56
2, 46228, Note_on_c, 0, 60, 43
2, 46232, Note_on_c, 0, 57, 0
2, 46232, Control_c, 0, 64, 88
2, 46236, Control_c, 0, 64, 104
2, 46248, Control_c, 0, 64, 127
2, 46296, Note_on_c, 0, 60, 0
2, 46300, Note_on_c, 0, 65, 41
2, 46360, Note_on_c, 0, 65, 0
2, 46376, Note_on_c, 0, 57, 36
2, 46424, Note_on_c, 0, 57, 0
2, 46444, Note_on_c, 0, 45, 0
2, 46464, Note_on_c, 0, 53, 0
2, 46468, Note_on_c, 0, 47, 45
2, 46468, Note_on_c, 0, 67, 57
2, 46468, Note_on_c, 0, 62, 44
2, 46500, Note_on_c, 0, 65, 0
2, 46500, Control_c, 0, 64, 104
2, 46508, Control_c, 0, 64, 72
2, 46516, Control_c, 0, 64, 40
2, 46520, Control_c, 0, 64, 0
2, 46540, Note_on_c, 0, 55, 43
2, 46584, Control_c, 0, 64, 40
2, 46592, Control_c, 0, 64, 72
2, 46600, Control_c, 0, 64, 104
2, 46608, Control_c, 0, 64, 127
2, 46616, Note_on_c, 0, 62, 38
2, 46644, Note_on_c, 0, 55, 0
2, 46676, Note_on_c, 0, 62, 0
2, 46676, Note_on_c, 0, 62, 0
2, 46680, Note_on_c, 0, 67, 41
2, 46740, Note_on_c, 0, 67, 0
2, 46768, Note_on_c, 0, 55, 50
2, 46820, Note_on_c, 0, 55, 0
2, 46852, Note_on_c, 0, 47, 0
2, 46872, Note_on_c, 0, 48, 46
2, 46872, Note_on_c, 0, 64, 52
2, 46892, Control_c, 0, 64, 104
2, 46900, Control_c, 0, 64, 72
2, 46908, Control_c, 0, 64, 40
2, 46916, Control_c, 0, 64, 0
2, 46964, Note_on_c, 0, 67, 0
2, 46964, Note_on_c, 0, 55, 40
2, 46992, Control_c, 0, 64, 24
2, 47000, Control_c, 0, 64, 56
2, 47008, Control_c, 0, 64, 88
2, 47016, Control_c, 0, 64, 104
2, 47024, Control_c, 0, 64, 127
2, 47044, Note_on_c, 0, 55, 0
2, 47044, Note_on_c, 0, 60, 38
2, 47108, Note_on_c, 0, 60, 0
2, 47120, Note_on_c, 0, 64, 31
2, 47192, Note_on_c, 0, 48, 0
2, 47204, Note_on_c, 0, 55, 36
2, 47208, Note_on_c, 0, 64, 0
2, 47208, Note_on_c, 0, 64, 0
2, 47240, Note_on_c, 0, 55, 0
2, 47308, Note_on_c, 0, 55, 42
2, 47308, Note_on_c, 0, 60, 56
2, 47312, Note_on_c, 0, 52, 44
2, 47332, Note_on_c, 0, 48, 40
2, 47336, Note_on_c, 0, 36, 47
2, 47364, Control_c, 0, 64, 104
2, 47372, Control_c, 0, 64, 72
2, 47376, Control_c, 0, 64, 24
2, 47384, Control_c, 0, 64, 0
2, 47420, Note_on_c, 0, 55, 47
2, 47440, Note_on_c, 0, 60, 0
2, 47440, Control_c, 0, 64, 24
2, 47448, Control_c, 0, 64, 72
2, 47456, Control_c, 0, 64, 127
2, 47484, Note_on_c, 0, 55, 0
2, 47484, Note_on_c, 0, 60, 49
2, 47488, Note_on_c, 0, 52, 0
2, 47504, Note_on_c, 0, 62, 58
2, 47512, Note_on_c, 0, 59, 53
2, 47548, Note_on_c, 0, 60, 0
2, 47548, Note_on_c, 0, 64, 43
2, 47608, Note_on_c, 0, 64, 0
2, 47616, Note_on_c, 0, 55, 44
2, 47640, Note_on_c, 0, 55, 0
2, 47676, Note_on_c, 0, 55, 0
2, 47684, Note_on_c, 0, 59, 0
2, 47704, Note_on_c, 0, 62, 0
2, 47708, Note_on_c, 0, 60, 48
2, 47708, Note_on_c, 0, 64, 63
2, 47808, Note_on_c, 0, 55, 45
2, 47860, Note_on_c, 0, 64, 0
2, 47876, Note_on_c, 0, 60, 52
2, 47904, Note_on_c, 0, 62, 61
2, 47904, Note_on_c, 0, 59, 52
2, 47904, Note_on_c, 0, 55, 44
2, 47920, Note_on_c, 0, 55, 0
2, 47920, Note_on_c, 0, 60, 0
2, 47940, Note_on_c, 0, 60, 0
2, 47944, Note_on_c, 0, 64, 47
2, 47984, Note_on_c, 0, 59, 0
2, 48012, Note_on_c, 0, 64, 0
2, 48020, Note_on_c, 0, 55, 48
2, 48032, Note_on_c, 0, 62, 0
2, 48072, Note_on_c, 0, 55, 0
2, 48104, Note_on_c, 0, 64, 69
2, 48104, Note_on_c, 0, 60, 51
2, 48104, Note_on_c, 0, 48, 49
2, 48120, Note_on_c, 0, 55, 0
2, 48220, Note_on_c, 0, 64, 0
2, 48232, Note_on_c, 0, 60, 0
2, 48236, Note_on_c, 0, 48, 0
2, 48240, Note_on_c, 0, 55, 49
2, 48272, Note_on_c, 0, 48, 0
2, 48296, Note_on_c, 0, 60, 52
2, 48296, Note_on_c, 0, 67, 62
2, 48296, Note_on_c, 0, 64, 54
2, 48296, Note_on_c, 0, 52, 54
2, 48304, Note_on_c, 0, 36, 0
2, 48324, Note_on_c, 0, 55, 0
2, 48336, Note_on_c, 0, 52, 0
2, 48360, Note_on_c, 0, 64, 52
2, 48364, Note_on_c, 0, 60, 0
2, 48420, Note_on_c, 0, 64, 0
2, 48432, Note_on_c, 0, 55, 32
2, 48464, Note_on_c, 0, 64, 0
2, 48468, Note_on_c, 0, 67, 0
2, 48484, Note_on_c, 0, 55, 0
2, 48540, Note_on_c, 0, 43, 40
2, 48540, Note_on_c, 0, 31, 38
2, 48540, Note_on_c, 0, 55, 38
2, 48540, Note_on_c, 0, 62, 59
2, 48540, Note_on_c, 0, 59, 47
2, 48540, Note_on_c, 0, 43, 48
2, 48576, Control_c, 0, 64, 104
2, 48588, Control_c, 0, 64, 72
2, 48596, Control_c, 0, 64, 40
2, 48604, Control_c, 0, 64, 0
2, 48632, Note_on_c, 0, 55, 47
2, 48680, Control_c, 0, 64, 72
2, 48688, Control_c, 0, 64, 127
2, 48716, Note_on_c, 0, 59, 44
2, 48724, Note_on_c, 0, 55, 0
2, 48748, Note_on_c, 0, 31, 0
2, 48772, Note_on_c, 0, 59, 0
2, 48780, Note_on_c, 0, 43, 0
2, 48780, Note_on_c, 0, 43, 0
2, 48788, Note_on_c, 0, 59, 0
2, 48788, Note_on_c, 0, 62, 54
2, 48796, Note_on_c, 0, 62, 0
2, 48812, Note_on_c, 0, 55, 0
2, 48848, Note_on_c, 0, 62, 0
2, 48856, Note_on_c, 0, 55, 54
2, 48876, Note_on_c, 0, 55, 0
2, 48956, Note_on_c, 0, 52, 52
2, 48960, Note_on_c, 0, 40, 46
2, 48976, Note_on_c, 0, 76, 66
2, 48980, Control_c, 0, 64, 104
2, 48984, Note_on_c, 0, 71, 49
2, 48988, Control_c, 0, 64, 72
2, 48996, Control_c, 0, 64, 24
2, 49000, Control_c, 0, 64, 0
2, 49004, Note_on_c, 0, 59, 40
2, 49004, Note_on_c, 0, 67, 40
2, 49032, Note_on_c, 0, 59, 52
2, 49072, Control_c, 0, 64, 40
2, 49080, Control_c, 0, 64, 104
2, 49088, Control_c, 0, 64, 127
2, 49108, Note_on_c, 0, 64, 51
2, 49124, Note_on_c, 0, 59, 0
2, 49172, Note_on_c, 0, 64, 0
2, 49172, Note_on_c, 0, 67, 57
2, 49172, Note_on_c, 0, 78, 71
2, 49180, Note_on_c, 0, 67, 0
2, 49188, Note_on_c, 0, 76, 0
2, 49188, Note_on_c, 0, 75, 67
2, 49208, Note_on_c, 0, 66, 26
2, 49232, Note_on_c, 0, 67, 0
2, 49236, Note_on_c, 0, 66, 0
2, 49240, Note_on_c, 0, 59, 52
2, 49312, Note_on_c, 0, 59, 0
2, 49332, Note_on_c, 0, 75, 0
2, 49356, Note_on_c, 0, 78, 0
2, 49372, Note_on_c, 0, 79, 70
2, 49376, Note_on_c, 0, 76, 65
2, 49392, Note_on_c, 0, 59, 0
2, 49408, Note_on_c, 0, 64, 27
2, 49472, Note_on_c, 0, 59, 52
2, 49528, Note_on_c, 0, 79, 0
2, 49532, Note_on_c, 0, 64, 58
2, 49556, Note_on_c, 0, 64, 0
2, 49560, Note_on_c, 0, 76, 0
2, 49564, Note_on_c, 0, 59, 0
2, 49564, Note_on_c, 0, 78, 71
2, 49568, Note_on_c, 0, 63, 48
2, 49596, Note_on_c, 0, 67, 58
2, 49600, Note_on_c, 0, 64, 0
2, 49624, Note_on_c, 0, 63, 0
2, 49640, Note_on_c, 0, 78, 0
2, 49660, Note_on_c, 0, 67, 0
2, 49676, Note_on_c, 0, 71, 0
2, 49676, Note_on_c, 0, 59, 47
2, 49736, Note_on_c, 0, 59, 0
2, 49744, Note_on_c, 0, 79, 77
2, 49752, Note_on_c, 0, 71, 39
2, 49760, Note_on_c, 0, 52, 57
2, 49764, Note_on_c, 0, 64, 54
2, 49848, Note_on_c, 0, 79, 0
2, 49880, Note_on_c, 0, 59, 48
2, 49888, Note_on_c, 0, 52, 0
2, 49900, Note_on_c, 0, 52, 0
2, 49908, Note_on_c, 0, 40, 0
2, 49940, Note_on_c, 0, 64, 55
2, 49944, Note_on_c, 0, 79, 67
2, 49948, Note_on_c, 0, 83, 82
2, 49956, Note_on_c, 0, 55, 44
2, 49972, Note_on_c, 0, 59, 0
2, 49984, Note_on_c, 0, 64, 0
2, 50000, Note_on_c, 0, 64, 0
2, 50004, Note_on_c, 0, 67, 54
2, 50008, Note_on_c, 0, 79, 0
2, 50048, Note_on_c, 0, 71, 0
2, 50060, Note_on_c, 0, 67, 0
2, 50064, Note_on_c, 0, 59, 43
2, 50124, Note_on_c, 0, 55, 0
2, 50128, Note_on_c, 0, 59, 0
2, 50128, Note_on_c, 0, 83, 0
2, 50180, Note_on_c, 0, 47, 59
2, 50180, Note_on_c, 0, 35, 44
2, 50180, Note_on_c, 0, 78, 77
2, 50180, Note_on_c, 0, 59, 58
2, 50180, Note_on_c, 0, 63, 43
2, 50180, Note_on_c, 0, 71, 54
2, 50200, Control_c, 0, 64, 104
2, 50212, Control_c, 0, 64, 56
2, 50220, Control_c, 0, 64, 0
2, 50284, Note_on_c, 0, 59, 43
2, 50312, Control_c, 0, 64, 72
2, 50320, Control_c, 0, 64, 127
2, 50356, Note_on_c, 0, 63, 44
2, 50372, Note_on_c, 0, 35, 0
2, 50392, Note_on_c, 0, 59, 0
2, 50412, Note_on_c, 0, 47, 0
2, 50416, Note_on_c, 0, 59, 0
2, 50424, Note_on_c, 0, 63, 0
2, 50424, Note_on_c, 0, 63, 0
2, 50428, Note_on_c, 0, 66, 46
2, 50448, Note_on_c, 0, 71, 0
2, 50456, Note_on_c, 0, 78, 0
2, 50492, Note_on_c, 0, 66, 0
2, 50500, Note_on_c, 0, 59, 42
2, 50528, Note_on_c, 0, 59, 0
2, 50600, Note_on_c, 0, 67, 66
2, 50644, Note_on_c, 0, 55, 60
2, 50648, Note_on_c, 0, 52, 45
2, 50680, Control_c, 0, 64, 104
2, 50696, Control_c, 0, 64, 88
2, 50704, Control_c, 0, 64, 56
2, 50712, Control_c, 0, 64, 24
2, 50716, Control_c, 0, 64, 0
2, 50732, Note_on_c, 0, 59, 48
2, 50796, Note_on_c, 0, 64, 44
2, 50804, Control_c, 0, 64, 72
2, 50812, Control_c, 0, 64, 104
2, 50816, Control_c, 0, 64, 127
2, 50824, Note_on_c, 0, 59, 0
2, 50860, Note_on_c, 0, 64, 0
2, 50864, Note_on_c, 0, 67, 41
2, 50920, Note_on_c, 0, 67, 0
2, 50928, Note_on_c, 0, 59, 44
2, 50940, Note_on_c, 0, 55, 0
2, 50976, Note_on_c, 0, 59, 0
2, 51020, Note_on_c, 0, 69, 65
2, 51032, Note_on_c, 0, 57, 55
2, 51036, Note_on_c, 0, 67, 0
2, 51088, Control_c, 0, 64, 88
2, 51096, Control_c, 0, 64, 56
2, 51104, Control_c, 0, 64, 0
2, 51124, Note_on_c, 0, 60, 49
2, 51164, Control_c, 0, 64, 40
2, 51172, Control_c, 0, 64, 88
2, 51180, Control_c, 0, 64, 127
2, 51188, Note_on_c, 0, 64, 48
2, 51200, Note_on_c, 0, 60, 0
2, 51256, Note_on_c, 0, 64, 0
2, 51264, Note_on_c, 0, 69, 49
2, 51316, Note_on_c, 0, 69, 0
2, 51320, Note_on_c, 0, 60, 52
2, 51376, Note_on_c, 0, 60, 0
2, 51396, Note_on_c, 0, 57, 0
2, 51416, Note_on_c, 0, 52, 0
2, 51416, Note_on_c, 0, 51, 62
2, 51416, Note_on_c, 0, 66, 47
2, 51416, Note_on_c, 0, 59, 47
2, 51416, Note_on_c, 0, 71, 69
2, 51448, Note_on_c, 0, 69, 0
2, 51456, Control_c, 0, 64, 104
2, 51464, Control_c, 0, 64, 72
2, 51472, Control_c, 0, 64, 40
2, 51480, Control_c, 0, 64, 0
2, 51488, Note_on_c, 0, 59, 42
2, 51540, Control_c, 0, 64, 24
2, 51548, Control_c, 0, 64, 72
2, 51556, Control_c, 0, 64, 104
2, 51564, Note_on_c, 0, 66, 38
2, 51564, Control_c, 0, 64, 127
2, 51588, Note_on_c, 0, 59, 0
2, 51628, Note_on_c, 0, 66, 0
2, 51640, Note_on_c, 0, 71, 41
2, 51704, Note_on_c, 0, 71, 0
2, 51712, Note_on_c, 0, 59, 39
2, 51736, Note_on_c, 0, 66, 0
2, 51764, Note_on_c, 0, 71, 0
2, 51772, Note_on_c, 0, 59, 0
2, 51812, Note_on_c, 0, 52, 52
2, 51812, Note_on_c, 0, 67, 61
2, 51812, Note_on_c, 0, 52, 48
2, 51812, Note_on_c, 0, 64, 43
2, 51816, Note_on_c, 0, 51, 0
2, 51856, Control_c, 0, 64, 104
2, 51864, Control_c, 0, 64, 88
2, 51872, Control_c, 0, 64, 56
2, 51880, Control_c, 0, 64, 24
2, 51888, Control_c, 0, 64, 0
2, 51900, Note_on_c, 0, 59, 42
2, 51956, Control_c, 0, 64, 40
2, 51964, Control_c, 0, 64, 72
2, 51972, Control_c, 0, 64, 88
2, 51980, Note_on_c, 0, 64, 43
2, 51980, Control_c, 0, 64, 104
2, 51988, Control_c, 0, 64, 127
2, 52016, Note_on_c, 0, 59, 0
2, 52028, Note_on_c, 0, 59, 0
2, 52044, Note_on_c, 0, 52, 0
2, 52048, Note_on_c, 0, 64, 0
2, 52064, Note_on_c, 0, 67, 36
2, 52120, Note_on_c, 0, 64, 0
2, 52124, Note_on_c, 0, 67, 0
2, 52136, Note_on_c, 0, 59, 43
2, 52144, Note_on_c, 0, 67, 0
2, 52164, Note_on_c, 0, 52, 0
2, 52192, Note_on_c, 0, 59, 0
2, 52232, Note_on_c, 0, 67, 65
2, 52248, Note_on_c, 0, 55, 54
2, 52256, Note_on_c, 0, 52, 39
2, 52288, Control_c, 0, 64, 88
2, 52296, Control_c, 0, 64, 56
2, 52304, Control_c, 0, 64, 0
2, 52340, Note_on_c, 0, 59, 39
2, 52364, Control_c, 0, 64, 24
2, 52372, Control_c, 0, 64, 72
2, 52380, Control_c, 0, 64, 104
2, 52388, Control_c, 0, 64, 127
2, 52408, Note_on_c, 0, 64, 39
2, 52420, Note_on_c, 0, 59, 0
2, 52464, Note_on_c, 0, 64, 0
2, 52468, Note_on_c, 0, 67, 38
2, 52528, Note_on_c, 0, 67, 0
2, 52540, Note_on_c, 0, 55, 0
2, 52540, Note_on_c, 0, 59, 36
2, 52580, Note_on_c, 0, 59, 0
2, 52632, Note_on_c, 0, 57, 46
2, 52640, Note_on_c, 0, 69, 62
2, 52664, Note_on_c, 0, 67, 0
2, 52672, Control_c, 0, 64, 104
2, 52680, Control_c, 0, 64, 56
2, 52688, Control_c, 0, 64, 0
2, 52724, Note_on_c, 0, 60, 36
2, 52760, Control_c, 0, 64, 40
2, 52764, Control_c, 0, 64, 72
2, 52772, Control_c, 0, 64, 104
2, 52780, Control_c, 0, 64, 127
2, 52800, Note_on_c, 0, 60, 0
2, 52800, Note_on_c, 0, 64, 35
2, 52844, Note_on_c, 0, 64, 0
2, 52864, Note_on_c, 0, 69, 36
2, 52916, Note_on_c, 0, 69, 0
2, 52924, Note_on_c, 0, 60, 38
2, 52968, Note_on_c, 0, 60, 0
2, 53016, Note_on_c, 0, 57, 0
2, 53020, Note_on_c, 0, 71, 71
2, 53020, Note_on_c, 0, 59, 41
2, 53020, Note_on_c, 0, 66, 49
2, 53024, Note_on_c, 0, 51, 53
2, 53028, Note_on_c, 0, 52, 0
2, 53032, Note_on_c, 0, 69, 0
2, 53056, Control_c, 0, 64, 88
2, 53064, Control_c, 0, 64, 56
2, 53072, Control_c, 0, 64, 24
2, 53080, Control_c, 0, 64, 0
2, 53088, Note_on_c, 0, 59, 28
2, 53136, Control_c, 0, 64, 24
2, 53144, Control_c, 0, 64, 56
2, 53148, Control_c, 0, 64, 88
2, 53156, Control_c, 0, 64, 104
2, 53164, Control_c, 0, 64, 127
2, 53172, Note_on_c, 0, 66, 34
2, 53200, Note_on_c, 0, 59, 0
2, 53232, Note_on_c, 0, 66, 0
2, 53252, Note_on_c, 0, 71, 22
2, 53304, Note_on_c, 0, 71, 0
2, 53308, Note_on_c, 0, 59, 33
2, 53384, Note_on_c, 0, 59, 0
2, 53384, Note_on_c, 0, 66, 0
2, 53400, Note_on_c, 0, 71, 0
2, 53424, Note_on_c, 0, 51, 0
2, 53444, Note_on_c, 0, 52, 36
2, 53444, Note_on_c, 0, 52, 50
2, 53444, Note_on_c, 0, 67, 60
2, 53448, Note_on_c, 0, 64, 44
2, 53468, Control_c, 0, 64, 104
2, 53476, Control_c, 0, 64, 72
2, 53480, Control_c, 0, 64, 56
2, 53488, Control_c, 0, 64, 0
2, 53528, Note_on_c, 0, 59, 42
2, 53560, Control_c, 0, 64, 24
2, 53564, Control_c, 0, 64, 56
2, 53572, Control_c, 0, 64, 88
2, 53580, Control_c, 0, 64, 127
2, 53608, Note_on_c, 0, 64, 36
2, 53640, Note_on_c, 0, 59, 0
2, 53640, Note_on_c, 0, 59, 0
2, 53656, Note_on_c, 0, 64, 0
2, 53672, Note_on_c, 0, 67, 0
2, 53672, Note_on_c, 0, 64, 0
2, 53680, Note_on_c, 0, 67, 36
2, 53700, Note_on_c, 0, 52, 0
2, 53744, Note_on_c, 0, 52, 0
2, 53752, Note_on_c, 0, 67, 0
2, 53760, Note_on_c, 0, 59, 40
2, 53824, Note_on_c, 0, 59, 0
2, 53860, Note_on_c, 0, 64, 60
2, 53868, Note_on_c, 0, 59, 41
2, 53880, Note_on_c, 0, 55, 42
2, 53896, Note_on_c, 0, 52, 46
2, 53896, Note_on_c, 0, 40, 38
2, 53924, Note_on_c, 0, 59, 0
2, 53952, Control_c, 0, 64, 104
2, 53960, Control_c, 0, 64, 88
2, 53964, Control_c, 0, 64, 56
2, 53972, Control_c, 0, 64, 24
2, 53980, Control_c, 0, 64, 0
2, 53984, Note_on_c, 0, 59, 45
2, 54052, Note_on_c, 0, 64, 45
2, 54056, Note_on_c, 0, 64, 0
2, 54056, Note_on_c, 0, 66, 63
2, 54064, Note_on_c, 0, 59, 44
2, 54072, Note_on_c, 0, 59, 0
2, 54072, Control_c, 0, 64, 40
2, 54076, Note_on_c, 0, 63, 49
2, 54080, Control_c, 0, 64, 104
2, 54088, Control_c, 0, 64, 127
2, 54112, Note_on_c, 0, 55, 0
2, 54116, Note_on_c, 0, 64, 0
2, 54116, Note_on_c, 0, 67, 41
2, 54148, Note_on_c, 0, 59, 0
2, 54180, Note_on_c, 0, 67, 0
2, 54184, Note_on_c, 0, 59, 36
2, 54244, Note_on_c, 0, 59, 0
2, 54256, Note_on_c, 0, 63, 0
2, 54268, Note_on_c, 0, 66, 0
2, 54268, Note_on_c, 0, 67, 68
2, 54268, Note_on_c, 0, 64, 57
2, 54428, Note_on_c, 0, 59, 46
2, 54440, Note_on_c, 0, 64, 0
2, 54452, Note_on_c, 0, 66, 66
2, 54452, Note_on_c, 0, 59, 48
2, 54452, Note_on_c, 0, 63, 45
2, 54476, Note_on_c, 0, 64, 48
2, 54480, Note_on_c, 0, 67, 0
2, 54520, Note_on_c, 0, 59, 0
2, 54540, Note_on_c, 0, 64, 0
2, 54540, Note_on_c, 0, 67, 51
2, 54544, Note_on_c, 0, 63, 0
2, 54608, Note_on_c, 0, 66, 0
2, 54616, Note_on_c, 0, 67, 0
2, 54620, Note_on_c, 0, 59, 40
2, 54652, Note_on_c, 0, 59, 0
2, 54656, Note_on_c, 0, 67, 74
2, 54664, Note_on_c, 0, 64, 46
2, 54664, Note_on_c, 0, 52, 44
2, 54692, Note_on_c, 0, 59, 0
2, 54800, Note_on_c, 0, 67, 0
2, 54820, Note_on_c, 0, 59, 44
2, 54824, Note_on_c, 0, 64, 0
2, 54852, Note_on_c, 0, 71, 71
2, 54852, Note_on_c, 0, 55, 53
2, 54852, Note_on_c, 0, 67, 57
2, 54860, Note_on_c, 0, 52, 0
2, 54872, Note_on_c, 0, 52, 0
2, 54880, Note_on_c, 0, 64, 51
2, 54884, Note_on_c, 0, 40, 0
2, 54892, Note_on_c, 0, 55, 0
2, 54920, Note_on_c, 0, 59, 0
2, 54944, Note_on_c, 0, 64, 0
2, 54952, Note_on_c, 0, 67, 42
2, 54956, Note_on_c, 0, 67, 0
2, 55004, Note_on_c, 0, 67, 0
2, 55020, Note_on_c, 0, 59, 43
2, 55056, Note_on_c, 0, 71, 0
2, 55068, Note_on_c, 0, 59, 0
2, 55072, Note_on_c, 0, 47, 56
2, 55072, Note_on_c, 0, 35, 56
2, 55072, Note_on_c, 0, 59, 45
2, 55072, Note_on_c, 0, 66, 64
2, 55076, Note_on_c, 0, 63, 47
2, 55076, Note_on_c, 0, 47, 40
2, 55176, Control_c, 0, 64, 72
2, 55184, Control_c, 0, 64, 0
2, 55220, Note_on_c, 0, 59, 49
2, 55252, Control_c, 0, 64, 56
2, 55260, Note_on_c, 0, 35, 0
2, 55260, Control_c, 0, 64, 104
2, 55268, Control_c, 0, 64, 127
2, 55288, Note_on_c, 0, 47, 0
2, 55296, Note_on_c, 0, 63, 0
2, 55300, Note_on_c, 0, 63, 48
2, 55312, Note_on_c, 0, 47, 0
2, 55324, Note_on_c, 0, 66, 0
2, 55332, Note_on_c, 0, 59, 0
2, 55340, Note_on_c, 0, 59, 0
2, 55368, Note_on_c, 0, 66, 45
2, 55372, Note_on_c, 0, 63, 0
2, 55444, Note_on_c, 0, 66, 0
2, 55448, Note_on_c, 0, 59, 44
2, 55468, Note_on_c, 0, 59, 0
2, 55504, Note_on_c, 0, 79, 73
2, 55524, Note_on_c, 0, 74, 41
2, 55528, Note_on_c, 0, 59, 33
2, 55532, Note_on_c, 0, 67, 31
2, 55548, Note_on_c, 0, 55, 56
2, 55560, Note_on_c, 0, 43, 42
2, 55568, Control_c, 0, 64, 88
2, 55576, Control_c, 0, 64, 40
2, 55584, Control_c, 0, 64, 0
2, 55628, Note_on_c, 0, 62, 55
2, 55652, Control_c, 0, 64, 72
2, 55660, Control_c, 0, 64, 127
2, 55692, Note_on_c, 0, 67, 52
2, 55696, Note_on_c, 0, 62, 0
2, 55708, Note_on_c, 0, 67, 0
2, 55712, Note_on_c, 0, 79, 0
2, 55712, Note_on_c, 0, 59, 0
2, 55720, Note_on_c, 0, 81, 71
2, 55720, Note_on_c, 0, 66, 33
2, 55732, Note_on_c, 0, 62, 43
2, 55760, Note_on_c, 0, 67, 0
2, 55760, Note_on_c, 0, 71, 58
2, 55828, Note_on_c, 0, 71, 0
2, 55836, Note_on_c, 0, 62, 43
2, 55892, Note_on_c, 0, 62, 0
2, 55904, Note_on_c, 0, 81, 0
2, 55924, Note_on_c, 0, 66, 0
2, 55924, Note_on_c, 0, 83, 70
2, 55932, Note_on_c, 0, 62, 0
2, 55932, Note_on_c, 0, 79, 61
2, 55948, Note_on_c, 0, 67, 43
2, 55960, Note_on_c, 0, 74, 0
2, 56044, Note_on_c, 0, 62, 45
2, 56076, Note_on_c, 0, 83, 0
2, 56104, Note_on_c, 0, 67, 49
2, 56116, Note_on_c, 0, 81, 74
2, 56120, Note_on_c, 0, 79, 0
2, 56124, Note_on_c, 0, 66, 37
2, 56128, Note_on_c, 0, 67, 0
2, 56136, Note_on_c, 0, 62, 42
2, 56140, Note_on_c, 0, 62, 0
2, 56140, Note_on_c, 0, 74, 45
2, 56172, Note_on_c, 0, 71, 59
2, 56176, Note_on_c, 0, 67, 0
2, 56180, Note_on_c, 0, 62, 0
2, 56180, Note_on_c, 0, 66, 0
2, 56200, Note_on_c, 0, 81, 0
2, 56248, Note_on_c, 0, 71, 0
2, 56252, Note_on_c, 0, 62, 44
2, 56312, Note_on_c, 0, 83, 79
2, 56320, Note_on_c, 0, 62, 0
2, 56332, Note_on_c, 0, 55, 42
2, 56332, Note_on_c, 0, 67, 28
2, 56340, Note_on_c, 0, 79, 28
2, 56360, Note_on_c, 0, 79, 0
2, 56424, Note_on_c, 0, 74, 0
2, 56444, Note_on_c, 0, 83, 0
2, 56456, Note_on_c, 0, 62, 52
2, 56492, Note_on_c, 0, 55, 0
2, 56508, Note_on_c, 0, 86, 83
2, 56520, Note_on_c, 0, 83, 68
2, 56520, Note_on_c, 0, 59, 44
2, 56524, Note_on_c, 0, 67, 0
2, 56528, Note_on_c, 0, 67, 52
2, 56540, Note_on_c, 0, 55, 0
2, 56564, Note_on_c, 0, 43, 0
2, 56564, Note_on_c, 0, 62, 0
2, 56592, Note_on_c, 0, 67, 0
2, 56592, Note_on_c, 0, 71, 60
2, 56656, Note_on_c, 0, 71, 0
2, 56664, Note_on_c, 0, 62, 46
2, 56712, Note_on_c, 0, 62, 0
2, 56712, Note_on_c, 0, 59, 0
2, 56720, Note_on_c, 0, 83, 0
2, 56732, Note_on_c, 0, 86, 0
2, 56736, Note_on_c, 0, 50, 49
2, 56736, Note_on_c, 0, 38, 56
2, 56736, Note_on_c, 0, 81, 72
2, 56736, Note_on_c, 0, 66, 50
2, 56736, Note_on_c, 0, 74, 53
2, 56736, Note_on_c, 0, 62, 58
2, 56800, Control_c, 0, 64, 88
2, 56804, Control_c, 0, 64, 56
2, 56816, Control_c, 0, 64, 0
2, 56868, Note_on_c, 0, 62, 48
2, 56884, Control_c, 0, 64, 56
2, 56892, Control_c, 0, 64, 127
2, 56944, Note_on_c, 0, 66, 46
2, 56952, Note_on_c, 0, 50, 0
2, 56956, Note_on_c, 0, 62, 0
2, 56960, Note_on_c, 0, 62, 0
2, 56964, Note_on_c, 0, 74, 0
2, 56968, Note_on_c, 0, 38, 0
2, 56968, Note_on_c, 0, 66, 0
2, 56968, Note_on_c, 0, 81, 0
2, 57004, Note_on_c, 0, 66, 0
2, 57008, Note_on_c, 0, 69, 51
2, 57076, Note_on_c, 0, 69, 0
2, 57084, Note_on_c, 0, 62, 42
2, 57124, Note_on_c, 0, 62, 0
2, 57208, Note_on_c, 0, 67, 68
2, 57228, Note_on_c, 0, 62, 35
2, 57268, Note_on_c, 0, 67, 53
2, 57272, Note_on_c, 0, 59, 39
2, 57280, Note_on_c, 0, 43, 31
2, 57284, Note_on_c, 0, 31, 31
2, 57292, Control_c, 0, 64, 88
2, 57300, Control_c, 0, 64, 24
2, 57304, Control_c, 0, 64, 0
2, 57344, Control_c, 0, 64, 40
2, 57352, Control_c, 0, 64, 104
2, 57360, Control_c, 0, 64, 127
2, 57364, Note_on_c, 0, 59, 0
2, 57432, Note_on_c, 0, 67, 0
2, 57436, Note_on_c, 0, 69, 70
2, 57440, Note_on_c, 0, 66, 44
2, 57444, Note_on_c, 0, 67, 0
2, 57456, Note_on_c, 0, 62, 46
2, 57456, Note_on_c, 0, 69, 60
2, 57544, Note_on_c, 0, 62, 0
2, 57576, Note_on_c, 0, 66, 0
2, 57604, Note_on_c, 0, 62, 0
2, 57604, Note_on_c, 0, 69, 0
2, 57612, Note_on_c, 0, 69, 0
2, 57648, Note_on_c, 0, 71, 66
2, 57648, Note_on_c, 0, 67, 49
2, 57804, Note_on_c, 0, 67, 0
2, 57840, Note_on_c, 0, 71, 0
2, 57848, Note_on_c, 0, 69, 69
2, 57848, Note_on_c, 0, 62, 48
2, 57852, Note_on_c, 0, 31, 0
2, 57876, Note_on_c, 0, 43, 0
2, 58024, Note_on_c, 0, 62, 0
2, 58028, Note_on_c, 0, 69, 0
2, 58036, Note_on_c, 0, 71, 68
2, 58040, Note_on_c, 0, 67, 60
2, 58100, Note_on_c, 0, 67, 0
2, 58112, Note_on_c, 0, 71, 0
2, 58232, Note_on_c, 0, 76, 77
2, 58232, Note_on_c, 0, 70, 59
2, 58232, Note_on_c, 0, 67, 51
2, 58232, Note_on_c, 0, 61, 60
2, 58328, Note_on_c, 0, 76, 0
2, 58356, Note_on_c, 0, 70, 0
2, 58416, Note_on_c, 0, 67, 0
2, 58424, Note_on_c, 0, 61, 0
2, 58424, Control_c, 0, 64, 0
2, 58440, Note_on_c, 0, 69, 70
2, 58440, Note_on_c, 0, 62, 59
2, 58440, Note_on_c, 0, 66, 49
2, 58576, Control_c, 0, 64, 40
2, 58588, Control_c, 0, 64, 56
2, 58592, Note_on_c, 0, 66, 0
2, 58600, Control_c, 0, 64, 72
2, 58628, Note_on_c, 0, 69, 0
2, 58632, Note_on_c, 0, 68, 65
2, 58632, Note_on_c, 0, 65, 54
2, 58632, Control_c, 0, 64, 88
2, 58644, Control_c, 0, 64, 104
2, 58672, Control_c, 0, 64, 127
2, 58736, Note_on_c, 0, 68, 0
2, 58792, Note_on_c, 0, 65, 0
2, 58816, Note_on_c, 0, 69, 71
2, 58816, Note_on_c, 0, 66, 51
2, 58840, Note_on_c, 0, 66, 0
2, 58872, Note_on_c, 0, 69, 0
2, 58980, Control_c, 0, 64, 72
2, 58992, Note_on_c, 0, 62, 0
2, 58992, Control_c, 0, 64, 24
2, 59004, Note_on_c, 0, 68, 62
2, 59004, Note_on_c, 0, 74, 78
2, 59004, Control_c, 0, 64, 0
2, 59012, Note_on_c, 0, 65, 56
2, 59020, Note_on_c, 0, 59, 44
2, 59068, Note_on_c, 0, 65, 0
2, 59084, Note_on_c, 0, 68, 0
2, 59084, Control_c, 0, 64, 40
2, 59100, Control_c, 0, 64, 88
2, 59112, Control_c, 0, 64, 104
2, 59124, Control_c, 0, 64, 127
2, 59136, Note_on_c, 0, 74, 0
2, 59180, Control_c, 0, 64, 56
2, 59192, Control_c, 0, 64, 0
2, 59212, Note_on_c, 0, 59, 0
2, 59216, Note_on_c, 0, 67, 71
2, 59216, Note_on_c, 0, 60, 57
2, 59216, Note_on_c, 0, 64, 50
2, 59248, Note_on_c, 0, 64, 0
2, 59284, Note_on_c, 0, 67, 0
2, 59300, Control_c, 0, 64, 56
2, 59316, Control_c, 0, 64, 88
2, 59328, Control_c, 0, 64, 104
2, 59340, Control_c, 0, 64, 127
2, 59404, Note_on_c, 0, 66, 67
2, 59420, Note_on_c, 0, 63, 48
2, 59456, Note_on_c, 0, 63, 0
2, 59484, Note_on_c, 0, 66, 0
2, 59612, Note_on_c, 0, 67, 67
2, 59624, Note_on_c, 0, 64, 50
2, 59656, Note_on_c, 0, 64, 0
2, 59692, Note_on_c, 0, 67, 0
2, 59756, Control_c, 0, 64, 88
2, 59772, Control_c, 0, 64, 40
2, 59784, Control_c, 0, 64, 0
2, 59788, Note_on_c, 0, 60, 0
2, 59804, Note_on_c, 0, 72, 73
2, 59812, Note_on_c, 0, 63, 48
2, 59812, Note_on_c, 0, 69, 59
2, 59816, Note_on_c, 0, 54, 59
2, 59864, Control_c, 0, 64, 24
2, 59880, Control_c, 0, 64, 56
2, 59892, Control_c, 0, 64, 88
2, 59908, Note_on_c, 0, 63, 0
2, 59908, Control_c, 0, 64, 127
2, 59928, Note_on_c, 0, 72, 0
2, 59944, Note_on_c, 0, 69, 0
2, 59972, Control_c, 0, 64, 72
2, 59984, Control_c, 0, 64, 40
2, 59996, Control_c, 0, 64, 0
2, 60000, Note_on_c, 0, 54, 0
2, 60028, Note_on_c, 0, 71, 68
2, 60028, Note_on_c, 0, 55, 52
2, 60028, Note_on_c, 0, 62, 49
2, 60028, Note_on_c, 0, 67, 53
2, 60124, Note_on_c, 0, 55, 0
2, 60132, Note_on_c, 0, 67, 0
2, 60132, Note_on_c, 0, 62, 0
2, 60132, Control_c, 0, 64, 56
2, 60144, Note_on_c, 0, 71, 0
2, 60144, Control_c, 0, 64, 104
2, 60160, Control_c, 0, 64, 127
2, 60416, Control_c, 0, 64, 40
2, 60428, Note_on_c, 0, 55, 66
2, 60428, Note_on_c, 0, 31, 46
2, 60428, Note_on_c, 0, 43, 42
2, 60428, Note_on_c, 0, 47, 51
2, 60428, Note_on_c, 0, 67, 61
2, 60428, Control_c, 0, 64, 0
2, 60492, Note_on_c, 0, 47, 0
2, 60512, Control_c, 0, 64, 24
2, 60524, Control_c, 0, 64, 56
2, 60536, Control_c, 0, 64, 72
2, 60552, Note_on_c, 0, 67, 0
2, 60552, Control_c, 0, 64, 88
2, 60564, Control_c, 0, 64, 104
2, 60584, Note_on_c, 0, 55, 0
2, 60616, Note_on_c, 0, 57, 64
2, 60616, Note_on_c, 0, 50, 58
2, 60616, Note_on_c, 0, 62, 52
2, 60740, Note_on_c, 0, 62, 0
2, 60752, Control_c, 0, 64, 88
2, 60756, Note_on_c, 0, 50, 0
2, 60776, Note_on_c, 0, 57, 0
2, 60820, Control_c, 0, 64, 72
2, 60828, Note_on_c, 0, 55, 56
2, 60828, Note_on_c, 0, 59, 67
2, 60828, Note_on_c, 0, 67, 58
2, 60828, Note_on_c, 0, 43, 56
2, 60828, Note_on_c, 0, 31, 58
2, 60832, Control_c, 0, 64, 56
2, 60848, Control_c, 0, 64, 24
2, 60860, Control_c, 0, 64, 0
2, 60952, Note_on_c, 0, 31, 0
2, 60952, Note_on_c, 0, 67, 0
2, 60952, Note_on_c, 0, 43, 0
2, 60972, Note_on_c, 0, 59, 0
2, 60980, Note_on_c, 0, 55, 0
2, 60992, Control_c, 0, 64, 24
2, 61004, Note_on_c, 0, 57, 59
2, 61004, Control_c, 0, 64, 72
2, 61020, Control_c, 0, 64, 104
2, 61024, Note_on_c, 0, 50, 57
2, 61032, Control_c, 0, 64, 127
2, 61096, Note_on_c, 0, 31, 0
2, 61156, Note_on_c, 0, 50, 0
2, 61160, Note_on_c, 0, 43, 0
2, 61168, Note_on_c, 0, 57, 0
2, 61200, Note_on_c, 0, 59, 66
2, 61212, Note_on_c, 0, 55, 50
2, 61236, Note_on_c, 0, 55, 0
2, 61252, Note_on_c, 0, 59, 0
2, 61404, Note_on_c, 0, 49, 47
2, 61404, Note_on_c, 0, 64, 68
2, 61404, Note_on_c, 0, 58, 60
2, 61404, Note_on_c, 0, 55, 64
2, 61456, Note_on_c, 0, 64, 0
2, 61508, Note_on_c, 0, 58, 0
2, 61552, Note_on_c, 0, 55, 0
2, 61592, Note_on_c, 0, 49, 0
2, 61616, Control_c, 0, 64, 0
2, 61620, Note_on_c, 0, 57, 66
2, 61620, Note_on_c, 0, 50, 53
2, 61620, Note_on_c, 0, 54, 54
2, 61636, Control_c, 0, 64, 88
2, 61652, Control_c, 0, 64, 40
2, 61664, Control_c, 0, 64, 0
2, 61784, Note_on_c, 0, 54, 0
2, 61800, Note_on_c, 0, 57, 0
2, 61800, Control_c, 0, 64, 40
2, 61812, Note_on_c, 0, 56, 62
2, 61812, Control_c, 0, 64, 88
2, 61828, Control_c, 0, 64, 127
2, 61832, Note_on_c, 0, 53, 55
2, 61948, Note_on_c, 0, 53, 0
2, 61968, Note_on_c, 0, 56, 0
2, 62008, Note_on_c, 0, 57, 66
2, 62008, Note_on_c, 0, 54, 50
2, 62024, Note_on_c, 0, 56, 30
2, 62048, Note_on_c, 0, 56, 0
2, 62056, Note_on_c, 0, 54, 0
2, 62064, Note_on_c, 0, 57, 0
2, 62148, Note_on_c, 0, 50, 0
2, 62172, Control_c, 0, 64, 72
2, 62184, Control_c, 0, 64, 0
2, 62200, Note_on_c, 0, 56, 55
2, 62204, Note_on_c, 0, 62, 70
2, 62208, Note_on_c, 0, 53, 60
2, 62208, Note_on_c, 0, 47, 54
2, 62256, Control_c, 0, 64, 24
2, 62268, Control_c, 0, 64, 56
2, 62276, Note_on_c, 0, 53, 0
2, 62280, Control_c, 0, 64, 88
2, 62284, Note_on_c, 0, 56, 0
2, 62296, Control_c, 0, 64, 127
2, 62348, Note_on_c, 0, 62, 0
2, 62364, Control_c, 0, 64, 40
2, 62376, Control_c, 0, 64, 0
2, 62392, Note_on_c, 0, 47, 0
2, 62404, Note_on_c, 0, 55, 74
2, 62404, Note_on_c, 0, 52, 53
2, 62404, Note_on_c, 0, 48, 65
2, 62440, Note_on_c, 0, 52, 0
2, 62456, Control_c, 0, 64, 24
2, 62468, Control_c, 0, 64, 88
2, 62476, Note_on_c, 0, 55, 0
2, 62484, Control_c, 0, 64, 127
2, 62584, Note_on_c, 0, 51, 53
2, 62584, Note_on_c, 0, 54, 58
2, 62672, Note_on_c, 0, 54, 0
2, 62680, Note_on_c, 0, 51, 0
2, 62784, Note_on_c, 0, 55, 73
2, 62792, Note_on_c, 0, 52, 56
2, 62816, Note_on_c, 0, 52, 0
2, 62872, Note_on_c, 0, 55, 0
2, 62932, Note_on_c, 0, 48, 0
2, 62940, Control_c, 0, 64, 104
2, 62952, Control_c, 0, 64, 72
2, 62968, Control_c, 0, 64, 0
2, 62980, Note_on_c, 0, 60, 68
2, 62984, Note_on_c, 0, 51, 52
2, 62984, Note_on_c, 0, 42, 44
2, 62992, Note_on_c, 0, 57, 52
2, 63060, Control_c, 0, 64, 24
2, 63076, Note_on_c, 0, 51, 0
2, 63076, Control_c, 0, 64, 72
2, 63088, Note_on_c, 0, 60, 0
2, 63088, Control_c, 0, 64, 88
2, 63100, Control_c, 0, 64, 104
2, 63116, Note_on_c, 0, 57, 0
2, 63164, Control_c, 0, 64, 56
2, 63180, Note_on_c, 0, 42, 0
2, 63180, Control_c, 0, 64, 40
2, 63192, Note_on_c, 0, 59, 62
2, 63192, Note_on_c, 0, 43, 54
2, 63192, Note_on_c, 0, 50, 50
2, 63192, Note_on_c, 0, 55, 48
2, 63196, Control_c, 0, 64, 0
2, 63340, Note_on_c, 0, 50, 0
2, 63372, Control_c, 0, 64, 56
2, 63384, Note_on_c, 0, 59, 0
2, 63384, Control_c, 0, 64, 88
2, 63396, Note_on_c, 0, 55, 0
2, 63396, Control_c, 0, 64, 127
2, 63424, Note_on_c, 0, 43, 0
2, 63596, Control_c, 0, 64, 56
2, 63604, Note_on_c, 0, 60, 65
2, 63604, Note_on_c, 0, 52, 54
2, 63612, Control_c, 0, 64, 0
2, 63616, Note_on_c, 0, 48, 48
2, 63628, Note_on_c, 0, 36, 49
2, 63628, Note_on_c, 0, 43, 44
2, 63660, Note_on_c, 0, 52, 0
2, 63692, Control_c, 0, 64, 40
2, 63708, Control_c, 0, 64, 88
2, 63720, Control_c, 0, 64, 104
2, 63732, Control_c, 0, 64, 127
2, 63764, Note_on_c, 0, 60, 0
2, 63784, Note_on_c, 0, 62, 69
2, 63784, Note_on_c, 0, 55, 60
2, 63924, Note_on_c, 0, 55, 0
2, 63940, Note_on_c, 0, 62, 0
2, 63984, Note_on_c, 0, 64, 69
2, 63984, Note_on_c, 0, 60, 57
2, 63988, Control_c, 0, 64, 72
2, 64004, Control_c, 0, 64, 0
2, 64096, Control_c, 0, 64, 56
2, 64108, Control_c, 0, 64, 104
2, 64120, Control_c, 0, 64, 127
2, 64132, Note_on_c, 0, 64, 0
2, 64144, Note_on_c, 0, 60, 0
2, 64176, Note_on_c, 0, 62, 60
2, 64208, Note_on_c, 0, 59, 49
2, 64252, Note_on_c, 0, 36, 0
2, 64276, Note_on_c, 0, 43, 0
2, 64324, Note_on_c, 0, 48, 0
2, 64328, Note_on_c, 0, 62, 0
2, 64368, Note_on_c, 0, 64, 59
2, 64368, Note_on_c, 0, 60, 51
2, 64376, Note_on_c, 0, 59, 0
2, 64396, Note_on_c, 0, 60, 0
2, 64400, Note_on_c, 0, 64, 0
2, 64556, Note_on_c, 0, 67, 71
2, 64556, Note_on_c, 0, 52, 60
2, 64556, Note_on_c, 0, 64, 57
2, 64600, Note_on_c, 0, 64, 0
2, 64604, Note_on_c, 0, 52, 0
2, 64680, Note_on_c, 0, 67, 0
2, 64768, Note_on_c, 0, 62, 70
2, 64768, Note_on_c, 0, 59, 49
2, 64768, Note_on_c, 0, 55, 57
2, 64792, Control_c, 0, 64, 72
2, 64808, Control_c, 0, 64, 0
2, 64916, Control_c, 0, 64, 56
2, 64928, Control_c, 0, 64, 88
2, 64940, Note_on_c, 0, 55, 0
2, 64944, Note_on_c, 0, 62, 0
2, 64944, Control_c, 0, 64, 127
2, 64948, Note_on_c, 0, 59, 0
2, 64960, Note_on_c, 0, 61, 64
2, 64960, Note_on_c, 0, 58, 46
2, 64960, Note_on_c, 0, 67, 50
2, 65084, Note_on_c, 0, 67, 0
2, 65108, Note_on_c, 0, 58, 0
2, 65112, Note_on_c, 0, 61, 0
2, 65156, Note_on_c, 0, 62, 67
2, 65156, Note_on_c, 0, 55, 49
2, 65156, Note_on_c, 0, 59, 48
2, 65208, Note_on_c, 0, 55, 0
2, 65224, Note_on_c, 0, 59, 0
2, 65300, Note_on_c, 0, 62, 0
2, 65312, Control_c, 0, 64, 72
2, 65332, Control_c, 0, 64, 24
2, 65340, Note_on_c, 0, 64, 74
2, 65340, Note_on_c, 0, 58, 51
2, 65340, Note_on_c, 0, 61, 56
2, 65340, Control_c, 0, 64, 0
2, 65384, Control_c, 0, 64, 24
2, 65396, Control_c, 0, 64, 56
2, 65412, Control_c, 0, 64, 88
2, 65424, Control_c, 0, 64, 127
2, 65484, Note_on_c, 0, 61, 0
2, 65484, Note_on_c, 0, 58, 0
2, 65504, Control_c, 0, 64, 104
2, 65516, Note_on_c, 0, 64, 0
2, 65516, Control_c, 0, 64, 40
2, 65532, Control_c, 0, 64, 0
2, 65536, Note_on_c, 0, 65, 69
2, 65548, Note_on_c, 0, 60, 55
2, 65556, Note_on_c, 0, 57, 48
2, 65628, Control_c, 0, 64, 24
2, 65640, Control_c, 0, 64, 56
2, 65652, Control_c, 0, 64, 88
2, 65668, Control_c, 0, 64, 127
2, 65688, Note_on_c, 0, 65, 0
2, 65700, Note_on_c, 0, 60, 0
2, 65724, Note_on_c, 0, 57, 0
2, 65728, Note_on_c, 0, 64, 67
2, 65732, Note_on_c, 0, 58, 49
2, 65732, Note_on_c, 0, 61, 47
2, 65856, Note_on_c, 0, 61, 0
2, 65884, Note_on_c, 0, 58, 0
2, 65888, Note_on_c, 0, 64, 0
2, 65916, Note_on_c, 0, 65, 66
2, 65916, Note_on_c, 0, 60, 55
2, 65916, Note_on_c, 0, 57, 59
2, 65916, Note_on_c, 0, 31, 55
2, 65956, Note_on_c, 0, 65, 0
2, 65960, Note_on_c, 0, 60, 0
2, 65960, Note_on_c, 0, 57, 0
2, 66108, Note_on_c, 0, 67, 74
2, 66112, Note_on_c, 0, 59, 42
2, 66120, Note_on_c, 0, 55, 46
2, 66168, Note_on_c, 0, 59, 0
2, 66224, Note_on_c, 0, 31, 0
2, 66224, Note_on_c, 0, 67, 0
2, 66236, Note_on_c, 0, 55, 0
2, 66272, Control_c, 0, 64, 88
2, 66280, Control_c, 0, 64, 40
2, 66296, Control_c, 0, 64, 0
2, 66312, Note_on_c, 0, 64, 69
2, 66320, Note_on_c, 0, 60, 64
2, 66340, Note_on_c, 0, 36, 58
2, 66340, Note_on_c, 0, 48, 50
2, 66392, Control_c, 0, 64, 24
2, 66404, Control_c, 0, 64, 88
2, 66416, Control_c, 0, 64, 127
2, 66448, Note_on_c, 0, 60, 0
2, 66460, Note_on_c, 0, 64, 0
2, 66496, Note_on_c, 0, 55, 51
2, 66500, Note_on_c, 0, 62, 68
2, 66560, Note_on_c, 0, 48, 0
2, 66572, Note_on_c, 0, 55, 0
2, 66620, Note_on_c, 0, 36, 0
2, 66656, Note_on_c, 0, 62, 0
2, 66696, Note_on_c, 0, 60, 68
2, 66696, Note_on_c, 0, 52, 45
2, 66696, Note_on_c, 0, 48, 46
2, 66696, Note_on_c, 0, 36, 50
2, 66696, Note_on_c, 0, 43, 47
2, 66828, Note_on_c, 0, 52, 0
2, 66832, Note_on_c, 0, 60, 0
2, 66848, Control_c, 0, 64, 72
2, 66864, Control_c, 0, 64, 24
2, 66872, Control_c, 0, 64, 0
2, 66884, Note_on_c, 0, 62, 70
2, 66900, Note_on_c, 0, 55, 54
2, 66928, Control_c, 0, 64, 40
2, 66940, Control_c, 0, 64, 72
2, 66956, Control_c, 0, 64, 127
2, 67044, Note_on_c, 0, 36, 0
2, 67044, Note_on_c, 0, 43, 0
2, 67044, Note_on_c, 0, 48, 0
2, 67052, Note_on_c, 0, 62, 0
2, 67052, Note_on_c, 0, 55, 0
2, 67064, Control_c, 0, 64, 88
2, 67076, Note_on_c, 0, 64, 73
2, 67076, Note_on_c, 0, 60, 61
2, 67076, Note_on_c, 0, 48, 52
2, 67080, Control_c, 0, 64, 56
2, 67116, Control_c, 0, 64, 104
2, 67132, Control_c, 0, 64, 127
2, 67212, Note_on_c, 0, 60, 0
2, 67244, Note_on_c, 0, 64, 0
2, 67260, Note_on_c, 0, 62, 66
2, 67268, Note_on_c, 0, 59, 45
2, 67396, Note_on_c, 0, 59, 0
2, 67420, Note_on_c, 0, 62, 0
2, 67452, Note_on_c, 0, 64, 66
2, 67460, Note_on_c, 0, 60, 59
2, 67540, Note_on_c, 0, 60, 0
2, 67604, Note_on_c, 0, 64, 0
2, 67612, Control_c, 0, 64, 88
2, 67628, Control_c, 0, 64, 40
2, 67636, Note_on_c, 0, 67, 72
2, 67636, Note_on_c, 0, 52, 56
2, 67636, Note_on_c, 0, 64, 50
2, 67640, Control_c, 0, 64, 0
2, 67680, Control_c, 0, 64, 40
2, 67692, Control_c, 0, 64, 72
2, 67708, Control_c, 0, 64, 104
2, 67720, Control_c, 0, 64, 127
2, 67748, Note_on_c, 0, 52, 0
2, 67768, Note_on_c, 0, 67, 0
2, 67808, Note_on_c, 0, 48, 0
2, 67816, Note_on_c, 0, 64, 0
2, 67828, Note_on_c, 0, 62, 70
2, 67828, Note_on_c, 0, 55, 54
2, 67828, Note_on_c, 0, 59, 50
2, 67828, Control_c, 0, 64, 72
2, 67844, Control_c, 0, 64, 0
2, 67908, Control_c, 0, 64, 56
2, 67924, Control_c, 0, 64, 88
2, 67936, Control_c, 0, 64, 127
2, 67964, Note_on_c, 0, 59, 0
2, 67968, Note_on_c, 0, 55, 0
2, 67988, Note_on_c, 0, 62, 0
2, 68008, Note_on_c, 0, 61, 68
2, 68008, Note_on_c, 0, 58, 48
2, 68008, Note_on_c, 0, 67, 50
2, 68100, Control_c, 0, 64, 88
2, 68112, Control_c, 0, 64, 56
2, 68124, Control_c, 0, 64, 40
2, 68144, Note_on_c, 0, 58, 0
2, 68156, Note_on_c, 0, 61, 0
2, 68160, Control_c, 0, 64, 72
2, 68176, Control_c, 0, 64, 88
2, 68192, Control_c, 0, 64, 104
2, 68196, Note_on_c, 0, 62, 64
2, 68196, Note_on_c, 0, 55, 51
2, 68196, Note_on_c, 0, 59, 47
2, 68204, Control_c, 0, 64, 127
2, 68248, Note_on_c, 0, 55, 0
2, 68284, Note_on_c, 0, 59, 0
2, 68296, Control_c, 0, 64, 88
2, 68312, Control_c, 0, 64, 40
2, 68324, Control_c, 0, 64, 0
2, 68344, Note_on_c, 0, 62, 0
2, 68356, Note_on_c, 0, 67, 0
2, 68380, Note_on_c, 0, 64, 74
2, 68380, Note_on_c, 0, 61, 57
2, 68380, Note_on_c, 0, 58, 55
2, 68420, Control_c, 0, 64, 40
2, 68432, Control_c, 0, 64, 72
2, 68448, Control_c, 0, 64, 104
2, 68460, Control_c, 0, 64, 127
2, 68512, Control_c, 0, 64, 72
2, 68528, Note_on_c, 0, 61, 0
2, 68528, Control_c, 0, 64, 40
2, 68540, Note_on_c, 0, 58, 0
2, 68540, Control_c, 0, 64, 0
2, 68552, Note_on_c, 0, 64, 0
2, 68560, Note_on_c, 0, 65, 70
2, 68560, Note_on_c, 0, 60, 59
2, 68560, Note_on_c, 0, 57, 52
2, 68620, Control_c, 0, 64, 40
2, 68632, Control_c, 0, 64, 88
2, 68648, Control_c, 0, 64, 127
2, 68700, Note_on_c, 0, 57, 0
2, 68708, Note_on_c, 0, 60, 0
2, 68708, Note_on_c, 0, 65, 0
2, 68752, Note_on_c, 0, 64, 64
2, 68756, Note_on_c, 0, 61, 49
2, 68756, Note_on_c, 0, 58, 53
2, 68892, Note_on_c, 0, 58, 0
2, 68892, Note_on_c, 0, 61, 0
2, 68916, Note_on_c, 0, 64, 0
2, 68936, Note_on_c, 0, 65, 68
2, 68936, Note_on_c, 0, 57, 57
2, 68936, Note_on_c, 0, 60, 54
2, 68936, Note_on_c, 0, 31, 55
2, 68992, Note_on_c, 0, 60, 0
2, 68992, Note_on_c, 0, 65, 0
2, 68992, Note_on_c, 0, 57, 0
2, 69112, Note_on_c, 0, 67, 73
2, 69124, Note_on_c, 0, 55, 49
2, 69124, Note_on_c, 0, 59, 49
2, 69180, Note_on_c, 0, 59, 0
2, 69220, Note_on_c, 0, 67, 0
2, 69232, Note_on_c, 0, 55, 0
2, 69276, Control_c, 0, 64, 104
2, 69284, Note_on_c, 0, 31, 0
2, 69292, Control_c, 0, 64, 56
2, 69308, Note_on_c, 0, 64, 71
2, 69308, Control_c, 0, 64, 0
2, 69312, Note_on_c, 0, 55, 49
2, 69316, Note_on_c, 0, 60, 59
2, 69324, Note_on_c, 0, 36, 52
2, 69388, Control_c, 0, 64, 24
2, 69400, Control_c, 0, 64, 72
2, 69412, Control_c, 0, 64, 127
2, 69444, Note_on_c, 0, 64, 0
2, 69456, Note_on_c, 0, 55, 0
2, 69456, Note_on_c, 0, 60, 0
2, 69484, Note_on_c, 0, 62, 75
2, 69572, Note_on_c, 0, 62, 0
2, 69576, Note_on_c, 0, 36, 0
2, 69656, Control_c, 0, 64, 72
2, 69664, Note_on_c, 0, 60, 86
2, 69668, Control_c, 0, 64, 24
2, 69676, Note_on_c, 0, 48, 76
2, 69676, Note_on_c, 0, 36, 68
2, 69684, Control_c, 0, 64, 0
2, 69712, Note_on_c, 0, 36, 0
2, 69716, Note_on_c, 0, 48, 0
2, 69764, Note_on_c, 0, 60, 0
2, 69856, Note_on_c, 0, 62, 83
2, 69860, Note_on_c, 0, 50, 78
2, 69868, Note_on_c, 0, 38, 63
2, 69892, Note_on_c, 0, 38, 0
2, 69908, Note_on_c, 0, 50, 0
2, 69988, Note_on_c, 0, 62, 0
2, 70044, Note_on_c, 0, 64, 88
2, 70052, Note_on_c, 0, 52, 79
2, 70056, Note_on_c, 0, 40, 74
2, 70084, Note_on_c, 0, 40, 0
2, 70100, Note_on_c, 0, 52, 0
2, 70108, Note_on_c, 0, 64, 0
2, 70216, Note_on_c, 0, 65, 84
2, 70232, Note_on_c, 0, 53, 74
2, 70240, Note_on_c, 0, 41, 74
2, 70264, Note_on_c, 0, 41, 0
2, 70280, Note_on_c, 0, 53, 0
2, 70336, Note_on_c, 0, 65, 0
2, 70392, Note_on_c, 0, 67, 85
2, 70408, Note_on_c, 0, 55, 80
2, 70412, Note_on_c, 0, 43, 78
2, 70436, Note_on_c, 0, 43, 0
2, 70456, Note_on_c, 0, 55, 0
2, 70520, Note_on_c, 0, 67, 0
2, 70560, Note_on_c, 0, 69, 74
2, 70576, Note_on_c, 0, 57, 65
2, 70592, Note_on_c, 0, 45, 55
2, 70600, Note_on_c, 0, 57, 0
2, 70616, Note_on_c, 0, 45, 0
2, 70628, Note_on_c, 0, 69, 0
2, 70704, Note_on_c, 0, 70, 60
2, 70748, Note_on_c, 0, 72, 74
2, 70760, Note_on_c, 0, 70, 0
2, 70784, Note_on_c, 0, 70, 76
2, 70784, Note_on_c, 0, 58, 68
2, 70784, Note_on_c, 0, 46, 69
2, 70832, Note_on_c, 0, 72, 0
2, 70868, Note_on_c, 0, 46, 0
2, 70868, Note_on_c, 0, 58, 0
2, 70896, Note_on_c, 0, 70, 0
2, 70944, Note_on_c, 0, 67, 89
2, 70960, Note_on_c, 0, 55, 80
2, 70964, Note_on_c, 0, 43, 70
2, 70996, Note_on_c, 0, 55, 0
2, 71000, Note_on_c, 0, 43, 0
2, 71104, Note_on_c, 0, 67, 0
2, 71124, Note_on_c, 0, 64, 88
2, 71144, Note_on_c, 0, 52, 73
2, 71152, Note_on_c, 0, 40, 70
2, 71176, Note_on_c, 0, 40, 0
2, 71192, Note_on_c, 0, 52, 0
2, 71228, Note_on_c, 0, 64, 0
2, 71304, Note_on_c, 0, 62, 89
2, 71316, Note_on_c, 0, 50, 81
2, 71324, Note_on_c, 0, 38, 78
2, 71356, Note_on_c, 0, 38, 0
2, 71364, Note_on_c, 0, 50, 0
2, 71476, Note_on_c, 0, 62, 0
2, 71496, Note_on_c, 0, 60, 89
2, 71500, Note_on_c, 0, 48, 89
2, 71508, Note_on_c, 0, 36, 82
2, 71552, Note_on_c, 0, 48, 0
2, 71556, Note_on_c, 0, 36, 0
2, 71596, Note_on_c, 0, 60, 0
2, 71676, Note_on_c, 0, 46, 96
2, 71676, Note_on_c, 0, 58, 80
2, 71680, Note_on_c, 0, 34, 85
2, 71724, Note_on_c, 0, 46, 0
2, 71728, Note_on_c, 0, 34, 0
2, 71800, Note_on_c, 0, 58, 0
2, 71868, Note_on_c, 0, 57, 99
2, 71868, Note_on_c, 0, 45, 96
2, 71872, Note_on_c, 0, 33, 82
2, 71912, Note_on_c, 0, 45, 0
2, 71924, Note_on_c, 0, 33, 0
2, 71960, Note_on_c, 0, 57, 0
2, 72048, Note_on_c, 0, 55, 100
2, 72052, Note_on_c, 0, 43, 93
2, 72060, Note_on_c, 0, 31, 86
2, 72100, Note_on_c, 0, 43, 0
2, 72112, Note_on_c, 0, 31, 0
2, 72156, Note_on_c, 0, 55, 0
2, 72248, Note_on_c, 0, 53, 102
2, 72264, Note_on_c, 0, 29, 82
2, 72264, Note_on_c, 0, 41, 89
2, 72316, Note_on_c, 0, 41, 0
2, 72316, Note_on_c, 0, 29, 0
2, 72328, Control_c, 0, 64, 72
2, 72340, Control_c, 0, 64, 127
2, 72384, Note_on_c, 0, 53, 0
2, 72632, Note_on_c, 0, 77, 88
2, 72636, Note_on_c, 0, 57, 59
2, 72644, Control_c, 0, 64, 56
2, 72652, Control_c, 0, 64, 127
2, 72712, Note_on_c, 0, 72, 70
2, 72736, Note_on_c, 0, 77, 0
2, 72784, Note_on_c, 0, 72, 0
2, 72788, Note_on_c, 0, 60, 66
2, 72796, Note_on_c, 0, 79, 84
2, 72804, Note_on_c, 0, 76, 70
2, 72808, Note_on_c, 0, 60, 0
2, 72808, Note_on_c, 0, 57, 0
2, 72824, Note_on_c, 0, 76, 0
2, 72880, Note_on_c, 0, 79, 0
2, 72880, Note_on_c, 0, 72, 72
2, 72924, Control_c, 0, 64, 104
2, 72932, Control_c, 0, 64, 40
2, 72936, Note_on_c, 0, 72, 0
2, 72940, Control_c, 0, 64, 0
2, 72944, Note_on_c, 0, 81, 87
2, 72948, Note_on_c, 0, 77, 84
2, 72956, Note_on_c, 0, 41, 66
2, 72960, Note_on_c, 0, 53, 55
2, 72980, Control_c, 0, 64, 56
2, 72988, Control_c, 0, 64, 127
2, 73016, Note_on_c, 0, 77, 0
2, 73024, Note_on_c, 0, 72, 74
2, 73044, Note_on_c, 0, 81, 0
2, 73056, Note_on_c, 0, 53, 0
2, 73056, Note_on_c, 0, 41, 0
2, 73092, Note_on_c, 0, 72, 0
2, 73100, Note_on_c, 0, 79, 75
2, 73108, Note_on_c, 0, 76, 69
2, 73156, Note_on_c, 0, 76, 0
2, 73176, Note_on_c, 0, 72, 74
2, 73192, Note_on_c, 0, 79, 0
2, 73236, Note_on_c, 0, 72, 0
2, 73240, Note_on_c, 0, 60, 74
2, 73244, Note_on_c, 0, 81, 78
2, 73248, Note_on_c, 0, 77, 78
2, 73280, Note_on_c, 0, 60, 0
2, 73288, Note_on_c, 0, 77, 0
2, 73304, Note_on_c, 0, 81, 0
2, 73320, Note_on_c, 0, 72, 71
2, 73380, Note_on_c, 0, 72, 0
2, 73396, Note_on_c, 0, 84, 88
2, 73396, Note_on_c, 0, 81, 75
2, 73444, Note_on_c, 0, 81, 0
2, 73452, Note_on_c, 0, 84, 0
2, 73472, Note_on_c, 0, 72, 70
2, 73500, Control_c, 0, 64, 72
2, 73508, Control_c, 0, 64, 0
2, 73528, Note_on_c, 0, 72, 0
2, 73536, Note_on_c, 0, 79, 82
2, 73540, Note_on_c, 0, 76, 78
2, 73540, Note_on_c, 0, 48, 67
2, 73544, Note_on_c, 0, 36, 63
2, 73564, Control_c, 0, 64, 88
2, 73572, Control_c, 0, 64, 127
2, 73584, Note_on_c, 0, 36, 0
2, 73588, Note_on_c, 0, 76, 0
2, 73596, Note_on_c, 0, 48, 0
2, 73616, Note_on_c, 0, 79, 0
2, 73620, Note_on_c, 0, 72, 76
2, 73684, Note_on_c, 0, 72, 0
2, 73688, Note_on_c, 0, 78, 78
2, 73704, Note_on_c, 0, 75, 55
2, 73748, Note_on_c, 0, 75, 0
2, 73772, Note_on_c, 0, 78, 0
2, 73772, Note_on_c, 0, 72, 80
2, 73832, Note_on_c, 0, 60, 72
2, 73836, Note_on_c, 0, 72, 0
2, 73844, Note_on_c, 0, 79, 86
2, 73848, Note_on_c, 0, 76, 80
2, 73860, Note_on_c, 0, 78, 34
2, 73876, Note_on_c, 0, 78, 0
2, 73892, Note_on_c, 0, 76, 0
2, 73920, Note_on_c, 0, 72, 84
2, 73944, Note_on_c, 0, 79, 0
2, 73988, Note_on_c, 0, 72, 0
2, 73992, Note_on_c, 0, 60, 0
2, 73996, Note_on_c, 0, 81, 84
2, 73996, Note_on_c, 0, 78, 69
2, 74000, Note_on_c, 0, 75, 65
2, 74056, Note_on_c, 0, 75, 0
2, 74060, Note_on_c, 0, 81, 0
2, 74064, Note_on_c, 0, 72, 80
2, 74072, Note_on_c, 0, 78, 0
2, 74132, Note_on_c, 0, 72, 0
2, 74148, Note_on_c, 0, 82, 82
2, 74152, Note_on_c, 0, 74, 62
2, 74156, Note_on_c, 0, 79, 60
2, 74184, Note_on_c, 0, 74, 0
2, 74216, Note_on_c, 0, 79, 0
2, 74220, Note_on_c, 0, 82, 0
2, 74228, Note_on_c, 0, 72, 81
2, 74292, Note_on_c, 0, 72, 0
2, 74300, Note_on_c, 0, 81, 80
2, 74304, Note_on_c, 0, 78, 68
2, 74308, Note_on_c, 0, 75, 60
2, 74356, Note_on_c, 0, 75, 0
2, 74364, Note_on_c, 0, 81, 0
2, 74368, Note_on_c, 0, 78, 0
2, 74372, Note_on_c, 0, 72, 83
2, 74444, Note_on_c, 0, 72, 0
2, 74448, Control_c, 0, 64, 72
2, 74456, Control_c, 0, 64, 0
2, 74468, Note_on_c, 0, 82, 85
2, 74468, Note_on_c, 0, 74, 68
2, 74480, Note_on_c, 0, 60, 68
2, 74480, Note_on_c, 0, 79, 70
2, 74484, Note_on_c, 0, 48, 63
2, 74508, Note_on_c, 0, 74, 0
2, 74512, Control_c, 0, 64, 40
2, 74524, Control_c, 0, 64, 104
2, 74532, Note_on_c, 0, 79, 0
2, 74532, Control_c, 0, 64, 127
2, 74540, Note_on_c, 0, 82, 0
2, 74544, Note_on_c, 0, 72, 83
2, 74548, Note_on_c, 0, 60, 0
2, 74612, Note_on_c, 0, 72, 0
2, 74628, Note_on_c, 0, 79, 62
2, 74628, Note_on_c, 0, 84, 90
2, 74632, Note_on_c, 0, 60, 79
2, 74632, Note_on_c, 0, 76, 74
2, 74648, Note_on_c, 0, 60, 0
2, 74660, Note_on_c, 0, 48, 0
2, 74680, Note_on_c, 0, 76, 0
2, 74692, Note_on_c, 0, 84, 0
2, 74692, Note_on_c, 0, 79, 0
2, 74704, Note_on_c, 0, 72, 82
2, 74764, Control_c, 0, 64, 104
2, 74768, Note_on_c, 0, 72, 0
2, 74772, Control_c, 0, 64, 40
2, 74784, Note_on_c, 0, 81, 82
2, 74784, Control_c, 0, 64, 0
2, 74788, Note_on_c, 0, 77, 80
2, 74800, Note_on_c, 0, 53, 70
2, 74800, Note_on_c, 0, 41, 67
2, 74828, Control_c, 0, 64, 24
2, 74836, Control_c, 0, 64, 104
2, 74848, Note_on_c, 0, 41, 0
2, 74848, Control_c, 0, 64, 127
2, 74860, Note_on_c, 0, 53, 0
2, 74860, Note_on_c, 0, 77, 0
2, 74868, Note_on_c, 0, 72, 79
2, 74884, Note_on_c, 0, 81, 0
2, 74932, Note_on_c, 0, 72, 0
2, 74940, Note_on_c, 0, 79, 79
2, 74948, Note_on_c, 0, 76, 74
2, 75000, Note_on_c, 0, 76, 0
2, 75012, Note_on_c, 0, 72, 78
2, 75016, Note_on_c, 0, 79, 0
2, 75080, Note_on_c, 0, 72, 0
2, 75096, Note_on_c, 0, 77, 89
2, 75112, Note_on_c, 0, 57, 65
2, 75168, Note_on_c, 0, 77, 0
2, 75172, Note_on_c, 0, 72, 81
2, 75236, Note_on_c, 0, 72, 0
2, 75248, Note_on_c, 0, 79, 82
2, 75248, Note_on_c, 0, 60, 64
2, 75256, Note_on_c, 0, 76, 74
2, 75268, Note_on_c, 0, 60, 0
2, 75272, Note_on_c, 0, 57, 0
2, 75292, Note_on_c, 0, 76, 0
2, 75320, Note_on_c, 0, 79, 0
2, 75320, Note_on_c, 0, 72, 81
2, 75388, Note_on_c, 0, 72, 0
2, 75388, Control_c, 0, 64, 88
2, 75396, Control_c, 0, 64, 24
2, 75404, Note_on_c, 0, 81, 81
2, 75404, Control_c, 0, 64, 0
2, 75412, Note_on_c, 0, 77, 74
2, 75424, Note_on_c, 0, 53, 74
2, 75428, Note_on_c, 0, 41, 67
2, 75460, Control_c, 0, 64, 72
2, 75472, Control_c, 0, 64, 127
2, 75488, Note_on_c, 0, 41, 0
2, 75488, Note_on_c, 0, 77, 0
2, 75488, Note_on_c, 0, 72, 80
2, 75496, Note_on_c, 0, 81, 0
2, 75512, Note_on_c, 0, 53, 0
2, 75552, Note_on_c, 0, 72, 0
2, 75568, Note_on_c, 0, 79, 80
2, 75572, Note_on_c, 0, 76, 65
2, 75620, Note_on_c, 0, 76, 0
2, 75636, Note_on_c, 0, 72, 78
2, 75648, Note_on_c, 0, 79, 0
2, 75708, Note_on_c, 0, 72, 0
2, 75720, Note_on_c, 0, 60, 81
2, 75720, Note_on_c, 0, 81, 80
2, 75724, Note_on_c, 0, 77, 73
2, 75776, Note_on_c, 0, 60, 0
2, 75780, Note_on_c, 0, 77, 0
2, 75784, Note_on_c, 0, 81, 0
2, 75796, Note_on_c, 0, 72, 78
2, 75860, Note_on_c, 0, 72, 0
2, 75876, Note_on_c, 0, 84, 83
2, 75876, Note_on_c, 0, 81, 68
2, 75924, Note_on_c, 0, 81, 0
2, 75936, Note_on_c, 0, 84, 0
2, 75948, Note_on_c, 0, 72, 80
2, 75992, Control_c, 0, 64, 104
2, 76000, Control_c, 0, 64, 24
2, 76012, Note_on_c, 0, 72, 0
2, 76012, Control_c, 0, 64, 0
2, 76028, Note_on_c, 0, 79, 75
2, 76028, Note_on_c, 0, 76, 71
2, 76032, Note_on_c, 0, 48, 68
2, 76036, Note_on_c, 0, 36, 67
2, 76064, Control_c, 0, 64, 104
2, 76076, Control_c, 0, 64, 127
2, 76080, Note_on_c, 0, 76, 0
2, 76084, Note_on_c, 0, 36, 0
2, 76100, Note_on_c, 0, 79, 0
2, 76108, Note_on_c, 0, 72, 80
2, 76116, Note_on_c, 0, 48, 0
2, 76176, Note_on_c, 0, 78, 74
2, 76180, Note_on_c, 0, 72, 0
2, 76184, Note_on_c, 0, 75, 56
2, 76228, Note_on_c, 0, 75, 0
2, 76244, Note_on_c, 0, 78, 0
2, 76248, Note_on_c, 0, 72, 82
2, 76316, Note_on_c, 0, 72, 0
2, 76328, Note_on_c, 0, 79, 79
2, 76332, Note_on_c, 0, 76, 67
2, 76384, Note_on_c, 0, 76, 0
2, 76400, Note_on_c, 0, 72, 81
2, 76416, Note_on_c, 0, 79, 0
2, 76468, Note_on_c, 0, 72, 0
2, 76476, Note_on_c, 0, 81, 82
2, 76476, Note_on_c, 0, 78, 73
2, 76480, Note_on_c, 0, 75, 65
2, 76524, Note_on_c, 0, 75, 0
2, 76540, Note_on_c, 0, 78, 0
2, 76544, Note_on_c, 0, 81, 0
2, 76548, Note_on_c, 0, 72, 83
2, 76608, Note_on_c, 0, 72, 0
2, 76628, Note_on_c, 0, 82, 82
2, 76632, Note_on_c, 0, 74, 58
2, 76640, Note_on_c, 0, 79, 59
2, 76664, Note_on_c, 0, 74, 0
2, 76700, Note_on_c, 0, 79, 0
2, 76704, Note_on_c, 0, 82, 0
2, 76704, Note_on_c, 0, 72, 77
2, 76768, Note_on_c, 0, 72, 0
2, 76780, Note_on_c, 0, 81, 81
2, 76784, Note_on_c, 0, 78, 65
2, 76788, Note_on_c, 0, 75, 58
2, 76840, Note_on_c, 0, 75, 0
2, 76844, Note_on_c, 0, 81, 0
2, 76852, Note_on_c, 0, 78, 0
2, 76852, Note_on_c, 0, 72, 87
2, 76912, Note_on_c, 0, 72, 0
2, 76912, Control_c, 0, 64, 72
2, 76920, Control_c, 0, 64, 0
2, 76928, Note_on_c, 0, 82, 81
2, 76936, Note_on_c, 0, 79, 66
2, 76936, Note_on_c, 0, 60, 50
2, 76936, Note_on_c, 0, 74, 55
2, 76944, Note_on_c, 0, 48, 62
2, 76968, Note_on_c, 0, 74, 0
2, 76968, Control_c, 0, 64, 24
2, 76976, Control_c, 0, 64, 104
2, 76984, Control_c, 0, 64, 127
2, 76988, Note_on_c, 0, 60, 0
2, 76996, Note_on_c, 0, 79, 0
2, 77004, Note_on_c, 0, 82, 0
2, 77004, Note_on_c, 0, 72, 87
2, 77056, Note_on_c, 0, 72, 0
2, 77088, Note_on_c, 0, 79, 55
2, 77088, Note_on_c, 0, 84, 92
2, 77088, Note_on_c, 0, 60, 70
2, 77092, Note_on_c, 0, 76, 70
2, 77112, Note_on_c, 0, 60, 0
2, 77120, Note_on_c, 0, 48, 0
2, 77144, Note_on_c, 0, 76, 0
2, 77148, Note_on_c, 0, 84, 0
2, 77148, Note_on_c, 0, 79, 0
2, 77160, Note_on_c, 0, 72, 84
2, 77204, Note_on_c, 0, 72, 0
2, 77244, Control_c, 0, 64, 72
2, 77252, Note_on_c, 0, 81, 88
2, 77252, Note_on_c, 0, 77, 83
2, 77252, Note_on_c, 0, 72, 82
2, 77252, Note_on_c, 0, 53, 71
2, 77252, Note_on_c, 0, 41, 70
2, 77252, Control_c, 0, 64, 0
2, 77296, Note_on_c, 0, 41, 0
2, 77304, Note_on_c, 0, 53, 0
2, 77304, Control_c, 0, 64, 40
2, 77312, Control_c, 0, 64, 127
2, 77316, Note_on_c, 0, 72, 0
2, 77328, Note_on_c, 0, 77, 0
2, 77348, Note_on_c, 0, 81, 0
2, 77568, Control_c, 0, 64, 0
2, 77584, Note_on_c, 0, 69, 84
2, 77584, Note_on_c, 0, 45, 68
2, 77584, Note_on_c, 0, 57, 72
2, 77584, Note_on_c, 0, 85, 70
2, 77584, Note_on_c, 0, 73, 66
2, 77584, Note_on_c, 0, 81, 67
2, 77584, Note_on_c, 0, 79, 67
2, 77584, Note_on_c, 0, 76, 69
2, 77584, Note_on_c, 0, 33, 71
2, 77612, Note_on_c, 0, 45, 0
2, 77648, Note_on_c, 0, 57, 0
2, 77676, Note_on_c, 0, 69, 0
2, 77768, Note_on_c, 0, 71, 89
2, 77772, Note_on_c, 0, 59, 75
2, 77784, Note_on_c, 0, 47, 69
2, 77812, Note_on_c, 0, 47, 0
2, 77828, Note_on_c, 0, 59, 0
2, 77872, Note_on_c, 0, 71, 0
2, 77944, Note_on_c, 0, 73, 85
2, 77952, Note_on_c, 0, 61, 81
2, 77956, Note_on_c, 0, 49, 81
2, 77996, Note_on_c, 0, 49, 0
2, 77996, Note_on_c, 0, 61, 0
2, 78024, Note_on_c, 0, 73, 0
2, 78116, Note_on_c, 0, 74, 86
2, 78128, Note_on_c, 0, 62, 80
2, 78132, Note_on_c, 0, 50, 83
2, 78164, Note_on_c, 0, 50, 0
2, 78184, Note_on_c, 0, 62, 0
2, 78208, Note_on_c, 0, 74, 0
2, 78224, Note_on_c, 0, 76, 0
2, 78224, Note_on_c, 0, 81, 0
2, 78224, Note_on_c, 0, 73, 0
2, 78224, Note_on_c, 0, 85, 0
2, 78224, Note_on_c, 0, 79, 0
2, 78224, Note_on_c, 0, 33, 0
2, 78296, Note_on_c, 0, 76, 89
2, 78296, Note_on_c, 0, 52, 82
2, 78296, Note_on_c, 0, 64, 80
2, 78336, Note_on_c, 0, 52, 0
2, 78356, Note_on_c, 0, 64, 0
2, 78440, Note_on_c, 0, 76, 0
2, 78456, Note_on_c, 0, 77, 89
2, 78468, Note_on_c, 0, 65, 72
2, 78476, Note_on_c, 0, 53, 75
2, 78500, Note_on_c, 0, 53, 0
2, 78512, Note_on_c, 0, 77, 0
2, 78528, Note_on_c, 0, 65, 0
2, 78568, Note_on_c, 0, 79, 79
2, 78608, Note_on_c, 0, 81, 83
2, 78616, Note_on_c, 0, 79, 0
2, 78660, Note_on_c, 0, 79, 94
2, 78660, Note_on_c, 0, 67, 81
2, 78660, Note_on_c, 0, 55, 80
2, 78664, Note_on_c, 0, 81, 0
2, 78704, Note_on_c, 0, 55, 0
2, 78716, Note_on_c, 0, 67, 0
2, 78828, Note_on_c, 0, 79, 0
2, 78832, Note_on_c, 0, 64, 79
2, 78844, Note_on_c, 0, 76, 89
2, 78844, Note_on_c, 0, 52, 79
2, 78872, Note_on_c, 0, 52, 0
2, 78888, Note_on_c, 0, 64, 0
2, 78936, Note_on_c, 0, 76, 0
2, 79000, Note_on_c, 0, 73, 84
2, 79012, Note_on_c, 0, 61, 77
2, 79020, Note_on_c, 0, 49, 74
2, 79048, Note_on_c, 0, 49, 0
2, 79056, Note_on_c, 0, 61, 0
2, 79096, Note_on_c, 0, 73, 0
2, 79176, Note_on_c, 0, 70, 85
2, 79188, Note_on_c, 0, 58, 79
2, 79188, Note_on_c, 0, 46, 84
2, 79236, Note_on_c, 0, 46, 0
2, 79240, Note_on_c, 0, 58, 0
2, 79280, Note_on_c, 0, 70, 0
2, 79364, Note_on_c, 0, 69, 90
2, 79364, Note_on_c, 0, 57, 78
2, 79368, Note_on_c, 0, 45, 85
2, 79420, Note_on_c, 0, 57, 0
2, 79428, Note_on_c, 0, 45, 0
2, 79480, Note_on_c, 0, 69, 0
2, 79536, Note_on_c, 0, 67, 85
2, 79536, Note_on_c, 0, 55, 82
2, 79536, Note_on_c, 0, 43, 81
2, 79588, Note_on_c, 0, 43, 0
2, 79588, Note_on_c, 0, 55, 0
2, 79636, Note_on_c, 0, 67, 0
2, 79708, Note_on_c, 0, 65, 90
2, 79720, Note_on_c, 0, 53, 77
2, 79732, Note_on_c, 0, 41, 56
2, 79776, Note_on_c, 0, 41, 0
2, 79776, Note_on_c, 0, 53, 0
2, 79800, Note_on_c, 0, 65, 0
2, 79888, Note_on_c, 0, 64, 89
2, 79888, Note_on_c, 0, 52, 77
2, 79900, Note_on_c, 0, 40, 74
2, 79952, Note_on_c, 0, 52, 0
2, 79964, Note_on_c, 0, 40, 0
2, 80012, Note_on_c, 0, 64, 0
2, 80096, Note_on_c, 0, 62, 89
2, 80096, Note_on_c, 0, 38, 73
2, 80096, Note_on_c, 0, 50, 70
2, 80124, Note_on_c, 0, 38, 0
2, 80148, Control_c, 0, 64, 88
2, 80156, Note_on_c, 0, 50, 0
2, 80164, Note_on_c, 0, 62, 0
2, 80164, Control_c, 0, 64, 127
2, 80460, Control_c, 0, 64, 88
2, 80468, Note_on_c, 0, 81, 81
2, 80472, Note_on_c, 0, 77, 67
2, 80476, Note_on_c, 0, 69, 46
2, 80476, Control_c, 0, 64, 0
2, 80484, Note_on_c, 0, 62, 53
2, 80484, Note_on_c, 0, 65, 49
2, 80520, Control_c, 0, 64, 56
2, 80536, Control_c, 0, 64, 127
2, 80552, Note_on_c, 0, 69, 0
2, 80556, Note_on_c, 0, 62, 0
2, 80568, Note_on_c, 0, 65, 0
2, 80600, Note_on_c, 0, 77, 0
2, 80640, Note_on_c, 0, 81, 0
2, 80676, Control_c, 0, 64, 72
2, 80684, Note_on_c, 0, 82, 81
2, 80692, Note_on_c, 0, 77, 64
2, 80692, Control_c, 0, 64, 24
2, 80700, Note_on_c, 0, 70, 51
2, 80708, Control_c, 0, 64, 0
2, 80712, Note_on_c, 0, 62, 45
2, 80716, Note_on_c, 0, 65, 48
2, 80724, Control_c, 0, 64, 40
2, 80740, Control_c, 0, 64, 88
2, 80756, Control_c, 0, 64, 127
2, 80768, Note_on_c, 0, 77, 0
2, 80772, Note_on_c, 0, 65, 0
2, 80780, Note_on_c, 0, 82, 0
2, 80780, Note_on_c, 0, 70, 0
2, 80780, Note_on_c, 0, 62, 0
2, 80936, Note_on_c, 0, 82, 84
2, 80936, Note_on_c, 0, 62, 54
2, 80936, Note_on_c, 0, 77, 68
2, 80936, Note_on_c, 0, 70, 53
2, 80936, Note_on_c, 0, 65, 50
2, 80936, Note_on_c, 0, 50, 68
2, 80972, Control_c, 0, 64, 104
2, 80988, Control_c, 0, 64, 24
2, 80992, Note_on_c, 0, 77, 0
2, 81004, Control_c, 0, 64, 0
2, 81048, Control_c, 0, 64, 88
2, 81060, Control_c, 0, 64, 127
2, 81124, Note_on_c, 0, 82, 0
2, 81164, Note_on_c, 0, 89, 96
2, 81256, Note_on_c, 0, 89, 0
2, 81348, Note_on_c, 0, 89, 94
2, 81360, Note_on_c, 0, 77, 74
2, 81364, Note_on_c, 0, 62, 39
2, 81364, Note_on_c, 0, 70, 43
2, 81364, Note_on_c, 0, 65, 43
2, 81408, Note_on_c, 0, 62, 0
2, 81408, Note_on_c, 0, 62, 0
2, 81416, Note_on_c, 0, 65, 0
2, 81420, Note_on_c, 0, 77, 0
2, 81432, Note_on_c, 0, 70, 0
2, 81440, Note_on_c, 0, 65, 0
2, 81444, Note_on_c, 0, 89, 0
2, 81448, Note_on_c, 0, 70, 0
2, 81524, Note_on_c, 0, 88, 87
2, 81536, Note_on_c, 0, 70, 56
2, 81540, Note_on_c, 0, 62, 49
2, 81544, Note_on_c, 0, 65, 42
2, 81576, Note_on_c, 0, 50, 0
2, 81584, Note_on_c, 0, 62, 0
2, 81588, Note_on_c, 0, 65, 0
2, 81600, Note_on_c, 0, 70, 0
2, 81628, Note_on_c, 0, 88, 0
2, 81704, Note_on_c, 0, 70, 53
2, 81708, Note_on_c, 0, 65, 59
2, 81708, Note_on_c, 0, 88, 84
2, 81716, Note_on_c, 0, 77, 78
2, 81720, Note_on_c, 0, 62, 39
2, 81760, Note_on_c, 0, 62, 0
2, 81776, Note_on_c, 0, 65, 0
2, 81784, Note_on_c, 0, 70, 0
2, 81816, Note_on_c, 0, 88, 0
2, 81816, Note_on_c, 0, 77, 0
2, 81884, Note_on_c, 0, 86, 90
2, 81988, Note_on_c, 0, 86, 0
2, 82056, Control_c, 0, 64, 56
2, 82072, Note_on_c, 0, 86, 78
2, 82072, Control_c, 0, 64, 0
2, 82076, Note_on_c, 0, 74, 71
2, 82080, Note_on_c, 0, 77, 66
2, 82088, Note_on_c, 0, 62, 54
2, 82100, Note_on_c, 0, 65, 50
2, 82116, Control_c, 0, 64, 56
2, 82132, Control_c, 0, 64, 104
2, 82148, Control_c, 0, 64, 127
2, 82152, Note_on_c, 0, 74, 0
2, 82160, Note_on_c, 0, 62, 0
2, 82168, Note_on_c, 0, 77, 0
2, 82176, Note_on_c, 0, 65, 0
2, 82180, Note_on_c, 0, 86, 0
2, 82260, Note_on_c, 0, 72, 84
2, 82264, Note_on_c, 0, 84, 85
2, 82280, Note_on_c, 0, 65, 41
2, 82280, Note_on_c, 0, 77, 53
2, 82292, Note_on_c, 0, 62, 37
2, 82316, Note_on_c, 0, 77, 0
2, 82332, Note_on_c, 0, 62, 0
2, 82340, Note_on_c, 0, 72, 0
2, 82348, Note_on_c, 0, 65, 0
2, 82356, Note_on_c, 0, 84, 0
2, 82460, Control_c, 0, 64, 72
2, 82464, Note_on_c, 0, 84, 86
2, 82468, Note_on_c, 0, 77, 72
2, 82476, Note_on_c, 0, 72, 86
2, 82476, Control_c, 0, 64, 24
2, 82480, Note_on_c, 0, 65, 58
2, 82492, Note_on_c, 0, 62, 52
2, 82504, Control_c, 0, 64, 40
2, 82520, Control_c, 0, 64, 88
2, 82536, Control_c, 0, 64, 127
2, 82604, Note_on_c, 0, 62, 0
2, 82628, Note_on_c, 0, 84, 0
2, 82652, Note_on_c, 0, 82, 76
2, 82656, Note_on_c, 0, 70, 72
2, 82664, Note_on_c, 0, 72, 0
2, 82692, Note_on_c, 0, 77, 0
2, 82716, Note_on_c, 0, 70, 0
2, 82724, Note_on_c, 0, 65, 0
2, 82744, Note_on_c, 0, 82, 0
2, 82816, Control_c, 0, 64, 72
2, 82836, Note_on_c, 0, 82, 83
2, 82844, Note_on_c, 0, 65, 58
2, 82848, Note_on_c, 0, 70, 60
2, 82848, Note_on_c, 0, 77, 65
2, 82848, Note_on_c, 0, 62, 53
2, 82848, Control_c, 0, 64, 88
2, 82864, Control_c, 0, 64, 127
2, 82920, Note_on_c, 0, 77, 0
2, 82928, Note_on_c, 0, 70, 0
2, 82940, Note_on_c, 0, 62, 0
2, 82956, Note_on_c, 0, 82, 0
2, 82968, Note_on_c, 0, 65, 0
2, 83000, Note_on_c, 0, 69, 62
2, 83008, Note_on_c, 0, 81, 83
2, 83020, Note_on_c, 0, 65, 38
2, 83028, Note_on_c, 0, 77, 63
2, 83028, Note_on_c, 0, 62, 37
2, 83060, Note_on_c, 0, 77, 0
2, 83072, Note_on_c, 0, 62, 0
2, 83076, Note_on_c, 0, 69, 0
2, 83088, Note_on_c, 0, 81, 0
2, 83096, Note_on_c, 0, 65, 0
2, 83172, Control_c, 0, 64, 56
2, 83184, Control_c, 0, 64, 0
2, 83192, Note_on_c, 0, 81, 78
2, 83196, Note_on_c, 0, 69, 66
2, 83196, Note_on_c, 0, 62, 49
2, 83200, Note_on_c, 0, 77, 62
2, 83208, Note_on_c, 0, 65, 57
2, 83232, Control_c, 0, 64, 40
2, 83248, Control_c, 0, 64, 88
2, 83264, Control_c, 0, 64, 127
2, 83348, Note_on_c, 0, 69, 0
2, 83356, Note_on_c, 0, 81, 0
2, 83380, Note_on_c, 0, 80, 77
2, 83392, Note_on_c, 0, 65, 0
2, 83396, Note_on_c, 0, 77, 0
2, 83400, Note_on_c, 0, 68, 51
2, 83412, Note_on_c, 0, 62, 0
2, 83468, Note_on_c, 0, 80, 0
2, 83484, Note_on_c, 0, 68, 0
2, 83560, Control_c, 0, 64, 88
2, 83576, Control_c, 0, 64, 24
2, 83580, Note_on_c, 0, 80, 78
2, 83592, Note_on_c, 0, 68, 44
2, 83592, Control_c, 0, 64, 0
2, 83600, Note_on_c, 0, 76, 58
2, 83604, Control_c, 0, 64, 24
2, 83608, Note_on_c, 0, 60, 60
2, 83620, Note_on_c, 0, 64, 56
2, 83620, Control_c, 0, 64, 72
2, 83636, Control_c, 0, 64, 127
2, 83684, Note_on_c, 0, 76, 0
2, 83688, Note_on_c, 0, 68, 0
2, 83692, Note_on_c, 0, 60, 0
2, 83704, Note_on_c, 0, 64, 0
2, 83728, Note_on_c, 0, 80, 0
2, 83784, Note_on_c, 0, 81, 89
2, 83792, Note_on_c, 0, 69, 59
2, 83800, Note_on_c, 0, 64, 45
2, 83804, Note_on_c, 0, 76, 58
2, 83804, Note_on_c, 0, 60, 44
2, 83844, Note_on_c, 0, 60, 0
2, 83844, Note_on_c, 0, 76, 0
2, 83856, Note_on_c, 0, 64, 0
2, 83856, Note_on_c, 0, 69, 0
2, 83884, Note_on_c, 0, 81, 0
2, 83960, Control_c, 0, 64, 88
2, 83976, Control_c, 0, 64, 24
2, 83992, Note_on_c, 0, 69, 52
2, 83992, Note_on_c, 0, 48, 64
2, 83992, Control_c, 0, 64, 0
2, 84000, Note_on_c, 0, 81, 86
2, 84000, Note_on_c, 0, 76, 60
2, 84000, Note_on_c, 0, 60, 57
2, 84000, Note_on_c, 0, 64, 43
2, 84056, Control_c, 0, 64, 72
2, 84068, Control_c, 0, 64, 127
2, 84136, Note_on_c, 0, 76, 0
2, 84164, Note_on_c, 0, 81, 0
2, 84200, Note_on_c, 0, 88, 89
2, 84288, Note_on_c, 0, 88, 0
2, 84364, Note_on_c, 0, 69, 51
2, 84368, Note_on_c, 0, 88, 86
2, 84372, Note_on_c, 0, 60, 44
2, 84380, Note_on_c, 0, 76, 72
2, 84380, Note_on_c, 0, 64, 39
2, 84424, Note_on_c, 0, 64, 0
2, 84424, Note_on_c, 0, 60, 0
2, 84432, Note_on_c, 0, 69, 0
2, 84452, Note_on_c, 0, 76, 0
2, 84460, Note_on_c, 0, 88, 0
2, 84528, Note_on_c, 0, 60, 0
2, 84544, Note_on_c, 0, 86, 88
2, 84556, Note_on_c, 0, 64, 0
2, 84564, Note_on_c, 0, 69, 56
2, 84564, Note_on_c, 0, 76, 63
2, 84572, Note_on_c, 0, 69, 0
2, 84572, Note_on_c, 0, 64, 52
2, 84576, Note_on_c, 0, 60, 44
2, 84600, Note_on_c, 0, 76, 0
2, 84612, Note_on_c, 0, 64, 0
2, 84624, Note_on_c, 0, 69, 0
2, 84624, Note_on_c, 0, 60, 0
2, 84632, Note_on_c, 0, 48, 0
2, 84644, Note_on_c, 0, 86, 0
2, 84724, Note_on_c, 0, 86, 87
2, 84732, Note_on_c, 0, 64, 61
2, 84736, Note_on_c, 0, 76, 76
2, 84736, Note_on_c, 0, 69, 55
2, 84744, Note_on_c, 0, 60, 34
2, 84792, Note_on_c, 0, 60, 0
2, 84824, Note_on_c, 0, 69, 0
2, 84828, Note_on_c, 0, 64, 0
2, 84836, Note_on_c, 0, 76, 0
2, 84836, Note_on_c, 0, 86, 0
2, 84892, Note_on_c, 0, 84, 94
2, 84996, Note_on_c, 0, 84, 0
2, 85064, Control_c, 0, 64, 88
2, 85076, Control_c, 0, 64, 24
2, 85088, Note_on_c, 0, 84, 84
2, 85088, Note_on_c, 0, 72, 83
2, 85092, Control_c, 0, 64, 0
2, 85100, Note_on_c, 0, 76, 66
2, 85100, Note_on_c, 0, 60, 58
2, 85100, Note_on_c, 0, 64, 63
2, 85124, Control_c, 0, 64, 24
2, 85140, Control_c, 0, 64, 72
2, 85156, Control_c, 0, 64, 127
2, 85168, Note_on_c, 0, 72, 0
2, 85180, Note_on_c, 0, 64, 0
2, 85196, Note_on_c, 0, 84, 0
2, 85196, Note_on_c, 0, 76, 0
2, 85220, Note_on_c, 0, 60, 0
2, 85276, Note_on_c, 0, 83, 83
2, 85280, Note_on_c, 0, 71, 72
2, 85300, Note_on_c, 0, 64, 58
2, 85300, Note_on_c, 0, 60, 33
2, 85300, Note_on_c, 0, 76, 55
2, 85336, Note_on_c, 0, 76, 0
2, 85340, Note_on_c, 0, 60, 0
2, 85344, Note_on_c, 0, 64, 0
2, 85352, Note_on_c, 0, 71, 0
2, 85368, Note_on_c, 0, 83, 0
2, 85448, Control_c, 0, 64, 88
2, 85464, Note_on_c, 0, 83, 82
2, 85464, Control_c, 0, 64, 56
2, 85472, Note_on_c, 0, 71, 65
2, 85472, Note_on_c, 0, 76, 69
2, 85476, Note_on_c, 0, 64, 60
2, 85484, Control_c, 0, 64, 72
2, 85488, Note_on_c, 0, 60, 46
2, 85500, Control_c, 0, 64, 104
2, 85512, Control_c, 0, 64, 127
2, 85560, Note_on_c, 0, 71, 0
2, 85604, Note_on_c, 0, 60, 0
2, 85604, Note_on_c, 0, 76, 0
2, 85620, Note_on_c, 0, 64, 0
2, 85624, Note_on_c, 0, 83, 0
2, 85640, Note_on_c, 0, 81, 80
2, 85656, Note_on_c, 0, 69, 69
2, 85672, Note_on_c, 0, 64, 24
2, 85676, Note_on_c, 0, 60, 24
2, 85712, Note_on_c, 0, 69, 0
2, 85724, Note_on_c, 0, 81, 0
2, 85724, Note_on_c, 0, 64, 0
2, 85724, Note_on_c, 0, 60, 0
2, 85792, Control_c, 0, 64, 72
2, 85804, Control_c, 0, 64, 40
2, 85820, Note_on_c, 0, 81, 87
2, 85824, Control_c, 0, 64, 56
2, 85828, Note_on_c, 0, 76, 70
2, 85828, Note_on_c, 0, 69, 69
2, 85840, Control_c, 0, 64, 88
2, 85856, Note_on_c, 0, 60, 41
2, 85856, Control_c, 0, 64, 127
2, 85884, Note_on_c, 0, 76, 0
2, 85896, Note_on_c, 0, 69, 0
2, 85924, Note_on_c, 0, 81, 0
2, 85936, Note_on_c, 0, 60, 0
2, 85976, Control_c, 0, 64, 88
2, 85992, Control_c, 0, 64, 72
2, 86000, Note_on_c, 0, 79, 80
2, 86004, Note_on_c, 0, 67, 63
2, 86012, Note_on_c, 0, 75, 60
2, 86016, Note_on_c, 0, 60, 51
2, 86016, Note_on_c, 0, 63, 46
2, 86024, Control_c, 0, 64, 104
2, 86040, Control_c, 0, 64, 127
2, 86076, Note_on_c, 0, 75, 0
2, 86080, Note_on_c, 0, 60, 0
2, 86080, Note_on_c, 0, 67, 0
2, 86088, Note_on_c, 0, 63, 0
2, 86096, Note_on_c, 0, 79, 0
2, 86192, Control_c, 0, 64, 88
2, 86212, Control_c, 0, 64, 24
2, 86220, Note_on_c, 0, 79, 78
2, 86220, Note_on_c, 0, 67, 44
2, 86228, Note_on_c, 0, 75, 50
2, 86228, Note_on_c, 0, 60, 54
2, 86228, Note_on_c, 0, 63, 38
2, 86228, Control_c, 0, 64, 0
2, 86256, Control_c, 0, 64, 24
2, 86272, Control_c, 0, 64, 72
2, 86288, Control_c, 0, 64, 127
2, 86380, Note_on_c, 0, 75, 0
2, 86384, Note_on_c, 0, 79, 0
2, 86384, Note_on_c, 0, 67, 0
2, 86408, Note_on_c, 0, 78, 77
2, 86420, Note_on_c, 0, 66, 49
2, 86456, Note_on_c, 0, 60, 0
2, 86472, Note_on_c, 0, 63, 0
2, 86492, Note_on_c, 0, 66, 0
2, 86496, Note_on_c, 0, 78, 0
2, 86600, Control_c, 0, 64, 56
2, 86612, Control_c, 0, 64, 0
2, 86636, Note_on_c, 0, 78, 75
2, 86652, Note_on_c, 0, 66, 51
2, 86656, Note_on_c, 0, 74, 65
2, 86672, Note_on_c, 0, 58, 37
2, 86680, Note_on_c, 0, 62, 42
2, 86704, Control_c, 0, 64, 88
2, 86720, Control_c, 0, 64, 127
2, 86728, Note_on_c, 0, 62, 0
2, 86736, Note_on_c, 0, 66, 0
2, 86752, Note_on_c, 0, 74, 0
2, 86764, Note_on_c, 0, 58, 0
2, 86788, Note_on_c, 0, 78, 0
2, 86852, Note_on_c, 0, 79, 86
2, 86852, Note_on_c, 0, 58, 53
2, 86856, Note_on_c, 0, 67, 63
2, 86860, Note_on_c, 0, 74, 59
2, 86860, Note_on_c, 0, 62, 50
2, 86916, Note_on_c, 0, 74, 0
2, 86928, Note_on_c, 0, 62, 0
2, 86932, Note_on_c, 0, 67, 0
2, 86944, Note_on_c, 0, 58, 0
2, 86944, Note_on_c, 0, 79, 0
2, 87048, Control_c, 0, 64, 88
2, 87064, Note_on_c, 0, 79, 82
2, 87064, Note_on_c, 0, 46, 60
2, 87064, Note_on_c, 0, 67, 56
2, 87064, Note_on_c, 0, 62, 51
2, 87064, Note_on_c, 0, 74, 68
2, 87064, Note_on_c, 0, 58, 57
2, 87064, Control_c, 0, 64, 24
2, 87108, Control_c, 0, 64, 127
2, 87120, Note_on_c, 0, 74, 0
2, 87160, Note_on_c, 0, 79, 0
2, 87304, Note_on_c, 0, 74, 87
2, 87372, Note_on_c, 0, 74, 0
2, 87488, Note_on_c, 0, 62, 0
2, 87516, Note_on_c, 0, 46, 0
2, 87524, Note_on_c, 0, 67, 0
2, 87536, Note_on_c, 0, 74, 82
2, 87636, Note_on_c, 0, 74, 0
2, 87704, Note_on_c, 0, 58, 0
2, 87740, Note_on_c, 0, 72, 89
2, 87752, Note_on_c, 0, 74, 65
2, 87816, Note_on_c, 0, 72, 0
2, 87832, Note_on_c, 0, 74, 0
2, 87920, Note_on_c, 0, 74, 51
2, 87936, Note_on_c, 0, 72, 84
2, 88012, Note_on_c, 0, 72, 0
2, 88020, Note_on_c, 0, 74, 0
2, 88116, Note_on_c, 0, 86, 84
2, 88120, Note_on_c, 0, 70, 82
2, 88124, Note_on_c, 0, 74, 69
2, 88188, Note_on_c, 0, 74, 0
2, 88192, Note_on_c, 0, 70, 0
2, 88204, Note_on_c, 0, 86, 0
2, 88300, Note_on_c, 0, 86, 87
2, 88300, Note_on_c, 0, 70, 72
2, 88308, Note_on_c, 0, 74, 68
2, 88376, Note_on_c, 0, 74, 0
2, 88384, Note_on_c, 0, 86, 0
2, 88420, Note_on_c, 0, 70, 0
2, 88472, Note_on_c, 0, 84, 90
2, 88472, Control_c, 0, 64, 104
2, 88476, Note_on_c, 0, 69, 72
2, 88480, Note_on_c, 0, 74, 71
2, 88488, Control_c, 0, 64, 56
2, 88500, Control_c, 0, 64, 40
2, 88520, Control_c, 0, 64, 72
2, 88532, Control_c, 0, 64, 127
2, 88548, Note_on_c, 0, 74, 0
2, 88548, Note_on_c, 0, 69, 0
2, 88560, Note_on_c, 0, 84, 0
2, 88652, Note_on_c, 0, 84, 89
2, 88656, Note_on_c, 0, 74, 77
2, 88656, Note_on_c, 0, 69, 79
2, 88660, Control_c, 0, 64, 88
2, 88672, Control_c, 0, 64, 104
2, 88688, Control_c, 0, 64, 127
2, 88748, Note_on_c, 0, 74, 0
2, 88756, Note_on_c, 0, 84, 0
2, 88768, Note_on_c, 0, 69, 0
2, 88824, Note_on_c, 0, 82, 85
2, 88828, Control_c, 0, 64, 104
2, 88832, Note_on_c, 0, 67, 72
2, 88836, Note_on_c, 0, 74, 66
2, 88876, Control_c, 0, 64, 127
2, 88896, Note_on_c, 0, 67, 0
2, 88900, Note_on_c, 0, 74, 0
2, 88920, Note_on_c, 0, 82, 0
2, 88968, Control_c, 0, 64, 88
2, 88984, Control_c, 0, 64, 56
2, 89004, Note_on_c, 0, 82, 85
2, 89012, Control_c, 0, 64, 88
2, 89020, Note_on_c, 0, 67, 71
2, 89020, Note_on_c, 0, 74, 70
2, 89028, Control_c, 0, 64, 127
2, 89108, Note_on_c, 0, 74, 0
2, 89124, Note_on_c, 0, 67, 0
2, 89132, Note_on_c, 0, 82, 0
2, 89172, Control_c, 0, 64, 104
2, 89184, Note_on_c, 0, 81, 86
2, 89184, Note_on_c, 0, 65, 70
2, 89184, Control_c, 0, 64, 56
2, 89192, Note_on_c, 0, 74, 55
2, 89196, Control_c, 0, 64, 72
2, 89216, Control_c, 0, 64, 104
2, 89232, Control_c, 0, 64, 127
2, 89240, Note_on_c, 0, 74, 0
2, 89264, Note_on_c, 0, 65, 0
2, 89272, Note_on_c, 0, 81, 0
2, 89324, Control_c, 0, 64, 104
2, 89340, Control_c, 0, 64, 40
2, 89356, Control_c, 0, 64, 0
2, 89368, Note_on_c, 0, 81, 85
2, 89372, Note_on_c, 0, 65, 76
2, 89372, Control_c, 0, 64, 24
2, 89376, Note_on_c, 0, 74, 68
2, 89384, Control_c, 0, 64, 72
2, 89400, Control_c, 0, 64, 127
2, 89496, Control_c, 0, 64, 104
2, 89512, Control_c, 0, 64, 72
2, 89516, Note_on_c, 0, 74, 0
2, 89516, Note_on_c, 0, 81, 0
2, 89532, Note_on_c, 0, 65, 0
2, 89540, Note_on_c, 0, 64, 76
2, 89548, Note_on_c, 0, 79, 84
2, 89556, Control_c, 0, 64, 127
2, 89596, Note_on_c, 0, 64, 0
2, 89608, Note_on_c, 0, 79, 0
2, 89728, Note_on_c, 0, 58, 69
2, 89728, Control_c, 0, 64, 56
2, 89740, Note_on_c, 0, 79, 87
2, 89740, Note_on_c, 0, 67, 70
2, 89740, Note_on_c, 0, 46, 64
2, 89744, Control_c, 0, 64, 24
2, 89756, Control_c, 0, 64, 40
2, 89772, Control_c, 0, 64, 88
2, 89788, Note_on_c, 0, 46, 0
2, 89788, Note_on_c, 0, 58, 0
2, 89792, Control_c, 0, 64, 127
2, 89800, Note_on_c, 0, 67, 0
2, 89808, Note_on_c, 0, 79, 0
2, 89924, Note_on_c, 0, 67, 80
2, 89928, Note_on_c, 0, 79, 97
2, 89932, Note_on_c, 0, 46, 77
2, 89936, Note_on_c, 0, 58, 73
2, 89996, Note_on_c, 0, 58, 0
2, 89996, Note_on_c, 0, 67, 0
2, 90000, Note_on_c, 0, 46, 0
2, 90008, Note_on_c, 0, 79, 0
2, 90136, Note_on_c, 0, 46, 64
2, 90136, Note_on_c, 0, 67, 80
2, 90136, Note_on_c, 0, 79, 94
2, 90140, Note_on_c, 0, 58, 63
2, 90176, Note_on_c, 0, 46, 0
2, 90188, Note_on_c, 0, 58, 0
2, 90192, Note_on_c, 0, 67, 0
2, 90204, Note_on_c, 0, 79, 0
2, 90328, Note_on_c, 0, 67, 85
2, 90336, Note_on_c, 0, 55, 86
2, 90388, Note_on_c, 0, 55, 0
2, 90392, Note_on_c, 0, 67, 0
2, 90544, Note_on_c, 0, 67, 86
2, 90548, Note_on_c, 0, 79, 90
2, 90552, Note_on_c, 0, 55, 82
2, 90608, Note_on_c, 0, 55, 0
2, 90616, Note_on_c, 0, 67, 0
2, 90644, Note_on_c, 0, 79, 0
2, 90748, Note_on_c, 0, 79, 89
2, 90752, Note_on_c, 0, 67, 78
2, 90756, Note_on_c, 0, 65, 74
2, 90760, Note_on_c, 0, 53, 82
2, 90812, Note_on_c, 0, 65, 0
2, 90824, Note_on_c, 0, 53, 0
2, 90828, Note_on_c, 0, 67, 0
2, 90840, Note_on_c, 0, 79, 0
2, 90944, Note_on_c, 0, 67, 78
2, 90948, Note_on_c, 0, 79, 93
2, 90952, Note_on_c, 0, 65, 76
2, 90956, Note_on_c, 0, 53, 81
2, 90988, Note_on_c, 0, 67, 0
2, 91012, Note_on_c, 0, 65, 0
2, 91020, Note_on_c, 0, 79, 0
2, 91020, Note_on_c, 0, 53, 0
2, 91136, Note_on_c, 0, 91, 97
2, 91136, Note_on_c, 0, 52, 69
2, 91136, Note_on_c, 0, 64, 70
2, 91136, Note_on_c, 0, 79, 87
2, 91180, Note_on_c, 0, 52, 0
2, 91184, Note_on_c, 0, 79, 0
2, 91204, Note_on_c, 0, 64, 0
2, 91224, Note_on_c, 0, 91, 0
2, 91344, Note_on_c, 0, 91, 99
2, 91344, Note_on_c, 0, 64, 73
2, 91344, Note_on_c, 0, 52, 74
2, 91344, Note_on_c, 0, 79, 90
2, 91400, Control_c, 0, 64, 40
2, 91412, Note_on_c, 0, 52, 0
2, 91416, Control_c, 0, 64, 0
2, 91432, Note_on_c, 0, 64, 0
2, 91436, Note_on_c, 0, 79, 0
2, 91448, Control_c, 0, 64, 40
2, 91456, Note_on_c, 0, 91, 0
2, 91464, Control_c, 0, 64, 104
2, 91476, Control_c, 0, 64, 127
2, 91560, Note_on_c, 0, 89, 99
2, 91560, Note_on_c, 0, 50, 63
2, 91560, Note_on_c, 0, 62, 71
2, 91560, Note_on_c, 0, 77, 90
2, 91628, Note_on_c, 0, 50, 0
2, 91632, Note_on_c, 0, 77, 0
2, 91636, Note_on_c, 0, 62, 0
2, 91656, Note_on_c, 0, 89, 0
2, 91756, Note_on_c, 0, 50, 72
2, 91756, Note_on_c, 0, 62, 68
2, 91756, Note_on_c, 0, 77, 89
2, 91756, Note_on_c, 0, 89, 94
2, 91820, Note_on_c, 0, 62, 0
2, 91820, Note_on_c, 0, 50, 0
2, 91832, Note_on_c, 0, 77, 0
2, 91836, Note_on_c, 0, 89, 0
2, 91944, Control_c, 0, 64, 72
2, 91948, Note_on_c, 0, 88, 96
2, 91952, Note_on_c, 0, 76, 88
2, 91964, Note_on_c, 0, 60, 68
2, 91968, Note_on_c, 0, 48, 73
2, 91992, Control_c, 0, 64, 127
2, 92020, Note_on_c, 0, 76, 0
2, 92032, Note_on_c, 0, 60, 0
2, 92036, Note_on_c, 0, 88, 0
2, 92036, Note_on_c, 0, 48, 0
2, 92124, Note_on_c, 0, 88, 86
2, 92124, Note_on_c, 0, 48, 68
2, 92124, Note_on_c, 0, 60, 69
2, 92124, Note_on_c, 0, 76, 81
2, 92148, Note_on_c, 0, 60, 0
2, 92152, Note_on_c, 0, 48, 0
2, 92156, Note_on_c, 0, 76, 0
2, 92176, Note_on_c, 0, 88, 0
2, 92256, Control_c, 0, 64, 72
2, 92268, Control_c, 0, 64, 40
2, 92284, Control_c, 0, 64, 56
2, 92288, Note_on_c, 0, 74, 84
2, 92288, Note_on_c, 0, 46, 70
2, 92288, Note_on_c, 0, 86, 92
2, 92288, Note_on_c, 0, 58, 63
2, 92300, Control_c, 0, 64, 104
2, 92316, Control_c, 0, 64, 127
2, 92344, Note_on_c, 0, 46, 0
2, 92352, Note_on_c, 0, 74, 0
2, 92364, Note_on_c, 0, 58, 0
2, 92376, Note_on_c, 0, 86, 0
2, 92452, Control_c, 0, 64, 104
2, 92456, Note_on_c, 0, 86, 92
2, 92464, Note_on_c, 0, 74, 81
2, 92468, Note_on_c, 0, 58, 67
2, 92468, Note_on_c, 0, 46, 69
2, 92468, Control_c, 0, 64, 127
2, 92524, Note_on_c, 0, 74, 0
2, 92536, Note_on_c, 0, 86, 0
2, 92560, Note_on_c, 0, 58, 0
2, 92560, Note_on_c, 0, 46, 0
2, 92624, Control_c, 0, 64, 88
2, 92636, Note_on_c, 0, 84, 100
2, 92640, Note_on_c, 0, 72, 92
2, 92644, Note_on_c, 0, 57, 69
2, 92656, Note_on_c, 0, 45, 66
2, 92672, Control_c, 0, 64, 127
2, 92704, Note_on_c, 0, 72, 0
2, 92716, Note_on_c, 0, 45, 0
2, 92716, Note_on_c, 0, 57, 0
2, 92720, Note_on_c, 0, 84, 0
2, 92812, Control_c, 0, 64, 88
2, 92824, Note_on_c, 0, 84, 99
2, 92824, Note_on_c, 0, 72, 94
2, 92824, Control_c, 0, 64, 56
2, 92828, Note_on_c, 0, 57, 64
2, 92836, Note_on_c, 0, 45, 72
2, 92840, Control_c, 0, 64, 72
2, 92856, Control_c, 0, 64, 104
2, 92872, Control_c, 0, 64, 127
2, 92900, Note_on_c, 0, 45, 0
2, 92920, Note_on_c, 0, 57, 0
2, 92932, Note_on_c, 0, 84, 0
2, 92944, Note_on_c, 0, 72, 0
2, 92996, Control_c, 0, 64, 56
2, 93012, Note_on_c, 0, 82, 86
2, 93012, Control_c, 0, 64, 0
2, 93020, Note_on_c, 0, 72, 71
2, 93028, Note_on_c, 0, 55, 73
2, 93028, Note_on_c, 0, 76, 75
2, 93028, Control_c, 0, 64, 24
2, 93032, Note_on_c, 0, 48, 70
2, 93036, Note_on_c, 0, 43, 66
2, 93040, Control_c, 0, 64, 72
2, 93060, Control_c, 0, 64, 127
2, 93080, Note_on_c, 0, 76, 0
2, 93092, Note_on_c, 0, 48, 0
2, 93096, Note_on_c, 0, 55, 0
2, 93104, Note_on_c, 0, 72, 0
2, 93112, Note_on_c, 0, 43, 0
2, 93124, Note_on_c, 0, 82, 0
2, 93196, Control_c, 0, 64, 72
2, 93200, Note_on_c, 0, 82, 86
2, 93212, Note_on_c, 0, 72, 83
2, 93212, Note_on_c, 0, 55, 68
2, 93220, Note_on_c, 0, 48, 66
2, 93224, Note_on_c, 0, 76, 61
2, 93224, Note_on_c, 0, 43, 63
2, 93244, Control_c, 0, 64, 127
2, 93252, Note_on_c, 0, 76, 0
2, 93272, Note_on_c, 0, 43, 0
2, 93276, Note_on_c, 0, 55, 0
2, 93308, Note_on_c, 0, 72, 0
2, 93324, Note_on_c, 0, 82, 0
2, 93368, Note_on_c, 0, 48, 0
2, 93400, Control_c, 0, 64, 40
2, 93404, Note_on_c, 0, 81, 87
2, 93404, Note_on_c, 0, 48, 33
2, 93412, Note_on_c, 0, 72, 78
2, 93416, Note_on_c, 0, 77, 74
2, 93416, Control_c, 0, 64, 0
2, 93420, Note_on_c, 0, 41, 63
2, 93420, Note_on_c, 0, 53, 59
2, 93428, Control_c, 0, 64, 40
2, 93448, Control_c, 0, 64, 88
2, 93460, Control_c, 0, 64, 127
2, 93464, Note_on_c, 0, 77, 0
2, 93480, Note_on_c, 0, 72, 0
2, 93480, Note_on_c, 0, 53, 0
2, 93500, Note_on_c, 0, 81, 0
2, 93504, Note_on_c, 0, 41, 0
2, 93504, Note_on_c, 0, 48, 0
2, 93584, Control_c, 0, 64, 72
2, 93600, Note_on_c, 0, 48, 66
2, 93600, Control_c, 0, 64, 24
2, 93604, Note_on_c, 0, 81, 87
2, 93608, Note_on_c, 0, 72, 82
2, 93612, Note_on_c, 0, 53, 63
2, 93616, Control_c, 0, 64, 40
2, 93620, Note_on_c, 0, 77, 69
2, 93632, Control_c, 0, 64, 104
2, 93648, Note_on_c, 0, 77, 0
2, 93648, Control_c, 0, 64, 127
2, 93672, Note_on_c, 0, 72, 0
2, 93684, Note_on_c, 0, 81, 0
2, 93696, Note_on_c, 0, 53, 0
2, 93700, Note_on_c, 0, 48, 0
2, 93820, Note_on_c, 0, 77, 94
2, 93820, Note_on_c, 0, 65, 86
2, 93832, Note_on_c, 0, 72, 79
2, 93832, Note_on_c, 0, 45, 59
2, 93832, Note_on_c, 0, 48, 45
2, 93832, Control_c, 0, 64, 88
2, 93836, Note_on_c, 0, 57, 56
2, 93848, Control_c, 0, 64, 24
2, 93860, Note_on_c, 0, 72, 0
2, 93880, Note_on_c, 0, 77, 0
2, 93880, Note_on_c, 0, 65, 0
2, 93896, Control_c, 0, 64, 127
2, 93904, Note_on_c, 0, 45, 0
2, 93912, Note_on_c, 0, 57, 0
2, 93916, Note_on_c, 0, 48, 0
2, 94060, Note_on_c, 0, 77, 89
2, 94064, Note_on_c, 0, 65, 78
2, 94072, Note_on_c, 0, 72, 75
2, 94080, Note_on_c, 0, 48, 65
2, 94080, Note_on_c, 0, 57, 59
2, 94092, Note_on_c, 0, 45, 59
2, 94112, Control_c, 0, 64, 88
2, 94124, Control_c, 0, 64, 0
2, 94192, Note_on_c, 0, 72, 0
2, 94204, Note_on_c, 0, 77, 0
2, 94204, Control_c, 0, 64, 127
2, 94232, Note_on_c, 0, 65, 0
2, 94232, Note_on_c, 0, 57, 0
2, 94260, Note_on_c, 0, 45, 0
2, 94268, Note_on_c, 0, 48, 0
2, 94496, Note_on_c, 0, 72, 92
2, 94512, Note_on_c, 0, 60, 60
2, 94516, Note_on_c, 0, 65, 58
2, 94516, Control_c, 0, 64, 72
2, 94520, Note_on_c, 0, 53, 55
2, 94520, Note_on_c, 0, 45, 55
2, 94524, Note_on_c, 0, 48, 55
2, 94532, Control_c, 0, 64, 0
2, 94560, Control_c, 0, 64, 56
2, 94576, Control_c, 0, 64, 127
2, 94580, Note_on_c, 0, 65, 0
2, 94588, Note_on_c, 0, 45, 0
2, 94592, Note_on_c, 0, 53, 0
2, 94612, Note_on_c, 0, 48, 0
2, 94628, Note_on_c, 0, 72, 0
2, 94644, Note_on_c, 0, 60, 0
2, 94728, Note_on_c, 0, 70, 85
2, 94732, Control_c, 0, 64, 104
2, 94736, Note_on_c, 0, 64, 76
2, 94740, Note_on_c, 0, 60, 60
2, 94740, Note_on_c, 0, 48, 44
2, 94744, Note_on_c, 0, 55, 63
2, 94744, Note_on_c, 0, 43, 58
2, 94748, Control_c, 0, 64, 0
2, 94780, Control_c, 0, 64, 40
2, 94796, Control_c, 0, 64, 104
2, 94800, Note_on_c, 0, 43, 0
2, 94800, Note_on_c, 0, 64, 0
2, 94800, Note_on_c, 0, 60, 0
2, 94812, Note_on_c, 0, 55, 0
2, 94812, Control_c, 0, 64, 127
2, 94820, Note_on_c, 0, 48, 0
2, 94840, Note_on_c, 0, 70, 0
2, 94932, Note_on_c, 0, 70, 79
2, 94932, Control_c, 0, 64, 88
2, 94944, Note_on_c, 0, 55, 55
2, 94944, Note_on_c, 0, 48, 60
2, 94944, Note_on_c, 0, 60, 64
2, 94948, Note_on_c, 0, 64, 63
2, 94948, Note_on_c, 0, 43, 55
2, 94952, Control_c, 0, 64, 40
2, 94964, Control_c, 0, 64, 56
2, 94980, Control_c, 0, 64, 104
2, 94984, Note_on_c, 0, 55, 0
2, 94992, Note_on_c, 0, 64, 0
2, 94996, Control_c, 0, 64, 127
2, 95008, Note_on_c, 0, 43, 0
2, 95040, Note_on_c, 0, 70, 0
2, 95040, Note_on_c, 0, 60, 0
2, 95100, Note_on_c, 0, 48, 0
2, 95148, Note_on_c, 0, 69, 87
2, 95152, Note_on_c, 0, 60, 69
2, 95152, Control_c, 0, 64, 24
2, 95156, Note_on_c, 0, 48, 27
2, 95156, Note_on_c, 0, 65, 70
2, 95164, Note_on_c, 0, 41, 67
2, 95168, Control_c, 0, 64, 0
2, 95196, Note_on_c, 0, 53, 24
2, 95212, Control_c, 0, 64, 72
2, 95216, Note_on_c, 0, 60, 0
2, 95228, Control_c, 0, 64, 127
2, 95236, Note_on_c, 0, 65, 0
2, 95236, Note_on_c, 0, 53, 0
2, 95244, Note_on_c, 0, 69, 0
2, 95248, Note_on_c, 0, 41, 0
2, 95268, Note_on_c, 0, 48, 0
2, 95352, Control_c, 0, 64, 56
2, 95356, Note_on_c, 0, 69, 86
2, 95368, Note_on_c, 0, 60, 70
2, 95368, Note_on_c, 0, 65, 66
2, 95368, Control_c, 0, 64, 0
2, 95380, Note_on_c, 0, 48, 59
2, 95388, Note_on_c, 0, 53, 58
2, 95388, Note_on_c, 0, 41, 46
2, 95416, Control_c, 0, 64, 56
2, 95428, Note_on_c, 0, 65, 0
2, 95432, Control_c, 0, 64, 127
2, 95448, Note_on_c, 0, 69, 0
2, 95464, Note_on_c, 0, 53, 0
2, 95464, Note_on_c, 0, 41, 0
2, 95484, Note_on_c, 0, 60, 0
2, 95492, Note_on_c, 0, 48, 0
2, 95596, Note_on_c, 0, 65, 87
2, 95600, Note_on_c, 0, 60, 78
2, 95612, Note_on_c, 0, 53, 55
2, 95616, Control_c, 0, 64, 24
2, 95620, Note_on_c, 0, 48, 56
2, 95624, Note_on_c, 0, 45, 58
2, 95632, Control_c, 0, 64, 0
2, 95668, Note_on_c, 0, 60, 0
2, 95676, Control_c, 0, 64, 40
2, 95692, Control_c, 0, 64, 127
2, 95700, Note_on_c, 0, 53, 0
2, 95716, Note_on_c, 0, 65, 0
2, 95724, Note_on_c, 0, 45, 0
2, 95724, Note_on_c, 0, 48, 0
2, 95848, Note_on_c, 0, 65, 84
2, 95860, Note_on_c, 0, 60, 72
2, 95868, Note_on_c, 0, 45, 58
2, 95872, Note_on_c, 0, 53, 56
2, 95880, Note_on_c, 0, 48, 59
2, 95912, Control_c, 0, 64, 72
2, 95928, Control_c, 0, 64, 0
2, 96032, Control_c, 0, 64, 88
2, 96048, Control_c, 0, 64, 127
2, 96064, Note_on_c, 0, 45, 0
2, 96076, Note_on_c, 0, 53, 0
2, 96084, Note_on_c, 0, 48, 0
2, 96088, Note_on_c, 0, 65, 0
2, 96092, Note_on_c, 0, 60, 0
2, 96324, Note_on_c, 0, 65, 87
2, 96336, Note_on_c, 0, 60, 80
2, 96336, Note_on_c, 0, 53, 63
2, 96340, Note_on_c, 0, 45, 62
2, 96344, Note_on_c, 0, 48, 63
2, 96344, Control_c, 0, 64, 104
2, 96360, Control_c, 0, 64, 0
2, 96392, Control_c, 0, 64, 24
2, 96404, Control_c, 0, 64, 72
2, 96416, Note_on_c, 0, 53, 0
2, 96420, Control_c, 0, 64, 127
2, 96428, Note_on_c, 0, 45, 0
2, 96440, Note_on_c, 0, 60, 0
2, 96448, Note_on_c, 0, 48, 0
2, 96452, Note_on_c, 0, 65, 0
2, 96588, Note_on_c, 0, 64, 94
2, 96588, Note_on_c, 0, 52, 62
2, 96588, Note_on_c, 0, 48, 66
2, 96588, Note_on_c, 0, 43, 63
2, 96588, Note_on_c, 0, 60, 45
2, 96588, Control_c, 0, 64, 88
2, 96608, Control_c, 0, 64, 0
2, 96628, Note_on_c, 0, 60, 0
2, 96668, Control_c, 0, 64, 56
2, 96676, Note_on_c, 0, 52, 0
2, 96676, Note_on_c, 0, 43, 0
2, 96684, Control_c, 0, 64, 127
2, 96716, Note_on_c, 0, 64, 0
2, 96720, Note_on_c, 0, 48, 0
2, 96956, Note_on_c, 0, 63, 93
2, 96956, Note_on_c, 0, 48, 61
2, 96956, Note_on_c, 0, 42, 57
2, 96956, Note_on_c, 0, 51, 54
2, 96956, Note_on_c, 0, 57, 58
2, 97200, Control_c, 0, 64, 104
2, 97212, Control_c, 0, 64, 40
2, 97228, Control_c, 0, 64, 0
2, 97428, Control_c, 0, 64, 72
2, 97444, Control_c, 0, 64, 104
2, 97460, Control_c, 0, 64, 127
2, 97688, Note_on_c, 0, 63, 0
2, 97756, Note_on_c, 0, 51, 0
2, 97852, Note_on_c, 0, 48, 0
2, 97876, Note_on_c, 0, 62, 76
2, 97876, Note_on_c, 0, 50, 59
2, 97988, Control_c, 0, 64, 40
2, 98004, Control_c, 0, 64, 0
2, 98028, Note_on_c, 0, 42, 0
2, 98096, Control_c, 0, 64, 56
2, 98112, Control_c, 0, 64, 127
2, 98352, Note_on_c, 0, 60, 72
2, 98360, Note_on_c, 0, 50, 0
2, 98376, Note_on_c, 0, 51, 58
2, 98376, Control_c, 0, 64, 72
2, 98392, Control_c, 0, 64, 0
2, 98404, Note_on_c, 0, 62, 0
2, 98436, Control_c, 0, 64, 24
2, 98448, Control_c, 0, 64, 72
2, 98464, Control_c, 0, 64, 127
2, 98488, Note_on_c, 0, 57, 0
2, 98532, Note_on_c, 0, 60, 0
2, 98616, Note_on_c, 0, 51, 0
2, 98748, Control_c, 0, 64, 56
2, 98768, Control_c, 0, 64, 0
2, 98768, Note_on_c, 0, 52, 58
2, 98768, Note_on_c, 0, 43, 62
2, 98776, Control_c, 0, 64, 40
2, 98792, Control_c, 0, 64, 104
2, 98796, Note_on_c, 0, 55, 60
2, 98796, Note_on_c, 0, 60, 72
2, 98808, Control_c, 0, 64, 127
2, 98824, Note_on_c, 0, 55, 0
2, 98832, Note_on_c, 0, 52, 0
2, 98856, Note_on_c, 0, 60, 0
2, 99048, Note_on_c, 0, 76, 91
2, 99056, Note_on_c, 0, 67, 68
2, 99060, Note_on_c, 0, 72, 78
2, 99068, Note_on_c, 0, 55, 47
2, 99072, Note_on_c, 0, 64, 53
2, 99084, Note_on_c, 0, 60, 44
2, 99208, Note_on_c, 0, 43, 0
2, 99472, Note_on_c, 0, 72, 0
2, 99480, Note_on_c, 0, 67, 0
2, 99504, Note_on_c, 0, 55, 0
2, 99516, Note_on_c, 0, 64, 0
2, 99532, Note_on_c, 0, 60, 0
2, 99612, Note_on_c, 0, 76, 0
2, 99944, Note_on_c, 0, 74, 83
2, 99968, Note_on_c, 0, 62, 56
2, 99968, Note_on_c, 0, 67, 47
2, 99968, Note_on_c, 0, 71, 51
2, 99972, Note_on_c, 0, 59, 42
2, 99984, Note_on_c, 0, 55, 46
2, 99984, Note_on_c, 0, 53, 41
2, 100064, Control_c, 0, 64, 104
2, 100076, Control_c, 0, 64, 24
2, 100092, Control_c, 0, 64, 0
2, 100188, Control_c, 0, 64, 88
2, 100204, Control_c, 0, 64, 127
2, 100296, Note_on_c, 0, 53, 0
2, 100300, Note_on_c, 0, 62, 0
2, 100316, Note_on_c, 0, 59, 0
2, 100348, Note_on_c, 0, 55, 0
2, 100420, Note_on_c, 0, 67, 0
2, 100512, Note_on_c, 0, 71, 0
2, 100524, Note_on_c, 0, 74, 0
2, 100600, Note_on_c, 0, 72, 83
2, 100604, Control_c, 0, 64, 104
2, 100616, Note_on_c, 0, 52, 54
2, 100616, Note_on_c, 0, 67, 52
2, 100620, Note_on_c, 0, 55, 50
2, 100620, Control_c, 0, 64, 56
2, 100624, Note_on_c, 0, 60, 48
2, 100636, Control_c, 0, 64, 24
2, 100652, Control_c, 0, 64, 40
2, 100668, Control_c, 0, 64, 72
2, 100684, Control_c, 0, 64, 127
2, 100696, Note_on_c, 0, 55, 0
2, 100708, Note_on_c, 0, 52, 0
2, 100712, Note_on_c, 0, 60, 0
2, 100716, Note_on_c, 0, 67, 0
2, 100724, Note_on_c, 0, 72, 0
2, 100836, Note_on_c, 0, 72, 78
2, 100852, Note_on_c, 0, 67, 46
2, 100864, Note_on_c, 0, 60, 54
2, 100864, Note_on_c, 0, 52, 47
2, 100872, Note_on_c, 0, 55, 40
2, 100896, Control_c, 0, 64, 104
2, 100912, Control_c, 0, 64, 56
2, 100932, Control_c, 0, 64, 0
2, 101132, Control_c, 0, 64, 56
2, 101148, Control_c, 0, 64, 104
2, 101164, Control_c, 0, 64, 127
2, 101240, Control_c, 0, 64, 56
2, 101256, Control_c, 0, 64, 0
2, 101304, Control_c, 0, 64, 88
2, 101320, Control_c, 0, 64, 127
2, 101664, Note_on_c, 0, 60, 0
2, 101668, Note_on_c, 0, 55, 0
2, 101700, Note_on_c, 0, 52, 0
2, 101728, Note_on_c, 0, 67, 0
2, 101736, Note_on_c, 0, 72, 0
2, 101852, Note_on_c, 0, 52, 54
2, 101860, Note_on_c, 0, 60, 55
2, 101864, Note_on_c, 0, 72, 83
2, 101864, Note_on_c, 0, 55, 47
2, 101868, Note_on_c, 0, 67, 62
2, 101892, Note_on_c, 0, 55, 0
2, 101892, Note_on_c, 0, 52, 0
2, 101932, Note_on_c, 0, 60, 0
2, 101940, Note_on_c, 0, 67, 0
2, 101988, Note_on_c, 0, 72, 0
2, 102060, Note_on_c, 0, 59, 49
2, 102064, Note_on_c, 0, 62, 54
2, 102064, Note_on_c, 0, 74, 88
2, 102064, Control_c, 0, 64, 104
2, 102068, Note_on_c, 0, 71, 78
2, 102072, Note_on_c, 0, 55, 46
2, 102076, Note_on_c, 0, 67, 66
2, 102076, Control_c, 0, 64, 72
2, 102124, Control_c, 0, 64, 127
2, 102140, Note_on_c, 0, 59, 0
2, 102144, Note_on_c, 0, 67, 0
2, 102148, Note_on_c, 0, 71, 0
2, 102152, Note_on_c, 0, 62, 0
2, 102152, Note_on_c, 0, 55, 0
2, 102196, Note_on_c, 0, 74, 0
2, 102248, Control_c, 0, 64, 88
2, 102256, Note_on_c, 0, 76, 94
2, 102256, Note_on_c, 0, 67, 78
2, 102260, Note_on_c, 0, 72, 92
2, 102264, Note_on_c, 0, 55, 72
2, 102264, Control_c, 0, 64, 72
2, 102268, Note_on_c, 0, 64, 74
2, 102268, Note_on_c, 0, 60, 79
2, 102276, Control_c, 0, 64, 88
2, 102292, Control_c, 0, 64, 127
2, 102312, Note_on_c, 0, 67, 0
2, 102316, Note_on_c, 0, 72, 0
2, 102316, Note_on_c, 0, 60, 0
2, 102320, Note_on_c, 0, 55, 0
2, 102324, Note_on_c, 0, 76, 0
2, 102336, Note_on_c, 0, 64, 0
2, 102568, Note_on_c, 0, 79, 96
2, 102568, Note_on_c, 0, 76, 68
2, 102568, Note_on_c, 0, 67, 58
2, 102568, Note_on_c, 0, 61, 46
2, 102568, Note_on_c, 0, 58, 55
2, 102568, Note_on_c, 0, 70, 64
2, 102568, Note_on_c, 0, 73, 65
2, 102608, Note_on_c, 0, 64, 49
2, 102620, Control_c, 0, 64, 72
2, 102632, Control_c, 0, 64, 0
2, 102836, Control_c, 0, 64, 127
2, 102988, Note_on_c, 0, 76, 0
2, 103044, Note_on_c, 0, 64, 0
2, 103100, Note_on_c, 0, 70, 0
2, 103132, Note_on_c, 0, 79, 0
2, 103180, Note_on_c, 0, 58, 0
2, 103192, Note_on_c, 0, 67, 0
2, 103204, Note_on_c, 0, 61, 0
2, 103232, Note_on_c, 0, 73, 0
2, 103484, Note_on_c, 0, 77, 80
2, 103484, Note_on_c, 0, 65, 59
2, 103484, Note_on_c, 0, 62, 42
2, 103484, Note_on_c, 0, 57, 46
2, 103484, Note_on_c, 0, 74, 60
2, 103484, Note_on_c, 0, 69, 55
2, 103612, Control_c, 0, 64, 104
2, 103628, Control_c, 0, 64, 40
2, 103640, Control_c, 0, 64, 0
2, 103748, Control_c, 0, 64, 72
2, 103764, Control_c, 0, 64, 127
2, 103776, Note_on_c, 0, 57, 0
2, 103776, Note_on_c, 0, 62, 0
2, 103788, Note_on_c, 0, 74, 0
2, 103816, Note_on_c, 0, 65, 0
2, 103864, Note_on_c, 0, 69, 0
2, 103868, Note_on_c, 0, 77, 0
2, 104112, Note_on_c, 0, 73, 83
2, 104120, Control_c, 0, 64, 88
2, 104124, Note_on_c, 0, 70, 61
2, 104132, Note_on_c, 0, 64, 50
2, 104136, Note_on_c, 0, 61, 39
2, 104140, Note_on_c, 0, 55, 48
2, 104140, Control_c, 0, 64, 0
2, 104152, Note_on_c, 0, 58, 33
2, 104184, Control_c, 0, 64, 56
2, 104188, Note_on_c, 0, 70, 0
2, 104196, Control_c, 0, 64, 104
2, 104212, Note_on_c, 0, 61, 0
2, 104216, Control_c, 0, 64, 127
2, 104220, Note_on_c, 0, 55, 0
2, 104224, Note_on_c, 0, 73, 0
2, 104224, Note_on_c, 0, 58, 0
2, 104224, Note_on_c, 0, 64, 0
2, 104344, Note_on_c, 0, 73, 83
2, 104356, Note_on_c, 0, 70, 65
2, 104372, Note_on_c, 0, 64, 54
2, 104372, Note_on_c, 0, 55, 48
2, 104372, Note_on_c, 0, 58, 33
2, 104392, Note_on_c, 0, 61, 35
2, 104464, Control_c, 0, 64, 40
2, 104476, Control_c, 0, 64, 0
2, 104492, Control_c, 0, 64, 24
2, 104508, Control_c, 0, 64, 72
2, 104524, Control_c, 0, 64, 127
2, 104544, Note_on_c, 0, 55, 0
2, 104544, Note_on_c, 0, 64, 0
2, 104556, Note_on_c, 0, 70, 0
2, 104572, Note_on_c, 0, 58, 0
2, 104592, Note_on_c, 0, 61, 0
2, 104604, Note_on_c, 0, 73, 0
2, 104808, Note_on_c, 0, 74, 73
2, 104808, Note_on_c, 0, 62, 46
2, 104808, Note_on_c, 0, 53, 49
2, 104808, Note_on_c, 0, 57, 47
2, 104808, Note_on_c, 0, 69, 63
2, 104928, Control_c, 0, 64, 72
2, 104940, Control_c, 0, 64, 0
2, 105124, Control_c, 0, 64, 56
2, 105144, Control_c, 0, 64, 127
2, 105284, Note_on_c, 0, 53, 0
2, 105292, Note_on_c, 0, 62, 0
2, 105312, Note_on_c, 0, 57, 0
2, 105376, Note_on_c, 0, 74, 0
2, 105412, Note_on_c, 0, 69, 0
2, 105660, Note_on_c, 0, 72, 79
2, 105672, Note_on_c, 0, 67, 58
2, 105684, Note_on_c, 0, 60, 49
2, 105696, Note_on_c, 0, 52, 44
2, 105696, Note_on_c, 0, 55, 38
2, 105748, Control_c, 0, 64, 104
2, 105764, Control_c, 0, 64, 0
2, 105872, Control_c, 0, 64, 127
2, 105920, Note_on_c, 0, 67, 0
2, 105932, Note_on_c, 0, 72, 0
2, 106080, Note_on_c, 0, 67, 82
2, 106172, Note_on_c, 0, 52, 0
2, 106200, Note_on_c, 0, 60, 0
2, 106212, Note_on_c, 0, 67, 0
2, 106232, Note_on_c, 0, 55, 0
2, 106568, Note_on_c, 0, 77, 94
2, 106568, Note_on_c, 0, 50, 56
2, 106568, Note_on_c, 0, 55, 49
2, 106568, Note_on_c, 0, 59, 46
2, 106568, Note_on_c, 0, 65, 55
2, 106568, Note_on_c, 0, 67, 62
2, 106724, Control_c, 0, 64, 56
2, 106740, Control_c, 0, 64, 0
2, 106848, Control_c, 0, 64, 72
2, 106864, Control_c, 0, 64, 127
2, 107116, Note_on_c, 0, 55, 0
2, 107216, Note_on_c, 0, 50, 0
2, 107220, Note_on_c, 0, 77, 0
2, 107248, Note_on_c, 0, 59, 0
2, 107260, Note_on_c, 0, 67, 0
2, 107260, Note_on_c, 0, 65, 0
2, 107436, Note_on_c, 0, 64, 53
2, 107436, Note_on_c, 0, 48, 57
2, 107436, Note_on_c, 0, 60, 51
2, 107436, Note_on_c, 0, 76, 75
2, 107444, Control_c, 0, 64, 104
2, 107532, Control_c, 0, 64, 107
2, 107540, Control_c, 0, 64, 103
2, 107548, Control_c, 0, 64, 127
2, 107672, Note_on_c, 0, 64, 0
2, 107744, Note_on_c, 0, 60, 0
2, 107748, Note_on_c, 0, 48, 0
2, 107884, Note_on_c, 0, 64, 84
2, 107884, Control_c, 0, 64, 127
2, 108028, Note_on_c, 0, 76, 0
2, 108032, Note_on_c, 0, 64, 0
2, 108360, Note_on_c, 0, 74, 81
2, 108368, Note_on_c, 0, 64, 63
2, 108368, Note_on_c, 0, 62, 60
2, 108384, Note_on_c, 0, 56, 42
2, 108392, Note_on_c, 0, 47, 48
2, 108404, Note_on_c, 0, 52, 37
2, 108536, Control_c, 0, 64, 56
2, 108552, Control_c, 0, 64, 127
2, 108644, Control_c, 0, 64, 104
2, 108660, Control_c, 0, 64, 127
2, 108892, Note_on_c, 0, 47, 0
2, 108904, Note_on_c, 0, 56, 0
2, 108916, Note_on_c, 0, 74, 0
2, 108968, Note_on_c, 0, 64, 0
2, 108976, Note_on_c, 0, 62, 0
2, 109212, Note_on_c, 0, 72, 68
2, 109216, Note_on_c, 0, 60, 47
2, 109220, Note_on_c, 0, 57, 48
2, 109240, Note_on_c, 0, 45, 49
2, 109288, Note_on_c, 0, 52, 0
2, 109328, Control_c, 0, 64, 40
2, 109340, Control_c, 0, 64, 0
2, 109436, Note_on_c, 0, 72, 0
2, 109436, Control_c, 0, 64, 127
2, 109512, Note_on_c, 0, 60, 0
2, 109688, Note_on_c, 0, 60, 70
2, 109828, Note_on_c, 0, 60, 0
2, 109848, Note_on_c, 0, 62, 74
2, 109872, Note_on_c, 0, 57, 0
2, 109944, Note_on_c, 0, 45, 0
2, 109964, Note_on_c, 0, 62, 0
2, 109988, Note_on_c, 0, 60, 82
2, 110096, Note_on_c, 0, 60, 0
2, 110096, Note_on_c, 0, 59, 70
2, 110240, Note_on_c, 0, 60, 90
2, 110256, Note_on_c, 0, 59, 0
2, 110304, Note_on_c, 0, 60, 0
2, 110528, Note_on_c, 0, 70, 81
2, 110540, Note_on_c, 0, 60, 54
2, 110548, Note_on_c, 0, 52, 52
2, 110556, Note_on_c, 0, 43, 48
2, 110588, Control_c, 0, 64, 88
2, 110600, Control_c, 0, 64, 0
2, 110756, Control_c, 0, 64, 88
2, 110772, Control_c, 0, 64, 127
2, 110980, Note_on_c, 0, 52, 0
2, 110992, Note_on_c, 0, 43, 0
2, 111024, Note_on_c, 0, 60, 0
2, 111072, Note_on_c, 0, 70, 0
2, 111280, Note_on_c, 0, 69, 79
2, 111280, Note_on_c, 0, 60, 55
2, 111280, Note_on_c, 0, 41, 56
2, 111280, Note_on_c, 0, 53, 54
2, 111332, Control_c, 0, 64, 40
2, 111348, Control_c, 0, 64, 0
2, 111408, Note_on_c, 0, 53, 0
2, 111424, Control_c, 0, 64, 88
2, 111440, Control_c, 0, 64, 127
2, 111556, Note_on_c, 0, 41, 0
2, 111604, Note_on_c, 0, 52, 73
2, 111652, Note_on_c, 0, 60, 0
2, 111700, Note_on_c, 0, 69, 0
2, 111896, Note_on_c, 0, 52, 0
2, 111940, Note_on_c, 0, 69, 73
2, 111940, Note_on_c, 0, 50, 58
2, 111940, Note_on_c, 0, 59, 58
2, 111940, Note_on_c, 0, 43, 59
2, 112104, Control_c, 0, 64, 56
2, 112120, Control_c, 0, 64, 0
2, 112276, Control_c, 0, 64, 88
2, 112292, Control_c, 0, 64, 127
2, 112712, Note_on_c, 0, 53, 56
2, 112724, Note_on_c, 0, 50, 0
2, 112788, Control_c, 0, 64, 88
2, 112804, Control_c, 0, 64, 0
2, 112876, Control_c, 0, 64, 40
2, 112892, Control_c, 0, 64, 127
2, 113048, Note_on_c, 0, 69, 0
2, 113080, Note_on_c, 0, 67, 70
2, 113436, Note_on_c, 0, 67, 0
2, 113468, Note_on_c, 0, 66, 67
2, 113500, Note_on_c, 0, 50, 53
2, 113508, Note_on_c, 0, 53, 0
2, 113564, Control_c, 0, 64, 56
2, 113580, Control_c, 0, 64, 0
2, 113656, Control_c, 0, 64, 88
2, 113672, Control_c, 0, 64, 127
2, 113748, Note_on_c, 0, 66, 0
2, 113868, Note_on_c, 0, 65, 62
2, 113956, Note_on_c, 0, 43, 0
2, 114004, Note_on_c, 0, 50, 0
2, 114104, Note_on_c, 0, 59, 0
2, 114188, Note_on_c, 0, 65, 0
2, 114324, Note_on_c, 0, 60, 48
2, 114324, Note_on_c, 0, 64, 58
2, 114324, Note_on_c, 0, 76, 66
2, 114324, Note_on_c, 0, 36, 55
2, 114324, Note_on_c, 0, 48, 55
2, 114452, Note_on_c, 0, 55, 53
2, 114576, Note_on_c, 0, 52, 44
2, 114580, Note_on_c, 0, 48, 0
2, 114580, Note_on_c, 0, 36, 0
2, 114580, Note_on_c, 0, 76, 0
2, 114628, Note_on_c, 0, 52, 0
2, 114692, Note_on_c, 0, 48, 47
2, 114804, Note_on_c, 0, 48, 0
2, 114816, Note_on_c, 0, 43, 48
2, 114900, Note_on_c, 0, 60, 0
2, 114924, Note_on_c, 0, 64, 0
2, 114932, Note_on_c, 0, 43, 0
2, 114932, Note_on_c, 0, 36, 56
2, 114952, Note_on_c, 0, 36, 0
2, 115024, Note_on_c, 0, 55, 0
2, 115064, Note_on_c, 0, 65, 74
2, 115064, Note_on_c, 0, 62, 62
2, 115068, Note_on_c, 0, 74, 72
2, 115100, Control_c, 0, 64, 104
2, 115112, Control_c, 0, 64, 40
2, 115120, Control_c, 0, 64, 0
2, 115180, Note_on_c, 0, 55, 64
2, 115188, Control_c, 0, 64, 88
2, 115196, Control_c, 0, 64, 127
2, 115296, Note_on_c, 0, 53, 51
2, 115404, Note_on_c, 0, 53, 0
2, 115412, Note_on_c, 0, 50, 59
2, 115440, Note_on_c, 0, 50, 0
2, 115520, Note_on_c, 0, 43, 56
2, 115616, Note_on_c, 0, 62, 0
2, 115628, Note_on_c, 0, 72, 84
2, 115636, Note_on_c, 0, 43, 0
2, 115636, Note_on_c, 0, 36, 56
2, 115644, Note_on_c, 0, 74, 0
2, 115656, Note_on_c, 0, 65, 0
2, 115676, Note_on_c, 0, 36, 0
2, 115680, Note_on_c, 0, 55, 0
2, 115696, Note_on_c, 0, 72, 0
2, 115768, Note_on_c, 0, 66, 73
2, 115768, Note_on_c, 0, 63, 59
2, 115768, Note_on_c, 0, 72, 85
2, 115768, Note_on_c, 0, 60, 55
2, 115840, Control_c, 0, 64, 72
2, 115848, Control_c, 0, 64, 24
2, 115852, Control_c, 0, 64, 0
2, 115884, Note_on_c, 0, 55, 68
2, 115916, Control_c, 0, 64, 88
2, 115924, Control_c, 0, 64, 127
2, 115992, Note_on_c, 0, 54, 51
2, 116092, Note_on_c, 0, 54, 0
2, 116100, Note_on_c, 0, 51, 57
2, 116164, Note_on_c, 0, 51, 0
2, 116212, Note_on_c, 0, 48, 64
2, 116316, Note_on_c, 0, 48, 0
2, 116320, Note_on_c, 0, 55, 0
2, 116328, Note_on_c, 0, 36, 62
2, 116360, Note_on_c, 0, 66, 0
2, 116364, Note_on_c, 0, 63, 0
2, 116380, Note_on_c, 0, 36, 0
2, 116452, Note_on_c, 0, 67, 76
2, 116460, Note_on_c, 0, 64, 65
2, 116480, Control_c, 0, 64, 56
2, 116488, Control_c, 0, 64, 0
2, 116504, Note_on_c, 0, 72, 0
2, 116552, Control_c, 0, 64, 88
2, 116560, Control_c, 0, 64, 127
2, 116568, Note_on_c, 0, 60, 66
2, 116624, Note_on_c, 0, 72, 78
2, 116680, Note_on_c, 0, 55, 59
2, 116780, Note_on_c, 0, 55, 0
2, 116788, Note_on_c, 0, 72, 0
2, 116788, Note_on_c, 0, 52, 61
2, 116800, Note_on_c, 0, 74, 88
2, 116832, Note_on_c, 0, 52, 0
2, 116848, Note_on_c, 0, 60, 0
2, 116880, Note_on_c, 0, 48, 63
2, 116936, Note_on_c, 0, 60, 0
2, 116936, Note_on_c, 0, 64, 0
2, 116956, Note_on_c, 0, 48, 0
2, 116956, Note_on_c, 0, 74, 0
2, 116964, Note_on_c, 0, 76, 89
2, 116980, Note_on_c, 0, 67, 0
2, 117000, Note_on_c, 0, 36, 54
2, 117032, Note_on_c, 0, 36, 0
2, 117072, Note_on_c, 0, 76, 0
2, 117124, Note_on_c, 0, 68, 71
2, 117124, Note_on_c, 0, 62, 46
2, 117124, Note_on_c, 0, 65, 54
2, 117124, Note_on_c, 0, 48, 52
2, 117124, Note_on_c, 0, 59, 52
2, 117124, Note_on_c, 0, 77, 97
2, 117164, Control_c, 0, 64, 104
2, 117172, Control_c, 0, 64, 40
2, 117180, Control_c, 0, 64, 0
2, 117196, Note_on_c, 0, 62, 0
2, 117232, Note_on_c, 0, 59, 59
2, 117256, Control_c, 0, 64, 88
2, 117264, Control_c, 0, 64, 127
2, 117352, Note_on_c, 0, 56, 60
2, 117448, Note_on_c, 0, 56, 0
2, 117460, Note_on_c, 0, 53, 57
2, 117460, Note_on_c, 0, 65, 65
2, 117464, Note_on_c, 0, 59, 0
2, 117468, Note_on_c, 0, 65, 0
2, 117524, Note_on_c, 0, 77, 0
2, 117532, Note_on_c, 0, 53, 0
2, 117556, Note_on_c, 0, 68, 0
2, 117556, Note_on_c, 0, 50, 56
2, 117660, Note_on_c, 0, 50, 0
2, 117664, Note_on_c, 0, 48, 68
2, 117696, Note_on_c, 0, 48, 0
2, 117724, Note_on_c, 0, 65, 0
2, 117800, Note_on_c, 0, 80, 100
2, 117812, Note_on_c, 0, 77, 73
2, 117820, Note_on_c, 0, 74, 51
2, 117836, Control_c, 0, 64, 88
2, 117844, Note_on_c, 0, 74, 0
2, 117844, Control_c, 0, 64, 40
2, 117852, Control_c, 0, 64, 0
2, 117868, Control_c, 0, 64, 56
2, 117876, Control_c, 0, 64, 127
2, 117908, Note_on_c, 0, 71, 60
2, 118020, Note_on_c, 0, 68, 58
2, 118100, Note_on_c, 0, 68, 0
2, 118120, Note_on_c, 0, 65, 61
2, 118196, Note_on_c, 0, 65, 0
2, 118228, Note_on_c, 0, 62, 61
2, 118244, Note_on_c, 0, 48, 0
2, 118304, Note_on_c, 0, 59, 0
2, 118304, Note_on_c, 0, 62, 0
2, 118328, Note_on_c, 0, 59, 59
2, 118432, Note_on_c, 0, 59, 0
2, 118432, Note_on_c, 0, 56, 59
2, 118508, Note_on_c, 0, 56, 0
2, 118540, Note_on_c, 0, 53, 60
2, 118612, Note_on_c, 0, 53, 0
2, 118644, Note_on_c, 0, 50, 66
2, 118672, Control_c, 0, 64, 88
2, 118696, Control_c, 0, 64, 127
2, 118744, Note_on_c, 0, 50, 0
2, 118752, Note_on_c, 0, 47, 62
2, 118860, Note_on_c, 0, 47, 0
2, 118860, Note_on_c, 0, 44, 60
2, 118936, Note_on_c, 0, 44, 0
2, 118988, Note_on_c, 0, 41, 59
2, 119060, Note_on_c, 0, 41, 0
2, 119096, Note_on_c, 0, 38, 58
2, 119184, Note_on_c, 0, 38, 0
2, 119200, Note_on_c, 0, 35, 58
2, 119312, Note_on_c, 0, 32, 57
2, 119332, Note_on_c, 0, 35, 0
2, 119392, Note_on_c, 0, 32, 0
2, 119420, Note_on_c, 0, 31, 57
2, 119500, Note_on_c, 0, 31, 0
2, 119508, Note_on_c, 0, 71, 0
2, 119532, Note_on_c, 0, 29, 58
2, 119544, Note_on_c, 0, 77, 0
2, 119552, Note_on_c, 0, 80, 0
2, 119616, Note_on_c, 0, 29, 0
2, 119644, Note_on_c, 0, 26, 60
2, 119720, Note_on_c, 0, 26, 0
2, 119780, Control_c, 0, 64, 104
2, 119784, Note_on_c, 0, 64, 69
2, 119784, Note_on_c, 0, 24, 60
2, 119784, Note_on_c, 0, 60, 54
2, 119784, Note_on_c, 0, 48, 49
2, 119784, Note_on_c, 0, 76, 82
2, 119788, Control_c, 0, 64, 0
2, 119844, Note_on_c, 0, 24, 0
2, 119844, Control_c, 0, 64, 104
2, 119852, Control_c, 0, 64, 127
2, 119896, Note_on_c, 0, 55, 57
2, 120008, Note_on_c, 0, 52, 57
2, 120048, Note_on_c, 0, 52, 0
2, 120112, Note_on_c, 0, 48, 58
2, 120196, Note_on_c, 0, 48, 0
2, 120204, Note_on_c, 0, 43, 55
2, 120216, Note_on_c, 0, 60, 0
2, 120228, Note_on_c, 0, 55, 0
2, 120280, Note_on_c, 0, 64, 0
2, 120300, Note_on_c, 0, 43, 0
2, 120316, Note_on_c, 0, 36, 52
2, 120356, Note_on_c, 0, 36, 0
2, 120428, Note_on_c, 0, 76, 0
2, 120432, Note_on_c, 0, 65, 71
2, 120432, Note_on_c, 0, 62, 59
2, 120432, Note_on_c, 0, 74, 75
2, 120468, Control_c, 0, 64, 40
2, 120476, Control_c, 0, 64, 0
2, 120524, Control_c, 0, 64, 56
2, 120532, Note_on_c, 0, 55, 59
2, 120532, Control_c, 0, 64, 127
2, 120632, Note_on_c, 0, 53, 60
2, 120720, Note_on_c, 0, 53, 0
2, 120732, Note_on_c, 0, 50, 61
2, 120752, Note_on_c, 0, 50, 0
2, 120780, Note_on_c, 0, 48, 0
2, 120844, Note_on_c, 0, 43, 58
2, 120892, Note_on_c, 0, 74, 0
2, 120912, Note_on_c, 0, 62, 0
2, 120912, Note_on_c, 0, 72, 88
2, 120932, Note_on_c, 0, 43, 0
2, 120944, Note_on_c, 0, 36, 60
2, 120960, Note_on_c, 0, 65, 0
2, 120980, Note_on_c, 0, 36, 0
2, 120992, Note_on_c, 0, 55, 0
2, 121012, Note_on_c, 0, 72, 0
2, 121064, Note_on_c, 0, 66, 77
2, 121064, Note_on_c, 0, 63, 59
2, 121064, Note_on_c, 0, 72, 83
2, 121064, Note_on_c, 0, 60, 50
2, 121112, Control_c, 0, 64, 104
2, 121120, Control_c, 0, 64, 40
2, 121128, Control_c, 0, 64, 0
2, 121156, Note_on_c, 0, 55, 60
2, 121184, Control_c, 0, 64, 104
2, 121188, Control_c, 0, 64, 127
2, 121256, Note_on_c, 0, 54, 60
2, 121328, Note_on_c, 0, 54, 0
2, 121356, Note_on_c, 0, 51, 60
2, 121416, Note_on_c, 0, 51, 0
2, 121452, Note_on_c, 0, 48, 62
2, 121516, Note_on_c, 0, 48, 0
2, 121536, Note_on_c, 0, 55, 0
2, 121556, Note_on_c, 0, 36, 60
2, 121584, Note_on_c, 0, 66, 0
2, 121584, Note_on_c, 0, 63, 0
2, 121592, Note_on_c, 0, 36, 0
2, 121656, Note_on_c, 0, 67, 76
2, 121656, Note_on_c, 0, 64, 67
2, 121680, Note_on_c, 0, 72, 0
2, 121692, Control_c, 0, 64, 40
2, 121700, Control_c, 0, 64, 0
2, 121748, Control_c, 0, 64, 104
2, 121756, Control_c, 0, 64, 127
2, 121768, Note_on_c, 0, 60, 65
2, 121820, Note_on_c, 0, 72, 86
2, 121876, Note_on_c, 0, 55, 64
2, 121924, Note_on_c, 0, 60, 0
2, 121924, Note_on_c, 0, 52, 64
2, 121956, Note_on_c, 0, 52, 0
2, 121956, Note_on_c, 0, 72, 0
2, 121964, Note_on_c, 0, 55, 0
2, 121972, Note_on_c, 0, 74, 85
2, 122072, Note_on_c, 0, 48, 68
2, 122088, Note_on_c, 0, 74, 0
2, 122088, Note_on_c, 0, 60, 0
2, 122100, Note_on_c, 0, 64, 0
2, 122116, Note_on_c, 0, 48, 0
2, 122136, Note_on_c, 0, 67, 0
2, 122136, Note_on_c, 0, 76, 85
2, 122156, Note_on_c, 0, 45, 74
2, 122180, Note_on_c, 0, 36, 68
2, 122212, Note_on_c, 0, 45, 0
2, 122216, Note_on_c, 0, 36, 0
2, 122256, Note_on_c, 0, 76, 0
2, 122304, Note_on_c, 0, 70, 86
2, 122304, Note_on_c, 0, 64, 57
2, 122304, Note_on_c, 0, 67, 56
2, 122304, Note_on_c, 0, 61, 56
2, 122304, Note_on_c, 0, 79, 88
2, 122328, Control_c, 0, 64, 88
2, 122336, Control_c, 0, 64, 0
2, 122384, Note_on_c, 0, 64, 0
2, 122392, Control_c, 0, 64, 88
2, 122396, Note_on_c, 0, 61, 62
2, 122400, Control_c, 0, 64, 127
2, 122500, Note_on_c, 0, 58, 61
2, 122572, Note_on_c, 0, 58, 0
2, 122604, Note_on_c, 0, 55, 60
2, 122604, Note_on_c, 0, 67, 72
2, 122640, Note_on_c, 0, 67, 0
2, 122640, Note_on_c, 0, 61, 0
2, 122652, Note_on_c, 0, 79, 0
2, 122684, Note_on_c, 0, 67, 0
2, 122692, Note_on_c, 0, 52, 62
2, 122696, Note_on_c, 0, 55, 0
2, 122704, Note_on_c, 0, 70, 0
2, 122792, Note_on_c, 0, 45, 66
2, 122816, Note_on_c, 0, 52, 0
2, 122848, Note_on_c, 0, 45, 0
2, 122920, Note_on_c, 0, 82, 91
2, 122928, Note_on_c, 0, 79, 70
2, 122932, Note_on_c, 0, 76, 68
2, 122944, Note_on_c, 0, 76, 0
2, 123020, Note_on_c, 0, 73, 65
2, 123124, Note_on_c, 0, 70, 64
2, 123192, Note_on_c, 0, 70, 0
2, 123220, Note_on_c, 0, 67, 63
2, 123240, Note_on_c, 0, 61, 0
2, 123284, Note_on_c, 0, 67, 0
2, 123324, Note_on_c, 0, 64, 63
2, 123388, Note_on_c, 0, 64, 0
2, 123420, Note_on_c, 0, 61, 63
2, 123524, Note_on_c, 0, 61, 0
2, 123524, Note_on_c, 0, 58, 62
2, 123596, Note_on_c, 0, 58, 0
2, 123628, Note_on_c, 0, 55, 61
2, 123696, Note_on_c, 0, 55, 0
2, 123732, Note_on_c, 0, 52, 61
2, 123808, Note_on_c, 0, 52, 0
2, 123828, Note_on_c, 0, 49, 60
2, 123932, Note_on_c, 0, 49, 0
2, 123936, Note_on_c, 0, 46, 60
2, 124000, Note_on_c, 0, 46, 0
2, 124040, Note_on_c, 0, 43, 60
2, 124104, Note_on_c, 0, 43, 0
2, 124144, Note_on_c, 0, 40, 59
2, 124220, Note_on_c, 0, 40, 0
2, 124244, Note_on_c, 0, 37, 59
2, 124352, Note_on_c, 0, 34, 58
2, 124356, Note_on_c, 0, 37, 0
2, 124404, Note_on_c, 0, 34, 0
2, 124452, Note_on_c, 0, 33, 58
2, 124520, Note_on_c, 0, 33, 0
2, 124536, Note_on_c, 0, 73, 0
2, 124548, Note_on_c, 0, 79, 0
2, 124548, Note_on_c, 0, 31, 57
2, 124556, Note_on_c, 0, 82, 0
2, 124628, Note_on_c, 0, 31, 0
2, 124660, Note_on_c, 0, 28, 58
2, 124752, Note_on_c, 0, 28, 0
2, 124776, Note_on_c, 0, 26, 59
2, 124776, Note_on_c, 0, 65, 55
2, 124776, Note_on_c, 0, 69, 74
2, 124792, Control_c, 0, 64, 72
2, 124800, Control_c, 0, 64, 0
2, 124812, Note_on_c, 0, 53, 45
2, 124812, Note_on_c, 0, 50, 50
2, 124812, Note_on_c, 0, 57, 53
2, 124844, Control_c, 0, 64, 72
2, 124848, Note_on_c, 0, 26, 0
2, 124856, Control_c, 0, 64, 127
2, 124900, Note_on_c, 0, 62, 63
2, 125012, Note_on_c, 0, 57, 64
2, 125100, Note_on_c, 0, 57, 0
2, 125124, Note_on_c, 0, 53, 65
2, 125128, Note_on_c, 0, 50, 0
2, 125136, Note_on_c, 0, 53, 0
2, 125152, Note_on_c, 0, 53, 0
2, 125168, Note_on_c, 0, 69, 60
2, 125220, Note_on_c, 0, 50, 64
2, 125232, Note_on_c, 0, 62, 0
2, 125236, Note_on_c, 0, 65, 0
2, 125256, Note_on_c, 0, 57, 0
2, 125272, Note_on_c, 0, 69, 0
2, 125304, Note_on_c, 0, 50, 0
2, 125312, Note_on_c, 0, 69, 0
2, 125332, Note_on_c, 0, 38, 64
2, 125348, Note_on_c, 0, 38, 0
2, 125460, Note_on_c, 0, 84, 97
2, 125460, Note_on_c, 0, 81, 71
2, 125460, Note_on_c, 0, 78, 66
2, 125460, Note_on_c, 0, 47, 66
2, 125460, Note_on_c, 0, 54, 57
2, 125460, Note_on_c, 0, 57, 59
2, 125460, Note_on_c, 0, 63, 65
2, 125488, Control_c, 0, 64, 56
2, 125496, Control_c, 0, 64, 0
2, 125512, Note_on_c, 0, 57, 0
2, 125520, Note_on_c, 0, 54, 0
2, 125544, Note_on_c, 0, 47, 0
2, 125544, Control_c, 0, 64, 127
2, 125560, Note_on_c, 0, 75, 65
2, 125664, Note_on_c, 0, 72, 64
2, 125736, Note_on_c, 0, 72, 0
2, 125760, Note_on_c, 0, 69, 64
2, 125840, Note_on_c, 0, 69, 0
2, 125852, Note_on_c, 0, 66, 63
2, 125952, Note_on_c, 0, 63, 63
2, 125956, Note_on_c, 0, 66, 0
2, 126012, Note_on_c, 0, 63, 0
2, 126048, Note_on_c, 0, 60, 62
2, 126088, Note_on_c, 0, 63, 0
2, 126132, Note_on_c, 0, 60, 0
2, 126156, Note_on_c, 0, 57, 62
2, 126224, Note_on_c, 0, 57, 0
2, 126248, Note_on_c, 0, 54, 62
2, 126352, Note_on_c, 0, 54, 0
2, 126352, Note_on_c, 0, 51, 61
2, 126412, Note_on_c, 0, 51, 0
2, 126452, Note_on_c, 0, 48, 61
2, 126524, Note_on_c, 0, 48, 0
2, 126552, Note_on_c, 0, 45, 60
2, 126628, Note_on_c, 0, 45, 0
2, 126644, Note_on_c, 0, 42, 60
2, 126752, Note_on_c, 0, 39, 60
2, 126756, Note_on_c, 0, 42, 0
2, 126800, Note_on_c, 0, 39, 0
2, 126848, Note_on_c, 0, 36, 59
2, 126924, Note_on_c, 0, 36, 0
2, 126956, Note_on_c, 0, 35, 59
2, 127024, Note_on_c, 0, 35, 0
2, 127032, Note_on_c, 0, 84, 0
2, 127032, Note_on_c, 0, 78, 0
2, 127036, Note_on_c, 0, 81, 0
2, 127048, Note_on_c, 0, 75, 0
2, 127060, Note_on_c, 0, 33, 58
2, 127124, Note_on_c, 0, 33, 0
2, 127156, Note_on_c, 0, 30, 58
2, 127264, Note_on_c, 0, 30, 0
2, 127352, Note_on_c, 0, 28, 62
2, 127352, Note_on_c, 0, 67, 70
2, 127352, Note_on_c, 0, 64, 56
2, 127352, Note_on_c, 0, 40, 60
2, 127352, Note_on_c, 0, 52, 53
2, 127356, Control_c, 0, 64, 88
2, 127368, Control_c, 0, 64, 0
2, 127412, Note_on_c, 0, 28, 0
2, 127412, Control_c, 0, 64, 127
2, 127456, Note_on_c, 0, 59, 60
2, 127572, Note_on_c, 0, 55, 60
2, 127612, Note_on_c, 0, 55, 0
2, 127656, Note_on_c, 0, 59, 0
2, 127664, Note_on_c, 0, 52, 59
2, 127684, Note_on_c, 0, 40, 0
2, 127688, Note_on_c, 0, 64, 0
2, 127708, Note_on_c, 0, 52, 0
2, 127720, Note_on_c, 0, 52, 0
2, 127732, Note_on_c, 0, 67, 0
2, 127748, Note_on_c, 0, 47, 59
2, 127840, Note_on_c, 0, 47, 0
2, 127840, Note_on_c, 0, 40, 58
2, 127872, Note_on_c, 0, 40, 0
2, 127964, Note_on_c, 0, 74, 80
2, 127972, Note_on_c, 0, 69, 70
2, 127984, Control_c, 0, 64, 56
2, 127992, Control_c, 0, 64, 0
2, 128040, Control_c, 0, 64, 104
2, 128048, Control_c, 0, 64, 127
2, 128060, Note_on_c, 0, 64, 61
2, 128176, Note_on_c, 0, 60, 60
2, 128184, Note_on_c, 0, 74, 0
2, 128208, Note_on_c, 0, 60, 0
2, 128260, Note_on_c, 0, 57, 60
2, 128336, Note_on_c, 0, 69, 0
2, 128336, Note_on_c, 0, 52, 60
2, 128396, Note_on_c, 0, 57, 0
2, 128400, Note_on_c, 0, 72, 82
2, 128436, Note_on_c, 0, 64, 0
2, 128460, Note_on_c, 0, 45, 59
2, 128472, Note_on_c, 0, 52, 0
2, 128488, Note_on_c, 0, 45, 0
2, 128500, Note_on_c, 0, 72, 0
2, 128572, Note_on_c, 0, 67, 74
2, 128572, Note_on_c, 0, 64, 59
2, 128572, Note_on_c, 0, 40, 62
2, 128572, Note_on_c, 0, 52, 54
2, 128600, Control_c, 0, 64, 56
2, 128612, Control_c, 0, 64, 0
2, 128652, Note_on_c, 0, 59, 49
2, 128668, Control_c, 0, 64, 127
2, 128748, Note_on_c, 0, 55, 64
2, 128792, Note_on_c, 0, 55, 0
2, 128852, Note_on_c, 0, 52, 56
2, 128892, Note_on_c, 0, 59, 0
2, 128920, Note_on_c, 0, 64, 0
2, 128936, Note_on_c, 0, 52, 0
2, 128940, Note_on_c, 0, 47, 57
2, 128964, Note_on_c, 0, 67, 0
2, 129032, Note_on_c, 0, 40, 0
2, 129036, Note_on_c, 0, 40, 56
2, 129044, Note_on_c, 0, 52, 0
2, 129044, Note_on_c, 0, 47, 0
2, 129068, Note_on_c, 0, 40, 0
2, 129144, Note_on_c, 0, 74, 79
2, 129156, Note_on_c, 0, 69, 65
2, 129184, Control_c, 0, 64, 104
2, 129192, Control_c, 0, 64, 40
2, 129200, Control_c, 0, 64, 0
2, 129236, Note_on_c, 0, 64, 52
2, 129256, Control_c, 0, 64, 127
2, 129332, Note_on_c, 0, 60, 58
2, 129396, Note_on_c, 0, 60, 0
2, 129440, Note_on_c, 0, 74, 0
2, 129440, Note_on_c, 0, 57, 46
2, 129516, Note_on_c, 0, 52, 58
2, 129556, Note_on_c, 0, 69, 0
2, 129576, Note_on_c, 0, 72, 82
2, 129596, Note_on_c, 0, 57, 0
2, 129616, Note_on_c, 0, 64, 0
2, 129632, Note_on_c, 0, 72, 0
2, 129636, Note_on_c, 0, 45, 61
2, 129652, Note_on_c, 0, 52, 0
2, 129656, Note_on_c, 0, 45, 0
2, 129732, Note_on_c, 0, 67, 73
2, 129732, Note_on_c, 0, 64, 56
2, 129732, Note_on_c, 0, 52, 58
2, 129732, Note_on_c, 0, 40, 63
2, 129760, Control_c, 0, 64, 72
2, 129768, Control_c, 0, 64, 0
2, 129812, Control_c, 0, 64, 88
2, 129820, Note_on_c, 0, 59, 54
2, 129820, Control_c, 0, 64, 127
2, 129920, Note_on_c, 0, 57, 34
2, 129924, Note_on_c, 0, 55, 33
2, 129948, Note_on_c, 0, 55, 0
2, 129956, Note_on_c, 0, 57, 0
2, 130016, Note_on_c, 0, 52, 64
2, 130084, Note_on_c, 0, 52, 0
2, 130108, Note_on_c, 0, 47, 54
2, 130132, Note_on_c, 0, 67, 0
2, 130204, Note_on_c, 0, 52, 0
2, 130212, Note_on_c, 0, 47, 0
2, 130212, Note_on_c, 0, 40, 58
2, 130216, Note_on_c, 0, 59, 0
2, 130248, Note_on_c, 0, 40, 0
2, 130288, Note_on_c, 0, 64, 0
2, 130320, Note_on_c, 0, 69, 75
2, 130320, Note_on_c, 0, 65, 57
2, 130320, Note_on_c, 0, 38, 65
2, 130320, Note_on_c, 0, 50, 58
2, 130320, Note_on_c, 0, 62, 62
2, 130328, Note_on_c, 0, 40, 0
2, 130348, Control_c, 0, 64, 104
2, 130356, Control_c, 0, 64, 40
2, 130364, Control_c, 0, 64, 0
2, 130408, Control_c, 0, 64, 127
2, 130420, Note_on_c, 0, 62, 62
2, 130520, Note_on_c, 0, 57, 51
2, 130624, Note_on_c, 0, 53, 65
2, 130628, Note_on_c, 0, 57, 0
2, 130636, Note_on_c, 0, 38, 0
2, 130660, Note_on_c, 0, 53, 0
2, 130668, Note_on_c, 0, 50, 0
2, 130720, Note_on_c, 0, 50, 58
2, 130760, Note_on_c, 0, 65, 0
2, 130792, Note_on_c, 0, 50, 0
2, 130828, Note_on_c, 0, 38, 58
2, 130832, Note_on_c, 0, 62, 0
2, 130844, Note_on_c, 0, 38, 0
2, 130860, Note_on_c, 0, 69, 0
2, 130916, Note_on_c, 0, 62, 0
2, 130940, Note_on_c, 0, 71, 81
2, 130940, Note_on_c, 0, 67, 63
2, 130940, Note_on_c, 0, 65, 61
2, 130940, Note_on_c, 0, 43, 68
2, 130940, Note_on_c, 0, 55, 59
2, 130940, Note_on_c, 0, 62, 52
2, 130968, Control_c, 0, 64, 40
2, 130976, Control_c, 0, 64, 0
2, 131004, Control_c, 0, 64, 24
2, 131012, Control_c, 0, 64, 104
2, 131020, Control_c, 0, 64, 127
2, 131036, Note_on_c, 0, 62, 63
2, 131144, Note_on_c, 0, 59, 58
2, 131208, Note_on_c, 0, 59, 0
2, 131232, Note_on_c, 0, 55, 55
2, 131268, Note_on_c, 0, 55, 0
2, 131344, Note_on_c, 0, 53, 22
2, 131348, Note_on_c, 0, 52, 21
2, 131364, Note_on_c, 0, 62, 0
2, 131364, Note_on_c, 0, 65, 0
2, 131372, Note_on_c, 0, 52, 0
2, 131392, Note_on_c, 0, 67, 0
2, 131420, Note_on_c, 0, 71, 0
2, 131448, Note_on_c, 0, 43, 57
2, 131488, Note_on_c, 0, 43, 0
2, 131492, Note_on_c, 0, 53, 0
2, 131556, Note_on_c, 0, 76, 85
2, 131564, Note_on_c, 0, 71, 69
2, 131604, Control_c, 0, 64, 56
2, 131608, Control_c, 0, 64, 0
2, 131640, Control_c, 0, 64, 72
2, 131648, Control_c, 0, 64, 127
2, 131660, Note_on_c, 0, 67, 53
2, 131728, Note_on_c, 0, 55, 0
2, 131744, Note_on_c, 0, 43, 0
2, 131748, Note_on_c, 0, 76, 0
2, 131756, Note_on_c, 0, 62, 0
2, 131768, Note_on_c, 0, 65, 42
2, 131820, Note_on_c, 0, 65, 0
2, 131840, Note_on_c, 0, 62, 49
2, 131896, Note_on_c, 0, 62, 0
2, 131904, Note_on_c, 0, 59, 51
2, 131972, Note_on_c, 0, 74, 82
2, 131980, Note_on_c, 0, 71, 0
2, 132000, Note_on_c, 0, 59, 0
2, 132012, Note_on_c, 0, 55, 43
2, 132020, Note_on_c, 0, 67, 0
2, 132028, Note_on_c, 0, 74, 0
2, 132056, Note_on_c, 0, 55, 0
2, 132144, Note_on_c, 0, 67, 75
2, 132144, Note_on_c, 0, 64, 61
2, 132144, Note_on_c, 0, 48, 58
2, 132144, Note_on_c, 0, 36, 63
2, 132144, Note_on_c, 0, 60, 52
2, 132184, Control_c, 0, 64, 72
2, 132192, Control_c, 0, 64, 0
2, 132236, Note_on_c, 0, 60, 58
2, 132240, Control_c, 0, 64, 56
2, 132244, Control_c, 0, 64, 127
2, 132332, Note_on_c, 0, 55, 62
2, 132384, Note_on_c, 0, 55, 0
2, 132440, Note_on_c, 0, 52, 62
2, 132492, Note_on_c, 0, 60, 0
2, 132500, Note_on_c, 0, 64, 0
2, 132516, Note_on_c, 0, 52, 0
2, 132532, Note_on_c, 0, 48, 62
2, 132544, Note_on_c, 0, 67, 0
2, 132564, Note_on_c, 0, 48, 0
2, 132640, Note_on_c, 0, 36, 61
2, 132676, Note_on_c, 0, 36, 0
2, 132676, Note_on_c, 0, 60, 0
2, 132736, Note_on_c, 0, 36, 0
2, 132740, Note_on_c, 0, 48, 0
2, 132740, Note_on_c, 0, 76, 85
2, 132748, Note_on_c, 0, 69, 70
2, 132772, Control_c, 0, 64, 104
2, 132780, Control_c, 0, 64, 56
2, 132788, Control_c, 0, 64, 0
2, 132808, Control_c, 0, 64, 88
2, 132820, Control_c, 0, 64, 127
2, 132832, Note_on_c, 0, 65, 61
2, 132928, Note_on_c, 0, 64, 60
2, 132980, Note_on_c, 0, 64, 0
2, 133012, Note_on_c, 0, 60, 60
2, 133060, Note_on_c, 0, 60, 0
2, 133072, Note_on_c, 0, 57, 59
2, 133132, Note_on_c, 0, 76, 0
2, 133136, Note_on_c, 0, 57, 0
2, 133140, Note_on_c, 0, 69, 0
2, 133148, Note_on_c, 0, 53, 57
2, 133176, Note_on_c, 0, 53, 0
2, 133208, Note_on_c, 0, 65, 0
2, 133220, Note_on_c, 0, 74, 79
2, 133228, Note_on_c, 0, 65, 54
2, 133228, Note_on_c, 0, 71, 60
2, 133240, Note_on_c, 0, 62, 40
2, 133244, Note_on_c, 0, 59, 31
2, 133244, Note_on_c, 0, 55, 51
2, 133252, Note_on_c, 0, 71, 0
2, 133264, Note_on_c, 0, 59, 0
2, 133264, Note_on_c, 0, 62, 0
2, 133264, Note_on_c, 0, 74, 0
2, 133272, Note_on_c, 0, 55, 0
2, 133288, Note_on_c, 0, 65, 0
2, 133344, Note_on_c, 0, 67, 78
2, 133344, Note_on_c, 0, 64, 61
2, 133344, Note_on_c, 0, 48, 58
2, 133344, Note_on_c, 0, 36, 61
2, 133376, Control_c, 0, 64, 40
2, 133384, Control_c, 0, 64, 0
2, 133424, Control_c, 0, 64, 56
2, 133428, Note_on_c, 0, 60, 62
2, 133432, Control_c, 0, 64, 127
2, 133536, Note_on_c, 0, 55, 62
2, 133612, Note_on_c, 0, 55, 0
2, 133632, Note_on_c, 0, 52, 61
2, 133664, Note_on_c, 0, 52, 0
2, 133684, Note_on_c, 0, 60, 0
2, 133688, Note_on_c, 0, 64, 0
2, 133716, Note_on_c, 0, 48, 61
2, 133748, Note_on_c, 0, 48, 0
2, 133748, Note_on_c, 0, 67, 0
2, 133804, Note_on_c, 0, 36, 0
2, 133808, Note_on_c, 0, 36, 63
2, 133844, Note_on_c, 0, 36, 0
2, 133904, Note_on_c, 0, 76, 82
2, 133904, Note_on_c, 0, 69, 70
2, 133916, Note_on_c, 0, 48, 0
2, 133916, Control_c, 0, 64, 88
2, 133924, Control_c, 0, 64, 24
2, 133932, Control_c, 0, 64, 0
2, 133956, Control_c, 0, 64, 72
2, 133964, Control_c, 0, 64, 127
2, 133992, Note_on_c, 0, 65, 62
2, 134076, Note_on_c, 0, 64, 61
2, 134128, Note_on_c, 0, 64, 0
2, 134144, Note_on_c, 0, 60, 60
2, 134180, Note_on_c, 0, 76, 0
2, 134200, Note_on_c, 0, 60, 0
2, 134216, Note_on_c, 0, 69, 0
2, 134240, Note_on_c, 0, 53, 60
2, 134272, Note_on_c, 0, 65, 0
2, 134288, Note_on_c, 0, 53, 0
2, 134312, Note_on_c, 0, 59, 49
2, 134312, Note_on_c, 0, 62, 48
2, 134320, Note_on_c, 0, 55, 52
2, 134328, Note_on_c, 0, 74, 75
2, 134332, Note_on_c, 0, 71, 65
2, 134336, Note_on_c, 0, 65, 55
2, 134344, Note_on_c, 0, 62, 0
2, 134344, Note_on_c, 0, 59, 0
2, 134368, Note_on_c, 0, 55, 0
2, 134372, Note_on_c, 0, 74, 0
2, 134376, Note_on_c, 0, 71, 0
2, 134380, Note_on_c, 0, 65, 0
2, 134464, Note_on_c, 0, 67, 80
2, 134464, Note_on_c, 0, 64, 62
2, 134484, Control_c, 0, 64, 56
2, 134492, Control_c, 0, 64, 0
2, 134532, Control_c, 0, 64, 56
2, 134540, Control_c, 0, 64, 127
2, 134548, Note_on_c, 0, 60, 60
2, 134648, Note_on_c, 0, 55, 60
2, 134732, Note_on_c, 0, 55, 0
2, 134744, Note_on_c, 0, 52, 59
2, 134780, Note_on_c, 0, 52, 0
2, 134832, Note_on_c, 0, 48, 59
2, 134908, Note_on_c, 0, 48, 0
2, 134932, Note_on_c, 0, 36, 60
2, 134948, Note_on_c, 0, 36, 0
2, 134976, Note_on_c, 0, 64, 0
2, 134988, Note_on_c, 0, 67, 0
2, 135016, Note_on_c, 0, 60, 0
2, 135032, Note_on_c, 0, 69, 82
2, 135032, Note_on_c, 0, 66, 61
2, 135032, Note_on_c, 0, 60, 55
2, 135032, Note_on_c, 0, 64, 54
2, 135032, Note_on_c, 0, 48, 62
2, 135040, Control_c, 0, 64, 56
2, 135048, Control_c, 0, 64, 0
2, 135072, Control_c, 0, 64, 56
2, 135080, Control_c, 0, 64, 127
2, 135140, Note_on_c, 0, 64, 60
2, 135152, Note_on_c, 0, 66, 0
2, 135156, Note_on_c, 0, 69, 0
2, 135180, Note_on_c, 0, 64, 0
2, 135248, Note_on_c, 0, 60, 60
2, 135252, Note_on_c, 0, 64, 0
2, 135328, Note_on_c, 0, 57, 59
2, 135332, Note_on_c, 0, 60, 0
2, 135392, Note_on_c, 0, 57, 0
2, 135400, Note_on_c, 0, 54, 59
2, 135448, Note_on_c, 0, 48, 0
2, 135448, Note_on_c, 0, 60, 0
2, 135496, Note_on_c, 0, 54, 0
2, 135512, Note_on_c, 0, 48, 58
2, 135560, Note_on_c, 0, 48, 0
2, 135652, Note_on_c, 0, 71, 85
2, 135652, Note_on_c, 0, 66, 61
2, 135652, Note_on_c, 0, 63, 55
2, 135652, Note_on_c, 0, 47, 65
2, 135652, Note_on_c, 0, 59, 50
2, 135676, Control_c, 0, 64, 104
2, 135684, Control_c, 0, 64, 40
2, 135692, Control_c, 0, 64, 0
2, 135696, Note_on_c, 0, 66, 0
2, 135700, Control_c, 0, 64, 40
2, 135708, Control_c, 0, 64, 104
2, 135716, Control_c, 0, 64, 127
2, 135728, Note_on_c, 0, 63, 60
2, 135744, Note_on_c, 0, 63, 0
2, 135744, Note_on_c, 0, 71, 0
2, 135904, Note_on_c, 0, 59, 60
2, 135940, Note_on_c, 0, 47, 0
2, 135956, Note_on_c, 0, 59, 0
2, 135980, Note_on_c, 0, 54, 58
2, 136004, Note_on_c, 0, 59, 0
2, 136044, Note_on_c, 0, 54, 0
2, 136048, Note_on_c, 0, 51, 58
2, 136124, Note_on_c, 0, 51, 0
2, 136128, Note_on_c, 0, 63, 0
2, 136128, Note_on_c, 0, 47, 58
2, 136164, Note_on_c, 0, 47, 0
2, 136212, Note_on_c, 0, 79, 87
2, 136212, Note_on_c, 0, 75, 71
2, 136276, Note_on_c, 0, 75, 0
2, 136296, Note_on_c, 0, 69, 63
2, 136332, Note_on_c, 0, 69, 0
2, 136384, Note_on_c, 0, 79, 0
2, 136396, Note_on_c, 0, 71, 61
2, 136448, Note_on_c, 0, 71, 0
2, 136480, Note_on_c, 0, 66, 60
2, 136536, Note_on_c, 0, 66, 0
2, 136548, Note_on_c, 0, 63, 59
2, 136612, Note_on_c, 0, 78, 85
2, 136632, Note_on_c, 0, 63, 0
2, 136648, Note_on_c, 0, 59, 63
2, 136664, Note_on_c, 0, 78, 0
2, 136672, Note_on_c, 0, 59, 0
2, 136756, Note_on_c, 0, 71, 82
2, 136756, Note_on_c, 0, 67, 61
2, 136756, Note_on_c, 0, 64, 53
2, 136756, Note_on_c, 0, 52, 64
2, 136800, Control_c, 0, 64, 56
2, 136808, Control_c, 0, 64, 0
2, 136836, Note_on_c, 0, 64, 62
2, 136860, Control_c, 0, 64, 72
2, 136868, Control_c, 0, 64, 127
2, 136936, Note_on_c, 0, 59, 61
2, 137020, Note_on_c, 0, 59, 0
2, 137028, Note_on_c, 0, 64, 0
2, 137032, Note_on_c, 0, 52, 0
2, 137036, Note_on_c, 0, 55, 61
2, 137072, Note_on_c, 0, 55, 0
2, 137144, Note_on_c, 0, 47, 60
2, 137160, Note_on_c, 0, 71, 0
2, 137180, Note_on_c, 0, 47, 0
2, 137188, Note_on_c, 0, 67, 0
2, 137240, Note_on_c, 0, 40, 60
2, 137276, Note_on_c, 0, 64, 0
2, 137288, Note_on_c, 0, 40, 0
2, 137340, Note_on_c, 0, 73, 84
2, 137340, Note_on_c, 0, 69, 66
2, 137340, Note_on_c, 0, 67, 64
2, 137340, Note_on_c, 0, 45, 65
2, 137380, Control_c, 0, 64, 88
2, 137392, Control_c, 0, 64, 40
2, 137396, Control_c, 0, 64, 0
2, 137404, Control_c, 0, 64, 40
2, 137412, Control_c, 0, 64, 88
2, 137420, Note_on_c, 0, 64, 64
2, 137420, Control_c, 0, 64, 127
2, 137520, Note_on_c, 0, 61, 63
2, 137572, Note_on_c, 0, 61, 0
2, 137616, Note_on_c, 0, 57, 62
2, 137684, Note_on_c, 0, 57, 0
2, 137684, Note_on_c, 0, 67, 0
2, 137692, Note_on_c, 0, 55, 62
2, 137720, Note_on_c, 0, 69, 0
2, 137732, Note_on_c, 0, 55, 0
2, 137760, Note_on_c, 0, 64, 0
2, 137800, Note_on_c, 0, 45, 61
2, 137804, Note_on_c, 0, 73, 0
2, 137840, Note_on_c, 0, 45, 0
2, 137896, Note_on_c, 0, 45, 0
2, 137908, Note_on_c, 0, 74, 81
2, 137908, Note_on_c, 0, 72, 59
2, 137908, Note_on_c, 0, 69, 60
2, 137908, Note_on_c, 0, 50, 68
2, 137908, Note_on_c, 0, 66, 49
2, 137940, Control_c, 0, 64, 56
2, 137944, Control_c, 0, 64, 0
2, 137984, Control_c, 0, 64, 88
2, 137992, Control_c, 0, 64, 127
2, 138000, Note_on_c, 0, 66, 63
2, 138104, Note_on_c, 0, 62, 62
2, 138184, Note_on_c, 0, 62, 0
2, 138188, Note_on_c, 0, 60, 61
2, 138192, Note_on_c, 0, 69, 0
2, 138204, Note_on_c, 0, 66, 0
2, 138224, Note_on_c, 0, 72, 0
2, 138268, Note_on_c, 0, 60, 0
2, 138276, Note_on_c, 0, 74, 0
2, 138276, Note_on_c, 0, 57, 60
2, 138312, Note_on_c, 0, 57, 0
2, 138372, Note_on_c, 0, 50, 61
2, 138424, Note_on_c, 0, 50, 0
2, 138488, Note_on_c, 0, 66, 0
2, 138492, Note_on_c, 0, 83, 88
2, 138492, Note_on_c, 0, 78, 74
2, 138492, Note_on_c, 0, 60, 68
2, 138588, Note_on_c, 0, 74, 64
2, 138684, Note_on_c, 0, 72, 63
2, 138688, Note_on_c, 0, 74, 0
2, 138768, Note_on_c, 0, 83, 0
2, 138768, Note_on_c, 0, 72, 0
2, 138772, Note_on_c, 0, 60, 59
2, 138776, Note_on_c, 0, 69, 62
2, 138836, Note_on_c, 0, 69, 0
2, 138844, Note_on_c, 0, 66, 61
2, 138932, Note_on_c, 0, 81, 81
2, 138932, Note_on_c, 0, 69, 56
2, 138932, Note_on_c, 0, 72, 58
2, 138932, Note_on_c, 0, 66, 57
2, 138936, Note_on_c, 0, 78, 0
2, 138964, Note_on_c, 0, 66, 0
2, 138968, Note_on_c, 0, 62, 62
2, 139000, Note_on_c, 0, 62, 0
2, 139008, Note_on_c, 0, 60, 0
2, 139008, Note_on_c, 0, 81, 0
2, 139080, Note_on_c, 0, 79, 81
2, 139080, Note_on_c, 0, 74, 66
2, 139080, Note_on_c, 0, 55, 67
2, 139080, Note_on_c, 0, 67, 59
2, 139080, Note_on_c, 0, 71, 64
2, 139088, Note_on_c, 0, 60, 0
2, 139092, Control_c, 0, 64, 88
2, 139100, Control_c, 0, 64, 24
2, 139104, Note_on_c, 0, 50, 0
2, 139108, Control_c, 0, 64, 0
2, 139116, Note_on_c, 0, 62, 47
2, 139132, Control_c, 0, 64, 24
2, 139140, Control_c, 0, 64, 88
2, 139144, Control_c, 0, 64, 127
2, 139172, Note_on_c, 0, 71, 61
2, 139188, Note_on_c, 0, 72, 0
2, 139188, Note_on_c, 0, 66, 0
2, 139188, Note_on_c, 0, 69, 0
2, 139284, Note_on_c, 0, 67, 63
2, 139312, Note_on_c, 0, 71, 0
2, 139352, Note_on_c, 0, 67, 0
2, 139372, Note_on_c, 0, 62, 62
2, 139424, Note_on_c, 0, 79, 0
2, 139436, Note_on_c, 0, 62, 0
2, 139444, Note_on_c, 0, 67, 0
2, 139448, Note_on_c, 0, 59, 62
2, 139464, Note_on_c, 0, 71, 0
2, 139488, Note_on_c, 0, 62, 0
2, 139512, Note_on_c, 0, 55, 0
2, 139524, Note_on_c, 0, 59, 0
2, 139528, Note_on_c, 0, 55, 61
2, 139540, Note_on_c, 0, 74, 0
2, 139564, Note_on_c, 0, 55, 0
2, 139648, Note_on_c, 0, 77, 82
2, 139648, Note_on_c, 0, 74, 64
2, 139656, Note_on_c, 0, 71, 61
2, 139688, Control_c, 0, 64, 72
2, 139696, Control_c, 0, 64, 0
2, 139728, Note_on_c, 0, 71, 0
2, 139736, Control_c, 0, 64, 127
2, 139744, Note_on_c, 0, 65, 60
2, 139752, Note_on_c, 0, 71, 60
2, 139800, Note_on_c, 0, 65, 0
2, 139828, Note_on_c, 0, 71, 0
2, 139848, Note_on_c, 0, 68, 61
2, 139912, Note_on_c, 0, 68, 0
2, 139932, Note_on_c, 0, 62, 60
2, 139992, Note_on_c, 0, 62, 0
2, 140004, Note_on_c, 0, 74, 0
2, 140012, Note_on_c, 0, 59, 60
2, 140076, Note_on_c, 0, 59, 0
2, 140088, Note_on_c, 0, 56, 59
2, 140128, Note_on_c, 0, 56, 0
2, 140192, Note_on_c, 0, 74, 59
2, 140192, Note_on_c, 0, 71, 58
2, 140192, Note_on_c, 0, 43, 65
2, 140192, Note_on_c, 0, 77, 66
2, 140272, Note_on_c, 0, 65, 59
2, 140360, Note_on_c, 0, 65, 0
2, 140364, Note_on_c, 0, 68, 60
2, 140428, Note_on_c, 0, 68, 0
2, 140456, Note_on_c, 0, 62, 59
2, 140524, Note_on_c, 0, 62, 0
2, 140536, Note_on_c, 0, 59, 59
2, 140604, Note_on_c, 0, 59, 0
2, 140612, Note_on_c, 0, 71, 0
2, 140620, Note_on_c, 0, 56, 58
2, 140628, Note_on_c, 0, 77, 0
2, 140656, Note_on_c, 0, 74, 0
2, 140660, Note_on_c, 0, 56, 0
2, 140728, Note_on_c, 0, 79, 88
2, 140736, Note_on_c, 0, 77, 0
2, 140736, Note_on_c, 0, 74, 63
2, 140744, Control_c, 0, 64, 72
2, 140748, Control_c, 0, 64, 0
2, 140772, Control_c, 0, 64, 24
2, 140776, Note_on_c, 0, 74, 0
2, 140780, Control_c, 0, 64, 88
2, 140788, Control_c, 0, 64, 127
2, 140804, Note_on_c, 0, 71, 68
2, 140812, Note_on_c, 0, 74, 40
2, 140904, Note_on_c, 0, 67, 62
2, 140968, Note_on_c, 0, 67, 0
2, 140980, Note_on_c, 0, 71, 0
2, 140988, Note_on_c, 0, 62, 60
2, 141016, Note_on_c, 0, 74, 0
2, 141060, Note_on_c, 0, 62, 0
2, 141064, Note_on_c, 0, 59, 59
2, 141104, Note_on_c, 0, 79, 0
2, 141152, Note_on_c, 0, 59, 0
2, 141152, Note_on_c, 0, 55, 58
2, 141184, Note_on_c, 0, 43, 0
2, 141188, Note_on_c, 0, 55, 0
2, 141256, Note_on_c, 0, 80, 82
2, 141260, Note_on_c, 0, 77, 70
2, 141264, Note_on_c, 0, 74, 65
2, 141292, Control_c, 0, 64, 72
2, 141300, Control_c, 0, 64, 24
2, 141308, Control_c, 0, 64, 0
2, 141312, Note_on_c, 0, 74, 0
2, 141324, Control_c, 0, 64, 40
2, 141332, Control_c, 0, 64, 104
2, 141340, Control_c, 0, 64, 127
2, 141344, Note_on_c, 0, 71, 53
2, 141444, Note_on_c, 0, 65, 54
2, 141516, Note_on_c, 0, 65, 0
2, 141532, Note_on_c, 0, 62, 56
2, 141596, Note_on_c, 0, 62, 0
2, 141600, Note_on_c, 0, 77, 0
2, 141608, Note_on_c, 0, 59, 39
2, 141612, Note_on_c, 0, 71, 0
2, 141616, Note_on_c, 0, 80, 0
2, 141700, Note_on_c, 0, 59, 0
2, 141708, Note_on_c, 0, 53, 54
2, 141748, Note_on_c, 0, 53, 0
2, 141816, Note_on_c, 0, 71, 72
2, 141816, Note_on_c, 0, 68, 53
2, 141828, Note_on_c, 0, 65, 50
2, 141836, Control_c, 0, 64, 56
2, 141844, Control_c, 0, 64, 0
2, 141848, Control_c, 0, 64, 24
2, 141856, Control_c, 0, 64, 72
2, 141864, Control_c, 0, 64, 127
2, 141888, Note_on_c, 0, 65, 0
2, 141908, Note_on_c, 0, 59, 62
2, 141960, Note_on_c, 0, 59, 0
2, 141972, Note_on_c, 0, 68, 0
2, 142008, Note_on_c, 0, 62, 58
2, 142064, Note_on_c, 0, 62, 0
2, 142088, Note_on_c, 0, 56, 51
2, 142152, Note_on_c, 0, 56, 0
2, 142184, Note_on_c, 0, 53, 40
2, 142248, Note_on_c, 0, 53, 0
2, 142264, Note_on_c, 0, 50, 47
2, 142292, Note_on_c, 0, 50, 0
2, 142340, Note_on_c, 0, 71, 0
2, 142380, Note_on_c, 0, 68, 55
2, 142384, Note_on_c, 0, 65, 56
2, 142384, Note_on_c, 0, 55, 58
2, 142384, Note_on_c, 0, 43, 65
2, 142464, Note_on_c, 0, 59, 59
2, 142520, Note_on_c, 0, 59, 0
2, 142564, Note_on_c, 0, 62, 53
2, 142576, Note_on_c, 0, 65, 0
2, 142632, Note_on_c, 0, 62, 0
2, 142648, Note_on_c, 0, 56, 46
2, 142724, Note_on_c, 0, 56, 0
2, 142752, Note_on_c, 0, 53, 41
2, 142824, Note_on_c, 0, 53, 0
2, 142824, Note_on_c, 0, 68, 0
2, 142836, Note_on_c, 0, 50, 51
2, 142856, Note_on_c, 0, 50, 0
2, 142928, Note_on_c, 0, 72, 82
2, 142932, Note_on_c, 0, 68, 58
2, 142980, Control_c, 0, 64, 40
2, 142988, Control_c, 0, 64, 0
2, 143020, Note_on_c, 0, 65, 62
2, 143020, Control_c, 0, 64, 56
2, 143028, Control_c, 0, 64, 127
2, 143120, Note_on_c, 0, 60, 54
2, 143168, Note_on_c, 0, 55, 0
2, 143192, Note_on_c, 0, 60, 0
2, 143192, Note_on_c, 0, 56, 48
2, 143272, Note_on_c, 0, 56, 0
2, 143276, Note_on_c, 0, 53, 44
2, 143372, Note_on_c, 0, 53, 0
2, 143376, Note_on_c, 0, 48, 58
2, 143396, Note_on_c, 0, 72, 0
2, 143412, Note_on_c, 0, 48, 0
2, 143436, Note_on_c, 0, 68, 0
2, 143440, Note_on_c, 0, 65, 0
2, 143488, Note_on_c, 0, 74, 79
2, 143492, Note_on_c, 0, 68, 59
2, 143492, Note_on_c, 0, 65, 61
2, 143524, Control_c, 0, 64, 88
2, 143532, Note_on_c, 0, 43, 0
2, 143532, Control_c, 0, 64, 0
2, 143568, Control_c, 0, 64, 56
2, 143576, Note_on_c, 0, 62, 57
2, 143576, Control_c, 0, 64, 127
2, 143692, Note_on_c, 0, 59, 54
2, 143760, Note_on_c, 0, 59, 0
2, 143760, Note_on_c, 0, 56, 55
2, 143776, Note_on_c, 0, 62, 0
2, 143780, Note_on_c, 0, 74, 0
2, 143792, Note_on_c, 0, 65, 0
2, 143808, Note_on_c, 0, 68, 0
2, 143832, Note_on_c, 0, 56, 0
2, 143852, Note_on_c, 0, 53, 43
2, 143928, Note_on_c, 0, 53, 0
2, 143932, Note_on_c, 0, 47, 52
2, 143964, Note_on_c, 0, 47, 0
2, 144032, Note_on_c, 0, 65, 68
2, 144036, Note_on_c, 0, 62, 55
2, 144040, Note_on_c, 0, 59, 44
2, 144056, Control_c, 0, 64, 56
2, 144064, Control_c, 0, 64, 0
2, 144088, Control_c, 0, 64, 56
2, 144096, Control_c, 0, 64, 127
2, 144124, Note_on_c, 0, 53, 60
2, 144196, Note_on_c, 0, 53, 0
2, 144220, Note_on_c, 0, 56, 49
2, 144300, Note_on_c, 0, 56, 0
2, 144308, Note_on_c, 0, 50, 52
2, 144372, Note_on_c, 0, 50, 0
2, 144400, Note_on_c, 0, 47, 50
2, 144408, Note_on_c, 0, 62, 0
2, 144416, Note_on_c, 0, 59, 0
2, 144480, Note_on_c, 0, 47, 0
2, 144488, Note_on_c, 0, 44, 44
2, 144516, Note_on_c, 0, 44, 0
2, 144600, Note_on_c, 0, 62, 47
2, 144600, Note_on_c, 0, 44, 59
2, 144600, Note_on_c, 0, 56, 55
2, 144604, Note_on_c, 0, 59, 49
2, 144680, Note_on_c, 0, 53, 43
2, 144736, Note_on_c, 0, 53, 0
2, 144760, Note_on_c, 0, 56, 50
2, 144848, Note_on_c, 0, 56, 0
2, 144852, Note_on_c, 0, 59, 0
2, 144856, Note_on_c, 0, 50, 52
2, 144924, Note_on_c, 0, 50, 0
2, 144932, Note_on_c, 0, 47, 47
2, 144944, Note_on_c, 0, 62, 0
2, 144976, Note_on_c, 0, 65, 0
2, 145008, Note_on_c, 0, 47, 0
2, 145012, Note_on_c, 0, 44, 57
2, 145032, Note_on_c, 0, 44, 0
2, 145116, Note_on_c, 0, 66, 73
2, 145124, Note_on_c, 0, 63, 54
2, 145136, Note_on_c, 0, 60, 44
2, 145148, Control_c, 0, 64, 56
2, 145156, Control_c, 0, 64, 0
2, 145168, Note_on_c, 0, 60, 0
2, 145204, Note_on_c, 0, 54, 50
2, 145212, Control_c, 0, 64, 88
2, 145220, Control_c, 0, 64, 127
2, 145272, Note_on_c, 0, 54, 0
2, 145300, Note_on_c, 0, 57, 55
2, 145368, Note_on_c, 0, 57, 0
2, 145376, Note_on_c, 0, 51, 56
2, 145380, Note_on_c, 0, 44, 0
2, 145420, Note_on_c, 0, 56, 0
2, 145448, Note_on_c, 0, 51, 0
2, 145468, Note_on_c, 0, 48, 53
2, 145540, Note_on_c, 0, 48, 0
2, 145548, Note_on_c, 0, 45, 51
2, 145568, Note_on_c, 0, 63, 0
2, 145616, Note_on_c, 0, 45, 0
2, 145652, Note_on_c, 0, 63, 51
2, 145652, Note_on_c, 0, 60, 52
2, 145652, Note_on_c, 0, 57, 53
2, 145652, Note_on_c, 0, 45, 57
2, 145724, Note_on_c, 0, 54, 45
2, 145768, Note_on_c, 0, 60, 0
2, 145788, Note_on_c, 0, 54, 0
2, 145816, Note_on_c, 0, 57, 40
2, 145872, Note_on_c, 0, 57, 0
2, 145892, Note_on_c, 0, 51, 55
2, 145972, Note_on_c, 0, 51, 0
2, 145972, Note_on_c, 0, 63, 0
2, 145984, Note_on_c, 0, 48, 54
2, 146060, Note_on_c, 0, 48, 0
2, 146072, Note_on_c, 0, 66, 0
2, 146072, Note_on_c, 0, 45, 49
2, 146092, Note_on_c, 0, 45, 0
2, 146160, Note_on_c, 0, 67, 77
2, 146168, Note_on_c, 0, 64, 67
2, 146172, Note_on_c, 0, 61, 52
2, 146188, Control_c, 0, 64, 104
2, 146192, Control_c, 0, 64, 0
2, 146240, Note_on_c, 0, 55, 51
2, 146264, Control_c, 0, 64, 127
2, 146316, Note_on_c, 0, 55, 0
2, 146344, Note_on_c, 0, 58, 45
2, 146348, Note_on_c, 0, 61, 0
2, 146396, Note_on_c, 0, 64, 0
2, 146420, Note_on_c, 0, 58, 0
2, 146428, Note_on_c, 0, 52, 53
2, 146448, Note_on_c, 0, 45, 0
2, 146476, Note_on_c, 0, 57, 0
2, 146496, Note_on_c, 0, 52, 0
2, 146508, Note_on_c, 0, 49, 49
2, 146580, Note_on_c, 0, 49, 0
2, 146584, Note_on_c, 0, 46, 46
2, 146596, Note_on_c, 0, 46, 0
2, 146688, Note_on_c, 0, 64, 55
2, 146688, Note_on_c, 0, 61, 47
2, 146688, Note_on_c, 0, 43, 54
2, 146688, Note_on_c, 0, 46, 50
2, 146688, Note_on_c, 0, 55, 52
2, 146760, Note_on_c, 0, 55, 57
2, 146840, Note_on_c, 0, 58, 43
2, 146848, Note_on_c, 0, 55, 0
2, 146908, Note_on_c, 0, 61, 0
2, 146920, Note_on_c, 0, 58, 0
2, 146924, Note_on_c, 0, 52, 53
2, 146944, Note_on_c, 0, 43, 0
2, 146968, Note_on_c, 0, 67, 68
2, 146984, Note_on_c, 0, 52, 0
2, 146992, Note_on_c, 0, 49, 52
2, 147012, Note_on_c, 0, 46, 0
2, 147068, Note_on_c, 0, 55, 0
2, 147068, Note_on_c, 0, 49, 0
2, 147080, Note_on_c, 0, 46, 48
2, 147132, Note_on_c, 0, 67, 0
2, 147132, Note_on_c, 0, 64, 0
2, 147188, Note_on_c, 0, 67, 0
2, 147196, Note_on_c, 0, 46, 0
2, 147208, Note_on_c, 0, 62, 59
2, 147208, Note_on_c, 0, 65, 59
2, 147208, Note_on_c, 0, 69, 67
2, 147208, Note_on_c, 0, 47, 62
2, 147232, Control_c, 0, 64, 40
2, 147240, Control_c, 0, 64, 0
2, 147284, Note_on_c, 0, 55, 57
2, 147288, Control_c, 0, 64, 72
2, 147296, Control_c, 0, 64, 127
2, 147336, Note_on_c, 0, 55, 0
2, 147392, Note_on_c, 0, 59, 51
2, 147444, Note_on_c, 0, 62, 0
2, 147476, Note_on_c, 0, 59, 0
2, 147508, Note_on_c, 0, 53, 45
2, 147576, Note_on_c, 0, 53, 0
2, 147600, Note_on_c, 0, 50, 51
2, 147616, Note_on_c, 0, 65, 0
2, 147680, Note_on_c, 0, 67, 63
2, 147728, Note_on_c, 0, 50, 0
2, 147736, Note_on_c, 0, 47, 37
2, 147796, Note_on_c, 0, 47, 0
2, 147844, Note_on_c, 0, 69, 0
2, 147888, Note_on_c, 0, 67, 0
2, 147924, Note_on_c, 0, 47, 0
2, 147924, Note_on_c, 0, 60, 48
2, 147924, Note_on_c, 0, 64, 58
2, 147924, Note_on_c, 0, 76, 66
2, 147924, Note_on_c, 0, 36, 62
2, 147924, Note_on_c, 0, 48, 55
2, 148052, Note_on_c, 0, 55, 53
2, 148176, Note_on_c, 0, 52, 44
2, 148180, Note_on_c, 0, 48, 0
2, 148180, Note_on_c, 0, 36, 0
2, 148180, Note_on_c, 0, 76, 0
2, 148228, Note_on_c, 0, 52, 0
2, 148292, Note_on_c, 0, 48, 47
2, 148404, Note_on_c, 0, 48, 0
2, 148416, Note_on_c, 0, 43, 48
2, 148500, Note_on_c, 0, 60, 0
2, 148524, Note_on_c, 0, 64, 0
2, 148532, Note_on_c, 0, 43, 0
2, 148532, Note_on_c, 0, 36, 56
2, 148552, Note_on_c, 0, 36, 0
2, 148624, Note_on_c, 0, 55, 0
2, 148664, Note_on_c, 0, 65, 74
2, 148664, Note_on_c, 0, 62, 62
2, 148664, Note_on_c, 0, 74, 72
2, 148700, Control_c, 0, 64, 104
2, 148712, Control_c, 0, 64, 40
2, 148720, Control_c, 0, 64, 0
2, 148780, Note_on_c, 0, 55, 64
2, 148788, Control_c, 0, 64, 88
2, 148796, Control_c, 0, 64, 127
2, 148896, Note_on_c, 0, 53, 51
2, 149004, Note_on_c, 0, 53, 0
2, 149012, Note_on_c, 0, 50, 59
2, 149040, Note_on_c, 0, 50, 0
2, 149120, Note_on_c, 0, 43, 56
2, 149196, Note_on_c, 0, 72, 84
2, 149216, Note_on_c, 0, 62, 0
2, 149236, Note_on_c, 0, 43, 0
2, 149236, Note_on_c, 0, 36, 56
2, 149240, Note_on_c, 0, 74, 0
2, 149256, Note_on_c, 0, 65, 0
2, 149264, Note_on_c, 0, 72, 0
2, 149276, Note_on_c, 0, 36, 0
2, 149280, Note_on_c, 0, 55, 0
2, 149364, Note_on_c, 0, 66, 73
2, 149364, Note_on_c, 0, 63, 59
2, 149364, Note_on_c, 0, 72, 85
2, 149364, Note_on_c, 0, 60, 55
2, 149440, Control_c, 0, 64, 72
2, 149448, Control_c, 0, 64, 24
2, 149452, Control_c, 0, 64, 0
2, 149484, Note_on_c, 0, 55, 68
2, 149516, Control_c, 0, 64, 88
2, 149524, Control_c, 0, 64, 127
2, 149592, Note_on_c, 0, 54, 51
2, 149692, Note_on_c, 0, 54, 0
2, 149700, Note_on_c, 0, 51, 57
2, 149764, Note_on_c, 0, 51, 0
2, 149812, Note_on_c, 0, 48, 64
2, 149916, Note_on_c, 0, 48, 0
2, 149920, Note_on_c, 0, 55, 0
2, 149928, Note_on_c, 0, 36, 62
2, 149956, Note_on_c, 0, 66, 0
2, 149960, Note_on_c, 0, 63, 0
2, 149980, Note_on_c, 0, 36, 0
2, 150052, Note_on_c, 0, 67, 76
2, 150060, Note_on_c, 0, 64, 65
2, 150080, Control_c, 0, 64, 56
2, 150088, Control_c, 0, 64, 0
2, 150100, Note_on_c, 0, 72, 0
2, 150152, Control_c, 0, 64, 88
2, 150160, Control_c, 0, 64, 127
2, 150168, Note_on_c, 0, 60, 66
2, 150244, Note_on_c, 0, 72, 78
2, 150280, Note_on_c, 0, 55, 59
2, 150380, Note_on_c, 0, 55, 0
2, 150388, Note_on_c, 0, 52, 61
2, 150404, Note_on_c, 0, 74, 88
2, 150408, Note_on_c, 0, 72, 0
2, 150432, Note_on_c, 0, 52, 0
2, 150444, Note_on_c, 0, 60, 0
2, 150480, Note_on_c, 0, 48, 63
2, 150536, Note_on_c, 0, 60, 0
2, 150536, Note_on_c, 0, 64, 0
2, 150552, Note_on_c, 0, 76, 93
2, 150556, Note_on_c, 0, 48, 0
2, 150560, Note_on_c, 0, 74, 0
2, 150580, Note_on_c, 0, 67, 0
2, 150600, Note_on_c, 0, 36, 54
2, 150632, Note_on_c, 0, 36, 0
2, 150668, Note_on_c, 0, 76, 0
2, 150724, Note_on_c, 0, 68, 71
2, 150724, Note_on_c, 0, 62, 46
2, 150724, Note_on_c, 0, 65, 54
2, 150724, Note_on_c, 0, 48, 52
2, 150724, Note_on_c, 0, 59, 52
2, 150724, Note_on_c, 0, 77, 97
2, 150764, Control_c, 0, 64, 104
2, 150772, Control_c, 0, 64, 40
2, 150780, Control_c, 0, 64, 0
2, 150796, Note_on_c, 0, 62, 0
2, 150832, Note_on_c, 0, 59, 59
2, 150856, Control_c, 0, 64, 88
2, 150864, Control_c, 0, 64, 127
2, 150952, Note_on_c, 0, 56, 60
2, 151048, Note_on_c, 0, 56, 0
2, 151060, Note_on_c, 0, 53, 57
2, 151060, Note_on_c, 0, 65, 74
2, 151064, Note_on_c, 0, 59, 0
2, 151068, Note_on_c, 0, 65, 0
2, 151124, Note_on_c, 0, 77, 0
2, 151132, Note_on_c, 0, 53, 0
2, 151156, Note_on_c, 0, 68, 0
2, 151156, Note_on_c, 0, 50, 56
2, 151260, Note_on_c, 0, 50, 0
2, 151264, Note_on_c, 0, 48, 68
2, 151296, Note_on_c, 0, 48, 0
2, 151324, Note_on_c, 0, 65, 0
2, 151400, Note_on_c, 0, 80, 100
2, 151412, Note_on_c, 0, 77, 78
2, 151420, Note_on_c, 0, 74, 59
2, 151436, Control_c, 0, 64, 88
2, 151444, Control_c, 0, 64, 40
2, 151452, Control_c, 0, 64, 0
2, 151468, Control_c, 0, 64, 56
2, 151476, Note_on_c, 0, 74, 0
2, 151476, Control_c, 0, 64, 127
2, 151508, Note_on_c, 0, 71, 60
2, 151620, Note_on_c, 0, 68, 58
2, 151700, Note_on_c, 0, 68, 0
2, 151720, Note_on_c, 0, 65, 61
2, 151796, Note_on_c, 0, 65, 0
2, 151828, Note_on_c, 0, 62, 61
2, 151844, Note_on_c, 0, 48, 0
2, 151904, Note_on_c, 0, 59, 0
2, 151904, Note_on_c, 0, 62, 0
2, 151928, Note_on_c, 0, 59, 59
2, 152032, Note_on_c, 0, 59, 0
2, 152032, Note_on_c, 0, 56, 59
2, 152108, Note_on_c, 0, 56, 0
2, 152140, Note_on_c, 0, 53, 60
2, 152212, Note_on_c, 0, 53, 0
2, 152244, Note_on_c, 0, 50, 66
2, 152272, Control_c, 0, 64, 88
2, 152296, Control_c, 0, 64, 127
2, 152344, Note_on_c, 0, 50, 0
2, 152352, Note_on_c, 0, 47, 62
2, 152460, Note_on_c, 0, 47, 0
2, 152460, Note_on_c, 0, 44, 60
2, 152536, Note_on_c, 0, 44, 0
2, 152588, Note_on_c, 0, 41, 59
2, 152660, Note_on_c, 0, 41, 0
2, 152696, Note_on_c, 0, 38, 58
2, 152784, Note_on_c, 0, 38, 0
2, 152800, Note_on_c, 0, 35, 58
2, 152912, Note_on_c, 0, 32, 57
2, 152932, Note_on_c, 0, 35, 0
2, 152992, Note_on_c, 0, 32, 0
2, 153020, Note_on_c, 0, 31, 57
2, 153100, Note_on_c, 0, 31, 0
2, 153108, Note_on_c, 0, 71, 0
2, 153132, Note_on_c, 0, 29, 58
2, 153144, Note_on_c, 0, 77, 0
2, 153152, Note_on_c, 0, 80, 0
2, 153216, Note_on_c, 0, 29, 0
2, 153244, Note_on_c, 0, 26, 60
2, 153320, Note_on_c, 0, 26, 0
2, 153380, Control_c, 0, 64, 104
2, 153384, Note_on_c, 0, 64, 69
2, 153384, Note_on_c, 0, 24, 60
2, 153384, Note_on_c, 0, 60, 54
2, 153384, Note_on_c, 0, 48, 49
2, 153384, Note_on_c, 0, 76, 82
2, 153388, Control_c, 0, 64, 0
2, 153444, Note_on_c, 0, 24, 0
2, 153444, Control_c, 0, 64, 104
2, 153452, Control_c, 0, 64, 127
2, 153496, Note_on_c, 0, 55, 57
2, 153608, Note_on_c, 0, 52, 57
2, 153648, Note_on_c, 0, 52, 0
2, 153712, Note_on_c, 0, 48, 58
2, 153796, Note_on_c, 0, 48, 0
2, 153804, Note_on_c, 0, 43, 55
2, 153816, Note_on_c, 0, 60, 0
2, 153828, Note_on_c, 0, 55, 0
2, 153880, Note_on_c, 0, 64, 0
2, 153900, Note_on_c, 0, 43, 0
2, 153916, Note_on_c, 0, 36, 52
2, 153956, Note_on_c, 0, 36, 0
2, 154028, Note_on_c, 0, 76, 0
2, 154032, Note_on_c, 0, 65, 71
2, 154032, Note_on_c, 0, 62, 59
2, 154032, Note_on_c, 0, 74, 75
2, 154068, Control_c, 0, 64, 40
2, 154076, Control_c, 0, 64, 0
2, 154124, Control_c, 0, 64, 56
2, 154132, Note_on_c, 0, 55, 59
2, 154132, Control_c, 0, 64, 127
2, 154232, Note_on_c, 0, 53, 60
2, 154320, Note_on_c, 0, 53, 0
2, 154332, Note_on_c, 0, 50, 61
2, 154352, Note_on_c, 0, 50, 0
2, 154380, Note_on_c, 0, 48, 0
2, 154444, Note_on_c, 0, 43, 58
2, 154492, Note_on_c, 0, 74, 0
2, 154512, Note_on_c, 0, 62, 0
2, 154512, Note_on_c, 0, 72, 88
2, 154532, Note_on_c, 0, 43, 0
2, 154544, Note_on_c, 0, 36, 60
2, 154560, Note_on_c, 0, 65, 0
2, 154580, Note_on_c, 0, 36, 0
2, 154592, Note_on_c, 0, 55, 0
2, 154612, Note_on_c, 0, 72, 0
2, 154664, Note_on_c, 0, 66, 77
2, 154664, Note_on_c, 0, 63, 59
2, 154664, Note_on_c, 0, 72, 83
2, 154664, Note_on_c, 0, 60, 50
2, 154712, Control_c, 0, 64, 104
2, 154720, Control_c, 0, 64, 40
2, 154728, Control_c, 0, 64, 0
2, 154756, Note_on_c, 0, 55, 60
2, 154784, Control_c, 0, 64, 104
2, 154788, Control_c, 0, 64, 127
2, 154856, Note_on_c, 0, 54, 60
2, 154928, Note_on_c, 0, 54, 0
2, 154956, Note_on_c, 0, 51, 60
2, 155016, Note_on_c, 0, 51, 0
2, 155052, Note_on_c, 0, 48, 62
2, 155116, Note_on_c, 0, 48, 0
2, 155136, Note_on_c, 0, 55, 0
2, 155156, Note_on_c, 0, 36, 60
2, 155184, Note_on_c, 0, 66, 0
2, 155184, Note_on_c, 0, 63, 0
2, 155192, Note_on_c, 0, 36, 0
2, 155256, Note_on_c, 0, 67, 76
2, 155256, Note_on_c, 0, 64, 67
2, 155280, Note_on_c, 0, 72, 0
2, 155292, Control_c, 0, 64, 40
2, 155300, Control_c, 0, 64, 0
2, 155348, Control_c, 0, 64, 104
2, 155356, Control_c, 0, 64, 127
2, 155368, Note_on_c, 0, 60, 65
2, 155428, Note_on_c, 0, 72, 86
2, 155476, Note_on_c, 0, 55, 64
2, 155524, Note_on_c, 0, 60, 0
2, 155564, Note_on_c, 0, 72, 0
2, 155564, Note_on_c, 0, 55, 0
2, 155568, Note_on_c, 0, 52, 64
2, 155576, Note_on_c, 0, 74, 85
2, 155600, Note_on_c, 0, 52, 0
2, 155672, Note_on_c, 0, 48, 68
2, 155688, Note_on_c, 0, 60, 0
2, 155692, Note_on_c, 0, 74, 0
2, 155700, Note_on_c, 0, 64, 0
2, 155716, Note_on_c, 0, 48, 0
2, 155724, Note_on_c, 0, 76, 85
2, 155724, Note_on_c, 0, 45, 74
2, 155736, Note_on_c, 0, 67, 0
2, 155780, Note_on_c, 0, 45, 0
2, 155780, Note_on_c, 0, 36, 68
2, 155816, Note_on_c, 0, 36, 0
2, 155844, Note_on_c, 0, 76, 0
2, 155904, Note_on_c, 0, 70, 86
2, 155904, Note_on_c, 0, 64, 57
2, 155904, Note_on_c, 0, 67, 56
2, 155904, Note_on_c, 0, 61, 56
2, 155904, Note_on_c, 0, 79, 88
2, 155928, Control_c, 0, 64, 88
2, 155936, Control_c, 0, 64, 0
2, 155984, Note_on_c, 0, 64, 0
2, 155992, Control_c, 0, 64, 88
2, 155996, Note_on_c, 0, 61, 62
2, 156000, Control_c, 0, 64, 127
2, 156100, Note_on_c, 0, 58, 61
2, 156172, Note_on_c, 0, 58, 0
2, 156204, Note_on_c, 0, 55, 60
2, 156204, Note_on_c, 0, 67, 72
2, 156240, Note_on_c, 0, 67, 0
2, 156240, Note_on_c, 0, 61, 0
2, 156252, Note_on_c, 0, 79, 0
2, 156284, Note_on_c, 0, 67, 0
2, 156292, Note_on_c, 0, 52, 62
2, 156296, Note_on_c, 0, 55, 0
2, 156304, Note_on_c, 0, 70, 0
2, 156392, Note_on_c, 0, 45, 66
2, 156416, Note_on_c, 0, 52, 0
2, 156448, Note_on_c, 0, 45, 0
2, 156520, Note_on_c, 0, 82, 91
2, 156528, Note_on_c, 0, 79, 70
2, 156532, Note_on_c, 0, 76, 68
2, 156544, Note_on_c, 0, 76, 0
2, 156620, Note_on_c, 0, 73, 65
2, 156724, Note_on_c, 0, 70, 64
2, 156792, Note_on_c, 0, 70, 0
2, 156820, Note_on_c, 0, 67, 63
2, 156840, Note_on_c, 0, 61, 0
2, 156884, Note_on_c, 0, 67, 0
2, 156924, Note_on_c, 0, 64, 63
2, 156988, Note_on_c, 0, 64, 0
2, 157020, Note_on_c, 0, 61, 63
2, 157124, Note_on_c, 0, 61, 0
2, 157124, Note_on_c, 0, 58, 62
2, 157196, Note_on_c, 0, 58, 0
2, 157228, Note_on_c, 0, 55, 61
2, 157296, Note_on_c, 0, 55, 0
2, 157332, Note_on_c, 0, 52, 61
2, 157408, Note_on_c, 0, 52, 0
2, 157428, Note_on_c, 0, 49, 60
2, 157532, Note_on_c, 0, 49, 0
2, 157536, Note_on_c, 0, 46, 60
2, 157600, Note_on_c, 0, 46, 0
2, 157640, Note_on_c, 0, 43, 60
2, 157704, Note_on_c, 0, 43, 0
2, 157744, Note_on_c, 0, 40, 59
2, 157820, Note_on_c, 0, 40, 0
2, 157844, Note_on_c, 0, 37, 59
2, 157952, Note_on_c, 0, 34, 58
2, 157956, Note_on_c, 0, 37, 0
2, 158004, Note_on_c, 0, 34, 0
2, 158052, Note_on_c, 0, 33, 58
2, 158052, Note_on_c, 0, 74, 65
2, 158120, Note_on_c, 0, 33, 0
2, 158136, Note_on_c, 0, 73, 0
2, 158148, Note_on_c, 0, 79, 0
2, 158148, Note_on_c, 0, 31, 57
2, 158156, Note_on_c, 0, 82, 0
2, 158180, Note_on_c, 0, 74, 0
2, 158204, Note_on_c, 0, 76, 67
2, 158228, Note_on_c, 0, 31, 0
2, 158260, Note_on_c, 0, 28, 58
2, 158336, Note_on_c, 0, 76, 0
2, 158336, Note_on_c, 0, 79, 64
2, 158352, Note_on_c, 0, 28, 0
2, 158376, Note_on_c, 0, 69, 64
2, 158376, Note_on_c, 0, 65, 53
2, 158376, Note_on_c, 0, 77, 70
2, 158376, Note_on_c, 0, 62, 54
2, 158376, Note_on_c, 0, 57, 61
2, 158396, Note_on_c, 0, 79, 0
2, 158444, Control_c, 0, 64, 56
2, 158456, Control_c, 0, 64, 104
2, 158464, Control_c, 0, 64, 127
2, 158468, Note_on_c, 0, 77, 0
2, 158476, Note_on_c, 0, 62, 62
2, 158512, Note_on_c, 0, 76, 67
2, 158548, Note_on_c, 0, 57, 46
2, 158632, Note_on_c, 0, 57, 0
2, 158636, Note_on_c, 0, 53, 45
2, 158636, Note_on_c, 0, 77, 69
2, 158644, Note_on_c, 0, 62, 0
2, 158644, Note_on_c, 0, 76, 0
2, 158680, Note_on_c, 0, 53, 0
2, 158696, Note_on_c, 0, 50, 53
2, 158748, Note_on_c, 0, 50, 0
2, 158756, Note_on_c, 0, 81, 72
2, 158760, Note_on_c, 0, 57, 0
2, 158760, Note_on_c, 0, 62, 0
2, 158764, Note_on_c, 0, 69, 0
2, 158764, Note_on_c, 0, 45, 56
2, 158768, Note_on_c, 0, 77, 0
2, 158780, Note_on_c, 0, 65, 0
2, 158816, Note_on_c, 0, 45, 0
2, 158864, Note_on_c, 0, 69, 72
2, 158864, Note_on_c, 0, 64, 63
2, 158884, Note_on_c, 0, 81, 73
2, 158888, Note_on_c, 0, 81, 0
2, 158900, Control_c, 0, 64, 56
2, 158908, Control_c, 0, 64, 0
2, 158928, Note_on_c, 0, 64, 0
2, 158956, Note_on_c, 0, 61, 50
2, 158980, Control_c, 0, 64, 72
2, 158988, Control_c, 0, 64, 127
2, 159016, Note_on_c, 0, 81, 0
2, 159044, Note_on_c, 0, 57, 52
2, 159080, Note_on_c, 0, 61, 0
2, 159116, Note_on_c, 0, 57, 0
2, 159132, Note_on_c, 0, 55, 45
2, 159132, Note_on_c, 0, 81, 74
2, 159136, Note_on_c, 0, 69, 0
2, 159160, Note_on_c, 0, 55, 0
2, 159180, Note_on_c, 0, 52, 55
2, 159228, Note_on_c, 0, 52, 0
2, 159264, Note_on_c, 0, 81, 0
2, 159264, Note_on_c, 0, 45, 45
2, 159304, Note_on_c, 0, 45, 0
2, 159380, Note_on_c, 0, 81, 80
2, 159380, Note_on_c, 0, 65, 50
2, 159380, Note_on_c, 0, 69, 61
2, 159380, Note_on_c, 0, 45, 60
2, 159380, Note_on_c, 0, 53, 51
2, 159424, Control_c, 0, 64, 104
2, 159432, Control_c, 0, 64, 40
2, 159444, Control_c, 0, 64, 0
2, 159468, Note_on_c, 0, 62, 53
2, 159492, Control_c, 0, 64, 24
2, 159504, Control_c, 0, 64, 88
2, 159512, Control_c, 0, 64, 127
2, 159540, Note_on_c, 0, 57, 39
2, 159608, Note_on_c, 0, 57, 0
2, 159628, Note_on_c, 0, 53, 41
2, 159664, Note_on_c, 0, 53, 0
2, 159688, Note_on_c, 0, 65, 0
2, 159688, Note_on_c, 0, 50, 54
2, 159732, Note_on_c, 0, 81, 0
2, 159748, Note_on_c, 0, 62, 0
2, 159748, Note_on_c, 0, 50, 0
2, 159752, Note_on_c, 0, 77, 73
2, 159768, Note_on_c, 0, 45, 54
2, 159816, Note_on_c, 0, 45, 0
2, 159852, Note_on_c, 0, 45, 0
2, 159852, Note_on_c, 0, 53, 0
2, 159876, Note_on_c, 0, 64, 51
2, 159876, Note_on_c, 0, 69, 68
2, 159876, Note_on_c, 0, 76, 68
2, 159876, Note_on_c, 0, 61, 49
2, 159876, Note_on_c, 0, 57, 51
2, 159880, Control_c, 0, 64, 56
2, 159892, Control_c, 0, 64, 0
2, 159904, Note_on_c, 0, 77, 0
2, 159940, Control_c, 0, 64, 40
2, 159944, Note_on_c, 0, 61, 45
2, 159952, Control_c, 0, 64, 127
2, 159972, Note_on_c, 0, 61, 0
2, 160008, Note_on_c, 0, 69, 0
2, 160016, Note_on_c, 0, 57, 36
2, 160028, Note_on_c, 0, 76, 0
2, 160096, Note_on_c, 0, 57, 0
2, 160104, Note_on_c, 0, 69, 0
2, 160104, Note_on_c, 0, 55, 45
2, 160112, Note_on_c, 0, 74, 83
2, 160152, Note_on_c, 0, 55, 0
2, 160176, Note_on_c, 0, 52, 47
2, 160228, Note_on_c, 0, 52, 0
2, 160236, Note_on_c, 0, 74, 0
2, 160240, Note_on_c, 0, 76, 85
2, 160332, Note_on_c, 0, 64, 0
2, 160348, Note_on_c, 0, 57, 0
2, 160348, Note_on_c, 0, 61, 0
2, 160352, Note_on_c, 0, 76, 0
2, 160356, Note_on_c, 0, 79, 71
2, 160392, Note_on_c, 0, 77, 87
2, 160392, Note_on_c, 0, 69, 51
2, 160392, Note_on_c, 0, 65, 51
2, 160392, Note_on_c, 0, 62, 55
2, 160404, Control_c, 0, 64, 88
2, 160412, Note_on_c, 0, 79, 0
2, 160416, Control_c, 0, 64, 0
2, 160476, Control_c, 0, 64, 72
2, 160488, Control_c, 0, 64, 127
2, 160516, Note_on_c, 0, 69, 60
2, 160524, Note_on_c, 0, 76, 84
2, 160528, Note_on_c, 0, 77, 0
2, 160600, Note_on_c, 0, 65, 50
2, 160608, Note_on_c, 0, 69, 0
2, 160640, Note_on_c, 0, 76, 0
2, 160644, Note_on_c, 0, 77, 85
2, 160652, Note_on_c, 0, 65, 0
2, 160664, Note_on_c, 0, 62, 56
2, 160740, Note_on_c, 0, 62, 0
2, 160748, Note_on_c, 0, 57, 53
2, 160772, Note_on_c, 0, 57, 0
2, 160776, Note_on_c, 0, 81, 86
2, 160780, Note_on_c, 0, 77, 0
2, 160848, Note_on_c, 0, 81, 0
2, 160864, Note_on_c, 0, 65, 0
2, 160864, Note_on_c, 0, 62, 0
2, 160864, Note_on_c, 0, 69, 0
2, 160916, Note_on_c, 0, 81, 87
2, 160960, Control_c, 0, 64, 72
2, 160972, Control_c, 0, 64, 0
2, 161020, Control_c, 0, 64, 88
2, 161032, Control_c, 0, 64, 127
2, 161060, Note_on_c, 0, 69, 58
2, 161064, Note_on_c, 0, 81, 0
2, 161176, Note_on_c, 0, 81, 88
2, 161176, Note_on_c, 0, 64, 56
2, 161184, Note_on_c, 0, 69, 0
2, 161244, Note_on_c, 0, 64, 0
2, 161248, Note_on_c, 0, 61, 55
2, 161284, Note_on_c, 0, 81, 0
2, 161320, Note_on_c, 0, 61, 0
2, 161324, Note_on_c, 0, 57, 53
2, 161372, Note_on_c, 0, 57, 0
2, 161452, Note_on_c, 0, 81, 90
2, 161452, Note_on_c, 0, 69, 65
2, 161452, Note_on_c, 0, 65, 56
2, 161452, Note_on_c, 0, 62, 60
2, 161472, Control_c, 0, 64, 40
2, 161484, Control_c, 0, 64, 0
2, 161532, Control_c, 0, 64, 88
2, 161544, Control_c, 0, 64, 127
2, 161576, Note_on_c, 0, 69, 62
2, 161656, Note_on_c, 0, 69, 0
2, 161656, Note_on_c, 0, 65, 39
2, 161700, Note_on_c, 0, 65, 0
2, 161716, Note_on_c, 0, 62, 54
2, 161784, Note_on_c, 0, 81, 0
2, 161792, Note_on_c, 0, 62, 0
2, 161804, Note_on_c, 0, 77, 85
2, 161828, Note_on_c, 0, 57, 49
2, 161876, Note_on_c, 0, 57, 0
2, 161924, Note_on_c, 0, 62, 0
2, 161924, Note_on_c, 0, 69, 0
2, 161924, Note_on_c, 0, 65, 0
2, 161948, Note_on_c, 0, 76, 82
2, 161948, Note_on_c, 0, 64, 50
2, 161948, Note_on_c, 0, 61, 48
2, 161948, Note_on_c, 0, 57, 51
2, 161996, Control_c, 0, 64, 56
2, 162008, Note_on_c, 0, 77, 0
2, 162008, Control_c, 0, 64, 0
2, 162068, Control_c, 0, 64, 72
2, 162076, Control_c, 0, 64, 127
2, 162092, Note_on_c, 0, 69, 54
2, 162180, Note_on_c, 0, 69, 0
2, 162184, Note_on_c, 0, 64, 52
2, 162200, Note_on_c, 0, 76, 0
2, 162240, Note_on_c, 0, 64, 0
2, 162252, Note_on_c, 0, 61, 40
2, 162332, Note_on_c, 0, 61, 0
2, 162348, Note_on_c, 0, 57, 43
2, 162408, Note_on_c, 0, 57, 0
2, 162420, Note_on_c, 0, 61, 0
2, 162420, Note_on_c, 0, 64, 0
2, 162420, Note_on_c, 0, 57, 0
2, 162516, Note_on_c, 0, 63, 46
2, 162516, Note_on_c, 0, 67, 58
2, 162516, Note_on_c, 0, 60, 55
2, 162516, Note_on_c, 0, 55, 58
2, 162520, Control_c, 0, 64, 56
2, 162528, Control_c, 0, 64, 0
2, 162588, Control_c, 0, 64, 88
2, 162600, Control_c, 0, 64, 127
2, 162616, Note_on_c, 0, 60, 53
2, 162660, Note_on_c, 0, 74, 65
2, 162700, Note_on_c, 0, 60, 0
2, 162700, Note_on_c, 0, 55, 54
2, 162772, Note_on_c, 0, 55, 0
2, 162772, Note_on_c, 0, 60, 0
2, 162784, Note_on_c, 0, 51, 44
2, 162784, Note_on_c, 0, 75, 67
2, 162788, Note_on_c, 0, 55, 0
2, 162792, Note_on_c, 0, 74, 0
2, 162832, Note_on_c, 0, 51, 0
2, 162852, Note_on_c, 0, 48, 56
2, 162872, Note_on_c, 0, 67, 0
2, 162888, Note_on_c, 0, 79, 72
2, 162892, Note_on_c, 0, 63, 0
2, 162908, Note_on_c, 0, 48, 0
2, 162916, Note_on_c, 0, 75, 0
2, 162924, Note_on_c, 0, 43, 50
2, 162960, Note_on_c, 0, 43, 0
2, 163020, Note_on_c, 0, 79, 0
2, 163024, Note_on_c, 0, 67, 63
2, 163024, Note_on_c, 0, 79, 72
2, 163028, Note_on_c, 0, 62, 55
2, 163032, Control_c, 0, 64, 88
2, 163044, Control_c, 0, 64, 0
2, 163104, Control_c, 0, 64, 72
2, 163116, Note_on_c, 0, 59, 55
2, 163116, Control_c, 0, 64, 127
2, 163156, Note_on_c, 0, 79, 0
2, 163188, Note_on_c, 0, 55, 59
2, 163276, Note_on_c, 0, 55, 0
2, 163280, Note_on_c, 0, 53, 56
2, 163280, Note_on_c, 0, 79, 73
2, 163348, Note_on_c, 0, 62, 0
2, 163352, Note_on_c, 0, 53, 0
2, 163356, Note_on_c, 0, 67, 0
2, 163364, Note_on_c, 0, 50, 45
2, 163368, Note_on_c, 0, 59, 0
2, 163412, Note_on_c, 0, 79, 0
2, 163420, Note_on_c, 0, 50, 0
2, 163436, Note_on_c, 0, 43, 54
2, 163472, Note_on_c, 0, 43, 0
2, 163532, Note_on_c, 0, 63, 50
2, 163532, Note_on_c, 0, 67, 63
2, 163532, Note_on_c, 0, 79, 78
2, 163568, Control_c, 0, 64, 104
2, 163576, Control_c, 0, 64, 24
2, 163588, Control_c, 0, 64, 0
2, 163624, Note_on_c, 0, 60, 51
2, 163640, Control_c, 0, 64, 40
2, 163648, Control_c, 0, 64, 104
2, 163660, Control_c, 0, 64, 127
2, 163672, Note_on_c, 0, 55, 47
2, 163744, Note_on_c, 0, 55, 0
2, 163756, Note_on_c, 0, 51, 40
2, 163808, Note_on_c, 0, 51, 0
2, 163812, Note_on_c, 0, 67, 0
2, 163824, Note_on_c, 0, 48, 56
2, 163888, Note_on_c, 0, 48, 0
2, 163888, Note_on_c, 0, 63, 0
2, 163892, Note_on_c, 0, 75, 72
2, 163900, Note_on_c, 0, 43, 52
2, 163916, Note_on_c, 0, 79, 0
2, 163932, Note_on_c, 0, 60, 0
2, 163948, Note_on_c, 0, 43, 0
2, 164008, Note_on_c, 0, 67, 60
2, 164008, Note_on_c, 0, 62, 60
2, 164008, Note_on_c, 0, 74, 70
2, 164008, Control_c, 0, 64, 56
2, 164020, Control_c, 0, 64, 0
2, 164024, Note_on_c, 0, 75, 0
2, 164072, Control_c, 0, 64, 104
2, 164076, Note_on_c, 0, 62, 0
2, 164076, Note_on_c, 0, 59, 52
2, 164080, Control_c, 0, 64, 127
2, 164104, Note_on_c, 0, 59, 0
2, 164140, Note_on_c, 0, 74, 0
2, 164156, Note_on_c, 0, 55, 53
2, 164160, Note_on_c, 0, 67, 0
2, 164248, Note_on_c, 0, 55, 0
2, 164252, Note_on_c, 0, 53, 56
2, 164256, Note_on_c, 0, 72, 74
2, 164308, Note_on_c, 0, 53, 0
2, 164312, Note_on_c, 0, 50, 53
2, 164364, Note_on_c, 0, 72, 0
2, 164380, Note_on_c, 0, 50, 0
2, 164380, Note_on_c, 0, 74, 80
2, 164404, Note_on_c, 0, 43, 45
2, 164428, Note_on_c, 0, 43, 0
2, 164484, Note_on_c, 0, 74, 0
2, 164500, Note_on_c, 0, 77, 69
2, 164532, Note_on_c, 0, 75, 82
2, 164532, Control_c, 0, 64, 88
2, 164544, Control_c, 0, 64, 0
2, 164556, Note_on_c, 0, 77, 0
2, 164604, Control_c, 0, 64, 88
2, 164616, Control_c, 0, 64, 127
2, 164640, Note_on_c, 0, 67, 49
2, 164656, Note_on_c, 0, 75, 0
2, 164656, Note_on_c, 0, 74, 82
2, 164716, Note_on_c, 0, 63, 43
2, 164724, Note_on_c, 0, 67, 0
2, 164764, Note_on_c, 0, 63, 0
2, 164768, Note_on_c, 0, 74, 0
2, 164772, Note_on_c, 0, 75, 83
2, 164772, Note_on_c, 0, 60, 49
2, 164848, Note_on_c, 0, 60, 0
2, 164860, Note_on_c, 0, 55, 49
2, 164892, Note_on_c, 0, 55, 0
2, 164896, Note_on_c, 0, 75, 0
2, 164900, Note_on_c, 0, 79, 84
2, 164976, Note_on_c, 0, 79, 0
2, 165040, Note_on_c, 0, 79, 86
2, 165080, Control_c, 0, 64, 72
2, 165088, Control_c, 0, 64, 0
2, 165148, Control_c, 0, 64, 104
2, 165156, Control_c, 0, 64, 127
2, 165176, Note_on_c, 0, 67, 49
2, 165188, Note_on_c, 0, 79, 0
2, 165260, Note_on_c, 0, 67, 0
2, 165268, Note_on_c, 0, 62, 45
2, 165296, Note_on_c, 0, 79, 86
2, 165328, Note_on_c, 0, 62, 0
2, 165340, Note_on_c, 0, 59, 41
2, 165412, Note_on_c, 0, 79, 0
2, 165420, Note_on_c, 0, 59, 0
2, 165428, Note_on_c, 0, 55, 49
2, 165452, Note_on_c, 0, 55, 0
2, 165560, Note_on_c, 0, 79, 85
2, 165560, Note_on_c, 0, 67, 59
2, 165560, Note_on_c, 0, 63, 55
2, 165560, Note_on_c, 0, 60, 56
2, 165612, Control_c, 0, 64, 104
2, 165620, Control_c, 0, 64, 24
2, 165632, Control_c, 0, 64, 0
2, 165680, Control_c, 0, 64, 88
2, 165692, Control_c, 0, 64, 127
2, 165704, Note_on_c, 0, 67, 48
2, 165784, Note_on_c, 0, 63, 40
2, 165788, Note_on_c, 0, 67, 0
2, 165844, Note_on_c, 0, 63, 0
2, 165852, Note_on_c, 0, 60, 50
2, 165916, Note_on_c, 0, 60, 0
2, 165932, Note_on_c, 0, 60, 0
2, 165932, Note_on_c, 0, 63, 0
2, 165932, Note_on_c, 0, 67, 0
2, 165932, Note_on_c, 0, 75, 77
2, 165940, Note_on_c, 0, 79, 0
2, 165948, Note_on_c, 0, 55, 43
2, 165988, Note_on_c, 0, 55, 0
2, 166092, Note_on_c, 0, 74, 71
2, 166092, Note_on_c, 0, 62, 51
2, 166092, Note_on_c, 0, 59, 49
2, 166092, Note_on_c, 0, 55, 51
2, 166108, Note_on_c, 0, 75, 0
2, 166156, Control_c, 0, 64, 72
2, 166164, Control_c, 0, 64, 0
2, 166224, Note_on_c, 0, 67, 48
2, 166228, Control_c, 0, 64, 72
2, 166236, Control_c, 0, 64, 127
2, 166324, Note_on_c, 0, 67, 0
2, 166328, Note_on_c, 0, 62, 51
2, 166380, Note_on_c, 0, 62, 0
2, 166388, Note_on_c, 0, 59, 51
2, 166464, Note_on_c, 0, 59, 0
2, 166464, Note_on_c, 0, 55, 0
2, 166464, Note_on_c, 0, 62, 0
2, 166476, Note_on_c, 0, 59, 0
2, 166476, Note_on_c, 0, 55, 43
2, 166480, Note_on_c, 0, 74, 0
2, 166504, Note_on_c, 0, 55, 0
2, 166556, Note_on_c, 0, 74, 78
2, 166700, Note_on_c, 0, 79, 83
2, 166700, Note_on_c, 0, 76, 57
2, 166700, Note_on_c, 0, 72, 52
2, 166700, Note_on_c, 0, 67, 52
2, 166700, Note_on_c, 0, 43, 61
2, 166700, Note_on_c, 0, 55, 53
2, 166704, Note_on_c, 0, 74, 0
2, 166760, Control_c, 0, 64, 88
2, 166768, Control_c, 0, 64, 0
2, 166840, Control_c, 0, 64, 72
2, 166848, Control_c, 0, 64, 127
2, 166852, Note_on_c, 0, 67, 49
2, 166956, Note_on_c, 0, 64, 46
2, 167016, Note_on_c, 0, 64, 0
2, 167040, Note_on_c, 0, 60, 55
2, 167128, Note_on_c, 0, 60, 0
2, 167140, Note_on_c, 0, 76, 80
2, 167152, Note_on_c, 0, 55, 45
2, 167172, Note_on_c, 0, 67, 0
2, 167336, Note_on_c, 0, 67, 0
2, 167336, Note_on_c, 0, 74, 73
2, 167336, Note_on_c, 0, 71, 57
2, 167344, Note_on_c, 0, 76, 0
2, 167356, Note_on_c, 0, 72, 0
2, 167364, Note_on_c, 0, 76, 0
2, 167372, Note_on_c, 0, 55, 0
2, 167432, Control_c, 0, 64, 56
2, 167444, Control_c, 0, 64, 0
2, 167504, Control_c, 0, 64, 56
2, 167516, Control_c, 0, 64, 127
2, 167524, Note_on_c, 0, 67, 50
2, 167544, Note_on_c, 0, 79, 0
2, 167628, Note_on_c, 0, 67, 0
2, 167644, Note_on_c, 0, 55, 0
2, 167644, Note_on_c, 0, 62, 49
2, 167720, Note_on_c, 0, 62, 0
2, 167732, Note_on_c, 0, 59, 46
2, 167756, Note_on_c, 0, 43, 0
2, 167808, Note_on_c, 0, 71, 0
2, 167840, Note_on_c, 0, 59, 0
2, 167844, Note_on_c, 0, 55, 51
2, 167860, Note_on_c, 0, 74, 0
2, 167876, Note_on_c, 0, 55, 0
2, 168128, Note_on_c, 0, 74, 75
2, 168148, Control_c, 0, 64, 56
2, 168156, Control_c, 0, 64, 0
2, 168220, Control_c, 0, 64, 104
2, 168228, Control_c, 0, 64, 127
2, 168300, Note_on_c, 0, 67, 50
2, 168396, Note_on_c, 0, 62, 52
2, 168472, Note_on_c, 0, 62, 0
2, 168476, Note_on_c, 0, 59, 42
2, 168560, Note_on_c, 0, 53, 55
2, 168580, Note_on_c, 0, 59, 0
2, 168624, Note_on_c, 0, 53, 0
2, 168640, Note_on_c, 0, 74, 0
2, 168660, Note_on_c, 0, 67, 0
2, 168676, Note_on_c, 0, 76, 83
2, 168712, Control_c, 0, 64, 88
2, 168724, Control_c, 0, 64, 0
2, 168784, Control_c, 0, 64, 88
2, 168792, Control_c, 0, 64, 127
2, 168832, Note_on_c, 0, 67, 55
2, 168900, Note_on_c, 0, 60, 54
2, 168988, Note_on_c, 0, 60, 0
2, 168988, Note_on_c, 0, 55, 51
2, 169032, Note_on_c, 0, 76, 0
2, 169068, Note_on_c, 0, 55, 0
2, 169068, Note_on_c, 0, 52, 59
2, 169112, Note_on_c, 0, 52, 0
2, 169164, Note_on_c, 0, 67, 0
2, 169172, Note_on_c, 0, 79, 88
2, 169216, Control_c, 0, 64, 40
2, 169228, Control_c, 0, 64, 0
2, 169276, Control_c, 0, 64, 56
2, 169284, Control_c, 0, 64, 127
2, 169340, Note_on_c, 0, 67, 63
2, 169416, Note_on_c, 0, 61, 42
2, 169484, Note_on_c, 0, 61, 0
2, 169492, Note_on_c, 0, 57, 48
2, 169580, Note_on_c, 0, 50, 56
2, 169608, Note_on_c, 0, 50, 0
2, 169624, Note_on_c, 0, 57, 0
2, 169624, Note_on_c, 0, 67, 0
2, 169708, Note_on_c, 0, 79, 0
2, 169780, Note_on_c, 0, 65, 71
2, 169788, Control_c, 0, 64, 104
2, 169800, Control_c, 0, 64, 40
2, 169808, Control_c, 0, 64, 0
2, 169840, Control_c, 0, 64, 72
2, 169848, Control_c, 0, 64, 127
2, 169888, Note_on_c, 0, 77, 89
2, 169892, Note_on_c, 0, 62, 51
2, 169968, Note_on_c, 0, 62, 0
2, 169968, Note_on_c, 0, 57, 49
2, 170008, Note_on_c, 0, 65, 0
2, 170032, Note_on_c, 0, 57, 0
2, 170036, Note_on_c, 0, 53, 50
2, 170072, Note_on_c, 0, 53, 0
2, 170100, Note_on_c, 0, 77, 0
2, 170120, Note_on_c, 0, 76, 93
2, 170192, Control_c, 0, 64, 104
2, 170204, Control_c, 0, 64, 0
2, 170252, Control_c, 0, 64, 40
2, 170264, Control_c, 0, 64, 127
2, 170284, Note_on_c, 0, 67, 66
2, 170360, Note_on_c, 0, 64, 54
2, 170368, Note_on_c, 0, 67, 0
2, 170400, Note_on_c, 0, 64, 0
2, 170420, Note_on_c, 0, 60, 61
2, 170484, Note_on_c, 0, 60, 0
2, 170496, Note_on_c, 0, 55, 53
2, 170540, Note_on_c, 0, 55, 0
2, 170592, Note_on_c, 0, 74, 90
2, 170612, Note_on_c, 0, 76, 0
2, 170676, Control_c, 0, 64, 40
2, 170684, Control_c, 0, 64, 0
2, 170728, Note_on_c, 0, 71, 64
2, 170736, Control_c, 0, 64, 88
2, 170744, Control_c, 0, 64, 127
2, 170808, Note_on_c, 0, 71, 0
2, 170812, Note_on_c, 0, 65, 62
2, 170848, Note_on_c, 0, 74, 0
2, 170860, Note_on_c, 0, 65, 0
2, 170872, Note_on_c, 0, 62, 55
2, 170940, Note_on_c, 0, 56, 52
2, 170944, Note_on_c, 0, 62, 0
2, 170976, Note_on_c, 0, 56, 0
2, 171016, Note_on_c, 0, 74, 87
2, 171096, Note_on_c, 0, 74, 0
2, 171104, Note_on_c, 0, 76, 85
2, 171160, Note_on_c, 0, 71, 71
2, 171196, Note_on_c, 0, 74, 89
2, 171212, Note_on_c, 0, 76, 0
2, 171232, Note_on_c, 0, 71, 0
2, 171268, Note_on_c, 0, 74, 0
2, 171284, Note_on_c, 0, 65, 56
2, 171292, Note_on_c, 0, 73, 86
2, 171328, Note_on_c, 0, 65, 0
2, 171356, Note_on_c, 0, 73, 0
2, 171368, Note_on_c, 0, 62, 53
2, 171376, Note_on_c, 0, 74, 92
2, 171440, Note_on_c, 0, 62, 0
2, 171448, Note_on_c, 0, 74, 0
2, 171456, Note_on_c, 0, 57, 49
2, 171460, Note_on_c, 0, 76, 84
2, 171500, Note_on_c, 0, 57, 0
2, 171536, Note_on_c, 0, 76, 0
2, 171556, Note_on_c, 0, 72, 82
2, 171580, Control_c, 0, 64, 88
2, 171592, Control_c, 0, 64, 0
2, 171664, Control_c, 0, 64, 127
2, 171692, Note_on_c, 0, 69, 58
2, 171764, Note_on_c, 0, 69, 0
2, 171776, Note_on_c, 0, 65, 49
2, 171828, Note_on_c, 0, 65, 0
2, 171840, Note_on_c, 0, 60, 56
2, 171904, Note_on_c, 0, 72, 0
2, 171912, Note_on_c, 0, 60, 0
2, 171988, Note_on_c, 0, 69, 67
2, 172024, Note_on_c, 0, 57, 53
2, 172076, Note_on_c, 0, 57, 0
2, 172076, Control_c, 0, 64, 0
2, 172120, Control_c, 0, 64, 72
2, 172132, Note_on_c, 0, 62, 72
2, 172132, Note_on_c, 0, 59, 63
2, 172136, Control_c, 0, 64, 72
2, 172144, Control_c, 0, 64, 0
2, 172216, Control_c, 0, 64, 104
2, 172224, Note_on_c, 0, 67, 59
2, 172224, Control_c, 0, 64, 127
2, 172276, Note_on_c, 0, 67, 0
2, 172304, Note_on_c, 0, 74, 76
2, 172380, Note_on_c, 0, 74, 0
2, 172388, Note_on_c, 0, 77, 82
2, 172404, Note_on_c, 0, 59, 0
2, 172420, Note_on_c, 0, 69, 0
2, 172472, Note_on_c, 0, 79, 82
2, 172476, Note_on_c, 0, 77, 0
2, 172484, Note_on_c, 0, 62, 0
2, 172560, Note_on_c, 0, 67, 65
2, 172576, Note_on_c, 0, 79, 0
2, 172616, Note_on_c, 0, 67, 0
2, 172636, Note_on_c, 0, 64, 86
2, 172636, Note_on_c, 0, 60, 70
2, 172636, Note_on_c, 0, 58, 50
2, 172660, Control_c, 0, 64, 56
2, 172668, Control_c, 0, 64, 0
2, 172728, Control_c, 0, 64, 104
2, 172732, Note_on_c, 0, 67, 69
2, 172740, Control_c, 0, 64, 127
2, 172772, Note_on_c, 0, 67, 0
2, 172804, Note_on_c, 0, 72, 87
2, 172868, Note_on_c, 0, 72, 0
2, 172880, Note_on_c, 0, 60, 0
2, 172884, Note_on_c, 0, 76, 82
2, 172924, Note_on_c, 0, 58, 0
2, 172940, Note_on_c, 0, 64, 0
2, 172968, Note_on_c, 0, 76, 0
2, 172972, Note_on_c, 0, 79, 86
2, 173040, Note_on_c, 0, 67, 78
2, 173072, Note_on_c, 0, 67, 0
2, 173112, Note_on_c, 0, 79, 0
2, 173148, Note_on_c, 0, 67, 86
2, 173152, Note_on_c, 0, 60, 77
2, 173156, Note_on_c, 0, 57, 68
2, 173172, Control_c, 0, 64, 104
2, 173184, Control_c, 0, 64, 0
2, 173244, Note_on_c, 0, 72, 81
2, 173264, Control_c, 0, 64, 56
2, 173272, Control_c, 0, 64, 127
2, 173312, Note_on_c, 0, 72, 0
2, 173324, Note_on_c, 0, 76, 88
2, 173340, Note_on_c, 0, 72, 15
2, 173364, Note_on_c, 0, 72, 0
2, 173392, Note_on_c, 0, 76, 0
2, 173404, Note_on_c, 0, 79, 89
2, 173484, Note_on_c, 0, 84, 88
2, 173500, Note_on_c, 0, 79, 0
2, 173560, Note_on_c, 0, 67, 0
2, 173568, Note_on_c, 0, 72, 67
2, 173656, Note_on_c, 0, 72, 0
2, 173660, Note_on_c, 0, 65, 76
2, 173676, Control_c, 0, 64, 56
2, 173684, Control_c, 0, 64, 40
2, 173696, Control_c, 0, 64, 56
2, 173704, Control_c, 0, 64, 104
2, 173716, Control_c, 0, 64, 127
2, 173740, Note_on_c, 0, 60, 0
2, 173744, Note_on_c, 0, 72, 73
2, 173752, Note_on_c, 0, 84, 0
2, 173764, Note_on_c, 0, 57, 0
2, 173788, Note_on_c, 0, 65, 0
2, 173812, Note_on_c, 0, 72, 0
2, 173820, Note_on_c, 0, 77, 83
2, 173884, Note_on_c, 0, 77, 0
2, 173916, Note_on_c, 0, 64, 82
2, 173916, Note_on_c, 0, 60, 67
2, 173916, Control_c, 0, 64, 104
2, 173928, Note_on_c, 0, 55, 70
2, 173928, Control_c, 0, 64, 40
2, 173936, Control_c, 0, 64, 0
2, 173948, Control_c, 0, 64, 24
2, 173956, Control_c, 0, 64, 56
2, 173968, Control_c, 0, 64, 127
2, 173988, Note_on_c, 0, 55, 0
2, 173988, Note_on_c, 0, 60, 0
2, 174004, Note_on_c, 0, 72, 77
2, 174068, Note_on_c, 0, 64, 0
2, 174072, Note_on_c, 0, 76, 78
2, 174080, Note_on_c, 0, 72, 0
2, 174080, Control_c, 0, 64, 56
2, 174088, Control_c, 0, 64, 0
2, 174112, Note_on_c, 0, 54, 53
2, 174116, Note_on_c, 0, 76, 0
2, 174140, Control_c, 0, 64, 72
2, 174144, Note_on_c, 0, 60, 66
2, 174148, Control_c, 0, 64, 127
2, 174152, Note_on_c, 0, 54, 0
2, 174152, Note_on_c, 0, 62, 54
2, 174200, Note_on_c, 0, 69, 87
2, 174288, Note_on_c, 0, 74, 69
2, 174340, Note_on_c, 0, 74, 0
2, 174368, Note_on_c, 0, 81, 81
2, 174420, Note_on_c, 0, 69, 0
2, 174432, Note_on_c, 0, 60, 0
2, 174432, Note_on_c, 0, 62, 0
2, 174440, Note_on_c, 0, 81, 0
2, 174452, Note_on_c, 0, 84, 80
2, 174536, Note_on_c, 0, 86, 82
2, 174564, Note_on_c, 0, 84, 0
2, 174608, Note_on_c, 0, 86, 0
2, 174616, Note_on_c, 0, 74, 73
2, 174660, Note_on_c, 0, 74, 0
2, 174700, Note_on_c, 0, 62, 82
2, 174704, Control_c, 0, 64, 104
2, 174708, Note_on_c, 0, 59, 64
2, 174712, Note_on_c, 0, 53, 61
2, 174716, Control_c, 0, 64, 0
2, 174772, Control_c, 0, 64, 127
2, 174788, Note_on_c, 0, 67, 64
2, 174840, Note_on_c, 0, 67, 0
2, 174872, Note_on_c, 0, 71, 71
2, 174904, Note_on_c, 0, 53, 0
2, 174908, Note_on_c, 0, 59, 0
2, 174952, Note_on_c, 0, 74, 77
2, 174956, Note_on_c, 0, 71, 0
2, 174968, Note_on_c, 0, 62, 0
2, 175036, Note_on_c, 0, 79, 77
2, 175048, Note_on_c, 0, 74, 0
2, 175112, Note_on_c, 0, 67, 70
2, 175136, Control_c, 0, 64, 104
2, 175140, Note_on_c, 0, 52, 59
2, 175144, Control_c, 0, 64, 0
2, 175156, Note_on_c, 0, 67, 0
2, 175172, Note_on_c, 0, 60, 62
2, 175184, Note_on_c, 0, 52, 0
2, 175184, Control_c, 0, 64, 56
2, 175196, Note_on_c, 0, 79, 0
2, 175196, Control_c, 0, 64, 127
2, 175212, Note_on_c, 0, 60, 0
2, 175224, Note_on_c, 0, 67, 82
2, 175300, Note_on_c, 0, 72, 80
2, 175364, Note_on_c, 0, 72, 0
2, 175380, Note_on_c, 0, 76, 76
2, 175464, Note_on_c, 0, 76, 0
2, 175464, Note_on_c, 0, 79, 80
2, 175540, Note_on_c, 0, 84, 76
2, 175552, Note_on_c, 0, 79, 0
2, 175612, Note_on_c, 0, 84, 0
2, 175620, Note_on_c, 0, 72, 72
2, 175668, Note_on_c, 0, 72, 0
2, 175696, Note_on_c, 0, 67, 0
2, 175708, Note_on_c, 0, 64, 82
2, 175708, Note_on_c, 0, 48, 60
2, 175712, Control_c, 0, 64, 104
2, 175720, Control_c, 0, 64, 56
2, 175732, Control_c, 0, 64, 0
2, 175740, Control_c, 0, 64, 24
2, 175752, Control_c, 0, 64, 56
2, 175760, Control_c, 0, 64, 104
2, 175772, Control_c, 0, 64, 127
2, 175796, Note_on_c, 0, 67, 69
2, 175820, Note_on_c, 0, 64, 0
2, 175852, Note_on_c, 0, 67, 0
2, 175888, Note_on_c, 0, 72, 74
2, 175968, Note_on_c, 0, 72, 0
2, 175976, Note_on_c, 0, 76, 80
2, 175976, Note_on_c, 0, 60, 79
2, 175976, Note_on_c, 0, 52, 64
2, 176036, Note_on_c, 0, 60, 0
2, 176048, Note_on_c, 0, 48, 0
2, 176056, Note_on_c, 0, 79, 77
2, 176068, Note_on_c, 0, 76, 0
2, 176120, Note_on_c, 0, 79, 0
2, 176136, Note_on_c, 0, 67, 65
2, 176188, Note_on_c, 0, 67, 0
2, 176232, Note_on_c, 0, 59, 75
2, 176232, Note_on_c, 0, 55, 67
2, 176232, Note_on_c, 0, 53, 62
2, 176232, Note_on_c, 0, 62, 68
2, 176268, Control_c, 0, 64, 56
2, 176276, Control_c, 0, 64, 0
2, 176316, Note_on_c, 0, 52, 0
2, 176328, Note_on_c, 0, 62, 65
2, 176336, Control_c, 0, 64, 56
2, 176348, Control_c, 0, 64, 127
2, 176388, Note_on_c, 0, 62, 0
2, 176408, Note_on_c, 0, 67, 72
2, 176488, Note_on_c, 0, 71, 66
2, 176492, Note_on_c, 0, 67, 0
2, 176504, Note_on_c, 0, 53, 0
2, 176512, Note_on_c, 0, 55, 0
2, 176540, Note_on_c, 0, 59, 0
2, 176572, Note_on_c, 0, 62, 0
2, 176572, Note_on_c, 0, 74, 66
2, 176580, Note_on_c, 0, 71, 0
2, 176648, Note_on_c, 0, 62, 65
2, 176680, Note_on_c, 0, 62, 0
2, 176728, Note_on_c, 0, 60, 77
2, 176728, Note_on_c, 0, 52, 69
2, 176728, Note_on_c, 0, 55, 71
2, 176728, Note_on_c, 0, 64, 72
2, 176736, Note_on_c, 0, 74, 0
2, 176760, Control_c, 0, 64, 88
2, 176772, Control_c, 0, 64, 0
2, 176800, Note_on_c, 0, 64, 67
2, 176820, Control_c, 0, 64, 72
2, 176832, Control_c, 0, 64, 127
2, 176852, Note_on_c, 0, 64, 0
2, 176884, Note_on_c, 0, 67, 74
2, 176924, Note_on_c, 0, 52, 0
2, 176956, Note_on_c, 0, 67, 0
2, 176964, Note_on_c, 0, 72, 80
2, 176972, Note_on_c, 0, 55, 0
2, 177028, Note_on_c, 0, 60, 0
2, 177048, Note_on_c, 0, 72, 0
2, 177052, Note_on_c, 0, 76, 80
2, 177068, Note_on_c, 0, 64, 0
2, 177132, Note_on_c, 0, 64, 76
2, 177164, Note_on_c, 0, 49, 52
2, 177172, Note_on_c, 0, 64, 0
2, 177176, Control_c, 0, 64, 40
2, 177184, Control_c, 0, 64, 0
2, 177192, Note_on_c, 0, 57, 68
2, 177208, Note_on_c, 0, 49, 0
2, 177216, Control_c, 0, 64, 40
2, 177220, Note_on_c, 0, 76, 0
2, 177224, Control_c, 0, 64, 127
2, 177232, Note_on_c, 0, 64, 85
2, 177232, Note_on_c, 0, 67, 82
2, 177300, Note_on_c, 0, 67, 77
2, 177356, Note_on_c, 0, 67, 0
2, 177384, Note_on_c, 0, 69, 79
2, 177436, Note_on_c, 0, 69, 0
2, 177464, Note_on_c, 0, 76, 77
2, 177480, Note_on_c, 0, 64, 0
2, 177532, Note_on_c, 0, 76, 0
2, 177544, Note_on_c, 0, 57, 0
2, 177552, Note_on_c, 0, 79, 79
2, 177616, Note_on_c, 0, 79, 0
2, 177628, Note_on_c, 0, 67, 74
2, 177688, Note_on_c, 0, 67, 0
2, 177696, Control_c, 0, 64, 24
2, 177704, Note_on_c, 0, 62, 79
2, 177708, Note_on_c, 0, 50, 64
2, 177708, Note_on_c, 0, 59, 53
2, 177708, Note_on_c, 0, 65, 78
2, 177708, Control_c, 0, 64, 0
2, 177736, Control_c, 0, 64, 56
2, 177748, Control_c, 0, 64, 127
2, 177760, Note_on_c, 0, 50, 0
2, 177768, Note_on_c, 0, 65, 74
2, 177800, Note_on_c, 0, 59, 0
2, 177800, Note_on_c, 0, 62, 0
2, 177828, Note_on_c, 0, 65, 0
2, 177856, Note_on_c, 0, 77, 87
2, 177860, Note_on_c, 0, 71, 60
2, 177876, Note_on_c, 0, 71, 0
2, 177908, Note_on_c, 0, 77, 0
2, 177940, Control_c, 0, 64, 104
2, 177944, Note_on_c, 0, 60, 82
2, 177944, Note_on_c, 0, 52, 70
2, 177944, Note_on_c, 0, 64, 77
2, 177948, Note_on_c, 0, 55, 71
2, 177948, Control_c, 0, 64, 40
2, 177956, Note_on_c, 0, 67, 0
2, 177968, Control_c, 0, 64, 72
2, 177980, Control_c, 0, 64, 127
2, 178004, Note_on_c, 0, 64, 60
2, 178008, Note_on_c, 0, 52, 0
2, 178012, Note_on_c, 0, 55, 0
2, 178020, Note_on_c, 0, 60, 0
2, 178048, Note_on_c, 0, 65, 0
2, 178068, Note_on_c, 0, 64, 0
2, 178088, Note_on_c, 0, 76, 83
2, 178096, Note_on_c, 0, 72, 64
2, 178112, Note_on_c, 0, 72, 0
2, 178136, Note_on_c, 0, 76, 0
2, 178188, Note_on_c, 0, 59, 83
2, 178188, Note_on_c, 0, 55, 66
2, 178188, Note_on_c, 0, 53, 63
2, 178188, Note_on_c, 0, 62, 74
2, 178188, Note_on_c, 0, 74, 78
2, 178212, Control_c, 0, 64, 88
2, 178220, Control_c, 0, 64, 0
2, 178252, Note_on_c, 0, 55, 0
2, 178260, Control_c, 0, 64, 40
2, 178272, Control_c, 0, 64, 127
2, 178284, Note_on_c, 0, 64, 0
2, 178284, Note_on_c, 0, 62, 72
2, 178328, Note_on_c, 0, 62, 0
2, 178360, Note_on_c, 0, 67, 77
2, 178436, Note_on_c, 0, 67, 0
2, 178444, Note_on_c, 0, 71, 74
2, 178484, Note_on_c, 0, 53, 0
2, 178520, Note_on_c, 0, 59, 0
2, 178528, Note_on_c, 0, 62, 0
2, 178528, Note_on_c, 0, 74, 0
2, 178528, Note_on_c, 0, 74, 75
2, 178536, Note_on_c, 0, 71, 0
2, 178600, Note_on_c, 0, 62, 66
2, 178632, Note_on_c, 0, 74, 0
2, 178660, Note_on_c, 0, 62, 0
2, 178676, Control_c, 0, 64, 24
2, 178684, Note_on_c, 0, 60, 82
2, 178684, Note_on_c, 0, 55, 66
2, 178684, Note_on_c, 0, 52, 65
2, 178684, Note_on_c, 0, 76, 82
2, 178684, Note_on_c, 0, 64, 79
2, 178684, Control_c, 0, 64, 0
2, 178736, Control_c, 0, 64, 127
2, 178772, Note_on_c, 0, 64, 72
2, 178828, Note_on_c, 0, 64, 0
2, 178860, Note_on_c, 0, 67, 77
2, 178908, Note_on_c, 0, 52, 0
2, 178924, Note_on_c, 0, 67, 0
2, 178944, Note_on_c, 0, 72, 84
2, 178996, Note_on_c, 0, 55, 0
2, 179004, Note_on_c, 0, 60, 0
2, 179012, Note_on_c, 0, 72, 0
2, 179024, Note_on_c, 0, 64, 0
2, 179024, Note_on_c, 0, 76, 0
2, 179028, Note_on_c, 0, 76, 81
2, 179104, Note_on_c, 0, 64, 65
2, 179116, Control_c, 0, 64, 24
2, 179120, Note_on_c, 0, 49, 61
2, 179128, Control_c, 0, 64, 0
2, 179132, Note_on_c, 0, 64, 0
2, 179152, Note_on_c, 0, 76, 0
2, 179152, Note_on_c, 0, 57, 72
2, 179168, Note_on_c, 0, 49, 0
2, 179176, Control_c, 0, 64, 104
2, 179188, Control_c, 0, 64, 127
2, 179196, Note_on_c, 0, 64, 89
2, 179196, Note_on_c, 0, 67, 77
2, 179196, Note_on_c, 0, 79, 85
2, 179276, Note_on_c, 0, 67, 78
2, 179328, Note_on_c, 0, 67, 0
2, 179360, Note_on_c, 0, 69, 86
2, 179408, Note_on_c, 0, 69, 0
2, 179440, Note_on_c, 0, 76, 88
2, 179460, Note_on_c, 0, 64, 0
2, 179460, Note_on_c, 0, 57, 0
2, 179512, Note_on_c, 0, 76, 0
2, 179532, Note_on_c, 0, 79, 84
2, 179608, Note_on_c, 0, 67, 76
2, 179612, Note_on_c, 0, 79, 0
2, 179672, Control_c, 0, 64, 56
2, 179680, Note_on_c, 0, 67, 0
2, 179680, Control_c, 0, 64, 0
2, 179688, Note_on_c, 0, 65, 78
2, 179692, Note_on_c, 0, 62, 81
2, 179692, Note_on_c, 0, 50, 75
2, 179692, Note_on_c, 0, 59, 73
2, 179692, Note_on_c, 0, 77, 82
2, 179712, Control_c, 0, 64, 24
2, 179720, Control_c, 0, 64, 104
2, 179732, Control_c, 0, 64, 127
2, 179736, Note_on_c, 0, 50, 0
2, 179748, Note_on_c, 0, 65, 80
2, 179768, Note_on_c, 0, 59, 0
2, 179784, Note_on_c, 0, 62, 0
2, 179808, Note_on_c, 0, 65, 0
2, 179832, Note_on_c, 0, 77, 92
2, 179836, Note_on_c, 0, 71, 56
2, 179852, Note_on_c, 0, 71, 0
2, 179892, Note_on_c, 0, 77, 0
2, 179904, Control_c, 0, 64, 104
2, 179916, Note_on_c, 0, 52, 73
2, 179916, Note_on_c, 0, 55, 77
2, 179916, Note_on_c, 0, 60, 85
2, 179916, Note_on_c, 0, 64, 78
2, 179916, Note_on_c, 0, 76, 81
2, 179916, Control_c, 0, 64, 0
2, 179920, Note_on_c, 0, 79, 0
2, 179920, Note_on_c, 0, 67, 0
2, 179944, Control_c, 0, 64, 24
2, 179952, Control_c, 0, 64, 104
2, 179964, Control_c, 0, 64, 127
2, 179984, Note_on_c, 0, 52, 0
2, 179984, Note_on_c, 0, 55, 0
2, 179992, Note_on_c, 0, 64, 74
2, 180004, Note_on_c, 0, 60, 0
2, 180028, Note_on_c, 0, 65, 0
2, 180032, Note_on_c, 0, 77, 0
2, 180032, Note_on_c, 0, 64, 0
2, 180064, Note_on_c, 0, 76, 87
2, 180068, Note_on_c, 0, 72, 75
2, 180104, Note_on_c, 0, 72, 0
2, 180124, Note_on_c, 0, 76, 0
2, 180164, Note_on_c, 0, 60, 88
2, 180164, Note_on_c, 0, 74, 80
2, 180164, Note_on_c, 0, 62, 68
2, 180164, Control_c, 0, 64, 104
2, 180168, Note_on_c, 0, 57, 73
2, 180172, Note_on_c, 0, 53, 73
2, 180176, Control_c, 0, 64, 0
2, 180236, Control_c, 0, 64, 127
2, 180256, Note_on_c, 0, 64, 0
2, 180256, Note_on_c, 0, 76, 0
2, 180260, Note_on_c, 0, 62, 74
2, 180320, Note_on_c, 0, 62, 0
2, 180348, Note_on_c, 0, 69, 79
2, 180424, Note_on_c, 0, 69, 0
2, 180432, Note_on_c, 0, 72, 85
2, 180456, Note_on_c, 0, 57, 0
2, 180476, Note_on_c, 0, 53, 0
2, 180520, Note_on_c, 0, 60, 0
2, 180520, Note_on_c, 0, 74, 84
2, 180528, Note_on_c, 0, 72, 0
2, 180536, Note_on_c, 0, 74, 0
2, 180536, Note_on_c, 0, 62, 0
2, 180596, Note_on_c, 0, 62, 78
2, 180636, Note_on_c, 0, 62, 0
2, 180680, Note_on_c, 0, 60, 81
2, 180680, Note_on_c, 0, 54, 70
2, 180680, Note_on_c, 0, 62, 81
2, 180680, Note_on_c, 0, 81, 85
2, 180680, Note_on_c, 0, 69, 70
2, 180680, Note_on_c, 0, 42, 62
2, 180680, Note_on_c, 0, 72, 62
2, 180688, Note_on_c, 0, 74, 0
2, 180696, Control_c, 0, 64, 104
2, 180708, Control_c, 0, 64, 0
2, 180756, Note_on_c, 0, 69, 80
2, 180760, Control_c, 0, 64, 104
2, 180768, Control_c, 0, 64, 127
2, 180800, Note_on_c, 0, 69, 0
2, 180836, Note_on_c, 0, 72, 85
2, 180904, Note_on_c, 0, 72, 0
2, 180916, Note_on_c, 0, 74, 87
2, 180984, Note_on_c, 0, 74, 0
2, 180996, Note_on_c, 0, 60, 0
2, 180996, Note_on_c, 0, 54, 0
2, 180996, Note_on_c, 0, 81, 83
2, 181024, Note_on_c, 0, 62, 0
2, 181052, Note_on_c, 0, 42, 0
2, 181052, Note_on_c, 0, 69, 0
2, 181052, Note_on_c, 0, 81, 0
2, 181080, Note_on_c, 0, 69, 73
2, 181132, Note_on_c, 0, 81, 0
2, 181148, Note_on_c, 0, 69, 0
2, 181164, Note_on_c, 0, 62, 81
2, 181168, Note_on_c, 0, 55, 75
2, 181172, Note_on_c, 0, 60, 74
2, 181172, Note_on_c, 0, 79, 81
2, 181172, Note_on_c, 0, 67, 70
2, 181172, Note_on_c, 0, 43, 65
2, 181172, Note_on_c, 0, 74, 63
2, 181200, Control_c, 0, 64, 24
2, 181212, Control_c, 0, 64, 0
2, 181248, Note_on_c, 0, 67, 74
2, 181272, Control_c, 0, 64, 72
2, 181284, Control_c, 0, 64, 127
2, 181308, Note_on_c, 0, 67, 0
2, 181336, Note_on_c, 0, 72, 84
2, 181404, Note_on_c, 0, 72, 0
2, 181416, Note_on_c, 0, 74, 85
2, 181436, Note_on_c, 0, 72, 0
2, 181496, Note_on_c, 0, 60, 0
2, 181496, Note_on_c, 0, 79, 88
2, 181500, Note_on_c, 0, 74, 0
2, 181508, Note_on_c, 0, 55, 0
2, 181516, Note_on_c, 0, 62, 0
2, 181544, Note_on_c, 0, 67, 0
2, 181544, Note_on_c, 0, 43, 0
2, 181544, Note_on_c, 0, 79, 0
2, 181544, Note_on_c, 0, 74, 0
2, 181580, Note_on_c, 0, 67, 75
2, 181612, Note_on_c, 0, 79, 0
2, 181644, Note_on_c, 0, 67, 0
2, 181652, Note_on_c, 0, 62, 82
2, 181652, Note_on_c, 0, 60, 75
2, 181652, Note_on_c, 0, 57, 60
2, 181652, Note_on_c, 0, 78, 79
2, 181652, Note_on_c, 0, 66, 65
2, 181652, Note_on_c, 0, 72, 63
2, 181652, Note_on_c, 0, 45, 66
2, 181704, Control_c, 0, 64, 88
2, 181716, Control_c, 0, 64, 0
2, 181744, Note_on_c, 0, 66, 72
2, 181776, Control_c, 0, 64, 40
2, 181784, Control_c, 0, 64, 127
2, 181820, Note_on_c, 0, 66, 0
2, 181828, Note_on_c, 0, 72, 85
2, 181916, Note_on_c, 0, 74, 81
2, 181924, Note_on_c, 0, 72, 0
2, 181940, Note_on_c, 0, 60, 0
2, 181960, Note_on_c, 0, 57, 0
2, 181988, Note_on_c, 0, 78, 79
2, 182012, Note_on_c, 0, 74, 0
2, 182016, Note_on_c, 0, 62, 0
2, 182024, Note_on_c, 0, 72, 0
2, 182024, Note_on_c, 0, 66, 0
2, 182024, Note_on_c, 0, 45, 0
2, 182024, Note_on_c, 0, 78, 0
2, 182056, Note_on_c, 0, 66, 67
2, 182116, Note_on_c, 0, 78, 0
2, 182120, Note_on_c, 0, 66, 0
2, 182144, Note_on_c, 0, 61, 85
2, 182144, Note_on_c, 0, 58, 54
2, 182144, Note_on_c, 0, 77, 84
2, 182144, Note_on_c, 0, 65, 69
2, 182144, Note_on_c, 0, 73, 65
2, 182144, Note_on_c, 0, 46, 67
2, 182188, Control_c, 0, 64, 104
2, 182200, Control_c, 0, 64, 24
2, 182208, Control_c, 0, 64, 0
2, 182236, Note_on_c, 0, 65, 78
2, 182260, Control_c, 0, 64, 56
2, 182268, Control_c, 0, 64, 127
2, 182300, Note_on_c, 0, 65, 0
2, 182312, Note_on_c, 0, 70, 77
2, 182360, Note_on_c, 0, 61, 0
2, 182360, Note_on_c, 0, 58, 0
2, 182396, Note_on_c, 0, 73, 82
2, 182412, Note_on_c, 0, 70, 0
2, 182472, Note_on_c, 0, 77, 88
2, 182480, Note_on_c, 0, 73, 0
2, 182516, Note_on_c, 0, 46, 0
2, 182516, Note_on_c, 0, 73, 0
2, 182516, Note_on_c, 0, 65, 0
2, 182516, Note_on_c, 0, 77, 0
2, 182544, Note_on_c, 0, 65, 80
2, 182572, Note_on_c, 0, 65, 0
2, 182628, Note_on_c, 0, 77, 0
2, 182632, Note_on_c, 0, 67, 88
2, 182632, Note_on_c, 0, 65, 73
2, 182632, Note_on_c, 0, 86, 91
2, 182632, Note_on_c, 0, 74, 70
2, 182632, Note_on_c, 0, 77, 66
2, 182632, Note_on_c, 0, 47, 69
2, 182636, Note_on_c, 0, 59, 64
2, 182660, Control_c, 0, 64, 24
2, 182672, Control_c, 0, 64, 0
2, 182712, Control_c, 0, 64, 88
2, 182716, Note_on_c, 0, 74, 87
2, 182724, Control_c, 0, 64, 127
2, 182764, Note_on_c, 0, 86, 0
2, 182792, Note_on_c, 0, 77, 96
2, 182864, Note_on_c, 0, 77, 0
2, 182868, Note_on_c, 0, 79, 92
2, 182876, Note_on_c, 0, 59, 0
2, 182920, Note_on_c, 0, 65, 0
2, 182932, Note_on_c, 0, 79, 0
2, 182940, Note_on_c, 0, 67, 0
2, 182948, Note_on_c, 0, 86, 89
2, 183004, Note_on_c, 0, 77, 0
2, 183004, Note_on_c, 0, 47, 0
2, 183004, Note_on_c, 0, 74, 0
2, 183004, Note_on_c, 0, 74, 0
2, 183032, Note_on_c, 0, 74, 77
2, 183060, Note_on_c, 0, 86, 0
2, 183104, Note_on_c, 0, 74, 0
2, 183104, Note_on_c, 0, 67, 84
2, 183104, Note_on_c, 0, 60, 74
2, 183104, Note_on_c, 0, 84, 84
2, 183104, Note_on_c, 0, 72, 70
2, 183104, Note_on_c, 0, 77, 65
2, 183104, Note_on_c, 0, 48, 70
2, 183108, Note_on_c, 0, 65, 74
2, 183144, Control_c, 0, 64, 56
2, 183156, Control_c, 0, 64, 0
2, 183188, Note_on_c, 0, 72, 88
2, 183204, Control_c, 0, 64, 104
2, 183212, Control_c, 0, 64, 127
2, 183260, Note_on_c, 0, 72, 0
2, 183268, Note_on_c, 0, 77, 93
2, 183344, Note_on_c, 0, 79, 86
2, 183352, Note_on_c, 0, 77, 0
2, 183408, Note_on_c, 0, 65, 0
2, 183424, Note_on_c, 0, 84, 82
2, 183440, Note_on_c, 0, 67, 0
2, 183444, Note_on_c, 0, 79, 0
2, 183476, Note_on_c, 0, 48, 0
2, 183476, Note_on_c, 0, 60, 0
2, 183476, Note_on_c, 0, 72, 0
2, 183476, Note_on_c, 0, 84, 0
2, 183476, Note_on_c, 0, 77, 0
2, 183488, Note_on_c, 0, 72, 85
2, 183560, Note_on_c, 0, 84, 0
2, 183572, Note_on_c, 0, 72, 0
2, 183592, Note_on_c, 0, 67, 83
2, 183592, Note_on_c, 0, 83, 83
2, 183592, Note_on_c, 0, 71, 70
2, 183592, Note_on_c, 0, 77, 65
2, 183592, Note_on_c, 0, 50, 72
2, 183596, Note_on_c, 0, 65, 74
2, 183600, Note_on_c, 0, 62, 68
2, 183620, Control_c, 0, 64, 56
2, 183628, Control_c, 0, 64, 0
2, 183672, Note_on_c, 0, 71, 74
2, 183676, Control_c, 0, 64, 72
2, 183688, Control_c, 0, 64, 127
2, 183740, Note_on_c, 0, 71, 0
2, 183756, Note_on_c, 0, 77, 92
2, 183812, Note_on_c, 0, 65, 0
2, 183812, Note_on_c, 0, 67, 0
2, 183836, Note_on_c, 0, 62, 0
2, 183836, Note_on_c, 0, 79, 85
2, 183848, Note_on_c, 0, 77, 0
2, 183916, Note_on_c, 0, 83, 85
2, 183928, Note_on_c, 0, 79, 0
2, 183964, Note_on_c, 0, 71, 0
2, 183964, Note_on_c, 0, 77, 0
2, 183964, Note_on_c, 0, 50, 0
2, 183964, Note_on_c, 0, 83, 0
2, 183988, Note_on_c, 0, 71, 75
2, 184020, Control_c, 0, 64, 0
2, 184032, Note_on_c, 0, 83, 0
2, 184044, Note_on_c, 0, 51, 65
2, 184064, Note_on_c, 0, 59, 51
2, 184080, Note_on_c, 0, 51, 0
2, 184084, Control_c, 0, 64, 88
2, 184088, Note_on_c, 0, 71, 0
2, 184088, Note_on_c, 0, 66, 91
2, 184088, Note_on_c, 0, 71, 60
2, 184088, Note_on_c, 0, 81, 62
2, 184092, Control_c, 0, 64, 127
2, 184112, Note_on_c, 0, 59, 0
2, 184136, Note_on_c, 0, 66, 0
2, 184176, Note_on_c, 0, 71, 82
2, 184228, Note_on_c, 0, 71, 0
2, 184228, Note_on_c, 0, 81, 0
2, 184244, Note_on_c, 0, 78, 69
2, 184272, Note_on_c, 0, 71, 0
2, 184328, Note_on_c, 0, 78, 0
2, 184332, Note_on_c, 0, 69, 96
2, 184332, Note_on_c, 0, 81, 80
2, 184332, Note_on_c, 0, 71, 66
2, 184344, Control_c, 0, 64, 88
2, 184356, Control_c, 0, 64, 104
2, 184364, Control_c, 0, 64, 127
2, 184384, Note_on_c, 0, 69, 0
2, 184404, Note_on_c, 0, 71, 75
2, 184468, Note_on_c, 0, 81, 85
2, 184472, Note_on_c, 0, 81, 0
2, 184472, Note_on_c, 0, 71, 0
2, 184484, Note_on_c, 0, 71, 0
2, 184508, Note_on_c, 0, 52, 63
2, 184512, Control_c, 0, 64, 104
2, 184524, Control_c, 0, 64, 0
2, 184528, Note_on_c, 0, 59, 53
2, 184536, Note_on_c, 0, 81, 0
2, 184552, Note_on_c, 0, 52, 0
2, 184560, Note_on_c, 0, 59, 0
2, 184560, Note_on_c, 0, 67, 85
2, 184560, Note_on_c, 0, 64, 75
2, 184564, Control_c, 0, 64, 88
2, 184576, Control_c, 0, 64, 127
2, 184608, Note_on_c, 0, 67, 0
2, 184636, Note_on_c, 0, 71, 76
2, 184700, Note_on_c, 0, 64, 0
2, 184700, Note_on_c, 0, 79, 82
2, 184708, Note_on_c, 0, 71, 0
2, 184764, Control_c, 0, 64, 88
2, 184780, Note_on_c, 0, 79, 0
2, 184780, Control_c, 0, 64, 24
2, 184784, Note_on_c, 0, 64, 89
2, 184784, Note_on_c, 0, 67, 66
2, 184784, Note_on_c, 0, 71, 66
2, 184784, Note_on_c, 0, 79, 80
2, 184796, Control_c, 0, 64, 72
2, 184808, Control_c, 0, 64, 127
2, 184828, Note_on_c, 0, 64, 0
2, 184844, Note_on_c, 0, 67, 74
2, 184912, Note_on_c, 0, 67, 0
2, 184924, Note_on_c, 0, 79, 0
2, 184924, Note_on_c, 0, 71, 0
2, 184924, Note_on_c, 0, 67, 0
2, 184924, Note_on_c, 0, 76, 79
2, 184976, Control_c, 0, 64, 0
2, 184992, Note_on_c, 0, 47, 60
2, 184996, Note_on_c, 0, 55, 68
2, 185000, Note_on_c, 0, 76, 0
2, 185008, Note_on_c, 0, 47, 0
2, 185016, Control_c, 0, 64, 72
2, 185028, Note_on_c, 0, 62, 83
2, 185028, Note_on_c, 0, 59, 74
2, 185028, Control_c, 0, 64, 127
2, 185032, Note_on_c, 0, 55, 0
2, 185080, Note_on_c, 0, 62, 0
2, 185100, Note_on_c, 0, 67, 74
2, 185168, Note_on_c, 0, 67, 0
2, 185168, Note_on_c, 0, 59, 0
2, 185180, Note_on_c, 0, 74, 84
2, 185256, Note_on_c, 0, 74, 0
2, 185264, Note_on_c, 0, 65, 90
2, 185264, Note_on_c, 0, 77, 80
2, 185264, Note_on_c, 0, 74, 70
2, 185264, Note_on_c, 0, 67, 70
2, 185308, Note_on_c, 0, 65, 0
2, 185344, Note_on_c, 0, 67, 67
2, 185404, Note_on_c, 0, 67, 0
2, 185404, Note_on_c, 0, 77, 0
2, 185404, Note_on_c, 0, 74, 0
2, 185424, Note_on_c, 0, 77, 81
2, 185436, Note_on_c, 0, 67, 0
2, 185468, Note_on_c, 0, 55, 67
2, 185468, Note_on_c, 0, 48, 71
2, 185472, Control_c, 0, 64, 56
2, 185480, Control_c, 0, 64, 0
2, 185496, Note_on_c, 0, 48, 0
2, 185500, Note_on_c, 0, 77, 0
2, 185512, Note_on_c, 0, 55, 0
2, 185512, Note_on_c, 0, 64, 85
2, 185512, Note_on_c, 0, 60, 70
2, 185512, Control_c, 0, 64, 72
2, 185524, Control_c, 0, 64, 127
2, 185564, Note_on_c, 0, 64, 0
2, 185592, Note_on_c, 0, 67, 75
2, 185652, Note_on_c, 0, 60, 0
2, 185660, Note_on_c, 0, 67, 0
2, 185676, Note_on_c, 0, 76, 72
2, 185748, Note_on_c, 0, 60, 90
2, 185748, Note_on_c, 0, 67, 70
2, 185748, Note_on_c, 0, 72, 70
2, 185748, Note_on_c, 0, 76, 78
2, 185760, Note_on_c, 0, 76, 0
2, 185792, Note_on_c, 0, 60, 0
2, 185824, Note_on_c, 0, 64, 67
2, 185888, Note_on_c, 0, 76, 0
2, 185888, Note_on_c, 0, 72, 0
2, 185888, Note_on_c, 0, 67, 0
2, 185900, Note_on_c, 0, 64, 0
2, 185904, Note_on_c, 0, 72, 76
2, 185952, Note_on_c, 0, 41, 61
2, 185952, Control_c, 0, 64, 40
2, 185956, Note_on_c, 0, 72, 0
2, 185956, Note_on_c, 0, 48, 71
2, 185964, Control_c, 0, 64, 0
2, 185976, Note_on_c, 0, 48, 0
2, 185980, Note_on_c, 0, 41, 0
2, 185996, Note_on_c, 0, 56, 88
2, 185996, Note_on_c, 0, 53, 74
2, 185996, Control_c, 0, 64, 56
2, 186004, Control_c, 0, 64, 127
2, 186032, Note_on_c, 0, 56, 0
2, 186084, Note_on_c, 0, 60, 60
2, 186136, Note_on_c, 0, 53, 0
2, 186152, Note_on_c, 0, 68, 67
2, 186156, Note_on_c, 0, 60, 0
2, 186224, Note_on_c, 0, 57, 93
2, 186224, Note_on_c, 0, 69, 66
2, 186224, Note_on_c, 0, 72, 71
2, 186224, Note_on_c, 0, 60, 66
2, 186240, Note_on_c, 0, 68, 0
2, 186280, Note_on_c, 0, 57, 0
2, 186300, Note_on_c, 0, 60, 74
2, 186364, Note_on_c, 0, 60, 0
2, 186364, Note_on_c, 0, 72, 0
2, 186364, Note_on_c, 0, 69, 0
2, 186364, Note_on_c, 0, 69, 76
2, 186376, Note_on_c, 0, 60, 0
2, 186412, Note_on_c, 0, 69, 0
2, 186412, Note_on_c, 0, 42, 54
2, 186416, Note_on_c, 0, 50, 63
2, 186416, Control_c, 0, 64, 40
2, 186428, Control_c, 0, 64, 0
2, 186444, Note_on_c, 0, 42, 0
2, 186448, Control_c, 0, 64, 24
2, 186456, Note_on_c, 0, 50, 0
2, 186456, Control_c, 0, 64, 88
2, 186468, Control_c, 0, 64, 127
2, 186472, Note_on_c, 0, 59, 85
2, 186472, Note_on_c, 0, 54, 72
2, 186540, Note_on_c, 0, 59, 0
2, 186548, Note_on_c, 0, 62, 75
2, 186612, Note_on_c, 0, 62, 0
2, 186612, Note_on_c, 0, 54, 0
2, 186616, Note_on_c, 0, 71, 74
2, 186668, Note_on_c, 0, 71, 0
2, 186692, Note_on_c, 0, 60, 89
2, 186692, Note_on_c, 0, 72, 76
2, 186692, Note_on_c, 0, 69, 70
2, 186692, Note_on_c, 0, 62, 65
2, 186740, Note_on_c, 0, 60, 0
2, 186772, Note_on_c, 0, 60, 78
2, 186828, Note_on_c, 0, 60, 0
2, 186832, Note_on_c, 0, 62, 0
2, 186832, Note_on_c, 0, 69, 0
2, 186832, Note_on_c, 0, 72, 0
2, 186852, Note_on_c, 0, 72, 78
2, 186888, Note_on_c, 0, 43, 57
2, 186892, Note_on_c, 0, 52, 57
2, 186892, Control_c, 0, 64, 104
2, 186896, Note_on_c, 0, 72, 0
2, 186900, Control_c, 0, 64, 40
2, 186912, Note_on_c, 0, 43, 0
2, 186912, Control_c, 0, 64, 0
2, 186920, Control_c, 0, 64, 40
2, 186932, Note_on_c, 0, 52, 0
2, 186932, Control_c, 0, 64, 104
2, 186944, Control_c, 0, 64, 127
2, 186948, Note_on_c, 0, 60, 94
2, 186948, Note_on_c, 0, 55, 70
2, 186988, Note_on_c, 0, 60, 0
2, 187044, Note_on_c, 0, 60, 71
2, 187088, Note_on_c, 0, 55, 0
2, 187092, Note_on_c, 0, 60, 0
2, 187104, Note_on_c, 0, 72, 81
2, 187160, Note_on_c, 0, 72, 0
2, 187172, Note_on_c, 0, 52, 88
2, 187172, Note_on_c, 0, 64, 73
2, 187172, Note_on_c, 0, 60, 68
2, 187212, Note_on_c, 0, 52, 0
2, 187256, Note_on_c, 0, 60, 40
2, 187260, Note_on_c, 0, 59, 42
2, 187296, Note_on_c, 0, 59, 0
2, 187312, Note_on_c, 0, 60, 0
2, 187312, Note_on_c, 0, 64, 0
2, 187320, Note_on_c, 0, 60, 0
2, 187328, Note_on_c, 0, 64, 81
2, 187396, Note_on_c, 0, 64, 0
2, 187424, Control_c, 0, 64, 104
2, 187436, Control_c, 0, 64, 0
2, 187448, Note_on_c, 0, 53, 85
2, 187448, Note_on_c, 0, 67, 94
2, 187448, Note_on_c, 0, 55, 82
2, 187452, Note_on_c, 0, 62, 81
2, 187456, Note_on_c, 0, 59, 75
2, 187456, Note_on_c, 0, 43, 62
2, 187468, Note_on_c, 0, 45, 42
2, 187496, Control_c, 0, 64, 72
2, 187504, Note_on_c, 0, 62, 0
2, 187504, Control_c, 0, 64, 127
2, 187508, Note_on_c, 0, 43, 0
2, 187516, Note_on_c, 0, 53, 0
2, 187524, Note_on_c, 0, 59, 0
2, 187524, Note_on_c, 0, 45, 0
2, 187536, Note_on_c, 0, 55, 0
2, 187544, Note_on_c, 0, 67, 0
2, 187696, Note_on_c, 0, 67, 87
2, 187696, Note_on_c, 0, 47, 72
2, 187696, Note_on_c, 0, 55, 70
2, 187696, Control_c, 0, 64, 56
2, 187708, Control_c, 0, 64, 0
2, 187732, Note_on_c, 0, 55, 0
2, 187736, Note_on_c, 0, 47, 0
2, 187740, Note_on_c, 0, 67, 0
2, 187812, Note_on_c, 0, 69, 94
2, 187816, Note_on_c, 0, 57, 79
2, 187820, Note_on_c, 0, 48, 82
2, 187852, Note_on_c, 0, 57, 0
2, 187856, Note_on_c, 0, 69, 0
2, 187860, Note_on_c, 0, 48, 0
2, 187932, Note_on_c, 0, 71, 99
2, 187936, Note_on_c, 0, 59, 88
2, 187940, Control_c, 0, 64, 104
2, 187944, Note_on_c, 0, 50, 79
2, 187948, Control_c, 0, 64, 127
2, 187976, Note_on_c, 0, 59, 0
2, 187988, Note_on_c, 0, 71, 0
2, 188044, Note_on_c, 0, 50, 0
2, 188056, Note_on_c, 0, 72, 94
2, 188056, Note_on_c, 0, 60, 82
2, 188064, Note_on_c, 0, 52, 68
2, 188088, Control_c, 0, 64, 88
2, 188092, Note_on_c, 0, 60, 0
2, 188096, Note_on_c, 0, 72, 0
2, 188100, Control_c, 0, 64, 72
2, 188108, Control_c, 0, 64, 40
2, 188120, Control_c, 0, 64, 0
2, 188128, Note_on_c, 0, 52, 0
2, 188168, Note_on_c, 0, 71, 93
2, 188172, Note_on_c, 0, 59, 79
2, 188172, Note_on_c, 0, 50, 68
2, 188204, Note_on_c, 0, 59, 0
2, 188212, Note_on_c, 0, 71, 0
2, 188256, Note_on_c, 0, 50, 0
2, 188272, Note_on_c, 0, 52, 63
2, 188280, Note_on_c, 0, 72, 99
2, 188280, Note_on_c, 0, 60, 86
2, 188316, Note_on_c, 0, 60, 0
2, 188320, Note_on_c, 0, 72, 0
2, 188320, Note_on_c, 0, 52, 0
2, 188372, Control_c, 0, 64, 56
2, 188384, Note_on_c, 0, 53, 70
2, 188384, Control_c, 0, 64, 127
2, 188392, Note_on_c, 0, 74, 97
2, 188396, Note_on_c, 0, 62, 89
2, 188432, Note_on_c, 0, 62, 0
2, 188444, Note_on_c, 0, 74, 0
2, 188480, Note_on_c, 0, 53, 0
2, 188492, Control_c, 0, 64, 88
2, 188500, Control_c, 0, 64, 72
2, 188504, Note_on_c, 0, 76, 92
2, 188508, Note_on_c, 0, 64, 82
2, 188508, Note_on_c, 0, 55, 60
2, 188512, Control_c, 0, 64, 40
2, 188520, Control_c, 0, 64, 0
2, 188540, Note_on_c, 0, 64, 0
2, 188544, Note_on_c, 0, 55, 0
2, 188548, Note_on_c, 0, 76, 0
2, 188620, Note_on_c, 0, 74, 86
2, 188620, Note_on_c, 0, 53, 72
2, 188620, Note_on_c, 0, 57, 68
2, 188624, Note_on_c, 0, 62, 77
2, 188640, Note_on_c, 0, 62, 0
2, 188656, Note_on_c, 0, 74, 0
2, 188716, Note_on_c, 0, 53, 0
2, 188720, Note_on_c, 0, 55, 79
2, 188720, Note_on_c, 0, 76, 97
2, 188720, Note_on_c, 0, 59, 70
2, 188724, Note_on_c, 0, 64, 85
2, 188736, Note_on_c, 0, 55, 0
2, 188760, Note_on_c, 0, 57, 0
2, 188760, Note_on_c, 0, 64, 0
2, 188768, Note_on_c, 0, 76, 0
2, 188804, Control_c, 0, 64, 56
2, 188812, Control_c, 0, 64, 88
2, 188824, Control_c, 0, 64, 127
2, 188840, Note_on_c, 0, 57, 86
2, 188840, Note_on_c, 0, 60, 71
2, 188844, Note_on_c, 0, 77, 100
2, 188844, Note_on_c, 0, 65, 90
2, 188860, Note_on_c, 0, 59, 0
2, 188884, Note_on_c, 0, 57, 0
2, 188884, Note_on_c, 0, 65, 0
2, 188896, Note_on_c, 0, 77, 0
2, 188948, Note_on_c, 0, 59, 67
2, 188948, Note_on_c, 0, 62, 73
2, 188952, Note_on_c, 0, 79, 97
2, 188952, Note_on_c, 0, 67, 83
2, 188968, Note_on_c, 0, 59, 0
2, 188980, Note_on_c, 0, 60, 0
2, 188992, Note_on_c, 0, 67, 0
2, 188996, Control_c, 0, 64, 104
2, 189000, Note_on_c, 0, 79, 0
2, 189004, Control_c, 0, 64, 88
2, 189016, Control_c, 0, 64, 40
2, 189024, Control_c, 0, 64, 0
2, 189068, Note_on_c, 0, 60, 82
2, 189068, Note_on_c, 0, 57, 68
2, 189068, Note_on_c, 0, 77, 102
2, 189068, Note_on_c, 0, 65, 94
2, 189068, Note_on_c, 0, 55, 70
2, 189068, Note_on_c, 0, 43, 68
2, 189088, Note_on_c, 0, 60, 0
2, 189088, Note_on_c, 0, 62, 0
2, 189088, Control_c, 0, 64, 56
2, 189096, Note_on_c, 0, 57, 0
2, 189096, Control_c, 0, 64, 104
2, 189100, Note_on_c, 0, 65, 0
2, 189108, Note_on_c, 0, 77, 0
2, 189108, Control_c, 0, 64, 127
2, 189112, Note_on_c, 0, 55, 0
2, 189112, Note_on_c, 0, 43, 0
2, 189144, Control_c, 0, 64, 88
2, 189156, Control_c, 0, 64, 56
2, 189168, Control_c, 0, 64, 0
2, 189176, Note_on_c, 0, 79, 102
2, 189176, Note_on_c, 0, 67, 94
2, 189180, Note_on_c, 0, 62, 75
2, 189180, Note_on_c, 0, 59, 68
2, 189180, Note_on_c, 0, 55, 70
2, 189180, Note_on_c, 0, 43, 69
2, 189204, Note_on_c, 0, 62, 0
2, 189212, Note_on_c, 0, 59, 0
2, 189212, Note_on_c, 0, 67, 0
2, 189224, Note_on_c, 0, 79, 0
2, 189224, Note_on_c, 0, 55, 0
2, 189224, Note_on_c, 0, 43, 0
2, 189288, Control_c, 0, 64, 24
2, 189292, Note_on_c, 0, 81, 99
2, 189292, Note_on_c, 0, 64, 58
2, 189292, Note_on_c, 0, 60, 62
2, 189292, Note_on_c, 0, 69, 97
2, 189292, Note_on_c, 0, 55, 72
2, 189292, Note_on_c, 0, 43, 71
2, 189300, Control_c, 0, 64, 104
2, 189308, Control_c, 0, 64, 127
2, 189328, Note_on_c, 0, 64, 0
2, 189332, Note_on_c, 0, 69, 0
2, 189336, Note_on_c, 0, 55, 0
2, 189336, Note_on_c, 0, 60, 0
2, 189336, Note_on_c, 0, 43, 0
2, 189348, Note_on_c, 0, 81, 0
2, 189404, Note_on_c, 0, 65, 81
2, 189408, Note_on_c, 0, 83, 100
2, 189408, Note_on_c, 0, 55, 74
2, 189408, Note_on_c, 0, 43, 74
2, 189408, Control_c, 0, 64, 88
2, 189412, Note_on_c, 0, 71, 93
2, 189416, Note_on_c, 0, 62, 69
2, 189420, Control_c, 0, 64, 56
2, 189428, Control_c, 0, 64, 40
2, 189440, Control_c, 0, 64, 0
2, 189444, Note_on_c, 0, 65, 0
2, 189448, Note_on_c, 0, 71, 0
2, 189452, Note_on_c, 0, 43, 0
2, 189452, Note_on_c, 0, 55, 0
2, 189452, Note_on_c, 0, 62, 0
2, 189460, Note_on_c, 0, 83, 0
2, 189512, Note_on_c, 0, 67, 78
2, 189516, Note_on_c, 0, 64, 74
2, 189520, Note_on_c, 0, 84, 96
2, 189520, Note_on_c, 0, 55, 75
2, 189520, Note_on_c, 0, 43, 75
2, 189524, Note_on_c, 0, 72, 97
2, 189524, Note_on_c, 0, 60, 75
2, 189552, Note_on_c, 0, 64, 0
2, 189556, Note_on_c, 0, 67, 0
2, 189560, Note_on_c, 0, 72, 0
2, 189564, Note_on_c, 0, 43, 0
2, 189564, Note_on_c, 0, 55, 0
2, 189568, Note_on_c, 0, 60, 0
2, 189572, Note_on_c, 0, 84, 0
2, 189628, Note_on_c, 0, 65, 78
2, 189632, Note_on_c, 0, 67, 70
2, 189632, Note_on_c, 0, 86, 99
2, 189632, Note_on_c, 0, 55, 77
2, 189632, Note_on_c, 0, 43, 77
2, 189636, Note_on_c, 0, 74, 97
2, 189636, Note_on_c, 0, 62, 77
2, 189660, Note_on_c, 0, 67, 0
2, 189668, Note_on_c, 0, 65, 0
2, 189676, Note_on_c, 0, 55, 0
2, 189676, Note_on_c, 0, 43, 0
2, 189676, Note_on_c, 0, 74, 0
2, 189680, Note_on_c, 0, 62, 0
2, 189688, Note_on_c, 0, 86, 0
2, 189760, Note_on_c, 0, 76, 97
2, 189760, Note_on_c, 0, 64, 75
2, 189760, Note_on_c, 0, 88, 100
2, 189764, Note_on_c, 0, 67, 80
2, 189768, Note_on_c, 0, 36, 72
2, 189768, Note_on_c, 0, 48, 68
2, 189772, Control_c, 0, 64, 88
2, 189780, Control_c, 0, 64, 127
2, 189800, Note_on_c, 0, 36, 0
2, 189804, Note_on_c, 0, 64, 0
2, 189804, Note_on_c, 0, 48, 0
2, 189812, Note_on_c, 0, 76, 0
2, 189832, Note_on_c, 0, 67, 0
2, 189844, Note_on_c, 0, 88, 0
2, 189912, Note_on_c, 0, 62, 78
2, 189912, Note_on_c, 0, 74, 85
2, 189936, Note_on_c, 0, 62, 0
2, 189940, Note_on_c, 0, 74, 0
2, 190056, Note_on_c, 0, 76, 90
2, 190056, Note_on_c, 0, 64, 76
2, 190056, Note_on_c, 0, 72, 79
2, 190068, Note_on_c, 0, 60, 69
2, 190080, Note_on_c, 0, 64, 0
2, 190084, Note_on_c, 0, 72, 0
2, 190096, Note_on_c, 0, 76, 0
2, 190196, Note_on_c, 0, 60, 0
2, 190196, Note_on_c, 0, 79, 96
2, 190196, Note_on_c, 0, 67, 83
2, 190200, Note_on_c, 0, 64, 61
2, 190228, Note_on_c, 0, 67, 0
2, 190232, Note_on_c, 0, 79, 0
2, 190236, Note_on_c, 0, 64, 0
2, 190284, Control_c, 0, 64, 40
2, 190292, Control_c, 0, 64, 0
2, 190348, Note_on_c, 0, 79, 99
2, 190352, Note_on_c, 0, 67, 87
2, 190352, Note_on_c, 0, 74, 90
2, 190352, Note_on_c, 0, 55, 66
2, 190352, Note_on_c, 0, 62, 69
2, 190352, Control_c, 0, 64, 72
2, 190360, Control_c, 0, 64, 127
2, 190380, Note_on_c, 0, 55, 0
2, 190380, Note_on_c, 0, 67, 0
2, 190384, Note_on_c, 0, 74, 0
2, 190388, Note_on_c, 0, 62, 0
2, 190392, Note_on_c, 0, 79, 0
2, 190468, Control_c, 0, 64, 104
2, 190476, Control_c, 0, 64, 56
2, 190484, Control_c, 0, 64, 24
2, 190492, Control_c, 0, 64, 0
2, 190632, Note_on_c, 0, 79, 96
2, 190632, Control_c, 0, 64, 40
2, 190636, Note_on_c, 0, 67, 84
2, 190640, Note_on_c, 0, 74, 83
2, 190640, Note_on_c, 0, 62, 70
2, 190640, Control_c, 0, 64, 88
2, 190644, Note_on_c, 0, 55, 70
2, 190648, Control_c, 0, 64, 127
2, 190672, Note_on_c, 0, 62, 0
2, 190680, Note_on_c, 0, 67, 0
2, 190680, Note_on_c, 0, 79, 0
2, 190680, Note_on_c, 0, 55, 0
2, 190684, Note_on_c, 0, 74, 0
2, 190780, Control_c, 0, 64, 104
2, 190784, Control_c, 0, 64, 88
2, 190792, Control_c, 0, 64, 56
2, 190800, Control_c, 0, 64, 40
2, 190808, Control_c, 0, 64, 0
2, 190952, Note_on_c, 0, 79, 102
2, 190956, Note_on_c, 0, 67, 89
2, 190956, Note_on_c, 0, 48, 80
2, 190960, Note_on_c, 0, 36, 76
2, 190964, Note_on_c, 0, 76, 86
2, 190964, Control_c, 0, 64, 40
2, 190972, Control_c, 0, 64, 104
2, 190980, Control_c, 0, 64, 127
2, 191228, Note_on_c, 0, 79, 0
2, 191232, Note_on_c, 0, 76, 0
2, 191244, Note_on_c, 0, 67, 0
2, 191256, Note_on_c, 0, 36, 0
2, 191268, Note_on_c, 0, 48, 0
2, 191408, Note_on_c, 0, 76, 89
2, 191408, Note_on_c, 0, 36, 66
2, 191412, Note_on_c, 0, 48, 66
2, 191412, Note_on_c, 0, 72, 83
2, 191412, Note_on_c, 0, 64, 81
2, 191440, Note_on_c, 0, 72, 0
2, 191444, Note_on_c, 0, 48, 0
2, 191444, Note_on_c, 0, 36, 0
2, 191448, Note_on_c, 0, 76, 0
2, 191464, Note_on_c, 0, 64, 0
2, 191508, Control_c, 0, 64, 104
2, 191512, Control_c, 0, 64, 88
2, 191520, Control_c, 0, 64, 56
2, 191528, Control_c, 0, 64, 40
2, 191536, Control_c, 0, 64, 0
2, 191572, Note_on_c, 0, 74, 89
2, 191572, Note_on_c, 0, 62, 78
2, 191576, Note_on_c, 0, 67, 70
2, 191576, Note_on_c, 0, 71, 74
2, 191580, Note_on_c, 0, 43, 73
2, 191580, Note_on_c, 0, 55, 72
2, 191608, Control_c, 0, 64, 72
2, 191616, Control_c, 0, 64, 127
2, 191636, Note_on_c, 0, 55, 0
2, 191656, Note_on_c, 0, 67, 0
2, 191664, Note_on_c, 0, 71, 0
2, 191664, Note_on_c, 0, 43, 0
2, 191664, Note_on_c, 0, 74, 0
2, 191688, Note_on_c, 0, 62, 0
2, 191772, Control_c, 0, 64, 104
2, 191780, Control_c, 0, 64, 72
2, 191784, Control_c, 0, 64, 56
2, 191792, Control_c, 0, 64, 24
2, 191800, Control_c, 0, 64, 0
2, 191860, Note_on_c, 0, 72, 94
2, 191860, Note_on_c, 0, 64, 81
2, 191860, Note_on_c, 0, 60, 81
2, 191864, Note_on_c, 0, 43, 74
2, 191864, Note_on_c, 0, 55, 72
2, 191892, Note_on_c, 0, 60, 0
2, 191892, Note_on_c, 0, 64, 0
2, 191900, Note_on_c, 0, 55, 0
2, 191900, Note_on_c, 0, 43, 0
2, 191908, Note_on_c, 0, 72, 0
2, 192004, Note_on_c, 0, 74, 94
2, 192004, Note_on_c, 0, 62, 81
2, 192008, Note_on_c, 0, 65, 80
2, 192008, Note_on_c, 0, 55, 78
2, 192012, Note_on_c, 0, 43, 69
2, 192032, Note_on_c, 0, 55, 0
2, 192036, Note_on_c, 0, 65, 0
2, 192036, Note_on_c, 0, 62, 0
2, 192044, Note_on_c, 0, 43, 0
2, 192052, Note_on_c, 0, 74, 0
2, 192164, Note_on_c, 0, 76, 94
2, 192168, Note_on_c, 0, 67, 80
2, 192168, Note_on_c, 0, 64, 78
2, 192172, Note_on_c, 0, 36, 66
2, 192172, Control_c, 0, 64, 24
2, 192176, Note_on_c, 0, 48, 79
2, 192180, Control_c, 0, 64, 88
2, 192188, Control_c, 0, 64, 127
2, 192228, Note_on_c, 0, 64, 0
2, 192228, Note_on_c, 0, 76, 0
2, 192248, Note_on_c, 0, 36, 0
2, 192264, Note_on_c, 0, 48, 0
2, 192300, Note_on_c, 0, 67, 0
2, 192320, Note_on_c, 0, 62, 79
2, 192320, Note_on_c, 0, 74, 87
2, 192348, Note_on_c, 0, 62, 0
2, 192360, Note_on_c, 0, 74, 0
2, 192456, Note_on_c, 0, 76, 92
2, 192456, Note_on_c, 0, 67, 73
2, 192456, Note_on_c, 0, 64, 76
2, 192460, Control_c, 0, 64, 88
2, 192464, Note_on_c, 0, 60, 71
2, 192468, Control_c, 0, 64, 56
2, 192476, Note_on_c, 0, 67, 0
2, 192476, Control_c, 0, 64, 40
2, 192480, Note_on_c, 0, 64, 0
2, 192484, Control_c, 0, 64, 24
2, 192492, Control_c, 0, 64, 0
2, 192500, Note_on_c, 0, 76, 0
2, 192568, Note_on_c, 0, 60, 0
2, 192600, Note_on_c, 0, 79, 92
2, 192608, Note_on_c, 0, 76, 81
2, 192608, Note_on_c, 0, 67, 76
2, 192612, Note_on_c, 0, 64, 68
2, 192644, Note_on_c, 0, 67, 0
2, 192644, Note_on_c, 0, 76, 0
2, 192648, Note_on_c, 0, 64, 0
2, 192652, Note_on_c, 0, 79, 0
2, 192756, Note_on_c, 0, 79, 94
2, 192760, Note_on_c, 0, 74, 86
2, 192760, Note_on_c, 0, 67, 80
2, 192760, Note_on_c, 0, 55, 66
2, 192760, Control_c, 0, 64, 40
2, 192764, Note_on_c, 0, 62, 64
2, 192768, Control_c, 0, 64, 104
2, 192776, Control_c, 0, 64, 127
2, 192800, Note_on_c, 0, 62, 0
2, 192800, Note_on_c, 0, 67, 0
2, 192800, Note_on_c, 0, 55, 0
2, 192808, Note_on_c, 0, 74, 0
2, 192812, Note_on_c, 0, 79, 0
2, 192892, Control_c, 0, 64, 104
2, 192900, Control_c, 0, 64, 72
2, 192908, Control_c, 0, 64, 56
2, 192916, Control_c, 0, 64, 24
2, 192924, Control_c, 0, 64, 0
2, 193056, Note_on_c, 0, 79, 94
2, 193060, Note_on_c, 0, 67, 81
2, 193064, Note_on_c, 0, 74, 85
2, 193064, Note_on_c, 0, 62, 68
2, 193064, Note_on_c, 0, 55, 68
2, 193064, Control_c, 0, 64, 72
2, 193072, Control_c, 0, 64, 127
2, 193100, Note_on_c, 0, 67, 0
2, 193104, Note_on_c, 0, 55, 0
2, 193108, Note_on_c, 0, 62, 0
2, 193108, Note_on_c, 0, 74, 0
2, 193112, Note_on_c, 0, 79, 0
2, 193196, Control_c, 0, 64, 104
2, 193204, Control_c, 0, 64, 88
2, 193212, Control_c, 0, 64, 56
2, 193216, Control_c, 0, 64, 40
2, 193228, Control_c, 0, 64, 24
2, 193236, Control_c, 0, 64, 0
2, 193380, Note_on_c, 0, 79, 99
2, 193384, Note_on_c, 0, 67, 85
2, 193384, Note_on_c, 0, 76, 88
2, 193388, Note_on_c, 0, 36, 72
2, 193388, Note_on_c, 0, 48, 79
2, 193396, Control_c, 0, 64, 24
2, 193404, Control_c, 0, 64, 104
2, 193412, Control_c, 0, 64, 127
2, 193644, Note_on_c, 0, 79, 0
2, 193656, Note_on_c, 0, 76, 0
2, 193668, Note_on_c, 0, 67, 0
2, 193708, Note_on_c, 0, 48, 0
2, 193712, Note_on_c, 0, 36, 0
2, 193844, Note_on_c, 0, 76, 89
2, 193848, Note_on_c, 0, 36, 69
2, 193848, Note_on_c, 0, 64, 81
2, 193848, Note_on_c, 0, 72, 85
2, 193848, Note_on_c, 0, 48, 74
2, 193872, Note_on_c, 0, 36, 0
2, 193876, Note_on_c, 0, 48, 0
2, 193884, Note_on_c, 0, 72, 0
2, 193888, Note_on_c, 0, 64, 0
2, 193888, Note_on_c, 0, 76, 0
2, 193960, Control_c, 0, 64, 104
2, 193968, Control_c, 0, 64, 88
2, 193980, Control_c, 0, 64, 72
2, 193984, Control_c, 0, 64, 56
2, 193992, Control_c, 0, 64, 24
2, 194000, Control_c, 0, 64, 0
2, 194004, Note_on_c, 0, 74, 90
2, 194008, Note_on_c, 0, 71, 79
2, 194012, Note_on_c, 0, 62, 80
2, 194016, Note_on_c, 0, 55, 77
2, 194020, Note_on_c, 0, 43, 74
2, 194064, Control_c, 0, 64, 72
2, 194072, Control_c, 0, 64, 127
2, 194084, Note_on_c, 0, 62, 0
2, 194116, Note_on_c, 0, 43, 0
2, 194116, Note_on_c, 0, 71, 0
2, 194124, Note_on_c, 0, 74, 0
2, 194132, Note_on_c, 0, 55, 0
2, 194296, Control_c, 0, 64, 104
2, 194304, Control_c, 0, 64, 56
2, 194312, Control_c, 0, 64, 24
2, 194316, Note_on_c, 0, 67, 89
2, 194320, Control_c, 0, 64, 0
2, 194324, Note_on_c, 0, 43, 69
2, 194356, Control_c, 0, 64, 56
2, 194364, Control_c, 0, 64, 127
2, 194416, Note_on_c, 0, 67, 0
2, 194448, Note_on_c, 0, 79, 96
2, 194448, Note_on_c, 0, 55, 68
2, 194456, Note_on_c, 0, 43, 0
2, 194480, Note_on_c, 0, 55, 0
2, 194496, Note_on_c, 0, 79, 0
2, 194560, Control_c, 0, 64, 104
2, 194568, Control_c, 0, 64, 72
2, 194576, Note_on_c, 0, 48, 72
2, 194576, Control_c, 0, 64, 24
2, 194584, Control_c, 0, 64, 0
2, 194592, Note_on_c, 0, 55, 52
2, 194628, Note_on_c, 0, 79, 100
2, 194628, Note_on_c, 0, 67, 88
2, 194628, Control_c, 0, 64, 72
2, 194632, Note_on_c, 0, 76, 83
2, 194636, Note_on_c, 0, 64, 63
2, 194636, Control_c, 0, 64, 127
2, 194668, Note_on_c, 0, 64, 0
2, 194840, Note_on_c, 0, 76, 0
2, 194916, Note_on_c, 0, 55, 62
2, 194916, Note_on_c, 0, 60, 68
2, 194952, Note_on_c, 0, 60, 0
2, 194960, Note_on_c, 0, 55, 0
2, 194984, Note_on_c, 0, 64, 60
2, 195032, Note_on_c, 0, 64, 0
2, 195052, Note_on_c, 0, 76, 86
2, 195056, Note_on_c, 0, 55, 0
2, 195060, Note_on_c, 0, 60, 64
2, 195060, Note_on_c, 0, 55, 62
2, 195084, Note_on_c, 0, 67, 0
2, 195092, Note_on_c, 0, 60, 0
2, 195100, Note_on_c, 0, 55, 0
2, 195116, Note_on_c, 0, 64, 62
2, 195148, Note_on_c, 0, 79, 0
2, 195164, Note_on_c, 0, 64, 0
2, 195168, Note_on_c, 0, 76, 0
2, 195188, Note_on_c, 0, 72, 94
2, 195200, Note_on_c, 0, 60, 70
2, 195200, Note_on_c, 0, 55, 70
2, 195236, Note_on_c, 0, 60, 0
2, 195240, Note_on_c, 0, 55, 0
2, 195260, Note_on_c, 0, 64, 63
2, 195336, Note_on_c, 0, 64, 0
2, 195336, Note_on_c, 0, 60, 68
2, 195340, Note_on_c, 0, 48, 0
2, 195344, Note_on_c, 0, 55, 59
2, 195384, Note_on_c, 0, 55, 0
2, 195384, Note_on_c, 0, 60, 0
2, 195412, Note_on_c, 0, 64, 64
2, 195476, Note_on_c, 0, 55, 64
2, 195492, Note_on_c, 0, 64, 0
2, 195520, Note_on_c, 0, 55, 0
2, 195636, Note_on_c, 0, 72, 0
2, 195644, Note_on_c, 0, 76, 90
2, 195648, Note_on_c, 0, 48, 67
2, 195688, Note_on_c, 0, 48, 0
2, 195696, Note_on_c, 0, 76, 0
2, 195720, Control_c, 0, 64, 72
2, 195728, Control_c, 0, 64, 0
2, 195768, Note_on_c, 0, 45, 69
2, 195792, Note_on_c, 0, 52, 64
2, 195804, Control_c, 0, 64, 127
2, 195828, Note_on_c, 0, 81, 97
2, 195836, Note_on_c, 0, 76, 85
2, 195836, Note_on_c, 0, 69, 81
2, 195836, Note_on_c, 0, 73, 74
2, 195836, Note_on_c, 0, 61, 65
2, 195860, Note_on_c, 0, 61, 0
2, 196112, Note_on_c, 0, 76, 0
2, 196132, Note_on_c, 0, 52, 61
2, 196136, Note_on_c, 0, 57, 60
2, 196152, Note_on_c, 0, 73, 0
2, 196176, Note_on_c, 0, 52, 0
2, 196176, Note_on_c, 0, 57, 0
2, 196212, Note_on_c, 0, 61, 60
2, 196264, Note_on_c, 0, 61, 0
2, 196272, Note_on_c, 0, 81, 0
2, 196272, Note_on_c, 0, 76, 92
2, 196288, Note_on_c, 0, 52, 63
2, 196292, Note_on_c, 0, 57, 60
2, 196328, Note_on_c, 0, 57, 0
2, 196328, Note_on_c, 0, 52, 0
2, 196344, Note_on_c, 0, 61, 61
2, 196392, Note_on_c, 0, 61, 0
2, 196408, Note_on_c, 0, 76, 0
2, 196420, Note_on_c, 0, 73, 80
2, 196424, Note_on_c, 0, 52, 70
2, 196428, Note_on_c, 0, 57, 62
2, 196476, Note_on_c, 0, 57, 0
2, 196476, Note_on_c, 0, 52, 0
2, 196484, Note_on_c, 0, 61, 60
2, 196536, Note_on_c, 0, 61, 0
2, 196568, Note_on_c, 0, 45, 0
2, 196568, Note_on_c, 0, 52, 65
2, 196572, Note_on_c, 0, 57, 60
2, 196612, Note_on_c, 0, 52, 0
2, 196612, Note_on_c, 0, 52, 0
2, 196616, Note_on_c, 0, 57, 0
2, 196628, Note_on_c, 0, 61, 60
2, 196708, Note_on_c, 0, 61, 0
2, 196720, Note_on_c, 0, 52, 65
2, 196720, Note_on_c, 0, 57, 61
2, 196756, Note_on_c, 0, 52, 0
2, 196760, Note_on_c, 0, 57, 0
2, 196864, Note_on_c, 0, 73, 0
2, 196872, Note_on_c, 0, 76, 92
2, 196888, Note_on_c, 0, 45, 62
2, 196900, Note_on_c, 0, 69, 0
2, 196920, Note_on_c, 0, 76, 0
2, 196940, Note_on_c, 0, 45, 0
2, 196960, Control_c, 0, 64, 56
2, 196968, Control_c, 0, 64, 0
2, 196996, Note_on_c, 0, 41, 71
2, 197004, Note_on_c, 0, 48, 69
2, 197036, Control_c, 0, 64, 104
2, 197044, Control_c, 0, 64, 127
2, 197048, Note_on_c, 0, 57, 67
2, 197052, Note_on_c, 0, 81, 96
2, 197056, Note_on_c, 0, 69, 87
2, 197060, Note_on_c, 0, 72, 88
2, 197060, Note_on_c, 0, 77, 83
2, 197080, Note_on_c, 0, 57, 0
2, 197144, Note_on_c, 0, 77, 0
2, 197336, Note_on_c, 0, 48, 63
2, 197344, Note_on_c, 0, 53, 60
2, 197380, Note_on_c, 0, 48, 0
2, 197384, Note_on_c, 0, 53, 0
2, 197420, Note_on_c, 0, 57, 60
2, 197468, Note_on_c, 0, 57, 0
2, 197468, Note_on_c, 0, 81, 0
2, 197472, Note_on_c, 0, 72, 0
2, 197488, Note_on_c, 0, 69, 0
2, 197488, Note_on_c, 0, 77, 90
2, 197492, Note_on_c, 0, 53, 62
2, 197492, Note_on_c, 0, 48, 62
2, 197524, Note_on_c, 0, 53, 0
2, 197540, Note_on_c, 0, 48, 0
2, 197556, Note_on_c, 0, 57, 60
2, 197604, Note_on_c, 0, 57, 0
2, 197624, Note_on_c, 0, 77, 0
2, 197632, Note_on_c, 0, 72, 92
2, 197636, Note_on_c, 0, 48, 63
2, 197640, Note_on_c, 0, 53, 62
2, 197668, Note_on_c, 0, 53, 0
2, 197684, Note_on_c, 0, 48, 0
2, 197696, Note_on_c, 0, 57, 61
2, 197776, Note_on_c, 0, 57, 0
2, 197776, Note_on_c, 0, 53, 64
2, 197776, Note_on_c, 0, 48, 64
2, 197812, Note_on_c, 0, 41, 0
2, 197816, Note_on_c, 0, 53, 0
2, 197820, Note_on_c, 0, 48, 0
2, 197824, Note_on_c, 0, 48, 0
2, 197844, Note_on_c, 0, 57, 61
2, 197916, Note_on_c, 0, 53, 74
2, 197924, Note_on_c, 0, 57, 0
2, 197924, Note_on_c, 0, 48, 62
2, 197940, Note_on_c, 0, 53, 0
2, 197952, Note_on_c, 0, 48, 0
2, 198068, Note_on_c, 0, 72, 0
2, 198072, Note_on_c, 0, 77, 92
2, 198072, Note_on_c, 0, 41, 64
2, 198092, Note_on_c, 0, 41, 0
2, 198112, Note_on_c, 0, 77, 0
2, 198144, Control_c, 0, 64, 104
2, 198152, Control_c, 0, 64, 0
2, 198196, Note_on_c, 0, 42, 71
2, 198216, Note_on_c, 0, 50, 68
2, 198248, Note_on_c, 0, 84, 102
2, 198248, Control_c, 0, 64, 104
2, 198252, Note_on_c, 0, 74, 86
2, 198252, Note_on_c, 0, 72, 92
2, 198252, Note_on_c, 0, 57, 75
2, 198256, Note_on_c, 0, 81, 83
2, 198256, Control_c, 0, 64, 127
2, 198280, Note_on_c, 0, 57, 0
2, 198536, Note_on_c, 0, 57, 62
2, 198536, Note_on_c, 0, 50, 60
2, 198580, Note_on_c, 0, 57, 0
2, 198584, Note_on_c, 0, 81, 0
2, 198592, Note_on_c, 0, 50, 0
2, 198608, Note_on_c, 0, 60, 62
2, 198660, Note_on_c, 0, 60, 0
2, 198676, Note_on_c, 0, 72, 0
2, 198684, Note_on_c, 0, 74, 0
2, 198684, Note_on_c, 0, 81, 88
2, 198696, Note_on_c, 0, 57, 60
2, 198696, Note_on_c, 0, 50, 62
2, 198704, Note_on_c, 0, 84, 0
2, 198740, Note_on_c, 0, 57, 0
2, 198744, Note_on_c, 0, 50, 0
2, 198756, Note_on_c, 0, 60, 61
2, 198804, Note_on_c, 0, 60, 0
2, 198832, Note_on_c, 0, 81, 0
2, 198836, Note_on_c, 0, 74, 88
2, 198840, Note_on_c, 0, 57, 61
2, 198844, Note_on_c, 0, 50, 64
2, 198884, Note_on_c, 0, 57, 0
2, 198888, Note_on_c, 0, 50, 0
2, 198896, Note_on_c, 0, 60, 63
2, 198956, Note_on_c, 0, 60, 0
2, 198972, Note_on_c, 0, 57, 61
2, 198976, Note_on_c, 0, 50, 63
2, 199000, Note_on_c, 0, 42, 0
2, 199024, Note_on_c, 0, 57, 0
2, 199024, Note_on_c, 0, 50, 0
2, 199028, Note_on_c, 0, 50, 0
2, 199028, Note_on_c, 0, 60, 68
2, 199096, Note_on_c, 0, 60, 0
2, 199108, Note_on_c, 0, 57, 70
2, 199116, Note_on_c, 0, 50, 63
2, 199132, Note_on_c, 0, 57, 0
2, 199148, Note_on_c, 0, 50, 0
2, 199264, Note_on_c, 0, 81, 88
2, 199264, Note_on_c, 0, 42, 71
2, 199292, Note_on_c, 0, 74, 0
2, 199300, Note_on_c, 0, 42, 0
2, 199304, Note_on_c, 0, 81, 0
2, 199408, Control_c, 0, 64, 88
2, 199416, Control_c, 0, 64, 0
2, 199424, Note_on_c, 0, 43, 75
2, 199440, Note_on_c, 0, 84, 102
2, 199444, Note_on_c, 0, 72, 93
2, 199444, Note_on_c, 0, 79, 87
2, 199444, Note_on_c, 0, 76, 84
2, 199444, Note_on_c, 0, 52, 63
2, 199468, Control_c, 0, 64, 88
2, 199480, Note_on_c, 0, 60, 73
2, 199480, Control_c, 0, 64, 127
2, 199496, Note_on_c, 0, 60, 0
2, 199528, Note_on_c, 0, 76, 0
2, 199532, Note_on_c, 0, 79, 0
2, 199708, Note_on_c, 0, 84, 0
2, 199720, Note_on_c, 0, 72, 0
2, 199728, Note_on_c, 0, 76, 92
2, 199776, Note_on_c, 0, 76, 0
2, 199836, Note_on_c, 0, 43, 0
2, 199884, Note_on_c, 0, 52, 0
2, 199888, Control_c, 0, 64, 104
2, 199896, Control_c, 0, 64, 56
2, 199904, Control_c, 0, 64, 0
2, 200012, Control_c, 0, 64, 56
2, 200020, Control_c, 0, 64, 127
2, 200024, Note_on_c, 0, 81, 94
2, 200024, Note_on_c, 0, 78, 78
2, 200024, Note_on_c, 0, 69, 83
2, 200024, Note_on_c, 0, 75, 73
2, 200028, Note_on_c, 0, 51, 65
2, 200032, Note_on_c, 0, 60, 72
2, 200032, Note_on_c, 0, 54, 66
2, 200064, Note_on_c, 0, 51, 0
2, 200080, Note_on_c, 0, 75, 0
2, 200092, Note_on_c, 0, 78, 0
2, 200228, Note_on_c, 0, 81, 0
2, 200304, Note_on_c, 0, 69, 0
2, 200332, Note_on_c, 0, 78, 89
2, 200344, Control_c, 0, 64, 72
2, 200352, Control_c, 0, 64, 24
2, 200360, Control_c, 0, 64, 0
2, 200400, Control_c, 0, 64, 24
2, 200408, Control_c, 0, 64, 40
2, 200416, Control_c, 0, 64, 56
2, 200420, Control_c, 0, 64, 72
2, 200428, Control_c, 0, 64, 88
2, 200476, Control_c, 0, 64, 104
2, 200528, Control_c, 0, 64, 88
2, 200540, Control_c, 0, 64, 72
2, 200548, Control_c, 0, 64, 56
2, 200560, Control_c, 0, 64, 40
2, 200576, Control_c, 0, 64, 24
2, 200592, Control_c, 0, 64, 0
2, 200620, Note_on_c, 0, 79, 96
2, 200624, Note_on_c, 0, 65, 70
2, 200628, Note_on_c, 0, 74, 79
2, 200628, Note_on_c, 0, 67, 82
2, 200628, Note_on_c, 0, 72, 81
2, 200632, Note_on_c, 0, 43, 74
2, 200632, Note_on_c, 0, 55, 69
2, 200656, Control_c, 0, 64, 56
2, 200664, Control_c, 0, 64, 127
2, 200692, Note_on_c, 0, 67, 0
2, 200712, Note_on_c, 0, 74, 0
2, 200740, Note_on_c, 0, 72, 0
2, 200832, Note_on_c, 0, 60, 0
2, 200836, Note_on_c, 0, 54, 0
2, 200952, Note_on_c, 0, 65, 0
2, 200952, Note_on_c, 0, 74, 92
2, 200956, Note_on_c, 0, 79, 0
2, 201020, Note_on_c, 0, 74, 0
2, 201216, Note_on_c, 0, 78, 0
2, 201228, Control_c, 0, 64, 104
2, 201236, Control_c, 0, 64, 88
2, 201244, Note_on_c, 0, 77, 92
2, 201244, Control_c, 0, 64, 56
2, 201252, Note_on_c, 0, 65, 70
2, 201252, Control_c, 0, 64, 0
2, 201256, Note_on_c, 0, 55, 59
2, 201256, Note_on_c, 0, 71, 66
2, 201256, Note_on_c, 0, 62, 55
2, 201312, Control_c, 0, 64, 56
2, 201320, Control_c, 0, 64, 127
2, 201404, Note_on_c, 0, 55, 0
2, 201408, Note_on_c, 0, 65, 0
2, 201436, Note_on_c, 0, 55, 0
2, 201436, Note_on_c, 0, 43, 0
2, 201444, Note_on_c, 0, 62, 0
2, 201492, Note_on_c, 0, 77, 0
2, 201540, Note_on_c, 0, 71, 0
2, 201568, Note_on_c, 0, 67, 79
2, 201568, Note_on_c, 0, 55, 67
2, 201708, Note_on_c, 0, 67, 0
2, 201712, Note_on_c, 0, 74, 86
2, 201716, Note_on_c, 0, 55, 0
2, 201716, Note_on_c, 0, 62, 60
2, 201756, Note_on_c, 0, 62, 0
2, 201764, Note_on_c, 0, 74, 0
2, 201772, Control_c, 0, 64, 88
2, 201780, Control_c, 0, 64, 56
2, 201788, Control_c, 0, 64, 0
2, 201848, Control_c, 0, 64, 56
2, 201856, Control_c, 0, 64, 127
2, 201860, Note_on_c, 0, 76, 92
2, 201860, Note_on_c, 0, 64, 63
2, 201868, Note_on_c, 0, 60, 56
2, 201868, Note_on_c, 0, 72, 69
2, 201868, Note_on_c, 0, 67, 62
2, 201888, Note_on_c, 0, 72, 0
2, 201952, Note_on_c, 0, 67, 0
2, 201956, Note_on_c, 0, 64, 0
2, 201964, Note_on_c, 0, 60, 0
2, 201964, Note_on_c, 0, 76, 0
2, 202008, Note_on_c, 0, 74, 83
2, 202012, Note_on_c, 0, 67, 60
2, 202016, Note_on_c, 0, 62, 58
2, 202020, Note_on_c, 0, 55, 55
2, 202040, Control_c, 0, 64, 88
2, 202044, Note_on_c, 0, 55, 0
2, 202048, Control_c, 0, 64, 56
2, 202052, Note_on_c, 0, 67, 0
2, 202056, Control_c, 0, 64, 40
2, 202060, Note_on_c, 0, 62, 0
2, 202064, Control_c, 0, 64, 0
2, 202088, Note_on_c, 0, 74, 0
2, 202152, Note_on_c, 0, 76, 87
2, 202152, Control_c, 0, 64, 40
2, 202156, Note_on_c, 0, 67, 74
2, 202160, Note_on_c, 0, 64, 58
2, 202160, Note_on_c, 0, 60, 64
2, 202160, Control_c, 0, 64, 104
2, 202164, Control_c, 0, 64, 127
2, 202192, Note_on_c, 0, 60, 0
2, 202196, Note_on_c, 0, 67, 0
2, 202204, Note_on_c, 0, 64, 0
2, 202212, Note_on_c, 0, 76, 0
2, 202304, Note_on_c, 0, 79, 86
2, 202304, Note_on_c, 0, 67, 79
2, 202308, Note_on_c, 0, 76, 74
2, 202312, Note_on_c, 0, 64, 56
2, 202324, Note_on_c, 0, 64, 0
2, 202344, Note_on_c, 0, 76, 0
2, 202344, Note_on_c, 0, 67, 0
2, 202348, Note_on_c, 0, 79, 0
2, 202360, Control_c, 0, 64, 104
2, 202368, Control_c, 0, 64, 56
2, 202376, Control_c, 0, 64, 24
2, 202380, Control_c, 0, 64, 0
2, 202468, Note_on_c, 0, 79, 92
2, 202472, Note_on_c, 0, 67, 85
2, 202476, Note_on_c, 0, 74, 79
2, 202476, Note_on_c, 0, 55, 66
2, 202480, Note_on_c, 0, 62, 68
2, 202484, Control_c, 0, 64, 24
2, 202492, Control_c, 0, 64, 88
2, 202500, Control_c, 0, 64, 127
2, 202524, Note_on_c, 0, 55, 0
2, 202528, Note_on_c, 0, 62, 0
2, 202540, Note_on_c, 0, 67, 0
2, 202568, Note_on_c, 0, 74, 0
2, 202568, Note_on_c, 0, 79, 0
2, 202732, Control_c, 0, 64, 72
2, 202740, Control_c, 0, 64, 24
2, 202744, Control_c, 0, 64, 0
2, 202760, Note_on_c, 0, 79, 87
2, 202764, Note_on_c, 0, 67, 71
2, 202764, Note_on_c, 0, 74, 75
2, 202768, Note_on_c, 0, 55, 77
2, 202784, Control_c, 0, 64, 40
2, 202792, Control_c, 0, 64, 104
2, 202800, Control_c, 0, 64, 127
2, 202808, Note_on_c, 0, 55, 0
2, 202824, Note_on_c, 0, 67, 0
2, 202836, Note_on_c, 0, 74, 0
2, 202836, Note_on_c, 0, 79, 0
2, 202912, Note_on_c, 0, 62, 68
2, 202916, Note_on_c, 0, 55, 70
2, 202952, Note_on_c, 0, 55, 0
2, 202960, Note_on_c, 0, 62, 0
2, 203008, Control_c, 0, 64, 104
2, 203016, Control_c, 0, 64, 72
2, 203024, Control_c, 0, 64, 40
2, 203032, Control_c, 0, 64, 0
2, 203076, Note_on_c, 0, 79, 90
2, 203080, Note_on_c, 0, 67, 80
2, 203084, Note_on_c, 0, 76, 81
2, 203084, Note_on_c, 0, 64, 63
2, 203084, Note_on_c, 0, 60, 64
2, 203088, Control_c, 0, 64, 56
2, 203096, Control_c, 0, 64, 127
2, 203132, Note_on_c, 0, 60, 0
2, 203160, Note_on_c, 0, 64, 0
2, 203228, Note_on_c, 0, 62, 66
2, 203232, Note_on_c, 0, 55, 64
2, 203280, Note_on_c, 0, 62, 0
2, 203292, Note_on_c, 0, 55, 0
2, 203352, Note_on_c, 0, 67, 0
2, 203356, Control_c, 0, 64, 104
2, 203360, Note_on_c, 0, 64, 65
2, 203360, Note_on_c, 0, 60, 65
2, 203364, Control_c, 0, 64, 56
2, 203372, Control_c, 0, 64, 0
2, 203376, Note_on_c, 0, 76, 0
2, 203400, Note_on_c, 0, 60, 0
2, 203404, Note_on_c, 0, 64, 0
2, 203404, Control_c, 0, 64, 24
2, 203412, Control_c, 0, 64, 72
2, 203420, Control_c, 0, 64, 127
2, 203452, Note_on_c, 0, 79, 0
2, 203516, Note_on_c, 0, 67, 65
2, 203516, Note_on_c, 0, 76, 88
2, 203520, Note_on_c, 0, 64, 64
2, 203524, Note_on_c, 0, 72, 74
2, 203556, Note_on_c, 0, 67, 0
2, 203560, Note_on_c, 0, 64, 0
2, 203564, Note_on_c, 0, 72, 0
2, 203576, Note_on_c, 0, 76, 0
2, 203644, Control_c, 0, 64, 104
2, 203652, Control_c, 0, 64, 72
2, 203660, Control_c, 0, 64, 24
2, 203668, Control_c, 0, 64, 0
2, 203676, Note_on_c, 0, 74, 94
2, 203680, Note_on_c, 0, 71, 75
2, 203684, Note_on_c, 0, 67, 68
2, 203684, Note_on_c, 0, 62, 64
2, 203688, Note_on_c, 0, 55, 58
2, 203716, Control_c, 0, 64, 56
2, 203724, Control_c, 0, 64, 127
2, 203776, Note_on_c, 0, 71, 0
2, 203780, Note_on_c, 0, 55, 0
2, 203780, Note_on_c, 0, 67, 0
2, 203784, Note_on_c, 0, 62, 0
2, 203880, Note_on_c, 0, 74, 0
2, 203900, Control_c, 0, 64, 88
2, 203908, Control_c, 0, 64, 72
2, 203916, Control_c, 0, 64, 40
2, 203924, Control_c, 0, 64, 24
2, 203932, Control_c, 0, 64, 0
2, 203984, Note_on_c, 0, 67, 79
2, 203988, Note_on_c, 0, 55, 68
2, 203992, Control_c, 0, 64, 24
2, 204000, Control_c, 0, 64, 88
2, 204008, Control_c, 0, 64, 127
2, 204024, Note_on_c, 0, 55, 0
2, 204052, Note_on_c, 0, 67, 0
2, 204140, Note_on_c, 0, 74, 85
2, 204144, Note_on_c, 0, 67, 68
2, 204144, Note_on_c, 0, 62, 64
2, 204148, Note_on_c, 0, 55, 66
2, 204172, Note_on_c, 0, 67, 0
2, 204176, Note_on_c, 0, 55, 0
2, 204184, Note_on_c, 0, 62, 0
2, 204200, Note_on_c, 0, 74, 0
2, 204216, Control_c, 0, 64, 104
2, 204224, Control_c, 0, 64, 72
2, 204232, Control_c, 0, 64, 40
2, 204236, Control_c, 0, 64, 0
2, 204280, Note_on_c, 0, 76, 88
2, 204280, Control_c, 0, 64, 56
2, 204284, Note_on_c, 0, 64, 61
2, 204284, Note_on_c, 0, 67, 66
2, 204284, Note_on_c, 0, 72, 75
2, 204288, Note_on_c, 0, 60, 64
2, 204288, Control_c, 0, 64, 127
2, 204352, Note_on_c, 0, 72, 0
2, 204404, Note_on_c, 0, 64, 0
2, 204404, Note_on_c, 0, 60, 0
2, 204416, Note_on_c, 0, 67, 0
2, 204420, Note_on_c, 0, 76, 0
2, 204424, Note_on_c, 0, 62, 66
2, 204428, Note_on_c, 0, 74, 78
2, 204440, Note_on_c, 0, 55, 66
2, 204448, Note_on_c, 0, 67, 65
2, 204468, Note_on_c, 0, 62, 0
2, 204484, Note_on_c, 0, 55, 0
2, 204488, Note_on_c, 0, 74, 0
2, 204488, Note_on_c, 0, 67, 0
2, 204528, Control_c, 0, 64, 104
2, 204536, Control_c, 0, 64, 56
2, 204544, Control_c, 0, 64, 0
2, 204568, Note_on_c, 0, 76, 88
2, 204572, Note_on_c, 0, 64, 65
2, 204572, Note_on_c, 0, 67, 68
2, 204576, Note_on_c, 0, 60, 65
2, 204576, Note_on_c, 0, 72, 69
2, 204576, Control_c, 0, 64, 40
2, 204580, Control_c, 0, 64, 88
2, 204588, Control_c, 0, 64, 127
2, 204592, Note_on_c, 0, 72, 0
2, 204604, Note_on_c, 0, 60, 0
2, 204608, Note_on_c, 0, 67, 0
2, 204608, Note_on_c, 0, 64, 0
2, 204628, Note_on_c, 0, 76, 0
2, 204668, Control_c, 0, 64, 88
2, 204676, Control_c, 0, 64, 56
2, 204684, Control_c, 0, 64, 24
2, 204692, Control_c, 0, 64, 0
2, 204708, Control_c, 0, 64, 56
2, 204712, Control_c, 0, 64, 104
2, 204716, Note_on_c, 0, 64, 70
2, 204720, Note_on_c, 0, 79, 84
2, 204720, Control_c, 0, 64, 127
2, 204724, Note_on_c, 0, 67, 60
2, 204728, Note_on_c, 0, 76, 75
2, 204740, Note_on_c, 0, 64, 0
2, 204764, Note_on_c, 0, 67, 0
2, 204768, Note_on_c, 0, 79, 0
2, 204768, Note_on_c, 0, 76, 0
2, 204784, Control_c, 0, 64, 104
2, 204792, Control_c, 0, 64, 72
2, 204800, Control_c, 0, 64, 40
2, 204808, Control_c, 0, 64, 24
2, 204812, Control_c, 0, 64, 0
2, 204876, Control_c, 0, 64, 40
2, 204880, Note_on_c, 0, 79, 92
2, 204880, Note_on_c, 0, 67, 85
2, 204884, Note_on_c, 0, 74, 80
2, 204884, Control_c, 0, 64, 104
2, 204888, Note_on_c, 0, 55, 66
2, 204888, Note_on_c, 0, 62, 68
2, 204892, Control_c, 0, 64, 127
2, 204920, Note_on_c, 0, 62, 0
2, 204920, Note_on_c, 0, 67, 0
2, 204920, Note_on_c, 0, 55, 0
2, 204932, Note_on_c, 0, 74, 0
2, 204936, Note_on_c, 0, 79, 0
2, 205064, Control_c, 0, 64, 88
2, 205072, Control_c, 0, 64, 72
2, 205080, Control_c, 0, 64, 40
2, 205084, Control_c, 0, 64, 24
2, 205092, Control_c, 0, 64, 0
2, 205164, Control_c, 0, 64, 40
2, 205172, Note_on_c, 0, 79, 85
2, 205172, Control_c, 0, 64, 104
2, 205176, Note_on_c, 0, 67, 70
2, 205176, Note_on_c, 0, 74, 76
2, 205176, Note_on_c, 0, 55, 71
2, 205180, Note_on_c, 0, 62, 73
2, 205180, Control_c, 0, 64, 127
2, 205216, Note_on_c, 0, 55, 0
2, 205224, Note_on_c, 0, 62, 0
2, 205228, Note_on_c, 0, 67, 0
2, 205236, Note_on_c, 0, 74, 0
2, 205240, Note_on_c, 0, 79, 0
2, 205320, Note_on_c, 0, 55, 75
2, 205376, Note_on_c, 0, 55, 0
2, 205404, Control_c, 0, 64, 88
2, 205412, Control_c, 0, 64, 56
2, 205420, Control_c, 0, 64, 40
2, 205428, Control_c, 0, 64, 0
2, 205476, Note_on_c, 0, 79, 88
2, 205480, Note_on_c, 0, 67, 84
2, 205480, Control_c, 0, 64, 56
2, 205484, Note_on_c, 0, 76, 82
2, 205484, Note_on_c, 0, 64, 63
2, 205488, Note_on_c, 0, 60, 61
2, 205488, Control_c, 0, 64, 127
2, 205536, Note_on_c, 0, 60, 0
2, 205544, Note_on_c, 0, 64, 0
2, 205624, Note_on_c, 0, 62, 63
2, 205628, Note_on_c, 0, 55, 64
2, 205672, Note_on_c, 0, 62, 0
2, 205700, Note_on_c, 0, 55, 0
2, 205756, Note_on_c, 0, 67, 0
2, 205760, Note_on_c, 0, 64, 65
2, 205764, Note_on_c, 0, 60, 66
2, 205788, Note_on_c, 0, 76, 0
2, 205792, Control_c, 0, 64, 88
2, 205796, Note_on_c, 0, 60, 0
2, 205796, Note_on_c, 0, 64, 0
2, 205800, Control_c, 0, 64, 56
2, 205808, Control_c, 0, 64, 24
2, 205812, Control_c, 0, 64, 0
2, 205848, Note_on_c, 0, 79, 0
2, 205868, Control_c, 0, 64, 40
2, 205876, Control_c, 0, 64, 88
2, 205884, Control_c, 0, 64, 127
2, 205920, Note_on_c, 0, 67, 63
2, 205920, Note_on_c, 0, 64, 62
2, 205920, Note_on_c, 0, 76, 84
2, 205924, Note_on_c, 0, 72, 73
2, 205952, Note_on_c, 0, 72, 0
2, 205956, Note_on_c, 0, 64, 0
2, 205964, Note_on_c, 0, 67, 0
2, 205976, Note_on_c, 0, 76, 0
2, 206044, Control_c, 0, 64, 88
2, 206052, Control_c, 0, 64, 56
2, 206060, Control_c, 0, 64, 40
2, 206068, Control_c, 0, 64, 0
2, 206084, Note_on_c, 0, 74, 94
2, 206088, Note_on_c, 0, 71, 76
2, 206092, Note_on_c, 0, 67, 63
2, 206092, Note_on_c, 0, 62, 65
2, 206096, Note_on_c, 0, 55, 65
2, 206116, Control_c, 0, 64, 56
2, 206124, Control_c, 0, 64, 127
2, 206200, Note_on_c, 0, 67, 0
2, 206212, Note_on_c, 0, 62, 0
2, 206228, Note_on_c, 0, 55, 0
2, 206300, Note_on_c, 0, 71, 0
2, 206396, Note_on_c, 0, 74, 0
2, 206404, Note_on_c, 0, 67, 83
2, 206408, Note_on_c, 0, 55, 67
2, 206448, Note_on_c, 0, 67, 0
2, 206528, Note_on_c, 0, 55, 0
2, 206536, Note_on_c, 0, 67, 67
2, 206548, Note_on_c, 0, 79, 87
2, 206564, Note_on_c, 0, 67, 0
2, 206604, Note_on_c, 0, 79, 0
2, 206664, Control_c, 0, 64, 104
2, 206672, Control_c, 0, 64, 72
2, 206676, Note_on_c, 0, 48, 74
2, 206680, Control_c, 0, 64, 40
2, 206688, Control_c, 0, 64, 0
2, 206696, Note_on_c, 0, 55, 65
2, 206716, Note_on_c, 0, 79, 90
2, 206720, Note_on_c, 0, 67, 79
2, 206720, Note_on_c, 0, 76, 81
2, 206724, Note_on_c, 0, 72, 77
2, 206724, Note_on_c, 0, 64, 53
2, 206764, Control_c, 0, 64, 40
2, 206776, Control_c, 0, 64, 104
2, 206780, Control_c, 0, 64, 127
2, 207008, Note_on_c, 0, 76, 0
2, 207008, Note_on_c, 0, 79, 0
2, 207032, Note_on_c, 0, 72, 0
2, 207132, Note_on_c, 0, 48, 0
2, 207144, Note_on_c, 0, 55, 0
2, 207160, Note_on_c, 0, 67, 0
2, 207168, Note_on_c, 0, 76, 86
2, 207172, Note_on_c, 0, 64, 0
2, 207232, Note_on_c, 0, 76, 0
2, 207324, Note_on_c, 0, 72, 88
2, 207332, Note_on_c, 0, 67, 64
2, 207752, Note_on_c, 0, 67, 0
2, 207764, Note_on_c, 0, 64, 58
2, 207768, Note_on_c, 0, 76, 82
2, 207780, Note_on_c, 0, 72, 0
2, 207788, Note_on_c, 0, 64, 0
2, 207812, Note_on_c, 0, 76, 0
2, 207924, Note_on_c, 0, 76, 85
2, 207928, Note_on_c, 0, 67, 62
2, 207932, Note_on_c, 0, 64, 62
2, 207940, Note_on_c, 0, 48, 65
2, 207940, Note_on_c, 0, 60, 55
2, 207940, Note_on_c, 0, 55, 52
2, 207980, Control_c, 0, 64, 88
2, 207988, Control_c, 0, 64, 56
2, 207996, Control_c, 0, 64, 0
2, 208052, Control_c, 0, 64, 24
2, 208060, Control_c, 0, 64, 88
2, 208068, Control_c, 0, 64, 127
2, 208368, Note_on_c, 0, 55, 0
2, 208368, Note_on_c, 0, 76, 0
2, 208372, Note_on_c, 0, 64, 0
2, 208376, Note_on_c, 0, 67, 0
2, 208376, Note_on_c, 0, 48, 0
2, 208380, Note_on_c, 0, 72, 82
2, 208400, Note_on_c, 0, 60, 0
2, 208512, Note_on_c, 0, 72, 0
2, 208544, Note_on_c, 0, 67, 72
2, 208556, Note_on_c, 0, 64, 60
2, 208988, Note_on_c, 0, 72, 74
2, 208996, Note_on_c, 0, 60, 61
2, 209000, Note_on_c, 0, 67, 0
2, 209008, Note_on_c, 0, 64, 0
2, 209016, Note_on_c, 0, 60, 0
2, 209032, Note_on_c, 0, 72, 0
2, 209164, Note_on_c, 0, 72, 75
2, 209168, Note_on_c, 0, 60, 58
2, 209172, Note_on_c, 0, 64, 58
2, 209180, Note_on_c, 0, 55, 38
2, 209184, Note_on_c, 0, 48, 50
2, 209228, Control_c, 0, 64, 72
2, 209236, Control_c, 0, 64, 40
2, 209244, Control_c, 0, 64, 0
2, 209292, Control_c, 0, 64, 72
2, 209300, Control_c, 0, 64, 127
2, 209348, Note_on_c, 0, 60, 0
2, 209560, Note_on_c, 0, 64, 0
2, 209572, Note_on_c, 0, 72, 0
2, 209604, Note_on_c, 0, 67, 66
2, 209728, Note_on_c, 0, 67, 0
2, 209744, Note_on_c, 0, 55, 0
2, 209744, Note_on_c, 0, 64, 61
2, 209756, Note_on_c, 0, 60, 57
2, 210192, Note_on_c, 0, 67, 68
2, 210200, Note_on_c, 0, 64, 0
2, 210208, Note_on_c, 0, 60, 0
2, 210212, Note_on_c, 0, 55, 42
2, 210228, Note_on_c, 0, 48, 0
2, 210232, Note_on_c, 0, 67, 0
2, 210252, Note_on_c, 0, 55, 0
2, 210360, Note_on_c, 0, 67, 71
2, 210368, Note_on_c, 0, 60, 56
2, 210372, Note_on_c, 0, 52, 49
2, 210376, Note_on_c, 0, 48, 44
2, 210420, Control_c, 0, 64, 104
2, 210428, Control_c, 0, 64, 72
2, 210436, Control_c, 0, 64, 24
2, 210444, Control_c, 0, 64, 0
2, 210500, Control_c, 0, 64, 72
2, 210508, Control_c, 0, 64, 127
2, 210768, Note_on_c, 0, 67, 0
2, 210788, Note_on_c, 0, 60, 0
2, 210796, Note_on_c, 0, 64, 63
2, 210952, Note_on_c, 0, 64, 0
2, 210952, Note_on_c, 0, 52, 0
2, 210960, Note_on_c, 0, 60, 67
2, 210968, Note_on_c, 0, 55, 45
2, 211024, Control_c, 0, 64, 104
2, 211032, Control_c, 0, 64, 72
2, 211040, Control_c, 0, 64, 24
2, 211048, Control_c, 0, 64, 0
2, 211088, Control_c, 0, 64, 40
2, 211096, Control_c, 0, 64, 104
2, 211104, Control_c, 0, 64, 127
2, 211424, Note_on_c, 0, 64, 62
2, 211424, Note_on_c, 0, 52, 46
2, 211432, Note_on_c, 0, 48, 0
2, 211468, Note_on_c, 0, 52, 0
2, 211472, Note_on_c, 0, 64, 0
2, 211488, Note_on_c, 0, 55, 0
2, 211492, Note_on_c, 0, 60, 0
2, 211580, Control_c, 0, 64, 0
2, 211596, Note_on_c, 0, 67, 65
2, 211596, Note_on_c, 0, 60, 51
2, 211596, Note_on_c, 0, 48, 51
2, 211596, Note_on_c, 0, 63, 47
2, 211648, Control_c, 0, 64, 88
2, 211652, Control_c, 0, 64, 40
2, 211660, Control_c, 0, 64, 0
2, 211724, Control_c, 0, 64, 72
2, 211732, Control_c, 0, 64, 127
2, 211900, Note_on_c, 0, 63, 0
2, 211996, Note_on_c, 0, 67, 0
2, 212000, Note_on_c, 0, 60, 0
2, 212016, Note_on_c, 0, 63, 54
2, 212188, Note_on_c, 0, 63, 0
2, 212188, Note_on_c, 0, 60, 50
2, 212188, Note_on_c, 0, 55, 47
2, 212352, Note_on_c, 0, 48, 0
2, 212628, Note_on_c, 0, 51, 44
2, 212632, Note_on_c, 0, 63, 50
2, 212796, Note_on_c, 0, 51, 0
2, 212796, Note_on_c, 0, 48, 47
2, 212796, Note_on_c, 0, 67, 60
2, 212816, Note_on_c, 0, 63, 0
2, 212868, Control_c, 0, 64, 104
2, 212876, Control_c, 0, 64, 56
2, 212884, Control_c, 0, 64, 0
2, 212940, Control_c, 0, 64, 40
2, 212944, Control_c, 0, 64, 88
2, 212952, Control_c, 0, 64, 127
2, 213244, Note_on_c, 0, 60, 0
2, 213248, Note_on_c, 0, 63, 47
2, 213248, Note_on_c, 0, 51, 45
2, 213260, Note_on_c, 0, 67, 0
2, 213268, Note_on_c, 0, 55, 0
2, 213408, Note_on_c, 0, 60, 45
2, 213408, Note_on_c, 0, 55, 44
2, 213412, Note_on_c, 0, 63, 0
2, 213488, Note_on_c, 0, 51, 0
2, 213860, Note_on_c, 0, 63, 54
2, 213884, Note_on_c, 0, 51, 58
2, 213912, Note_on_c, 0, 48, 0
2, 214004, Note_on_c, 0, 55, 0
2, 214052, Note_on_c, 0, 60, 0
2, 214060, Note_on_c, 0, 68, 64
2, 214060, Note_on_c, 0, 48, 54
2, 214080, Note_on_c, 0, 63, 0
2, 214104, Note_on_c, 0, 51, 0
2, 214156, Control_c, 0, 64, 72
2, 214160, Control_c, 0, 64, 24
2, 214168, Control_c, 0, 64, 0
2, 214232, Control_c, 0, 64, 40
2, 214240, Control_c, 0, 64, 104
2, 214248, Control_c, 0, 64, 127
2, 214472, Note_on_c, 0, 51, 42
2, 214472, Note_on_c, 0, 63, 45
2, 214648, Note_on_c, 0, 68, 0
2, 214656, Note_on_c, 0, 60, 43
2, 214656, Note_on_c, 0, 56, 40
2, 214660, Note_on_c, 0, 63, 0
2, 214680, Note_on_c, 0, 51, 0
2, 215040, Note_on_c, 0, 48, 0
2, 215064, Note_on_c, 0, 63, 45
2, 215064, Note_on_c, 0, 51, 42
2, 215144, Note_on_c, 0, 60, 0
2, 215204, Note_on_c, 0, 51, 0
2, 215228, Note_on_c, 0, 68, 57
2, 215228, Note_on_c, 0, 48, 42
2, 215236, Note_on_c, 0, 56, 0
2, 215244, Note_on_c, 0, 63, 0
2, 215308, Control_c, 0, 64, 72
2, 215316, Control_c, 0, 64, 24
2, 215324, Control_c, 0, 64, 0
2, 215376, Control_c, 0, 64, 56
2, 215384, Control_c, 0, 64, 127
2, 215660, Note_on_c, 0, 63, 46
2, 215660, Note_on_c, 0, 51, 40
2, 215788, Note_on_c, 0, 68, 0
2, 215824, Note_on_c, 0, 63, 0
2, 215832, Note_on_c, 0, 60, 43
2, 215832, Note_on_c, 0, 56, 40
2, 215856, Note_on_c, 0, 51, 0
2, 216264, Note_on_c, 0, 63, 43
2, 216264, Note_on_c, 0, 51, 43
2, 216264, Control_c, 0, 64, 127
2, 216332, Control_c, 0, 64, 88
2, 216340, Control_c, 0, 64, 40
2, 216344, Control_c, 0, 64, 127
2, 216412, Note_on_c, 0, 63, 0
2, 216412, Note_on_c, 0, 48, 0
2, 216416, Note_on_c, 0, 51, 0
2, 216424, Note_on_c, 0, 60, 0
2, 216432, Note_on_c, 0, 56, 0
2, 216644, Note_on_c, 0, 72, 64
2, 216644, Note_on_c, 0, 44, 41
2, 216644, Note_on_c, 0, 68, 34
2, 216644, Note_on_c, 0, 56, 35
2, 216860, Note_on_c, 0, 51, 35
2, 216980, Note_on_c, 0, 51, 0
2, 217016, Note_on_c, 0, 56, 43
2, 217028, Note_on_c, 0, 56, 0
2, 217028, Note_on_c, 0, 68, 0
2, 217128, Note_on_c, 0, 56, 0
2, 217164, Note_on_c, 0, 60, 48
2, 217264, Note_on_c, 0, 60, 0
2, 217300, Note_on_c, 0, 63, 48
2, 217348, Note_on_c, 0, 72, 0
2, 217452, Note_on_c, 0, 63, 0
2, 217460, Note_on_c, 0, 68, 37
2, 217572, Note_on_c, 0, 44, 0
2, 217604, Note_on_c, 0, 68, 0
2, 217620, Note_on_c, 0, 70, 62
2, 217620, Note_on_c, 0, 72, 46
2, 217720, Note_on_c, 0, 72, 0
2, 217772, Note_on_c, 0, 68, 44
2, 217904, Note_on_c, 0, 68, 0
2, 217912, Note_on_c, 0, 63, 39
2, 218020, Note_on_c, 0, 63, 0
2, 218120, Note_on_c, 0, 60, 41
2, 218240, Note_on_c, 0, 60, 0
2, 218252, Note_on_c, 0, 56, 43
2, 218332, Note_on_c, 0, 68, 67
2, 218352, Note_on_c, 0, 70, 0
2, 218416, Note_on_c, 0, 56, 0
2, 218456, Note_on_c, 0, 51, 40
2, 218504, Note_on_c, 0, 68, 0
2, 218640, Note_on_c, 0, 68, 67
2, 218664, Note_on_c, 0, 51, 0
2, 218664, Note_on_c, 0, 44, 42
2, 218688, Control_c, 0, 64, 40
2, 218704, Control_c, 0, 64, 0
2, 218784, Control_c, 0, 64, 40
2, 218796, Control_c, 0, 64, 127
2, 218840, Note_on_c, 0, 51, 48
2, 218968, Note_on_c, 0, 51, 0
2, 218992, Note_on_c, 0, 56, 50
2, 219048, Note_on_c, 0, 68, 0
2, 219104, Note_on_c, 0, 56, 0
2, 219132, Note_on_c, 0, 60, 52
2, 219252, Note_on_c, 0, 60, 0
2, 219272, Note_on_c, 0, 63, 50
2, 219388, Note_on_c, 0, 63, 0
2, 219404, Note_on_c, 0, 68, 51
2, 219556, Note_on_c, 0, 68, 0
2, 219576, Note_on_c, 0, 72, 52
2, 219604, Note_on_c, 0, 44, 0
2, 219668, Note_on_c, 0, 72, 0
2, 219716, Note_on_c, 0, 68, 50
2, 219876, Note_on_c, 0, 63, 43
2, 219880, Note_on_c, 0, 68, 0
2, 219944, Note_on_c, 0, 63, 0
2, 220068, Note_on_c, 0, 68, 61
2, 220068, Note_on_c, 0, 60, 45
2, 220180, Note_on_c, 0, 60, 0
2, 220252, Note_on_c, 0, 68, 0
2, 220256, Note_on_c, 0, 70, 73
2, 220256, Note_on_c, 0, 56, 43
2, 220372, Note_on_c, 0, 56, 0
2, 220436, Note_on_c, 0, 70, 0
2, 220444, Note_on_c, 0, 72, 76
2, 220444, Note_on_c, 0, 51, 48
2, 220620, Note_on_c, 0, 51, 0
2, 220684, Note_on_c, 0, 75, 81
2, 220684, Note_on_c, 0, 44, 53
2, 220684, Control_c, 0, 64, 0
2, 220756, Note_on_c, 0, 72, 0
2, 220792, Control_c, 0, 64, 72
2, 220808, Control_c, 0, 64, 127
2, 220864, Note_on_c, 0, 53, 48
2, 221008, Note_on_c, 0, 56, 42
2, 221052, Note_on_c, 0, 75, 0
2, 221164, Note_on_c, 0, 61, 42
2, 221304, Note_on_c, 0, 65, 46
2, 221312, Note_on_c, 0, 61, 0
2, 221320, Note_on_c, 0, 53, 0
2, 221404, Note_on_c, 0, 56, 0
2, 221440, Note_on_c, 0, 68, 53
2, 221452, Note_on_c, 0, 65, 0
2, 221588, Note_on_c, 0, 73, 66
2, 221592, Note_on_c, 0, 68, 0
2, 221740, Note_on_c, 0, 68, 45
2, 221836, Note_on_c, 0, 44, 0
2, 221884, Note_on_c, 0, 65, 42
2, 221972, Note_on_c, 0, 68, 0
2, 221996, Note_on_c, 0, 73, 0
2, 222024, Note_on_c, 0, 61, 40
2, 222044, Note_on_c, 0, 65, 0
2, 222144, Note_on_c, 0, 56, 40
2, 222160, Note_on_c, 0, 61, 0
2, 222296, Note_on_c, 0, 56, 0
2, 222304, Note_on_c, 0, 53, 44
2, 222432, Note_on_c, 0, 53, 0
2, 222468, Note_on_c, 0, 44, 48
2, 222468, Note_on_c, 0, 56, 46
2, 222468, Note_on_c, 0, 63, 60
2, 222468, Note_on_c, 0, 53, 47
2, 222508, Control_c, 0, 64, 104
2, 222528, Control_c, 0, 64, 72
2, 222544, Control_c, 0, 64, 88
2, 222560, Control_c, 0, 64, 127
2, 222620, Note_on_c, 0, 53, 51
2, 222640, Note_on_c, 0, 44, 0
2, 222760, Note_on_c, 0, 56, 43
2, 222844, Note_on_c, 0, 53, 0
2, 222844, Note_on_c, 0, 53, 0
2, 222852, Note_on_c, 0, 56, 0
2, 222852, Note_on_c, 0, 63, 0
2, 222852, Note_on_c, 0, 56, 0
2, 222908, Note_on_c, 0, 61, 46
2, 223040, Note_on_c, 0, 61, 0
2, 223064, Note_on_c, 0, 65, 45
2, 223184, Note_on_c, 0, 65, 0
2, 223196, Note_on_c, 0, 68, 51
2, 223336, Note_on_c, 0, 68, 0
2, 223344, Note_on_c, 0, 73, 49
2, 223344, Note_on_c, 0, 61, 50
2, 223484, Note_on_c, 0, 68, 50
2, 223504, Note_on_c, 0, 73, 0
2, 223636, Note_on_c, 0, 68, 0
2, 223636, Note_on_c, 0, 65, 48
2, 223728, Note_on_c, 0, 61, 0
2, 223756, Note_on_c, 0, 65, 0
2, 223780, Note_on_c, 0, 61, 35
2, 223840, Note_on_c, 0, 61, 0
2, 223924, Note_on_c, 0, 56, 29
2, 224096, Note_on_c, 0, 56, 0
2, 224124, Note_on_c, 0, 53, 36
2, 224260, Note_on_c, 0, 53, 0
2, 224312, Note_on_c, 0, 44, 44
2, 224356, Note_on_c, 0, 73, 73
2, 224384, Control_c, 0, 64, 56
2, 224404, Control_c, 0, 64, 0
2, 224508, Control_c, 0, 64, 88
2, 224524, Control_c, 0, 64, 127
2, 224528, Note_on_c, 0, 53, 46
2, 224532, Note_on_c, 0, 44, 0
2, 224668, Note_on_c, 0, 58, 50
2, 224808, Note_on_c, 0, 61, 48
2, 224948, Note_on_c, 0, 61, 0
2, 224948, Note_on_c, 0, 65, 59
2, 225064, Note_on_c, 0, 65, 0
2, 225076, Note_on_c, 0, 70, 65
2, 225204, Note_on_c, 0, 70, 0
2, 225208, Note_on_c, 0, 73, 56
2, 225208, Note_on_c, 0, 72, 76
2, 225252, Note_on_c, 0, 73, 0
2, 225304, Note_on_c, 0, 53, 0
2, 225348, Note_on_c, 0, 70, 58
2, 225372, Note_on_c, 0, 73, 0
2, 225476, Note_on_c, 0, 70, 0
2, 225492, Note_on_c, 0, 65, 58
2, 225544, Note_on_c, 0, 58, 0
2, 225616, Note_on_c, 0, 65, 0
2, 225624, Note_on_c, 0, 61, 47
2, 225716, Note_on_c, 0, 61, 0
2, 225768, Note_on_c, 0, 58, 39
2, 225812, Note_on_c, 0, 70, 69
2, 225816, Note_on_c, 0, 72, 0
2, 225916, Note_on_c, 0, 58, 0
2, 225940, Note_on_c, 0, 53, 48
2, 226016, Note_on_c, 0, 70, 0
2, 226072, Note_on_c, 0, 53, 0
2, 226088, Note_on_c, 0, 70, 65
2, 226100, Note_on_c, 0, 44, 51
2, 226152, Control_c, 0, 64, 88
2, 226168, Control_c, 0, 64, 24
2, 226184, Control_c, 0, 64, 0
2, 226248, Control_c, 0, 64, 56
2, 226256, Note_on_c, 0, 44, 0
2, 226260, Control_c, 0, 64, 127
2, 226268, Note_on_c, 0, 53, 52
2, 226408, Note_on_c, 0, 58, 49
2, 226552, Note_on_c, 0, 61, 46
2, 226688, Note_on_c, 0, 65, 54
2, 226704, Note_on_c, 0, 61, 0
2, 226804, Note_on_c, 0, 65, 0
2, 226816, Note_on_c, 0, 70, 58
2, 226944, Note_on_c, 0, 70, 0
2, 226960, Note_on_c, 0, 73, 59
2, 226988, Note_on_c, 0, 53, 0
2, 227056, Note_on_c, 0, 73, 0
2, 227080, Note_on_c, 0, 58, 0
2, 227108, Note_on_c, 0, 70, 58
2, 227216, Note_on_c, 0, 70, 0
2, 227248, Note_on_c, 0, 65, 57
2, 227280, Note_on_c, 0, 70, 0
2, 227384, Note_on_c, 0, 65, 0
2, 227388, Note_on_c, 0, 61, 44
2, 227388, Note_on_c, 0, 70, 67
2, 227500, Note_on_c, 0, 61, 0
2, 227560, Note_on_c, 0, 58, 33
2, 227560, Note_on_c, 0, 72, 72
2, 227584, Note_on_c, 0, 70, 0
2, 227732, Note_on_c, 0, 72, 0
2, 227732, Note_on_c, 0, 58, 0
2, 227748, Note_on_c, 0, 53, 42
2, 227748, Note_on_c, 0, 73, 74
2, 227848, Note_on_c, 0, 53, 0
2, 227972, Control_c, 0, 64, 104
2, 227976, Note_on_c, 0, 44, 49
2, 227980, Control_c, 0, 64, 24
2, 228004, Note_on_c, 0, 73, 0
2, 228016, Note_on_c, 0, 44, 46
2, 228016, Note_on_c, 0, 77, 77
2, 228080, Control_c, 0, 64, 104
2, 228096, Control_c, 0, 64, 0
2, 228188, Note_on_c, 0, 44, 0
2, 228188, Control_c, 0, 64, 88
2, 228204, Control_c, 0, 64, 127
2, 228212, Note_on_c, 0, 51, 37
2, 228368, Note_on_c, 0, 55, 43
2, 228404, Note_on_c, 0, 44, 0
2, 228484, Note_on_c, 0, 58, 43
2, 228624, Note_on_c, 0, 61, 42
2, 228732, Note_on_c, 0, 63, 55
2, 228768, Note_on_c, 0, 61, 0
2, 228832, Note_on_c, 0, 63, 0
2, 228860, Note_on_c, 0, 67, 54
2, 228996, Note_on_c, 0, 70, 56
2, 228996, Note_on_c, 0, 75, 65
2, 229008, Note_on_c, 0, 67, 0
2, 229076, Note_on_c, 0, 77, 0
2, 229096, Note_on_c, 0, 70, 0
2, 229132, Note_on_c, 0, 67, 55
2, 229192, Note_on_c, 0, 55, 0
2, 229244, Note_on_c, 0, 67, 0
2, 229264, Note_on_c, 0, 63, 55
2, 229276, Note_on_c, 0, 51, 0
2, 229376, Note_on_c, 0, 63, 0
2, 229384, Note_on_c, 0, 58, 0
2, 229388, Note_on_c, 0, 61, 51
2, 229472, Note_on_c, 0, 75, 0
2, 229512, Note_on_c, 0, 61, 0
2, 229540, Note_on_c, 0, 58, 37
2, 229704, Note_on_c, 0, 58, 0
2, 229708, Note_on_c, 0, 55, 42
2, 229804, Note_on_c, 0, 55, 0
2, 229840, Note_on_c, 0, 51, 42
2, 229968, Note_on_c, 0, 51, 0
2, 229988, Note_on_c, 0, 44, 45
2, 229988, Note_on_c, 0, 65, 64
2, 229988, Note_on_c, 0, 58, 46
2, 230020, Control_c, 0, 64, 72
2, 230032, Control_c, 0, 64, 0
2, 230124, Control_c, 0, 64, 127
2, 230128, Note_on_c, 0, 44, 0
2, 230136, Note_on_c, 0, 51, 49
2, 230308, Note_on_c, 0, 55, 42
2, 230420, Note_on_c, 0, 58, 34
2, 230536, Note_on_c, 0, 61, 48
2, 230656, Note_on_c, 0, 63, 50
2, 230696, Note_on_c, 0, 61, 0
2, 230756, Note_on_c, 0, 63, 0
2, 230792, Note_on_c, 0, 67, 51
2, 230860, Note_on_c, 0, 65, 0
2, 230924, Note_on_c, 0, 67, 0
2, 230924, Note_on_c, 0, 70, 48
2, 230924, Note_on_c, 0, 63, 58
2, 231016, Note_on_c, 0, 70, 0
2, 231060, Note_on_c, 0, 67, 51
2, 231064, Note_on_c, 0, 55, 0
2, 231148, Note_on_c, 0, 51, 0
2, 231184, Note_on_c, 0, 67, 0
2, 231208, Note_on_c, 0, 63, 49
2, 231328, Note_on_c, 0, 63, 0
2, 231336, Note_on_c, 0, 61, 48
2, 231424, Note_on_c, 0, 61, 0
2, 231456, Note_on_c, 0, 58, 0
2, 231456, Note_on_c, 0, 58, 0
2, 231480, Note_on_c, 0, 58, 47
2, 231640, Note_on_c, 0, 55, 47
2, 231648, Note_on_c, 0, 58, 0
2, 231728, Note_on_c, 0, 63, 0
2, 231740, Note_on_c, 0, 55, 0
2, 231776, Note_on_c, 0, 51, 48
2, 231952, Note_on_c, 0, 51, 0
2, 231980, Note_on_c, 0, 44, 50
2, 232016, Control_c, 0, 64, 72
2, 232032, Control_c, 0, 64, 0
2, 232088, Note_on_c, 0, 44, 0
2, 232108, Control_c, 0, 64, 56
2, 232124, Control_c, 0, 64, 127
2, 232128, Note_on_c, 0, 51, 43
2, 232268, Note_on_c, 0, 55, 43
2, 232292, Note_on_c, 0, 51, 0
2, 232332, Note_on_c, 0, 55, 0
2, 232380, Note_on_c, 0, 58, 43
2, 232512, Note_on_c, 0, 61, 39
2, 232540, Note_on_c, 0, 58, 0
2, 232604, Note_on_c, 0, 61, 0
2, 232628, Note_on_c, 0, 63, 40
2, 232724, Note_on_c, 0, 63, 0
2, 232736, Note_on_c, 0, 70, 72
2, 232920, Note_on_c, 0, 70, 0
2, 232952, Note_on_c, 0, 73, 76
2, 233108, Note_on_c, 0, 73, 0
2, 233120, Note_on_c, 0, 67, 55
2, 233228, Note_on_c, 0, 67, 0
2, 233240, Note_on_c, 0, 63, 47
2, 233360, Note_on_c, 0, 63, 0
2, 233380, Note_on_c, 0, 61, 42
2, 233456, Note_on_c, 0, 61, 0
2, 233504, Note_on_c, 0, 58, 51
2, 233640, Note_on_c, 0, 58, 0
2, 233664, Note_on_c, 0, 55, 47
2, 233748, Note_on_c, 0, 55, 0
2, 233780, Note_on_c, 0, 51, 47
2, 233940, Note_on_c, 0, 51, 0
2, 233956, Note_on_c, 0, 44, 55
2, 233996, Control_c, 0, 64, 40
2, 234012, Control_c, 0, 64, 0
2, 234100, Note_on_c, 0, 44, 0
2, 234108, Note_on_c, 0, 51, 50
2, 234108, Control_c, 0, 64, 127
2, 234252, Note_on_c, 0, 51, 0
2, 234260, Note_on_c, 0, 56, 52
2, 234384, Note_on_c, 0, 60, 53
2, 234512, Note_on_c, 0, 60, 0
2, 234520, Note_on_c, 0, 72, 76
2, 234520, Note_on_c, 0, 63, 49
2, 234536, Note_on_c, 0, 56, 0
2, 234664, Note_on_c, 0, 68, 55
2, 234684, Note_on_c, 0, 72, 0
2, 234812, Note_on_c, 0, 63, 0
2, 234864, Note_on_c, 0, 70, 77
2, 234896, Note_on_c, 0, 46, 48
2, 234900, Note_on_c, 0, 68, 0
2, 234908, Note_on_c, 0, 46, 38
2, 234912, Control_c, 0, 64, 88
2, 234928, Control_c, 0, 64, 0
2, 235020, Control_c, 0, 64, 127
2, 235044, Note_on_c, 0, 46, 0
2, 235044, Note_on_c, 0, 46, 0
2, 235060, Note_on_c, 0, 50, 54
2, 235180, Note_on_c, 0, 50, 0
2, 235208, Note_on_c, 0, 56, 50
2, 235364, Note_on_c, 0, 62, 52
2, 235464, Note_on_c, 0, 62, 0
2, 235492, Note_on_c, 0, 56, 0
2, 235512, Note_on_c, 0, 65, 59
2, 235520, Note_on_c, 0, 70, 0
2, 235672, Note_on_c, 0, 68, 69
2, 235680, Note_on_c, 0, 65, 0
2, 235904, Note_on_c, 0, 68, 0
2, 235916, Note_on_c, 0, 67, 70
2, 235952, Control_c, 0, 64, 104
2, 235956, Note_on_c, 0, 39, 52
2, 235968, Control_c, 0, 64, 24
2, 235984, Control_c, 0, 64, 0
2, 236104, Control_c, 0, 64, 88
2, 236120, Control_c, 0, 64, 127
2, 236132, Note_on_c, 0, 46, 43
2, 236248, Note_on_c, 0, 46, 0
2, 236280, Note_on_c, 0, 51, 50
2, 236364, Note_on_c, 0, 39, 0
2, 236376, Note_on_c, 0, 51, 0
2, 236408, Note_on_c, 0, 55, 49
2, 236496, Note_on_c, 0, 55, 0
2, 236540, Note_on_c, 0, 58, 54
2, 236668, Note_on_c, 0, 67, 0
2, 236688, Note_on_c, 0, 68, 68
2, 236688, Note_on_c, 0, 63, 53
2, 236868, Note_on_c, 0, 63, 0
2, 236904, Note_on_c, 0, 70, 67
2, 236904, Note_on_c, 0, 67, 57
2, 236924, Control_c, 0, 64, 72
2, 236936, Note_on_c, 0, 68, 0
2, 236940, Control_c, 0, 64, 0
2, 236988, Control_c, 0, 64, 56
2, 237004, Control_c, 0, 64, 127
2, 237024, Note_on_c, 0, 58, 0
2, 237064, Note_on_c, 0, 67, 0
2, 237076, Note_on_c, 0, 63, 50
2, 237224, Note_on_c, 0, 63, 0
2, 237224, Note_on_c, 0, 58, 51
2, 237300, Note_on_c, 0, 58, 0
2, 237384, Note_on_c, 0, 55, 53
2, 237508, Note_on_c, 0, 55, 0
2, 237524, Note_on_c, 0, 51, 50
2, 237632, Note_on_c, 0, 51, 0
2, 237668, Note_on_c, 0, 70, 0
2, 237680, Note_on_c, 0, 46, 48
2, 237760, Note_on_c, 0, 46, 0
2, 237848, Note_on_c, 0, 66, 35
2, 237848, Note_on_c, 0, 63, 30
2, 237848, Note_on_c, 0, 58, 30
2, 237848, Note_on_c, 0, 51, 31
2, 237848, Note_on_c, 0, 70, 40
2, 237852, Note_on_c, 0, 39, 50
2, 237980, Control_c, 0, 64, 72
2, 237996, Control_c, 0, 64, 0
2, 238028, Note_on_c, 0, 46, 54
2, 238072, Control_c, 0, 64, 56
2, 238088, Control_c, 0, 64, 127
2, 238192, Note_on_c, 0, 51, 51
2, 238264, Note_on_c, 0, 39, 0
2, 238272, Note_on_c, 0, 46, 0
2, 238312, Note_on_c, 0, 51, 0
2, 238332, Note_on_c, 0, 54, 45
2, 238448, Note_on_c, 0, 54, 0
2, 238488, Note_on_c, 0, 58, 37
2, 238628, Note_on_c, 0, 63, 47
2, 238632, Note_on_c, 0, 58, 0
2, 238700, Note_on_c, 0, 63, 0
2, 238772, Note_on_c, 0, 49, 54
2, 238800, Note_on_c, 0, 51, 0
2, 238892, Control_c, 0, 64, 72
2, 238908, Control_c, 0, 64, 0
2, 238940, Note_on_c, 0, 51, 47
2, 239004, Control_c, 0, 64, 88
2, 239020, Control_c, 0, 64, 127
2, 239084, Note_on_c, 0, 54, 43
2, 239204, Note_on_c, 0, 58, 40
2, 239216, Note_on_c, 0, 49, 0
2, 239244, Note_on_c, 0, 51, 0
2, 239276, Note_on_c, 0, 54, 0
2, 239296, Note_on_c, 0, 58, 0
2, 239324, Note_on_c, 0, 63, 44
2, 239456, Note_on_c, 0, 66, 46
2, 239476, Note_on_c, 0, 63, 0
2, 239576, Note_on_c, 0, 70, 47
2, 239584, Note_on_c, 0, 66, 0
2, 239648, Note_on_c, 0, 70, 0
2, 239648, Note_on_c, 0, 70, 0
2, 239756, Note_on_c, 0, 48, 56
2, 239836, Control_c, 0, 64, 72
2, 239852, Control_c, 0, 64, 0
2, 239920, Note_on_c, 0, 54, 46
2, 239960, Control_c, 0, 64, 56
2, 239976, Control_c, 0, 64, 127
2, 240072, Note_on_c, 0, 58, 40
2, 240140, Note_on_c, 0, 54, 0
2, 240152, Note_on_c, 0, 48, 0
2, 240176, Note_on_c, 0, 58, 0
2, 240208, Note_on_c, 0, 63, 39
2, 240336, Note_on_c, 0, 66, 49
2, 240376, Note_on_c, 0, 63, 0
2, 240400, Note_on_c, 0, 58, 0
2, 240416, Note_on_c, 0, 70, 63
2, 240484, Note_on_c, 0, 66, 0
2, 240540, Note_on_c, 0, 70, 0
2, 240644, Note_on_c, 0, 66, 0
2, 240644, Note_on_c, 0, 53, 53
2, 240644, Note_on_c, 0, 75, 72
2, 240644, Note_on_c, 0, 69, 52
2, 240644, Note_on_c, 0, 65, 42
2, 240644, Note_on_c, 0, 53, 41
2, 240644, Note_on_c, 0, 63, 41
2, 240644, Note_on_c, 0, 60, 40
2, 240664, Note_on_c, 0, 63, 0
2, 240720, Control_c, 0, 64, 72
2, 240736, Control_c, 0, 64, 0
2, 240768, Note_on_c, 0, 60, 0
2, 240808, Note_on_c, 0, 57, 38
2, 240832, Control_c, 0, 64, 72
2, 240848, Control_c, 0, 64, 127
2, 240960, Note_on_c, 0, 60, 52
2, 241024, Note_on_c, 0, 63, 0
2, 241040, Note_on_c, 0, 53, 0
2, 241076, Note_on_c, 0, 60, 0
2, 241080, Note_on_c, 0, 57, 0
2, 241100, Note_on_c, 0, 63, 38
2, 241140, Note_on_c, 0, 53, 0
2, 241232, Note_on_c, 0, 63, 0
2, 241236, Note_on_c, 0, 65, 52
2, 241376, Note_on_c, 0, 65, 0
2, 241384, Note_on_c, 0, 69, 54
2, 241432, Note_on_c, 0, 69, 0
2, 241520, Note_on_c, 0, 69, 0
2, 241540, Note_on_c, 0, 46, 54
2, 241604, Control_c, 0, 64, 56
2, 241620, Control_c, 0, 64, 0
2, 241712, Control_c, 0, 64, 72
2, 241728, Control_c, 0, 64, 127
2, 241736, Note_on_c, 0, 53, 47
2, 241868, Note_on_c, 0, 58, 40
2, 241916, Note_on_c, 0, 46, 0
2, 241928, Note_on_c, 0, 53, 0
2, 241972, Note_on_c, 0, 58, 0
2, 242000, Note_on_c, 0, 65, 0
2, 242000, Note_on_c, 0, 61, 42
2, 242136, Note_on_c, 0, 65, 54
2, 242204, Note_on_c, 0, 73, 71
2, 242208, Note_on_c, 0, 75, 0
2, 242276, Note_on_c, 0, 70, 53
2, 242284, Note_on_c, 0, 61, 0
2, 242284, Note_on_c, 0, 65, 0
2, 242348, Note_on_c, 0, 70, 0
2, 242444, Note_on_c, 0, 51, 58
2, 242444, Note_on_c, 0, 72, 73
2, 242472, Note_on_c, 0, 73, 0
2, 242520, Control_c, 0, 64, 88
2, 242532, Control_c, 0, 64, 24
2, 242548, Control_c, 0, 64, 0
2, 242604, Note_on_c, 0, 54, 47
2, 242624, Control_c, 0, 64, 72
2, 242640, Control_c, 0, 64, 127
2, 242748, Note_on_c, 0, 58, 45
2, 242836, Note_on_c, 0, 54, 0
2, 242856, Note_on_c, 0, 58, 0
2, 242864, Note_on_c, 0, 51, 0
2, 242892, Note_on_c, 0, 60, 47
2, 243036, Note_on_c, 0, 63, 50
2, 243064, Note_on_c, 0, 60, 0
2, 243104, Note_on_c, 0, 70, 67
2, 243168, Note_on_c, 0, 72, 0
2, 243168, Note_on_c, 0, 66, 47
2, 243176, Note_on_c, 0, 63, 0
2, 243244, Note_on_c, 0, 66, 0
2, 243372, Note_on_c, 0, 41, 50
2, 243372, Note_on_c, 0, 53, 51
2, 243372, Note_on_c, 0, 69, 66
2, 243388, Note_on_c, 0, 70, 0
2, 243464, Control_c, 0, 64, 72
2, 243480, Control_c, 0, 64, 0
2, 243540, Note_on_c, 0, 48, 51
2, 243620, Control_c, 0, 64, 127
2, 243704, Note_on_c, 0, 53, 46
2, 243848, Note_on_c, 0, 57, 49
2, 243976, Note_on_c, 0, 60, 51
2, 244012, Note_on_c, 0, 57, 0
2, 244040, Note_on_c, 0, 70, 69
2, 244084, Note_on_c, 0, 60, 0
2, 244096, Note_on_c, 0, 69, 0
2, 244108, Note_on_c, 0, 65, 52
2, 244248, Note_on_c, 0, 65, 0
2, 244268, Note_on_c, 0, 69, 55
2, 244268, Note_on_c, 0, 72, 67
2, 244292, Note_on_c, 0, 70, 0
2, 244360, Note_on_c, 0, 41, 0
2, 244360, Note_on_c, 0, 69, 0
2, 244372, Note_on_c, 0, 53, 0
2, 244372, Note_on_c, 0, 53, 0
2, 244380, Note_on_c, 0, 48, 0
2, 244404, Note_on_c, 0, 65, 52
2, 244516, Note_on_c, 0, 65, 0
2, 244552, Note_on_c, 0, 60, 52
2, 244684, Note_on_c, 0, 60, 0
2, 244704, Note_on_c, 0, 57, 51
2, 244772, Note_on_c, 0, 57, 0
2, 244876, Note_on_c, 0, 53, 51
2, 244932, Note_on_c, 0, 72, 0
2, 244960, Note_on_c, 0, 70, 49
2, 245048, Note_on_c, 0, 53, 0
2, 245048, Note_on_c, 0, 48, 52
2, 245196, Note_on_c, 0, 48, 0
2, 245260, Note_on_c, 0, 70, 0
2, 245360, Note_on_c, 0, 77, 77
2, 245360, Note_on_c, 0, 51, 43
2, 245360, Note_on_c, 0, 72, 47
2, 245380, Note_on_c, 0, 51, 45
2, 245432, Control_c, 0, 64, 72
2, 245448, Control_c, 0, 64, 0
2, 245552, Control_c, 0, 64, 56
2, 245568, Control_c, 0, 64, 127
2, 245580, Note_on_c, 0, 53, 49
2, 245736, Note_on_c, 0, 57, 49
2, 245872, Note_on_c, 0, 60, 47
2, 246008, Note_on_c, 0, 65, 51
2, 246148, Note_on_c, 0, 69, 52
2, 246192, Note_on_c, 0, 65, 0
2, 246212, Note_on_c, 0, 77, 0
2, 246284, Note_on_c, 0, 69, 0
2, 246312, Note_on_c, 0, 72, 74
2, 246316, Note_on_c, 0, 51, 0
2, 246316, Note_on_c, 0, 51, 0
2, 246456, Note_on_c, 0, 69, 57
2, 246520, Note_on_c, 0, 60, 0
2, 246560, Note_on_c, 0, 72, 0
2, 246612, Note_on_c, 0, 65, 55
2, 246624, Note_on_c, 0, 69, 0
2, 246656, Note_on_c, 0, 57, 0
2, 246668, Note_on_c, 0, 72, 0
2, 246724, Note_on_c, 0, 53, 0
2, 246760, Note_on_c, 0, 60, 54
2, 246940, Note_on_c, 0, 73, 76
2, 246944, Note_on_c, 0, 49, 53
2, 246956, Note_on_c, 0, 65, 0
2, 246984, Note_on_c, 0, 60, 0
2, 247084, Note_on_c, 0, 49, 0
2, 247096, Note_on_c, 0, 58, 54
2, 247196, Note_on_c, 0, 58, 0
2, 247288, Control_c, 0, 64, 88
2, 247300, Note_on_c, 0, 75, 78
2, 247304, Control_c, 0, 64, 0
2, 247332, Note_on_c, 0, 48, 52
2, 247340, Note_on_c, 0, 73, 0
2, 247412, Control_c, 0, 64, 56
2, 247428, Control_c, 0, 64, 127
2, 247444, Note_on_c, 0, 48, 0
2, 247460, Note_on_c, 0, 54, 49
2, 247588, Note_on_c, 0, 54, 0
2, 247616, Note_on_c, 0, 58, 48
2, 247768, Note_on_c, 0, 58, 0
2, 247800, Note_on_c, 0, 63, 48
2, 247888, Note_on_c, 0, 63, 0
2, 247988, Note_on_c, 0, 64, 47
2, 247992, Note_on_c, 0, 76, 78
2, 247992, Note_on_c, 0, 72, 45
2, 247992, Note_on_c, 0, 70, 43
2, 248036, Note_on_c, 0, 75, 0
2, 248048, Control_c, 0, 64, 56
2, 248060, Control_c, 0, 64, 0
2, 248112, Control_c, 0, 64, 88
2, 248124, Control_c, 0, 64, 127
2, 248164, Note_on_c, 0, 64, 0
2, 248172, Note_on_c, 0, 55, 52
2, 248200, Note_on_c, 0, 70, 0
2, 248232, Note_on_c, 0, 55, 0
2, 248392, Note_on_c, 0, 77, 78
2, 248392, Note_on_c, 0, 41, 54
2, 248392, Note_on_c, 0, 69, 45
2, 248400, Note_on_c, 0, 76, 0
2, 248452, Control_c, 0, 64, 40
2, 248468, Control_c, 0, 64, 0
2, 248560, Control_c, 0, 64, 104
2, 248576, Control_c, 0, 64, 127
2, 248616, Note_on_c, 0, 53, 54
2, 248656, Note_on_c, 0, 53, 0
2, 248688, Note_on_c, 0, 41, 0
2, 248788, Note_on_c, 0, 57, 50
2, 248872, Note_on_c, 0, 77, 0
2, 248908, Note_on_c, 0, 72, 68
2, 248956, Note_on_c, 0, 72, 0
2, 248976, Note_on_c, 0, 60, 49
2, 248988, Note_on_c, 0, 72, 0
2, 248988, Note_on_c, 0, 73, 67
2, 249060, Note_on_c, 0, 72, 75
2, 249072, Note_on_c, 0, 73, 0
2, 249076, Note_on_c, 0, 69, 0
2, 249236, Note_on_c, 0, 72, 0
2, 249236, Note_on_c, 0, 71, 73
2, 249236, Note_on_c, 0, 63, 50
2, 249236, Note_on_c, 0, 69, 58
2, 249236, Note_on_c, 0, 72, 54
2, 249256, Note_on_c, 0, 57, 0
2, 249436, Note_on_c, 0, 71, 0
2, 249444, Note_on_c, 0, 72, 73
2, 249444, Note_on_c, 0, 65, 63
2, 249476, Note_on_c, 0, 63, 0
2, 249496, Note_on_c, 0, 65, 0
2, 249540, Note_on_c, 0, 60, 0
2, 249736, Note_on_c, 0, 72, 0
2, 249736, Note_on_c, 0, 75, 76
2, 249736, Note_on_c, 0, 46, 54
2, 249832, Control_c, 0, 64, 40
2, 249848, Control_c, 0, 64, 0
2, 249944, Note_on_c, 0, 53, 49
2, 250000, Control_c, 0, 64, 104
2, 250016, Control_c, 0, 64, 127
2, 250056, Note_on_c, 0, 75, 0
2, 250088, Note_on_c, 0, 58, 50
2, 250172, Note_on_c, 0, 53, 0
2, 250232, Note_on_c, 0, 61, 51
2, 250356, Note_on_c, 0, 61, 0
2, 250396, Note_on_c, 0, 65, 52
2, 250480, Note_on_c, 0, 65, 0
2, 250516, Note_on_c, 0, 70, 53
2, 250648, Note_on_c, 0, 70, 0
2, 250672, Note_on_c, 0, 73, 64
2, 250672, Note_on_c, 0, 70, 51
2, 250800, Note_on_c, 0, 73, 0
2, 250800, Note_on_c, 0, 72, 0
2, 250812, Note_on_c, 0, 70, 53
2, 250824, Note_on_c, 0, 69, 0
2, 250876, Note_on_c, 0, 46, 0
2, 250928, Note_on_c, 0, 58, 0
2, 250932, Note_on_c, 0, 70, 0
2, 250948, Note_on_c, 0, 65, 50
2, 251056, Note_on_c, 0, 65, 0
2, 251088, Note_on_c, 0, 61, 48
2, 251156, Note_on_c, 0, 61, 0
2, 251208, Note_on_c, 0, 70, 0
2, 251228, Note_on_c, 0, 58, 47
2, 251356, Note_on_c, 0, 58, 0
2, 251364, Note_on_c, 0, 53, 47
2, 251432, Note_on_c, 0, 53, 0
2, 251480, Note_on_c, 0, 46, 51
2, 251480, Note_on_c, 0, 61, 37
2, 251480, Note_on_c, 0, 58, 37
2, 251624, Note_on_c, 0, 53, 46
2, 251628, Control_c, 0, 64, 88
2, 251644, Control_c, 0, 64, 40
2, 251660, Control_c, 0, 64, 24
2, 251676, Control_c, 0, 64, 40
2, 251692, Control_c, 0, 64, 104
2, 251704, Control_c, 0, 64, 127
2, 251764, Note_on_c, 0, 58, 39
2, 251916, Note_on_c, 0, 61, 46
2, 252076, Note_on_c, 0, 65, 44
2, 252168, Note_on_c, 0, 53, 0
2, 252168, Note_on_c, 0, 46, 0
2, 252180, Note_on_c, 0, 58, 0
2, 252180, Note_on_c, 0, 58, 0
2, 252208, Note_on_c, 0, 65, 0
2, 252220, Note_on_c, 0, 70, 45
2, 252288, Note_on_c, 0, 70, 0
2, 252368, Note_on_c, 0, 44, 52
2, 252420, Control_c, 0, 64, 72
2, 252432, Control_c, 0, 64, 0
2, 252508, Control_c, 0, 64, 56
2, 252524, Control_c, 0, 64, 127
2, 252544, Note_on_c, 0, 44, 0
2, 252560, Note_on_c, 0, 53, 43
2, 252704, Note_on_c, 0, 58, 35
2, 252736, Note_on_c, 0, 61, 0
2, 252736, Note_on_c, 0, 61, 0
2, 252768, Note_on_c, 0, 53, 0
2, 252820, Note_on_c, 0, 58, 0
2, 252848, Note_on_c, 0, 61, 42
2, 253008, Note_on_c, 0, 61, 0
2, 253008, Note_on_c, 0, 65, 37
2, 253156, Note_on_c, 0, 70, 49
2, 253164, Note_on_c, 0, 65, 0
2, 253228, Note_on_c, 0, 70, 0
2, 253328, Note_on_c, 0, 51, 31
2, 253368, Note_on_c, 0, 42, 56
2, 253368, Note_on_c, 0, 82, 75
2, 253368, Note_on_c, 0, 70, 49
2, 253368, Note_on_c, 0, 58, 42
2, 253440, Control_c, 0, 64, 104
2, 253456, Control_c, 0, 64, 24
2, 253468, Control_c, 0, 64, 0
2, 253564, Control_c, 0, 64, 72
2, 253572, Note_on_c, 0, 54, 43
2, 253580, Control_c, 0, 64, 127
2, 253720, Note_on_c, 0, 42, 0
2, 253736, Note_on_c, 0, 58, 42
2, 253744, Note_on_c, 0, 54, 0
2, 253864, Note_on_c, 0, 58, 0
2, 253880, Note_on_c, 0, 63, 47
2, 253916, Note_on_c, 0, 58, 0
2, 253948, Note_on_c, 0, 51, 0
2, 253992, Note_on_c, 0, 63, 0
2, 254016, Note_on_c, 0, 66, 50
2, 254152, Note_on_c, 0, 70, 57
2, 254172, Note_on_c, 0, 66, 0
2, 254236, Note_on_c, 0, 70, 0
2, 254332, Note_on_c, 0, 54, 52
2, 254332, Note_on_c, 0, 75, 73
2, 254344, Note_on_c, 0, 82, 0
2, 254396, Control_c, 0, 64, 40
2, 254412, Control_c, 0, 64, 0
2, 254476, Control_c, 0, 64, 72
2, 254488, Note_on_c, 0, 58, 51
2, 254492, Control_c, 0, 64, 127
2, 254656, Note_on_c, 0, 63, 52
2, 254768, Note_on_c, 0, 54, 0
2, 254772, Note_on_c, 0, 70, 0
2, 254796, Note_on_c, 0, 70, 62
2, 254796, Note_on_c, 0, 66, 50
2, 254852, Note_on_c, 0, 66, 0
2, 254872, Note_on_c, 0, 58, 0
2, 254872, Note_on_c, 0, 70, 0
2, 254904, Note_on_c, 0, 63, 0
2, 254940, Note_on_c, 0, 75, 0
2, 254964, Note_on_c, 0, 53, 55
2, 254964, Note_on_c, 0, 70, 45
2, 254964, Note_on_c, 0, 68, 46
2, 254964, Note_on_c, 0, 77, 74
2, 254988, Control_c, 0, 64, 88
2, 255004, Control_c, 0, 64, 24
2, 255020, Control_c, 0, 64, 0
2, 255036, Control_c, 0, 64, 24
2, 255052, Control_c, 0, 64, 72
2, 255068, Control_c, 0, 64, 127
2, 255108, Note_on_c, 0, 70, 54
2, 255108, Note_on_c, 0, 58, 41
2, 255108, Note_on_c, 0, 62, 47
2, 255108, Note_on_c, 0, 68, 55
2, 255160, Note_on_c, 0, 53, 0
2, 255172, Note_on_c, 0, 68, 0
2, 255184, Note_on_c, 0, 58, 0
2, 255188, Note_on_c, 0, 62, 0
2, 255192, Note_on_c, 0, 70, 0
2, 255216, Note_on_c, 0, 68, 0
2, 255244, Note_on_c, 0, 77, 0
2, 255260, Note_on_c, 0, 70, 0
2, 255308, Note_on_c, 0, 51, 55
2, 255308, Note_on_c, 0, 66, 50
2, 255308, Note_on_c, 0, 70, 48
2, 255308, Note_on_c, 0, 78, 75
2, 255360, Control_c, 0, 64, 56
2, 255376, Control_c, 0, 64, 0
2, 255456, Note_on_c, 0, 58, 52
2, 255484, Control_c, 0, 64, 72
2, 255500, Control_c, 0, 64, 127
2, 255632, Note_on_c, 0, 63, 53
2, 255676, Note_on_c, 0, 66, 0
2, 255696, Note_on_c, 0, 51, 0
2, 255716, Note_on_c, 0, 63, 0
2, 255720, Note_on_c, 0, 58, 0
2, 255776, Note_on_c, 0, 70, 55
2, 255776, Note_on_c, 0, 66, 47
2, 255800, Note_on_c, 0, 78, 0
2, 255860, Note_on_c, 0, 66, 0
2, 255880, Note_on_c, 0, 70, 0
2, 255948, Control_c, 0, 64, 104
2, 255960, Note_on_c, 0, 49, 62
2, 255960, Note_on_c, 0, 67, 52
2, 255960, Note_on_c, 0, 79, 76
2, 255964, Control_c, 0, 64, 40
2, 255980, Control_c, 0, 64, 0
2, 256012, Control_c, 0, 64, 24
2, 256024, Control_c, 0, 64, 88
2, 256036, Note_on_c, 0, 49, 0
2, 256040, Control_c, 0, 64, 127
2, 256132, Note_on_c, 0, 67, 0
2, 256144, Note_on_c, 0, 64, 50
2, 256144, Note_on_c, 0, 70, 53
2, 256160, Note_on_c, 0, 67, 52
2, 256184, Note_on_c, 0, 79, 0
2, 256208, Note_on_c, 0, 67, 0
2, 256212, Note_on_c, 0, 64, 0
2, 256224, Note_on_c, 0, 70, 0
2, 256264, Note_on_c, 0, 70, 0
2, 256340, Note_on_c, 0, 48, 59
2, 256340, Note_on_c, 0, 66, 51
2, 256340, Note_on_c, 0, 63, 50
2, 256340, Note_on_c, 0, 68, 49
2, 256340, Note_on_c, 0, 80, 73
2, 256340, Note_on_c, 0, 56, 44
2, 256384, Control_c, 0, 64, 56
2, 256396, Control_c, 0, 64, 0
2, 256504, Control_c, 0, 64, 56
2, 256508, Note_on_c, 0, 56, 0
2, 256524, Control_c, 0, 64, 127
2, 256532, Note_on_c, 0, 56, 53
2, 256680, Note_on_c, 0, 56, 0
2, 256692, Note_on_c, 0, 48, 0
2, 256712, Note_on_c, 0, 63, 52
2, 256796, Note_on_c, 0, 75, 72
2, 256820, Note_on_c, 0, 63, 0
2, 256840, Note_on_c, 0, 63, 0
2, 256848, Note_on_c, 0, 80, 0
2, 256876, Note_on_c, 0, 68, 46
2, 256880, Note_on_c, 0, 66, 38
2, 256896, Note_on_c, 0, 77, 79
2, 256900, Note_on_c, 0, 75, 0
2, 256980, Note_on_c, 0, 75, 71
2, 256996, Note_on_c, 0, 77, 0
2, 257032, Control_c, 0, 64, 104
2, 257048, Control_c, 0, 64, 40
2, 257064, Control_c, 0, 64, 0
2, 257076, Note_on_c, 0, 75, 0
2, 257076, Note_on_c, 0, 44, 54
2, 257076, Note_on_c, 0, 74, 77
2, 257096, Control_c, 0, 64, 24
2, 257112, Note_on_c, 0, 66, 0
2, 257112, Control_c, 0, 64, 88
2, 257128, Note_on_c, 0, 44, 0
2, 257128, Control_c, 0, 64, 127
2, 257132, Note_on_c, 0, 68, 0
2, 257140, Note_on_c, 0, 66, 0
2, 257256, Note_on_c, 0, 74, 0
2, 257288, Note_on_c, 0, 60, 40
2, 257288, Note_on_c, 0, 56, 41
2, 257288, Note_on_c, 0, 66, 40
2, 257288, Note_on_c, 0, 68, 45
2, 257288, Note_on_c, 0, 75, 77
2, 257336, Note_on_c, 0, 56, 0
2, 257376, Note_on_c, 0, 68, 0
2, 257380, Note_on_c, 0, 66, 0
2, 257384, Note_on_c, 0, 60, 0
2, 257480, Note_on_c, 0, 75, 0
2, 257496, Note_on_c, 0, 68, 0
2, 257564, Note_on_c, 0, 49, 58
2, 257564, Note_on_c, 0, 78, 77
2, 257564, Note_on_c, 0, 61, 49
2, 257656, Control_c, 0, 64, 72
2, 257668, Control_c, 0, 64, 0
2, 257740, Note_on_c, 0, 56, 51
2, 257808, Control_c, 0, 64, 104
2, 257824, Control_c, 0, 64, 127
2, 257884, Note_on_c, 0, 61, 52
2, 257976, Note_on_c, 0, 49, 0
2, 258032, Note_on_c, 0, 65, 53
2, 258040, Note_on_c, 0, 56, 0
2, 258040, Note_on_c, 0, 61, 0
2, 258040, Note_on_c, 0, 61, 0
2, 258168, Note_on_c, 0, 68, 55
2, 258248, Note_on_c, 0, 65, 0
2, 258276, Note_on_c, 0, 68, 0
2, 258304, Note_on_c, 0, 73, 61
2, 258436, Note_on_c, 0, 78, 0
2, 258456, Note_on_c, 0, 73, 0
2, 258460, Note_on_c, 0, 77, 71
2, 258568, Note_on_c, 0, 77, 0
2, 258600, Note_on_c, 0, 73, 56
2, 258748, Note_on_c, 0, 68, 53
2, 258784, Note_on_c, 0, 73, 0
2, 258888, Note_on_c, 0, 68, 0
2, 258904, Note_on_c, 0, 65, 52
2, 258996, Note_on_c, 0, 65, 0
2, 259056, Note_on_c, 0, 61, 51
2, 259180, Note_on_c, 0, 61, 0
2, 259208, Note_on_c, 0, 56, 50
2, 259312, Note_on_c, 0, 56, 0
2, 259360, Note_on_c, 0, 49, 50
2, 259360, Note_on_c, 0, 61, 41
2, 259360, Note_on_c, 0, 65, 43
2, 259360, Note_on_c, 0, 56, 41
2, 259464, Control_c, 0, 64, 104
2, 259480, Control_c, 0, 64, 24
2, 259496, Control_c, 0, 64, 0
2, 259516, Note_on_c, 0, 56, 40
2, 259576, Control_c, 0, 64, 72
2, 259592, Control_c, 0, 64, 127
2, 259664, Note_on_c, 0, 61, 43
2, 259724, Note_on_c, 0, 49, 0
2, 259780, Note_on_c, 0, 56, 0
2, 259780, Note_on_c, 0, 56, 0
2, 259792, Note_on_c, 0, 61, 0
2, 259820, Note_on_c, 0, 65, 42
2, 259952, Note_on_c, 0, 68, 46
2, 260096, Note_on_c, 0, 61, 0
2, 260104, Note_on_c, 0, 73, 54
2, 260112, Note_on_c, 0, 68, 0
2, 260120, Note_on_c, 0, 65, 0
2, 260164, Note_on_c, 0, 65, 0
2, 260236, Note_on_c, 0, 73, 0
2, 260268, Note_on_c, 0, 48, 55
2, 260268, Note_on_c, 0, 65, 47
2, 260268, Note_on_c, 0, 57, 45
2, 260268, Note_on_c, 0, 61, 46
2, 260364, Control_c, 0, 64, 88
2, 260380, Control_c, 0, 64, 40
2, 260396, Control_c, 0, 64, 0
2, 260476, Note_on_c, 0, 57, 21
2, 260488, Control_c, 0, 64, 72
2, 260504, Control_c, 0, 64, 127
2, 260612, Note_on_c, 0, 61, 32
2, 260668, Note_on_c, 0, 48, 0
2, 260752, Note_on_c, 0, 65, 40
2, 260784, Note_on_c, 0, 57, 0
2, 260784, Note_on_c, 0, 61, 0
2, 260856, Note_on_c, 0, 65, 0
2, 260904, Note_on_c, 0, 69, 45
2, 260952, Note_on_c, 0, 57, 0
2, 261056, Note_on_c, 0, 73, 51
2, 261068, Note_on_c, 0, 65, 0
2, 261068, Note_on_c, 0, 61, 0
2, 261084, Note_on_c, 0, 69, 0
2, 261144, Note_on_c, 0, 73, 0
2, 261268, Note_on_c, 0, 46, 53
2, 261268, Note_on_c, 0, 65, 40
2, 261268, Note_on_c, 0, 58, 39
2, 261268, Note_on_c, 0, 61, 39
2, 261384, Control_c, 0, 64, 104
2, 261404, Control_c, 0, 64, 40
2, 261420, Control_c, 0, 64, 0
2, 261452, Note_on_c, 0, 53, 47
2, 261528, Control_c, 0, 64, 88
2, 261540, Control_c, 0, 64, 127
2, 261600, Note_on_c, 0, 58, 49
2, 261744, Note_on_c, 0, 61, 50
2, 261876, Note_on_c, 0, 61, 0
2, 261920, Note_on_c, 0, 65, 51
2, 261984, Note_on_c, 0, 65, 0
2, 262044, Note_on_c, 0, 70, 69
2, 262224, Note_on_c, 0, 70, 0
2, 262268, Note_on_c, 0, 53, 0
2, 262284, Note_on_c, 0, 73, 73
2, 262284, Note_on_c, 0, 70, 47
2, 262312, Note_on_c, 0, 46, 0
2, 262316, Note_on_c, 0, 58, 0
2, 262392, Note_on_c, 0, 65, 0
2, 262456, Note_on_c, 0, 65, 56
2, 262596, Note_on_c, 0, 61, 46
2, 262736, Note_on_c, 0, 58, 42
2, 262864, Note_on_c, 0, 58, 0
2, 262888, Note_on_c, 0, 53, 43
2, 263016, Note_on_c, 0, 53, 0
2, 263020, Note_on_c, 0, 46, 56
2, 263104, Note_on_c, 0, 65, 0
2, 263128, Note_on_c, 0, 61, 0
2, 263128, Note_on_c, 0, 61, 0
2, 263144, Note_on_c, 0, 58, 0
2, 263172, Note_on_c, 0, 46, 0
2, 263180, Note_on_c, 0, 70, 0
2, 263180, Note_on_c, 0, 73, 0
2, 263252, Note_on_c, 0, 49, 51
2, 263252, Note_on_c, 0, 55, 44
2, 263252, Note_on_c, 0, 58, 43
2, 263252, Note_on_c, 0, 63, 49
2, 263340, Control_c, 0, 64, 72
2, 263356, Control_c, 0, 64, 0
2, 263424, Note_on_c, 0, 51, 54
2, 263448, Control_c, 0, 64, 40
2, 263464, Control_c, 0, 64, 127
2, 263512, Note_on_c, 0, 49, 0
2, 263592, Note_on_c, 0, 55, 52
2, 263720, Note_on_c, 0, 58, 34
2, 263832, Note_on_c, 0, 61, 43
2, 263948, Note_on_c, 0, 61, 0
2, 263956, Note_on_c, 0, 63, 53
2, 264044, Note_on_c, 0, 63, 0
2, 264072, Note_on_c, 0, 67, 58
2, 264272, Note_on_c, 0, 72, 79
2, 264272, Note_on_c, 0, 67, 44
2, 264272, Note_on_c, 0, 70, 46
2, 264292, Note_on_c, 0, 67, 0
2, 264320, Note_on_c, 0, 63, 0
2, 264336, Note_on_c, 0, 55, 0
2, 264336, Note_on_c, 0, 55, 0
2, 264360, Note_on_c, 0, 58, 0
2, 264360, Note_on_c, 0, 58, 0
2, 264376, Note_on_c, 0, 51, 0
2, 264428, Note_on_c, 0, 67, 55
2, 264548, Note_on_c, 0, 67, 0
2, 264600, Note_on_c, 0, 63, 53
2, 264736, Note_on_c, 0, 61, 52
2, 264784, Note_on_c, 0, 63, 0
2, 264876, Note_on_c, 0, 58, 51
2, 264992, Note_on_c, 0, 58, 0
2, 265000, Note_on_c, 0, 55, 51
2, 265044, Note_on_c, 0, 49, 50
2, 265092, Note_on_c, 0, 72, 0
2, 265124, Note_on_c, 0, 55, 0
2, 265124, Note_on_c, 0, 61, 0
2, 265140, Note_on_c, 0, 49, 52
2, 265140, Note_on_c, 0, 70, 73
2, 265272, Note_on_c, 0, 70, 0
2, 265280, Note_on_c, 0, 49, 0
2, 265364, Note_on_c, 0, 67, 0
2, 265404, Note_on_c, 0, 49, 0
2, 265412, Note_on_c, 0, 48, 60
2, 265436, Note_on_c, 0, 75, 77
2, 265476, Control_c, 0, 64, 56
2, 265492, Control_c, 0, 64, 0
2, 265524, Note_on_c, 0, 70, 0
2, 265616, Note_on_c, 0, 51, 50
2, 265664, Control_c, 0, 64, 104
2, 265676, Control_c, 0, 64, 127
2, 265760, Note_on_c, 0, 56, 42
2, 265916, Note_on_c, 0, 60, 55
2, 265956, Note_on_c, 0, 48, 0
2, 266052, Note_on_c, 0, 63, 42
2, 266188, Note_on_c, 0, 51, 0
2, 266192, Note_on_c, 0, 68, 52
2, 266232, Note_on_c, 0, 63, 0
2, 266320, Note_on_c, 0, 68, 0
2, 266352, Note_on_c, 0, 72, 55
2, 266352, Note_on_c, 0, 75, 64
2, 266352, Note_on_c, 0, 68, 56
2, 266496, Note_on_c, 0, 68, 53
2, 266528, Note_on_c, 0, 60, 0
2, 266544, Note_on_c, 0, 56, 0
2, 266632, Note_on_c, 0, 63, 37
2, 266788, Note_on_c, 0, 60, 55
2, 266844, Note_on_c, 0, 72, 0
2, 266924, Note_on_c, 0, 60, 0
2, 266940, Note_on_c, 0, 56, 42
2, 267040, Note_on_c, 0, 63, 0
2, 267064, Note_on_c, 0, 68, 0
2, 267080, Note_on_c, 0, 56, 0
2, 267120, Note_on_c, 0, 48, 56
2, 267124, Note_on_c, 0, 75, 0
2, 267240, Note_on_c, 0, 48, 0
2, 267292, Note_on_c, 0, 68, 0
2, 267304, Note_on_c, 0, 51, 56
2, 267304, Note_on_c, 0, 75, 47
2, 267304, Note_on_c, 0, 54, 47
2, 267304, Note_on_c, 0, 69, 43
2, 267304, Note_on_c, 0, 57, 41
2, 267304, Note_on_c, 0, 66, 44
2, 267304, Note_on_c, 0, 48, 42
2, 267336, Note_on_c, 0, 75, 0
2, 267336, Note_on_c, 0, 75, 0
2, 267360, Note_on_c, 0, 54, 0
2, 267444, Control_c, 0, 64, 56
2, 267452, Note_on_c, 0, 54, 55
2, 267456, Control_c, 0, 64, 0
2, 267552, Control_c, 0, 64, 56
2, 267568, Control_c, 0, 64, 127
2, 267604, Note_on_c, 0, 57, 53
2, 267656, Note_on_c, 0, 51, 0
2, 267752, Note_on_c, 0, 60, 54
2, 267904, Note_on_c, 0, 63, 50
2, 268052, Note_on_c, 0, 66, 55
2, 268112, Note_on_c, 0, 63, 0
2, 268204, Note_on_c, 0, 66, 0
2, 268204, Note_on_c, 0, 69, 57
2, 268204, Note_on_c, 0, 73, 73
2, 268312, Note_on_c, 0, 60, 0
2, 268328, Note_on_c, 0, 48, 0
2, 268336, Note_on_c, 0, 54, 0
2, 268352, Note_on_c, 0, 66, 57
2, 268384, Note_on_c, 0, 57, 0
2, 268504, Note_on_c, 0, 63, 46
2, 268528, Note_on_c, 0, 66, 0
2, 268580, Note_on_c, 0, 69, 0
2, 268624, Note_on_c, 0, 63, 0
2, 268652, Note_on_c, 0, 60, 60
2, 268800, Note_on_c, 0, 57, 40
2, 268804, Note_on_c, 0, 60, 0
2, 268832, Note_on_c, 0, 69, 0
2, 268864, Note_on_c, 0, 66, 0
2, 268872, Note_on_c, 0, 73, 0
2, 268884, Note_on_c, 0, 72, 76
2, 268940, Note_on_c, 0, 51, 58
2, 269048, Note_on_c, 0, 57, 0
2, 269048, Note_on_c, 0, 57, 0
2, 269052, Note_on_c, 0, 51, 0
2, 269116, Note_on_c, 0, 49, 61
2, 269116, Note_on_c, 0, 77, 80
2, 269116, Note_on_c, 0, 58, 43
2, 269116, Note_on_c, 0, 70, 46
2, 269116, Note_on_c, 0, 65, 47
2, 269124, Note_on_c, 0, 72, 0
2, 269164, Control_c, 0, 64, 72
2, 269176, Control_c, 0, 64, 0
2, 269272, Note_on_c, 0, 53, 52
2, 269336, Control_c, 0, 64, 88
2, 269348, Control_c, 0, 64, 127
2, 269400, Note_on_c, 0, 58, 51
2, 269564, Note_on_c, 0, 61, 51
2, 269732, Note_on_c, 0, 65, 50
2, 269832, Note_on_c, 0, 65, 0
2, 269852, Note_on_c, 0, 70, 54
2, 270020, Note_on_c, 0, 61, 0
2, 270076, Note_on_c, 0, 70, 0
2, 270080, Note_on_c, 0, 77, 0
2, 270088, Note_on_c, 0, 73, 70
2, 270096, Note_on_c, 0, 70, 0
2, 270260, Note_on_c, 0, 65, 0
2, 270260, Note_on_c, 0, 65, 54
2, 270296, Note_on_c, 0, 58, 0
2, 270332, Note_on_c, 0, 53, 0
2, 270404, Note_on_c, 0, 49, 0
2, 270408, Note_on_c, 0, 61, 38
2, 270432, Note_on_c, 0, 58, 0
2, 270548, Note_on_c, 0, 58, 40
2, 270712, Note_on_c, 0, 58, 0
2, 270720, Note_on_c, 0, 53, 44
2, 270888, Note_on_c, 0, 53, 0
2, 270908, Note_on_c, 0, 49, 49
2, 270964, Note_on_c, 0, 49, 0
2, 270964, Note_on_c, 0, 61, 0
2, 270988, Note_on_c, 0, 65, 0
2, 271052, Note_on_c, 0, 73, 0
2, 271180, Note_on_c, 0, 39, 58
2, 271180, Note_on_c, 0, 73, 71
2, 271180, Note_on_c, 0, 63, 47
2, 271180, Note_on_c, 0, 67, 47
2, 271180, Note_on_c, 0, 61, 44
2, 271192, Control_c, 0, 64, 88
2, 271208, Control_c, 0, 64, 0
2, 271292, Note_on_c, 0, 39, 0
2, 271296, Control_c, 0, 64, 72
2, 271316, Control_c, 0, 64, 127
2, 271340, Note_on_c, 0, 49, 50
2, 271448, Note_on_c, 0, 49, 0
2, 271500, Note_on_c, 0, 51, 51
2, 271636, Note_on_c, 0, 51, 0
2, 271660, Note_on_c, 0, 55, 52
2, 271712, Note_on_c, 0, 55, 0
2, 271820, Note_on_c, 0, 58, 53
2, 271972, Note_on_c, 0, 58, 0
2, 272012, Note_on_c, 0, 61, 54
2, 272116, Note_on_c, 0, 61, 0
2, 272124, Note_on_c, 0, 73, 0
2, 272172, Note_on_c, 0, 63, 54
2, 272332, Note_on_c, 0, 67, 55
2, 272348, Note_on_c, 0, 63, 0
2, 272416, Note_on_c, 0, 67, 0
2, 272492, Note_on_c, 0, 72, 71
2, 272652, Note_on_c, 0, 67, 53
2, 272744, Note_on_c, 0, 67, 0
2, 272812, Note_on_c, 0, 63, 52
2, 272972, Note_on_c, 0, 61, 50
2, 272976, Note_on_c, 0, 63, 0
2, 273132, Note_on_c, 0, 58, 48
2, 273136, Note_on_c, 0, 61, 0
2, 273200, Note_on_c, 0, 63, 0
2, 273232, Note_on_c, 0, 67, 0
2, 273232, Note_on_c, 0, 58, 0
2, 273260, Note_on_c, 0, 61, 0
2, 273292, Note_on_c, 0, 55, 47
2, 273464, Note_on_c, 0, 72, 0
2, 273464, Note_on_c, 0, 70, 62
2, 273476, Note_on_c, 0, 51, 46
2, 273516, Note_on_c, 0, 55, 0
2, 273696, Note_on_c, 0, 70, 0
2, 273744, Note_on_c, 0, 51, 0
2, 273920, Note_on_c, 0, 51, 81
2, 273920, Note_on_c, 0, 44, 79
2, 273920, Note_on_c, 0, 60, 94
2, 273920, Note_on_c, 0, 56, 87
2, 273920, Note_on_c, 0, 63, 84
2, 273920, Note_on_c, 0, 68, 93
2, 273920, Note_on_c, 0, 32, 80
2, 273928, Control_c, 0, 64, 72
2, 273936, Control_c, 0, 64, 127
2, 273940, Note_on_c, 0, 63, 0
2, 273944, Note_on_c, 0, 60, 0
2, 273944, Note_on_c, 0, 44, 0
2, 273948, Note_on_c, 0, 56, 0
2, 273960, Note_on_c, 0, 51, 0
2, 273964, Note_on_c, 0, 68, 0
2, 274140, Note_on_c, 0, 91, 94
2, 274140, Note_on_c, 0, 67, 80
2, 274140, Note_on_c, 0, 79, 87
2, 274168, Note_on_c, 0, 79, 0
2, 274172, Note_on_c, 0, 91, 0
2, 274176, Note_on_c, 0, 32, 0
2, 274180, Note_on_c, 0, 67, 0
2, 274216, Note_on_c, 0, 92, 105
2, 274216, Note_on_c, 0, 80, 99
2, 274216, Note_on_c, 0, 68, 89
2, 274372, Note_on_c, 0, 68, 0
2, 274372, Note_on_c, 0, 80, 0
2, 274380, Note_on_c, 0, 92, 0
2, 274672, Note_on_c, 0, 86, 90
2, 274672, Note_on_c, 0, 62, 74
2, 274672, Note_on_c, 0, 74, 82
2, 274700, Note_on_c, 0, 74, 0
2, 274704, Note_on_c, 0, 86, 0
2, 274716, Note_on_c, 0, 62, 0
2, 274740, Note_on_c, 0, 75, 87
2, 274740, Note_on_c, 0, 87, 96
2, 274740, Note_on_c, 0, 63, 90
2, 274740, Control_c, 0, 64, 72
2, 274748, Control_c, 0, 64, 40
2, 274756, Control_c, 0, 64, 56
2, 274764, Control_c, 0, 64, 104
2, 274768, Note_on_c, 0, 63, 0
2, 274768, Note_on_c, 0, 75, 0
2, 274772, Note_on_c, 0, 87, 0
2, 274772, Control_c, 0, 64, 127
2, 274944, Note_on_c, 0, 83, 94
2, 274944, Note_on_c, 0, 71, 85
2, 274944, Note_on_c, 0, 59, 63
2, 274964, Note_on_c, 0, 71, 0
2, 274964, Note_on_c, 0, 83, 0
2, 274984, Note_on_c, 0, 59, 0
2, 275004, Control_c, 0, 64, 56
2, 275008, Note_on_c, 0, 84, 99
2, 275008, Note_on_c, 0, 72, 97
2, 275008, Note_on_c, 0, 60, 68
2, 275012, Control_c, 0, 64, 0
2, 275032, Note_on_c, 0, 72, 0
2, 275036, Control_c, 0, 64, 40
2, 275044, Note_on_c, 0, 84, 0
2, 275044, Control_c, 0, 64, 104
2, 275052, Control_c, 0, 64, 127
2, 275092, Note_on_c, 0, 60, 0
2, 275220, Note_on_c, 0, 79, 88
2, 275220, Note_on_c, 0, 55, 68
2, 275220, Note_on_c, 0, 67, 80
2, 275240, Note_on_c, 0, 79, 0
2, 275244, Note_on_c, 0, 67, 0
2, 275268, Note_on_c, 0, 55, 0
2, 275276, Control_c, 0, 64, 56
2, 275284, Note_on_c, 0, 80, 97
2, 275284, Note_on_c, 0, 68, 85
2, 275284, Note_on_c, 0, 56, 86
2, 275284, Control_c, 0, 64, 0
2, 275304, Control_c, 0, 64, 40
2, 275312, Control_c, 0, 64, 104
2, 275320, Note_on_c, 0, 68, 0
2, 275320, Note_on_c, 0, 80, 0
2, 275320, Control_c, 0, 64, 127
2, 275328, Note_on_c, 0, 56, 0
2, 275496, Note_on_c, 0, 62, 72
2, 275496, Note_on_c, 0, 50, 74
2, 275496, Note_on_c, 0, 74, 85
2, 275508, Note_on_c, 0, 62, 0
2, 275524, Note_on_c, 0, 74, 0
2, 275548, Note_on_c, 0, 50, 0
2, 275552, Control_c, 0, 64, 72
2, 275556, Note_on_c, 0, 75, 95
2, 275556, Note_on_c, 0, 63, 81
2, 275556, Note_on_c, 0, 51, 84
2, 275560, Control_c, 0, 64, 24
2, 275568, Control_c, 0, 64, 0
2, 275584, Note_on_c, 0, 63, 0
2, 275588, Note_on_c, 0, 75, 0
2, 275592, Control_c, 0, 64, 88
2, 275600, Control_c, 0, 64, 127
2, 275668, Note_on_c, 0, 51, 0
2, 275748, Note_on_c, 0, 71, 81
2, 275748, Note_on_c, 0, 47, 56
2, 275748, Note_on_c, 0, 59, 68
2, 275768, Note_on_c, 0, 59, 0
2, 275776, Note_on_c, 0, 71, 0
2, 275808, Control_c, 0, 64, 104
2, 275812, Note_on_c, 0, 72, 90
2, 275812, Note_on_c, 0, 60, 85
2, 275812, Note_on_c, 0, 48, 74
2, 275816, Control_c, 0, 64, 40
2, 275820, Note_on_c, 0, 47, 0
2, 275820, Control_c, 0, 64, 0
2, 275840, Control_c, 0, 64, 24
2, 275844, Note_on_c, 0, 48, 0
2, 275848, Control_c, 0, 64, 72
2, 275856, Note_on_c, 0, 72, 0
2, 275856, Control_c, 0, 64, 127
2, 275884, Note_on_c, 0, 60, 0
2, 276008, Note_on_c, 0, 51, 79
2, 276008, Note_on_c, 0, 63, 84
2, 276008, Note_on_c, 0, 39, 80
2, 276036, Note_on_c, 0, 39, 0
2, 276036, Note_on_c, 0, 51, 0
2, 276056, Note_on_c, 0, 63, 0
2, 276076, Control_c, 0, 64, 72
2, 276080, Note_on_c, 0, 68, 97
2, 276080, Note_on_c, 0, 60, 87
2, 276080, Note_on_c, 0, 63, 70
2, 276080, Note_on_c, 0, 56, 87
2, 276080, Note_on_c, 0, 44, 73
2, 276088, Control_c, 0, 64, 0
2, 276128, Control_c, 0, 64, 88
2, 276136, Control_c, 0, 64, 127
2, 276164, Note_on_c, 0, 56, 0
2, 276164, Note_on_c, 0, 63, 0
2, 276164, Note_on_c, 0, 60, 0
2, 276184, Note_on_c, 0, 68, 0
2, 276188, Note_on_c, 0, 44, 0
2, 276284, Note_on_c, 0, 77, 90
2, 276284, Note_on_c, 0, 65, 85
2, 276328, Note_on_c, 0, 77, 0
2, 276332, Note_on_c, 0, 65, 0
2, 276352, Note_on_c, 0, 78, 100
2, 276352, Note_on_c, 0, 66, 90
2, 276428, Control_c, 0, 64, 72
2, 276436, Control_c, 0, 64, 24
2, 276444, Control_c, 0, 64, 0
2, 276460, Control_c, 0, 64, 40
2, 276468, Control_c, 0, 64, 104
2, 276476, Control_c, 0, 64, 127
2, 276616, Note_on_c, 0, 78, 0
2, 276668, Note_on_c, 0, 66, 0
2, 276792, Note_on_c, 0, 74, 81
2, 276792, Note_on_c, 0, 62, 79
2, 276840, Note_on_c, 0, 62, 0
2, 276840, Note_on_c, 0, 74, 0
2, 276848, Note_on_c, 0, 75, 92
2, 276848, Note_on_c, 0, 63, 84
2, 276848, Control_c, 0, 64, 72
2, 276852, Control_c, 0, 64, 0
2, 276888, Note_on_c, 0, 63, 0
2, 276888, Control_c, 0, 64, 56
2, 276892, Control_c, 0, 64, 127
2, 276896, Note_on_c, 0, 75, 0
2, 277040, Note_on_c, 0, 71, 84
2, 277040, Note_on_c, 0, 59, 69
2, 277076, Note_on_c, 0, 59, 0
2, 277084, Note_on_c, 0, 71, 0
2, 277104, Note_on_c, 0, 60, 85
2, 277104, Note_on_c, 0, 72, 102
2, 277104, Control_c, 0, 64, 104
2, 277112, Control_c, 0, 64, 40
2, 277120, Control_c, 0, 64, 0
2, 277148, Note_on_c, 0, 72, 0
2, 277148, Control_c, 0, 64, 56
2, 277156, Control_c, 0, 64, 127
2, 277164, Note_on_c, 0, 60, 0
2, 277308, Note_on_c, 0, 65, 84
2, 277308, Note_on_c, 0, 53, 76
2, 277352, Note_on_c, 0, 65, 0
2, 277356, Note_on_c, 0, 53, 0
2, 277364, Note_on_c, 0, 66, 84
2, 277364, Control_c, 0, 64, 0
2, 277364, Control_c, 0, 64, 56
2, 277368, Note_on_c, 0, 54, 79
2, 277404, Control_c, 0, 64, 40
2, 277412, Control_c, 0, 64, 104
2, 277420, Note_on_c, 0, 66, 0
2, 277420, Control_c, 0, 64, 127
2, 277436, Note_on_c, 0, 54, 0
2, 277568, Note_on_c, 0, 50, 80
2, 277568, Note_on_c, 0, 62, 81
2, 277612, Note_on_c, 0, 62, 0
2, 277612, Note_on_c, 0, 50, 0
2, 277628, Note_on_c, 0, 63, 79
2, 277628, Note_on_c, 0, 51, 87
2, 277628, Control_c, 0, 64, 104
2, 277636, Control_c, 0, 64, 56
2, 277644, Control_c, 0, 64, 0
2, 277692, Control_c, 0, 64, 72
2, 277696, Control_c, 0, 64, 127
2, 277716, Note_on_c, 0, 63, 0
2, 277740, Note_on_c, 0, 51, 0
2, 277828, Note_on_c, 0, 59, 79
2, 277828, Note_on_c, 0, 47, 69
2, 277880, Note_on_c, 0, 59, 0
2, 277892, Note_on_c, 0, 47, 0
2, 277892, Note_on_c, 0, 60, 92
2, 277892, Note_on_c, 0, 48, 75
2, 277932, Note_on_c, 0, 60, 0
2, 277944, Note_on_c, 0, 48, 0
2, 278068, Note_on_c, 0, 42, 69
2, 278068, Note_on_c, 0, 54, 82
2, 278100, Note_on_c, 0, 42, 0
2, 278104, Note_on_c, 0, 54, 0
2, 278132, Control_c, 0, 64, 104
2, 278140, Control_c, 0, 64, 40
2, 278148, Note_on_c, 0, 65, 96
2, 278148, Note_on_c, 0, 53, 102
2, 278148, Note_on_c, 0, 63, 83
2, 278148, Note_on_c, 0, 60, 83
2, 278148, Note_on_c, 0, 45, 102
2, 278148, Note_on_c, 0, 33, 88
2, 278148, Control_c, 0, 64, 0
2, 278172, Note_on_c, 0, 53, 0
2, 278180, Note_on_c, 0, 45, 0
2, 278180, Note_on_c, 0, 60, 0
2, 278188, Note_on_c, 0, 33, 0
2, 278188, Control_c, 0, 64, 88
2, 278196, Note_on_c, 0, 63, 0
2, 278196, Control_c, 0, 64, 127
2, 278204, Note_on_c, 0, 65, 0
2, 278348, Note_on_c, 0, 88, 90
2, 278352, Note_on_c, 0, 76, 81
2, 278364, Note_on_c, 0, 64, 77
2, 278376, Note_on_c, 0, 76, 0
2, 278388, Note_on_c, 0, 88, 0
2, 278404, Note_on_c, 0, 64, 0
2, 278416, Note_on_c, 0, 89, 107
2, 278416, Note_on_c, 0, 65, 79
2, 278416, Note_on_c, 0, 77, 100
2, 278664, Note_on_c, 0, 89, 0
2, 278672, Note_on_c, 0, 77, 0
2, 278704, Note_on_c, 0, 65, 0
2, 278860, Note_on_c, 0, 83, 88
2, 278860, Note_on_c, 0, 71, 75
2, 278860, Note_on_c, 0, 59, 69
2, 278884, Note_on_c, 0, 71, 0
2, 278888, Note_on_c, 0, 83, 0
2, 278896, Note_on_c, 0, 59, 0
2, 278928, Note_on_c, 0, 84, 93
2, 278928, Note_on_c, 0, 72, 85
2, 278928, Note_on_c, 0, 60, 71
2, 278940, Control_c, 0, 64, 88
2, 278948, Control_c, 0, 64, 56
2, 278952, Control_c, 0, 64, 72
2, 278960, Note_on_c, 0, 72, 0
2, 278960, Control_c, 0, 64, 127
2, 278968, Note_on_c, 0, 84, 0
2, 279004, Note_on_c, 0, 60, 0
2, 279120, Note_on_c, 0, 68, 76
2, 279120, Note_on_c, 0, 80, 82
2, 279120, Note_on_c, 0, 56, 71
2, 279148, Note_on_c, 0, 68, 0
2, 279160, Note_on_c, 0, 80, 0
2, 279168, Note_on_c, 0, 56, 0
2, 279188, Note_on_c, 0, 81, 97
2, 279188, Note_on_c, 0, 69, 84
2, 279188, Note_on_c, 0, 57, 73
2, 279192, Control_c, 0, 64, 88
2, 279200, Control_c, 0, 64, 72
2, 279208, Control_c, 0, 64, 88
2, 279216, Control_c, 0, 64, 127
2, 279224, Note_on_c, 0, 69, 0
2, 279232, Note_on_c, 0, 81, 0
2, 279308, Note_on_c, 0, 57, 0
2, 279380, Note_on_c, 0, 76, 87
2, 279380, Note_on_c, 0, 64, 73
2, 279380, Note_on_c, 0, 52, 72
2, 279408, Note_on_c, 0, 76, 0
2, 279416, Note_on_c, 0, 64, 0
2, 279444, Note_on_c, 0, 77, 92
2, 279444, Note_on_c, 0, 65, 74
2, 279444, Note_on_c, 0, 53, 75
2, 279444, Control_c, 0, 64, 72
2, 279448, Note_on_c, 0, 52, 0
2, 279456, Control_c, 0, 64, 40
2, 279476, Note_on_c, 0, 53, 0
2, 279476, Note_on_c, 0, 65, 0
2, 279480, Control_c, 0, 64, 127
2, 279484, Note_on_c, 0, 77, 0
2, 279636, Note_on_c, 0, 71, 80
2, 279636, Note_on_c, 0, 59, 70
2, 279636, Note_on_c, 0, 47, 69
2, 279648, Note_on_c, 0, 59, 0
2, 279664, Note_on_c, 0, 71, 0
2, 279688, Control_c, 0, 64, 72
2, 279692, Note_on_c, 0, 72, 92
2, 279696, Note_on_c, 0, 60, 80
2, 279696, Control_c, 0, 64, 24
2, 279704, Note_on_c, 0, 47, 0
2, 279704, Note_on_c, 0, 48, 74
2, 279720, Control_c, 0, 64, 127
2, 279732, Note_on_c, 0, 60, 0
2, 279736, Note_on_c, 0, 72, 0
2, 279748, Note_on_c, 0, 48, 0
2, 279764, Note_on_c, 0, 48, 24
2, 279848, Note_on_c, 0, 48, 0
2, 279892, Note_on_c, 0, 68, 75
2, 279896, Note_on_c, 0, 56, 62
2, 279904, Note_on_c, 0, 44, 56
2, 279924, Note_on_c, 0, 56, 0
2, 279928, Note_on_c, 0, 68, 0
2, 279952, Control_c, 0, 64, 72
2, 279956, Note_on_c, 0, 69, 90
2, 279960, Note_on_c, 0, 57, 70
2, 279960, Control_c, 0, 64, 24
2, 279968, Note_on_c, 0, 44, 0
2, 279972, Note_on_c, 0, 45, 73
2, 279976, Note_on_c, 0, 57, 0
2, 279984, Control_c, 0, 64, 104
2, 279988, Note_on_c, 0, 69, 0
2, 279992, Control_c, 0, 64, 127
2, 280088, Note_on_c, 0, 45, 0
2, 280136, Note_on_c, 0, 41, 46
2, 280144, Note_on_c, 0, 65, 75
2, 280148, Note_on_c, 0, 53, 44
2, 280152, Note_on_c, 0, 41, 0
2, 280168, Note_on_c, 0, 53, 0
2, 280172, Note_on_c, 0, 65, 0
2, 280224, Control_c, 0, 64, 88
2, 280228, Note_on_c, 0, 56, 85
2, 280228, Note_on_c, 0, 68, 89
2, 280232, Note_on_c, 0, 65, 74
2, 280232, Control_c, 0, 64, 0
2, 280236, Note_on_c, 0, 62, 77
2, 280240, Note_on_c, 0, 46, 86
2, 280240, Note_on_c, 0, 34, 83
2, 280252, Note_on_c, 0, 56, 0
2, 280260, Note_on_c, 0, 65, 0
2, 280260, Control_c, 0, 64, 72
2, 280268, Note_on_c, 0, 34, 0
2, 280272, Note_on_c, 0, 46, 0
2, 280272, Control_c, 0, 64, 127
2, 280280, Note_on_c, 0, 62, 0
2, 280280, Note_on_c, 0, 68, 0
2, 280424, Note_on_c, 0, 79, 88
2, 280432, Note_on_c, 0, 67, 69
2, 280468, Note_on_c, 0, 79, 0
2, 280472, Note_on_c, 0, 67, 0
2, 280496, Note_on_c, 0, 80, 97
2, 280500, Note_on_c, 0, 68, 82
2, 280588, Control_c, 0, 64, 104
2, 280596, Control_c, 0, 64, 88
2, 280604, Control_c, 0, 64, 104
2, 280612, Control_c, 0, 64, 127
2, 280768, Note_on_c, 0, 68, 0
2, 280768, Note_on_c, 0, 80, 0
2, 280928, Note_on_c, 0, 76, 88
2, 280932, Note_on_c, 0, 64, 74
2, 280972, Note_on_c, 0, 64, 0
2, 280976, Note_on_c, 0, 76, 0
2, 280996, Note_on_c, 0, 77, 92
2, 281000, Note_on_c, 0, 65, 74
2, 281016, Control_c, 0, 64, 72
2, 281020, Control_c, 0, 64, 56
2, 281036, Control_c, 0, 64, 104
2, 281044, Control_c, 0, 64, 127
2, 281056, Note_on_c, 0, 77, 0
2, 281068, Note_on_c, 0, 65, 0
2, 281196, Note_on_c, 0, 73, 81
2, 281204, Note_on_c, 0, 61, 59
2, 281240, Note_on_c, 0, 61, 0
2, 281248, Note_on_c, 0, 73, 0
2, 281260, Note_on_c, 0, 74, 92
2, 281264, Note_on_c, 0, 62, 81
2, 281268, Control_c, 0, 64, 72
2, 281276, Control_c, 0, 64, 56
2, 281284, Control_c, 0, 64, 88
2, 281292, Control_c, 0, 64, 127
2, 281320, Note_on_c, 0, 74, 0
2, 281348, Note_on_c, 0, 62, 0
2, 281460, Note_on_c, 0, 67, 82
2, 281464, Note_on_c, 0, 55, 70
2, 281504, Note_on_c, 0, 67, 0
2, 281508, Control_c, 0, 64, 104
2, 281512, Note_on_c, 0, 55, 0
2, 281516, Control_c, 0, 64, 40
2, 281520, Note_on_c, 0, 68, 86
2, 281524, Control_c, 0, 64, 0
2, 281532, Note_on_c, 0, 56, 86
2, 281532, Control_c, 0, 64, 24
2, 281540, Control_c, 0, 64, 72
2, 281548, Control_c, 0, 64, 127
2, 281572, Note_on_c, 0, 68, 0
2, 281620, Note_on_c, 0, 56, 0
2, 281720, Note_on_c, 0, 64, 85
2, 281728, Note_on_c, 0, 52, 66
2, 281760, Note_on_c, 0, 52, 0
2, 281764, Note_on_c, 0, 64, 0
2, 281772, Control_c, 0, 64, 56
2, 281780, Control_c, 0, 64, 0
2, 281784, Note_on_c, 0, 65, 86
2, 281788, Note_on_c, 0, 53, 72
2, 281812, Control_c, 0, 64, 88
2, 281820, Control_c, 0, 64, 127
2, 281828, Note_on_c, 0, 65, 0
2, 281872, Note_on_c, 0, 53, 0
2, 281964, Note_on_c, 0, 61, 78
2, 281964, Note_on_c, 0, 49, 62
2, 282008, Note_on_c, 0, 49, 0
2, 282008, Note_on_c, 0, 61, 0
2, 282020, Control_c, 0, 64, 56
2, 282024, Note_on_c, 0, 62, 87
2, 282028, Control_c, 0, 64, 40
2, 282032, Note_on_c, 0, 50, 66
2, 282036, Control_c, 0, 64, 72
2, 282044, Control_c, 0, 64, 127
2, 282104, Note_on_c, 0, 62, 0
2, 282140, Note_on_c, 0, 50, 0
2, 282204, Note_on_c, 0, 56, 80
2, 282204, Note_on_c, 0, 44, 79
2, 282248, Note_on_c, 0, 56, 0
2, 282252, Note_on_c, 0, 44, 0
2, 282300, Note_on_c, 0, 67, 94
2, 282300, Control_c, 0, 64, 72
2, 282308, Note_on_c, 0, 62, 88
2, 282308, Note_on_c, 0, 43, 85
2, 282308, Note_on_c, 0, 35, 85
2, 282308, Note_on_c, 0, 55, 92
2, 282308, Note_on_c, 0, 65, 74
2, 282308, Control_c, 0, 64, 0
2, 282340, Note_on_c, 0, 65, 0
2, 282340, Control_c, 0, 64, 72
2, 282348, Control_c, 0, 64, 127
2, 282404, Note_on_c, 0, 43, 0
2, 282412, Note_on_c, 0, 35, 0
2, 282424, Note_on_c, 0, 62, 0
2, 282428, Note_on_c, 0, 55, 0
2, 282432, Note_on_c, 0, 67, 0
2, 282496, Note_on_c, 0, 90, 84
2, 282500, Note_on_c, 0, 78, 81
2, 282500, Note_on_c, 0, 66, 62
2, 282528, Note_on_c, 0, 78, 0
2, 282536, Note_on_c, 0, 66, 0
2, 282536, Note_on_c, 0, 90, 0
2, 282564, Note_on_c, 0, 91, 103
2, 282568, Note_on_c, 0, 79, 85
2, 282572, Note_on_c, 0, 67, 65
2, 282760, Note_on_c, 0, 91, 0
2, 282792, Note_on_c, 0, 79, 0
2, 282948, Note_on_c, 0, 67, 0
2, 282960, Note_on_c, 0, 85, 86
2, 282964, Note_on_c, 0, 73, 76
2, 282964, Note_on_c, 0, 61, 57
2, 282996, Note_on_c, 0, 73, 0
2, 283004, Note_on_c, 0, 85, 0
2, 283028, Note_on_c, 0, 86, 90
2, 283032, Note_on_c, 0, 61, 0
2, 283032, Note_on_c, 0, 74, 79
2, 283044, Note_on_c, 0, 62, 68
2, 283060, Note_on_c, 0, 74, 0
2, 283064, Note_on_c, 0, 86, 0
2, 283160, Note_on_c, 0, 62, 0
2, 283176, Note_on_c, 0, 59, 48
2, 283184, Note_on_c, 0, 83, 80
2, 283188, Note_on_c, 0, 59, 0
2, 283192, Note_on_c, 0, 71, 52
2, 283208, Note_on_c, 0, 71, 0
2, 283208, Note_on_c, 0, 83, 0
2, 283292, Note_on_c, 0, 63, 84
2, 283296, Note_on_c, 0, 68, 90
2, 283296, Note_on_c, 0, 51, 77
2, 283296, Note_on_c, 0, 60, 86
2, 283296, Note_on_c, 0, 56, 78
2, 283296, Note_on_c, 0, 48, 80
2, 283300, Control_c, 0, 64, 56
2, 283308, Control_c, 0, 64, 0
2, 283320, Note_on_c, 0, 63, 0
2, 283328, Note_on_c, 0, 56, 0
2, 283328, Control_c, 0, 64, 40
2, 283332, Note_on_c, 0, 68, 0
2, 283332, Note_on_c, 0, 48, 0
2, 283336, Note_on_c, 0, 51, 0
2, 283336, Control_c, 0, 64, 127
2, 283348, Note_on_c, 0, 60, 0
2, 283472, Note_on_c, 0, 79, 86
2, 283484, Note_on_c, 0, 67, 74
2, 283512, Note_on_c, 0, 79, 0
2, 283520, Note_on_c, 0, 67, 0
2, 283536, Note_on_c, 0, 80, 97
2, 283548, Note_on_c, 0, 68, 84
2, 283720, Note_on_c, 0, 68, 0
2, 283720, Note_on_c, 0, 80, 0
2, 283936, Note_on_c, 0, 62, 75
2, 283936, Note_on_c, 0, 74, 85
2, 283976, Note_on_c, 0, 62, 0
2, 283992, Note_on_c, 0, 74, 0
2, 284016, Note_on_c, 0, 75, 89
2, 284016, Note_on_c, 0, 63, 78
2, 284044, Control_c, 0, 64, 88
2, 284052, Control_c, 0, 64, 56
2, 284056, Control_c, 0, 64, 88
2, 284064, Control_c, 0, 64, 127
2, 284088, Note_on_c, 0, 75, 0
2, 284112, Note_on_c, 0, 63, 0
2, 284180, Note_on_c, 0, 72, 89
2, 284180, Note_on_c, 0, 60, 75
2, 284220, Note_on_c, 0, 60, 0
2, 284220, Note_on_c, 0, 72, 0
2, 284284, Note_on_c, 0, 83, 103
2, 284288, Note_on_c, 0, 71, 86
2, 284288, Note_on_c, 0, 77, 87
2, 284288, Note_on_c, 0, 59, 80
2, 284292, Note_on_c, 0, 50, 71
2, 284292, Note_on_c, 0, 53, 75
2, 284296, Control_c, 0, 64, 56
2, 284308, Control_c, 0, 64, 0
2, 284328, Note_on_c, 0, 77, 0
2, 284328, Control_c, 0, 64, 72
2, 284332, Note_on_c, 0, 71, 0
2, 284332, Note_on_c, 0, 50, 0
2, 284332, Note_on_c, 0, 53, 0
2, 284336, Control_c, 0, 64, 127
2, 284344, Note_on_c, 0, 59, 0
2, 284352, Note_on_c, 0, 83, 0
2, 284440, Note_on_c, 0, 82, 76
2, 284440, Note_on_c, 0, 94, 90
2, 284440, Note_on_c, 0, 70, 70
2, 284480, Note_on_c, 0, 82, 0
2, 284484, Note_on_c, 0, 70, 0
2, 284484, Note_on_c, 0, 94, 0
2, 284532, Note_on_c, 0, 95, 105
2, 284532, Note_on_c, 0, 71, 83
2, 284532, Note_on_c, 0, 83, 87
2, 284716, Note_on_c, 0, 95, 0
2, 284728, Note_on_c, 0, 83, 0
2, 284800, Note_on_c, 0, 71, 0
2, 284912, Note_on_c, 0, 76, 80
2, 284912, Note_on_c, 0, 88, 86
2, 284920, Note_on_c, 0, 64, 62
2, 284940, Note_on_c, 0, 76, 0
2, 284944, Note_on_c, 0, 88, 0
2, 284964, Note_on_c, 0, 64, 0
2, 284980, Note_on_c, 0, 89, 94
2, 284984, Note_on_c, 0, 77, 87
2, 284996, Note_on_c, 0, 65, 64
2, 285008, Note_on_c, 0, 89, 0
2, 285012, Note_on_c, 0, 77, 0
2, 285116, Note_on_c, 0, 65, 0
2, 285148, Note_on_c, 0, 86, 87
2, 285148, Note_on_c, 0, 74, 81
2, 285148, Note_on_c, 0, 62, 70
2, 285164, Note_on_c, 0, 62, 0
2, 285168, Note_on_c, 0, 74, 0
2, 285180, Note_on_c, 0, 86, 0
2, 285252, Note_on_c, 0, 72, 110
2, 285256, Note_on_c, 0, 67, 86
2, 285260, Note_on_c, 0, 60, 92
2, 285260, Note_on_c, 0, 55, 77
2, 285260, Control_c, 0, 64, 40
2, 285268, Control_c, 0, 64, 0
2, 285272, Note_on_c, 0, 51, 53
2, 285292, Note_on_c, 0, 67, 0
2, 285296, Control_c, 0, 64, 40
2, 285304, Control_c, 0, 64, 127
2, 285308, Note_on_c, 0, 55, 0
2, 285316, Note_on_c, 0, 72, 0
2, 285316, Note_on_c, 0, 60, 0
2, 285320, Note_on_c, 0, 51, 0
2, 285456, Note_on_c, 0, 83, 94
2, 285456, Note_on_c, 0, 71, 77
2, 285484, Note_on_c, 0, 83, 0
2, 285488, Note_on_c, 0, 71, 0
2, 285540, Note_on_c, 0, 84, 98
2, 285540, Note_on_c, 0, 72, 92
2, 285752, Note_on_c, 0, 84, 0
2, 285776, Note_on_c, 0, 72, 0
2, 285896, Note_on_c, 0, 66, 78
2, 285896, Note_on_c, 0, 78, 88
2, 285928, Note_on_c, 0, 78, 0
2, 285956, Note_on_c, 0, 66, 0
2, 285976, Note_on_c, 0, 79, 90
2, 285976, Note_on_c, 0, 67, 75
2, 286004, Note_on_c, 0, 79, 0
2, 286124, Note_on_c, 0, 67, 0
2, 286156, Note_on_c, 0, 63, 72
2, 286156, Note_on_c, 0, 75, 88
2, 286188, Note_on_c, 0, 75, 0
2, 286188, Note_on_c, 0, 63, 0
2, 286296, Note_on_c, 0, 73, 95
2, 286300, Note_on_c, 0, 85, 95
2, 286300, Note_on_c, 0, 80, 69
2, 286300, Note_on_c, 0, 53, 80
2, 286300, Note_on_c, 0, 56, 74
2, 286300, Note_on_c, 0, 61, 73
2, 286300, Note_on_c, 0, 41, 78
2, 286312, Control_c, 0, 64, 40
2, 286320, Control_c, 0, 64, 0
2, 286332, Note_on_c, 0, 73, 0
2, 286352, Control_c, 0, 64, 56
2, 286360, Control_c, 0, 64, 127
2, 286448, Control_c, 0, 64, 88
2, 286460, Note_on_c, 0, 80, 0
2, 286464, Note_on_c, 0, 84, 92
2, 286464, Note_on_c, 0, 60, 66
2, 286464, Note_on_c, 0, 72, 80
2, 286464, Control_c, 0, 64, 72
2, 286468, Note_on_c, 0, 61, 0
2, 286472, Note_on_c, 0, 85, 0
2, 286476, Note_on_c, 0, 53, 0
2, 286480, Note_on_c, 0, 56, 0
2, 286488, Control_c, 0, 64, 40
2, 286496, Note_on_c, 0, 72, 0
2, 286496, Control_c, 0, 64, 104
2, 286500, Control_c, 0, 64, 127
2, 286512, Note_on_c, 0, 84, 0
2, 286548, Note_on_c, 0, 60, 0
2, 286588, Note_on_c, 0, 73, 84
2, 286588, Note_on_c, 0, 85, 95
2, 286588, Note_on_c, 0, 61, 65
2, 286608, Note_on_c, 0, 73, 0
2, 286612, Note_on_c, 0, 61, 0
2, 286616, Note_on_c, 0, 85, 0
2, 286700, Note_on_c, 0, 92, 103
2, 286700, Note_on_c, 0, 80, 87
2, 286700, Note_on_c, 0, 68, 77
2, 286736, Note_on_c, 0, 80, 0
2, 286740, Note_on_c, 0, 92, 0
2, 286792, Note_on_c, 0, 68, 0
2, 286824, Note_on_c, 0, 66, 73
2, 286824, Note_on_c, 0, 78, 88
2, 286824, Note_on_c, 0, 90, 96
2, 286884, Note_on_c, 0, 90, 0
2, 286884, Note_on_c, 0, 78, 0
2, 286916, Note_on_c, 0, 66, 0
2, 286932, Note_on_c, 0, 89, 92
2, 286932, Note_on_c, 0, 77, 84
2, 286936, Note_on_c, 0, 65, 74
2, 286940, Note_on_c, 0, 41, 0
2, 286980, Note_on_c, 0, 89, 0
2, 286980, Note_on_c, 0, 77, 0
2, 287028, Note_on_c, 0, 65, 0
2, 287040, Note_on_c, 0, 88, 94
2, 287040, Note_on_c, 0, 64, 68
2, 287044, Note_on_c, 0, 76, 83
2, 287064, Note_on_c, 0, 76, 0
2, 287080, Note_on_c, 0, 88, 0
2, 287124, Note_on_c, 0, 64, 0
2, 287148, Note_on_c, 0, 89, 99
2, 287148, Note_on_c, 0, 77, 90
2, 287148, Note_on_c, 0, 65, 65
2, 287180, Note_on_c, 0, 77, 0
2, 287180, Note_on_c, 0, 89, 0
2, 287236, Note_on_c, 0, 65, 0
2, 287260, Note_on_c, 0, 63, 73
2, 287260, Note_on_c, 0, 75, 90
2, 287260, Note_on_c, 0, 87, 96
2, 287264, Control_c, 0, 64, 56
2, 287272, Control_c, 0, 64, 0
2, 287292, Control_c, 0, 64, 56
2, 287296, Control_c, 0, 64, 127
2, 287324, Note_on_c, 0, 75, 0
2, 287332, Note_on_c, 0, 87, 0
2, 287360, Note_on_c, 0, 63, 0
2, 287364, Note_on_c, 0, 85, 85
2, 287364, Note_on_c, 0, 73, 81
2, 287368, Note_on_c, 0, 61, 56
2, 287416, Note_on_c, 0, 73, 0
2, 287416, Note_on_c, 0, 85, 0
2, 287460, Note_on_c, 0, 61, 0
2, 287468, Note_on_c, 0, 84, 92
2, 287472, Note_on_c, 0, 72, 79
2, 287472, Note_on_c, 0, 60, 61
2, 287496, Note_on_c, 0, 72, 0
2, 287504, Note_on_c, 0, 84, 0
2, 287560, Note_on_c, 0, 60, 0
2, 287576, Note_on_c, 0, 61, 68
2, 287580, Note_on_c, 0, 85, 77
2, 287584, Note_on_c, 0, 73, 77
2, 287600, Note_on_c, 0, 61, 0
2, 287604, Note_on_c, 0, 85, 0
2, 287608, Note_on_c, 0, 73, 0
2, 287692, Note_on_c, 0, 78, 95
2, 287692, Note_on_c, 0, 66, 82
2, 287692, Note_on_c, 0, 54, 78
2, 287696, Control_c, 0, 64, 72
2, 287704, Control_c, 0, 64, 24
2, 287708, Control_c, 0, 64, 0
2, 287728, Control_c, 0, 64, 24
2, 287736, Control_c, 0, 64, 72
2, 287740, Control_c, 0, 64, 127
2, 287756, Note_on_c, 0, 78, 0
2, 287760, Note_on_c, 0, 66, 0
2, 287784, Note_on_c, 0, 54, 0
2, 287796, Note_on_c, 0, 53, 67
2, 287796, Note_on_c, 0, 77, 88
2, 287800, Note_on_c, 0, 65, 76
2, 287848, Note_on_c, 0, 65, 0
2, 287852, Note_on_c, 0, 77, 0
2, 287884, Note_on_c, 0, 53, 0
2, 287904, Note_on_c, 0, 76, 89
2, 287904, Note_on_c, 0, 64, 74
2, 287908, Note_on_c, 0, 52, 66
2, 287932, Note_on_c, 0, 64, 0
2, 287944, Note_on_c, 0, 76, 0
2, 288000, Note_on_c, 0, 52, 0
2, 288012, Note_on_c, 0, 77, 94
2, 288012, Note_on_c, 0, 65, 82
2, 288016, Note_on_c, 0, 53, 70
2, 288044, Note_on_c, 0, 65, 0
2, 288048, Note_on_c, 0, 77, 0
2, 288100, Note_on_c, 0, 53, 0
2, 288120, Note_on_c, 0, 75, 96
2, 288120, Note_on_c, 0, 63, 85
2, 288120, Control_c, 0, 64, 104
2, 288124, Note_on_c, 0, 51, 85
2, 288128, Control_c, 0, 64, 24
2, 288132, Control_c, 0, 64, 0
2, 288164, Control_c, 0, 64, 24
2, 288172, Control_c, 0, 64, 88
2, 288176, Control_c, 0, 64, 127
2, 288184, Note_on_c, 0, 63, 0
2, 288196, Note_on_c, 0, 75, 0
2, 288212, Note_on_c, 0, 51, 0
2, 288228, Note_on_c, 0, 73, 81
2, 288228, Note_on_c, 0, 61, 68
2, 288232, Note_on_c, 0, 49, 63
2, 288272, Note_on_c, 0, 61, 0
2, 288276, Note_on_c, 0, 73, 0
2, 288316, Note_on_c, 0, 49, 0
2, 288336, Note_on_c, 0, 72, 87
2, 288340, Note_on_c, 0, 60, 74
2, 288340, Note_on_c, 0, 48, 63
2, 288372, Note_on_c, 0, 60, 0
2, 288376, Note_on_c, 0, 72, 0
2, 288432, Note_on_c, 0, 48, 0
2, 288440, Note_on_c, 0, 49, 69
2, 288440, Note_on_c, 0, 73, 83
2, 288444, Note_on_c, 0, 61, 76
2, 288460, Note_on_c, 0, 49, 0
2, 288464, Note_on_c, 0, 73, 0
2, 288468, Note_on_c, 0, 61, 0
2, 288548, Note_on_c, 0, 66, 93
2, 288552, Note_on_c, 0, 54, 85
2, 288552, Note_on_c, 0, 42, 88
2, 288552, Control_c, 0, 64, 56
2, 288556, Control_c, 0, 64, 0
2, 288588, Control_c, 0, 64, 72
2, 288596, Control_c, 0, 64, 127
2, 288616, Note_on_c, 0, 54, 0
2, 288616, Note_on_c, 0, 66, 0
2, 288640, Note_on_c, 0, 42, 0
2, 288656, Note_on_c, 0, 65, 82
2, 288656, Note_on_c, 0, 41, 66
2, 288660, Note_on_c, 0, 53, 74
2, 288700, Note_on_c, 0, 53, 0
2, 288704, Note_on_c, 0, 65, 0
2, 288732, Note_on_c, 0, 41, 0
2, 288760, Note_on_c, 0, 64, 86
2, 288760, Note_on_c, 0, 52, 77
2, 288760, Note_on_c, 0, 40, 58
2, 288784, Note_on_c, 0, 52, 0
2, 288796, Note_on_c, 0, 64, 0
2, 288844, Note_on_c, 0, 40, 0
2, 288860, Note_on_c, 0, 65, 84
2, 288864, Note_on_c, 0, 53, 79
2, 288868, Note_on_c, 0, 41, 64
2, 288892, Note_on_c, 0, 53, 0
2, 288896, Note_on_c, 0, 65, 0
2, 288944, Note_on_c, 0, 41, 0
2, 288972, Note_on_c, 0, 63, 87
2, 288976, Note_on_c, 0, 39, 79
2, 288976, Note_on_c, 0, 51, 86
2, 288976, Control_c, 0, 64, 56
2, 288980, Control_c, 0, 64, 0
2, 289020, Control_c, 0, 64, 56
2, 289024, Control_c, 0, 64, 127
2, 289032, Note_on_c, 0, 51, 0
2, 289044, Note_on_c, 0, 63, 0
2, 289072, Note_on_c, 0, 39, 0
2, 289076, Note_on_c, 0, 49, 82
2, 289076, Note_on_c, 0, 61, 74
2, 289080, Note_on_c, 0, 37, 62
2, 289128, Note_on_c, 0, 61, 0
2, 289128, Note_on_c, 0, 49, 0
2, 289180, Note_on_c, 0, 60, 84
2, 289184, Note_on_c, 0, 48, 70
2, 289192, Note_on_c, 0, 36, 70
2, 289196, Note_on_c, 0, 37, 0
2, 289212, Note_on_c, 0, 48, 0
2, 289220, Note_on_c, 0, 60, 0
2, 289292, Note_on_c, 0, 37, 73
2, 289292, Note_on_c, 0, 61, 88
2, 289292, Note_on_c, 0, 49, 84
2, 289300, Note_on_c, 0, 36, 0
2, 289320, Note_on_c, 0, 49, 0
2, 289324, Note_on_c, 0, 37, 0
2, 289344, Note_on_c, 0, 61, 0
2, 289380, Control_c, 0, 64, 104
2, 289384, Control_c, 0, 64, 40
2, 289392, Control_c, 0, 64, 0
2, 289400, Note_on_c, 0, 54, 93
2, 289404, Note_on_c, 0, 42, 82
2, 289408, Note_on_c, 0, 30, 73
2, 289424, Control_c, 0, 64, 40
2, 289428, Control_c, 0, 64, 104
2, 289436, Control_c, 0, 64, 127
2, 289472, Note_on_c, 0, 30, 0
2, 289488, Note_on_c, 0, 42, 0
2, 289496, Note_on_c, 0, 54, 0
2, 289520, Note_on_c, 0, 53, 94
2, 289524, Note_on_c, 0, 41, 72
2, 289524, Note_on_c, 0, 29, 64
2, 289572, Note_on_c, 0, 29, 0
2, 289584, Note_on_c, 0, 41, 0
2, 289624, Note_on_c, 0, 53, 0
2, 289628, Note_on_c, 0, 52, 96
2, 289632, Note_on_c, 0, 40, 70
2, 289636, Note_on_c, 0, 28, 64
2, 289664, Note_on_c, 0, 28, 0
2, 289672, Note_on_c, 0, 40, 0
2, 289732, Note_on_c, 0, 52, 0
2, 289740, Note_on_c, 0, 53, 96
2, 289752, Note_on_c, 0, 41, 71
2, 289752, Note_on_c, 0, 29, 63
2, 289764, Note_on_c, 0, 53, 0
2, 289768, Note_on_c, 0, 29, 0
2, 289776, Note_on_c, 0, 41, 0
2, 289892, Control_c, 0, 64, 72
2, 289896, Control_c, 0, 64, 0
2, 289900, Note_on_c, 0, 75, 82
2, 289900, Note_on_c, 0, 72, 89
2, 289900, Note_on_c, 0, 84, 94
2, 289900, Note_on_c, 0, 30, 80
2, 289900, Note_on_c, 0, 42, 89
2, 289904, Note_on_c, 0, 81, 78
2, 289936, Control_c, 0, 64, 40
2, 289940, Control_c, 0, 64, 127
2, 289944, Note_on_c, 0, 81, 0
2, 290020, Note_on_c, 0, 84, 0
2, 290028, Note_on_c, 0, 72, 0
2, 290036, Note_on_c, 0, 42, 0
2, 290040, Note_on_c, 0, 71, 90
2, 290040, Note_on_c, 0, 83, 97
2, 290040, Note_on_c, 0, 59, 64
2, 290044, Note_on_c, 0, 75, 0
2, 290064, Note_on_c, 0, 30, 0
2, 290076, Note_on_c, 0, 83, 0
2, 290080, Note_on_c, 0, 71, 0
2, 290084, Note_on_c, 0, 59, 0
2, 290156, Note_on_c, 0, 84, 97
2, 290156, Note_on_c, 0, 60, 78
2, 290156, Note_on_c, 0, 72, 92
2, 290188, Note_on_c, 0, 72, 0
2, 290188, Note_on_c, 0, 60, 0
2, 290188, Note_on_c, 0, 84, 0
2, 290276, Note_on_c, 0, 96, 84
2, 290276, Note_on_c, 0, 84, 88
2, 290276, Note_on_c, 0, 72, 81
2, 290312, Note_on_c, 0, 96, 0
2, 290316, Note_on_c, 0, 84, 0
2, 290352, Note_on_c, 0, 72, 0
2, 290392, Note_on_c, 0, 65, 82
2, 290392, Note_on_c, 0, 89, 93
2, 290392, Note_on_c, 0, 77, 81
2, 290432, Note_on_c, 0, 77, 0
2, 290440, Note_on_c, 0, 89, 0
2, 290480, Note_on_c, 0, 65, 0
2, 290496, Note_on_c, 0, 87, 84
2, 290496, Note_on_c, 0, 75, 86
2, 290496, Note_on_c, 0, 63, 77
2, 290536, Note_on_c, 0, 87, 0
2, 290544, Note_on_c, 0, 75, 0
2, 290568, Note_on_c, 0, 63, 0
2, 290604, Note_on_c, 0, 62, 74
2, 290604, Note_on_c, 0, 86, 93
2, 290604, Note_on_c, 0, 74, 85
2, 290636, Note_on_c, 0, 74, 0
2, 290644, Note_on_c, 0, 86, 0
2, 290680, Note_on_c, 0, 62, 0
2, 290704, Note_on_c, 0, 87, 89
2, 290704, Note_on_c, 0, 75, 91
2, 290704, Note_on_c, 0, 63, 75
2, 290752, Note_on_c, 0, 75, 0
2, 290760, Note_on_c, 0, 87, 0
2, 290792, Note_on_c, 0, 63, 0
2, 290808, Control_c, 0, 64, 104
2, 290816, Note_on_c, 0, 62, 75
2, 290816, Note_on_c, 0, 86, 96
2, 290816, Note_on_c, 0, 74, 93
2, 290816, Control_c, 0, 64, 40
2, 290820, Control_c, 0, 64, 24
2, 290828, Control_c, 0, 64, 56
2, 290832, Control_c, 0, 64, 104
2, 290840, Control_c, 0, 64, 127
2, 290872, Note_on_c, 0, 74, 0
2, 290872, Note_on_c, 0, 86, 0
2, 290896, Note_on_c, 0, 62, 0
2, 290920, Note_on_c, 0, 60, 76
2, 290920, Note_on_c, 0, 84, 89
2, 290920, Note_on_c, 0, 72, 81
2, 290952, Note_on_c, 0, 72, 0
2, 290968, Note_on_c, 0, 84, 0
2, 291000, Note_on_c, 0, 60, 0
2, 291024, Note_on_c, 0, 83, 85
2, 291024, Note_on_c, 0, 71, 79
2, 291024, Note_on_c, 0, 59, 71
2, 291052, Note_on_c, 0, 71, 0
2, 291068, Note_on_c, 0, 83, 0
2, 291132, Note_on_c, 0, 84, 90
2, 291132, Note_on_c, 0, 72, 78
2, 291132, Note_on_c, 0, 60, 66
2, 291136, Note_on_c, 0, 59, 0
2, 291144, Note_on_c, 0, 60, 0
2, 291156, Note_on_c, 0, 72, 0
2, 291164, Note_on_c, 0, 84, 0
2, 291248, Note_on_c, 0, 53, 87
2, 291248, Note_on_c, 0, 77, 99
2, 291248, Note_on_c, 0, 65, 79
2, 291256, Control_c, 0, 64, 56
2, 291264, Control_c, 0, 64, 0
2, 291284, Control_c, 0, 64, 24
2, 291288, Control_c, 0, 64, 88
2, 291296, Note_on_c, 0, 65, 0
2, 291296, Control_c, 0, 64, 127
2, 291312, Note_on_c, 0, 77, 0
2, 291344, Note_on_c, 0, 53, 0
2, 291352, Note_on_c, 0, 75, 82
2, 291352, Note_on_c, 0, 51, 70
2, 291352, Note_on_c, 0, 63, 73
2, 291404, Note_on_c, 0, 63, 0
2, 291416, Note_on_c, 0, 75, 0
2, 291440, Note_on_c, 0, 51, 0
2, 291460, Note_on_c, 0, 74, 89
2, 291460, Note_on_c, 0, 50, 75
2, 291460, Note_on_c, 0, 62, 78
2, 291492, Note_on_c, 0, 62, 0
2, 291504, Note_on_c, 0, 74, 0
2, 291540, Note_on_c, 0, 50, 0
2, 291568, Note_on_c, 0, 75, 87
2, 291568, Note_on_c, 0, 63, 80
2, 291568, Note_on_c, 0, 51, 73
2, 291604, Note_on_c, 0, 63, 0
2, 291612, Note_on_c, 0, 75, 0
2, 291652, Note_on_c, 0, 51, 0
2, 291660, Control_c, 0, 64, 56
2, 291668, Control_c, 0, 64, 0
2, 291672, Note_on_c, 0, 74, 96
2, 291672, Note_on_c, 0, 50, 89
2, 291672, Note_on_c, 0, 62, 90
2, 291692, Control_c, 0, 64, 56
2, 291700, Control_c, 0, 64, 127
2, 291728, Note_on_c, 0, 62, 0
2, 291728, Note_on_c, 0, 74, 0
2, 291752, Note_on_c, 0, 50, 0
2, 291780, Note_on_c, 0, 72, 87
2, 291780, Note_on_c, 0, 60, 77
2, 291780, Note_on_c, 0, 48, 72
2, 291828, Note_on_c, 0, 60, 0
2, 291832, Note_on_c, 0, 72, 0
2, 291848, Note_on_c, 0, 48, 0
2, 291888, Note_on_c, 0, 71, 82
2, 291888, Note_on_c, 0, 59, 72
2, 291888, Note_on_c, 0, 47, 72
2, 291912, Note_on_c, 0, 59, 0
2, 291920, Note_on_c, 0, 71, 0
2, 291968, Note_on_c, 0, 47, 0
2, 291988, Note_on_c, 0, 72, 89
2, 291988, Note_on_c, 0, 48, 78
2, 291988, Note_on_c, 0, 60, 77
2, 292012, Note_on_c, 0, 60, 0
2, 292020, Note_on_c, 0, 48, 0
2, 292024, Note_on_c, 0, 72, 0
2, 292104, Note_on_c, 0, 41, 80
2, 292104, Note_on_c, 0, 65, 93
2, 292104, Note_on_c, 0, 53, 83
2, 292104, Control_c, 0, 64, 88
2, 292112, Control_c, 0, 64, 0
2, 292144, Control_c, 0, 64, 56
2, 292148, Control_c, 0, 64, 127
2, 292156, Note_on_c, 0, 53, 0
2, 292164, Note_on_c, 0, 65, 0
2, 292192, Note_on_c, 0, 41, 0
2, 292208, Note_on_c, 0, 63, 82
2, 292208, Note_on_c, 0, 51, 83
2, 292208, Note_on_c, 0, 39, 73
2, 292256, Note_on_c, 0, 63, 0
2, 292264, Note_on_c, 0, 51, 0
2, 292300, Note_on_c, 0, 39, 0
2, 292316, Note_on_c, 0, 62, 86
2, 292316, Note_on_c, 0, 38, 78
2, 292316, Note_on_c, 0, 50, 79
2, 292348, Note_on_c, 0, 50, 0
2, 292348, Note_on_c, 0, 62, 0
2, 292412, Note_on_c, 0, 38, 0
2, 292420, Note_on_c, 0, 63, 84
2, 292420, Note_on_c, 0, 51, 83
2, 292420, Note_on_c, 0, 39, 67
2, 292476, Note_on_c, 0, 51, 0
2, 292484, Note_on_c, 0, 63, 0
2, 292520, Note_on_c, 0, 39, 0
2, 292528, Note_on_c, 0, 38, 72
2, 292528, Note_on_c, 0, 62, 92
2, 292528, Control_c, 0, 64, 88
2, 292532, Note_on_c, 0, 50, 87
2, 292536, Control_c, 0, 64, 0
2, 292560, Control_c, 0, 64, 40
2, 292568, Control_c, 0, 64, 104
2, 292572, Control_c, 0, 64, 127
2, 292584, Note_on_c, 0, 62, 0
2, 292588, Note_on_c, 0, 50, 0
2, 292612, Note_on_c, 0, 38, 0
2, 292636, Note_on_c, 0, 36, 65
2, 292636, Note_on_c, 0, 60, 89
2, 292636, Note_on_c, 0, 48, 77
2, 292688, Note_on_c, 0, 48, 0
2, 292688, Note_on_c, 0, 60, 0
2, 292732, Note_on_c, 0, 36, 0
2, 292744, Note_on_c, 0, 59, 77
2, 292744, Note_on_c, 0, 47, 70
2, 292744, Note_on_c, 0, 35, 72
2, 292768, Note_on_c, 0, 47, 0
2, 292784, Note_on_c, 0, 59, 0
2, 292844, Note_on_c, 0, 35, 0
2, 292852, Note_on_c, 0, 36, 71
2, 292852, Note_on_c, 0, 60, 88
2, 292852, Note_on_c, 0, 48, 84
2, 292888, Note_on_c, 0, 60, 0
2, 292896, Note_on_c, 0, 36, 0
2, 292900, Note_on_c, 0, 48, 0
2, 292964, Control_c, 0, 64, 104
2, 292972, Control_c, 0, 64, 0
2, 292976, Note_on_c, 0, 53, 88
2, 292976, Note_on_c, 0, 41, 84
2, 292976, Note_on_c, 0, 29, 74
2, 293016, Control_c, 0, 64, 88
2, 293020, Note_on_c, 0, 29, 0
2, 293020, Control_c, 0, 64, 127
2, 293024, Note_on_c, 0, 41, 0
2, 293084, Note_on_c, 0, 53, 0
2, 293104, Note_on_c, 0, 51, 90
2, 293104, Note_on_c, 0, 39, 79
2, 293104, Note_on_c, 0, 27, 75
2, 293112, Control_c, 0, 64, 104
2, 293116, Control_c, 0, 64, 24
2, 293124, Control_c, 0, 64, 0
2, 293136, Control_c, 0, 64, 24
2, 293144, Control_c, 0, 64, 88
2, 293148, Control_c, 0, 64, 127
2, 293176, Note_on_c, 0, 27, 0
2, 293196, Note_on_c, 0, 39, 0
2, 293224, Note_on_c, 0, 51, 0
2, 293232, Note_on_c, 0, 50, 94
2, 293232, Note_on_c, 0, 38, 82
2, 293232, Note_on_c, 0, 26, 74
2, 293232, Control_c, 0, 64, 104
2, 293236, Control_c, 0, 64, 0
2, 293268, Control_c, 0, 64, 56
2, 293272, Control_c, 0, 64, 127
2, 293276, Note_on_c, 0, 26, 0
2, 293312, Note_on_c, 0, 38, 0
2, 293376, Control_c, 0, 64, 40
2, 293380, Note_on_c, 0, 50, 0
2, 293384, Note_on_c, 0, 48, 99
2, 293384, Note_on_c, 0, 36, 87
2, 293384, Note_on_c, 0, 24, 82
2, 293384, Control_c, 0, 64, 0
2, 293416, Note_on_c, 0, 24, 0
2, 293420, Control_c, 0, 64, 127
2, 293436, Note_on_c, 0, 36, 0
2, 293452, Note_on_c, 0, 48, 0
2, 293560, Control_c, 0, 64, 0
2, 293588, Note_on_c, 0, 71, 87
2, 293588, Note_on_c, 0, 31, 57
2, 293588, Note_on_c, 0, 43, 47
2, 293588, Note_on_c, 0, 67, 59
2, 293588, Note_on_c, 0, 62, 58
2, 293612, Note_on_c, 0, 31, 0
2, 293624, Control_c, 0, 64, 88
2, 293632, Control_c, 0, 64, 127
2, 293640, Note_on_c, 0, 43, 0
2, 293700, Note_on_c, 0, 50, 57
2, 293732, Note_on_c, 0, 50, 0
2, 293764, Note_on_c, 0, 62, 0
2, 293764, Note_on_c, 0, 67, 0
2, 293784, Note_on_c, 0, 59, 58
2, 293836, Note_on_c, 0, 59, 0
2, 293864, Note_on_c, 0, 62, 60
2, 293932, Note_on_c, 0, 62, 0
2, 293936, Note_on_c, 0, 67, 58
2, 294008, Note_on_c, 0, 67, 0
2, 294012, Note_on_c, 0, 59, 61
2, 294076, Control_c, 0, 64, 56
2, 294084, Note_on_c, 0, 59, 0
2, 294084, Control_c, 0, 64, 0
2, 294096, Note_on_c, 0, 33, 52
2, 294100, Note_on_c, 0, 69, 87
2, 294108, Note_on_c, 0, 45, 61
2, 294112, Note_on_c, 0, 33, 0
2, 294132, Note_on_c, 0, 71, 0
2, 294136, Control_c, 0, 64, 72
2, 294144, Control_c, 0, 64, 127
2, 294148, Note_on_c, 0, 45, 0
2, 294180, Note_on_c, 0, 50, 52
2, 294212, Note_on_c, 0, 50, 0
2, 294252, Note_on_c, 0, 60, 59
2, 294288, Note_on_c, 0, 69, 0
2, 294308, Note_on_c, 0, 60, 0
2, 294316, Note_on_c, 0, 62, 59
2, 294380, Note_on_c, 0, 62, 0
2, 294384, Note_on_c, 0, 66, 53
2, 294468, Note_on_c, 0, 66, 0
2, 294468, Note_on_c, 0, 60, 56
2, 294516, Note_on_c, 0, 67, 80
2, 294528, Note_on_c, 0, 60, 0
2, 294556, Note_on_c, 0, 67, 0
2, 294584, Control_c, 0, 64, 104
2, 294592, Note_on_c, 0, 67, 86
2, 294592, Control_c, 0, 64, 24
2, 294600, Control_c, 0, 64, 0
2, 294604, Note_on_c, 0, 35, 54
2, 294620, Note_on_c, 0, 35, 0
2, 294620, Note_on_c, 0, 47, 36
2, 294640, Control_c, 0, 64, 88
2, 294648, Note_on_c, 0, 47, 0
2, 294648, Control_c, 0, 64, 127
2, 294680, Note_on_c, 0, 50, 56
2, 294704, Note_on_c, 0, 50, 0
2, 294712, Note_on_c, 0, 67, 0
2, 294744, Note_on_c, 0, 55, 60
2, 294796, Note_on_c, 0, 59, 58
2, 294808, Note_on_c, 0, 55, 0
2, 294868, Note_on_c, 0, 62, 65
2, 294876, Note_on_c, 0, 59, 0
2, 294912, Note_on_c, 0, 62, 0
2, 294928, Note_on_c, 0, 55, 57
2, 294944, Note_on_c, 0, 55, 0
2, 295044, Control_c, 0, 64, 56
2, 295052, Control_c, 0, 64, 0
2, 295056, Note_on_c, 0, 76, 93
2, 295056, Note_on_c, 0, 36, 54
2, 295072, Note_on_c, 0, 48, 48
2, 295088, Note_on_c, 0, 36, 0
2, 295096, Control_c, 0, 64, 72
2, 295104, Control_c, 0, 64, 127
2, 295112, Note_on_c, 0, 48, 0
2, 295152, Note_on_c, 0, 55, 55
2, 295204, Note_on_c, 0, 55, 0
2, 295212, Note_on_c, 0, 64, 58
2, 295272, Note_on_c, 0, 64, 0
2, 295288, Note_on_c, 0, 67, 62
2, 295352, Note_on_c, 0, 67, 0
2, 295352, Note_on_c, 0, 69, 66
2, 295400, Note_on_c, 0, 69, 0
2, 295432, Note_on_c, 0, 64, 66
2, 295480, Note_on_c, 0, 64, 0
2, 295508, Control_c, 0, 64, 56
2, 295520, Note_on_c, 0, 38, 56
2, 295520, Note_on_c, 0, 69, 82
2, 295520, Control_c, 0, 64, 0
2, 295536, Note_on_c, 0, 50, 61
2, 295548, Note_on_c, 0, 38, 0
2, 295560, Control_c, 0, 64, 40
2, 295568, Control_c, 0, 64, 127
2, 295572, Note_on_c, 0, 76, 0
2, 295588, Note_on_c, 0, 50, 0
2, 295604, Note_on_c, 0, 54, 69
2, 295632, Note_on_c, 0, 54, 0
2, 295684, Note_on_c, 0, 57, 56
2, 295748, Note_on_c, 0, 62, 60
2, 295752, Note_on_c, 0, 57, 0
2, 295780, Note_on_c, 0, 69, 0
2, 295820, Note_on_c, 0, 66, 51
2, 295832, Note_on_c, 0, 62, 0
2, 295880, Note_on_c, 0, 66, 0
2, 295888, Note_on_c, 0, 57, 63
2, 295912, Note_on_c, 0, 57, 0
2, 295988, Control_c, 0, 64, 56
2, 295996, Note_on_c, 0, 36, 57
2, 296000, Note_on_c, 0, 74, 84
2, 296000, Note_on_c, 0, 62, 60
2, 296000, Control_c, 0, 64, 0
2, 296004, Note_on_c, 0, 48, 63
2, 296028, Note_on_c, 0, 36, 0
2, 296040, Control_c, 0, 64, 88
2, 296044, Note_on_c, 0, 48, 0
2, 296048, Control_c, 0, 64, 127
2, 296080, Note_on_c, 0, 53, 62
2, 296116, Note_on_c, 0, 53, 0
2, 296144, Note_on_c, 0, 62, 64
2, 296212, Note_on_c, 0, 62, 0
2, 296224, Note_on_c, 0, 65, 64
2, 296296, Note_on_c, 0, 69, 55
2, 296352, Note_on_c, 0, 69, 0
2, 296372, Note_on_c, 0, 62, 59
2, 296420, Control_c, 0, 64, 104
2, 296428, Control_c, 0, 64, 40
2, 296436, Note_on_c, 0, 35, 64
2, 296436, Control_c, 0, 64, 0
2, 296460, Note_on_c, 0, 47, 59
2, 296460, Note_on_c, 0, 65, 68
2, 296468, Note_on_c, 0, 35, 0
2, 296472, Control_c, 0, 64, 72
2, 296476, Note_on_c, 0, 65, 0
2, 296476, Control_c, 0, 64, 127
2, 296496, Note_on_c, 0, 62, 0
2, 296496, Note_on_c, 0, 62, 0
2, 296512, Note_on_c, 0, 47, 0
2, 296532, Note_on_c, 0, 53, 56
2, 296564, Note_on_c, 0, 53, 0
2, 296580, Note_on_c, 0, 74, 0
2, 296592, Note_on_c, 0, 62, 58
2, 296656, Note_on_c, 0, 65, 64
2, 296692, Note_on_c, 0, 62, 0
2, 296720, Note_on_c, 0, 68, 58
2, 296724, Note_on_c, 0, 65, 0
2, 296776, Note_on_c, 0, 68, 0
2, 296788, Note_on_c, 0, 62, 66
2, 296852, Control_c, 0, 64, 88
2, 296860, Note_on_c, 0, 62, 0
2, 296860, Control_c, 0, 64, 24
2, 296868, Control_c, 0, 64, 0
2, 296872, Note_on_c, 0, 72, 88
2, 296884, Note_on_c, 0, 33, 57
2, 296892, Note_on_c, 0, 45, 52
2, 296900, Control_c, 0, 64, 56
2, 296908, Note_on_c, 0, 33, 0
2, 296908, Control_c, 0, 64, 127
2, 296916, Note_on_c, 0, 45, 0
2, 296964, Note_on_c, 0, 53, 48
2, 297004, Note_on_c, 0, 53, 0
2, 297020, Note_on_c, 0, 62, 60
2, 297064, Note_on_c, 0, 65, 0
2, 297092, Note_on_c, 0, 65, 61
2, 297108, Note_on_c, 0, 62, 0
2, 297132, Note_on_c, 0, 72, 0
2, 297152, Note_on_c, 0, 65, 0
2, 297204, Note_on_c, 0, 71, 79
2, 297224, Note_on_c, 0, 44, 59
2, 297224, Note_on_c, 0, 32, 57
2, 297232, Note_on_c, 0, 62, 63
2, 297272, Note_on_c, 0, 32, 0
2, 297280, Note_on_c, 0, 44, 0
2, 297304, Note_on_c, 0, 71, 0
2, 297304, Note_on_c, 0, 62, 0
2, 297316, Control_c, 0, 64, 104
2, 297320, Note_on_c, 0, 72, 88
2, 297320, Note_on_c, 0, 60, 66
2, 297320, Note_on_c, 0, 64, 63
2, 297324, Control_c, 0, 64, 40
2, 297328, Note_on_c, 0, 33, 60
2, 297332, Note_on_c, 0, 45, 68
2, 297332, Control_c, 0, 64, 0
2, 297356, Note_on_c, 0, 33, 0
2, 297364, Note_on_c, 0, 45, 0
2, 297364, Control_c, 0, 64, 24
2, 297372, Control_c, 0, 64, 88
2, 297380, Control_c, 0, 64, 127
2, 297412, Note_on_c, 0, 52, 58
2, 297448, Note_on_c, 0, 52, 0
2, 297472, Note_on_c, 0, 60, 51
2, 297540, Note_on_c, 0, 64, 56
2, 297564, Note_on_c, 0, 72, 0
2, 297576, Note_on_c, 0, 60, 0
2, 297580, Note_on_c, 0, 60, 0
2, 297580, Note_on_c, 0, 64, 0
2, 297620, Note_on_c, 0, 69, 63
2, 297628, Note_on_c, 0, 64, 0
2, 297696, Note_on_c, 0, 69, 0
2, 297696, Note_on_c, 0, 60, 63
2, 297760, Note_on_c, 0, 60, 0
2, 297764, Control_c, 0, 64, 104
2, 297768, Note_on_c, 0, 71, 88
2, 297772, Control_c, 0, 64, 40
2, 297776, Note_on_c, 0, 35, 65
2, 297780, Control_c, 0, 64, 0
2, 297788, Note_on_c, 0, 47, 60
2, 297808, Note_on_c, 0, 35, 0
2, 297820, Control_c, 0, 64, 56
2, 297828, Control_c, 0, 64, 127
2, 297840, Note_on_c, 0, 47, 0
2, 297876, Note_on_c, 0, 52, 33
2, 297904, Note_on_c, 0, 52, 0
2, 297920, Note_on_c, 0, 62, 59
2, 297968, Note_on_c, 0, 64, 63
2, 297984, Note_on_c, 0, 62, 0
2, 298020, Note_on_c, 0, 68, 56
2, 298024, Note_on_c, 0, 64, 0
2, 298044, Note_on_c, 0, 71, 0
2, 298100, Note_on_c, 0, 62, 59
2, 298108, Note_on_c, 0, 68, 0
2, 298120, Note_on_c, 0, 69, 80
2, 298156, Note_on_c, 0, 69, 0
2, 298164, Note_on_c, 0, 62, 0
2, 298212, Note_on_c, 0, 69, 85
2, 298224, Control_c, 0, 64, 56
2, 298232, Note_on_c, 0, 36, 56
2, 298232, Control_c, 0, 64, 0
2, 298248, Note_on_c, 0, 48, 54
2, 298260, Note_on_c, 0, 36, 0
2, 298272, Control_c, 0, 64, 40
2, 298280, Control_c, 0, 64, 127
2, 298308, Note_on_c, 0, 48, 0
2, 298316, Note_on_c, 0, 52, 54
2, 298336, Note_on_c, 0, 69, 0
2, 298340, Note_on_c, 0, 52, 0
2, 298364, Note_on_c, 0, 57, 53
2, 298416, Note_on_c, 0, 60, 60
2, 298440, Note_on_c, 0, 57, 0
2, 298488, Note_on_c, 0, 60, 0
2, 298488, Note_on_c, 0, 64, 64
2, 298536, Note_on_c, 0, 64, 0
2, 298552, Note_on_c, 0, 57, 48
2, 298568, Note_on_c, 0, 57, 0
2, 298660, Control_c, 0, 64, 104
2, 298672, Control_c, 0, 64, 56
2, 298676, Note_on_c, 0, 77, 92
2, 298676, Note_on_c, 0, 38, 59
2, 298680, Control_c, 0, 64, 0
2, 298692, Note_on_c, 0, 50, 54
2, 298704, Note_on_c, 0, 38, 0
2, 298720, Control_c, 0, 64, 72
2, 298728, Control_c, 0, 64, 127
2, 298732, Note_on_c, 0, 50, 0
2, 298776, Note_on_c, 0, 57, 27
2, 298820, Note_on_c, 0, 65, 58
2, 298836, Note_on_c, 0, 57, 0
2, 298904, Note_on_c, 0, 65, 0
2, 298904, Note_on_c, 0, 69, 64
2, 298976, Note_on_c, 0, 74, 63
2, 298984, Note_on_c, 0, 69, 0
2, 299036, Note_on_c, 0, 74, 0
2, 299040, Note_on_c, 0, 65, 62
2, 299084, Note_on_c, 0, 65, 0
2, 299112, Control_c, 0, 64, 88
2, 299116, Note_on_c, 0, 71, 83
2, 299120, Note_on_c, 0, 40, 56
2, 299120, Control_c, 0, 64, 24
2, 299128, Note_on_c, 0, 52, 60
2, 299128, Control_c, 0, 64, 0
2, 299140, Note_on_c, 0, 40, 0
2, 299160, Control_c, 0, 64, 24
2, 299168, Control_c, 0, 64, 104
2, 299176, Control_c, 0, 64, 127
2, 299180, Note_on_c, 0, 52, 0
2, 299196, Note_on_c, 0, 77, 0
2, 299200, Note_on_c, 0, 56, 56
2, 299232, Note_on_c, 0, 56, 0
2, 299272, Note_on_c, 0, 59, 59
2, 299340, Note_on_c, 0, 59, 0
2, 299340, Note_on_c, 0, 64, 58
2, 299416, Note_on_c, 0, 68, 40
2, 299420, Note_on_c, 0, 64, 0
2, 299464, Note_on_c, 0, 71, 0
2, 299468, Note_on_c, 0, 59, 58
2, 299472, Note_on_c, 0, 68, 0
2, 299500, Note_on_c, 0, 59, 0
2, 299572, Control_c, 0, 64, 104
2, 299580, Control_c, 0, 64, 56
2, 299588, Note_on_c, 0, 38, 53
2, 299588, Note_on_c, 0, 76, 89
2, 299588, Control_c, 0, 64, 0
2, 299596, Note_on_c, 0, 50, 57
2, 299604, Note_on_c, 0, 38, 0
2, 299620, Control_c, 0, 64, 24
2, 299628, Control_c, 0, 64, 104
2, 299636, Note_on_c, 0, 50, 0
2, 299636, Control_c, 0, 64, 127
2, 299664, Note_on_c, 0, 55, 61
2, 299732, Note_on_c, 0, 64, 58
2, 299736, Note_on_c, 0, 55, 0
2, 299812, Note_on_c, 0, 67, 59
2, 299828, Note_on_c, 0, 64, 0
2, 299868, Note_on_c, 0, 67, 0
2, 299880, Note_on_c, 0, 71, 61
2, 299936, Note_on_c, 0, 71, 0
2, 299948, Note_on_c, 0, 64, 70
2, 299996, Control_c, 0, 64, 104
2, 300004, Control_c, 0, 64, 40
2, 300012, Control_c, 0, 64, 0
2, 300020, Note_on_c, 0, 37, 56
2, 300020, Note_on_c, 0, 49, 60
2, 300020, Note_on_c, 0, 64, 60
2, 300020, Note_on_c, 0, 67, 63
2, 300052, Control_c, 0, 64, 72
2, 300056, Note_on_c, 0, 37, 0
2, 300060, Control_c, 0, 64, 127
2, 300064, Note_on_c, 0, 64, 0
2, 300064, Note_on_c, 0, 49, 0
2, 300104, Note_on_c, 0, 55, 55
2, 300120, Note_on_c, 0, 55, 0
2, 300148, Note_on_c, 0, 76, 0
2, 300164, Note_on_c, 0, 64, 62
2, 300240, Note_on_c, 0, 67, 58
2, 300248, Note_on_c, 0, 64, 0
2, 300304, Note_on_c, 0, 70, 57
2, 300308, Note_on_c, 0, 67, 0
2, 300364, Note_on_c, 0, 70, 0
2, 300380, Note_on_c, 0, 64, 37
2, 300428, Control_c, 0, 64, 56
2, 300436, Control_c, 0, 64, 0
2, 300440, Note_on_c, 0, 64, 0
2, 300444, Note_on_c, 0, 74, 85
2, 300444, Note_on_c, 0, 35, 62
2, 300456, Note_on_c, 0, 47, 59
2, 300476, Control_c, 0, 64, 72
2, 300480, Note_on_c, 0, 35, 0
2, 300484, Note_on_c, 0, 47, 0
2, 300484, Control_c, 0, 64, 127
2, 300536, Note_on_c, 0, 55, 60
2, 300576, Note_on_c, 0, 55, 0
2, 300576, Note_on_c, 0, 64, 47
2, 300656, Note_on_c, 0, 67, 63
2, 300664, Note_on_c, 0, 64, 0
2, 300672, Note_on_c, 0, 74, 0
2, 300692, Note_on_c, 0, 67, 0
2, 300708, Note_on_c, 0, 64, 0
2, 300720, Note_on_c, 0, 67, 0
2, 300756, Note_on_c, 0, 73, 78
2, 300772, Note_on_c, 0, 46, 58
2, 300772, Note_on_c, 0, 34, 61
2, 300792, Note_on_c, 0, 64, 62
2, 300816, Note_on_c, 0, 46, 0
2, 300824, Note_on_c, 0, 34, 0
2, 300864, Note_on_c, 0, 64, 0
2, 300868, Note_on_c, 0, 74, 88
2, 300868, Note_on_c, 0, 62, 57
2, 300868, Note_on_c, 0, 66, 60
2, 300872, Note_on_c, 0, 73, 0
2, 300876, Note_on_c, 0, 35, 65
2, 300876, Control_c, 0, 64, 56
2, 300884, Note_on_c, 0, 47, 60
2, 300884, Control_c, 0, 64, 0
2, 300904, Note_on_c, 0, 35, 0
2, 300924, Note_on_c, 0, 47, 0
2, 300924, Control_c, 0, 64, 72
2, 300932, Control_c, 0, 64, 127
2, 300968, Note_on_c, 0, 54, 64
2, 300996, Note_on_c, 0, 54, 0
2, 301032, Note_on_c, 0, 62, 48
2, 301096, Note_on_c, 0, 66, 58
2, 301116, Note_on_c, 0, 62, 0
2, 301116, Note_on_c, 0, 74, 0
2, 301116, Note_on_c, 0, 62, 0
2, 301160, Note_on_c, 0, 66, 0
2, 301164, Note_on_c, 0, 71, 53
2, 301232, Note_on_c, 0, 71, 0
2, 301232, Note_on_c, 0, 62, 62
2, 301308, Control_c, 0, 64, 104
2, 301316, Note_on_c, 0, 73, 85
2, 301316, Control_c, 0, 64, 40
2, 301320, Control_c, 0, 64, 0
2, 301324, Note_on_c, 0, 37, 58
2, 301328, Note_on_c, 0, 49, 57
2, 301348, Note_on_c, 0, 37, 0
2, 301364, Control_c, 0, 64, 72
2, 301372, Control_c, 0, 64, 127
2, 301396, Note_on_c, 0, 49, 0
2, 301408, Note_on_c, 0, 54, 49
2, 301432, Note_on_c, 0, 54, 0
2, 301448, Note_on_c, 0, 64, 61
2, 301500, Note_on_c, 0, 66, 54
2, 301508, Note_on_c, 0, 64, 0
2, 301512, Note_on_c, 0, 62, 0
2, 301512, Note_on_c, 0, 66, 0
2, 301564, Note_on_c, 0, 73, 0
2, 301564, Note_on_c, 0, 66, 0
2, 301564, Note_on_c, 0, 70, 55
2, 301624, Note_on_c, 0, 64, 62
2, 301640, Note_on_c, 0, 70, 0
2, 301680, Note_on_c, 0, 64, 0
2, 301680, Note_on_c, 0, 71, 80
2, 301724, Note_on_c, 0, 71, 0
2, 301756, Note_on_c, 0, 71, 81
2, 301756, Note_on_c, 0, 38, 62
2, 301760, Control_c, 0, 64, 56
2, 301768, Control_c, 0, 64, 0
2, 301772, Note_on_c, 0, 50, 59
2, 301780, Note_on_c, 0, 38, 0
2, 301800, Control_c, 0, 64, 24
2, 301808, Control_c, 0, 64, 88
2, 301816, Note_on_c, 0, 50, 0
2, 301820, Control_c, 0, 64, 127
2, 301844, Note_on_c, 0, 54, 57
2, 301868, Note_on_c, 0, 54, 0
2, 301904, Note_on_c, 0, 59, 57
2, 301956, Note_on_c, 0, 62, 59
2, 301972, Note_on_c, 0, 59, 0
2, 301984, Note_on_c, 0, 71, 0
2, 302012, Note_on_c, 0, 66, 49
2, 302020, Note_on_c, 0, 62, 0
2, 302072, Note_on_c, 0, 59, 57
2, 302076, Note_on_c, 0, 66, 0
2, 302100, Note_on_c, 0, 59, 0
2, 302220, Control_c, 0, 64, 72
2, 302224, Control_c, 0, 64, 0
2, 302236, Note_on_c, 0, 55, 57
2, 302236, Note_on_c, 0, 43, 59
2, 302236, Note_on_c, 0, 83, 96
2, 302264, Control_c, 0, 64, 72
2, 302272, Note_on_c, 0, 43, 0
2, 302272, Control_c, 0, 64, 127
2, 302276, Note_on_c, 0, 55, 0
2, 302332, Note_on_c, 0, 65, 61
2, 302368, Note_on_c, 0, 65, 0
2, 302384, Note_on_c, 0, 71, 55
2, 302448, Note_on_c, 0, 71, 0
2, 302448, Note_on_c, 0, 74, 66
2, 302520, Note_on_c, 0, 77, 48
2, 302524, Note_on_c, 0, 74, 0
2, 302576, Note_on_c, 0, 77, 0
2, 302580, Note_on_c, 0, 71, 49
2, 302632, Note_on_c, 0, 71, 0
2, 302652, Note_on_c, 0, 82, 89
2, 302732, Note_on_c, 0, 64, 61
2, 302792, Note_on_c, 0, 64, 0
2, 302804, Note_on_c, 0, 70, 46
2, 302868, Note_on_c, 0, 73, 53
2, 302876, Note_on_c, 0, 70, 0
2, 302892, Note_on_c, 0, 83, 0
2, 302936, Note_on_c, 0, 73, 0
2, 302936, Note_on_c, 0, 76, 55
2, 303000, Note_on_c, 0, 76, 0
2, 303000, Note_on_c, 0, 70, 51
2, 303044, Note_on_c, 0, 70, 0
2, 303068, Control_c, 0, 64, 104
2, 303080, Control_c, 0, 64, 40
2, 303084, Note_on_c, 0, 81, 82
2, 303088, Note_on_c, 0, 54, 57
2, 303088, Note_on_c, 0, 42, 61
2, 303088, Note_on_c, 0, 63, 59
2, 303088, Note_on_c, 0, 66, 59
2, 303088, Note_on_c, 0, 60, 57
2, 303088, Note_on_c, 0, 69, 60
2, 303088, Control_c, 0, 64, 0
2, 303112, Note_on_c, 0, 42, 0
2, 303120, Control_c, 0, 64, 72
2, 303124, Note_on_c, 0, 54, 0
2, 303128, Control_c, 0, 64, 127
2, 303172, Note_on_c, 0, 63, 55
2, 303196, Note_on_c, 0, 63, 0
2, 303236, Note_on_c, 0, 69, 60
2, 303296, Note_on_c, 0, 69, 0
2, 303308, Note_on_c, 0, 82, 0
2, 303324, Note_on_c, 0, 72, 60
2, 303368, Note_on_c, 0, 72, 0
2, 303380, Note_on_c, 0, 75, 53
2, 303440, Note_on_c, 0, 75, 0
2, 303448, Note_on_c, 0, 69, 57
2, 303476, Control_c, 0, 64, 56
2, 303484, Control_c, 0, 64, 0
2, 303496, Note_on_c, 0, 40, 54
2, 303508, Note_on_c, 0, 52, 60
2, 303516, Control_c, 0, 64, 24
2, 303524, Control_c, 0, 64, 88
2, 303528, Note_on_c, 0, 40, 0
2, 303532, Control_c, 0, 64, 127
2, 303536, Note_on_c, 0, 52, 0
2, 303552, Note_on_c, 0, 69, 0
2, 303588, Note_on_c, 0, 64, 63
2, 303624, Note_on_c, 0, 64, 0
2, 303660, Note_on_c, 0, 69, 67
2, 303700, Note_on_c, 0, 81, 0
2, 303716, Note_on_c, 0, 72, 63
2, 303732, Note_on_c, 0, 60, 0
2, 303732, Note_on_c, 0, 66, 0
2, 303732, Note_on_c, 0, 63, 0
2, 303732, Note_on_c, 0, 69, 0
2, 303744, Note_on_c, 0, 69, 0
2, 303788, Note_on_c, 0, 72, 0
2, 303788, Note_on_c, 0, 76, 69
2, 303840, Note_on_c, 0, 76, 0
2, 303852, Note_on_c, 0, 69, 63
2, 303900, Control_c, 0, 64, 88
2, 303908, Control_c, 0, 64, 24
2, 303916, Note_on_c, 0, 39, 62
2, 303916, Control_c, 0, 64, 0
2, 303928, Note_on_c, 0, 69, 0
2, 303928, Note_on_c, 0, 79, 89
2, 303928, Note_on_c, 0, 51, 56
2, 303928, Note_on_c, 0, 67, 60
2, 303928, Note_on_c, 0, 60, 58
2, 303928, Note_on_c, 0, 57, 58
2, 303948, Note_on_c, 0, 39, 0
2, 303952, Control_c, 0, 64, 56
2, 303956, Control_c, 0, 64, 127
2, 303968, Note_on_c, 0, 51, 0
2, 304020, Note_on_c, 0, 66, 68
2, 304048, Note_on_c, 0, 66, 0
2, 304088, Note_on_c, 0, 69, 60
2, 304164, Note_on_c, 0, 72, 72
2, 304176, Note_on_c, 0, 79, 0
2, 304188, Note_on_c, 0, 67, 0
2, 304200, Note_on_c, 0, 69, 0
2, 304220, Note_on_c, 0, 72, 0
2, 304252, Note_on_c, 0, 78, 85
2, 304300, Note_on_c, 0, 69, 57
2, 304332, Note_on_c, 0, 78, 0
2, 304360, Note_on_c, 0, 69, 0
2, 304364, Control_c, 0, 64, 56
2, 304372, Note_on_c, 0, 40, 61
2, 304372, Control_c, 0, 64, 0
2, 304380, Note_on_c, 0, 79, 84
2, 304384, Note_on_c, 0, 52, 56
2, 304384, Note_on_c, 0, 67, 62
2, 304384, Note_on_c, 0, 59, 58
2, 304384, Note_on_c, 0, 55, 58
2, 304408, Note_on_c, 0, 40, 0
2, 304412, Control_c, 0, 64, 72
2, 304416, Note_on_c, 0, 52, 0
2, 304420, Control_c, 0, 64, 127
2, 304464, Note_on_c, 0, 59, 43
2, 304500, Note_on_c, 0, 59, 0
2, 304520, Note_on_c, 0, 67, 55
2, 304572, Note_on_c, 0, 60, 0
2, 304572, Note_on_c, 0, 57, 0
2, 304588, Note_on_c, 0, 71, 55
2, 304604, Note_on_c, 0, 67, 0
2, 304608, Note_on_c, 0, 79, 0
2, 304644, Note_on_c, 0, 55, 0
2, 304644, Note_on_c, 0, 59, 0
2, 304644, Note_on_c, 0, 67, 0
2, 304660, Note_on_c, 0, 71, 0
2, 304660, Note_on_c, 0, 76, 62
2, 304728, Note_on_c, 0, 67, 54
2, 304780, Note_on_c, 0, 76, 0
2, 304788, Note_on_c, 0, 67, 0
2, 304796, Control_c, 0, 64, 56
2, 304804, Control_c, 0, 64, 0
2, 304808, Note_on_c, 0, 78, 80
2, 304808, Note_on_c, 0, 42, 62
2, 304808, Note_on_c, 0, 66, 60
2, 304812, Note_on_c, 0, 54, 53
2, 304836, Control_c, 0, 64, 56
2, 304844, Note_on_c, 0, 42, 0
2, 304844, Control_c, 0, 64, 127
2, 304852, Note_on_c, 0, 54, 0
2, 304892, Note_on_c, 0, 59, 53
2, 304916, Note_on_c, 0, 59, 0
2, 304936, Note_on_c, 0, 69, 61
2, 304940, Note_on_c, 0, 66, 0
2, 304960, Note_on_c, 0, 78, 0
2, 304992, Note_on_c, 0, 71, 62
2, 305000, Note_on_c, 0, 69, 0
2, 305060, Note_on_c, 0, 75, 63
2, 305072, Note_on_c, 0, 71, 0
2, 305124, Note_on_c, 0, 69, 63
2, 305132, Note_on_c, 0, 75, 0
2, 305176, Note_on_c, 0, 76, 83
2, 305184, Note_on_c, 0, 69, 0
2, 305220, Note_on_c, 0, 76, 0
2, 305248, Note_on_c, 0, 76, 82
2, 305260, Note_on_c, 0, 43, 61
2, 305260, Control_c, 0, 64, 56
2, 305268, Note_on_c, 0, 55, 57
2, 305268, Control_c, 0, 64, 0
2, 305292, Note_on_c, 0, 43, 0
2, 305300, Control_c, 0, 64, 40
2, 305308, Control_c, 0, 64, 127
2, 305324, Note_on_c, 0, 55, 0
2, 305328, Note_on_c, 0, 59, 60
2, 305368, Note_on_c, 0, 59, 0
2, 305372, Note_on_c, 0, 76, 0
2, 305400, Note_on_c, 0, 64, 58
2, 305456, Note_on_c, 0, 67, 63
2, 305472, Note_on_c, 0, 64, 0
2, 305536, Note_on_c, 0, 67, 0
2, 305536, Note_on_c, 0, 71, 57
2, 305584, Note_on_c, 0, 71, 0
2, 305600, Note_on_c, 0, 64, 50
2, 305616, Note_on_c, 0, 64, 0
2, 305724, Control_c, 0, 64, 88
2, 305728, Note_on_c, 0, 60, 56
2, 305728, Note_on_c, 0, 48, 58
2, 305732, Control_c, 0, 64, 0
2, 305736, Note_on_c, 0, 88, 97
2, 305772, Control_c, 0, 64, 88
2, 305776, Note_on_c, 0, 48, 0
2, 305776, Control_c, 0, 64, 127
2, 305796, Note_on_c, 0, 60, 0
2, 305840, Note_on_c, 0, 70, 67
2, 305872, Note_on_c, 0, 70, 0
2, 305904, Note_on_c, 0, 76, 69
2, 305948, Note_on_c, 0, 88, 0
2, 305968, Note_on_c, 0, 79, 72
2, 305976, Note_on_c, 0, 76, 0
2, 306036, Note_on_c, 0, 82, 57
2, 306052, Note_on_c, 0, 79, 0
2, 306092, Note_on_c, 0, 82, 0
2, 306096, Note_on_c, 0, 76, 57
2, 306160, Note_on_c, 0, 76, 0
2, 306184, Note_on_c, 0, 87, 91
2, 306256, Note_on_c, 0, 69, 62
2, 306296, Note_on_c, 0, 69, 0
2, 306312, Note_on_c, 0, 75, 64
2, 306388, Note_on_c, 0, 78, 60
2, 306396, Note_on_c, 0, 75, 0
2, 306468, Note_on_c, 0, 81, 55
2, 306472, Note_on_c, 0, 78, 0
2, 306472, Note_on_c, 0, 87, 0
2, 306520, Note_on_c, 0, 75, 51
2, 306556, Note_on_c, 0, 81, 0
2, 306568, Note_on_c, 0, 75, 0
2, 306592, Control_c, 0, 64, 88
2, 306600, Control_c, 0, 64, 40
2, 306604, Note_on_c, 0, 86, 86
2, 306604, Note_on_c, 0, 74, 65
2, 306604, Note_on_c, 0, 68, 57
2, 306604, Note_on_c, 0, 65, 55
2, 306604, Note_on_c, 0, 47, 62
2, 306604, Note_on_c, 0, 59, 57
2, 306608, Control_c, 0, 64, 0
2, 306632, Control_c, 0, 64, 56
2, 306640, Note_on_c, 0, 59, 0
2, 306640, Note_on_c, 0, 47, 0
2, 306640, Control_c, 0, 64, 127
2, 306684, Note_on_c, 0, 68, 59
2, 306704, Note_on_c, 0, 68, 0
2, 306744, Note_on_c, 0, 74, 63
2, 306816, Note_on_c, 0, 74, 0
2, 306820, Note_on_c, 0, 77, 62
2, 306876, Note_on_c, 0, 77, 0
2, 306876, Note_on_c, 0, 80, 55
2, 306936, Note_on_c, 0, 80, 0
2, 306944, Note_on_c, 0, 74, 64
2, 307000, Control_c, 0, 64, 72
2, 307008, Control_c, 0, 64, 0
2, 307012, Note_on_c, 0, 45, 65
2, 307020, Note_on_c, 0, 57, 56
2, 307032, Control_c, 0, 64, 56
2, 307036, Note_on_c, 0, 74, 0
2, 307040, Control_c, 0, 64, 127
2, 307044, Note_on_c, 0, 57, 0
2, 307056, Note_on_c, 0, 45, 0
2, 307100, Note_on_c, 0, 69, 62
2, 307116, Note_on_c, 0, 69, 0
2, 307120, Note_on_c, 0, 68, 0
2, 307120, Note_on_c, 0, 65, 0
2, 307120, Note_on_c, 0, 74, 0
2, 307164, Note_on_c, 0, 74, 69
2, 307228, Note_on_c, 0, 77, 66
2, 307252, Note_on_c, 0, 74, 0
2, 307256, Note_on_c, 0, 86, 0
2, 307296, Note_on_c, 0, 81, 66
2, 307304, Note_on_c, 0, 77, 0
2, 307356, Note_on_c, 0, 81, 0
2, 307360, Note_on_c, 0, 74, 72
2, 307420, Control_c, 0, 64, 56
2, 307428, Control_c, 0, 64, 0
2, 307436, Note_on_c, 0, 74, 0
2, 307444, Note_on_c, 0, 84, 93
2, 307444, Note_on_c, 0, 72, 60
2, 307444, Note_on_c, 0, 65, 57
2, 307444, Note_on_c, 0, 44, 60
2, 307444, Note_on_c, 0, 56, 55
2, 307444, Note_on_c, 0, 62, 57
2, 307456, Control_c, 0, 64, 72
2, 307464, Control_c, 0, 64, 127
2, 307480, Note_on_c, 0, 44, 0
2, 307484, Note_on_c, 0, 56, 0
2, 307536, Note_on_c, 0, 71, 51
2, 307556, Note_on_c, 0, 71, 0
2, 307576, Note_on_c, 0, 72, 0
2, 307588, Note_on_c, 0, 74, 66
2, 307660, Note_on_c, 0, 77, 74
2, 307680, Note_on_c, 0, 74, 0
2, 307700, Note_on_c, 0, 84, 0
2, 307724, Note_on_c, 0, 77, 0
2, 307740, Note_on_c, 0, 83, 78
2, 307740, Note_on_c, 0, 71, 60
2, 307796, Note_on_c, 0, 74, 72
2, 307812, Note_on_c, 0, 83, 0
2, 307864, Note_on_c, 0, 74, 0
2, 307872, Note_on_c, 0, 71, 0
2, 307872, Note_on_c, 0, 57, 54
2, 307872, Note_on_c, 0, 45, 64
2, 307872, Control_c, 0, 64, 40
2, 307880, Note_on_c, 0, 84, 89
2, 307880, Note_on_c, 0, 72, 63
2, 307880, Control_c, 0, 64, 0
2, 307908, Note_on_c, 0, 57, 0
2, 307912, Control_c, 0, 64, 72
2, 307916, Note_on_c, 0, 45, 0
2, 307916, Control_c, 0, 64, 127
2, 307960, Note_on_c, 0, 65, 0
2, 307960, Note_on_c, 0, 62, 0
2, 307968, Note_on_c, 0, 69, 61
2, 307996, Note_on_c, 0, 69, 0
2, 308012, Note_on_c, 0, 72, 0
2, 308020, Note_on_c, 0, 72, 66
2, 308092, Note_on_c, 0, 76, 72
2, 308112, Note_on_c, 0, 72, 0
2, 308136, Note_on_c, 0, 84, 0
2, 308164, Note_on_c, 0, 81, 64
2, 308180, Note_on_c, 0, 76, 0
2, 308232, Note_on_c, 0, 81, 0
2, 308236, Note_on_c, 0, 72, 72
2, 308288, Note_on_c, 0, 72, 0
2, 308328, Note_on_c, 0, 77, 87
2, 308356, Note_on_c, 0, 60, 50
2, 308364, Note_on_c, 0, 57, 53
2, 308396, Control_c, 0, 64, 88
2, 308404, Control_c, 0, 64, 0
2, 308412, Note_on_c, 0, 64, 54
2, 308448, Control_c, 0, 64, 40
2, 308456, Control_c, 0, 64, 127
2, 308488, Note_on_c, 0, 65, 63
2, 308564, Note_on_c, 0, 69, 57
2, 308568, Note_on_c, 0, 65, 0
2, 308604, Note_on_c, 0, 77, 0
2, 308620, Note_on_c, 0, 72, 55
2, 308624, Note_on_c, 0, 69, 0
2, 308692, Note_on_c, 0, 65, 63
2, 308696, Note_on_c, 0, 72, 0
2, 308764, Note_on_c, 0, 75, 81
2, 308768, Note_on_c, 0, 65, 0
2, 308836, Note_on_c, 0, 64, 0
2, 308848, Note_on_c, 0, 63, 58
2, 308856, Control_c, 0, 64, 88
2, 308864, Control_c, 0, 64, 24
2, 308872, Control_c, 0, 64, 0
2, 308888, Control_c, 0, 64, 24
2, 308896, Control_c, 0, 64, 88
2, 308900, Control_c, 0, 64, 127
2, 308924, Note_on_c, 0, 66, 52
2, 308972, Note_on_c, 0, 75, 0
2, 308980, Note_on_c, 0, 69, 51
2, 308992, Note_on_c, 0, 66, 0
2, 309012, Note_on_c, 0, 57, 0
2, 309020, Note_on_c, 0, 60, 0
2, 309028, Note_on_c, 0, 63, 0
2, 309048, Note_on_c, 0, 72, 57
2, 309080, Note_on_c, 0, 69, 0
2, 309100, Note_on_c, 0, 66, 62
2, 309104, Note_on_c, 0, 72, 0
2, 309132, Note_on_c, 0, 66, 0
2, 309228, Control_c, 0, 64, 72
2, 309232, Note_on_c, 0, 83, 84
2, 309232, Note_on_c, 0, 76, 71
2, 309232, Note_on_c, 0, 44, 61
2, 309232, Note_on_c, 0, 56, 56
2, 309232, Note_on_c, 0, 71, 57
2, 309232, Note_on_c, 0, 64, 54
2, 309232, Control_c, 0, 64, 0
2, 309260, Control_c, 0, 64, 40
2, 309268, Note_on_c, 0, 44, 0
2, 309268, Control_c, 0, 64, 104
2, 309272, Note_on_c, 0, 56, 0
2, 309276, Control_c, 0, 64, 127
2, 309280, Note_on_c, 0, 76, 0
2, 309312, Note_on_c, 0, 59, 62
2, 309316, Note_on_c, 0, 71, 56
2, 309344, Note_on_c, 0, 59, 0
2, 309388, Note_on_c, 0, 83, 0
2, 309392, Note_on_c, 0, 76, 62
2, 309408, Note_on_c, 0, 59, 18
2, 309416, Note_on_c, 0, 71, 0
2, 309460, Note_on_c, 0, 80, 55
2, 309468, Note_on_c, 0, 76, 0
2, 309508, Note_on_c, 0, 80, 0
2, 309516, Note_on_c, 0, 71, 56
2, 309556, Note_on_c, 0, 71, 0
2, 309564, Note_on_c, 0, 59, 0
2, 309588, Note_on_c, 0, 76, 73
2, 309668, Note_on_c, 0, 76, 0
2, 309688, Note_on_c, 0, 70, 69
2, 309688, Note_on_c, 0, 64, 58
2, 309704, Control_c, 0, 64, 104
2, 309708, Control_c, 0, 64, 24
2, 309716, Note_on_c, 0, 55, 54
2, 309716, Note_on_c, 0, 43, 56
2, 309716, Control_c, 0, 64, 0
2, 309740, Control_c, 0, 64, 24
2, 309748, Note_on_c, 0, 64, 0
2, 309748, Note_on_c, 0, 71, 0
2, 309748, Control_c, 0, 64, 104
2, 309752, Note_on_c, 0, 43, 0
2, 309756, Control_c, 0, 64, 127
2, 309764, Note_on_c, 0, 55, 0
2, 309776, Note_on_c, 0, 58, 61
2, 309832, Note_on_c, 0, 70, 0
2, 309856, Note_on_c, 0, 63, 58
2, 309924, Note_on_c, 0, 67, 52
2, 309928, Note_on_c, 0, 63, 0
2, 309984, Note_on_c, 0, 70, 56
2, 310000, Note_on_c, 0, 67, 0
2, 310040, Note_on_c, 0, 63, 55
2, 310116, Note_on_c, 0, 63, 0
2, 310124, Note_on_c, 0, 75, 83
2, 310148, Note_on_c, 0, 70, 0
2, 310156, Note_on_c, 0, 55, 24
2, 310172, Control_c, 0, 64, 104
2, 310180, Control_c, 0, 64, 56
2, 310200, Note_on_c, 0, 62, 59
2, 310204, Note_on_c, 0, 64, 0
2, 310204, Control_c, 0, 64, 127
2, 310272, Note_on_c, 0, 63, 58
2, 310348, Note_on_c, 0, 67, 60
2, 310352, Note_on_c, 0, 63, 0
2, 310432, Note_on_c, 0, 70, 62
2, 310440, Note_on_c, 0, 67, 0
2, 310492, Note_on_c, 0, 70, 0
2, 310500, Note_on_c, 0, 63, 56
2, 310528, Note_on_c, 0, 75, 0
2, 310560, Note_on_c, 0, 63, 0
2, 310576, Note_on_c, 0, 73, 79
2, 310620, Note_on_c, 0, 62, 0
2, 310628, Control_c, 0, 64, 40
2, 310636, Control_c, 0, 64, 0
2, 310652, Note_on_c, 0, 61, 52
2, 310668, Control_c, 0, 64, 88
2, 310676, Control_c, 0, 64, 127
2, 310716, Note_on_c, 0, 73, 0
2, 310716, Note_on_c, 0, 64, 55
2, 310728, Note_on_c, 0, 61, 0
2, 310740, Note_on_c, 0, 55, 0
2, 310740, Note_on_c, 0, 58, 0
2, 310780, Note_on_c, 0, 64, 0
2, 310784, Note_on_c, 0, 67, 55
2, 310832, Note_on_c, 0, 70, 63
2, 310844, Note_on_c, 0, 67, 0
2, 310892, Note_on_c, 0, 70, 0
2, 310900, Note_on_c, 0, 64, 70
2, 310932, Note_on_c, 0, 64, 0
2, 311016, Control_c, 0, 64, 40
2, 311020, Note_on_c, 0, 81, 84
2, 311020, Note_on_c, 0, 53, 59
2, 311020, Note_on_c, 0, 41, 60
2, 311020, Note_on_c, 0, 74, 57
2, 311020, Note_on_c, 0, 69, 56
2, 311020, Note_on_c, 0, 62, 56
2, 311020, Note_on_c, 0, 65, 57
2, 311024, Control_c, 0, 64, 0
2, 311048, Control_c, 0, 64, 88
2, 311060, Note_on_c, 0, 41, 0
2, 311060, Control_c, 0, 64, 127
2, 311076, Note_on_c, 0, 53, 0
2, 311092, Note_on_c, 0, 57, 51
2, 311108, Note_on_c, 0, 69, 63
2, 311152, Note_on_c, 0, 69, 0
2, 311152, Note_on_c, 0, 65, 0
2, 311152, Note_on_c, 0, 62, 0
2, 311160, Note_on_c, 0, 81, 0
2, 311172, Note_on_c, 0, 69, 0
2, 311176, Note_on_c, 0, 74, 63
2, 311248, Note_on_c, 0, 74, 0
2, 311248, Note_on_c, 0, 77, 66
2, 311300, Note_on_c, 0, 77, 0
2, 311308, Note_on_c, 0, 69, 60
2, 311352, Note_on_c, 0, 69, 0
2, 311376, Note_on_c, 0, 74, 74
2, 311428, Note_on_c, 0, 74, 0
2, 311432, Note_on_c, 0, 57, 0
2, 311460, Note_on_c, 0, 55, 49
2, 311460, Note_on_c, 0, 53, 50
2, 311460, Note_on_c, 0, 71, 87
2, 311504, Control_c, 0, 64, 88
2, 311512, Control_c, 0, 64, 0
2, 311536, Note_on_c, 0, 74, 0
2, 311540, Note_on_c, 0, 59, 56
2, 311552, Control_c, 0, 64, 72
2, 311560, Control_c, 0, 64, 127
2, 311576, Note_on_c, 0, 53, 0
2, 311580, Note_on_c, 0, 55, 0
2, 311612, Note_on_c, 0, 59, 0
2, 311612, Note_on_c, 0, 62, 64
2, 311676, Note_on_c, 0, 67, 61
2, 311692, Note_on_c, 0, 62, 0
2, 311740, Note_on_c, 0, 71, 61
2, 311752, Note_on_c, 0, 67, 0
2, 311784, Note_on_c, 0, 71, 0
2, 311792, Note_on_c, 0, 62, 68
2, 311796, Note_on_c, 0, 71, 0
2, 311816, Note_on_c, 0, 62, 0
2, 311904, Control_c, 0, 64, 40
2, 311908, Note_on_c, 0, 79, 90
2, 311908, Note_on_c, 0, 40, 61
2, 311908, Note_on_c, 0, 52, 57
2, 311908, Note_on_c, 0, 72, 59
2, 311908, Note_on_c, 0, 67, 61
2, 311908, Note_on_c, 0, 64, 57
2, 311912, Control_c, 0, 64, 0
2, 311936, Note_on_c, 0, 40, 0
2, 311944, Control_c, 0, 64, 72
2, 311948, Note_on_c, 0, 52, 0
2, 311952, Control_c, 0, 64, 127
2, 312000, Note_on_c, 0, 67, 63
2, 312040, Note_on_c, 0, 67, 0
2, 312040, Note_on_c, 0, 72, 0
2, 312040, Note_on_c, 0, 64, 0
2, 312060, Note_on_c, 0, 55, 11
2, 312064, Note_on_c, 0, 79, 0
2, 312064, Note_on_c, 0, 72, 74
2, 312068, Note_on_c, 0, 67, 0
2, 312100, Note_on_c, 0, 60, 57
2, 312136, Note_on_c, 0, 72, 0
2, 312136, Note_on_c, 0, 76, 68
2, 312196, Note_on_c, 0, 76, 0
2, 312200, Note_on_c, 0, 67, 60
2, 312224, Note_on_c, 0, 55, 0
2, 312248, Note_on_c, 0, 67, 0
2, 312276, Note_on_c, 0, 60, 0
2, 312276, Note_on_c, 0, 72, 76
2, 312336, Note_on_c, 0, 72, 0
2, 312360, Note_on_c, 0, 69, 83
2, 312360, Note_on_c, 0, 53, 51
2, 312360, Note_on_c, 0, 52, 53
2, 312440, Control_c, 0, 64, 56
2, 312448, Note_on_c, 0, 57, 51
2, 312448, Control_c, 0, 64, 0
2, 312496, Control_c, 0, 64, 88
2, 312504, Control_c, 0, 64, 127
2, 312508, Note_on_c, 0, 69, 0
2, 312520, Note_on_c, 0, 60, 64
2, 312556, Note_on_c, 0, 53, 0
2, 312568, Note_on_c, 0, 57, 0
2, 312576, Note_on_c, 0, 52, 0
2, 312584, Note_on_c, 0, 65, 60
2, 312592, Note_on_c, 0, 60, 0
2, 312656, Note_on_c, 0, 69, 61
2, 312660, Note_on_c, 0, 65, 0
2, 312700, Note_on_c, 0, 69, 0
2, 312712, Note_on_c, 0, 60, 64
2, 312728, Note_on_c, 0, 60, 0
2, 312804, Note_on_c, 0, 38, 67
2, 312808, Note_on_c, 0, 77, 86
2, 312808, Note_on_c, 0, 65, 60
2, 312808, Note_on_c, 0, 71, 57
2, 312808, Note_on_c, 0, 50, 57
2, 312808, Note_on_c, 0, 62, 57
2, 312808, Control_c, 0, 64, 88
2, 312816, Control_c, 0, 64, 0
2, 312824, Note_on_c, 0, 50, 61
2, 312840, Note_on_c, 0, 38, 0
2, 312856, Control_c, 0, 64, 88
2, 312864, Control_c, 0, 64, 127
2, 312872, Note_on_c, 0, 50, 0
2, 312888, Note_on_c, 0, 65, 70
2, 312900, Note_on_c, 0, 55, 24
2, 312900, Note_on_c, 0, 53, 27
2, 312920, Note_on_c, 0, 55, 0
2, 312940, Note_on_c, 0, 71, 0
2, 312940, Note_on_c, 0, 50, 0
2, 312940, Note_on_c, 0, 62, 0
2, 312940, Note_on_c, 0, 65, 0
2, 312944, Note_on_c, 0, 77, 0
2, 312956, Note_on_c, 0, 65, 0
2, 312960, Note_on_c, 0, 71, 64
2, 313020, Note_on_c, 0, 74, 65
2, 313032, Note_on_c, 0, 71, 0
2, 313088, Note_on_c, 0, 74, 0
2, 313088, Note_on_c, 0, 65, 64
2, 313132, Note_on_c, 0, 65, 0
2, 313164, Note_on_c, 0, 71, 78
2, 313192, Note_on_c, 0, 53, 0
2, 313228, Note_on_c, 0, 71, 0
2, 313244, Note_on_c, 0, 68, 81
2, 313244, Note_on_c, 0, 50, 50
2, 313244, Note_on_c, 0, 52, 53
2, 313284, Control_c, 0, 64, 104
2, 313292, Control_c, 0, 64, 0
2, 313324, Note_on_c, 0, 56, 51
2, 313352, Control_c, 0, 64, 127
2, 313360, Note_on_c, 0, 52, 0
2, 313376, Note_on_c, 0, 68, 0
2, 313384, Note_on_c, 0, 56, 0
2, 313384, Note_on_c, 0, 59, 60
2, 313388, Note_on_c, 0, 50, 0
2, 313448, Note_on_c, 0, 64, 54
2, 313468, Note_on_c, 0, 59, 0
2, 313516, Note_on_c, 0, 68, 50
2, 313536, Note_on_c, 0, 64, 0
2, 313568, Note_on_c, 0, 68, 0
2, 313568, Note_on_c, 0, 59, 57
2, 313596, Note_on_c, 0, 59, 0
2, 313668, Note_on_c, 0, 36, 58
2, 313668, Control_c, 0, 64, 40
2, 313672, Note_on_c, 0, 76, 80
2, 313672, Note_on_c, 0, 64, 60
2, 313672, Note_on_c, 0, 69, 57
2, 313672, Note_on_c, 0, 60, 57
2, 313676, Control_c, 0, 64, 0
2, 313680, Note_on_c, 0, 48, 63
2, 313696, Note_on_c, 0, 36, 0
2, 313720, Control_c, 0, 64, 88
2, 313728, Control_c, 0, 64, 127
2, 313744, Note_on_c, 0, 48, 0
2, 313744, Note_on_c, 0, 52, 62
2, 313760, Note_on_c, 0, 64, 70
2, 313800, Note_on_c, 0, 76, 0
2, 313804, Note_on_c, 0, 60, 0
2, 313804, Note_on_c, 0, 69, 0
2, 313804, Note_on_c, 0, 64, 0
2, 313832, Note_on_c, 0, 64, 0
2, 313832, Note_on_c, 0, 69, 68
2, 313904, Note_on_c, 0, 69, 0
2, 313904, Note_on_c, 0, 72, 62
2, 313952, Note_on_c, 0, 72, 0
2, 313960, Note_on_c, 0, 64, 57
2, 314004, Note_on_c, 0, 64, 0
2, 314036, Note_on_c, 0, 69, 64
2, 314088, Note_on_c, 0, 69, 0
2, 314096, Note_on_c, 0, 52, 0
2, 314128, Note_on_c, 0, 65, 80
2, 314128, Note_on_c, 0, 50, 54
2, 314128, Note_on_c, 0, 48, 53
2, 314172, Control_c, 0, 64, 104
2, 314180, Control_c, 0, 64, 24
2, 314188, Control_c, 0, 64, 0
2, 314208, Note_on_c, 0, 53, 59
2, 314240, Control_c, 0, 64, 56
2, 314244, Control_c, 0, 64, 127
2, 314280, Note_on_c, 0, 65, 0
2, 314284, Note_on_c, 0, 57, 55
2, 314296, Note_on_c, 0, 50, 0
2, 314296, Note_on_c, 0, 53, 0
2, 314304, Note_on_c, 0, 48, 0
2, 314344, Note_on_c, 0, 57, 0
2, 314344, Note_on_c, 0, 62, 62
2, 314412, Note_on_c, 0, 62, 0
2, 314412, Note_on_c, 0, 65, 59
2, 314468, Note_on_c, 0, 65, 0
2, 314472, Note_on_c, 0, 57, 68
2, 314504, Note_on_c, 0, 57, 0
2, 314580, Note_on_c, 0, 74, 89
2, 314580, Note_on_c, 0, 35, 58
2, 314580, Note_on_c, 0, 47, 52
2, 314580, Note_on_c, 0, 62, 60
2, 314580, Note_on_c, 0, 67, 57
2, 314580, Note_on_c, 0, 59, 57
2, 314580, Control_c, 0, 64, 40
2, 314584, Control_c, 0, 64, 0
2, 314620, Note_on_c, 0, 35, 0
2, 314628, Control_c, 0, 64, 72
2, 314636, Control_c, 0, 64, 127
2, 314644, Note_on_c, 0, 47, 0
2, 314680, Note_on_c, 0, 50, 30
2, 314704, Note_on_c, 0, 50, 0
2, 314712, Note_on_c, 0, 67, 0
2, 314712, Note_on_c, 0, 62, 0
2, 314712, Note_on_c, 0, 59, 0
2, 314720, Note_on_c, 0, 74, 0
2, 314736, Note_on_c, 0, 62, 56
2, 314788, Note_on_c, 0, 62, 0
2, 314796, Note_on_c, 0, 50, 60
2, 314816, Note_on_c, 0, 65, 60
2, 314836, Note_on_c, 0, 50, 0
2, 314892, Note_on_c, 0, 65, 0
2, 314892, Note_on_c, 0, 67, 64
2, 314944, Note_on_c, 0, 67, 0
2, 314964, Note_on_c, 0, 62, 62
2, 315020, Note_on_c, 0, 62, 0
2, 315064, Control_c, 0, 64, 0
2, 315076, Control_c, 0, 64, 0
2, 315084, Note_on_c, 0, 76, 87
2, 315084, Note_on_c, 0, 36, 57
2, 315084, Note_on_c, 0, 48, 47
2, 315084, Note_on_c, 0, 72, 48
2, 315084, Note_on_c, 0, 67, 51
2, 315108, Note_on_c, 0, 36, 0
2, 315120, Control_c, 0, 64, 88
2, 315128, Control_c, 0, 64, 127
2, 315136, Note_on_c, 0, 48, 0
2, 315196, Note_on_c, 0, 55, 57
2, 315256, Note_on_c, 0, 55, 0
2, 315260, Note_on_c, 0, 67, 0
2, 315260, Note_on_c, 0, 72, 0
2, 315280, Note_on_c, 0, 64, 58
2, 315332, Note_on_c, 0, 64, 0
2, 315360, Note_on_c, 0, 67, 60
2, 315428, Note_on_c, 0, 67, 0
2, 315432, Note_on_c, 0, 72, 58
2, 315504, Note_on_c, 0, 72, 0
2, 315508, Note_on_c, 0, 64, 61
2, 315572, Control_c, 0, 64, 56
2, 315580, Note_on_c, 0, 64, 0
2, 315580, Control_c, 0, 64, 0
2, 315592, Note_on_c, 0, 38, 52
2, 315596, Note_on_c, 0, 74, 87
2, 315604, Note_on_c, 0, 50, 61
2, 315608, Note_on_c, 0, 38, 0
2, 315628, Note_on_c, 0, 76, 0
2, 315632, Control_c, 0, 64, 72
2, 315640, Control_c, 0, 64, 127
2, 315644, Note_on_c, 0, 50, 0
2, 315676, Note_on_c, 0, 55, 52
2, 315708, Note_on_c, 0, 55, 0
2, 315748, Note_on_c, 0, 65, 59
2, 315784, Note_on_c, 0, 74, 0
2, 315804, Note_on_c, 0, 65, 0
2, 315812, Note_on_c, 0, 67, 59
2, 315876, Note_on_c, 0, 67, 0
2, 315880, Note_on_c, 0, 71, 53
2, 315964, Note_on_c, 0, 71, 0
2, 315964, Note_on_c, 0, 65, 56
2, 316012, Note_on_c, 0, 72, 80
2, 316024, Note_on_c, 0, 65, 0
2, 316052, Note_on_c, 0, 72, 0
2, 316080, Control_c, 0, 64, 104
2, 316088, Note_on_c, 0, 72, 86
2, 316088, Control_c, 0, 64, 24
2, 316096, Control_c, 0, 64, 0
2, 316100, Note_on_c, 0, 40, 54
2, 316116, Note_on_c, 0, 40, 0
2, 316116, Note_on_c, 0, 52, 36
2, 316136, Control_c, 0, 64, 88
2, 316144, Note_on_c, 0, 52, 0
2, 316144, Control_c, 0, 64, 127
2, 316176, Note_on_c, 0, 55, 56
2, 316200, Note_on_c, 0, 55, 0
2, 316208, Note_on_c, 0, 72, 0
2, 316240, Note_on_c, 0, 60, 60
2, 316292, Note_on_c, 0, 64, 58
2, 316304, Note_on_c, 0, 60, 0
2, 316364, Note_on_c, 0, 67, 65
2, 316372, Note_on_c, 0, 64, 0
2, 316408, Note_on_c, 0, 67, 0
2, 316424, Note_on_c, 0, 60, 57
2, 316440, Note_on_c, 0, 60, 0
2, 316540, Control_c, 0, 64, 56
2, 316548, Control_c, 0, 64, 0
2, 316552, Note_on_c, 0, 81, 89
2, 316552, Note_on_c, 0, 41, 54
2, 316568, Note_on_c, 0, 53, 48
2, 316584, Note_on_c, 0, 41, 0
2, 316592, Control_c, 0, 64, 72
2, 316600, Control_c, 0, 64, 127
2, 316608, Note_on_c, 0, 53, 0
2, 316648, Note_on_c, 0, 60, 55
2, 316684, Note_on_c, 0, 81, 0
2, 316700, Note_on_c, 0, 60, 0
2, 316708, Note_on_c, 0, 69, 58
2, 316768, Note_on_c, 0, 69, 0
2, 316784, Note_on_c, 0, 72, 62
2, 316848, Note_on_c, 0, 72, 0
2, 316848, Note_on_c, 0, 74, 66
2, 316896, Note_on_c, 0, 74, 0
2, 316928, Note_on_c, 0, 69, 66
2, 316976, Note_on_c, 0, 69, 0
2, 317004, Control_c, 0, 64, 56
2, 317016, Note_on_c, 0, 43, 56
2, 317016, Note_on_c, 0, 74, 82
2, 317016, Control_c, 0, 64, 0
2, 317032, Note_on_c, 0, 55, 61
2, 317044, Note_on_c, 0, 43, 0
2, 317056, Control_c, 0, 64, 40
2, 317064, Control_c, 0, 64, 127
2, 317084, Note_on_c, 0, 55, 0
2, 317100, Note_on_c, 0, 59, 69
2, 317128, Note_on_c, 0, 59, 0
2, 317180, Note_on_c, 0, 62, 56
2, 317244, Note_on_c, 0, 67, 60
2, 317248, Note_on_c, 0, 62, 0
2, 317276, Note_on_c, 0, 74, 0
2, 317316, Note_on_c, 0, 71, 51
2, 317328, Note_on_c, 0, 67, 0
2, 317376, Note_on_c, 0, 71, 0
2, 317384, Note_on_c, 0, 62, 63
2, 317408, Note_on_c, 0, 62, 0
2, 317484, Control_c, 0, 64, 56
2, 317492, Note_on_c, 0, 41, 57
2, 317496, Note_on_c, 0, 79, 84
2, 317496, Note_on_c, 0, 67, 60
2, 317496, Note_on_c, 0, 70, 60
2, 317496, Control_c, 0, 64, 0
2, 317500, Note_on_c, 0, 53, 63
2, 317524, Note_on_c, 0, 41, 0
2, 317536, Control_c, 0, 64, 88
2, 317540, Note_on_c, 0, 53, 0
2, 317544, Control_c, 0, 64, 127
2, 317576, Note_on_c, 0, 58, 62
2, 317612, Note_on_c, 0, 58, 0
2, 317640, Note_on_c, 0, 67, 64
2, 317708, Note_on_c, 0, 67, 0
2, 317720, Note_on_c, 0, 70, 46
2, 317776, Note_on_c, 0, 70, 0
2, 317792, Note_on_c, 0, 74, 55
2, 317848, Note_on_c, 0, 74, 0
2, 317868, Note_on_c, 0, 67, 59
2, 317916, Control_c, 0, 64, 104
2, 317924, Control_c, 0, 64, 40
2, 317932, Note_on_c, 0, 40, 64
2, 317932, Control_c, 0, 64, 0
2, 317956, Note_on_c, 0, 52, 59
2, 317964, Note_on_c, 0, 40, 0
2, 317968, Control_c, 0, 64, 72
2, 317972, Note_on_c, 0, 52, 0
2, 317972, Control_c, 0, 64, 127
2, 317992, Note_on_c, 0, 67, 0
2, 317992, Note_on_c, 0, 67, 0
2, 318028, Note_on_c, 0, 58, 56
2, 318056, Note_on_c, 0, 70, 0
2, 318060, Note_on_c, 0, 58, 0
2, 318076, Note_on_c, 0, 79, 0
2, 318088, Note_on_c, 0, 67, 58
2, 318152, Note_on_c, 0, 70, 64
2, 318188, Note_on_c, 0, 67, 0
2, 318216, Note_on_c, 0, 73, 58
2, 318220, Note_on_c, 0, 70, 0
2, 318272, Note_on_c, 0, 73, 0
2, 318284, Note_on_c, 0, 67, 66
2, 318348, Control_c, 0, 64, 88
2, 318356, Note_on_c, 0, 67, 0
2, 318356, Control_c, 0, 64, 24
2, 318364, Control_c, 0, 64, 0
2, 318368, Note_on_c, 0, 77, 88
2, 318380, Note_on_c, 0, 38, 57
2, 318388, Note_on_c, 0, 50, 52
2, 318396, Control_c, 0, 64, 56
2, 318404, Note_on_c, 0, 38, 0
2, 318404, Control_c, 0, 64, 127
2, 318412, Note_on_c, 0, 50, 0
2, 318460, Note_on_c, 0, 58, 48
2, 318500, Note_on_c, 0, 58, 0
2, 318516, Note_on_c, 0, 67, 60
2, 318588, Note_on_c, 0, 70, 61
2, 318604, Note_on_c, 0, 67, 0
2, 318628, Note_on_c, 0, 77, 0
2, 318648, Note_on_c, 0, 70, 0
2, 318700, Note_on_c, 0, 76, 79
2, 318720, Note_on_c, 0, 49, 59
2, 318720, Note_on_c, 0, 37, 57
2, 318728, Note_on_c, 0, 67, 63
2, 318768, Note_on_c, 0, 37, 0
2, 318776, Note_on_c, 0, 49, 0
2, 318800, Note_on_c, 0, 76, 0
2, 318800, Note_on_c, 0, 67, 0
2, 318812, Control_c, 0, 64, 104
2, 318816, Note_on_c, 0, 77, 88
2, 318816, Note_on_c, 0, 65, 66
2, 318816, Note_on_c, 0, 69, 63
2, 318820, Control_c, 0, 64, 40
2, 318824, Note_on_c, 0, 38, 60
2, 318828, Note_on_c, 0, 50, 68
2, 318828, Control_c, 0, 64, 0
2, 318852, Note_on_c, 0, 38, 0
2, 318860, Note_on_c, 0, 50, 0
2, 318860, Control_c, 0, 64, 24
2, 318868, Control_c, 0, 64, 88
2, 318876, Control_c, 0, 64, 127
2, 318908, Note_on_c, 0, 57, 58
2, 318944, Note_on_c, 0, 57, 0
2, 318968, Note_on_c, 0, 65, 51
2, 319036, Note_on_c, 0, 69, 56
2, 319060, Note_on_c, 0, 77, 0
2, 319072, Note_on_c, 0, 65, 0
2, 319076, Note_on_c, 0, 65, 0
2, 319076, Note_on_c, 0, 69, 0
2, 319116, Note_on_c, 0, 74, 63
2, 319124, Note_on_c, 0, 69, 0
2, 319192, Note_on_c, 0, 74, 0
2, 319192, Note_on_c, 0, 65, 63
2, 319256, Note_on_c, 0, 65, 0
2, 319260, Control_c, 0, 64, 104
2, 319264, Note_on_c, 0, 76, 88
2, 319268, Control_c, 0, 64, 40
2, 319272, Note_on_c, 0, 40, 65
2, 319276, Control_c, 0, 64, 0
2, 319284, Note_on_c, 0, 52, 60
2, 319304, Note_on_c, 0, 40, 0
2, 319316, Control_c, 0, 64, 56
2, 319324, Control_c, 0, 64, 127
2, 319336, Note_on_c, 0, 52, 0
2, 319372, Note_on_c, 0, 57, 33
2, 319400, Note_on_c, 0, 57, 0
2, 319416, Note_on_c, 0, 67, 59
2, 319472, Note_on_c, 0, 69, 63
2, 319500, Note_on_c, 0, 67, 0
2, 319536, Note_on_c, 0, 73, 56
2, 319540, Note_on_c, 0, 69, 0
2, 319560, Note_on_c, 0, 76, 0
2, 319616, Note_on_c, 0, 67, 59
2, 319624, Note_on_c, 0, 73, 0
2, 319636, Note_on_c, 0, 74, 80
2, 319672, Note_on_c, 0, 74, 0
2, 319680, Note_on_c, 0, 67, 0
2, 319728, Note_on_c, 0, 74, 85
2, 319740, Control_c, 0, 64, 56
2, 319748, Note_on_c, 0, 41, 56
2, 319748, Control_c, 0, 64, 0
2, 319764, Note_on_c, 0, 53, 54
2, 319776, Note_on_c, 0, 41, 0
2, 319788, Control_c, 0, 64, 40
2, 319796, Control_c, 0, 64, 127
2, 319824, Note_on_c, 0, 53, 0
2, 319832, Note_on_c, 0, 57, 54
2, 319852, Note_on_c, 0, 74, 0
2, 319856, Note_on_c, 0, 57, 0
2, 319880, Note_on_c, 0, 62, 53
2, 319932, Note_on_c, 0, 65, 60
2, 319956, Note_on_c, 0, 62, 0
2, 320004, Note_on_c, 0, 65, 0
2, 320004, Note_on_c, 0, 69, 64
2, 320052, Note_on_c, 0, 69, 0
2, 320068, Note_on_c, 0, 62, 48
2, 320084, Note_on_c, 0, 62, 0
2, 320176, Control_c, 0, 64, 104
2, 320188, Control_c, 0, 64, 56
2, 320192, Note_on_c, 0, 82, 92
2, 320192, Note_on_c, 0, 43, 59
2, 320196, Control_c, 0, 64, 0
2, 320208, Note_on_c, 0, 55, 54
2, 320220, Note_on_c, 0, 43, 0
2, 320236, Control_c, 0, 64, 72
2, 320244, Control_c, 0, 64, 127
2, 320248, Note_on_c, 0, 55, 0
2, 320292, Note_on_c, 0, 62, 27
2, 320328, Note_on_c, 0, 82, 0
2, 320336, Note_on_c, 0, 70, 58
2, 320352, Note_on_c, 0, 62, 0
2, 320420, Note_on_c, 0, 70, 0
2, 320420, Note_on_c, 0, 74, 64
2, 320492, Note_on_c, 0, 79, 63
2, 320500, Note_on_c, 0, 74, 0
2, 320552, Note_on_c, 0, 79, 0
2, 320556, Note_on_c, 0, 70, 62
2, 320600, Note_on_c, 0, 70, 0
2, 320628, Control_c, 0, 64, 88
2, 320632, Note_on_c, 0, 76, 90
2, 320636, Note_on_c, 0, 45, 56
2, 320636, Control_c, 0, 64, 24
2, 320644, Note_on_c, 0, 57, 60
2, 320644, Control_c, 0, 64, 0
2, 320656, Note_on_c, 0, 45, 0
2, 320676, Control_c, 0, 64, 24
2, 320684, Control_c, 0, 64, 104
2, 320692, Control_c, 0, 64, 127
2, 320696, Note_on_c, 0, 57, 0
2, 320716, Note_on_c, 0, 61, 56
2, 320748, Note_on_c, 0, 61, 0
2, 320788, Note_on_c, 0, 64, 59
2, 320856, Note_on_c, 0, 64, 0
2, 320856, Note_on_c, 0, 69, 58
2, 320932, Note_on_c, 0, 73, 40
2, 320936, Note_on_c, 0, 69, 0
2, 320980, Note_on_c, 0, 76, 0
2, 320984, Note_on_c, 0, 64, 58
2, 320988, Note_on_c, 0, 73, 0
2, 321016, Note_on_c, 0, 64, 0
2, 321088, Control_c, 0, 64, 104
2, 321096, Control_c, 0, 64, 56
2, 321104, Note_on_c, 0, 43, 53
2, 321104, Note_on_c, 0, 81, 89
2, 321104, Control_c, 0, 64, 0
2, 321112, Note_on_c, 0, 55, 57
2, 321120, Note_on_c, 0, 43, 0
2, 321136, Control_c, 0, 64, 24
2, 321144, Control_c, 0, 64, 104
2, 321152, Note_on_c, 0, 55, 0
2, 321152, Control_c, 0, 64, 127
2, 321180, Note_on_c, 0, 60, 61
2, 321248, Note_on_c, 0, 69, 58
2, 321252, Note_on_c, 0, 60, 0
2, 321328, Note_on_c, 0, 72, 59
2, 321344, Note_on_c, 0, 69, 0
2, 321384, Note_on_c, 0, 72, 0
2, 321396, Note_on_c, 0, 76, 61
2, 321452, Note_on_c, 0, 76, 0
2, 321464, Note_on_c, 0, 69, 70
2, 321512, Control_c, 0, 64, 104
2, 321520, Control_c, 0, 64, 40
2, 321528, Control_c, 0, 64, 0
2, 321536, Note_on_c, 0, 42, 56
2, 321536, Note_on_c, 0, 54, 60
2, 321536, Note_on_c, 0, 69, 60
2, 321536, Note_on_c, 0, 72, 66
2, 321568, Control_c, 0, 64, 72
2, 321572, Note_on_c, 0, 42, 0
2, 321576, Control_c, 0, 64, 127
2, 321580, Note_on_c, 0, 69, 0
2, 321580, Note_on_c, 0, 54, 0
2, 321620, Note_on_c, 0, 60, 55
2, 321636, Note_on_c, 0, 60, 0
2, 321664, Note_on_c, 0, 81, 0
2, 321680, Note_on_c, 0, 69, 62
2, 321756, Note_on_c, 0, 72, 58
2, 321764, Note_on_c, 0, 69, 0
2, 321820, Note_on_c, 0, 75, 57
2, 321824, Note_on_c, 0, 72, 0
2, 321880, Note_on_c, 0, 75, 0
2, 321896, Note_on_c, 0, 69, 37
2, 321944, Control_c, 0, 64, 56
2, 321952, Control_c, 0, 64, 0
2, 321956, Note_on_c, 0, 69, 0
2, 321960, Note_on_c, 0, 79, 85
2, 321960, Note_on_c, 0, 40, 62
2, 321972, Note_on_c, 0, 52, 59
2, 321992, Control_c, 0, 64, 72
2, 321996, Note_on_c, 0, 40, 0
2, 322000, Note_on_c, 0, 52, 0
2, 322000, Control_c, 0, 64, 127
2, 322052, Note_on_c, 0, 60, 60
2, 322092, Note_on_c, 0, 60, 0
2, 322092, Note_on_c, 0, 69, 47
2, 322172, Note_on_c, 0, 72, 63
2, 322180, Note_on_c, 0, 72, 0
2, 322180, Note_on_c, 0, 69, 0
2, 322188, Note_on_c, 0, 79, 0
2, 322224, Note_on_c, 0, 69, 0
2, 322236, Note_on_c, 0, 72, 0
2, 322272, Note_on_c, 0, 78, 78
2, 322288, Note_on_c, 0, 51, 58
2, 322288, Note_on_c, 0, 39, 61
2, 322308, Note_on_c, 0, 69, 62
2, 322332, Note_on_c, 0, 51, 0
2, 322340, Note_on_c, 0, 39, 0
2, 322380, Note_on_c, 0, 69, 0
2, 322384, Note_on_c, 0, 79, 88
2, 322384, Note_on_c, 0, 67, 57
2, 322384, Note_on_c, 0, 71, 60
2, 322388, Note_on_c, 0, 78, 0
2, 322392, Note_on_c, 0, 40, 65
2, 322392, Control_c, 0, 64, 56
2, 322400, Note_on_c, 0, 52, 60
2, 322400, Control_c, 0, 64, 0
2, 322420, Note_on_c, 0, 40, 0
2, 322440, Note_on_c, 0, 52, 0
2, 322440, Control_c, 0, 64, 72
2, 322448, Control_c, 0, 64, 127
2, 322484, Note_on_c, 0, 59, 64
2, 322512, Note_on_c, 0, 59, 0
2, 322548, Note_on_c, 0, 67, 48
2, 322612, Note_on_c, 0, 71, 58
2, 322632, Note_on_c, 0, 67, 0
2, 322632, Note_on_c, 0, 79, 0
2, 322632, Note_on_c, 0, 67, 0
2, 322676, Note_on_c, 0, 71, 0
2, 322680, Note_on_c, 0, 76, 53
2, 322748, Note_on_c, 0, 76, 0
2, 322748, Note_on_c, 0, 67, 62
2, 322812, Note_on_c, 0, 67, 0
2, 322824, Control_c, 0, 64, 104
2, 322832, Note_on_c, 0, 78, 85
2, 322832, Control_c, 0, 64, 40
2, 322836, Control_c, 0, 64, 0
2, 322840, Note_on_c, 0, 42, 58
2, 322844, Note_on_c, 0, 54, 57
2, 322864, Note_on_c, 0, 42, 0
2, 322880, Control_c, 0, 64, 72
2, 322888, Control_c, 0, 64, 127
2, 322912, Note_on_c, 0, 54, 0
2, 322924, Note_on_c, 0, 59, 49
2, 322948, Note_on_c, 0, 59, 0
2, 322964, Note_on_c, 0, 69, 61
2, 323016, Note_on_c, 0, 71, 54
2, 323024, Note_on_c, 0, 69, 0
2, 323028, Note_on_c, 0, 71, 0
2, 323080, Note_on_c, 0, 78, 0
2, 323080, Note_on_c, 0, 71, 0
2, 323080, Note_on_c, 0, 75, 55
2, 323140, Note_on_c, 0, 69, 62
2, 323156, Note_on_c, 0, 75, 0
2, 323196, Note_on_c, 0, 69, 0
2, 323196, Note_on_c, 0, 76, 80
2, 323240, Note_on_c, 0, 76, 0
2, 323272, Note_on_c, 0, 76, 81
2, 323272, Note_on_c, 0, 43, 62
2, 323276, Control_c, 0, 64, 56
2, 323284, Control_c, 0, 64, 0
2, 323288, Note_on_c, 0, 55, 59
2, 323296, Note_on_c, 0, 43, 0
2, 323316, Control_c, 0, 64, 24
2, 323324, Control_c, 0, 64, 88
2, 323332, Note_on_c, 0, 55, 0
2, 323336, Control_c, 0, 64, 127
2, 323360, Note_on_c, 0, 59, 57
2, 323384, Note_on_c, 0, 59, 0
2, 323420, Note_on_c, 0, 64, 57
2, 323472, Note_on_c, 0, 67, 59
2, 323488, Note_on_c, 0, 64, 0
2, 323500, Note_on_c, 0, 76, 0
2, 323528, Note_on_c, 0, 71, 49
2, 323536, Note_on_c, 0, 67, 0
2, 323588, Note_on_c, 0, 64, 57
2, 323592, Note_on_c, 0, 71, 0
2, 323616, Note_on_c, 0, 64, 0
2, 323736, Control_c, 0, 64, 72
2, 323740, Control_c, 0, 64, 0
2, 323752, Note_on_c, 0, 48, 57
2, 323752, Note_on_c, 0, 36, 59
2, 323752, Note_on_c, 0, 76, 96
2, 323752, Note_on_c, 0, 88, 90
2, 323780, Control_c, 0, 64, 72
2, 323788, Note_on_c, 0, 36, 0
2, 323788, Control_c, 0, 64, 127
2, 323792, Note_on_c, 0, 48, 0
2, 323848, Note_on_c, 0, 58, 61
2, 323884, Note_on_c, 0, 58, 0
2, 323900, Note_on_c, 0, 64, 55
2, 323964, Note_on_c, 0, 64, 0
2, 323964, Note_on_c, 0, 67, 66
2, 324036, Note_on_c, 0, 70, 48
2, 324040, Note_on_c, 0, 67, 0
2, 324092, Note_on_c, 0, 70, 0
2, 324096, Note_on_c, 0, 64, 49
2, 324148, Note_on_c, 0, 64, 0
2, 324172, Control_c, 0, 64, 0
2, 324216, Note_on_c, 0, 75, 89
2, 324216, Note_on_c, 0, 87, 88
2, 324216, Control_c, 0, 64, 127
2, 324296, Note_on_c, 0, 57, 61
2, 324356, Note_on_c, 0, 57, 0
2, 324368, Note_on_c, 0, 63, 46
2, 324392, Note_on_c, 0, 88, 0
2, 324408, Note_on_c, 0, 76, 0
2, 324432, Note_on_c, 0, 66, 53
2, 324440, Note_on_c, 0, 63, 0
2, 324500, Note_on_c, 0, 66, 0
2, 324500, Note_on_c, 0, 69, 55
2, 324564, Note_on_c, 0, 69, 0
2, 324564, Note_on_c, 0, 63, 51
2, 324608, Note_on_c, 0, 63, 0
2, 324632, Control_c, 0, 64, 104
2, 324644, Control_c, 0, 64, 40
2, 324648, Note_on_c, 0, 74, 82
2, 324648, Note_on_c, 0, 86, 85
2, 324652, Note_on_c, 0, 47, 57
2, 324652, Note_on_c, 0, 35, 61
2, 324652, Note_on_c, 0, 68, 59
2, 324652, Note_on_c, 0, 59, 59
2, 324652, Note_on_c, 0, 62, 60
2, 324652, Control_c, 0, 64, 0
2, 324676, Note_on_c, 0, 35, 0
2, 324684, Control_c, 0, 64, 72
2, 324688, Note_on_c, 0, 47, 0
2, 324692, Control_c, 0, 64, 127
2, 324736, Note_on_c, 0, 56, 55
2, 324760, Note_on_c, 0, 68, 0
2, 324800, Note_on_c, 0, 62, 60
2, 324856, Note_on_c, 0, 87, 0
2, 324860, Note_on_c, 0, 62, 0
2, 324872, Note_on_c, 0, 75, 0
2, 324888, Note_on_c, 0, 65, 60
2, 324932, Note_on_c, 0, 65, 0
2, 324944, Note_on_c, 0, 68, 53
2, 325004, Note_on_c, 0, 68, 0
2, 325012, Note_on_c, 0, 62, 57
2, 325040, Control_c, 0, 64, 56
2, 325048, Control_c, 0, 64, 0
2, 325060, Note_on_c, 0, 33, 54
2, 325072, Note_on_c, 0, 45, 60
2, 325072, Note_on_c, 0, 69, 62
2, 325072, Note_on_c, 0, 57, 62
2, 325072, Note_on_c, 0, 65, 60
2, 325080, Control_c, 0, 64, 24
2, 325088, Control_c, 0, 64, 88
2, 325092, Note_on_c, 0, 33, 0
2, 325096, Control_c, 0, 64, 127
2, 325100, Note_on_c, 0, 45, 0
2, 325116, Note_on_c, 0, 62, 0
2, 325152, Note_on_c, 0, 57, 63
2, 325188, Note_on_c, 0, 57, 0
2, 325224, Note_on_c, 0, 62, 67
2, 325264, Note_on_c, 0, 74, 0
2, 325280, Note_on_c, 0, 65, 63
2, 325288, Note_on_c, 0, 86, 0
2, 325296, Note_on_c, 0, 62, 0
2, 325296, Note_on_c, 0, 56, 0
2, 325296, Note_on_c, 0, 59, 0
2, 325308, Note_on_c, 0, 62, 0
2, 325352, Note_on_c, 0, 65, 0
2, 325352, Note_on_c, 0, 69, 69
2, 325404, Note_on_c, 0, 69, 0
2, 325416, Note_on_c, 0, 62, 59
2, 325464, Control_c, 0, 64, 88
2, 325472, Control_c, 0, 64, 24
2, 325480, Note_on_c, 0, 32, 60
2, 325480, Control_c, 0, 64, 0
2, 325492, Note_on_c, 0, 62, 0
2, 325492, Note_on_c, 0, 72, 89
2, 325492, Note_on_c, 0, 44, 56
2, 325492, Note_on_c, 0, 60, 54
2, 325492, Note_on_c, 0, 53, 58
2, 325492, Note_on_c, 0, 50, 58
2, 325492, Note_on_c, 0, 84, 84
2, 325492, Note_on_c, 0, 60, 55
2, 325492, Note_on_c, 0, 62, 56
2, 325492, Note_on_c, 0, 56, 56
2, 325512, Note_on_c, 0, 32, 0
2, 325516, Control_c, 0, 64, 56
2, 325520, Control_c, 0, 64, 127
2, 325532, Note_on_c, 0, 44, 0
2, 325584, Note_on_c, 0, 59, 68
2, 325612, Note_on_c, 0, 59, 0
2, 325652, Note_on_c, 0, 62, 60
2, 325712, Note_on_c, 0, 65, 0
2, 325712, Note_on_c, 0, 69, 0
2, 325712, Note_on_c, 0, 57, 0
2, 325728, Note_on_c, 0, 65, 72
2, 325740, Note_on_c, 0, 72, 0
2, 325748, Note_on_c, 0, 84, 0
2, 325748, Note_on_c, 0, 56, 0
2, 325748, Note_on_c, 0, 60, 0
2, 325748, Note_on_c, 0, 62, 0
2, 325752, Note_on_c, 0, 60, 0
2, 325764, Note_on_c, 0, 62, 0
2, 325784, Note_on_c, 0, 65, 0
2, 325816, Note_on_c, 0, 71, 85
2, 325816, Note_on_c, 0, 83, 84
2, 325816, Note_on_c, 0, 59, 62
2, 325864, Note_on_c, 0, 62, 57
2, 325896, Note_on_c, 0, 71, 0
2, 325916, Note_on_c, 0, 59, 0
2, 325916, Note_on_c, 0, 83, 0
2, 325924, Note_on_c, 0, 62, 0
2, 325928, Control_c, 0, 64, 56
2, 325936, Note_on_c, 0, 33, 61
2, 325936, Control_c, 0, 64, 0
2, 325944, Note_on_c, 0, 72, 84
2, 325944, Note_on_c, 0, 84, 85
2, 325948, Note_on_c, 0, 45, 56
2, 325948, Note_on_c, 0, 60, 62
2, 325948, Note_on_c, 0, 76, 52
2, 325948, Note_on_c, 0, 57, 58
2, 325972, Note_on_c, 0, 33, 0
2, 325976, Control_c, 0, 64, 72
2, 325984, Control_c, 0, 64, 127
2, 326024, Note_on_c, 0, 45, 0
2, 326028, Note_on_c, 0, 52, 43
2, 326084, Note_on_c, 0, 60, 55
2, 326136, Note_on_c, 0, 53, 0
2, 326136, Note_on_c, 0, 50, 0
2, 326152, Note_on_c, 0, 64, 55
2, 326168, Note_on_c, 0, 60, 0
2, 326172, Note_on_c, 0, 76, 0
2, 326208, Note_on_c, 0, 60, 0
2, 326208, Note_on_c, 0, 57, 0
2, 326208, Note_on_c, 0, 52, 0
2, 326224, Note_on_c, 0, 64, 0
2, 326224, Note_on_c, 0, 69, 62
2, 326292, Note_on_c, 0, 60, 54
2, 326344, Note_on_c, 0, 69, 0
2, 326352, Note_on_c, 0, 60, 0
2, 326360, Control_c, 0, 64, 56
2, 326368, Control_c, 0, 64, 0
2, 326372, Note_on_c, 0, 71, 80
2, 326372, Note_on_c, 0, 35, 62
2, 326372, Note_on_c, 0, 59, 60
2, 326372, Note_on_c, 0, 83, 82
2, 326376, Note_on_c, 0, 47, 53
2, 326400, Control_c, 0, 64, 56
2, 326408, Note_on_c, 0, 35, 0
2, 326408, Control_c, 0, 64, 127
2, 326416, Note_on_c, 0, 47, 0
2, 326456, Note_on_c, 0, 52, 53
2, 326480, Note_on_c, 0, 52, 0
2, 326500, Note_on_c, 0, 62, 61
2, 326504, Note_on_c, 0, 59, 0
2, 326524, Note_on_c, 0, 71, 0
2, 326548, Note_on_c, 0, 84, 0
2, 326556, Note_on_c, 0, 72, 0
2, 326556, Note_on_c, 0, 64, 62
2, 326564, Note_on_c, 0, 62, 0
2, 326592, Note_on_c, 0, 83, 0
2, 326624, Note_on_c, 0, 68, 63
2, 326636, Note_on_c, 0, 64, 0
2, 326688, Note_on_c, 0, 62, 63
2, 326696, Note_on_c, 0, 68, 0
2, 326740, Note_on_c, 0, 69, 83
2, 326740, Note_on_c, 0, 81, 82
2, 326748, Note_on_c, 0, 62, 0
2, 326784, Note_on_c, 0, 69, 0
2, 326812, Note_on_c, 0, 69, 82
2, 326812, Note_on_c, 0, 81, 86
2, 326824, Note_on_c, 0, 36, 61
2, 326824, Control_c, 0, 64, 56
2, 326832, Note_on_c, 0, 48, 57
2, 326832, Control_c, 0, 64, 0
2, 326856, Note_on_c, 0, 36, 0
2, 326864, Control_c, 0, 64, 40
2, 326872, Control_c, 0, 64, 127
2, 326888, Note_on_c, 0, 48, 0
2, 326892, Note_on_c, 0, 52, 60
2, 326932, Note_on_c, 0, 52, 0
2, 326936, Note_on_c, 0, 69, 0
2, 326960, Note_on_c, 0, 81, 0
2, 326964, Note_on_c, 0, 57, 58
2, 327020, Note_on_c, 0, 60, 63
2, 327032, Note_on_c, 0, 81, 0
2, 327036, Note_on_c, 0, 57, 0
2, 327100, Note_on_c, 0, 60, 0
2, 327100, Note_on_c, 0, 64, 57
2, 327148, Note_on_c, 0, 64, 0
2, 327164, Note_on_c, 0, 57, 50
2, 327180, Note_on_c, 0, 57, 0
2, 327288, Control_c, 0, 64, 88
2, 327292, Note_on_c, 0, 53, 56
2, 327292, Note_on_c, 0, 41, 58
2, 327296, Control_c, 0, 64, 0
2, 327300, Note_on_c, 0, 81, 97
2, 327300, Note_on_c, 0, 93, 97
2, 327300, Note_on_c, 0, 69, 70
2, 327300, Note_on_c, 0, 65, 65
2, 327336, Control_c, 0, 64, 88
2, 327340, Note_on_c, 0, 41, 0
2, 327340, Control_c, 0, 64, 127
2, 327360, Note_on_c, 0, 53, 0
2, 327404, Note_on_c, 0, 63, 67
2, 327436, Note_on_c, 0, 63, 0
2, 327468, Note_on_c, 0, 69, 69
2, 327512, Note_on_c, 0, 81, 0
2, 327520, Note_on_c, 0, 65, 0
2, 327520, Note_on_c, 0, 93, 0
2, 327520, Note_on_c, 0, 69, 0
2, 327532, Note_on_c, 0, 72, 72
2, 327540, Note_on_c, 0, 69, 0
2, 327600, Note_on_c, 0, 75, 57
2, 327616, Note_on_c, 0, 72, 0
2, 327656, Note_on_c, 0, 75, 0
2, 327660, Note_on_c, 0, 69, 57
2, 327724, Note_on_c, 0, 69, 0
2, 327748, Note_on_c, 0, 80, 91
2, 327748, Note_on_c, 0, 92, 93
2, 327748, Note_on_c, 0, 68, 70
2, 327820, Note_on_c, 0, 62, 62
2, 327860, Note_on_c, 0, 62, 0
2, 327876, Note_on_c, 0, 68, 64
2, 327952, Note_on_c, 0, 71, 60
2, 327960, Note_on_c, 0, 68, 0
2, 327968, Note_on_c, 0, 68, 0
2, 327968, Note_on_c, 0, 92, 0
2, 328032, Note_on_c, 0, 74, 55
2, 328036, Note_on_c, 0, 80, 0
2, 328036, Note_on_c, 0, 71, 0
2, 328084, Note_on_c, 0, 68, 51
2, 328120, Note_on_c, 0, 74, 0
2, 328132, Note_on_c, 0, 68, 0
2, 328156, Control_c, 0, 64, 88
2, 328164, Control_c, 0, 64, 40
2, 328168, Note_on_c, 0, 79, 86
2, 328168, Note_on_c, 0, 67, 65
2, 328168, Note_on_c, 0, 73, 60
2, 328168, Note_on_c, 0, 64, 55
2, 328168, Note_on_c, 0, 40, 62
2, 328168, Note_on_c, 0, 52, 57
2, 328168, Note_on_c, 0, 91, 88
2, 328172, Control_c, 0, 64, 0
2, 328196, Control_c, 0, 64, 56
2, 328204, Note_on_c, 0, 52, 0
2, 328204, Note_on_c, 0, 40, 0
2, 328204, Control_c, 0, 64, 127
2, 328248, Note_on_c, 0, 61, 59
2, 328308, Note_on_c, 0, 67, 63
2, 328380, Note_on_c, 0, 67, 0
2, 328384, Note_on_c, 0, 70, 62
2, 328440, Note_on_c, 0, 70, 0
2, 328440, Note_on_c, 0, 73, 55
2, 328500, Note_on_c, 0, 73, 0
2, 328508, Note_on_c, 0, 67, 64
2, 328512, Note_on_c, 0, 73, 0
2, 328564, Control_c, 0, 64, 72
2, 328572, Control_c, 0, 64, 0
2, 328576, Note_on_c, 0, 38, 65
2, 328584, Note_on_c, 0, 50, 56
2, 328584, Note_on_c, 0, 74, 70
2, 328584, Note_on_c, 0, 70, 61
2, 328584, Note_on_c, 0, 67, 63
2, 328596, Control_c, 0, 64, 56
2, 328600, Note_on_c, 0, 67, 0
2, 328604, Control_c, 0, 64, 127
2, 328608, Note_on_c, 0, 50, 0
2, 328620, Note_on_c, 0, 38, 0
2, 328664, Note_on_c, 0, 62, 62
2, 328684, Note_on_c, 0, 64, 0
2, 328684, Note_on_c, 0, 61, 0
2, 328684, Note_on_c, 0, 67, 0
2, 328692, Note_on_c, 0, 62, 0
2, 328728, Note_on_c, 0, 67, 69
2, 328772, Note_on_c, 0, 91, 0
2, 328792, Note_on_c, 0, 70, 66
2, 328816, Note_on_c, 0, 67, 0
2, 328820, Note_on_c, 0, 79, 0
2, 328860, Note_on_c, 0, 74, 63
2, 328868, Note_on_c, 0, 70, 0
2, 328920, Note_on_c, 0, 74, 0
2, 328924, Note_on_c, 0, 67, 68
2, 328984, Control_c, 0, 64, 56
2, 328992, Control_c, 0, 64, 0
2, 329000, Note_on_c, 0, 67, 0
2, 329008, Note_on_c, 0, 77, 93
2, 329008, Note_on_c, 0, 65, 60
2, 329008, Note_on_c, 0, 37, 60
2, 329008, Note_on_c, 0, 49, 55
2, 329008, Note_on_c, 0, 61, 57
2, 329008, Note_on_c, 0, 89, 90
2, 329020, Control_c, 0, 64, 72
2, 329028, Control_c, 0, 64, 127
2, 329044, Note_on_c, 0, 37, 0
2, 329048, Note_on_c, 0, 49, 0
2, 329100, Note_on_c, 0, 64, 51
2, 329120, Note_on_c, 0, 64, 0
2, 329140, Note_on_c, 0, 65, 0
2, 329152, Note_on_c, 0, 67, 66
2, 329188, Note_on_c, 0, 67, 0
2, 329188, Note_on_c, 0, 74, 0
2, 329188, Note_on_c, 0, 70, 0
2, 329224, Note_on_c, 0, 70, 74
2, 329228, Note_on_c, 0, 89, 0
2, 329244, Note_on_c, 0, 67, 0
2, 329264, Note_on_c, 0, 77, 0
2, 329288, Note_on_c, 0, 70, 0
2, 329304, Note_on_c, 0, 76, 78
2, 329304, Note_on_c, 0, 64, 62
2, 329304, Note_on_c, 0, 88, 85
2, 329360, Note_on_c, 0, 67, 72
2, 329376, Note_on_c, 0, 76, 0
2, 329428, Note_on_c, 0, 67, 0
2, 329436, Note_on_c, 0, 64, 0
2, 329436, Note_on_c, 0, 50, 54
2, 329436, Note_on_c, 0, 38, 64
2, 329436, Control_c, 0, 64, 40
2, 329444, Note_on_c, 0, 77, 89
2, 329444, Note_on_c, 0, 65, 63
2, 329444, Note_on_c, 0, 89, 89
2, 329444, Note_on_c, 0, 62, 60
2, 329444, Control_c, 0, 64, 0
2, 329472, Note_on_c, 0, 50, 0
2, 329476, Control_c, 0, 64, 72
2, 329480, Note_on_c, 0, 38, 0
2, 329480, Control_c, 0, 64, 127
2, 329524, Note_on_c, 0, 88, 0
2, 329524, Note_on_c, 0, 61, 0
2, 329532, Note_on_c, 0, 62, 61
2, 329560, Note_on_c, 0, 62, 0
2, 329576, Note_on_c, 0, 65, 0
2, 329584, Note_on_c, 0, 65, 66
2, 329656, Note_on_c, 0, 69, 72
2, 329664, Note_on_c, 0, 62, 0
2, 329664, Note_on_c, 0, 89, 0
2, 329676, Note_on_c, 0, 65, 0
2, 329700, Note_on_c, 0, 77, 0
2, 329728, Note_on_c, 0, 74, 64
2, 329744, Note_on_c, 0, 69, 0
2, 329796, Note_on_c, 0, 74, 0
2, 329800, Note_on_c, 0, 65, 72
2, 329852, Note_on_c, 0, 65, 0
2, 329892, Note_on_c, 0, 82, 91
2, 329892, Note_on_c, 0, 70, 72
2, 329892, Note_on_c, 0, 58, 45
2, 329892, Note_on_c, 0, 50, 56
2, 329892, Control_c, 0, 64, 127
2, 329908, Note_on_c, 0, 50, 0
2, 329948, Note_on_c, 0, 58, 0
2, 329996, Note_on_c, 0, 65, 58
2, 330012, Note_on_c, 0, 70, 0
2, 330088, Note_on_c, 0, 70, 55
2, 330180, Note_on_c, 0, 74, 56
2, 330200, Note_on_c, 0, 70, 0
2, 330252, Note_on_c, 0, 77, 63
2, 330256, Note_on_c, 0, 82, 0
2, 330260, Note_on_c, 0, 74, 0
2, 330328, Note_on_c, 0, 70, 47
2, 330340, Note_on_c, 0, 77, 0
2, 330408, Note_on_c, 0, 70, 0
2, 330412, Note_on_c, 0, 80, 90
2, 330412, Note_on_c, 0, 68, 60
2, 330412, Note_on_c, 0, 65, 60
2, 330420, Note_on_c, 0, 65, 0
2, 330428, Note_on_c, 0, 59, 51
2, 330500, Note_on_c, 0, 65, 60
2, 330584, Note_on_c, 0, 68, 55
2, 330628, Note_on_c, 0, 65, 0
2, 330656, Note_on_c, 0, 68, 0
2, 330660, Note_on_c, 0, 59, 0
2, 330664, Note_on_c, 0, 71, 57
2, 330688, Note_on_c, 0, 80, 0
2, 330740, Note_on_c, 0, 77, 57
2, 330752, Note_on_c, 0, 71, 0
2, 330808, Note_on_c, 0, 77, 0
2, 330812, Note_on_c, 0, 68, 53
2, 330848, Note_on_c, 0, 68, 0
2, 330900, Control_c, 0, 64, 104
2, 330908, Control_c, 0, 64, 24
2, 330912, Note_on_c, 0, 81, 82
2, 330912, Note_on_c, 0, 72, 75
2, 330912, Note_on_c, 0, 69, 60
2, 330912, Note_on_c, 0, 63, 60
2, 330916, Note_on_c, 0, 39, 52
2, 330916, Control_c, 0, 64, 0
2, 330920, Note_on_c, 0, 51, 60
2, 330936, Control_c, 0, 64, 72
2, 330944, Control_c, 0, 64, 127
2, 330948, Note_on_c, 0, 39, 0
2, 330956, Note_on_c, 0, 81, 0
2, 330956, Note_on_c, 0, 72, 0
2, 330960, Note_on_c, 0, 51, 0
2, 331004, Note_on_c, 0, 53, 60
2, 331052, Note_on_c, 0, 65, 0
2, 331052, Note_on_c, 0, 68, 0
2, 331100, Note_on_c, 0, 65, 62
2, 331160, Note_on_c, 0, 65, 0
2, 331176, Note_on_c, 0, 69, 63
2, 331204, Note_on_c, 0, 53, 0
2, 331240, Note_on_c, 0, 69, 0
2, 331252, Note_on_c, 0, 72, 66
2, 331316, Note_on_c, 0, 72, 0
2, 331340, Note_on_c, 0, 60, 53
2, 331416, Control_c, 0, 64, 56
2, 331424, Control_c, 0, 64, 0
2, 331428, Note_on_c, 0, 60, 0
2, 331432, Note_on_c, 0, 69, 71
2, 331432, Note_on_c, 0, 61, 60
2, 331432, Note_on_c, 0, 42, 47
2, 331440, Note_on_c, 0, 49, 53
2, 331448, Note_on_c, 0, 37, 55
2, 331456, Control_c, 0, 64, 56
2, 331464, Control_c, 0, 64, 127
2, 331476, Note_on_c, 0, 49, 0
2, 331520, Note_on_c, 0, 37, 0
2, 331532, Note_on_c, 0, 53, 62
2, 331552, Note_on_c, 0, 63, 0
2, 331552, Note_on_c, 0, 69, 0
2, 331572, Note_on_c, 0, 53, 0
2, 331592, Note_on_c, 0, 69, 0
2, 331620, Note_on_c, 0, 57, 50
2, 331688, Note_on_c, 0, 61, 54
2, 331704, Note_on_c, 0, 57, 0
2, 331756, Note_on_c, 0, 61, 0
2, 331768, Note_on_c, 0, 65, 57
2, 331824, Note_on_c, 0, 65, 0
2, 331832, Note_on_c, 0, 57, 60
2, 331848, Note_on_c, 0, 57, 0
2, 331944, Control_c, 0, 64, 40
2, 331952, Control_c, 0, 64, 0
2, 331960, Note_on_c, 0, 82, 87
2, 331964, Note_on_c, 0, 70, 69
2, 331972, Note_on_c, 0, 58, 50
2, 331972, Note_on_c, 0, 50, 64
2, 331984, Control_c, 0, 64, 72
2, 331992, Control_c, 0, 64, 127
2, 332004, Note_on_c, 0, 50, 0
2, 332024, Note_on_c, 0, 58, 0
2, 332048, Note_on_c, 0, 65, 64
2, 332064, Note_on_c, 0, 70, 0
2, 332072, Note_on_c, 0, 42, 0
2, 332072, Note_on_c, 0, 61, 0
2, 332128, Note_on_c, 0, 70, 60
2, 332216, Note_on_c, 0, 70, 0
2, 332216, Note_on_c, 0, 74, 64
2, 332288, Note_on_c, 0, 77, 68
2, 332300, Note_on_c, 0, 82, 0
2, 332324, Note_on_c, 0, 74, 0
2, 332360, Note_on_c, 0, 70, 49
2, 332380, Note_on_c, 0, 77, 0
2, 332432, Note_on_c, 0, 70, 0
2, 332448, Note_on_c, 0, 80, 89
2, 332448, Note_on_c, 0, 68, 63
2, 332448, Note_on_c, 0, 65, 59
2, 332460, Note_on_c, 0, 65, 0
2, 332468, Note_on_c, 0, 59, 54
2, 332544, Note_on_c, 0, 65, 62
2, 332620, Note_on_c, 0, 68, 53
2, 332668, Note_on_c, 0, 68, 0
2, 332668, Note_on_c, 0, 65, 0
2, 332676, Note_on_c, 0, 65, 0
2, 332684, Note_on_c, 0, 68, 0
2, 332688, Note_on_c, 0, 80, 0
2, 332692, Note_on_c, 0, 71, 62
2, 332732, Note_on_c, 0, 59, 0
2, 332772, Note_on_c, 0, 77, 65
2, 332788, Note_on_c, 0, 71, 0
2, 332832, Note_on_c, 0, 68, 52
2, 332840, Note_on_c, 0, 77, 0
2, 332888, Note_on_c, 0, 68, 0
2, 332928, Control_c, 0, 64, 40
2, 332936, Note_on_c, 0, 81, 82
2, 332936, Note_on_c, 0, 72, 64
2, 332936, Note_on_c, 0, 63, 57
2, 332936, Control_c, 0, 64, 0
2, 332940, Note_on_c, 0, 69, 74
2, 332948, Note_on_c, 0, 51, 63
2, 332948, Note_on_c, 0, 39, 58
2, 332968, Control_c, 0, 64, 40
2, 332976, Note_on_c, 0, 39, 0
2, 332976, Note_on_c, 0, 81, 0
2, 332976, Control_c, 0, 64, 127
2, 332988, Note_on_c, 0, 51, 0
2, 332992, Note_on_c, 0, 69, 0
2, 333032, Note_on_c, 0, 53, 63
2, 333116, Note_on_c, 0, 65, 58
2, 333156, Note_on_c, 0, 63, 0
2, 333156, Note_on_c, 0, 72, 0
2, 333176, Note_on_c, 0, 65, 0
2, 333184, Note_on_c, 0, 69, 63
2, 333216, Note_on_c, 0, 53, 0
2, 333248, Note_on_c, 0, 69, 0
2, 333264, Note_on_c, 0, 72, 64
2, 333324, Note_on_c, 0, 72, 0
2, 333348, Note_on_c, 0, 60, 63
2, 333416, Control_c, 0, 64, 104
2, 333420, Note_on_c, 0, 60, 0
2, 333424, Control_c, 0, 64, 24
2, 333432, Control_c, 0, 64, 0
2, 333448, Note_on_c, 0, 69, 80
2, 333448, Note_on_c, 0, 37, 63
2, 333448, Note_on_c, 0, 49, 58
2, 333448, Note_on_c, 0, 61, 56
2, 333448, Note_on_c, 0, 42, 55
2, 333468, Control_c, 0, 64, 104
2, 333472, Note_on_c, 0, 37, 0
2, 333476, Control_c, 0, 64, 127
2, 333480, Note_on_c, 0, 49, 0
2, 333536, Note_on_c, 0, 53, 66
2, 333568, Note_on_c, 0, 53, 0
2, 333600, Note_on_c, 0, 69, 0
2, 333616, Note_on_c, 0, 57, 51
2, 333668, Note_on_c, 0, 42, 0
2, 333668, Note_on_c, 0, 61, 0
2, 333684, Note_on_c, 0, 61, 54
2, 333704, Note_on_c, 0, 57, 0
2, 333764, Note_on_c, 0, 61, 0
2, 333768, Note_on_c, 0, 65, 59
2, 333828, Note_on_c, 0, 65, 0
2, 333840, Note_on_c, 0, 57, 49
2, 333852, Note_on_c, 0, 57, 0
2, 333960, Note_on_c, 0, 82, 96
2, 333960, Note_on_c, 0, 70, 77
2, 333960, Control_c, 0, 64, 40
2, 333964, Control_c, 0, 64, 0
2, 333976, Note_on_c, 0, 50, 60
2, 333984, Note_on_c, 0, 58, 52
2, 333984, Note_on_c, 0, 53, 57
2, 333988, Control_c, 0, 64, 56
2, 333996, Control_c, 0, 64, 127
2, 334008, Note_on_c, 0, 50, 0
2, 334028, Note_on_c, 0, 58, 0
2, 334056, Note_on_c, 0, 65, 58
2, 334064, Note_on_c, 0, 70, 0
2, 334128, Note_on_c, 0, 70, 60
2, 334172, Note_on_c, 0, 70, 0
2, 334204, Note_on_c, 0, 53, 0
2, 334216, Note_on_c, 0, 74, 53
2, 334276, Note_on_c, 0, 74, 0
2, 334284, Note_on_c, 0, 77, 68
2, 334300, Note_on_c, 0, 82, 0
2, 334348, Note_on_c, 0, 77, 0
2, 334360, Note_on_c, 0, 70, 60
2, 334428, Note_on_c, 0, 70, 0
2, 334436, Note_on_c, 0, 80, 86
2, 334436, Note_on_c, 0, 68, 60
2, 334436, Note_on_c, 0, 65, 57
2, 334448, Note_on_c, 0, 59, 55
2, 334456, Note_on_c, 0, 65, 0
2, 334524, Note_on_c, 0, 65, 68
2, 334600, Note_on_c, 0, 68, 55
2, 334640, Note_on_c, 0, 80, 0
2, 334656, Note_on_c, 0, 68, 0
2, 334656, Note_on_c, 0, 65, 0
2, 334656, Note_on_c, 0, 68, 0
2, 334660, Note_on_c, 0, 65, 0
2, 334676, Note_on_c, 0, 71, 62
2, 334692, Note_on_c, 0, 59, 0
2, 334752, Note_on_c, 0, 77, 61
2, 334756, Note_on_c, 0, 71, 0
2, 334812, Note_on_c, 0, 68, 46
2, 334824, Note_on_c, 0, 77, 0
2, 334860, Note_on_c, 0, 68, 0
2, 334904, Control_c, 0, 64, 88
2, 334912, Note_on_c, 0, 81, 80
2, 334912, Control_c, 0, 64, 0
2, 334920, Note_on_c, 0, 69, 69
2, 334928, Note_on_c, 0, 39, 49
2, 334928, Note_on_c, 0, 54, 57
2, 334928, Note_on_c, 0, 66, 57
2, 334928, Note_on_c, 0, 63, 57
2, 334932, Note_on_c, 0, 51, 55
2, 334948, Note_on_c, 0, 39, 0
2, 334952, Note_on_c, 0, 81, 0
2, 334952, Control_c, 0, 64, 56
2, 334956, Control_c, 0, 64, 127
2, 334960, Note_on_c, 0, 69, 0
2, 334964, Note_on_c, 0, 51, 0
2, 335012, Note_on_c, 0, 54, 64
2, 335096, Note_on_c, 0, 57, 52
2, 335148, Note_on_c, 0, 54, 0
2, 335148, Note_on_c, 0, 63, 0
2, 335148, Note_on_c, 0, 66, 0
2, 335152, Note_on_c, 0, 54, 0
2, 335172, Note_on_c, 0, 61, 57
2, 335188, Note_on_c, 0, 57, 0
2, 335240, Note_on_c, 0, 61, 0
2, 335252, Note_on_c, 0, 66, 56
2, 335312, Note_on_c, 0, 66, 0
2, 335328, Note_on_c, 0, 57, 52
2, 335372, Note_on_c, 0, 57, 0
2, 335440, Note_on_c, 0, 40, 61
2, 335440, Note_on_c, 0, 67, 70
2, 335448, Note_on_c, 0, 52, 53
2, 335452, Control_c, 0, 64, 24
2, 335460, Control_c, 0, 64, 88
2, 335468, Control_c, 0, 64, 127
2, 335492, Note_on_c, 0, 40, 0
2, 335500, Note_on_c, 0, 52, 0
2, 335536, Note_on_c, 0, 55, 26
2, 335568, Note_on_c, 0, 55, 0
2, 335588, Note_on_c, 0, 67, 0
2, 335600, Note_on_c, 0, 58, 47
2, 335644, Note_on_c, 0, 58, 0
2, 335672, Note_on_c, 0, 61, 51
2, 335736, Note_on_c, 0, 61, 0
2, 335752, Note_on_c, 0, 64, 47
2, 335820, Note_on_c, 0, 64, 0
2, 335832, Note_on_c, 0, 58, 48
2, 335848, Note_on_c, 0, 58, 0
2, 335952, Note_on_c, 0, 80, 58
2, 335952, Note_on_c, 0, 92, 65
2, 335952, Note_on_c, 0, 83, 70
2, 335956, Note_on_c, 0, 68, 63
2, 335972, Note_on_c, 0, 52, 56
2, 335972, Note_on_c, 0, 59, 50
2, 335996, Control_c, 0, 64, 104
2, 336004, Control_c, 0, 64, 0
2, 336044, Note_on_c, 0, 64, 58
2, 336056, Control_c, 0, 64, 56
2, 336060, Note_on_c, 0, 68, 0
2, 336064, Control_c, 0, 64, 127
2, 336124, Note_on_c, 0, 68, 53
2, 336172, Note_on_c, 0, 92, 0
2, 336180, Note_on_c, 0, 80, 0
2, 336188, Note_on_c, 0, 68, 0
2, 336200, Note_on_c, 0, 71, 56
2, 336272, Note_on_c, 0, 71, 0
2, 336284, Note_on_c, 0, 76, 44
2, 336332, Note_on_c, 0, 76, 0
2, 336340, Note_on_c, 0, 68, 53
2, 336348, Note_on_c, 0, 59, 0
2, 336424, Note_on_c, 0, 64, 0
2, 336424, Note_on_c, 0, 68, 0
2, 336428, Note_on_c, 0, 78, 84
2, 336428, Note_on_c, 0, 90, 64
2, 336428, Note_on_c, 0, 52, 59
2, 336428, Note_on_c, 0, 64, 57
2, 336448, Note_on_c, 0, 59, 51
2, 336524, Note_on_c, 0, 64, 63
2, 336600, Note_on_c, 0, 66, 50
2, 336612, Note_on_c, 0, 64, 0
2, 336640, Note_on_c, 0, 59, 0
2, 336648, Note_on_c, 0, 90, 0
2, 336648, Note_on_c, 0, 52, 0
2, 336648, Note_on_c, 0, 52, 0
2, 336648, Note_on_c, 0, 64, 0
2, 336684, Note_on_c, 0, 71, 51
2, 336688, Note_on_c, 0, 66, 0
2, 336744, Note_on_c, 0, 78, 0
2, 336760, Note_on_c, 0, 71, 0
2, 336768, Note_on_c, 0, 76, 58
2, 336812, Note_on_c, 0, 66, 36
2, 336852, Note_on_c, 0, 66, 0
2, 336880, Note_on_c, 0, 76, 0
2, 336924, Control_c, 0, 64, 88
2, 336928, Note_on_c, 0, 79, 87
2, 336928, Note_on_c, 0, 91, 60
2, 336928, Note_on_c, 0, 64, 57
2, 336928, Note_on_c, 0, 82, 56
2, 336932, Note_on_c, 0, 67, 68
2, 336932, Note_on_c, 0, 40, 60
2, 336932, Control_c, 0, 64, 0
2, 336940, Note_on_c, 0, 83, 0
2, 336948, Note_on_c, 0, 52, 57
2, 336956, Note_on_c, 0, 40, 0
2, 336980, Note_on_c, 0, 79, 0
2, 336980, Control_c, 0, 64, 56
2, 336988, Control_c, 0, 64, 127
2, 336996, Note_on_c, 0, 67, 0
2, 336996, Note_on_c, 0, 52, 0
2, 337024, Note_on_c, 0, 55, 59
2, 337100, Note_on_c, 0, 58, 52
2, 337148, Note_on_c, 0, 64, 0
2, 337148, Note_on_c, 0, 91, 0
2, 337148, Note_on_c, 0, 82, 0
2, 337152, Note_on_c, 0, 58, 0
2, 337172, Note_on_c, 0, 61, 48
2, 337240, Note_on_c, 0, 61, 0
2, 337256, Note_on_c, 0, 64, 52
2, 337280, Note_on_c, 0, 55, 0
2, 337320, Note_on_c, 0, 64, 0
2, 337332, Note_on_c, 0, 58, 55
2, 337404, Note_on_c, 0, 58, 0
2, 337428, Control_c, 0, 64, 104
2, 337432, Note_on_c, 0, 40, 58
2, 337432, Note_on_c, 0, 65, 64
2, 337432, Note_on_c, 0, 61, 56
2, 337436, Control_c, 0, 64, 24
2, 337444, Note_on_c, 0, 52, 55
2, 337444, Control_c, 0, 64, 0
2, 337484, Control_c, 0, 64, 72
2, 337492, Control_c, 0, 64, 127
2, 337496, Note_on_c, 0, 52, 0
2, 337512, Note_on_c, 0, 53, 60
2, 337596, Note_on_c, 0, 59, 52
2, 337652, Note_on_c, 0, 61, 0
2, 337656, Note_on_c, 0, 59, 0
2, 337672, Note_on_c, 0, 61, 62
2, 337720, Note_on_c, 0, 61, 0
2, 337748, Note_on_c, 0, 65, 56
2, 337756, Note_on_c, 0, 53, 0
2, 337808, Note_on_c, 0, 65, 0
2, 337840, Note_on_c, 0, 59, 47
2, 337856, Note_on_c, 0, 59, 0
2, 337860, Note_on_c, 0, 40, 0
2, 337932, Note_on_c, 0, 59, 45
2, 337936, Note_on_c, 0, 78, 87
2, 337936, Note_on_c, 0, 90, 60
2, 337936, Note_on_c, 0, 86, 58
2, 337936, Note_on_c, 0, 52, 48
2, 337936, Note_on_c, 0, 66, 65
2, 337936, Note_on_c, 0, 62, 58
2, 337944, Note_on_c, 0, 65, 0
2, 338008, Control_c, 0, 64, 72
2, 338016, Control_c, 0, 64, 0
2, 338024, Note_on_c, 0, 66, 0
2, 338028, Note_on_c, 0, 62, 60
2, 338072, Control_c, 0, 64, 104
2, 338076, Control_c, 0, 64, 127
2, 338100, Note_on_c, 0, 66, 46
2, 338156, Note_on_c, 0, 66, 0
2, 338156, Note_on_c, 0, 62, 0
2, 338180, Note_on_c, 0, 71, 59
2, 338240, Note_on_c, 0, 71, 0
2, 338244, Note_on_c, 0, 78, 0
2, 338252, Note_on_c, 0, 74, 53
2, 338256, Note_on_c, 0, 59, 0
2, 338296, Note_on_c, 0, 74, 0
2, 338316, Note_on_c, 0, 66, 49
2, 338364, Note_on_c, 0, 66, 0
2, 338400, Note_on_c, 0, 62, 0
2, 338408, Note_on_c, 0, 76, 77
2, 338408, Note_on_c, 0, 88, 58
2, 338420, Note_on_c, 0, 59, 53
2, 338480, Control_c, 0, 64, 88
2, 338488, Control_c, 0, 64, 0
2, 338496, Note_on_c, 0, 62, 60
2, 338528, Control_c, 0, 64, 24
2, 338536, Control_c, 0, 64, 104
2, 338540, Note_on_c, 0, 90, 0
2, 338544, Control_c, 0, 64, 127
2, 338568, Note_on_c, 0, 64, 56
2, 338616, Note_on_c, 0, 64, 0
2, 338628, Note_on_c, 0, 52, 0
2, 338640, Note_on_c, 0, 68, 50
2, 338644, Note_on_c, 0, 62, 0
2, 338656, Note_on_c, 0, 59, 0
2, 338676, Note_on_c, 0, 76, 0
2, 338708, Note_on_c, 0, 68, 0
2, 338716, Note_on_c, 0, 74, 62
2, 338776, Note_on_c, 0, 74, 0
2, 338788, Note_on_c, 0, 64, 36
2, 338816, Note_on_c, 0, 64, 0
2, 338876, Control_c, 0, 64, 88
2, 338884, Note_on_c, 0, 77, 81
2, 338884, Note_on_c, 0, 89, 60
2, 338884, Note_on_c, 0, 83, 57
2, 338884, Note_on_c, 0, 62, 57
2, 338884, Control_c, 0, 64, 24
2, 338892, Note_on_c, 0, 65, 54
2, 338892, Note_on_c, 0, 40, 52
2, 338892, Control_c, 0, 64, 0
2, 338904, Note_on_c, 0, 52, 45
2, 338912, Note_on_c, 0, 40, 0
2, 338924, Note_on_c, 0, 77, 0
2, 338924, Note_on_c, 0, 86, 0
2, 338928, Control_c, 0, 64, 56
2, 338940, Note_on_c, 0, 65, 0
2, 338940, Control_c, 0, 64, 127
2, 338948, Note_on_c, 0, 52, 0
2, 338976, Note_on_c, 0, 53, 58
2, 339012, Note_on_c, 0, 88, 0
2, 339048, Note_on_c, 0, 56, 46
2, 339100, Note_on_c, 0, 56, 0
2, 339128, Note_on_c, 0, 59, 48
2, 339184, Note_on_c, 0, 59, 0
2, 339184, Note_on_c, 0, 53, 0
2, 339196, Note_on_c, 0, 62, 50
2, 339260, Note_on_c, 0, 62, 0
2, 339276, Note_on_c, 0, 56, 49
2, 339340, Note_on_c, 0, 56, 0
2, 339376, Note_on_c, 0, 63, 65
2, 339376, Note_on_c, 0, 40, 48
2, 339376, Note_on_c, 0, 52, 50
2, 339376, Note_on_c, 0, 47, 50
2, 339420, Control_c, 0, 64, 56
2, 339424, Control_c, 0, 64, 0
2, 339468, Note_on_c, 0, 51, 52
2, 339488, Note_on_c, 0, 62, 0
2, 339488, Note_on_c, 0, 83, 0
2, 339488, Note_on_c, 0, 89, 0
2, 339488, Control_c, 0, 64, 127
2, 339536, Note_on_c, 0, 63, 0
2, 339544, Note_on_c, 0, 57, 51
2, 339600, Note_on_c, 0, 57, 0
2, 339624, Note_on_c, 0, 40, 0
2, 339628, Note_on_c, 0, 60, 49
2, 339668, Note_on_c, 0, 51, 0
2, 339688, Note_on_c, 0, 60, 0
2, 339696, Note_on_c, 0, 63, 47
2, 339756, Note_on_c, 0, 63, 0
2, 339776, Note_on_c, 0, 57, 56
2, 339792, Note_on_c, 0, 57, 0
2, 339888, Note_on_c, 0, 76, 82
2, 339888, Note_on_c, 0, 88, 61
2, 339888, Note_on_c, 0, 84, 57
2, 339888, Note_on_c, 0, 60, 57
2, 339896, Note_on_c, 0, 64, 55
2, 339904, Note_on_c, 0, 57, 51
2, 339908, Note_on_c, 0, 52, 50
2, 339944, Control_c, 0, 64, 24
2, 339952, Control_c, 0, 64, 0
2, 339968, Note_on_c, 0, 60, 58
2, 339980, Note_on_c, 0, 52, 0
2, 339980, Note_on_c, 0, 47, 0
2, 339988, Note_on_c, 0, 64, 0
2, 340000, Control_c, 0, 64, 56
2, 340008, Control_c, 0, 64, 127
2, 340044, Note_on_c, 0, 64, 55
2, 340124, Note_on_c, 0, 69, 55
2, 340128, Note_on_c, 0, 64, 0
2, 340136, Note_on_c, 0, 60, 0
2, 340148, Note_on_c, 0, 52, 0
2, 340164, Note_on_c, 0, 57, 0
2, 340176, Note_on_c, 0, 76, 0
2, 340188, Note_on_c, 0, 69, 0
2, 340208, Note_on_c, 0, 72, 58
2, 340264, Note_on_c, 0, 72, 0
2, 340284, Note_on_c, 0, 64, 42
2, 340308, Note_on_c, 0, 64, 0
2, 340368, Note_on_c, 0, 73, 80
2, 340368, Note_on_c, 0, 85, 60
2, 340368, Note_on_c, 0, 80, 57
2, 340368, Note_on_c, 0, 52, 57
2, 340392, Note_on_c, 0, 40, 61
2, 340424, Control_c, 0, 64, 104
2, 340432, Control_c, 0, 64, 24
2, 340440, Control_c, 0, 64, 0
2, 340468, Note_on_c, 0, 52, 58
2, 340488, Control_c, 0, 64, 72
2, 340492, Note_on_c, 0, 88, 0
2, 340492, Note_on_c, 0, 84, 0
2, 340492, Note_on_c, 0, 60, 0
2, 340496, Control_c, 0, 64, 127
2, 340540, Note_on_c, 0, 61, 46
2, 340588, Note_on_c, 0, 40, 0
2, 340604, Note_on_c, 0, 52, 0
2, 340624, Note_on_c, 0, 61, 0
2, 340624, Note_on_c, 0, 65, 44
2, 340684, Note_on_c, 0, 65, 0
2, 340696, Note_on_c, 0, 68, 34
2, 340740, Note_on_c, 0, 68, 0
2, 340740, Note_on_c, 0, 73, 0
2, 340752, Note_on_c, 0, 61, 46
2, 340792, Note_on_c, 0, 61, 0
2, 340856, Note_on_c, 0, 74, 77
2, 340856, Note_on_c, 0, 86, 59
2, 340856, Note_on_c, 0, 80, 54
2, 340856, Note_on_c, 0, 64, 51
2, 340864, Note_on_c, 0, 56, 42
2, 340868, Note_on_c, 0, 52, 49
2, 340920, Control_c, 0, 64, 72
2, 340928, Control_c, 0, 64, 0
2, 340940, Note_on_c, 0, 59, 57
2, 340972, Note_on_c, 0, 52, 0
2, 340972, Note_on_c, 0, 80, 0
2, 340972, Note_on_c, 0, 85, 0
2, 340976, Control_c, 0, 64, 56
2, 340984, Control_c, 0, 64, 127
2, 341008, Note_on_c, 0, 62, 58
2, 341052, Note_on_c, 0, 74, 0
2, 341084, Note_on_c, 0, 65, 63
2, 341092, Note_on_c, 0, 62, 0
2, 341108, Note_on_c, 0, 59, 0
2, 341124, Note_on_c, 0, 52, 0
2, 341132, Note_on_c, 0, 56, 0
2, 341156, Note_on_c, 0, 68, 57
2, 341160, Note_on_c, 0, 65, 0
2, 341228, Note_on_c, 0, 68, 0
2, 341236, Note_on_c, 0, 62, 62
2, 341296, Note_on_c, 0, 62, 0
2, 341332, Note_on_c, 0, 71, 75
2, 341332, Note_on_c, 0, 83, 56
2, 341332, Note_on_c, 0, 80, 51
2, 341332, Note_on_c, 0, 76, 51
2, 341332, Note_on_c, 0, 74, 51
2, 341356, Note_on_c, 0, 40, 59
2, 341392, Control_c, 0, 64, 56
2, 341400, Control_c, 0, 64, 0
2, 341424, Note_on_c, 0, 52, 57
2, 341456, Control_c, 0, 64, 72
2, 341460, Note_on_c, 0, 80, 0
2, 341460, Note_on_c, 0, 64, 0
2, 341460, Note_on_c, 0, 86, 0
2, 341464, Control_c, 0, 64, 127
2, 341492, Note_on_c, 0, 59, 51
2, 341548, Note_on_c, 0, 71, 0
2, 341552, Note_on_c, 0, 59, 0
2, 341568, Note_on_c, 0, 62, 55
2, 341572, Note_on_c, 0, 40, 0
2, 341580, Note_on_c, 0, 52, 0
2, 341640, Note_on_c, 0, 62, 0
2, 341644, Note_on_c, 0, 65, 47
2, 341704, Note_on_c, 0, 65, 0
2, 341724, Note_on_c, 0, 59, 60
2, 341764, Note_on_c, 0, 59, 0
2, 341820, Note_on_c, 0, 72, 74
2, 341820, Note_on_c, 0, 84, 53
2, 341820, Note_on_c, 0, 81, 48
2, 341828, Note_on_c, 0, 52, 48
2, 341888, Control_c, 0, 64, 104
2, 341896, Control_c, 0, 64, 24
2, 341904, Control_c, 0, 64, 0
2, 341916, Note_on_c, 0, 57, 44
2, 341936, Note_on_c, 0, 74, 0
2, 341936, Note_on_c, 0, 80, 0
2, 341936, Note_on_c, 0, 83, 0
2, 341968, Control_c, 0, 64, 40
2, 341976, Note_on_c, 0, 60, 49
2, 341976, Control_c, 0, 64, 127
2, 342044, Note_on_c, 0, 60, 0
2, 342056, Note_on_c, 0, 64, 52
2, 342060, Note_on_c, 0, 57, 0
2, 342068, Note_on_c, 0, 52, 0
2, 342084, Note_on_c, 0, 72, 0
2, 342140, Note_on_c, 0, 64, 0
2, 342144, Note_on_c, 0, 69, 50
2, 342216, Note_on_c, 0, 69, 0
2, 342228, Note_on_c, 0, 60, 59
2, 342280, Note_on_c, 0, 60, 0
2, 342320, Note_on_c, 0, 76, 0
2, 342320, Note_on_c, 0, 70, 69
2, 342320, Note_on_c, 0, 82, 48
2, 342320, Note_on_c, 0, 79, 46
2, 342320, Note_on_c, 0, 76, 46
2, 342348, Note_on_c, 0, 40, 61
2, 342376, Control_c, 0, 64, 104
2, 342384, Control_c, 0, 64, 40
2, 342392, Control_c, 0, 64, 0
2, 342420, Note_on_c, 0, 52, 56
2, 342424, Note_on_c, 0, 84, 0
2, 342424, Note_on_c, 0, 81, 0
2, 342448, Control_c, 0, 64, 56
2, 342456, Control_c, 0, 64, 127
2, 342508, Note_on_c, 0, 58, 39
2, 342568, Note_on_c, 0, 58, 0
2, 342588, Note_on_c, 0, 62, 49
2, 342620, Note_on_c, 0, 40, 0
2, 342656, Note_on_c, 0, 52, 0
2, 342660, Note_on_c, 0, 70, 0
2, 342660, Note_on_c, 0, 62, 0
2, 342672, Note_on_c, 0, 67, 42
2, 342728, Note_on_c, 0, 67, 0
2, 342740, Note_on_c, 0, 58, 40
2, 342784, Note_on_c, 0, 58, 0
2, 342856, Note_on_c, 0, 71, 64
2, 342856, Note_on_c, 0, 83, 48
2, 342856, Note_on_c, 0, 80, 44
2, 342856, Note_on_c, 0, 74, 44
2, 342880, Note_on_c, 0, 52, 56
2, 342924, Note_on_c, 0, 82, 0
2, 342924, Note_on_c, 0, 76, 0
2, 342924, Note_on_c, 0, 79, 0
2, 342952, Control_c, 0, 64, 72
2, 342960, Note_on_c, 0, 56, 49
2, 342960, Control_c, 0, 64, 0
2, 343028, Control_c, 0, 64, 24
2, 343036, Note_on_c, 0, 59, 41
2, 343036, Control_c, 0, 64, 88
2, 343044, Control_c, 0, 64, 127
2, 343104, Note_on_c, 0, 59, 0
2, 343124, Note_on_c, 0, 62, 53
2, 343204, Note_on_c, 0, 71, 0
2, 343212, Note_on_c, 0, 62, 0
2, 343216, Note_on_c, 0, 68, 48
2, 343316, Note_on_c, 0, 56, 0
2, 343336, Note_on_c, 0, 68, 0
2, 343340, Note_on_c, 0, 59, 46
2, 343368, Note_on_c, 0, 59, 0
2, 343368, Note_on_c, 0, 52, 0
2, 343460, Note_on_c, 0, 80, 0
2, 343460, Note_on_c, 0, 74, 0
2, 343460, Note_on_c, 0, 83, 0
2, 343644, Note_on_c, 0, 72, 77
2, 343644, Note_on_c, 0, 69, 59
2, 343644, Note_on_c, 0, 45, 60
2, 343644, Note_on_c, 0, 64, 60
2, 343644, Note_on_c, 0, 60, 62
2, 343644, Note_on_c, 0, 52, 42
2, 343644, Note_on_c, 0, 57, 48
2, 343644, Control_c, 0, 64, 127
2, 343668, Control_c, 0, 64, 104
2, 343684, Control_c, 0, 64, 24
2, 343700, Control_c, 0, 64, 0
2, 343744, Control_c, 0, 64, 72
2, 343764, Control_c, 0, 64, 127
2, 343824, Control_c, 0, 64, 56
2, 343840, Control_c, 0, 64, 0
2, 343916, Control_c, 0, 64, 104
2, 343932, Control_c, 0, 64, 127
2, 344412, Note_on_c, 0, 69, 0
2, 344416, Note_on_c, 0, 60, 0
2, 344424, Note_on_c, 0, 45, 0
2, 344424, Note_on_c, 0, 52, 0
2, 344428, Note_on_c, 0, 57, 0
2, 344428, Note_on_c, 0, 72, 0
2, 344432, Note_on_c, 0, 64, 0
2, 344620, Note_on_c, 0, 71, 70
2, 344620, Note_on_c, 0, 64, 49
2, 344620, Note_on_c, 0, 68, 49
2, 344620, Note_on_c, 0, 50, 44
2, 344620, Note_on_c, 0, 52, 40
2, 344620, Note_on_c, 0, 59, 41
2, 344712, Control_c, 0, 64, 104
2, 344732, Control_c, 0, 64, 88
2, 344744, Control_c, 0, 64, 72
2, 344752, Control_c, 0, 64, 88
2, 344760, Control_c, 0, 64, 56
2, 344768, Control_c, 0, 64, 24
2, 344776, Control_c, 0, 64, 40
2, 344784, Control_c, 0, 64, 0
2, 344792, Control_c, 0, 64, 24
2, 344808, Control_c, 0, 64, 0
2, 344940, Control_c, 0, 64, 40
2, 344956, Control_c, 0, 64, 127
2, 344980, Note_on_c, 0, 50, 0
2, 345012, Note_on_c, 0, 52, 0
2, 345016, Note_on_c, 0, 59, 0
2, 345064, Note_on_c, 0, 68, 0
2, 345076, Note_on_c, 0, 64, 0
2, 345108, Note_on_c, 0, 71, 0
2, 345384, Note_on_c, 0, 69, 64
2, 345384, Note_on_c, 0, 64, 39
2, 345384, Note_on_c, 0, 57, 41
2, 345384, Note_on_c, 0, 48, 48
2, 345384, Note_on_c, 0, 52, 44
2, 345384, Control_c, 0, 64, 72
2, 345420, Control_c, 0, 64, 0
2, 345440, Note_on_c, 0, 48, 0
2, 345452, Control_c, 0, 64, 24
2, 345464, Note_on_c, 0, 57, 0
2, 345464, Control_c, 0, 64, 72
2, 345472, Note_on_c, 0, 52, 0
2, 345480, Control_c, 0, 64, 127
2, 345488, Note_on_c, 0, 64, 0
2, 345504, Note_on_c, 0, 69, 0
2, 345712, Note_on_c, 0, 69, 64
2, 345712, Note_on_c, 0, 57, 43
2, 345712, Note_on_c, 0, 48, 43
2, 345712, Note_on_c, 0, 52, 38
2, 345712, Note_on_c, 0, 64, 39
2, 345836, Control_c, 0, 64, 104
2, 345852, Control_c, 0, 64, 56
2, 345868, Control_c, 0, 64, 0
2, 346068, Control_c, 0, 64, 40
2, 346088, Control_c, 0, 64, 104
2, 346100, Control_c, 0, 64, 127
2, 346196, Note_on_c, 0, 48, 0
2, 346212, Note_on_c, 0, 52, 0
2, 346220, Note_on_c, 0, 64, 0
2, 346228, Note_on_c, 0, 57, 0
2, 346260, Note_on_c, 0, 69, 0
2, 346948, Note_on_c, 0, 48, 58
2, 346948, Note_on_c, 0, 69, 62
2, 346948, Note_on_c, 0, 64, 51
2, 346948, Note_on_c, 0, 57, 50
2, 346968, Control_c, 0, 64, 56
2, 346984, Control_c, 0, 64, 24
2, 347016, Note_on_c, 0, 57, 0
2, 347016, Control_c, 0, 64, 72
2, 347028, Note_on_c, 0, 64, 0
2, 347028, Control_c, 0, 64, 127
2, 347056, Note_on_c, 0, 48, 0
2, 347064, Note_on_c, 0, 69, 0
2, 347188, Note_on_c, 0, 71, 73
2, 347196, Note_on_c, 0, 52, 58
2, 347200, Control_c, 0, 64, 72
2, 347208, Note_on_c, 0, 64, 56
2, 347208, Note_on_c, 0, 59, 39
2, 347216, Control_c, 0, 64, 56
2, 347232, Note_on_c, 0, 68, 19
2, 347232, Control_c, 0, 64, 88
2, 347236, Note_on_c, 0, 52, 0
2, 347248, Control_c, 0, 64, 127
2, 347260, Note_on_c, 0, 59, 0
2, 347260, Note_on_c, 0, 68, 0
2, 347268, Note_on_c, 0, 64, 0
2, 347272, Note_on_c, 0, 71, 0
2, 347412, Note_on_c, 0, 72, 88
2, 347416, Control_c, 0, 64, 56
2, 347428, Note_on_c, 0, 64, 66
2, 347436, Note_on_c, 0, 57, 50
2, 347436, Control_c, 0, 64, 0
2, 347440, Note_on_c, 0, 60, 48
2, 347452, Note_on_c, 0, 69, 52
2, 347476, Note_on_c, 0, 69, 0
2, 347480, Control_c, 0, 64, 40
2, 347492, Note_on_c, 0, 64, 0
2, 347492, Note_on_c, 0, 60, 0
2, 347496, Control_c, 0, 64, 127
2, 347508, Note_on_c, 0, 57, 0
2, 347512, Note_on_c, 0, 72, 0
2, 347756, Note_on_c, 0, 76, 85
2, 347768, Note_on_c, 0, 64, 51
2, 347772, Note_on_c, 0, 57, 47
2, 347772, Note_on_c, 0, 50, 46
2, 347772, Note_on_c, 0, 69, 58
2, 347784, Note_on_c, 0, 65, 51
2, 347884, Control_c, 0, 64, 104
2, 347900, Control_c, 0, 64, 40
2, 347916, Control_c, 0, 64, 0
2, 348036, Control_c, 0, 64, 72
2, 348052, Control_c, 0, 64, 127
2, 348308, Note_on_c, 0, 64, 0
2, 348324, Note_on_c, 0, 57, 0
2, 348328, Note_on_c, 0, 50, 0
2, 348328, Note_on_c, 0, 69, 0
2, 348368, Note_on_c, 0, 76, 0
2, 348372, Note_on_c, 0, 65, 0
2, 348704, Note_on_c, 0, 65, 41
2, 348704, Note_on_c, 0, 74, 67
2, 348704, Note_on_c, 0, 69, 44
2, 348708, Note_on_c, 0, 62, 40
2, 348712, Note_on_c, 0, 50, 49
2, 348724, Note_on_c, 0, 57, 41
2, 348812, Control_c, 0, 64, 104
2, 348828, Control_c, 0, 64, 40
2, 348844, Control_c, 0, 64, 0
2, 348968, Control_c, 0, 64, 104
2, 348984, Control_c, 0, 64, 127
2, 349036, Note_on_c, 0, 69, 0
2, 349044, Note_on_c, 0, 50, 0
2, 349052, Note_on_c, 0, 74, 0
2, 349060, Note_on_c, 0, 65, 0
2, 349060, Note_on_c, 0, 62, 0
2, 349072, Note_on_c, 0, 57, 0
2, 349376, Note_on_c, 0, 72, 77
2, 349376, Note_on_c, 0, 51, 54
2, 349376, Note_on_c, 0, 69, 51
2, 349376, Note_on_c, 0, 57, 48
2, 349376, Note_on_c, 0, 60, 52
2, 349376, Note_on_c, 0, 66, 48
2, 349400, Control_c, 0, 64, 88
2, 349404, Control_c, 0, 64, 24
2, 349420, Note_on_c, 0, 69, 0
2, 349424, Note_on_c, 0, 57, 0
2, 349432, Control_c, 0, 64, 0
2, 349440, Note_on_c, 0, 60, 0
2, 349448, Note_on_c, 0, 66, 0
2, 349448, Control_c, 0, 64, 40
2, 349456, Note_on_c, 0, 51, 0
2, 349464, Control_c, 0, 64, 72
2, 349480, Control_c, 0, 64, 127
2, 349492, Note_on_c, 0, 72, 0
2, 349640, Note_on_c, 0, 72, 70
2, 349640, Note_on_c, 0, 64, 49
2, 349640, Note_on_c, 0, 60, 48
2, 349640, Note_on_c, 0, 57, 49
2, 349640, Note_on_c, 0, 52, 50
2, 349640, Note_on_c, 0, 69, 50
2, 349744, Control_c, 0, 64, 104
2, 349760, Control_c, 0, 64, 24
2, 349772, Control_c, 0, 64, 0
2, 349928, Control_c, 0, 64, 88
2, 349944, Control_c, 0, 64, 127
2, 350164, Note_on_c, 0, 69, 0
2, 350192, Note_on_c, 0, 60, 0
2, 350228, Note_on_c, 0, 52, 0
2, 350264, Note_on_c, 0, 72, 0
2, 350264, Note_on_c, 0, 64, 0
2, 350276, Note_on_c, 0, 57, 0
2, 350580, Note_on_c, 0, 71, 64
2, 350580, Note_on_c, 0, 68, 47
2, 350580, Note_on_c, 0, 64, 49
2, 350580, Note_on_c, 0, 52, 52
2, 350580, Note_on_c, 0, 59, 47
2, 350672, Control_c, 0, 64, 24
2, 350688, Control_c, 0, 64, 0
2, 350744, Note_on_c, 0, 52, 0
2, 350764, Note_on_c, 0, 59, 0
2, 350780, Control_c, 0, 64, 104
2, 350788, Note_on_c, 0, 68, 0
2, 350796, Control_c, 0, 64, 127
2, 350808, Note_on_c, 0, 64, 0
2, 350808, Note_on_c, 0, 71, 0
2, 351064, Note_on_c, 0, 70, 67
2, 351064, Note_on_c, 0, 58, 48
2, 351064, Note_on_c, 0, 64, 48
2, 351064, Note_on_c, 0, 50, 50
2, 351064, Note_on_c, 0, 67, 51
2, 351108, Control_c, 0, 64, 104
2, 351120, Control_c, 0, 64, 0
2, 351200, Control_c, 0, 64, 72
2, 351204, Note_on_c, 0, 50, 0
2, 351216, Control_c, 0, 64, 127
2, 351272, Note_on_c, 0, 58, 0
2, 351276, Note_on_c, 0, 64, 0
2, 351348, Note_on_c, 0, 67, 0
2, 351404, Note_on_c, 0, 70, 0
2, 351564, Note_on_c, 0, 69, 66
2, 351564, Note_on_c, 0, 57, 47
2, 351564, Note_on_c, 0, 49, 53
2, 351564, Note_on_c, 0, 64, 46
2, 351564, Note_on_c, 0, 67, 47
2, 351644, Control_c, 0, 64, 88
2, 351664, Control_c, 0, 64, 0
2, 351716, Note_on_c, 0, 49, 0
2, 351724, Note_on_c, 0, 64, 0
2, 351728, Note_on_c, 0, 67, 0
2, 351740, Note_on_c, 0, 57, 0
2, 351740, Control_c, 0, 64, 72
2, 351756, Control_c, 0, 64, 127
2, 351796, Note_on_c, 0, 69, 0
2, 351884, Note_on_c, 0, 49, 42
2, 351924, Note_on_c, 0, 49, 0
2, 351952, Note_on_c, 0, 57, 48
2, 352068, Note_on_c, 0, 57, 0
2, 352104, Note_on_c, 0, 64, 51
2, 352120, Note_on_c, 0, 81, 82
2, 352144, Note_on_c, 0, 69, 57
2, 352144, Note_on_c, 0, 67, 52
2, 352156, Note_on_c, 0, 64, 0
2, 352528, Note_on_c, 0, 67, 0
2, 352576, Note_on_c, 0, 69, 0
2, 352732, Note_on_c, 0, 81, 0
2, 352828, Note_on_c, 0, 76, 59
2, 352868, Note_on_c, 0, 76, 0
2, 352904, Note_on_c, 0, 77, 68
2, 352968, Note_on_c, 0, 76, 82
2, 352980, Note_on_c, 0, 77, 0
2, 353128, Note_on_c, 0, 76, 0
2, 353156, Note_on_c, 0, 75, 77
2, 353324, Note_on_c, 0, 75, 0
2, 353364, Note_on_c, 0, 76, 83
2, 353632, Note_on_c, 0, 76, 0
2, 353652, Note_on_c, 0, 79, 79
2, 353752, Control_c, 0, 64, 56
2, 353768, Control_c, 0, 64, 0
2, 353804, Control_c, 0, 64, 40
2, 353816, Control_c, 0, 64, 104
2, 353832, Control_c, 0, 64, 127
2, 353876, Note_on_c, 0, 79, 0
2, 354180, Note_on_c, 0, 77, 72
2, 354180, Note_on_c, 0, 50, 50
2, 354180, Note_on_c, 0, 57, 48
2, 354180, Note_on_c, 0, 65, 47
2, 354180, Note_on_c, 0, 69, 51
2, 354344, Control_c, 0, 64, 72
2, 354360, Control_c, 0, 64, 0
2, 354500, Control_c, 0, 64, 88
2, 354516, Control_c, 0, 64, 127
2, 354712, Note_on_c, 0, 50, 0
2, 354744, Note_on_c, 0, 65, 0
2, 354772, Note_on_c, 0, 57, 0
2, 354816, Note_on_c, 0, 77, 0
2, 354816, Note_on_c, 0, 69, 0
2, 355112, Note_on_c, 0, 73, 64
2, 355112, Note_on_c, 0, 67, 49
2, 355112, Note_on_c, 0, 69, 51
2, 355112, Note_on_c, 0, 52, 42
2, 355112, Note_on_c, 0, 57, 42
2, 355260, Control_c, 0, 64, 104
2, 355272, Control_c, 0, 64, 24
2, 355288, Control_c, 0, 64, 0
2, 355428, Control_c, 0, 64, 127
2, 355708, Note_on_c, 0, 73, 0
2, 355760, Note_on_c, 0, 57, 0
2, 355796, Note_on_c, 0, 52, 0
2, 355796, Note_on_c, 0, 69, 0
2, 355832, Note_on_c, 0, 67, 0
2, 355924, Note_on_c, 0, 76, 69
2, 356000, Note_on_c, 0, 76, 0
2, 356052, Note_on_c, 0, 74, 70
2, 356052, Note_on_c, 0, 53, 50
2, 356052, Note_on_c, 0, 57, 45
2, 356052, Note_on_c, 0, 69, 61
2, 356188, Control_c, 0, 64, 56
2, 356200, Control_c, 0, 64, 0
2, 356308, Control_c, 0, 64, 56
2, 356324, Control_c, 0, 64, 127
2, 356392, Note_on_c, 0, 74, 0
2, 356396, Note_on_c, 0, 69, 0
2, 356548, Note_on_c, 0, 53, 0
2, 356620, Note_on_c, 0, 57, 0
2, 356712, Note_on_c, 0, 72, 74
2, 356776, Note_on_c, 0, 72, 0
2, 356884, Control_c, 0, 64, 104
2, 356900, Control_c, 0, 64, 0
2, 356932, Note_on_c, 0, 71, 72
2, 356932, Note_on_c, 0, 62, 51
2, 356932, Note_on_c, 0, 50, 56
2, 356932, Note_on_c, 0, 65, 52
2, 356984, Note_on_c, 0, 62, 0
2, 356992, Control_c, 0, 64, 72
2, 357004, Note_on_c, 0, 65, 0
2, 357008, Note_on_c, 0, 71, 0
2, 357012, Note_on_c, 0, 50, 0
2, 357012, Control_c, 0, 64, 127
2, 357100, Control_c, 0, 64, 104
2, 357116, Control_c, 0, 64, 24
2, 357132, Control_c, 0, 64, 0
2, 357152, Note_on_c, 0, 69, 74
2, 357164, Note_on_c, 0, 66, 45
2, 357168, Note_on_c, 0, 60, 45
2, 357180, Note_on_c, 0, 51, 53
2, 357208, Control_c, 0, 64, 56
2, 357224, Control_c, 0, 64, 127
2, 357240, Note_on_c, 0, 60, 0
2, 357248, Note_on_c, 0, 69, 0
2, 357252, Note_on_c, 0, 66, 0
2, 357256, Note_on_c, 0, 51, 0
2, 357420, Note_on_c, 0, 69, 67
2, 357420, Note_on_c, 0, 64, 42
2, 357420, Note_on_c, 0, 52, 55
2, 357420, Note_on_c, 0, 60, 36
2, 357488, Control_c, 0, 64, 104
2, 357504, Control_c, 0, 64, 56
2, 357520, Control_c, 0, 64, 0
2, 357720, Control_c, 0, 64, 56
2, 357736, Control_c, 0, 64, 104
2, 357752, Control_c, 0, 64, 127
2, 358056, Note_on_c, 0, 60, 0
2, 358140, Note_on_c, 0, 69, 0
2, 358192, Note_on_c, 0, 64, 0
2, 358384, Note_on_c, 0, 68, 46
2, 358384, Note_on_c, 0, 64, 37
2, 358384, Note_on_c, 0, 59, 40
2, 358496, Control_c, 0, 64, 72
2, 358508, Control_c, 0, 64, 0
2, 358620, Control_c, 0, 64, 56
2, 358636, Control_c, 0, 64, 127
2, 358752, Note_on_c, 0, 52, 0
2, 358808, Note_on_c, 0, 64, 0
2, 358824, Note_on_c, 0, 59, 0
2, 358832, Note_on_c, 0, 68, 0
2, 359168, Note_on_c, 0, 57, 58
2, 359168, Note_on_c, 0, 57, 48
2, 359168, Note_on_c, 0, 33, 50
2, 359168, Note_on_c, 0, 45, 44
2, 359288, Control_c, 0, 64, 88
2, 359304, Control_c, 0, 64, 24
2, 359316, Control_c, 0, 64, 0
2, 359536, Control_c, 0, 64, 24
2, 359548, Control_c, 0, 64, 56
2, 359552, Note_on_c, 0, 84, 78
2, 359556, Note_on_c, 0, 57, 0
2, 359560, Note_on_c, 0, 81, 56
2, 359568, Note_on_c, 0, 76, 49
2, 359568, Control_c, 0, 64, 88
2, 359572, Note_on_c, 0, 64, 40
2, 359584, Note_on_c, 0, 72, 42
2, 359584, Control_c, 0, 64, 127
2, 359592, Note_on_c, 0, 69, 30
2, 359704, Note_on_c, 0, 33, 0
2, 359728, Note_on_c, 0, 45, 0
2, 359836, Note_on_c, 0, 57, 0
2, 359864, Note_on_c, 0, 64, 0
2, 359884, Note_on_c, 0, 69, 0
2, 359888, Note_on_c, 0, 72, 0
2, 359936, Note_on_c, 0, 81, 0
2, 359940, Note_on_c, 0, 76, 0
2, 359952, Note_on_c, 0, 84, 0
2, 360496, Note_on_c, 0, 83, 68
2, 360496, Note_on_c, 0, 76, 45
2, 360496, Note_on_c, 0, 71, 32
2, 360496, Note_on_c, 0, 62, 38
2, 360496, Note_on_c, 0, 80, 37
2, 360496, Note_on_c, 0, 64, 39
2, 360496, Note_on_c, 0, 68, 38
2, 360628, Control_c, 0, 64, 72
2, 360644, Control_c, 0, 64, 0
2, 360728, Control_c, 0, 64, 104
2, 360744, Control_c, 0, 64, 56
2, 360760, Control_c, 0, 64, 40
2, 360764, Control_c, 0, 64, 72
2, 360776, Control_c, 0, 64, 24
2, 360780, Control_c, 0, 64, 127
2, 360788, Control_c, 0, 64, 0
2, 361196, Note_on_c, 0, 81, 62
2, 361196, Note_on_c, 0, 64, 39
2, 361196, Note_on_c, 0, 76, 39
2, 361196, Note_on_c, 0, 60, 39
2, 361196, Note_on_c, 0, 69, 40
2, 361232, Control_c, 0, 64, 88
2, 361248, Control_c, 0, 64, 0
2, 361264, Note_on_c, 0, 68, 0
2, 361264, Note_on_c, 0, 80, 0
2, 361268, Note_on_c, 0, 64, 0
2, 361268, Note_on_c, 0, 62, 0
2, 361268, Note_on_c, 0, 83, 0
2, 361280, Note_on_c, 0, 76, 0
2, 361288, Note_on_c, 0, 71, 0
2, 361292, Note_on_c, 0, 60, 0
2, 361292, Note_on_c, 0, 76, 0
2, 361292, Note_on_c, 0, 69, 0
2, 361304, Note_on_c, 0, 64, 0
2, 361308, Control_c, 0, 64, 40
2, 361328, Control_c, 0, 64, 104
2, 361340, Note_on_c, 0, 81, 0
2, 361340, Control_c, 0, 64, 127
2, 361556, Note_on_c, 0, 81, 59
2, 361584, Note_on_c, 0, 64, 38
2, 361584, Note_on_c, 0, 60, 38
2, 361592, Note_on_c, 0, 76, 36
2, 361592, Note_on_c, 0, 69, 21
2, 361708, Control_c, 0, 64, 104
2, 361728, Control_c, 0, 64, 56
2, 361744, Control_c, 0, 64, 0
2, 361944, Control_c, 0, 64, 56
2, 361956, Control_c, 0, 64, 88
2, 361976, Control_c, 0, 64, 127
2, 362004, Note_on_c, 0, 60, 0
2, 362032, Note_on_c, 0, 76, 0
2, 362040, Note_on_c, 0, 69, 0
2, 362048, Note_on_c, 0, 81, 0
2, 362056, Note_on_c, 0, 64, 0
2, 362820, Note_on_c, 0, 81, 63
2, 362820, Control_c, 0, 64, 88
2, 362836, Note_on_c, 0, 69, 36
2, 362836, Control_c, 0, 64, 24
2, 362848, Note_on_c, 0, 64, 44
2, 362848, Note_on_c, 0, 60, 27
2, 362852, Control_c, 0, 64, 0
2, 362864, Note_on_c, 0, 76, 24
2, 362868, Control_c, 0, 64, 24
2, 362884, Control_c, 0, 64, 56
2, 362900, Control_c, 0, 64, 104
2, 362912, Note_on_c, 0, 64, 0
2, 362912, Control_c, 0, 64, 127
2, 362940, Note_on_c, 0, 69, 0
2, 362960, Note_on_c, 0, 60, 0
2, 362988, Note_on_c, 0, 81, 0
2, 362992, Note_on_c, 0, 76, 0
2, 363112, Control_c, 0, 64, 40
2, 363120, Note_on_c, 0, 83, 74
2, 363128, Control_c, 0, 64, 0
2, 363136, Note_on_c, 0, 64, 44
2, 363140, Note_on_c, 0, 71, 42
2, 363140, Note_on_c, 0, 76, 48
2, 363148, Note_on_c, 0, 80, 34
2, 363180, Control_c, 0, 64, 72
2, 363192, Note_on_c, 0, 80, 0
2, 363192, Note_on_c, 0, 64, 0
2, 363192, Control_c, 0, 64, 127
2, 363196, Note_on_c, 0, 76, 0
2, 363216, Note_on_c, 0, 71, 0
2, 363216, Note_on_c, 0, 83, 0
2, 363376, Note_on_c, 0, 84, 83
2, 363392, Note_on_c, 0, 76, 62
2, 363392, Note_on_c, 0, 69, 56
2, 363392, Control_c, 0, 64, 40
2, 363396, Note_on_c, 0, 81, 64
2, 363396, Note_on_c, 0, 72, 49
2, 363408, Control_c, 0, 64, 0
2, 363448, Note_on_c, 0, 76, 0
2, 363456, Control_c, 0, 64, 88
2, 363468, Note_on_c, 0, 81, 0
2, 363468, Control_c, 0, 64, 127
2, 363476, Note_on_c, 0, 84, 0
2, 363476, Note_on_c, 0, 72, 0
2, 363496, Note_on_c, 0, 69, 0
2, 363708, Note_on_c, 0, 88, 82
2, 363716, Note_on_c, 0, 76, 37
2, 363720, Note_on_c, 0, 62, 36
2, 363720, Note_on_c, 0, 81, 55
2, 363728, Note_on_c, 0, 69, 44
2, 363732, Note_on_c, 0, 77, 48
2, 363856, Control_c, 0, 64, 104
2, 363876, Control_c, 0, 64, 24
2, 363888, Control_c, 0, 64, 0
2, 364012, Control_c, 0, 64, 88
2, 364028, Control_c, 0, 64, 127
2, 364384, Note_on_c, 0, 76, 0
2, 364448, Note_on_c, 0, 69, 0
2, 364480, Note_on_c, 0, 81, 0
2, 364492, Note_on_c, 0, 77, 0
2, 364516, Note_on_c, 0, 62, 0
2, 364556, Note_on_c, 0, 88, 0
2, 364736, Note_on_c, 0, 86, 70
2, 364744, Note_on_c, 0, 62, 47
2, 364752, Note_on_c, 0, 69, 46
2, 364756, Note_on_c, 0, 74, 45
2, 364764, Note_on_c, 0, 77, 47
2, 364772, Note_on_c, 0, 81, 41
2, 364912, Control_c, 0, 64, 72
2, 364928, Control_c, 0, 64, 0
2, 365036, Control_c, 0, 64, 88
2, 365052, Control_c, 0, 64, 127
2, 365092, Note_on_c, 0, 86, 0
2, 365108, Note_on_c, 0, 77, 0
2, 365112, Note_on_c, 0, 74, 0
2, 365128, Note_on_c, 0, 62, 0
2, 365128, Note_on_c, 0, 81, 0
2, 365156, Note_on_c, 0, 69, 0
2, 365480, Note_on_c, 0, 84, 81
2, 365488, Note_on_c, 0, 63, 44
2, 365492, Note_on_c, 0, 78, 55
2, 365504, Note_on_c, 0, 81, 52
2, 365512, Note_on_c, 0, 72, 38
2, 365512, Control_c, 0, 64, 72
2, 365528, Note_on_c, 0, 69, 35
2, 365532, Control_c, 0, 64, 0
2, 365552, Note_on_c, 0, 81, 0
2, 365572, Note_on_c, 0, 78, 0
2, 365576, Control_c, 0, 64, 24
2, 365592, Control_c, 0, 64, 88
2, 365604, Note_on_c, 0, 69, 0
2, 365608, Note_on_c, 0, 72, 0
2, 365608, Control_c, 0, 64, 127
2, 365616, Note_on_c, 0, 84, 0
2, 365620, Note_on_c, 0, 63, 0
2, 365804, Note_on_c, 0, 84, 75
2, 365828, Note_on_c, 0, 79, 58
2, 365832, Note_on_c, 0, 76, 52
2, 365832, Note_on_c, 0, 72, 42
2, 365832, Note_on_c, 0, 64, 45
2, 365848, Note_on_c, 0, 67, 41
2, 365996, Control_c, 0, 64, 72
2, 366012, Control_c, 0, 64, 0
2, 366120, Control_c, 0, 64, 72
2, 366136, Control_c, 0, 64, 127
2, 366476, Note_on_c, 0, 64, 0
2, 366488, Note_on_c, 0, 67, 0
2, 366576, Note_on_c, 0, 65, 47
2, 366612, Note_on_c, 0, 72, 0
2, 366644, Note_on_c, 0, 76, 0
2, 366648, Note_on_c, 0, 79, 0
2, 366692, Note_on_c, 0, 65, 0
2, 366696, Note_on_c, 0, 84, 0
2, 366856, Note_on_c, 0, 83, 73
2, 366876, Note_on_c, 0, 74, 44
2, 366876, Note_on_c, 0, 79, 52
2, 366876, Note_on_c, 0, 67, 34
2, 366884, Note_on_c, 0, 71, 36
2, 366928, Control_c, 0, 64, 72
2, 366944, Control_c, 0, 64, 0
2, 367036, Control_c, 0, 64, 72
2, 367048, Control_c, 0, 64, 127
2, 367104, Note_on_c, 0, 83, 0
2, 367128, Note_on_c, 0, 67, 0
2, 367128, Note_on_c, 0, 74, 0
2, 367136, Note_on_c, 0, 71, 0
2, 367140, Note_on_c, 0, 79, 0
2, 367404, Note_on_c, 0, 82, 73
2, 367416, Note_on_c, 0, 70, 40
2, 367428, Note_on_c, 0, 74, 44
2, 367432, Note_on_c, 0, 79, 47
2, 367432, Note_on_c, 0, 65, 35
2, 367444, Note_on_c, 0, 67, 38
2, 367468, Control_c, 0, 64, 104
2, 367484, Control_c, 0, 64, 24
2, 367500, Control_c, 0, 64, 0
2, 367528, Control_c, 0, 64, 40
2, 367544, Control_c, 0, 64, 104
2, 367560, Control_c, 0, 64, 127
2, 367580, Note_on_c, 0, 67, 0
2, 367644, Note_on_c, 0, 74, 0
2, 367712, Note_on_c, 0, 65, 0
2, 367748, Note_on_c, 0, 70, 0
2, 367780, Note_on_c, 0, 79, 0
2, 367856, Note_on_c, 0, 82, 0
2, 367952, Note_on_c, 0, 81, 68
2, 367952, Note_on_c, 0, 64, 41
2, 367952, Note_on_c, 0, 67, 41
2, 367952, Note_on_c, 0, 79, 44
2, 367952, Note_on_c, 0, 73, 47
2, 367952, Note_on_c, 0, 69, 43
2, 368012, Control_c, 0, 64, 104
2, 368028, Control_c, 0, 64, 0
2, 368112, Note_on_c, 0, 64, 0
2, 368120, Control_c, 0, 64, 88
2, 368136, Control_c, 0, 64, 127
2, 368164, Note_on_c, 0, 79, 0
2, 368168, Note_on_c, 0, 69, 0
2, 368180, Note_on_c, 0, 73, 0
2, 368188, Note_on_c, 0, 67, 0
2, 368236, Note_on_c, 0, 81, 0
2, 368352, Control_c, 0, 64, 72
2, 368360, Note_on_c, 0, 61, 48
2, 368368, Control_c, 0, 64, 88
2, 368384, Control_c, 0, 64, 127
2, 368436, Note_on_c, 0, 61, 0
2, 368444, Note_on_c, 0, 69, 60
2, 368524, Note_on_c, 0, 69, 0
2, 368548, Note_on_c, 0, 76, 45
2, 368592, Note_on_c, 0, 76, 0
2, 368664, Note_on_c, 0, 93, 92
2, 368684, Note_on_c, 0, 81, 58
2, 368688, Note_on_c, 0, 79, 64
2, 369148, Note_on_c, 0, 93, 0
2, 369164, Note_on_c, 0, 79, 0
2, 369220, Note_on_c, 0, 81, 0
2, 369408, Note_on_c, 0, 88, 63
2, 369440, Note_on_c, 0, 88, 0
2, 369476, Note_on_c, 0, 89, 58
2, 369528, Note_on_c, 0, 88, 82
2, 369540, Note_on_c, 0, 89, 0
2, 369744, Note_on_c, 0, 88, 0
2, 369768, Note_on_c, 0, 87, 74
2, 369948, Note_on_c, 0, 87, 0
2, 369996, Note_on_c, 0, 88, 82
2, 370288, Note_on_c, 0, 91, 82
2, 370296, Note_on_c, 0, 88, 0
2, 370376, Note_on_c, 0, 91, 0
2, 370868, Note_on_c, 0, 89, 74
2, 370884, Note_on_c, 0, 77, 55
2, 370892, Note_on_c, 0, 74, 33
2, 370904, Note_on_c, 0, 62, 39
2, 370920, Note_on_c, 0, 69, 29
2, 371016, Control_c, 0, 64, 56
2, 371028, Control_c, 0, 64, 0
2, 371156, Control_c, 0, 64, 127
2, 371340, Note_on_c, 0, 62, 0
2, 371384, Note_on_c, 0, 77, 0
2, 371388, Note_on_c, 0, 74, 0
2, 371396, Note_on_c, 0, 89, 0
2, 371412, Note_on_c, 0, 69, 0
2, 371888, Note_on_c, 0, 85, 64
2, 371888, Note_on_c, 0, 69, 44
2, 371888, Note_on_c, 0, 64, 47
2, 371888, Note_on_c, 0, 79, 44
2, 372068, Control_c, 0, 64, 88
2, 372084, Control_c, 0, 64, 0
2, 372192, Control_c, 0, 64, 56
2, 372208, Control_c, 0, 64, 127
2, 372444, Note_on_c, 0, 64, 0
2, 372456, Note_on_c, 0, 69, 0
2, 372628, Note_on_c, 0, 79, 0
2, 372680, Note_on_c, 0, 85, 0
2, 372736, Note_on_c, 0, 88, 70
2, 372828, Note_on_c, 0, 88, 0
2, 372872, Note_on_c, 0, 86, 70
2, 372876, Note_on_c, 0, 81, 60
2, 372904, Note_on_c, 0, 65, 41
2, 372920, Note_on_c, 0, 69, 24
2, 372936, Control_c, 0, 64, 56
2, 372952, Control_c, 0, 64, 0
2, 373028, Control_c, 0, 64, 72
2, 373044, Control_c, 0, 64, 127
2, 373108, Note_on_c, 0, 81, 0
2, 373108, Note_on_c, 0, 86, 0
2, 373264, Note_on_c, 0, 69, 0
2, 373292, Note_on_c, 0, 65, 0
2, 373564, Note_on_c, 0, 84, 70
2, 373628, Note_on_c, 0, 84, 0
2, 373756, Control_c, 0, 64, 104
2, 373772, Control_c, 0, 64, 0
2, 373792, Note_on_c, 0, 83, 63
2, 373808, Note_on_c, 0, 62, 49
2, 373816, Note_on_c, 0, 74, 50
2, 373824, Note_on_c, 0, 77, 39
2, 373848, Control_c, 0, 64, 40
2, 373864, Note_on_c, 0, 74, 0
2, 373864, Control_c, 0, 64, 104
2, 373868, Note_on_c, 0, 77, 0
2, 373872, Note_on_c, 0, 83, 0
2, 373880, Control_c, 0, 64, 127
2, 373884, Note_on_c, 0, 62, 0
2, 373956, Control_c, 0, 64, 56
2, 373976, Control_c, 0, 64, 0
2, 374040, Note_on_c, 0, 81, 66
2, 374040, Note_on_c, 0, 63, 48
2, 374040, Note_on_c, 0, 72, 47
2, 374040, Note_on_c, 0, 78, 50
2, 374084, Control_c, 0, 64, 104
2, 374096, Note_on_c, 0, 72, 0
2, 374096, Control_c, 0, 64, 127
2, 374120, Note_on_c, 0, 63, 0
2, 374124, Note_on_c, 0, 78, 0
2, 374128, Note_on_c, 0, 81, 0
2, 374300, Control_c, 0, 64, 88
2, 374312, Control_c, 0, 64, 0
2, 374320, Note_on_c, 0, 80, 58
2, 374320, Note_on_c, 0, 76, 44
2, 374320, Note_on_c, 0, 74, 44
2, 374320, Note_on_c, 0, 64, 47
2, 374456, Control_c, 0, 64, 72
2, 374472, Control_c, 0, 64, 127
2, 374492, Note_on_c, 0, 76, 0
2, 374496, Note_on_c, 0, 64, 0
2, 374508, Note_on_c, 0, 74, 0
2, 374580, Note_on_c, 0, 80, 0
2, 374928, Note_on_c, 0, 81, 50
2, 374944, Note_on_c, 0, 57, 33
2, 374944, Note_on_c, 0, 76, 31
2, 374948, Note_on_c, 0, 72, 29
2, 374952, Note_on_c, 0, 64, 29
2, 375012, Control_c, 0, 64, 72
2, 375028, Control_c, 0, 64, 0
2, 375152, Control_c, 0, 64, 88
2, 375168, Control_c, 0, 64, 127
2, 375264, Note_on_c, 0, 76, 0
2, 375268, Note_on_c, 0, 81, 0
2, 375272, Note_on_c, 0, 72, 0
2, 375280, Note_on_c, 0, 57, 0
2, 375292, Note_on_c, 0, 64, 0
2, 376116, Note_on_c, 0, 52, 33
2, 376116, Note_on_c, 0, 64, 55
2, 376124, Note_on_c, 0, 45, 40
2, 376228, Note_on_c, 0, 57, 45
2, 376304, Note_on_c, 0, 57, 0
2, 376312, Note_on_c, 0, 60, 32
2, 376368, Note_on_c, 0, 60, 0
2, 376376, Note_on_c, 0, 64, 35
2, 376440, Note_on_c, 0, 64, 0
2, 376452, Note_on_c, 0, 57, 27
2, 376492, Note_on_c, 0, 57, 0
2, 376504, Note_on_c, 0, 52, 0
2, 376508, Note_on_c, 0, 64, 0
2, 376524, Note_on_c, 0, 53, 48
2, 376524, Note_on_c, 0, 65, 57
2, 376556, Control_c, 0, 64, 104
2, 376564, Control_c, 0, 64, 72
2, 376572, Control_c, 0, 64, 24
2, 376580, Control_c, 0, 64, 0
2, 376604, Note_on_c, 0, 57, 41
2, 376656, Control_c, 0, 64, 72
2, 376664, Control_c, 0, 64, 127
2, 376676, Note_on_c, 0, 57, 0
2, 376676, Note_on_c, 0, 60, 41
2, 376748, Note_on_c, 0, 60, 0
2, 376756, Note_on_c, 0, 65, 44
2, 376804, Note_on_c, 0, 53, 0
2, 376812, Note_on_c, 0, 45, 0
2, 376844, Note_on_c, 0, 57, 42
2, 376848, Note_on_c, 0, 65, 0
2, 376876, Note_on_c, 0, 57, 0
2, 376920, Note_on_c, 0, 65, 0
2, 376936, Note_on_c, 0, 52, 46
2, 376944, Note_on_c, 0, 44, 28
2, 376948, Note_on_c, 0, 64, 55
2, 376980, Control_c, 0, 64, 104
2, 376988, Control_c, 0, 64, 72
2, 376996, Control_c, 0, 64, 24
2, 377004, Control_c, 0, 64, 0
2, 377016, Note_on_c, 0, 56, 44
2, 377072, Control_c, 0, 64, 24
2, 377080, Control_c, 0, 64, 72
2, 377084, Note_on_c, 0, 59, 39
2, 377088, Note_on_c, 0, 56, 0
2, 377088, Control_c, 0, 64, 88
2, 377096, Control_c, 0, 64, 127
2, 377148, Note_on_c, 0, 59, 0
2, 377160, Note_on_c, 0, 64, 33
2, 377212, Note_on_c, 0, 64, 0
2, 377212, Note_on_c, 0, 56, 35
2, 377280, Note_on_c, 0, 56, 0
2, 377288, Note_on_c, 0, 44, 0
2, 377308, Note_on_c, 0, 43, 47
2, 377324, Control_c, 0, 64, 104
2, 377336, Control_c, 0, 64, 88
2, 377340, Control_c, 0, 64, 56
2, 377348, Control_c, 0, 64, 0
2, 377352, Note_on_c, 0, 64, 0
2, 377400, Note_on_c, 0, 55, 53
2, 377420, Control_c, 0, 64, 24
2, 377424, Control_c, 0, 64, 72
2, 377432, Control_c, 0, 64, 104
2, 377440, Control_c, 0, 64, 127
2, 377468, Note_on_c, 0, 55, 0
2, 377472, Note_on_c, 0, 58, 34
2, 377540, Note_on_c, 0, 58, 0
2, 377560, Note_on_c, 0, 64, 42
2, 377616, Note_on_c, 0, 64, 0
2, 377632, Note_on_c, 0, 52, 0
2, 377632, Note_on_c, 0, 55, 38
2, 377664, Note_on_c, 0, 55, 0
2, 377700, Note_on_c, 0, 43, 0
2, 377724, Note_on_c, 0, 50, 46
2, 377724, Note_on_c, 0, 41, 36
2, 377724, Note_on_c, 0, 62, 55
2, 377748, Control_c, 0, 64, 88
2, 377756, Control_c, 0, 64, 56
2, 377764, Control_c, 0, 64, 24
2, 377772, Control_c, 0, 64, 0
2, 377808, Note_on_c, 0, 53, 50
2, 377848, Control_c, 0, 64, 40
2, 377856, Control_c, 0, 64, 88
2, 377864, Control_c, 0, 64, 104
2, 377872, Control_c, 0, 64, 127
2, 377884, Note_on_c, 0, 53, 0
2, 377888, Note_on_c, 0, 57, 34
2, 377940, Note_on_c, 0, 57, 0
2, 377948, Note_on_c, 0, 62, 38
2, 378024, Note_on_c, 0, 62, 0
2, 378036, Note_on_c, 0, 50, 0
2, 378036, Note_on_c, 0, 53, 40
2, 378064, Note_on_c, 0, 53, 0
2, 378116, Note_on_c, 0, 41, 0
2, 378128, Note_on_c, 0, 40, 39
2, 378128, Note_on_c, 0, 48, 39
2, 378128, Note_on_c, 0, 60, 54
2, 378148, Note_on_c, 0, 62, 0
2, 378164, Control_c, 0, 64, 104
2, 378172, Control_c, 0, 64, 88
2, 378180, Control_c, 0, 64, 72
2, 378188, Control_c, 0, 64, 24
2, 378196, Control_c, 0, 64, 0
2, 378208, Note_on_c, 0, 52, 48
2, 378280, Control_c, 0, 64, 40
2, 378284, Note_on_c, 0, 57, 39
2, 378288, Control_c, 0, 64, 56
2, 378292, Note_on_c, 0, 52, 0
2, 378296, Control_c, 0, 64, 88
2, 378312, Control_c, 0, 64, 104
2, 378336, Control_c, 0, 64, 127
2, 378352, Note_on_c, 0, 57, 0
2, 378360, Note_on_c, 0, 60, 42
2, 378436, Note_on_c, 0, 60, 0
2, 378444, Note_on_c, 0, 52, 45
2, 378488, Note_on_c, 0, 52, 0
2, 378520, Note_on_c, 0, 48, 0
2, 378536, Note_on_c, 0, 47, 55
2, 378536, Note_on_c, 0, 59, 54
2, 378536, Note_on_c, 0, 28, 45
2, 378548, Note_on_c, 0, 60, 0
2, 378580, Control_c, 0, 64, 88
2, 378588, Control_c, 0, 64, 72
2, 378596, Control_c, 0, 64, 24
2, 378604, Control_c, 0, 64, 0
2, 378628, Note_on_c, 0, 50, 46
2, 378680, Control_c, 0, 64, 40
2, 378688, Control_c, 0, 64, 72
2, 378696, Control_c, 0, 64, 88
2, 378700, Control_c, 0, 64, 104
2, 378712, Control_c, 0, 64, 127
2, 378720, Note_on_c, 0, 56, 37
2, 378724, Note_on_c, 0, 50, 0
2, 378768, Note_on_c, 0, 56, 0
2, 378772, Note_on_c, 0, 59, 38
2, 378792, Note_on_c, 0, 28, 0
2, 378864, Note_on_c, 0, 59, 0
2, 378864, Note_on_c, 0, 50, 39
2, 378908, Note_on_c, 0, 50, 0
2, 378948, Note_on_c, 0, 47, 0
2, 378952, Note_on_c, 0, 45, 56
2, 378952, Note_on_c, 0, 57, 50
2, 378968, Note_on_c, 0, 59, 0
2, 378980, Note_on_c, 0, 40, 0
2, 378988, Control_c, 0, 64, 104
2, 378996, Control_c, 0, 64, 88
2, 379004, Control_c, 0, 64, 72
2, 379012, Control_c, 0, 64, 56
2, 379020, Control_c, 0, 64, 24
2, 379024, Control_c, 0, 64, 0
2, 379028, Note_on_c, 0, 48, 41
2, 379100, Note_on_c, 0, 48, 0
2, 379100, Note_on_c, 0, 52, 44
2, 379104, Control_c, 0, 64, 56
2, 379112, Control_c, 0, 64, 72
2, 379120, Control_c, 0, 64, 104
2, 379136, Control_c, 0, 64, 127
2, 379176, Note_on_c, 0, 52, 0
2, 379196, Note_on_c, 0, 57, 40
2, 379216, Note_on_c, 0, 45, 0
2, 379264, Note_on_c, 0, 57, 0
2, 379276, Note_on_c, 0, 48, 42
2, 379296, Note_on_c, 0, 48, 0
2, 379396, Note_on_c, 0, 52, 58
2, 379400, Note_on_c, 0, 57, 0
2, 379404, Note_on_c, 0, 45, 44
2, 379404, Note_on_c, 0, 64, 56
2, 379412, Control_c, 0, 64, 104
2, 379436, Control_c, 0, 64, 72
2, 379448, Control_c, 0, 64, 56
2, 379456, Control_c, 0, 64, 40
2, 379464, Control_c, 0, 64, 24
2, 379472, Control_c, 0, 64, 0
2, 379504, Note_on_c, 0, 57, 44
2, 379568, Note_on_c, 0, 60, 42
2, 379588, Control_c, 0, 64, 40
2, 379596, Control_c, 0, 64, 72
2, 379600, Note_on_c, 0, 57, 0
2, 379604, Control_c, 0, 64, 88
2, 379620, Control_c, 0, 64, 104
2, 379644, Note_on_c, 0, 60, 0
2, 379644, Note_on_c, 0, 64, 49
2, 379648, Control_c, 0, 64, 127
2, 379708, Note_on_c, 0, 57, 40
2, 379748, Note_on_c, 0, 64, 0
2, 379748, Note_on_c, 0, 64, 0
2, 379768, Note_on_c, 0, 57, 0
2, 379792, Note_on_c, 0, 52, 0
2, 379804, Note_on_c, 0, 53, 56
2, 379804, Note_on_c, 0, 65, 57
2, 379828, Control_c, 0, 64, 104
2, 379836, Control_c, 0, 64, 88
2, 379844, Control_c, 0, 64, 56
2, 379848, Control_c, 0, 64, 24
2, 379860, Control_c, 0, 64, 0
2, 379904, Note_on_c, 0, 57, 41
2, 379936, Control_c, 0, 64, 24
2, 379944, Control_c, 0, 64, 72
2, 379948, Control_c, 0, 64, 88
2, 379960, Control_c, 0, 64, 127
2, 379972, Note_on_c, 0, 60, 46
2, 379984, Note_on_c, 0, 57, 0
2, 380040, Note_on_c, 0, 60, 0
2, 380048, Note_on_c, 0, 65, 38
2, 380064, Note_on_c, 0, 45, 0
2, 380112, Note_on_c, 0, 53, 0
2, 380120, Note_on_c, 0, 57, 38
2, 380128, Note_on_c, 0, 65, 0
2, 380164, Note_on_c, 0, 57, 0
2, 380196, Note_on_c, 0, 65, 0
2, 380212, Note_on_c, 0, 52, 58
2, 380212, Note_on_c, 0, 44, 43
2, 380212, Note_on_c, 0, 64, 55
2, 380252, Control_c, 0, 64, 104
2, 380256, Control_c, 0, 64, 72
2, 380264, Control_c, 0, 64, 40
2, 380272, Control_c, 0, 64, 0
2, 380292, Note_on_c, 0, 56, 37
2, 380344, Control_c, 0, 64, 40
2, 380352, Control_c, 0, 64, 72
2, 380356, Control_c, 0, 64, 104
2, 380360, Note_on_c, 0, 59, 38
2, 380364, Control_c, 0, 64, 127
2, 380376, Note_on_c, 0, 56, 0
2, 380424, Note_on_c, 0, 59, 0
2, 380432, Note_on_c, 0, 64, 39
2, 380488, Note_on_c, 0, 64, 0
2, 380496, Note_on_c, 0, 56, 38
2, 380556, Note_on_c, 0, 56, 0
2, 380584, Note_on_c, 0, 44, 0
2, 380596, Note_on_c, 0, 43, 43
2, 380628, Control_c, 0, 64, 104
2, 380636, Control_c, 0, 64, 88
2, 380644, Control_c, 0, 64, 72
2, 380652, Note_on_c, 0, 64, 0
2, 380652, Control_c, 0, 64, 40
2, 380656, Control_c, 0, 64, 0
2, 380688, Note_on_c, 0, 55, 45
2, 380736, Control_c, 0, 64, 40
2, 380744, Control_c, 0, 64, 72
2, 380752, Control_c, 0, 64, 104
2, 380760, Note_on_c, 0, 55, 0
2, 380760, Note_on_c, 0, 58, 30
2, 380760, Control_c, 0, 64, 127
2, 380840, Note_on_c, 0, 64, 35
2, 380880, Note_on_c, 0, 58, 0
2, 380908, Note_on_c, 0, 64, 0
2, 380916, Note_on_c, 0, 55, 35
2, 380932, Note_on_c, 0, 52, 0
2, 380952, Note_on_c, 0, 55, 0
2, 381008, Note_on_c, 0, 43, 0
2, 381020, Note_on_c, 0, 50, 51
2, 381020, Note_on_c, 0, 41, 45
2, 381020, Note_on_c, 0, 62, 55
2, 381060, Control_c, 0, 64, 88
2, 381068, Control_c, 0, 64, 72
2, 381072, Control_c, 0, 64, 24
2, 381080, Control_c, 0, 64, 0
2, 381108, Note_on_c, 0, 53, 45
2, 381144, Control_c, 0, 64, 24
2, 381152, Control_c, 0, 64, 56
2, 381160, Control_c, 0, 64, 88
2, 381164, Control_c, 0, 64, 127
2, 381188, Note_on_c, 0, 57, 31
2, 381192, Note_on_c, 0, 53, 0
2, 381248, Note_on_c, 0, 57, 0
2, 381260, Note_on_c, 0, 62, 37
2, 381336, Note_on_c, 0, 62, 0
2, 381336, Note_on_c, 0, 50, 0
2, 381340, Note_on_c, 0, 53, 37
2, 381376, Note_on_c, 0, 53, 0
2, 381420, Note_on_c, 0, 41, 0
2, 381428, Note_on_c, 0, 40, 42
2, 381428, Note_on_c, 0, 60, 53
2, 381432, Note_on_c, 0, 48, 46
2, 381460, Note_on_c, 0, 62, 0
2, 381468, Control_c, 0, 64, 88
2, 381472, Control_c, 0, 64, 72
2, 381484, Control_c, 0, 64, 24
2, 381492, Control_c, 0, 64, 0
2, 381524, Note_on_c, 0, 52, 48
2, 381560, Control_c, 0, 64, 24
2, 381568, Control_c, 0, 64, 56
2, 381576, Control_c, 0, 64, 88
2, 381584, Control_c, 0, 64, 104
2, 381588, Control_c, 0, 64, 127
2, 381604, Note_on_c, 0, 57, 39
2, 381608, Note_on_c, 0, 52, 0
2, 381676, Note_on_c, 0, 57, 0
2, 381680, Note_on_c, 0, 60, 42
2, 381768, Note_on_c, 0, 52, 41
2, 381796, Note_on_c, 0, 60, 0
2, 381796, Note_on_c, 0, 60, 0
2, 381808, Note_on_c, 0, 40, 0
2, 381816, Note_on_c, 0, 52, 0
2, 381836, Note_on_c, 0, 48, 0
2, 381852, Note_on_c, 0, 40, 39
2, 381852, Note_on_c, 0, 59, 53
2, 381852, Note_on_c, 0, 47, 47
2, 381852, Note_on_c, 0, 28, 46
2, 381904, Control_c, 0, 64, 104
2, 381912, Control_c, 0, 64, 72
2, 381920, Control_c, 0, 64, 40
2, 381928, Control_c, 0, 64, 0
2, 381956, Note_on_c, 0, 50, 51
2, 381988, Control_c, 0, 64, 40
2, 381996, Control_c, 0, 64, 72
2, 382004, Control_c, 0, 64, 104
2, 382012, Control_c, 0, 64, 127
2, 382040, Note_on_c, 0, 56, 43
2, 382048, Note_on_c, 0, 50, 0
2, 382104, Note_on_c, 0, 59, 42
2, 382108, Note_on_c, 0, 28, 0
2, 382132, Note_on_c, 0, 56, 0
2, 382156, Note_on_c, 0, 59, 0
2, 382172, Note_on_c, 0, 50, 40
2, 382220, Note_on_c, 0, 50, 0
2, 382232, Note_on_c, 0, 47, 0
2, 382264, Note_on_c, 0, 40, 0
2, 382276, Note_on_c, 0, 45, 54
2, 382276, Note_on_c, 0, 57, 50
2, 382292, Note_on_c, 0, 59, 0
2, 382296, Control_c, 0, 64, 104
2, 382304, Control_c, 0, 64, 72
2, 382312, Control_c, 0, 64, 24
2, 382320, Control_c, 0, 64, 0
2, 382336, Note_on_c, 0, 48, 36
2, 382380, Control_c, 0, 64, 40
2, 382392, Control_c, 0, 64, 88
2, 382400, Control_c, 0, 64, 104
2, 382404, Note_on_c, 0, 52, 42
2, 382404, Control_c, 0, 64, 127
2, 382408, Note_on_c, 0, 48, 0
2, 382468, Note_on_c, 0, 52, 0
2, 382492, Note_on_c, 0, 57, 38
2, 382528, Note_on_c, 0, 45, 0
2, 382556, Note_on_c, 0, 57, 0
2, 382572, Note_on_c, 0, 48, 42
2, 382588, Note_on_c, 0, 48, 0
2, 382688, Note_on_c, 0, 52, 63
2, 382692, Note_on_c, 0, 45, 52
2, 382692, Note_on_c, 0, 64, 54
2, 382696, Note_on_c, 0, 57, 0
2, 382744, Control_c, 0, 64, 104
2, 382752, Control_c, 0, 64, 88
2, 382756, Control_c, 0, 64, 56
2, 382768, Control_c, 0, 64, 0
2, 382784, Note_on_c, 0, 57, 42
2, 382848, Note_on_c, 0, 60, 46
2, 382860, Control_c, 0, 64, 56
2, 382868, Control_c, 0, 64, 88
2, 382876, Control_c, 0, 64, 127
2, 382888, Note_on_c, 0, 57, 0
2, 382916, Note_on_c, 0, 60, 0
2, 382920, Note_on_c, 0, 64, 52
2, 382980, Note_on_c, 0, 64, 0
2, 383000, Note_on_c, 0, 57, 40
2, 383052, Note_on_c, 0, 57, 0
2, 383080, Note_on_c, 0, 52, 0
2, 383080, Note_on_c, 0, 53, 63
2, 383080, Note_on_c, 0, 65, 60
2, 383104, Note_on_c, 0, 64, 0
2, 383112, Control_c, 0, 64, 104
2, 383120, Control_c, 0, 64, 72
2, 383128, Control_c, 0, 64, 24
2, 383136, Control_c, 0, 64, 0
2, 383188, Note_on_c, 0, 57, 43
2, 383200, Control_c, 0, 64, 24
2, 383208, Control_c, 0, 64, 56
2, 383212, Control_c, 0, 64, 104
2, 383220, Control_c, 0, 64, 127
2, 383256, Note_on_c, 0, 60, 46
2, 383260, Note_on_c, 0, 57, 0
2, 383328, Note_on_c, 0, 60, 0
2, 383328, Note_on_c, 0, 65, 46
2, 383392, Note_on_c, 0, 65, 0
2, 383404, Note_on_c, 0, 57, 45
2, 383448, Note_on_c, 0, 57, 0
2, 383480, Note_on_c, 0, 45, 0
2, 383484, Note_on_c, 0, 53, 0
2, 383508, Note_on_c, 0, 47, 54
2, 383508, Note_on_c, 0, 62, 50
2, 383508, Note_on_c, 0, 67, 63
2, 383512, Note_on_c, 0, 65, 0
2, 383552, Control_c, 0, 64, 88
2, 383560, Control_c, 0, 64, 56
2, 383568, Control_c, 0, 64, 0
2, 383576, Note_on_c, 0, 55, 52
2, 383636, Control_c, 0, 64, 56
2, 383644, Control_c, 0, 64, 88
2, 383652, Control_c, 0, 64, 127
2, 383660, Note_on_c, 0, 62, 45
2, 383672, Note_on_c, 0, 55, 0
2, 383716, Note_on_c, 0, 62, 0
2, 383720, Note_on_c, 0, 67, 54
2, 383788, Note_on_c, 0, 67, 0
2, 383804, Note_on_c, 0, 55, 47
2, 383856, Note_on_c, 0, 55, 0
2, 383896, Note_on_c, 0, 47, 0
2, 383908, Note_on_c, 0, 48, 59
2, 383908, Note_on_c, 0, 64, 59
2, 383928, Control_c, 0, 64, 104
2, 383936, Control_c, 0, 64, 88
2, 383944, Control_c, 0, 64, 56
2, 383952, Note_on_c, 0, 62, 0
2, 383952, Control_c, 0, 64, 24
2, 383960, Control_c, 0, 64, 0
2, 383972, Note_on_c, 0, 67, 0
2, 383980, Note_on_c, 0, 55, 49
2, 384024, Control_c, 0, 64, 24
2, 384028, Control_c, 0, 64, 56
2, 384036, Control_c, 0, 64, 88
2, 384044, Control_c, 0, 64, 104
2, 384052, Control_c, 0, 64, 127
2, 384056, Note_on_c, 0, 60, 42
2, 384080, Note_on_c, 0, 55, 0
2, 384120, Note_on_c, 0, 60, 0
2, 384128, Note_on_c, 0, 64, 40
2, 384192, Note_on_c, 0, 64, 0
2, 384204, Note_on_c, 0, 55, 36
2, 384228, Note_on_c, 0, 55, 0
2, 384240, Note_on_c, 0, 48, 0
2, 384328, Note_on_c, 0, 48, 47
2, 384328, Note_on_c, 0, 52, 44
2, 384328, Note_on_c, 0, 64, 52
2, 384352, Note_on_c, 0, 64, 0
2, 384360, Control_c, 0, 64, 104
2, 384368, Control_c, 0, 64, 88
2, 384384, Control_c, 0, 64, 72
2, 384392, Control_c, 0, 64, 56
2, 384400, Control_c, 0, 64, 40
2, 384408, Control_c, 0, 64, 0
2, 384456, Note_on_c, 0, 55, 46
2, 384512, Control_c, 0, 64, 56
2, 384520, Control_c, 0, 64, 104
2, 384524, Note_on_c, 0, 60, 38
2, 384528, Note_on_c, 0, 55, 0
2, 384532, Control_c, 0, 64, 127
2, 384592, Note_on_c, 0, 60, 0
2, 384600, Note_on_c, 0, 64, 31
2, 384632, Note_on_c, 0, 52, 0
2, 384644, Note_on_c, 0, 64, 0
2, 384648, Note_on_c, 0, 55, 37
2, 384692, Note_on_c, 0, 55, 0
2, 384728, Note_on_c, 0, 48, 0
2, 384740, Note_on_c, 0, 53, 38
2, 384744, Note_on_c, 0, 45, 36
2, 384744, Note_on_c, 0, 65, 54
2, 384764, Note_on_c, 0, 64, 0
2, 384796, Control_c, 0, 64, 88
2, 384808, Control_c, 0, 64, 40
2, 384816, Control_c, 0, 64, 0
2, 384828, Note_on_c, 0, 57, 38
2, 384884, Control_c, 0, 64, 56
2, 384888, Note_on_c, 0, 60, 43
2, 384892, Note_on_c, 0, 57, 0
2, 384892, Control_c, 0, 64, 88
2, 384896, Control_c, 0, 64, 104
2, 384908, Control_c, 0, 64, 127
2, 384956, Note_on_c, 0, 60, 0
2, 384960, Note_on_c, 0, 65, 41
2, 385020, Note_on_c, 0, 65, 0
2, 385036, Note_on_c, 0, 57, 36
2, 385084, Note_on_c, 0, 57, 0
2, 385104, Note_on_c, 0, 45, 0
2, 385124, Note_on_c, 0, 53, 0
2, 385128, Note_on_c, 0, 47, 45
2, 385128, Note_on_c, 0, 67, 57
2, 385128, Note_on_c, 0, 62, 44
2, 385160, Note_on_c, 0, 65, 0
2, 385160, Control_c, 0, 64, 104
2, 385168, Control_c, 0, 64, 72
2, 385176, Control_c, 0, 64, 40
2, 385180, Control_c, 0, 64, 0
2, 385200, Note_on_c, 0, 55, 43
2, 385244, Control_c, 0, 64, 40
2, 385252, Control_c, 0, 64, 72
2, 385260, Control_c, 0, 64, 104
2, 385268, Control_c, 0, 64, 127
2, 385276, Note_on_c, 0, 62, 38
2, 385304, Note_on_c, 0, 55, 0
2, 385336, Note_on_c, 0, 62, 0
2, 385336, Note_on_c, 0, 62, 0
2, 385340, Note_on_c, 0, 67, 41
2, 385400, Note_on_c, 0, 67, 0
2, 385428, Note_on_c, 0, 55, 50
2, 385480, Note_on_c, 0, 55, 0
2, 385512, Note_on_c, 0, 47, 0
2, 385532, Note_on_c, 0, 48, 46
2, 385532, Note_on_c, 0, 64, 52
2, 385552, Control_c, 0, 64, 104
2, 385560, Control_c, 0, 64, 72
2, 385568, Control_c, 0, 64, 40
2, 385576, Control_c, 0, 64, 0
2, 385624, Note_on_c, 0, 67, 0
2, 385624, Note_on_c, 0, 55, 40
2, 385652, Control_c, 0, 64, 24
2, 385660, Control_c, 0, 64, 56
2, 385668, Control_c, 0, 64, 88
2, 385676, Control_c, 0, 64, 104
2, 385684, Control_c, 0, 64, 127
2, 385704, Note_on_c, 0, 55, 0
2, 385704, Note_on_c, 0, 60, 38
2, 385768, Note_on_c, 0, 60, 0
2, 385780, Note_on_c, 0, 64, 31
2, 385852, Note_on_c, 0, 48, 0
2, 385864, Note_on_c, 0, 55, 36
2, 385868, Note_on_c, 0, 64, 0
2, 385868, Note_on_c, 0, 64, 0
2, 385900, Note_on_c, 0, 55, 0
2, 385968, Note_on_c, 0, 55, 42
2, 385968, Note_on_c, 0, 60, 56
2, 385972, Note_on_c, 0, 52, 44
2, 385992, Note_on_c, 0, 48, 40
2, 385996, Note_on_c, 0, 36, 47
2, 386024, Control_c, 0, 64, 104
2, 386032, Control_c, 0, 64, 72
2, 386036, Control_c, 0, 64, 24
2, 386044, Control_c, 0, 64, 0
2, 386080, Note_on_c, 0, 55, 47
2, 386100, Note_on_c, 0, 60, 0
2, 386100, Control_c, 0, 64, 24
2, 386108, Control_c, 0, 64, 72
2, 386116, Control_c, 0, 64, 127
2, 386144, Note_on_c, 0, 55, 0
2, 386144, Note_on_c, 0, 60, 49
2, 386148, Note_on_c, 0, 52, 0
2, 386164, Note_on_c, 0, 62, 58
2, 386172, Note_on_c, 0, 59, 53
2, 386208, Note_on_c, 0, 60, 0
2, 386208, Note_on_c, 0, 64, 43
2, 386268, Note_on_c, 0, 64, 0
2, 386276, Note_on_c, 0, 55, 44
2, 386300, Note_on_c, 0, 55, 0
2, 386336, Note_on_c, 0, 55, 0
2, 386344, Note_on_c, 0, 59, 0
2, 386364, Note_on_c, 0, 62, 0
2, 386368, Note_on_c, 0, 60, 48
2, 386368, Note_on_c, 0, 64, 63
2, 386468, Note_on_c, 0, 55, 45
2, 386520, Note_on_c, 0, 64, 0
2, 386536, Note_on_c, 0, 60, 52
2, 386564, Note_on_c, 0, 62, 61
2, 386564, Note_on_c, 0, 59, 52
2, 386564, Note_on_c, 0, 55, 44
2, 386580, Note_on_c, 0, 55, 0
2, 386580, Note_on_c, 0, 60, 0
2, 386600, Note_on_c, 0, 60, 0
2, 386604, Note_on_c, 0, 64, 47
2, 386644, Note_on_c, 0, 59, 0
2, 386672, Note_on_c, 0, 64, 0
2, 386680, Note_on_c, 0, 55, 48
2, 386692, Note_on_c, 0, 62, 0
2, 386732, Note_on_c, 0, 55, 0
2, 386764, Note_on_c, 0, 64, 69
2, 386764, Note_on_c, 0, 60, 51
2, 386764, Note_on_c, 0, 48, 49
2, 386780, Note_on_c, 0, 55, 0
2, 386880, Note_on_c, 0, 64, 0
2, 386892, Note_on_c, 0, 60, 0
2, 386896, Note_on_c, 0, 48, 0
2, 386900, Note_on_c, 0, 55, 49
2, 386932, Note_on_c, 0, 48, 0
2, 386956, Note_on_c, 0, 60, 52
2, 386956, Note_on_c, 0, 67, 62
2, 386956, Note_on_c, 0, 64, 54
2, 386956, Note_on_c, 0, 52, 54
2, 386964, Note_on_c, 0, 36, 0
2, 386984, Note_on_c, 0, 55, 0
2, 386996, Note_on_c, 0, 52, 0
2, 387020, Note_on_c, 0, 64, 52
2, 387024, Note_on_c, 0, 60, 0
2, 387080, Note_on_c, 0, 64, 0
2, 387092, Note_on_c, 0, 55, 32
2, 387124, Note_on_c, 0, 64, 0
2, 387128, Note_on_c, 0, 67, 0
2, 387144, Note_on_c, 0, 55, 0
2, 387200, Note_on_c, 0, 43, 40
2, 387200, Note_on_c, 0, 31, 38
2, 387200, Note_on_c, 0, 55, 38
2, 387200, Note_on_c, 0, 62, 59
2, 387200, Note_on_c, 0, 59, 47
2, 387200, Note_on_c, 0, 43, 48
2, 387236, Control_c, 0, 64, 104
2, 387248, Control_c, 0, 64, 72
2, 387256, Control_c, 0, 64, 40
2, 387264, Control_c, 0, 64, 0
2, 387292, Note_on_c, 0, 55, 47
2, 387340, Control_c, 0, 64, 72
2, 387348, Control_c, 0, 64, 127
2, 387376, Note_on_c, 0, 59, 44
2, 387384, Note_on_c, 0, 55, 0
2, 387408, Note_on_c, 0, 31, 0
2, 387432, Note_on_c, 0, 59, 0
2, 387440, Note_on_c, 0, 43, 0
2, 387440, Note_on_c, 0, 43, 0
2, 387448, Note_on_c, 0, 59, 0
2, 387448, Note_on_c, 0, 62, 54
2, 387456, Note_on_c, 0, 62, 0
2, 387472, Note_on_c, 0, 55, 0
2, 387508, Note_on_c, 0, 62, 0
2, 387516, Note_on_c, 0, 55, 54
2, 387536, Note_on_c, 0, 55, 0
2, 387616, Note_on_c, 0, 52, 52
2, 387620, Note_on_c, 0, 40, 46
2, 387636, Note_on_c, 0, 76, 66
2, 387640, Control_c, 0, 64, 104
2, 387644, Note_on_c, 0, 71, 49
2, 387648, Control_c, 0, 64, 72
2, 387656, Control_c, 0, 64, 24
2, 387660, Control_c, 0, 64, 0
2, 387664, Note_on_c, 0, 59, 40
2, 387664, Note_on_c, 0, 67, 40
2, 387692, Note_on_c, 0, 59, 52
2, 387732, Control_c, 0, 64, 40
2, 387740, Control_c, 0, 64, 104
2, 387748, Control_c, 0, 64, 127
2, 387768, Note_on_c, 0, 64, 51
2, 387784, Note_on_c, 0, 59, 0
2, 387832, Note_on_c, 0, 64, 0
2, 387832, Note_on_c, 0, 67, 57
2, 387832, Note_on_c, 0, 78, 71
2, 387840, Note_on_c, 0, 67, 0
2, 387848, Note_on_c, 0, 76, 0
2, 387848, Note_on_c, 0, 75, 67
2, 387868, Note_on_c, 0, 66, 26
2, 387892, Note_on_c, 0, 67, 0
2, 387896, Note_on_c, 0, 66, 0
2, 387900, Note_on_c, 0, 59, 52
2, 387972, Note_on_c, 0, 59, 0
2, 387992, Note_on_c, 0, 75, 0
2, 388016, Note_on_c, 0, 78, 0
2, 388032, Note_on_c, 0, 79, 70
2, 388036, Note_on_c, 0, 76, 65
2, 388052, Note_on_c, 0, 59, 0
2, 388068, Note_on_c, 0, 64, 27
2, 388132, Note_on_c, 0, 59, 52
2, 388188, Note_on_c, 0, 79, 0
2, 388192, Note_on_c, 0, 64, 58
2, 388216, Note_on_c, 0, 64, 0
2, 388220, Note_on_c, 0, 76, 0
2, 388224, Note_on_c, 0, 59, 0
2, 388224, Note_on_c, 0, 78, 71
2, 388228, Note_on_c, 0, 63, 48
2, 388256, Note_on_c, 0, 67, 58
2, 388260, Note_on_c, 0, 64, 0
2, 388284, Note_on_c, 0, 63, 0
2, 388300, Note_on_c, 0, 78, 0
2, 388320, Note_on_c, 0, 67, 0
2, 388336, Note_on_c, 0, 71, 0
2, 388336, Note_on_c, 0, 59, 47
2, 388396, Note_on_c, 0, 59, 0
2, 388404, Note_on_c, 0, 79, 77
2, 388412, Note_on_c, 0, 71, 39
2, 388420, Note_on_c, 0, 52, 57
2, 388424, Note_on_c, 0, 64, 54
2, 388508, Note_on_c, 0, 79, 0
2, 388540, Note_on_c, 0, 59, 48
2, 388548, Note_on_c, 0, 52, 0
2, 388560, Note_on_c, 0, 52, 0
2, 388568, Note_on_c, 0, 40, 0
2, 388600, Note_on_c, 0, 64, 55
2, 388604, Note_on_c, 0, 79, 67
2, 388604, Note_on_c, 0, 83, 82
2, 388604, Note_on_c, 0, 55, 44
2, 388608, Note_on_c, 0, 59, 0
2, 388620, Note_on_c, 0, 64, 0
2, 388636, Note_on_c, 0, 64, 0
2, 388640, Note_on_c, 0, 67, 54
2, 388644, Note_on_c, 0, 79, 0
2, 388684, Note_on_c, 0, 71, 0
2, 388696, Note_on_c, 0, 67, 0
2, 388700, Note_on_c, 0, 59, 43
2, 388760, Note_on_c, 0, 55, 0
2, 388764, Note_on_c, 0, 59, 0
2, 388764, Note_on_c, 0, 83, 0
2, 388816, Note_on_c, 0, 47, 59
2, 388816, Note_on_c, 0, 35, 44
2, 388816, Note_on_c, 0, 78, 77
2, 388816, Note_on_c, 0, 59, 58
2, 388816, Note_on_c, 0, 63, 43
2, 388816, Note_on_c, 0, 71, 54
2, 388836, Control_c, 0, 64, 104
2, 388848, Control_c, 0, 64, 56
2, 388856, Control_c, 0, 64, 0
2, 388920, Note_on_c, 0, 59, 43
2, 388948, Control_c, 0, 64, 72
2, 388956, Control_c, 0, 64, 127
2, 388992, Note_on_c, 0, 63, 44
2, 389008, Note_on_c, 0, 35, 0
2, 389028, Note_on_c, 0, 59, 0
2, 389048, Note_on_c, 0, 47, 0
2, 389052, Note_on_c, 0, 59, 0
2, 389060, Note_on_c, 0, 63, 0
2, 389060, Note_on_c, 0, 63, 0
2, 389064, Note_on_c, 0, 66, 46
2, 389084, Note_on_c, 0, 71, 0
2, 389092, Note_on_c, 0, 78, 0
2, 389128, Note_on_c, 0, 66, 0
2, 389136, Note_on_c, 0, 59, 42
2, 389164, Note_on_c, 0, 59, 0
2, 389236, Note_on_c, 0, 67, 66
2, 389280, Note_on_c, 0, 55, 60
2, 389284, Note_on_c, 0, 52, 45
2, 389316, Control_c, 0, 64, 104
2, 389332, Control_c, 0, 64, 88
2, 389340, Control_c, 0, 64, 56
2, 389348, Control_c, 0, 64, 24
2, 389352, Control_c, 0, 64, 0
2, 389368, Note_on_c, 0, 59, 48
2, 389432, Note_on_c, 0, 64, 44
2, 389440, Control_c, 0, 64, 72
2, 389448, Control_c, 0, 64, 104
2, 389452, Control_c, 0, 64, 127
2, 389460, Note_on_c, 0, 59, 0
2, 389496, Note_on_c, 0, 64, 0
2, 389500, Note_on_c, 0, 67, 41
2, 389556, Note_on_c, 0, 67, 0
2, 389564, Note_on_c, 0, 59, 44
2, 389576, Note_on_c, 0, 55, 0
2, 389612, Note_on_c, 0, 59, 0
2, 389656, Note_on_c, 0, 69, 65
2, 389668, Note_on_c, 0, 57, 55
2, 389672, Note_on_c, 0, 67, 0
2, 389724, Control_c, 0, 64, 88
2, 389732, Control_c, 0, 64, 56
2, 389740, Control_c, 0, 64, 0
2, 389760, Note_on_c, 0, 60, 49
2, 389800, Control_c, 0, 64, 40
2, 389808, Control_c, 0, 64, 88
2, 389816, Control_c, 0, 64, 127
2, 389824, Note_on_c, 0, 64, 48
2, 389836, Note_on_c, 0, 60, 0
2, 389892, Note_on_c, 0, 64, 0
2, 389900, Note_on_c, 0, 69, 49
2, 389952, Note_on_c, 0, 69, 0
2, 389956, Note_on_c, 0, 60, 52
2, 390012, Note_on_c, 0, 60, 0
2, 390032, Note_on_c, 0, 57, 0
2, 390052, Note_on_c, 0, 52, 0
2, 390052, Note_on_c, 0, 51, 62
2, 390052, Note_on_c, 0, 66, 47
2, 390052, Note_on_c, 0, 59, 47
2, 390052, Note_on_c, 0, 71, 69
2, 390084, Note_on_c, 0, 69, 0
2, 390092, Control_c, 0, 64, 104
2, 390100, Control_c, 0, 64, 72
2, 390108, Control_c, 0, 64, 40
2, 390116, Control_c, 0, 64, 0
2, 390124, Note_on_c, 0, 59, 42
2, 390176, Control_c, 0, 64, 24
2, 390184, Control_c, 0, 64, 72
2, 390192, Control_c, 0, 64, 104
2, 390200, Note_on_c, 0, 66, 38
2, 390200, Control_c, 0, 64, 127
2, 390224, Note_on_c, 0, 59, 0
2, 390264, Note_on_c, 0, 66, 0
2, 390276, Note_on_c, 0, 71, 41
2, 390340, Note_on_c, 0, 71, 0
2, 390348, Note_on_c, 0, 59, 39
2, 390372, Note_on_c, 0, 66, 0
2, 390400, Note_on_c, 0, 71, 0
2, 390408, Note_on_c, 0, 59, 0
2, 390448, Note_on_c, 0, 52, 52
2, 390448, Note_on_c, 0, 67, 61
2, 390448, Note_on_c, 0, 52, 48
2, 390448, Note_on_c, 0, 64, 43
2, 390452, Note_on_c, 0, 51, 0
2, 390492, Control_c, 0, 64, 104
2, 390500, Control_c, 0, 64, 88
2, 390508, Control_c, 0, 64, 56
2, 390516, Control_c, 0, 64, 24
2, 390524, Control_c, 0, 64, 0
2, 390536, Note_on_c, 0, 59, 42
2, 390592, Control_c, 0, 64, 40
2, 390600, Control_c, 0, 64, 72
2, 390608, Control_c, 0, 64, 88
2, 390616, Note_on_c, 0, 64, 43
2, 390616, Control_c, 0, 64, 104
2, 390624, Control_c, 0, 64, 127
2, 390652, Note_on_c, 0, 59, 0
2, 390664, Note_on_c, 0, 59, 0
2, 390680, Note_on_c, 0, 52, 0
2, 390684, Note_on_c, 0, 64, 0
2, 390700, Note_on_c, 0, 67, 36
2, 390756, Note_on_c, 0, 64, 0
2, 390760, Note_on_c, 0, 67, 0
2, 390772, Note_on_c, 0, 59, 43
2, 390780, Note_on_c, 0, 67, 0
2, 390800, Note_on_c, 0, 52, 0
2, 390828, Note_on_c, 0, 59, 0
2, 390868, Note_on_c, 0, 67, 65
2, 390884, Note_on_c, 0, 55, 54
2, 390892, Note_on_c, 0, 52, 39
2, 390924, Control_c, 0, 64, 88
2, 390932, Control_c, 0, 64, 56
2, 390940, Control_c, 0, 64, 0
2, 390976, Note_on_c, 0, 59, 39
2, 391000, Control_c, 0, 64, 24
2, 391008, Control_c, 0, 64, 72
2, 391016, Control_c, 0, 64, 104
2, 391024, Control_c, 0, 64, 127
2, 391044, Note_on_c, 0, 64, 39
2, 391056, Note_on_c, 0, 59, 0
2, 391100, Note_on_c, 0, 64, 0
2, 391104, Note_on_c, 0, 67, 38
2, 391164, Note_on_c, 0, 67, 0
2, 391176, Note_on_c, 0, 55, 0
2, 391176, Note_on_c, 0, 59, 36
2, 391216, Note_on_c, 0, 59, 0
2, 391268, Note_on_c, 0, 57, 46
2, 391276, Note_on_c, 0, 69, 62
2, 391300, Note_on_c, 0, 67, 0
2, 391308, Control_c, 0, 64, 104
2, 391316, Control_c, 0, 64, 56
2, 391324, Control_c, 0, 64, 0
2, 391360, Note_on_c, 0, 60, 36
2, 391396, Control_c, 0, 64, 40
2, 391400, Control_c, 0, 64, 72
2, 391408, Control_c, 0, 64, 104
2, 391416, Control_c, 0, 64, 127
2, 391436, Note_on_c, 0, 60, 0
2, 391436, Note_on_c, 0, 64, 35
2, 391480, Note_on_c, 0, 64, 0
2, 391500, Note_on_c, 0, 69, 36
2, 391552, Note_on_c, 0, 69, 0
2, 391560, Note_on_c, 0, 60, 38
2, 391604, Note_on_c, 0, 60, 0
2, 391652, Note_on_c, 0, 57, 0
2, 391656, Note_on_c, 0, 71, 71
2, 391656, Note_on_c, 0, 59, 41
2, 391656, Note_on_c, 0, 66, 49
2, 391660, Note_on_c, 0, 51, 53
2, 391664, Note_on_c, 0, 52, 0
2, 391668, Note_on_c, 0, 69, 0
2, 391692, Control_c, 0, 64, 88
2, 391700, Control_c, 0, 64, 56
2, 391708, Control_c, 0, 64, 24
2, 391716, Control_c, 0, 64, 0
2, 391724, Note_on_c, 0, 59, 28
2, 391772, Control_c, 0, 64, 24
2, 391780, Control_c, 0, 64, 56
2, 391784, Control_c, 0, 64, 88
2, 391792, Control_c, 0, 64, 104
2, 391800, Control_c, 0, 64, 127
2, 391808, Note_on_c, 0, 66, 34
2, 391836, Note_on_c, 0, 59, 0
2, 391868, Note_on_c, 0, 66, 0
2, 391888, Note_on_c, 0, 71, 22
2, 391940, Note_on_c, 0, 71, 0
2, 391944, Note_on_c, 0, 59, 33
2, 392020, Note_on_c, 0, 59, 0
2, 392020, Note_on_c, 0, 66, 0
2, 392036, Note_on_c, 0, 71, 0
2, 392060, Note_on_c, 0, 51, 0
2, 392080, Note_on_c, 0, 52, 36
2, 392080, Note_on_c, 0, 52, 50
2, 392080, Note_on_c, 0, 67, 60
2, 392084, Note_on_c, 0, 64, 44
2, 392104, Control_c, 0, 64, 104
2, 392112, Control_c, 0, 64, 72
2, 392116, Control_c, 0, 64, 56
2, 392124, Control_c, 0, 64, 0
2, 392164, Note_on_c, 0, 59, 42
2, 392196, Control_c, 0, 64, 24
2, 392200, Control_c, 0, 64, 56
2, 392208, Control_c, 0, 64, 88
2, 392216, Control_c, 0, 64, 127
2, 392244, Note_on_c, 0, 64, 36
2, 392276, Note_on_c, 0, 59, 0
2, 392276, Note_on_c, 0, 59, 0
2, 392292, Note_on_c, 0, 64, 0
2, 392308, Note_on_c, 0, 67, 0
2, 392308, Note_on_c, 0, 64, 0
2, 392316, Note_on_c, 0, 67, 36
2, 392336, Note_on_c, 0, 52, 0
2, 392380, Note_on_c, 0, 52, 0
2, 392388, Note_on_c, 0, 67, 0
2, 392396, Note_on_c, 0, 59, 40
2, 392460, Note_on_c, 0, 59, 0
2, 392496, Note_on_c, 0, 64, 60
2, 392504, Note_on_c, 0, 59, 41
2, 392516, Note_on_c, 0, 55, 42
2, 392532, Note_on_c, 0, 52, 46
2, 392532, Note_on_c, 0, 40, 38
2, 392560, Note_on_c, 0, 59, 0
2, 392588, Control_c, 0, 64, 104
2, 392596, Control_c, 0, 64, 88
2, 392600, Control_c, 0, 64, 56
2, 392608, Control_c, 0, 64, 24
2, 392616, Control_c, 0, 64, 0
2, 392620, Note_on_c, 0, 59, 45
2, 392688, Note_on_c, 0, 64, 45
2, 392692, Note_on_c, 0, 64, 0
2, 392692, Note_on_c, 0, 66, 63
2, 392700, Note_on_c, 0, 59, 44
2, 392708, Note_on_c, 0, 59, 0
2, 392708, Control_c, 0, 64, 40
2, 392712, Note_on_c, 0, 63, 49
2, 392716, Control_c, 0, 64, 104
2, 392724, Control_c, 0, 64, 127
2, 392748, Note_on_c, 0, 55, 0
2, 392752, Note_on_c, 0, 64, 0
2, 392752, Note_on_c, 0, 67, 41
2, 392784, Note_on_c, 0, 59, 0
2, 392816, Note_on_c, 0, 67, 0
2, 392820, Note_on_c, 0, 59, 36
2, 392880, Note_on_c, 0, 59, 0
2, 392892, Note_on_c, 0, 63, 0
2, 392904, Note_on_c, 0, 66, 0
2, 392904, Note_on_c, 0, 67, 68
2, 392904, Note_on_c, 0, 64, 57
2, 393064, Note_on_c, 0, 59, 46
2, 393076, Note_on_c, 0, 64, 0
2, 393088, Note_on_c, 0, 66, 66
2, 393088, Note_on_c, 0, 59, 48
2, 393088, Note_on_c, 0, 63, 45
2, 393112, Note_on_c, 0, 64, 48
2, 393116, Note_on_c, 0, 67, 0
2, 393156, Note_on_c, 0, 59, 0
2, 393176, Note_on_c, 0, 64, 0
2, 393176, Note_on_c, 0, 67, 51
2, 393180, Note_on_c, 0, 63, 0
2, 393244, Note_on_c, 0, 66, 0
2, 393252, Note_on_c, 0, 67, 0
2, 393256, Note_on_c, 0, 59, 40
2, 393288, Note_on_c, 0, 59, 0
2, 393292, Note_on_c, 0, 67, 74
2, 393300, Note_on_c, 0, 64, 46
2, 393300, Note_on_c, 0, 52, 44
2, 393328, Note_on_c, 0, 59, 0
2, 393436, Note_on_c, 0, 67, 0
2, 393456, Note_on_c, 0, 59, 44
2, 393460, Note_on_c, 0, 64, 0
2, 393488, Note_on_c, 0, 71, 71
2, 393488, Note_on_c, 0, 55, 53
2, 393488, Note_on_c, 0, 67, 57
2, 393496, Note_on_c, 0, 52, 0
2, 393508, Note_on_c, 0, 52, 0
2, 393516, Note_on_c, 0, 64, 51
2, 393520, Note_on_c, 0, 40, 0
2, 393528, Note_on_c, 0, 55, 0
2, 393556, Note_on_c, 0, 59, 0
2, 393580, Note_on_c, 0, 64, 0
2, 393588, Note_on_c, 0, 67, 42
2, 393592, Note_on_c, 0, 67, 0
2, 393640, Note_on_c, 0, 67, 0
2, 393656, Note_on_c, 0, 59, 43
2, 393692, Note_on_c, 0, 71, 0
2, 393704, Note_on_c, 0, 59, 0
2, 393708, Note_on_c, 0, 47, 56
2, 393708, Note_on_c, 0, 35, 56
2, 393708, Note_on_c, 0, 59, 45
2, 393708, Note_on_c, 0, 66, 64
2, 393712, Note_on_c, 0, 63, 47
2, 393712, Note_on_c, 0, 47, 40
2, 393812, Control_c, 0, 64, 72
2, 393820, Control_c, 0, 64, 0
2, 393856, Note_on_c, 0, 59, 49
2, 393888, Control_c, 0, 64, 56
2, 393896, Note_on_c, 0, 35, 0
2, 393896, Control_c, 0, 64, 104
2, 393904, Control_c, 0, 64, 127
2, 393924, Note_on_c, 0, 47, 0
2, 393932, Note_on_c, 0, 63, 0
2, 393936, Note_on_c, 0, 63, 48
2, 393948, Note_on_c, 0, 47, 0
2, 393960, Note_on_c, 0, 66, 0
2, 393968, Note_on_c, 0, 59, 0
2, 393968, Note_on_c, 0, 59, 0
2, 394004, Note_on_c, 0, 66, 45
2, 394008, Note_on_c, 0, 63, 0
2, 394080, Note_on_c, 0, 66, 0
2, 394084, Note_on_c, 0, 59, 44
2, 394104, Note_on_c, 0, 59, 0
2, 394140, Note_on_c, 0, 79, 73
2, 394160, Note_on_c, 0, 74, 41
2, 394164, Note_on_c, 0, 59, 33
2, 394168, Note_on_c, 0, 67, 31
2, 394184, Note_on_c, 0, 55, 56
2, 394196, Note_on_c, 0, 43, 42
2, 394204, Control_c, 0, 64, 88
2, 394212, Control_c, 0, 64, 40
2, 394220, Control_c, 0, 64, 0
2, 394264, Note_on_c, 0, 62, 55
2, 394288, Control_c, 0, 64, 72
2, 394296, Control_c, 0, 64, 127
2, 394328, Note_on_c, 0, 67, 52
2, 394332, Note_on_c, 0, 62, 0
2, 394344, Note_on_c, 0, 67, 0
2, 394348, Note_on_c, 0, 79, 0
2, 394348, Note_on_c, 0, 59, 0
2, 394356, Note_on_c, 0, 81, 71
2, 394356, Note_on_c, 0, 66, 33
2, 394368, Note_on_c, 0, 62, 43
2, 394396, Note_on_c, 0, 67, 0
2, 394396, Note_on_c, 0, 71, 58
2, 394464, Note_on_c, 0, 71, 0
2, 394472, Note_on_c, 0, 62, 43
2, 394528, Note_on_c, 0, 62, 0
2, 394540, Note_on_c, 0, 81, 0
2, 394560, Note_on_c, 0, 66, 0
2, 394560, Note_on_c, 0, 83, 70
2, 394568, Note_on_c, 0, 62, 0
2, 394568, Note_on_c, 0, 79, 61
2, 394584, Note_on_c, 0, 67, 43
2, 394596, Note_on_c, 0, 74, 0
2, 394680, Note_on_c, 0, 62, 45
2, 394712, Note_on_c, 0, 83, 0
2, 394740, Note_on_c, 0, 67, 49
2, 394752, Note_on_c, 0, 81, 74
2, 394756, Note_on_c, 0, 79, 0
2, 394760, Note_on_c, 0, 66, 37
2, 394764, Note_on_c, 0, 67, 0
2, 394772, Note_on_c, 0, 62, 42
2, 394776, Note_on_c, 0, 62, 0
2, 394776, Note_on_c, 0, 74, 45
2, 394808, Note_on_c, 0, 71, 59
2, 394812, Note_on_c, 0, 67, 0
2, 394816, Note_on_c, 0, 62, 0
2, 394816, Note_on_c, 0, 66, 0
2, 394836, Note_on_c, 0, 81, 0
2, 394884, Note_on_c, 0, 71, 0
2, 394888, Note_on_c, 0, 62, 44
2, 394948, Note_on_c, 0, 83, 79
2, 394956, Note_on_c, 0, 62, 0
2, 394968, Note_on_c, 0, 55, 42
2, 394968, Note_on_c, 0, 67, 28
2, 394976, Note_on_c, 0, 79, 28
2, 394996, Note_on_c, 0, 79, 0
2, 395060, Note_on_c, 0, 74, 0
2, 395080, Note_on_c, 0, 83, 0
2, 395092, Note_on_c, 0, 62, 52
2, 395128, Note_on_c, 0, 55, 0
2, 395144, Note_on_c, 0, 86, 83
2, 395156, Note_on_c, 0, 83, 68
2, 395156, Note_on_c, 0, 59, 44
2, 395160, Note_on_c, 0, 67, 0
2, 395164, Note_on_c, 0, 67, 52
2, 395176, Note_on_c, 0, 55, 0
2, 395200, Note_on_c, 0, 43, 0
2, 395200, Note_on_c, 0, 62, 0
2, 395228, Note_on_c, 0, 67, 0
2, 395228, Note_on_c, 0, 71, 60
2, 395292, Note_on_c, 0, 71, 0
2, 395300, Note_on_c, 0, 62, 46
2, 395348, Note_on_c, 0, 62, 0
2, 395348, Note_on_c, 0, 59, 0
2, 395356, Note_on_c, 0, 83, 0
2, 395368, Note_on_c, 0, 86, 0
2, 395372, Note_on_c, 0, 50, 49
2, 395372, Note_on_c, 0, 38, 56
2, 395372, Note_on_c, 0, 81, 72
2, 395372, Note_on_c, 0, 66, 50
2, 395372, Note_on_c, 0, 74, 53
2, 395372, Note_on_c, 0, 62, 58
2, 395436, Control_c, 0, 64, 88
2, 395440, Control_c, 0, 64, 56
2, 395452, Control_c, 0, 64, 0
2, 395504, Note_on_c, 0, 62, 48
2, 395520, Control_c, 0, 64, 56
2, 395528, Control_c, 0, 64, 127
2, 395580, Note_on_c, 0, 66, 46
2, 395588, Note_on_c, 0, 50, 0
2, 395592, Note_on_c, 0, 62, 0
2, 395596, Note_on_c, 0, 62, 0
2, 395600, Note_on_c, 0, 74, 0
2, 395604, Note_on_c, 0, 38, 0
2, 395604, Note_on_c, 0, 66, 0
2, 395604, Note_on_c, 0, 81, 0
2, 395640, Note_on_c, 0, 66, 0
2, 395644, Note_on_c, 0, 69, 51
2, 395712, Note_on_c, 0, 69, 0
2, 395720, Note_on_c, 0, 62, 42
2, 395760, Note_on_c, 0, 62, 0
2, 395844, Note_on_c, 0, 67, 68
2, 395864, Note_on_c, 0, 62, 35
2, 395904, Note_on_c, 0, 67, 53
2, 395908, Note_on_c, 0, 59, 39
2, 395916, Note_on_c, 0, 43, 31
2, 395920, Note_on_c, 0, 31, 31
2, 395928, Control_c, 0, 64, 88
2, 395936, Control_c, 0, 64, 24
2, 395940, Control_c, 0, 64, 0
2, 395980, Control_c, 0, 64, 40
2, 395988, Control_c, 0, 64, 104
2, 395996, Control_c, 0, 64, 127
2, 396000, Note_on_c, 0, 59, 0
2, 396068, Note_on_c, 0, 67, 0
2, 396072, Note_on_c, 0, 69, 70
2, 396076, Note_on_c, 0, 66, 44
2, 396080, Note_on_c, 0, 67, 0
2, 396092, Note_on_c, 0, 62, 46
2, 396092, Note_on_c, 0, 69, 60
2, 396180, Note_on_c, 0, 62, 0
2, 396212, Note_on_c, 0, 66, 0
2, 396240, Note_on_c, 0, 62, 0
2, 396240, Note_on_c, 0, 69, 0
2, 396248, Note_on_c, 0, 69, 0
2, 396284, Note_on_c, 0, 71, 66
2, 396284, Note_on_c, 0, 67, 49
2, 396440, Note_on_c, 0, 67, 0
2, 396476, Note_on_c, 0, 71, 0
2, 396484, Note_on_c, 0, 69, 69
2, 396484, Note_on_c, 0, 62, 48
2, 396488, Note_on_c, 0, 31, 0
2, 396512, Note_on_c, 0, 43, 0
2, 396660, Note_on_c, 0, 62, 0
2, 396664, Note_on_c, 0, 69, 0
2, 396672, Note_on_c, 0, 71, 68
2, 396676, Note_on_c, 0, 67, 60
2, 396736, Note_on_c, 0, 67, 0
2, 396748, Note_on_c, 0, 71, 0
2, 396868, Note_on_c, 0, 76, 77
2, 396868, Note_on_c, 0, 70, 59
2, 396868, Note_on_c, 0, 67, 51
2, 396868, Note_on_c, 0, 61, 60
2, 396964, Note_on_c, 0, 76, 0
2, 396992, Note_on_c, 0, 70, 0
2, 397052, Note_on_c, 0, 67, 0
2, 397060, Note_on_c, 0, 61, 0
2, 397060, Control_c, 0, 64, 0
2, 397076, Note_on_c, 0, 69, 70
2, 397076, Note_on_c, 0, 62, 59
2, 397076, Note_on_c, 0, 66, 49
2, 397212, Control_c, 0, 64, 40
2, 397224, Control_c, 0, 64, 56
2, 397228, Note_on_c, 0, 66, 0
2, 397236, Control_c, 0, 64, 72
2, 397264, Note_on_c, 0, 69, 0
2, 397268, Note_on_c, 0, 68, 65
2, 397268, Note_on_c, 0, 65, 54
2, 397268, Control_c, 0, 64, 88
2, 397280, Control_c, 0, 64, 104
2, 397308, Control_c, 0, 64, 127
2, 397372, Note_on_c, 0, 68, 0
2, 397428, Note_on_c, 0, 65, 0
2, 397452, Note_on_c, 0, 69, 71
2, 397452, Note_on_c, 0, 66, 51
2, 397476, Note_on_c, 0, 66, 0
2, 397508, Note_on_c, 0, 69, 0
2, 397616, Control_c, 0, 64, 72
2, 397628, Note_on_c, 0, 62, 0
2, 397628, Control_c, 0, 64, 24
2, 397640, Note_on_c, 0, 68, 62
2, 397640, Note_on_c, 0, 74, 78
2, 397640, Control_c, 0, 64, 0
2, 397648, Note_on_c, 0, 65, 56
2, 397656, Note_on_c, 0, 59, 44
2, 397704, Note_on_c, 0, 65, 0
2, 397720, Note_on_c, 0, 68, 0
2, 397720, Control_c, 0, 64, 40
2, 397736, Control_c, 0, 64, 88
2, 397748, Control_c, 0, 64, 104
2, 397760, Control_c, 0, 64, 127
2, 397772, Note_on_c, 0, 74, 0
2, 397816, Control_c, 0, 64, 56
2, 397828, Control_c, 0, 64, 0
2, 397848, Note_on_c, 0, 59, 0
2, 397852, Note_on_c, 0, 67, 71
2, 397852, Note_on_c, 0, 60, 57
2, 397852, Note_on_c, 0, 64, 50
2, 397884, Note_on_c, 0, 64, 0
2, 397920, Note_on_c, 0, 67, 0
2, 397936, Control_c, 0, 64, 56
2, 397952, Control_c, 0, 64, 88
2, 397964, Control_c, 0, 64, 104
2, 397976, Control_c, 0, 64, 127
2, 398040, Note_on_c, 0, 66, 67
2, 398056, Note_on_c, 0, 63, 48
2, 398092, Note_on_c, 0, 63, 0
2, 398120, Note_on_c, 0, 66, 0
2, 398248, Note_on_c, 0, 67, 67
2, 398260, Note_on_c, 0, 64, 50
2, 398292, Note_on_c, 0, 64, 0
2, 398328, Note_on_c, 0, 67, 0
2, 398392, Control_c, 0, 64, 88
2, 398408, Control_c, 0, 64, 40
2, 398420, Control_c, 0, 64, 0
2, 398424, Note_on_c, 0, 60, 0
2, 398440, Note_on_c, 0, 72, 73
2, 398448, Note_on_c, 0, 63, 48
2, 398448, Note_on_c, 0, 69, 59
2, 398452, Note_on_c, 0, 54, 59
2, 398500, Control_c, 0, 64, 24
2, 398516, Control_c, 0, 64, 56
2, 398528, Control_c, 0, 64, 88
2, 398544, Note_on_c, 0, 63, 0
2, 398544, Control_c, 0, 64, 127
2, 398564, Note_on_c, 0, 72, 0
2, 398580, Note_on_c, 0, 69, 0
2, 398608, Control_c, 0, 64, 72
2, 398620, Control_c, 0, 64, 40
2, 398632, Control_c, 0, 64, 0
2, 398636, Note_on_c, 0, 54, 0
2, 398664, Note_on_c, 0, 71, 68
2, 398664, Note_on_c, 0, 55, 52
2, 398664, Note_on_c, 0, 62, 49
2, 398664, Note_on_c, 0, 67, 53
2, 398760, Note_on_c, 0, 55, 0
2, 398768, Note_on_c, 0, 67, 0
2, 398768, Note_on_c, 0, 62, 0
2, 398768, Control_c, 0, 64, 56
2, 398780, Note_on_c, 0, 71, 0
2, 398780, Control_c, 0, 64, 104
2, 398796, Control_c, 0, 64, 127
2, 399052, Control_c, 0, 64, 40
2, 399064, Note_on_c, 0, 55, 66
2, 399064, Note_on_c, 0, 31, 46
2, 399064, Note_on_c, 0, 43, 42
2, 399064, Note_on_c, 0, 47, 51
2, 399064, Note_on_c, 0, 67, 61
2, 399064, Control_c, 0, 64, 0
2, 399128, Note_on_c, 0, 47, 0
2, 399148, Control_c, 0, 64, 24
2, 399160, Control_c, 0, 64, 56
2, 399172, Control_c, 0, 64, 72
2, 399188, Note_on_c, 0, 67, 0
2, 399188, Control_c, 0, 64, 88
2, 399200, Control_c, 0, 64, 104
2, 399220, Note_on_c, 0, 55, 0
2, 399252, Note_on_c, 0, 57, 64
2, 399252, Note_on_c, 0, 50, 58
2, 399252, Note_on_c, 0, 62, 52
2, 399376, Note_on_c, 0, 62, 0
2, 399388, Control_c, 0, 64, 88
2, 399392, Note_on_c, 0, 50, 0
2, 399412, Note_on_c, 0, 57, 0
2, 399456, Control_c, 0, 64, 72
2, 399464, Note_on_c, 0, 55, 56
2, 399464, Note_on_c, 0, 59, 67
2, 399464, Note_on_c, 0, 67, 58
2, 399464, Note_on_c, 0, 43, 56
2, 399464, Note_on_c, 0, 31, 58
2, 399468, Control_c, 0, 64, 56
2, 399484, Control_c, 0, 64, 24
2, 399496, Control_c, 0, 64, 0
2, 399588, Note_on_c, 0, 31, 0
2, 399588, Note_on_c, 0, 67, 0
2, 399588, Note_on_c, 0, 43, 0
2, 399608, Note_on_c, 0, 59, 0
2, 399616, Note_on_c, 0, 55, 0
2, 399628, Control_c, 0, 64, 24
2, 399640, Note_on_c, 0, 57, 59
2, 399640, Control_c, 0, 64, 72
2, 399656, Control_c, 0, 64, 104
2, 399660, Note_on_c, 0, 50, 57
2, 399668, Control_c, 0, 64, 127
2, 399732, Note_on_c, 0, 31, 0
2, 399792, Note_on_c, 0, 50, 0
2, 399796, Note_on_c, 0, 43, 0
2, 399804, Note_on_c, 0, 57, 0
2, 399836, Note_on_c, 0, 59, 66
2, 399848, Note_on_c, 0, 55, 50
2, 399872, Note_on_c, 0, 55, 0
2, 399888, Note_on_c, 0, 59, 0
2, 400040, Note_on_c, 0, 49, 47
2, 400040, Note_on_c, 0, 64, 68
2, 400040, Note_on_c, 0, 58, 60
2, 400040, Note_on_c, 0, 55, 64
2, 400092, Note_on_c, 0, 64, 0
2, 400144, Note_on_c, 0, 58, 0
2, 400188, Note_on_c, 0, 55, 0
2, 400228, Note_on_c, 0, 49, 0
2, 400252, Control_c, 0, 64, 0
2, 400256, Note_on_c, 0, 57, 66
2, 400256, Note_on_c, 0, 50, 53
2, 400256, Note_on_c, 0, 54, 54
2, 400272, Control_c, 0, 64, 88
2, 400288, Control_c, 0, 64, 40
2, 400300, Control_c, 0, 64, 0
2, 400420, Note_on_c, 0, 54, 0
2, 400436, Note_on_c, 0, 57, 0
2, 400436, Control_c, 0, 64, 40
2, 400448, Note_on_c, 0, 56, 62
2, 400448, Control_c, 0, 64, 88
2, 400464, Control_c, 0, 64, 127
2, 400468, Note_on_c, 0, 53, 55
2, 400584, Note_on_c, 0, 53, 0
2, 400604, Note_on_c, 0, 56, 0
2, 400644, Note_on_c, 0, 57, 66
2, 400644, Note_on_c, 0, 54, 50
2, 400660, Note_on_c, 0, 56, 30
2, 400684, Note_on_c, 0, 56, 0
2, 400692, Note_on_c, 0, 54, 0
2, 400700, Note_on_c, 0, 57, 0
2, 400784, Note_on_c, 0, 50, 0
2, 400808, Control_c, 0, 64, 72
2, 400820, Control_c, 0, 64, 0
2, 400836, Note_on_c, 0, 56, 55
2, 400840, Note_on_c, 0, 62, 70
2, 400844, Note_on_c, 0, 53, 60
2, 400844, Note_on_c, 0, 47, 54
2, 400892, Control_c, 0, 64, 24
2, 400904, Control_c, 0, 64, 56
2, 400912, Note_on_c, 0, 53, 0
2, 400916, Control_c, 0, 64, 88
2, 400920, Note_on_c, 0, 56, 0
2, 400932, Control_c, 0, 64, 127
2, 400984, Note_on_c, 0, 62, 0
2, 401000, Control_c, 0, 64, 40
2, 401012, Control_c, 0, 64, 0
2, 401028, Note_on_c, 0, 47, 0
2, 401040, Note_on_c, 0, 55, 74
2, 401040, Note_on_c, 0, 52, 53
2, 401040, Note_on_c, 0, 48, 65
2, 401076, Note_on_c, 0, 52, 0
2, 401092, Control_c, 0, 64, 24
2, 401104, Control_c, 0, 64, 88
2, 401112, Note_on_c, 0, 55, 0
2, 401120, Control_c, 0, 64, 127
2, 401220, Note_on_c, 0, 51, 53
2, 401220, Note_on_c, 0, 54, 58
2, 401308, Note_on_c, 0, 54, 0
2, 401316, Note_on_c, 0, 51, 0
2, 401420, Note_on_c, 0, 55, 73
2, 401428, Note_on_c, 0, 52, 56
2, 401452, Note_on_c, 0, 52, 0
2, 401508, Note_on_c, 0, 55, 0
2, 401568, Note_on_c, 0, 48, 0
2, 401576, Control_c, 0, 64, 104
2, 401588, Control_c, 0, 64, 72
2, 401604, Control_c, 0, 64, 0
2, 401616, Note_on_c, 0, 60, 68
2, 401620, Note_on_c, 0, 51, 52
2, 401620, Note_on_c, 0, 42, 44
2, 401628, Note_on_c, 0, 57, 52
2, 401696, Control_c, 0, 64, 24
2, 401712, Note_on_c, 0, 51, 0
2, 401712, Control_c, 0, 64, 72
2, 401724, Note_on_c, 0, 60, 0
2, 401724, Control_c, 0, 64, 88
2, 401736, Control_c, 0, 64, 104
2, 401752, Note_on_c, 0, 57, 0
2, 401800, Control_c, 0, 64, 56
2, 401816, Note_on_c, 0, 42, 0
2, 401816, Control_c, 0, 64, 40
2, 401828, Note_on_c, 0, 59, 62
2, 401828, Note_on_c, 0, 43, 54
2, 401828, Note_on_c, 0, 50, 50
2, 401828, Note_on_c, 0, 55, 48
2, 401832, Control_c, 0, 64, 0
2, 401976, Note_on_c, 0, 50, 0
2, 402008, Control_c, 0, 64, 56
2, 402020, Note_on_c, 0, 59, 0
2, 402020, Control_c, 0, 64, 88
2, 402032, Note_on_c, 0, 55, 0
2, 402032, Control_c, 0, 64, 127
2, 402060, Note_on_c, 0, 43, 0
2, 402232, Control_c, 0, 64, 56
2, 402240, Note_on_c, 0, 60, 65
2, 402240, Note_on_c, 0, 52, 54
2, 402248, Control_c, 0, 64, 0
2, 402252, Note_on_c, 0, 48, 48
2, 402264, Note_on_c, 0, 36, 49
2, 402264, Note_on_c, 0, 43, 44
2, 402296, Note_on_c, 0, 52, 0
2, 402328, Control_c, 0, 64, 40
2, 402344, Control_c, 0, 64, 88
2, 402356, Control_c, 0, 64, 104
2, 402368, Control_c, 0, 64, 127
2, 402400, Note_on_c, 0, 60, 0
2, 402420, Note_on_c, 0, 62, 69
2, 402420, Note_on_c, 0, 55, 60
2, 402560, Note_on_c, 0, 55, 0
2, 402576, Note_on_c, 0, 62, 0
2, 402620, Note_on_c, 0, 64, 69
2, 402620, Note_on_c, 0, 60, 57
2, 402624, Control_c, 0, 64, 72
2, 402640, Control_c, 0, 64, 0
2, 402732, Control_c, 0, 64, 56
2, 402744, Control_c, 0, 64, 104
2, 402756, Control_c, 0, 64, 127
2, 402768, Note_on_c, 0, 64, 0
2, 402780, Note_on_c, 0, 60, 0
2, 402812, Note_on_c, 0, 62, 60
2, 402844, Note_on_c, 0, 59, 49
2, 402888, Note_on_c, 0, 36, 0
2, 402912, Note_on_c, 0, 43, 0
2, 402960, Note_on_c, 0, 48, 0
2, 402964, Note_on_c, 0, 62, 0
2, 403004, Note_on_c, 0, 64, 59
2, 403004, Note_on_c, 0, 60, 51
2, 403012, Note_on_c, 0, 59, 0
2, 403032, Note_on_c, 0, 60, 0
2, 403036, Note_on_c, 0, 64, 0
2, 403192, Note_on_c, 0, 67, 71
2, 403192, Note_on_c, 0, 52, 60
2, 403192, Note_on_c, 0, 64, 57
2, 403236, Note_on_c, 0, 64, 0
2, 403240, Note_on_c, 0, 52, 0
2, 403316, Note_on_c, 0, 67, 0
2, 403404, Note_on_c, 0, 62, 70
2, 403404, Note_on_c, 0, 59, 49
2, 403404, Note_on_c, 0, 55, 57
2, 403428, Control_c, 0, 64, 72
2, 403444, Control_c, 0, 64, 0
2, 403552, Control_c, 0, 64, 56
2, 403564, Control_c, 0, 64, 88
2, 403576, Note_on_c, 0, 55, 0
2, 403580, Note_on_c, 0, 62, 0
2, 403580, Control_c, 0, 64, 127
2, 403584, Note_on_c, 0, 59, 0
2, 403596, Note_on_c, 0, 61, 64
2, 403596, Note_on_c, 0, 58, 46
2, 403596, Note_on_c, 0, 67, 50
2, 403720, Note_on_c, 0, 67, 0
2, 403744, Note_on_c, 0, 58, 0
2, 403748, Note_on_c, 0, 61, 0
2, 403792, Note_on_c, 0, 62, 67
2, 403792, Note_on_c, 0, 55, 49
2, 403792, Note_on_c, 0, 59, 48
2, 403844, Note_on_c, 0, 55, 0
2, 403860, Note_on_c, 0, 59, 0
2, 403936, Note_on_c, 0, 62, 0
2, 403948, Control_c, 0, 64, 72
2, 403968, Control_c, 0, 64, 24
2, 403976, Note_on_c, 0, 64, 74
2, 403976, Note_on_c, 0, 58, 51
2, 403976, Note_on_c, 0, 61, 56
2, 403976, Control_c, 0, 64, 0
2, 404020, Control_c, 0, 64, 24
2, 404032, Control_c, 0, 64, 56
2, 404048, Control_c, 0, 64, 88
2, 404060, Control_c, 0, 64, 127
2, 404120, Note_on_c, 0, 61, 0
2, 404120, Note_on_c, 0, 58, 0
2, 404140, Control_c, 0, 64, 104
2, 404152, Note_on_c, 0, 64, 0
2, 404152, Control_c, 0, 64, 40
2, 404168, Control_c, 0, 64, 0
2, 404172, Note_on_c, 0, 65, 69
2, 404184, Note_on_c, 0, 60, 55
2, 404192, Note_on_c, 0, 57, 48
2, 404264, Control_c, 0, 64, 24
2, 404276, Control_c, 0, 64, 56
2, 404288, Control_c, 0, 64, 88
2, 404304, Control_c, 0, 64, 127
2, 404324, Note_on_c, 0, 65, 0
2, 404336, Note_on_c, 0, 60, 0
2, 404360, Note_on_c, 0, 57, 0
2, 404364, Note_on_c, 0, 64, 67
2, 404368, Note_on_c, 0, 58, 49
2, 404368, Note_on_c, 0, 61, 47
2, 404492, Note_on_c, 0, 61, 0
2, 404520, Note_on_c, 0, 58, 0
2, 404524, Note_on_c, 0, 64, 0
2, 404552, Note_on_c, 0, 65, 66
2, 404552, Note_on_c, 0, 60, 55
2, 404552, Note_on_c, 0, 57, 59
2, 404552, Note_on_c, 0, 31, 55
2, 404592, Note_on_c, 0, 65, 0
2, 404596, Note_on_c, 0, 60, 0
2, 404596, Note_on_c, 0, 57, 0
2, 404744, Note_on_c, 0, 67, 74
2, 404748, Note_on_c, 0, 59, 42
2, 404756, Note_on_c, 0, 55, 46
2, 404804, Note_on_c, 0, 59, 0
2, 404860, Note_on_c, 0, 31, 0
2, 404860, Note_on_c, 0, 67, 0
2, 404872, Note_on_c, 0, 55, 0
2, 404908, Control_c, 0, 64, 88
2, 404916, Control_c, 0, 64, 40
2, 404932, Control_c, 0, 64, 0
2, 404948, Note_on_c, 0, 64, 69
2, 404956, Note_on_c, 0, 60, 64
2, 404976, Note_on_c, 0, 36, 58
2, 404976, Note_on_c, 0, 48, 50
2, 405028, Control_c, 0, 64, 24
2, 405040, Control_c, 0, 64, 88
2, 405052, Control_c, 0, 64, 127
2, 405084, Note_on_c, 0, 60, 0
2, 405096, Note_on_c, 0, 64, 0
2, 405132, Note_on_c, 0, 55, 51
2, 405136, Note_on_c, 0, 62, 68
2, 405196, Note_on_c, 0, 48, 0
2, 405208, Note_on_c, 0, 55, 0
2, 405256, Note_on_c, 0, 36, 0
2, 405292, Note_on_c, 0, 62, 0
2, 405332, Note_on_c, 0, 60, 68
2, 405332, Note_on_c, 0, 52, 45
2, 405332, Note_on_c, 0, 48, 46
2, 405332, Note_on_c, 0, 36, 50
2, 405332, Note_on_c, 0, 43, 47
2, 405464, Note_on_c, 0, 52, 0
2, 405468, Note_on_c, 0, 60, 0
2, 405484, Control_c, 0, 64, 72
2, 405500, Control_c, 0, 64, 24
2, 405508, Control_c, 0, 64, 0
2, 405520, Note_on_c, 0, 62, 70
2, 405536, Note_on_c, 0, 55, 54
2, 405564, Control_c, 0, 64, 40
2, 405576, Control_c, 0, 64, 72
2, 405592, Control_c, 0, 64, 127
2, 405680, Note_on_c, 0, 36, 0
2, 405680, Note_on_c, 0, 43, 0
2, 405680, Note_on_c, 0, 48, 0
2, 405688, Note_on_c, 0, 62, 0
2, 405688, Note_on_c, 0, 55, 0
2, 405700, Control_c, 0, 64, 88
2, 405712, Note_on_c, 0, 64, 73
2, 405712, Note_on_c, 0, 60, 61
2, 405712, Note_on_c, 0, 48, 52
2, 405716, Control_c, 0, 64, 56
2, 405752, Control_c, 0, 64, 104
2, 405768, Control_c, 0, 64, 127
2, 405848, Note_on_c, 0, 60, 0
2, 405880, Note_on_c, 0, 64, 0
2, 405896, Note_on_c, 0, 62, 66
2, 405904, Note_on_c, 0, 59, 45
2, 406032, Note_on_c, 0, 59, 0
2, 406056, Note_on_c, 0, 62, 0
2, 406088, Note_on_c, 0, 64, 66
2, 406096, Note_on_c, 0, 60, 59
2, 406176, Note_on_c, 0, 60, 0
2, 406240, Note_on_c, 0, 64, 0
2, 406248, Control_c, 0, 64, 88
2, 406264, Control_c, 0, 64, 40
2, 406272, Note_on_c, 0, 67, 72
2, 406272, Note_on_c, 0, 52, 56
2, 406272, Note_on_c, 0, 64, 50
2, 406276, Control_c, 0, 64, 0
2, 406316, Control_c, 0, 64, 40
2, 406328, Control_c, 0, 64, 72
2, 406344, Control_c, 0, 64, 104
2, 406356, Control_c, 0, 64, 127
2, 406384, Note_on_c, 0, 52, 0
2, 406404, Note_on_c, 0, 67, 0
2, 406444, Note_on_c, 0, 48, 0
2, 406452, Note_on_c, 0, 64, 0
2, 406464, Note_on_c, 0, 62, 70
2, 406464, Note_on_c, 0, 55, 54
2, 406464, Note_on_c, 0, 59, 50
2, 406464, Control_c, 0, 64, 72
2, 406480, Control_c, 0, 64, 0
2, 406544, Control_c, 0, 64, 56
2, 406560, Control_c, 0, 64, 88
2, 406572, Control_c, 0, 64, 127
2, 406600, Note_on_c, 0, 59, 0
2, 406604, Note_on_c, 0, 55, 0
2, 406624, Note_on_c, 0, 62, 0
2, 406644, Note_on_c, 0, 61, 68
2, 406644, Note_on_c, 0, 58, 48
2, 406644, Note_on_c, 0, 67, 50
2, 406736, Control_c, 0, 64, 88
2, 406748, Control_c, 0, 64, 56
2, 406760, Control_c, 0, 64, 40
2, 406780, Note_on_c, 0, 58, 0
2, 406792, Note_on_c, 0, 61, 0
2, 406796, Control_c, 0, 64, 72
2, 406812, Control_c, 0, 64, 88
2, 406828, Control_c, 0, 64, 104
2, 406832, Note_on_c, 0, 62, 64
2, 406832, Note_on_c, 0, 55, 51
2, 406832, Note_on_c, 0, 59, 47
2, 406840, Control_c, 0, 64, 127
2, 406884, Note_on_c, 0, 55, 0
2, 406920, Note_on_c, 0, 59, 0
2, 406932, Control_c, 0, 64, 88
2, 406948, Control_c, 0, 64, 40
2, 406960, Control_c, 0, 64, 0
2, 406980, Note_on_c, 0, 62, 0
2, 406992, Note_on_c, 0, 67, 0
2, 407016, Note_on_c, 0, 64, 74
2, 407016, Note_on_c, 0, 61, 57
2, 407016, Note_on_c, 0, 58, 55
2, 407056, Control_c, 0, 64, 40
2, 407068, Control_c, 0, 64, 72
2, 407084, Control_c, 0, 64, 104
2, 407096, Control_c, 0, 64, 127
2, 407148, Control_c, 0, 64, 72
2, 407164, Note_on_c, 0, 61, 0
2, 407164, Control_c, 0, 64, 40
2, 407176, Note_on_c, 0, 58, 0
2, 407176, Control_c, 0, 64, 0
2, 407188, Note_on_c, 0, 64, 0
2, 407196, Note_on_c, 0, 65, 70
2, 407196, Note_on_c, 0, 60, 59
2, 407196, Note_on_c, 0, 57, 52
2, 407256, Control_c, 0, 64, 40
2, 407268, Control_c, 0, 64, 88
2, 407284, Control_c, 0, 64, 127
2, 407336, Note_on_c, 0, 57, 0
2, 407344, Note_on_c, 0, 60, 0
2, 407344, Note_on_c, 0, 65, 0
2, 407388, Note_on_c, 0, 64, 64
2, 407392, Note_on_c, 0, 61, 49
2, 407392, Note_on_c, 0, 58, 53
2, 407528, Note_on_c, 0, 58, 0
2, 407528, Note_on_c, 0, 61, 0
2, 407552, Note_on_c, 0, 64, 0
2, 407572, Note_on_c, 0, 65, 68
2, 407572, Note_on_c, 0, 57, 57
2, 407572, Note_on_c, 0, 60, 54
2, 407572, Note_on_c, 0, 31, 55
2, 407628, Note_on_c, 0, 60, 0
2, 407628, Note_on_c, 0, 65, 0
2, 407628, Note_on_c, 0, 57, 0
2, 407748, Note_on_c, 0, 67, 73
2, 407760, Note_on_c, 0, 55, 49
2, 407760, Note_on_c, 0, 59, 49
2, 407816, Note_on_c, 0, 59, 0
2, 407856, Note_on_c, 0, 67, 0
2, 407868, Note_on_c, 0, 55, 0
2, 407912, Control_c, 0, 64, 104
2, 407920, Note_on_c, 0, 31, 0
2, 407928, Control_c, 0, 64, 56
2, 407944, Note_on_c, 0, 64, 71
2, 407944, Control_c, 0, 64, 0
2, 407948, Note_on_c, 0, 55, 49
2, 407952, Note_on_c, 0, 60, 59
2, 407960, Note_on_c, 0, 36, 52
2, 408024, Control_c, 0, 64, 24
2, 408036, Control_c, 0, 64, 72
2, 408048, Control_c, 0, 64, 127
2, 408080, Note_on_c, 0, 64, 0
2, 408092, Note_on_c, 0, 55, 0
2, 408092, Note_on_c, 0, 60, 0
2, 408120, Note_on_c, 0, 62, 75
2, 408208, Note_on_c, 0, 62, 0
2, 408212, Note_on_c, 0, 36, 0
2, 408292, Control_c, 0, 64, 72
2, 408300, Note_on_c, 0, 60, 86
2, 408304, Control_c, 0, 64, 24
2, 408312, Note_on_c, 0, 48, 76
2, 408312, Note_on_c, 0, 36, 68
2, 408320, Control_c, 0, 64, 0
2, 408348, Note_on_c, 0, 36, 0
2, 408352, Note_on_c, 0, 48, 0
2, 408400, Note_on_c, 0, 60, 0
2, 408492, Note_on_c, 0, 62, 83
2, 408496, Note_on_c, 0, 50, 78
2, 408504, Note_on_c, 0, 38, 63
2, 408528, Note_on_c, 0, 38, 0
2, 408544, Note_on_c, 0, 50, 0
2, 408624, Note_on_c, 0, 62, 0
2, 408680, Note_on_c, 0, 64, 88
2, 408688, Note_on_c, 0, 52, 79
2, 408692, Note_on_c, 0, 40, 74
2, 408720, Note_on_c, 0, 40, 0
2, 408736, Note_on_c, 0, 52, 0
2, 408744, Note_on_c, 0, 64, 0
2, 408852, Note_on_c, 0, 65, 84
2, 408868, Note_on_c, 0, 53, 74
2, 408876, Note_on_c, 0, 41, 74
2, 408900, Note_on_c, 0, 41, 0
2, 408916, Note_on_c, 0, 53, 0
2, 408972, Note_on_c, 0, 65, 0
2, 409028, Note_on_c, 0, 67, 85
2, 409044, Note_on_c, 0, 55, 80
2, 409048, Note_on_c, 0, 43, 78
2, 409072, Note_on_c, 0, 43, 0
2, 409092, Note_on_c, 0, 55, 0
2, 409156, Note_on_c, 0, 67, 0
2, 409196, Note_on_c, 0, 69, 74
2, 409212, Note_on_c, 0, 57, 65
2, 409228, Note_on_c, 0, 45, 55
2, 409236, Note_on_c, 0, 57, 0
2, 409252, Note_on_c, 0, 45, 0
2, 409264, Note_on_c, 0, 69, 0
2, 409340, Note_on_c, 0, 70, 60
2, 409384, Note_on_c, 0, 72, 74
2, 409396, Note_on_c, 0, 70, 0
2, 409420, Note_on_c, 0, 70, 76
2, 409420, Note_on_c, 0, 58, 68
2, 409420, Note_on_c, 0, 46, 69
2, 409468, Note_on_c, 0, 72, 0
2, 409504, Note_on_c, 0, 46, 0
2, 409504, Note_on_c, 0, 58, 0
2, 409532, Note_on_c, 0, 70, 0
2, 409580, Note_on_c, 0, 67, 89
2, 409596, Note_on_c, 0, 55, 80
2, 409600, Note_on_c, 0, 43, 70
2, 409632, Note_on_c, 0, 55, 0
2, 409636, Note_on_c, 0, 43, 0
2, 409740, Note_on_c, 0, 67, 0
2, 409760, Note_on_c, 0, 64, 88
2, 409780, Note_on_c, 0, 52, 73
2, 409788, Note_on_c, 0, 40, 70
2, 409812, Note_on_c, 0, 40, 0
2, 409828, Note_on_c, 0, 52, 0
2, 409864, Note_on_c, 0, 64, 0
2, 409940, Note_on_c, 0, 62, 89
2, 409952, Note_on_c, 0, 50, 81
2, 409960, Note_on_c, 0, 38, 78
2, 409992, Note_on_c, 0, 38, 0
2, 410000, Note_on_c, 0, 50, 0
2, 410112, Note_on_c, 0, 62, 0
2, 410132, Note_on_c, 0, 60, 89
2, 410136, Note_on_c, 0, 48, 89
2, 410144, Note_on_c, 0, 36, 82
2, 410188, Note_on_c, 0, 48, 0
2, 410192, Note_on_c, 0, 36, 0
2, 410232, Note_on_c, 0, 60, 0
2, 410312, Note_on_c, 0, 46, 96
2, 410312, Note_on_c, 0, 58, 80
2, 410316, Note_on_c, 0, 34, 85
2, 410360, Note_on_c, 0, 46, 0
2, 410364, Note_on_c, 0, 34, 0
2, 410436, Note_on_c, 0, 58, 0
2, 410504, Note_on_c, 0, 57, 99
2, 410504, Note_on_c, 0, 45, 96
2, 410508, Note_on_c, 0, 33, 82
2, 410548, Note_on_c, 0, 45, 0
2, 410560, Note_on_c, 0, 33, 0
2, 410596, Note_on_c, 0, 57, 0
2, 410684, Note_on_c, 0, 55, 100
2, 410688, Note_on_c, 0, 43, 93
2, 410696, Note_on_c, 0, 31, 86
2, 410736, Note_on_c, 0, 43, 0
2, 410748, Note_on_c, 0, 31, 0
2, 410792, Note_on_c, 0, 55, 0
2, 410884, Note_on_c, 0, 54, 102
2, 410884, Note_on_c, 0, 42, 80
2, 410884, Note_on_c, 0, 30, 80
2, 411048, Control_c, 0, 64, 88
2, 411056, Control_c, 0, 64, 40
2, 411064, Control_c, 0, 64, 0
2, 411080, Note_on_c, 0, 54, 0
2, 411088, Note_on_c, 0, 42, 0
2, 411100, Note_on_c, 0, 30, 0
2, 411272, Note_on_c, 0, 71, 89
2, 411272, Note_on_c, 0, 62, 70
2, 411280, Note_on_c, 0, 66, 77
2, 411284, Note_on_c, 0, 54, 73
2, 411320, Note_on_c, 0, 62, 0
2, 411320, Control_c, 0, 64, 24
2, 411336, Note_on_c, 0, 66, 0
2, 411344, Note_on_c, 0, 54, 0
2, 411368, Control_c, 0, 64, 0
2, 411388, Note_on_c, 0, 71, 0
2, 411464, Note_on_c, 0, 66, 83
2, 411468, Note_on_c, 0, 73, 88
2, 411468, Control_c, 0, 64, 24
2, 411480, Note_on_c, 0, 54, 73
2, 411480, Control_c, 0, 64, 40
2, 411492, Control_c, 0, 64, 56
2, 411536, Note_on_c, 0, 54, 0
2, 411544, Control_c, 0, 64, 24
2, 411552, Note_on_c, 0, 66, 0
2, 411556, Control_c, 0, 64, 0
2, 411592, Note_on_c, 0, 73, 0
2, 411668, Note_on_c, 0, 74, 86
2, 411668, Note_on_c, 0, 71, 86
2, 411676, Note_on_c, 0, 66, 77
2, 411688, Note_on_c, 0, 54, 73
2, 411696, Control_c, 0, 64, 72
2, 411708, Control_c, 0, 64, 127
2, 411784, Note_on_c, 0, 74, 0
2, 411788, Note_on_c, 0, 71, 0
2, 411852, Note_on_c, 0, 73, 81
2, 411860, Note_on_c, 0, 70, 71
2, 411904, Note_on_c, 0, 70, 0
2, 411912, Note_on_c, 0, 54, 0
2, 411916, Note_on_c, 0, 66, 0
2, 411960, Note_on_c, 0, 73, 0
2, 411972, Control_c, 0, 64, 104
2, 411984, Control_c, 0, 64, 72
2, 411996, Control_c, 0, 64, 40
2, 412008, Control_c, 0, 64, 0
2, 412032, Note_on_c, 0, 74, 86
2, 412036, Note_on_c, 0, 71, 71
2, 412052, Note_on_c, 0, 66, 77
2, 412056, Note_on_c, 0, 54, 73
2, 412100, Note_on_c, 0, 71, 0
2, 412104, Note_on_c, 0, 54, 0
2, 412108, Note_on_c, 0, 66, 0
2, 412124, Note_on_c, 0, 74, 0
2, 412220, Note_on_c, 0, 74, 85
2, 412228, Note_on_c, 0, 78, 79
2, 412236, Note_on_c, 0, 66, 76
2, 412236, Note_on_c, 0, 71, 65
2, 412240, Note_on_c, 0, 54, 75
2, 412260, Note_on_c, 0, 71, 0
2, 412288, Note_on_c, 0, 66, 0
2, 412288, Note_on_c, 0, 54, 0
2, 412288, Note_on_c, 0, 74, 0
2, 412320, Note_on_c, 0, 78, 0
2, 412424, Note_on_c, 0, 73, 85
2, 412432, Note_on_c, 0, 70, 69
2, 412444, Note_on_c, 0, 66, 74
2, 412444, Control_c, 0, 64, 72
2, 412452, Note_on_c, 0, 54, 71
2, 412456, Control_c, 0, 64, 127
2, 412528, Note_on_c, 0, 70, 0
2, 412580, Note_on_c, 0, 73, 0
2, 412608, Note_on_c, 0, 71, 86
2, 412612, Note_on_c, 0, 68, 62
2, 412648, Note_on_c, 0, 54, 0
2, 412648, Control_c, 0, 64, 72
2, 412656, Note_on_c, 0, 66, 0
2, 412656, Note_on_c, 0, 68, 0
2, 412660, Control_c, 0, 64, 40
2, 412672, Control_c, 0, 64, 0
2, 412716, Note_on_c, 0, 71, 0
2, 412780, Note_on_c, 0, 73, 76
2, 412784, Note_on_c, 0, 70, 67
2, 412792, Note_on_c, 0, 66, 74
2, 412800, Note_on_c, 0, 54, 71
2, 412844, Note_on_c, 0, 54, 0
2, 412844, Note_on_c, 0, 66, 0
2, 412848, Note_on_c, 0, 70, 0
2, 412884, Note_on_c, 0, 73, 0
2, 412960, Note_on_c, 0, 74, 88
2, 412976, Note_on_c, 0, 71, 77
2, 412976, Note_on_c, 0, 66, 75
2, 412980, Note_on_c, 0, 54, 71
2, 413024, Note_on_c, 0, 54, 0
2, 413024, Note_on_c, 0, 66, 0
2, 413040, Note_on_c, 0, 71, 0
2, 413068, Note_on_c, 0, 74, 0
2, 413144, Note_on_c, 0, 73, 83
2, 413152, Note_on_c, 0, 76, 87
2, 413164, Note_on_c, 0, 66, 73
2, 413172, Note_on_c, 0, 54, 69
2, 413172, Control_c, 0, 64, 88
2, 413184, Control_c, 0, 64, 127
2, 413244, Note_on_c, 0, 76, 0
2, 413284, Note_on_c, 0, 73, 0
2, 413332, Note_on_c, 0, 74, 87
2, 413344, Note_on_c, 0, 71, 76
2, 413392, Note_on_c, 0, 54, 0
2, 413400, Note_on_c, 0, 66, 0
2, 413428, Note_on_c, 0, 71, 0
2, 413436, Note_on_c, 0, 74, 0
2, 413512, Note_on_c, 0, 76, 88
2, 413512, Note_on_c, 0, 73, 75
2, 413512, Control_c, 0, 64, 88
2, 413520, Note_on_c, 0, 66, 67
2, 413524, Note_on_c, 0, 54, 63
2, 413524, Control_c, 0, 64, 56
2, 413536, Control_c, 0, 64, 24
2, 413548, Control_c, 0, 64, 0
2, 413572, Note_on_c, 0, 76, 0
2, 413576, Note_on_c, 0, 54, 0
2, 413576, Note_on_c, 0, 66, 0
2, 413608, Note_on_c, 0, 73, 0
2, 413684, Note_on_c, 0, 78, 82
2, 413688, Note_on_c, 0, 70, 80
2, 413700, Note_on_c, 0, 54, 67
2, 413700, Note_on_c, 0, 66, 67
2, 413736, Note_on_c, 0, 78, 0
2, 413744, Note_on_c, 0, 70, 0
2, 413760, Note_on_c, 0, 54, 0
2, 413768, Note_on_c, 0, 66, 0
2, 413868, Note_on_c, 0, 74, 86
2, 413872, Note_on_c, 0, 71, 82
2, 413872, Note_on_c, 0, 66, 67
2, 413872, Control_c, 0, 64, 24
2, 413884, Note_on_c, 0, 59, 64
2, 413884, Control_c, 0, 64, 88
2, 413900, Control_c, 0, 64, 127
2, 413944, Note_on_c, 0, 59, 0
2, 413944, Note_on_c, 0, 66, 0
2, 413952, Note_on_c, 0, 74, 0
2, 414004, Note_on_c, 0, 71, 0
2, 414056, Note_on_c, 0, 73, 86
2, 414060, Note_on_c, 0, 66, 69
2, 414112, Note_on_c, 0, 66, 0
2, 414156, Note_on_c, 0, 73, 0
2, 414188, Control_c, 0, 64, 104
2, 414200, Control_c, 0, 64, 88
2, 414212, Control_c, 0, 64, 56
2, 414228, Control_c, 0, 64, 24
2, 414232, Note_on_c, 0, 71, 86
2, 414240, Note_on_c, 0, 70, 49
2, 414240, Control_c, 0, 64, 0
2, 414248, Note_on_c, 0, 62, 60
2, 414248, Note_on_c, 0, 60, 44
2, 414256, Note_on_c, 0, 66, 70
2, 414260, Note_on_c, 0, 54, 71
2, 414272, Note_on_c, 0, 60, 0
2, 414272, Note_on_c, 0, 62, 0
2, 414292, Note_on_c, 0, 70, 0
2, 414304, Note_on_c, 0, 54, 0
2, 414304, Note_on_c, 0, 66, 0
2, 414340, Note_on_c, 0, 71, 0
2, 414424, Note_on_c, 0, 66, 82
2, 414424, Note_on_c, 0, 73, 93
2, 414440, Note_on_c, 0, 54, 63
2, 414488, Note_on_c, 0, 54, 0
2, 414488, Note_on_c, 0, 66, 0
2, 414520, Note_on_c, 0, 73, 0
2, 414612, Note_on_c, 0, 74, 88
2, 414620, Note_on_c, 0, 71, 85
2, 414624, Control_c, 0, 64, 24
2, 414628, Note_on_c, 0, 66, 71
2, 414632, Note_on_c, 0, 54, 68
2, 414640, Control_c, 0, 64, 88
2, 414652, Control_c, 0, 64, 127
2, 414724, Note_on_c, 0, 71, 0
2, 414744, Note_on_c, 0, 74, 0
2, 414788, Note_on_c, 0, 73, 77
2, 414796, Note_on_c, 0, 70, 68
2, 414840, Note_on_c, 0, 54, 0
2, 414848, Note_on_c, 0, 66, 0
2, 414848, Note_on_c, 0, 70, 0
2, 414888, Control_c, 0, 64, 88
2, 414896, Note_on_c, 0, 73, 0
2, 414900, Control_c, 0, 64, 72
2, 414916, Control_c, 0, 64, 56
2, 414928, Control_c, 0, 64, 40
2, 414940, Control_c, 0, 64, 24
2, 414952, Control_c, 0, 64, 0
2, 414972, Note_on_c, 0, 71, 80
2, 414972, Note_on_c, 0, 74, 82
2, 414976, Note_on_c, 0, 66, 71
2, 414984, Note_on_c, 0, 54, 68
2, 415020, Note_on_c, 0, 71, 0
2, 415032, Note_on_c, 0, 54, 0
2, 415032, Note_on_c, 0, 66, 0
2, 415036, Note_on_c, 0, 74, 0
2, 415152, Note_on_c, 0, 74, 88
2, 415152, Note_on_c, 0, 78, 83
2, 415156, Note_on_c, 0, 66, 71
2, 415164, Note_on_c, 0, 54, 69
2, 415212, Note_on_c, 0, 54, 0
2, 415212, Note_on_c, 0, 66, 0
2, 415220, Note_on_c, 0, 74, 0
2, 415244, Note_on_c, 0, 78, 0
2, 415348, Note_on_c, 0, 73, 84
2, 415348, Note_on_c, 0, 70, 71
2, 415352, Control_c, 0, 64, 40
2, 415360, Note_on_c, 0, 66, 69
2, 415364, Control_c, 0, 64, 127
2, 415372, Note_on_c, 0, 54, 67
2, 415424, Note_on_c, 0, 70, 0
2, 415488, Note_on_c, 0, 73, 0
2, 415524, Note_on_c, 0, 68, 52
2, 415524, Note_on_c, 0, 71, 81
2, 415568, Note_on_c, 0, 54, 0
2, 415576, Note_on_c, 0, 66, 0
2, 415576, Note_on_c, 0, 68, 0
2, 415604, Control_c, 0, 64, 88
2, 415616, Control_c, 0, 64, 72
2, 415628, Note_on_c, 0, 71, 0
2, 415628, Control_c, 0, 64, 56
2, 415640, Control_c, 0, 64, 40
2, 415652, Control_c, 0, 64, 24
2, 415668, Control_c, 0, 64, 0
2, 415696, Note_on_c, 0, 73, 76
2, 415704, Note_on_c, 0, 70, 58
2, 415708, Note_on_c, 0, 66, 69
2, 415716, Note_on_c, 0, 54, 67
2, 415760, Note_on_c, 0, 70, 0
2, 415764, Note_on_c, 0, 54, 0
2, 415764, Note_on_c, 0, 66, 0
2, 415796, Note_on_c, 0, 73, 0
2, 415884, Note_on_c, 0, 74, 83
2, 415892, Note_on_c, 0, 71, 80
2, 415896, Note_on_c, 0, 66, 67
2, 415904, Note_on_c, 0, 54, 65
2, 415952, Note_on_c, 0, 66, 0
2, 415952, Note_on_c, 0, 71, 0
2, 415956, Note_on_c, 0, 54, 0
2, 415984, Note_on_c, 0, 74, 0
2, 416064, Note_on_c, 0, 73, 84
2, 416068, Note_on_c, 0, 76, 86
2, 416080, Note_on_c, 0, 66, 71
2, 416080, Control_c, 0, 64, 56
2, 416088, Note_on_c, 0, 54, 65
2, 416092, Control_c, 0, 64, 127
2, 416152, Note_on_c, 0, 76, 0
2, 416192, Note_on_c, 0, 73, 0
2, 416244, Note_on_c, 0, 74, 83
2, 416256, Note_on_c, 0, 71, 72
2, 416304, Note_on_c, 0, 54, 0
2, 416304, Control_c, 0, 64, 104
2, 416308, Note_on_c, 0, 66, 0
2, 416316, Control_c, 0, 64, 88
2, 416332, Control_c, 0, 64, 56
2, 416340, Control_c, 0, 64, 40
2, 416344, Note_on_c, 0, 71, 0
2, 416352, Control_c, 0, 64, 24
2, 416360, Note_on_c, 0, 74, 0
2, 416380, Control_c, 0, 64, 0
2, 416424, Note_on_c, 0, 73, 71
2, 416428, Note_on_c, 0, 76, 81
2, 416440, Note_on_c, 0, 66, 73
2, 416444, Note_on_c, 0, 54, 74
2, 416484, Note_on_c, 0, 76, 0
2, 416500, Note_on_c, 0, 54, 0
2, 416500, Note_on_c, 0, 66, 0
2, 416544, Note_on_c, 0, 73, 0
2, 416608, Note_on_c, 0, 78, 84
2, 416616, Note_on_c, 0, 70, 77
2, 416620, Note_on_c, 0, 66, 67
2, 416624, Note_on_c, 0, 54, 64
2, 416688, Note_on_c, 0, 70, 0
2, 416692, Note_on_c, 0, 78, 0
2, 416704, Note_on_c, 0, 66, 0
2, 416704, Note_on_c, 0, 54, 0
2, 416812, Note_on_c, 0, 74, 94
2, 416820, Note_on_c, 0, 71, 85
2, 416820, Note_on_c, 0, 66, 71
2, 416832, Note_on_c, 0, 59, 69
2, 416832, Control_c, 0, 64, 40
2, 416844, Control_c, 0, 64, 127
2, 416880, Note_on_c, 0, 66, 0
2, 416880, Note_on_c, 0, 71, 0
2, 416896, Note_on_c, 0, 59, 0
2, 416904, Note_on_c, 0, 74, 0
2, 417056, Control_c, 0, 64, 88
2, 417068, Control_c, 0, 64, 56
2, 417080, Control_c, 0, 64, 24
2, 417092, Control_c, 0, 64, 0
2, 417204, Note_on_c, 0, 64, 97
2, 417204, Note_on_c, 0, 80, 70
2, 417204, Note_on_c, 0, 92, 80
2, 417204, Note_on_c, 0, 88, 72
2, 417204, Note_on_c, 0, 86, 72
2, 417204, Note_on_c, 0, 83, 72
2, 417208, Note_on_c, 0, 52, 84
2, 417208, Note_on_c, 0, 40, 75
2, 417248, Note_on_c, 0, 52, 0
2, 417252, Note_on_c, 0, 40, 0
2, 417284, Note_on_c, 0, 64, 0
2, 417392, Note_on_c, 0, 42, 80
2, 417392, Note_on_c, 0, 54, 84
2, 417392, Note_on_c, 0, 66, 88
2, 417432, Note_on_c, 0, 54, 0
2, 417436, Note_on_c, 0, 42, 0
2, 417512, Note_on_c, 0, 66, 0
2, 417572, Note_on_c, 0, 68, 85
2, 417576, Note_on_c, 0, 56, 79
2, 417580, Note_on_c, 0, 44, 76
2, 417628, Note_on_c, 0, 44, 0
2, 417648, Note_on_c, 0, 68, 0
2, 417660, Note_on_c, 0, 56, 0
2, 417752, Note_on_c, 0, 69, 88
2, 417760, Note_on_c, 0, 57, 73
2, 417764, Note_on_c, 0, 45, 80
2, 417808, Note_on_c, 0, 45, 0
2, 417808, Note_on_c, 0, 57, 0
2, 417856, Note_on_c, 0, 69, 0
2, 417932, Note_on_c, 0, 71, 89
2, 417932, Note_on_c, 0, 59, 73
2, 417940, Note_on_c, 0, 47, 73
2, 417984, Note_on_c, 0, 47, 0
2, 417984, Note_on_c, 0, 59, 0
2, 418060, Note_on_c, 0, 71, 0
2, 418092, Note_on_c, 0, 61, 75
2, 418096, Note_on_c, 0, 73, 83
2, 418100, Note_on_c, 0, 49, 75
2, 418132, Note_on_c, 0, 49, 0
2, 418152, Note_on_c, 0, 61, 0
2, 418168, Note_on_c, 0, 73, 0
2, 418216, Note_on_c, 0, 74, 88
2, 418228, Note_on_c, 0, 83, 0
2, 418228, Note_on_c, 0, 92, 0
2, 418228, Note_on_c, 0, 88, 0
2, 418228, Note_on_c, 0, 80, 0
2, 418228, Note_on_c, 0, 86, 0
2, 418264, Note_on_c, 0, 74, 0
2, 418276, Note_on_c, 0, 76, 78
2, 418280, Note_on_c, 0, 62, 77
2, 418284, Note_on_c, 0, 50, 76
2, 418300, Note_on_c, 0, 74, 87
2, 418328, Note_on_c, 0, 62, 0
2, 418336, Note_on_c, 0, 50, 0
2, 418344, Note_on_c, 0, 76, 0
2, 418480, Note_on_c, 0, 74, 0
2, 418484, Note_on_c, 0, 71, 87
2, 418488, Note_on_c, 0, 47, 66
2, 418488, Note_on_c, 0, 59, 61
2, 418536, Note_on_c, 0, 47, 0
2, 418540, Note_on_c, 0, 59, 0
2, 418564, Note_on_c, 0, 71, 0
2, 418656, Note_on_c, 0, 68, 85
2, 418660, Note_on_c, 0, 56, 73
2, 418664, Note_on_c, 0, 44, 62
2, 418712, Note_on_c, 0, 56, 0
2, 418728, Note_on_c, 0, 44, 0
2, 418740, Note_on_c, 0, 68, 0
2, 418832, Note_on_c, 0, 65, 94
2, 418836, Note_on_c, 0, 53, 77
2, 418840, Note_on_c, 0, 41, 70
2, 418888, Note_on_c, 0, 53, 0
2, 418896, Note_on_c, 0, 41, 0
2, 418940, Note_on_c, 0, 65, 0
2, 419020, Note_on_c, 0, 64, 87
2, 419024, Note_on_c, 0, 52, 81
2, 419028, Note_on_c, 0, 40, 76
2, 419068, Note_on_c, 0, 52, 0
2, 419076, Note_on_c, 0, 40, 0
2, 419168, Note_on_c, 0, 64, 0
2, 419208, Note_on_c, 0, 62, 90
2, 419212, Note_on_c, 0, 50, 88
2, 419220, Note_on_c, 0, 38, 83
2, 419264, Note_on_c, 0, 50, 0
2, 419268, Note_on_c, 0, 38, 0
2, 419320, Note_on_c, 0, 62, 0
2, 419400, Note_on_c, 0, 60, 103
2, 419412, Note_on_c, 0, 48, 89
2, 419416, Note_on_c, 0, 36, 82
2, 419456, Note_on_c, 0, 48, 0
2, 419460, Note_on_c, 0, 36, 0
2, 419512, Note_on_c, 0, 60, 0
2, 419596, Note_on_c, 0, 59, 94
2, 419596, Note_on_c, 0, 47, 89
2, 419600, Note_on_c, 0, 35, 81
2, 419652, Note_on_c, 0, 47, 0
2, 419668, Note_on_c, 0, 35, 0
2, 419748, Note_on_c, 0, 59, 0
2, 419820, Note_on_c, 0, 57, 90
2, 419836, Note_on_c, 0, 45, 73
2, 419844, Note_on_c, 0, 33, 51
2, 419876, Control_c, 0, 64, 72
2, 419884, Note_on_c, 0, 33, 0
2, 419884, Control_c, 0, 64, 127
2, 419908, Note_on_c, 0, 57, 0
2, 419912, Note_on_c, 0, 45, 0
2, 420200, Note_on_c, 0, 76, 84
2, 420212, Note_on_c, 0, 64, 47
2, 420212, Control_c, 0, 64, 72
2, 420216, Note_on_c, 0, 72, 61
2, 420220, Note_on_c, 0, 57, 37
2, 420224, Control_c, 0, 64, 0
2, 420228, Note_on_c, 0, 60, 44
2, 420248, Control_c, 0, 64, 24
2, 420264, Control_c, 0, 64, 72
2, 420276, Control_c, 0, 64, 127
2, 420284, Note_on_c, 0, 60, 0
2, 420292, Note_on_c, 0, 64, 0
2, 420292, Note_on_c, 0, 57, 0
2, 420304, Note_on_c, 0, 72, 0
2, 420380, Note_on_c, 0, 76, 0
2, 420420, Note_on_c, 0, 77, 99
2, 420440, Note_on_c, 0, 64, 47
2, 420440, Control_c, 0, 64, 40
2, 420444, Note_on_c, 0, 72, 63
2, 420452, Note_on_c, 0, 57, 36
2, 420452, Control_c, 0, 64, 0
2, 420456, Note_on_c, 0, 60, 29
2, 420464, Control_c, 0, 64, 40
2, 420468, Note_on_c, 0, 72, 0
2, 420476, Control_c, 0, 64, 88
2, 420484, Control_c, 0, 64, 127
2, 420504, Note_on_c, 0, 64, 0
2, 420524, Note_on_c, 0, 77, 0
2, 420528, Note_on_c, 0, 60, 0
2, 420532, Note_on_c, 0, 57, 0
2, 420652, Note_on_c, 0, 77, 93
2, 420676, Note_on_c, 0, 65, 51
2, 420676, Note_on_c, 0, 72, 44
2, 420680, Note_on_c, 0, 57, 46
2, 420680, Note_on_c, 0, 45, 60
2, 420684, Note_on_c, 0, 60, 45
2, 420700, Control_c, 0, 64, 88
2, 420716, Control_c, 0, 64, 0
2, 420764, Control_c, 0, 64, 24
2, 420772, Control_c, 0, 64, 127
2, 420792, Note_on_c, 0, 57, 0
2, 420824, Note_on_c, 0, 60, 0
2, 420828, Note_on_c, 0, 65, 0
2, 420832, Note_on_c, 0, 72, 0
2, 420840, Note_on_c, 0, 77, 0
2, 420864, Note_on_c, 0, 84, 97
2, 420936, Note_on_c, 0, 45, 0
2, 420960, Note_on_c, 0, 84, 0
2, 421064, Note_on_c, 0, 84, 96
2, 421064, Note_on_c, 0, 65, 54
2, 421072, Note_on_c, 0, 72, 74
2, 421076, Note_on_c, 0, 60, 46
2, 421080, Note_on_c, 0, 57, 44
2, 421112, Note_on_c, 0, 60, 0
2, 421120, Note_on_c, 0, 72, 0
2, 421124, Note_on_c, 0, 57, 0
2, 421124, Note_on_c, 0, 65, 0
2, 421160, Note_on_c, 0, 84, 0
2, 421244, Note_on_c, 0, 82, 88
2, 421252, Note_on_c, 0, 65, 52
2, 421260, Note_on_c, 0, 72, 75
2, 421264, Note_on_c, 0, 57, 47
2, 421272, Note_on_c, 0, 60, 43
2, 421284, Note_on_c, 0, 72, 0
2, 421308, Note_on_c, 0, 60, 0
2, 421312, Note_on_c, 0, 57, 0
2, 421320, Note_on_c, 0, 65, 0
2, 421336, Note_on_c, 0, 82, 0
2, 421436, Note_on_c, 0, 82, 88
2, 421444, Note_on_c, 0, 65, 54
2, 421452, Note_on_c, 0, 60, 46
2, 421452, Note_on_c, 0, 72, 75
2, 421468, Note_on_c, 0, 57, 44
2, 421556, Note_on_c, 0, 82, 0
2, 421560, Note_on_c, 0, 72, 0
2, 421576, Note_on_c, 0, 57, 0
2, 421592, Note_on_c, 0, 60, 0
2, 421596, Note_on_c, 0, 65, 0
2, 421608, Note_on_c, 0, 81, 89
2, 421688, Note_on_c, 0, 81, 0
2, 421796, Note_on_c, 0, 81, 87
2, 421804, Note_on_c, 0, 69, 66
2, 421804, Control_c, 0, 64, 56
2, 421808, Note_on_c, 0, 72, 55
2, 421816, Control_c, 0, 64, 0
2, 421820, Note_on_c, 0, 57, 46
2, 421828, Note_on_c, 0, 60, 48
2, 421868, Control_c, 0, 64, 56
2, 421876, Note_on_c, 0, 60, 0
2, 421880, Note_on_c, 0, 69, 0
2, 421880, Note_on_c, 0, 57, 0
2, 421880, Control_c, 0, 64, 127
2, 421904, Note_on_c, 0, 72, 0
2, 421908, Note_on_c, 0, 81, 0
2, 421980, Note_on_c, 0, 79, 89
2, 422000, Note_on_c, 0, 67, 63
2, 422000, Note_on_c, 0, 72, 58
2, 422012, Note_on_c, 0, 60, 50
2, 422020, Note_on_c, 0, 57, 48
2, 422028, Note_on_c, 0, 72, 0
2, 422060, Note_on_c, 0, 60, 0
2, 422064, Note_on_c, 0, 67, 0
2, 422068, Note_on_c, 0, 57, 0
2, 422076, Note_on_c, 0, 79, 0
2, 422168, Note_on_c, 0, 79, 84
2, 422180, Note_on_c, 0, 72, 70
2, 422188, Note_on_c, 0, 67, 64
2, 422196, Note_on_c, 0, 57, 41
2, 422196, Note_on_c, 0, 60, 47
2, 422204, Control_c, 0, 64, 72
2, 422216, Control_c, 0, 64, 24
2, 422228, Control_c, 0, 64, 0
2, 422240, Control_c, 0, 64, 40
2, 422256, Control_c, 0, 64, 88
2, 422268, Control_c, 0, 64, 127
2, 422284, Note_on_c, 0, 67, 0
2, 422312, Note_on_c, 0, 57, 0
2, 422316, Note_on_c, 0, 79, 0
2, 422348, Note_on_c, 0, 72, 0
2, 422348, Note_on_c, 0, 60, 0
2, 422352, Note_on_c, 0, 77, 82
2, 422372, Note_on_c, 0, 65, 59
2, 422424, Note_on_c, 0, 65, 0
2, 422432, Note_on_c, 0, 77, 0
2, 422544, Note_on_c, 0, 77, 86
2, 422544, Control_c, 0, 64, 72
2, 422552, Note_on_c, 0, 72, 71
2, 422556, Note_on_c, 0, 65, 66
2, 422568, Note_on_c, 0, 60, 49
2, 422568, Note_on_c, 0, 57, 48
2, 422568, Control_c, 0, 64, 88
2, 422580, Control_c, 0, 64, 104
2, 422592, Control_c, 0, 64, 127
2, 422624, Note_on_c, 0, 65, 0
2, 422636, Note_on_c, 0, 72, 0
2, 422640, Note_on_c, 0, 57, 0
2, 422656, Note_on_c, 0, 60, 0
2, 422680, Note_on_c, 0, 77, 0
2, 422728, Note_on_c, 0, 76, 85
2, 422728, Note_on_c, 0, 64, 64
2, 422732, Note_on_c, 0, 72, 67
2, 422740, Note_on_c, 0, 57, 46
2, 422740, Note_on_c, 0, 60, 42
2, 422780, Note_on_c, 0, 57, 0
2, 422784, Note_on_c, 0, 72, 0
2, 422784, Note_on_c, 0, 60, 0
2, 422788, Note_on_c, 0, 64, 0
2, 422812, Note_on_c, 0, 76, 0
2, 422892, Control_c, 0, 64, 72
2, 422904, Note_on_c, 0, 76, 84
2, 422904, Control_c, 0, 64, 24
2, 422908, Note_on_c, 0, 64, 67
2, 422912, Note_on_c, 0, 57, 58
2, 422916, Note_on_c, 0, 72, 64
2, 422916, Control_c, 0, 64, 0
2, 422928, Note_on_c, 0, 60, 51
2, 422944, Control_c, 0, 64, 40
2, 422956, Control_c, 0, 64, 72
2, 422968, Control_c, 0, 64, 127
2, 423060, Note_on_c, 0, 72, 0
2, 423060, Note_on_c, 0, 64, 0
2, 423080, Note_on_c, 0, 76, 0
2, 423092, Note_on_c, 0, 75, 81
2, 423100, Note_on_c, 0, 60, 0
2, 423108, Note_on_c, 0, 63, 50
2, 423128, Note_on_c, 0, 57, 0
2, 423172, Note_on_c, 0, 63, 0
2, 423180, Note_on_c, 0, 75, 0
2, 423256, Control_c, 0, 64, 88
2, 423272, Control_c, 0, 64, 24
2, 423280, Note_on_c, 0, 75, 84
2, 423284, Control_c, 0, 64, 0
2, 423288, Note_on_c, 0, 63, 47
2, 423292, Note_on_c, 0, 71, 57
2, 423300, Note_on_c, 0, 55, 54
2, 423308, Control_c, 0, 64, 40
2, 423312, Note_on_c, 0, 59, 42
2, 423320, Control_c, 0, 64, 88
2, 423332, Control_c, 0, 64, 127
2, 423364, Note_on_c, 0, 59, 0
2, 423364, Note_on_c, 0, 63, 0
2, 423380, Note_on_c, 0, 75, 0
2, 423380, Note_on_c, 0, 71, 0
2, 423380, Note_on_c, 0, 55, 0
2, 423472, Note_on_c, 0, 76, 84
2, 423472, Note_on_c, 0, 55, 48
2, 423472, Note_on_c, 0, 59, 44
2, 423472, Note_on_c, 0, 64, 62
2, 423472, Note_on_c, 0, 71, 68
2, 423508, Note_on_c, 0, 55, 0
2, 423524, Note_on_c, 0, 59, 0
2, 423540, Note_on_c, 0, 64, 0
2, 423548, Note_on_c, 0, 71, 0
2, 423564, Note_on_c, 0, 76, 0
2, 423696, Note_on_c, 0, 64, 54
2, 423696, Note_on_c, 0, 43, 63
2, 423696, Note_on_c, 0, 55, 60
2, 423700, Note_on_c, 0, 59, 49
2, 423736, Note_on_c, 0, 76, 85
2, 423740, Note_on_c, 0, 71, 67
2, 423756, Control_c, 0, 64, 56
2, 423768, Control_c, 0, 64, 24
2, 423780, Control_c, 0, 64, 56
2, 423788, Note_on_c, 0, 59, 0
2, 423796, Note_on_c, 0, 71, 0
2, 423796, Control_c, 0, 64, 88
2, 423808, Control_c, 0, 64, 127
2, 423812, Note_on_c, 0, 64, 0
2, 423836, Note_on_c, 0, 76, 0
2, 423920, Note_on_c, 0, 55, 0
2, 423928, Note_on_c, 0, 71, 81
2, 423984, Note_on_c, 0, 71, 0
2, 424056, Note_on_c, 0, 43, 0
2, 424112, Note_on_c, 0, 71, 81
2, 424192, Note_on_c, 0, 71, 0
2, 424288, Note_on_c, 0, 71, 61
2, 424296, Note_on_c, 0, 69, 82
2, 424360, Note_on_c, 0, 69, 0
2, 424372, Note_on_c, 0, 71, 0
2, 424476, Note_on_c, 0, 71, 67
2, 424476, Note_on_c, 0, 69, 83
2, 424580, Note_on_c, 0, 71, 0
2, 424596, Note_on_c, 0, 69, 0
2, 424660, Note_on_c, 0, 83, 82
2, 424664, Note_on_c, 0, 67, 69
2, 424668, Note_on_c, 0, 71, 64
2, 424724, Note_on_c, 0, 71, 0
2, 424724, Note_on_c, 0, 67, 0
2, 424744, Note_on_c, 0, 83, 0
2, 424824, Control_c, 0, 64, 88
2, 424836, Note_on_c, 0, 83, 82
2, 424836, Control_c, 0, 64, 40
2, 424844, Note_on_c, 0, 71, 66
2, 424844, Note_on_c, 0, 67, 78
2, 424868, Control_c, 0, 64, 127
2, 424928, Note_on_c, 0, 83, 0
2, 424960, Note_on_c, 0, 71, 0
2, 424980, Note_on_c, 0, 67, 0
2, 425020, Note_on_c, 0, 66, 59
2, 425020, Note_on_c, 0, 81, 86
2, 425028, Note_on_c, 0, 71, 65
2, 425080, Note_on_c, 0, 71, 0
2, 425088, Note_on_c, 0, 66, 0
2, 425104, Note_on_c, 0, 81, 0
2, 425184, Control_c, 0, 64, 88
2, 425192, Note_on_c, 0, 81, 85
2, 425196, Control_c, 0, 64, 72
2, 425200, Note_on_c, 0, 71, 76
2, 425204, Note_on_c, 0, 66, 71
2, 425212, Control_c, 0, 64, 104
2, 425224, Control_c, 0, 64, 127
2, 425320, Note_on_c, 0, 81, 0
2, 425340, Note_on_c, 0, 66, 0
2, 425368, Note_on_c, 0, 64, 66
2, 425368, Note_on_c, 0, 79, 86
2, 425420, Note_on_c, 0, 71, 0
2, 425428, Note_on_c, 0, 64, 0
2, 425472, Note_on_c, 0, 79, 0
2, 425536, Control_c, 0, 64, 72
2, 425544, Note_on_c, 0, 79, 80
2, 425548, Note_on_c, 0, 71, 73
2, 425548, Control_c, 0, 64, 56
2, 425552, Note_on_c, 0, 64, 73
2, 425560, Control_c, 0, 64, 72
2, 425572, Control_c, 0, 64, 104
2, 425584, Control_c, 0, 64, 127
2, 425644, Note_on_c, 0, 79, 0
2, 425648, Note_on_c, 0, 71, 0
2, 425688, Note_on_c, 0, 64, 0
2, 425728, Note_on_c, 0, 78, 88
2, 425736, Note_on_c, 0, 62, 74
2, 425740, Note_on_c, 0, 71, 67
2, 425788, Note_on_c, 0, 62, 0
2, 425796, Note_on_c, 0, 71, 0
2, 425820, Note_on_c, 0, 78, 0
2, 425884, Control_c, 0, 64, 104
2, 425900, Note_on_c, 0, 78, 82
2, 425900, Control_c, 0, 64, 56
2, 425912, Control_c, 0, 64, 40
2, 425916, Note_on_c, 0, 71, 75
2, 425916, Note_on_c, 0, 62, 77
2, 425924, Control_c, 0, 64, 56
2, 425936, Control_c, 0, 64, 104
2, 425952, Control_c, 0, 64, 127
2, 426028, Note_on_c, 0, 71, 0
2, 426036, Note_on_c, 0, 78, 0
2, 426040, Note_on_c, 0, 62, 0
2, 426084, Note_on_c, 0, 76, 90
2, 426084, Note_on_c, 0, 61, 50
2, 426108, Note_on_c, 0, 61, 0
2, 426140, Note_on_c, 0, 76, 0
2, 426264, Note_on_c, 0, 76, 93
2, 426264, Control_c, 0, 64, 104
2, 426268, Note_on_c, 0, 64, 76
2, 426276, Control_c, 0, 64, 40
2, 426288, Control_c, 0, 64, 0
2, 426292, Note_on_c, 0, 55, 80
2, 426300, Note_on_c, 0, 43, 75
2, 426300, Control_c, 0, 64, 40
2, 426312, Control_c, 0, 64, 88
2, 426324, Control_c, 0, 64, 127
2, 426332, Note_on_c, 0, 64, 0
2, 426348, Note_on_c, 0, 55, 0
2, 426352, Note_on_c, 0, 76, 0
2, 426352, Note_on_c, 0, 43, 0
2, 426468, Note_on_c, 0, 76, 100
2, 426468, Note_on_c, 0, 64, 82
2, 426468, Note_on_c, 0, 55, 75
2, 426472, Note_on_c, 0, 43, 71
2, 426528, Note_on_c, 0, 55, 0
2, 426532, Note_on_c, 0, 64, 0
2, 426540, Note_on_c, 0, 43, 0
2, 426548, Note_on_c, 0, 76, 0
2, 426660, Note_on_c, 0, 64, 87
2, 426660, Note_on_c, 0, 76, 105
2, 426660, Note_on_c, 0, 43, 66
2, 426660, Note_on_c, 0, 55, 73
2, 426684, Note_on_c, 0, 43, 0
2, 426712, Note_on_c, 0, 55, 0
2, 426712, Note_on_c, 0, 64, 0
2, 426724, Note_on_c, 0, 76, 0
2, 426848, Note_on_c, 0, 64, 82
2, 426848, Note_on_c, 0, 52, 81
2, 426896, Note_on_c, 0, 52, 0
2, 426896, Note_on_c, 0, 64, 0
2, 427032, Note_on_c, 0, 76, 100
2, 427036, Note_on_c, 0, 64, 94
2, 427044, Note_on_c, 0, 52, 78
2, 427092, Note_on_c, 0, 52, 0
2, 427104, Note_on_c, 0, 64, 0
2, 427128, Note_on_c, 0, 76, 0
2, 427228, Note_on_c, 0, 76, 103
2, 427228, Note_on_c, 0, 62, 76
2, 427228, Note_on_c, 0, 64, 89
2, 427232, Note_on_c, 0, 50, 82
2, 427276, Note_on_c, 0, 62, 0
2, 427284, Note_on_c, 0, 50, 0
2, 427304, Note_on_c, 0, 64, 0
2, 427320, Note_on_c, 0, 76, 0
2, 427392, Control_c, 0, 64, 104
2, 427404, Control_c, 0, 64, 56
2, 427412, Note_on_c, 0, 64, 85
2, 427416, Note_on_c, 0, 76, 105
2, 427416, Note_on_c, 0, 62, 74
2, 427416, Control_c, 0, 64, 72
2, 427424, Note_on_c, 0, 50, 78
2, 427428, Control_c, 0, 64, 104
2, 427440, Control_c, 0, 64, 127
2, 427456, Note_on_c, 0, 64, 0
2, 427464, Note_on_c, 0, 50, 0
2, 427464, Note_on_c, 0, 62, 0
2, 427480, Note_on_c, 0, 76, 0
2, 427600, Note_on_c, 0, 88, 102
2, 427604, Note_on_c, 0, 76, 94
2, 427612, Note_on_c, 0, 61, 73
2, 427616, Note_on_c, 0, 49, 73
2, 427648, Note_on_c, 0, 76, 0
2, 427660, Note_on_c, 0, 49, 0
2, 427668, Note_on_c, 0, 61, 0
2, 427688, Note_on_c, 0, 88, 0
2, 427792, Note_on_c, 0, 88, 105
2, 427800, Note_on_c, 0, 76, 94
2, 427804, Note_on_c, 0, 61, 71
2, 427804, Note_on_c, 0, 49, 74
2, 427804, Control_c, 0, 64, 56
2, 427816, Control_c, 0, 64, 0
2, 427828, Control_c, 0, 64, 24
2, 427840, Control_c, 0, 64, 72
2, 427852, Control_c, 0, 64, 127
2, 427892, Note_on_c, 0, 61, 0
2, 427896, Note_on_c, 0, 88, 0
2, 427896, Note_on_c, 0, 76, 0
2, 427916, Note_on_c, 0, 49, 0
2, 427996, Note_on_c, 0, 86, 103
2, 428000, Note_on_c, 0, 74, 97
2, 428004, Note_on_c, 0, 59, 58
2, 428008, Note_on_c, 0, 47, 63
2, 428056, Note_on_c, 0, 47, 0
2, 428056, Note_on_c, 0, 74, 0
2, 428060, Note_on_c, 0, 59, 0
2, 428084, Note_on_c, 0, 86, 0
2, 428168, Control_c, 0, 64, 104
2, 428172, Note_on_c, 0, 86, 103
2, 428176, Note_on_c, 0, 74, 90
2, 428180, Note_on_c, 0, 59, 70
2, 428184, Note_on_c, 0, 47, 78
2, 428204, Control_c, 0, 64, 127
2, 428240, Note_on_c, 0, 59, 0
2, 428240, Note_on_c, 0, 74, 0
2, 428248, Note_on_c, 0, 47, 0
2, 428252, Note_on_c, 0, 86, 0
2, 428344, Control_c, 0, 64, 88
2, 428352, Note_on_c, 0, 85, 93
2, 428356, Note_on_c, 0, 73, 92
2, 428356, Control_c, 0, 64, 72
2, 428364, Note_on_c, 0, 57, 68
2, 428368, Note_on_c, 0, 45, 74
2, 428368, Control_c, 0, 64, 88
2, 428380, Control_c, 0, 64, 127
2, 428420, Note_on_c, 0, 73, 0
2, 428432, Note_on_c, 0, 57, 0
2, 428436, Note_on_c, 0, 45, 0
2, 428444, Note_on_c, 0, 85, 0
2, 428528, Note_on_c, 0, 85, 89
2, 428532, Note_on_c, 0, 73, 90
2, 428544, Note_on_c, 0, 57, 70
2, 428548, Note_on_c, 0, 45, 80
2, 428600, Note_on_c, 0, 45, 0
2, 428600, Note_on_c, 0, 85, 0
2, 428604, Note_on_c, 0, 73, 0
2, 428628, Note_on_c, 0, 57, 0
2, 428704, Control_c, 0, 64, 56
2, 428708, Note_on_c, 0, 83, 99
2, 428708, Note_on_c, 0, 71, 82
2, 428724, Note_on_c, 0, 55, 74
2, 428724, Note_on_c, 0, 43, 72
2, 428728, Control_c, 0, 64, 72
2, 428744, Control_c, 0, 64, 127
2, 428772, Note_on_c, 0, 71, 0
2, 428784, Note_on_c, 0, 55, 0
2, 428788, Note_on_c, 0, 43, 0
2, 428804, Note_on_c, 0, 83, 0
2, 428892, Note_on_c, 0, 83, 96
2, 428892, Note_on_c, 0, 71, 87
2, 428900, Note_on_c, 0, 55, 80
2, 428900, Note_on_c, 0, 43, 70
2, 428952, Note_on_c, 0, 43, 0
2, 428952, Note_on_c, 0, 55, 0
2, 428956, Note_on_c, 0, 71, 0
2, 428968, Note_on_c, 0, 83, 0
2, 429056, Control_c, 0, 64, 104
2, 429068, Control_c, 0, 64, 56
2, 429072, Note_on_c, 0, 54, 77
2, 429072, Note_on_c, 0, 81, 96
2, 429076, Note_on_c, 0, 42, 75
2, 429076, Note_on_c, 0, 69, 88
2, 429084, Control_c, 0, 64, 40
2, 429092, Control_c, 0, 64, 72
2, 429104, Control_c, 0, 64, 104
2, 429120, Control_c, 0, 64, 127
2, 429136, Note_on_c, 0, 54, 0
2, 429140, Note_on_c, 0, 69, 0
2, 429140, Note_on_c, 0, 42, 0
2, 429164, Note_on_c, 0, 81, 0
2, 429260, Note_on_c, 0, 81, 99
2, 429260, Note_on_c, 0, 42, 72
2, 429260, Note_on_c, 0, 69, 92
2, 429264, Note_on_c, 0, 54, 77
2, 429268, Control_c, 0, 64, 72
2, 429280, Note_on_c, 0, 45, 66
2, 429308, Note_on_c, 0, 45, 0
2, 429308, Control_c, 0, 64, 127
2, 429332, Note_on_c, 0, 69, 0
2, 429352, Note_on_c, 0, 54, 0
2, 429352, Note_on_c, 0, 81, 0
2, 429360, Note_on_c, 0, 42, 0
2, 429452, Note_on_c, 0, 79, 97
2, 429456, Note_on_c, 0, 52, 76
2, 429456, Note_on_c, 0, 45, 54
2, 429456, Note_on_c, 0, 69, 82
2, 429456, Control_c, 0, 64, 104
2, 429464, Note_on_c, 0, 73, 70
2, 429464, Note_on_c, 0, 40, 59
2, 429472, Control_c, 0, 64, 56
2, 429484, Control_c, 0, 64, 40
2, 429496, Control_c, 0, 64, 72
2, 429504, Control_c, 0, 64, 104
2, 429520, Control_c, 0, 64, 127
2, 429532, Note_on_c, 0, 40, 0
2, 429536, Note_on_c, 0, 73, 0
2, 429540, Note_on_c, 0, 52, 0
2, 429540, Note_on_c, 0, 69, 0
2, 429560, Note_on_c, 0, 79, 0
2, 429576, Note_on_c, 0, 45, 0
2, 429644, Control_c, 0, 64, 104
2, 429648, Note_on_c, 0, 79, 94
2, 429656, Note_on_c, 0, 69, 78
2, 429656, Note_on_c, 0, 73, 73
2, 429656, Note_on_c, 0, 57, 68
2, 429656, Control_c, 0, 64, 40
2, 429660, Note_on_c, 0, 52, 77
2, 429668, Note_on_c, 0, 40, 51
2, 429668, Note_on_c, 0, 45, 72
2, 429672, Control_c, 0, 64, 24
2, 429684, Control_c, 0, 64, 56
2, 429696, Control_c, 0, 64, 88
2, 429708, Control_c, 0, 64, 127
2, 429724, Note_on_c, 0, 40, 0
2, 429728, Note_on_c, 0, 52, 0
2, 429744, Note_on_c, 0, 69, 0
2, 429752, Note_on_c, 0, 79, 0
2, 429760, Note_on_c, 0, 73, 0
2, 429776, Note_on_c, 0, 45, 0
2, 429820, Control_c, 0, 64, 104
2, 429832, Control_c, 0, 64, 24
2, 429844, Note_on_c, 0, 78, 90
2, 429844, Control_c, 0, 64, 0
2, 429848, Note_on_c, 0, 45, 52
2, 429852, Note_on_c, 0, 50, 81
2, 429856, Note_on_c, 0, 69, 70
2, 429856, Note_on_c, 0, 74, 77
2, 429860, Note_on_c, 0, 38, 58
2, 429876, Note_on_c, 0, 40, 55
2, 429884, Control_c, 0, 64, 40
2, 429896, Control_c, 0, 64, 104
2, 429904, Note_on_c, 0, 40, 0
2, 429908, Control_c, 0, 64, 127
2, 429912, Note_on_c, 0, 57, 0
2, 429920, Note_on_c, 0, 69, 0
2, 429920, Note_on_c, 0, 74, 0
2, 429924, Note_on_c, 0, 50, 0
2, 429928, Note_on_c, 0, 38, 0
2, 429940, Note_on_c, 0, 45, 0
2, 429944, Note_on_c, 0, 78, 0
2, 430020, Control_c, 0, 64, 56
2, 430028, Note_on_c, 0, 78, 87
2, 430032, Control_c, 0, 64, 40
2, 430040, Note_on_c, 0, 69, 83
2, 430040, Note_on_c, 0, 74, 81
2, 430040, Note_on_c, 0, 50, 78
2, 430040, Note_on_c, 0, 45, 71
2, 430048, Control_c, 0, 64, 56
2, 430056, Note_on_c, 0, 74, 0
2, 430056, Control_c, 0, 64, 88
2, 430072, Control_c, 0, 64, 127
2, 430088, Note_on_c, 0, 78, 0
2, 430092, Note_on_c, 0, 69, 0
2, 430092, Note_on_c, 0, 50, 0
2, 430128, Note_on_c, 0, 45, 0
2, 430236, Note_on_c, 0, 74, 83
2, 430236, Control_c, 0, 64, 72
2, 430240, Note_on_c, 0, 54, 68
2, 430244, Note_on_c, 0, 62, 66
2, 430244, Note_on_c, 0, 45, 60
2, 430248, Control_c, 0, 64, 0
2, 430252, Note_on_c, 0, 69, 44
2, 430252, Note_on_c, 0, 42, 44
2, 430260, Control_c, 0, 64, 24
2, 430272, Control_c, 0, 64, 56
2, 430280, Note_on_c, 0, 69, 0
2, 430284, Control_c, 0, 64, 104
2, 430292, Note_on_c, 0, 62, 0
2, 430296, Note_on_c, 0, 54, 0
2, 430296, Control_c, 0, 64, 127
2, 430300, Note_on_c, 0, 42, 0
2, 430308, Note_on_c, 0, 45, 0
2, 430320, Note_on_c, 0, 74, 0
2, 430468, Note_on_c, 0, 74, 93
2, 430472, Note_on_c, 0, 62, 70
2, 430472, Note_on_c, 0, 69, 74
2, 430484, Note_on_c, 0, 54, 49
2, 430488, Note_on_c, 0, 42, 42
2, 430488, Note_on_c, 0, 45, 52
2, 430536, Control_c, 0, 64, 72
2, 430548, Control_c, 0, 64, 0
2, 430596, Control_c, 0, 64, 40
2, 430612, Control_c, 0, 64, 127
2, 430628, Note_on_c, 0, 74, 0
2, 430636, Note_on_c, 0, 69, 0
2, 430648, Note_on_c, 0, 54, 0
2, 430652, Note_on_c, 0, 45, 0
2, 430656, Note_on_c, 0, 62, 0
2, 430656, Note_on_c, 0, 42, 0
2, 430868, Note_on_c, 0, 69, 93
2, 430872, Note_on_c, 0, 57, 66
2, 430872, Note_on_c, 0, 62, 73
2, 430872, Note_on_c, 0, 54, 46
2, 430884, Control_c, 0, 64, 88
2, 430892, Note_on_c, 0, 42, 35
2, 430896, Control_c, 0, 64, 0
2, 430900, Note_on_c, 0, 45, 52
2, 430924, Control_c, 0, 64, 24
2, 430936, Control_c, 0, 64, 72
2, 430948, Control_c, 0, 64, 127
2, 430956, Note_on_c, 0, 62, 0
2, 430984, Note_on_c, 0, 42, 0
2, 430988, Note_on_c, 0, 54, 0
2, 430992, Note_on_c, 0, 69, 0
2, 430996, Note_on_c, 0, 45, 0
2, 431000, Note_on_c, 0, 57, 0
2, 431088, Control_c, 0, 64, 104
2, 431092, Note_on_c, 0, 67, 94
2, 431100, Control_c, 0, 64, 0
2, 431104, Note_on_c, 0, 52, 60
2, 431104, Note_on_c, 0, 57, 70
2, 431108, Note_on_c, 0, 40, 55
2, 431116, Note_on_c, 0, 45, 46
2, 431136, Control_c, 0, 64, 56
2, 431148, Control_c, 0, 64, 104
2, 431160, Control_c, 0, 64, 127
2, 431176, Note_on_c, 0, 57, 0
2, 431176, Note_on_c, 0, 52, 0
2, 431188, Note_on_c, 0, 45, 0
2, 431188, Note_on_c, 0, 40, 0
2, 431204, Note_on_c, 0, 67, 0
2, 431272, Control_c, 0, 64, 104
2, 431284, Control_c, 0, 64, 56
2, 431288, Note_on_c, 0, 67, 94
2, 431288, Note_on_c, 0, 45, 62
2, 431292, Note_on_c, 0, 52, 64
2, 431296, Note_on_c, 0, 57, 70
2, 431300, Note_on_c, 0, 61, 62
2, 431300, Note_on_c, 0, 40, 55
2, 431324, Control_c, 0, 64, 127
2, 431344, Note_on_c, 0, 52, 0
2, 431376, Note_on_c, 0, 57, 0
2, 431376, Note_on_c, 0, 40, 0
2, 431388, Note_on_c, 0, 67, 0
2, 431396, Note_on_c, 0, 61, 0
2, 431412, Note_on_c, 0, 45, 0
2, 431464, Control_c, 0, 64, 104
2, 431476, Control_c, 0, 64, 0
2, 431484, Note_on_c, 0, 66, 84
2, 431488, Note_on_c, 0, 45, 48
2, 431496, Note_on_c, 0, 62, 72
2, 431496, Note_on_c, 0, 50, 70
2, 431496, Note_on_c, 0, 57, 62
2, 431500, Note_on_c, 0, 38, 59
2, 431512, Control_c, 0, 64, 40
2, 431524, Control_c, 0, 64, 104
2, 431536, Control_c, 0, 64, 127
2, 431556, Note_on_c, 0, 62, 0
2, 431564, Note_on_c, 0, 57, 0
2, 431568, Note_on_c, 0, 50, 0
2, 431576, Note_on_c, 0, 38, 0
2, 431588, Note_on_c, 0, 45, 0
2, 431592, Note_on_c, 0, 66, 0
2, 431664, Control_c, 0, 64, 104
2, 431676, Control_c, 0, 64, 40
2, 431680, Note_on_c, 0, 66, 82
2, 431688, Note_on_c, 0, 57, 73
2, 431688, Note_on_c, 0, 45, 59
2, 431692, Note_on_c, 0, 50, 70
2, 431692, Note_on_c, 0, 62, 62
2, 431700, Note_on_c, 0, 38, 36
2, 431700, Control_c, 0, 64, 72
2, 431712, Control_c, 0, 64, 104
2, 431720, Note_on_c, 0, 62, 0
2, 431724, Control_c, 0, 64, 127
2, 431752, Note_on_c, 0, 66, 0
2, 431756, Note_on_c, 0, 45, 0
2, 431760, Note_on_c, 0, 38, 0
2, 431760, Note_on_c, 0, 57, 0
2, 431768, Note_on_c, 0, 50, 0
2, 431896, Note_on_c, 0, 62, 88
2, 431900, Note_on_c, 0, 57, 77
2, 431900, Control_c, 0, 64, 72
2, 431912, Control_c, 0, 64, 0
2, 431916, Note_on_c, 0, 50, 68
2, 431916, Note_on_c, 0, 42, 59
2, 431952, Control_c, 0, 64, 40
2, 431964, Control_c, 0, 64, 104
2, 431976, Control_c, 0, 64, 127
2, 431980, Note_on_c, 0, 50, 0
2, 431980, Note_on_c, 0, 57, 0
2, 431988, Note_on_c, 0, 42, 0
2, 432008, Note_on_c, 0, 62, 0
2, 432140, Note_on_c, 0, 62, 86
2, 432152, Note_on_c, 0, 57, 70
2, 432160, Note_on_c, 0, 42, 52
2, 432164, Note_on_c, 0, 50, 60
2, 432240, Control_c, 0, 64, 88
2, 432252, Control_c, 0, 64, 0
2, 432340, Control_c, 0, 64, 24
2, 432352, Control_c, 0, 64, 104
2, 432364, Control_c, 0, 64, 127
2, 432452, Note_on_c, 0, 50, 0
2, 432464, Note_on_c, 0, 62, 0
2, 432464, Note_on_c, 0, 57, 0
2, 432464, Note_on_c, 0, 42, 0
2, 432608, Note_on_c, 0, 62, 97
2, 432620, Note_on_c, 0, 42, 63
2, 432620, Note_on_c, 0, 57, 74
2, 432628, Note_on_c, 0, 50, 64
2, 432636, Control_c, 0, 64, 40
2, 432652, Control_c, 0, 64, 0
2, 432664, Control_c, 0, 64, 40
2, 432676, Control_c, 0, 64, 72
2, 432688, Control_c, 0, 64, 127
2, 432720, Note_on_c, 0, 50, 0
2, 432740, Note_on_c, 0, 57, 0
2, 432744, Note_on_c, 0, 42, 0
2, 432752, Note_on_c, 0, 62, 0
2, 432872, Note_on_c, 0, 61, 95
2, 432884, Note_on_c, 0, 57, 81
2, 432884, Note_on_c, 0, 40, 67
2, 432888, Note_on_c, 0, 52, 69
2, 432892, Control_c, 0, 64, 88
2, 432904, Control_c, 0, 64, 0
2, 432952, Control_c, 0, 64, 56
2, 432964, Control_c, 0, 64, 127
2, 432968, Note_on_c, 0, 57, 0
2, 432980, Note_on_c, 0, 52, 0
2, 432980, Note_on_c, 0, 40, 0
2, 433008, Note_on_c, 0, 61, 0
2, 433224, Note_on_c, 0, 60, 97
2, 433228, Note_on_c, 0, 54, 77
2, 433240, Note_on_c, 0, 39, 60
2, 433244, Note_on_c, 0, 45, 74
2, 433340, Control_c, 0, 64, 104
2, 433352, Control_c, 0, 64, 24
2, 433364, Control_c, 0, 64, 0
2, 433528, Control_c, 0, 64, 24
2, 433540, Control_c, 0, 64, 72
2, 433552, Control_c, 0, 64, 104
2, 433568, Control_c, 0, 64, 127
2, 434044, Note_on_c, 0, 60, 0
2, 434064, Note_on_c, 0, 59, 75
2, 434076, Note_on_c, 0, 45, 0
2, 434088, Note_on_c, 0, 47, 64
2, 434144, Control_c, 0, 64, 104
2, 434152, Control_c, 0, 64, 24
2, 434168, Control_c, 0, 64, 0
2, 434216, Control_c, 0, 64, 24
2, 434228, Control_c, 0, 64, 88
2, 434240, Control_c, 0, 64, 127
2, 434492, Note_on_c, 0, 47, 0
2, 434504, Note_on_c, 0, 57, 73
2, 434512, Note_on_c, 0, 48, 66
2, 434524, Note_on_c, 0, 59, 0
2, 434536, Note_on_c, 0, 39, 0
2, 434544, Control_c, 0, 64, 104
2, 434556, Control_c, 0, 64, 24
2, 434568, Control_c, 0, 64, 0
2, 434628, Control_c, 0, 64, 88
2, 434644, Control_c, 0, 64, 127
2, 434680, Note_on_c, 0, 54, 0
2, 434692, Note_on_c, 0, 57, 0
2, 434708, Note_on_c, 0, 48, 0
2, 434868, Control_c, 0, 64, 72
2, 434880, Control_c, 0, 64, 0
2, 434884, Note_on_c, 0, 40, 63
2, 434892, Note_on_c, 0, 57, 77
2, 434900, Note_on_c, 0, 49, 67
2, 434904, Note_on_c, 0, 52, 45
2, 434916, Control_c, 0, 64, 127
2, 434924, Note_on_c, 0, 40, 0
2, 434928, Note_on_c, 0, 52, 0
2, 434944, Note_on_c, 0, 49, 0
2, 434948, Note_on_c, 0, 57, 0
2, 435148, Note_on_c, 0, 73, 91
2, 435160, Note_on_c, 0, 52, 66
2, 435160, Note_on_c, 0, 69, 66
2, 435164, Note_on_c, 0, 64, 63
2, 435164, Note_on_c, 0, 61, 57
2, 435176, Note_on_c, 0, 57, 54
2, 435188, Note_on_c, 0, 64, 0
2, 435256, Note_on_c, 0, 64, 21
2, 435320, Control_c, 0, 64, 56
2, 435332, Control_c, 0, 64, 0
2, 435344, Control_c, 0, 64, 40
2, 435356, Control_c, 0, 64, 88
2, 435368, Control_c, 0, 64, 127
2, 435576, Note_on_c, 0, 57, 0
2, 435596, Note_on_c, 0, 52, 0
2, 435620, Note_on_c, 0, 61, 0
2, 435644, Note_on_c, 0, 69, 0
2, 435668, Note_on_c, 0, 64, 0
2, 435712, Note_on_c, 0, 73, 0
2, 435972, Note_on_c, 0, 71, 82
2, 435980, Note_on_c, 0, 68, 62
2, 435992, Note_on_c, 0, 64, 56
2, 435992, Note_on_c, 0, 59, 54
2, 435996, Note_on_c, 0, 50, 58
2, 435996, Note_on_c, 0, 56, 40
2, 436004, Note_on_c, 0, 52, 47
2, 436084, Control_c, 0, 64, 104
2, 436096, Control_c, 0, 64, 40
2, 436108, Control_c, 0, 64, 0
2, 436220, Control_c, 0, 64, 104
2, 436232, Control_c, 0, 64, 127
2, 436344, Note_on_c, 0, 59, 0
2, 436360, Note_on_c, 0, 50, 0
2, 436376, Note_on_c, 0, 52, 0
2, 436392, Note_on_c, 0, 56, 0
2, 436404, Note_on_c, 0, 64, 0
2, 436404, Note_on_c, 0, 68, 0
2, 436508, Note_on_c, 0, 71, 0
2, 436604, Note_on_c, 0, 69, 82
2, 436608, Note_on_c, 0, 49, 50
2, 436620, Note_on_c, 0, 57, 47
2, 436620, Note_on_c, 0, 52, 58
2, 436620, Control_c, 0, 64, 88
2, 436624, Note_on_c, 0, 64, 49
2, 436632, Control_c, 0, 64, 24
2, 436672, Control_c, 0, 64, 88
2, 436684, Control_c, 0, 64, 127
2, 436692, Note_on_c, 0, 64, 0
2, 436692, Note_on_c, 0, 57, 0
2, 436692, Note_on_c, 0, 52, 0
2, 436692, Note_on_c, 0, 49, 0
2, 436720, Note_on_c, 0, 69, 0
2, 436844, Note_on_c, 0, 69, 73
2, 436852, Note_on_c, 0, 57, 51
2, 436852, Note_on_c, 0, 49, 40
2, 436852, Note_on_c, 0, 64, 48
2, 436856, Note_on_c, 0, 52, 44
2, 436948, Control_c, 0, 64, 56
2, 436960, Control_c, 0, 64, 0
2, 437084, Control_c, 0, 64, 40
2, 437100, Control_c, 0, 64, 88
2, 437112, Control_c, 0, 64, 127
2, 437388, Control_c, 0, 64, 104
2, 437400, Control_c, 0, 64, 88
2, 437412, Control_c, 0, 64, 104
2, 437424, Control_c, 0, 64, 127
2, 437652, Note_on_c, 0, 52, 0
2, 437656, Note_on_c, 0, 49, 0
2, 437656, Note_on_c, 0, 64, 0
2, 437656, Note_on_c, 0, 57, 0
2, 437704, Note_on_c, 0, 69, 0
2, 437792, Note_on_c, 0, 49, 40
2, 437796, Note_on_c, 0, 69, 85
2, 437800, Note_on_c, 0, 57, 45
2, 437808, Note_on_c, 0, 52, 40
2, 437808, Note_on_c, 0, 64, 64
2, 437844, Note_on_c, 0, 52, 0
2, 437856, Note_on_c, 0, 57, 0
2, 437876, Note_on_c, 0, 64, 0
2, 437880, Note_on_c, 0, 49, 0
2, 437912, Note_on_c, 0, 69, 0
2, 437984, Note_on_c, 0, 71, 86
2, 437992, Note_on_c, 0, 68, 72
2, 437992, Note_on_c, 0, 52, 57
2, 437992, Note_on_c, 0, 59, 50
2, 437996, Note_on_c, 0, 64, 69
2, 437996, Note_on_c, 0, 56, 45
2, 438000, Control_c, 0, 64, 72
2, 438012, Control_c, 0, 64, 40
2, 438024, Control_c, 0, 64, 56
2, 438032, Note_on_c, 0, 56, 0
2, 438036, Control_c, 0, 64, 88
2, 438044, Note_on_c, 0, 64, 0
2, 438048, Note_on_c, 0, 68, 0
2, 438048, Control_c, 0, 64, 127
2, 438056, Note_on_c, 0, 71, 0
2, 438060, Note_on_c, 0, 59, 0
2, 438068, Note_on_c, 0, 52, 0
2, 438172, Note_on_c, 0, 73, 92
2, 438180, Note_on_c, 0, 57, 60
2, 438180, Note_on_c, 0, 64, 70
2, 438184, Note_on_c, 0, 69, 81
2, 438188, Note_on_c, 0, 61, 53
2, 438208, Note_on_c, 0, 64, 0
2, 438208, Note_on_c, 0, 57, 0
2, 438212, Note_on_c, 0, 69, 0
2, 438240, Note_on_c, 0, 61, 0
2, 438252, Note_on_c, 0, 73, 0
2, 438436, Note_on_c, 0, 76, 96
2, 438448, Note_on_c, 0, 73, 62
2, 438448, Note_on_c, 0, 67, 59
2, 438448, Note_on_c, 0, 70, 54
2, 438456, Note_on_c, 0, 64, 62
2, 438456, Note_on_c, 0, 58, 39
2, 438460, Note_on_c, 0, 55, 53
2, 438476, Note_on_c, 0, 61, 39
2, 438540, Control_c, 0, 64, 88
2, 438552, Control_c, 0, 64, 24
2, 438564, Control_c, 0, 64, 0
2, 438712, Control_c, 0, 64, 56
2, 438724, Control_c, 0, 64, 127
2, 438936, Note_on_c, 0, 55, 0
2, 438944, Note_on_c, 0, 61, 0
2, 438968, Note_on_c, 0, 76, 0
2, 438968, Note_on_c, 0, 64, 0
2, 438972, Note_on_c, 0, 73, 0
2, 438992, Note_on_c, 0, 58, 0
2, 438992, Note_on_c, 0, 67, 0
2, 439024, Note_on_c, 0, 70, 0
2, 439208, Note_on_c, 0, 74, 72
2, 439224, Note_on_c, 0, 66, 51
2, 439224, Note_on_c, 0, 62, 54
2, 439232, Note_on_c, 0, 71, 57
2, 439232, Note_on_c, 0, 54, 51
2, 439240, Note_on_c, 0, 59, 47
2, 439328, Control_c, 0, 64, 104
2, 439340, Control_c, 0, 64, 56
2, 439352, Control_c, 0, 64, 0
2, 439476, Control_c, 0, 64, 88
2, 439492, Control_c, 0, 64, 127
2, 439576, Note_on_c, 0, 62, 0
2, 439580, Note_on_c, 0, 71, 0
2, 439584, Note_on_c, 0, 59, 0
2, 439592, Note_on_c, 0, 66, 0
2, 439592, Note_on_c, 0, 54, 0
2, 439604, Note_on_c, 0, 74, 0
2, 439804, Note_on_c, 0, 70, 83
2, 439820, Note_on_c, 0, 67, 63
2, 439820, Note_on_c, 0, 61, 46
2, 439824, Note_on_c, 0, 52, 60
2, 439828, Note_on_c, 0, 58, 45
2, 439852, Note_on_c, 0, 67, 0
2, 439852, Note_on_c, 0, 55, 45
2, 439884, Note_on_c, 0, 55, 0
2, 439884, Note_on_c, 0, 52, 0
2, 439888, Note_on_c, 0, 58, 0
2, 439892, Note_on_c, 0, 61, 0
2, 439912, Note_on_c, 0, 70, 0
2, 440028, Note_on_c, 0, 70, 88
2, 440040, Note_on_c, 0, 52, 51
2, 440040, Note_on_c, 0, 61, 46
2, 440048, Note_on_c, 0, 67, 65
2, 440056, Note_on_c, 0, 55, 39
2, 440060, Note_on_c, 0, 58, 38
2, 440068, Control_c, 0, 64, 40
2, 440080, Control_c, 0, 64, 0
2, 440108, Note_on_c, 0, 67, 0
2, 440152, Note_on_c, 0, 55, 0
2, 440152, Note_on_c, 0, 52, 0
2, 440152, Control_c, 0, 64, 72
2, 440164, Control_c, 0, 64, 127
2, 440192, Note_on_c, 0, 70, 0
2, 440192, Note_on_c, 0, 61, 0
2, 440208, Note_on_c, 0, 58, 0
2, 440464, Note_on_c, 0, 71, 79
2, 440480, Note_on_c, 0, 66, 54
2, 440488, Note_on_c, 0, 54, 45
2, 440492, Note_on_c, 0, 59, 45
2, 440492, Note_on_c, 0, 50, 51
2, 440580, Control_c, 0, 64, 104
2, 440592, Control_c, 0, 64, 24
2, 440604, Control_c, 0, 64, 0
2, 440780, Control_c, 0, 64, 24
2, 440792, Control_c, 0, 64, 72
2, 440804, Control_c, 0, 64, 127
2, 440952, Note_on_c, 0, 50, 0
2, 440968, Note_on_c, 0, 59, 0
2, 440980, Note_on_c, 0, 54, 0
2, 441004, Note_on_c, 0, 71, 0
2, 441024, Note_on_c, 0, 66, 0
2, 441248, Note_on_c, 0, 69, 82
2, 441268, Note_on_c, 0, 49, 43
2, 441268, Note_on_c, 0, 64, 54
2, 441268, Note_on_c, 0, 57, 45
2, 441292, Note_on_c, 0, 52, 40
2, 441340, Control_c, 0, 64, 88
2, 441352, Control_c, 0, 64, 0
2, 441468, Control_c, 0, 64, 127
2, 441472, Note_on_c, 0, 64, 0
2, 441520, Note_on_c, 0, 69, 0
2, 441664, Note_on_c, 0, 64, 93
2, 441804, Note_on_c, 0, 57, 0
2, 441812, Note_on_c, 0, 64, 0
2, 441812, Note_on_c, 0, 52, 0
2, 441836, Note_on_c, 0, 49, 0
2, 442092, Note_on_c, 0, 74, 93
2, 442100, Note_on_c, 0, 64, 70
2, 442104, Note_on_c, 0, 62, 70
2, 442120, Note_on_c, 0, 56, 50
2, 442124, Note_on_c, 0, 52, 51
2, 442124, Note_on_c, 0, 47, 55
2, 442208, Control_c, 0, 64, 72
2, 442220, Control_c, 0, 64, 0
2, 442380, Control_c, 0, 64, 88
2, 442396, Control_c, 0, 64, 127
2, 442656, Note_on_c, 0, 47, 0
2, 442700, Note_on_c, 0, 74, 0
2, 442700, Note_on_c, 0, 56, 0
2, 442708, Note_on_c, 0, 64, 0
2, 442708, Note_on_c, 0, 62, 0
2, 442900, Note_on_c, 0, 52, 0
2, 442956, Note_on_c, 0, 73, 75
2, 442972, Note_on_c, 0, 61, 50
2, 442976, Note_on_c, 0, 57, 48
2, 442976, Note_on_c, 0, 45, 56
2, 443072, Control_c, 0, 64, 104
2, 443084, Control_c, 0, 64, 24
2, 443096, Control_c, 0, 64, 0
2, 443196, Control_c, 0, 64, 127
2, 443220, Note_on_c, 0, 73, 0
2, 443244, Note_on_c, 0, 61, 0
2, 443304, Note_on_c, 0, 57, 0
2, 443316, Note_on_c, 0, 45, 0
2, 443408, Note_on_c, 0, 61, 74
2, 443584, Note_on_c, 0, 61, 0
2, 443876, Note_on_c, 0, 71, 83
2, 443884, Note_on_c, 0, 61, 52
2, 443888, Note_on_c, 0, 59, 52
2, 443900, Note_on_c, 0, 44, 44
2, 443908, Note_on_c, 0, 49, 36
2, 443912, Note_on_c, 0, 53, 37
2, 443972, Control_c, 0, 64, 56
2, 443988, Control_c, 0, 64, 0
2, 444148, Control_c, 0, 64, 72
2, 444160, Control_c, 0, 64, 127
2, 444324, Note_on_c, 0, 71, 0
2, 444412, Note_on_c, 0, 59, 0
2, 444416, Note_on_c, 0, 53, 0
2, 444564, Note_on_c, 0, 44, 0
2, 444632, Note_on_c, 0, 49, 0
2, 444680, Note_on_c, 0, 69, 72
2, 444692, Note_on_c, 0, 61, 0
2, 444692, Note_on_c, 0, 57, 48
2, 444700, Note_on_c, 0, 42, 53
2, 444708, Note_on_c, 0, 54, 46
2, 444812, Control_c, 0, 64, 40
2, 444824, Control_c, 0, 64, 0
2, 444900, Control_c, 0, 64, 72
2, 444912, Control_c, 0, 64, 127
2, 444916, Note_on_c, 0, 69, 0
2, 444992, Note_on_c, 0, 57, 0
2, 445112, Note_on_c, 0, 57, 68
2, 445240, Note_on_c, 0, 57, 0
2, 445276, Note_on_c, 0, 59, 71
2, 445388, Note_on_c, 0, 59, 0
2, 445408, Note_on_c, 0, 57, 79
2, 445432, Note_on_c, 0, 54, 0
2, 445516, Note_on_c, 0, 57, 0
2, 445532, Note_on_c, 0, 56, 75
2, 445632, Note_on_c, 0, 56, 0
2, 445652, Note_on_c, 0, 57, 86
2, 445660, Note_on_c, 0, 42, 0
2, 445708, Note_on_c, 0, 57, 0
2, 445868, Note_on_c, 0, 67, 83
2, 445888, Note_on_c, 0, 57, 63
2, 445888, Note_on_c, 0, 49, 57
2, 445900, Note_on_c, 0, 40, 54
2, 445964, Control_c, 0, 64, 104
2, 445976, Control_c, 0, 64, 24
2, 445988, Control_c, 0, 64, 0
2, 446128, Control_c, 0, 64, 40
2, 446140, Control_c, 0, 64, 127
2, 446392, Note_on_c, 0, 67, 0
2, 446404, Note_on_c, 0, 57, 0
2, 446424, Note_on_c, 0, 40, 0
2, 446472, Note_on_c, 0, 49, 0
2, 446668, Note_on_c, 0, 66, 74
2, 446692, Note_on_c, 0, 57, 56
2, 446708, Note_on_c, 0, 50, 60
2, 446708, Note_on_c, 0, 38, 59
2, 446716, Control_c, 0, 64, 72
2, 446728, Control_c, 0, 64, 0
2, 446804, Control_c, 0, 64, 72
2, 446812, Control_c, 0, 64, 127
2, 446916, Note_on_c, 0, 50, 0
2, 446944, Note_on_c, 0, 38, 0
2, 446948, Note_on_c, 0, 49, 60
2, 447032, Note_on_c, 0, 57, 0
2, 447056, Note_on_c, 0, 66, 0
2, 447152, Note_on_c, 0, 49, 0
2, 447284, Note_on_c, 0, 66, 77
2, 447304, Note_on_c, 0, 56, 61
2, 447312, Note_on_c, 0, 47, 66
2, 447316, Note_on_c, 0, 40, 47
2, 447400, Control_c, 0, 64, 104
2, 447416, Control_c, 0, 64, 24
2, 447428, Control_c, 0, 64, 0
2, 447540, Control_c, 0, 64, 56
2, 447552, Control_c, 0, 64, 127
2, 448068, Note_on_c, 0, 50, 59
2, 448096, Note_on_c, 0, 47, 0
2, 448180, Control_c, 0, 64, 88
2, 448192, Control_c, 0, 64, 0
2, 448256, Control_c, 0, 64, 72
2, 448268, Control_c, 0, 64, 127
2, 448400, Note_on_c, 0, 66, 0
2, 448408, Note_on_c, 0, 64, 70
2, 448740, Note_on_c, 0, 64, 0
2, 448784, Note_on_c, 0, 63, 65
2, 448800, Note_on_c, 0, 47, 45
2, 448884, Control_c, 0, 64, 40
2, 448896, Control_c, 0, 64, 0
2, 448968, Control_c, 0, 64, 72
2, 448980, Control_c, 0, 64, 127
2, 449124, Note_on_c, 0, 63, 0
2, 449152, Note_on_c, 0, 62, 68
2, 449244, Note_on_c, 0, 56, 0
2, 449248, Note_on_c, 0, 50, 0
2, 449268, Note_on_c, 0, 47, 0
2, 449276, Note_on_c, 0, 40, 0
2, 449280, Note_on_c, 0, 62, 0
2, 449584, Note_on_c, 0, 69, 48
2, 449584, Note_on_c, 0, 73, 76
2, 449584, Note_on_c, 0, 45, 55
2, 449584, Note_on_c, 0, 57, 55
2, 449584, Note_on_c, 0, 33, 60
2, 449712, Note_on_c, 0, 64, 53
2, 449836, Note_on_c, 0, 61, 44
2, 449836, Control_c, 0, 64, 127
2, 449840, Note_on_c, 0, 33, 0
2, 449840, Note_on_c, 0, 57, 0
2, 449840, Note_on_c, 0, 45, 0
2, 449888, Note_on_c, 0, 61, 0
2, 449952, Note_on_c, 0, 57, 47
2, 450064, Note_on_c, 0, 57, 0
2, 450076, Note_on_c, 0, 52, 51
2, 450160, Note_on_c, 0, 69, 0
2, 450184, Note_on_c, 0, 73, 0
2, 450192, Note_on_c, 0, 52, 0
2, 450192, Note_on_c, 0, 45, 56
2, 450212, Note_on_c, 0, 45, 0
2, 450284, Note_on_c, 0, 64, 0
2, 450324, Note_on_c, 0, 74, 74
2, 450324, Note_on_c, 0, 71, 78
2, 450324, Note_on_c, 0, 62, 57
2, 450324, Note_on_c, 0, 59, 57
2, 450360, Control_c, 0, 64, 104
2, 450372, Control_c, 0, 64, 40
2, 450380, Control_c, 0, 64, 0
2, 450440, Note_on_c, 0, 64, 64
2, 450448, Control_c, 0, 64, 88
2, 450456, Control_c, 0, 64, 127
2, 450556, Note_on_c, 0, 62, 51
2, 450580, Note_on_c, 0, 62, 0
2, 450580, Note_on_c, 0, 59, 0
2, 450664, Note_on_c, 0, 62, 0
2, 450672, Note_on_c, 0, 59, 59
2, 450700, Note_on_c, 0, 59, 0
2, 450780, Note_on_c, 0, 52, 56
2, 450876, Note_on_c, 0, 71, 0
2, 450888, Note_on_c, 0, 69, 84
2, 450896, Note_on_c, 0, 52, 0
2, 450896, Note_on_c, 0, 45, 56
2, 450916, Note_on_c, 0, 74, 0
2, 450936, Note_on_c, 0, 45, 0
2, 450940, Note_on_c, 0, 64, 0
2, 450956, Note_on_c, 0, 69, 0
2, 451028, Note_on_c, 0, 75, 73
2, 451028, Note_on_c, 0, 72, 59
2, 451028, Note_on_c, 0, 69, 80
2, 451028, Note_on_c, 0, 63, 60
2, 451028, Note_on_c, 0, 60, 60
2, 451028, Note_on_c, 0, 57, 60
2, 451100, Control_c, 0, 64, 72
2, 451108, Control_c, 0, 64, 24
2, 451112, Control_c, 0, 64, 0
2, 451144, Note_on_c, 0, 64, 68
2, 451176, Control_c, 0, 64, 88
2, 451184, Control_c, 0, 64, 127
2, 451252, Note_on_c, 0, 63, 51
2, 451284, Note_on_c, 0, 63, 0
2, 451284, Note_on_c, 0, 57, 0
2, 451284, Note_on_c, 0, 60, 0
2, 451352, Note_on_c, 0, 63, 0
2, 451360, Note_on_c, 0, 60, 57
2, 451424, Note_on_c, 0, 60, 0
2, 451472, Note_on_c, 0, 57, 64
2, 451576, Note_on_c, 0, 57, 0
2, 451580, Note_on_c, 0, 64, 0
2, 451588, Note_on_c, 0, 45, 62
2, 451620, Note_on_c, 0, 75, 0
2, 451624, Note_on_c, 0, 72, 0
2, 451640, Note_on_c, 0, 45, 0
2, 451712, Note_on_c, 0, 76, 76
2, 451712, Note_on_c, 0, 73, 65
2, 451712, Note_on_c, 0, 64, 60
2, 451712, Note_on_c, 0, 61, 60
2, 451740, Control_c, 0, 64, 56
2, 451748, Control_c, 0, 64, 0
2, 451812, Control_c, 0, 64, 88
2, 451820, Control_c, 0, 64, 127
2, 451828, Note_on_c, 0, 69, 66
2, 451884, Note_on_c, 0, 69, 78
2, 451940, Note_on_c, 0, 64, 59
2, 451968, Note_on_c, 0, 64, 0
2, 451968, Note_on_c, 0, 61, 0
2, 452040, Note_on_c, 0, 64, 0
2, 452040, Note_on_c, 0, 73, 0
2, 452048, Note_on_c, 0, 61, 61
2, 452060, Note_on_c, 0, 71, 88
2, 452092, Note_on_c, 0, 61, 0
2, 452108, Note_on_c, 0, 69, 0
2, 452108, Note_on_c, 0, 69, 0
2, 452108, Note_on_c, 0, 69, 0
2, 452140, Note_on_c, 0, 57, 63
2, 452216, Note_on_c, 0, 57, 0
2, 452216, Note_on_c, 0, 71, 0
2, 452224, Note_on_c, 0, 73, 89
2, 452240, Note_on_c, 0, 76, 0
2, 452260, Note_on_c, 0, 45, 54
2, 452292, Note_on_c, 0, 45, 0
2, 452332, Note_on_c, 0, 73, 0
2, 452384, Note_on_c, 0, 77, 71
2, 452384, Note_on_c, 0, 71, 46
2, 452384, Note_on_c, 0, 74, 89
2, 452384, Note_on_c, 0, 57, 52
2, 452384, Note_on_c, 0, 68, 52
2, 452384, Note_on_c, 0, 62, 60
2, 452384, Note_on_c, 0, 65, 60
2, 452384, Note_on_c, 0, 45, 60
2, 452424, Control_c, 0, 64, 104
2, 452432, Control_c, 0, 64, 40
2, 452440, Control_c, 0, 64, 0
2, 452456, Note_on_c, 0, 71, 0
2, 452492, Note_on_c, 0, 68, 59
2, 452516, Control_c, 0, 64, 88
2, 452524, Control_c, 0, 64, 127
2, 452612, Note_on_c, 0, 65, 60
2, 452640, Note_on_c, 0, 65, 0
2, 452640, Note_on_c, 0, 45, 0
2, 452640, Note_on_c, 0, 62, 0
2, 452708, Note_on_c, 0, 65, 0
2, 452720, Note_on_c, 0, 62, 57
2, 452720, Note_on_c, 0, 62, 81
2, 452724, Note_on_c, 0, 68, 0
2, 452724, Note_on_c, 0, 68, 0
2, 452728, Note_on_c, 0, 74, 0
2, 452792, Note_on_c, 0, 62, 0
2, 452816, Note_on_c, 0, 77, 0
2, 452816, Note_on_c, 0, 59, 56
2, 452920, Note_on_c, 0, 59, 0
2, 452924, Note_on_c, 0, 57, 68
2, 452956, Note_on_c, 0, 57, 0
2, 452984, Note_on_c, 0, 62, 0
2, 453060, Note_on_c, 0, 89, 87
2, 453060, Note_on_c, 0, 77, 90
2, 453060, Note_on_c, 0, 56, 55
2, 453060, Note_on_c, 0, 59, 58
2, 453060, Note_on_c, 0, 45, 60
2, 453060, Note_on_c, 0, 50, 57
2, 453072, Note_on_c, 0, 86, 73
2, 453080, Note_on_c, 0, 83, 51
2, 453096, Control_c, 0, 64, 88
2, 453104, Note_on_c, 0, 83, 0
2, 453104, Control_c, 0, 64, 40
2, 453112, Control_c, 0, 64, 0
2, 453128, Control_c, 0, 64, 56
2, 453136, Control_c, 0, 64, 127
2, 453168, Note_on_c, 0, 80, 60
2, 453280, Note_on_c, 0, 77, 58
2, 453316, Note_on_c, 0, 50, 0
2, 453316, Note_on_c, 0, 56, 0
2, 453316, Note_on_c, 0, 45, 0
2, 453316, Note_on_c, 0, 59, 0
2, 453360, Note_on_c, 0, 77, 0
2, 453380, Note_on_c, 0, 74, 61
2, 453456, Note_on_c, 0, 74, 0
2, 453488, Note_on_c, 0, 71, 61
2, 453504, Note_on_c, 0, 57, 0
2, 453564, Note_on_c, 0, 71, 0
2, 453588, Note_on_c, 0, 68, 59
2, 453692, Note_on_c, 0, 68, 0
2, 453692, Note_on_c, 0, 65, 59
2, 453768, Note_on_c, 0, 65, 0
2, 453800, Note_on_c, 0, 62, 60
2, 453872, Note_on_c, 0, 62, 0
2, 453904, Note_on_c, 0, 59, 66
2, 453932, Control_c, 0, 64, 88
2, 453956, Control_c, 0, 64, 127
2, 454004, Note_on_c, 0, 59, 0
2, 454012, Note_on_c, 0, 56, 62
2, 454084, Note_on_c, 0, 77, 0
2, 454120, Note_on_c, 0, 56, 0
2, 454120, Note_on_c, 0, 53, 60
2, 454196, Note_on_c, 0, 53, 0
2, 454248, Note_on_c, 0, 50, 59
2, 454320, Note_on_c, 0, 50, 0
2, 454356, Note_on_c, 0, 47, 58
2, 454444, Note_on_c, 0, 47, 0
2, 454460, Note_on_c, 0, 44, 58
2, 454572, Note_on_c, 0, 41, 57
2, 454592, Note_on_c, 0, 44, 0
2, 454652, Note_on_c, 0, 41, 0
2, 454680, Note_on_c, 0, 40, 57
2, 454760, Note_on_c, 0, 40, 0
2, 454768, Note_on_c, 0, 80, 0
2, 454792, Note_on_c, 0, 38, 58
2, 454804, Note_on_c, 0, 86, 0
2, 454812, Note_on_c, 0, 89, 0
2, 454876, Note_on_c, 0, 38, 0
2, 454904, Note_on_c, 0, 35, 60
2, 454980, Note_on_c, 0, 35, 0
2, 455040, Control_c, 0, 64, 104
2, 455044, Note_on_c, 0, 73, 81
2, 455044, Note_on_c, 0, 33, 60
2, 455044, Note_on_c, 0, 69, 54
2, 455044, Note_on_c, 0, 57, 49
2, 455048, Control_c, 0, 64, 0
2, 455104, Note_on_c, 0, 33, 0
2, 455104, Control_c, 0, 64, 104
2, 455112, Control_c, 0, 64, 127
2, 455156, Note_on_c, 0, 64, 57
2, 455268, Note_on_c, 0, 61, 57
2, 455268, Note_on_c, 0, 57, 59
2, 455308, Note_on_c, 0, 61, 0
2, 455372, Note_on_c, 0, 57, 58
2, 455456, Note_on_c, 0, 57, 0
2, 455464, Note_on_c, 0, 52, 55
2, 455476, Note_on_c, 0, 69, 0
2, 455488, Note_on_c, 0, 64, 0
2, 455524, Note_on_c, 0, 57, 0
2, 455540, Note_on_c, 0, 73, 0
2, 455560, Note_on_c, 0, 52, 0
2, 455576, Note_on_c, 0, 45, 52
2, 455616, Note_on_c, 0, 45, 0
2, 455692, Note_on_c, 0, 74, 71
2, 455692, Note_on_c, 0, 71, 75
2, 455692, Note_on_c, 0, 62, 64
2, 455692, Note_on_c, 0, 59, 57
2, 455692, Note_on_c, 0, 57, 60
2, 455692, Note_on_c, 0, 45, 61
2, 455728, Control_c, 0, 64, 40
2, 455736, Control_c, 0, 64, 0
2, 455784, Control_c, 0, 64, 56
2, 455792, Note_on_c, 0, 64, 59
2, 455792, Control_c, 0, 64, 127
2, 455892, Note_on_c, 0, 62, 60
2, 455948, Note_on_c, 0, 45, 0
2, 455948, Note_on_c, 0, 57, 0
2, 455948, Note_on_c, 0, 57, 0
2, 455948, Note_on_c, 0, 59, 0
2, 455980, Note_on_c, 0, 62, 0
2, 455992, Note_on_c, 0, 59, 63
2, 455992, Note_on_c, 0, 62, 58
2, 455992, Note_on_c, 0, 57, 62
2, 456084, Note_on_c, 0, 59, 0
2, 456104, Note_on_c, 0, 52, 58
2, 456152, Note_on_c, 0, 62, 0
2, 456172, Note_on_c, 0, 71, 0
2, 456172, Note_on_c, 0, 69, 88
2, 456192, Note_on_c, 0, 52, 0
2, 456204, Note_on_c, 0, 45, 60
2, 456220, Note_on_c, 0, 74, 0
2, 456240, Note_on_c, 0, 45, 0
2, 456248, Note_on_c, 0, 57, 0
2, 456248, Note_on_c, 0, 62, 0
2, 456252, Note_on_c, 0, 64, 0
2, 456272, Note_on_c, 0, 69, 0
2, 456324, Note_on_c, 0, 75, 77
2, 456324, Note_on_c, 0, 72, 59
2, 456324, Note_on_c, 0, 69, 81
2, 456324, Note_on_c, 0, 63, 57
2, 456324, Note_on_c, 0, 60, 57
2, 456324, Note_on_c, 0, 57, 61
2, 456372, Control_c, 0, 64, 104
2, 456380, Control_c, 0, 64, 40
2, 456388, Control_c, 0, 64, 0
2, 456416, Note_on_c, 0, 64, 60
2, 456444, Control_c, 0, 64, 104
2, 456448, Control_c, 0, 64, 127
2, 456516, Note_on_c, 0, 63, 60
2, 456580, Note_on_c, 0, 63, 0
2, 456580, Note_on_c, 0, 57, 0
2, 456580, Note_on_c, 0, 60, 0
2, 456588, Note_on_c, 0, 63, 0
2, 456616, Note_on_c, 0, 60, 60
2, 456616, Note_on_c, 0, 63, 58
2, 456616, Note_on_c, 0, 57, 58
2, 456676, Note_on_c, 0, 60, 0
2, 456712, Note_on_c, 0, 57, 62
2, 456776, Note_on_c, 0, 57, 0
2, 456796, Note_on_c, 0, 64, 0
2, 456816, Note_on_c, 0, 45, 60
2, 456844, Note_on_c, 0, 75, 0
2, 456844, Note_on_c, 0, 72, 0
2, 456852, Note_on_c, 0, 45, 0
2, 456872, Note_on_c, 0, 63, 0
2, 456872, Note_on_c, 0, 57, 0
2, 456916, Note_on_c, 0, 76, 76
2, 456916, Note_on_c, 0, 73, 67
2, 456916, Note_on_c, 0, 33, 60
2, 456916, Note_on_c, 0, 45, 57
2, 456952, Control_c, 0, 64, 40
2, 456960, Control_c, 0, 64, 0
2, 457008, Control_c, 0, 64, 104
2, 457016, Control_c, 0, 64, 127
2, 457028, Note_on_c, 0, 69, 65
2, 457080, Note_on_c, 0, 69, 86
2, 457136, Note_on_c, 0, 64, 64
2, 457172, Note_on_c, 0, 45, 0
2, 457172, Note_on_c, 0, 33, 0
2, 457184, Note_on_c, 0, 69, 0
2, 457184, Note_on_c, 0, 61, 64
2, 457216, Note_on_c, 0, 61, 0
2, 457216, Note_on_c, 0, 69, 0
2, 457224, Note_on_c, 0, 64, 0
2, 457232, Note_on_c, 0, 71, 85
2, 457332, Note_on_c, 0, 57, 68
2, 457348, Note_on_c, 0, 71, 0
2, 457348, Note_on_c, 0, 69, 0
2, 457360, Note_on_c, 0, 73, 0
2, 457376, Note_on_c, 0, 57, 0
2, 457396, Note_on_c, 0, 76, 0
2, 457396, Note_on_c, 0, 73, 85
2, 457416, Note_on_c, 0, 54, 74
2, 457440, Note_on_c, 0, 45, 68
2, 457472, Note_on_c, 0, 54, 0
2, 457476, Note_on_c, 0, 45, 0
2, 457516, Note_on_c, 0, 73, 0
2, 457564, Note_on_c, 0, 79, 86
2, 457564, Note_on_c, 0, 73, 57
2, 457564, Note_on_c, 0, 76, 81
2, 457564, Note_on_c, 0, 70, 56
2, 457588, Control_c, 0, 64, 88
2, 457596, Control_c, 0, 64, 0
2, 457644, Note_on_c, 0, 73, 0
2, 457652, Control_c, 0, 64, 88
2, 457656, Note_on_c, 0, 70, 62
2, 457660, Control_c, 0, 64, 127
2, 457760, Note_on_c, 0, 67, 61
2, 457832, Note_on_c, 0, 67, 0
2, 457864, Note_on_c, 0, 64, 71
2, 457900, Note_on_c, 0, 76, 0
2, 457900, Note_on_c, 0, 70, 0
2, 457952, Note_on_c, 0, 61, 62
2, 457956, Note_on_c, 0, 64, 0
2, 457964, Note_on_c, 0, 79, 0
2, 458052, Note_on_c, 0, 54, 66
2, 458076, Note_on_c, 0, 61, 0
2, 458108, Note_on_c, 0, 54, 0
2, 458180, Note_on_c, 0, 91, 91
2, 458180, Note_on_c, 0, 79, 80
2, 458180, Note_on_c, 0, 58, 60
2, 458180, Note_on_c, 0, 52, 57
2, 458180, Note_on_c, 0, 49, 57
2, 458180, Note_on_c, 0, 42, 60
2, 458188, Note_on_c, 0, 88, 70
2, 458192, Note_on_c, 0, 85, 68
2, 458204, Note_on_c, 0, 85, 0
2, 458280, Note_on_c, 0, 82, 65
2, 458384, Note_on_c, 0, 79, 64
2, 458452, Note_on_c, 0, 79, 0
2, 458480, Note_on_c, 0, 76, 63
2, 458500, Note_on_c, 0, 70, 0
2, 458544, Note_on_c, 0, 76, 0
2, 458584, Note_on_c, 0, 73, 63
2, 458648, Note_on_c, 0, 73, 0
2, 458680, Note_on_c, 0, 70, 63
2, 458784, Note_on_c, 0, 70, 0
2, 458784, Note_on_c, 0, 67, 62
2, 458820, Note_on_c, 0, 52, 0
2, 458820, Note_on_c, 0, 58, 0
2, 458820, Note_on_c, 0, 42, 0
2, 458820, Note_on_c, 0, 49, 0
2, 458820, Note_on_c, 0, 79, 0
2, 458856, Note_on_c, 0, 67, 0
2, 458888, Note_on_c, 0, 64, 61
2, 458956, Note_on_c, 0, 64, 0
2, 458992, Note_on_c, 0, 61, 61
2, 459068, Note_on_c, 0, 61, 0
2, 459088, Note_on_c, 0, 58, 60
2, 459192, Note_on_c, 0, 58, 0
2, 459196, Note_on_c, 0, 55, 60
2, 459260, Note_on_c, 0, 55, 0
2, 459300, Note_on_c, 0, 52, 60
2, 459364, Note_on_c, 0, 52, 0
2, 459404, Note_on_c, 0, 49, 59
2, 459480, Note_on_c, 0, 49, 0
2, 459504, Note_on_c, 0, 46, 59
2, 459612, Note_on_c, 0, 43, 58
2, 459616, Note_on_c, 0, 46, 0
2, 459664, Note_on_c, 0, 43, 0
2, 459712, Note_on_c, 0, 42, 58
2, 459780, Note_on_c, 0, 42, 0
2, 459796, Note_on_c, 0, 82, 0
2, 459808, Note_on_c, 0, 88, 0
2, 459808, Note_on_c, 0, 40, 57
2, 459816, Note_on_c, 0, 91, 0
2, 459888, Note_on_c, 0, 40, 0
2, 459920, Note_on_c, 0, 37, 58
2, 460012, Note_on_c, 0, 37, 0
2, 460036, Note_on_c, 0, 35, 62
2, 460036, Note_on_c, 0, 74, 55
2, 460036, Note_on_c, 0, 78, 74
2, 460052, Control_c, 0, 64, 72
2, 460060, Control_c, 0, 64, 0
2, 460072, Note_on_c, 0, 62, 45
2, 460072, Note_on_c, 0, 59, 50
2, 460072, Note_on_c, 0, 66, 53
2, 460104, Control_c, 0, 64, 72
2, 460108, Note_on_c, 0, 35, 0
2, 460116, Control_c, 0, 64, 127
2, 460160, Note_on_c, 0, 71, 63
2, 460272, Note_on_c, 0, 66, 64
2, 460360, Note_on_c, 0, 66, 0
2, 460360, Note_on_c, 0, 66, 0
2, 460384, Note_on_c, 0, 62, 65
2, 460388, Note_on_c, 0, 59, 0
2, 460396, Note_on_c, 0, 62, 0
2, 460412, Note_on_c, 0, 62, 0
2, 460428, Note_on_c, 0, 78, 60
2, 460480, Note_on_c, 0, 59, 64
2, 460492, Note_on_c, 0, 71, 0
2, 460496, Note_on_c, 0, 74, 0
2, 460532, Note_on_c, 0, 78, 0
2, 460564, Note_on_c, 0, 59, 0
2, 460572, Note_on_c, 0, 78, 0
2, 460592, Note_on_c, 0, 47, 64
2, 460608, Note_on_c, 0, 47, 0
2, 460720, Note_on_c, 0, 93, 97
2, 460720, Note_on_c, 0, 90, 71
2, 460720, Note_on_c, 0, 87, 66
2, 460720, Note_on_c, 0, 44, 66
2, 460720, Note_on_c, 0, 51, 57
2, 460720, Note_on_c, 0, 54, 59
2, 460720, Note_on_c, 0, 81, 72
2, 460720, Note_on_c, 0, 60, 60
2, 460748, Control_c, 0, 64, 56
2, 460756, Control_c, 0, 64, 0
2, 460772, Note_on_c, 0, 54, 0
2, 460780, Note_on_c, 0, 51, 0
2, 460804, Note_on_c, 0, 44, 0
2, 460804, Control_c, 0, 64, 127
2, 460820, Note_on_c, 0, 84, 65
2, 460924, Note_on_c, 0, 81, 64
2, 460976, Note_on_c, 0, 60, 0
2, 460996, Note_on_c, 0, 81, 0
2, 461020, Note_on_c, 0, 78, 64
2, 461100, Note_on_c, 0, 78, 0
2, 461112, Note_on_c, 0, 75, 63
2, 461212, Note_on_c, 0, 72, 63
2, 461216, Note_on_c, 0, 75, 0
2, 461272, Note_on_c, 0, 81, 0
2, 461272, Note_on_c, 0, 72, 0
2, 461308, Note_on_c, 0, 69, 62
2, 461392, Note_on_c, 0, 69, 0
2, 461416, Note_on_c, 0, 66, 62
2, 461484, Note_on_c, 0, 66, 0
2, 461508, Note_on_c, 0, 63, 62
2, 461612, Note_on_c, 0, 63, 0
2, 461612, Note_on_c, 0, 60, 61
2, 461672, Note_on_c, 0, 60, 0
2, 461712, Note_on_c, 0, 57, 61
2, 461784, Note_on_c, 0, 57, 0
2, 461812, Note_on_c, 0, 54, 60
2, 461888, Note_on_c, 0, 54, 0
2, 461904, Note_on_c, 0, 51, 60
2, 462012, Note_on_c, 0, 48, 60
2, 462016, Note_on_c, 0, 51, 0
2, 462060, Note_on_c, 0, 48, 0
2, 462108, Note_on_c, 0, 45, 59
2, 462184, Note_on_c, 0, 45, 0
2, 462216, Note_on_c, 0, 44, 59
2, 462284, Note_on_c, 0, 44, 0
2, 462292, Note_on_c, 0, 93, 0
2, 462292, Note_on_c, 0, 87, 0
2, 462296, Note_on_c, 0, 90, 0
2, 462308, Note_on_c, 0, 84, 0
2, 462320, Note_on_c, 0, 42, 58
2, 462384, Note_on_c, 0, 42, 0
2, 462416, Note_on_c, 0, 39, 58
2, 462524, Note_on_c, 0, 39, 0
2, 462612, Note_on_c, 0, 37, 62
2, 462612, Note_on_c, 0, 76, 70
2, 462612, Note_on_c, 0, 73, 56
2, 462612, Note_on_c, 0, 49, 60
2, 462612, Note_on_c, 0, 61, 53
2, 462612, Note_on_c, 0, 64, 60
2, 462612, Note_on_c, 0, 56, 53
2, 462616, Control_c, 0, 64, 88
2, 462628, Control_c, 0, 64, 0
2, 462672, Note_on_c, 0, 37, 0
2, 462672, Control_c, 0, 64, 127
2, 462716, Note_on_c, 0, 68, 60
2, 462832, Note_on_c, 0, 64, 60
2, 462868, Note_on_c, 0, 64, 0
2, 462868, Note_on_c, 0, 56, 0
2, 462872, Note_on_c, 0, 64, 0
2, 462916, Note_on_c, 0, 68, 0
2, 462924, Note_on_c, 0, 61, 59
2, 462944, Note_on_c, 0, 49, 0
2, 462948, Note_on_c, 0, 73, 0
2, 462968, Note_on_c, 0, 61, 0
2, 462980, Note_on_c, 0, 61, 0
2, 462992, Note_on_c, 0, 76, 0
2, 463008, Note_on_c, 0, 56, 59
2, 463100, Note_on_c, 0, 56, 0
2, 463100, Note_on_c, 0, 49, 58
2, 463132, Note_on_c, 0, 49, 0
2, 463224, Note_on_c, 0, 83, 80
2, 463232, Note_on_c, 0, 78, 70
2, 463244, Control_c, 0, 64, 56
2, 463252, Control_c, 0, 64, 0
2, 463300, Control_c, 0, 64, 104
2, 463308, Control_c, 0, 64, 127
2, 463320, Note_on_c, 0, 73, 61
2, 463436, Note_on_c, 0, 69, 60
2, 463444, Note_on_c, 0, 83, 0
2, 463468, Note_on_c, 0, 69, 0
2, 463520, Note_on_c, 0, 66, 60
2, 463596, Note_on_c, 0, 78, 0
2, 463596, Note_on_c, 0, 61, 60
2, 463656, Note_on_c, 0, 66, 0
2, 463660, Note_on_c, 0, 81, 82
2, 463696, Note_on_c, 0, 73, 0
2, 463720, Note_on_c, 0, 54, 59
2, 463732, Note_on_c, 0, 61, 0
2, 463748, Note_on_c, 0, 54, 0
2, 463760, Note_on_c, 0, 81, 0
2, 463832, Note_on_c, 0, 76, 74
2, 463832, Note_on_c, 0, 73, 59
2, 463832, Note_on_c, 0, 49, 62
2, 463832, Note_on_c, 0, 61, 50
2, 463832, Note_on_c, 0, 56, 52
2, 463832, Note_on_c, 0, 64, 53
2, 463832, Note_on_c, 0, 37, 56
2, 463860, Control_c, 0, 64, 56
2, 463872, Control_c, 0, 64, 0
2, 463912, Note_on_c, 0, 68, 49
2, 463928, Control_c, 0, 64, 127
2, 464008, Note_on_c, 0, 64, 64
2, 464052, Note_on_c, 0, 64, 0
2, 464088, Note_on_c, 0, 37, 0
2, 464088, Note_on_c, 0, 64, 0
2, 464088, Note_on_c, 0, 56, 0
2, 464112, Note_on_c, 0, 61, 56
2, 464152, Note_on_c, 0, 68, 0
2, 464180, Note_on_c, 0, 73, 0
2, 464196, Note_on_c, 0, 61, 0
2, 464200, Note_on_c, 0, 56, 57
2, 464224, Note_on_c, 0, 76, 0
2, 464292, Note_on_c, 0, 49, 0
2, 464296, Note_on_c, 0, 49, 56
2, 464304, Note_on_c, 0, 61, 0
2, 464304, Note_on_c, 0, 56, 0
2, 464328, Note_on_c, 0, 49, 0
2, 464404, Note_on_c, 0, 83, 79
2, 464416, Note_on_c, 0, 78, 65
2, 464444, Control_c, 0, 64, 104
2, 464452, Control_c, 0, 64, 40
2, 464460, Control_c, 0, 64, 0
2, 464496, Note_on_c, 0, 73, 52
2, 464516, Control_c, 0, 64, 127
2, 464592, Note_on_c, 0, 69, 58
2, 464656, Note_on_c, 0, 69, 0
2, 464700, Note_on_c, 0, 83, 0
2, 464700, Note_on_c, 0, 66, 46
2, 464776, Note_on_c, 0, 61, 58
2, 464816, Note_on_c, 0, 78, 0
2, 464836, Note_on_c, 0, 81, 82
2, 464856, Note_on_c, 0, 66, 0
2, 464876, Note_on_c, 0, 73, 0
2, 464892, Note_on_c, 0, 81, 0
2, 464896, Note_on_c, 0, 54, 61
2, 464912, Note_on_c, 0, 61, 0
2, 464916, Note_on_c, 0, 54, 0
2, 464992, Note_on_c, 0, 76, 73
2, 464992, Note_on_c, 0, 73, 56
2, 464992, Note_on_c, 0, 61, 58
2, 464992, Note_on_c, 0, 49, 63
2, 464992, Note_on_c, 0, 37, 55
2, 464992, Note_on_c, 0, 64, 60
2, 464992, Note_on_c, 0, 56, 60
2, 465020, Control_c, 0, 64, 72
2, 465028, Control_c, 0, 64, 0
2, 465072, Control_c, 0, 64, 88
2, 465080, Note_on_c, 0, 68, 54
2, 465080, Control_c, 0, 64, 127
2, 465180, Note_on_c, 0, 66, 34
2, 465184, Note_on_c, 0, 64, 33
2, 465208, Note_on_c, 0, 64, 0
2, 465216, Note_on_c, 0, 66, 0
2, 465276, Note_on_c, 0, 61, 64
2, 465344, Note_on_c, 0, 61, 0
2, 465368, Note_on_c, 0, 56, 54
2, 465392, Note_on_c, 0, 76, 0
2, 465464, Note_on_c, 0, 61, 0
2, 465472, Note_on_c, 0, 56, 0
2, 465472, Note_on_c, 0, 49, 58
2, 465476, Note_on_c, 0, 68, 0
2, 465508, Note_on_c, 0, 49, 0
2, 465548, Note_on_c, 0, 73, 0
2, 465580, Note_on_c, 0, 78, 75
2, 465580, Note_on_c, 0, 74, 57
2, 465580, Note_on_c, 0, 47, 65
2, 465580, Note_on_c, 0, 59, 58
2, 465580, Note_on_c, 0, 71, 62
2, 465580, Note_on_c, 0, 66, 60
2, 465580, Note_on_c, 0, 62, 56
2, 465580, Note_on_c, 0, 35, 56
2, 465588, Note_on_c, 0, 49, 0
2, 465608, Control_c, 0, 64, 104
2, 465616, Control_c, 0, 64, 40
2, 465624, Control_c, 0, 64, 0
2, 465632, Note_on_c, 0, 37, 0
2, 465632, Note_on_c, 0, 56, 0
2, 465632, Note_on_c, 0, 64, 0
2, 465668, Control_c, 0, 64, 127
2, 465680, Note_on_c, 0, 71, 62
2, 465780, Note_on_c, 0, 66, 51
2, 465884, Note_on_c, 0, 62, 65
2, 465888, Note_on_c, 0, 66, 0
2, 465896, Note_on_c, 0, 47, 0
2, 465920, Note_on_c, 0, 62, 0
2, 465928, Note_on_c, 0, 59, 0
2, 465980, Note_on_c, 0, 59, 58
2, 466020, Note_on_c, 0, 74, 0
2, 466052, Note_on_c, 0, 59, 0
2, 466088, Note_on_c, 0, 47, 58
2, 466092, Note_on_c, 0, 71, 0
2, 466092, Note_on_c, 0, 71, 0
2, 466104, Note_on_c, 0, 47, 0
2, 466120, Note_on_c, 0, 78, 0
2, 466200, Note_on_c, 0, 80, 81
2, 466200, Note_on_c, 0, 76, 63
2, 466200, Note_on_c, 0, 74, 61
2, 466200, Note_on_c, 0, 52, 68
2, 466200, Note_on_c, 0, 62, 59
2, 466200, Note_on_c, 0, 71, 52
2, 466200, Note_on_c, 0, 68, 56
2, 466200, Note_on_c, 0, 59, 56
2, 466200, Note_on_c, 0, 40, 56
2, 466220, Note_on_c, 0, 62, 0
2, 466220, Note_on_c, 0, 66, 0
2, 466220, Note_on_c, 0, 35, 0
2, 466228, Control_c, 0, 64, 40
2, 466236, Control_c, 0, 64, 0
2, 466264, Control_c, 0, 64, 24
2, 466272, Control_c, 0, 64, 104
2, 466280, Control_c, 0, 64, 127
2, 466296, Note_on_c, 0, 71, 63
2, 466404, Note_on_c, 0, 68, 58
2, 466468, Note_on_c, 0, 68, 0
2, 466492, Note_on_c, 0, 64, 55
2, 466528, Note_on_c, 0, 62, 0
2, 466604, Note_on_c, 0, 62, 22
2, 466608, Note_on_c, 0, 61, 21
2, 466624, Note_on_c, 0, 71, 0
2, 466624, Note_on_c, 0, 71, 0
2, 466624, Note_on_c, 0, 74, 0
2, 466632, Note_on_c, 0, 61, 0
2, 466652, Note_on_c, 0, 76, 0
2, 466680, Note_on_c, 0, 80, 0
2, 466708, Note_on_c, 0, 52, 57
2, 466748, Note_on_c, 0, 52, 0
2, 466752, Note_on_c, 0, 62, 0
2, 466816, Note_on_c, 0, 85, 85
2, 466824, Note_on_c, 0, 80, 69
2, 466840, Note_on_c, 0, 40, 0
2, 466840, Note_on_c, 0, 59, 0
2, 466840, Note_on_c, 0, 68, 0
2, 466864, Control_c, 0, 64, 56
2, 466868, Control_c, 0, 64, 0
2, 466900, Control_c, 0, 64, 72
2, 466908, Control_c, 0, 64, 127
2, 466920, Note_on_c, 0, 76, 53
2, 466988, Note_on_c, 0, 64, 0
2, 467004, Note_on_c, 0, 52, 0
2, 467008, Note_on_c, 0, 85, 0
2, 467028, Note_on_c, 0, 74, 42
2, 467080, Note_on_c, 0, 74, 0
2, 467100, Note_on_c, 0, 71, 49
2, 467156, Note_on_c, 0, 71, 0
2, 467164, Note_on_c, 0, 68, 51
2, 467232, Note_on_c, 0, 83, 82
2, 467240, Note_on_c, 0, 80, 0
2, 467260, Note_on_c, 0, 68, 0
2, 467272, Note_on_c, 0, 64, 43
2, 467280, Note_on_c, 0, 76, 0
2, 467288, Note_on_c, 0, 83, 0
2, 467316, Note_on_c, 0, 64, 0
2, 467404, Note_on_c, 0, 76, 75
2, 467404, Note_on_c, 0, 73, 61
2, 467404, Note_on_c, 0, 45, 58
2, 467404, Note_on_c, 0, 33, 63
2, 467404, Note_on_c, 0, 64, 52
2, 467404, Note_on_c, 0, 61, 56
2, 467404, Note_on_c, 0, 57, 56
2, 467444, Control_c, 0, 64, 72
2, 467452, Control_c, 0, 64, 0
2, 467496, Note_on_c, 0, 69, 58
2, 467500, Control_c, 0, 64, 56
2, 467504, Control_c, 0, 64, 127
2, 467592, Note_on_c, 0, 64, 62
2, 467644, Note_on_c, 0, 64, 0
2, 467700, Note_on_c, 0, 61, 62
2, 467752, Note_on_c, 0, 64, 0
2, 467760, Note_on_c, 0, 73, 0
2, 467776, Note_on_c, 0, 61, 0
2, 467792, Note_on_c, 0, 57, 62
2, 467804, Note_on_c, 0, 76, 0
2, 467824, Note_on_c, 0, 45, 0
2, 467900, Note_on_c, 0, 45, 61
2, 467936, Note_on_c, 0, 69, 0
2, 467936, Note_on_c, 0, 33, 0
2, 467996, Note_on_c, 0, 45, 0
2, 468000, Note_on_c, 0, 57, 0
2, 468000, Note_on_c, 0, 85, 85
2, 468008, Note_on_c, 0, 78, 70
2, 468032, Control_c, 0, 64, 104
2, 468040, Control_c, 0, 64, 56
2, 468044, Note_on_c, 0, 61, 0
2, 468044, Note_on_c, 0, 57, 0
2, 468048, Control_c, 0, 64, 0
2, 468068, Control_c, 0, 64, 88
2, 468080, Control_c, 0, 64, 127
2, 468092, Note_on_c, 0, 74, 61
2, 468188, Note_on_c, 0, 73, 60
2, 468240, Note_on_c, 0, 73, 0
2, 468272, Note_on_c, 0, 69, 60
2, 468320, Note_on_c, 0, 69, 0
2, 468332, Note_on_c, 0, 66, 59
2, 468392, Note_on_c, 0, 85, 0
2, 468396, Note_on_c, 0, 66, 0
2, 468400, Note_on_c, 0, 78, 0
2, 468408, Note_on_c, 0, 62, 57
2, 468436, Note_on_c, 0, 62, 0
2, 468468, Note_on_c, 0, 74, 0
2, 468480, Note_on_c, 0, 83, 79
2, 468488, Note_on_c, 0, 74, 54
2, 468488, Note_on_c, 0, 80, 60
2, 468500, Note_on_c, 0, 71, 40
2, 468504, Note_on_c, 0, 68, 31
2, 468504, Note_on_c, 0, 64, 51
2, 468512, Note_on_c, 0, 80, 0
2, 468524, Note_on_c, 0, 68, 0
2, 468524, Note_on_c, 0, 71, 0
2, 468524, Note_on_c, 0, 83, 0
2, 468532, Note_on_c, 0, 64, 0
2, 468548, Note_on_c, 0, 74, 0
2, 468604, Note_on_c, 0, 76, 78
2, 468604, Note_on_c, 0, 73, 61
2, 468604, Note_on_c, 0, 45, 53
2, 468604, Note_on_c, 0, 33, 57
2, 468604, Note_on_c, 0, 64, 54
2, 468604, Note_on_c, 0, 61, 51
2, 468604, Note_on_c, 0, 57, 53
2, 468636, Control_c, 0, 64, 40
2, 468644, Control_c, 0, 64, 0
2, 468684, Control_c, 0, 64, 56
2, 468688, Note_on_c, 0, 69, 62
2, 468692, Control_c, 0, 64, 127
2, 468796, Note_on_c, 0, 64, 62
2, 468872, Note_on_c, 0, 64, 0
2, 468892, Note_on_c, 0, 61, 61
2, 468924, Note_on_c, 0, 61, 0
2, 468944, Note_on_c, 0, 69, 0
2, 468948, Note_on_c, 0, 73, 0
2, 468976, Note_on_c, 0, 57, 61
2, 469008, Note_on_c, 0, 76, 0
2, 469008, Note_on_c, 0, 45, 0
2, 469064, Note_on_c, 0, 33, 0
2, 469068, Note_on_c, 0, 45, 63
2, 469104, Note_on_c, 0, 45, 0
2, 469164, Note_on_c, 0, 85, 82
2, 469164, Note_on_c, 0, 78, 70
2, 469176, Note_on_c, 0, 57, 0
2, 469176, Control_c, 0, 64, 88
2, 469184, Control_c, 0, 64, 24
2, 469192, Control_c, 0, 64, 0
2, 469216, Control_c, 0, 64, 72
2, 469224, Control_c, 0, 64, 127
2, 469244, Note_on_c, 0, 61, 0
2, 469244, Note_on_c, 0, 57, 0
2, 469244, Note_on_c, 0, 64, 0
2, 469252, Note_on_c, 0, 74, 62
2, 469336, Note_on_c, 0, 73, 61
2, 469388, Note_on_c, 0, 73, 0
2, 469404, Note_on_c, 0, 69, 60
2, 469440, Note_on_c, 0, 85, 0
2, 469460, Note_on_c, 0, 69, 0
2, 469476, Note_on_c, 0, 78, 0
2, 469500, Note_on_c, 0, 62, 60
2, 469532, Note_on_c, 0, 74, 0
2, 469548, Note_on_c, 0, 62, 0
2, 469572, Note_on_c, 0, 68, 49
2, 469572, Note_on_c, 0, 71, 48
2, 469580, Note_on_c, 0, 64, 52
2, 469588, Note_on_c, 0, 83, 75
2, 469592, Note_on_c, 0, 80, 65
2, 469596, Note_on_c, 0, 74, 55
2, 469604, Note_on_c, 0, 71, 0
2, 469604, Note_on_c, 0, 68, 0
2, 469628, Note_on_c, 0, 64, 0
2, 469632, Note_on_c, 0, 83, 0
2, 469636, Note_on_c, 0, 80, 0
2, 469640, Note_on_c, 0, 74, 0
2, 469724, Note_on_c, 0, 76, 80
2, 469724, Note_on_c, 0, 73, 62
2, 469724, Note_on_c, 0, 64, 56
2, 469724, Note_on_c, 0, 61, 56
2, 469724, Note_on_c, 0, 57, 56
2, 469744, Control_c, 0, 64, 56
2, 469752, Control_c, 0, 64, 0
2, 469792, Control_c, 0, 64, 56
2, 469800, Control_c, 0, 64, 127
2, 469808, Note_on_c, 0, 69, 60
2, 469908, Note_on_c, 0, 64, 60
2, 469992, Note_on_c, 0, 64, 0
2, 470004, Note_on_c, 0, 61, 59
2, 470040, Note_on_c, 0, 61, 0
2, 470092, Note_on_c, 0, 57, 59
2, 470168, Note_on_c, 0, 57, 0
2, 470192, Note_on_c, 0, 45, 60
2, 470208, Note_on_c, 0, 45, 0
2, 470236, Note_on_c, 0, 73, 0
2, 470248, Note_on_c, 0, 76, 0
2, 470276, Note_on_c, 0, 69, 0
2, 470292, Note_on_c, 0, 78, 82
2, 470292, Note_on_c, 0, 75, 61
2, 470292, Note_on_c, 0, 57, 55
2, 470292, Note_on_c, 0, 66, 58
2, 470292, Note_on_c, 0, 45, 62
2, 470292, Note_on_c, 0, 63, 56
2, 470292, Note_on_c, 0, 61, 56
2, 470300, Control_c, 0, 64, 56
2, 470308, Control_c, 0, 64, 0
2, 470332, Control_c, 0, 64, 56
2, 470340, Control_c, 0, 64, 127
2, 470364, Note_on_c, 0, 61, 0
2, 470364, Note_on_c, 0, 57, 0
2, 470364, Note_on_c, 0, 64, 0
2, 470400, Note_on_c, 0, 73, 60
2, 470412, Note_on_c, 0, 75, 0
2, 470416, Note_on_c, 0, 78, 0
2, 470440, Note_on_c, 0, 73, 0
2, 470508, Note_on_c, 0, 69, 60
2, 470588, Note_on_c, 0, 66, 59
2, 470592, Note_on_c, 0, 57, 0
2, 470652, Note_on_c, 0, 66, 0
2, 470660, Note_on_c, 0, 63, 59
2, 470708, Note_on_c, 0, 45, 0
2, 470708, Note_on_c, 0, 69, 0
2, 470756, Note_on_c, 0, 63, 0
2, 470772, Note_on_c, 0, 57, 58
2, 470820, Note_on_c, 0, 57, 0
2, 470824, Note_on_c, 0, 66, 0
2, 470912, Note_on_c, 0, 80, 85
2, 470912, Note_on_c, 0, 75, 61
2, 470912, Note_on_c, 0, 44, 65
2, 470912, Note_on_c, 0, 56, 50
2, 470912, Note_on_c, 0, 68, 55
2, 470912, Note_on_c, 0, 63, 56
2, 470912, Note_on_c, 0, 60, 56
2, 470932, Note_on_c, 0, 63, 0
2, 470932, Note_on_c, 0, 61, 0
2, 470936, Control_c, 0, 64, 104
2, 470944, Control_c, 0, 64, 40
2, 470952, Control_c, 0, 64, 0
2, 470956, Note_on_c, 0, 75, 0
2, 470960, Control_c, 0, 64, 40
2, 470968, Control_c, 0, 64, 104
2, 470976, Control_c, 0, 64, 127
2, 470988, Note_on_c, 0, 72, 60
2, 471004, Note_on_c, 0, 80, 0
2, 471164, Note_on_c, 0, 68, 60
2, 471240, Note_on_c, 0, 63, 58
2, 471264, Note_on_c, 0, 68, 0
2, 471304, Note_on_c, 0, 63, 0
2, 471308, Note_on_c, 0, 60, 58
2, 471384, Note_on_c, 0, 60, 0
2, 471388, Note_on_c, 0, 68, 0
2, 471388, Note_on_c, 0, 72, 0
2, 471388, Note_on_c, 0, 56, 58
2, 471424, Note_on_c, 0, 56, 0
2, 471472, Note_on_c, 0, 88, 87
2, 471472, Note_on_c, 0, 84, 71
2, 471536, Note_on_c, 0, 84, 0
2, 471552, Note_on_c, 0, 60, 0
2, 471552, Note_on_c, 0, 63, 0
2, 471556, Note_on_c, 0, 78, 63
2, 471584, Note_on_c, 0, 44, 0
2, 471592, Note_on_c, 0, 78, 0
2, 471600, Note_on_c, 0, 56, 0
2, 471644, Note_on_c, 0, 88, 0
2, 471656, Note_on_c, 0, 80, 61
2, 471708, Note_on_c, 0, 80, 0
2, 471740, Note_on_c, 0, 75, 60
2, 471796, Note_on_c, 0, 75, 0
2, 471808, Note_on_c, 0, 72, 59
2, 471872, Note_on_c, 0, 87, 85
2, 471892, Note_on_c, 0, 72, 0
2, 471908, Note_on_c, 0, 68, 63
2, 471924, Note_on_c, 0, 87, 0
2, 471932, Note_on_c, 0, 68, 0
2, 472016, Note_on_c, 0, 80, 82
2, 472016, Note_on_c, 0, 76, 61
2, 472016, Note_on_c, 0, 49, 53
2, 472016, Note_on_c, 0, 37, 64
2, 472016, Note_on_c, 0, 64, 56
2, 472016, Note_on_c, 0, 68, 60
2, 472016, Note_on_c, 0, 61, 53
2, 472060, Control_c, 0, 64, 56
2, 472068, Control_c, 0, 64, 0
2, 472096, Note_on_c, 0, 73, 62
2, 472120, Control_c, 0, 64, 72
2, 472128, Control_c, 0, 64, 127
2, 472196, Note_on_c, 0, 68, 61
2, 472280, Note_on_c, 0, 68, 0
2, 472288, Note_on_c, 0, 49, 0
2, 472292, Note_on_c, 0, 37, 0
2, 472296, Note_on_c, 0, 64, 61
2, 472332, Note_on_c, 0, 64, 0
2, 472404, Note_on_c, 0, 56, 60
2, 472420, Note_on_c, 0, 80, 0
2, 472440, Note_on_c, 0, 56, 0
2, 472448, Note_on_c, 0, 76, 0
2, 472500, Note_on_c, 0, 49, 60
2, 472536, Note_on_c, 0, 73, 0
2, 472548, Note_on_c, 0, 49, 0
2, 472600, Note_on_c, 0, 82, 84
2, 472600, Note_on_c, 0, 78, 66
2, 472600, Note_on_c, 0, 76, 64
2, 472600, Note_on_c, 0, 30, 62
2, 472600, Note_on_c, 0, 42, 55
2, 472600, Note_on_c, 0, 70, 60
2, 472600, Note_on_c, 0, 64, 53
2, 472600, Note_on_c, 0, 66, 62
2, 472640, Control_c, 0, 64, 88
2, 472652, Control_c, 0, 64, 40
2, 472656, Note_on_c, 0, 70, 0
2, 472656, Note_on_c, 0, 61, 0
2, 472656, Control_c, 0, 64, 0
2, 472664, Control_c, 0, 64, 40
2, 472672, Control_c, 0, 64, 88
2, 472680, Note_on_c, 0, 73, 64
2, 472680, Control_c, 0, 64, 127
2, 472780, Note_on_c, 0, 70, 63
2, 472832, Note_on_c, 0, 70, 0
2, 472876, Note_on_c, 0, 66, 62
2, 472944, Note_on_c, 0, 66, 0
2, 472944, Note_on_c, 0, 76, 0
2, 472952, Note_on_c, 0, 64, 62
2, 472980, Note_on_c, 0, 78, 0
2, 472992, Note_on_c, 0, 64, 0
2, 472992, Note_on_c, 0, 64, 0
2, 473020, Note_on_c, 0, 73, 0
2, 473060, Note_on_c, 0, 54, 61
2, 473064, Note_on_c, 0, 82, 0
2, 473100, Note_on_c, 0, 30, 0
2, 473156, Note_on_c, 0, 54, 0
2, 473168, Note_on_c, 0, 83, 81
2, 473168, Note_on_c, 0, 81, 59
2, 473168, Note_on_c, 0, 78, 60
2, 473168, Note_on_c, 0, 35, 68
2, 473168, Note_on_c, 0, 71, 59
2, 473168, Note_on_c, 0, 47, 53
2, 473168, Note_on_c, 0, 63, 53
2, 473200, Control_c, 0, 64, 56
2, 473204, Control_c, 0, 64, 0
2, 473240, Note_on_c, 0, 42, 0
2, 473240, Note_on_c, 0, 64, 0
2, 473240, Note_on_c, 0, 68, 0
2, 473244, Control_c, 0, 64, 88
2, 473252, Control_c, 0, 64, 127
2, 473260, Note_on_c, 0, 75, 63
2, 473364, Note_on_c, 0, 71, 62
2, 473424, Note_on_c, 0, 66, 0
2, 473444, Note_on_c, 0, 71, 0
2, 473448, Note_on_c, 0, 69, 61
2, 473452, Note_on_c, 0, 78, 0
2, 473484, Note_on_c, 0, 81, 0
2, 473528, Note_on_c, 0, 69, 0
2, 473536, Note_on_c, 0, 83, 0
2, 473536, Note_on_c, 0, 66, 60
2, 473572, Note_on_c, 0, 66, 0
2, 473632, Note_on_c, 0, 59, 61
2, 473684, Note_on_c, 0, 35, 0
2, 473748, Note_on_c, 0, 75, 0
2, 473752, Note_on_c, 0, 92, 88
2, 473752, Note_on_c, 0, 87, 74
2, 473752, Note_on_c, 0, 57, 68
2, 473808, Note_on_c, 0, 47, 0
2, 473808, Note_on_c, 0, 63, 0
2, 473848, Note_on_c, 0, 71, 0
2, 473848, Note_on_c, 0, 83, 64
2, 473944, Note_on_c, 0, 81, 63
2, 473948, Note_on_c, 0, 83, 0
2, 474028, Note_on_c, 0, 92, 0
2, 474028, Note_on_c, 0, 81, 0
2, 474032, Note_on_c, 0, 69, 59
2, 474036, Note_on_c, 0, 78, 62
2, 474096, Note_on_c, 0, 78, 0
2, 474104, Note_on_c, 0, 63, 61
2, 474192, Note_on_c, 0, 90, 81
2, 474192, Note_on_c, 0, 66, 56
2, 474192, Note_on_c, 0, 69, 58
2, 474192, Note_on_c, 0, 75, 57
2, 474196, Note_on_c, 0, 87, 0
2, 474224, Note_on_c, 0, 63, 0
2, 474228, Note_on_c, 0, 71, 62
2, 474260, Note_on_c, 0, 71, 0
2, 474268, Note_on_c, 0, 69, 0
2, 474268, Note_on_c, 0, 90, 0
2, 474268, Note_on_c, 0, 59, 0
2, 474340, Note_on_c, 0, 88, 81
2, 474340, Note_on_c, 0, 83, 66
2, 474340, Note_on_c, 0, 40, 67
2, 474340, Note_on_c, 0, 64, 59
2, 474340, Note_on_c, 0, 68, 64
2, 474340, Note_on_c, 0, 56, 53
2, 474352, Control_c, 0, 64, 88
2, 474360, Control_c, 0, 64, 24
2, 474364, Note_on_c, 0, 57, 0
2, 474368, Control_c, 0, 64, 0
2, 474376, Note_on_c, 0, 52, 56
2, 474392, Control_c, 0, 64, 24
2, 474400, Control_c, 0, 64, 88
2, 474404, Control_c, 0, 64, 127
2, 474432, Note_on_c, 0, 80, 61
2, 474448, Note_on_c, 0, 69, 0
2, 474448, Note_on_c, 0, 75, 0
2, 474448, Note_on_c, 0, 66, 0
2, 474544, Note_on_c, 0, 76, 63
2, 474572, Note_on_c, 0, 68, 0
2, 474612, Note_on_c, 0, 64, 0
2, 474632, Note_on_c, 0, 71, 62
2, 474684, Note_on_c, 0, 88, 0
2, 474696, Note_on_c, 0, 52, 0
2, 474704, Note_on_c, 0, 76, 0
2, 474708, Note_on_c, 0, 68, 62
2, 474724, Note_on_c, 0, 80, 0
2, 474748, Note_on_c, 0, 71, 0
2, 474772, Note_on_c, 0, 40, 0
2, 474784, Note_on_c, 0, 68, 0
2, 474788, Note_on_c, 0, 64, 61
2, 474800, Note_on_c, 0, 83, 0
2, 474824, Note_on_c, 0, 64, 0
2, 474908, Note_on_c, 0, 86, 82
2, 474908, Note_on_c, 0, 83, 64
2, 474908, Note_on_c, 0, 74, 60
2, 474908, Note_on_c, 0, 52, 57
2, 474908, Note_on_c, 0, 40, 60
2, 474916, Note_on_c, 0, 80, 61
2, 474948, Control_c, 0, 64, 72
2, 474956, Control_c, 0, 64, 0
2, 474980, Note_on_c, 0, 56, 0
2, 474988, Note_on_c, 0, 80, 0
2, 474996, Control_c, 0, 64, 127
2, 475004, Note_on_c, 0, 74, 60
2, 475012, Note_on_c, 0, 80, 60
2, 475060, Note_on_c, 0, 74, 0
2, 475088, Note_on_c, 0, 80, 0
2, 475108, Note_on_c, 0, 77, 61
2, 475172, Note_on_c, 0, 77, 0
2, 475192, Note_on_c, 0, 71, 60
2, 475252, Note_on_c, 0, 71, 0
2, 475264, Note_on_c, 0, 83, 0
2, 475272, Note_on_c, 0, 68, 60
2, 475336, Note_on_c, 0, 68, 0
2, 475348, Note_on_c, 0, 65, 59
2, 475388, Note_on_c, 0, 65, 0
2, 475452, Note_on_c, 0, 83, 59
2, 475452, Note_on_c, 0, 80, 58
2, 475452, Note_on_c, 0, 52, 65
2, 475452, Note_on_c, 0, 86, 66
2, 475532, Note_on_c, 0, 74, 59
2, 475544, Note_on_c, 0, 40, 0
2, 475548, Note_on_c, 0, 74, 0
2, 475548, Note_on_c, 0, 52, 0
2, 475620, Note_on_c, 0, 74, 0
2, 475624, Note_on_c, 0, 77, 60
2, 475688, Note_on_c, 0, 77, 0
2, 475716, Note_on_c, 0, 71, 59
2, 475784, Note_on_c, 0, 71, 0
2, 475796, Note_on_c, 0, 68, 59
2, 475864, Note_on_c, 0, 68, 0
2, 475872, Note_on_c, 0, 80, 0
2, 475880, Note_on_c, 0, 65, 58
2, 475888, Note_on_c, 0, 86, 0
2, 475888, Note_on_c, 0, 86, 0
2, 475916, Note_on_c, 0, 83, 0
2, 475920, Note_on_c, 0, 65, 0
2, 475988, Note_on_c, 0, 88, 88
2, 475988, Note_on_c, 0, 76, 64
2, 475996, Note_on_c, 0, 83, 63
2, 476004, Control_c, 0, 64, 72
2, 476008, Control_c, 0, 64, 0
2, 476032, Control_c, 0, 64, 24
2, 476036, Note_on_c, 0, 83, 0
2, 476040, Control_c, 0, 64, 88
2, 476048, Control_c, 0, 64, 127
2, 476064, Note_on_c, 0, 80, 68
2, 476072, Note_on_c, 0, 83, 40
2, 476164, Note_on_c, 0, 76, 62
2, 476228, Note_on_c, 0, 76, 0
2, 476240, Note_on_c, 0, 80, 0
2, 476248, Note_on_c, 0, 71, 60
2, 476276, Note_on_c, 0, 83, 0
2, 476320, Note_on_c, 0, 71, 0
2, 476324, Note_on_c, 0, 68, 59
2, 476364, Note_on_c, 0, 88, 0
2, 476412, Note_on_c, 0, 68, 0
2, 476412, Note_on_c, 0, 64, 58
2, 476444, Note_on_c, 0, 52, 0
2, 476448, Note_on_c, 0, 64, 0
2, 476516, Note_on_c, 0, 89, 82
2, 476516, Note_on_c, 0, 86, 70
2, 476516, Note_on_c, 0, 83, 65
2, 476516, Note_on_c, 0, 77, 66
2, 476552, Control_c, 0, 64, 72
2, 476560, Control_c, 0, 64, 24
2, 476564, Note_on_c, 0, 83, 0
2, 476568, Control_c, 0, 64, 0
2, 476584, Control_c, 0, 64, 40
2, 476592, Control_c, 0, 64, 104
2, 476600, Control_c, 0, 64, 127
2, 476604, Note_on_c, 0, 77, 53
2, 476628, Note_on_c, 0, 76, 0
2, 476704, Note_on_c, 0, 74, 54
2, 476772, Note_on_c, 0, 77, 0
2, 476776, Note_on_c, 0, 74, 0
2, 476792, Note_on_c, 0, 71, 56
2, 476856, Note_on_c, 0, 71, 0
2, 476856, Note_on_c, 0, 86, 0
2, 476868, Note_on_c, 0, 68, 39
2, 476872, Note_on_c, 0, 77, 0
2, 476876, Note_on_c, 0, 89, 0
2, 476960, Note_on_c, 0, 68, 0
2, 476968, Note_on_c, 0, 62, 54
2, 477008, Note_on_c, 0, 62, 0
2, 477076, Note_on_c, 0, 80, 72
2, 477076, Note_on_c, 0, 77, 53
2, 477088, Note_on_c, 0, 74, 50
2, 477096, Control_c, 0, 64, 56
2, 477104, Control_c, 0, 64, 0
2, 477108, Control_c, 0, 64, 24
2, 477116, Control_c, 0, 64, 72
2, 477124, Control_c, 0, 64, 127
2, 477148, Note_on_c, 0, 74, 0
2, 477168, Note_on_c, 0, 68, 62
2, 477220, Note_on_c, 0, 68, 0
2, 477232, Note_on_c, 0, 77, 0
2, 477268, Note_on_c, 0, 71, 58
2, 477324, Note_on_c, 0, 71, 0
2, 477348, Note_on_c, 0, 65, 51
2, 477412, Note_on_c, 0, 65, 0
2, 477444, Note_on_c, 0, 62, 40
2, 477508, Note_on_c, 0, 62, 0
2, 477524, Note_on_c, 0, 59, 47
2, 477552, Note_on_c, 0, 59, 0
2, 477600, Note_on_c, 0, 80, 0
2, 477640, Note_on_c, 0, 77, 55
2, 477640, Note_on_c, 0, 68, 70
2, 477644, Note_on_c, 0, 74, 56
2, 477644, Note_on_c, 0, 52, 58
2, 477644, Note_on_c, 0, 40, 65
2, 477724, Note_on_c, 0, 68, 59
2, 477780, Note_on_c, 0, 68, 0
2, 477824, Note_on_c, 0, 71, 53
2, 477836, Note_on_c, 0, 74, 0
2, 477892, Note_on_c, 0, 71, 0
2, 477908, Note_on_c, 0, 65, 46
2, 477984, Note_on_c, 0, 65, 0
2, 478012, Note_on_c, 0, 62, 41
2, 478084, Note_on_c, 0, 62, 0
2, 478084, Note_on_c, 0, 77, 0
2, 478096, Note_on_c, 0, 59, 51
2, 478116, Note_on_c, 0, 59, 0
2, 478188, Note_on_c, 0, 81, 82
2, 478188, Note_on_c, 0, 69, 72
2, 478192, Note_on_c, 0, 77, 58
2, 478240, Control_c, 0, 64, 40
2, 478248, Control_c, 0, 64, 0
2, 478280, Note_on_c, 0, 68, 0
2, 478280, Note_on_c, 0, 74, 62
2, 478280, Control_c, 0, 64, 56
2, 478288, Control_c, 0, 64, 127
2, 478380, Note_on_c, 0, 69, 54
2, 478428, Note_on_c, 0, 52, 0
2, 478452, Note_on_c, 0, 69, 0
2, 478452, Note_on_c, 0, 65, 48
2, 478532, Note_on_c, 0, 65, 0
2, 478536, Note_on_c, 0, 62, 44
2, 478632, Note_on_c, 0, 62, 0
2, 478636, Note_on_c, 0, 57, 58
2, 478656, Note_on_c, 0, 81, 0
2, 478672, Note_on_c, 0, 57, 0
2, 478696, Note_on_c, 0, 77, 0
2, 478700, Note_on_c, 0, 74, 0
2, 478748, Note_on_c, 0, 83, 79
2, 478748, Note_on_c, 0, 71, 75
2, 478752, Note_on_c, 0, 77, 59
2, 478752, Note_on_c, 0, 74, 61
2, 478784, Control_c, 0, 64, 88
2, 478792, Note_on_c, 0, 40, 0
2, 478792, Control_c, 0, 64, 0
2, 478828, Note_on_c, 0, 69, 0
2, 478828, Control_c, 0, 64, 56
2, 478836, Note_on_c, 0, 71, 57
2, 478836, Control_c, 0, 64, 127
2, 478952, Note_on_c, 0, 68, 54
2, 479004, Note_on_c, 0, 71, 0
2, 479020, Note_on_c, 0, 68, 0
2, 479020, Note_on_c, 0, 65, 55
2, 479036, Note_on_c, 0, 71, 0
2, 479040, Note_on_c, 0, 83, 0
2, 479052, Note_on_c, 0, 74, 0
2, 479068, Note_on_c, 0, 77, 0
2, 479092, Note_on_c, 0, 65, 0
2, 479112, Note_on_c, 0, 62, 43
2, 479188, Note_on_c, 0, 62, 0
2, 479192, Note_on_c, 0, 56, 52
2, 479220, Note_on_c, 0, 56, 0
2, 479288, Note_on_c, 0, 74, 68
2, 479292, Note_on_c, 0, 71, 55
2, 479296, Note_on_c, 0, 68, 44
2, 479312, Control_c, 0, 64, 56
2, 479320, Control_c, 0, 64, 0
2, 479344, Control_c, 0, 64, 56
2, 479352, Control_c, 0, 64, 127
2, 479380, Note_on_c, 0, 62, 60
2, 479452, Note_on_c, 0, 62, 0
2, 479476, Note_on_c, 0, 65, 49
2, 479556, Note_on_c, 0, 65, 0
2, 479564, Note_on_c, 0, 59, 52
2, 479628, Note_on_c, 0, 59, 0
2, 479656, Note_on_c, 0, 56, 50
2, 479664, Note_on_c, 0, 71, 0
2, 479672, Note_on_c, 0, 68, 0
2, 479736, Note_on_c, 0, 56, 0
2, 479744, Note_on_c, 0, 53, 44
2, 479772, Note_on_c, 0, 53, 0
2, 479856, Note_on_c, 0, 71, 47
2, 479856, Note_on_c, 0, 41, 61
2, 479856, Note_on_c, 0, 53, 55
2, 479856, Note_on_c, 0, 62, 58
2, 479856, Note_on_c, 0, 59, 54
2, 479856, Note_on_c, 0, 56, 55
2, 479860, Note_on_c, 0, 68, 49
2, 479936, Note_on_c, 0, 62, 43
2, 479992, Note_on_c, 0, 62, 0
2, 480016, Note_on_c, 0, 65, 50
2, 480104, Note_on_c, 0, 53, 0
2, 480108, Note_on_c, 0, 68, 0
2, 480112, Note_on_c, 0, 62, 0
2, 480112, Note_on_c, 0, 59, 0
2, 480112, Note_on_c, 0, 56, 0
2, 480112, Note_on_c, 0, 59, 52
2, 480180, Note_on_c, 0, 59, 0
2, 480188, Note_on_c, 0, 56, 47
2, 480200, Note_on_c, 0, 71, 0
2, 480232, Note_on_c, 0, 74, 0
2, 480264, Note_on_c, 0, 56, 0
2, 480268, Note_on_c, 0, 53, 57
2, 480288, Note_on_c, 0, 41, 0
2, 480372, Note_on_c, 0, 75, 73
2, 480372, Note_on_c, 0, 63, 63
2, 480380, Note_on_c, 0, 72, 54
2, 480392, Note_on_c, 0, 69, 44
2, 480404, Control_c, 0, 64, 56
2, 480412, Control_c, 0, 64, 0
2, 480424, Note_on_c, 0, 69, 0
2, 480460, Note_on_c, 0, 63, 50
2, 480468, Control_c, 0, 64, 88
2, 480476, Control_c, 0, 64, 127
2, 480528, Note_on_c, 0, 63, 0
2, 480556, Note_on_c, 0, 66, 55
2, 480624, Note_on_c, 0, 66, 0
2, 480632, Note_on_c, 0, 60, 56
2, 480636, Note_on_c, 0, 53, 0
2, 480676, Note_on_c, 0, 65, 0
2, 480704, Note_on_c, 0, 60, 0
2, 480724, Note_on_c, 0, 57, 53
2, 480796, Note_on_c, 0, 57, 0
2, 480804, Note_on_c, 0, 54, 51
2, 480824, Note_on_c, 0, 72, 0
2, 480872, Note_on_c, 0, 54, 0
2, 480908, Note_on_c, 0, 72, 51
2, 480908, Note_on_c, 0, 69, 52
2, 480908, Note_on_c, 0, 54, 56
2, 480908, Note_on_c, 0, 42, 59
2, 480908, Note_on_c, 0, 60, 60
2, 480908, Note_on_c, 0, 57, 56
2, 480980, Note_on_c, 0, 63, 45
2, 481012, Note_on_c, 0, 63, 0
2, 481024, Note_on_c, 0, 69, 0
2, 481044, Note_on_c, 0, 63, 0
2, 481072, Note_on_c, 0, 66, 40
2, 481128, Note_on_c, 0, 54, 0
2, 481148, Note_on_c, 0, 60, 55
2, 481228, Note_on_c, 0, 60, 0
2, 481228, Note_on_c, 0, 72, 0
2, 481240, Note_on_c, 0, 57, 54
2, 481316, Note_on_c, 0, 57, 0
2, 481328, Note_on_c, 0, 75, 0
2, 481328, Note_on_c, 0, 54, 49
2, 481348, Note_on_c, 0, 42, 0
2, 481416, Note_on_c, 0, 76, 77
2, 481416, Note_on_c, 0, 73, 67
2, 481416, Note_on_c, 0, 70, 52
2, 481416, Note_on_c, 0, 64, 60
2, 481444, Control_c, 0, 64, 104
2, 481448, Control_c, 0, 64, 0
2, 481496, Note_on_c, 0, 64, 51
2, 481520, Control_c, 0, 64, 127
2, 481548, Note_on_c, 0, 60, 0
2, 481548, Note_on_c, 0, 57, 0
2, 481572, Note_on_c, 0, 64, 0
2, 481592, Note_on_c, 0, 70, 0
2, 481600, Note_on_c, 0, 67, 45
2, 481644, Note_on_c, 0, 73, 0
2, 481676, Note_on_c, 0, 67, 0
2, 481684, Note_on_c, 0, 61, 53
2, 481704, Note_on_c, 0, 54, 0
2, 481732, Note_on_c, 0, 66, 0
2, 481752, Note_on_c, 0, 61, 0
2, 481764, Note_on_c, 0, 58, 49
2, 481836, Note_on_c, 0, 58, 0
2, 481836, Note_on_c, 0, 64, 50
2, 481840, Note_on_c, 0, 55, 55
2, 481944, Note_on_c, 0, 73, 55
2, 481944, Note_on_c, 0, 70, 47
2, 481944, Note_on_c, 0, 43, 59
2, 481944, Note_on_c, 0, 55, 57
2, 481944, Note_on_c, 0, 61, 52
2, 481944, Note_on_c, 0, 58, 58
2, 481952, Note_on_c, 0, 55, 0
2, 482016, Note_on_c, 0, 64, 54
2, 482056, Note_on_c, 0, 64, 0
2, 482056, Note_on_c, 0, 64, 0
2, 482096, Note_on_c, 0, 67, 43
2, 482104, Note_on_c, 0, 61, 0
2, 482164, Note_on_c, 0, 70, 0
2, 482176, Note_on_c, 0, 67, 0
2, 482180, Note_on_c, 0, 61, 53
2, 482224, Note_on_c, 0, 64, 68
2, 482240, Note_on_c, 0, 61, 0
2, 482248, Note_on_c, 0, 58, 52
2, 482324, Note_on_c, 0, 58, 0
2, 482324, Note_on_c, 0, 64, 0
2, 482336, Note_on_c, 0, 55, 49
2, 482356, Note_on_c, 0, 55, 0
2, 482388, Note_on_c, 0, 73, 0
2, 482388, Note_on_c, 0, 76, 0
2, 482396, Note_on_c, 0, 68, 63
2, 482444, Note_on_c, 0, 64, 0
2, 482456, Note_on_c, 0, 76, 63
2, 482456, Note_on_c, 0, 71, 60
2, 482456, Note_on_c, 0, 74, 58
2, 482456, Note_on_c, 0, 66, 74
2, 482456, Note_on_c, 0, 44, 58
2, 482456, Note_on_c, 0, 62, 57
2, 482456, Note_on_c, 0, 59, 57
2, 482484, Note_on_c, 0, 68, 0
2, 482488, Control_c, 0, 64, 40
2, 482496, Control_c, 0, 64, 0
2, 482540, Note_on_c, 0, 64, 57
2, 482544, Control_c, 0, 64, 72
2, 482552, Control_c, 0, 64, 127
2, 482584, Note_on_c, 0, 43, 0
2, 482584, Note_on_c, 0, 58, 0
2, 482592, Note_on_c, 0, 64, 0
2, 482648, Note_on_c, 0, 68, 51
2, 482652, Note_on_c, 0, 55, 0
2, 482692, Note_on_c, 0, 71, 0
2, 482732, Note_on_c, 0, 68, 0
2, 482764, Note_on_c, 0, 62, 45
2, 482832, Note_on_c, 0, 62, 0
2, 482856, Note_on_c, 0, 59, 51
2, 482864, Note_on_c, 0, 74, 0
2, 482908, Note_on_c, 0, 76, 0
2, 482936, Note_on_c, 0, 64, 69
2, 482984, Note_on_c, 0, 59, 0
2, 482992, Note_on_c, 0, 56, 45
2, 483044, Note_on_c, 0, 44, 0
2, 483092, Note_on_c, 0, 66, 0
2, 483096, Note_on_c, 0, 62, 0
2, 483096, Note_on_c, 0, 59, 0
2, 483144, Note_on_c, 0, 64, 0
2, 483180, Note_on_c, 0, 56, 0
2, 483224, Note_on_c, 0, 69, 48
2, 483224, Note_on_c, 0, 73, 76
2, 483224, Note_on_c, 0, 45, 55
2, 483224, Note_on_c, 0, 57, 55
2, 483224, Note_on_c, 0, 33, 60
2, 483352, Note_on_c, 0, 64, 53
2, 483476, Note_on_c, 0, 61, 44
2, 483476, Control_c, 0, 64, 127
2, 483480, Note_on_c, 0, 33, 0
2, 483480, Note_on_c, 0, 57, 0
2, 483480, Note_on_c, 0, 45, 0
2, 483528, Note_on_c, 0, 61, 0
2, 483592, Note_on_c, 0, 57, 47
2, 483704, Note_on_c, 0, 57, 0
2, 483716, Note_on_c, 0, 52, 51
2, 483800, Note_on_c, 0, 69, 0
2, 483824, Note_on_c, 0, 73, 0
2, 483832, Note_on_c, 0, 52, 0
2, 483832, Note_on_c, 0, 45, 56
2, 483852, Note_on_c, 0, 45, 0
2, 483924, Note_on_c, 0, 64, 0
2, 483964, Note_on_c, 0, 74, 74
2, 483964, Note_on_c, 0, 71, 78
2, 483964, Note_on_c, 0, 62, 57
2, 483964, Note_on_c, 0, 59, 57
2, 484000, Control_c, 0, 64, 104
2, 484012, Control_c, 0, 64, 40
2, 484020, Control_c, 0, 64, 0
2, 484080, Note_on_c, 0, 64, 64
2, 484088, Control_c, 0, 64, 88
2, 484096, Control_c, 0, 64, 127
2, 484196, Note_on_c, 0, 62, 51
2, 484220, Note_on_c, 0, 62, 0
2, 484220, Note_on_c, 0, 59, 0
2, 484304, Note_on_c, 0, 62, 0
2, 484312, Note_on_c, 0, 59, 59
2, 484340, Note_on_c, 0, 59, 0
2, 484420, Note_on_c, 0, 52, 56
2, 484516, Note_on_c, 0, 71, 0
2, 484528, Note_on_c, 0, 69, 84
2, 484536, Note_on_c, 0, 52, 0
2, 484536, Note_on_c, 0, 45, 56
2, 484556, Note_on_c, 0, 74, 0
2, 484576, Note_on_c, 0, 45, 0
2, 484580, Note_on_c, 0, 64, 0
2, 484596, Note_on_c, 0, 69, 0
2, 484668, Note_on_c, 0, 75, 73
2, 484668, Note_on_c, 0, 72, 59
2, 484668, Note_on_c, 0, 69, 80
2, 484668, Note_on_c, 0, 63, 60
2, 484668, Note_on_c, 0, 60, 60
2, 484668, Note_on_c, 0, 57, 60
2, 484740, Control_c, 0, 64, 72
2, 484748, Control_c, 0, 64, 24
2, 484752, Control_c, 0, 64, 0
2, 484784, Note_on_c, 0, 64, 68
2, 484816, Control_c, 0, 64, 88
2, 484824, Control_c, 0, 64, 127
2, 484892, Note_on_c, 0, 63, 51
2, 484924, Note_on_c, 0, 63, 0
2, 484924, Note_on_c, 0, 57, 0
2, 484924, Note_on_c, 0, 60, 0
2, 484992, Note_on_c, 0, 63, 0
2, 485000, Note_on_c, 0, 60, 57
2, 485064, Note_on_c, 0, 60, 0
2, 485112, Note_on_c, 0, 57, 64
2, 485216, Note_on_c, 0, 57, 0
2, 485220, Note_on_c, 0, 64, 0
2, 485228, Note_on_c, 0, 45, 62
2, 485260, Note_on_c, 0, 75, 0
2, 485264, Note_on_c, 0, 72, 0
2, 485280, Note_on_c, 0, 45, 0
2, 485352, Note_on_c, 0, 76, 76
2, 485352, Note_on_c, 0, 73, 65
2, 485352, Note_on_c, 0, 64, 60
2, 485352, Note_on_c, 0, 61, 60
2, 485380, Control_c, 0, 64, 56
2, 485388, Control_c, 0, 64, 0
2, 485452, Control_c, 0, 64, 88
2, 485460, Control_c, 0, 64, 127
2, 485468, Note_on_c, 0, 69, 66
2, 485524, Note_on_c, 0, 69, 78
2, 485580, Note_on_c, 0, 64, 59
2, 485608, Note_on_c, 0, 64, 0
2, 485608, Note_on_c, 0, 61, 0
2, 485680, Note_on_c, 0, 64, 0
2, 485680, Note_on_c, 0, 73, 0
2, 485688, Note_on_c, 0, 61, 61
2, 485700, Note_on_c, 0, 71, 88
2, 485732, Note_on_c, 0, 61, 0
2, 485748, Note_on_c, 0, 69, 0
2, 485748, Note_on_c, 0, 69, 0
2, 485748, Note_on_c, 0, 69, 0
2, 485780, Note_on_c, 0, 57, 63
2, 485856, Note_on_c, 0, 57, 0
2, 485856, Note_on_c, 0, 71, 0
2, 485864, Note_on_c, 0, 73, 89
2, 485880, Note_on_c, 0, 76, 0
2, 485900, Note_on_c, 0, 45, 54
2, 485932, Note_on_c, 0, 45, 0
2, 485972, Note_on_c, 0, 73, 0
2, 486024, Note_on_c, 0, 77, 71
2, 486024, Note_on_c, 0, 71, 46
2, 486024, Note_on_c, 0, 74, 89
2, 486024, Note_on_c, 0, 57, 52
2, 486024, Note_on_c, 0, 68, 52
2, 486024, Note_on_c, 0, 62, 60
2, 486024, Note_on_c, 0, 65, 60
2, 486024, Note_on_c, 0, 45, 60
2, 486064, Control_c, 0, 64, 104
2, 486072, Control_c, 0, 64, 40
2, 486080, Control_c, 0, 64, 0
2, 486096, Note_on_c, 0, 71, 0
2, 486132, Note_on_c, 0, 68, 59
2, 486156, Control_c, 0, 64, 88
2, 486164, Control_c, 0, 64, 127
2, 486252, Note_on_c, 0, 65, 60
2, 486280, Note_on_c, 0, 65, 0
2, 486280, Note_on_c, 0, 45, 0
2, 486280, Note_on_c, 0, 62, 0
2, 486348, Note_on_c, 0, 65, 0
2, 486360, Note_on_c, 0, 62, 57
2, 486360, Note_on_c, 0, 62, 81
2, 486364, Note_on_c, 0, 68, 0
2, 486364, Note_on_c, 0, 68, 0
2, 486368, Note_on_c, 0, 74, 0
2, 486432, Note_on_c, 0, 62, 0
2, 486456, Note_on_c, 0, 77, 0
2, 486456, Note_on_c, 0, 59, 56
2, 486560, Note_on_c, 0, 59, 0
2, 486564, Note_on_c, 0, 57, 68
2, 486596, Note_on_c, 0, 57, 0
2, 486624, Note_on_c, 0, 62, 0
2, 486700, Note_on_c, 0, 89, 87
2, 486700, Note_on_c, 0, 77, 90
2, 486700, Note_on_c, 0, 56, 55
2, 486700, Note_on_c, 0, 59, 58
2, 486700, Note_on_c, 0, 45, 60
2, 486700, Note_on_c, 0, 50, 57
2, 486712, Note_on_c, 0, 86, 73
2, 486720, Note_on_c, 0, 83, 51
2, 486736, Control_c, 0, 64, 88
2, 486744, Note_on_c, 0, 83, 0
2, 486744, Control_c, 0, 64, 40
2, 486752, Control_c, 0, 64, 0
2, 486768, Control_c, 0, 64, 56
2, 486776, Control_c, 0, 64, 127
2, 486808, Note_on_c, 0, 80, 60
2, 486920, Note_on_c, 0, 77, 58
2, 486956, Note_on_c, 0, 50, 0
2, 486956, Note_on_c, 0, 56, 0
2, 486956, Note_on_c, 0, 45, 0
2, 486956, Note_on_c, 0, 59, 0
2, 487000, Note_on_c, 0, 77, 0
2, 487020, Note_on_c, 0, 74, 61
2, 487096, Note_on_c, 0, 74, 0
2, 487128, Note_on_c, 0, 71, 61
2, 487144, Note_on_c, 0, 57, 0
2, 487204, Note_on_c, 0, 71, 0
2, 487228, Note_on_c, 0, 68, 59
2, 487332, Note_on_c, 0, 68, 0
2, 487332, Note_on_c, 0, 65, 59
2, 487408, Note_on_c, 0, 65, 0
2, 487440, Note_on_c, 0, 62, 60
2, 487512, Note_on_c, 0, 62, 0
2, 487544, Note_on_c, 0, 59, 66
2, 487572, Control_c, 0, 64, 88
2, 487596, Control_c, 0, 64, 127
2, 487644, Note_on_c, 0, 59, 0
2, 487652, Note_on_c, 0, 56, 62
2, 487724, Note_on_c, 0, 77, 0
2, 487760, Note_on_c, 0, 56, 0
2, 487760, Note_on_c, 0, 53, 60
2, 487836, Note_on_c, 0, 53, 0
2, 487888, Note_on_c, 0, 50, 59
2, 487960, Note_on_c, 0, 50, 0
2, 487996, Note_on_c, 0, 47, 58
2, 488084, Note_on_c, 0, 47, 0
2, 488100, Note_on_c, 0, 44, 58
2, 488212, Note_on_c, 0, 41, 57
2, 488232, Note_on_c, 0, 44, 0
2, 488292, Note_on_c, 0, 41, 0
2, 488320, Note_on_c, 0, 40, 57
2, 488400, Note_on_c, 0, 40, 0
2, 488408, Note_on_c, 0, 80, 0
2, 488432, Note_on_c, 0, 38, 58
2, 488444, Note_on_c, 0, 86, 0
2, 488452, Note_on_c, 0, 89, 0
2, 488516, Note_on_c, 0, 38, 0
2, 488544, Note_on_c, 0, 35, 60
2, 488620, Note_on_c, 0, 35, 0
2, 488680, Control_c, 0, 64, 104
2, 488684, Note_on_c, 0, 73, 81
2, 488684, Note_on_c, 0, 33, 60
2, 488684, Note_on_c, 0, 69, 54
2, 488684, Note_on_c, 0, 57, 49
2, 488688, Control_c, 0, 64, 0
2, 488744, Note_on_c, 0, 33, 0
2, 488744, Control_c, 0, 64, 104
2, 488752, Control_c, 0, 64, 127
2, 488796, Note_on_c, 0, 64, 57
2, 488908, Note_on_c, 0, 61, 57
2, 488908, Note_on_c, 0, 57, 59
2, 488948, Note_on_c, 0, 61, 0
2, 489012, Note_on_c, 0, 57, 58
2, 489096, Note_on_c, 0, 57, 0
2, 489104, Note_on_c, 0, 52, 55
2, 489116, Note_on_c, 0, 69, 0
2, 489128, Note_on_c, 0, 64, 0
2, 489164, Note_on_c, 0, 57, 0
2, 489180, Note_on_c, 0, 73, 0
2, 489200, Note_on_c, 0, 52, 0
2, 489216, Note_on_c, 0, 45, 52
2, 489256, Note_on_c, 0, 45, 0
2, 489332, Note_on_c, 0, 74, 71
2, 489332, Note_on_c, 0, 71, 75
2, 489332, Note_on_c, 0, 62, 64
2, 489332, Note_on_c, 0, 59, 57
2, 489332, Note_on_c, 0, 57, 60
2, 489332, Note_on_c, 0, 45, 61
2, 489368, Control_c, 0, 64, 40
2, 489376, Control_c, 0, 64, 0
2, 489424, Control_c, 0, 64, 56
2, 489432, Note_on_c, 0, 64, 59
2, 489432, Control_c, 0, 64, 127
2, 489532, Note_on_c, 0, 62, 60
2, 489588, Note_on_c, 0, 45, 0
2, 489588, Note_on_c, 0, 57, 0
2, 489588, Note_on_c, 0, 57, 0
2, 489588, Note_on_c, 0, 59, 0
2, 489620, Note_on_c, 0, 62, 0
2, 489632, Note_on_c, 0, 59, 63
2, 489632, Note_on_c, 0, 62, 58
2, 489632, Note_on_c, 0, 57, 62
2, 489724, Note_on_c, 0, 59, 0
2, 489744, Note_on_c, 0, 52, 58
2, 489792, Note_on_c, 0, 62, 0
2, 489812, Note_on_c, 0, 71, 0
2, 489812, Note_on_c, 0, 69, 88
2, 489832, Note_on_c, 0, 52, 0
2, 489844, Note_on_c, 0, 45, 60
2, 489860, Note_on_c, 0, 74, 0
2, 489880, Note_on_c, 0, 45, 0
2, 489888, Note_on_c, 0, 57, 0
2, 489888, Note_on_c, 0, 62, 0
2, 489892, Note_on_c, 0, 64, 0
2, 489912, Note_on_c, 0, 69, 0
2, 489964, Note_on_c, 0, 75, 77
2, 489964, Note_on_c, 0, 72, 59
2, 489964, Note_on_c, 0, 69, 81
2, 489964, Note_on_c, 0, 63, 57
2, 489964, Note_on_c, 0, 60, 57
2, 489964, Note_on_c, 0, 57, 61
2, 490012, Control_c, 0, 64, 104
2, 490020, Control_c, 0, 64, 40
2, 490028, Control_c, 0, 64, 0
2, 490056, Note_on_c, 0, 64, 60
2, 490084, Control_c, 0, 64, 104
2, 490088, Control_c, 0, 64, 127
2, 490156, Note_on_c, 0, 63, 60
2, 490220, Note_on_c, 0, 63, 0
2, 490220, Note_on_c, 0, 57, 0
2, 490220, Note_on_c, 0, 60, 0
2, 490228, Note_on_c, 0, 63, 0
2, 490256, Note_on_c, 0, 60, 60
2, 490256, Note_on_c, 0, 63, 58
2, 490256, Note_on_c, 0, 57, 58
2, 490316, Note_on_c, 0, 60, 0
2, 490352, Note_on_c, 0, 57, 62
2, 490416, Note_on_c, 0, 57, 0
2, 490436, Note_on_c, 0, 64, 0
2, 490456, Note_on_c, 0, 45, 60
2, 490484, Note_on_c, 0, 75, 0
2, 490484, Note_on_c, 0, 72, 0
2, 490492, Note_on_c, 0, 45, 0
2, 490512, Note_on_c, 0, 63, 0
2, 490512, Note_on_c, 0, 57, 0
2, 490556, Note_on_c, 0, 76, 76
2, 490556, Note_on_c, 0, 73, 67
2, 490556, Note_on_c, 0, 33, 60
2, 490556, Note_on_c, 0, 45, 57
2, 490592, Control_c, 0, 64, 40
2, 490600, Control_c, 0, 64, 0
2, 490648, Control_c, 0, 64, 104
2, 490656, Control_c, 0, 64, 127
2, 490668, Note_on_c, 0, 69, 65
2, 490720, Note_on_c, 0, 69, 86
2, 490776, Note_on_c, 0, 64, 64
2, 490812, Note_on_c, 0, 45, 0
2, 490812, Note_on_c, 0, 33, 0
2, 490824, Note_on_c, 0, 69, 0
2, 490824, Note_on_c, 0, 61, 64
2, 490856, Note_on_c, 0, 61, 0
2, 490856, Note_on_c, 0, 69, 0
2, 490864, Note_on_c, 0, 64, 0
2, 490872, Note_on_c, 0, 71, 85
2, 490972, Note_on_c, 0, 57, 68
2, 490988, Note_on_c, 0, 71, 0
2, 490988, Note_on_c, 0, 69, 0
2, 491000, Note_on_c, 0, 73, 0
2, 491016, Note_on_c, 0, 57, 0
2, 491036, Note_on_c, 0, 76, 0
2, 491036, Note_on_c, 0, 73, 85
2, 491056, Note_on_c, 0, 54, 74
2, 491080, Note_on_c, 0, 45, 68
2, 491112, Note_on_c, 0, 54, 0
2, 491116, Note_on_c, 0, 45, 0
2, 491156, Note_on_c, 0, 73, 0
2, 491204, Note_on_c, 0, 79, 86
2, 491204, Note_on_c, 0, 73, 57
2, 491204, Note_on_c, 0, 76, 81
2, 491204, Note_on_c, 0, 70, 56
2, 491228, Control_c, 0, 64, 88
2, 491236, Control_c, 0, 64, 0
2, 491284, Note_on_c, 0, 73, 0
2, 491292, Control_c, 0, 64, 88
2, 491296, Note_on_c, 0, 70, 62
2, 491300, Control_c, 0, 64, 127
2, 491400, Note_on_c, 0, 67, 61
2, 491472, Note_on_c, 0, 67, 0
2, 491504, Note_on_c, 0, 64, 71
2, 491540, Note_on_c, 0, 70, 0
2, 491540, Note_on_c, 0, 70, 0
2, 491540, Note_on_c, 0, 76, 0
2, 491592, Note_on_c, 0, 61, 62
2, 491596, Note_on_c, 0, 64, 0
2, 491604, Note_on_c, 0, 79, 0
2, 491692, Note_on_c, 0, 54, 66
2, 491716, Note_on_c, 0, 61, 0
2, 491748, Note_on_c, 0, 54, 0
2, 491820, Note_on_c, 0, 91, 91
2, 491820, Note_on_c, 0, 79, 80
2, 491820, Note_on_c, 0, 58, 60
2, 491820, Note_on_c, 0, 52, 57
2, 491820, Note_on_c, 0, 49, 57
2, 491820, Note_on_c, 0, 42, 60
2, 491828, Note_on_c, 0, 88, 70
2, 491832, Note_on_c, 0, 85, 68
2, 491844, Note_on_c, 0, 85, 0
2, 491920, Note_on_c, 0, 82, 65
2, 492024, Note_on_c, 0, 79, 64
2, 492092, Note_on_c, 0, 79, 0
2, 492120, Note_on_c, 0, 76, 63
2, 492184, Note_on_c, 0, 76, 0
2, 492224, Note_on_c, 0, 73, 63
2, 492288, Note_on_c, 0, 73, 0
2, 492320, Note_on_c, 0, 70, 63
2, 492424, Note_on_c, 0, 70, 0
2, 492424, Note_on_c, 0, 67, 62
2, 492460, Note_on_c, 0, 42, 0
2, 492460, Note_on_c, 0, 52, 0
2, 492460, Note_on_c, 0, 58, 0
2, 492460, Note_on_c, 0, 49, 0
2, 492460, Note_on_c, 0, 79, 0
2, 492496, Note_on_c, 0, 67, 0
2, 492528, Note_on_c, 0, 64, 61
2, 492596, Note_on_c, 0, 64, 0
2, 492632, Note_on_c, 0, 61, 61
2, 492708, Note_on_c, 0, 61, 0
2, 492728, Note_on_c, 0, 58, 60
2, 492832, Note_on_c, 0, 58, 0
2, 492836, Note_on_c, 0, 55, 60
2, 492900, Note_on_c, 0, 55, 0
2, 492940, Note_on_c, 0, 52, 60
2, 493004, Note_on_c, 0, 52, 0
2, 493044, Note_on_c, 0, 49, 59
2, 493120, Note_on_c, 0, 49, 0
2, 493144, Note_on_c, 0, 46, 59
2, 493252, Note_on_c, 0, 43, 58
2, 493256, Note_on_c, 0, 46, 0
2, 493304, Note_on_c, 0, 43, 0
2, 493352, Note_on_c, 0, 30, 58
2, 493352, Note_on_c, 0, 71, 65
2, 493420, Note_on_c, 0, 30, 0
2, 493436, Note_on_c, 0, 82, 0
2, 493448, Note_on_c, 0, 88, 0
2, 493448, Note_on_c, 0, 28, 57
2, 493456, Note_on_c, 0, 91, 0
2, 493480, Note_on_c, 0, 71, 0
2, 493504, Note_on_c, 0, 73, 67
2, 493528, Note_on_c, 0, 28, 0
2, 493560, Note_on_c, 0, 25, 58
2, 493636, Note_on_c, 0, 73, 0
2, 493636, Note_on_c, 0, 76, 64
2, 493652, Note_on_c, 0, 25, 0
2, 493676, Note_on_c, 0, 66, 64
2, 493676, Note_on_c, 0, 62, 53
2, 493676, Note_on_c, 0, 74, 70
2, 493676, Note_on_c, 0, 59, 54
2, 493676, Note_on_c, 0, 54, 61
2, 493696, Note_on_c, 0, 76, 0
2, 493744, Control_c, 0, 64, 56
2, 493756, Control_c, 0, 64, 104
2, 493764, Control_c, 0, 64, 127
2, 493768, Note_on_c, 0, 74, 0
2, 493776, Note_on_c, 0, 59, 62
2, 493812, Note_on_c, 0, 73, 67
2, 493848, Note_on_c, 0, 54, 46
2, 493932, Note_on_c, 0, 54, 0
2, 493936, Note_on_c, 0, 50, 45
2, 493936, Note_on_c, 0, 74, 69
2, 493944, Note_on_c, 0, 59, 0
2, 493944, Note_on_c, 0, 73, 0
2, 493980, Note_on_c, 0, 50, 0
2, 493996, Note_on_c, 0, 47, 53
2, 494048, Note_on_c, 0, 47, 0
2, 494056, Note_on_c, 0, 78, 72
2, 494060, Note_on_c, 0, 54, 0
2, 494060, Note_on_c, 0, 59, 0
2, 494064, Note_on_c, 0, 66, 0
2, 494064, Note_on_c, 0, 42, 56
2, 494068, Note_on_c, 0, 74, 0
2, 494080, Note_on_c, 0, 62, 0
2, 494116, Note_on_c, 0, 42, 0
2, 494164, Note_on_c, 0, 66, 72
2, 494164, Note_on_c, 0, 61, 63
2, 494184, Note_on_c, 0, 78, 73
2, 494188, Note_on_c, 0, 78, 0
2, 494200, Control_c, 0, 64, 56
2, 494208, Control_c, 0, 64, 0
2, 494228, Note_on_c, 0, 61, 0
2, 494256, Note_on_c, 0, 58, 50
2, 494280, Control_c, 0, 64, 72
2, 494288, Control_c, 0, 64, 127
2, 494316, Note_on_c, 0, 78, 0
2, 494344, Note_on_c, 0, 54, 52
2, 494380, Note_on_c, 0, 58, 0
2, 494416, Note_on_c, 0, 54, 0
2, 494432, Note_on_c, 0, 52, 45
2, 494432, Note_on_c, 0, 78, 74
2, 494436, Note_on_c, 0, 66, 0
2, 494460, Note_on_c, 0, 52, 0
2, 494480, Note_on_c, 0, 49, 55
2, 494528, Note_on_c, 0, 49, 0
2, 494564, Note_on_c, 0, 78, 0
2, 494564, Note_on_c, 0, 42, 45
2, 494604, Note_on_c, 0, 42, 0
2, 494680, Note_on_c, 0, 78, 80
2, 494680, Note_on_c, 0, 62, 50
2, 494680, Note_on_c, 0, 66, 61
2, 494680, Note_on_c, 0, 42, 60
2, 494680, Note_on_c, 0, 50, 51
2, 494724, Control_c, 0, 64, 104
2, 494732, Control_c, 0, 64, 40
2, 494744, Control_c, 0, 64, 0
2, 494768, Note_on_c, 0, 59, 53
2, 494792, Control_c, 0, 64, 24
2, 494804, Control_c, 0, 64, 88
2, 494812, Control_c, 0, 64, 127
2, 494840, Note_on_c, 0, 54, 39
2, 494908, Note_on_c, 0, 54, 0
2, 494928, Note_on_c, 0, 50, 41
2, 494964, Note_on_c, 0, 50, 0
2, 494988, Note_on_c, 0, 62, 0
2, 494988, Note_on_c, 0, 47, 54
2, 495032, Note_on_c, 0, 78, 0
2, 495048, Note_on_c, 0, 59, 0
2, 495048, Note_on_c, 0, 47, 0
2, 495052, Note_on_c, 0, 74, 73
2, 495068, Note_on_c, 0, 42, 54
2, 495116, Note_on_c, 0, 42, 0
2, 495116, Note_on_c, 0, 42, 0
2, 495152, Note_on_c, 0, 50, 0
2, 495176, Note_on_c, 0, 61, 51
2, 495176, Note_on_c, 0, 66, 68
2, 495176, Note_on_c, 0, 73, 68
2, 495176, Note_on_c, 0, 58, 49
2, 495176, Note_on_c, 0, 54, 51
2, 495180, Control_c, 0, 64, 56
2, 495192, Control_c, 0, 64, 0
2, 495204, Note_on_c, 0, 74, 0
2, 495240, Control_c, 0, 64, 40
2, 495244, Note_on_c, 0, 58, 45
2, 495252, Control_c, 0, 64, 127
2, 495272, Note_on_c, 0, 58, 0
2, 495308, Note_on_c, 0, 66, 0
2, 495316, Note_on_c, 0, 54, 36
2, 495328, Note_on_c, 0, 73, 0
2, 495396, Note_on_c, 0, 54, 0
2, 495404, Note_on_c, 0, 66, 0
2, 495404, Note_on_c, 0, 52, 45
2, 495412, Note_on_c, 0, 71, 83
2, 495452, Note_on_c, 0, 52, 0
2, 495476, Note_on_c, 0, 49, 47
2, 495528, Note_on_c, 0, 49, 0
2, 495536, Note_on_c, 0, 71, 0
2, 495540, Note_on_c, 0, 73, 85
2, 495632, Note_on_c, 0, 61, 0
2, 495648, Note_on_c, 0, 54, 0
2, 495648, Note_on_c, 0, 58, 0
2, 495652, Note_on_c, 0, 73, 0
2, 495656, Note_on_c, 0, 76, 71
2, 495692, Note_on_c, 0, 74, 87
2, 495692, Note_on_c, 0, 66, 51
2, 495692, Note_on_c, 0, 62, 51
2, 495692, Note_on_c, 0, 59, 55
2, 495704, Control_c, 0, 64, 88
2, 495712, Note_on_c, 0, 76, 0
2, 495716, Control_c, 0, 64, 0
2, 495776, Control_c, 0, 64, 72
2, 495788, Control_c, 0, 64, 127
2, 495816, Note_on_c, 0, 66, 60
2, 495824, Note_on_c, 0, 73, 84
2, 495828, Note_on_c, 0, 74, 0
2, 495900, Note_on_c, 0, 62, 50
2, 495908, Note_on_c, 0, 66, 0
2, 495940, Note_on_c, 0, 73, 0
2, 495944, Note_on_c, 0, 74, 85
2, 495952, Note_on_c, 0, 62, 0
2, 495964, Note_on_c, 0, 59, 56
2, 496040, Note_on_c, 0, 59, 0
2, 496048, Note_on_c, 0, 54, 53
2, 496072, Note_on_c, 0, 54, 0
2, 496076, Note_on_c, 0, 78, 86
2, 496080, Note_on_c, 0, 74, 0
2, 496148, Note_on_c, 0, 78, 0
2, 496164, Note_on_c, 0, 62, 0
2, 496164, Note_on_c, 0, 59, 0
2, 496164, Note_on_c, 0, 66, 0
2, 496216, Note_on_c, 0, 78, 87
2, 496260, Control_c, 0, 64, 72
2, 496272, Control_c, 0, 64, 0
2, 496320, Control_c, 0, 64, 88
2, 496332, Control_c, 0, 64, 127
2, 496360, Note_on_c, 0, 66, 58
2, 496364, Note_on_c, 0, 78, 0
2, 496476, Note_on_c, 0, 78, 88
2, 496476, Note_on_c, 0, 61, 56
2, 496484, Note_on_c, 0, 66, 0
2, 496544, Note_on_c, 0, 61, 0
2, 496548, Note_on_c, 0, 58, 55
2, 496584, Note_on_c, 0, 78, 0
2, 496620, Note_on_c, 0, 58, 0
2, 496624, Note_on_c, 0, 54, 53
2, 496672, Note_on_c, 0, 54, 0
2, 496752, Note_on_c, 0, 78, 90
2, 496752, Note_on_c, 0, 66, 65
2, 496752, Note_on_c, 0, 62, 56
2, 496752, Note_on_c, 0, 59, 60
2, 496772, Control_c, 0, 64, 40
2, 496784, Control_c, 0, 64, 0
2, 496832, Control_c, 0, 64, 88
2, 496844, Control_c, 0, 64, 127
2, 496876, Note_on_c, 0, 66, 62
2, 496956, Note_on_c, 0, 66, 0
2, 496956, Note_on_c, 0, 62, 39
2, 497000, Note_on_c, 0, 62, 0
2, 497016, Note_on_c, 0, 59, 54
2, 497084, Note_on_c, 0, 78, 0
2, 497092, Note_on_c, 0, 59, 0
2, 497104, Note_on_c, 0, 74, 85
2, 497128, Note_on_c, 0, 54, 49
2, 497176, Note_on_c, 0, 54, 0
2, 497224, Note_on_c, 0, 59, 0
2, 497224, Note_on_c, 0, 66, 0
2, 497224, Note_on_c, 0, 62, 0
2, 497248, Note_on_c, 0, 73, 82
2, 497248, Note_on_c, 0, 61, 50
2, 497248, Note_on_c, 0, 58, 48
2, 497248, Note_on_c, 0, 54, 51
2, 497296, Control_c, 0, 64, 56
2, 497308, Note_on_c, 0, 74, 0
2, 497308, Control_c, 0, 64, 0
2, 497368, Control_c, 0, 64, 72
2, 497376, Control_c, 0, 64, 127
2, 497392, Note_on_c, 0, 66, 54
2, 497480, Note_on_c, 0, 66, 0
2, 497484, Note_on_c, 0, 61, 52
2, 497500, Note_on_c, 0, 73, 0
2, 497540, Note_on_c, 0, 61, 0
2, 497552, Note_on_c, 0, 58, 40
2, 497632, Note_on_c, 0, 58, 0
2, 497648, Note_on_c, 0, 54, 43
2, 497708, Note_on_c, 0, 54, 0
2, 497720, Note_on_c, 0, 58, 0
2, 497720, Note_on_c, 0, 61, 0
2, 497720, Note_on_c, 0, 54, 0
2, 497816, Note_on_c, 0, 60, 46
2, 497816, Note_on_c, 0, 64, 58
2, 497816, Note_on_c, 0, 57, 55
2, 497816, Note_on_c, 0, 52, 58
2, 497820, Control_c, 0, 64, 56
2, 497828, Control_c, 0, 64, 0
2, 497888, Control_c, 0, 64, 88
2, 497900, Control_c, 0, 64, 127
2, 497916, Note_on_c, 0, 57, 53
2, 497960, Note_on_c, 0, 71, 65
2, 498000, Note_on_c, 0, 57, 0
2, 498000, Note_on_c, 0, 57, 0
2, 498000, Note_on_c, 0, 52, 54
2, 498072, Note_on_c, 0, 52, 0
2, 498084, Note_on_c, 0, 48, 44
2, 498084, Note_on_c, 0, 72, 67
2, 498088, Note_on_c, 0, 52, 0
2, 498092, Note_on_c, 0, 71, 0
2, 498132, Note_on_c, 0, 48, 0
2, 498152, Note_on_c, 0, 45, 56
2, 498172, Note_on_c, 0, 64, 0
2, 498188, Note_on_c, 0, 76, 72
2, 498192, Note_on_c, 0, 60, 0
2, 498208, Note_on_c, 0, 45, 0
2, 498216, Note_on_c, 0, 72, 0
2, 498224, Note_on_c, 0, 40, 50
2, 498260, Note_on_c, 0, 40, 0
2, 498320, Note_on_c, 0, 76, 0
2, 498324, Note_on_c, 0, 64, 63
2, 498324, Note_on_c, 0, 76, 72
2, 498328, Note_on_c, 0, 59, 55
2, 498332, Control_c, 0, 64, 88
2, 498344, Control_c, 0, 64, 0
2, 498404, Control_c, 0, 64, 72
2, 498416, Note_on_c, 0, 56, 55
2, 498416, Control_c, 0, 64, 127
2, 498456, Note_on_c, 0, 76, 0
2, 498488, Note_on_c, 0, 52, 59
2, 498576, Note_on_c, 0, 52, 0
2, 498580, Note_on_c, 0, 50, 56
2, 498580, Note_on_c, 0, 76, 73
2, 498648, Note_on_c, 0, 59, 0
2, 498652, Note_on_c, 0, 50, 0
2, 498656, Note_on_c, 0, 64, 0
2, 498664, Note_on_c, 0, 47, 45
2, 498668, Note_on_c, 0, 56, 0
2, 498712, Note_on_c, 0, 76, 0
2, 498720, Note_on_c, 0, 47, 0
2, 498736, Note_on_c, 0, 40, 54
2, 498772, Note_on_c, 0, 40, 0
2, 498832, Note_on_c, 0, 60, 50
2, 498832, Note_on_c, 0, 64, 63
2, 498832, Note_on_c, 0, 76, 78
2, 498868, Control_c, 0, 64, 104
2, 498876, Control_c, 0, 64, 24
2, 498888, Control_c, 0, 64, 0
2, 498924, Note_on_c, 0, 57, 51
2, 498940, Control_c, 0, 64, 40
2, 498948, Control_c, 0, 64, 104
2, 498960, Control_c, 0, 64, 127
2, 498972, Note_on_c, 0, 52, 47
2, 499044, Note_on_c, 0, 52, 0
2, 499056, Note_on_c, 0, 48, 40
2, 499108, Note_on_c, 0, 48, 0
2, 499112, Note_on_c, 0, 64, 0
2, 499124, Note_on_c, 0, 45, 56
2, 499188, Note_on_c, 0, 45, 0
2, 499188, Note_on_c, 0, 60, 0
2, 499192, Note_on_c, 0, 72, 72
2, 499200, Note_on_c, 0, 40, 52
2, 499216, Note_on_c, 0, 76, 0
2, 499232, Note_on_c, 0, 57, 0
2, 499248, Note_on_c, 0, 40, 0
2, 499308, Note_on_c, 0, 64, 60
2, 499308, Note_on_c, 0, 59, 60
2, 499308, Note_on_c, 0, 71, 70
2, 499308, Control_c, 0, 64, 56
2, 499320, Control_c, 0, 64, 0
2, 499324, Note_on_c, 0, 72, 0
2, 499372, Control_c, 0, 64, 104
2, 499376, Note_on_c, 0, 59, 0
2, 499376, Note_on_c, 0, 56, 52
2, 499380, Control_c, 0, 64, 127
2, 499404, Note_on_c, 0, 56, 0
2, 499440, Note_on_c, 0, 71, 0
2, 499456, Note_on_c, 0, 52, 53
2, 499460, Note_on_c, 0, 64, 0
2, 499548, Note_on_c, 0, 52, 0
2, 499552, Note_on_c, 0, 50, 56
2, 499556, Note_on_c, 0, 69, 74
2, 499608, Note_on_c, 0, 50, 0
2, 499612, Note_on_c, 0, 47, 53
2, 499664, Note_on_c, 0, 69, 0
2, 499680, Note_on_c, 0, 47, 0
2, 499680, Note_on_c, 0, 71, 80
2, 499704, Note_on_c, 0, 40, 45
2, 499728, Note_on_c, 0, 40, 0
2, 499784, Note_on_c, 0, 71, 0
2, 499800, Note_on_c, 0, 74, 69
2, 499832, Note_on_c, 0, 72, 82
2, 499832, Control_c, 0, 64, 88
2, 499844, Control_c, 0, 64, 0
2, 499856, Note_on_c, 0, 74, 0
2, 499904, Control_c, 0, 64, 88
2, 499916, Control_c, 0, 64, 127
2, 499940, Note_on_c, 0, 64, 49
2, 499956, Note_on_c, 0, 72, 0
2, 499956, Note_on_c, 0, 71, 82
2, 500016, Note_on_c, 0, 60, 43
2, 500024, Note_on_c, 0, 64, 0
2, 500064, Note_on_c, 0, 60, 0
2, 500068, Note_on_c, 0, 71, 0
2, 500072, Note_on_c, 0, 72, 83
2, 500072, Note_on_c, 0, 57, 49
2, 500148, Note_on_c, 0, 57, 0
2, 500160, Note_on_c, 0, 52, 49
2, 500192, Note_on_c, 0, 52, 0
2, 500196, Note_on_c, 0, 72, 0
2, 500200, Note_on_c, 0, 76, 84
2, 500276, Note_on_c, 0, 76, 0
2, 500340, Note_on_c, 0, 76, 86
2, 500380, Control_c, 0, 64, 72
2, 500388, Control_c, 0, 64, 0
2, 500448, Control_c, 0, 64, 104
2, 500456, Control_c, 0, 64, 127
2, 500476, Note_on_c, 0, 64, 49
2, 500488, Note_on_c, 0, 76, 0
2, 500560, Note_on_c, 0, 64, 0
2, 500568, Note_on_c, 0, 59, 45
2, 500596, Note_on_c, 0, 76, 86
2, 500628, Note_on_c, 0, 59, 0
2, 500640, Note_on_c, 0, 56, 41
2, 500712, Note_on_c, 0, 76, 0
2, 500720, Note_on_c, 0, 56, 0
2, 500728, Note_on_c, 0, 52, 49
2, 500752, Note_on_c, 0, 52, 0
2, 500860, Note_on_c, 0, 76, 85
2, 500860, Note_on_c, 0, 64, 59
2, 500860, Note_on_c, 0, 60, 55
2, 500860, Note_on_c, 0, 57, 56
2, 500912, Control_c, 0, 64, 104
2, 500920, Control_c, 0, 64, 24
2, 500932, Control_c, 0, 64, 0
2, 500980, Control_c, 0, 64, 88
2, 500992, Control_c, 0, 64, 127
2, 501004, Note_on_c, 0, 64, 48
2, 501084, Note_on_c, 0, 60, 40
2, 501088, Note_on_c, 0, 64, 0
2, 501088, Note_on_c, 0, 64, 0
2, 501144, Note_on_c, 0, 60, 0
2, 501152, Note_on_c, 0, 57, 50
2, 501216, Note_on_c, 0, 57, 0
2, 501216, Note_on_c, 0, 57, 0
2, 501232, Note_on_c, 0, 60, 0
2, 501232, Note_on_c, 0, 72, 77
2, 501240, Note_on_c, 0, 76, 0
2, 501248, Note_on_c, 0, 52, 43
2, 501288, Note_on_c, 0, 52, 0
2, 501392, Note_on_c, 0, 71, 71
2, 501392, Note_on_c, 0, 59, 51
2, 501392, Note_on_c, 0, 56, 49
2, 501392, Note_on_c, 0, 52, 51
2, 501408, Note_on_c, 0, 72, 0
2, 501456, Control_c, 0, 64, 72
2, 501464, Control_c, 0, 64, 0
2, 501524, Note_on_c, 0, 64, 48
2, 501528, Control_c, 0, 64, 72
2, 501536, Control_c, 0, 64, 127
2, 501624, Note_on_c, 0, 64, 0
2, 501628, Note_on_c, 0, 59, 51
2, 501680, Note_on_c, 0, 59, 0
2, 501688, Note_on_c, 0, 56, 51
2, 501764, Note_on_c, 0, 56, 0
2, 501764, Note_on_c, 0, 52, 0
2, 501764, Note_on_c, 0, 59, 0
2, 501776, Note_on_c, 0, 56, 0
2, 501776, Note_on_c, 0, 52, 43
2, 501780, Note_on_c, 0, 71, 0
2, 501804, Note_on_c, 0, 52, 0
2, 501856, Note_on_c, 0, 71, 78
2, 502000, Note_on_c, 0, 76, 83
2, 502000, Note_on_c, 0, 73, 57
2, 502000, Note_on_c, 0, 69, 52
2, 502000, Note_on_c, 0, 64, 52
2, 502000, Note_on_c, 0, 40, 61
2, 502000, Note_on_c, 0, 52, 53
2, 502004, Note_on_c, 0, 71, 0
2, 502060, Control_c, 0, 64, 88
2, 502068, Control_c, 0, 64, 0
2, 502140, Control_c, 0, 64, 72
2, 502148, Control_c, 0, 64, 127
2, 502152, Note_on_c, 0, 64, 49
2, 502256, Note_on_c, 0, 61, 46
2, 502316, Note_on_c, 0, 61, 0
2, 502340, Note_on_c, 0, 57, 55
2, 502428, Note_on_c, 0, 57, 0
2, 502440, Note_on_c, 0, 73, 80
2, 502452, Note_on_c, 0, 52, 45
2, 502472, Note_on_c, 0, 64, 0
2, 502636, Note_on_c, 0, 64, 0
2, 502636, Note_on_c, 0, 71, 73
2, 502636, Note_on_c, 0, 68, 57
2, 502644, Note_on_c, 0, 73, 0
2, 502644, Note_on_c, 0, 73, 0
2, 502656, Note_on_c, 0, 69, 0
2, 502672, Note_on_c, 0, 52, 0
2, 502672, Note_on_c, 0, 52, 0
2, 502732, Control_c, 0, 64, 56
2, 502744, Control_c, 0, 64, 0
2, 502804, Control_c, 0, 64, 56
2, 502816, Control_c, 0, 64, 127
2, 502824, Note_on_c, 0, 64, 50
2, 502844, Note_on_c, 0, 76, 0
2, 502928, Note_on_c, 0, 64, 0
2, 502944, Note_on_c, 0, 59, 49
2, 503020, Note_on_c, 0, 59, 0
2, 503032, Note_on_c, 0, 56, 46
2, 503056, Note_on_c, 0, 40, 0
2, 503108, Note_on_c, 0, 68, 0
2, 503140, Note_on_c, 0, 56, 0
2, 503144, Note_on_c, 0, 52, 51
2, 503160, Note_on_c, 0, 71, 0
2, 503176, Note_on_c, 0, 52, 0
2, 503428, Note_on_c, 0, 71, 75
2, 503448, Control_c, 0, 64, 56
2, 503456, Control_c, 0, 64, 0
2, 503520, Control_c, 0, 64, 104
2, 503528, Control_c, 0, 64, 127
2, 503600, Note_on_c, 0, 64, 50
2, 503696, Note_on_c, 0, 59, 52
2, 503772, Note_on_c, 0, 59, 0
2, 503776, Note_on_c, 0, 56, 42
2, 503860, Note_on_c, 0, 50, 55
2, 503880, Note_on_c, 0, 56, 0
2, 503924, Note_on_c, 0, 50, 0
2, 503940, Note_on_c, 0, 71, 0
2, 503960, Note_on_c, 0, 64, 0
2, 503976, Note_on_c, 0, 73, 83
2, 504012, Control_c, 0, 64, 88
2, 504024, Control_c, 0, 64, 0
2, 504084, Control_c, 0, 64, 88
2, 504092, Control_c, 0, 64, 127
2, 504132, Note_on_c, 0, 64, 55
2, 504200, Note_on_c, 0, 57, 54
2, 504288, Note_on_c, 0, 57, 0
2, 504288, Note_on_c, 0, 52, 51
2, 504332, Note_on_c, 0, 73, 0
2, 504368, Note_on_c, 0, 52, 0
2, 504368, Note_on_c, 0, 49, 59
2, 504412, Note_on_c, 0, 49, 0
2, 504464, Note_on_c, 0, 64, 0
2, 504472, Note_on_c, 0, 76, 88
2, 504516, Control_c, 0, 64, 40
2, 504528, Control_c, 0, 64, 0
2, 504576, Control_c, 0, 64, 56
2, 504584, Control_c, 0, 64, 127
2, 504640, Note_on_c, 0, 64, 63
2, 504716, Note_on_c, 0, 58, 42
2, 504784, Note_on_c, 0, 58, 0
2, 504792, Note_on_c, 0, 54, 48
2, 504880, Note_on_c, 0, 47, 56
2, 504908, Note_on_c, 0, 47, 0
2, 504924, Note_on_c, 0, 54, 0
2, 504924, Note_on_c, 0, 64, 0
2, 505008, Note_on_c, 0, 76, 0
2, 505080, Note_on_c, 0, 62, 71
2, 505088, Control_c, 0, 64, 104
2, 505100, Control_c, 0, 64, 40
2, 505108, Control_c, 0, 64, 0
2, 505140, Control_c, 0, 64, 72
2, 505148, Control_c, 0, 64, 127
2, 505188, Note_on_c, 0, 74, 89
2, 505192, Note_on_c, 0, 59, 51
2, 505268, Note_on_c, 0, 59, 0
2, 505268, Note_on_c, 0, 54, 49
2, 505308, Note_on_c, 0, 62, 0
2, 505332, Note_on_c, 0, 54, 0
2, 505336, Note_on_c, 0, 50, 50
2, 505372, Note_on_c, 0, 50, 0
2, 505400, Note_on_c, 0, 74, 0
2, 505420, Note_on_c, 0, 73, 93
2, 505492, Control_c, 0, 64, 104
2, 505504, Control_c, 0, 64, 0
2, 505552, Control_c, 0, 64, 40
2, 505564, Control_c, 0, 64, 127
2, 505584, Note_on_c, 0, 64, 66
2, 505660, Note_on_c, 0, 61, 54
2, 505668, Note_on_c, 0, 64, 0
2, 505700, Note_on_c, 0, 61, 0
2, 505720, Note_on_c, 0, 57, 61
2, 505784, Note_on_c, 0, 57, 0
2, 505796, Note_on_c, 0, 52, 53
2, 505840, Note_on_c, 0, 52, 0
2, 505892, Note_on_c, 0, 71, 90
2, 505912, Note_on_c, 0, 73, 0
2, 505976, Control_c, 0, 64, 40
2, 505984, Control_c, 0, 64, 0
2, 506028, Note_on_c, 0, 68, 64
2, 506036, Control_c, 0, 64, 88
2, 506044, Control_c, 0, 64, 127
2, 506108, Note_on_c, 0, 68, 0
2, 506112, Note_on_c, 0, 62, 62
2, 506148, Note_on_c, 0, 71, 0
2, 506160, Note_on_c, 0, 62, 0
2, 506172, Note_on_c, 0, 59, 55
2, 506240, Note_on_c, 0, 53, 52
2, 506244, Note_on_c, 0, 59, 0
2, 506276, Note_on_c, 0, 53, 0
2, 506316, Note_on_c, 0, 71, 87
2, 506396, Note_on_c, 0, 71, 0
2, 506404, Note_on_c, 0, 73, 85
2, 506460, Note_on_c, 0, 68, 71
2, 506496, Note_on_c, 0, 71, 89
2, 506512, Note_on_c, 0, 73, 0
2, 506532, Note_on_c, 0, 68, 0
2, 506568, Note_on_c, 0, 71, 0
2, 506584, Note_on_c, 0, 62, 56
2, 506592, Note_on_c, 0, 70, 86
2, 506628, Note_on_c, 0, 62, 0
2, 506656, Note_on_c, 0, 70, 0
2, 506668, Note_on_c, 0, 59, 53
2, 506676, Note_on_c, 0, 71, 92
2, 506740, Note_on_c, 0, 59, 0
2, 506748, Note_on_c, 0, 71, 0
2, 506756, Note_on_c, 0, 54, 49
2, 506760, Note_on_c, 0, 73, 84
2, 506800, Note_on_c, 0, 54, 0
2, 506836, Note_on_c, 0, 73, 0
2, 506856, Note_on_c, 0, 69, 82
2, 506880, Control_c, 0, 64, 88
2, 506892, Control_c, 0, 64, 0
2, 506964, Control_c, 0, 64, 127
2, 506992, Note_on_c, 0, 66, 58
2, 507064, Note_on_c, 0, 66, 0
2, 507076, Note_on_c, 0, 62, 49
2, 507128, Note_on_c, 0, 62, 0
2, 507140, Note_on_c, 0, 57, 56
2, 507204, Note_on_c, 0, 69, 0
2, 507212, Note_on_c, 0, 57, 0
2, 507268, Note_on_c, 0, 66, 67
2, 507324, Note_on_c, 0, 54, 53
2, 507376, Note_on_c, 0, 54, 0
2, 507376, Control_c, 0, 64, 0
2, 507420, Control_c, 0, 64, 72
2, 507432, Note_on_c, 0, 59, 72
2, 507432, Note_on_c, 0, 56, 63
2, 507436, Control_c, 0, 64, 72
2, 507444, Control_c, 0, 64, 0
2, 507516, Control_c, 0, 64, 104
2, 507524, Note_on_c, 0, 64, 59
2, 507524, Control_c, 0, 64, 127
2, 507576, Note_on_c, 0, 64, 0
2, 507604, Note_on_c, 0, 71, 76
2, 507680, Note_on_c, 0, 71, 0
2, 507688, Note_on_c, 0, 74, 82
2, 507700, Note_on_c, 0, 66, 0
2, 507704, Note_on_c, 0, 56, 0
2, 507772, Note_on_c, 0, 76, 82
2, 507776, Note_on_c, 0, 74, 0
2, 507784, Note_on_c, 0, 59, 0
2, 507860, Note_on_c, 0, 64, 65
2, 507876, Note_on_c, 0, 76, 0
2, 507916, Note_on_c, 0, 64, 0
2, 507936, Note_on_c, 0, 61, 86
2, 507936, Note_on_c, 0, 57, 70
2, 507936, Note_on_c, 0, 55, 50
2, 507960, Control_c, 0, 64, 56
2, 507968, Control_c, 0, 64, 0
2, 508028, Control_c, 0, 64, 104
2, 508032, Note_on_c, 0, 64, 69
2, 508040, Control_c, 0, 64, 127
2, 508072, Note_on_c, 0, 64, 0
2, 508104, Note_on_c, 0, 69, 87
2, 508168, Note_on_c, 0, 69, 0
2, 508180, Note_on_c, 0, 57, 0
2, 508184, Note_on_c, 0, 73, 82
2, 508224, Note_on_c, 0, 55, 0
2, 508240, Note_on_c, 0, 61, 0
2, 508268, Note_on_c, 0, 73, 0
2, 508272, Note_on_c, 0, 76, 86
2, 508340, Note_on_c, 0, 64, 78
2, 508372, Note_on_c, 0, 64, 0
2, 508412, Note_on_c, 0, 76, 0
2, 508448, Note_on_c, 0, 64, 86
2, 508452, Note_on_c, 0, 57, 77
2, 508456, Note_on_c, 0, 54, 68
2, 508472, Control_c, 0, 64, 104
2, 508484, Control_c, 0, 64, 0
2, 508544, Note_on_c, 0, 69, 81
2, 508564, Control_c, 0, 64, 56
2, 508572, Control_c, 0, 64, 127
2, 508612, Note_on_c, 0, 69, 0
2, 508624, Note_on_c, 0, 73, 88
2, 508640, Note_on_c, 0, 69, 15
2, 508664, Note_on_c, 0, 69, 0
2, 508692, Note_on_c, 0, 73, 0
2, 508704, Note_on_c, 0, 76, 89
2, 508784, Note_on_c, 0, 81, 88
2, 508800, Note_on_c, 0, 76, 0
2, 508860, Note_on_c, 0, 64, 0
2, 508868, Note_on_c, 0, 69, 67
2, 508956, Note_on_c, 0, 69, 0
2, 508960, Note_on_c, 0, 62, 76
2, 508976, Control_c, 0, 64, 56
2, 508984, Control_c, 0, 64, 40
2, 508996, Control_c, 0, 64, 56
2, 509004, Control_c, 0, 64, 104
2, 509016, Control_c, 0, 64, 127
2, 509040, Note_on_c, 0, 57, 0
2, 509044, Note_on_c, 0, 69, 73
2, 509052, Note_on_c, 0, 81, 0
2, 509064, Note_on_c, 0, 54, 0
2, 509088, Note_on_c, 0, 62, 0
2, 509112, Note_on_c, 0, 69, 0
2, 509120, Note_on_c, 0, 74, 83
2, 509184, Note_on_c, 0, 74, 0
2, 509216, Note_on_c, 0, 61, 82
2, 509216, Note_on_c, 0, 57, 67
2, 509216, Control_c, 0, 64, 104
2, 509228, Note_on_c, 0, 52, 70
2, 509228, Control_c, 0, 64, 40
2, 509236, Control_c, 0, 64, 0
2, 509248, Control_c, 0, 64, 24
2, 509256, Control_c, 0, 64, 56
2, 509268, Control_c, 0, 64, 127
2, 509288, Note_on_c, 0, 52, 0
2, 509288, Note_on_c, 0, 57, 0
2, 509304, Note_on_c, 0, 69, 77
2, 509368, Note_on_c, 0, 61, 0
2, 509372, Note_on_c, 0, 73, 78
2, 509380, Note_on_c, 0, 69, 0
2, 509380, Control_c, 0, 64, 56
2, 509388, Control_c, 0, 64, 0
2, 509412, Note_on_c, 0, 51, 67
2, 509416, Note_on_c, 0, 73, 0
2, 509440, Control_c, 0, 64, 72
2, 509444, Note_on_c, 0, 57, 66
2, 509448, Control_c, 0, 64, 127
2, 509452, Note_on_c, 0, 51, 0
2, 509452, Note_on_c, 0, 59, 71
2, 509500, Note_on_c, 0, 66, 93
2, 509588, Note_on_c, 0, 71, 69
2, 509640, Note_on_c, 0, 71, 0
2, 509668, Note_on_c, 0, 78, 81
2, 509720, Note_on_c, 0, 66, 0
2, 509732, Note_on_c, 0, 57, 0
2, 509732, Note_on_c, 0, 59, 0
2, 509740, Note_on_c, 0, 78, 0
2, 509752, Note_on_c, 0, 81, 80
2, 509836, Note_on_c, 0, 83, 82
2, 509864, Note_on_c, 0, 81, 0
2, 509908, Note_on_c, 0, 83, 0
2, 509916, Note_on_c, 0, 71, 73
2, 509960, Note_on_c, 0, 71, 0
2, 510000, Note_on_c, 0, 59, 82
2, 510004, Control_c, 0, 64, 104
2, 510008, Note_on_c, 0, 56, 64
2, 510012, Note_on_c, 0, 50, 61
2, 510016, Control_c, 0, 64, 0
2, 510072, Control_c, 0, 64, 127
2, 510088, Note_on_c, 0, 64, 64
2, 510140, Note_on_c, 0, 64, 0
2, 510172, Note_on_c, 0, 68, 71
2, 510204, Note_on_c, 0, 50, 0
2, 510208, Note_on_c, 0, 56, 0
2, 510252, Note_on_c, 0, 71, 77
2, 510256, Note_on_c, 0, 68, 0
2, 510268, Note_on_c, 0, 59, 0
2, 510336, Note_on_c, 0, 76, 77
2, 510348, Note_on_c, 0, 71, 0
2, 510412, Note_on_c, 0, 64, 70
2, 510436, Control_c, 0, 64, 104
2, 510440, Note_on_c, 0, 49, 59
2, 510444, Control_c, 0, 64, 0
2, 510456, Note_on_c, 0, 64, 0
2, 510472, Note_on_c, 0, 57, 62
2, 510484, Note_on_c, 0, 49, 0
2, 510484, Control_c, 0, 64, 56
2, 510496, Note_on_c, 0, 76, 0
2, 510496, Control_c, 0, 64, 127
2, 510512, Note_on_c, 0, 57, 0
2, 510524, Note_on_c, 0, 64, 82
2, 510600, Note_on_c, 0, 69, 80
2, 510664, Note_on_c, 0, 69, 0
2, 510680, Note_on_c, 0, 73, 76
2, 510764, Note_on_c, 0, 73, 0
2, 510764, Note_on_c, 0, 76, 80
2, 510840, Note_on_c, 0, 81, 76
2, 510852, Note_on_c, 0, 76, 0
2, 510912, Note_on_c, 0, 81, 0
2, 510920, Note_on_c, 0, 69, 72
2, 510968, Note_on_c, 0, 69, 0
2, 510996, Note_on_c, 0, 64, 0
2, 511008, Note_on_c, 0, 61, 82
2, 511008, Note_on_c, 0, 45, 60
2, 511012, Control_c, 0, 64, 104
2, 511020, Control_c, 0, 64, 56
2, 511032, Control_c, 0, 64, 0
2, 511040, Control_c, 0, 64, 24
2, 511052, Control_c, 0, 64, 56
2, 511060, Control_c, 0, 64, 104
2, 511072, Control_c, 0, 64, 127
2, 511096, Note_on_c, 0, 64, 69
2, 511120, Note_on_c, 0, 61, 0
2, 511152, Note_on_c, 0, 64, 0
2, 511188, Note_on_c, 0, 69, 74
2, 511268, Note_on_c, 0, 69, 0
2, 511276, Note_on_c, 0, 73, 80
2, 511276, Note_on_c, 0, 57, 79
2, 511276, Note_on_c, 0, 49, 64
2, 511336, Note_on_c, 0, 57, 0
2, 511348, Note_on_c, 0, 45, 0
2, 511356, Note_on_c, 0, 76, 77
2, 511368, Note_on_c, 0, 73, 0
2, 511420, Note_on_c, 0, 76, 0
2, 511436, Note_on_c, 0, 64, 65
2, 511488, Note_on_c, 0, 64, 0
2, 511532, Note_on_c, 0, 56, 75
2, 511532, Note_on_c, 0, 52, 67
2, 511532, Note_on_c, 0, 50, 62
2, 511532, Note_on_c, 0, 59, 68
2, 511568, Control_c, 0, 64, 56
2, 511576, Control_c, 0, 64, 0
2, 511616, Note_on_c, 0, 49, 0
2, 511628, Note_on_c, 0, 59, 65
2, 511636, Control_c, 0, 64, 56
2, 511648, Control_c, 0, 64, 127
2, 511688, Note_on_c, 0, 59, 0
2, 511708, Note_on_c, 0, 64, 72
2, 511788, Note_on_c, 0, 68, 66
2, 511792, Note_on_c, 0, 64, 0
2, 511804, Note_on_c, 0, 50, 0
2, 511812, Note_on_c, 0, 52, 0
2, 511840, Note_on_c, 0, 56, 0
2, 511872, Note_on_c, 0, 59, 0
2, 511872, Note_on_c, 0, 71, 66
2, 511880, Note_on_c, 0, 68, 0
2, 511948, Note_on_c, 0, 59, 65
2, 511980, Note_on_c, 0, 59, 0
2, 512028, Note_on_c, 0, 57, 77
2, 512028, Note_on_c, 0, 49, 69
2, 512028, Note_on_c, 0, 52, 71
2, 512028, Note_on_c, 0, 61, 72
2, 512036, Note_on_c, 0, 71, 0
2, 512060, Control_c, 0, 64, 88
2, 512072, Control_c, 0, 64, 0
2, 512100, Note_on_c, 0, 61, 67
2, 512120, Control_c, 0, 64, 72
2, 512132, Control_c, 0, 64, 127
2, 512152, Note_on_c, 0, 61, 0
2, 512184, Note_on_c, 0, 64, 74
2, 512224, Note_on_c, 0, 49, 0
2, 512256, Note_on_c, 0, 64, 0
2, 512264, Note_on_c, 0, 69, 80
2, 512272, Note_on_c, 0, 52, 0
2, 512328, Note_on_c, 0, 57, 0
2, 512348, Note_on_c, 0, 69, 0
2, 512352, Note_on_c, 0, 73, 80
2, 512368, Note_on_c, 0, 61, 0
2, 512432, Note_on_c, 0, 61, 76
2, 512464, Note_on_c, 0, 46, 52
2, 512472, Note_on_c, 0, 61, 0
2, 512476, Control_c, 0, 64, 40
2, 512484, Control_c, 0, 64, 0
2, 512492, Note_on_c, 0, 54, 68
2, 512508, Note_on_c, 0, 46, 0
2, 512516, Control_c, 0, 64, 40
2, 512520, Note_on_c, 0, 73, 0
2, 512524, Control_c, 0, 64, 127
2, 512532, Note_on_c, 0, 61, 85
2, 512532, Note_on_c, 0, 64, 82
2, 512600, Note_on_c, 0, 64, 77
2, 512656, Note_on_c, 0, 64, 0
2, 512684, Note_on_c, 0, 66, 79
2, 512736, Note_on_c, 0, 66, 0
2, 512764, Note_on_c, 0, 73, 77
2, 512780, Note_on_c, 0, 61, 0
2, 512832, Note_on_c, 0, 73, 0
2, 512844, Note_on_c, 0, 54, 0
2, 512852, Note_on_c, 0, 76, 79
2, 512916, Note_on_c, 0, 76, 0
2, 512928, Note_on_c, 0, 64, 74
2, 512988, Note_on_c, 0, 64, 0
2, 512996, Control_c, 0, 64, 24
2, 513004, Note_on_c, 0, 59, 79
2, 513008, Note_on_c, 0, 47, 64
2, 513008, Note_on_c, 0, 56, 53
2, 513008, Note_on_c, 0, 62, 78
2, 513008, Control_c, 0, 64, 0
2, 513036, Control_c, 0, 64, 56
2, 513048, Control_c, 0, 64, 127
2, 513060, Note_on_c, 0, 47, 0
2, 513068, Note_on_c, 0, 62, 74
2, 513100, Note_on_c, 0, 56, 0
2, 513100, Note_on_c, 0, 59, 0
2, 513128, Note_on_c, 0, 62, 0
2, 513156, Note_on_c, 0, 74, 87
2, 513160, Note_on_c, 0, 68, 60
2, 513176, Note_on_c, 0, 68, 0
2, 513208, Note_on_c, 0, 74, 0
2, 513240, Control_c, 0, 64, 104
2, 513244, Note_on_c, 0, 57, 82
2, 513244, Note_on_c, 0, 49, 70
2, 513244, Note_on_c, 0, 61, 77
2, 513248, Note_on_c, 0, 52, 71
2, 513248, Control_c, 0, 64, 40
2, 513256, Note_on_c, 0, 64, 0
2, 513268, Control_c, 0, 64, 72
2, 513280, Control_c, 0, 64, 127
2, 513304, Note_on_c, 0, 61, 60
2, 513308, Note_on_c, 0, 49, 0
2, 513312, Note_on_c, 0, 52, 0
2, 513320, Note_on_c, 0, 57, 0
2, 513348, Note_on_c, 0, 62, 0
2, 513368, Note_on_c, 0, 61, 0
2, 513368, Note_on_c, 0, 61, 0
2, 513388, Note_on_c, 0, 73, 83
2, 513396, Note_on_c, 0, 69, 64
2, 513412, Note_on_c, 0, 69, 0
2, 513436, Note_on_c, 0, 73, 0
2, 513488, Note_on_c, 0, 56, 83
2, 513488, Note_on_c, 0, 52, 66
2, 513488, Note_on_c, 0, 50, 63
2, 513488, Note_on_c, 0, 59, 74
2, 513488, Note_on_c, 0, 71, 78
2, 513512, Control_c, 0, 64, 88
2, 513520, Control_c, 0, 64, 0
2, 513552, Note_on_c, 0, 52, 0
2, 513560, Control_c, 0, 64, 40
2, 513572, Control_c, 0, 64, 127
2, 513584, Note_on_c, 0, 59, 72
2, 513628, Note_on_c, 0, 59, 0
2, 513660, Note_on_c, 0, 64, 77
2, 513736, Note_on_c, 0, 64, 0
2, 513744, Note_on_c, 0, 68, 74
2, 513784, Note_on_c, 0, 50, 0
2, 513820, Note_on_c, 0, 56, 0
2, 513828, Note_on_c, 0, 59, 0
2, 513828, Note_on_c, 0, 71, 0
2, 513828, Note_on_c, 0, 71, 75
2, 513836, Note_on_c, 0, 68, 0
2, 513900, Note_on_c, 0, 59, 66
2, 513932, Note_on_c, 0, 71, 0
2, 513960, Note_on_c, 0, 59, 0
2, 513976, Control_c, 0, 64, 24
2, 513984, Note_on_c, 0, 57, 82
2, 513984, Note_on_c, 0, 52, 66
2, 513984, Note_on_c, 0, 49, 65
2, 513984, Note_on_c, 0, 73, 82
2, 513984, Note_on_c, 0, 61, 79
2, 513984, Control_c, 0, 64, 0
2, 514036, Control_c, 0, 64, 127
2, 514072, Note_on_c, 0, 61, 72
2, 514128, Note_on_c, 0, 61, 0
2, 514160, Note_on_c, 0, 64, 77
2, 514208, Note_on_c, 0, 49, 0
2, 514224, Note_on_c, 0, 64, 0
2, 514244, Note_on_c, 0, 69, 84
2, 514296, Note_on_c, 0, 52, 0
2, 514304, Note_on_c, 0, 57, 0
2, 514312, Note_on_c, 0, 69, 0
2, 514324, Note_on_c, 0, 61, 0
2, 514324, Note_on_c, 0, 73, 0
2, 514328, Note_on_c, 0, 73, 81
2, 514404, Note_on_c, 0, 61, 65
2, 514416, Control_c, 0, 64, 24
2, 514420, Note_on_c, 0, 46, 61
2, 514428, Control_c, 0, 64, 0
2, 514432, Note_on_c, 0, 61, 0
2, 514452, Note_on_c, 0, 73, 0
2, 514452, Note_on_c, 0, 54, 72
2, 514468, Note_on_c, 0, 46, 0
2, 514476, Control_c, 0, 64, 104
2, 514488, Control_c, 0, 64, 127
2, 514496, Note_on_c, 0, 61, 89
2, 514496, Note_on_c, 0, 64, 77
2, 514496, Note_on_c, 0, 76, 85
2, 514576, Note_on_c, 0, 64, 78
2, 514628, Note_on_c, 0, 64, 0
2, 514660, Note_on_c, 0, 66, 86
2, 514708, Note_on_c, 0, 66, 0
2, 514740, Note_on_c, 0, 73, 88
2, 514760, Note_on_c, 0, 61, 0
2, 514760, Note_on_c, 0, 54, 0
2, 514812, Note_on_c, 0, 73, 0
2, 514832, Note_on_c, 0, 76, 84
2, 514908, Note_on_c, 0, 64, 76
2, 514912, Note_on_c, 0, 76, 0
2, 514912, Note_on_c, 0, 76, 0
2, 514972, Control_c, 0, 64, 56
2, 514980, Note_on_c, 0, 64, 0
2, 514980, Control_c, 0, 64, 0
2, 514988, Note_on_c, 0, 62, 78
2, 514992, Note_on_c, 0, 59, 81
2, 514992, Note_on_c, 0, 47, 75
2, 514992, Note_on_c, 0, 56, 73
2, 514992, Note_on_c, 0, 74, 82
2, 515012, Control_c, 0, 64, 24
2, 515020, Control_c, 0, 64, 104
2, 515032, Control_c, 0, 64, 127
2, 515036, Note_on_c, 0, 47, 0
2, 515048, Note_on_c, 0, 62, 80
2, 515068, Note_on_c, 0, 56, 0
2, 515084, Note_on_c, 0, 59, 0
2, 515108, Note_on_c, 0, 62, 0
2, 515132, Note_on_c, 0, 74, 92
2, 515136, Note_on_c, 0, 68, 56
2, 515152, Note_on_c, 0, 68, 0
2, 515192, Note_on_c, 0, 74, 0
2, 515204, Control_c, 0, 64, 104
2, 515216, Note_on_c, 0, 49, 73
2, 515216, Note_on_c, 0, 52, 77
2, 515216, Note_on_c, 0, 57, 85
2, 515216, Note_on_c, 0, 61, 78
2, 515216, Note_on_c, 0, 73, 81
2, 515216, Control_c, 0, 64, 0
2, 515220, Note_on_c, 0, 64, 0
2, 515244, Control_c, 0, 64, 24
2, 515252, Control_c, 0, 64, 104
2, 515264, Control_c, 0, 64, 127
2, 515284, Note_on_c, 0, 52, 0
2, 515284, Note_on_c, 0, 49, 0
2, 515292, Note_on_c, 0, 61, 74
2, 515304, Note_on_c, 0, 57, 0
2, 515328, Note_on_c, 0, 62, 0
2, 515332, Note_on_c, 0, 74, 0
2, 515332, Note_on_c, 0, 61, 0
2, 515364, Note_on_c, 0, 73, 87
2, 515368, Note_on_c, 0, 69, 75
2, 515404, Note_on_c, 0, 69, 0
2, 515424, Note_on_c, 0, 73, 0
2, 515464, Note_on_c, 0, 57, 88
2, 515464, Note_on_c, 0, 71, 80
2, 515464, Note_on_c, 0, 59, 68
2, 515464, Control_c, 0, 64, 104
2, 515468, Note_on_c, 0, 54, 73
2, 515472, Note_on_c, 0, 50, 73
2, 515476, Control_c, 0, 64, 0
2, 515536, Control_c, 0, 64, 127
2, 515556, Note_on_c, 0, 61, 0
2, 515556, Note_on_c, 0, 73, 0
2, 515560, Note_on_c, 0, 59, 74
2, 515620, Note_on_c, 0, 59, 0
2, 515648, Note_on_c, 0, 66, 79
2, 515724, Note_on_c, 0, 66, 0
2, 515732, Note_on_c, 0, 69, 85
2, 515756, Note_on_c, 0, 54, 0
2, 515776, Note_on_c, 0, 50, 0
2, 515820, Note_on_c, 0, 57, 0
2, 515820, Note_on_c, 0, 71, 84
2, 515828, Note_on_c, 0, 69, 0
2, 515836, Note_on_c, 0, 71, 0
2, 515836, Note_on_c, 0, 59, 0
2, 515896, Note_on_c, 0, 59, 78
2, 515936, Note_on_c, 0, 59, 0
2, 515980, Note_on_c, 0, 57, 81
2, 515980, Note_on_c, 0, 51, 70
2, 515980, Note_on_c, 0, 59, 81
2, 515980, Note_on_c, 0, 78, 85
2, 515980, Note_on_c, 0, 66, 70
2, 515980, Note_on_c, 0, 39, 62
2, 515980, Note_on_c, 0, 69, 62
2, 515988, Note_on_c, 0, 71, 0
2, 515996, Control_c, 0, 64, 104
2, 516008, Control_c, 0, 64, 0
2, 516056, Note_on_c, 0, 66, 80
2, 516060, Control_c, 0, 64, 104
2, 516068, Control_c, 0, 64, 127
2, 516100, Note_on_c, 0, 66, 0
2, 516136, Note_on_c, 0, 69, 85
2, 516204, Note_on_c, 0, 69, 0
2, 516216, Note_on_c, 0, 71, 87
2, 516284, Note_on_c, 0, 71, 0
2, 516296, Note_on_c, 0, 57, 0
2, 516296, Note_on_c, 0, 51, 0
2, 516296, Note_on_c, 0, 78, 83
2, 516324, Note_on_c, 0, 59, 0
2, 516352, Note_on_c, 0, 39, 0
2, 516352, Note_on_c, 0, 66, 0
2, 516352, Note_on_c, 0, 78, 0
2, 516380, Note_on_c, 0, 66, 73
2, 516432, Note_on_c, 0, 78, 0
2, 516448, Note_on_c, 0, 66, 0
2, 516464, Note_on_c, 0, 59, 81
2, 516468, Note_on_c, 0, 52, 75
2, 516472, Note_on_c, 0, 57, 74
2, 516472, Note_on_c, 0, 76, 81
2, 516472, Note_on_c, 0, 64, 70
2, 516472, Note_on_c, 0, 40, 65
2, 516472, Note_on_c, 0, 71, 63
2, 516500, Control_c, 0, 64, 24
2, 516512, Control_c, 0, 64, 0
2, 516548, Note_on_c, 0, 64, 74
2, 516572, Control_c, 0, 64, 72
2, 516584, Control_c, 0, 64, 127
2, 516608, Note_on_c, 0, 64, 0
2, 516608, Note_on_c, 0, 64, 0
2, 516636, Note_on_c, 0, 69, 84
2, 516704, Note_on_c, 0, 69, 0
2, 516716, Note_on_c, 0, 71, 85
2, 516736, Note_on_c, 0, 69, 0
2, 516796, Note_on_c, 0, 57, 0
2, 516796, Note_on_c, 0, 76, 88
2, 516800, Note_on_c, 0, 71, 0
2, 516808, Note_on_c, 0, 52, 0
2, 516816, Note_on_c, 0, 59, 0
2, 516844, Note_on_c, 0, 71, 0
2, 516844, Note_on_c, 0, 40, 0
2, 516844, Note_on_c, 0, 76, 0
2, 516880, Note_on_c, 0, 64, 75
2, 516912, Note_on_c, 0, 76, 0
2, 516944, Note_on_c, 0, 64, 0
2, 516952, Note_on_c, 0, 59, 82
2, 516952, Note_on_c, 0, 57, 75
2, 516952, Note_on_c, 0, 54, 60
2, 516952, Note_on_c, 0, 75, 79
2, 516952, Note_on_c, 0, 63, 65
2, 516952, Note_on_c, 0, 69, 63
2, 516952, Note_on_c, 0, 42, 66
2, 517004, Control_c, 0, 64, 88
2, 517016, Control_c, 0, 64, 0
2, 517044, Note_on_c, 0, 63, 72
2, 517076, Control_c, 0, 64, 40
2, 517084, Control_c, 0, 64, 127
2, 517120, Note_on_c, 0, 63, 0
2, 517128, Note_on_c, 0, 69, 85
2, 517216, Note_on_c, 0, 71, 81
2, 517224, Note_on_c, 0, 69, 0
2, 517224, Note_on_c, 0, 69, 0
2, 517240, Note_on_c, 0, 57, 0
2, 517260, Note_on_c, 0, 54, 0
2, 517288, Note_on_c, 0, 75, 79
2, 517312, Note_on_c, 0, 71, 0
2, 517316, Note_on_c, 0, 59, 0
2, 517324, Note_on_c, 0, 63, 0
2, 517324, Note_on_c, 0, 42, 0
2, 517324, Note_on_c, 0, 75, 0
2, 517356, Note_on_c, 0, 63, 67
2, 517416, Note_on_c, 0, 75, 0
2, 517420, Note_on_c, 0, 63, 0
2, 517444, Note_on_c, 0, 58, 85
2, 517444, Note_on_c, 0, 55, 54
2, 517444, Note_on_c, 0, 74, 84
2, 517444, Note_on_c, 0, 62, 69
2, 517444, Note_on_c, 0, 70, 65
2, 517444, Note_on_c, 0, 43, 67
2, 517488, Control_c, 0, 64, 104
2, 517500, Control_c, 0, 64, 24
2, 517508, Control_c, 0, 64, 0
2, 517536, Note_on_c, 0, 62, 78
2, 517560, Control_c, 0, 64, 56
2, 517568, Control_c, 0, 64, 127
2, 517600, Note_on_c, 0, 62, 0
2, 517612, Note_on_c, 0, 67, 77
2, 517660, Note_on_c, 0, 58, 0
2, 517660, Note_on_c, 0, 55, 0
2, 517696, Note_on_c, 0, 70, 82
2, 517712, Note_on_c, 0, 67, 0
2, 517772, Note_on_c, 0, 74, 88
2, 517780, Note_on_c, 0, 70, 0
2, 517816, Note_on_c, 0, 43, 0
2, 517816, Note_on_c, 0, 70, 0
2, 517816, Note_on_c, 0, 62, 0
2, 517816, Note_on_c, 0, 74, 0
2, 517844, Note_on_c, 0, 62, 80
2, 517872, Note_on_c, 0, 62, 0
2, 517928, Note_on_c, 0, 74, 0
2, 517932, Note_on_c, 0, 64, 88
2, 517932, Note_on_c, 0, 62, 73
2, 517932, Note_on_c, 0, 83, 91
2, 517932, Note_on_c, 0, 71, 70
2, 517932, Note_on_c, 0, 74, 66
2, 517932, Note_on_c, 0, 44, 69
2, 517936, Note_on_c, 0, 56, 64
2, 517960, Control_c, 0, 64, 24
2, 517972, Control_c, 0, 64, 0
2, 518012, Control_c, 0, 64, 88
2, 518016, Note_on_c, 0, 71, 87
2, 518024, Control_c, 0, 64, 127
2, 518064, Note_on_c, 0, 83, 0
2, 518092, Note_on_c, 0, 74, 96
2, 518164, Note_on_c, 0, 74, 0
2, 518164, Note_on_c, 0, 74, 0
2, 518168, Note_on_c, 0, 76, 92
2, 518176, Note_on_c, 0, 56, 0
2, 518220, Note_on_c, 0, 62, 0
2, 518232, Note_on_c, 0, 76, 0
2, 518240, Note_on_c, 0, 64, 0
2, 518248, Note_on_c, 0, 83, 89
2, 518304, Note_on_c, 0, 71, 0
2, 518304, Note_on_c, 0, 71, 0
2, 518304, Note_on_c, 0, 44, 0
2, 518332, Note_on_c, 0, 71, 77
2, 518360, Note_on_c, 0, 83, 0
2, 518404, Note_on_c, 0, 71, 0
2, 518404, Note_on_c, 0, 64, 84
2, 518404, Note_on_c, 0, 57, 74
2, 518404, Note_on_c, 0, 81, 84
2, 518404, Note_on_c, 0, 69, 70
2, 518404, Note_on_c, 0, 74, 65
2, 518404, Note_on_c, 0, 45, 70
2, 518408, Note_on_c, 0, 62, 74
2, 518444, Control_c, 0, 64, 56
2, 518456, Control_c, 0, 64, 0
2, 518488, Note_on_c, 0, 69, 88
2, 518504, Control_c, 0, 64, 104
2, 518512, Control_c, 0, 64, 127
2, 518560, Note_on_c, 0, 69, 0
2, 518568, Note_on_c, 0, 74, 93
2, 518644, Note_on_c, 0, 76, 86
2, 518652, Note_on_c, 0, 74, 0
2, 518708, Note_on_c, 0, 62, 0
2, 518724, Note_on_c, 0, 81, 82
2, 518740, Note_on_c, 0, 64, 0
2, 518744, Note_on_c, 0, 76, 0
2, 518776, Note_on_c, 0, 45, 0
2, 518776, Note_on_c, 0, 81, 0
2, 518776, Note_on_c, 0, 69, 0
2, 518776, Note_on_c, 0, 81, 0
2, 518776, Note_on_c, 0, 74, 0
2, 518776, Note_on_c, 0, 57, 0
2, 518788, Note_on_c, 0, 69, 85
2, 518872, Note_on_c, 0, 69, 0
2, 518892, Note_on_c, 0, 64, 83
2, 518892, Note_on_c, 0, 80, 83
2, 518892, Note_on_c, 0, 68, 70
2, 518892, Note_on_c, 0, 74, 65
2, 518892, Note_on_c, 0, 47, 72
2, 518896, Note_on_c, 0, 62, 74
2, 518900, Note_on_c, 0, 59, 68
2, 518920, Control_c, 0, 64, 56
2, 518928, Control_c, 0, 64, 0
2, 518972, Note_on_c, 0, 68, 74
2, 518976, Control_c, 0, 64, 72
2, 518988, Control_c, 0, 64, 127
2, 519040, Note_on_c, 0, 68, 0
2, 519056, Note_on_c, 0, 74, 92
2, 519112, Note_on_c, 0, 62, 0
2, 519112, Note_on_c, 0, 64, 0
2, 519136, Note_on_c, 0, 59, 0
2, 519136, Note_on_c, 0, 76, 85
2, 519148, Note_on_c, 0, 74, 0
2, 519216, Note_on_c, 0, 80, 85
2, 519228, Note_on_c, 0, 76, 0
2, 519264, Note_on_c, 0, 68, 0
2, 519264, Note_on_c, 0, 74, 0
2, 519264, Note_on_c, 0, 47, 0
2, 519264, Note_on_c, 0, 80, 0
2, 519288, Note_on_c, 0, 68, 75
2, 519320, Control_c, 0, 64, 0
2, 519332, Note_on_c, 0, 80, 0
2, 519344, Note_on_c, 0, 48, 65
2, 519364, Note_on_c, 0, 56, 51
2, 519380, Note_on_c, 0, 48, 0
2, 519384, Control_c, 0, 64, 88
2, 519388, Note_on_c, 0, 68, 0
2, 519388, Note_on_c, 0, 63, 91
2, 519388, Note_on_c, 0, 68, 60
2, 519388, Note_on_c, 0, 78, 62
2, 519392, Control_c, 0, 64, 127
2, 519412, Note_on_c, 0, 56, 0
2, 519436, Note_on_c, 0, 63, 0
2, 519476, Note_on_c, 0, 68, 82
2, 519528, Note_on_c, 0, 68, 0
2, 519528, Note_on_c, 0, 78, 0
2, 519544, Note_on_c, 0, 75, 69
2, 519572, Note_on_c, 0, 68, 0
2, 519628, Note_on_c, 0, 75, 0
2, 519632, Note_on_c, 0, 66, 96
2, 519632, Note_on_c, 0, 78, 80
2, 519632, Note_on_c, 0, 68, 66
2, 519644, Control_c, 0, 64, 88
2, 519656, Control_c, 0, 64, 104
2, 519664, Control_c, 0, 64, 127
2, 519684, Note_on_c, 0, 66, 0
2, 519704, Note_on_c, 0, 68, 75
2, 519768, Note_on_c, 0, 78, 85
2, 519772, Note_on_c, 0, 78, 0
2, 519772, Note_on_c, 0, 68, 0
2, 519784, Note_on_c, 0, 68, 0
2, 519808, Note_on_c, 0, 49, 63
2, 519812, Control_c, 0, 64, 104
2, 519824, Control_c, 0, 64, 0
2, 519828, Note_on_c, 0, 56, 53
2, 519836, Note_on_c, 0, 78, 0
2, 519852, Note_on_c, 0, 49, 0
2, 519860, Note_on_c, 0, 56, 0
2, 519860, Note_on_c, 0, 64, 85
2, 519860, Note_on_c, 0, 61, 75
2, 519864, Control_c, 0, 64, 88
2, 519876, Control_c, 0, 64, 127
2, 519908, Note_on_c, 0, 64, 0
2, 519936, Note_on_c, 0, 68, 76
2, 520000, Note_on_c, 0, 61, 0
2, 520000, Note_on_c, 0, 76, 82
2, 520008, Note_on_c, 0, 68, 0
2, 520064, Control_c, 0, 64, 88
2, 520080, Note_on_c, 0, 76, 0
2, 520080, Control_c, 0, 64, 24
2, 520084, Note_on_c, 0, 61, 89
2, 520084, Note_on_c, 0, 64, 66
2, 520084, Note_on_c, 0, 68, 66
2, 520084, Note_on_c, 0, 76, 80
2, 520096, Control_c, 0, 64, 72
2, 520108, Control_c, 0, 64, 127
2, 520128, Note_on_c, 0, 61, 0
2, 520144, Note_on_c, 0, 64, 74
2, 520212, Note_on_c, 0, 64, 0
2, 520224, Note_on_c, 0, 76, 0
2, 520224, Note_on_c, 0, 68, 0
2, 520224, Note_on_c, 0, 64, 0
2, 520224, Note_on_c, 0, 73, 79
2, 520276, Control_c, 0, 64, 0
2, 520292, Note_on_c, 0, 44, 60
2, 520296, Note_on_c, 0, 52, 68
2, 520300, Note_on_c, 0, 73, 0
2, 520308, Note_on_c, 0, 44, 0
2, 520316, Control_c, 0, 64, 72
2, 520328, Note_on_c, 0, 59, 83
2, 520328, Note_on_c, 0, 56, 74
2, 520328, Control_c, 0, 64, 127
2, 520332, Note_on_c, 0, 52, 0
2, 520380, Note_on_c, 0, 59, 0
2, 520400, Note_on_c, 0, 64, 74
2, 520468, Note_on_c, 0, 64, 0
2, 520468, Note_on_c, 0, 56, 0
2, 520480, Note_on_c, 0, 71, 84
2, 520556, Note_on_c, 0, 71, 0
2, 520564, Note_on_c, 0, 62, 90
2, 520564, Note_on_c, 0, 74, 80
2, 520564, Note_on_c, 0, 71, 70
2, 520564, Note_on_c, 0, 64, 70
2, 520608, Note_on_c, 0, 62, 0
2, 520644, Note_on_c, 0, 64, 67
2, 520704, Note_on_c, 0, 64, 0
2, 520704, Note_on_c, 0, 74, 0
2, 520704, Note_on_c, 0, 71, 0
2, 520724, Note_on_c, 0, 74, 81
2, 520736, Note_on_c, 0, 64, 0
2, 520768, Note_on_c, 0, 52, 67
2, 520768, Note_on_c, 0, 45, 71
2, 520772, Control_c, 0, 64, 56
2, 520780, Control_c, 0, 64, 0
2, 520796, Note_on_c, 0, 45, 0
2, 520800, Note_on_c, 0, 74, 0
2, 520812, Note_on_c, 0, 52, 0
2, 520812, Note_on_c, 0, 61, 85
2, 520812, Note_on_c, 0, 57, 70
2, 520812, Control_c, 0, 64, 72
2, 520824, Control_c, 0, 64, 127
2, 520864, Note_on_c, 0, 61, 0
2, 520892, Note_on_c, 0, 64, 75
2, 520952, Note_on_c, 0, 57, 0
2, 520960, Note_on_c, 0, 64, 0
2, 520976, Note_on_c, 0, 73, 72
2, 521048, Note_on_c, 0, 57, 90
2, 521048, Note_on_c, 0, 64, 70
2, 521048, Note_on_c, 0, 69, 70
2, 521048, Note_on_c, 0, 73, 78
2, 521060, Note_on_c, 0, 73, 0
2, 521092, Note_on_c, 0, 57, 0
2, 521124, Note_on_c, 0, 61, 67
2, 521188, Note_on_c, 0, 73, 0
2, 521188, Note_on_c, 0, 69, 0
2, 521188, Note_on_c, 0, 64, 0
2, 521200, Note_on_c, 0, 61, 0
2, 521204, Note_on_c, 0, 69, 76
2, 521252, Note_on_c, 0, 38, 61
2, 521252, Control_c, 0, 64, 40
2, 521256, Note_on_c, 0, 69, 0
2, 521256, Note_on_c, 0, 45, 71
2, 521264, Control_c, 0, 64, 0
2, 521276, Note_on_c, 0, 45, 0
2, 521280, Note_on_c, 0, 38, 0
2, 521296, Note_on_c, 0, 53, 88
2, 521296, Note_on_c, 0, 50, 74
2, 521296, Control_c, 0, 64, 56
2, 521304, Control_c, 0, 64, 127
2, 521332, Note_on_c, 0, 53, 0
2, 521384, Note_on_c, 0, 57, 60
2, 521436, Note_on_c, 0, 50, 0
2, 521452, Note_on_c, 0, 65, 67
2, 521456, Note_on_c, 0, 57, 0
2, 521524, Note_on_c, 0, 54, 93
2, 521524, Note_on_c, 0, 66, 66
2, 521524, Note_on_c, 0, 69, 71
2, 521524, Note_on_c, 0, 57, 66
2, 521540, Note_on_c, 0, 65, 0
2, 521580, Note_on_c, 0, 54, 0
2, 521600, Note_on_c, 0, 57, 74
2, 521664, Note_on_c, 0, 57, 0
2, 521664, Note_on_c, 0, 69, 0
2, 521664, Note_on_c, 0, 66, 0
2, 521664, Note_on_c, 0, 66, 76
2, 521676, Note_on_c, 0, 57, 0
2, 521712, Note_on_c, 0, 66, 0
2, 521712, Note_on_c, 0, 39, 54
2, 521716, Note_on_c, 0, 47, 63
2, 521716, Control_c, 0, 64, 40
2, 521728, Control_c, 0, 64, 0
2, 521744, Note_on_c, 0, 39, 0
2, 521748, Control_c, 0, 64, 24
2, 521756, Note_on_c, 0, 47, 0
2, 521756, Control_c, 0, 64, 88
2, 521768, Control_c, 0, 64, 127
2, 521772, Note_on_c, 0, 56, 85
2, 521772, Note_on_c, 0, 51, 72
2, 521840, Note_on_c, 0, 56, 0
2, 521848, Note_on_c, 0, 59, 75
2, 521912, Note_on_c, 0, 59, 0
2, 521912, Note_on_c, 0, 51, 0
2, 521916, Note_on_c, 0, 68, 74
2, 521968, Note_on_c, 0, 68, 0
2, 521992, Note_on_c, 0, 57, 89
2, 521992, Note_on_c, 0, 69, 76
2, 521992, Note_on_c, 0, 66, 70
2, 521992, Note_on_c, 0, 59, 65
2, 522040, Note_on_c, 0, 57, 0
2, 522072, Note_on_c, 0, 57, 78
2, 522128, Note_on_c, 0, 57, 0
2, 522132, Note_on_c, 0, 59, 0
2, 522132, Note_on_c, 0, 66, 0
2, 522132, Note_on_c, 0, 69, 0
2, 522152, Note_on_c, 0, 69, 78
2, 522188, Note_on_c, 0, 40, 57
2, 522192, Note_on_c, 0, 49, 57
2, 522192, Control_c, 0, 64, 104
2, 522196, Note_on_c, 0, 69, 0
2, 522200, Control_c, 0, 64, 40
2, 522212, Note_on_c, 0, 40, 0
2, 522212, Control_c, 0, 64, 0
2, 522220, Control_c, 0, 64, 40
2, 522232, Note_on_c, 0, 49, 0
2, 522232, Control_c, 0, 64, 104
2, 522244, Control_c, 0, 64, 127
2, 522248, Note_on_c, 0, 57, 94
2, 522248, Note_on_c, 0, 52, 70
2, 522288, Note_on_c, 0, 57, 0
2, 522344, Note_on_c, 0, 57, 71
2, 522388, Note_on_c, 0, 52, 0
2, 522392, Note_on_c, 0, 57, 0
2, 522404, Note_on_c, 0, 69, 81
2, 522460, Note_on_c, 0, 69, 0
2, 522472, Note_on_c, 0, 49, 88
2, 522472, Note_on_c, 0, 61, 73
2, 522472, Note_on_c, 0, 57, 68
2, 522512, Note_on_c, 0, 49, 0
2, 522556, Note_on_c, 0, 57, 40
2, 522560, Note_on_c, 0, 56, 42
2, 522596, Note_on_c, 0, 56, 0
2, 522612, Note_on_c, 0, 57, 0
2, 522612, Note_on_c, 0, 61, 0
2, 522620, Note_on_c, 0, 57, 0
2, 522628, Note_on_c, 0, 61, 81
2, 522688, Note_on_c, 0, 61, 64
2, 522696, Note_on_c, 0, 61, 0
2, 522696, Note_on_c, 0, 61, 0
2, 522724, Control_c, 0, 64, 104
2, 522736, Control_c, 0, 64, 0
2, 522748, Note_on_c, 0, 50, 85
2, 522748, Note_on_c, 0, 64, 94
2, 522748, Note_on_c, 0, 52, 82
2, 522752, Note_on_c, 0, 59, 81
2, 522756, Note_on_c, 0, 56, 75
2, 522756, Note_on_c, 0, 40, 62
2, 522796, Control_c, 0, 64, 72
2, 522804, Note_on_c, 0, 59, 0
2, 522804, Control_c, 0, 64, 127
2, 522808, Note_on_c, 0, 40, 0
2, 522816, Note_on_c, 0, 50, 0
2, 522824, Note_on_c, 0, 56, 0
2, 522836, Note_on_c, 0, 52, 0
2, 522844, Note_on_c, 0, 64, 0
2, 523024, Note_on_c, 0, 81, 84
2, 523024, Note_on_c, 0, 69, 77
2, 523024, Note_on_c, 0, 73, 77
2, 523024, Note_on_c, 0, 52, 77
2, 523024, Note_on_c, 0, 40, 77
2, 523024, Control_c, 0, 64, 100
2, 523112, Note_on_c, 0, 40, 0
2, 523112, Note_on_c, 0, 73, 0
2, 523112, Note_on_c, 0, 81, 0
2, 523112, Note_on_c, 0, 69, 0
2, 523112, Note_on_c, 0, 52, 0
2, 523192, Note_on_c, 0, 83, 89
2, 523192, Note_on_c, 0, 71, 70
2, 523192, Note_on_c, 0, 76, 70
2, 523192, Note_on_c, 0, 52, 77
2, 523192, Note_on_c, 0, 40, 77
2, 523272, Control_c, 0, 64, 56
2, 523280, Note_on_c, 0, 40, 0
2, 523280, Note_on_c, 0, 76, 0
2, 523280, Note_on_c, 0, 83, 0
2, 523280, Note_on_c, 0, 71, 0
2, 523280, Note_on_c, 0, 52, 0
2, 523284, Control_c, 0, 64, 127
2, 523308, Note_on_c, 0, 45, 93
2, 523308, Note_on_c, 0, 40, 72
2, 523324, Note_on_c, 0, 33, 64
2, 523352, Note_on_c, 0, 85, 97
2, 523352, Note_on_c, 0, 76, 74
2, 523352, Note_on_c, 0, 73, 80
2, 523352, Note_on_c, 0, 33, 80
2, 523408, Note_on_c, 0, 73, 0
2, 523412, Note_on_c, 0, 76, 0
2, 523416, Note_on_c, 0, 52, 86
2, 523432, Note_on_c, 0, 85, 0
2, 523432, Note_on_c, 0, 45, 80
2, 523440, Note_on_c, 0, 33, 0
2, 523512, Note_on_c, 0, 71, 77
2, 523516, Note_on_c, 0, 40, 0
2, 523516, Note_on_c, 0, 33, 0
2, 523516, Note_on_c, 0, 83, 87
2, 523516, Note_on_c, 0, 76, 73
2, 523516, Note_on_c, 0, 33, 80
2, 523536, Note_on_c, 0, 57, 62
2, 523572, Note_on_c, 0, 71, 0
2, 523580, Note_on_c, 0, 83, 0
2, 523580, Note_on_c, 0, 76, 0
2, 523596, Note_on_c, 0, 45, 80
2, 523604, Note_on_c, 0, 33, 0
2, 523628, Note_on_c, 0, 61, 64
2, 523668, Note_on_c, 0, 73, 82
2, 523668, Note_on_c, 0, 85, 93
2, 523672, Note_on_c, 0, 76, 59
2, 523676, Note_on_c, 0, 33, 80
2, 523684, Note_on_c, 0, 45, 0
2, 523692, Note_on_c, 0, 52, 0
2, 523708, Note_on_c, 0, 57, 0
2, 523720, Note_on_c, 0, 73, 0
2, 523736, Note_on_c, 0, 76, 0
2, 523740, Note_on_c, 0, 85, 0
2, 523744, Note_on_c, 0, 64, 70
2, 523756, Note_on_c, 0, 45, 80
2, 523764, Note_on_c, 0, 33, 0
2, 523800, Note_on_c, 0, 61, 0
2, 523804, Note_on_c, 0, 88, 99
2, 523804, Note_on_c, 0, 76, 89
2, 523844, Note_on_c, 0, 45, 0
2, 523852, Note_on_c, 0, 45, 0
2, 523852, Note_on_c, 0, 45, 0
2, 523852, Note_on_c, 0, 52, 70
2, 523860, Note_on_c, 0, 64, 0
2, 523876, Note_on_c, 0, 88, 0
2, 523876, Note_on_c, 0, 76, 0
2, 523936, Note_on_c, 0, 44, 85
2, 523948, Note_on_c, 0, 52, 0
2, 523968, Control_c, 0, 64, 88
2, 523972, Note_on_c, 0, 88, 103
2, 523972, Note_on_c, 0, 40, 82
2, 523976, Note_on_c, 0, 76, 93
2, 523976, Note_on_c, 0, 80, 77
2, 523980, Note_on_c, 0, 83, 84
2, 523984, Control_c, 0, 64, 0
2, 524028, Control_c, 0, 64, 40
2, 524044, Control_c, 0, 64, 127
2, 524048, Note_on_c, 0, 52, 80
2, 524112, Note_on_c, 0, 76, 0
2, 524124, Note_on_c, 0, 88, 0
2, 524132, Note_on_c, 0, 44, 0
2, 524132, Note_on_c, 0, 80, 0
2, 524144, Note_on_c, 0, 40, 0
2, 524144, Note_on_c, 0, 83, 0
2, 524172, Note_on_c, 0, 59, 68
2, 524264, Note_on_c, 0, 62, 73
2, 524276, Note_on_c, 0, 83, 88
2, 524276, Note_on_c, 0, 88, 103
2, 524276, Note_on_c, 0, 76, 94
2, 524276, Note_on_c, 0, 80, 84
2, 524280, Note_on_c, 0, 64, 85
2, 524280, Note_on_c, 0, 52, 82
2, 524292, Note_on_c, 0, 59, 0
2, 524332, Note_on_c, 0, 52, 0
2, 524340, Note_on_c, 0, 52, 0
2, 524364, Note_on_c, 0, 83, 0
2, 524364, Note_on_c, 0, 64, 0
2, 524372, Note_on_c, 0, 76, 0
2, 524372, Note_on_c, 0, 80, 0
2, 524372, Note_on_c, 0, 64, 72
2, 524376, Note_on_c, 0, 88, 0
2, 524412, Note_on_c, 0, 62, 0
2, 524428, Note_on_c, 0, 52, 60
2, 524440, Note_on_c, 0, 64, 89
2, 524448, Note_on_c, 0, 52, 0
2, 524464, Note_on_c, 0, 52, 72
2, 524496, Note_on_c, 0, 64, 0
2, 524556, Note_on_c, 0, 64, 0
2, 524572, Note_on_c, 0, 40, 72
2, 524572, Note_on_c, 0, 45, 89
2, 524572, Control_c, 0, 64, 104
2, 524576, Note_on_c, 0, 52, 0
2, 524584, Note_on_c, 0, 33, 65
2, 524588, Control_c, 0, 64, 24
2, 524592, Note_on_c, 0, 85, 85
2, 524592, Note_on_c, 0, 76, 93
2, 524592, Note_on_c, 0, 81, 86
2, 524592, Note_on_c, 0, 88, 105
2, 524592, Note_on_c, 0, 45, 110
2, 524592, Note_on_c, 0, 33, 87
2, 524600, Control_c, 0, 64, 0
2, 524664, Control_c, 0, 64, 40
2, 524680, Note_on_c, 0, 52, 77
2, 524680, Control_c, 0, 64, 127
2, 524792, Note_on_c, 0, 57, 70
2, 524796, Note_on_c, 0, 33, 0
2, 524816, Note_on_c, 0, 40, 0
2, 524868, Note_on_c, 0, 81, 0
2, 524872, Note_on_c, 0, 61, 68
2, 524880, Note_on_c, 0, 85, 0
2, 524884, Note_on_c, 0, 88, 0
2, 524904, Note_on_c, 0, 76, 0
2, 524904, Note_on_c, 0, 57, 0
2, 524908, Note_on_c, 0, 33, 0
2, 524932, Note_on_c, 0, 45, 0
2, 524944, Note_on_c, 0, 45, 0
2, 524948, Note_on_c, 0, 52, 0
2, 525008, Note_on_c, 0, 33, 62
2, 525012, Note_on_c, 0, 76, 77
2, 525012, Note_on_c, 0, 73, 85
2, 525012, Note_on_c, 0, 85, 90
2, 525016, Note_on_c, 0, 64, 70
2, 525016, Note_on_c, 0, 81, 66
2, 525016, Note_on_c, 0, 45, 89
2, 525048, Note_on_c, 0, 33, 0
2, 525072, Note_on_c, 0, 76, 0
2, 525076, Note_on_c, 0, 61, 0
2, 525080, Note_on_c, 0, 73, 0
2, 525084, Note_on_c, 0, 85, 0
2, 525088, Note_on_c, 0, 81, 0
2, 525100, Note_on_c, 0, 64, 0
2, 525104, Note_on_c, 0, 52, 75
2, 525112, Note_on_c, 0, 45, 0
2, 525160, Note_on_c, 0, 40, 85
2, 525172, Note_on_c, 0, 83, 100
2, 525176, Note_on_c, 0, 80, 77
2, 525176, Note_on_c, 0, 71, 86
2, 525180, Note_on_c, 0, 76, 82
2, 525196, Note_on_c, 0, 44, 88
2, 525204, Note_on_c, 0, 52, 0
2, 525240, Control_c, 0, 64, 72
2, 525256, Control_c, 0, 64, 0
2, 525312, Note_on_c, 0, 52, 77
2, 525316, Control_c, 0, 64, 56
2, 525324, Note_on_c, 0, 76, 0
2, 525328, Control_c, 0, 64, 127
2, 525340, Note_on_c, 0, 80, 0
2, 525340, Note_on_c, 0, 83, 0
2, 525368, Note_on_c, 0, 71, 0
2, 525392, Note_on_c, 0, 44, 0
2, 525412, Note_on_c, 0, 40, 0
2, 525428, Note_on_c, 0, 59, 70
2, 525472, Note_on_c, 0, 81, 92
2, 525472, Note_on_c, 0, 69, 82
2, 525472, Note_on_c, 0, 73, 82
2, 525492, Note_on_c, 0, 40, 73
2, 525492, Note_on_c, 0, 52, 80
2, 525528, Note_on_c, 0, 62, 76
2, 525548, Note_on_c, 0, 81, 0
2, 525552, Note_on_c, 0, 73, 0
2, 525552, Note_on_c, 0, 69, 0
2, 525552, Note_on_c, 0, 59, 0
2, 525572, Note_on_c, 0, 52, 0
2, 525580, Note_on_c, 0, 52, 0
2, 525580, Note_on_c, 0, 40, 0
2, 525624, Note_on_c, 0, 76, 84
2, 525624, Note_on_c, 0, 71, 83
2, 525624, Note_on_c, 0, 83, 94
2, 525628, Note_on_c, 0, 40, 59
2, 525628, Note_on_c, 0, 52, 78
2, 525644, Note_on_c, 0, 64, 77
2, 525656, Note_on_c, 0, 52, 0
2, 525660, Note_on_c, 0, 40, 0
2, 525668, Note_on_c, 0, 62, 0
2, 525688, Note_on_c, 0, 83, 0
2, 525688, Note_on_c, 0, 76, 0
2, 525696, Note_on_c, 0, 71, 0
2, 525724, Note_on_c, 0, 52, 72
2, 525752, Note_on_c, 0, 64, 0
2, 525784, Note_on_c, 0, 33, 87
2, 525792, Note_on_c, 0, 81, 74
2, 525792, Note_on_c, 0, 85, 101
2, 525792, Note_on_c, 0, 73, 83
2, 525816, Note_on_c, 0, 45, 99
2, 525828, Note_on_c, 0, 52, 0
2, 525828, Note_on_c, 0, 33, 75
2, 525828, Control_c, 0, 64, 104
2, 525844, Control_c, 0, 64, 24
2, 525848, Note_on_c, 0, 81, 0
2, 525856, Control_c, 0, 64, 0
2, 525860, Note_on_c, 0, 73, 0
2, 525860, Note_on_c, 0, 33, 0
2, 525860, Note_on_c, 0, 45, 76
2, 525872, Note_on_c, 0, 85, 0
2, 525932, Note_on_c, 0, 52, 75
2, 525936, Control_c, 0, 64, 104
2, 525940, Note_on_c, 0, 45, 0
2, 525940, Note_on_c, 0, 33, 82
2, 525948, Note_on_c, 0, 76, 79
2, 525948, Note_on_c, 0, 71, 75
2, 525948, Note_on_c, 0, 83, 89
2, 525952, Control_c, 0, 64, 127
2, 526012, Note_on_c, 0, 71, 0
2, 526012, Note_on_c, 0, 76, 0
2, 526016, Note_on_c, 0, 83, 0
2, 526020, Note_on_c, 0, 33, 0
2, 526020, Note_on_c, 0, 33, 0
2, 526024, Note_on_c, 0, 57, 69
2, 526024, Note_on_c, 0, 45, 81
2, 526100, Note_on_c, 0, 81, 77
2, 526100, Note_on_c, 0, 85, 90
2, 526100, Note_on_c, 0, 73, 85
2, 526104, Note_on_c, 0, 61, 68
2, 526112, Note_on_c, 0, 33, 82
2, 526120, Note_on_c, 0, 81, 0
2, 526148, Note_on_c, 0, 73, 0
2, 526160, Note_on_c, 0, 85, 0
2, 526172, Note_on_c, 0, 57, 0
2, 526176, Note_on_c, 0, 52, 0
2, 526176, Note_on_c, 0, 45, 0
2, 526176, Note_on_c, 0, 45, 0
2, 526188, Note_on_c, 0, 33, 0
2, 526204, Note_on_c, 0, 45, 82
2, 526228, Note_on_c, 0, 64, 73
2, 526244, Note_on_c, 0, 45, 0
2, 526248, Note_on_c, 0, 85, 85
2, 526248, Note_on_c, 0, 81, 74
2, 526248, Note_on_c, 0, 88, 97
2, 526248, Note_on_c, 0, 76, 92
2, 526272, Note_on_c, 0, 33, 71
2, 526292, Note_on_c, 0, 81, 0
2, 526300, Note_on_c, 0, 85, 0
2, 526308, Note_on_c, 0, 61, 0
2, 526308, Note_on_c, 0, 76, 0
2, 526332, Note_on_c, 0, 64, 0
2, 526332, Note_on_c, 0, 45, 70
2, 526336, Note_on_c, 0, 88, 0
2, 526340, Note_on_c, 0, 52, 80
2, 526384, Note_on_c, 0, 45, 0
2, 526384, Note_on_c, 0, 33, 0
2, 526392, Note_on_c, 0, 76, 107
2, 526392, Note_on_c, 0, 80, 89
2, 526392, Note_on_c, 0, 83, 99
2, 526392, Note_on_c, 0, 88, 107
2, 526420, Note_on_c, 0, 40, 86
2, 526432, Note_on_c, 0, 52, 0
2, 526436, Note_on_c, 0, 44, 89
2, 526464, Control_c, 0, 64, 72
2, 526480, Control_c, 0, 64, 0
2, 526504, Note_on_c, 0, 80, 0
2, 526512, Note_on_c, 0, 76, 0
2, 526520, Note_on_c, 0, 83, 0
2, 526524, Control_c, 0, 64, 40
2, 526532, Note_on_c, 0, 88, 0
2, 526540, Control_c, 0, 64, 104
2, 526544, Note_on_c, 0, 52, 81
2, 526556, Control_c, 0, 64, 127
2, 526596, Note_on_c, 0, 44, 0
2, 526620, Note_on_c, 0, 40, 0
2, 526652, Note_on_c, 0, 59, 75
2, 526712, Note_on_c, 0, 80, 77
2, 526712, Note_on_c, 0, 83, 83
2, 526712, Note_on_c, 0, 76, 92
2, 526712, Note_on_c, 0, 88, 97
2, 526712, Note_on_c, 0, 64, 85
2, 526716, Note_on_c, 0, 52, 70
2, 526744, Note_on_c, 0, 62, 74
2, 526772, Note_on_c, 0, 59, 0
2, 526776, Note_on_c, 0, 52, 0
2, 526792, Note_on_c, 0, 64, 0
2, 526804, Note_on_c, 0, 83, 0
2, 526804, Note_on_c, 0, 80, 0
2, 526808, Note_on_c, 0, 76, 0
2, 526808, Note_on_c, 0, 52, 0
2, 526832, Note_on_c, 0, 88, 0
2, 526852, Note_on_c, 0, 64, 77
2, 526860, Note_on_c, 0, 64, 86
2, 526864, Note_on_c, 0, 52, 82
2, 526884, Note_on_c, 0, 62, 0
2, 526916, Note_on_c, 0, 52, 0
2, 526928, Note_on_c, 0, 64, 0
2, 526944, Note_on_c, 0, 52, 74
2, 526956, Note_on_c, 0, 64, 0
2, 527024, Note_on_c, 0, 45, 107
2, 527028, Note_on_c, 0, 81, 90
2, 527028, Note_on_c, 0, 76, 100
2, 527028, Note_on_c, 0, 85, 90
2, 527028, Note_on_c, 0, 88, 110
2, 527028, Note_on_c, 0, 33, 86
2, 527036, Note_on_c, 0, 52, 0
2, 527044, Note_on_c, 0, 45, 90
2, 527044, Note_on_c, 0, 40, 78
2, 527048, Note_on_c, 0, 33, 72
2, 527052, Control_c, 0, 64, 40
2, 527068, Control_c, 0, 64, 0
2, 527144, Control_c, 0, 64, 88
2, 527152, Note_on_c, 0, 52, 82
2, 527160, Control_c, 0, 64, 127
2, 527188, Note_on_c, 0, 33, 0
2, 527196, Note_on_c, 0, 40, 0
2, 527260, Note_on_c, 0, 57, 70
2, 527276, Note_on_c, 0, 45, 0
2, 527328, Note_on_c, 0, 61, 70
2, 527352, Note_on_c, 0, 81, 0
2, 527360, Note_on_c, 0, 85, 0
2, 527364, Note_on_c, 0, 88, 0
2, 527376, Note_on_c, 0, 52, 0
2, 527380, Note_on_c, 0, 57, 0
2, 527392, Note_on_c, 0, 76, 0
2, 527392, Note_on_c, 0, 33, 0
2, 527404, Note_on_c, 0, 45, 0
2, 527452, Note_on_c, 0, 64, 71
2, 527472, Note_on_c, 0, 85, 86
2, 527480, Note_on_c, 0, 73, 84
2, 527488, Note_on_c, 0, 33, 78
2, 527488, Note_on_c, 0, 45, 88
2, 527492, Note_on_c, 0, 76, 74
2, 527496, Note_on_c, 0, 61, 0
2, 527508, Note_on_c, 0, 76, 0
2, 527540, Note_on_c, 0, 33, 0
2, 527540, Note_on_c, 0, 52, 73
2, 527544, Note_on_c, 0, 64, 0
2, 527556, Note_on_c, 0, 73, 0
2, 527556, Note_on_c, 0, 85, 0
2, 527576, Note_on_c, 0, 45, 0
2, 527624, Note_on_c, 0, 83, 96
2, 527628, Note_on_c, 0, 80, 75
2, 527628, Note_on_c, 0, 71, 82
2, 527632, Note_on_c, 0, 76, 70
2, 527644, Note_on_c, 0, 52, 0
2, 527644, Note_on_c, 0, 52, 87
2, 527648, Note_on_c, 0, 44, 86
2, 527648, Note_on_c, 0, 40, 82
2, 527672, Control_c, 0, 64, 72
2, 527688, Control_c, 0, 64, 0
2, 527732, Control_c, 0, 64, 40
2, 527748, Control_c, 0, 64, 104
2, 527756, Note_on_c, 0, 71, 0
2, 527764, Note_on_c, 0, 52, 75
2, 527764, Control_c, 0, 64, 127
2, 527772, Note_on_c, 0, 76, 0
2, 527784, Note_on_c, 0, 80, 0
2, 527800, Note_on_c, 0, 83, 0
2, 527804, Note_on_c, 0, 44, 0
2, 527844, Note_on_c, 0, 40, 0
2, 527848, Note_on_c, 0, 52, 0
2, 527876, Note_on_c, 0, 59, 66
2, 527932, Note_on_c, 0, 76, 99
2, 527952, Note_on_c, 0, 52, 84
2, 527952, Note_on_c, 0, 40, 73
2, 527968, Note_on_c, 0, 62, 71
2, 527968, Note_on_c, 0, 64, 39
2, 527992, Note_on_c, 0, 64, 0
2, 528000, Note_on_c, 0, 59, 0
2, 528032, Note_on_c, 0, 40, 0
2, 528032, Note_on_c, 0, 52, 0
2, 528060, Note_on_c, 0, 76, 0
2, 528064, Note_on_c, 0, 52, 0
2, 528064, Note_on_c, 0, 88, 99
2, 528080, Note_on_c, 0, 64, 71
2, 528108, Note_on_c, 0, 62, 0
2, 528164, Note_on_c, 0, 88, 0
2, 528164, Note_on_c, 0, 52, 74
2, 528176, Note_on_c, 0, 64, 0
2, 528220, Note_on_c, 0, 57, 82
2, 528224, Note_on_c, 0, 45, 83
2, 528232, Note_on_c, 0, 88, 109
2, 528236, Note_on_c, 0, 76, 99
2, 528236, Note_on_c, 0, 85, 87
2, 528240, Note_on_c, 0, 81, 82
2, 528260, Note_on_c, 0, 52, 0
2, 528292, Note_on_c, 0, 45, 94
2, 528292, Control_c, 0, 64, 104
2, 528296, Note_on_c, 0, 33, 74
2, 528308, Control_c, 0, 64, 0
2, 528352, Note_on_c, 0, 57, 0
2, 528368, Control_c, 0, 64, 40
2, 528384, Note_on_c, 0, 61, 64
2, 528384, Control_c, 0, 64, 127
2, 528388, Note_on_c, 0, 57, 61
2, 528400, Note_on_c, 0, 52, 79
2, 528428, Note_on_c, 0, 45, 0
2, 528432, Note_on_c, 0, 33, 0
2, 528440, Note_on_c, 0, 57, 0
2, 528460, Note_on_c, 0, 64, 72
2, 528468, Note_on_c, 0, 61, 0
2, 528468, Note_on_c, 0, 45, 0
2, 528500, Note_on_c, 0, 57, 67
2, 528528, Note_on_c, 0, 64, 0
2, 528528, Note_on_c, 0, 57, 61
2, 528528, Note_on_c, 0, 61, 65
2, 528572, Note_on_c, 0, 61, 69
2, 528580, Note_on_c, 0, 57, 0
2, 528596, Note_on_c, 0, 52, 0
2, 528596, Note_on_c, 0, 64, 75
2, 528600, Note_on_c, 0, 61, 0
2, 528616, Note_on_c, 0, 57, 0
2, 528672, Note_on_c, 0, 64, 0
2, 528672, Note_on_c, 0, 61, 63
2, 528672, Note_on_c, 0, 57, 60
2, 528704, Note_on_c, 0, 64, 60
2, 528724, Note_on_c, 0, 57, 0
2, 528744, Note_on_c, 0, 61, 0
2, 528744, Note_on_c, 0, 61, 0
2, 528744, Note_on_c, 0, 64, 77
2, 528772, Note_on_c, 0, 52, 67
2, 528788, Note_on_c, 0, 64, 0
2, 528812, Note_on_c, 0, 64, 0
2, 528816, Note_on_c, 0, 61, 77
2, 528820, Note_on_c, 0, 57, 72
2, 528868, Note_on_c, 0, 57, 0
2, 528884, Note_on_c, 0, 52, 0
2, 528884, Note_on_c, 0, 64, 73
2, 528892, Note_on_c, 0, 61, 0
2, 528900, Note_on_c, 0, 45, 94
2, 528956, Note_on_c, 0, 64, 0
2, 528964, Note_on_c, 0, 57, 55
2, 528964, Note_on_c, 0, 61, 61
2, 528988, Note_on_c, 0, 45, 0
2, 529012, Note_on_c, 0, 52, 70
2, 529020, Note_on_c, 0, 57, 0
2, 529040, Note_on_c, 0, 61, 0
2, 529044, Note_on_c, 0, 64, 66
2, 529092, Note_on_c, 0, 57, 66
2, 529132, Note_on_c, 0, 64, 0
2, 529140, Note_on_c, 0, 61, 57
2, 529140, Note_on_c, 0, 57, 49
2, 529160, Note_on_c, 0, 61, 64
2, 529180, Note_on_c, 0, 52, 0
2, 529216, Note_on_c, 0, 61, 0
2, 529216, Note_on_c, 0, 57, 0
2, 529216, Note_on_c, 0, 57, 0
2, 529216, Note_on_c, 0, 61, 0
2, 529220, Note_on_c, 0, 64, 64
2, 529280, Note_on_c, 0, 64, 0
2, 529280, Note_on_c, 0, 85, 0
2, 529284, Note_on_c, 0, 88, 0
2, 529300, Note_on_c, 0, 61, 46
2, 529300, Note_on_c, 0, 57, 46
2, 529304, Note_on_c, 0, 76, 0
2, 529304, Note_on_c, 0, 64, 71
2, 529344, Note_on_c, 0, 81, 0
2, 529344, Note_on_c, 0, 57, 0
2, 529364, Note_on_c, 0, 61, 0
2, 529372, Note_on_c, 0, 64, 63
2, 529404, Note_on_c, 0, 52, 77
2, 529424, Note_on_c, 0, 64, 0
2, 529464, Note_on_c, 0, 52, 0
2, 529508, Note_on_c, 0, 89, 112
2, 529512, Note_on_c, 0, 77, 100
2, 529516, Note_on_c, 0, 87, 80
2, 529516, Note_on_c, 0, 81, 85
2, 529520, Note_on_c, 0, 84, 82
2, 529528, Note_on_c, 0, 64, 0
2, 529528, Note_on_c, 0, 41, 87
2, 529532, Note_on_c, 0, 53, 74
2, 529536, Note_on_c, 0, 29, 85
2, 529540, Note_on_c, 0, 41, 62
2, 529544, Control_c, 0, 64, 88
2, 529560, Control_c, 0, 64, 0
2, 529628, Note_on_c, 0, 57, 81
2, 529640, Control_c, 0, 64, 56
2, 529656, Control_c, 0, 64, 127
2, 529708, Note_on_c, 0, 29, 0
2, 529708, Note_on_c, 0, 63, 64
2, 529716, Note_on_c, 0, 60, 62
2, 529740, Note_on_c, 0, 60, 75
2, 529756, Note_on_c, 0, 41, 0
2, 529756, Note_on_c, 0, 41, 0
2, 529760, Note_on_c, 0, 60, 0
2, 529776, Note_on_c, 0, 63, 0
2, 529784, Note_on_c, 0, 65, 67
2, 529808, Note_on_c, 0, 57, 0
2, 529824, Note_on_c, 0, 63, 69
2, 529852, Note_on_c, 0, 60, 63
2, 529852, Note_on_c, 0, 63, 62
2, 529856, Note_on_c, 0, 65, 0
2, 529864, Note_on_c, 0, 60, 0
2, 529900, Note_on_c, 0, 60, 0
2, 529920, Note_on_c, 0, 63, 0
2, 529920, Note_on_c, 0, 65, 74
2, 529932, Note_on_c, 0, 69, 70
2, 529980, Note_on_c, 0, 63, 0
2, 529996, Note_on_c, 0, 60, 60
2, 530000, Note_on_c, 0, 63, 69
2, 530004, Note_on_c, 0, 65, 0
2, 530020, Note_on_c, 0, 57, 76
2, 530040, Note_on_c, 0, 60, 0
2, 530044, Note_on_c, 0, 69, 0
2, 530064, Note_on_c, 0, 63, 0
2, 530064, Note_on_c, 0, 65, 71
2, 530140, Note_on_c, 0, 57, 0
2, 530140, Note_on_c, 0, 63, 78
2, 530144, Note_on_c, 0, 65, 0
2, 530144, Note_on_c, 0, 53, 97
2, 530144, Note_on_c, 0, 60, 72
2, 530188, Note_on_c, 0, 60, 0
2, 530216, Note_on_c, 0, 63, 0
2, 530216, Note_on_c, 0, 65, 71
2, 530256, Note_on_c, 0, 57, 75
2, 530292, Note_on_c, 0, 65, 0
2, 530296, Note_on_c, 0, 60, 60
2, 530300, Note_on_c, 0, 63, 60
2, 530340, Note_on_c, 0, 60, 0
2, 530360, Note_on_c, 0, 63, 0
2, 530360, Note_on_c, 0, 60, 75
2, 530368, Note_on_c, 0, 65, 63
2, 530376, Note_on_c, 0, 53, 0
2, 530436, Note_on_c, 0, 65, 0
2, 530436, Note_on_c, 0, 63, 70
2, 530452, Note_on_c, 0, 60, 67
2, 530452, Note_on_c, 0, 63, 64
2, 530456, Note_on_c, 0, 57, 0
2, 530472, Note_on_c, 0, 60, 0
2, 530500, Note_on_c, 0, 60, 0
2, 530516, Note_on_c, 0, 63, 0
2, 530520, Note_on_c, 0, 65, 68
2, 530548, Note_on_c, 0, 69, 76
2, 530552, Note_on_c, 0, 53, 0
2, 530596, Note_on_c, 0, 63, 0
2, 530600, Note_on_c, 0, 60, 66
2, 530600, Note_on_c, 0, 63, 65
2, 530604, Note_on_c, 0, 65, 0
2, 530616, Note_on_c, 0, 81, 0
2, 530624, Note_on_c, 0, 84, 0
2, 530644, Note_on_c, 0, 60, 0
2, 530656, Note_on_c, 0, 57, 68
2, 530660, Note_on_c, 0, 87, 0
2, 530668, Note_on_c, 0, 65, 70
2, 530672, Note_on_c, 0, 63, 0
2, 530712, Note_on_c, 0, 65, 0
2, 530736, Note_on_c, 0, 57, 0
2, 530744, Note_on_c, 0, 69, 0
2, 530764, Note_on_c, 0, 34, 76
2, 530764, Note_on_c, 0, 46, 91
2, 530764, Note_on_c, 0, 46, 90
2, 530768, Note_on_c, 0, 34, 71
2, 530780, Note_on_c, 0, 82, 69
2, 530784, Note_on_c, 0, 86, 74
2, 530788, Control_c, 0, 64, 24
2, 530800, Control_c, 0, 64, 0
2, 530868, Note_on_c, 0, 89, 0
2, 530876, Control_c, 0, 64, 56
2, 530884, Note_on_c, 0, 58, 69
2, 530896, Control_c, 0, 64, 127
2, 530924, Note_on_c, 0, 77, 0
2, 530956, Note_on_c, 0, 58, 46
2, 530956, Note_on_c, 0, 53, 55
2, 530984, Note_on_c, 0, 53, 0
2, 530992, Note_on_c, 0, 62, 72
2, 531000, Note_on_c, 0, 86, 0
2, 531008, Note_on_c, 0, 58, 0
2, 531012, Note_on_c, 0, 62, 68
2, 531028, Note_on_c, 0, 58, 0
2, 531040, Note_on_c, 0, 34, 0
2, 531068, Note_on_c, 0, 82, 0
2, 531076, Note_on_c, 0, 62, 0
2, 531084, Note_on_c, 0, 65, 74
2, 531084, Note_on_c, 0, 86, 97
2, 531088, Note_on_c, 0, 74, 92
2, 531092, Note_on_c, 0, 46, 0
2, 531096, Note_on_c, 0, 53, 65
2, 531096, Note_on_c, 0, 58, 60
2, 531136, Note_on_c, 0, 62, 0
2, 531144, Note_on_c, 0, 53, 0
2, 531160, Note_on_c, 0, 58, 0
2, 531160, Note_on_c, 0, 62, 70
2, 531172, Note_on_c, 0, 70, 76
2, 531220, Note_on_c, 0, 65, 0
2, 531228, Note_on_c, 0, 62, 0
2, 531240, Note_on_c, 0, 53, 61
2, 531244, Note_on_c, 0, 34, 0
2, 531244, Note_on_c, 0, 58, 57
2, 531264, Note_on_c, 0, 58, 70
2, 531280, Note_on_c, 0, 46, 0
2, 531288, Note_on_c, 0, 53, 0
2, 531304, Note_on_c, 0, 62, 73
2, 531308, Note_on_c, 0, 58, 0
2, 531336, Note_on_c, 0, 74, 0
2, 531344, Note_on_c, 0, 86, 0
2, 531352, Note_on_c, 0, 70, 0
2, 531364, Note_on_c, 0, 62, 0
2, 531372, Note_on_c, 0, 58, 0
2, 531376, Note_on_c, 0, 53, 97
2, 531392, Note_on_c, 0, 50, 92
2, 531392, Note_on_c, 0, 38, 81
2, 531400, Note_on_c, 0, 84, 105
2, 531400, Note_on_c, 0, 72, 97
2, 531496, Note_on_c, 0, 58, 71
2, 531532, Note_on_c, 0, 53, 0
2, 531560, Note_on_c, 0, 58, 49
2, 531564, Note_on_c, 0, 53, 60
2, 531584, Note_on_c, 0, 72, 0
2, 531604, Note_on_c, 0, 62, 68
2, 531608, Note_on_c, 0, 53, 0
2, 531624, Note_on_c, 0, 58, 0
2, 531628, Note_on_c, 0, 62, 69
2, 531644, Note_on_c, 0, 58, 0
2, 531676, Note_on_c, 0, 84, 0
2, 531692, Note_on_c, 0, 62, 0
2, 531696, Note_on_c, 0, 65, 70
2, 531704, Note_on_c, 0, 70, 78
2, 531708, Note_on_c, 0, 82, 86
2, 531712, Note_on_c, 0, 58, 63
2, 531712, Note_on_c, 0, 53, 66
2, 531740, Note_on_c, 0, 62, 0
2, 531768, Note_on_c, 0, 53, 0
2, 531784, Note_on_c, 0, 58, 0
2, 531788, Note_on_c, 0, 62, 77
2, 531792, Note_on_c, 0, 70, 73
2, 531816, Note_on_c, 0, 70, 0
2, 531820, Note_on_c, 0, 38, 0
2, 531840, Note_on_c, 0, 65, 0
2, 531848, Note_on_c, 0, 62, 0
2, 531856, Note_on_c, 0, 53, 67
2, 531864, Note_on_c, 0, 58, 58
2, 531868, Note_on_c, 0, 82, 0
2, 531876, Note_on_c, 0, 50, 0
2, 531880, Note_on_c, 0, 58, 71
2, 531908, Note_on_c, 0, 70, 0
2, 531916, Note_on_c, 0, 53, 0
2, 531932, Note_on_c, 0, 62, 72
2, 531936, Note_on_c, 0, 58, 0
2, 531972, Note_on_c, 0, 62, 0
2, 531980, Note_on_c, 0, 58, 0
2, 532008, Note_on_c, 0, 40, 89
2, 532008, Note_on_c, 0, 28, 87
2, 532008, Note_on_c, 0, 88, 105
2, 532008, Note_on_c, 0, 80, 73
2, 532008, Note_on_c, 0, 76, 85
2, 532008, Note_on_c, 0, 83, 84
2, 532016, Note_on_c, 0, 52, 82
2, 532020, Note_on_c, 0, 40, 68
2, 532024, Control_c, 0, 64, 88
2, 532040, Control_c, 0, 64, 0
2, 532108, Note_on_c, 0, 59, 78
2, 532132, Control_c, 0, 64, 72
2, 532148, Control_c, 0, 64, 127
2, 532168, Note_on_c, 0, 56, 61
2, 532180, Note_on_c, 0, 59, 67
2, 532196, Note_on_c, 0, 28, 0
2, 532216, Note_on_c, 0, 62, 74
2, 532232, Note_on_c, 0, 56, 0
2, 532244, Note_on_c, 0, 40, 0
2, 532244, Note_on_c, 0, 40, 0
2, 532252, Note_on_c, 0, 64, 72
2, 532308, Note_on_c, 0, 64, 77
2, 532312, Note_on_c, 0, 64, 0
2, 532324, Note_on_c, 0, 56, 61
2, 532332, Note_on_c, 0, 59, 69
2, 532356, Note_on_c, 0, 59, 0
2, 532356, Note_on_c, 0, 59, 0
2, 532356, Note_on_c, 0, 62, 0
2, 532380, Note_on_c, 0, 56, 0
2, 532396, Note_on_c, 0, 59, 0
2, 532396, Note_on_c, 0, 64, 77
2, 532420, Note_on_c, 0, 68, 77
2, 532436, Note_on_c, 0, 52, 0
2, 532444, Note_on_c, 0, 64, 0
2, 532460, Note_on_c, 0, 64, 0
2, 532464, Note_on_c, 0, 76, 0
2, 532464, Note_on_c, 0, 56, 68
2, 532468, Note_on_c, 0, 80, 0
2, 532472, Note_on_c, 0, 59, 57
2, 532480, Note_on_c, 0, 83, 0
2, 532484, Note_on_c, 0, 88, 0
2, 532516, Note_on_c, 0, 59, 82
2, 532520, Note_on_c, 0, 68, 0
2, 532520, Note_on_c, 0, 56, 0
2, 532536, Note_on_c, 0, 64, 67
2, 532544, Note_on_c, 0, 59, 0
2, 532580, Note_on_c, 0, 64, 0
2, 532608, Note_on_c, 0, 59, 0
2, 532612, Note_on_c, 0, 88, 97
2, 532616, Note_on_c, 0, 76, 89
2, 532616, Note_on_c, 0, 56, 89
2, 532620, Note_on_c, 0, 80, 80
2, 532620, Note_on_c, 0, 83, 90
2, 532620, Note_on_c, 0, 44, 73
2, 532636, Note_on_c, 0, 52, 94
2, 532724, Note_on_c, 0, 59, 79
2, 532748, Note_on_c, 0, 52, 0
2, 532772, Note_on_c, 0, 59, 62
2, 532820, Note_on_c, 0, 62, 73
2, 532832, Note_on_c, 0, 76, 0
2, 532848, Note_on_c, 0, 59, 0
2, 532852, Note_on_c, 0, 64, 68
2, 532884, Note_on_c, 0, 59, 0
2, 532916, Note_on_c, 0, 64, 78
2, 532920, Note_on_c, 0, 64, 0
2, 532932, Note_on_c, 0, 76, 97
2, 532940, Note_on_c, 0, 59, 66
2, 532948, Note_on_c, 0, 62, 0
2, 532964, Note_on_c, 0, 80, 0
2, 533016, Note_on_c, 0, 59, 0
2, 533020, Note_on_c, 0, 64, 71
2, 533028, Note_on_c, 0, 76, 0
2, 533036, Note_on_c, 0, 68, 63
2, 533064, Note_on_c, 0, 64, 0
2, 533072, Note_on_c, 0, 76, 87
2, 533080, Note_on_c, 0, 64, 0
2, 533084, Note_on_c, 0, 59, 67
2, 533088, Note_on_c, 0, 83, 0
2, 533116, Note_on_c, 0, 44, 0
2, 533120, Note_on_c, 0, 59, 62
2, 533140, Note_on_c, 0, 68, 0
2, 533144, Note_on_c, 0, 59, 0
2, 533148, Note_on_c, 0, 64, 74
2, 533160, Note_on_c, 0, 56, 0
2, 533180, Note_on_c, 0, 88, 0
2, 533184, Note_on_c, 0, 64, 0
2, 533184, Note_on_c, 0, 76, 0
2, 533204, Note_on_c, 0, 59, 0
2, 533236, Note_on_c, 0, 57, 82
2, 533240, Note_on_c, 0, 45, 97
2, 533240, Note_on_c, 0, 88, 97
2, 533240, Note_on_c, 0, 45, 82
2, 533244, Note_on_c, 0, 76, 90
2, 533244, Note_on_c, 0, 85, 81
2, 533248, Note_on_c, 0, 33, 75
2, 533248, Note_on_c, 0, 81, 78
2, 533248, Control_c, 0, 64, 88
2, 533264, Control_c, 0, 64, 0
2, 533344, Note_on_c, 0, 57, 67
2, 533360, Control_c, 0, 64, 56
2, 533372, Control_c, 0, 64, 127
2, 533388, Note_on_c, 0, 57, 0
2, 533400, Note_on_c, 0, 61, 71
2, 533408, Note_on_c, 0, 57, 38
2, 533424, Note_on_c, 0, 33, 0
2, 533436, Note_on_c, 0, 61, 67
2, 533452, Note_on_c, 0, 57, 0
2, 533464, Note_on_c, 0, 61, 0
2, 533472, Note_on_c, 0, 64, 66
2, 533484, Note_on_c, 0, 45, 0
2, 533544, Note_on_c, 0, 64, 74
2, 533548, Note_on_c, 0, 64, 0
2, 533548, Note_on_c, 0, 61, 68
2, 533552, Note_on_c, 0, 57, 56
2, 533584, Note_on_c, 0, 61, 0
2, 533596, Note_on_c, 0, 57, 0
2, 533604, Note_on_c, 0, 57, 0
2, 533616, Note_on_c, 0, 61, 0
2, 533620, Note_on_c, 0, 64, 70
2, 533652, Note_on_c, 0, 69, 66
2, 533692, Note_on_c, 0, 64, 0
2, 533696, Note_on_c, 0, 64, 0
2, 533700, Note_on_c, 0, 61, 61
2, 533700, Note_on_c, 0, 57, 54
2, 533752, Note_on_c, 0, 57, 0
2, 533756, Note_on_c, 0, 69, 0
2, 533756, Note_on_c, 0, 57, 70
2, 533764, Note_on_c, 0, 61, 0
2, 533768, Note_on_c, 0, 64, 74
2, 533836, Note_on_c, 0, 64, 0
2, 533848, Note_on_c, 0, 61, 77
2, 533848, Note_on_c, 0, 57, 70
2, 533864, Note_on_c, 0, 57, 0
2, 533876, Note_on_c, 0, 52, 93
2, 533912, Note_on_c, 0, 57, 0
2, 533916, Note_on_c, 0, 61, 0
2, 533920, Note_on_c, 0, 64, 76
2, 533932, Note_on_c, 0, 45, 0
2, 533980, Note_on_c, 0, 57, 77
2, 533996, Note_on_c, 0, 64, 0
2, 534004, Note_on_c, 0, 57, 53
2, 534004, Note_on_c, 0, 61, 62
2, 534048, Note_on_c, 0, 52, 0
2, 534060, Note_on_c, 0, 57, 0
2, 534064, Note_on_c, 0, 61, 68
2, 534076, Note_on_c, 0, 61, 0
2, 534084, Note_on_c, 0, 64, 74
2, 534156, Note_on_c, 0, 64, 0
2, 534164, Note_on_c, 0, 57, 66
2, 534168, Note_on_c, 0, 61, 68
2, 534172, Note_on_c, 0, 64, 81
2, 534184, Note_on_c, 0, 57, 0
2, 534200, Note_on_c, 0, 61, 0
2, 534228, Note_on_c, 0, 57, 0
2, 534232, Note_on_c, 0, 61, 0
2, 534236, Note_on_c, 0, 64, 75
2, 534240, Note_on_c, 0, 85, 0
2, 534252, Note_on_c, 0, 76, 0
2, 534276, Note_on_c, 0, 88, 0
2, 534280, Note_on_c, 0, 69, 71
2, 534304, Note_on_c, 0, 64, 0
2, 534304, Note_on_c, 0, 64, 0
2, 534312, Note_on_c, 0, 61, 64
2, 534312, Note_on_c, 0, 57, 57
2, 534344, Note_on_c, 0, 57, 74
2, 534364, Note_on_c, 0, 69, 0
2, 534368, Note_on_c, 0, 57, 0
2, 534376, Note_on_c, 0, 61, 0
2, 534376, Note_on_c, 0, 64, 69
2, 534420, Note_on_c, 0, 64, 0
2, 534460, Note_on_c, 0, 81, 0
2, 534460, Note_on_c, 0, 57, 0
2, 534484, Note_on_c, 0, 41, 80
2, 534488, Note_on_c, 0, 53, 93
2, 534496, Note_on_c, 0, 41, 99
2, 534496, Note_on_c, 0, 29, 79
2, 534496, Note_on_c, 0, 89, 108
2, 534496, Note_on_c, 0, 81, 87
2, 534500, Note_on_c, 0, 77, 94
2, 534504, Note_on_c, 0, 87, 73
2, 534504, Control_c, 0, 64, 0
2, 534508, Note_on_c, 0, 84, 74
2, 534596, Control_c, 0, 64, 104
2, 534612, Control_c, 0, 64, 127
2, 534616, Note_on_c, 0, 57, 76
2, 534680, Note_on_c, 0, 63, 69
2, 534684, Note_on_c, 0, 60, 66
2, 534712, Note_on_c, 0, 60, 76
2, 534740, Note_on_c, 0, 60, 0
2, 534748, Note_on_c, 0, 63, 0
2, 534748, Note_on_c, 0, 65, 73
2, 534776, Note_on_c, 0, 29, 0
2, 534792, Note_on_c, 0, 63, 71
2, 534812, Note_on_c, 0, 65, 0
2, 534816, Note_on_c, 0, 63, 76
2, 534820, Note_on_c, 0, 60, 73
2, 534828, Note_on_c, 0, 57, 0
2, 534828, Note_on_c, 0, 41, 0
2, 534844, Note_on_c, 0, 60, 0
2, 534872, Note_on_c, 0, 60, 0
2, 534888, Note_on_c, 0, 63, 0
2, 534888, Note_on_c, 0, 65, 78
2, 534896, Note_on_c, 0, 69, 72
2, 534952, Note_on_c, 0, 63, 0
2, 534960, Note_on_c, 0, 65, 0
2, 534964, Note_on_c, 0, 63, 71
2, 534972, Note_on_c, 0, 60, 66
2, 535000, Note_on_c, 0, 69, 0
2, 535004, Note_on_c, 0, 57, 66
2, 535016, Note_on_c, 0, 60, 0
2, 535036, Note_on_c, 0, 63, 0
2, 535036, Note_on_c, 0, 65, 79
2, 535108, Note_on_c, 0, 65, 0
2, 535112, Note_on_c, 0, 53, 90
2, 535116, Note_on_c, 0, 57, 0
2, 535120, Note_on_c, 0, 63, 80
2, 535124, Note_on_c, 0, 60, 79
2, 535184, Note_on_c, 0, 60, 0
2, 535192, Note_on_c, 0, 65, 78
2, 535200, Note_on_c, 0, 63, 0
2, 535208, Note_on_c, 0, 57, 77
2, 535248, Note_on_c, 0, 53, 0
2, 535260, Note_on_c, 0, 65, 0
2, 535268, Note_on_c, 0, 63, 75
2, 535272, Note_on_c, 0, 60, 69
2, 535312, Note_on_c, 0, 60, 75
2, 535324, Note_on_c, 0, 60, 0
2, 535336, Note_on_c, 0, 63, 0
2, 535340, Note_on_c, 0, 65, 79
2, 535380, Note_on_c, 0, 63, 69
2, 535388, Note_on_c, 0, 57, 0
2, 535408, Note_on_c, 0, 65, 0
2, 535408, Note_on_c, 0, 63, 75
2, 535416, Note_on_c, 0, 60, 68
2, 535432, Note_on_c, 0, 60, 0
2, 535460, Note_on_c, 0, 60, 0
2, 535476, Note_on_c, 0, 87, 0
2, 535476, Note_on_c, 0, 63, 0
2, 535476, Note_on_c, 0, 65, 75
2, 535484, Note_on_c, 0, 81, 0
2, 535492, Note_on_c, 0, 69, 76
2, 535512, Note_on_c, 0, 53, 0
2, 535536, Note_on_c, 0, 63, 0
2, 535544, Note_on_c, 0, 41, 0
2, 535548, Note_on_c, 0, 65, 0
2, 535552, Note_on_c, 0, 63, 69
2, 535556, Note_on_c, 0, 60, 63
2, 535588, Note_on_c, 0, 84, 0
2, 535608, Note_on_c, 0, 60, 0
2, 535612, Note_on_c, 0, 57, 67
2, 535624, Note_on_c, 0, 65, 76
2, 535632, Note_on_c, 0, 63, 0
2, 535672, Note_on_c, 0, 65, 0
2, 535692, Note_on_c, 0, 57, 0
2, 535700, Note_on_c, 0, 69, 0
2, 535716, Note_on_c, 0, 86, 52
2, 535724, Note_on_c, 0, 82, 31
2, 535724, Note_on_c, 0, 46, 90
2, 535728, Note_on_c, 0, 34, 73
2, 535736, Note_on_c, 0, 46, 91
2, 535744, Note_on_c, 0, 34, 79
2, 535744, Control_c, 0, 64, 88
2, 535760, Control_c, 0, 64, 0
2, 535808, Note_on_c, 0, 86, 0
2, 535808, Note_on_c, 0, 89, 0
2, 535856, Note_on_c, 0, 77, 0
2, 535856, Note_on_c, 0, 58, 72
2, 535864, Control_c, 0, 64, 127
2, 535964, Note_on_c, 0, 62, 70
2, 535976, Note_on_c, 0, 34, 0
2, 535976, Note_on_c, 0, 34, 0
2, 536000, Note_on_c, 0, 58, 62
2, 536004, Note_on_c, 0, 53, 60
2, 536008, Note_on_c, 0, 58, 0
2, 536012, Note_on_c, 0, 46, 0
2, 536012, Note_on_c, 0, 46, 0
2, 536036, Note_on_c, 0, 82, 0
2, 536048, Note_on_c, 0, 86, 89
2, 536048, Note_on_c, 0, 74, 82
2, 536056, Note_on_c, 0, 53, 0
2, 536056, Note_on_c, 0, 65, 68
2, 536076, Note_on_c, 0, 58, 0
2, 536080, Note_on_c, 0, 62, 66
2, 536100, Note_on_c, 0, 62, 0
2, 536144, Note_on_c, 0, 62, 0
2, 536152, Note_on_c, 0, 70, 71
2, 536168, Note_on_c, 0, 58, 59
2, 536172, Note_on_c, 0, 53, 60
2, 536196, Note_on_c, 0, 65, 0
2, 536216, Note_on_c, 0, 53, 0
2, 536236, Note_on_c, 0, 58, 0
2, 536236, Note_on_c, 0, 62, 73
2, 536248, Note_on_c, 0, 58, 67
2, 536280, Note_on_c, 0, 62, 0
2, 536280, Note_on_c, 0, 86, 0
2, 536284, Note_on_c, 0, 74, 0
2, 536304, Note_on_c, 0, 70, 0
2, 536324, Note_on_c, 0, 50, 86
2, 536328, Note_on_c, 0, 38, 74
2, 536340, Note_on_c, 0, 84, 92
2, 536344, Note_on_c, 0, 72, 84
2, 536356, Note_on_c, 0, 58, 0
2, 536356, Note_on_c, 0, 53, 96
2, 536460, Note_on_c, 0, 58, 64
2, 536472, Note_on_c, 0, 58, 57
2, 536472, Note_on_c, 0, 53, 66
2, 536512, Note_on_c, 0, 53, 0
2, 536524, Note_on_c, 0, 53, 0
2, 536540, Note_on_c, 0, 58, 0
2, 536540, Note_on_c, 0, 62, 71
2, 536544, Note_on_c, 0, 72, 0
2, 536564, Note_on_c, 0, 62, 62
2, 536600, Note_on_c, 0, 62, 0
2, 536620, Note_on_c, 0, 58, 0
2, 536628, Note_on_c, 0, 84, 0
2, 536628, Note_on_c, 0, 53, 67
2, 536628, Note_on_c, 0, 58, 65
2, 536652, Note_on_c, 0, 65, 66
2, 536660, Note_on_c, 0, 70, 77
2, 536664, Note_on_c, 0, 82, 82
2, 536684, Note_on_c, 0, 53, 0
2, 536696, Note_on_c, 0, 58, 0
2, 536696, Note_on_c, 0, 62, 0
2, 536700, Note_on_c, 0, 62, 75
2, 536748, Note_on_c, 0, 70, 67
2, 536768, Note_on_c, 0, 70, 0
2, 536768, Note_on_c, 0, 62, 0
2, 536780, Note_on_c, 0, 53, 60
2, 536788, Note_on_c, 0, 58, 57
2, 536792, Note_on_c, 0, 65, 0
2, 536792, Note_on_c, 0, 82, 0
2, 536828, Note_on_c, 0, 58, 65
2, 536848, Note_on_c, 0, 38, 0
2, 536852, Note_on_c, 0, 53, 0
2, 536860, Note_on_c, 0, 58, 0
2, 536860, Note_on_c, 0, 58, 0
2, 536860, Note_on_c, 0, 62, 72
2, 536876, Note_on_c, 0, 70, 0
2, 536880, Note_on_c, 0, 50, 0
2, 536896, Note_on_c, 0, 62, 0
2, 536960, Note_on_c, 0, 52, 88
2, 536960, Note_on_c, 0, 40, 71
2, 536964, Note_on_c, 0, 88, 97
2, 536968, Note_on_c, 0, 76, 86
2, 536972, Note_on_c, 0, 80, 76
2, 536972, Note_on_c, 0, 83, 85
2, 536976, Note_on_c, 0, 40, 88
2, 536980, Note_on_c, 0, 28, 77
2, 537016, Control_c, 0, 64, 56
2, 537032, Control_c, 0, 64, 0
2, 537088, Note_on_c, 0, 59, 66
2, 537112, Note_on_c, 0, 56, 59
2, 537116, Note_on_c, 0, 59, 69
2, 537124, Control_c, 0, 64, 56
2, 537136, Control_c, 0, 64, 127
2, 537180, Note_on_c, 0, 56, 0
2, 537180, Note_on_c, 0, 62, 66
2, 537184, Note_on_c, 0, 28, 0
2, 537188, Note_on_c, 0, 59, 0
2, 537188, Note_on_c, 0, 64, 74
2, 537244, Note_on_c, 0, 40, 0
2, 537260, Note_on_c, 0, 64, 0
2, 537268, Note_on_c, 0, 56, 62
2, 537272, Note_on_c, 0, 59, 68
2, 537276, Note_on_c, 0, 64, 70
2, 537320, Note_on_c, 0, 62, 0
2, 537332, Note_on_c, 0, 56, 0
2, 537336, Note_on_c, 0, 59, 0
2, 537344, Note_on_c, 0, 64, 77
2, 537348, Note_on_c, 0, 59, 0
2, 537372, Note_on_c, 0, 40, 0
2, 537380, Note_on_c, 0, 68, 71
2, 537404, Note_on_c, 0, 52, 0
2, 537408, Note_on_c, 0, 64, 0
2, 537412, Note_on_c, 0, 64, 0
2, 537412, Note_on_c, 0, 56, 58
2, 537420, Note_on_c, 0, 59, 63
2, 537444, Note_on_c, 0, 76, 0
2, 537464, Note_on_c, 0, 80, 0
2, 537472, Note_on_c, 0, 88, 0
2, 537476, Note_on_c, 0, 83, 0
2, 537480, Note_on_c, 0, 56, 0
2, 537488, Note_on_c, 0, 64, 66
2, 537496, Note_on_c, 0, 59, 0
2, 537496, Note_on_c, 0, 59, 75
2, 537504, Note_on_c, 0, 68, 0
2, 537532, Note_on_c, 0, 64, 0
2, 537568, Note_on_c, 0, 88, 90
2, 537568, Note_on_c, 0, 56, 90
2, 537568, Note_on_c, 0, 44, 72
2, 537576, Note_on_c, 0, 76, 86
2, 537580, Note_on_c, 0, 80, 72
2, 537580, Note_on_c, 0, 83, 82
2, 537596, Note_on_c, 0, 59, 0
2, 537596, Note_on_c, 0, 52, 96
2, 537700, Note_on_c, 0, 59, 74
2, 537708, Note_on_c, 0, 52, 0
2, 537740, Note_on_c, 0, 59, 73
2, 537792, Note_on_c, 0, 76, 0
2, 537796, Note_on_c, 0, 62, 67
2, 537816, Note_on_c, 0, 64, 81
2, 537820, Note_on_c, 0, 59, 0
2, 537840, Note_on_c, 0, 59, 0
2, 537880, Note_on_c, 0, 64, 74
2, 537888, Note_on_c, 0, 64, 0
2, 537892, Note_on_c, 0, 59, 73
2, 537896, Note_on_c, 0, 76, 85
2, 537920, Note_on_c, 0, 62, 0
2, 537972, Note_on_c, 0, 59, 0
2, 537972, Note_on_c, 0, 64, 79
2, 537984, Note_on_c, 0, 68, 60
2, 537996, Note_on_c, 0, 76, 0
2, 538024, Note_on_c, 0, 64, 0
2, 538032, Note_on_c, 0, 80, 0
2, 538036, Note_on_c, 0, 64, 0
2, 538040, Note_on_c, 0, 59, 74
2, 538044, Note_on_c, 0, 76, 85
2, 538064, Note_on_c, 0, 59, 59
2, 538076, Note_on_c, 0, 83, 0
2, 538092, Note_on_c, 0, 44, 0
2, 538100, Note_on_c, 0, 64, 77
2, 538108, Note_on_c, 0, 59, 0
2, 538116, Note_on_c, 0, 68, 0
2, 538128, Note_on_c, 0, 56, 0
2, 538140, Note_on_c, 0, 64, 0
2, 538148, Note_on_c, 0, 88, 0
2, 538152, Note_on_c, 0, 59, 0
2, 538164, Note_on_c, 0, 76, 0
2, 538192, Note_on_c, 0, 57, 89
2, 538200, Note_on_c, 0, 45, 86
2, 538220, Note_on_c, 0, 45, 94
2, 538220, Note_on_c, 0, 88, 103
2, 538224, Note_on_c, 0, 76, 93
2, 538224, Note_on_c, 0, 85, 81
2, 538228, Note_on_c, 0, 81, 80
2, 538232, Note_on_c, 0, 33, 74
2, 538252, Control_c, 0, 64, 72
2, 538268, Control_c, 0, 64, 0
2, 538280, Note_on_c, 0, 57, 0
2, 538324, Note_on_c, 0, 57, 69
2, 538360, Note_on_c, 0, 57, 63
2, 538360, Control_c, 0, 64, 127
2, 538364, Note_on_c, 0, 61, 64
2, 538412, Note_on_c, 0, 33, 0
2, 538412, Note_on_c, 0, 61, 64
2, 538436, Note_on_c, 0, 61, 0
2, 538436, Note_on_c, 0, 64, 74
2, 538512, Note_on_c, 0, 64, 0
2, 538516, Note_on_c, 0, 64, 72
2, 538528, Note_on_c, 0, 57, 64
2, 538528, Note_on_c, 0, 61, 68
2, 538556, Note_on_c, 0, 61, 0
2, 538556, Note_on_c, 0, 57, 0
2, 538556, Note_on_c, 0, 57, 0
2, 538600, Note_on_c, 0, 57, 0
2, 538604, Note_on_c, 0, 64, 77
2, 538608, Note_on_c, 0, 61, 0
2, 538616, Note_on_c, 0, 69, 69
2, 538676, Note_on_c, 0, 64, 0
2, 538676, Note_on_c, 0, 64, 0
2, 538680, Note_on_c, 0, 61, 71
2, 538680, Note_on_c, 0, 57, 64
2, 538716, Note_on_c, 0, 57, 69
2, 538748, Note_on_c, 0, 57, 0
2, 538752, Note_on_c, 0, 61, 0
2, 538756, Note_on_c, 0, 64, 74
2, 538824, Note_on_c, 0, 69, 0
2, 538840, Note_on_c, 0, 64, 0
2, 538840, Note_on_c, 0, 61, 74
2, 538840, Note_on_c, 0, 57, 68
2, 538848, Note_on_c, 0, 45, 102
2, 538852, Note_on_c, 0, 57, 0
2, 538912, Note_on_c, 0, 64, 71
2, 538916, Note_on_c, 0, 57, 0
2, 538920, Note_on_c, 0, 61, 0
2, 538964, Note_on_c, 0, 57, 69
2, 538992, Note_on_c, 0, 64, 0
2, 538992, Note_on_c, 0, 61, 70
2, 538996, Note_on_c, 0, 57, 63
2, 539020, Note_on_c, 0, 45, 0
2, 539020, Note_on_c, 0, 45, 0
2, 539020, Note_on_c, 0, 45, 0
2, 539044, Note_on_c, 0, 61, 65
2, 539060, Note_on_c, 0, 61, 0
2, 539064, Note_on_c, 0, 57, 0
2, 539072, Note_on_c, 0, 64, 71
2, 539132, Note_on_c, 0, 76, 0
2, 539140, Note_on_c, 0, 81, 0
2, 539140, Note_on_c, 0, 64, 0
2, 539148, Note_on_c, 0, 57, 58
2, 539152, Note_on_c, 0, 61, 65
2, 539164, Note_on_c, 0, 64, 78
2, 539168, Note_on_c, 0, 85, 0
2, 539172, Note_on_c, 0, 88, 0
2, 539212, Note_on_c, 0, 57, 0
2, 539212, Note_on_c, 0, 61, 0
2, 539220, Note_on_c, 0, 61, 0
2, 539220, Note_on_c, 0, 57, 0
2, 539224, Note_on_c, 0, 64, 72
2, 539276, Note_on_c, 0, 69, 74
2, 539284, Note_on_c, 0, 64, 0
2, 539288, Note_on_c, 0, 61, 67
2, 539296, Note_on_c, 0, 57, 55
2, 539328, Note_on_c, 0, 64, 0
2, 539352, Note_on_c, 0, 64, 74
2, 539356, Note_on_c, 0, 61, 0
2, 539360, Note_on_c, 0, 57, 75
2, 539372, Note_on_c, 0, 57, 0
2, 539376, Note_on_c, 0, 69, 0
2, 539400, Note_on_c, 0, 64, 0
2, 539460, Note_on_c, 0, 57, 0
2, 539496, Note_on_c, 0, 53, 102
2, 539500, Note_on_c, 0, 41, 83
2, 539512, Note_on_c, 0, 41, 99
2, 539512, Note_on_c, 0, 29, 85
2, 539512, Note_on_c, 0, 93, 103
2, 539516, Note_on_c, 0, 81, 82
2, 539520, Note_on_c, 0, 87, 87
2, 539524, Note_on_c, 0, 84, 92
2, 539572, Control_c, 0, 64, 24
2, 539588, Control_c, 0, 64, 0
2, 539656, Note_on_c, 0, 57, 82
2, 539664, Control_c, 0, 64, 88
2, 539680, Control_c, 0, 64, 127
2, 539748, Note_on_c, 0, 29, 0
2, 539776, Note_on_c, 0, 41, 0
2, 539796, Note_on_c, 0, 60, 83
2, 539832, Note_on_c, 0, 57, 0
2, 539920, Note_on_c, 0, 63, 79
2, 539948, Note_on_c, 0, 60, 0
2, 539996, Note_on_c, 0, 63, 0
2, 540080, Note_on_c, 0, 41, 82
2, 540080, Note_on_c, 0, 53, 102
2, 540080, Note_on_c, 0, 65, 89
2, 540228, Note_on_c, 0, 69, 86
2, 540264, Note_on_c, 0, 65, 0
2, 540356, Note_on_c, 0, 69, 0
2, 540360, Note_on_c, 0, 72, 82
2, 540484, Note_on_c, 0, 75, 81
2, 540536, Note_on_c, 0, 72, 0
2, 540556, Note_on_c, 0, 75, 0
2, 540608, Note_on_c, 0, 41, 0
2, 540608, Note_on_c, 0, 41, 0
2, 540620, Note_on_c, 0, 77, 97
2, 540660, Note_on_c, 0, 53, 0
2, 540660, Note_on_c, 0, 53, 0
2, 540756, Note_on_c, 0, 81, 92
2, 540876, Note_on_c, 0, 81, 0
2, 540892, Note_on_c, 0, 84, 89
2, 541008, Note_on_c, 0, 84, 0
2, 541024, Note_on_c, 0, 87, 87
2, 541112, Note_on_c, 0, 77, 0
2, 541168, Note_on_c, 0, 84, 92
2, 541172, Note_on_c, 0, 87, 0
2, 541308, Note_on_c, 0, 81, 82
2, 541344, Note_on_c, 0, 84, 0
2, 541440, Note_on_c, 0, 81, 0
2, 541444, Note_on_c, 0, 77, 92
2, 541528, Note_on_c, 0, 93, 0
2, 541536, Note_on_c, 0, 84, 0
2, 541536, Note_on_c, 0, 77, 0
2, 541544, Note_on_c, 0, 81, 0
2, 541580, Note_on_c, 0, 75, 85
2, 541696, Note_on_c, 0, 75, 0
2, 541716, Note_on_c, 0, 87, 0
2, 541728, Note_on_c, 0, 72, 85
2, 541844, Note_on_c, 0, 72, 0
2, 541856, Note_on_c, 0, 69, 83
2, 541988, Note_on_c, 0, 69, 0
2, 541996, Note_on_c, 0, 65, 79
2, 542096, Note_on_c, 0, 65, 0
2, 542148, Note_on_c, 0, 63, 75
2, 542268, Note_on_c, 0, 63, 0
2, 542296, Note_on_c, 0, 60, 87
2, 542412, Note_on_c, 0, 60, 0
2, 542436, Note_on_c, 0, 57, 82
2, 542576, Note_on_c, 0, 57, 0
2, 542584, Note_on_c, 0, 53, 87
2, 542688, Note_on_c, 0, 53, 0
2, 542748, Note_on_c, 0, 51, 89
2, 542860, Note_on_c, 0, 51, 0
2, 542900, Note_on_c, 0, 48, 94
2, 543020, Note_on_c, 0, 48, 0
2, 543052, Note_on_c, 0, 45, 93
2, 543200, Note_on_c, 0, 45, 0
2, 543224, Note_on_c, 0, 41, 87
2, 543336, Note_on_c, 0, 41, 0
2, 543408, Note_on_c, 0, 39, 85
2, 543548, Note_on_c, 0, 39, 0
2, 543608, Note_on_c, 0, 36, 100
2, 543784, Note_on_c, 0, 36, 0
2, 543812, Note_on_c, 0, 33, 94
2, 544000, Note_on_c, 0, 33, 0
2, 544032, Note_on_c, 0, 36, 97
2, 544216, Note_on_c, 0, 36, 0
2, 544240, Note_on_c, 0, 33, 100
2, 544340, Note_on_c, 0, 33, 0
2, 544568, Note_on_c, 0, 29, 100
2, 544636, Control_c, 0, 64, 72
2, 544652, Control_c, 0, 64, 0
2, 544760, Control_c, 0, 64, 127
2, 544840, Note_on_c, 0, 29, 0
2, 545036, Note_on_c, 0, 68, 79
2, 545328, Note_on_c, 0, 69, 79
2, 545356, Note_on_c, 0, 63, 52
2, 545368, Note_on_c, 0, 68, 0
2, 545368, Note_on_c, 0, 57, 47
2, 545384, Note_on_c, 0, 53, 47
2, 545472, Control_c, 0, 64, 56
2, 545488, Control_c, 0, 64, 0
2, 545588, Note_on_c, 0, 71, 82
2, 545608, Note_on_c, 0, 69, 0
2, 545628, Control_c, 0, 64, 88
2, 545644, Control_c, 0, 64, 127
2, 545816, Note_on_c, 0, 74, 90
2, 545820, Note_on_c, 0, 71, 0
2, 546016, Note_on_c, 0, 74, 0
2, 546048, Note_on_c, 0, 72, 88
2, 546200, Note_on_c, 0, 63, 0
2, 546224, Note_on_c, 0, 57, 0
2, 546232, Note_on_c, 0, 72, 0
2, 546244, Note_on_c, 0, 71, 86
2, 546244, Note_on_c, 0, 59, 52
2, 546272, Note_on_c, 0, 53, 0
2, 546412, Note_on_c, 0, 71, 0
2, 546432, Note_on_c, 0, 59, 0
2, 546460, Note_on_c, 0, 60, 61
2, 546460, Note_on_c, 0, 69, 86
2, 546524, Note_on_c, 0, 69, 0
2, 546692, Note_on_c, 0, 52, 61
2, 546692, Note_on_c, 0, 69, 79
2, 546712, Control_c, 0, 64, 56
2, 546728, Control_c, 0, 64, 0
2, 546812, Note_on_c, 0, 60, 0
2, 546836, Control_c, 0, 64, 88
2, 546852, Control_c, 0, 64, 127
2, 546896, Note_on_c, 0, 58, 69
2, 547048, Note_on_c, 0, 69, 0
2, 547080, Note_on_c, 0, 68, 77
2, 547092, Note_on_c, 0, 59, 70
2, 547100, Control_c, 0, 64, 88
2, 547112, Note_on_c, 0, 58, 0
2, 547116, Control_c, 0, 64, 0
2, 547192, Control_c, 0, 64, 24
2, 547208, Control_c, 0, 64, 56
2, 547224, Control_c, 0, 64, 72
2, 547240, Control_c, 0, 64, 56
2, 547252, Control_c, 0, 64, 0
2, 547264, Note_on_c, 0, 59, 0
2, 547276, Note_on_c, 0, 60, 74
2, 547316, Control_c, 0, 64, 56
2, 547332, Control_c, 0, 64, 127
2, 547440, Note_on_c, 0, 68, 0
2, 547460, Note_on_c, 0, 64, 74
2, 547496, Note_on_c, 0, 60, 0
2, 547508, Note_on_c, 0, 52, 0
2, 547636, Note_on_c, 0, 62, 80
2, 547644, Note_on_c, 0, 64, 0
2, 547800, Note_on_c, 0, 62, 0
2, 547820, Note_on_c, 0, 60, 81
2, 547832, Note_on_c, 0, 50, 58
2, 547972, Note_on_c, 0, 60, 0
2, 548000, Note_on_c, 0, 59, 83
2, 548112, Note_on_c, 0, 59, 0
2, 548144, Note_on_c, 0, 50, 0
2, 548224, Note_on_c, 0, 67, 78
2, 548224, Note_on_c, 0, 64, 74
2, 548224, Note_on_c, 0, 58, 70
2, 548244, Control_c, 0, 64, 104
2, 548252, Note_on_c, 0, 49, 55
2, 548260, Control_c, 0, 64, 24
2, 548276, Control_c, 0, 64, 0
2, 548368, Control_c, 0, 64, 104
2, 548384, Control_c, 0, 64, 127
2, 548412, Note_on_c, 0, 49, 0
2, 548440, Note_on_c, 0, 51, 64
2, 548452, Note_on_c, 0, 58, 0
2, 548604, Note_on_c, 0, 64, 0
2, 548616, Note_on_c, 0, 57, 74
2, 548616, Note_on_c, 0, 52, 66
2, 548676, Note_on_c, 0, 51, 0
2, 548724, Note_on_c, 0, 57, 0
2, 548764, Note_on_c, 0, 52, 0
2, 548816, Note_on_c, 0, 53, 77
2, 548996, Note_on_c, 0, 53, 0
2, 549016, Note_on_c, 0, 57, 68
2, 549200, Note_on_c, 0, 55, 77
2, 549204, Control_c, 0, 64, 104
2, 549212, Note_on_c, 0, 57, 0
2, 549220, Control_c, 0, 64, 40
2, 549236, Control_c, 0, 64, 72
2, 549252, Control_c, 0, 64, 127
2, 549348, Note_on_c, 0, 55, 0
2, 549372, Note_on_c, 0, 53, 66
2, 549564, Note_on_c, 0, 52, 78
2, 549596, Note_on_c, 0, 53, 0
2, 549652, Note_on_c, 0, 52, 0
2, 549688, Note_on_c, 0, 67, 0
2, 549784, Note_on_c, 0, 67, 83
2, 549800, Note_on_c, 0, 62, 61
2, 549800, Note_on_c, 0, 50, 74
2, 549808, Note_on_c, 0, 57, 58
2, 549824, Control_c, 0, 64, 104
2, 549840, Control_c, 0, 64, 0
2, 549916, Note_on_c, 0, 50, 0
2, 549948, Control_c, 0, 64, 127
2, 550016, Note_on_c, 0, 37, 57
2, 550148, Note_on_c, 0, 37, 0
2, 550224, Note_on_c, 0, 65, 78
2, 550236, Note_on_c, 0, 67, 0
2, 550236, Note_on_c, 0, 38, 63
2, 550320, Control_c, 0, 64, 24
2, 550336, Control_c, 0, 64, 0
2, 550380, Note_on_c, 0, 38, 0
2, 550380, Control_c, 0, 64, 40
2, 550400, Control_c, 0, 64, 104
2, 550404, Note_on_c, 0, 40, 72
2, 550416, Control_c, 0, 64, 127
2, 550588, Note_on_c, 0, 40, 0
2, 550596, Note_on_c, 0, 43, 77
2, 550744, Note_on_c, 0, 43, 0
2, 550788, Note_on_c, 0, 41, 75
2, 550944, Note_on_c, 0, 41, 0
2, 551012, Note_on_c, 0, 40, 72
2, 551208, Note_on_c, 0, 40, 0
2, 551236, Note_on_c, 0, 38, 71
2, 551316, Note_on_c, 0, 57, 0
2, 551320, Note_on_c, 0, 62, 0
2, 551360, Note_on_c, 0, 65, 0
2, 551412, Note_on_c, 0, 38, 0
2, 551556, Note_on_c, 0, 65, 68
2, 551560, Control_c, 0, 64, 40
2, 551564, Note_on_c, 0, 56, 57
2, 551572, Note_on_c, 0, 48, 58
2, 551576, Note_on_c, 0, 62, 59
2, 551576, Control_c, 0, 64, 0
2, 551588, Note_on_c, 0, 36, 61
2, 551636, Note_on_c, 0, 56, 0
2, 551640, Control_c, 0, 64, 40
2, 551652, Note_on_c, 0, 62, 0
2, 551652, Control_c, 0, 64, 127
2, 551680, Note_on_c, 0, 48, 0
2, 551688, Note_on_c, 0, 36, 0
2, 551704, Note_on_c, 0, 65, 0
2, 551840, Note_on_c, 0, 73, 72
2, 551932, Note_on_c, 0, 35, 61
2, 551984, Note_on_c, 0, 35, 0
2, 552000, Note_on_c, 0, 47, 70
2, 552036, Note_on_c, 0, 73, 0
2, 552052, Note_on_c, 0, 47, 0
2, 552192, Note_on_c, 0, 74, 82
2, 552192, Note_on_c, 0, 55, 64
2, 552352, Control_c, 0, 64, 56
2, 552368, Control_c, 0, 64, 0
2, 552408, Control_c, 0, 64, 127
2, 552420, Note_on_c, 0, 74, 0
2, 552440, Note_on_c, 0, 76, 83
2, 552508, Note_on_c, 0, 55, 0
2, 552648, Note_on_c, 0, 79, 89
2, 552716, Note_on_c, 0, 76, 0
2, 552824, Note_on_c, 0, 79, 0
2, 552860, Note_on_c, 0, 77, 89
2, 552952, Note_on_c, 0, 77, 0
2, 553072, Note_on_c, 0, 76, 89
2, 553084, Note_on_c, 0, 67, 45
2, 553088, Note_on_c, 0, 65, 68
2, 553096, Note_on_c, 0, 47, 54
2, 553112, Note_on_c, 0, 35, 58
2, 553112, Control_c, 0, 64, 104
2, 553124, Control_c, 0, 64, 40
2, 553140, Control_c, 0, 64, 0
2, 553172, Control_c, 0, 64, 72
2, 553188, Control_c, 0, 64, 127
2, 553232, Note_on_c, 0, 76, 0
2, 553276, Note_on_c, 0, 75, 85
2, 553288, Note_on_c, 0, 65, 0
2, 553296, Note_on_c, 0, 67, 0
2, 553304, Note_on_c, 0, 35, 0
2, 553340, Note_on_c, 0, 47, 0
2, 553400, Note_on_c, 0, 75, 0
2, 553476, Note_on_c, 0, 76, 87
2, 553492, Note_on_c, 0, 64, 65
2, 553512, Control_c, 0, 64, 56
2, 553524, Control_c, 0, 64, 0
2, 553528, Note_on_c, 0, 48, 58
2, 553536, Note_on_c, 0, 36, 60
2, 553576, Control_c, 0, 64, 56
2, 553588, Control_c, 0, 64, 127
2, 553640, Note_on_c, 0, 76, 0
2, 553692, Note_on_c, 0, 36, 0
2, 553692, Note_on_c, 0, 72, 89
2, 553704, Note_on_c, 0, 64, 0
2, 553732, Note_on_c, 0, 48, 0
2, 553852, Note_on_c, 0, 72, 0
2, 553880, Note_on_c, 0, 71, 83
2, 553892, Note_on_c, 0, 65, 70
2, 553912, Note_on_c, 0, 50, 62
2, 553916, Control_c, 0, 64, 24
2, 553920, Note_on_c, 0, 38, 61
2, 553928, Control_c, 0, 64, 0
2, 553944, Control_c, 0, 64, 24
2, 553960, Control_c, 0, 64, 88
2, 553976, Control_c, 0, 64, 127
2, 554052, Note_on_c, 0, 38, 0
2, 554064, Note_on_c, 0, 65, 0
2, 554076, Note_on_c, 0, 71, 0
2, 554084, Note_on_c, 0, 74, 88
2, 554100, Note_on_c, 0, 50, 0
2, 554172, Note_on_c, 0, 74, 0
2, 554292, Note_on_c, 0, 72, 84
2, 554308, Note_on_c, 0, 60, 43
2, 554320, Note_on_c, 0, 52, 59
2, 554332, Note_on_c, 0, 40, 61
2, 554332, Control_c, 0, 64, 24
2, 554348, Control_c, 0, 64, 0
2, 554424, Control_c, 0, 64, 56
2, 554440, Note_on_c, 0, 72, 0
2, 554440, Control_c, 0, 64, 127
2, 554500, Note_on_c, 0, 67, 85
2, 554508, Note_on_c, 0, 40, 0
2, 554572, Note_on_c, 0, 52, 0
2, 554592, Note_on_c, 0, 67, 0
2, 554636, Note_on_c, 0, 60, 0
2, 554724, Note_on_c, 0, 68, 75
2, 554744, Note_on_c, 0, 62, 59
2, 554748, Note_on_c, 0, 60, 41
2, 554752, Control_c, 0, 64, 72
2, 554756, Note_on_c, 0, 53, 59
2, 554768, Note_on_c, 0, 41, 62
2, 554768, Control_c, 0, 64, 0
2, 554828, Control_c, 0, 64, 40
2, 554844, Control_c, 0, 64, 127
2, 554908, Note_on_c, 0, 41, 0
2, 554924, Note_on_c, 0, 60, 0
2, 554924, Note_on_c, 0, 68, 0
2, 554944, Note_on_c, 0, 69, 82
2, 554968, Note_on_c, 0, 53, 0
2, 555044, Note_on_c, 0, 62, 0
2, 555072, Note_on_c, 0, 69, 0
2, 555212, Note_on_c, 0, 67, 73
2, 555212, Note_on_c, 0, 43, 63
2, 555212, Note_on_c, 0, 53, 59
2, 555212, Note_on_c, 0, 55, 58
2, 555212, Note_on_c, 0, 59, 63
2, 555232, Control_c, 0, 64, 104
2, 555248, Control_c, 0, 64, 0
2, 555300, Note_on_c, 0, 59, 0
2, 555340, Control_c, 0, 64, 56
2, 555356, Control_c, 0, 64, 127
2, 555400, Note_on_c, 0, 67, 0
2, 555488, Note_on_c, 0, 73, 82
2, 555496, Note_on_c, 0, 43, 0
2, 555516, Note_on_c, 0, 53, 0
2, 555524, Note_on_c, 0, 55, 0
2, 555636, Note_on_c, 0, 73, 0
2, 555704, Note_on_c, 0, 74, 87
2, 555872, Note_on_c, 0, 74, 0
2, 555912, Note_on_c, 0, 76, 89
2, 556128, Note_on_c, 0, 76, 0
2, 556136, Note_on_c, 0, 79, 92
2, 556312, Note_on_c, 0, 79, 0
2, 556360, Note_on_c, 0, 77, 96
2, 556456, Note_on_c, 0, 77, 0
2, 556560, Note_on_c, 0, 76, 94
2, 556568, Note_on_c, 0, 67, 59
2, 556568, Note_on_c, 0, 65, 79
2, 556580, Control_c, 0, 64, 56
2, 556588, Note_on_c, 0, 47, 59
2, 556596, Note_on_c, 0, 35, 59
2, 556596, Control_c, 0, 64, 0
2, 556640, Control_c, 0, 64, 56
2, 556656, Control_c, 0, 64, 127
2, 556692, Note_on_c, 0, 76, 0
2, 556744, Note_on_c, 0, 35, 0
2, 556744, Note_on_c, 0, 65, 0
2, 556756, Note_on_c, 0, 67, 0
2, 556756, Note_on_c, 0, 75, 86
2, 556788, Note_on_c, 0, 47, 0
2, 556896, Note_on_c, 0, 75, 0
2, 556956, Note_on_c, 0, 76, 92
2, 556960, Note_on_c, 0, 64, 72
2, 556968, Control_c, 0, 64, 56
2, 556980, Control_c, 0, 64, 0
2, 556996, Note_on_c, 0, 48, 58
2, 557000, Note_on_c, 0, 36, 60
2, 557028, Control_c, 0, 64, 56
2, 557044, Control_c, 0, 64, 127
2, 557108, Note_on_c, 0, 36, 0
2, 557108, Note_on_c, 0, 76, 0
2, 557152, Note_on_c, 0, 48, 0
2, 557156, Note_on_c, 0, 72, 92
2, 557160, Note_on_c, 0, 64, 0
2, 557316, Note_on_c, 0, 72, 0
2, 557340, Note_on_c, 0, 71, 85
2, 557348, Note_on_c, 0, 65, 69
2, 557352, Control_c, 0, 64, 88
2, 557368, Note_on_c, 0, 50, 63
2, 557368, Control_c, 0, 64, 0
2, 557376, Note_on_c, 0, 38, 61
2, 557416, Control_c, 0, 64, 127
2, 557496, Note_on_c, 0, 38, 0
2, 557504, Note_on_c, 0, 65, 0
2, 557516, Note_on_c, 0, 71, 0
2, 557532, Note_on_c, 0, 50, 0
2, 557536, Note_on_c, 0, 74, 88
2, 557620, Note_on_c, 0, 74, 0
2, 557736, Note_on_c, 0, 72, 89
2, 557748, Note_on_c, 0, 60, 71
2, 557756, Control_c, 0, 64, 40
2, 557760, Note_on_c, 0, 52, 59
2, 557764, Note_on_c, 0, 40, 61
2, 557772, Control_c, 0, 64, 0
2, 557836, Control_c, 0, 64, 40
2, 557852, Control_c, 0, 64, 127
2, 557868, Note_on_c, 0, 72, 0
2, 557928, Note_on_c, 0, 40, 0
2, 557936, Note_on_c, 0, 67, 82
2, 557964, Note_on_c, 0, 52, 0
2, 558016, Note_on_c, 0, 60, 0
2, 558028, Note_on_c, 0, 67, 0
2, 558136, Note_on_c, 0, 68, 77
2, 558144, Control_c, 0, 64, 104
2, 558156, Note_on_c, 0, 60, 56
2, 558160, Note_on_c, 0, 62, 66
2, 558160, Note_on_c, 0, 53, 60
2, 558160, Control_c, 0, 64, 0
2, 558172, Note_on_c, 0, 41, 62
2, 558224, Control_c, 0, 64, 40
2, 558240, Control_c, 0, 64, 127
2, 558296, Note_on_c, 0, 41, 0
2, 558308, Note_on_c, 0, 60, 0
2, 558312, Note_on_c, 0, 62, 0
2, 558320, Note_on_c, 0, 68, 0
2, 558344, Note_on_c, 0, 53, 0
2, 558348, Note_on_c, 0, 69, 85
2, 558480, Note_on_c, 0, 69, 0
2, 558580, Note_on_c, 0, 67, 84
2, 558580, Note_on_c, 0, 43, 62
2, 558580, Note_on_c, 0, 55, 55
2, 558580, Note_on_c, 0, 53, 55
2, 558580, Note_on_c, 0, 59, 64
2, 558592, Control_c, 0, 64, 56
2, 558612, Control_c, 0, 64, 0
2, 558688, Control_c, 0, 64, 88
2, 558704, Control_c, 0, 64, 127
2, 558716, Note_on_c, 0, 67, 0
2, 558840, Note_on_c, 0, 73, 84
2, 558916, Note_on_c, 0, 59, 0
2, 558920, Note_on_c, 0, 43, 0
2, 558940, Note_on_c, 0, 55, 0
2, 558952, Note_on_c, 0, 53, 0
2, 558996, Note_on_c, 0, 73, 0
2, 559040, Note_on_c, 0, 74, 94
2, 559180, Note_on_c, 0, 74, 0
2, 559220, Note_on_c, 0, 76, 93
2, 559392, Note_on_c, 0, 76, 0
2, 559416, Note_on_c, 0, 79, 102
2, 559584, Note_on_c, 0, 79, 0
2, 559628, Note_on_c, 0, 77, 107
2, 559728, Note_on_c, 0, 77, 0
2, 559832, Note_on_c, 0, 76, 96
2, 559844, Note_on_c, 0, 65, 67
2, 559864, Note_on_c, 0, 44, 56
2, 559864, Control_c, 0, 64, 104
2, 559872, Note_on_c, 0, 32, 60
2, 559880, Control_c, 0, 64, 24
2, 559896, Control_c, 0, 64, 0
2, 559924, Control_c, 0, 64, 24
2, 559940, Control_c, 0, 64, 88
2, 559956, Control_c, 0, 64, 127
2, 559964, Note_on_c, 0, 76, 0
2, 560020, Note_on_c, 0, 65, 0
2, 560020, Note_on_c, 0, 74, 92
2, 560068, Note_on_c, 0, 32, 0
2, 560100, Note_on_c, 0, 44, 0
2, 560112, Note_on_c, 0, 74, 0
2, 560208, Note_on_c, 0, 72, 90
2, 560220, Control_c, 0, 64, 88
2, 560224, Note_on_c, 0, 64, 66
2, 560236, Note_on_c, 0, 45, 71
2, 560236, Control_c, 0, 64, 0
2, 560240, Note_on_c, 0, 33, 62
2, 560280, Control_c, 0, 64, 72
2, 560296, Control_c, 0, 64, 127
2, 560360, Note_on_c, 0, 72, 0
2, 560364, Note_on_c, 0, 64, 0
2, 560372, Note_on_c, 0, 33, 0
2, 560400, Note_on_c, 0, 69, 90
2, 560416, Note_on_c, 0, 45, 0
2, 560508, Note_on_c, 0, 69, 0
2, 560588, Note_on_c, 0, 62, 70
2, 560592, Note_on_c, 0, 68, 82
2, 560592, Note_on_c, 0, 64, 73
2, 560592, Control_c, 0, 64, 72
2, 560608, Note_on_c, 0, 47, 68
2, 560608, Control_c, 0, 64, 0
2, 560612, Note_on_c, 0, 35, 60
2, 560652, Control_c, 0, 64, 40
2, 560668, Control_c, 0, 64, 104
2, 560684, Control_c, 0, 64, 127
2, 560728, Note_on_c, 0, 35, 0
2, 560728, Note_on_c, 0, 64, 0
2, 560752, Note_on_c, 0, 62, 0
2, 560768, Note_on_c, 0, 68, 0
2, 560780, Note_on_c, 0, 71, 84
2, 560788, Note_on_c, 0, 47, 0
2, 560888, Note_on_c, 0, 71, 0
2, 560968, Note_on_c, 0, 69, 84
2, 560968, Note_on_c, 0, 64, 74
2, 560980, Control_c, 0, 64, 40
2, 560984, Note_on_c, 0, 48, 78
2, 560996, Note_on_c, 0, 36, 61
2, 560996, Control_c, 0, 64, 0
2, 561012, Control_c, 0, 64, 24
2, 561024, Control_c, 0, 64, 72
2, 561036, Note_on_c, 0, 64, 0
2, 561040, Control_c, 0, 64, 127
2, 561124, Note_on_c, 0, 36, 0
2, 561136, Note_on_c, 0, 69, 0
2, 561156, Note_on_c, 0, 64, 86
2, 561176, Note_on_c, 0, 48, 0
2, 561224, Note_on_c, 0, 64, 0
2, 561340, Note_on_c, 0, 64, 83
2, 561348, Note_on_c, 0, 57, 60
2, 561352, Control_c, 0, 64, 88
2, 561356, Note_on_c, 0, 59, 70
2, 561368, Note_on_c, 0, 50, 71
2, 561368, Control_c, 0, 64, 0
2, 561384, Note_on_c, 0, 38, 61
2, 561428, Control_c, 0, 64, 104
2, 561444, Control_c, 0, 64, 127
2, 561488, Note_on_c, 0, 38, 0
2, 561500, Note_on_c, 0, 64, 0
2, 561512, Note_on_c, 0, 57, 0
2, 561528, Note_on_c, 0, 65, 82
2, 561580, Note_on_c, 0, 50, 0
2, 561596, Note_on_c, 0, 59, 0
2, 561660, Note_on_c, 0, 65, 0
2, 561780, Note_on_c, 0, 64, 82
2, 561784, Note_on_c, 0, 56, 73
2, 561788, Control_c, 0, 64, 56
2, 561792, Note_on_c, 0, 52, 74
2, 561800, Note_on_c, 0, 40, 63
2, 561800, Control_c, 0, 64, 0
2, 561860, Note_on_c, 0, 56, 0
2, 561880, Control_c, 0, 64, 88
2, 561896, Control_c, 0, 64, 127
2, 561920, Note_on_c, 0, 64, 0
2, 561948, Note_on_c, 0, 50, 24
2, 562032, Note_on_c, 0, 70, 76
2, 562096, Note_on_c, 0, 50, 0
2, 562096, Note_on_c, 0, 40, 0
2, 562096, Note_on_c, 0, 52, 0
2, 562136, Note_on_c, 0, 70, 0
2, 562216, Note_on_c, 0, 71, 86
2, 562364, Note_on_c, 0, 71, 0
2, 562408, Note_on_c, 0, 72, 100
2, 562592, Note_on_c, 0, 72, 0
2, 562612, Note_on_c, 0, 76, 96
2, 562768, Note_on_c, 0, 76, 0
2, 562800, Note_on_c, 0, 74, 94
2, 562896, Note_on_c, 0, 74, 0
2, 562988, Note_on_c, 0, 72, 96
2, 562996, Control_c, 0, 64, 104
2, 563000, Note_on_c, 0, 64, 68
2, 563004, Note_on_c, 0, 62, 83
2, 563012, Note_on_c, 0, 44, 69
2, 563012, Control_c, 0, 64, 0
2, 563020, Note_on_c, 0, 32, 61
2, 563056, Control_c, 0, 64, 24
2, 563072, Control_c, 0, 64, 88
2, 563084, Control_c, 0, 64, 127
2, 563124, Note_on_c, 0, 72, 0
2, 563160, Note_on_c, 0, 62, 0
2, 563168, Note_on_c, 0, 64, 0
2, 563184, Note_on_c, 0, 71, 88
2, 563192, Note_on_c, 0, 32, 0
2, 563264, Note_on_c, 0, 44, 0
2, 563320, Note_on_c, 0, 71, 0
2, 563376, Note_on_c, 0, 72, 94
2, 563384, Note_on_c, 0, 60, 74
2, 563384, Control_c, 0, 64, 56
2, 563396, Control_c, 0, 64, 0
2, 563400, Note_on_c, 0, 45, 77
2, 563404, Note_on_c, 0, 33, 64
2, 563444, Control_c, 0, 64, 40
2, 563460, Control_c, 0, 64, 104
2, 563472, Control_c, 0, 64, 127
2, 563524, Note_on_c, 0, 72, 0
2, 563536, Note_on_c, 0, 33, 0
2, 563568, Note_on_c, 0, 60, 0
2, 563576, Note_on_c, 0, 69, 89
2, 563592, Note_on_c, 0, 45, 0
2, 563728, Note_on_c, 0, 69, 0
2, 563756, Note_on_c, 0, 68, 82
2, 563768, Note_on_c, 0, 62, 72
2, 563768, Control_c, 0, 64, 104
2, 563780, Note_on_c, 0, 47, 72
2, 563784, Control_c, 0, 64, 24
2, 563788, Note_on_c, 0, 35, 65
2, 563800, Control_c, 0, 64, 0
2, 563812, Control_c, 0, 64, 24
2, 563832, Control_c, 0, 64, 88
2, 563848, Control_c, 0, 64, 127
2, 563920, Note_on_c, 0, 62, 0
2, 563928, Note_on_c, 0, 35, 0
2, 563940, Note_on_c, 0, 68, 0
2, 563952, Note_on_c, 0, 71, 90
2, 563968, Note_on_c, 0, 47, 0
2, 564076, Note_on_c, 0, 71, 0
2, 564140, Control_c, 0, 64, 56
2, 564144, Note_on_c, 0, 69, 87
2, 564152, Note_on_c, 0, 64, 73
2, 564156, Control_c, 0, 64, 0
2, 564164, Note_on_c, 0, 48, 82
2, 564168, Note_on_c, 0, 36, 64
2, 564204, Note_on_c, 0, 64, 0
2, 564204, Control_c, 0, 64, 72
2, 564220, Control_c, 0, 64, 127
2, 564308, Note_on_c, 0, 36, 0
2, 564312, Note_on_c, 0, 69, 0
2, 564336, Note_on_c, 0, 64, 92
2, 564352, Note_on_c, 0, 48, 0
2, 564408, Note_on_c, 0, 64, 0
2, 564520, Note_on_c, 0, 64, 82
2, 564528, Control_c, 0, 64, 88
2, 564536, Note_on_c, 0, 59, 66
2, 564536, Note_on_c, 0, 57, 54
2, 564544, Control_c, 0, 64, 0
2, 564552, Note_on_c, 0, 50, 78
2, 564564, Note_on_c, 0, 38, 63
2, 564576, Control_c, 0, 64, 40
2, 564588, Control_c, 0, 64, 104
2, 564604, Control_c, 0, 64, 127
2, 564652, Note_on_c, 0, 38, 0
2, 564688, Note_on_c, 0, 64, 0
2, 564692, Note_on_c, 0, 57, 0
2, 564720, Note_on_c, 0, 50, 0
2, 564720, Note_on_c, 0, 65, 85
2, 564768, Note_on_c, 0, 59, 0
2, 564864, Note_on_c, 0, 65, 0
2, 564964, Note_on_c, 0, 64, 88
2, 564972, Note_on_c, 0, 56, 67
2, 564980, Note_on_c, 0, 52, 77
2, 564988, Note_on_c, 0, 40, 67
2, 565008, Control_c, 0, 64, 104
2, 565024, Control_c, 0, 64, 0
2, 565084, Note_on_c, 0, 56, 0
2, 565132, Control_c, 0, 64, 127
2, 565204, Note_on_c, 0, 64, 0
2, 565220, Note_on_c, 0, 58, 79
2, 565248, Note_on_c, 0, 40, 0
2, 565324, Note_on_c, 0, 58, 0
2, 565384, Note_on_c, 0, 59, 83
2, 565516, Note_on_c, 0, 59, 0
2, 565568, Note_on_c, 0, 60, 87
2, 565724, Note_on_c, 0, 60, 0
2, 565740, Note_on_c, 0, 64, 87
2, 565888, Note_on_c, 0, 64, 0
2, 565924, Note_on_c, 0, 62, 82
2, 566088, Note_on_c, 0, 60, 79
2, 566096, Note_on_c, 0, 56, 79
2, 566140, Note_on_c, 0, 62, 0
2, 566256, Note_on_c, 0, 59, 80
2, 566264, Note_on_c, 0, 60, 0
2, 566272, Note_on_c, 0, 52, 0
2, 566312, Note_on_c, 0, 59, 0
2, 566448, Note_on_c, 0, 65, 83
2, 566452, Note_on_c, 0, 60, 70
2, 566472, Note_on_c, 0, 52, 74
2, 566508, Control_c, 0, 64, 72
2, 566524, Control_c, 0, 64, 0
2, 566616, Control_c, 0, 64, 88
2, 566636, Note_on_c, 0, 64, 88
2, 566636, Control_c, 0, 64, 127
2, 566644, Note_on_c, 0, 65, 0
2, 566660, Note_on_c, 0, 60, 0
2, 566708, Note_on_c, 0, 64, 0
2, 566812, Note_on_c, 0, 65, 82
2, 566828, Note_on_c, 0, 57, 74
2, 566872, Note_on_c, 0, 56, 0
2, 566928, Control_c, 0, 64, 72
2, 566944, Control_c, 0, 64, 0
2, 566988, Note_on_c, 0, 69, 87
2, 567008, Control_c, 0, 64, 72
2, 567024, Control_c, 0, 64, 127
2, 567160, Note_on_c, 0, 69, 0
2, 567176, Note_on_c, 0, 72, 97
2, 567320, Note_on_c, 0, 72, 0
2, 567348, Note_on_c, 0, 71, 90
2, 567396, Note_on_c, 0, 65, 0
2, 567524, Note_on_c, 0, 62, 92
2, 567536, Note_on_c, 0, 71, 0
2, 567540, Note_on_c, 0, 69, 83
2, 567556, Note_on_c, 0, 65, 48
2, 567596, Control_c, 0, 64, 88
2, 567608, Control_c, 0, 64, 0
2, 567672, Control_c, 0, 64, 56
2, 567688, Control_c, 0, 64, 127
2, 567692, Note_on_c, 0, 69, 0
2, 567704, Note_on_c, 0, 68, 77
2, 567748, Note_on_c, 0, 65, 0
2, 567848, Note_on_c, 0, 68, 0
2, 567884, Note_on_c, 0, 57, 0
2, 567900, Note_on_c, 0, 69, 90
2, 567908, Note_on_c, 0, 64, 70
2, 567936, Control_c, 0, 64, 104
2, 567952, Control_c, 0, 64, 24
2, 567996, Control_c, 0, 64, 127
2, 568044, Note_on_c, 0, 69, 0
2, 568080, Note_on_c, 0, 68, 78
2, 568104, Note_on_c, 0, 62, 0
2, 568116, Note_on_c, 0, 60, 76
2, 568220, Note_on_c, 0, 60, 0
2, 568232, Note_on_c, 0, 68, 0
2, 568268, Note_on_c, 0, 69, 86
2, 568268, Note_on_c, 0, 59, 68
2, 568388, Note_on_c, 0, 59, 0
2, 568388, Note_on_c, 0, 69, 0
2, 568420, Note_on_c, 0, 72, 88
2, 568420, Note_on_c, 0, 57, 74
2, 568512, Note_on_c, 0, 72, 0
2, 568552, Note_on_c, 0, 72, 80
2, 568616, Control_c, 0, 64, 40
2, 568632, Note_on_c, 0, 76, 105
2, 568632, Control_c, 0, 64, 0
2, 568668, Note_on_c, 0, 72, 0
2, 568696, Control_c, 0, 64, 40
2, 568708, Control_c, 0, 64, 127
2, 568764, Note_on_c, 0, 76, 0
2, 568804, Note_on_c, 0, 74, 94
2, 568856, Note_on_c, 0, 64, 0
2, 568896, Note_on_c, 0, 74, 0
2, 568948, Note_on_c, 0, 57, 0
2, 568980, Note_on_c, 0, 72, 94
2, 568988, Note_on_c, 0, 56, 50
2, 568992, Note_on_c, 0, 62, 74
2, 569128, Note_on_c, 0, 52, 0
2, 569136, Note_on_c, 0, 72, 0
2, 569136, Note_on_c, 0, 62, 0
2, 569160, Note_on_c, 0, 71, 89
2, 569344, Note_on_c, 0, 71, 0
2, 569352, Note_on_c, 0, 74, 89
2, 569356, Note_on_c, 0, 62, 1
2, 569360, Control_c, 0, 64, 72
2, 569368, Note_on_c, 0, 53, 61
2, 569376, Control_c, 0, 64, 0
2, 569424, Control_c, 0, 64, 72
2, 569440, Control_c, 0, 64, 127
2, 569492, Note_on_c, 0, 74, 0
2, 569532, Note_on_c, 0, 72, 92
2, 569580, Note_on_c, 0, 62, 0
2, 569612, Note_on_c, 0, 56, 0
2, 569624, Note_on_c, 0, 72, 0
2, 569700, Note_on_c, 0, 71, 89
2, 569704, Note_on_c, 0, 60, 79
2, 569728, Note_on_c, 0, 57, 64
2, 569792, Note_on_c, 0, 60, 0
2, 569840, Note_on_c, 0, 71, 0
2, 569848, Note_on_c, 0, 53, 0
2, 569892, Note_on_c, 0, 69, 90
2, 570048, Note_on_c, 0, 69, 0
2, 570064, Note_on_c, 0, 57, 0
2, 570072, Control_c, 0, 64, 56
2, 570088, Note_on_c, 0, 72, 94
2, 570088, Control_c, 0, 64, 0
2, 570092, Note_on_c, 0, 65, 78
2, 570100, Note_on_c, 0, 62, 88
2, 570116, Note_on_c, 0, 50, 74
2, 570152, Control_c, 0, 64, 56
2, 570168, Control_c, 0, 64, 127
2, 570228, Note_on_c, 0, 50, 0
2, 570228, Note_on_c, 0, 72, 0
2, 570268, Note_on_c, 0, 62, 0
2, 570272, Note_on_c, 0, 65, 0
2, 570288, Note_on_c, 0, 71, 94
2, 570380, Note_on_c, 0, 71, 0
2, 570480, Note_on_c, 0, 69, 94
2, 570488, Note_on_c, 0, 62, 75
2, 570492, Control_c, 0, 64, 104
2, 570500, Note_on_c, 0, 52, 74
2, 570504, Note_on_c, 0, 59, 79
2, 570508, Control_c, 0, 64, 0
2, 570568, Control_c, 0, 64, 88
2, 570584, Control_c, 0, 64, 127
2, 570644, Note_on_c, 0, 69, 0
2, 570660, Note_on_c, 0, 62, 0
2, 570680, Note_on_c, 0, 68, 87
2, 570708, Note_on_c, 0, 52, 0
2, 570784, Note_on_c, 0, 59, 0
2, 570860, Note_on_c, 0, 68, 0
2, 570912, Note_on_c, 0, 69, 96
2, 570920, Note_on_c, 0, 60, 83
2, 570924, Control_c, 0, 64, 72
2, 570940, Note_on_c, 0, 53, 76
2, 570940, Note_on_c, 0, 57, 77
2, 570940, Control_c, 0, 64, 0
2, 570988, Control_c, 0, 64, 40
2, 570996, Note_on_c, 0, 60, 0
2, 571004, Control_c, 0, 64, 127
2, 571032, Note_on_c, 0, 53, 0
2, 571040, Note_on_c, 0, 57, 0
2, 571088, Note_on_c, 0, 69, 0
2, 571256, Note_on_c, 0, 53, 82
2, 571280, Control_c, 0, 64, 56
2, 571296, Control_c, 0, 64, 0
2, 571344, Note_on_c, 0, 65, 89
2, 571344, Control_c, 0, 64, 104
2, 571352, Note_on_c, 0, 53, 0
2, 571360, Control_c, 0, 64, 127
2, 571412, Note_on_c, 0, 65, 0
2, 571416, Note_on_c, 0, 69, 86
2, 571548, Note_on_c, 0, 81, 105
2, 571664, Note_on_c, 0, 81, 0
2, 571812, Note_on_c, 0, 79, 97
2, 571848, Note_on_c, 0, 69, 0
2, 571920, Note_on_c, 0, 79, 0
2, 571924, Note_on_c, 0, 50, 93
2, 571948, Control_c, 0, 64, 56
2, 571964, Control_c, 0, 64, 0
2, 571980, Control_c, 0, 64, 56
2, 571996, Note_on_c, 0, 62, 81
2, 571996, Control_c, 0, 64, 127
2, 572012, Note_on_c, 0, 65, 87
2, 572028, Note_on_c, 0, 50, 0
2, 572064, Note_on_c, 0, 62, 0
2, 572116, Note_on_c, 0, 77, 100
2, 572192, Note_on_c, 0, 65, 0
2, 572196, Note_on_c, 0, 77, 0
2, 572328, Note_on_c, 0, 76, 88
2, 572412, Note_on_c, 0, 76, 0
2, 572412, Note_on_c, 0, 47, 85
2, 572452, Note_on_c, 0, 62, 77
2, 572476, Control_c, 0, 64, 72
2, 572488, Note_on_c, 0, 59, 79
2, 572492, Control_c, 0, 64, 40
2, 572504, Control_c, 0, 64, 88
2, 572516, Note_on_c, 0, 47, 0
2, 572524, Control_c, 0, 64, 127
2, 572540, Note_on_c, 0, 59, 0
2, 572552, Note_on_c, 0, 74, 97
2, 572596, Note_on_c, 0, 62, 0
2, 572632, Note_on_c, 0, 74, 0
2, 572720, Note_on_c, 0, 72, 97
2, 572816, Note_on_c, 0, 44, 85
2, 572820, Note_on_c, 0, 72, 0
2, 572844, Control_c, 0, 64, 104
2, 572860, Control_c, 0, 64, 72
2, 572868, Note_on_c, 0, 59, 76
2, 572876, Note_on_c, 0, 56, 76
2, 572880, Control_c, 0, 64, 127
2, 572924, Note_on_c, 0, 44, 0
2, 572940, Note_on_c, 0, 56, 0
2, 572956, Note_on_c, 0, 59, 0
2, 572956, Note_on_c, 0, 71, 92
2, 573036, Note_on_c, 0, 71, 0
2, 573108, Note_on_c, 0, 69, 94
2, 573192, Note_on_c, 0, 40, 82
2, 573204, Note_on_c, 0, 69, 0
2, 573248, Control_c, 0, 64, 40
2, 573264, Note_on_c, 0, 56, 89
2, 573264, Note_on_c, 0, 52, 87
2, 573268, Control_c, 0, 64, 24
2, 573284, Control_c, 0, 64, 88
2, 573288, Note_on_c, 0, 40, 0
2, 573296, Control_c, 0, 64, 127
2, 573312, Note_on_c, 0, 52, 0
2, 573336, Note_on_c, 0, 68, 85
2, 573348, Note_on_c, 0, 56, 0
2, 573404, Note_on_c, 0, 68, 0
2, 573484, Note_on_c, 0, 66, 92
2, 573552, Note_on_c, 0, 36, 82
2, 573576, Note_on_c, 0, 66, 0
2, 573624, Control_c, 0, 64, 40
2, 573628, Note_on_c, 0, 48, 89
2, 573640, Note_on_c, 0, 52, 79
2, 573640, Control_c, 0, 64, 56
2, 573656, Control_c, 0, 64, 127
2, 573668, Note_on_c, 0, 36, 0
2, 573680, Note_on_c, 0, 48, 0
2, 573692, Note_on_c, 0, 64, 93
2, 573728, Note_on_c, 0, 52, 0
2, 573772, Note_on_c, 0, 64, 0
2, 573848, Note_on_c, 0, 62, 92
2, 573940, Note_on_c, 0, 62, 0
2, 573940, Note_on_c, 0, 33, 85
2, 573996, Control_c, 0, 64, 40
2, 574012, Note_on_c, 0, 45, 88
2, 574012, Control_c, 0, 64, 0
2, 574024, Control_c, 0, 64, 40
2, 574036, Note_on_c, 0, 48, 87
2, 574036, Note_on_c, 0, 60, 100
2, 574040, Control_c, 0, 64, 104
2, 574056, Control_c, 0, 64, 127
2, 574064, Note_on_c, 0, 45, 0
2, 574068, Note_on_c, 0, 33, 0
2, 574092, Note_on_c, 0, 48, 0
2, 574144, Note_on_c, 0, 60, 0
2, 574204, Note_on_c, 0, 59, 88
2, 574288, Note_on_c, 0, 59, 0
2, 574352, Control_c, 0, 64, 0
2, 574388, Note_on_c, 0, 29, 72
2, 574392, Note_on_c, 0, 41, 100
2, 574428, Control_c, 0, 64, 72
2, 574436, Note_on_c, 0, 29, 0
2, 574444, Control_c, 0, 64, 127
2, 574448, Note_on_c, 0, 41, 0
2, 574600, Note_on_c, 0, 57, 86
2, 574600, Note_on_c, 0, 53, 73
2, 574600, Note_on_c, 0, 48, 60
2, 574636, Note_on_c, 0, 48, 0
2, 574656, Note_on_c, 0, 53, 0
2, 574676, Note_on_c, 0, 57, 0
2, 574792, Note_on_c, 0, 60, 86
2, 574792, Note_on_c, 0, 57, 81
2, 574808, Note_on_c, 0, 53, 58
2, 574836, Note_on_c, 0, 53, 0
2, 574844, Note_on_c, 0, 57, 0
2, 574844, Note_on_c, 0, 60, 0
2, 574924, Control_c, 0, 64, 88
2, 574940, Control_c, 0, 64, 24
2, 574952, Control_c, 0, 64, 0
2, 574964, Note_on_c, 0, 65, 87
2, 574964, Note_on_c, 0, 57, 75
2, 574968, Note_on_c, 0, 60, 79
2, 574992, Note_on_c, 0, 60, 0
2, 574992, Note_on_c, 0, 57, 0
2, 575052, Note_on_c, 0, 65, 0
2, 575152, Note_on_c, 0, 69, 96
2, 575156, Note_on_c, 0, 65, 85
2, 575164, Note_on_c, 0, 60, 70
2, 575188, Control_c, 0, 64, 88
2, 575200, Control_c, 0, 64, 127
2, 575224, Note_on_c, 0, 60, 0
2, 575264, Note_on_c, 0, 69, 0
2, 575296, Note_on_c, 0, 65, 0
2, 575336, Note_on_c, 0, 58, 73
2, 575336, Note_on_c, 0, 67, 82
2, 575344, Note_on_c, 0, 64, 73
2, 575416, Note_on_c, 0, 58, 0
2, 575420, Note_on_c, 0, 64, 0
2, 575472, Note_on_c, 0, 67, 0
2, 575504, Note_on_c, 0, 65, 77
2, 575512, Control_c, 0, 64, 104
2, 575516, Note_on_c, 0, 57, 62
2, 575528, Control_c, 0, 64, 72
2, 575544, Control_c, 0, 64, 24
2, 575552, Note_on_c, 0, 57, 0
2, 575560, Control_c, 0, 64, 0
2, 575620, Note_on_c, 0, 65, 0
2, 575672, Note_on_c, 0, 67, 79
2, 575672, Note_on_c, 0, 58, 77
2, 575672, Note_on_c, 0, 64, 68
2, 575740, Note_on_c, 0, 58, 0
2, 575760, Note_on_c, 0, 64, 0
2, 575760, Note_on_c, 0, 67, 0
2, 575860, Note_on_c, 0, 69, 87
2, 575860, Note_on_c, 0, 65, 82
2, 575864, Note_on_c, 0, 60, 77
2, 575972, Note_on_c, 0, 60, 0
2, 575988, Note_on_c, 0, 65, 0
2, 576024, Control_c, 0, 64, 40
2, 576040, Note_on_c, 0, 57, 77
2, 576040, Control_c, 0, 64, 127
2, 576048, Note_on_c, 0, 53, 68
2, 576052, Note_on_c, 0, 48, 78
2, 576080, Note_on_c, 0, 69, 0
2, 576112, Note_on_c, 0, 48, 0
2, 576132, Note_on_c, 0, 53, 0
2, 576136, Note_on_c, 0, 57, 0
2, 576212, Note_on_c, 0, 60, 90
2, 576212, Note_on_c, 0, 57, 67
2, 576236, Note_on_c, 0, 53, 43
2, 576252, Note_on_c, 0, 57, 0
2, 576256, Note_on_c, 0, 60, 0
2, 576256, Control_c, 0, 64, 88
2, 576268, Note_on_c, 0, 53, 0
2, 576272, Control_c, 0, 64, 56
2, 576284, Control_c, 0, 64, 24
2, 576304, Control_c, 0, 64, 0
2, 576388, Note_on_c, 0, 65, 83
2, 576396, Note_on_c, 0, 60, 77
2, 576400, Note_on_c, 0, 57, 67
2, 576424, Note_on_c, 0, 60, 0
2, 576436, Note_on_c, 0, 57, 0
2, 576488, Note_on_c, 0, 65, 0
2, 576572, Note_on_c, 0, 69, 94
2, 576572, Note_on_c, 0, 65, 76
2, 576572, Note_on_c, 0, 60, 79
2, 576580, Control_c, 0, 64, 40
2, 576596, Control_c, 0, 64, 127
2, 576648, Note_on_c, 0, 60, 0
2, 576688, Note_on_c, 0, 69, 0
2, 576708, Note_on_c, 0, 65, 0
2, 576752, Note_on_c, 0, 67, 81
2, 576756, Note_on_c, 0, 58, 70
2, 576824, Note_on_c, 0, 58, 0
2, 576832, Note_on_c, 0, 67, 0
2, 576908, Control_c, 0, 64, 88
2, 576916, Note_on_c, 0, 65, 86
2, 576924, Note_on_c, 0, 57, 64
2, 576924, Control_c, 0, 64, 56
2, 576940, Control_c, 0, 64, 24
2, 576956, Control_c, 0, 64, 0
2, 576976, Note_on_c, 0, 57, 0
2, 577000, Note_on_c, 0, 65, 0
2, 577088, Note_on_c, 0, 64, 90
2, 577096, Note_on_c, 0, 33, 68
2, 577100, Note_on_c, 0, 45, 84
2, 577104, Note_on_c, 0, 55, 72
2, 577104, Note_on_c, 0, 61, 62
2, 577132, Note_on_c, 0, 55, 0
2, 577140, Note_on_c, 0, 33, 0
2, 577160, Note_on_c, 0, 45, 0
2, 577176, Note_on_c, 0, 61, 0
2, 577180, Note_on_c, 0, 64, 0
2, 577272, Note_on_c, 0, 65, 93
2, 577288, Note_on_c, 0, 57, 74
2, 577288, Note_on_c, 0, 62, 74
2, 577296, Note_on_c, 0, 50, 81
2, 577296, Control_c, 0, 64, 40
2, 577304, Note_on_c, 0, 38, 71
2, 577312, Control_c, 0, 64, 104
2, 577324, Control_c, 0, 64, 127
2, 577328, Note_on_c, 0, 50, 0
2, 577340, Note_on_c, 0, 62, 0
2, 577348, Note_on_c, 0, 57, 0
2, 577360, Note_on_c, 0, 38, 0
2, 577388, Note_on_c, 0, 65, 0
2, 577444, Note_on_c, 0, 65, 79
2, 577460, Note_on_c, 0, 57, 56
2, 577472, Note_on_c, 0, 62, 49
2, 577488, Note_on_c, 0, 57, 0
2, 577504, Note_on_c, 0, 62, 0
2, 577524, Note_on_c, 0, 65, 0
2, 577616, Note_on_c, 0, 69, 93
2, 577620, Note_on_c, 0, 62, 73
2, 577636, Note_on_c, 0, 65, 47
2, 577648, Note_on_c, 0, 62, 0
2, 577672, Note_on_c, 0, 65, 0
2, 577676, Note_on_c, 0, 69, 0
2, 577788, Note_on_c, 0, 74, 92
2, 577792, Note_on_c, 0, 65, 75
2, 577796, Note_on_c, 0, 69, 68
2, 577824, Note_on_c, 0, 69, 0
2, 577840, Note_on_c, 0, 65, 0
2, 577860, Note_on_c, 0, 74, 0
2, 577956, Note_on_c, 0, 77, 100
2, 577964, Note_on_c, 0, 74, 84
2, 577964, Note_on_c, 0, 69, 82
2, 578028, Note_on_c, 0, 69, 0
2, 578056, Note_on_c, 0, 77, 0
2, 578064, Note_on_c, 0, 74, 0
2, 578128, Note_on_c, 0, 76, 89
2, 578136, Note_on_c, 0, 73, 80
2, 578144, Note_on_c, 0, 67, 65
2, 578188, Note_on_c, 0, 67, 0
2, 578228, Note_on_c, 0, 73, 0
2, 578244, Note_on_c, 0, 76, 0
2, 578296, Note_on_c, 0, 74, 93
2, 578304, Note_on_c, 0, 65, 69
2, 578360, Note_on_c, 0, 65, 0
2, 578412, Note_on_c, 0, 74, 0
2, 578456, Control_c, 0, 64, 104
2, 578464, Note_on_c, 0, 33, 66
2, 578464, Note_on_c, 0, 76, 99
2, 578472, Note_on_c, 0, 67, 79
2, 578472, Note_on_c, 0, 45, 80
2, 578472, Note_on_c, 0, 73, 77
2, 578472, Control_c, 0, 64, 88
2, 578488, Control_c, 0, 64, 72
2, 578504, Control_c, 0, 64, 56
2, 578520, Note_on_c, 0, 33, 0
2, 578520, Control_c, 0, 64, 40
2, 578528, Note_on_c, 0, 45, 0
2, 578532, Control_c, 0, 64, 24
2, 578548, Note_on_c, 0, 73, 0
2, 578548, Note_on_c, 0, 67, 0
2, 578548, Control_c, 0, 64, 0
2, 578600, Note_on_c, 0, 76, 0
2, 578652, Note_on_c, 0, 77, 102
2, 578660, Note_on_c, 0, 74, 92
2, 578660, Note_on_c, 0, 69, 92
2, 578676, Control_c, 0, 64, 40
2, 578684, Note_on_c, 0, 50, 81
2, 578692, Note_on_c, 0, 38, 73
2, 578692, Control_c, 0, 64, 127
2, 578704, Note_on_c, 0, 69, 0
2, 578716, Note_on_c, 0, 74, 0
2, 578732, Note_on_c, 0, 77, 0
2, 578740, Note_on_c, 0, 50, 0
2, 578744, Note_on_c, 0, 38, 0
2, 578828, Note_on_c, 0, 62, 78
2, 578832, Note_on_c, 0, 53, 73
2, 578840, Note_on_c, 0, 57, 58
2, 578880, Note_on_c, 0, 53, 0
2, 578912, Note_on_c, 0, 57, 0
2, 578932, Note_on_c, 0, 62, 0
2, 579000, Note_on_c, 0, 65, 87
2, 579004, Note_on_c, 0, 62, 82
2, 579004, Note_on_c, 0, 57, 72
2, 579016, Control_c, 0, 64, 40
2, 579028, Control_c, 0, 64, 88
2, 579036, Note_on_c, 0, 65, 0
2, 579040, Note_on_c, 0, 57, 0
2, 579040, Note_on_c, 0, 62, 0
2, 579040, Control_c, 0, 64, 127
2, 579112, Control_c, 0, 64, 88
2, 579120, Control_c, 0, 64, 24
2, 579132, Control_c, 0, 64, 0
2, 579160, Note_on_c, 0, 69, 81
2, 579160, Note_on_c, 0, 62, 59
2, 579164, Note_on_c, 0, 65, 64
2, 579204, Note_on_c, 0, 62, 0
2, 579208, Control_c, 0, 64, 24
2, 579212, Note_on_c, 0, 65, 0
2, 579216, Control_c, 0, 64, 40
2, 579248, Control_c, 0, 64, 0
2, 579256, Note_on_c, 0, 69, 0
2, 579328, Note_on_c, 0, 65, 85
2, 579332, Note_on_c, 0, 74, 97
2, 579344, Note_on_c, 0, 69, 36
2, 579352, Control_c, 0, 64, 24
2, 579360, Control_c, 0, 64, 72
2, 579368, Note_on_c, 0, 69, 0
2, 579372, Control_c, 0, 64, 104
2, 579384, Control_c, 0, 64, 127
2, 579412, Note_on_c, 0, 74, 0
2, 579476, Note_on_c, 0, 65, 0
2, 579476, Control_c, 0, 64, 104
2, 579488, Control_c, 0, 64, 56
2, 579496, Note_on_c, 0, 72, 99
2, 579500, Control_c, 0, 64, 0
2, 579504, Note_on_c, 0, 64, 78
2, 579504, Note_on_c, 0, 65, 48
2, 579528, Control_c, 0, 64, 56
2, 579540, Note_on_c, 0, 65, 0
2, 579540, Control_c, 0, 64, 88
2, 579544, Note_on_c, 0, 64, 0
2, 579552, Control_c, 0, 64, 127
2, 579568, Note_on_c, 0, 72, 0
2, 579632, Control_c, 0, 64, 88
2, 579644, Control_c, 0, 64, 24
2, 579656, Control_c, 0, 64, 0
2, 579664, Note_on_c, 0, 71, 86
2, 579672, Note_on_c, 0, 65, 81
2, 579672, Note_on_c, 0, 62, 70
2, 579684, Control_c, 0, 64, 24
2, 579696, Control_c, 0, 64, 72
2, 579708, Control_c, 0, 64, 104
2, 579712, Note_on_c, 0, 65, 0
2, 579716, Note_on_c, 0, 62, 0
2, 579720, Note_on_c, 0, 71, 0
2, 579720, Control_c, 0, 64, 127
2, 579800, Control_c, 0, 64, 72
2, 579812, Control_c, 0, 64, 0
2, 579840, Note_on_c, 0, 63, 67
2, 579840, Note_on_c, 0, 69, 92
2, 579840, Note_on_c, 0, 47, 80
2, 579840, Note_on_c, 0, 35, 73
2, 579840, Note_on_c, 0, 66, 68
2, 579852, Control_c, 0, 64, 24
2, 579864, Control_c, 0, 64, 72
2, 579872, Control_c, 0, 64, 104
2, 579876, Note_on_c, 0, 47, 0
2, 579884, Note_on_c, 0, 35, 0
2, 579884, Note_on_c, 0, 63, 0
2, 579888, Control_c, 0, 64, 127
2, 579900, Note_on_c, 0, 66, 0
2, 579916, Note_on_c, 0, 69, 0
2, 579968, Control_c, 0, 64, 88
2, 579980, Control_c, 0, 64, 40
2, 579992, Control_c, 0, 64, 0
2, 580008, Note_on_c, 0, 68, 84
2, 580012, Note_on_c, 0, 59, 80
2, 580012, Note_on_c, 0, 64, 82
2, 580016, Note_on_c, 0, 52, 80
2, 580016, Note_on_c, 0, 40, 75
2, 580064, Control_c, 0, 64, 72
2, 580072, Control_c, 0, 64, 127
2, 580076, Note_on_c, 0, 59, 0
2, 580084, Note_on_c, 0, 68, 0
2, 580084, Note_on_c, 0, 64, 0
2, 580176, Note_on_c, 0, 59, 77
2, 580176, Note_on_c, 0, 68, 81
2, 580180, Note_on_c, 0, 64, 77
2, 580208, Note_on_c, 0, 64, 0
2, 580208, Note_on_c, 0, 59, 0
2, 580224, Note_on_c, 0, 68, 0
2, 580348, Note_on_c, 0, 71, 88
2, 580348, Note_on_c, 0, 68, 72
2, 580348, Note_on_c, 0, 64, 82
2, 580388, Note_on_c, 0, 64, 0
2, 580396, Note_on_c, 0, 68, 0
2, 580416, Note_on_c, 0, 71, 0
2, 580424, Note_on_c, 0, 40, 0
2, 580432, Note_on_c, 0, 52, 0
2, 580512, Note_on_c, 0, 71, 85
2, 580516, Note_on_c, 0, 68, 77
2, 580520, Note_on_c, 0, 76, 92
2, 580540, Note_on_c, 0, 68, 0
2, 580552, Note_on_c, 0, 71, 0
2, 580564, Note_on_c, 0, 76, 0
2, 580692, Note_on_c, 0, 80, 97
2, 580692, Note_on_c, 0, 76, 97
2, 580692, Note_on_c, 0, 71, 87
2, 580732, Note_on_c, 0, 71, 0
2, 580764, Note_on_c, 0, 76, 0
2, 580780, Note_on_c, 0, 80, 0
2, 580864, Note_on_c, 0, 75, 93
2, 580864, Note_on_c, 0, 78, 89
2, 580864, Note_on_c, 0, 69, 83
2, 580896, Note_on_c, 0, 69, 0
2, 580936, Note_on_c, 0, 75, 0
2, 580964, Note_on_c, 0, 78, 0
2, 581020, Note_on_c, 0, 68, 77
2, 581024, Note_on_c, 0, 76, 96
2, 581080, Note_on_c, 0, 68, 0
2, 581132, Note_on_c, 0, 76, 0
2, 581184, Note_on_c, 0, 78, 92
2, 581184, Note_on_c, 0, 69, 89
2, 581188, Note_on_c, 0, 75, 89
2, 581192, Note_on_c, 0, 35, 76
2, 581192, Note_on_c, 0, 47, 79
2, 581220, Note_on_c, 0, 69, 0
2, 581232, Note_on_c, 0, 35, 0
2, 581232, Note_on_c, 0, 47, 0
2, 581240, Note_on_c, 0, 75, 0
2, 581308, Control_c, 0, 64, 104
2, 581316, Control_c, 0, 64, 40
2, 581324, Note_on_c, 0, 78, 0
2, 581328, Control_c, 0, 64, 0
2, 581356, Note_on_c, 0, 80, 96
2, 581356, Note_on_c, 0, 71, 81
2, 581360, Note_on_c, 0, 76, 90
2, 581360, Note_on_c, 0, 40, 80
2, 581368, Note_on_c, 0, 52, 75
2, 581392, Control_c, 0, 64, 40
2, 581404, Note_on_c, 0, 52, 0
2, 581404, Note_on_c, 0, 71, 0
2, 581404, Control_c, 0, 64, 104
2, 581412, Note_on_c, 0, 40, 0
2, 581412, Control_c, 0, 64, 127
2, 581420, Note_on_c, 0, 76, 0
2, 581432, Note_on_c, 0, 80, 0
2, 581532, Note_on_c, 0, 56, 69
2, 581536, Note_on_c, 0, 64, 82
2, 581544, Note_on_c, 0, 59, 58
2, 581588, Note_on_c, 0, 56, 0
2, 581616, Note_on_c, 0, 64, 0
2, 581624, Note_on_c, 0, 59, 0
2, 581696, Note_on_c, 0, 68, 85
2, 581700, Note_on_c, 0, 59, 59
2, 581704, Note_on_c, 0, 64, 67
2, 581720, Note_on_c, 0, 64, 0
2, 581736, Note_on_c, 0, 59, 0
2, 581736, Note_on_c, 0, 68, 0
2, 581864, Note_on_c, 0, 71, 86
2, 581864, Note_on_c, 0, 68, 73
2, 581864, Note_on_c, 0, 64, 78
2, 581904, Note_on_c, 0, 64, 0
2, 581916, Note_on_c, 0, 68, 0
2, 581936, Note_on_c, 0, 71, 0
2, 582036, Note_on_c, 0, 68, 79
2, 582036, Note_on_c, 0, 76, 97
2, 582040, Note_on_c, 0, 71, 92
2, 582124, Note_on_c, 0, 76, 0
2, 582200, Note_on_c, 0, 74, 99
2, 582204, Note_on_c, 0, 65, 72
2, 582256, Note_on_c, 0, 65, 0
2, 582264, Note_on_c, 0, 68, 0
2, 582280, Note_on_c, 0, 71, 0
2, 582304, Note_on_c, 0, 74, 0
2, 582384, Note_on_c, 0, 72, 96
2, 582388, Note_on_c, 0, 64, 81
2, 582392, Note_on_c, 0, 68, 76
2, 582452, Note_on_c, 0, 64, 0
2, 582472, Note_on_c, 0, 72, 0
2, 582488, Note_on_c, 0, 68, 0
2, 582564, Note_on_c, 0, 71, 83
2, 582568, Note_on_c, 0, 68, 69
2, 582568, Note_on_c, 0, 62, 72
2, 582572, Note_on_c, 0, 40, 75
2, 582580, Note_on_c, 0, 52, 88
2, 582612, Note_on_c, 0, 52, 0
2, 582612, Note_on_c, 0, 40, 0
2, 582616, Note_on_c, 0, 62, 0
2, 582652, Note_on_c, 0, 68, 0
2, 582684, Note_on_c, 0, 71, 0
2, 582752, Control_c, 0, 64, 104
2, 582760, Control_c, 0, 64, 40
2, 582772, Note_on_c, 0, 72, 90
2, 582772, Control_c, 0, 64, 0
2, 582776, Note_on_c, 0, 69, 82
2, 582776, Note_on_c, 0, 57, 87
2, 582776, Note_on_c, 0, 64, 77
2, 582780, Note_on_c, 0, 45, 86
2, 582832, Note_on_c, 0, 69, 0
2, 582844, Control_c, 0, 64, 88
2, 582856, Note_on_c, 0, 64, 0
2, 582856, Control_c, 0, 64, 127
2, 582864, Note_on_c, 0, 72, 0
2, 582960, Note_on_c, 0, 69, 85
2, 582964, Note_on_c, 0, 60, 76
2, 582968, Note_on_c, 0, 45, 0
2, 582968, Note_on_c, 0, 64, 70
2, 582980, Note_on_c, 0, 57, 0
2, 583012, Note_on_c, 0, 64, 0
2, 583024, Note_on_c, 0, 60, 0
2, 583104, Note_on_c, 0, 69, 0
2, 583104, Control_c, 0, 64, 56
2, 583116, Control_c, 0, 64, 0
2, 583140, Note_on_c, 0, 72, 93
2, 583144, Note_on_c, 0, 64, 75
2, 583152, Note_on_c, 0, 55, 85
2, 583152, Note_on_c, 0, 69, 66
2, 583156, Note_on_c, 0, 43, 76
2, 583164, Note_on_c, 0, 64, 0
2, 583168, Note_on_c, 0, 69, 0
2, 583180, Control_c, 0, 64, 72
2, 583192, Control_c, 0, 64, 127
2, 583200, Note_on_c, 0, 72, 0
2, 583316, Note_on_c, 0, 76, 92
2, 583316, Note_on_c, 0, 69, 83
2, 583324, Note_on_c, 0, 72, 72
2, 583340, Note_on_c, 0, 72, 0
2, 583348, Note_on_c, 0, 55, 0
2, 583348, Note_on_c, 0, 43, 0
2, 583348, Note_on_c, 0, 69, 0
2, 583384, Note_on_c, 0, 76, 0
2, 583472, Control_c, 0, 64, 104
2, 583484, Control_c, 0, 64, 40
2, 583492, Note_on_c, 0, 81, 105
2, 583492, Control_c, 0, 64, 0
2, 583496, Note_on_c, 0, 72, 90
2, 583500, Note_on_c, 0, 69, 84
2, 583504, Note_on_c, 0, 53, 74
2, 583508, Note_on_c, 0, 41, 74
2, 583544, Note_on_c, 0, 69, 0
2, 583556, Note_on_c, 0, 72, 0
2, 583556, Control_c, 0, 64, 104
2, 583564, Control_c, 0, 64, 127
2, 583664, Note_on_c, 0, 72, 82
2, 583664, Note_on_c, 0, 69, 75
2, 583672, Note_on_c, 0, 53, 0
2, 583680, Note_on_c, 0, 41, 0
2, 583720, Note_on_c, 0, 69, 0
2, 583724, Note_on_c, 0, 72, 0
2, 583804, Note_on_c, 0, 81, 0
2, 583820, Note_on_c, 0, 73, 83
2, 583820, Note_on_c, 0, 67, 74
2, 583836, Note_on_c, 0, 52, 74
2, 583840, Note_on_c, 0, 40, 72
2, 583868, Note_on_c, 0, 67, 0
2, 583896, Note_on_c, 0, 73, 0
2, 583984, Note_on_c, 0, 73, 91
2, 583988, Note_on_c, 0, 79, 100
2, 583992, Note_on_c, 0, 52, 0
2, 583992, Note_on_c, 0, 40, 0
2, 584060, Note_on_c, 0, 79, 0
2, 584080, Note_on_c, 0, 73, 0
2, 584132, Control_c, 0, 64, 72
2, 584144, Control_c, 0, 64, 0
2, 584160, Note_on_c, 0, 77, 94
2, 584168, Note_on_c, 0, 69, 82
2, 584168, Note_on_c, 0, 74, 84
2, 584176, Note_on_c, 0, 50, 77
2, 584180, Note_on_c, 0, 38, 70
2, 584204, Note_on_c, 0, 74, 0
2, 584204, Note_on_c, 0, 77, 0
2, 584204, Control_c, 0, 64, 72
2, 584212, Note_on_c, 0, 69, 0
2, 584216, Control_c, 0, 64, 127
2, 584348, Note_on_c, 0, 38, 0
2, 584352, Note_on_c, 0, 62, 85
2, 584352, Note_on_c, 0, 53, 76
2, 584356, Note_on_c, 0, 57, 68
2, 584364, Note_on_c, 0, 50, 0
2, 584396, Note_on_c, 0, 53, 0
2, 584400, Note_on_c, 0, 57, 0
2, 584444, Note_on_c, 0, 62, 0
2, 584488, Control_c, 0, 64, 72
2, 584496, Control_c, 0, 64, 0
2, 584520, Note_on_c, 0, 65, 90
2, 584520, Note_on_c, 0, 62, 77
2, 584520, Note_on_c, 0, 57, 74
2, 584524, Note_on_c, 0, 53, 70
2, 584536, Note_on_c, 0, 48, 76
2, 584540, Note_on_c, 0, 57, 0
2, 584540, Note_on_c, 0, 36, 71
2, 584544, Note_on_c, 0, 53, 0
2, 584548, Control_c, 0, 64, 72
2, 584560, Control_c, 0, 64, 127
2, 584568, Note_on_c, 0, 62, 0
2, 584580, Note_on_c, 0, 65, 0
2, 584684, Note_on_c, 0, 69, 87
2, 584688, Note_on_c, 0, 62, 82
2, 584696, Note_on_c, 0, 65, 49
2, 584708, Note_on_c, 0, 64, 34
2, 584720, Note_on_c, 0, 65, 0
2, 584720, Note_on_c, 0, 48, 0
2, 584724, Note_on_c, 0, 36, 0
2, 584728, Note_on_c, 0, 62, 0
2, 584728, Note_on_c, 0, 64, 0
2, 584748, Note_on_c, 0, 69, 0
2, 584832, Control_c, 0, 64, 104
2, 584844, Control_c, 0, 64, 40
2, 584852, Control_c, 0, 64, 0
2, 584860, Note_on_c, 0, 74, 102
2, 584864, Note_on_c, 0, 65, 78
2, 584868, Note_on_c, 0, 62, 73
2, 584888, Note_on_c, 0, 47, 52
2, 584892, Note_on_c, 0, 35, 72
2, 584912, Control_c, 0, 64, 72
2, 584916, Note_on_c, 0, 65, 0
2, 584924, Control_c, 0, 64, 127
2, 584940, Note_on_c, 0, 62, 0
2, 585028, Note_on_c, 0, 65, 79
2, 585032, Note_on_c, 0, 62, 74
2, 585044, Note_on_c, 0, 35, 0
2, 585060, Note_on_c, 0, 47, 0
2, 585080, Note_on_c, 0, 62, 0
2, 585104, Note_on_c, 0, 65, 0
2, 585180, Note_on_c, 0, 60, 75
2, 585184, Note_on_c, 0, 66, 75
2, 585188, Note_on_c, 0, 74, 0
2, 585192, Note_on_c, 0, 45, 78
2, 585196, Note_on_c, 0, 33, 71
2, 585236, Note_on_c, 0, 60, 0
2, 585248, Note_on_c, 0, 45, 0
2, 585256, Note_on_c, 0, 66, 0
2, 585256, Note_on_c, 0, 33, 0
2, 585352, Note_on_c, 0, 72, 84
2, 585356, Note_on_c, 0, 66, 79
2, 585424, Note_on_c, 0, 72, 0
2, 585444, Note_on_c, 0, 66, 0
2, 585492, Control_c, 0, 64, 88
2, 585500, Control_c, 0, 64, 24
2, 585512, Control_c, 0, 64, 0
2, 585516, Note_on_c, 0, 71, 92
2, 585520, Note_on_c, 0, 67, 82
2, 585528, Note_on_c, 0, 62, 72
2, 585532, Note_on_c, 0, 43, 77
2, 585532, Note_on_c, 0, 31, 70
2, 585564, Control_c, 0, 64, 56
2, 585576, Note_on_c, 0, 31, 0
2, 585576, Note_on_c, 0, 67, 0
2, 585576, Control_c, 0, 64, 127
2, 585580, Note_on_c, 0, 43, 0
2, 585584, Note_on_c, 0, 62, 0
2, 585624, Note_on_c, 0, 71, 0
2, 585692, Note_on_c, 0, 67, 83
2, 585696, Note_on_c, 0, 62, 71
2, 585700, Note_on_c, 0, 59, 64
2, 585752, Note_on_c, 0, 62, 0
2, 585760, Note_on_c, 0, 59, 0
2, 585804, Note_on_c, 0, 67, 0
2, 585828, Control_c, 0, 64, 104
2, 585836, Control_c, 0, 64, 24
2, 585848, Control_c, 0, 64, 0
2, 585860, Note_on_c, 0, 71, 92
2, 585860, Note_on_c, 0, 62, 81
2, 585864, Note_on_c, 0, 67, 62
2, 585868, Note_on_c, 0, 59, 63
2, 585868, Note_on_c, 0, 53, 74
2, 585872, Note_on_c, 0, 41, 73
2, 585888, Note_on_c, 0, 59, 0
2, 585888, Note_on_c, 0, 62, 0
2, 585888, Control_c, 0, 64, 24
2, 585896, Control_c, 0, 64, 88
2, 585908, Note_on_c, 0, 67, 0
2, 585908, Control_c, 0, 64, 127
2, 585928, Note_on_c, 0, 71, 0
2, 586024, Note_on_c, 0, 67, 83
2, 586028, Note_on_c, 0, 74, 96
2, 586028, Note_on_c, 0, 71, 81
2, 586064, Note_on_c, 0, 71, 0
2, 586064, Note_on_c, 0, 41, 0
2, 586068, Note_on_c, 0, 53, 0
2, 586068, Note_on_c, 0, 67, 0
2, 586100, Note_on_c, 0, 74, 0
2, 586200, Control_c, 0, 64, 104
2, 586208, Note_on_c, 0, 79, 103
2, 586212, Note_on_c, 0, 72, 90
2, 586212, Note_on_c, 0, 67, 80
2, 586212, Control_c, 0, 64, 40
2, 586224, Control_c, 0, 64, 0
2, 586228, Note_on_c, 0, 52, 73
2, 586228, Note_on_c, 0, 40, 72
2, 586284, Note_on_c, 0, 72, 0
2, 586288, Note_on_c, 0, 67, 0
2, 586296, Control_c, 0, 64, 88
2, 586308, Control_c, 0, 64, 127
2, 586368, Note_on_c, 0, 67, 68
2, 586368, Note_on_c, 0, 72, 78
2, 586384, Note_on_c, 0, 40, 0
2, 586392, Note_on_c, 0, 52, 0
2, 586448, Note_on_c, 0, 67, 0
2, 586456, Note_on_c, 0, 72, 0
2, 586524, Note_on_c, 0, 71, 77
2, 586528, Note_on_c, 0, 65, 64
2, 586544, Note_on_c, 0, 79, 0
2, 586544, Note_on_c, 0, 50, 72
2, 586548, Note_on_c, 0, 38, 71
2, 586592, Note_on_c, 0, 65, 0
2, 586596, Note_on_c, 0, 71, 0
2, 586656, Note_on_c, 0, 50, 0
2, 586672, Note_on_c, 0, 38, 0
2, 586688, Note_on_c, 0, 77, 94
2, 586692, Note_on_c, 0, 71, 82
2, 586696, Note_on_c, 0, 65, 71
2, 586764, Note_on_c, 0, 65, 0
2, 586764, Note_on_c, 0, 77, 0
2, 586780, Note_on_c, 0, 71, 0
2, 586828, Control_c, 0, 64, 104
2, 586840, Control_c, 0, 64, 0
2, 586860, Note_on_c, 0, 76, 93
2, 586864, Note_on_c, 0, 72, 89
2, 586868, Note_on_c, 0, 64, 81
2, 586880, Note_on_c, 0, 48, 81
2, 586880, Note_on_c, 0, 36, 70
2, 586900, Note_on_c, 0, 72, 0
2, 586904, Control_c, 0, 64, 88
2, 586908, Note_on_c, 0, 64, 0
2, 586912, Control_c, 0, 64, 127
2, 586916, Note_on_c, 0, 76, 0
2, 586920, Note_on_c, 0, 48, 0
2, 586928, Note_on_c, 0, 36, 0
2, 587036, Note_on_c, 0, 60, 77
2, 587036, Note_on_c, 0, 52, 71
2, 587040, Note_on_c, 0, 55, 71
2, 587084, Note_on_c, 0, 55, 0
2, 587092, Note_on_c, 0, 52, 0
2, 587132, Note_on_c, 0, 60, 0
2, 587152, Control_c, 0, 64, 104
2, 587164, Control_c, 0, 64, 24
2, 587176, Control_c, 0, 64, 0
2, 587200, Note_on_c, 0, 55, 74
2, 587200, Note_on_c, 0, 64, 88
2, 587204, Note_on_c, 0, 60, 76
2, 587208, Note_on_c, 0, 52, 64
2, 587216, Note_on_c, 0, 46, 85
2, 587220, Note_on_c, 0, 34, 71
2, 587224, Note_on_c, 0, 55, 0
2, 587228, Note_on_c, 0, 52, 0
2, 587228, Control_c, 0, 64, 88
2, 587236, Control_c, 0, 64, 127
2, 587252, Note_on_c, 0, 60, 0
2, 587268, Note_on_c, 0, 64, 0
2, 587368, Note_on_c, 0, 67, 83
2, 587368, Note_on_c, 0, 60, 77
2, 587376, Note_on_c, 0, 64, 72
2, 587396, Note_on_c, 0, 64, 0
2, 587412, Note_on_c, 0, 60, 0
2, 587420, Note_on_c, 0, 34, 0
2, 587436, Note_on_c, 0, 46, 0
2, 587444, Note_on_c, 0, 67, 0
2, 587532, Control_c, 0, 64, 104
2, 587540, Control_c, 0, 64, 24
2, 587552, Note_on_c, 0, 72, 105
2, 587552, Note_on_c, 0, 65, 83
2, 587552, Control_c, 0, 64, 0
2, 587556, Note_on_c, 0, 60, 81
2, 587568, Note_on_c, 0, 45, 82
2, 587572, Note_on_c, 0, 33, 71
2, 587600, Control_c, 0, 64, 72
2, 587612, Control_c, 0, 64, 127
2, 587628, Note_on_c, 0, 65, 0
2, 587632, Note_on_c, 0, 60, 0
2, 587720, Note_on_c, 0, 65, 76
2, 587724, Note_on_c, 0, 60, 69
2, 587728, Note_on_c, 0, 33, 0
2, 587728, Note_on_c, 0, 45, 0
2, 587780, Note_on_c, 0, 60, 0
2, 587796, Note_on_c, 0, 65, 0
2, 587832, Note_on_c, 0, 72, 0
2, 587892, Note_on_c, 0, 64, 85
2, 587892, Note_on_c, 0, 58, 60
2, 587904, Note_on_c, 0, 43, 68
2, 587908, Note_on_c, 0, 31, 70
2, 587976, Note_on_c, 0, 58, 0
2, 587980, Note_on_c, 0, 64, 0
2, 588008, Note_on_c, 0, 43, 0
2, 588024, Note_on_c, 0, 31, 0
2, 588048, Note_on_c, 0, 70, 84
2, 588052, Note_on_c, 0, 64, 78
2, 588056, Note_on_c, 0, 58, 56
2, 588088, Note_on_c, 0, 58, 0
2, 588108, Note_on_c, 0, 64, 0
2, 588124, Note_on_c, 0, 70, 0
2, 588200, Control_c, 0, 64, 56
2, 588208, Control_c, 0, 64, 0
2, 588216, Note_on_c, 0, 69, 86
2, 588224, Note_on_c, 0, 65, 81
2, 588224, Note_on_c, 0, 60, 77
2, 588232, Note_on_c, 0, 41, 70
2, 588232, Note_on_c, 0, 29, 69
2, 588264, Control_c, 0, 64, 72
2, 588272, Note_on_c, 0, 60, 0
2, 588272, Control_c, 0, 64, 127
2, 588280, Note_on_c, 0, 29, 0
2, 588288, Note_on_c, 0, 41, 0
2, 588296, Note_on_c, 0, 65, 0
2, 588300, Note_on_c, 0, 69, 0
2, 588388, Note_on_c, 0, 65, 86
2, 588392, Note_on_c, 0, 57, 71
2, 588396, Note_on_c, 0, 60, 76
2, 588444, Note_on_c, 0, 60, 0
2, 588448, Note_on_c, 0, 57, 0
2, 588496, Note_on_c, 0, 65, 0
2, 588536, Control_c, 0, 64, 56
2, 588544, Control_c, 0, 64, 0
2, 588552, Note_on_c, 0, 69, 96
2, 588556, Note_on_c, 0, 60, 82
2, 588560, Note_on_c, 0, 65, 70
2, 588560, Note_on_c, 0, 57, 72
2, 588564, Note_on_c, 0, 52, 80
2, 588568, Note_on_c, 0, 40, 73
2, 588576, Note_on_c, 0, 57, 0
2, 588588, Control_c, 0, 64, 40
2, 588592, Note_on_c, 0, 60, 0
2, 588596, Control_c, 0, 64, 104
2, 588600, Note_on_c, 0, 65, 0
2, 588608, Control_c, 0, 64, 127
2, 588624, Note_on_c, 0, 69, 0
2, 588724, Note_on_c, 0, 72, 99
2, 588724, Note_on_c, 0, 65, 81
2, 588728, Note_on_c, 0, 69, 77
2, 588756, Note_on_c, 0, 40, 0
2, 588760, Note_on_c, 0, 69, 0
2, 588768, Note_on_c, 0, 65, 0
2, 588776, Note_on_c, 0, 52, 0
2, 588800, Note_on_c, 0, 72, 0
2, 588888, Control_c, 0, 64, 40
2, 588892, Note_on_c, 0, 77, 103
2, 588896, Note_on_c, 0, 65, 82
2, 588900, Note_on_c, 0, 69, 83
2, 588900, Control_c, 0, 64, 0
2, 588916, Note_on_c, 0, 50, 77
2, 588916, Note_on_c, 0, 38, 72
2, 588952, Control_c, 0, 64, 56
2, 588964, Control_c, 0, 64, 127
2, 588980, Note_on_c, 0, 65, 0
2, 588984, Note_on_c, 0, 69, 0
2, 589064, Note_on_c, 0, 38, 0
2, 589064, Note_on_c, 0, 69, 70
2, 589068, Note_on_c, 0, 65, 70
2, 589104, Note_on_c, 0, 50, 0
2, 589120, Note_on_c, 0, 69, 0
2, 589136, Note_on_c, 0, 65, 0
2, 589216, Note_on_c, 0, 68, 73
2, 589216, Control_c, 0, 64, 56
2, 589220, Note_on_c, 0, 64, 74
2, 589224, Control_c, 0, 64, 0
2, 589232, Note_on_c, 0, 52, 77
2, 589236, Note_on_c, 0, 40, 71
2, 589268, Control_c, 0, 64, 72
2, 589276, Control_c, 0, 64, 127
2, 589292, Note_on_c, 0, 77, 0
2, 589312, Note_on_c, 0, 64, 0
2, 589316, Note_on_c, 0, 68, 0
2, 589328, Note_on_c, 0, 52, 0
2, 589332, Note_on_c, 0, 40, 0
2, 589392, Note_on_c, 0, 71, 90
2, 589392, Note_on_c, 0, 68, 82
2, 589456, Note_on_c, 0, 68, 0
2, 589456, Note_on_c, 0, 71, 0
2, 589556, Control_c, 0, 64, 72
2, 589564, Note_on_c, 0, 70, 81
2, 589564, Note_on_c, 0, 76, 97
2, 589568, Note_on_c, 0, 67, 81
2, 589568, Control_c, 0, 64, 0
2, 589584, Note_on_c, 0, 37, 72
2, 589584, Note_on_c, 0, 49, 71
2, 589620, Control_c, 0, 64, 72
2, 589632, Control_c, 0, 64, 127
2, 589644, Note_on_c, 0, 67, 0
2, 589664, Note_on_c, 0, 70, 0
2, 589728, Note_on_c, 0, 67, 71
2, 589728, Note_on_c, 0, 64, 71
2, 589776, Note_on_c, 0, 76, 0
2, 589784, Note_on_c, 0, 37, 0
2, 589796, Note_on_c, 0, 67, 0
2, 589804, Note_on_c, 0, 49, 0
2, 589804, Note_on_c, 0, 64, 0
2, 589892, Control_c, 0, 64, 72
2, 589900, Note_on_c, 0, 66, 78
2, 589900, Note_on_c, 0, 62, 73
2, 589904, Control_c, 0, 64, 0
2, 589912, Note_on_c, 0, 50, 76
2, 589912, Note_on_c, 0, 38, 73
2, 589936, Control_c, 0, 64, 24
2, 589944, Control_c, 0, 64, 88
2, 589956, Note_on_c, 0, 62, 0
2, 589956, Control_c, 0, 64, 127
2, 589984, Note_on_c, 0, 66, 0
2, 589988, Note_on_c, 0, 50, 0
2, 589988, Note_on_c, 0, 38, 0
2, 590068, Note_on_c, 0, 66, 81
2, 590072, Note_on_c, 0, 69, 88
2, 590128, Note_on_c, 0, 69, 0
2, 590164, Note_on_c, 0, 66, 0
2, 590228, Control_c, 0, 64, 40
2, 590240, Note_on_c, 0, 74, 102
2, 590240, Note_on_c, 0, 68, 80
2, 590240, Control_c, 0, 64, 0
2, 590244, Note_on_c, 0, 65, 80
2, 590256, Note_on_c, 0, 47, 74
2, 590260, Note_on_c, 0, 35, 72
2, 590292, Note_on_c, 0, 65, 0
2, 590292, Control_c, 0, 64, 72
2, 590300, Control_c, 0, 64, 127
2, 590368, Note_on_c, 0, 68, 0
2, 590388, Note_on_c, 0, 35, 0
2, 590392, Note_on_c, 0, 47, 0
2, 590408, Note_on_c, 0, 65, 72
2, 590408, Note_on_c, 0, 62, 66
2, 590464, Note_on_c, 0, 62, 0
2, 590480, Note_on_c, 0, 65, 0
2, 590548, Note_on_c, 0, 74, 0
2, 590572, Note_on_c, 0, 64, 80
2, 590580, Note_on_c, 0, 60, 70
2, 590584, Control_c, 0, 64, 56
2, 590592, Note_on_c, 0, 48, 77
2, 590596, Note_on_c, 0, 36, 70
2, 590596, Control_c, 0, 64, 0
2, 590624, Control_c, 0, 64, 40
2, 590636, Control_c, 0, 64, 104
2, 590644, Note_on_c, 0, 60, 0
2, 590644, Control_c, 0, 64, 127
2, 590664, Note_on_c, 0, 64, 0
2, 590704, Note_on_c, 0, 36, 0
2, 590748, Note_on_c, 0, 72, 100
2, 590752, Note_on_c, 0, 48, 0
2, 590752, Note_on_c, 0, 60, 79
2, 590752, Note_on_c, 0, 64, 83
2, 590792, Note_on_c, 0, 60, 0
2, 590796, Note_on_c, 0, 64, 0
2, 590824, Note_on_c, 0, 72, 0
2, 590920, Note_on_c, 0, 71, 97
2, 590924, Note_on_c, 0, 62, 74
2, 590928, Note_on_c, 0, 65, 75
2, 590932, Control_c, 0, 64, 0
2, 590944, Note_on_c, 0, 50, 74
2, 590944, Note_on_c, 0, 38, 71
2, 590988, Note_on_c, 0, 65, 0
2, 591000, Note_on_c, 0, 62, 0
2, 591004, Control_c, 0, 64, 127
2, 591092, Note_on_c, 0, 65, 68
2, 591104, Note_on_c, 0, 62, 52
2, 591124, Note_on_c, 0, 38, 0
2, 591132, Note_on_c, 0, 62, 0
2, 591140, Note_on_c, 0, 50, 0
2, 591148, Note_on_c, 0, 71, 0
2, 591180, Note_on_c, 0, 65, 0
2, 591244, Control_c, 0, 64, 104
2, 591248, Note_on_c, 0, 66, 81
2, 591252, Control_c, 0, 64, 24
2, 591256, Note_on_c, 0, 60, 70
2, 591260, Note_on_c, 0, 51, 81
2, 591264, Control_c, 0, 64, 0
2, 591268, Note_on_c, 0, 39, 74
2, 591276, Control_c, 0, 64, 24
2, 591284, Control_c, 0, 64, 88
2, 591296, Control_c, 0, 64, 127
2, 591304, Note_on_c, 0, 60, 0
2, 591332, Note_on_c, 0, 66, 0
2, 591420, Note_on_c, 0, 69, 93
2, 591424, Note_on_c, 0, 66, 68
2, 591428, Note_on_c, 0, 60, 74
2, 591472, Note_on_c, 0, 39, 0
2, 591480, Note_on_c, 0, 66, 0
2, 591480, Note_on_c, 0, 60, 0
2, 591500, Note_on_c, 0, 51, 0
2, 591508, Note_on_c, 0, 69, 0
2, 591592, Note_on_c, 0, 69, 94
2, 591596, Control_c, 0, 64, 24
2, 591600, Note_on_c, 0, 64, 81
2, 591604, Note_on_c, 0, 60, 76
2, 591608, Control_c, 0, 64, 0
2, 591612, Note_on_c, 0, 52, 70
2, 591612, Note_on_c, 0, 40, 74
2, 591648, Control_c, 0, 64, 56
2, 591660, Note_on_c, 0, 64, 0
2, 591664, Control_c, 0, 64, 127
2, 591676, Note_on_c, 0, 60, 0
2, 591764, Note_on_c, 0, 64, 74
2, 591772, Note_on_c, 0, 60, 66
2, 591780, Note_on_c, 0, 40, 0
2, 591824, Note_on_c, 0, 52, 0
2, 591828, Note_on_c, 0, 64, 0
2, 591852, Note_on_c, 0, 60, 0
2, 591928, Note_on_c, 0, 63, 82
2, 591932, Control_c, 0, 64, 72
2, 591940, Note_on_c, 0, 60, 68
2, 591944, Note_on_c, 0, 53, 73
2, 591944, Control_c, 0, 64, 0
2, 591952, Note_on_c, 0, 41, 76
2, 591964, Control_c, 0, 64, 56
2, 591972, Note_on_c, 0, 69, 0
2, 591976, Control_c, 0, 64, 104
2, 591984, Control_c, 0, 64, 127
2, 591996, Note_on_c, 0, 60, 0
2, 592016, Note_on_c, 0, 63, 0
2, 592100, Note_on_c, 0, 69, 97
2, 592108, Note_on_c, 0, 63, 81
2, 592108, Note_on_c, 0, 60, 83
2, 592152, Note_on_c, 0, 60, 0
2, 592156, Note_on_c, 0, 53, 0
2, 592156, Note_on_c, 0, 41, 0
2, 592160, Note_on_c, 0, 63, 0
2, 592196, Note_on_c, 0, 69, 0
2, 592280, Note_on_c, 0, 69, 105
2, 592280, Control_c, 0, 64, 88
2, 592288, Note_on_c, 0, 60, 87
2, 592288, Note_on_c, 0, 64, 87
2, 592288, Control_c, 0, 64, 0
2, 592296, Note_on_c, 0, 52, 71
2, 592300, Note_on_c, 0, 40, 74
2, 592340, Control_c, 0, 64, 72
2, 592344, Note_on_c, 0, 64, 0
2, 592352, Control_c, 0, 64, 127
2, 592360, Note_on_c, 0, 60, 0
2, 592460, Note_on_c, 0, 64, 84
2, 592464, Note_on_c, 0, 60, 70
2, 592484, Note_on_c, 0, 40, 0
2, 592496, Note_on_c, 0, 52, 0
2, 592540, Note_on_c, 0, 60, 0
2, 592552, Note_on_c, 0, 64, 0
2, 592600, Control_c, 0, 64, 56
2, 592608, Note_on_c, 0, 66, 83
2, 592612, Note_on_c, 0, 51, 84
2, 592616, Note_on_c, 0, 60, 76
2, 592616, Note_on_c, 0, 39, 73
2, 592616, Control_c, 0, 64, 0
2, 592632, Note_on_c, 0, 69, 0
2, 592632, Control_c, 0, 64, 72
2, 592644, Control_c, 0, 64, 127
2, 592680, Note_on_c, 0, 60, 0
2, 592704, Note_on_c, 0, 66, 0
2, 592788, Note_on_c, 0, 69, 102
2, 592788, Note_on_c, 0, 66, 80
2, 592792, Note_on_c, 0, 60, 87
2, 592804, Note_on_c, 0, 39, 0
2, 592840, Note_on_c, 0, 51, 0
2, 592852, Note_on_c, 0, 60, 0
2, 592856, Note_on_c, 0, 66, 0
2, 592876, Note_on_c, 0, 69, 0
2, 592968, Note_on_c, 0, 69, 99
2, 592968, Control_c, 0, 64, 40
2, 592972, Note_on_c, 0, 64, 89
2, 592972, Note_on_c, 0, 60, 86
2, 592980, Note_on_c, 0, 52, 83
2, 592980, Note_on_c, 0, 40, 75
2, 592980, Control_c, 0, 64, 0
2, 593020, Control_c, 0, 64, 56
2, 593032, Control_c, 0, 64, 127
2, 593064, Note_on_c, 0, 64, 0
2, 593068, Note_on_c, 0, 60, 0
2, 593124, Note_on_c, 0, 69, 0
2, 593148, Note_on_c, 0, 40, 0
2, 593152, Note_on_c, 0, 64, 85
2, 593156, Note_on_c, 0, 60, 74
2, 593164, Note_on_c, 0, 69, 66
2, 593212, Note_on_c, 0, 52, 0
2, 593240, Note_on_c, 0, 64, 0
2, 593248, Note_on_c, 0, 69, 0
2, 593276, Note_on_c, 0, 60, 0
2, 593356, Note_on_c, 0, 63, 85
2, 593364, Note_on_c, 0, 60, 77
2, 593364, Note_on_c, 0, 53, 90
2, 593368, Note_on_c, 0, 41, 81
2, 593368, Control_c, 0, 64, 40
2, 593376, Control_c, 0, 64, 0
2, 593408, Control_c, 0, 64, 72
2, 593420, Control_c, 0, 64, 127
2, 593456, Note_on_c, 0, 41, 0
2, 593456, Note_on_c, 0, 60, 0
2, 593460, Note_on_c, 0, 53, 0
2, 593480, Note_on_c, 0, 63, 0
2, 593552, Note_on_c, 0, 69, 93
2, 593552, Note_on_c, 0, 63, 77
2, 593552, Note_on_c, 0, 60, 65
2, 593576, Note_on_c, 0, 60, 0
2, 593584, Note_on_c, 0, 63, 0
2, 593604, Note_on_c, 0, 69, 0
2, 593716, Note_on_c, 0, 75, 75
2, 593716, Note_on_c, 0, 52, 93
2, 593716, Note_on_c, 0, 40, 90
2, 593800, Note_on_c, 0, 75, 0
2, 593804, Note_on_c, 0, 76, 79
2, 593872, Note_on_c, 0, 77, 83
2, 593888, Note_on_c, 0, 76, 0
2, 593956, Note_on_c, 0, 77, 0
2, 593960, Note_on_c, 0, 76, 88
2, 593980, Note_on_c, 0, 72, 89
2, 593980, Note_on_c, 0, 64, 71
2, 593992, Note_on_c, 0, 69, 69
2, 594012, Control_c, 0, 64, 88
2, 594024, Control_c, 0, 64, 0
2, 594048, Note_on_c, 0, 77, 78
2, 594052, Note_on_c, 0, 76, 0
2, 594064, Control_c, 0, 64, 72
2, 594076, Control_c, 0, 64, 127
2, 594124, Note_on_c, 0, 77, 0
2, 594132, Note_on_c, 0, 76, 81
2, 594200, Note_on_c, 0, 76, 0
2, 594208, Note_on_c, 0, 77, 77
2, 594268, Note_on_c, 0, 77, 0
2, 594272, Note_on_c, 0, 76, 70
2, 594296, Note_on_c, 0, 52, 0
2, 594296, Note_on_c, 0, 40, 0
2, 594336, Note_on_c, 0, 76, 0
2, 594340, Note_on_c, 0, 77, 68
2, 594396, Note_on_c, 0, 77, 0
2, 594404, Note_on_c, 0, 76, 64
2, 594432, Note_on_c, 0, 64, 0
2, 594448, Note_on_c, 0, 69, 0
2, 594460, Note_on_c, 0, 76, 0
2, 594460, Note_on_c, 0, 77, 66
2, 594488, Note_on_c, 0, 72, 0
2, 594524, Note_on_c, 0, 77, 0
2, 594528, Note_on_c, 0, 76, 63
2, 594584, Note_on_c, 0, 76, 0
2, 594584, Note_on_c, 0, 77, 66
2, 594652, Note_on_c, 0, 77, 0
2, 594652, Note_on_c, 0, 76, 62
2, 594704, Note_on_c, 0, 77, 68
2, 594708, Note_on_c, 0, 76, 0
2, 594736, Note_on_c, 0, 71, 83
2, 594736, Note_on_c, 0, 68, 64
2, 594736, Note_on_c, 0, 62, 67
2, 594736, Note_on_c, 0, 64, 70
2, 594772, Note_on_c, 0, 77, 0
2, 594772, Note_on_c, 0, 76, 64
2, 594796, Control_c, 0, 64, 56
2, 594808, Control_c, 0, 64, 0
2, 594828, Note_on_c, 0, 77, 66
2, 594832, Note_on_c, 0, 76, 0
2, 594892, Control_c, 0, 64, 127
2, 594900, Note_on_c, 0, 77, 0
2, 594908, Note_on_c, 0, 76, 61
2, 594964, Note_on_c, 0, 76, 0
2, 594964, Note_on_c, 0, 77, 66
2, 595028, Note_on_c, 0, 77, 0
2, 595040, Note_on_c, 0, 76, 60
2, 595092, Note_on_c, 0, 76, 0
2, 595096, Note_on_c, 0, 77, 64
2, 595156, Note_on_c, 0, 77, 0
2, 595164, Note_on_c, 0, 76, 60
2, 595176, Note_on_c, 0, 64, 0
2, 595216, Note_on_c, 0, 62, 0
2, 595220, Note_on_c, 0, 76, 0
2, 595220, Note_on_c, 0, 77, 63
2, 595264, Note_on_c, 0, 71, 0
2, 595280, Note_on_c, 0, 77, 0
2, 595284, Note_on_c, 0, 76, 64
2, 595340, Note_on_c, 0, 77, 64
2, 595344, Note_on_c, 0, 76, 0
2, 595400, Note_on_c, 0, 68, 0
2, 595412, Note_on_c, 0, 77, 0
2, 595416, Note_on_c, 0, 76, 53
2, 595448, Note_on_c, 0, 69, 89
2, 595448, Note_on_c, 0, 64, 70
2, 595448, Note_on_c, 0, 60, 72
2, 595472, Note_on_c, 0, 76, 0
2, 595472, Note_on_c, 0, 77, 66
2, 595540, Note_on_c, 0, 77, 0
2, 595552, Note_on_c, 0, 76, 61
2, 595556, Note_on_c, 0, 64, 0
2, 595572, Note_on_c, 0, 60, 0
2, 595596, Note_on_c, 0, 69, 0
2, 595608, Note_on_c, 0, 76, 0
2, 595608, Note_on_c, 0, 77, 68
2, 595672, Note_on_c, 0, 77, 0
2, 595684, Note_on_c, 0, 76, 63
2, 595712, Note_on_c, 0, 69, 90
2, 595712, Note_on_c, 0, 64, 78
2, 595712, Note_on_c, 0, 60, 72
2, 595744, Note_on_c, 0, 76, 0
2, 595748, Note_on_c, 0, 77, 66
2, 595800, Control_c, 0, 64, 104
2, 595812, Note_on_c, 0, 77, 0
2, 595812, Control_c, 0, 64, 40
2, 595820, Note_on_c, 0, 76, 59
2, 595824, Control_c, 0, 64, 0
2, 595876, Note_on_c, 0, 76, 0
2, 595884, Note_on_c, 0, 77, 61
2, 595912, Control_c, 0, 64, 56
2, 595924, Control_c, 0, 64, 127
2, 595940, Note_on_c, 0, 77, 0
2, 595952, Note_on_c, 0, 76, 63
2, 596008, Note_on_c, 0, 76, 0
2, 596016, Note_on_c, 0, 77, 63
2, 596080, Note_on_c, 0, 77, 0
2, 596088, Note_on_c, 0, 76, 60
2, 596144, Note_on_c, 0, 76, 0
2, 596148, Note_on_c, 0, 77, 64
2, 596204, Note_on_c, 0, 77, 0
2, 596216, Note_on_c, 0, 76, 60
2, 596264, Note_on_c, 0, 76, 0
2, 596272, Note_on_c, 0, 77, 62
2, 596332, Note_on_c, 0, 77, 0
2, 596336, Note_on_c, 0, 76, 60
2, 596392, Note_on_c, 0, 76, 0
2, 596400, Note_on_c, 0, 77, 61
2, 596464, Note_on_c, 0, 77, 0
2, 596468, Note_on_c, 0, 76, 53
2, 596528, Note_on_c, 0, 76, 0
2, 596532, Note_on_c, 0, 77, 58
2, 596588, Note_on_c, 0, 77, 0
2, 596600, Note_on_c, 0, 76, 62
2, 596620, Note_on_c, 0, 64, 0
2, 596624, Note_on_c, 0, 60, 0
2, 596640, Note_on_c, 0, 69, 0
2, 596656, Note_on_c, 0, 76, 0
2, 596656, Note_on_c, 0, 77, 61
2, 596712, Note_on_c, 0, 77, 0
2, 596712, Note_on_c, 0, 76, 66
2, 596772, Note_on_c, 0, 76, 0
2, 596780, Note_on_c, 0, 77, 62
2, 596820, Note_on_c, 0, 69, 80
2, 596824, Note_on_c, 0, 60, 72
2, 596824, Note_on_c, 0, 64, 74
2, 596840, Note_on_c, 0, 77, 0
2, 596840, Note_on_c, 0, 76, 70
2, 596868, Note_on_c, 0, 60, 0
2, 596876, Note_on_c, 0, 64, 0
2, 596896, Note_on_c, 0, 76, 0
2, 596900, Note_on_c, 0, 69, 0
2, 596904, Note_on_c, 0, 77, 64
2, 596968, Note_on_c, 0, 77, 0
2, 596976, Note_on_c, 0, 76, 59
2, 597032, Note_on_c, 0, 68, 73
2, 597036, Note_on_c, 0, 76, 0
2, 597036, Note_on_c, 0, 77, 68
2, 597036, Note_on_c, 0, 64, 81
2, 597044, Note_on_c, 0, 71, 80
2, 597092, Note_on_c, 0, 77, 0
2, 597096, Note_on_c, 0, 76, 68
2, 597108, Note_on_c, 0, 64, 0
2, 597120, Note_on_c, 0, 68, 0
2, 597124, Note_on_c, 0, 71, 0
2, 597152, Note_on_c, 0, 76, 0
2, 597156, Note_on_c, 0, 77, 68
2, 597212, Note_on_c, 0, 77, 0
2, 597216, Note_on_c, 0, 76, 66
2, 597240, Note_on_c, 0, 64, 79
2, 597240, Note_on_c, 0, 72, 90
2, 597248, Note_on_c, 0, 69, 79
2, 597264, Note_on_c, 0, 77, 73
2, 597288, Note_on_c, 0, 76, 0
2, 597292, Note_on_c, 0, 64, 0
2, 597312, Note_on_c, 0, 77, 0
2, 597312, Note_on_c, 0, 72, 0
2, 597320, Note_on_c, 0, 69, 0
2, 597332, Note_on_c, 0, 80, 75
2, 597384, Note_on_c, 0, 80, 0
2, 597392, Note_on_c, 0, 81, 78
2, 597444, Note_on_c, 0, 81, 0
2, 597456, Note_on_c, 0, 83, 78
2, 597480, Note_on_c, 0, 65, 60
2, 597496, Note_on_c, 0, 76, 88
2, 597496, Note_on_c, 0, 62, 69
2, 597496, Note_on_c, 0, 69, 75
2, 597508, Note_on_c, 0, 83, 0
2, 597516, Note_on_c, 0, 81, 82
2, 597560, Control_c, 0, 64, 56
2, 597568, Note_on_c, 0, 81, 0
2, 597572, Control_c, 0, 64, 0
2, 597596, Note_on_c, 0, 83, 71
2, 597648, Note_on_c, 0, 83, 0
2, 597676, Note_on_c, 0, 81, 72
2, 597696, Control_c, 0, 64, 72
2, 597708, Control_c, 0, 64, 127
2, 597744, Note_on_c, 0, 81, 0
2, 597752, Note_on_c, 0, 83, 73
2, 597808, Note_on_c, 0, 83, 0
2, 597808, Note_on_c, 0, 81, 70
2, 597876, Note_on_c, 0, 81, 0
2, 597880, Note_on_c, 0, 83, 70
2, 597936, Note_on_c, 0, 83, 0
2, 597940, Note_on_c, 0, 81, 62
2, 598000, Note_on_c, 0, 81, 0
2, 598000, Note_on_c, 0, 83, 63
2, 598060, Note_on_c, 0, 83, 0
2, 598060, Note_on_c, 0, 81, 62
2, 598120, Note_on_c, 0, 81, 0
2, 598124, Note_on_c, 0, 83, 68
2, 598168, Note_on_c, 0, 65, 0
2, 598180, Note_on_c, 0, 83, 0
2, 598184, Note_on_c, 0, 81, 60
2, 598192, Note_on_c, 0, 62, 0
2, 598192, Note_on_c, 0, 76, 0
2, 598228, Note_on_c, 0, 69, 0
2, 598244, Note_on_c, 0, 81, 0
2, 598244, Note_on_c, 0, 83, 62
2, 598300, Note_on_c, 0, 83, 0
2, 598308, Note_on_c, 0, 81, 58
2, 598324, Note_on_c, 0, 74, 81
2, 598324, Note_on_c, 0, 69, 72
2, 598328, Note_on_c, 0, 65, 71
2, 598332, Note_on_c, 0, 62, 69
2, 598364, Note_on_c, 0, 81, 0
2, 598372, Note_on_c, 0, 83, 62
2, 598424, Note_on_c, 0, 83, 0
2, 598432, Note_on_c, 0, 81, 61
2, 598440, Control_c, 0, 64, 72
2, 598452, Control_c, 0, 64, 0
2, 598484, Note_on_c, 0, 81, 0
2, 598484, Note_on_c, 0, 83, 61
2, 598524, Control_c, 0, 64, 88
2, 598540, Control_c, 0, 64, 127
2, 598544, Note_on_c, 0, 83, 0
2, 598548, Note_on_c, 0, 81, 64
2, 598600, Note_on_c, 0, 81, 0
2, 598600, Note_on_c, 0, 83, 51
2, 598656, Note_on_c, 0, 83, 0
2, 598660, Note_on_c, 0, 81, 61
2, 598716, Note_on_c, 0, 81, 0
2, 598716, Note_on_c, 0, 74, 0
2, 598716, Note_on_c, 0, 83, 61
2, 598720, Note_on_c, 0, 65, 0
2, 598720, Note_on_c, 0, 62, 0
2, 598724, Note_on_c, 0, 69, 0
2, 598776, Note_on_c, 0, 83, 0
2, 598776, Note_on_c, 0, 81, 56
2, 598832, Note_on_c, 0, 81, 0
2, 598832, Note_on_c, 0, 83, 62
2, 598888, Note_on_c, 0, 83, 0
2, 598892, Note_on_c, 0, 81, 58
2, 598940, Note_on_c, 0, 72, 84
2, 598940, Note_on_c, 0, 66, 59
2, 598944, Note_on_c, 0, 63, 61
2, 598944, Note_on_c, 0, 69, 66
2, 598952, Note_on_c, 0, 81, 0
2, 598952, Note_on_c, 0, 83, 70
2, 599004, Note_on_c, 0, 83, 0
2, 599088, Note_on_c, 0, 78, 80
2, 599136, Note_on_c, 0, 66, 0
2, 599148, Note_on_c, 0, 78, 0
2, 599156, Note_on_c, 0, 63, 0
2, 599160, Note_on_c, 0, 72, 0
2, 599168, Note_on_c, 0, 79, 82
2, 599224, Note_on_c, 0, 79, 0
2, 599228, Note_on_c, 0, 81, 77
2, 599252, Note_on_c, 0, 69, 0
2, 599288, Note_on_c, 0, 81, 0
2, 599288, Note_on_c, 0, 79, 71
2, 599320, Note_on_c, 0, 72, 78
2, 599320, Note_on_c, 0, 64, 64
2, 599328, Note_on_c, 0, 67, 64
2, 599348, Control_c, 0, 64, 88
2, 599356, Control_c, 0, 64, 0
2, 599360, Note_on_c, 0, 79, 0
2, 599368, Note_on_c, 0, 81, 78
2, 599424, Note_on_c, 0, 81, 0
2, 599428, Note_on_c, 0, 79, 71
2, 599456, Control_c, 0, 64, 72
2, 599468, Control_c, 0, 64, 127
2, 599496, Note_on_c, 0, 79, 0
2, 599500, Note_on_c, 0, 81, 66
2, 599552, Note_on_c, 0, 81, 0
2, 599560, Note_on_c, 0, 79, 68
2, 599616, Note_on_c, 0, 79, 0
2, 599620, Note_on_c, 0, 81, 58
2, 599680, Note_on_c, 0, 81, 0
2, 599684, Note_on_c, 0, 79, 70
2, 599736, Note_on_c, 0, 79, 0
2, 599744, Note_on_c, 0, 81, 58
2, 599800, Note_on_c, 0, 81, 0
2, 599804, Note_on_c, 0, 79, 71
2, 599856, Note_on_c, 0, 79, 0
2, 599864, Note_on_c, 0, 81, 61
2, 599928, Note_on_c, 0, 81, 0
2, 599928, Note_on_c, 0, 79, 69
2, 599984, Note_on_c, 0, 79, 0
2, 599984, Note_on_c, 0, 64, 0
2, 599992, Note_on_c, 0, 81, 51
2, 600028, Note_on_c, 0, 67, 0
2, 600028, Note_on_c, 0, 65, 64
2, 600052, Note_on_c, 0, 81, 0
2, 600056, Note_on_c, 0, 79, 64
2, 600112, Note_on_c, 0, 79, 0
2, 600112, Note_on_c, 0, 81, 53
2, 600176, Note_on_c, 0, 81, 0
2, 600176, Note_on_c, 0, 72, 0
2, 600184, Note_on_c, 0, 79, 64
2, 600228, Note_on_c, 0, 81, 56
2, 600232, Note_on_c, 0, 79, 0
2, 600300, Note_on_c, 0, 81, 0
2, 600304, Note_on_c, 0, 71, 73
2, 600304, Note_on_c, 0, 67, 67
2, 600308, Note_on_c, 0, 79, 61
2, 600344, Note_on_c, 0, 65, 0
2, 600360, Note_on_c, 0, 79, 0
2, 600360, Note_on_c, 0, 81, 51
2, 600424, Note_on_c, 0, 81, 0
2, 600424, Control_c, 0, 64, 88
2, 600432, Note_on_c, 0, 79, 59
2, 600436, Control_c, 0, 64, 24
2, 600452, Control_c, 0, 64, 0
2, 600480, Note_on_c, 0, 81, 52
2, 600484, Note_on_c, 0, 79, 0
2, 600524, Control_c, 0, 64, 40
2, 600536, Control_c, 0, 64, 104
2, 600544, Note_on_c, 0, 81, 0
2, 600548, Control_c, 0, 64, 127
2, 600552, Note_on_c, 0, 79, 61
2, 600604, Note_on_c, 0, 79, 0
2, 600604, Note_on_c, 0, 81, 51
2, 600660, Note_on_c, 0, 81, 0
2, 600668, Note_on_c, 0, 79, 63
2, 600720, Note_on_c, 0, 79, 0
2, 600724, Note_on_c, 0, 81, 52
2, 600784, Note_on_c, 0, 81, 0
2, 600788, Note_on_c, 0, 79, 61
2, 600836, Note_on_c, 0, 79, 0
2, 600840, Note_on_c, 0, 81, 56
2, 600896, Note_on_c, 0, 81, 0
2, 600904, Note_on_c, 0, 79, 64
2, 600960, Note_on_c, 0, 79, 0
2, 600964, Note_on_c, 0, 81, 51
2, 600980, Note_on_c, 0, 71, 0
2, 600984, Note_on_c, 0, 67, 0
2, 601024, Note_on_c, 0, 81, 0
2, 601036, Note_on_c, 0, 79, 58
2, 601068, Note_on_c, 0, 70, 80
2, 601076, Note_on_c, 0, 65, 72
2, 601076, Note_on_c, 0, 67, 53
2, 601088, Note_on_c, 0, 79, 0
2, 601088, Note_on_c, 0, 81, 50
2, 601152, Note_on_c, 0, 81, 0
2, 601160, Note_on_c, 0, 79, 58
2, 601184, Note_on_c, 0, 67, 0
2, 601216, Note_on_c, 0, 79, 0
2, 601216, Note_on_c, 0, 65, 0
2, 601216, Note_on_c, 0, 81, 53
2, 601248, Note_on_c, 0, 70, 0
2, 601276, Note_on_c, 0, 81, 0
2, 601292, Note_on_c, 0, 79, 60
2, 601340, Note_on_c, 0, 81, 48
2, 601348, Note_on_c, 0, 79, 0
2, 601416, Note_on_c, 0, 81, 0
2, 601428, Note_on_c, 0, 74, 93
2, 601428, Note_on_c, 0, 70, 68
2, 601432, Note_on_c, 0, 79, 60
2, 601436, Note_on_c, 0, 67, 73
2, 601436, Note_on_c, 0, 65, 69
2, 601488, Note_on_c, 0, 79, 0
2, 601492, Note_on_c, 0, 81, 48
2, 601516, Control_c, 0, 64, 104
2, 601528, Control_c, 0, 64, 56
2, 601540, Control_c, 0, 64, 0
2, 601556, Note_on_c, 0, 81, 0
2, 601568, Note_on_c, 0, 79, 56
2, 601612, Note_on_c, 0, 81, 49
2, 601616, Note_on_c, 0, 79, 0
2, 601640, Control_c, 0, 64, 72
2, 601652, Control_c, 0, 64, 127
2, 601680, Note_on_c, 0, 81, 0
2, 601692, Note_on_c, 0, 79, 56
2, 601732, Note_on_c, 0, 81, 49
2, 601740, Note_on_c, 0, 79, 0
2, 601796, Note_on_c, 0, 81, 0
2, 601804, Note_on_c, 0, 79, 51
2, 601852, Note_on_c, 0, 81, 50
2, 601856, Note_on_c, 0, 79, 0
2, 601916, Note_on_c, 0, 81, 0
2, 601924, Note_on_c, 0, 79, 60
2, 601980, Note_on_c, 0, 79, 0
2, 601980, Note_on_c, 0, 81, 48
2, 602000, Note_on_c, 0, 67, 0
2, 602016, Note_on_c, 0, 74, 0
2, 602036, Note_on_c, 0, 65, 0
2, 602040, Note_on_c, 0, 81, 0
2, 602044, Note_on_c, 0, 79, 51
2, 602092, Note_on_c, 0, 70, 0
2, 602096, Note_on_c, 0, 81, 57
2, 602100, Note_on_c, 0, 79, 0
2, 602164, Note_on_c, 0, 81, 0
2, 602172, Note_on_c, 0, 79, 59
2, 602224, Note_on_c, 0, 81, 56
2, 602228, Note_on_c, 0, 79, 0
2, 602280, Note_on_c, 0, 73, 84
2, 602288, Note_on_c, 0, 64, 68
2, 602288, Note_on_c, 0, 70, 70
2, 602292, Note_on_c, 0, 81, 0
2, 602296, Note_on_c, 0, 67, 64
2, 602304, Note_on_c, 0, 79, 60
2, 602344, Control_c, 0, 64, 72
2, 602352, Note_on_c, 0, 81, 57
2, 602360, Note_on_c, 0, 79, 0
2, 602360, Control_c, 0, 64, 0
2, 602416, Note_on_c, 0, 81, 0
2, 602428, Note_on_c, 0, 79, 57
2, 602436, Control_c, 0, 64, 56
2, 602448, Control_c, 0, 64, 127
2, 602472, Note_on_c, 0, 81, 51
2, 602480, Note_on_c, 0, 79, 0
2, 602536, Note_on_c, 0, 81, 0
2, 602552, Note_on_c, 0, 79, 59
2, 602596, Note_on_c, 0, 81, 58
2, 602608, Note_on_c, 0, 79, 0
2, 602608, Note_on_c, 0, 64, 0
2, 602652, Note_on_c, 0, 73, 0
2, 602656, Note_on_c, 0, 67, 0
2, 602664, Note_on_c, 0, 81, 0
2, 602676, Note_on_c, 0, 79, 66
2, 602728, Note_on_c, 0, 79, 0
2, 602728, Note_on_c, 0, 81, 53
2, 602792, Note_on_c, 0, 70, 0
2, 602792, Note_on_c, 0, 79, 57
2, 602796, Note_on_c, 0, 81, 0
2, 602856, Note_on_c, 0, 81, 50
2, 602864, Note_on_c, 0, 79, 0
2, 602888, Note_on_c, 0, 74, 88
2, 602888, Note_on_c, 0, 70, 60
2, 602896, Note_on_c, 0, 62, 68
2, 602896, Note_on_c, 0, 67, 57
2, 602916, Note_on_c, 0, 81, 0
2, 602928, Note_on_c, 0, 79, 63
2, 602960, Note_on_c, 0, 62, 0
2, 602988, Note_on_c, 0, 81, 57
2, 602992, Note_on_c, 0, 79, 0
2, 602996, Note_on_c, 0, 67, 0
2, 602996, Note_on_c, 0, 74, 0
2, 603004, Note_on_c, 0, 70, 0
2, 603064, Note_on_c, 0, 81, 0
2, 603068, Note_on_c, 0, 61, 68
2, 603068, Control_c, 0, 64, 88
2, 603080, Control_c, 0, 64, 0
2, 603088, Note_on_c, 0, 67, 62
2, 603096, Note_on_c, 0, 70, 67
2, 603128, Note_on_c, 0, 61, 0
2, 603140, Control_c, 0, 64, 72
2, 603152, Control_c, 0, 64, 127
2, 603160, Note_on_c, 0, 76, 89
2, 603188, Note_on_c, 0, 79, 78
2, 603220, Note_on_c, 0, 70, 0
2, 603224, Note_on_c, 0, 67, 0
2, 603256, Note_on_c, 0, 79, 0
2, 603264, Note_on_c, 0, 81, 78
2, 603336, Note_on_c, 0, 79, 77
2, 603360, Note_on_c, 0, 81, 0
2, 603376, Note_on_c, 0, 76, 0
2, 603412, Note_on_c, 0, 79, 0
2, 603424, Note_on_c, 0, 76, 79
2, 603480, Note_on_c, 0, 76, 0
2, 603500, Note_on_c, 0, 73, 77
2, 603564, Note_on_c, 0, 70, 74
2, 603580, Note_on_c, 0, 73, 0
2, 603640, Note_on_c, 0, 67, 73
2, 603648, Note_on_c, 0, 70, 0
2, 603712, Note_on_c, 0, 64, 70
2, 603756, Note_on_c, 0, 67, 0
2, 603776, Note_on_c, 0, 64, 0
2, 603808, Note_on_c, 0, 67, 74
2, 603876, Note_on_c, 0, 67, 0
2, 603892, Note_on_c, 0, 69, 75
2, 603960, Note_on_c, 0, 67, 73
2, 603980, Note_on_c, 0, 69, 0
2, 604032, Note_on_c, 0, 67, 0
2, 604036, Note_on_c, 0, 64, 70
2, 604092, Note_on_c, 0, 64, 0
2, 604120, Note_on_c, 0, 61, 69
2, 604200, Note_on_c, 0, 58, 68
2, 604212, Note_on_c, 0, 61, 0
2, 604252, Note_on_c, 0, 55, 67
2, 604268, Note_on_c, 0, 58, 0
2, 604340, Note_on_c, 0, 52, 66
2, 604364, Note_on_c, 0, 55, 0
2, 604380, Note_on_c, 0, 52, 0
2, 604440, Note_on_c, 0, 66, 72
2, 604496, Note_on_c, 0, 66, 0
2, 604504, Note_on_c, 0, 67, 73
2, 604564, Note_on_c, 0, 67, 0
2, 604572, Note_on_c, 0, 69, 74
2, 604628, Note_on_c, 0, 69, 0
2, 604644, Note_on_c, 0, 67, 74
2, 604648, Note_on_c, 0, 62, 83
2, 604656, Note_on_c, 0, 58, 50
2, 604656, Note_on_c, 0, 53, 63
2, 604656, Control_c, 0, 64, 104
2, 604664, Note_on_c, 0, 55, 64
2, 604668, Control_c, 0, 64, 40
2, 604680, Control_c, 0, 64, 0
2, 604712, Note_on_c, 0, 67, 0
2, 604716, Note_on_c, 0, 69, 70
2, 604780, Note_on_c, 0, 69, 0
2, 604784, Note_on_c, 0, 67, 67
2, 604852, Note_on_c, 0, 67, 0
2, 604852, Note_on_c, 0, 69, 63
2, 604876, Control_c, 0, 64, 88
2, 604888, Control_c, 0, 64, 127
2, 604916, Note_on_c, 0, 69, 0
2, 604920, Note_on_c, 0, 67, 63
2, 604984, Note_on_c, 0, 67, 0
2, 604992, Note_on_c, 0, 69, 56
2, 605048, Note_on_c, 0, 69, 0
2, 605052, Note_on_c, 0, 67, 57
2, 605116, Note_on_c, 0, 67, 0
2, 605120, Note_on_c, 0, 69, 53
2, 605124, Note_on_c, 0, 55, 0
2, 605180, Note_on_c, 0, 69, 0
2, 605184, Note_on_c, 0, 67, 53
2, 605240, Note_on_c, 0, 67, 0
2, 605244, Note_on_c, 0, 69, 49
2, 605256, Note_on_c, 0, 53, 0
2, 605272, Note_on_c, 0, 62, 0
2, 605304, Note_on_c, 0, 69, 0
2, 605304, Note_on_c, 0, 67, 51
2, 605312, Note_on_c, 0, 58, 0
2, 605364, Note_on_c, 0, 67, 0
2, 605364, Note_on_c, 0, 69, 53
2, 605424, Note_on_c, 0, 69, 0
2, 605432, Note_on_c, 0, 61, 90
2, 605440, Note_on_c, 0, 52, 71
2, 605444, Note_on_c, 0, 67, 48
2, 605448, Note_on_c, 0, 58, 62
2, 605452, Note_on_c, 0, 55, 71
2, 605496, Note_on_c, 0, 67, 0
2, 605496, Note_on_c, 0, 69, 46
2, 605524, Control_c, 0, 64, 40
2, 605536, Control_c, 0, 64, 0
2, 605556, Note_on_c, 0, 69, 0
2, 605564, Note_on_c, 0, 67, 50
2, 605604, Control_c, 0, 64, 88
2, 605620, Note_on_c, 0, 67, 0
2, 605620, Control_c, 0, 64, 127
2, 605624, Note_on_c, 0, 69, 49
2, 605684, Note_on_c, 0, 69, 0
2, 605688, Note_on_c, 0, 67, 50
2, 605708, Note_on_c, 0, 52, 0
2, 605744, Note_on_c, 0, 55, 0
2, 605748, Note_on_c, 0, 67, 0
2, 605748, Note_on_c, 0, 69, 48
2, 605768, Note_on_c, 0, 61, 0
2, 605808, Note_on_c, 0, 69, 0
2, 605816, Note_on_c, 0, 67, 51
2, 605864, Note_on_c, 0, 69, 52
2, 605872, Note_on_c, 0, 67, 0
2, 605904, Note_on_c, 0, 58, 0
2, 605928, Note_on_c, 0, 69, 0
2, 605936, Note_on_c, 0, 67, 36
2, 605992, Note_on_c, 0, 69, 57
2, 605996, Note_on_c, 0, 67, 0
2, 606000, Note_on_c, 0, 62, 80
2, 606000, Note_on_c, 0, 58, 63
2, 606004, Note_on_c, 0, 50, 73
2, 606004, Note_on_c, 0, 55, 74
2, 606044, Note_on_c, 0, 67, 58
2, 606048, Note_on_c, 0, 69, 0
2, 606056, Note_on_c, 0, 50, 0
2, 606084, Note_on_c, 0, 58, 0
2, 606088, Note_on_c, 0, 62, 0
2, 606088, Note_on_c, 0, 55, 0
2, 606104, Note_on_c, 0, 67, 0
2, 606108, Note_on_c, 0, 69, 58
2, 606140, Control_c, 0, 64, 72
2, 606148, Note_on_c, 0, 49, 72
2, 606156, Control_c, 0, 64, 0
2, 606160, Note_on_c, 0, 55, 57
2, 606172, Note_on_c, 0, 58, 35
2, 606188, Note_on_c, 0, 69, 0
2, 606216, Note_on_c, 0, 49, 0
2, 606216, Control_c, 0, 64, 40
2, 606228, Control_c, 0, 64, 127
2, 606256, Note_on_c, 0, 64, 90
2, 606288, Note_on_c, 0, 67, 71
2, 606356, Note_on_c, 0, 67, 0
2, 606360, Note_on_c, 0, 69, 73
2, 606396, Note_on_c, 0, 64, 0
2, 606404, Note_on_c, 0, 55, 0
2, 606420, Note_on_c, 0, 58, 0
2, 606428, Note_on_c, 0, 67, 71
2, 606444, Note_on_c, 0, 69, 0
2, 606504, Note_on_c, 0, 67, 0
2, 606508, Note_on_c, 0, 64, 71
2, 606560, Note_on_c, 0, 64, 0
2, 606588, Note_on_c, 0, 61, 69
2, 606668, Note_on_c, 0, 58, 68
2, 606680, Note_on_c, 0, 61, 0
2, 606748, Note_on_c, 0, 58, 0
2, 606748, Note_on_c, 0, 55, 68
2, 606828, Note_on_c, 0, 52, 67
2, 606860, Note_on_c, 0, 55, 0
2, 606908, Note_on_c, 0, 52, 0
2, 606908, Note_on_c, 0, 55, 68
2, 606980, Note_on_c, 0, 55, 0
2, 606988, Note_on_c, 0, 57, 69
2, 607060, Note_on_c, 0, 57, 0
2, 607068, Note_on_c, 0, 55, 66
2, 607136, Note_on_c, 0, 55, 0
2, 607148, Note_on_c, 0, 52, 64
2, 607188, Note_on_c, 0, 52, 0
2, 607228, Note_on_c, 0, 49, 63
2, 607308, Note_on_c, 0, 46, 62
2, 607328, Note_on_c, 0, 49, 0
2, 607384, Note_on_c, 0, 46, 0
2, 607388, Note_on_c, 0, 43, 62
2, 607468, Note_on_c, 0, 40, 61
2, 607500, Note_on_c, 0, 43, 0
2, 607536, Note_on_c, 0, 40, 0
2, 607616, Note_on_c, 0, 64, 78
2, 607616, Note_on_c, 0, 60, 61
2, 607616, Note_on_c, 0, 55, 63
2, 607616, Note_on_c, 0, 45, 72
2, 607640, Control_c, 0, 64, 104
2, 607652, Control_c, 0, 64, 0
2, 607700, Note_on_c, 0, 45, 0
2, 607708, Note_on_c, 0, 47, 56
2, 607740, Control_c, 0, 64, 40
2, 607756, Control_c, 0, 64, 127
2, 607764, Note_on_c, 0, 47, 0
2, 607800, Note_on_c, 0, 45, 69
2, 607864, Note_on_c, 0, 45, 0
2, 607892, Note_on_c, 0, 47, 60
2, 607928, Note_on_c, 0, 47, 0
2, 607984, Note_on_c, 0, 45, 60
2, 608040, Note_on_c, 0, 45, 0
2, 608076, Note_on_c, 0, 47, 60
2, 608136, Note_on_c, 0, 47, 0
2, 608136, Note_on_c, 0, 60, 0
2, 608152, Note_on_c, 0, 55, 0
2, 608168, Note_on_c, 0, 45, 62
2, 608172, Note_on_c, 0, 64, 0
2, 608224, Note_on_c, 0, 45, 0
2, 608260, Note_on_c, 0, 47, 60
2, 608308, Note_on_c, 0, 45, 61
2, 608328, Note_on_c, 0, 47, 0
2, 608348, Note_on_c, 0, 63, 77
2, 608348, Note_on_c, 0, 60, 69
2, 608348, Note_on_c, 0, 45, 59
2, 608348, Note_on_c, 0, 54, 60
2, 608380, Note_on_c, 0, 45, 0
2, 608420, Note_on_c, 0, 60, 0
2, 608428, Note_on_c, 0, 45, 0
2, 608432, Note_on_c, 0, 47, 61
2, 608480, Note_on_c, 0, 47, 0
2, 608516, Note_on_c, 0, 45, 61
2, 608564, Note_on_c, 0, 45, 0
2, 608600, Note_on_c, 0, 47, 67
2, 608656, Note_on_c, 0, 47, 0
2, 608680, Note_on_c, 0, 54, 0
2, 608684, Note_on_c, 0, 45, 60
2, 608736, Note_on_c, 0, 45, 0
2, 608768, Note_on_c, 0, 47, 60
2, 608800, Note_on_c, 0, 63, 0
2, 608840, Note_on_c, 0, 47, 0
2, 608860, Note_on_c, 0, 64, 83
2, 608860, Note_on_c, 0, 45, 59
2, 608860, Note_on_c, 0, 55, 77
2, 608860, Note_on_c, 0, 60, 57
2, 608900, Note_on_c, 0, 45, 0
2, 608904, Note_on_c, 0, 60, 0
2, 608912, Note_on_c, 0, 55, 0
2, 608928, Note_on_c, 0, 64, 0
2, 608944, Note_on_c, 0, 47, 58
2, 608984, Note_on_c, 0, 47, 0
2, 609060, Note_on_c, 0, 57, 60
2, 609060, Note_on_c, 0, 63, 60
2, 609060, Note_on_c, 0, 66, 88
2, 609084, Note_on_c, 0, 60, 63
2, 609116, Control_c, 0, 64, 104
2, 609128, Control_c, 0, 64, 56
2, 609168, Note_on_c, 0, 47, 69
2, 609240, Note_on_c, 0, 47, 0
2, 609248, Note_on_c, 0, 45, 80
2, 609308, Note_on_c, 0, 45, 0
2, 609320, Note_on_c, 0, 44, 69
2, 609352, Note_on_c, 0, 60, 0
2, 609352, Note_on_c, 0, 57, 0
2, 609388, Note_on_c, 0, 45, 74
2, 609396, Note_on_c, 0, 63, 0
2, 609412, Note_on_c, 0, 66, 0
2, 609460, Note_on_c, 0, 44, 0
2, 609468, Note_on_c, 0, 45, 0
2, 609472, Note_on_c, 0, 48, 79
2, 609532, Note_on_c, 0, 48, 0
2, 609548, Note_on_c, 0, 55, 86
2, 609576, Control_c, 0, 64, 24
2, 609588, Control_c, 0, 64, 56
2, 609600, Control_c, 0, 64, 88
2, 609608, Control_c, 0, 64, 127
2, 609616, Note_on_c, 0, 55, 0
2, 609640, Note_on_c, 0, 54, 68
2, 609668, Control_c, 0, 64, 104
2, 609676, Control_c, 0, 64, 88
2, 609688, Control_c, 0, 64, 72
2, 609696, Note_on_c, 0, 54, 0
2, 609700, Control_c, 0, 64, 40
2, 609708, Control_c, 0, 64, 24
2, 609712, Note_on_c, 0, 55, 81
2, 609720, Control_c, 0, 64, 0
2, 609780, Note_on_c, 0, 55, 0
2, 609788, Note_on_c, 0, 54, 77
2, 609860, Note_on_c, 0, 54, 0
2, 609860, Control_c, 0, 64, 24
2, 609864, Note_on_c, 0, 53, 80
2, 609872, Control_c, 0, 64, 56
2, 609880, Control_c, 0, 64, 88
2, 609892, Control_c, 0, 64, 104
2, 609900, Control_c, 0, 64, 127
2, 609940, Note_on_c, 0, 53, 0
2, 609940, Note_on_c, 0, 54, 77
2, 609996, Note_on_c, 0, 54, 0
2, 610020, Note_on_c, 0, 57, 66
2, 610096, Note_on_c, 0, 57, 0
2, 610096, Note_on_c, 0, 60, 85
2, 610128, Note_on_c, 0, 60, 0
2, 610248, Note_on_c, 0, 67, 70
2, 610248, Note_on_c, 0, 76, 94
2, 610252, Note_on_c, 0, 72, 77
2, 610264, Note_on_c, 0, 57, 62
2, 610264, Control_c, 0, 64, 88
2, 610272, Control_c, 0, 64, 40
2, 610284, Control_c, 0, 64, 0
2, 610328, Note_on_c, 0, 57, 0
2, 610344, Note_on_c, 0, 59, 50
2, 610372, Control_c, 0, 64, 24
2, 610384, Control_c, 0, 64, 72
2, 610396, Control_c, 0, 64, 104
2, 610404, Note_on_c, 0, 59, 0
2, 610404, Control_c, 0, 64, 127
2, 610416, Note_on_c, 0, 57, 50
2, 610480, Note_on_c, 0, 57, 0
2, 610488, Note_on_c, 0, 59, 48
2, 610572, Note_on_c, 0, 59, 0
2, 610576, Note_on_c, 0, 57, 69
2, 610636, Note_on_c, 0, 57, 0
2, 610648, Note_on_c, 0, 59, 64
2, 610712, Note_on_c, 0, 59, 0
2, 610728, Note_on_c, 0, 57, 69
2, 610744, Note_on_c, 0, 67, 0
2, 610784, Note_on_c, 0, 57, 0
2, 610808, Note_on_c, 0, 59, 61
2, 610852, Note_on_c, 0, 72, 0
2, 610860, Note_on_c, 0, 76, 0
2, 610904, Note_on_c, 0, 75, 90
2, 610908, Note_on_c, 0, 59, 0
2, 610908, Note_on_c, 0, 72, 75
2, 610912, Note_on_c, 0, 66, 60
2, 610916, Note_on_c, 0, 57, 63
2, 610956, Note_on_c, 0, 72, 0
2, 610980, Note_on_c, 0, 57, 0
2, 611004, Note_on_c, 0, 59, 60
2, 611072, Note_on_c, 0, 59, 0
2, 611084, Note_on_c, 0, 57, 66
2, 611144, Note_on_c, 0, 57, 0
2, 611156, Note_on_c, 0, 59, 51
2, 611164, Note_on_c, 0, 72, 4
2, 611176, Note_on_c, 0, 66, 0
2, 611232, Note_on_c, 0, 75, 0
2, 611248, Note_on_c, 0, 59, 0
2, 611248, Note_on_c, 0, 57, 66
2, 611312, Note_on_c, 0, 57, 0
2, 611320, Note_on_c, 0, 59, 68
2, 611404, Note_on_c, 0, 72, 0
2, 611408, Note_on_c, 0, 76, 92
2, 611412, Note_on_c, 0, 67, 79
2, 611428, Note_on_c, 0, 59, 0
2, 611428, Note_on_c, 0, 57, 61
2, 611456, Note_on_c, 0, 67, 0
2, 611476, Note_on_c, 0, 76, 0
2, 611484, Note_on_c, 0, 57, 0
2, 611504, Note_on_c, 0, 59, 63
2, 611556, Note_on_c, 0, 59, 0
2, 611612, Note_on_c, 0, 78, 93
2, 611616, Note_on_c, 0, 75, 75
2, 611620, Note_on_c, 0, 69, 77
2, 611620, Note_on_c, 0, 57, 59
2, 611632, Note_on_c, 0, 72, 61
2, 611644, Control_c, 0, 64, 72
2, 611652, Control_c, 0, 64, 24
2, 611664, Control_c, 0, 64, 0
2, 611692, Note_on_c, 0, 57, 0
2, 611700, Note_on_c, 0, 59, 59
2, 611736, Control_c, 0, 64, 40
2, 611744, Control_c, 0, 64, 88
2, 611756, Control_c, 0, 64, 127
2, 611780, Note_on_c, 0, 59, 0
2, 611784, Note_on_c, 0, 57, 70
2, 611848, Note_on_c, 0, 57, 0
2, 611860, Note_on_c, 0, 56, 63
2, 611884, Note_on_c, 0, 72, 0
2, 611896, Note_on_c, 0, 75, 0
2, 611904, Note_on_c, 0, 78, 0
2, 611916, Note_on_c, 0, 69, 0
2, 611936, Note_on_c, 0, 57, 78
2, 611948, Note_on_c, 0, 56, 0
2, 612012, Note_on_c, 0, 57, 0
2, 612020, Note_on_c, 0, 60, 77
2, 612064, Note_on_c, 0, 60, 0
2, 612092, Note_on_c, 0, 67, 81
2, 612152, Note_on_c, 0, 67, 0
2, 612184, Note_on_c, 0, 66, 73
2, 612252, Note_on_c, 0, 66, 0
2, 612276, Note_on_c, 0, 67, 81
2, 612340, Note_on_c, 0, 67, 0
2, 612352, Note_on_c, 0, 66, 74
2, 612432, Note_on_c, 0, 65, 75
2, 612436, Note_on_c, 0, 66, 0
2, 612520, Note_on_c, 0, 65, 0
2, 612520, Note_on_c, 0, 66, 75
2, 612568, Note_on_c, 0, 66, 0
2, 612612, Note_on_c, 0, 69, 79
2, 612684, Note_on_c, 0, 69, 0
2, 612696, Note_on_c, 0, 72, 89
2, 612756, Note_on_c, 0, 72, 0
2, 612824, Note_on_c, 0, 78, 93
2, 612832, Note_on_c, 0, 71, 71
2, 612832, Control_c, 0, 64, 104
2, 612836, Note_on_c, 0, 59, 61
2, 612840, Control_c, 0, 64, 56
2, 612844, Note_on_c, 0, 55, 62
2, 612852, Control_c, 0, 64, 0
2, 612920, Control_c, 0, 64, 56
2, 612932, Control_c, 0, 64, 104
2, 612944, Note_on_c, 0, 59, 0
2, 612944, Control_c, 0, 64, 127
2, 612948, Note_on_c, 0, 60, 72
2, 613016, Note_on_c, 0, 60, 0
2, 613036, Note_on_c, 0, 55, 0
2, 613036, Note_on_c, 0, 59, 69
2, 613100, Note_on_c, 0, 59, 0
2, 613124, Note_on_c, 0, 58, 61
2, 613208, Note_on_c, 0, 59, 69
2, 613244, Note_on_c, 0, 58, 0
2, 613288, Note_on_c, 0, 59, 0
2, 613296, Note_on_c, 0, 63, 81
2, 613372, Note_on_c, 0, 78, 0
2, 613376, Note_on_c, 0, 63, 0
2, 613380, Note_on_c, 0, 76, 92
2, 613384, Note_on_c, 0, 64, 73
2, 613464, Note_on_c, 0, 64, 0
2, 613480, Note_on_c, 0, 66, 78
2, 613544, Note_on_c, 0, 66, 0
2, 613568, Note_on_c, 0, 64, 70
2, 613644, Note_on_c, 0, 64, 0
2, 613656, Note_on_c, 0, 63, 74
2, 613684, Note_on_c, 0, 71, 0
2, 613712, Note_on_c, 0, 63, 0
2, 613736, Note_on_c, 0, 64, 77
2, 613800, Note_on_c, 0, 76, 0
2, 613804, Note_on_c, 0, 79, 99
2, 613856, Note_on_c, 0, 64, 0
2, 613872, Note_on_c, 0, 71, 77
2, 613896, Note_on_c, 0, 79, 0
2, 613912, Note_on_c, 0, 71, 0
2, 613996, Note_on_c, 0, 79, 96
2, 614000, Note_on_c, 0, 72, 77
2, 614008, Note_on_c, 0, 60, 60
2, 614008, Note_on_c, 0, 57, 60
2, 614020, Control_c, 0, 64, 104
2, 614028, Control_c, 0, 64, 72
2, 614040, Control_c, 0, 64, 24
2, 614052, Control_c, 0, 64, 0
2, 614104, Note_on_c, 0, 74, 81
2, 614108, Note_on_c, 0, 72, 0
2, 614160, Control_c, 0, 64, 40
2, 614172, Control_c, 0, 64, 88
2, 614180, Note_on_c, 0, 74, 0
2, 614180, Control_c, 0, 64, 127
2, 614196, Note_on_c, 0, 72, 81
2, 614264, Note_on_c, 0, 72, 0
2, 614284, Note_on_c, 0, 71, 50
2, 614336, Note_on_c, 0, 71, 0
2, 614372, Note_on_c, 0, 72, 66
2, 614448, Note_on_c, 0, 72, 0
2, 614452, Note_on_c, 0, 76, 79
2, 614480, Note_on_c, 0, 79, 0
2, 614504, Note_on_c, 0, 76, 0
2, 614572, Note_on_c, 0, 77, 101
2, 614576, Note_on_c, 0, 72, 74
2, 614596, Control_c, 0, 64, 88
2, 614604, Control_c, 0, 64, 40
2, 614612, Control_c, 0, 64, 24
2, 614644, Control_c, 0, 64, 72
2, 614656, Control_c, 0, 64, 104
2, 614664, Control_c, 0, 64, 127
2, 614672, Note_on_c, 0, 77, 0
2, 614672, Note_on_c, 0, 79, 89
2, 614760, Note_on_c, 0, 77, 96
2, 614764, Note_on_c, 0, 79, 0
2, 614836, Note_on_c, 0, 77, 0
2, 614840, Note_on_c, 0, 76, 92
2, 614912, Note_on_c, 0, 57, 0
2, 614924, Note_on_c, 0, 77, 95
2, 614948, Note_on_c, 0, 60, 0
2, 614948, Note_on_c, 0, 76, 0
2, 615000, Note_on_c, 0, 72, 0
2, 615008, Note_on_c, 0, 77, 0
2, 615008, Note_on_c, 0, 81, 89
2, 615060, Note_on_c, 0, 81, 0
2, 615116, Note_on_c, 0, 81, 102
2, 615124, Note_on_c, 0, 74, 79
2, 615128, Note_on_c, 0, 62, 66
2, 615128, Control_c, 0, 64, 104
2, 615136, Note_on_c, 0, 59, 57
2, 615136, Control_c, 0, 64, 72
2, 615148, Control_c, 0, 64, 0
2, 615208, Note_on_c, 0, 62, 0
2, 615216, Control_c, 0, 64, 40
2, 615220, Note_on_c, 0, 64, 66
2, 615228, Control_c, 0, 64, 104
2, 615240, Control_c, 0, 64, 127
2, 615288, Note_on_c, 0, 64, 0
2, 615300, Note_on_c, 0, 59, 0
2, 615312, Note_on_c, 0, 62, 70
2, 615384, Note_on_c, 0, 62, 0
2, 615396, Note_on_c, 0, 61, 71
2, 615480, Note_on_c, 0, 62, 83
2, 615484, Note_on_c, 0, 61, 0
2, 615556, Note_on_c, 0, 62, 0
2, 615568, Note_on_c, 0, 67, 81
2, 615652, Note_on_c, 0, 67, 0
2, 615656, Note_on_c, 0, 81, 0
2, 615668, Note_on_c, 0, 80, 99
2, 615676, Note_on_c, 0, 68, 70
2, 615756, Note_on_c, 0, 68, 0
2, 615764, Note_on_c, 0, 69, 81
2, 615832, Note_on_c, 0, 69, 0
2, 615844, Note_on_c, 0, 68, 73
2, 615848, Note_on_c, 0, 74, 0
2, 615912, Note_on_c, 0, 68, 0
2, 615936, Note_on_c, 0, 67, 74
2, 616000, Note_on_c, 0, 68, 94
2, 616008, Note_on_c, 0, 67, 0
2, 616060, Note_on_c, 0, 80, 0
2, 616060, Note_on_c, 0, 83, 102
2, 616108, Note_on_c, 0, 68, 0
2, 616112, Note_on_c, 0, 74, 81
2, 616148, Note_on_c, 0, 74, 0
2, 616148, Note_on_c, 0, 83, 0
2, 616224, Note_on_c, 0, 83, 101
2, 616232, Note_on_c, 0, 76, 86
2, 616240, Note_on_c, 0, 64, 68
2, 616248, Note_on_c, 0, 60, 59
2, 616256, Control_c, 0, 64, 88
2, 616264, Control_c, 0, 64, 40
2, 616276, Control_c, 0, 64, 0
2, 616340, Note_on_c, 0, 76, 0
2, 616344, Note_on_c, 0, 77, 79
2, 616384, Control_c, 0, 64, 72
2, 616396, Control_c, 0, 64, 104
2, 616404, Control_c, 0, 64, 127
2, 616408, Note_on_c, 0, 77, 0
2, 616428, Note_on_c, 0, 76, 64
2, 616492, Note_on_c, 0, 76, 0
2, 616496, Note_on_c, 0, 75, 63
2, 616564, Note_on_c, 0, 75, 0
2, 616596, Note_on_c, 0, 76, 67
2, 616680, Note_on_c, 0, 80, 67
2, 616684, Note_on_c, 0, 76, 0
2, 616692, Note_on_c, 0, 83, 0
2, 616732, Note_on_c, 0, 80, 0
2, 616776, Note_on_c, 0, 81, 96
2, 616780, Note_on_c, 0, 76, 78
2, 616860, Note_on_c, 0, 81, 0
2, 616868, Note_on_c, 0, 83, 94
2, 616948, Note_on_c, 0, 83, 0
2, 616956, Note_on_c, 0, 81, 97
2, 617028, Note_on_c, 0, 81, 0
2, 617040, Note_on_c, 0, 80, 93
2, 617120, Note_on_c, 0, 80, 0
2, 617132, Note_on_c, 0, 81, 93
2, 617148, Note_on_c, 0, 60, 0
2, 617176, Note_on_c, 0, 64, 0
2, 617220, Note_on_c, 0, 81, 0
2, 617220, Note_on_c, 0, 84, 99
2, 617240, Note_on_c, 0, 76, 0
2, 617284, Note_on_c, 0, 84, 0
2, 617344, Note_on_c, 0, 84, 112
2, 617348, Note_on_c, 0, 77, 95
2, 617360, Note_on_c, 0, 62, 72
2, 617360, Note_on_c, 0, 65, 69
2, 617364, Control_c, 0, 64, 56
2, 617372, Control_c, 0, 64, 0
2, 617444, Control_c, 0, 64, 72
2, 617452, Note_on_c, 0, 67, 69
2, 617456, Note_on_c, 0, 65, 0
2, 617456, Control_c, 0, 64, 127
2, 617516, Note_on_c, 0, 67, 0
2, 617528, Note_on_c, 0, 65, 73
2, 617536, Note_on_c, 0, 62, 0
2, 617596, Note_on_c, 0, 65, 0
2, 617624, Note_on_c, 0, 64, 72
2, 617684, Note_on_c, 0, 66, 60
2, 617692, Note_on_c, 0, 64, 0
2, 617704, Note_on_c, 0, 65, 78
2, 617728, Note_on_c, 0, 66, 0
2, 617784, Note_on_c, 0, 65, 0
2, 617796, Note_on_c, 0, 69, 90
2, 617888, Note_on_c, 0, 69, 0
2, 617888, Note_on_c, 0, 84, 0
2, 617908, Note_on_c, 0, 82, 101
2, 617916, Note_on_c, 0, 70, 80
2, 617996, Note_on_c, 0, 70, 0
2, 618004, Note_on_c, 0, 72, 83
2, 618072, Note_on_c, 0, 72, 0
2, 618088, Note_on_c, 0, 70, 84
2, 618100, Note_on_c, 0, 77, 0
2, 618144, Note_on_c, 0, 82, 0
2, 618160, Note_on_c, 0, 70, 0
2, 618188, Note_on_c, 0, 69, 81
2, 618260, Note_on_c, 0, 70, 94
2, 618264, Note_on_c, 0, 69, 0
2, 618360, Note_on_c, 0, 86, 112
2, 618400, Note_on_c, 0, 70, 0
2, 618464, Note_on_c, 0, 74, 87
2, 618476, Note_on_c, 0, 86, 0
2, 618548, Note_on_c, 0, 74, 0
2, 618584, Note_on_c, 0, 86, 108
2, 618588, Note_on_c, 0, 74, 86
2, 618596, Note_on_c, 0, 64, 70
2, 618600, Note_on_c, 0, 67, 72
2, 618600, Note_on_c, 0, 70, 59
2, 618632, Control_c, 0, 64, 88
2, 618644, Control_c, 0, 64, 24
2, 618652, Control_c, 0, 64, 0
2, 618752, Note_on_c, 0, 94, 100
2, 618764, Control_c, 0, 64, 40
2, 618772, Control_c, 0, 64, 127
2, 618852, Note_on_c, 0, 94, 0
2, 618888, Note_on_c, 0, 86, 0
2, 618892, Note_on_c, 0, 91, 99
2, 618992, Note_on_c, 0, 91, 0
2, 619008, Note_on_c, 0, 88, 93
2, 619104, Note_on_c, 0, 88, 0
2, 619120, Note_on_c, 0, 84, 88
2, 619224, Note_on_c, 0, 84, 0
2, 619228, Note_on_c, 0, 85, 94
2, 619256, Note_on_c, 0, 74, 0
2, 619344, Note_on_c, 0, 85, 0
2, 619344, Note_on_c, 0, 88, 85
2, 619344, Note_on_c, 0, 72, 80
2, 619428, Control_c, 0, 64, 104
2, 619436, Control_c, 0, 64, 40
2, 619440, Note_on_c, 0, 88, 0
2, 619448, Note_on_c, 0, 86, 82
2, 619448, Control_c, 0, 64, 0
2, 619528, Control_c, 0, 64, 72
2, 619540, Control_c, 0, 64, 127
2, 619544, Note_on_c, 0, 84, 90
2, 619560, Note_on_c, 0, 86, 0
2, 619652, Note_on_c, 0, 82, 71
2, 619680, Note_on_c, 0, 84, 0
2, 619768, Note_on_c, 0, 82, 0
2, 619768, Note_on_c, 0, 81, 91
2, 619868, Note_on_c, 0, 64, 0
2, 619868, Note_on_c, 0, 80, 91
2, 619880, Note_on_c, 0, 81, 0
2, 619888, Note_on_c, 0, 67, 0
2, 619920, Note_on_c, 0, 72, 0
2, 619960, Note_on_c, 0, 69, 75
2, 619984, Note_on_c, 0, 70, 0
2, 619988, Note_on_c, 0, 80, 0
2, 620000, Note_on_c, 0, 82, 88
2, 620000, Note_on_c, 0, 72, 70
2, 620000, Note_on_c, 0, 65, 75
2, 620004, Note_on_c, 0, 69, 0
2, 620044, Control_c, 0, 64, 72
2, 620052, Control_c, 0, 64, 0
2, 620112, Note_on_c, 0, 81, 92
2, 620124, Control_c, 0, 64, 72
2, 620132, Control_c, 0, 64, 127
2, 620140, Note_on_c, 0, 82, 0
2, 620220, Note_on_c, 0, 79, 84
2, 620252, Note_on_c, 0, 81, 0
2, 620316, Note_on_c, 0, 79, 0
2, 620324, Note_on_c, 0, 77, 86
2, 620440, Note_on_c, 0, 76, 94
2, 620456, Note_on_c, 0, 77, 0
2, 620540, Note_on_c, 0, 76, 0
2, 620552, Note_on_c, 0, 74, 93
2, 620576, Note_on_c, 0, 72, 0
2, 620664, Note_on_c, 0, 74, 0
2, 620676, Note_on_c, 0, 79, 95
2, 620684, Control_c, 0, 64, 72
2, 620688, Note_on_c, 0, 72, 77
2, 620688, Note_on_c, 0, 70, 66
2, 620692, Note_on_c, 0, 65, 0
2, 620696, Control_c, 0, 64, 0
2, 620748, Control_c, 0, 64, 56
2, 620756, Control_c, 0, 64, 127
2, 620776, Note_on_c, 0, 70, 0
2, 620784, Note_on_c, 0, 79, 0
2, 620796, Note_on_c, 0, 77, 94
2, 620800, Note_on_c, 0, 69, 68
2, 620884, Note_on_c, 0, 72, 0
2, 620892, Note_on_c, 0, 69, 0
2, 620900, Note_on_c, 0, 77, 0
2, 620908, Note_on_c, 0, 76, 96
2, 620920, Note_on_c, 0, 67, 69
2, 621008, Note_on_c, 0, 67, 0
2, 621016, Note_on_c, 0, 76, 0
2, 621016, Note_on_c, 0, 74, 92
2, 621024, Note_on_c, 0, 65, 67
2, 621092, Note_on_c, 0, 65, 0
2, 621116, Note_on_c, 0, 64, 61
2, 621124, Note_on_c, 0, 74, 0
2, 621132, Note_on_c, 0, 72, 96
2, 621240, Note_on_c, 0, 70, 85
2, 621244, Note_on_c, 0, 64, 0
2, 621244, Note_on_c, 0, 62, 68
2, 621272, Note_on_c, 0, 62, 0
2, 621276, Note_on_c, 0, 72, 0
2, 621324, Note_on_c, 0, 70, 0
2, 621376, Note_on_c, 0, 70, 84
2, 621384, Note_on_c, 0, 60, 81
2, 621388, Note_on_c, 0, 53, 66
2, 621452, Control_c, 0, 64, 104
2, 621464, Control_c, 0, 64, 56
2, 621472, Control_c, 0, 64, 0
2, 621504, Note_on_c, 0, 69, 92
2, 621544, Note_on_c, 0, 70, 0
2, 621612, Note_on_c, 0, 67, 81
2, 621612, Control_c, 0, 64, 24
2, 621620, Control_c, 0, 64, 56
2, 621632, Control_c, 0, 64, 88
2, 621640, Control_c, 0, 64, 104
2, 621652, Control_c, 0, 64, 127
2, 621692, Note_on_c, 0, 69, 0
2, 621708, Note_on_c, 0, 67, 0
2, 621708, Note_on_c, 0, 65, 78
2, 621820, Note_on_c, 0, 65, 0
2, 621820, Note_on_c, 0, 64, 90
2, 621904, Note_on_c, 0, 64, 0
2, 621908, Note_on_c, 0, 60, 0
2, 621932, Note_on_c, 0, 62, 83
2, 622040, Note_on_c, 0, 62, 0
2, 622060, Note_on_c, 0, 67, 89
2, 622064, Note_on_c, 0, 58, 75
2, 622072, Note_on_c, 0, 60, 69
2, 622084, Control_c, 0, 64, 88
2, 622096, Control_c, 0, 64, 0
2, 622156, Control_c, 0, 64, 24
2, 622164, Note_on_c, 0, 53, 0
2, 622168, Note_on_c, 0, 58, 0
2, 622168, Control_c, 0, 64, 88
2, 622176, Note_on_c, 0, 65, 83
2, 622176, Control_c, 0, 64, 127
2, 622180, Note_on_c, 0, 57, 64
2, 622200, Note_on_c, 0, 67, 0
2, 622272, Note_on_c, 0, 57, 0
2, 622276, Note_on_c, 0, 65, 0
2, 622280, Note_on_c, 0, 60, 0
2, 622284, Note_on_c, 0, 64, 85
2, 622300, Note_on_c, 0, 55, 68
2, 622392, Note_on_c, 0, 64, 0
2, 622396, Note_on_c, 0, 55, 0
2, 622404, Note_on_c, 0, 62, 85
2, 622416, Note_on_c, 0, 53, 68
2, 622488, Note_on_c, 0, 53, 0
2, 622508, Note_on_c, 0, 62, 0
2, 622520, Note_on_c, 0, 52, 48
2, 622520, Note_on_c, 0, 60, 88
2, 622612, Note_on_c, 0, 52, 0
2, 622620, Note_on_c, 0, 60, 0
2, 622640, Note_on_c, 0, 50, 63
2, 622648, Note_on_c, 0, 58, 74
2, 622680, Note_on_c, 0, 50, 0
2, 622784, Note_on_c, 0, 58, 0
2, 622784, Note_on_c, 0, 57, 88
2, 622784, Note_on_c, 0, 48, 57
2, 622784, Note_on_c, 0, 41, 60
2, 622820, Control_c, 0, 64, 104
2, 622832, Control_c, 0, 64, 40
2, 622840, Control_c, 0, 64, 0
2, 622904, Note_on_c, 0, 58, 68
2, 622908, Note_on_c, 0, 57, 0
2, 622948, Control_c, 0, 64, 24
2, 622960, Control_c, 0, 64, 40
2, 622980, Control_c, 0, 64, 56
2, 622988, Control_c, 0, 64, 72
2, 623012, Control_c, 0, 64, 88
2, 623016, Note_on_c, 0, 57, 77
2, 623032, Note_on_c, 0, 58, 0
2, 623032, Control_c, 0, 64, 104
2, 623060, Control_c, 0, 64, 127
2, 623124, Note_on_c, 0, 57, 0
2, 623128, Note_on_c, 0, 56, 70
2, 623224, Note_on_c, 0, 56, 0
2, 623244, Note_on_c, 0, 57, 80
2, 623356, Note_on_c, 0, 57, 0
2, 623360, Note_on_c, 0, 59, 79
2, 623468, Note_on_c, 0, 59, 0
2, 623496, Note_on_c, 0, 60, 84
2, 623608, Note_on_c, 0, 60, 0
2, 623608, Note_on_c, 0, 62, 68
2, 623628, Control_c, 0, 64, 88
2, 623636, Control_c, 0, 64, 24
2, 623648, Control_c, 0, 64, 0
2, 623696, Control_c, 0, 64, 24
2, 623708, Control_c, 0, 64, 72
2, 623716, Control_c, 0, 64, 127
2, 623736, Note_on_c, 0, 62, 0
2, 623740, Note_on_c, 0, 60, 82
2, 623852, Note_on_c, 0, 60, 0
2, 623868, Note_on_c, 0, 59, 85
2, 623944, Note_on_c, 0, 48, 0
2, 623988, Note_on_c, 0, 41, 0
2, 623996, Note_on_c, 0, 59, 0
2, 624004, Note_on_c, 0, 60, 89
2, 624104, Note_on_c, 0, 60, 0
2, 624116, Note_on_c, 0, 62, 82
2, 624232, Control_c, 0, 64, 104
2, 624236, Note_on_c, 0, 62, 0
2, 624240, Control_c, 0, 64, 40
2, 624252, Control_c, 0, 64, 0
2, 624264, Note_on_c, 0, 63, 78
2, 624276, Note_on_c, 0, 29, 71
2, 624276, Note_on_c, 0, 41, 70
2, 624300, Control_c, 0, 64, 24
2, 624308, Control_c, 0, 64, 88
2, 624320, Note_on_c, 0, 29, 0
2, 624320, Control_c, 0, 64, 127
2, 624336, Note_on_c, 0, 41, 0
2, 624396, Note_on_c, 0, 63, 0
2, 624416, Note_on_c, 0, 64, 74
2, 624504, Note_on_c, 0, 56, 84
2, 624544, Note_on_c, 0, 64, 0
2, 624572, Note_on_c, 0, 63, 74
2, 624636, Note_on_c, 0, 56, 0
2, 624692, Note_on_c, 0, 63, 0
2, 624696, Note_on_c, 0, 64, 76
2, 624696, Note_on_c, 0, 57, 88
2, 624704, Control_c, 0, 64, 88
2, 624712, Control_c, 0, 64, 40
2, 624724, Control_c, 0, 64, 0
2, 624752, Control_c, 0, 64, 56
2, 624764, Control_c, 0, 64, 104
2, 624772, Control_c, 0, 64, 127
2, 624840, Note_on_c, 0, 65, 73
2, 624856, Note_on_c, 0, 64, 0
2, 624880, Note_on_c, 0, 57, 0
2, 624892, Note_on_c, 0, 59, 90
2, 624964, Note_on_c, 0, 65, 0
2, 624976, Note_on_c, 0, 68, 74
2, 625084, Note_on_c, 0, 68, 0
2, 625112, Note_on_c, 0, 69, 75
2, 625124, Note_on_c, 0, 59, 0
2, 625136, Note_on_c, 0, 62, 94
2, 625148, Control_c, 0, 64, 104
2, 625156, Control_c, 0, 64, 40
2, 625168, Control_c, 0, 64, 0
2, 625216, Control_c, 0, 64, 40
2, 625228, Control_c, 0, 64, 104
2, 625236, Note_on_c, 0, 69, 0
2, 625236, Control_c, 0, 64, 127
2, 625248, Note_on_c, 0, 71, 77
2, 625324, Note_on_c, 0, 62, 0
2, 625340, Note_on_c, 0, 60, 93
2, 625396, Note_on_c, 0, 71, 0
2, 625408, Note_on_c, 0, 69, 75
2, 625552, Note_on_c, 0, 69, 0
2, 625552, Note_on_c, 0, 60, 0
2, 625560, Note_on_c, 0, 68, 72
2, 625564, Note_on_c, 0, 59, 90
2, 625580, Control_c, 0, 64, 104
2, 625592, Control_c, 0, 64, 56
2, 625600, Control_c, 0, 64, 0
2, 625652, Control_c, 0, 64, 40
2, 625660, Control_c, 0, 64, 88
2, 625668, Control_c, 0, 64, 127
2, 625688, Note_on_c, 0, 68, 0
2, 625704, Note_on_c, 0, 69, 73
2, 625796, Note_on_c, 0, 57, 86
2, 625800, Note_on_c, 0, 59, 0
2, 625876, Note_on_c, 0, 75, 76
2, 625896, Note_on_c, 0, 69, 0
2, 626028, Note_on_c, 0, 57, 0
2, 626068, Note_on_c, 0, 75, 0
2, 626088, Note_on_c, 0, 76, 65
2, 626088, Note_on_c, 0, 56, 82
2, 626088, Note_on_c, 0, 52, 75
2, 626184, Note_on_c, 0, 76, 0
2, 626192, Note_on_c, 0, 77, 70
2, 626264, Note_on_c, 0, 77, 0
2, 626268, Note_on_c, 0, 76, 64
2, 626336, Note_on_c, 0, 76, 0
2, 626340, Note_on_c, 0, 77, 65
2, 626404, Note_on_c, 0, 76, 57
2, 626408, Note_on_c, 0, 77, 0
2, 626424, Control_c, 0, 64, 24
2, 626436, Control_c, 0, 64, 56
2, 626448, Control_c, 0, 64, 72
2, 626460, Control_c, 0, 64, 88
2, 626472, Note_on_c, 0, 76, 0
2, 626472, Note_on_c, 0, 77, 56
2, 626476, Control_c, 0, 64, 104
2, 626536, Note_on_c, 0, 76, 55
2, 626540, Note_on_c, 0, 77, 0
2, 626560, Control_c, 0, 64, 72
2, 626572, Control_c, 0, 64, 56
2, 626584, Control_c, 0, 64, 40
2, 626596, Note_on_c, 0, 76, 0
2, 626600, Note_on_c, 0, 77, 52
2, 626636, Control_c, 0, 64, 24
2, 626648, Control_c, 0, 64, 0
2, 626660, Note_on_c, 0, 77, 0
2, 626660, Note_on_c, 0, 76, 59
2, 626720, Note_on_c, 0, 76, 0
2, 626732, Note_on_c, 0, 52, 0
2, 626732, Note_on_c, 0, 56, 0
2, 626732, Note_on_c, 0, 77, 53
2, 626788, Note_on_c, 0, 77, 0
2, 626788, Note_on_c, 0, 76, 60
2, 626852, Note_on_c, 0, 76, 0
2, 626856, Note_on_c, 0, 77, 53
2, 626912, Note_on_c, 0, 77, 0
2, 626912, Note_on_c, 0, 76, 58
2, 626972, Note_on_c, 0, 76, 0
2, 626976, Note_on_c, 0, 77, 51
2, 627036, Note_on_c, 0, 77, 0
2, 627036, Note_on_c, 0, 76, 57
2, 627096, Note_on_c, 0, 76, 0
2, 627104, Note_on_c, 0, 77, 54
2, 627160, Note_on_c, 0, 77, 0
2, 627160, Note_on_c, 0, 76, 56
2, 627224, Note_on_c, 0, 76, 0
2, 627224, Note_on_c, 0, 77, 56
2, 627288, Note_on_c, 0, 77, 0
2, 627292, Note_on_c, 0, 76, 58
2, 627352, Note_on_c, 0, 76, 0
2, 627356, Note_on_c, 0, 77, 55
2, 627412, Note_on_c, 0, 77, 0
2, 627416, Note_on_c, 0, 76, 56
2, 627472, Note_on_c, 0, 76, 0
2, 627480, Note_on_c, 0, 77, 55
2, 627536, Note_on_c, 0, 77, 0
2, 627540, Note_on_c, 0, 76, 52
2, 627540, Note_on_c, 0, 64, 50
2, 627588, Note_on_c, 0, 64, 0
2, 627592, Note_on_c, 0, 76, 0
2, 627600, Note_on_c, 0, 77, 53
2, 627600, Note_on_c, 0, 65, 54
2, 627636, Note_on_c, 0, 65, 0
2, 627672, Note_on_c, 0, 77, 0
2, 627676, Note_on_c, 0, 76, 55
2, 627676, Note_on_c, 0, 64, 61
2, 627740, Note_on_c, 0, 64, 0
2, 627744, Note_on_c, 0, 76, 0
2, 627748, Note_on_c, 0, 77, 65
2, 627748, Note_on_c, 0, 65, 59
2, 627796, Note_on_c, 0, 65, 0
2, 627812, Note_on_c, 0, 76, 57
2, 627812, Note_on_c, 0, 64, 48
2, 627816, Note_on_c, 0, 77, 0
2, 627832, Control_c, 0, 64, 24
2, 627844, Control_c, 0, 64, 56
2, 627856, Control_c, 0, 64, 72
2, 627864, Note_on_c, 0, 65, 44
2, 627868, Control_c, 0, 64, 88
2, 627876, Note_on_c, 0, 64, 0
2, 627880, Note_on_c, 0, 76, 0
2, 627880, Note_on_c, 0, 77, 56
2, 627884, Control_c, 0, 64, 104
2, 627916, Note_on_c, 0, 65, 0
2, 627936, Note_on_c, 0, 64, 52
2, 627944, Note_on_c, 0, 76, 55
2, 627948, Note_on_c, 0, 77, 0
2, 627968, Control_c, 0, 64, 72
2, 627980, Control_c, 0, 64, 56
2, 627992, Note_on_c, 0, 64, 0
2, 627992, Control_c, 0, 64, 40
2, 628004, Note_on_c, 0, 76, 0
2, 628008, Note_on_c, 0, 77, 52
2, 628008, Note_on_c, 0, 65, 52
2, 628044, Control_c, 0, 64, 24
2, 628056, Control_c, 0, 64, 0
2, 628068, Note_on_c, 0, 65, 0
2, 628068, Note_on_c, 0, 77, 0
2, 628068, Note_on_c, 0, 76, 59
2, 628076, Note_on_c, 0, 64, 59
2, 628128, Note_on_c, 0, 76, 0
2, 628140, Note_on_c, 0, 64, 0
2, 628140, Note_on_c, 0, 77, 53
2, 628152, Note_on_c, 0, 65, 48
2, 628196, Note_on_c, 0, 77, 0
2, 628196, Note_on_c, 0, 76, 60
2, 628212, Note_on_c, 0, 64, 49
2, 628216, Note_on_c, 0, 65, 0
2, 628260, Note_on_c, 0, 76, 0
2, 628264, Note_on_c, 0, 77, 53
2, 628280, Note_on_c, 0, 64, 0
2, 628288, Note_on_c, 0, 65, 48
2, 628320, Note_on_c, 0, 77, 0
2, 628320, Note_on_c, 0, 76, 58
2, 628348, Note_on_c, 0, 64, 49
2, 628352, Note_on_c, 0, 65, 0
2, 628380, Note_on_c, 0, 76, 0
2, 628384, Note_on_c, 0, 77, 51
2, 628416, Note_on_c, 0, 64, 0
2, 628420, Note_on_c, 0, 65, 49
2, 628444, Note_on_c, 0, 77, 0
2, 628444, Note_on_c, 0, 76, 57
2, 628480, Note_on_c, 0, 64, 49
2, 628484, Note_on_c, 0, 65, 0
2, 628504, Note_on_c, 0, 76, 0
2, 628512, Note_on_c, 0, 77, 54
2, 628552, Note_on_c, 0, 64, 0
2, 628556, Note_on_c, 0, 65, 49
2, 628568, Note_on_c, 0, 77, 0
2, 628568, Note_on_c, 0, 76, 56
2, 628616, Note_on_c, 0, 64, 50
2, 628620, Note_on_c, 0, 65, 0
2, 628632, Note_on_c, 0, 76, 0
2, 628632, Note_on_c, 0, 77, 56
2, 628688, Note_on_c, 0, 64, 0
2, 628692, Note_on_c, 0, 65, 40
2, 628696, Note_on_c, 0, 77, 0
2, 628700, Note_on_c, 0, 76, 58
2, 628760, Note_on_c, 0, 76, 0
2, 628760, Note_on_c, 0, 65, 0
2, 628760, Note_on_c, 0, 64, 50
2, 628764, Note_on_c, 0, 77, 55
2, 628820, Note_on_c, 0, 77, 0
2, 628824, Note_on_c, 0, 76, 56
2, 628828, Note_on_c, 0, 64, 0
2, 628840, Note_on_c, 0, 65, 43
2, 628880, Note_on_c, 0, 76, 0
2, 628888, Note_on_c, 0, 77, 55
2, 628896, Note_on_c, 0, 64, 54
2, 628900, Note_on_c, 0, 65, 0
2, 628944, Note_on_c, 0, 77, 0
2, 628948, Note_on_c, 0, 76, 52
2, 628968, Note_on_c, 0, 64, 0
2, 628980, Note_on_c, 0, 65, 47
2, 629000, Note_on_c, 0, 76, 0
2, 629008, Note_on_c, 0, 77, 54
2, 629040, Note_on_c, 0, 65, 0
2, 629040, Note_on_c, 0, 64, 51
2, 629064, Note_on_c, 0, 77, 0
2, 629064, Note_on_c, 0, 76, 52
2, 629088, Note_on_c, 0, 72, 96
2, 629088, Note_on_c, 0, 64, 80
2, 629088, Note_on_c, 0, 69, 76
2, 629088, Note_on_c, 0, 60, 83
2, 629088, Note_on_c, 0, 45, 73
2, 629088, Note_on_c, 0, 57, 70
2, 629096, Control_c, 0, 64, 40
2, 629108, Note_on_c, 0, 64, 0
2, 629112, Control_c, 0, 64, 104
2, 629120, Note_on_c, 0, 76, 0
2, 629124, Note_on_c, 0, 77, 54
2, 629128, Note_on_c, 0, 65, 46
2, 629128, Control_c, 0, 64, 127
2, 629144, Note_on_c, 0, 69, 0
2, 629144, Note_on_c, 0, 45, 0
2, 629148, Note_on_c, 0, 60, 0
2, 629152, Note_on_c, 0, 64, 0
2, 629160, Note_on_c, 0, 57, 0
2, 629176, Note_on_c, 0, 72, 0
2, 629180, Note_on_c, 0, 77, 0
2, 629188, Note_on_c, 0, 65, 0
2, 629188, Note_on_c, 0, 76, 60
2, 629188, Note_on_c, 0, 64, 55
2, 629236, Note_on_c, 0, 76, 0
2, 629244, Note_on_c, 0, 77, 48
2, 629252, Note_on_c, 0, 64, 0
2, 629256, Note_on_c, 0, 65, 51
2, 629296, Note_on_c, 0, 76, 61
2, 629300, Note_on_c, 0, 77, 0
2, 629320, Note_on_c, 0, 65, 0
2, 629320, Note_on_c, 0, 64, 56
2, 629352, Note_on_c, 0, 76, 0
2, 629364, Note_on_c, 0, 77, 56
2, 629384, Note_on_c, 0, 64, 0
2, 629392, Note_on_c, 0, 65, 50
2, 629424, Note_on_c, 0, 77, 0
2, 629424, Note_on_c, 0, 76, 59
2, 629444, Note_on_c, 0, 71, 74
2, 629444, Note_on_c, 0, 52, 67
2, 629444, Note_on_c, 0, 59, 68
2, 629444, Note_on_c, 0, 64, 70
2, 629452, Note_on_c, 0, 65, 0
2, 629452, Note_on_c, 0, 64, 49
2, 629464, Control_c, 0, 64, 88
2, 629468, Note_on_c, 0, 59, 0
2, 629468, Note_on_c, 0, 52, 0
2, 629472, Control_c, 0, 64, 40
2, 629476, Note_on_c, 0, 76, 0
2, 629480, Note_on_c, 0, 64, 0
2, 629488, Note_on_c, 0, 77, 55
2, 629488, Control_c, 0, 64, 0
2, 629500, Note_on_c, 0, 71, 0
2, 629520, Note_on_c, 0, 64, 0
2, 629524, Note_on_c, 0, 65, 53
2, 629540, Note_on_c, 0, 77, 0
2, 629544, Note_on_c, 0, 76, 57
2, 629588, Note_on_c, 0, 65, 0
2, 629588, Note_on_c, 0, 64, 49
2, 629596, Note_on_c, 0, 76, 0
2, 629600, Note_on_c, 0, 77, 53
2, 629652, Note_on_c, 0, 77, 0
2, 629652, Note_on_c, 0, 64, 0
2, 629656, Note_on_c, 0, 65, 44
2, 629664, Note_on_c, 0, 76, 58
2, 629704, Note_on_c, 0, 69, 70
2, 629704, Note_on_c, 0, 57, 68
2, 629704, Note_on_c, 0, 60, 60
2, 629704, Note_on_c, 0, 48, 63
2, 629720, Note_on_c, 0, 76, 0
2, 629724, Note_on_c, 0, 65, 0
2, 629724, Note_on_c, 0, 64, 51
2, 629728, Note_on_c, 0, 77, 53
2, 629740, Note_on_c, 0, 57, 0
2, 629740, Note_on_c, 0, 69, 0
2, 629748, Note_on_c, 0, 48, 0
2, 629756, Note_on_c, 0, 60, 0
2, 629784, Note_on_c, 0, 64, 0
2, 629788, Note_on_c, 0, 77, 0
2, 629792, Note_on_c, 0, 76, 61
2, 629792, Note_on_c, 0, 65, 47
2, 629796, Note_on_c, 0, 60, 74
2, 629796, Note_on_c, 0, 69, 81
2, 629796, Note_on_c, 0, 57, 67
2, 629796, Note_on_c, 0, 48, 60
2, 629840, Note_on_c, 0, 57, 0
2, 629844, Note_on_c, 0, 76, 0
2, 629848, Note_on_c, 0, 60, 0
2, 629848, Note_on_c, 0, 64, 51
2, 629852, Note_on_c, 0, 65, 0
2, 629856, Note_on_c, 0, 69, 0
2, 629856, Note_on_c, 0, 77, 59
2, 629864, Note_on_c, 0, 48, 0
2, 629912, Note_on_c, 0, 77, 0
2, 629912, Note_on_c, 0, 64, 0
2, 629920, Note_on_c, 0, 65, 45
2, 629924, Note_on_c, 0, 76, 59
2, 629976, Note_on_c, 0, 76, 0
2, 629980, Note_on_c, 0, 65, 0
2, 629984, Note_on_c, 0, 64, 43
2, 629988, Note_on_c, 0, 77, 56
2, 630040, Note_on_c, 0, 77, 0
2, 630048, Note_on_c, 0, 64, 0
2, 630048, Note_on_c, 0, 76, 60
2, 630056, Note_on_c, 0, 65, 45
2, 630100, Note_on_c, 0, 76, 0
2, 630112, Note_on_c, 0, 77, 56
2, 630120, Note_on_c, 0, 65, 0
2, 630124, Note_on_c, 0, 64, 51
2, 630140, Note_on_c, 0, 71, 71
2, 630140, Note_on_c, 0, 52, 70
2, 630140, Note_on_c, 0, 64, 63
2, 630140, Note_on_c, 0, 59, 59
2, 630164, Note_on_c, 0, 77, 0
2, 630168, Note_on_c, 0, 76, 62
2, 630188, Note_on_c, 0, 64, 0
2, 630196, Note_on_c, 0, 52, 0
2, 630196, Note_on_c, 0, 65, 46
2, 630200, Note_on_c, 0, 64, 0
2, 630200, Note_on_c, 0, 59, 0
2, 630208, Note_on_c, 0, 71, 0
2, 630224, Note_on_c, 0, 76, 0
2, 630236, Note_on_c, 0, 77, 59
2, 630260, Note_on_c, 0, 65, 0
2, 630272, Note_on_c, 0, 64, 53
2, 630292, Note_on_c, 0, 77, 0
2, 630296, Note_on_c, 0, 76, 63
2, 630328, Note_on_c, 0, 64, 0
2, 630336, Note_on_c, 0, 65, 47
2, 630352, Note_on_c, 0, 76, 0
2, 630360, Note_on_c, 0, 77, 59
2, 630400, Note_on_c, 0, 65, 0
2, 630400, Note_on_c, 0, 64, 53
2, 630416, Note_on_c, 0, 77, 0
2, 630416, Note_on_c, 0, 76, 63
2, 630464, Note_on_c, 0, 64, 0
2, 630468, Note_on_c, 0, 65, 48
2, 630472, Note_on_c, 0, 76, 0
2, 630476, Note_on_c, 0, 77, 59
2, 630508, Note_on_c, 0, 72, 93
2, 630512, Note_on_c, 0, 64, 79
2, 630512, Note_on_c, 0, 60, 82
2, 630516, Note_on_c, 0, 69, 75
2, 630516, Note_on_c, 0, 57, 65
2, 630520, Note_on_c, 0, 45, 67
2, 630520, Control_c, 0, 64, 56
2, 630532, Note_on_c, 0, 65, 0
2, 630532, Note_on_c, 0, 64, 45
2, 630536, Note_on_c, 0, 77, 0
2, 630536, Note_on_c, 0, 76, 64
2, 630536, Control_c, 0, 64, 127
2, 630576, Note_on_c, 0, 45, 0
2, 630592, Note_on_c, 0, 64, 0
2, 630592, Note_on_c, 0, 64, 0
2, 630596, Note_on_c, 0, 76, 0
2, 630604, Note_on_c, 0, 65, 51
2, 630604, Note_on_c, 0, 77, 60
2, 630616, Note_on_c, 0, 57, 0
2, 630620, Note_on_c, 0, 72, 0
2, 630628, Note_on_c, 0, 60, 0
2, 630644, Note_on_c, 0, 69, 0
2, 630664, Note_on_c, 0, 65, 0
2, 630664, Note_on_c, 0, 77, 0
2, 630664, Note_on_c, 0, 76, 64
2, 630668, Note_on_c, 0, 64, 49
2, 630720, Note_on_c, 0, 76, 0
2, 630728, Note_on_c, 0, 64, 0
2, 630728, Note_on_c, 0, 77, 56
2, 630736, Note_on_c, 0, 65, 48
2, 630784, Note_on_c, 0, 77, 0
2, 630784, Note_on_c, 0, 76, 64
2, 630804, Note_on_c, 0, 65, 0
2, 630808, Note_on_c, 0, 64, 49
2, 630836, Note_on_c, 0, 76, 0
2, 630844, Note_on_c, 0, 77, 57
2, 630864, Note_on_c, 0, 71, 74
2, 630864, Note_on_c, 0, 52, 68
2, 630868, Note_on_c, 0, 64, 69
2, 630872, Note_on_c, 0, 59, 50
2, 630876, Note_on_c, 0, 64, 0
2, 630880, Control_c, 0, 64, 56
2, 630888, Note_on_c, 0, 65, 54
2, 630896, Note_on_c, 0, 52, 0
2, 630896, Control_c, 0, 64, 0
2, 630900, Note_on_c, 0, 77, 0
2, 630904, Note_on_c, 0, 59, 0
2, 630904, Note_on_c, 0, 76, 64
2, 630908, Note_on_c, 0, 64, 0
2, 630932, Note_on_c, 0, 71, 0
2, 630952, Note_on_c, 0, 65, 0
2, 630952, Note_on_c, 0, 76, 0
2, 630960, Note_on_c, 0, 64, 58
2, 630964, Note_on_c, 0, 77, 57
2, 631024, Note_on_c, 0, 77, 0
2, 631024, Note_on_c, 0, 76, 64
2, 631028, Note_on_c, 0, 64, 0
2, 631036, Note_on_c, 0, 65, 57
2, 631076, Note_on_c, 0, 76, 0
2, 631084, Note_on_c, 0, 77, 60
2, 631096, Note_on_c, 0, 57, 62
2, 631100, Note_on_c, 0, 65, 0
2, 631104, Note_on_c, 0, 69, 74
2, 631104, Note_on_c, 0, 60, 62
2, 631108, Note_on_c, 0, 48, 58
2, 631112, Note_on_c, 0, 64, 64
2, 631128, Note_on_c, 0, 69, 0
2, 631132, Note_on_c, 0, 48, 0
2, 631136, Note_on_c, 0, 60, 0
2, 631140, Note_on_c, 0, 57, 0
2, 631148, Note_on_c, 0, 77, 0
2, 631152, Note_on_c, 0, 76, 64
2, 631172, Note_on_c, 0, 64, 0
2, 631180, Note_on_c, 0, 60, 74
2, 631184, Note_on_c, 0, 69, 84
2, 631184, Note_on_c, 0, 65, 63
2, 631192, Note_on_c, 0, 57, 63
2, 631204, Note_on_c, 0, 76, 0
2, 631204, Note_on_c, 0, 48, 59
2, 631212, Note_on_c, 0, 77, 64
2, 631228, Note_on_c, 0, 60, 0
2, 631232, Note_on_c, 0, 48, 0
2, 631240, Note_on_c, 0, 64, 48
2, 631252, Note_on_c, 0, 57, 0
2, 631256, Note_on_c, 0, 69, 0
2, 631272, Note_on_c, 0, 77, 0
2, 631284, Note_on_c, 0, 76, 62
2, 631288, Note_on_c, 0, 65, 0
2, 631300, Note_on_c, 0, 64, 0
2, 631324, Note_on_c, 0, 76, 0
2, 631332, Note_on_c, 0, 77, 58
2, 631400, Note_on_c, 0, 76, 59
2, 631432, Note_on_c, 0, 77, 0
2, 631456, Note_on_c, 0, 76, 0
2, 631544, Note_on_c, 0, 79, 107
2, 631548, Note_on_c, 0, 67, 92
2, 631552, Note_on_c, 0, 74, 92
2, 631560, Note_on_c, 0, 47, 75
2, 631568, Note_on_c, 0, 59, 67
2, 631576, Note_on_c, 0, 47, 69
2, 631596, Control_c, 0, 64, 56
2, 631600, Note_on_c, 0, 35, 52
2, 631608, Control_c, 0, 64, 127
2, 631656, Note_on_c, 0, 55, 67
2, 631712, Note_on_c, 0, 55, 0
2, 631724, Note_on_c, 0, 62, 49
2, 631752, Note_on_c, 0, 67, 44
2, 631796, Note_on_c, 0, 62, 0
2, 631800, Note_on_c, 0, 55, 64
2, 631808, Note_on_c, 0, 67, 0
2, 631840, Note_on_c, 0, 55, 0
2, 631916, Note_on_c, 0, 47, 0
2, 631944, Note_on_c, 0, 59, 0
2, 631956, Note_on_c, 0, 79, 0
2, 631956, Note_on_c, 0, 55, 64
2, 631960, Note_on_c, 0, 74, 0
2, 631968, Note_on_c, 0, 67, 0
2, 632008, Note_on_c, 0, 55, 0
2, 632032, Note_on_c, 0, 67, 54
2, 632032, Note_on_c, 0, 62, 36
2, 632072, Note_on_c, 0, 35, 0
2, 632092, Note_on_c, 0, 62, 0
2, 632096, Note_on_c, 0, 47, 0
2, 632104, Note_on_c, 0, 67, 0
2, 632104, Note_on_c, 0, 55, 56
2, 632156, Note_on_c, 0, 55, 0
2, 632188, Note_on_c, 0, 48, 80
2, 632196, Note_on_c, 0, 36, 68
2, 632216, Note_on_c, 0, 76, 85
2, 632224, Note_on_c, 0, 67, 70
2, 632228, Note_on_c, 0, 72, 74
2, 632232, Note_on_c, 0, 60, 72
2, 632232, Note_on_c, 0, 48, 72
2, 632240, Control_c, 0, 64, 88
2, 632252, Control_c, 0, 64, 56
2, 632260, Note_on_c, 0, 72, 0
2, 632264, Control_c, 0, 64, 24
2, 632268, Note_on_c, 0, 48, 0
2, 632268, Note_on_c, 0, 48, 0
2, 632276, Note_on_c, 0, 67, 0
2, 632276, Note_on_c, 0, 60, 0
2, 632280, Control_c, 0, 64, 0
2, 632288, Note_on_c, 0, 76, 0
2, 632308, Note_on_c, 0, 55, 51
2, 632344, Note_on_c, 0, 55, 0
2, 632364, Note_on_c, 0, 60, 38
2, 632364, Note_on_c, 0, 64, 55
2, 632400, Note_on_c, 0, 60, 0
2, 632408, Note_on_c, 0, 64, 0
2, 632416, Note_on_c, 0, 55, 44
2, 632452, Note_on_c, 0, 36, 0
2, 632472, Note_on_c, 0, 55, 0
2, 632520, Note_on_c, 0, 38, 72
2, 632548, Note_on_c, 0, 74, 82
2, 632552, Note_on_c, 0, 71, 70
2, 632556, Note_on_c, 0, 65, 66
2, 632560, Note_on_c, 0, 62, 66
2, 632564, Note_on_c, 0, 50, 67
2, 632584, Note_on_c, 0, 53, 40
2, 632592, Note_on_c, 0, 50, 0
2, 632596, Note_on_c, 0, 62, 0
2, 632600, Note_on_c, 0, 65, 0
2, 632608, Note_on_c, 0, 71, 0
2, 632608, Note_on_c, 0, 74, 0
2, 632620, Note_on_c, 0, 53, 0
2, 632668, Note_on_c, 0, 62, 31
2, 632716, Note_on_c, 0, 53, 56
2, 632724, Note_on_c, 0, 62, 0
2, 632780, Note_on_c, 0, 53, 0
2, 632848, Note_on_c, 0, 38, 0
2, 632852, Note_on_c, 0, 40, 63
2, 632904, Note_on_c, 0, 71, 77
2, 632904, Note_on_c, 0, 59, 62
2, 632904, Note_on_c, 0, 64, 63
2, 632904, Note_on_c, 0, 68, 60
2, 632904, Note_on_c, 0, 52, 61
2, 632952, Note_on_c, 0, 52, 28
2, 632984, Note_on_c, 0, 52, 0
2, 633000, Note_on_c, 0, 59, 42
2, 633004, Note_on_c, 0, 59, 0
2, 633004, Note_on_c, 0, 68, 0
2, 633004, Note_on_c, 0, 64, 0
2, 633008, Note_on_c, 0, 52, 0
2, 633028, Note_on_c, 0, 71, 0
2, 633072, Note_on_c, 0, 59, 0
2, 633084, Note_on_c, 0, 52, 57
2, 633132, Note_on_c, 0, 52, 0
2, 633224, Note_on_c, 0, 48, 72
2, 633232, Note_on_c, 0, 36, 57
2, 633236, Note_on_c, 0, 40, 0
2, 633256, Note_on_c, 0, 76, 99
2, 633260, Note_on_c, 0, 64, 87
2, 633264, Note_on_c, 0, 67, 84
2, 633264, Note_on_c, 0, 72, 87
2, 633272, Note_on_c, 0, 60, 74
2, 633280, Note_on_c, 0, 48, 80
2, 633284, Control_c, 0, 64, 72
2, 633300, Control_c, 0, 64, 127
2, 633308, Note_on_c, 0, 55, 64
2, 633368, Note_on_c, 0, 55, 0
2, 633384, Note_on_c, 0, 60, 39
2, 633396, Note_on_c, 0, 64, 52
2, 633448, Note_on_c, 0, 60, 0
2, 633456, Note_on_c, 0, 55, 63
2, 633460, Note_on_c, 0, 64, 0
2, 633468, Note_on_c, 0, 60, 0
2, 633480, Note_on_c, 0, 67, 0
2, 633512, Note_on_c, 0, 48, 0
2, 633520, Note_on_c, 0, 48, 0
2, 633520, Note_on_c, 0, 55, 0
2, 633528, Note_on_c, 0, 76, 0
2, 633584, Note_on_c, 0, 72, 0
2, 633584, Note_on_c, 0, 64, 0
2, 633584, Note_on_c, 0, 48, 57
2, 633632, Note_on_c, 0, 74, 80
2, 633632, Note_on_c, 0, 55, 60
2, 633636, Note_on_c, 0, 62, 52
2, 633640, Note_on_c, 0, 67, 63
2, 633660, Control_c, 0, 64, 88
2, 633668, Note_on_c, 0, 62, 0
2, 633668, Note_on_c, 0, 55, 0
2, 633672, Note_on_c, 0, 67, 0
2, 633672, Note_on_c, 0, 55, 56
2, 633676, Control_c, 0, 64, 40
2, 633688, Control_c, 0, 64, 0
2, 633700, Note_on_c, 0, 74, 0
2, 633704, Note_on_c, 0, 55, 0
2, 633744, Note_on_c, 0, 65, 41
2, 633788, Note_on_c, 0, 65, 0
2, 633800, Note_on_c, 0, 55, 62
2, 633828, Note_on_c, 0, 48, 0
2, 633856, Note_on_c, 0, 55, 0
2, 633872, Note_on_c, 0, 72, 79
2, 633880, Note_on_c, 0, 64, 55
2, 633880, Note_on_c, 0, 52, 58
2, 633888, Note_on_c, 0, 60, 52
2, 633900, Note_on_c, 0, 72, 0
2, 633908, Note_on_c, 0, 64, 0
2, 633912, Note_on_c, 0, 52, 0
2, 633916, Note_on_c, 0, 60, 0
2, 633928, Note_on_c, 0, 48, 68
2, 633960, Note_on_c, 0, 72, 86
2, 633960, Note_on_c, 0, 64, 66
2, 633968, Note_on_c, 0, 52, 65
2, 633976, Note_on_c, 0, 60, 46
2, 634008, Note_on_c, 0, 60, 0
2, 634008, Note_on_c, 0, 52, 0
2, 634016, Note_on_c, 0, 64, 0
2, 634032, Note_on_c, 0, 72, 0
2, 634032, Note_on_c, 0, 55, 69
2, 634100, Note_on_c, 0, 55, 0
2, 634100, Note_on_c, 0, 64, 49
2, 634112, Note_on_c, 0, 60, 46
2, 634176, Note_on_c, 0, 60, 0
2, 634188, Note_on_c, 0, 55, 46
2, 634192, Note_on_c, 0, 48, 0
2, 634196, Note_on_c, 0, 64, 0
2, 634240, Note_on_c, 0, 55, 0
2, 634276, Note_on_c, 0, 48, 70
2, 634296, Note_on_c, 0, 74, 86
2, 634304, Note_on_c, 0, 67, 81
2, 634304, Note_on_c, 0, 62, 57
2, 634304, Note_on_c, 0, 55, 64
2, 634328, Note_on_c, 0, 62, 0
2, 634332, Note_on_c, 0, 55, 0
2, 634348, Note_on_c, 0, 55, 71
2, 634356, Note_on_c, 0, 67, 0
2, 634364, Note_on_c, 0, 74, 0
2, 634420, Note_on_c, 0, 55, 0
2, 634432, Note_on_c, 0, 65, 61
2, 634444, Note_on_c, 0, 62, 38
2, 634500, Note_on_c, 0, 65, 0
2, 634512, Note_on_c, 0, 55, 67
2, 634520, Note_on_c, 0, 62, 0
2, 634544, Note_on_c, 0, 48, 0
2, 634552, Note_on_c, 0, 36, 0
2, 634576, Note_on_c, 0, 55, 0
2, 634616, Note_on_c, 0, 48, 81
2, 634624, Note_on_c, 0, 36, 60
2, 634656, Note_on_c, 0, 76, 96
2, 634660, Note_on_c, 0, 64, 87
2, 634664, Note_on_c, 0, 72, 87
2, 634664, Note_on_c, 0, 67, 82
2, 634680, Note_on_c, 0, 60, 66
2, 634680, Control_c, 0, 64, 40
2, 634684, Note_on_c, 0, 48, 71
2, 634688, Control_c, 0, 64, 104
2, 634704, Note_on_c, 0, 55, 67
2, 634708, Control_c, 0, 64, 127
2, 634776, Note_on_c, 0, 55, 0
2, 634776, Note_on_c, 0, 64, 57
2, 634780, Note_on_c, 0, 60, 48
2, 634824, Note_on_c, 0, 48, 0
2, 634864, Note_on_c, 0, 60, 0
2, 634868, Note_on_c, 0, 60, 0
2, 634868, Note_on_c, 0, 55, 64
2, 634880, Note_on_c, 0, 64, 0
2, 634884, Note_on_c, 0, 67, 0
2, 634884, Note_on_c, 0, 76, 0
2, 634924, Note_on_c, 0, 48, 0
2, 634944, Note_on_c, 0, 64, 0
2, 634948, Note_on_c, 0, 55, 0
2, 634964, Note_on_c, 0, 72, 0
2, 634984, Note_on_c, 0, 48, 62
2, 635004, Note_on_c, 0, 74, 78
2, 635012, Note_on_c, 0, 67, 70
2, 635024, Note_on_c, 0, 55, 65
2, 635024, Note_on_c, 0, 62, 49
2, 635040, Control_c, 0, 64, 88
2, 635056, Note_on_c, 0, 55, 0
2, 635056, Control_c, 0, 64, 56
2, 635060, Note_on_c, 0, 62, 0
2, 635068, Control_c, 0, 64, 24
2, 635072, Note_on_c, 0, 55, 64
2, 635084, Note_on_c, 0, 67, 0
2, 635084, Control_c, 0, 64, 0
2, 635100, Note_on_c, 0, 74, 0
2, 635140, Note_on_c, 0, 55, 0
2, 635152, Note_on_c, 0, 65, 59
2, 635160, Note_on_c, 0, 62, 44
2, 635232, Note_on_c, 0, 55, 64
2, 635236, Note_on_c, 0, 65, 0
2, 635240, Note_on_c, 0, 48, 0
2, 635244, Note_on_c, 0, 62, 0
2, 635260, Note_on_c, 0, 72, 83
2, 635260, Note_on_c, 0, 60, 66
2, 635260, Note_on_c, 0, 64, 70
2, 635264, Note_on_c, 0, 52, 65
2, 635292, Note_on_c, 0, 52, 0
2, 635296, Note_on_c, 0, 55, 0
2, 635304, Note_on_c, 0, 64, 0
2, 635308, Note_on_c, 0, 60, 0
2, 635316, Note_on_c, 0, 72, 0
2, 635332, Note_on_c, 0, 48, 75
2, 635352, Note_on_c, 0, 64, 79
2, 635352, Note_on_c, 0, 72, 97
2, 635360, Note_on_c, 0, 52, 59
2, 635364, Note_on_c, 0, 60, 66
2, 635384, Note_on_c, 0, 64, 0
2, 635400, Note_on_c, 0, 55, 71
2, 635404, Note_on_c, 0, 52, 0
2, 635412, Note_on_c, 0, 60, 0
2, 635420, Note_on_c, 0, 72, 0
2, 635464, Note_on_c, 0, 55, 0
2, 635488, Note_on_c, 0, 60, 48
2, 635492, Note_on_c, 0, 64, 55
2, 635500, Note_on_c, 0, 36, 0
2, 635536, Note_on_c, 0, 48, 0
2, 635560, Note_on_c, 0, 60, 0
2, 635560, Note_on_c, 0, 55, 73
2, 635580, Note_on_c, 0, 64, 0
2, 635608, Note_on_c, 0, 55, 0
2, 635668, Note_on_c, 0, 83, 103
2, 635672, Note_on_c, 0, 71, 87
2, 635676, Note_on_c, 0, 78, 81
2, 635680, Note_on_c, 0, 51, 89
2, 635696, Note_on_c, 0, 51, 64
2, 635696, Note_on_c, 0, 39, 64
2, 635696, Control_c, 0, 64, 24
2, 635704, Note_on_c, 0, 59, 63
2, 635708, Control_c, 0, 64, 88
2, 635724, Control_c, 0, 64, 127
2, 635764, Note_on_c, 0, 59, 72
2, 635820, Note_on_c, 0, 51, 0
2, 635828, Note_on_c, 0, 59, 0
2, 635848, Note_on_c, 0, 66, 50
2, 635852, Note_on_c, 0, 71, 64
2, 635916, Note_on_c, 0, 59, 66
2, 635924, Note_on_c, 0, 66, 0
2, 635944, Note_on_c, 0, 51, 0
2, 635972, Note_on_c, 0, 78, 0
2, 635992, Note_on_c, 0, 59, 0
2, 635992, Note_on_c, 0, 39, 0
2, 635992, Note_on_c, 0, 50, 84
2, 636000, Note_on_c, 0, 38, 69
2, 636024, Note_on_c, 0, 80, 86
2, 636032, Note_on_c, 0, 83, 0
2, 636032, Note_on_c, 0, 62, 60
2, 636048, Note_on_c, 0, 50, 33
2, 636052, Note_on_c, 0, 71, 0
2, 636056, Note_on_c, 0, 62, 0
2, 636076, Note_on_c, 0, 59, 67
2, 636080, Note_on_c, 0, 50, 0
2, 636084, Note_on_c, 0, 59, 0
2, 636096, Note_on_c, 0, 71, 0
2, 636120, Note_on_c, 0, 80, 0
2, 636128, Control_c, 0, 64, 88
2, 636140, Control_c, 0, 64, 56
2, 636148, Note_on_c, 0, 59, 0
2, 636156, Control_c, 0, 64, 40
2, 636160, Note_on_c, 0, 68, 54
2, 636160, Note_on_c, 0, 64, 59
2, 636172, Control_c, 0, 64, 0
2, 636224, Note_on_c, 0, 64, 0
2, 636236, Note_on_c, 0, 59, 63
2, 636244, Note_on_c, 0, 38, 0
2, 636248, Note_on_c, 0, 68, 0
2, 636268, Note_on_c, 0, 50, 0
2, 636308, Note_on_c, 0, 59, 0
2, 636356, Note_on_c, 0, 48, 81
2, 636364, Note_on_c, 0, 81, 88
2, 636364, Note_on_c, 0, 36, 66
2, 636372, Note_on_c, 0, 69, 81
2, 636372, Note_on_c, 0, 76, 79
2, 636380, Note_on_c, 0, 60, 71
2, 636380, Control_c, 0, 64, 72
2, 636384, Note_on_c, 0, 48, 74
2, 636392, Control_c, 0, 64, 127
2, 636408, Note_on_c, 0, 48, 0
2, 636416, Note_on_c, 0, 60, 0
2, 636420, Note_on_c, 0, 57, 62
2, 636424, Note_on_c, 0, 69, 0
2, 636428, Note_on_c, 0, 76, 0
2, 636444, Note_on_c, 0, 81, 0
2, 636464, Control_c, 0, 64, 104
2, 636476, Control_c, 0, 64, 56
2, 636488, Control_c, 0, 64, 24
2, 636504, Note_on_c, 0, 57, 0
2, 636508, Control_c, 0, 64, 0
2, 636516, Note_on_c, 0, 69, 55
2, 636520, Note_on_c, 0, 64, 49
2, 636576, Note_on_c, 0, 36, 0
2, 636588, Note_on_c, 0, 64, 0
2, 636604, Note_on_c, 0, 69, 0
2, 636608, Note_on_c, 0, 57, 58
2, 636620, Note_on_c, 0, 48, 0
2, 636688, Note_on_c, 0, 57, 0
2, 636696, Note_on_c, 0, 50, 75
2, 636708, Note_on_c, 0, 38, 62
2, 636712, Note_on_c, 0, 77, 87
2, 636724, Note_on_c, 0, 69, 75
2, 636724, Note_on_c, 0, 74, 76
2, 636728, Note_on_c, 0, 50, 72
2, 636728, Note_on_c, 0, 62, 66
2, 636768, Note_on_c, 0, 50, 0
2, 636776, Note_on_c, 0, 62, 0
2, 636784, Note_on_c, 0, 74, 0
2, 636788, Note_on_c, 0, 69, 0
2, 636788, Note_on_c, 0, 57, 68
2, 636800, Note_on_c, 0, 77, 0
2, 636820, Note_on_c, 0, 38, 0
2, 636860, Note_on_c, 0, 57, 0
2, 636872, Note_on_c, 0, 65, 55
2, 636872, Note_on_c, 0, 62, 48
2, 636892, Note_on_c, 0, 50, 0
2, 636928, Note_on_c, 0, 62, 0
2, 636940, Note_on_c, 0, 57, 48
2, 636964, Note_on_c, 0, 65, 0
2, 637008, Note_on_c, 0, 57, 0
2, 637036, Note_on_c, 0, 52, 82
2, 637040, Note_on_c, 0, 40, 68
2, 637044, Note_on_c, 0, 76, 86
2, 637052, Note_on_c, 0, 68, 65
2, 637052, Note_on_c, 0, 71, 74
2, 637056, Note_on_c, 0, 56, 57
2, 637064, Note_on_c, 0, 64, 62
2, 637072, Note_on_c, 0, 52, 58
2, 637076, Control_c, 0, 64, 72
2, 637092, Control_c, 0, 64, 127
2, 637100, Note_on_c, 0, 68, 0
2, 637108, Note_on_c, 0, 71, 0
2, 637112, Note_on_c, 0, 52, 0
2, 637120, Note_on_c, 0, 56, 63
2, 637136, Note_on_c, 0, 40, 0
2, 637136, Note_on_c, 0, 76, 0
2, 637136, Note_on_c, 0, 64, 0
2, 637144, Note_on_c, 0, 52, 0
2, 637144, Note_on_c, 0, 56, 0
2, 637184, Note_on_c, 0, 56, 0
2, 637196, Note_on_c, 0, 64, 62
2, 637224, Note_on_c, 0, 59, 22
2, 637248, Note_on_c, 0, 56, 57
2, 637256, Note_on_c, 0, 59, 0
2, 637256, Note_on_c, 0, 64, 0
2, 637268, Note_on_c, 0, 52, 65
2, 637288, Note_on_c, 0, 52, 0
2, 637308, Note_on_c, 0, 56, 0
2, 637328, Control_c, 0, 64, 88
2, 637340, Control_c, 0, 64, 40
2, 637356, Control_c, 0, 64, 0
2, 637368, Note_on_c, 0, 45, 76
2, 637376, Note_on_c, 0, 45, 93
2, 637376, Note_on_c, 0, 33, 73
2, 637392, Note_on_c, 0, 45, 0
2, 637408, Note_on_c, 0, 84, 103
2, 637412, Note_on_c, 0, 72, 92
2, 637416, Control_c, 0, 64, 40
2, 637420, Note_on_c, 0, 76, 87
2, 637440, Control_c, 0, 64, 127
2, 637480, Note_on_c, 0, 52, 62
2, 637484, Note_on_c, 0, 60, 48
2, 637500, Note_on_c, 0, 57, 21
2, 637520, Note_on_c, 0, 60, 0
2, 637524, Note_on_c, 0, 57, 0
2, 637548, Note_on_c, 0, 84, 0
2, 637556, Note_on_c, 0, 52, 0
2, 637560, Note_on_c, 0, 60, 52
2, 637568, Note_on_c, 0, 57, 48
2, 637572, Note_on_c, 0, 72, 0
2, 637592, Note_on_c, 0, 76, 0
2, 637632, Note_on_c, 0, 60, 0
2, 637640, Note_on_c, 0, 45, 0
2, 637640, Note_on_c, 0, 57, 0
2, 637640, Note_on_c, 0, 52, 68
2, 637700, Note_on_c, 0, 52, 0
2, 637716, Note_on_c, 0, 45, 66
2, 637764, Note_on_c, 0, 83, 86
2, 637772, Note_on_c, 0, 71, 69
2, 637772, Note_on_c, 0, 52, 70
2, 637772, Note_on_c, 0, 59, 60
2, 637780, Note_on_c, 0, 76, 72
2, 637788, Note_on_c, 0, 52, 68
2, 637788, Control_c, 0, 64, 72
2, 637804, Note_on_c, 0, 76, 0
2, 637804, Control_c, 0, 64, 40
2, 637808, Note_on_c, 0, 59, 0
2, 637812, Note_on_c, 0, 52, 0
2, 637816, Control_c, 0, 64, 0
2, 637824, Note_on_c, 0, 83, 0
2, 637832, Note_on_c, 0, 71, 0
2, 637864, Note_on_c, 0, 52, 0
2, 637880, Note_on_c, 0, 62, 55
2, 637892, Note_on_c, 0, 59, 34
2, 637960, Note_on_c, 0, 59, 0
2, 637960, Note_on_c, 0, 52, 62
2, 637968, Note_on_c, 0, 62, 0
2, 637984, Note_on_c, 0, 45, 0
2, 638024, Note_on_c, 0, 81, 79
2, 638024, Note_on_c, 0, 69, 74
2, 638032, Note_on_c, 0, 52, 0
2, 638032, Note_on_c, 0, 76, 68
2, 638032, Note_on_c, 0, 57, 63
2, 638040, Note_on_c, 0, 48, 60
2, 638052, Note_on_c, 0, 76, 0
2, 638056, Note_on_c, 0, 57, 0
2, 638060, Note_on_c, 0, 45, 64
2, 638068, Note_on_c, 0, 48, 0
2, 638072, Note_on_c, 0, 81, 0
2, 638072, Note_on_c, 0, 69, 0
2, 638120, Note_on_c, 0, 69, 78
2, 638120, Note_on_c, 0, 81, 84
2, 638128, Note_on_c, 0, 76, 74
2, 638148, Note_on_c, 0, 48, 58
2, 638148, Note_on_c, 0, 57, 68
2, 638148, Note_on_c, 0, 52, 65
2, 638152, Note_on_c, 0, 76, 0
2, 638164, Note_on_c, 0, 69, 0
2, 638176, Note_on_c, 0, 48, 0
2, 638176, Note_on_c, 0, 57, 0
2, 638192, Note_on_c, 0, 81, 0
2, 638216, Note_on_c, 0, 52, 0
2, 638228, Note_on_c, 0, 60, 54
2, 638232, Note_on_c, 0, 57, 47
2, 638296, Note_on_c, 0, 57, 0
2, 638300, Note_on_c, 0, 52, 72
2, 638304, Note_on_c, 0, 60, 0
2, 638316, Note_on_c, 0, 45, 0
2, 638372, Note_on_c, 0, 52, 0
2, 638408, Note_on_c, 0, 45, 68
2, 638436, Note_on_c, 0, 52, 67
2, 638440, Note_on_c, 0, 59, 59
2, 638440, Note_on_c, 0, 83, 90
2, 638444, Note_on_c, 0, 71, 82
2, 638452, Note_on_c, 0, 76, 81
2, 638460, Note_on_c, 0, 52, 0
2, 638472, Note_on_c, 0, 59, 0
2, 638484, Note_on_c, 0, 52, 67
2, 638508, Note_on_c, 0, 71, 0
2, 638524, Note_on_c, 0, 76, 0
2, 638544, Note_on_c, 0, 83, 0
2, 638552, Note_on_c, 0, 52, 0
2, 638564, Note_on_c, 0, 62, 61
2, 638576, Note_on_c, 0, 59, 43
2, 638640, Note_on_c, 0, 62, 0
2, 638640, Note_on_c, 0, 52, 70
2, 638644, Note_on_c, 0, 59, 0
2, 638660, Note_on_c, 0, 45, 82
2, 638664, Note_on_c, 0, 45, 0
2, 638692, Note_on_c, 0, 33, 0
2, 638704, Note_on_c, 0, 52, 0
2, 638712, Note_on_c, 0, 45, 0
2, 638744, Note_on_c, 0, 45, 83
2, 638752, Note_on_c, 0, 33, 56
2, 638792, Note_on_c, 0, 84, 109
2, 638792, Note_on_c, 0, 72, 102
2, 638800, Note_on_c, 0, 76, 94
2, 638804, Note_on_c, 0, 60, 75
2, 638804, Note_on_c, 0, 57, 70
2, 638808, Control_c, 0, 64, 40
2, 638820, Control_c, 0, 64, 127
2, 638840, Note_on_c, 0, 52, 75
2, 638908, Note_on_c, 0, 60, 0
2, 638920, Note_on_c, 0, 60, 66
2, 638924, Note_on_c, 0, 52, 0
2, 638936, Note_on_c, 0, 57, 58
2, 638944, Note_on_c, 0, 57, 0
2, 638948, Note_on_c, 0, 84, 0
2, 638980, Note_on_c, 0, 72, 0
2, 639000, Note_on_c, 0, 76, 0
2, 639016, Note_on_c, 0, 60, 0
2, 639016, Note_on_c, 0, 57, 0
2, 639020, Note_on_c, 0, 45, 0
2, 639020, Note_on_c, 0, 52, 73
2, 639088, Note_on_c, 0, 52, 0
2, 639112, Note_on_c, 0, 45, 71
2, 639140, Note_on_c, 0, 83, 85
2, 639144, Note_on_c, 0, 71, 71
2, 639148, Note_on_c, 0, 76, 72
2, 639152, Note_on_c, 0, 59, 60
2, 639156, Note_on_c, 0, 52, 66
2, 639168, Control_c, 0, 64, 72
2, 639172, Note_on_c, 0, 76, 0
2, 639180, Note_on_c, 0, 52, 0
2, 639184, Note_on_c, 0, 59, 0
2, 639184, Control_c, 0, 64, 40
2, 639192, Note_on_c, 0, 52, 73
2, 639196, Control_c, 0, 64, 0
2, 639204, Note_on_c, 0, 83, 0
2, 639204, Note_on_c, 0, 71, 0
2, 639280, Note_on_c, 0, 52, 0
2, 639288, Note_on_c, 0, 62, 65
2, 639300, Note_on_c, 0, 59, 45
2, 639356, Note_on_c, 0, 45, 0
2, 639360, Note_on_c, 0, 62, 0
2, 639364, Note_on_c, 0, 59, 0
2, 639368, Note_on_c, 0, 52, 71
2, 639392, Note_on_c, 0, 81, 80
2, 639396, Note_on_c, 0, 69, 70
2, 639396, Note_on_c, 0, 57, 67
2, 639400, Note_on_c, 0, 76, 70
2, 639404, Note_on_c, 0, 48, 68
2, 639420, Note_on_c, 0, 76, 0
2, 639428, Note_on_c, 0, 57, 0
2, 639428, Note_on_c, 0, 69, 0
2, 639428, Note_on_c, 0, 48, 0
2, 639432, Note_on_c, 0, 52, 0
2, 639440, Note_on_c, 0, 81, 0
2, 639444, Note_on_c, 0, 45, 73
2, 639476, Note_on_c, 0, 69, 84
2, 639476, Note_on_c, 0, 81, 88
2, 639480, Note_on_c, 0, 76, 70
2, 639496, Note_on_c, 0, 57, 62
2, 639500, Note_on_c, 0, 48, 63
2, 639524, Note_on_c, 0, 52, 71
2, 639532, Note_on_c, 0, 76, 0
2, 639536, Note_on_c, 0, 69, 0
2, 639536, Note_on_c, 0, 48, 0
2, 639552, Note_on_c, 0, 57, 0
2, 639556, Note_on_c, 0, 81, 0
2, 639592, Note_on_c, 0, 52, 0
2, 639608, Note_on_c, 0, 60, 64
2, 639636, Note_on_c, 0, 33, 0
2, 639676, Note_on_c, 0, 45, 0
2, 639680, Note_on_c, 0, 52, 71
2, 639712, Note_on_c, 0, 57, 1
2, 639736, Note_on_c, 0, 52, 0
2, 639752, Note_on_c, 0, 57, 0
2, 639752, Note_on_c, 0, 60, 0
2, 639808, Note_on_c, 0, 47, 84
2, 639816, Note_on_c, 0, 35, 70
2, 639836, Note_on_c, 0, 79, 107
2, 639840, Note_on_c, 0, 67, 90
2, 639844, Note_on_c, 0, 74, 93
2, 639860, Note_on_c, 0, 47, 74
2, 639860, Note_on_c, 0, 59, 72
2, 639880, Control_c, 0, 64, 56
2, 639896, Note_on_c, 0, 55, 78
2, 639896, Control_c, 0, 64, 127
2, 639976, Note_on_c, 0, 55, 0
2, 639988, Note_on_c, 0, 62, 59
2, 640000, Note_on_c, 0, 67, 64
2, 640052, Note_on_c, 0, 62, 0
2, 640068, Note_on_c, 0, 67, 0
2, 640068, Note_on_c, 0, 55, 74
2, 640144, Note_on_c, 0, 55, 0
2, 640256, Note_on_c, 0, 55, 77
2, 640276, Note_on_c, 0, 47, 0
2, 640276, Note_on_c, 0, 47, 0
2, 640280, Note_on_c, 0, 74, 0
2, 640308, Note_on_c, 0, 79, 0
2, 640324, Note_on_c, 0, 55, 0
2, 640340, Note_on_c, 0, 67, 61
2, 640344, Note_on_c, 0, 62, 58
2, 640348, Note_on_c, 0, 67, 0
2, 640356, Note_on_c, 0, 59, 0
2, 640384, Note_on_c, 0, 35, 0
2, 640412, Note_on_c, 0, 62, 0
2, 640420, Note_on_c, 0, 67, 0
2, 640420, Note_on_c, 0, 55, 70
2, 640484, Note_on_c, 0, 55, 0
2, 640504, Note_on_c, 0, 48, 72
2, 640516, Note_on_c, 0, 36, 53
2, 640548, Note_on_c, 0, 76, 86
2, 640556, Note_on_c, 0, 67, 68
2, 640560, Note_on_c, 0, 48, 70
2, 640560, Note_on_c, 0, 72, 73
2, 640560, Note_on_c, 0, 60, 70
2, 640576, Control_c, 0, 64, 104
2, 640584, Note_on_c, 0, 48, 0
2, 640588, Note_on_c, 0, 60, 0
2, 640592, Note_on_c, 0, 72, 0
2, 640592, Control_c, 0, 64, 56
2, 640600, Note_on_c, 0, 55, 65
2, 640604, Control_c, 0, 64, 24
2, 640612, Note_on_c, 0, 67, 0
2, 640620, Note_on_c, 0, 76, 0
2, 640620, Control_c, 0, 64, 0
2, 640664, Note_on_c, 0, 55, 0
2, 640676, Note_on_c, 0, 64, 52
2, 640684, Note_on_c, 0, 60, 49
2, 640724, Note_on_c, 0, 60, 0
2, 640740, Note_on_c, 0, 64, 0
2, 640748, Note_on_c, 0, 55, 54
2, 640808, Note_on_c, 0, 55, 0
2, 640820, Note_on_c, 0, 48, 0
2, 640832, Note_on_c, 0, 36, 0
2, 640872, Note_on_c, 0, 38, 57
2, 640880, Note_on_c, 0, 74, 81
2, 640892, Note_on_c, 0, 71, 66
2, 640896, Note_on_c, 0, 65, 60
2, 640908, Note_on_c, 0, 50, 58
2, 640916, Note_on_c, 0, 62, 25
2, 640936, Note_on_c, 0, 50, 0
2, 640944, Note_on_c, 0, 65, 0
2, 640944, Note_on_c, 0, 62, 0
2, 640948, Note_on_c, 0, 71, 0
2, 640952, Note_on_c, 0, 53, 62
2, 640960, Note_on_c, 0, 74, 0
2, 641008, Note_on_c, 0, 53, 0
2, 641020, Note_on_c, 0, 62, 53
2, 641036, Note_on_c, 0, 59, 46
2, 641060, Note_on_c, 0, 59, 0
2, 641084, Note_on_c, 0, 38, 0
2, 641092, Note_on_c, 0, 53, 58
2, 641108, Note_on_c, 0, 62, 0
2, 641160, Note_on_c, 0, 53, 0
2, 641236, Note_on_c, 0, 59, 61
2, 641236, Note_on_c, 0, 52, 57
2, 641236, Note_on_c, 0, 71, 75
2, 641236, Note_on_c, 0, 68, 60
2, 641236, Note_on_c, 0, 64, 64
2, 641236, Note_on_c, 0, 40, 66
2, 641276, Note_on_c, 0, 52, 64
2, 641332, Note_on_c, 0, 52, 0
2, 641340, Note_on_c, 0, 52, 0
2, 641340, Note_on_c, 0, 71, 0
2, 641340, Note_on_c, 0, 59, 0
2, 641340, Note_on_c, 0, 68, 0
2, 641344, Note_on_c, 0, 64, 0
2, 641360, Note_on_c, 0, 59, 47
2, 641376, Note_on_c, 0, 56, 22
2, 641392, Note_on_c, 0, 40, 0
2, 641420, Note_on_c, 0, 59, 0
2, 641428, Note_on_c, 0, 56, 0
2, 641428, Note_on_c, 0, 52, 68
2, 641444, Note_on_c, 0, 45, 69
2, 641472, Note_on_c, 0, 45, 0
2, 641480, Note_on_c, 0, 52, 0
2, 641564, Note_on_c, 0, 48, 86
2, 641572, Note_on_c, 0, 36, 69
2, 641592, Note_on_c, 0, 88, 107
2, 641592, Note_on_c, 0, 79, 92
2, 641592, Note_on_c, 0, 76, 90
2, 641596, Control_c, 0, 64, 24
2, 641608, Control_c, 0, 64, 88
2, 641616, Note_on_c, 0, 60, 78
2, 641624, Note_on_c, 0, 64, 66
2, 641624, Control_c, 0, 64, 127
2, 641652, Note_on_c, 0, 55, 74
2, 641656, Note_on_c, 0, 64, 0
2, 641676, Note_on_c, 0, 60, 0
2, 641716, Note_on_c, 0, 55, 0
2, 641744, Note_on_c, 0, 60, 45
2, 641752, Note_on_c, 0, 88, 0
2, 641752, Note_on_c, 0, 64, 52
2, 641796, Note_on_c, 0, 76, 0
2, 641808, Note_on_c, 0, 79, 0
2, 641808, Note_on_c, 0, 55, 66
2, 641812, Note_on_c, 0, 60, 0
2, 641824, Note_on_c, 0, 64, 0
2, 641836, Note_on_c, 0, 48, 0
2, 641880, Note_on_c, 0, 55, 0
2, 641928, Note_on_c, 0, 48, 73
2, 641940, Note_on_c, 0, 86, 86
2, 641940, Note_on_c, 0, 62, 70
2, 641944, Note_on_c, 0, 55, 72
2, 641948, Note_on_c, 0, 74, 70
2, 641952, Note_on_c, 0, 79, 71
2, 641972, Note_on_c, 0, 62, 0
2, 641976, Note_on_c, 0, 55, 0
2, 641988, Note_on_c, 0, 79, 0
2, 642004, Note_on_c, 0, 74, 0
2, 642012, Note_on_c, 0, 86, 0
2, 642012, Note_on_c, 0, 55, 63
2, 642048, Control_c, 0, 64, 88
2, 642060, Note_on_c, 0, 55, 0
2, 642064, Control_c, 0, 64, 56
2, 642076, Control_c, 0, 64, 40
2, 642084, Note_on_c, 0, 65, 59
2, 642092, Note_on_c, 0, 62, 41
2, 642092, Control_c, 0, 64, 0
2, 642124, Note_on_c, 0, 62, 0
2, 642136, Note_on_c, 0, 48, 0
2, 642144, Note_on_c, 0, 65, 0
2, 642148, Note_on_c, 0, 55, 68
2, 642176, Note_on_c, 0, 84, 82
2, 642180, Note_on_c, 0, 72, 69
2, 642180, Note_on_c, 0, 60, 68
2, 642180, Note_on_c, 0, 52, 68
2, 642184, Note_on_c, 0, 79, 63
2, 642208, Note_on_c, 0, 79, 0
2, 642208, Note_on_c, 0, 72, 0
2, 642208, Note_on_c, 0, 52, 0
2, 642212, Note_on_c, 0, 55, 0
2, 642212, Note_on_c, 0, 60, 0
2, 642228, Note_on_c, 0, 84, 0
2, 642248, Note_on_c, 0, 48, 70
2, 642256, Note_on_c, 0, 72, 87
2, 642260, Note_on_c, 0, 84, 85
2, 642260, Note_on_c, 0, 79, 68
2, 642280, Note_on_c, 0, 52, 66
2, 642284, Note_on_c, 0, 60, 59
2, 642316, Note_on_c, 0, 79, 0
2, 642328, Note_on_c, 0, 72, 0
2, 642336, Note_on_c, 0, 55, 67
2, 642344, Note_on_c, 0, 52, 0
2, 642344, Note_on_c, 0, 84, 0
2, 642344, Note_on_c, 0, 60, 0
2, 642400, Note_on_c, 0, 55, 0
2, 642412, Note_on_c, 0, 64, 57
2, 642420, Note_on_c, 0, 60, 45
2, 642456, Note_on_c, 0, 48, 0
2, 642476, Note_on_c, 0, 60, 0
2, 642480, Note_on_c, 0, 64, 0
2, 642492, Note_on_c, 0, 55, 65
2, 642544, Note_on_c, 0, 55, 0
2, 642552, Note_on_c, 0, 48, 69
2, 642584, Note_on_c, 0, 55, 68
2, 642588, Note_on_c, 0, 62, 62
2, 642592, Note_on_c, 0, 86, 89
2, 642592, Note_on_c, 0, 74, 87
2, 642600, Note_on_c, 0, 79, 82
2, 642620, Note_on_c, 0, 62, 0
2, 642632, Note_on_c, 0, 55, 0
2, 642632, Note_on_c, 0, 55, 70
2, 642700, Note_on_c, 0, 55, 0
2, 642704, Note_on_c, 0, 74, 0
2, 642716, Note_on_c, 0, 65, 59
2, 642748, Note_on_c, 0, 86, 0
2, 642748, Note_on_c, 0, 62, 26
2, 642764, Note_on_c, 0, 79, 0
2, 642784, Note_on_c, 0, 62, 0
2, 642788, Note_on_c, 0, 48, 0
2, 642792, Note_on_c, 0, 65, 0
2, 642792, Note_on_c, 0, 55, 75
2, 642800, Note_on_c, 0, 48, 76
2, 642800, Control_c, 0, 64, 56
2, 642816, Control_c, 0, 64, 127
2, 642820, Note_on_c, 0, 36, 0
2, 642844, Note_on_c, 0, 48, 0
2, 642852, Note_on_c, 0, 55, 0
2, 642912, Note_on_c, 0, 48, 86
2, 642916, Note_on_c, 0, 36, 72
2, 642928, Note_on_c, 0, 88, 102
2, 642936, Note_on_c, 0, 79, 90
2, 642936, Note_on_c, 0, 76, 88
2, 642936, Note_on_c, 0, 60, 82
2, 642940, Note_on_c, 0, 64, 69
2, 642980, Note_on_c, 0, 64, 0
2, 642980, Note_on_c, 0, 60, 0
2, 643008, Note_on_c, 0, 55, 74
2, 643060, Note_on_c, 0, 88, 0
2, 643060, Note_on_c, 0, 76, 0
2, 643080, Note_on_c, 0, 79, 0
2, 643080, Note_on_c, 0, 55, 0
2, 643080, Note_on_c, 0, 64, 59
2, 643088, Note_on_c, 0, 60, 57
2, 643164, Note_on_c, 0, 60, 0
2, 643164, Note_on_c, 0, 64, 0
2, 643164, Note_on_c, 0, 48, 0
2, 643164, Note_on_c, 0, 55, 74
2, 643228, Note_on_c, 0, 55, 0
2, 643252, Note_on_c, 0, 48, 78
2, 643260, Note_on_c, 0, 86, 80
2, 643272, Note_on_c, 0, 74, 63
2, 643276, Note_on_c, 0, 62, 59
2, 643276, Control_c, 0, 64, 104
2, 643280, Note_on_c, 0, 55, 68
2, 643284, Note_on_c, 0, 79, 65
2, 643292, Control_c, 0, 64, 72
2, 643304, Control_c, 0, 64, 40
2, 643308, Note_on_c, 0, 62, 0
2, 643320, Note_on_c, 0, 55, 0
2, 643320, Control_c, 0, 64, 24
2, 643332, Note_on_c, 0, 86, 0
2, 643332, Control_c, 0, 64, 0
2, 643336, Note_on_c, 0, 55, 74
2, 643340, Note_on_c, 0, 74, 0
2, 643348, Note_on_c, 0, 79, 0
2, 643408, Note_on_c, 0, 55, 0
2, 643424, Note_on_c, 0, 65, 64
2, 643432, Note_on_c, 0, 62, 51
2, 643472, Note_on_c, 0, 48, 0
2, 643496, Note_on_c, 0, 62, 0
2, 643496, Note_on_c, 0, 65, 0
2, 643500, Note_on_c, 0, 55, 68
2, 643512, Note_on_c, 0, 84, 76
2, 643516, Note_on_c, 0, 79, 63
2, 643516, Note_on_c, 0, 60, 64
2, 643520, Note_on_c, 0, 72, 61
2, 643528, Note_on_c, 0, 52, 54
2, 643536, Note_on_c, 0, 84, 0
2, 643540, Note_on_c, 0, 79, 0
2, 643544, Note_on_c, 0, 60, 0
2, 643548, Note_on_c, 0, 72, 0
2, 643552, Note_on_c, 0, 55, 0
2, 643552, Note_on_c, 0, 52, 0
2, 643572, Note_on_c, 0, 48, 77
2, 643592, Note_on_c, 0, 84, 89
2, 643592, Note_on_c, 0, 79, 71
2, 643596, Note_on_c, 0, 72, 80
2, 643608, Note_on_c, 0, 60, 64
2, 643608, Note_on_c, 0, 52, 49
2, 643640, Note_on_c, 0, 55, 74
2, 643652, Note_on_c, 0, 72, 0
2, 643660, Note_on_c, 0, 79, 0
2, 643664, Note_on_c, 0, 60, 0
2, 643664, Note_on_c, 0, 52, 0
2, 643668, Note_on_c, 0, 84, 0
2, 643708, Note_on_c, 0, 55, 0
2, 643712, Note_on_c, 0, 36, 0
2, 643736, Note_on_c, 0, 64, 62
2, 643736, Note_on_c, 0, 60, 54
2, 643748, Note_on_c, 0, 48, 0
2, 643808, Note_on_c, 0, 60, 0
2, 643808, Note_on_c, 0, 64, 0
2, 643808, Note_on_c, 0, 55, 77
2, 643860, Note_on_c, 0, 55, 0
2, 643912, Note_on_c, 0, 51, 82
2, 643916, Note_on_c, 0, 39, 65
2, 643928, Note_on_c, 0, 83, 93
2, 643936, Note_on_c, 0, 71, 82
2, 643936, Note_on_c, 0, 78, 77
2, 643948, Note_on_c, 0, 51, 64
2, 643948, Control_c, 0, 64, 24
2, 643956, Note_on_c, 0, 59, 56
2, 643960, Control_c, 0, 64, 88
2, 643976, Control_c, 0, 64, 127
2, 644004, Note_on_c, 0, 59, 74
2, 644088, Note_on_c, 0, 59, 0
2, 644096, Note_on_c, 0, 66, 53
2, 644104, Note_on_c, 0, 51, 0
2, 644108, Note_on_c, 0, 71, 71
2, 644160, Note_on_c, 0, 78, 0
2, 644172, Note_on_c, 0, 66, 0
2, 644172, Note_on_c, 0, 59, 70
2, 644184, Note_on_c, 0, 71, 0
2, 644196, Note_on_c, 0, 51, 0
2, 644232, Note_on_c, 0, 39, 0
2, 644248, Note_on_c, 0, 59, 0
2, 644256, Note_on_c, 0, 50, 82
2, 644264, Note_on_c, 0, 38, 66
2, 644280, Note_on_c, 0, 80, 86
2, 644284, Note_on_c, 0, 50, 70
2, 644324, Note_on_c, 0, 83, 0
2, 644336, Note_on_c, 0, 59, 70
2, 644340, Note_on_c, 0, 50, 0
2, 644344, Note_on_c, 0, 59, 0
2, 644348, Note_on_c, 0, 71, 0
2, 644368, Note_on_c, 0, 80, 0
2, 644392, Control_c, 0, 64, 104
2, 644404, Control_c, 0, 64, 72
2, 644416, Note_on_c, 0, 59, 0
2, 644420, Control_c, 0, 64, 40
2, 644432, Note_on_c, 0, 68, 60
2, 644432, Control_c, 0, 64, 0
2, 644436, Note_on_c, 0, 64, 58
2, 644472, Note_on_c, 0, 64, 0
2, 644488, Note_on_c, 0, 38, 0
2, 644492, Note_on_c, 0, 50, 0
2, 644508, Note_on_c, 0, 59, 72
2, 644524, Note_on_c, 0, 68, 0
2, 644580, Note_on_c, 0, 59, 0
2, 644604, Note_on_c, 0, 48, 78
2, 644604, Note_on_c, 0, 36, 69
2, 644620, Note_on_c, 0, 81, 84
2, 644624, Note_on_c, 0, 69, 77
2, 644628, Note_on_c, 0, 76, 81
2, 644636, Note_on_c, 0, 48, 69
2, 644636, Note_on_c, 0, 57, 67
2, 644664, Note_on_c, 0, 48, 0
2, 644688, Note_on_c, 0, 57, 0
2, 644692, Note_on_c, 0, 57, 55
2, 644728, Note_on_c, 0, 76, 0
2, 644736, Note_on_c, 0, 81, 0
2, 644768, Note_on_c, 0, 69, 0
2, 644772, Note_on_c, 0, 57, 0
2, 644776, Note_on_c, 0, 36, 0
2, 644788, Note_on_c, 0, 64, 58
2, 644792, Note_on_c, 0, 69, 63
2, 644828, Note_on_c, 0, 48, 0
2, 644852, Note_on_c, 0, 64, 0
2, 644868, Note_on_c, 0, 69, 0
2, 644880, Note_on_c, 0, 57, 62
2, 644948, Note_on_c, 0, 57, 0
2, 644948, Note_on_c, 0, 50, 71
2, 644956, Note_on_c, 0, 38, 61
2, 644968, Note_on_c, 0, 77, 90
2, 644980, Note_on_c, 0, 74, 78
2, 644980, Note_on_c, 0, 62, 69
2, 644980, Note_on_c, 0, 69, 74
2, 644980, Note_on_c, 0, 50, 72
2, 645036, Note_on_c, 0, 50, 0
2, 645040, Note_on_c, 0, 74, 0
2, 645040, Note_on_c, 0, 62, 0
2, 645052, Note_on_c, 0, 69, 0
2, 645060, Note_on_c, 0, 57, 63
2, 645068, Note_on_c, 0, 77, 0
2, 645096, Note_on_c, 0, 38, 0
2, 645128, Note_on_c, 0, 57, 0
2, 645136, Note_on_c, 0, 65, 56
2, 645144, Note_on_c, 0, 62, 54
2, 645160, Note_on_c, 0, 50, 0
2, 645172, Note_on_c, 0, 62, 0
2, 645192, Note_on_c, 0, 57, 45
2, 645204, Note_on_c, 0, 65, 0
2, 645264, Note_on_c, 0, 57, 0
2, 645296, Note_on_c, 0, 52, 77
2, 645300, Note_on_c, 0, 40, 62
2, 645336, Note_on_c, 0, 76, 88
2, 645336, Note_on_c, 0, 68, 69
2, 645336, Control_c, 0, 64, 40
2, 645340, Note_on_c, 0, 71, 74
2, 645352, Note_on_c, 0, 64, 66
2, 645352, Note_on_c, 0, 59, 69
2, 645352, Note_on_c, 0, 52, 66
2, 645356, Control_c, 0, 64, 104
2, 645364, Control_c, 0, 64, 127
2, 645396, Note_on_c, 0, 52, 0
2, 645396, Note_on_c, 0, 56, 65
2, 645400, Note_on_c, 0, 59, 0
2, 645400, Note_on_c, 0, 64, 0
2, 645400, Note_on_c, 0, 71, 0
2, 645404, Note_on_c, 0, 68, 0
2, 645404, Note_on_c, 0, 52, 0
2, 645432, Note_on_c, 0, 76, 0
2, 645436, Note_on_c, 0, 40, 0
2, 645468, Note_on_c, 0, 56, 0
2, 645480, Note_on_c, 0, 64, 68
2, 645488, Note_on_c, 0, 59, 52
2, 645520, Control_c, 0, 64, 104
2, 645536, Note_on_c, 0, 59, 0
2, 645536, Control_c, 0, 64, 72
2, 645548, Note_on_c, 0, 56, 69
2, 645552, Control_c, 0, 64, 56
2, 645556, Note_on_c, 0, 64, 0
2, 645564, Control_c, 0, 64, 24
2, 645580, Control_c, 0, 64, 0
2, 645608, Note_on_c, 0, 56, 0
2, 645656, Note_on_c, 0, 45, 78
2, 645660, Note_on_c, 0, 33, 63
2, 645688, Note_on_c, 0, 81, 90
2, 645696, Note_on_c, 0, 69, 79
2, 645696, Note_on_c, 0, 60, 74
2, 645700, Note_on_c, 0, 72, 84
2, 645704, Note_on_c, 0, 57, 62
2, 645704, Control_c, 0, 64, 56
2, 645716, Control_c, 0, 64, 127
2, 645748, Note_on_c, 0, 60, 0
2, 645748, Note_on_c, 0, 52, 72
2, 645760, Note_on_c, 0, 57, 0
2, 645840, Note_on_c, 0, 57, 59
2, 645848, Note_on_c, 0, 52, 0
2, 645924, Note_on_c, 0, 60, 64
2, 645928, Note_on_c, 0, 57, 0
2, 646000, Note_on_c, 0, 60, 0
2, 646012, Note_on_c, 0, 64, 70
2, 646016, Note_on_c, 0, 52, 72
2, 646020, Note_on_c, 0, 59, 65
2, 646064, Control_c, 0, 64, 104
2, 646068, Note_on_c, 0, 59, 0
2, 646068, Note_on_c, 0, 52, 0
2, 646080, Note_on_c, 0, 60, 59
2, 646080, Control_c, 0, 64, 72
2, 646092, Control_c, 0, 64, 56
2, 646096, Note_on_c, 0, 64, 0
2, 646108, Control_c, 0, 64, 40
2, 646120, Control_c, 0, 64, 24
2, 646136, Note_on_c, 0, 57, 60
2, 646136, Control_c, 0, 64, 0
2, 646168, Note_on_c, 0, 60, 0
2, 646208, Note_on_c, 0, 57, 0
2, 646220, Note_on_c, 0, 52, 62
2, 646244, Note_on_c, 0, 45, 0
2, 646260, Note_on_c, 0, 52, 0
2, 646268, Note_on_c, 0, 57, 66
2, 646268, Note_on_c, 0, 48, 69
2, 646272, Note_on_c, 0, 33, 0
2, 646300, Note_on_c, 0, 48, 0
2, 646316, Note_on_c, 0, 57, 0
2, 646384, Note_on_c, 0, 45, 83
2, 646392, Note_on_c, 0, 33, 61
2, 646396, Note_on_c, 0, 91, 99
2, 646404, Note_on_c, 0, 79, 89
2, 646404, Note_on_c, 0, 88, 88
2, 646432, Note_on_c, 0, 72, 0
2, 646436, Note_on_c, 0, 69, 0
2, 646436, Control_c, 0, 64, 104
2, 646448, Control_c, 0, 64, 127
2, 646452, Note_on_c, 0, 88, 0
2, 646456, Note_on_c, 0, 81, 0
2, 646464, Note_on_c, 0, 79, 0
2, 646472, Note_on_c, 0, 91, 0
2, 646484, Note_on_c, 0, 55, 66
2, 646540, Note_on_c, 0, 58, 53
2, 646560, Note_on_c, 0, 33, 0
2, 646576, Note_on_c, 0, 55, 0
2, 646580, Note_on_c, 0, 45, 0
2, 646604, Note_on_c, 0, 61, 54
2, 646628, Note_on_c, 0, 58, 0
2, 646636, Note_on_c, 0, 64, 66
2, 646684, Note_on_c, 0, 61, 0
2, 646692, Note_on_c, 0, 67, 73
2, 646708, Note_on_c, 0, 64, 0
2, 646724, Note_on_c, 0, 89, 93
2, 646728, Note_on_c, 0, 77, 86
2, 646728, Note_on_c, 0, 86, 83
2, 646736, Note_on_c, 0, 57, 54
2, 646736, Note_on_c, 0, 70, 89
2, 646740, Note_on_c, 0, 45, 61
2, 646760, Note_on_c, 0, 67, 0
2, 646768, Note_on_c, 0, 70, 0
2, 646772, Note_on_c, 0, 86, 0
2, 646776, Note_on_c, 0, 77, 0
2, 646784, Note_on_c, 0, 89, 0
2, 646784, Note_on_c, 0, 57, 0
2, 646792, Note_on_c, 0, 45, 0
2, 646800, Note_on_c, 0, 64, 62
2, 646856, Note_on_c, 0, 61, 67
2, 646868, Note_on_c, 0, 64, 0
2, 646912, Note_on_c, 0, 58, 59
2, 646936, Note_on_c, 0, 61, 0
2, 646956, Note_on_c, 0, 57, 64
2, 646956, Note_on_c, 0, 85, 77
2, 646968, Note_on_c, 0, 76, 62
2, 646972, Note_on_c, 0, 88, 94
2, 646972, Note_on_c, 0, 55, 62
2, 646976, Note_on_c, 0, 58, 0
2, 646996, Note_on_c, 0, 57, 0
2, 647004, Note_on_c, 0, 85, 0
2, 647008, Note_on_c, 0, 76, 0
2, 647012, Note_on_c, 0, 88, 0
2, 647028, Note_on_c, 0, 55, 0
2, 647056, Note_on_c, 0, 45, 81
2, 647064, Note_on_c, 0, 33, 60
2, 647068, Note_on_c, 0, 77, 97
2, 647068, Note_on_c, 0, 86, 94
2, 647072, Note_on_c, 0, 89, 100
2, 647072, Control_c, 0, 64, 104
2, 647088, Control_c, 0, 64, 56
2, 647100, Note_on_c, 0, 65, 64
2, 647100, Control_c, 0, 64, 0
2, 647104, Note_on_c, 0, 62, 67
2, 647160, Note_on_c, 0, 53, 60
2, 647184, Control_c, 0, 64, 104
2, 647192, Note_on_c, 0, 65, 0
2, 647196, Control_c, 0, 64, 127
2, 647232, Note_on_c, 0, 57, 64
2, 647252, Note_on_c, 0, 62, 0
2, 647260, Note_on_c, 0, 53, 0
2, 647316, Note_on_c, 0, 62, 66
2, 647320, Note_on_c, 0, 57, 0
2, 647408, Note_on_c, 0, 65, 85
2, 647412, Note_on_c, 0, 64, 68
2, 647412, Note_on_c, 0, 57, 66
2, 647424, Note_on_c, 0, 62, 0
2, 647432, Note_on_c, 0, 89, 0
2, 647436, Note_on_c, 0, 86, 0
2, 647460, Note_on_c, 0, 77, 0
2, 647492, Note_on_c, 0, 65, 0
2, 647500, Note_on_c, 0, 62, 76
2, 647548, Note_on_c, 0, 64, 0
2, 647564, Note_on_c, 0, 57, 0
2, 647596, Note_on_c, 0, 57, 79
2, 647604, Note_on_c, 0, 62, 0
2, 647640, Note_on_c, 0, 45, 0
2, 647640, Note_on_c, 0, 33, 0
2, 647652, Note_on_c, 0, 53, 62
2, 647652, Note_on_c, 0, 62, 60
2, 647676, Note_on_c, 0, 57, 0
2, 647680, Note_on_c, 0, 53, 76
2, 647704, Note_on_c, 0, 53, 0
2, 647712, Control_c, 0, 64, 56
2, 647724, Note_on_c, 0, 62, 0
2, 647724, Control_c, 0, 64, 0
2, 647744, Note_on_c, 0, 53, 0
2, 647752, Note_on_c, 0, 86, 93
2, 647756, Note_on_c, 0, 74, 88
2, 647756, Note_on_c, 0, 83, 87
2, 647760, Note_on_c, 0, 62, 74
2, 647768, Note_on_c, 0, 59, 65
2, 647772, Note_on_c, 0, 45, 79
2, 647780, Note_on_c, 0, 33, 60
2, 647792, Control_c, 0, 64, 40
2, 647800, Note_on_c, 0, 62, 0
2, 647808, Note_on_c, 0, 83, 0
2, 647808, Note_on_c, 0, 74, 0
2, 647808, Control_c, 0, 64, 127
2, 647816, Note_on_c, 0, 59, 0
2, 647820, Note_on_c, 0, 86, 0
2, 647892, Note_on_c, 0, 53, 70
2, 647960, Note_on_c, 0, 56, 61
2, 647988, Note_on_c, 0, 53, 0
2, 648048, Note_on_c, 0, 59, 64
2, 648052, Note_on_c, 0, 56, 0
2, 648076, Note_on_c, 0, 84, 85
2, 648080, Note_on_c, 0, 72, 85
2, 648080, Note_on_c, 0, 81, 72
2, 648088, Note_on_c, 0, 57, 59
2, 648100, Note_on_c, 0, 45, 53
2, 648120, Note_on_c, 0, 81, 0
2, 648120, Note_on_c, 0, 84, 0
2, 648124, Note_on_c, 0, 59, 0
2, 648128, Note_on_c, 0, 45, 0
2, 648128, Note_on_c, 0, 72, 0
2, 648128, Note_on_c, 0, 62, 79
2, 648136, Note_on_c, 0, 57, 0
2, 648208, Note_on_c, 0, 62, 0
2, 648212, Note_on_c, 0, 59, 68
2, 648276, Note_on_c, 0, 56, 60
2, 648304, Note_on_c, 0, 59, 0
2, 648324, Note_on_c, 0, 80, 78
2, 648324, Note_on_c, 0, 83, 90
2, 648328, Note_on_c, 0, 71, 75
2, 648328, Note_on_c, 0, 45, 63
2, 648336, Note_on_c, 0, 56, 0
2, 648340, Note_on_c, 0, 57, 63
2, 648352, Note_on_c, 0, 45, 0
2, 648352, Note_on_c, 0, 53, 66
2, 648356, Note_on_c, 0, 45, 0
2, 648360, Note_on_c, 0, 33, 0
2, 648360, Note_on_c, 0, 71, 0
2, 648368, Note_on_c, 0, 83, 0
2, 648368, Note_on_c, 0, 80, 0
2, 648368, Note_on_c, 0, 57, 0
2, 648400, Control_c, 0, 64, 104
2, 648412, Note_on_c, 0, 53, 0
2, 648416, Control_c, 0, 64, 40
2, 648424, Note_on_c, 0, 84, 93
2, 648424, Note_on_c, 0, 72, 91
2, 648424, Note_on_c, 0, 81, 88
2, 648432, Note_on_c, 0, 45, 80
2, 648432, Control_c, 0, 64, 0
2, 648440, Note_on_c, 0, 33, 60
2, 648444, Note_on_c, 0, 60, 73
2, 648448, Note_on_c, 0, 57, 73
2, 648524, Control_c, 0, 64, 72
2, 648528, Note_on_c, 0, 52, 63
2, 648536, Control_c, 0, 64, 127
2, 648548, Note_on_c, 0, 60, 0
2, 648572, Note_on_c, 0, 57, 0
2, 648612, Note_on_c, 0, 57, 54
2, 648620, Note_on_c, 0, 52, 0
2, 648684, Note_on_c, 0, 60, 63
2, 648692, Note_on_c, 0, 57, 0
2, 648768, Note_on_c, 0, 60, 0
2, 648768, Note_on_c, 0, 64, 68
2, 648772, Note_on_c, 0, 59, 63
2, 648772, Note_on_c, 0, 52, 70
2, 648792, Note_on_c, 0, 72, 0
2, 648820, Note_on_c, 0, 81, 0
2, 648840, Note_on_c, 0, 64, 0
2, 648844, Note_on_c, 0, 84, 0
2, 648844, Note_on_c, 0, 60, 60
2, 648920, Note_on_c, 0, 59, 0
2, 648920, Note_on_c, 0, 57, 61
2, 648924, Note_on_c, 0, 60, 0
2, 648932, Note_on_c, 0, 52, 0
2, 648980, Note_on_c, 0, 57, 0
2, 648988, Note_on_c, 0, 52, 68
2, 649008, Note_on_c, 0, 48, 62
2, 649008, Note_on_c, 0, 57, 62
2, 649012, Note_on_c, 0, 45, 0
2, 649024, Note_on_c, 0, 33, 0
2, 649032, Note_on_c, 0, 52, 0
2, 649064, Note_on_c, 0, 57, 0
2, 649068, Note_on_c, 0, 48, 0
2, 649092, Note_on_c, 0, 45, 76
2, 649092, Note_on_c, 0, 33, 58
2, 649108, Control_c, 0, 64, 88
2, 649120, Control_c, 0, 64, 40
2, 649136, Control_c, 0, 64, 0
2, 649140, Note_on_c, 0, 91, 100
2, 649148, Note_on_c, 0, 79, 94
2, 649148, Note_on_c, 0, 88, 86
2, 649176, Note_on_c, 0, 55, 64
2, 649204, Control_c, 0, 64, 56
2, 649216, Control_c, 0, 64, 127
2, 649224, Note_on_c, 0, 58, 56
2, 649232, Note_on_c, 0, 88, 0
2, 649236, Note_on_c, 0, 91, 0
2, 649244, Note_on_c, 0, 33, 0
2, 649252, Note_on_c, 0, 79, 0
2, 649252, Note_on_c, 0, 55, 0
2, 649272, Note_on_c, 0, 45, 0
2, 649288, Note_on_c, 0, 61, 48
2, 649312, Note_on_c, 0, 58, 0
2, 649336, Note_on_c, 0, 64, 51
2, 649364, Note_on_c, 0, 61, 0
2, 649396, Note_on_c, 0, 67, 53
2, 649400, Note_on_c, 0, 64, 0
2, 649404, Note_on_c, 0, 65, 56
2, 649424, Note_on_c, 0, 65, 0
2, 649444, Note_on_c, 0, 67, 0
2, 649464, Note_on_c, 0, 89, 94
2, 649464, Note_on_c, 0, 70, 82
2, 649468, Note_on_c, 0, 86, 82
2, 649472, Note_on_c, 0, 77, 86
2, 649488, Note_on_c, 0, 45, 64
2, 649492, Note_on_c, 0, 57, 57
2, 649516, Note_on_c, 0, 45, 0
2, 649516, Note_on_c, 0, 86, 0
2, 649524, Note_on_c, 0, 70, 0
2, 649532, Note_on_c, 0, 57, 0
2, 649536, Note_on_c, 0, 89, 0
2, 649540, Note_on_c, 0, 77, 0
2, 649544, Note_on_c, 0, 67, 44
2, 649556, Note_on_c, 0, 64, 63
2, 649572, Note_on_c, 0, 67, 0
2, 649616, Note_on_c, 0, 61, 60
2, 649640, Note_on_c, 0, 64, 0
2, 649680, Note_on_c, 0, 58, 54
2, 649692, Note_on_c, 0, 61, 0
2, 649704, Note_on_c, 0, 85, 81
2, 649708, Note_on_c, 0, 88, 90
2, 649712, Note_on_c, 0, 76, 76
2, 649712, Note_on_c, 0, 57, 53
2, 649720, Note_on_c, 0, 58, 0
2, 649724, Note_on_c, 0, 55, 60
2, 649736, Note_on_c, 0, 57, 0
2, 649736, Note_on_c, 0, 77, 32
2, 649744, Note_on_c, 0, 76, 0
2, 649756, Note_on_c, 0, 85, 0
2, 649760, Note_on_c, 0, 77, 0
2, 649760, Note_on_c, 0, 88, 0
2, 649772, Note_on_c, 0, 55, 0
2, 649796, Control_c, 0, 64, 72
2, 649800, Note_on_c, 0, 45, 68
2, 649812, Note_on_c, 0, 89, 107
2, 649812, Note_on_c, 0, 86, 97
2, 649812, Note_on_c, 0, 77, 107
2, 649816, Note_on_c, 0, 33, 43
2, 649816, Control_c, 0, 64, 0
2, 649836, Note_on_c, 0, 62, 68
2, 649848, Note_on_c, 0, 65, 62
2, 649888, Note_on_c, 0, 65, 0
2, 649892, Note_on_c, 0, 53, 62
2, 649892, Control_c, 0, 64, 56
2, 649908, Control_c, 0, 64, 127
2, 649968, Note_on_c, 0, 57, 61
2, 649976, Note_on_c, 0, 53, 0
2, 650012, Note_on_c, 0, 62, 0
2, 650032, Note_on_c, 0, 57, 0
2, 650036, Note_on_c, 0, 62, 65
2, 650124, Note_on_c, 0, 62, 0
2, 650132, Note_on_c, 0, 65, 73
2, 650164, Note_on_c, 0, 64, 63
2, 650164, Note_on_c, 0, 57, 63
2, 650188, Note_on_c, 0, 89, 0
2, 650200, Note_on_c, 0, 86, 0
2, 650220, Note_on_c, 0, 65, 0
2, 650220, Note_on_c, 0, 62, 62
2, 650232, Note_on_c, 0, 77, 0
2, 650312, Note_on_c, 0, 62, 0
2, 650312, Note_on_c, 0, 57, 64
2, 650320, Note_on_c, 0, 64, 0
2, 650328, Note_on_c, 0, 57, 0
2, 650380, Note_on_c, 0, 57, 0
2, 650380, Note_on_c, 0, 45, 0
2, 650396, Note_on_c, 0, 53, 63
2, 650408, Note_on_c, 0, 33, 0
2, 650412, Note_on_c, 0, 62, 59
2, 650412, Note_on_c, 0, 53, 63
2, 650456, Note_on_c, 0, 53, 0
2, 650460, Note_on_c, 0, 62, 0
2, 650460, Note_on_c, 0, 53, 0
2, 650492, Control_c, 0, 64, 104
2, 650504, Control_c, 0, 64, 24
2, 650508, Note_on_c, 0, 45, 81
2, 650516, Note_on_c, 0, 33, 58
2, 650516, Control_c, 0, 64, 0
2, 650520, Note_on_c, 0, 86, 96
2, 650524, Note_on_c, 0, 74, 94
2, 650528, Note_on_c, 0, 62, 63
2, 650528, Note_on_c, 0, 83, 85
2, 650544, Note_on_c, 0, 59, 61
2, 650564, Note_on_c, 0, 62, 0
2, 650576, Note_on_c, 0, 59, 0
2, 650584, Control_c, 0, 64, 56
2, 650592, Note_on_c, 0, 74, 0
2, 650600, Control_c, 0, 64, 0
2, 650608, Note_on_c, 0, 83, 0
2, 650616, Note_on_c, 0, 86, 0
2, 650624, Note_on_c, 0, 53, 62
2, 650700, Note_on_c, 0, 56, 61
2, 650736, Note_on_c, 0, 53, 0
2, 650792, Note_on_c, 0, 56, 0
2, 650800, Note_on_c, 0, 59, 60
2, 650848, Note_on_c, 0, 84, 87
2, 650852, Note_on_c, 0, 72, 80
2, 650852, Note_on_c, 0, 81, 78
2, 650864, Note_on_c, 0, 57, 64
2, 650872, Note_on_c, 0, 45, 65
2, 650884, Note_on_c, 0, 59, 0
2, 650892, Note_on_c, 0, 62, 76
2, 650904, Note_on_c, 0, 81, 0
2, 650912, Note_on_c, 0, 72, 0
2, 650920, Note_on_c, 0, 45, 0
2, 650924, Note_on_c, 0, 84, 0
2, 650928, Note_on_c, 0, 57, 0
2, 650988, Note_on_c, 0, 62, 0
2, 650992, Note_on_c, 0, 59, 55
2, 651040, Note_on_c, 0, 56, 54
2, 651076, Note_on_c, 0, 33, 0
2, 651080, Note_on_c, 0, 59, 0
2, 651092, Note_on_c, 0, 45, 0
2, 651100, Note_on_c, 0, 56, 0
2, 651104, Note_on_c, 0, 83, 90
2, 651104, Note_on_c, 0, 71, 75
2, 651104, Note_on_c, 0, 80, 75
2, 651104, Note_on_c, 0, 57, 64
2, 651104, Note_on_c, 0, 45, 67
2, 651104, Note_on_c, 0, 53, 68
2, 651152, Note_on_c, 0, 53, 0
2, 651152, Note_on_c, 0, 71, 0
2, 651152, Note_on_c, 0, 80, 0
2, 651152, Note_on_c, 0, 57, 0
2, 651152, Note_on_c, 0, 45, 0
2, 651156, Note_on_c, 0, 83, 0
2, 651216, Note_on_c, 0, 60, 105
2, 651216, Note_on_c, 0, 36, 61
2, 651216, Note_on_c, 0, 48, 74
2, 651216, Note_on_c, 0, 84, 83
2, 651216, Note_on_c, 0, 81, 77
2, 651216, Note_on_c, 0, 72, 80
2, 651216, Note_on_c, 0, 57, 73
2, 651272, Control_c, 0, 64, 24
2, 651280, Note_on_c, 0, 57, 0
2, 651280, Note_on_c, 0, 81, 0
2, 651280, Note_on_c, 0, 72, 0
2, 651280, Control_c, 0, 64, 88
2, 651288, Control_c, 0, 64, 127
2, 651320, Note_on_c, 0, 84, 0
2, 651404, Note_on_c, 0, 48, 0
2, 651404, Note_on_c, 0, 36, 0
2, 651420, Note_on_c, 0, 60, 0
2, 651452, Note_on_c, 0, 62, 74
2, 651500, Note_on_c, 0, 60, 87
2, 651520, Note_on_c, 0, 62, 0
2, 651552, Control_c, 0, 64, 104
2, 651560, Note_on_c, 0, 59, 92
2, 651560, Note_on_c, 0, 47, 83
2, 651560, Control_c, 0, 64, 56
2, 651564, Note_on_c, 0, 60, 0
2, 651564, Note_on_c, 0, 35, 71
2, 651572, Control_c, 0, 64, 24
2, 651584, Control_c, 0, 64, 0
2, 651592, Note_on_c, 0, 35, 0
2, 651604, Note_on_c, 0, 47, 0
2, 651788, Note_on_c, 0, 59, 0
2, 651800, Note_on_c, 0, 45, 81
2, 651800, Note_on_c, 0, 57, 82
2, 651804, Note_on_c, 0, 33, 63
2, 651820, Note_on_c, 0, 45, 0
2, 651832, Note_on_c, 0, 33, 0
2, 651860, Note_on_c, 0, 57, 0
2, 651900, Note_on_c, 0, 55, 109
2, 651908, Note_on_c, 0, 43, 81
2, 651916, Note_on_c, 0, 31, 74
2, 651964, Control_c, 0, 64, 24
2, 651976, Control_c, 0, 64, 104
2, 651988, Control_c, 0, 64, 127
2, 652068, Note_on_c, 0, 55, 0
2, 652100, Note_on_c, 0, 31, 0
2, 652112, Note_on_c, 0, 57, 59
2, 652124, Note_on_c, 0, 43, 0
2, 652164, Note_on_c, 0, 55, 80
2, 652184, Note_on_c, 0, 57, 0
2, 652216, Note_on_c, 0, 55, 0
2, 652220, Note_on_c, 0, 53, 88
2, 652236, Note_on_c, 0, 29, 70
2, 652236, Note_on_c, 0, 41, 81
2, 652236, Control_c, 0, 64, 72
2, 652248, Control_c, 0, 64, 40
2, 652256, Control_c, 0, 64, 0
2, 652272, Note_on_c, 0, 41, 0
2, 652276, Note_on_c, 0, 29, 0
2, 652280, Note_on_c, 0, 53, 0
2, 652456, Note_on_c, 0, 52, 59
2, 652460, Note_on_c, 0, 40, 54
2, 652480, Note_on_c, 0, 28, 30
2, 652488, Note_on_c, 0, 40, 0
2, 652500, Note_on_c, 0, 28, 0
2, 652524, Note_on_c, 0, 52, 0
2, 652568, Note_on_c, 0, 51, 90
2, 652572, Note_on_c, 0, 39, 82
2, 652580, Note_on_c, 0, 27, 74
2, 652624, Control_c, 0, 64, 88
2, 652636, Control_c, 0, 64, 127
2, 652668, Note_on_c, 0, 54, 76
2, 652684, Note_on_c, 0, 51, 0
2, 652716, Note_on_c, 0, 54, 0
2, 652772, Note_on_c, 0, 57, 71
2, 652852, Note_on_c, 0, 57, 0
2, 652880, Note_on_c, 0, 60, 87
2, 652880, Note_on_c, 0, 78, 90
2, 652880, Note_on_c, 0, 66, 86
2, 652880, Note_on_c, 0, 72, 86
2, 652880, Note_on_c, 0, 69, 86
2, 652880, Note_on_c, 0, 51, 76
2, 652880, Note_on_c, 0, 39, 80
2, 652944, Note_on_c, 0, 39, 0
2, 652944, Note_on_c, 0, 78, 0
2, 652944, Note_on_c, 0, 51, 0
2, 652944, Note_on_c, 0, 66, 0
2, 652944, Note_on_c, 0, 69, 0
2, 652944, Note_on_c, 0, 72, 0
2, 652964, Note_on_c, 0, 60, 0
2, 652980, Note_on_c, 0, 66, 75
2, 653068, Note_on_c, 0, 66, 0
2, 653072, Note_on_c, 0, 69, 82
2, 653120, Note_on_c, 0, 27, 0
2, 653120, Note_on_c, 0, 39, 0
2, 653128, Note_on_c, 0, 69, 0
2, 653196, Note_on_c, 0, 38, 79
2, 653196, Note_on_c, 0, 26, 71
2, 653196, Note_on_c, 0, 52, 88
2, 653236, Control_c, 0, 64, 56
2, 653244, Control_c, 0, 64, 0
2, 653300, Note_on_c, 0, 56, 78
2, 653328, Note_on_c, 0, 52, 0
2, 653340, Control_c, 0, 64, 88
2, 653352, Control_c, 0, 64, 127
2, 653408, Note_on_c, 0, 59, 77
2, 653420, Note_on_c, 0, 56, 0
2, 653448, Note_on_c, 0, 59, 0
2, 653516, Note_on_c, 0, 64, 85
2, 653516, Note_on_c, 0, 80, 90
2, 653516, Note_on_c, 0, 68, 80
2, 653516, Note_on_c, 0, 76, 80
2, 653516, Note_on_c, 0, 71, 80
2, 653516, Note_on_c, 0, 38, 80
2, 653516, Note_on_c, 0, 50, 85
2, 653580, Note_on_c, 0, 50, 0
2, 653580, Note_on_c, 0, 80, 0
2, 653580, Note_on_c, 0, 38, 0
2, 653580, Note_on_c, 0, 68, 0
2, 653580, Note_on_c, 0, 71, 0
2, 653580, Note_on_c, 0, 76, 0
2, 653620, Note_on_c, 0, 68, 75
2, 653652, Note_on_c, 0, 64, 0
2, 653704, Note_on_c, 0, 68, 0
2, 653716, Note_on_c, 0, 71, 93
2, 653728, Note_on_c, 0, 26, 0
2, 653736, Note_on_c, 0, 38, 0
2, 653768, Note_on_c, 0, 71, 0
2, 653808, Note_on_c, 0, 64, 87
2, 653828, Control_c, 0, 64, 56
2, 653840, Control_c, 0, 64, 0
2, 653872, Note_on_c, 0, 36, 84
2, 653872, Note_on_c, 0, 24, 81
2, 653872, Note_on_c, 0, 76, 103
2, 653904, Note_on_c, 0, 64, 0
2, 653908, Note_on_c, 0, 36, 0
2, 653912, Note_on_c, 0, 24, 0
2, 653932, Note_on_c, 0, 76, 0
2, 654016, Control_c, 0, 64, 40
2, 654024, Control_c, 0, 64, 56
2, 654036, Control_c, 0, 64, 72
2, 654048, Control_c, 0, 64, 88
2, 654076, Control_c, 0, 64, 104
2, 654104, Note_on_c, 0, 74, 94
2, 654104, Note_on_c, 0, 86, 96
2, 654104, Note_on_c, 0, 83, 90
2, 654104, Note_on_c, 0, 77, 90
2, 654104, Note_on_c, 0, 50, 80
2, 654108, Note_on_c, 0, 71, 79
2, 654116, Note_on_c, 0, 65, 45
2, 654116, Note_on_c, 0, 38, 72
2, 654124, Note_on_c, 0, 26, 63
2, 654128, Note_on_c, 0, 71, 0
2, 654136, Note_on_c, 0, 65, 0
2, 654140, Note_on_c, 0, 74, 0
2, 654148, Note_on_c, 0, 26, 0
2, 654156, Note_on_c, 0, 38, 0
2, 654160, Control_c, 0, 64, 72
2, 654168, Note_on_c, 0, 77, 0
2, 654168, Note_on_c, 0, 50, 0
2, 654168, Note_on_c, 0, 86, 0
2, 654168, Note_on_c, 0, 83, 0
2, 654188, Control_c, 0, 64, 56
2, 654192, Note_on_c, 0, 64, 84
2, 654200, Control_c, 0, 64, 24
2, 654208, Control_c, 0, 64, 0
2, 654212, Note_on_c, 0, 28, 67
2, 654212, Note_on_c, 0, 69, 88
2, 654212, Note_on_c, 0, 72, 95
2, 654212, Note_on_c, 0, 40, 71
2, 654212, Note_on_c, 0, 84, 95
2, 654212, Note_on_c, 0, 81, 90
2, 654212, Note_on_c, 0, 76, 80
2, 654212, Note_on_c, 0, 52, 80
2, 654504, Control_c, 0, 64, 24
2, 654516, Control_c, 0, 64, 56
2, 654524, Control_c, 0, 64, 88
2, 654536, Control_c, 0, 64, 104
2, 654548, Control_c, 0, 64, 127
2, 654648, Note_on_c, 0, 84, 0
2, 654652, Note_on_c, 0, 28, 0
2, 654656, Note_on_c, 0, 72, 0
2, 654656, Note_on_c, 0, 69, 0
2, 654672, Note_on_c, 0, 64, 0
2, 654676, Note_on_c, 0, 52, 0
2, 654676, Note_on_c, 0, 76, 0
2, 654676, Note_on_c, 0, 81, 0
2, 654688, Note_on_c, 0, 40, 0
2, 654892, Control_c, 0, 64, 88
2, 654904, Note_on_c, 0, 71, 92
2, 654904, Note_on_c, 0, 68, 73
2, 654904, Note_on_c, 0, 83, 86
2, 654904, Note_on_c, 0, 80, 83
2, 654904, Note_on_c, 0, 76, 83
2, 654904, Note_on_c, 0, 52, 83
2, 654904, Control_c, 0, 64, 40
2, 654912, Note_on_c, 0, 28, 58
2, 654912, Note_on_c, 0, 64, 77
2, 654912, Note_on_c, 0, 40, 58
2, 654916, Control_c, 0, 64, 0
2, 654980, Control_c, 0, 64, 40
2, 654984, Note_on_c, 0, 64, 0
2, 654984, Note_on_c, 0, 28, 0
2, 654992, Control_c, 0, 64, 88
2, 655004, Control_c, 0, 64, 127
2, 655008, Note_on_c, 0, 40, 0
2, 655016, Note_on_c, 0, 68, 0
2, 655028, Note_on_c, 0, 71, 0
2, 655064, Note_on_c, 0, 76, 0
2, 655064, Note_on_c, 0, 80, 0
2, 655064, Note_on_c, 0, 52, 0
2, 655064, Note_on_c, 0, 83, 0
2, 655252, Control_c, 0, 64, 88
2, 655260, Note_on_c, 0, 72, 102
2, 655264, Control_c, 0, 64, 56
2, 655272, Note_on_c, 0, 60, 64
2, 655272, Control_c, 0, 64, 0
2, 655280, Note_on_c, 0, 48, 63
2, 655348, Control_c, 0, 64, 56
2, 655360, Control_c, 0, 64, 104
2, 655372, Control_c, 0, 64, 127
2, 655460, Note_on_c, 0, 72, 0
2, 655468, Note_on_c, 0, 48, 0
2, 655484, Note_on_c, 0, 60, 0
2, 655488, Note_on_c, 0, 74, 79
2, 655544, Note_on_c, 0, 72, 84
2, 655560, Note_on_c, 0, 74, 0
2, 655604, Note_on_c, 0, 71, 93
2, 655608, Note_on_c, 0, 72, 0
2, 655608, Control_c, 0, 64, 104
2, 655620, Note_on_c, 0, 59, 74
2, 655620, Control_c, 0, 64, 56
2, 655624, Note_on_c, 0, 47, 69
2, 655632, Control_c, 0, 64, 24
2, 655640, Control_c, 0, 64, 0
2, 655648, Note_on_c, 0, 47, 0
2, 655660, Note_on_c, 0, 59, 0
2, 655836, Note_on_c, 0, 71, 0
2, 655848, Note_on_c, 0, 69, 86
2, 655856, Note_on_c, 0, 57, 68
2, 655864, Note_on_c, 0, 45, 73
2, 655884, Note_on_c, 0, 45, 0
2, 655888, Note_on_c, 0, 57, 0
2, 655912, Note_on_c, 0, 69, 0
2, 655944, Note_on_c, 0, 67, 96
2, 655968, Note_on_c, 0, 55, 75
2, 655976, Note_on_c, 0, 43, 72
2, 656000, Control_c, 0, 64, 24
2, 656008, Control_c, 0, 64, 88
2, 656020, Control_c, 0, 64, 127
2, 656120, Note_on_c, 0, 67, 0
2, 656148, Note_on_c, 0, 69, 77
2, 656164, Note_on_c, 0, 43, 0
2, 656172, Note_on_c, 0, 55, 0
2, 656208, Note_on_c, 0, 67, 82
2, 656228, Note_on_c, 0, 69, 0
2, 656260, Note_on_c, 0, 65, 92
2, 656268, Note_on_c, 0, 67, 0
2, 656268, Control_c, 0, 64, 72
2, 656272, Note_on_c, 0, 53, 78
2, 656276, Note_on_c, 0, 41, 70
2, 656280, Control_c, 0, 64, 40
2, 656292, Control_c, 0, 64, 0
2, 656312, Note_on_c, 0, 41, 0
2, 656312, Note_on_c, 0, 53, 0
2, 656332, Note_on_c, 0, 65, 0
2, 656492, Note_on_c, 0, 64, 78
2, 656496, Note_on_c, 0, 52, 78
2, 656504, Note_on_c, 0, 40, 68
2, 656540, Note_on_c, 0, 40, 0
2, 656540, Note_on_c, 0, 52, 0
2, 656576, Note_on_c, 0, 64, 0
2, 656592, Note_on_c, 0, 63, 80
2, 656612, Note_on_c, 0, 51, 70
2, 656612, Note_on_c, 0, 39, 62
2, 656628, Control_c, 0, 64, 24
2, 656640, Control_c, 0, 64, 88
2, 656652, Control_c, 0, 64, 127
2, 656688, Note_on_c, 0, 66, 73
2, 656708, Note_on_c, 0, 63, 0
2, 656744, Note_on_c, 0, 66, 0
2, 656796, Note_on_c, 0, 69, 86
2, 656896, Note_on_c, 0, 72, 90
2, 656896, Note_on_c, 0, 78, 90
2, 656896, Note_on_c, 0, 66, 85
2, 656896, Note_on_c, 0, 69, 85
2, 656896, Note_on_c, 0, 51, 85
2, 656896, Note_on_c, 0, 39, 80
2, 656932, Note_on_c, 0, 69, 0
2, 656972, Note_on_c, 0, 72, 0
2, 656992, Note_on_c, 0, 78, 84
2, 657016, Note_on_c, 0, 69, 33
2, 657048, Note_on_c, 0, 69, 0
2, 657100, Note_on_c, 0, 81, 86
2, 657104, Note_on_c, 0, 78, 0
2, 657120, Note_on_c, 0, 51, 0
2, 657124, Note_on_c, 0, 39, 0
2, 657140, Note_on_c, 0, 81, 0
2, 657156, Note_on_c, 0, 39, 0
2, 657156, Note_on_c, 0, 69, 0
2, 657156, Note_on_c, 0, 51, 0
2, 657156, Note_on_c, 0, 78, 0
2, 657156, Note_on_c, 0, 66, 0
2, 657208, Note_on_c, 0, 64, 85
2, 657220, Note_on_c, 0, 50, 68
2, 657224, Note_on_c, 0, 38, 61
2, 657224, Control_c, 0, 64, 104
2, 657236, Control_c, 0, 64, 24
2, 657248, Control_c, 0, 64, 0
2, 657308, Note_on_c, 0, 68, 77
2, 657324, Control_c, 0, 64, 88
2, 657336, Note_on_c, 0, 64, 0
2, 657336, Control_c, 0, 64, 127
2, 657408, Note_on_c, 0, 71, 81
2, 657428, Note_on_c, 0, 68, 0
2, 657452, Note_on_c, 0, 71, 0
2, 657512, Note_on_c, 0, 76, 92
2, 657512, Note_on_c, 0, 80, 93
2, 657512, Note_on_c, 0, 68, 86
2, 657512, Note_on_c, 0, 71, 86
2, 657512, Note_on_c, 0, 50, 86
2, 657512, Note_on_c, 0, 38, 82
2, 657600, Note_on_c, 0, 80, 85
2, 657628, Note_on_c, 0, 76, 0
2, 657684, Note_on_c, 0, 80, 0
2, 657700, Note_on_c, 0, 83, 102
2, 657704, Note_on_c, 0, 38, 0
2, 657704, Note_on_c, 0, 50, 0
2, 657760, Note_on_c, 0, 83, 0
2, 657772, Note_on_c, 0, 38, 0
2, 657772, Note_on_c, 0, 80, 0
2, 657772, Note_on_c, 0, 50, 0
2, 657772, Note_on_c, 0, 68, 0
2, 657772, Note_on_c, 0, 71, 0
2, 657776, Note_on_c, 0, 76, 88
2, 657812, Control_c, 0, 64, 104
2, 657824, Control_c, 0, 64, 24
2, 657832, Control_c, 0, 64, 0
2, 657848, Note_on_c, 0, 88, 105
2, 657852, Note_on_c, 0, 48, 94
2, 657852, Note_on_c, 0, 36, 82
2, 657888, Note_on_c, 0, 36, 0
2, 657888, Note_on_c, 0, 48, 0
2, 657892, Note_on_c, 0, 76, 0
2, 657908, Note_on_c, 0, 88, 0
2, 657996, Control_c, 0, 64, 24
2, 658004, Control_c, 0, 64, 40
2, 658016, Control_c, 0, 64, 56
2, 658040, Control_c, 0, 64, 72
2, 658048, Control_c, 0, 64, 88
2, 658072, Control_c, 0, 64, 104
2, 658084, Note_on_c, 0, 86, 94
2, 658084, Note_on_c, 0, 77, 82
2, 658088, Note_on_c, 0, 74, 92
2, 658088, Note_on_c, 0, 83, 86
2, 658088, Note_on_c, 0, 50, 74
2, 658096, Note_on_c, 0, 38, 64
2, 658112, Note_on_c, 0, 83, 0
2, 658116, Note_on_c, 0, 38, 0
2, 658120, Note_on_c, 0, 86, 0
2, 658128, Note_on_c, 0, 50, 0
2, 658128, Note_on_c, 0, 74, 0
2, 658132, Note_on_c, 0, 77, 0
2, 658148, Control_c, 0, 64, 72
2, 658156, Control_c, 0, 64, 56
2, 658168, Control_c, 0, 64, 40
2, 658180, Note_on_c, 0, 84, 105
2, 658180, Note_on_c, 0, 76, 82
2, 658180, Control_c, 0, 64, 24
2, 658184, Note_on_c, 0, 72, 103
2, 658184, Note_on_c, 0, 81, 96
2, 658192, Note_on_c, 0, 52, 81
2, 658192, Control_c, 0, 64, 0
2, 658196, Note_on_c, 0, 40, 72
2, 658228, Note_on_c, 0, 76, 0
2, 658408, Control_c, 0, 64, 40
2, 658416, Control_c, 0, 64, 88
2, 658428, Control_c, 0, 64, 104
2, 658440, Control_c, 0, 64, 127
2, 658632, Note_on_c, 0, 81, 0
2, 658636, Note_on_c, 0, 84, 0
2, 658660, Note_on_c, 0, 72, 0
2, 658668, Note_on_c, 0, 52, 0
2, 658672, Note_on_c, 0, 40, 0
2, 658868, Note_on_c, 0, 80, 76
2, 658872, Note_on_c, 0, 83, 90
2, 658872, Note_on_c, 0, 71, 75
2, 658872, Note_on_c, 0, 76, 82
2, 658880, Note_on_c, 0, 50, 76
2, 658884, Note_on_c, 0, 38, 66
2, 658912, Note_on_c, 0, 71, 0
2, 658920, Note_on_c, 0, 76, 0
2, 658928, Note_on_c, 0, 50, 0
2, 658932, Note_on_c, 0, 38, 0
2, 658940, Note_on_c, 0, 80, 0
2, 658956, Note_on_c, 0, 83, 0
2, 659080, Note_on_c, 0, 76, 86
2, 659172, Note_on_c, 0, 88, 99
2, 659180, Note_on_c, 0, 84, 75
2, 659180, Note_on_c, 0, 48, 83
2, 659180, Note_on_c, 0, 36, 71
2, 659180, Control_c, 0, 64, 72
2, 659188, Control_c, 0, 64, 40
2, 659196, Control_c, 0, 64, 24
2, 659212, Control_c, 0, 64, 0
2, 659216, Note_on_c, 0, 36, 0
2, 659216, Note_on_c, 0, 48, 0
2, 659220, Note_on_c, 0, 84, 0
2, 659220, Note_on_c, 0, 76, 0
2, 659232, Note_on_c, 0, 88, 0
2, 659420, Note_on_c, 0, 86, 92
2, 659420, Note_on_c, 0, 77, 82
2, 659424, Note_on_c, 0, 83, 87
2, 659424, Note_on_c, 0, 74, 85
2, 659436, Note_on_c, 0, 50, 79
2, 659440, Note_on_c, 0, 38, 70
2, 659448, Note_on_c, 0, 83, 0
2, 659452, Note_on_c, 0, 50, 0
2, 659456, Note_on_c, 0, 74, 0
2, 659456, Note_on_c, 0, 86, 0
2, 659456, Note_on_c, 0, 38, 0
2, 659468, Note_on_c, 0, 77, 0
2, 659512, Note_on_c, 0, 84, 97
2, 659512, Note_on_c, 0, 76, 82
2, 659520, Note_on_c, 0, 72, 93
2, 659520, Note_on_c, 0, 81, 90
2, 659532, Note_on_c, 0, 52, 82
2, 659536, Note_on_c, 0, 40, 74
2, 659560, Note_on_c, 0, 76, 0
2, 659696, Control_c, 0, 64, 24
2, 659708, Control_c, 0, 64, 56
2, 659720, Control_c, 0, 64, 88
2, 659732, Control_c, 0, 64, 127
2, 659932, Note_on_c, 0, 81, 0
2, 659964, Note_on_c, 0, 84, 0
2, 659988, Note_on_c, 0, 72, 0
2, 659992, Note_on_c, 0, 40, 0
2, 660000, Note_on_c, 0, 52, 0
2, 660188, Note_on_c, 0, 83, 96
2, 660188, Note_on_c, 0, 80, 82
2, 660188, Note_on_c, 0, 76, 82
2, 660188, Control_c, 0, 64, 88
2, 660192, Note_on_c, 0, 71, 82
2, 660196, Control_c, 0, 64, 40
2, 660204, Note_on_c, 0, 52, 74
2, 660208, Note_on_c, 0, 40, 67
2, 660208, Control_c, 0, 64, 24
2, 660220, Control_c, 0, 64, 0
2, 660228, Control_c, 0, 64, 24
2, 660236, Note_on_c, 0, 76, 0
2, 660240, Control_c, 0, 64, 56
2, 660252, Control_c, 0, 64, 104
2, 660264, Control_c, 0, 64, 127
2, 660276, Note_on_c, 0, 52, 0
2, 660288, Note_on_c, 0, 40, 0
2, 660312, Note_on_c, 0, 83, 0
2, 660316, Note_on_c, 0, 80, 0
2, 660320, Note_on_c, 0, 71, 0
2, 660544, Note_on_c, 0, 81, 99
2, 660544, Note_on_c, 0, 33, 69
2, 660544, Note_on_c, 0, 45, 82
2, 660548, Note_on_c, 0, 69, 86
2, 660560, Note_on_c, 0, 45, 51
2, 660568, Note_on_c, 0, 33, 45
2, 660572, Note_on_c, 0, 76, 82
2, 660572, Note_on_c, 0, 72, 82
2, 660608, Control_c, 0, 64, 56
2, 660620, Control_c, 0, 64, 0
2, 660800, Note_on_c, 0, 33, 0
2, 660804, Note_on_c, 0, 45, 0
2, 660836, Note_on_c, 0, 69, 0
2, 660904, Note_on_c, 0, 78, 77
2, 660908, Note_on_c, 0, 61, 56
2, 660908, Note_on_c, 0, 64, 73
2, 660944, Note_on_c, 0, 76, 0
2, 660948, Note_on_c, 0, 72, 0
2, 660948, Note_on_c, 0, 81, 0
2, 660996, Control_c, 0, 64, 24
2, 661016, Note_on_c, 0, 79, 84
2, 661020, Control_c, 0, 64, 40
2, 661032, Note_on_c, 0, 78, 0
2, 661044, Control_c, 0, 64, 56
2, 661056, Control_c, 0, 64, 72
2, 661088, Control_c, 0, 64, 88
2, 661116, Note_on_c, 0, 67, 64
2, 661124, Control_c, 0, 64, 104
2, 661184, Control_c, 0, 64, 56
2, 661196, Control_c, 0, 64, 0
2, 661208, Note_on_c, 0, 79, 0
2, 661212, Note_on_c, 0, 67, 0
2, 661228, Note_on_c, 0, 77, 84
2, 661232, Note_on_c, 0, 62, 68
2, 661260, Note_on_c, 0, 61, 0
2, 661288, Note_on_c, 0, 64, 0
2, 661300, Control_c, 0, 64, 56
2, 661312, Note_on_c, 0, 33, 0
2, 661312, Control_c, 0, 64, 127
2, 661328, Note_on_c, 0, 77, 0
2, 661328, Note_on_c, 0, 78, 76
2, 661332, Note_on_c, 0, 45, 0
2, 661420, Note_on_c, 0, 66, 55
2, 661468, Note_on_c, 0, 78, 0
2, 661492, Note_on_c, 0, 66, 0
2, 661504, Note_on_c, 0, 62, 0
2, 661524, Control_c, 0, 64, 56
2, 661528, Note_on_c, 0, 76, 75
2, 661528, Note_on_c, 0, 68, 63
2, 661532, Note_on_c, 0, 59, 46
2, 661536, Control_c, 0, 64, 0
2, 661568, Note_on_c, 0, 57, 33
2, 661608, Control_c, 0, 64, 40
2, 661620, Control_c, 0, 64, 72
2, 661624, Note_on_c, 0, 76, 0
2, 661632, Note_on_c, 0, 77, 85
2, 661632, Control_c, 0, 64, 88
2, 661664, Control_c, 0, 64, 104
2, 661724, Note_on_c, 0, 77, 0
2, 661732, Note_on_c, 0, 65, 65
2, 661800, Note_on_c, 0, 68, 0
2, 661808, Control_c, 0, 64, 40
2, 661820, Control_c, 0, 64, 0
2, 661828, Note_on_c, 0, 59, 0
2, 661840, Note_on_c, 0, 69, 79
2, 661844, Note_on_c, 0, 75, 81
2, 661852, Note_on_c, 0, 65, 0
2, 661852, Note_on_c, 0, 60, 56
2, 661888, Control_c, 0, 64, 24
2, 661900, Control_c, 0, 64, 56
2, 661912, Control_c, 0, 64, 88
2, 661924, Control_c, 0, 64, 104
2, 661940, Note_on_c, 0, 75, 0
2, 661948, Note_on_c, 0, 76, 81
2, 661972, Control_c, 0, 64, 127
2, 662032, Note_on_c, 0, 76, 0
2, 662036, Note_on_c, 0, 64, 66
2, 662084, Note_on_c, 0, 69, 0
2, 662116, Note_on_c, 0, 60, 0
2, 662120, Note_on_c, 0, 64, 0
2, 662136, Control_c, 0, 64, 72
2, 662144, Note_on_c, 0, 67, 73
2, 662148, Note_on_c, 0, 75, 82
2, 662148, Control_c, 0, 64, 24
2, 662160, Control_c, 0, 64, 0
2, 662164, Note_on_c, 0, 58, 40
2, 662204, Control_c, 0, 64, 24
2, 662216, Control_c, 0, 64, 56
2, 662228, Control_c, 0, 64, 72
2, 662240, Control_c, 0, 64, 104
2, 662244, Note_on_c, 0, 75, 0
2, 662252, Note_on_c, 0, 76, 85
2, 662288, Control_c, 0, 64, 127
2, 662344, Note_on_c, 0, 64, 66
2, 662388, Note_on_c, 0, 76, 0
2, 662392, Note_on_c, 0, 67, 0
2, 662416, Note_on_c, 0, 64, 0
2, 662428, Control_c, 0, 64, 88
2, 662440, Note_on_c, 0, 58, 0
2, 662440, Control_c, 0, 64, 40
2, 662444, Note_on_c, 0, 74, 81
2, 662452, Control_c, 0, 64, 0
2, 662460, Note_on_c, 0, 66, 67
2, 662464, Note_on_c, 0, 59, 63
2, 662512, Control_c, 0, 64, 24
2, 662524, Control_c, 0, 64, 56
2, 662536, Control_c, 0, 64, 72
2, 662540, Note_on_c, 0, 74, 0
2, 662544, Note_on_c, 0, 75, 83
2, 662548, Control_c, 0, 64, 88
2, 662560, Control_c, 0, 64, 104
2, 662608, Control_c, 0, 64, 127
2, 662628, Note_on_c, 0, 75, 0
2, 662628, Note_on_c, 0, 59, 0
2, 662644, Note_on_c, 0, 63, 58
2, 662684, Note_on_c, 0, 66, 0
2, 662724, Note_on_c, 0, 63, 0
2, 662724, Control_c, 0, 64, 88
2, 662732, Note_on_c, 0, 65, 71
2, 662736, Control_c, 0, 64, 40
2, 662744, Note_on_c, 0, 56, 52
2, 662748, Note_on_c, 0, 73, 78
2, 662748, Control_c, 0, 64, 0
2, 662816, Note_on_c, 0, 57, 0
2, 662816, Control_c, 0, 64, 40
2, 662832, Control_c, 0, 64, 72
2, 662836, Note_on_c, 0, 73, 0
2, 662840, Control_c, 0, 64, 88
2, 662848, Note_on_c, 0, 74, 82
2, 662888, Control_c, 0, 64, 104
2, 662932, Note_on_c, 0, 74, 0
2, 662944, Note_on_c, 0, 62, 64
2, 662956, Note_on_c, 0, 65, 0
2, 663016, Control_c, 0, 64, 40
2, 663028, Control_c, 0, 64, 0
2, 663032, Note_on_c, 0, 62, 0
2, 663044, Note_on_c, 0, 64, 72
2, 663052, Note_on_c, 0, 57, 65
2, 663056, Note_on_c, 0, 71, 74
2, 663112, Control_c, 0, 64, 40
2, 663120, Note_on_c, 0, 56, 0
2, 663124, Control_c, 0, 64, 56
2, 663136, Note_on_c, 0, 57, 0
2, 663140, Note_on_c, 0, 71, 0
2, 663144, Note_on_c, 0, 72, 85
2, 663164, Note_on_c, 0, 64, 0
2, 663180, Control_c, 0, 64, 72
2, 663232, Note_on_c, 0, 60, 58
2, 663284, Note_on_c, 0, 60, 0
2, 663300, Control_c, 0, 64, 56
2, 663308, Control_c, 0, 64, 40
2, 663332, Note_on_c, 0, 72, 0
2, 663336, Control_c, 0, 64, 0
2, 663348, Note_on_c, 0, 62, 75
2, 663352, Note_on_c, 0, 50, 74
2, 663360, Note_on_c, 0, 71, 81
2, 663360, Note_on_c, 0, 74, 77
2, 663360, Note_on_c, 0, 65, 70
2, 663360, Note_on_c, 0, 38, 66
2, 663408, Note_on_c, 0, 38, 0
2, 663408, Note_on_c, 0, 74, 0
2, 663408, Note_on_c, 0, 65, 0
2, 663456, Note_on_c, 0, 71, 0
2, 663456, Note_on_c, 0, 74, 81
2, 663468, Note_on_c, 0, 65, 68
2, 663540, Note_on_c, 0, 65, 0
2, 663568, Note_on_c, 0, 72, 90
2, 663584, Note_on_c, 0, 74, 0
2, 663636, Note_on_c, 0, 72, 0
2, 663676, Note_on_c, 0, 52, 79
2, 663680, Note_on_c, 0, 72, 84
2, 663680, Note_on_c, 0, 60, 74
2, 663680, Note_on_c, 0, 69, 74
2, 663680, Note_on_c, 0, 40, 70
2, 663688, Note_on_c, 0, 64, 69
2, 663692, Note_on_c, 0, 50, 0
2, 663692, Note_on_c, 0, 62, 0
2, 663728, Note_on_c, 0, 69, 0
2, 663728, Note_on_c, 0, 64, 0
2, 663728, Note_on_c, 0, 60, 0
2, 663728, Note_on_c, 0, 40, 0
2, 663736, Note_on_c, 0, 72, 0
2, 663744, Note_on_c, 0, 52, 0
2, 663996, Note_on_c, 0, 71, 82
2, 663996, Note_on_c, 0, 59, 70
2, 663996, Note_on_c, 0, 64, 70
2, 663996, Note_on_c, 0, 52, 70
2, 664000, Note_on_c, 0, 62, 68
2, 664000, Note_on_c, 0, 40, 84
2, 664008, Note_on_c, 0, 68, 56
2, 664040, Note_on_c, 0, 40, 0
2, 664044, Note_on_c, 0, 64, 0
2, 664044, Note_on_c, 0, 59, 0
2, 664044, Note_on_c, 0, 52, 0
2, 664052, Note_on_c, 0, 68, 0
2, 664052, Note_on_c, 0, 62, 0
2, 664060, Note_on_c, 0, 71, 0
2, 664328, Note_on_c, 0, 69, 79
2, 664328, Note_on_c, 0, 57, 70
2, 664332, Note_on_c, 0, 45, 78
2, 664336, Note_on_c, 0, 60, 66
2, 664644, Note_on_c, 0, 66, 70
2, 664652, Note_on_c, 0, 52, 58
2, 664656, Note_on_c, 0, 49, 42
2, 664676, Note_on_c, 0, 57, 0
2, 664708, Note_on_c, 0, 69, 0
2, 664720, Note_on_c, 0, 60, 0
2, 664748, Note_on_c, 0, 67, 76
2, 664752, Note_on_c, 0, 66, 0
2, 664844, Note_on_c, 0, 55, 60
2, 664944, Note_on_c, 0, 67, 0
2, 664956, Note_on_c, 0, 55, 0
2, 664968, Note_on_c, 0, 50, 67
2, 664972, Note_on_c, 0, 52, 0
2, 664980, Note_on_c, 0, 65, 68
2, 665008, Note_on_c, 0, 49, 0
2, 665076, Note_on_c, 0, 65, 0
2, 665076, Note_on_c, 0, 66, 70
2, 665172, Note_on_c, 0, 54, 64
2, 665232, Note_on_c, 0, 66, 0
2, 665256, Note_on_c, 0, 54, 0
2, 665272, Note_on_c, 0, 56, 59
2, 665280, Note_on_c, 0, 47, 54
2, 665284, Note_on_c, 0, 64, 72
2, 665384, Note_on_c, 0, 64, 0
2, 665384, Note_on_c, 0, 65, 80
2, 665436, Note_on_c, 0, 45, 0
2, 665468, Note_on_c, 0, 65, 0
2, 665484, Note_on_c, 0, 53, 72
2, 665524, Note_on_c, 0, 56, 0
2, 665544, Note_on_c, 0, 50, 0
2, 665556, Note_on_c, 0, 47, 0
2, 665576, Note_on_c, 0, 57, 71
2, 665576, Note_on_c, 0, 48, 55
2, 665596, Note_on_c, 0, 53, 0
2, 665596, Note_on_c, 0, 63, 73
2, 665700, Note_on_c, 0, 63, 0
2, 665712, Note_on_c, 0, 64, 81
2, 665816, Note_on_c, 0, 52, 70
2, 665824, Note_on_c, 0, 64, 0
2, 665856, Note_on_c, 0, 57, 0
2, 665884, Note_on_c, 0, 48, 0
2, 665916, Note_on_c, 0, 55, 82
2, 665924, Note_on_c, 0, 63, 69
2, 665936, Note_on_c, 0, 46, 54
2, 665984, Note_on_c, 0, 52, 0
2, 666024, Note_on_c, 0, 63, 0
2, 666028, Note_on_c, 0, 64, 82
2, 666128, Note_on_c, 0, 64, 0
2, 666128, Note_on_c, 0, 52, 68
2, 666176, Note_on_c, 0, 55, 0
2, 666208, Note_on_c, 0, 52, 0
2, 666244, Note_on_c, 0, 62, 74
2, 666256, Note_on_c, 0, 54, 64
2, 666260, Note_on_c, 0, 47, 69
2, 666336, Note_on_c, 0, 62, 0
2, 666336, Note_on_c, 0, 63, 76
2, 666356, Note_on_c, 0, 46, 0
2, 666432, Note_on_c, 0, 51, 67
2, 666476, Note_on_c, 0, 63, 0
2, 666516, Note_on_c, 0, 54, 0
2, 666520, Note_on_c, 0, 51, 0
2, 666524, Note_on_c, 0, 47, 0
2, 666528, Note_on_c, 0, 61, 70
2, 666540, Note_on_c, 0, 53, 70
2, 666560, Note_on_c, 0, 47, 25
2, 666564, Note_on_c, 0, 44, 53
2, 666592, Note_on_c, 0, 47, 0
2, 666632, Note_on_c, 0, 61, 0
2, 666636, Note_on_c, 0, 62, 81
2, 666712, Note_on_c, 0, 62, 0
2, 666724, Note_on_c, 0, 50, 71
2, 666744, Note_on_c, 0, 53, 0
2, 666804, Note_on_c, 0, 50, 0
2, 666840, Note_on_c, 0, 59, 73
2, 666848, Note_on_c, 0, 52, 74
2, 666892, Note_on_c, 0, 44, 0
2, 666940, Note_on_c, 0, 60, 84
2, 666944, Note_on_c, 0, 59, 0
2, 667004, Note_on_c, 0, 52, 0
2, 667024, Note_on_c, 0, 48, 70
2, 667072, Note_on_c, 0, 48, 0
2, 667140, Note_on_c, 0, 60, 0
2, 667148, Note_on_c, 0, 59, 79
2, 667148, Note_on_c, 0, 38, 92
2, 667148, Note_on_c, 0, 74, 70
2, 667148, Note_on_c, 0, 62, 65
2, 667148, Note_on_c, 0, 71, 65
2, 667148, Note_on_c, 0, 65, 65
2, 667148, Note_on_c, 0, 50, 65
2, 667196, Note_on_c, 0, 50, 0
2, 667196, Note_on_c, 0, 71, 0
2, 667196, Note_on_c, 0, 62, 0
2, 667196, Note_on_c, 0, 74, 0
2, 667196, Note_on_c, 0, 65, 0
2, 667248, Note_on_c, 0, 62, 81
2, 667260, Note_on_c, 0, 53, 60
2, 667268, Note_on_c, 0, 59, 0
2, 667360, Note_on_c, 0, 53, 0
2, 667360, Note_on_c, 0, 62, 0
2, 667364, Note_on_c, 0, 60, 86
2, 667432, Note_on_c, 0, 60, 0
2, 667468, Note_on_c, 0, 38, 0
2, 667480, Note_on_c, 0, 60, 81
2, 667480, Note_on_c, 0, 52, 67
2, 667480, Note_on_c, 0, 40, 83
2, 667480, Note_on_c, 0, 72, 67
2, 667480, Note_on_c, 0, 69, 64
2, 667480, Note_on_c, 0, 64, 64
2, 667524, Note_on_c, 0, 52, 0
2, 667528, Note_on_c, 0, 69, 0
2, 667528, Note_on_c, 0, 72, 0
2, 667528, Note_on_c, 0, 64, 0
2, 667532, Note_on_c, 0, 40, 0
2, 667536, Note_on_c, 0, 60, 0
2, 667836, Note_on_c, 0, 59, 79
2, 667836, Note_on_c, 0, 59, 53
2, 667836, Note_on_c, 0, 40, 81
2, 667836, Note_on_c, 0, 71, 64
2, 667836, Note_on_c, 0, 68, 62
2, 667836, Note_on_c, 0, 64, 62
2, 667836, Note_on_c, 0, 52, 62
2, 667880, Note_on_c, 0, 40, 0
2, 667884, Note_on_c, 0, 64, 0
2, 667884, Note_on_c, 0, 59, 0
2, 667884, Note_on_c, 0, 71, 0
2, 667884, Note_on_c, 0, 68, 0
2, 667884, Note_on_c, 0, 52, 0
2, 667900, Note_on_c, 0, 59, 0
2, 668184, Note_on_c, 0, 33, 59
2, 668184, Note_on_c, 0, 45, 67
2, 668200, Note_on_c, 0, 72, 74
2, 668204, Note_on_c, 0, 57, 75
2, 668204, Note_on_c, 0, 33, 64
2, 668204, Note_on_c, 0, 45, 78
2, 668204, Note_on_c, 0, 60, 45
2, 668208, Note_on_c, 0, 69, 58
2, 668208, Note_on_c, 0, 57, 43
2, 668224, Note_on_c, 0, 45, 0
2, 668228, Note_on_c, 0, 33, 0
2, 668300, Note_on_c, 0, 52, 57
2, 668400, Note_on_c, 0, 57, 51
2, 668412, Note_on_c, 0, 60, 64
2, 668420, Note_on_c, 0, 52, 0
2, 668444, Note_on_c, 0, 33, 0
2, 668452, Note_on_c, 0, 60, 0
2, 668460, Note_on_c, 0, 57, 0
2, 668464, Note_on_c, 0, 57, 0
2, 668464, Note_on_c, 0, 45, 0
2, 668468, Note_on_c, 0, 60, 0
2, 668524, Note_on_c, 0, 72, 0
2, 668532, Note_on_c, 0, 57, 0
2, 668536, Note_on_c, 0, 45, 63
2, 668536, Note_on_c, 0, 33, 53
2, 668556, Note_on_c, 0, 64, 59
2, 668556, Note_on_c, 0, 59, 53
2, 668560, Note_on_c, 0, 45, 0
2, 668560, Note_on_c, 0, 52, 62
2, 668560, Note_on_c, 0, 71, 65
2, 668568, Note_on_c, 0, 33, 0
2, 668576, Note_on_c, 0, 69, 0
2, 668588, Note_on_c, 0, 59, 0
2, 668596, Note_on_c, 0, 52, 0
2, 668608, Note_on_c, 0, 64, 0
2, 668616, Note_on_c, 0, 71, 0
2, 668644, Note_on_c, 0, 52, 59
2, 668756, Note_on_c, 0, 52, 0
2, 668756, Note_on_c, 0, 62, 68
2, 668776, Note_on_c, 0, 59, 24
2, 668804, Note_on_c, 0, 57, 67
2, 668804, Note_on_c, 0, 69, 64
2, 668808, Note_on_c, 0, 48, 62
2, 668808, Note_on_c, 0, 60, 50
2, 668816, Note_on_c, 0, 59, 0
2, 668816, Note_on_c, 0, 62, 0
2, 668828, Note_on_c, 0, 48, 0
2, 668828, Note_on_c, 0, 57, 0
2, 668836, Note_on_c, 0, 69, 0
2, 668836, Note_on_c, 0, 60, 0
2, 668872, Note_on_c, 0, 45, 70
2, 668876, Note_on_c, 0, 69, 76
2, 668880, Note_on_c, 0, 60, 60
2, 668880, Note_on_c, 0, 33, 58
2, 668888, Note_on_c, 0, 48, 60
2, 668896, Note_on_c, 0, 57, 69
2, 668908, Note_on_c, 0, 33, 0
2, 668908, Note_on_c, 0, 45, 0
2, 668912, Note_on_c, 0, 48, 0
2, 668912, Note_on_c, 0, 60, 0
2, 668916, Note_on_c, 0, 57, 0
2, 668920, Note_on_c, 0, 69, 0
2, 668992, Note_on_c, 0, 52, 60
2, 669096, Note_on_c, 0, 52, 0
2, 669104, Note_on_c, 0, 60, 64
2, 669112, Note_on_c, 0, 57, 39
2, 669144, Note_on_c, 0, 57, 0
2, 669156, Note_on_c, 0, 60, 0
2, 669188, Note_on_c, 0, 45, 69
2, 669192, Note_on_c, 0, 64, 74
2, 669196, Note_on_c, 0, 52, 64
2, 669196, Note_on_c, 0, 71, 68
2, 669196, Note_on_c, 0, 33, 52
2, 669200, Note_on_c, 0, 59, 56
2, 669216, Note_on_c, 0, 52, 0
2, 669220, Note_on_c, 0, 45, 0
2, 669228, Note_on_c, 0, 33, 0
2, 669228, Note_on_c, 0, 59, 0
2, 669240, Note_on_c, 0, 64, 0
2, 669252, Note_on_c, 0, 71, 0
2, 669320, Note_on_c, 0, 52, 63
2, 669400, Note_on_c, 0, 52, 0
2, 669408, Note_on_c, 0, 62, 59
2, 669452, Note_on_c, 0, 62, 0
2, 669532, Note_on_c, 0, 45, 76
2, 669536, Note_on_c, 0, 33, 65
2, 669540, Note_on_c, 0, 72, 80
2, 669540, Note_on_c, 0, 69, 74
2, 669540, Note_on_c, 0, 60, 63
2, 669540, Note_on_c, 0, 57, 60
2, 669588, Note_on_c, 0, 33, 0
2, 669592, Note_on_c, 0, 45, 0
2, 669648, Note_on_c, 0, 52, 65
2, 669744, Note_on_c, 0, 57, 44
2, 669744, Note_on_c, 0, 60, 62
2, 669760, Note_on_c, 0, 60, 0
2, 669760, Note_on_c, 0, 52, 0
2, 669804, Note_on_c, 0, 57, 0
2, 669816, Note_on_c, 0, 60, 0
2, 669852, Note_on_c, 0, 72, 0
2, 669852, Note_on_c, 0, 45, 68
2, 669864, Note_on_c, 0, 33, 51
2, 669872, Note_on_c, 0, 64, 63
2, 669876, Note_on_c, 0, 59, 56
2, 669880, Note_on_c, 0, 71, 68
2, 669884, Note_on_c, 0, 52, 60
2, 669892, Note_on_c, 0, 33, 0
2, 669896, Note_on_c, 0, 57, 0
2, 669904, Note_on_c, 0, 45, 0
2, 669908, Note_on_c, 0, 69, 0
2, 669912, Note_on_c, 0, 52, 0
2, 669916, Note_on_c, 0, 59, 0
2, 669928, Note_on_c, 0, 64, 0
2, 669944, Note_on_c, 0, 71, 0
2, 669944, Note_on_c, 0, 52, 63
2, 670028, Note_on_c, 0, 62, 62
2, 670040, Note_on_c, 0, 52, 0
2, 670056, Note_on_c, 0, 59, 37
2, 670092, Note_on_c, 0, 62, 0
2, 670108, Note_on_c, 0, 59, 0
2, 670116, Note_on_c, 0, 69, 61
2, 670116, Note_on_c, 0, 57, 72
2, 670116, Note_on_c, 0, 60, 54
2, 670128, Note_on_c, 0, 48, 54
2, 670144, Note_on_c, 0, 60, 0
2, 670148, Note_on_c, 0, 69, 0
2, 670148, Note_on_c, 0, 57, 0
2, 670148, Note_on_c, 0, 48, 0
2, 670164, Note_on_c, 0, 45, 75
2, 670172, Note_on_c, 0, 33, 61
2, 670188, Note_on_c, 0, 60, 70
2, 670192, Note_on_c, 0, 69, 86
2, 670196, Note_on_c, 0, 33, 0
2, 670200, Note_on_c, 0, 57, 59
2, 670200, Note_on_c, 0, 48, 45
2, 670212, Note_on_c, 0, 45, 0
2, 670216, Note_on_c, 0, 60, 0
2, 670220, Note_on_c, 0, 57, 0
2, 670228, Note_on_c, 0, 48, 0
2, 670244, Note_on_c, 0, 69, 0
2, 670248, Note_on_c, 0, 52, 60
2, 670364, Note_on_c, 0, 60, 55
2, 670368, Note_on_c, 0, 57, 56
2, 670372, Note_on_c, 0, 52, 0
2, 670396, Note_on_c, 0, 57, 0
2, 670420, Note_on_c, 0, 60, 0
2, 670520, Note_on_c, 0, 79, 83
2, 670524, Note_on_c, 0, 67, 70
2, 670524, Note_on_c, 0, 47, 84
2, 670528, Note_on_c, 0, 74, 69
2, 670528, Note_on_c, 0, 35, 74
2, 670540, Note_on_c, 0, 59, 54
2, 670544, Note_on_c, 0, 47, 55
2, 670616, Note_on_c, 0, 55, 74
2, 670692, Note_on_c, 0, 35, 0
2, 670716, Note_on_c, 0, 62, 51
2, 670732, Note_on_c, 0, 55, 0
2, 670732, Note_on_c, 0, 67, 67
2, 670764, Note_on_c, 0, 59, 0
2, 670808, Note_on_c, 0, 67, 0
2, 670808, Note_on_c, 0, 62, 0
2, 670824, Note_on_c, 0, 47, 0
2, 670824, Note_on_c, 0, 47, 0
2, 670856, Note_on_c, 0, 74, 0
2, 670864, Note_on_c, 0, 79, 0
2, 670872, Note_on_c, 0, 36, 76
2, 670876, Note_on_c, 0, 76, 72
2, 670880, Note_on_c, 0, 48, 63
2, 670880, Note_on_c, 0, 72, 61
2, 670880, Note_on_c, 0, 48, 78
2, 670884, Note_on_c, 0, 60, 55
2, 670928, Note_on_c, 0, 36, 0
2, 670940, Note_on_c, 0, 48, 0
2, 670976, Note_on_c, 0, 48, 0
2, 670984, Note_on_c, 0, 55, 69
2, 671020, Note_on_c, 0, 72, 0
2, 671060, Note_on_c, 0, 64, 66
2, 671064, Note_on_c, 0, 55, 0
2, 671068, Note_on_c, 0, 60, 41
2, 671076, Note_on_c, 0, 60, 0
2, 671100, Note_on_c, 0, 60, 0
2, 671120, Note_on_c, 0, 64, 0
2, 671144, Note_on_c, 0, 76, 0
2, 671144, Note_on_c, 0, 67, 0
2, 671208, Note_on_c, 0, 38, 82
2, 671216, Note_on_c, 0, 74, 77
2, 671216, Note_on_c, 0, 65, 66
2, 671216, Note_on_c, 0, 59, 56
2, 671216, Note_on_c, 0, 62, 61
2, 671216, Note_on_c, 0, 71, 58
2, 671216, Note_on_c, 0, 50, 69
2, 671232, Note_on_c, 0, 71, 0
2, 671252, Note_on_c, 0, 62, 0
2, 671256, Note_on_c, 0, 38, 0
2, 671256, Note_on_c, 0, 65, 0
2, 671256, Note_on_c, 0, 59, 0
2, 671256, Note_on_c, 0, 50, 0
2, 671260, Note_on_c, 0, 74, 0
2, 671324, Note_on_c, 0, 53, 62
2, 671404, Note_on_c, 0, 59, 48
2, 671408, Note_on_c, 0, 53, 0
2, 671408, Note_on_c, 0, 62, 61
2, 671448, Note_on_c, 0, 59, 0
2, 671476, Note_on_c, 0, 62, 0
2, 671528, Note_on_c, 0, 40, 69
2, 671532, Note_on_c, 0, 72, 77
2, 671540, Note_on_c, 0, 64, 55
2, 671540, Note_on_c, 0, 52, 63
2, 671544, Note_on_c, 0, 60, 60
2, 671544, Note_on_c, 0, 57, 59
2, 671548, Note_on_c, 0, 69, 47
2, 671568, Note_on_c, 0, 57, 0
2, 671568, Note_on_c, 0, 64, 0
2, 671572, Note_on_c, 0, 60, 0
2, 671572, Note_on_c, 0, 52, 0
2, 671572, Note_on_c, 0, 69, 0
2, 671584, Note_on_c, 0, 40, 0
2, 671584, Note_on_c, 0, 72, 0
2, 671648, Note_on_c, 0, 52, 54
2, 671736, Note_on_c, 0, 57, 39
2, 671740, Note_on_c, 0, 60, 50
2, 671744, Note_on_c, 0, 52, 0
2, 671780, Note_on_c, 0, 57, 0
2, 671792, Note_on_c, 0, 60, 0
2, 671864, Note_on_c, 0, 40, 68
2, 671872, Note_on_c, 0, 68, 57
2, 671872, Note_on_c, 0, 56, 55
2, 671872, Note_on_c, 0, 71, 69
2, 671872, Note_on_c, 0, 59, 54
2, 671872, Note_on_c, 0, 64, 50
2, 671872, Note_on_c, 0, 52, 44
2, 671908, Note_on_c, 0, 40, 0
2, 671932, Note_on_c, 0, 64, 0
2, 671932, Note_on_c, 0, 56, 0
2, 671932, Note_on_c, 0, 71, 0
2, 671932, Note_on_c, 0, 68, 0
2, 671932, Note_on_c, 0, 52, 0
2, 671932, Note_on_c, 0, 59, 0
2, 671956, Note_on_c, 0, 52, 60
2, 672048, Note_on_c, 0, 56, 40
2, 672052, Note_on_c, 0, 52, 0
2, 672064, Note_on_c, 0, 59, 36
2, 672108, Note_on_c, 0, 59, 0
2, 672116, Note_on_c, 0, 56, 0
2, 672204, Note_on_c, 0, 45, 74
2, 672212, Note_on_c, 0, 33, 53
2, 672232, Note_on_c, 0, 60, 63
2, 672236, Note_on_c, 0, 72, 81
2, 672236, Note_on_c, 0, 69, 67
2, 672252, Note_on_c, 0, 57, 44
2, 672268, Note_on_c, 0, 45, 0
2, 672324, Note_on_c, 0, 52, 63
2, 672416, Note_on_c, 0, 60, 56
2, 672420, Note_on_c, 0, 60, 0
2, 672420, Note_on_c, 0, 57, 44
2, 672424, Note_on_c, 0, 52, 0
2, 672464, Note_on_c, 0, 33, 0
2, 672488, Note_on_c, 0, 57, 0
2, 672492, Note_on_c, 0, 60, 0
2, 672536, Note_on_c, 0, 72, 0
2, 672540, Note_on_c, 0, 33, 34
2, 672548, Note_on_c, 0, 45, 55
2, 672552, Note_on_c, 0, 57, 0
2, 672560, Note_on_c, 0, 69, 0
2, 672564, Note_on_c, 0, 64, 58
2, 672572, Note_on_c, 0, 71, 70
2, 672572, Note_on_c, 0, 52, 59
2, 672572, Note_on_c, 0, 59, 47
2, 672600, Note_on_c, 0, 59, 0
2, 672608, Note_on_c, 0, 52, 0
2, 672620, Note_on_c, 0, 64, 0
2, 672628, Note_on_c, 0, 45, 0
2, 672628, Note_on_c, 0, 33, 0
2, 672636, Note_on_c, 0, 71, 0
2, 672640, Note_on_c, 0, 52, 61
2, 672744, Note_on_c, 0, 62, 66
2, 672748, Note_on_c, 0, 59, 41
2, 672760, Note_on_c, 0, 52, 0
2, 672788, Note_on_c, 0, 59, 0
2, 672808, Note_on_c, 0, 62, 0
2, 672812, Note_on_c, 0, 69, 68
2, 672820, Note_on_c, 0, 57, 56
2, 672820, Note_on_c, 0, 60, 39
2, 672820, Note_on_c, 0, 48, 58
2, 672836, Note_on_c, 0, 69, 0
2, 672844, Note_on_c, 0, 57, 0
2, 672844, Note_on_c, 0, 60, 0
2, 672844, Note_on_c, 0, 48, 0
2, 672880, Note_on_c, 0, 45, 74
2, 672884, Note_on_c, 0, 33, 60
2, 672888, Note_on_c, 0, 60, 63
2, 672892, Note_on_c, 0, 69, 72
2, 672896, Note_on_c, 0, 48, 56
2, 672896, Note_on_c, 0, 57, 51
2, 672920, Note_on_c, 0, 48, 0
2, 672924, Note_on_c, 0, 57, 0
2, 672932, Note_on_c, 0, 60, 0
2, 672932, Note_on_c, 0, 33, 0
2, 672940, Note_on_c, 0, 45, 0
2, 672940, Note_on_c, 0, 69, 0
2, 672988, Note_on_c, 0, 52, 64
2, 673080, Note_on_c, 0, 60, 61
2, 673084, Note_on_c, 0, 52, 0
2, 673092, Note_on_c, 0, 57, 43
2, 673124, Note_on_c, 0, 57, 0
2, 673148, Note_on_c, 0, 60, 0
2, 673196, Note_on_c, 0, 71, 74
2, 673196, Note_on_c, 0, 52, 64
2, 673196, Note_on_c, 0, 45, 75
2, 673200, Note_on_c, 0, 59, 51
2, 673208, Note_on_c, 0, 64, 56
2, 673212, Note_on_c, 0, 33, 50
2, 673220, Note_on_c, 0, 52, 0
2, 673228, Note_on_c, 0, 59, 0
2, 673236, Note_on_c, 0, 64, 0
2, 673240, Note_on_c, 0, 33, 0
2, 673248, Note_on_c, 0, 71, 0
2, 673256, Note_on_c, 0, 45, 0
2, 673284, Note_on_c, 0, 52, 58
2, 673376, Note_on_c, 0, 62, 65
2, 673380, Note_on_c, 0, 52, 0
2, 673400, Note_on_c, 0, 59, 33
2, 673440, Note_on_c, 0, 59, 0
2, 673444, Note_on_c, 0, 62, 0
2, 673520, Note_on_c, 0, 72, 83
2, 673520, Note_on_c, 0, 60, 63
2, 673524, Note_on_c, 0, 57, 57
2, 673524, Note_on_c, 0, 45, 80
2, 673532, Note_on_c, 0, 69, 68
2, 673532, Note_on_c, 0, 33, 65
2, 673624, Note_on_c, 0, 52, 63
2, 673700, Note_on_c, 0, 33, 0
2, 673712, Note_on_c, 0, 60, 61
2, 673720, Note_on_c, 0, 45, 0
2, 673720, Note_on_c, 0, 52, 0
2, 673728, Note_on_c, 0, 57, 50
2, 673732, Note_on_c, 0, 60, 0
2, 673788, Note_on_c, 0, 60, 0
2, 673788, Note_on_c, 0, 57, 0
2, 673820, Note_on_c, 0, 72, 0
2, 673840, Note_on_c, 0, 57, 0
2, 673844, Note_on_c, 0, 64, 56
2, 673844, Note_on_c, 0, 71, 63
2, 673844, Note_on_c, 0, 45, 70
2, 673848, Note_on_c, 0, 59, 49
2, 673848, Note_on_c, 0, 33, 55
2, 673856, Note_on_c, 0, 52, 51
2, 673876, Note_on_c, 0, 69, 0
2, 673880, Note_on_c, 0, 59, 0
2, 673884, Note_on_c, 0, 52, 0
2, 673900, Note_on_c, 0, 64, 0
2, 673908, Note_on_c, 0, 33, 0
2, 673908, Note_on_c, 0, 71, 0
2, 673912, Note_on_c, 0, 45, 0
2, 673920, Note_on_c, 0, 52, 61
2, 674016, Note_on_c, 0, 62, 60
2, 674032, Note_on_c, 0, 52, 0
2, 674036, Note_on_c, 0, 59, 46
2, 674072, Note_on_c, 0, 69, 62
2, 674072, Note_on_c, 0, 57, 50
2, 674076, Note_on_c, 0, 48, 58
2, 674076, Note_on_c, 0, 60, 44
2, 674084, Note_on_c, 0, 62, 0
2, 674104, Note_on_c, 0, 48, 0
2, 674108, Note_on_c, 0, 57, 0
2, 674108, Note_on_c, 0, 69, 0
2, 674108, Note_on_c, 0, 60, 0
2, 674128, Note_on_c, 0, 59, 0
2, 674148, Note_on_c, 0, 45, 70
2, 674152, Note_on_c, 0, 33, 53
2, 674156, Note_on_c, 0, 60, 59
2, 674156, Note_on_c, 0, 69, 68
2, 674160, Note_on_c, 0, 57, 49
2, 674164, Note_on_c, 0, 48, 45
2, 674188, Note_on_c, 0, 60, 0
2, 674188, Note_on_c, 0, 33, 0
2, 674196, Note_on_c, 0, 57, 0
2, 674200, Note_on_c, 0, 48, 0
2, 674204, Note_on_c, 0, 45, 0
2, 674216, Note_on_c, 0, 69, 0
2, 674240, Note_on_c, 0, 52, 62
2, 674348, Note_on_c, 0, 52, 0
2, 674352, Note_on_c, 0, 60, 62
2, 674352, Note_on_c, 0, 57, 40
2, 674396, Note_on_c, 0, 57, 0
2, 674420, Note_on_c, 0, 60, 0
2, 674472, Note_on_c, 0, 47, 76
2, 674476, Note_on_c, 0, 35, 67
2, 674480, Note_on_c, 0, 79, 88
2, 674484, Note_on_c, 0, 67, 66
2, 674492, Note_on_c, 0, 74, 68
2, 674496, Note_on_c, 0, 59, 57
2, 674500, Note_on_c, 0, 47, 59
2, 674532, Note_on_c, 0, 47, 0
2, 674532, Note_on_c, 0, 35, 0
2, 674588, Note_on_c, 0, 55, 74
2, 674672, Note_on_c, 0, 55, 0
2, 674680, Note_on_c, 0, 67, 70
2, 674684, Note_on_c, 0, 59, 0
2, 674684, Note_on_c, 0, 62, 60
2, 674732, Note_on_c, 0, 67, 0
2, 674744, Note_on_c, 0, 62, 0
2, 674784, Note_on_c, 0, 74, 0
2, 674792, Note_on_c, 0, 47, 0
2, 674796, Note_on_c, 0, 48, 78
2, 674796, Note_on_c, 0, 36, 65
2, 674812, Note_on_c, 0, 76, 72
2, 674824, Note_on_c, 0, 60, 50
2, 674824, Note_on_c, 0, 48, 62
2, 674828, Note_on_c, 0, 72, 56
2, 674836, Note_on_c, 0, 36, 0
2, 674848, Note_on_c, 0, 79, 0
2, 674848, Note_on_c, 0, 48, 0
2, 674852, Note_on_c, 0, 48, 0
2, 674868, Note_on_c, 0, 60, 0
2, 674876, Note_on_c, 0, 72, 0
2, 674888, Note_on_c, 0, 76, 0
2, 674896, Note_on_c, 0, 67, 0
2, 674904, Note_on_c, 0, 55, 76
2, 674984, Note_on_c, 0, 55, 0
2, 674992, Note_on_c, 0, 64, 62
2, 674992, Note_on_c, 0, 60, 52
2, 675036, Note_on_c, 0, 60, 0
2, 675056, Note_on_c, 0, 64, 0
2, 675108, Note_on_c, 0, 38, 78
2, 675136, Note_on_c, 0, 74, 71
2, 675144, Note_on_c, 0, 50, 60
2, 675148, Note_on_c, 0, 62, 48
2, 675148, Note_on_c, 0, 59, 52
2, 675156, Note_on_c, 0, 65, 48
2, 675156, Note_on_c, 0, 71, 51
2, 675164, Note_on_c, 0, 38, 0
2, 675188, Note_on_c, 0, 65, 0
2, 675188, Note_on_c, 0, 62, 0
2, 675188, Note_on_c, 0, 71, 0
2, 675192, Note_on_c, 0, 50, 0
2, 675192, Note_on_c, 0, 59, 0
2, 675196, Note_on_c, 0, 74, 0
2, 675216, Note_on_c, 0, 53, 70
2, 675308, Note_on_c, 0, 62, 63
2, 675312, Note_on_c, 0, 59, 54
2, 675320, Note_on_c, 0, 53, 0
2, 675364, Note_on_c, 0, 59, 0
2, 675376, Note_on_c, 0, 62, 0
2, 675436, Note_on_c, 0, 40, 67
2, 675464, Note_on_c, 0, 72, 69
2, 675468, Note_on_c, 0, 52, 57
2, 675468, Note_on_c, 0, 57, 54
2, 675468, Note_on_c, 0, 60, 50
2, 675472, Note_on_c, 0, 64, 45
2, 675472, Note_on_c, 0, 69, 53
2, 675488, Note_on_c, 0, 52, 0
2, 675492, Note_on_c, 0, 40, 0
2, 675496, Note_on_c, 0, 57, 0
2, 675500, Note_on_c, 0, 60, 0
2, 675500, Note_on_c, 0, 69, 0
2, 675504, Note_on_c, 0, 64, 0
2, 675516, Note_on_c, 0, 72, 0
2, 675532, Note_on_c, 0, 52, 57
2, 675624, Note_on_c, 0, 52, 0
2, 675624, Note_on_c, 0, 60, 55
2, 675636, Note_on_c, 0, 57, 43
2, 675676, Note_on_c, 0, 57, 0
2, 675732, Note_on_c, 0, 60, 0
2, 675760, Note_on_c, 0, 40, 74
2, 675784, Note_on_c, 0, 71, 63
2, 675784, Note_on_c, 0, 68, 50
2, 675792, Note_on_c, 0, 56, 43
2, 675792, Note_on_c, 0, 52, 56
2, 675796, Note_on_c, 0, 64, 45
2, 675800, Note_on_c, 0, 59, 42
2, 675812, Note_on_c, 0, 40, 0
2, 675816, Note_on_c, 0, 52, 0
2, 675824, Note_on_c, 0, 56, 0
2, 675828, Note_on_c, 0, 64, 0
2, 675828, Note_on_c, 0, 59, 0
2, 675848, Note_on_c, 0, 71, 0
2, 675848, Note_on_c, 0, 68, 0
2, 675860, Note_on_c, 0, 52, 63
2, 675968, Note_on_c, 0, 52, 0
2, 675976, Note_on_c, 0, 59, 49
2, 676036, Note_on_c, 0, 59, 0
2, 676108, Note_on_c, 0, 45, 79
2, 676112, Note_on_c, 0, 33, 64
2, 676120, Note_on_c, 0, 72, 74
2, 676124, Note_on_c, 0, 57, 52
2, 676128, Note_on_c, 0, 60, 49
2, 676128, Note_on_c, 0, 69, 55
2, 676168, Note_on_c, 0, 45, 0
2, 676204, Note_on_c, 0, 69, 0
2, 676216, Note_on_c, 0, 52, 66
2, 676280, Note_on_c, 0, 60, 0
2, 676300, Note_on_c, 0, 60, 58
2, 676308, Note_on_c, 0, 52, 0
2, 676308, Note_on_c, 0, 57, 48
2, 676340, Note_on_c, 0, 57, 0
2, 676364, Note_on_c, 0, 60, 0
2, 676428, Note_on_c, 0, 45, 70
2, 676436, Note_on_c, 0, 72, 0
2, 676448, Note_on_c, 0, 57, 0
2, 676464, Note_on_c, 0, 76, 79
2, 676472, Note_on_c, 0, 52, 58
2, 676472, Note_on_c, 0, 64, 53
2, 676476, Note_on_c, 0, 68, 46
2, 676480, Note_on_c, 0, 71, 62
2, 676512, Note_on_c, 0, 52, 66
2, 676620, Note_on_c, 0, 62, 68
2, 676628, Note_on_c, 0, 52, 0
2, 676636, Note_on_c, 0, 59, 32
2, 676644, Note_on_c, 0, 45, 0
2, 676676, Note_on_c, 0, 33, 0
2, 676692, Note_on_c, 0, 62, 0
2, 676696, Note_on_c, 0, 59, 0
2, 676744, Note_on_c, 0, 68, 0
2, 676764, Note_on_c, 0, 71, 0
2, 676764, Note_on_c, 0, 45, 81
2, 676768, Note_on_c, 0, 33, 72
2, 676812, Note_on_c, 0, 72, 58
2, 676816, Note_on_c, 0, 69, 47
2, 676876, Note_on_c, 0, 52, 69
2, 676972, Note_on_c, 0, 60, 69
2, 676984, Note_on_c, 0, 57, 53
2, 676992, Note_on_c, 0, 69, 0
2, 676996, Note_on_c, 0, 52, 0
2, 676996, Note_on_c, 0, 45, 0
2, 677052, Note_on_c, 0, 57, 0
2, 677060, Note_on_c, 0, 60, 0
2, 677100, Note_on_c, 0, 45, 68
2, 677144, Note_on_c, 0, 72, 0
2, 677148, Note_on_c, 0, 68, 44
2, 677160, Note_on_c, 0, 71, 48
2, 677196, Note_on_c, 0, 52, 65
2, 677260, Note_on_c, 0, 45, 0
2, 677280, Note_on_c, 0, 33, 0
2, 677304, Note_on_c, 0, 62, 62
2, 677316, Note_on_c, 0, 52, 0
2, 677316, Note_on_c, 0, 59, 28
2, 677348, Note_on_c, 0, 68, 0
2, 677372, Note_on_c, 0, 62, 0
2, 677396, Note_on_c, 0, 71, 0
2, 677396, Note_on_c, 0, 59, 0
2, 677444, Note_on_c, 0, 45, 68
2, 677448, Note_on_c, 0, 64, 0
2, 677448, Note_on_c, 0, 33, 56
2, 677460, Note_on_c, 0, 52, 0
2, 677472, Note_on_c, 0, 76, 0
2, 677476, Note_on_c, 0, 72, 81
2, 677480, Note_on_c, 0, 69, 52
2, 677488, Note_on_c, 0, 60, 48
2, 677492, Note_on_c, 0, 57, 38
2, 677544, Note_on_c, 0, 52, 63
2, 677592, Note_on_c, 0, 69, 0
2, 677652, Note_on_c, 0, 60, 58
2, 677656, Note_on_c, 0, 52, 0
2, 677668, Note_on_c, 0, 57, 50
2, 677676, Note_on_c, 0, 45, 0
2, 677740, Note_on_c, 0, 60, 0
2, 677744, Note_on_c, 0, 57, 0
2, 677776, Note_on_c, 0, 45, 68
2, 677812, Note_on_c, 0, 60, 0
2, 677816, Note_on_c, 0, 72, 0
2, 677816, Note_on_c, 0, 76, 85
2, 677828, Note_on_c, 0, 68, 58
2, 677832, Note_on_c, 0, 71, 67
2, 677836, Note_on_c, 0, 52, 58
2, 677836, Note_on_c, 0, 64, 53
2, 677840, Note_on_c, 0, 57, 0
2, 677860, Note_on_c, 0, 71, 0
2, 677864, Note_on_c, 0, 52, 66
2, 677988, Note_on_c, 0, 62, 60
2, 677996, Note_on_c, 0, 59, 40
2, 678000, Note_on_c, 0, 52, 0
2, 678000, Note_on_c, 0, 45, 0
2, 678008, Note_on_c, 0, 33, 0
2, 678060, Note_on_c, 0, 62, 0
2, 678080, Note_on_c, 0, 59, 0
2, 678096, Note_on_c, 0, 68, 0
2, 678132, Note_on_c, 0, 45, 74
2, 678136, Note_on_c, 0, 33, 61
2, 678156, Note_on_c, 0, 72, 75
2, 678160, Note_on_c, 0, 69, 46
2, 678236, Note_on_c, 0, 52, 75
2, 678288, Note_on_c, 0, 69, 0
2, 678308, Note_on_c, 0, 45, 0
2, 678332, Note_on_c, 0, 60, 74
2, 678340, Note_on_c, 0, 57, 65
2, 678352, Note_on_c, 0, 52, 0
2, 678352, Note_on_c, 0, 52, 0
2, 678404, Note_on_c, 0, 57, 0
2, 678416, Note_on_c, 0, 60, 0
2, 678440, Note_on_c, 0, 72, 0
2, 678444, Note_on_c, 0, 45, 82
2, 678504, Note_on_c, 0, 71, 49
2, 678504, Note_on_c, 0, 68, 44
2, 678540, Note_on_c, 0, 52, 78
2, 678624, Note_on_c, 0, 45, 0
2, 678644, Note_on_c, 0, 33, 0
2, 678644, Note_on_c, 0, 62, 76
2, 678652, Note_on_c, 0, 68, 0
2, 678652, Note_on_c, 0, 59, 54
2, 678704, Note_on_c, 0, 59, 0
2, 678708, Note_on_c, 0, 62, 0
2, 678796, Note_on_c, 0, 45, 88
2, 678800, Note_on_c, 0, 71, 0
2, 678800, Note_on_c, 0, 33, 74
2, 678840, Note_on_c, 0, 72, 84
2, 678840, Note_on_c, 0, 60, 60
2, 678840, Note_on_c, 0, 69, 64
2, 678840, Note_on_c, 0, 57, 61
2, 678844, Note_on_c, 0, 52, 0
2, 678844, Note_on_c, 0, 64, 0
2, 678856, Note_on_c, 0, 76, 0
2, 678912, Note_on_c, 0, 52, 77
2, 679020, Note_on_c, 0, 52, 0
2, 679020, Note_on_c, 0, 60, 70
2, 679028, Note_on_c, 0, 57, 57
2, 679072, Note_on_c, 0, 45, 0
2, 679092, Note_on_c, 0, 57, 0
2, 679104, Note_on_c, 0, 60, 0
2, 679156, Note_on_c, 0, 45, 79
2, 679260, Note_on_c, 0, 52, 71
2, 679308, Note_on_c, 0, 57, 0
2, 679364, Note_on_c, 0, 52, 0
2, 679368, Note_on_c, 0, 60, 71
2, 679372, Note_on_c, 0, 57, 57
2, 679388, Note_on_c, 0, 69, 0
2, 679392, Note_on_c, 0, 45, 0
2, 679396, Note_on_c, 0, 60, 0
2, 679412, Note_on_c, 0, 57, 0
2, 679424, Note_on_c, 0, 72, 0
2, 679444, Note_on_c, 0, 60, 0
2, 679504, Note_on_c, 0, 45, 88
2, 679552, Note_on_c, 0, 71, 82
2, 679552, Note_on_c, 0, 59, 73
2, 679552, Note_on_c, 0, 52, 69
2, 679552, Note_on_c, 0, 64, 52
2, 679552, Note_on_c, 0, 52, 74
2, 679696, Note_on_c, 0, 52, 0
2, 679728, Note_on_c, 0, 60, 67
2, 679736, Note_on_c, 0, 57, 56
2, 679788, Note_on_c, 0, 45, 0
2, 679804, Note_on_c, 0, 57, 0
2, 679820, Note_on_c, 0, 60, 0
2, 679880, Note_on_c, 0, 45, 82
2, 679968, Note_on_c, 0, 59, 0
2, 679988, Note_on_c, 0, 52, 0
2, 679988, Note_on_c, 0, 52, 70
2, 679992, Note_on_c, 0, 71, 0
2, 680008, Note_on_c, 0, 64, 0
2, 680044, Note_on_c, 0, 57, 46
2, 680048, Note_on_c, 0, 69, 82
2, 680048, Note_on_c, 0, 48, 65
2, 680052, Note_on_c, 0, 60, 66
2, 680064, Note_on_c, 0, 57, 0
2, 680072, Note_on_c, 0, 48, 0
2, 680072, Note_on_c, 0, 60, 0
2, 680088, Note_on_c, 0, 52, 0
2, 680092, Note_on_c, 0, 60, 70
2, 680100, Note_on_c, 0, 69, 0
2, 680100, Note_on_c, 0, 57, 60
2, 680128, Note_on_c, 0, 57, 0
2, 680140, Note_on_c, 0, 45, 0
2, 680164, Note_on_c, 0, 60, 0
2, 680212, Note_on_c, 0, 45, 90
2, 680264, Note_on_c, 0, 88, 102
2, 680268, Note_on_c, 0, 76, 93
2, 680272, Note_on_c, 0, 81, 85
2, 680272, Note_on_c, 0, 84, 85
2, 680280, Note_on_c, 0, 48, 94
2, 680284, Note_on_c, 0, 45, 87
2, 680296, Note_on_c, 0, 36, 53
2, 680316, Note_on_c, 0, 33, 0
2, 680328, Note_on_c, 0, 52, 80
2, 680432, Note_on_c, 0, 52, 0
2, 680444, Note_on_c, 0, 57, 59
2, 680452, Note_on_c, 0, 60, 67
2, 680456, Note_on_c, 0, 45, 0
2, 680528, Note_on_c, 0, 57, 0
2, 680552, Note_on_c, 0, 60, 0
2, 680560, Note_on_c, 0, 45, 85
2, 680664, Note_on_c, 0, 52, 75
2, 680688, Note_on_c, 0, 45, 0
2, 680724, Note_on_c, 0, 48, 0
2, 680740, Note_on_c, 0, 36, 0
2, 680776, Note_on_c, 0, 52, 0
2, 680776, Note_on_c, 0, 57, 66
2, 680780, Note_on_c, 0, 60, 72
2, 680784, Note_on_c, 0, 45, 0
2, 680836, Note_on_c, 0, 57, 0
2, 680852, Note_on_c, 0, 60, 0
2, 680904, Note_on_c, 0, 45, 99
2, 680908, Note_on_c, 0, 33, 83
2, 680952, Note_on_c, 0, 45, 93
2, 680956, Note_on_c, 0, 35, 80
2, 680956, Note_on_c, 0, 47, 102
2, 681020, Note_on_c, 0, 52, 75
2, 681132, Note_on_c, 0, 52, 0
2, 681132, Note_on_c, 0, 57, 65
2, 681136, Note_on_c, 0, 33, 0
2, 681136, Note_on_c, 0, 60, 73
2, 681148, Note_on_c, 0, 45, 0
2, 681208, Note_on_c, 0, 57, 0
2, 681224, Note_on_c, 0, 60, 0
2, 681260, Note_on_c, 0, 45, 0
2, 681276, Note_on_c, 0, 45, 93
2, 681276, Note_on_c, 0, 33, 75
2, 681284, Note_on_c, 0, 35, 0
2, 681312, Note_on_c, 0, 47, 0
2, 681348, Note_on_c, 0, 33, 0
2, 681356, Note_on_c, 0, 45, 0
2, 681364, Note_on_c, 0, 52, 71
2, 681408, Note_on_c, 0, 76, 0
2, 681436, Note_on_c, 0, 81, 0
2, 681448, Note_on_c, 0, 84, 0
2, 681460, Note_on_c, 0, 52, 0
2, 681464, Note_on_c, 0, 60, 79
2, 681464, Note_on_c, 0, 57, 67
2, 681476, Note_on_c, 0, 88, 0
2, 681476, Note_on_c, 0, 45, 110
2, 681484, Note_on_c, 0, 33, 78
2, 681496, Note_on_c, 0, 57, 0
2, 681520, Note_on_c, 0, 60, 0
2, 681532, Note_on_c, 0, 33, 0
2, 681568, Note_on_c, 0, 45, 0
2, 681616, Note_on_c, 0, 45, 109
2, 681620, Note_on_c, 0, 33, 87
2, 681676, Control_c, 0, 64, 56
2, 681684, Note_on_c, 0, 93, 116
2, 681684, Note_on_c, 0, 45, 116
2, 681688, Note_on_c, 0, 81, 96
2, 681688, Note_on_c, 0, 88, 99
2, 681692, Note_on_c, 0, 84, 97
2, 681692, Note_on_c, 0, 33, 92
2, 681692, Control_c, 0, 64, 88
2, 681704, Control_c, 0, 64, 127
2, 681756, Note_on_c, 0, 45, 0
2, 681772, Note_on_c, 0, 33, 0
2, 681908, Control_c, 0, 64, 104
2, 681920, Control_c, 0, 64, 88
2, 681936, Control_c, 0, 64, 56
2, 681948, Control_c, 0, 64, 0
2, 682000, Note_on_c, 0, 33, 80
2, 682012, Note_on_c, 0, 45, 97
2, 682068, Control_c, 0, 64, 72
2, 682084, Note_on_c, 0, 33, 0
2, 682084, Control_c, 0, 64, 127
2, 682100, Note_on_c, 0, 45, 0
2, 682108, Note_on_c, 0, 36, 67
2, 682112, Note_on_c, 0, 33, 0
2, 682112, Note_on_c, 0, 48, 94
2, 682120, Note_on_c, 0, 45, 0
2, 682132, Note_on_c, 0, 93, 0
2, 682156, Note_on_c, 0, 81, 0
2, 682164, Note_on_c, 0, 84, 0
2, 682168, Note_on_c, 0, 88, 0
2, 682188, Note_on_c, 0, 36, 0
2, 682208, Note_on_c, 0, 52, 85
2, 682212, Note_on_c, 0, 48, 0
2, 682216, Note_on_c, 0, 40, 63
2, 682244, Note_on_c, 0, 52, 0
2, 682296, Note_on_c, 0, 40, 0
2, 682300, Note_on_c, 0, 57, 94
2, 682308, Note_on_c, 0, 45, 65
2, 682356, Note_on_c, 0, 45, 0
2, 682360, Note_on_c, 0, 57, 0
2, 682392, Note_on_c, 0, 60, 96
2, 682412, Note_on_c, 0, 48, 74
2, 682432, Note_on_c, 0, 48, 0
2, 682464, Note_on_c, 0, 60, 0
2, 682480, Note_on_c, 0, 64, 90
2, 682496, Note_on_c, 0, 52, 64
2, 682564, Note_on_c, 0, 52, 0
2, 682564, Note_on_c, 0, 64, 0
2, 682584, Note_on_c, 0, 69, 105
2, 682596, Note_on_c, 0, 57, 72
2, 682652, Note_on_c, 0, 57, 0
2, 682660, Note_on_c, 0, 69, 0
2, 682688, Note_on_c, 0, 64, 100
2, 682700, Note_on_c, 0, 52, 82
2, 682732, Control_c, 0, 64, 104
2, 682748, Control_c, 0, 64, 88
2, 682764, Note_on_c, 0, 64, 0
2, 682764, Control_c, 0, 64, 72
2, 682776, Control_c, 0, 64, 56
2, 682780, Note_on_c, 0, 52, 0
2, 682780, Note_on_c, 0, 60, 92
2, 682784, Note_on_c, 0, 48, 85
2, 682792, Control_c, 0, 64, 0
2, 682864, Note_on_c, 0, 48, 0
2, 682868, Note_on_c, 0, 60, 0
2, 682896, Note_on_c, 0, 57, 102
2, 682900, Note_on_c, 0, 45, 94
2, 682952, Control_c, 0, 64, 72
2, 682964, Control_c, 0, 64, 127
2, 682972, Note_on_c, 0, 45, 0
2, 683004, Note_on_c, 0, 57, 0
2, 683004, Note_on_c, 0, 60, 97
2, 683012, Note_on_c, 0, 48, 72
2, 683080, Note_on_c, 0, 48, 0
2, 683104, Note_on_c, 0, 64, 88
2, 683116, Note_on_c, 0, 52, 67
2, 683124, Note_on_c, 0, 60, 0
2, 683156, Note_on_c, 0, 64, 0
2, 683176, Note_on_c, 0, 52, 0
2, 683200, Note_on_c, 0, 57, 58
2, 683204, Note_on_c, 0, 69, 103
2, 683224, Note_on_c, 0, 57, 0
2, 683272, Note_on_c, 0, 69, 0
2, 683292, Note_on_c, 0, 60, 71
2, 683300, Note_on_c, 0, 72, 97
2, 683372, Note_on_c, 0, 60, 0
2, 683388, Note_on_c, 0, 64, 66
2, 683392, Note_on_c, 0, 76, 96
2, 683408, Note_on_c, 0, 72, 0
2, 683440, Control_c, 0, 64, 88
2, 683456, Control_c, 0, 64, 0
2, 683464, Note_on_c, 0, 64, 0
2, 683468, Note_on_c, 0, 76, 0
2, 683496, Note_on_c, 0, 57, 78
2, 683496, Note_on_c, 0, 69, 105
2, 683564, Control_c, 0, 64, 127
2, 683580, Note_on_c, 0, 57, 0
2, 683592, Note_on_c, 0, 72, 99
2, 683604, Note_on_c, 0, 60, 66
2, 683628, Note_on_c, 0, 69, 0
2, 683676, Note_on_c, 0, 60, 0
2, 683688, Note_on_c, 0, 76, 88
2, 683716, Note_on_c, 0, 64, 64
2, 683720, Note_on_c, 0, 72, 0
2, 683744, Note_on_c, 0, 76, 0
2, 683772, Note_on_c, 0, 64, 0
2, 683788, Note_on_c, 0, 81, 112
2, 683804, Note_on_c, 0, 69, 74
2, 683840, Note_on_c, 0, 81, 0
2, 683880, Note_on_c, 0, 69, 0
2, 683884, Note_on_c, 0, 84, 109
2, 683908, Note_on_c, 0, 72, 74
2, 683944, Note_on_c, 0, 84, 0
2, 683972, Note_on_c, 0, 88, 102
2, 683976, Note_on_c, 0, 72, 0
2, 683992, Note_on_c, 0, 76, 68
2, 684052, Control_c, 0, 64, 40
2, 684064, Note_on_c, 0, 88, 0
2, 684064, Control_c, 0, 64, 0
2, 684072, Note_on_c, 0, 76, 0
2, 684092, Note_on_c, 0, 93, 116
2, 684104, Note_on_c, 0, 81, 92
2, 684132, Control_c, 0, 64, 127
2, 684140, Note_on_c, 0, 81, 0
2, 684144, Note_on_c, 0, 93, 0
2, 684564, Control_c, 0, 64, 88
2, 684580, Control_c, 0, 64, 40
2, 684592, Control_c, 0, 64, 0
2, 684812, Note_on_c, 0, 69, 103
2, 684816, Note_on_c, 0, 75, 95
2, 684820, Note_on_c, 0, 81, 107
2, 684820, Note_on_c, 0, 72, 100
2, 684828, Note_on_c, 0, 41, 89
2, 684828, Note_on_c, 0, 53, 109
2, 684844, Note_on_c, 0, 81, 0
2, 684864, Control_c, 0, 64, 127
2, 684872, Note_on_c, 0, 41, 0
2, 684872, Note_on_c, 0, 53, 0
2, 684880, Note_on_c, 0, 69, 0
2, 684884, Note_on_c, 0, 72, 0
2, 684904, Note_on_c, 0, 75, 0
2, 685136, Control_c, 0, 64, 104
2, 685148, Control_c, 0, 64, 72
2, 685164, Control_c, 0, 64, 24
2, 685176, Control_c, 0, 64, 0
2, 685540, Note_on_c, 0, 88, 112
2, 685540, Note_on_c, 0, 76, 103
2, 685540, Note_on_c, 0, 84, 105
2, 685544, Note_on_c, 0, 40, 77
2, 685548, Note_on_c, 0, 52, 103
2, 685548, Note_on_c, 0, 81, 99
2, 685568, Control_c, 0, 64, 72
2, 685580, Control_c, 0, 64, 127
2, 685596, Note_on_c, 0, 40, 0
2, 685600, Note_on_c, 0, 52, 0
2, 685600, Note_on_c, 0, 76, 0
2, 685608, Note_on_c, 0, 81, 0
2, 685616, Note_on_c, 0, 88, 0
2, 685616, Note_on_c, 0, 84, 0
2, 685880, Control_c, 0, 64, 88
2, 685892, Control_c, 0, 64, 72
2, 685908, Control_c, 0, 64, 40
2, 685920, Control_c, 0, 64, 24
2, 685936, Control_c, 0, 64, 0
2, 686260, Note_on_c, 0, 68, 103
2, 686264, Note_on_c, 0, 59, 90
2, 686264, Note_on_c, 0, 40, 81
2, 686264, Note_on_c, 0, 62, 93
2, 686268, Note_on_c, 0, 64, 96
2, 686272, Note_on_c, 0, 52, 110
2, 686288, Control_c, 0, 64, 104
2, 686304, Control_c, 0, 64, 127
2, 686316, Note_on_c, 0, 59, 0
2, 686320, Note_on_c, 0, 40, 0
2, 686320, Note_on_c, 0, 62, 0
2, 686320, Note_on_c, 0, 52, 0
2, 686336, Note_on_c, 0, 64, 0
2, 686348, Note_on_c, 0, 68, 0
2, 686668, Control_c, 0, 64, 104
2, 686680, Control_c, 0, 64, 72
2, 686696, Control_c, 0, 64, 40
2, 686708, Control_c, 0, 64, 24
2, 686720, Control_c, 0, 64, 0
2, 687036, Note_on_c, 0, 69, 110
2, 687044, Note_on_c, 0, 57, 102
2, 687044, Note_on_c, 0, 33, 87
2, 687044, Note_on_c, 0, 60, 97
2, 687044, Note_on_c, 0, 45, 109
2, 687044, Note_on_c, 0, 64, 94
2, 687060, Control_c, 0, 64, 127
2, 687220, Note_on_c, 0, 69, 0
2, 687228, Note_on_c, 0, 33, 0
2, 687232, Note_on_c, 0, 57, 0
2, 687232, Note_on_c, 0, 64, 0
2, 687236, Note_on_c, 0, 45, 0
2, 687244, Note_on_c, 0, 60, 0
2, 687828, Control_c, 0, 64, 0
2, 687828, End_track
3, 0, Start_track
3, 0, MIDI_port, 0
3, 0, Title_t, "Allegro Affettuoso"
3, 0, End_track
4, 0, Start_track
4, 0, MIDI_port, 0
4, 0, Title_t, "Robert Schumann"
4, 0, End_track
5, 0, Start_track
5, 0, MIDI_port, 0
5, 0, Title_t, "Robert Finley, piano"
5, 0, End_track
0, 0, End_of_file
