0, 0, Header, 1, 3, 384
1, 0, Start_track
1, 0, Title_t, "--------"
1, 0, Text_t, "Piano right\012"
1, 0, Text_t, "Piano left\012"
1, 0, Time_signature, 4, 2, 24, 8
1, 0, Key_signature, 0, "major"
1, 0, Tempo, 468750
1, 6530, Tempo, 666667
1, 6916, Tempo, 857143
1, 7301, Tempo, 1000000
1, 7680, Tempo, 468750
1, 112434, Tempo, 472441
1, 112852, Tempo, 476190
1, 112893, Tempo, 480000
1, 112937, Tempo, 483871
1, 112980, Tempo, 487805
1, 113024, Tempo, 491803
1, 113068, Tempo, 495868
1, 113108, Tempo, 500000
1, 113153, Tempo, 504202
1, 113192, Tempo, 508475
1, 113235, Tempo, 512821
1, 113275, Tempo, 517241
1, 113317, Tempo, 521739
1, 113358, Tempo, 526316
1, 113397, Tempo, 530973
1, 113436, Tempo, 535714
1, 113475, Tempo, 540541
1, 113515, Tempo, 545455
1, 113553, Tempo, 550459
1, 113592, Tempo, 555556
1, 113631, Tempo, 560748
1, 113668, Tempo, 566038
1, 113706, Tempo, 571429
1, 113742, Tempo, 576923
1, 113778, Tempo, 582524
1, 113816, Tempo, 588235
1, 113850, Tempo, 594059
1, 113886, Tempo, 600000
1, 113922, Tempo, 606061
1, 113956, Tempo, 612245
1, 113990, Tempo, 618557
1, 114024, Tempo, 625000
1, 114059, Tempo, 631579
1, 114091, Tempo, 638298
1, 114125, Tempo, 645161
1, 114157, Tempo, 652174
1, 114190, Tempo, 659341
1, 114221, Tempo, 666667
1, 114253, Tempo, 674157
1, 114285, Tempo, 681818
1, 114316, Tempo, 689655
1, 114355, Tempo, 517241
1, 114398, Tempo, 521739
1, 114437, Tempo, 526316
1, 114479, Tempo, 530973
1, 114516, Tempo, 535714
1, 114555, Tempo, 540541
1, 114595, Tempo, 545455
1, 114633, Tempo, 550459
1, 114672, Tempo, 555556
1, 114710, Tempo, 638298
1, 114753, Tempo, 705882
1, 114791, Tempo, 821918
1, 114817, Tempo, 1034483
1, 114831, Tempo, 1153846
1, 114846, Tempo, 1111111
1, 114869, Tempo, 731707
1, 115233, Tempo, 468750
1, 122717, Tempo, 476190
1, 122760, Tempo, 472441
1, 126532, Tempo, 468750
1, 127004, Tempo, 465116
1, 127283, Tempo, 461538
1, 129539, Tempo, 458015
1, 130426, Tempo, 454545
1, 136400, Tempo, 458015
1, 136826, Tempo, 461538
1, 136856, Tempo, 465116
1, 136886, Tempo, 468750
1, 136930, Tempo, 472441
1, 136974, Tempo, 476190
1, 137019, Tempo, 480000
1, 137397, Tempo, 483871
1, 138322, Tempo, 487805
1, 139607, Tempo, 491803
1, 140004, Tempo, 495868
1, 141255, Tempo, 491803
1, 141652, Tempo, 487805
1, 141683, Tempo, 483871
1, 141720, Tempo, 480000
1, 141764, Tempo, 476190
1, 141808, Tempo, 472441
1, 141852, Tempo, 468750
1, 141898, Tempo, 465116
1, 142428, Tempo, 468750
1, 142788, Tempo, 472441
1, 142848, Time_signature, 2, 2, 24, 8
1, 143230, Tempo, 476190
1, 143616, Time_signature, 4, 2, 24, 8
1, 143640, Tempo, 480000
1, 143669, Tempo, 483871
1, 143699, Tempo, 487805
1, 143734, Tempo, 491803
1, 143776, Tempo, 495868
1, 143819, Tempo, 500000
1, 143861, Tempo, 504202
1, 144295, Tempo, 508475
1, 144680, Tempo, 512821
1, 144705, Tempo, 517241
1, 144735, Tempo, 521739
1, 144775, Tempo, 526316
1, 144816, Tempo, 530973
1, 144855, Tempo, 535714
1, 144896, Tempo, 540541
1, 144935, Tempo, 545455
1, 144973, Tempo, 550459
1, 145010, Tempo, 555556
1, 145049, Tempo, 560748
1, 145086, Tempo, 566038
1, 145125, Tempo, 571429
1, 145160, Tempo, 576923
1, 145196, Tempo, 582524
1, 145233, Tempo, 588235
1, 145268, Tempo, 594059
1, 145305, Tempo, 600000
1, 145339, Tempo, 606061
1, 145376, Tempo, 612245
1, 145410, Tempo, 618557
1, 145443, Tempo, 625000
1, 145477, Tempo, 631579
1, 145511, Tempo, 638298
1, 145543, Tempo, 645161
1, 145576, Tempo, 652174
1, 146736, Tempo, 645161
1, 147616, Tempo, 638298
1, 147924, Tempo, 631579
1, 147954, Tempo, 625000
1, 147988, Tempo, 618557
1, 148022, Tempo, 612245
1, 148056, Tempo, 606061
1, 148092, Tempo, 600000
1, 148126, Tempo, 594059
1, 148162, Tempo, 588235
1, 148198, Tempo, 582524
1, 148233, Tempo, 576923
1, 148271, Tempo, 571429
1, 149211, Tempo, 566038
1, 149556, Tempo, 560748
1, 149579, Tempo, 555556
1, 149606, Tempo, 550459
1, 149642, Tempo, 545455
1, 149681, Tempo, 540541
1, 149720, Tempo, 535714
1, 149761, Tempo, 530973
1, 149799, Tempo, 526316
1, 149838, Tempo, 521739
1, 153230, Tempo, 517241
1, 153608, Tempo, 512821
1, 153643, Tempo, 508475
1, 153687, Tempo, 504202
1, 153728, Tempo, 500000
1, 155784, Tempo, 495868
1, 156074, Tempo, 491803
1, 156399, Tempo, 487805
1, 156844, Tempo, 483871
1, 157159, Tempo, 480000
1, 157531, Tempo, 476190
1, 157973, Tempo, 472441
1, 158311, Tempo, 468750
1, 160718, Tempo, 472441
1, 161131, Tempo, 476190
1, 161167, Tempo, 480000
1, 161200, Tempo, 483871
1, 161245, Tempo, 487805
1, 161287, Tempo, 491803
1, 161331, Tempo, 495868
1, 161373, Tempo, 500000
1, 161414, Tempo, 504202
1, 161458, Tempo, 508475
1, 161498, Tempo, 512821
1, 161540, Tempo, 517241
1, 161580, Tempo, 521739
1, 161621, Tempo, 526316
1, 161660, Tempo, 530973
1, 161701, Tempo, 535714
1, 161741, Tempo, 540541
1, 161779, Tempo, 545455
1, 161817, Tempo, 550459
1, 161856, Tempo, 555556
1, 161894, Tempo, 560748
1, 161933, Tempo, 566038
1, 161969, Tempo, 571429
1, 162006, Tempo, 576923
1, 162042, Tempo, 582524
1, 162078, Tempo, 588235
1, 162114, Tempo, 594059
1, 162149, Tempo, 600000
1, 162186, Tempo, 606061
1, 162219, Tempo, 612245
1, 162255, Tempo, 618557
1, 162288, Tempo, 625000
1, 162322, Tempo, 631579
1, 162355, Tempo, 638298
1, 162389, Tempo, 645161
1, 162422, Tempo, 652174
1, 162454, Tempo, 659341
1, 162486, Tempo, 666667
1, 162517, Tempo, 674157
1, 162549, Tempo, 681818
1, 162579, Tempo, 689655
1, 162610, Tempo, 697674
1, 162640, Tempo, 705882
1, 162670, Tempo, 714286
1, 162699, Tempo, 722892
1, 162729, Tempo, 731707
1, 162759, Tempo, 740741
1, 162759, End_track
2, 0, Start_track
2, 0, Title_t, "Piano"
2, 0, Program_c, 0, 0
2, 0, Control_c, 0, 7, 110
2, 0, Control_c, 0, 10, 79
2, 0, Control_c, 0, 91, 92
2, 38, Control_c, 0, 64, 127
2, 384, Note_on_c, 0, 73, 86
2, 510, Note_on_c, 0, 73, 0
2, 510, Note_on_c, 0, 76, 86
2, 638, Note_on_c, 0, 76, 0
2, 638, Note_on_c, 0, 78, 86
2, 729, Control_c, 0, 64, 0
2, 766, Note_on_c, 0, 78, 0
2, 768, Note_on_c, 0, 80, 86
2, 806, Control_c, 0, 64, 127
2, 894, Note_on_c, 0, 80, 0
2, 894, Note_on_c, 0, 75, 86
2, 1022, Note_on_c, 0, 75, 0
2, 1022, Note_on_c, 0, 71, 86
2, 1150, Note_on_c, 0, 71, 0
2, 1478, Control_c, 0, 64, 0
2, 1574, Control_c, 0, 64, 127
2, 1920, Note_on_c, 0, 69, 86
2, 2046, Note_on_c, 0, 69, 0
2, 2046, Note_on_c, 0, 73, 86
2, 2174, Note_on_c, 0, 73, 0
2, 2174, Note_on_c, 0, 75, 86
2, 2265, Control_c, 0, 64, 0
2, 2302, Note_on_c, 0, 75, 0
2, 2304, Note_on_c, 0, 76, 86
2, 2342, Control_c, 0, 64, 127
2, 2430, Note_on_c, 0, 76, 0
2, 2430, Note_on_c, 0, 71, 86
2, 2558, Note_on_c, 0, 71, 0
2, 2558, Note_on_c, 0, 68, 86
2, 2686, Note_on_c, 0, 68, 0
2, 3014, Control_c, 0, 64, 0
2, 3110, Control_c, 0, 64, 127
2, 3456, Note_on_c, 0, 73, 86
2, 3582, Note_on_c, 0, 66, 86
2, 3710, Note_on_c, 0, 66, 0
2, 3710, Note_on_c, 0, 69, 86
2, 3801, Control_c, 0, 64, 0
2, 3840, Note_on_c, 0, 73, 0
2, 3840, Note_on_c, 0, 78, 86
2, 3878, Control_c, 0, 64, 127
2, 4224, Note_on_c, 0, 78, 0
2, 4224, Note_on_c, 0, 69, 0
2, 4224, Note_on_c, 0, 73, 86
2, 4350, Note_on_c, 0, 66, 86
2, 4478, Note_on_c, 0, 66, 0
2, 4478, Note_on_c, 0, 69, 86
2, 4550, Control_c, 0, 64, 0
2, 4646, Control_c, 0, 64, 127
2, 4992, Note_on_c, 0, 69, 0
2, 4992, Note_on_c, 0, 73, 0
2, 4992, Note_on_c, 0, 73, 86
2, 5118, Note_on_c, 0, 66, 86
2, 5246, Note_on_c, 0, 66, 0
2, 5246, Note_on_c, 0, 69, 86
2, 5337, Control_c, 0, 64, 0
2, 5376, Note_on_c, 0, 73, 0
2, 5376, Note_on_c, 0, 78, 86
2, 5414, Control_c, 0, 64, 127
2, 5760, Note_on_c, 0, 78, 0
2, 5760, Note_on_c, 0, 69, 0
2, 5760, Note_on_c, 0, 81, 86
2, 5886, Note_on_c, 0, 69, 86
2, 6014, Note_on_c, 0, 69, 0
2, 6014, Note_on_c, 0, 73, 86
2, 6086, Control_c, 0, 64, 0
2, 6142, Note_on_c, 0, 73, 0
2, 6182, Control_c, 0, 64, 127
2, 6528, Note_on_c, 0, 81, 0
2, 6528, Note_on_c, 0, 81, 86
2, 6873, Control_c, 0, 64, 0
2, 6950, Control_c, 0, 64, 127
2, 7422, Note_on_c, 0, 81, 0
2, 7422, Note_on_c, 0, 80, 86
2, 7550, Note_on_c, 0, 80, 0
2, 7550, Note_on_c, 0, 78, 86
2, 7622, Control_c, 0, 64, 0
2, 7678, Note_on_c, 0, 78, 0
2, 7718, Control_c, 0, 64, 127
2, 8064, Note_on_c, 0, 76, 86
2, 8190, Note_on_c, 0, 76, 0
2, 8190, Note_on_c, 0, 78, 86
2, 8318, Note_on_c, 0, 78, 0
2, 8318, Note_on_c, 0, 73, 86
2, 8446, Note_on_c, 0, 73, 0
2, 8448, Note_on_c, 0, 76, 86
2, 8574, Note_on_c, 0, 76, 0
2, 8574, Note_on_c, 0, 71, 86
2, 8702, Note_on_c, 0, 71, 0
2, 8702, Note_on_c, 0, 73, 86
2, 8830, Note_on_c, 0, 73, 0
2, 8832, Note_on_c, 0, 68, 86
2, 8958, Note_on_c, 0, 68, 0
2, 8958, Note_on_c, 0, 71, 86
2, 9086, Note_on_c, 0, 71, 0
2, 9086, Note_on_c, 0, 66, 86
2, 9158, Control_c, 0, 64, 0
2, 9214, Note_on_c, 0, 66, 0
2, 9216, Note_on_c, 0, 68, 86
2, 9254, Control_c, 0, 64, 127
2, 9342, Note_on_c, 0, 68, 0
2, 9342, Note_on_c, 0, 64, 86
2, 9470, Note_on_c, 0, 64, 0
2, 9470, Note_on_c, 0, 68, 86
2, 9598, Note_on_c, 0, 68, 0
2, 9600, Note_on_c, 0, 63, 86
2, 10368, Note_on_c, 0, 63, 0
2, 10368, Note_on_c, 0, 61, 86
2, 10713, Control_c, 0, 64, 0
2, 10752, Note_on_c, 0, 61, 0
2, 10752, Note_on_c, 0, 59, 86
2, 10790, Control_c, 0, 64, 127
2, 11136, Note_on_c, 0, 59, 0
2, 11136, Note_on_c, 0, 76, 86
2, 11262, Note_on_c, 0, 76, 0
2, 11262, Note_on_c, 0, 78, 86
2, 11390, Note_on_c, 0, 78, 0
2, 11390, Note_on_c, 0, 73, 86
2, 11518, Note_on_c, 0, 73, 0
2, 11520, Note_on_c, 0, 76, 86
2, 11646, Note_on_c, 0, 76, 0
2, 11646, Note_on_c, 0, 71, 86
2, 11774, Note_on_c, 0, 71, 0
2, 11774, Note_on_c, 0, 73, 86
2, 11902, Note_on_c, 0, 73, 0
2, 11904, Note_on_c, 0, 68, 86
2, 12030, Note_on_c, 0, 68, 0
2, 12030, Note_on_c, 0, 71, 86
2, 12158, Note_on_c, 0, 71, 0
2, 12158, Note_on_c, 0, 66, 86
2, 12249, Control_c, 0, 64, 0
2, 12286, Note_on_c, 0, 66, 0
2, 12288, Note_on_c, 0, 68, 86
2, 12326, Control_c, 0, 64, 127
2, 12414, Note_on_c, 0, 68, 0
2, 12414, Note_on_c, 0, 64, 86
2, 12542, Note_on_c, 0, 64, 0
2, 12542, Note_on_c, 0, 68, 86
2, 12670, Note_on_c, 0, 68, 0
2, 12672, Note_on_c, 0, 63, 86
2, 13440, Note_on_c, 0, 63, 0
2, 13440, Note_on_c, 0, 61, 86
2, 13766, Control_c, 0, 64, 0
2, 13824, Note_on_c, 0, 61, 0
2, 13824, Note_on_c, 0, 59, 86
2, 13862, Control_c, 0, 64, 127
2, 13950, Note_on_c, 0, 59, 0
2, 13950, Note_on_c, 0, 57, 86
2, 14078, Note_on_c, 0, 57, 0
2, 14078, Note_on_c, 0, 59, 86
2, 14206, Note_on_c, 0, 59, 0
2, 14208, Note_on_c, 0, 61, 86
2, 14784, Note_on_c, 0, 61, 0
2, 14784, Note_on_c, 0, 64, 86
2, 14976, Note_on_c, 0, 64, 0
2, 14976, Note_on_c, 0, 63, 86
2, 15168, Note_on_c, 0, 63, 0
2, 15168, Note_on_c, 0, 64, 86
2, 15302, Control_c, 0, 64, 0
2, 15360, Note_on_c, 0, 64, 0
2, 15360, Note_on_c, 0, 61, 86
2, 15398, Control_c, 0, 64, 127
2, 15744, Note_on_c, 0, 61, 0
2, 15744, Note_on_c, 0, 68, 86
2, 16512, Note_on_c, 0, 68, 0
2, 16512, Note_on_c, 0, 64, 86
2, 16838, Control_c, 0, 64, 0
2, 16896, Note_on_c, 0, 64, 0
2, 16896, Note_on_c, 0, 63, 86
2, 16934, Control_c, 0, 64, 127
2, 17022, Note_on_c, 0, 63, 0
2, 17022, Note_on_c, 0, 61, 86
2, 17150, Note_on_c, 0, 61, 0
2, 17150, Note_on_c, 0, 63, 86
2, 17278, Note_on_c, 0, 63, 0
2, 17280, Note_on_c, 0, 64, 86
2, 17856, Note_on_c, 0, 64, 0
2, 17856, Note_on_c, 0, 68, 86
2, 18048, Note_on_c, 0, 68, 0
2, 18048, Note_on_c, 0, 66, 86
2, 18240, Note_on_c, 0, 66, 0
2, 18240, Note_on_c, 0, 68, 86
2, 18374, Control_c, 0, 64, 0
2, 18432, Note_on_c, 0, 68, 0
2, 18432, Note_on_c, 0, 64, 83
2, 18470, Control_c, 0, 64, 127
2, 18816, Note_on_c, 0, 64, 0
2, 18816, Note_on_c, 0, 73, 83
2, 19161, Control_c, 0, 64, 0
2, 19238, Control_c, 0, 64, 127
2, 19584, Note_on_c, 0, 73, 0
2, 19584, Note_on_c, 0, 70, 85
2, 19710, Note_on_c, 0, 70, 0
2, 19710, Note_on_c, 0, 73, 85
2, 19838, Note_on_c, 0, 73, 0
2, 19838, Note_on_c, 0, 70, 85
2, 19910, Control_c, 0, 64, 0
2, 19966, Note_on_c, 0, 70, 0
2, 19968, Note_on_c, 0, 68, 86
2, 20006, Control_c, 0, 64, 127
2, 20352, Note_on_c, 0, 68, 0
2, 20352, Note_on_c, 0, 76, 86
2, 20697, Control_c, 0, 64, 0
2, 20774, Control_c, 0, 64, 127
2, 21120, Note_on_c, 0, 76, 0
2, 21120, Note_on_c, 0, 73, 88
2, 21246, Note_on_c, 0, 73, 0
2, 21246, Note_on_c, 0, 76, 88
2, 21374, Note_on_c, 0, 76, 0
2, 21374, Note_on_c, 0, 73, 89
2, 21446, Control_c, 0, 64, 0
2, 21502, Note_on_c, 0, 73, 0
2, 21504, Note_on_c, 0, 80, 89
2, 21542, Control_c, 0, 64, 127
2, 22080, Note_on_c, 0, 80, 0
2, 22080, Note_on_c, 0, 78, 90
2, 22233, Control_c, 0, 64, 0
2, 22272, Note_on_c, 0, 78, 0
2, 22272, Note_on_c, 0, 80, 90
2, 22310, Control_c, 0, 64, 127
2, 22848, Note_on_c, 0, 80, 0
2, 22848, Note_on_c, 0, 78, 92
2, 22982, Control_c, 0, 64, 0
2, 23040, Note_on_c, 0, 78, 0
2, 23040, Note_on_c, 0, 80, 92
2, 23078, Control_c, 0, 64, 127
2, 23616, Note_on_c, 0, 80, 0
2, 23616, Note_on_c, 0, 78, 93
2, 23769, Control_c, 0, 64, 0
2, 23808, Note_on_c, 0, 78, 0
2, 23808, Note_on_c, 0, 80, 93
2, 23846, Control_c, 0, 64, 127
2, 24000, Note_on_c, 0, 80, 0
2, 24000, Note_on_c, 0, 78, 93
2, 24384, Note_on_c, 0, 78, 0
2, 24384, Note_on_c, 0, 80, 94
2, 24518, Control_c, 0, 64, 0
2, 24576, Note_on_c, 0, 80, 0
2, 24576, Note_on_c, 0, 81, 89
2, 24614, Control_c, 0, 64, 127
2, 24960, Note_on_c, 0, 73, 86
2, 25086, Note_on_c, 0, 73, 0
2, 25086, Note_on_c, 0, 76, 86
2, 25214, Note_on_c, 0, 76, 0
2, 25214, Note_on_c, 0, 78, 86
2, 25305, Control_c, 0, 64, 0
2, 25342, Note_on_c, 0, 78, 0
2, 25344, Note_on_c, 0, 81, 0
2, 25344, Note_on_c, 0, 80, 86
2, 25382, Control_c, 0, 64, 127
2, 25470, Note_on_c, 0, 75, 86
2, 25598, Note_on_c, 0, 75, 0
2, 25598, Note_on_c, 0, 71, 86
2, 25726, Note_on_c, 0, 71, 0
2, 26054, Control_c, 0, 64, 0
2, 26112, Note_on_c, 0, 80, 0
2, 26112, Note_on_c, 0, 78, 89
2, 26150, Control_c, 0, 64, 127
2, 26496, Note_on_c, 0, 69, 86
2, 26622, Note_on_c, 0, 69, 0
2, 26622, Note_on_c, 0, 73, 86
2, 26750, Note_on_c, 0, 73, 0
2, 26750, Note_on_c, 0, 75, 86
2, 26841, Control_c, 0, 64, 0
2, 26878, Note_on_c, 0, 75, 0
2, 26880, Note_on_c, 0, 78, 0
2, 26880, Note_on_c, 0, 76, 89
2, 26918, Control_c, 0, 64, 127
2, 27006, Note_on_c, 0, 71, 86
2, 27134, Note_on_c, 0, 71, 0
2, 27134, Note_on_c, 0, 68, 86
2, 27262, Note_on_c, 0, 68, 0
2, 27590, Control_c, 0, 64, 0
2, 27648, Note_on_c, 0, 76, 0
2, 27648, Note_on_c, 0, 75, 86
2, 27686, Control_c, 0, 64, 127
2, 28377, Control_c, 0, 64, 0
2, 28416, Note_on_c, 0, 75, 0
2, 28416, Note_on_c, 0, 76, 86
2, 28454, Control_c, 0, 64, 127
2, 28800, Note_on_c, 0, 76, 0
2, 28800, Note_on_c, 0, 80, 86
2, 28992, Note_on_c, 0, 80, 0
2, 28992, Note_on_c, 0, 83, 86
2, 29126, Control_c, 0, 64, 0
2, 29184, Note_on_c, 0, 83, 0
2, 29184, Note_on_c, 0, 75, 86
2, 29222, Control_c, 0, 64, 127
2, 29913, Control_c, 0, 64, 0
2, 29990, Control_c, 0, 64, 127
2, 30144, Note_on_c, 0, 75, 0
2, 30144, Note_on_c, 0, 73, 86
2, 30336, Note_on_c, 0, 73, 0
2, 30336, Note_on_c, 0, 76, 86
2, 30528, Note_on_c, 0, 76, 0
2, 30528, Note_on_c, 0, 80, 86
2, 30662, Control_c, 0, 64, 0
2, 30720, Note_on_c, 0, 80, 0
2, 30720, Note_on_c, 0, 71, 86
2, 30758, Control_c, 0, 64, 127
2, 31449, Control_c, 0, 64, 0
2, 31526, Control_c, 0, 64, 127
2, 31680, Note_on_c, 0, 71, 0
2, 31680, Note_on_c, 0, 69, 86
2, 31872, Note_on_c, 0, 69, 0
2, 31872, Note_on_c, 0, 73, 86
2, 32064, Note_on_c, 0, 73, 0
2, 32064, Note_on_c, 0, 76, 86
2, 32198, Control_c, 0, 64, 0
2, 32256, Note_on_c, 0, 76, 0
2, 32256, Note_on_c, 0, 68, 86
2, 32294, Control_c, 0, 64, 127
2, 32985, Control_c, 0, 64, 0
2, 33024, Note_on_c, 0, 68, 0
2, 33062, Control_c, 0, 64, 127
2, 33150, Note_on_c, 0, 69, 86
2, 33278, Note_on_c, 0, 69, 0
2, 33278, Note_on_c, 0, 73, 86
2, 33406, Note_on_c, 0, 73, 0
2, 33408, Note_on_c, 0, 76, 86
2, 33534, Note_on_c, 0, 76, 0
2, 33534, Note_on_c, 0, 80, 86
2, 33662, Note_on_c, 0, 80, 0
2, 33662, Note_on_c, 0, 78, 86
2, 33734, Control_c, 0, 64, 0
2, 33790, Note_on_c, 0, 78, 0
2, 33792, Note_on_c, 0, 75, 86
2, 33830, Control_c, 0, 64, 127
2, 34176, Note_on_c, 0, 75, 0
2, 34176, Note_on_c, 0, 68, 86
2, 34521, Control_c, 0, 64, 0
2, 34560, Note_on_c, 0, 68, 0
2, 34598, Control_c, 0, 64, 127
2, 34752, Note_on_c, 0, 66, 86
2, 34944, Note_on_c, 0, 66, 0
2, 34944, Note_on_c, 0, 69, 86
2, 35136, Note_on_c, 0, 69, 0
2, 35136, Note_on_c, 0, 73, 86
2, 35270, Control_c, 0, 64, 0
2, 35328, Note_on_c, 0, 73, 0
2, 35328, Note_on_c, 0, 64, 86
2, 35366, Control_c, 0, 64, 127
2, 36057, Control_c, 0, 64, 0
2, 36096, Note_on_c, 0, 64, 0
2, 36134, Control_c, 0, 64, 127
2, 36222, Note_on_c, 0, 66, 86
2, 36350, Note_on_c, 0, 66, 0
2, 36350, Note_on_c, 0, 69, 86
2, 36478, Note_on_c, 0, 69, 0
2, 36480, Note_on_c, 0, 73, 86
2, 36606, Note_on_c, 0, 73, 0
2, 36606, Note_on_c, 0, 76, 86
2, 36734, Note_on_c, 0, 76, 0
2, 36734, Note_on_c, 0, 74, 86
2, 36806, Control_c, 0, 64, 0
2, 36862, Note_on_c, 0, 74, 0
2, 36864, Note_on_c, 0, 68, 86
2, 36902, Control_c, 0, 64, 127
2, 37248, Note_on_c, 0, 68, 0
2, 37248, Note_on_c, 0, 66, 86
2, 37593, Control_c, 0, 64, 0
2, 37670, Control_c, 0, 64, 127
2, 38016, Note_on_c, 0, 66, 0
2, 38016, Note_on_c, 0, 62, 86
2, 38342, Control_c, 0, 64, 0
2, 38400, Note_on_c, 0, 62, 0
2, 38400, Note_on_c, 0, 61, 86
2, 38784, Note_on_c, 0, 55, 86
2, 38910, Note_on_c, 0, 55, 0
2, 38910, Note_on_c, 0, 57, 86
2, 39038, Note_on_c, 0, 57, 0
2, 39038, Note_on_c, 0, 59, 86
2, 39166, Note_on_c, 0, 59, 0
2, 39168, Note_on_c, 0, 57, 86
2, 39294, Note_on_c, 0, 57, 0
2, 39294, Note_on_c, 0, 52, 86
2, 39422, Note_on_c, 0, 52, 0
2, 39422, Note_on_c, 0, 55, 86
2, 39550, Note_on_c, 0, 55, 0
2, 39552, Note_on_c, 0, 57, 86
2, 39678, Note_on_c, 0, 57, 0
2, 39678, Note_on_c, 0, 59, 86
2, 39806, Note_on_c, 0, 59, 0
2, 39806, Note_on_c, 0, 57, 86
2, 39934, Note_on_c, 0, 57, 0
2, 39936, Note_on_c, 0, 55, 86
2, 40320, Note_on_c, 0, 61, 0
2, 40320, Note_on_c, 0, 61, 86
2, 40704, Note_on_c, 0, 61, 0
2, 40704, Note_on_c, 0, 64, 86
2, 41088, Note_on_c, 0, 64, 0
2, 41088, Note_on_c, 0, 61, 86
2, 41472, Note_on_c, 0, 61, 0
2, 41472, Note_on_c, 0, 66, 86
2, 41856, Note_on_c, 0, 55, 0
2, 41856, Note_on_c, 0, 57, 86
2, 41982, Note_on_c, 0, 57, 0
2, 41982, Note_on_c, 0, 59, 86
2, 42110, Note_on_c, 0, 59, 0
2, 42110, Note_on_c, 0, 61, 86
2, 42238, Note_on_c, 0, 61, 0
2, 42240, Note_on_c, 0, 59, 86
2, 42366, Note_on_c, 0, 59, 0
2, 42366, Note_on_c, 0, 57, 86
2, 42494, Note_on_c, 0, 57, 0
2, 42494, Note_on_c, 0, 59, 86
2, 42622, Note_on_c, 0, 59, 0
2, 42624, Note_on_c, 0, 61, 86
2, 42750, Note_on_c, 0, 61, 0
2, 42750, Note_on_c, 0, 59, 86
2, 42878, Note_on_c, 0, 59, 0
2, 42878, Note_on_c, 0, 57, 86
2, 43006, Note_on_c, 0, 57, 0
2, 43008, Note_on_c, 0, 61, 86
2, 43392, Note_on_c, 0, 66, 0
2, 43392, Note_on_c, 0, 66, 86
2, 43776, Note_on_c, 0, 66, 0
2, 43776, Note_on_c, 0, 61, 0
2, 43776, Note_on_c, 0, 63, 86
2, 43776, Note_on_c, 0, 69, 86
2, 44160, Note_on_c, 0, 69, 0
2, 44160, Note_on_c, 0, 66, 86
2, 44544, Note_on_c, 0, 66, 0
2, 44544, Note_on_c, 0, 71, 86
2, 44928, Note_on_c, 0, 71, 0
2, 44928, Note_on_c, 0, 68, 86
2, 45312, Note_on_c, 0, 68, 0
2, 45312, Note_on_c, 0, 63, 0
2, 45312, Note_on_c, 0, 64, 86
2, 45312, Note_on_c, 0, 71, 86
2, 45696, Note_on_c, 0, 71, 0
2, 45696, Note_on_c, 0, 68, 86
2, 46080, Note_on_c, 0, 68, 0
2, 46080, Note_on_c, 0, 64, 0
2, 46080, Note_on_c, 0, 69, 86
2, 46080, Note_on_c, 0, 73, 86
2, 48000, Note_on_c, 0, 73, 0
2, 48000, Note_on_c, 0, 69, 0
2, 48000, Note_on_c, 0, 66, 86
2, 48000, Note_on_c, 0, 69, 86
2, 48384, Note_on_c, 0, 69, 0
2, 48384, Note_on_c, 0, 66, 0
2, 48384, Note_on_c, 0, 68, 86
2, 48384, Note_on_c, 0, 71, 86
2, 48768, Note_on_c, 0, 71, 0
2, 48768, Note_on_c, 0, 68, 0
2, 48768, Note_on_c, 0, 69, 86
2, 48768, Note_on_c, 0, 73, 86
2, 49152, Note_on_c, 0, 73, 0
2, 49152, Note_on_c, 0, 69, 0
2, 49152, Note_on_c, 0, 69, 86
2, 49152, Note_on_c, 0, 73, 86
2, 51072, Note_on_c, 0, 73, 0
2, 51072, Note_on_c, 0, 69, 0
2, 51072, Note_on_c, 0, 66, 86
2, 51072, Note_on_c, 0, 69, 86
2, 51198, Note_on_c, 0, 66, 0
2, 51198, Note_on_c, 0, 61, 86
2, 51326, Note_on_c, 0, 61, 0
2, 51326, Note_on_c, 0, 64, 86
2, 51454, Note_on_c, 0, 64, 0
2, 51456, Note_on_c, 0, 69, 0
2, 51456, Note_on_c, 0, 68, 86
2, 51456, Note_on_c, 0, 71, 86
2, 51582, Note_on_c, 0, 68, 0
2, 51582, Note_on_c, 0, 63, 86
2, 51710, Note_on_c, 0, 63, 0
2, 51710, Note_on_c, 0, 66, 86
2, 51838, Note_on_c, 0, 66, 0
2, 51840, Note_on_c, 0, 71, 0
2, 51840, Note_on_c, 0, 69, 86
2, 51840, Note_on_c, 0, 73, 86
2, 51966, Note_on_c, 0, 69, 0
2, 51966, Note_on_c, 0, 64, 86
2, 52094, Note_on_c, 0, 64, 0
2, 52094, Note_on_c, 0, 68, 86
2, 52222, Note_on_c, 0, 68, 0
2, 52224, Note_on_c, 0, 73, 0
2, 52224, Note_on_c, 0, 71, 86
2, 52224, Note_on_c, 0, 75, 86
2, 52350, Note_on_c, 0, 71, 0
2, 52350, Note_on_c, 0, 66, 86
2, 52478, Note_on_c, 0, 66, 0
2, 52478, Note_on_c, 0, 69, 86
2, 52606, Note_on_c, 0, 69, 0
2, 52608, Note_on_c, 0, 75, 0
2, 52608, Note_on_c, 0, 73, 86
2, 52608, Note_on_c, 0, 76, 86
2, 52734, Note_on_c, 0, 73, 0
2, 52734, Note_on_c, 0, 68, 86
2, 52862, Note_on_c, 0, 68, 0
2, 52862, Note_on_c, 0, 71, 86
2, 52990, Note_on_c, 0, 71, 0
2, 52992, Note_on_c, 0, 76, 0
2, 52992, Note_on_c, 0, 75, 86
2, 52992, Note_on_c, 0, 78, 86
2, 53118, Note_on_c, 0, 75, 0
2, 53118, Note_on_c, 0, 69, 86
2, 53246, Note_on_c, 0, 69, 0
2, 53246, Note_on_c, 0, 73, 86
2, 53374, Note_on_c, 0, 73, 0
2, 53376, Note_on_c, 0, 78, 0
2, 53376, Note_on_c, 0, 76, 86
2, 53376, Note_on_c, 0, 80, 86
2, 53502, Note_on_c, 0, 76, 0
2, 53502, Note_on_c, 0, 71, 86
2, 53630, Note_on_c, 0, 71, 0
2, 53630, Note_on_c, 0, 75, 86
2, 53758, Note_on_c, 0, 75, 0
2, 53760, Note_on_c, 0, 80, 0
2, 53760, Note_on_c, 0, 78, 86
2, 53760, Note_on_c, 0, 81, 86
2, 53886, Note_on_c, 0, 78, 0
2, 53886, Note_on_c, 0, 73, 86
2, 54014, Note_on_c, 0, 73, 0
2, 54014, Note_on_c, 0, 76, 86
2, 54142, Note_on_c, 0, 76, 0
2, 54144, Note_on_c, 0, 81, 0
2, 54144, Note_on_c, 0, 80, 86
2, 54144, Note_on_c, 0, 83, 86
2, 54270, Note_on_c, 0, 80, 0
2, 54270, Note_on_c, 0, 75, 86
2, 54398, Note_on_c, 0, 75, 0
2, 54398, Note_on_c, 0, 78, 86
2, 54526, Note_on_c, 0, 78, 0
2, 54528, Note_on_c, 0, 83, 0
2, 54528, Note_on_c, 0, 81, 86
2, 54528, Note_on_c, 0, 85, 86
2, 54654, Note_on_c, 0, 81, 0
2, 54654, Note_on_c, 0, 76, 86
2, 54782, Note_on_c, 0, 76, 0
2, 54782, Note_on_c, 0, 80, 86
2, 54910, Note_on_c, 0, 80, 0
2, 54912, Note_on_c, 0, 85, 0
2, 54912, Note_on_c, 0, 83, 86
2, 54912, Note_on_c, 0, 87, 86
2, 55038, Note_on_c, 0, 83, 0
2, 55038, Note_on_c, 0, 78, 86
2, 55166, Note_on_c, 0, 78, 0
2, 55166, Note_on_c, 0, 81, 86
2, 55294, Note_on_c, 0, 81, 0
2, 55296, Note_on_c, 0, 87, 0
2, 55296, Note_on_c, 0, 80, 86
2, 55296, Note_on_c, 0, 83, 86
2, 55296, Note_on_c, 0, 90, 86
2, 56064, Note_on_c, 0, 90, 0
2, 56064, Note_on_c, 0, 88, 86
2, 56832, Note_on_c, 0, 88, 0
2, 56832, Note_on_c, 0, 83, 0
2, 56832, Note_on_c, 0, 80, 0
2, 56832, Note_on_c, 0, 76, 86
2, 58368, Note_on_c, 0, 76, 0
2, 58368, Note_on_c, 0, 69, 86
2, 58368, Note_on_c, 0, 76, 86
2, 58494, Note_on_c, 0, 76, 0
2, 58494, Note_on_c, 0, 74, 86
2, 58622, Note_on_c, 0, 74, 0
2, 58622, Note_on_c, 0, 76, 86
2, 58750, Note_on_c, 0, 76, 0
2, 58752, Note_on_c, 0, 73, 86
2, 59328, Note_on_c, 0, 73, 0
2, 59328, Note_on_c, 0, 71, 86
2, 59520, Note_on_c, 0, 71, 0
2, 59520, Note_on_c, 0, 69, 0
2, 59520, Note_on_c, 0, 68, 86
2, 59520, Note_on_c, 0, 71, 86
2, 59712, Note_on_c, 0, 71, 0
2, 59712, Note_on_c, 0, 73, 86
2, 59904, Note_on_c, 0, 73, 0
2, 59904, Note_on_c, 0, 68, 0
2, 59904, Note_on_c, 0, 66, 86
2, 59904, Note_on_c, 0, 66, 86
2, 59904, Note_on_c, 0, 69, 86
2, 60288, Note_on_c, 0, 69, 0
2, 60288, Note_on_c, 0, 66, 0
2, 60288, Note_on_c, 0, 63, 86
2, 60288, Note_on_c, 0, 66, 86
2, 60289, Note_on_c, 0, 66, 0
2, 61056, Note_on_c, 0, 66, 0
2, 61056, Note_on_c, 0, 68, 86
2, 61440, Note_on_c, 0, 68, 0
2, 61440, Note_on_c, 0, 63, 0
2, 61440, Note_on_c, 0, 56, 86
2, 61440, Note_on_c, 0, 62, 86
2, 61440, Note_on_c, 0, 66, 86
2, 61632, Note_on_c, 0, 66, 0
2, 61632, Note_on_c, 0, 64, 86
2, 61824, Note_on_c, 0, 64, 0
2, 61824, Note_on_c, 0, 62, 0
2, 61824, Note_on_c, 0, 56, 0
2, 61824, Note_on_c, 0, 71, 86
2, 61824, Note_on_c, 0, 74, 86
2, 61824, Note_on_c, 0, 78, 86
2, 62592, Note_on_c, 0, 78, 0
2, 62592, Note_on_c, 0, 76, 86
2, 62976, Note_on_c, 0, 76, 0
2, 62976, Note_on_c, 0, 74, 0
2, 62976, Note_on_c, 0, 71, 0
2, 62976, Note_on_c, 0, 57, 86
2, 62976, Note_on_c, 0, 61, 86
2, 62976, Note_on_c, 0, 66, 86
2, 63168, Note_on_c, 0, 66, 0
2, 63168, Note_on_c, 0, 64, 86
2, 63360, Note_on_c, 0, 64, 0
2, 63360, Note_on_c, 0, 61, 0
2, 63360, Note_on_c, 0, 57, 0
2, 63360, Note_on_c, 0, 69, 86
2, 63360, Note_on_c, 0, 73, 86
2, 63360, Note_on_c, 0, 80, 86
2, 63936, Note_on_c, 0, 80, 0
2, 63936, Note_on_c, 0, 83, 86
2, 64128, Note_on_c, 0, 83, 0
2, 64128, Note_on_c, 0, 81, 86
2, 64320, Note_on_c, 0, 81, 0
2, 64320, Note_on_c, 0, 78, 86
2, 64512, Note_on_c, 0, 78, 0
2, 64512, Note_on_c, 0, 73, 0
2, 64512, Note_on_c, 0, 69, 0
2, 64512, Note_on_c, 0, 69, 86
2, 64512, Note_on_c, 0, 76, 86
2, 64638, Note_on_c, 0, 76, 0
2, 64638, Note_on_c, 0, 74, 86
2, 64766, Note_on_c, 0, 74, 0
2, 64766, Note_on_c, 0, 76, 86
2, 64894, Note_on_c, 0, 76, 0
2, 64896, Note_on_c, 0, 73, 86
2, 65472, Note_on_c, 0, 73, 0
2, 65472, Note_on_c, 0, 71, 86
2, 65664, Note_on_c, 0, 71, 0
2, 65664, Note_on_c, 0, 69, 0
2, 65664, Note_on_c, 0, 68, 86
2, 65664, Note_on_c, 0, 71, 86
2, 65856, Note_on_c, 0, 71, 0
2, 65856, Note_on_c, 0, 73, 86
2, 66048, Note_on_c, 0, 73, 0
2, 66048, Note_on_c, 0, 68, 0
2, 66048, Note_on_c, 0, 64, 86
2, 66048, Note_on_c, 0, 69, 86
2, 66432, Note_on_c, 0, 69, 0
2, 66432, Note_on_c, 0, 66, 86
2, 66816, Note_on_c, 0, 64, 0
2, 66816, Note_on_c, 0, 63, 86
2, 67008, Note_on_c, 0, 66, 0
2, 67008, Note_on_c, 0, 66, 86
2, 67200, Note_on_c, 0, 66, 0
2, 67200, Note_on_c, 0, 63, 0
2, 67200, Note_on_c, 0, 61, 86
2, 67200, Note_on_c, 0, 66, 86
2, 67392, Note_on_c, 0, 66, 0
2, 67392, Note_on_c, 0, 68, 86
2, 67584, Note_on_c, 0, 68, 0
2, 67584, Note_on_c, 0, 61, 0
2, 67584, Note_on_c, 0, 59, 86
2, 67584, Note_on_c, 0, 66, 86
2, 67710, Note_on_c, 0, 66, 0
2, 67710, Note_on_c, 0, 64, 86
2, 67776, Note_on_c, 0, 59, 0
2, 67838, Note_on_c, 0, 64, 0
2, 67838, Note_on_c, 0, 59, 86
2, 67966, Note_on_c, 0, 59, 0
2, 67968, Note_on_c, 0, 57, 86
2, 67968, Note_on_c, 0, 61, 86
2, 68736, Note_on_c, 0, 61, 0
2, 68736, Note_on_c, 0, 57, 0
2, 68736, Note_on_c, 0, 57, 86
2, 68736, Note_on_c, 0, 61, 86
2, 68736, Note_on_c, 0, 64, 86
2, 69120, Note_on_c, 0, 64, 0
2, 69120, Note_on_c, 0, 61, 0
2, 69120, Note_on_c, 0, 57, 0
2, 69120, Note_on_c, 0, 57, 86
2, 69120, Note_on_c, 0, 59, 86
2, 69120, Note_on_c, 0, 64, 86
2, 69504, Note_on_c, 0, 57, 0
2, 69504, Note_on_c, 0, 56, 86
2, 70272, Note_on_c, 0, 56, 0
2, 70272, Note_on_c, 0, 64, 0
2, 70272, Note_on_c, 0, 59, 0
2, 70656, Note_on_c, 0, 50, 84
2, 70782, Note_on_c, 0, 50, 0
2, 70782, Note_on_c, 0, 54, 84
2, 70910, Note_on_c, 0, 54, 0
2, 70910, Note_on_c, 0, 57, 85
2, 71038, Note_on_c, 0, 57, 0
2, 71040, Note_on_c, 0, 61, 85
2, 71166, Note_on_c, 0, 61, 0
2, 71166, Note_on_c, 0, 59, 86
2, 71294, Note_on_c, 0, 59, 0
2, 71294, Note_on_c, 0, 57, 86
2, 71422, Note_on_c, 0, 57, 0
2, 71424, Note_on_c, 0, 56, 86
2, 71550, Note_on_c, 0, 56, 0
2, 71550, Note_on_c, 0, 59, 87
2, 71678, Note_on_c, 0, 59, 0
2, 71678, Note_on_c, 0, 62, 87
2, 71806, Note_on_c, 0, 62, 0
2, 71808, Note_on_c, 0, 66, 88
2, 71934, Note_on_c, 0, 66, 0
2, 71934, Note_on_c, 0, 64, 88
2, 72062, Note_on_c, 0, 64, 0
2, 72062, Note_on_c, 0, 62, 88
2, 72190, Note_on_c, 0, 62, 0
2, 72192, Note_on_c, 0, 61, 89
2, 72318, Note_on_c, 0, 61, 0
2, 72318, Note_on_c, 0, 64, 89
2, 72446, Note_on_c, 0, 64, 0
2, 72446, Note_on_c, 0, 68, 89
2, 72574, Note_on_c, 0, 68, 0
2, 72576, Note_on_c, 0, 71, 90
2, 72702, Note_on_c, 0, 71, 0
2, 72702, Note_on_c, 0, 69, 90
2, 72830, Note_on_c, 0, 69, 0
2, 72830, Note_on_c, 0, 68, 90
2, 72958, Note_on_c, 0, 68, 0
2, 72960, Note_on_c, 0, 66, 91
2, 73086, Note_on_c, 0, 66, 0
2, 73086, Note_on_c, 0, 69, 91
2, 73214, Note_on_c, 0, 69, 0
2, 73214, Note_on_c, 0, 73, 92
2, 73342, Note_on_c, 0, 73, 0
2, 73344, Note_on_c, 0, 76, 92
2, 73470, Note_on_c, 0, 76, 0
2, 73470, Note_on_c, 0, 74, 92
2, 73598, Note_on_c, 0, 74, 0
2, 73598, Note_on_c, 0, 73, 92
2, 73726, Note_on_c, 0, 73, 0
2, 73728, Note_on_c, 0, 71, 92
2, 73854, Note_on_c, 0, 71, 0
2, 73854, Note_on_c, 0, 74, 93
2, 73982, Note_on_c, 0, 74, 0
2, 73982, Note_on_c, 0, 78, 93
2, 74110, Note_on_c, 0, 78, 0
2, 74112, Note_on_c, 0, 81, 93
2, 74496, Note_on_c, 0, 71, 94
2, 74496, Note_on_c, 0, 74, 94
2, 74688, Note_on_c, 0, 81, 0
2, 74688, Note_on_c, 0, 80, 95
2, 74880, Note_on_c, 0, 80, 0
2, 74880, Note_on_c, 0, 74, 0
2, 74880, Note_on_c, 0, 71, 0
2, 74880, Note_on_c, 0, 68, 95
2, 74880, Note_on_c, 0, 74, 95
2, 74880, Note_on_c, 0, 78, 95
2, 75072, Note_on_c, 0, 78, 0
2, 75072, Note_on_c, 0, 76, 96
2, 75264, Note_on_c, 0, 76, 0
2, 75264, Note_on_c, 0, 74, 0
2, 75264, Note_on_c, 0, 68, 0
2, 75264, Note_on_c, 0, 69, 97
2, 75264, Note_on_c, 0, 73, 97
2, 75264, Note_on_c, 0, 78, 97
2, 75456, Note_on_c, 0, 78, 0
2, 75456, Note_on_c, 0, 76, 96
2, 75648, Note_on_c, 0, 76, 0
2, 75648, Note_on_c, 0, 74, 95
2, 75840, Note_on_c, 0, 74, 0
2, 75840, Note_on_c, 0, 73, 93
2, 76032, Note_on_c, 0, 73, 0
2, 76032, Note_on_c, 0, 73, 0
2, 76032, Note_on_c, 0, 69, 0
2, 76032, Note_on_c, 0, 69, 92
2, 76032, Note_on_c, 0, 74, 92
2, 76224, Note_on_c, 0, 74, 0
2, 76224, Note_on_c, 0, 73, 91
2, 76416, Note_on_c, 0, 73, 0
2, 76416, Note_on_c, 0, 71, 89
2, 76608, Note_on_c, 0, 71, 0
2, 76608, Note_on_c, 0, 69, 88
2, 76800, Note_on_c, 0, 69, 0
2, 76800, Note_on_c, 0, 69, 0
2, 76800, Note_on_c, 0, 50, 84
2, 76926, Note_on_c, 0, 50, 0
2, 76926, Note_on_c, 0, 54, 84
2, 77054, Note_on_c, 0, 54, 0
2, 77054, Note_on_c, 0, 57, 85
2, 77182, Note_on_c, 0, 57, 0
2, 77184, Note_on_c, 0, 61, 85
2, 77310, Note_on_c, 0, 61, 0
2, 77310, Note_on_c, 0, 59, 86
2, 77438, Note_on_c, 0, 59, 0
2, 77438, Note_on_c, 0, 57, 86
2, 77566, Note_on_c, 0, 57, 0
2, 77568, Note_on_c, 0, 56, 86
2, 77694, Note_on_c, 0, 56, 0
2, 77694, Note_on_c, 0, 59, 87
2, 77822, Note_on_c, 0, 59, 0
2, 77822, Note_on_c, 0, 62, 87
2, 77950, Note_on_c, 0, 62, 0
2, 77952, Note_on_c, 0, 66, 88
2, 78078, Note_on_c, 0, 66, 0
2, 78078, Note_on_c, 0, 64, 88
2, 78206, Note_on_c, 0, 64, 0
2, 78206, Note_on_c, 0, 62, 88
2, 78334, Note_on_c, 0, 62, 0
2, 78336, Note_on_c, 0, 61, 89
2, 78462, Note_on_c, 0, 61, 0
2, 78462, Note_on_c, 0, 64, 89
2, 78590, Note_on_c, 0, 64, 0
2, 78590, Note_on_c, 0, 68, 89
2, 78718, Note_on_c, 0, 68, 0
2, 78720, Note_on_c, 0, 71, 89
2, 78846, Note_on_c, 0, 71, 0
2, 78846, Note_on_c, 0, 69, 90
2, 78974, Note_on_c, 0, 69, 0
2, 78974, Note_on_c, 0, 68, 90
2, 79102, Note_on_c, 0, 68, 0
2, 79104, Note_on_c, 0, 66, 90
2, 79230, Note_on_c, 0, 66, 0
2, 79230, Note_on_c, 0, 69, 91
2, 79358, Note_on_c, 0, 69, 0
2, 79358, Note_on_c, 0, 73, 91
2, 79486, Note_on_c, 0, 73, 0
2, 79488, Note_on_c, 0, 76, 92
2, 79614, Note_on_c, 0, 76, 0
2, 79614, Note_on_c, 0, 74, 92
2, 79742, Note_on_c, 0, 74, 0
2, 79742, Note_on_c, 0, 73, 92
2, 79870, Note_on_c, 0, 73, 0
2, 79872, Note_on_c, 0, 71, 92
2, 79998, Note_on_c, 0, 71, 0
2, 79998, Note_on_c, 0, 74, 92
2, 80126, Note_on_c, 0, 74, 0
2, 80126, Note_on_c, 0, 78, 93
2, 80254, Note_on_c, 0, 78, 0
2, 80256, Note_on_c, 0, 81, 93
2, 80640, Note_on_c, 0, 71, 94
2, 80640, Note_on_c, 0, 74, 94
2, 80832, Note_on_c, 0, 81, 0
2, 80832, Note_on_c, 0, 80, 94
2, 81024, Note_on_c, 0, 80, 0
2, 81024, Note_on_c, 0, 78, 95
2, 81216, Note_on_c, 0, 78, 0
2, 81216, Note_on_c, 0, 80, 95
2, 81408, Note_on_c, 0, 80, 0
2, 81408, Note_on_c, 0, 74, 0
2, 81408, Note_on_c, 0, 71, 0
2, 81408, Note_on_c, 0, 71, 96
2, 81534, Note_on_c, 0, 71, 0
2, 81534, Note_on_c, 0, 74, 96
2, 81662, Note_on_c, 0, 74, 0
2, 81662, Note_on_c, 0, 78, 96
2, 81790, Note_on_c, 0, 78, 0
2, 81792, Note_on_c, 0, 81, 96
2, 82176, Note_on_c, 0, 71, 97
2, 82176, Note_on_c, 0, 74, 97
2, 82368, Note_on_c, 0, 81, 0
2, 82368, Note_on_c, 0, 80, 98
2, 82560, Note_on_c, 0, 80, 0
2, 82560, Note_on_c, 0, 78, 98
2, 82752, Note_on_c, 0, 78, 0
2, 82752, Note_on_c, 0, 80, 99
2, 82944, Note_on_c, 0, 80, 0
2, 82944, Note_on_c, 0, 74, 0
2, 82944, Note_on_c, 0, 71, 0
2, 82944, Note_on_c, 0, 68, 82
2, 82944, Note_on_c, 0, 76, 82
2, 83070, Note_on_c, 0, 76, 0
2, 83070, Note_on_c, 0, 74, 82
2, 83198, Note_on_c, 0, 74, 0
2, 83198, Note_on_c, 0, 76, 82
2, 83326, Note_on_c, 0, 76, 0
2, 83328, Note_on_c, 0, 73, 82
2, 83712, Note_on_c, 0, 68, 0
2, 83712, Note_on_c, 0, 66, 82
2, 83904, Note_on_c, 0, 73, 0
2, 83904, Note_on_c, 0, 71, 82
2, 84096, Note_on_c, 0, 71, 0
2, 84096, Note_on_c, 0, 66, 0
2, 84096, Note_on_c, 0, 65, 82
2, 84096, Note_on_c, 0, 71, 82
2, 84288, Note_on_c, 0, 71, 0
2, 84288, Note_on_c, 0, 73, 82
2, 84480, Note_on_c, 0, 73, 0
2, 84480, Note_on_c, 0, 65, 0
2, 84480, Note_on_c, 0, 64, 82
2, 84480, Note_on_c, 0, 69, 82
2, 84864, Note_on_c, 0, 69, 0
2, 84864, Note_on_c, 0, 66, 82
2, 85248, Note_on_c, 0, 64, 0
2, 85248, Note_on_c, 0, 63, 82
2, 85632, Note_on_c, 0, 66, 0
2, 85632, Note_on_c, 0, 68, 82
2, 86016, Note_on_c, 0, 68, 0
2, 86016, Note_on_c, 0, 63, 0
2, 86016, Note_on_c, 0, 56, 84
2, 86016, Note_on_c, 0, 62, 84
2, 86016, Note_on_c, 0, 66, 84
2, 86208, Note_on_c, 0, 66, 0
2, 86208, Note_on_c, 0, 64, 86
2, 86400, Note_on_c, 0, 64, 0
2, 86400, Note_on_c, 0, 62, 0
2, 86400, Note_on_c, 0, 56, 0
2, 86400, Note_on_c, 0, 71, 88
2, 86400, Note_on_c, 0, 74, 88
2, 86400, Note_on_c, 0, 78, 88
2, 87168, Note_on_c, 0, 78, 0
2, 87168, Note_on_c, 0, 76, 93
2, 87552, Note_on_c, 0, 76, 0
2, 87552, Note_on_c, 0, 74, 0
2, 87552, Note_on_c, 0, 71, 0
2, 87552, Note_on_c, 0, 57, 95
2, 87552, Note_on_c, 0, 61, 95
2, 87552, Note_on_c, 0, 66, 95
2, 87744, Note_on_c, 0, 66, 0
2, 87744, Note_on_c, 0, 64, 94
2, 87936, Note_on_c, 0, 64, 0
2, 87936, Note_on_c, 0, 61, 0
2, 87936, Note_on_c, 0, 57, 0
2, 87936, Note_on_c, 0, 69, 93
2, 87936, Note_on_c, 0, 73, 93
2, 87936, Note_on_c, 0, 80, 93
2, 88512, Note_on_c, 0, 80, 0
2, 88512, Note_on_c, 0, 83, 89
2, 88704, Note_on_c, 0, 83, 0
2, 88704, Note_on_c, 0, 81, 88
2, 88896, Note_on_c, 0, 81, 0
2, 88896, Note_on_c, 0, 78, 86
2, 89088, Note_on_c, 0, 78, 0
2, 89088, Note_on_c, 0, 73, 0
2, 89088, Note_on_c, 0, 69, 0
2, 89088, Note_on_c, 0, 69, 86
2, 89088, Note_on_c, 0, 76, 86
2, 89214, Note_on_c, 0, 76, 0
2, 89214, Note_on_c, 0, 74, 86
2, 89342, Note_on_c, 0, 74, 0
2, 89342, Note_on_c, 0, 76, 86
2, 89470, Note_on_c, 0, 76, 0
2, 89472, Note_on_c, 0, 73, 86
2, 90048, Note_on_c, 0, 73, 0
2, 90048, Note_on_c, 0, 71, 86
2, 90240, Note_on_c, 0, 71, 0
2, 90240, Note_on_c, 0, 69, 0
2, 90240, Note_on_c, 0, 68, 86
2, 90240, Note_on_c, 0, 71, 86
2, 90432, Note_on_c, 0, 71, 0
2, 90432, Note_on_c, 0, 73, 86
2, 90624, Note_on_c, 0, 73, 0
2, 90624, Note_on_c, 0, 68, 0
2, 90624, Note_on_c, 0, 64, 86
2, 90624, Note_on_c, 0, 69, 86
2, 91008, Note_on_c, 0, 69, 0
2, 91008, Note_on_c, 0, 68, 86
2, 91392, Note_on_c, 0, 64, 0
2, 91392, Note_on_c, 0, 63, 86
2, 91584, Note_on_c, 0, 68, 0
2, 91584, Note_on_c, 0, 66, 86
2, 91776, Note_on_c, 0, 66, 0
2, 91776, Note_on_c, 0, 63, 0
2, 91776, Note_on_c, 0, 61, 86
2, 91776, Note_on_c, 0, 66, 86
2, 91968, Note_on_c, 0, 66, 0
2, 91968, Note_on_c, 0, 68, 86
2, 92160, Note_on_c, 0, 68, 0
2, 92160, Note_on_c, 0, 61, 0
2, 92160, Note_on_c, 0, 59, 86
2, 92160, Note_on_c, 0, 66, 86
2, 92286, Note_on_c, 0, 66, 0
2, 92286, Note_on_c, 0, 64, 86
2, 92352, Note_on_c, 0, 59, 0
2, 92414, Note_on_c, 0, 64, 0
2, 92414, Note_on_c, 0, 59, 86
2, 92542, Note_on_c, 0, 59, 0
2, 92544, Note_on_c, 0, 57, 86
2, 92544, Note_on_c, 0, 61, 86
2, 93312, Note_on_c, 0, 61, 0
2, 93312, Note_on_c, 0, 57, 0
2, 93312, Note_on_c, 0, 57, 86
2, 93312, Note_on_c, 0, 61, 86
2, 93312, Note_on_c, 0, 64, 86
2, 93696, Note_on_c, 0, 64, 0
2, 93696, Note_on_c, 0, 61, 0
2, 93696, Note_on_c, 0, 57, 0
2, 93696, Note_on_c, 0, 57, 86
2, 93696, Note_on_c, 0, 59, 86
2, 93696, Note_on_c, 0, 64, 86
2, 94080, Note_on_c, 0, 57, 0
2, 94080, Note_on_c, 0, 56, 86
2, 94848, Note_on_c, 0, 56, 0
2, 94848, Note_on_c, 0, 64, 0
2, 94848, Note_on_c, 0, 59, 0
2, 95232, Note_on_c, 0, 55, 99
2, 95232, Note_on_c, 0, 60, 99
2, 95232, Note_on_c, 0, 67, 99
2, 95358, Note_on_c, 0, 67, 0
2, 95358, Note_on_c, 0, 65, 99
2, 95486, Note_on_c, 0, 65, 0
2, 95486, Note_on_c, 0, 67, 99
2, 95614, Note_on_c, 0, 67, 0
2, 95616, Note_on_c, 0, 60, 0
2, 95616, Note_on_c, 0, 55, 0
2, 95616, Note_on_c, 0, 57, 99
2, 95616, Note_on_c, 0, 60, 99
2, 95616, Note_on_c, 0, 64, 99
2, 96384, Note_on_c, 0, 64, 0
2, 96384, Note_on_c, 0, 60, 0
2, 96384, Note_on_c, 0, 57, 0
2, 96384, Note_on_c, 0, 53, 99
2, 96384, Note_on_c, 0, 59, 99
2, 96384, Note_on_c, 0, 62, 99
2, 96768, Note_on_c, 0, 62, 0
2, 96768, Note_on_c, 0, 59, 0
2, 96768, Note_on_c, 0, 53, 0
2, 96768, Note_on_c, 0, 52, 99
2, 96768, Note_on_c, 0, 57, 99
2, 96768, Note_on_c, 0, 60, 99
2, 97152, Note_on_c, 0, 60, 0
2, 97152, Note_on_c, 0, 57, 0
2, 97152, Note_on_c, 0, 52, 0
2, 97152, Note_on_c, 0, 50, 99
2, 97152, Note_on_c, 0, 53, 99
2, 97152, Note_on_c, 0, 55, 99
2, 97920, Note_on_c, 0, 55, 0
2, 97920, Note_on_c, 0, 53, 0
2, 97920, Note_on_c, 0, 50, 0
2, 97920, Note_on_c, 0, 52, 99
2, 97920, Note_on_c, 0, 57, 99
2, 97920, Note_on_c, 0, 60, 99
2, 98304, Note_on_c, 0, 60, 0
2, 98304, Note_on_c, 0, 57, 0
2, 98304, Note_on_c, 0, 52, 0
2, 98304, Note_on_c, 0, 53, 99
2, 98304, Note_on_c, 0, 59, 99
2, 98304, Note_on_c, 0, 62, 99
2, 98688, Note_on_c, 0, 62, 0
2, 98688, Note_on_c, 0, 59, 0
2, 98688, Note_on_c, 0, 53, 0
2, 98688, Note_on_c, 0, 57, 99
2, 98688, Note_on_c, 0, 60, 99
2, 98688, Note_on_c, 0, 65, 99
2, 99072, Note_on_c, 0, 65, 0
2, 99072, Note_on_c, 0, 60, 0
2, 99072, Note_on_c, 0, 57, 0
2, 99072, Note_on_c, 0, 55, 99
2, 99072, Note_on_c, 0, 60, 99
2, 99072, Note_on_c, 0, 67, 99
2, 99456, Note_on_c, 0, 67, 0
2, 99456, Note_on_c, 0, 60, 0
2, 99456, Note_on_c, 0, 55, 0
2, 99456, Note_on_c, 0, 60, 99
2, 99456, Note_on_c, 0, 65, 99
2, 99456, Note_on_c, 0, 69, 99
2, 99648, Note_on_c, 0, 69, 0
2, 99648, Note_on_c, 0, 72, 99
2, 99840, Note_on_c, 0, 72, 0
2, 99840, Note_on_c, 0, 65, 0
2, 99840, Note_on_c, 0, 60, 0
2, 99840, Note_on_c, 0, 65, 99
2, 99840, Note_on_c, 0, 71, 99
2, 99840, Note_on_c, 0, 74, 99
2, 100608, Note_on_c, 0, 74, 0
2, 100608, Note_on_c, 0, 71, 0
2, 100608, Note_on_c, 0, 67, 99
2, 101328, Note_on_c, 0, 67, 0
2, 101328, Note_on_c, 0, 65, 0
2, 101376, Note_on_c, 0, 72, 95
2, 101376, Note_on_c, 0, 79, 95
2, 101502, Note_on_c, 0, 79, 0
2, 101502, Note_on_c, 0, 77, 95
2, 101630, Note_on_c, 0, 77, 0
2, 101630, Note_on_c, 0, 79, 95
2, 101758, Note_on_c, 0, 79, 0
2, 101760, Note_on_c, 0, 76, 95
2, 102528, Note_on_c, 0, 76, 0
2, 102528, Note_on_c, 0, 74, 93
2, 102912, Note_on_c, 0, 74, 0
2, 102912, Note_on_c, 0, 76, 92
2, 103680, Note_on_c, 0, 76, 0
2, 103680, Note_on_c, 0, 77, 91
2, 104448, Note_on_c, 0, 77, 0
2, 104448, Note_on_c, 0, 72, 0
2, 104448, Note_on_c, 0, 72, 89
2, 104448, Note_on_c, 0, 79, 89
2, 104574, Note_on_c, 0, 79, 0
2, 104574, Note_on_c, 0, 77, 89
2, 104702, Note_on_c, 0, 77, 0
2, 104702, Note_on_c, 0, 79, 89
2, 104830, Note_on_c, 0, 79, 0
2, 104832, Note_on_c, 0, 76, 89
2, 105600, Note_on_c, 0, 76, 0
2, 105600, Note_on_c, 0, 79, 87
2, 105984, Note_on_c, 0, 79, 0
2, 105984, Note_on_c, 0, 80, 86
2, 106110, Note_on_c, 0, 80, 0
2, 106110, Note_on_c, 0, 78, 86
2, 106238, Note_on_c, 0, 78, 0
2, 106238, Note_on_c, 0, 80, 86
2, 106366, Note_on_c, 0, 80, 0
2, 106368, Note_on_c, 0, 76, 85
2, 106752, Note_on_c, 0, 72, 0
2, 106752, Note_on_c, 0, 73, 84
2, 107136, Note_on_c, 0, 76, 0
2, 107136, Note_on_c, 0, 80, 83
2, 107520, Note_on_c, 0, 80, 0
2, 107520, Note_on_c, 0, 73, 0
2, 107520, Note_on_c, 0, 81, 89
2, 107558, Control_c, 0, 64, 127
2, 107904, Note_on_c, 0, 73, 86
2, 108030, Note_on_c, 0, 73, 0
2, 108030, Note_on_c, 0, 76, 86
2, 108158, Note_on_c, 0, 76, 0
2, 108158, Note_on_c, 0, 78, 86
2, 108249, Control_c, 0, 64, 0
2, 108286, Note_on_c, 0, 78, 0
2, 108288, Note_on_c, 0, 81, 0
2, 108288, Note_on_c, 0, 80, 89
2, 108326, Control_c, 0, 64, 127
2, 108414, Note_on_c, 0, 75, 86
2, 108542, Note_on_c, 0, 75, 0
2, 108542, Note_on_c, 0, 71, 86
2, 108670, Note_on_c, 0, 71, 0
2, 108998, Control_c, 0, 64, 0
2, 109056, Note_on_c, 0, 80, 0
2, 109056, Note_on_c, 0, 78, 89
2, 109094, Control_c, 0, 64, 127
2, 109440, Note_on_c, 0, 69, 86
2, 109566, Note_on_c, 0, 69, 0
2, 109566, Note_on_c, 0, 73, 86
2, 109694, Note_on_c, 0, 73, 0
2, 109694, Note_on_c, 0, 75, 86
2, 109785, Control_c, 0, 64, 0
2, 109822, Note_on_c, 0, 75, 0
2, 109824, Note_on_c, 0, 78, 0
2, 109824, Note_on_c, 0, 76, 89
2, 109862, Control_c, 0, 64, 127
2, 109950, Note_on_c, 0, 71, 86
2, 110078, Note_on_c, 0, 71, 0
2, 110078, Note_on_c, 0, 68, 86
2, 110206, Note_on_c, 0, 68, 0
2, 110534, Control_c, 0, 64, 0
2, 110592, Note_on_c, 0, 76, 0
2, 110630, Control_c, 0, 64, 127
2, 110976, Note_on_c, 0, 73, 86
2, 111102, Note_on_c, 0, 66, 86
2, 111230, Note_on_c, 0, 66, 0
2, 111230, Note_on_c, 0, 69, 86
2, 111321, Control_c, 0, 64, 0
2, 111360, Note_on_c, 0, 73, 0
2, 111360, Note_on_c, 0, 78, 86
2, 111398, Control_c, 0, 64, 127
2, 111744, Note_on_c, 0, 78, 0
2, 111744, Note_on_c, 0, 69, 0
2, 111744, Note_on_c, 0, 73, 86
2, 111870, Note_on_c, 0, 66, 86
2, 111998, Note_on_c, 0, 66, 0
2, 111998, Note_on_c, 0, 69, 86
2, 112070, Control_c, 0, 64, 0
2, 112166, Control_c, 0, 64, 127
2, 112512, Note_on_c, 0, 69, 0
2, 112512, Note_on_c, 0, 73, 0
2, 112512, Note_on_c, 0, 73, 86
2, 112638, Note_on_c, 0, 66, 86
2, 112766, Note_on_c, 0, 66, 0
2, 112766, Note_on_c, 0, 69, 86
2, 112857, Control_c, 0, 64, 0
2, 112896, Note_on_c, 0, 73, 0
2, 112896, Note_on_c, 0, 78, 86
2, 112934, Control_c, 0, 64, 127
2, 113280, Note_on_c, 0, 78, 0
2, 113280, Note_on_c, 0, 69, 0
2, 113280, Note_on_c, 0, 81, 86
2, 113406, Note_on_c, 0, 69, 86
2, 113534, Note_on_c, 0, 69, 0
2, 113534, Note_on_c, 0, 73, 86
2, 113606, Control_c, 0, 64, 0
2, 113662, Note_on_c, 0, 73, 0
2, 113664, Note_on_c, 0, 81, 0
2, 113702, Control_c, 0, 64, 127
2, 114048, Note_on_c, 0, 81, 86
2, 114393, Control_c, 0, 64, 0
2, 114470, Control_c, 0, 64, 127
2, 114942, Note_on_c, 0, 81, 0
2, 114942, Note_on_c, 0, 80, 86
2, 115070, Note_on_c, 0, 80, 0
2, 115070, Note_on_c, 0, 78, 86
2, 115142, Control_c, 0, 64, 0
2, 115198, Note_on_c, 0, 78, 0
2, 115238, Control_c, 0, 64, 127
2, 115584, Note_on_c, 0, 76, 86
2, 115710, Note_on_c, 0, 76, 0
2, 115710, Note_on_c, 0, 78, 86
2, 115838, Note_on_c, 0, 78, 0
2, 115838, Note_on_c, 0, 73, 86
2, 115966, Note_on_c, 0, 73, 0
2, 115968, Note_on_c, 0, 76, 86
2, 116094, Note_on_c, 0, 76, 0
2, 116094, Note_on_c, 0, 71, 86
2, 116222, Note_on_c, 0, 71, 0
2, 116222, Note_on_c, 0, 73, 86
2, 116350, Note_on_c, 0, 73, 0
2, 116352, Note_on_c, 0, 68, 86
2, 116478, Note_on_c, 0, 68, 0
2, 116478, Note_on_c, 0, 71, 86
2, 116606, Note_on_c, 0, 71, 0
2, 116606, Note_on_c, 0, 66, 86
2, 116678, Control_c, 0, 64, 0
2, 116734, Note_on_c, 0, 66, 0
2, 116736, Note_on_c, 0, 68, 86
2, 116774, Control_c, 0, 64, 127
2, 116862, Note_on_c, 0, 68, 0
2, 116862, Note_on_c, 0, 64, 86
2, 116990, Note_on_c, 0, 64, 0
2, 116990, Note_on_c, 0, 68, 86
2, 117118, Note_on_c, 0, 68, 0
2, 117120, Note_on_c, 0, 63, 86
2, 117888, Note_on_c, 0, 63, 0
2, 117888, Note_on_c, 0, 61, 86
2, 118214, Control_c, 0, 64, 0
2, 118272, Note_on_c, 0, 61, 0
2, 118272, Note_on_c, 0, 59, 86
2, 118310, Control_c, 0, 64, 127
2, 118656, Note_on_c, 0, 59, 0
2, 118656, Note_on_c, 0, 76, 86
2, 118782, Note_on_c, 0, 76, 0
2, 118782, Note_on_c, 0, 78, 86
2, 118910, Note_on_c, 0, 78, 0
2, 118910, Note_on_c, 0, 73, 86
2, 119038, Note_on_c, 0, 73, 0
2, 119040, Note_on_c, 0, 76, 86
2, 119166, Note_on_c, 0, 76, 0
2, 119166, Note_on_c, 0, 71, 86
2, 119294, Note_on_c, 0, 71, 0
2, 119294, Note_on_c, 0, 73, 86
2, 119422, Note_on_c, 0, 73, 0
2, 119424, Note_on_c, 0, 68, 86
2, 119550, Note_on_c, 0, 68, 0
2, 119550, Note_on_c, 0, 71, 86
2, 119678, Note_on_c, 0, 71, 0
2, 119678, Note_on_c, 0, 66, 86
2, 119750, Control_c, 0, 64, 0
2, 119806, Note_on_c, 0, 66, 0
2, 119808, Note_on_c, 0, 68, 86
2, 119846, Control_c, 0, 64, 127
2, 119934, Note_on_c, 0, 68, 0
2, 119934, Note_on_c, 0, 64, 86
2, 120062, Note_on_c, 0, 64, 0
2, 120062, Note_on_c, 0, 68, 86
2, 120190, Note_on_c, 0, 68, 0
2, 120192, Note_on_c, 0, 63, 86
2, 120960, Note_on_c, 0, 63, 0
2, 120960, Note_on_c, 0, 61, 86
2, 121286, Control_c, 0, 64, 0
2, 121344, Note_on_c, 0, 61, 0
2, 121344, Note_on_c, 0, 59, 86
2, 121382, Control_c, 0, 64, 127
2, 121470, Note_on_c, 0, 59, 0
2, 121470, Note_on_c, 0, 57, 86
2, 121598, Note_on_c, 0, 57, 0
2, 121598, Note_on_c, 0, 59, 86
2, 121726, Note_on_c, 0, 59, 0
2, 121728, Note_on_c, 0, 61, 86
2, 122304, Note_on_c, 0, 61, 0
2, 122304, Note_on_c, 0, 64, 86
2, 122496, Note_on_c, 0, 64, 0
2, 122496, Note_on_c, 0, 63, 86
2, 122688, Note_on_c, 0, 63, 0
2, 122688, Note_on_c, 0, 64, 86
2, 122822, Control_c, 0, 64, 0
2, 122880, Note_on_c, 0, 64, 0
2, 122880, Note_on_c, 0, 61, 86
2, 122918, Control_c, 0, 64, 127
2, 123264, Note_on_c, 0, 61, 0
2, 123264, Note_on_c, 0, 68, 86
2, 124032, Note_on_c, 0, 68, 0
2, 124032, Note_on_c, 0, 64, 86
2, 124358, Control_c, 0, 64, 0
2, 124416, Note_on_c, 0, 64, 0
2, 124416, Note_on_c, 0, 63, 86
2, 124454, Control_c, 0, 64, 127
2, 124542, Note_on_c, 0, 63, 0
2, 124542, Note_on_c, 0, 61, 86
2, 124670, Note_on_c, 0, 61, 0
2, 124670, Note_on_c, 0, 63, 86
2, 124798, Note_on_c, 0, 63, 0
2, 124800, Note_on_c, 0, 64, 86
2, 125376, Note_on_c, 0, 64, 0
2, 125376, Note_on_c, 0, 68, 86
2, 125568, Note_on_c, 0, 68, 0
2, 125568, Note_on_c, 0, 66, 86
2, 125760, Note_on_c, 0, 66, 0
2, 125760, Note_on_c, 0, 68, 86
2, 125894, Control_c, 0, 64, 0
2, 125952, Note_on_c, 0, 68, 0
2, 125952, Note_on_c, 0, 64, 86
2, 125990, Control_c, 0, 64, 127
2, 126336, Note_on_c, 0, 64, 0
2, 126336, Note_on_c, 0, 73, 86
2, 126681, Control_c, 0, 64, 0
2, 126758, Control_c, 0, 64, 127
2, 127104, Note_on_c, 0, 73, 0
2, 127104, Note_on_c, 0, 70, 88
2, 127230, Note_on_c, 0, 70, 0
2, 127230, Note_on_c, 0, 73, 88
2, 127358, Note_on_c, 0, 73, 0
2, 127358, Note_on_c, 0, 70, 89
2, 127449, Control_c, 0, 64, 0
2, 127486, Note_on_c, 0, 70, 0
2, 127488, Note_on_c, 0, 68, 89
2, 127526, Control_c, 0, 64, 127
2, 127872, Note_on_c, 0, 68, 0
2, 127872, Note_on_c, 0, 76, 89
2, 128217, Control_c, 0, 64, 0
2, 128294, Control_c, 0, 64, 127
2, 128640, Note_on_c, 0, 76, 0
2, 128640, Note_on_c, 0, 73, 91
2, 128766, Note_on_c, 0, 73, 0
2, 128766, Note_on_c, 0, 76, 92
2, 128894, Note_on_c, 0, 76, 0
2, 128894, Note_on_c, 0, 73, 92
2, 128985, Control_c, 0, 64, 0
2, 129022, Note_on_c, 0, 73, 0
2, 129024, Note_on_c, 0, 80, 92
2, 129062, Control_c, 0, 64, 127
2, 129600, Note_on_c, 0, 80, 0
2, 129600, Note_on_c, 0, 78, 93
2, 129753, Control_c, 0, 64, 0
2, 129792, Note_on_c, 0, 78, 0
2, 129792, Note_on_c, 0, 80, 93
2, 129830, Control_c, 0, 64, 127
2, 130368, Note_on_c, 0, 80, 0
2, 130368, Note_on_c, 0, 78, 94
2, 130521, Control_c, 0, 64, 0
2, 130560, Note_on_c, 0, 78, 0
2, 130560, Note_on_c, 0, 80, 94
2, 130598, Control_c, 0, 64, 127
2, 131136, Note_on_c, 0, 80, 0
2, 131136, Note_on_c, 0, 78, 95
2, 131289, Control_c, 0, 64, 0
2, 131328, Note_on_c, 0, 78, 0
2, 131328, Note_on_c, 0, 80, 96
2, 131366, Control_c, 0, 64, 127
2, 131520, Note_on_c, 0, 80, 0
2, 131520, Note_on_c, 0, 78, 96
2, 131904, Note_on_c, 0, 78, 0
2, 131904, Note_on_c, 0, 80, 97
2, 132057, Control_c, 0, 64, 0
2, 132096, Note_on_c, 0, 80, 0
2, 132096, Note_on_c, 0, 81, 89
2, 132134, Control_c, 0, 64, 127
2, 132480, Note_on_c, 0, 73, 86
2, 132606, Note_on_c, 0, 73, 0
2, 132606, Note_on_c, 0, 76, 86
2, 132734, Note_on_c, 0, 76, 0
2, 132734, Note_on_c, 0, 78, 86
2, 132825, Control_c, 0, 64, 0
2, 132862, Note_on_c, 0, 78, 0
2, 132864, Note_on_c, 0, 81, 0
2, 132864, Note_on_c, 0, 80, 89
2, 132902, Control_c, 0, 64, 127
2, 132990, Note_on_c, 0, 75, 86
2, 133118, Note_on_c, 0, 75, 0
2, 133118, Note_on_c, 0, 71, 86
2, 133246, Note_on_c, 0, 71, 0
2, 133593, Control_c, 0, 64, 0
2, 133632, Note_on_c, 0, 80, 0
2, 133632, Note_on_c, 0, 78, 89
2, 133670, Control_c, 0, 64, 127
2, 134016, Note_on_c, 0, 69, 86
2, 134142, Note_on_c, 0, 69, 0
2, 134142, Note_on_c, 0, 73, 86
2, 134270, Note_on_c, 0, 73, 0
2, 134270, Note_on_c, 0, 75, 86
2, 134361, Control_c, 0, 64, 0
2, 134398, Note_on_c, 0, 75, 0
2, 134400, Note_on_c, 0, 78, 0
2, 134400, Note_on_c, 0, 76, 89
2, 134438, Control_c, 0, 64, 127
2, 134526, Note_on_c, 0, 71, 86
2, 134654, Note_on_c, 0, 71, 0
2, 134654, Note_on_c, 0, 68, 86
2, 134782, Note_on_c, 0, 68, 0
2, 135129, Control_c, 0, 64, 0
2, 135168, Note_on_c, 0, 76, 0
2, 135168, Note_on_c, 0, 81, 86
2, 135206, Control_c, 0, 64, 127
2, 135552, Note_on_c, 0, 81, 0
2, 135552, Note_on_c, 0, 76, 86
2, 135552, Note_on_c, 0, 83, 86
2, 135744, Note_on_c, 0, 83, 0
2, 135744, Note_on_c, 0, 85, 86
2, 135897, Control_c, 0, 64, 0
2, 135936, Note_on_c, 0, 85, 0
2, 135936, Note_on_c, 0, 76, 0
2, 135936, Note_on_c, 0, 81, 86
2, 135974, Control_c, 0, 64, 127
2, 136128, Note_on_c, 0, 81, 0
2, 136128, Note_on_c, 0, 80, 86
2, 136320, Note_on_c, 0, 80, 0
2, 136320, Note_on_c, 0, 75, 86
2, 136320, Note_on_c, 0, 81, 86
2, 136512, Note_on_c, 0, 81, 0
2, 136512, Note_on_c, 0, 80, 86
2, 136665, Control_c, 0, 64, 0
2, 136704, Note_on_c, 0, 75, 0
2, 136704, Note_on_c, 0, 73, 86
2, 136742, Control_c, 0, 64, 127
2, 137088, Note_on_c, 0, 80, 0
2, 137088, Note_on_c, 0, 78, 86
2, 137433, Control_c, 0, 64, 0
2, 137472, Note_on_c, 0, 73, 0
2, 137472, Note_on_c, 0, 71, 86
2, 137510, Control_c, 0, 64, 127
2, 137856, Note_on_c, 0, 78, 0
2, 137856, Note_on_c, 0, 76, 86
2, 138201, Control_c, 0, 64, 0
2, 138240, Note_on_c, 0, 71, 0
2, 138278, Control_c, 0, 64, 127
2, 138432, Note_on_c, 0, 76, 0
2, 138432, Note_on_c, 0, 74, 86
2, 138624, Note_on_c, 0, 74, 0
2, 138624, Note_on_c, 0, 69, 86
2, 138624, Note_on_c, 0, 76, 86
2, 138816, Note_on_c, 0, 76, 0
2, 138816, Note_on_c, 0, 78, 86
2, 138969, Control_c, 0, 64, 0
2, 139008, Note_on_c, 0, 78, 0
2, 139008, Note_on_c, 0, 69, 0
2, 139008, Note_on_c, 0, 74, 86
2, 139046, Control_c, 0, 64, 127
2, 139200, Note_on_c, 0, 74, 0
2, 139200, Note_on_c, 0, 73, 86
2, 139392, Note_on_c, 0, 73, 0
2, 139392, Note_on_c, 0, 68, 86
2, 139392, Note_on_c, 0, 74, 86
2, 139584, Note_on_c, 0, 74, 0
2, 139584, Note_on_c, 0, 73, 86
2, 139737, Control_c, 0, 64, 0
2, 139776, Note_on_c, 0, 68, 0
2, 139776, Note_on_c, 0, 66, 86
2, 139814, Control_c, 0, 64, 127
2, 140160, Note_on_c, 0, 73, 0
2, 140160, Note_on_c, 0, 71, 86
2, 140505, Control_c, 0, 64, 0
2, 140544, Note_on_c, 0, 66, 0
2, 140544, Note_on_c, 0, 64, 86
2, 140582, Control_c, 0, 64, 127
2, 140928, Note_on_c, 0, 71, 0
2, 140928, Note_on_c, 0, 69, 86
2, 141273, Control_c, 0, 64, 0
2, 141312, Note_on_c, 0, 64, 0
2, 141312, Note_on_c, 0, 62, 84
2, 141350, Control_c, 0, 64, 127
2, 141504, Note_on_c, 0, 69, 0
2, 141504, Note_on_c, 0, 68, 85
2, 141696, Note_on_c, 0, 68, 0
2, 141696, Note_on_c, 0, 69, 86
2, 141888, Note_on_c, 0, 69, 0
2, 141888, Note_on_c, 0, 68, 86
2, 142041, Control_c, 0, 64, 0
2, 142080, Note_on_c, 0, 68, 0
2, 142080, Note_on_c, 0, 62, 0
2, 142080, Note_on_c, 0, 61, 87
2, 142080, Note_on_c, 0, 73, 87
2, 142118, Control_c, 0, 64, 127
2, 142272, Note_on_c, 0, 73, 0
2, 142272, Note_on_c, 0, 69, 88
2, 142464, Note_on_c, 0, 69, 0
2, 142464, Note_on_c, 0, 66, 88
2, 142809, Control_c, 0, 64, 0
2, 142848, Note_on_c, 0, 61, 0
2, 142848, Note_on_c, 0, 59, 89
2, 142886, Control_c, 0, 64, 127
2, 143040, Note_on_c, 0, 66, 0
2, 143040, Note_on_c, 0, 64, 90
2, 143232, Note_on_c, 0, 64, 0
2, 143232, Note_on_c, 0, 66, 90
2, 143424, Note_on_c, 0, 66, 0
2, 143424, Note_on_c, 0, 64, 91
2, 143558, Control_c, 0, 64, 0
2, 143616, Note_on_c, 0, 64, 0
2, 143616, Note_on_c, 0, 59, 0
2, 143616, Note_on_c, 0, 69, 89
2, 143654, Control_c, 0, 64, 127
2, 144384, Note_on_c, 0, 61, 89
2, 144510, Note_on_c, 0, 61, 0
2, 144510, Note_on_c, 0, 64, 88
2, 144638, Note_on_c, 0, 64, 0
2, 144638, Note_on_c, 0, 69, 88
2, 144766, Note_on_c, 0, 69, 0
2, 144768, Note_on_c, 0, 71, 88
2, 144894, Note_on_c, 0, 71, 0
2, 144894, Note_on_c, 0, 73, 88
2, 145022, Note_on_c, 0, 73, 0
2, 145022, Note_on_c, 0, 76, 88
2, 145150, Note_on_c, 0, 76, 0
2, 145152, Note_on_c, 0, 69, 0
2, 145152, Note_on_c, 0, 81, 88
2, 145278, Note_on_c, 0, 81, 0
2, 145278, Note_on_c, 0, 83, 88
2, 145406, Note_on_c, 0, 83, 0
2, 145406, Note_on_c, 0, 85, 87
2, 145534, Note_on_c, 0, 85, 0
2, 145536, Note_on_c, 0, 88, 87
2, 145662, Note_on_c, 0, 88, 0
2, 145662, Note_on_c, 0, 85, 87
2, 145790, Note_on_c, 0, 85, 0
2, 145790, Note_on_c, 0, 83, 87
2, 145918, Note_on_c, 0, 83, 0
2, 145920, Note_on_c, 0, 81, 86
2, 146046, Note_on_c, 0, 81, 0
2, 146046, Note_on_c, 0, 76, 86
2, 146174, Note_on_c, 0, 76, 0
2, 146174, Note_on_c, 0, 73, 86
2, 146302, Note_on_c, 0, 73, 0
2, 146304, Note_on_c, 0, 71, 86
2, 146430, Note_on_c, 0, 71, 0
2, 146430, Note_on_c, 0, 69, 86
2, 146558, Note_on_c, 0, 69, 0
2, 146558, Note_on_c, 0, 64, 86
2, 146630, Control_c, 0, 64, 0
2, 146686, Note_on_c, 0, 64, 0
2, 146688, Note_on_c, 0, 68, 85
2, 146726, Control_c, 0, 64, 127
2, 147456, Note_on_c, 0, 68, 84
2, 147582, Note_on_c, 0, 68, 0
2, 147582, Note_on_c, 0, 71, 84
2, 147710, Note_on_c, 0, 71, 0
2, 147710, Note_on_c, 0, 75, 84
2, 147838, Note_on_c, 0, 75, 0
2, 147840, Note_on_c, 0, 80, 84
2, 147966, Note_on_c, 0, 80, 0
2, 147966, Note_on_c, 0, 83, 84
2, 148094, Note_on_c, 0, 83, 0
2, 148094, Note_on_c, 0, 71, 83
2, 148185, Control_c, 0, 64, 0
2, 148222, Note_on_c, 0, 71, 0
2, 148224, Note_on_c, 0, 68, 0
2, 148224, Note_on_c, 0, 66, 83
2, 148262, Control_c, 0, 64, 127
2, 148992, Note_on_c, 0, 69, 82
2, 149118, Note_on_c, 0, 69, 0
2, 149118, Note_on_c, 0, 71, 82
2, 149246, Note_on_c, 0, 71, 0
2, 149246, Note_on_c, 0, 75, 82
2, 149374, Note_on_c, 0, 75, 0
2, 149376, Note_on_c, 0, 81, 82
2, 149502, Note_on_c, 0, 81, 0
2, 149502, Note_on_c, 0, 83, 82
2, 149630, Note_on_c, 0, 83, 0
2, 149630, Note_on_c, 0, 71, 82
2, 149721, Control_c, 0, 64, 0
2, 149758, Note_on_c, 0, 71, 0
2, 149760, Note_on_c, 0, 66, 0
2, 149760, Note_on_c, 0, 64, 82
2, 149798, Control_c, 0, 64, 127
2, 150144, Note_on_c, 0, 64, 0
2, 150144, Note_on_c, 0, 88, 82
2, 150270, Note_on_c, 0, 88, 0
2, 150270, Note_on_c, 0, 90, 82
2, 150398, Note_on_c, 0, 90, 0
2, 150398, Note_on_c, 0, 85, 82
2, 150526, Note_on_c, 0, 85, 0
2, 150528, Note_on_c, 0, 88, 82
2, 150654, Note_on_c, 0, 88, 0
2, 150654, Note_on_c, 0, 83, 82
2, 150782, Note_on_c, 0, 83, 0
2, 150782, Note_on_c, 0, 85, 82
2, 150910, Note_on_c, 0, 85, 0
2, 150912, Note_on_c, 0, 80, 82
2, 151038, Note_on_c, 0, 80, 0
2, 151038, Note_on_c, 0, 83, 82
2, 151166, Note_on_c, 0, 83, 0
2, 151166, Note_on_c, 0, 78, 82
2, 151257, Control_c, 0, 64, 0
2, 151294, Note_on_c, 0, 78, 0
2, 151296, Note_on_c, 0, 80, 82
2, 151334, Control_c, 0, 64, 127
2, 151422, Note_on_c, 0, 80, 0
2, 151422, Note_on_c, 0, 76, 82
2, 151550, Note_on_c, 0, 76, 0
2, 151550, Note_on_c, 0, 80, 82
2, 151678, Note_on_c, 0, 80, 0
2, 151680, Note_on_c, 0, 75, 82
2, 152448, Note_on_c, 0, 75, 0
2, 152448, Note_on_c, 0, 73, 82
2, 152793, Control_c, 0, 64, 0
2, 152832, Note_on_c, 0, 73, 0
2, 152832, Note_on_c, 0, 71, 82
2, 152870, Control_c, 0, 64, 127
2, 153216, Note_on_c, 0, 71, 0
2, 153216, Note_on_c, 0, 76, 82
2, 153342, Note_on_c, 0, 76, 0
2, 153342, Note_on_c, 0, 78, 82
2, 153470, Note_on_c, 0, 78, 0
2, 153470, Note_on_c, 0, 73, 82
2, 153598, Note_on_c, 0, 73, 0
2, 153600, Note_on_c, 0, 76, 82
2, 153726, Note_on_c, 0, 76, 0
2, 153726, Note_on_c, 0, 71, 82
2, 153854, Note_on_c, 0, 71, 0
2, 153854, Note_on_c, 0, 73, 82
2, 153982, Note_on_c, 0, 73, 0
2, 153984, Note_on_c, 0, 68, 82
2, 154110, Note_on_c, 0, 68, 0
2, 154110, Note_on_c, 0, 71, 82
2, 154238, Note_on_c, 0, 71, 0
2, 154238, Note_on_c, 0, 66, 82
2, 154329, Control_c, 0, 64, 0
2, 154366, Note_on_c, 0, 66, 0
2, 154368, Note_on_c, 0, 68, 82
2, 154406, Control_c, 0, 64, 127
2, 154494, Note_on_c, 0, 68, 0
2, 154494, Note_on_c, 0, 64, 82
2, 154622, Note_on_c, 0, 64, 0
2, 154622, Note_on_c, 0, 68, 82
2, 154750, Note_on_c, 0, 68, 0
2, 154752, Note_on_c, 0, 63, 82
2, 155520, Note_on_c, 0, 63, 0
2, 155520, Note_on_c, 0, 61, 82
2, 155865, Control_c, 0, 64, 0
2, 155904, Note_on_c, 0, 61, 0
2, 155942, Control_c, 0, 64, 127
2, 156030, Note_on_c, 0, 59, 82
2, 156158, Note_on_c, 0, 59, 0
2, 156158, Note_on_c, 0, 52, 82
2, 156268, Control_c, 0, 64, 0
2, 156286, Note_on_c, 0, 52, 0
2, 156326, Control_c, 0, 64, 127
2, 156414, Note_on_c, 0, 61, 82
2, 156542, Note_on_c, 0, 61, 0
2, 156542, Note_on_c, 0, 56, 82
2, 156633, Control_c, 0, 64, 0
2, 156670, Note_on_c, 0, 56, 0
2, 156691, Control_c, 0, 64, 127
2, 156798, Note_on_c, 0, 64, 82
2, 156926, Note_on_c, 0, 64, 0
2, 156926, Note_on_c, 0, 59, 82
2, 157017, Control_c, 0, 64, 0
2, 157054, Note_on_c, 0, 59, 0
2, 157075, Control_c, 0, 64, 127
2, 157182, Note_on_c, 0, 66, 82
2, 157310, Note_on_c, 0, 66, 0
2, 157310, Note_on_c, 0, 61, 82
2, 157401, Control_c, 0, 64, 0
2, 157438, Note_on_c, 0, 61, 0
2, 157478, Control_c, 0, 64, 127
2, 157566, Note_on_c, 0, 71, 82
2, 157694, Note_on_c, 0, 71, 0
2, 157694, Note_on_c, 0, 64, 82
2, 157804, Control_c, 0, 64, 0
2, 157822, Note_on_c, 0, 64, 0
2, 157862, Control_c, 0, 64, 127
2, 157950, Note_on_c, 0, 73, 82
2, 158078, Note_on_c, 0, 73, 0
2, 158078, Note_on_c, 0, 68, 82
2, 158169, Control_c, 0, 64, 0
2, 158206, Note_on_c, 0, 68, 0
2, 158227, Control_c, 0, 64, 127
2, 158334, Note_on_c, 0, 76, 82
2, 158462, Note_on_c, 0, 76, 0
2, 158462, Note_on_c, 0, 71, 82
2, 158553, Control_c, 0, 64, 0
2, 158590, Note_on_c, 0, 71, 0
2, 158611, Control_c, 0, 64, 127
2, 158718, Note_on_c, 0, 78, 82
2, 158846, Note_on_c, 0, 78, 0
2, 158846, Note_on_c, 0, 73, 82
2, 158937, Control_c, 0, 64, 0
2, 158974, Note_on_c, 0, 73, 0
2, 159014, Control_c, 0, 64, 127
2, 159102, Note_on_c, 0, 83, 82
2, 159230, Note_on_c, 0, 83, 0
2, 159230, Note_on_c, 0, 76, 82
2, 159340, Control_c, 0, 64, 0
2, 159358, Note_on_c, 0, 76, 0
2, 159398, Control_c, 0, 64, 127
2, 159486, Note_on_c, 0, 85, 82
2, 159614, Note_on_c, 0, 85, 0
2, 159614, Note_on_c, 0, 80, 82
2, 159705, Control_c, 0, 64, 0
2, 159742, Note_on_c, 0, 80, 0
2, 159763, Control_c, 0, 64, 127
2, 159870, Note_on_c, 0, 88, 82
2, 159998, Note_on_c, 0, 88, 0
2, 159998, Note_on_c, 0, 83, 82
2, 160089, Control_c, 0, 64, 0
2, 160126, Note_on_c, 0, 83, 0
2, 160147, Control_c, 0, 64, 127
2, 160254, Note_on_c, 0, 90, 82
2, 160382, Note_on_c, 0, 90, 0
2, 160382, Note_on_c, 0, 85, 82
2, 160473, Control_c, 0, 64, 0
2, 160510, Note_on_c, 0, 85, 0
2, 160512, Note_on_c, 0, 92, 82
2, 160512, Note_on_c, 0, 95, 82
2, 160896, Note_on_c, 0, 95, 0
2, 160896, Note_on_c, 0, 92, 0
2, 160896, Note_on_c, 0, 92, 82
2, 160896, Note_on_c, 0, 95, 82
2, 161664, Note_on_c, 0, 95, 0
2, 161664, Note_on_c, 0, 92, 0
2, 161664, Note_on_c, 0, 92, 82
2, 161664, Note_on_c, 0, 95, 82
2, 162048, Note_on_c, 0, 95, 0
2, 162048, Note_on_c, 0, 92, 0
2, 162048, Note_on_c, 0, 64, 82
2, 162432, Note_on_c, 0, 64, 0
2, 162432, End_track
3, 0, Start_track
3, 0, Title_t, "Piano"
3, 0, Program_c, 0, 0
3, 0, Control_c, 0, 7, 110
3, 0, Control_c, 0, 10, 48
3, 0, Control_c, 0, 91, 98
3, 0, Note_on_c, 0, 61, 84
3, 38, Control_c, 0, 64, 127
3, 126, Note_on_c, 0, 61, 0
3, 126, Note_on_c, 0, 64, 84
3, 254, Note_on_c, 0, 64, 0
3, 254, Note_on_c, 0, 69, 84
3, 382, Note_on_c, 0, 69, 0
3, 729, Control_c, 0, 64, 0
3, 806, Control_c, 0, 64, 127
3, 1152, Note_on_c, 0, 68, 84
3, 1278, Note_on_c, 0, 68, 0
3, 1278, Note_on_c, 0, 63, 84
3, 1406, Note_on_c, 0, 63, 0
3, 1406, Note_on_c, 0, 59, 84
3, 1478, Control_c, 0, 64, 0
3, 1534, Note_on_c, 0, 59, 0
3, 1536, Note_on_c, 0, 57, 84
3, 1574, Control_c, 0, 64, 127
3, 1662, Note_on_c, 0, 57, 0
3, 1662, Note_on_c, 0, 61, 84
3, 1790, Note_on_c, 0, 61, 0
3, 1790, Note_on_c, 0, 66, 84
3, 1918, Note_on_c, 0, 66, 0
3, 2265, Control_c, 0, 64, 0
3, 2342, Control_c, 0, 64, 127
3, 2688, Note_on_c, 0, 64, 84
3, 2814, Note_on_c, 0, 64, 0
3, 2814, Note_on_c, 0, 59, 84
3, 2942, Note_on_c, 0, 59, 0
3, 2942, Note_on_c, 0, 56, 84
3, 3014, Control_c, 0, 64, 0
3, 3070, Note_on_c, 0, 56, 0
3, 3072, Note_on_c, 0, 54, 84
3, 3110, Control_c, 0, 64, 127
3, 3198, Note_on_c, 0, 57, 84
3, 3326, Note_on_c, 0, 57, 0
3, 3326, Note_on_c, 0, 61, 84
3, 3801, Control_c, 0, 64, 0
3, 3840, Note_on_c, 0, 61, 0
3, 3840, Note_on_c, 0, 54, 0
3, 3840, Note_on_c, 0, 52, 84
3, 3878, Control_c, 0, 64, 127
3, 3966, Note_on_c, 0, 57, 84
3, 4094, Note_on_c, 0, 57, 0
3, 4094, Note_on_c, 0, 64, 84
3, 4550, Control_c, 0, 64, 0
3, 4608, Note_on_c, 0, 64, 0
3, 4608, Note_on_c, 0, 52, 0
3, 4608, Note_on_c, 0, 51, 84
3, 4646, Control_c, 0, 64, 127
3, 4734, Note_on_c, 0, 57, 84
3, 4862, Note_on_c, 0, 57, 0
3, 4862, Note_on_c, 0, 61, 84
3, 5337, Control_c, 0, 64, 0
3, 5376, Note_on_c, 0, 61, 0
3, 5376, Note_on_c, 0, 51, 0
3, 5376, Note_on_c, 0, 49, 84
3, 5414, Control_c, 0, 64, 127
3, 5502, Note_on_c, 0, 57, 84
3, 5630, Note_on_c, 0, 57, 0
3, 5630, Note_on_c, 0, 64, 84
3, 6086, Control_c, 0, 64, 0
3, 6144, Note_on_c, 0, 64, 0
3, 6144, Note_on_c, 0, 49, 0
3, 6144, Note_on_c, 0, 47, 84
3, 6182, Control_c, 0, 64, 127
3, 6270, Note_on_c, 0, 47, 0
3, 6270, Note_on_c, 0, 54, 84
3, 6398, Note_on_c, 0, 54, 0
3, 6398, Note_on_c, 0, 57, 84
3, 6526, Note_on_c, 0, 57, 0
3, 6528, Note_on_c, 0, 61, 84
3, 6654, Note_on_c, 0, 61, 0
3, 6654, Note_on_c, 0, 63, 84
3, 6782, Note_on_c, 0, 63, 0
3, 6782, Note_on_c, 0, 66, 84
3, 6873, Control_c, 0, 64, 0
3, 6910, Note_on_c, 0, 66, 0
3, 6912, Note_on_c, 0, 69, 84
3, 6950, Control_c, 0, 64, 127
3, 7038, Note_on_c, 0, 69, 0
3, 7038, Note_on_c, 0, 73, 84
3, 7166, Note_on_c, 0, 73, 0
3, 7166, Note_on_c, 0, 75, 84
3, 7294, Note_on_c, 0, 75, 0
3, 7296, Note_on_c, 0, 73, 84
3, 7422, Note_on_c, 0, 73, 0
3, 7422, Note_on_c, 0, 71, 84
3, 7550, Note_on_c, 0, 71, 0
3, 7550, Note_on_c, 0, 69, 84
3, 7622, Control_c, 0, 64, 0
3, 7678, Note_on_c, 0, 69, 0
3, 7680, Note_on_c, 0, 40, 80
3, 7718, Control_c, 0, 64, 127
3, 7872, Note_on_c, 0, 40, 0
3, 7872, Note_on_c, 0, 47, 80
3, 8064, Note_on_c, 0, 47, 0
3, 8064, Note_on_c, 0, 52, 80
3, 8256, Note_on_c, 0, 52, 0
3, 8256, Note_on_c, 0, 56, 80
3, 8448, Note_on_c, 0, 56, 0
3, 8448, Note_on_c, 0, 59, 80
3, 8640, Note_on_c, 0, 59, 0
3, 8640, Note_on_c, 0, 56, 80
3, 8832, Note_on_c, 0, 56, 0
3, 8832, Note_on_c, 0, 52, 80
3, 9024, Note_on_c, 0, 52, 0
3, 9024, Note_on_c, 0, 47, 80
3, 9158, Control_c, 0, 64, 0
3, 9216, Note_on_c, 0, 47, 0
3, 9216, Note_on_c, 0, 40, 80
3, 9254, Control_c, 0, 64, 127
3, 9408, Note_on_c, 0, 40, 0
3, 9408, Note_on_c, 0, 49, 80
3, 9600, Note_on_c, 0, 49, 0
3, 9600, Note_on_c, 0, 52, 80
3, 9792, Note_on_c, 0, 52, 0
3, 9792, Note_on_c, 0, 56, 80
3, 9984, Note_on_c, 0, 56, 0
3, 9984, Note_on_c, 0, 61, 80
3, 10176, Note_on_c, 0, 61, 0
3, 10176, Note_on_c, 0, 56, 80
3, 10368, Note_on_c, 0, 56, 0
3, 10368, Note_on_c, 0, 52, 80
3, 10560, Note_on_c, 0, 52, 0
3, 10560, Note_on_c, 0, 49, 80
3, 10713, Control_c, 0, 64, 0
3, 10752, Note_on_c, 0, 49, 0
3, 10752, Note_on_c, 0, 40, 80
3, 10790, Control_c, 0, 64, 127
3, 10944, Note_on_c, 0, 40, 0
3, 10944, Note_on_c, 0, 47, 80
3, 11136, Note_on_c, 0, 47, 0
3, 11136, Note_on_c, 0, 52, 80
3, 11328, Note_on_c, 0, 52, 0
3, 11328, Note_on_c, 0, 56, 80
3, 11520, Note_on_c, 0, 56, 0
3, 11520, Note_on_c, 0, 59, 80
3, 11712, Note_on_c, 0, 59, 0
3, 11712, Note_on_c, 0, 56, 80
3, 11904, Note_on_c, 0, 56, 0
3, 11904, Note_on_c, 0, 52, 80
3, 12096, Note_on_c, 0, 52, 0
3, 12096, Note_on_c, 0, 47, 80
3, 12249, Control_c, 0, 64, 0
3, 12288, Note_on_c, 0, 47, 0
3, 12288, Note_on_c, 0, 40, 80
3, 12326, Control_c, 0, 64, 127
3, 12480, Note_on_c, 0, 40, 0
3, 12480, Note_on_c, 0, 49, 80
3, 12672, Note_on_c, 0, 49, 0
3, 12672, Note_on_c, 0, 52, 80
3, 12864, Note_on_c, 0, 52, 0
3, 12864, Note_on_c, 0, 56, 80
3, 13056, Note_on_c, 0, 56, 0
3, 13056, Note_on_c, 0, 61, 80
3, 13248, Note_on_c, 0, 61, 0
3, 13248, Note_on_c, 0, 56, 80
3, 13440, Note_on_c, 0, 56, 0
3, 13440, Note_on_c, 0, 52, 80
3, 13632, Note_on_c, 0, 52, 0
3, 13632, Note_on_c, 0, 49, 80
3, 13766, Control_c, 0, 64, 0
3, 13824, Note_on_c, 0, 49, 0
3, 13824, Note_on_c, 0, 42, 80
3, 13862, Control_c, 0, 64, 127
3, 14016, Note_on_c, 0, 42, 0
3, 14016, Note_on_c, 0, 49, 80
3, 14208, Note_on_c, 0, 49, 0
3, 14208, Note_on_c, 0, 52, 80
3, 14400, Note_on_c, 0, 52, 0
3, 14400, Note_on_c, 0, 54, 80
3, 14592, Note_on_c, 0, 54, 0
3, 14592, Note_on_c, 0, 57, 80
3, 14784, Note_on_c, 0, 57, 0
3, 14784, Note_on_c, 0, 54, 80
3, 14976, Note_on_c, 0, 54, 0
3, 14976, Note_on_c, 0, 52, 80
3, 15168, Note_on_c, 0, 52, 0
3, 15168, Note_on_c, 0, 49, 80
3, 15302, Control_c, 0, 64, 0
3, 15360, Note_on_c, 0, 49, 0
3, 15360, Note_on_c, 0, 44, 80
3, 15398, Control_c, 0, 64, 127
3, 15552, Note_on_c, 0, 44, 0
3, 15552, Note_on_c, 0, 49, 80
3, 15744, Note_on_c, 0, 49, 0
3, 15744, Note_on_c, 0, 52, 80
3, 15936, Note_on_c, 0, 52, 0
3, 15936, Note_on_c, 0, 56, 80
3, 16128, Note_on_c, 0, 56, 0
3, 16128, Note_on_c, 0, 59, 80
3, 16320, Note_on_c, 0, 59, 0
3, 16320, Note_on_c, 0, 56, 80
3, 16512, Note_on_c, 0, 56, 0
3, 16512, Note_on_c, 0, 52, 80
3, 16704, Note_on_c, 0, 52, 0
3, 16704, Note_on_c, 0, 49, 80
3, 16838, Control_c, 0, 64, 0
3, 16896, Note_on_c, 0, 49, 0
3, 16896, Note_on_c, 0, 45, 80
3, 16934, Control_c, 0, 64, 127
3, 17088, Note_on_c, 0, 45, 0
3, 17088, Note_on_c, 0, 52, 80
3, 17280, Note_on_c, 0, 52, 0
3, 17280, Note_on_c, 0, 54, 80
3, 17472, Note_on_c, 0, 54, 0
3, 17472, Note_on_c, 0, 57, 80
3, 17664, Note_on_c, 0, 57, 0
3, 17664, Note_on_c, 0, 61, 80
3, 17856, Note_on_c, 0, 61, 0
3, 17856, Note_on_c, 0, 57, 80
3, 18048, Note_on_c, 0, 57, 0
3, 18048, Note_on_c, 0, 54, 80
3, 18240, Note_on_c, 0, 54, 0
3, 18240, Note_on_c, 0, 52, 80
3, 18374, Control_c, 0, 64, 0
3, 18432, Note_on_c, 0, 52, 0
3, 18432, Note_on_c, 0, 46, 78
3, 18470, Control_c, 0, 64, 127
3, 18624, Note_on_c, 0, 46, 0
3, 18624, Note_on_c, 0, 52, 78
3, 18816, Note_on_c, 0, 52, 0
3, 18816, Note_on_c, 0, 56, 78
3, 19008, Note_on_c, 0, 56, 0
3, 19008, Note_on_c, 0, 61, 79
3, 19161, Control_c, 0, 64, 0
3, 19200, Note_on_c, 0, 61, 0
3, 19200, Note_on_c, 0, 49, 79
3, 19238, Control_c, 0, 64, 127
3, 19392, Note_on_c, 0, 49, 0
3, 19392, Note_on_c, 0, 54, 79
3, 19584, Note_on_c, 0, 54, 0
3, 19584, Note_on_c, 0, 58, 80
3, 19776, Note_on_c, 0, 58, 0
3, 19776, Note_on_c, 0, 64, 80
3, 19910, Control_c, 0, 64, 0
3, 19968, Note_on_c, 0, 64, 0
3, 19968, Note_on_c, 0, 52, 80
3, 20006, Control_c, 0, 64, 127
3, 20160, Note_on_c, 0, 52, 0
3, 20160, Note_on_c, 0, 58, 80
3, 20352, Note_on_c, 0, 58, 0
3, 20352, Note_on_c, 0, 61, 81
3, 20544, Note_on_c, 0, 61, 0
3, 20544, Note_on_c, 0, 68, 81
3, 20697, Control_c, 0, 64, 0
3, 20736, Note_on_c, 0, 68, 0
3, 20736, Note_on_c, 0, 54, 81
3, 20774, Control_c, 0, 64, 127
3, 20928, Note_on_c, 0, 54, 0
3, 20928, Note_on_c, 0, 61, 82
3, 21120, Note_on_c, 0, 61, 0
3, 21120, Note_on_c, 0, 64, 82
3, 21312, Note_on_c, 0, 64, 0
3, 21312, Note_on_c, 0, 70, 82
3, 21446, Control_c, 0, 64, 0
3, 21504, Note_on_c, 0, 70, 0
3, 21504, Note_on_c, 0, 58, 82
3, 21542, Control_c, 0, 64, 127
3, 21696, Note_on_c, 0, 58, 0
3, 21696, Note_on_c, 0, 64, 83
3, 21888, Note_on_c, 0, 64, 0
3, 21888, Note_on_c, 0, 68, 84
3, 22080, Note_on_c, 0, 68, 0
3, 22080, Note_on_c, 0, 73, 84
3, 22233, Control_c, 0, 64, 0
3, 22272, Note_on_c, 0, 73, 0
3, 22272, Note_on_c, 0, 61, 85
3, 22310, Control_c, 0, 64, 127
3, 22464, Note_on_c, 0, 61, 0
3, 22464, Note_on_c, 0, 66, 85
3, 22656, Note_on_c, 0, 66, 0
3, 22656, Note_on_c, 0, 70, 85
3, 22848, Note_on_c, 0, 70, 0
3, 22848, Note_on_c, 0, 76, 85
3, 22982, Control_c, 0, 64, 0
3, 23040, Note_on_c, 0, 76, 0
3, 23040, Note_on_c, 0, 58, 86
3, 23078, Control_c, 0, 64, 127
3, 23232, Note_on_c, 0, 58, 0
3, 23232, Note_on_c, 0, 64, 86
3, 23424, Note_on_c, 0, 64, 0
3, 23424, Note_on_c, 0, 68, 86
3, 23616, Note_on_c, 0, 68, 0
3, 23616, Note_on_c, 0, 73, 87
3, 23769, Control_c, 0, 64, 0
3, 23808, Note_on_c, 0, 73, 0
3, 23808, Note_on_c, 0, 61, 87
3, 23846, Control_c, 0, 64, 127
3, 24000, Note_on_c, 0, 61, 0
3, 24000, Note_on_c, 0, 66, 87
3, 24192, Note_on_c, 0, 66, 0
3, 24192, Note_on_c, 0, 70, 88
3, 24384, Note_on_c, 0, 70, 0
3, 24384, Note_on_c, 0, 76, 88
3, 24518, Control_c, 0, 64, 0
3, 24576, Note_on_c, 0, 76, 0
3, 24576, Note_on_c, 0, 61, 80
3, 24614, Control_c, 0, 64, 127
3, 24702, Note_on_c, 0, 61, 0
3, 24702, Note_on_c, 0, 64, 80
3, 24830, Note_on_c, 0, 64, 0
3, 24830, Note_on_c, 0, 69, 80
3, 24958, Note_on_c, 0, 69, 0
3, 25305, Control_c, 0, 64, 0
3, 25382, Control_c, 0, 64, 127
3, 25728, Note_on_c, 0, 68, 80
3, 25854, Note_on_c, 0, 68, 0
3, 25854, Note_on_c, 0, 63, 80
3, 25982, Note_on_c, 0, 63, 0
3, 25982, Note_on_c, 0, 59, 80
3, 26054, Control_c, 0, 64, 0
3, 26110, Note_on_c, 0, 59, 0
3, 26112, Note_on_c, 0, 57, 80
3, 26150, Control_c, 0, 64, 127
3, 26238, Note_on_c, 0, 57, 0
3, 26238, Note_on_c, 0, 61, 80
3, 26366, Note_on_c, 0, 61, 0
3, 26366, Note_on_c, 0, 66, 80
3, 26494, Note_on_c, 0, 66, 0
3, 26841, Control_c, 0, 64, 0
3, 26918, Control_c, 0, 64, 127
3, 27264, Note_on_c, 0, 64, 80
3, 27390, Note_on_c, 0, 64, 0
3, 27390, Note_on_c, 0, 59, 80
3, 27518, Note_on_c, 0, 59, 0
3, 27518, Note_on_c, 0, 56, 80
3, 27590, Control_c, 0, 64, 0
3, 27646, Note_on_c, 0, 56, 0
3, 27648, Note_on_c, 0, 55, 80
3, 27686, Control_c, 0, 64, 127
3, 27774, Note_on_c, 0, 55, 0
3, 27774, Note_on_c, 0, 61, 80
3, 27902, Note_on_c, 0, 61, 0
3, 27902, Note_on_c, 0, 63, 80
3, 28030, Note_on_c, 0, 63, 0
3, 28032, Note_on_c, 0, 70, 80
3, 28158, Note_on_c, 0, 70, 0
3, 28158, Note_on_c, 0, 63, 80
3, 28286, Note_on_c, 0, 63, 0
3, 28286, Note_on_c, 0, 61, 80
3, 28377, Control_c, 0, 64, 0
3, 28414, Note_on_c, 0, 61, 0
3, 28416, Note_on_c, 0, 56, 80
3, 28454, Control_c, 0, 64, 127
3, 28542, Note_on_c, 0, 56, 0
3, 28542, Note_on_c, 0, 61, 80
3, 28670, Note_on_c, 0, 61, 0
3, 28670, Note_on_c, 0, 64, 80
3, 28798, Note_on_c, 0, 64, 0
3, 28800, Note_on_c, 0, 71, 80
3, 28926, Note_on_c, 0, 71, 0
3, 28926, Note_on_c, 0, 64, 80
3, 29054, Note_on_c, 0, 64, 0
3, 29054, Note_on_c, 0, 61, 80
3, 29126, Control_c, 0, 64, 0
3, 29182, Note_on_c, 0, 61, 0
3, 29184, Note_on_c, 0, 55, 80
3, 29222, Control_c, 0, 64, 127
3, 29310, Note_on_c, 0, 55, 0
3, 29310, Note_on_c, 0, 61, 80
3, 29438, Note_on_c, 0, 61, 0
3, 29438, Note_on_c, 0, 63, 80
3, 29566, Note_on_c, 0, 63, 0
3, 29568, Note_on_c, 0, 70, 80
3, 29694, Note_on_c, 0, 70, 0
3, 29694, Note_on_c, 0, 63, 80
3, 29822, Note_on_c, 0, 63, 0
3, 29822, Note_on_c, 0, 61, 80
3, 29913, Control_c, 0, 64, 0
3, 29950, Note_on_c, 0, 61, 0
3, 29952, Note_on_c, 0, 52, 80
3, 29990, Control_c, 0, 64, 127
3, 30078, Note_on_c, 0, 52, 0
3, 30078, Note_on_c, 0, 57, 80
3, 30206, Note_on_c, 0, 57, 0
3, 30206, Note_on_c, 0, 61, 80
3, 30334, Note_on_c, 0, 61, 0
3, 30336, Note_on_c, 0, 68, 80
3, 30462, Note_on_c, 0, 68, 0
3, 30462, Note_on_c, 0, 61, 80
3, 30590, Note_on_c, 0, 61, 0
3, 30590, Note_on_c, 0, 57, 80
3, 30662, Control_c, 0, 64, 0
3, 30718, Note_on_c, 0, 57, 0
3, 30720, Note_on_c, 0, 51, 80
3, 30758, Control_c, 0, 64, 127
3, 30846, Note_on_c, 0, 51, 0
3, 30846, Note_on_c, 0, 57, 80
3, 30974, Note_on_c, 0, 57, 0
3, 30974, Note_on_c, 0, 59, 80
3, 31102, Note_on_c, 0, 59, 0
3, 31104, Note_on_c, 0, 66, 80
3, 31230, Note_on_c, 0, 66, 0
3, 31230, Note_on_c, 0, 59, 80
3, 31358, Note_on_c, 0, 59, 0
3, 31358, Note_on_c, 0, 57, 80
3, 31449, Control_c, 0, 64, 0
3, 31486, Note_on_c, 0, 57, 0
3, 31488, Note_on_c, 0, 49, 80
3, 31526, Control_c, 0, 64, 127
3, 31614, Note_on_c, 0, 49, 0
3, 31614, Note_on_c, 0, 54, 80
3, 31742, Note_on_c, 0, 54, 0
3, 31742, Note_on_c, 0, 57, 80
3, 31870, Note_on_c, 0, 57, 0
3, 31872, Note_on_c, 0, 64, 80
3, 31998, Note_on_c, 0, 64, 0
3, 31998, Note_on_c, 0, 57, 80
3, 32126, Note_on_c, 0, 57, 0
3, 32126, Note_on_c, 0, 54, 80
3, 32198, Control_c, 0, 64, 0
3, 32254, Note_on_c, 0, 54, 0
3, 32256, Note_on_c, 0, 48, 80
3, 32294, Control_c, 0, 64, 127
3, 32382, Note_on_c, 0, 48, 0
3, 32382, Note_on_c, 0, 54, 80
3, 32510, Note_on_c, 0, 54, 0
3, 32510, Note_on_c, 0, 56, 80
3, 32638, Note_on_c, 0, 56, 0
3, 32640, Note_on_c, 0, 63, 80
3, 32766, Note_on_c, 0, 63, 0
3, 32766, Note_on_c, 0, 56, 80
3, 32894, Note_on_c, 0, 56, 0
3, 32894, Note_on_c, 0, 54, 80
3, 32985, Control_c, 0, 64, 0
3, 33022, Note_on_c, 0, 54, 0
3, 33024, Note_on_c, 0, 49, 80
3, 33062, Control_c, 0, 64, 127
3, 33150, Note_on_c, 0, 49, 0
3, 33150, Note_on_c, 0, 54, 80
3, 33278, Note_on_c, 0, 54, 0
3, 33278, Note_on_c, 0, 57, 80
3, 33406, Note_on_c, 0, 57, 0
3, 33408, Note_on_c, 0, 64, 80
3, 33534, Note_on_c, 0, 64, 0
3, 33534, Note_on_c, 0, 57, 80
3, 33662, Note_on_c, 0, 57, 0
3, 33662, Note_on_c, 0, 54, 80
3, 33734, Control_c, 0, 64, 0
3, 33790, Note_on_c, 0, 54, 0
3, 33792, Note_on_c, 0, 48, 80
3, 33830, Control_c, 0, 64, 127
3, 33918, Note_on_c, 0, 48, 0
3, 33918, Note_on_c, 0, 54, 80
3, 34046, Note_on_c, 0, 54, 0
3, 34046, Note_on_c, 0, 56, 80
3, 34174, Note_on_c, 0, 56, 0
3, 34176, Note_on_c, 0, 63, 80
3, 34302, Note_on_c, 0, 63, 0
3, 34302, Note_on_c, 0, 56, 80
3, 34430, Note_on_c, 0, 56, 0
3, 34430, Note_on_c, 0, 54, 80
3, 34521, Control_c, 0, 64, 0
3, 34558, Note_on_c, 0, 54, 0
3, 34560, Note_on_c, 0, 47, 80
3, 34598, Control_c, 0, 64, 127
3, 34686, Note_on_c, 0, 47, 0
3, 34686, Note_on_c, 0, 54, 80
3, 34814, Note_on_c, 0, 54, 0
3, 34814, Note_on_c, 0, 57, 80
3, 34942, Note_on_c, 0, 57, 0
3, 34944, Note_on_c, 0, 62, 80
3, 35070, Note_on_c, 0, 62, 0
3, 35070, Note_on_c, 0, 57, 80
3, 35198, Note_on_c, 0, 57, 0
3, 35198, Note_on_c, 0, 54, 80
3, 35270, Control_c, 0, 64, 0
3, 35326, Note_on_c, 0, 54, 0
3, 35328, Note_on_c, 0, 47, 80
3, 35366, Control_c, 0, 64, 127
3, 35454, Note_on_c, 0, 47, 0
3, 35454, Note_on_c, 0, 52, 80
3, 35582, Note_on_c, 0, 52, 0
3, 35582, Note_on_c, 0, 56, 80
3, 35710, Note_on_c, 0, 56, 0
3, 35712, Note_on_c, 0, 62, 80
3, 35838, Note_on_c, 0, 62, 0
3, 35838, Note_on_c, 0, 56, 80
3, 35966, Note_on_c, 0, 56, 0
3, 35966, Note_on_c, 0, 52, 80
3, 36057, Control_c, 0, 64, 0
3, 36094, Note_on_c, 0, 52, 0
3, 36096, Note_on_c, 0, 47, 80
3, 36134, Control_c, 0, 64, 127
3, 36222, Note_on_c, 0, 47, 0
3, 36222, Note_on_c, 0, 54, 80
3, 36350, Note_on_c, 0, 54, 0
3, 36350, Note_on_c, 0, 57, 80
3, 36478, Note_on_c, 0, 57, 0
3, 36480, Note_on_c, 0, 62, 80
3, 36606, Note_on_c, 0, 62, 0
3, 36606, Note_on_c, 0, 57, 80
3, 36734, Note_on_c, 0, 57, 0
3, 36734, Note_on_c, 0, 54, 80
3, 36806, Control_c, 0, 64, 0
3, 36862, Note_on_c, 0, 54, 0
3, 36864, Note_on_c, 0, 47, 80
3, 36902, Control_c, 0, 64, 127
3, 36990, Note_on_c, 0, 47, 0
3, 36990, Note_on_c, 0, 52, 80
3, 37118, Note_on_c, 0, 52, 0
3, 37118, Note_on_c, 0, 56, 80
3, 37246, Note_on_c, 0, 56, 0
3, 37248, Note_on_c, 0, 62, 80
3, 37374, Note_on_c, 0, 62, 0
3, 37374, Note_on_c, 0, 56, 80
3, 37502, Note_on_c, 0, 56, 0
3, 37502, Note_on_c, 0, 52, 80
3, 37593, Control_c, 0, 64, 0
3, 37630, Note_on_c, 0, 52, 0
3, 37632, Note_on_c, 0, 40, 80
3, 37670, Control_c, 0, 64, 127
3, 37758, Note_on_c, 0, 40, 0
3, 37758, Note_on_c, 0, 47, 80
3, 37886, Note_on_c, 0, 47, 0
3, 37886, Note_on_c, 0, 52, 80
3, 38014, Note_on_c, 0, 52, 0
3, 38016, Note_on_c, 0, 54, 80
3, 38142, Note_on_c, 0, 54, 0
3, 38142, Note_on_c, 0, 56, 80
3, 38270, Note_on_c, 0, 56, 0
3, 38270, Note_on_c, 0, 59, 80
3, 38342, Control_c, 0, 64, 0
3, 38398, Note_on_c, 0, 59, 0
3, 38400, Note_on_c, 0, 33, 84
3, 38438, Control_c, 0, 64, 127
3, 38526, Note_on_c, 0, 33, 0
3, 38526, Note_on_c, 0, 45, 84
3, 38654, Note_on_c, 0, 52, 84
3, 38782, Note_on_c, 0, 52, 0
3, 41356, Control_c, 0, 64, 0
3, 41472, Note_on_c, 0, 45, 0
3, 41472, Note_on_c, 0, 38, 84
3, 41510, Control_c, 0, 64, 127
3, 41664, Note_on_c, 0, 38, 0
3, 41664, Note_on_c, 0, 45, 84
3, 41856, Note_on_c, 0, 45, 0
3, 41856, Note_on_c, 0, 54, 84
3, 42950, Control_c, 0, 64, 0
3, 43008, Note_on_c, 0, 54, 0
3, 43008, Note_on_c, 0, 35, 84
3, 43046, Control_c, 0, 64, 127
3, 43200, Note_on_c, 0, 35, 0
3, 43200, Note_on_c, 0, 47, 84
3, 43392, Note_on_c, 0, 47, 0
3, 43392, Note_on_c, 0, 54, 84
3, 43584, Note_on_c, 0, 54, 0
3, 43584, Note_on_c, 0, 57, 84
3, 43776, Note_on_c, 0, 57, 0
3, 43776, Note_on_c, 0, 59, 84
3, 44160, Note_on_c, 0, 59, 0
3, 44486, Control_c, 0, 64, 0
3, 44544, Note_on_c, 0, 32, 84
3, 44582, Control_c, 0, 64, 127
3, 44736, Note_on_c, 0, 32, 0
3, 44736, Note_on_c, 0, 44, 84
3, 44928, Note_on_c, 0, 44, 0
3, 44928, Note_on_c, 0, 52, 84
3, 45120, Note_on_c, 0, 52, 0
3, 45120, Note_on_c, 0, 56, 84
3, 45312, Note_on_c, 0, 56, 0
3, 45312, Note_on_c, 0, 59, 84
3, 46022, Control_c, 0, 64, 0
3, 46080, Note_on_c, 0, 59, 0
3, 46080, Note_on_c, 0, 30, 84
3, 46118, Control_c, 0, 64, 127
3, 46206, Note_on_c, 0, 30, 0
3, 46206, Note_on_c, 0, 42, 84
3, 46334, Note_on_c, 0, 42, 0
3, 46334, Note_on_c, 0, 49, 84
3, 46462, Note_on_c, 0, 49, 0
3, 46464, Note_on_c, 0, 52, 84
3, 46590, Note_on_c, 0, 52, 0
3, 46590, Note_on_c, 0, 54, 84
3, 46718, Note_on_c, 0, 54, 0
3, 46718, Note_on_c, 0, 57, 84
3, 46846, Note_on_c, 0, 57, 0
3, 46848, Note_on_c, 0, 61, 84
3, 46974, Note_on_c, 0, 61, 0
3, 46974, Note_on_c, 0, 64, 84
3, 47102, Note_on_c, 0, 64, 0
3, 47102, Note_on_c, 0, 66, 84
3, 47230, Note_on_c, 0, 66, 0
3, 47232, Note_on_c, 0, 69, 84
3, 47358, Note_on_c, 0, 69, 0
3, 47358, Note_on_c, 0, 68, 84
3, 47486, Note_on_c, 0, 68, 0
3, 47486, Note_on_c, 0, 66, 84
3, 47614, Note_on_c, 0, 66, 0
3, 47616, Note_on_c, 0, 64, 84
3, 48364, Control_c, 0, 64, 0
3, 48384, Note_on_c, 0, 64, 0
3, 48384, Note_on_c, 0, 63, 84
3, 48768, Note_on_c, 0, 63, 0
3, 48768, Note_on_c, 0, 61, 84
3, 49152, Note_on_c, 0, 61, 0
3, 49152, Note_on_c, 0, 30, 84
3, 49190, Control_c, 0, 64, 127
3, 49278, Note_on_c, 0, 30, 0
3, 49278, Note_on_c, 0, 42, 84
3, 49406, Note_on_c, 0, 42, 0
3, 49406, Note_on_c, 0, 49, 84
3, 49534, Note_on_c, 0, 49, 0
3, 49536, Note_on_c, 0, 52, 84
3, 49662, Note_on_c, 0, 52, 0
3, 49662, Note_on_c, 0, 54, 84
3, 49790, Note_on_c, 0, 54, 0
3, 49790, Note_on_c, 0, 57, 84
3, 49918, Note_on_c, 0, 57, 0
3, 49920, Note_on_c, 0, 61, 84
3, 50046, Note_on_c, 0, 61, 0
3, 50046, Note_on_c, 0, 64, 84
3, 50174, Note_on_c, 0, 64, 0
3, 50174, Note_on_c, 0, 66, 84
3, 50302, Note_on_c, 0, 66, 0
3, 50304, Note_on_c, 0, 69, 84
3, 50430, Note_on_c, 0, 69, 0
3, 50430, Note_on_c, 0, 68, 84
3, 50558, Note_on_c, 0, 68, 0
3, 50558, Note_on_c, 0, 66, 84
3, 50686, Note_on_c, 0, 66, 0
3, 50688, Note_on_c, 0, 64, 84
3, 51379, Control_c, 0, 64, 0
3, 51456, Note_on_c, 0, 64, 0
3, 51456, Note_on_c, 0, 54, 84
3, 52224, Note_on_c, 0, 54, 0
3, 52224, Note_on_c, 0, 47, 84
3, 52608, Note_on_c, 0, 47, 0
3, 52608, Note_on_c, 0, 54, 84
3, 52992, Note_on_c, 0, 54, 0
3, 52992, Note_on_c, 0, 57, 84
3, 53376, Note_on_c, 0, 57, 0
3, 53376, Note_on_c, 0, 59, 84
3, 53760, Note_on_c, 0, 59, 0
3, 53760, Note_on_c, 0, 63, 84
3, 54144, Note_on_c, 0, 63, 0
3, 54144, Note_on_c, 0, 66, 84
3, 54528, Note_on_c, 0, 66, 0
3, 54528, Note_on_c, 0, 69, 84
3, 54912, Note_on_c, 0, 69, 0
3, 54912, Note_on_c, 0, 71, 84
3, 55296, Note_on_c, 0, 71, 0
3, 55296, Note_on_c, 0, 28, 84
3, 55334, Control_c, 0, 64, 127
3, 55488, Note_on_c, 0, 28, 0
3, 55488, Note_on_c, 0, 40, 84
3, 55680, Note_on_c, 0, 40, 0
3, 55680, Note_on_c, 0, 47, 84
3, 55872, Note_on_c, 0, 47, 0
3, 55872, Note_on_c, 0, 52, 84
3, 56064, Note_on_c, 0, 52, 0
3, 56064, Note_on_c, 0, 56, 84
3, 56256, Note_on_c, 0, 56, 0
3, 56256, Note_on_c, 0, 59, 84
3, 56448, Note_on_c, 0, 59, 0
3, 56448, Note_on_c, 0, 64, 84
3, 56640, Note_on_c, 0, 64, 0
3, 56640, Note_on_c, 0, 68, 84
3, 56832, Note_on_c, 0, 68, 0
3, 57580, Control_c, 0, 64, 0
3, 57600, Note_on_c, 0, 64, 84
3, 58368, Note_on_c, 0, 64, 0
3, 58368, Note_on_c, 0, 59, 84
3, 58368, Note_on_c, 0, 66, 84
3, 58560, Note_on_c, 0, 59, 0
3, 58560, Note_on_c, 0, 61, 84
3, 58752, Note_on_c, 0, 61, 0
3, 58752, Note_on_c, 0, 62, 84
3, 59520, Note_on_c, 0, 66, 0
3, 59520, Note_on_c, 0, 52, 84
3, 59520, Note_on_c, 0, 62, 84
3, 59521, Note_on_c, 0, 62, 0
3, 59904, Note_on_c, 0, 62, 0
3, 59904, Note_on_c, 0, 52, 0
3, 59904, Note_on_c, 0, 54, 84
3, 59904, Note_on_c, 0, 61, 84
3, 60288, Note_on_c, 0, 61, 0
3, 60288, Note_on_c, 0, 54, 0
3, 60288, Note_on_c, 0, 47, 84
3, 60288, Note_on_c, 0, 57, 84
3, 61440, Note_on_c, 0, 57, 0
3, 61440, Note_on_c, 0, 47, 0
3, 61440, Note_on_c, 0, 40, 84
3, 61440, Note_on_c, 0, 47, 84
3, 61478, Control_c, 0, 64, 127
3, 61824, Note_on_c, 0, 47, 0
3, 61824, Note_on_c, 0, 40, 0
3, 61824, Note_on_c, 0, 52, 84
3, 61824, Note_on_c, 0, 62, 84
3, 61824, Note_on_c, 0, 66, 84
3, 62553, Control_c, 0, 64, 0
3, 62592, Note_on_c, 0, 66, 0
3, 62592, Note_on_c, 0, 64, 84
3, 62976, Note_on_c, 0, 64, 0
3, 62976, Note_on_c, 0, 62, 0
3, 62976, Note_on_c, 0, 52, 0
3, 62976, Note_on_c, 0, 45, 84
3, 62976, Note_on_c, 0, 52, 84
3, 63014, Control_c, 0, 64, 127
3, 63360, Note_on_c, 0, 52, 0
3, 63360, Note_on_c, 0, 45, 0
3, 63360, Note_on_c, 0, 52, 84
3, 63360, Note_on_c, 0, 57, 84
3, 63360, Note_on_c, 0, 61, 84
3, 63360, Note_on_c, 0, 64, 84
3, 64108, Control_c, 0, 64, 0
3, 64512, Note_on_c, 0, 64, 0
3, 64512, Note_on_c, 0, 52, 0
3, 64512, Note_on_c, 0, 57, 0
3, 64512, Note_on_c, 0, 61, 0
3, 64512, Note_on_c, 0, 59, 84
3, 64512, Note_on_c, 0, 66, 84
3, 64704, Note_on_c, 0, 59, 0
3, 64704, Note_on_c, 0, 61, 84
3, 64896, Note_on_c, 0, 61, 0
3, 64896, Note_on_c, 0, 62, 84
3, 65664, Note_on_c, 0, 66, 0
3, 65664, Note_on_c, 0, 65, 84
3, 66048, Note_on_c, 0, 65, 0
3, 66048, Note_on_c, 0, 62, 0
3, 66048, Note_on_c, 0, 54, 84
3, 66048, Note_on_c, 0, 61, 84
3, 66432, Note_on_c, 0, 61, 0
3, 66432, Note_on_c, 0, 54, 0
3, 66432, Note_on_c, 0, 47, 84
3, 66432, Note_on_c, 0, 57, 84
3, 67200, Note_on_c, 0, 57, 0
3, 67200, Note_on_c, 0, 47, 0
3, 67200, Note_on_c, 0, 45, 84
3, 67200, Note_on_c, 0, 51, 84
3, 67584, Note_on_c, 0, 51, 0
3, 67584, Note_on_c, 0, 45, 0
3, 67584, Note_on_c, 0, 44, 84
3, 67584, Note_on_c, 0, 52, 84
3, 67968, Note_on_c, 0, 52, 0
3, 67968, Note_on_c, 0, 44, 0
3, 67968, Note_on_c, 0, 42, 84
3, 67968, Note_on_c, 0, 52, 84
3, 68736, Note_on_c, 0, 52, 0
3, 68736, Note_on_c, 0, 42, 0
3, 68736, Note_on_c, 0, 35, 84
3, 68736, Note_on_c, 0, 47, 84
3, 69120, Note_on_c, 0, 47, 0
3, 69120, Note_on_c, 0, 35, 0
3, 69120, Note_on_c, 0, 40, 84
3, 69120, Note_on_c, 0, 47, 84
3, 69888, Note_on_c, 0, 47, 0
3, 69888, Note_on_c, 0, 40, 0
3, 69888, Note_on_c, 0, 40, 84
3, 70272, Note_on_c, 0, 40, 0
3, 70272, Note_on_c, 0, 52, 84
3, 70656, Note_on_c, 0, 52, 0
3, 71040, Note_on_c, 0, 42, 83
3, 71808, Note_on_c, 0, 42, 0
3, 71808, Note_on_c, 0, 40, 86
3, 72192, Note_on_c, 0, 40, 0
3, 72576, Note_on_c, 0, 33, 88
3, 72576, Note_on_c, 0, 45, 88
3, 73344, Note_on_c, 0, 45, 0
3, 73344, Note_on_c, 0, 33, 0
3, 73344, Note_on_c, 0, 38, 89
3, 73344, Note_on_c, 0, 50, 89
3, 73728, Note_on_c, 0, 50, 0
3, 73728, Note_on_c, 0, 38, 0
3, 74112, Note_on_c, 0, 35, 91
3, 74112, Note_on_c, 0, 47, 91
3, 74150, Control_c, 0, 64, 127
3, 74496, Note_on_c, 0, 47, 0
3, 74496, Note_on_c, 0, 35, 0
3, 74496, Note_on_c, 0, 54, 92
3, 74496, Note_on_c, 0, 59, 92
3, 74496, Note_on_c, 0, 62, 92
3, 74496, Note_on_c, 0, 66, 92
3, 74860, Control_c, 0, 64, 0
3, 74880, Note_on_c, 0, 66, 0
3, 74880, Note_on_c, 0, 54, 0
3, 74880, Note_on_c, 0, 59, 0
3, 74880, Note_on_c, 0, 62, 0
3, 74880, Note_on_c, 0, 40, 93
3, 74880, Note_on_c, 0, 52, 93
3, 75264, Note_on_c, 0, 52, 0
3, 75264, Note_on_c, 0, 40, 0
3, 75264, Note_on_c, 0, 33, 95
3, 75264, Note_on_c, 0, 45, 95
3, 75648, Note_on_c, 0, 45, 0
3, 75648, Note_on_c, 0, 33, 0
3, 75648, Note_on_c, 0, 52, 92
3, 76032, Note_on_c, 0, 52, 0
3, 76032, Note_on_c, 0, 66, 90
3, 76224, Note_on_c, 0, 66, 0
3, 76224, Note_on_c, 0, 64, 88
3, 76416, Note_on_c, 0, 64, 0
3, 76416, Note_on_c, 0, 62, 87
3, 76608, Note_on_c, 0, 62, 0
3, 76608, Note_on_c, 0, 61, 86
3, 76800, Note_on_c, 0, 61, 0
3, 77184, Note_on_c, 0, 42, 83
3, 77952, Note_on_c, 0, 42, 0
3, 77952, Note_on_c, 0, 40, 86
3, 78336, Note_on_c, 0, 40, 0
3, 78720, Note_on_c, 0, 33, 87
3, 78720, Note_on_c, 0, 45, 87
3, 79488, Note_on_c, 0, 45, 0
3, 79488, Note_on_c, 0, 33, 0
3, 79488, Note_on_c, 0, 38, 89
3, 79488, Note_on_c, 0, 50, 89
3, 79872, Note_on_c, 0, 50, 0
3, 79872, Note_on_c, 0, 38, 0
3, 80256, Note_on_c, 0, 35, 91
3, 80256, Note_on_c, 0, 47, 91
3, 80294, Control_c, 0, 64, 127
3, 80448, Note_on_c, 0, 47, 0
3, 80448, Note_on_c, 0, 35, 0
3, 80640, Note_on_c, 0, 54, 92
3, 80640, Note_on_c, 0, 59, 92
3, 80640, Note_on_c, 0, 62, 92
3, 80640, Note_on_c, 0, 66, 92
3, 81369, Control_c, 0, 64, 0
3, 81408, Note_on_c, 0, 66, 0
3, 81408, Note_on_c, 0, 54, 0
3, 81408, Note_on_c, 0, 59, 0
3, 81408, Note_on_c, 0, 62, 0
3, 81792, Note_on_c, 0, 38, 94
3, 81792, Note_on_c, 0, 50, 94
3, 81830, Control_c, 0, 64, 127
3, 81984, Note_on_c, 0, 50, 0
3, 81984, Note_on_c, 0, 38, 0
3, 82176, Note_on_c, 0, 54, 95
3, 82176, Note_on_c, 0, 59, 95
3, 82176, Note_on_c, 0, 62, 95
3, 82176, Note_on_c, 0, 66, 95
3, 82886, Control_c, 0, 64, 0
3, 82944, Note_on_c, 0, 66, 0
3, 82944, Note_on_c, 0, 54, 0
3, 82944, Note_on_c, 0, 59, 0
3, 82944, Note_on_c, 0, 62, 0
3, 82944, Note_on_c, 0, 52, 80
3, 82944, Note_on_c, 0, 62, 80
3, 83712, Note_on_c, 0, 52, 0
3, 83712, Note_on_c, 0, 54, 80
3, 84096, Note_on_c, 0, 54, 0
3, 84096, Note_on_c, 0, 56, 80
3, 84480, Note_on_c, 0, 56, 0
3, 84480, Note_on_c, 0, 62, 0
3, 84480, Note_on_c, 0, 57, 80
3, 84480, Note_on_c, 0, 61, 80
3, 85248, Note_on_c, 0, 61, 0
3, 85248, Note_on_c, 0, 57, 0
3, 85248, Note_on_c, 0, 47, 80
3, 85248, Note_on_c, 0, 57, 80
3, 86016, Note_on_c, 0, 57, 0
3, 86016, Note_on_c, 0, 47, 0
3, 86016, Note_on_c, 0, 40, 82
3, 86016, Note_on_c, 0, 47, 82
3, 86054, Control_c, 0, 64, 127
3, 86400, Note_on_c, 0, 47, 0
3, 86400, Note_on_c, 0, 40, 0
3, 86400, Note_on_c, 0, 56, 86
3, 86400, Note_on_c, 0, 62, 86
3, 86400, Note_on_c, 0, 66, 86
3, 87148, Control_c, 0, 64, 0
3, 87168, Note_on_c, 0, 66, 0
3, 87168, Note_on_c, 0, 64, 91
3, 87552, Note_on_c, 0, 64, 0
3, 87552, Note_on_c, 0, 62, 0
3, 87552, Note_on_c, 0, 56, 0
3, 87552, Note_on_c, 0, 45, 93
3, 87552, Note_on_c, 0, 52, 93
3, 87590, Control_c, 0, 64, 127
3, 87936, Note_on_c, 0, 52, 0
3, 87936, Note_on_c, 0, 45, 0
3, 87936, Note_on_c, 0, 52, 91
3, 87936, Note_on_c, 0, 57, 91
3, 87936, Note_on_c, 0, 61, 91
3, 87936, Note_on_c, 0, 64, 91
3, 89030, Control_c, 0, 64, 0
3, 89088, Note_on_c, 0, 64, 0
3, 89088, Note_on_c, 0, 52, 0
3, 89088, Note_on_c, 0, 57, 0
3, 89088, Note_on_c, 0, 61, 0
3, 89088, Note_on_c, 0, 59, 84
3, 89088, Note_on_c, 0, 66, 84
3, 89280, Note_on_c, 0, 59, 0
3, 89280, Note_on_c, 0, 61, 84
3, 89472, Note_on_c, 0, 61, 0
3, 89472, Note_on_c, 0, 62, 84
3, 90240, Note_on_c, 0, 66, 0
3, 90240, Note_on_c, 0, 65, 84
3, 90624, Note_on_c, 0, 65, 0
3, 90624, Note_on_c, 0, 62, 0
3, 90624, Note_on_c, 0, 54, 84
3, 90624, Note_on_c, 0, 61, 84
3, 91392, Note_on_c, 0, 61, 0
3, 91392, Note_on_c, 0, 54, 0
3, 91392, Note_on_c, 0, 47, 84
3, 91392, Note_on_c, 0, 57, 84
3, 91776, Note_on_c, 0, 57, 0
3, 91776, Note_on_c, 0, 47, 0
3, 91776, Note_on_c, 0, 45, 84
3, 91776, Note_on_c, 0, 51, 84
3, 92160, Note_on_c, 0, 51, 0
3, 92160, Note_on_c, 0, 45, 0
3, 92160, Note_on_c, 0, 44, 84
3, 92160, Note_on_c, 0, 52, 84
3, 92544, Note_on_c, 0, 52, 0
3, 92544, Note_on_c, 0, 44, 0
3, 92544, Note_on_c, 0, 42, 84
3, 92544, Note_on_c, 0, 52, 84
3, 93312, Note_on_c, 0, 52, 0
3, 93312, Note_on_c, 0, 42, 0
3, 93312, Note_on_c, 0, 35, 84
3, 93312, Note_on_c, 0, 47, 84
3, 93696, Note_on_c, 0, 47, 0
3, 93696, Note_on_c, 0, 35, 0
3, 93696, Note_on_c, 0, 40, 84
3, 93696, Note_on_c, 0, 47, 84
3, 94464, Note_on_c, 0, 47, 0
3, 94464, Note_on_c, 0, 40, 0
3, 94464, Note_on_c, 0, 40, 84
3, 94848, Note_on_c, 0, 40, 0
3, 94848, Note_on_c, 0, 52, 84
3, 95232, Note_on_c, 0, 52, 0
3, 95232, Note_on_c, 0, 40, 97
3, 95232, Note_on_c, 0, 48, 97
3, 95616, Note_on_c, 0, 48, 0
3, 95616, Note_on_c, 0, 40, 0
3, 95616, Note_on_c, 0, 41, 97
3, 95616, Note_on_c, 0, 48, 97
3, 96384, Note_on_c, 0, 48, 0
3, 96384, Note_on_c, 0, 41, 0
3, 96384, Note_on_c, 0, 43, 97
3, 96768, Note_on_c, 0, 43, 0
3, 96768, Note_on_c, 0, 45, 97
3, 97152, Note_on_c, 0, 45, 0
3, 97152, Note_on_c, 0, 47, 97
3, 97920, Note_on_c, 0, 47, 0
3, 97920, Note_on_c, 0, 45, 97
3, 98304, Note_on_c, 0, 45, 0
3, 98304, Note_on_c, 0, 43, 97
3, 98688, Note_on_c, 0, 43, 0
3, 98688, Note_on_c, 0, 41, 97
3, 99072, Note_on_c, 0, 41, 0
3, 99072, Note_on_c, 0, 40, 97
3, 99456, Note_on_c, 0, 40, 0
3, 99456, Note_on_c, 0, 38, 97
3, 99456, Note_on_c, 0, 50, 97
3, 99840, Note_on_c, 0, 50, 0
3, 99840, Note_on_c, 0, 38, 0
3, 99840, Note_on_c, 0, 31, 97
3, 99878, Control_c, 0, 64, 127
3, 100032, Note_on_c, 0, 31, 0
3, 100032, Note_on_c, 0, 43, 97
3, 100224, Note_on_c, 0, 43, 0
3, 100224, Note_on_c, 0, 50, 97
3, 100416, Note_on_c, 0, 50, 0
3, 100416, Note_on_c, 0, 53, 97
3, 100608, Note_on_c, 0, 53, 0
3, 100608, Note_on_c, 0, 55, 97
3, 100800, Note_on_c, 0, 55, 0
3, 100800, Note_on_c, 0, 59, 97
3, 100992, Note_on_c, 0, 59, 0
3, 100992, Note_on_c, 0, 62, 97
3, 101184, Note_on_c, 0, 62, 0
3, 101184, Note_on_c, 0, 65, 97
3, 101318, Control_c, 0, 64, 0
3, 101328, Note_on_c, 0, 65, 0
3, 101376, Note_on_c, 0, 64, 93
3, 101376, Note_on_c, 0, 67, 93
3, 102144, Note_on_c, 0, 67, 0
3, 102144, Note_on_c, 0, 64, 0
3, 102144, Note_on_c, 0, 65, 92
3, 102144, Note_on_c, 0, 69, 92
3, 102912, Note_on_c, 0, 69, 0
3, 102912, Note_on_c, 0, 65, 0
3, 102912, Note_on_c, 0, 67, 90
3, 102912, Note_on_c, 0, 70, 90
3, 103680, Note_on_c, 0, 70, 0
3, 103680, Note_on_c, 0, 67, 0
3, 103680, Note_on_c, 0, 65, 88
3, 103680, Note_on_c, 0, 69, 88
3, 104448, Note_on_c, 0, 69, 0
3, 104448, Note_on_c, 0, 65, 0
3, 104448, Note_on_c, 0, 64, 87
3, 104448, Note_on_c, 0, 67, 87
3, 105984, Note_on_c, 0, 67, 0
3, 105984, Note_on_c, 0, 68, 84
3, 107328, Note_on_c, 0, 64, 0
3, 107328, Note_on_c, 0, 63, 81
3, 107520, Note_on_c, 0, 63, 0
3, 107520, Note_on_c, 0, 68, 0
3, 107520, Note_on_c, 0, 61, 84
3, 107558, Control_c, 0, 64, 127
3, 107646, Note_on_c, 0, 61, 0
3, 107646, Note_on_c, 0, 64, 84
3, 107774, Note_on_c, 0, 64, 0
3, 107774, Note_on_c, 0, 69, 84
3, 107902, Note_on_c, 0, 69, 0
3, 108249, Control_c, 0, 64, 0
3, 108326, Control_c, 0, 64, 127
3, 108672, Note_on_c, 0, 68, 84
3, 108798, Note_on_c, 0, 68, 0
3, 108798, Note_on_c, 0, 63, 84
3, 108926, Note_on_c, 0, 63, 0
3, 108926, Note_on_c, 0, 59, 84
3, 108998, Control_c, 0, 64, 0
3, 109054, Note_on_c, 0, 59, 0
3, 109056, Note_on_c, 0, 57, 84
3, 109094, Control_c, 0, 64, 127
3, 109182, Note_on_c, 0, 57, 0
3, 109182, Note_on_c, 0, 61, 84
3, 109310, Note_on_c, 0, 61, 0
3, 109310, Note_on_c, 0, 66, 84
3, 109438, Note_on_c, 0, 66, 0
3, 109785, Control_c, 0, 64, 0
3, 109862, Control_c, 0, 64, 127
3, 110208, Note_on_c, 0, 64, 84
3, 110334, Note_on_c, 0, 64, 0
3, 110334, Note_on_c, 0, 59, 84
3, 110462, Note_on_c, 0, 59, 0
3, 110462, Note_on_c, 0, 56, 84
3, 110534, Control_c, 0, 64, 0
3, 110590, Note_on_c, 0, 56, 0
3, 110592, Note_on_c, 0, 54, 84
3, 110630, Control_c, 0, 64, 127
3, 110718, Note_on_c, 0, 57, 84
3, 110846, Note_on_c, 0, 57, 0
3, 110846, Note_on_c, 0, 61, 84
3, 111321, Control_c, 0, 64, 0
3, 111360, Note_on_c, 0, 61, 0
3, 111360, Note_on_c, 0, 54, 0
3, 111360, Note_on_c, 0, 52, 84
3, 111398, Control_c, 0, 64, 127
3, 111486, Note_on_c, 0, 57, 84
3, 111614, Note_on_c, 0, 57, 0
3, 111614, Note_on_c, 0, 64, 84
3, 112070, Control_c, 0, 64, 0
3, 112128, Note_on_c, 0, 64, 0
3, 112128, Note_on_c, 0, 52, 0
3, 112128, Note_on_c, 0, 51, 84
3, 112166, Control_c, 0, 64, 127
3, 112254, Note_on_c, 0, 57, 84
3, 112382, Note_on_c, 0, 57, 0
3, 112382, Note_on_c, 0, 61, 84
3, 112857, Control_c, 0, 64, 0
3, 112896, Note_on_c, 0, 61, 0
3, 112896, Note_on_c, 0, 51, 0
3, 112896, Note_on_c, 0, 49, 84
3, 112934, Control_c, 0, 64, 127
3, 113022, Note_on_c, 0, 57, 84
3, 113150, Note_on_c, 0, 57, 0
3, 113150, Note_on_c, 0, 64, 84
3, 113606, Control_c, 0, 64, 0
3, 113664, Note_on_c, 0, 64, 0
3, 113664, Note_on_c, 0, 49, 0
3, 113664, Note_on_c, 0, 47, 84
3, 113702, Control_c, 0, 64, 127
3, 113790, Note_on_c, 0, 47, 0
3, 113790, Note_on_c, 0, 54, 84
3, 113918, Note_on_c, 0, 54, 0
3, 113918, Note_on_c, 0, 57, 84
3, 114046, Note_on_c, 0, 57, 0
3, 114048, Note_on_c, 0, 61, 84
3, 114174, Note_on_c, 0, 61, 0
3, 114174, Note_on_c, 0, 63, 84
3, 114302, Note_on_c, 0, 63, 0
3, 114302, Note_on_c, 0, 66, 84
3, 114393, Control_c, 0, 64, 0
3, 114430, Note_on_c, 0, 66, 0
3, 114432, Note_on_c, 0, 69, 84
3, 114470, Control_c, 0, 64, 127
3, 114558, Note_on_c, 0, 69, 0
3, 114558, Note_on_c, 0, 73, 84
3, 114686, Note_on_c, 0, 73, 0
3, 114686, Note_on_c, 0, 75, 84
3, 114814, Note_on_c, 0, 75, 0
3, 114816, Note_on_c, 0, 73, 84
3, 114942, Note_on_c, 0, 73, 0
3, 114942, Note_on_c, 0, 71, 84
3, 115070, Note_on_c, 0, 71, 0
3, 115070, Note_on_c, 0, 69, 84
3, 115142, Control_c, 0, 64, 0
3, 115198, Note_on_c, 0, 69, 0
3, 115200, Note_on_c, 0, 40, 80
3, 115238, Control_c, 0, 64, 127
3, 115392, Note_on_c, 0, 40, 0
3, 115392, Note_on_c, 0, 47, 80
3, 115584, Note_on_c, 0, 47, 0
3, 115584, Note_on_c, 0, 52, 80
3, 115776, Note_on_c, 0, 52, 0
3, 115776, Note_on_c, 0, 56, 80
3, 115968, Note_on_c, 0, 56, 0
3, 115968, Note_on_c, 0, 59, 80
3, 116160, Note_on_c, 0, 59, 0
3, 116160, Note_on_c, 0, 56, 80
3, 116352, Note_on_c, 0, 56, 0
3, 116352, Note_on_c, 0, 52, 80
3, 116544, Note_on_c, 0, 52, 0
3, 116544, Note_on_c, 0, 47, 80
3, 116678, Control_c, 0, 64, 0
3, 116736, Note_on_c, 0, 47, 0
3, 116736, Note_on_c, 0, 40, 80
3, 116774, Control_c, 0, 64, 127
3, 116928, Note_on_c, 0, 40, 0
3, 116928, Note_on_c, 0, 49, 80
3, 117120, Note_on_c, 0, 49, 0
3, 117120, Note_on_c, 0, 52, 80
3, 117312, Note_on_c, 0, 52, 0
3, 117312, Note_on_c, 0, 56, 80
3, 117504, Note_on_c, 0, 56, 0
3, 117504, Note_on_c, 0, 61, 80
3, 117696, Note_on_c, 0, 61, 0
3, 117696, Note_on_c, 0, 56, 80
3, 117888, Note_on_c, 0, 56, 0
3, 117888, Note_on_c, 0, 52, 80
3, 118080, Note_on_c, 0, 52, 0
3, 118080, Note_on_c, 0, 49, 80
3, 118214, Control_c, 0, 64, 0
3, 118272, Note_on_c, 0, 49, 0
3, 118272, Note_on_c, 0, 40, 80
3, 118310, Control_c, 0, 64, 127
3, 118464, Note_on_c, 0, 40, 0
3, 118464, Note_on_c, 0, 47, 80
3, 118656, Note_on_c, 0, 47, 0
3, 118656, Note_on_c, 0, 52, 80
3, 118848, Note_on_c, 0, 52, 0
3, 118848, Note_on_c, 0, 56, 80
3, 119040, Note_on_c, 0, 56, 0
3, 119040, Note_on_c, 0, 59, 80
3, 119232, Note_on_c, 0, 59, 0
3, 119232, Note_on_c, 0, 56, 80
3, 119424, Note_on_c, 0, 56, 0
3, 119424, Note_on_c, 0, 52, 80
3, 119616, Note_on_c, 0, 52, 0
3, 119616, Note_on_c, 0, 47, 80
3, 119750, Control_c, 0, 64, 0
3, 119808, Note_on_c, 0, 47, 0
3, 119808, Note_on_c, 0, 40, 80
3, 119846, Control_c, 0, 64, 127
3, 120000, Note_on_c, 0, 40, 0
3, 120000, Note_on_c, 0, 49, 80
3, 120192, Note_on_c, 0, 49, 0
3, 120192, Note_on_c, 0, 52, 80
3, 120384, Note_on_c, 0, 52, 0
3, 120384, Note_on_c, 0, 56, 80
3, 120576, Note_on_c, 0, 56, 0
3, 120576, Note_on_c, 0, 61, 80
3, 120768, Note_on_c, 0, 61, 0
3, 120768, Note_on_c, 0, 56, 80
3, 120960, Note_on_c, 0, 56, 0
3, 120960, Note_on_c, 0, 52, 80
3, 121152, Note_on_c, 0, 52, 0
3, 121152, Note_on_c, 0, 49, 80
3, 121286, Control_c, 0, 64, 0
3, 121344, Note_on_c, 0, 49, 0
3, 121344, Note_on_c, 0, 42, 80
3, 121382, Control_c, 0, 64, 127
3, 121536, Note_on_c, 0, 42, 0
3, 121536, Note_on_c, 0, 49, 80
3, 121728, Note_on_c, 0, 49, 0
3, 121728, Note_on_c, 0, 52, 80
3, 121920, Note_on_c, 0, 52, 0
3, 121920, Note_on_c, 0, 54, 80
3, 122112, Note_on_c, 0, 54, 0
3, 122112, Note_on_c, 0, 57, 80
3, 122304, Note_on_c, 0, 57, 0
3, 122304, Note_on_c, 0, 54, 80
3, 122496, Note_on_c, 0, 54, 0
3, 122496, Note_on_c, 0, 52, 80
3, 122688, Note_on_c, 0, 52, 0
3, 122688, Note_on_c, 0, 49, 80
3, 122822, Control_c, 0, 64, 0
3, 122880, Note_on_c, 0, 49, 0
3, 122880, Note_on_c, 0, 44, 80
3, 122918, Control_c, 0, 64, 127
3, 123072, Note_on_c, 0, 44, 0
3, 123072, Note_on_c, 0, 49, 80
3, 123264, Note_on_c, 0, 49, 0
3, 123264, Note_on_c, 0, 52, 80
3, 123456, Note_on_c, 0, 52, 0
3, 123456, Note_on_c, 0, 56, 80
3, 123648, Note_on_c, 0, 56, 0
3, 123648, Note_on_c, 0, 59, 80
3, 123840, Note_on_c, 0, 59, 0
3, 123840, Note_on_c, 0, 56, 80
3, 124032, Note_on_c, 0, 56, 0
3, 124032, Note_on_c, 0, 52, 80
3, 124224, Note_on_c, 0, 52, 0
3, 124224, Note_on_c, 0, 49, 80
3, 124358, Control_c, 0, 64, 0
3, 124416, Note_on_c, 0, 49, 0
3, 124416, Note_on_c, 0, 45, 80
3, 124454, Control_c, 0, 64, 127
3, 124608, Note_on_c, 0, 45, 0
3, 124608, Note_on_c, 0, 52, 80
3, 124800, Note_on_c, 0, 52, 0
3, 124800, Note_on_c, 0, 54, 80
3, 124992, Note_on_c, 0, 54, 0
3, 124992, Note_on_c, 0, 57, 80
3, 125184, Note_on_c, 0, 57, 0
3, 125184, Note_on_c, 0, 61, 80
3, 125376, Note_on_c, 0, 61, 0
3, 125376, Note_on_c, 0, 57, 80
3, 125568, Note_on_c, 0, 57, 0
3, 125568, Note_on_c, 0, 54, 80
3, 125760, Note_on_c, 0, 54, 0
3, 125760, Note_on_c, 0, 52, 80
3, 125894, Control_c, 0, 64, 0
3, 125952, Note_on_c, 0, 52, 0
3, 125952, Note_on_c, 0, 46, 80
3, 125990, Control_c, 0, 64, 127
3, 126144, Note_on_c, 0, 46, 0
3, 126144, Note_on_c, 0, 52, 80
3, 126336, Note_on_c, 0, 52, 0
3, 126336, Note_on_c, 0, 56, 81
3, 126528, Note_on_c, 0, 56, 0
3, 126528, Note_on_c, 0, 61, 81
3, 126681, Control_c, 0, 64, 0
3, 126720, Note_on_c, 0, 61, 0
3, 126720, Note_on_c, 0, 49, 81
3, 126758, Control_c, 0, 64, 127
3, 126912, Note_on_c, 0, 49, 0
3, 126912, Note_on_c, 0, 54, 82
3, 127104, Note_on_c, 0, 54, 0
3, 127104, Note_on_c, 0, 58, 82
3, 127296, Note_on_c, 0, 58, 0
3, 127296, Note_on_c, 0, 64, 82
3, 127449, Control_c, 0, 64, 0
3, 127488, Note_on_c, 0, 64, 0
3, 127488, Note_on_c, 0, 52, 83
3, 127526, Control_c, 0, 64, 127
3, 127680, Note_on_c, 0, 52, 0
3, 127680, Note_on_c, 0, 58, 84
3, 127872, Note_on_c, 0, 58, 0
3, 127872, Note_on_c, 0, 61, 84
3, 128064, Note_on_c, 0, 61, 0
3, 128064, Note_on_c, 0, 68, 85
3, 128217, Control_c, 0, 64, 0
3, 128256, Note_on_c, 0, 68, 0
3, 128256, Note_on_c, 0, 54, 85
3, 128294, Control_c, 0, 64, 127
3, 128448, Note_on_c, 0, 54, 0
3, 128448, Note_on_c, 0, 61, 85
3, 128640, Note_on_c, 0, 61, 0
3, 128640, Note_on_c, 0, 64, 86
3, 128832, Note_on_c, 0, 64, 0
3, 128832, Note_on_c, 0, 70, 86
3, 128985, Control_c, 0, 64, 0
3, 129024, Note_on_c, 0, 70, 0
3, 129024, Note_on_c, 0, 58, 87
3, 129062, Control_c, 0, 64, 127
3, 129216, Note_on_c, 0, 58, 0
3, 129216, Note_on_c, 0, 64, 87
3, 129408, Note_on_c, 0, 64, 0
3, 129408, Note_on_c, 0, 68, 87
3, 129600, Note_on_c, 0, 68, 0
3, 129600, Note_on_c, 0, 73, 88
3, 129753, Control_c, 0, 64, 0
3, 129792, Note_on_c, 0, 73, 0
3, 129792, Note_on_c, 0, 61, 88
3, 129830, Control_c, 0, 64, 127
3, 129984, Note_on_c, 0, 61, 0
3, 129984, Note_on_c, 0, 66, 88
3, 130176, Note_on_c, 0, 66, 0
3, 130176, Note_on_c, 0, 70, 88
3, 130368, Note_on_c, 0, 70, 0
3, 130368, Note_on_c, 0, 76, 88
3, 130521, Control_c, 0, 64, 0
3, 130560, Note_on_c, 0, 76, 0
3, 130560, Note_on_c, 0, 58, 89
3, 130598, Control_c, 0, 64, 127
3, 130752, Note_on_c, 0, 58, 0
3, 130752, Note_on_c, 0, 64, 90
3, 130944, Note_on_c, 0, 64, 0
3, 130944, Note_on_c, 0, 68, 90
3, 131136, Note_on_c, 0, 68, 0
3, 131136, Note_on_c, 0, 73, 90
3, 131289, Control_c, 0, 64, 0
3, 131328, Note_on_c, 0, 73, 0
3, 131328, Note_on_c, 0, 61, 91
3, 131366, Control_c, 0, 64, 127
3, 131520, Note_on_c, 0, 61, 0
3, 131520, Note_on_c, 0, 66, 91
3, 131712, Note_on_c, 0, 66, 0
3, 131712, Note_on_c, 0, 70, 91
3, 131904, Note_on_c, 0, 70, 0
3, 131904, Note_on_c, 0, 76, 92
3, 132057, Control_c, 0, 64, 0
3, 132096, Note_on_c, 0, 76, 0
3, 132096, Note_on_c, 0, 61, 80
3, 132134, Control_c, 0, 64, 127
3, 132222, Note_on_c, 0, 61, 0
3, 132222, Note_on_c, 0, 64, 80
3, 132350, Note_on_c, 0, 64, 0
3, 132350, Note_on_c, 0, 69, 80
3, 132478, Note_on_c, 0, 69, 0
3, 132825, Control_c, 0, 64, 0
3, 132902, Control_c, 0, 64, 127
3, 133248, Note_on_c, 0, 68, 80
3, 133374, Note_on_c, 0, 68, 0
3, 133374, Note_on_c, 0, 63, 80
3, 133502, Note_on_c, 0, 63, 0
3, 133502, Note_on_c, 0, 59, 80
3, 133593, Control_c, 0, 64, 0
3, 133630, Note_on_c, 0, 59, 0
3, 133632, Note_on_c, 0, 57, 80
3, 133670, Control_c, 0, 64, 127
3, 133758, Note_on_c, 0, 57, 0
3, 133758, Note_on_c, 0, 61, 80
3, 133886, Note_on_c, 0, 61, 0
3, 133886, Note_on_c, 0, 66, 80
3, 134014, Note_on_c, 0, 66, 0
3, 134361, Control_c, 0, 64, 0
3, 134438, Control_c, 0, 64, 127
3, 134784, Note_on_c, 0, 64, 80
3, 134910, Note_on_c, 0, 64, 0
3, 134910, Note_on_c, 0, 59, 80
3, 135038, Note_on_c, 0, 59, 0
3, 135038, Note_on_c, 0, 56, 80
3, 135129, Control_c, 0, 64, 0
3, 135166, Note_on_c, 0, 56, 0
3, 135168, Note_on_c, 0, 61, 80
3, 135206, Control_c, 0, 64, 127
3, 135294, Note_on_c, 0, 64, 80
3, 135422, Note_on_c, 0, 64, 0
3, 135422, Note_on_c, 0, 69, 80
3, 135550, Note_on_c, 0, 69, 0
3, 135552, Note_on_c, 0, 73, 80
3, 135678, Note_on_c, 0, 73, 0
3, 135678, Note_on_c, 0, 69, 80
3, 135806, Note_on_c, 0, 69, 0
3, 135806, Note_on_c, 0, 64, 80
3, 135897, Control_c, 0, 64, 0
3, 135934, Note_on_c, 0, 64, 0
3, 135936, Note_on_c, 0, 61, 0
3, 135936, Note_on_c, 0, 59, 80
3, 135974, Control_c, 0, 64, 127
3, 136062, Note_on_c, 0, 63, 80
3, 136190, Note_on_c, 0, 63, 0
3, 136190, Note_on_c, 0, 68, 80
3, 136318, Note_on_c, 0, 68, 0
3, 136320, Note_on_c, 0, 71, 80
3, 136446, Note_on_c, 0, 71, 0
3, 136446, Note_on_c, 0, 68, 80
3, 136574, Note_on_c, 0, 68, 0
3, 136574, Note_on_c, 0, 63, 80
3, 136665, Control_c, 0, 64, 0
3, 136702, Note_on_c, 0, 63, 0
3, 136704, Note_on_c, 0, 59, 0
3, 136704, Note_on_c, 0, 57, 80
3, 136742, Control_c, 0, 64, 127
3, 136830, Note_on_c, 0, 61, 80
3, 136958, Note_on_c, 0, 61, 0
3, 136958, Note_on_c, 0, 66, 80
3, 137086, Note_on_c, 0, 66, 0
3, 137088, Note_on_c, 0, 69, 80
3, 137214, Note_on_c, 0, 69, 0
3, 137214, Note_on_c, 0, 66, 80
3, 137342, Note_on_c, 0, 66, 0
3, 137342, Note_on_c, 0, 61, 80
3, 137433, Control_c, 0, 64, 0
3, 137470, Note_on_c, 0, 61, 0
3, 137472, Note_on_c, 0, 57, 0
3, 137472, Note_on_c, 0, 56, 80
3, 137510, Control_c, 0, 64, 127
3, 137598, Note_on_c, 0, 59, 80
3, 137726, Note_on_c, 0, 59, 0
3, 137726, Note_on_c, 0, 64, 80
3, 137854, Note_on_c, 0, 64, 0
3, 137856, Note_on_c, 0, 68, 80
3, 137982, Note_on_c, 0, 68, 0
3, 137982, Note_on_c, 0, 64, 80
3, 138110, Note_on_c, 0, 64, 0
3, 138110, Note_on_c, 0, 59, 80
3, 138201, Control_c, 0, 64, 0
3, 138238, Note_on_c, 0, 59, 0
3, 138240, Note_on_c, 0, 56, 0
3, 138240, Note_on_c, 0, 54, 80
3, 138278, Control_c, 0, 64, 127
3, 138366, Note_on_c, 0, 57, 80
3, 138494, Note_on_c, 0, 57, 0
3, 138494, Note_on_c, 0, 62, 80
3, 138622, Note_on_c, 0, 62, 0
3, 138624, Note_on_c, 0, 66, 80
3, 138750, Note_on_c, 0, 66, 0
3, 138750, Note_on_c, 0, 62, 80
3, 138878, Note_on_c, 0, 62, 0
3, 138878, Note_on_c, 0, 57, 80
3, 138969, Control_c, 0, 64, 0
3, 139006, Note_on_c, 0, 57, 0
3, 139008, Note_on_c, 0, 54, 0
3, 139008, Note_on_c, 0, 52, 80
3, 139046, Control_c, 0, 64, 127
3, 139134, Note_on_c, 0, 56, 80
3, 139262, Note_on_c, 0, 56, 0
3, 139262, Note_on_c, 0, 61, 80
3, 139390, Note_on_c, 0, 61, 0
3, 139392, Note_on_c, 0, 64, 80
3, 139518, Note_on_c, 0, 64, 0
3, 139518, Note_on_c, 0, 61, 80
3, 139646, Note_on_c, 0, 61, 0
3, 139646, Note_on_c, 0, 56, 80
3, 139737, Control_c, 0, 64, 0
3, 139774, Note_on_c, 0, 56, 0
3, 139776, Note_on_c, 0, 52, 0
3, 139776, Note_on_c, 0, 50, 80
3, 139814, Control_c, 0, 64, 127
3, 139902, Note_on_c, 0, 54, 80
3, 140030, Note_on_c, 0, 54, 0
3, 140030, Note_on_c, 0, 59, 80
3, 140158, Note_on_c, 0, 59, 0
3, 140160, Note_on_c, 0, 62, 80
3, 140286, Note_on_c, 0, 62, 0
3, 140286, Note_on_c, 0, 59, 80
3, 140414, Note_on_c, 0, 59, 0
3, 140414, Note_on_c, 0, 54, 80
3, 140505, Control_c, 0, 64, 0
3, 140542, Note_on_c, 0, 54, 0
3, 140544, Note_on_c, 0, 50, 0
3, 140544, Note_on_c, 0, 49, 80
3, 140582, Control_c, 0, 64, 127
3, 140670, Note_on_c, 0, 52, 80
3, 140798, Note_on_c, 0, 52, 0
3, 140798, Note_on_c, 0, 57, 80
3, 140926, Note_on_c, 0, 57, 0
3, 140928, Note_on_c, 0, 61, 80
3, 141054, Note_on_c, 0, 61, 0
3, 141054, Note_on_c, 0, 57, 80
3, 141182, Note_on_c, 0, 57, 0
3, 141182, Note_on_c, 0, 52, 80
3, 141273, Control_c, 0, 64, 0
3, 141310, Note_on_c, 0, 52, 0
3, 141312, Note_on_c, 0, 49, 0
3, 141312, Note_on_c, 0, 47, 79
3, 141350, Control_c, 0, 64, 127
3, 141438, Note_on_c, 0, 53, 79
3, 141566, Note_on_c, 0, 53, 0
3, 141566, Note_on_c, 0, 56, 80
3, 141694, Note_on_c, 0, 56, 0
3, 141696, Note_on_c, 0, 59, 80
3, 141822, Note_on_c, 0, 59, 0
3, 141822, Note_on_c, 0, 56, 80
3, 141950, Note_on_c, 0, 56, 0
3, 141950, Note_on_c, 0, 53, 81
3, 142041, Control_c, 0, 64, 0
3, 142078, Note_on_c, 0, 53, 0
3, 142080, Note_on_c, 0, 47, 0
3, 142080, Note_on_c, 0, 45, 81
3, 142118, Control_c, 0, 64, 127
3, 142206, Note_on_c, 0, 49, 81
3, 142334, Note_on_c, 0, 49, 0
3, 142334, Note_on_c, 0, 54, 82
3, 142462, Note_on_c, 0, 54, 0
3, 142464, Note_on_c, 0, 57, 82
3, 142590, Note_on_c, 0, 57, 0
3, 142590, Note_on_c, 0, 54, 82
3, 142718, Note_on_c, 0, 54, 0
3, 142718, Note_on_c, 0, 49, 83
3, 142809, Control_c, 0, 64, 0
3, 142846, Note_on_c, 0, 49, 0
3, 142848, Note_on_c, 0, 45, 0
3, 142848, Note_on_c, 0, 44, 84
3, 142886, Control_c, 0, 64, 127
3, 142974, Note_on_c, 0, 47, 84
3, 143102, Note_on_c, 0, 47, 0
3, 143102, Note_on_c, 0, 52, 85
3, 143230, Note_on_c, 0, 52, 0
3, 143232, Note_on_c, 0, 56, 85
3, 143358, Note_on_c, 0, 56, 0
3, 143358, Note_on_c, 0, 52, 85
3, 143486, Note_on_c, 0, 52, 0
3, 143486, Note_on_c, 0, 47, 86
3, 143558, Control_c, 0, 64, 0
3, 143614, Note_on_c, 0, 47, 0
3, 143616, Note_on_c, 0, 44, 0
3, 143616, Note_on_c, 0, 42, 87
3, 143654, Control_c, 0, 64, 127
3, 143742, Note_on_c, 0, 42, 0
3, 143742, Note_on_c, 0, 49, 87
3, 143870, Note_on_c, 0, 49, 0
3, 143870, Note_on_c, 0, 52, 87
3, 143998, Note_on_c, 0, 52, 0
3, 144000, Note_on_c, 0, 54, 87
3, 144126, Note_on_c, 0, 54, 0
3, 144126, Note_on_c, 0, 57, 87
3, 144254, Note_on_c, 0, 57, 0
3, 144254, Note_on_c, 0, 59, 87
3, 144382, Note_on_c, 0, 59, 0
3, 146630, Control_c, 0, 64, 0
3, 146688, Note_on_c, 0, 35, 83
3, 146726, Control_c, 0, 64, 127
3, 146814, Note_on_c, 0, 35, 0
3, 146814, Note_on_c, 0, 47, 83
3, 146942, Note_on_c, 0, 47, 0
3, 146942, Note_on_c, 0, 51, 83
3, 147070, Note_on_c, 0, 51, 0
3, 147072, Note_on_c, 0, 56, 83
3, 147198, Note_on_c, 0, 56, 0
3, 147198, Note_on_c, 0, 59, 82
3, 147326, Note_on_c, 0, 59, 0
3, 147326, Note_on_c, 0, 63, 82
3, 147454, Note_on_c, 0, 63, 0
3, 148185, Control_c, 0, 64, 0
3, 148224, Note_on_c, 0, 35, 81
3, 148262, Control_c, 0, 64, 127
3, 148350, Note_on_c, 0, 35, 0
3, 148350, Note_on_c, 0, 47, 81
3, 148478, Note_on_c, 0, 47, 0
3, 148478, Note_on_c, 0, 51, 81
3, 148606, Note_on_c, 0, 51, 0
3, 148608, Note_on_c, 0, 57, 81
3, 148734, Note_on_c, 0, 57, 0
3, 148734, Note_on_c, 0, 59, 81
3, 148862, Note_on_c, 0, 59, 0
3, 148862, Note_on_c, 0, 63, 81
3, 148990, Note_on_c, 0, 63, 0
3, 149721, Control_c, 0, 64, 0
3, 149760, Note_on_c, 0, 40, 80
3, 149798, Control_c, 0, 64, 127
3, 149952, Note_on_c, 0, 40, 0
3, 149952, Note_on_c, 0, 47, 80
3, 150144, Note_on_c, 0, 47, 0
3, 150144, Note_on_c, 0, 52, 80
3, 150336, Note_on_c, 0, 52, 0
3, 150336, Note_on_c, 0, 56, 80
3, 150528, Note_on_c, 0, 56, 0
3, 150528, Note_on_c, 0, 59, 80
3, 150720, Note_on_c, 0, 59, 0
3, 150720, Note_on_c, 0, 56, 80
3, 150912, Note_on_c, 0, 56, 0
3, 150912, Note_on_c, 0, 52, 80
3, 151104, Note_on_c, 0, 52, 0
3, 151104, Note_on_c, 0, 47, 80
3, 151257, Control_c, 0, 64, 0
3, 151296, Note_on_c, 0, 47, 0
3, 151296, Note_on_c, 0, 40, 80
3, 151334, Control_c, 0, 64, 127
3, 151488, Note_on_c, 0, 40, 0
3, 151488, Note_on_c, 0, 49, 80
3, 151680, Note_on_c, 0, 49, 0
3, 151680, Note_on_c, 0, 52, 80
3, 151872, Note_on_c, 0, 52, 0
3, 151872, Note_on_c, 0, 56, 80
3, 152064, Note_on_c, 0, 56, 0
3, 152064, Note_on_c, 0, 61, 80
3, 152256, Note_on_c, 0, 61, 0
3, 152256, Note_on_c, 0, 56, 80
3, 152448, Note_on_c, 0, 56, 0
3, 152448, Note_on_c, 0, 52, 80
3, 152640, Note_on_c, 0, 52, 0
3, 152640, Note_on_c, 0, 49, 80
3, 152793, Control_c, 0, 64, 0
3, 152832, Note_on_c, 0, 49, 0
3, 152832, Note_on_c, 0, 40, 80
3, 152870, Control_c, 0, 64, 127
3, 153024, Note_on_c, 0, 40, 0
3, 153024, Note_on_c, 0, 47, 80
3, 153216, Note_on_c, 0, 47, 0
3, 153216, Note_on_c, 0, 52, 80
3, 153408, Note_on_c, 0, 52, 0
3, 153408, Note_on_c, 0, 56, 80
3, 153600, Note_on_c, 0, 56, 0
3, 153600, Note_on_c, 0, 59, 80
3, 153792, Note_on_c, 0, 59, 0
3, 153792, Note_on_c, 0, 56, 80
3, 153984, Note_on_c, 0, 56, 0
3, 153984, Note_on_c, 0, 52, 80
3, 154176, Note_on_c, 0, 52, 0
3, 154176, Note_on_c, 0, 47, 80
3, 154329, Control_c, 0, 64, 0
3, 154368, Note_on_c, 0, 47, 0
3, 154368, Note_on_c, 0, 40, 80
3, 154406, Control_c, 0, 64, 127
3, 154560, Note_on_c, 0, 40, 0
3, 154560, Note_on_c, 0, 49, 80
3, 154752, Note_on_c, 0, 49, 0
3, 154752, Note_on_c, 0, 52, 80
3, 154944, Note_on_c, 0, 52, 0
3, 154944, Note_on_c, 0, 56, 80
3, 155136, Note_on_c, 0, 56, 0
3, 155136, Note_on_c, 0, 61, 80
3, 155328, Note_on_c, 0, 61, 0
3, 155328, Note_on_c, 0, 56, 80
3, 155520, Note_on_c, 0, 56, 0
3, 155520, Note_on_c, 0, 52, 80
3, 155712, Note_on_c, 0, 52, 0
3, 155712, Note_on_c, 0, 49, 80
3, 155865, Control_c, 0, 64, 0
3, 155904, Note_on_c, 0, 49, 0
3, 155904, Note_on_c, 0, 40, 80
3, 155942, Control_c, 0, 64, 127
3, 156268, Control_c, 0, 64, 0
3, 156288, Note_on_c, 0, 40, 0
3, 156288, Note_on_c, 0, 47, 80
3, 156326, Control_c, 0, 64, 127
3, 156633, Control_c, 0, 64, 0
3, 156672, Note_on_c, 0, 47, 0
3, 156672, Note_on_c, 0, 52, 80
3, 156691, Control_c, 0, 64, 127
3, 157017, Control_c, 0, 64, 0
3, 157056, Note_on_c, 0, 52, 0
3, 157056, Note_on_c, 0, 56, 80
3, 157075, Control_c, 0, 64, 127
3, 157401, Control_c, 0, 64, 0
3, 157440, Note_on_c, 0, 56, 0
3, 157440, Note_on_c, 0, 52, 80
3, 157478, Control_c, 0, 64, 127
3, 157804, Control_c, 0, 64, 0
3, 157824, Note_on_c, 0, 52, 0
3, 157824, Note_on_c, 0, 59, 80
3, 157862, Control_c, 0, 64, 127
3, 158169, Control_c, 0, 64, 0
3, 158208, Note_on_c, 0, 59, 0
3, 158208, Note_on_c, 0, 64, 80
3, 158227, Control_c, 0, 64, 127
3, 158553, Control_c, 0, 64, 0
3, 158592, Note_on_c, 0, 64, 0
3, 158592, Note_on_c, 0, 68, 80
3, 158611, Control_c, 0, 64, 127
3, 158937, Control_c, 0, 64, 0
3, 158976, Note_on_c, 0, 68, 0
3, 158976, Note_on_c, 0, 64, 80
3, 159014, Control_c, 0, 64, 127
3, 159340, Control_c, 0, 64, 0
3, 159360, Note_on_c, 0, 64, 0
3, 159360, Note_on_c, 0, 71, 80
3, 159398, Control_c, 0, 64, 127
3, 159705, Control_c, 0, 64, 0
3, 159744, Note_on_c, 0, 71, 0
3, 159744, Note_on_c, 0, 76, 80
3, 159763, Control_c, 0, 64, 127
3, 160089, Control_c, 0, 64, 0
3, 160128, Note_on_c, 0, 76, 0
3, 160128, Note_on_c, 0, 80, 80
3, 160147, Control_c, 0, 64, 127
3, 160473, Control_c, 0, 64, 0
3, 160512, Note_on_c, 0, 80, 0
3, 160512, Note_on_c, 0, 76, 80
3, 160512, Note_on_c, 0, 83, 80
3, 160896, Note_on_c, 0, 83, 0
3, 160896, Note_on_c, 0, 76, 0
3, 160896, Note_on_c, 0, 76, 80
3, 160896, Note_on_c, 0, 83, 80
3, 161664, Note_on_c, 0, 83, 0
3, 161664, Note_on_c, 0, 76, 0
3, 161664, Note_on_c, 0, 76, 80
3, 161664, Note_on_c, 0, 83, 80
3, 162048, Note_on_c, 0, 83, 0
3, 162048, Note_on_c, 0, 76, 0
3, 162048, Note_on_c, 0, 40, 80
3, 162048, Note_on_c, 0, 52, 80
3, 162432, Note_on_c, 0, 52, 0
3, 162432, Note_on_c, 0, 40, 0
3, 162432, End_track
0, 0, End_of_file
