0, 0, Header, 1, 17, 384
1, 0, Start_track
1, 0, Time_signature, 4, 2, 96, 8
1, 0, Sequencer_specific, 3, 0, 0, 65
1, 0, Tempo, 472440
1, 62976, Tempo, 451127
1, 65456, Tempo, 472440
1, 65456, End_track
2, 0, Start_track
2, 0, Title_t, "Clair De Lune"
2, 0, Control_c, 0, 7, 127
2, 0, Control_c, 0, 91, 127
2, 0, Key_signature, 0, "major"
2, 1648, Control_c, 0, 64, 40
2, 1664, Control_c, 0, 64, 72
2, 1676, Control_c, 0, 64, 104
2, 1692, Control_c, 0, 64, 127
2, 2012, Note_on_c, 0, 65, 35
2, 2012, Note_on_c, 0, 68, 39
2, 2340, Note_on_c, 0, 80, 64
2, 2352, Note_on_c, 0, 77, 60
2, 2748, Note_off_c, 0, 80, 0
2, 2752, Note_off_c, 0, 77, 0
2, 3164, Note_on_c, 0, 77, 59
2, 3200, Note_on_c, 0, 73, 25
2, 3576, Note_off_c, 0, 65, 0
2, 3604, Note_off_c, 0, 68, 0
2, 3796, Note_off_c, 0, 73, 0
2, 3808, Note_off_c, 0, 77, 0
2, 4328, Note_on_c, 0, 69, 51
2, 4332, Note_on_c, 0, 66, 40
2, 4356, Control_c, 0, 64, 24
2, 4372, Control_c, 0, 64, 0
2, 4468, Control_c, 0, 64, 56
2, 4484, Control_c, 0, 64, 127
2, 4560, Note_on_c, 0, 75, 57
2, 4576, Note_on_c, 0, 72, 48
2, 4740, Note_off_c, 0, 72, 0
2, 4776, Note_off_c, 0, 75, 0
2, 4808, Note_on_c, 0, 77, 70
2, 4816, Note_on_c, 0, 73, 33
2, 4908, Note_off_c, 0, 73, 0
2, 5076, Note_off_c, 0, 77, 0
2, 5136, Note_on_c, 0, 75, 58
2, 5168, Note_on_c, 0, 72, 37
2, 5272, Control_c, 0, 64, 72
2, 5288, Control_c, 0, 64, 24
2, 5304, Control_c, 0, 64, 0
2, 5520, Control_c, 0, 64, 40
2, 5532, Control_c, 0, 64, 72
2, 5552, Control_c, 0, 64, 127
2, 5776, Note_off_c, 0, 69, 0
2, 5808, Note_off_c, 0, 66, 0
2, 5928, Note_off_c, 0, 72, 0
2, 5972, Note_off_c, 0, 75, 0
2, 6436, Note_on_c, 0, 68, 35
2, 6456, Note_on_c, 0, 65, 37
2, 6480, Control_c, 0, 64, 88
2, 6496, Control_c, 0, 64, 0
2, 6604, Control_c, 0, 64, 56
2, 6620, Control_c, 0, 64, 127
2, 6688, Note_on_c, 0, 73, 64
2, 6700, Note_on_c, 0, 70, 45
2, 6872, Note_off_c, 0, 73, 0
2, 6896, Note_off_c, 0, 70, 0
2, 6924, Note_on_c, 0, 75, 68
2, 6960, Note_on_c, 0, 72, 34
2, 7004, Note_off_c, 0, 72, 0
2, 7096, Note_off_c, 0, 75, 0
2, 7200, Note_on_c, 0, 73, 57
2, 7216, Note_on_c, 0, 70, 35
2, 7256, Control_c, 0, 64, 104
2, 7272, Control_c, 0, 64, 40
2, 7284, Control_c, 0, 64, 0
2, 7376, Control_c, 0, 64, 56
2, 7392, Control_c, 0, 64, 104
2, 7408, Control_c, 0, 64, 127
2, 7640, Note_off_c, 0, 73, 0
2, 7640, Note_on_c, 0, 77, 67
2, 7748, Control_c, 0, 64, 88
2, 7764, Control_c, 0, 64, 56
2, 7780, Control_c, 0, 64, 0
2, 7908, Control_c, 0, 64, 24
2, 7920, Control_c, 0, 64, 88
2, 7936, Control_c, 0, 64, 127
2, 8160, Note_off_c, 0, 65, 0
2, 8164, Note_off_c, 0, 68, 0
2, 8452, Note_on_c, 0, 73, 48
2, 8464, Note_off_c, 0, 77, 0
2, 8560, Note_off_c, 0, 70, 0
2, 8584, Note_off_c, 0, 73, 0
2, 8876, Note_on_c, 0, 66, 39
2, 8880, Note_on_c, 0, 63, 42
2, 8896, Control_c, 0, 64, 104
2, 8912, Control_c, 0, 64, 40
2, 8928, Control_c, 0, 64, 0
2, 9020, Control_c, 0, 64, 40
2, 9036, Control_c, 0, 64, 88
2, 9052, Control_c, 0, 64, 127
2, 9124, Note_on_c, 0, 72, 64
2, 9128, Note_on_c, 0, 68, 41
2, 9300, Note_off_c, 0, 72, 0
2, 9368, Note_on_c, 0, 73, 54
2, 9376, Note_on_c, 0, 70, 42
2, 9384, Note_off_c, 0, 68, 0
2, 9392, Control_c, 0, 64, 104
2, 9408, Control_c, 0, 64, 24
2, 9424, Control_c, 0, 64, 0
2, 9500, Control_c, 0, 64, 72
2, 9516, Control_c, 0, 64, 127
2, 9604, Note_off_c, 0, 70, 0
2, 9640, Note_off_c, 0, 73, 0
2, 9692, Note_on_c, 0, 72, 55
2, 9696, Note_on_c, 0, 68, 25
2, 9764, Control_c, 0, 64, 104
2, 9780, Control_c, 0, 64, 72
2, 9796, Control_c, 0, 64, 24
2, 9812, Control_c, 0, 64, 0
2, 10028, Control_c, 0, 64, 24
2, 10040, Control_c, 0, 64, 72
2, 10056, Control_c, 0, 64, 104
2, 10076, Control_c, 0, 64, 127
2, 10260, Note_off_c, 0, 66, 0
2, 10292, Note_off_c, 0, 63, 0
2, 10452, Note_off_c, 0, 68, 0
2, 10984, Note_on_c, 0, 66, 40
2, 10996, Note_on_c, 0, 61, 34
2, 11000, Note_on_c, 0, 63, 35
2, 11096, Control_c, 0, 64, 104
2, 11112, Control_c, 0, 64, 56
2, 11128, Control_c, 0, 64, 0
2, 11196, Note_off_c, 0, 72, 0
2, 11236, Control_c, 0, 64, 56
2, 11240, Note_on_c, 0, 70, 62
2, 11252, Control_c, 0, 64, 127
2, 11460, Note_off_c, 0, 70, 0
2, 11476, Note_on_c, 0, 72, 72
2, 11660, Note_off_c, 0, 72, 0
2, 11692, Note_on_c, 0, 70, 62
2, 11900, Note_off_c, 0, 70, 0
2, 11908, Note_on_c, 0, 75, 74
2, 12064, Note_off_c, 0, 75, 0
2, 12080, Note_off_c, 0, 63, 0
2, 12128, Note_on_c, 0, 70, 71
2, 12136, Note_off_c, 0, 61, 0
2, 12320, Note_off_c, 0, 70, 0
2, 12364, Note_on_c, 0, 68, 64
2, 12404, Note_on_c, 0, 63, 27
2, 12420, Note_on_c, 0, 60, 43
2, 12460, Control_c, 0, 64, 56
2, 12472, Control_c, 0, 64, 0
2, 12568, Control_c, 0, 64, 88
2, 12584, Control_c, 0, 64, 127
2, 12604, Note_off_c, 0, 68, 0
2, 12612, Note_on_c, 0, 70, 70
2, 12748, Note_off_c, 0, 63, 0
2, 12760, Note_off_c, 0, 60, 0
2, 12796, Note_off_c, 0, 70, 0
2, 12828, Note_on_c, 0, 68, 64
2, 12836, Note_off_c, 0, 66, 0
2, 13112, Note_on_c, 0, 63, 38
2, 13116, Note_on_c, 0, 61, 41
2, 13124, Note_on_c, 0, 58, 42
2, 13156, Control_c, 0, 64, 72
2, 13172, Control_c, 0, 64, 0
2, 13320, Note_off_c, 0, 68, 0
2, 13348, Note_on_c, 0, 66, 58
2, 13356, Control_c, 0, 64, 56
2, 13372, Control_c, 0, 64, 88
2, 13388, Control_c, 0, 64, 127
2, 13588, Note_off_c, 0, 66, 0
2, 13608, Note_on_c, 0, 68, 61
2, 13620, Control_c, 0, 64, 56
2, 13636, Control_c, 0, 64, 0
2, 13712, Control_c, 0, 64, 40
2, 13728, Control_c, 0, 64, 88
2, 13744, Control_c, 0, 64, 127
2, 13856, Note_off_c, 0, 68, 0
2, 13896, Note_on_c, 0, 66, 59
2, 13948, Control_c, 0, 64, 72
2, 13964, Control_c, 0, 64, 24
2, 13976, Control_c, 0, 64, 0
2, 14164, Control_c, 0, 64, 24
2, 14176, Control_c, 0, 64, 72
2, 14192, Control_c, 0, 64, 127
2, 14336, Note_off_c, 0, 66, 0
2, 14340, Note_off_c, 0, 61, 0
2, 14356, Note_off_c, 0, 58, 0
2, 14376, Note_off_c, 0, 63, 0
2, 14732, Note_on_c, 0, 65, 49
2, 14748, Note_on_c, 0, 57, 38
2, 14756, Note_on_c, 0, 63, 23
2, 14764, Note_on_c, 0, 60, 33
2, 14844, Control_c, 0, 64, 104
2, 14860, Control_c, 0, 64, 40
2, 14876, Control_c, 0, 64, 0
2, 15032, Control_c, 0, 64, 88
2, 15048, Control_c, 0, 64, 127
2, 15168, Note_off_c, 0, 60, 0
2, 15188, Note_off_c, 0, 57, 0
2, 15224, Note_off_c, 0, 63, 0
2, 15580, Note_on_c, 0, 61, 34
2, 15584, Note_on_c, 0, 56, 39
2, 15596, Note_on_c, 0, 58, 25
2, 15636, Control_c, 0, 64, 104
2, 15648, Control_c, 0, 64, 56
2, 15664, Control_c, 0, 64, 0
2, 15732, Note_off_c, 0, 65, 0
2, 15756, Control_c, 0, 64, 40
2, 15776, Control_c, 0, 64, 104
2, 15792, Control_c, 0, 64, 127
2, 15848, Note_on_c, 0, 65, 72
2, 16060, Note_off_c, 0, 65, 0
2, 16084, Note_on_c, 0, 66, 65
2, 16304, Note_off_c, 0, 66, 0
2, 16312, Note_on_c, 0, 65, 70
2, 16332, Control_c, 0, 64, 104
2, 16348, Control_c, 0, 64, 24
2, 16364, Control_c, 0, 64, 0
2, 16440, Control_c, 0, 64, 56
2, 16456, Control_c, 0, 64, 104
2, 16468, Control_c, 0, 64, 127
2, 16496, Note_off_c, 0, 65, 0
2, 16528, Note_on_c, 0, 70, 65
2, 16548, Control_c, 0, 64, 56
2, 16564, Control_c, 0, 64, 0
2, 16628, Control_c, 0, 64, 56
2, 16640, Control_c, 0, 64, 104
2, 16656, Control_c, 0, 64, 127
2, 16704, Note_off_c, 0, 70, 0
2, 16740, Note_on_c, 0, 65, 72
2, 16952, Note_off_c, 0, 65, 0
2, 16972, Note_on_c, 0, 63, 64
2, 16996, Note_on_c, 0, 54, 45
2, 17000, Control_c, 0, 64, 88
2, 17012, Note_off_c, 0, 56, 0
2, 17012, Control_c, 0, 64, 24
2, 17028, Control_c, 0, 64, 0
2, 17120, Control_c, 0, 64, 56
2, 17136, Control_c, 0, 64, 127
2, 17208, Note_off_c, 0, 63, 0
2, 17220, Note_on_c, 0, 65, 63
2, 17280, Note_off_c, 0, 58, 0
2, 17320, Note_off_c, 0, 54, 0
2, 17412, Note_off_c, 0, 65, 0
2, 17452, Note_on_c, 0, 63, 60
2, 17456, Note_off_c, 0, 61, 0
2, 17732, Note_on_c, 0, 56, 51
2, 17752, Note_on_c, 0, 58, 31
2, 17756, Note_on_c, 0, 53, 52
2, 17756, Control_c, 0, 64, 104
2, 17772, Control_c, 0, 64, 40
2, 17784, Control_c, 0, 64, 0
2, 17896, Control_c, 0, 64, 40
2, 17912, Note_off_c, 0, 63, 0
2, 17912, Control_c, 0, 64, 88
2, 17928, Control_c, 0, 64, 127
2, 17980, Note_on_c, 0, 61, 53
2, 17988, Control_c, 0, 64, 104
2, 18008, Control_c, 0, 64, 40
2, 18020, Control_c, 0, 64, 0
2, 18068, Control_c, 0, 64, 56
2, 18084, Control_c, 0, 64, 88
2, 18100, Control_c, 0, 64, 127
2, 18224, Note_off_c, 0, 61, 0
2, 18248, Note_on_c, 0, 63, 55
2, 18268, Control_c, 0, 64, 72
2, 18284, Control_c, 0, 64, 0
2, 18344, Control_c, 0, 64, 40
2, 18360, Control_c, 0, 64, 88
2, 18380, Control_c, 0, 64, 127
2, 18484, Note_off_c, 0, 63, 0
2, 18544, Note_on_c, 0, 61, 49
2, 18640, Control_c, 0, 64, 104
2, 18656, Control_c, 0, 64, 56
2, 18672, Control_c, 0, 64, 0
2, 18780, Control_c, 0, 64, 40
2, 18796, Control_c, 0, 64, 104
2, 18812, Control_c, 0, 64, 127
2, 18936, Note_off_c, 0, 53, 0
2, 18948, Note_off_c, 0, 56, 0
2, 19028, Note_off_c, 0, 61, 0
2, 19040, Note_off_c, 0, 58, 0
2, 19392, Note_on_c, 0, 60, 52
2, 19392, Note_on_c, 0, 56, 25
2, 19400, Note_on_c, 0, 54, 30
2, 19408, Note_on_c, 0, 51, 42
2, 19444, Control_c, 0, 64, 56
2, 19460, Control_c, 0, 64, 0
2, 19540, Control_c, 0, 64, 24
2, 19556, Control_c, 0, 64, 88
2, 19572, Control_c, 0, 64, 127
2, 19732, Note_off_c, 0, 51, 0
2, 19868, Note_on_c, 0, 44, 50
2, 19912, Note_off_c, 0, 54, 0
2, 20068, Note_off_c, 0, 60, 0
2, 20076, Note_off_c, 0, 56, 0
2, 20248, Note_off_c, 0, 44, 0
2, 20260, Note_on_c, 0, 37, 56
2, 20300, Control_c, 0, 64, 56
2, 20312, Control_c, 0, 64, 0
2, 20372, Control_c, 0, 64, 56
2, 20388, Control_c, 0, 64, 127
2, 20476, Note_off_c, 0, 37, 0
2, 20548, Note_on_c, 0, 56, 65
2, 20552, Note_on_c, 0, 53, 66
2, 20592, Note_off_c, 0, 53, 0
2, 20616, Note_off_c, 0, 56, 0
2, 20796, Note_on_c, 0, 65, 66
2, 20800, Note_on_c, 0, 68, 63
2, 21104, Note_on_c, 0, 80, 81
2, 21112, Note_on_c, 0, 77, 67
2, 21596, Note_off_c, 0, 80, 0
2, 21628, Note_off_c, 0, 77, 0
2, 21908, Note_on_c, 0, 77, 69
2, 21932, Note_on_c, 0, 73, 42
2, 22076, Note_off_c, 0, 68, 0
2, 22084, Note_off_c, 0, 65, 0
2, 22420, Note_off_c, 0, 77, 0
2, 22428, Note_off_c, 0, 73, 0
2, 22668, Control_c, 0, 64, 56
2, 22684, Control_c, 0, 64, 0
2, 22692, Note_on_c, 0, 49, 50
2, 22692, Note_on_c, 0, 42, 57
2, 22760, Control_c, 0, 64, 72
2, 22768, Note_off_c, 0, 49, 0
2, 22776, Control_c, 0, 64, 127
2, 22780, Note_off_c, 0, 42, 0
2, 23000, Note_on_c, 0, 75, 76
2, 23016, Note_on_c, 0, 70, 56
2, 23020, Note_on_c, 0, 66, 35
2, 23032, Note_on_c, 0, 61, 34
2, 23032, Note_on_c, 0, 49, 37
2, 23036, Note_on_c, 0, 54, 34
2, 23036, Note_on_c, 0, 58, 30
2, 23216, Note_off_c, 0, 75, 0
2, 23292, Note_on_c, 0, 77, 82
2, 23552, Note_off_c, 0, 77, 0
2, 23604, Note_on_c, 0, 75, 65
2, 23780, Control_c, 0, 64, 72
2, 23800, Control_c, 0, 64, 0
2, 23860, Control_c, 0, 64, 72
2, 23876, Control_c, 0, 64, 127
2, 24044, Control_c, 0, 64, 88
2, 24092, Control_c, 0, 64, 127
2, 24276, Note_off_c, 0, 49, 0
2, 24280, Note_off_c, 0, 61, 0
2, 24308, Note_off_c, 0, 58, 0
2, 24312, Note_off_c, 0, 54, 0
2, 24528, Note_off_c, 0, 70, 0
2, 24544, Note_off_c, 0, 75, 0
2, 24580, Note_off_c, 0, 66, 0
2, 24788, Control_c, 0, 64, 72
2, 24796, Note_on_c, 0, 49, 49
2, 24796, Note_on_c, 0, 41, 63
2, 24804, Control_c, 0, 64, 0
2, 24836, Control_c, 0, 64, 24
2, 24852, Control_c, 0, 64, 72
2, 24868, Control_c, 0, 64, 127
2, 24876, Note_off_c, 0, 41, 0
2, 24892, Note_off_c, 0, 49, 0
2, 25064, Note_on_c, 0, 73, 82
2, 25072, Note_on_c, 0, 61, 62
2, 25088, Note_on_c, 0, 68, 54
2, 25096, Note_on_c, 0, 56, 40
2, 25104, Note_on_c, 0, 53, 56
2, 25144, Note_off_c, 0, 61, 0
2, 25164, Note_off_c, 0, 53, 0
2, 25180, Note_off_c, 0, 56, 0
2, 25188, Note_off_c, 0, 73, 0
2, 25304, Note_off_c, 0, 68, 0
2, 25328, Note_on_c, 0, 75, 85
2, 25336, Note_on_c, 0, 63, 69
2, 25396, Note_off_c, 0, 63, 0
2, 25428, Note_off_c, 0, 75, 0
2, 25700, Note_on_c, 0, 80, 80
2, 25712, Note_on_c, 0, 68, 55
2, 25720, Note_on_c, 0, 73, 55
2, 25720, Note_on_c, 0, 61, 45
2, 25724, Note_on_c, 0, 65, 44
2, 25856, Control_c, 0, 64, 88
2, 25872, Control_c, 0, 64, 0
2, 25984, Control_c, 0, 64, 56
2, 26000, Control_c, 0, 64, 127
2, 26132, Note_off_c, 0, 80, 0
2, 26156, Note_off_c, 0, 65, 0
2, 26172, Note_off_c, 0, 73, 0
2, 26176, Note_off_c, 0, 68, 0
2, 26204, Note_off_c, 0, 61, 0
2, 26564, Note_on_c, 0, 77, 70
2, 26564, Note_on_c, 0, 73, 42
2, 26572, Note_on_c, 0, 65, 50
2, 26580, Note_on_c, 0, 61, 34
2, 26584, Note_on_c, 0, 56, 37
2, 26696, Control_c, 0, 64, 88
2, 26712, Control_c, 0, 64, 24
2, 26728, Control_c, 0, 64, 0
2, 26800, Control_c, 0, 64, 24
2, 26816, Control_c, 0, 64, 88
2, 26836, Control_c, 0, 64, 127
2, 26912, Note_off_c, 0, 61, 0
2, 26944, Note_off_c, 0, 56, 0
2, 27152, Note_off_c, 0, 65, 0
2, 27160, Note_off_c, 0, 73, 0
2, 27176, Note_off_c, 0, 77, 0
2, 27344, Control_c, 0, 64, 104
2, 27360, Control_c, 0, 64, 40
2, 27372, Note_on_c, 0, 42, 48
2, 27376, Control_c, 0, 64, 0
2, 27380, Note_on_c, 0, 49, 43
2, 27420, Control_c, 0, 64, 24
2, 27436, Control_c, 0, 64, 88
2, 27452, Note_off_c, 0, 42, 0
2, 27456, Control_c, 0, 64, 127
2, 27460, Note_off_c, 0, 49, 0
2, 27688, Note_on_c, 0, 75, 70
2, 27704, Note_on_c, 0, 66, 36
2, 27712, Note_on_c, 0, 70, 39
2, 27720, Note_on_c, 0, 61, 34
2, 27724, Note_on_c, 0, 49, 40
2, 27748, Note_on_c, 0, 58, 27
2, 27752, Note_on_c, 0, 54, 35
2, 27952, Note_off_c, 0, 75, 0
2, 27964, Note_on_c, 0, 77, 78
2, 28228, Note_off_c, 0, 77, 0
2, 28264, Note_on_c, 0, 75, 64
2, 28336, Control_c, 0, 64, 104
2, 28352, Control_c, 0, 64, 40
2, 28368, Control_c, 0, 64, 0
2, 28444, Control_c, 0, 64, 72
2, 28460, Control_c, 0, 64, 127
2, 29020, Note_off_c, 0, 75, 0
2, 29048, Note_on_c, 0, 73, 47
2, 29188, Control_c, 0, 64, 104
2, 29204, Control_c, 0, 64, 56
2, 29220, Control_c, 0, 64, 0
2, 29312, Control_c, 0, 64, 40
2, 29328, Control_c, 0, 64, 104
2, 29344, Control_c, 0, 64, 127
2, 29392, Note_off_c, 0, 61, 0
2, 29404, Note_off_c, 0, 49, 0
2, 29408, Note_off_c, 0, 58, 0
2, 29420, Note_off_c, 0, 54, 0
2, 29428, Note_off_c, 0, 70, 0
2, 29552, Note_off_c, 0, 66, 0
2, 29580, Note_off_c, 0, 73, 0
2, 29712, Note_on_c, 0, 44, 56
2, 29716, Control_c, 0, 64, 88
2, 29732, Control_c, 0, 64, 24
2, 29748, Control_c, 0, 64, 0
2, 29764, Control_c, 0, 64, 24
2, 29780, Control_c, 0, 64, 56
2, 29792, Control_c, 0, 64, 127
2, 29816, Note_off_c, 0, 44, 0
2, 29996, Note_on_c, 0, 73, 80
2, 30004, Note_on_c, 0, 61, 60
2, 30016, Note_on_c, 0, 68, 55
2, 30016, Note_on_c, 0, 56, 47
2, 30024, Note_on_c, 0, 53, 58
2, 30072, Note_off_c, 0, 61, 0
2, 30092, Note_off_c, 0, 53, 0
2, 30096, Note_off_c, 0, 56, 0
2, 30112, Note_off_c, 0, 73, 0
2, 30240, Note_off_c, 0, 68, 0
2, 30276, Note_on_c, 0, 75, 87
2, 30284, Note_on_c, 0, 63, 69
2, 30336, Note_off_c, 0, 63, 0
2, 30364, Note_off_c, 0, 75, 0
2, 30652, Note_on_c, 0, 82, 79
2, 30664, Note_on_c, 0, 70, 57
2, 30668, Note_on_c, 0, 77, 71
2, 30680, Note_on_c, 0, 65, 45
2, 30680, Note_on_c, 0, 59, 44
2, 30680, Note_on_c, 0, 61, 39
2, 30736, Control_c, 0, 64, 104
2, 30752, Control_c, 0, 64, 24
2, 30768, Control_c, 0, 64, 0
2, 30848, Control_c, 0, 64, 88
2, 30864, Control_c, 0, 64, 127
2, 30972, Note_off_c, 0, 70, 0
2, 31028, Note_off_c, 0, 82, 0
2, 31100, Note_on_c, 0, 80, 69
2, 31104, Note_on_c, 0, 68, 50
2, 31188, Control_c, 0, 64, 88
2, 31204, Control_c, 0, 64, 0
2, 31292, Control_c, 0, 64, 72
2, 31312, Control_c, 0, 64, 127
2, 31408, Note_off_c, 0, 77, 0
2, 31476, Note_off_c, 0, 80, 0
2, 31504, Note_off_c, 0, 65, 0
2, 31520, Note_off_c, 0, 68, 0
2, 31540, Note_off_c, 0, 61, 0
2, 31548, Note_off_c, 0, 59, 0
2, 31868, Note_on_c, 0, 77, 68
2, 31880, Note_on_c, 0, 65, 42
2, 32024, Control_c, 0, 64, 88
2, 32040, Control_c, 0, 64, 0
2, 32148, Control_c, 0, 64, 72
2, 32164, Control_c, 0, 64, 127
2, 32172, Note_on_c, 0, 46, 60
2, 32240, Note_off_c, 0, 46, 0
2, 32244, Note_off_c, 0, 65, 0
2, 32424, Note_off_c, 0, 77, 0
2, 32520, Note_on_c, 0, 75, 69
2, 32532, Note_on_c, 0, 65, 48
2, 32536, Note_on_c, 0, 58, 39
2, 32536, Note_on_c, 0, 70, 53
2, 32544, Note_on_c, 0, 63, 32
2, 32548, Note_on_c, 0, 53, 33
2, 32580, Control_c, 0, 64, 72
2, 32596, Control_c, 0, 64, 0
2, 32656, Control_c, 0, 64, 24
2, 32672, Control_c, 0, 64, 88
2, 32692, Control_c, 0, 64, 127
2, 32800, Note_off_c, 0, 75, 0
2, 32816, Note_on_c, 0, 77, 78
2, 33064, Note_off_c, 0, 77, 0
2, 33104, Note_on_c, 0, 75, 61
2, 33172, Control_c, 0, 64, 56
2, 33184, Control_c, 0, 64, 0
2, 33232, Control_c, 0, 64, 56
2, 33248, Control_c, 0, 64, 127
2, 33568, Note_off_c, 0, 75, 0
2, 33576, Note_on_c, 0, 73, 51
2, 33580, Note_off_c, 0, 63, 0
2, 33584, Note_on_c, 0, 61, 44
2, 33676, Note_off_c, 0, 58, 0
2, 33740, Control_c, 0, 64, 104
2, 33756, Control_c, 0, 64, 40
2, 33772, Control_c, 0, 64, 0
2, 33900, Control_c, 0, 64, 72
2, 33916, Control_c, 0, 64, 127
2, 34048, Note_off_c, 0, 70, 0
2, 34392, Note_off_c, 0, 65, 0
2, 34428, Note_off_c, 0, 61, 0
2, 34524, Note_off_c, 0, 73, 0
2, 34536, Note_on_c, 0, 70, 42
2, 34552, Note_on_c, 0, 58, 28
2, 34628, Control_c, 0, 64, 40
2, 34644, Control_c, 0, 64, 0
2, 34704, Control_c, 0, 64, 104
2, 34720, Control_c, 0, 64, 127
2, 34724, Note_off_c, 0, 53, 0
2, 34744, Note_off_c, 0, 70, 0
2, 34748, Note_off_c, 0, 58, 0
2, 35192, Note_on_c, 0, 46, 78
2, 35212, Control_c, 0, 64, 24
2, 35216, Note_on_c, 0, 27, 62
2, 35216, Note_on_c, 0, 39, 57
2, 35228, Control_c, 0, 64, 0
2, 35260, Control_c, 0, 64, 56
2, 35276, Control_c, 0, 64, 127
2, 35292, Note_off_c, 0, 46, 0
2, 35308, Note_off_c, 0, 27, 0
2, 35312, Note_off_c, 0, 39, 0
2, 35732, Note_on_c, 0, 89, 99
2, 35744, Note_on_c, 0, 82, 71
2, 35744, Note_on_c, 0, 77, 81
2, 35748, Note_on_c, 0, 70, 54
2, 35752, Note_on_c, 0, 66, 52
2, 35756, Note_on_c, 0, 65, 60
2, 36220, Note_off_c, 0, 89, 0
2, 36276, Note_off_c, 0, 77, 0
2, 36324, Note_off_c, 0, 82, 0
2, 36360, Note_off_c, 0, 70, 0
2, 36360, Note_off_c, 0, 65, 0
2, 36380, Note_off_c, 0, 66, 0
2, 36592, Note_on_c, 0, 87, 87
2, 36604, Note_on_c, 0, 75, 68
2, 36604, Note_on_c, 0, 82, 60
2, 36620, Note_on_c, 0, 70, 44
2, 36620, Note_on_c, 0, 66, 46
2, 36628, Note_on_c, 0, 63, 46
2, 36752, Note_off_c, 0, 70, 0
2, 36752, Note_off_c, 0, 63, 0
2, 36756, Note_off_c, 0, 66, 0
2, 36772, Note_off_c, 0, 75, 0
2, 36776, Note_off_c, 0, 87, 0
2, 36824, Note_off_c, 0, 82, 0
2, 36932, Note_on_c, 0, 87, 88
2, 36936, Note_on_c, 0, 75, 73
2, 36936, Note_on_c, 0, 70, 50
2, 36940, Note_on_c, 0, 82, 69
2, 36944, Note_on_c, 0, 66, 52
2, 36944, Note_on_c, 0, 63, 49
2, 37024, Note_off_c, 0, 75, 0
2, 37036, Note_off_c, 0, 70, 0
2, 37040, Note_off_c, 0, 66, 0
2, 37044, Note_off_c, 0, 63, 0
2, 37048, Note_off_c, 0, 87, 0
2, 37052, Note_off_c, 0, 82, 0
2, 37176, Note_on_c, 0, 87, 95
2, 37180, Note_on_c, 0, 63, 55
2, 37184, Note_on_c, 0, 75, 80
2, 37188, Note_on_c, 0, 82, 73
2, 37192, Note_on_c, 0, 70, 58
2, 37208, Note_on_c, 0, 66, 47
2, 37268, Note_off_c, 0, 75, 0
2, 37272, Note_off_c, 0, 87, 0
2, 37280, Note_off_c, 0, 82, 0
2, 37280, Note_off_c, 0, 70, 0
2, 37292, Note_off_c, 0, 63, 0
2, 37296, Note_off_c, 0, 66, 0
2, 37388, Note_on_c, 0, 85, 89
2, 37392, Note_on_c, 0, 73, 87
2, 37396, Note_on_c, 0, 82, 71
2, 37400, Note_on_c, 0, 61, 60
2, 37408, Note_on_c, 0, 66, 39
2, 37412, Note_on_c, 0, 70, 46
2, 37460, Note_off_c, 0, 73, 0
2, 37468, Note_off_c, 0, 85, 0
2, 37476, Note_off_c, 0, 82, 0
2, 37476, Note_off_c, 0, 70, 0
2, 37488, Note_off_c, 0, 66, 0
2, 37492, Note_off_c, 0, 61, 0
2, 37588, Note_on_c, 0, 85, 88
2, 37592, Note_on_c, 0, 73, 85
2, 37592, Note_on_c, 0, 61, 64
2, 37592, Note_on_c, 0, 82, 75
2, 37604, Note_on_c, 0, 70, 55
2, 37604, Note_on_c, 0, 66, 42
2, 37652, Note_off_c, 0, 73, 0
2, 37664, Note_off_c, 0, 85, 0
2, 37664, Note_off_c, 0, 82, 0
2, 37664, Note_off_c, 0, 70, 0
2, 37668, Note_off_c, 0, 66, 0
2, 37676, Note_off_c, 0, 61, 0
2, 37752, Note_on_c, 0, 85, 90
2, 37756, Note_on_c, 0, 73, 85
2, 37756, Note_on_c, 0, 61, 47
2, 37760, Note_on_c, 0, 82, 77
2, 37760, Note_on_c, 0, 70, 64
2, 37768, Note_on_c, 0, 66, 53
2, 37824, Note_off_c, 0, 61, 0
2, 37836, Note_off_c, 0, 70, 0
2, 37844, Note_off_c, 0, 85, 0
2, 37844, Note_off_c, 0, 73, 0
2, 37852, Note_off_c, 0, 66, 0
2, 37860, Note_off_c, 0, 82, 0
2, 37924, Note_on_c, 0, 84, 92
2, 37924, Note_on_c, 0, 82, 62
2, 37928, Note_on_c, 0, 70, 57
2, 37932, Note_on_c, 0, 72, 82
2, 37932, Note_on_c, 0, 66, 36
2, 37936, Note_on_c, 0, 60, 62
2, 37972, Note_off_c, 0, 60, 0
2, 37984, Note_off_c, 0, 72, 0
2, 38000, Note_off_c, 0, 82, 0
2, 38000, Note_off_c, 0, 70, 0
2, 38012, Note_off_c, 0, 84, 0
2, 38012, Note_off_c, 0, 66, 0
2, 38088, Note_on_c, 0, 84, 82
2, 38088, Note_on_c, 0, 82, 73
2, 38092, Note_on_c, 0, 72, 85
2, 38096, Note_on_c, 0, 66, 55
2, 38100, Note_on_c, 0, 70, 62
2, 38104, Note_on_c, 0, 60, 60
2, 38156, Note_off_c, 0, 72, 0
2, 38156, Note_off_c, 0, 60, 0
2, 38172, Note_off_c, 0, 82, 0
2, 38172, Note_off_c, 0, 66, 0
2, 38172, Note_off_c, 0, 70, 0
2, 38176, Note_off_c, 0, 84, 0
2, 38268, Note_on_c, 0, 84, 87
2, 38280, Note_on_c, 0, 72, 76
2, 38284, Note_on_c, 0, 70, 62
2, 38288, Note_on_c, 0, 82, 56
2, 38288, Note_on_c, 0, 66, 49
2, 38300, Note_on_c, 0, 60, 63
2, 38316, Control_c, 0, 64, 72
2, 38328, Control_c, 0, 64, 0
2, 38360, Control_c, 0, 64, 40
2, 38376, Control_c, 0, 64, 88
2, 38392, Control_c, 0, 64, 127
2, 38420, Note_off_c, 0, 72, 0
2, 38424, Note_off_c, 0, 84, 0
2, 38456, Note_off_c, 0, 66, 0
2, 38472, Note_off_c, 0, 60, 0
2, 38476, Note_off_c, 0, 70, 0
2, 38496, Note_off_c, 0, 82, 0
2, 38648, Note_on_c, 0, 85, 76
2, 38652, Note_on_c, 0, 73, 68
2, 38660, Note_on_c, 0, 82, 55
2, 38668, Note_on_c, 0, 61, 50
2, 38672, Note_on_c, 0, 66, 45
2, 38672, Note_on_c, 0, 70, 45
2, 38732, Control_c, 0, 64, 88
2, 38748, Control_c, 0, 64, 24
2, 38764, Control_c, 0, 64, 0
2, 38780, Control_c, 0, 64, 24
2, 38792, Control_c, 0, 64, 72
2, 38808, Control_c, 0, 64, 127
2, 38820, Note_off_c, 0, 82, 0
2, 38824, Note_off_c, 0, 70, 0
2, 38844, Note_off_c, 0, 73, 0
2, 38848, Note_off_c, 0, 66, 0
2, 38856, Note_off_c, 0, 61, 0
2, 38860, Note_off_c, 0, 85, 0
2, 39128, Note_on_c, 0, 70, 42
2, 39132, Note_on_c, 0, 82, 49
2, 39156, Note_on_c, 0, 78, 47
2, 39160, Note_on_c, 0, 58, 33
2, 39160, Note_on_c, 0, 66, 31
2, 39164, Note_on_c, 0, 61, 31
2, 39256, Control_c, 0, 64, 56
2, 39272, Control_c, 0, 64, 0
2, 39384, Control_c, 0, 64, 56
2, 39400, Control_c, 0, 64, 127
2, 39508, Note_off_c, 0, 82, 0
2, 39508, Note_off_c, 0, 66, 0
2, 39516, Note_off_c, 0, 78, 0
2, 39532, Note_off_c, 0, 58, 0
2, 39536, Note_off_c, 0, 61, 0
2, 39540, Note_off_c, 0, 70, 0
2, 39940, Control_c, 0, 64, 104
2, 39956, Control_c, 0, 64, 40
2, 39964, Note_on_c, 0, 46, 73
2, 39972, Control_c, 0, 64, 0
2, 39980, Note_on_c, 0, 27, 59
2, 39992, Note_on_c, 0, 39, 47
2, 40016, Control_c, 0, 64, 127
2, 40044, Note_off_c, 0, 46, 0
2, 40064, Note_off_c, 0, 27, 0
2, 40072, Note_off_c, 0, 39, 0
2, 40448, Note_on_c, 0, 89, 99
2, 40464, Note_on_c, 0, 77, 81
2, 40464, Note_on_c, 0, 82, 69
2, 40464, Note_on_c, 0, 70, 64
2, 40468, Note_on_c, 0, 65, 63
2, 40476, Note_on_c, 0, 66, 50
2, 40872, Note_off_c, 0, 65, 0
2, 40892, Note_off_c, 0, 70, 0
2, 40900, Note_off_c, 0, 66, 0
2, 40956, Note_off_c, 0, 77, 0
2, 40988, Note_off_c, 0, 89, 0
2, 41024, Note_off_c, 0, 82, 0
2, 41272, Note_on_c, 0, 90, 89
2, 41276, Note_on_c, 0, 78, 76
2, 41280, Note_on_c, 0, 70, 58
2, 41284, Note_on_c, 0, 82, 71
2, 41284, Note_on_c, 0, 75, 62
2, 41284, Note_on_c, 0, 66, 60
2, 41360, Note_off_c, 0, 75, 0
2, 41392, Note_off_c, 0, 66, 0
2, 41412, Note_off_c, 0, 70, 0
2, 41432, Note_off_c, 0, 78, 0
2, 41456, Note_off_c, 0, 90, 0
2, 41500, Note_off_c, 0, 82, 0
2, 41588, Note_on_c, 0, 89, 94
2, 41592, Note_on_c, 0, 77, 89
2, 41604, Note_on_c, 0, 82, 64
2, 41608, Note_on_c, 0, 65, 65
2, 41608, Note_on_c, 0, 70, 64
2, 41636, Note_on_c, 0, 66, 44
2, 41684, Note_off_c, 0, 77, 0
2, 41700, Note_off_c, 0, 89, 0
2, 41704, Note_off_c, 0, 70, 0
2, 41716, Note_off_c, 0, 65, 0
2, 41724, Note_off_c, 0, 66, 0
2, 41740, Note_off_c, 0, 82, 0
2, 41832, Note_on_c, 0, 87, 89
2, 41836, Note_on_c, 0, 75, 87
2, 41836, Note_on_c, 0, 66, 49
2, 41840, Note_on_c, 0, 82, 67
2, 41844, Note_on_c, 0, 63, 57
2, 41844, Note_on_c, 0, 70, 61
2, 41900, Note_off_c, 0, 75, 0
2, 41924, Note_off_c, 0, 63, 0
2, 41932, Note_off_c, 0, 70, 0
2, 41960, Note_off_c, 0, 66, 0
2, 41960, Note_off_c, 0, 82, 0
2, 42012, Note_off_c, 0, 87, 0
2, 42072, Note_on_c, 0, 89, 99
2, 42076, Note_on_c, 0, 77, 93
2, 42080, Note_on_c, 0, 65, 66
2, 42084, Note_on_c, 0, 82, 73
2, 42088, Note_on_c, 0, 70, 58
2, 42140, Note_off_c, 0, 77, 0
2, 42156, Note_off_c, 0, 70, 0
2, 42160, Note_off_c, 0, 89, 0
2, 42172, Note_off_c, 0, 65, 0
2, 42200, Note_off_c, 0, 82, 0
2, 42252, Note_on_c, 0, 63, 64
2, 42260, Note_on_c, 0, 87, 89
2, 42264, Note_on_c, 0, 66, 50
2, 42264, Note_on_c, 0, 75, 79
2, 42268, Note_on_c, 0, 82, 56
2, 42268, Note_on_c, 0, 70, 43
2, 42328, Note_off_c, 0, 63, 0
2, 42340, Note_off_c, 0, 75, 0
2, 42356, Note_off_c, 0, 70, 0
2, 42360, Note_off_c, 0, 87, 0
2, 42364, Note_off_c, 0, 82, 0
2, 42372, Note_off_c, 0, 66, 0
2, 42436, Note_on_c, 0, 66, 42
2, 42452, Note_on_c, 0, 61, 60
2, 42452, Note_on_c, 0, 85, 90
2, 42452, Note_on_c, 0, 73, 86
2, 42456, Note_on_c, 0, 82, 80
2, 42460, Note_on_c, 0, 70, 46
2, 42512, Note_off_c, 0, 73, 0
2, 42540, Note_off_c, 0, 61, 0
2, 42540, Note_off_c, 0, 70, 0
2, 42556, Note_off_c, 0, 66, 0
2, 42556, Note_off_c, 0, 82, 0
2, 42560, Note_off_c, 0, 85, 0
2, 42620, Note_on_c, 0, 87, 91
2, 42628, Note_on_c, 0, 75, 84
2, 42628, Note_on_c, 0, 63, 57
2, 42636, Note_on_c, 0, 70, 54
2, 42640, Note_on_c, 0, 66, 25
2, 42676, Note_off_c, 0, 75, 0
2, 42696, Note_off_c, 0, 66, 0
2, 42704, Note_off_c, 0, 87, 0
2, 42704, Note_off_c, 0, 70, 0
2, 42724, Note_off_c, 0, 63, 0
2, 42780, Note_on_c, 0, 85, 86
2, 42780, Note_on_c, 0, 73, 95
2, 42784, Note_on_c, 0, 61, 68
2, 42792, Note_on_c, 0, 82, 60
2, 42792, Note_on_c, 0, 70, 64
2, 42792, Note_on_c, 0, 66, 63
2, 42848, Note_off_c, 0, 85, 0
2, 42852, Note_off_c, 0, 82, 0
2, 42852, Note_off_c, 0, 70, 0
2, 42856, Note_off_c, 0, 61, 0
2, 42868, Note_off_c, 0, 73, 0
2, 42880, Note_off_c, 0, 66, 0
2, 42964, Note_on_c, 0, 84, 92
2, 42968, Note_on_c, 0, 72, 81
2, 42976, Note_on_c, 0, 82, 61
2, 42980, Note_on_c, 0, 70, 50
2, 42980, Note_on_c, 0, 66, 40
2, 42984, Note_on_c, 0, 60, 65
2, 42996, Control_c, 0, 64, 104
2, 43008, Control_c, 0, 64, 24
2, 43020, Control_c, 0, 64, 0
2, 43048, Note_off_c, 0, 72, 0
2, 43072, Control_c, 0, 64, 40
2, 43088, Note_off_c, 0, 84, 0
2, 43088, Control_c, 0, 64, 127
2, 43140, Note_off_c, 0, 60, 0
2, 43140, Note_off_c, 0, 70, 0
2, 43144, Note_off_c, 0, 66, 0
2, 43168, Note_off_c, 0, 82, 0
2, 43224, Note_on_c, 0, 87, 87
2, 43288, Note_off_c, 0, 87, 0
2, 43324, Note_on_c, 0, 85, 79
2, 43340, Note_on_c, 0, 73, 69
2, 43348, Note_on_c, 0, 82, 64
2, 43356, Note_on_c, 0, 61, 51
2, 43364, Note_on_c, 0, 70, 33
2, 43364, Note_on_c, 0, 66, 37
2, 43424, Control_c, 0, 64, 40
2, 43444, Control_c, 0, 64, 0
2, 43520, Note_off_c, 0, 70, 0
2, 43520, Control_c, 0, 64, 40
2, 43536, Control_c, 0, 64, 127
2, 43556, Note_off_c, 0, 66, 0
2, 43560, Note_off_c, 0, 82, 0
2, 43564, Note_off_c, 0, 85, 0
2, 43580, Note_off_c, 0, 73, 0
2, 43584, Note_off_c, 0, 61, 0
2, 43812, Note_on_c, 0, 82, 57
2, 43816, Note_on_c, 0, 70, 51
2, 43828, Note_on_c, 0, 78, 52
2, 43844, Note_on_c, 0, 63, 34
2, 43844, Note_on_c, 0, 66, 27
2, 43852, Note_on_c, 0, 58, 29
2, 43956, Control_c, 0, 64, 72
2, 43972, Control_c, 0, 64, 0
2, 44076, Control_c, 0, 64, 56
2, 44092, Control_c, 0, 64, 127
2, 44176, Note_off_c, 0, 66, 0
2, 44200, Note_off_c, 0, 63, 0
2, 44224, Note_off_c, 0, 58, 0
2, 44320, Note_off_c, 0, 82, 0
2, 44336, Note_off_c, 0, 70, 0
2, 44348, Note_off_c, 0, 78, 0
2, 44608, Note_on_c, 0, 44, 47
2, 44612, Note_on_c, 0, 32, 53
2, 44620, Control_c, 0, 64, 56
2, 44636, Control_c, 0, 64, 0
2, 44696, Control_c, 0, 64, 56
2, 44708, Note_off_c, 0, 32, 0
2, 44712, Control_c, 0, 64, 127
2, 44728, Note_off_c, 0, 44, 0
2, 44976, Note_on_c, 0, 78, 74
2, 44980, Note_on_c, 0, 66, 54
2, 44992, Note_on_c, 0, 54, 43
2, 45048, Note_off_c, 0, 66, 0
2, 45076, Note_off_c, 0, 78, 0
2, 45196, Note_off_c, 0, 54, 0
2, 45288, Note_on_c, 0, 80, 79
2, 45292, Note_on_c, 0, 68, 60
2, 45292, Note_on_c, 0, 63, 49
2, 45296, Note_on_c, 0, 56, 50
2, 45300, Note_on_c, 0, 75, 65
2, 45340, Note_on_c, 0, 60, 26
2, 45364, Note_off_c, 0, 68, 0
2, 45372, Note_off_c, 0, 75, 0
2, 45392, Note_off_c, 0, 80, 0
2, 45392, Note_off_c, 0, 60, 0
2, 45432, Note_off_c, 0, 56, 0
2, 45492, Note_off_c, 0, 63, 0
2, 45596, Note_on_c, 0, 84, 81
2, 45608, Note_on_c, 0, 60, 56
2, 45616, Note_on_c, 0, 72, 66
2, 45672, Note_off_c, 0, 60, 0
2, 45692, Note_off_c, 0, 72, 0
2, 45708, Note_off_c, 0, 84, 0
2, 45928, Note_on_c, 0, 82, 70
2, 45940, Note_on_c, 0, 70, 57
2, 45948, Note_on_c, 0, 78, 58
2, 45956, Note_on_c, 0, 58, 39
2, 45960, Note_on_c, 0, 66, 32
2, 45960, Note_on_c, 0, 63, 38
2, 46040, Note_off_c, 0, 78, 0
2, 46044, Note_off_c, 0, 82, 0
2, 46044, Note_off_c, 0, 70, 0
2, 46120, Note_off_c, 0, 66, 0
2, 46280, Note_on_c, 0, 78, 70
2, 46280, Note_on_c, 0, 54, 51
2, 46288, Note_off_c, 0, 58, 0
2, 46296, Note_on_c, 0, 66, 46
2, 46300, Note_off_c, 0, 63, 0
2, 46360, Note_off_c, 0, 54, 0
2, 46568, Note_off_c, 0, 66, 0
2, 46604, Note_off_c, 0, 78, 0
2, 46636, Control_c, 0, 64, 104
2, 46652, Control_c, 0, 64, 24
2, 46668, Control_c, 0, 64, 0
2, 46680, Note_on_c, 0, 33, 58
2, 46700, Note_on_c, 0, 45, 53
2, 46728, Control_c, 0, 64, 40
2, 46744, Control_c, 0, 64, 127
2, 46780, Note_off_c, 0, 33, 0
2, 46800, Note_off_c, 0, 45, 0
2, 46984, Note_on_c, 0, 78, 69
2, 46992, Note_on_c, 0, 66, 46
2, 47000, Note_on_c, 0, 75, 49
2, 47004, Note_on_c, 0, 63, 38
2, 47008, Note_on_c, 0, 54, 46
2, 47012, Note_on_c, 0, 60, 52
2, 47020, Note_on_c, 0, 72, 45
2, 47060, Note_off_c, 0, 72, 0
2, 47084, Note_off_c, 0, 60, 0
2, 47088, Note_off_c, 0, 66, 0
2, 47088, Note_off_c, 0, 54, 0
2, 47092, Note_off_c, 0, 63, 0
2, 47096, Note_off_c, 0, 75, 0
2, 47108, Note_off_c, 0, 78, 0
2, 47248, Note_on_c, 0, 78, 70
2, 47248, Note_on_c, 0, 63, 43
2, 47252, Note_on_c, 0, 66, 56
2, 47252, Note_on_c, 0, 54, 46
2, 47256, Note_on_c, 0, 60, 51
2, 47268, Note_on_c, 0, 75, 42
2, 47276, Note_on_c, 0, 72, 44
2, 47308, Note_off_c, 0, 60, 0
2, 47316, Note_off_c, 0, 75, 0
2, 47316, Note_off_c, 0, 72, 0
2, 47328, Note_off_c, 0, 66, 0
2, 47332, Note_off_c, 0, 63, 0
2, 47332, Note_off_c, 0, 54, 0
2, 47356, Note_off_c, 0, 78, 0
2, 47452, Note_on_c, 0, 78, 73
2, 47460, Note_on_c, 0, 66, 54
2, 47468, Note_on_c, 0, 54, 52
2, 47468, Note_on_c, 0, 63, 43
2, 47472, Note_on_c, 0, 75, 44
2, 47472, Note_on_c, 0, 72, 52
2, 47476, Note_on_c, 0, 60, 58
2, 47504, Note_off_c, 0, 60, 0
2, 47512, Note_off_c, 0, 72, 0
2, 47524, Note_off_c, 0, 63, 0
2, 47528, Note_off_c, 0, 66, 0
2, 47528, Note_off_c, 0, 54, 0
2, 47532, Note_off_c, 0, 75, 0
2, 47544, Note_off_c, 0, 78, 0
2, 47644, Note_on_c, 0, 78, 70
2, 47648, Note_on_c, 0, 66, 55
2, 47648, Note_on_c, 0, 54, 56
2, 47652, Note_on_c, 0, 63, 44
2, 47660, Note_on_c, 0, 60, 58
2, 47660, Note_on_c, 0, 75, 43
2, 47660, Note_on_c, 0, 72, 54
2, 47688, Note_off_c, 0, 60, 0
2, 47696, Note_off_c, 0, 72, 0
2, 47708, Note_off_c, 0, 66, 0
2, 47716, Note_off_c, 0, 63, 0
2, 47720, Note_off_c, 0, 54, 0
2, 47724, Note_off_c, 0, 78, 0
2, 47732, Note_off_c, 0, 75, 0
2, 47844, Note_on_c, 0, 80, 73
2, 47860, Note_on_c, 0, 68, 49
2, 47860, Note_on_c, 0, 63, 44
2, 47872, Note_on_c, 0, 75, 49
2, 47872, Note_on_c, 0, 60, 47
2, 47872, Note_on_c, 0, 56, 40
2, 47888, Note_on_c, 0, 72, 44
2, 47956, Note_off_c, 0, 56, 0
2, 47964, Note_off_c, 0, 80, 0
2, 47964, Note_off_c, 0, 60, 0
2, 47968, Note_off_c, 0, 68, 0
2, 47972, Note_off_c, 0, 63, 0
2, 47984, Note_off_c, 0, 72, 0
2, 47996, Note_off_c, 0, 75, 0
2, 48148, Note_on_c, 0, 78, 59
2, 48164, Note_on_c, 0, 66, 36
2, 48172, Note_on_c, 0, 75, 45
2, 48188, Note_on_c, 0, 63, 28
2, 48192, Note_on_c, 0, 72, 45
2, 48192, Note_on_c, 0, 60, 34
2, 48192, Note_on_c, 0, 54, 33
2, 48296, Control_c, 0, 64, 40
2, 48308, Control_c, 0, 64, 0
2, 48404, Control_c, 0, 64, 40
2, 48416, Control_c, 0, 64, 127
2, 48456, Note_off_c, 0, 60, 0
2, 48472, Note_off_c, 0, 63, 0
2, 48504, Note_off_c, 0, 54, 0
2, 48528, Note_off_c, 0, 72, 0
2, 48548, Note_off_c, 0, 66, 0
2, 48572, Note_off_c, 0, 78, 0
2, 48580, Note_off_c, 0, 75, 0
2, 48868, Note_on_c, 0, 34, 61
2, 48868, Note_on_c, 0, 46, 54
2, 48868, Control_c, 0, 64, 72
2, 48880, Control_c, 0, 64, 0
2, 48928, Control_c, 0, 64, 24
2, 48944, Control_c, 0, 64, 88
2, 48960, Control_c, 0, 64, 127
2, 48968, Note_off_c, 0, 34, 0
2, 48988, Note_off_c, 0, 46, 0
2, 49192, Note_on_c, 0, 78, 74
2, 49204, Note_on_c, 0, 66, 51
2, 49212, Note_on_c, 0, 73, 61
2, 49216, Note_on_c, 0, 58, 38
2, 49220, Note_on_c, 0, 61, 34
2, 49224, Note_on_c, 0, 54, 27
2, 49292, Note_off_c, 0, 66, 0
2, 49320, Note_off_c, 0, 78, 0
2, 49416, Note_off_c, 0, 61, 0
2, 49420, Note_off_c, 0, 54, 0
2, 49436, Note_off_c, 0, 58, 0
2, 49460, Note_off_c, 0, 73, 0
2, 49464, Note_on_c, 0, 80, 88
2, 49468, Note_on_c, 0, 68, 75
2, 49492, Note_on_c, 0, 56, 57
2, 49540, Note_off_c, 0, 68, 0
2, 49560, Note_off_c, 0, 80, 0
2, 49664, Note_off_c, 0, 56, 0
2, 49732, Note_on_c, 0, 85, 85
2, 49740, Note_on_c, 0, 73, 74
2, 49744, Note_on_c, 0, 61, 59
2, 49844, Note_off_c, 0, 85, 0
2, 49844, Note_off_c, 0, 73, 0
2, 49876, Note_off_c, 0, 61, 0
2, 50080, Note_on_c, 0, 82, 78
2, 50088, Note_on_c, 0, 70, 62
2, 50100, Note_on_c, 0, 78, 60
2, 50104, Note_on_c, 0, 61, 44
2, 50112, Note_on_c, 0, 58, 43
2, 50112, Note_on_c, 0, 66, 34
2, 50244, Note_off_c, 0, 82, 0
2, 50260, Note_off_c, 0, 70, 0
2, 50260, Note_off_c, 0, 66, 0
2, 50272, Note_off_c, 0, 78, 0
2, 50408, Note_on_c, 0, 78, 73
2, 50416, Note_on_c, 0, 54, 53
2, 50420, Note_on_c, 0, 66, 58
2, 50452, Note_off_c, 0, 61, 0
2, 50456, Note_off_c, 0, 58, 0
2, 50472, Note_off_c, 0, 54, 0
2, 50696, Control_c, 0, 64, 72
2, 50708, Control_c, 0, 64, 0
2, 50756, Note_on_c, 0, 36, 66
2, 50760, Note_on_c, 0, 48, 65
2, 50788, Control_c, 0, 64, 88
2, 50800, Control_c, 0, 64, 127
2, 50836, Note_off_c, 0, 36, 0
2, 50840, Note_off_c, 0, 78, 0
2, 50844, Note_off_c, 0, 48, 0
2, 50880, Note_off_c, 0, 66, 0
2, 50996, Note_on_c, 0, 78, 86
2, 51000, Note_on_c, 0, 66, 71
2, 51000, Note_on_c, 0, 63, 58
2, 51008, Note_on_c, 0, 70, 64
2, 51008, Note_on_c, 0, 54, 51
2, 51012, Note_on_c, 0, 75, 60
2, 51016, Note_on_c, 0, 58, 35
2, 51092, Note_off_c, 0, 54, 0
2, 51100, Note_off_c, 0, 63, 0
2, 51108, Note_off_c, 0, 66, 0
2, 51108, Note_off_c, 0, 58, 0
2, 51112, Note_off_c, 0, 75, 0
2, 51116, Note_off_c, 0, 70, 0
2, 51124, Note_off_c, 0, 78, 0
2, 51256, Note_on_c, 0, 78, 81
2, 51264, Note_on_c, 0, 66, 73
2, 51264, Note_on_c, 0, 63, 71
2, 51264, Note_on_c, 0, 54, 57
2, 51264, Note_on_c, 0, 58, 56
2, 51276, Note_on_c, 0, 70, 55
2, 51280, Note_on_c, 0, 75, 48
2, 51328, Note_off_c, 0, 63, 0
2, 51332, Note_off_c, 0, 54, 0
2, 51332, Note_off_c, 0, 70, 0
2, 51336, Note_off_c, 0, 66, 0
2, 51336, Note_off_c, 0, 58, 0
2, 51348, Note_off_c, 0, 75, 0
2, 51356, Note_off_c, 0, 78, 0
2, 51464, Note_on_c, 0, 78, 73
2, 51464, Note_on_c, 0, 66, 77
2, 51472, Note_on_c, 0, 75, 65
2, 51476, Note_on_c, 0, 70, 61
2, 51480, Note_on_c, 0, 58, 57
2, 51480, Note_on_c, 0, 63, 64
2, 51484, Note_on_c, 0, 54, 53
2, 51524, Note_off_c, 0, 54, 0
2, 51532, Note_off_c, 0, 66, 0
2, 51532, Note_off_c, 0, 63, 0
2, 51544, Note_off_c, 0, 70, 0
2, 51544, Note_off_c, 0, 58, 0
2, 51552, Note_off_c, 0, 78, 0
2, 51556, Note_off_c, 0, 75, 0
2, 51652, Note_on_c, 0, 66, 79
2, 51652, Note_on_c, 0, 78, 78
2, 51656, Note_on_c, 0, 75, 68
2, 51664, Note_on_c, 0, 58, 57
2, 51672, Note_on_c, 0, 63, 60
2, 51676, Note_on_c, 0, 54, 51
2, 51680, Note_on_c, 0, 70, 40
2, 51704, Note_off_c, 0, 70, 0
2, 51720, Note_off_c, 0, 66, 0
2, 51740, Note_off_c, 0, 78, 0
2, 51740, Note_off_c, 0, 63, 0
2, 51744, Note_off_c, 0, 58, 0
2, 51772, Note_off_c, 0, 75, 0
2, 51776, Note_off_c, 0, 54, 0
2, 51864, Note_on_c, 0, 80, 84
2, 51876, Note_on_c, 0, 68, 71
2, 51880, Note_on_c, 0, 77, 80
2, 51888, Note_on_c, 0, 56, 57
2, 51888, Note_on_c, 0, 72, 70
2, 51892, Note_on_c, 0, 60, 65
2, 51900, Note_on_c, 0, 65, 58
2, 51964, Note_off_c, 0, 72, 0
2, 51964, Note_off_c, 0, 65, 0
2, 51988, Note_off_c, 0, 60, 0
2, 51996, Note_off_c, 0, 56, 0
2, 52004, Note_off_c, 0, 68, 0
2, 52008, Note_off_c, 0, 80, 0
2, 52024, Note_off_c, 0, 77, 0
2, 52128, Note_on_c, 0, 78, 80
2, 52140, Note_on_c, 0, 66, 71
2, 52156, Note_on_c, 0, 70, 59
2, 52156, Note_on_c, 0, 75, 57
2, 52160, Note_on_c, 0, 63, 59
2, 52168, Note_on_c, 0, 54, 58
2, 52168, Note_on_c, 0, 58, 49
2, 52228, Control_c, 0, 64, 104
2, 52248, Control_c, 0, 64, 24
2, 52260, Control_c, 0, 64, 0
2, 52340, Control_c, 0, 64, 88
2, 52352, Control_c, 0, 64, 127
2, 52376, Note_off_c, 0, 63, 0
2, 52404, Note_off_c, 0, 54, 0
2, 52412, Note_off_c, 0, 58, 0
2, 52564, Note_off_c, 0, 75, 0
2, 52588, Note_off_c, 0, 66, 0
2, 52604, Note_off_c, 0, 78, 0
2, 52620, Note_off_c, 0, 70, 0
2, 52708, Control_c, 0, 64, 72
2, 52720, Note_on_c, 0, 37, 67
2, 52724, Note_on_c, 0, 49, 80
2, 52724, Control_c, 0, 64, 0
2, 52788, Control_c, 0, 64, 56
2, 52800, Note_off_c, 0, 37, 0
2, 52804, Control_c, 0, 64, 127
2, 52812, Note_off_c, 0, 49, 0
2, 53028, Note_on_c, 0, 78, 87
2, 53032, Note_on_c, 0, 66, 73
2, 53040, Note_on_c, 0, 58, 45
2, 53044, Note_on_c, 0, 54, 49
2, 53044, Note_on_c, 0, 73, 60
2, 53052, Note_on_c, 0, 70, 62
2, 53056, Note_on_c, 0, 61, 44
2, 53096, Note_off_c, 0, 73, 0
2, 53108, Note_off_c, 0, 70, 0
2, 53124, Note_off_c, 0, 66, 0
2, 53160, Note_off_c, 0, 78, 0
2, 53232, Note_off_c, 0, 61, 0
2, 53240, Note_off_c, 0, 58, 0
2, 53244, Note_off_c, 0, 54, 0
2, 53288, Note_on_c, 0, 68, 78
2, 53292, Note_on_c, 0, 80, 95
2, 53296, Note_on_c, 0, 56, 67
2, 53348, Note_off_c, 0, 68, 0
2, 53376, Note_off_c, 0, 80, 0
2, 53480, Note_off_c, 0, 56, 0
2, 53544, Note_on_c, 0, 87, 95
2, 53544, Note_on_c, 0, 75, 85
2, 53544, Note_on_c, 0, 63, 73
2, 53640, Note_off_c, 0, 87, 0
2, 53648, Note_off_c, 0, 75, 0
2, 53652, Note_off_c, 0, 63, 0
2, 53832, Note_on_c, 0, 85, 88
2, 53836, Note_on_c, 0, 73, 83
2, 53840, Note_on_c, 0, 82, 74
2, 53852, Note_on_c, 0, 61, 56
2, 53852, Note_on_c, 0, 66, 57
2, 53860, Note_on_c, 0, 70, 65
2, 53952, Note_off_c, 0, 73, 0
2, 53960, Note_off_c, 0, 70, 0
2, 53964, Note_off_c, 0, 85, 0
2, 53964, Note_off_c, 0, 82, 0
2, 54116, Note_on_c, 0, 58, 55
2, 54124, Note_off_c, 0, 66, 0
2, 54128, Note_on_c, 0, 82, 84
2, 54136, Note_on_c, 0, 70, 77
2, 54160, Note_off_c, 0, 61, 0
2, 54184, Note_off_c, 0, 58, 0
2, 54396, Control_c, 0, 64, 72
2, 54412, Control_c, 0, 64, 0
2, 54424, Note_on_c, 0, 39, 72
2, 54432, Note_on_c, 0, 51, 86
2, 54488, Note_off_c, 0, 39, 0
2, 54492, Control_c, 0, 64, 127
2, 54500, Note_off_c, 0, 51, 0
2, 54524, Note_off_c, 0, 82, 0
2, 54568, Note_off_c, 0, 70, 0
2, 54696, Note_on_c, 0, 82, 92
2, 54700, Note_on_c, 0, 70, 79
2, 54700, Note_on_c, 0, 78, 79
2, 54712, Note_on_c, 0, 61, 58
2, 54716, Note_on_c, 0, 66, 64
2, 54716, Note_on_c, 0, 58, 62
2, 54788, Note_off_c, 0, 66, 0
2, 54788, Note_off_c, 0, 58, 0
2, 54792, Note_off_c, 0, 70, 0
2, 54796, Note_off_c, 0, 61, 0
2, 54812, Note_off_c, 0, 82, 0
2, 54820, Note_off_c, 0, 78, 0
2, 54932, Note_on_c, 0, 82, 85
2, 54936, Note_on_c, 0, 78, 78
2, 54936, Note_on_c, 0, 70, 87
2, 54936, Note_on_c, 0, 66, 78
2, 54936, Note_on_c, 0, 58, 61
2, 54940, Note_on_c, 0, 61, 62
2, 54992, Note_off_c, 0, 66, 0
2, 55000, Note_off_c, 0, 70, 0
2, 55000, Note_off_c, 0, 58, 0
2, 55000, Note_off_c, 0, 61, 0
2, 55020, Note_off_c, 0, 82, 0
2, 55028, Note_off_c, 0, 78, 0
2, 55116, Note_on_c, 0, 82, 77
2, 55124, Note_on_c, 0, 78, 79
2, 55124, Note_on_c, 0, 70, 78
2, 55128, Note_on_c, 0, 61, 61
2, 55132, Note_on_c, 0, 66, 67
2, 55136, Note_on_c, 0, 58, 56
2, 55184, Note_off_c, 0, 70, 0
2, 55188, Note_off_c, 0, 66, 0
2, 55196, Note_off_c, 0, 61, 0
2, 55196, Note_off_c, 0, 58, 0
2, 55204, Note_off_c, 0, 78, 0
2, 55212, Note_off_c, 0, 82, 0
2, 55288, Note_on_c, 0, 70, 81
2, 55288, Note_on_c, 0, 82, 77
2, 55292, Note_on_c, 0, 78, 73
2, 55296, Note_on_c, 0, 61, 62
2, 55300, Note_on_c, 0, 58, 49
2, 55308, Note_on_c, 0, 66, 62
2, 55360, Note_off_c, 0, 70, 0
2, 55364, Note_off_c, 0, 66, 0
2, 55376, Note_off_c, 0, 82, 0
2, 55380, Note_off_c, 0, 58, 0
2, 55388, Note_off_c, 0, 61, 0
2, 55400, Note_off_c, 0, 78, 0
2, 55468, Note_on_c, 0, 72, 86
2, 55468, Note_on_c, 0, 84, 79
2, 55480, Note_on_c, 0, 68, 58
2, 55484, Note_on_c, 0, 63, 58
2, 55488, Note_on_c, 0, 60, 68
2, 55496, Note_on_c, 0, 80, 56
2, 55524, Note_off_c, 0, 72, 0
2, 55548, Note_off_c, 0, 84, 0
2, 55548, Note_off_c, 0, 68, 0
2, 55560, Note_off_c, 0, 80, 0
2, 55564, Note_off_c, 0, 63, 0
2, 55572, Note_off_c, 0, 60, 0
2, 55660, Note_on_c, 0, 82, 91
2, 55660, Note_on_c, 0, 78, 55
2, 55668, Note_on_c, 0, 70, 90
2, 55672, Note_on_c, 0, 61, 64
2, 55680, Note_on_c, 0, 58, 64
2, 55684, Note_on_c, 0, 66, 60
2, 55720, Note_off_c, 0, 70, 0
2, 55748, Note_off_c, 0, 78, 0
2, 55752, Note_off_c, 0, 66, 0
2, 55760, Note_off_c, 0, 82, 0
2, 55768, Note_off_c, 0, 61, 0
2, 55788, Note_off_c, 0, 58, 0
2, 55888, Note_on_c, 0, 85, 87
2, 55892, Note_on_c, 0, 73, 89
2, 55896, Note_on_c, 0, 82, 71
2, 55904, Note_on_c, 0, 61, 55
2, 55908, Note_on_c, 0, 66, 50
2, 55920, Note_on_c, 0, 70, 46
2, 55944, Note_off_c, 0, 73, 0
2, 55984, Note_off_c, 0, 85, 0
2, 55984, Note_off_c, 0, 82, 0
2, 55996, Note_off_c, 0, 66, 0
2, 56000, Note_off_c, 0, 70, 0
2, 56024, Note_off_c, 0, 61, 0
2, 56120, Note_on_c, 0, 63, 61
2, 56124, Note_on_c, 0, 87, 91
2, 56124, Note_on_c, 0, 75, 91
2, 56124, Note_on_c, 0, 70, 60
2, 56132, Note_on_c, 0, 82, 74
2, 56140, Note_on_c, 0, 66, 40
2, 56172, Note_off_c, 0, 66, 0
2, 56180, Note_off_c, 0, 75, 0
2, 56188, Note_off_c, 0, 63, 0
2, 56200, Note_off_c, 0, 82, 0
2, 56212, Note_off_c, 0, 70, 0
2, 56236, Note_off_c, 0, 87, 0
2, 56368, Control_c, 0, 64, 88
2, 56380, Note_on_c, 0, 65, 72
2, 56384, Control_c, 0, 64, 0
2, 56460, Note_on_c, 0, 68, 65
2, 56488, Control_c, 0, 64, 127
2, 56496, Note_off_c, 0, 65, 0
2, 56496, Note_on_c, 0, 73, 71
2, 56540, Note_off_c, 0, 68, 0
2, 56568, Note_on_c, 0, 77, 60
2, 56592, Note_off_c, 0, 73, 0
2, 56608, Note_off_c, 0, 77, 0
2, 56616, Note_on_c, 0, 80, 67
2, 56696, Note_on_c, 0, 85, 75
2, 56784, Note_on_c, 0, 92, 97
2, 57680, Note_on_c, 0, 64, 71
2, 57684, Control_c, 0, 64, 0
2, 57776, Control_c, 0, 64, 88
2, 57792, Control_c, 0, 64, 127
2, 57812, Note_off_c, 0, 64, 0
2, 57812, Note_on_c, 0, 68, 53
2, 57904, Note_off_c, 0, 80, 0
2, 57908, Note_off_c, 0, 85, 0
2, 57908, Note_on_c, 0, 70, 58
2, 57940, Note_off_c, 0, 92, 0
2, 57948, Note_off_c, 0, 68, 0
2, 57964, Note_on_c, 0, 73, 56
2, 58000, Note_off_c, 0, 70, 0
2, 58040, Note_on_c, 0, 76, 63
2, 58052, Note_off_c, 0, 73, 0
2, 58068, Note_off_c, 0, 76, 0
2, 58076, Note_on_c, 0, 80, 64
2, 58140, Note_on_c, 0, 85, 71
2, 58192, Note_off_c, 0, 80, 0
2, 58244, Note_on_c, 0, 92, 86
2, 58260, Note_off_c, 0, 85, 0
2, 58304, Note_off_c, 0, 92, 0
2, 58584, Note_on_c, 0, 63, 62
2, 58596, Control_c, 0, 64, 104
2, 58612, Control_c, 0, 64, 0
2, 58684, Note_on_c, 0, 66, 46
2, 58688, Control_c, 0, 64, 127
2, 58692, Note_off_c, 0, 63, 0
2, 58744, Note_on_c, 0, 68, 57
2, 58796, Note_off_c, 0, 66, 0
2, 58808, Note_on_c, 0, 73, 52
2, 58836, Note_off_c, 0, 68, 0
2, 58872, Note_on_c, 0, 75, 61
2, 58900, Note_off_c, 0, 73, 0
2, 58920, Note_off_c, 0, 75, 0
2, 58940, Note_on_c, 0, 80, 62
2, 59020, Note_on_c, 0, 85, 69
2, 59056, Note_off_c, 0, 80, 0
2, 59140, Note_on_c, 0, 92, 89
2, 59156, Note_off_c, 0, 85, 0
2, 59620, Note_off_c, 0, 92, 0
2, 60192, Control_c, 0, 64, 88
2, 60204, Note_on_c, 0, 56, 53
2, 60208, Control_c, 0, 64, 0
2, 60300, Control_c, 0, 64, 127
2, 60360, Note_off_c, 0, 56, 0
2, 60364, Note_on_c, 0, 63, 47
2, 60492, Note_off_c, 0, 63, 0
2, 60492, Note_on_c, 0, 66, 53
2, 60604, Note_off_c, 0, 66, 0
2, 60632, Note_on_c, 0, 72, 58
2, 60688, Note_off_c, 0, 72, 0
2, 60768, Note_on_c, 0, 68, 55
2, 60904, Note_off_c, 0, 68, 0
2, 60920, Note_on_c, 0, 75, 63
2, 61200, Note_on_c, 0, 80, 70
2, 61280, Note_off_c, 0, 75, 0
2, 61444, Note_off_c, 0, 80, 64
2, 62840, Control_c, 0, 64, 104
2, 62856, Control_c, 0, 64, 72
2, 62872, Control_c, 0, 64, 56
2, 62888, Control_c, 0, 64, 24
2, 62904, Control_c, 0, 64, 0
2, 62948, Control_c, 0, 64, 127
2, 62980, Note_on_c, 0, 68, 64
2, 62980, Note_on_c, 0, 37, 50
2, 62996, Note_on_c, 0, 65, 44
2, 63108, Note_off_c, 0, 37, 0
2, 63132, Note_on_c, 0, 44, 42
2, 63248, Note_off_c, 0, 44, 0
2, 63272, Note_on_c, 0, 49, 40
2, 63364, Note_off_c, 0, 65, 0
2, 63396, Note_off_c, 0, 49, 0
2, 63408, Note_on_c, 0, 53, 36
2, 63460, Note_off_c, 0, 53, 0
2, 63528, Note_on_c, 0, 56, 40
2, 63644, Note_off_c, 0, 56, 0
2, 63688, Note_on_c, 0, 61, 38
2, 63748, Note_off_c, 0, 61, 0
2, 63808, Note_on_c, 0, 41, 50
2, 63860, Control_c, 0, 64, 56
2, 63876, Control_c, 0, 64, 0
2, 63956, Note_on_c, 0, 48, 55
2, 63968, Control_c, 0, 64, 72
2, 63984, Control_c, 0, 64, 127
2, 64040, Note_off_c, 0, 41, 0
2, 64056, Note_off_c, 0, 48, 0
2, 64084, Note_on_c, 0, 53, 45
2, 64128, Note_off_c, 0, 53, 0
2, 64188, Note_on_c, 0, 56, 38
2, 64236, Note_off_c, 0, 68, 0
2, 64308, Note_off_c, 0, 56, 0
2, 64316, Note_on_c, 0, 60, 52
2, 64432, Note_off_c, 0, 60, 0
2, 64436, Note_on_c, 0, 65, 51
2, 64480, Note_off_c, 0, 65, 0
2, 64588, Note_on_c, 0, 44, 53
2, 64592, Note_on_c, 0, 71, 71
2, 64596, Note_on_c, 0, 68, 48
2, 64636, Control_c, 0, 64, 72
2, 64652, Control_c, 0, 64, 0
2, 64752, Note_on_c, 0, 52, 45
2, 64760, Control_c, 0, 64, 72
2, 64776, Control_c, 0, 64, 127
2, 64816, Note_off_c, 0, 44, 0
2, 64840, Note_on_c, 0, 56, 43
2, 64848, Note_off_c, 0, 68, 0
2, 64860, Note_off_c, 0, 52, 0
2, 64908, Note_off_c, 0, 71, 0
2, 64908, Note_off_c, 0, 56, 0
2, 64964, Note_on_c, 0, 59, 45
2, 65024, Note_off_c, 0, 59, 0
2, 65136, Note_on_c, 0, 73, 68
2, 65152, Note_on_c, 0, 64, 45
2, 65224, Note_off_c, 0, 64, 0
2, 65252, Note_off_c, 0, 73, 0
2, 65256, Note_on_c, 0, 68, 54
2, 65332, Note_off_c, 0, 68, 0
2, 65464, Note_on_c, 0, 37, 47
2, 65472, Note_on_c, 0, 68, 67
2, 65488, Note_on_c, 0, 65, 49
2, 65488, Control_c, 0, 64, 104
2, 65504, Control_c, 0, 64, 24
2, 65520, Control_c, 0, 64, 0
2, 65612, Note_off_c, 0, 37, 0
2, 65612, Control_c, 0, 64, 56
2, 65628, Note_on_c, 0, 44, 42
2, 65628, Control_c, 0, 64, 127
2, 65652, Note_off_c, 0, 65, 0
2, 65724, Note_off_c, 0, 44, 0
2, 65732, Note_on_c, 0, 49, 51
2, 65832, Note_off_c, 0, 49, 0
2, 65848, Note_on_c, 0, 53, 48
2, 65904, Note_off_c, 0, 53, 0
2, 65972, Note_on_c, 0, 56, 38
2, 66076, Note_off_c, 0, 56, 0
2, 66096, Note_on_c, 0, 61, 49
2, 66172, Note_off_c, 0, 61, 0
2, 66216, Note_on_c, 0, 41, 53
2, 66232, Control_c, 0, 64, 88
2, 66248, Control_c, 0, 64, 24
2, 66260, Control_c, 0, 64, 0
2, 66332, Note_on_c, 0, 48, 56
2, 66356, Control_c, 0, 64, 72
2, 66368, Note_off_c, 0, 41, 0
2, 66372, Control_c, 0, 64, 127
2, 66424, Note_off_c, 0, 48, 0
2, 66436, Note_on_c, 0, 53, 44
2, 66492, Note_off_c, 0, 53, 0
2, 66544, Note_on_c, 0, 56, 44
2, 66640, Note_off_c, 0, 68, 0
2, 66656, Note_off_c, 0, 56, 0
2, 66660, Note_on_c, 0, 60, 52
2, 66764, Note_off_c, 0, 60, 0
2, 66764, Note_on_c, 0, 65, 54
2, 66812, Note_off_c, 0, 65, 0
2, 66928, Note_on_c, 0, 71, 75
2, 66928, Note_on_c, 0, 44, 55
2, 66944, Note_on_c, 0, 68, 49
2, 66992, Control_c, 0, 64, 72
2, 67004, Control_c, 0, 64, 0
2, 67080, Note_on_c, 0, 52, 46
2, 67104, Note_off_c, 0, 68, 0
2, 67116, Control_c, 0, 64, 88
2, 67132, Control_c, 0, 64, 127
2, 67168, Note_off_c, 0, 44, 0
2, 67192, Note_on_c, 0, 56, 42
2, 67212, Note_off_c, 0, 52, 0
2, 67268, Note_off_c, 0, 56, 0
2, 67280, Note_off_c, 0, 71, 0
2, 67304, Note_on_c, 0, 59, 50
2, 67420, Note_on_c, 0, 68, 63
2, 67532, Note_off_c, 0, 59, 0
2, 67540, Note_off_c, 0, 68, 0
2, 67556, Note_on_c, 0, 64, 54
2, 67632, Note_off_c, 0, 64, 0
2, 67788, Note_on_c, 0, 73, 70
2, 67808, Note_on_c, 0, 37, 53
2, 67812, Note_on_c, 0, 65, 51
2, 67844, Control_c, 0, 64, 104
2, 67860, Control_c, 0, 64, 40
2, 67876, Control_c, 0, 64, 0
2, 67932, Note_off_c, 0, 37, 0
2, 67944, Note_on_c, 0, 44, 53
2, 67968, Control_c, 0, 64, 88
2, 67984, Note_off_c, 0, 65, 0
2, 67984, Control_c, 0, 64, 127
2, 68044, Note_off_c, 0, 44, 0
2, 68048, Note_off_c, 0, 73, 0
2, 68064, Note_on_c, 0, 49, 58
2, 68128, Note_off_c, 0, 49, 0
2, 68164, Note_on_c, 0, 53, 42
2, 68232, Note_off_c, 0, 53, 0
2, 68276, Note_on_c, 0, 75, 76
2, 68284, Note_on_c, 0, 68, 53
2, 68308, Note_on_c, 0, 56, 48
2, 68328, Note_off_c, 0, 68, 0
2, 68352, Note_off_c, 0, 56, 0
2, 68404, Note_on_c, 0, 61, 58
2, 68460, Note_off_c, 0, 75, 0
2, 68488, Note_off_c, 0, 61, 0
2, 68528, Note_on_c, 0, 73, 54
2, 68528, Note_on_c, 0, 77, 82
2, 68532, Note_on_c, 0, 65, 49
2, 68620, Note_off_c, 0, 65, 0
2, 68648, Note_on_c, 0, 68, 54
2, 68704, Note_off_c, 0, 73, 0
2, 68716, Note_off_c, 0, 68, 0
2, 68772, Note_on_c, 0, 65, 52
2, 68844, Note_off_c, 0, 65, 0
2, 68876, Note_on_c, 0, 61, 50
2, 68976, Note_off_c, 0, 61, 0
2, 68996, Note_on_c, 0, 56, 58
2, 69084, Note_off_c, 0, 56, 0
2, 69116, Note_off_c, 0, 77, 0
2, 69132, Note_on_c, 0, 53, 64
2, 69204, Note_off_c, 0, 53, 0
2, 69232, Note_on_c, 0, 73, 73
2, 69232, Note_on_c, 0, 56, 60
2, 69248, Note_on_c, 0, 65, 59
2, 69308, Note_off_c, 0, 65, 0
2, 69328, Note_off_c, 0, 56, 0
2, 69360, Note_off_c, 0, 73, 0
2, 69360, Note_on_c, 0, 53, 65
2, 69416, Note_off_c, 0, 53, 0
2, 69464, Note_on_c, 0, 49, 62
2, 69536, Note_off_c, 0, 49, 0
2, 69592, Note_on_c, 0, 44, 54
2, 69696, Note_off_c, 0, 44, 0
2, 69716, Note_on_c, 0, 77, 86
2, 69720, Note_on_c, 0, 73, 58
2, 69720, Note_on_c, 0, 49, 51
2, 69800, Note_off_c, 0, 73, 0
2, 69828, Note_off_c, 0, 49, 0
2, 69856, Note_on_c, 0, 44, 48
2, 69912, Note_off_c, 0, 77, 0
2, 70076, Note_on_c, 0, 79, 82
2, 70080, Note_on_c, 0, 75, 64
2, 70104, Control_c, 0, 64, 104
2, 70108, Note_on_c, 0, 39, 56
2, 70120, Note_off_c, 0, 44, 0
2, 70120, Control_c, 0, 64, 24
2, 70136, Control_c, 0, 64, 0
2, 70228, Control_c, 0, 64, 56
2, 70244, Control_c, 0, 64, 127
2, 70260, Note_off_c, 0, 75, 0
2, 70272, Note_off_c, 0, 39, 0
2, 70276, Note_off_c, 0, 79, 0
2, 70280, Note_on_c, 0, 46, 51
2, 70392, Note_off_c, 0, 46, 0
2, 70424, Note_on_c, 0, 51, 53
2, 70440, Note_on_c, 0, 73, 60
2, 70444, Note_on_c, 0, 77, 80
2, 70528, Note_off_c, 0, 51, 0
2, 70544, Note_off_c, 0, 73, 0
2, 70548, Note_off_c, 0, 77, 0
2, 70576, Note_on_c, 0, 55, 53
2, 70660, Note_off_c, 0, 55, 0
2, 70696, Note_on_c, 0, 73, 69
2, 70700, Note_on_c, 0, 58, 58
2, 70704, Note_on_c, 0, 70, 55
2, 70788, Note_off_c, 0, 70, 0
2, 70800, Note_off_c, 0, 73, 0
2, 70800, Note_off_c, 0, 58, 0
2, 70820, Note_on_c, 0, 63, 56
2, 70944, Note_off_c, 0, 63, 0
2, 70956, Note_on_c, 0, 73, 59
2, 70968, Note_on_c, 0, 70, 46
2, 70980, Note_on_c, 0, 67, 65
2, 71060, Note_off_c, 0, 67, 0
2, 71124, Note_on_c, 0, 63, 49
2, 71220, Note_off_c, 0, 70, 0
2, 71236, Note_on_c, 0, 58, 47
2, 71240, Note_off_c, 0, 73, 0
2, 71244, Note_off_c, 0, 63, 0
2, 71252, Note_on_c, 0, 65, 63
2, 71312, Note_off_c, 0, 58, 0
2, 71392, Note_on_c, 0, 55, 46
2, 71464, Note_off_c, 0, 65, 0
2, 71476, Note_off_c, 0, 55, 0
2, 71512, Note_on_c, 0, 61, 60
2, 71512, Note_on_c, 0, 51, 46
2, 71608, Note_off_c, 0, 51, 0
2, 71624, Note_off_c, 0, 61, 0
2, 71640, Note_on_c, 0, 46, 48
2, 71804, Note_on_c, 0, 61, 55
2, 71816, Note_off_c, 0, 46, 0
2, 71828, Note_on_c, 0, 39, 45
2, 71856, Control_c, 0, 64, 88
2, 71872, Control_c, 0, 64, 24
2, 71888, Control_c, 0, 64, 0
2, 71944, Note_off_c, 0, 39, 0
2, 71948, Note_on_c, 0, 46, 49
2, 71964, Control_c, 0, 64, 56
2, 71980, Control_c, 0, 64, 127
2, 72048, Note_off_c, 0, 46, 0
2, 72080, Note_on_c, 0, 51, 50
2, 72224, Note_off_c, 0, 51, 0
2, 72268, Note_on_c, 0, 55, 47
2, 72272, Note_on_c, 0, 58, 49
2, 72296, Note_off_c, 0, 61, 0
2, 72424, Note_off_c, 0, 55, 0
2, 72440, Note_on_c, 0, 51, 48
2, 72596, Note_off_c, 0, 51, 0
2, 72628, Note_on_c, 0, 46, 45
2, 72688, Note_off_c, 0, 58, 0
2, 72784, Note_off_c, 0, 46, 0
2, 72936, Note_on_c, 0, 70, 62
2, 72944, Note_on_c, 0, 44, 50
2, 72972, Control_c, 0, 64, 104
2, 72988, Control_c, 0, 64, 40
2, 73004, Control_c, 0, 64, 0
2, 73112, Control_c, 0, 64, 88
2, 73116, Note_on_c, 0, 51, 46
2, 73128, Control_c, 0, 64, 127
2, 73156, Note_off_c, 0, 44, 0
2, 73216, Note_off_c, 0, 51, 0
2, 73236, Note_on_c, 0, 54, 45
2, 73360, Note_off_c, 0, 54, 0
2, 73360, Note_on_c, 0, 58, 44
2, 73424, Note_off_c, 0, 58, 0
2, 73500, Note_on_c, 0, 60, 44
2, 73612, Note_off_c, 0, 60, 0
2, 73620, Note_on_c, 0, 66, 43
2, 73752, Note_on_c, 0, 42, 58
2, 73764, Control_c, 0, 64, 72
2, 73776, Control_c, 0, 64, 0
2, 73796, Note_off_c, 0, 66, 0
2, 73844, Note_off_c, 0, 42, 0
2, 73868, Control_c, 0, 64, 72
2, 73872, Note_on_c, 0, 49, 46
2, 73884, Control_c, 0, 64, 127
2, 73940, Note_off_c, 0, 49, 0
2, 73976, Note_on_c, 0, 54, 46
2, 74092, Note_off_c, 0, 54, 0
2, 74092, Note_on_c, 0, 58, 46
2, 74160, Note_off_c, 0, 58, 0
2, 74232, Note_off_c, 0, 70, 0
2, 74240, Note_on_c, 0, 61, 47
2, 74352, Note_off_c, 0, 61, 0
2, 74356, Note_on_c, 0, 66, 47
2, 74496, Note_off_c, 0, 66, 0
2, 74532, Note_on_c, 0, 72, 72
2, 74544, Note_on_c, 0, 41, 55
2, 74552, Control_c, 0, 64, 56
2, 74564, Control_c, 0, 64, 0
2, 74628, Control_c, 0, 64, 40
2, 74644, Control_c, 0, 64, 127
2, 74664, Note_off_c, 0, 41, 0
2, 74664, Note_on_c, 0, 48, 55
2, 74680, Note_off_c, 0, 72, 0
2, 74752, Note_off_c, 0, 48, 0
2, 74812, Note_on_c, 0, 53, 52
2, 74892, Note_off_c, 0, 53, 0
2, 74900, Note_on_c, 0, 56, 50
2, 75012, Note_off_c, 0, 56, 0
2, 75032, Note_on_c, 0, 60, 50
2, 75076, Note_on_c, 0, 77, 77
2, 75084, Note_on_c, 0, 68, 40
2, 75116, Note_off_c, 0, 60, 0
2, 75184, Note_off_c, 0, 77, 0
2, 75208, Note_off_c, 0, 68, 0
2, 75216, Note_on_c, 0, 65, 51
2, 75336, Note_off_c, 0, 65, 0
2, 75484, Note_on_c, 0, 70, 67
2, 75512, Note_on_c, 0, 44, 51
2, 75544, Control_c, 0, 64, 88
2, 75560, Control_c, 0, 64, 24
2, 75576, Control_c, 0, 64, 0
2, 75656, Note_on_c, 0, 51, 45
2, 75664, Control_c, 0, 64, 104
2, 75672, Note_off_c, 0, 44, 0
2, 75684, Control_c, 0, 64, 127
2, 75732, Note_off_c, 0, 51, 0
2, 75752, Note_on_c, 0, 54, 44
2, 75880, Note_off_c, 0, 54, 0
2, 75880, Note_on_c, 0, 58, 45
2, 75924, Note_off_c, 0, 58, 0
2, 76008, Note_on_c, 0, 60, 50
2, 76116, Note_off_c, 0, 60, 0
2, 76132, Note_on_c, 0, 66, 44
2, 76224, Control_c, 0, 64, 104
2, 76240, Note_on_c, 0, 42, 57
2, 76244, Control_c, 0, 64, 40
2, 76256, Control_c, 0, 64, 0
2, 76328, Note_off_c, 0, 42, 0
2, 76336, Control_c, 0, 64, 88
2, 76348, Control_c, 0, 64, 127
2, 76356, Note_on_c, 0, 49, 49
2, 76408, Note_off_c, 0, 49, 0
2, 76448, Note_on_c, 0, 54, 43
2, 76560, Note_off_c, 0, 54, 0
2, 76564, Note_on_c, 0, 58, 46
2, 76616, Note_off_c, 0, 66, 0
2, 76628, Note_off_c, 0, 58, 0
2, 76652, Note_off_c, 0, 70, 0
2, 76708, Note_on_c, 0, 61, 42
2, 76800, Note_off_c, 0, 61, 0
2, 76816, Note_on_c, 0, 66, 44
2, 76932, Note_off_c, 0, 66, 0
2, 76948, Note_on_c, 0, 72, 75
2, 76952, Control_c, 0, 64, 72
2, 76968, Control_c, 0, 64, 0
2, 76972, Note_on_c, 0, 41, 56
2, 77048, Control_c, 0, 64, 56
2, 77064, Control_c, 0, 64, 127
2, 77076, Note_on_c, 0, 48, 49
2, 77088, Note_off_c, 0, 41, 0
2, 77136, Note_off_c, 0, 72, 0
2, 77144, Note_off_c, 0, 48, 0
2, 77228, Note_on_c, 0, 53, 47
2, 77300, Note_on_c, 0, 56, 50
2, 77340, Note_off_c, 0, 53, 0
2, 77408, Note_off_c, 0, 56, 0
2, 77436, Note_on_c, 0, 60, 46
2, 77440, Note_on_c, 0, 77, 83
2, 77456, Note_on_c, 0, 68, 55
2, 77512, Note_off_c, 0, 60, 0
2, 77540, Note_off_c, 0, 68, 0
2, 77560, Note_on_c, 0, 65, 57
2, 77608, Note_off_c, 0, 77, 0
2, 77664, Note_off_c, 0, 65, 0
2, 77820, Note_on_c, 0, 78, 84
2, 77856, Note_on_c, 0, 39, 53
2, 77884, Control_c, 0, 64, 104
2, 77896, Control_c, 0, 64, 24
2, 77912, Control_c, 0, 64, 0
2, 77992, Control_c, 0, 64, 56
2, 78004, Control_c, 0, 64, 127
2, 78036, Note_on_c, 0, 46, 59
2, 78100, Note_off_c, 0, 39, 0
2, 78136, Note_off_c, 0, 46, 0
2, 78140, Note_on_c, 0, 51, 55
2, 78224, Note_off_c, 0, 51, 0
2, 78284, Note_on_c, 0, 54, 51
2, 78368, Note_off_c, 0, 54, 0
2, 78376, Note_on_c, 0, 58, 43
2, 78452, Note_off_c, 0, 58, 0
2, 78476, Note_on_c, 0, 63, 51
2, 78604, Note_off_c, 0, 63, 0
2, 78604, Note_on_c, 0, 66, 65
2, 78648, Note_off_c, 0, 66, 0
2, 78740, Note_off_c, 0, 78, 0
2, 78756, Note_on_c, 0, 66, 55
2, 78852, Note_off_c, 0, 66, 0
2, 78852, Note_on_c, 0, 70, 67
2, 78984, Note_off_c, 0, 70, 0
2, 78996, Note_on_c, 0, 77, 83
2, 79036, Note_on_c, 0, 65, 62
2, 79080, Note_off_c, 0, 65, 0
2, 79112, Note_off_c, 0, 77, 0
2, 79120, Note_on_c, 0, 66, 57
2, 79212, Note_on_c, 0, 70, 64
2, 79252, Note_off_c, 0, 66, 0
2, 79332, Note_off_c, 0, 70, 0
2, 79340, Note_on_c, 0, 74, 84
2, 79356, Note_on_c, 0, 62, 64
2, 79436, Note_off_c, 0, 62, 0
2, 79436, Note_on_c, 0, 66, 60
2, 79452, Note_off_c, 0, 74, 0
2, 79552, Note_on_c, 0, 70, 73
2, 79568, Note_off_c, 0, 66, 0
2, 79652, Note_on_c, 0, 75, 79
2, 79660, Note_on_c, 0, 63, 63
2, 79664, Note_off_c, 0, 70, 0
2, 79708, Note_off_c, 0, 63, 0
2, 79748, Note_on_c, 0, 66, 63
2, 79792, Note_off_c, 0, 75, 0
2, 79852, Note_on_c, 0, 70, 80
2, 79860, Note_off_c, 0, 66, 0
2, 79912, Note_off_c, 0, 70, 0
2, 80044, Note_on_c, 0, 82, 83
2, 80072, Note_on_c, 0, 62, 55
2, 80100, Control_c, 0, 64, 72
2, 80112, Control_c, 0, 64, 0
2, 80176, Control_c, 0, 64, 24
2, 80192, Control_c, 0, 64, 104
2, 80208, Control_c, 0, 64, 127
2, 80216, Note_off_c, 0, 62, 0
2, 80220, Note_on_c, 0, 66, 55
2, 80304, Note_off_c, 0, 66, 0
2, 80304, Note_on_c, 0, 70, 61
2, 80336, Note_off_c, 0, 70, 0
2, 80420, Note_on_c, 0, 70, 67
2, 80500, Note_off_c, 0, 82, 0
2, 80512, Note_off_c, 0, 70, 0
2, 80512, Note_on_c, 0, 78, 70
2, 80612, Note_off_c, 0, 78, 0
2, 80620, Note_on_c, 0, 82, 68
2, 80712, Note_on_c, 0, 63, 64
2, 80736, Control_c, 0, 64, 72
2, 80748, Control_c, 0, 64, 24
2, 80764, Control_c, 0, 64, 0
2, 80796, Control_c, 0, 64, 56
2, 80812, Control_c, 0, 64, 127
2, 80832, Note_on_c, 0, 66, 55
2, 80840, Note_off_c, 0, 63, 0
2, 80936, Note_off_c, 0, 66, 0
2, 80940, Note_on_c, 0, 70, 68
2, 80988, Note_off_c, 0, 70, 0
2, 81000, Note_off_c, 0, 82, 0
2, 81040, Note_on_c, 0, 70, 61
2, 81136, Note_on_c, 0, 78, 55
2, 81236, Note_off_c, 0, 70, 0
2, 81236, Note_off_c, 0, 78, 0
2, 81252, Note_on_c, 0, 82, 61
2, 81364, Note_off_c, 0, 82, 0
2, 81420, Note_on_c, 0, 80, 70
2, 81440, Note_on_c, 0, 56, 40
2, 81456, Note_on_c, 0, 60, 46
2, 81480, Control_c, 0, 64, 56
2, 81492, Control_c, 0, 64, 0
2, 81568, Control_c, 0, 64, 88
2, 81584, Note_off_c, 0, 60, 0
2, 81584, Control_c, 0, 64, 127
2, 81604, Note_off_c, 0, 56, 0
2, 81608, Note_on_c, 0, 64, 41
2, 81732, Note_off_c, 0, 64, 0
2, 81740, Note_on_c, 0, 68, 43
2, 81800, Note_off_c, 0, 80, 0
2, 81828, Note_off_c, 0, 68, 0
2, 81848, Note_on_c, 0, 72, 50
2, 81996, Note_off_c, 0, 72, 0
2, 81996, Note_on_c, 0, 76, 51
2, 82128, Note_off_c, 0, 76, 0
2, 82132, Note_on_c, 0, 80, 54
2, 82236, Note_off_c, 0, 80, 0
2, 82380, Note_on_c, 0, 80, 67
2, 82380, Note_on_c, 0, 77, 62
2, 82400, Note_on_c, 0, 49, 51
2, 82408, Control_c, 0, 64, 56
2, 82420, Control_c, 0, 64, 0
2, 82484, Control_c, 0, 64, 40
2, 82500, Control_c, 0, 64, 127
2, 82512, Note_off_c, 0, 49, 0
2, 82528, Note_on_c, 0, 56, 49
2, 82624, Note_off_c, 0, 56, 0
2, 82668, Note_on_c, 0, 61, 45
2, 82760, Note_off_c, 0, 61, 0
2, 82776, Note_off_c, 0, 77, 0
2, 82792, Note_on_c, 0, 65, 34
2, 82840, Note_off_c, 0, 65, 0
2, 82884, Note_on_c, 0, 68, 37
2, 82996, Note_off_c, 0, 68, 0
2, 83004, Note_on_c, 0, 73, 43
2, 83044, Note_off_c, 0, 73, 0
2, 83124, Note_on_c, 0, 56, 46
2, 83128, Note_on_c, 0, 53, 54
2, 83148, Control_c, 0, 64, 56
2, 83164, Control_c, 0, 64, 0
2, 83208, Note_off_c, 0, 53, 0
2, 83212, Control_c, 0, 64, 40
2, 83228, Control_c, 0, 64, 104
2, 83240, Note_on_c, 0, 60, 55
2, 83244, Control_c, 0, 64, 127
2, 83248, Note_off_c, 0, 56, 0
2, 83316, Note_off_c, 0, 60, 0
2, 83336, Note_on_c, 0, 65, 48
2, 83388, Note_off_c, 0, 65, 0
2, 83448, Note_on_c, 0, 68, 43
2, 83460, Note_off_c, 0, 80, 0
2, 83560, Note_on_c, 0, 72, 60
2, 83572, Note_off_c, 0, 68, 0
2, 83656, Note_off_c, 0, 72, 0
2, 83656, Note_on_c, 0, 77, 66
2, 83732, Note_off_c, 0, 77, 0
2, 83828, Note_on_c, 0, 83, 80
2, 83828, Note_on_c, 0, 59, 59
2, 83828, Note_on_c, 0, 56, 46
2, 83832, Control_c, 0, 64, 104
2, 83840, Note_on_c, 0, 80, 53
2, 83848, Control_c, 0, 64, 40
2, 83864, Control_c, 0, 64, 0
2, 83908, Control_c, 0, 64, 56
2, 83924, Control_c, 0, 64, 127
2, 83932, Note_off_c, 0, 56, 0
2, 83936, Note_off_c, 0, 59, 0
2, 83960, Note_on_c, 0, 64, 62
2, 84052, Note_off_c, 0, 64, 0
2, 84076, Note_on_c, 0, 68, 51
2, 84080, Note_off_c, 0, 80, 0
2, 84144, Note_off_c, 0, 83, 0
2, 84144, Note_off_c, 0, 68, 0
2, 84168, Note_on_c, 0, 71, 59
2, 84264, Note_off_c, 0, 71, 0
2, 84344, Note_on_c, 0, 85, 82
2, 84356, Note_on_c, 0, 76, 45
2, 84396, Note_off_c, 0, 76, 0
2, 84448, Note_off_c, 0, 85, 0
2, 84484, Note_on_c, 0, 80, 46
2, 84540, Note_off_c, 0, 80, 0
2, 84632, Note_on_c, 0, 80, 82
2, 84640, Note_on_c, 0, 77, 53
2, 84644, Note_on_c, 0, 49, 51
2, 84652, Control_c, 0, 64, 88
2, 84668, Control_c, 0, 64, 24
2, 84684, Control_c, 0, 64, 0
2, 84728, Control_c, 0, 64, 88
2, 84744, Control_c, 0, 64, 127
2, 84748, Note_off_c, 0, 49, 0
2, 84768, Note_on_c, 0, 56, 44
2, 84820, Note_off_c, 0, 77, 0
2, 84856, Note_off_c, 0, 56, 0
2, 84868, Note_on_c, 0, 61, 44
2, 84964, Note_off_c, 0, 61, 0
2, 84988, Note_on_c, 0, 65, 52
2, 85044, Note_off_c, 0, 65, 0
2, 85096, Note_on_c, 0, 68, 34
2, 85204, Note_off_c, 0, 68, 0
2, 85208, Note_on_c, 0, 73, 51
2, 85308, Note_off_c, 0, 73, 0
2, 85320, Note_on_c, 0, 56, 54
2, 85320, Note_on_c, 0, 53, 56
2, 85348, Control_c, 0, 64, 88
2, 85364, Control_c, 0, 64, 40
2, 85380, Control_c, 0, 64, 0
2, 85412, Note_off_c, 0, 53, 0
2, 85428, Control_c, 0, 64, 56
2, 85436, Note_off_c, 0, 56, 0
2, 85436, Note_on_c, 0, 60, 66
2, 85444, Control_c, 0, 64, 127
2, 85516, Note_off_c, 0, 60, 0
2, 85536, Note_on_c, 0, 65, 49
2, 85600, Note_off_c, 0, 65, 0
2, 85644, Note_on_c, 0, 68, 51
2, 85724, Note_off_c, 0, 80, 0
2, 85748, Note_on_c, 0, 72, 69
2, 85752, Note_off_c, 0, 68, 0
2, 85852, Note_on_c, 0, 77, 71
2, 85868, Note_off_c, 0, 72, 0
2, 85920, Note_off_c, 0, 77, 0
2, 86012, Note_on_c, 0, 83, 83
2, 86028, Note_on_c, 0, 59, 46
2, 86032, Note_on_c, 0, 80, 54
2, 86032, Control_c, 0, 64, 104
2, 86040, Note_on_c, 0, 56, 48
2, 86048, Control_c, 0, 64, 40
2, 86064, Control_c, 0, 64, 0
2, 86124, Control_c, 0, 64, 40
2, 86132, Note_off_c, 0, 80, 0
2, 86140, Note_off_c, 0, 56, 0
2, 86144, Control_c, 0, 64, 127
2, 86160, Note_on_c, 0, 64, 47
2, 86168, Note_off_c, 0, 59, 0
2, 86284, Note_on_c, 0, 68, 44
2, 86288, Note_off_c, 0, 64, 0
2, 86332, Note_off_c, 0, 68, 0
2, 86360, Note_off_c, 0, 83, 0
2, 86384, Note_on_c, 0, 71, 57
2, 86480, Note_on_c, 0, 80, 58
2, 86508, Note_off_c, 0, 71, 0
2, 86576, Note_off_c, 0, 80, 0
2, 86608, Note_on_c, 0, 76, 65
2, 86676, Note_off_c, 0, 76, 0
2, 86728, Control_c, 0, 64, 56
2, 86736, Note_on_c, 0, 59, 42
2, 86736, Note_on_c, 0, 85, 84
2, 86740, Note_on_c, 0, 61, 46
2, 86744, Control_c, 0, 64, 0
2, 86792, Control_c, 0, 64, 56
2, 86808, Control_c, 0, 64, 127
2, 86840, Note_on_c, 0, 64, 65
2, 86848, Note_off_c, 0, 59, 0
2, 86872, Note_off_c, 0, 61, 0
2, 86924, Note_off_c, 0, 64, 0
2, 86928, Note_on_c, 0, 68, 57
2, 86992, Note_off_c, 0, 68, 0
2, 87056, Note_on_c, 0, 73, 61
2, 87056, Note_on_c, 0, 71, 60
2, 87060, Note_off_c, 0, 85, 0
2, 87152, Note_off_c, 0, 71, 0
2, 87160, Note_off_c, 0, 73, 0
2, 87168, Note_on_c, 0, 80, 48
2, 87260, Note_off_c, 0, 80, 0
2, 87288, Note_on_c, 0, 76, 70
2, 87324, Note_off_c, 0, 76, 0
2, 87424, Note_on_c, 0, 88, 86
2, 87452, Note_on_c, 0, 64, 54
2, 87464, Note_on_c, 0, 61, 43
2, 87532, Note_on_c, 0, 68, 51
2, 87544, Note_off_c, 0, 64, 0
2, 87556, Note_off_c, 0, 61, 0
2, 87604, Note_off_c, 0, 68, 0
2, 87620, Note_on_c, 0, 71, 62
2, 87704, Note_off_c, 0, 88, 64
2, 87716, Note_off_c, 0, 71, 64
2, 87736, Note_on_c, 0, 73, 61
2, 87736, Note_on_c, 0, 76, 72
2, 87800, Note_off_c, 0, 73, 0
2, 87836, Note_on_c, 0, 85, 58
2, 87872, Note_off_c, 0, 76, 0
2, 87920, Note_on_c, 0, 80, 80
2, 87952, Note_off_c, 0, 85, 0
2, 87988, Note_off_c, 0, 80, 0
2, 88040, Note_on_c, 0, 92, 91
2, 88072, Note_on_c, 0, 64, 48
2, 88076, Note_on_c, 0, 68, 39
2, 88160, Note_off_c, 0, 64, 0
2, 88172, Note_on_c, 0, 71, 44
2, 88184, Note_off_c, 0, 68, 0
2, 88204, Note_off_c, 0, 71, 0
2, 88256, Note_on_c, 0, 73, 54
2, 88328, Note_off_c, 0, 73, 0
2, 88332, Note_off_c, 0, 92, 0
2, 88388, Note_on_c, 0, 76, 71
2, 88388, Note_on_c, 0, 80, 67
2, 88432, Note_off_c, 0, 76, 0
2, 88492, Note_on_c, 0, 88, 69
2, 88516, Note_off_c, 0, 80, 0
2, 88576, Note_off_c, 0, 88, 0
2, 88580, Note_on_c, 0, 83, 73
2, 88700, Note_off_c, 0, 83, 0
2, 88712, Note_on_c, 0, 92, 96
2, 88736, Control_c, 0, 64, 104
2, 88748, Note_on_c, 0, 68, 55
2, 88752, Control_c, 0, 64, 40
2, 88768, Control_c, 0, 64, 0
2, 88832, Control_c, 0, 64, 72
2, 88844, Note_on_c, 0, 69, 70
2, 88848, Control_c, 0, 64, 127
2, 88868, Note_off_c, 0, 68, 0
2, 88896, Note_off_c, 0, 92, 0
2, 88952, Note_off_c, 0, 69, 0
2, 88960, Note_on_c, 0, 73, 61
2, 89016, Note_off_c, 0, 73, 0
2, 89028, Note_on_c, 0, 80, 54
2, 89120, Note_on_c, 0, 85, 43
2, 89164, Note_off_c, 0, 85, 64
2, 89168, Note_off_c, 0, 80, 64
2, 89208, Note_on_c, 0, 81, 66
2, 89308, Note_off_c, 0, 81, 0
2, 89312, Note_on_c, 0, 90, 83
2, 89340, Note_on_c, 0, 66, 57
2, 89388, Control_c, 0, 64, 72
2, 89404, Control_c, 0, 64, 24
2, 89452, Control_c, 0, 64, 104
2, 89460, Note_on_c, 0, 69, 59
2, 89464, Control_c, 0, 64, 127
2, 89512, Note_off_c, 0, 66, 0
2, 89536, Note_off_c, 0, 69, 0
2, 89552, Note_on_c, 0, 73, 44
2, 89584, Note_off_c, 0, 73, 0
2, 89624, Note_on_c, 0, 78, 55
2, 89732, Note_on_c, 0, 85, 45
2, 89752, Note_off_c, 0, 78, 0
2, 89816, Note_off_c, 0, 85, 0
2, 89824, Note_on_c, 0, 81, 41
2, 89912, Note_on_c, 0, 65, 62
2, 89912, Note_on_c, 0, 66, 56
2, 89932, Control_c, 0, 64, 56
2, 89948, Control_c, 0, 64, 0
2, 89964, Note_off_c, 0, 81, 0
2, 90008, Control_c, 0, 64, 40
2, 90012, Note_on_c, 0, 69, 55
2, 90016, Note_off_c, 0, 65, 0
2, 90024, Control_c, 0, 64, 104
2, 90032, Control_c, 0, 64, 127
2, 90044, Note_off_c, 0, 69, 0
2, 90068, Note_off_c, 0, 66, 0
2, 90080, Note_on_c, 0, 73, 53
2, 90136, Note_off_c, 0, 73, 0
2, 90196, Note_on_c, 0, 78, 54
2, 90224, Note_off_c, 0, 90, 0
2, 90272, Note_on_c, 0, 85, 48
2, 90348, Note_off_c, 0, 85, 0
2, 90352, Note_on_c, 0, 81, 67
2, 90376, Note_off_c, 0, 78, 0
2, 90448, Note_off_c, 0, 81, 0
2, 90460, Note_on_c, 0, 90, 89
2, 90472, Control_c, 0, 64, 104
2, 90488, Control_c, 0, 64, 40
2, 90500, Note_on_c, 0, 64, 60
2, 90504, Control_c, 0, 64, 0
2, 90516, Note_on_c, 0, 66, 61
2, 90552, Control_c, 0, 64, 24
2, 90564, Control_c, 0, 64, 72
2, 90580, Control_c, 0, 64, 127
2, 90592, Note_off_c, 0, 64, 0
2, 90600, Note_on_c, 0, 69, 60
2, 90648, Note_off_c, 0, 66, 0
2, 90656, Note_on_c, 0, 73, 38
2, 90660, Note_off_c, 0, 69, 0
2, 90700, Note_off_c, 0, 73, 64
2, 90748, Note_on_c, 0, 78, 64
2, 90812, Note_off_c, 0, 90, 64
2, 90844, Note_on_c, 0, 85, 46
2, 90884, Note_off_c, 0, 78, 0
2, 90884, Note_off_c, 0, 85, 0
2, 90908, Note_on_c, 0, 81, 61
2, 90948, Note_off_c, 0, 81, 0
2, 91028, Note_on_c, 0, 66, 56
2, 91028, Note_on_c, 0, 63, 62
2, 91048, Control_c, 0, 64, 72
2, 91064, Control_c, 0, 64, 40
2, 91080, Control_c, 0, 64, 24
2, 91096, Control_c, 0, 64, 40
2, 91104, Note_on_c, 0, 69, 63
2, 91108, Control_c, 0, 64, 88
2, 91116, Control_c, 0, 64, 127
2, 91152, Note_off_c, 0, 66, 0
2, 91152, Note_off_c, 0, 63, 0
2, 91176, Note_off_c, 0, 69, 0
2, 91204, Note_on_c, 0, 73, 44
2, 91240, Note_off_c, 0, 73, 0
2, 91268, Note_on_c, 0, 78, 61
2, 91344, Note_on_c, 0, 85, 62
2, 91412, Note_off_c, 0, 78, 0
2, 91432, Note_on_c, 0, 81, 60
2, 91436, Note_off_c, 0, 85, 0
2, 91472, Note_off_c, 0, 81, 0
2, 91588, Control_c, 0, 64, 56
2, 91592, Note_on_c, 0, 61, 49
2, 91604, Control_c, 0, 64, 0
2, 91608, Note_on_c, 0, 93, 92
2, 91612, Note_on_c, 0, 64, 38
2, 91664, Control_c, 0, 64, 56
2, 91680, Control_c, 0, 64, 127
2, 91712, Note_on_c, 0, 69, 37
2, 91716, Note_off_c, 0, 61, 0
2, 91716, Note_off_c, 0, 93, 0
2, 91716, Note_off_c, 0, 64, 0
2, 91772, Note_off_c, 0, 69, 0
2, 91792, Note_on_c, 0, 73, 50
2, 91852, Note_off_c, 0, 73, 0
2, 91896, Note_on_c, 0, 76, 62
2, 91928, Note_off_c, 0, 76, 0
2, 91996, Note_on_c, 0, 97, 78
2, 92024, Note_off_c, 0, 97, 0
2, 92096, Note_on_c, 0, 73, 65
2, 92132, Note_off_c, 0, 73, 0
2, 92308, Note_on_c, 0, 78, 77
2, 92316, Control_c, 0, 64, 72
2, 92324, Note_on_c, 0, 59, 53
2, 92332, Control_c, 0, 64, 0
2, 92420, Note_on_c, 0, 63, 50
2, 92424, Control_c, 0, 64, 72
2, 92440, Control_c, 0, 64, 127
2, 92448, Note_off_c, 0, 59, 0
2, 92512, Note_on_c, 0, 66, 54
2, 92520, Note_off_c, 0, 63, 0
2, 92552, Note_off_c, 0, 66, 0
2, 92624, Note_on_c, 0, 66, 46
2, 92724, Note_on_c, 0, 73, 56
2, 92748, Note_off_c, 0, 66, 0
2, 92804, Note_off_c, 0, 73, 0
2, 92804, Note_on_c, 0, 69, 55
2, 92900, Note_off_c, 0, 69, 0
2, 92908, Note_on_c, 0, 57, 66
2, 92996, Note_on_c, 0, 61, 54
2, 93012, Note_off_c, 0, 57, 0
2, 93108, Note_on_c, 0, 64, 60
2, 93116, Note_off_c, 0, 61, 0
2, 93140, Note_off_c, 0, 64, 0
2, 93204, Note_on_c, 0, 66, 57
2, 93256, Note_off_c, 0, 78, 0
2, 93292, Note_on_c, 0, 73, 37
2, 93332, Note_off_c, 0, 66, 0
2, 93364, Note_off_c, 0, 73, 0
2, 93372, Note_on_c, 0, 69, 59
2, 93404, Note_off_c, 0, 69, 0
2, 93524, Note_on_c, 0, 81, 87
2, 93548, Note_on_c, 0, 56, 61
2, 93652, Note_off_c, 0, 56, 0
2, 93656, Note_on_c, 0, 61, 49
2, 93724, Note_off_c, 0, 81, 0
2, 93756, Note_off_c, 0, 61, 0
2, 93756, Note_on_c, 0, 64, 65
2, 93836, Note_off_c, 0, 64, 64
2, 93860, Note_on_c, 0, 69, 67
2, 93920, Note_off_c, 0, 69, 0
2, 93972, Note_on_c, 0, 85, 83
2, 93992, Note_on_c, 0, 76, 64
2, 94104, Note_off_c, 0, 76, 0
2, 94104, Note_on_c, 0, 81, 72
2, 94144, Note_off_c, 0, 85, 0
2, 94192, Note_off_c, 0, 81, 0
2, 94320, Note_on_c, 0, 88, 86
2, 94328, Note_on_c, 0, 85, 71
2, 94340, Note_on_c, 0, 54, 66
2, 94380, Control_c, 0, 64, 104
2, 94396, Control_c, 0, 64, 24
2, 94408, Control_c, 0, 64, 0
2, 94468, Note_on_c, 0, 61, 56
2, 94488, Control_c, 0, 64, 104
2, 94500, Control_c, 0, 64, 127
2, 94588, Note_off_c, 0, 88, 0
2, 94600, Note_off_c, 0, 85, 0
2, 94604, Note_off_c, 0, 54, 0
2, 94608, Note_off_c, 0, 61, 0
2, 94616, Note_on_c, 0, 64, 60
2, 94632, Note_on_c, 0, 87, 82
2, 94648, Note_off_c, 0, 64, 0
2, 94648, Note_on_c, 0, 83, 74
2, 94764, Note_on_c, 0, 66, 70
2, 94780, Note_off_c, 0, 83, 0
2, 94856, Note_off_c, 0, 66, 0
2, 94860, Note_off_c, 0, 87, 0
2, 94876, Note_on_c, 0, 85, 85
2, 94884, Note_on_c, 0, 69, 58
2, 94892, Note_on_c, 0, 81, 68
2, 94964, Note_off_c, 0, 81, 0
2, 94976, Note_off_c, 0, 85, 0
2, 94980, Note_off_c, 0, 69, 0
2, 95000, Note_on_c, 0, 73, 69
2, 95092, Note_off_c, 0, 73, 0
2, 95116, Note_on_c, 0, 83, 83
2, 95128, Note_on_c, 0, 76, 64
2, 95128, Note_on_c, 0, 80, 56
2, 95192, Note_off_c, 0, 80, 0
2, 95216, Note_off_c, 0, 76, 0
2, 95244, Note_on_c, 0, 78, 61
2, 95316, Note_off_c, 0, 78, 64
2, 95368, Note_on_c, 0, 76, 56
2, 95404, Note_off_c, 0, 83, 64
2, 95428, Note_off_c, 0, 76, 0
2, 95508, Note_on_c, 0, 78, 67
2, 95508, Note_on_c, 0, 81, 80
2, 95508, Note_on_c, 0, 73, 53
2, 95604, Note_off_c, 0, 73, 0
2, 95616, Note_on_c, 0, 69, 49
2, 95644, Note_off_c, 0, 69, 0
2, 95708, Note_on_c, 0, 66, 52
2, 95796, Note_off_c, 0, 66, 0
2, 95816, Note_on_c, 0, 64, 63
2, 95892, Note_off_c, 0, 64, 0
2, 95924, Note_on_c, 0, 66, 48
2, 95980, Note_off_c, 0, 78, 0
2, 96012, Note_off_c, 0, 66, 0
2, 96040, Note_off_c, 0, 81, 0
2, 96040, Note_on_c, 0, 80, 77
2, 96052, Note_on_c, 0, 76, 68
2, 96052, Note_on_c, 0, 64, 60
2, 96092, Note_off_c, 0, 64, 0
2, 96120, Note_off_c, 0, 80, 0
2, 96128, Note_off_c, 0, 76, 0
2, 96148, Note_on_c, 0, 61, 47
2, 96272, Note_on_c, 0, 78, 76
2, 96276, Note_off_c, 0, 61, 0
2, 96292, Note_on_c, 0, 75, 68
2, 96296, Note_on_c, 0, 57, 47
2, 96376, Note_off_c, 0, 75, 0
2, 96384, Note_off_c, 0, 78, 0
2, 96396, Note_off_c, 0, 57, 0
2, 96396, Note_on_c, 0, 54, 55
2, 96452, Note_off_c, 0, 54, 0
2, 96576, Note_on_c, 0, 76, 70
2, 96584, Note_on_c, 0, 73, 60
2, 96584, Note_on_c, 0, 42, 54
2, 96608, Control_c, 0, 64, 72
2, 96624, Control_c, 0, 64, 0
2, 96712, Note_on_c, 0, 49, 60
2, 96716, Control_c, 0, 64, 72
2, 96732, Control_c, 0, 64, 127
2, 96764, Note_off_c, 0, 73, 0
2, 96780, Note_off_c, 0, 76, 0
2, 96784, Note_off_c, 0, 42, 0
2, 96800, Note_off_c, 0, 49, 0
2, 96820, Note_on_c, 0, 52, 51
2, 96836, Note_on_c, 0, 75, 71
2, 96840, Note_on_c, 0, 71, 59
2, 96856, Note_off_c, 0, 52, 64
2, 96960, Note_on_c, 0, 54, 55
2, 96988, Note_off_c, 0, 71, 0
2, 97040, Note_off_c, 0, 75, 64
2, 97044, Note_off_c, 0, 54, 0
2, 97088, Note_on_c, 0, 73, 78
2, 97096, Note_on_c, 0, 69, 63
2, 97100, Note_on_c, 0, 57, 43
2, 97168, Note_off_c, 0, 69, 0
2, 97176, Note_off_c, 0, 57, 0
2, 97180, Note_off_c, 0, 73, 0
2, 97188, Note_on_c, 0, 61, 52
2, 97288, Note_off_c, 0, 61, 0
2, 97312, Note_on_c, 0, 71, 81
2, 97316, Note_on_c, 0, 68, 65
2, 97316, Note_on_c, 0, 64, 54
2, 97404, Note_off_c, 0, 64, 0
2, 97428, Note_on_c, 0, 61, 50
2, 97484, Note_off_c, 0, 68, 0
2, 97508, Note_off_c, 0, 71, 0
2, 97560, Note_on_c, 0, 69, 82
2, 97560, Note_on_c, 0, 66, 62
2, 97560, Note_on_c, 0, 57, 55
2, 97576, Note_off_c, 0, 61, 0
2, 97656, Note_off_c, 0, 57, 0
2, 97676, Note_on_c, 0, 54, 55
2, 97716, Note_off_c, 0, 66, 0
2, 97768, Note_off_c, 0, 69, 0
2, 97768, Note_off_c, 0, 54, 0
2, 97796, Note_on_c, 0, 52, 62
2, 97804, Note_on_c, 0, 68, 71
2, 97812, Note_on_c, 0, 64, 65
2, 97896, Note_off_c, 0, 64, 0
2, 97904, Note_on_c, 0, 49, 65
2, 97924, Note_off_c, 0, 52, 0
2, 97924, Note_off_c, 0, 68, 0
2, 98088, Note_on_c, 0, 57, 73
2, 98112, Note_on_c, 0, 42, 44
2, 98112, Control_c, 0, 64, 88
2, 98116, Note_off_c, 0, 49, 0
2, 98128, Control_c, 0, 64, 0
2, 98204, Control_c, 0, 64, 40
2, 98212, Note_off_c, 0, 42, 0
2, 98220, Note_on_c, 0, 49, 52
2, 98220, Control_c, 0, 64, 127
2, 98328, Note_off_c, 0, 49, 0
2, 98376, Note_on_c, 0, 66, 65
2, 98392, Note_on_c, 0, 63, 56
2, 98400, Note_on_c, 0, 42, 44
2, 98472, Note_off_c, 0, 63, 0
2, 98476, Note_off_c, 0, 66, 0
2, 98480, Note_off_c, 0, 42, 0
2, 98508, Note_on_c, 0, 49, 34
2, 98608, Note_off_c, 0, 49, 0
2, 98652, Note_on_c, 0, 64, 72
2, 98656, Note_on_c, 0, 42, 38
2, 98660, Note_on_c, 0, 61, 46
2, 98716, Note_off_c, 0, 57, 64
2, 98732, Note_off_c, 0, 64, 0
2, 98760, Note_off_c, 0, 42, 0
2, 98776, Note_off_c, 0, 61, 0
2, 98796, Note_on_c, 0, 49, 34
2, 98956, Note_off_c, 0, 49, 0
2, 99052, Note_on_c, 0, 63, 70
2, 99060, Note_on_c, 0, 54, 55
2, 99068, Note_on_c, 0, 61, 42
2, 99096, Note_on_c, 0, 44, 42
2, 99120, Control_c, 0, 64, 104
2, 99136, Control_c, 0, 64, 40
2, 99152, Control_c, 0, 64, 0
2, 99208, Note_off_c, 0, 44, 0
2, 99220, Note_on_c, 0, 51, 43
2, 99244, Control_c, 0, 64, 40
2, 99260, Control_c, 0, 64, 127
2, 99312, Note_off_c, 0, 51, 0
2, 99340, Note_off_c, 0, 54, 0
2, 99360, Note_on_c, 0, 44, 35
2, 99404, Note_off_c, 0, 44, 0
2, 99456, Note_on_c, 0, 51, 39
2, 99472, Note_off_c, 0, 61, 0
2, 99536, Note_off_c, 0, 51, 0
2, 99572, Note_on_c, 0, 56, 60
2, 99596, Note_on_c, 0, 44, 37
2, 99656, Note_off_c, 0, 44, 0
2, 99692, Note_on_c, 0, 51, 46
2, 99780, Note_off_c, 0, 51, 0
2, 99832, Note_on_c, 0, 44, 34
2, 99844, Note_off_c, 0, 56, 0
2, 99844, Note_on_c, 0, 58, 57
2, 99896, Control_c, 0, 64, 88
2, 99900, Note_off_c, 0, 44, 0
2, 99908, Control_c, 0, 64, 56
2, 99924, Control_c, 0, 64, 24
2, 99936, Note_on_c, 0, 51, 46
2, 99972, Control_c, 0, 64, 127
2, 100020, Note_off_c, 0, 51, 0
2, 100044, Note_on_c, 0, 44, 42
2, 100120, Note_off_c, 0, 44, 0
2, 100160, Note_on_c, 0, 51, 42
2, 100264, Note_off_c, 0, 51, 0
2, 100304, Note_on_c, 0, 44, 35
2, 100348, Note_on_c, 0, 61, 62
2, 100380, Note_off_c, 0, 58, 64
2, 100388, Note_off_c, 0, 63, 64
2, 100400, Note_off_c, 0, 44, 0
2, 100432, Note_off_c, 0, 61, 0
2, 100440, Note_on_c, 0, 51, 34
2, 100596, Note_off_c, 0, 51, 0
2, 100624, Note_on_c, 0, 66, 59
2, 100624, Note_on_c, 0, 44, 40
2, 100624, Control_c, 0, 64, 104
2, 100628, Note_on_c, 0, 60, 56
2, 100640, Control_c, 0, 64, 40
2, 100648, Note_on_c, 0, 63, 27
2, 100652, Control_c, 0, 64, 0
2, 100716, Control_c, 0, 64, 56
2, 100732, Note_off_c, 0, 44, 0
2, 100732, Control_c, 0, 64, 127
2, 100756, Note_on_c, 0, 51, 43
2, 100796, Note_off_c, 0, 63, 0
2, 100876, Note_off_c, 0, 60, 0
2, 100876, Note_off_c, 0, 51, 0
2, 100880, Note_on_c, 0, 44, 42
2, 100904, Note_off_c, 0, 66, 0
2, 100968, Note_off_c, 0, 44, 0
2, 100992, Note_on_c, 0, 51, 43
2, 101104, Note_off_c, 0, 51, 0
2, 101120, Note_on_c, 0, 70, 58
2, 101128, Note_on_c, 0, 66, 40
2, 101132, Note_on_c, 0, 44, 38
2, 101136, Note_on_c, 0, 63, 42
2, 101184, Note_off_c, 0, 70, 0
2, 101196, Note_off_c, 0, 63, 0
2, 101204, Note_off_c, 0, 66, 0
2, 101232, Note_off_c, 0, 44, 0
2, 101268, Note_on_c, 0, 51, 39
2, 101428, Note_off_c, 0, 51, 0
2, 101428, Note_on_c, 0, 63, 56
2, 101436, Note_on_c, 0, 54, 50
2, 101436, Note_on_c, 0, 61, 50
2, 101460, Note_on_c, 0, 44, 36
2, 101460, Control_c, 0, 64, 104
2, 101472, Control_c, 0, 64, 56
2, 101488, Control_c, 0, 64, 0
2, 101556, Note_off_c, 0, 44, 0
2, 101568, Control_c, 0, 64, 56
2, 101580, Control_c, 0, 64, 127
2, 101584, Note_on_c, 0, 51, 43
2, 101660, Note_off_c, 0, 54, 64
2, 101688, Note_off_c, 0, 51, 0
2, 101704, Note_on_c, 0, 44, 37
2, 101780, Note_off_c, 0, 44, 0
2, 101800, Note_on_c, 0, 51, 46
2, 101804, Note_off_c, 0, 61, 64
2, 101908, Note_off_c, 0, 51, 0
2, 101932, Note_on_c, 0, 56, 55
2, 101952, Note_on_c, 0, 44, 39
2, 102020, Note_off_c, 0, 44, 0
2, 102056, Note_on_c, 0, 51, 47
2, 102168, Note_off_c, 0, 51, 0
2, 102188, Note_on_c, 0, 44, 42
2, 102212, Note_off_c, 0, 56, 0
2, 102216, Note_on_c, 0, 58, 61
2, 102276, Note_off_c, 0, 44, 0
2, 102308, Note_on_c, 0, 51, 46
2, 102412, Note_off_c, 0, 51, 0
2, 102420, Note_on_c, 0, 44, 42
2, 102496, Note_off_c, 0, 44, 0
2, 102524, Note_on_c, 0, 51, 39
2, 102652, Note_off_c, 0, 51, 0
2, 102680, Note_on_c, 0, 44, 42
2, 102692, Note_on_c, 0, 61, 60
2, 102704, Note_off_c, 0, 63, 64
2, 102732, Note_off_c, 0, 58, 0
2, 102768, Note_off_c, 0, 44, 0
2, 102772, Note_off_c, 0, 61, 0
2, 102804, Note_on_c, 0, 51, 37
2, 102960, Note_off_c, 0, 51, 0
2, 102964, Note_on_c, 0, 66, 69
2, 102972, Note_on_c, 0, 60, 60
2, 102976, Note_on_c, 0, 44, 39
2, 102984, Note_on_c, 0, 63, 37
2, 102992, Control_c, 0, 64, 72
2, 103008, Control_c, 0, 64, 40
2, 103024, Control_c, 0, 64, 0
2, 103068, Note_off_c, 0, 44, 64
2, 103072, Control_c, 0, 64, 88
2, 103088, Control_c, 0, 64, 127
2, 103104, Note_on_c, 0, 51, 38
2, 103212, Note_off_c, 0, 51, 0
2, 103216, Note_on_c, 0, 44, 38
2, 103284, Note_off_c, 0, 66, 64
2, 103288, Note_off_c, 0, 63, 0
2, 103304, Note_off_c, 0, 44, 0
2, 103340, Note_on_c, 0, 51, 40
2, 103356, Note_off_c, 0, 60, 64
2, 103452, Note_off_c, 0, 51, 0
2, 103460, Note_on_c, 0, 70, 59
2, 103468, Note_on_c, 0, 66, 44
2, 103480, Note_on_c, 0, 44, 43
2, 103568, Note_off_c, 0, 44, 0
2, 103580, Note_off_c, 0, 66, 0
2, 103600, Note_on_c, 0, 51, 43
2, 103740, Note_off_c, 0, 51, 0
2, 103752, Note_on_c, 0, 44, 42
2, 103752, Control_c, 0, 64, 72
2, 103756, Note_on_c, 0, 61, 54
2, 103764, Note_on_c, 0, 66, 57
2, 103768, Control_c, 0, 64, 24
2, 103780, Control_c, 0, 64, 0
2, 103796, Control_c, 0, 64, 24
2, 103816, Control_c, 0, 64, 56
2, 103832, Note_off_c, 0, 61, 0
2, 103832, Control_c, 0, 64, 127
2, 103848, Note_off_c, 0, 70, 0
2, 103868, Note_off_c, 0, 66, 0
2, 103888, Note_off_c, 0, 44, 0
2, 103928, Note_on_c, 0, 39, 46
2, 104060, Note_on_c, 0, 77, 79
2, 104072, Note_on_c, 0, 68, 48
2, 104076, Note_off_c, 0, 39, 0
2, 104088, Note_on_c, 0, 72, 62
2, 104088, Note_on_c, 0, 44, 48
2, 104116, Note_off_c, 0, 72, 0
2, 104128, Note_off_c, 0, 77, 0
2, 104164, Note_off_c, 0, 68, 0
2, 104180, Note_off_c, 0, 44, 0
2, 104204, Note_on_c, 0, 51, 52
2, 104280, Note_off_c, 0, 51, 0
2, 104324, Note_on_c, 0, 75, 73
2, 104328, Note_on_c, 0, 66, 54
2, 104336, Note_on_c, 0, 70, 56
2, 104336, Note_on_c, 0, 44, 46
2, 104400, Note_off_c, 0, 75, 0
2, 104404, Note_off_c, 0, 66, 0
2, 104412, Note_off_c, 0, 70, 0
2, 104484, Note_on_c, 0, 51, 59
2, 104492, Note_off_c, 0, 44, 0
2, 104564, Note_off_c, 0, 51, 64
2, 104584, Note_on_c, 0, 70, 64
2, 104592, Note_on_c, 0, 61, 56
2, 104592, Note_on_c, 0, 66, 46
2, 104612, Note_on_c, 0, 56, 45
2, 104672, Note_off_c, 0, 61, 0
2, 104688, Note_off_c, 0, 66, 0
2, 104688, Note_off_c, 0, 56, 0
2, 104736, Note_on_c, 0, 51, 58
2, 104832, Note_off_c, 0, 51, 0
2, 104856, Note_on_c, 0, 58, 58
2, 104856, Note_on_c, 0, 56, 56
2, 104916, Note_off_c, 0, 58, 0
2, 104932, Note_off_c, 0, 56, 0
2, 104960, Note_on_c, 0, 63, 55
2, 105024, Note_off_c, 0, 63, 0
2, 105052, Note_off_c, 0, 70, 0
2, 105072, Note_on_c, 0, 56, 50
2, 105100, Note_on_c, 0, 61, 56
2, 105176, Note_off_c, 0, 56, 0
2, 105200, Note_on_c, 0, 51, 50
2, 105232, Note_off_c, 0, 61, 0
2, 105292, Note_off_c, 0, 51, 0
2, 105332, Note_on_c, 0, 58, 50
2, 105332, Control_c, 0, 64, 104
2, 105344, Note_on_c, 0, 68, 55
2, 105344, Note_on_c, 0, 56, 38
2, 105348, Control_c, 0, 64, 40
2, 105364, Control_c, 0, 64, 0
2, 105368, Note_on_c, 0, 66, 45
2, 105440, Control_c, 0, 64, 40
2, 105452, Note_off_c, 0, 56, 0
2, 105456, Control_c, 0, 64, 127
2, 105460, Note_on_c, 0, 51, 52
2, 105504, Note_off_c, 0, 58, 0
2, 105552, Note_off_c, 0, 51, 0
2, 105612, Note_on_c, 0, 44, 48
2, 105628, Note_on_c, 0, 60, 59
2, 105704, Note_off_c, 0, 44, 0
2, 105744, Note_on_c, 0, 51, 36
2, 105832, Note_off_c, 0, 51, 0
2, 105876, Note_off_c, 0, 60, 0
2, 105876, Note_on_c, 0, 63, 62
2, 105876, Note_on_c, 0, 44, 42
2, 105900, Note_off_c, 0, 66, 0
2, 105916, Note_off_c, 0, 68, 0
2, 105976, Note_off_c, 0, 44, 0
2, 106004, Note_off_c, 0, 63, 0
2, 106008, Note_on_c, 0, 51, 55
2, 106140, Note_off_c, 0, 51, 64
2, 106180, Note_on_c, 0, 44, 49
2, 106184, Control_c, 0, 64, 72
2, 106196, Note_on_c, 0, 70, 60
2, 106196, Note_on_c, 0, 61, 55
2, 106200, Control_c, 0, 64, 0
2, 106212, Note_on_c, 0, 66, 52
2, 106260, Control_c, 0, 64, 24
2, 106272, Note_off_c, 0, 61, 0
2, 106276, Control_c, 0, 64, 88
2, 106292, Note_off_c, 0, 66, 0
2, 106292, Control_c, 0, 64, 127
2, 106300, Note_off_c, 0, 70, 0
2, 106324, Note_off_c, 0, 44, 0
2, 106352, Note_on_c, 0, 39, 51
2, 106504, Note_on_c, 0, 77, 70
2, 106508, Note_off_c, 0, 39, 0
2, 106512, Note_on_c, 0, 44, 46
2, 106512, Note_on_c, 0, 68, 40
2, 106524, Note_on_c, 0, 72, 58
2, 106552, Note_off_c, 0, 72, 0
2, 106560, Note_off_c, 0, 77, 0
2, 106592, Note_off_c, 0, 44, 0
2, 106592, Note_off_c, 0, 68, 0
2, 106628, Note_on_c, 0, 51, 50
2, 106684, Note_off_c, 0, 51, 0
2, 106752, Note_on_c, 0, 75, 75
2, 106752, Note_on_c, 0, 44, 43
2, 106756, Note_on_c, 0, 66, 51
2, 106764, Note_on_c, 0, 70, 59
2, 106828, Note_off_c, 0, 75, 0
2, 106840, Note_off_c, 0, 66, 0
2, 106844, Note_off_c, 0, 70, 0
2, 106896, Note_off_c, 0, 44, 0
2, 106896, Note_on_c, 0, 51, 53
2, 106968, Note_off_c, 0, 51, 0
2, 107000, Note_on_c, 0, 70, 71
2, 107004, Note_on_c, 0, 61, 61
2, 107012, Note_on_c, 0, 66, 50
2, 107012, Note_on_c, 0, 56, 38
2, 107088, Note_off_c, 0, 56, 0
2, 107096, Note_off_c, 0, 66, 0
2, 107100, Note_off_c, 0, 61, 0
2, 107132, Note_on_c, 0, 51, 57
2, 107252, Note_off_c, 0, 70, 0
2, 107252, Note_off_c, 0, 51, 0
2, 107264, Note_on_c, 0, 58, 62
2, 107276, Note_on_c, 0, 56, 56
2, 107332, Note_off_c, 0, 58, 0
2, 107384, Note_off_c, 0, 56, 0
2, 107404, Note_on_c, 0, 63, 52
2, 107504, Note_off_c, 0, 63, 0
2, 107528, Note_on_c, 0, 56, 46
2, 107540, Note_on_c, 0, 61, 58
2, 107652, Note_off_c, 0, 56, 64
2, 107680, Note_on_c, 0, 51, 43
2, 107704, Note_off_c, 0, 61, 64
2, 107788, Note_off_c, 0, 51, 0
2, 107824, Note_on_c, 0, 58, 44
2, 107832, Note_on_c, 0, 68, 44
2, 107840, Note_on_c, 0, 56, 34
2, 107844, Control_c, 0, 64, 56
2, 107848, Note_on_c, 0, 66, 45
2, 107860, Control_c, 0, 64, 0
2, 107936, Control_c, 0, 64, 72
2, 107952, Control_c, 0, 64, 127
2, 107964, Note_off_c, 0, 58, 0
2, 107964, Note_off_c, 0, 56, 0
2, 107984, Note_on_c, 0, 51, 37
2, 108068, Note_off_c, 0, 51, 0
2, 108120, Note_on_c, 0, 56, 25
2, 108148, Note_on_c, 0, 60, 55
2, 108184, Control_c, 0, 64, 72
2, 108200, Control_c, 0, 64, 24
2, 108216, Control_c, 0, 64, 0
2, 108252, Note_off_c, 0, 56, 0
2, 108260, Control_c, 0, 64, 72
2, 108268, Note_on_c, 0, 51, 28
2, 108276, Control_c, 0, 64, 127
2, 108364, Note_off_c, 0, 51, 0
2, 108416, Note_on_c, 0, 56, 25
2, 108448, Note_on_c, 0, 63, 48
2, 108460, Note_off_c, 0, 60, 0
2, 108580, Note_off_c, 0, 63, 0
2, 108596, Note_on_c, 0, 51, 37
2, 108600, Note_off_c, 0, 56, 0
2, 108604, Note_off_c, 0, 66, 0
2, 108608, Note_off_c, 0, 68, 0
2, 108652, Note_off_c, 0, 51, 0
2, 108936, Note_on_c, 0, 75, 67
2, 108960, Note_on_c, 0, 61, 42
2, 108980, Note_on_c, 0, 54, 48
2, 108988, Control_c, 0, 64, 40
2, 109004, Control_c, 0, 64, 0
2, 109072, Note_on_c, 0, 63, 46
2, 109096, Control_c, 0, 64, 56
2, 109112, Control_c, 0, 64, 127
2, 109188, Note_on_c, 0, 66, 55
2, 109196, Note_off_c, 0, 63, 64
2, 109300, Note_off_c, 0, 66, 0
2, 109320, Note_on_c, 0, 70, 52
2, 109428, Note_off_c, 0, 70, 0
2, 109428, Note_on_c, 0, 56, 49
2, 109432, Note_on_c, 0, 66, 57
2, 109536, Note_on_c, 0, 63, 54
2, 109540, Note_off_c, 0, 66, 0
2, 109616, Note_off_c, 0, 56, 0
2, 109624, Note_off_c, 0, 63, 0
2, 109640, Note_on_c, 0, 58, 57
2, 109672, Note_off_c, 0, 61, 64
2, 109704, Control_c, 0, 64, 56
2, 109716, Control_c, 0, 64, 24
2, 109732, Note_on_c, 0, 63, 44
2, 109732, Control_c, 0, 64, 0
2, 109748, Control_c, 0, 64, 24
2, 109764, Control_c, 0, 64, 56
2, 109780, Control_c, 0, 64, 127
2, 109812, Note_off_c, 0, 63, 0
2, 109824, Note_on_c, 0, 66, 50
2, 109892, Note_off_c, 0, 58, 0
2, 109904, Note_off_c, 0, 66, 0
2, 109924, Note_on_c, 0, 70, 50
2, 110020, Note_off_c, 0, 70, 0
2, 110060, Note_on_c, 0, 61, 55
2, 110060, Note_on_c, 0, 66, 54
2, 110124, Note_off_c, 0, 75, 64
2, 110128, Note_off_c, 0, 54, 64
2, 110164, Note_off_c, 0, 61, 0
2, 110168, Note_off_c, 0, 66, 0
2, 110188, Note_on_c, 0, 63, 59
2, 110244, Note_off_c, 0, 63, 0
2, 110452, Note_on_c, 0, 78, 82
2, 110464, Note_on_c, 0, 60, 55
2, 110556, Control_c, 0, 64, 72
2, 110568, Control_c, 0, 64, 0
2, 110612, Note_on_c, 0, 63, 50
2, 110624, Note_off_c, 0, 60, 0
2, 110648, Control_c, 0, 64, 24
2, 110660, Control_c, 0, 64, 127
2, 110696, Note_off_c, 0, 78, 64
2, 110720, Note_off_c, 0, 63, 64
2, 110728, Note_on_c, 0, 66, 45
2, 110840, Note_off_c, 0, 66, 0
2, 110844, Note_on_c, 0, 70, 47
2, 110900, Note_off_c, 0, 70, 0
2, 110948, Note_on_c, 0, 82, 79
2, 110968, Note_on_c, 0, 72, 61
2, 111076, Note_on_c, 0, 75, 63
2, 111084, Note_off_c, 0, 82, 0
2, 111096, Note_off_c, 0, 72, 0
2, 111136, Note_off_c, 0, 75, 0
2, 111244, Note_on_c, 0, 75, 73
2, 111280, Note_on_c, 0, 61, 39
2, 111280, Note_on_c, 0, 54, 47
2, 111296, Control_c, 0, 64, 56
2, 111312, Control_c, 0, 64, 0
2, 111388, Control_c, 0, 64, 88
2, 111396, Note_on_c, 0, 63, 53
2, 111404, Control_c, 0, 64, 127
2, 111508, Note_on_c, 0, 66, 50
2, 111512, Note_off_c, 0, 63, 0
2, 111580, Note_off_c, 0, 66, 0
2, 111616, Note_on_c, 0, 70, 48
2, 111716, Note_off_c, 0, 70, 0
2, 111736, Note_on_c, 0, 56, 64
2, 111744, Note_on_c, 0, 66, 49
2, 111828, Note_on_c, 0, 63, 53
2, 111832, Note_off_c, 0, 66, 0
2, 111892, Note_off_c, 0, 63, 0
2, 111944, Note_off_c, 0, 61, 0
2, 111948, Note_off_c, 0, 56, 0
2, 111960, Note_on_c, 0, 58, 56
2, 111980, Control_c, 0, 64, 104
2, 111996, Control_c, 0, 64, 56
2, 112012, Control_c, 0, 64, 24
2, 112040, Note_on_c, 0, 63, 48
2, 112056, Control_c, 0, 64, 88
2, 112072, Control_c, 0, 64, 127
2, 112088, Note_on_c, 0, 66, 36
2, 112116, Note_off_c, 0, 63, 0
2, 112180, Note_off_c, 0, 66, 0
2, 112196, Note_on_c, 0, 70, 45
2, 112280, Note_off_c, 0, 70, 64
2, 112376, Note_off_c, 0, 54, 64
2, 112384, Note_on_c, 0, 66, 44
2, 112384, Note_on_c, 0, 61, 65
2, 112420, Note_off_c, 0, 75, 64
2, 112436, Note_off_c, 0, 58, 64
2, 112476, Note_off_c, 0, 66, 0
2, 112488, Note_off_c, 0, 61, 0
2, 112500, Note_on_c, 0, 63, 52
2, 112564, Note_off_c, 0, 63, 0
2, 112692, Note_on_c, 0, 78, 67
2, 112704, Note_on_c, 0, 60, 59
2, 112768, Control_c, 0, 64, 88
2, 112784, Control_c, 0, 64, 0
2, 112868, Note_on_c, 0, 63, 44
2, 112876, Note_off_c, 0, 60, 0
2, 112880, Control_c, 0, 64, 72
2, 112896, Control_c, 0, 64, 127
2, 112980, Note_off_c, 0, 63, 0
2, 113000, Note_on_c, 0, 66, 40
2, 113080, Note_off_c, 0, 78, 0
2, 113112, Note_off_c, 0, 66, 0
2, 113112, Note_on_c, 0, 70, 44
2, 113172, Note_off_c, 0, 70, 0
2, 113244, Note_on_c, 0, 82, 62
2, 113272, Note_on_c, 0, 72, 47
2, 113344, Note_off_c, 0, 72, 0
2, 113376, Note_on_c, 0, 75, 55
2, 113404, Note_off_c, 0, 82, 0
2, 113416, Note_off_c, 0, 75, 0
2, 113684, Note_on_c, 0, 87, 77
2, 113708, Note_on_c, 0, 66, 31
2, 113760, Control_c, 0, 64, 56
2, 113776, Control_c, 0, 64, 0
2, 113824, Control_c, 0, 64, 24
2, 113840, Control_c, 0, 64, 104
2, 113856, Note_on_c, 0, 70, 45
2, 113856, Control_c, 0, 64, 127
2, 113948, Note_off_c, 0, 66, 64
2, 113976, Note_on_c, 0, 73, 32
2, 114000, Note_off_c, 0, 70, 0
2, 114016, Note_off_c, 0, 73, 0
2, 114044, Note_on_c, 0, 75, 44
2, 114172, Note_on_c, 0, 78, 46
2, 114176, Note_off_c, 0, 75, 0
2, 114260, Note_off_c, 0, 78, 0
2, 114288, Note_on_c, 0, 82, 46
2, 114364, Note_off_c, 0, 82, 0
2, 114400, Note_on_c, 0, 66, 43
2, 114516, Note_on_c, 0, 70, 46
2, 114520, Note_off_c, 0, 66, 0
2, 114652, Note_on_c, 0, 73, 43
2, 114664, Note_off_c, 0, 70, 0
2, 114720, Note_off_c, 0, 73, 0
2, 114736, Note_on_c, 0, 75, 38
2, 114836, Note_on_c, 0, 78, 49
2, 114844, Note_off_c, 0, 75, 0
2, 114944, Note_off_c, 0, 78, 0
2, 114980, Note_on_c, 0, 84, 64
2, 115104, Note_on_c, 0, 66, 46
2, 115140, Control_c, 0, 64, 88
2, 115188, Control_c, 0, 64, 127
2, 115224, Note_on_c, 0, 70, 43
2, 115252, Note_off_c, 0, 66, 0
2, 115352, Note_on_c, 0, 73, 37
2, 115364, Note_off_c, 0, 70, 64
2, 115416, Note_off_c, 0, 73, 0
2, 115444, Note_off_c, 0, 84, 64
2, 115460, Note_on_c, 0, 75, 35
2, 115568, Note_on_c, 0, 78, 48
2, 115576, Note_off_c, 0, 75, 0
2, 115648, Note_off_c, 0, 78, 0
2, 115696, Note_on_c, 0, 82, 51
2, 115808, Note_off_c, 0, 82, 0
2, 115832, Note_on_c, 0, 66, 55
2, 115852, Control_c, 0, 64, 72
2, 115868, Control_c, 0, 64, 0
2, 115964, Note_off_c, 0, 66, 0
2, 115964, Control_c, 0, 64, 88
2, 115976, Control_c, 0, 64, 127
2, 115984, Note_on_c, 0, 69, 52
2, 116104, Note_on_c, 0, 73, 43
2, 116108, Note_off_c, 0, 69, 0
2, 116176, Note_off_c, 0, 73, 0
2, 116212, Note_off_c, 0, 87, 64
2, 116224, Note_on_c, 0, 75, 42
2, 116344, Note_on_c, 0, 78, 55
2, 116364, Note_off_c, 0, 75, 0
2, 116444, Note_off_c, 0, 78, 0
2, 116476, Note_on_c, 0, 81, 52
2, 116600, Note_off_c, 0, 81, 0
2, 116612, Note_on_c, 0, 85, 67
2, 116632, Note_on_c, 0, 66, 32
2, 116744, Note_off_c, 0, 66, 0
2, 116780, Note_on_c, 0, 69, 44
2, 116904, Note_off_c, 0, 69, 64
2, 116908, Note_on_c, 0, 73, 38
2, 116980, Note_off_c, 0, 73, 0
2, 117040, Note_on_c, 0, 75, 46
2, 117156, Note_off_c, 0, 75, 0
2, 117192, Note_on_c, 0, 78, 44
2, 117288, Note_off_c, 0, 85, 64
2, 117300, Note_off_c, 0, 78, 0
2, 117348, Note_on_c, 0, 83, 64
2, 117432, Note_off_c, 0, 83, 0
2, 117512, Note_on_c, 0, 87, 64
2, 117540, Note_on_c, 0, 66, 31
2, 117684, Note_off_c, 0, 66, 0
2, 117712, Note_on_c, 0, 69, 33
2, 117852, Note_on_c, 0, 73, 36
2, 117908, Note_off_c, 0, 69, 0
2, 117932, Note_off_c, 0, 73, 0
2, 118020, Note_on_c, 0, 75, 32
2, 118236, Note_off_c, 0, 75, 0
2, 118256, Note_on_c, 0, 78, 44
2, 118292, Note_off_c, 0, 87, 0
2, 118416, Note_off_c, 0, 78, 64
2, 118496, Note_on_c, 0, 81, 34
2, 118544, Note_off_c, 0, 81, 0
2, 118852, Note_on_c, 0, 65, 41
2, 118892, Control_c, 0, 64, 72
2, 118904, Control_c, 0, 64, 0
2, 118984, Control_c, 0, 64, 88
2, 118996, Note_off_c, 0, 65, 0
2, 118996, Control_c, 0, 64, 127
2, 119008, Note_on_c, 0, 68, 44
2, 119152, Note_off_c, 0, 68, 0
2, 119172, Note_on_c, 0, 72, 55
2, 119264, Note_off_c, 0, 72, 0
2, 119324, Note_on_c, 0, 77, 42
2, 119440, Note_off_c, 0, 77, 0
2, 119440, Note_on_c, 0, 80, 42
2, 119568, Note_off_c, 0, 80, 0
2, 119576, Note_on_c, 0, 84, 44
2, 119632, Note_off_c, 0, 84, 0
2, 119752, Note_on_c, 0, 92, 76
2, 119780, Note_on_c, 0, 89, 55
2, 120272, Note_off_c, 0, 89, 64
2, 120376, Note_off_c, 0, 92, 64
2, 120676, Note_on_c, 0, 89, 60
2, 120708, Note_on_c, 0, 65, 41
2, 120892, Note_off_c, 0, 65, 0
2, 121060, Note_off_c, 0, 89, 0
2, 121436, Note_on_c, 0, 65, 58
2, 121444, Control_c, 0, 64, 72
2, 121460, Control_c, 0, 64, 24
2, 121476, Control_c, 0, 64, 0
2, 121504, Control_c, 0, 64, 40
2, 121520, Control_c, 0, 64, 104
2, 121540, Control_c, 0, 64, 127
2, 121556, Note_off_c, 0, 65, 0
2, 121580, Note_on_c, 0, 69, 56
2, 121688, Note_off_c, 0, 69, 0
2, 121712, Note_on_c, 0, 87, 67
2, 121728, Note_on_c, 0, 72, 42
2, 121728, Note_on_c, 0, 84, 54
2, 121768, Note_off_c, 0, 84, 0
2, 121800, Note_off_c, 0, 72, 0
2, 121832, Note_off_c, 0, 87, 0
2, 121848, Note_on_c, 0, 75, 42
2, 121936, Note_off_c, 0, 75, 0
2, 121968, Note_on_c, 0, 77, 51
2, 121972, Note_on_c, 0, 89, 76
2, 121980, Note_on_c, 0, 85, 46
2, 122032, Note_off_c, 0, 85, 0
2, 122076, Note_off_c, 0, 77, 0
2, 122100, Note_on_c, 0, 81, 48
2, 122172, Note_off_c, 0, 89, 0
2, 122172, Note_off_c, 0, 81, 0
2, 122248, Note_on_c, 0, 87, 69
2, 122272, Note_on_c, 0, 84, 55
2, 123120, Note_on_c, 0, 65, 50
2, 123304, Note_off_c, 0, 65, 0
2, 123832, Control_c, 0, 64, 104
2, 123848, Note_on_c, 0, 65, 47
2, 123848, Control_c, 0, 64, 56
2, 123864, Note_off_c, 0, 84, 64
2, 123892, Note_off_c, 0, 87, 64
2, 123892, Control_c, 0, 64, 127
2, 123968, Note_off_c, 0, 65, 0
2, 123984, Note_on_c, 0, 68, 37
2, 124076, Note_off_c, 0, 68, 0
2, 124092, Note_on_c, 0, 85, 67
2, 124100, Note_on_c, 0, 82, 53
2, 124104, Note_on_c, 0, 70, 35
2, 124180, Note_off_c, 0, 82, 0
2, 124196, Note_off_c, 0, 70, 0
2, 124228, Note_on_c, 0, 73, 49
2, 124252, Note_off_c, 0, 85, 0
2, 124308, Note_off_c, 0, 73, 0
2, 124336, Note_on_c, 0, 87, 67
2, 124348, Note_on_c, 0, 84, 66
2, 124352, Note_on_c, 0, 77, 49
2, 124440, Note_off_c, 0, 84, 0
2, 124472, Note_on_c, 0, 80, 58
2, 124480, Note_off_c, 0, 77, 0
2, 124532, Note_off_c, 0, 80, 64
2, 124552, Note_off_c, 0, 87, 64
2, 124620, Note_on_c, 0, 85, 67
2, 124632, Note_on_c, 0, 82, 42
2, 124784, Note_off_c, 0, 82, 0
2, 124804, Note_off_c, 0, 85, 0
2, 125016, Note_on_c, 0, 89, 72
2, 125020, Note_on_c, 0, 85, 55
2, 125320, Note_off_c, 0, 85, 0
2, 125424, Note_on_c, 0, 65, 54
2, 125604, Note_off_c, 0, 65, 0
2, 125652, Note_off_c, 0, 89, 0
2, 125784, Note_on_c, 0, 85, 63
2, 125804, Note_on_c, 0, 82, 38
2, 126108, Control_c, 0, 64, 56
2, 126124, Control_c, 0, 64, 0
2, 126132, Note_on_c, 0, 63, 47
2, 126184, Note_off_c, 0, 82, 64
2, 126184, Control_c, 0, 64, 72
2, 126196, Control_c, 0, 64, 127
2, 126208, Note_off_c, 0, 85, 64
2, 126228, Note_off_c, 0, 63, 0
2, 126272, Note_on_c, 0, 66, 39
2, 126364, Note_off_c, 0, 66, 0
2, 126380, Note_on_c, 0, 84, 71
2, 126380, Note_on_c, 0, 68, 33
2, 126396, Note_on_c, 0, 80, 43
2, 126456, Note_off_c, 0, 68, 0
2, 126488, Note_off_c, 0, 84, 0
2, 126488, Note_off_c, 0, 80, 0
2, 126512, Note_on_c, 0, 72, 51
2, 126556, Note_off_c, 0, 72, 0
2, 126632, Note_on_c, 0, 75, 39
2, 126648, Note_on_c, 0, 85, 62
2, 126648, Note_on_c, 0, 82, 50
2, 126736, Note_off_c, 0, 75, 0
2, 126736, Note_off_c, 0, 82, 0
2, 126772, Note_on_c, 0, 78, 57
2, 126800, Note_off_c, 0, 85, 0
2, 126832, Note_off_c, 0, 78, 0
2, 126924, Note_on_c, 0, 84, 74
2, 126940, Note_on_c, 0, 80, 54
2, 127716, Note_on_c, 0, 63, 52
2, 128040, Note_off_c, 0, 63, 0
2, 128192, Note_off_c, 0, 84, 64
2, 128224, Note_off_c, 0, 80, 64
2, 128436, Note_on_c, 0, 61, 54
2, 128460, Control_c, 0, 64, 88
2, 128476, Control_c, 0, 64, 40
2, 128492, Control_c, 0, 64, 0
2, 128540, Control_c, 0, 64, 24
2, 128556, Note_off_c, 0, 61, 0
2, 128556, Control_c, 0, 64, 72
2, 128568, Control_c, 0, 64, 127
2, 128576, Note_on_c, 0, 63, 46
2, 128688, Note_off_c, 0, 63, 0
2, 128704, Note_on_c, 0, 66, 45
2, 128716, Note_on_c, 0, 82, 65
2, 128728, Note_on_c, 0, 78, 54
2, 128792, Note_off_c, 0, 66, 0
2, 128832, Note_off_c, 0, 78, 0
2, 128852, Note_on_c, 0, 70, 32
2, 128892, Note_off_c, 0, 82, 0
2, 128940, Note_off_c, 0, 70, 0
2, 128968, Note_on_c, 0, 84, 82
2, 128972, Note_on_c, 0, 73, 37
2, 128980, Note_on_c, 0, 80, 61
2, 129076, Note_off_c, 0, 80, 0
2, 129112, Note_off_c, 0, 73, 64
2, 129112, Note_on_c, 0, 75, 51
2, 129164, Note_off_c, 0, 84, 64
2, 129192, Note_off_c, 0, 75, 0
2, 129220, Note_on_c, 0, 82, 70
2, 129232, Note_on_c, 0, 78, 56
2, 129396, Note_off_c, 0, 82, 0
2, 129476, Note_on_c, 0, 87, 72
2, 129648, Note_off_c, 0, 87, 0
2, 129664, Note_off_c, 0, 78, 0
2, 129708, Note_on_c, 0, 82, 77
2, 129816, Note_on_c, 0, 60, 59
2, 129880, Note_on_c, 0, 63, 46
2, 129932, Note_off_c, 0, 82, 0
2, 129976, Note_on_c, 0, 65, 51
2, 129980, Control_c, 0, 64, 72
2, 129984, Note_on_c, 0, 80, 78
2, 129996, Control_c, 0, 64, 0
2, 130012, Note_on_c, 0, 77, 60
2, 130036, Note_on_c, 0, 68, 46
2, 130088, Note_off_c, 0, 63, 0
2, 130092, Control_c, 0, 64, 72
2, 130104, Control_c, 0, 64, 127
2, 130132, Note_off_c, 0, 65, 0
2, 130184, Note_off_c, 0, 60, 0
2, 130224, Note_off_c, 0, 68, 0
2, 130232, Note_off_c, 0, 80, 0
2, 130264, Note_on_c, 0, 82, 68
2, 130492, Note_off_c, 0, 82, 0
2, 130528, Note_off_c, 0, 77, 0
2, 130532, Note_on_c, 0, 80, 70
2, 130812, Note_on_c, 0, 48, 70
2, 130832, Control_c, 0, 64, 40
2, 130848, Control_c, 0, 64, 0
2, 130928, Control_c, 0, 64, 40
2, 130940, Control_c, 0, 64, 127
2, 130972, Note_on_c, 0, 54, 58
2, 130976, Note_off_c, 0, 48, 0
2, 131072, Note_off_c, 0, 54, 0
2, 131088, Note_off_c, 0, 80, 64
2, 131116, Note_on_c, 0, 78, 77
2, 131120, Note_on_c, 0, 58, 49
2, 131128, Note_on_c, 0, 75, 67
2, 131188, Note_off_c, 0, 75, 0
2, 131208, Note_off_c, 0, 58, 0
2, 131248, Note_on_c, 0, 60, 60
2, 131324, Note_off_c, 0, 78, 0
2, 131340, Note_off_c, 0, 60, 0
2, 131376, Note_on_c, 0, 80, 70
2, 131392, Note_on_c, 0, 63, 55
2, 131400, Note_on_c, 0, 77, 60
2, 131432, Note_off_c, 0, 77, 0
2, 131468, Note_off_c, 0, 63, 0
2, 131500, Note_on_c, 0, 66, 61
2, 131704, Note_off_c, 0, 80, 0
2, 131704, Note_off_c, 0, 66, 0
2, 131736, Note_on_c, 0, 78, 72
2, 131752, Note_on_c, 0, 70, 61
2, 131756, Note_on_c, 0, 75, 54
2, 132240, Note_off_c, 0, 70, 64
2, 132280, Note_off_c, 0, 75, 64
2, 132336, Note_off_c, 0, 78, 64
2, 132868, Note_on_c, 0, 77, 66
2, 132884, Note_on_c, 0, 69, 47
2, 132916, Note_on_c, 0, 63, 29
2, 132928, Note_on_c, 0, 53, 31
2, 132944, Note_on_c, 0, 60, 29
2, 133016, Control_c, 0, 64, 104
2, 133032, Control_c, 0, 64, 72
2, 133048, Control_c, 0, 64, 0
2, 133216, Control_c, 0, 64, 88
2, 133236, Control_c, 0, 64, 127
2, 133284, Note_off_c, 0, 53, 0
2, 133328, Note_off_c, 0, 63, 0
2, 133328, Note_off_c, 0, 60, 0
2, 133680, Note_off_c, 0, 69, 0
2, 133744, Control_c, 0, 64, 88
2, 133756, Note_on_c, 0, 56, 50
2, 133760, Control_c, 0, 64, 0
2, 133804, Note_off_c, 0, 77, 64
2, 133820, Control_c, 0, 64, 24
2, 133836, Control_c, 0, 64, 88
2, 133852, Control_c, 0, 64, 127
2, 133856, Note_off_c, 0, 56, 0
2, 133896, Note_on_c, 0, 58, 37
2, 134004, Note_off_c, 0, 58, 0
2, 134020, Note_on_c, 0, 61, 31
2, 134044, Note_on_c, 0, 77, 75
2, 134052, Note_on_c, 0, 73, 44
2, 134120, Note_off_c, 0, 61, 0
2, 134164, Note_on_c, 0, 65, 34
2, 134188, Note_off_c, 0, 77, 0
2, 134228, Note_off_c, 0, 73, 0
2, 134236, Note_off_c, 0, 65, 0
2, 134288, Note_on_c, 0, 68, 35
2, 134296, Note_on_c, 0, 78, 73
2, 134320, Note_on_c, 0, 75, 54
2, 134360, Note_off_c, 0, 75, 0
2, 134440, Note_off_c, 0, 68, 0
2, 134440, Note_on_c, 0, 70, 52
2, 134512, Note_off_c, 0, 78, 0
2, 134528, Note_off_c, 0, 70, 0
2, 134572, Note_on_c, 0, 77, 81
2, 134596, Note_on_c, 0, 73, 39
2, 134748, Note_off_c, 0, 77, 0
2, 134836, Note_on_c, 0, 82, 77
2, 134956, Note_off_c, 0, 82, 0
2, 135024, Note_off_c, 0, 73, 0
2, 135064, Note_on_c, 0, 77, 86
2, 135180, Note_on_c, 0, 54, 44
2, 135248, Note_on_c, 0, 58, 31
2, 135300, Note_off_c, 0, 77, 64
2, 135356, Note_on_c, 0, 75, 71
2, 135368, Note_on_c, 0, 61, 32
2, 135380, Note_on_c, 0, 73, 35
2, 135404, Control_c, 0, 64, 40
2, 135420, Control_c, 0, 64, 0
2, 135436, Note_on_c, 0, 63, 42
2, 135512, Control_c, 0, 64, 127
2, 135624, Note_off_c, 0, 54, 64
2, 135648, Note_off_c, 0, 75, 0
2, 135648, Note_off_c, 0, 61, 0
2, 135652, Note_on_c, 0, 77, 81
2, 135656, Note_off_c, 0, 63, 0
2, 135664, Note_off_c, 0, 58, 0
2, 135860, Note_off_c, 0, 77, 0
2, 135904, Note_on_c, 0, 75, 67
2, 136176, Note_on_c, 0, 53, 54
2, 136176, Control_c, 0, 64, 0
2, 136232, Note_off_c, 0, 73, 0
2, 136272, Control_c, 0, 64, 40
2, 136284, Note_off_c, 0, 53, 0
2, 136284, Control_c, 0, 64, 127
2, 136296, Note_on_c, 0, 56, 45
2, 136416, Note_off_c, 0, 75, 0
2, 136424, Note_off_c, 0, 56, 0
2, 136456, Note_on_c, 0, 58, 26
2, 136468, Note_on_c, 0, 73, 64
2, 136488, Note_on_c, 0, 70, 35
2, 136564, Note_off_c, 0, 70, 0
2, 136588, Note_off_c, 0, 58, 0
2, 136592, Note_on_c, 0, 61, 55
2, 136600, Note_off_c, 0, 73, 0
2, 136724, Note_off_c, 0, 61, 0
2, 136752, Note_on_c, 0, 75, 60
2, 136752, Note_on_c, 0, 72, 64
2, 136772, Note_on_c, 0, 65, 40
2, 136808, Note_off_c, 0, 72, 64
2, 136908, Note_on_c, 0, 68, 51
2, 136912, Note_off_c, 0, 65, 64
2, 136980, Note_off_c, 0, 75, 64
2, 137092, Note_on_c, 0, 73, 61
2, 137108, Note_on_c, 0, 70, 36
2, 137248, Control_c, 0, 64, 72
2, 137264, Control_c, 0, 64, 0
2, 137292, Control_c, 0, 64, 24
2, 137308, Control_c, 0, 64, 72
2, 137324, Control_c, 0, 64, 127
2, 137456, Note_off_c, 0, 68, 0
2, 137576, Note_off_c, 0, 73, 0
2, 137576, Note_off_c, 0, 70, 0
2, 138112, Note_on_c, 0, 72, 55
2, 138112, Note_on_c, 0, 68, 42
2, 138120, Note_on_c, 0, 51, 43
2, 138124, Note_on_c, 0, 54, 33
2, 138136, Note_on_c, 0, 60, 36
2, 138160, Control_c, 0, 64, 104
2, 138176, Control_c, 0, 64, 40
2, 138192, Control_c, 0, 64, 0
2, 138284, Control_c, 0, 64, 72
2, 138300, Control_c, 0, 64, 127
2, 138336, Note_off_c, 0, 60, 64
2, 138384, Note_off_c, 0, 54, 64
2, 138392, Note_off_c, 0, 51, 64
2, 138648, Note_off_c, 0, 72, 64
2, 138684, Note_on_c, 0, 44, 43
2, 138716, Note_off_c, 0, 68, 64
2, 139032, Note_off_c, 0, 44, 0
2, 139128, Note_on_c, 0, 37, 56
2, 139136, Control_c, 0, 64, 88
2, 139152, Control_c, 0, 64, 24
2, 139168, Control_c, 0, 64, 0
2, 139244, Control_c, 0, 64, 56
2, 139260, Control_c, 0, 64, 127
2, 139288, Note_off_c, 0, 37, 0
2, 139416, Note_on_c, 0, 56, 62
2, 139436, Note_on_c, 0, 53, 44
2, 139472, Note_off_c, 0, 53, 0
2, 139496, Note_off_c, 0, 56, 0
2, 139688, Note_on_c, 0, 68, 56
2, 139688, Note_on_c, 0, 65, 57
2, 140104, Note_on_c, 0, 80, 71
2, 140108, Note_on_c, 0, 77, 62
2, 140144, Note_on_c, 0, 59, 49
2, 140284, Control_c, 0, 64, 104
2, 140300, Control_c, 0, 64, 40
2, 140312, Control_c, 0, 64, 0
2, 140376, Control_c, 0, 64, 88
2, 140392, Control_c, 0, 64, 127
2, 140584, Note_off_c, 0, 77, 0
2, 140600, Note_off_c, 0, 80, 0
2, 140996, Note_on_c, 0, 77, 59
2, 141004, Note_on_c, 0, 73, 33
2, 141132, Control_c, 0, 64, 72
2, 141148, Control_c, 0, 64, 24
2, 141164, Control_c, 0, 64, 0
2, 141212, Control_c, 0, 64, 72
2, 141228, Control_c, 0, 64, 127
2, 141384, Note_off_c, 0, 68, 64
2, 141392, Note_off_c, 0, 65, 64
2, 141404, Note_off_c, 0, 59, 64
2, 141572, Note_off_c, 0, 73, 64
2, 141576, Note_off_c, 0, 77, 64
2, 141864, Control_c, 0, 64, 72
2, 141876, Note_on_c, 0, 42, 57
2, 141876, Control_c, 0, 64, 24
2, 141892, Control_c, 0, 64, 0
2, 141940, Control_c, 0, 64, 40
2, 141956, Control_c, 0, 64, 127
2, 142096, Note_off_c, 0, 42, 0
2, 142224, Note_on_c, 0, 75, 74
2, 142244, Note_on_c, 0, 70, 48
2, 142244, Note_on_c, 0, 66, 40
2, 142248, Note_on_c, 0, 61, 34
2, 142252, Note_on_c, 0, 58, 32
2, 142260, Note_on_c, 0, 54, 34
2, 142272, Note_on_c, 0, 49, 27
2, 142476, Note_off_c, 0, 75, 0
2, 142516, Note_on_c, 0, 77, 79
2, 142856, Note_off_c, 0, 77, 0
2, 142864, Note_on_c, 0, 75, 64
2, 143100, Control_c, 0, 64, 56
2, 143116, Control_c, 0, 64, 24
2, 143132, Control_c, 0, 64, 0
2, 143176, Control_c, 0, 64, 72
2, 143192, Control_c, 0, 64, 127
2, 143732, Note_off_c, 0, 61, 64
2, 143760, Note_off_c, 0, 49, 64
2, 143768, Note_off_c, 0, 54, 64
2, 143772, Note_off_c, 0, 58, 64
2, 143904, Note_off_c, 0, 70, 64
2, 143904, Note_off_c, 0, 66, 64
2, 143924, Note_off_c, 0, 75, 64
2, 144264, Note_on_c, 0, 44, 55
2, 144264, Control_c, 0, 64, 56
2, 144276, Control_c, 0, 64, 0
2, 144340, Control_c, 0, 64, 72
2, 144356, Control_c, 0, 64, 127
2, 144376, Note_off_c, 0, 44, 0
2, 144564, Note_on_c, 0, 73, 75
2, 144572, Note_on_c, 0, 61, 49
2, 144592, Note_on_c, 0, 68, 48
2, 144600, Note_on_c, 0, 56, 34
2, 144600, Note_on_c, 0, 53, 49
2, 144636, Note_off_c, 0, 53, 0
2, 144648, Note_off_c, 0, 61, 0
2, 144668, Note_off_c, 0, 56, 0
2, 144676, Note_off_c, 0, 73, 0
2, 144776, Note_off_c, 0, 68, 0
2, 144856, Note_on_c, 0, 75, 87
2, 144860, Note_on_c, 0, 63, 67
2, 144912, Note_off_c, 0, 63, 0
2, 144940, Note_off_c, 0, 75, 0
2, 145260, Note_on_c, 0, 80, 77
2, 145268, Note_on_c, 0, 68, 55
2, 145288, Note_on_c, 0, 73, 42
2, 145296, Note_on_c, 0, 65, 36
2, 145296, Note_on_c, 0, 61, 31
2, 145304, Note_on_c, 0, 59, 41
2, 145392, Control_c, 0, 64, 88
2, 145408, Control_c, 0, 64, 24
2, 145424, Control_c, 0, 64, 0
2, 145504, Control_c, 0, 64, 72
2, 145520, Control_c, 0, 64, 127
2, 145640, Note_off_c, 0, 80, 0
2, 145680, Note_off_c, 0, 65, 0
2, 145692, Note_off_c, 0, 68, 0
2, 145692, Note_off_c, 0, 73, 0
2, 145720, Note_off_c, 0, 61, 0
2, 146116, Note_on_c, 0, 77, 70
2, 146132, Note_on_c, 0, 65, 38
2, 146132, Note_on_c, 0, 73, 37
2, 146136, Note_on_c, 0, 61, 44
2, 146280, Control_c, 0, 64, 88
2, 146292, Control_c, 0, 64, 24
2, 146308, Control_c, 0, 64, 0
2, 146384, Control_c, 0, 64, 40
2, 146400, Control_c, 0, 64, 104
2, 146416, Control_c, 0, 64, 127
2, 146496, Note_off_c, 0, 61, 0
2, 146500, Note_off_c, 0, 59, 64
2, 146648, Note_off_c, 0, 73, 0
2, 146672, Note_off_c, 0, 65, 0
2, 146704, Note_off_c, 0, 77, 0
2, 146928, Note_on_c, 0, 46, 54
2, 146928, Control_c, 0, 64, 72
2, 146940, Control_c, 0, 64, 24
2, 146956, Control_c, 0, 64, 0
2, 146996, Note_off_c, 0, 46, 0
2, 147008, Control_c, 0, 64, 40
2, 147020, Control_c, 0, 64, 104
2, 147036, Control_c, 0, 64, 127
2, 147248, Note_on_c, 0, 75, 72
2, 147268, Note_on_c, 0, 70, 39
2, 147268, Note_on_c, 0, 63, 33
2, 147280, Note_on_c, 0, 65, 33
2, 147292, Note_on_c, 0, 53, 36
2, 147300, Note_on_c, 0, 58, 27
2, 147484, Note_off_c, 0, 75, 0
2, 147544, Note_on_c, 0, 77, 72
2, 147776, Note_off_c, 0, 77, 0
2, 147856, Note_on_c, 0, 75, 60
2, 147948, Control_c, 0, 64, 88
2, 147964, Control_c, 0, 64, 40
2, 147980, Control_c, 0, 64, 24
2, 148028, Control_c, 0, 64, 104
2, 148040, Control_c, 0, 64, 127
2, 148556, Note_off_c, 0, 75, 0
2, 148644, Note_off_c, 0, 63, 64
2, 148748, Note_on_c, 0, 73, 42
2, 148784, Note_on_c, 0, 61, 26
2, 148928, Control_c, 0, 64, 88
2, 148944, Control_c, 0, 64, 40
2, 148956, Control_c, 0, 64, 0
2, 149036, Control_c, 0, 64, 56
2, 149048, Control_c, 0, 64, 127
2, 149120, Note_off_c, 0, 53, 64
2, 149136, Note_off_c, 0, 65, 64
2, 149136, Note_off_c, 0, 61, 64
2, 149152, Note_off_c, 0, 58, 64
2, 149188, Note_off_c, 0, 70, 64
2, 149196, Note_off_c, 0, 73, 64
2, 149592, Note_on_c, 0, 41, 49
2, 149604, Control_c, 0, 64, 104
2, 149620, Control_c, 0, 64, 56
2, 149636, Control_c, 0, 64, 0
2, 149700, Control_c, 0, 64, 72
2, 149716, Control_c, 0, 64, 127
2, 149868, Note_on_c, 0, 61, 58
2, 149872, Note_on_c, 0, 56, 44
2, 150144, Note_on_c, 0, 63, 63
2, 150148, Note_off_c, 0, 56, 0
2, 150164, Note_off_c, 0, 61, 0
2, 150220, Note_off_c, 0, 63, 0
2, 150512, Note_on_c, 0, 70, 65
2, 150528, Note_on_c, 0, 61, 38
2, 150532, Note_on_c, 0, 65, 52
2, 150660, Control_c, 0, 64, 104
2, 150676, Control_c, 0, 64, 40
2, 150692, Control_c, 0, 64, 0
2, 150736, Control_c, 0, 64, 40
2, 150752, Control_c, 0, 64, 104
2, 150768, Control_c, 0, 64, 127
2, 150876, Note_off_c, 0, 70, 64
2, 150888, Note_off_c, 0, 65, 64
2, 150916, Note_off_c, 0, 61, 64
2, 151412, Note_on_c, 0, 65, 50
2, 151420, Note_on_c, 0, 56, 36
2, 151424, Note_on_c, 0, 61, 35
2, 151544, Control_c, 0, 64, 88
2, 151560, Control_c, 0, 64, 40
2, 151576, Control_c, 0, 64, 0
2, 151648, Control_c, 0, 64, 72
2, 151668, Control_c, 0, 64, 127
2, 151772, Note_off_c, 0, 41, 64
2, 151884, Note_off_c, 0, 56, 0
2, 151920, Note_off_c, 0, 65, 0
2, 151940, Note_off_c, 0, 61, 0
2, 152144, Note_on_c, 0, 39, 49
2, 152208, Control_c, 0, 64, 56
2, 152224, Control_c, 0, 64, 0
2, 152288, Control_c, 0, 64, 72
2, 152304, Control_c, 0, 64, 127
2, 152396, Note_on_c, 0, 66, 70
2, 152408, Note_on_c, 0, 61, 54
2, 152412, Note_on_c, 0, 58, 40
2, 152616, Note_off_c, 0, 66, 0
2, 152680, Note_off_c, 0, 58, 0
2, 152680, Note_on_c, 0, 68, 80
2, 152708, Note_off_c, 0, 61, 0
2, 152760, Note_off_c, 0, 68, 0
2, 153064, Note_on_c, 0, 73, 77
2, 153068, Note_on_c, 0, 66, 55
2, 153080, Note_on_c, 0, 70, 58
2, 153092, Note_on_c, 0, 51, 56
2, 153156, Control_c, 0, 64, 88
2, 153168, Control_c, 0, 64, 40
2, 153184, Control_c, 0, 64, 0
2, 153264, Control_c, 0, 64, 72
2, 153276, Control_c, 0, 64, 127
2, 153400, Note_off_c, 0, 39, 0
2, 153464, Note_off_c, 0, 70, 0
2, 153464, Note_off_c, 0, 51, 0
2, 153504, Note_off_c, 0, 66, 0
2, 153544, Note_off_c, 0, 73, 0
2, 153920, Note_on_c, 0, 70, 62
2, 153928, Note_on_c, 0, 61, 47
2, 153928, Note_on_c, 0, 63, 48
2, 153940, Note_on_c, 0, 66, 40
2, 154108, Note_off_c, 0, 63, 0
2, 154548, Note_off_c, 0, 66, 0
2, 154568, Note_off_c, 0, 61, 0
2, 154620, Note_off_c, 0, 70, 0
2, 154660, Note_on_c, 0, 44, 57
2, 154748, Control_c, 0, 64, 72
2, 154764, Control_c, 0, 64, 0
2, 154856, Note_on_c, 0, 70, 65
2, 154872, Note_on_c, 0, 66, 48
2, 154872, Note_on_c, 0, 60, 55
2, 154876, Control_c, 0, 64, 127
2, 155036, Note_on_c, 0, 51, 62
2, 155088, Note_off_c, 0, 44, 0
2, 155108, Note_off_c, 0, 51, 0
2, 155168, Note_off_c, 0, 70, 0
2, 155184, Note_off_c, 0, 60, 0
2, 155200, Note_on_c, 0, 72, 81
2, 155236, Note_off_c, 0, 66, 64
2, 155272, Note_off_c, 0, 72, 64
2, 155676, Note_on_c, 0, 80, 72
2, 155688, Note_on_c, 0, 77, 74
2, 155704, Note_on_c, 0, 68, 35
2, 155720, Note_on_c, 0, 72, 48
2, 155788, Note_off_c, 0, 80, 0
2, 156160, Note_off_c, 0, 72, 0
2, 156192, Note_off_c, 0, 77, 0
2, 156220, Note_off_c, 0, 68, 0
2, 156776, Note_on_c, 0, 68, 46
2, 156784, Note_on_c, 0, 66, 38
2, 156788, Note_on_c, 0, 60, 35
2, 156796, Note_on_c, 0, 63, 34
2, 156796, Note_on_c, 0, 56, 35
2, 156980, Control_c, 0, 64, 56
2, 156996, Control_c, 0, 64, 0
2, 157104, Control_c, 0, 64, 88
2, 157120, Control_c, 0, 64, 127
2, 157268, Note_off_c, 0, 56, 0
2, 157504, Note_off_c, 0, 60, 0
2, 157536, Note_off_c, 0, 63, 0
2, 157548, Note_off_c, 0, 66, 0
2, 157560, Note_off_c, 0, 68, 0
2, 157960, Note_on_c, 0, 37, 48
2, 157988, Control_c, 0, 64, 104
2, 158004, Control_c, 0, 64, 40
2, 158020, Control_c, 0, 64, 0
2, 158064, Control_c, 0, 64, 40
2, 158076, Control_c, 0, 64, 127
2, 158160, Note_off_c, 0, 37, 0
2, 158180, Note_on_c, 0, 44, 39
2, 158324, Note_off_c, 0, 44, 64
2, 158344, Note_on_c, 0, 49, 44
2, 158484, Note_off_c, 0, 49, 0
2, 158496, Note_on_c, 0, 53, 41
2, 158540, Note_off_c, 0, 53, 0
2, 158620, Note_on_c, 0, 56, 40
2, 158740, Note_off_c, 0, 56, 0
2, 158764, Note_on_c, 0, 61, 45
2, 158812, Note_off_c, 0, 61, 0
2, 158928, Note_on_c, 0, 41, 51
2, 158948, Control_c, 0, 64, 88
2, 158964, Control_c, 0, 64, 24
2, 158976, Control_c, 0, 64, 0
2, 159040, Control_c, 0, 64, 56
2, 159056, Control_c, 0, 64, 127
2, 159060, Note_off_c, 0, 41, 0
2, 159068, Note_on_c, 0, 48, 53
2, 159208, Note_off_c, 0, 48, 0
2, 159208, Note_on_c, 0, 53, 46
2, 159256, Note_off_c, 0, 53, 0
2, 159320, Note_on_c, 0, 56, 47
2, 159448, Note_off_c, 0, 56, 0
2, 159460, Note_on_c, 0, 60, 49
2, 159588, Note_off_c, 0, 60, 0
2, 159612, Note_on_c, 0, 65, 34
2, 159656, Note_off_c, 0, 65, 0
2, 159720, Note_on_c, 0, 37, 58
2, 159720, Control_c, 0, 64, 104
2, 159736, Control_c, 0, 64, 40
2, 159752, Control_c, 0, 64, 0
2, 159812, Control_c, 0, 64, 72
2, 159824, Note_off_c, 0, 37, 64
2, 159832, Control_c, 0, 64, 127
2, 159872, Note_on_c, 0, 44, 43
2, 159968, Note_off_c, 0, 44, 0
2, 160000, Note_on_c, 0, 49, 48
2, 160104, Note_off_c, 0, 49, 0
2, 160132, Note_on_c, 0, 53, 44
2, 160176, Note_off_c, 0, 53, 0
2, 160248, Note_on_c, 0, 56, 46
2, 160360, Note_off_c, 0, 56, 0
2, 160384, Note_on_c, 0, 61, 42
2, 160432, Note_off_c, 0, 61, 0
2, 160532, Note_on_c, 0, 41, 60
2, 160572, Control_c, 0, 64, 88
2, 160592, Control_c, 0, 64, 40
2, 160604, Control_c, 0, 64, 0
2, 160684, Control_c, 0, 64, 72
2, 160688, Note_on_c, 0, 48, 55
2, 160696, Note_off_c, 0, 41, 0
2, 160700, Control_c, 0, 64, 127
2, 160804, Note_off_c, 0, 48, 0
2, 160828, Note_on_c, 0, 53, 45
2, 160872, Note_off_c, 0, 53, 0
2, 160952, Note_on_c, 0, 56, 47
2, 161096, Note_off_c, 0, 56, 0
2, 161112, Note_on_c, 0, 60, 48
2, 161256, Note_off_c, 0, 60, 0
2, 161256, Note_on_c, 0, 65, 44
2, 161292, Note_off_c, 0, 65, 0
2, 161560, Note_on_c, 0, 71, 68
2, 161576, Note_on_c, 0, 68, 43
2, 161588, Note_on_c, 0, 44, 50
2, 161640, Control_c, 0, 64, 56
2, 161656, Control_c, 0, 64, 0
2, 161768, Control_c, 0, 64, 56
2, 161772, Note_on_c, 0, 52, 46
2, 161784, Note_off_c, 0, 68, 0
2, 161784, Control_c, 0, 64, 127
2, 161912, Note_on_c, 0, 56, 36
2, 161932, Note_off_c, 0, 44, 0
2, 161964, Note_off_c, 0, 52, 0
2, 161988, Note_off_c, 0, 56, 0
2, 162060, Note_on_c, 0, 59, 42
2, 162200, Note_off_c, 0, 59, 0
2, 162220, Note_off_c, 0, 71, 0
2, 162228, Note_on_c, 0, 64, 44
2, 162384, Note_off_c, 0, 64, 0
2, 162392, Note_on_c, 0, 66, 45
2, 162528, Note_off_c, 0, 66, 0
2, 162644, Note_on_c, 0, 73, 56
2, 162644, Note_on_c, 0, 68, 40
2, 162932, Note_off_c, 0, 68, 0
2, 162936, Note_off_c, 0, 73, 64
2, 163576, Note_on_c, 0, 49, 48
2, 163592, Control_c, 0, 64, 56
2, 163608, Control_c, 0, 64, 0
2, 163656, Control_c, 0, 64, 56
2, 163672, Control_c, 0, 64, 127
2, 163688, Note_off_c, 0, 49, 0
2, 163724, Note_on_c, 0, 56, 39
2, 163832, Note_off_c, 0, 56, 0
2, 163856, Note_on_c, 0, 61, 46
2, 163992, Note_off_c, 0, 61, 0
2, 163992, Note_on_c, 0, 65, 45
2, 164060, Note_off_c, 0, 65, 0
2, 164096, Note_on_c, 0, 68, 42
2, 164216, Note_off_c, 0, 68, 0
2, 164228, Note_on_c, 0, 73, 50
2, 164304, Note_off_c, 0, 73, 0
2, 164388, Note_on_c, 0, 53, 56
2, 164480, Control_c, 0, 64, 72
2, 164492, Control_c, 0, 64, 56
2, 164508, Control_c, 0, 64, 88
2, 164524, Note_on_c, 0, 60, 55
2, 164524, Control_c, 0, 64, 127
2, 164676, Note_on_c, 0, 65, 49
2, 164684, Note_off_c, 0, 53, 64
2, 164736, Note_off_c, 0, 60, 0
2, 164740, Note_off_c, 0, 65, 0
2, 164788, Note_on_c, 0, 68, 40
2, 164904, Note_off_c, 0, 68, 0
2, 164940, Note_on_c, 0, 72, 44
2, 165020, Note_off_c, 0, 72, 0
2, 165064, Note_on_c, 0, 77, 48
2, 165116, Note_off_c, 0, 77, 0
2, 165176, Control_c, 0, 64, 40
2, 165192, Note_on_c, 0, 49, 52
2, 165192, Control_c, 0, 64, 0
2, 165268, Control_c, 0, 64, 72
2, 165284, Control_c, 0, 64, 127
2, 165296, Note_off_c, 0, 49, 0
2, 165328, Note_on_c, 0, 56, 45
2, 165428, Note_off_c, 0, 56, 0
2, 165448, Note_on_c, 0, 61, 46
2, 165568, Note_off_c, 0, 61, 0
2, 165572, Note_on_c, 0, 65, 45
2, 165632, Note_off_c, 0, 65, 0
2, 165696, Note_on_c, 0, 68, 27
2, 165804, Note_off_c, 0, 68, 0
2, 165836, Note_on_c, 0, 73, 26
2, 165868, Note_off_c, 0, 73, 0
2, 165980, Note_on_c, 0, 53, 52
2, 165980, Control_c, 0, 64, 88
2, 165992, Control_c, 0, 64, 0
2, 166104, Control_c, 0, 64, 127
2, 166136, Note_on_c, 0, 60, 42
2, 166256, Note_off_c, 0, 53, 0
2, 166276, Note_off_c, 0, 60, 0
2, 166296, Note_on_c, 0, 65, 34
2, 166344, Note_off_c, 0, 65, 0
2, 166376, Note_on_c, 0, 68, 36
2, 166528, Note_off_c, 0, 68, 0
2, 166548, Note_on_c, 0, 72, 45
2, 166680, Note_off_c, 0, 72, 0
2, 166680, Note_on_c, 0, 77, 54
2, 166716, Note_off_c, 0, 77, 0
2, 166960, Note_on_c, 0, 83, 65
2, 166976, Note_on_c, 0, 59, 38
2, 166984, Note_on_c, 0, 56, 31
2, 166984, Note_on_c, 0, 80, 40
2, 167004, Control_c, 0, 64, 56
2, 167020, Control_c, 0, 64, 0
2, 167096, Control_c, 0, 64, 88
2, 167112, Control_c, 0, 64, 127
2, 167148, Note_on_c, 0, 64, 49
2, 167184, Note_off_c, 0, 59, 0
2, 167200, Note_off_c, 0, 80, 0
2, 167276, Note_off_c, 0, 56, 0
2, 167280, Note_on_c, 0, 68, 35
2, 167312, Note_off_c, 0, 64, 0
2, 167360, Note_off_c, 0, 83, 0
2, 167364, Note_off_c, 0, 68, 0
2, 167464, Note_on_c, 0, 71, 18
2, 167536, Note_off_c, 0, 71, 64
2, 167600, Note_on_c, 0, 76, 47
2, 167716, Note_off_c, 0, 76, 0
2, 167748, Note_on_c, 0, 80, 42
2, 167884, Note_off_c, 0, 80, 0
2, 167892, Note_on_c, 0, 85, 60
2, 167984, Note_off_c, 0, 85, 0
2, 168924, Note_on_c, 0, 80, 42
2, 168928, Note_on_c, 0, 83, 68
2, 168944, Note_on_c, 0, 56, 31
2, 168948, Note_on_c, 0, 59, 34
2, 169000, Control_c, 0, 64, 40
2, 169012, Control_c, 0, 64, 0
2, 169092, Control_c, 0, 64, 104
2, 169108, Control_c, 0, 64, 127
2, 169112, Note_on_c, 0, 64, 36
2, 169184, Note_off_c, 0, 80, 64
2, 169264, Note_on_c, 0, 68, 36
2, 169408, Note_off_c, 0, 83, 64
2, 169408, Note_on_c, 0, 71, 48
2, 169528, Note_off_c, 0, 71, 0
2, 169576, Note_on_c, 0, 76, 54
2, 169696, Note_off_c, 0, 76, 0
2, 169748, Note_on_c, 0, 80, 36
2, 169960, Note_on_c, 0, 85, 64
2, 169964, Note_off_c, 0, 80, 0
2, 170020, Note_off_c, 0, 56, 64
2, 170024, Note_off_c, 0, 59, 64
2, 170024, Note_off_c, 0, 68, 0
2, 170028, Note_off_c, 0, 64, 0
2, 170272, Note_off_c, 0, 85, 0
2, 171108, Note_on_c, 0, 88, 58
2, 171108, Note_on_c, 0, 44, 40
2, 171304, Control_c, 0, 64, 56
2, 171324, Control_c, 0, 64, 0
2, 171416, Control_c, 0, 64, 104
2, 171432, Control_c, 0, 64, 127
2, 171664, Note_off_c, 0, 44, 0
2, 171756, Note_off_c, 0, 88, 0
2, 172460, Note_on_c, 0, 92, 54
2, 172460, Note_on_c, 0, 89, 56
2, 172468, Note_on_c, 0, 37, 35
2, 172516, Control_c, 0, 64, 56
2, 172532, Control_c, 0, 64, 0
2, 172592, Control_c, 0, 64, 56
2, 172608, Control_c, 0, 64, 127
2, 172756, Note_off_c, 0, 37, 0
2, 172816, Note_on_c, 0, 44, 42
2, 172996, Note_off_c, 0, 44, 0
2, 173028, Note_on_c, 0, 49, 40
2, 173188, Note_off_c, 0, 49, 0
2, 173240, Note_on_c, 0, 53, 40
2, 173404, Note_off_c, 0, 53, 0
2, 173436, Note_on_c, 0, 56, 44
2, 173632, Note_off_c, 0, 56, 0
2, 173644, Note_on_c, 0, 61, 39
2, 173844, Note_off_c, 0, 61, 0
2, 173884, Note_on_c, 0, 65, 49
2, 174104, Note_on_c, 0, 68, 37
2, 174132, Note_off_c, 0, 65, 0
2, 174328, Note_on_c, 0, 73, 43
2, 174576, Note_on_c, 0, 77, 52
2, 174640, Note_off_c, 0, 89, 64
2, 174852, Note_on_c, 0, 80, 40
2, 174936, Note_off_c, 0, 68, 0
2, 174936, Note_off_c, 0, 77, 0
2, 174976, Note_off_c, 0, 73, 0
2, 175040, Note_off_c, 0, 92, 64
2, 175188, Note_on_c, 0, 85, 51
2, 175196, Note_off_c, 0, 80, 64
2, 175284, Note_off_c, 0, 85, 0
2, 175636, Note_on_c, 0, 61, 33
2, 175740, Note_off_c, 0, 61, 0
2, 175776, Note_on_c, 0, 68, 29
2, 175832, Note_off_c, 0, 68, 0
2, 175860, Note_on_c, 0, 73, 45
2, 175972, Note_off_c, 0, 73, 0
2, 175972, Note_on_c, 0, 77, 52
2, 176016, Note_off_c, 0, 77, 0
2, 176040, Note_on_c, 0, 80, 44
2, 176124, Note_off_c, 0, 80, 0
2, 176136, Note_on_c, 0, 85, 42
2, 176188, Note_off_c, 0, 85, 0
2, 176228, Note_on_c, 0, 89, 56
2, 176328, Note_off_c, 0, 89, 0
2, 176352, Note_on_c, 0, 92, 64
2, 176436, Note_off_c, 0, 92, 0
2, 178184, Control_c, 0, 64, 104
2, 178200, Control_c, 0, 64, 88
2, 178216, Control_c, 0, 64, 72
2, 178272, Control_c, 0, 64, 56
2, 178288, Control_c, 0, 64, 40
2, 178320, Control_c, 0, 64, 24
2, 178432, Control_c, 0, 64, 40
2, 178460, Control_c, 0, 64, 72
2, 178476, Control_c, 0, 64, 88
2, 178488, Control_c, 0, 64, 127
2, 178736, Control_c, 0, 64, 104
2, 178752, Control_c, 0, 64, 88
2, 178772, Control_c, 0, 64, 72
2, 178788, Control_c, 0, 64, 56
2, 178804, Control_c, 0, 64, 40
2, 178816, Control_c, 0, 64, 0
2, 178816, End_track
3, 0, Start_track
3, 0, Title_t, "Claude Debussy"
3, 0, Key_signature, 0, "major"
3, 0, End_track
4, 0, Start_track
4, 0, Title_t, "C 1996 Robert Finley"
4, 0, Key_signature, 0, "major"
4, 0, End_track
5, 0, Start_track
5, 0, Key_signature, 0, "major"
5, 0, End_track
6, 0, Start_track
6, 0, Key_signature, 0, "major"
6, 0, End_track
7, 0, Start_track
7, 0, Key_signature, 0, "major"
7, 0, End_track
8, 0, Start_track
8, 0, Key_signature, 0, "major"
8, 0, End_track
9, 0, Start_track
9, 0, Key_signature, 0, "major"
9, 0, End_track
10, 0, Start_track
10, 0, Key_signature, 0, "major"
10, 0, End_track
11, 0, Start_track
11, 0, Key_signature, 0, "major"
11, 0, End_track
12, 0, Start_track
12, 0, Key_signature, 0, "major"
12, 0, End_track
13, 0, Start_track
13, 0, Key_signature, 0, "major"
13, 0, End_track
14, 0, Start_track
14, 0, Key_signature, 0, "major"
14, 0, End_track
15, 0, Start_track
15, 0, Key_signature, 0, "major"
15, 0, End_track
16, 0, Start_track
16, 0, Key_signature, 0, "major"
16, 0, End_track
17, 0, Start_track
17, 0, Key_signature, 0, "major"
17, 0, End_track
0, 0, End_of_file
