0, 0, Header, 1, 7, 480
1, 0, Start_track
1, 0, Title_t, "Seq-1"
1, 0, SMPTE_offset, 96, 0, 0, 0, 0
1, 0, Time_signature, 4, 2, 24, 8
1, 0, Tempo, 512820
1, 0, End_track
2, 0, Start_track
2, 0, Title_t, "Claude Debussy"
2, 1964, Control_c, 0, 7, 90
2, 1984, Note_on_c, 0, 98, 38
2, 1995, Control_c, 0, 64, 96
2, 1996, Note_on_c, 0, 86, 32
2, 1997, Note_on_c, 0, 91, 20
2, 1998, Note_on_c, 0, 38, 24
2, 2002, Note_on_c, 0, 31, 30
2, 2003, Note_on_c, 0, 43, 36
2, 2695, Note_on_c, 0, 62, 28
2, 2699, Note_on_c, 0, 67, 20
2, 2702, Note_on_c, 0, 55, 34
2, 2712, Note_on_c, 0, 50, 24
2, 2713, Note_on_c, 0, 74, 40
2, 3032, Note_off_c, 0, 62, 47
2, 3057, Note_off_c, 0, 55, 48
2, 3117, Note_off_c, 0, 74, 50
2, 3123, Note_off_c, 0, 50, 46
2, 3160, Note_off_c, 0, 67, 45
2, 3419, Note_on_c, 0, 52, 30
2, 3425, Note_on_c, 0, 76, 43
2, 3428, Note_on_c, 0, 57, 40
2, 3433, Note_on_c, 0, 69, 23
2, 3438, Note_on_c, 0, 64, 35
2, 3752, Note_off_c, 0, 76, 50
2, 3769, Note_off_c, 0, 69, 45
2, 3790, Note_off_c, 0, 64, 48
2, 3817, Note_off_c, 0, 57, 50
2, 3886, Note_off_c, 0, 52, 47
2, 4159, Note_on_c, 0, 83, 46
2, 4164, Note_on_c, 0, 76, 26
2, 4166, Note_on_c, 0, 71, 34
2, 4171, Note_on_c, 0, 59, 25
2, 4174, Note_on_c, 0, 64, 40
2, 4363, Note_off_c, 0, 86, 48
2, 4529, Note_off_c, 0, 59, 46
2, 4564, Note_off_c, 0, 64, 50
2, 4576, Note_off_c, 0, 83, 51
2, 4580, Note_off_c, 0, 71, 48
2, 4645, Note_off_c, 0, 76, 46
2, 4917, Note_on_c, 0, 62, 35
2, 4919, Note_on_c, 0, 67, 42
2, 4919, Note_on_c, 0, 79, 29
2, 4928, Note_on_c, 0, 74, 37
2, 4934, Note_on_c, 0, 86, 42
2, 5302, Note_off_c, 0, 62, 48
2, 5304, Note_off_c, 0, 79, 47
2, 5308, Note_off_c, 0, 67, 50
2, 5407, Note_off_c, 0, 74, 49
2, 5692, Note_on_c, 0, 69, 39
2, 5694, Note_on_c, 0, 81, 28
2, 5698, Note_on_c, 0, 76, 36
2, 5703, Note_on_c, 0, 88, 48
2, 5705, Note_on_c, 0, 64, 29
2, 6107, Note_off_c, 0, 76, 49
2, 6120, Note_off_c, 0, 64, 47
2, 6183, Note_off_c, 0, 81, 47
2, 6212, Note_off_c, 0, 69, 49
2, 6255, Note_off_c, 0, 86, 50
2, 6341, Note_off_c, 0, 88, 52
2, 6471, Note_off_c, 0, 98, 49
2, 6487, Note_off_c, 0, 91, 45
2, 6810, Note_off_c, 0, 38, 46
2, 7273, Note_on_c, 0, 38, 24
2, 7294, Note_off_c, 0, 31, 47
2, 7983, Note_on_c, 0, 31, 24
2, 8299, Note_off_c, 0, 38, 46
2, 9457, Note_on_c, 0, 38, 24
2, 9559, Note_off_c, 0, 31, 46
2, 11014, Note_off_c, 0, 38, 46
2, 11016, Note_on_c, 0, 98, 38
2, 11026, Note_on_c, 0, 36, 24
2, 11029, Note_on_c, 0, 29, 30
2, 11035, Note_on_c, 0, 41, 36
2, 11037, Note_on_c, 0, 86, 32
2, 11038, Note_off_c, 0, 43, 49
2, 11039, Note_on_c, 0, 91, 20
2, 11052, Control_c, 0, 64, 20
2, 11369, Control_c, 0, 64, 96
2, 11739, Note_on_c, 0, 74, 40
2, 11740, Note_on_c, 0, 55, 34
2, 11743, Note_on_c, 0, 67, 20
2, 11744, Note_on_c, 0, 50, 24
2, 11745, Note_on_c, 0, 62, 28
2, 12103, Note_off_c, 0, 74, 50
2, 12107, Note_off_c, 0, 62, 47
2, 12113, Note_off_c, 0, 55, 48
2, 12184, Note_off_c, 0, 50, 46
2, 12192, Note_off_c, 0, 67, 45
2, 12463, Note_on_c, 0, 52, 30
2, 12464, Note_on_c, 0, 69, 23
2, 12465, Note_on_c, 0, 64, 35
2, 12467, Note_on_c, 0, 76, 43
2, 12469, Note_on_c, 0, 57, 40
2, 12805, Note_off_c, 0, 76, 50
2, 12824, Note_off_c, 0, 64, 48
2, 12836, Note_off_c, 0, 69, 45
2, 12843, Note_off_c, 0, 57, 50
2, 12948, Note_off_c, 0, 52, 47
2, 13203, Note_on_c, 0, 76, 26
2, 13208, Note_on_c, 0, 59, 25
2, 13209, Note_on_c, 0, 64, 40
2, 13210, Note_on_c, 0, 83, 46
2, 13211, Note_on_c, 0, 71, 34
2, 13431, Note_off_c, 0, 86, 48
2, 13585, Note_off_c, 0, 71, 48
2, 13603, Note_off_c, 0, 83, 51
2, 13654, Note_off_c, 0, 59, 46
2, 13669, Note_off_c, 0, 64, 50
2, 13684, Note_off_c, 0, 76, 46
2, 13957, Note_on_c, 0, 62, 35
2, 13959, Note_on_c, 0, 86, 43
2, 13961, Note_on_c, 0, 67, 42
2, 13964, Note_on_c, 0, 79, 29
2, 13966, Note_on_c, 0, 74, 37
2, 14381, Note_off_c, 0, 79, 47
2, 14386, Note_off_c, 0, 62, 48
2, 14446, Note_off_c, 0, 67, 50
2, 14470, Note_off_c, 0, 74, 49
2, 14728, Note_on_c, 0, 76, 33
2, 14730, Note_on_c, 0, 69, 36
2, 14732, Note_on_c, 0, 88, 45
2, 14737, Note_on_c, 0, 64, 26
2, 14739, Note_on_c, 0, 81, 25
2, 15137, Note_off_c, 0, 64, 46
2, 15171, Note_off_c, 0, 81, 46
2, 15176, Note_off_c, 0, 76, 48
2, 15210, Note_off_c, 0, 69, 49
2, 15506, Note_off_c, 0, 98, 49
2, 15521, Note_off_c, 0, 88, 51
2, 15522, Note_off_c, 0, 86, 50
2, 15532, Note_off_c, 0, 91, 45
2, 15842, Note_off_c, 0, 36, 46
2, 16321, Note_off_c, 0, 29, 47
2, 16322, Note_on_c, 0, 36, 24
2, 17031, Note_on_c, 0, 29, 24
2, 18022, Note_off_c, 0, 36, 46
2, 18507, Note_on_c, 0, 36, 24
2, 19861, Note_off_c, 0, 29, 46
2, 20048, Note_on_c, 0, 98, 38
2, 20056, Control_c, 0, 64, 20
2, 20057, Note_on_c, 0, 28, 30
2, 20062, Note_on_c, 0, 40, 36
2, 20064, Note_off_c, 0, 36, 46
2, 20066, Note_on_c, 0, 35, 24
2, 20068, Note_on_c, 0, 86, 32
2, 20069, Note_off_c, 0, 41, 49
2, 20071, Note_on_c, 0, 91, 20
2, 20373, Control_c, 0, 64, 96
2, 20748, Note_on_c, 0, 50, 24
2, 20749, Note_on_c, 0, 55, 34
2, 20751, Note_on_c, 0, 74, 40
2, 20763, Note_on_c, 0, 67, 20
2, 20765, Note_on_c, 0, 62, 28
2, 21111, Note_off_c, 0, 50, 46
2, 21141, Note_off_c, 0, 62, 47
2, 21142, Note_off_c, 0, 55, 48
2, 21153, Note_off_c, 0, 74, 50
2, 21242, Note_off_c, 0, 67, 45
2, 21478, Note_on_c, 0, 69, 23
2, 21479, Note_on_c, 0, 64, 35
2, 21484, Note_on_c, 0, 52, 30
2, 21489, Note_on_c, 0, 57, 40
2, 21490, Note_on_c, 0, 76, 43
2, 21851, Note_off_c, 0, 69, 45
2, 21877, Note_off_c, 0, 57, 50
2, 21879, Note_off_c, 0, 52, 47
2, 21893, Note_off_c, 0, 64, 48
2, 21958, Note_off_c, 0, 76, 50
2, 22213, Note_on_c, 0, 83, 46
2, 22218, Note_on_c, 0, 59, 25
2, 22220, Note_on_c, 0, 64, 40
2, 22227, Note_on_c, 0, 76, 26
2, 22228, Note_on_c, 0, 71, 34
2, 22466, Note_off_c, 0, 86, 48
2, 22617, Note_off_c, 0, 64, 50
2, 22641, Note_off_c, 0, 71, 48
2, 22642, Note_off_c, 0, 83, 51
2, 22679, Note_off_c, 0, 59, 46
2, 22707, Note_off_c, 0, 76, 46
2, 22973, Note_on_c, 0, 62, 35
2, 22974, Note_on_c, 0, 86, 49
2, 22986, Note_on_c, 0, 79, 29
2, 22987, Note_on_c, 0, 74, 37
2, 22988, Note_on_c, 0, 67, 42
2, 23537, Note_off_c, 0, 62, 48
2, 23594, Note_off_c, 0, 79, 47
2, 23619, Note_off_c, 0, 67, 50
2, 23660, Note_off_c, 0, 74, 49
2, 23751, Note_on_c, 0, 76, 30
2, 23752, Note_on_c, 0, 64, 32
2, 23753, Note_on_c, 0, 88, 36
2, 24538, Note_off_c, 0, 86, 52
2, 24539, Note_off_c, 0, 98, 49
2, 24547, Note_off_c, 0, 28, 47
2, 24554, Note_off_c, 0, 40, 49
2, 24556, Note_off_c, 0, 35, 46
2, 24565, Note_off_c, 0, 91, 45
2, 24929, Note_off_c, 0, 88, 49
2, 24935, Note_off_c, 0, 64, 48
2, 24984, Note_off_c, 0, 76, 47
2, 25340, Note_on_c, 0, 88, 38
2, 25354, Note_on_c, 0, 76, 29
2, 25357, Note_on_c, 0, 64, 33
2, 26705, Note_off_c, 0, 64, 48
2, 26779, Note_off_c, 0, 76, 47
2, 26987, Note_off_c, 0, 88, 49
2, 27413, Note_on_c, 0, 88, 42
2, 27428, Note_on_c, 0, 64, 32
2, 27430, Note_on_c, 0, 76, 30
2, 29480, Note_off_c, 0, 76, 47
2, 29499, Note_off_c, 0, 64, 48
2, 29680, Note_off_c, 0, 88, 50
2, 30105, Note_on_c, 0, 88, 32
2, 30113, Note_on_c, 0, 64, 28
2, 30115, Note_on_c, 0, 76, 25
2, 30119, Control_c, 0, 64, 20
2, 30413, Control_c, 0, 64, 96
2, 31420, Note_on_c, 0, 85, 35
2, 31429, Note_on_c, 0, 73, 23
2, 31433, Note_on_c, 0, 61, 30
2, 32179, Note_off_c, 0, 76, 46
2, 32197, Note_off_c, 0, 64, 47
2, 32319, Note_off_c, 0, 88, 48
2, 32714, Note_on_c, 0, 88, 38
2, 32725, Note_on_c, 0, 64, 30
2, 32732, Note_on_c, 0, 76, 26
2, 32735, Control_c, 0, 64, 20
2, 33020, Control_c, 0, 64, 96
2, 33475, Note_off_c, 0, 61, 47
2, 33615, Note_off_c, 0, 73, 45
2, 33986, Note_off_c, 0, 85, 48
2, 33988, Note_on_c, 0, 87, 41
2, 34005, Note_on_c, 0, 75, 30
2, 34006, Note_on_c, 0, 63, 34
2, 34736, Note_off_c, 0, 64, 47
2, 35073, Note_off_c, 0, 75, 47
2, 35105, Note_off_c, 0, 76, 46
2, 35180, Note_off_c, 0, 63, 48
2, 35244, Note_off_c, 0, 87, 50
2, 35245, Note_off_c, 0, 88, 49
2, 35245, Note_on_c, 0, 92, 44
2, 35260, Note_on_c, 0, 68, 40
2, 35261, Note_on_c, 0, 80, 32
2, 36292, Note_off_c, 0, 80, 48
2, 36438, Note_off_c, 0, 68, 50
2, 36504, Note_off_c, 0, 92, 51
2, 36505, Note_on_c, 0, 88, 40
2, 36514, Note_on_c, 0, 64, 27
2, 36515, Control_c, 0, 64, 20
2, 36523, Note_on_c, 0, 76, 20
2, 36801, Control_c, 0, 64, 96
2, 37794, Note_on_c, 0, 85, 36
2, 37807, Note_on_c, 0, 73, 27
2, 37808, Note_on_c, 0, 61, 30
2, 38254, Note_off_c, 0, 76, 45
2, 38331, Note_off_c, 0, 64, 46
2, 38618, Note_off_c, 0, 88, 50
2, 38991, Note_off_c, 0, 73, 46
2, 39050, Note_off_c, 0, 61, 47
2, 39112, Note_off_c, 0, 85, 49
2, 39113, Note_on_c, 0, 88, 32
2, 39120, Note_on_c, 0, 76, 20
2, 39122, Control_c, 0, 64, 20
2, 39123, Note_on_c, 0, 64, 20
2, 39124, Note_on_c, 0, 68, 30
2, 39126, Note_on_c, 0, 80, 22
2, 39129, Note_on_c, 0, 56, 17
2, 39422, Control_c, 0, 64, 96
2, 41056, Note_off_c, 0, 64, 45
2, 41189, Note_off_c, 0, 76, 45
2, 41390, Note_off_c, 0, 88, 48
2, 41470, Note_off_c, 0, 68, 47
2, 41666, Note_off_c, 0, 56, 44
2, 41676, Note_off_c, 0, 80, 45
2, 41846, Note_on_c, 0, 88, 38
2, 41848, Control_c, 0, 64, 20
2, 41860, Note_on_c, 0, 58, 20
2, 41862, Note_on_c, 0, 64, 25
2, 41863, Note_on_c, 0, 76, 27
2, 41864, Note_on_c, 0, 82, 18
2, 41865, Note_on_c, 0, 70, 34
2, 42131, Control_c, 0, 64, 96
2, 42841, Note_off_c, 0, 58, 45
2, 42852, Note_off_c, 0, 70, 48
2, 43014, Note_off_c, 0, 82, 44
2, 43112, Note_on_c, 0, 87, 41
2, 43124, Note_on_c, 0, 75, 30
2, 43127, Note_on_c, 0, 63, 35
2, 43850, Note_off_c, 0, 76, 46
2, 43864, Note_off_c, 0, 64, 46
2, 43989, Note_off_c, 0, 88, 49
2, 44245, Note_off_c, 0, 63, 48
2, 44290, Note_off_c, 0, 75, 47
2, 44410, Note_off_c, 0, 87, 50
2, 44411, Note_on_c, 0, 88, 44
2, 44413, Control_c, 0, 64, 20
2, 44420, Note_on_c, 0, 59, 20
2, 44422, Note_on_c, 0, 76, 32
2, 44423, Note_on_c, 0, 71, 38
2, 44424, Note_on_c, 0, 64, 25
2, 44427, Note_on_c, 0, 83, 24
2, 44709, Control_c, 0, 64, 96
2, 45501, Note_off_c, 0, 59, 45
2, 45503, Note_off_c, 0, 71, 49
2, 45524, Note_off_c, 0, 83, 46
2, 45748, Note_on_c, 0, 80, 39
2, 45765, Note_on_c, 0, 68, 25
2, 45768, Note_on_c, 0, 56, 32
2, 46275, Note_off_c, 0, 76, 48
2, 46648, Note_off_c, 0, 64, 46
2, 46784, Note_off_c, 0, 88, 51
2, 46976, Note_off_c, 0, 56, 48
2, 47028, Note_off_c, 0, 68, 46
2, 47127, Note_off_c, 0, 80, 49
2, 47128, Note_on_c, 0, 88, 54
2, 47134, Control_c, 0, 64, 20
2, 47141, Note_on_c, 0, 64, 39
2, 47143, Note_on_c, 0, 82, 34
2, 47144, Note_on_c, 0, 70, 48
2, 47145, Note_on_c, 0, 76, 43
2, 47146, Note_on_c, 0, 58, 33
2, 47416, Control_c, 0, 64, 96
2, 48129, Note_off_c, 0, 70, 52
2, 48193, Note_off_c, 0, 58, 48
2, 48297, Note_off_c, 0, 82, 48
2, 48393, Note_on_c, 0, 87, 64
2, 48402, Note_on_c, 0, 75, 44
2, 48403, Note_on_c, 0, 63, 52
2, 48894, Note_off_c, 0, 64, 49
2, 49065, Note_off_c, 0, 76, 50
2, 49216, Note_off_c, 0, 88, 53
2, 49488, Note_off_c, 0, 63, 53
2, 49616, Note_off_c, 0, 75, 51
2, 49695, Note_off_c, 0, 87, 56
2, 49696, Note_on_c, 0, 88, 52
2, 49703, Note_on_c, 0, 85, 32
2, 49707, Note_on_c, 0, 73, 45
2, 49709, Control_c, 0, 64, 20
2, 49712, Note_on_c, 0, 61, 33
2, 49714, Note_on_c, 0, 64, 39
2, 49715, Note_on_c, 0, 76, 40
2, 50006, Control_c, 0, 64, 96
2, 50818, Note_off_c, 0, 61, 48
2, 50834, Note_off_c, 0, 73, 51
2, 50894, Note_off_c, 0, 85, 48
2, 51038, Note_on_c, 0, 87, 35
2, 51053, Note_on_c, 0, 75, 24
2, 51057, Note_on_c, 0, 63, 31
2, 51653, Note_off_c, 0, 64, 49
2, 51679, Note_off_c, 0, 76, 50
2, 52218, Note_off_c, 0, 75, 46
2, 52218, Note_off_c, 0, 63, 47
2, 52248, Note_off_c, 0, 88, 53
2, 52423, Note_off_c, 0, 87, 48
2, 52425, Note_on_c, 0, 88, 36
2, 52432, Note_on_c, 0, 64, 20
2, 52435, Control_c, 0, 64, 20
2, 52438, Note_on_c, 0, 83, 16
2, 52440, Note_on_c, 0, 76, 24
2, 52441, Note_on_c, 0, 71, 30
2, 52441, Note_on_c, 0, 59, 17
2, 52792, Control_c, 0, 64, 96
2, 54059, Note_on_c, 0, 40, 38
2, 54077, Note_on_c, 0, 28, 33
2, 54904, Note_on_c, 0, 47, 36
2, 55544, Note_off_c, 0, 28, 48
2, 55766, Note_off_c, 0, 40, 49
2, 55767, Note_on_c, 0, 38, 30
2, 55784, Note_on_c, 0, 26, 26
2, 56008, Note_off_c, 0, 59, 44
2, 56272, Note_off_c, 0, 64, 45
2, 56382, Note_off_c, 0, 83, 44
2, 56513, Note_off_c, 0, 71, 47
2, 56660, Note_off_c, 0, 88, 49
2, 56833, Note_off_c, 0, 76, 46
2, 57305, Note_off_c, 0, 26, 46
2, 57532, Note_on_c, 0, 24, 19
2, 57535, Note_on_c, 0, 31, 24
2, 57541, Note_on_c, 0, 36, 30
2, 57544, Note_off_c, 0, 38, 47
2, 57544, Note_off_c, 0, 47, 49
2, 57545, Note_on_c, 0, 95, 34
2, 57550, Control_c, 0, 64, 20
2, 57552, Note_on_c, 0, 83, 22
2, 57554, Note_on_c, 0, 88, 14
2, 57905, Control_c, 0, 64, 96
2, 58328, Note_on_c, 0, 67, 20
2, 58330, Note_on_c, 0, 43, 18
2, 58331, Note_on_c, 0, 50, 22
2, 58333, Note_on_c, 0, 62, 25
2, 58336, Note_on_c, 0, 57, 30
2, 58339, Note_on_c, 0, 74, 35
2, 58689, Note_off_c, 0, 74, 48
2, 58703, Note_off_c, 0, 62, 46
2, 58744, Note_off_c, 0, 67, 45
2, 58817, Note_off_c, 0, 50, 45
2, 58818, Note_off_c, 0, 43, 44
2, 58855, Note_off_c, 0, 57, 47
2, 59094, Note_on_c, 0, 69, 17
2, 59095, Note_on_c, 0, 45, 20
2, 59099, Note_on_c, 0, 64, 25
2, 59106, Note_on_c, 0, 59, 31
2, 59107, Note_on_c, 0, 76, 37
2, 59108, Note_on_c, 0, 52, 24
2, 59338, Note_off_c, 0, 83, 45
2, 59486, Note_off_c, 0, 76, 49
2, 59521, Note_off_c, 0, 69, 44
2, 59546, Note_off_c, 0, 64, 46
2, 59851, Note_on_c, 0, 71, 25
2, 59854, Note_on_c, 0, 83, 39
2, 59857, Note_on_c, 0, 76, 30
2, 60172, Note_off_c, 0, 59, 47
2, 60261, Note_off_c, 0, 45, 45
2, 60273, Note_off_c, 0, 76, 47
2, 60278, Note_off_c, 0, 88, 44
2, 60281, Note_off_c, 0, 83, 49
2, 60284, Note_off_c, 0, 71, 46
2, 60315, Note_off_c, 0, 24, 45
2, 60331, Note_off_c, 0, 52, 46
2, 60572, Note_on_c, 0, 86, 41
2, 60577, Note_on_c, 0, 57, 37
2, 60579, Note_on_c, 0, 50, 30
2, 60586, Note_on_c, 0, 79, 21
2, 60587, Note_on_c, 0, 43, 20
2, 60588, Note_on_c, 0, 74, 30
2, 60634, Note_off_c, 0, 36, 47
2, 60914, Note_off_c, 0, 79, 45
2, 60936, Note_off_c, 0, 86, 50
2, 61004, Note_off_c, 0, 74, 47
2, 61029, Note_off_c, 0, 31, 46
2, 61057, Note_off_c, 0, 57, 49
2, 61095, Note_off_c, 0, 50, 47
2, 61114, Note_off_c, 0, 43, 45
2, 61287, Note_on_c, 0, 45, 24
2, 61289, Note_on_c, 0, 81, 23
2, 61291, Note_on_c, 0, 76, 31
2, 61292, Note_on_c, 0, 59, 38
2, 61293, Note_on_c, 0, 88, 43
2, 61296, Note_on_c, 0, 52, 30
2, 61637, Note_off_c, 0, 76, 47
2, 61716, Note_off_c, 0, 81, 45
2, 61720, Note_off_c, 0, 95, 48
2, 61722, Note_off_c, 0, 88, 50
2, 61985, Note_on_c, 0, 24, 26
2, 61989, Note_on_c, 0, 36, 36
2, 61991, Note_on_c, 0, 95, 45
2, 61992, Note_on_c, 0, 31, 32
2, 61996, Note_on_c, 0, 83, 33
2, 62004, Control_c, 0, 64, 20
2, 62005, Note_on_c, 0, 88, 25
2, 62317, Control_c, 0, 64, 96
2, 62343, Note_off_c, 0, 45, 46
2, 62347, Note_off_c, 0, 88, 46
2, 62366, Note_off_c, 0, 59, 49
2, 62368, Note_off_c, 0, 52, 47
2, 62377, Note_off_c, 0, 95, 51
2, 62386, Note_off_c, 0, 83, 48
2, 62687, Note_on_c, 0, 76, 30
2, 62691, Note_on_c, 0, 50, 24
2, 62693, Note_on_c, 0, 81, 22
2, 62695, Note_on_c, 0, 88, 42
2, 62697, Note_on_c, 0, 57, 36
2, 62699, Note_on_c, 0, 43, 20
2, 63036, Note_off_c, 0, 88, 50
2, 63041, Note_off_c, 0, 76, 47
2, 63108, Note_off_c, 0, 81, 45
2, 63171, Note_off_c, 0, 57, 49
2, 63181, Note_off_c, 0, 43, 45
2, 63196, Note_off_c, 0, 50, 46
2, 63409, Note_on_c, 0, 74, 36
2, 63412, Note_on_c, 0, 52, 25
2, 63414, Note_on_c, 0, 79, 22
2, 63415, Note_on_c, 0, 59, 30
2, 63417, Note_on_c, 0, 45, 22
2, 63418, Note_on_c, 0, 86, 39
2, 63796, Note_off_c, 0, 74, 49
2, 63833, Note_off_c, 0, 86, 49
2, 63858, Note_off_c, 0, 79, 45
2, 64135, Note_on_c, 0, 83, 37
2, 64148, Note_on_c, 0, 71, 20
2, 64150, Note_on_c, 0, 76, 25
2, 64464, Note_off_c, 0, 83, 49
2, 64465, Note_off_c, 0, 59, 47
2, 64529, Note_off_c, 0, 76, 46
2, 64607, Note_off_c, 0, 71, 45
2, 64632, Note_off_c, 0, 45, 45
2, 64652, Note_off_c, 0, 52, 46
2, 64890, Note_on_c, 0, 57, 28
2, 64898, Note_on_c, 0, 64, 22
2, 64899, Note_on_c, 0, 76, 34
2, 64899, Note_on_c, 0, 43, 18
2, 64902, Note_on_c, 0, 69, 14
2, 64904, Note_on_c, 0, 50, 22
2, 64998, Note_off_c, 0, 36, 50
2, 65087, Note_off_c, 0, 24, 47
2, 65284, Note_off_c, 0, 64, 45
2, 65289, Note_off_c, 0, 76, 48
2, 65299, Note_off_c, 0, 31, 49
2, 65346, Note_off_c, 0, 69, 44
2, 65374, Note_off_c, 0, 43, 44
2, 65381, Note_off_c, 0, 50, 45
2, 65435, Note_off_c, 0, 57, 47
2, 65661, Note_on_c, 0, 59, 25
2, 65664, Note_on_c, 0, 67, 20
2, 65668, Note_on_c, 0, 52, 22
2, 65669, Note_on_c, 0, 45, 19
2, 65681, Note_on_c, 0, 62, 30
2, 65682, Note_on_c, 0, 74, 32
2, 66077, Note_off_c, 0, 67, 45
2, 66181, Note_off_c, 0, 59, 46
2, 66210, Note_off_c, 0, 62, 47
2, 66213, Note_off_c, 0, 45, 45
2, 66217, Note_off_c, 0, 52, 45
2, 66229, Note_off_c, 0, 74, 48
2, 66465, Note_on_c, 0, 23, 20
2, 66466, Note_on_c, 0, 35, 30
2, 66472, Control_c, 0, 64, 20
2, 66711, Note_off_c, 0, 35, 47
2, 66713, Note_on_c, 0, 42, 30
2, 66803, Control_c, 0, 64, 96
2, 66958, Note_off_c, 0, 42, 47
2, 66959, Note_on_c, 0, 35, 31
2, 67198, Note_on_c, 0, 51, 22
2, 67199, Note_on_c, 0, 59, 30
2, 67201, Note_on_c, 0, 66, 38
2, 67203, Note_off_c, 0, 35, 47
2, 67204, Note_on_c, 0, 42, 18
2, 67206, Note_on_c, 0, 63, 25
2, 67445, Note_off_c, 0, 42, 44
2, 67446, Note_on_c, 0, 35, 33
2, 67591, Note_off_c, 0, 51, 45
2, 67627, Note_off_c, 0, 63, 46
2, 67671, Note_off_c, 0, 59, 47
2, 67687, Note_off_c, 0, 35, 48
2, 67688, Note_on_c, 0, 42, 34
2, 67742, Note_off_c, 0, 66, 49
2, 67916, Note_on_c, 0, 68, 40
2, 67917, Note_on_c, 0, 63, 20
2, 67923, Note_on_c, 0, 54, 22
2, 67927, Note_on_c, 0, 61, 28
2, 67928, Note_off_c, 0, 42, 48
2, 67928, Note_on_c, 0, 35, 35
2, 68163, Note_off_c, 0, 35, 48
2, 68165, Note_on_c, 0, 42, 36
2, 68253, Note_off_c, 0, 54, 45
2, 68336, Note_off_c, 0, 63, 45
2, 68381, Note_off_c, 0, 61, 47
2, 68401, Note_off_c, 0, 42, 49
2, 68402, Note_on_c, 0, 54, 37
2, 68446, Note_off_c, 0, 68, 50
2, 68615, Note_on_c, 0, 75, 44
2, 68625, Note_on_c, 0, 71, 24
2, 68629, Note_on_c, 0, 59, 30
2, 68634, Note_off_c, 0, 54, 49
2, 68635, Note_on_c, 0, 56, 25
2, 68639, Note_on_c, 0, 66, 32
2, 68641, Note_on_c, 0, 63, 36
2, 68648, Control_c, 0, 64, 20
2, 68866, Note_off_c, 0, 56, 46
2, 68867, Note_on_c, 0, 54, 36
2, 68962, Control_c, 0, 64, 96
2, 69009, Note_off_c, 0, 71, 46
2, 69064, Note_off_c, 0, 63, 49
2, 69089, Note_off_c, 0, 66, 48
2, 69099, Note_off_c, 0, 54, 49
2, 69101, Note_on_c, 0, 47, 35
2, 69134, Note_off_c, 0, 75, 51
2, 69172, Note_off_c, 0, 59, 47
2, 69324, Note_on_c, 0, 68, 41
2, 69328, Note_on_c, 0, 63, 21
2, 69330, Note_on_c, 0, 61, 36
2, 69332, Note_on_c, 0, 54, 30
2, 69555, Note_off_c, 0, 47, 48
2, 69556, Note_on_c, 0, 42, 33
2, 69722, Note_off_c, 0, 63, 45
2, 69760, Note_off_c, 0, 61, 49
2, 69781, Note_off_c, 0, 54, 47
2, 69783, Note_off_c, 0, 42, 48
2, 69785, Note_on_c, 0, 35, 32
2, 69832, Note_off_c, 0, 68, 50
2, 69999, Note_on_c, 0, 63, 25
2, 70006, Note_off_c, 0, 35, 48
2, 70007, Note_on_c, 0, 42, 24
2, 70008, Note_on_c, 0, 59, 22
2, 70009, Note_on_c, 0, 66, 38
2, 70015, Note_on_c, 0, 51, 30
2, 70230, Note_off_c, 0, 42, 46
2, 70231, Note_on_c, 0, 35, 32
2, 70454, Note_off_c, 0, 35, 48
2, 70455, Note_on_c, 0, 42, 30
2, 70498, Note_off_c, 0, 63, 46
2, 70507, Note_off_c, 0, 59, 45
2, 70508, Note_off_c, 0, 66, 49
2, 70515, Note_off_c, 0, 51, 47
2, 70531, Note_off_c, 0, 23, 45
2, 70667, Note_on_c, 0, 59, 36
2, 70674, Note_on_c, 0, 66, 40
2, 70675, Note_off_c, 0, 42, 47
2, 70675, Note_on_c, 0, 54, 30
2, 70676, Note_on_c, 0, 92, 55
2, 70678, Note_on_c, 0, 56, 42
2, 70680, Note_on_c, 0, 87, 35
2, 70681, Note_on_c, 0, 68, 52
2, 70682, Control_c, 0, 64, 20
2, 70688, Note_on_c, 0, 80, 43
2, 70689, Note_on_c, 0, 78, 49
2, 70895, Note_on_c, 0, 23, 30
2, 70980, Control_c, 0, 64, 96
2, 71118, Note_off_c, 0, 23, 47
2, 71119, Note_on_c, 0, 35, 32
2, 71164, Note_off_c, 0, 59, 49
2, 71181, Note_off_c, 0, 66, 50
2, 71332, Note_on_c, 0, 59, 28
2, 71342, Note_off_c, 0, 35, 48
2, 71343, Note_on_c, 0, 42, 31
2, 71344, Note_on_c, 0, 51, 36
2, 71345, Note_on_c, 0, 66, 40
2, 71347, Note_on_c, 0, 63, 20
2, 71568, Note_off_c, 0, 42, 47
2, 71568, Note_on_c, 0, 35, 32
2, 71747, Note_off_c, 0, 68, 53
2, 71794, Note_off_c, 0, 35, 48
2, 71795, Note_on_c, 0, 42, 33
2, 71805, Note_off_c, 0, 54, 47
2, 71848, Note_off_c, 0, 51, 49
2, 71854, Note_off_c, 0, 63, 45
2, 72022, Note_off_c, 0, 42, 48
2, 72022, Note_on_c, 0, 35, 25
2, 72023, Note_on_c, 0, 54, 30
2, 72025, Note_on_c, 0, 63, 40
2, 72030, Note_on_c, 0, 61, 35
2, 72031, Note_on_c, 0, 68, 45
2, 72252, Note_off_c, 0, 35, 46
2, 72254, Note_on_c, 0, 42, 35
2, 72368, Note_off_c, 0, 56, 50
2, 72417, Note_off_c, 0, 54, 47
2, 72483, Note_off_c, 0, 42, 48
2, 72484, Note_on_c, 0, 54, 36
2, 72495, Note_off_c, 0, 66, 50
2, 72508, Note_off_c, 0, 59, 47
2, 72542, Note_off_c, 0, 63, 50
2, 72547, Note_off_c, 0, 61, 48
2, 72707, Note_on_c, 0, 66, 32
2, 72708, Note_on_c, 0, 63, 43
2, 72714, Note_on_c, 0, 71, 40
2, 72717, Note_off_c, 0, 54, 49
2, 72721, Note_on_c, 0, 75, 51
2, 72722, Note_on_c, 0, 59, 38
2, 72723, Note_on_c, 0, 56, 32
2, 72731, Control_c, 0, 64, 20
2, 72953, Note_on_c, 0, 54, 37
2, 73048, Control_c, 0, 64, 96
2, 73076, Note_off_c, 0, 68, 51
2, 73189, Note_off_c, 0, 54, 49
2, 73190, Note_on_c, 0, 47, 36
2, 73235, Note_off_c, 0, 63, 50
2, 73242, Note_off_c, 0, 71, 50
2, 73249, Note_off_c, 0, 75, 52
2, 73418, Note_on_c, 0, 61, 40
2, 73426, Note_on_c, 0, 54, 28
2, 73430, Note_on_c, 0, 63, 35
2, 73436, Note_on_c, 0, 68, 45
2, 73668, Note_off_c, 0, 47, 49
2, 73669, Note_on_c, 0, 42, 34
2, 73909, Note_off_c, 0, 42, 48
2, 73909, Note_on_c, 0, 35, 33
2, 73913, Note_off_c, 0, 66, 48
2, 73926, Note_off_c, 0, 59, 49
2, 73957, Note_off_c, 0, 61, 50
2, 73969, Note_off_c, 0, 63, 48
2, 74146, Note_on_c, 0, 66, 40
2, 74154, Note_off_c, 0, 35, 48
2, 74154, Note_on_c, 0, 59, 36
2, 74155, Note_on_c, 0, 42, 32
2, 74156, Note_on_c, 0, 51, 38
2, 74158, Note_on_c, 0, 63, 20
2, 74190, Note_off_c, 0, 80, 50
2, 74303, Note_off_c, 0, 78, 52
2, 74341, Note_off_c, 0, 87, 48
2, 74382, Note_off_c, 0, 92, 53
2, 74398, Note_off_c, 0, 42, 48
2, 74400, Note_on_c, 0, 35, 31
2, 74436, Note_off_c, 0, 56, 48
2, 74438, Note_off_c, 0, 68, 51
2, 74646, Note_off_c, 0, 35, 47
2, 74647, Note_on_c, 0, 42, 30
2, 74658, Note_off_c, 0, 54, 47
2, 74697, Note_off_c, 0, 66, 50
2, 74704, Note_off_c, 0, 51, 49
2, 74704, Note_off_c, 0, 59, 49
2, 74709, Note_off_c, 0, 63, 45
2, 74889, Note_on_c, 0, 66, 30
2, 74896, Note_off_c, 0, 42, 47
2, 74897, Note_on_c, 0, 54, 30
2, 74898, Note_on_c, 0, 92, 55
2, 74900, Note_on_c, 0, 59, 35
2, 74901, Note_on_c, 0, 68, 50
2, 74903, Note_on_c, 0, 56, 27
2, 74904, Note_on_c, 0, 87, 35
2, 74905, Note_on_c, 0, 80, 43
2, 74910, Control_c, 0, 64, 20
2, 74915, Note_on_c, 0, 78, 49
2, 75122, Note_on_c, 0, 23, 30
2, 75215, Control_c, 0, 64, 96
2, 75349, Note_off_c, 0, 23, 47
2, 75351, Note_on_c, 0, 35, 30
2, 75389, Note_off_c, 0, 59, 48
2, 75408, Note_off_c, 0, 66, 47
2, 75573, Note_on_c, 0, 63, 25
2, 75576, Note_on_c, 0, 66, 40
2, 75578, Note_off_c, 0, 35, 47
2, 75579, Note_on_c, 0, 51, 28
2, 75580, Note_on_c, 0, 42, 31
2, 75582, Note_on_c, 0, 59, 32
2, 75810, Note_off_c, 0, 42, 47
2, 75811, Note_on_c, 0, 35, 32
2, 76042, Note_off_c, 0, 35, 48
2, 76043, Note_on_c, 0, 42, 33
2, 76092, Note_off_c, 0, 63, 46
2, 76097, Note_off_c, 0, 51, 47
2, 76098, Note_off_c, 0, 54, 47
2, 76145, Note_off_c, 0, 68, 52
2, 76276, Note_off_c, 0, 42, 48
2, 76277, Note_on_c, 0, 35, 34
2, 76278, Note_on_c, 0, 54, 40
2, 76280, Note_on_c, 0, 68, 45
2, 76283, Note_on_c, 0, 61, 33
2, 76286, Note_on_c, 0, 63, 25
2, 76512, Note_off_c, 0, 35, 48
2, 76513, Note_on_c, 0, 42, 35
2, 76650, Note_off_c, 0, 54, 50
2, 76738, Note_off_c, 0, 59, 48
2, 76748, Note_off_c, 0, 42, 48
2, 76749, Note_on_c, 0, 54, 36
2, 76813, Note_off_c, 0, 56, 46
2, 76813, Note_off_c, 0, 61, 48
2, 76816, Note_off_c, 0, 63, 46
2, 76825, Note_off_c, 0, 66, 50
2, 76989, Note_on_c, 0, 59, 38
2, 76989, Note_on_c, 0, 63, 36
2, 76995, Note_on_c, 0, 71, 31
2, 76996, Note_on_c, 0, 56, 32
2, 76997, Note_on_c, 0, 75, 51
2, 76998, Note_on_c, 0, 66, 40
2, 77011, Control_c, 0, 64, 20
2, 77143, Note_off_c, 0, 54, 49
2, 77229, Note_on_c, 0, 54, 37
2, 77335, Control_c, 0, 64, 96
2, 77472, Note_on_c, 0, 47, 36
2, 77493, Note_off_c, 0, 59, 49
2, 77530, Note_off_c, 0, 63, 49
2, 77537, Note_off_c, 0, 71, 47
2, 77538, Note_off_c, 0, 75, 52
2, 77539, Note_off_c, 0, 66, 50
2, 77710, Note_on_c, 0, 66, 40
2, 77717, Note_on_c, 0, 51, 28
2, 77720, Note_on_c, 0, 63, 25
2, 77722, Note_on_c, 0, 59, 36
2, 77964, Note_off_c, 0, 47, 49
2, 77965, Note_on_c, 0, 42, 34
2, 78154, Note_off_c, 0, 54, 49
2, 78159, Note_off_c, 0, 68, 51
2, 78211, Note_off_c, 0, 42, 48
2, 78212, Note_on_c, 0, 35, 33
2, 78271, Note_off_c, 0, 51, 47
2, 78273, Note_off_c, 0, 63, 46
2, 78455, Note_on_c, 0, 61, 33
2, 78457, Note_on_c, 0, 63, 25
2, 78463, Note_off_c, 0, 35, 48
2, 78464, Note_on_c, 0, 42, 32
2, 78465, Note_on_c, 0, 54, 36
2, 78466, Note_on_c, 0, 68, 45
2, 78715, Note_off_c, 0, 42, 48
2, 78716, Note_on_c, 0, 35, 31
2, 78799, Note_off_c, 0, 87, 48
2, 78968, Note_off_c, 0, 35, 47
2, 78968, Note_on_c, 0, 42, 30
2, 78997, Note_off_c, 0, 66, 50
2, 79011, Note_off_c, 0, 56, 48
2, 79019, Note_off_c, 0, 61, 48
2, 79022, Note_off_c, 0, 63, 46
2, 79029, Note_off_c, 0, 68, 51
2, 79032, Note_off_c, 0, 54, 49
2, 79057, Note_off_c, 0, 59, 49
2, 79058, Note_off_c, 0, 92, 53
2, 79066, Note_off_c, 0, 80, 50
2, 79079, Note_off_c, 0, 78, 52
2, 79220, Note_on_c, 0, 75, 43
2, 79224, Note_off_c, 0, 42, 47
2, 79225, Note_on_c, 0, 27, 30
2, 79226, Note_on_c, 0, 87, 55
2, 79232, Note_on_c, 0, 82, 35
2, 79244, Control_c, 0, 64, 20
2, 79477, Note_on_c, 0, 39, 31
2, 79583, Control_c, 0, 64, 96
2, 79727, Note_off_c, 0, 39, 47
2, 79727, Note_on_c, 0, 46, 33
2, 79963, Note_on_c, 0, 67, 28
2, 79971, Note_on_c, 0, 70, 48
2, 79973, Note_on_c, 0, 65, 36
2, 79980, Note_on_c, 0, 58, 40
2, 80159, Note_off_c, 0, 46, 48
2, 80217, Note_on_c, 0, 46, 37
2, 80380, Note_off_c, 0, 67, 47
2, 80443, Note_off_c, 0, 58, 50
2, 80457, Note_off_c, 0, 46, 49
2, 80457, Note_on_c, 0, 51, 39
2, 80464, Note_off_c, 0, 65, 49
2, 80466, Note_off_c, 0, 70, 52
2, 80686, Note_on_c, 0, 72, 53
2, 80693, Note_on_c, 0, 63, 48
2, 80696, Note_on_c, 0, 60, 36
2, 80697, Note_on_c, 0, 67, 42
2, 80842, Note_off_c, 0, 51, 49
2, 80926, Note_on_c, 0, 51, 43
2, 81078, Note_off_c, 0, 63, 52
2, 81113, Note_off_c, 0, 72, 53
2, 81127, Note_off_c, 0, 60, 49
2, 81142, Note_off_c, 0, 67, 50
2, 81154, Note_off_c, 0, 51, 50
2, 81156, Note_on_c, 0, 58, 45
2, 81383, Note_off_c, 0, 58, 51
2, 81383, Note_on_c, 0, 62, 48
2, 81384, Note_on_c, 0, 67, 48
2, 81385, Note_on_c, 0, 65, 55
2, 81386, Note_on_c, 0, 77, 60
2, 81387, Note_on_c, 0, 70, 40
2, 81387, Control_c, 0, 64, 20
2, 81552, Note_off_c, 0, 62, 52
2, 81554, Note_on_c, 0, 60, 46
2, 81692, Control_c, 0, 64, 96
2, 81724, Note_off_c, 0, 60, 51
2, 81725, Note_on_c, 0, 58, 45
2, 81758, Note_off_c, 0, 65, 53
2, 81816, Note_off_c, 0, 70, 50
2, 81823, Note_off_c, 0, 77, 55
2, 81859, Note_off_c, 0, 67, 52
2, 82008, Note_off_c, 0, 58, 51
2, 82074, Note_on_c, 0, 58, 30
2, 82075, Note_on_c, 0, 65, 42
2, 82076, Note_on_c, 0, 70, 48
2, 82080, Note_on_c, 0, 67, 36
2, 82311, Note_on_c, 0, 46, 40
2, 82452, Note_off_c, 0, 27, 47
2, 82472, Note_off_c, 0, 67, 49
2, 82475, Note_off_c, 0, 70, 52
2, 82493, Note_off_c, 0, 65, 50
2, 82552, Note_off_c, 0, 46, 50
2, 82553, Note_on_c, 0, 39, 38
2, 82557, Note_off_c, 0, 58, 47
2, 82790, Note_on_c, 0, 72, 56
2, 82797, Note_on_c, 0, 63, 50
2, 82800, Note_on_c, 0, 67, 44
2, 82806, Note_on_c, 0, 60, 40
2, 83049, Note_off_c, 0, 39, 49
2, 83050, Note_on_c, 0, 34, 34
2, 83245, Note_off_c, 0, 63, 52
2, 83262, Note_off_c, 0, 72, 54
2, 83285, Note_off_c, 0, 60, 50
2, 83302, Note_off_c, 0, 34, 48
2, 83303, Note_on_c, 0, 27, 52
2, 83311, Note_off_c, 0, 67, 51
2, 83388, Note_off_c, 0, 75, 50
2, 83393, Note_off_c, 0, 87, 53
2, 83402, Note_off_c, 0, 82, 48
2, 83549, Note_on_c, 0, 70, 40
2, 83552, Note_on_c, 0, 65, 42
2, 83553, Note_on_c, 0, 67, 46
2, 83554, Note_on_c, 0, 55, 32
2, 83555, Note_on_c, 0, 79, 52
2, 83568, Note_on_c, 0, 75, 32
2, 83569, Note_on_c, 0, 58, 36
2, 83574, Control_c, 0, 64, 20
2, 83685, Note_off_c, 0, 65, 50
2, 83692, Note_on_c, 0, 63, 53
2, 83825, Note_off_c, 0, 63, 53
2, 83826, Note_on_c, 0, 62, 53
2, 83930, Control_c, 0, 64, 96
2, 83956, Note_off_c, 0, 62, 53
2, 83963, Note_on_c, 0, 60, 54
2, 84069, Note_off_c, 0, 70, 50
2, 84079, Note_off_c, 0, 67, 51
2, 84082, Note_off_c, 0, 79, 53
2, 84087, Note_off_c, 0, 75, 48
2, 84248, Note_off_c, 0, 58, 49
2, 84344, Note_on_c, 0, 67, 35
2, 84347, Note_off_c, 0, 55, 48
2, 84358, Note_on_c, 0, 65, 43
2, 84359, Note_off_c, 0, 60, 53
2, 84360, Note_on_c, 0, 58, 49
2, 84361, Note_on_c, 0, 70, 55
2, 84610, Note_on_c, 0, 51, 56
2, 84792, Note_off_c, 0, 58, 52
2, 84824, Note_off_c, 0, 65, 50
2, 84848, Note_off_c, 0, 67, 48
2, 84864, Note_on_c, 0, 46, 57
2, 84870, Note_off_c, 0, 51, 54
2, 84912, Note_off_c, 0, 70, 53
2, 85122, Note_on_c, 0, 63, 46
2, 85123, Note_on_c, 0, 60, 52
2, 85125, Note_on_c, 0, 67, 38
2, 85133, Note_on_c, 0, 72, 58
2, 85381, Note_off_c, 0, 46, 54
2, 85395, Note_on_c, 0, 39, 59
2, 85515, Note_off_c, 0, 27, 53
2, 85559, Note_off_c, 0, 60, 53
2, 85581, Note_off_c, 0, 67, 49
2, 85616, Note_off_c, 0, 72, 54
2, 85640, Note_on_c, 0, 34, 59
2, 85650, Note_off_c, 0, 39, 54
2, 85658, Note_off_c, 0, 63, 51
2, 85880, Note_on_c, 0, 27, 60
2, 85887, Note_on_c, 0, 62, 50
2, 85895, Note_off_c, 0, 34, 54
2, 85896, Control_c, 0, 64, 20
2, 85897, Note_on_c, 0, 51, 40
2, 85898, Note_on_c, 0, 55, 45
2, 85899, Note_on_c, 0, 67, 48
2, 85900, Note_on_c, 0, 70, 40
2, 85903, Note_on_c, 0, 65, 54
2, 85905, Note_on_c, 0, 77, 60
2, 85976, Note_off_c, 0, 27, 55
2, 86078, Note_off_c, 0, 62, 52
2, 86085, Note_on_c, 0, 60, 61
2, 86235, Control_c, 0, 64, 96
2, 86273, Note_off_c, 0, 60, 55
2, 86280, Note_on_c, 0, 58, 62
2, 86363, Note_off_c, 0, 67, 52
2, 86400, Note_off_c, 0, 70, 50
2, 86417, Note_off_c, 0, 77, 55
2, 86422, Note_off_c, 0, 65, 53
2, 86536, Note_off_c, 0, 58, 55
2, 86648, Note_off_c, 0, 51, 50
2, 86651, Note_off_c, 0, 55, 51
2, 86652, Note_on_c, 0, 58, 45
2, 86654, Note_on_c, 0, 65, 48
2, 86655, Note_on_c, 0, 67, 52
2, 86657, Note_on_c, 0, 70, 63
2, 86905, Note_on_c, 0, 46, 64
2, 87104, Note_off_c, 0, 65, 52
2, 87113, Note_off_c, 0, 58, 51
2, 87139, Note_on_c, 0, 39, 65
2, 87146, Note_off_c, 0, 70, 55
2, 87151, Note_off_c, 0, 46, 56
2, 87158, Note_off_c, 0, 67, 53
2, 87380, Note_on_c, 0, 72, 66
2, 87387, Note_on_c, 0, 67, 46
2, 87389, Note_on_c, 0, 63, 54
2, 87390, Note_on_c, 0, 60, 60
2, 87627, Note_off_c, 0, 39, 56
2, 87639, Note_on_c, 0, 34, 67
2, 87816, Note_off_c, 0, 60, 55
2, 87864, Note_off_c, 0, 63, 53
2, 87873, Note_off_c, 0, 72, 56
2, 87878, Note_on_c, 0, 27, 67
2, 87883, Note_off_c, 0, 34, 57
2, 87929, Note_off_c, 0, 67, 51
2, 88108, Note_on_c, 0, 70, 48
2, 88113, Note_on_c, 0, 55, 48
2, 88118, Note_off_c, 0, 27, 57
2, 88119, Note_on_c, 0, 58, 56
2, 88119, Note_on_c, 0, 79, 68
2, 88120, Note_on_c, 0, 53, 43
2, 88124, Note_on_c, 0, 65, 62
2, 88125, Note_on_c, 0, 67, 56
2, 88138, Control_c, 0, 64, 20
2, 88293, Note_on_c, 0, 51, 62
2, 88300, Note_off_c, 0, 53, 50
2, 88301, Note_on_c, 0, 63, 69
2, 88303, Note_off_c, 0, 65, 55
2, 88461, Control_c, 0, 64, 96
2, 88468, Note_on_c, 0, 50, 64
2, 88473, Note_off_c, 0, 51, 55
2, 88478, Note_on_c, 0, 62, 70
2, 88480, Note_off_c, 0, 63, 57
2, 88580, Note_off_c, 0, 70, 52
2, 88595, Note_off_c, 0, 79, 57
2, 88595, Note_off_c, 0, 58, 54
2, 88602, Note_off_c, 0, 67, 54
2, 88648, Note_off_c, 0, 50, 56
2, 88657, Note_on_c, 0, 48, 58
2, 88660, Note_off_c, 0, 62, 57
2, 88661, Note_on_c, 0, 60, 70
2, 88830, Note_off_c, 0, 55, 52
2, 88835, Note_off_c, 0, 48, 54
2, 88835, Note_on_c, 0, 67, 51
2, 88836, Note_on_c, 0, 58, 62
2, 88838, Note_off_c, 0, 60, 57
2, 88839, Note_on_c, 0, 70, 71
2, 88841, Note_on_c, 0, 65, 59
2, 89018, Note_off_c, 0, 58, 55
2, 89059, Note_on_c, 0, 46, 68
2, 89068, Note_on_c, 0, 58, 72
2, 89262, Note_off_c, 0, 65, 54
2, 89289, Note_off_c, 0, 67, 52
2, 89294, Note_off_c, 0, 46, 57
2, 89302, Note_off_c, 0, 58, 58
2, 89303, Note_on_c, 0, 51, 73
2, 89306, Note_on_c, 0, 39, 68
2, 89309, Control_c, 0, 64, 20
2, 89337, Note_off_c, 0, 70, 58
2, 89537, Note_on_c, 0, 63, 62
2, 89539, Note_on_c, 0, 72, 74
2, 89544, Note_on_c, 0, 60, 67
2, 89547, Note_on_c, 0, 67, 54
2, 89626, Control_c, 0, 64, 96
2, 89771, Note_off_c, 0, 51, 58
2, 89773, Note_off_c, 0, 39, 57
2, 89774, Note_on_c, 0, 46, 75
2, 89776, Note_on_c, 0, 34, 66
2, 89940, Note_off_c, 0, 60, 57
2, 89958, Note_off_c, 0, 67, 53
2, 89976, Note_off_c, 0, 72, 59
2, 90001, Note_on_c, 0, 39, 75
2, 90004, Note_off_c, 0, 46, 59
2, 90005, Note_on_c, 0, 27, 63
2, 90006, Note_off_c, 0, 34, 56
2, 90022, Note_off_c, 0, 63, 55
2, 90222, Note_on_c, 0, 70, 66
2, 90226, Note_on_c, 0, 65, 70
2, 90229, Note_on_c, 0, 58, 64
2, 90231, Note_off_c, 0, 39, 59
2, 90232, Note_on_c, 0, 79, 76
2, 90236, Note_off_c, 0, 27, 55
2, 90238, Note_on_c, 0, 55, 58
2, 90239, Note_on_c, 0, 53, 55
2, 90239, Control_c, 0, 64, 20
2, 90240, Note_on_c, 0, 67, 68
2, 90397, Note_on_c, 0, 51, 70
2, 90399, Note_off_c, 0, 65, 57
2, 90401, Note_on_c, 0, 63, 77
2, 90410, Note_off_c, 0, 53, 53
2, 90545, Control_c, 0, 64, 96
2, 90567, Note_off_c, 0, 51, 57
2, 90571, Note_off_c, 0, 63, 59
2, 90575, Note_on_c, 0, 50, 68
2, 90577, Note_on_c, 0, 62, 78
2, 90660, Note_off_c, 0, 67, 57
2, 90677, Note_off_c, 0, 70, 56
2, 90684, Note_off_c, 0, 58, 56
2, 90695, Note_off_c, 0, 79, 59
2, 90734, Note_on_c, 0, 60, 78
2, 90736, Note_on_c, 0, 48, 69
2, 90744, Note_off_c, 0, 50, 57
2, 90746, Note_off_c, 0, 62, 59
2, 90904, Note_off_c, 0, 60, 59
2, 90905, Note_off_c, 0, 48, 57
2, 90905, Note_on_c, 0, 70, 79
2, 90911, Note_on_c, 0, 58, 62
2, 90915, Note_on_c, 0, 67, 68
2, 90918, Note_off_c, 0, 55, 54
2, 90920, Note_on_c, 0, 65, 70
2, 91094, Note_off_c, 0, 58, 55
2, 91136, Note_on_c, 0, 46, 64
2, 91140, Note_on_c, 0, 58, 70
2, 91332, Note_off_c, 0, 65, 57
2, 91348, Note_off_c, 0, 70, 60
2, 91355, Control_c, 0, 64, 20
2, 91360, Note_on_c, 0, 51, 81
2, 91362, Note_off_c, 0, 46, 56
2, 91363, Note_on_c, 0, 39, 75
2, 91367, Note_off_c, 0, 58, 57
2, 91375, Note_off_c, 0, 67, 57
2, 91578, Note_on_c, 0, 67, 62
2, 91579, Note_on_c, 0, 63, 70
2, 91581, Note_on_c, 0, 60, 76
2, 91583, Note_on_c, 0, 72, 82
2, 91654, Control_c, 0, 64, 96
2, 91798, Note_on_c, 0, 34, 71
2, 91804, Note_off_c, 0, 51, 60
2, 91806, Note_off_c, 0, 39, 59
2, 91807, Note_on_c, 0, 46, 83
2, 91966, Note_off_c, 0, 60, 59
2, 92010, Note_off_c, 0, 63, 57
2, 92020, Note_off_c, 0, 34, 58
2, 92023, Note_on_c, 0, 27, 70
2, 92030, Note_off_c, 0, 46, 60
2, 92032, Note_off_c, 0, 72, 60
2, 92033, Note_on_c, 0, 39, 82
2, 92071, Note_off_c, 0, 67, 55
2, 92244, Note_off_c, 0, 27, 57
2, 92248, Note_on_c, 0, 31, 56
2, 92249, Note_on_c, 0, 91, 79
2, 92252, Note_off_c, 0, 39, 60
2, 92258, Note_on_c, 0, 86, 59
2, 92263, Note_on_c, 0, 43, 73
2, 92265, Note_on_c, 0, 38, 63
2, 92268, Note_on_c, 0, 79, 67
2, 92269, Control_c, 0, 64, 20
2, 92562, Control_c, 0, 64, 96
2, 93387, Note_off_c, 0, 79, 56
2, 93532, Note_on_c, 0, 62, 77
2, 93535, Note_on_c, 0, 74, 69
2, 93541, Note_on_c, 0, 79, 89
2, 93542, Note_on_c, 0, 60, 71
2, 93543, Note_on_c, 0, 67, 81
2, 93544, Note_on_c, 0, 55, 79
2, 93544, Note_on_c, 0, 72, 77
2, 93553, Control_c, 0, 64, 20
2, 93836, Control_c, 0, 64, 96
2, 94784, Note_on_c, 0, 81, 93
2, 94786, Note_off_c, 0, 67, 59
2, 94789, Note_off_c, 0, 55, 59
2, 94797, Control_c, 0, 64, 20
2, 94798, Note_on_c, 0, 57, 74
2, 94799, Note_on_c, 0, 69, 81
2, 95070, Control_c, 0, 64, 96
2, 95697, Note_off_c, 0, 69, 59
2, 95787, Note_off_c, 0, 79, 61
2, 95808, Note_off_c, 0, 81, 62
2, 95815, Note_off_c, 0, 57, 58
2, 95848, Note_off_c, 0, 62, 59
2, 95851, Note_off_c, 0, 74, 56
2, 95854, Note_off_c, 0, 31, 53
2, 95855, Note_off_c, 0, 91, 59
2, 95858, Note_off_c, 0, 60, 57
2, 95859, Note_off_c, 0, 72, 59
2, 95864, Note_off_c, 0, 86, 54
2, 95868, Note_off_c, 0, 43, 57
2, 95869, Note_off_c, 0, 38, 55
2, 95983, Note_on_c, 0, 86, 83
2, 95988, Note_on_c, 0, 84, 63
2, 95990, Note_on_c, 0, 62, 51
2, 95995, Note_on_c, 0, 79, 71
2, 95998, Note_on_c, 0, 67, 65
2, 96000, Note_on_c, 0, 74, 77
2, 96000, Note_on_c, 0, 65, 59
2, 96002, Control_c, 0, 64, 20
2, 96004, Note_on_c, 0, 69, 57
2, 96005, Note_on_c, 0, 72, 71
2, 96264, Control_c, 0, 64, 96
2, 96847, Note_off_c, 0, 67, 55
2, 96885, Note_off_c, 0, 65, 54
2, 96906, Note_off_c, 0, 62, 52
2, 97140, Note_on_c, 0, 65, 65
2, 97141, Note_on_c, 0, 67, 85
2, 97142, Note_on_c, 0, 60, 59
2, 97144, Note_on_c, 0, 62, 57
2, 97152, Control_c, 0, 64, 20
2, 97153, Note_on_c, 0, 55, 73
2, 97156, Note_off_c, 0, 69, 53
2, 97158, Note_off_c, 0, 72, 57
2, 97405, Control_c, 0, 64, 96
2, 97583, Note_off_c, 0, 86, 60
2, 97703, Note_on_c, 0, 98, 89
2, 97715, Note_on_c, 0, 86, 77
2, 98037, Note_off_c, 0, 55, 57
2, 98121, Note_off_c, 0, 67, 60
2, 98155, Note_off_c, 0, 84, 55
2, 98183, Note_off_c, 0, 86, 59
2, 98275, Note_off_c, 0, 98, 61
2, 98276, Note_on_c, 0, 89, 57
2, 98277, Note_on_c, 0, 69, 65
2, 98279, Note_on_c, 0, 93, 65
2, 98280, Note_on_c, 0, 96, 85
2, 98287, Control_c, 0, 64, 20
2, 98288, Note_on_c, 0, 57, 53
2, 98289, Note_on_c, 0, 84, 73
2, 98548, Control_c, 0, 64, 96
2, 98826, Note_off_c, 0, 84, 57
2, 98864, Note_off_c, 0, 96, 60
2, 98865, Note_on_c, 0, 95, 81
2, 98877, Note_on_c, 0, 83, 69
2, 98970, Note_off_c, 0, 60, 54
2, 99071, Note_off_c, 0, 65, 55
2, 99083, Note_off_c, 0, 57, 52
2, 99106, Note_off_c, 0, 79, 57
2, 99150, Note_off_c, 0, 74, 59
2, 99153, Note_off_c, 0, 93, 55
2, 99270, Note_off_c, 0, 62, 53
2, 99274, Note_off_c, 0, 69, 55
2, 99293, Note_off_c, 0, 89, 53
2, 99450, Note_off_c, 0, 83, 56
2, 99471, Note_on_c, 0, 72, 69
2, 99472, Note_on_c, 0, 74, 71
2, 99473, Note_on_c, 0, 65, 57
2, 99474, Note_on_c, 0, 69, 63
2, 99475, Note_on_c, 0, 62, 51
2, 99477, Note_off_c, 0, 95, 59
2, 99478, Note_on_c, 0, 93, 77
2, 99479, Note_on_c, 0, 67, 64
2, 99487, Control_c, 0, 64, 20
2, 99488, Note_on_c, 0, 86, 52
2, 99489, Note_on_c, 0, 89, 55
2, 99491, Note_on_c, 0, 81, 65
2, 99742, Control_c, 0, 64, 96
2, 100015, Note_off_c, 0, 81, 55
2, 100041, Note_off_c, 0, 93, 59
2, 100041, Note_on_c, 0, 95, 89
2, 100052, Note_on_c, 0, 83, 78
2, 100234, Note_off_c, 0, 65, 53
2, 100253, Note_off_c, 0, 67, 55
2, 100292, Note_off_c, 0, 69, 55
2, 100299, Note_off_c, 0, 62, 52
2, 100341, Note_off_c, 0, 72, 56
2, 100343, Note_off_c, 0, 74, 57
2, 100526, Note_off_c, 0, 83, 59
2, 100617, Note_off_c, 0, 95, 61
2, 100619, Note_on_c, 0, 55, 63
2, 100620, Note_on_c, 0, 60, 69
2, 100620, Note_on_c, 0, 62, 73
2, 100620, Note_on_c, 0, 65, 71
2, 100621, Note_on_c, 0, 67, 80
2, 100622, Note_on_c, 0, 93, 86
2, 100623, Control_c, 0, 64, 20
2, 100629, Note_on_c, 0, 81, 74
2, 100884, Control_c, 0, 64, 96
2, 101132, Note_off_c, 0, 81, 58
2, 101201, Note_off_c, 0, 93, 60
2, 101202, Note_on_c, 0, 91, 84
2, 101213, Note_on_c, 0, 79, 73
2, 101377, Note_off_c, 0, 89, 53
2, 101556, Note_off_c, 0, 55, 55
2, 101608, Note_off_c, 0, 67, 59
2, 101666, Note_off_c, 0, 86, 52
2, 101710, Note_off_c, 0, 79, 57
2, 101797, Note_off_c, 0, 91, 60
2, 101798, Note_on_c, 0, 57, 63
2, 101800, Note_on_c, 0, 69, 73
2, 101800, Note_on_c, 0, 89, 81
2, 101804, Control_c, 0, 64, 20
2, 101808, Note_on_c, 0, 77, 69
2, 102073, Control_c, 0, 64, 96
2, 102330, Note_off_c, 0, 77, 56
2, 102403, Note_off_c, 0, 89, 59
2, 102404, Note_on_c, 0, 88, 79
2, 102416, Note_on_c, 0, 76, 67
2, 102533, Note_off_c, 0, 65, 57
2, 102616, Note_off_c, 0, 62, 57
2, 102758, Note_off_c, 0, 69, 57
2, 102806, Note_off_c, 0, 60, 56
2, 102864, Note_off_c, 0, 57, 55
2, 102970, Note_off_c, 0, 76, 56
2, 103019, Note_off_c, 0, 88, 59
2, 103019, Note_on_c, 0, 86, 77
2, 103023, Note_on_c, 0, 74, 65
2, 103025, Note_on_c, 0, 65, 51
2, 103026, Note_on_c, 0, 81, 57
2, 103027, Note_on_c, 0, 72, 73
2, 103031, Control_c, 0, 64, 20
2, 103034, Note_on_c, 0, 67, 63
2, 103036, Note_on_c, 0, 69, 68
2, 103038, Note_on_c, 0, 62, 46
2, 103284, Control_c, 0, 64, 96
2, 103882, Note_off_c, 0, 65, 52
2, 103936, Note_off_c, 0, 67, 55
2, 103937, Note_off_c, 0, 62, 50
2, 103941, Note_off_c, 0, 81, 53
2, 104013, Note_off_c, 0, 86, 59
2, 104017, Note_off_c, 0, 72, 57
2, 104034, Note_off_c, 0, 74, 55
2, 104045, Note_off_c, 0, 69, 56
2, 104158, Note_on_c, 0, 67, 92
2, 104163, Control_c, 0, 64, 20
2, 104166, Note_on_c, 0, 55, 80
2, 104168, Note_on_c, 0, 62, 72
2, 104171, Note_on_c, 0, 65, 62
2, 104174, Note_on_c, 0, 57, 86
2, 104422, Control_c, 0, 64, 96
2, 104740, Note_on_c, 0, 50, 89
2, 104751, Note_on_c, 0, 38, 77
2, 105079, Note_off_c, 0, 67, 61
2, 105130, Note_off_c, 0, 57, 60
2, 105160, Note_off_c, 0, 55, 59
2, 105222, Note_off_c, 0, 38, 58
2, 105329, Note_off_c, 0, 50, 60
2, 105329, Note_on_c, 0, 48, 82
2, 105331, Note_on_c, 0, 69, 86
2, 105335, Control_c, 0, 64, 20
2, 105342, Note_on_c, 0, 36, 75
2, 105343, Note_on_c, 0, 57, 76
2, 105603, Control_c, 0, 64, 96
2, 105873, Note_off_c, 0, 36, 57
2, 105874, Note_off_c, 0, 62, 56
2, 105926, Note_off_c, 0, 48, 59
2, 105928, Note_on_c, 0, 47, 83
2, 105940, Note_on_c, 0, 35, 71
2, 106066, Note_off_c, 0, 65, 54
2, 106350, Note_off_c, 0, 69, 60
2, 106437, Note_off_c, 0, 35, 56
2, 106471, Note_off_c, 0, 57, 57
2, 106535, Note_off_c, 0, 47, 59
2, 106536, Note_on_c, 0, 74, 80
2, 106537, Note_on_c, 0, 45, 80
2, 106544, Note_on_c, 0, 60, 60
2, 106547, Note_on_c, 0, 33, 68
2, 106549, Note_on_c, 0, 62, 64
2, 106552, Note_on_c, 0, 69, 60
2, 106553, Note_on_c, 0, 65, 74
2, 106554, Note_on_c, 0, 67, 68
2, 106555, Control_c, 0, 64, 20
2, 106831, Control_c, 0, 64, 96
2, 107069, Note_off_c, 0, 33, 55
2, 107153, Note_off_c, 0, 45, 59
2, 107154, Note_on_c, 0, 47, 92
2, 107164, Note_on_c, 0, 35, 80
2, 107340, Note_off_c, 0, 60, 53
2, 107341, Note_off_c, 0, 62, 54
2, 107393, Note_off_c, 0, 67, 55
2, 107398, Note_off_c, 0, 65, 57
2, 107531, Note_off_c, 0, 74, 59
2, 107542, Note_off_c, 0, 69, 53
2, 107617, Note_off_c, 0, 35, 59
2, 107718, Note_off_c, 0, 47, 61
2, 107719, Note_on_c, 0, 45, 72
2, 107720, Note_on_c, 0, 67, 89
2, 107723, Note_on_c, 0, 57, 77
2, 107724, Note_on_c, 0, 62, 66
2, 107729, Note_on_c, 0, 60, 60
2, 107731, Control_c, 0, 64, 20
2, 107732, Note_on_c, 0, 65, 69
2, 107733, Note_on_c, 0, 33, 76
2, 107735, Note_on_c, 0, 55, 74
2, 107989, Control_c, 0, 64, 96
2, 108221, Note_off_c, 0, 33, 57
2, 108294, Note_off_c, 0, 45, 56
2, 108295, Note_on_c, 0, 43, 87
2, 108305, Note_on_c, 0, 31, 76
2, 108632, Note_off_c, 0, 67, 60
2, 108663, Note_off_c, 0, 57, 58
2, 108719, Note_off_c, 0, 55, 57
2, 108780, Note_off_c, 0, 31, 57
2, 108881, Note_off_c, 0, 43, 60
2, 108882, Note_on_c, 0, 41, 81
2, 108882, Note_on_c, 0, 69, 84
2, 108893, Control_c, 0, 64, 20
2, 108894, Note_on_c, 0, 29, 76
2, 108895, Note_on_c, 0, 57, 72
2, 109159, Control_c, 0, 64, 96
2, 109363, Note_off_c, 0, 29, 57
2, 109476, Note_off_c, 0, 41, 59
2, 109477, Note_on_c, 0, 40, 82
2, 109488, Note_on_c, 0, 28, 70
2, 109613, Note_off_c, 0, 65, 55
2, 109621, Note_off_c, 0, 62, 55
2, 109688, Note_off_c, 0, 60, 53
2, 109898, Note_off_c, 0, 69, 59
2, 109971, Note_off_c, 0, 28, 56
2, 110021, Note_off_c, 0, 57, 56
2, 110084, Note_off_c, 0, 40, 59
2, 110084, Note_on_c, 0, 38, 80
2, 110085, Note_on_c, 0, 74, 86
2, 110088, Note_on_c, 0, 69, 66
2, 110090, Note_on_c, 0, 65, 80
2, 110093, Note_on_c, 0, 60, 75
2, 110095, Note_on_c, 0, 67, 74
2, 110096, Note_on_c, 0, 26, 78
2, 110096, Note_on_c, 0, 62, 82
2, 110102, Control_c, 0, 64, 20
2, 110378, Control_c, 0, 64, 96
2, 110538, Note_off_c, 0, 26, 58
2, 110571, Note_off_c, 0, 38, 59
2, 110702, Note_on_c, 0, 48, 95
2, 110713, Note_on_c, 0, 36, 84
2, 111030, Note_off_c, 0, 67, 57
2, 111080, Note_off_c, 0, 62, 59
2, 111106, Note_off_c, 0, 36, 60
2, 111125, Note_off_c, 0, 60, 57
2, 111129, Note_off_c, 0, 65, 59
2, 111146, Note_off_c, 0, 69, 55
2, 111190, Note_off_c, 0, 48, 62
2, 111267, Note_off_c, 0, 74, 60
2, 111268, Note_on_c, 0, 45, 92
2, 111280, Control_c, 0, 64, 20
2, 111281, Note_on_c, 0, 33, 80
2, 111538, Control_c, 0, 64, 96
2, 111627, Note_off_c, 0, 33, 59
2, 111765, Note_off_c, 0, 45, 62
2, 111847, Note_on_c, 0, 43, 89
2, 111858, Note_on_c, 0, 31, 81
2, 112256, Note_off_c, 0, 31, 59
2, 112275, Note_off_c, 0, 43, 61
2, 112424, Note_on_c, 0, 43, 99
2, 112437, Note_on_c, 0, 41, 86
2, 112450, Note_on_c, 0, 29, 77
2, 112450, Control_c, 0, 64, 20
2, 112716, Control_c, 0, 64, 96
2, 113016, Note_off_c, 0, 29, 59
2, 113040, Note_off_c, 0, 41, 60
2, 113041, Note_on_c, 0, 38, 83
2, 113051, Note_on_c, 0, 26, 74
2, 113596, Note_off_c, 0, 26, 58
2, 113641, Note_off_c, 0, 43, 63
2, 113654, Control_c, 0, 64, 20
2, 113655, Note_off_c, 0, 38, 60
2, 113656, Note_on_c, 0, 24, 98
2, 113933, Control_c, 0, 64, 96
2, 114892, Note_on_c, 0, 52, 67
2, 114897, Note_on_c, 0, 43, 65
2, 114899, Note_on_c, 0, 72, 79
2, 114900, Note_on_c, 0, 48, 61
2, 114901, Note_on_c, 0, 60, 73
2, 114904, Note_on_c, 0, 67, 59
2, 114906, Note_on_c, 0, 64, 67
2, 114908, Note_on_c, 0, 55, 77
2, 114922, Control_c, 0, 64, 20
2, 115198, Control_c, 0, 64, 96
2, 115381, Note_off_c, 0, 64, 57
2, 115433, Note_off_c, 0, 43, 56
2, 115436, Note_off_c, 0, 67, 54
2, 115441, Note_off_c, 0, 48, 55
2, 115468, Note_off_c, 0, 55, 59
2, 115513, Note_off_c, 0, 60, 58
2, 115522, Note_off_c, 0, 72, 60
2, 115561, Note_off_c, 0, 52, 57
2, 116107, Note_on_c, 0, 69, 65
2, 116108, Note_on_c, 0, 62, 79
2, 116111, Note_on_c, 0, 50, 63
2, 116112, Note_on_c, 0, 57, 77
2, 116116, Note_on_c, 0, 74, 85
2, 116120, Note_on_c, 0, 45, 71
2, 116122, Note_on_c, 0, 53, 67
2, 116125, Note_on_c, 0, 65, 73
2, 116135, Control_c, 0, 64, 20
2, 116398, Control_c, 0, 64, 96
2, 116511, Note_off_c, 0, 45, 58
2, 116595, Note_off_c, 0, 62, 60
2, 116630, Note_off_c, 0, 74, 61
2, 116654, Note_off_c, 0, 69, 56
2, 116672, Note_off_c, 0, 53, 57
2, 116672, Note_off_c, 0, 65, 58
2, 116700, Note_off_c, 0, 57, 59
2, 116704, Note_off_c, 0, 50, 55
2, 117273, Note_on_c, 0, 50, 69
2, 117276, Note_on_c, 0, 59, 75
2, 117278, Note_on_c, 0, 71, 79
2, 117282, Note_on_c, 0, 55, 61
2, 117283, Note_on_c, 0, 67, 85
2, 117284, Note_on_c, 0, 79, 91
2, 117289, Note_on_c, 0, 62, 87
2, 117290, Note_on_c, 0, 74, 71
2, 117294, Control_c, 0, 64, 20
2, 117547, Control_c, 0, 64, 96
2, 118034, Note_off_c, 0, 79, 62
2, 118111, Note_off_c, 0, 62, 61
2, 118112, Note_off_c, 0, 74, 58
2, 118113, Note_off_c, 0, 59, 59
2, 118117, Note_off_c, 0, 67, 61
2, 118134, Note_off_c, 0, 55, 55
2, 118246, Note_off_c, 0, 50, 57
2, 118282, Note_off_c, 0, 71, 60
2, 118940, Note_on_c, 0, 60, 77
2, 118942, Note_on_c, 0, 72, 65
2, 118942, Note_on_c, 0, 53, 63
2, 118943, Note_on_c, 0, 69, 73
2, 118944, Note_on_c, 0, 65, 79
2, 118946, Note_on_c, 0, 57, 72
2, 118949, Note_on_c, 0, 77, 85
2, 118956, Note_on_c, 0, 48, 75
2, 118960, Control_c, 0, 64, 20
2, 119163, Control_c, 0, 64, 96
2, 119185, Note_off_c, 0, 72, 56
2, 119220, Note_off_c, 0, 60, 59
2, 119222, Note_off_c, 0, 65, 60
2, 119229, Note_off_c, 0, 57, 58
2, 119247, Note_off_c, 0, 69, 58
2, 119262, Note_off_c, 0, 48, 59
2, 119277, Note_off_c, 0, 77, 61
2, 119319, Note_off_c, 0, 53, 55
2, 119502, Note_on_c, 0, 59, 79
2, 119504, Note_on_c, 0, 64, 77
2, 119507, Note_on_c, 0, 67, 71
2, 119509, Note_on_c, 0, 52, 61
2, 119514, Note_on_c, 0, 71, 63
2, 119515, Note_on_c, 0, 47, 65
2, 119516, Note_on_c, 0, 76, 83
2, 119518, Note_on_c, 0, 55, 67
2, 119528, Control_c, 0, 64, 20
2, 119760, Note_off_c, 0, 64, 59
2, 119780, Note_off_c, 0, 59, 60
2, 119782, Note_off_c, 0, 47, 56
2, 119786, Note_off_c, 0, 71, 55
2, 119790, Control_c, 0, 64, 96
2, 119809, Note_off_c, 0, 52, 55
2, 119815, Note_off_c, 0, 76, 60
2, 119823, Note_off_c, 0, 67, 58
2, 119862, Note_off_c, 0, 55, 57
2, 120092, Note_on_c, 0, 53, 71
2, 120093, Note_on_c, 0, 74, 81
2, 120094, Note_on_c, 0, 62, 74
2, 120102, Note_on_c, 0, 69, 61
2, 120105, Note_on_c, 0, 65, 69
2, 120106, Note_on_c, 0, 57, 77
2, 120111, Note_on_c, 0, 45, 63
2, 120112, Note_on_c, 0, 50, 67
2, 120116, Control_c, 0, 64, 20
2, 120390, Control_c, 0, 64, 96
2, 120400, Note_off_c, 0, 62, 59
2, 120412, Note_off_c, 0, 50, 57
2, 120413, Note_off_c, 0, 74, 60
2, 120419, Note_off_c, 0, 57, 59
2, 120428, Note_off_c, 0, 69, 55
2, 120446, Note_off_c, 0, 53, 58
2, 120459, Note_off_c, 0, 45, 55
2, 120505, Note_off_c, 0, 65, 57
2, 120710, Note_on_c, 0, 45, 69
2, 120712, Note_on_c, 0, 62, 84
2, 120716, Note_on_c, 0, 65, 78
2, 120719, Note_on_c, 0, 50, 62
2, 120722, Note_on_c, 0, 53, 74
2, 120723, Note_on_c, 0, 57, 87
2, 120724, Note_on_c, 0, 69, 70
2, 120725, Note_on_c, 0, 74, 90
2, 120728, Control_c, 0, 64, 20
2, 120976, Control_c, 0, 64, 96
2, 121253, Note_off_c, 0, 50, 55
2, 121259, Note_off_c, 0, 74, 62
2, 121299, Note_off_c, 0, 62, 61
2, 121320, Note_off_c, 0, 57, 61
2, 121342, Note_off_c, 0, 65, 59
2, 121355, Note_off_c, 0, 69, 57
2, 121357, Note_off_c, 0, 45, 57
2, 121370, Note_off_c, 0, 53, 59
2, 121848, Note_on_c, 0, 57, 77
2, 121849, Note_on_c, 0, 40, 76
2, 121855, Note_on_c, 0, 64, 61
2, 121856, Note_on_c, 0, 60, 70
2, 121857, Note_on_c, 0, 45, 63
2, 121858, Note_on_c, 0, 52, 75
2, 121859, Note_on_c, 0, 69, 81
2, 121866, Note_on_c, 0, 48, 67
2, 121878, Control_c, 0, 64, 20
2, 122145, Control_c, 0, 64, 96
2, 122438, Note_off_c, 0, 45, 55
2, 122455, Note_off_c, 0, 57, 59
2, 122481, Note_off_c, 0, 48, 57
2, 122491, Note_off_c, 0, 64, 55
2, 122528, Note_off_c, 0, 40, 59
2, 122553, Note_off_c, 0, 52, 59
2, 122566, Note_off_c, 0, 60, 57
2, 122597, Note_off_c, 0, 69, 60
2, 123074, Note_on_c, 0, 64, 77
2, 123076, Note_on_c, 0, 59, 74
2, 123077, Note_on_c, 0, 47, 78
2, 123088, Note_on_c, 0, 55, 70
2, 123089, Note_on_c, 0, 52, 75
2, 123090, Note_on_c, 0, 71, 63
2, 123095, Note_on_c, 0, 76, 83
2, 123095, Note_on_c, 0, 67, 71
2, 123097, Control_c, 0, 64, 20
2, 123374, Control_c, 0, 64, 96
2, 124310, Note_off_c, 0, 59, 59
2, 124370, Note_off_c, 0, 55, 57
2, 124412, Note_off_c, 0, 47, 59
2, 124422, Note_off_c, 0, 67, 58
2, 124427, Note_off_c, 0, 64, 59
2, 124445, Note_off_c, 0, 76, 60
2, 124499, Note_off_c, 0, 52, 59
2, 124587, Note_off_c, 0, 71, 55
2, 124845, Note_on_c, 0, 72, 63
2, 124853, Note_on_c, 0, 57, 70
2, 124854, Note_on_c, 0, 60, 74
2, 124855, Note_on_c, 0, 77, 83
2, 124858, Note_on_c, 0, 53, 75
2, 124860, Note_on_c, 0, 65, 77
2, 124861, Note_on_c, 0, 48, 78
2, 124862, Control_c, 0, 64, 20
2, 124864, Note_on_c, 0, 69, 71
2, 125099, Note_off_c, 0, 48, 59
2, 125109, Control_c, 0, 64, 96
2, 125119, Note_off_c, 0, 60, 59
2, 125128, Note_off_c, 0, 77, 60
2, 125138, Note_off_c, 0, 57, 57
2, 125139, Note_off_c, 0, 72, 55
2, 125141, Note_off_c, 0, 53, 59
2, 125150, Note_off_c, 0, 69, 58
2, 125166, Note_off_c, 0, 65, 59
2, 125400, Note_on_c, 0, 69, 63
2, 125402, Note_on_c, 0, 45, 78
2, 125403, Note_on_c, 0, 50, 75
2, 125404, Note_on_c, 0, 74, 83
2, 125406, Note_on_c, 0, 53, 70
2, 125408, Note_on_c, 0, 65, 71
2, 125411, Note_on_c, 0, 57, 74
2, 125414, Control_c, 0, 64, 20
2, 125420, Note_on_c, 0, 62, 77
2, 125692, Control_c, 0, 64, 96
2, 126754, Note_off_c, 0, 69, 55
2, 126783, Note_off_c, 0, 65, 58
2, 126797, Note_off_c, 0, 45, 59
2, 126825, Note_off_c, 0, 62, 59
2, 126827, Note_off_c, 0, 74, 60
2, 126847, Note_off_c, 0, 53, 57
2, 126862, Note_off_c, 0, 57, 59
2, 126930, Note_off_c, 0, 50, 59
2, 127171, Note_on_c, 0, 67, 63
2, 127173, Note_on_c, 0, 43, 78
2, 127174, Note_on_c, 0, 72, 83
2, 127176, Note_on_c, 0, 55, 74
2, 127179, Note_on_c, 0, 52, 70
2, 127180, Note_on_c, 0, 48, 75
2, 127182, Note_on_c, 0, 64, 71
2, 127187, Note_on_c, 0, 60, 77
2, 127189, Control_c, 0, 64, 20
2, 127415, Note_off_c, 0, 72, 60
2, 127438, Control_c, 0, 64, 96
2, 127451, Note_off_c, 0, 48, 59
2, 127453, Note_off_c, 0, 60, 59
2, 127457, Note_off_c, 0, 55, 59
2, 127459, Note_off_c, 0, 43, 59
2, 127462, Note_off_c, 0, 67, 55
2, 127476, Note_off_c, 0, 64, 58
2, 127482, Note_off_c, 0, 52, 57
2, 127720, Note_on_c, 0, 52, 70
2, 127723, Note_on_c, 0, 67, 63
2, 127726, Note_on_c, 0, 64, 71
2, 127728, Note_on_c, 0, 43, 78
2, 127730, Note_on_c, 0, 72, 83
2, 127732, Note_on_c, 0, 55, 74
2, 127733, Note_on_c, 0, 48, 75
2, 127735, Note_on_c, 0, 60, 77
2, 128666, Note_off_c, 0, 24, 64
2, 128856, Note_on_c, 0, 24, 90
2, 129423, Note_off_c, 0, 72, 60
2, 129505, Note_off_c, 0, 43, 59
2, 129510, Note_off_c, 0, 48, 59
2, 129610, Note_off_c, 0, 55, 59
2, 129613, Note_off_c, 0, 64, 58
2, 129652, Note_off_c, 0, 67, 55
2, 129675, Note_off_c, 0, 52, 57
2, 129711, Note_off_c, 0, 60, 59
2, 130032, Note_on_c, 0, 40, 62
2, 130033, Note_on_c, 0, 48, 71
2, 130038, Note_on_c, 0, 45, 66
2, 130039, Note_on_c, 0, 69, 80
2, 130043, Note_on_c, 0, 57, 74
2, 130045, Note_on_c, 0, 52, 76
2, 130047, Note_on_c, 0, 60, 68
2, 130050, Note_on_c, 0, 64, 60
2, 130053, Control_c, 0, 64, 20
2, 130325, Control_c, 0, 64, 96
2, 130556, Note_off_c, 0, 48, 58
2, 130564, Note_off_c, 0, 45, 56
2, 130565, Note_off_c, 0, 40, 55
2, 130580, Note_off_c, 0, 60, 57
2, 130593, Note_off_c, 0, 57, 59
2, 130596, Note_off_c, 0, 64, 55
2, 130639, Note_off_c, 0, 69, 60
2, 130664, Note_off_c, 0, 52, 59
2, 131267, Note_on_c, 0, 50, 71
2, 131269, Note_on_c, 0, 41, 76
2, 131271, Note_on_c, 0, 46, 62
2, 131272, Note_on_c, 0, 62, 70
2, 131273, Note_on_c, 0, 53, 78
2, 131274, Note_on_c, 0, 70, 84
2, 131283, Note_on_c, 0, 65, 64
2, 131284, Note_on_c, 0, 58, 76
2, 131290, Control_c, 0, 64, 20
2, 131565, Control_c, 0, 64, 96
2, 131806, Note_off_c, 0, 46, 55
2, 131820, Note_off_c, 0, 53, 59
2, 131825, Note_off_c, 0, 58, 59
2, 131846, Note_off_c, 0, 41, 59
2, 131899, Note_off_c, 0, 62, 57
2, 131905, Note_off_c, 0, 65, 56
2, 131935, Note_off_c, 0, 70, 61
2, 131989, Note_off_c, 0, 50, 58
2, 132483, Note_on_c, 0, 62, 82
2, 132485, Note_on_c, 0, 65, 76
2, 132487, Note_on_c, 0, 74, 88
2, 132488, Note_on_c, 0, 45, 71
2, 132489, Note_on_c, 0, 69, 68
2, 132490, Note_on_c, 0, 53, 76
2, 132494, Note_on_c, 0, 50, 64
2, 132499, Note_on_c, 0, 57, 85
2, 132509, Control_c, 0, 64, 20
2, 132771, Control_c, 0, 64, 96
2, 133008, Note_off_c, 0, 50, 56
2, 133010, Note_off_c, 0, 62, 60
2, 133083, Note_off_c, 0, 57, 61
2, 133135, Note_off_c, 0, 53, 59
2, 133136, Note_off_c, 0, 45, 58
2, 133146, Note_off_c, 0, 69, 57
2, 133151, Note_off_c, 0, 74, 62
2, 133169, Note_off_c, 0, 65, 59
2, 133631, Note_on_c, 0, 77, 92
2, 133638, Note_on_c, 0, 72, 72
2, 133638, Note_on_c, 0, 65, 86
2, 133646, Note_on_c, 0, 53, 70
2, 133649, Note_on_c, 0, 48, 62
2, 133650, Note_on_c, 0, 60, 84
2, 133651, Note_on_c, 0, 69, 80
2, 133655, Note_on_c, 0, 57, 76
2, 133658, Control_c, 0, 64, 20
2, 133908, Control_c, 0, 64, 96
2, 134147, Note_off_c, 0, 60, 61
2, 134184, Note_off_c, 0, 69, 60
2, 134201, Note_off_c, 0, 72, 58
2, 134216, Note_off_c, 0, 48, 55
2, 134221, Note_off_c, 0, 65, 61
2, 134244, Note_off_c, 0, 53, 57
2, 134253, Note_off_c, 0, 77, 62
2, 134295, Note_off_c, 0, 57, 59
2, 134745, Note_on_c, 0, 67, 63
2, 134746, Note_on_c, 0, 60, 82
2, 134748, Note_on_c, 0, 52, 70
2, 134749, Note_on_c, 0, 64, 71
2, 134749, Note_on_c, 0, 43, 74
2, 134751, Note_on_c, 0, 72, 83
2, 134753, Note_on_c, 0, 55, 76
2, 134758, Note_on_c, 0, 48, 80
2, 134770, Control_c, 0, 64, 20
2, 135019, Control_c, 0, 64, 96
2, 135669, Note_off_c, 0, 24, 62
2, 135879, Note_on_c, 0, 24, 86
2, 136228, Note_off_c, 0, 60, 60
2, 136277, Note_off_c, 0, 52, 57
2, 136282, Note_off_c, 0, 55, 59
2, 136299, Note_off_c, 0, 43, 59
2, 136323, Note_off_c, 0, 67, 55
2, 136349, Note_off_c, 0, 64, 58
2, 136400, Note_off_c, 0, 72, 60
2, 136424, Note_off_c, 0, 48, 60
2, 137052, Note_on_c, 0, 48, 69
2, 137055, Note_on_c, 0, 40, 60
2, 137056, Note_on_c, 0, 45, 64
2, 137058, Note_on_c, 0, 64, 58
2, 137059, Note_on_c, 0, 60, 66
2, 137060, Note_on_c, 0, 69, 78
2, 137065, Note_on_c, 0, 52, 74
2, 137068, Note_on_c, 0, 57, 72
2, 137075, Control_c, 0, 64, 20
2, 137348, Control_c, 0, 64, 96
2, 137575, Note_off_c, 0, 48, 57
2, 137579, Note_off_c, 0, 45, 56
2, 137587, Note_off_c, 0, 40, 55
2, 137589, Note_off_c, 0, 60, 56
2, 137604, Note_off_c, 0, 64, 54
2, 137616, Note_off_c, 0, 57, 58
2, 137658, Note_off_c, 0, 69, 59
2, 137682, Note_off_c, 0, 52, 59
2, 138294, Note_on_c, 0, 65, 62
2, 138295, Note_on_c, 0, 41, 74
2, 138299, Note_on_c, 0, 46, 60
2, 138301, Note_on_c, 0, 62, 68
2, 138306, Control_c, 0, 64, 20
2, 138307, Note_on_c, 0, 53, 76
2, 138309, Note_on_c, 0, 50, 69
2, 138310, Note_on_c, 0, 70, 82
2, 138310, Note_on_c, 0, 58, 74
2, 138581, Control_c, 0, 64, 96
2, 138836, Note_off_c, 0, 46, 55
2, 138848, Note_off_c, 0, 58, 59
2, 138853, Note_off_c, 0, 53, 59
2, 138872, Note_off_c, 0, 41, 59
2, 138916, Note_off_c, 0, 65, 55
2, 138932, Note_off_c, 0, 62, 57
2, 138969, Note_off_c, 0, 70, 60
2, 139027, Note_off_c, 0, 50, 57
2, 139514, Note_on_c, 0, 69, 66
2, 139515, Note_on_c, 0, 62, 80
2, 139516, Note_on_c, 0, 53, 74
2, 139517, Note_on_c, 0, 74, 86
2, 139518, Control_c, 0, 64, 20
2, 139523, Note_on_c, 0, 50, 62
2, 139524, Note_on_c, 0, 45, 69
2, 139526, Note_on_c, 0, 65, 74
2, 139527, Note_on_c, 0, 57, 83
2, 139782, Control_c, 0, 64, 96
2, 140037, Note_off_c, 0, 50, 55
2, 140042, Note_off_c, 0, 62, 60
2, 140105, Note_off_c, 0, 57, 60
2, 140160, Note_off_c, 0, 53, 59
2, 140170, Note_off_c, 0, 45, 57
2, 140172, Note_off_c, 0, 69, 56
2, 140179, Note_off_c, 0, 74, 61
2, 140206, Note_off_c, 0, 65, 59
2, 140657, Note_on_c, 0, 69, 78
2, 140660, Note_on_c, 0, 72, 70
2, 140662, Note_on_c, 0, 53, 68
2, 140667, Note_on_c, 0, 60, 82
2, 140668, Note_on_c, 0, 57, 74
2, 140669, Note_on_c, 0, 77, 90
2, 140672, Note_on_c, 0, 48, 60
2, 140673, Note_on_c, 0, 65, 84
2, 140679, Control_c, 0, 64, 20
2, 140931, Control_c, 0, 64, 96
2, 141163, Note_off_c, 0, 60, 60
2, 141191, Note_off_c, 0, 69, 59
2, 141221, Note_off_c, 0, 72, 57
2, 141241, Note_off_c, 0, 48, 55
2, 141255, Note_off_c, 0, 65, 61
2, 141258, Note_off_c, 0, 53, 57
2, 141289, Note_off_c, 0, 77, 62
2, 141309, Note_off_c, 0, 57, 59
2, 141766, Note_on_c, 0, 70, 64
2, 141767, Note_on_c, 0, 62, 73
2, 141769, Note_on_c, 0, 74, 56
2, 141771, Note_on_c, 0, 79, 76
2, 141781, Note_on_c, 0, 55, 60
2, 141782, Note_on_c, 0, 58, 66
2, 141785, Note_on_c, 0, 50, 72
2, 141788, Note_on_c, 0, 67, 70
2, 141791, Control_c, 0, 64, 20
2, 142068, Control_c, 0, 64, 96
2, 142762, Note_off_c, 0, 24, 61
2, 142991, Note_on_c, 0, 24, 76
2, 143182, Note_off_c, 0, 62, 58
2, 143220, Note_off_c, 0, 70, 56
2, 143254, Note_off_c, 0, 74, 54
2, 143276, Note_off_c, 0, 50, 58
2, 143294, Note_off_c, 0, 67, 57
2, 143303, Note_off_c, 0, 55, 55
2, 143318, Note_off_c, 0, 79, 59
2, 143349, Note_off_c, 0, 58, 56
2, 143568, Note_on_c, 0, 69, 68
2, 143570, Note_on_c, 0, 77, 80
2, 143571, Note_on_c, 0, 48, 60
2, 143572, Note_on_c, 0, 72, 60
2, 143574, Note_on_c, 0, 65, 74
2, 143577, Note_on_c, 0, 60, 78
2, 143582, Control_c, 0, 64, 20
2, 143584, Note_on_c, 0, 57, 65
2, 143585, Note_on_c, 0, 53, 70
2, 143841, Control_c, 0, 64, 96
2, 143845, Note_off_c, 0, 72, 55
2, 143847, Note_off_c, 0, 53, 57
2, 143852, Note_off_c, 0, 65, 59
2, 143857, Note_off_c, 0, 48, 55
2, 143861, Note_off_c, 0, 77, 60
2, 143879, Note_off_c, 0, 69, 57
2, 143890, Note_off_c, 0, 60, 59
2, 143901, Note_off_c, 0, 57, 56
2, 144143, Note_on_c, 0, 79, 82
2, 144147, Note_on_c, 0, 67, 76
2, 144150, Note_on_c, 0, 50, 70
2, 144154, Note_on_c, 0, 70, 70
2, 144156, Note_on_c, 0, 58, 66
2, 144157, Note_on_c, 0, 74, 62
2, 144161, Note_on_c, 0, 55, 60
2, 144163, Note_on_c, 0, 62, 72
2, 144167, Control_c, 0, 64, 20
2, 144404, Note_off_c, 0, 70, 57
2, 144416, Note_off_c, 0, 50, 57
2, 144421, Control_c, 0, 64, 96
2, 144422, Note_off_c, 0, 74, 55
2, 144443, Note_off_c, 0, 58, 56
2, 144446, Note_off_c, 0, 55, 55
2, 144448, Note_off_c, 0, 79, 60
2, 144472, Note_off_c, 0, 62, 58
2, 144493, Note_off_c, 0, 67, 59
2, 144706, Note_on_c, 0, 77, 64
2, 144707, Note_on_c, 0, 62, 72
2, 144709, Note_on_c, 0, 58, 60
2, 144712, Note_on_c, 0, 82, 84
2, 144717, Note_on_c, 0, 70, 78
2, 144719, Note_on_c, 0, 53, 75
2, 144724, Note_on_c, 0, 74, 72
2, 144726, Note_on_c, 0, 65, 66
2, 144729, Control_c, 0, 64, 20
2, 144924, Note_off_c, 0, 77, 56
2, 144979, Note_off_c, 0, 58, 55
2, 144979, Control_c, 0, 64, 96
2, 144986, Note_off_c, 0, 53, 59
2, 145004, Note_off_c, 0, 82, 61
2, 145010, Note_off_c, 0, 74, 58
2, 145011, Note_off_c, 0, 62, 58
2, 145018, Note_off_c, 0, 65, 56
2, 145023, Note_off_c, 0, 70, 59
2, 145262, Note_on_c, 0, 70, 73
2, 145263, Note_on_c, 0, 67, 80
2, 145264, Note_on_c, 0, 50, 66
2, 145265, Note_on_c, 0, 79, 85
2, 145268, Note_on_c, 0, 74, 64
2, 145269, Note_on_c, 0, 62, 82
2, 145273, Note_on_c, 0, 58, 60
2, 145277, Note_on_c, 0, 55, 75
2, 145283, Control_c, 0, 64, 20
2, 145560, Control_c, 0, 64, 96
2, 145934, Note_off_c, 0, 24, 59
2, 146483, Note_on_c, 0, 24, 88
2, 147267, Note_off_c, 0, 62, 60
2, 147299, Note_off_c, 0, 70, 58
2, 147333, Note_off_c, 0, 74, 56
2, 147336, Note_off_c, 0, 50, 56
2, 147350, Note_off_c, 0, 67, 60
2, 147378, Note_off_c, 0, 55, 59
2, 147393, Note_off_c, 0, 79, 61
2, 147421, Note_off_c, 0, 58, 55
2, 147646, Note_on_c, 0, 81, 90
2, 147647, Note_on_c, 0, 60, 72
2, 147648, Note_on_c, 0, 52, 76
2, 147655, Control_c, 0, 64, 20
2, 147658, Note_on_c, 0, 64, 78
2, 147661, Note_on_c, 0, 76, 70
2, 147664, Note_on_c, 0, 72, 78
2, 147665, Note_on_c, 0, 69, 84
2, 147667, Note_on_c, 0, 57, 68
2, 147908, Control_c, 0, 64, 96
2, 148406, Note_off_c, 0, 64, 59
2, 148451, Note_off_c, 0, 72, 59
2, 148470, Note_off_c, 0, 52, 59
2, 148476, Note_off_c, 0, 76, 57
2, 148500, Note_off_c, 0, 69, 61
2, 148517, Note_off_c, 0, 57, 57
2, 148518, Note_off_c, 0, 81, 62
2, 148539, Note_off_c, 0, 60, 58
2, 148762, Note_on_c, 0, 57, 80
2, 148765, Note_on_c, 0, 72, 64
2, 148766, Note_on_c, 0, 77, 85
2, 148767, Note_on_c, 0, 60, 73
2, 148769, Note_on_c, 0, 48, 70
2, 148770, Note_on_c, 0, 65, 82
2, 148773, Note_on_c, 0, 69, 73
2, 148776, Control_c, 0, 64, 20
2, 148777, Note_on_c, 0, 53, 66
2, 149052, Control_c, 0, 64, 96
2, 149613, Note_off_c, 0, 24, 62
2, 149990, Note_on_c, 0, 24, 80
2, 150432, Note_off_c, 0, 53, 56
2, 150434, Note_off_c, 0, 72, 56
2, 150442, Note_off_c, 0, 65, 60
2, 150451, Note_off_c, 0, 48, 57
2, 150454, Note_off_c, 0, 77, 61
2, 150476, Note_off_c, 0, 60, 58
2, 150477, Note_off_c, 0, 57, 60
2, 150480, Note_off_c, 0, 69, 58
2, 151200, Note_on_c, 0, 77, 90
2, 151202, Control_c, 0, 64, 20
2, 151205, Note_on_c, 0, 60, 87
2, 151209, Note_on_c, 0, 48, 68
2, 151214, Note_on_c, 0, 53, 74
2, 151215, Note_on_c, 0, 65, 84
2, 151216, Note_on_c, 0, 72, 70
2, 151217, Note_on_c, 0, 57, 82
2, 151221, Note_on_c, 0, 69, 78
2, 151469, Control_c, 0, 64, 96
2, 152736, Note_off_c, 0, 65, 61
2, 152775, Note_off_c, 0, 48, 57
2, 152791, Note_off_c, 0, 57, 60
2, 152791, Note_off_c, 0, 69, 59
2, 152901, Note_off_c, 0, 60, 61
2, 152935, Note_off_c, 0, 72, 57
2, 152987, Note_off_c, 0, 77, 62
2, 152989, Note_off_c, 0, 53, 59
2, 153526, Note_on_c, 0, 62, 80
2, 153531, Note_on_c, 0, 50, 70
2, 153532, Note_on_c, 0, 53, 76
2, 153533, Note_on_c, 0, 74, 86
2, 153540, Control_c, 0, 64, 20
2, 153543, Note_on_c, 0, 57, 82
2, 153544, Note_on_c, 0, 65, 73
2, 153547, Note_on_c, 0, 69, 66
2, 153548, Note_on_c, 0, 45, 63
2, 153793, Control_c, 0, 64, 96
2, 154133, Note_off_c, 0, 62, 60
2, 154138, Note_off_c, 0, 50, 57
2, 154173, Note_off_c, 0, 53, 59
2, 154195, Note_off_c, 0, 45, 55
2, 154231, Note_off_c, 0, 74, 61
2, 154269, Note_off_c, 0, 69, 56
2, 154295, Note_off_c, 0, 57, 60
2, 154297, Note_off_c, 0, 65, 58
2, 154648, Note_on_c, 0, 76, 81
2, 154654, Note_on_c, 0, 71, 61
2, 154664, Note_on_c, 0, 64, 75
2, 154666, Note_on_c, 0, 52, 75
2, 154667, Note_on_c, 0, 59, 80
2, 154668, Note_on_c, 0, 47, 68
2, 154669, Control_c, 0, 64, 20
2, 154670, Note_on_c, 0, 67, 70
2, 154671, Note_on_c, 0, 55, 60
2, 154919, Control_c, 0, 64, 96
2, 155271, Note_off_c, 0, 64, 59
2, 155277, Note_off_c, 0, 71, 55
2, 155305, Note_off_c, 0, 52, 59
2, 155348, Note_off_c, 0, 59, 60
2, 155350, Note_off_c, 0, 67, 57
2, 155352, Note_off_c, 0, 76, 60
2, 155360, Note_off_c, 0, 47, 57
2, 155424, Note_off_c, 0, 55, 55
2, 155752, Note_on_c, 0, 55, 66
2, 155757, Note_on_c, 0, 43, 60
2, 155758, Note_on_c, 0, 48, 65
2, 155759, Note_on_c, 0, 72, 73
2, 155760, Note_on_c, 0, 64, 70
2, 155761, Note_on_c, 0, 60, 76
2, 155762, Note_on_c, 0, 52, 70
2, 155763, Note_on_c, 0, 67, 66
2, 155775, Control_c, 0, 64, 20
2, 156051, Control_c, 0, 64, 96
2, 156663, Note_off_c, 0, 24, 60
2, 156695, Note_off_c, 0, 60, 59
2, 156992, Note_on_c, 0, 24, 70
2, 156994, Note_on_c, 0, 60, 72
2, 158253, Note_on_c, 0, 62, 74
2, 158754, Note_off_c, 0, 67, 56
2, 159543, Note_off_c, 0, 62, 59
2, 159544, Note_on_c, 0, 67, 70
2, 160532, Note_off_c, 0, 72, 58
2, 160863, Note_on_c, 0, 72, 75
2, 162035, Note_off_c, 0, 55, 56
2, 162213, Note_off_c, 0, 72, 60
2, 162213, Note_on_c, 0, 74, 60
2, 162832, Note_off_c, 0, 60, 58
2, 163228, Note_off_c, 0, 67, 57
2, 163387, Control_c, 0, 67, 127
2, 163450, Note_off_c, 0, 74, 55
2, 163567, Note_off_c, 0, 43, 55
2, 163568, Note_off_c, 0, 48, 56
2, 163569, Note_off_c, 0, 64, 57
2, 163573, Note_off_c, 0, 52, 57
2, 163586, Note_on_c, 0, 60, 46
2, 163587, Note_on_c, 0, 72, 40
2, 163593, Note_on_c, 0, 67, 46
2, 163595, Note_off_c, 0, 24, 57
2, 163597, Note_on_c, 0, 55, 43
2, 163598, Note_on_c, 0, 74, 32
2, 163598, Note_on_c, 0, 62, 49
2, 163600, Note_on_c, 0, 79, 52
2, 163603, Control_c, 0, 64, 20
2, 163885, Control_c, 0, 64, 96
2, 164847, Note_on_c, 0, 84, 41
2, 164852, Note_on_c, 0, 98, 49
2, 164854, Note_on_c, 0, 86, 45
2, 164855, Note_on_c, 0, 46, 49
2, 164856, Note_on_c, 0, 96, 43
2, 164865, Note_on_c, 0, 34, 42
2, 166375, Note_off_c, 0, 67, 51
2, 166476, Note_off_c, 0, 74, 48
2, 166477, Note_off_c, 0, 60, 51
2, 166530, Note_off_c, 0, 55, 50
2, 166610, Note_off_c, 0, 62, 52
2, 166703, Note_off_c, 0, 72, 50
2, 166745, Note_off_c, 0, 84, 50
2, 166750, Note_off_c, 0, 98, 52
2, 166751, Note_off_c, 0, 86, 51
2, 166752, Note_off_c, 0, 46, 52
2, 166753, Note_off_c, 0, 96, 50
2, 166764, Note_off_c, 0, 34, 50
2, 166843, Note_off_c, 0, 79, 53
2, 167389, Note_on_c, 0, 67, 39
2, 167390, Note_on_c, 0, 62, 42
2, 167395, Note_on_c, 0, 55, 36
2, 167396, Note_on_c, 0, 79, 45
2, 167397, Note_on_c, 0, 60, 39
2, 167398, Note_on_c, 0, 74, 25
2, 167400, Note_on_c, 0, 72, 33
2, 167409, Control_c, 0, 64, 20
2, 167696, Control_c, 0, 64, 96
2, 168671, Note_on_c, 0, 86, 39
2, 168672, Note_on_c, 0, 98, 43
2, 168674, Note_on_c, 0, 84, 35
2, 168677, Note_on_c, 0, 46, 43
2, 168679, Note_on_c, 0, 96, 37
2, 168691, Note_on_c, 0, 34, 36
2, 169883, Note_off_c, 0, 60, 49
2, 169971, Note_off_c, 0, 67, 49
2, 170182, Note_off_c, 0, 62, 50
2, 170269, Note_off_c, 0, 55, 49
2, 170310, Note_off_c, 0, 74, 46
2, 170485, Note_off_c, 0, 79, 51
2, 170527, Note_off_c, 0, 72, 48
2, 170633, Note_off_c, 0, 86, 49
2, 170635, Note_off_c, 0, 98, 50
2, 170636, Note_off_c, 0, 84, 48
2, 170639, Note_off_c, 0, 46, 50
2, 170642, Note_off_c, 0, 96, 49
2, 170653, Note_off_c, 0, 34, 49
2, 171290, Note_on_c, 0, 79, 38
2, 171297, Note_on_c, 0, 60, 32
2, 171300, Note_on_c, 0, 74, 18
2, 171303, Note_on_c, 0, 72, 26
2, 171304, Note_on_c, 0, 55, 29
2, 171305, Note_on_c, 0, 67, 32
2, 171305, Note_on_c, 0, 62, 35
2, 171312, Control_c, 0, 64, 20
2, 171608, Control_c, 0, 64, 96
2, 172629, Note_on_c, 0, 44, 36
2, 172631, Note_on_c, 0, 98, 36
2, 172632, Note_on_c, 0, 96, 30
2, 172634, Note_on_c, 0, 84, 28
2, 172635, Note_on_c, 0, 86, 32
2, 172643, Note_on_c, 0, 32, 29
2, 174138, Note_off_c, 0, 60, 48
2, 174157, Note_off_c, 0, 55, 47
2, 174435, Note_off_c, 0, 72, 46
2, 174617, Note_off_c, 0, 79, 49
2, 174620, Note_off_c, 0, 67, 48
2, 174647, Note_off_c, 0, 44, 49
2, 174649, Note_off_c, 0, 98, 49
2, 174650, Note_off_c, 0, 96, 47
2, 174652, Note_off_c, 0, 84, 47
2, 174653, Note_off_c, 0, 86, 48
2, 174661, Note_off_c, 0, 32, 47
2, 174688, Note_off_c, 0, 74, 44
2, 174705, Note_off_c, 0, 62, 48
2, 175323, Note_on_c, 0, 74, 12
2, 175324, Note_on_c, 0, 72, 20
2, 175326, Note_on_c, 0, 62, 29
2, 175326, Note_on_c, 0, 79, 32
2, 175327, Note_on_c, 0, 67, 26
2, 175331, Note_on_c, 0, 55, 23
2, 175332, Note_on_c, 0, 60, 26
2, 175339, Control_c, 0, 64, 20
2, 175644, Control_c, 0, 64, 96
2, 176688, Note_on_c, 0, 86, 26
2, 176695, Note_on_c, 0, 44, 27
2, 176697, Note_on_c, 0, 84, 22
2, 176702, Note_on_c, 0, 96, 24
2, 176703, Note_on_c, 0, 98, 30
2, 176709, Note_on_c, 0, 32, 20
2, 178110, Note_off_c, 0, 74, 43
2, 178167, Note_off_c, 0, 72, 45
2, 178244, Note_off_c, 0, 62, 47
2, 178261, Note_off_c, 0, 67, 46
2, 178498, Note_off_c, 0, 55, 45
2, 178500, Note_off_c, 0, 60, 46
2, 178524, Note_off_c, 0, 79, 48
2, 178773, Note_off_c, 0, 86, 46
2, 178781, Note_off_c, 0, 84, 45
2, 178787, Note_off_c, 0, 96, 46
2, 178788, Note_off_c, 0, 98, 47
2, 179958, Note_off_c, 0, 32, 45
2, 179997, Note_off_c, 0, 44, 46
2, 180091, Control_c, 0, 67, 0
2, 180881, Note_on_c, 0, 32, 27
2, 180881, Note_on_c, 0, 44, 33
2, 180887, Control_c, 0, 64, 20
2, 181135, Control_c, 0, 64, 96
2, 183102, Note_on_c, 0, 52, 38
2, 185355, Note_on_c, 0, 49, 32
2, 185493, Note_off_c, 0, 52, 49
2, 187728, Note_on_c, 0, 51, 35
2, 188231, Note_off_c, 0, 49, 48
2, 188910, Note_on_c, 0, 56, 38
2, 189039, Note_off_c, 0, 51, 48
2, 190030, Note_on_c, 0, 52, 36
2, 190043, Note_off_c, 0, 56, 49
2, 191143, Note_off_c, 0, 44, 48
2, 191145, Note_on_c, 0, 49, 34
2, 191303, Note_off_c, 0, 52, 49
2, 192285, Note_on_c, 0, 44, 32
2, 192552, Note_off_c, 0, 49, 48
2, 192673, Note_off_c, 0, 32, 46
2, 193456, Note_on_c, 0, 32, 30
2, 193471, Control_c, 0, 64, 20
2, 193737, Control_c, 0, 64, 96
2, 194657, Note_off_c, 0, 44, 48
2, 194657, Note_on_c, 0, 46, 35
2, 195859, Note_off_c, 0, 46, 48
2, 195860, Note_on_c, 0, 51, 37
2, 197036, Note_off_c, 0, 51, 49
2, 197037, Note_on_c, 0, 47, 33
2, 198187, Note_off_c, 0, 47, 48
2, 198188, Note_on_c, 0, 52, 30
2, 198189, Note_on_c, 0, 56, 36
2, 198198, Note_on_c, 0, 44, 34
2, 199102, Note_off_c, 0, 44, 48
2, 199310, Note_off_c, 0, 56, 49
2, 199311, Note_on_c, 0, 58, 42
2, 199321, Note_on_c, 0, 46, 35
2, 199976, Note_off_c, 0, 52, 47
2, 200099, Note_off_c, 0, 58, 50
2, 200283, Note_off_c, 0, 46, 48
2, 200413, Note_on_c, 0, 63, 49
2, 200419, Note_on_c, 0, 56, 32
2, 200421, Note_on_c, 0, 52, 43
2, 200424, Note_on_c, 0, 58, 29
2, 200425, Note_on_c, 0, 51, 36
2, 201334, Note_off_c, 0, 51, 49
2, 201517, Note_off_c, 0, 63, 52
2, 201518, Note_on_c, 0, 61, 56
2, 201522, Note_on_c, 0, 49, 45
2, 202526, Note_off_c, 0, 56, 48
2, 202622, Note_off_c, 0, 49, 51
2, 202655, Note_off_c, 0, 61, 54
2, 202656, Note_on_c, 0, 63, 63
2, 202668, Note_on_c, 0, 51, 52
2, 202807, Note_off_c, 0, 58, 47
2, 202905, Note_off_c, 0, 52, 50
2, 203496, Note_off_c, 0, 32, 47
2, 203755, Note_off_c, 0, 51, 53
2, 203829, Note_off_c, 0, 63, 55
2, 203830, Note_on_c, 0, 59, 64
2, 203832, Note_on_c, 0, 47, 57
2, 203841, Control_c, 0, 64, 20
2, 203843, Note_on_c, 0, 52, 52
2, 203848, Note_on_c, 0, 56, 44
2, 203849, Note_on_c, 0, 32, 36
2, 204112, Control_c, 0, 64, 96
2, 204769, Note_off_c, 0, 52, 53
2, 204802, Note_off_c, 0, 56, 51
2, 204803, Note_off_c, 0, 47, 54
2, 204803, Note_off_c, 0, 59, 56
2, 205023, Note_on_c, 0, 80, 40
2, 205025, Note_on_c, 0, 56, 32
2, 205028, Note_on_c, 0, 68, 36
2, 205041, Note_on_c, 0, 76, 20
2, 205042, Note_on_c, 0, 64, 24
2, 206172, Note_off_c, 0, 80, 50
2, 206173, Note_on_c, 0, 82, 45
2, 206176, Note_off_c, 0, 56, 48
2, 206178, Note_off_c, 0, 68, 49
2, 206184, Note_on_c, 0, 70, 40
2, 206186, Note_on_c, 0, 58, 35
2, 206781, Note_off_c, 0, 64, 46
2, 206976, Note_off_c, 0, 70, 50
2, 207010, Note_off_c, 0, 82, 51
2, 207281, Note_on_c, 0, 87, 50
2, 207289, Note_on_c, 0, 64, 30
2, 207290, Note_on_c, 0, 70, 28
2, 207293, Note_on_c, 0, 80, 25
2, 207294, Note_on_c, 0, 82, 30
2, 207295, Note_on_c, 0, 63, 34
2, 207297, Note_off_c, 0, 58, 48
2, 207298, Note_on_c, 0, 68, 23
2, 207300, Note_off_c, 0, 76, 45
2, 207301, Note_on_c, 0, 75, 38
2, 208388, Note_off_c, 0, 87, 52
2, 208389, Note_on_c, 0, 85, 43
2, 208393, Note_on_c, 0, 73, 36
2, 208400, Note_off_c, 0, 63, 48
2, 208401, Note_on_c, 0, 61, 30
2, 208407, Note_off_c, 0, 75, 49
2, 209525, Note_off_c, 0, 85, 50
2, 209526, Note_on_c, 0, 87, 37
2, 209528, Note_on_c, 0, 63, 29
2, 209530, Note_off_c, 0, 73, 49
2, 209535, Note_on_c, 0, 75, 33
2, 209539, Note_off_c, 0, 61, 47
2, 210302, Note_off_c, 0, 32, 49
2, 210548, Note_off_c, 0, 80, 46
2, 210549, Note_off_c, 0, 82, 47
2, 210698, Note_off_c, 0, 87, 49
2, 210699, Note_on_c, 0, 90, 50
2, 210701, Note_off_c, 0, 63, 47
2, 210702, Note_on_c, 0, 85, 30
2, 210704, Note_off_c, 0, 64, 47
2, 210706, Note_on_c, 0, 78, 45
2, 210707, Control_c, 0, 64, 20
2, 210709, Note_off_c, 0, 70, 47
2, 210709, Note_off_c, 0, 75, 48
2, 210710, Note_on_c, 0, 44, 40
2, 210710, Note_on_c, 0, 81, 38
2, 210713, Note_off_c, 0, 68, 45
2, 210716, Note_on_c, 0, 32, 32
2, 210941, Control_c, 0, 64, 96
2, 211419, Note_off_c, 0, 81, 49
2, 211459, Note_off_c, 0, 85, 47
2, 211539, Note_off_c, 0, 78, 51
2, 211750, Note_off_c, 0, 90, 52
2, 211751, Note_on_c, 0, 87, 44
2, 211754, Note_on_c, 0, 61, 40
2, 211756, Note_on_c, 0, 57, 36
2, 211759, Note_on_c, 0, 81, 22
2, 211761, Note_on_c, 0, 78, 20
2, 211762, Note_on_c, 0, 75, 32
2, 211763, Note_on_c, 0, 54, 31
2, 211765, Note_on_c, 0, 49, 21
2, 212826, Note_off_c, 0, 87, 51
2, 212827, Note_on_c, 0, 85, 39
2, 212830, Note_off_c, 0, 61, 50
2, 212837, Note_off_c, 0, 75, 48
2, 212841, Note_on_c, 0, 73, 27
2, 212843, Note_off_c, 0, 49, 45
2, 212843, Note_on_c, 0, 63, 36
2, 212846, Note_on_c, 0, 51, 25
2, 213450, Note_off_c, 0, 57, 49
2, 213647, Note_off_c, 0, 54, 47
2, 213937, Note_on_c, 0, 66, 34
2, 213941, Note_on_c, 0, 54, 25
2, 213944, Note_on_c, 0, 61, 32
2, 213947, Note_off_c, 0, 63, 49
2, 213948, Note_on_c, 0, 57, 30
2, 213950, Note_off_c, 0, 51, 46
2, 214425, Note_off_c, 0, 81, 45
2, 214492, Note_off_c, 0, 85, 49
2, 214493, Note_on_c, 0, 87, 36
2, 214508, Note_off_c, 0, 73, 46
2, 214510, Note_on_c, 0, 75, 30
2, 214625, Note_off_c, 0, 78, 45
2, 214798, Note_off_c, 0, 57, 47
2, 214799, Note_off_c, 0, 54, 46
2, 214803, Note_off_c, 0, 61, 48
2, 215049, Note_off_c, 0, 87, 49
2, 215050, Note_on_c, 0, 90, 45
2, 215055, Note_off_c, 0, 66, 48
2, 215056, Note_on_c, 0, 54, 30
2, 215058, Note_on_c, 0, 63, 36
2, 215061, Note_on_c, 0, 78, 39
2, 215066, Note_on_c, 0, 85, 25
2, 215067, Note_on_c, 0, 51, 24
2, 215068, Note_on_c, 0, 61, 32
2, 215069, Note_off_c, 0, 75, 47
2, 215070, Note_on_c, 0, 81, 33
2, 215071, Note_on_c, 0, 57, 30
2, 215828, Note_off_c, 0, 78, 50
2, 215829, Note_off_c, 0, 61, 48
2, 215887, Note_off_c, 0, 81, 48
2, 216034, Note_off_c, 0, 63, 49
2, 216094, Note_off_c, 0, 51, 46
2, 216117, Note_off_c, 0, 90, 51
2, 216119, Note_on_c, 0, 87, 44
2, 216123, Note_on_c, 0, 78, 20
2, 216128, Note_on_c, 0, 81, 22
2, 216134, Note_off_c, 0, 85, 47
2, 216135, Note_on_c, 0, 61, 30
2, 216135, Note_on_c, 0, 75, 32
2, 216137, Note_on_c, 0, 49, 25
2, 216591, Note_off_c, 0, 78, 45
2, 216671, Note_off_c, 0, 87, 51
2, 216672, Note_on_c, 0, 90, 47
2, 216688, Note_off_c, 0, 75, 48
2, 216690, Note_on_c, 0, 78, 35
2, 216836, Note_off_c, 0, 54, 47
2, 216864, Note_off_c, 0, 44, 50
2, 216873, Note_off_c, 0, 32, 48
2, 216880, Note_off_c, 0, 57, 47
2, 217202, Note_off_c, 0, 90, 51
2, 217203, Note_on_c, 0, 92, 49
2, 217207, Note_on_c, 0, 32, 32
2, 217208, Note_on_c, 0, 80, 37
2, 217212, Note_off_c, 0, 81, 45
2, 217213, Control_c, 0, 64, 20
2, 217214, Note_on_c, 0, 44, 40
2, 217217, Note_off_c, 0, 61, 47
2, 217219, Note_off_c, 0, 78, 48
2, 217219, Note_on_c, 0, 85, 29
2, 217221, Note_off_c, 0, 49, 46
2, 217447, Control_c, 0, 64, 96
2, 218263, Note_off_c, 0, 92, 52
2, 218264, Note_on_c, 0, 87, 42
2, 218268, Note_on_c, 0, 78, 20
2, 218269, Note_off_c, 0, 80, 49
2, 218278, Note_on_c, 0, 49, 14
2, 218279, Note_on_c, 0, 54, 20
2, 218280, Note_off_c, 0, 85, 47
2, 218282, Note_on_c, 0, 75, 30
2, 218284, Note_on_c, 0, 61, 30
2, 218285, Note_on_c, 0, 81, 22
2, 218285, Note_on_c, 0, 57, 25
2, 219223, Note_off_c, 0, 49, 44
2, 219370, Note_off_c, 0, 87, 46
2, 219371, Note_on_c, 0, 85, 44
2, 219375, Note_on_c, 0, 73, 36
2, 219384, Note_on_c, 0, 63, 40
2, 219385, Note_on_c, 0, 51, 32
2, 219389, Note_off_c, 0, 75, 43
2, 219390, Note_off_c, 0, 61, 47
2, 219749, Note_off_c, 0, 54, 45
2, 219809, Note_off_c, 0, 57, 46
2, 220109, Note_off_c, 0, 51, 48
2, 220168, Note_off_c, 0, 63, 50
2, 220489, Note_on_c, 0, 57, 48
2, 220491, Note_off_c, 0, 32, 48
2, 220493, Note_on_c, 0, 63, 34
2, 220499, Control_c, 0, 64, 20
2, 220500, Note_off_c, 0, 44, 50
2, 220501, Note_on_c, 0, 61, 42
2, 220502, Note_on_c, 0, 56, 32
2, 220505, Note_on_c, 0, 68, 54
2, 220746, Control_c, 0, 64, 96
2, 221035, Note_off_c, 0, 85, 51
2, 221036, Note_on_c, 0, 87, 59
2, 221040, Note_off_c, 0, 73, 49
2, 221054, Note_on_c, 0, 75, 47
2, 221324, Note_off_c, 0, 57, 52
2, 221376, Note_off_c, 0, 56, 48
2, 221381, Note_off_c, 0, 63, 48
2, 221443, Note_off_c, 0, 61, 50
2, 221578, Note_off_c, 0, 87, 54
2, 221579, Note_on_c, 0, 92, 64
2, 221583, Note_off_c, 0, 78, 41
2, 221596, Note_off_c, 0, 68, 53
2, 221597, Note_on_c, 0, 57, 55
2, 221599, Note_off_c, 0, 75, 51
2, 221600, Note_off_c, 0, 81, 42
2, 221602, Note_on_c, 0, 54, 40
2, 221603, Note_on_c, 0, 85, 44
2, 221603, Note_on_c, 0, 61, 60
2, 221603, Note_on_c, 0, 80, 52
2, 221604, Note_on_c, 0, 51, 48
2, 221607, Note_on_c, 0, 63, 58
2, 222360, Note_off_c, 0, 61, 55
2, 222373, Note_off_c, 0, 51, 52
2, 222399, Note_off_c, 0, 63, 54
2, 222642, Note_off_c, 0, 92, 56
2, 222643, Note_on_c, 0, 90, 75
2, 222657, Note_on_c, 0, 78, 63
2, 222657, Note_on_c, 0, 61, 69
2, 222658, Note_on_c, 0, 49, 58
2, 222661, Note_on_c, 0, 87, 48
2, 222663, Note_off_c, 0, 85, 51
2, 222665, Note_off_c, 0, 80, 53
2, 223150, Note_off_c, 0, 57, 53
2, 223165, Note_off_c, 0, 90, 59
2, 223167, Note_on_c, 0, 92, 80
2, 223181, Note_off_c, 0, 78, 55
2, 223186, Note_on_c, 0, 80, 68
2, 223203, Note_off_c, 0, 54, 50
2, 223412, Note_off_c, 0, 49, 54
2, 223439, Note_off_c, 0, 87, 52
2, 223479, Note_off_c, 0, 61, 57
2, 223630, Note_on_c, 0, 32, 85
2, 223685, Note_off_c, 0, 92, 60
2, 223685, Note_on_c, 0, 97, 84
2, 223687, Note_on_c, 0, 87, 72
2, 223688, Note_on_c, 0, 66, 70
2, 223691, Note_on_c, 0, 73, 80
2, 223694, Control_c, 0, 64, 20
2, 223695, Note_on_c, 0, 90, 64
2, 223695, Note_on_c, 0, 85, 78
2, 223696, Note_on_c, 0, 69, 75
2, 223697, Note_on_c, 0, 61, 58
2, 223699, Note_on_c, 0, 63, 64
2, 223705, Note_off_c, 0, 80, 57
2, 223925, Control_c, 0, 64, 96
2, 224450, Note_off_c, 0, 63, 56
2, 224454, Note_off_c, 0, 61, 54
2, 224461, Note_off_c, 0, 87, 58
2, 224469, Note_off_c, 0, 73, 60
2, 224476, Note_off_c, 0, 69, 59
2, 224478, Note_off_c, 0, 66, 57
2, 224479, Note_off_c, 0, 85, 59
2, 224730, Note_off_c, 0, 97, 61
2, 224731, Note_on_c, 0, 92, 81
2, 224733, Note_on_c, 0, 68, 74
2, 224734, Note_on_c, 0, 87, 60
2, 224735, Note_on_c, 0, 61, 60
2, 224737, Note_on_c, 0, 57, 54
2, 224739, Note_off_c, 0, 90, 56
2, 224740, Note_on_c, 0, 56, 50
2, 224742, Note_on_c, 0, 63, 68
2, 224743, Note_on_c, 0, 85, 55
2, 224744, Note_on_c, 0, 80, 70
2, 225543, Note_off_c, 0, 56, 52
2, 225620, Note_off_c, 0, 68, 59
2, 225807, Note_off_c, 0, 92, 60
2, 225808, Note_on_c, 0, 90, 78
2, 225816, Note_on_c, 0, 66, 60
2, 225821, Note_off_c, 0, 80, 57
2, 225823, Note_on_c, 0, 54, 54
2, 225824, Note_on_c, 0, 78, 66
2, 226322, Note_off_c, 0, 85, 53
2, 226357, Note_off_c, 0, 87, 55
2, 226551, Note_off_c, 0, 57, 53
2, 226594, Note_off_c, 0, 61, 55
2, 226646, Note_off_c, 0, 63, 57
2, 226647, Note_off_c, 0, 66, 55
2, 226720, Note_off_c, 0, 54, 53
2, 226862, Note_off_c, 0, 32, 61
2, 226921, Note_off_c, 0, 90, 59
2, 226922, Note_on_c, 0, 95, 74
2, 226926, Note_on_c, 0, 63, 58
2, 226926, Control_c, 0, 64, 20
2, 226927, Note_on_c, 0, 59, 48
2, 226930, Note_on_c, 0, 61, 50
2, 226931, Note_on_c, 0, 66, 70
2, 226932, Note_on_c, 0, 83, 68
2, 226933, Note_on_c, 0, 85, 62
2, 226935, Note_on_c, 0, 71, 62
2, 226937, Note_off_c, 0, 78, 56
2, 226940, Note_on_c, 0, 87, 54
2, 227166, Control_c, 0, 64, 96
2, 227453, Note_on_c, 0, 32, 77
2, 227976, Note_off_c, 0, 32, 59
2, 227978, Note_on_c, 0, 44, 81
2, 228330, Note_off_c, 0, 71, 55
2, 228350, Note_off_c, 0, 61, 52
2, 228353, Note_off_c, 0, 83, 57
2, 228379, Note_off_c, 0, 63, 54
2, 228404, Note_off_c, 0, 59, 52
2, 228491, Note_off_c, 0, 44, 60
2, 228491, Note_on_c, 0, 51, 85
2, 228518, Note_off_c, 0, 66, 57
2, 228598, Note_off_c, 0, 87, 53
2, 228630, Note_off_c, 0, 85, 55
2, 228993, Note_off_c, 0, 51, 61
2, 228994, Note_off_c, 0, 95, 59
2, 228995, Note_on_c, 0, 54, 55
2, 228996, Note_on_c, 0, 90, 89
2, 228998, Note_on_c, 0, 63, 78
2, 228999, Note_on_c, 0, 66, 83
2, 229000, Note_on_c, 0, 57, 65
2, 229003, Note_on_c, 0, 61, 72
2, 229006, Note_on_c, 0, 85, 62
2, 229007, Note_on_c, 0, 87, 69
2, 229008, Note_on_c, 0, 78, 77
2, 229330, Note_off_c, 0, 57, 56
2, 229487, Note_off_c, 0, 54, 53
2, 229488, Note_off_c, 0, 90, 62
2, 229489, Note_on_c, 0, 93, 93
2, 229492, Note_off_c, 0, 66, 60
2, 229497, Note_on_c, 0, 57, 62
2, 229498, Note_on_c, 0, 69, 70
2, 229499, Note_on_c, 0, 81, 81
2, 229501, Note_off_c, 0, 78, 59
2, 229731, Note_off_c, 0, 87, 57
2, 229732, Note_off_c, 0, 61, 58
2, 229784, Note_off_c, 0, 63, 59
2, 229792, Note_off_c, 0, 69, 57
2, 229808, Note_off_c, 0, 81, 60
2, 229822, Note_off_c, 0, 57, 55
2, 229826, Note_off_c, 0, 93, 63
2, 229843, Note_off_c, 0, 85, 55
2, 229924, Note_on_c, 0, 32, 96
2, 229973, Note_on_c, 0, 97, 95
2, 229977, Note_on_c, 0, 61, 66
2, 229978, Note_on_c, 0, 63, 70
2, 229980, Control_c, 0, 64, 20
2, 229981, Note_on_c, 0, 73, 92
2, 229982, Note_on_c, 0, 66, 76
2, 229982, Note_on_c, 0, 87, 83
2, 229983, Note_on_c, 0, 85, 89
2, 229987, Note_on_c, 0, 90, 75
2, 229988, Note_on_c, 0, 69, 88
2, 230218, Control_c, 0, 64, 96
2, 230751, Note_off_c, 0, 63, 57
2, 230756, Note_off_c, 0, 61, 56
2, 230777, Note_off_c, 0, 87, 60
2, 230781, Note_off_c, 0, 73, 62
2, 230792, Note_off_c, 0, 69, 62
2, 230793, Note_off_c, 0, 85, 62
2, 230794, Note_off_c, 0, 66, 59
2, 231049, Note_off_c, 0, 97, 63
2, 231050, Note_on_c, 0, 92, 88
2, 231058, Control_c, 0, 64, 20
2, 231060, Note_on_c, 0, 85, 65
2, 231064, Note_off_c, 0, 90, 59
2, 231065, Note_on_c, 0, 57, 58
2, 231066, Note_on_c, 0, 56, 52
2, 231067, Note_on_c, 0, 80, 82
2, 231068, Note_on_c, 0, 68, 76
2, 231070, Note_on_c, 0, 87, 68
2, 231071, Note_on_c, 0, 63, 70
2, 231071, Note_on_c, 0, 61, 66
2, 231305, Control_c, 0, 64, 96
2, 231900, Note_off_c, 0, 56, 53
2, 231986, Note_off_c, 0, 68, 59
2, 232166, Note_off_c, 0, 92, 62
2, 232167, Note_on_c, 0, 90, 82
2, 232174, Control_c, 0, 64, 20
2, 232175, Note_on_c, 0, 78, 76
2, 232176, Note_on_c, 0, 54, 62
2, 232183, Note_off_c, 0, 80, 60
2, 232184, Note_on_c, 0, 66, 70
2, 232430, Control_c, 0, 64, 96
2, 232697, Note_off_c, 0, 85, 56
2, 232751, Note_off_c, 0, 87, 57
2, 232948, Note_off_c, 0, 57, 54
2, 233000, Note_off_c, 0, 61, 56
2, 233045, Note_off_c, 0, 63, 57
2, 233048, Note_off_c, 0, 66, 57
2, 233107, Note_off_c, 0, 54, 55
2, 233261, Note_off_c, 0, 32, 63
2, 233323, Note_off_c, 0, 90, 60
2, 233324, Note_on_c, 0, 95, 90
2, 233330, Note_on_c, 0, 71, 76
2, 233333, Note_off_c, 0, 78, 59
2, 233334, Note_on_c, 0, 87, 68
2, 233335, Control_c, 0, 64, 20
2, 233338, Note_on_c, 0, 59, 56
2, 233339, Note_on_c, 0, 83, 78
2, 233340, Note_on_c, 0, 63, 66
2, 233341, Note_on_c, 0, 66, 71
2, 233342, Note_on_c, 0, 61, 62
2, 233344, Note_on_c, 0, 85, 61
2, 233573, Control_c, 0, 64, 96
2, 234147, Note_off_c, 0, 66, 58
2, 234401, Note_off_c, 0, 95, 62
2, 234402, Note_on_c, 0, 90, 74
2, 234409, Note_off_c, 0, 71, 59
2, 234410, Note_on_c, 0, 54, 54
2, 234415, Note_on_c, 0, 66, 60
2, 234416, Note_on_c, 0, 78, 66
2, 234418, Note_off_c, 0, 59, 54
2, 234419, Note_off_c, 0, 83, 59
2, 234916, Note_off_c, 0, 63, 56
2, 235169, Note_off_c, 0, 87, 57
2, 235191, Note_off_c, 0, 61, 55
2, 235208, Note_off_c, 0, 85, 55
2, 235516, Note_on_c, 0, 51, 56
2, 235517, Note_on_c, 0, 58, 61
2, 235520, Note_on_c, 0, 61, 66
2, 235523, Note_on_c, 0, 75, 80
2, 235524, Note_on_c, 0, 70, 68
2, 235525, Note_off_c, 0, 90, 58
2, 235526, Note_on_c, 0, 73, 60
2, 235527, Note_on_c, 0, 67, 66
2, 235528, Note_on_c, 0, 63, 76
2, 235529, Control_c, 0, 64, 20
2, 235532, Note_off_c, 0, 54, 53
2, 235536, Note_off_c, 0, 66, 55
2, 235538, Note_off_c, 0, 78, 56
2, 235787, Control_c, 0, 64, 96
2, 236163, Note_off_c, 0, 51, 54
2, 236166, Note_off_c, 0, 61, 56
2, 236204, Note_off_c, 0, 75, 60
2, 236235, Note_off_c, 0, 63, 59
2, 236261, Note_off_c, 0, 67, 56
2, 236269, Note_off_c, 0, 73, 55
2, 236292, Note_off_c, 0, 70, 57
2, 236389, Note_off_c, 0, 58, 55
2, 236686, Note_on_c, 0, 61, 70
2, 236688, Note_on_c, 0, 49, 60
2, 236691, Note_on_c, 0, 71, 52
2, 236692, Note_on_c, 0, 73, 72
2, 236693, Note_on_c, 0, 68, 60
2, 236693, Note_on_c, 0, 56, 60
2, 236694, Note_on_c, 0, 65, 66
2, 236694, Note_on_c, 0, 59, 65
2, 236697, Control_c, 0, 64, 20
2, 236935, Control_c, 0, 64, 96
2, 237323, Note_off_c, 0, 61, 57
2, 237347, Note_off_c, 0, 71, 53
2, 237349, Note_off_c, 0, 56, 55
2, 237360, Note_off_c, 0, 49, 55
2, 237393, Note_off_c, 0, 73, 58
2, 237414, Note_off_c, 0, 59, 56
2, 237422, Note_off_c, 0, 68, 55
2, 237442, Note_off_c, 0, 65, 56
2, 237754, Note_on_c, 0, 47, 45
2, 237755, Note_on_c, 0, 71, 60
2, 237756, Note_on_c, 0, 57, 50
2, 237757, Note_on_c, 0, 59, 58
2, 237758, Note_on_c, 0, 66, 48
2, 237760, Note_on_c, 0, 69, 40
2, 237762, Note_on_c, 0, 54, 50
2, 237767, Note_on_c, 0, 63, 54
2, 237775, Control_c, 0, 64, 20
2, 238017, Control_c, 0, 64, 96
2, 238381, Note_off_c, 0, 57, 52
2, 238391, Note_off_c, 0, 66, 52
2, 238409, Note_off_c, 0, 59, 54
2, 238428, Note_off_c, 0, 69, 50
2, 238440, Note_off_c, 0, 63, 53
2, 238470, Note_off_c, 0, 47, 51
2, 238500, Note_off_c, 0, 54, 52
2, 238528, Note_off_c, 0, 71, 55
2, 238851, Note_on_c, 0, 45, 32
2, 238854, Note_on_c, 0, 52, 36
2, 238856, Note_on_c, 0, 67, 28
2, 238857, Note_on_c, 0, 55, 40
2, 238858, Note_on_c, 0, 69, 48
2, 238859, Note_on_c, 0, 64, 36
2, 238862, Note_on_c, 0, 57, 45
2, 238865, Control_c, 0, 64, 20
2, 238866, Note_on_c, 0, 61, 42
2, 239112, Control_c, 0, 64, 96
2, 239190, Note_off_c, 0, 45, 48
2, 239206, Note_off_c, 0, 67, 47
2, 239208, Note_off_c, 0, 52, 49
2, 239211, Note_off_c, 0, 55, 50
2, 239226, Note_off_c, 0, 57, 51
2, 239253, Note_off_c, 0, 69, 52
2, 239266, Note_off_c, 0, 64, 49
2, 239271, Note_off_c, 0, 61, 50
2, 239409, Note_on_c, 0, 71, 22
2, 239411, Note_on_c, 0, 73, 42
2, 239414, Note_on_c, 0, 61, 40
2, 239414, Note_on_c, 0, 56, 30
2, 239417, Note_on_c, 0, 59, 35
2, 239421, Note_on_c, 0, 68, 30
2, 239423, Note_on_c, 0, 49, 25
2, 239425, Note_on_c, 0, 65, 36
2, 239729, Note_off_c, 0, 68, 47
2, 239743, Note_off_c, 0, 65, 49
2, 239749, Note_off_c, 0, 56, 47
2, 239752, Note_off_c, 0, 59, 48
2, 239754, Note_off_c, 0, 73, 50
2, 239784, Note_off_c, 0, 71, 45
2, 239804, Note_off_c, 0, 61, 50
2, 239822, Note_off_c, 0, 49, 46
2, 239974, Note_on_c, 0, 44, 20
2, 239975, Note_on_c, 0, 60, 30
2, 239976, Note_on_c, 0, 51, 22
2, 239984, Note_on_c, 0, 66, 16
2, 239984, Note_on_c, 0, 54, 28
2, 239988, Note_on_c, 0, 63, 24
2, 239989, Note_on_c, 0, 68, 36
2, 239991, Note_on_c, 0, 56, 32
2, 239995, Control_c, 0, 64, 20
2, 240252, Control_c, 0, 64, 96
2, 241319, Note_off_c, 0, 54, 47
2, 241327, Note_off_c, 0, 51, 45
2, 241350, Note_off_c, 0, 66, 44
2, 241464, Note_off_c, 0, 63, 46
2, 241469, Note_off_c, 0, 60, 47
2, 241494, Note_off_c, 0, 56, 48
2, 241499, Note_off_c, 0, 44, 45
2, 241517, Note_off_c, 0, 68, 49
2, 242308, Note_on_c, 0, 61, 26
2, 242309, Note_on_c, 0, 49, 38
2, 242309, Note_on_c, 0, 39, 30
2, 242314, Note_on_c, 0, 46, 32
2, 242315, Note_on_c, 0, 55, 40
2, 242316, Note_on_c, 0, 63, 46
2, 242322, Note_on_c, 0, 51, 42
2, 242323, Note_on_c, 0, 58, 34
2, 242991, Note_off_c, 0, 39, 47
2, 243002, Note_off_c, 0, 61, 46
2, 243027, Note_off_c, 0, 55, 50
2, 243031, Note_off_c, 0, 46, 48
2, 243064, Note_off_c, 0, 63, 51
2, 243075, Note_off_c, 0, 58, 48
2, 243085, Note_off_c, 0, 51, 50
2, 243106, Note_off_c, 0, 49, 49
2, 243494, Note_on_c, 0, 63, 24
2, 243496, Note_on_c, 0, 54, 28
2, 243497, Note_on_c, 0, 68, 36
2, 243498, Note_on_c, 0, 44, 20
2, 243499, Note_on_c, 0, 60, 30
2, 243500, Note_on_c, 0, 56, 32
2, 243502, Note_on_c, 0, 51, 22
2, 243506, Note_on_c, 0, 66, 16
2, 243508, Control_c, 0, 64, 20
2, 243765, Control_c, 0, 64, 96
2, 244781, Note_off_c, 0, 66, 44
2, 244830, Note_off_c, 0, 60, 47
2, 244905, Note_off_c, 0, 56, 48
2, 244922, Note_off_c, 0, 63, 46
2, 244958, Note_off_c, 0, 44, 45
2, 245008, Note_off_c, 0, 54, 47
2, 245023, Note_off_c, 0, 51, 45
2, 245054, Note_off_c, 0, 68, 49
2, 245715, Note_on_c, 0, 68, 41
2, 245716, Note_on_c, 0, 73, 53
2, 245722, Note_on_c, 0, 71, 33
2, 245724, Note_on_c, 0, 49, 37
2, 245725, Note_on_c, 0, 59, 45
2, 245727, Note_on_c, 0, 56, 39
2, 245730, Note_on_c, 0, 65, 47
2, 245730, Note_on_c, 0, 61, 49
2, 246332, Note_off_c, 0, 68, 50
2, 246337, Note_off_c, 0, 61, 52
2, 246348, Note_off_c, 0, 56, 49
2, 246356, Note_off_c, 0, 59, 51
2, 246383, Note_off_c, 0, 49, 49
2, 246389, Note_off_c, 0, 73, 53
2, 246449, Note_off_c, 0, 65, 51
2, 246460, Note_off_c, 0, 71, 48
2, 246790, Note_on_c, 0, 44, 18
2, 246791, Note_on_c, 0, 66, 14
2, 246792, Note_on_c, 0, 68, 34
2, 246794, Note_on_c, 0, 60, 28
2, 246795, Note_on_c, 0, 54, 26
2, 246796, Note_on_c, 0, 56, 30
2, 246803, Note_on_c, 0, 63, 22
2, 246806, Control_c, 0, 64, 20
2, 246808, Note_on_c, 0, 51, 20
2, 247049, Control_c, 0, 64, 96
2, 247890, Note_on_c, 0, 32, 20
2, 250902, Note_off_c, 0, 32, 45
2, 251237, Note_on_c, 0, 32, 20
2, 253058, Note_off_c, 0, 32, 45
2, 253513, Note_off_c, 0, 44, 44
2, 253514, Note_off_c, 0, 66, 44
2, 253515, Note_off_c, 0, 68, 48
2, 253516, Note_off_c, 0, 60, 47
2, 253518, Note_off_c, 0, 54, 46
2, 253520, Note_off_c, 0, 56, 47
2, 253523, Note_on_c, 0, 30, 26
2, 253524, Note_on_c, 0, 32, 30
2, 253527, Note_off_c, 0, 63, 45
2, 253532, Note_off_c, 0, 51, 45
2, 253537, Control_c, 0, 64, 20
2, 253798, Control_c, 0, 64, 96
2, 254681, Note_on_c, 0, 36, 28
2, 256050, Note_off_c, 0, 32, 47
2, 256316, Note_off_c, 0, 30, 46
2, 256888, Note_off_c, 0, 36, 47
2, 256889, Note_on_c, 0, 30, 21
2, 256890, Note_on_c, 0, 32, 25
2, 256894, Control_c, 0, 64, 20
2, 257156, Control_c, 0, 64, 96
2, 258044, Note_on_c, 0, 36, 24
2, 259645, Note_off_c, 0, 32, 46
2, 259835, Note_off_c, 0, 30, 45
2, 260234, Note_on_c, 0, 30, 23
2, 260235, Note_on_c, 0, 32, 27
2, 260242, Control_c, 0, 64, 20
2, 260503, Control_c, 0, 64, 96
2, 260526, Note_off_c, 0, 36, 46
2, 260528, Note_on_c, 0, 38, 27
2, 260820, Note_off_c, 0, 38, 46
2, 260821, Note_on_c, 0, 36, 27
2, 261106, Note_off_c, 0, 36, 46
2, 261107, Note_on_c, 0, 38, 26
2, 261393, Note_off_c, 0, 38, 46
2, 261394, Note_on_c, 0, 36, 26
2, 261676, Note_off_c, 0, 36, 46
2, 261677, Note_on_c, 0, 38, 26
2, 261959, Note_off_c, 0, 38, 46
2, 261960, Note_on_c, 0, 36, 25
2, 261965, Control_c, 0, 64, 20
2, 262214, Control_c, 0, 64, 96
2, 262237, Note_off_c, 0, 36, 46
2, 262238, Note_on_c, 0, 38, 25
2, 262515, Note_off_c, 0, 38, 46
2, 262516, Note_on_c, 0, 36, 25
2, 262788, Note_off_c, 0, 36, 46
2, 262789, Note_on_c, 0, 38, 24
2, 263061, Note_off_c, 0, 38, 46
2, 263062, Note_on_c, 0, 36, 24
2, 263331, Note_off_c, 0, 36, 46
2, 263332, Note_on_c, 0, 38, 24
2, 263601, Note_off_c, 0, 38, 46
2, 263602, Note_off_c, 0, 30, 45
2, 263603, Note_off_c, 0, 32, 46
2, 263603, Note_on_c, 0, 36, 40
2, 263613, Control_c, 0, 64, 20
2, 263846, Control_c, 0, 64, 96
2, 263904, Note_off_c, 0, 36, 50
2, 263906, Note_on_c, 0, 38, 38
2, 264209, Note_off_c, 0, 38, 49
2, 264210, Note_on_c, 0, 36, 36
2, 264515, Note_off_c, 0, 36, 49
2, 264516, Note_on_c, 0, 38, 34
2, 264826, Note_off_c, 0, 38, 48
2, 264827, Note_on_c, 0, 36, 32
2, 265137, Note_off_c, 0, 36, 48
2, 265137, Note_on_c, 0, 38, 30
2, 265451, Note_off_c, 0, 38, 47
2, 265452, Note_on_c, 0, 36, 28
2, 265462, Control_c, 0, 64, 20
2, 265747, Control_c, 0, 64, 96
2, 265768, Note_off_c, 0, 36, 47
2, 265769, Note_on_c, 0, 38, 26
2, 266085, Note_off_c, 0, 38, 46
2, 266086, Note_on_c, 0, 36, 24
2, 266408, Note_off_c, 0, 36, 46
2, 266409, Note_on_c, 0, 38, 22
2, 266732, Note_off_c, 0, 38, 45
2, 266733, Note_on_c, 0, 36, 20
2, 266896, Control_c, 0, 67, 127
2, 267059, Note_off_c, 0, 36, 45
2, 267060, Note_on_c, 0, 38, 18
2, 267389, Note_off_c, 0, 38, 44
2, 267390, Note_on_c, 0, 36, 30
2, 267406, Control_c, 0, 64, 20
2, 267701, Control_c, 0, 64, 96
2, 267719, Note_off_c, 0, 36, 47
2, 267720, Note_on_c, 0, 38, 27
2, 268056, Note_off_c, 0, 38, 46
2, 268057, Note_on_c, 0, 36, 25
2, 268392, Note_off_c, 0, 36, 46
2, 268393, Note_on_c, 0, 31, 22
2, 268732, Note_off_c, 0, 31, 45
2, 268732, Note_on_c, 0, 24, 20
2, 268733, Note_on_c, 0, 60, 30
2, 268736, Note_on_c, 0, 55, 25
2, 268747, Note_on_c, 0, 48, 28
2, 268752, Note_on_c, 0, 52, 20
2, 269077, Note_off_c, 0, 24, 45
2, 269079, Note_on_c, 0, 31, 23
2, 269425, Note_off_c, 0, 31, 45
2, 269426, Note_on_c, 0, 36, 26
2, 269635, Note_off_c, 0, 48, 47
2, 269756, Note_off_c, 0, 52, 45
2, 269767, Note_off_c, 0, 36, 46
2, 269768, Note_on_c, 0, 38, 30
2, 269801, Note_off_c, 0, 55, 46
2, 269826, Note_off_c, 0, 60, 47
2, 270106, Note_off_c, 0, 38, 47
2, 270106, Note_on_c, 0, 36, 26
2, 270107, Note_on_c, 0, 62, 35
2, 270117, Note_on_c, 0, 53, 20
2, 270121, Note_on_c, 0, 50, 39
2, 270123, Note_on_c, 0, 57, 24
2, 270441, Note_off_c, 0, 36, 46
2, 270442, Note_on_c, 0, 31, 23
2, 270775, Note_off_c, 0, 31, 45
2, 270777, Note_on_c, 0, 24, 20
2, 270787, Note_off_c, 0, 53, 45
2, 270925, Note_off_c, 0, 57, 46
2, 270980, Note_off_c, 0, 50, 49
2, 271053, Note_off_c, 0, 62, 48
2, 271105, Note_off_c, 0, 24, 45
2, 271105, Note_on_c, 0, 31, 23
2, 271432, Note_off_c, 0, 31, 45
2, 271433, Note_on_c, 0, 36, 26
2, 271434, Note_on_c, 0, 67, 42
2, 271441, Note_on_c, 0, 55, 36
2, 271443, Note_on_c, 0, 59, 25
2, 271446, Note_on_c, 0, 62, 30
2, 271757, Note_off_c, 0, 36, 46
2, 271758, Note_on_c, 0, 38, 30
2, 272077, Note_off_c, 0, 38, 47
2, 272078, Note_on_c, 0, 36, 26
2, 272398, Note_off_c, 0, 36, 46
2, 272399, Note_on_c, 0, 31, 23
2, 272712, Note_off_c, 0, 31, 45
2, 272712, Note_on_c, 0, 24, 20
2, 272845, Note_off_c, 0, 62, 47
2, 272846, Note_off_c, 0, 55, 49
2, 272992, Note_off_c, 0, 67, 50
2, 273026, Note_off_c, 0, 24, 45
2, 273028, Note_on_c, 0, 31, 23
2, 273042, Note_off_c, 0, 59, 46
2, 273338, Note_off_c, 0, 31, 45
2, 273338, Note_on_c, 0, 36, 26
2, 273339, Note_on_c, 0, 65, 37
2, 273352, Note_on_c, 0, 57, 20
2, 273353, Note_on_c, 0, 60, 25
2, 273355, Note_on_c, 0, 53, 30
2, 273653, Note_off_c, 0, 36, 46
2, 273654, Note_on_c, 0, 38, 30
2, 273730, Note_off_c, 0, 57, 45
2, 273823, Note_off_c, 0, 65, 49
2, 273844, Note_off_c, 0, 60, 46
2, 273872, Note_off_c, 0, 53, 47
2, 273968, Note_off_c, 0, 38, 47
2, 273968, Note_on_c, 0, 36, 26
2, 273969, Note_on_c, 0, 64, 36
2, 273980, Note_on_c, 0, 55, 20
2, 273985, Note_on_c, 0, 52, 30
2, 273989, Note_on_c, 0, 59, 25
2, 274285, Note_off_c, 0, 36, 46
2, 274287, Note_on_c, 0, 31, 23
2, 274428, Note_off_c, 0, 55, 45
2, 274432, Note_off_c, 0, 52, 47
2, 274442, Note_off_c, 0, 59, 46
2, 274451, Note_off_c, 0, 64, 49
2, 274607, Note_off_c, 0, 31, 45
2, 274608, Note_on_c, 0, 24, 20
2, 274609, Note_on_c, 0, 62, 34
2, 274614, Note_on_c, 0, 50, 28
2, 274619, Note_on_c, 0, 57, 22
2, 274622, Note_on_c, 0, 53, 19
2, 274931, Note_off_c, 0, 24, 45
2, 274931, Note_on_c, 0, 31, 23
2, 274933, Note_off_c, 0, 53, 45
2, 275014, Note_off_c, 0, 62, 48
2, 275016, Note_off_c, 0, 57, 45
2, 275040, Note_off_c, 0, 50, 47
2, 275122, Note_off_c, 0, 31, 45
2, 275257, Note_on_c, 0, 36, 30
2, 275258, Note_on_c, 0, 62, 33
2, 275260, Control_c, 0, 64, 20
2, 275262, Note_on_c, 0, 53, 22
2, 275263, Note_on_c, 0, 50, 28
2, 275273, Note_on_c, 0, 57, 25
2, 275554, Control_c, 0, 64, 96
2, 275584, Note_off_c, 0, 36, 47
2, 275585, Note_on_c, 0, 38, 27
2, 275918, Note_off_c, 0, 38, 46
2, 275919, Note_on_c, 0, 36, 25
2, 276154, Note_off_c, 0, 57, 46
2, 276252, Note_off_c, 0, 36, 46
2, 276253, Note_on_c, 0, 31, 22
2, 276271, Note_off_c, 0, 50, 47
2, 276303, Note_off_c, 0, 62, 48
2, 276310, Note_off_c, 0, 53, 45
2, 276591, Note_off_c, 0, 31, 45
2, 276592, Note_on_c, 0, 24, 20
2, 276593, Note_on_c, 0, 57, 30
2, 276602, Note_on_c, 0, 52, 15
2, 276603, Note_on_c, 0, 45, 25
2, 276605, Note_on_c, 0, 48, 12
2, 276933, Note_off_c, 0, 24, 45
2, 276934, Note_on_c, 0, 31, 23
2, 277278, Note_off_c, 0, 31, 45
2, 277279, Note_on_c, 0, 36, 26
2, 277481, Note_off_c, 0, 45, 46
2, 277522, Note_off_c, 0, 48, 43
2, 277560, Note_off_c, 0, 52, 44
2, 277624, Note_off_c, 0, 36, 46
2, 277625, Note_on_c, 0, 38, 30
2, 277712, Note_off_c, 0, 57, 47
2, 277973, Note_off_c, 0, 38, 47
2, 277974, Note_on_c, 0, 36, 26
2, 277975, Note_on_c, 0, 64, 34
2, 277980, Note_on_c, 0, 52, 28
2, 277987, Note_on_c, 0, 55, 18
2, 277992, Note_on_c, 0, 59, 22
2, 278321, Note_off_c, 0, 36, 46
2, 278323, Note_on_c, 0, 31, 23
2, 278663, Note_off_c, 0, 31, 45
2, 278663, Note_on_c, 0, 24, 20
2, 278997, Note_off_c, 0, 24, 45
2, 278998, Note_on_c, 0, 31, 23
2, 279323, Note_off_c, 0, 52, 47
2, 279327, Note_off_c, 0, 31, 45
2, 279329, Note_on_c, 0, 36, 26
2, 279466, Note_off_c, 0, 59, 45
2, 279521, Note_off_c, 0, 55, 44
2, 279653, Note_off_c, 0, 36, 46
2, 279654, Note_on_c, 0, 38, 30
2, 279720, Note_off_c, 0, 64, 48
2, 279974, Note_off_c, 0, 38, 47
2, 279975, Note_on_c, 0, 36, 26
2, 279976, Note_on_c, 0, 65, 42
2, 279991, Note_on_c, 0, 53, 36
2, 279993, Note_on_c, 0, 57, 24
2, 279994, Note_on_c, 0, 60, 30
2, 280289, Note_off_c, 0, 36, 46
2, 280289, Note_on_c, 0, 31, 23
2, 280294, Note_off_c, 0, 60, 47
2, 280297, Note_off_c, 0, 53, 49
2, 280343, Note_off_c, 0, 57, 46
2, 280356, Note_off_c, 0, 65, 50
2, 280601, Note_off_c, 0, 31, 45
2, 280602, Note_on_c, 0, 24, 20
2, 280603, Note_on_c, 0, 62, 40
2, 280607, Note_on_c, 0, 57, 25
2, 280615, Note_on_c, 0, 50, 35
2, 280617, Note_on_c, 0, 53, 22
2, 280915, Note_off_c, 0, 24, 45
2, 280915, Note_on_c, 0, 31, 23
2, 281230, Note_off_c, 0, 31, 45
2, 281231, Note_on_c, 0, 36, 26
2, 281546, Note_off_c, 0, 36, 46
2, 281546, Note_on_c, 0, 38, 30
2, 281867, Note_off_c, 0, 38, 47
2, 281868, Note_on_c, 0, 36, 26
2, 281982, Note_off_c, 0, 50, 48
2, 282023, Note_off_c, 0, 53, 45
2, 282167, Note_off_c, 0, 57, 46
2, 282178, Note_off_c, 0, 62, 50
2, 282187, Note_off_c, 0, 36, 46
2, 282188, Note_on_c, 0, 31, 23
2, 282514, Note_off_c, 0, 31, 45
2, 282515, Note_on_c, 0, 24, 20
2, 282516, Note_on_c, 0, 60, 36
2, 282520, Note_on_c, 0, 52, 20
2, 282521, Note_on_c, 0, 55, 24
2, 282533, Note_on_c, 0, 48, 30
2, 282803, Note_off_c, 0, 55, 46
2, 282815, Note_off_c, 0, 52, 45
2, 282827, Note_off_c, 0, 48, 47
2, 282841, Note_off_c, 0, 24, 45
2, 282841, Note_on_c, 0, 31, 23
2, 282844, Note_off_c, 0, 60, 49
2, 283034, Note_off_c, 0, 31, 45
2, 283168, Note_on_c, 0, 36, 30
2, 283169, Note_on_c, 0, 60, 35
2, 283175, Note_on_c, 0, 52, 20
2, 283181, Control_c, 0, 64, 20
2, 283185, Note_on_c, 0, 55, 24
2, 283189, Note_on_c, 0, 48, 30
2, 283481, Control_c, 0, 64, 96
2, 283502, Note_off_c, 0, 36, 47
2, 283503, Note_on_c, 0, 38, 27
2, 283836, Note_off_c, 0, 38, 46
2, 283838, Note_on_c, 0, 36, 25
2, 284174, Note_off_c, 0, 36, 46
2, 284175, Note_on_c, 0, 31, 22
2, 284516, Note_off_c, 0, 31, 45
2, 284517, Note_on_c, 0, 24, 20
2, 284857, Note_off_c, 0, 24, 45
2, 284859, Note_on_c, 0, 31, 23
2, 285063, Note_off_c, 0, 55, 46
2, 285172, Note_off_c, 0, 52, 45
2, 285204, Note_off_c, 0, 31, 45
2, 285205, Note_on_c, 0, 36, 26
2, 285256, Note_off_c, 0, 48, 47
2, 285547, Note_off_c, 0, 60, 48
2, 285552, Note_off_c, 0, 36, 46
2, 285553, Note_on_c, 0, 38, 30
2, 285903, Note_off_c, 0, 38, 47
2, 285904, Note_on_c, 0, 36, 26
2, 285905, Note_on_c, 0, 57, 30
2, 285908, Note_on_c, 0, 52, 20
2, 285926, Note_on_c, 0, 48, 16
2, 285927, Note_on_c, 0, 45, 25
2, 286248, Note_off_c, 0, 36, 46
2, 286249, Note_on_c, 0, 31, 23
2, 286596, Note_off_c, 0, 31, 45
2, 286598, Note_on_c, 0, 24, 20
2, 286940, Note_off_c, 0, 24, 45
2, 286941, Note_on_c, 0, 31, 23
2, 287041, Note_off_c, 0, 52, 45
2, 287194, Note_off_c, 0, 48, 44
2, 287274, Note_off_c, 0, 57, 47
2, 287279, Note_off_c, 0, 31, 45
2, 287280, Note_on_c, 0, 36, 26
2, 287281, Note_on_c, 0, 58, 33
2, 287289, Note_on_c, 0, 53, 21
2, 287290, Note_on_c, 0, 46, 30
2, 287293, Note_off_c, 0, 45, 46
2, 287298, Note_on_c, 0, 50, 18
2, 287619, Note_off_c, 0, 36, 46
2, 287620, Note_on_c, 0, 38, 30
2, 287953, Note_off_c, 0, 38, 47
2, 287954, Note_on_c, 0, 36, 26
2, 288175, Note_off_c, 0, 53, 45
2, 288275, Note_off_c, 0, 50, 44
2, 288285, Note_off_c, 0, 36, 46
2, 288286, Note_on_c, 0, 31, 23
2, 288336, Note_off_c, 0, 46, 47
2, 288454, Note_off_c, 0, 58, 48
2, 288616, Note_off_c, 0, 31, 45
2, 288617, Note_on_c, 0, 24, 20
2, 288618, Note_on_c, 0, 62, 37
2, 288621, Note_on_c, 0, 57, 25
2, 288623, Note_on_c, 0, 50, 31
2, 288625, Note_on_c, 0, 53, 21
2, 288943, Note_off_c, 0, 24, 45
2, 288944, Note_on_c, 0, 31, 23
2, 289271, Note_off_c, 0, 31, 45
2, 289272, Note_on_c, 0, 36, 26
2, 289406, Note_off_c, 0, 57, 46
2, 289590, Note_off_c, 0, 50, 47
2, 289591, Note_off_c, 0, 36, 46
2, 289592, Note_on_c, 0, 38, 30
2, 289635, Note_off_c, 0, 53, 45
2, 289646, Note_off_c, 0, 62, 49
2, 289911, Note_off_c, 0, 38, 47
2, 289913, Note_on_c, 0, 36, 26
2, 289914, Note_on_c, 0, 65, 42
2, 289918, Note_on_c, 0, 57, 28
2, 289929, Note_on_c, 0, 60, 32
2, 289931, Note_on_c, 0, 53, 37
2, 290230, Note_off_c, 0, 36, 46
2, 290231, Note_on_c, 0, 31, 23
2, 290546, Note_off_c, 0, 31, 45
2, 290547, Note_on_c, 0, 24, 20
2, 290838, Note_off_c, 0, 60, 48
2, 290860, Note_off_c, 0, 24, 45
2, 290860, Note_on_c, 0, 31, 23
2, 290862, Note_off_c, 0, 57, 47
2, 290972, Note_off_c, 0, 65, 50
2, 290983, Note_off_c, 0, 53, 49
2, 291045, Note_off_c, 0, 31, 45
2, 291172, Note_on_c, 0, 36, 30
2, 291173, Note_on_c, 0, 60, 38
2, 291176, Control_c, 0, 64, 20
2, 291189, Note_on_c, 0, 48, 32
2, 291192, Note_on_c, 0, 52, 20
2, 291193, Note_on_c, 0, 55, 24
2, 291459, Control_c, 0, 64, 96
2, 291487, Note_off_c, 0, 36, 47
2, 291488, Note_on_c, 0, 38, 27
2, 291801, Note_off_c, 0, 38, 46
2, 291802, Note_on_c, 0, 36, 25
2, 292121, Note_off_c, 0, 36, 46
2, 292122, Note_on_c, 0, 31, 22
2, 292442, Note_off_c, 0, 31, 45
2, 292443, Note_on_c, 0, 24, 20
2, 292768, Note_off_c, 0, 24, 45
2, 292769, Note_on_c, 0, 31, 23
2, 293097, Note_off_c, 0, 31, 45
2, 293097, Note_on_c, 0, 36, 26
2, 293208, Note_off_c, 0, 55, 46
2, 293343, Note_off_c, 0, 52, 45
2, 293423, Note_off_c, 0, 60, 49
2, 293427, Note_off_c, 0, 36, 46
2, 293428, Note_on_c, 0, 38, 30
2, 293435, Note_off_c, 0, 48, 48
2, 293761, Note_off_c, 0, 38, 47
2, 293763, Note_on_c, 0, 36, 26
2, 293764, Note_on_c, 0, 57, 30
2, 293766, Note_on_c, 0, 48, 15
2, 293773, Note_on_c, 0, 52, 18
2, 293783, Note_on_c, 0, 45, 25
2, 294101, Note_off_c, 0, 36, 46
2, 294101, Note_on_c, 0, 31, 23
2, 294441, Note_off_c, 0, 31, 45
2, 294442, Note_on_c, 0, 24, 20
2, 294786, Note_off_c, 0, 24, 45
2, 294787, Note_on_c, 0, 31, 23
2, 294897, Note_off_c, 0, 52, 44
2, 295030, Note_off_c, 0, 48, 44
2, 295129, Note_off_c, 0, 57, 47
2, 295133, Note_off_c, 0, 31, 45
2, 295134, Note_on_c, 0, 36, 26
2, 295135, Note_on_c, 0, 58, 32
2, 295144, Note_on_c, 0, 53, 20
2, 295145, Note_off_c, 0, 45, 46
2, 295146, Note_on_c, 0, 50, 16
2, 295149, Note_on_c, 0, 46, 27
2, 295481, Note_off_c, 0, 36, 46
2, 295482, Note_on_c, 0, 38, 30
2, 295827, Note_off_c, 0, 38, 47
2, 295828, Note_on_c, 0, 36, 26
2, 296058, Note_off_c, 0, 53, 45
2, 296153, Note_off_c, 0, 50, 44
2, 296172, Note_off_c, 0, 36, 46
2, 296173, Note_on_c, 0, 31, 23
2, 296231, Note_off_c, 0, 46, 46
2, 296344, Note_off_c, 0, 58, 48
2, 296513, Note_off_c, 0, 31, 45
2, 296513, Note_on_c, 0, 24, 20
2, 296514, Note_on_c, 0, 62, 35
2, 296525, Note_on_c, 0, 57, 22
2, 296527, Note_on_c, 0, 50, 30
2, 296531, Note_on_c, 0, 53, 18
2, 296852, Note_off_c, 0, 24, 45
2, 296853, Note_on_c, 0, 31, 23
2, 297190, Note_off_c, 0, 31, 45
2, 297191, Note_on_c, 0, 36, 26
2, 297337, Note_off_c, 0, 57, 45
2, 297524, Note_off_c, 0, 36, 46
2, 297525, Note_on_c, 0, 38, 30
2, 297529, Note_off_c, 0, 50, 47
2, 297577, Note_off_c, 0, 53, 44
2, 297579, Note_off_c, 0, 62, 48
2, 297856, Note_off_c, 0, 38, 47
2, 297858, Note_on_c, 0, 36, 26
2, 297858, Note_on_c, 0, 65, 38
2, 297865, Note_on_c, 0, 60, 25
2, 297867, Note_on_c, 0, 57, 22
2, 297876, Note_on_c, 0, 53, 32
2, 298188, Note_off_c, 0, 36, 46
2, 298189, Note_on_c, 0, 31, 23
2, 298515, Note_off_c, 0, 31, 45
2, 298516, Note_on_c, 0, 24, 20
2, 298808, Note_off_c, 0, 60, 46
2, 298842, Note_off_c, 0, 24, 45
2, 298842, Note_on_c, 0, 31, 23
2, 298849, Note_off_c, 0, 57, 45
2, 298958, Note_off_c, 0, 65, 49
2, 298969, Note_off_c, 0, 53, 48
2, 299032, Note_off_c, 0, 31, 45
2, 299164, Note_on_c, 0, 36, 30
2, 299165, Note_on_c, 0, 67, 41
2, 299169, Control_c, 0, 64, 20
2, 299171, Note_on_c, 0, 55, 37
2, 299175, Note_on_c, 0, 62, 32
2, 299177, Note_on_c, 0, 58, 29
2, 299456, Control_c, 0, 64, 96
2, 299484, Note_off_c, 0, 36, 47
2, 299485, Note_on_c, 0, 38, 27
2, 299805, Note_off_c, 0, 38, 46
2, 299806, Note_on_c, 0, 36, 25
2, 300121, Note_off_c, 0, 36, 46
2, 300123, Note_on_c, 0, 31, 22
2, 300438, Note_off_c, 0, 31, 45
2, 300438, Note_on_c, 0, 24, 20
2, 300721, Note_off_c, 0, 62, 48
2, 300751, Note_off_c, 0, 24, 45
2, 300752, Note_on_c, 0, 31, 23
2, 300760, Note_off_c, 0, 58, 47
2, 300864, Note_off_c, 0, 55, 49
2, 300865, Note_off_c, 0, 67, 50
2, 301064, Note_off_c, 0, 31, 45
2, 301064, Note_on_c, 0, 36, 26
2, 301065, Note_on_c, 0, 65, 30
2, 301076, Note_on_c, 0, 57, 15
2, 301085, Note_on_c, 0, 60, 20
2, 301086, Note_on_c, 0, 53, 25
2, 301388, Note_off_c, 0, 60, 45
2, 301408, Note_off_c, 0, 36, 46
2, 301410, Note_on_c, 0, 38, 30
2, 301417, Note_off_c, 0, 57, 44
2, 301530, Note_off_c, 0, 65, 47
2, 301546, Note_off_c, 0, 53, 46
2, 301748, Note_off_c, 0, 38, 47
2, 301748, Note_on_c, 0, 36, 26
2, 301749, Note_on_c, 0, 67, 37
2, 301752, Note_on_c, 0, 62, 25
2, 301765, Note_on_c, 0, 55, 31
2, 301770, Note_on_c, 0, 58, 22
2, 302043, Note_off_c, 0, 62, 46
2, 302077, Note_off_c, 0, 36, 46
2, 302079, Note_on_c, 0, 31, 23
2, 302096, Note_off_c, 0, 58, 45
2, 302195, Note_off_c, 0, 67, 49
2, 302206, Note_off_c, 0, 55, 47
2, 302402, Note_off_c, 0, 31, 45
2, 302403, Note_on_c, 0, 24, 20
2, 302404, Note_on_c, 0, 70, 44
2, 302415, Note_on_c, 0, 65, 36
2, 302417, Note_on_c, 0, 62, 32
2, 302419, Note_on_c, 0, 58, 40
2, 302693, Note_off_c, 0, 65, 49
2, 302719, Note_off_c, 0, 24, 45
2, 302720, Note_on_c, 0, 31, 23
2, 302731, Note_off_c, 0, 62, 48
2, 302832, Note_off_c, 0, 70, 51
2, 302842, Note_off_c, 0, 58, 50
2, 303032, Note_off_c, 0, 31, 45
2, 303033, Note_on_c, 0, 36, 26
2, 303034, Note_on_c, 0, 67, 51
2, 303048, Note_on_c, 0, 55, 43
2, 303054, Note_on_c, 0, 58, 35
2, 303055, Note_on_c, 0, 62, 40
2, 303380, Note_off_c, 0, 36, 46
2, 303381, Note_on_c, 0, 38, 30
2, 303725, Note_off_c, 0, 38, 47
2, 303726, Note_on_c, 0, 36, 26
2, 304064, Note_off_c, 0, 36, 46
2, 304065, Note_on_c, 0, 31, 23
2, 304403, Note_off_c, 0, 31, 45
2, 304404, Note_on_c, 0, 24, 20
2, 304736, Note_off_c, 0, 24, 45
2, 304737, Note_on_c, 0, 31, 23
2, 305066, Note_off_c, 0, 31, 45
2, 305067, Note_on_c, 0, 36, 26
2, 305373, Note_off_c, 0, 62, 50
2, 305392, Note_off_c, 0, 36, 46
2, 305393, Note_on_c, 0, 38, 30
2, 305411, Note_off_c, 0, 58, 48
2, 305510, Note_off_c, 0, 67, 52
2, 305519, Note_off_c, 0, 55, 50
2, 305717, Note_off_c, 0, 38, 47
2, 305718, Note_on_c, 0, 36, 26
2, 305719, Note_on_c, 0, 69, 50
2, 305724, Note_on_c, 0, 64, 40
2, 305736, Note_on_c, 0, 57, 45
2, 305738, Note_on_c, 0, 60, 36
2, 306037, Note_off_c, 0, 36, 46
2, 306038, Note_on_c, 0, 31, 23
2, 306355, Note_off_c, 0, 31, 45
2, 306356, Note_on_c, 0, 24, 20
2, 306638, Note_off_c, 0, 64, 50
2, 306668, Note_off_c, 0, 24, 45
2, 306669, Note_on_c, 0, 31, 23
2, 306687, Note_off_c, 0, 60, 49
2, 306780, Note_off_c, 0, 69, 52
2, 306793, Note_off_c, 0, 57, 51
2, 306854, Note_off_c, 0, 31, 45
2, 306981, Note_on_c, 0, 65, 30
2, 306982, Note_on_c, 0, 36, 30
2, 306988, Note_on_c, 0, 57, 15
2, 306990, Note_on_c, 0, 53, 25
2, 306993, Control_c, 0, 64, 20
2, 306996, Note_on_c, 0, 60, 18
2, 307275, Control_c, 0, 64, 96
2, 307297, Note_off_c, 0, 36, 47
2, 307297, Note_on_c, 0, 38, 27
2, 307611, Note_off_c, 0, 38, 46
2, 307611, Note_on_c, 0, 36, 25
2, 307925, Note_off_c, 0, 36, 46
2, 307926, Note_on_c, 0, 31, 22
2, 308240, Note_off_c, 0, 31, 45
2, 308240, Note_on_c, 0, 24, 20
2, 308559, Note_off_c, 0, 24, 45
2, 308561, Note_on_c, 0, 31, 23
2, 308880, Note_off_c, 0, 31, 45
2, 308881, Note_on_c, 0, 36, 26
2, 309201, Note_off_c, 0, 36, 46
2, 309202, Note_on_c, 0, 38, 30
2, 309522, Note_off_c, 0, 38, 47
2, 309523, Note_on_c, 0, 36, 26
2, 309848, Note_off_c, 0, 36, 46
2, 309848, Note_on_c, 0, 31, 23
2, 310175, Note_off_c, 0, 31, 45
2, 310176, Note_on_c, 0, 24, 20
2, 310478, Note_off_c, 0, 60, 44
2, 310503, Note_off_c, 0, 24, 45
2, 310504, Note_on_c, 0, 31, 23
2, 310506, Note_off_c, 0, 57, 44
2, 310620, Note_off_c, 0, 65, 47
2, 310622, Note_off_c, 0, 53, 46
2, 310830, Note_off_c, 0, 31, 45
2, 310830, Note_on_c, 0, 36, 26
2, 310831, Note_on_c, 0, 62, 32
2, 310842, Note_on_c, 0, 53, 17
2, 310846, Note_on_c, 0, 57, 20
2, 310848, Note_on_c, 0, 50, 27
2, 311161, Note_off_c, 0, 36, 46
2, 311164, Note_on_c, 0, 38, 30
2, 311496, Note_off_c, 0, 38, 47
2, 311497, Note_on_c, 0, 36, 26
2, 311830, Note_off_c, 0, 36, 46
2, 311831, Note_on_c, 0, 31, 23
2, 312164, Note_off_c, 0, 31, 45
2, 312165, Note_on_c, 0, 24, 20
2, 312219, Note_off_c, 0, 57, 45
2, 312446, Note_off_c, 0, 50, 46
2, 312451, Note_off_c, 0, 53, 44
2, 312503, Note_off_c, 0, 24, 45
2, 312504, Note_on_c, 0, 31, 23
2, 312625, Note_off_c, 0, 62, 48
2, 312844, Note_off_c, 0, 31, 45
2, 312845, Note_on_c, 0, 36, 26
2, 312846, Note_on_c, 0, 64, 36
2, 312851, Note_on_c, 0, 55, 22
2, 312854, Note_on_c, 0, 59, 25
2, 312866, Note_on_c, 0, 52, 30
2, 313186, Note_off_c, 0, 36, 46
2, 313186, Note_on_c, 0, 38, 30
2, 313526, Note_off_c, 0, 38, 47
2, 313527, Note_on_c, 0, 36, 26
2, 313873, Note_off_c, 0, 36, 46
2, 313874, Note_on_c, 0, 31, 23
2, 314219, Note_off_c, 0, 31, 45
2, 314220, Note_on_c, 0, 24, 20
2, 314340, Note_off_c, 0, 59, 46
2, 314422, Note_off_c, 0, 55, 45
2, 314566, Note_off_c, 0, 24, 45
2, 314568, Note_on_c, 0, 31, 23
2, 314599, Note_off_c, 0, 52, 47
2, 314692, Note_off_c, 0, 64, 49
2, 314731, Control_c, 0, 67, 0
2, 314774, Note_off_c, 0, 31, 45
2, 314917, Note_on_c, 0, 24, 34
2, 314922, Control_c, 0, 64, 20
2, 315237, Control_c, 0, 64, 96
2, 315609, Note_on_c, 0, 74, 35
2, 315612, Note_on_c, 0, 62, 30
2, 315614, Note_on_c, 0, 60, 32
2, 315615, Note_on_c, 0, 72, 30
2, 315620, Note_on_c, 0, 50, 23
2, 315621, Note_on_c, 0, 67, 25
2, 315626, Note_on_c, 0, 55, 27
2, 315973, Note_off_c, 0, 67, 46
2, 315979, Note_off_c, 0, 72, 47
2, 315991, Note_off_c, 0, 55, 46
2, 316003, Note_off_c, 0, 74, 48
2, 316005, Note_off_c, 0, 60, 48
2, 316020, Note_off_c, 0, 50, 45
2, 316033, Note_off_c, 0, 62, 47
2, 316301, Note_on_c, 0, 74, 25
2, 316304, Note_on_c, 0, 57, 27
2, 316307, Note_on_c, 0, 52, 24
2, 316309, Note_on_c, 0, 76, 37
2, 316310, Note_on_c, 0, 69, 20
2, 316316, Note_on_c, 0, 62, 33
2, 316321, Note_on_c, 0, 64, 30
2, 316653, Note_off_c, 0, 74, 46
2, 316659, Note_off_c, 0, 52, 46
2, 316669, Note_off_c, 0, 57, 46
2, 316678, Note_off_c, 0, 64, 47
2, 316681, Note_off_c, 0, 76, 49
2, 316690, Note_off_c, 0, 62, 48
2, 316748, Note_off_c, 0, 69, 45
2, 317017, Note_on_c, 0, 83, 39
2, 317019, Note_on_c, 0, 76, 27
2, 317021, Note_on_c, 0, 72, 20
2, 317022, Note_on_c, 0, 60, 30
2, 317024, Note_on_c, 0, 59, 24
2, 317025, Note_on_c, 0, 67, 36
2, 317030, Note_on_c, 0, 71, 33
2, 317372, Note_off_c, 0, 60, 47
2, 317378, Note_off_c, 0, 76, 46
2, 317399, Note_off_c, 0, 71, 48
2, 317402, Note_off_c, 0, 83, 49
2, 317432, Note_off_c, 0, 72, 45
2, 317449, Note_off_c, 0, 67, 49
2, 317477, Note_off_c, 0, 59, 46
2, 317748, Note_on_c, 0, 72, 30
2, 317749, Note_on_c, 0, 74, 34
2, 317752, Note_on_c, 0, 84, 21
2, 317755, Note_on_c, 0, 79, 30
2, 317757, Note_on_c, 0, 67, 25
2, 317759, Note_on_c, 0, 62, 20
2, 317762, Note_on_c, 0, 86, 41
2, 318093, Note_off_c, 0, 74, 48
2, 318111, Note_off_c, 0, 84, 45
2, 318123, Note_off_c, 0, 62, 45
2, 318135, Note_off_c, 0, 86, 50
2, 318136, Note_off_c, 0, 79, 47
2, 318139, Note_off_c, 0, 72, 47
2, 318187, Note_off_c, 0, 67, 46
2, 318505, Note_on_c, 0, 86, 23
2, 318507, Note_on_c, 0, 88, 43
2, 318508, Note_on_c, 0, 64, 22
2, 318516, Note_on_c, 0, 74, 30
2, 318519, Note_on_c, 0, 69, 25
2, 318519, Note_on_c, 0, 81, 31
2, 318520, Note_on_c, 0, 76, 37
2, 318769, Note_off_c, 0, 24, 48
2, 318889, Note_off_c, 0, 64, 45
2, 318892, Note_off_c, 0, 81, 47
2, 318894, Note_off_c, 0, 69, 46
2, 318897, Note_off_c, 0, 86, 45
2, 318912, Note_off_c, 0, 76, 49
2, 318931, Note_off_c, 0, 74, 47
2, 318970, Note_off_c, 0, 88, 50
2, 319282, Note_on_c, 0, 103, 45
2, 319288, Control_c, 0, 64, 20
2, 319296, Note_on_c, 0, 36, 42
2, 319297, Note_on_c, 0, 98, 25
2, 319298, Note_on_c, 0, 96, 33
2, 319299, Note_on_c, 0, 31, 36
2, 319301, Note_on_c, 0, 91, 39
2, 319303, Note_on_c, 0, 24, 30
2, 319598, Control_c, 0, 64, 96
2, 319964, Note_on_c, 0, 50, 20
2, 319967, Note_on_c, 0, 72, 30
2, 319969, Note_on_c, 0, 62, 22
2, 319970, Note_on_c, 0, 60, 30
2, 319971, Note_on_c, 0, 55, 25
2, 319973, Note_on_c, 0, 67, 25
2, 319985, Note_on_c, 0, 74, 34
2, 320284, Note_off_c, 0, 72, 47
2, 320288, Note_off_c, 0, 55, 46
2, 320300, Note_off_c, 0, 67, 46
2, 320316, Note_off_c, 0, 62, 45
2, 320345, Note_off_c, 0, 50, 45
2, 320346, Note_off_c, 0, 74, 48
2, 320347, Note_off_c, 0, 60, 47
2, 320672, Note_on_c, 0, 74, 16
2, 320676, Note_on_c, 0, 76, 36
2, 320679, Note_on_c, 0, 57, 27
2, 320681, Note_on_c, 0, 69, 24
2, 320683, Note_on_c, 0, 64, 30
2, 320685, Note_on_c, 0, 52, 20
2, 320685, Note_on_c, 0, 62, 33
2, 320999, Note_off_c, 0, 74, 44
2, 321019, Note_off_c, 0, 64, 47
2, 321040, Note_off_c, 0, 62, 48
2, 321050, Note_off_c, 0, 52, 45
2, 321076, Note_off_c, 0, 57, 46
2, 321083, Note_off_c, 0, 69, 46
2, 321087, Note_off_c, 0, 76, 49
2, 321393, Note_on_c, 0, 67, 35
2, 321401, Note_on_c, 0, 72, 20
2, 321402, Note_on_c, 0, 76, 25
2, 321405, Note_on_c, 0, 59, 24
2, 321410, Note_on_c, 0, 60, 30
2, 321411, Note_on_c, 0, 71, 32
2, 321415, Note_on_c, 0, 83, 38
2, 321719, Note_off_c, 0, 59, 46
2, 321734, Note_off_c, 0, 72, 45
2, 321741, Note_off_c, 0, 76, 46
2, 321763, Note_off_c, 0, 83, 49
2, 321774, Note_off_c, 0, 67, 48
2, 321779, Note_off_c, 0, 71, 48
2, 321851, Note_off_c, 0, 60, 47
2, 322135, Note_on_c, 0, 84, 21
2, 322137, Note_on_c, 0, 79, 30
2, 322138, Note_on_c, 0, 74, 37
2, 322143, Note_on_c, 0, 67, 30
2, 322146, Note_on_c, 0, 86, 41
2, 322150, Note_on_c, 0, 62, 22
2, 322155, Note_on_c, 0, 72, 27
2, 322459, Note_off_c, 0, 79, 47
2, 322470, Note_off_c, 0, 62, 45
2, 322472, Note_off_c, 0, 74, 49
2, 322475, Note_off_c, 0, 84, 45
2, 322544, Note_off_c, 0, 86, 50
2, 322580, Note_off_c, 0, 67, 47
2, 322615, Note_off_c, 0, 72, 46
2, 322894, Note_on_c, 0, 74, 30
2, 322895, Note_on_c, 0, 88, 43
2, 322898, Note_on_c, 0, 86, 32
2, 322900, Note_on_c, 0, 81, 36
2, 322903, Note_on_c, 0, 64, 21
2, 322906, Note_on_c, 0, 76, 38
2, 322909, Note_on_c, 0, 69, 25
2, 323199, Note_off_c, 0, 98, 46
2, 323245, Note_off_c, 0, 103, 51
2, 323252, Note_off_c, 0, 88, 50
2, 323266, Note_off_c, 0, 76, 49
2, 323271, Note_off_c, 0, 81, 49
2, 323272, Note_off_c, 0, 86, 48
2, 323294, Note_off_c, 0, 69, 46
2, 323311, Note_off_c, 0, 74, 47
2, 323350, Note_off_c, 0, 64, 45
2, 323372, Note_off_c, 0, 91, 49
2, 323373, Note_off_c, 0, 96, 48
2, 323675, Note_on_c, 0, 103, 45
2, 323680, Note_on_c, 0, 96, 33
2, 323682, Note_on_c, 0, 98, 25
2, 323685, Note_on_c, 0, 55, 27
2, 323687, Note_on_c, 0, 62, 36
2, 323689, Control_c, 0, 64, 20
2, 323690, Note_off_c, 0, 36, 50
2, 323691, Note_off_c, 0, 31, 49
2, 323694, Note_on_c, 0, 60, 32
2, 323697, Note_off_c, 0, 24, 47
2, 323697, Note_on_c, 0, 91, 39
2, 323699, Note_on_c, 0, 67, 40
2, 323998, Control_c, 0, 64, 96
2, 324324, Note_off_c, 0, 62, 49
2, 324406, Note_off_c, 0, 55, 46
2, 324490, Note_off_c, 0, 67, 50
2, 324491, Note_off_c, 0, 60, 48
2, 324855, Note_off_c, 0, 98, 46
2, 324914, Note_off_c, 0, 96, 48
2, 325029, Note_off_c, 0, 91, 49
2, 325091, Note_off_c, 0, 103, 51
2, 325092, Note_on_c, 0, 79, 39
2, 325099, Note_on_c, 0, 52, 20
2, 325104, Note_on_c, 0, 72, 27
2, 325105, Note_on_c, 0, 64, 35
2, 325106, Note_on_c, 0, 60, 25
2, 325109, Note_on_c, 0, 76, 19
2, 325110, Note_on_c, 0, 67, 37
2, 325111, Note_on_c, 0, 55, 22
2, 326502, Note_off_c, 0, 64, 48
2, 326607, Note_off_c, 0, 67, 49
2, 326612, Note_on_c, 0, 36, 33
2, 326627, Note_on_c, 0, 31, 23
2, 326629, Note_on_c, 0, 24, 15
2, 326753, Note_off_c, 0, 79, 49
2, 326775, Note_off_c, 0, 76, 45
2, 326884, Note_off_c, 0, 60, 46
2, 326952, Note_off_c, 0, 52, 45
2, 327017, Note_off_c, 0, 72, 46
2, 327050, Note_off_c, 0, 55, 45
2, 327906, Note_off_c, 0, 31, 45
2, 328128, Note_off_c, 0, 24, 44
2, 328255, Note_off_c, 0, 36, 48
2, 328256, Note_on_c, 0, 103, 45
2, 328262, Control_c, 0, 64, 20
2, 328263, Note_on_c, 0, 96, 33
2, 328264, Note_on_c, 0, 91, 40
2, 328267, Note_on_c, 0, 60, 20
2, 328274, Note_on_c, 0, 55, 23
2, 328278, Note_on_c, 0, 98, 25
2, 328282, Note_on_c, 0, 62, 30
2, 328286, Note_on_c, 0, 67, 36
2, 328650, Control_c, 0, 64, 96
2, 329149, Note_off_c, 0, 62, 47
2, 329198, Note_off_c, 0, 60, 45
2, 329215, Note_off_c, 0, 67, 49
2, 329232, Note_off_c, 0, 55, 45
2, 329635, Note_off_c, 0, 91, 50
2, 329858, Note_off_c, 0, 98, 46
2, 329876, Note_off_c, 0, 96, 48
2, 330043, Note_off_c, 0, 103, 51
2, 330043, Note_on_c, 0, 79, 38
2, 330049, Note_on_c, 0, 76, 18
2, 330054, Note_on_c, 0, 64, 36
2, 330058, Note_on_c, 0, 55, 25
2, 330065, Note_on_c, 0, 67, 32
2, 330070, Note_on_c, 0, 52, 20
2, 330071, Note_on_c, 0, 72, 27
2, 330075, Note_on_c, 0, 60, 30
2, 332008, Note_on_c, 0, 36, 20
2, 332015, Note_on_c, 0, 31, 17
2, 332035, Note_on_c, 0, 24, 10
2, 338557, Note_off_c, 0, 60, 47
2, 339096, Note_off_c, 0, 31, 44
2, 339132, Note_off_c, 0, 72, 46
2, 339166, Note_off_c, 0, 24, 42
2, 339193, Note_off_c, 0, 64, 49
2, 339219, Note_off_c, 0, 76, 44
2, 339470, Note_off_c, 0, 55, 46
2, 339652, Note_off_c, 0, 52, 45
2, 339655, Note_off_c, 0, 67, 48
2, 340318, Note_off_c, 0, 79, 49
2, 340416, Note_off_c, 0, 36, 45
2, 341683, Control_c, 0, 64, 0
2, 341683, End_track
3, 0, Start_track
3, 0, Title_t, "PreludeEngulfed Cathedral"
3, 0, Channel_prefix, 1
3, 0, End_track
4, 0, Start_track
4, 0, Title_t, "Sequence by Richard Carlson"
4, 0, Channel_prefix, 3
4, 0, End_track
5, 0, Start_track
5, 0, Title_t, "http://geocities.com/lionheart2251"
5, 0, Channel_prefix, 4
5, 0, End_track
6, 0, Start_track
6, 0, Title_t, "lionheart2251@yahoo.com"
6, 0, Channel_prefix, 5
6, 0, End_track
7, 0, Start_track
7, 0, Title_t, "Copyright  2003"
7, 0, Channel_prefix, 6
7, 0, End_track
0, 0, End_of_file
