0, 0, Header, 0, 1, 480
1, 0, Start_track
1, 0, SMPTE_offset, 96, 0, 0, 0, 0
1, 0, Time_signature, 4, 2, 24, 8
1, 0, Key_signature, 0, "major"
1, 0, Tempo, 500000
1, 0, Note_on_c, 0, 70, 72
1, 3, Note_on_c, 0, 82, 82
1, 90, Control_c, 0, 64, 127
1, 92, Note_on_c, 0, 68, 77
1, 110, Note_on_c, 0, 80, 82
1, 113, Note_off_c, 0, 70, 64
1, 136, Note_off_c, 0, 68, 64
1, 168, Note_off_c, 0, 82, 64
1, 198, Control_c, 0, 64, 0
1, 210, Note_off_c, 0, 80, 64
1, 372, Note_on_c, 0, 82, 68
1, 378, Note_on_c, 0, 70, 60
1, 458, Note_off_c, 0, 70, 64
1, 472, Note_on_c, 0, 77, 81
1, 474, Note_off_c, 0, 82, 64
1, 478, Note_on_c, 0, 65, 65
1, 518, Note_off_c, 0, 65, 64
1, 558, Note_off_c, 0, 77, 64
1, 732, Note_on_c, 0, 82, 74
1, 742, Note_on_c, 0, 70, 72
1, 770, Note_off_c, 0, 82, 64
1, 780, Note_off_c, 0, 70, 64
1, 1002, Note_on_c, 0, 68, 81
1, 1008, Note_on_c, 0, 80, 86
1, 1106, Note_off_c, 0, 68, 64
1, 1106, Note_on_c, 0, 65, 71
1, 1109, Note_on_c, 0, 77, 80
1, 1120, Control_c, 0, 64, 127
1, 1166, Note_off_c, 0, 80, 64
1, 1238, Note_off_c, 0, 65, 64
1, 1240, Note_off_c, 0, 77, 64
1, 1242, Control_c, 0, 64, 0
1, 1378, Note_on_c, 0, 75, 63
1, 1384, Note_on_c, 0, 63, 58
1, 1436, Note_off_c, 0, 63, 64
1, 1457, Note_on_c, 0, 59, 89
1, 1461, Note_on_c, 0, 71, 103
1, 1464, Note_off_c, 0, 75, 64
1, 1572, Note_off_c, 0, 59, 64
1, 1612, Control_c, 0, 64, 127
1, 1624, Note_off_c, 0, 71, 64
1, 1872, Control_c, 0, 64, 0
1, 2178, Note_on_c, 0, 56, 61
1, 2178, Note_on_c, 0, 68, 63
1, 2280, Note_off_c, 0, 56, 64
1, 2280, Note_on_c, 0, 65, 63
1, 2287, Note_on_c, 0, 53, 92
1, 2330, Note_off_c, 0, 68, 64
1, 2372, Note_on_c, 0, 63, 76
1, 2392, Note_off_c, 0, 65, 64
1, 2395, Note_on_c, 0, 51, 72
1, 2408, Note_off_c, 0, 53, 64
1, 2472, Note_off_c, 0, 51, 64
1, 2484, Note_on_c, 0, 59, 100
1, 2486, Note_on_c, 0, 47, 92
1, 2488, Note_off_c, 0, 63, 64
1, 2610, Control_c, 0, 64, 127
1, 2642, Note_off_c, 0, 47, 64
1, 2660, Note_off_c, 0, 59, 64
1, 2856, Control_c, 0, 64, 0
1, 3224, Note_on_c, 0, 56, 56
1, 3226, Note_on_c, 0, 44, 62
1, 3326, Note_on_c, 0, 53, 90
1, 3346, Note_on_c, 0, 41, 70
1, 3349, Note_off_c, 0, 56, 64
1, 3349, Note_off_c, 0, 44, 64
1, 3420, Note_on_c, 0, 51, 74
1, 3422, Note_on_c, 0, 39, 72
1, 3438, Note_off_c, 0, 53, 64
1, 3460, Note_off_c, 0, 41, 64
1, 3516, Control_c, 0, 64, 127
1, 3521, Note_on_c, 0, 35, 106
1, 3521, Note_on_c, 0, 47, 98
1, 3546, Note_off_c, 0, 39, 64
1, 3562, Control_c, 0, 64, 0
1, 3580, Note_off_c, 0, 51, 64
1, 3590, Note_off_c, 0, 35, 64
1, 3642, Note_off_c, 0, 47, 64
1, 3786, Note_on_c, 0, 50, 104
1, 3788, Note_on_c, 0, 34, 102
1, 3790, Note_on_c, 0, 55, 100
1, 3796, Note_on_c, 0, 46, 99
1, 3866, Note_off_c, 0, 34, 64
1, 3882, Note_off_c, 0, 46, 64
1, 3898, Note_off_c, 0, 50, 64
1, 3940, Note_off_c, 0, 55, 64
1, 5244, Note_on_c, 0, 39, 61
1, 5250, Note_on_c, 0, 46, 42
1, 5288, Note_off_c, 0, 39, 64
1, 5308, Note_off_c, 0, 46, 64
1, 5494, Note_on_c, 0, 58, 54
1, 5497, Note_on_c, 0, 51, 67
1, 5502, Note_on_c, 0, 55, 67
1, 5506, Note_on_c, 0, 53, 85
1, 5544, Note_off_c, 0, 53, 64
1, 5547, Note_off_c, 0, 55, 64
1, 5596, Note_off_c, 0, 51, 64
1, 5628, Note_off_c, 0, 58, 64
1, 5744, Note_on_c, 0, 46, 61
1, 5756, Note_on_c, 0, 39, 61
1, 5800, Note_off_c, 0, 39, 64
1, 5803, Note_off_c, 0, 46, 64
1, 6006, Note_on_c, 0, 51, 85
1, 6008, Note_on_c, 0, 58, 71
1, 6010, Note_on_c, 0, 55, 81
1, 6012, Note_on_c, 0, 53, 102
1, 6042, Note_off_c, 0, 53, 64
1, 6044, Note_off_c, 0, 51, 64
1, 6050, Note_off_c, 0, 58, 64
1, 6052, Note_off_c, 0, 55, 64
1, 6102, Note_on_c, 0, 58, 67
1, 6105, Note_on_c, 0, 51, 73
1, 6176, Note_off_c, 0, 51, 64
1, 6208, Note_off_c, 0, 58, 64
1, 6240, Note_on_c, 0, 46, 83
1, 6250, Note_on_c, 0, 39, 70
1, 6280, Note_off_c, 0, 46, 64
1, 6288, Note_off_c, 0, 39, 64
1, 6504, Note_on_c, 0, 58, 60
1, 6504, Note_on_c, 0, 51, 66
1, 6506, Note_on_c, 0, 53, 97
1, 6506, Note_on_c, 0, 55, 76
1, 6540, Note_off_c, 0, 53, 64
1, 6548, Note_off_c, 0, 55, 64
1, 6558, Note_off_c, 0, 51, 64
1, 6566, Note_off_c, 0, 58, 64
1, 6756, Note_on_c, 0, 46, 64
1, 6766, Note_on_c, 0, 39, 68
1, 6810, Note_off_c, 0, 46, 64
1, 6816, Note_off_c, 0, 39, 64
1, 7010, Note_on_c, 0, 58, 58
1, 7016, Note_on_c, 0, 51, 58
1, 7018, Note_on_c, 0, 53, 89
1, 7022, Note_on_c, 0, 55, 65
1, 7054, Note_off_c, 0, 53, 64
1, 7064, Note_off_c, 0, 55, 64
1, 7074, Note_off_c, 0, 51, 64
1, 7102, Note_off_c, 0, 58, 64
1, 7282, Note_on_c, 0, 46, 62
1, 7284, Note_on_c, 0, 39, 71
1, 7330, Note_off_c, 0, 46, 64
1, 7330, Note_off_c, 0, 39, 64
1, 7526, Note_on_c, 0, 53, 109
1, 7529, Note_on_c, 0, 55, 87
1, 7530, Note_on_c, 0, 51, 79
1, 7530, Note_on_c, 0, 58, 65
1, 7568, Note_off_c, 0, 51, 64
1, 7573, Note_off_c, 0, 55, 64
1, 7574, Note_off_c, 0, 58, 64
1, 7600, Note_off_c, 0, 53, 64
1, 7624, Note_on_c, 0, 51, 81
1, 7626, Note_on_c, 0, 58, 66
1, 7708, Note_off_c, 0, 51, 64
1, 7732, Note_off_c, 0, 58, 64
1, 7770, Note_on_c, 0, 46, 79
1, 7770, Note_on_c, 0, 39, 75
1, 7803, Note_off_c, 0, 39, 64
1, 7810, Note_off_c, 0, 46, 64
1, 8042, Note_on_c, 0, 55, 68
1, 8042, Note_on_c, 0, 58, 50
1, 8042, Note_on_c, 0, 53, 68
1, 8044, Note_on_c, 0, 51, 43
1, 8086, Note_off_c, 0, 55, 64
1, 8086, Note_off_c, 0, 53, 64
1, 8098, Note_off_c, 0, 58, 64
1, 8098, Note_off_c, 0, 51, 64
1, 8294, Note_on_c, 0, 46, 60
1, 8300, Note_on_c, 0, 39, 57
1, 8346, Note_off_c, 0, 39, 64
1, 8348, Note_off_c, 0, 46, 64
1, 8552, Note_on_c, 0, 51, 34
1, 8554, Note_on_c, 0, 55, 51
1, 8556, Note_on_c, 0, 58, 43
1, 8556, Note_on_c, 0, 53, 79
1, 8598, Note_off_c, 0, 53, 64
1, 8604, Note_off_c, 0, 55, 64
1, 8616, Note_off_c, 0, 51, 64
1, 8630, Note_off_c, 0, 58, 64
1, 8812, Note_on_c, 0, 46, 52
1, 8820, Note_on_c, 0, 39, 44
1, 8864, Note_off_c, 0, 46, 64
1, 8868, Note_off_c, 0, 39, 64
1, 9052, Note_on_c, 0, 58, 52
1, 9052, Note_on_c, 0, 53, 77
1, 9052, Note_on_c, 0, 55, 42
1, 9056, Note_on_c, 0, 51, 55
1, 9092, Note_off_c, 0, 53, 64
1, 9102, Note_off_c, 0, 58, 64
1, 9106, Note_off_c, 0, 51, 64
1, 9114, Note_off_c, 0, 55, 64
1, 9348, Note_on_c, 0, 70, 88
1, 9356, Note_on_c, 0, 46, 70
1, 9361, Note_on_c, 0, 39, 64
1, 9400, Note_off_c, 0, 46, 64
1, 9400, Control_c, 0, 64, 127
1, 9403, Note_off_c, 0, 39, 64
1, 9456, Note_on_c, 0, 68, 79
1, 9518, Note_off_c, 0, 70, 64
1, 9540, Control_c, 0, 64, 0
1, 9594, Note_on_c, 0, 63, 79
1, 9595, Note_on_c, 0, 53, 83
1, 9596, Note_on_c, 0, 56, 59
1, 9598, Note_on_c, 0, 59, 64
1, 9608, Note_off_c, 0, 68, 64
1, 9637, Note_off_c, 0, 53, 64
1, 9650, Note_off_c, 0, 56, 64
1, 9654, Note_off_c, 0, 59, 64
1, 9716, Note_on_c, 0, 70, 64
1, 9738, Note_off_c, 0, 63, 64
1, 9820, Note_off_c, 0, 70, 64
1, 9830, Note_on_c, 0, 46, 67
1, 9833, Note_on_c, 0, 65, 89
1, 9840, Note_on_c, 0, 39, 58
1, 9874, Note_off_c, 0, 46, 64
1, 9880, Note_off_c, 0, 65, 64
1, 9882, Note_off_c, 0, 39, 64
1, 10100, Note_on_c, 0, 70, 85
1, 10110, Note_on_c, 0, 59, 75
1, 10110, Note_on_c, 0, 63, 73
1, 10110, Note_on_c, 0, 53, 71
1, 10112, Note_on_c, 0, 56, 60
1, 10146, Note_off_c, 0, 63, 64
1, 10148, Note_off_c, 0, 59, 64
1, 10156, Note_off_c, 0, 53, 64
1, 10166, Note_off_c, 0, 56, 64
1, 10172, Note_off_c, 0, 70, 64
1, 10370, Note_on_c, 0, 68, 81
1, 10378, Note_on_c, 0, 46, 41
1, 10382, Note_on_c, 0, 39, 50
1, 10428, Note_off_c, 0, 39, 64
1, 10446, Note_off_c, 0, 46, 64
1, 10478, Control_c, 0, 64, 127
1, 10481, Note_on_c, 0, 65, 68
1, 10514, Note_off_c, 0, 68, 64
1, 10554, Control_c, 0, 64, 0
1, 10594, Note_on_c, 0, 59, 63
1, 10596, Note_on_c, 0, 56, 62
1, 10598, Note_on_c, 0, 53, 62
1, 10624, Note_off_c, 0, 65, 64
1, 10643, Note_off_c, 0, 56, 64
1, 10646, Note_off_c, 0, 59, 64
1, 10650, Note_off_c, 0, 53, 64
1, 10730, Note_on_c, 0, 63, 67
1, 10788, Note_off_c, 0, 63, 64
1, 10818, Note_on_c, 0, 46, 61
1, 10819, Note_on_c, 0, 59, 68
1, 10820, Note_on_c, 0, 39, 54
1, 10863, Note_off_c, 0, 59, 64
1, 10864, Note_off_c, 0, 39, 64
1, 10866, Note_off_c, 0, 46, 64
1, 11069, Note_on_c, 0, 63, 80
1, 11070, Note_on_c, 0, 56, 59
1, 11073, Note_on_c, 0, 59, 71
1, 11075, Note_on_c, 0, 53, 73
1, 11105, Note_off_c, 0, 63, 64
1, 11111, Note_off_c, 0, 59, 64
1, 11122, Note_off_c, 0, 56, 64
1, 11123, Note_off_c, 0, 53, 64
1, 11332, Note_on_c, 0, 46, 62
1, 11334, Note_on_c, 0, 39, 72
1, 11336, Note_on_c, 0, 58, 70
1, 11370, Note_off_c, 0, 39, 64
1, 11380, Note_off_c, 0, 46, 64
1, 11390, Note_off_c, 0, 58, 64
1, 11444, Note_on_c, 0, 58, 64
1, 11566, Note_on_c, 0, 55, 71
1, 11582, Note_on_c, 0, 53, 85
1, 11610, Note_off_c, 0, 55, 64
1, 11620, Note_off_c, 0, 53, 64
1, 11672, Note_off_c, 0, 58, 64
1, 11720, Note_on_c, 0, 60, 54
1, 11782, Note_off_c, 0, 60, 64
1, 11810, Note_on_c, 0, 58, 65
1, 11813, Note_on_c, 0, 46, 61
1, 11820, Note_on_c, 0, 39, 53
1, 11860, Note_off_c, 0, 46, 64
1, 11864, Note_off_c, 0, 39, 64
1, 11936, Control_c, 0, 64, 127
1, 12022, Note_off_c, 0, 58, 64
1, 12056, Note_on_c, 0, 70, 87
1, 12060, Note_on_c, 0, 63, 87
1, 12062, Note_on_c, 0, 55, 68
1, 12068, Note_on_c, 0, 53, 89
1, 12090, Control_c, 0, 64, 0
1, 12106, Note_off_c, 0, 53, 64
1, 12108, Note_off_c, 0, 55, 64
1, 12116, Note_off_c, 0, 63, 64
1, 12138, Note_off_c, 0, 70, 64
1, 12314, Note_on_c, 0, 58, 86
1, 12319, Note_on_c, 0, 46, 61
1, 12326, Note_on_c, 0, 39, 65
1, 12368, Note_off_c, 0, 39, 64
1, 12378, Note_off_c, 0, 46, 64
1, 12572, Note_on_c, 0, 55, 63
1, 12583, Note_on_c, 0, 53, 76
1, 12618, Note_off_c, 0, 55, 64
1, 12625, Note_off_c, 0, 53, 64
1, 12822, Note_on_c, 0, 46, 46
1, 12834, Note_on_c, 0, 39, 37
1, 12876, Note_off_c, 0, 46, 64
1, 12888, Note_off_c, 0, 39, 64
1, 13084, Note_on_c, 0, 55, 51
1, 13092, Note_on_c, 0, 53, 76
1, 13134, Note_off_c, 0, 53, 64
1, 13136, Note_off_c, 0, 55, 64
1, 13150, Note_off_c, 0, 58, 64
1, 13336, Note_on_c, 0, 46, 61
1, 13336, Note_on_c, 0, 58, 61
1, 13346, Note_on_c, 0, 39, 38
1, 13384, Note_off_c, 0, 46, 64
1, 13400, Note_off_c, 0, 39, 64
1, 13448, Note_on_c, 0, 56, 59
1, 13462, Note_off_c, 0, 58, 64
1, 13566, Note_on_c, 0, 53, 67
1, 13570, Note_on_c, 0, 51, 40
1, 13610, Note_off_c, 0, 53, 64
1, 13632, Note_off_c, 0, 51, 64
1, 13672, Note_off_c, 0, 56, 64
1, 13712, Note_on_c, 0, 58, 41
1, 13788, Note_off_c, 0, 58, 64
1, 13808, Note_on_c, 0, 46, 61
1, 13820, Note_on_c, 0, 39, 33
1, 13828, Note_on_c, 0, 60, 67
1, 13860, Note_off_c, 0, 46, 64
1, 13878, Note_off_c, 0, 39, 64
1, 13878, Note_off_c, 0, 60, 64
1, 14074, Note_on_c, 0, 51, 59
1, 14074, Note_on_c, 0, 56, 74
1, 14077, Note_on_c, 0, 53, 74
1, 14119, Note_off_c, 0, 53, 64
1, 14120, Note_off_c, 0, 51, 64
1, 14130, Note_off_c, 0, 56, 64
1, 14326, Note_on_c, 0, 39, 58
1, 14328, Note_on_c, 0, 46, 68
1, 14338, Note_on_c, 0, 58, 84
1, 14374, Note_off_c, 0, 39, 64
1, 14380, Note_off_c, 0, 46, 64
1, 14450, Note_on_c, 0, 56, 85
1, 14504, Note_off_c, 0, 58, 64
1, 14567, Note_on_c, 0, 53, 83
1, 14568, Note_on_c, 0, 51, 66
1, 14574, Note_off_c, 0, 56, 64
1, 14609, Note_off_c, 0, 53, 64
1, 14617, Note_off_c, 0, 51, 64
1, 14696, Note_on_c, 0, 58, 75
1, 14802, Note_on_c, 0, 59, 91
1, 14808, Note_on_c, 0, 46, 73
1, 14818, Note_on_c, 0, 39, 34
1, 14852, Note_off_c, 0, 58, 64
1, 14852, Note_off_c, 0, 46, 64
1, 14880, Note_off_c, 0, 39, 64
1, 14886, Note_off_c, 0, 59, 64
1, 15048, Note_on_c, 0, 56, 88
1, 15060, Note_on_c, 0, 51, 45
1, 15060, Note_on_c, 0, 53, 21
1, 15108, Note_off_c, 0, 53, 64
1, 15118, Note_off_c, 0, 51, 64
1, 15130, Note_off_c, 0, 56, 64
1, 15332, Note_on_c, 0, 58, 103
1, 15336, Note_on_c, 0, 46, 102
1, 15420, Note_on_c, 0, 43, 99
1, 15430, Note_off_c, 0, 46, 64
1, 15430, Note_on_c, 0, 55, 103
1, 15440, Control_c, 0, 64, 127
1, 15492, Note_off_c, 0, 58, 64
1, 15494, Note_off_c, 0, 43, 64
1, 15518, Note_off_c, 0, 55, 64
1, 15608, Control_c, 0, 64, 0
1, 15704, Note_on_c, 0, 53, 117
1, 15712, Note_on_c, 0, 41, 107
1, 15798, Note_on_c, 0, 51, 103
1, 15804, Note_on_c, 0, 39, 103
1, 15842, Note_off_c, 0, 41, 64
1, 15845, Note_off_c, 0, 53, 64
1, 15870, Note_off_c, 0, 39, 64
1, 15896, Note_off_c, 0, 51, 64
1, 16070, Note_on_c, 0, 50, 110
1, 16078, Note_on_c, 0, 38, 109
1, 16146, Note_off_c, 0, 50, 64
1, 16176, Note_off_c, 0, 38, 64
1, 16336, Note_on_c, 0, 48, 102
1, 16344, Note_on_c, 0, 36, 114
1, 16438, Note_off_c, 0, 36, 64
1, 16440, Note_off_c, 0, 48, 64
1, 16610, Note_on_c, 0, 43, 100
1, 16612, Note_on_c, 0, 31, 115
1, 16714, Note_off_c, 0, 31, 64
1, 16744, Note_off_c, 0, 43, 64
1, 16874, Note_on_c, 0, 48, 98
1, 16874, Note_on_c, 0, 36, 114
1, 16968, Note_off_c, 0, 36, 64
1, 16980, Note_off_c, 0, 48, 64
1, 17128, Note_on_c, 0, 38, 111
1, 17128, Note_on_c, 0, 50, 106
1, 17202, Note_off_c, 0, 50, 64
1, 17220, Note_off_c, 0, 38, 64
1, 17468, Note_on_c, 0, 70, 99
1, 17468, Note_on_c, 0, 39, 102
1, 17468, Note_on_c, 0, 46, 97
1, 17506, Note_off_c, 0, 46, 64
1, 17516, Note_off_c, 0, 39, 64
1, 17544, Control_c, 0, 64, 127
1, 17602, Note_on_c, 0, 68, 83
1, 17674, Note_off_c, 0, 70, 64
1, 17730, Control_c, 0, 64, 0
1, 17734, Note_on_c, 0, 63, 88
1, 17735, Note_on_c, 0, 53, 104
1, 17736, Note_on_c, 0, 59, 87
1, 17736, Note_on_c, 0, 56, 81
1, 17756, Note_off_c, 0, 68, 64
1, 17775, Note_off_c, 0, 53, 64
1, 17812, Note_off_c, 0, 59, 64
1, 17846, Note_off_c, 0, 56, 64
1, 17848, Note_on_c, 0, 70, 76
1, 17890, Note_off_c, 0, 63, 64
1, 17972, Note_on_c, 0, 46, 101
1, 17980, Note_on_c, 0, 39, 97
1, 17980, Note_on_c, 0, 65, 95
1, 17994, Note_off_c, 0, 70, 64
1, 18018, Note_off_c, 0, 39, 64
1, 18054, Note_off_c, 0, 46, 64
1, 18066, Note_off_c, 0, 65, 64
1, 18066, Control_c, 0, 64, 127
1, 18098, Control_c, 0, 64, 0
1, 18240, Note_on_c, 0, 70, 95
1, 18246, Note_on_c, 0, 59, 94
1, 18246, Note_on_c, 0, 53, 111
1, 18247, Note_on_c, 0, 56, 93
1, 18248, Note_on_c, 0, 63, 87
1, 18277, Note_off_c, 0, 53, 64
1, 18288, Note_off_c, 0, 59, 64
1, 18288, Note_off_c, 0, 63, 64
1, 18337, Note_off_c, 0, 56, 64
1, 18348, Note_off_c, 0, 70, 64
1, 18510, Note_on_c, 0, 68, 95
1, 18510, Note_on_c, 0, 46, 90
1, 18518, Note_on_c, 0, 39, 87
1, 18554, Note_off_c, 0, 39, 64
1, 18557, Note_off_c, 0, 46, 64
1, 18620, Control_c, 0, 64, 127
1, 18634, Note_on_c, 0, 65, 87
1, 18666, Control_c, 0, 64, 0
1, 18682, Note_off_c, 0, 68, 64
1, 18756, Note_on_c, 0, 59, 81
1, 18762, Note_on_c, 0, 56, 80
1, 18765, Note_on_c, 0, 53, 98
1, 18803, Note_off_c, 0, 53, 64
1, 18816, Note_off_c, 0, 59, 64
1, 18822, Note_off_c, 0, 65, 64
1, 18866, Note_off_c, 0, 56, 64
1, 18874, Note_on_c, 0, 63, 92
1, 18984, Note_on_c, 0, 59, 94
1, 18986, Note_on_c, 0, 46, 90
1, 18992, Note_on_c, 0, 39, 86
1, 19028, Note_off_c, 0, 63, 64
1, 19031, Note_off_c, 0, 39, 64
1, 19038, Note_off_c, 0, 46, 64
1, 19070, Note_off_c, 0, 59, 64
1, 19244, Note_on_c, 0, 63, 98
1, 19247, Note_on_c, 0, 59, 92
1, 19250, Note_on_c, 0, 56, 89
1, 19253, Note_on_c, 0, 53, 108
1, 19305, Note_off_c, 0, 53, 64
1, 19336, Note_off_c, 0, 56, 64
1, 19344, Note_off_c, 0, 59, 64
1, 19358, Note_off_c, 0, 63, 64
1, 19514, Note_on_c, 0, 58, 79
1, 19516, Note_on_c, 0, 46, 90
1, 19516, Note_on_c, 0, 39, 95
1, 19560, Note_off_c, 0, 39, 64
1, 19562, Note_off_c, 0, 46, 64
1, 19564, Note_off_c, 0, 58, 64
1, 19572, Control_c, 0, 64, 127
1, 19624, Note_on_c, 0, 58, 76
1, 19680, Control_c, 0, 64, 0
1, 19770, Note_on_c, 0, 55, 95
1, 19770, Note_on_c, 0, 53, 111
1, 19814, Note_off_c, 0, 55, 64
1, 19828, Note_off_c, 0, 53, 64
1, 19866, Note_off_c, 0, 58, 64
1, 19902, Note_on_c, 0, 60, 83
1, 20018, Note_on_c, 0, 58, 85
1, 20021, Note_off_c, 0, 60, 64
1, 20024, Note_on_c, 0, 46, 94
1, 20032, Note_on_c, 0, 39, 86
1, 20068, Note_off_c, 0, 39, 64
1, 20074, Note_off_c, 0, 46, 64
1, 20172, Control_c, 0, 64, 127
1, 20268, Note_on_c, 0, 55, 91
1, 20268, Note_on_c, 0, 70, 97
1, 20268, Note_on_c, 0, 53, 106
1, 20271, Note_on_c, 0, 63, 99
1, 20282, Note_off_c, 0, 58, 64
1, 20318, Note_off_c, 0, 53, 64
1, 20324, Note_off_c, 0, 63, 64
1, 20342, Control_c, 0, 64, 0
1, 20345, Note_off_c, 0, 55, 64
1, 20380, Note_off_c, 0, 70, 64
1, 20532, Note_on_c, 0, 58, 94
1, 20535, Note_on_c, 0, 46, 84
1, 20542, Note_on_c, 0, 39, 86
1, 20584, Note_off_c, 0, 39, 64
1, 20600, Note_off_c, 0, 46, 64
1, 20792, Note_on_c, 0, 55, 87
1, 20806, Note_on_c, 0, 53, 102
1, 20842, Note_off_c, 0, 53, 64
1, 20864, Note_off_c, 0, 55, 64
1, 21052, Note_on_c, 0, 46, 81
1, 21057, Note_on_c, 0, 39, 84
1, 21102, Note_off_c, 0, 39, 64
1, 21114, Note_off_c, 0, 46, 64
1, 21290, Note_on_c, 0, 55, 76
1, 21322, Note_on_c, 0, 53, 72
1, 21336, Note_off_c, 0, 55, 64
1, 21339, Note_off_c, 0, 58, 64
1, 21368, Note_off_c, 0, 53, 64
1, 21566, Note_on_c, 0, 42, 61
1, 21566, Note_on_c, 0, 49, 59
1, 21576, Note_on_c, 0, 58, 65
1, 21610, Note_off_c, 0, 42, 64
1, 21614, Note_off_c, 0, 49, 64
1, 21624, Note_off_c, 0, 58, 64
1, 21678, Note_on_c, 0, 58, 57
1, 21802, Note_on_c, 0, 56, 57
1, 21806, Note_on_c, 0, 54, 65
1, 21811, Note_on_c, 0, 49, 40
1, 21851, Note_off_c, 0, 54, 64
1, 21858, Note_off_c, 0, 56, 64
1, 21883, Note_off_c, 0, 49, 64
1, 21890, Note_off_c, 0, 58, 64
1, 21964, Note_on_c, 0, 60, 57
1, 22018, Note_off_c, 0, 60, 64
1, 22048, Note_on_c, 0, 58, 66
1, 22056, Note_on_c, 0, 42, 57
1, 22056, Note_on_c, 0, 49, 56
1, 22098, Note_off_c, 0, 42, 64
1, 22106, Note_off_c, 0, 49, 64
1, 22122, Note_off_c, 0, 58, 64
1, 22310, Note_on_c, 0, 61, 79
1, 22316, Note_on_c, 0, 56, 59
1, 22320, Note_on_c, 0, 54, 71
1, 22320, Note_on_c, 0, 49, 41
1, 22372, Note_off_c, 0, 54, 64
1, 22380, Note_off_c, 0, 56, 64
1, 22382, Note_off_c, 0, 49, 64
1, 22402, Note_off_c, 0, 61, 64
1, 22568, Note_on_c, 0, 49, 71
1, 22568, Note_on_c, 0, 63, 76
1, 22586, Note_on_c, 0, 42, 36
1, 22608, Note_off_c, 0, 49, 64
1, 22644, Note_off_c, 0, 42, 64
1, 22674, Note_off_c, 0, 63, 64
1, 22822, Note_on_c, 0, 58, 65
1, 22826, Note_on_c, 0, 65, 82
1, 22828, Note_on_c, 0, 54, 72
1, 22830, Note_on_c, 0, 49, 49
1, 22896, Note_off_c, 0, 49, 64
1, 22916, Note_off_c, 0, 54, 64
1, 22924, Note_off_c, 0, 58, 64
1, 22926, Note_off_c, 0, 65, 64
1, 23078, Note_on_c, 0, 63, 84
1, 23078, Note_on_c, 0, 49, 81
1, 23092, Note_on_c, 0, 42, 56
1, 23126, Note_off_c, 0, 49, 64
1, 23136, Note_off_c, 0, 42, 64
1, 23188, Note_off_c, 0, 63, 64
1, 23312, Note_on_c, 0, 66, 91
1, 23324, Note_on_c, 0, 59, 93
1, 23326, Note_on_c, 0, 49, 76
1, 23328, Note_on_c, 0, 54, 83
1, 23418, Note_off_c, 0, 49, 64
1, 23436, Note_off_c, 0, 66, 64
1, 23446, Note_off_c, 0, 54, 64
1, 23448, Note_off_c, 0, 59, 64
1, 23618, Note_on_c, 0, 65, 105
1, 23726, Note_off_c, 0, 65, 64
1, 23764, Note_on_c, 0, 65, 106
1, 23814, Control_c, 0, 64, 127
1, 23892, Note_on_c, 0, 64, 87
1, 23895, Note_on_c, 0, 61, 84
1, 23944, Note_off_c, 0, 65, 64
1, 23966, Note_off_c, 0, 64, 64
1, 23982, Control_c, 0, 64, 0
1, 24008, Note_on_c, 0, 67, 91
1, 24018, Note_off_c, 0, 61, 64
1, 24108, Note_on_c, 0, 63, 91
1, 24110, Note_on_c, 0, 65, 105
1, 24112, Note_on_c, 0, 60, 83
1, 24162, Note_off_c, 0, 67, 64
1, 24210, Note_off_c, 0, 60, 64
1, 24212, Note_off_c, 0, 63, 64
1, 24238, Note_off_c, 0, 65, 64
1, 24372, Note_on_c, 0, 67, 100
1, 24372, Note_on_c, 0, 63, 93
1, 24382, Note_on_c, 0, 74, 103
1, 24390, Note_on_c, 0, 57, 71
1, 24396, Note_on_c, 0, 53, 85
1, 24448, Note_off_c, 0, 53, 64
1, 24452, Note_off_c, 0, 67, 64
1, 24460, Note_off_c, 0, 57, 64
1, 24478, Note_off_c, 0, 63, 64
1, 24488, Note_off_c, 0, 74, 64
1, 24674, Note_on_c, 0, 58, 84
1, 24676, Note_on_c, 0, 70, 97
1, 24678, Note_on_c, 0, 62, 106
1, 24686, Note_on_c, 0, 53, 102
1, 24688, Note_on_c, 0, 46, 73
1, 24736, Control_c, 0, 64, 127
1, 24742, Note_off_c, 0, 53, 64
1, 24744, Note_off_c, 0, 46, 64
1, 24758, Note_off_c, 0, 62, 64
1, 24760, Note_off_c, 0, 58, 64
1, 24802, Note_off_c, 0, 70, 64
1, 25216, Note_on_c, 0, 82, 89
1, 25216, Note_on_c, 0, 94, 95
1, 25219, Note_on_c, 0, 46, 88
1, 25220, Note_on_c, 0, 34, 84
1, 25254, Note_off_c, 0, 82, 64
1, 25256, Note_off_c, 0, 34, 64
1, 25273, Note_off_c, 0, 46, 64
1, 25282, Note_off_c, 0, 94, 64
1, 25426, Control_c, 0, 64, 0
1, 25804, Note_on_c, 0, 63, 72
1, 25808, Note_on_c, 0, 56, 69
1, 25812, Note_on_c, 0, 60, 52
1, 25824, Note_on_c, 0, 58, 44
1, 25860, Note_off_c, 0, 56, 64
1, 25876, Note_off_c, 0, 58, 64
1, 25906, Note_off_c, 0, 60, 64
1, 25941, Note_on_c, 0, 62, 57
1, 25946, Note_off_c, 0, 63, 64
1, 25952, Note_on_c, 0, 65, 43
1, 26000, Note_off_c, 0, 62, 64
1, 26050, Note_off_c, 0, 65, 64
1, 26058, Note_on_c, 0, 68, 43
1, 26060, Note_on_c, 0, 70, 51
1, 26118, Note_off_c, 0, 70, 64
1, 26122, Note_off_c, 0, 68, 64
1, 26182, Note_on_c, 0, 63, 47
1, 26188, Note_on_c, 0, 67, 49
1, 26258, Note_off_c, 0, 63, 64
1, 26262, Note_off_c, 0, 67, 64
1, 26288, Note_on_c, 0, 65, 52
1, 26290, Note_on_c, 0, 56, 51
1, 26296, Note_on_c, 0, 62, 62
1, 26300, Note_on_c, 0, 58, 39
1, 26342, Note_off_c, 0, 56, 64
1, 26345, Note_off_c, 0, 65, 64
1, 26350, Note_off_c, 0, 62, 64
1, 26358, Note_off_c, 0, 58, 64
1, 26548, Note_on_c, 0, 68, 43
1, 26548, Note_on_c, 0, 60, 52
1, 26551, Note_on_c, 0, 63, 49
1, 26556, Note_on_c, 0, 70, 38
1, 26606, Note_off_c, 0, 68, 64
1, 26611, Note_off_c, 0, 60, 64
1, 26611, Note_off_c, 0, 63, 64
1, 26614, Note_off_c, 0, 70, 64
1, 26656, Control_c, 0, 64, 127
1, 26686, Control_c, 0, 64, 0
1, 26820, Note_on_c, 0, 56, 40
1, 26828, Note_on_c, 0, 65, 55
1, 26836, Note_on_c, 0, 62, 52
1, 26836, Note_on_c, 0, 58, 28
1, 26890, Note_off_c, 0, 56, 64
1, 26893, Note_off_c, 0, 62, 64
1, 26902, Note_off_c, 0, 58, 64
1, 26932, Control_c, 0, 64, 127
1, 26964, Note_off_c, 0, 65, 64
1, 27086, Note_on_c, 0, 68, 25
1, 27088, Note_on_c, 0, 70, 28
1, 27150, Note_off_c, 0, 68, 64
1, 27150, Note_off_c, 0, 70, 64
1, 27356, Note_on_c, 0, 56, 32
1, 27359, Note_on_c, 0, 58, 27
1, 27368, Note_on_c, 0, 94, 60
1, 27374, Note_on_c, 0, 82, 32
1, 27408, Note_off_c, 0, 94, 64
1, 27418, Note_off_c, 0, 56, 64
1, 27425, Note_off_c, 0, 58, 64
1, 27444, Note_off_c, 0, 82, 64
1, 27624, Note_on_c, 0, 70, 38
1, 27632, Note_on_c, 0, 68, 32
1, 27684, Note_off_c, 0, 70, 64
1, 27698, Note_off_c, 0, 68, 64
1, 27762, Control_c, 0, 64, 0
1, 27862, Note_on_c, 0, 63, 86
1, 27864, Note_on_c, 0, 60, 71
1, 27866, Note_on_c, 0, 58, 58
1, 27869, Note_on_c, 0, 55, 67
1, 27912, Note_off_c, 0, 55, 64
1, 27930, Note_off_c, 0, 58, 64
1, 27980, Note_off_c, 0, 60, 64
1, 27980, Note_on_c, 0, 62, 74
1, 27983, Note_on_c, 0, 65, 70
1, 28026, Note_off_c, 0, 63, 64
1, 28040, Control_c, 0, 64, 127
1, 28106, Note_on_c, 0, 70, 57
1, 28108, Note_off_c, 0, 62, 64
1, 28116, Control_c, 0, 64, 0
1, 28126, Note_on_c, 0, 67, 54
1, 28152, Note_off_c, 0, 65, 64
1, 28158, Note_off_c, 0, 70, 64
1, 28176, Note_off_c, 0, 67, 64
1, 28252, Note_on_c, 0, 67, 38
1, 28254, Note_on_c, 0, 63, 53
1, 28340, Note_on_c, 0, 65, 69
1, 28342, Note_off_c, 0, 63, 64
1, 28342, Note_on_c, 0, 62, 71
1, 28344, Note_on_c, 0, 55, 72
1, 28346, Note_on_c, 0, 58, 58
1, 28380, Note_off_c, 0, 67, 64
1, 28389, Note_off_c, 0, 55, 64
1, 28406, Note_off_c, 0, 62, 64
1, 28410, Note_off_c, 0, 58, 64
1, 28436, Note_off_c, 0, 65, 64
1, 28590, Note_on_c, 0, 70, 56
1, 28596, Note_on_c, 0, 63, 72
1, 28608, Note_on_c, 0, 67, 58
1, 28608, Note_on_c, 0, 60, 54
1, 28644, Note_off_c, 0, 70, 64
1, 28654, Note_off_c, 0, 67, 64
1, 28668, Note_off_c, 0, 60, 64
1, 28690, Note_off_c, 0, 63, 64
1, 28838, Note_on_c, 0, 65, 59
1, 28842, Note_on_c, 0, 62, 61
1, 28842, Note_on_c, 0, 58, 49
1, 28844, Note_on_c, 0, 55, 50
1, 28900, Note_off_c, 0, 55, 64
1, 28906, Note_off_c, 0, 58, 64
1, 28908, Note_off_c, 0, 62, 64
1, 28934, Note_off_c, 0, 65, 64
1, 29080, Note_on_c, 0, 70, 54
1, 29088, Note_on_c, 0, 63, 67
1, 29108, Note_on_c, 0, 60, 55
1, 29132, Note_on_c, 0, 67, 17
1, 29135, Note_off_c, 0, 70, 64
1, 29192, Note_off_c, 0, 67, 64
1, 29302, Note_off_c, 0, 60, 64
1, 29340, Note_on_c, 0, 58, 47
1, 29340, Note_on_c, 0, 62, 69
1, 29340, Note_on_c, 0, 65, 69
1, 29358, Note_off_c, 0, 63, 64
1, 29386, Note_off_c, 0, 62, 64
1, 29408, Note_on_c, 0, 55, 8
1, 29416, Note_off_c, 0, 65, 64
1, 29466, Note_off_c, 0, 55, 64
1, 29500, Note_off_c, 0, 58, 64
1, 29530, Control_c, 0, 64, 127
1, 29589, Note_on_c, 0, 72, 68
1, 29589, Note_on_c, 0, 70, 50
1, 29592, Note_on_c, 0, 67, 49
1, 29592, Note_on_c, 0, 63, 66
1, 29630, Note_off_c, 0, 72, 64
1, 29638, Note_off_c, 0, 63, 64
1, 29640, Note_off_c, 0, 70, 64
1, 29652, Note_off_c, 0, 67, 64
1, 29898, Control_c, 0, 64, 0
1, 29904, Note_on_c, 0, 46, 67
1, 29905, Note_on_c, 0, 63, 75
1, 29910, Note_on_c, 0, 56, 67
1, 29910, Note_on_c, 0, 60, 66
1, 30002, Note_on_c, 0, 48, 76
1, 30044, Note_off_c, 0, 46, 64
1, 30120, Note_off_c, 0, 48, 64
1, 30308, Note_on_c, 0, 50, 76
1, 30396, Note_off_c, 0, 50, 64
1, 30408, Note_on_c, 0, 48, 75
1, 30514, Note_off_c, 0, 48, 64
1, 30682, Note_on_c, 0, 46, 62
1, 30740, Note_off_c, 0, 46, 64
1, 30960, Note_on_c, 0, 46, 72
1, 31066, Control_c, 0, 64, 127
1, 31084, Note_on_c, 0, 48, 75
1, 31128, Control_c, 0, 64, 0
1, 31134, Note_off_c, 0, 46, 64
1, 31162, Note_off_c, 0, 48, 64
1, 31390, Note_on_c, 0, 50, 69
1, 31474, Note_off_c, 0, 50, 64
1, 31494, Note_on_c, 0, 48, 63
1, 31566, Note_off_c, 0, 48, 64
1, 31774, Note_on_c, 0, 46, 49
1, 31804, Note_off_c, 0, 60, 64
1, 31830, Note_off_c, 0, 46, 64
1, 31927, Note_off_c, 0, 63, 64
1, 32088, Note_on_c, 0, 46, 43
1, 32098, Note_on_c, 0, 55, 47
1, 32116, Note_off_c, 0, 56, 64
1, 32116, Note_on_c, 0, 60, 37
1, 32116, Note_on_c, 0, 63, 49
1, 32220, Note_on_c, 0, 48, 48
1, 32230, Note_off_c, 0, 46, 64
1, 32332, Note_off_c, 0, 48, 64
1, 32548, Note_on_c, 0, 50, 46
1, 32624, Note_off_c, 0, 50, 64
1, 32654, Note_on_c, 0, 48, 42
1, 32718, Note_off_c, 0, 48, 64
1, 32958, Note_on_c, 0, 46, 31
1, 33024, Note_off_c, 0, 46, 64
1, 33032, Control_c, 0, 64, 127
1, 33048, Note_off_c, 0, 63, 64
1, 33054, Note_off_c, 0, 60, 64
1, 33070, Note_off_c, 0, 55, 64
1, 33140, Control_c, 0, 64, 0
1, 33388, Note_on_c, 0, 46, 67
1, 33394, Note_on_c, 0, 34, 71
1, 33486, Note_on_c, 0, 48, 83
1, 33504, Note_off_c, 0, 46, 64
1, 33504, Note_on_c, 0, 36, 67
1, 33508, Note_on_c, 0, 35, 65
1, 33532, Note_off_c, 0, 34, 64
1, 33584, Note_on_c, 0, 38, 92
1, 33585, Note_on_c, 0, 50, 100
1, 33624, Note_off_c, 0, 36, 64
1, 33630, Note_off_c, 0, 35, 64
1, 33654, Note_off_c, 0, 48, 64
1, 33672, Note_off_c, 0, 38, 64
1, 33698, Note_on_c, 0, 48, 106
1, 33704, Note_on_c, 0, 36, 105
1, 33710, Control_c, 0, 64, 127
1, 33763, Note_off_c, 0, 50, 64
1, 33844, Note_off_c, 0, 36, 64
1, 33964, Note_on_c, 0, 34, 106
1, 33970, Note_on_c, 0, 46, 96
1, 33970, Note_on_c, 0, 22, 109
1, 34016, Note_off_c, 0, 48, 64
1, 34048, Note_off_c, 0, 22, 64
1, 34056, Note_off_c, 0, 34, 64
1, 34094, Note_off_c, 0, 46, 64
1, 34232, Control_c, 0, 64, 0
1, 34368, Note_on_c, 0, 56, 84
1, 34380, Note_on_c, 0, 63, 88
1, 34388, Note_on_c, 0, 60, 81
1, 34390, Note_on_c, 0, 58, 24
1, 34432, Note_off_c, 0, 56, 64
1, 34468, Note_off_c, 0, 58, 64
1, 34476, Note_off_c, 0, 60, 64
1, 34520, Note_on_c, 0, 62, 68
1, 34522, Note_on_c, 0, 65, 63
1, 34558, Note_off_c, 0, 63, 64
1, 34626, Note_off_c, 0, 62, 64
1, 34646, Note_on_c, 0, 70, 55
1, 34649, Note_on_c, 0, 68, 54
1, 34684, Note_off_c, 0, 65, 64
1, 34707, Note_off_c, 0, 68, 64
1, 34722, Note_off_c, 0, 70, 64
1, 34760, Note_on_c, 0, 63, 61
1, 34786, Note_on_c, 0, 67, 44
1, 34824, Note_off_c, 0, 63, 64
1, 34882, Note_off_c, 0, 67, 64
1, 34885, Note_on_c, 0, 65, 57
1, 34887, Note_on_c, 0, 62, 65
1, 34888, Note_on_c, 0, 56, 70
1, 34890, Note_on_c, 0, 58, 66
1, 34944, Note_off_c, 0, 56, 64
1, 34945, Note_off_c, 0, 62, 64
1, 34952, Note_off_c, 0, 58, 64
1, 34957, Note_off_c, 0, 65, 64
1, 35150, Note_on_c, 0, 68, 46
1, 35150, Note_on_c, 0, 60, 57
1, 35152, Note_on_c, 0, 63, 62
1, 35152, Note_on_c, 0, 70, 47
1, 35201, Note_off_c, 0, 68, 64
1, 35206, Note_off_c, 0, 63, 64
1, 35206, Note_off_c, 0, 70, 64
1, 35211, Note_off_c, 0, 60, 64
1, 35430, Note_on_c, 0, 65, 52
1, 35432, Note_on_c, 0, 62, 56
1, 35436, Note_on_c, 0, 58, 31
1, 35437, Note_on_c, 0, 56, 40
1, 35492, Control_c, 0, 64, 127
1, 35500, Note_off_c, 0, 62, 64
1, 35502, Note_off_c, 0, 58, 64
1, 35509, Note_off_c, 0, 56, 64
1, 35547, Note_off_c, 0, 65, 64
1, 35700, Note_on_c, 0, 70, 36
1, 35706, Note_on_c, 0, 68, 22
1, 35764, Note_off_c, 0, 70, 64
1, 35782, Note_off_c, 0, 68, 64
1, 35972, Note_on_c, 0, 94, 65
1, 35975, Note_on_c, 0, 82, 48
1, 35982, Note_on_c, 0, 56, 36
1, 36012, Note_off_c, 0, 94, 64
1, 36015, Note_on_c, 0, 58, 11
1, 36036, Note_off_c, 0, 82, 64
1, 36042, Note_off_c, 0, 56, 64
1, 36080, Note_off_c, 0, 58, 64
1, 36224, Note_on_c, 0, 70, 38
1, 36232, Note_on_c, 0, 68, 40
1, 36282, Note_off_c, 0, 70, 64
1, 36290, Note_off_c, 0, 68, 64
1, 36412, Control_c, 0, 64, 0
1, 36472, Note_on_c, 0, 63, 83
1, 36472, Note_on_c, 0, 60, 73
1, 36474, Note_on_c, 0, 55, 75
1, 36476, Note_on_c, 0, 58, 55
1, 36518, Note_off_c, 0, 55, 64
1, 36545, Note_off_c, 0, 58, 64
1, 36594, Note_on_c, 0, 62, 72
1, 36602, Note_on_c, 0, 65, 63
1, 36618, Note_off_c, 0, 60, 64
1, 36648, Note_off_c, 0, 63, 64
1, 36712, Note_on_c, 0, 70, 57
1, 36736, Note_on_c, 0, 67, 50
1, 36746, Note_off_c, 0, 62, 64
1, 36766, Note_off_c, 0, 70, 64
1, 36792, Note_off_c, 0, 67, 64
1, 36818, Note_off_c, 0, 65, 64
1, 36848, Note_on_c, 0, 67, 71
1, 36852, Note_on_c, 0, 63, 59
1, 36930, Note_off_c, 0, 63, 64
1, 36954, Note_on_c, 0, 65, 77
1, 36956, Note_on_c, 0, 62, 76
1, 36958, Note_on_c, 0, 58, 62
1, 36959, Note_on_c, 0, 55, 56
1, 37008, Note_off_c, 0, 67, 64
1, 37011, Note_off_c, 0, 55, 64
1, 37012, Note_off_c, 0, 58, 64
1, 37066, Note_off_c, 0, 65, 64
1, 37070, Note_off_c, 0, 62, 64
1, 37196, Note_on_c, 0, 70, 60
1, 37204, Note_on_c, 0, 67, 42
1, 37205, Note_on_c, 0, 63, 67
1, 37205, Note_on_c, 0, 60, 59
1, 37250, Note_off_c, 0, 70, 64
1, 37262, Note_off_c, 0, 67, 64
1, 37297, Note_off_c, 0, 60, 64
1, 37325, Note_off_c, 0, 63, 64
1, 37444, Note_on_c, 0, 65, 67
1, 37446, Note_on_c, 0, 62, 64
1, 37448, Note_on_c, 0, 55, 63
1, 37448, Note_on_c, 0, 58, 48
1, 37474, Control_c, 0, 64, 127
1, 37496, Note_off_c, 0, 55, 64
1, 37510, Note_off_c, 0, 58, 64
1, 37514, Note_off_c, 0, 62, 64
1, 37564, Note_off_c, 0, 65, 64
1, 37580, Control_c, 0, 64, 0
1, 37676, Note_on_c, 0, 70, 62
1, 37686, Note_on_c, 0, 67, 55
1, 37690, Note_on_c, 0, 60, 78
1, 37690, Note_on_c, 0, 63, 79
1, 37736, Note_off_c, 0, 67, 64
1, 37744, Note_off_c, 0, 70, 64
1, 37826, Control_c, 0, 64, 127
1, 37854, Note_off_c, 0, 60, 64
1, 37900, Note_off_c, 0, 63, 64
1, 37940, Note_on_c, 0, 65, 89
1, 37944, Note_on_c, 0, 62, 80
1, 37948, Note_on_c, 0, 58, 59
1, 37948, Note_on_c, 0, 55, 36
1, 37980, Note_off_c, 0, 62, 64
1, 38006, Note_off_c, 0, 58, 64
1, 38020, Note_off_c, 0, 65, 64
1, 38020, Note_off_c, 0, 55, 64
1, 38180, Note_on_c, 0, 72, 97
1, 38186, Note_on_c, 0, 70, 76
1, 38189, Note_on_c, 0, 67, 82
1, 38189, Note_on_c, 0, 63, 79
1, 38228, Note_off_c, 0, 67, 64
1, 38231, Note_off_c, 0, 70, 64
1, 38231, Note_off_c, 0, 63, 64
1, 38242, Control_c, 0, 64, 0
1, 38252, Note_off_c, 0, 72, 64
1, 38470, Note_on_c, 0, 70, 81
1, 38476, Note_on_c, 0, 82, 97
1, 38476, Note_on_c, 0, 59, 75
1, 38479, Note_on_c, 0, 75, 90
1, 38479, Note_on_c, 0, 71, 105
1, 38486, Note_on_c, 0, 63, 78
1, 38548, Control_c, 0, 64, 127
1, 38572, Note_off_c, 0, 70, 64
1, 38588, Note_on_c, 0, 68, 67
1, 38591, Note_on_c, 0, 80, 86
1, 38660, Note_off_c, 0, 82, 64
1, 38758, Note_off_c, 0, 80, 64
1, 38794, Control_c, 0, 64, 0
1, 38876, Note_off_c, 0, 68, 64
1, 38876, Note_on_c, 0, 82, 83
1, 38882, Note_on_c, 0, 70, 77
1, 38964, Note_on_c, 0, 77, 91
1, 38974, Note_on_c, 0, 65, 80
1, 38982, Note_off_c, 0, 70, 64
1, 39010, Control_c, 0, 64, 127
1, 39020, Note_off_c, 0, 82, 64
1, 39048, Note_off_c, 0, 63, 64
1, 39098, Note_off_c, 0, 77, 64
1, 39224, Note_off_c, 0, 65, 64
1, 39248, Note_on_c, 0, 70, 90
1, 39251, Note_on_c, 0, 82, 96
1, 39336, Note_off_c, 0, 70, 64
1, 39390, Note_off_c, 0, 82, 64
1, 39502, Control_c, 0, 64, 0
1, 39534, Note_on_c, 0, 68, 95
1, 39537, Note_on_c, 0, 80, 96
1, 39606, Note_on_c, 0, 65, 80
1, 39650, Note_on_c, 0, 77, 87
1, 39656, Note_off_c, 0, 68, 64
1, 39716, Control_c, 0, 64, 127
1, 39718, Note_off_c, 0, 75, 64
1, 39726, Note_off_c, 0, 71, 64
1, 39736, Note_off_c, 0, 80, 64
1, 39822, Note_off_c, 0, 59, 64
1, 39840, Note_off_c, 0, 65, 64
1, 39852, Note_off_c, 0, 77, 64
1, 39930, Note_on_c, 0, 63, 74
1, 39930, Note_on_c, 0, 75, 79
1, 39990, Note_off_c, 0, 63, 64
1, 40014, Note_on_c, 0, 71, 108
1, 40020, Note_on_c, 0, 59, 102
1, 40044, Note_off_c, 0, 75, 64
1, 40130, Note_off_c, 0, 59, 64
1, 40168, Note_off_c, 0, 71, 64
1, 40530, Control_c, 0, 64, 0
1, 40694, Note_on_c, 0, 68, 72
1, 40700, Note_on_c, 0, 56, 79
1, 40790, Note_on_c, 0, 65, 78
1, 40798, Note_on_c, 0, 53, 105
1, 40824, Note_off_c, 0, 56, 64
1, 40854, Note_off_c, 0, 68, 64
1, 40902, Note_on_c, 0, 63, 85
1, 40906, Note_on_c, 0, 51, 82
1, 40926, Note_off_c, 0, 65, 64
1, 40938, Note_off_c, 0, 53, 64
1, 41012, Note_on_c, 0, 47, 90
1, 41012, Note_on_c, 0, 59, 101
1, 41022, Control_c, 0, 64, 127
1, 41042, Note_off_c, 0, 51, 64
1, 41044, Note_off_c, 0, 63, 64
1, 41096, Note_off_c, 0, 47, 64
1, 41122, Note_off_c, 0, 59, 64
1, 41272, Note_on_c, 0, 50, 111
1, 41274, Note_on_c, 0, 55, 111
1, 41274, Note_on_c, 0, 46, 102
1, 41277, Note_on_c, 0, 34, 104
1, 41339, Note_off_c, 0, 34, 64
1, 41358, Note_off_c, 0, 46, 64
1, 41382, Note_off_c, 0, 50, 64
1, 41406, Control_c, 0, 64, 0
1, 41414, Note_off_c, 0, 55, 64
1, 42074, Note_on_c, 0, 58, 55
1, 42077, Note_on_c, 0, 51, 65
1, 42078, Note_on_c, 0, 55, 75
1, 42080, Note_on_c, 0, 53, 101
1, 42120, Note_off_c, 0, 53, 64
1, 42124, Note_off_c, 0, 55, 64
1, 42144, Note_off_c, 0, 51, 64
1, 42150, Note_off_c, 0, 58, 64
1, 42344, Note_on_c, 0, 46, 62
1, 42350, Note_on_c, 0, 39, 66
1, 42394, Note_off_c, 0, 46, 64
1, 42396, Note_off_c, 0, 39, 64
1, 42593, Note_on_c, 0, 58, 58
1, 42596, Note_on_c, 0, 55, 81
1, 42597, Note_on_c, 0, 53, 91
1, 42599, Note_on_c, 0, 51, 64
1, 42635, Note_off_c, 0, 53, 64
1, 42646, Note_off_c, 0, 55, 64
1, 42685, Note_off_c, 0, 51, 64
1, 42713, Note_off_c, 0, 58, 64
1, 42872, Note_on_c, 0, 46, 72
1, 42875, Note_on_c, 0, 39, 70
1, 42980, Note_off_c, 0, 46, 64
1, 42983, Note_off_c, 0, 39, 64
1, 44025, Note_on_c, 0, 58, 47
1, 44028, Note_on_c, 0, 51, 56
1, 44030, Note_on_c, 0, 55, 57
1, 44030, Note_on_c, 0, 53, 74
1, 44072, Note_off_c, 0, 53, 64
1, 44082, Note_off_c, 0, 55, 64
1, 44089, Note_off_c, 0, 51, 64
1, 44099, Note_off_c, 0, 58, 64
1, 44294, Note_on_c, 0, 46, 48
1, 44297, Note_on_c, 0, 39, 52
1, 44344, Note_off_c, 0, 39, 64
1, 44352, Note_off_c, 0, 46, 64
1, 44550, Note_on_c, 0, 58, 38
1, 44553, Note_on_c, 0, 55, 52
1, 44554, Note_on_c, 0, 53, 57
1, 44555, Note_on_c, 0, 51, 46
1, 44604, Note_off_c, 0, 55, 64
1, 44604, Note_off_c, 0, 53, 64
1, 44607, Note_off_c, 0, 51, 64
1, 44626, Note_off_c, 0, 58, 64
1, 44876, Note_on_c, 0, 46, 36
1, 44876, Note_on_c, 0, 39, 37
1, 44940, Note_off_c, 0, 39, 64
1, 44952, Note_off_c, 0, 46, 64
1, 46161, Note_on_c, 0, 58, 32
1, 46164, Note_on_c, 0, 55, 43
1, 46164, Note_on_c, 0, 53, 50
1, 46166, Note_on_c, 0, 51, 46
1, 46220, Note_off_c, 0, 55, 64
1, 46220, Note_off_c, 0, 53, 64
1, 46222, Note_off_c, 0, 51, 64
1, 46235, Note_off_c, 0, 58, 64
1, 46440, Note_on_c, 0, 46, 38
1, 46443, Note_on_c, 0, 39, 43
1, 46492, Note_off_c, 0, 39, 64
1, 46504, Note_off_c, 0, 46, 64
1, 46694, Note_on_c, 0, 58, 31
1, 46694, Note_on_c, 0, 55, 24
1, 46695, Note_on_c, 0, 53, 53
1, 46698, Note_on_c, 0, 51, 16
1, 46749, Note_off_c, 0, 53, 64
1, 46762, Note_off_c, 0, 55, 64
1, 46765, Note_off_c, 0, 51, 64
1, 46770, Note_off_c, 0, 58, 64
1, 47022, Note_on_c, 0, 39, 37
1, 47738, Note_on_c, 0, 41, 41
1, 47786, Note_off_c, 0, 39, 64
1, 48692, Note_on_c, 0, 49, 31
1, 48694, Note_on_c, 0, 42, 38
1, 48740, Note_off_c, 0, 41, 64
1, 48840, Note_off_c, 0, 42, 64
1, 49018, Note_on_c, 0, 61, 35
1, 49020, Note_on_c, 0, 58, 41
1, 49020, Note_on_c, 0, 57, 31
1, 49084, Note_off_c, 0, 57, 64
1, 49087, Note_off_c, 0, 58, 64
1, 49094, Note_off_c, 0, 61, 64
1, 49350, Note_on_c, 0, 42, 38
1, 49406, Note_off_c, 0, 42, 64
1, 49600, Note_on_c, 0, 57, 37
1, 49608, Note_on_c, 0, 61, 50
1, 49608, Note_on_c, 0, 58, 35
1, 49678, Note_off_c, 0, 61, 64
1, 49684, Note_off_c, 0, 57, 64
1, 49686, Note_off_c, 0, 58, 64
1, 49950, Note_on_c, 0, 42, 39
1, 49998, Note_off_c, 0, 42, 64
1, 50228, Note_on_c, 0, 55, 34
1, 50236, Note_on_c, 0, 56, 38
1, 50238, Note_on_c, 0, 59, 42
1, 50288, Note_off_c, 0, 55, 64
1, 50295, Note_off_c, 0, 59, 64
1, 50302, Note_off_c, 0, 56, 64
1, 50554, Note_on_c, 0, 42, 40
1, 50606, Note_off_c, 0, 42, 64
1, 50812, Note_on_c, 0, 56, 24
1, 50852, Note_on_c, 0, 57, 47
1, 50880, Note_off_c, 0, 56, 64
1, 50883, Note_on_c, 0, 65, 20
1, 50890, Note_on_c, 0, 60, 20
1, 50893, Note_off_c, 0, 49, 64
1, 50908, Note_off_c, 0, 57, 64
1, 50954, Note_off_c, 0, 65, 64
1, 50968, Note_off_c, 0, 60, 64
1, 51054, Note_on_c, 0, 51, 50
1, 51120, Note_on_c, 0, 42, 37
1, 51126, Note_on_c, 0, 49, 57
1, 51130, Note_off_c, 0, 51, 64
1, 51214, Note_off_c, 0, 42, 64
1, 51388, Note_on_c, 0, 57, 46
1, 51416, Note_on_c, 0, 58, 61
1, 51420, Note_on_c, 0, 61, 65
1, 51450, Note_off_c, 0, 57, 64
1, 51488, Note_off_c, 0, 61, 64
1, 51496, Note_off_c, 0, 58, 64
1, 51728, Note_on_c, 0, 42, 52
1, 51772, Note_off_c, 0, 42, 64
1, 51974, Note_on_c, 0, 57, 52
1, 52008, Note_on_c, 0, 58, 52
1, 52016, Note_on_c, 0, 61, 51
1, 52028, Note_off_c, 0, 57, 64
1, 52072, Note_off_c, 0, 61, 64
1, 52074, Note_off_c, 0, 58, 64
1, 52294, Note_on_c, 0, 42, 47
1, 52344, Note_off_c, 0, 42, 64
1, 52558, Note_on_c, 0, 55, 59
1, 52570, Note_on_c, 0, 56, 55
1, 52592, Note_on_c, 0, 59, 47
1, 52608, Note_off_c, 0, 55, 64
1, 52624, Note_off_c, 0, 56, 64
1, 52642, Note_off_c, 0, 59, 64
1, 52876, Note_on_c, 0, 42, 48
1, 52920, Note_off_c, 0, 42, 64
1, 53086, Note_on_c, 0, 56, 38
1, 53138, Note_on_c, 0, 57, 51
1, 53142, Note_off_c, 0, 56, 64
1, 53158, Note_on_c, 0, 65, 37
1, 53172, Note_on_c, 0, 60, 27
1, 53188, Note_off_c, 0, 57, 64
1, 53214, Note_off_c, 0, 65, 64
1, 53242, Note_off_c, 0, 60, 64
1, 53262, Note_off_c, 0, 49, 64
1, 53454, Note_on_c, 0, 49, 37
1, 53706, Note_on_c, 0, 57, 33
1, 53728, Note_on_c, 0, 58, 52
1, 53732, Note_on_c, 0, 61, 56
1, 53734, Note_on_c, 0, 42, 48
1, 53764, Note_off_c, 0, 57, 64
1, 53786, Note_off_c, 0, 42, 64
1, 53794, Note_off_c, 0, 58, 64
1, 53810, Note_off_c, 0, 61, 64
1, 54008, Note_on_c, 0, 41, 62
1, 54054, Note_off_c, 0, 41, 64
1, 54272, Note_on_c, 0, 39, 51
1, 54328, Note_off_c, 0, 39, 64
1, 54618, Note_on_c, 0, 37, 48
1, 54672, Note_off_c, 0, 37, 64
1, 55128, Note_on_c, 0, 57, 32
1, 55162, Note_on_c, 0, 58, 26
1, 55165, Note_on_c, 0, 61, 49
1, 55200, Note_off_c, 0, 57, 64
1, 55202, Note_off_c, 0, 49, 64
1, 55250, Note_off_c, 0, 61, 64
1, 55252, Note_off_c, 0, 58, 64
1, 56028, Note_on_c, 0, 42, 32
1, 56096, Note_off_c, 0, 42, 64
1, 56322, Note_on_c, 0, 41, 35
1, 56390, Note_off_c, 0, 41, 64
1, 56588, Note_on_c, 0, 39, 29
1, 56660, Note_off_c, 0, 39, 64
1, 56868, Note_on_c, 0, 37, 36
1, 56924, Note_off_c, 0, 37, 64
1, 57160, Note_on_c, 0, 35, 35
1, 57218, Note_off_c, 0, 35, 64
1, 57408, Note_on_c, 0, 48, 25
1, 57422, Note_on_c, 0, 34, 41
1, 57440, Note_on_c, 0, 49, 42
1, 57474, Note_on_c, 0, 47, 21
1, 57490, Note_off_c, 0, 34, 64
1, 57546, Note_off_c, 0, 47, 64
1, 57552, Note_off_c, 0, 48, 64
1, 57568, Note_off_c, 0, 49, 64
1, 57694, Note_on_c, 0, 32, 45
1, 57744, Note_off_c, 0, 32, 64
1, 58018, Note_on_c, 0, 49, 65
1, 58020, Note_on_c, 0, 42, 50
1, 58090, Note_off_c, 0, 42, 64
1, 58262, Note_on_c, 0, 57, 35
1, 58274, Note_on_c, 0, 58, 60
1, 58284, Note_on_c, 0, 61, 69
1, 58314, Note_off_c, 0, 57, 64
1, 58324, Note_off_c, 0, 58, 64
1, 58332, Note_off_c, 0, 61, 64
1, 58580, Note_on_c, 0, 42, 50
1, 58630, Note_off_c, 0, 42, 64
1, 58834, Note_on_c, 0, 57, 49
1, 58848, Note_on_c, 0, 58, 56
1, 58856, Note_on_c, 0, 61, 71
1, 58886, Note_off_c, 0, 57, 64
1, 58900, Note_off_c, 0, 58, 64
1, 58908, Note_off_c, 0, 61, 64
1, 59154, Note_on_c, 0, 42, 53
1, 59200, Note_off_c, 0, 42, 64
1, 59410, Note_on_c, 0, 55, 63
1, 59422, Note_on_c, 0, 56, 70
1, 59428, Note_on_c, 0, 59, 76
1, 59456, Note_off_c, 0, 55, 64
1, 59472, Note_off_c, 0, 59, 64
1, 59474, Note_off_c, 0, 56, 64
1, 59704, Note_on_c, 0, 42, 44
1, 59754, Note_off_c, 0, 42, 64
1, 59930, Note_on_c, 0, 56, 46
1, 59970, Note_on_c, 0, 65, 67
1, 59972, Note_on_c, 0, 57, 53
1, 59975, Note_on_c, 0, 60, 52
1, 59986, Note_off_c, 0, 56, 64
1, 60017, Note_off_c, 0, 65, 64
1, 60022, Note_off_c, 0, 57, 64
1, 60025, Note_off_c, 0, 49, 64
1, 60034, Note_off_c, 0, 60, 64
1, 60156, Note_on_c, 0, 51, 58
1, 60216, Note_on_c, 0, 42, 58
1, 60222, Note_on_c, 0, 49, 78
1, 60256, Note_off_c, 0, 51, 64
1, 60256, Note_off_c, 0, 42, 64
1, 60468, Note_on_c, 0, 57, 54
1, 60480, Note_on_c, 0, 58, 67
1, 60486, Note_on_c, 0, 61, 75
1, 60514, Note_off_c, 0, 57, 64
1, 60542, Note_off_c, 0, 58, 64
1, 60544, Note_off_c, 0, 61, 64
1, 60770, Note_on_c, 0, 42, 53
1, 60816, Note_off_c, 0, 42, 64
1, 61016, Note_on_c, 0, 57, 44
1, 61034, Note_on_c, 0, 58, 60
1, 61040, Note_on_c, 0, 61, 69
1, 61068, Note_off_c, 0, 57, 64
1, 61088, Note_off_c, 0, 58, 64
1, 61094, Note_off_c, 0, 61, 64
1, 61324, Note_on_c, 0, 42, 49
1, 61382, Note_off_c, 0, 42, 64
1, 61572, Note_on_c, 0, 56, 67
1, 61580, Note_on_c, 0, 59, 62
1, 61586, Note_on_c, 0, 55, 42
1, 61632, Note_off_c, 0, 59, 64
1, 61638, Note_off_c, 0, 56, 64
1, 61638, Note_off_c, 0, 55, 64
1, 61872, Note_on_c, 0, 42, 42
1, 61922, Note_off_c, 0, 42, 64
1, 62078, Note_on_c, 0, 56, 41
1, 62126, Note_on_c, 0, 65, 58
1, 62126, Note_on_c, 0, 57, 44
1, 62146, Note_off_c, 0, 56, 64
1, 62146, Note_on_c, 0, 60, 38
1, 62172, Note_off_c, 0, 65, 64
1, 62178, Note_off_c, 0, 57, 64
1, 62184, Note_off_c, 0, 49, 64
1, 62206, Note_off_c, 0, 60, 64
1, 62360, Note_on_c, 0, 49, 38
1, 62612, Note_on_c, 0, 57, 37
1, 62644, Note_on_c, 0, 58, 46
1, 62650, Note_on_c, 0, 61, 52
1, 62656, Note_on_c, 0, 42, 38
1, 62680, Note_off_c, 0, 57, 64
1, 62716, Note_off_c, 0, 42, 64
1, 62719, Note_off_c, 0, 58, 64
1, 62722, Note_off_c, 0, 61, 64
1, 62914, Note_on_c, 0, 41, 50
1, 62966, Note_off_c, 0, 41, 64
1, 63182, Note_on_c, 0, 39, 42
1, 63240, Note_off_c, 0, 39, 64
1, 63510, Note_on_c, 0, 37, 39
1, 63704, Note_off_c, 0, 37, 64
1, 64852, Control_c, 0, 64, 127
1, 65056, Note_on_c, 0, 39, 36
1, 65390, Note_off_c, 0, 49, 64
1, 65564, Note_on_c, 0, 57, 61
1, 65602, Note_on_c, 0, 41, 40
1, 65836, Control_c, 0, 64, 0
1, 65950, Note_on_c, 0, 42, 59
1, 65968, Note_off_c, 0, 39, 64
1, 66044, Note_off_c, 0, 41, 64
1, 66082, Control_c, 0, 64, 127
1, 66288, Note_on_c, 0, 45, 47
1, 66312, Note_off_c, 0, 42, 64
1, 66336, Note_on_c, 0, 65, 80
1, 66512, Control_c, 0, 64, 0
1, 66682, Control_c, 0, 64, 127
1, 66706, Note_on_c, 0, 46, 46
1, 66750, Note_off_c, 0, 45, 64
1, 66928, Control_c, 0, 64, 0
1, 67096, Control_c, 0, 64, 127
1, 67152, Note_on_c, 0, 47, 41
1, 67190, Note_off_c, 0, 46, 64
1, 67359, Control_c, 0, 64, 0
1, 67558, Control_c, 0, 64, 127
1, 67680, Note_on_c, 0, 64, 57
1, 67692, Note_on_c, 0, 58, 16
1, 67712, Note_off_c, 0, 47, 64
1, 67720, Note_on_c, 0, 48, 22
1, 67814, Note_off_c, 0, 57, 64
1, 67830, Note_off_c, 0, 65, 64
1, 67880, Control_c, 0, 64, 0
1, 68094, Control_c, 0, 64, 127
1, 68120, Note_off_c, 0, 48, 64
1, 68182, Note_off_c, 0, 58, 64
1, 68488, Note_on_c, 0, 63, 38
1, 68510, Note_on_c, 0, 44, 25
1, 68512, Note_off_c, 0, 64, 64
1, 68514, Note_on_c, 0, 49, 20
1, 68528, Note_on_c, 0, 59, 17
1, 68588, Control_c, 0, 64, 0
1, 68824, Note_off_c, 0, 49, 64
1, 68848, Control_c, 0, 64, 127
1, 68860, Note_off_c, 0, 44, 64
1, 68882, Note_off_c, 0, 59, 64
1, 68916, Note_off_c, 0, 63, 64
1, 69340, Note_on_c, 0, 74, 15
1, 69342, Note_on_c, 0, 71, 38
1, 69348, Note_on_c, 0, 65, 20
1, 69356, Note_on_c, 0, 75, 35
1, 69380, Note_on_c, 0, 56, 8
1, 69410, Note_off_c, 0, 74, 64
1, 69410, Note_off_c, 0, 71, 64
1, 69418, Note_off_c, 0, 75, 64
1, 69426, Note_off_c, 0, 65, 64
1, 69446, Note_off_c, 0, 56, 64
1, 69578, Note_on_c, 0, 73, 34
1, 69584, Note_on_c, 0, 72, 28
1, 69588, Note_on_c, 0, 71, 39
1, 69594, Note_on_c, 0, 56, 22
1, 69608, Note_on_c, 0, 65, 25
1, 69642, Note_off_c, 0, 73, 64
1, 69648, Note_off_c, 0, 72, 64
1, 69650, Note_off_c, 0, 71, 64
1, 69666, Note_off_c, 0, 56, 64
1, 69678, Note_off_c, 0, 65, 64
1, 69768, Note_on_c, 0, 74, 59
1, 69778, Note_on_c, 0, 65, 34
1, 69786, Note_on_c, 0, 71, 37
1, 69788, Note_on_c, 0, 59, 37
1, 69790, Note_on_c, 0, 56, 20
1, 69804, Note_on_c, 0, 75, 55
1, 69824, Note_off_c, 0, 74, 64
1, 69844, Note_off_c, 0, 71, 64
1, 69846, Note_off_c, 0, 65, 64
1, 69848, Note_off_c, 0, 59, 64
1, 69860, Note_off_c, 0, 75, 64
1, 69863, Note_off_c, 0, 56, 64
1, 69863, Control_c, 0, 64, 0
1, 70168, Note_on_c, 0, 74, 53
1, 70171, Note_on_c, 0, 75, 57
1, 70171, Note_on_c, 0, 71, 51
1, 70175, Note_on_c, 0, 65, 45
1, 70186, Note_on_c, 0, 56, 37
1, 70196, Note_on_c, 0, 59, 41
1, 70216, Note_off_c, 0, 74, 64
1, 70238, Note_off_c, 0, 71, 64
1, 70241, Note_off_c, 0, 75, 64
1, 70250, Note_off_c, 0, 59, 64
1, 70254, Note_off_c, 0, 65, 64
1, 70256, Note_off_c, 0, 56, 64
1, 70380, Note_on_c, 0, 72, 47
1, 70380, Note_on_c, 0, 73, 49
1, 70400, Note_on_c, 0, 65, 48
1, 70400, Note_on_c, 0, 71, 52
1, 70422, Note_on_c, 0, 56, 21
1, 70424, Note_on_c, 0, 59, 28
1, 70434, Note_off_c, 0, 72, 64
1, 70446, Note_off_c, 0, 73, 64
1, 70452, Note_off_c, 0, 65, 64
1, 70452, Note_off_c, 0, 71, 64
1, 70482, Note_off_c, 0, 59, 64
1, 70490, Note_off_c, 0, 56, 64
1, 70592, Note_on_c, 0, 74, 41
1, 70595, Note_on_c, 0, 56, 24
1, 70600, Note_on_c, 0, 71, 33
1, 70610, Note_on_c, 0, 59, 11
1, 70612, Note_on_c, 0, 65, 35
1, 70622, Note_on_c, 0, 75, 38
1, 70654, Note_off_c, 0, 74, 64
1, 70672, Note_off_c, 0, 71, 64
1, 70675, Note_off_c, 0, 65, 64
1, 70690, Note_off_c, 0, 59, 64
1, 70716, Note_off_c, 0, 56, 64
1, 70760, Note_off_c, 0, 75, 64
1, 71534, Note_on_c, 0, 57, 60
1, 71722, Control_c, 0, 64, 127
1, 72256, Note_on_c, 0, 65, 76
1, 72288, Note_on_c, 0, 49, 47
1, 73758, Note_on_c, 0, 64, 46
1, 73850, Note_off_c, 0, 65, 64
1, 73887, Control_c, 0, 64, 0
1, 74118, Control_c, 0, 64, 127
1, 74304, Note_off_c, 0, 57, 64
1, 74318, Control_c, 0, 64, 0
1, 74358, Note_on_c, 0, 63, 42
1, 74364, Note_on_c, 0, 42, 27
1, 74368, Note_on_c, 0, 58, 31
1, 74376, Note_off_c, 0, 64, 64
1, 74560, Note_off_c, 0, 49, 64
1, 74560, Note_off_c, 0, 42, 64
1, 74563, Control_c, 0, 64, 127
1, 74576, Note_off_c, 0, 58, 64
1, 74620, Note_off_c, 0, 63, 64
1, 75016, Note_on_c, 0, 70, 35
1, 75022, Note_on_c, 0, 74, 47
1, 75036, Note_on_c, 0, 66, 24
1, 75046, Note_on_c, 0, 61, 31
1, 75050, Note_on_c, 0, 75, 40
1, 75052, Note_on_c, 0, 58, 16
1, 75080, Note_off_c, 0, 74, 64
1, 75086, Note_off_c, 0, 70, 64
1, 75110, Note_off_c, 0, 66, 64
1, 75112, Note_off_c, 0, 61, 64
1, 75112, Note_off_c, 0, 75, 64
1, 75136, Note_off_c, 0, 58, 64
1, 75236, Note_on_c, 0, 70, 48
1, 75252, Note_on_c, 0, 72, 38
1, 75255, Note_on_c, 0, 73, 54
1, 75258, Note_on_c, 0, 66, 45
1, 75262, Note_on_c, 0, 58, 23
1, 75272, Note_on_c, 0, 61, 39
1, 75304, Note_off_c, 0, 72, 64
1, 75310, Note_off_c, 0, 73, 64
1, 75316, Control_c, 0, 64, 0
1, 75321, Note_off_c, 0, 70, 64
1, 75326, Note_off_c, 0, 66, 64
1, 75330, Note_off_c, 0, 61, 64
1, 75336, Note_off_c, 0, 58, 64
1, 75442, Note_on_c, 0, 74, 67
1, 75450, Note_on_c, 0, 70, 47
1, 75454, Note_on_c, 0, 66, 54
1, 75462, Note_on_c, 0, 58, 29
1, 75464, Note_on_c, 0, 61, 42
1, 75472, Note_on_c, 0, 75, 58
1, 75490, Note_off_c, 0, 74, 64
1, 75520, Note_off_c, 0, 70, 64
1, 75522, Note_off_c, 0, 66, 64
1, 75526, Note_off_c, 0, 75, 64
1, 75530, Note_off_c, 0, 61, 64
1, 75548, Note_off_c, 0, 58, 64
1, 75868, Note_on_c, 0, 70, 52
1, 75872, Note_on_c, 0, 74, 63
1, 75876, Note_on_c, 0, 66, 47
1, 75878, Note_on_c, 0, 75, 62
1, 75880, Note_on_c, 0, 58, 40
1, 75882, Note_on_c, 0, 61, 51
1, 75920, Note_off_c, 0, 74, 64
1, 75942, Note_off_c, 0, 66, 64
1, 75944, Note_off_c, 0, 61, 64
1, 75948, Note_off_c, 0, 58, 64
1, 75950, Note_off_c, 0, 70, 64
1, 75956, Note_off_c, 0, 75, 64
1, 76078, Note_on_c, 0, 72, 46
1, 76088, Note_on_c, 0, 66, 49
1, 76088, Note_on_c, 0, 70, 46
1, 76094, Note_on_c, 0, 73, 57
1, 76102, Note_on_c, 0, 61, 44
1, 76102, Note_on_c, 0, 58, 37
1, 76130, Note_off_c, 0, 72, 64
1, 76144, Note_off_c, 0, 70, 64
1, 76150, Note_off_c, 0, 73, 64
1, 76158, Note_off_c, 0, 61, 64
1, 76160, Note_off_c, 0, 66, 64
1, 76168, Note_off_c, 0, 58, 64
1, 76288, Note_on_c, 0, 70, 55
1, 76300, Note_on_c, 0, 74, 46
1, 76306, Note_on_c, 0, 66, 42
1, 76318, Note_on_c, 0, 75, 61
1, 76332, Note_on_c, 0, 61, 41
1, 76340, Note_on_c, 0, 58, 20
1, 76352, Note_off_c, 0, 74, 64
1, 76370, Note_off_c, 0, 70, 64
1, 76374, Note_off_c, 0, 66, 64
1, 76384, Note_off_c, 0, 75, 64
1, 76394, Note_off_c, 0, 61, 64
1, 76420, Note_off_c, 0, 58, 64
1, 77210, Note_on_c, 0, 69, 84
1, 77220, Note_on_c, 0, 57, 56
1, 77560, Control_c, 0, 64, 127
1, 77880, Note_on_c, 0, 77, 100
1, 77882, Note_off_c, 0, 69, 64
1, 77884, Note_on_c, 0, 65, 77
1, 77920, Note_off_c, 0, 57, 64
1, 78052, Control_c, 0, 64, 0
1, 78286, Note_on_c, 0, 68, 83
1, 78286, Note_on_c, 0, 80, 95
1, 78298, Control_c, 0, 64, 127
1, 78346, Note_off_c, 0, 65, 64
1, 78378, Note_off_c, 0, 77, 64
1, 78498, Control_c, 0, 64, 0
1, 78774, Control_c, 0, 64, 127
1, 78980, Note_on_c, 0, 78, 88
1, 78996, Note_on_c, 0, 66, 68
1, 79006, Note_off_c, 0, 68, 64
1, 79036, Note_off_c, 0, 66, 64
1, 79048, Note_off_c, 0, 80, 64
1, 79242, Note_off_c, 0, 78, 64
1, 79330, Note_on_c, 0, 75, 87
1, 79332, Note_on_c, 0, 70, 66
1, 79344, Note_on_c, 0, 49, 78
1, 79374, Control_c, 0, 64, 0
1, 79526, Control_c, 0, 64, 127
1, 79536, Note_off_c, 0, 49, 64
1, 79606, Note_on_c, 0, 78, 84
1, 79642, Note_off_c, 0, 75, 64
1, 79670, Note_off_c, 0, 70, 64
1, 79770, Note_on_c, 0, 68, 67
1, 79776, Note_on_c, 0, 65, 57
1, 79790, Note_on_c, 0, 56, 32
1, 79790, Note_on_c, 0, 59, 54
1, 79810, Note_off_c, 0, 78, 64
1, 79906, Note_on_c, 0, 77, 84
1, 79954, Note_off_c, 0, 68, 64
1, 79978, Note_off_c, 0, 59, 64
1, 80036, Note_off_c, 0, 65, 64
1, 80036, Note_on_c, 0, 73, 81
1, 80036, Note_on_c, 0, 66, 69
1, 80048, Note_on_c, 0, 63, 69
1, 80074, Note_off_c, 0, 77, 64
1, 80204, Note_off_c, 0, 66, 64
1, 80214, Note_off_c, 0, 63, 64
1, 80278, Note_on_c, 0, 65, 79
1, 80280, Note_off_c, 0, 73, 64
1, 80280, Note_on_c, 0, 61, 78
1, 80316, Note_off_c, 0, 56, 64
1, 80319, Note_off_c, 0, 61, 64
1, 80346, Note_off_c, 0, 65, 64
1, 80510, Note_on_c, 0, 68, 73
1, 80522, Note_on_c, 0, 63, 70
1, 80532, Note_on_c, 0, 54, 50
1, 80538, Note_on_c, 0, 59, 47
1, 80618, Control_c, 0, 64, 0
1, 80686, Note_on_c, 0, 71, 79
1, 80752, Note_off_c, 0, 63, 64
1, 80755, Note_off_c, 0, 68, 64
1, 80832, Control_c, 0, 64, 127
1, 80862, Note_off_c, 0, 54, 64
1, 80868, Note_on_c, 0, 61, 62
1, 80880, Control_c, 0, 64, 0
1, 80888, Note_on_c, 0, 53, 74
1, 81048, Control_c, 0, 64, 127
1, 81076, Note_off_c, 0, 59, 64
1, 81076, Note_off_c, 0, 71, 64
1, 81076, Note_on_c, 0, 70, 62
1, 81114, Note_off_c, 0, 61, 64
1, 81120, Note_off_c, 0, 70, 64
1, 81229, Note_off_c, 0, 53, 64
1, 81258, Note_on_c, 0, 61, 75
1, 81276, Note_on_c, 0, 51, 38
1, 81278, Note_on_c, 0, 59, 65
1, 81348, Note_off_c, 0, 59, 64
1, 81448, Control_c, 0, 64, 0
1, 81464, Note_on_c, 0, 59, 22
1, 81570, Note_on_c, 0, 58, 46
1, 81584, Note_off_c, 0, 51, 64
1, 81584, Note_on_c, 0, 49, 45
1, 81648, Note_off_c, 0, 59, 64
1, 81770, Control_c, 0, 64, 127
1, 81812, Note_off_c, 0, 49, 64
1, 82004, Note_on_c, 0, 42, 44
1, 82504, Note_on_c, 0, 49, 32
1, 82830, Note_on_c, 0, 57, 54
1, 82886, Note_off_c, 0, 58, 64
1, 82891, Note_off_c, 0, 49, 64
1, 83042, Note_off_c, 0, 61, 64
1, 83192, Note_on_c, 0, 49, 37
1, 83430, Note_off_c, 0, 49, 64
1, 83506, Note_on_c, 0, 65, 58
1, 83518, Note_on_c, 0, 43, 40
1, 83534, Note_off_c, 0, 42, 64
1, 83537, Control_c, 0, 64, 0
1, 83886, Note_on_c, 0, 49, 35
1, 84152, Control_c, 0, 64, 127
1, 84366, Control_c, 0, 64, 0
1, 84446, Note_on_c, 0, 58, 24
1, 84544, Note_off_c, 0, 57, 64
1, 84688, Note_off_c, 0, 49, 64
1, 84736, Control_c, 0, 64, 127
1, 85042, Note_on_c, 0, 64, 38
1, 85054, Note_on_c, 0, 49, 19
1, 85090, Note_off_c, 0, 65, 64
1, 85350, Note_off_c, 0, 49, 64
1, 85422, Note_off_c, 0, 43, 64
1, 85425, Note_off_c, 0, 58, 64
1, 85456, Note_on_c, 0, 49, 2
1, 85546, Note_off_c, 0, 49, 64
1, 85766, Control_c, 0, 64, 0
1, 85788, Note_on_c, 0, 63, 33
1, 85802, Note_off_c, 0, 64, 64
1, 85810, Note_on_c, 0, 49, 17
1, 85814, Note_on_c, 0, 59, 18
1, 85818, Note_on_c, 0, 44, 26
1, 85976, Note_off_c, 0, 44, 64
1, 85978, Note_off_c, 0, 59, 64
1, 85981, Control_c, 0, 64, 127
1, 85990, Note_off_c, 0, 49, 64
1, 86020, Note_off_c, 0, 63, 64
1, 86450, Note_on_c, 0, 74, 29
1, 86456, Note_on_c, 0, 66, 28
1, 86468, Note_on_c, 0, 71, 36
1, 86468, Note_on_c, 0, 75, 36
1, 86476, Note_on_c, 0, 56, 32
1, 86494, Note_on_c, 0, 59, 19
1, 86532, Note_off_c, 0, 74, 64
1, 86532, Note_off_c, 0, 71, 64
1, 86532, Note_off_c, 0, 75, 64
1, 86535, Control_c, 0, 64, 0
1, 86544, Note_off_c, 0, 66, 64
1, 86546, Note_off_c, 0, 56, 64
1, 86562, Note_off_c, 0, 59, 64
1, 86682, Note_on_c, 0, 73, 44
1, 86687, Note_on_c, 0, 72, 38
1, 86694, Note_on_c, 0, 65, 50
1, 86700, Note_on_c, 0, 71, 29
1, 86704, Note_on_c, 0, 59, 24
1, 86710, Note_on_c, 0, 56, 36
1, 86742, Note_off_c, 0, 73, 64
1, 86742, Note_off_c, 0, 72, 64
1, 86742, Note_off_c, 0, 65, 64
1, 86766, Note_off_c, 0, 71, 64
1, 86770, Note_off_c, 0, 59, 64
1, 86774, Note_off_c, 0, 56, 64
1, 86886, Note_on_c, 0, 74, 50
1, 86900, Note_on_c, 0, 63, 55
1, 86906, Note_on_c, 0, 71, 31
1, 86928, Note_on_c, 0, 75, 43
1, 86931, Note_on_c, 0, 56, 28
1, 86931, Note_on_c, 0, 59, 24
1, 86952, Note_off_c, 0, 74, 64
1, 86962, Note_off_c, 0, 63, 64
1, 86974, Note_off_c, 0, 71, 64
1, 86998, Note_off_c, 0, 59, 64
1, 87008, Note_off_c, 0, 56, 64
1, 87014, Note_off_c, 0, 75, 64
1, 87830, Note_on_c, 0, 54, 60
1, 88084, Control_c, 0, 64, 127
1, 88220, Note_on_c, 0, 57, 61
1, 88242, Note_on_c, 0, 53, 73
1, 88278, Note_off_c, 0, 54, 64
1, 88392, Control_c, 0, 64, 0
1, 88604, Note_on_c, 0, 51, 53
1, 88624, Control_c, 0, 64, 127
1, 88650, Note_off_c, 0, 53, 64
1, 88700, Control_c, 0, 64, 0
1, 88914, Control_c, 0, 64, 127
1, 88988, Note_on_c, 0, 65, 68
1, 90056, Note_on_c, 0, 48, 25
1, 90078, Note_off_c, 0, 51, 64
1, 90222, Control_c, 0, 64, 0
1, 90482, Control_c, 0, 64, 127
1, 90602, Note_on_c, 0, 64, 37
1, 90652, Note_off_c, 0, 65, 64
1, 90668, Control_c, 0, 64, 0
1, 90836, Control_c, 0, 64, 127
1, 90862, Note_off_c, 0, 57, 64
1, 90916, Note_off_c, 0, 48, 64
1, 90986, Note_off_c, 0, 64, 64
1, 91220, Control_c, 0, 64, 0
1, 91232, Note_on_c, 0, 63, 30
1, 91256, Note_on_c, 0, 58, 19
1, 91259, Note_on_c, 0, 42, 21
1, 91272, Note_on_c, 0, 49, 11
1, 91382, Note_off_c, 0, 58, 64
1, 91432, Note_off_c, 0, 42, 64
1, 91450, Control_c, 0, 64, 127
1, 91466, Note_off_c, 0, 49, 64
1, 91498, Note_off_c, 0, 63, 64
1, 91910, Note_on_c, 0, 66, 30
1, 91910, Note_on_c, 0, 74, 35
1, 91910, Note_on_c, 0, 70, 24
1, 91920, Note_on_c, 0, 58, 26
1, 91928, Note_on_c, 0, 75, 38
1, 91930, Note_on_c, 0, 61, 29
1, 91972, Note_off_c, 0, 74, 64
1, 91986, Note_off_c, 0, 66, 64
1, 91986, Note_off_c, 0, 70, 64
1, 91988, Control_c, 0, 64, 0
1, 91990, Note_off_c, 0, 75, 64
1, 91994, Note_off_c, 0, 58, 64
1, 92002, Note_off_c, 0, 61, 64
1, 92142, Note_on_c, 0, 70, 39
1, 92148, Note_on_c, 0, 72, 34
1, 92148, Note_on_c, 0, 58, 44
1, 92154, Note_on_c, 0, 65, 46
1, 92154, Note_on_c, 0, 73, 32
1, 92164, Note_on_c, 0, 61, 40
1, 92204, Note_off_c, 0, 70, 64
1, 92204, Note_off_c, 0, 72, 64
1, 92204, Note_off_c, 0, 65, 64
1, 92216, Note_off_c, 0, 73, 64
1, 92222, Note_off_c, 0, 58, 64
1, 92222, Note_off_c, 0, 61, 64
1, 92346, Note_on_c, 0, 74, 54
1, 92374, Note_on_c, 0, 58, 42
1, 92377, Note_on_c, 0, 70, 30
1, 92380, Note_on_c, 0, 63, 50
1, 92394, Note_on_c, 0, 61, 41
1, 92406, Note_off_c, 0, 74, 64
1, 92424, Note_on_c, 0, 75, 29
1, 92442, Note_off_c, 0, 63, 64
1, 92454, Note_off_c, 0, 70, 64
1, 92454, Note_off_c, 0, 61, 64
1, 92498, Note_off_c, 0, 58, 64
1, 92504, Note_off_c, 0, 75, 64
1, 93364, Note_on_c, 0, 73, 81
1, 93388, Note_on_c, 0, 61, 62
1, 93632, Control_c, 0, 64, 127
1, 94012, Note_off_c, 0, 73, 64
1, 94020, Note_on_c, 0, 69, 71
1, 94023, Note_on_c, 0, 81, 98
1, 94036, Note_off_c, 0, 61, 64
1, 94216, Control_c, 0, 64, 0
1, 94446, Control_c, 0, 64, 127
1, 94476, Note_on_c, 0, 83, 113
1, 94484, Note_on_c, 0, 71, 96
1, 94524, Note_off_c, 0, 69, 64
1, 94560, Note_off_c, 0, 81, 64
1, 94724, Control_c, 0, 64, 0
1, 94968, Control_c, 0, 64, 127
1, 95072, Note_off_c, 0, 83, 64
1, 95074, Note_off_c, 0, 71, 64
1, 95096, Note_on_c, 0, 82, 92
1, 95108, Note_on_c, 0, 70, 70
1, 95148, Note_off_c, 0, 70, 64
1, 95214, Note_off_c, 0, 82, 64
1, 95494, Note_on_c, 0, 77, 95
1, 95496, Note_on_c, 0, 70, 66
1, 95516, Note_on_c, 0, 47, 73
1, 95652, Note_off_c, 0, 47, 64
1, 95762, Note_on_c, 0, 80, 85
1, 95814, Note_off_c, 0, 77, 64
1, 95830, Note_off_c, 0, 70, 64
1, 95938, Note_on_c, 0, 63, 59
1, 95940, Note_on_c, 0, 68, 68
1, 95960, Note_on_c, 0, 54, 41
1, 95960, Note_on_c, 0, 56, 42
1, 95978, Note_on_c, 0, 59, 42
1, 96074, Note_on_c, 0, 78, 79
1, 96110, Note_off_c, 0, 68, 64
1, 96113, Note_off_c, 0, 80, 64
1, 96134, Note_off_c, 0, 78, 64
1, 96204, Note_on_c, 0, 75, 83
1, 96216, Note_on_c, 0, 66, 71
1, 96406, Note_off_c, 0, 66, 64
1, 96428, Note_off_c, 0, 63, 64
1, 96434, Note_off_c, 0, 75, 64
1, 96454, Note_on_c, 0, 65, 88
1, 96672, Note_on_c, 0, 63, 76
1, 96672, Note_on_c, 0, 70, 81
1, 96680, Note_off_c, 0, 59, 64
1, 96738, Note_off_c, 0, 65, 64
1, 96828, Control_c, 0, 64, 0
1, 96878, Note_on_c, 0, 73, 76
1, 96958, Note_off_c, 0, 70, 64
1, 96996, Control_c, 0, 64, 127
1, 97032, Note_off_c, 0, 56, 64
1, 97038, Note_off_c, 0, 63, 64
1, 97050, Note_on_c, 0, 61, 72
1, 97164, Note_on_c, 0, 71, 92
1, 97238, Note_off_c, 0, 73, 64
1, 97264, Note_off_c, 0, 61, 64
1, 97312, Note_on_c, 0, 59, 64
1, 97318, Note_on_c, 0, 65, 87
1, 97320, Note_off_c, 0, 71, 64
1, 97386, Note_off_c, 0, 54, 64
1, 97530, Note_on_c, 0, 58, 67
1, 97536, Note_off_c, 0, 59, 64
1, 97540, Note_off_c, 0, 65, 64
1, 97630, Note_on_c, 0, 66, 68
1, 97686, Note_off_c, 0, 58, 64
1, 97742, Note_on_c, 0, 56, 79
1, 97782, Note_off_c, 0, 56, 64
1, 98086, Note_on_c, 0, 54, 83
1, 98086, Note_on_c, 0, 46, 84
1, 98092, Note_on_c, 0, 63, 75
1, 98094, Note_on_c, 0, 59, 66
1, 98134, Control_c, 0, 64, 0
1, 98152, Note_off_c, 0, 66, 64
1, 98284, Note_on_c, 0, 49, 79
1, 98344, Note_off_c, 0, 46, 64
1, 98594, Control_c, 0, 64, 127
1, 98604, Note_off_c, 0, 49, 64
1, 98604, Note_on_c, 0, 47, 73
1, 98730, Note_on_c, 0, 37, 80
1, 98732, Control_c, 0, 64, 0
1, 98788, Note_off_c, 0, 47, 64
1, 99086, Control_c, 0, 64, 127
1, 99546, Note_on_c, 0, 39, 68
1, 99594, Control_c, 0, 64, 0
1, 99610, Note_off_c, 0, 37, 64
1, 99808, Control_c, 0, 64, 127
1, 99844, Note_on_c, 0, 41, 72
1, 99860, Note_off_c, 0, 39, 64
1, 99900, Control_c, 0, 64, 0
1, 99940, Note_on_c, 0, 39, 56
1, 99966, Note_off_c, 0, 41, 64
1, 100224, Control_c, 0, 64, 127
1, 100304, Note_on_c, 0, 37, 45
1, 100326, Note_off_c, 0, 39, 64
1, 100486, Control_c, 0, 64, 0
1, 100700, Control_c, 0, 64, 127
1, 100754, Note_off_c, 0, 54, 64
1, 100813, Note_off_c, 0, 59, 64
1, 100856, Note_off_c, 0, 63, 64
1, 101162, Note_on_c, 0, 70, 26
1, 101246, Note_off_c, 0, 70, 64
1, 101294, Note_on_c, 0, 68, 31
1, 101378, Note_off_c, 0, 68, 64
1, 101678, Note_on_c, 0, 70, 30
1, 101776, Note_off_c, 0, 70, 64
1, 102450, Note_on_c, 0, 70, 26
1, 102546, Note_off_c, 0, 70, 64
1, 102590, Note_on_c, 0, 68, 23
1, 102676, Note_off_c, 0, 68, 64
1, 103004, Note_on_c, 0, 70, 39
1, 103020, Note_off_c, 0, 37, 64
1, 103060, Note_off_c, 0, 70, 64
1, 103502, Note_on_c, 0, 46, 66
1, 103505, Note_on_c, 0, 61, 50
1, 103508, Note_on_c, 0, 54, 53
1, 103520, Note_on_c, 0, 59, 53
1, 103712, Note_on_c, 0, 49, 69
1, 103728, Control_c, 0, 64, 0
1, 103738, Note_off_c, 0, 46, 64
1, 103972, Control_c, 0, 64, 127
1, 104042, Note_on_c, 0, 46, 50
1, 104052, Note_off_c, 0, 49, 64
1, 104218, Control_c, 0, 64, 0
1, 104220, Note_on_c, 0, 37, 55
1, 104298, Note_off_c, 0, 46, 64
1, 104434, Note_on_c, 0, 39, 58
1, 104472, Note_off_c, 0, 37, 64
1, 104818, Control_c, 0, 64, 127
1, 104878, Note_off_c, 0, 39, 64
1, 104920, Note_on_c, 0, 41, 47
1, 105064, Control_c, 0, 64, 0
1, 105126, Note_off_c, 0, 54, 64
1, 105129, Note_on_c, 0, 39, 44
1, 105138, Note_on_c, 0, 53, 61
1, 105140, Note_off_c, 0, 41, 64
1, 105662, Note_off_c, 0, 39, 64
1, 105674, Note_on_c, 0, 37, 43
1, 105878, Control_c, 0, 64, 127
1, 105898, Note_off_c, 0, 53, 64
1, 105980, Note_off_c, 0, 59, 64
1, 106030, Note_off_c, 0, 61, 64
1, 106596, Note_on_c, 0, 70, 25
1, 106696, Note_off_c, 0, 70, 64
1, 106764, Note_on_c, 0, 68, 28
1, 106842, Note_off_c, 0, 68, 64
1, 107244, Note_on_c, 0, 70, 28
1, 107292, Note_off_c, 0, 37, 64
1, 107380, Note_off_c, 0, 70, 64
1, 108144, Note_on_c, 0, 70, 27
1, 108248, Note_off_c, 0, 70, 64
1, 108322, Note_on_c, 0, 68, 24
1, 108400, Note_off_c, 0, 68, 64
1, 108982, Note_on_c, 0, 70, 21
1, 109090, Note_off_c, 0, 70, 64
1, 110002, Note_on_c, 0, 70, 36
1, 110104, Note_off_c, 0, 70, 64
1, 110176, Note_on_c, 0, 68, 30
1, 110284, Note_off_c, 0, 68, 64
1, 110304, Control_c, 0, 64, 0
1, 110566, Note_on_c, 0, 70, 35
1, 110636, Note_off_c, 0, 70, 64
1, 110744, Note_on_c, 0, 65, 31
1, 110814, Note_off_c, 0, 65, 64
1, 111174, Note_on_c, 0, 70, 25
1, 111242, Note_off_c, 0, 70, 64
1, 111556, Note_on_c, 0, 68, 34
1, 111686, Note_off_c, 0, 68, 64
1, 111706, Note_on_c, 0, 65, 22
1, 111802, Note_off_c, 0, 65, 64
1, 112032, Note_on_c, 0, 63, 34
1, 112098, Note_off_c, 0, 63, 64
1, 112172, Note_on_c, 0, 59, 39
1, 112226, Note_off_c, 0, 59, 64
1, 112474, Note_on_c, 0, 63, 46
1, 112522, Note_off_c, 0, 63, 64
1, 112760, Note_on_c, 0, 58, 55
1, 112768, Note_on_c, 0, 39, 52
1, 112768, Note_on_c, 0, 46, 28
1, 112810, Note_off_c, 0, 58, 64
1, 112814, Note_off_c, 0, 39, 64
1, 112844, Note_off_c, 0, 46, 64
1, 112880, Note_on_c, 0, 58, 36
1, 113024, Note_on_c, 0, 53, 56
1, 113034, Note_on_c, 0, 55, 37
1, 113072, Note_off_c, 0, 53, 64
1, 113092, Note_off_c, 0, 55, 64
1, 113114, Note_off_c, 0, 58, 64
1, 113166, Note_on_c, 0, 60, 42
1, 113226, Note_off_c, 0, 60, 64
1, 113264, Note_on_c, 0, 46, 42
1, 113266, Note_on_c, 0, 58, 45
1, 113269, Note_on_c, 0, 39, 54
1, 113314, Note_off_c, 0, 39, 64
1, 113326, Note_off_c, 0, 46, 64
1, 113488, Note_off_c, 0, 58, 64
1, 113520, Note_on_c, 0, 63, 68
1, 113534, Note_on_c, 0, 70, 61
1, 113540, Note_on_c, 0, 55, 64
1, 113562, Note_off_c, 0, 63, 64
1, 113565, Note_on_c, 0, 53, 42
1, 113584, Note_off_c, 0, 70, 64
1, 113586, Note_off_c, 0, 55, 64
1, 113630, Note_off_c, 0, 53, 64
1, 113788, Note_on_c, 0, 58, 52
1, 113796, Note_on_c, 0, 39, 48
1, 113806, Note_on_c, 0, 46, 19
1, 113846, Note_off_c, 0, 39, 64
1, 113880, Note_off_c, 0, 46, 64
1, 114076, Note_on_c, 0, 55, 44
1, 114082, Note_on_c, 0, 53, 57
1, 114132, Note_off_c, 0, 55, 64
1, 114134, Note_off_c, 0, 53, 64
1, 114320, Note_on_c, 0, 46, 50
1, 114322, Note_on_c, 0, 39, 57
1, 114366, Note_off_c, 0, 39, 64
1, 114378, Note_off_c, 0, 46, 64
1, 114576, Note_on_c, 0, 55, 66
1, 114586, Note_on_c, 0, 53, 63
1, 114620, Note_off_c, 0, 55, 64
1, 114636, Note_off_c, 0, 53, 64
1, 114674, Note_off_c, 0, 58, 64
1, 114832, Note_on_c, 0, 58, 72
1, 114844, Note_on_c, 0, 46, 54
1, 114852, Note_on_c, 0, 39, 55
1, 114894, Note_off_c, 0, 46, 64
1, 114896, Note_off_c, 0, 39, 64
1, 114946, Note_on_c, 0, 56, 70
1, 114970, Note_off_c, 0, 58, 64
1, 115088, Note_on_c, 0, 51, 47
1, 115104, Note_on_c, 0, 53, 50
1, 115122, Note_off_c, 0, 56, 64
1, 115142, Note_off_c, 0, 51, 64
1, 115162, Note_off_c, 0, 53, 64
1, 115200, Note_on_c, 0, 58, 47
1, 115308, Note_on_c, 0, 60, 75
1, 115322, Note_on_c, 0, 39, 64
1, 115324, Note_off_c, 0, 58, 64
1, 115324, Note_on_c, 0, 46, 54
1, 115354, Note_off_c, 0, 60, 64
1, 115364, Note_off_c, 0, 39, 64
1, 115374, Note_off_c, 0, 46, 64
1, 115564, Note_on_c, 0, 51, 70
1, 115565, Note_on_c, 0, 56, 70
1, 115566, Note_on_c, 0, 53, 62
1, 115606, Note_off_c, 0, 51, 64
1, 115617, Note_off_c, 0, 53, 64
1, 115629, Note_off_c, 0, 56, 64
1, 115830, Note_on_c, 0, 58, 84
1, 115833, Note_on_c, 0, 46, 75
1, 115844, Note_on_c, 0, 39, 68
1, 115880, Note_off_c, 0, 46, 64
1, 115888, Note_off_c, 0, 39, 64
1, 115942, Note_on_c, 0, 56, 78
1, 116016, Note_off_c, 0, 58, 64
1, 116068, Note_on_c, 0, 53, 85
1, 116080, Note_on_c, 0, 51, 69
1, 116110, Note_off_c, 0, 53, 64
1, 116136, Note_off_c, 0, 51, 64
1, 116144, Note_off_c, 0, 56, 64
1, 116192, Note_on_c, 0, 58, 66
1, 116306, Note_on_c, 0, 59, 84
1, 116334, Note_off_c, 0, 58, 64
1, 116336, Note_on_c, 0, 46, 45
1, 116348, Note_on_c, 0, 39, 40
1, 116390, Note_off_c, 0, 59, 64
1, 116396, Note_off_c, 0, 46, 64
1, 116404, Note_off_c, 0, 39, 64
1, 116556, Note_on_c, 0, 56, 80
1, 116562, Note_on_c, 0, 51, 63
1, 116564, Note_on_c, 0, 53, 85
1, 116606, Note_off_c, 0, 53, 64
1, 116608, Note_off_c, 0, 51, 64
1, 116632, Note_off_c, 0, 56, 64
1, 116830, Note_on_c, 0, 58, 100
1, 116833, Note_on_c, 0, 46, 99
1, 116916, Note_on_c, 0, 43, 100
1, 116926, Note_on_c, 0, 55, 104
1, 116938, Note_off_c, 0, 46, 64
1, 116988, Note_off_c, 0, 58, 64
1, 116990, Note_off_c, 0, 43, 64
1, 117002, Control_c, 0, 64, 127
1, 117006, Note_off_c, 0, 55, 64
1, 117156, Control_c, 0, 64, 0
1, 117210, Note_on_c, 0, 53, 115
1, 117218, Note_on_c, 0, 41, 101
1, 117294, Note_on_c, 0, 51, 103
1, 117304, Note_on_c, 0, 39, 104
1, 117338, Note_off_c, 0, 53, 64
1, 117341, Note_off_c, 0, 41, 64
1, 117382, Note_off_c, 0, 39, 64
1, 117390, Note_off_c, 0, 51, 64
1, 117570, Note_on_c, 0, 50, 111
1, 117576, Note_on_c, 0, 38, 111
1, 117646, Note_off_c, 0, 50, 64
1, 117674, Note_off_c, 0, 38, 64
1, 117818, Note_on_c, 0, 48, 111
1, 117826, Note_on_c, 0, 36, 118
1, 117906, Note_off_c, 0, 36, 64
1, 117916, Note_off_c, 0, 48, 64
1, 118074, Note_on_c, 0, 43, 106
1, 118077, Note_on_c, 0, 31, 118
1, 118180, Note_off_c, 0, 31, 64
1, 118206, Note_off_c, 0, 43, 64
1, 118324, Note_on_c, 0, 48, 99
1, 118330, Note_on_c, 0, 36, 110
1, 118426, Note_off_c, 0, 36, 64
1, 118438, Note_off_c, 0, 48, 64
1, 118570, Note_on_c, 0, 38, 111
1, 118574, Note_on_c, 0, 50, 109
1, 118636, Note_off_c, 0, 38, 64
1, 118642, Note_off_c, 0, 50, 64
1, 118876, Note_on_c, 0, 70, 100
1, 118882, Note_on_c, 0, 46, 100
1, 118882, Note_on_c, 0, 39, 103
1, 118938, Control_c, 0, 64, 127
1, 118956, Note_off_c, 0, 46, 64
1, 118992, Note_off_c, 0, 39, 64
1, 119006, Note_on_c, 0, 68, 86
1, 119088, Note_off_c, 0, 70, 64
1, 119126, Note_on_c, 0, 56, 97
1, 119136, Note_on_c, 0, 53, 113
1, 119138, Control_c, 0, 64, 0
1, 119146, Note_on_c, 0, 63, 93
1, 119148, Note_on_c, 0, 59, 96
1, 119176, Note_off_c, 0, 68, 64
1, 119210, Note_off_c, 0, 56, 64
1, 119220, Note_off_c, 0, 53, 64
1, 119262, Note_on_c, 0, 70, 83
1, 119276, Note_off_c, 0, 59, 64
1, 119310, Note_off_c, 0, 63, 64
1, 119376, Note_on_c, 0, 46, 102
1, 119379, Note_on_c, 0, 39, 103
1, 119379, Note_on_c, 0, 65, 96
1, 119420, Note_off_c, 0, 39, 64
1, 119422, Note_off_c, 0, 70, 64
1, 119424, Note_off_c, 0, 46, 64
1, 119460, Control_c, 0, 64, 127
1, 119464, Note_off_c, 0, 65, 64
1, 119506, Control_c, 0, 64, 0
1, 119640, Note_on_c, 0, 70, 98
1, 119644, Note_on_c, 0, 56, 99
1, 119645, Note_on_c, 0, 53, 117
1, 119645, Note_on_c, 0, 60, 34
1, 119646, Note_on_c, 0, 59, 99
1, 119647, Note_on_c, 0, 63, 90
1, 119711, Note_off_c, 0, 63, 64
1, 119714, Note_off_c, 0, 53, 64
1, 119717, Note_off_c, 0, 60, 64
1, 119720, Note_off_c, 0, 56, 64
1, 119746, Note_off_c, 0, 59, 64
1, 119780, Note_off_c, 0, 70, 64
1, 119860, Control_c, 0, 64, 127
1, 119890, Control_c, 0, 64, 0
1, 119904, Note_on_c, 0, 68, 100
1, 119907, Note_on_c, 0, 46, 97
1, 119912, Note_on_c, 0, 39, 95
1, 119958, Note_off_c, 0, 39, 64
1, 119966, Note_off_c, 0, 46, 64
1, 120018, Note_on_c, 0, 65, 94
1, 120090, Note_off_c, 0, 68, 64
1, 120140, Note_on_c, 0, 59, 81
1, 120143, Note_on_c, 0, 56, 90
1, 120144, Note_on_c, 0, 53, 103
1, 120180, Note_off_c, 0, 53, 64
1, 120210, Note_off_c, 0, 56, 64
1, 120248, Note_off_c, 0, 59, 64
1, 120290, Note_on_c, 0, 63, 93
1, 120338, Note_off_c, 0, 65, 64
1, 120390, Note_on_c, 0, 46, 99
1, 120393, Note_on_c, 0, 39, 102
1, 120393, Note_on_c, 0, 59, 98
1, 120460, Note_off_c, 0, 63, 64
1, 120472, Note_off_c, 0, 39, 64
1, 120492, Note_off_c, 0, 46, 64
1, 120502, Note_off_c, 0, 59, 64
1, 120646, Note_on_c, 0, 59, 101
1, 120648, Note_on_c, 0, 63, 102
1, 120648, Note_on_c, 0, 56, 100
1, 120651, Note_on_c, 0, 53, 117
1, 120730, Note_off_c, 0, 56, 64
1, 120743, Note_off_c, 0, 53, 64
1, 120766, Note_off_c, 0, 59, 64
1, 120826, Note_off_c, 0, 63, 64
1, 120910, Note_on_c, 0, 46, 92
1, 120914, Note_on_c, 0, 39, 94
1, 120926, Note_on_c, 0, 58, 90
1, 120954, Note_off_c, 0, 39, 64
1, 120968, Note_off_c, 0, 46, 64
1, 121026, Note_off_c, 0, 58, 64
1, 121044, Note_on_c, 0, 58, 62
1, 121162, Note_on_c, 0, 55, 98
1, 121166, Note_on_c, 0, 53, 108
1, 121208, Note_off_c, 0, 53, 64
1, 121230, Note_off_c, 0, 55, 64
1, 121252, Note_off_c, 0, 58, 64
1, 121294, Note_on_c, 0, 60, 84
1, 121400, Note_on_c, 0, 58, 85
1, 121402, Note_off_c, 0, 60, 64
1, 121414, Note_on_c, 0, 46, 86
1, 121420, Note_on_c, 0, 39, 92
1, 121462, Note_off_c, 0, 39, 64
1, 121478, Note_off_c, 0, 46, 64
1, 121654, Note_on_c, 0, 63, 92
1, 121657, Note_on_c, 0, 70, 92
1, 121666, Note_on_c, 0, 55, 101
1, 121672, Note_on_c, 0, 53, 108
1, 121678, Note_off_c, 0, 58, 64
1, 121704, Note_off_c, 0, 53, 64
1, 121708, Note_off_c, 0, 55, 64
1, 121750, Control_c, 0, 64, 127
1, 121762, Note_off_c, 0, 63, 64
1, 121776, Note_off_c, 0, 70, 64
1, 121912, Note_on_c, 0, 58, 92
1, 121920, Control_c, 0, 64, 0
1, 121922, Note_on_c, 0, 46, 85
1, 121926, Note_on_c, 0, 39, 88
1, 121982, Note_off_c, 0, 39, 64
1, 121985, Note_off_c, 0, 46, 64
1, 122174, Note_on_c, 0, 55, 92
1, 122184, Note_on_c, 0, 53, 101
1, 122216, Note_off_c, 0, 55, 64
1, 122218, Note_off_c, 0, 53, 64
1, 122428, Note_on_c, 0, 46, 81
1, 122438, Note_on_c, 0, 39, 78
1, 122480, Note_off_c, 0, 39, 64
1, 122492, Note_off_c, 0, 46, 64
1, 122564, Control_c, 0, 64, 127
1, 122594, Control_c, 0, 64, 0
1, 122678, Note_on_c, 0, 55, 88
1, 122684, Note_on_c, 0, 53, 103
1, 122720, Note_off_c, 0, 53, 64
1, 122724, Note_off_c, 0, 55, 64
1, 122730, Note_off_c, 0, 58, 64
1, 122946, Note_on_c, 0, 42, 71
1, 122948, Note_on_c, 0, 49, 72
1, 122958, Note_on_c, 0, 58, 79
1, 122988, Note_off_c, 0, 49, 64
1, 122990, Note_off_c, 0, 42, 64
1, 123000, Note_off_c, 0, 58, 64
1, 123058, Note_on_c, 0, 58, 64
1, 123190, Note_on_c, 0, 56, 75
1, 123222, Note_on_c, 0, 54, 66
1, 123225, Note_off_c, 0, 58, 64
1, 123228, Note_on_c, 0, 49, 52
1, 123240, Note_off_c, 0, 56, 64
1, 123268, Note_off_c, 0, 54, 64
1, 123286, Note_off_c, 0, 49, 64
1, 123332, Note_on_c, 0, 60, 62
1, 123396, Note_off_c, 0, 60, 64
1, 123422, Note_on_c, 0, 58, 64
1, 123440, Note_on_c, 0, 42, 83
1, 123446, Note_on_c, 0, 49, 73
1, 123486, Note_off_c, 0, 42, 64
1, 123486, Note_off_c, 0, 49, 64
1, 123536, Note_off_c, 0, 58, 64
1, 123680, Note_on_c, 0, 61, 86
1, 123690, Note_on_c, 0, 57, 81
1, 123694, Note_on_c, 0, 54, 86
1, 123702, Note_on_c, 0, 49, 68
1, 123730, Note_off_c, 0, 57, 64
1, 123746, Note_off_c, 0, 54, 64
1, 123770, Note_off_c, 0, 49, 64
1, 123806, Note_off_c, 0, 61, 64
1, 123934, Note_on_c, 0, 63, 94
1, 123938, Note_on_c, 0, 49, 89
1, 123940, Note_on_c, 0, 42, 75
1, 123974, Note_off_c, 0, 49, 64
1, 123978, Note_off_c, 0, 42, 64
1, 124068, Note_off_c, 0, 63, 64
1, 124182, Note_on_c, 0, 65, 100
1, 124182, Note_on_c, 0, 58, 83
1, 124190, Note_on_c, 0, 54, 92
1, 124196, Note_on_c, 0, 49, 70
1, 124226, Note_off_c, 0, 58, 64
1, 124274, Note_off_c, 0, 49, 64
1, 124290, Note_off_c, 0, 65, 64
1, 124298, Note_off_c, 0, 54, 64
1, 124424, Note_on_c, 0, 63, 106
1, 124430, Note_on_c, 0, 42, 92
1, 124436, Note_on_c, 0, 49, 92
1, 124464, Note_off_c, 0, 42, 64
1, 124476, Note_off_c, 0, 49, 64
1, 124560, Note_off_c, 0, 63, 64
1, 124662, Note_on_c, 0, 66, 100
1, 124682, Note_on_c, 0, 54, 88
1, 124684, Note_on_c, 0, 59, 94
1, 124686, Note_on_c, 0, 49, 83
1, 124728, Note_off_c, 0, 49, 64
1, 124732, Note_off_c, 0, 54, 64
1, 124776, Note_off_c, 0, 59, 64
1, 124784, Note_off_c, 0, 66, 64
1, 124920, Note_on_c, 0, 65, 109
1, 124976, Control_c, 0, 64, 127
1, 125010, Note_off_c, 0, 65, 64
1, 125046, Note_on_c, 0, 65, 108
1, 125186, Note_off_c, 0, 65, 64
1, 125192, Note_on_c, 0, 64, 87
1, 125194, Note_on_c, 0, 61, 90
1, 125254, Note_off_c, 0, 64, 64
1, 125290, Note_on_c, 0, 67, 100
1, 125306, Note_off_c, 0, 61, 64
1, 125398, Note_on_c, 0, 65, 105
1, 125410, Note_off_c, 0, 67, 64
1, 125410, Note_on_c, 0, 63, 95
1, 125413, Note_on_c, 0, 60, 84
1, 125500, Control_c, 0, 64, 0
1, 125512, Note_off_c, 0, 63, 64
1, 125526, Note_off_c, 0, 65, 64
1, 125534, Note_off_c, 0, 60, 64
1, 125560, Control_c, 0, 64, 127
1, 125650, Note_on_c, 0, 67, 101
1, 125656, Note_on_c, 0, 53, 97
1, 125659, Note_on_c, 0, 57, 75
1, 125666, Note_on_c, 0, 63, 95
1, 125674, Note_on_c, 0, 74, 108
1, 125700, Control_c, 0, 64, 0
1, 125732, Note_off_c, 0, 67, 64
1, 125744, Note_off_c, 0, 57, 64
1, 125754, Note_off_c, 0, 63, 64
1, 125762, Note_off_c, 0, 53, 64
1, 125784, Note_off_c, 0, 74, 64
1, 125951, Note_on_c, 0, 62, 110
1, 125952, Note_on_c, 0, 58, 90
1, 125954, Note_on_c, 0, 70, 104
1, 125954, Note_on_c, 0, 53, 106
1, 125957, Note_on_c, 0, 46, 68
1, 125989, Note_off_c, 0, 62, 64
1, 125998, Note_off_c, 0, 53, 64
1, 126006, Control_c, 0, 64, 127
1, 126008, Note_off_c, 0, 46, 64
1, 126046, Note_off_c, 0, 58, 64
1, 126062, Note_off_c, 0, 70, 64
1, 126562, Note_on_c, 0, 34, 97
1, 126562, Note_on_c, 0, 82, 98
1, 126562, Note_on_c, 0, 94, 100
1, 126565, Note_on_c, 0, 46, 98
1, 126604, Note_off_c, 0, 34, 64
1, 126604, Note_off_c, 0, 94, 64
1, 126634, Note_off_c, 0, 82, 64
1, 126644, Note_off_c, 0, 46, 64
1, 126866, Control_c, 0, 64, 0
1, 127084, Note_on_c, 0, 63, 70
1, 127094, Note_on_c, 0, 60, 59
1, 127094, Note_on_c, 0, 56, 83
1, 127094, Note_on_c, 0, 58, 54
1, 127140, Note_off_c, 0, 56, 64
1, 127144, Note_off_c, 0, 58, 64
1, 127166, Note_off_c, 0, 60, 64
1, 127222, Note_on_c, 0, 62, 65
1, 127226, Note_on_c, 0, 65, 57
1, 127238, Note_off_c, 0, 63, 64
1, 127288, Note_off_c, 0, 62, 64
1, 127338, Note_on_c, 0, 70, 56
1, 127346, Note_on_c, 0, 68, 51
1, 127378, Note_off_c, 0, 65, 64
1, 127386, Note_off_c, 0, 70, 64
1, 127398, Note_off_c, 0, 68, 64
1, 127476, Note_on_c, 0, 63, 32
1, 127482, Note_on_c, 0, 67, 44
1, 127554, Note_off_c, 0, 67, 64
1, 127560, Note_off_c, 0, 63, 64
1, 127576, Note_on_c, 0, 58, 48
1, 127576, Note_on_c, 0, 62, 61
1, 127578, Note_on_c, 0, 56, 47
1, 127578, Note_on_c, 0, 65, 49
1, 127628, Note_off_c, 0, 62, 64
1, 127630, Note_off_c, 0, 58, 64
1, 127632, Note_off_c, 0, 56, 64
1, 127666, Note_off_c, 0, 65, 64
1, 127830, Note_on_c, 0, 63, 60
1, 127830, Note_on_c, 0, 70, 35
1, 127840, Note_on_c, 0, 68, 30
1, 127842, Note_on_c, 0, 60, 46
1, 127888, Note_off_c, 0, 63, 64
1, 127892, Note_off_c, 0, 70, 64
1, 127902, Note_off_c, 0, 60, 64
1, 127906, Note_off_c, 0, 68, 64
1, 128114, Note_on_c, 0, 65, 64
1, 128120, Note_on_c, 0, 62, 63
1, 128122, Note_on_c, 0, 56, 43
1, 128130, Note_on_c, 0, 58, 32
1, 128172, Control_c, 0, 64, 127
1, 128174, Note_off_c, 0, 62, 64
1, 128178, Note_off_c, 0, 56, 64
1, 128196, Note_off_c, 0, 58, 64
1, 128236, Note_off_c, 0, 65, 64
1, 128386, Note_on_c, 0, 68, 35
1, 128392, Note_on_c, 0, 70, 21
1, 128444, Note_off_c, 0, 68, 64
1, 128464, Note_off_c, 0, 70, 64
1, 128656, Note_on_c, 0, 94, 65
1, 128664, Note_on_c, 0, 82, 45
1, 128664, Note_on_c, 0, 56, 28
1, 128667, Note_on_c, 0, 58, 23
1, 128694, Note_off_c, 0, 94, 64
1, 128718, Note_off_c, 0, 82, 64
1, 128728, Note_off_c, 0, 56, 64
1, 128736, Note_off_c, 0, 58, 64
1, 128910, Note_on_c, 0, 70, 42
1, 128914, Note_on_c, 0, 68, 47
1, 128964, Note_off_c, 0, 70, 64
1, 128964, Note_off_c, 0, 68, 64
1, 129110, Control_c, 0, 64, 0
1, 129158, Note_on_c, 0, 55, 80
1, 129160, Note_on_c, 0, 63, 77
1, 129160, Note_on_c, 0, 60, 68
1, 129162, Note_on_c, 0, 58, 62
1, 129198, Note_off_c, 0, 55, 64
1, 129222, Note_off_c, 0, 58, 64
1, 129246, Note_off_c, 0, 60, 64
1, 129262, Note_on_c, 0, 65, 72
1, 129264, Note_on_c, 0, 62, 74
1, 129318, Note_off_c, 0, 63, 64
1, 129370, Control_c, 0, 64, 127
1, 129390, Note_on_c, 0, 70, 60
1, 129406, Note_on_c, 0, 67, 50
1, 129420, Note_off_c, 0, 62, 64
1, 129442, Note_off_c, 0, 70, 64
1, 129454, Note_off_c, 0, 65, 64
1, 129460, Note_off_c, 0, 67, 64
1, 129494, Control_c, 0, 64, 0
1, 129522, Note_on_c, 0, 67, 60
1, 129530, Note_on_c, 0, 63, 54
1, 129620, Note_off_c, 0, 63, 64
1, 129622, Note_on_c, 0, 62, 71
1, 129628, Note_on_c, 0, 65, 61
1, 129642, Note_on_c, 0, 55, 78
1, 129645, Note_on_c, 0, 58, 54
1, 129662, Note_off_c, 0, 67, 64
1, 129682, Note_off_c, 0, 55, 64
1, 129698, Note_off_c, 0, 58, 64
1, 129714, Note_off_c, 0, 62, 64
1, 129754, Note_off_c, 0, 65, 64
1, 129876, Note_on_c, 0, 70, 60
1, 129882, Note_on_c, 0, 63, 72
1, 129884, Note_on_c, 0, 60, 62
1, 129900, Note_on_c, 0, 67, 50
1, 129928, Note_off_c, 0, 70, 64
1, 129952, Note_off_c, 0, 67, 64
1, 129966, Note_off_c, 0, 60, 64
1, 130000, Note_off_c, 0, 63, 64
1, 130126, Note_on_c, 0, 65, 76
1, 130130, Note_on_c, 0, 55, 80
1, 130130, Note_on_c, 0, 62, 79
1, 130132, Note_on_c, 0, 58, 60
1, 130170, Note_off_c, 0, 55, 64
1, 130186, Note_off_c, 0, 58, 64
1, 130236, Note_off_c, 0, 62, 64
1, 130242, Note_off_c, 0, 65, 64
1, 130368, Note_on_c, 0, 70, 78
1, 130368, Note_on_c, 0, 60, 88
1, 130374, Note_on_c, 0, 63, 89
1, 130388, Note_on_c, 0, 67, 61
1, 130422, Note_off_c, 0, 70, 64
1, 130434, Note_off_c, 0, 67, 64
1, 130582, Note_off_c, 0, 63, 64
1, 130590, Note_off_c, 0, 60, 64
1, 130621, Note_on_c, 0, 65, 92
1, 130626, Note_on_c, 0, 58, 78
1, 130627, Note_on_c, 0, 55, 65
1, 130628, Note_on_c, 0, 62, 88
1, 130664, Note_off_c, 0, 62, 64
1, 130675, Note_off_c, 0, 55, 64
1, 130706, Note_off_c, 0, 58, 64
1, 130734, Note_off_c, 0, 65, 64
1, 130754, Control_c, 0, 64, 127
1, 130862, Note_on_c, 0, 72, 90
1, 130865, Note_on_c, 0, 70, 73
1, 130867, Note_on_c, 0, 67, 79
1, 130867, Note_on_c, 0, 63, 79
1, 130896, Note_off_c, 0, 72, 64
1, 130903, Note_off_c, 0, 63, 64
1, 130906, Note_off_c, 0, 70, 64
1, 130907, Note_off_c, 0, 67, 64
1, 130908, Control_c, 0, 64, 0
1, 131172, Note_on_c, 0, 64, 81
1, 131174, Note_on_c, 0, 57, 68
1, 131175, Note_on_c, 0, 61, 64
1, 131190, Note_on_c, 0, 47, 39
1, 131248, Note_off_c, 0, 47, 64
1, 131262, Control_c, 0, 64, 127
1, 131290, Note_on_c, 0, 49, 78
1, 131336, Note_off_c, 0, 49, 64
1, 131460, Control_c, 0, 64, 0
1, 131582, Note_on_c, 0, 51, 67
1, 131630, Note_off_c, 0, 51, 64
1, 131680, Note_on_c, 0, 49, 81
1, 131760, Note_off_c, 0, 49, 64
1, 131962, Note_on_c, 0, 47, 63
1, 132006, Note_off_c, 0, 47, 64
1, 132046, Note_off_c, 0, 57, 64
1, 132228, Note_on_c, 0, 46, 51
1, 132230, Note_on_c, 0, 56, 46
1, 132236, Note_on_c, 0, 65, 53
1, 132236, Note_on_c, 0, 60, 53
1, 132334, Note_on_c, 0, 48, 49
1, 132341, Note_off_c, 0, 61, 64
1, 132382, Note_off_c, 0, 64, 64
1, 132394, Note_off_c, 0, 46, 64
1, 132456, Note_off_c, 0, 48, 64
1, 132490, Control_c, 0, 64, 127
1, 132566, Control_c, 0, 64, 0
1, 132636, Note_on_c, 0, 50, 63
1, 132726, Note_off_c, 0, 50, 64
1, 132750, Note_on_c, 0, 48, 55
1, 132806, Note_off_c, 0, 48, 64
1, 132936, Control_c, 0, 64, 127
1, 132962, Note_off_c, 0, 60, 64
1, 133006, Note_off_c, 0, 65, 64
1, 133040, Note_on_c, 0, 46, 33
1, 133110, Note_off_c, 0, 46, 64
1, 133118, Note_off_c, 0, 56, 64
1, 133307, Note_on_c, 0, 55, 44
1, 133308, Note_on_c, 0, 58, 43
1, 133310, Note_on_c, 0, 53, 81
1, 133314, Note_on_c, 0, 46, 44
1, 133350, Control_c, 0, 64, 0
1, 133402, Note_off_c, 0, 46, 64
1, 133430, Note_on_c, 0, 48, 49
1, 133498, Note_off_c, 0, 48, 64
1, 133706, Note_on_c, 0, 50, 57
1, 133780, Note_off_c, 0, 50, 64
1, 133824, Note_on_c, 0, 48, 45
1, 133884, Note_off_c, 0, 48, 64
1, 134100, Note_on_c, 0, 46, 38
1, 134160, Note_off_c, 0, 46, 64
1, 134406, Note_off_c, 0, 53, 64
1, 134440, Control_c, 0, 64, 127
1, 134504, Note_on_c, 0, 51, 46
1, 134509, Note_off_c, 0, 55, 64
1, 134514, Note_off_c, 0, 58, 64
1, 134580, Note_off_c, 0, 51, 64
1, 134668, Note_on_c, 0, 46, 82
1, 134671, Note_on_c, 0, 34, 56
1, 134776, Note_on_c, 0, 36, 85
1, 134778, Note_on_c, 0, 48, 78
1, 134780, Note_off_c, 0, 46, 64
1, 134819, Note_off_c, 0, 34, 64
1, 134862, Note_on_c, 0, 38, 97
1, 134864, Note_on_c, 0, 50, 97
1, 134900, Note_off_c, 0, 36, 64
1, 134928, Note_off_c, 0, 48, 64
1, 134962, Note_off_c, 0, 38, 64
1, 134986, Note_on_c, 0, 48, 104
1, 134992, Note_on_c, 0, 36, 98
1, 135062, Note_off_c, 0, 50, 64
1, 135062, Note_off_c, 0, 36, 64
1, 135202, Note_off_c, 0, 48, 64
1, 135226, Note_on_c, 0, 34, 114
1, 135229, Note_on_c, 0, 22, 111
1, 135260, Note_on_c, 0, 32, 43
1, 135320, Note_off_c, 0, 32, 64
1, 135332, Note_off_c, 0, 34, 64
1, 135334, Note_off_c, 0, 22, 64
1, 135424, Control_c, 0, 64, 0
1, 135640, Note_on_c, 0, 63, 73
1, 135640, Note_on_c, 0, 56, 62
1, 135640, Note_on_c, 0, 58, 56
1, 135643, Note_on_c, 0, 60, 62
1, 135730, Note_off_c, 0, 56, 64
1, 135730, Note_off_c, 0, 58, 64
1, 135762, Note_off_c, 0, 60, 64
1, 135788, Note_on_c, 0, 62, 59
1, 135790, Note_on_c, 0, 65, 56
1, 135806, Note_off_c, 0, 63, 64
1, 135880, Note_off_c, 0, 62, 64
1, 135916, Note_on_c, 0, 70, 47
1, 135924, Note_on_c, 0, 68, 27
1, 135968, Note_off_c, 0, 65, 64
1, 135986, Note_off_c, 0, 70, 64
1, 135990, Note_off_c, 0, 68, 64
1, 136054, Note_on_c, 0, 63, 33
1, 136062, Note_on_c, 0, 67, 41
1, 136128, Note_off_c, 0, 63, 64
1, 136142, Note_off_c, 0, 67, 64
1, 136148, Note_on_c, 0, 62, 61
1, 136150, Note_on_c, 0, 65, 50
1, 136152, Note_on_c, 0, 56, 47
1, 136152, Note_on_c, 0, 58, 44
1, 136200, Note_off_c, 0, 62, 64
1, 136200, Note_off_c, 0, 65, 64
1, 136206, Note_off_c, 0, 56, 64
1, 136216, Note_off_c, 0, 58, 64
1, 136405, Note_on_c, 0, 70, 40
1, 136410, Note_on_c, 0, 63, 59
1, 136411, Note_on_c, 0, 60, 46
1, 136460, Note_off_c, 0, 63, 64
1, 136463, Note_off_c, 0, 70, 64
1, 136471, Note_off_c, 0, 60, 64
1, 136687, Note_on_c, 0, 65, 52
1, 136688, Note_on_c, 0, 56, 42
1, 136690, Note_on_c, 0, 62, 52
1, 136691, Note_on_c, 0, 58, 31
1, 136742, Note_off_c, 0, 62, 64
1, 136754, Note_off_c, 0, 56, 64
1, 136759, Note_off_c, 0, 58, 64
1, 136776, Control_c, 0, 64, 127
1, 136813, Note_off_c, 0, 65, 64
1, 136962, Note_on_c, 0, 70, 26
1, 136974, Note_on_c, 0, 68, 21
1, 137028, Note_off_c, 0, 70, 64
1, 137044, Note_off_c, 0, 68, 64
1, 137232, Note_on_c, 0, 94, 65
1, 137232, Note_on_c, 0, 82, 39
1, 137233, Note_on_c, 0, 56, 29
1, 137233, Note_on_c, 0, 58, 21
1, 137270, Note_off_c, 0, 94, 64
1, 137292, Note_off_c, 0, 82, 64
1, 137297, Note_off_c, 0, 56, 64
1, 137305, Note_off_c, 0, 58, 64
1, 137476, Note_on_c, 0, 68, 55
1, 137490, Note_on_c, 0, 70, 36
1, 137536, Note_off_c, 0, 68, 64
1, 137546, Note_off_c, 0, 70, 64
1, 137682, Control_c, 0, 64, 0
1, 137730, Note_on_c, 0, 63, 77
1, 137730, Note_on_c, 0, 55, 83
1, 137736, Note_on_c, 0, 60, 69
1, 137740, Note_on_c, 0, 58, 53
1, 137774, Note_off_c, 0, 55, 64
1, 137806, Note_off_c, 0, 58, 64
1, 137842, Note_on_c, 0, 62, 75
1, 137845, Note_on_c, 0, 65, 72
1, 137866, Note_off_c, 0, 60, 64
1, 137898, Control_c, 0, 64, 127
1, 137900, Note_off_c, 0, 63, 64
1, 137960, Control_c, 0, 64, 0
1, 137972, Note_on_c, 0, 70, 69
1, 137976, Note_off_c, 0, 62, 64
1, 137990, Note_on_c, 0, 67, 60
1, 138026, Note_off_c, 0, 70, 64
1, 138036, Note_off_c, 0, 67, 64
1, 138072, Note_off_c, 0, 65, 64
1, 138114, Note_on_c, 0, 67, 41
1, 138124, Note_on_c, 0, 63, 56
1, 138190, Note_off_c, 0, 63, 64
1, 138224, Note_on_c, 0, 62, 74
1, 138224, Note_on_c, 0, 65, 69
1, 138230, Note_on_c, 0, 55, 89
1, 138266, Note_off_c, 0, 55, 64
1, 138272, Note_off_c, 0, 67, 64
1, 138298, Note_off_c, 0, 62, 64
1, 138354, Note_off_c, 0, 65, 64
1, 138472, Note_on_c, 0, 70, 64
1, 138475, Note_on_c, 0, 60, 64
1, 138476, Note_on_c, 0, 67, 48
1, 138477, Note_on_c, 0, 63, 77
1, 138524, Note_off_c, 0, 70, 64
1, 138532, Note_off_c, 0, 67, 64
1, 138569, Note_off_c, 0, 60, 64
1, 138583, Note_off_c, 0, 63, 64
1, 138721, Note_on_c, 0, 62, 71
1, 138721, Note_on_c, 0, 65, 72
1, 138723, Note_on_c, 0, 58, 38
1, 138726, Note_on_c, 0, 55, 82
1, 138768, Note_off_c, 0, 55, 64
1, 138793, Note_off_c, 0, 58, 64
1, 138826, Note_off_c, 0, 62, 64
1, 138838, Note_off_c, 0, 65, 64
1, 138972, Note_on_c, 0, 70, 75
1, 138976, Note_on_c, 0, 67, 59
1, 138978, Note_on_c, 0, 63, 86
1, 138980, Note_on_c, 0, 60, 83
1, 139024, Note_off_c, 0, 70, 64
1, 139026, Note_off_c, 0, 67, 64
1, 139180, Note_off_c, 0, 60, 64
1, 139204, Note_off_c, 0, 63, 64
1, 139224, Note_on_c, 0, 65, 94
1, 139225, Note_on_c, 0, 62, 87
1, 139225, Note_on_c, 0, 55, 87
1, 139226, Note_on_c, 0, 58, 77
1, 139259, Note_off_c, 0, 62, 64
1, 139262, Note_off_c, 0, 55, 64
1, 139264, Control_c, 0, 64, 127
1, 139312, Note_off_c, 0, 58, 64
1, 139336, Note_off_c, 0, 65, 64
1, 139464, Note_on_c, 0, 72, 99
1, 139468, Note_on_c, 0, 70, 71
1, 139469, Note_on_c, 0, 63, 89
1, 139470, Note_on_c, 0, 69, 35
1, 139472, Note_on_c, 0, 67, 49
1, 139512, Note_off_c, 0, 70, 64
1, 139520, Note_off_c, 0, 63, 64
1, 139534, Note_off_c, 0, 67, 64
1, 139550, Note_off_c, 0, 69, 64
1, 139578, Note_off_c, 0, 72, 64
1, 139650, Control_c, 0, 64, 0
1, 139808, Note_on_c, 0, 82, 100
1, 139808, Note_on_c, 0, 71, 108
1, 139808, Note_on_c, 0, 75, 95
1, 139810, Note_on_c, 0, 70, 87
1, 139814, Note_on_c, 0, 63, 85
1, 139818, Note_on_c, 0, 59, 80
1, 139924, Note_on_c, 0, 80, 86
1, 139927, Note_on_c, 0, 68, 79
1, 139938, Note_off_c, 0, 70, 64
1, 139958, Control_c, 0, 64, 127
1, 140000, Note_off_c, 0, 82, 64
1, 140086, Note_off_c, 0, 80, 64
1, 140126, Control_c, 0, 64, 0
1, 140200, Note_on_c, 0, 82, 79
1, 140218, Note_on_c, 0, 70, 77
1, 140274, Note_off_c, 0, 68, 64
1, 140282, Note_on_c, 0, 77, 94
1, 140304, Note_off_c, 0, 70, 64
1, 140304, Note_on_c, 0, 65, 74
1, 140328, Note_off_c, 0, 82, 64
1, 140372, Control_c, 0, 64, 127
1, 140392, Note_off_c, 0, 63, 64
1, 140424, Note_off_c, 0, 77, 64
1, 140434, Control_c, 0, 64, 0
1, 140454, Note_off_c, 0, 65, 64
1, 140554, Note_on_c, 0, 82, 96
1, 140554, Note_on_c, 0, 70, 91
1, 140592, Note_off_c, 0, 70, 64
1, 140664, Control_c, 0, 64, 127
1, 140704, Note_off_c, 0, 82, 64
1, 140772, Control_c, 0, 64, 0
1, 140834, Note_on_c, 0, 68, 96
1, 140838, Note_on_c, 0, 80, 91
1, 140910, Note_on_c, 0, 65, 83
1, 140912, Note_on_c, 0, 77, 87
1, 140923, Note_off_c, 0, 75, 64
1, 140952, Note_off_c, 0, 68, 64
1, 140966, Note_off_c, 0, 59, 64
1, 140971, Note_off_c, 0, 71, 64
1, 141006, Note_off_c, 0, 80, 64
1, 141034, Control_c, 0, 64, 127
1, 141090, Note_off_c, 0, 77, 64
1, 141160, Note_off_c, 0, 65, 64
1, 141194, Note_on_c, 0, 63, 72
1, 141204, Note_on_c, 0, 75, 73
1, 141232, Control_c, 0, 64, 0
1, 141244, Note_off_c, 0, 63, 64
1, 141278, Note_on_c, 0, 71, 110
1, 141288, Note_on_c, 0, 59, 102
1, 141320, Note_off_c, 0, 75, 64
1, 141372, Note_off_c, 0, 59, 64
1, 141402, Control_c, 0, 64, 127
1, 141440, Note_off_c, 0, 71, 64
1, 141986, Control_c, 0, 64, 0
1, 142000, Note_on_c, 0, 68, 69
1, 142010, Note_on_c, 0, 56, 86
1, 142094, Note_on_c, 0, 53, 106
1, 142096, Note_on_c, 0, 65, 81
1, 142128, Note_off_c, 0, 56, 64
1, 142166, Note_off_c, 0, 68, 64
1, 142192, Note_on_c, 0, 63, 89
1, 142192, Note_on_c, 0, 51, 83
1, 142228, Note_off_c, 0, 65, 64
1, 142231, Note_off_c, 0, 53, 64
1, 142290, Note_on_c, 0, 47, 97
1, 142298, Note_on_c, 0, 59, 109
1, 142334, Note_off_c, 0, 51, 64
1, 142340, Control_c, 0, 64, 127
1, 142352, Note_off_c, 0, 63, 64
1, 142360, Note_off_c, 0, 47, 64
1, 142406, Note_off_c, 0, 59, 64
1, 142550, Note_on_c, 0, 55, 111
1, 142554, Note_on_c, 0, 46, 102
1, 142554, Note_on_c, 0, 50, 111
1, 142562, Note_on_c, 0, 34, 101
1, 142664, Note_off_c, 0, 46, 64
1, 142664, Note_off_c, 0, 34, 64
1, 142692, Control_c, 0, 64, 0
1, 142694, Note_off_c, 0, 50, 64
1, 142726, Note_off_c, 0, 55, 64
1, 143314, Note_on_c, 0, 51, 79
1, 143314, Note_on_c, 0, 58, 65
1, 143317, Note_on_c, 0, 55, 84
1, 143320, Note_on_c, 0, 53, 101
1, 143352, Note_off_c, 0, 53, 64
1, 143358, Note_off_c, 0, 55, 64
1, 143384, Note_off_c, 0, 51, 64
1, 143404, Note_off_c, 0, 58, 64
1, 143582, Note_on_c, 0, 46, 68
1, 143584, Note_on_c, 0, 39, 73
1, 143620, Note_off_c, 0, 39, 64
1, 143626, Note_off_c, 0, 46, 64
1, 143824, Note_on_c, 0, 55, 90
1, 143824, Note_on_c, 0, 58, 61
1, 143826, Note_on_c, 0, 51, 64
1, 143827, Note_on_c, 0, 53, 95
1, 143863, Note_off_c, 0, 53, 64
1, 143882, Note_off_c, 0, 55, 64
1, 143886, Note_off_c, 0, 51, 64
1, 143949, Note_off_c, 0, 58, 64
1, 144100, Note_on_c, 0, 46, 81
1, 144100, Note_on_c, 0, 39, 75
1, 144137, Note_off_c, 0, 39, 64
1, 144144, Note_off_c, 0, 46, 64
1, 144182, Control_c, 0, 64, 127
1, 144368, Control_c, 0, 64, 0
1, 145274, Note_on_c, 0, 58, 48
1, 145280, Note_on_c, 0, 55, 63
1, 145281, Note_on_c, 0, 51, 44
1, 145282, Note_on_c, 0, 53, 72
1, 145326, Note_off_c, 0, 53, 64
1, 145328, Note_off_c, 0, 55, 64
1, 145335, Note_off_c, 0, 51, 64
1, 145348, Note_off_c, 0, 58, 64
1, 145538, Note_on_c, 0, 39, 58
1, 145540, Note_on_c, 0, 46, 55
1, 145582, Note_off_c, 0, 39, 64
1, 145592, Note_off_c, 0, 46, 64
1, 145794, Note_on_c, 0, 58, 46
1, 145796, Note_on_c, 0, 51, 42
1, 145797, Note_on_c, 0, 55, 75
1, 145798, Note_on_c, 0, 53, 76
1, 145840, Note_off_c, 0, 55, 64
1, 145840, Note_off_c, 0, 53, 64
1, 145852, Note_off_c, 0, 51, 64
1, 145876, Note_off_c, 0, 58, 64
1, 146092, Note_on_c, 0, 46, 44
1, 146093, Note_on_c, 0, 39, 47
1, 146236, Note_off_c, 0, 46, 64
1, 146241, Note_off_c, 0, 39, 64
1, 146318, Control_c, 0, 64, 127
1, 146364, Control_c, 0, 64, 0
1, 147214, Note_on_c, 0, 58, 29
1, 147218, Note_on_c, 0, 55, 29
1, 147221, Note_on_c, 0, 53, 33
1, 147224, Note_on_c, 0, 51, 25
1, 147279, Note_off_c, 0, 53, 64
1, 147284, Note_off_c, 0, 55, 64
1, 147296, Note_off_c, 0, 51, 64
1, 147326, Note_off_c, 0, 58, 64
1, 147364, Control_c, 0, 64, 127
1, 147456, Control_c, 0, 64, 0
1, 147514, Note_on_c, 0, 39, 43
1, 147514, Note_on_c, 0, 46, 36
1, 147586, Note_off_c, 0, 46, 64
1, 147602, Note_off_c, 0, 39, 64
1, 147789, Note_on_c, 0, 58, 13
1, 147794, Note_on_c, 0, 55, 16
1, 147798, Note_on_c, 0, 51, 29
1, 147798, Note_on_c, 0, 53, 46
1, 147856, Note_off_c, 0, 53, 64
1, 147864, Note_off_c, 0, 51, 64
1, 147868, Note_off_c, 0, 55, 64
1, 147945, Note_off_c, 0, 58, 64
1, 149050, Note_on_c, 0, 47, 108
1, 149053, Note_on_c, 0, 35, 116
1, 149149, Note_off_c, 0, 35, 64
1, 149216, Note_off_c, 0, 47, 64
1, 149222, Control_c, 0, 64, 127
1, 149284, Note_on_c, 0, 34, 93
1, 149284, Note_on_c, 0, 46, 69
1, 149336, Note_on_c, 0, 44, 84
1, 149340, Note_on_c, 0, 32, 84
1, 149360, Control_c, 0, 64, 0
1, 149400, Note_on_c, 0, 43, 83
1, 149403, Note_on_c, 0, 31, 71
1, 149412, Note_off_c, 0, 34, 64
1, 149418, Note_off_c, 0, 46, 64
1, 149480, Note_on_c, 0, 41, 95
1, 149483, Note_off_c, 0, 44, 64
1, 149483, Note_on_c, 0, 29, 38
1, 149498, Note_off_c, 0, 32, 64
1, 149511, Note_off_c, 0, 31, 64
1, 149530, Note_off_c, 0, 43, 64
1, 149573, Note_off_c, 0, 41, 64
1, 149576, Note_on_c, 0, 39, 106
1, 149578, Note_on_c, 0, 51, 105
1, 149580, Note_on_c, 0, 27, 103
1, 149625, Note_off_c, 0, 29, 64
1, 149702, Note_off_c, 0, 39, 64
1, 149724, Note_off_c, 0, 27, 64
1, 149742, Note_off_c, 0, 51, 64
1, 150862, Note_on_c, 0, 51, 116
1, 150864, Note_on_c, 0, 39, 109
1, 150866, Note_on_c, 0, 27, 109
1, 150944, Note_off_c, 0, 51, 64
1, 150944, Control_c, 0, 64, 127
1, 150954, Note_off_c, 0, 27, 64
1, 150960, Note_off_c, 0, 39, 64
1, 151096, Control_c, 0, 64, 0
1, 153600, Control_c, 0, 64, 0
1, 153600, End_track
0, 0, End_of_file
