0, 0, Header, 1, 7, 480
1, 0, Start_track
1, 0, Title_t, "Seq-1"
1, 0, SMPTE_offset, 96, 0, 0, 0, 0
1, 0, Time_signature, 4, 2, 24, 8
1, 0, Tempo, 500000
1, 0, End_track
2, 0, Start_track
2, 0, Title_t, "Debussy Golliwog's Cakewalk"
2, 540, Control_c, 0, 11, 86
2, 548, Control_c, 0, 7, 127
2, 2483, Note_on_c, 0, 82, 97
2, 2487, Note_on_c, 0, 70, 85
2, 2608, Note_on_c, 0, 80, 73
2, 2609, Note_on_c, 0, 68, 61
2, 2641, Note_off_c, 0, 82, 64
2, 2645, Note_off_c, 0, 70, 64
2, 2690, Note_off_c, 0, 68, 64
2, 2714, Note_off_c, 0, 80, 64
2, 2844, Note_on_c, 0, 82, 77
2, 2850, Note_on_c, 0, 70, 65
2, 2937, Note_off_c, 0, 70, 64
2, 2946, Note_off_c, 0, 82, 64
2, 2966, Note_on_c, 0, 77, 80
2, 2966, Note_on_c, 0, 65, 68
2, 3053, Note_off_c, 0, 65, 64
2, 3065, Note_off_c, 0, 77, 64
2, 3205, Note_on_c, 0, 70, 73
2, 3207, Note_on_c, 0, 82, 85
2, 3308, Note_off_c, 0, 70, 64
2, 3308, Note_off_c, 0, 82, 64
2, 3450, Note_on_c, 0, 68, 88
2, 3451, Note_on_c, 0, 80, 99
2, 3542, Note_off_c, 0, 80, 64
2, 3551, Note_off_c, 0, 68, 64
2, 3567, Note_on_c, 0, 65, 70
2, 3568, Note_on_c, 0, 77, 82
2, 3805, Note_on_c, 0, 63, 64
2, 3808, Note_on_c, 0, 75, 76
2, 3845, Note_off_c, 0, 65, 64
2, 3845, Note_off_c, 0, 77, 64
2, 3923, Note_off_c, 0, 63, 64
2, 3925, Note_on_c, 0, 71, 85
2, 3926, Note_off_c, 0, 75, 64
2, 3928, Control_c, 0, 64, 127
2, 3932, Note_on_c, 0, 59, 66
2, 4402, Note_off_c, 0, 71, 64
2, 4407, Control_c, 0, 64, 0
2, 4409, Note_off_c, 0, 59, 64
2, 4524, Note_on_c, 0, 56, 64
2, 4525, Note_on_c, 0, 68, 73
2, 4644, Note_off_c, 0, 56, 64
2, 4645, Note_off_c, 0, 68, 64
2, 4646, Note_on_c, 0, 53, 67
2, 4651, Note_on_c, 0, 65, 73
2, 4764, Note_off_c, 0, 53, 64
2, 4766, Note_on_c, 0, 51, 70
2, 4766, Note_on_c, 0, 63, 79
2, 4769, Note_off_c, 0, 65, 64
2, 4884, Note_off_c, 0, 63, 64
2, 4884, Note_off_c, 0, 51, 64
2, 4887, Control_c, 0, 64, 127
2, 4891, Note_on_c, 0, 47, 83
2, 4892, Note_on_c, 0, 59, 92
2, 5367, Note_off_c, 0, 47, 64
2, 5367, Control_c, 0, 64, 0
2, 5369, Note_off_c, 0, 59, 64
2, 5485, Note_on_c, 0, 44, 73
2, 5488, Note_on_c, 0, 56, 85
2, 5605, Note_off_c, 0, 44, 64
2, 5608, Note_off_c, 0, 56, 64
2, 5610, Note_on_c, 0, 41, 70
2, 5612, Note_on_c, 0, 53, 82
2, 5725, Note_on_c, 0, 51, 79
2, 5728, Note_off_c, 0, 41, 64
2, 5728, Note_on_c, 0, 39, 68
2, 5730, Note_off_c, 0, 53, 64
2, 5843, Note_off_c, 0, 51, 64
2, 5844, Note_on_c, 0, 47, 90
2, 5846, Note_off_c, 0, 39, 64
2, 5847, Note_on_c, 0, 35, 84
2, 6082, Note_off_c, 0, 47, 64
2, 6085, Note_off_c, 0, 35, 64
2, 6087, Note_on_c, 0, 34, 66
2, 6088, Control_c, 0, 64, 127
2, 6092, Note_on_c, 0, 46, 73
2, 6092, Note_on_c, 0, 55, 85
2, 6093, Note_on_c, 0, 50, 76
2, 6177, Note_off_c, 0, 34, 64
2, 6186, Note_off_c, 0, 55, 64
2, 6189, Note_off_c, 0, 50, 64
2, 6191, Note_off_c, 0, 46, 64
2, 6325, Control_c, 0, 64, 0
2, 7287, Note_on_c, 0, 46, 37
2, 7289, Note_on_c, 0, 39, 29
2, 7362, Note_off_c, 0, 39, 64
2, 7368, Note_off_c, 0, 46, 64
2, 7524, Note_on_c, 0, 55, 37
2, 7524, Note_on_c, 0, 53, 34
2, 7526, Note_on_c, 0, 58, 40
2, 7531, Note_on_c, 0, 51, 39
2, 7597, Note_off_c, 0, 53, 64
2, 7601, Note_off_c, 0, 58, 64
2, 7605, Note_off_c, 0, 51, 64
2, 7605, Note_off_c, 0, 55, 64
2, 7784, Note_on_c, 0, 39, 32
2, 7786, Note_on_c, 0, 46, 40
2, 7862, Note_off_c, 0, 46, 64
2, 7864, Note_off_c, 0, 39, 64
2, 8023, Note_on_c, 0, 51, 55
2, 8023, Note_on_c, 0, 55, 49
2, 8023, Note_on_c, 0, 53, 44
2, 8023, Note_on_c, 0, 58, 61
2, 8075, Note_off_c, 0, 51, 64
2, 8078, Note_off_c, 0, 58, 64
2, 8158, Note_off_c, 0, 53, 64
2, 8158, Note_off_c, 0, 55, 64
2, 8159, Note_on_c, 0, 51, 67
2, 8159, Note_on_c, 0, 58, 79
2, 8208, Note_off_c, 0, 58, 64
2, 8209, Note_off_c, 0, 51, 64
2, 8281, Note_on_c, 0, 39, 38
2, 8281, Note_on_c, 0, 46, 46
2, 8361, Note_off_c, 0, 46, 64
2, 8368, Note_off_c, 0, 39, 64
2, 8534, Note_on_c, 0, 55, 44
2, 8536, Note_on_c, 0, 53, 40
2, 8541, Note_on_c, 0, 51, 37
2, 8542, Note_on_c, 0, 58, 49
2, 8612, Note_off_c, 0, 55, 64
2, 8616, Note_off_c, 0, 58, 64
2, 8618, Note_off_c, 0, 53, 64
2, 8622, Note_off_c, 0, 51, 64
2, 8778, Note_on_c, 0, 39, 41
2, 8779, Note_on_c, 0, 46, 49
2, 8860, Note_off_c, 0, 46, 64
2, 8874, Note_off_c, 0, 39, 64
2, 9033, Note_on_c, 0, 53, 36
2, 9036, Note_on_c, 0, 58, 45
2, 9038, Note_on_c, 0, 55, 40
2, 9038, Note_on_c, 0, 51, 37
2, 9107, Note_off_c, 0, 58, 64
2, 9109, Note_off_c, 0, 55, 64
2, 9110, Note_off_c, 0, 51, 64
2, 9113, Note_off_c, 0, 53, 64
2, 9275, Note_on_c, 0, 39, 33
2, 9276, Note_on_c, 0, 46, 41
2, 9356, Note_off_c, 0, 46, 64
2, 9364, Note_off_c, 0, 39, 64
2, 9533, Note_on_c, 0, 58, 61
2, 9533, Note_on_c, 0, 53, 37
2, 9533, Note_on_c, 0, 51, 61
2, 9533, Note_on_c, 0, 55, 42
2, 9590, Note_off_c, 0, 58, 64
2, 9590, Note_off_c, 0, 51, 64
2, 9651, Note_off_c, 0, 55, 64
2, 9651, Note_off_c, 0, 53, 64
2, 9655, Note_on_c, 0, 58, 79
2, 9655, Note_on_c, 0, 51, 68
2, 9722, Note_off_c, 0, 58, 64
2, 9722, Note_off_c, 0, 51, 64
2, 9788, Note_on_c, 0, 46, 33
2, 9788, Note_on_c, 0, 39, 25
2, 9870, Note_off_c, 0, 39, 64
2, 9871, Note_off_c, 0, 46, 64
2, 10029, Note_on_c, 0, 55, 29
2, 10032, Note_on_c, 0, 51, 37
2, 10032, Note_on_c, 0, 53, 29
2, 10033, Note_on_c, 0, 58, 37
2, 10107, Note_off_c, 0, 51, 64
2, 10117, Note_off_c, 0, 53, 64
2, 10120, Note_off_c, 0, 55, 64
2, 10123, Note_off_c, 0, 58, 64
2, 10287, Note_on_c, 0, 46, 25
2, 10288, Note_on_c, 0, 39, 17
2, 10366, Note_off_c, 0, 46, 64
2, 10373, Note_off_c, 0, 39, 64
2, 10540, Note_on_c, 0, 53, 25
2, 10541, Note_on_c, 0, 51, 37
2, 10542, Note_on_c, 0, 58, 37
2, 10545, Note_on_c, 0, 55, 32
2, 10604, Note_off_c, 0, 53, 64
2, 10606, Note_off_c, 0, 51, 64
2, 10619, Note_off_c, 0, 58, 64
2, 10627, Note_off_c, 0, 55, 64
2, 10778, Note_on_c, 0, 39, 24
2, 10784, Note_on_c, 0, 46, 29
2, 10860, Note_off_c, 0, 46, 64
2, 10865, Note_off_c, 0, 39, 64
2, 11037, Note_on_c, 0, 58, 38
2, 11043, Note_on_c, 0, 51, 25
2, 11044, Note_on_c, 0, 53, 29
2, 11044, Note_on_c, 0, 55, 34
2, 11117, Note_off_c, 0, 58, 64
2, 11119, Note_off_c, 0, 55, 64
2, 11119, Note_off_c, 0, 51, 64
2, 11122, Note_off_c, 0, 53, 64
2, 11279, Note_on_c, 0, 70, 79
2, 11279, Note_on_c, 0, 39, 29
2, 11279, Note_on_c, 0, 46, 37
2, 11384, Note_off_c, 0, 39, 64
2, 11389, Note_off_c, 0, 46, 64
2, 11418, Note_on_c, 0, 68, 62
2, 11445, Note_off_c, 0, 70, 64
2, 11537, Note_on_c, 0, 53, 38
2, 11537, Note_on_c, 0, 59, 38
2, 11537, Note_on_c, 0, 63, 46
2, 11537, Note_on_c, 0, 56, 36
2, 11616, Note_off_c, 0, 53, 64
2, 11619, Note_off_c, 0, 56, 64
2, 11655, Note_off_c, 0, 68, 64
2, 11658, Note_off_c, 0, 59, 64
2, 11658, Note_off_c, 0, 63, 64
2, 11660, Note_on_c, 0, 70, 61
2, 11792, Note_off_c, 0, 70, 64
2, 11794, Note_on_c, 0, 65, 62
2, 11794, Note_on_c, 0, 39, 33
2, 11794, Note_on_c, 0, 46, 41
2, 11861, Note_off_c, 0, 65, 64
2, 11889, Note_off_c, 0, 39, 64
2, 11895, Note_off_c, 0, 46, 64
2, 12034, Note_on_c, 0, 56, 44
2, 12034, Note_on_c, 0, 53, 44
2, 12034, Note_on_c, 0, 59, 44
2, 12034, Note_on_c, 0, 63, 61
2, 12034, Note_on_c, 0, 70, 72
2, 12108, Note_off_c, 0, 70, 64
2, 12115, Note_off_c, 0, 56, 64
2, 12116, Note_off_c, 0, 53, 64
2, 12171, Note_off_c, 0, 59, 64
2, 12171, Note_off_c, 0, 63, 64
2, 12290, Note_on_c, 0, 68, 67
2, 12290, Note_on_c, 0, 39, 39
2, 12290, Note_on_c, 0, 46, 47
2, 12379, Note_off_c, 0, 46, 64
2, 12390, Note_off_c, 0, 39, 64
2, 12412, Note_on_c, 0, 65, 64
2, 12471, Note_off_c, 0, 68, 64
2, 12530, Note_on_c, 0, 53, 49
2, 12530, Note_on_c, 0, 56, 49
2, 12530, Note_on_c, 0, 59, 49
2, 12615, Note_off_c, 0, 53, 64
2, 12630, Note_off_c, 0, 56, 64
2, 12666, Note_off_c, 0, 65, 64
2, 12670, Note_on_c, 0, 63, 58
2, 12698, Note_off_c, 0, 59, 64
2, 12786, Note_off_c, 0, 63, 64
2, 12788, Note_on_c, 0, 39, 40
2, 12788, Note_on_c, 0, 46, 48
2, 12788, Note_on_c, 0, 59, 69
2, 12866, Note_off_c, 0, 59, 64
2, 12874, Note_off_c, 0, 39, 64
2, 12887, Note_off_c, 0, 46, 64
2, 13045, Note_on_c, 0, 63, 63
2, 13045, Note_on_c, 0, 53, 37
2, 13045, Note_on_c, 0, 56, 45
2, 13045, Note_on_c, 0, 59, 45
2, 13124, Note_off_c, 0, 63, 64
2, 13126, Note_off_c, 0, 56, 64
2, 13132, Note_off_c, 0, 53, 64
2, 13165, Note_off_c, 0, 59, 64
2, 13284, Note_on_c, 0, 39, 35
2, 13284, Note_on_c, 0, 46, 43
2, 13284, Note_on_c, 0, 58, 81
2, 13363, Note_off_c, 0, 46, 64
2, 13368, Note_off_c, 0, 39, 64
2, 13377, Note_off_c, 0, 58, 64
2, 13421, Note_on_c, 0, 58, 61
2, 13525, Note_off_c, 0, 58, 64
2, 13542, Note_on_c, 0, 53, 32
2, 13542, Note_on_c, 0, 55, 40
2, 13613, Note_off_c, 0, 55, 64
2, 13616, Note_off_c, 0, 53, 64
2, 13663, Note_on_c, 0, 60, 67
2, 13797, Note_off_c, 0, 60, 64
2, 13799, Note_on_c, 0, 39, 29
2, 13799, Note_on_c, 0, 46, 37
2, 13799, Note_on_c, 0, 58, 73
2, 13891, Note_off_c, 0, 46, 64
2, 13902, Note_off_c, 0, 39, 64
2, 14004, Control_c, 0, 64, 127
2, 14030, Note_on_c, 0, 53, 53
2, 14030, Note_on_c, 0, 55, 61
2, 14030, Note_on_c, 0, 63, 85
2, 14080, Note_on_c, 0, 70, 85
2, 14087, Note_off_c, 0, 58, 64
2, 14098, Note_off_c, 0, 53, 64
2, 14101, Note_off_c, 0, 55, 64
2, 14131, Note_off_c, 0, 63, 64
2, 14149, Note_off_c, 0, 70, 64
2, 14295, Control_c, 0, 64, 0
2, 14297, Note_on_c, 0, 39, 29
2, 14297, Note_on_c, 0, 46, 37
2, 14297, Note_on_c, 0, 58, 79
2, 14392, Note_off_c, 0, 39, 64
2, 14395, Note_off_c, 0, 46, 64
2, 14535, Note_on_c, 0, 53, 29
2, 14535, Note_on_c, 0, 55, 37
2, 14622, Note_off_c, 0, 53, 64
2, 14624, Note_off_c, 0, 55, 64
2, 14793, Note_on_c, 0, 39, 32
2, 14793, Note_on_c, 0, 46, 40
2, 14885, Note_off_c, 0, 39, 64
2, 14887, Note_off_c, 0, 46, 64
2, 15050, Note_on_c, 0, 53, 35
2, 15050, Note_on_c, 0, 55, 43
2, 15128, Note_off_c, 0, 53, 64
2, 15135, Note_off_c, 0, 55, 64
2, 15219, Note_off_c, 0, 58, 64
2, 15290, Note_on_c, 0, 39, 39
2, 15290, Note_on_c, 0, 46, 47
2, 15290, Note_on_c, 0, 58, 61
2, 15397, Note_off_c, 0, 39, 64
2, 15409, Note_off_c, 0, 46, 64
2, 15428, Note_on_c, 0, 56, 57
2, 15501, Note_off_c, 0, 58, 64
2, 15547, Note_on_c, 0, 53, 49
2, 15547, Note_on_c, 0, 51, 49
2, 15616, Note_off_c, 0, 51, 64
2, 15626, Note_off_c, 0, 53, 64
2, 15665, Note_off_c, 0, 56, 64
2, 15668, Note_on_c, 0, 58, 52
2, 15785, Note_off_c, 0, 58, 64
2, 15788, Note_on_c, 0, 60, 67
2, 15788, Note_on_c, 0, 39, 54
2, 15788, Note_on_c, 0, 46, 62
2, 15850, Note_off_c, 0, 39, 64
2, 15858, Note_off_c, 0, 46, 64
2, 15872, Note_off_c, 0, 60, 64
2, 16044, Note_on_c, 0, 56, 56
2, 16044, Note_on_c, 0, 53, 39
2, 16044, Note_on_c, 0, 51, 44
2, 16120, Note_off_c, 0, 53, 64
2, 16120, Note_off_c, 0, 51, 64
2, 16127, Note_off_c, 0, 56, 64
2, 16301, Note_on_c, 0, 39, 31
2, 16301, Note_on_c, 0, 46, 39
2, 16301, Note_on_c, 0, 58, 61
2, 16359, Note_off_c, 0, 46, 64
2, 16371, Note_off_c, 0, 39, 64
2, 16423, Note_on_c, 0, 56, 57
2, 16461, Note_off_c, 0, 58, 64
2, 16541, Note_on_c, 0, 53, 34
2, 16541, Note_on_c, 0, 51, 34
2, 16633, Note_off_c, 0, 51, 64
2, 16637, Note_off_c, 0, 53, 64
2, 16677, Note_off_c, 0, 56, 64
2, 16680, Note_on_c, 0, 58, 49
2, 16797, Note_off_c, 0, 58, 64
2, 16799, Note_on_c, 0, 46, 50
2, 16799, Note_on_c, 0, 39, 44
2, 16799, Note_on_c, 0, 59, 66
2, 16860, Note_off_c, 0, 46, 64
2, 16869, Note_off_c, 0, 39, 64
2, 16873, Note_off_c, 0, 59, 64
2, 17055, Note_on_c, 0, 51, 25
2, 17055, Note_on_c, 0, 53, 34
2, 17055, Note_on_c, 0, 56, 52
2, 17125, Note_off_c, 0, 53, 64
2, 17131, Note_off_c, 0, 51, 64
2, 17140, Note_off_c, 0, 56, 64
2, 17294, Control_c, 0, 64, 127
2, 17296, Note_on_c, 0, 58, 83
2, 17296, Note_on_c, 0, 46, 70
2, 17417, Note_on_c, 0, 55, 84
2, 17417, Note_on_c, 0, 43, 71
2, 17458, Note_off_c, 0, 58, 64
2, 17458, Note_off_c, 0, 46, 64
2, 17604, Note_off_c, 0, 55, 64
2, 17604, Note_off_c, 0, 43, 64
2, 17671, Control_c, 0, 64, 0
2, 17673, Note_on_c, 0, 53, 88
2, 17673, Note_on_c, 0, 41, 74
2, 17740, Note_off_c, 0, 53, 64
2, 17741, Note_off_c, 0, 41, 64
2, 17792, Note_on_c, 0, 51, 90
2, 17792, Note_on_c, 0, 39, 77
2, 17905, Note_off_c, 0, 51, 64
2, 17909, Note_off_c, 0, 39, 64
2, 18049, Note_on_c, 0, 50, 96
2, 18049, Note_on_c, 0, 38, 82
2, 18139, Note_off_c, 0, 38, 64
2, 18151, Note_off_c, 0, 50, 64
2, 18306, Note_on_c, 0, 48, 101
2, 18306, Note_on_c, 0, 36, 87
2, 18397, Note_off_c, 0, 36, 64
2, 18409, Note_off_c, 0, 48, 64
2, 18546, Note_on_c, 0, 43, 100
2, 18546, Note_on_c, 0, 31, 94
2, 18653, Note_off_c, 0, 43, 64
2, 18661, Note_off_c, 0, 31, 64
2, 18803, Note_on_c, 0, 48, 101
2, 18803, Note_on_c, 0, 36, 92
2, 18899, Note_off_c, 0, 48, 64
2, 18905, Note_off_c, 0, 36, 64
2, 19060, Note_on_c, 0, 50, 102
2, 19060, Note_on_c, 0, 38, 90
2, 19150, Note_off_c, 0, 50, 64
2, 19157, Note_off_c, 0, 38, 64
2, 19300, Note_on_c, 0, 70, 87
2, 19300, Note_on_c, 0, 39, 35
2, 19300, Note_on_c, 0, 46, 53
2, 19373, Note_off_c, 0, 46, 64
2, 19384, Note_off_c, 0, 39, 64
2, 19422, Note_on_c, 0, 68, 63
2, 19468, Note_off_c, 0, 70, 64
2, 19558, Note_on_c, 0, 53, 36
2, 19558, Note_on_c, 0, 56, 42
2, 19558, Note_on_c, 0, 63, 42
2, 19558, Note_on_c, 0, 59, 42
2, 19625, Note_off_c, 0, 56, 64
2, 19635, Note_off_c, 0, 53, 64
2, 19676, Note_off_c, 0, 68, 64
2, 19679, Note_off_c, 0, 63, 64
2, 19680, Note_off_c, 0, 59, 64
2, 19681, Note_on_c, 0, 70, 67
2, 19796, Note_off_c, 0, 70, 64
2, 19798, Note_on_c, 0, 65, 70
2, 19798, Note_on_c, 0, 39, 39
2, 19798, Note_on_c, 0, 46, 45
2, 19878, Note_off_c, 0, 65, 64
2, 19887, Note_off_c, 0, 46, 64
2, 19897, Note_off_c, 0, 39, 64
2, 20055, Note_on_c, 0, 70, 75
2, 20055, Note_on_c, 0, 53, 42
2, 20055, Note_on_c, 0, 56, 48
2, 20055, Note_on_c, 0, 60, 65
2, 20055, Note_on_c, 0, 63, 65
2, 20126, Note_off_c, 0, 56, 64
2, 20132, Note_off_c, 0, 53, 64
2, 20136, Note_off_c, 0, 70, 64
2, 20175, Note_off_c, 0, 63, 64
2, 20175, Note_off_c, 0, 60, 64
2, 20311, Note_on_c, 0, 68, 75
2, 20311, Note_on_c, 0, 39, 45
2, 20311, Note_on_c, 0, 46, 51
2, 20387, Note_off_c, 0, 46, 64
2, 20391, Note_off_c, 0, 39, 64
2, 20433, Note_on_c, 0, 65, 72
2, 20468, Note_off_c, 0, 68, 64
2, 20551, Note_on_c, 0, 53, 47
2, 20551, Note_on_c, 0, 56, 53
2, 20551, Note_on_c, 0, 59, 59
2, 20636, Note_off_c, 0, 53, 64
2, 20639, Note_off_c, 0, 56, 64
2, 20687, Note_off_c, 0, 65, 64
2, 20690, Note_on_c, 0, 63, 66
2, 20703, Note_off_c, 0, 59, 64
2, 20790, Note_off_c, 0, 63, 64
2, 20808, Note_on_c, 0, 59, 69
2, 20808, Note_on_c, 0, 39, 46
2, 20808, Note_on_c, 0, 46, 52
2, 20886, Note_off_c, 0, 59, 64
2, 20886, Note_off_c, 0, 39, 64
2, 20888, Note_off_c, 0, 46, 64
2, 21049, Note_on_c, 0, 63, 69
2, 21049, Note_on_c, 0, 53, 43
2, 21049, Note_on_c, 0, 56, 49
2, 21049, Note_on_c, 0, 59, 53
2, 21135, Note_off_c, 0, 56, 64
2, 21143, Note_off_c, 0, 63, 64
2, 21144, Note_off_c, 0, 53, 64
2, 21228, Note_off_c, 0, 59, 64
2, 21305, Note_on_c, 0, 39, 41
2, 21305, Note_on_c, 0, 46, 47
2, 21305, Note_on_c, 0, 58, 85
2, 21370, Note_off_c, 0, 39, 64
2, 21374, Note_off_c, 0, 46, 64
2, 21380, Note_off_c, 0, 58, 64
2, 21424, Note_on_c, 0, 58, 65
2, 21562, Note_on_c, 0, 53, 38
2, 21562, Note_on_c, 0, 55, 44
2, 21613, Note_off_c, 0, 58, 64
2, 21635, Note_off_c, 0, 53, 64
2, 21643, Note_off_c, 0, 55, 64
2, 21683, Note_on_c, 0, 60, 68
2, 21801, Note_off_c, 0, 60, 64
2, 21803, Note_on_c, 0, 39, 35
2, 21803, Note_on_c, 0, 46, 41
2, 21803, Note_on_c, 0, 58, 71
2, 21887, Note_off_c, 0, 39, 64
2, 21888, Note_off_c, 0, 46, 64
2, 22008, Control_c, 0, 64, 127
2, 22009, Note_on_c, 0, 63, 89
2, 22054, Note_off_c, 0, 58, 64
2, 22059, Note_on_c, 0, 53, 59
2, 22059, Note_on_c, 0, 55, 65
2, 22069, Note_on_c, 0, 70, 89
2, 22127, Note_off_c, 0, 63, 64
2, 22127, Note_off_c, 0, 53, 64
2, 22137, Note_off_c, 0, 55, 64
2, 22138, Note_off_c, 0, 70, 64
2, 22315, Control_c, 0, 64, 0
2, 22317, Note_on_c, 0, 39, 35
2, 22317, Note_on_c, 0, 46, 41
2, 22317, Note_on_c, 0, 58, 88
2, 22387, Note_off_c, 0, 46, 64
2, 22388, Note_off_c, 0, 39, 64
2, 22556, Note_on_c, 0, 53, 35
2, 22556, Note_on_c, 0, 55, 41
2, 22632, Note_off_c, 0, 55, 64
2, 22633, Note_off_c, 0, 53, 64
2, 22813, Note_on_c, 0, 39, 29
2, 22813, Note_on_c, 0, 46, 35
2, 22893, Note_off_c, 0, 46, 64
2, 22897, Note_off_c, 0, 39, 64
2, 23053, Note_on_c, 0, 53, 23
2, 23053, Note_on_c, 0, 55, 29
2, 23139, Note_off_c, 0, 53, 64
2, 23141, Note_off_c, 0, 55, 64
2, 23219, Note_off_c, 0, 58, 64
2, 23310, Note_on_c, 0, 42, 25
2, 23310, Note_on_c, 0, 49, 29
2, 23310, Note_on_c, 0, 58, 57
2, 23388, Note_off_c, 0, 42, 64
2, 23392, Note_off_c, 0, 49, 64
2, 23396, Note_off_c, 0, 58, 64
2, 23430, Note_on_c, 0, 58, 57
2, 23568, Note_on_c, 0, 49, 29
2, 23568, Note_on_c, 0, 56, 40
2, 23568, Note_on_c, 0, 54, 34
2, 23618, Note_off_c, 0, 58, 64
2, 23660, Note_off_c, 0, 54, 64
2, 23660, Note_off_c, 0, 49, 64
2, 23664, Note_off_c, 0, 56, 64
2, 23689, Note_on_c, 0, 60, 41
2, 23806, Note_off_c, 0, 60, 64
2, 23808, Note_on_c, 0, 58, 44
2, 23808, Note_on_c, 0, 49, 34
2, 23808, Note_on_c, 0, 42, 38
2, 23914, Note_off_c, 0, 42, 64
2, 23922, Note_off_c, 0, 58, 64
2, 23926, Note_off_c, 0, 49, 64
2, 24065, Note_on_c, 0, 61, 49
2, 24065, Note_on_c, 0, 57, 37
2, 24065, Note_on_c, 0, 54, 40
2, 24065, Note_on_c, 0, 49, 44
2, 24162, Note_off_c, 0, 57, 64
2, 24163, Note_off_c, 0, 49, 64
2, 24163, Note_off_c, 0, 61, 64
2, 24166, Note_off_c, 0, 54, 64
2, 24305, Note_on_c, 0, 63, 53
2, 24305, Note_on_c, 0, 42, 41
2, 24305, Note_on_c, 0, 49, 46
2, 24407, Note_off_c, 0, 63, 64
2, 24415, Note_off_c, 0, 42, 64
2, 24422, Note_off_c, 0, 49, 64
2, 24562, Note_on_c, 0, 65, 58
2, 24562, Note_on_c, 0, 58, 45
2, 24562, Note_on_c, 0, 54, 40
2, 24562, Note_on_c, 0, 49, 38
2, 24658, Note_off_c, 0, 65, 64
2, 24665, Note_off_c, 0, 54, 64
2, 24666, Note_off_c, 0, 49, 64
2, 24667, Note_off_c, 0, 58, 64
2, 24819, Note_on_c, 0, 63, 63
2, 24819, Note_on_c, 0, 49, 49
2, 24819, Note_on_c, 0, 42, 42
2, 24910, Note_off_c, 0, 42, 64
2, 24920, Note_off_c, 0, 63, 64
2, 24921, Note_off_c, 0, 49, 64
2, 25059, Note_on_c, 0, 66, 68
2, 25059, Note_on_c, 0, 59, 49
2, 25059, Note_on_c, 0, 54, 54
2, 25059, Note_on_c, 0, 49, 46
2, 25162, Note_off_c, 0, 66, 64
2, 25169, Note_off_c, 0, 49, 64
2, 25176, Note_off_c, 0, 59, 64
2, 25178, Note_off_c, 0, 54, 64
2, 25305, Note_on_c, 0, 65, 86
2, 25408, Note_off_c, 0, 65, 64
2, 25435, Note_on_c, 0, 65, 73
2, 25556, Note_off_c, 0, 65, 64
2, 25573, Note_on_c, 0, 64, 85
2, 25573, Note_on_c, 0, 61, 61
2, 25692, Note_on_c, 0, 67, 101
2, 25773, Note_off_c, 0, 61, 64
2, 25793, Note_off_c, 0, 64, 64
2, 25812, Note_off_c, 0, 67, 64
2, 25815, Note_on_c, 0, 60, 65
2, 25815, Note_on_c, 0, 63, 89
2, 25815, Note_on_c, 0, 65, 98
2, 25988, Note_off_c, 0, 63, 64
2, 25995, Note_off_c, 0, 60, 64
2, 26018, Note_off_c, 0, 65, 64
2, 26020, Note_on_c, 0, 67, 85
2, 26071, Note_on_c, 0, 74, 97
2, 26074, Note_on_c, 0, 63, 85
2, 26074, Note_on_c, 0, 53, 73
2, 26075, Note_on_c, 0, 57, 74
2, 26148, Note_off_c, 0, 63, 64
2, 26150, Note_off_c, 0, 53, 64
2, 26150, Note_off_c, 0, 74, 64
2, 26161, Note_off_c, 0, 57, 64
2, 26189, Note_off_c, 0, 67, 64
2, 26309, Control_c, 0, 64, 127
2, 26312, Note_on_c, 0, 70, 73
2, 26312, Note_on_c, 0, 53, 61
2, 26312, Note_on_c, 0, 62, 60
2, 26312, Note_on_c, 0, 58, 54
2, 26312, Note_on_c, 0, 46, 52
2, 26566, Note_off_c, 0, 53, 64
2, 26566, Note_off_c, 0, 46, 64
2, 26566, Note_off_c, 0, 58, 64
2, 26688, Note_off_c, 0, 62, 64
2, 26688, Note_off_c, 0, 70, 64
2, 26825, Note_on_c, 0, 94, 97
2, 26825, Note_on_c, 0, 82, 85
2, 26825, Note_on_c, 0, 46, 80
2, 26825, Note_on_c, 0, 34, 74
2, 27013, Note_off_c, 0, 94, 64
2, 27013, Note_off_c, 0, 34, 64
2, 27013, Note_off_c, 0, 46, 64
2, 27014, Note_off_c, 0, 82, 64
2, 27063, Control_c, 0, 64, 0
2, 27322, Note_on_c, 0, 58, 34
2, 27322, Note_on_c, 0, 56, 29
2, 27322, Note_on_c, 0, 60, 40
2, 27322, Note_on_c, 0, 63, 44
2, 27414, Note_off_c, 0, 58, 64
2, 27419, Note_off_c, 0, 56, 64
2, 27445, Note_on_c, 0, 65, 47
2, 27445, Note_on_c, 0, 62, 38
2, 27474, Note_off_c, 0, 60, 64
2, 27500, Note_off_c, 0, 63, 64
2, 27561, Note_on_c, 0, 68, 26
2, 27561, Note_on_c, 0, 70, 40
2, 27644, Note_off_c, 0, 68, 64
2, 27662, Note_off_c, 0, 70, 64
2, 27698, Note_off_c, 0, 65, 64
2, 27698, Note_off_c, 0, 62, 64
2, 27702, Note_on_c, 0, 67, 64
2, 27702, Note_on_c, 0, 63, 51
2, 27818, Note_off_c, 0, 67, 64
2, 27818, Note_off_c, 0, 63, 64
2, 27821, Note_on_c, 0, 58, 44
2, 27821, Note_on_c, 0, 56, 40
2, 27821, Note_on_c, 0, 65, 61
2, 27821, Note_on_c, 0, 62, 54
2, 27907, Note_off_c, 0, 56, 64
2, 27917, Note_off_c, 0, 58, 64
2, 28007, Note_off_c, 0, 65, 64
2, 28008, Note_off_c, 0, 62, 64
2, 28076, Note_on_c, 0, 70, 49
2, 28076, Note_on_c, 0, 68, 40
2, 28076, Note_on_c, 0, 63, 44
2, 28076, Note_on_c, 0, 60, 36
2, 28145, Note_off_c, 0, 70, 64
2, 28148, Note_off_c, 0, 68, 64
2, 28265, Note_off_c, 0, 63, 64
2, 28265, Note_off_c, 0, 60, 64
2, 28314, Control_c, 0, 64, 127
2, 28317, Note_on_c, 0, 56, 31
2, 28317, Note_on_c, 0, 58, 37
2, 28317, Note_on_c, 0, 65, 44
2, 28317, Note_on_c, 0, 62, 40
2, 28417, Note_off_c, 0, 58, 64
2, 28419, Note_off_c, 0, 56, 64
2, 28572, Note_on_c, 0, 68, 37
2, 28572, Note_on_c, 0, 70, 40
2, 28642, Note_off_c, 0, 68, 64
2, 28648, Note_off_c, 0, 70, 64
2, 28830, Note_on_c, 0, 56, 27
2, 28830, Note_on_c, 0, 58, 34
2, 28830, Note_on_c, 0, 94, 55
2, 28830, Note_on_c, 0, 82, 46
2, 28919, Note_off_c, 0, 58, 64
2, 28926, Note_off_c, 0, 56, 64
2, 29025, Note_off_c, 0, 94, 64
2, 29038, Note_off_c, 0, 82, 64
2, 29070, Control_c, 0, 64, 0
2, 29072, Note_on_c, 0, 68, 29
2, 29072, Note_on_c, 0, 70, 34
2, 29146, Note_off_c, 0, 70, 64
2, 29151, Note_off_c, 0, 68, 64
2, 29327, Note_off_c, 0, 62, 64
2, 29327, Note_off_c, 0, 65, 64
2, 29329, Note_on_c, 0, 55, 19
2, 29329, Note_on_c, 0, 58, 25
2, 29329, Note_on_c, 0, 63, 40
2, 29329, Note_on_c, 0, 60, 34
2, 29419, Note_off_c, 0, 55, 64
2, 29426, Note_off_c, 0, 58, 64
2, 29450, Note_on_c, 0, 62, 37
2, 29450, Note_on_c, 0, 65, 42
2, 29500, Note_off_c, 0, 63, 64
2, 29500, Note_off_c, 0, 60, 64
2, 29566, Note_on_c, 0, 67, 26
2, 29566, Note_on_c, 0, 70, 34
2, 29619, Note_off_c, 0, 67, 64
2, 29638, Note_off_c, 0, 70, 64
2, 29703, Note_on_c, 0, 67, 61
2, 29703, Note_on_c, 0, 63, 49
2, 29714, Note_off_c, 0, 62, 64
2, 29714, Note_off_c, 0, 65, 64
2, 29823, Note_off_c, 0, 67, 64
2, 29823, Note_off_c, 0, 63, 64
2, 29826, Note_on_c, 0, 58, 34
2, 29826, Note_on_c, 0, 55, 28
2, 29826, Note_on_c, 0, 65, 61
2, 29826, Note_on_c, 0, 62, 49
2, 29911, Note_off_c, 0, 58, 64
2, 29916, Note_off_c, 0, 55, 64
2, 30013, Note_off_c, 0, 65, 64
2, 30013, Note_off_c, 0, 62, 64
2, 30081, Note_on_c, 0, 67, 34
2, 30081, Note_on_c, 0, 70, 40
2, 30081, Note_on_c, 0, 63, 49
2, 30081, Note_on_c, 0, 60, 38
2, 30159, Note_off_c, 0, 70, 64
2, 30167, Note_off_c, 0, 67, 64
2, 30270, Note_off_c, 0, 63, 64
2, 30270, Note_off_c, 0, 60, 64
2, 30321, Note_on_c, 0, 55, 31
2, 30321, Note_on_c, 0, 58, 34
2, 30321, Note_on_c, 0, 65, 39
2, 30321, Note_on_c, 0, 62, 36
2, 30419, Note_off_c, 0, 55, 64
2, 30426, Note_off_c, 0, 58, 64
2, 30510, Note_off_c, 0, 65, 64
2, 30510, Note_off_c, 0, 62, 64
2, 30578, Note_on_c, 0, 70, 41
2, 30578, Note_on_c, 0, 67, 37
2, 30578, Note_on_c, 0, 63, 42
2, 30578, Note_on_c, 0, 60, 38
2, 30653, Note_off_c, 0, 70, 64
2, 30653, Note_off_c, 0, 67, 64
2, 30818, Control_c, 0, 64, 127
2, 30821, Note_on_c, 0, 65, 49
2, 30821, Note_on_c, 0, 62, 40
2, 30821, Note_on_c, 0, 55, 34
2, 30831, Note_on_c, 0, 58, 45
2, 30887, Note_off_c, 0, 63, 64
2, 30900, Note_off_c, 0, 60, 64
2, 31075, Note_off_c, 0, 55, 64
2, 31075, Note_off_c, 0, 62, 64
2, 31075, Note_off_c, 0, 65, 64
2, 31079, Note_on_c, 0, 72, 85
2, 31079, Note_on_c, 0, 67, 61
2, 31079, Note_on_c, 0, 70, 66
2, 31079, Note_on_c, 0, 63, 73
2, 31151, Note_off_c, 0, 63, 64
2, 31164, Note_off_c, 0, 58, 64
2, 31168, Note_off_c, 0, 72, 64
2, 31171, Note_off_c, 0, 70, 64
2, 31183, Note_off_c, 0, 67, 64
2, 31330, Control_c, 0, 64, 0
2, 31333, Note_on_c, 0, 56, 37
2, 31333, Note_on_c, 0, 63, 46
2, 31333, Note_on_c, 0, 60, 40
2, 31333, Note_on_c, 0, 46, 43
2, 31451, Note_on_c, 0, 48, 48
2, 31514, Note_off_c, 0, 46, 64
2, 31713, Note_off_c, 0, 48, 64
2, 31725, Note_on_c, 0, 50, 55
2, 31861, Note_off_c, 0, 50, 64
2, 31863, Note_on_c, 0, 48, 55
2, 31951, Note_off_c, 0, 48, 64
2, 32153, Note_on_c, 0, 46, 49
2, 32242, Note_off_c, 0, 46, 64
2, 32444, Note_on_c, 0, 46, 43
2, 32582, Note_on_c, 0, 48, 48
2, 32673, Note_off_c, 0, 46, 64
2, 32838, Note_off_c, 0, 48, 64
2, 32840, Note_on_c, 0, 50, 55
2, 32976, Note_off_c, 0, 50, 64
2, 32977, Note_on_c, 0, 48, 55
2, 33054, Note_off_c, 0, 56, 64
2, 33065, Note_off_c, 0, 48, 64
2, 33239, Note_off_c, 0, 60, 64
2, 33250, Note_on_c, 0, 46, 43
2, 33319, Note_off_c, 0, 63, 64
2, 33333, Note_off_c, 0, 46, 64
2, 33543, Note_on_c, 0, 60, 37
2, 33543, Note_on_c, 0, 63, 40
2, 33543, Note_on_c, 0, 55, 24
2, 33543, Note_on_c, 0, 46, 27
2, 33679, Note_on_c, 0, 48, 31
2, 33740, Note_off_c, 0, 46, 64
2, 33970, Note_off_c, 0, 48, 64
2, 33971, Note_on_c, 0, 50, 37
2, 34124, Note_off_c, 0, 50, 64
2, 34125, Note_on_c, 0, 48, 34
2, 34221, Note_off_c, 0, 48, 64
2, 34372, Note_off_c, 0, 60, 64
2, 34415, Note_on_c, 0, 46, 25
2, 34456, Note_off_c, 0, 63, 64
2, 34477, Note_off_c, 0, 55, 64
2, 34503, Note_off_c, 0, 46, 64
2, 34845, Note_on_c, 0, 46, 85
2, 34845, Note_on_c, 0, 34, 73
2, 34984, Note_on_c, 0, 48, 88
2, 34984, Note_on_c, 0, 36, 76
2, 35016, Note_off_c, 0, 34, 64
2, 35028, Note_off_c, 0, 46, 64
2, 35121, Note_on_c, 0, 50, 91
2, 35121, Note_on_c, 0, 38, 79
2, 35139, Note_off_c, 0, 36, 64
2, 35146, Note_off_c, 0, 48, 64
2, 35241, Note_on_c, 0, 48, 95
2, 35241, Note_on_c, 0, 36, 84
2, 35276, Note_off_c, 0, 50, 64
2, 35278, Note_off_c, 0, 38, 64
2, 35444, Note_off_c, 0, 48, 64
2, 35445, Note_off_c, 0, 36, 64
2, 35513, Note_on_c, 0, 46, 91
2, 35513, Note_on_c, 0, 22, 94
2, 35513, Note_on_c, 0, 34, 79
2, 35608, Note_off_c, 0, 22, 64
2, 35612, Note_off_c, 0, 34, 64
2, 35613, Note_off_c, 0, 46, 64
2, 35771, Note_on_c, 0, 56, 24
2, 35771, Note_on_c, 0, 58, 28
2, 35771, Note_on_c, 0, 60, 38
2, 35771, Note_on_c, 0, 63, 42
2, 35857, Note_off_c, 0, 58, 64
2, 35859, Note_off_c, 0, 56, 64
2, 35894, Note_on_c, 0, 65, 43
2, 35894, Note_on_c, 0, 62, 38
2, 35914, Note_off_c, 0, 60, 64
2, 35927, Note_off_c, 0, 63, 64
2, 36027, Note_on_c, 0, 68, 29
2, 36027, Note_on_c, 0, 70, 37
2, 36108, Note_off_c, 0, 70, 64
2, 36111, Note_off_c, 0, 68, 64
2, 36164, Note_off_c, 0, 65, 64
2, 36165, Note_off_c, 0, 62, 64
2, 36168, Note_on_c, 0, 67, 67
2, 36168, Note_on_c, 0, 63, 56
2, 36284, Note_off_c, 0, 67, 64
2, 36284, Note_off_c, 0, 63, 64
2, 36287, Note_on_c, 0, 65, 58
2, 36287, Note_on_c, 0, 62, 46
2, 36287, Note_on_c, 0, 58, 40
2, 36287, Note_on_c, 0, 56, 34
2, 36365, Note_off_c, 0, 58, 64
2, 36385, Note_off_c, 0, 56, 64
2, 36491, Note_off_c, 0, 65, 64
2, 36491, Note_off_c, 0, 62, 64
2, 36559, Note_on_c, 0, 70, 41
2, 36559, Note_on_c, 0, 68, 37
2, 36559, Note_on_c, 0, 63, 49
2, 36559, Note_on_c, 0, 60, 44
2, 36632, Note_off_c, 0, 70, 64
2, 36634, Note_off_c, 0, 68, 64
2, 36748, Note_off_c, 0, 63, 64
2, 36748, Note_off_c, 0, 60, 64
2, 36815, Control_c, 0, 64, 127
2, 36817, Note_on_c, 0, 65, 44
2, 36817, Note_on_c, 0, 62, 39
2, 36817, Note_on_c, 0, 58, 38
2, 36817, Note_on_c, 0, 56, 34
2, 36890, Note_off_c, 0, 56, 64
2, 36906, Note_off_c, 0, 58, 64
2, 37073, Note_on_c, 0, 68, 40
2, 37073, Note_on_c, 0, 70, 43
2, 37158, Note_off_c, 0, 70, 64
2, 37166, Note_off_c, 0, 68, 64
2, 37331, Note_on_c, 0, 58, 40
2, 37331, Note_on_c, 0, 56, 37
2, 37331, Note_on_c, 0, 94, 55
2, 37331, Note_on_c, 0, 82, 44
2, 37414, Note_off_c, 0, 58, 64
2, 37422, Note_off_c, 0, 56, 64
2, 37479, Note_off_c, 0, 94, 64
2, 37510, Note_off_c, 0, 82, 64
2, 37605, Control_c, 0, 64, 0
2, 37607, Note_on_c, 0, 68, 38
2, 37607, Note_on_c, 0, 70, 40
2, 37679, Note_off_c, 0, 70, 64
2, 37683, Note_off_c, 0, 68, 64
2, 37861, Note_off_c, 0, 62, 64
2, 37862, Note_off_c, 0, 65, 64
2, 37864, Note_on_c, 0, 58, 40
2, 37864, Note_on_c, 0, 55, 29
2, 37864, Note_on_c, 0, 63, 44
2, 37864, Note_on_c, 0, 60, 37
2, 37942, Note_off_c, 0, 58, 64
2, 37954, Note_off_c, 0, 55, 64
2, 38002, Note_on_c, 0, 65, 40
2, 38002, Note_on_c, 0, 62, 36
2, 38034, Note_off_c, 0, 63, 64
2, 38034, Note_off_c, 0, 60, 64
2, 38118, Note_on_c, 0, 67, 34
2, 38118, Note_on_c, 0, 70, 37
2, 38182, Note_off_c, 0, 67, 64
2, 38193, Note_off_c, 0, 70, 64
2, 38247, Note_off_c, 0, 65, 64
2, 38247, Note_off_c, 0, 62, 64
2, 38255, Note_on_c, 0, 67, 64
2, 38255, Note_on_c, 0, 63, 52
2, 38392, Note_off_c, 0, 67, 64
2, 38392, Note_off_c, 0, 63, 64
2, 38395, Note_on_c, 0, 65, 61
2, 38395, Note_on_c, 0, 62, 49
2, 38395, Note_on_c, 0, 58, 40
2, 38395, Note_on_c, 0, 55, 34
2, 38475, Note_off_c, 0, 58, 64
2, 38476, Note_off_c, 0, 55, 64
2, 38581, Note_off_c, 0, 65, 64
2, 38582, Note_off_c, 0, 62, 64
2, 38650, Note_on_c, 0, 67, 40
2, 38650, Note_on_c, 0, 70, 43
2, 38650, Note_on_c, 0, 63, 49
2, 38650, Note_on_c, 0, 60, 44
2, 38714, Note_off_c, 0, 70, 64
2, 38723, Note_off_c, 0, 67, 64
2, 38846, Note_off_c, 0, 63, 64
2, 38846, Note_off_c, 0, 60, 64
2, 38909, Note_on_c, 0, 65, 39
2, 38909, Note_on_c, 0, 62, 36
2, 38909, Note_on_c, 0, 58, 34
2, 38909, Note_on_c, 0, 55, 28
2, 38991, Note_off_c, 0, 55, 64
2, 38994, Note_off_c, 0, 58, 64
2, 39113, Note_off_c, 0, 65, 64
2, 39113, Note_off_c, 0, 62, 64
2, 39165, Note_on_c, 0, 70, 37
2, 39165, Note_on_c, 0, 67, 33
2, 39165, Note_on_c, 0, 60, 39
2, 39165, Note_on_c, 0, 63, 44
2, 39250, Note_off_c, 0, 67, 64
2, 39252, Note_off_c, 0, 70, 64
2, 39439, Control_c, 0, 64, 127
2, 39442, Note_on_c, 0, 58, 44
2, 39442, Note_on_c, 0, 55, 36
2, 39442, Note_on_c, 0, 65, 49
2, 39442, Note_on_c, 0, 62, 42
2, 39474, Note_off_c, 0, 60, 64
2, 39500, Note_off_c, 0, 63, 64
2, 39696, Note_off_c, 0, 55, 64
2, 39696, Note_off_c, 0, 58, 64
2, 39697, Note_on_c, 0, 63, 54
2, 39701, Note_on_c, 0, 72, 85
2, 39703, Note_on_c, 0, 67, 61
2, 39704, Note_on_c, 0, 70, 70
2, 39740, Note_off_c, 0, 62, 64
2, 39740, Note_off_c, 0, 65, 64
2, 39775, Note_off_c, 0, 63, 64
2, 39792, Note_off_c, 0, 70, 64
2, 39801, Note_off_c, 0, 67, 64
2, 39810, Note_off_c, 0, 72, 64
2, 39951, Control_c, 0, 64, 0
2, 39955, Note_on_c, 0, 75, 83
2, 39955, Note_on_c, 0, 71, 91
2, 39955, Note_on_c, 0, 63, 90
2, 39955, Note_on_c, 0, 59, 75
2, 39955, Note_on_c, 0, 82, 103
2, 39955, Note_on_c, 0, 70, 100
2, 40091, Note_on_c, 0, 68, 67
2, 40091, Note_on_c, 0, 80, 82
2, 40140, Note_off_c, 0, 82, 64
2, 40140, Note_off_c, 0, 70, 64
2, 40346, Note_off_c, 0, 80, 64
2, 40346, Note_off_c, 0, 68, 64
2, 40348, Note_on_c, 0, 82, 67
2, 40348, Note_on_c, 0, 70, 55
2, 40483, Note_off_c, 0, 82, 64
2, 40483, Note_off_c, 0, 70, 64
2, 40485, Note_on_c, 0, 77, 91
2, 40485, Note_on_c, 0, 65, 80
2, 40740, Note_off_c, 0, 77, 64
2, 40741, Note_off_c, 0, 65, 64
2, 40742, Note_on_c, 0, 82, 73
2, 40742, Note_on_c, 0, 70, 85
2, 40997, Note_off_c, 0, 82, 64
2, 40997, Note_off_c, 0, 70, 64
2, 40999, Note_on_c, 0, 80, 79
2, 40999, Note_on_c, 0, 68, 67
2, 41049, Note_off_c, 0, 63, 64
2, 41137, Note_on_c, 0, 77, 79
2, 41137, Note_on_c, 0, 65, 67
2, 41171, Note_off_c, 0, 75, 64
2, 41194, Note_off_c, 0, 80, 64
2, 41194, Note_off_c, 0, 68, 64
2, 41228, Note_off_c, 0, 71, 64
2, 41262, Note_off_c, 0, 59, 64
2, 41392, Note_off_c, 0, 77, 64
2, 41392, Note_off_c, 0, 65, 64
2, 41395, Note_on_c, 0, 75, 67
2, 41395, Note_on_c, 0, 63, 55
2, 41495, Note_off_c, 0, 75, 64
2, 41495, Note_off_c, 0, 63, 64
2, 41529, Note_on_c, 0, 71, 91
2, 41529, Note_on_c, 0, 59, 82
2, 42043, Note_off_c, 0, 71, 64
2, 42043, Note_off_c, 0, 59, 64
2, 42180, Note_on_c, 0, 68, 88
2, 42180, Note_on_c, 0, 56, 75
2, 42319, Note_on_c, 0, 65, 85
2, 42319, Note_on_c, 0, 53, 71
2, 42338, Note_off_c, 0, 68, 64
2, 42346, Note_off_c, 0, 56, 64
2, 42439, Note_on_c, 0, 63, 82
2, 42439, Note_on_c, 0, 51, 67
2, 42463, Note_off_c, 0, 53, 64
2, 42471, Note_off_c, 0, 65, 64
2, 42574, Note_off_c, 0, 63, 64
2, 42574, Note_off_c, 0, 51, 64
2, 42576, Note_on_c, 0, 59, 79
2, 42576, Note_on_c, 0, 47, 67
2, 42830, Note_on_c, 0, 50, 83
2, 42831, Note_off_c, 0, 59, 64
2, 42831, Note_off_c, 0, 47, 64
2, 42831, Note_on_c, 0, 46, 92
2, 42836, Note_on_c, 0, 34, 100
2, 42837, Note_on_c, 0, 55, 103
2, 42842, Control_c, 0, 64, 127
2, 42904, Note_off_c, 0, 46, 64
2, 42925, Note_off_c, 0, 50, 64
2, 42926, Note_off_c, 0, 34, 64
2, 42927, Note_off_c, 0, 55, 64
2, 43066, Control_c, 0, 64, 0
2, 43876, Note_on_c, 0, 51, 42
2, 43879, Note_on_c, 0, 53, 46
2, 43879, Note_on_c, 0, 55, 40
2, 43880, Note_on_c, 0, 58, 52
2, 44032, Note_off_c, 0, 58, 64
2, 44035, Note_off_c, 0, 51, 64
2, 44047, Note_off_c, 0, 53, 64
2, 44051, Note_off_c, 0, 55, 64
2, 44151, Note_on_c, 0, 39, 40
2, 44151, Note_on_c, 0, 46, 52
2, 44249, Note_off_c, 0, 39, 64
2, 44252, Note_off_c, 0, 46, 64
2, 44405, Note_on_c, 0, 58, 52
2, 44406, Note_on_c, 0, 53, 42
2, 44411, Note_on_c, 0, 51, 44
2, 44412, Note_on_c, 0, 55, 40
2, 44562, Note_off_c, 0, 55, 64
2, 44574, Note_off_c, 0, 51, 64
2, 44586, Note_off_c, 0, 58, 64
2, 44586, Note_off_c, 0, 53, 64
2, 44682, Note_on_c, 0, 46, 44
2, 44682, Note_on_c, 0, 39, 36
2, 44860, Note_off_c, 0, 39, 64
2, 44867, Note_off_c, 0, 46, 64
2, 46018, Note_on_c, 0, 53, 44
2, 46019, Note_on_c, 0, 51, 36
2, 46019, Note_on_c, 0, 58, 52
2, 46020, Note_on_c, 0, 55, 40
2, 46158, Note_off_c, 0, 51, 64
2, 46161, Note_off_c, 0, 53, 64
2, 46165, Note_off_c, 0, 55, 64
2, 46166, Note_off_c, 0, 58, 64
2, 46276, Note_on_c, 0, 46, 40
2, 46276, Note_on_c, 0, 39, 34
2, 46347, Note_off_c, 0, 39, 64
2, 46353, Note_off_c, 0, 46, 64
2, 46549, Note_on_c, 0, 55, 34
2, 46550, Note_on_c, 0, 51, 36
2, 46551, Note_on_c, 0, 58, 40
2, 46552, Note_on_c, 0, 53, 29
2, 46688, Note_off_c, 0, 51, 64
2, 46697, Note_off_c, 0, 58, 64
2, 46706, Note_off_c, 0, 53, 64
2, 46710, Note_off_c, 0, 55, 64
2, 46808, Note_on_c, 0, 46, 28
2, 46808, Note_on_c, 0, 39, 25
2, 47016, Note_off_c, 0, 39, 64
2, 47017, Note_off_c, 0, 46, 64
2, 48141, Note_on_c, 0, 55, 40
2, 48144, Note_on_c, 0, 58, 52
2, 48145, Note_on_c, 0, 51, 36
2, 48148, Note_on_c, 0, 53, 46
2, 48305, Note_off_c, 0, 53, 64
2, 48313, Note_off_c, 0, 58, 64
2, 48315, Note_off_c, 0, 51, 64
2, 48319, Note_off_c, 0, 55, 64
2, 48419, Note_on_c, 0, 46, 36
2, 48419, Note_on_c, 0, 39, 25
2, 48500, Note_off_c, 0, 39, 64
2, 48505, Note_off_c, 0, 46, 64
2, 48676, Note_on_c, 0, 51, 29
2, 48679, Note_on_c, 0, 53, 22
2, 48680, Note_on_c, 0, 58, 33
2, 48680, Note_on_c, 0, 55, 27
2, 48833, Note_off_c, 0, 58, 64
2, 48840, Note_off_c, 0, 53, 64
2, 48843, Note_off_c, 0, 51, 64
2, 48848, Note_off_c, 0, 55, 64
2, 48949, Note_on_c, 0, 39, 28
2, 49482, Note_on_c, 0, 41, 46
2, 49593, Note_off_c, 0, 39, 64
2, 49913, Note_off_c, 0, 41, 64
2, 50012, Note_on_c, 0, 49, 28
2, 50013, Note_on_c, 0, 42, 28
2, 50131, Note_off_c, 0, 42, 64
2, 50217, Note_on_c, 0, 57, 40
2, 50251, Note_off_c, 0, 57, 64
2, 50253, Note_on_c, 0, 61, 40
2, 50253, Note_on_c, 0, 58, 40
2, 50372, Note_off_c, 0, 61, 64
2, 50372, Note_off_c, 0, 58, 64
2, 50491, Note_off_c, 0, 49, 64
2, 50492, Note_on_c, 0, 42, 28
2, 50611, Note_off_c, 0, 42, 64
2, 50697, Note_on_c, 0, 57, 42
2, 50731, Note_off_c, 0, 57, 64
2, 50733, Note_on_c, 0, 61, 42
2, 50733, Note_on_c, 0, 58, 42
2, 50852, Note_off_c, 0, 61, 64
2, 50852, Note_off_c, 0, 58, 64
2, 50971, Note_on_c, 0, 42, 34
2, 51091, Note_off_c, 0, 42, 64
2, 51177, Note_on_c, 0, 55, 47
2, 51211, Note_off_c, 0, 55, 64
2, 51212, Note_on_c, 0, 59, 47
2, 51213, Note_on_c, 0, 56, 47
2, 51331, Note_off_c, 0, 59, 64
2, 51332, Note_off_c, 0, 56, 64
2, 51451, Note_on_c, 0, 42, 40
2, 51571, Note_off_c, 0, 42, 64
2, 51657, Note_on_c, 0, 56, 52
2, 51691, Note_off_c, 0, 56, 64
2, 51693, Note_on_c, 0, 65, 52
2, 51693, Note_on_c, 0, 60, 52
2, 51694, Note_on_c, 0, 57, 52
2, 51812, Note_off_c, 0, 65, 64
2, 51812, Note_off_c, 0, 60, 64
2, 51813, Note_off_c, 0, 57, 64
2, 51897, Note_on_c, 0, 51, 57
2, 51931, Note_off_c, 0, 51, 64
2, 51932, Note_on_c, 0, 49, 61
2, 51933, Note_on_c, 0, 42, 55
2, 52051, Note_off_c, 0, 42, 64
2, 52137, Note_on_c, 0, 57, 40
2, 52171, Note_off_c, 0, 57, 64
2, 52173, Note_on_c, 0, 61, 40
2, 52173, Note_on_c, 0, 58, 34
2, 52292, Note_off_c, 0, 61, 64
2, 52292, Note_off_c, 0, 58, 64
2, 52412, Note_on_c, 0, 42, 28
2, 52531, Note_off_c, 0, 42, 64
2, 52617, Note_on_c, 0, 57, 42
2, 52651, Note_off_c, 0, 57, 64
2, 52653, Note_on_c, 0, 61, 42
2, 52653, Note_on_c, 0, 58, 37
2, 52772, Note_off_c, 0, 61, 64
2, 52772, Note_off_c, 0, 58, 64
2, 52891, Note_on_c, 0, 42, 28
2, 53011, Note_off_c, 0, 42, 64
2, 53096, Note_on_c, 0, 55, 47
2, 53130, Note_off_c, 0, 55, 64
2, 53133, Note_on_c, 0, 59, 47
2, 53133, Note_on_c, 0, 56, 44
2, 53252, Note_off_c, 0, 59, 64
2, 53252, Note_off_c, 0, 56, 64
2, 53371, Note_on_c, 0, 42, 40
2, 53491, Note_off_c, 0, 42, 64
2, 53576, Note_on_c, 0, 56, 52
2, 53610, Note_off_c, 0, 56, 64
2, 53612, Note_on_c, 0, 65, 54
2, 53612, Note_on_c, 0, 60, 46
2, 53612, Note_on_c, 0, 57, 40
2, 53700, Note_off_c, 0, 49, 64
2, 53731, Note_off_c, 0, 57, 64
2, 53731, Note_off_c, 0, 60, 64
2, 53731, Note_off_c, 0, 65, 64
2, 53851, Note_on_c, 0, 49, 40
2, 54056, Note_on_c, 0, 57, 40
2, 54090, Note_off_c, 0, 57, 64
2, 54092, Note_on_c, 0, 61, 40
2, 54092, Note_on_c, 0, 58, 40
2, 54093, Note_on_c, 0, 42, 43
2, 54211, Note_off_c, 0, 61, 64
2, 54211, Note_off_c, 0, 58, 64
2, 54212, Note_off_c, 0, 42, 64
2, 54331, Note_on_c, 0, 41, 46
2, 54451, Note_off_c, 0, 41, 64
2, 54570, Note_on_c, 0, 39, 49
2, 54690, Note_off_c, 0, 39, 64
2, 54810, Note_on_c, 0, 37, 52
2, 55050, Note_off_c, 0, 37, 64
2, 55256, Note_off_c, 0, 49, 64
2, 55257, Note_on_c, 0, 57, 52
2, 55290, Note_off_c, 0, 57, 64
2, 55292, Note_on_c, 0, 61, 52
2, 55292, Note_on_c, 0, 58, 52
2, 55411, Note_off_c, 0, 61, 64
2, 55411, Note_off_c, 0, 58, 64
2, 56010, Note_on_c, 0, 42, 76
2, 56130, Note_off_c, 0, 42, 64
2, 56250, Note_on_c, 0, 41, 76
2, 56370, Note_off_c, 0, 41, 64
2, 56490, Note_on_c, 0, 39, 68
2, 56610, Note_off_c, 0, 39, 64
2, 56730, Note_on_c, 0, 37, 60
2, 56850, Note_off_c, 0, 37, 64
2, 56970, Note_on_c, 0, 35, 52
2, 57090, Note_off_c, 0, 35, 64
2, 57177, Note_on_c, 0, 48, 52
2, 57210, Note_off_c, 0, 48, 64
2, 57210, Note_on_c, 0, 34, 44
2, 57212, Note_on_c, 0, 47, 52
2, 57212, Note_on_c, 0, 49, 52
2, 57330, Note_off_c, 0, 34, 64
2, 57331, Note_off_c, 0, 49, 64
2, 57331, Note_off_c, 0, 47, 64
2, 57450, Note_on_c, 0, 32, 36
2, 57570, Note_off_c, 0, 32, 64
2, 57690, Note_on_c, 0, 49, 28
2, 57691, Note_on_c, 0, 42, 32
2, 57810, Note_off_c, 0, 42, 64
2, 57895, Note_on_c, 0, 57, 40
2, 57929, Note_off_c, 0, 57, 64
2, 57931, Note_on_c, 0, 58, 40
2, 57931, Note_on_c, 0, 61, 44
2, 58050, Note_off_c, 0, 58, 64
2, 58050, Note_off_c, 0, 61, 64
2, 58170, Note_off_c, 0, 49, 64
2, 58170, Note_on_c, 0, 42, 28
2, 58289, Note_off_c, 0, 42, 64
2, 58375, Note_on_c, 0, 57, 42
2, 58409, Note_off_c, 0, 57, 64
2, 58411, Note_on_c, 0, 61, 42
2, 58411, Note_on_c, 0, 58, 37
2, 58530, Note_off_c, 0, 61, 64
2, 58530, Note_off_c, 0, 58, 64
2, 58649, Note_on_c, 0, 42, 34
2, 58769, Note_off_c, 0, 42, 64
2, 58855, Note_on_c, 0, 55, 47
2, 58889, Note_off_c, 0, 55, 64
2, 58891, Note_on_c, 0, 59, 47
2, 58891, Note_on_c, 0, 56, 42
2, 59010, Note_off_c, 0, 59, 64
2, 59010, Note_off_c, 0, 56, 64
2, 59129, Note_on_c, 0, 42, 40
2, 59249, Note_off_c, 0, 42, 64
2, 59335, Note_on_c, 0, 56, 52
2, 59369, Note_off_c, 0, 56, 64
2, 59371, Note_on_c, 0, 65, 52
2, 59371, Note_on_c, 0, 60, 44
2, 59371, Note_on_c, 0, 57, 40
2, 59490, Note_off_c, 0, 65, 64
2, 59490, Note_off_c, 0, 57, 64
2, 59490, Note_off_c, 0, 60, 64
2, 59575, Note_on_c, 0, 51, 54
2, 59609, Note_off_c, 0, 51, 64
2, 59610, Note_on_c, 0, 49, 55
2, 59611, Note_on_c, 0, 42, 59
2, 59729, Note_off_c, 0, 42, 64
2, 59815, Note_on_c, 0, 57, 42
2, 59849, Note_off_c, 0, 57, 64
2, 59851, Note_on_c, 0, 61, 40
2, 59851, Note_on_c, 0, 58, 36
2, 59970, Note_off_c, 0, 61, 64
2, 59970, Note_off_c, 0, 58, 64
2, 60090, Note_on_c, 0, 42, 24
2, 60209, Note_off_c, 0, 42, 64
2, 60295, Note_on_c, 0, 57, 44
2, 60329, Note_off_c, 0, 57, 64
2, 60331, Note_on_c, 0, 61, 42
2, 60331, Note_on_c, 0, 58, 36
2, 60450, Note_off_c, 0, 61, 64
2, 60450, Note_off_c, 0, 58, 64
2, 60569, Note_on_c, 0, 42, 29
2, 60689, Note_off_c, 0, 42, 64
2, 60775, Note_on_c, 0, 55, 47
2, 60809, Note_off_c, 0, 55, 64
2, 60811, Note_on_c, 0, 59, 47
2, 60811, Note_on_c, 0, 56, 44
2, 60930, Note_off_c, 0, 59, 64
2, 60930, Note_off_c, 0, 56, 64
2, 61049, Note_on_c, 0, 42, 40
2, 61169, Note_off_c, 0, 42, 64
2, 61255, Note_on_c, 0, 56, 52
2, 61289, Note_off_c, 0, 56, 64
2, 61291, Note_on_c, 0, 65, 54
2, 61291, Note_on_c, 0, 60, 44
2, 61291, Note_on_c, 0, 57, 49
2, 61393, Note_off_c, 0, 49, 64
2, 61410, Note_off_c, 0, 57, 64
2, 61410, Note_off_c, 0, 60, 64
2, 61410, Note_off_c, 0, 65, 64
2, 61529, Note_on_c, 0, 49, 40
2, 61734, Note_on_c, 0, 57, 42
2, 61768, Note_off_c, 0, 57, 64
2, 61770, Note_on_c, 0, 61, 40
2, 61770, Note_on_c, 0, 58, 36
2, 61771, Note_on_c, 0, 42, 43
2, 61889, Note_off_c, 0, 61, 64
2, 61889, Note_off_c, 0, 58, 64
2, 61890, Note_off_c, 0, 42, 64
2, 62009, Note_on_c, 0, 41, 46
2, 62129, Note_off_c, 0, 41, 64
2, 62249, Note_on_c, 0, 39, 49
2, 62369, Note_off_c, 0, 39, 64
2, 62489, Note_on_c, 0, 37, 52
2, 62609, Note_off_c, 0, 37, 64
2, 63740, Note_off_c, 0, 49, 64
2, 63774, Note_on_c, 0, 39, 50
2, 64101, Note_on_c, 0, 57, 52
2, 64101, Note_on_c, 0, 41, 44
2, 64140, Note_off_c, 0, 39, 64
2, 64409, Note_on_c, 0, 42, 52
2, 64448, Note_off_c, 0, 41, 64
2, 64753, Note_on_c, 0, 45, 54
2, 64753, Note_on_c, 0, 65, 64
2, 64887, Note_off_c, 0, 42, 64
2, 65112, Note_on_c, 0, 46, 56
2, 65151, Note_off_c, 0, 45, 64
2, 65489, Note_on_c, 0, 47, 58
2, 65528, Note_off_c, 0, 46, 64
2, 65904, Note_on_c, 0, 64, 74
2, 65904, Note_on_c, 0, 48, 60
2, 65904, Note_on_c, 0, 58, 54
2, 65912, Control_c, 0, 64, 127
2, 65941, Note_off_c, 0, 47, 64
2, 65967, Note_off_c, 0, 57, 64
2, 65967, Note_off_c, 0, 65, 64
2, 66312, Note_off_c, 0, 64, 64
2, 66312, Note_off_c, 0, 58, 64
2, 66315, Note_on_c, 0, 49, 62
2, 66315, Note_on_c, 0, 63, 60
2, 66315, Note_on_c, 0, 59, 48
2, 66315, Note_on_c, 0, 44, 54
2, 66317, Control_c, 0, 64, 0
2, 66351, Note_off_c, 0, 48, 64
2, 66507, Control_c, 0, 64, 127
2, 66533, Note_on_c, 0, 74, 50
2, 66544, Note_off_c, 0, 59, 64
2, 66584, Note_off_c, 0, 74, 64
2, 66586, Note_on_c, 0, 71, 34
2, 66588, Note_on_c, 0, 56, 34
2, 66588, Note_on_c, 0, 75, 54
2, 66590, Note_on_c, 0, 65, 42
2, 66590, Note_on_c, 0, 59, 38
2, 66659, Note_off_c, 0, 56, 64
2, 66661, Note_off_c, 0, 59, 64
2, 66665, Note_off_c, 0, 65, 64
2, 66684, Note_off_c, 0, 71, 64
2, 66694, Note_off_c, 0, 75, 64
2, 66790, Note_on_c, 0, 72, 50
2, 66841, Note_off_c, 0, 72, 64
2, 66841, Note_on_c, 0, 71, 30
2, 66845, Note_on_c, 0, 73, 50
2, 66846, Note_on_c, 0, 56, 28
2, 66847, Note_on_c, 0, 59, 34
2, 66849, Note_on_c, 0, 65, 38
2, 66915, Note_off_c, 0, 59, 64
2, 66919, Note_off_c, 0, 56, 64
2, 66921, Note_off_c, 0, 71, 64
2, 66932, Note_off_c, 0, 65, 64
2, 66980, Note_off_c, 0, 73, 64
2, 67047, Note_on_c, 0, 74, 62
2, 67098, Note_off_c, 0, 74, 64
2, 67102, Note_on_c, 0, 59, 44
2, 67102, Note_on_c, 0, 65, 50
2, 67102, Note_on_c, 0, 75, 61
2, 67103, Note_on_c, 0, 56, 38
2, 67106, Note_on_c, 0, 71, 41
2, 67181, Note_off_c, 0, 65, 64
2, 67188, Note_off_c, 0, 56, 64
2, 67189, Note_off_c, 0, 71, 64
2, 67193, Note_off_c, 0, 59, 64
2, 67226, Note_off_c, 0, 75, 64
2, 67356, Note_off_c, 0, 49, 64
2, 67357, Note_off_c, 0, 44, 64
2, 67358, Note_off_c, 0, 63, 64
2, 67359, Control_c, 0, 64, 0
2, 67579, Note_on_c, 0, 74, 50
2, 67630, Note_off_c, 0, 74, 64
2, 67633, Note_on_c, 0, 65, 38
2, 67633, Note_on_c, 0, 56, 29
2, 67633, Note_on_c, 0, 75, 50
2, 67634, Note_on_c, 0, 71, 34
2, 67637, Note_on_c, 0, 59, 34
2, 67709, Note_off_c, 0, 59, 64
2, 67712, Note_off_c, 0, 56, 64
2, 67712, Note_off_c, 0, 65, 64
2, 67726, Note_off_c, 0, 71, 64
2, 67745, Note_off_c, 0, 75, 64
2, 67836, Note_on_c, 0, 72, 52
2, 67886, Note_on_c, 0, 56, 28
2, 67886, Note_on_c, 0, 59, 34
2, 67886, Note_on_c, 0, 65, 38
2, 67887, Note_off_c, 0, 72, 64
2, 67890, Note_on_c, 0, 73, 50
2, 67894, Note_on_c, 0, 71, 30
2, 67960, Note_off_c, 0, 59, 64
2, 67962, Note_off_c, 0, 56, 64
2, 67967, Note_off_c, 0, 65, 64
2, 67996, Note_off_c, 0, 71, 64
2, 68007, Note_off_c, 0, 73, 64
2, 68110, Note_on_c, 0, 74, 62
2, 68143, Note_on_c, 0, 59, 44
2, 68144, Note_off_c, 0, 74, 64
2, 68145, Note_on_c, 0, 65, 48
2, 68147, Note_on_c, 0, 71, 40
2, 68147, Note_on_c, 0, 75, 60
2, 68148, Note_on_c, 0, 56, 35
2, 68223, Note_off_c, 0, 59, 64
2, 68232, Note_off_c, 0, 56, 64
2, 68233, Note_off_c, 0, 65, 64
2, 68263, Note_off_c, 0, 71, 64
2, 68266, Note_off_c, 0, 75, 64
2, 69087, Note_on_c, 0, 57, 47
2, 69772, Control_c, 0, 64, 127
2, 69774, Note_on_c, 0, 65, 67
2, 69774, Note_on_c, 0, 49, 55
2, 70853, Note_on_c, 0, 64, 59
2, 70894, Note_off_c, 0, 65, 64
2, 71220, Note_off_c, 0, 57, 64
2, 71302, Note_on_c, 0, 63, 50
2, 71302, Note_on_c, 0, 58, 36
2, 71302, Note_on_c, 0, 42, 44
2, 71310, Control_c, 0, 64, 0
2, 71340, Note_off_c, 0, 64, 64
2, 71500, Control_c, 0, 64, 127
2, 71514, Note_off_c, 0, 58, 64
2, 71521, Note_on_c, 0, 74, 38
2, 71555, Note_off_c, 0, 74, 64
2, 71557, Note_on_c, 0, 66, 29
2, 71558, Note_on_c, 0, 75, 40
2, 71559, Note_on_c, 0, 70, 35
2, 71559, Note_on_c, 0, 58, 26
2, 71560, Note_on_c, 0, 61, 23
2, 71621, Note_off_c, 0, 66, 64
2, 71627, Note_off_c, 0, 58, 64
2, 71630, Note_off_c, 0, 61, 64
2, 71646, Note_off_c, 0, 70, 64
2, 71684, Note_off_c, 0, 75, 64
2, 71778, Note_on_c, 0, 72, 35
2, 71812, Note_off_c, 0, 72, 64
2, 71815, Note_on_c, 0, 70, 34
2, 71815, Note_on_c, 0, 73, 40
2, 71817, Note_on_c, 0, 61, 26
2, 71817, Note_on_c, 0, 66, 32
2, 71818, Note_on_c, 0, 58, 20
2, 71873, Note_off_c, 0, 58, 64
2, 71886, Note_off_c, 0, 61, 64
2, 71891, Note_off_c, 0, 66, 64
2, 71911, Note_off_c, 0, 70, 64
2, 71925, Note_off_c, 0, 73, 64
2, 72035, Note_on_c, 0, 74, 44
2, 72087, Note_off_c, 0, 74, 64
2, 72089, Note_on_c, 0, 75, 47
2, 72091, Note_on_c, 0, 61, 29
2, 72091, Note_on_c, 0, 70, 27
2, 72092, Note_on_c, 0, 58, 24
2, 72092, Note_on_c, 0, 66, 35
2, 72149, Note_off_c, 0, 66, 64
2, 72158, Note_off_c, 0, 61, 64
2, 72163, Note_off_c, 0, 58, 64
2, 72166, Note_off_c, 0, 70, 64
2, 72213, Note_off_c, 0, 75, 64
2, 72344, Note_off_c, 0, 49, 64
2, 72344, Note_off_c, 0, 63, 64
2, 72344, Note_off_c, 0, 42, 64
2, 72347, Control_c, 0, 64, 0
2, 72566, Note_on_c, 0, 74, 41
2, 72599, Note_on_c, 0, 66, 32
2, 72600, Note_off_c, 0, 74, 64
2, 72603, Note_on_c, 0, 75, 48
2, 72604, Note_on_c, 0, 70, 41
2, 72604, Note_on_c, 0, 58, 28
2, 72607, Note_on_c, 0, 61, 29
2, 72664, Note_off_c, 0, 66, 64
2, 72666, Note_off_c, 0, 61, 64
2, 72677, Note_off_c, 0, 58, 64
2, 72680, Note_off_c, 0, 70, 64
2, 72733, Note_off_c, 0, 75, 64
2, 72823, Note_on_c, 0, 72, 40
2, 72857, Note_off_c, 0, 72, 64
2, 72857, Note_on_c, 0, 61, 40
2, 72860, Note_on_c, 0, 73, 41
2, 72862, Note_on_c, 0, 58, 29
2, 72863, Note_on_c, 0, 70, 34
2, 72864, Note_on_c, 0, 66, 38
2, 72933, Note_off_c, 0, 61, 64
2, 72934, Note_off_c, 0, 66, 64
2, 72935, Note_off_c, 0, 58, 64
2, 72949, Note_off_c, 0, 70, 64
2, 72983, Note_off_c, 0, 73, 64
2, 73080, Note_on_c, 0, 74, 50
2, 73131, Note_off_c, 0, 74, 64
2, 73134, Note_on_c, 0, 61, 50
2, 73134, Note_on_c, 0, 75, 53
2, 73135, Note_on_c, 0, 66, 41
2, 73137, Note_on_c, 0, 70, 46
2, 73137, Note_on_c, 0, 58, 35
2, 73185, Note_off_c, 0, 66, 64
2, 73199, Note_off_c, 0, 61, 64
2, 73203, Note_off_c, 0, 58, 64
2, 73231, Note_off_c, 0, 70, 64
2, 73262, Note_off_c, 0, 75, 64
2, 73904, Note_on_c, 0, 69, 74
2, 73904, Note_on_c, 0, 57, 64
2, 74437, Note_on_c, 0, 65, 76
2, 74437, Note_on_c, 0, 77, 84
2, 74449, Note_off_c, 0, 69, 64
2, 74533, Note_off_c, 0, 57, 64
2, 74694, Note_on_c, 0, 68, 85
2, 74694, Note_on_c, 0, 80, 100
2, 74711, Note_off_c, 0, 65, 64
2, 74740, Note_off_c, 0, 77, 64
2, 75225, Note_on_c, 0, 78, 61
2, 75225, Note_on_c, 0, 66, 54
2, 75236, Note_off_c, 0, 68, 64
2, 75247, Note_off_c, 0, 80, 64
2, 75433, Note_off_c, 0, 78, 64
2, 75434, Note_off_c, 0, 66, 64
2, 75483, Note_on_c, 0, 49, 66
2, 75483, Note_on_c, 0, 75, 73
2, 75483, Note_on_c, 0, 70, 62
2, 75487, Control_c, 0, 64, 115
2, 75618, Note_on_c, 0, 78, 73
2, 75673, Note_off_c, 0, 75, 64
2, 75739, Note_on_c, 0, 68, 65
2, 75739, Note_on_c, 0, 65, 52
2, 75739, Note_on_c, 0, 59, 44
2, 75739, Note_on_c, 0, 56, 40
2, 75820, Note_off_c, 0, 70, 64
2, 75874, Note_off_c, 0, 78, 64
2, 75875, Note_on_c, 0, 77, 57
2, 76011, Note_off_c, 0, 77, 64
2, 76016, Note_on_c, 0, 66, 44
2, 76016, Note_on_c, 0, 63, 40
2, 76016, Note_on_c, 0, 73, 64
2, 76027, Control_c, 0, 64, 0
2, 76031, Note_off_c, 0, 68, 64
2, 76045, Note_off_c, 0, 65, 64
2, 76183, Control_c, 0, 64, 118
2, 76271, Note_on_c, 0, 65, 49
2, 76271, Note_on_c, 0, 61, 38
2, 76292, Note_off_c, 0, 66, 64
2, 76302, Note_off_c, 0, 63, 64
2, 76364, Note_off_c, 0, 59, 64
2, 76526, Note_off_c, 0, 73, 64
2, 76527, Note_off_c, 0, 49, 64
2, 76529, Note_off_c, 0, 56, 64
2, 76534, Note_on_c, 0, 59, 49
2, 76534, Note_on_c, 0, 68, 61
2, 76534, Note_on_c, 0, 63, 41
2, 76534, Note_on_c, 0, 54, 44
2, 76537, Control_c, 0, 64, 0
2, 76599, Note_off_c, 0, 61, 64
2, 76602, Note_off_c, 0, 65, 64
2, 76663, Note_on_c, 0, 71, 61
2, 76693, Control_c, 0, 64, 118
2, 76713, Note_off_c, 0, 68, 64
2, 76785, Note_on_c, 0, 53, 43
2, 76785, Note_on_c, 0, 61, 57
2, 76813, Note_off_c, 0, 54, 64
2, 76833, Note_off_c, 0, 63, 64
2, 76919, Note_off_c, 0, 71, 64
2, 76920, Note_on_c, 0, 70, 53
2, 76936, Note_off_c, 0, 59, 64
2, 77006, Note_off_c, 0, 61, 64
2, 77056, Note_off_c, 0, 70, 64
2, 77063, Note_on_c, 0, 61, 64
2, 77063, Note_on_c, 0, 59, 44
2, 77063, Note_on_c, 0, 51, 38
2, 77073, Control_c, 0, 64, 0
2, 77131, Note_off_c, 0, 53, 64
2, 77230, Control_c, 0, 64, 118
2, 77316, Note_on_c, 0, 58, 52
2, 77316, Note_on_c, 0, 49, 41
2, 77347, Note_off_c, 0, 51, 64
2, 77367, Note_off_c, 0, 59, 64
2, 77572, Note_on_c, 0, 42, 48
2, 77577, Control_c, 0, 64, 0
2, 77733, Control_c, 0, 64, 118
2, 77754, Note_off_c, 0, 49, 64
2, 77880, Note_off_c, 0, 58, 64
2, 77896, Note_on_c, 0, 49, 44
2, 78241, Note_on_c, 0, 57, 52
2, 78257, Control_c, 0, 64, 0
2, 78379, Note_off_c, 0, 49, 64
2, 78413, Control_c, 0, 64, 118
2, 78599, Note_on_c, 0, 49, 40
2, 78970, Note_on_c, 0, 65, 61
2, 78977, Note_off_c, 0, 61, 64
2, 78980, Note_on_c, 0, 43, 52
2, 78980, Control_c, 0, 64, 0
2, 79060, Note_off_c, 0, 42, 64
2, 79137, Control_c, 0, 64, 118
2, 79233, Note_off_c, 0, 49, 64
2, 79390, Note_on_c, 0, 49, 52
2, 79833, Note_off_c, 0, 57, 64
2, 79834, Note_on_c, 0, 58, 64
2, 79837, Control_c, 0, 64, 0
2, 79993, Control_c, 0, 64, 118
2, 80315, Note_on_c, 0, 64, 64
2, 80323, Control_c, 0, 64, 0
2, 80367, Note_off_c, 0, 65, 64
2, 80480, Control_c, 0, 64, 118
2, 80794, Note_off_c, 0, 58, 64
2, 80798, Note_on_c, 0, 44, 34
2, 80798, Note_on_c, 0, 63, 52
2, 80798, Note_on_c, 0, 59, 52
2, 80807, Control_c, 0, 64, 0
2, 80847, Note_off_c, 0, 64, 64
2, 80887, Note_off_c, 0, 43, 64
2, 80963, Control_c, 0, 64, 118
2, 80980, Note_off_c, 0, 59, 64
2, 80998, Note_on_c, 0, 74, 40
2, 81049, Note_off_c, 0, 74, 64
2, 81053, Note_on_c, 0, 71, 40
2, 81053, Note_on_c, 0, 66, 28
2, 81053, Note_on_c, 0, 59, 28
2, 81053, Note_on_c, 0, 56, 28
2, 81053, Note_on_c, 0, 75, 40
2, 81129, Note_off_c, 0, 66, 64
2, 81129, Note_off_c, 0, 56, 64
2, 81131, Note_off_c, 0, 59, 64
2, 81143, Note_off_c, 0, 71, 64
2, 81179, Note_off_c, 0, 75, 64
2, 81255, Note_on_c, 0, 72, 40
2, 81306, Note_off_c, 0, 72, 64
2, 81310, Note_on_c, 0, 71, 40
2, 81310, Note_on_c, 0, 65, 28
2, 81310, Note_on_c, 0, 59, 28
2, 81310, Note_on_c, 0, 56, 28
2, 81310, Note_on_c, 0, 73, 40
2, 81391, Note_off_c, 0, 65, 64
2, 81395, Note_off_c, 0, 59, 64
2, 81398, Note_off_c, 0, 63, 64
2, 81399, Note_off_c, 0, 56, 64
2, 81402, Note_off_c, 0, 71, 64
2, 81420, Note_off_c, 0, 73, 64
2, 81530, Note_on_c, 0, 74, 52
2, 81564, Note_off_c, 0, 74, 64
2, 81568, Note_on_c, 0, 71, 52
2, 81568, Note_on_c, 0, 63, 40
2, 81568, Note_on_c, 0, 59, 40
2, 81568, Note_on_c, 0, 56, 40
2, 81568, Note_on_c, 0, 75, 52
2, 81647, Note_off_c, 0, 63, 64
2, 81649, Note_off_c, 0, 56, 64
2, 81652, Note_off_c, 0, 71, 64
2, 81656, Note_off_c, 0, 59, 64
2, 81703, Note_off_c, 0, 75, 64
2, 81838, Note_off_c, 0, 49, 64
2, 81838, Note_off_c, 0, 44, 64
2, 81860, Control_c, 0, 64, 0
2, 82095, Note_on_c, 0, 54, 42
2, 82354, Note_on_c, 0, 57, 52
2, 82354, Note_on_c, 0, 53, 44
2, 82410, Note_off_c, 0, 54, 64
2, 82679, Note_on_c, 0, 51, 46
2, 82735, Note_off_c, 0, 53, 64
2, 83039, Note_on_c, 0, 65, 67
2, 83047, Control_c, 0, 64, 118
2, 83999, Note_on_c, 0, 48, 52
2, 84056, Note_off_c, 0, 51, 64
2, 84213, Control_c, 0, 64, 0
2, 84565, Note_on_c, 0, 64, 60
2, 84610, Note_off_c, 0, 65, 64
2, 85147, Note_off_c, 0, 57, 64
2, 85150, Note_on_c, 0, 63, 52
2, 85150, Note_on_c, 0, 58, 44
2, 85150, Note_on_c, 0, 42, 41
2, 85180, Control_c, 0, 64, 118
2, 85193, Note_off_c, 0, 64, 64
2, 85247, Note_off_c, 0, 48, 64
2, 85325, Note_off_c, 0, 58, 64
2, 85361, Note_on_c, 0, 74, 46
2, 85406, Note_on_c, 0, 70, 40
2, 85406, Note_on_c, 0, 66, 36
2, 85406, Note_on_c, 0, 61, 39
2, 85406, Note_on_c, 0, 58, 34
2, 85412, Note_off_c, 0, 74, 64
2, 85416, Note_on_c, 0, 75, 44
2, 85487, Note_off_c, 0, 61, 64
2, 85488, Note_off_c, 0, 58, 64
2, 85496, Note_off_c, 0, 66, 64
2, 85502, Note_off_c, 0, 70, 64
2, 85554, Note_off_c, 0, 75, 64
2, 85636, Note_on_c, 0, 72, 40
2, 85663, Note_on_c, 0, 61, 40
2, 85663, Note_on_c, 0, 70, 31
2, 85663, Note_on_c, 0, 65, 34
2, 85663, Note_on_c, 0, 58, 29
2, 85670, Note_off_c, 0, 72, 64
2, 85673, Note_on_c, 0, 73, 43
2, 85744, Note_off_c, 0, 58, 64
2, 85744, Note_off_c, 0, 65, 64
2, 85749, Note_off_c, 0, 61, 64
2, 85774, Note_off_c, 0, 70, 64
2, 85794, Note_off_c, 0, 63, 64
2, 85848, Note_off_c, 0, 73, 64
2, 85893, Note_on_c, 0, 74, 52
2, 85938, Note_on_c, 0, 70, 44
2, 85938, Note_on_c, 0, 63, 40
2, 85938, Note_on_c, 0, 61, 37
2, 85938, Note_on_c, 0, 58, 34
2, 85944, Note_off_c, 0, 74, 64
2, 85948, Note_on_c, 0, 75, 52
2, 86001, Note_off_c, 0, 61, 64
2, 86003, Note_off_c, 0, 63, 64
2, 86007, Note_off_c, 0, 58, 64
2, 86030, Note_off_c, 0, 70, 64
2, 86091, Note_off_c, 0, 75, 64
2, 86107, Control_c, 0, 64, 0
2, 86190, Note_off_c, 0, 42, 64
2, 86707, Note_on_c, 0, 73, 76
2, 86707, Note_on_c, 0, 61, 64
2, 86723, Control_c, 0, 64, 118
2, 87237, Note_off_c, 0, 73, 64
2, 87237, Note_off_c, 0, 61, 64
2, 87239, Note_on_c, 0, 69, 76
2, 87239, Note_on_c, 0, 81, 88
2, 87356, Note_off_c, 0, 69, 64
2, 87373, Note_off_c, 0, 81, 64
2, 87487, Control_c, 0, 64, 0
2, 87497, Note_on_c, 0, 83, 92
2, 87497, Note_on_c, 0, 71, 80
2, 88028, Note_on_c, 0, 82, 80
2, 88028, Note_on_c, 0, 70, 68
2, 88074, Note_off_c, 0, 71, 64
2, 88075, Note_off_c, 0, 83, 64
2, 88173, Note_off_c, 0, 70, 64
2, 88255, Note_off_c, 0, 82, 64
2, 88286, Note_on_c, 0, 77, 76
2, 88286, Note_on_c, 0, 47, 61
2, 88286, Note_on_c, 0, 70, 67
2, 88293, Control_c, 0, 64, 120
2, 88420, Note_on_c, 0, 80, 76
2, 88473, Note_off_c, 0, 77, 64
2, 88538, Note_on_c, 0, 59, 47
2, 88539, Note_on_c, 0, 56, 43
2, 88541, Note_on_c, 0, 54, 39
2, 88542, Note_on_c, 0, 68, 74
2, 88543, Note_on_c, 0, 63, 52
2, 88580, Note_off_c, 0, 70, 64
2, 88580, Control_c, 0, 64, 0
2, 88676, Note_off_c, 0, 80, 64
2, 88679, Note_on_c, 0, 78, 72
2, 88737, Control_c, 0, 64, 118
2, 88796, Note_off_c, 0, 78, 64
2, 88799, Note_off_c, 0, 68, 64
2, 88799, Note_on_c, 0, 66, 69
2, 88799, Note_on_c, 0, 75, 69
2, 89071, Note_on_c, 0, 65, 64
2, 89104, Note_off_c, 0, 66, 64
2, 89118, Note_off_c, 0, 56, 64
2, 89125, Note_off_c, 0, 63, 64
2, 89201, Note_off_c, 0, 54, 64
2, 89225, Note_off_c, 0, 59, 64
2, 89328, Note_off_c, 0, 75, 64
2, 89329, Note_off_c, 0, 47, 64
2, 89337, Note_on_c, 0, 63, 64
2, 89337, Note_on_c, 0, 70, 76
2, 89340, Control_c, 0, 64, 0
2, 89381, Note_off_c, 0, 65, 64
2, 89483, Note_on_c, 0, 73, 76
2, 89497, Control_c, 0, 64, 118
2, 89554, Note_off_c, 0, 70, 64
2, 89654, Note_on_c, 0, 61, 62
2, 89729, Note_off_c, 0, 63, 64
2, 89825, Note_off_c, 0, 73, 64
2, 89826, Note_on_c, 0, 71, 68
2, 89996, Note_off_c, 0, 71, 64
2, 90001, Note_on_c, 0, 65, 64
2, 90001, Note_on_c, 0, 59, 58
2, 90003, Control_c, 0, 64, 0
2, 90093, Note_off_c, 0, 61, 64
2, 90160, Control_c, 0, 64, 118
2, 90304, Note_on_c, 0, 58, 54
2, 90323, Note_off_c, 0, 59, 64
2, 90580, Note_on_c, 0, 56, 52
2, 90620, Note_off_c, 0, 58, 64
2, 90656, Note_on_c, 0, 66, 70
2, 90714, Note_off_c, 0, 65, 64
2, 90860, Note_off_c, 0, 56, 64
2, 90861, Note_off_c, 0, 66, 64
2, 90875, Note_on_c, 0, 63, 73
2, 90875, Note_on_c, 0, 46, 49
2, 90875, Note_on_c, 0, 59, 61
2, 90875, Note_on_c, 0, 54, 54
2, 90883, Control_c, 0, 64, 0
2, 91026, Note_on_c, 0, 49, 49
2, 91060, Control_c, 0, 64, 118
2, 91144, Note_off_c, 0, 46, 64
2, 91368, Note_off_c, 0, 49, 64
2, 91368, Note_on_c, 0, 47, 47
2, 91539, Note_off_c, 0, 47, 64
2, 91539, Note_on_c, 0, 37, 46
2, 92087, Control_c, 0, 64, 0
2, 92465, Note_on_c, 0, 39, 42
2, 92500, Note_off_c, 0, 37, 64
2, 92876, Note_on_c, 0, 41, 40
2, 92911, Note_off_c, 0, 39, 64
2, 93082, Note_on_c, 0, 39, 39
2, 93117, Note_off_c, 0, 41, 64
2, 93493, Note_on_c, 0, 37, 37
2, 93528, Note_off_c, 0, 39, 64
2, 93986, Control_c, 0, 64, 127
2, 94384, Note_on_c, 0, 70, 52
2, 94539, Note_on_c, 0, 68, 48
2, 94593, Note_off_c, 0, 70, 64
2, 94624, Note_off_c, 0, 68, 64
2, 94898, Note_on_c, 0, 70, 40
2, 95010, Note_off_c, 0, 70, 64
2, 95893, Note_on_c, 0, 70, 46
2, 96115, Note_on_c, 0, 68, 42
2, 96180, Note_off_c, 0, 70, 64
2, 96198, Note_off_c, 0, 68, 64
2, 96577, Note_on_c, 0, 70, 34
2, 96703, Note_off_c, 0, 70, 64
2, 96740, Note_off_c, 0, 54, 64
2, 96917, Note_off_c, 0, 59, 64
2, 96954, Note_off_c, 0, 63, 64
2, 96992, Control_c, 0, 64, 0
2, 97043, Note_off_c, 0, 37, 64
2, 97059, Note_on_c, 0, 46, 45
2, 97059, Note_on_c, 0, 61, 37
2, 97059, Note_on_c, 0, 59, 37
2, 97059, Note_on_c, 0, 54, 37
2, 97247, Note_on_c, 0, 49, 44
2, 97314, Note_off_c, 0, 46, 64
2, 97624, Note_on_c, 0, 47, 41
2, 97661, Note_off_c, 0, 49, 64
2, 97830, Note_on_c, 0, 37, 39
2, 97867, Note_off_c, 0, 47, 64
2, 98035, Note_on_c, 0, 39, 38
2, 98073, Note_off_c, 0, 37, 64
2, 98480, Note_on_c, 0, 41, 34
2, 98518, Note_off_c, 0, 39, 64
2, 98705, Note_on_c, 0, 39, 32
2, 98705, Note_on_c, 0, 53, 37
2, 98741, Note_off_c, 0, 41, 64
2, 98767, Note_off_c, 0, 54, 64
2, 99012, Note_on_c, 0, 37, 30
2, 99048, Note_off_c, 0, 39, 64
2, 99182, Note_on_c, 0, 70, 46
2, 99183, Control_c, 0, 64, 127
2, 99372, Note_on_c, 0, 68, 40
2, 99447, Note_off_c, 0, 70, 64
2, 99475, Note_off_c, 0, 68, 64
2, 99765, Note_on_c, 0, 70, 28
2, 99902, Note_off_c, 0, 70, 64
2, 100793, Note_on_c, 0, 70, 40
2, 101086, Note_on_c, 0, 68, 40
2, 101167, Note_off_c, 0, 70, 64
2, 101220, Note_off_c, 0, 68, 64
2, 101650, Note_on_c, 0, 70, 28
2, 101799, Note_off_c, 0, 70, 64
2, 102194, Note_off_c, 0, 61, 64
2, 102234, Note_off_c, 0, 59, 64
2, 102235, Note_off_c, 0, 53, 64
2, 102235, Note_off_c, 0, 37, 64
2, 102236, Control_c, 0, 64, 0
2, 102237, Note_on_c, 0, 70, 40
2, 102405, Note_on_c, 0, 68, 40
2, 102487, Note_off_c, 0, 70, 64
2, 102833, Note_off_c, 0, 68, 64
2, 102834, Note_on_c, 0, 70, 44
2, 103073, Note_off_c, 0, 70, 64
2, 103074, Note_on_c, 0, 65, 47
2, 103178, Note_off_c, 0, 65, 64
2, 103604, Note_on_c, 0, 70, 52
2, 103720, Note_off_c, 0, 70, 64
2, 104187, Note_on_c, 0, 68, 67
2, 104394, Note_on_c, 0, 65, 48
2, 104487, Note_off_c, 0, 68, 64
2, 104890, Note_off_c, 0, 65, 64
2, 104890, Note_on_c, 0, 63, 40
2, 105163, Note_off_c, 0, 63, 64
2, 105165, Note_on_c, 0, 59, 46
2, 105280, Note_off_c, 0, 59, 64
2, 105832, Note_on_c, 0, 63, 40
2, 105971, Note_off_c, 0, 63, 64
2, 106553, Note_on_c, 0, 39, 47
2, 106553, Note_on_c, 0, 46, 54
2, 106553, Note_on_c, 0, 58, 83
2, 106625, Note_off_c, 0, 39, 64
2, 106629, Note_off_c, 0, 46, 64
2, 106646, Note_off_c, 0, 58, 64
2, 106689, Note_on_c, 0, 58, 59
2, 106827, Note_on_c, 0, 55, 49
2, 106827, Note_on_c, 0, 53, 42
2, 106853, Note_off_c, 0, 58, 64
2, 106899, Note_off_c, 0, 53, 64
2, 106900, Note_off_c, 0, 55, 64
2, 106949, Note_on_c, 0, 60, 63
2, 107083, Note_off_c, 0, 60, 64
2, 107085, Note_on_c, 0, 46, 54
2, 107085, Note_on_c, 0, 39, 48
2, 107085, Note_on_c, 0, 58, 66
2, 107156, Note_off_c, 0, 39, 64
2, 107170, Note_off_c, 0, 46, 64
2, 107333, Note_on_c, 0, 55, 59
2, 107333, Note_on_c, 0, 53, 54
2, 107333, Note_on_c, 0, 63, 71
2, 107353, Note_off_c, 0, 58, 64
2, 107393, Note_on_c, 0, 70, 71
2, 107427, Note_off_c, 0, 55, 64
2, 107427, Note_off_c, 0, 53, 64
2, 107435, Note_off_c, 0, 63, 64
2, 107462, Note_off_c, 0, 70, 64
2, 107598, Note_on_c, 0, 46, 59
2, 107598, Note_on_c, 0, 39, 54
2, 107598, Note_on_c, 0, 58, 71
2, 107691, Note_off_c, 0, 39, 64
2, 107692, Note_off_c, 0, 46, 64
2, 107872, Note_on_c, 0, 55, 53
2, 107872, Note_on_c, 0, 53, 44
2, 107943, Note_off_c, 0, 53, 64
2, 107953, Note_off_c, 0, 55, 64
2, 108130, Note_on_c, 0, 46, 47
2, 108130, Note_on_c, 0, 39, 40
2, 108217, Note_off_c, 0, 46, 64
2, 108218, Note_off_c, 0, 39, 64
2, 108387, Note_on_c, 0, 55, 41
2, 108387, Note_on_c, 0, 53, 34
2, 108478, Note_off_c, 0, 53, 64
2, 108481, Note_off_c, 0, 55, 64
2, 108519, Note_off_c, 0, 58, 64
2, 108645, Note_on_c, 0, 39, 35
2, 108645, Note_on_c, 0, 46, 42
2, 108645, Note_on_c, 0, 58, 47
2, 108726, Note_off_c, 0, 46, 64
2, 108743, Note_off_c, 0, 39, 64
2, 108783, Note_on_c, 0, 56, 47
2, 108832, Note_off_c, 0, 58, 64
2, 108918, Note_on_c, 0, 53, 39
2, 108918, Note_on_c, 0, 51, 34
2, 108994, Note_off_c, 0, 51, 64
2, 109007, Note_off_c, 0, 53, 64
2, 109037, Note_off_c, 0, 56, 64
2, 109040, Note_on_c, 0, 58, 55
2, 109174, Note_off_c, 0, 58, 64
2, 109176, Note_on_c, 0, 46, 47
2, 109176, Note_on_c, 0, 39, 42
2, 109176, Note_on_c, 0, 60, 59
2, 109263, Note_off_c, 0, 60, 64
2, 109265, Note_off_c, 0, 46, 64
2, 109265, Note_off_c, 0, 39, 64
2, 109432, Note_on_c, 0, 53, 47
2, 109432, Note_on_c, 0, 51, 40
2, 109432, Note_on_c, 0, 56, 59
2, 109521, Note_off_c, 0, 56, 64
2, 109523, Note_off_c, 0, 53, 64
2, 109527, Note_off_c, 0, 51, 64
2, 109706, Note_on_c, 0, 39, 35
2, 109706, Note_on_c, 0, 46, 40
2, 109706, Note_on_c, 0, 58, 47
2, 109781, Note_off_c, 0, 46, 64
2, 109792, Note_off_c, 0, 39, 64
2, 109828, Note_on_c, 0, 56, 47
2, 109885, Note_off_c, 0, 58, 64
2, 109963, Note_on_c, 0, 53, 39
2, 109963, Note_on_c, 0, 51, 36
2, 110038, Note_off_c, 0, 53, 64
2, 110040, Note_off_c, 0, 51, 64
2, 110082, Note_off_c, 0, 56, 64
2, 110085, Note_on_c, 0, 58, 55
2, 110219, Note_off_c, 0, 58, 64
2, 110221, Note_on_c, 0, 46, 47
2, 110221, Note_on_c, 0, 39, 40
2, 110221, Note_on_c, 0, 60, 59
2, 110303, Note_off_c, 0, 39, 64
2, 110306, Note_off_c, 0, 46, 64
2, 110322, Note_off_c, 0, 60, 64
2, 110478, Note_on_c, 0, 51, 35
2, 110478, Note_on_c, 0, 53, 44
2, 110478, Note_on_c, 0, 56, 59
2, 110566, Note_off_c, 0, 56, 64
2, 110571, Note_off_c, 0, 53, 64
2, 110572, Note_off_c, 0, 51, 64
2, 110752, Note_on_c, 0, 58, 53
2, 110752, Note_on_c, 0, 46, 41
2, 110874, Note_on_c, 0, 55, 53
2, 110874, Note_on_c, 0, 43, 44
2, 110913, Note_off_c, 0, 58, 64
2, 110913, Note_off_c, 0, 46, 64
2, 111086, Note_off_c, 0, 55, 64
2, 111086, Note_off_c, 0, 43, 64
2, 111131, Note_on_c, 0, 53, 60
2, 111131, Note_on_c, 0, 41, 51
2, 111266, Note_off_c, 0, 53, 64
2, 111266, Note_off_c, 0, 41, 64
2, 111268, Note_on_c, 0, 51, 64
2, 111268, Note_on_c, 0, 39, 54
2, 111369, Note_off_c, 0, 39, 64
2, 111375, Note_off_c, 0, 51, 64
2, 111523, Note_on_c, 0, 50, 71
2, 111523, Note_on_c, 0, 38, 61
2, 111631, Note_off_c, 0, 50, 64
2, 111640, Note_off_c, 0, 38, 64
2, 111797, Note_on_c, 0, 48, 78
2, 111797, Note_on_c, 0, 36, 68
2, 111884, Note_off_c, 0, 36, 64
2, 111894, Note_off_c, 0, 48, 64
2, 112054, Note_on_c, 0, 43, 94
2, 112054, Note_on_c, 0, 31, 83
2, 112161, Note_off_c, 0, 31, 64
2, 112172, Note_off_c, 0, 43, 64
2, 112311, Note_on_c, 0, 48, 101
2, 112311, Note_on_c, 0, 36, 90
2, 112419, Note_off_c, 0, 48, 64
2, 112423, Note_off_c, 0, 36, 64
2, 112569, Note_on_c, 0, 38, 97
2, 112569, Note_on_c, 0, 50, 105
2, 112672, Note_off_c, 0, 50, 64
2, 112677, Note_off_c, 0, 38, 64
2, 112843, Note_on_c, 0, 39, 41
2, 112843, Note_on_c, 0, 46, 50
2, 112843, Note_on_c, 0, 70, 77
2, 112915, Note_off_c, 0, 39, 64
2, 112917, Note_off_c, 0, 46, 64
2, 112965, Note_on_c, 0, 68, 53
2, 113032, Note_off_c, 0, 70, 64
2, 113101, Note_on_c, 0, 56, 41
2, 113101, Note_on_c, 0, 53, 38
2, 113101, Note_on_c, 0, 63, 46
2, 113101, Note_on_c, 0, 59, 43
2, 113183, Note_off_c, 0, 53, 64
2, 113187, Note_off_c, 0, 56, 64
2, 113236, Note_off_c, 0, 68, 64
2, 113239, Note_off_c, 0, 59, 64
2, 113239, Note_off_c, 0, 63, 64
2, 113241, Note_on_c, 0, 70, 57
2, 113356, Note_off_c, 0, 70, 64
2, 113358, Note_on_c, 0, 39, 42
2, 113358, Note_on_c, 0, 46, 48
2, 113358, Note_on_c, 0, 65, 60
2, 113446, Note_off_c, 0, 46, 64
2, 113449, Note_off_c, 0, 39, 64
2, 113459, Note_off_c, 0, 65, 64
2, 113632, Note_on_c, 0, 56, 40
2, 113632, Note_on_c, 0, 53, 35
2, 113632, Note_on_c, 0, 70, 65
2, 113632, Note_on_c, 0, 63, 35
2, 113632, Note_on_c, 0, 60, 44
2, 113700, Note_off_c, 0, 53, 64
2, 113712, Note_off_c, 0, 56, 64
2, 113713, Note_off_c, 0, 70, 64
2, 113752, Note_off_c, 0, 63, 64
2, 113752, Note_off_c, 0, 60, 64
2, 113888, Note_on_c, 0, 39, 45
2, 113888, Note_on_c, 0, 46, 53
2, 113888, Note_on_c, 0, 68, 65
2, 113966, Note_off_c, 0, 39, 64
2, 113967, Note_off_c, 0, 46, 64
2, 114011, Note_on_c, 0, 65, 62
2, 114072, Note_off_c, 0, 68, 64
2, 114145, Note_on_c, 0, 53, 46
2, 114145, Note_on_c, 0, 56, 49
2, 114145, Note_on_c, 0, 59, 59
2, 114228, Note_off_c, 0, 53, 64
2, 114228, Note_off_c, 0, 56, 64
2, 114282, Note_off_c, 0, 65, 64
2, 114284, Note_on_c, 0, 63, 56
2, 114325, Note_off_c, 0, 59, 64
2, 114384, Note_off_c, 0, 63, 64
2, 114402, Note_on_c, 0, 46, 47
2, 114402, Note_on_c, 0, 39, 38
2, 114402, Note_on_c, 0, 59, 53
2, 114490, Note_off_c, 0, 46, 64
2, 114492, Note_off_c, 0, 59, 64
2, 114494, Note_off_c, 0, 39, 64
2, 114677, Note_on_c, 0, 56, 38
2, 114677, Note_on_c, 0, 53, 34
2, 114677, Note_on_c, 0, 59, 42
2, 114677, Note_on_c, 0, 63, 53
2, 114745, Note_off_c, 0, 56, 64
2, 114754, Note_off_c, 0, 53, 64
2, 114758, Note_off_c, 0, 63, 64
2, 114797, Note_off_c, 0, 59, 64
2, 114934, Note_on_c, 0, 39, 49
2, 114934, Note_on_c, 0, 46, 66
2, 114934, Note_on_c, 0, 58, 85
2, 114996, Note_off_c, 0, 39, 64
2, 114999, Note_off_c, 0, 46, 64
2, 115010, Note_off_c, 0, 58, 64
2, 115053, Note_on_c, 0, 58, 65
2, 115191, Note_on_c, 0, 55, 50
2, 115191, Note_on_c, 0, 53, 44
2, 115259, Note_off_c, 0, 58, 64
2, 115272, Note_off_c, 0, 53, 64
2, 115280, Note_off_c, 0, 55, 64
2, 115329, Note_on_c, 0, 60, 68
2, 115447, Note_off_c, 0, 60, 64
2, 115449, Note_on_c, 0, 46, 51
2, 115449, Note_on_c, 0, 39, 48
2, 115449, Note_on_c, 0, 58, 71
2, 115529, Note_off_c, 0, 46, 64
2, 115541, Note_off_c, 0, 39, 64
2, 115671, Control_c, 0, 64, 127
2, 115672, Note_on_c, 0, 63, 89
2, 115722, Note_on_c, 0, 53, 53
2, 115722, Note_on_c, 0, 55, 64
2, 115722, Note_on_c, 0, 70, 94
2, 115726, Note_off_c, 0, 58, 64
2, 115773, Note_off_c, 0, 63, 64
2, 115774, Note_off_c, 0, 70, 64
2, 115800, Note_off_c, 0, 53, 64
2, 115801, Note_off_c, 0, 55, 64
2, 115978, Control_c, 0, 64, 0
2, 115980, Note_on_c, 0, 39, 41
2, 115980, Note_on_c, 0, 46, 46
2, 115980, Note_on_c, 0, 58, 92
2, 116066, Note_off_c, 0, 39, 64
2, 116069, Note_off_c, 0, 46, 64
2, 116236, Note_on_c, 0, 53, 41
2, 116236, Note_on_c, 0, 55, 46
2, 116327, Note_off_c, 0, 53, 64
2, 116334, Note_off_c, 0, 55, 64
2, 116493, Note_on_c, 0, 46, 44
2, 116493, Note_on_c, 0, 39, 40
2, 116581, Note_off_c, 0, 46, 64
2, 116582, Note_off_c, 0, 39, 64
2, 116768, Note_on_c, 0, 55, 43
2, 116768, Note_on_c, 0, 53, 38
2, 116842, Note_off_c, 0, 55, 64
2, 116853, Note_off_c, 0, 53, 64
2, 116939, Note_off_c, 0, 58, 64
2, 117025, Note_on_c, 0, 58, 50
2, 117025, Note_on_c, 0, 49, 37
2, 117025, Note_on_c, 0, 42, 33
2, 117107, Note_off_c, 0, 49, 64
2, 117107, Note_off_c, 0, 42, 64
2, 117128, Note_off_c, 0, 58, 64
2, 117159, Note_on_c, 0, 58, 36
2, 117280, Note_on_c, 0, 54, 28
2, 117281, Note_on_c, 0, 49, 26
2, 117286, Note_on_c, 0, 56, 35
2, 117306, Note_off_c, 0, 58, 64
2, 117364, Note_off_c, 0, 49, 64
2, 117370, Note_off_c, 0, 54, 64
2, 117371, Note_off_c, 0, 56, 64
2, 117419, Note_on_c, 0, 60, 39
2, 117505, Note_off_c, 0, 60, 64
2, 117540, Note_on_c, 0, 42, 28
2, 117541, Note_on_c, 0, 49, 33
2, 117544, Note_on_c, 0, 58, 43
2, 117618, Note_off_c, 0, 49, 64
2, 117636, Note_off_c, 0, 42, 64
2, 117658, Note_off_c, 0, 58, 64
2, 117811, Note_on_c, 0, 61, 48
2, 117813, Note_on_c, 0, 49, 28
2, 117818, Note_on_c, 0, 54, 34
2, 117818, Note_on_c, 0, 57, 38
2, 117882, Note_off_c, 0, 49, 64
2, 117890, Note_off_c, 0, 57, 64
2, 117897, Note_off_c, 0, 54, 64
2, 117901, Note_off_c, 0, 61, 64
2, 118068, Note_on_c, 0, 63, 52
2, 118069, Note_on_c, 0, 49, 38
2, 118070, Note_on_c, 0, 42, 32
2, 118154, Note_off_c, 0, 49, 64
2, 118168, Note_off_c, 0, 42, 64
2, 118176, Note_off_c, 0, 63, 64
2, 118325, Note_on_c, 0, 58, 41
2, 118326, Note_on_c, 0, 54, 34
2, 118327, Note_on_c, 0, 49, 31
2, 118332, Note_on_c, 0, 65, 57
2, 118408, Note_off_c, 0, 58, 64
2, 118413, Note_off_c, 0, 54, 64
2, 118417, Note_off_c, 0, 49, 64
2, 118449, Note_off_c, 0, 65, 64
2, 118600, Note_on_c, 0, 49, 43
2, 118601, Note_on_c, 0, 63, 63
2, 118604, Note_on_c, 0, 42, 39
2, 118689, Note_off_c, 0, 42, 64
2, 118690, Note_off_c, 0, 49, 64
2, 118698, Note_off_c, 0, 63, 64
2, 118857, Note_on_c, 0, 59, 50
2, 118857, Note_on_c, 0, 66, 68
2, 118860, Note_on_c, 0, 54, 39
2, 118861, Note_on_c, 0, 49, 33
2, 118929, Note_off_c, 0, 54, 64
2, 118932, Note_off_c, 0, 59, 64
2, 118933, Note_off_c, 0, 49, 64
2, 118944, Note_off_c, 0, 66, 64
2, 119115, Note_on_c, 0, 65, 95
2, 119192, Note_off_c, 0, 65, 64
2, 119252, Note_on_c, 0, 65, 72
2, 119373, Note_on_c, 0, 64, 84
2, 119373, Note_on_c, 0, 61, 60
2, 119392, Note_off_c, 0, 65, 64
2, 119509, Note_on_c, 0, 67, 101
2, 119578, Note_off_c, 0, 64, 64
2, 119579, Note_off_c, 0, 61, 64
2, 119646, Note_off_c, 0, 67, 64
2, 119650, Note_on_c, 0, 60, 65
2, 119650, Note_on_c, 0, 63, 89
2, 119650, Note_on_c, 0, 65, 103
2, 119824, Note_off_c, 0, 63, 64
2, 119887, Note_off_c, 0, 65, 64
2, 119887, Note_off_c, 0, 60, 64
2, 119900, Control_c, 0, 64, 127
2, 119905, Note_on_c, 0, 74, 98
2, 119905, Note_on_c, 0, 67, 86
2, 119905, Note_on_c, 0, 57, 74
2, 119905, Note_on_c, 0, 63, 81
2, 119905, Note_on_c, 0, 53, 65
2, 119995, Note_off_c, 0, 57, 64
2, 119996, Note_off_c, 0, 67, 64
2, 119997, Note_off_c, 0, 63, 64
2, 119998, Note_off_c, 0, 53, 64
2, 120001, Note_off_c, 0, 74, 64
2, 120163, Note_on_c, 0, 70, 73
2, 120163, Note_on_c, 0, 62, 53
2, 120163, Note_on_c, 0, 58, 61
2, 120163, Note_on_c, 0, 53, 54
2, 120163, Note_on_c, 0, 46, 46
2, 120179, Control_c, 0, 64, 0
2, 120342, Control_c, 0, 64, 118
2, 120417, Note_off_c, 0, 58, 64
2, 120417, Note_off_c, 0, 46, 64
2, 120417, Note_off_c, 0, 53, 64
2, 120556, Note_off_c, 0, 70, 64
2, 120556, Note_off_c, 0, 62, 64
2, 120693, Note_on_c, 0, 94, 97
2, 120693, Note_on_c, 0, 82, 80
2, 120693, Note_on_c, 0, 46, 85
2, 120693, Note_on_c, 0, 34, 74
2, 120834, Note_off_c, 0, 46, 64
2, 120839, Note_off_c, 0, 94, 64
2, 120853, Note_off_c, 0, 82, 64
2, 120856, Note_off_c, 0, 34, 64
2, 120868, Control_c, 0, 64, 0
2, 121207, Note_on_c, 0, 56, 25
2, 121207, Note_on_c, 0, 58, 34
2, 121207, Note_on_c, 0, 60, 37
2, 121207, Note_on_c, 0, 63, 47
2, 121286, Note_off_c, 0, 56, 64
2, 121291, Note_off_c, 0, 58, 64
2, 121347, Note_on_c, 0, 65, 40
2, 121347, Note_on_c, 0, 62, 36
2, 121366, Note_off_c, 0, 60, 64
2, 121382, Note_off_c, 0, 63, 64
2, 121481, Note_on_c, 0, 68, 26
2, 121481, Note_on_c, 0, 70, 38
2, 121561, Note_off_c, 0, 68, 64
2, 121568, Note_off_c, 0, 70, 64
2, 121600, Note_off_c, 0, 65, 64
2, 121600, Note_off_c, 0, 62, 64
2, 121604, Note_on_c, 0, 67, 61
2, 121604, Note_on_c, 0, 63, 53
2, 121737, Note_off_c, 0, 67, 64
2, 121737, Note_off_c, 0, 63, 64
2, 121740, Note_on_c, 0, 56, 30
2, 121740, Note_on_c, 0, 58, 40
2, 121740, Note_on_c, 0, 65, 61
2, 121740, Note_on_c, 0, 62, 54
2, 121812, Note_off_c, 0, 58, 64
2, 121813, Note_off_c, 0, 56, 64
2, 121927, Note_off_c, 0, 65, 64
2, 121927, Note_off_c, 0, 62, 64
2, 121996, Note_on_c, 0, 70, 38
2, 121996, Note_on_c, 0, 68, 34
2, 121996, Note_on_c, 0, 63, 49
2, 121996, Note_on_c, 0, 60, 38
2, 122071, Note_off_c, 0, 68, 64
2, 122082, Note_off_c, 0, 70, 64
2, 122184, Note_off_c, 0, 60, 64
2, 122185, Note_off_c, 0, 63, 64
2, 122251, Control_c, 0, 64, 127
2, 122254, Note_on_c, 0, 58, 40
2, 122254, Note_on_c, 0, 56, 35
2, 122254, Note_on_c, 0, 65, 44
2, 122254, Note_on_c, 0, 62, 38
2, 122333, Note_off_c, 0, 58, 64
2, 122345, Note_off_c, 0, 56, 64
2, 122526, Note_on_c, 0, 68, 37
2, 122526, Note_on_c, 0, 70, 40
2, 122596, Note_off_c, 0, 68, 64
2, 122596, Note_off_c, 0, 70, 64
2, 122784, Note_on_c, 0, 56, 35
2, 122784, Note_on_c, 0, 58, 40
2, 122784, Note_on_c, 0, 94, 64
2, 122794, Note_on_c, 0, 82, 49
2, 122852, Note_off_c, 0, 56, 64
2, 122864, Note_off_c, 0, 58, 64
2, 122934, Note_off_c, 0, 94, 64
2, 122945, Note_off_c, 0, 82, 64
2, 123042, Control_c, 0, 64, 0
2, 123043, Note_on_c, 0, 68, 33
2, 123043, Note_on_c, 0, 70, 38
2, 123130, Note_off_c, 0, 70, 64
2, 123140, Note_off_c, 0, 68, 64
2, 123298, Note_off_c, 0, 65, 64
2, 123299, Note_off_c, 0, 62, 64
2, 123300, Note_on_c, 0, 55, 31
2, 123300, Note_on_c, 0, 58, 34
2, 123300, Note_on_c, 0, 60, 37
2, 123300, Note_on_c, 0, 63, 39
2, 123382, Note_off_c, 0, 55, 64
2, 123385, Note_off_c, 0, 58, 64
2, 123438, Note_on_c, 0, 62, 37
2, 123438, Note_on_c, 0, 65, 47
2, 123469, Note_off_c, 0, 60, 64
2, 123485, Note_off_c, 0, 63, 64
2, 123571, Note_on_c, 0, 67, 29
2, 123571, Note_on_c, 0, 70, 40
2, 123626, Note_off_c, 0, 67, 64
2, 123636, Note_off_c, 0, 70, 64
2, 123674, Note_off_c, 0, 62, 64
2, 123674, Note_off_c, 0, 65, 64
2, 123692, Note_on_c, 0, 67, 61
2, 123692, Note_on_c, 0, 63, 49
2, 123829, Note_off_c, 0, 67, 64
2, 123829, Note_off_c, 0, 63, 64
2, 123831, Note_on_c, 0, 55, 27
2, 123831, Note_on_c, 0, 58, 38
2, 123831, Note_on_c, 0, 65, 58
2, 123831, Note_on_c, 0, 62, 46
2, 123907, Note_off_c, 0, 58, 64
2, 123915, Note_off_c, 0, 55, 64
2, 123990, Note_off_c, 0, 65, 64
2, 123998, Note_off_c, 0, 62, 64
2, 124086, Note_on_c, 0, 63, 49
2, 124086, Note_on_c, 0, 60, 44
2, 124086, Note_on_c, 0, 70, 38
2, 124086, Note_on_c, 0, 67, 34
2, 124166, Note_off_c, 0, 70, 64
2, 124173, Note_off_c, 0, 67, 64
2, 124247, Note_off_c, 0, 60, 64
2, 124253, Note_off_c, 0, 63, 64
2, 124344, Note_on_c, 0, 58, 40
2, 124344, Note_on_c, 0, 55, 34
2, 124344, Note_on_c, 0, 62, 37
2, 124344, Note_on_c, 0, 65, 41
2, 124429, Note_off_c, 0, 58, 64
2, 124430, Note_off_c, 0, 55, 64
2, 124481, Note_off_c, 0, 62, 64
2, 124481, Note_off_c, 0, 65, 64
2, 124618, Note_on_c, 0, 70, 40
2, 124618, Note_on_c, 0, 67, 34
2, 124618, Note_on_c, 0, 63, 37
2, 124618, Note_on_c, 0, 60, 34
2, 124693, Note_off_c, 0, 67, 64
2, 124698, Note_off_c, 0, 70, 64
2, 124875, Control_c, 0, 64, 127
2, 124878, Note_on_c, 0, 65, 49
2, 124878, Note_on_c, 0, 62, 40
2, 124878, Note_on_c, 0, 55, 37
2, 124878, Note_on_c, 0, 58, 44
2, 124921, Note_off_c, 0, 60, 64
2, 124945, Note_off_c, 0, 63, 64
2, 125001, Note_off_c, 0, 55, 64
2, 125005, Note_off_c, 0, 58, 64
2, 125136, Note_on_c, 0, 63, 67
2, 125136, Note_on_c, 0, 72, 85
2, 125136, Note_on_c, 0, 67, 61
2, 125136, Note_on_c, 0, 70, 65
2, 125202, Note_off_c, 0, 62, 64
2, 125203, Note_off_c, 0, 65, 64
2, 125233, Note_off_c, 0, 63, 64
2, 125236, Note_off_c, 0, 67, 64
2, 125249, Note_off_c, 0, 72, 64
2, 125259, Note_off_c, 0, 70, 64
2, 125397, Note_on_c, 0, 64, 46
2, 125404, Control_c, 0, 64, 0
2, 125407, Note_on_c, 0, 47, 49
2, 125407, Note_on_c, 0, 61, 40
2, 125407, Note_on_c, 0, 57, 37
2, 125526, Note_on_c, 0, 49, 49
2, 125567, Note_off_c, 0, 47, 64
2, 125799, Note_off_c, 0, 49, 64
2, 125800, Note_on_c, 0, 51, 52
2, 125953, Note_off_c, 0, 51, 64
2, 125954, Note_on_c, 0, 49, 54
2, 126019, Note_off_c, 0, 49, 64
2, 126227, Note_on_c, 0, 47, 57
2, 126311, Note_off_c, 0, 47, 64
2, 126513, Note_on_c, 0, 65, 49
2, 126523, Note_on_c, 0, 46, 61
2, 126523, Note_on_c, 0, 56, 40
2, 126523, Note_on_c, 0, 60, 44
2, 126569, Note_off_c, 0, 64, 64
2, 126593, Note_off_c, 0, 57, 64
2, 126593, Note_off_c, 0, 61, 64
2, 126656, Note_on_c, 0, 48, 61
2, 126714, Note_off_c, 0, 46, 64
2, 126929, Note_off_c, 0, 48, 64
2, 126931, Note_on_c, 0, 50, 55
2, 127050, Note_off_c, 0, 50, 64
2, 127051, Note_on_c, 0, 48, 51
2, 127118, Note_off_c, 0, 48, 64
2, 127324, Note_on_c, 0, 46, 44
2, 127410, Note_off_c, 0, 46, 64
2, 127446, Note_off_c, 0, 60, 64
2, 127489, Note_off_c, 0, 65, 64
2, 127495, Note_off_c, 0, 56, 64
2, 127620, Note_on_c, 0, 55, 37
2, 127620, Note_on_c, 0, 58, 42
2, 127620, Note_on_c, 0, 53, 40
2, 127620, Note_on_c, 0, 46, 41
2, 127753, Note_on_c, 0, 48, 41
2, 127834, Note_off_c, 0, 46, 64
2, 128044, Note_off_c, 0, 48, 64
2, 128045, Note_on_c, 0, 50, 37
2, 128198, Note_off_c, 0, 50, 64
2, 128199, Note_on_c, 0, 48, 34
2, 128277, Note_off_c, 0, 48, 64
2, 128489, Note_on_c, 0, 46, 29
2, 128577, Note_off_c, 0, 46, 64
2, 128798, Note_off_c, 0, 53, 64
2, 128799, Note_on_c, 0, 51, 37
2, 128935, Note_on_c, 0, 34, 71
2, 128935, Note_on_c, 0, 46, 83
2, 129055, Note_off_c, 0, 34, 64
2, 129055, Note_off_c, 0, 46, 64
2, 129057, Note_on_c, 0, 48, 72
2, 129057, Note_on_c, 0, 36, 64
2, 129193, Note_off_c, 0, 48, 64
2, 129193, Note_off_c, 0, 36, 64
2, 129195, Note_on_c, 0, 50, 74
2, 129195, Note_on_c, 0, 38, 68
2, 129330, Note_off_c, 0, 50, 64
2, 129330, Note_off_c, 0, 38, 64
2, 129332, Note_on_c, 0, 48, 95
2, 129332, Note_on_c, 0, 36, 84
2, 129518, Note_off_c, 0, 36, 64
2, 129519, Note_off_c, 0, 48, 64
2, 129579, Note_off_c, 0, 58, 64
2, 129587, Note_on_c, 0, 22, 100
2, 129587, Note_on_c, 0, 34, 103
2, 129707, Note_off_c, 0, 22, 64
2, 129707, Note_off_c, 0, 34, 64
2, 129828, Note_off_c, 0, 51, 64
2, 129828, Note_off_c, 0, 55, 64
2, 129845, Note_on_c, 0, 56, 25
2, 129845, Note_on_c, 0, 58, 34
2, 129845, Note_on_c, 0, 60, 37
2, 129845, Note_on_c, 0, 63, 40
2, 129935, Note_off_c, 0, 58, 64
2, 129946, Note_off_c, 0, 56, 64
2, 129985, Note_on_c, 0, 62, 37
2, 129985, Note_on_c, 0, 65, 42
2, 130019, Note_off_c, 0, 60, 64
2, 130021, Note_off_c, 0, 63, 64
2, 130101, Note_on_c, 0, 68, 26
2, 130101, Note_on_c, 0, 70, 34
2, 130190, Note_off_c, 0, 70, 64
2, 130194, Note_off_c, 0, 68, 64
2, 130238, Note_off_c, 0, 62, 64
2, 130238, Note_off_c, 0, 65, 64
2, 130242, Note_on_c, 0, 67, 61
2, 130242, Note_on_c, 0, 63, 54
2, 130375, Note_off_c, 0, 67, 64
2, 130376, Note_off_c, 0, 63, 64
2, 130378, Note_on_c, 0, 56, 29
2, 130378, Note_on_c, 0, 58, 41
2, 130378, Note_on_c, 0, 65, 61
2, 130378, Note_on_c, 0, 62, 54
2, 130454, Note_off_c, 0, 58, 64
2, 130463, Note_off_c, 0, 56, 64
2, 130565, Note_off_c, 0, 65, 64
2, 130565, Note_off_c, 0, 62, 64
2, 130633, Note_on_c, 0, 68, 31
2, 130633, Note_on_c, 0, 70, 35
2, 130633, Note_on_c, 0, 63, 49
2, 130633, Note_on_c, 0, 60, 44
2, 130699, Note_off_c, 0, 70, 64
2, 130712, Note_off_c, 0, 68, 64
2, 130821, Note_off_c, 0, 60, 64
2, 130822, Note_off_c, 0, 63, 64
2, 130891, Note_on_c, 0, 56, 34
2, 130891, Note_on_c, 0, 58, 40
2, 130891, Note_on_c, 0, 62, 37
2, 130891, Note_on_c, 0, 65, 44
2, 130972, Note_off_c, 0, 56, 64
2, 130975, Note_off_c, 0, 58, 64
2, 131147, Note_on_c, 0, 68, 37
2, 131147, Note_on_c, 0, 70, 41
2, 131239, Note_off_c, 0, 68, 64
2, 131239, Note_off_c, 0, 70, 64
2, 131412, Note_on_c, 0, 82, 49
2, 131422, Note_on_c, 0, 56, 37
2, 131422, Note_on_c, 0, 58, 41
2, 131422, Note_on_c, 0, 94, 61
2, 131490, Note_off_c, 0, 56, 64
2, 131495, Note_off_c, 0, 58, 64
2, 131669, Note_off_c, 0, 82, 64
2, 131679, Note_off_c, 0, 94, 64
2, 131681, Note_on_c, 0, 68, 35
2, 131681, Note_on_c, 0, 70, 41
2, 131767, Note_off_c, 0, 68, 64
2, 131774, Note_off_c, 0, 70, 64
2, 131935, Note_off_c, 0, 62, 64
2, 131936, Note_off_c, 0, 65, 64
2, 131938, Note_on_c, 0, 55, 33
2, 131938, Note_on_c, 0, 58, 34
2, 131938, Note_on_c, 0, 60, 37
2, 131938, Note_on_c, 0, 63, 40
2, 132014, Note_off_c, 0, 55, 64
2, 132031, Note_off_c, 0, 58, 64
2, 132076, Note_on_c, 0, 62, 37
2, 132076, Note_on_c, 0, 65, 41
2, 132095, Note_off_c, 0, 60, 64
2, 132096, Note_off_c, 0, 63, 64
2, 132192, Note_on_c, 0, 67, 30
2, 132192, Note_on_c, 0, 70, 34
2, 132249, Note_off_c, 0, 67, 64
2, 132276, Note_off_c, 0, 70, 64
2, 132312, Note_off_c, 0, 62, 64
2, 132312, Note_off_c, 0, 65, 64
2, 132329, Note_on_c, 0, 67, 61
2, 132329, Note_on_c, 0, 63, 49
2, 132466, Note_off_c, 0, 67, 64
2, 132466, Note_off_c, 0, 63, 64
2, 132469, Note_on_c, 0, 55, 28
2, 132469, Note_on_c, 0, 58, 40
2, 132469, Note_on_c, 0, 65, 57
2, 132469, Note_on_c, 0, 62, 44
2, 132540, Note_off_c, 0, 55, 64
2, 132544, Note_off_c, 0, 58, 64
2, 132656, Note_off_c, 0, 65, 64
2, 132656, Note_off_c, 0, 62, 64
2, 132724, Note_on_c, 0, 70, 40
2, 132724, Note_on_c, 0, 67, 34
2, 132724, Note_on_c, 0, 60, 44
2, 132724, Note_on_c, 0, 63, 49
2, 132801, Note_off_c, 0, 70, 64
2, 132811, Note_off_c, 0, 67, 64
2, 132899, Note_off_c, 0, 63, 64
2, 132927, Note_off_c, 0, 60, 64
2, 132983, Note_on_c, 0, 58, 34
2, 132983, Note_on_c, 0, 55, 29
2, 132983, Note_on_c, 0, 65, 46
2, 132983, Note_on_c, 0, 62, 40
2, 133077, Note_off_c, 0, 58, 64
2, 133079, Note_off_c, 0, 55, 64
2, 133187, Note_off_c, 0, 65, 64
2, 133187, Note_off_c, 0, 62, 64
2, 133256, Note_on_c, 0, 67, 34
2, 133256, Note_on_c, 0, 70, 39
2, 133256, Note_on_c, 0, 63, 37
2, 133256, Note_on_c, 0, 60, 31
2, 133332, Note_off_c, 0, 67, 64
2, 133340, Note_off_c, 0, 70, 64
2, 133516, Note_on_c, 0, 65, 49
2, 133516, Note_on_c, 0, 62, 29
2, 133516, Note_on_c, 0, 58, 43
2, 133516, Note_on_c, 0, 55, 34
2, 133569, Note_off_c, 0, 60, 64
2, 133588, Note_off_c, 0, 63, 64
2, 133770, Note_off_c, 0, 58, 64
2, 133770, Note_off_c, 0, 55, 64
2, 133774, Note_on_c, 0, 72, 85
2, 133774, Note_on_c, 0, 70, 65
2, 133774, Note_on_c, 0, 67, 73
2, 133774, Note_on_c, 0, 63, 76
2, 133827, Note_off_c, 0, 65, 64
2, 133855, Note_off_c, 0, 62, 64
2, 133860, Note_off_c, 0, 63, 64
2, 133900, Note_off_c, 0, 72, 64
2, 133900, Note_off_c, 0, 67, 64
2, 133912, Note_off_c, 0, 70, 64
2, 134029, Note_on_c, 0, 75, 74
2, 134029, Note_on_c, 0, 71, 68
2, 134029, Note_on_c, 0, 63, 64
2, 134029, Note_on_c, 0, 59, 54
2, 134029, Note_on_c, 0, 82, 97
2, 134029, Note_on_c, 0, 70, 85
2, 134165, Note_on_c, 0, 80, 73
2, 134165, Note_on_c, 0, 68, 61
2, 134206, Note_off_c, 0, 70, 64
2, 134219, Note_off_c, 0, 82, 64
2, 134420, Note_off_c, 0, 68, 64
2, 134420, Note_off_c, 0, 80, 64
2, 134422, Note_on_c, 0, 82, 61
2, 134422, Note_on_c, 0, 70, 49
2, 134559, Note_on_c, 0, 77, 85
2, 134559, Note_on_c, 0, 65, 73
2, 134589, Note_off_c, 0, 82, 64
2, 134589, Note_off_c, 0, 70, 64
2, 134816, Note_on_c, 0, 82, 67
2, 134816, Note_on_c, 0, 70, 79
2, 134846, Note_off_c, 0, 65, 64
2, 134846, Note_off_c, 0, 77, 64
2, 135073, Note_on_c, 0, 80, 73
2, 135073, Note_on_c, 0, 68, 61
2, 135099, Note_off_c, 0, 70, 64
2, 135099, Note_off_c, 0, 82, 64
2, 135210, Note_on_c, 0, 77, 73
2, 135210, Note_on_c, 0, 65, 61
2, 135242, Note_off_c, 0, 63, 64
2, 135259, Note_off_c, 0, 68, 64
2, 135259, Note_off_c, 0, 80, 64
2, 135287, Note_off_c, 0, 59, 64
2, 135306, Note_off_c, 0, 71, 64
2, 135345, Note_off_c, 0, 75, 64
2, 135419, Note_off_c, 0, 65, 64
2, 135419, Note_off_c, 0, 77, 64
2, 135469, Note_on_c, 0, 75, 61
2, 135469, Note_on_c, 0, 63, 49
2, 135586, Note_off_c, 0, 75, 64
2, 135586, Note_off_c, 0, 63, 64
2, 135603, Note_on_c, 0, 71, 85
2, 135603, Note_on_c, 0, 59, 73
2, 136117, Note_off_c, 0, 71, 64
2, 136117, Note_off_c, 0, 59, 64
2, 136254, Note_on_c, 0, 68, 70
2, 136254, Note_on_c, 0, 56, 57
2, 136393, Note_on_c, 0, 65, 67
2, 136393, Note_on_c, 0, 53, 53
2, 136425, Note_off_c, 0, 56, 64
2, 136434, Note_off_c, 0, 68, 64
2, 136513, Note_on_c, 0, 63, 64
2, 136513, Note_on_c, 0, 51, 49
2, 136563, Note_off_c, 0, 65, 64
2, 136565, Note_off_c, 0, 53, 64
2, 136648, Note_off_c, 0, 63, 64
2, 136648, Note_off_c, 0, 51, 64
2, 136650, Note_on_c, 0, 59, 61
2, 136650, Note_on_c, 0, 47, 49
2, 136795, Note_off_c, 0, 47, 64
2, 136814, Note_off_c, 0, 59, 64
2, 136904, Note_on_c, 0, 55, 85
2, 136908, Note_on_c, 0, 34, 76
2, 136911, Note_on_c, 0, 50, 65
2, 136911, Note_on_c, 0, 46, 73
2, 137002, Note_off_c, 0, 55, 64
2, 137012, Note_off_c, 0, 50, 64
2, 137014, Note_off_c, 0, 34, 64
2, 137016, Note_off_c, 0, 46, 64
2, 138224, Note_on_c, 0, 55, 40
2, 138227, Note_on_c, 0, 53, 34
2, 138228, Note_on_c, 0, 58, 52
2, 138229, Note_on_c, 0, 51, 27
2, 138337, Note_off_c, 0, 53, 64
2, 138338, Note_off_c, 0, 55, 64
2, 138348, Note_off_c, 0, 58, 64
2, 138352, Note_off_c, 0, 51, 64
2, 138482, Note_on_c, 0, 46, 40
2, 138482, Note_on_c, 0, 39, 34
2, 138568, Note_off_c, 0, 46, 64
2, 138571, Note_off_c, 0, 39, 64
2, 138754, Note_on_c, 0, 53, 34
2, 138758, Note_on_c, 0, 55, 40
2, 138758, Note_on_c, 0, 58, 52
2, 138760, Note_on_c, 0, 51, 29
2, 138872, Note_off_c, 0, 58, 64
2, 138887, Note_off_c, 0, 53, 64
2, 138895, Note_off_c, 0, 55, 64
2, 138898, Note_off_c, 0, 51, 64
2, 139031, Note_on_c, 0, 39, 28
2, 139031, Note_on_c, 0, 46, 40
2, 139120, Note_off_c, 0, 39, 64
2, 139127, Note_off_c, 0, 46, 64
2, 140381, Note_on_c, 0, 51, 29
2, 140381, Note_on_c, 0, 55, 40
2, 140387, Note_on_c, 0, 53, 34
2, 140388, Note_on_c, 0, 58, 52
2, 140505, Note_off_c, 0, 53, 64
2, 140514, Note_off_c, 0, 51, 64
2, 140516, Note_off_c, 0, 55, 64
2, 140519, Note_off_c, 0, 58, 64
2, 140659, Note_on_c, 0, 46, 40
2, 140659, Note_on_c, 0, 39, 34
2, 140744, Note_off_c, 0, 39, 64
2, 140745, Note_off_c, 0, 46, 64
2, 140932, Note_on_c, 0, 55, 31
2, 140934, Note_on_c, 0, 53, 26
2, 140934, Note_on_c, 0, 58, 37
2, 140935, Note_on_c, 0, 51, 21
2, 141057, Note_off_c, 0, 55, 64
2, 141068, Note_off_c, 0, 51, 64
2, 141075, Note_off_c, 0, 53, 64
2, 141086, Note_off_c, 0, 58, 64
2, 141207, Note_on_c, 0, 46, 25
2, 141207, Note_on_c, 0, 39, 19
2, 141312, Note_off_c, 0, 39, 64
2, 141332, Note_off_c, 0, 46, 64
2, 142560, Note_on_c, 0, 51, 28
2, 142563, Note_on_c, 0, 55, 40
2, 142564, Note_on_c, 0, 58, 52
2, 142565, Note_on_c, 0, 53, 34
2, 142688, Note_off_c, 0, 58, 64
2, 142699, Note_off_c, 0, 51, 64
2, 142707, Note_off_c, 0, 53, 64
2, 142708, Note_off_c, 0, 55, 64
2, 142835, Note_on_c, 0, 46, 40
2, 142835, Note_on_c, 0, 39, 28
2, 142917, Note_off_c, 0, 39, 64
2, 142921, Note_off_c, 0, 46, 64
2, 143106, Note_on_c, 0, 58, 40
2, 143107, Note_on_c, 0, 55, 28
2, 143108, Note_on_c, 0, 53, 28
2, 143114, Note_on_c, 0, 51, 24
2, 143241, Note_off_c, 0, 53, 64
2, 143245, Note_off_c, 0, 58, 64
2, 143251, Note_off_c, 0, 55, 64
2, 143254, Note_off_c, 0, 51, 64
2, 143916, Note_on_c, 0, 47, 97
2, 143916, Note_on_c, 0, 35, 85
2, 144191, Note_on_c, 0, 46, 85
2, 144191, Note_on_c, 0, 34, 73
2, 144235, Note_off_c, 0, 47, 64
2, 144260, Note_on_c, 0, 44, 85
2, 144260, Note_on_c, 0, 32, 73
2, 144268, Note_off_c, 0, 34, 64
2, 144269, Note_off_c, 0, 35, 64
2, 144275, Note_off_c, 0, 46, 64
2, 144328, Note_on_c, 0, 43, 86
2, 144328, Note_on_c, 0, 31, 74
2, 144338, Note_off_c, 0, 32, 64
2, 144340, Note_off_c, 0, 44, 64
2, 144380, Note_on_c, 0, 41, 86
2, 144380, Note_on_c, 0, 29, 74
2, 144388, Note_off_c, 0, 43, 64
2, 144390, Note_off_c, 0, 31, 64
2, 144434, Control_c, 0, 64, 127
2, 144448, Note_on_c, 0, 51, 98
2, 144448, Note_on_c, 0, 39, 86
2, 144448, Note_on_c, 0, 27, 79
2, 144459, Note_off_c, 0, 29, 64
2, 144461, Note_off_c, 0, 41, 64
2, 144537, Note_off_c, 0, 27, 64
2, 144545, Note_off_c, 0, 51, 64
2, 144548, Note_off_c, 0, 39, 64
2, 144660, Control_c, 0, 64, 0
2, 145508, Note_on_c, 0, 39, 101
2, 145508, Control_c, 0, 64, 127
2, 145514, Note_on_c, 0, 27, 89
2, 145514, Note_on_c, 0, 51, 100
2, 145617, Note_off_c, 0, 27, 64
2, 145624, Note_off_c, 0, 39, 64
2, 145632, Note_off_c, 0, 51, 64
2, 145765, Control_c, 0, 64, 0
2, 145765, End_track
3, 0, Start_track
3, 0, Title_t, "from ""Children's Corner"""
3, 0, Channel_prefix, 1
3, 0, End_track
4, 0, Start_track
4, 0, Title_t, "Sequence by Richard Carlson"
4, 0, Channel_prefix, 2
4, 0, End_track
5, 0, Start_track
5, 0, Title_t, "http://geocities.com/lionheart2251"
5, 0, Channel_prefix, 3
5, 0, End_track
6, 0, Start_track
6, 0, Title_t, "lionheart2251@yahoo.com"
6, 0, Channel_prefix, 4
6, 0, End_track
7, 0, Start_track
7, 0, Title_t, "Copyright  2002"
7, 0, Channel_prefix, 5
7, 0, End_track
0, 0, End_of_file
