0, 0, Header, 0, 1, 384
1, 0, Start_track
1, 0, Time_signature, 4, 2, 24, 8
1, 0, Key_signature, 0, "major"
1, 0, Tempo, 512821
1, 0, Program_c, 0, 0
1, 0, Control_c, 0, 10, 83
1, 0, Control_c, 0, 64, 0
1, 0, Program_c, 0, 0
1, 0, Control_c, 0, 10, 43
1, 3, Control_c, 0, 64, 0
1, 748, Control_c, 0, 64, 127
1, 748, Control_c, 0, 64, 127
1, 748, Note_on_c, 0, 37, 43
1, 751, Note_on_c, 0, 44, 34
1, 1164, Note_on_c, 0, 54, 40
1, 1164, Note_on_c, 0, 58, 40
1, 1164, Note_on_c, 0, 61, 47
1, 1515, Note_on_c, 0, 60, 52
1, 1515, Note_on_c, 0, 65, 52
1, 1515, Note_on_c, 0, 68, 46
1, 1728, Note_on_c, 0, 61, 0
1, 1728, Note_on_c, 0, 58, 0
1, 1728, Note_on_c, 0, 54, 0
1, 1836, Note_on_c, 0, 58, 49
1, 1836, Note_on_c, 0, 61, 49
1, 1836, Note_on_c, 0, 63, 52
1, 2049, Note_on_c, 0, 60, 0
1, 2049, Note_on_c, 0, 68, 0
1, 2049, Note_on_c, 0, 65, 0
1, 2157, Note_on_c, 0, 68, 64
1, 2182, Note_on_c, 0, 58, 0
1, 2182, Note_on_c, 0, 63, 0
1, 2182, Note_on_c, 0, 61, 0
1, 2478, Note_on_c, 0, 66, 43
1, 2478, Note_on_c, 0, 70, 43
1, 2478, Note_on_c, 0, 73, 53
1, 2759, Note_on_c, 0, 72, 50
1, 2759, Note_on_c, 0, 77, 50
1, 2759, Note_on_c, 0, 80, 61
1, 2932, Note_on_c, 0, 73, 0
1, 2932, Note_on_c, 0, 66, 0
1, 2932, Note_on_c, 0, 70, 0
1, 3020, Note_on_c, 0, 70, 41
1, 3020, Note_on_c, 0, 73, 41
1, 3020, Note_on_c, 0, 75, 50
1, 3194, Note_on_c, 0, 77, 0
1, 3194, Note_on_c, 0, 80, 0
1, 3194, Note_on_c, 0, 72, 0
1, 3281, Control_c, 0, 64, 127
1, 3281, Note_on_c, 0, 78, 50
1, 3281, Note_on_c, 0, 82, 50
1, 3284, Note_on_c, 0, 85, 62
1, 3284, Control_c, 0, 64, 127
1, 3284, Note_on_c, 0, 65, 68
1, 3305, Note_on_c, 0, 73, 0
1, 3305, Note_on_c, 0, 75, 0
1, 3305, Note_on_c, 0, 70, 0
1, 3317, Note_on_c, 0, 68, 0
1, 3585, Note_on_c, 0, 84, 56
1, 3585, Note_on_c, 0, 89, 56
1, 3585, Note_on_c, 0, 92, 68
1, 3607, Note_on_c, 0, 78, 0
1, 3607, Note_on_c, 0, 85, 0
1, 3607, Note_on_c, 0, 82, 0
1, 3866, Note_on_c, 0, 82, 47
1, 3866, Note_on_c, 0, 85, 53
1, 3866, Note_on_c, 0, 87, 58
1, 3886, Note_on_c, 0, 89, 0
1, 3886, Note_on_c, 0, 92, 0
1, 3886, Note_on_c, 0, 84, 0
1, 4127, Note_on_c, 0, 72, 45
1, 4127, Note_on_c, 0, 77, 45
1, 4127, Note_on_c, 0, 80, 56
1, 4147, Note_on_c, 0, 85, 0
1, 4147, Note_on_c, 0, 87, 0
1, 4147, Note_on_c, 0, 82, 0
1, 4388, Note_on_c, 0, 70, 39
1, 4388, Note_on_c, 0, 73, 39
1, 4388, Note_on_c, 0, 75, 55
1, 4391, Note_on_c, 0, 44, 0
1, 4391, Note_on_c, 0, 37, 0
1, 4391, Note_on_c, 0, 63, 51
1, 4410, Note_on_c, 0, 72, 0
1, 4410, Note_on_c, 0, 80, 0
1, 4410, Note_on_c, 0, 77, 0
1, 4421, Note_on_c, 0, 65, 0
1, 4669, Note_on_c, 0, 60, 41
1, 4669, Note_on_c, 0, 65, 41
1, 4669, Note_on_c, 0, 68, 50
1, 4691, Note_on_c, 0, 75, 0
1, 4691, Note_on_c, 0, 73, 0
1, 4691, Note_on_c, 0, 70, 0
1, 4950, Note_on_c, 0, 58, 37
1, 4950, Note_on_c, 0, 61, 37
1, 4950, Note_on_c, 0, 63, 49
1, 4975, Note_on_c, 0, 60, 0
1, 4975, Note_on_c, 0, 68, 0
1, 4975, Note_on_c, 0, 65, 0
1, 5271, Note_on_c, 0, 54, 36
1, 5271, Note_on_c, 0, 44, 49
1, 5645, Note_on_c, 0, 54, 0
1, 5645, Note_on_c, 0, 58, 0
1, 5645, Control_c, 0, 64, 0
1, 5648, Note_on_c, 0, 63, 0
1, 5648, Note_on_c, 0, 61, 0
1, 5648, Control_c, 0, 64, 0
1, 5651, Note_on_c, 0, 63, 0
1, 5651, Control_c, 0, 64, 0
1, 5651, Note_on_c, 0, 37, 47
1, 5966, Note_on_c, 0, 53, 37
1, 5966, Note_on_c, 0, 56, 37
1, 5966, Note_on_c, 0, 63, 49
1, 6121, Control_c, 0, 64, 127
1, 6121, Control_c, 0, 64, 127
1, 6287, Note_on_c, 0, 61, 45
1, 6287, Note_on_c, 0, 65, 45
1, 6287, Note_on_c, 0, 70, 61
1, 6520, Note_on_c, 0, 63, 0
1, 6520, Note_on_c, 0, 56, 0
1, 6520, Note_on_c, 0, 53, 0
1, 6638, Note_on_c, 0, 65, 0
1, 6638, Note_on_c, 0, 60, 47
1, 6638, Note_on_c, 0, 63, 47
1, 6641, Note_on_c, 0, 65, 54
1, 6824, Note_on_c, 0, 61, 0
1, 6824, Note_on_c, 0, 70, 0
1, 6919, Note_on_c, 0, 65, 0
1, 6919, Note_on_c, 0, 58, 37
1, 6919, Note_on_c, 0, 61, 37
1, 6922, Note_on_c, 0, 65, 54
1, 7092, Note_on_c, 0, 60, 0
1, 7092, Note_on_c, 0, 63, 0
1, 7180, Note_on_c, 0, 65, 0
1, 7180, Note_on_c, 0, 65, 51
1, 7180, Note_on_c, 0, 68, 51
1, 7183, Note_on_c, 0, 75, 63
1, 7366, Note_on_c, 0, 58, 0
1, 7366, Note_on_c, 0, 61, 0
1, 7461, Note_on_c, 0, 73, 54
1, 7461, Note_on_c, 0, 77, 54
1, 7461, Note_on_c, 0, 82, 66
1, 7662, Note_on_c, 0, 68, 0
1, 7662, Note_on_c, 0, 65, 0
1, 7662, Note_on_c, 0, 75, 0
1, 7764, Note_on_c, 0, 77, 0
1, 7764, Note_on_c, 0, 72, 44
1, 7764, Note_on_c, 0, 75, 58
1, 7767, Note_on_c, 0, 77, 56
1, 7855, Control_c, 0, 64, 127
1, 7855, Control_c, 0, 64, 127
1, 7951, Note_on_c, 0, 82, 0
1, 7951, Note_on_c, 0, 73, 0
1, 8045, Note_on_c, 0, 77, 0
1, 8045, Control_c, 0, 64, 127
1, 8045, Control_c, 0, 64, 127
1, 8048, Note_on_c, 0, 37, 0
1, 8048, Note_on_c, 0, 44, 0
1, 8048, Control_c, 0, 64, 0
1, 8051, Note_on_c, 0, 70, 44
1, 8051, Note_on_c, 0, 73, 44
1, 8051, Note_on_c, 0, 77, 56
1, 8231, Note_on_c, 0, 75, 0
1, 8231, Note_on_c, 0, 72, 0
1, 8326, Note_on_c, 0, 77, 52
1, 8326, Note_on_c, 0, 80, 52
1, 8326, Note_on_c, 0, 87, 64
1, 8677, Note_on_c, 0, 85, 57
1, 8677, Note_on_c, 0, 89, 57
1, 8677, Note_on_c, 0, 94, 69
1, 8910, Note_on_c, 0, 87, 0
1, 8910, Note_on_c, 0, 77, 0
1, 8910, Note_on_c, 0, 80, 0
1, 9028, Note_on_c, 0, 89, 0
1, 9028, Note_on_c, 0, 84, 49
1, 9028, Note_on_c, 0, 87, 54
1, 9031, Note_on_c, 0, 89, 61
1, 9241, Note_on_c, 0, 94, 0
1, 9241, Note_on_c, 0, 85, 0
1, 9272, Control_c, 0, 64, 127
1, 9272, Control_c, 0, 64, 127
1, 9349, Note_on_c, 0, 89, 0
1, 9349, Note_on_c, 0, 82, 50
1, 9349, Note_on_c, 0, 85, 50
1, 9352, Note_on_c, 0, 89, 62
1, 9597, Note_on_c, 0, 87, 0
1, 9597, Note_on_c, 0, 84, 0
1, 9723, Note_on_c, 0, 85, 0
1, 9723, Note_on_c, 0, 77, 40
1, 9723, Note_on_c, 0, 82, 40
1, 9726, Note_on_c, 0, 85, 52
1, 9972, Note_on_c, 0, 89, 0
1, 9972, Note_on_c, 0, 82, 0
1, 10097, Note_on_c, 0, 82, 0
1, 10097, Note_on_c, 0, 73, 37
1, 10097, Note_on_c, 0, 77, 37
1, 10100, Note_on_c, 0, 70, 0
1, 10100, Note_on_c, 0, 73, 0
1, 10100, Note_on_c, 0, 82, 49
1, 10103, Note_on_c, 0, 77, 0
1, 10396, Note_on_c, 0, 77, 0
1, 10396, Note_on_c, 0, 85, 0
1, 10547, Note_on_c, 0, 77, 0
1, 10547, Note_on_c, 0, 70, 33
1, 10547, Note_on_c, 0, 73, 33
1, 10550, Note_on_c, 0, 77, 45
1, 10920, Note_on_c, 0, 73, 0
1, 10920, Note_on_c, 0, 82, 0
1, 11108, Control_c, 0, 64, 0
1, 11108, Control_c, 0, 64, 0
1, 11108, Control_c, 0, 64, 0
1, 11111, Note_on_c, 0, 44, 53
1, 11321, Note_on_c, 0, 73, 0
1, 11321, Note_on_c, 0, 77, 0
1, 11321, Note_on_c, 0, 70, 0
1, 11358, Control_c, 0, 64, 127
1, 11358, Control_c, 0, 64, 127
1, 11429, Note_on_c, 0, 54, 40
1, 11429, Note_on_c, 0, 58, 40
1, 11429, Note_on_c, 0, 61, 47
1, 11780, Note_on_c, 0, 60, 52
1, 11780, Note_on_c, 0, 65, 52
1, 11780, Note_on_c, 0, 68, 46
1, 11783, Note_on_c, 0, 37, 44
1, 11993, Note_on_c, 0, 61, 0
1, 11993, Note_on_c, 0, 58, 0
1, 11993, Note_on_c, 0, 54, 0
1, 12101, Note_on_c, 0, 58, 49
1, 12101, Note_on_c, 0, 61, 49
1, 12101, Note_on_c, 0, 63, 52
1, 12303, Note_on_c, 0, 65, 0
1, 12303, Note_on_c, 0, 60, 0
1, 12303, Note_on_c, 0, 68, 0
1, 12405, Note_on_c, 0, 68, 64
1, 12428, Note_on_c, 0, 58, 0
1, 12428, Note_on_c, 0, 63, 0
1, 12428, Note_on_c, 0, 61, 0
1, 12708, Note_on_c, 0, 66, 43
1, 12708, Note_on_c, 0, 70, 43
1, 12708, Note_on_c, 0, 73, 53
1, 12989, Note_on_c, 0, 72, 50
1, 12989, Note_on_c, 0, 77, 50
1, 12989, Note_on_c, 0, 80, 61
1, 13163, Note_on_c, 0, 73, 0
1, 13163, Note_on_c, 0, 66, 0
1, 13163, Note_on_c, 0, 70, 0
1, 13250, Note_on_c, 0, 70, 41
1, 13250, Note_on_c, 0, 73, 41
1, 13250, Note_on_c, 0, 75, 50
1, 13452, Note_on_c, 0, 77, 0
1, 13452, Note_on_c, 0, 80, 0
1, 13452, Note_on_c, 0, 72, 0
1, 13554, Control_c, 0, 64, 127
1, 13554, Note_on_c, 0, 78, 50
1, 13554, Note_on_c, 0, 82, 50
1, 13557, Note_on_c, 0, 85, 62
1, 13557, Control_c, 0, 64, 127
1, 13557, Control_c, 0, 64, 127
1, 13560, Note_on_c, 0, 37, 0
1, 13560, Note_on_c, 0, 44, 0
1, 13560, Note_on_c, 0, 65, 68
1, 13578, Note_on_c, 0, 70, 0
1, 13578, Note_on_c, 0, 75, 0
1, 13578, Note_on_c, 0, 73, 0
1, 13589, Note_on_c, 0, 68, 0
1, 13857, Note_on_c, 0, 84, 56
1, 13857, Note_on_c, 0, 89, 56
1, 13857, Note_on_c, 0, 92, 68
1, 13879, Note_on_c, 0, 78, 0
1, 13879, Note_on_c, 0, 82, 0
1, 13879, Note_on_c, 0, 85, 0
1, 14138, Note_on_c, 0, 82, 47
1, 14138, Note_on_c, 0, 85, 53
1, 14138, Note_on_c, 0, 87, 58
1, 14159, Note_on_c, 0, 84, 0
1, 14159, Note_on_c, 0, 92, 0
1, 14159, Note_on_c, 0, 89, 0
1, 14399, Note_on_c, 0, 72, 45
1, 14399, Note_on_c, 0, 77, 45
1, 14399, Note_on_c, 0, 80, 56
1, 14420, Note_on_c, 0, 82, 0
1, 14420, Note_on_c, 0, 87, 0
1, 14420, Note_on_c, 0, 85, 0
1, 14661, Note_on_c, 0, 70, 39
1, 14661, Note_on_c, 0, 73, 39
1, 14661, Note_on_c, 0, 75, 55
1, 14664, Note_on_c, 0, 63, 51
1, 14683, Note_on_c, 0, 72, 0
1, 14683, Note_on_c, 0, 80, 0
1, 14683, Note_on_c, 0, 77, 0
1, 14694, Note_on_c, 0, 65, 0
1, 14941, Note_on_c, 0, 60, 41
1, 14941, Note_on_c, 0, 65, 41
1, 14941, Note_on_c, 0, 68, 50
1, 14963, Note_on_c, 0, 70, 0
1, 14963, Note_on_c, 0, 73, 0
1, 14963, Note_on_c, 0, 75, 0
1, 15222, Note_on_c, 0, 58, 37
1, 15222, Note_on_c, 0, 61, 37
1, 15222, Note_on_c, 0, 63, 49
1, 15247, Note_on_c, 0, 60, 0
1, 15247, Note_on_c, 0, 68, 0
1, 15247, Note_on_c, 0, 65, 0
1, 15543, Note_on_c, 0, 54, 36
1, 15543, Note_on_c, 0, 44, 49
1, 15918, Note_on_c, 0, 54, 0
1, 15918, Note_on_c, 0, 58, 0
1, 15918, Control_c, 0, 64, 0
1, 15921, Note_on_c, 0, 63, 0
1, 15921, Note_on_c, 0, 61, 0
1, 15921, Control_c, 0, 64, 0
1, 15924, Note_on_c, 0, 63, 0
1, 15924, Note_on_c, 0, 37, 53
1, 16156, Control_c, 0, 64, 127
1, 16175, Control_c, 0, 64, 127
1, 16239, Note_on_c, 0, 53, 37
1, 16239, Note_on_c, 0, 56, 37
1, 16239, Note_on_c, 0, 63, 49
1, 16559, Note_on_c, 0, 61, 45
1, 16559, Note_on_c, 0, 65, 45
1, 16559, Note_on_c, 0, 70, 61
1, 16793, Note_on_c, 0, 63, 0
1, 16793, Note_on_c, 0, 56, 0
1, 16793, Note_on_c, 0, 53, 0
1, 16910, Note_on_c, 0, 65, 0
1, 16910, Note_on_c, 0, 60, 47
1, 16910, Note_on_c, 0, 63, 47
1, 16913, Note_on_c, 0, 65, 54
1, 17097, Note_on_c, 0, 61, 0
1, 17097, Note_on_c, 0, 70, 0
1, 17191, Note_on_c, 0, 65, 0
1, 17191, Note_on_c, 0, 58, 37
1, 17191, Note_on_c, 0, 61, 37
1, 17194, Note_on_c, 0, 65, 54
1, 17365, Note_on_c, 0, 60, 0
1, 17365, Note_on_c, 0, 63, 0
1, 17452, Note_on_c, 0, 65, 0
1, 17452, Note_on_c, 0, 65, 51
1, 17452, Note_on_c, 0, 68, 51
1, 17455, Note_on_c, 0, 75, 63
1, 17639, Note_on_c, 0, 58, 0
1, 17639, Note_on_c, 0, 61, 0
1, 17733, Note_on_c, 0, 73, 54
1, 17733, Note_on_c, 0, 77, 54
1, 17733, Note_on_c, 0, 82, 66
1, 17935, Note_on_c, 0, 68, 0
1, 17935, Note_on_c, 0, 65, 0
1, 17935, Note_on_c, 0, 75, 0
1, 18037, Note_on_c, 0, 77, 0
1, 18037, Note_on_c, 0, 72, 44
1, 18037, Note_on_c, 0, 75, 58
1, 18040, Note_on_c, 0, 77, 56
1, 18223, Note_on_c, 0, 82, 0
1, 18223, Note_on_c, 0, 73, 0
1, 18318, Note_on_c, 0, 77, 0
1, 18318, Control_c, 0, 64, 127
1, 18318, Control_c, 0, 64, 127
1, 18321, Note_on_c, 0, 37, 0
1, 18321, Note_on_c, 0, 44, 0
1, 18321, Note_on_c, 0, 70, 51
1, 18324, Note_on_c, 0, 73, 51
1, 18324, Note_on_c, 0, 77, 63
1, 18551, Note_on_c, 0, 75, 0
1, 18551, Note_on_c, 0, 72, 0
1, 18669, Note_on_c, 0, 77, 52
1, 18669, Note_on_c, 0, 80, 52
1, 18669, Note_on_c, 0, 87, 64
1, 18990, Note_on_c, 0, 85, 57
1, 18990, Note_on_c, 0, 89, 57
1, 18990, Note_on_c, 0, 94, 69
1, 19238, Note_on_c, 0, 87, 0
1, 19238, Note_on_c, 0, 77, 0
1, 19238, Note_on_c, 0, 80, 0
1, 19364, Note_on_c, 0, 89, 0
1, 19364, Note_on_c, 0, 84, 49
1, 19364, Note_on_c, 0, 87, 54
1, 19367, Note_on_c, 0, 89, 61
1, 19597, Note_on_c, 0, 94, 0
1, 19597, Note_on_c, 0, 85, 0
1, 19715, Note_on_c, 0, 89, 0
1, 19715, Note_on_c, 0, 82, 50
1, 19715, Note_on_c, 0, 85, 50
1, 19718, Note_on_c, 0, 89, 62
1, 19964, Note_on_c, 0, 87, 0
1, 19964, Note_on_c, 0, 84, 0
1, 20089, Note_on_c, 0, 85, 0
1, 20089, Note_on_c, 0, 77, 40
1, 20089, Note_on_c, 0, 82, 40
1, 20092, Note_on_c, 0, 85, 52
1, 20366, Note_on_c, 0, 89, 0
1, 20366, Note_on_c, 0, 82, 0
1, 20505, Note_on_c, 0, 82, 0
1, 20505, Note_on_c, 0, 73, 37
1, 20505, Note_on_c, 0, 77, 37
1, 20508, Note_on_c, 0, 70, 0
1, 20508, Note_on_c, 0, 73, 0
1, 20508, Note_on_c, 0, 82, 49
1, 20511, Note_on_c, 0, 77, 0
1, 20804, Note_on_c, 0, 77, 0
1, 20804, Note_on_c, 0, 85, 0
1, 20955, Note_on_c, 0, 77, 0
1, 20955, Note_on_c, 0, 70, 33
1, 20955, Note_on_c, 0, 73, 33
1, 20958, Note_on_c, 0, 77, 45
1, 21328, Note_on_c, 0, 73, 0
1, 21328, Note_on_c, 0, 82, 0
1, 21516, Control_c, 0, 64, 0
1, 21516, Control_c, 0, 64, 0
1, 21516, Control_c, 0, 64, 0
1, 21519, Control_c, 0, 64, 0
1, 21519, Control_c, 0, 64, 0
1, 21519, Control_c, 0, 64, 0
1, 21522, Control_c, 0, 64, 0
1, 21522, Control_c, 0, 64, 0
1, 21522, Control_c, 0, 64, 0
1, 21786, Control_c, 0, 64, 0
1, 21786, Control_c, 0, 64, 0
1, 21786, Control_c, 0, 64, 0
1, 21789, Control_c, 0, 64, 0
1, 21789, Control_c, 0, 64, 0
1, 21889, Note_on_c, 0, 73, 0
1, 21889, Note_on_c, 0, 70, 0
1, 21889, Note_on_c, 0, 77, 0
1, 22078, Note_on_c, 0, 54, 47
1, 22078, Note_on_c, 0, 60, 42
1, 22078, Note_on_c, 0, 65, 55
1, 22081, Note_on_c, 0, 32, 37
1, 22081, Note_on_c, 0, 44, 44
1, 22222, Control_c, 0, 64, 127
1, 22222, Control_c, 0, 64, 127
1, 22222, Control_c, 0, 64, 127
1, 22225, Control_c, 0, 64, 127
1, 22225, Control_c, 0, 64, 127
1, 22399, Note_on_c, 0, 55, 49
1, 22399, Note_on_c, 0, 61, 50
1, 22399, Note_on_c, 0, 63, 63
1, 22402, Note_on_c, 0, 33, 46
1, 22402, Note_on_c, 0, 45, 53
1, 22471, Note_on_c, 0, 65, 0
1, 22471, Note_on_c, 0, 54, 0
1, 22471, Note_on_c, 0, 60, 0
1, 22474, Note_on_c, 0, 32, 0
1, 22474, Note_on_c, 0, 44, 0
1, 22585, Control_c, 0, 64, 0
1, 22585, Control_c, 0, 64, 0
1, 22585, Control_c, 0, 64, 0
1, 22588, Control_c, 0, 64, 0
1, 22588, Control_c, 0, 64, 0
1, 22642, Control_c, 0, 64, 127
1, 22642, Control_c, 0, 64, 127
1, 22642, Control_c, 0, 64, 127
1, 22645, Control_c, 0, 64, 127
1, 22680, Note_on_c, 0, 56, 50
1, 22680, Note_on_c, 0, 62, 51
1, 22680, Note_on_c, 0, 70, 65
1, 22683, Note_on_c, 0, 34, 50
1, 22683, Note_on_c, 0, 46, 57
1, 22770, Note_on_c, 0, 61, 0
1, 22770, Note_on_c, 0, 63, 0
1, 22770, Note_on_c, 0, 55, 0
1, 22773, Note_on_c, 0, 33, 0
1, 22773, Note_on_c, 0, 45, 0
1, 22926, Control_c, 0, 64, 0
1, 22926, Control_c, 0, 64, 0
1, 22926, Control_c, 0, 64, 0
1, 22929, Control_c, 0, 64, 0
1, 23031, Note_on_c, 0, 57, 52
1, 23031, Note_on_c, 0, 63, 43
1, 23031, Note_on_c, 0, 68, 56
1, 23034, Note_on_c, 0, 35, 37
1, 23034, Note_on_c, 0, 47, 44
1, 23138, Note_on_c, 0, 62, 0
1, 23138, Note_on_c, 0, 70, 0
1, 23138, Note_on_c, 0, 56, 0
1, 23141, Note_on_c, 0, 34, 0
1, 23141, Note_on_c, 0, 46, 0
1, 23447, Note_on_c, 0, 92, 70
1, 23452, Control_c, 0, 64, 127
1, 23452, Control_c, 0, 64, 127
1, 23452, Control_c, 0, 64, 127
1, 23455, Control_c, 0, 64, 127
1, 23767, Note_on_c, 0, 87, 64
1, 23846, Note_on_c, 0, 92, 0
1, 24071, Note_on_c, 0, 80, 57
1, 24153, Control_c, 0, 64, 127
1, 24153, Control_c, 0, 64, 127
1, 24375, Note_on_c, 0, 75, 53
1, 24375, Control_c, 0, 64, 0
1, 24375, Control_c, 0, 64, 0
1, 24708, Control_c, 0, 64, 0
1, 24708, Control_c, 0, 64, 0
1, 24824, Note_on_c, 0, 68, 0
1, 24824, Note_on_c, 0, 63, 0
1, 24824, Note_on_c, 0, 57, 0
1, 24827, Note_on_c, 0, 75, 0
1, 24827, Note_on_c, 0, 87, 0
1, 24827, Note_on_c, 0, 80, 0
1, 24830, Note_on_c, 0, 35, 0
1, 24830, Note_on_c, 0, 47, 0
1, 24830, Note_on_c, 0, 32, 40
1, 24833, Note_on_c, 0, 44, 40
1, 24852, Control_c, 0, 64, 127
1, 24852, Control_c, 0, 64, 127
1, 24852, Control_c, 0, 64, 127
1, 24912, Note_on_c, 0, 54, 47
1, 24912, Note_on_c, 0, 60, 45
1, 24912, Note_on_c, 0, 65, 65
1, 25097, Control_c, 0, 64, 0
1, 25097, Control_c, 0, 64, 0
1, 25097, Control_c, 0, 64, 0
1, 25198, Note_on_c, 0, 55, 49
1, 25198, Note_on_c, 0, 61, 52
1, 25198, Note_on_c, 0, 63, 72
1, 25201, Note_on_c, 0, 33, 47
1, 25201, Note_on_c, 0, 45, 47
1, 25240, Control_c, 0, 64, 127
1, 25240, Control_c, 0, 64, 127
1, 25240, Control_c, 0, 64, 127
1, 25271, Note_on_c, 0, 65, 0
1, 25271, Note_on_c, 0, 60, 0
1, 25271, Note_on_c, 0, 54, 0
1, 25274, Note_on_c, 0, 32, 0
1, 25274, Note_on_c, 0, 44, 0
1, 25479, Note_on_c, 0, 56, 50
1, 25479, Note_on_c, 0, 62, 53
1, 25479, Note_on_c, 0, 70, 74
1, 25482, Note_on_c, 0, 34, 50
1, 25482, Note_on_c, 0, 46, 50
1, 25507, Control_c, 0, 64, 0
1, 25507, Control_c, 0, 64, 0
1, 25507, Control_c, 0, 64, 0
1, 25546, Note_on_c, 0, 55, 0
1, 25546, Note_on_c, 0, 63, 0
1, 25546, Note_on_c, 0, 61, 0
1, 25549, Note_on_c, 0, 33, 0
1, 25549, Note_on_c, 0, 45, 0
1, 25616, Control_c, 0, 64, 127
1, 25616, Control_c, 0, 64, 127
1, 25616, Control_c, 0, 64, 127
1, 25740, Note_on_c, 0, 57, 52
1, 25740, Note_on_c, 0, 63, 52
1, 25740, Note_on_c, 0, 68, 73
1, 25743, Note_on_c, 0, 35, 49
1, 25743, Note_on_c, 0, 47, 49
1, 25823, Note_on_c, 0, 62, 0
1, 25823, Note_on_c, 0, 70, 0
1, 25823, Note_on_c, 0, 56, 0
1, 25826, Note_on_c, 0, 34, 0
1, 25826, Note_on_c, 0, 46, 0
1, 25853, Control_c, 0, 64, 0
1, 25853, Control_c, 0, 64, 0
1, 25853, Control_c, 0, 64, 0
1, 26024, Control_c, 0, 64, 127
1, 26024, Control_c, 0, 64, 127
1, 26024, Control_c, 0, 64, 127
1, 26061, Note_on_c, 0, 58, 53
1, 26061, Note_on_c, 0, 64, 51
1, 26061, Note_on_c, 0, 72, 73
1, 26064, Note_on_c, 0, 36, 48
1, 26064, Note_on_c, 0, 48, 48
1, 26168, Note_on_c, 0, 63, 0
1, 26168, Note_on_c, 0, 68, 0
1, 26168, Note_on_c, 0, 57, 0
1, 26171, Note_on_c, 0, 35, 0
1, 26171, Note_on_c, 0, 47, 0
1, 26256, Control_c, 0, 64, 0
1, 26256, Control_c, 0, 64, 0
1, 26256, Control_c, 0, 64, 0
1, 26453, Control_c, 0, 64, 127
1, 26453, Control_c, 0, 64, 127
1, 26453, Control_c, 0, 64, 127
1, 26477, Note_on_c, 0, 59, 55
1, 26477, Note_on_c, 0, 65, 40
1, 26477, Note_on_c, 0, 70, 62
1, 26480, Note_on_c, 0, 37, 40
1, 26480, Note_on_c, 0, 49, 40
1, 26574, Note_on_c, 0, 64, 0
1, 26574, Note_on_c, 0, 72, 0
1, 26574, Note_on_c, 0, 58, 0
1, 26577, Note_on_c, 0, 36, 0
1, 26577, Note_on_c, 0, 48, 0
1, 26698, Control_c, 0, 64, 0
1, 26698, Control_c, 0, 64, 0
1, 26698, Control_c, 0, 64, 0
1, 26852, Note_on_c, 0, 94, 66
1, 26973, Control_c, 0, 64, 127
1, 26993, Control_c, 0, 64, 127
1, 27226, Note_on_c, 0, 65, 0
1, 27226, Control_c, 0, 64, 127
1, 27226, Note_on_c, 0, 89, 64
1, 27229, Control_c, 0, 64, 127
1, 27309, Note_on_c, 0, 94, 0
1, 27547, Note_on_c, 0, 89, 0
1, 27547, Note_on_c, 0, 82, 61
1, 27850, Note_on_c, 0, 82, 0
1, 27850, Note_on_c, 0, 77, 58
1, 28131, Note_on_c, 0, 77, 0
1, 28131, Note_on_c, 0, 70, 56
1, 28412, Note_on_c, 0, 70, 0
1, 28412, Note_on_c, 0, 65, 53
1, 28640, Control_c, 0, 64, 0
1, 28640, Control_c, 0, 64, 0
1, 28733, Note_on_c, 0, 58, 47
1, 28733, Note_on_c, 0, 61, 47
1, 28733, Note_on_c, 0, 63, 67
1, 28736, Note_on_c, 0, 42, 39
1, 28787, Note_on_c, 0, 65, 0
1, 28787, Note_on_c, 0, 70, 0
1, 28787, Note_on_c, 0, 59, 0
1, 28790, Note_on_c, 0, 37, 0
1, 28816, Control_c, 0, 64, 127
1, 28816, Control_c, 0, 64, 127
1, 29149, Control_c, 0, 64, 127
1, 29149, Note_on_c, 0, 60, 48
1, 29149, Note_on_c, 0, 65, 48
1, 29152, Note_on_c, 0, 70, 74
1, 29152, Control_c, 0, 64, 127
1, 29152, Control_c, 0, 64, 0
1, 29155, Note_on_c, 0, 42, 0
1, 29155, Note_on_c, 0, 49, 0
1, 29155, Note_on_c, 0, 44, 52
1, 29158, Note_on_c, 0, 54, 52
1, 29207, Note_on_c, 0, 61, 0
1, 29207, Note_on_c, 0, 58, 0
1, 29207, Note_on_c, 0, 63, 0
1, 29363, Control_c, 0, 64, 0
1, 29363, Control_c, 0, 64, 0
1, 29551, Control_c, 0, 64, 127
1, 29551, Control_c, 0, 64, 127
1, 29598, Note_on_c, 0, 65, 62
1, 29919, Note_on_c, 0, 65, 0
1, 29919, Note_on_c, 0, 58, 57
1, 30294, Note_on_c, 0, 58, 0
1, 30294, Note_on_c, 0, 60, 53
1, 30294, Note_on_c, 0, 72, 37
1, 30297, Note_on_c, 0, 77, 70
1, 30614, Note_on_c, 0, 77, 0
1, 30614, Note_on_c, 0, 72, 0
1, 30614, Note_on_c, 0, 60, 0
1, 30617, Note_on_c, 0, 94, 77
1, 30965, Note_on_c, 0, 94, 0
1, 30965, Note_on_c, 0, 89, 72
1, 31286, Note_on_c, 0, 89, 0
1, 31286, Note_on_c, 0, 72, 53
1, 31286, Note_on_c, 0, 77, 62
1, 31702, Note_on_c, 0, 77, 0
1, 31702, Note_on_c, 0, 72, 0
1, 31702, Note_on_c, 0, 70, 52
1, 32088, Note_on_c, 0, 38, 43
1, 32176, Note_on_c, 0, 43, 43
1, 32264, Note_on_c, 0, 60, 0
1, 32264, Note_on_c, 0, 65, 0
1, 32264, Control_c, 0, 64, 127
1, 32267, Note_on_c, 0, 70, 0
1, 32267, Note_on_c, 0, 70, 0
1, 32267, Note_on_c, 0, 65, 50
1, 32270, Note_on_c, 0, 70, 57
1, 32270, Note_on_c, 0, 60, 50
1, 32270, Control_c, 0, 64, 127
1, 32273, Note_on_c, 0, 54, 0
1, 32273, Note_on_c, 0, 44, 0
1, 32273, Note_on_c, 0, 53, 43
1, 32638, Note_on_c, 0, 60, 0
1, 32638, Note_on_c, 0, 62, 50
1, 32959, Note_on_c, 0, 62, 0
1, 32959, Note_on_c, 0, 58, 51
1, 33240, Note_on_c, 0, 58, 0
1, 33240, Note_on_c, 0, 60, 45
1, 33240, Note_on_c, 0, 67, 52
1, 33521, Note_on_c, 0, 67, 0
1, 33521, Note_on_c, 0, 60, 0
1, 33521, Note_on_c, 0, 72, 55
1, 33524, Note_on_c, 0, 77, 55
1, 33524, Note_on_c, 0, 82, 49
1, 33895, Note_on_c, 0, 74, 52
1, 34216, Note_on_c, 0, 70, 49
1, 34632, Note_on_c, 0, 74, 0
1, 34632, Note_on_c, 0, 72, 0
1, 34632, Note_on_c, 0, 70, 0
1, 34635, Note_on_c, 0, 82, 0
1, 34635, Note_on_c, 0, 77, 0
1, 34635, Note_on_c, 0, 72, 46
1, 34638, Note_on_c, 0, 79, 46
1, 35194, Note_on_c, 0, 65, 0
1, 35194, Note_on_c, 0, 70, 0
1, 35194, Control_c, 0, 64, 0
1, 35197, Note_on_c, 0, 72, 0
1, 35197, Note_on_c, 0, 79, 0
1, 35197, Note_on_c, 0, 66, 53
1, 35200, Note_on_c, 0, 70, 71
1, 35200, Note_on_c, 0, 59, 54
1, 35200, Control_c, 0, 64, 0
1, 35203, Note_on_c, 0, 38, 0
1, 35203, Note_on_c, 0, 43, 0
1, 35203, Control_c, 0, 64, 0
1, 35206, Note_on_c, 0, 53, 0
1, 35206, Note_on_c, 0, 50, 49
1, 35568, Note_on_c, 0, 65, 49
1, 35568, Note_on_c, 0, 68, 68
1, 35606, Note_on_c, 0, 66, 0
1, 35606, Note_on_c, 0, 70, 0
1, 35611, Control_c, 0, 64, 127
1, 35611, Control_c, 0, 64, 127
1, 35889, Note_on_c, 0, 68, 0
1, 35889, Note_on_c, 0, 57, 54
1, 35889, Note_on_c, 0, 64, 53
1, 35892, Note_on_c, 0, 68, 71
1, 35892, Note_on_c, 0, 47, 50
1, 35925, Note_on_c, 0, 65, 0
1, 35925, Note_on_c, 0, 59, 0
1, 35928, Note_on_c, 0, 50, 0
1, 35971, Control_c, 0, 64, 0
1, 35971, Control_c, 0, 64, 0
1, 36193, Note_on_c, 0, 63, 52
1, 36193, Note_on_c, 0, 66, 69
1, 36228, Note_on_c, 0, 64, 0
1, 36228, Note_on_c, 0, 68, 0
1, 36496, Note_on_c, 0, 54, 51
1, 36496, Note_on_c, 0, 61, 50
1, 36496, Note_on_c, 0, 65, 67
1, 36499, Note_on_c, 0, 45, 48
1, 36537, Note_on_c, 0, 57, 0
1, 36537, Note_on_c, 0, 63, 0
1, 36537, Note_on_c, 0, 66, 0
1, 36542, Note_on_c, 0, 47, 0
1, 36847, Note_on_c, 0, 60, 49
1, 36847, Note_on_c, 0, 63, 65
1, 36883, Note_on_c, 0, 61, 0
1, 36883, Note_on_c, 0, 65, 0
1, 36901, Control_c, 0, 64, 127
1, 36901, Control_c, 0, 64, 127
1, 37151, Note_on_c, 0, 63, 0
1, 37151, Note_on_c, 0, 52, 48
1, 37151, Note_on_c, 0, 59, 47
1, 37154, Note_on_c, 0, 63, 64
1, 37154, Note_on_c, 0, 42, 43
1, 37195, Note_on_c, 0, 60, 0
1, 37195, Note_on_c, 0, 54, 0
1, 37199, Note_on_c, 0, 45, 0
1, 37239, Control_c, 0, 64, 0
1, 37239, Control_c, 0, 64, 0
1, 37525, Note_on_c, 0, 58, 46
1, 37525, Note_on_c, 0, 61, 62
1, 37578, Note_on_c, 0, 59, 0
1, 37578, Note_on_c, 0, 63, 0
1, 37681, Control_c, 0, 64, 127
1, 37681, Control_c, 0, 64, 127
1, 37975, Note_on_c, 0, 61, 0
1, 37975, Control_c, 0, 64, 127
1, 37975, Note_on_c, 0, 49, 44
1, 37978, Note_on_c, 0, 54, 44
1, 37978, Note_on_c, 0, 57, 44
1, 37978, Note_on_c, 0, 61, 59
1, 37981, Control_c, 0, 64, 127
1, 37981, Note_on_c, 0, 39, 45
1, 37981, Note_on_c, 0, 44, 45
1, 38027, Note_on_c, 0, 58, 0
1, 38027, Note_on_c, 0, 52, 0
1, 38032, Note_on_c, 0, 42, 0
1, 38082, Control_c, 0, 64, 0
1, 38082, Control_c, 0, 64, 0
1, 38257, Control_c, 0, 64, 127
1, 38257, Control_c, 0, 64, 127
1, 38424, Note_on_c, 0, 56, 53
1, 38798, Note_on_c, 0, 56, 0
1, 38798, Note_on_c, 0, 61, 53
1, 38798, Note_on_c, 0, 63, 59
1, 39119, Note_on_c, 0, 66, 57
1, 39400, Note_on_c, 0, 66, 0
1, 39400, Note_on_c, 0, 68, 53
1, 39681, Note_on_c, 0, 68, 0
1, 39681, Note_on_c, 0, 73, 41
1, 39681, Note_on_c, 0, 75, 52
1, 40002, Note_on_c, 0, 75, 0
1, 40002, Note_on_c, 0, 73, 0
1, 40002, Note_on_c, 0, 78, 49
1, 40451, Note_on_c, 0, 78, 0
1, 40451, Note_on_c, 0, 80, 47
1, 41012, Note_on_c, 0, 54, 0
1, 41012, Note_on_c, 0, 49, 0
1, 41012, Control_c, 0, 64, 0
1, 41015, Note_on_c, 0, 80, 0
1, 41015, Note_on_c, 0, 57, 0
1, 41015, Note_on_c, 0, 61, 0
1, 41018, Note_on_c, 0, 87, 50
1, 41018, Note_on_c, 0, 94, 50
1, 41018, Note_on_c, 0, 99, 65
1, 41021, Note_on_c, 0, 39, 0
1, 41021, Control_c, 0, 64, 0
1, 41021, Control_c, 0, 64, 0
1, 41024, Note_on_c, 0, 44, 0
1, 41024, Note_on_c, 0, 63, 0
1, 41024, Note_on_c, 0, 61, 0
1, 41027, Note_on_c, 0, 25, 41
1, 41027, Note_on_c, 0, 37, 37
1, 41184, Control_c, 0, 64, 127
1, 41184, Control_c, 0, 64, 127
1, 41387, Note_on_c, 0, 85, 51
1, 41387, Note_on_c, 0, 92, 51
1, 41387, Note_on_c, 0, 97, 64
1, 41390, Control_c, 0, 64, 127
1, 41390, Note_on_c, 0, 27, 42
1, 41390, Note_on_c, 0, 39, 38
1, 41390, Control_c, 0, 64, 127
1, 41426, Note_on_c, 0, 99, 0
1, 41426, Note_on_c, 0, 94, 0
1, 41426, Note_on_c, 0, 87, 0
1, 41429, Note_on_c, 0, 25, 0
1, 41429, Note_on_c, 0, 37, 0
1, 41482, Control_c, 0, 64, 0
1, 41628, Control_c, 0, 64, 127
1, 41690, Note_on_c, 0, 82, 52
1, 41690, Note_on_c, 0, 87, 52
1, 41690, Note_on_c, 0, 94, 65
1, 41693, Note_on_c, 0, 29, 44
1, 41693, Note_on_c, 0, 41, 40
1, 41724, Note_on_c, 0, 92, 0
1, 41724, Note_on_c, 0, 97, 0
1, 41724, Note_on_c, 0, 85, 0
1, 41727, Note_on_c, 0, 27, 0
1, 41727, Note_on_c, 0, 39, 0
1, 41823, Control_c, 0, 64, 127
1, 41823, Control_c, 0, 64, 127
1, 41952, Note_on_c, 0, 80, 54
1, 41952, Note_on_c, 0, 85, 54
1, 41952, Note_on_c, 0, 92, 67
1, 41955, Note_on_c, 0, 32, 46
1, 41955, Note_on_c, 0, 44, 41
1, 41984, Note_on_c, 0, 87, 0
1, 41984, Note_on_c, 0, 94, 0
1, 41984, Note_on_c, 0, 82, 0
1, 41987, Note_on_c, 0, 29, 0
1, 41987, Note_on_c, 0, 41, 0
1, 42156, Control_c, 0, 64, 127
1, 42156, Control_c, 0, 64, 127
1, 42201, Note_on_c, 0, 75, 54
1, 42201, Note_on_c, 0, 82, 54
1, 42201, Note_on_c, 0, 87, 68
1, 42204, Note_on_c, 0, 34, 49
1, 42204, Note_on_c, 0, 46, 44
1, 42216, Control_c, 0, 64, 0
1, 42233, Note_on_c, 0, 85, 0
1, 42233, Note_on_c, 0, 92, 0
1, 42233, Note_on_c, 0, 80, 0
1, 42236, Note_on_c, 0, 32, 0
1, 42236, Note_on_c, 0, 44, 0
1, 42363, Control_c, 0, 64, 127
1, 42451, Note_on_c, 0, 73, 56
1, 42451, Note_on_c, 0, 80, 56
1, 42451, Note_on_c, 0, 85, 70
1, 42454, Note_on_c, 0, 37, 50
1, 42454, Note_on_c, 0, 49, 45
1, 42483, Note_on_c, 0, 82, 0
1, 42483, Note_on_c, 0, 87, 0
1, 42483, Note_on_c, 0, 75, 0
1, 42486, Note_on_c, 0, 34, 0
1, 42486, Note_on_c, 0, 46, 0
1, 42524, Control_c, 0, 64, 127
1, 42524, Control_c, 0, 64, 127
1, 42700, Note_on_c, 0, 70, 57
1, 42700, Note_on_c, 0, 75, 57
1, 42700, Note_on_c, 0, 82, 73
1, 42703, Note_on_c, 0, 39, 52
1, 42703, Note_on_c, 0, 51, 47
1, 42733, Note_on_c, 0, 80, 0
1, 42733, Note_on_c, 0, 85, 0
1, 42733, Note_on_c, 0, 73, 0
1, 42736, Note_on_c, 0, 37, 0
1, 42736, Note_on_c, 0, 49, 0
1, 42848, Control_c, 0, 64, 127
1, 42848, Control_c, 0, 64, 127
1, 42906, Control_c, 0, 64, 0
1, 42950, Note_on_c, 0, 68, 52
1, 42950, Note_on_c, 0, 73, 52
1, 42950, Note_on_c, 0, 80, 68
1, 42953, Note_on_c, 0, 41, 55
1, 42953, Note_on_c, 0, 53, 49
1, 42986, Note_on_c, 0, 75, 0
1, 42986, Note_on_c, 0, 82, 0
1, 42986, Note_on_c, 0, 70, 0
1, 42989, Note_on_c, 0, 39, 0
1, 42989, Note_on_c, 0, 51, 0
1, 43065, Control_c, 0, 64, 127
1, 43231, Note_on_c, 0, 68, 0
1, 43231, Control_c, 0, 64, 127
1, 43231, Note_on_c, 0, 63, 52
1, 43234, Note_on_c, 0, 68, 52
1, 43234, Note_on_c, 0, 75, 68
1, 43234, Control_c, 0, 64, 127
1, 43237, Control_c, 0, 64, 0
1, 43237, Note_on_c, 0, 44, 56
1, 43237, Note_on_c, 0, 51, 50
1, 43240, Note_on_c, 0, 56, 50
1, 43272, Note_on_c, 0, 73, 0
1, 43272, Note_on_c, 0, 80, 0
1, 43272, Note_on_c, 0, 41, 0
1, 43275, Note_on_c, 0, 53, 0
1, 43441, Control_c, 0, 64, 0
1, 43441, Control_c, 0, 64, 0
1, 43552, Note_on_c, 0, 61, 49
1, 43552, Note_on_c, 0, 70, 63
1, 43552, Note_on_c, 0, 73, 63
1, 43555, Control_c, 0, 64, 127
1, 43555, Note_on_c, 0, 46, 50
1, 43555, Note_on_c, 0, 53, 50
1, 43555, Note_on_c, 0, 58, 50
1, 43555, Control_c, 0, 64, 127
1, 43588, Note_on_c, 0, 75, 0
1, 43588, Note_on_c, 0, 63, 0
1, 43588, Note_on_c, 0, 68, 0
1, 43591, Note_on_c, 0, 56, 0
1, 43591, Note_on_c, 0, 44, 0
1, 43591, Note_on_c, 0, 51, 0
1, 43657, Control_c, 0, 64, 127
1, 43657, Control_c, 0, 64, 127
1, 43833, Note_on_c, 0, 63, 47
1, 43833, Note_on_c, 0, 68, 60
1, 43833, Note_on_c, 0, 75, 60
1, 43836, Note_on_c, 0, 44, 46
1, 43836, Note_on_c, 0, 51, 46
1, 43836, Note_on_c, 0, 56, 46
1, 43874, Note_on_c, 0, 73, 0
1, 43874, Note_on_c, 0, 70, 0
1, 43874, Note_on_c, 0, 61, 0
1, 43877, Note_on_c, 0, 58, 0
1, 43877, Note_on_c, 0, 46, 0
1, 43877, Note_on_c, 0, 53, 0
1, 44154, Note_on_c, 0, 65, 53
1, 44154, Note_on_c, 0, 72, 65
1, 44154, Note_on_c, 0, 77, 65
1, 44157, Note_on_c, 0, 41, 39
1, 44157, Note_on_c, 0, 48, 39
1, 44157, Note_on_c, 0, 53, 39
1, 44211, Note_on_c, 0, 75, 0
1, 44211, Note_on_c, 0, 68, 0
1, 44211, Note_on_c, 0, 63, 0
1, 44214, Note_on_c, 0, 56, 0
1, 44214, Note_on_c, 0, 44, 0
1, 44214, Note_on_c, 0, 51, 0
1, 44308, Control_c, 0, 64, 0
1, 44308, Control_c, 0, 64, 0
1, 44469, Control_c, 0, 64, 127
1, 44469, Control_c, 0, 64, 127
1, 44603, Note_on_c, 0, 84, 48
1, 44603, Note_on_c, 0, 86, 48
1, 44603, Note_on_c, 0, 96, 70
1, 44606, Note_on_c, 0, 29, 45
1, 44606, Note_on_c, 0, 36, 40
1, 44898, Control_c, 0, 64, 127
1, 45352, Note_on_c, 0, 96, 0
1, 45352, Note_on_c, 0, 86, 0
1, 45352, Note_on_c, 0, 84, 0
1, 45355, Note_on_c, 0, 29, 0
1, 45355, Note_on_c, 0, 60, 46
1, 45355, Note_on_c, 0, 62, 53
1, 45358, Note_on_c, 0, 36, 0
1, 45358, Note_on_c, 0, 48, 46
1, 45358, Note_on_c, 0, 50, 46
1, 45827, Control_c, 0, 64, 127
1, 46099, Note_on_c, 0, 53, 0
1, 46099, Note_on_c, 0, 77, 0
1, 46099, Note_on_c, 0, 41, 0
1, 46099, Note_on_c, 0, 65, 0
1, 46099, Note_on_c, 0, 72, 0
1, 46099, Note_on_c, 0, 48, 0
1, 46099, Control_c, 0, 64, 127
1, 46099, Control_c, 0, 64, 127
1, 47598, Note_on_c, 0, 62, 0
1, 47598, Note_on_c, 0, 48, 0
1, 47598, Note_on_c, 0, 60, 0
1, 47601, Note_on_c, 0, 50, 0
1, 47601, Note_on_c, 0, 53, 44
1, 47635, Control_c, 0, 64, 0
1, 47635, Control_c, 0, 64, 0
1, 47692, Note_on_c, 0, 56, 50
1, 47708, Control_c, 0, 64, 0
1, 47708, Control_c, 0, 64, 0
1, 47766, Note_on_c, 0, 59, 55
1, 47829, Note_on_c, 0, 63, 61
1, 47882, Control_c, 0, 64, 127
1, 47882, Control_c, 0, 64, 127
1, 47892, Note_on_c, 0, 63, 0
1, 47892, Note_on_c, 0, 68, 65
1, 47953, Note_on_c, 0, 68, 0
1, 47953, Note_on_c, 0, 65, 68
1, 47975, Control_c, 0, 64, 127
1, 48016, Note_on_c, 0, 65, 0
1, 48016, Note_on_c, 0, 61, 72
1, 48162, Control_c, 0, 64, 0
1, 48162, Control_c, 0, 64, 0
1, 48374, Control_c, 0, 64, 127
1, 48374, Control_c, 0, 64, 127
1, 49120, Control_c, 0, 64, 0
1, 49139, Note_on_c, 0, 84, 43
1, 49139, Note_on_c, 0, 89, 43
1, 49139, Note_on_c, 0, 96, 55
1, 49142, Control_c, 0, 64, 0
1, 49142, Note_on_c, 0, 29, 53
1, 49142, Note_on_c, 0, 36, 45
1, 49145, Note_on_c, 0, 41, 45
1, 49174, Note_on_c, 0, 61, 0
1, 49174, Note_on_c, 0, 53, 0
1, 49174, Note_on_c, 0, 56, 0
1, 49177, Note_on_c, 0, 59, 0
1, 49520, Control_c, 0, 64, 127
1, 49520, Control_c, 0, 64, 127
1, 50038, Note_on_c, 0, 96, 0
1, 50038, Note_on_c, 0, 84, 0
1, 50038, Note_on_c, 0, 89, 0
1, 50041, Note_on_c, 0, 29, 0
1, 50041, Note_on_c, 0, 60, 43
1, 50041, Note_on_c, 0, 62, 52
1, 50044, Note_on_c, 0, 36, 0
1, 50044, Note_on_c, 0, 41, 0
1, 50044, Note_on_c, 0, 48, 43
1, 50047, Note_on_c, 0, 50, 46
1, 51535, Note_on_c, 0, 48, 0
1, 51535, Note_on_c, 0, 62, 0
1, 51535, Note_on_c, 0, 60, 0
1, 51538, Note_on_c, 0, 50, 0
1, 51538, Note_on_c, 0, 53, 49
1, 51661, Note_on_c, 0, 56, 54
1, 51753, Note_on_c, 0, 59, 58
1, 51760, Control_c, 0, 64, 0
1, 51760, Control_c, 0, 64, 0
1, 51829, Note_on_c, 0, 63, 53
1, 51892, Control_c, 0, 64, 127
1, 51892, Control_c, 0, 64, 127
1, 51904, Note_on_c, 0, 63, 0
1, 51904, Note_on_c, 0, 68, 57
1, 51978, Note_on_c, 0, 68, 0
1, 51978, Note_on_c, 0, 65, 60
1, 52053, Note_on_c, 0, 65, 0
1, 52053, Note_on_c, 0, 61, 64
1, 53177, Note_on_c, 0, 61, 0
1, 53177, Control_c, 0, 64, 0
1, 53177, Control_c, 0, 64, 0
1, 53180, Note_on_c, 0, 56, 0
1, 53180, Note_on_c, 0, 53, 0
1, 53180, Control_c, 0, 64, 0
1, 53183, Note_on_c, 0, 59, 0
1, 53183, Note_on_c, 0, 53, 52
1, 53262, Control_c, 0, 64, 127
1, 53262, Control_c, 0, 64, 127
1, 53301, Note_on_c, 0, 59, 50
1, 53409, Note_on_c, 0, 59, 0
1, 53409, Note_on_c, 0, 63, 56
1, 53502, Note_on_c, 0, 63, 0
1, 53502, Note_on_c, 0, 68, 60
1, 53595, Note_on_c, 0, 68, 0
1, 53595, Note_on_c, 0, 65, 56
1, 53690, Note_on_c, 0, 65, 0
1, 53690, Note_on_c, 0, 61, 51
1, 53783, Note_on_c, 0, 61, 0
1, 53783, Note_on_c, 0, 53, 0
1, 53783, Note_on_c, 0, 56, 56
1, 53819, Control_c, 0, 64, 0
1, 53819, Control_c, 0, 64, 0
1, 53876, Note_on_c, 0, 62, 51
1, 53910, Control_c, 0, 64, 127
1, 53910, Control_c, 0, 64, 127
1, 53970, Note_on_c, 0, 62, 0
1, 53970, Note_on_c, 0, 66, 57
1, 54064, Note_on_c, 0, 66, 0
1, 54064, Note_on_c, 0, 71, 61
1, 54157, Note_on_c, 0, 71, 0
1, 54157, Note_on_c, 0, 68, 57
1, 54251, Note_on_c, 0, 68, 0
1, 54251, Note_on_c, 0, 64, 51
1, 54344, Note_on_c, 0, 64, 0
1, 54344, Note_on_c, 0, 56, 0
1, 54344, Note_on_c, 0, 59, 59
1, 54397, Control_c, 0, 64, 0
1, 54397, Control_c, 0, 64, 0
1, 54431, Note_on_c, 0, 65, 52
1, 54467, Control_c, 0, 64, 127
1, 54467, Control_c, 0, 64, 127
1, 54519, Note_on_c, 0, 65, 0
1, 54519, Note_on_c, 0, 69, 58
1, 54606, Note_on_c, 0, 69, 0
1, 54606, Note_on_c, 0, 74, 62
1, 54687, Note_on_c, 0, 74, 0
1, 54687, Note_on_c, 0, 71, 58
1, 54769, Note_on_c, 0, 71, 0
1, 54769, Note_on_c, 0, 67, 52
1, 54842, Control_c, 0, 64, 0
1, 54842, Control_c, 0, 64, 0
1, 54850, Note_on_c, 0, 67, 0
1, 54850, Note_on_c, 0, 59, 0
1, 54850, Note_on_c, 0, 62, 63
1, 54914, Control_c, 0, 64, 127
1, 54914, Control_c, 0, 64, 127
1, 54926, Note_on_c, 0, 68, 52
1, 55003, Note_on_c, 0, 68, 0
1, 55003, Note_on_c, 0, 72, 58
1, 55079, Note_on_c, 0, 72, 0
1, 55079, Note_on_c, 0, 77, 63
1, 55151, Note_on_c, 0, 77, 0
1, 55151, Note_on_c, 0, 74, 58
1, 55223, Note_on_c, 0, 74, 0
1, 55223, Note_on_c, 0, 70, 53
1, 55295, Note_on_c, 0, 70, 0
1, 55295, Control_c, 0, 64, 127
1, 55295, Control_c, 0, 64, 127
1, 55298, Note_on_c, 0, 62, 0
1, 55298, Note_on_c, 0, 65, 64
1, 55363, Note_on_c, 0, 71, 62
1, 55431, Note_on_c, 0, 71, 0
1, 55431, Note_on_c, 0, 75, 68
1, 55499, Note_on_c, 0, 75, 0
1, 55499, Note_on_c, 0, 80, 72
1, 55564, Note_on_c, 0, 80, 0
1, 55564, Note_on_c, 0, 77, 68
1, 55629, Note_on_c, 0, 77, 0
1, 55629, Note_on_c, 0, 73, 63
1, 55693, Note_on_c, 0, 73, 0
1, 55693, Note_on_c, 0, 65, 0
1, 55693, Note_on_c, 0, 68, 68
1, 55753, Note_on_c, 0, 74, 63
1, 55814, Note_on_c, 0, 74, 0
1, 55814, Note_on_c, 0, 78, 69
1, 55874, Note_on_c, 0, 78, 0
1, 55874, Note_on_c, 0, 83, 73
1, 55931, Note_on_c, 0, 83, 0
1, 55931, Note_on_c, 0, 80, 69
1, 55988, Note_on_c, 0, 80, 0
1, 55988, Note_on_c, 0, 76, 63
1, 56044, Note_on_c, 0, 76, 0
1, 56044, Note_on_c, 0, 68, 0
1, 56044, Note_on_c, 0, 71, 71
1, 56098, Note_on_c, 0, 77, 64
1, 56153, Note_on_c, 0, 77, 0
1, 56153, Note_on_c, 0, 81, 70
1, 56207, Note_on_c, 0, 81, 0
1, 56207, Note_on_c, 0, 86, 74
1, 56259, Note_on_c, 0, 86, 0
1, 56259, Note_on_c, 0, 83, 70
1, 56311, Note_on_c, 0, 83, 0
1, 56311, Note_on_c, 0, 79, 64
1, 56363, Note_on_c, 0, 79, 0
1, 56363, Note_on_c, 0, 71, 0
1, 56363, Note_on_c, 0, 74, 75
1, 56413, Note_on_c, 0, 80, 64
1, 56463, Note_on_c, 0, 80, 0
1, 56463, Note_on_c, 0, 84, 70
1, 56513, Note_on_c, 0, 84, 0
1, 56513, Note_on_c, 0, 89, 75
1, 56561, Note_on_c, 0, 89, 0
1, 56561, Note_on_c, 0, 86, 70
1, 56609, Note_on_c, 0, 86, 0
1, 56609, Note_on_c, 0, 82, 65
1, 56657, Note_on_c, 0, 82, 0
1, 56657, Control_c, 0, 64, 0
1, 56657, Control_c, 0, 64, 0
1, 56660, Control_c, 0, 64, 0
1, 56660, Control_c, 0, 64, 0
1, 56660, Control_c, 0, 64, 0
1, 56663, Note_on_c, 0, 74, 0
1, 56663, Note_on_c, 0, 77, 84
1, 56744, Note_on_c, 0, 80, 64
1, 56748, Control_c, 0, 64, 127
1, 56748, Control_c, 0, 64, 127
1, 56819, Note_on_c, 0, 80, 0
1, 56819, Note_on_c, 0, 83, 66
1, 56881, Note_on_c, 0, 83, 0
1, 56881, Note_on_c, 0, 87, 68
1, 56940, Note_on_c, 0, 87, 0
1, 56940, Note_on_c, 0, 92, 71
1, 57000, Note_on_c, 0, 92, 0
1, 57000, Note_on_c, 0, 94, 74
1, 57059, Note_on_c, 0, 94, 0
1, 57059, Note_on_c, 0, 99, 85
1, 57107, Note_on_c, 0, 99, 0
1, 57107, Note_on_c, 0, 94, 74
1, 57155, Note_on_c, 0, 94, 0
1, 57155, Note_on_c, 0, 92, 73
1, 57203, Note_on_c, 0, 92, 0
1, 57203, Note_on_c, 0, 87, 72
1, 57250, Note_on_c, 0, 87, 0
1, 57250, Note_on_c, 0, 83, 70
1, 57295, Note_on_c, 0, 83, 0
1, 57295, Note_on_c, 0, 80, 68
1, 57340, Note_on_c, 0, 80, 0
1, 57340, Note_on_c, 0, 77, 73
1, 57391, Control_c, 0, 64, 0
1, 57391, Control_c, 0, 64, 0
1, 57404, Note_on_c, 0, 77, 0
1, 57404, Note_on_c, 0, 77, 0
1, 57404, Note_on_c, 0, 76, 86
1, 57497, Control_c, 0, 64, 127
1, 57497, Note_on_c, 0, 80, 67
1, 57497, Control_c, 0, 64, 127
1, 57573, Note_on_c, 0, 80, 0
1, 57573, Note_on_c, 0, 83, 69
1, 57635, Note_on_c, 0, 83, 0
1, 57635, Note_on_c, 0, 88, 72
1, 57697, Note_on_c, 0, 88, 0
1, 57697, Note_on_c, 0, 92, 75
1, 57760, Note_on_c, 0, 92, 0
1, 57760, Note_on_c, 0, 94, 78
1, 57822, Note_on_c, 0, 94, 0
1, 57822, Note_on_c, 0, 100, 89
1, 57876, Note_on_c, 0, 100, 0
1, 57876, Note_on_c, 0, 94, 78
1, 57929, Note_on_c, 0, 94, 0
1, 57929, Note_on_c, 0, 92, 76
1, 57982, Note_on_c, 0, 92, 0
1, 57982, Note_on_c, 0, 88, 75
1, 58037, Note_on_c, 0, 88, 0
1, 58037, Note_on_c, 0, 83, 74
1, 58090, Note_on_c, 0, 83, 0
1, 58090, Note_on_c, 0, 80, 71
1, 58143, Note_on_c, 0, 80, 0
1, 58143, Note_on_c, 0, 76, 70
1, 58197, Note_on_c, 0, 76, 0
1, 58197, Control_c, 0, 64, 0
1, 58197, Control_c, 0, 64, 0
1, 58200, Control_c, 0, 64, 0
1, 58200, Control_c, 0, 64, 0
1, 58200, Control_c, 0, 64, 0
1, 58203, Note_on_c, 0, 76, 0
1, 58203, Note_on_c, 0, 75, 80
1, 58242, Control_c, 0, 64, 127
1, 58242, Control_c, 0, 64, 127
1, 58250, Note_on_c, 0, 80, 68
1, 58304, Note_on_c, 0, 80, 0
1, 58304, Note_on_c, 0, 83, 70
1, 58357, Note_on_c, 0, 83, 0
1, 58357, Note_on_c, 0, 89, 72
1, 58410, Note_on_c, 0, 89, 0
1, 58410, Note_on_c, 0, 92, 75
1, 58464, Note_on_c, 0, 92, 0
1, 58464, Note_on_c, 0, 94, 78
1, 58518, Note_on_c, 0, 94, 0
1, 58518, Note_on_c, 0, 101, 89
1, 58563, Note_on_c, 0, 101, 0
1, 58563, Note_on_c, 0, 94, 78
1, 58609, Note_on_c, 0, 94, 0
1, 58609, Note_on_c, 0, 92, 77
1, 58655, Note_on_c, 0, 92, 0
1, 58655, Note_on_c, 0, 89, 76
1, 58701, Note_on_c, 0, 89, 0
1, 58701, Note_on_c, 0, 83, 74
1, 58747, Note_on_c, 0, 83, 0
1, 58747, Note_on_c, 0, 80, 72
1, 58793, Note_on_c, 0, 80, 0
1, 58793, Note_on_c, 0, 75, 71
1, 58839, Note_on_c, 0, 75, 0
1, 58839, Note_on_c, 0, 75, 0
1, 58839, Note_on_c, 0, 74, 82
1, 58892, Note_on_c, 0, 80, 71
1, 58946, Note_on_c, 0, 80, 0
1, 58946, Note_on_c, 0, 83, 73
1, 58999, Note_on_c, 0, 83, 0
1, 58999, Note_on_c, 0, 90, 76
1, 59052, Note_on_c, 0, 90, 0
1, 59052, Note_on_c, 0, 92, 79
1, 59106, Note_on_c, 0, 92, 0
1, 59106, Note_on_c, 0, 94, 82
1, 59159, Note_on_c, 0, 94, 0
1, 59159, Note_on_c, 0, 102, 93
1, 59213, Note_on_c, 0, 102, 0
1, 59213, Note_on_c, 0, 95, 79
1, 59267, Note_on_c, 0, 95, 0
1, 59267, Note_on_c, 0, 94, 79
1, 59320, Note_on_c, 0, 94, 0
1, 59320, Note_on_c, 0, 92, 79
1, 59373, Note_on_c, 0, 92, 0
1, 59373, Note_on_c, 0, 90, 79
1, 59427, Note_on_c, 0, 90, 0
1, 59427, Note_on_c, 0, 83, 73
1, 59480, Note_on_c, 0, 83, 0
1, 59480, Control_c, 0, 64, 127
1, 59480, Note_on_c, 0, 82, 71
1, 59483, Note_on_c, 0, 74, 0
1, 59483, Control_c, 0, 64, 127
1, 59529, Note_on_c, 0, 82, 0
1, 59529, Note_on_c, 0, 80, 69
1, 59578, Note_on_c, 0, 80, 0
1, 59578, Note_on_c, 0, 78, 67
1, 59627, Note_on_c, 0, 78, 0
1, 59627, Note_on_c, 0, 71, 66
1, 59676, Note_on_c, 0, 71, 0
1, 59676, Note_on_c, 0, 70, 64
1, 59725, Note_on_c, 0, 70, 0
1, 59725, Note_on_c, 0, 68, 62
1, 59774, Note_on_c, 0, 68, 0
1, 59774, Note_on_c, 0, 66, 60
1, 59822, Note_on_c, 0, 66, 0
1, 59822, Note_on_c, 0, 59, 75
1, 59871, Note_on_c, 0, 59, 0
1, 59871, Note_on_c, 0, 66, 60
1, 59920, Note_on_c, 0, 66, 0
1, 59920, Note_on_c, 0, 68, 62
1, 59969, Note_on_c, 0, 68, 0
1, 59969, Note_on_c, 0, 70, 64
1, 60018, Note_on_c, 0, 70, 0
1, 60018, Note_on_c, 0, 71, 66
1, 60066, Note_on_c, 0, 71, 0
1, 60066, Note_on_c, 0, 78, 67
1, 60115, Note_on_c, 0, 78, 0
1, 60115, Note_on_c, 0, 80, 69
1, 60164, Note_on_c, 0, 80, 0
1, 60164, Note_on_c, 0, 82, 71
1, 60213, Note_on_c, 0, 82, 0
1, 60213, Note_on_c, 0, 83, 73
1, 60262, Note_on_c, 0, 83, 0
1, 60262, Note_on_c, 0, 90, 75
1, 60310, Note_on_c, 0, 90, 0
1, 60310, Note_on_c, 0, 92, 76
1, 60359, Note_on_c, 0, 92, 0
1, 60359, Note_on_c, 0, 94, 78
1, 60408, Note_on_c, 0, 94, 0
1, 60408, Note_on_c, 0, 95, 80
1, 60457, Note_on_c, 0, 95, 0
1, 60457, Note_on_c, 0, 102, 94
1, 60506, Note_on_c, 0, 102, 0
1, 60506, Note_on_c, 0, 95, 80
1, 60555, Note_on_c, 0, 95, 0
1, 60555, Note_on_c, 0, 94, 79
1, 60604, Note_on_c, 0, 94, 0
1, 60604, Note_on_c, 0, 92, 77
1, 60653, Note_on_c, 0, 92, 0
1, 60653, Note_on_c, 0, 90, 75
1, 60702, Note_on_c, 0, 90, 0
1, 60702, Note_on_c, 0, 83, 74
1, 60750, Note_on_c, 0, 83, 0
1, 60750, Note_on_c, 0, 82, 72
1, 60799, Note_on_c, 0, 82, 0
1, 60799, Note_on_c, 0, 80, 70
1, 60848, Note_on_c, 0, 80, 0
1, 60848, Note_on_c, 0, 78, 68
1, 60897, Note_on_c, 0, 78, 0
1, 60897, Note_on_c, 0, 71, 67
1, 60945, Note_on_c, 0, 71, 0
1, 60945, Note_on_c, 0, 70, 65
1, 60994, Note_on_c, 0, 70, 0
1, 60994, Note_on_c, 0, 68, 63
1, 61043, Note_on_c, 0, 68, 0
1, 61043, Note_on_c, 0, 66, 62
1, 61092, Note_on_c, 0, 66, 0
1, 61092, Note_on_c, 0, 59, 60
1, 61141, Note_on_c, 0, 59, 0
1, 61141, Note_on_c, 0, 66, 62
1, 61189, Note_on_c, 0, 66, 0
1, 61189, Note_on_c, 0, 68, 64
1, 61238, Note_on_c, 0, 68, 0
1, 61238, Note_on_c, 0, 70, 65
1, 61287, Note_on_c, 0, 70, 0
1, 61287, Note_on_c, 0, 71, 67
1, 61336, Note_on_c, 0, 71, 0
1, 61336, Note_on_c, 0, 78, 69
1, 61385, Note_on_c, 0, 78, 0
1, 61385, Note_on_c, 0, 80, 71
1, 61434, Note_on_c, 0, 80, 0
1, 61434, Note_on_c, 0, 82, 73
1, 61483, Note_on_c, 0, 82, 0
1, 61483, Note_on_c, 0, 83, 75
1, 61531, Note_on_c, 0, 83, 0
1, 61531, Note_on_c, 0, 90, 77
1, 61580, Note_on_c, 0, 90, 0
1, 61580, Note_on_c, 0, 92, 78
1, 61629, Note_on_c, 0, 92, 0
1, 61629, Note_on_c, 0, 94, 80
1, 61678, Note_on_c, 0, 94, 0
1, 61678, Note_on_c, 0, 95, 82
1, 61727, Note_on_c, 0, 95, 0
1, 61727, Control_c, 0, 64, 127
1, 61727, Note_on_c, 0, 102, 77
1, 61730, Control_c, 0, 64, 127
1, 61730, Note_on_c, 0, 32, 60
1, 61842, Note_on_c, 0, 102, 0
1, 61842, Note_on_c, 0, 95, 68
1, 61900, Note_on_c, 0, 95, 0
1, 61900, Note_on_c, 0, 94, 66
1, 61957, Note_on_c, 0, 94, 0
1, 61957, Note_on_c, 0, 92, 65
1, 62015, Note_on_c, 0, 92, 0
1, 62015, Note_on_c, 0, 90, 63
1, 62073, Note_on_c, 0, 90, 0
1, 62073, Note_on_c, 0, 83, 61
1, 62130, Note_on_c, 0, 83, 0
1, 62130, Note_on_c, 0, 82, 59
1, 62187, Note_on_c, 0, 82, 0
1, 62187, Note_on_c, 0, 80, 59
1, 62245, Note_on_c, 0, 80, 0
1, 62245, Note_on_c, 0, 78, 55
1, 62303, Note_on_c, 0, 78, 0
1, 62303, Note_on_c, 0, 71, 50
1, 62346, Note_on_c, 0, 62, 75
1, 62361, Note_on_c, 0, 71, 0
1, 62361, Note_on_c, 0, 70, 46
1, 62418, Note_on_c, 0, 70, 0
1, 62418, Note_on_c, 0, 68, 41
1, 62476, Note_on_c, 0, 68, 0
1, 62476, Note_on_c, 0, 66, 37
1, 62533, Note_on_c, 0, 66, 0
1, 62533, Note_on_c, 0, 59, 29
1, 62533, Note_on_c, 0, 64, 75
1, 62582, Note_on_c, 0, 62, 0
1, 62591, Note_on_c, 0, 59, 0
1, 62591, Note_on_c, 0, 66, 39
1, 62649, Note_on_c, 0, 66, 0
1, 62649, Note_on_c, 0, 68, 42
1, 62706, Note_on_c, 0, 68, 0
1, 62706, Note_on_c, 0, 70, 44
1, 62764, Note_on_c, 0, 70, 0
1, 62764, Note_on_c, 0, 71, 46
1, 62821, Note_on_c, 0, 71, 0
1, 62821, Note_on_c, 0, 78, 49
1, 62879, Note_on_c, 0, 78, 0
1, 62879, Note_on_c, 0, 80, 51
1, 62936, Note_on_c, 0, 80, 0
1, 62936, Note_on_c, 0, 82, 53
1, 62994, Note_on_c, 0, 82, 0
1, 62994, Note_on_c, 0, 83, 56
1, 63052, Note_on_c, 0, 83, 0
1, 63052, Note_on_c, 0, 90, 58
1, 63095, Note_on_c, 0, 68, 75
1, 63110, Note_on_c, 0, 90, 0
1, 63110, Note_on_c, 0, 92, 60
1, 63143, Note_on_c, 0, 64, 0
1, 63167, Note_on_c, 0, 92, 0
1, 63167, Note_on_c, 0, 94, 63
1, 63224, Note_on_c, 0, 94, 0
1, 63224, Note_on_c, 0, 95, 65
1, 63282, Note_on_c, 0, 95, 0
1, 63282, Control_c, 0, 64, 127
1, 63282, Note_on_c, 0, 102, 73
1, 63285, Control_c, 0, 64, 127
1, 63285, Note_on_c, 0, 66, 75
1, 63330, Note_on_c, 0, 68, 0
1, 63340, Note_on_c, 0, 102, 0
1, 63340, Note_on_c, 0, 95, 63
1, 63398, Note_on_c, 0, 95, 0
1, 63398, Note_on_c, 0, 94, 60
1, 63455, Note_on_c, 0, 94, 0
1, 63455, Note_on_c, 0, 92, 58
1, 63512, Note_on_c, 0, 92, 0
1, 63512, Note_on_c, 0, 90, 56
1, 63570, Note_on_c, 0, 90, 0
1, 63570, Note_on_c, 0, 83, 53
1, 63628, Note_on_c, 0, 83, 0
1, 63628, Note_on_c, 0, 82, 51
1, 63685, Note_on_c, 0, 82, 0
1, 63685, Note_on_c, 0, 80, 49
1, 63743, Note_on_c, 0, 80, 0
1, 63743, Note_on_c, 0, 78, 46
1, 63801, Note_on_c, 0, 78, 0
1, 63801, Note_on_c, 0, 71, 44
1, 63844, Note_on_c, 0, 64, 75
1, 63858, Note_on_c, 0, 71, 0
1, 63858, Note_on_c, 0, 70, 42
1, 63892, Note_on_c, 0, 66, 0
1, 63915, Note_on_c, 0, 70, 0
1, 63915, Note_on_c, 0, 68, 39
1, 63973, Note_on_c, 0, 68, 0
1, 63973, Note_on_c, 0, 66, 37
1, 64031, Note_on_c, 0, 66, 0
1, 64031, Note_on_c, 0, 59, 37
1, 64031, Note_on_c, 0, 62, 75
1, 64079, Note_on_c, 0, 64, 0
1, 64089, Note_on_c, 0, 59, 0
1, 64089, Note_on_c, 0, 66, 40
1, 64146, Note_on_c, 0, 66, 0
1, 64146, Note_on_c, 0, 68, 43
1, 64203, Note_on_c, 0, 68, 0
1, 64203, Note_on_c, 0, 70, 45
1, 64261, Note_on_c, 0, 70, 0
1, 64261, Note_on_c, 0, 71, 48
1, 64319, Note_on_c, 0, 71, 0
1, 64319, Note_on_c, 0, 78, 51
1, 64377, Note_on_c, 0, 78, 0
1, 64377, Note_on_c, 0, 80, 54
1, 64434, Note_on_c, 0, 80, 0
1, 64434, Note_on_c, 0, 82, 56
1, 64492, Note_on_c, 0, 82, 0
1, 64492, Note_on_c, 0, 83, 59
1, 64549, Note_on_c, 0, 83, 0
1, 64549, Note_on_c, 0, 90, 62
1, 64607, Note_on_c, 0, 90, 0
1, 64607, Note_on_c, 0, 92, 65
1, 64664, Note_on_c, 0, 92, 0
1, 64664, Note_on_c, 0, 94, 67
1, 64722, Note_on_c, 0, 94, 0
1, 64722, Note_on_c, 0, 95, 70
1, 64780, Note_on_c, 0, 95, 0
1, 64780, Control_c, 0, 64, 127
1, 64780, Note_on_c, 0, 102, 71
1, 64783, Control_c, 0, 64, 127
1, 64837, Note_on_c, 0, 102, 0
1, 64837, Note_on_c, 0, 95, 70
1, 64895, Note_on_c, 0, 95, 0
1, 64895, Note_on_c, 0, 94, 68
1, 64952, Note_on_c, 0, 94, 0
1, 64952, Note_on_c, 0, 92, 67
1, 65010, Note_on_c, 0, 92, 0
1, 65010, Note_on_c, 0, 90, 65
1, 65068, Note_on_c, 0, 90, 0
1, 65068, Note_on_c, 0, 83, 63
1, 65126, Note_on_c, 0, 83, 0
1, 65126, Note_on_c, 0, 82, 61
1, 65183, Note_on_c, 0, 82, 0
1, 65183, Note_on_c, 0, 80, 60
1, 65240, Note_on_c, 0, 80, 0
1, 65240, Note_on_c, 0, 78, 58
1, 65298, Note_on_c, 0, 78, 0
1, 65298, Note_on_c, 0, 71, 56
1, 65356, Note_on_c, 0, 71, 0
1, 65356, Note_on_c, 0, 70, 53
1, 65413, Note_on_c, 0, 70, 0
1, 65413, Note_on_c, 0, 68, 52
1, 65471, Note_on_c, 0, 68, 0
1, 65471, Note_on_c, 0, 66, 49
1, 65529, Note_on_c, 0, 66, 0
1, 65529, Note_on_c, 0, 59, 49
1, 65529, Note_on_c, 0, 59, 75
1, 65577, Note_on_c, 0, 62, 0
1, 65586, Note_on_c, 0, 59, 0
1, 65586, Note_on_c, 0, 66, 53
1, 65644, Note_on_c, 0, 66, 0
1, 65644, Note_on_c, 0, 68, 56
1, 65701, Note_on_c, 0, 68, 0
1, 65701, Note_on_c, 0, 70, 60
1, 65759, Note_on_c, 0, 70, 0
1, 65759, Note_on_c, 0, 71, 64
1, 65817, Note_on_c, 0, 71, 0
1, 65817, Note_on_c, 0, 78, 67
1, 65874, Note_on_c, 0, 78, 0
1, 65874, Note_on_c, 0, 80, 71
1, 65931, Note_on_c, 0, 80, 0
1, 65931, Note_on_c, 0, 82, 75
1, 65989, Note_on_c, 0, 82, 0
1, 65989, Note_on_c, 0, 83, 78
1, 66047, Note_on_c, 0, 83, 0
1, 66047, Note_on_c, 0, 90, 82
1, 66105, Note_on_c, 0, 90, 0
1, 66105, Note_on_c, 0, 92, 86
1, 66162, Note_on_c, 0, 92, 0
1, 66162, Note_on_c, 0, 94, 89
1, 66220, Note_on_c, 0, 94, 0
1, 66220, Note_on_c, 0, 95, 93
1, 66277, Note_on_c, 0, 95, 0
1, 66277, Control_c, 0, 64, 127
1, 66277, Note_on_c, 0, 106, 93
1, 66280, Note_on_c, 0, 59, 0
1, 66280, Control_c, 0, 64, 127
1, 66280, Control_c, 0, 64, 0
1, 66283, Note_on_c, 0, 63, 87
1, 66330, Note_on_c, 0, 106, 0
1, 66330, Control_c, 0, 64, 0
1, 66330, Note_on_c, 0, 104, 91
1, 66330, Control_c, 0, 64, 0
1, 66375, Control_c, 0, 64, 127
1, 66375, Control_c, 0, 64, 127
1, 66384, Note_on_c, 0, 104, 0
1, 66384, Note_on_c, 0, 102, 88
1, 66437, Note_on_c, 0, 102, 0
1, 66437, Note_on_c, 0, 96, 86
1, 66492, Note_on_c, 0, 96, 0
1, 66492, Note_on_c, 0, 94, 84
1, 66545, Note_on_c, 0, 94, 0
1, 66545, Note_on_c, 0, 92, 81
1, 66598, Note_on_c, 0, 92, 0
1, 66598, Note_on_c, 0, 90, 79
1, 66652, Note_on_c, 0, 90, 0
1, 66652, Note_on_c, 0, 84, 76
1, 66705, Note_on_c, 0, 84, 0
1, 66705, Note_on_c, 0, 82, 74
1, 66758, Note_on_c, 0, 82, 0
1, 66758, Note_on_c, 0, 80, 72
1, 66812, Note_on_c, 0, 80, 0
1, 66812, Note_on_c, 0, 78, 69
1, 66866, Note_on_c, 0, 78, 0
1, 66866, Note_on_c, 0, 72, 67
1, 66919, Note_on_c, 0, 72, 0
1, 66919, Note_on_c, 0, 70, 65
1, 66973, Note_on_c, 0, 70, 0
1, 66973, Note_on_c, 0, 68, 62
1, 67026, Note_on_c, 0, 68, 0
1, 67026, Note_on_c, 0, 32, 0
1, 67026, Note_on_c, 0, 66, 60
1, 67029, Note_on_c, 0, 32, 75
1, 67079, Note_on_c, 0, 66, 0
1, 67079, Note_on_c, 0, 60, 62
1, 67133, Note_on_c, 0, 60, 0
1, 67133, Note_on_c, 0, 66, 65
1, 67186, Note_on_c, 0, 66, 0
1, 67186, Note_on_c, 0, 68, 67
1, 67240, Note_on_c, 0, 68, 0
1, 67240, Note_on_c, 0, 70, 69
1, 67294, Note_on_c, 0, 70, 0
1, 67294, Note_on_c, 0, 72, 72
1, 67347, Note_on_c, 0, 72, 0
1, 67347, Note_on_c, 0, 78, 74
1, 67401, Note_on_c, 0, 78, 0
1, 67401, Note_on_c, 0, 80, 77
1, 67454, Note_on_c, 0, 80, 0
1, 67454, Note_on_c, 0, 82, 79
1, 67507, Note_on_c, 0, 82, 0
1, 67507, Note_on_c, 0, 84, 81
1, 67561, Note_on_c, 0, 84, 0
1, 67561, Note_on_c, 0, 90, 84
1, 67615, Note_on_c, 0, 90, 0
1, 67615, Note_on_c, 0, 92, 86
1, 67668, Note_on_c, 0, 92, 0
1, 67668, Note_on_c, 0, 94, 88
1, 67722, Note_on_c, 0, 94, 0
1, 67722, Note_on_c, 0, 96, 91
1, 67775, Note_on_c, 0, 96, 0
1, 67775, Control_c, 0, 64, 127
1, 67775, Note_on_c, 0, 106, 93
1, 67778, Note_on_c, 0, 63, 0
1, 67778, Control_c, 0, 64, 127
1, 67825, Note_on_c, 0, 106, 0
1, 67825, Note_on_c, 0, 104, 91
1, 67875, Note_on_c, 0, 104, 0
1, 67875, Note_on_c, 0, 102, 89
1, 67925, Note_on_c, 0, 102, 0
1, 67925, Note_on_c, 0, 96, 86
1, 67975, Note_on_c, 0, 96, 0
1, 67975, Note_on_c, 0, 94, 84
1, 68024, Note_on_c, 0, 94, 0
1, 68024, Note_on_c, 0, 92, 82
1, 68075, Note_on_c, 0, 92, 0
1, 68075, Note_on_c, 0, 90, 80
1, 68124, Note_on_c, 0, 90, 0
1, 68124, Note_on_c, 0, 84, 78
1, 68174, Note_on_c, 0, 84, 0
1, 68174, Note_on_c, 0, 82, 75
1, 68224, Note_on_c, 0, 82, 0
1, 68224, Note_on_c, 0, 80, 73
1, 68274, Note_on_c, 0, 80, 0
1, 68274, Note_on_c, 0, 78, 71
1, 68324, Note_on_c, 0, 78, 0
1, 68324, Note_on_c, 0, 72, 69
1, 68374, Note_on_c, 0, 72, 0
1, 68374, Note_on_c, 0, 70, 67
1, 68424, Note_on_c, 0, 70, 0
1, 68424, Note_on_c, 0, 68, 64
1, 68474, Note_on_c, 0, 68, 0
1, 68474, Note_on_c, 0, 66, 62
1, 68524, Note_on_c, 0, 66, 0
1, 68524, Note_on_c, 0, 60, 60
1, 68581, Note_on_c, 0, 60, 0
1, 68581, Note_on_c, 0, 66, 63
1, 68639, Note_on_c, 0, 66, 0
1, 68639, Note_on_c, 0, 68, 65
1, 68696, Note_on_c, 0, 68, 0
1, 68696, Note_on_c, 0, 70, 68
1, 68754, Note_on_c, 0, 70, 0
1, 68754, Note_on_c, 0, 72, 70
1, 68812, Note_on_c, 0, 72, 0
1, 68812, Note_on_c, 0, 78, 73
1, 68870, Note_on_c, 0, 78, 0
1, 68870, Note_on_c, 0, 80, 75
1, 68927, Note_on_c, 0, 80, 0
1, 68927, Note_on_c, 0, 82, 78
1, 68984, Note_on_c, 0, 82, 0
1, 68984, Note_on_c, 0, 84, 80
1, 69042, Note_on_c, 0, 84, 0
1, 69042, Note_on_c, 0, 90, 83
1, 69100, Note_on_c, 0, 90, 0
1, 69100, Note_on_c, 0, 92, 85
1, 69157, Note_on_c, 0, 92, 0
1, 69157, Note_on_c, 0, 94, 88
1, 69215, Note_on_c, 0, 94, 0
1, 69215, Note_on_c, 0, 96, 90
1, 69272, Note_on_c, 0, 96, 0
1, 69272, Control_c, 0, 64, 127
1, 69272, Note_on_c, 0, 106, 93
1, 69272, Control_c, 0, 64, 127
1, 69329, Note_on_c, 0, 106, 0
1, 69329, Note_on_c, 0, 104, 91
1, 69341, Control_c, 0, 64, 127
1, 69341, Control_c, 0, 64, 127
1, 69385, Note_on_c, 0, 104, 0
1, 69385, Note_on_c, 0, 102, 88
1, 69441, Note_on_c, 0, 102, 0
1, 69441, Note_on_c, 0, 96, 86
1, 69497, Note_on_c, 0, 96, 0
1, 69497, Note_on_c, 0, 94, 83
1, 69553, Note_on_c, 0, 94, 0
1, 69553, Note_on_c, 0, 92, 81
1, 69610, Note_on_c, 0, 92, 0
1, 69610, Note_on_c, 0, 90, 78
1, 69666, Note_on_c, 0, 90, 0
1, 69666, Note_on_c, 0, 82, 76
1, 69721, Note_on_c, 0, 82, 0
1, 69721, Note_on_c, 0, 80, 73
1, 69778, Note_on_c, 0, 80, 0
1, 69778, Note_on_c, 0, 78, 71
1, 69834, Note_on_c, 0, 78, 0
1, 69834, Note_on_c, 0, 60, 75
1, 69834, Note_on_c, 0, 72, 97
1, 70115, Note_on_c, 0, 72, 0
1, 70115, Note_on_c, 0, 60, 0
1, 70115, Note_on_c, 0, 61, 75
1, 70118, Note_on_c, 0, 66, 75
1, 70118, Note_on_c, 0, 68, 75
1, 70118, Note_on_c, 0, 70, 75
1, 70121, Note_on_c, 0, 73, 97
1, 70349, Note_on_c, 0, 78, 71
1, 70396, Note_on_c, 0, 78, 0
1, 70396, Note_on_c, 0, 80, 75
1, 70443, Note_on_c, 0, 80, 0
1, 70443, Note_on_c, 0, 82, 78
1, 70489, Note_on_c, 0, 82, 0
1, 70489, Note_on_c, 0, 85, 82
1, 70536, Note_on_c, 0, 85, 0
1, 70536, Note_on_c, 0, 90, 86
1, 70583, Note_on_c, 0, 90, 0
1, 70583, Note_on_c, 0, 92, 89
1, 70630, Note_on_c, 0, 92, 0
1, 70630, Note_on_c, 0, 94, 93
1, 70677, Note_on_c, 0, 94, 0
1, 70677, Note_on_c, 0, 61, 0
1, 70677, Note_on_c, 0, 89, 104
1, 70680, Note_on_c, 0, 73, 0
1, 70680, Note_on_c, 0, 65, 83
1, 70680, Note_on_c, 0, 77, 105
1, 70770, Note_on_c, 0, 89, 0
1, 70770, Note_on_c, 0, 101, 104
1, 70864, Note_on_c, 0, 101, 0
1, 70864, Control_c, 0, 64, 127
1, 70864, Note_on_c, 0, 99, 103
1, 70867, Note_on_c, 0, 65, 0
1, 70867, Control_c, 0, 64, 127
1, 70867, Control_c, 0, 64, 0
1, 70870, Note_on_c, 0, 70, 0
1, 70870, Note_on_c, 0, 68, 0
1, 70870, Note_on_c, 0, 66, 0
1, 70873, Note_on_c, 0, 77, 0
1, 70873, Note_on_c, 0, 63, 82
1, 70873, Note_on_c, 0, 66, 82
1, 70876, Note_on_c, 0, 68, 82
1, 70876, Note_on_c, 0, 70, 82
1, 70876, Note_on_c, 0, 75, 104
1, 70893, Control_c, 0, 64, 0
1, 70893, Control_c, 0, 64, 0
1, 70920, Note_on_c, 0, 99, 0
1, 70920, Note_on_c, 0, 94, 101
1, 70934, Control_c, 0, 64, 127
1, 70934, Control_c, 0, 64, 127
1, 70976, Note_on_c, 0, 94, 0
1, 70976, Note_on_c, 0, 92, 98
1, 71032, Note_on_c, 0, 92, 0
1, 71032, Note_on_c, 0, 90, 96
1, 71088, Note_on_c, 0, 90, 0
1, 71088, Note_on_c, 0, 87, 92
1, 71145, Note_on_c, 0, 87, 0
1, 71145, Note_on_c, 0, 82, 89
1, 71201, Note_on_c, 0, 82, 0
1, 71201, Note_on_c, 0, 80, 87
1, 71257, Note_on_c, 0, 80, 0
1, 71257, Note_on_c, 0, 78, 84
1, 71313, Note_on_c, 0, 78, 0
1, 71313, Note_on_c, 0, 63, 0
1, 71313, Note_on_c, 0, 85, 96
1, 71316, Note_on_c, 0, 75, 0
1, 71316, Note_on_c, 0, 61, 68
1, 71316, Note_on_c, 0, 73, 90
1, 71369, Note_on_c, 0, 85, 0
1, 71369, Note_on_c, 0, 82, 94
1, 71425, Note_on_c, 0, 82, 0
1, 71425, Note_on_c, 0, 80, 94
1, 71481, Note_on_c, 0, 80, 0
1, 71481, Note_on_c, 0, 78, 92
1, 71538, Note_on_c, 0, 78, 0
1, 71538, Note_on_c, 0, 73, 91
1, 71594, Note_on_c, 0, 73, 0
1, 71594, Note_on_c, 0, 70, 90
1, 71598, Control_c, 0, 64, 127
1, 71598, Control_c, 0, 64, 127
1, 71650, Note_on_c, 0, 70, 0
1, 71650, Note_on_c, 0, 68, 89
1, 71676, Control_c, 0, 64, 127
1, 71676, Control_c, 0, 64, 127
1, 71706, Note_on_c, 0, 68, 0
1, 71706, Note_on_c, 0, 66, 87
1, 71737, Control_c, 0, 64, 0
1, 71737, Control_c, 0, 64, 0
1, 71756, Control_c, 0, 64, 0
1, 71756, Control_c, 0, 64, 0
1, 71762, Note_on_c, 0, 66, 0
1, 71762, Note_on_c, 0, 64, 88
1, 71762, Note_on_c, 0, 67, 88
1, 71765, Note_on_c, 0, 61, 0
1, 71765, Note_on_c, 0, 70, 88
1, 71765, Note_on_c, 0, 72, 111
1, 71768, Note_on_c, 0, 68, 0
1, 71768, Note_on_c, 0, 66, 0
1, 71768, Note_on_c, 0, 70, 0
1, 71771, Note_on_c, 0, 73, 0
1, 71771, Note_on_c, 0, 58, 75
1, 71771, Note_on_c, 0, 60, 75
1, 71817, Control_c, 0, 64, 127
1, 71817, Control_c, 0, 64, 127
1, 71950, Note_on_c, 0, 63, 79
1, 71950, Note_on_c, 0, 66, 79
1, 71950, Note_on_c, 0, 69, 79
1, 71953, Note_on_c, 0, 73, 105
1, 71953, Note_on_c, 0, 57, 79
1, 71953, Note_on_c, 0, 61, 79
1, 71974, Note_on_c, 0, 70, 0
1, 71974, Note_on_c, 0, 67, 0
1, 71974, Note_on_c, 0, 64, 0
1, 71977, Note_on_c, 0, 72, 0
1, 71977, Note_on_c, 0, 58, 0
1, 71977, Note_on_c, 0, 60, 0
1, 72074, Note_on_c, 0, 62, 84
1, 72074, Note_on_c, 0, 65, 84
1, 72074, Note_on_c, 0, 68, 84
1, 72077, Note_on_c, 0, 70, 112
1, 72077, Note_on_c, 0, 56, 83
1, 72077, Note_on_c, 0, 58, 83
1, 72095, Note_on_c, 0, 63, 0
1, 72095, Note_on_c, 0, 66, 0
1, 72095, Note_on_c, 0, 69, 0
1, 72098, Note_on_c, 0, 61, 0
1, 72098, Note_on_c, 0, 73, 0
1, 72098, Note_on_c, 0, 57, 0
1, 72132, Control_c, 0, 64, 0
1, 72132, Control_c, 0, 64, 0
1, 72181, Note_on_c, 0, 61, 90
1, 72181, Note_on_c, 0, 64, 90
1, 72181, Note_on_c, 0, 67, 90
1, 72184, Note_on_c, 0, 56, 0
1, 72184, Note_on_c, 0, 58, 0
1, 72184, Note_on_c, 0, 72, 120
1, 72187, Note_on_c, 0, 55, 89
1, 72187, Note_on_c, 0, 58, 89
1, 72218, Note_on_c, 0, 62, 0
1, 72218, Note_on_c, 0, 65, 0
1, 72218, Note_on_c, 0, 68, 0
1, 72221, Note_on_c, 0, 70, 0
1, 72390, Control_c, 0, 64, 127
1, 72390, Control_c, 0, 64, 127
1, 72462, Note_on_c, 0, 32, 83
1, 72498, Note_on_c, 0, 32, 0
1, 72743, Note_on_c, 0, 61, 0
1, 72743, Note_on_c, 0, 64, 0
1, 72743, Control_c, 0, 64, 127
1, 72746, Note_on_c, 0, 72, 0
1, 72746, Note_on_c, 0, 67, 0
1, 72746, Note_on_c, 0, 96, 95
1, 72749, Note_on_c, 0, 55, 0
1, 72749, Control_c, 0, 64, 127
1, 72749, Control_c, 0, 64, 0
1, 72752, Note_on_c, 0, 58, 0
1, 72766, Control_c, 0, 64, 0
1, 72766, Control_c, 0, 64, 0
1, 72790, Note_on_c, 0, 96, 0
1, 72790, Note_on_c, 0, 91, 86
1, 72793, Control_c, 0, 64, 127
1, 72793, Control_c, 0, 64, 127
1, 72837, Note_on_c, 0, 91, 0
1, 72837, Note_on_c, 0, 88, 82
1, 72883, Note_on_c, 0, 88, 0
1, 72883, Note_on_c, 0, 84, 80
1, 72930, Note_on_c, 0, 84, 0
1, 72930, Note_on_c, 0, 85, 87
1, 72977, Note_on_c, 0, 85, 0
1, 72977, Note_on_c, 0, 79, 74
1, 73024, Note_on_c, 0, 79, 0
1, 73024, Note_on_c, 0, 76, 71
1, 73071, Note_on_c, 0, 76, 0
1, 73071, Note_on_c, 0, 73, 70
1, 73117, Note_on_c, 0, 73, 0
1, 73117, Note_on_c, 0, 84, 75
1, 73164, Note_on_c, 0, 84, 0
1, 73164, Note_on_c, 0, 79, 64
1, 73211, Note_on_c, 0, 79, 0
1, 73211, Note_on_c, 0, 76, 62
1, 73258, Note_on_c, 0, 76, 0
1, 73258, Note_on_c, 0, 72, 60
1, 73305, Note_on_c, 0, 72, 0
1, 73305, Note_on_c, 0, 73, 66
1, 73351, Note_on_c, 0, 73, 0
1, 73351, Note_on_c, 0, 67, 56
1, 73398, Note_on_c, 0, 67, 0
1, 73398, Note_on_c, 0, 64, 54
1, 73445, Note_on_c, 0, 64, 0
1, 73445, Note_on_c, 0, 61, 48
1, 73490, Note_on_c, 0, 61, 0
1, 73490, Control_c, 0, 64, 0
1, 73490, Control_c, 0, 64, 0
1, 73490, Note_on_c, 0, 64, 82
1, 73490, Note_on_c, 0, 67, 82
1, 73490, Note_on_c, 0, 70, 82
1, 73490, Note_on_c, 0, 72, 103
1, 73490, Control_c, 0, 64, 0
1, 73490, Control_c, 0, 64, 0
1, 73490, Note_on_c, 0, 58, 76
1, 73490, Note_on_c, 0, 60, 76
1, 73496, Control_c, 0, 64, 0
1, 73496, Control_c, 0, 64, 0
1, 73542, Control_c, 0, 64, 127
1, 73542, Control_c, 0, 64, 127
1, 73642, Note_on_c, 0, 63, 73
1, 73642, Note_on_c, 0, 66, 73
1, 73642, Note_on_c, 0, 69, 73
1, 73645, Note_on_c, 0, 73, 97
1, 73645, Note_on_c, 0, 57, 81
1, 73645, Note_on_c, 0, 61, 81
1, 73666, Note_on_c, 0, 70, 0
1, 73666, Note_on_c, 0, 67, 0
1, 73666, Note_on_c, 0, 64, 0
1, 73669, Note_on_c, 0, 72, 0
1, 73669, Note_on_c, 0, 58, 0
1, 73669, Note_on_c, 0, 60, 0
1, 73760, Control_c, 0, 64, 0
1, 73760, Control_c, 0, 64, 0
1, 73766, Note_on_c, 0, 62, 77
1, 73766, Note_on_c, 0, 65, 77
1, 73766, Note_on_c, 0, 68, 77
1, 73769, Note_on_c, 0, 70, 102
1, 73769, Note_on_c, 0, 56, 86
1, 73769, Note_on_c, 0, 58, 86
1, 73787, Note_on_c, 0, 66, 0
1, 73787, Note_on_c, 0, 63, 0
1, 73787, Note_on_c, 0, 69, 0
1, 73790, Note_on_c, 0, 73, 0
1, 73790, Note_on_c, 0, 57, 0
1, 73790, Note_on_c, 0, 61, 0
1, 73802, Control_c, 0, 64, 0
1, 73802, Control_c, 0, 64, 0
1, 73839, Control_c, 0, 64, 0
1, 73839, Control_c, 0, 64, 0
1, 73839, Control_c, 0, 64, 0
1, 73839, Control_c, 0, 64, 0
1, 73853, Control_c, 0, 64, 0
1, 73853, Control_c, 0, 64, 0
1, 73869, Control_c, 0, 64, 0
1, 73869, Control_c, 0, 64, 0
1, 73873, Note_on_c, 0, 61, 81
1, 73873, Note_on_c, 0, 64, 81
1, 73873, Note_on_c, 0, 67, 81
1, 73876, Note_on_c, 0, 56, 0
1, 73876, Note_on_c, 0, 58, 0
1, 73876, Note_on_c, 0, 72, 107
1, 73879, Note_on_c, 0, 55, 91
1, 73879, Note_on_c, 0, 58, 91
1, 73909, Note_on_c, 0, 65, 0
1, 73909, Note_on_c, 0, 62, 0
1, 73909, Note_on_c, 0, 68, 0
1, 73912, Note_on_c, 0, 70, 0
1, 74015, Control_c, 0, 64, 127
1, 74015, Control_c, 0, 64, 127
1, 74045, Control_c, 0, 64, 127
1, 74045, Control_c, 0, 64, 127
1, 74154, Note_on_c, 0, 32, 80
1, 74190, Note_on_c, 0, 32, 0
1, 74435, Note_on_c, 0, 61, 0
1, 74435, Note_on_c, 0, 64, 0
1, 74435, Control_c, 0, 64, 127
1, 74438, Note_on_c, 0, 67, 0
1, 74438, Note_on_c, 0, 72, 0
1, 74438, Note_on_c, 0, 96, 93
1, 74441, Note_on_c, 0, 55, 0
1, 74441, Control_c, 0, 64, 127
1, 74441, Control_c, 0, 64, 0
1, 74444, Note_on_c, 0, 58, 0
1, 74472, Control_c, 0, 64, 0
1, 74472, Control_c, 0, 64, 0
1, 74491, Note_on_c, 0, 96, 0
1, 74491, Note_on_c, 0, 91, 85
1, 74509, Control_c, 0, 64, 127
1, 74509, Control_c, 0, 64, 127
1, 74547, Note_on_c, 0, 91, 0
1, 74547, Note_on_c, 0, 88, 81
1, 74603, Note_on_c, 0, 88, 0
1, 74603, Note_on_c, 0, 84, 79
1, 74660, Note_on_c, 0, 84, 0
1, 74660, Note_on_c, 0, 85, 81
1, 74716, Note_on_c, 0, 85, 0
1, 74716, Note_on_c, 0, 79, 73
1, 74772, Note_on_c, 0, 79, 0
1, 74772, Note_on_c, 0, 76, 70
1, 74828, Note_on_c, 0, 76, 0
1, 74828, Note_on_c, 0, 73, 69
1, 74884, Note_on_c, 0, 73, 0
1, 74884, Note_on_c, 0, 84, 75
1, 74940, Note_on_c, 0, 84, 0
1, 74940, Note_on_c, 0, 79, 63
1, 74996, Note_on_c, 0, 79, 0
1, 74996, Note_on_c, 0, 76, 61
1, 75053, Note_on_c, 0, 76, 0
1, 75053, Note_on_c, 0, 72, 59
1, 75109, Note_on_c, 0, 72, 0
1, 75109, Note_on_c, 0, 73, 66
1, 75165, Note_on_c, 0, 73, 0
1, 75165, Note_on_c, 0, 67, 55
1, 75221, Note_on_c, 0, 67, 0
1, 75221, Note_on_c, 0, 64, 53
1, 75277, Note_on_c, 0, 64, 0
1, 75277, Note_on_c, 0, 61, 52
1, 75333, Note_on_c, 0, 61, 0
1, 75333, Note_on_c, 0, 60, 82
1, 75548, Note_on_c, 0, 60, 0
1, 75548, Note_on_c, 0, 61, 78
1, 75734, Note_on_c, 0, 61, 0
1, 75734, Note_on_c, 0, 58, 82
1, 76203, Note_on_c, 0, 32, 0
1, 76203, Note_on_c, 0, 32, 49
1, 76483, Note_on_c, 0, 58, 0
1, 76483, Control_c, 0, 64, 127
1, 76483, Note_on_c, 0, 96, 78
1, 76486, Control_c, 0, 64, 127
1, 76486, Control_c, 0, 64, 127
1, 76514, Control_c, 0, 64, 0
1, 76546, Note_on_c, 0, 96, 0
1, 76546, Note_on_c, 0, 91, 71
1, 76555, Control_c, 0, 64, 127
1, 76608, Note_on_c, 0, 91, 0
1, 76608, Note_on_c, 0, 88, 67
1, 76671, Note_on_c, 0, 88, 0
1, 76671, Note_on_c, 0, 84, 65
1, 76733, Note_on_c, 0, 84, 0
1, 76733, Note_on_c, 0, 85, 66
1, 76795, Note_on_c, 0, 85, 0
1, 76795, Note_on_c, 0, 79, 59
1, 76858, Note_on_c, 0, 79, 0
1, 76858, Note_on_c, 0, 76, 56
1, 76920, Note_on_c, 0, 76, 0
1, 76920, Note_on_c, 0, 73, 55
1, 76983, Note_on_c, 0, 73, 0
1, 76983, Note_on_c, 0, 84, 54
1, 77045, Note_on_c, 0, 84, 0
1, 77045, Note_on_c, 0, 79, 49
1, 77107, Note_on_c, 0, 79, 0
1, 77107, Note_on_c, 0, 76, 47
1, 77170, Note_on_c, 0, 76, 0
1, 77170, Note_on_c, 0, 72, 45
1, 77232, Note_on_c, 0, 72, 0
1, 77232, Note_on_c, 0, 73, 45
1, 77295, Note_on_c, 0, 73, 0
1, 77295, Note_on_c, 0, 67, 41
1, 77357, Note_on_c, 0, 67, 0
1, 77357, Note_on_c, 0, 64, 39
1, 77419, Note_on_c, 0, 64, 0
1, 77419, Note_on_c, 0, 61, 38
1, 77482, Note_on_c, 0, 61, 0
1, 77482, Control_c, 0, 64, 127
1, 77482, Note_on_c, 0, 60, 75
1, 77485, Control_c, 0, 64, 127
1, 77732, Note_on_c, 0, 60, 0
1, 77732, Note_on_c, 0, 61, 66
1, 77945, Note_on_c, 0, 61, 0
1, 77945, Note_on_c, 0, 58, 70
1, 78245, Note_on_c, 0, 32, 0
1, 78245, Note_on_c, 0, 32, 49
1, 78317, Control_c, 0, 64, 0
1, 78317, Control_c, 0, 64, 0
1, 78749, Control_c, 0, 64, 127
1, 78749, Control_c, 0, 64, 127
1, 79144, Control_c, 0, 64, 127
1, 79144, Control_c, 0, 64, 127
1, 79144, Control_c, 0, 64, 0
1, 79786, Note_on_c, 0, 58, 0
1, 79786, Note_on_c, 0, 60, 66
1, 80534, Note_on_c, 0, 60, 0
1, 80534, Note_on_c, 0, 61, 71
1, 81658, Note_on_c, 0, 61, 0
1, 81658, Note_on_c, 0, 58, 49
1, 81783, Control_c, 0, 64, 0
1, 81783, Control_c, 0, 64, 0
1, 82081, Control_c, 0, 64, 127
1, 82081, Control_c, 0, 64, 127
1, 82781, Note_on_c, 0, 58, 0
1, 82781, Control_c, 0, 64, 127
1, 82781, Control_c, 0, 64, 127
1, 82784, Note_on_c, 0, 32, 0
1, 82784, Control_c, 0, 64, 0
1, 82784, Note_on_c, 0, 44, 52
1, 82861, Control_c, 0, 64, 0
1, 82861, Control_c, 0, 64, 0
1, 82940, Control_c, 0, 64, 127
1, 82940, Control_c, 0, 64, 127
1, 83005, Note_on_c, 0, 54, 51
1, 83080, Note_on_c, 0, 54, 0
1, 83080, Note_on_c, 0, 58, 51
1, 83155, Note_on_c, 0, 58, 0
1, 83155, Note_on_c, 0, 61, 51
1, 83230, Note_on_c, 0, 61, 0
1, 83230, Note_on_c, 0, 68, 51
1, 83230, Note_on_c, 0, 37, 52
1, 83305, Note_on_c, 0, 68, 0
1, 83305, Note_on_c, 0, 65, 51
1, 83380, Note_on_c, 0, 65, 0
1, 83380, Note_on_c, 0, 60, 51
1, 83455, Note_on_c, 0, 60, 0
1, 83455, Note_on_c, 0, 58, 51
1, 83529, Note_on_c, 0, 58, 0
1, 83529, Note_on_c, 0, 61, 51
1, 83605, Note_on_c, 0, 61, 0
1, 83605, Note_on_c, 0, 63, 51
1, 83679, Note_on_c, 0, 63, 0
1, 83679, Note_on_c, 0, 44, 0
1, 83679, Note_on_c, 0, 68, 75
1, 83904, Note_on_c, 0, 66, 48
1, 83966, Note_on_c, 0, 66, 0
1, 83966, Note_on_c, 0, 70, 52
1, 84029, Note_on_c, 0, 70, 0
1, 84029, Note_on_c, 0, 73, 55
1, 84091, Note_on_c, 0, 73, 0
1, 84091, Note_on_c, 0, 80, 59
1, 84153, Note_on_c, 0, 80, 0
1, 84153, Note_on_c, 0, 77, 59
1, 84216, Note_on_c, 0, 77, 0
1, 84216, Note_on_c, 0, 72, 56
1, 84278, Note_on_c, 0, 72, 0
1, 84278, Note_on_c, 0, 70, 53
1, 84340, Note_on_c, 0, 70, 0
1, 84340, Note_on_c, 0, 73, 51
1, 84403, Note_on_c, 0, 73, 0
1, 84403, Note_on_c, 0, 75, 48
1, 84465, Note_on_c, 0, 75, 0
1, 84465, Note_on_c, 0, 37, 0
1, 84465, Control_c, 0, 64, 127
1, 84465, Control_c, 0, 64, 127
1, 84465, Note_on_c, 0, 65, 75
1, 84494, Note_on_c, 0, 68, 0
1, 84690, Note_on_c, 0, 78, 60
1, 84752, Note_on_c, 0, 78, 0
1, 84752, Note_on_c, 0, 82, 64
1, 84815, Note_on_c, 0, 82, 0
1, 84815, Note_on_c, 0, 85, 67
1, 84877, Note_on_c, 0, 85, 0
1, 84877, Note_on_c, 0, 92, 71
1, 84940, Note_on_c, 0, 92, 0
1, 84940, Note_on_c, 0, 89, 71
1, 85002, Note_on_c, 0, 89, 0
1, 85002, Note_on_c, 0, 84, 68
1, 85065, Note_on_c, 0, 84, 0
1, 85065, Note_on_c, 0, 82, 65
1, 85127, Note_on_c, 0, 82, 0
1, 85127, Note_on_c, 0, 85, 63
1, 85190, Note_on_c, 0, 85, 0
1, 85190, Note_on_c, 0, 87, 60
1, 85252, Note_on_c, 0, 87, 0
1, 85252, Note_on_c, 0, 63, 69
1, 85312, Note_on_c, 0, 65, 0
1, 85533, Note_on_c, 0, 75, 62
1, 85607, Note_on_c, 0, 75, 0
1, 85607, Note_on_c, 0, 73, 61
1, 85683, Note_on_c, 0, 73, 0
1, 85683, Note_on_c, 0, 70, 59
1, 85757, Note_on_c, 0, 70, 0
1, 85757, Note_on_c, 0, 68, 58
1, 85832, Note_on_c, 0, 68, 0
1, 85832, Note_on_c, 0, 65, 57
1, 85907, Note_on_c, 0, 65, 0
1, 85907, Note_on_c, 0, 60, 55
1, 85982, Note_on_c, 0, 60, 0
1, 85982, Note_on_c, 0, 63, 54
1, 85982, Note_on_c, 0, 44, 52
1, 86062, Note_on_c, 0, 63, 0
1, 86062, Note_on_c, 0, 61, 53
1, 86142, Note_on_c, 0, 61, 0
1, 86142, Note_on_c, 0, 58, 52
1, 86223, Note_on_c, 0, 58, 0
1, 86223, Note_on_c, 0, 54, 51
1, 86300, Control_c, 0, 64, 127
1, 86300, Control_c, 0, 64, 127
1, 86303, Note_on_c, 0, 54, 0
1, 86303, Note_on_c, 0, 63, 0
1, 86303, Note_on_c, 0, 37, 52
1, 86463, Control_c, 0, 64, 0
1, 86490, Control_c, 0, 64, 0
1, 86624, Note_on_c, 0, 53, 40
1, 86639, Control_c, 0, 64, 127
1, 86667, Control_c, 0, 64, 127
1, 86667, Control_c, 0, 64, 127
1, 86698, Note_on_c, 0, 53, 0
1, 86698, Note_on_c, 0, 56, 42
1, 86774, Note_on_c, 0, 56, 0
1, 86774, Note_on_c, 0, 63, 50
1, 86848, Note_on_c, 0, 63, 0
1, 86848, Note_on_c, 0, 70, 62
1, 86942, Note_on_c, 0, 70, 0
1, 86942, Note_on_c, 0, 65, 54
1, 87036, Note_on_c, 0, 65, 0
1, 87036, Note_on_c, 0, 61, 53
1, 87110, Note_on_c, 0, 61, 0
1, 87110, Note_on_c, 0, 60, 51
1, 87185, Note_on_c, 0, 60, 0
1, 87185, Note_on_c, 0, 63, 50
1, 87261, Note_on_c, 0, 63, 0
1, 87261, Note_on_c, 0, 65, 43
1, 87367, Note_on_c, 0, 65, 0
1, 87367, Note_on_c, 0, 37, 0
1, 87367, Note_on_c, 0, 44, 0
1, 87370, Note_on_c, 0, 58, 51
1, 87370, Note_on_c, 0, 61, 51
1, 87370, Note_on_c, 0, 65, 67
1, 87648, Note_on_c, 0, 65, 46
1, 87710, Note_on_c, 0, 65, 0
1, 87710, Note_on_c, 0, 68, 50
1, 87773, Note_on_c, 0, 68, 0
1, 87773, Note_on_c, 0, 75, 53
1, 87835, Note_on_c, 0, 75, 0
1, 87835, Note_on_c, 0, 58, 0
1, 87835, Note_on_c, 0, 82, 69
1, 87838, Note_on_c, 0, 65, 0
1, 87838, Note_on_c, 0, 61, 0
1, 87928, Note_on_c, 0, 82, 0
1, 87928, Note_on_c, 0, 77, 57
1, 88004, Note_on_c, 0, 77, 0
1, 88004, Note_on_c, 0, 73, 54
1, 88078, Note_on_c, 0, 73, 0
1, 88078, Note_on_c, 0, 72, 51
1, 88153, Note_on_c, 0, 72, 0
1, 88153, Note_on_c, 0, 75, 49
1, 88228, Note_on_c, 0, 75, 0
1, 88228, Note_on_c, 0, 77, 46
1, 88335, Note_on_c, 0, 77, 0
1, 88335, Control_c, 0, 64, 127
1, 88335, Control_c, 0, 64, 127
1, 88338, Note_on_c, 0, 70, 50
1, 88338, Note_on_c, 0, 73, 50
1, 88338, Note_on_c, 0, 77, 66
1, 88560, Note_on_c, 0, 77, 59
1, 88622, Note_on_c, 0, 77, 0
1, 88622, Note_on_c, 0, 80, 63
1, 88685, Note_on_c, 0, 80, 0
1, 88685, Note_on_c, 0, 87, 66
1, 88747, Note_on_c, 0, 87, 0
1, 88747, Note_on_c, 0, 70, 0
1, 88747, Note_on_c, 0, 94, 74
1, 88750, Note_on_c, 0, 77, 0
1, 88750, Note_on_c, 0, 73, 0
1, 88809, Note_on_c, 0, 94, 0
1, 88809, Note_on_c, 0, 89, 70
1, 88872, Note_on_c, 0, 89, 0
1, 88872, Note_on_c, 0, 85, 67
1, 88934, Note_on_c, 0, 85, 0
1, 88934, Note_on_c, 0, 84, 64
1, 89009, Note_on_c, 0, 84, 0
1, 89009, Note_on_c, 0, 87, 62
1, 89084, Note_on_c, 0, 87, 0
1, 89084, Note_on_c, 0, 89, 72
1, 89252, Note_on_c, 0, 89, 0
1, 89252, Note_on_c, 0, 85, 56
1, 89346, Note_on_c, 0, 85, 0
1, 89346, Note_on_c, 0, 82, 59
1, 89439, Note_on_c, 0, 82, 0
1, 89439, Note_on_c, 0, 85, 61
1, 89514, Note_on_c, 0, 85, 0
1, 89514, Note_on_c, 0, 82, 62
1, 89589, Note_on_c, 0, 82, 0
1, 89589, Note_on_c, 0, 77, 60
1, 89664, Note_on_c, 0, 77, 0
1, 89664, Note_on_c, 0, 82, 58
1, 89726, Note_on_c, 0, 82, 0
1, 89726, Note_on_c, 0, 77, 56
1, 89789, Note_on_c, 0, 77, 0
1, 89789, Note_on_c, 0, 73, 54
1, 89851, Note_on_c, 0, 73, 0
1, 89851, Note_on_c, 0, 77, 52
1, 89913, Note_on_c, 0, 77, 0
1, 89913, Note_on_c, 0, 73, 50
1, 89959, Control_c, 0, 64, 127
1, 89959, Control_c, 0, 64, 127
1, 89976, Note_on_c, 0, 73, 0
1, 89976, Note_on_c, 0, 70, 48
1, 90038, Note_on_c, 0, 70, 0
1, 90038, Control_c, 0, 64, 127
1, 90038, Control_c, 0, 64, 127
1, 90041, Control_c, 0, 64, 0
1, 90041, Note_on_c, 0, 44, 52
1, 90246, Control_c, 0, 64, 0
1, 90246, Control_c, 0, 64, 0
1, 90263, Note_on_c, 0, 54, 51
1, 90303, Control_c, 0, 64, 127
1, 90309, Control_c, 0, 64, 127
1, 90309, Control_c, 0, 64, 127
1, 90338, Note_on_c, 0, 54, 0
1, 90338, Note_on_c, 0, 58, 51
1, 90413, Note_on_c, 0, 58, 0
1, 90413, Note_on_c, 0, 61, 51
1, 90488, Note_on_c, 0, 61, 0
1, 90488, Note_on_c, 0, 68, 51
1, 90488, Note_on_c, 0, 37, 52
1, 90562, Note_on_c, 0, 68, 0
1, 90562, Note_on_c, 0, 65, 51
1, 90638, Note_on_c, 0, 65, 0
1, 90638, Note_on_c, 0, 60, 51
1, 90712, Note_on_c, 0, 60, 0
1, 90712, Note_on_c, 0, 58, 51
1, 90787, Note_on_c, 0, 58, 0
1, 90787, Note_on_c, 0, 61, 51
1, 90862, Note_on_c, 0, 61, 0
1, 90862, Note_on_c, 0, 63, 51
1, 90937, Note_on_c, 0, 63, 0
1, 90937, Note_on_c, 0, 44, 0
1, 90937, Note_on_c, 0, 68, 75
1, 91162, Note_on_c, 0, 66, 48
1, 91224, Note_on_c, 0, 66, 0
1, 91224, Note_on_c, 0, 70, 52
1, 91287, Note_on_c, 0, 70, 0
1, 91287, Note_on_c, 0, 73, 55
1, 91349, Note_on_c, 0, 73, 0
1, 91349, Note_on_c, 0, 80, 59
1, 91411, Note_on_c, 0, 80, 0
1, 91411, Note_on_c, 0, 77, 59
1, 91474, Note_on_c, 0, 77, 0
1, 91474, Note_on_c, 0, 72, 56
1, 91536, Note_on_c, 0, 72, 0
1, 91536, Note_on_c, 0, 70, 53
1, 91598, Note_on_c, 0, 70, 0
1, 91598, Note_on_c, 0, 73, 51
1, 91661, Note_on_c, 0, 73, 0
1, 91661, Note_on_c, 0, 75, 48
1, 91723, Note_on_c, 0, 75, 0
1, 91723, Control_c, 0, 64, 127
1, 91723, Control_c, 0, 64, 127
1, 91726, Note_on_c, 0, 37, 0
1, 91726, Note_on_c, 0, 65, 75
1, 91752, Note_on_c, 0, 68, 0
1, 91948, Note_on_c, 0, 78, 60
1, 92010, Note_on_c, 0, 78, 0
1, 92010, Note_on_c, 0, 82, 64
1, 92073, Note_on_c, 0, 82, 0
1, 92073, Note_on_c, 0, 85, 67
1, 92135, Note_on_c, 0, 85, 0
1, 92135, Note_on_c, 0, 92, 71
1, 92197, Note_on_c, 0, 92, 0
1, 92197, Note_on_c, 0, 89, 71
1, 92260, Note_on_c, 0, 89, 0
1, 92260, Note_on_c, 0, 84, 68
1, 92322, Note_on_c, 0, 84, 0
1, 92322, Note_on_c, 0, 82, 65
1, 92384, Note_on_c, 0, 82, 0
1, 92384, Note_on_c, 0, 85, 63
1, 92447, Note_on_c, 0, 85, 0
1, 92447, Note_on_c, 0, 87, 60
1, 92510, Note_on_c, 0, 87, 0
1, 92510, Note_on_c, 0, 63, 69
1, 92570, Note_on_c, 0, 65, 0
1, 92790, Note_on_c, 0, 75, 62
1, 92865, Note_on_c, 0, 75, 0
1, 92865, Note_on_c, 0, 73, 61
1, 92940, Note_on_c, 0, 73, 0
1, 92940, Note_on_c, 0, 70, 59
1, 93015, Note_on_c, 0, 70, 0
1, 93015, Note_on_c, 0, 68, 58
1, 93090, Note_on_c, 0, 68, 0
1, 93090, Note_on_c, 0, 65, 57
1, 93165, Note_on_c, 0, 65, 0
1, 93165, Note_on_c, 0, 60, 55
1, 93240, Note_on_c, 0, 60, 0
1, 93240, Note_on_c, 0, 63, 54
1, 93240, Note_on_c, 0, 44, 52
1, 93320, Note_on_c, 0, 63, 0
1, 93320, Note_on_c, 0, 61, 53
1, 93400, Note_on_c, 0, 61, 0
1, 93400, Note_on_c, 0, 58, 52
1, 93480, Note_on_c, 0, 58, 0
1, 93480, Note_on_c, 0, 54, 51
1, 93558, Control_c, 0, 64, 127
1, 93558, Control_c, 0, 64, 127
1, 93561, Note_on_c, 0, 54, 0
1, 93561, Note_on_c, 0, 63, 0
1, 93561, Note_on_c, 0, 37, 52
1, 93721, Control_c, 0, 64, 0
1, 93721, Control_c, 0, 64, 0
1, 93881, Note_on_c, 0, 53, 49
1, 93940, Control_c, 0, 64, 127
1, 93940, Control_c, 0, 64, 127
1, 93956, Note_on_c, 0, 53, 0
1, 93956, Note_on_c, 0, 56, 51
1, 94031, Note_on_c, 0, 56, 0
1, 94031, Note_on_c, 0, 63, 59
1, 94106, Note_on_c, 0, 63, 0
1, 94106, Note_on_c, 0, 70, 71
1, 94199, Note_on_c, 0, 70, 0
1, 94199, Note_on_c, 0, 65, 55
1, 94294, Note_on_c, 0, 65, 0
1, 94294, Note_on_c, 0, 61, 52
1, 94368, Note_on_c, 0, 61, 0
1, 94368, Note_on_c, 0, 60, 49
1, 94443, Note_on_c, 0, 60, 0
1, 94443, Note_on_c, 0, 63, 49
1, 94518, Note_on_c, 0, 63, 0
1, 94518, Note_on_c, 0, 65, 43
1, 94625, Note_on_c, 0, 65, 0
1, 94625, Note_on_c, 0, 37, 0
1, 94625, Note_on_c, 0, 44, 0
1, 94628, Note_on_c, 0, 58, 51
1, 94628, Note_on_c, 0, 61, 51
1, 94628, Note_on_c, 0, 65, 67
1, 94906, Note_on_c, 0, 65, 55
1, 94968, Note_on_c, 0, 65, 0
1, 94968, Note_on_c, 0, 68, 59
1, 95031, Note_on_c, 0, 68, 0
1, 95031, Note_on_c, 0, 75, 62
1, 95093, Note_on_c, 0, 75, 0
1, 95093, Note_on_c, 0, 58, 0
1, 95093, Note_on_c, 0, 82, 78
1, 95096, Note_on_c, 0, 65, 0
1, 95096, Note_on_c, 0, 61, 0
1, 95186, Note_on_c, 0, 82, 0
1, 95186, Note_on_c, 0, 77, 66
1, 95262, Note_on_c, 0, 77, 0
1, 95262, Note_on_c, 0, 73, 63
1, 95336, Note_on_c, 0, 73, 0
1, 95336, Note_on_c, 0, 72, 60
1, 95411, Note_on_c, 0, 72, 0
1, 95411, Note_on_c, 0, 75, 58
1, 95486, Note_on_c, 0, 75, 0
1, 95486, Note_on_c, 0, 77, 55
1, 95593, Note_on_c, 0, 77, 0
1, 95593, Control_c, 0, 64, 127
1, 95593, Control_c, 0, 64, 127
1, 95596, Note_on_c, 0, 70, 51
1, 95596, Note_on_c, 0, 73, 51
1, 95596, Note_on_c, 0, 77, 67
1, 95817, Note_on_c, 0, 77, 60
1, 95892, Note_on_c, 0, 77, 0
1, 95892, Note_on_c, 0, 80, 64
1, 95967, Note_on_c, 0, 80, 0
1, 95967, Note_on_c, 0, 87, 67
1, 96042, Note_on_c, 0, 87, 0
1, 96042, Note_on_c, 0, 70, 0
1, 96042, Note_on_c, 0, 94, 75
1, 96045, Note_on_c, 0, 77, 0
1, 96045, Note_on_c, 0, 73, 0
1, 96135, Note_on_c, 0, 94, 0
1, 96135, Note_on_c, 0, 89, 71
1, 96230, Note_on_c, 0, 89, 0
1, 96230, Note_on_c, 0, 85, 68
1, 96304, Note_on_c, 0, 85, 0
1, 96304, Note_on_c, 0, 84, 65
1, 96379, Note_on_c, 0, 84, 0
1, 96379, Note_on_c, 0, 87, 63
1, 96473, Note_on_c, 0, 87, 0
1, 96473, Note_on_c, 0, 89, 73
1, 96753, Note_on_c, 0, 89, 0
1, 96753, Note_on_c, 0, 85, 57
1, 96861, Note_on_c, 0, 85, 0
1, 96861, Note_on_c, 0, 82, 59
1, 96954, Note_on_c, 0, 82, 0
1, 96954, Note_on_c, 0, 85, 61
1, 97047, Note_on_c, 0, 85, 0
1, 97047, Note_on_c, 0, 82, 63
1, 97141, Note_on_c, 0, 82, 0
1, 97141, Note_on_c, 0, 77, 61
1, 97216, Note_on_c, 0, 77, 0
1, 97216, Note_on_c, 0, 82, 59
1, 97291, Note_on_c, 0, 82, 0
1, 97291, Note_on_c, 0, 77, 57
1, 97366, Note_on_c, 0, 77, 0
1, 97366, Note_on_c, 0, 73, 55
1, 97441, Note_on_c, 0, 73, 0
1, 97441, Note_on_c, 0, 77, 53
1, 97515, Note_on_c, 0, 77, 0
1, 97515, Note_on_c, 0, 73, 51
1, 97591, Note_on_c, 0, 73, 0
1, 97591, Note_on_c, 0, 70, 49
1, 97697, Control_c, 0, 64, 127
1, 97697, Control_c, 0, 64, 0
1, 97697, Control_c, 0, 64, 0
1, 97700, Note_on_c, 0, 70, 0
1, 97700, Note_on_c, 0, 77, 63
1, 97700, Control_c, 0, 64, 127
1, 97703, Control_c, 0, 64, 0
1, 97703, Note_on_c, 0, 31, 40
1, 97703, Note_on_c, 0, 43, 63
1, 97749, Control_c, 0, 64, 0
1, 97749, Control_c, 0, 64, 0
1, 97790, Note_on_c, 0, 73, 57
1, 97833, Control_c, 0, 64, 127
1, 97833, Control_c, 0, 64, 127
1, 97885, Note_on_c, 0, 73, 0
1, 97885, Note_on_c, 0, 70, 58
1, 97959, Note_on_c, 0, 70, 0
1, 97959, Note_on_c, 0, 77, 0
1, 97959, Note_on_c, 0, 73, 63
1, 98034, Note_on_c, 0, 73, 0
1, 98034, Note_on_c, 0, 70, 54
1, 98061, Control_c, 0, 64, 127
1, 98061, Control_c, 0, 64, 127
1, 98109, Note_on_c, 0, 70, 0
1, 98109, Note_on_c, 0, 65, 55
1, 98184, Note_on_c, 0, 65, 0
1, 98184, Note_on_c, 0, 70, 58
1, 98184, Note_on_c, 0, 33, 47
1, 98187, Note_on_c, 0, 45, 66
1, 98201, Control_c, 0, 64, 0
1, 98201, Control_c, 0, 64, 0
1, 98208, Note_on_c, 0, 43, 0
1, 98208, Note_on_c, 0, 31, 0
1, 98246, Note_on_c, 0, 65, 54
1, 98281, Control_c, 0, 64, 127
1, 98281, Control_c, 0, 64, 127
1, 98309, Note_on_c, 0, 65, 0
1, 98309, Note_on_c, 0, 61, 55
1, 98371, Note_on_c, 0, 61, 0
1, 98371, Note_on_c, 0, 70, 0
1, 98371, Note_on_c, 0, 65, 62
1, 98433, Note_on_c, 0, 65, 0
1, 98433, Note_on_c, 0, 61, 58
1, 98496, Note_on_c, 0, 61, 0
1, 98496, Note_on_c, 0, 58, 59
1, 98558, Note_on_c, 0, 58, 0
1, 98558, Note_on_c, 0, 53, 64
1, 98621, Note_on_c, 0, 53, 0
1, 98621, Note_on_c, 0, 58, 61
1, 98683, Note_on_c, 0, 58, 0
1, 98683, Note_on_c, 0, 61, 62
1, 98746, Note_on_c, 0, 61, 0
1, 98746, Note_on_c, 0, 58, 68
1, 98746, Note_on_c, 0, 31, 54
1, 98749, Note_on_c, 0, 43, 68
1, 98757, Control_c, 0, 64, 0
1, 98757, Control_c, 0, 64, 0
1, 98770, Note_on_c, 0, 33, 0
1, 98770, Note_on_c, 0, 45, 0
1, 98808, Note_on_c, 0, 61, 64
1, 98836, Control_c, 0, 64, 127
1, 98836, Control_c, 0, 64, 127
1, 98871, Note_on_c, 0, 61, 0
1, 98871, Note_on_c, 0, 65, 65
1, 98933, Note_on_c, 0, 65, 0
1, 98933, Note_on_c, 0, 58, 0
1, 98933, Note_on_c, 0, 61, 71
1, 98995, Note_on_c, 0, 61, 0
1, 98995, Note_on_c, 0, 65, 68
1, 99058, Note_on_c, 0, 65, 0
1, 99058, Note_on_c, 0, 70, 71
1, 99120, Note_on_c, 0, 70, 0
1, 99120, Note_on_c, 0, 65, 73
1, 99120, Note_on_c, 0, 33, 54
1, 99123, Note_on_c, 0, 45, 66
1, 99149, Note_on_c, 0, 31, 0
1, 99149, Note_on_c, 0, 43, 0
1, 99195, Note_on_c, 0, 65, 0
1, 99195, Note_on_c, 0, 70, 70
1, 99270, Note_on_c, 0, 70, 0
1, 99270, Note_on_c, 0, 73, 73
1, 99345, Note_on_c, 0, 73, 0
1, 99345, Control_c, 0, 64, 127
1, 99345, Control_c, 0, 64, 0
1, 99348, Note_on_c, 0, 77, 71
1, 99348, Control_c, 0, 64, 127
1, 99348, Note_on_c, 0, 35, 59
1, 99351, Note_on_c, 0, 47, 70
1, 99386, Note_on_c, 0, 33, 0
1, 99386, Note_on_c, 0, 45, 0
1, 99392, Control_c, 0, 64, 0
1, 99392, Control_c, 0, 64, 0
1, 99451, Note_on_c, 0, 73, 68
1, 99479, Control_c, 0, 64, 127
1, 99479, Control_c, 0, 64, 127
1, 99559, Note_on_c, 0, 73, 0
1, 99559, Note_on_c, 0, 69, 68
1, 99652, Note_on_c, 0, 69, 0
1, 99652, Note_on_c, 0, 77, 0
1, 99652, Note_on_c, 0, 73, 69
1, 99727, Note_on_c, 0, 73, 0
1, 99727, Note_on_c, 0, 69, 65
1, 99802, Note_on_c, 0, 69, 0
1, 99802, Note_on_c, 0, 65, 65
1, 99864, Note_on_c, 0, 65, 0
1, 99864, Note_on_c, 0, 69, 68
1, 99864, Note_on_c, 0, 37, 61
1, 99867, Note_on_c, 0, 49, 72
1, 99889, Note_on_c, 0, 35, 0
1, 99889, Note_on_c, 0, 47, 0
1, 99927, Note_on_c, 0, 69, 0
1, 99927, Note_on_c, 0, 65, 62
1, 99989, Note_on_c, 0, 65, 0
1, 99989, Note_on_c, 0, 61, 64
1, 100052, Note_on_c, 0, 61, 0
1, 100052, Note_on_c, 0, 65, 68
1, 100114, Note_on_c, 0, 65, 0
1, 100114, Note_on_c, 0, 61, 64
1, 100177, Note_on_c, 0, 61, 0
1, 100177, Note_on_c, 0, 57, 63
1, 100239, Note_on_c, 0, 57, 0
1, 100239, Note_on_c, 0, 53, 68
1, 100301, Note_on_c, 0, 53, 0
1, 100301, Note_on_c, 0, 57, 64
1, 100364, Note_on_c, 0, 57, 0
1, 100364, Note_on_c, 0, 61, 65
1, 100426, Note_on_c, 0, 61, 0
1, 100426, Note_on_c, 0, 57, 72
1, 100426, Note_on_c, 0, 39, 66
1, 100429, Note_on_c, 0, 51, 76
1, 100450, Note_on_c, 0, 37, 0
1, 100450, Note_on_c, 0, 49, 0
1, 100488, Note_on_c, 0, 57, 0
1, 100488, Note_on_c, 0, 61, 68
1, 100551, Note_on_c, 0, 61, 0
1, 100551, Note_on_c, 0, 65, 70
1, 100613, Note_on_c, 0, 65, 0
1, 100613, Note_on_c, 0, 61, 76
1, 100675, Note_on_c, 0, 61, 0
1, 100675, Note_on_c, 0, 65, 73
1, 100738, Note_on_c, 0, 65, 0
1, 100738, Note_on_c, 0, 69, 75
1, 100800, Note_on_c, 0, 69, 0
1, 100800, Note_on_c, 0, 65, 80
1, 100800, Note_on_c, 0, 41, 62
1, 100803, Note_on_c, 0, 53, 79
1, 100825, Note_on_c, 0, 39, 0
1, 100825, Note_on_c, 0, 51, 0
1, 100863, Note_on_c, 0, 65, 0
1, 100863, Note_on_c, 0, 69, 78
1, 100925, Note_on_c, 0, 69, 0
1, 100925, Note_on_c, 0, 73, 74
1, 100957, Control_c, 0, 64, 0
1, 100957, Control_c, 0, 64, 0
1, 100988, Control_c, 0, 64, 127
1, 100988, Control_c, 0, 64, 0
1, 100988, Control_c, 0, 64, 0
1, 100991, Note_on_c, 0, 73, 0
1, 100991, Control_c, 0, 64, 0
1, 100991, Note_on_c, 0, 77, 71
1, 100994, Control_c, 0, 64, 127
1, 100994, Control_c, 0, 64, 0
1, 100994, Control_c, 0, 64, 0
1, 100997, Note_on_c, 0, 43, 63
1, 100997, Note_on_c, 0, 55, 83
1, 101012, Note_on_c, 0, 41, 0
1, 101012, Note_on_c, 0, 53, 0
1, 101022, Control_c, 0, 64, 0
1, 101022, Control_c, 0, 64, 0
1, 101050, Note_on_c, 0, 73, 71
1, 101078, Control_c, 0, 64, 127
1, 101078, Control_c, 0, 64, 127
1, 101113, Note_on_c, 0, 73, 0
1, 101113, Note_on_c, 0, 70, 70
1, 101175, Note_on_c, 0, 70, 0
1, 101175, Note_on_c, 0, 77, 0
1, 101175, Note_on_c, 0, 73, 75
1, 101237, Note_on_c, 0, 73, 0
1, 101237, Note_on_c, 0, 70, 69
1, 101260, Control_c, 0, 64, 127
1, 101260, Control_c, 0, 64, 127
1, 101300, Note_on_c, 0, 70, 0
1, 101300, Note_on_c, 0, 65, 67
1, 101362, Note_on_c, 0, 65, 0
1, 101362, Note_on_c, 0, 70, 72
1, 101362, Note_on_c, 0, 45, 69
1, 101365, Note_on_c, 0, 57, 85
1, 101379, Control_c, 0, 64, 0
1, 101379, Control_c, 0, 64, 0
1, 101386, Note_on_c, 0, 43, 0
1, 101386, Note_on_c, 0, 55, 0
1, 101424, Note_on_c, 0, 65, 65
1, 101459, Control_c, 0, 64, 127
1, 101459, Control_c, 0, 64, 127
1, 101487, Note_on_c, 0, 65, 0
1, 101487, Note_on_c, 0, 70, 0
1, 101487, Note_on_c, 0, 61, 64
1, 101549, Note_on_c, 0, 61, 0
1, 101549, Note_on_c, 0, 65, 69
1, 101611, Note_on_c, 0, 65, 0
1, 101611, Note_on_c, 0, 61, 62
1, 101674, Note_on_c, 0, 61, 0
1, 101674, Note_on_c, 0, 58, 61
1, 101736, Note_on_c, 0, 58, 0
1, 101736, Note_on_c, 0, 61, 68
1, 101799, Note_on_c, 0, 61, 0
1, 101799, Note_on_c, 0, 65, 64
1, 101861, Note_on_c, 0, 65, 0
1, 101861, Note_on_c, 0, 70, 66
1, 101924, Note_on_c, 0, 70, 0
1, 101924, Note_on_c, 0, 65, 74
1, 101924, Note_on_c, 0, 43, 76
1, 101927, Note_on_c, 0, 55, 89
1, 101935, Control_c, 0, 64, 0
1, 101935, Control_c, 0, 64, 0
1, 101948, Note_on_c, 0, 45, 0
1, 101948, Note_on_c, 0, 57, 0
1, 101986, Note_on_c, 0, 70, 71
1, 102014, Control_c, 0, 64, 127
1, 102014, Control_c, 0, 64, 127
1, 102049, Note_on_c, 0, 70, 0
1, 102049, Note_on_c, 0, 65, 0
1, 102049, Note_on_c, 0, 73, 72
1, 102111, Note_on_c, 0, 73, 0
1, 102111, Note_on_c, 0, 70, 82
1, 102173, Note_on_c, 0, 70, 0
1, 102173, Note_on_c, 0, 73, 77
1, 102236, Note_on_c, 0, 73, 0
1, 102236, Note_on_c, 0, 77, 80
1, 102298, Note_on_c, 0, 77, 0
1, 102298, Note_on_c, 0, 73, 88
1, 102298, Note_on_c, 0, 45, 82
1, 102301, Note_on_c, 0, 57, 92
1, 102327, Note_on_c, 0, 43, 0
1, 102327, Note_on_c, 0, 55, 0
1, 102373, Note_on_c, 0, 73, 0
1, 102373, Note_on_c, 0, 77, 85
1, 102448, Note_on_c, 0, 77, 0
1, 102448, Note_on_c, 0, 82, 85
1, 102523, Control_c, 0, 64, 127
1, 102523, Control_c, 0, 64, 0
1, 102523, Control_c, 0, 64, 0
1, 102526, Note_on_c, 0, 82, 0
1, 102526, Note_on_c, 0, 81, 82
1, 102526, Control_c, 0, 64, 127
1, 102529, Control_c, 0, 64, 0
1, 102529, Note_on_c, 0, 47, 86
1, 102529, Note_on_c, 0, 59, 99
1, 102552, Note_on_c, 0, 45, 0
1, 102552, Note_on_c, 0, 57, 0
1, 102556, Control_c, 0, 64, 0
1, 102556, Control_c, 0, 64, 0
1, 102597, Note_on_c, 0, 77, 87
1, 102613, Control_c, 0, 64, 127
1, 102613, Control_c, 0, 64, 127
1, 102660, Note_on_c, 0, 77, 0
1, 102660, Note_on_c, 0, 73, 84
1, 102722, Note_on_c, 0, 73, 0
1, 102722, Note_on_c, 0, 81, 0
1, 102722, Note_on_c, 0, 77, 90
1, 102784, Note_on_c, 0, 77, 0
1, 102784, Note_on_c, 0, 73, 80
1, 102847, Note_on_c, 0, 73, 0
1, 102847, Note_on_c, 0, 69, 78
1, 102910, Note_on_c, 0, 69, 0
1, 102910, Note_on_c, 0, 73, 83
1, 102910, Note_on_c, 0, 49, 86
1, 102913, Note_on_c, 0, 61, 98
1, 102934, Note_on_c, 0, 47, 0
1, 102934, Note_on_c, 0, 59, 0
1, 102972, Note_on_c, 0, 73, 0
1, 102972, Note_on_c, 0, 69, 73
1, 103035, Note_on_c, 0, 69, 0
1, 103035, Note_on_c, 0, 65, 71
1, 103097, Note_on_c, 0, 65, 0
1, 103097, Note_on_c, 0, 69, 77
1, 103159, Note_on_c, 0, 69, 0
1, 103159, Note_on_c, 0, 65, 67
1, 103222, Note_on_c, 0, 65, 0
1, 103222, Note_on_c, 0, 61, 63
1, 103284, Note_on_c, 0, 61, 0
1, 103284, Note_on_c, 0, 65, 72
1, 103346, Note_on_c, 0, 65, 0
1, 103346, Note_on_c, 0, 69, 67
1, 103409, Note_on_c, 0, 69, 0
1, 103409, Note_on_c, 0, 73, 69
1, 103471, Note_on_c, 0, 73, 0
1, 103471, Note_on_c, 0, 69, 81
1, 103471, Note_on_c, 0, 51, 91
1, 103474, Note_on_c, 0, 63, 103
1, 103495, Note_on_c, 0, 49, 0
1, 103495, Note_on_c, 0, 61, 0
1, 103533, Note_on_c, 0, 69, 0
1, 103533, Note_on_c, 0, 73, 75
1, 103596, Note_on_c, 0, 73, 0
1, 103596, Note_on_c, 0, 77, 78
1, 103658, Note_on_c, 0, 77, 0
1, 103658, Note_on_c, 0, 73, 88
1, 103720, Note_on_c, 0, 73, 0
1, 103720, Note_on_c, 0, 77, 83
1, 103783, Note_on_c, 0, 77, 0
1, 103783, Note_on_c, 0, 81, 86
1, 103846, Note_on_c, 0, 81, 0
1, 103846, Note_on_c, 0, 77, 97
1, 103846, Note_on_c, 0, 53, 95
1, 103849, Note_on_c, 0, 65, 107
1, 103870, Note_on_c, 0, 51, 0
1, 103870, Note_on_c, 0, 63, 0
1, 103908, Note_on_c, 0, 77, 0
1, 103908, Note_on_c, 0, 81, 92
1, 103961, Control_c, 0, 64, 127
1, 103961, Control_c, 0, 64, 127
1, 103971, Note_on_c, 0, 81, 0
1, 103971, Note_on_c, 0, 85, 96
1, 104077, Note_on_c, 0, 85, 0
1, 104077, Control_c, 0, 64, 127
1, 104077, Note_on_c, 0, 89, 94
1, 104080, Control_c, 0, 64, 127
1, 104080, Control_c, 0, 64, 0
1, 104080, Note_on_c, 0, 55, 98
1, 104083, Note_on_c, 0, 67, 107
1, 104083, Note_on_c, 0, 58, 89
1, 104083, Note_on_c, 0, 61, 89
1, 104086, Note_on_c, 0, 65, 98
1, 104106, Note_on_c, 0, 53, 0
1, 104106, Control_c, 0, 64, 0
1, 104106, Control_c, 0, 64, 0
1, 104109, Note_on_c, 0, 65, 0
1, 104152, Note_on_c, 0, 85, 93
1, 104168, Control_c, 0, 64, 127
1, 104168, Control_c, 0, 64, 127
1, 104227, Note_on_c, 0, 82, 90
1, 104302, Note_on_c, 0, 82, 0
1, 104302, Note_on_c, 0, 85, 0
1, 104302, Note_on_c, 0, 89, 0
1, 104305, Note_on_c, 0, 85, 97
1, 104376, Note_on_c, 0, 85, 0
1, 104376, Note_on_c, 0, 82, 86
1, 104452, Note_on_c, 0, 82, 0
1, 104452, Note_on_c, 0, 77, 84
1, 104526, Note_on_c, 0, 77, 0
1, 104526, Note_on_c, 0, 55, 0
1, 104526, Note_on_c, 0, 82, 90
1, 104529, Note_on_c, 0, 67, 0
1, 104529, Note_on_c, 0, 57, 95
1, 104529, Note_on_c, 0, 69, 107
1, 104589, Note_on_c, 0, 82, 0
1, 104589, Note_on_c, 0, 77, 79
1, 104651, Note_on_c, 0, 77, 0
1, 104651, Note_on_c, 0, 73, 77
1, 104714, Note_on_c, 0, 73, 0
1, 104714, Note_on_c, 0, 77, 84
1, 104776, Note_on_c, 0, 77, 0
1, 104776, Note_on_c, 0, 73, 73
1, 104839, Note_on_c, 0, 73, 0
1, 104839, Note_on_c, 0, 70, 68
1, 104901, Note_on_c, 0, 70, 0
1, 104901, Note_on_c, 0, 65, 79
1, 104963, Note_on_c, 0, 65, 0
1, 104963, Note_on_c, 0, 70, 73
1, 105026, Note_on_c, 0, 70, 0
1, 105026, Note_on_c, 0, 73, 76
1, 105088, Note_on_c, 0, 73, 0
1, 105088, Note_on_c, 0, 57, 0
1, 105088, Note_on_c, 0, 70, 90
1, 105091, Note_on_c, 0, 69, 0
1, 105091, Note_on_c, 0, 55, 99
1, 105091, Note_on_c, 0, 67, 111
1, 105150, Note_on_c, 0, 70, 0
1, 105150, Note_on_c, 0, 73, 83
1, 105213, Note_on_c, 0, 73, 0
1, 105213, Note_on_c, 0, 77, 87
1, 105275, Note_on_c, 0, 77, 0
1, 105275, Note_on_c, 0, 73, 99
1, 105337, Note_on_c, 0, 73, 0
1, 105337, Note_on_c, 0, 77, 93
1, 105400, Note_on_c, 0, 77, 0
1, 105400, Note_on_c, 0, 82, 97
1, 105462, Note_on_c, 0, 82, 0
1, 105462, Note_on_c, 0, 55, 0
1, 105462, Note_on_c, 0, 77, 107
1, 105465, Note_on_c, 0, 67, 0
1, 105465, Note_on_c, 0, 57, 100
1, 105465, Note_on_c, 0, 69, 112
1, 105537, Note_on_c, 0, 77, 0
1, 105537, Note_on_c, 0, 82, 105
1, 105612, Note_on_c, 0, 82, 0
1, 105612, Note_on_c, 0, 85, 110
1, 105719, Note_on_c, 0, 85, 0
1, 105719, Control_c, 0, 64, 127
1, 105719, Control_c, 0, 64, 127
1, 105722, Note_on_c, 0, 58, 0
1, 105722, Note_on_c, 0, 61, 0
1, 105722, Control_c, 0, 64, 0
1, 105725, Note_on_c, 0, 65, 0
1, 105725, Note_on_c, 0, 57, 0
1, 105725, Note_on_c, 0, 69, 0
1, 105728, Note_on_c, 0, 59, 109
1, 105750, Control_c, 0, 64, 0
1, 105750, Control_c, 0, 64, 0
1, 105777, Control_c, 0, 64, 0
1, 105777, Control_c, 0, 64, 0
1, 105799, Note_on_c, 0, 61, 75
1, 105834, Control_c, 0, 64, 127
1, 105834, Control_c, 0, 64, 127
1, 105855, Note_on_c, 0, 61, 0
1, 105855, Note_on_c, 0, 65, 77
1, 105912, Note_on_c, 0, 65, 0
1, 105912, Note_on_c, 0, 69, 79
1, 105968, Note_on_c, 0, 69, 0
1, 105968, Note_on_c, 0, 71, 81
1, 106024, Note_on_c, 0, 71, 0
1, 106024, Note_on_c, 0, 73, 83
1, 106080, Note_on_c, 0, 73, 0
1, 106080, Note_on_c, 0, 77, 85
1, 106136, Note_on_c, 0, 77, 0
1, 106136, Note_on_c, 0, 81, 87
1, 106192, Note_on_c, 0, 81, 0
1, 106192, Note_on_c, 0, 71, 82
1, 106239, Note_on_c, 0, 71, 0
1, 106239, Note_on_c, 0, 73, 86
1, 106286, Note_on_c, 0, 73, 0
1, 106286, Note_on_c, 0, 77, 90
1, 106333, Note_on_c, 0, 77, 0
1, 106333, Note_on_c, 0, 81, 94
1, 106380, Note_on_c, 0, 81, 0
1, 106380, Note_on_c, 0, 83, 98
1, 106426, Note_on_c, 0, 83, 0
1, 106426, Note_on_c, 0, 85, 101
1, 106473, Note_on_c, 0, 85, 0
1, 106473, Note_on_c, 0, 89, 105
1, 106520, Note_on_c, 0, 89, 0
1, 106520, Note_on_c, 0, 93, 109
1, 106567, Note_on_c, 0, 93, 0
1, 106567, Note_on_c, 0, 95, 113
1, 106623, Note_on_c, 0, 95, 0
1, 106623, Note_on_c, 0, 93, 109
1, 106679, Note_on_c, 0, 93, 0
1, 106679, Note_on_c, 0, 89, 105
1, 106724, Note_on_c, 0, 89, 0
1, 106724, Note_on_c, 0, 85, 102
1, 106769, Note_on_c, 0, 85, 0
1, 106769, Note_on_c, 0, 83, 98
1, 106806, Note_on_c, 0, 83, 0
1, 106806, Note_on_c, 0, 81, 94
1, 106853, Note_on_c, 0, 81, 0
1, 106853, Note_on_c, 0, 77, 89
1, 106900, Note_on_c, 0, 77, 0
1, 106900, Note_on_c, 0, 73, 85
1, 106947, Note_on_c, 0, 73, 0
1, 106947, Note_on_c, 0, 71, 80
1, 106994, Note_on_c, 0, 71, 0
1, 106994, Note_on_c, 0, 81, 87
1, 107040, Note_on_c, 0, 81, 0
1, 107040, Note_on_c, 0, 77, 84
1, 107087, Note_on_c, 0, 77, 0
1, 107087, Note_on_c, 0, 73, 81
1, 107134, Note_on_c, 0, 73, 0
1, 107134, Note_on_c, 0, 71, 78
1, 107181, Note_on_c, 0, 71, 0
1, 107181, Note_on_c, 0, 69, 75
1, 107243, Note_on_c, 0, 69, 0
1, 107243, Note_on_c, 0, 65, 71
1, 107306, Note_on_c, 0, 65, 0
1, 107306, Note_on_c, 0, 61, 67
1, 107368, Note_on_c, 0, 61, 0
1, 107368, Control_c, 0, 64, 127
1, 107368, Control_c, 0, 64, 127
1, 107371, Note_on_c, 0, 59, 0
1, 107371, Note_on_c, 0, 59, 97
1, 107415, Note_on_c, 0, 61, 75
1, 107471, Note_on_c, 0, 61, 0
1, 107471, Note_on_c, 0, 65, 77
1, 107527, Note_on_c, 0, 65, 0
1, 107527, Note_on_c, 0, 69, 79
1, 107583, Note_on_c, 0, 69, 0
1, 107583, Note_on_c, 0, 71, 81
1, 107639, Note_on_c, 0, 71, 0
1, 107639, Note_on_c, 0, 73, 83
1, 107696, Note_on_c, 0, 73, 0
1, 107696, Note_on_c, 0, 77, 85
1, 107752, Note_on_c, 0, 77, 0
1, 107752, Note_on_c, 0, 81, 87
1, 107808, Note_on_c, 0, 81, 0
1, 107808, Note_on_c, 0, 71, 82
1, 107855, Note_on_c, 0, 71, 0
1, 107855, Note_on_c, 0, 73, 86
1, 107901, Note_on_c, 0, 73, 0
1, 107901, Note_on_c, 0, 77, 90
1, 107948, Note_on_c, 0, 77, 0
1, 107948, Note_on_c, 0, 81, 94
1, 107995, Note_on_c, 0, 81, 0
1, 107995, Note_on_c, 0, 83, 98
1, 108042, Note_on_c, 0, 83, 0
1, 108042, Note_on_c, 0, 85, 101
1, 108089, Note_on_c, 0, 85, 0
1, 108089, Note_on_c, 0, 89, 105
1, 108135, Note_on_c, 0, 89, 0
1, 108135, Note_on_c, 0, 93, 109
1, 108182, Note_on_c, 0, 93, 0
1, 108182, Note_on_c, 0, 95, 113
1, 108238, Note_on_c, 0, 95, 0
1, 108238, Note_on_c, 0, 93, 109
1, 108294, Note_on_c, 0, 93, 0
1, 108294, Note_on_c, 0, 89, 105
1, 108340, Note_on_c, 0, 89, 0
1, 108340, Note_on_c, 0, 85, 102
1, 108384, Note_on_c, 0, 85, 0
1, 108384, Note_on_c, 0, 83, 98
1, 108422, Note_on_c, 0, 83, 0
1, 108422, Note_on_c, 0, 81, 94
1, 108469, Note_on_c, 0, 81, 0
1, 108469, Note_on_c, 0, 77, 89
1, 108515, Note_on_c, 0, 77, 0
1, 108515, Note_on_c, 0, 73, 85
1, 108562, Note_on_c, 0, 73, 0
1, 108562, Note_on_c, 0, 71, 80
1, 108609, Note_on_c, 0, 71, 0
1, 108609, Note_on_c, 0, 81, 87
1, 108656, Note_on_c, 0, 81, 0
1, 108656, Note_on_c, 0, 77, 84
1, 108703, Note_on_c, 0, 77, 0
1, 108703, Note_on_c, 0, 73, 81
1, 108749, Note_on_c, 0, 73, 0
1, 108749, Note_on_c, 0, 71, 78
1, 108796, Note_on_c, 0, 71, 0
1, 108796, Note_on_c, 0, 69, 75
1, 108858, Note_on_c, 0, 69, 0
1, 108858, Note_on_c, 0, 65, 71
1, 108921, Note_on_c, 0, 65, 0
1, 108921, Note_on_c, 0, 61, 67
1, 108983, Note_on_c, 0, 61, 0
1, 108983, Control_c, 0, 64, 127
1, 108983, Control_c, 0, 64, 0
1, 108986, Note_on_c, 0, 59, 0
1, 108986, Control_c, 0, 64, 127
1, 108986, Note_on_c, 0, 59, 82
1, 109039, Control_c, 0, 64, 0
1, 109039, Control_c, 0, 64, 0
1, 109077, Note_on_c, 0, 61, 60
1, 109106, Control_c, 0, 64, 127
1, 109106, Control_c, 0, 64, 127
1, 109171, Note_on_c, 0, 61, 0
1, 109171, Note_on_c, 0, 65, 62
1, 109264, Note_on_c, 0, 65, 0
1, 109264, Note_on_c, 0, 69, 63
1, 109358, Note_on_c, 0, 69, 0
1, 109358, Note_on_c, 0, 71, 65
1, 109451, Note_on_c, 0, 71, 0
1, 109451, Note_on_c, 0, 73, 66
1, 109545, Note_on_c, 0, 73, 0
1, 109545, Note_on_c, 0, 89, 87
1, 109545, Note_on_c, 0, 77, 68
1, 109685, Note_on_c, 0, 77, 0
1, 109685, Note_on_c, 0, 81, 69
1, 109826, Note_on_c, 0, 81, 0
1, 109826, Note_on_c, 0, 89, 0
1, 109826, Note_on_c, 0, 91, 87
1, 109829, Note_on_c, 0, 83, 71
1, 109938, Note_on_c, 0, 83, 0
1, 109938, Note_on_c, 0, 81, 71
1, 110050, Note_on_c, 0, 81, 0
1, 110050, Note_on_c, 0, 77, 69
1, 110144, Note_on_c, 0, 77, 0
1, 110144, Note_on_c, 0, 73, 67
1, 110238, Note_on_c, 0, 73, 0
1, 110238, Note_on_c, 0, 85, 75
1, 110238, Note_on_c, 0, 89, 75
1, 110241, Note_on_c, 0, 71, 65
1, 110331, Note_on_c, 0, 71, 0
1, 110331, Note_on_c, 0, 69, 64
1, 110425, Note_on_c, 0, 69, 0
1, 110425, Note_on_c, 0, 91, 0
1, 110425, Note_on_c, 0, 95, 87
1, 110428, Note_on_c, 0, 65, 62
1, 110565, Note_on_c, 0, 65, 0
1, 110565, Note_on_c, 0, 61, 60
1, 110706, Note_on_c, 0, 89, 0
1, 110706, Note_on_c, 0, 85, 0
1, 110706, Control_c, 0, 64, 127
1, 110709, Note_on_c, 0, 95, 0
1, 110709, Note_on_c, 0, 93, 87
1, 110709, Control_c, 0, 64, 127
1, 110712, Note_on_c, 0, 61, 0
1, 110712, Note_on_c, 0, 59, 0
1, 110712, Note_on_c, 0, 59, 82
1, 110846, Note_on_c, 0, 61, 61
1, 110958, Note_on_c, 0, 61, 0
1, 110958, Note_on_c, 0, 65, 63
1, 111052, Note_on_c, 0, 65, 0
1, 111052, Note_on_c, 0, 93, 0
1, 111052, Note_on_c, 0, 91, 87
1, 111055, Note_on_c, 0, 69, 64
1, 111164, Note_on_c, 0, 69, 0
1, 111164, Note_on_c, 0, 91, 0
1, 111164, Note_on_c, 0, 89, 87
1, 111167, Note_on_c, 0, 71, 66
1, 111277, Note_on_c, 0, 71, 0
1, 111277, Note_on_c, 0, 73, 67
1, 111370, Note_on_c, 0, 73, 0
1, 111370, Note_on_c, 0, 77, 68
1, 111464, Note_on_c, 0, 77, 0
1, 111464, Note_on_c, 0, 81, 70
1, 111557, Note_on_c, 0, 81, 0
1, 111557, Note_on_c, 0, 83, 71
1, 111670, Note_on_c, 0, 83, 0
1, 111670, Note_on_c, 0, 81, 69
1, 111763, Note_on_c, 0, 81, 0
1, 111763, Note_on_c, 0, 77, 68
1, 111857, Note_on_c, 0, 77, 0
1, 111857, Note_on_c, 0, 73, 66
1, 111951, Note_on_c, 0, 73, 0
1, 111951, Note_on_c, 0, 89, 0
1, 111951, Note_on_c, 0, 85, 87
1, 111954, Note_on_c, 0, 71, 65
1, 112044, Note_on_c, 0, 71, 0
1, 112044, Note_on_c, 0, 69, 63
1, 112138, Note_on_c, 0, 69, 0
1, 112138, Note_on_c, 0, 65, 62
1, 112250, Note_on_c, 0, 65, 0
1, 112250, Note_on_c, 0, 61, 60
1, 112434, Control_c, 0, 64, 0
1, 112437, Note_on_c, 0, 85, 0
1, 112437, Control_c, 0, 64, 0
1, 112437, Note_on_c, 0, 90, 87
1, 112440, Note_on_c, 0, 61, 0
1, 112440, Note_on_c, 0, 59, 0
1, 112440, Note_on_c, 0, 59, 75
1, 112537, Control_c, 0, 64, 127
1, 112537, Control_c, 0, 64, 127
1, 112562, Note_on_c, 0, 63, 60
1, 112687, Note_on_c, 0, 63, 0
1, 112687, Note_on_c, 0, 66, 63
1, 112812, Note_on_c, 0, 66, 0
1, 112812, Note_on_c, 0, 69, 66
1, 112936, Note_on_c, 0, 69, 0
1, 112936, Note_on_c, 0, 73, 70
1, 112999, Note_on_c, 0, 73, 0
1, 112999, Note_on_c, 0, 75, 73
1, 113061, Note_on_c, 0, 75, 0
1, 113061, Note_on_c, 0, 78, 76
1, 113123, Note_on_c, 0, 78, 0
1, 113123, Note_on_c, 0, 81, 80
1, 113186, Note_on_c, 0, 81, 0
1, 113186, Note_on_c, 0, 85, 83
1, 113248, Note_on_c, 0, 85, 0
1, 113248, Note_on_c, 0, 87, 86
1, 113310, Note_on_c, 0, 87, 0
1, 113310, Note_on_c, 0, 90, 89
1, 113373, Note_on_c, 0, 90, 0
1, 113373, Note_on_c, 0, 93, 93
1, 113435, Note_on_c, 0, 93, 0
1, 113435, Note_on_c, 0, 97, 96
1, 113510, Note_on_c, 0, 97, 0
1, 113510, Note_on_c, 0, 93, 93
1, 113573, Note_on_c, 0, 93, 0
1, 113573, Note_on_c, 0, 90, 91
1, 113635, Note_on_c, 0, 90, 0
1, 113635, Note_on_c, 0, 87, 87
1, 113697, Note_on_c, 0, 87, 0
1, 113697, Note_on_c, 0, 85, 85
1, 113760, Note_on_c, 0, 85, 0
1, 113760, Note_on_c, 0, 81, 82
1, 113822, Note_on_c, 0, 81, 0
1, 113822, Note_on_c, 0, 78, 79
1, 113884, Note_on_c, 0, 78, 0
1, 113884, Note_on_c, 0, 75, 76
1, 113947, Note_on_c, 0, 75, 0
1, 113947, Note_on_c, 0, 73, 72
1, 114009, Note_on_c, 0, 73, 0
1, 114009, Note_on_c, 0, 69, 70
1, 114072, Note_on_c, 0, 69, 0
1, 114072, Note_on_c, 0, 66, 66
1, 114134, Note_on_c, 0, 66, 0
1, 114134, Note_on_c, 0, 63, 63
1, 114197, Note_on_c, 0, 59, 0
1, 114197, Control_c, 0, 64, 127
1, 114197, Control_c, 0, 64, 127
1, 114200, Note_on_c, 0, 63, 0
1, 114200, Note_on_c, 0, 59, 80
1, 114271, Note_on_c, 0, 63, 62
1, 114334, Note_on_c, 0, 63, 0
1, 114334, Note_on_c, 0, 66, 66
1, 114396, Note_on_c, 0, 66, 0
1, 114396, Note_on_c, 0, 69, 70
1, 114450, Note_on_c, 0, 69, 0
1, 114450, Note_on_c, 0, 73, 74
1, 114503, Note_on_c, 0, 73, 0
1, 114503, Note_on_c, 0, 75, 78
1, 114557, Note_on_c, 0, 75, 0
1, 114557, Note_on_c, 0, 78, 82
1, 114610, Note_on_c, 0, 78, 0
1, 114610, Note_on_c, 0, 81, 85
1, 114664, Note_on_c, 0, 81, 0
1, 114664, Note_on_c, 0, 85, 89
1, 114717, Note_on_c, 0, 85, 0
1, 114717, Note_on_c, 0, 87, 93
1, 114770, Note_on_c, 0, 87, 0
1, 114770, Note_on_c, 0, 90, 97
1, 114824, Note_on_c, 0, 90, 0
1, 114824, Note_on_c, 0, 93, 101
1, 114878, Note_on_c, 0, 93, 0
1, 114878, Note_on_c, 0, 97, 105
1, 114940, Note_on_c, 0, 97, 0
1, 114940, Note_on_c, 0, 93, 101
1, 115003, Note_on_c, 0, 93, 0
1, 115003, Note_on_c, 0, 90, 97
1, 115065, Note_on_c, 0, 90, 0
1, 115065, Note_on_c, 0, 87, 93
1, 115118, Note_on_c, 0, 87, 0
1, 115118, Note_on_c, 0, 85, 89
1, 115172, Note_on_c, 0, 85, 0
1, 115172, Note_on_c, 0, 81, 85
1, 115225, Note_on_c, 0, 81, 0
1, 115225, Note_on_c, 0, 78, 82
1, 115279, Note_on_c, 0, 78, 0
1, 115279, Note_on_c, 0, 75, 78
1, 115332, Note_on_c, 0, 75, 0
1, 115332, Note_on_c, 0, 73, 74
1, 115386, Note_on_c, 0, 73, 0
1, 115386, Note_on_c, 0, 69, 70
1, 115439, Note_on_c, 0, 69, 0
1, 115439, Note_on_c, 0, 66, 66
1, 115493, Note_on_c, 0, 66, 0
1, 115493, Note_on_c, 0, 63, 62
1, 115546, Note_on_c, 0, 90, 0
1, 115546, Control_c, 0, 64, 127
1, 115546, Control_c, 0, 64, 127
1, 115549, Note_on_c, 0, 63, 0
1, 115549, Note_on_c, 0, 59, 0
1, 115549, Note_on_c, 0, 57, 83
1, 115626, Note_on_c, 0, 60, 71
1, 115707, Note_on_c, 0, 60, 0
1, 115707, Note_on_c, 0, 62, 74
1, 115787, Note_on_c, 0, 62, 0
1, 115787, Note_on_c, 0, 66, 78
1, 115867, Note_on_c, 0, 66, 0
1, 115867, Note_on_c, 0, 69, 81
1, 115947, Note_on_c, 0, 69, 0
1, 115947, Note_on_c, 0, 72, 85
1, 116028, Note_on_c, 0, 72, 0
1, 116028, Note_on_c, 0, 74, 89
1, 116108, Note_on_c, 0, 74, 0
1, 116108, Note_on_c, 0, 78, 92
1, 116188, Note_on_c, 0, 78, 0
1, 116188, Note_on_c, 0, 81, 96
1, 116268, Note_on_c, 0, 81, 0
1, 116268, Note_on_c, 0, 78, 95
1, 116348, Note_on_c, 0, 78, 0
1, 116348, Note_on_c, 0, 74, 93
1, 116429, Note_on_c, 0, 74, 0
1, 116429, Note_on_c, 0, 78, 89
1, 116429, Note_on_c, 0, 90, 105
1, 116432, Note_on_c, 0, 72, 92
1, 116509, Note_on_c, 0, 90, 0
1, 116509, Note_on_c, 0, 78, 0
1, 116509, Note_on_c, 0, 80, 89
1, 116512, Note_on_c, 0, 92, 106
1, 116512, Note_on_c, 0, 84, 89
1, 116512, Note_on_c, 0, 86, 89
1, 116515, Note_on_c, 0, 72, 0
1, 116515, Note_on_c, 0, 69, 91
1, 116621, Note_on_c, 0, 69, 0
1, 116621, Note_on_c, 0, 66, 90
1, 116734, Note_on_c, 0, 66, 0
1, 116734, Note_on_c, 0, 62, 89
1, 116846, Note_on_c, 0, 92, 0
1, 116846, Note_on_c, 0, 80, 0
1, 116846, Note_on_c, 0, 83, 90
1, 116849, Note_on_c, 0, 62, 0
1, 116849, Note_on_c, 0, 95, 107
1, 116849, Note_on_c, 0, 60, 87
1, 116939, Note_on_c, 0, 86, 0
1, 116939, Note_on_c, 0, 84, 0
1, 116939, Control_c, 0, 64, 127
1, 116942, Note_on_c, 0, 83, 0
1, 116942, Note_on_c, 0, 95, 0
1, 116942, Note_on_c, 0, 81, 91
1, 116945, Note_on_c, 0, 93, 108
1, 116945, Note_on_c, 0, 84, 91
1, 116945, Note_on_c, 0, 87, 91
1, 116948, Note_on_c, 0, 57, 0
1, 116948, Control_c, 0, 64, 127
1, 116948, Control_c, 0, 64, 0
1, 116951, Note_on_c, 0, 60, 0
1, 116951, Note_on_c, 0, 56, 99
1, 116993, Control_c, 0, 64, 0
1, 116993, Control_c, 0, 64, 0
1, 117046, Control_c, 0, 64, 127
1, 117046, Control_c, 0, 64, 127
1, 117052, Note_on_c, 0, 60, 81
1, 117132, Note_on_c, 0, 60, 0
1, 117132, Note_on_c, 0, 63, 84
1, 117212, Note_on_c, 0, 81, 0
1, 117212, Note_on_c, 0, 93, 0
1, 117212, Note_on_c, 0, 80, 91
1, 117215, Note_on_c, 0, 63, 0
1, 117215, Note_on_c, 0, 92, 109
1, 117215, Note_on_c, 0, 66, 87
1, 117292, Note_on_c, 0, 92, 0
1, 117292, Note_on_c, 0, 80, 0
1, 117292, Note_on_c, 0, 78, 91
1, 117295, Note_on_c, 0, 66, 0
1, 117295, Note_on_c, 0, 90, 109
1, 117295, Note_on_c, 0, 69, 90
1, 117373, Note_on_c, 0, 69, 0
1, 117373, Note_on_c, 0, 72, 94
1, 117443, Note_on_c, 0, 72, 0
1, 117443, Note_on_c, 0, 75, 97
1, 117513, Note_on_c, 0, 75, 0
1, 117513, Note_on_c, 0, 78, 100
1, 117583, Note_on_c, 0, 78, 0
1, 117583, Note_on_c, 0, 81, 103
1, 117654, Note_on_c, 0, 81, 0
1, 117654, Note_on_c, 0, 78, 101
1, 117724, Note_on_c, 0, 78, 0
1, 117724, Note_on_c, 0, 75, 98
1, 117794, Note_on_c, 0, 75, 0
1, 117794, Note_on_c, 0, 72, 96
1, 117864, Note_on_c, 0, 78, 0
1, 117864, Note_on_c, 0, 90, 0
1, 117864, Note_on_c, 0, 75, 101
1, 117867, Note_on_c, 0, 72, 0
1, 117867, Note_on_c, 0, 87, 113
1, 117867, Note_on_c, 0, 69, 94
1, 117958, Note_on_c, 0, 69, 0
1, 117958, Note_on_c, 0, 66, 92
1, 118070, Note_on_c, 0, 66, 0
1, 118070, Note_on_c, 0, 63, 89
1, 118153, Control_c, 0, 64, 127
1, 118153, Control_c, 0, 64, 127
1, 118182, Note_on_c, 0, 63, 0
1, 118182, Note_on_c, 0, 60, 87
1, 118323, Note_on_c, 0, 87, 0
1, 118323, Note_on_c, 0, 84, 0
1, 118323, Control_c, 0, 64, 127
1, 118326, Note_on_c, 0, 75, 0
1, 118326, Note_on_c, 0, 87, 0
1, 118326, Note_on_c, 0, 79, 104
1, 118329, Note_on_c, 0, 82, 104
1, 118329, Note_on_c, 0, 87, 104
1, 118329, Note_on_c, 0, 91, 127
1, 118332, Note_on_c, 0, 56, 0
1, 118332, Control_c, 0, 64, 127
1, 118332, Control_c, 0, 64, 0
1, 118335, Note_on_c, 0, 60, 0
1, 118335, Note_on_c, 0, 39, 115
1, 118335, Note_on_c, 0, 27, 115
1, 118371, Control_c, 0, 64, 0
1, 118371, Control_c, 0, 64, 0
1, 118416, Note_on_c, 0, 39, 0
1, 118416, Note_on_c, 0, 46, 82
1, 118438, Control_c, 0, 64, 127
1, 118438, Control_c, 0, 64, 127
1, 118510, Note_on_c, 0, 46, 0
1, 118510, Note_on_c, 0, 51, 84
1, 118604, Note_on_c, 0, 51, 0
1, 118604, Note_on_c, 0, 55, 82
1, 118604, Note_on_c, 0, 46, 87
1, 118678, Note_on_c, 0, 46, 0
1, 118678, Note_on_c, 0, 55, 0
1, 118678, Note_on_c, 0, 58, 86
1, 118681, Note_on_c, 0, 51, 89
1, 118754, Note_on_c, 0, 51, 0
1, 118754, Note_on_c, 0, 58, 0
1, 118754, Note_on_c, 0, 63, 90
1, 118757, Note_on_c, 0, 55, 91
1, 118828, Note_on_c, 0, 55, 0
1, 118828, Note_on_c, 0, 63, 0
1, 118828, Note_on_c, 0, 67, 94
1, 118831, Note_on_c, 0, 58, 93
1, 118903, Note_on_c, 0, 58, 0
1, 118903, Note_on_c, 0, 67, 0
1, 118903, Note_on_c, 0, 70, 98
1, 118906, Note_on_c, 0, 63, 96
1, 118978, Note_on_c, 0, 63, 0
1, 118978, Note_on_c, 0, 70, 0
1, 118978, Note_on_c, 0, 75, 101
1, 118981, Note_on_c, 0, 67, 98
1, 119040, Note_on_c, 0, 67, 0
1, 119040, Note_on_c, 0, 75, 0
1, 119040, Note_on_c, 0, 79, 105
1, 119043, Note_on_c, 0, 70, 100
1, 119103, Note_on_c, 0, 70, 0
1, 119103, Note_on_c, 0, 79, 0
1, 119103, Note_on_c, 0, 82, 109
1, 119106, Note_on_c, 0, 75, 102
1, 119165, Note_on_c, 0, 75, 0
1, 119165, Note_on_c, 0, 82, 0
1, 119165, Note_on_c, 0, 87, 113
1, 119168, Note_on_c, 0, 79, 105
1, 119228, Note_on_c, 0, 79, 0
1, 119228, Note_on_c, 0, 87, 0
1, 119228, Note_on_c, 0, 91, 117
1, 119231, Note_on_c, 0, 82, 107
1, 119290, Note_on_c, 0, 82, 0
1, 119290, Note_on_c, 0, 91, 0
1, 119290, Note_on_c, 0, 87, 113
1, 119293, Note_on_c, 0, 79, 105
1, 119353, Note_on_c, 0, 79, 0
1, 119353, Note_on_c, 0, 87, 0
1, 119353, Note_on_c, 0, 82, 109
1, 119356, Note_on_c, 0, 75, 102
1, 119415, Note_on_c, 0, 75, 0
1, 119415, Note_on_c, 0, 82, 0
1, 119415, Note_on_c, 0, 79, 105
1, 119418, Note_on_c, 0, 70, 100
1, 119477, Note_on_c, 0, 70, 0
1, 119477, Note_on_c, 0, 79, 0
1, 119477, Note_on_c, 0, 75, 101
1, 119480, Note_on_c, 0, 67, 98
1, 119540, Note_on_c, 0, 67, 0
1, 119540, Note_on_c, 0, 75, 0
1, 119540, Note_on_c, 0, 70, 98
1, 119543, Note_on_c, 0, 63, 96
1, 119602, Note_on_c, 0, 63, 0
1, 119602, Note_on_c, 0, 70, 0
1, 119602, Note_on_c, 0, 67, 94
1, 119605, Note_on_c, 0, 58, 93
1, 119664, Note_on_c, 0, 58, 0
1, 119664, Note_on_c, 0, 67, 0
1, 119664, Note_on_c, 0, 63, 90
1, 119667, Note_on_c, 0, 55, 91
1, 119727, Note_on_c, 0, 55, 0
1, 119727, Note_on_c, 0, 63, 0
1, 119727, Note_on_c, 0, 58, 86
1, 119730, Note_on_c, 0, 51, 89
1, 119789, Note_on_c, 0, 51, 0
1, 119789, Note_on_c, 0, 58, 0
1, 119789, Note_on_c, 0, 55, 82
1, 119792, Note_on_c, 0, 46, 87
1, 119851, Note_on_c, 0, 46, 0
1, 119851, Note_on_c, 0, 43, 84
1, 119883, Note_on_c, 0, 55, 0
1, 119914, Note_on_c, 0, 43, 0
1, 119914, Note_on_c, 0, 39, 82
1, 119976, Note_on_c, 0, 79, 0
1, 119976, Control_c, 0, 64, 127
1, 119976, Control_c, 0, 64, 0
1, 119979, Note_on_c, 0, 87, 0
1, 119979, Note_on_c, 0, 91, 0
1, 119979, Note_on_c, 0, 82, 0
1, 119982, Control_c, 0, 64, 127
1, 119982, Control_c, 0, 64, 0
1, 119982, Control_c, 0, 64, 0
1, 119985, Note_on_c, 0, 39, 0
1, 119985, Note_on_c, 0, 27, 0
1, 119985, Note_on_c, 0, 27, 120
1, 120009, Control_c, 0, 64, 0
1, 120009, Control_c, 0, 64, 0
1, 120053, Control_c, 0, 64, 127
1, 120053, Control_c, 0, 64, 127
1, 120070, Note_on_c, 0, 39, 87
1, 120164, Note_on_c, 0, 39, 0
1, 120164, Note_on_c, 0, 46, 90
1, 120226, Note_on_c, 0, 75, 98
1, 120226, Note_on_c, 0, 79, 98
1, 120226, Note_on_c, 0, 70, 98
1, 120229, Note_on_c, 0, 82, 114
1, 120263, Note_on_c, 0, 46, 0
1, 120263, Note_on_c, 0, 51, 93
1, 120376, Note_on_c, 0, 51, 0
1, 120376, Note_on_c, 0, 55, 96
1, 120488, Note_on_c, 0, 55, 0
1, 120488, Note_on_c, 0, 58, 100
1, 120526, Note_on_c, 0, 72, 101
1, 120526, Note_on_c, 0, 84, 117
1, 120550, Note_on_c, 0, 70, 0
1, 120550, Note_on_c, 0, 82, 0
1, 120588, Note_on_c, 0, 58, 0
1, 120588, Note_on_c, 0, 63, 103
1, 120682, Note_on_c, 0, 63, 0
1, 120682, Note_on_c, 0, 67, 106
1, 120775, Note_on_c, 0, 79, 0
1, 120775, Note_on_c, 0, 75, 0
1, 120775, Note_on_c, 0, 79, 102
1, 120778, Note_on_c, 0, 82, 102
1, 120778, Note_on_c, 0, 75, 102
1, 120778, Note_on_c, 0, 87, 118
1, 120781, Note_on_c, 0, 67, 0
1, 120781, Note_on_c, 0, 70, 109
1, 120804, Note_on_c, 0, 72, 0
1, 120804, Note_on_c, 0, 84, 0
1, 120888, Note_on_c, 0, 70, 0
1, 120888, Note_on_c, 0, 67, 106
1, 121000, Note_on_c, 0, 67, 0
1, 121000, Note_on_c, 0, 63, 103
1, 121074, Note_on_c, 0, 73, 101
1, 121074, Note_on_c, 0, 85, 117
1, 121095, Note_on_c, 0, 75, 0
1, 121095, Note_on_c, 0, 87, 0
1, 121101, Note_on_c, 0, 63, 0
1, 121101, Note_on_c, 0, 58, 100
1, 121182, Note_on_c, 0, 58, 0
1, 121182, Note_on_c, 0, 55, 96
1, 121262, Note_on_c, 0, 55, 0
1, 121262, Note_on_c, 0, 51, 93
1, 121289, Note_on_c, 0, 72, 98
1, 121289, Note_on_c, 0, 84, 114
1, 121309, Note_on_c, 0, 85, 0
1, 121309, Note_on_c, 0, 73, 0
1, 121342, Note_on_c, 0, 51, 0
1, 121342, Note_on_c, 0, 46, 90
1, 121422, Note_on_c, 0, 46, 0
1, 121422, Note_on_c, 0, 39, 87
1, 121503, Note_on_c, 0, 79, 0
1, 121503, Note_on_c, 0, 82, 0
1, 121503, Control_c, 0, 64, 127
1, 121506, Note_on_c, 0, 70, 99
1, 121506, Note_on_c, 0, 82, 115
1, 121506, Note_on_c, 0, 73, 99
1, 121509, Note_on_c, 0, 76, 99
1, 121509, Note_on_c, 0, 79, 99
1, 121509, Control_c, 0, 64, 127
1, 121512, Note_on_c, 0, 27, 0
1, 121512, Note_on_c, 0, 39, 0
1, 121512, Control_c, 0, 64, 0
1, 121515, Note_on_c, 0, 27, 97
1, 121527, Note_on_c, 0, 84, 0
1, 121527, Note_on_c, 0, 72, 0
1, 121536, Control_c, 0, 64, 0
1, 121536, Control_c, 0, 64, 0
1, 121592, Control_c, 0, 64, 127
1, 121592, Control_c, 0, 64, 127
1, 121596, Note_on_c, 0, 39, 75
1, 121690, Note_on_c, 0, 39, 0
1, 121690, Note_on_c, 0, 46, 79
1, 121783, Note_on_c, 0, 46, 0
1, 121783, Note_on_c, 0, 49, 83
1, 121877, Note_on_c, 0, 49, 0
1, 121877, Note_on_c, 0, 72, 90
1, 121877, Note_on_c, 0, 84, 106
1, 121880, Note_on_c, 0, 52, 87
1, 121898, Note_on_c, 0, 82, 0
1, 121898, Note_on_c, 0, 70, 0
1, 121930, Note_on_c, 0, 52, 0
1, 121930, Note_on_c, 0, 55, 90
1, 121984, Note_on_c, 0, 55, 0
1, 121984, Note_on_c, 0, 58, 93
1, 122037, Note_on_c, 0, 58, 0
1, 122037, Note_on_c, 0, 61, 96
1, 122088, Control_c, 0, 64, 127
1, 122088, Control_c, 0, 64, 127
1, 122112, Note_on_c, 0, 61, 0
1, 122112, Note_on_c, 0, 64, 98
1, 122187, Note_on_c, 0, 64, 0
1, 122187, Note_on_c, 0, 67, 94
1, 122225, Control_c, 0, 64, 127
1, 122225, Control_c, 0, 64, 127
1, 122262, Note_on_c, 0, 71, 84
1, 122262, Note_on_c, 0, 74, 84
1, 122262, Note_on_c, 0, 65, 95
1, 122265, Note_on_c, 0, 67, 0
1, 122265, Note_on_c, 0, 77, 111
1, 122281, Note_on_c, 0, 73, 0
1, 122281, Note_on_c, 0, 79, 0
1, 122281, Note_on_c, 0, 76, 0
1, 122284, Note_on_c, 0, 72, 0
1, 122284, Note_on_c, 0, 84, 0
1, 122314, Control_c, 0, 64, 0
1, 122314, Control_c, 0, 64, 0
1, 122337, Note_on_c, 0, 62, 93
1, 122360, Control_c, 0, 64, 127
1, 122360, Control_c, 0, 64, 127
1, 122412, Note_on_c, 0, 62, 0
1, 122412, Note_on_c, 0, 59, 89
1, 122487, Note_on_c, 0, 59, 0
1, 122487, Note_on_c, 0, 56, 85
1, 122562, Note_on_c, 0, 56, 0
1, 122562, Note_on_c, 0, 67, 90
1, 122562, Note_on_c, 0, 79, 106
1, 122565, Note_on_c, 0, 56, 81
1, 122581, Note_on_c, 0, 65, 0
1, 122581, Note_on_c, 0, 77, 0
1, 122662, Note_on_c, 0, 56, 0
1, 122662, Note_on_c, 0, 50, 76
1, 122761, Note_on_c, 0, 50, 0
1, 122761, Note_on_c, 0, 47, 71
1, 122861, Control_c, 0, 64, 127
1, 122861, Control_c, 0, 64, 0
1, 122861, Control_c, 0, 64, 0
1, 122864, Note_on_c, 0, 58, 102
1, 122864, Note_on_c, 0, 61, 82
1, 122864, Note_on_c, 0, 65, 82
1, 122867, Note_on_c, 0, 67, 82
1, 122867, Note_on_c, 0, 70, 92
1, 122867, Control_c, 0, 64, 127
1, 122870, Control_c, 0, 64, 0
1, 122870, Control_c, 0, 64, 0
1, 122870, Control_c, 0, 64, 0
1, 122873, Note_on_c, 0, 47, 0
1, 122873, Note_on_c, 0, 27, 0
1, 122873, Note_on_c, 0, 27, 87
1, 122880, Note_on_c, 0, 67, 0
1, 122880, Note_on_c, 0, 74, 0
1, 122880, Note_on_c, 0, 71, 0
1, 122883, Note_on_c, 0, 79, 0
1, 122887, Control_c, 0, 64, 0
1, 122887, Control_c, 0, 64, 0
1, 122923, Control_c, 0, 64, 127
1, 122923, Control_c, 0, 64, 127
1, 122961, Note_on_c, 0, 39, 70
1, 123061, Note_on_c, 0, 39, 0
1, 123061, Note_on_c, 0, 46, 74
1, 123161, Note_on_c, 0, 46, 0
1, 123161, Note_on_c, 0, 60, 99
1, 123161, Note_on_c, 0, 49, 79
1, 123181, Note_on_c, 0, 58, 0
1, 123268, Note_on_c, 0, 49, 0
1, 123268, Note_on_c, 0, 53, 83
1, 123374, Note_on_c, 0, 53, 0
1, 123374, Note_on_c, 0, 55, 88
1, 123482, Note_on_c, 0, 55, 0
1, 123482, Note_on_c, 0, 63, 100
1, 123482, Note_on_c, 0, 58, 92
1, 123506, Note_on_c, 0, 60, 0
1, 123607, Note_on_c, 0, 58, 0
1, 123607, Note_on_c, 0, 55, 85
1, 123731, Note_on_c, 0, 55, 0
1, 123731, Note_on_c, 0, 61, 100
1, 123731, Note_on_c, 0, 53, 79
1, 123752, Note_on_c, 0, 63, 0
1, 123838, Note_on_c, 0, 53, 0
1, 123838, Note_on_c, 0, 49, 72
1, 123945, Note_on_c, 0, 49, 0
1, 123945, Note_on_c, 0, 60, 94
1, 123945, Note_on_c, 0, 46, 66
1, 123966, Note_on_c, 0, 61, 0
1, 124052, Note_on_c, 0, 46, 0
1, 124052, Note_on_c, 0, 39, 59
1, 124159, Control_c, 0, 64, 127
1, 124159, Control_c, 0, 64, 0
1, 124159, Control_c, 0, 64, 0
1, 124162, Note_on_c, 0, 65, 0
1, 124162, Note_on_c, 0, 67, 0
1, 124162, Note_on_c, 0, 61, 0
1, 124165, Note_on_c, 0, 70, 0
1, 124165, Note_on_c, 0, 65, 101
1, 124165, Note_on_c, 0, 59, 84
1, 124168, Control_c, 0, 64, 127
1, 124168, Control_c, 0, 64, 0
1, 124168, Control_c, 0, 64, 0
1, 124171, Note_on_c, 0, 27, 0
1, 124171, Note_on_c, 0, 39, 0
1, 124171, Control_c, 0, 64, 0
1, 124174, Note_on_c, 0, 31, 97
1, 124191, Note_on_c, 0, 60, 0
1, 124202, Control_c, 0, 64, 0
1, 124202, Control_c, 0, 64, 0
1, 124261, Control_c, 0, 64, 127
1, 124261, Control_c, 0, 64, 127
1, 124284, Note_on_c, 0, 65, 0
1, 124284, Note_on_c, 0, 31, 0
1, 124284, Note_on_c, 0, 61, 102
1, 124287, Note_on_c, 0, 43, 71
1, 124359, Note_on_c, 0, 43, 0
1, 124359, Note_on_c, 0, 49, 73
1, 124434, Note_on_c, 0, 49, 0
1, 124434, Note_on_c, 0, 51, 75
1, 124504, Note_on_c, 0, 51, 0
1, 124504, Note_on_c, 0, 53, 77
1, 124574, Note_on_c, 0, 53, 0
1, 124574, Note_on_c, 0, 55, 79
1, 124644, Note_on_c, 0, 55, 0
1, 124644, Note_on_c, 0, 57, 81
1, 124714, Note_on_c, 0, 57, 0
1, 124714, Note_on_c, 0, 59, 83
1, 124785, Note_on_c, 0, 59, 0
1, 124785, Note_on_c, 0, 61, 87
1, 124855, Note_on_c, 0, 61, 0
1, 124855, Note_on_c, 0, 63, 85
1, 124925, Note_on_c, 0, 63, 0
1, 124925, Note_on_c, 0, 65, 82
1, 124995, Note_on_c, 0, 65, 0
1, 124995, Note_on_c, 0, 61, 0
1, 124995, Note_on_c, 0, 63, 97
1, 124998, Note_on_c, 0, 67, 80
1, 125107, Note_on_c, 0, 67, 0
1, 125107, Note_on_c, 0, 63, 0
1, 125107, Note_on_c, 0, 59, 96
1, 125110, Note_on_c, 0, 69, 78
1, 125220, Note_on_c, 0, 69, 0
1, 125220, Note_on_c, 0, 71, 76
1, 125332, Note_on_c, 0, 71, 0
1, 125332, Note_on_c, 0, 73, 73
1, 125444, Note_on_c, 0, 73, 0
1, 125444, Note_on_c, 0, 59, 0
1, 125444, Note_on_c, 0, 61, 94
1, 125447, Note_on_c, 0, 75, 71
1, 125557, Control_c, 0, 64, 127
1, 125557, Control_c, 0, 64, 0
1, 125557, Control_c, 0, 64, 0
1, 125560, Note_on_c, 0, 61, 0
1, 125560, Note_on_c, 0, 59, 0
1, 125560, Note_on_c, 0, 70, 99
1, 125563, Note_on_c, 0, 73, 83
1, 125563, Note_on_c, 0, 77, 83
1, 125563, Note_on_c, 0, 79, 83
1, 125566, Control_c, 0, 64, 127
1, 125566, Control_c, 0, 64, 0
1, 125566, Control_c, 0, 64, 0
1, 125569, Note_on_c, 0, 75, 0
1, 125569, Control_c, 0, 64, 0
1, 125569, Note_on_c, 0, 39, 82
1, 125595, Control_c, 0, 64, 0
1, 125595, Control_c, 0, 64, 0
1, 125649, Control_c, 0, 64, 127
1, 125649, Control_c, 0, 64, 127
1, 125707, Note_on_c, 0, 51, 74
1, 125831, Note_on_c, 0, 51, 0
1, 125831, Note_on_c, 0, 58, 78
1, 125956, Note_on_c, 0, 58, 0
1, 125956, Note_on_c, 0, 70, 0
1, 125956, Note_on_c, 0, 72, 97
1, 125959, Note_on_c, 0, 61, 82
1, 126063, Note_on_c, 0, 61, 0
1, 126063, Note_on_c, 0, 65, 86
1, 126170, Note_on_c, 0, 65, 0
1, 126170, Note_on_c, 0, 67, 90
1, 126277, Note_on_c, 0, 67, 0
1, 126277, Note_on_c, 0, 72, 0
1, 126277, Note_on_c, 0, 75, 98
1, 126280, Note_on_c, 0, 70, 93
1, 126402, Note_on_c, 0, 70, 0
1, 126402, Note_on_c, 0, 67, 86
1, 126526, Note_on_c, 0, 67, 0
1, 126526, Note_on_c, 0, 75, 0
1, 126526, Note_on_c, 0, 73, 97
1, 126529, Note_on_c, 0, 65, 80
1, 126634, Note_on_c, 0, 65, 0
1, 126634, Note_on_c, 0, 61, 72
1, 126741, Note_on_c, 0, 61, 0
1, 126741, Note_on_c, 0, 73, 0
1, 126741, Note_on_c, 0, 72, 91
1, 126744, Note_on_c, 0, 58, 67
1, 126890, Note_on_c, 0, 58, 0
1, 126890, Note_on_c, 0, 51, 60
1, 127037, Control_c, 0, 64, 0
1, 127040, Note_on_c, 0, 73, 0
1, 127040, Note_on_c, 0, 77, 0
1, 127040, Note_on_c, 0, 79, 0
1, 127043, Note_on_c, 0, 72, 0
1, 127043, Note_on_c, 0, 77, 98
1, 127043, Note_on_c, 0, 71, 82
1, 127046, Note_on_c, 0, 51, 0
1, 127046, Note_on_c, 0, 39, 0
1, 127046, Control_c, 0, 64, 0
1, 127049, Note_on_c, 0, 56, 81
1, 127120, Control_c, 0, 64, 127
1, 127120, Control_c, 0, 64, 127
1, 127134, Note_on_c, 0, 77, 0
1, 127134, Note_on_c, 0, 73, 98
1, 127134, Note_on_c, 0, 61, 66
1, 127204, Note_on_c, 0, 61, 0
1, 127204, Note_on_c, 0, 65, 68
1, 127274, Note_on_c, 0, 65, 0
1, 127274, Note_on_c, 0, 68, 68
1, 127344, Note_on_c, 0, 68, 0
1, 127344, Note_on_c, 0, 71, 69
1, 127414, Note_on_c, 0, 71, 0
1, 127414, Note_on_c, 0, 73, 70
1, 127485, Note_on_c, 0, 73, 0
1, 127485, Note_on_c, 0, 75, 71
1, 127555, Note_on_c, 0, 75, 0
1, 127555, Note_on_c, 0, 77, 72
1, 127625, Note_on_c, 0, 77, 0
1, 127625, Note_on_c, 0, 80, 73
1, 127695, Note_on_c, 0, 80, 0
1, 127695, Note_on_c, 0, 85, 73
1, 127765, Note_on_c, 0, 85, 0
1, 127765, Note_on_c, 0, 89, 75
1, 127836, Note_on_c, 0, 89, 0
1, 127836, Note_on_c, 0, 73, 0
1, 127836, Note_on_c, 0, 75, 85
1, 127839, Note_on_c, 0, 92, 75
1, 127916, Note_on_c, 0, 92, 0
1, 127916, Note_on_c, 0, 75, 0
1, 127916, Note_on_c, 0, 71, 84
1, 127919, Note_on_c, 0, 95, 76
1, 128009, Note_on_c, 0, 95, 0
1, 128009, Note_on_c, 0, 97, 77
1, 128103, Note_on_c, 0, 97, 0
1, 128103, Note_on_c, 0, 99, 77
1, 128197, Note_on_c, 0, 99, 0
1, 128197, Note_on_c, 0, 71, 0
1, 128197, Note_on_c, 0, 73, 81
1, 128200, Note_on_c, 0, 101, 78
1, 128275, Control_c, 0, 64, 0
1, 128275, Control_c, 0, 64, 0
1, 128309, Note_on_c, 0, 73, 0
1, 128309, Note_on_c, 0, 71, 0
1, 128309, Control_c, 0, 64, 0
1, 128312, Note_on_c, 0, 56, 0
1, 128312, Note_on_c, 0, 77, 86
1, 128312, Note_on_c, 0, 79, 77
1, 128315, Note_on_c, 0, 101, 0
1, 128315, Note_on_c, 0, 61, 69
1, 128421, Note_on_c, 0, 77, 0
1, 128421, Note_on_c, 0, 73, 86
1, 128421, Note_on_c, 0, 65, 54
1, 128436, Control_c, 0, 64, 127
1, 128436, Control_c, 0, 64, 127
1, 128534, Note_on_c, 0, 65, 0
1, 128534, Note_on_c, 0, 67, 56
1, 128627, Note_on_c, 0, 67, 0
1, 128627, Note_on_c, 0, 69, 56
1, 128721, Note_on_c, 0, 69, 0
1, 128721, Note_on_c, 0, 71, 57
1, 128814, Note_on_c, 0, 71, 0
1, 128814, Note_on_c, 0, 73, 58
1, 128895, Note_on_c, 0, 73, 0
1, 128895, Note_on_c, 0, 75, 59
1, 128975, Note_on_c, 0, 75, 0
1, 128975, Note_on_c, 0, 77, 60
1, 129055, Note_on_c, 0, 77, 0
1, 129055, Note_on_c, 0, 81, 61
1, 129135, Note_on_c, 0, 81, 0
1, 129135, Note_on_c, 0, 83, 61
1, 129216, Note_on_c, 0, 83, 0
1, 129216, Note_on_c, 0, 85, 63
1, 129296, Note_on_c, 0, 85, 0
1, 129296, Note_on_c, 0, 73, 0
1, 129296, Note_on_c, 0, 75, 73
1, 129299, Note_on_c, 0, 87, 63
1, 129389, Note_on_c, 0, 87, 0
1, 129389, Note_on_c, 0, 75, 0
1, 129389, Note_on_c, 0, 71, 72
1, 129392, Note_on_c, 0, 89, 64
1, 129483, Note_on_c, 0, 89, 0
1, 129483, Note_on_c, 0, 91, 65
1, 129595, Note_on_c, 0, 93, 65
1, 129635, Control_c, 0, 64, 127
1, 129635, Control_c, 0, 64, 127
1, 129674, Note_on_c, 0, 91, 0
1, 129708, Note_on_c, 0, 71, 0
1, 129708, Note_on_c, 0, 73, 69
1, 129708, Note_on_c, 0, 95, 66
1, 129787, Note_on_c, 0, 93, 0
1, 129820, Note_on_c, 0, 73, 0
1, 129820, Note_on_c, 0, 79, 0
1, 129820, Note_on_c, 0, 61, 0
1, 129823, Note_on_c, 0, 61, 62
1, 129884, Control_c, 0, 64, 127
1, 129884, Control_c, 0, 64, 127
1, 129899, Note_on_c, 0, 95, 0
1, 129932, Note_on_c, 0, 65, 61
1, 130011, Note_on_c, 0, 61, 0
1, 130045, Note_on_c, 0, 67, 61
1, 130129, Note_on_c, 0, 65, 0
1, 130164, Note_on_c, 0, 69, 61
1, 130252, Note_on_c, 0, 67, 0
1, 130289, Note_on_c, 0, 71, 60
1, 130377, Note_on_c, 0, 69, 0
1, 130414, Note_on_c, 0, 73, 60
1, 130501, Note_on_c, 0, 71, 0
1, 130538, Note_on_c, 0, 75, 60
1, 130630, Note_on_c, 0, 73, 0
1, 130669, Note_on_c, 0, 75, 0
1, 130669, Note_on_c, 0, 77, 65
1, 130800, Note_on_c, 0, 77, 0
1, 130800, Note_on_c, 0, 61, 59
1, 130940, Note_on_c, 0, 61, 0
1, 130940, Note_on_c, 0, 65, 59
1, 131080, Note_on_c, 0, 65, 0
1, 131080, Note_on_c, 0, 67, 59
1, 131232, Note_on_c, 0, 67, 0
1, 131232, Note_on_c, 0, 69, 58
1, 131393, Note_on_c, 0, 69, 0
1, 131393, Note_on_c, 0, 71, 58
1, 131580, Note_on_c, 0, 71, 0
1, 131580, Note_on_c, 0, 73, 58
1, 131767, Note_on_c, 0, 73, 0
1, 131767, Note_on_c, 0, 75, 57
1, 131796, Control_c, 0, 64, 127
1, 131796, Control_c, 0, 64, 127
1, 132048, Note_on_c, 0, 75, 0
1, 132048, Note_on_c, 0, 77, 62
1, 132422, Control_c, 0, 64, 127
1, 132422, Note_on_c, 0, 80, 75
1, 132422, Note_on_c, 0, 73, 49
1, 132425, Note_on_c, 0, 77, 0
1, 132425, Control_c, 0, 64, 127
1, 132425, Note_on_c, 0, 68, 45
1, 132428, Note_on_c, 0, 69, 45
1, 132623, Control_c, 0, 64, 0
1, 132623, Control_c, 0, 64, 0
1, 132756, Control_c, 0, 64, 127
1, 132756, Control_c, 0, 64, 127
1, 133171, Note_on_c, 0, 78, 67
1, 133171, Note_on_c, 0, 66, 48
1, 133212, Note_on_c, 0, 68, 0
1, 133212, Note_on_c, 0, 80, 0
1, 133492, Note_on_c, 0, 73, 53
1, 133492, Note_on_c, 0, 85, 73
1, 133855, Control_c, 0, 64, 0
1, 133855, Control_c, 0, 64, 0
1, 133866, Note_on_c, 0, 73, 0
1, 133866, Note_on_c, 0, 74, 48
1, 133866, Note_on_c, 0, 86, 76
1, 133869, Note_on_c, 0, 69, 0
1, 133869, Note_on_c, 0, 77, 48
1, 133869, Note_on_c, 0, 81, 48
1, 133872, Note_on_c, 0, 65, 52
1, 133872, Note_on_c, 0, 69, 40
1, 133908, Note_on_c, 0, 78, 0
1, 133908, Note_on_c, 0, 73, 0
1, 133908, Note_on_c, 0, 85, 0
1, 133911, Note_on_c, 0, 66, 0
1, 134066, Control_c, 0, 64, 127
1, 134066, Control_c, 0, 64, 127
1, 134508, Note_on_c, 0, 62, 47
1, 134883, Note_on_c, 0, 77, 53
1, 134883, Note_on_c, 0, 89, 73
1, 134931, Note_on_c, 0, 86, 0
1, 134931, Note_on_c, 0, 74, 0
1, 135168, Control_c, 0, 64, 0
1, 135168, Control_c, 0, 64, 0
1, 135257, Note_on_c, 0, 77, 0
1, 135257, Note_on_c, 0, 81, 0
1, 135257, Note_on_c, 0, 80, 66
1, 135260, Note_on_c, 0, 69, 0
1, 135260, Note_on_c, 0, 85, 66
1, 135260, Note_on_c, 0, 88, 78
1, 135263, Note_on_c, 0, 33, 66
1, 135294, Control_c, 0, 64, 127
1, 135294, Control_c, 0, 64, 127
1, 135315, Note_on_c, 0, 65, 0
1, 135315, Note_on_c, 0, 77, 0
1, 135315, Note_on_c, 0, 89, 0
1, 135318, Note_on_c, 0, 62, 0
1, 135369, Note_on_c, 0, 40, 49
1, 135482, Note_on_c, 0, 85, 0
1, 135482, Note_on_c, 0, 80, 0
1, 135482, Note_on_c, 0, 88, 0
1, 135485, Note_on_c, 0, 78, 60
1, 135485, Note_on_c, 0, 83, 60
1, 135485, Note_on_c, 0, 87, 72
1, 135488, Note_on_c, 0, 40, 0
1, 135488, Note_on_c, 0, 45, 51
1, 135575, Note_on_c, 0, 45, 0
1, 135575, Note_on_c, 0, 49, 53
1, 135669, Note_on_c, 0, 87, 0
1, 135669, Note_on_c, 0, 83, 0
1, 135669, Note_on_c, 0, 78, 0
1, 135672, Note_on_c, 0, 76, 54
1, 135672, Note_on_c, 0, 81, 54
1, 135672, Note_on_c, 0, 85, 66
1, 135675, Note_on_c, 0, 49, 0
1, 135675, Note_on_c, 0, 52, 52
1, 135762, Note_on_c, 0, 52, 0
1, 135762, Note_on_c, 0, 57, 50
1, 135856, Note_on_c, 0, 57, 0
1, 135856, Note_on_c, 0, 61, 47
1, 135875, Control_c, 0, 64, 127
1, 135875, Control_c, 0, 64, 127
1, 135950, Note_on_c, 0, 61, 0
1, 135950, Note_on_c, 0, 64, 45
1, 136043, Note_on_c, 0, 64, 0
1, 136418, Note_on_c, 0, 81, 0
1, 136418, Note_on_c, 0, 85, 0
1, 136418, Note_on_c, 0, 76, 0
1, 136421, Note_on_c, 0, 68, 46
1, 136421, Note_on_c, 0, 73, 46
1, 136421, Note_on_c, 0, 76, 72
1, 136687, Control_c, 0, 64, 0
1, 136687, Control_c, 0, 64, 0
1, 136792, Note_on_c, 0, 52, 51
1, 136970, Control_c, 0, 64, 127
1, 136970, Control_c, 0, 64, 127
1, 137220, Note_on_c, 0, 76, 0
1, 137220, Note_on_c, 0, 73, 0
1, 137220, Note_on_c, 0, 68, 0
1, 137223, Note_on_c, 0, 66, 44
1, 137223, Note_on_c, 0, 71, 44
1, 137223, Note_on_c, 0, 75, 62
1, 137470, Note_on_c, 0, 52, 0
1, 137470, Note_on_c, 0, 45, 43
1, 137720, Note_on_c, 0, 71, 0
1, 137720, Note_on_c, 0, 75, 0
1, 137720, Note_on_c, 0, 66, 0
1, 137723, Note_on_c, 0, 64, 36
1, 137723, Note_on_c, 0, 69, 36
1, 137723, Note_on_c, 0, 73, 52
1, 138308, Control_c, 0, 64, 0
1, 138308, Control_c, 0, 64, 0
1, 138459, Control_c, 0, 64, 0
1, 138468, Note_on_c, 0, 79, 46
1, 138468, Note_on_c, 0, 84, 46
1, 138468, Note_on_c, 0, 87, 46
1, 138471, Note_on_c, 0, 33, 0
1, 138471, Note_on_c, 0, 91, 70
1, 138471, Control_c, 0, 64, 0
1, 138474, Note_on_c, 0, 24, 45
1, 138540, Note_on_c, 0, 73, 0
1, 138540, Note_on_c, 0, 69, 0
1, 138540, Note_on_c, 0, 64, 0
1, 138543, Note_on_c, 0, 45, 0
1, 138593, Note_on_c, 0, 24, 0
1, 138593, Control_c, 0, 64, 127
1, 138593, Control_c, 0, 64, 127
1, 138596, Note_on_c, 0, 36, 34
1, 138676, Note_on_c, 0, 36, 0
1, 138676, Note_on_c, 0, 43, 36
1, 138760, Note_on_c, 0, 43, 0
1, 138760, Note_on_c, 0, 48, 37
1, 138822, Note_on_c, 0, 48, 0
1, 138822, Note_on_c, 0, 51, 38
1, 138884, Note_on_c, 0, 51, 0
1, 138884, Note_on_c, 0, 55, 39
1, 138946, Note_on_c, 0, 55, 0
1, 138946, Note_on_c, 0, 60, 41
1, 139009, Note_on_c, 0, 60, 0
1, 139009, Note_on_c, 0, 63, 42
1, 139071, Note_on_c, 0, 63, 0
1, 139071, Note_on_c, 0, 67, 43
1, 139121, Note_on_c, 0, 67, 0
1, 139121, Note_on_c, 0, 72, 47
1, 139171, Note_on_c, 0, 72, 0
1, 139171, Note_on_c, 0, 75, 48
1, 139221, Note_on_c, 0, 75, 0
1, 139221, Note_on_c, 0, 79, 50
1, 139271, Note_on_c, 0, 79, 0
1, 139271, Note_on_c, 0, 84, 54
1, 139321, Note_on_c, 0, 84, 0
1, 139321, Note_on_c, 0, 87, 55
1, 139370, Note_on_c, 0, 87, 0
1, 139370, Note_on_c, 0, 91, 57
1, 139426, Note_on_c, 0, 91, 0
1, 139426, Note_on_c, 0, 96, 54
1, 139497, Note_on_c, 0, 96, 0
1, 139497, Note_on_c, 0, 99, 52
1, 139569, Note_on_c, 0, 99, 0
1, 139569, Note_on_c, 0, 103, 59
1, 139819, Note_on_c, 0, 103, 0
1, 139819, Note_on_c, 0, 48, 37
1, 139819, Note_on_c, 0, 55, 37
1, 140942, Note_on_c, 0, 84, 0
1, 140942, Note_on_c, 0, 87, 0
1, 140942, Note_on_c, 0, 79, 0
1, 140945, Note_on_c, 0, 91, 0
1, 140945, Note_on_c, 0, 80, 66
1, 140945, Note_on_c, 0, 85, 66
1, 140948, Note_on_c, 0, 48, 0
1, 140948, Note_on_c, 0, 55, 0
1, 140948, Note_on_c, 0, 88, 78
1, 140951, Note_on_c, 0, 33, 66
1, 140979, Control_c, 0, 64, 127
1, 140979, Control_c, 0, 64, 127
1, 141054, Note_on_c, 0, 40, 49
1, 141167, Note_on_c, 0, 88, 0
1, 141167, Note_on_c, 0, 85, 0
1, 141167, Note_on_c, 0, 80, 0
1, 141170, Note_on_c, 0, 78, 60
1, 141170, Note_on_c, 0, 83, 60
1, 141170, Note_on_c, 0, 87, 72
1, 141173, Note_on_c, 0, 40, 0
1, 141173, Note_on_c, 0, 45, 51
1, 141260, Note_on_c, 0, 45, 0
1, 141260, Note_on_c, 0, 49, 53
1, 141354, Note_on_c, 0, 87, 0
1, 141354, Note_on_c, 0, 83, 0
1, 141354, Note_on_c, 0, 78, 0
1, 141357, Note_on_c, 0, 76, 54
1, 141357, Note_on_c, 0, 81, 54
1, 141357, Note_on_c, 0, 85, 66
1, 141360, Note_on_c, 0, 49, 0
1, 141360, Note_on_c, 0, 52, 52
1, 141448, Note_on_c, 0, 52, 0
1, 141448, Note_on_c, 0, 57, 50
1, 141541, Note_on_c, 0, 57, 0
1, 141541, Note_on_c, 0, 61, 47
1, 141560, Control_c, 0, 64, 127
1, 141560, Control_c, 0, 64, 127
1, 141635, Note_on_c, 0, 61, 0
1, 141635, Note_on_c, 0, 64, 45
1, 141728, Note_on_c, 0, 64, 0
1, 142103, Note_on_c, 0, 81, 0
1, 142103, Note_on_c, 0, 85, 0
1, 142103, Note_on_c, 0, 76, 0
1, 142106, Note_on_c, 0, 68, 46
1, 142106, Note_on_c, 0, 73, 46
1, 142106, Note_on_c, 0, 76, 72
1, 142372, Control_c, 0, 64, 0
1, 142372, Control_c, 0, 64, 0
1, 142477, Note_on_c, 0, 52, 51
1, 142655, Control_c, 0, 64, 127
1, 142655, Control_c, 0, 64, 127
1, 142905, Note_on_c, 0, 76, 0
1, 142905, Note_on_c, 0, 73, 0
1, 142905, Note_on_c, 0, 68, 0
1, 142908, Note_on_c, 0, 66, 44
1, 142908, Note_on_c, 0, 71, 44
1, 142908, Note_on_c, 0, 75, 62
1, 143155, Note_on_c, 0, 52, 0
1, 143155, Note_on_c, 0, 45, 43
1, 143405, Note_on_c, 0, 71, 0
1, 143405, Note_on_c, 0, 75, 0
1, 143405, Note_on_c, 0, 66, 0
1, 143408, Note_on_c, 0, 64, 36
1, 143408, Note_on_c, 0, 69, 36
1, 143408, Note_on_c, 0, 73, 52
1, 143993, Control_c, 0, 64, 0
1, 143993, Control_c, 0, 64, 0
1, 144153, Note_on_c, 0, 82, 63
1, 144153, Note_on_c, 0, 87, 63
1, 144153, Note_on_c, 0, 90, 63
1, 144156, Note_on_c, 0, 33, 0
1, 144156, Note_on_c, 0, 94, 80
1, 144156, Control_c, 0, 64, 0
1, 144159, Note_on_c, 0, 32, 53
1, 144225, Note_on_c, 0, 73, 0
1, 144225, Note_on_c, 0, 69, 0
1, 144225, Note_on_c, 0, 64, 0
1, 144228, Note_on_c, 0, 45, 0
1, 144293, Note_on_c, 0, 44, 42
1, 144343, Control_c, 0, 64, 127
1, 144343, Control_c, 0, 64, 127
1, 144363, Note_on_c, 0, 44, 0
1, 144363, Note_on_c, 0, 51, 46
1, 144434, Note_on_c, 0, 51, 0
1, 144434, Note_on_c, 0, 54, 49
1, 144490, Note_on_c, 0, 54, 0
1, 144490, Note_on_c, 0, 58, 53
1, 144546, Note_on_c, 0, 58, 0
1, 144546, Note_on_c, 0, 63, 57
1, 144602, Note_on_c, 0, 63, 0
1, 144602, Note_on_c, 0, 66, 56
1, 144658, Note_on_c, 0, 66, 0
1, 144658, Note_on_c, 0, 70, 56
1, 144771, Note_on_c, 0, 77, 59
1, 144771, Note_on_c, 0, 82, 59
1, 144771, Note_on_c, 0, 85, 75
1, 144995, Note_on_c, 0, 85, 0
1, 144995, Note_on_c, 0, 77, 0
1, 144995, Note_on_c, 0, 82, 0
1, 144998, Note_on_c, 0, 75, 54
1, 144998, Note_on_c, 0, 80, 54
1, 144998, Note_on_c, 0, 84, 70
1, 145156, Note_on_c, 0, 84, 0
1, 145156, Note_on_c, 0, 80, 0
1, 145156, Note_on_c, 0, 75, 0
1, 145159, Note_on_c, 0, 73, 49
1, 145159, Note_on_c, 0, 78, 49
1, 145159, Note_on_c, 0, 82, 65
1, 145477, Note_on_c, 0, 70, 0
1, 145477, Note_on_c, 0, 51, 54
1, 145798, Note_on_c, 0, 78, 0
1, 145798, Note_on_c, 0, 82, 0
1, 145798, Note_on_c, 0, 73, 0
1, 145801, Note_on_c, 0, 61, 52
1, 145801, Note_on_c, 0, 66, 52
1, 145801, Note_on_c, 0, 70, 69
1, 146118, Note_on_c, 0, 70, 0
1, 146118, Note_on_c, 0, 66, 0
1, 146118, Note_on_c, 0, 61, 0
1, 146121, Note_on_c, 0, 60, 48
1, 146121, Note_on_c, 0, 65, 48
1, 146121, Note_on_c, 0, 68, 65
1, 146124, Note_on_c, 0, 44, 51
1, 146148, Control_c, 0, 64, 0
1, 146148, Control_c, 0, 64, 0
1, 146349, Control_c, 0, 64, 127
1, 146349, Control_c, 0, 64, 127
1, 146493, Note_on_c, 0, 68, 0
1, 146493, Note_on_c, 0, 65, 0
1, 146493, Note_on_c, 0, 60, 0
1, 146496, Note_on_c, 0, 58, 44
1, 146496, Note_on_c, 0, 63, 44
1, 146496, Note_on_c, 0, 66, 61
1, 146547, Control_c, 0, 64, 127
1, 146547, Control_c, 0, 64, 127
1, 146617, Control_c, 0, 64, 0
1, 146617, Control_c, 0, 64, 0
1, 146778, Control_c, 0, 64, 127
1, 146778, Control_c, 0, 64, 127
1, 146867, Note_on_c, 0, 90, 0
1, 146867, Note_on_c, 0, 87, 0
1, 146867, Note_on_c, 0, 82, 0
1, 146870, Note_on_c, 0, 32, 0
1, 146870, Note_on_c, 0, 94, 0
1, 147242, Note_on_c, 0, 66, 0
1, 147242, Note_on_c, 0, 63, 0
1, 147242, Note_on_c, 0, 58, 0
1, 147245, Note_on_c, 0, 61, 46
1, 147245, Note_on_c, 0, 66, 46
1, 147245, Note_on_c, 0, 70, 61
1, 147616, Control_c, 0, 64, 0
1, 147616, Note_on_c, 0, 60, 42
1, 147616, Note_on_c, 0, 65, 42
1, 147619, Note_on_c, 0, 68, 55
1, 147619, Control_c, 0, 64, 0
1, 147674, Note_on_c, 0, 70, 0
1, 147674, Note_on_c, 0, 66, 0
1, 147674, Note_on_c, 0, 61, 0
1, 148034, Control_c, 0, 64, 127
1, 148034, Control_c, 0, 64, 127
1, 148065, Note_on_c, 0, 58, 37
1, 148065, Note_on_c, 0, 63, 32
1, 148065, Note_on_c, 0, 66, 53
1, 148123, Note_on_c, 0, 60, 0
1, 148123, Note_on_c, 0, 68, 0
1, 148123, Note_on_c, 0, 65, 0
1, 148307, Control_c, 0, 64, 127
1, 148307, Control_c, 0, 64, 127
1, 148425, Control_c, 0, 64, 127
1, 148425, Control_c, 0, 64, 127
1, 148497, Control_c, 0, 64, 127
1, 148497, Control_c, 0, 64, 127
1, 148515, Note_on_c, 0, 51, 0
1, 148515, Note_on_c, 0, 44, 0
1, 148883, Control_c, 0, 64, 127
1, 148883, Control_c, 0, 64, 127
1, 149113, Note_on_c, 0, 63, 0
1, 149113, Note_on_c, 0, 61, 43
1, 149113, Note_on_c, 0, 66, 43
1, 149116, Note_on_c, 0, 70, 60
1, 149179, Note_on_c, 0, 66, 0
1, 149179, Note_on_c, 0, 58, 0
1, 149633, Control_c, 0, 64, 0
1, 149633, Control_c, 0, 64, 0
1, 149863, Note_on_c, 0, 60, 44
1, 149863, Note_on_c, 0, 65, 44
1, 149863, Note_on_c, 0, 68, 45
1, 149951, Note_on_c, 0, 66, 0
1, 149951, Note_on_c, 0, 70, 0
1, 149951, Note_on_c, 0, 61, 0
1, 150861, Note_on_c, 0, 70, 45
1, 150861, Note_on_c, 0, 73, 57
1, 150861, Note_on_c, 0, 58, 34
1, 150864, Note_on_c, 0, 63, 34
1, 150864, Note_on_c, 0, 66, 43
1, 150894, Note_on_c, 0, 60, 0
1, 150894, Note_on_c, 0, 68, 0
1, 150894, Note_on_c, 0, 65, 0
1, 151033, Control_c, 0, 64, 127
1, 151033, Control_c, 0, 64, 127
1, 151235, Note_on_c, 0, 70, 0
1, 151235, Note_on_c, 0, 73, 0
1, 151235, Note_on_c, 0, 72, 54
1, 151238, Note_on_c, 0, 77, 54
1, 151238, Note_on_c, 0, 80, 66
1, 151535, Note_on_c, 0, 80, 0
1, 151535, Note_on_c, 0, 72, 0
1, 151535, Note_on_c, 0, 77, 0
1, 151538, Note_on_c, 0, 70, 49
1, 151538, Note_on_c, 0, 73, 49
1, 151538, Note_on_c, 0, 75, 56
1, 151962, Note_on_c, 0, 80, 65
1, 151962, Note_on_c, 0, 92, 77
1, 152961, Note_on_c, 0, 92, 0
1, 152961, Note_on_c, 0, 80, 0
1, 152961, Control_c, 0, 64, 127
1, 152964, Note_on_c, 0, 77, 51
1, 152964, Note_on_c, 0, 89, 64
1, 152964, Control_c, 0, 64, 127
1, 153959, Note_on_c, 0, 89, 0
1, 153959, Note_on_c, 0, 77, 0
1, 153959, Note_on_c, 0, 75, 44
1, 153962, Note_on_c, 0, 87, 57
1, 155004, Note_on_c, 0, 73, 0
1, 155004, Note_on_c, 0, 70, 0
1, 155004, Control_c, 0, 64, 127
1, 155007, Note_on_c, 0, 87, 0
1, 155007, Note_on_c, 0, 75, 0
1, 155007, Note_on_c, 0, 75, 0
1, 155010, Note_on_c, 0, 68, 50
1, 155010, Note_on_c, 0, 75, 60
1, 155010, Control_c, 0, 64, 127
1, 155013, Note_on_c, 0, 58, 0
1, 155013, Note_on_c, 0, 63, 0
1, 155013, Control_c, 0, 64, 0
1, 155016, Note_on_c, 0, 66, 0
1, 155016, Note_on_c, 0, 61, 49
1, 155016, Note_on_c, 0, 65, 40
1, 155093, Control_c, 0, 64, 0
1, 155093, Control_c, 0, 64, 0
1, 155218, Note_on_c, 0, 60, 49
1, 155366, Control_c, 0, 64, 127
1, 155366, Control_c, 0, 64, 127
1, 155380, Control_c, 0, 64, 127
1, 155380, Control_c, 0, 64, 127
1, 155405, Note_on_c, 0, 75, 0
1, 155405, Note_on_c, 0, 68, 0
1, 155405, Note_on_c, 0, 73, 53
1, 155408, Note_on_c, 0, 60, 0
1, 155408, Note_on_c, 0, 77, 53
1, 155408, Note_on_c, 0, 82, 70
1, 155411, Note_on_c, 0, 58, 43
1, 155661, Control_c, 0, 64, 127
1, 155661, Control_c, 0, 64, 127
1, 155780, Note_on_c, 0, 82, 0
1, 155780, Note_on_c, 0, 77, 0
1, 155780, Note_on_c, 0, 73, 0
1, 155783, Note_on_c, 0, 72, 49
1, 155783, Note_on_c, 0, 75, 54
1, 155783, Note_on_c, 0, 77, 63
1, 156128, Note_on_c, 0, 77, 0
1, 156128, Note_on_c, 0, 72, 0
1, 156128, Note_on_c, 0, 75, 0
1, 156131, Note_on_c, 0, 58, 0
1, 156131, Note_on_c, 0, 80, 52
1, 156131, Note_on_c, 0, 87, 66
1, 156134, Note_on_c, 0, 65, 0
1, 156134, Note_on_c, 0, 61, 0
1, 156134, Note_on_c, 0, 73, 49
1, 156137, Control_c, 0, 64, 0
1, 156137, Note_on_c, 0, 77, 41
1, 156137, Control_c, 0, 64, 0
1, 156212, Control_c, 0, 64, 127
1, 156212, Control_c, 0, 64, 127
1, 156302, Note_on_c, 0, 72, 49
1, 156476, Note_on_c, 0, 80, 0
1, 156476, Note_on_c, 0, 87, 0
1, 156476, Note_on_c, 0, 85, 60
1, 156479, Note_on_c, 0, 72, 0
1, 156479, Note_on_c, 0, 89, 60
1, 156479, Note_on_c, 0, 94, 75
1, 156482, Note_on_c, 0, 70, 42
1, 156677, Control_c, 0, 64, 0
1, 156677, Control_c, 0, 64, 0
1, 156945, Note_on_c, 0, 94, 0
1, 156945, Note_on_c, 0, 89, 0
1, 156945, Note_on_c, 0, 85, 0
1, 156948, Note_on_c, 0, 84, 50
1, 156948, Note_on_c, 0, 87, 50
1, 156948, Note_on_c, 0, 89, 69
1, 157004, Control_c, 0, 64, 127
1, 157004, Control_c, 0, 64, 127
1, 157366, Control_c, 0, 64, 127
1, 157370, Note_on_c, 0, 87, 0
1, 157370, Note_on_c, 0, 84, 0
1, 157370, Control_c, 0, 64, 127
1, 157370, Note_on_c, 0, 82, 49
1, 157370, Note_on_c, 0, 85, 49
1, 157450, Control_c, 0, 64, 0
1, 157450, Control_c, 0, 64, 0
1, 157450, Control_c, 0, 64, 0
1, 157548, Control_c, 0, 64, 127
1, 157548, Control_c, 0, 64, 127
1, 157548, Control_c, 0, 64, 127
1, 157821, Note_on_c, 0, 85, 0
1, 157821, Note_on_c, 0, 89, 0
1, 157821, Note_on_c, 0, 82, 0
1, 157824, Note_on_c, 0, 77, 42
1, 157824, Note_on_c, 0, 82, 42
1, 157824, Note_on_c, 0, 85, 54
1, 157827, Note_on_c, 0, 73, 0
1, 157827, Note_on_c, 0, 77, 0
1, 157827, Note_on_c, 0, 70, 0
1, 158271, Note_on_c, 0, 77, 0
1, 158271, Note_on_c, 0, 82, 0
1, 158271, Note_on_c, 0, 85, 0
1, 158274, Note_on_c, 0, 73, 40
1, 158274, Note_on_c, 0, 77, 40
1, 158274, Note_on_c, 0, 82, 52
1, 158832, Note_on_c, 0, 82, 0
1, 158832, Note_on_c, 0, 77, 0
1, 158832, Note_on_c, 0, 73, 0
1, 158835, Note_on_c, 0, 70, 36
1, 158835, Note_on_c, 0, 73, 36
1, 158835, Note_on_c, 0, 77, 46
1, 159581, Note_on_c, 0, 77, 0
1, 159581, Note_on_c, 0, 73, 0
1, 159581, Note_on_c, 0, 70, 0
1, 159584, Note_on_c, 0, 54, 49
1, 159584, Note_on_c, 0, 58, 49
1, 159584, Note_on_c, 0, 61, 58
1, 159587, Note_on_c, 0, 44, 40
1, 159778, Control_c, 0, 64, 127
1, 159778, Control_c, 0, 64, 127
1, 160009, Note_on_c, 0, 61, 0
1, 160009, Note_on_c, 0, 54, 0
1, 160009, Note_on_c, 0, 58, 0
1, 160012, Note_on_c, 0, 60, 50
1, 160012, Note_on_c, 0, 65, 50
1, 160012, Note_on_c, 0, 68, 59
1, 160175, Note_on_c, 0, 37, 47
1, 160342, Note_on_c, 0, 68, 0
1, 160342, Note_on_c, 0, 65, 0
1, 160342, Note_on_c, 0, 60, 0
1, 160345, Note_on_c, 0, 58, 45
1, 160345, Note_on_c, 0, 61, 53
1, 160345, Note_on_c, 0, 63, 57
1, 160770, Note_on_c, 0, 44, 0
1, 160770, Note_on_c, 0, 68, 50
1, 160770, Note_on_c, 0, 80, 71
1, 161768, Note_on_c, 0, 80, 0
1, 161768, Note_on_c, 0, 68, 0
1, 161768, Control_c, 0, 64, 127
1, 161771, Note_on_c, 0, 65, 42
1, 161771, Note_on_c, 0, 77, 64
1, 161771, Control_c, 0, 64, 127
1, 162766, Note_on_c, 0, 77, 0
1, 162766, Note_on_c, 0, 65, 0
1, 162766, Note_on_c, 0, 63, 33
1, 162769, Note_on_c, 0, 75, 51
1, 163890, Note_on_c, 0, 61, 0
1, 163890, Note_on_c, 0, 63, 0
1, 163890, Note_on_c, 0, 58, 0
1, 163893, Note_on_c, 0, 75, 0
1, 163893, Note_on_c, 0, 63, 0
1, 163893, Note_on_c, 0, 53, 42
1, 163896, Note_on_c, 0, 37, 0
1, 163896, Note_on_c, 0, 56, 42
1, 163896, Note_on_c, 0, 63, 50
1, 163899, Note_on_c, 0, 37, 40
1, 163899, Note_on_c, 0, 44, 40
1, 164071, Control_c, 0, 64, 127
1, 164071, Control_c, 0, 64, 127
1, 164071, Control_c, 0, 64, 127
1, 164214, Control_c, 0, 64, 0
1, 164388, Note_on_c, 0, 61, 46
1, 164388, Note_on_c, 0, 65, 46
1, 164388, Note_on_c, 0, 70, 59
1, 164433, Control_c, 0, 64, 127
1, 164433, Control_c, 0, 64, 127
1, 164433, Control_c, 0, 64, 127
1, 164436, Control_c, 0, 64, 127
1, 164763, Note_on_c, 0, 61, 0
1, 164763, Note_on_c, 0, 53, 0
1, 164763, Note_on_c, 0, 56, 0
1, 164766, Note_on_c, 0, 63, 0
1, 164766, Note_on_c, 0, 70, 0
1, 164766, Note_on_c, 0, 65, 0
1, 164769, Note_on_c, 0, 60, 38
1, 164769, Note_on_c, 0, 63, 38
1, 164769, Note_on_c, 0, 65, 59
1, 165030, Control_c, 0, 64, 127
1, 165096, Note_on_c, 0, 65, 0
1, 165096, Note_on_c, 0, 60, 0
1, 165096, Note_on_c, 0, 63, 0
1, 165099, Note_on_c, 0, 68, 52
1, 165099, Note_on_c, 0, 75, 66
1, 165099, Control_c, 0, 64, 0
1, 165102, Control_c, 0, 64, 0
1, 165102, Control_c, 0, 64, 0
1, 165102, Note_on_c, 0, 58, 41
1, 165105, Note_on_c, 0, 61, 41
1, 165105, Note_on_c, 0, 65, 49
1, 165383, Control_c, 0, 64, 127
1, 165383, Control_c, 0, 64, 127
1, 165383, Control_c, 0, 64, 127
1, 165470, Note_on_c, 0, 75, 0
1, 165470, Note_on_c, 0, 68, 0
1, 165470, Note_on_c, 0, 73, 55
1, 165473, Note_on_c, 0, 77, 55
1, 165473, Note_on_c, 0, 82, 70
1, 165845, Note_on_c, 0, 82, 0
1, 165845, Note_on_c, 0, 77, 0
1, 165845, Note_on_c, 0, 73, 0
1, 165848, Note_on_c, 0, 72, 45
1, 165848, Note_on_c, 0, 75, 45
1, 165848, Note_on_c, 0, 77, 64
1, 166217, Note_on_c, 0, 77, 0
1, 166217, Note_on_c, 0, 61, 0
1, 166217, Note_on_c, 0, 65, 0
1, 166217, Note_on_c, 0, 37, 0
1, 166217, Note_on_c, 0, 58, 0
1, 166217, Note_on_c, 0, 44, 0
1, 166217, Note_on_c, 0, 72, 0
1, 166217, Note_on_c, 0, 75, 0
1, 166217, Control_c, 0, 64, 127
1, 166217, Note_on_c, 0, 80, 49
1, 166217, Note_on_c, 0, 87, 61
1, 166217, Control_c, 0, 64, 127
1, 166217, Note_on_c, 0, 70, 41
1, 166217, Note_on_c, 0, 73, 41
1, 166217, Note_on_c, 0, 77, 49
1, 166647, Note_on_c, 0, 87, 0
1, 166647, Note_on_c, 0, 80, 0
1, 166647, Note_on_c, 0, 85, 58
1, 166650, Note_on_c, 0, 89, 58
1, 166650, Note_on_c, 0, 94, 70
1, 167022, Note_on_c, 0, 94, 0
1, 167022, Note_on_c, 0, 85, 0
1, 167022, Note_on_c, 0, 89, 0
1, 167025, Note_on_c, 0, 84, 53
1, 167025, Note_on_c, 0, 87, 53
1, 167025, Note_on_c, 0, 89, 65
1, 167273, Control_c, 0, 64, 127
1, 167273, Control_c, 0, 64, 127
1, 167396, Note_on_c, 0, 89, 0
1, 167396, Note_on_c, 0, 82, 39
1, 167396, Note_on_c, 0, 85, 39
1, 167399, Note_on_c, 0, 73, 0
1, 167399, Note_on_c, 0, 70, 0
1, 167399, Note_on_c, 0, 89, 60
1, 167402, Note_on_c, 0, 77, 0
1, 167437, Note_on_c, 0, 84, 0
1, 167437, Note_on_c, 0, 87, 0
1, 167823, Note_on_c, 0, 82, 0
1, 167823, Note_on_c, 0, 89, 0
1, 167823, Note_on_c, 0, 85, 0
1, 167826, Note_on_c, 0, 77, 45
1, 167826, Note_on_c, 0, 82, 45
1, 167826, Note_on_c, 0, 85, 54
1, 167829, Note_on_c, 0, 65, 59
1, 168073, Note_on_c, 0, 67, 66
1, 168102, Note_on_c, 0, 65, 0
1, 168323, Note_on_c, 0, 85, 0
1, 168323, Note_on_c, 0, 77, 0
1, 168323, Note_on_c, 0, 82, 0
1, 168326, Note_on_c, 0, 73, 44
1, 168326, Note_on_c, 0, 77, 44
1, 168326, Note_on_c, 0, 82, 51
1, 168329, Note_on_c, 0, 70, 65
1, 168367, Note_on_c, 0, 67, 0
1, 168571, Note_on_c, 0, 69, 63
1, 168599, Note_on_c, 0, 70, 0
1, 168728, Note_on_c, 0, 67, 59
1, 168757, Note_on_c, 0, 69, 0
1, 168894, Note_on_c, 0, 73, 0
1, 168894, Control_c, 0, 64, 0
1, 168894, Control_c, 0, 64, 127
1, 168897, Note_on_c, 0, 82, 0
1, 168897, Note_on_c, 0, 77, 0
1, 168897, Note_on_c, 0, 65, 66
1, 168900, Control_c, 0, 64, 0
1, 168919, Note_on_c, 0, 67, 0
1, 169055, Note_on_c, 0, 61, 66
1, 169090, Control_c, 0, 64, 0
1, 169090, Control_c, 0, 64, 0
1, 169406, Control_c, 0, 64, 127
1, 169406, Control_c, 0, 64, 127
1, 170659, Note_on_c, 0, 61, 0
1, 170659, Note_on_c, 0, 63, 62
1, 170820, Note_on_c, 0, 63, 0
1, 170820, Note_on_c, 0, 59, 65
1, 171494, Note_on_c, 0, 59, 0
1, 171494, Note_on_c, 0, 61, 59
1, 171718, Control_c, 0, 64, 0
1, 171718, Control_c, 0, 64, 127
1, 171718, Control_c, 0, 64, 127
1, 171721, Note_on_c, 0, 65, 0
1, 171721, Note_on_c, 0, 65, 68
1, 171721, Control_c, 0, 64, 0
1, 171724, Note_on_c, 0, 61, 0
1, 171724, Control_c, 0, 64, 127
1, 171879, Note_on_c, 0, 61, 68
1, 171914, Control_c, 0, 64, 0
1, 171914, Control_c, 0, 64, 0
1, 172230, Control_c, 0, 64, 127
1, 172230, Control_c, 0, 64, 127
1, 173483, Note_on_c, 0, 61, 0
1, 173483, Note_on_c, 0, 63, 57
1, 173708, Note_on_c, 0, 63, 0
1, 173708, Note_on_c, 0, 59, 60
1, 174550, Note_on_c, 0, 59, 0
1, 174550, Note_on_c, 0, 61, 52
1, 174831, Note_on_c, 0, 65, 0
1, 174831, Control_c, 0, 64, 127
1, 174831, Control_c, 0, 64, 127
1, 175064, Note_on_c, 0, 33, 45
1, 175130, Note_on_c, 0, 37, 45
1, 175195, Note_on_c, 0, 45, 45
1, 175261, Note_on_c, 0, 49, 45
1, 175327, Note_on_c, 0, 57, 45
1, 176179, Note_on_c, 0, 80, 52
1, 176291, Note_on_c, 0, 68, 45
1, 176291, Note_on_c, 0, 92, 74
1, 177078, Note_on_c, 0, 77, 52
1, 177190, Note_on_c, 0, 68, 0
1, 177190, Note_on_c, 0, 80, 0
1, 177190, Control_c, 0, 64, 127
1, 177193, Note_on_c, 0, 92, 0
1, 177193, Note_on_c, 0, 65, 45
1, 177193, Note_on_c, 0, 89, 74
1, 177196, Control_c, 0, 64, 127
1, 177976, Note_on_c, 0, 75, 52
1, 178088, Note_on_c, 0, 89, 0
1, 178088, Note_on_c, 0, 65, 0
1, 178088, Note_on_c, 0, 77, 0
1, 178091, Note_on_c, 0, 63, 37
1, 178091, Note_on_c, 0, 87, 66
1, 178987, Note_on_c, 0, 63, 0
1, 178987, Note_on_c, 0, 75, 0
1, 178987, Control_c, 0, 64, 127
1, 178990, Note_on_c, 0, 87, 0
1, 178990, Note_on_c, 0, 33, 0
1, 178990, Control_c, 0, 64, 127
1, 178993, Note_on_c, 0, 49, 0
1, 178993, Note_on_c, 0, 45, 0
1, 178993, Note_on_c, 0, 37, 0
1, 178996, Note_on_c, 0, 61, 0
1, 178996, Note_on_c, 0, 57, 0
1, 178996, Note_on_c, 0, 30, 34
1, 178999, Note_on_c, 0, 37, 34
1, 178999, Note_on_c, 0, 42, 34
1, 178999, Note_on_c, 0, 51, 40
1, 179002, Note_on_c, 0, 58, 40
1, 179002, Note_on_c, 0, 63, 49
1, 179586, Note_on_c, 0, 58, 42
1, 179586, Note_on_c, 0, 70, 50
1, 179586, Note_on_c, 0, 82, 65
1, 180334, Note_on_c, 0, 82, 0
1, 180334, Note_on_c, 0, 70, 0
1, 180334, Note_on_c, 0, 58, 0
1, 180337, Note_on_c, 0, 53, 34
1, 180337, Note_on_c, 0, 65, 36
1, 180337, Note_on_c, 0, 77, 56
1, 180934, Control_c, 0, 64, 127
1, 180934, Control_c, 0, 64, 127
1, 181832, Note_on_c, 0, 77, 0
1, 181832, Note_on_c, 0, 65, 0
1, 181832, Note_on_c, 0, 53, 0
1, 182486, Note_on_c, 0, 33, 44
1, 182552, Note_on_c, 0, 37, 44
1, 182618, Note_on_c, 0, 45, 44
1, 182683, Note_on_c, 0, 49, 44
1, 182749, Note_on_c, 0, 57, 44
1, 182815, Note_on_c, 0, 30, 0
1, 182815, Control_c, 0, 64, 127
1, 182815, Control_c, 0, 64, 127
1, 182818, Note_on_c, 0, 51, 0
1, 182818, Note_on_c, 0, 37, 0
1, 182818, Note_on_c, 0, 42, 0
1, 182821, Note_on_c, 0, 58, 0
1, 182821, Note_on_c, 0, 63, 0
1, 182821, Note_on_c, 0, 61, 58
1, 183601, Note_on_c, 0, 80, 49
1, 183714, Note_on_c, 0, 68, 47
1, 183714, Note_on_c, 0, 92, 74
1, 184500, Note_on_c, 0, 77, 52
1, 184612, Note_on_c, 0, 68, 0
1, 184612, Note_on_c, 0, 80, 0
1, 184612, Control_c, 0, 64, 127
1, 184615, Note_on_c, 0, 92, 0
1, 184615, Note_on_c, 0, 65, 45
1, 184615, Note_on_c, 0, 89, 74
1, 184618, Control_c, 0, 64, 127
1, 185398, Note_on_c, 0, 75, 52
1, 185511, Note_on_c, 0, 89, 0
1, 185511, Note_on_c, 0, 65, 0
1, 185511, Note_on_c, 0, 77, 0
1, 185514, Note_on_c, 0, 63, 37
1, 185514, Note_on_c, 0, 87, 66
1, 186409, Note_on_c, 0, 63, 0
1, 186409, Note_on_c, 0, 75, 0
1, 186409, Control_c, 0, 64, 127
1, 186412, Note_on_c, 0, 87, 0
1, 186412, Note_on_c, 0, 33, 0
1, 186412, Control_c, 0, 64, 127
1, 186415, Note_on_c, 0, 37, 0
1, 186415, Note_on_c, 0, 49, 0
1, 186415, Note_on_c, 0, 45, 0
1, 186418, Note_on_c, 0, 57, 0
1, 186418, Note_on_c, 0, 61, 0
1, 186418, Note_on_c, 0, 30, 34
1, 186421, Note_on_c, 0, 37, 34
1, 186421, Note_on_c, 0, 42, 34
1, 186421, Note_on_c, 0, 51, 40
1, 186424, Note_on_c, 0, 58, 40
1, 186424, Note_on_c, 0, 63, 49
1, 187009, Note_on_c, 0, 58, 42
1, 187009, Note_on_c, 0, 70, 50
1, 187009, Note_on_c, 0, 82, 65
1, 187607, Note_on_c, 0, 82, 0
1, 187607, Note_on_c, 0, 70, 0
1, 187607, Note_on_c, 0, 58, 0
1, 187610, Note_on_c, 0, 53, 34
1, 187610, Note_on_c, 0, 65, 36
1, 187610, Note_on_c, 0, 77, 56
1, 188206, Note_on_c, 0, 65, 0
1, 188206, Note_on_c, 0, 53, 0
1, 188206, Control_c, 0, 64, 127
1, 188209, Note_on_c, 0, 77, 0
1, 188209, Note_on_c, 0, 30, 0
1, 188209, Control_c, 0, 64, 127
1, 188212, Note_on_c, 0, 51, 0
1, 188212, Note_on_c, 0, 37, 0
1, 188212, Note_on_c, 0, 42, 0
1, 188215, Note_on_c, 0, 63, 0
1, 188215, Note_on_c, 0, 58, 0
1, 188215, Note_on_c, 0, 27, 34
1, 188218, Note_on_c, 0, 34, 34
1, 188218, Note_on_c, 0, 39, 34
1, 188218, Note_on_c, 0, 49, 40
1, 188221, Note_on_c, 0, 56, 40
1, 188221, Note_on_c, 0, 61, 49
1, 188806, Note_on_c, 0, 70, 42
1, 188806, Note_on_c, 0, 82, 50
1, 188806, Note_on_c, 0, 94, 65
1, 189404, Note_on_c, 0, 94, 0
1, 189404, Note_on_c, 0, 82, 0
1, 189404, Note_on_c, 0, 70, 0
1, 189407, Note_on_c, 0, 65, 34
1, 189407, Note_on_c, 0, 77, 36
1, 189407, Note_on_c, 0, 89, 56
1, 190004, Note_on_c, 0, 77, 0
1, 190004, Note_on_c, 0, 65, 0
1, 190004, Control_c, 0, 64, 127
1, 190007, Note_on_c, 0, 89, 0
1, 190007, Note_on_c, 0, 27, 0
1, 190007, Control_c, 0, 64, 127
1, 190010, Note_on_c, 0, 49, 0
1, 190010, Note_on_c, 0, 34, 0
1, 190010, Note_on_c, 0, 39, 0
1, 190013, Note_on_c, 0, 61, 0
1, 190013, Note_on_c, 0, 56, 0
1, 190013, Note_on_c, 0, 30, 34
1, 190016, Note_on_c, 0, 37, 34
1, 190016, Note_on_c, 0, 42, 34
1, 190016, Note_on_c, 0, 51, 40
1, 190019, Note_on_c, 0, 58, 40
1, 190019, Note_on_c, 0, 63, 49
1, 190603, Note_on_c, 0, 58, 42
1, 190603, Note_on_c, 0, 70, 50
1, 190603, Note_on_c, 0, 82, 65
1, 191201, Note_on_c, 0, 82, 0
1, 191201, Note_on_c, 0, 70, 0
1, 191201, Note_on_c, 0, 58, 0
1, 191204, Note_on_c, 0, 53, 34
1, 191204, Note_on_c, 0, 65, 36
1, 191204, Note_on_c, 0, 77, 56
1, 191801, Note_on_c, 0, 65, 0
1, 191801, Note_on_c, 0, 53, 0
1, 191801, Control_c, 0, 64, 127
1, 191804, Note_on_c, 0, 77, 0
1, 191804, Note_on_c, 0, 30, 0
1, 191804, Control_c, 0, 64, 127
1, 191807, Note_on_c, 0, 51, 0
1, 191807, Note_on_c, 0, 37, 0
1, 191807, Note_on_c, 0, 42, 0
1, 191810, Note_on_c, 0, 63, 0
1, 191810, Note_on_c, 0, 58, 0
1, 191810, Note_on_c, 0, 27, 34
1, 191813, Note_on_c, 0, 34, 34
1, 191813, Note_on_c, 0, 39, 34
1, 191813, Note_on_c, 0, 49, 40
1, 191816, Note_on_c, 0, 56, 40
1, 191816, Note_on_c, 0, 61, 49
1, 192400, Note_on_c, 0, 70, 42
1, 192400, Note_on_c, 0, 82, 50
1, 192400, Note_on_c, 0, 94, 65
1, 193148, Note_on_c, 0, 94, 0
1, 193148, Note_on_c, 0, 82, 0
1, 193148, Note_on_c, 0, 70, 0
1, 193151, Note_on_c, 0, 65, 34
1, 193151, Note_on_c, 0, 77, 36
1, 193151, Note_on_c, 0, 89, 56
1, 194147, Note_on_c, 0, 77, 0
1, 194147, Note_on_c, 0, 65, 0
1, 194147, Control_c, 0, 64, 127
1, 194150, Note_on_c, 0, 89, 0
1, 194150, Note_on_c, 0, 27, 0
1, 194150, Control_c, 0, 64, 127
1, 194153, Note_on_c, 0, 49, 0
1, 194153, Note_on_c, 0, 34, 0
1, 194153, Note_on_c, 0, 39, 0
1, 194156, Note_on_c, 0, 61, 0
1, 194156, Note_on_c, 0, 56, 0
1, 194156, Note_on_c, 0, 25, 42
1, 194159, Note_on_c, 0, 32, 35
1, 194159, Note_on_c, 0, 37, 35
1, 194159, Note_on_c, 0, 51, 35
1, 194162, Note_on_c, 0, 56, 35
1, 194162, Note_on_c, 0, 63, 42
1, 194896, Note_on_c, 0, 70, 37
1, 194896, Note_on_c, 0, 82, 43
1, 194896, Note_on_c, 0, 94, 59
1, 197142, Control_c, 0, 64, 127
1, 197142, Control_c, 0, 64, 127
1, 198939, Note_on_c, 0, 82, 0
1, 198939, Note_on_c, 0, 70, 0
1, 198939, Control_c, 0, 64, 127
1, 198942, Note_on_c, 0, 94, 0
1, 198942, Note_on_c, 0, 25, 0
1, 198942, Control_c, 0, 64, 127
1, 198945, Note_on_c, 0, 32, 0
1, 198945, Note_on_c, 0, 51, 0
1, 198945, Note_on_c, 0, 37, 0
1, 198948, Note_on_c, 0, 63, 0
1, 198948, Note_on_c, 0, 56, 0
1, 198948, Note_on_c, 0, 56, 41
1, 199080, Note_on_c, 0, 68, 47
1, 199220, Note_on_c, 0, 53, 41
1, 199300, Note_on_c, 0, 65, 47
1, 200129, Note_on_c, 0, 92, 51
1, 200129, Note_on_c, 0, 104, 63
1, 200129, Note_on_c, 0, 25, 43
1, 202055, Control_c, 0, 64, 127
1, 202055, Control_c, 0, 64, 127
1, 206548, Note_on_c, 0, 104, 0
1, 206548, Note_on_c, 0, 92, 0
1, 206548, Control_c, 0, 64, 0
1, 206551, Note_on_c, 0, 53, 0
1, 206551, Note_on_c, 0, 25, 0
1, 206551, Control_c, 0, 64, 0
1, 206554, Note_on_c, 0, 56, 0
1, 206554, Note_on_c, 0, 65, 0
1, 206554, Note_on_c, 0, 68, 0
1, 207296, Control_c, 0, 64, 0
1, 207296, Control_c, 0, 64, 0
1, 207296, End_track
0, 0, End_of_file
