0, 0, Header, 0, 1, 480
1, 0, Start_track
1, 0, SMPTE_offset, 96, 0, 0, 0, 0
1, 0, Time_signature, 4, 2, 24, 8
1, 0, Key_signature, 0, "major"
1, 0, Tempo, 500000
1, 0, Control_c, 0, 64, 127
1, 0, Note_on_c, 0, 58, 13
1, 236, Note_on_c, 0, 60, 27
1, 414, Note_off_c, 0, 60, 64
1, 432, Note_off_c, 0, 58, 64
1, 462, Note_on_c, 0, 62, 16
1, 626, Note_off_c, 0, 62, 64
1, 720, Note_on_c, 0, 67, 20
1, 1238, Note_on_c, 0, 62, 16
1, 1508, Note_on_c, 0, 60, 20
1, 1586, Note_off_c, 0, 67, 64
1, 1596, Note_off_c, 0, 62, 64
1, 1682, Note_off_c, 0, 60, 64
1, 1744, Note_on_c, 0, 58, 21
1, 2262, Note_on_c, 0, 60, 17
1, 2514, Note_off_c, 0, 60, 64
1, 2560, Note_on_c, 0, 62, 19
1, 2680, Note_off_c, 0, 58, 64
1, 2742, Note_off_c, 0, 62, 64
1, 2842, Note_on_c, 0, 67, 13
1, 3336, Note_on_c, 0, 62, 14
1, 3646, Note_on_c, 0, 60, 10
1, 3676, Note_off_c, 0, 62, 64
1, 3774, Note_off_c, 0, 60, 64
1, 3936, Note_on_c, 0, 58, 18
1, 4000, Note_off_c, 0, 67, 64
1, 4354, Note_on_c, 0, 79, 48
1, 4674, Note_on_c, 0, 60, 15
1, 4930, Note_on_c, 0, 62, 16
1, 4979, Note_off_c, 0, 60, 64
1, 5210, Note_on_c, 0, 67, 20
1, 5230, Note_off_c, 0, 58, 64
1, 5256, Note_off_c, 0, 62, 64
1, 5616, Note_on_c, 0, 74, 40
1, 5666, Note_off_c, 0, 79, 64
1, 5910, Note_on_c, 0, 62, 18
1, 6142, Note_on_c, 0, 60, 27
1, 6150, Note_off_c, 0, 62, 64
1, 6308, Note_off_c, 0, 60, 64
1, 6324, Note_off_c, 0, 67, 64
1, 6400, Note_on_c, 0, 58, 15
1, 6940, Note_on_c, 0, 60, 19
1, 7176, Note_off_c, 0, 60, 64
1, 7190, Note_on_c, 0, 76, 45
1, 7252, Note_on_c, 0, 62, 14
1, 7322, Note_off_c, 0, 74, 64
1, 7412, Note_off_c, 0, 58, 64
1, 7440, Note_on_c, 0, 77, 69
1, 7458, Note_off_c, 0, 62, 64
1, 7516, Note_on_c, 0, 67, 8
1, 7538, Note_off_c, 0, 76, 64
1, 7758, Note_on_c, 0, 79, 74
1, 7794, Note_off_c, 0, 77, 64
1, 8014, Note_on_c, 0, 62, 20
1, 8256, Note_on_c, 0, 76, 51
1, 8276, Note_off_c, 0, 62, 64
1, 8352, Note_on_c, 0, 60, 3
1, 8372, Note_off_c, 0, 79, 64
1, 8520, Note_off_c, 0, 60, 64
1, 8532, Note_on_c, 0, 74, 62
1, 8586, Note_on_c, 0, 58, 16
1, 8616, Note_off_c, 0, 76, 64
1, 8908, Note_on_c, 0, 76, 42
1, 8944, Note_off_c, 0, 74, 64
1, 9002, Control_c, 0, 64, 0
1, 9172, Control_c, 0, 64, 127
1, 9206, Note_on_c, 0, 60, 16
1, 9230, Note_off_c, 0, 67, 64
1, 9340, Note_on_c, 0, 72, 36
1, 9446, Note_off_c, 0, 76, 64
1, 9472, Note_off_c, 0, 58, 64
1, 9494, Note_off_c, 0, 60, 64
1, 9540, Note_on_c, 0, 62, 18
1, 9676, Note_on_c, 0, 76, 27
1, 9728, Note_off_c, 0, 72, 64
1, 9750, Note_off_c, 0, 62, 64
1, 9882, Note_on_c, 0, 67, 19
1, 10170, Note_on_c, 0, 74, 35
1, 10316, Note_off_c, 0, 76, 64
1, 10424, Note_on_c, 0, 62, 25
1, 10684, Note_off_c, 0, 62, 64
1, 10706, Note_on_c, 0, 60, 12
1, 10724, Note_off_c, 0, 67, 64
1, 10966, Note_off_c, 0, 60, 64
1, 10996, Note_on_c, 0, 58, 15
1, 11438, Note_on_c, 0, 60, 26
1, 11452, Note_off_c, 0, 58, 64
1, 11716, Note_off_c, 0, 60, 64
1, 11734, Note_on_c, 0, 62, 27
1, 11908, Note_off_c, 0, 62, 64
1, 12018, Note_on_c, 0, 67, 25
1, 12362, Note_on_c, 0, 70, 51
1, 12460, Note_off_c, 0, 74, 64
1, 12628, Note_on_c, 0, 62, 20
1, 12772, Note_off_c, 0, 67, 64
1, 12860, Note_on_c, 0, 74, 81
1, 12870, Note_off_c, 0, 62, 64
1, 12894, Note_on_c, 0, 60, 20
1, 12954, Note_off_c, 0, 70, 64
1, 13110, Note_on_c, 0, 58, 23
1, 13134, Note_off_c, 0, 60, 64
1, 13308, Note_off_c, 0, 58, 64
1, 13350, Note_on_c, 0, 76, 70
1, 13366, Note_on_c, 0, 57, 24
1, 13444, Note_off_c, 0, 74, 64
1, 13518, Control_c, 0, 64, 0
1, 13564, Note_on_c, 0, 58, 22
1, 13780, Control_c, 0, 64, 127
1, 13814, Note_on_c, 0, 77, 69
1, 13844, Note_on_c, 0, 60, 27
1, 13872, Note_off_c, 0, 58, 64
1, 13924, Note_off_c, 0, 76, 64
1, 14012, Control_c, 0, 64, 0
1, 14102, Note_on_c, 0, 65, 31
1, 14240, Note_off_c, 0, 60, 64
1, 14242, Control_c, 0, 64, 127
1, 14490, Note_on_c, 0, 72, 60
1, 14502, Note_off_c, 0, 57, 64
1, 14630, Note_off_c, 0, 77, 64
1, 14710, Note_off_c, 0, 65, 64
1, 14763, Note_on_c, 0, 60, 24
1, 14942, Note_off_c, 0, 60, 64
1, 14976, Note_on_c, 0, 58, 26
1, 15202, Note_off_c, 0, 58, 64
1, 15232, Note_on_c, 0, 57, 19
1, 15394, Note_off_c, 0, 57, 64
1, 15480, Note_on_c, 0, 55, 23
1, 15516, Control_c, 0, 64, 0
1, 15720, Note_on_c, 0, 57, 32
1, 15958, Note_off_c, 0, 57, 64
1, 15958, Note_on_c, 0, 58, 24
1, 16024, Control_c, 0, 64, 127
1, 16248, Note_on_c, 0, 64, 32
1, 16270, Control_c, 0, 64, 0
1, 16292, Note_off_c, 0, 58, 64
1, 16484, Control_c, 0, 64, 127
1, 16584, Note_on_c, 0, 67, 50
1, 16664, Note_off_c, 0, 64, 64
1, 16682, Note_off_c, 0, 55, 64
1, 16710, Note_off_c, 0, 72, 64
1, 16868, Note_on_c, 0, 58, 28
1, 17062, Note_off_c, 0, 58, 64
1, 17116, Note_on_c, 0, 57, 23
1, 17204, Note_off_c, 0, 57, 64
1, 17368, Note_on_c, 0, 55, 19
1, 17436, Note_off_c, 0, 55, 64
1, 17726, Note_on_c, 0, 69, 32
1, 17734, Note_on_c, 0, 41, 32
1, 17760, Control_c, 0, 64, 0
1, 17868, Note_off_c, 0, 67, 64
1, 18100, Note_on_c, 0, 48, 24
1, 18160, Control_c, 0, 64, 127
1, 18338, Note_on_c, 0, 57, 25
1, 18586, Note_on_c, 0, 65, 16
1, 18632, Note_off_c, 0, 57, 64
1, 18824, Note_on_c, 0, 62, 37
1, 18890, Note_off_c, 0, 69, 64
1, 18900, Note_off_c, 0, 65, 64
1, 19078, Note_on_c, 0, 57, 32
1, 19106, Note_off_c, 0, 62, 64
1, 19192, Note_off_c, 0, 57, 64
1, 19280, Note_off_c, 0, 48, 64
1, 19322, Note_on_c, 0, 60, 32
1, 19334, Note_off_c, 0, 41, 64
1, 19462, Note_off_c, 0, 60, 64
1, 19552, Note_on_c, 0, 65, 20
1, 19780, Note_off_c, 0, 65, 64
1, 19824, Note_on_c, 0, 41, 28
1, 20090, Note_on_c, 0, 69, 2
1, 20100, Note_on_c, 0, 48, 19
1, 20336, Note_on_c, 0, 57, 17
1, 20582, Note_on_c, 0, 65, 15
1, 20764, Note_off_c, 0, 57, 64
1, 20872, Note_on_c, 0, 62, 22
1, 20968, Note_off_c, 0, 65, 64
1, 21102, Note_off_c, 0, 62, 64
1, 21138, Note_on_c, 0, 57, 9
1, 21314, Note_off_c, 0, 57, 64
1, 21348, Note_off_c, 0, 48, 64
1, 21398, Note_on_c, 0, 60, 21
1, 21562, Note_off_c, 0, 41, 64
1, 21568, Note_off_c, 0, 60, 64
1, 21594, Note_off_c, 0, 69, 64
1, 21786, Note_on_c, 0, 65, 14
1, 21878, Note_off_c, 0, 65, 64
1, 22394, Note_on_c, 0, 81, 50
1, 22414, Note_on_c, 0, 38, 24
1, 22538, Control_c, 0, 64, 0
1, 22784, Note_on_c, 0, 45, 21
1, 22860, Control_c, 0, 64, 127
1, 22930, Note_off_c, 0, 38, 64
1, 22988, Note_off_c, 0, 45, 64
1, 23074, Note_on_c, 0, 50, 28
1, 23228, Note_off_c, 0, 50, 64
1, 23302, Note_on_c, 0, 53, 54
1, 23508, Note_off_c, 0, 53, 64
1, 23550, Note_on_c, 0, 76, 45
1, 23570, Note_on_c, 0, 57, 34
1, 23656, Note_off_c, 0, 81, 64
1, 23702, Note_off_c, 0, 57, 64
1, 23788, Note_on_c, 0, 60, 34
1, 23962, Note_off_c, 0, 60, 64
1, 24016, Note_on_c, 0, 64, 32
1, 24180, Note_off_c, 0, 64, 64
1, 24238, Note_on_c, 0, 60, 32
1, 24422, Note_off_c, 0, 60, 64
1, 24512, Note_on_c, 0, 57, 19
1, 24702, Note_off_c, 0, 57, 64
1, 24782, Note_on_c, 0, 53, 30
1, 24938, Note_off_c, 0, 53, 64
1, 25006, Note_on_c, 0, 72, 59
1, 25040, Note_on_c, 0, 57, 27
1, 25080, Note_off_c, 0, 76, 64
1, 25126, Note_off_c, 0, 57, 64
1, 25276, Note_on_c, 0, 76, 67
1, 25300, Note_on_c, 0, 60, 36
1, 25358, Note_off_c, 0, 72, 64
1, 25364, Note_off_c, 0, 60, 64
1, 25526, Note_on_c, 0, 43, 40
1, 25526, Note_on_c, 0, 74, 73
1, 25642, Control_c, 0, 64, 0
1, 25680, Note_off_c, 0, 76, 64
1, 25782, Note_on_c, 0, 50, 47
1, 25872, Control_c, 0, 64, 127
1, 25884, Note_off_c, 0, 50, 64
1, 25910, Note_off_c, 0, 43, 64
1, 26006, Note_on_c, 0, 70, 53
1, 26022, Note_on_c, 0, 55, 41
1, 26096, Note_off_c, 0, 55, 64
1, 26106, Note_off_c, 0, 74, 64
1, 26288, Note_on_c, 0, 58, 31
1, 26294, Note_on_c, 0, 67, 66
1, 26312, Note_off_c, 0, 70, 64
1, 26354, Note_off_c, 0, 58, 64
1, 26430, Note_off_c, 0, 67, 64
1, 26746, Note_on_c, 0, 81, 65
1, 26754, Note_on_c, 0, 38, 40
1, 26856, Control_c, 0, 64, 0
1, 27098, Note_on_c, 0, 45, 36
1, 27132, Control_c, 0, 64, 127
1, 27194, Note_off_c, 0, 45, 64
1, 27216, Note_off_c, 0, 38, 64
1, 27414, Note_on_c, 0, 50, 29
1, 27502, Note_off_c, 0, 50, 64
1, 27696, Note_on_c, 0, 53, 26
1, 27824, Note_off_c, 0, 53, 64
1, 27950, Note_on_c, 0, 76, 44
1, 27964, Note_on_c, 0, 57, 31
1, 28020, Note_off_c, 0, 81, 64
1, 28070, Note_off_c, 0, 57, 64
1, 28212, Note_on_c, 0, 60, 28
1, 28398, Note_off_c, 0, 60, 64
1, 28444, Note_on_c, 0, 64, 31
1, 28630, Note_off_c, 0, 64, 64
1, 28694, Note_on_c, 0, 60, 24
1, 28894, Note_off_c, 0, 60, 64
1, 28954, Note_on_c, 0, 57, 13
1, 29138, Note_off_c, 0, 57, 64
1, 29254, Note_on_c, 0, 53, 16
1, 29350, Note_off_c, 0, 53, 64
1, 29460, Note_on_c, 0, 72, 40
1, 29496, Note_on_c, 0, 57, 22
1, 29522, Note_off_c, 0, 76, 64
1, 29582, Note_off_c, 0, 57, 64
1, 29740, Note_on_c, 0, 76, 52
1, 29780, Note_on_c, 0, 60, 28
1, 29814, Note_off_c, 0, 72, 64
1, 29852, Note_off_c, 0, 60, 64
1, 30050, Note_on_c, 0, 74, 42
1, 30108, Note_on_c, 0, 43, 25
1, 30174, Control_c, 0, 64, 0
1, 30216, Note_off_c, 0, 76, 64
1, 30358, Note_on_c, 0, 50, 30
1, 30406, Control_c, 0, 64, 127
1, 30518, Note_off_c, 0, 43, 64
1, 30544, Note_off_c, 0, 50, 64
1, 30600, Note_on_c, 0, 70, 41
1, 30624, Note_on_c, 0, 55, 42
1, 30686, Note_off_c, 0, 74, 64
1, 30700, Note_off_c, 0, 55, 64
1, 30858, Note_on_c, 0, 58, 21
1, 30876, Note_on_c, 0, 67, 52
1, 30892, Note_off_c, 0, 70, 64
1, 30936, Note_off_c, 0, 58, 64
1, 31306, Note_on_c, 0, 36, 31
1, 31346, Note_off_c, 0, 67, 64
1, 31356, Note_on_c, 0, 79, 66
1, 31434, Control_c, 0, 64, 0
1, 31680, Control_c, 0, 64, 127
1, 31727, Note_on_c, 0, 43, 16
1, 31762, Note_off_c, 0, 36, 64
1, 31818, Note_off_c, 0, 43, 64
1, 32028, Note_on_c, 0, 52, 38
1, 32082, Note_off_c, 0, 52, 64
1, 32298, Note_on_c, 0, 55, 36
1, 32476, Note_off_c, 0, 79, 64
1, 32488, Note_off_c, 0, 55, 64
1, 32518, Note_on_c, 0, 74, 62
1, 32536, Note_on_c, 0, 58, 23
1, 32572, Note_off_c, 0, 74, 64
1, 32696, Note_off_c, 0, 58, 64
1, 32804, Note_on_c, 0, 62, 29
1, 32878, Note_off_c, 0, 62, 64
1, 33058, Note_on_c, 0, 64, 25
1, 33152, Note_off_c, 0, 64, 64
1, 33322, Note_on_c, 0, 62, 23
1, 33418, Note_off_c, 0, 62, 64
1, 33554, Note_on_c, 0, 58, 20
1, 33698, Note_off_c, 0, 58, 64
1, 33826, Note_on_c, 0, 55, 24
1, 34040, Note_off_c, 0, 55, 64
1, 34114, Note_on_c, 0, 70, 30
1, 34168, Note_on_c, 0, 52, 16
1, 34272, Note_off_c, 0, 52, 64
1, 34408, Note_on_c, 0, 74, 42
1, 34428, Note_on_c, 0, 48, 17
1, 34460, Note_off_c, 0, 70, 64
1, 34496, Note_off_c, 0, 48, 64
1, 34692, Note_on_c, 0, 72, 42
1, 34718, Note_on_c, 0, 41, 26
1, 34770, Control_c, 0, 64, 0
1, 34862, Note_off_c, 0, 74, 64
1, 34936, Note_on_c, 0, 48, 27
1, 35030, Control_c, 0, 64, 127
1, 35092, Note_off_c, 0, 41, 64
1, 35154, Note_off_c, 0, 48, 64
1, 35204, Note_on_c, 0, 69, 28
1, 35236, Note_on_c, 0, 53, 44
1, 35244, Note_off_c, 0, 72, 64
1, 35344, Note_off_c, 0, 53, 64
1, 35454, Note_off_c, 0, 69, 64
1, 35456, Note_on_c, 0, 67, 59
1, 35468, Note_on_c, 0, 57, 35
1, 35526, Note_off_c, 0, 57, 64
1, 35728, Note_on_c, 0, 69, 48
1, 35734, Note_on_c, 0, 45, 28
1, 35738, Control_c, 0, 64, 0
1, 35792, Note_off_c, 0, 67, 64
1, 35978, Note_on_c, 0, 52, 45
1, 36076, Control_c, 0, 64, 127
1, 36140, Note_off_c, 0, 52, 64
1, 36188, Note_off_c, 0, 45, 64
1, 36204, Note_on_c, 0, 64, 57
1, 36230, Note_on_c, 0, 60, 22
1, 36234, Note_on_c, 0, 57, 37
1, 36258, Note_off_c, 0, 69, 64
1, 36310, Note_off_c, 0, 57, 64
1, 36462, Note_on_c, 0, 69, 57
1, 36466, Note_off_c, 0, 60, 64
1, 36498, Note_on_c, 0, 52, 42
1, 36514, Note_off_c, 0, 64, 64
1, 36590, Note_off_c, 0, 52, 64
1, 36716, Note_on_c, 0, 50, 32
1, 36719, Note_on_c, 0, 65, 59
1, 36736, Control_c, 0, 64, 0
1, 36840, Note_off_c, 0, 69, 64
1, 36946, Note_on_c, 0, 57, 32
1, 36998, Control_c, 0, 64, 127
1, 37034, Note_off_c, 0, 57, 64
1, 37122, Note_off_c, 0, 50, 64
1, 37194, Note_on_c, 0, 62, 60
1, 37216, Note_on_c, 0, 53, 46
1, 37228, Note_on_c, 0, 57, 9
1, 37250, Note_off_c, 0, 65, 64
1, 37286, Note_off_c, 0, 53, 64
1, 37442, Note_off_c, 0, 57, 64
1, 37458, Note_on_c, 0, 65, 67
1, 37462, Note_on_c, 0, 50, 32
1, 37508, Note_off_c, 0, 62, 64
1, 37526, Note_off_c, 0, 50, 64
1, 37744, Note_on_c, 0, 43, 33
1, 37750, Control_c, 0, 64, 0
1, 37820, Note_on_c, 0, 62, 70
1, 38006, Note_off_c, 0, 65, 64
1, 38104, Note_off_c, 0, 43, 64
1, 38104, Control_c, 0, 64, 127
1, 38104, Note_on_c, 0, 53, 48
1, 38202, Note_off_c, 0, 53, 64
1, 38374, Note_on_c, 0, 55, 30
1, 38448, Note_off_c, 0, 55, 64
1, 38634, Note_on_c, 0, 58, 22
1, 38664, Note_on_c, 0, 55, 20
1, 38980, Control_c, 0, 64, 0
1, 39006, Note_on_c, 0, 60, 44
1, 39022, Note_on_c, 0, 36, 21
1, 39114, Note_off_c, 0, 55, 64
1, 39144, Note_off_c, 0, 58, 64
1, 39188, Note_off_c, 0, 62, 64
1, 39292, Note_on_c, 0, 43, 33
1, 39348, Note_off_c, 0, 36, 64
1, 39378, Control_c, 0, 64, 127
1, 39526, Note_off_c, 0, 43, 64
1, 39612, Note_on_c, 0, 52, 28
1, 39726, Note_off_c, 0, 52, 64
1, 40020, Note_on_c, 0, 58, 15
1, 40046, Note_on_c, 0, 55, 25
1, 40116, Note_off_c, 0, 60, 64
1, 40118, Note_off_c, 0, 55, 64
1, 40168, Note_off_c, 0, 58, 64
1, 41018, Note_on_c, 0, 84, 37
1, 41034, Note_on_c, 0, 29, 32
1, 41044, Note_on_c, 0, 72, 15
1, 41050, Note_on_c, 0, 75, 16
1, 41160, Control_c, 0, 64, 0
1, 41438, Control_c, 0, 64, 127
1, 41458, Note_off_c, 0, 29, 64
1, 41532, Note_on_c, 0, 41, 26
1, 41596, Note_off_c, 0, 41, 64
1, 41689, Note_off_c, 0, 72, 64
1, 41772, Note_off_c, 0, 84, 64
1, 41884, Note_on_c, 0, 48, 19
1, 42122, Note_off_c, 0, 75, 64
1, 42162, Note_off_c, 0, 48, 64
1, 42200, Note_on_c, 0, 51, 26
1, 42336, Note_off_c, 0, 51, 64
1, 42580, Note_on_c, 0, 55, 13
1, 42582, Note_on_c, 0, 79, 43
1, 42630, Note_on_c, 0, 67, 10
1, 42652, Note_off_c, 0, 55, 64
1, 42766, Note_off_c, 0, 67, 64
1, 42944, Note_on_c, 0, 57, 26
1, 43072, Note_off_c, 0, 57, 64
1, 43210, Note_on_c, 0, 60, 16
1, 43382, Note_off_c, 0, 60, 64
1, 43454, Note_on_c, 0, 63, 23
1, 43612, Note_off_c, 0, 63, 64
1, 43700, Note_on_c, 0, 67, 27
1, 43824, Note_off_c, 0, 67, 64
1, 43958, Note_on_c, 0, 63, 34
1, 44098, Note_off_c, 0, 63, 64
1, 44154, Note_on_c, 0, 81, 67
1, 44176, Note_off_c, 0, 79, 64
1, 44184, Note_on_c, 0, 69, 22
1, 44196, Note_on_c, 0, 60, 20
1, 44264, Note_off_c, 0, 69, 64
1, 44382, Note_off_c, 0, 60, 64
1, 44438, Note_on_c, 0, 82, 70
1, 44444, Note_on_c, 0, 70, 43
1, 44464, Note_on_c, 0, 57, 26
1, 44488, Note_off_c, 0, 81, 64
1, 44510, Note_off_c, 0, 70, 64
1, 44526, Note_off_c, 0, 57, 64
1, 44730, Note_on_c, 0, 55, 56
1, 44796, Note_off_c, 0, 55, 64
1, 44798, Note_on_c, 0, 84, 87
1, 44806, Note_on_c, 0, 72, 36
1, 44812, Note_on_c, 0, 75, 26
1, 44870, Note_off_c, 0, 82, 64
1, 45026, Note_on_c, 0, 51, 26
1, 45036, Note_off_c, 0, 84, 64
1, 45106, Note_off_c, 0, 72, 64
1, 45138, Note_off_c, 0, 51, 64
1, 45234, Note_on_c, 0, 48, 26
1, 45258, Note_on_c, 0, 81, 76
1, 45260, Note_on_c, 0, 69, 50
1, 45298, Note_off_c, 0, 75, 64
1, 45334, Note_off_c, 0, 48, 64
1, 45370, Note_off_c, 0, 69, 64
1, 45390, Note_off_c, 0, 81, 64
1, 45494, Note_on_c, 0, 41, 34
1, 45536, Note_on_c, 0, 79, 86
1, 45544, Note_on_c, 0, 67, 50
1, 45556, Note_off_c, 0, 41, 64
1, 45768, Note_off_c, 0, 67, 64
1, 45836, Note_off_c, 0, 79, 64
1, 45850, Note_on_c, 0, 29, 34
1, 45952, Note_on_c, 0, 81, 64
1, 45957, Note_on_c, 0, 69, 38
1, 45976, Note_on_c, 0, 75, 34
1, 46000, Control_c, 0, 64, 0
1, 46202, Control_c, 0, 64, 127
1, 46216, Note_off_c, 0, 81, 64
1, 46224, Note_off_c, 0, 75, 64
1, 46238, Note_off_c, 0, 29, 64
1, 46266, Note_off_c, 0, 69, 64
1, 46298, Note_on_c, 0, 41, 37
1, 46352, Note_off_c, 0, 41, 64
1, 46450, Note_on_c, 0, 77, 64
1, 46450, Note_on_c, 0, 65, 48
1, 46540, Note_off_c, 0, 65, 64
1, 46592, Note_off_c, 0, 77, 64
1, 46626, Note_on_c, 0, 48, 32
1, 46828, Note_off_c, 0, 48, 64
1, 46831, Note_on_c, 0, 69, 46
1, 46844, Note_on_c, 0, 81, 48
1, 46922, Note_on_c, 0, 51, 39
1, 46970, Note_off_c, 0, 69, 64
1, 46982, Note_off_c, 0, 81, 64
1, 47156, Note_off_c, 0, 51, 64
1, 47204, Note_on_c, 0, 55, 39
1, 47260, Note_off_c, 0, 55, 64
1, 47260, Note_on_c, 0, 79, 60
1, 47262, Note_on_c, 0, 75, 36
1, 47264, Note_on_c, 0, 67, 37
1, 47514, Note_on_c, 0, 57, 19
1, 47626, Note_off_c, 0, 67, 64
1, 47696, Note_off_c, 0, 57, 64
1, 47746, Note_on_c, 0, 60, 21
1, 47946, Note_off_c, 0, 60, 64
1, 47974, Note_on_c, 0, 63, 30
1, 48090, Note_off_c, 0, 63, 64
1, 48220, Note_on_c, 0, 67, 27
1, 48362, Note_off_c, 0, 67, 64
1, 48452, Note_on_c, 0, 63, 37
1, 48610, Note_off_c, 0, 63, 64
1, 48676, Note_on_c, 0, 60, 27
1, 48704, Note_off_c, 0, 75, 64
1, 48754, Note_off_c, 0, 79, 64
1, 48774, Note_off_c, 0, 60, 64
1, 48912, Note_on_c, 0, 57, 24
1, 48984, Note_off_c, 0, 57, 64
1, 49220, Note_on_c, 0, 75, 53
1, 49220, Note_on_c, 0, 55, 2
1, 49228, Note_on_c, 0, 63, 28
1, 49237, Note_on_c, 0, 72, 31
1, 49344, Note_off_c, 0, 55, 64
1, 49370, Note_off_c, 0, 63, 64
1, 49476, Note_on_c, 0, 51, 31
1, 49613, Note_off_c, 0, 72, 64
1, 49652, Note_off_c, 0, 51, 64
1, 49706, Note_on_c, 0, 48, 18
1, 49722, Note_on_c, 0, 79, 72
1, 49736, Note_on_c, 0, 67, 39
1, 49750, Note_off_c, 0, 75, 64
1, 49792, Note_off_c, 0, 48, 64
1, 49876, Note_off_c, 0, 67, 64
1, 49936, Note_on_c, 0, 41, 37
1, 49954, Note_off_c, 0, 79, 64
1, 49990, Note_off_c, 0, 41, 64
1, 50198, Note_on_c, 0, 81, 60
1, 50201, Note_on_c, 0, 34, 31
1, 50216, Note_on_c, 0, 69, 26
1, 50223, Note_on_c, 0, 74, 36
1, 50226, Control_c, 0, 64, 0
1, 50456, Note_off_c, 0, 34, 64
1, 50456, Control_c, 0, 64, 127
1, 50468, Note_on_c, 0, 41, 37
1, 50492, Note_off_c, 0, 69, 64
1, 50506, Note_off_c, 0, 81, 64
1, 50541, Note_off_c, 0, 74, 64
1, 50654, Note_off_c, 0, 41, 64
1, 50684, Note_on_c, 0, 46, 29
1, 50684, Note_on_c, 0, 82, 62
1, 50692, Note_on_c, 0, 70, 48
1, 50848, Note_off_c, 0, 82, 64
1, 50882, Note_off_c, 0, 46, 64
1, 50894, Note_off_c, 0, 70, 64
1, 50942, Note_on_c, 0, 50, 53
1, 50992, Note_off_c, 0, 50, 64
1, 51166, Note_on_c, 0, 53, 66
1, 51196, Note_on_c, 0, 65, 41
1, 51198, Note_on_c, 0, 77, 63
1, 51224, Note_on_c, 0, 74, 40
1, 51244, Note_off_c, 0, 53, 64
1, 51382, Note_off_c, 0, 65, 64
1, 51406, Note_on_c, 0, 58, 34
1, 51516, Note_off_c, 0, 58, 64
1, 51616, Note_on_c, 0, 62, 44
1, 51752, Note_off_c, 0, 62, 64
1, 51808, Note_on_c, 0, 65, 43
1, 51970, Note_off_c, 0, 65, 64
1, 52032, Note_on_c, 0, 62, 34
1, 52238, Note_off_c, 0, 62, 64
1, 52250, Note_on_c, 0, 58, 21
1, 52410, Note_off_c, 0, 74, 64
1, 52442, Note_off_c, 0, 58, 64
1, 52454, Note_off_c, 0, 77, 64
1, 52502, Note_on_c, 0, 53, 59
1, 52556, Note_off_c, 0, 53, 64
1, 52696, Note_on_c, 0, 50, 57
1, 52836, Note_off_c, 0, 50, 64
1, 52928, Note_on_c, 0, 81, 89
1, 52936, Note_on_c, 0, 69, 56
1, 52939, Note_on_c, 0, 74, 57
1, 52946, Note_on_c, 0, 46, 35
1, 53066, Note_off_c, 0, 46, 64
1, 53162, Note_off_c, 0, 69, 64
1, 53178, Note_on_c, 0, 41, 36
1, 53208, Note_off_c, 0, 81, 64
1, 53218, Note_off_c, 0, 74, 64
1, 53238, Note_off_c, 0, 41, 64
1, 53344, Note_on_c, 0, 82, 90
1, 53352, Note_on_c, 0, 34, 54
1, 53358, Note_on_c, 0, 70, 67
1, 53458, Note_off_c, 0, 34, 64
1, 53478, Note_off_c, 0, 70, 64
1, 53586, Note_on_c, 0, 41, 55
1, 53634, Note_off_c, 0, 41, 64
1, 53772, Note_on_c, 0, 84, 100
1, 53780, Note_on_c, 0, 34, 36
1, 53782, Note_on_c, 0, 72, 74
1, 53785, Note_on_c, 0, 77, 68
1, 53798, Note_off_c, 0, 82, 64
1, 53806, Control_c, 0, 64, 0
1, 53998, Note_on_c, 0, 41, 56
1, 54012, Note_off_c, 0, 34, 64
1, 54038, Control_c, 0, 64, 127
1, 54160, Note_off_c, 0, 72, 64
1, 54165, Note_off_c, 0, 77, 64
1, 54186, Note_off_c, 0, 84, 64
1, 54248, Note_off_c, 0, 41, 64
1, 54258, Note_on_c, 0, 46, 41
1, 54294, Note_on_c, 0, 86, 101
1, 54300, Note_on_c, 0, 74, 89
1, 54400, Note_off_c, 0, 86, 64
1, 54430, Note_off_c, 0, 74, 64
1, 54482, Note_off_c, 0, 46, 64
1, 54526, Note_on_c, 0, 50, 64
1, 54572, Note_off_c, 0, 50, 64
1, 54730, Note_on_c, 0, 81, 90
1, 54734, Note_on_c, 0, 69, 67
1, 54740, Note_on_c, 0, 74, 66
1, 54750, Note_on_c, 0, 53, 62
1, 54944, Note_on_c, 0, 58, 53
1, 55022, Note_off_c, 0, 53, 64
1, 55164, Note_on_c, 0, 62, 56
1, 55212, Note_off_c, 0, 58, 64
1, 55356, Note_off_c, 0, 62, 64
1, 55374, Note_on_c, 0, 65, 63
1, 55572, Note_off_c, 0, 65, 64
1, 55592, Note_on_c, 0, 62, 74
1, 55796, Note_off_c, 0, 62, 64
1, 55799, Note_on_c, 0, 58, 55
1, 55926, Note_off_c, 0, 58, 64
1, 56017, Note_off_c, 0, 74, 64
1, 56020, Note_on_c, 0, 53, 84
1, 56038, Note_off_c, 0, 69, 64
1, 56092, Note_off_c, 0, 81, 64
1, 56190, Note_off_c, 0, 53, 64
1, 56230, Note_on_c, 0, 50, 80
1, 56280, Note_off_c, 0, 50, 64
1, 56432, Note_on_c, 0, 82, 92
1, 56444, Note_on_c, 0, 46, 58
1, 56444, Note_on_c, 0, 70, 71
1, 56568, Note_off_c, 0, 70, 64
1, 56632, Note_off_c, 0, 46, 64
1, 56662, Note_on_c, 0, 41, 67
1, 56852, Note_off_c, 0, 41, 64
1, 56884, Note_on_c, 0, 86, 98
1, 56886, Note_on_c, 0, 34, 57
1, 56896, Note_on_c, 0, 74, 83
1, 56934, Note_off_c, 0, 82, 64
1, 57042, Note_off_c, 0, 74, 64
1, 57096, Note_off_c, 0, 34, 64
1, 57136, Note_off_c, 0, 86, 64
1, 57184, Note_on_c, 0, 41, 70
1, 57310, Note_off_c, 0, 41, 64
1, 57466, Note_on_c, 0, 89, 93
1, 57466, Note_on_c, 0, 77, 92
1, 57469, Note_on_c, 0, 85, 81
1, 57476, Note_on_c, 0, 31, 84
1, 57556, Control_c, 0, 64, 0
1, 57790, Note_off_c, 0, 31, 64
1, 57795, Note_on_c, 0, 43, 75
1, 57802, Control_c, 0, 64, 127
1, 57846, Note_off_c, 0, 43, 64
1, 58088, Note_on_c, 0, 49, 64
1, 58316, Note_off_c, 0, 89, 64
1, 58330, Note_off_c, 0, 85, 64
1, 58400, Note_off_c, 0, 77, 64
1, 58403, Note_on_c, 0, 53, 84
1, 58416, Note_off_c, 0, 49, 64
1, 58622, Note_off_c, 0, 53, 64
1, 58688, Note_on_c, 0, 85, 90
1, 58700, Note_on_c, 0, 73, 69
1, 58702, Note_on_c, 0, 57, 49
1, 58866, Note_off_c, 0, 57, 64
1, 58928, Note_on_c, 0, 61, 62
1, 59066, Note_off_c, 0, 61, 64
1, 59164, Note_on_c, 0, 65, 57
1, 59218, Note_off_c, 0, 65, 64
1, 59446, Note_on_c, 0, 69, 46
1, 59506, Note_off_c, 0, 69, 64
1, 59870, Note_on_c, 0, 43, 48
1, 59918, Note_off_c, 0, 85, 64
1, 59966, Note_off_c, 0, 73, 64
1, 59968, Control_c, 0, 64, 0
1, 60230, Note_on_c, 0, 50, 31
1, 60290, Control_c, 0, 64, 127
1, 60364, Note_off_c, 0, 43, 64
1, 60432, Note_off_c, 0, 50, 64
1, 60506, Note_on_c, 0, 74, 41
1, 60518, Note_on_c, 0, 69, 11
1, 60528, Note_on_c, 0, 53, 44
1, 60626, Note_off_c, 0, 53, 64
1, 60776, Note_on_c, 0, 57, 36
1, 60779, Note_on_c, 0, 76, 62
1, 60924, Note_off_c, 0, 57, 64
1, 61012, Note_on_c, 0, 62, 44
1, 61022, Note_off_c, 0, 74, 64
1, 61040, Note_off_c, 0, 69, 64
1, 61052, Note_on_c, 0, 77, 79
1, 61110, Note_off_c, 0, 76, 64
1, 61116, Note_off_c, 0, 62, 64
1, 61212, Note_off_c, 0, 77, 64
1, 61280, Note_on_c, 0, 57, 40
1, 61334, Note_off_c, 0, 57, 64
1, 61524, Note_on_c, 0, 53, 56
1, 61524, Note_on_c, 0, 77, 60
1, 61588, Note_off_c, 0, 53, 64
1, 61648, Note_off_c, 0, 77, 64
1, 61794, Note_on_c, 0, 81, 83
1, 61800, Note_on_c, 0, 50, 42
1, 61856, Note_off_c, 0, 50, 64
1, 61898, Note_off_c, 0, 81, 64
1, 62196, Note_on_c, 0, 89, 105
1, 62198, Note_on_c, 0, 77, 100
1, 62200, Note_on_c, 0, 31, 92
1, 62208, Note_on_c, 0, 85, 76
1, 62410, Control_c, 0, 64, 0
1, 62534, Note_off_c, 0, 31, 64
1, 62540, Note_on_c, 0, 43, 71
1, 62584, Note_off_c, 0, 43, 64
1, 62596, Control_c, 0, 64, 127
1, 62896, Note_on_c, 0, 49, 50
1, 63090, Note_off_c, 0, 49, 64
1, 63114, Note_off_c, 0, 85, 64
1, 63140, Note_off_c, 0, 89, 64
1, 63196, Note_off_c, 0, 77, 64
1, 63202, Note_on_c, 0, 53, 79
1, 63258, Note_off_c, 0, 53, 64
1, 63464, Note_on_c, 0, 85, 85
1, 63474, Note_on_c, 0, 73, 63
1, 63477, Note_on_c, 0, 57, 52
1, 63566, Note_off_c, 0, 57, 64
1, 63698, Note_on_c, 0, 61, 64
1, 63832, Note_off_c, 0, 61, 64
1, 63962, Note_on_c, 0, 65, 58
1, 64024, Note_off_c, 0, 65, 64
1, 64242, Note_on_c, 0, 69, 52
1, 64310, Note_off_c, 0, 69, 64
1, 64640, Note_on_c, 0, 43, 36
1, 64645, Note_off_c, 0, 73, 64
1, 64670, Note_off_c, 0, 85, 64
1, 64746, Control_c, 0, 64, 0
1, 64982, Note_on_c, 0, 50, 41
1, 65008, Control_c, 0, 64, 127
1, 65090, Note_off_c, 0, 43, 64
1, 65154, Note_off_c, 0, 50, 64
1, 65276, Note_on_c, 0, 74, 41
1, 65288, Note_on_c, 0, 69, 6
1, 65308, Note_on_c, 0, 53, 41
1, 65390, Note_off_c, 0, 53, 64
1, 65554, Note_on_c, 0, 76, 59
1, 65574, Note_on_c, 0, 57, 24
1, 65684, Note_off_c, 0, 57, 64
1, 65722, Note_off_c, 0, 74, 64
1, 65820, Note_on_c, 0, 62, 39
1, 65823, Note_on_c, 0, 77, 68
1, 65876, Note_off_c, 0, 76, 64
1, 65890, Note_off_c, 0, 62, 64
1, 66016, Note_off_c, 0, 77, 64
1, 66062, Note_on_c, 0, 57, 30
1, 66122, Note_off_c, 0, 57, 64
1, 66318, Note_on_c, 0, 53, 42
1, 66324, Note_on_c, 0, 77, 48
1, 66352, Note_off_c, 0, 69, 64
1, 66382, Note_off_c, 0, 53, 64
1, 66576, Note_on_c, 0, 50, 14
1, 66581, Note_on_c, 0, 81, 51
1, 66594, Note_off_c, 0, 77, 64
1, 66660, Note_off_c, 0, 50, 64
1, 66866, Note_on_c, 0, 43, 21
1, 66920, Note_on_c, 0, 77, 51
1, 66923, Note_on_c, 0, 69, 22
1, 66964, Note_off_c, 0, 81, 64
1, 66990, Control_c, 0, 64, 0
1, 67174, Control_c, 0, 64, 127
1, 67210, Note_off_c, 0, 69, 64
1, 67222, Note_on_c, 0, 50, 28
1, 67254, Note_off_c, 0, 77, 64
1, 67316, Note_off_c, 0, 50, 64
1, 67344, Note_off_c, 0, 43, 64
1, 67506, Note_on_c, 0, 62, 48
1, 67550, Note_on_c, 0, 53, 39
1, 67628, Note_off_c, 0, 53, 64
1, 67710, Note_off_c, 0, 62, 64
1, 67746, Note_on_c, 0, 64, 69
1, 67788, Note_on_c, 0, 57, 22
1, 67896, Note_off_c, 0, 57, 64
1, 67962, Note_off_c, 0, 64, 64
1, 68018, Note_on_c, 0, 65, 69
1, 68044, Note_on_c, 0, 62, 31
1, 68172, Control_c, 0, 64, 0
1, 68242, Note_off_c, 0, 62, 64
1, 68278, Note_on_c, 0, 57, 31
1, 68296, Control_c, 0, 64, 127
1, 68328, Note_off_c, 0, 65, 64
1, 68338, Note_off_c, 0, 57, 64
1, 68500, Note_on_c, 0, 65, 57
1, 68516, Note_on_c, 0, 53, 44
1, 68592, Note_off_c, 0, 53, 64
1, 68724, Note_off_c, 0, 65, 64
1, 68740, Note_on_c, 0, 69, 54
1, 68758, Note_on_c, 0, 50, 21
1, 68846, Note_off_c, 0, 50, 64
1, 69044, Note_on_c, 0, 43, 21
1, 69056, Note_on_c, 0, 65, 59
1, 69172, Control_c, 0, 64, 0
1, 69196, Note_off_c, 0, 69, 64
1, 69336, Note_on_c, 0, 50, 28
1, 69402, Control_c, 0, 64, 127
1, 69452, Note_off_c, 0, 43, 64
1, 69484, Note_off_c, 0, 50, 64
1, 69596, Note_on_c, 0, 53, 55
1, 69736, Note_off_c, 0, 53, 64
1, 69820, Note_on_c, 0, 57, 25
1, 69942, Note_off_c, 0, 57, 64
1, 70080, Note_on_c, 0, 62, 65
1, 70104, Note_on_c, 0, 59, 21
1, 70140, Control_c, 0, 64, 0
1, 70198, Note_off_c, 0, 65, 64
1, 70310, Note_on_c, 0, 57, 34
1, 70324, Note_off_c, 0, 59, 64
1, 70340, Control_c, 0, 64, 127
1, 70560, Note_off_c, 0, 57, 64
1, 70580, Note_on_c, 0, 55, 39
1, 70738, Note_off_c, 0, 55, 64
1, 70876, Note_on_c, 0, 53, 55
1, 70938, Note_off_c, 0, 53, 64
1, 71264, Note_on_c, 0, 59, 44
1, 71290, Note_on_c, 0, 36, 36
1, 71322, Control_c, 0, 64, 0
1, 71630, Control_c, 0, 64, 127
1, 71672, Note_on_c, 0, 43, 25
1, 71752, Note_off_c, 0, 36, 64
1, 71850, Note_off_c, 0, 43, 64
1, 71974, Note_on_c, 0, 48, 28
1, 72040, Note_on_c, 0, 60, 44
1, 72060, Note_off_c, 0, 59, 64
1, 72168, Note_off_c, 0, 62, 64
1, 72290, Note_on_c, 0, 52, 38
1, 72550, Note_on_c, 0, 72, 49
1, 72556, Note_off_c, 0, 60, 64
1, 72568, Control_c, 0, 64, 0
1, 72571, Note_on_c, 0, 55, 42
1, 72662, Note_off_c, 0, 52, 64
1, 72722, Control_c, 0, 64, 127
1, 72732, Note_off_c, 0, 48, 64
1, 72756, Note_off_c, 0, 55, 64
1, 72816, Note_on_c, 0, 60, 29
1, 72978, Note_off_c, 0, 60, 64
1, 73044, Note_on_c, 0, 64, 39
1, 73110, Note_off_c, 0, 72, 64
1, 73230, Note_off_c, 0, 64, 64
1, 73266, Note_on_c, 0, 67, 37
1, 73412, Note_off_c, 0, 67, 64
1, 73494, Note_on_c, 0, 72, 36
1, 73720, Note_off_c, 0, 72, 64
1, 73742, Note_on_c, 0, 76, 32
1, 73948, Note_off_c, 0, 76, 64
1, 73948, Note_on_c, 0, 79, 48
1, 74154, Note_off_c, 0, 79, 64
1, 74164, Note_on_c, 0, 84, 46
1, 74402, Note_on_c, 0, 79, 45
1, 74424, Note_off_c, 0, 84, 64
1, 74614, Note_off_c, 0, 79, 64
1, 74648, Note_on_c, 0, 76, 30
1, 74746, Note_off_c, 0, 76, 64
1, 74928, Note_on_c, 0, 72, 16
1, 75088, Note_off_c, 0, 72, 64
1, 75220, Note_on_c, 0, 67, 21
1, 75314, Note_off_c, 0, 67, 64
1, 75612, Note_on_c, 0, 75, 18
1, 75630, Note_on_c, 0, 63, 15
1, 75632, Note_on_c, 0, 67, 8
1, 75702, Note_on_c, 0, 60, 59
1, 75748, Control_c, 0, 64, 0
1, 75888, Note_off_c, 0, 67, 64
1, 76032, Note_on_c, 0, 72, 24
1, 76132, Control_c, 0, 64, 127
1, 76162, Note_off_c, 0, 75, 64
1, 76326, Note_off_c, 0, 72, 64
1, 76362, Note_off_c, 0, 60, 64
1, 76392, Note_on_c, 0, 67, 23
1, 76412, Note_on_c, 0, 58, 31
1, 76430, Note_off_c, 0, 63, 64
1, 76626, Note_off_c, 0, 58, 64
1, 76640, Note_off_c, 0, 67, 64
1, 76644, Note_on_c, 0, 72, 32
1, 76678, Note_on_c, 0, 57, 31
1, 76886, Note_off_c, 0, 72, 64
1, 76886, Note_off_c, 0, 57, 64
1, 76889, Note_on_c, 0, 75, 36
1, 76918, Note_on_c, 0, 63, 13
1, 76936, Note_on_c, 0, 67, 17
1, 76954, Note_on_c, 0, 55, 45
1, 76978, Control_c, 0, 64, 0
1, 77098, Note_off_c, 0, 67, 64
1, 77178, Note_on_c, 0, 72, 40
1, 77254, Control_c, 0, 64, 127
1, 77262, Note_off_c, 0, 75, 64
1, 77398, Note_off_c, 0, 72, 64
1, 77422, Note_off_c, 0, 63, 64
1, 77422, Note_on_c, 0, 67, 37
1, 77626, Note_on_c, 0, 72, 45
1, 77628, Note_off_c, 0, 67, 64
1, 77720, Note_off_c, 0, 72, 64
1, 77862, Note_on_c, 0, 75, 44
1, 77866, Note_on_c, 0, 63, 34
1, 77892, Note_on_c, 0, 67, 26
1, 77966, Note_off_c, 0, 63, 64
1, 78010, Note_off_c, 0, 67, 64
1, 78096, Note_on_c, 0, 72, 44
1, 78118, Note_off_c, 0, 75, 64
1, 78292, Note_off_c, 0, 72, 64
1, 78320, Note_on_c, 0, 57, 49
1, 78326, Note_on_c, 0, 67, 46
1, 78394, Note_off_c, 0, 55, 64
1, 78528, Note_off_c, 0, 67, 64
1, 78540, Note_on_c, 0, 58, 59
1, 78540, Note_on_c, 0, 72, 51
1, 78614, Note_off_c, 0, 57, 64
1, 78766, Note_on_c, 0, 75, 55
1, 78772, Note_off_c, 0, 72, 64
1, 78782, Note_on_c, 0, 63, 32
1, 78786, Note_on_c, 0, 67, 36
1, 78788, Note_on_c, 0, 60, 62
1, 78804, Control_c, 0, 64, 0
1, 78822, Note_off_c, 0, 58, 64
1, 78984, Note_off_c, 0, 63, 64
1, 78990, Note_off_c, 0, 67, 64
1, 79012, Note_on_c, 0, 72, 51
1, 79020, Control_c, 0, 64, 127
1, 79070, Note_off_c, 0, 75, 64
1, 79098, Note_off_c, 0, 60, 64
1, 79122, Note_off_c, 0, 72, 64
1, 79248, Note_on_c, 0, 67, 45
1, 79258, Note_on_c, 0, 60, 60
1, 79316, Note_off_c, 0, 67, 64
1, 79514, Note_on_c, 0, 72, 49
1, 79517, Note_off_c, 0, 60, 64
1, 79526, Note_on_c, 0, 63, 45
1, 79564, Note_off_c, 0, 72, 64
1, 79820, Control_c, 0, 64, 0
1, 79846, Note_on_c, 0, 81, 46
1, 79850, Note_off_c, 0, 63, 64
1, 79860, Note_on_c, 0, 74, 28
1, 79868, Note_on_c, 0, 69, 21
1, 79870, Note_on_c, 0, 66, 32
1, 79884, Note_on_c, 0, 62, 38
1, 80148, Note_off_c, 0, 74, 64
1, 80172, Note_on_c, 0, 78, 40
1, 80172, Control_c, 0, 64, 127
1, 80212, Note_off_c, 0, 66, 64
1, 80286, Note_off_c, 0, 62, 64
1, 80306, Note_off_c, 0, 81, 64
1, 80398, Note_off_c, 0, 78, 64
1, 80446, Note_on_c, 0, 74, 36
1, 80448, Note_on_c, 0, 57, 31
1, 80558, Note_off_c, 0, 57, 64
1, 80664, Note_off_c, 0, 74, 64
1, 80672, Note_on_c, 0, 78, 37
1, 80904, Note_on_c, 0, 50, 34
1, 80912, Note_on_c, 0, 81, 32
1, 80920, Note_off_c, 0, 78, 64
1, 81078, Note_off_c, 0, 50, 64
1, 81134, Note_on_c, 0, 78, 44
1, 81178, Note_off_c, 0, 81, 64
1, 81222, Note_off_c, 0, 78, 64
1, 81356, Note_on_c, 0, 45, 34
1, 81368, Note_on_c, 0, 74, 36
1, 81424, Note_off_c, 0, 69, 64
1, 81448, Note_off_c, 0, 74, 64
1, 81480, Note_off_c, 0, 45, 64
1, 81590, Note_on_c, 0, 78, 38
1, 81800, Note_off_c, 0, 78, 64
1, 81846, Note_on_c, 0, 81, 23
1, 81848, Note_on_c, 0, 69, 12
1, 81852, Note_on_c, 0, 38, 32
1, 81870, Note_on_c, 0, 74, 17
1, 81956, Note_off_c, 0, 74, 64
1, 82100, Note_on_c, 0, 78, 26
1, 82144, Note_off_c, 0, 81, 64
1, 82248, Note_off_c, 0, 69, 64
1, 82292, Note_off_c, 0, 78, 64
1, 82326, Note_on_c, 0, 74, 31
1, 82400, Note_off_c, 0, 74, 64
1, 82540, Note_on_c, 0, 78, 36
1, 82618, Note_off_c, 0, 38, 64
1, 82758, Note_off_c, 0, 78, 64
1, 82792, Note_on_c, 0, 74, 28
1, 82806, Note_on_c, 0, 26, 19
1, 82878, Note_off_c, 0, 74, 64
1, 82992, Note_off_c, 0, 26, 64
1, 83032, Note_on_c, 0, 69, 21
1, 83236, Note_off_c, 0, 69, 64
1, 83299, Note_on_c, 0, 66, 4
1, 83628, Note_on_c, 0, 69, 23
1, 83662, Note_off_c, 0, 66, 64
1, 83958, Note_on_c, 0, 75, 39
1, 83966, Note_on_c, 0, 63, 26
1, 83980, Note_on_c, 0, 67, 26
1, 83984, Note_on_c, 0, 60, 52
1, 84044, Control_c, 0, 64, 0
1, 84258, Note_off_c, 0, 67, 64
1, 84308, Note_on_c, 0, 72, 38
1, 84312, Note_off_c, 0, 69, 64
1, 84398, Control_c, 0, 64, 127
1, 84602, Note_off_c, 0, 72, 64
1, 84612, Note_on_c, 0, 58, 41
1, 84624, Note_on_c, 0, 67, 36
1, 84626, Note_off_c, 0, 75, 64
1, 84684, Note_off_c, 0, 60, 64
1, 84782, Note_off_c, 0, 63, 64
1, 84868, Note_on_c, 0, 57, 44
1, 84868, Note_on_c, 0, 72, 36
1, 84870, Note_off_c, 0, 67, 64
1, 84876, Note_off_c, 0, 58, 64
1, 85066, Note_off_c, 0, 57, 64
1, 85090, Note_off_c, 0, 72, 64
1, 85098, Note_on_c, 0, 75, 33
1, 85109, Note_on_c, 0, 63, 35
1, 85122, Note_on_c, 0, 67, 21
1, 85134, Note_on_c, 0, 55, 47
1, 85166, Control_c, 0, 64, 0
1, 85374, Note_off_c, 0, 67, 64
1, 85374, Note_on_c, 0, 72, 36
1, 85428, Control_c, 0, 64, 127
1, 85552, Note_off_c, 0, 75, 64
1, 85598, Note_off_c, 0, 72, 64
1, 85624, Note_on_c, 0, 67, 35
1, 85763, Note_off_c, 0, 63, 64
1, 85838, Note_on_c, 0, 72, 40
1, 85846, Note_off_c, 0, 67, 64
1, 86042, Note_off_c, 0, 72, 64
1, 86058, Note_on_c, 0, 75, 51
1, 86066, Note_on_c, 0, 63, 41
1, 86092, Note_on_c, 0, 67, 27
1, 86214, Note_off_c, 0, 63, 64
1, 86214, Note_off_c, 0, 67, 64
1, 86282, Note_on_c, 0, 72, 52
1, 86312, Note_off_c, 0, 75, 64
1, 86436, Note_off_c, 0, 72, 64
1, 86492, Note_on_c, 0, 57, 61
1, 86494, Note_on_c, 0, 67, 50
1, 86592, Note_off_c, 0, 67, 64
1, 86710, Note_on_c, 0, 72, 59
1, 86718, Note_on_c, 0, 58, 67
1, 86724, Note_off_c, 0, 55, 64
1, 86770, Note_off_c, 0, 72, 64
1, 86828, Note_off_c, 0, 57, 64
1, 86948, Control_c, 0, 64, 0
1, 86956, Note_on_c, 0, 79, 87
1, 86960, Note_on_c, 0, 72, 59
1, 86970, Note_on_c, 0, 60, 71
1, 86980, Note_on_c, 0, 67, 47
1, 87024, Note_off_c, 0, 58, 64
1, 87200, Control_c, 0, 64, 127
1, 87206, Note_on_c, 0, 75, 66
1, 87236, Note_off_c, 0, 72, 64
1, 87296, Note_off_c, 0, 60, 64
1, 87432, Note_off_c, 0, 75, 64
1, 87432, Note_on_c, 0, 72, 67
1, 87444, Note_off_c, 0, 79, 64
1, 87446, Note_on_c, 0, 60, 74
1, 87452, Note_off_c, 0, 67, 64
1, 87684, Note_on_c, 0, 63, 79
1, 87690, Note_on_c, 0, 75, 62
1, 87702, Note_off_c, 0, 72, 64
1, 87712, Note_off_c, 0, 60, 64
1, 88007, Note_on_c, 0, 80, 61
1, 88027, Note_on_c, 0, 68, 40
1, 88028, Note_off_c, 0, 63, 64
1, 88032, Note_on_c, 0, 72, 39
1, 88034, Note_on_c, 0, 64, 85
1, 88070, Control_c, 0, 64, 0
1, 88106, Note_off_c, 0, 75, 64
1, 88332, Note_on_c, 0, 76, 54
1, 88364, Note_off_c, 0, 72, 64
1, 88392, Control_c, 0, 64, 127
1, 88586, Note_on_c, 0, 72, 59
1, 88602, Note_off_c, 0, 76, 64
1, 88612, Note_off_c, 0, 80, 64
1, 88808, Note_on_c, 0, 76, 56
1, 88848, Note_off_c, 0, 72, 64
1, 89040, Note_on_c, 0, 80, 59
1, 89060, Note_off_c, 0, 76, 64
1, 89276, Note_on_c, 0, 76, 51
1, 89330, Note_off_c, 0, 80, 64
1, 89508, Note_on_c, 0, 72, 47
1, 89512, Note_off_c, 0, 76, 64
1, 89645, Note_off_c, 0, 68, 64
1, 89722, Note_off_c, 0, 72, 64
1, 89736, Note_on_c, 0, 76, 55
1, 89962, Note_on_c, 0, 80, 73
1, 89978, Note_on_c, 0, 68, 39
1, 89981, Note_off_c, 0, 76, 64
1, 89981, Note_on_c, 0, 72, 41
1, 90192, Note_on_c, 0, 76, 65
1, 90204, Note_off_c, 0, 72, 64
1, 90426, Note_on_c, 0, 72, 66
1, 90470, Note_off_c, 0, 76, 64
1, 90472, Note_off_c, 0, 80, 64
1, 90650, Note_on_c, 0, 76, 67
1, 90722, Note_off_c, 0, 72, 64
1, 90872, Note_on_c, 0, 80, 68
1, 90878, Note_on_c, 0, 63, 89
1, 90974, Note_off_c, 0, 64, 64
1, 91108, Note_off_c, 0, 76, 64
1, 91132, Note_on_c, 0, 72, 65
1, 91182, Note_off_c, 0, 80, 64
1, 91340, Note_on_c, 0, 80, 72
1, 91342, Note_on_c, 0, 64, 94
1, 91414, Note_off_c, 0, 63, 64
1, 91482, Control_c, 0, 64, 0
1, 91640, Note_on_c, 0, 76, 69
1, 91650, Control_c, 0, 64, 127
1, 91674, Note_off_c, 0, 72, 64
1, 91726, Note_off_c, 0, 68, 64
1, 91726, Note_off_c, 0, 80, 64
1, 91798, Note_on_c, 0, 57, 39
1, 91876, Note_on_c, 0, 60, 38
1, 92002, Note_off_c, 0, 64, 64
1, 92036, Note_on_c, 0, 81, 66
1, 92041, Note_on_c, 0, 67, 80
1, 92158, Control_c, 0, 64, 0
1, 92186, Note_off_c, 0, 76, 64
1, 92440, Note_on_c, 0, 72, 55
1, 92448, Control_c, 0, 64, 127
1, 92726, Note_off_c, 0, 67, 64
1, 92792, Note_on_c, 0, 65, 59
1, 92796, Note_on_c, 0, 69, 43
1, 92878, Note_off_c, 0, 72, 64
1, 93118, Note_on_c, 0, 72, 54
1, 93126, Note_on_c, 0, 64, 69
1, 93142, Note_off_c, 0, 69, 64
1, 93146, Note_off_c, 0, 65, 64
1, 93158, Note_off_c, 0, 81, 64
1, 93442, Note_on_c, 0, 81, 45
1, 93448, Control_c, 0, 64, 0
1, 93470, Note_off_c, 0, 72, 64
1, 93470, Note_on_c, 0, 62, 68
1, 93488, Note_off_c, 0, 64, 64
1, 93722, Note_on_c, 0, 72, 56
1, 93848, Control_c, 0, 64, 127
1, 93922, Note_off_c, 0, 81, 64
1, 93974, Note_on_c, 0, 69, 45
1, 93988, Note_off_c, 0, 72, 64
1, 94170, Note_off_c, 0, 69, 64
1, 94202, Note_on_c, 0, 72, 50
1, 94422, Note_off_c, 0, 72, 64
1, 94440, Note_on_c, 0, 81, 49
1, 94694, Note_on_c, 0, 72, 34
1, 94697, Note_off_c, 0, 81, 64
1, 94918, Note_on_c, 0, 69, 42
1, 94934, Note_off_c, 0, 72, 64
1, 95124, Note_off_c, 0, 69, 64
1, 95146, Note_on_c, 0, 72, 60
1, 95362, Note_on_c, 0, 81, 58
1, 95380, Note_off_c, 0, 72, 64
1, 95392, Note_on_c, 0, 64, 86
1, 95596, Note_off_c, 0, 62, 64
1, 95596, Note_on_c, 0, 72, 56
1, 95634, Note_off_c, 0, 81, 64
1, 95738, Note_off_c, 0, 60, 64
1, 95776, Note_off_c, 0, 72, 64
1, 95812, Note_on_c, 0, 69, 56
1, 95824, Note_off_c, 0, 57, 64
1, 95830, Note_on_c, 0, 65, 81
1, 95882, Note_off_c, 0, 64, 64
1, 95964, Note_off_c, 0, 69, 64
1, 96056, Note_on_c, 0, 72, 58
1, 96124, Note_off_c, 0, 72, 64
1, 96163, Note_off_c, 0, 65, 64
1, 96206, Note_on_c, 0, 56, 34
1, 96280, Note_on_c, 0, 59, 44
1, 96406, Note_on_c, 0, 83, 86
1, 96424, Note_on_c, 0, 65, 67
1, 96460, Control_c, 0, 64, 0
1, 96722, Note_on_c, 0, 77, 57
1, 96798, Control_c, 0, 64, 127
1, 96978, Note_on_c, 0, 71, 72
1, 97004, Note_off_c, 0, 59, 64
1, 97004, Note_on_c, 0, 64, 63
1, 97007, Note_off_c, 0, 65, 64
1, 97007, Note_off_c, 0, 77, 64
1, 97172, Note_off_c, 0, 64, 64
1, 97186, Note_off_c, 0, 71, 64
1, 97248, Note_on_c, 0, 77, 69
1, 97251, Note_on_c, 0, 62, 72
1, 97258, Note_off_c, 0, 83, 64
1, 97278, Note_off_c, 0, 56, 64
1, 97504, Control_c, 0, 64, 0
1, 97526, Note_on_c, 0, 84, 68
1, 97529, Note_on_c, 0, 60, 73
1, 97532, Note_on_c, 0, 72, 49
1, 97542, Note_on_c, 0, 58, 46
1, 97543, Note_on_c, 0, 55, 46
1, 97552, Note_off_c, 0, 77, 64
1, 97552, Note_off_c, 0, 62, 64
1, 97806, Note_on_c, 0, 82, 48
1, 97874, Control_c, 0, 64, 127
1, 98052, Note_on_c, 0, 77, 50
1, 98072, Note_off_c, 0, 84, 64
1, 98078, Note_off_c, 0, 82, 64
1, 98278, Note_on_c, 0, 82, 52
1, 98312, Note_off_c, 0, 77, 64
1, 98514, Note_off_c, 0, 82, 64
1, 98522, Note_on_c, 0, 84, 64
1, 98754, Note_on_c, 0, 82, 40
1, 98776, Note_off_c, 0, 84, 64
1, 98984, Note_on_c, 0, 77, 44
1, 98996, Note_off_c, 0, 82, 64
1, 99050, Note_off_c, 0, 77, 64
1, 99208, Note_on_c, 0, 82, 41
1, 99458, Note_off_c, 0, 82, 64
1, 99458, Note_on_c, 0, 84, 46
1, 99486, Note_on_c, 0, 62, 39
1, 99516, Note_off_c, 0, 60, 64
1, 99670, Control_c, 0, 64, 0
1, 99734, Note_on_c, 0, 82, 37
1, 99824, Control_c, 0, 64, 127
1, 99848, Note_off_c, 0, 84, 64
1, 99988, Note_off_c, 0, 82, 64
1, 100002, Note_on_c, 0, 76, 25
1, 100022, Note_on_c, 0, 64, 52
1, 100025, Note_off_c, 0, 62, 64
1, 100131, Note_off_c, 0, 55, 64
1, 100208, Note_off_c, 0, 58, 64
1, 100264, Note_off_c, 0, 76, 64
1, 100282, Note_on_c, 0, 82, 28
1, 100336, Note_off_c, 0, 64, 64
1, 100408, Note_on_c, 0, 53, 32
1, 100448, Note_on_c, 0, 57, 35
1, 100540, Note_off_c, 0, 82, 64
1, 100614, Note_on_c, 0, 84, 40
1, 100716, Control_c, 0, 64, 0
1, 100730, Note_on_c, 0, 64, 57
1, 101018, Note_off_c, 0, 72, 64
1, 101022, Control_c, 0, 64, 127
1, 101050, Note_on_c, 0, 81, 22
1, 101136, Note_off_c, 0, 53, 64
1, 101192, Note_off_c, 0, 57, 64
1, 101242, Note_off_c, 0, 64, 64
1, 101266, Note_off_c, 0, 84, 64
1, 101266, Note_on_c, 0, 72, 34
1, 101286, Note_on_c, 0, 62, 42
1, 101442, Note_off_c, 0, 72, 64
1, 101458, Note_off_c, 0, 62, 64
1, 101526, Note_off_c, 0, 81, 64
1, 101572, Note_on_c, 0, 60, 38
1, 101590, Note_on_c, 0, 79, 15
1, 101632, Note_off_c, 0, 60, 64
1, 101704, Note_off_c, 0, 79, 64
1, 101808, Note_on_c, 0, 43, 19
1, 101904, Note_on_c, 0, 50, 30
1, 102078, Note_on_c, 0, 86, 29
1, 102122, Note_on_c, 0, 58, 32
1, 102206, Control_c, 0, 64, 0
1, 102440, Note_on_c, 0, 81, 35
1, 102498, Control_c, 0, 64, 127
1, 102598, Note_off_c, 0, 86, 64
1, 102698, Note_on_c, 0, 74, 41
1, 102701, Note_off_c, 0, 81, 64
1, 102788, Note_off_c, 0, 74, 64
1, 102926, Note_on_c, 0, 82, 51
1, 102974, Note_off_c, 0, 82, 64
1, 103200, Note_on_c, 0, 74, 42
1, 103454, Note_on_c, 0, 69, 36
1, 103550, Note_off_c, 0, 69, 64
1, 103624, Note_off_c, 0, 58, 64
1, 103646, Note_off_c, 0, 74, 64
1, 103688, Note_on_c, 0, 62, 40
1, 103730, Note_off_c, 0, 50, 64
1, 103770, Note_off_c, 0, 62, 64
1, 103826, Note_off_c, 0, 43, 64
1, 103964, Note_on_c, 0, 70, 33
1, 104028, Note_off_c, 0, 70, 64
1, 104364, Note_on_c, 0, 57, 48
1, 104376, Note_on_c, 0, 36, 21
1, 104464, Control_c, 0, 64, 0
1, 104664, Note_off_c, 0, 36, 64
1, 104710, Control_c, 0, 64, 127
1, 104726, Note_on_c, 0, 48, 28
1, 104794, Note_off_c, 0, 48, 64
1, 104994, Note_on_c, 0, 55, 55
1, 105004, Note_on_c, 0, 58, 31
1, 105168, Note_off_c, 0, 57, 64
1, 105178, Note_off_c, 0, 58, 64
1, 105356, Note_on_c, 0, 64, 43
1, 105404, Note_off_c, 0, 64, 64
1, 105944, Note_on_c, 0, 53, 57
1, 105947, Note_on_c, 0, 29, 31
1, 106024, Note_off_c, 0, 55, 64
1, 106048, Control_c, 0, 64, 0
1, 106362, Note_off_c, 0, 29, 64
1, 106378, Note_on_c, 0, 41, 48
1, 106402, Control_c, 0, 64, 127
1, 106434, Note_off_c, 0, 41, 64
1, 106458, Note_off_c, 0, 53, 64
1, 106670, Note_on_c, 0, 48, 33
1, 106796, Note_off_c, 0, 48, 64
1, 106998, Note_on_c, 0, 57, 27
1, 107526, Note_on_c, 0, 65, 47
1, 108598, Note_off_c, 0, 57, 64
1, 109182, Control_c, 0, 64, 0
1, 109736, Control_c, 0, 64, 127
1, 109992, Note_on_c, 0, 69, 18
1, 110116, Note_off_c, 0, 65, 64
1, 110458, Control_c, 0, 64, 0
1, 110718, Control_c, 0, 64, 127
1, 110812, Note_off_c, 0, 69, 64
1, 111502, Note_on_c, 0, 77, 52
1, 111519, Note_on_c, 0, 69, 16
1, 111522, Note_on_c, 0, 74, 27
1, 111532, Note_on_c, 0, 62, 13
1, 111672, Control_c, 0, 64, 0
1, 111793, Note_off_c, 0, 69, 64
1, 111796, Note_off_c, 0, 62, 64
1, 111816, Note_off_c, 0, 74, 64
1, 111840, Control_c, 0, 64, 127
1, 111880, Note_off_c, 0, 77, 64
1, 112046, Note_on_c, 0, 76, 45
1, 112059, Note_on_c, 0, 71, 32
1, 112060, Note_on_c, 0, 68, 22
1, 112070, Note_on_c, 0, 64, 23
1, 112132, Control_c, 0, 64, 0
1, 112260, Note_off_c, 0, 64, 64
1, 112281, Note_off_c, 0, 71, 64
1, 112282, Note_off_c, 0, 68, 64
1, 112300, Control_c, 0, 64, 127
1, 112336, Note_off_c, 0, 76, 64
1, 112524, Note_on_c, 0, 76, 48
1, 112538, Note_on_c, 0, 71, 35
1, 112542, Note_on_c, 0, 68, 30
1, 112549, Note_on_c, 0, 64, 24
1, 112684, Control_c, 0, 64, 0
1, 112774, Note_off_c, 0, 71, 64
1, 112775, Note_off_c, 0, 64, 64
1, 112780, Note_off_c, 0, 68, 64
1, 112808, Control_c, 0, 64, 127
1, 112826, Note_off_c, 0, 76, 64
1, 113016, Note_on_c, 0, 77, 45
1, 113026, Note_on_c, 0, 69, 25
1, 113027, Note_on_c, 0, 74, 29
1, 113045, Note_on_c, 0, 62, 20
1, 113070, Control_c, 0, 64, 0
1, 113233, Note_off_c, 0, 62, 64
1, 113250, Note_off_c, 0, 69, 64
1, 113254, Control_c, 0, 64, 127
1, 113267, Note_off_c, 0, 74, 64
1, 113289, Note_off_c, 0, 77, 64
1, 113506, Note_on_c, 0, 77, 47
1, 113520, Note_on_c, 0, 74, 32
1, 113529, Note_on_c, 0, 69, 25
1, 113542, Note_on_c, 0, 62, 23
1, 113546, Control_c, 0, 64, 0
1, 113731, Note_off_c, 0, 69, 64
1, 113734, Note_off_c, 0, 62, 64
1, 113746, Control_c, 0, 64, 127
1, 113786, Note_off_c, 0, 74, 64
1, 113800, Note_off_c, 0, 77, 64
1, 114020, Note_on_c, 0, 76, 35
1, 114038, Note_on_c, 0, 71, 30
1, 114040, Note_on_c, 0, 68, 21
1, 114052, Control_c, 0, 64, 0
1, 114053, Note_on_c, 0, 64, 24
1, 114268, Note_off_c, 0, 64, 64
1, 114280, Note_off_c, 0, 68, 64
1, 114283, Control_c, 0, 64, 127
1, 114314, Note_off_c, 0, 71, 64
1, 114320, Note_off_c, 0, 76, 64
1, 114644, Note_on_c, 0, 76, 27
1, 114670, Note_on_c, 0, 68, 13
1, 114672, Note_on_c, 0, 71, 16
1, 114686, Note_on_c, 0, 64, 9
1, 114810, Note_off_c, 0, 71, 64
1, 114910, Note_off_c, 0, 64, 64
1, 115052, Note_off_c, 0, 68, 64
1, 115278, Note_off_c, 0, 76, 64
1, 116024, Note_on_c, 0, 65, 36
1, 116034, Note_on_c, 0, 62, 25
1, 116049, Note_on_c, 0, 57, 18
1, 116055, Note_on_c, 0, 50, 22
1, 116158, Control_c, 0, 64, 0
1, 116372, Control_c, 0, 64, 127
1, 116575, Note_off_c, 0, 50, 64
1, 116585, Note_off_c, 0, 57, 64
1, 116608, Note_on_c, 0, 64, 47
1, 116614, Note_on_c, 0, 56, 31
1, 116618, Note_off_c, 0, 65, 64
1, 116618, Note_off_c, 0, 62, 64
1, 116618, Note_on_c, 0, 59, 20
1, 116630, Note_on_c, 0, 52, 25
1, 116650, Control_c, 0, 64, 0
1, 116848, Control_c, 0, 64, 127
1, 116868, Note_off_c, 0, 52, 64
1, 116892, Note_off_c, 0, 56, 64
1, 116900, Note_off_c, 0, 59, 64
1, 116908, Note_off_c, 0, 64, 64
1, 117072, Note_on_c, 0, 56, 37
1, 117074, Note_on_c, 0, 64, 65
1, 117079, Note_on_c, 0, 52, 34
1, 117081, Note_on_c, 0, 59, 39
1, 117186, Control_c, 0, 64, 0
1, 117388, Control_c, 0, 64, 127
1, 117405, Note_off_c, 0, 59, 64
1, 117534, Note_off_c, 0, 52, 64
1, 117650, Note_off_c, 0, 56, 64
1, 117660, Note_on_c, 0, 65, 52
1, 117672, Note_off_c, 0, 64, 64
1, 117686, Note_on_c, 0, 62, 33
1, 117690, Note_on_c, 0, 57, 30
1, 117700, Note_on_c, 0, 50, 42
1, 117724, Control_c, 0, 64, 0
1, 117778, Note_off_c, 0, 62, 64
1, 117864, Note_on_c, 0, 69, 44
1, 117867, Note_off_c, 0, 65, 64
1, 117894, Control_c, 0, 64, 127
1, 117906, Note_off_c, 0, 57, 64
1, 117912, Note_off_c, 0, 50, 64
1, 117926, Note_on_c, 0, 62, 2
1, 117994, Note_off_c, 0, 69, 64
1, 118012, Note_on_c, 0, 65, 37
1, 118114, Note_off_c, 0, 62, 64
1, 118142, Note_off_c, 0, 65, 64
1, 118154, Control_c, 0, 64, 0
1, 118166, Note_on_c, 0, 64, 54
1, 118184, Note_on_c, 0, 59, 33
1, 118189, Note_on_c, 0, 53, 54
1, 118212, Note_on_c, 0, 43, 23
1, 118324, Control_c, 0, 64, 127
1, 118326, Note_off_c, 0, 64, 64
1, 118336, Note_off_c, 0, 53, 64
1, 118372, Note_off_c, 0, 43, 64
1, 118392, Note_off_c, 0, 59, 64
1, 118698, Note_on_c, 0, 58, 27
1, 118700, Note_on_c, 0, 62, 41
1, 118714, Note_on_c, 0, 52, 45
1, 118734, Note_on_c, 0, 36, 28
1, 118770, Control_c, 0, 64, 0
1, 119000, Control_c, 0, 64, 127
1, 119068, Note_off_c, 0, 52, 64
1, 119118, Note_off_c, 0, 58, 64
1, 119198, Note_off_c, 0, 36, 64
1, 119358, Note_on_c, 0, 60, 31
1, 119366, Note_off_c, 0, 62, 64
1, 119380, Note_on_c, 0, 57, 19
1, 119382, Note_on_c, 0, 53, 29
1, 119402, Note_on_c, 0, 41, 31
1, 119446, Control_c, 0, 64, 0
1, 119962, Note_off_c, 0, 41, 64
1, 120008, Note_on_c, 0, 29, 35
1, 120056, Note_off_c, 0, 53, 64
1, 120076, Control_c, 0, 64, 127
1, 120142, Note_off_c, 0, 57, 64
1, 120188, Note_off_c, 0, 29, 64
1, 120192, Note_off_c, 0, 60, 64
1, 120740, Note_on_c, 0, 77, 56
1, 120758, Note_on_c, 0, 74, 34
1, 120766, Note_on_c, 0, 69, 26
1, 120781, Note_on_c, 0, 62, 28
1, 120860, Control_c, 0, 64, 0
1, 121136, Control_c, 0, 64, 127
1, 121240, Note_off_c, 0, 62, 64
1, 121250, Note_on_c, 0, 76, 63
1, 121255, Note_off_c, 0, 69, 64
1, 121272, Note_on_c, 0, 68, 35
1, 121276, Note_on_c, 0, 71, 34
1, 121278, Note_off_c, 0, 74, 64
1, 121281, Note_on_c, 0, 64, 32
1, 121294, Note_off_c, 0, 77, 64
1, 121366, Control_c, 0, 64, 0
1, 121534, Note_off_c, 0, 71, 64
1, 121566, Control_c, 0, 64, 127
1, 121567, Note_off_c, 0, 64, 64
1, 121572, Note_off_c, 0, 68, 64
1, 121606, Note_off_c, 0, 76, 64
1, 121752, Note_on_c, 0, 76, 80
1, 121771, Note_on_c, 0, 71, 36
1, 121781, Note_on_c, 0, 68, 31
1, 121783, Note_on_c, 0, 64, 25
1, 121981, Note_off_c, 0, 71, 64
1, 122135, Note_off_c, 0, 64, 64
1, 122161, Note_off_c, 0, 68, 64
1, 122292, Note_on_c, 0, 77, 62
1, 122310, Note_on_c, 0, 74, 36
1, 122312, Note_on_c, 0, 69, 23
1, 122320, Control_c, 0, 64, 0
1, 122326, Note_on_c, 0, 62, 23
1, 122330, Note_off_c, 0, 76, 64
1, 122383, Note_off_c, 0, 74, 64
1, 122502, Note_on_c, 0, 79, 69
1, 122520, Note_off_c, 0, 77, 64
1, 122596, Control_c, 0, 64, 127
1, 122612, Note_off_c, 0, 62, 64
1, 122628, Note_off_c, 0, 69, 64
1, 122668, Note_on_c, 0, 81, 61
1, 122674, Note_off_c, 0, 79, 64
1, 122840, Note_off_c, 0, 81, 64
1, 122844, Note_on_c, 0, 77, 56
1, 122853, Note_on_c, 0, 69, 24
1, 122856, Control_c, 0, 64, 0
1, 122858, Note_on_c, 0, 74, 29
1, 122861, Note_on_c, 0, 62, 15
1, 122956, Note_off_c, 0, 74, 64
1, 123012, Note_off_c, 0, 77, 64
1, 123020, Note_on_c, 0, 81, 50
1, 123102, Control_c, 0, 64, 127
1, 123204, Note_off_c, 0, 81, 64
1, 123218, Note_on_c, 0, 77, 51
1, 123239, Note_off_c, 0, 69, 64
1, 123275, Note_off_c, 0, 62, 64
1, 123448, Note_on_c, 0, 76, 36
1, 123454, Note_on_c, 0, 71, 24
1, 123458, Note_off_c, 0, 77, 64
1, 123458, Note_on_c, 0, 68, 19
1, 123470, Control_c, 0, 64, 0
1, 123476, Note_on_c, 0, 64, 20
1, 123702, Note_off_c, 0, 64, 64
1, 123718, Note_off_c, 0, 68, 64
1, 123722, Note_off_c, 0, 71, 64
1, 123764, Control_c, 0, 64, 127
1, 123770, Note_off_c, 0, 76, 64
1, 124032, Note_on_c, 0, 76, 32
1, 124043, Note_on_c, 0, 71, 6
1, 124044, Note_on_c, 0, 68, 14
1, 124051, Note_on_c, 0, 64, 23
1, 124166, Note_off_c, 0, 64, 64
1, 124225, Note_off_c, 0, 71, 64
1, 124273, Note_off_c, 0, 68, 64
1, 124352, Note_off_c, 0, 76, 64
1, 124838, Note_on_c, 0, 59, 30
1, 125436, Note_on_c, 0, 64, 41
1, 125436, Note_on_c, 0, 56, 21
1, 125470, Note_on_c, 0, 47, 23
1, 125868, Note_off_c, 0, 56, 64
1, 125972, Note_on_c, 0, 57, 32
1, 125974, Note_on_c, 0, 61, 32
1, 125978, Note_off_c, 0, 59, 64
1, 125978, Note_on_c, 0, 54, 31
1, 126038, Control_c, 0, 64, 0
1, 126224, Note_off_c, 0, 61, 64
1, 126268, Control_c, 0, 64, 127
1, 126382, Note_off_c, 0, 57, 64
1, 126410, Note_off_c, 0, 54, 64
1, 126440, Note_off_c, 0, 64, 64
1, 126456, Note_on_c, 0, 61, 46
1, 126458, Note_on_c, 0, 58, 20
1, 126472, Note_on_c, 0, 55, 20
1, 126498, Control_c, 0, 64, 0
1, 126712, Control_c, 0, 64, 127
1, 126732, Note_off_c, 0, 58, 64
1, 126758, Note_off_c, 0, 55, 64
1, 126856, Note_off_c, 0, 61, 64
1, 126914, Control_c, 0, 64, 0
1, 126966, Note_on_c, 0, 56, 27
1, 126968, Note_on_c, 0, 59, 19
1, 126976, Note_on_c, 0, 64, 38
1, 127032, Note_off_c, 0, 47, 64
1, 127098, Control_c, 0, 64, 127
1, 127190, Note_off_c, 0, 59, 64
1, 127194, Note_off_c, 0, 64, 64
1, 127232, Note_off_c, 0, 56, 64
1, 127554, Note_on_c, 0, 66, 26
1, 127560, Note_on_c, 0, 57, 15
1, 127563, Note_on_c, 0, 60, 19
1, 127906, Note_off_c, 0, 57, 64
1, 127956, Note_off_c, 0, 66, 64
1, 128136, Note_on_c, 0, 68, 29
1, 128147, Note_off_c, 0, 60, 64
1, 128152, Note_on_c, 0, 63, 30
1, 128154, Note_on_c, 0, 59, 22
1, 128368, Note_off_c, 0, 68, 64
1, 128372, Note_off_c, 0, 59, 64
1, 128382, Note_off_c, 0, 63, 64
1, 128829, Note_on_c, 0, 56, 17
1, 128834, Note_on_c, 0, 64, 24
1, 128837, Note_on_c, 0, 59, 14
1, 129448, Control_c, 0, 64, 0
1, 129468, Note_on_c, 0, 40, 38
1, 129684, Note_off_c, 0, 59, 64
1, 129701, Note_off_c, 0, 56, 64
1, 129710, Control_c, 0, 64, 127
1, 129718, Note_off_c, 0, 64, 64
1, 129740, Note_off_c, 0, 40, 64
1, 130184, Note_on_c, 0, 78, 53
1, 130204, Note_on_c, 0, 73, 25
1, 130214, Note_on_c, 0, 69, 16
1, 130217, Note_on_c, 0, 35, 33
1, 130340, Control_c, 0, 64, 0
1, 130524, Note_off_c, 0, 69, 64
1, 130540, Control_c, 0, 64, 127
1, 130604, Note_off_c, 0, 73, 64
1, 130752, Note_on_c, 0, 80, 59
1, 130760, Note_on_c, 0, 75, 35
1, 130768, Note_off_c, 0, 78, 64
1, 130774, Note_on_c, 0, 71, 33
1, 130806, Note_on_c, 0, 47, 36
1, 130816, Note_off_c, 0, 35, 64
1, 130848, Control_c, 0, 64, 0
1, 131008, Note_off_c, 0, 75, 64
1, 131016, Control_c, 0, 64, 127
1, 131020, Note_off_c, 0, 71, 64
1, 131074, Note_off_c, 0, 80, 64
1, 131248, Note_on_c, 0, 76, 69
1, 131250, Note_on_c, 0, 68, 44
1, 131260, Note_on_c, 0, 71, 38
1, 131330, Note_off_c, 0, 71, 64
1, 131388, Note_off_c, 0, 68, 64
1, 131446, Note_off_c, 0, 76, 64
1, 131726, Note_on_c, 0, 85, 69
1, 131738, Note_on_c, 0, 80, 48
1, 131744, Note_on_c, 0, 76, 46
1, 131754, Note_on_c, 0, 59, 35
1, 131776, Note_off_c, 0, 47, 64
1, 131834, Note_off_c, 0, 80, 64
1, 131872, Note_off_c, 0, 76, 64
1, 131904, Note_off_c, 0, 85, 64
1, 132226, Note_on_c, 0, 78, 64
1, 132234, Note_on_c, 0, 69, 43
1, 132256, Note_on_c, 0, 73, 28
1, 132354, Note_off_c, 0, 73, 64
1, 132376, Note_off_c, 0, 69, 64
1, 132582, Note_off_c, 0, 78, 64
1, 132690, Control_c, 0, 64, 0
1, 132692, Note_on_c, 0, 80, 54
1, 132710, Note_on_c, 0, 75, 30
1, 132712, Note_on_c, 0, 71, 38
1, 132726, Note_on_c, 0, 47, 25
1, 132873, Note_on_c, 0, 78, 55
1, 132877, Note_off_c, 0, 80, 64
1, 132890, Control_c, 0, 64, 127
1, 132908, Note_off_c, 0, 75, 64
1, 132948, Note_off_c, 0, 71, 64
1, 132980, Note_off_c, 0, 78, 64
1, 133024, Note_on_c, 0, 80, 50
1, 133160, Note_off_c, 0, 80, 64
1, 133206, Note_on_c, 0, 76, 55
1, 133218, Note_on_c, 0, 68, 33
1, 133228, Control_c, 0, 64, 0
1, 133228, Note_on_c, 0, 71, 19
1, 133374, Note_off_c, 0, 59, 64
1, 133376, Note_off_c, 0, 71, 64
1, 133382, Control_c, 0, 64, 127
1, 133384, Note_off_c, 0, 76, 64
1, 133466, Note_off_c, 0, 68, 64
1, 133768, Note_on_c, 0, 71, 44
1, 133784, Note_off_c, 0, 47, 64
1, 133786, Note_on_c, 0, 68, 12
1, 133788, Note_on_c, 0, 64, 15
1, 133804, Note_on_c, 0, 59, 17
1, 133894, Note_off_c, 0, 68, 64
1, 134000, Note_off_c, 0, 64, 64
1, 134120, Note_off_c, 0, 71, 64
1, 134290, Note_on_c, 0, 68, 48
1, 134302, Note_on_c, 0, 63, 35
1, 134308, Note_on_c, 0, 64, 15
1, 134372, Note_off_c, 0, 64, 64
1, 134566, Note_off_c, 0, 63, 64
1, 134764, Control_c, 0, 64, 0
1, 134786, Note_on_c, 0, 71, 63
1, 134790, Note_on_c, 0, 61, 45
1, 134790, Note_on_c, 0, 64, 37
1, 134810, Note_on_c, 0, 47, 29
1, 134868, Note_off_c, 0, 68, 64
1, 134964, Control_c, 0, 64, 127
1, 134966, Note_off_c, 0, 64, 64
1, 134976, Note_off_c, 0, 71, 64
1, 134986, Note_off_c, 0, 59, 64
1, 135066, Note_off_c, 0, 61, 64
1, 135260, Note_on_c, 0, 68, 58
1, 135274, Note_on_c, 0, 64, 38
1, 135280, Note_on_c, 0, 59, 41
1, 135372, Note_off_c, 0, 59, 64
1, 135416, Note_off_c, 0, 64, 64
1, 135472, Note_off_c, 0, 68, 64
1, 135742, Note_on_c, 0, 64, 57
1, 135746, Note_on_c, 0, 56, 32
1, 135748, Note_on_c, 0, 61, 36
1, 135748, Note_on_c, 0, 59, 32
1, 135780, Control_c, 0, 64, 0
1, 136010, Control_c, 0, 64, 127
1, 136038, Note_off_c, 0, 61, 64
1, 136060, Note_off_c, 0, 56, 64
1, 136170, Note_off_c, 0, 64, 64
1, 136256, Note_on_c, 0, 66, 40
1, 136262, Note_on_c, 0, 57, 25
1, 136272, Note_on_c, 0, 63, 28
1, 136302, Control_c, 0, 64, 0
1, 136436, Note_off_c, 0, 47, 64
1, 136532, Control_c, 0, 64, 127
1, 136644, Note_off_c, 0, 57, 64
1, 136776, Note_off_c, 0, 63, 64
1, 136832, Note_on_c, 0, 47, 27
1, 136894, Note_off_c, 0, 66, 64
1, 137402, Note_on_c, 0, 73, 26
1, 137412, Note_on_c, 0, 63, 18
1, 137418, Note_on_c, 0, 69, 8
1, 137654, Control_c, 0, 64, 0
1, 137792, Control_c, 0, 64, 127
1, 137858, Note_off_c, 0, 59, 64
1, 137918, Note_off_c, 0, 63, 64
1, 137942, Note_off_c, 0, 69, 64
1, 137970, Note_off_c, 0, 47, 64
1, 137974, Note_on_c, 0, 54, 28
1, 138050, Note_off_c, 0, 54, 64
1, 138084, Note_off_c, 0, 73, 64
1, 138628, Note_on_c, 0, 78, 49
1, 138634, Note_on_c, 0, 73, 27
1, 138646, Note_on_c, 0, 59, 49
1, 138646, Note_on_c, 0, 69, 15
1, 138714, Control_c, 0, 64, 0
1, 138926, Note_off_c, 0, 69, 64
1, 138928, Control_c, 0, 64, 127
1, 139102, Note_off_c, 0, 73, 64
1, 139150, Note_on_c, 0, 80, 58
1, 139158, Note_on_c, 0, 75, 28
1, 139161, Note_on_c, 0, 71, 34
1, 139298, Control_c, 0, 64, 0
1, 139316, Note_off_c, 0, 78, 64
1, 139420, Note_off_c, 0, 71, 64
1, 139436, Control_c, 0, 64, 127
1, 139444, Note_off_c, 0, 75, 64
1, 139646, Note_on_c, 0, 76, 55
1, 139656, Note_on_c, 0, 71, 29
1, 139659, Note_off_c, 0, 80, 64
1, 139662, Note_on_c, 0, 68, 28
1, 139728, Control_c, 0, 64, 0
1, 139866, Control_c, 0, 64, 127
1, 139878, Note_off_c, 0, 71, 64
1, 139882, Note_off_c, 0, 68, 64
1, 139906, Note_off_c, 0, 76, 64
1, 140236, Note_on_c, 0, 85, 51
1, 140258, Note_on_c, 0, 76, 28
1, 140272, Note_on_c, 0, 71, 38
1, 140378, Note_off_c, 0, 71, 64
1, 140414, Note_off_c, 0, 59, 64
1, 140526, Note_off_c, 0, 76, 64
1, 140550, Note_off_c, 0, 85, 64
1, 140754, Note_on_c, 0, 78, 57
1, 140756, Note_on_c, 0, 69, 20
1, 140766, Note_on_c, 0, 73, 36
1, 140824, Note_on_c, 0, 59, 12
1, 140956, Control_c, 0, 64, 0
1, 141142, Control_c, 0, 64, 127
1, 141228, Note_off_c, 0, 73, 64
1, 141244, Note_off_c, 0, 69, 64
1, 141252, Note_on_c, 0, 80, 46
1, 141258, Note_on_c, 0, 75, 32
1, 141268, Note_off_c, 0, 78, 64
1, 141320, Note_on_c, 0, 71, 3
1, 141430, Note_off_c, 0, 80, 64
1, 141430, Note_on_c, 0, 78, 55
1, 141498, Note_off_c, 0, 71, 64
1, 141500, Note_off_c, 0, 75, 64
1, 141596, Note_on_c, 0, 80, 61
1, 141606, Note_off_c, 0, 78, 64
1, 141802, Control_c, 0, 64, 0
1, 141805, Note_off_c, 0, 80, 64
1, 141814, Note_on_c, 0, 76, 43
1, 141814, Note_on_c, 0, 71, 34
1, 141817, Note_on_c, 0, 68, 19
1, 142004, Note_off_c, 0, 71, 64
1, 142008, Note_off_c, 0, 59, 64
1, 142018, Control_c, 0, 64, 127
1, 142080, Note_off_c, 0, 68, 64
1, 142088, Note_off_c, 0, 76, 64
1, 142494, Note_on_c, 0, 83, 78
1, 142502, Note_on_c, 0, 76, 22
1, 142512, Note_on_c, 0, 71, 13
1, 142514, Note_on_c, 0, 68, 17
1, 142636, Note_off_c, 0, 71, 64
1, 142766, Note_off_c, 0, 76, 64
1, 142796, Note_off_c, 0, 68, 64
1, 143080, Note_on_c, 0, 85, 60
1, 143100, Note_on_c, 0, 76, 23
1, 143103, Note_on_c, 0, 71, 33
1, 143112, Note_on_c, 0, 67, 20
1, 143216, Note_off_c, 0, 83, 64
1, 143262, Control_c, 0, 64, 0
1, 143554, Control_c, 0, 64, 127
1, 143736, Note_on_c, 0, 88, 49
1, 143796, Note_off_c, 0, 76, 64
1, 143810, Note_off_c, 0, 85, 64
1, 144242, Note_on_c, 0, 87, 50
1, 144244, Note_on_c, 0, 78, 37
1, 144268, Note_on_c, 0, 66, 15
1, 144368, Control_c, 0, 64, 0
1, 144376, Note_off_c, 0, 67, 64
1, 144378, Note_off_c, 0, 88, 64
1, 144660, Control_c, 0, 64, 127
1, 144778, Note_on_c, 0, 83, 88
1, 144888, Note_off_c, 0, 87, 64
1, 144984, Note_off_c, 0, 71, 64
1, 144984, Note_off_c, 0, 78, 64
1, 145016, Note_off_c, 0, 66, 64
1, 145266, Note_on_c, 0, 85, 75
1, 145270, Note_on_c, 0, 79, 44
1, 145282, Note_on_c, 0, 71, 46
1, 145290, Note_on_c, 0, 64, 37
1, 145362, Note_off_c, 0, 83, 64
1, 145582, Control_c, 0, 64, 0
1, 145780, Note_on_c, 0, 88, 80
1, 145796, Control_c, 0, 64, 127
1, 145860, Note_off_c, 0, 85, 64
1, 146036, Note_off_c, 0, 79, 64
1, 146298, Note_on_c, 0, 90, 62
1, 146299, Note_on_c, 0, 78, 46
1, 146304, Note_off_c, 0, 64, 64
1, 146304, Note_on_c, 0, 63, 32
1, 146366, Control_c, 0, 64, 0
1, 146402, Note_off_c, 0, 88, 64
1, 146642, Control_c, 0, 64, 127
1, 146652, Note_off_c, 0, 71, 64
1, 146893, Note_off_c, 0, 78, 64
1, 146934, Note_on_c, 0, 83, 85
1, 147050, Note_off_c, 0, 90, 64
1, 147050, Note_off_c, 0, 63, 64
1, 147402, Note_on_c, 0, 85, 66
1, 147406, Note_on_c, 0, 67, 52
1, 147408, Note_on_c, 0, 71, 51
1, 147416, Note_on_c, 0, 76, 26
1, 147468, Note_off_c, 0, 83, 64
1, 147580, Control_c, 0, 64, 0
1, 147778, Control_c, 0, 64, 127
1, 147924, Note_on_c, 0, 88, 65
1, 147928, Note_off_c, 0, 67, 64
1, 147936, Note_on_c, 0, 69, 50
1, 148004, Note_off_c, 0, 76, 64
1, 148120, Note_on_c, 0, 67, 68
1, 148126, Note_off_c, 0, 69, 64
1, 148200, Note_off_c, 0, 85, 64
1, 148266, Note_on_c, 0, 69, 65
1, 148324, Note_off_c, 0, 67, 64
1, 148420, Note_on_c, 0, 87, 70
1, 148428, Note_on_c, 0, 78, 55
1, 148438, Note_on_c, 0, 66, 64
1, 148486, Control_c, 0, 64, 0
1, 148496, Note_off_c, 0, 69, 64
1, 148562, Note_off_c, 0, 88, 64
1, 148854, Control_c, 0, 64, 127
1, 148880, Note_off_c, 0, 71, 64
1, 148926, Note_on_c, 0, 83, 103
1, 149010, Note_off_c, 0, 87, 64
1, 149038, Note_off_c, 0, 78, 64
1, 149110, Note_off_c, 0, 66, 64
1, 149422, Note_on_c, 0, 71, 74
1, 149422, Note_on_c, 0, 85, 90
1, 149422, Note_on_c, 0, 64, 76
1, 149425, Note_on_c, 0, 79, 60
1, 149508, Note_off_c, 0, 83, 64
1, 149906, Note_off_c, 0, 64, 64
1, 149906, Note_on_c, 0, 66, 58
1, 149914, Note_on_c, 0, 88, 83
1, 149982, Note_off_c, 0, 85, 64
1, 150070, Note_on_c, 0, 64, 73
1, 150092, Note_off_c, 0, 66, 64
1, 150137, Note_off_c, 0, 79, 64
1, 150254, Note_on_c, 0, 66, 65
1, 150338, Note_off_c, 0, 64, 64
1, 150434, Control_c, 0, 64, 0
1, 150448, Note_on_c, 0, 90, 75
1, 150460, Note_on_c, 0, 78, 47
1, 150464, Note_on_c, 0, 63, 77
1, 150510, Note_off_c, 0, 66, 64
1, 150546, Note_off_c, 0, 88, 64
1, 150730, Note_off_c, 0, 71, 64
1, 150806, Control_c, 0, 64, 127
1, 150832, Note_off_c, 0, 63, 64
1, 150890, Note_off_c, 0, 78, 64
1, 151022, Note_on_c, 0, 83, 103
1, 151084, Note_off_c, 0, 90, 64
1, 151324, Note_off_c, 0, 83, 64
1, 151746, Note_on_c, 0, 71, 42
1, 151748, Note_on_c, 0, 89, 43
1, 151750, Note_on_c, 0, 65, 25
1, 151751, Note_on_c, 0, 91, 37
1, 151758, Control_c, 0, 64, 0
1, 151762, Note_on_c, 0, 62, 43
1, 152034, Note_on_c, 0, 79, 40
1, 152038, Note_off_c, 0, 91, 64
1, 152096, Control_c, 0, 64, 127
1, 152170, Note_off_c, 0, 79, 64
1, 152218, Note_on_c, 0, 91, 36
1, 152302, Note_off_c, 0, 91, 64
1, 152386, Note_off_c, 0, 65, 64
1, 152400, Note_on_c, 0, 79, 38
1, 152412, Note_on_c, 0, 64, 47
1, 152464, Note_off_c, 0, 62, 64
1, 152492, Note_off_c, 0, 79, 64
1, 152610, Note_on_c, 0, 91, 22
1, 152694, Note_off_c, 0, 64, 64
1, 152694, Note_off_c, 0, 91, 64
1, 152702, Note_off_c, 0, 71, 64
1, 152756, Note_on_c, 0, 79, 36
1, 152828, Note_off_c, 0, 79, 64
1, 152916, Note_on_c, 0, 72, 34
1, 152919, Note_on_c, 0, 60, 58
1, 152922, Note_on_c, 0, 91, 39
1, 152923, Note_on_c, 0, 64, 40
1, 152933, Note_on_c, 0, 88, 27
1, 152935, Note_off_c, 0, 89, 64
1, 152942, Control_c, 0, 64, 0
1, 153088, Note_off_c, 0, 91, 64
1, 153096, Note_on_c, 0, 79, 46
1, 153192, Note_off_c, 0, 79, 64
1, 153202, Control_c, 0, 64, 127
1, 153270, Note_on_c, 0, 91, 37
1, 153292, Note_off_c, 0, 64, 64
1, 153344, Note_off_c, 0, 91, 64
1, 153410, Note_off_c, 0, 72, 64
1, 153413, Note_on_c, 0, 69, 56
1, 153424, Note_on_c, 0, 79, 41
1, 153502, Note_off_c, 0, 79, 64
1, 153543, Note_off_c, 0, 60, 64
1, 153588, Note_on_c, 0, 91, 43
1, 153666, Note_off_c, 0, 91, 64
1, 153706, Note_off_c, 0, 69, 64
1, 153736, Note_on_c, 0, 79, 49
1, 153800, Note_off_c, 0, 88, 64
1, 153802, Note_off_c, 0, 79, 64
1, 153938, Note_on_c, 0, 71, 63
1, 153941, Note_on_c, 0, 91, 44
1, 153948, Note_on_c, 0, 89, 18
1, 153956, Control_c, 0, 64, 0
1, 153956, Note_on_c, 0, 62, 43
1, 153964, Note_on_c, 0, 65, 38
1, 154144, Note_on_c, 0, 79, 44
1, 154160, Note_off_c, 0, 91, 64
1, 154218, Control_c, 0, 64, 127
1, 154258, Note_off_c, 0, 79, 64
1, 154320, Note_off_c, 0, 65, 64
1, 154334, Note_on_c, 0, 91, 45
1, 154402, Note_off_c, 0, 62, 64
1, 154422, Note_off_c, 0, 91, 64
1, 154502, Note_on_c, 0, 64, 54
1, 154506, Note_on_c, 0, 79, 44
1, 154624, Note_off_c, 0, 79, 64
1, 154686, Note_off_c, 0, 64, 64
1, 154698, Note_on_c, 0, 62, 63
1, 154704, Note_on_c, 0, 91, 36
1, 154798, Note_off_c, 0, 91, 64
1, 154830, Note_off_c, 0, 89, 64
1, 154874, Note_on_c, 0, 79, 42
1, 154879, Note_on_c, 0, 64, 59
1, 154888, Note_off_c, 0, 62, 64
1, 154930, Note_off_c, 0, 71, 64
1, 155048, Note_off_c, 0, 79, 64
1, 155078, Control_c, 0, 64, 0
1, 155078, Note_on_c, 0, 91, 37
1, 155090, Note_on_c, 0, 72, 50
1, 155090, Note_on_c, 0, 88, 23
1, 155106, Note_on_c, 0, 60, 35
1, 155274, Note_off_c, 0, 91, 64
1, 155308, Note_on_c, 0, 79, 41
1, 155338, Control_c, 0, 64, 127
1, 155388, Note_off_c, 0, 72, 64
1, 155400, Note_off_c, 0, 60, 64
1, 155418, Note_off_c, 0, 79, 64
1, 155504, Note_on_c, 0, 91, 34
1, 155576, Note_off_c, 0, 91, 64
1, 155646, Note_off_c, 0, 64, 64
1, 155674, Note_on_c, 0, 79, 28
1, 155680, Note_on_c, 0, 57, 35
1, 155774, Note_off_c, 0, 79, 64
1, 155806, Note_off_c, 0, 88, 64
1, 155830, Note_off_c, 0, 57, 64
1, 155902, Note_on_c, 0, 91, 26
1, 155986, Note_off_c, 0, 91, 64
1, 156068, Note_on_c, 0, 79, 29
1, 156132, Note_off_c, 0, 79, 64
1, 156407, Note_on_c, 0, 43, 28
1, 156408, Note_on_c, 0, 53, 22
1, 156416, Note_on_c, 0, 62, 51
1, 156444, Control_c, 0, 64, 0
1, 156484, Note_on_c, 0, 57, 20
1, 156606, Note_off_c, 0, 53, 64
1, 156652, Note_on_c, 0, 55, 40
1, 156746, Note_off_c, 0, 55, 64
1, 156752, Control_c, 0, 64, 127
1, 156814, Note_on_c, 0, 53, 60
1, 156916, Note_off_c, 0, 53, 64
1, 156930, Note_off_c, 0, 57, 64
1, 156976, Note_on_c, 0, 64, 69
1, 156979, Note_on_c, 0, 59, 43
1, 156996, Note_on_c, 0, 55, 30
1, 157028, Control_c, 0, 64, 0
1, 157054, Note_off_c, 0, 62, 64
1, 157074, Note_off_c, 0, 55, 64
1, 157182, Note_on_c, 0, 53, 34
1, 157244, Control_c, 0, 64, 127
1, 157247, Note_off_c, 0, 53, 64
1, 157304, Note_on_c, 0, 55, 37
1, 157414, Note_off_c, 0, 55, 64
1, 157490, Note_on_c, 0, 60, 63
1, 157496, Note_on_c, 0, 52, 43
1, 157520, Control_c, 0, 64, 0
1, 157552, Note_off_c, 0, 59, 64
1, 157634, Note_off_c, 0, 64, 64
1, 157642, Note_off_c, 0, 52, 64
1, 157676, Note_on_c, 0, 55, 38
1, 157774, Note_off_c, 0, 55, 64
1, 157782, Control_c, 0, 64, 127
1, 157838, Note_on_c, 0, 52, 41
1, 157920, Note_off_c, 0, 52, 64
1, 157978, Note_on_c, 0, 69, 58
1, 157998, Note_off_c, 0, 60, 64
1, 158036, Note_on_c, 0, 55, 21
1, 158112, Note_off_c, 0, 69, 64
1, 158114, Note_off_c, 0, 55, 64
1, 158131, Note_off_c, 0, 43, 64
1, 158180, Note_on_c, 0, 52, 40
1, 158238, Note_off_c, 0, 52, 64
1, 158306, Note_on_c, 0, 55, 39
1, 158368, Note_off_c, 0, 55, 64
1, 158534, Control_c, 0, 64, 0
1, 158534, Note_on_c, 0, 43, 35
1, 158552, Note_on_c, 0, 62, 52
1, 158564, Note_on_c, 0, 57, 32
1, 158572, Note_on_c, 0, 53, 38
1, 158718, Note_off_c, 0, 53, 64
1, 158788, Note_on_c, 0, 55, 26
1, 158842, Control_c, 0, 64, 127
1, 158878, Note_off_c, 0, 43, 64
1, 158882, Note_off_c, 0, 55, 64
1, 159002, Note_on_c, 0, 53, 24
1, 159086, Note_off_c, 0, 53, 64
1, 159106, Note_off_c, 0, 62, 64
1, 159136, Note_on_c, 0, 64, 42
1, 159360, Note_off_c, 0, 64, 64
1, 159384, Note_on_c, 0, 62, 40
1, 159612, Note_off_c, 0, 62, 64
1, 159646, Note_on_c, 0, 55, 26
1, 159656, Note_on_c, 0, 64, 36
1, 159716, Note_off_c, 0, 55, 64
1, 159980, Note_on_c, 0, 36, 23
1, 160010, Control_c, 0, 64, 0
1, 160022, Note_off_c, 0, 57, 64
1, 160024, Note_on_c, 0, 58, 21
1, 160026, Note_on_c, 0, 60, 36
1, 160092, Note_off_c, 0, 64, 64
1, 160298, Note_off_c, 0, 36, 64
1, 160298, Note_on_c, 0, 43, 25
1, 160301, Control_c, 0, 64, 127
1, 160370, Note_off_c, 0, 43, 64
1, 160492, Note_off_c, 0, 58, 64
1, 160504, Note_on_c, 0, 52, 26
1, 160514, Note_off_c, 0, 60, 64
1, 160586, Note_off_c, 0, 52, 64
1, 160700, Note_on_c, 0, 55, 31
1, 160834, Note_off_c, 0, 55, 64
1, 160892, Note_on_c, 0, 58, 31
1, 160980, Note_off_c, 0, 58, 64
1, 161102, Note_on_c, 0, 60, 46
1, 161162, Note_off_c, 0, 60, 64
1, 161390, Note_on_c, 0, 55, 41
1, 161416, Note_on_c, 0, 65, 15
1, 161454, Control_c, 0, 64, 0
1, 161486, Note_on_c, 0, 74, 70
1, 161504, Note_on_c, 0, 69, 29
1, 161694, Note_off_c, 0, 55, 64
1, 161694, Note_off_c, 0, 65, 64
1, 161700, Control_c, 0, 64, 127
1, 161734, Note_on_c, 0, 67, 30
1, 161808, Note_off_c, 0, 67, 64
1, 161926, Note_on_c, 0, 65, 31
1, 161986, Note_off_c, 0, 65, 64
1, 162008, Note_off_c, 0, 69, 64
1, 162090, Note_on_c, 0, 76, 56
1, 162102, Note_on_c, 0, 71, 44
1, 162104, Note_off_c, 0, 74, 64
1, 162110, Note_on_c, 0, 67, 35
1, 162180, Note_off_c, 0, 67, 64
1, 162322, Note_on_c, 0, 74, 68
1, 162342, Note_off_c, 0, 76, 64
1, 162350, Note_on_c, 0, 65, 24
1, 162414, Note_off_c, 0, 65, 64
1, 162564, Note_off_c, 0, 74, 64
1, 162574, Note_on_c, 0, 67, 30
1, 162582, Note_on_c, 0, 76, 57
1, 162628, Note_off_c, 0, 71, 64
1, 162644, Note_off_c, 0, 67, 64
1, 162938, Note_on_c, 0, 48, 20
1, 163012, Note_on_c, 0, 70, 32
1, 163012, Note_on_c, 0, 72, 42
1, 163020, Control_c, 0, 64, 0
1, 163120, Note_off_c, 0, 76, 64
1, 163310, Note_on_c, 0, 55, 29
1, 163358, Control_c, 0, 64, 127
1, 163398, Note_off_c, 0, 48, 64
1, 163398, Note_off_c, 0, 55, 64
1, 163500, Note_off_c, 0, 70, 64
1, 163542, Note_on_c, 0, 60, 31
1, 163690, Note_off_c, 0, 60, 64
1, 163754, Note_on_c, 0, 64, 34
1, 163904, Note_off_c, 0, 64, 64
1, 163940, Note_on_c, 0, 67, 40
1, 163943, Note_off_c, 0, 72, 64
1, 164092, Note_off_c, 0, 67, 64
1, 164122, Note_on_c, 0, 70, 38
1, 164266, Note_off_c, 0, 70, 64
1, 164310, Note_on_c, 0, 72, 56
1, 164494, Note_off_c, 0, 72, 64
1, 164506, Note_on_c, 0, 76, 52
1, 164680, Note_on_c, 0, 79, 68
1, 164685, Note_off_c, 0, 76, 64
1, 164848, Note_off_c, 0, 79, 64
1, 164858, Note_on_c, 0, 82, 59
1, 165022, Note_off_c, 0, 82, 64
1, 165034, Note_on_c, 0, 84, 64
1, 165220, Note_on_c, 0, 88, 50
1, 165242, Note_off_c, 0, 84, 64
1, 165430, Note_on_c, 0, 91, 43
1, 165436, Note_off_c, 0, 88, 64
1, 165642, Note_on_c, 0, 88, 43
1, 165652, Note_off_c, 0, 91, 64
1, 165792, Note_off_c, 0, 88, 64
1, 165832, Note_on_c, 0, 84, 44
1, 166000, Note_off_c, 0, 84, 64
1, 166024, Note_on_c, 0, 82, 35
1, 166220, Note_off_c, 0, 82, 64
1, 166232, Note_on_c, 0, 79, 47
1, 166382, Note_off_c, 0, 79, 64
1, 166448, Note_on_c, 0, 76, 29
1, 166604, Note_off_c, 0, 76, 64
1, 166668, Note_on_c, 0, 72, 25
1, 166876, Note_off_c, 0, 72, 64
1, 166882, Note_on_c, 0, 70, 22
1, 167130, Note_on_c, 0, 67, 29
1, 167132, Note_off_c, 0, 70, 64
1, 167240, Note_off_c, 0, 67, 64
1, 167432, Note_on_c, 0, 64, 27
1, 167552, Note_off_c, 0, 64, 64
1, 167730, Note_on_c, 0, 60, 18
1, 167856, Note_off_c, 0, 60, 64
1, 168070, Note_on_c, 0, 59, 20
1, 168200, Note_off_c, 0, 59, 64
1, 168618, Note_on_c, 0, 79, 66
1, 168654, Note_on_c, 0, 58, 12
1, 168890, Control_c, 0, 64, 0
1, 168970, Note_on_c, 0, 60, 20
1, 169152, Control_c, 0, 64, 127
1, 169262, Note_off_c, 0, 60, 64
1, 169267, Note_on_c, 0, 62, 8
1, 169308, Note_off_c, 0, 79, 64
1, 169362, Note_off_c, 0, 58, 64
1, 169364, Note_off_c, 0, 62, 64
1, 169506, Note_on_c, 0, 67, 20
1, 169582, Note_off_c, 0, 67, 64
1, 169820, Note_on_c, 0, 91, 11
1, 169864, Note_on_c, 0, 74, 48
1, 170106, Note_off_c, 0, 91, 64
1, 170122, Note_off_c, 0, 74, 64
1, 170150, Note_on_c, 0, 86, 27
1, 170386, Note_on_c, 0, 84, 31
1, 170397, Note_off_c, 0, 86, 64
1, 170602, Note_off_c, 0, 84, 64
1, 170624, Note_on_c, 0, 82, 25
1, 170768, Note_off_c, 0, 82, 64
1, 170874, Note_on_c, 0, 58, 23
1, 171100, Note_off_c, 0, 58, 64
1, 171114, Note_on_c, 0, 60, 13
1, 171290, Note_off_c, 0, 60, 64
1, 171348, Note_on_c, 0, 62, 21
1, 171348, Note_on_c, 0, 76, 50
1, 171418, Note_off_c, 0, 62, 64
1, 171494, Note_off_c, 0, 76, 64
1, 171584, Note_on_c, 0, 67, 28
1, 171638, Note_on_c, 0, 77, 61
1, 171648, Note_off_c, 0, 67, 64
1, 171678, Note_off_c, 0, 77, 64
1, 171972, Note_on_c, 0, 91, 24
1, 172002, Note_on_c, 0, 79, 64
1, 172200, Note_off_c, 0, 91, 64
1, 172252, Note_off_c, 0, 79, 64
1, 172270, Note_on_c, 0, 86, 29
1, 172418, Note_off_c, 0, 86, 64
1, 172498, Note_on_c, 0, 76, 51
1, 172504, Note_on_c, 0, 84, 26
1, 172576, Note_off_c, 0, 84, 64
1, 172606, Note_off_c, 0, 76, 64
1, 172762, Note_on_c, 0, 74, 56
1, 172764, Note_on_c, 0, 82, 30
1, 172804, Note_off_c, 0, 74, 64
1, 172830, Note_off_c, 0, 82, 64
1, 173084, Note_on_c, 0, 76, 69
1, 173104, Note_on_c, 0, 58, 18
1, 173330, Note_off_c, 0, 58, 64
1, 173384, Note_on_c, 0, 60, 33
1, 173484, Note_off_c, 0, 60, 64
1, 173498, Note_on_c, 0, 72, 67
1, 173552, Note_off_c, 0, 76, 64
1, 173660, Note_off_c, 0, 72, 64
1, 173672, Note_on_c, 0, 62, 21
1, 173740, Note_off_c, 0, 62, 64
1, 173824, Note_on_c, 0, 76, 60
1, 173864, Note_off_c, 0, 76, 64
1, 173940, Note_on_c, 0, 67, 36
1, 174004, Note_off_c, 0, 67, 64
1, 174198, Note_on_c, 0, 91, 34
1, 174254, Note_on_c, 0, 74, 51
1, 174291, Note_off_c, 0, 91, 64
1, 174524, Note_on_c, 0, 86, 18
1, 174558, Note_off_c, 0, 74, 64
1, 174618, Note_off_c, 0, 86, 64
1, 174738, Note_on_c, 0, 84, 21
1, 174944, Note_on_c, 0, 82, 28
1, 174966, Note_off_c, 0, 84, 64
1, 175064, Note_off_c, 0, 82, 64
1, 175158, Note_on_c, 0, 58, 25
1, 175372, Note_off_c, 0, 58, 64
1, 175392, Note_on_c, 0, 60, 23
1, 175602, Note_off_c, 0, 60, 64
1, 175638, Note_on_c, 0, 62, 21
1, 175706, Note_off_c, 0, 62, 64
1, 175860, Note_on_c, 0, 67, 31
1, 176054, Note_off_c, 0, 67, 64
1, 176118, Note_on_c, 0, 91, 20
1, 176208, Note_on_c, 0, 70, 46
1, 176252, Note_off_c, 0, 91, 64
1, 176420, Note_on_c, 0, 86, 25
1, 176498, Note_off_c, 0, 70, 64
1, 176508, Note_off_c, 0, 86, 64
1, 176640, Note_on_c, 0, 84, 30
1, 176706, Note_on_c, 0, 74, 70
1, 176758, Note_off_c, 0, 84, 64
1, 176796, Note_off_c, 0, 74, 64
1, 176910, Note_on_c, 0, 82, 46
1, 176962, Note_off_c, 0, 82, 64
1, 177176, Note_on_c, 0, 76, 64
1, 177208, Note_on_c, 0, 57, 24
1, 177430, Note_on_c, 0, 58, 34
1, 177448, Control_c, 0, 64, 0
1, 177680, Note_on_c, 0, 77, 65
1, 177702, Note_off_c, 0, 58, 64
1, 177705, Note_on_c, 0, 60, 33
1, 177726, Note_off_c, 0, 76, 64
1, 177894, Control_c, 0, 64, 127
1, 177918, Note_off_c, 0, 77, 64
1, 177930, Note_off_c, 0, 57, 64
1, 177954, Note_off_c, 0, 60, 64
1, 178024, Note_on_c, 0, 65, 17
1, 178094, Note_off_c, 0, 65, 64
1, 178290, Note_on_c, 0, 89, 31
1, 178384, Note_on_c, 0, 72, 50
1, 178408, Note_off_c, 0, 89, 64
1, 178640, Note_on_c, 0, 84, 17
1, 178736, Note_off_c, 0, 72, 64
1, 178836, Note_on_c, 0, 82, 28
1, 178840, Note_off_c, 0, 84, 64
1, 178922, Note_off_c, 0, 82, 64
1, 179092, Note_on_c, 0, 81, 30
1, 179146, Note_off_c, 0, 81, 64
1, 179310, Note_on_c, 0, 55, 18
1, 179538, Note_on_c, 0, 57, 21
1, 179614, Note_on_c, 0, 72, 3
1, 179772, Note_on_c, 0, 58, 21
1, 179776, Note_off_c, 0, 57, 64
1, 179784, Control_c, 0, 64, 0
1, 179938, Control_c, 0, 64, 127
1, 179962, Note_off_c, 0, 55, 64
1, 179974, Note_off_c, 0, 72, 64
1, 180028, Note_off_c, 0, 58, 64
1, 180084, Note_on_c, 0, 64, 26
1, 180144, Note_off_c, 0, 64, 64
1, 180356, Note_on_c, 0, 88, 10
1, 180432, Note_on_c, 0, 67, 37
1, 180536, Note_off_c, 0, 88, 64
1, 180604, Note_off_c, 0, 67, 64
1, 180616, Note_on_c, 0, 82, 15
1, 180888, Note_off_c, 0, 82, 64
1, 180894, Note_on_c, 0, 81, 14
1, 180992, Note_off_c, 0, 81, 64
1, 181154, Note_on_c, 0, 79, 30
1, 181220, Note_off_c, 0, 79, 64
1, 181596, Note_on_c, 0, 69, 20
1, 181614, Note_on_c, 0, 41, 23
1, 181812, Control_c, 0, 64, 0
1, 181948, Note_on_c, 0, 48, 24
1, 182088, Control_c, 0, 64, 127
1, 182166, Note_on_c, 0, 57, 20
1, 182374, Note_off_c, 0, 57, 64
1, 182408, Note_on_c, 0, 65, 18
1, 182652, Note_on_c, 0, 62, 39
1, 182654, Note_off_c, 0, 65, 64
1, 182802, Note_off_c, 0, 62, 64
1, 182876, Note_on_c, 0, 57, 26
1, 182996, Note_off_c, 0, 57, 64
1, 183100, Note_on_c, 0, 60, 24
1, 183120, Note_off_c, 0, 48, 64
1, 183128, Note_off_c, 0, 41, 64
1, 183214, Note_off_c, 0, 60, 64
1, 183324, Note_on_c, 0, 65, 12
1, 183488, Note_off_c, 0, 65, 64
1, 183570, Note_on_c, 0, 41, 25
1, 183842, Note_on_c, 0, 48, 15
1, 183870, Control_c, 0, 64, 0
1, 184016, Note_on_c, 0, 57, 17
1, 184118, Control_c, 0, 64, 127
1, 184248, Note_off_c, 0, 57, 64
1, 184254, Note_on_c, 0, 65, 14
1, 184552, Note_on_c, 0, 62, 22
1, 184624, Note_off_c, 0, 65, 64
1, 184794, Note_off_c, 0, 62, 64
1, 184812, Note_on_c, 0, 57, 12
1, 184946, Note_off_c, 0, 48, 64
1, 184966, Note_off_c, 0, 57, 64
1, 185082, Note_on_c, 0, 60, 13
1, 185138, Note_off_c, 0, 41, 64
1, 185296, Note_off_c, 0, 60, 64
1, 185368, Note_off_c, 0, 69, 64
1, 185442, Note_on_c, 0, 65, 12
1, 185592, Note_off_c, 0, 65, 64
1, 186024, Note_on_c, 0, 81, 33
1, 186052, Note_on_c, 0, 38, 22
1, 186206, Control_c, 0, 64, 0
1, 186438, Note_on_c, 0, 45, 20
1, 186482, Control_c, 0, 64, 127
1, 186550, Note_off_c, 0, 38, 64
1, 186664, Note_off_c, 0, 45, 64
1, 186730, Note_on_c, 0, 50, 23
1, 186880, Note_off_c, 0, 50, 64
1, 186980, Note_on_c, 0, 53, 43
1, 187052, Note_off_c, 0, 53, 64
1, 187228, Note_on_c, 0, 76, 51
1, 187242, Note_on_c, 0, 57, 35
1, 187326, Note_off_c, 0, 81, 64
1, 187344, Note_off_c, 0, 57, 64
1, 187462, Note_on_c, 0, 60, 33
1, 187628, Note_off_c, 0, 60, 64
1, 187704, Note_on_c, 0, 64, 41
1, 187842, Note_off_c, 0, 64, 64
1, 187948, Note_on_c, 0, 60, 27
1, 188128, Note_off_c, 0, 60, 64
1, 188198, Note_on_c, 0, 57, 22
1, 188358, Note_off_c, 0, 57, 64
1, 188430, Note_on_c, 0, 53, 33
1, 188610, Note_off_c, 0, 53, 64
1, 188686, Note_on_c, 0, 72, 60
1, 188704, Note_off_c, 0, 76, 64
1, 188718, Note_on_c, 0, 57, 27
1, 188808, Note_off_c, 0, 57, 64
1, 188962, Note_on_c, 0, 76, 65
1, 188975, Note_on_c, 0, 60, 33
1, 189040, Note_off_c, 0, 72, 64
1, 189048, Note_off_c, 0, 60, 64
1, 189196, Note_on_c, 0, 74, 70
1, 189212, Note_on_c, 0, 43, 34
1, 189280, Control_c, 0, 64, 0
1, 189306, Note_off_c, 0, 76, 64
1, 189462, Note_on_c, 0, 50, 47
1, 189526, Control_c, 0, 64, 127
1, 189538, Note_off_c, 0, 50, 64
1, 189570, Note_off_c, 0, 43, 64
1, 189656, Note_on_c, 0, 70, 57
1, 189684, Note_on_c, 0, 55, 40
1, 189728, Note_off_c, 0, 74, 64
1, 189752, Note_off_c, 0, 55, 64
1, 189910, Note_on_c, 0, 58, 40
1, 189914, Note_on_c, 0, 67, 71
1, 189942, Note_off_c, 0, 70, 64
1, 189978, Note_off_c, 0, 58, 64
1, 190292, Note_off_c, 0, 67, 64
1, 190320, Note_on_c, 0, 81, 66
1, 190324, Control_c, 0, 64, 0
1, 190330, Note_on_c, 0, 38, 49
1, 190662, Control_c, 0, 64, 127
1, 190696, Note_on_c, 0, 45, 42
1, 190698, Note_off_c, 0, 38, 64
1, 190782, Note_off_c, 0, 45, 64
1, 190982, Note_on_c, 0, 50, 41
1, 191056, Note_off_c, 0, 50, 64
1, 191272, Note_on_c, 0, 53, 30
1, 191356, Note_off_c, 0, 53, 64
1, 191518, Note_on_c, 0, 57, 25
1, 191520, Note_on_c, 0, 76, 55
1, 191624, Note_off_c, 0, 57, 64
1, 191632, Note_off_c, 0, 81, 64
1, 191760, Note_on_c, 0, 60, 27
1, 191918, Note_off_c, 0, 60, 64
1, 191992, Note_on_c, 0, 64, 45
1, 192188, Note_off_c, 0, 64, 64
1, 192218, Note_on_c, 0, 60, 40
1, 192390, Note_off_c, 0, 60, 64
1, 192440, Note_on_c, 0, 57, 36
1, 192574, Note_off_c, 0, 57, 64
1, 192714, Note_on_c, 0, 53, 27
1, 192806, Note_off_c, 0, 53, 64
1, 192922, Note_on_c, 0, 72, 50
1, 192938, Note_on_c, 0, 57, 23
1, 192962, Note_off_c, 0, 76, 64
1, 193040, Note_off_c, 0, 57, 64
1, 193228, Note_on_c, 0, 60, 28
1, 193238, Note_on_c, 0, 76, 51
1, 193304, Note_off_c, 0, 72, 64
1, 193322, Note_off_c, 0, 60, 64
1, 193494, Note_on_c, 0, 43, 34
1, 193514, Note_on_c, 0, 74, 57
1, 193582, Control_c, 0, 64, 0
1, 193652, Note_off_c, 0, 76, 64
1, 193766, Note_on_c, 0, 50, 45
1, 193828, Control_c, 0, 64, 127
1, 193854, Note_off_c, 0, 50, 64
1, 193888, Note_off_c, 0, 43, 64
1, 193972, Note_on_c, 0, 70, 52
1, 193994, Note_on_c, 0, 55, 31
1, 194054, Note_off_c, 0, 74, 64
1, 194068, Note_off_c, 0, 55, 64
1, 194226, Note_on_c, 0, 58, 30
1, 194232, Note_on_c, 0, 67, 69
1, 194284, Note_off_c, 0, 70, 64
1, 194294, Note_off_c, 0, 58, 64
1, 194714, Note_on_c, 0, 79, 71
1, 194734, Note_on_c, 0, 39, 15
1, 194736, Control_c, 0, 64, 0
1, 194782, Note_off_c, 0, 67, 64
1, 195062, Note_on_c, 0, 46, 26
1, 195088, Control_c, 0, 64, 127
1, 195118, Note_off_c, 0, 39, 64
1, 195302, Note_off_c, 0, 46, 64
1, 195356, Note_on_c, 0, 51, 21
1, 195458, Note_off_c, 0, 51, 64
1, 195646, Note_on_c, 0, 55, 29
1, 195808, Note_off_c, 0, 55, 64
1, 195910, Note_on_c, 0, 58, 17
1, 195936, Note_on_c, 0, 74, 54
1, 196006, Note_off_c, 0, 79, 64
1, 196128, Note_off_c, 0, 58, 64
1, 196200, Note_on_c, 0, 63, 32
1, 196272, Note_off_c, 0, 63, 64
1, 196392, Note_on_c, 0, 67, 29
1, 196562, Note_off_c, 0, 67, 64
1, 196628, Note_on_c, 0, 63, 42
1, 196806, Note_off_c, 0, 63, 64
1, 196852, Note_on_c, 0, 58, 32
1, 197022, Note_off_c, 0, 58, 64
1, 197078, Note_on_c, 0, 55, 38
1, 197264, Note_off_c, 0, 55, 64
1, 197320, Note_on_c, 0, 70, 43
1, 197352, Note_on_c, 0, 51, 34
1, 197410, Note_off_c, 0, 74, 64
1, 197510, Note_off_c, 0, 51, 64
1, 197574, Note_on_c, 0, 46, 26
1, 197582, Note_on_c, 0, 74, 68
1, 197654, Note_off_c, 0, 70, 64
1, 197742, Note_off_c, 0, 46, 64
1, 197842, Note_on_c, 0, 39, 33
1, 197912, Note_on_c, 0, 72, 61
1, 197944, Control_c, 0, 64, 0
1, 198072, Note_off_c, 0, 74, 64
1, 198148, Note_on_c, 0, 48, 34
1, 198250, Note_off_c, 0, 39, 64
1, 198252, Control_c, 0, 64, 127
1, 198330, Note_off_c, 0, 48, 64
1, 198386, Note_on_c, 0, 69, 47
1, 198426, Note_on_c, 0, 53, 59
1, 198500, Note_off_c, 0, 72, 64
1, 198536, Note_off_c, 0, 53, 64
1, 198680, Note_off_c, 0, 69, 64
1, 198690, Note_on_c, 0, 57, 47
1, 198692, Note_on_c, 0, 65, 66
1, 198756, Note_off_c, 0, 57, 64
1, 199002, Note_off_c, 0, 65, 64
1, 199038, Note_on_c, 0, 39, 41
1, 199084, Note_on_c, 0, 79, 67
1, 199128, Control_c, 0, 64, 0
1, 199396, Note_on_c, 0, 46, 33
1, 199404, Control_c, 0, 64, 127
1, 199418, Note_off_c, 0, 39, 64
1, 199616, Note_off_c, 0, 46, 64
1, 199650, Note_on_c, 0, 51, 39
1, 199808, Note_off_c, 0, 51, 64
1, 199890, Note_on_c, 0, 55, 43
1, 200020, Note_off_c, 0, 55, 64
1, 200152, Note_on_c, 0, 58, 20
1, 200176, Note_on_c, 0, 74, 64
1, 200274, Note_off_c, 0, 79, 64
1, 200356, Note_off_c, 0, 58, 64
1, 200406, Note_on_c, 0, 63, 38
1, 200592, Note_off_c, 0, 63, 64
1, 200642, Note_on_c, 0, 67, 41
1, 200796, Note_off_c, 0, 67, 64
1, 200888, Note_on_c, 0, 63, 53
1, 201080, Note_off_c, 0, 63, 64
1, 201130, Note_on_c, 0, 58, 38
1, 201284, Note_off_c, 0, 58, 64
1, 201386, Note_on_c, 0, 55, 40
1, 201596, Note_off_c, 0, 55, 64
1, 201634, Note_on_c, 0, 70, 63
1, 201660, Note_off_c, 0, 74, 64
1, 201686, Note_on_c, 0, 51, 26
1, 201818, Note_off_c, 0, 51, 64
1, 201914, Note_on_c, 0, 74, 82
1, 201917, Note_on_c, 0, 46, 24
1, 201934, Note_off_c, 0, 70, 64
1, 202031, Note_off_c, 0, 74, 64
1, 202144, Note_off_c, 0, 46, 64
1, 202174, Note_on_c, 0, 45, 30
1, 202212, Note_on_c, 0, 72, 64
1, 202217, Note_on_c, 0, 60, 27
1, 202225, Note_on_c, 0, 67, 34
1, 202278, Control_c, 0, 64, 0
1, 202311, Note_off_c, 0, 67, 64
1, 202476, Note_off_c, 0, 45, 64
1, 202481, Note_on_c, 0, 67, 12
1, 202528, Note_on_c, 0, 51, 40
1, 202540, Control_c, 0, 64, 127
1, 202590, Note_off_c, 0, 51, 64
1, 202640, Note_off_c, 0, 67, 64
1, 202826, Note_on_c, 0, 45, 27
1, 202876, Note_on_c, 0, 74, 64
1, 202876, Note_on_c, 0, 66, 15
1, 202970, Note_off_c, 0, 72, 64
1, 203138, Control_c, 0, 64, 0
1, 203188, Note_on_c, 0, 38, 31
1, 203308, Control_c, 0, 64, 127
1, 203329, Note_off_c, 0, 60, 64
1, 203342, Note_off_c, 0, 74, 64
1, 203434, Note_off_c, 0, 38, 64
1, 203466, Note_off_c, 0, 45, 64
1, 203510, Note_off_c, 0, 66, 64
1, 203716, Note_on_c, 0, 70, 34
1, 203726, Note_on_c, 0, 67, 25
1, 203728, Note_on_c, 0, 31, 52
1, 203734, Note_on_c, 0, 62, 32
1, 203800, Control_c, 0, 64, 0
1, 204092, Control_c, 0, 64, 127
1, 204140, Note_off_c, 0, 62, 64
1, 204366, Note_on_c, 0, 61, 42
1, 204368, Note_on_c, 0, 69, 36
1, 204372, Note_off_c, 0, 67, 64
1, 204374, Note_on_c, 0, 64, 28
1, 204452, Note_off_c, 0, 70, 64
1, 204592, Note_off_c, 0, 64, 64
1, 204634, Note_off_c, 0, 69, 64
1, 204646, Note_off_c, 0, 61, 64
1, 204854, Note_on_c, 0, 61, 58
1, 204856, Note_on_c, 0, 69, 55
1, 204866, Note_on_c, 0, 64, 52
1, 204906, Control_c, 0, 64, 0
1, 205096, Note_off_c, 0, 64, 64
1, 205106, Control_c, 0, 64, 127
1, 205152, Note_off_c, 0, 61, 64
1, 205164, Note_off_c, 0, 69, 64
1, 205342, Note_on_c, 0, 70, 54
1, 205344, Note_on_c, 0, 62, 57
1, 205352, Note_on_c, 0, 67, 50
1, 205382, Control_c, 0, 64, 0
1, 205596, Control_c, 0, 64, 127
1, 205620, Note_off_c, 0, 62, 64
1, 205640, Note_off_c, 0, 70, 64
1, 205650, Note_off_c, 0, 67, 64
1, 205842, Note_on_c, 0, 70, 52
1, 205848, Note_on_c, 0, 67, 46
1, 205858, Control_c, 0, 64, 0
1, 205860, Note_on_c, 0, 62, 46
1, 205860, Note_on_c, 0, 43, 26
1, 205926, Note_off_c, 0, 31, 64
1, 206122, Note_off_c, 0, 62, 64
1, 206136, Control_c, 0, 64, 127
1, 206170, Note_off_c, 0, 67, 64
1, 206414, Note_on_c, 0, 61, 29
1, 206422, Note_on_c, 0, 69, 37
1, 206422, Note_on_c, 0, 64, 24
1, 206430, Note_off_c, 0, 70, 64
1, 206458, Control_c, 0, 64, 0
1, 206704, Control_c, 0, 64, 127
1, 206712, Note_off_c, 0, 64, 64
1, 206722, Note_off_c, 0, 69, 64
1, 206748, Note_off_c, 0, 61, 64
1, 207084, Note_on_c, 0, 61, 23
1, 207084, Note_on_c, 0, 69, 24
1, 207092, Note_on_c, 0, 64, 22
1, 207396, Note_off_c, 0, 43, 64
1, 207484, Note_off_c, 0, 61, 64
1, 207562, Note_off_c, 0, 64, 64
1, 207734, Note_off_c, 0, 69, 64
1, 208226, Note_on_c, 0, 70, 41
1, 208242, Note_on_c, 0, 67, 25
1, 208248, Note_on_c, 0, 62, 31
1, 208250, Note_on_c, 0, 55, 40
1, 208394, Control_c, 0, 64, 0
1, 208640, Control_c, 0, 64, 127
1, 208778, Note_off_c, 0, 62, 64
1, 208788, Note_on_c, 0, 69, 51
1, 208800, Note_off_c, 0, 67, 64
1, 208806, Note_on_c, 0, 64, 31
1, 208816, Note_off_c, 0, 70, 64
1, 208816, Note_on_c, 0, 61, 38
1, 208916, Control_c, 0, 64, 0
1, 209086, Control_c, 0, 64, 127
1, 209089, Note_off_c, 0, 64, 64
1, 209089, Note_off_c, 0, 61, 64
1, 209108, Note_off_c, 0, 69, 64
1, 209250, Note_on_c, 0, 69, 60
1, 209266, Note_on_c, 0, 61, 51
1, 209268, Note_on_c, 0, 64, 41
1, 209454, Control_c, 0, 64, 0
1, 209622, Control_c, 0, 64, 127
1, 209838, Note_off_c, 0, 64, 64
1, 209841, Note_off_c, 0, 61, 64
1, 209852, Note_on_c, 0, 70, 56
1, 209878, Note_on_c, 0, 67, 36
1, 209882, Note_off_c, 0, 69, 64
1, 209888, Note_on_c, 0, 62, 40
1, 209946, Control_c, 0, 64, 0
1, 210090, Note_on_c, 0, 74, 65
1, 210108, Note_off_c, 0, 70, 64
1, 210160, Control_c, 0, 64, 127
1, 210250, Note_off_c, 0, 74, 64
1, 210252, Note_on_c, 0, 70, 59
1, 210388, Note_off_c, 0, 55, 64
1, 210402, Note_off_c, 0, 62, 64
1, 210406, Control_c, 0, 64, 0
1, 210408, Note_on_c, 0, 69, 49
1, 210410, Note_on_c, 0, 61, 38
1, 210412, Note_on_c, 0, 64, 41
1, 210414, Note_on_c, 0, 57, 27
1, 210424, Note_off_c, 0, 70, 64
1, 210430, Note_off_c, 0, 67, 64
1, 210868, Control_c, 0, 64, 127
1, 211006, Note_on_c, 0, 67, 47
1, 211022, Control_c, 0, 64, 0
1, 211080, Note_off_c, 0, 69, 64
1, 211236, Control_c, 0, 64, 127
1, 211260, Note_off_c, 0, 57, 64
1, 211372, Note_off_c, 0, 61, 64
1, 211654, Note_off_c, 0, 64, 64
1, 211672, Note_on_c, 0, 65, 25
1, 211680, Note_on_c, 0, 57, 22
1, 211682, Note_on_c, 0, 62, 12
1, 211684, Note_on_c, 0, 50, 27
1, 211688, Note_off_c, 0, 67, 64
1, 211714, Control_c, 0, 64, 0
1, 211954, Note_off_c, 0, 57, 64
1, 211998, Note_off_c, 0, 50, 64
1, 212020, Control_c, 0, 64, 127
1, 212048, Note_off_c, 0, 62, 64
1, 212364, Note_on_c, 0, 69, 48
1, 212430, Note_off_c, 0, 65, 64
1, 213110, Note_on_c, 0, 82, 49
1, 213124, Note_on_c, 0, 74, 36
1, 213130, Note_on_c, 0, 79, 35
1, 213264, Control_c, 0, 64, 0
1, 213556, Control_c, 0, 64, 127
1, 213638, Note_off_c, 0, 74, 64
1, 213648, Note_on_c, 0, 81, 50
1, 213652, Note_on_c, 0, 73, 31
1, 213664, Note_on_c, 0, 76, 30
1, 213677, Note_off_c, 0, 79, 64
1, 213687, Note_off_c, 0, 82, 64
1, 213756, Control_c, 0, 64, 0
1, 213936, Note_off_c, 0, 76, 64
1, 213956, Control_c, 0, 64, 127
1, 213968, Note_off_c, 0, 81, 64
1, 213986, Note_off_c, 0, 73, 64
1, 214196, Note_on_c, 0, 81, 57
1, 214208, Note_on_c, 0, 76, 33
1, 214212, Note_on_c, 0, 73, 31
1, 214416, Control_c, 0, 64, 0
1, 214506, Note_off_c, 0, 76, 64
1, 214586, Control_c, 0, 64, 127
1, 214706, Note_on_c, 0, 82, 49
1, 214718, Note_off_c, 0, 81, 64
1, 214728, Note_on_c, 0, 79, 44
1, 214730, Note_on_c, 0, 74, 44
1, 214740, Control_c, 0, 64, 0
1, 214746, Note_off_c, 0, 73, 64
1, 214986, Control_c, 0, 64, 127
1, 215012, Note_off_c, 0, 79, 64
1, 215012, Note_off_c, 0, 74, 64
1, 215034, Note_off_c, 0, 82, 64
1, 215272, Note_on_c, 0, 82, 42
1, 215284, Note_on_c, 0, 74, 38
1, 215292, Note_on_c, 0, 79, 29
1, 215324, Note_on_c, 0, 67, 17
1, 215370, Control_c, 0, 64, 0
1, 215384, Note_off_c, 0, 69, 64
1, 215692, Control_c, 0, 64, 127
1, 215874, Note_off_c, 0, 74, 64
1, 215898, Note_off_c, 0, 79, 64
1, 216020, Note_off_c, 0, 82, 64
1, 216020, Note_on_c, 0, 73, 15
1, 216020, Note_on_c, 0, 81, 26
1, 216026, Note_on_c, 0, 76, 12
1, 216076, Control_c, 0, 64, 0
1, 216322, Control_c, 0, 64, 127
1, 216352, Note_off_c, 0, 76, 64
1, 216365, Note_off_c, 0, 73, 64
1, 216376, Note_off_c, 0, 81, 64
1, 216634, Note_on_c, 0, 81, 34
1, 216650, Note_on_c, 0, 73, 17
1, 216650, Note_on_c, 0, 76, 14
1, 217288, Note_off_c, 0, 67, 64
1, 217386, Note_on_c, 0, 65, 20
1, 217428, Control_c, 0, 64, 0
1, 217612, Control_c, 0, 64, 127
1, 217712, Note_off_c, 0, 76, 64
1, 217726, Note_off_c, 0, 65, 64
1, 217736, Note_off_c, 0, 73, 64
1, 217770, Note_off_c, 0, 81, 64
1, 217968, Note_on_c, 0, 82, 32
1, 217980, Note_on_c, 0, 79, 32
1, 217990, Note_on_c, 0, 74, 30
1, 218000, Note_on_c, 0, 64, 32
1, 218074, Control_c, 0, 64, 0
1, 218366, Control_c, 0, 64, 127
1, 218476, Note_off_c, 0, 74, 64
1, 218552, Note_off_c, 0, 79, 64
1, 218566, Note_on_c, 0, 81, 41
1, 218580, Note_on_c, 0, 76, 20
1, 218598, Note_on_c, 0, 73, 26
1, 218601, Note_off_c, 0, 82, 64
1, 218626, Control_c, 0, 64, 0
1, 218826, Control_c, 0, 64, 127
1, 218862, Note_off_c, 0, 73, 64
1, 218908, Note_off_c, 0, 81, 64
1, 218922, Note_off_c, 0, 76, 64
1, 219216, Note_on_c, 0, 81, 36
1, 219224, Note_on_c, 0, 76, 18
1, 219232, Note_on_c, 0, 73, 27
1, 219402, Note_off_c, 0, 64, 64
1, 219482, Note_off_c, 0, 73, 64
1, 219834, Note_off_c, 0, 76, 64
1, 219904, Note_on_c, 0, 82, 27
1, 219912, Note_off_c, 0, 81, 64
1, 219918, Note_on_c, 0, 79, 23
1, 219918, Note_on_c, 0, 74, 25
1, 219932, Note_on_c, 0, 62, 20
1, 219948, Control_c, 0, 64, 0
1, 220210, Control_c, 0, 64, 127
1, 220246, Note_on_c, 0, 86, 31
1, 220249, Note_off_c, 0, 82, 64
1, 220318, Note_off_c, 0, 74, 64
1, 220444, Note_off_c, 0, 62, 64
1, 220538, Note_off_c, 0, 86, 64
1, 220566, Note_on_c, 0, 82, 28
1, 220658, Note_off_c, 0, 79, 64
1, 221078, Note_on_c, 0, 81, 42
1, 221088, Note_on_c, 0, 70, 20
1, 221095, Note_on_c, 0, 76, 12
1, 221102, Note_on_c, 0, 60, 20
1, 221300, Note_off_c, 0, 82, 64
1, 221454, Control_c, 0, 64, 0
1, 221992, Control_c, 0, 64, 127
1, 222644, Note_on_c, 0, 79, 23
1, 222780, Note_off_c, 0, 81, 64
1, 222930, Control_c, 0, 64, 0
1, 223098, Control_c, 0, 64, 127
1, 223218, Note_off_c, 0, 70, 64
1, 223334, Note_off_c, 0, 60, 64
1, 223367, Note_off_c, 0, 76, 64
1, 223568, Note_off_c, 0, 79, 64
1, 224622, Note_on_c, 0, 29, 20
1, 224626, Note_on_c, 0, 93, 21
1, 224628, Note_on_c, 0, 81, 24
1, 224632, Note_on_c, 0, 89, 11
1, 225482, Note_on_c, 0, 41, 26
1, 225520, Note_off_c, 0, 29, 64
1, 225668, Note_off_c, 0, 41, 64
1, 226154, Note_on_c, 0, 48, 15
1, 226374, Note_off_c, 0, 48, 64
1, 226692, Note_on_c, 0, 53, 26
1, 226912, Note_off_c, 0, 53, 64
1, 227256, Note_on_c, 0, 57, 21
1, 227610, Note_off_c, 0, 57, 64
1, 228068, Note_on_c, 0, 60, 17
1, 229760, Note_on_c, 0, 65, 18
1, 229862, Note_off_c, 0, 89, 64
1, 229892, Note_off_c, 0, 93, 64
1, 229940, Note_off_c, 0, 81, 64
1, 229944, Note_off_c, 0, 60, 64
1, 231316, Note_on_c, 0, 81, 30
1, 231319, Note_on_c, 0, 72, 11
1, 231322, Note_on_c, 0, 69, 10
1, 237157, Note_off_c, 0, 72, 64
1, 237192, Note_off_c, 0, 69, 64
1, 237200, Note_off_c, 0, 65, 64
1, 237240, Note_off_c, 0, 81, 64
1, 237250, Control_c, 0, 64, 0
1, 238080, Control_c, 0, 64, 0
1, 238080, End_track
0, 0, End_of_file
