0, 0, Header, 0, 1, 384
1, 0, Start_track
1, 0, Tempo, 512820
1, 0, Title_t, "Suite bergamasquMenuet"
1, 0, Program_c, 0, 0
1, 0, Control_c, 0, 7, 100
1, 3, Control_c, 0, 91, 127
1, 3, Control_c, 0, 64, 0
1, 3, Control_c, 0, 91, 127
1, 6, Program_c, 0, 0
1, 6, Control_c, 0, 7, 100
1, 6, Control_c, 0, 91, 127
1, 748, Note_on_c, 0, 50, 61
1, 748, Note_on_c, 0, 57, 61
1, 787, Note_on_c, 0, 57, 0
1, 787, Note_on_c, 0, 50, 0
1, 904, Note_on_c, 0, 59, 58
1, 904, Note_on_c, 0, 65, 58
1, 942, Note_on_c, 0, 65, 0
1, 942, Note_on_c, 0, 59, 0
1, 1057, Note_on_c, 0, 60, 61
1, 1057, Note_on_c, 0, 53, 61
1, 1094, Note_on_c, 0, 53, 0
1, 1094, Note_on_c, 0, 60, 0
1, 1205, Note_on_c, 0, 69, 58
1, 1205, Note_on_c, 0, 62, 58
1, 1245, Note_on_c, 0, 62, 0
1, 1245, Note_on_c, 0, 69, 0
1, 1365, Note_on_c, 0, 59, 61
1, 1365, Note_on_c, 0, 50, 61
1, 1491, Note_on_c, 0, 59, 0
1, 1517, Note_on_c, 0, 59, 57
1, 1517, Note_on_c, 0, 50, 0
1, 1592, Note_on_c, 0, 59, 0
1, 1592, Note_on_c, 0, 60, 57
1, 1667, Note_on_c, 0, 60, 0
1, 1667, Note_on_c, 0, 69, 58
1, 1667, Note_on_c, 0, 65, 58
1, 1670, Note_on_c, 0, 59, 58
1, 1814, Note_on_c, 0, 59, 0
1, 1814, Note_on_c, 0, 65, 0
1, 1814, Note_on_c, 0, 69, 0
1, 1817, Note_on_c, 0, 57, 58
1, 1937, Note_on_c, 0, 57, 0
1, 1978, Note_on_c, 0, 59, 61
1, 1978, Note_on_c, 0, 50, 61
1, 2036, Note_on_c, 0, 59, 0
1, 2134, Note_on_c, 0, 50, 0
1, 2291, Note_on_c, 0, 65, 55
1, 2291, Note_on_c, 0, 69, 55
1, 2291, Note_on_c, 0, 60, 55
1, 2412, Note_on_c, 0, 60, 0
1, 2412, Note_on_c, 0, 69, 0
1, 2412, Note_on_c, 0, 65, 0
1, 2613, Note_on_c, 0, 59, 61
1, 2613, Note_on_c, 0, 45, 61
1, 2769, Note_on_c, 0, 59, 0
1, 2769, Note_on_c, 0, 60, 58
1, 2922, Note_on_c, 0, 60, 0
1, 2922, Note_on_c, 0, 72, 61
1, 2922, Note_on_c, 0, 69, 61
1, 2925, Note_on_c, 0, 62, 61
1, 2925, Note_on_c, 0, 45, 0
1, 2997, Note_on_c, 0, 62, 0
1, 3072, Note_on_c, 0, 64, 58
1, 3147, Note_on_c, 0, 64, 0
1, 3222, Note_on_c, 0, 69, 0
1, 3222, Note_on_c, 0, 72, 0
1, 3222, Note_on_c, 0, 66, 61
1, 3225, Note_on_c, 0, 38, 58
1, 3296, Note_on_c, 0, 66, 0
1, 3370, Note_on_c, 0, 66, 58
1, 3418, Note_on_c, 0, 66, 0
1, 3418, Note_on_c, 0, 67, 57
1, 3466, Note_on_c, 0, 67, 0
1, 3466, Note_on_c, 0, 66, 57
1, 3514, Note_on_c, 0, 66, 0
1, 3514, Note_on_c, 0, 64, 61
1, 3514, Note_on_c, 0, 72, 54
1, 3517, Note_on_c, 0, 69, 54
1, 3517, Note_on_c, 0, 38, 0
1, 3664, Note_on_c, 0, 64, 0
1, 3664, Note_on_c, 0, 62, 58
1, 3820, Note_on_c, 0, 62, 0
1, 3820, Note_on_c, 0, 69, 0
1, 3820, Note_on_c, 0, 72, 0
1, 3823, Note_on_c, 0, 60, 61
1, 3823, Note_on_c, 0, 45, 61
1, 3951, Note_on_c, 0, 60, 0
1, 3977, Note_on_c, 0, 62, 57
1, 4108, Note_on_c, 0, 62, 0
1, 4134, Note_on_c, 0, 72, 57
1, 4134, Note_on_c, 0, 69, 57
1, 4134, Note_on_c, 0, 64, 57
1, 4137, Note_on_c, 0, 45, 0
1, 4422, Note_on_c, 0, 64, 0
1, 4422, Note_on_c, 0, 69, 0
1, 4422, Note_on_c, 0, 72, 0
1, 4448, Note_on_c, 0, 64, 61
1, 4448, Control_c, 0, 91, 127
1, 4448, Control_c, 0, 91, 127
1, 4451, Note_on_c, 0, 40, 61
1, 4604, Note_on_c, 0, 64, 0
1, 4604, Note_on_c, 0, 66, 58
1, 4756, Note_on_c, 0, 66, 0
1, 4756, Note_on_c, 0, 68, 58
1, 4756, Note_on_c, 0, 59, 61
1, 4759, Note_on_c, 0, 40, 0
1, 4829, Note_on_c, 0, 68, 0
1, 4901, Note_on_c, 0, 69, 58
1, 4981, Note_on_c, 0, 69, 0
1, 5061, Note_on_c, 0, 59, 0
1, 5061, Note_on_c, 0, 66, 61
1, 5061, Note_on_c, 0, 52, 61
1, 5190, Note_on_c, 0, 66, 0
1, 5215, Note_on_c, 0, 66, 62
1, 5292, Note_on_c, 0, 66, 0
1, 5292, Note_on_c, 0, 68, 65
1, 5368, Note_on_c, 0, 68, 0
1, 5368, Note_on_c, 0, 66, 69
1, 5368, Note_on_c, 0, 62, 61
1, 5371, Note_on_c, 0, 52, 0
1, 5371, Note_on_c, 0, 57, 65
1, 5518, Note_on_c, 0, 62, 0
1, 5518, Note_on_c, 0, 66, 0
1, 5518, Note_on_c, 0, 60, 55
1, 5521, Note_on_c, 0, 64, 64
1, 5640, Note_on_c, 0, 64, 0
1, 5640, Note_on_c, 0, 60, 0
1, 5681, Note_on_c, 0, 66, 69
1, 5681, Note_on_c, 0, 62, 61
1, 5681, Note_on_c, 0, 57, 0
1, 5684, Note_on_c, 0, 40, 61
1, 5836, Note_on_c, 0, 62, 0
1, 5836, Note_on_c, 0, 66, 0
1, 5991, Note_on_c, 0, 62, 72
1, 5991, Note_on_c, 0, 66, 72
1, 5991, Note_on_c, 0, 69, 72
1, 5994, Note_on_c, 0, 40, 0
1, 6152, Note_on_c, 0, 69, 0
1, 6152, Note_on_c, 0, 66, 0
1, 6152, Note_on_c, 0, 62, 0
1, 6313, Note_on_c, 0, 68, 62
1, 6313, Note_on_c, 0, 64, 62
1, 6313, Note_on_c, 0, 59, 68
1, 6316, Note_on_c, 0, 52, 68
1, 6473, Note_on_c, 0, 64, 0
1, 6473, Note_on_c, 0, 68, 0
1, 6473, Note_on_c, 0, 66, 59
1, 6476, Note_on_c, 0, 69, 59
1, 6623, Note_on_c, 0, 69, 0
1, 6623, Note_on_c, 0, 66, 0
1, 6623, Note_on_c, 0, 64, 62
1, 6626, Note_on_c, 0, 68, 62
1, 6783, Note_on_c, 0, 59, 0
1, 6783, Note_on_c, 0, 60, 68
1, 6938, Note_on_c, 0, 60, 0
1, 6938, Note_on_c, 0, 59, 65
1, 7070, Note_on_c, 0, 68, 0
1, 7070, Note_on_c, 0, 64, 0
1, 7096, Note_on_c, 0, 66, 61
1, 7096, Note_on_c, 0, 69, 61
1, 7247, Note_on_c, 0, 69, 0
1, 7247, Note_on_c, 0, 66, 0
1, 7247, Note_on_c, 0, 68, 65
1, 7250, Note_on_c, 0, 71, 65
1, 7406, Note_on_c, 0, 59, 0
1, 7406, Note_on_c, 0, 60, 61
1, 7561, Note_on_c, 0, 60, 0
1, 7561, Note_on_c, 0, 62, 65
1, 7691, Note_on_c, 0, 71, 0
1, 7691, Note_on_c, 0, 68, 0
1, 7717, Note_on_c, 0, 69, 64
1, 7717, Note_on_c, 0, 72, 64
1, 7866, Note_on_c, 0, 72, 0
1, 7866, Note_on_c, 0, 69, 0
1, 7866, Note_on_c, 0, 64, 58
1, 7869, Note_on_c, 0, 68, 58
1, 8022, Note_on_c, 0, 62, 0
1, 8022, Note_on_c, 0, 64, 61
1, 8198, Note_on_c, 0, 68, 0
1, 8198, Note_on_c, 0, 64, 0
1, 8198, Note_on_c, 0, 76, 58
1, 8201, Note_on_c, 0, 79, 58
1, 8201, Note_on_c, 0, 64, 0
1, 8201, Note_on_c, 0, 52, 0
1, 8204, Note_on_c, 0, 69, 54
1, 8204, Note_on_c, 0, 60, 54
1, 8204, Note_on_c, 0, 53, 54
1, 8352, Note_on_c, 0, 79, 0
1, 8352, Note_on_c, 0, 76, 0
1, 8352, Note_on_c, 0, 74, 55
1, 8355, Note_on_c, 0, 77, 55
1, 8428, Note_on_c, 0, 77, 0
1, 8428, Note_on_c, 0, 74, 0
1, 8428, Note_on_c, 0, 76, 55
1, 8431, Note_on_c, 0, 79, 55
1, 8503, Note_on_c, 0, 79, 0
1, 8503, Note_on_c, 0, 76, 0
1, 8503, Note_on_c, 0, 74, 58
1, 8506, Note_on_c, 0, 77, 58
1, 8658, Note_on_c, 0, 77, 0
1, 8658, Note_on_c, 0, 74, 0
1, 8658, Note_on_c, 0, 72, 54
1, 8661, Note_on_c, 0, 76, 54
1, 8811, Note_on_c, 0, 76, 0
1, 8811, Note_on_c, 0, 72, 0
1, 8811, Note_on_c, 0, 74, 58
1, 8814, Note_on_c, 0, 70, 58
1, 8814, Note_on_c, 0, 53, 0
1, 8814, Note_on_c, 0, 60, 0
1, 8817, Note_on_c, 0, 69, 0
1, 8817, Note_on_c, 0, 65, 45
1, 8817, Note_on_c, 0, 62, 45
1, 8820, Note_on_c, 0, 55, 45
1, 8965, Note_on_c, 0, 70, 0
1, 8965, Note_on_c, 0, 74, 0
1, 8965, Note_on_c, 0, 69, 55
1, 8968, Note_on_c, 0, 72, 55
1, 9124, Note_on_c, 0, 72, 0
1, 9124, Note_on_c, 0, 69, 0
1, 9124, Note_on_c, 0, 70, 57
1, 9127, Note_on_c, 0, 74, 57
1, 9434, Note_on_c, 0, 55, 0
1, 9434, Note_on_c, 0, 62, 0
1, 9434, Note_on_c, 0, 65, 0
1, 9437, Note_on_c, 0, 48, 50
1, 9437, Note_on_c, 0, 55, 50
1, 9437, Note_on_c, 0, 64, 50
1, 9589, Note_on_c, 0, 74, 0
1, 9589, Note_on_c, 0, 70, 0
1, 9589, Note_on_c, 0, 69, 54
1, 9592, Note_on_c, 0, 72, 54
1, 9664, Note_on_c, 0, 72, 0
1, 9664, Note_on_c, 0, 69, 0
1, 9664, Note_on_c, 0, 70, 54
1, 9667, Note_on_c, 0, 74, 54
1, 9739, Note_on_c, 0, 74, 0
1, 9739, Note_on_c, 0, 70, 0
1, 9739, Note_on_c, 0, 72, 57
1, 9742, Note_on_c, 0, 69, 57
1, 9894, Note_on_c, 0, 69, 0
1, 9894, Note_on_c, 0, 72, 0
1, 9894, Note_on_c, 0, 70, 54
1, 9897, Note_on_c, 0, 67, 54
1, 10049, Note_on_c, 0, 67, 0
1, 10049, Note_on_c, 0, 70, 0
1, 10049, Note_on_c, 0, 65, 57
1, 10052, Note_on_c, 0, 69, 57
1, 10052, Note_on_c, 0, 64, 0
1, 10052, Note_on_c, 0, 55, 0
1, 10055, Note_on_c, 0, 48, 0
1, 10055, Note_on_c, 0, 53, 47
1, 10055, Note_on_c, 0, 57, 47
1, 10058, Note_on_c, 0, 60, 47
1, 10205, Note_on_c, 0, 69, 0
1, 10205, Note_on_c, 0, 65, 0
1, 10205, Note_on_c, 0, 64, 55
1, 10208, Note_on_c, 0, 67, 55
1, 10364, Note_on_c, 0, 67, 0
1, 10364, Note_on_c, 0, 64, 0
1, 10364, Note_on_c, 0, 65, 55
1, 10367, Note_on_c, 0, 69, 55
1, 10367, Note_on_c, 0, 60, 0
1, 10367, Note_on_c, 0, 57, 0
1, 10370, Note_on_c, 0, 53, 0
1, 10370, Note_on_c, 0, 50, 45
1, 10370, Note_on_c, 0, 57, 45
1, 10373, Note_on_c, 0, 62, 45
1, 10649, Note_on_c, 0, 69, 0
1, 10649, Note_on_c, 0, 65, 0
1, 10649, Note_on_c, 0, 62, 0
1, 10652, Note_on_c, 0, 57, 0
1, 10652, Note_on_c, 0, 50, 0
1, 10675, Note_on_c, 0, 69, 61
1, 10675, Note_on_c, 0, 76, 65
1, 10675, Note_on_c, 0, 79, 65
1, 10678, Note_on_c, 0, 41, 61
1, 10678, Note_on_c, 0, 57, 61
1, 10678, Note_on_c, 0, 48, 61
1, 10827, Note_on_c, 0, 79, 0
1, 10827, Note_on_c, 0, 76, 0
1, 10827, Note_on_c, 0, 74, 62
1, 10830, Note_on_c, 0, 77, 62
1, 10901, Note_on_c, 0, 77, 0
1, 10901, Note_on_c, 0, 74, 0
1, 10901, Note_on_c, 0, 76, 62
1, 10904, Note_on_c, 0, 79, 62
1, 10976, Note_on_c, 0, 79, 0
1, 10976, Note_on_c, 0, 76, 0
1, 10976, Note_on_c, 0, 74, 65
1, 10979, Note_on_c, 0, 77, 65
1, 11131, Note_on_c, 0, 77, 0
1, 11131, Note_on_c, 0, 74, 0
1, 11131, Note_on_c, 0, 72, 61
1, 11134, Note_on_c, 0, 76, 61
1, 11281, Note_on_c, 0, 76, 0
1, 11281, Note_on_c, 0, 72, 0
1, 11281, Note_on_c, 0, 69, 0
1, 11284, Note_on_c, 0, 65, 51
1, 11284, Note_on_c, 0, 70, 65
1, 11284, Note_on_c, 0, 74, 65
1, 11287, Note_on_c, 0, 48, 0
1, 11287, Note_on_c, 0, 57, 0
1, 11287, Note_on_c, 0, 41, 0
1, 11290, Note_on_c, 0, 43, 51
1, 11290, Note_on_c, 0, 58, 51
1, 11290, Note_on_c, 0, 50, 51
1, 11436, Note_on_c, 0, 74, 0
1, 11436, Note_on_c, 0, 70, 0
1, 11436, Note_on_c, 0, 69, 62
1, 11439, Note_on_c, 0, 72, 62
1, 11594, Note_on_c, 0, 72, 0
1, 11594, Note_on_c, 0, 69, 0
1, 11594, Note_on_c, 0, 70, 64
1, 11597, Note_on_c, 0, 74, 64
1, 11902, Note_on_c, 0, 65, 0
1, 11902, Note_on_c, 0, 64, 55
1, 11902, Note_on_c, 0, 50, 0
1, 11905, Note_on_c, 0, 58, 0
1, 11905, Note_on_c, 0, 43, 0
1, 11905, Note_on_c, 0, 48, 55
1, 11908, Note_on_c, 0, 55, 55
1, 11908, Note_on_c, 0, 60, 55
1, 12055, Note_on_c, 0, 74, 0
1, 12055, Note_on_c, 0, 70, 0
1, 12055, Note_on_c, 0, 69, 59
1, 12058, Note_on_c, 0, 72, 59
1, 12131, Note_on_c, 0, 72, 0
1, 12131, Note_on_c, 0, 69, 0
1, 12131, Note_on_c, 0, 70, 59
1, 12134, Note_on_c, 0, 74, 59
1, 12206, Note_on_c, 0, 74, 0
1, 12206, Note_on_c, 0, 70, 0
1, 12206, Note_on_c, 0, 72, 62
1, 12209, Note_on_c, 0, 69, 62
1, 12361, Note_on_c, 0, 69, 0
1, 12361, Note_on_c, 0, 72, 0
1, 12361, Note_on_c, 0, 70, 58
1, 12364, Note_on_c, 0, 67, 58
1, 12516, Note_on_c, 0, 67, 0
1, 12516, Note_on_c, 0, 70, 0
1, 12516, Note_on_c, 0, 64, 0
1, 12519, Note_on_c, 0, 65, 59
1, 12519, Note_on_c, 0, 69, 59
1, 12519, Note_on_c, 0, 60, 0
1, 12522, Note_on_c, 0, 55, 0
1, 12522, Note_on_c, 0, 48, 0
1, 12522, Note_on_c, 0, 53, 50
1, 12525, Note_on_c, 0, 60, 50
1, 12674, Note_on_c, 0, 69, 0
1, 12674, Note_on_c, 0, 65, 0
1, 12674, Note_on_c, 0, 64, 58
1, 12677, Note_on_c, 0, 67, 58
1, 12835, Note_on_c, 0, 67, 0
1, 12835, Note_on_c, 0, 64, 0
1, 12835, Note_on_c, 0, 65, 62
1, 12838, Note_on_c, 0, 69, 62
1, 12991, Note_on_c, 0, 60, 0
1, 12991, Note_on_c, 0, 53, 0
1, 12991, Note_on_c, 0, 52, 55
1, 13142, Note_on_c, 0, 52, 0
1, 13142, Note_on_c, 0, 50, 58
1, 13142, Note_on_c, 0, 53, 58
1, 13297, Note_on_c, 0, 69, 0
1, 13297, Note_on_c, 0, 67, 61
1, 13455, Note_on_c, 0, 67, 0
1, 13455, Note_on_c, 0, 69, 62
1, 13611, Note_on_c, 0, 65, 0
1, 13611, Note_on_c, 0, 64, 59
1, 13611, Note_on_c, 0, 50, 0
1, 13614, Note_on_c, 0, 48, 58
1, 13763, Note_on_c, 0, 64, 0
1, 13763, Note_on_c, 0, 62, 59
1, 13763, Note_on_c, 0, 48, 0
1, 13766, Note_on_c, 0, 53, 0
1, 13766, Note_on_c, 0, 53, 61
1, 13766, Note_on_c, 0, 47, 61
1, 13918, Note_on_c, 0, 69, 0
1, 13918, Note_on_c, 0, 67, 59
1, 14070, Note_on_c, 0, 67, 0
1, 14070, Note_on_c, 0, 69, 62
1, 14225, Note_on_c, 0, 47, 0
1, 14225, Note_on_c, 0, 45, 64
1, 14377, Note_on_c, 0, 45, 0
1, 14377, Note_on_c, 0, 43, 68
1, 14529, Note_on_c, 0, 69, 0
1, 14529, Note_on_c, 0, 71, 66
1, 14684, Note_on_c, 0, 71, 0
1, 14684, Note_on_c, 0, 74, 70
1, 14836, Note_on_c, 0, 74, 0
1, 14836, Note_on_c, 0, 71, 66
1, 14836, Note_on_c, 0, 43, 0
1, 14839, Note_on_c, 0, 45, 72
1, 14985, Note_on_c, 0, 71, 0
1, 14985, Note_on_c, 0, 69, 64
1, 14985, Note_on_c, 0, 45, 0
1, 14988, Note_on_c, 0, 47, 77
1, 15136, Note_on_c, 0, 69, 0
1, 15136, Note_on_c, 0, 71, 62
1, 15288, Note_on_c, 0, 71, 0
1, 15288, Note_on_c, 0, 64, 64
1, 15288, Note_on_c, 0, 53, 0
1, 15291, Note_on_c, 0, 55, 61
1, 15440, Note_on_c, 0, 64, 0
1, 15440, Note_on_c, 0, 67, 62
1, 15440, Note_on_c, 0, 55, 0
1, 15443, Note_on_c, 0, 52, 61
1, 15596, Note_on_c, 0, 67, 0
1, 15596, Note_on_c, 0, 62, 0
1, 15596, Note_on_c, 0, 62, 66
1, 15599, Note_on_c, 0, 69, 66
1, 15599, Note_on_c, 0, 52, 0
1, 15599, Note_on_c, 0, 47, 0
1, 15602, Note_on_c, 0, 47, 66
1, 15602, Note_on_c, 0, 53, 66
1, 15750, Note_on_c, 0, 69, 0
1, 15750, Note_on_c, 0, 67, 62
1, 15904, Note_on_c, 0, 67, 0
1, 15904, Note_on_c, 0, 69, 66
1, 16058, Note_on_c, 0, 47, 0
1, 16058, Note_on_c, 0, 45, 62
1, 16209, Note_on_c, 0, 45, 0
1, 16209, Note_on_c, 0, 43, 68
1, 16360, Note_on_c, 0, 69, 0
1, 16360, Note_on_c, 0, 71, 68
1, 16515, Note_on_c, 0, 71, 0
1, 16515, Note_on_c, 0, 74, 70
1, 16666, Note_on_c, 0, 74, 0
1, 16666, Note_on_c, 0, 71, 66
1, 16666, Note_on_c, 0, 43, 0
1, 16669, Note_on_c, 0, 45, 69
1, 16814, Note_on_c, 0, 71, 0
1, 16814, Note_on_c, 0, 69, 69
1, 16814, Note_on_c, 0, 45, 0
1, 16817, Note_on_c, 0, 47, 76
1, 16966, Note_on_c, 0, 69, 0
1, 16966, Note_on_c, 0, 71, 64
1, 17117, Note_on_c, 0, 71, 0
1, 17117, Note_on_c, 0, 69, 62
1, 17269, Note_on_c, 0, 69, 0
1, 17269, Note_on_c, 0, 65, 61
1, 17269, Note_on_c, 0, 53, 0
1, 17272, Note_on_c, 0, 55, 66
1, 17425, Note_on_c, 0, 65, 0
1, 17425, Note_on_c, 0, 62, 0
1, 17425, Note_on_c, 0, 64, 51
1, 17428, Note_on_c, 0, 60, 51
1, 17428, Note_on_c, 0, 55, 0
1, 17428, Note_on_c, 0, 47, 0
1, 17431, Note_on_c, 0, 56, 58
1, 17431, Note_on_c, 0, 48, 58
1, 17580, Note_on_c, 0, 56, 0
1, 17580, Note_on_c, 0, 54, 55
1, 17734, Note_on_c, 0, 54, 0
1, 17734, Note_on_c, 0, 52, 55
1, 17888, Note_on_c, 0, 52, 0
1, 17888, Note_on_c, 0, 54, 55
1, 18041, Note_on_c, 0, 54, 0
1, 18041, Note_on_c, 0, 56, 59
1, 18193, Note_on_c, 0, 57, 57
1, 18193, Note_on_c, 0, 56, 0
1, 18250, Note_on_c, 0, 57, 0
1, 18344, Note_on_c, 0, 59, 57
1, 18401, Note_on_c, 0, 59, 0
1, 18495, Note_on_c, 0, 60, 57
1, 18551, Note_on_c, 0, 60, 0
1, 18644, Note_on_c, 0, 62, 59
1, 18700, Note_on_c, 0, 62, 0
1, 18793, Note_on_c, 0, 64, 54
1, 18849, Note_on_c, 0, 64, 0
1, 18942, Note_on_c, 0, 66, 54
1, 18998, Note_on_c, 0, 66, 0
1, 19091, Note_on_c, 0, 68, 54
1, 19149, Note_on_c, 0, 68, 0
1, 19247, Note_on_c, 0, 60, 0
1, 19247, Note_on_c, 0, 64, 0
1, 19247, Note_on_c, 0, 62, 52
1, 19250, Note_on_c, 0, 64, 52
1, 19250, Note_on_c, 0, 48, 0
1, 19250, Note_on_c, 0, 47, 57
1, 19253, Note_on_c, 0, 56, 57
1, 19402, Note_on_c, 0, 56, 0
1, 19402, Note_on_c, 0, 54, 52
1, 19558, Note_on_c, 0, 54, 0
1, 19558, Note_on_c, 0, 52, 52
1, 19714, Note_on_c, 0, 52, 0
1, 19714, Note_on_c, 0, 54, 52
1, 19870, Note_on_c, 0, 54, 0
1, 19870, Note_on_c, 0, 56, 57
1, 20025, Note_on_c, 0, 57, 52
1, 20025, Note_on_c, 0, 56, 0
1, 20084, Note_on_c, 0, 57, 0
1, 20181, Note_on_c, 0, 59, 52
1, 20239, Note_on_c, 0, 59, 0
1, 20336, Note_on_c, 0, 60, 52
1, 20394, Note_on_c, 0, 60, 0
1, 20493, Note_on_c, 0, 62, 57
1, 20552, Note_on_c, 0, 62, 0
1, 20651, Note_on_c, 0, 64, 50
1, 20711, Note_on_c, 0, 64, 0
1, 20812, Note_on_c, 0, 66, 49
1, 20872, Note_on_c, 0, 66, 0
1, 20974, Note_on_c, 0, 68, 45
1, 21043, Note_on_c, 0, 68, 0
1, 21155, Note_on_c, 0, 64, 0
1, 21155, Note_on_c, 0, 62, 0
1, 21155, Note_on_c, 0, 57, 57
1, 21158, Control_c, 0, 91, 127
1, 21158, Note_on_c, 0, 47, 0
1, 21158, Control_c, 0, 91, 127
1, 21161, Note_on_c, 0, 38, 57
1, 21194, Note_on_c, 0, 57, 0
1, 21194, Note_on_c, 0, 38, 0
1, 21311, Note_on_c, 0, 59, 54
1, 21348, Note_on_c, 0, 59, 0
1, 21460, Note_on_c, 0, 65, 51
1, 21460, Note_on_c, 0, 69, 51
1, 21460, Note_on_c, 0, 60, 57
1, 21463, Note_on_c, 0, 45, 51
1, 21463, Note_on_c, 0, 53, 51
1, 21497, Note_on_c, 0, 60, 0
1, 21497, Note_on_c, 0, 69, 0
1, 21497, Note_on_c, 0, 65, 0
1, 21500, Note_on_c, 0, 53, 0
1, 21500, Note_on_c, 0, 45, 0
1, 21608, Note_on_c, 0, 62, 54
1, 21648, Note_on_c, 0, 62, 0
1, 21768, Note_on_c, 0, 59, 57
1, 21768, Note_on_c, 0, 38, 57
1, 21896, Note_on_c, 0, 59, 0
1, 21921, Note_on_c, 0, 59, 52
1, 21921, Note_on_c, 0, 38, 0
1, 21996, Note_on_c, 0, 59, 0
1, 21996, Note_on_c, 0, 60, 52
1, 22070, Note_on_c, 0, 60, 0
1, 22070, Note_on_c, 0, 69, 51
1, 22070, Note_on_c, 0, 65, 51
1, 22073, Note_on_c, 0, 59, 54
1, 22073, Note_on_c, 0, 53, 51
1, 22073, Note_on_c, 0, 45, 51
1, 22106, Note_on_c, 0, 45, 0
1, 22106, Note_on_c, 0, 53, 0
1, 22214, Note_on_c, 0, 59, 0
1, 22214, Note_on_c, 0, 65, 0
1, 22214, Note_on_c, 0, 69, 0
1, 22217, Note_on_c, 0, 57, 54
1, 22333, Note_on_c, 0, 57, 0
1, 22373, Note_on_c, 0, 59, 57
1, 22373, Note_on_c, 0, 38, 57
1, 22430, Note_on_c, 0, 59, 0
1, 22525, Note_on_c, 0, 38, 0
1, 22677, Note_on_c, 0, 65, 51
1, 22677, Note_on_c, 0, 69, 51
1, 22677, Note_on_c, 0, 60, 51
1, 22680, Note_on_c, 0, 53, 57
1, 22680, Note_on_c, 0, 45, 57
1, 22717, Note_on_c, 0, 45, 0
1, 22717, Note_on_c, 0, 53, 0
1, 22798, Note_on_c, 0, 60, 0
1, 22798, Note_on_c, 0, 69, 0
1, 22798, Note_on_c, 0, 65, 0
1, 22999, Note_on_c, 0, 59, 57
1, 22999, Note_on_c, 0, 38, 57
1, 23038, Note_on_c, 0, 38, 0
1, 23154, Note_on_c, 0, 59, 0
1, 23154, Note_on_c, 0, 60, 54
1, 23304, Note_on_c, 0, 60, 0
1, 23304, Note_on_c, 0, 72, 51
1, 23304, Note_on_c, 0, 69, 51
1, 23307, Note_on_c, 0, 62, 57
1, 23307, Note_on_c, 0, 54, 51
1, 23307, Note_on_c, 0, 45, 51
1, 23341, Note_on_c, 0, 45, 0
1, 23341, Note_on_c, 0, 54, 0
1, 23378, Note_on_c, 0, 62, 0
1, 23452, Note_on_c, 0, 64, 54
1, 23526, Note_on_c, 0, 64, 0
1, 23600, Note_on_c, 0, 69, 0
1, 23600, Note_on_c, 0, 72, 0
1, 23600, Note_on_c, 0, 66, 57
1, 23603, Note_on_c, 0, 38, 57
1, 23674, Note_on_c, 0, 66, 0
1, 23748, Note_on_c, 0, 66, 54
1, 23748, Note_on_c, 0, 38, 0
1, 23797, Note_on_c, 0, 66, 0
1, 23797, Note_on_c, 0, 67, 52
1, 23845, Note_on_c, 0, 67, 0
1, 23845, Note_on_c, 0, 66, 52
1, 23893, Note_on_c, 0, 66, 0
1, 23893, Note_on_c, 0, 72, 50
1, 23893, Note_on_c, 0, 69, 50
1, 23896, Note_on_c, 0, 64, 57
1, 23896, Note_on_c, 0, 54, 51
1, 23896, Note_on_c, 0, 45, 51
1, 23930, Note_on_c, 0, 45, 0
1, 23930, Note_on_c, 0, 54, 0
1, 24041, Note_on_c, 0, 64, 0
1, 24041, Note_on_c, 0, 62, 54
1, 24194, Note_on_c, 0, 62, 0
1, 24194, Note_on_c, 0, 69, 0
1, 24194, Note_on_c, 0, 72, 0
1, 24197, Note_on_c, 0, 60, 57
1, 24197, Note_on_c, 0, 38, 57
1, 24321, Note_on_c, 0, 60, 0
1, 24346, Note_on_c, 0, 62, 52
1, 24346, Note_on_c, 0, 38, 0
1, 24472, Note_on_c, 0, 62, 0
1, 24498, Note_on_c, 0, 64, 52
1, 24498, Note_on_c, 0, 72, 52
1, 24498, Note_on_c, 0, 69, 52
1, 24501, Note_on_c, 0, 54, 51
1, 24501, Note_on_c, 0, 45, 51
1, 24537, Note_on_c, 0, 45, 0
1, 24537, Note_on_c, 0, 54, 0
1, 24811, Note_on_c, 0, 69, 0
1, 24811, Note_on_c, 0, 72, 0
1, 24811, Note_on_c, 0, 64, 0
1, 24814, Note_on_c, 0, 69, 57
1, 24814, Control_c, 0, 91, 127
1, 24814, Control_c, 0, 91, 127
1, 24817, Note_on_c, 0, 38, 57
1, 24850, Note_on_c, 0, 69, 0
1, 24850, Note_on_c, 0, 38, 0
1, 24967, Note_on_c, 0, 71, 54
1, 25004, Note_on_c, 0, 71, 0
1, 25117, Note_on_c, 0, 65, 51
1, 25117, Note_on_c, 0, 62, 51
1, 25117, Note_on_c, 0, 72, 57
1, 25120, Note_on_c, 0, 45, 51
1, 25120, Note_on_c, 0, 53, 51
1, 25154, Note_on_c, 0, 72, 0
1, 25154, Note_on_c, 0, 62, 0
1, 25154, Note_on_c, 0, 65, 0
1, 25157, Note_on_c, 0, 53, 0
1, 25157, Note_on_c, 0, 45, 0
1, 25265, Note_on_c, 0, 74, 55
1, 25305, Note_on_c, 0, 74, 0
1, 25425, Note_on_c, 0, 71, 58
1, 25425, Note_on_c, 0, 38, 58
1, 25552, Note_on_c, 0, 71, 0
1, 25578, Note_on_c, 0, 71, 55
1, 25578, Note_on_c, 0, 38, 0
1, 25652, Note_on_c, 0, 71, 0
1, 25652, Note_on_c, 0, 72, 55
1, 25726, Note_on_c, 0, 72, 0
1, 25726, Note_on_c, 0, 62, 54
1, 25726, Note_on_c, 0, 65, 54
1, 25729, Note_on_c, 0, 71, 57
1, 25729, Note_on_c, 0, 53, 54
1, 25729, Note_on_c, 0, 45, 54
1, 25762, Note_on_c, 0, 45, 0
1, 25762, Note_on_c, 0, 53, 0
1, 25871, Note_on_c, 0, 71, 0
1, 25871, Note_on_c, 0, 65, 0
1, 25871, Note_on_c, 0, 62, 0
1, 25874, Note_on_c, 0, 69, 57
1, 25990, Note_on_c, 0, 69, 0
1, 26030, Note_on_c, 0, 71, 61
1, 26030, Note_on_c, 0, 38, 61
1, 26087, Note_on_c, 0, 71, 0
1, 26181, Note_on_c, 0, 38, 0
1, 26333, Note_on_c, 0, 65, 55
1, 26333, Note_on_c, 0, 62, 55
1, 26333, Note_on_c, 0, 72, 55
1, 26336, Note_on_c, 0, 53, 62
1, 26336, Note_on_c, 0, 45, 62
1, 26373, Note_on_c, 0, 45, 0
1, 26373, Note_on_c, 0, 53, 0
1, 26454, Note_on_c, 0, 72, 0
1, 26454, Note_on_c, 0, 62, 0
1, 26454, Note_on_c, 0, 65, 0
1, 26655, Note_on_c, 0, 71, 64
1, 26655, Note_on_c, 0, 38, 64
1, 26694, Note_on_c, 0, 38, 0
1, 26810, Note_on_c, 0, 71, 0
1, 26810, Note_on_c, 0, 72, 61
1, 26961, Note_on_c, 0, 72, 0
1, 26961, Note_on_c, 0, 72, 57
1, 26961, Note_on_c, 0, 69, 57
1, 26964, Note_on_c, 0, 74, 66
1, 26964, Note_on_c, 0, 62, 64
1, 27035, Note_on_c, 0, 74, 0
1, 27035, Note_on_c, 0, 62, 0
1, 27109, Note_on_c, 0, 76, 64
1, 27109, Note_on_c, 0, 64, 61
1, 27183, Note_on_c, 0, 76, 0
1, 27183, Note_on_c, 0, 64, 0
1, 27257, Note_on_c, 0, 69, 0
1, 27257, Note_on_c, 0, 72, 0
1, 27257, Note_on_c, 0, 78, 66
1, 27260, Note_on_c, 0, 66, 64
1, 27331, Note_on_c, 0, 78, 0
1, 27331, Note_on_c, 0, 66, 0
1, 27405, Note_on_c, 0, 78, 61
1, 27405, Note_on_c, 0, 66, 61
1, 27452, Note_on_c, 0, 78, 0
1, 27452, Note_on_c, 0, 79, 61
1, 27452, Note_on_c, 0, 66, 0
1, 27455, Note_on_c, 0, 67, 59
1, 27500, Note_on_c, 0, 79, 0
1, 27500, Note_on_c, 0, 78, 61
1, 27500, Note_on_c, 0, 67, 0
1, 27503, Note_on_c, 0, 66, 59
1, 27548, Note_on_c, 0, 78, 0
1, 27548, Note_on_c, 0, 76, 66
1, 27548, Note_on_c, 0, 66, 0
1, 27551, Note_on_c, 0, 64, 64
1, 27698, Note_on_c, 0, 76, 0
1, 27698, Note_on_c, 0, 74, 64
1, 27698, Note_on_c, 0, 64, 0
1, 27701, Note_on_c, 0, 62, 61
1, 27855, Note_on_c, 0, 74, 0
1, 27855, Note_on_c, 0, 72, 66
1, 27855, Note_on_c, 0, 62, 0
1, 27858, Note_on_c, 0, 60, 64
1, 28007, Note_on_c, 0, 72, 0
1, 28007, Note_on_c, 0, 74, 61
1, 28007, Note_on_c, 0, 60, 0
1, 28010, Note_on_c, 0, 62, 59
1, 28167, Note_on_c, 0, 74, 0
1, 28167, Note_on_c, 0, 76, 61
1, 28167, Note_on_c, 0, 62, 0
1, 28170, Note_on_c, 0, 64, 59
1, 28481, Note_on_c, 0, 69, 58
1, 28481, Note_on_c, 0, 72, 64
1, 28481, Note_on_c, 0, 57, 58
1, 28484, Note_on_c, 0, 60, 64
1, 28632, Note_on_c, 0, 72, 0
1, 28632, Note_on_c, 0, 69, 0
1, 28632, Note_on_c, 0, 74, 61
1, 28635, Note_on_c, 0, 60, 0
1, 28635, Note_on_c, 0, 57, 0
1, 28635, Note_on_c, 0, 62, 59
1, 28786, Note_on_c, 0, 74, 0
1, 28786, Note_on_c, 0, 76, 0
1, 28786, Note_on_c, 0, 67, 52
1, 28789, Note_on_c, 0, 71, 52
1, 28789, Note_on_c, 0, 76, 61
1, 28789, Note_on_c, 0, 62, 0
1, 28792, Note_on_c, 0, 64, 0
1, 28792, Note_on_c, 0, 55, 52
1, 28792, Note_on_c, 0, 59, 52
1, 28795, Note_on_c, 0, 64, 59
1, 29066, Note_on_c, 0, 76, 0
1, 29066, Note_on_c, 0, 71, 0
1, 29066, Note_on_c, 0, 67, 0
1, 29069, Note_on_c, 0, 64, 0
1, 29069, Note_on_c, 0, 59, 0
1, 29069, Note_on_c, 0, 55, 0
1, 29091, Note_on_c, 0, 66, 52
1, 29091, Note_on_c, 0, 69, 59
1, 29091, Note_on_c, 0, 54, 52
1, 29094, Note_on_c, 0, 57, 57
1, 29243, Note_on_c, 0, 69, 0
1, 29243, Note_on_c, 0, 71, 58
1, 29243, Note_on_c, 0, 57, 0
1, 29246, Note_on_c, 0, 59, 55
1, 29401, Note_on_c, 0, 71, 0
1, 29401, Note_on_c, 0, 66, 0
1, 29401, Note_on_c, 0, 65, 51
1, 29404, Note_on_c, 0, 68, 51
1, 29404, Note_on_c, 0, 72, 59
1, 29404, Note_on_c, 0, 59, 0
1, 29407, Note_on_c, 0, 54, 0
1, 29407, Note_on_c, 0, 53, 51
1, 29407, Note_on_c, 0, 56, 51
1, 29410, Note_on_c, 0, 60, 57
1, 29710, Note_on_c, 0, 68, 0
1, 29710, Note_on_c, 0, 65, 0
1, 29710, Note_on_c, 0, 64, 50
1, 29713, Note_on_c, 0, 67, 50
1, 29713, Note_on_c, 0, 56, 0
1, 29713, Note_on_c, 0, 53, 0
1, 29716, Note_on_c, 0, 52, 51
1, 29716, Note_on_c, 0, 55, 51
1, 29949, Note_on_c, 0, 67, 0
1, 29949, Note_on_c, 0, 64, 0
1, 29949, Note_on_c, 0, 55, 0
1, 29952, Note_on_c, 0, 52, 0
1, 30002, Note_on_c, 0, 72, 0
1, 30002, Note_on_c, 0, 60, 0
1, 30028, Note_on_c, 0, 68, 49
1, 30028, Note_on_c, 0, 63, 45
1, 30028, Note_on_c, 0, 66, 45
1, 30031, Note_on_c, 0, 51, 45
1, 30031, Note_on_c, 0, 54, 45
1, 30031, Note_on_c, 0, 56, 50
1, 30338, Note_on_c, 0, 66, 0
1, 30338, Note_on_c, 0, 63, 0
1, 30338, Note_on_c, 0, 65, 42
1, 30341, Note_on_c, 0, 62, 42
1, 30341, Note_on_c, 0, 54, 0
1, 30341, Note_on_c, 0, 51, 0
1, 30344, Note_on_c, 0, 50, 44
1, 30344, Note_on_c, 0, 53, 44
1, 30570, Note_on_c, 0, 62, 0
1, 30570, Note_on_c, 0, 65, 0
1, 30570, Note_on_c, 0, 53, 0
1, 30573, Note_on_c, 0, 50, 0
1, 30647, Note_on_c, 0, 68, 0
1, 30647, Note_on_c, 0, 64, 43
1, 30647, Note_on_c, 0, 61, 43
1, 30650, Note_on_c, 0, 56, 0
1, 30650, Note_on_c, 0, 52, 44
1, 30650, Note_on_c, 0, 49, 44
1, 30767, Note_on_c, 0, 61, 0
1, 30767, Note_on_c, 0, 49, 0
1, 30968, Note_on_c, 0, 60, 43
1, 30968, Note_on_c, 0, 48, 44
1, 31090, Note_on_c, 0, 60, 0
1, 31090, Note_on_c, 0, 48, 0
1, 31295, Note_on_c, 0, 59, 42
1, 31295, Note_on_c, 0, 47, 43
1, 31419, Note_on_c, 0, 59, 0
1, 31419, Note_on_c, 0, 47, 0
1, 31627, Note_on_c, 0, 62, 42
1, 31627, Note_on_c, 0, 58, 42
1, 31627, Note_on_c, 0, 46, 42
1, 31630, Note_on_c, 0, 50, 42
1, 31768, Note_on_c, 0, 58, 0
1, 31768, Note_on_c, 0, 62, 0
1, 31768, Note_on_c, 0, 50, 0
1, 31771, Note_on_c, 0, 46, 0
1, 32003, Note_on_c, 0, 40, 49
1, 32168, Note_on_c, 0, 40, 0
1, 32443, Note_on_c, 0, 64, 0
1, 32443, Note_on_c, 0, 52, 0
1, 32443, Note_on_c, 0, 33, 45
1, 32785, Note_on_c, 0, 33, 0
1, 32823, Note_on_c, 0, 60, 58
1, 32823, Note_on_c, 0, 64, 58
1, 32823, Note_on_c, 0, 69, 58
1, 32826, Note_on_c, 0, 57, 57
1, 32898, Note_on_c, 0, 69, 0
1, 32898, Note_on_c, 0, 64, 0
1, 32898, Note_on_c, 0, 60, 0
1, 32901, Note_on_c, 0, 57, 0
1, 32974, Note_on_c, 0, 59, 51
1, 32974, Note_on_c, 0, 62, 51
1, 32974, Note_on_c, 0, 64, 51
1, 32977, Note_on_c, 0, 52, 50
1, 33047, Note_on_c, 0, 64, 0
1, 33047, Note_on_c, 0, 62, 0
1, 33047, Note_on_c, 0, 59, 0
1, 33050, Note_on_c, 0, 52, 0
1, 33120, Note_on_c, 0, 59, 51
1, 33120, Note_on_c, 0, 62, 51
1, 33120, Note_on_c, 0, 64, 51
1, 33123, Note_on_c, 0, 52, 50
1, 33175, Note_on_c, 0, 64, 0
1, 33175, Note_on_c, 0, 62, 0
1, 33175, Note_on_c, 0, 59, 0
1, 33178, Note_on_c, 0, 52, 0
1, 33266, Note_on_c, 0, 60, 51
1, 33266, Note_on_c, 0, 64, 51
1, 33266, Note_on_c, 0, 69, 51
1, 33269, Note_on_c, 0, 57, 50
1, 33340, Note_on_c, 0, 69, 0
1, 33340, Note_on_c, 0, 64, 0
1, 33340, Note_on_c, 0, 60, 0
1, 33343, Note_on_c, 0, 57, 0
1, 33415, Note_on_c, 0, 60, 57
1, 33415, Note_on_c, 0, 64, 57
1, 33415, Note_on_c, 0, 69, 57
1, 33418, Note_on_c, 0, 57, 57
1, 33489, Note_on_c, 0, 69, 0
1, 33489, Note_on_c, 0, 64, 0
1, 33489, Note_on_c, 0, 60, 0
1, 33492, Note_on_c, 0, 57, 0
1, 33564, Note_on_c, 0, 64, 57
1, 33564, Note_on_c, 0, 59, 57
1, 33564, Note_on_c, 0, 62, 57
1, 33567, Note_on_c, 0, 52, 57
1, 33636, Note_on_c, 0, 62, 0
1, 33636, Note_on_c, 0, 59, 0
1, 33636, Note_on_c, 0, 64, 0
1, 33639, Note_on_c, 0, 52, 0
1, 33709, Note_on_c, 0, 59, 52
1, 33709, Note_on_c, 0, 64, 52
1, 33709, Note_on_c, 0, 62, 52
1, 33712, Note_on_c, 0, 52, 51
1, 33764, Note_on_c, 0, 62, 0
1, 33764, Note_on_c, 0, 64, 0
1, 33764, Note_on_c, 0, 59, 0
1, 33767, Note_on_c, 0, 52, 0
1, 33857, Note_on_c, 0, 60, 55
1, 33857, Note_on_c, 0, 64, 55
1, 33857, Note_on_c, 0, 69, 55
1, 33860, Note_on_c, 0, 45, 54
1, 33934, Note_on_c, 0, 69, 0
1, 33934, Note_on_c, 0, 64, 0
1, 33934, Note_on_c, 0, 60, 0
1, 33937, Note_on_c, 0, 45, 0
1, 34010, Note_on_c, 0, 62, 62
1, 34010, Note_on_c, 0, 67, 62
1, 34010, Note_on_c, 0, 71, 62
1, 34013, Note_on_c, 0, 40, 62
1, 34072, Note_on_c, 0, 71, 0
1, 34072, Note_on_c, 0, 67, 0
1, 34072, Note_on_c, 0, 62, 0
1, 34075, Note_on_c, 0, 40, 0
1, 34337, Note_on_c, 0, 81, 84
1, 34337, Note_on_c, 0, 69, 84
1, 34337, Note_on_c, 0, 33, 84
1, 34632, Note_on_c, 0, 69, 0
1, 34632, Note_on_c, 0, 81, 0
1, 34632, Note_on_c, 0, 33, 0
1, 34645, Note_on_c, 0, 60, 58
1, 34645, Note_on_c, 0, 64, 58
1, 34645, Note_on_c, 0, 69, 58
1, 34648, Note_on_c, 0, 57, 57
1, 34719, Note_on_c, 0, 69, 0
1, 34719, Note_on_c, 0, 64, 0
1, 34719, Note_on_c, 0, 60, 0
1, 34722, Note_on_c, 0, 57, 0
1, 34794, Note_on_c, 0, 59, 51
1, 34794, Note_on_c, 0, 62, 51
1, 34794, Note_on_c, 0, 64, 51
1, 34797, Note_on_c, 0, 52, 50
1, 34865, Note_on_c, 0, 64, 0
1, 34865, Note_on_c, 0, 62, 0
1, 34865, Note_on_c, 0, 59, 0
1, 34868, Note_on_c, 0, 52, 0
1, 34936, Note_on_c, 0, 59, 51
1, 34936, Note_on_c, 0, 62, 51
1, 34936, Note_on_c, 0, 64, 51
1, 34939, Note_on_c, 0, 52, 50
1, 34990, Note_on_c, 0, 64, 0
1, 34990, Note_on_c, 0, 62, 0
1, 34990, Note_on_c, 0, 59, 0
1, 34993, Note_on_c, 0, 52, 0
1, 35079, Note_on_c, 0, 60, 51
1, 35079, Note_on_c, 0, 64, 51
1, 35079, Note_on_c, 0, 69, 51
1, 35082, Note_on_c, 0, 57, 50
1, 35153, Note_on_c, 0, 69, 0
1, 35153, Note_on_c, 0, 64, 0
1, 35153, Note_on_c, 0, 60, 0
1, 35156, Note_on_c, 0, 57, 0
1, 35227, Note_on_c, 0, 64, 57
1, 35227, Note_on_c, 0, 69, 57
1, 35227, Note_on_c, 0, 60, 57
1, 35230, Note_on_c, 0, 57, 57
1, 35300, Note_on_c, 0, 60, 0
1, 35300, Note_on_c, 0, 69, 0
1, 35300, Note_on_c, 0, 64, 0
1, 35303, Note_on_c, 0, 57, 0
1, 35374, Note_on_c, 0, 62, 57
1, 35374, Note_on_c, 0, 59, 57
1, 35374, Note_on_c, 0, 64, 57
1, 35377, Note_on_c, 0, 52, 57
1, 35445, Note_on_c, 0, 64, 0
1, 35445, Note_on_c, 0, 59, 0
1, 35445, Note_on_c, 0, 62, 0
1, 35448, Note_on_c, 0, 52, 0
1, 35516, Note_on_c, 0, 59, 52
1, 35516, Note_on_c, 0, 64, 52
1, 35516, Note_on_c, 0, 62, 52
1, 35519, Note_on_c, 0, 52, 51
1, 35572, Note_on_c, 0, 62, 0
1, 35572, Note_on_c, 0, 64, 0
1, 35572, Note_on_c, 0, 59, 0
1, 35575, Note_on_c, 0, 52, 0
1, 35666, Note_on_c, 0, 60, 59
1, 35666, Note_on_c, 0, 64, 59
1, 35666, Note_on_c, 0, 69, 59
1, 35669, Note_on_c, 0, 45, 59
1, 35745, Note_on_c, 0, 69, 0
1, 35745, Note_on_c, 0, 64, 0
1, 35745, Note_on_c, 0, 60, 0
1, 35748, Note_on_c, 0, 45, 0
1, 35823, Note_on_c, 0, 62, 65
1, 35823, Note_on_c, 0, 67, 65
1, 35823, Note_on_c, 0, 71, 65
1, 35826, Note_on_c, 0, 43, 65
1, 35885, Note_on_c, 0, 71, 0
1, 35885, Note_on_c, 0, 67, 0
1, 35885, Note_on_c, 0, 62, 0
1, 35888, Note_on_c, 0, 43, 0
1, 36152, Note_on_c, 0, 84, 85
1, 36152, Note_on_c, 0, 72, 85
1, 36152, Note_on_c, 0, 36, 85
1, 36449, Note_on_c, 0, 72, 0
1, 36449, Note_on_c, 0, 84, 0
1, 36449, Note_on_c, 0, 36, 0
1, 36462, Note_on_c, 0, 64, 64
1, 36462, Note_on_c, 0, 67, 64
1, 36462, Note_on_c, 0, 72, 64
1, 36465, Note_on_c, 0, 60, 62
1, 36536, Note_on_c, 0, 72, 0
1, 36536, Note_on_c, 0, 67, 0
1, 36536, Note_on_c, 0, 64, 0
1, 36539, Note_on_c, 0, 60, 0
1, 36611, Note_on_c, 0, 62, 55
1, 36611, Note_on_c, 0, 65, 55
1, 36611, Note_on_c, 0, 67, 55
1, 36614, Note_on_c, 0, 55, 54
1, 36682, Note_on_c, 0, 67, 0
1, 36682, Note_on_c, 0, 65, 0
1, 36682, Note_on_c, 0, 62, 0
1, 36685, Note_on_c, 0, 55, 0
1, 36753, Note_on_c, 0, 62, 55
1, 36753, Note_on_c, 0, 65, 55
1, 36753, Note_on_c, 0, 67, 55
1, 36756, Note_on_c, 0, 55, 54
1, 36807, Note_on_c, 0, 67, 0
1, 36807, Note_on_c, 0, 65, 0
1, 36807, Note_on_c, 0, 62, 0
1, 36810, Note_on_c, 0, 55, 0
1, 36896, Note_on_c, 0, 72, 55
1, 36896, Note_on_c, 0, 64, 55
1, 36896, Note_on_c, 0, 67, 55
1, 36899, Note_on_c, 0, 60, 54
1, 36969, Note_on_c, 0, 67, 0
1, 36969, Note_on_c, 0, 64, 0
1, 36969, Note_on_c, 0, 72, 0
1, 36972, Note_on_c, 0, 60, 0
1, 37043, Note_on_c, 0, 64, 62
1, 37043, Note_on_c, 0, 67, 62
1, 37043, Note_on_c, 0, 72, 62
1, 37046, Note_on_c, 0, 60, 62
1, 37116, Note_on_c, 0, 72, 0
1, 37116, Note_on_c, 0, 67, 0
1, 37116, Note_on_c, 0, 64, 0
1, 37119, Note_on_c, 0, 60, 0
1, 37190, Note_on_c, 0, 62, 62
1, 37190, Note_on_c, 0, 65, 62
1, 37190, Note_on_c, 0, 67, 62
1, 37193, Note_on_c, 0, 55, 62
1, 37261, Note_on_c, 0, 67, 0
1, 37261, Note_on_c, 0, 65, 0
1, 37261, Note_on_c, 0, 62, 0
1, 37264, Note_on_c, 0, 55, 0
1, 37332, Note_on_c, 0, 62, 57
1, 37332, Note_on_c, 0, 67, 57
1, 37332, Note_on_c, 0, 65, 57
1, 37335, Note_on_c, 0, 55, 55
1, 37388, Note_on_c, 0, 65, 0
1, 37388, Note_on_c, 0, 67, 0
1, 37388, Note_on_c, 0, 62, 0
1, 37391, Note_on_c, 0, 55, 0
1, 37483, Note_on_c, 0, 64, 65
1, 37483, Note_on_c, 0, 67, 65
1, 37483, Note_on_c, 0, 72, 65
1, 37486, Note_on_c, 0, 48, 65
1, 37561, Note_on_c, 0, 72, 0
1, 37561, Note_on_c, 0, 67, 0
1, 37561, Note_on_c, 0, 64, 0
1, 37564, Note_on_c, 0, 48, 0
1, 37639, Note_on_c, 0, 65, 70
1, 37639, Note_on_c, 0, 70, 70
1, 37639, Note_on_c, 0, 74, 70
1, 37642, Note_on_c, 0, 43, 70
1, 37700, Note_on_c, 0, 74, 0
1, 37700, Note_on_c, 0, 70, 0
1, 37700, Note_on_c, 0, 65, 0
1, 37703, Note_on_c, 0, 43, 0
1, 37966, Note_on_c, 0, 84, 92
1, 37966, Note_on_c, 0, 72, 92
1, 37966, Note_on_c, 0, 36, 92
1, 38260, Note_on_c, 0, 72, 0
1, 38260, Note_on_c, 0, 84, 0
1, 38260, Note_on_c, 0, 36, 0
1, 38273, Note_on_c, 0, 64, 64
1, 38273, Note_on_c, 0, 67, 64
1, 38273, Note_on_c, 0, 72, 64
1, 38276, Note_on_c, 0, 60, 62
1, 38347, Note_on_c, 0, 72, 0
1, 38347, Note_on_c, 0, 67, 0
1, 38347, Note_on_c, 0, 64, 0
1, 38350, Note_on_c, 0, 60, 0
1, 38420, Note_on_c, 0, 62, 55
1, 38420, Note_on_c, 0, 65, 55
1, 38420, Note_on_c, 0, 67, 55
1, 38423, Note_on_c, 0, 55, 54
1, 38491, Note_on_c, 0, 67, 0
1, 38491, Note_on_c, 0, 65, 0
1, 38491, Note_on_c, 0, 62, 0
1, 38494, Note_on_c, 0, 55, 0
1, 38563, Note_on_c, 0, 67, 55
1, 38563, Note_on_c, 0, 65, 55
1, 38563, Note_on_c, 0, 62, 55
1, 38566, Note_on_c, 0, 55, 54
1, 38616, Note_on_c, 0, 62, 0
1, 38616, Note_on_c, 0, 65, 0
1, 38616, Note_on_c, 0, 67, 0
1, 38619, Note_on_c, 0, 55, 0
1, 38706, Note_on_c, 0, 64, 55
1, 38706, Note_on_c, 0, 67, 55
1, 38706, Note_on_c, 0, 72, 55
1, 38709, Note_on_c, 0, 60, 54
1, 38778, Note_on_c, 0, 72, 0
1, 38778, Note_on_c, 0, 67, 0
1, 38778, Note_on_c, 0, 64, 0
1, 38781, Note_on_c, 0, 60, 0
1, 38851, Note_on_c, 0, 64, 62
1, 38851, Note_on_c, 0, 67, 62
1, 38851, Note_on_c, 0, 72, 62
1, 38854, Note_on_c, 0, 60, 62
1, 38924, Note_on_c, 0, 72, 0
1, 38924, Note_on_c, 0, 67, 0
1, 38924, Note_on_c, 0, 64, 0
1, 38927, Note_on_c, 0, 60, 0
1, 38996, Note_on_c, 0, 62, 62
1, 38996, Note_on_c, 0, 65, 62
1, 38996, Note_on_c, 0, 67, 62
1, 38999, Note_on_c, 0, 55, 62
1, 39068, Note_on_c, 0, 67, 0
1, 39068, Note_on_c, 0, 65, 0
1, 39068, Note_on_c, 0, 62, 0
1, 39071, Note_on_c, 0, 55, 0
1, 39139, Note_on_c, 0, 62, 57
1, 39139, Note_on_c, 0, 67, 57
1, 39139, Note_on_c, 0, 65, 57
1, 39142, Note_on_c, 0, 55, 55
1, 39195, Note_on_c, 0, 65, 0
1, 39195, Note_on_c, 0, 67, 0
1, 39195, Note_on_c, 0, 62, 0
1, 39198, Note_on_c, 0, 55, 0
1, 39288, Note_on_c, 0, 64, 65
1, 39288, Note_on_c, 0, 67, 65
1, 39288, Note_on_c, 0, 72, 65
1, 39291, Note_on_c, 0, 60, 65
1, 39367, Note_on_c, 0, 72, 0
1, 39367, Note_on_c, 0, 67, 0
1, 39367, Note_on_c, 0, 64, 0
1, 39370, Note_on_c, 0, 60, 0
1, 39446, Note_on_c, 0, 65, 72
1, 39446, Note_on_c, 0, 70, 72
1, 39446, Note_on_c, 0, 74, 72
1, 39449, Note_on_c, 0, 58, 72
1, 39779, Note_on_c, 0, 74, 0
1, 39779, Note_on_c, 0, 70, 0
1, 39779, Note_on_c, 0, 65, 0
1, 39782, Note_on_c, 0, 75, 77
1, 39782, Note_on_c, 0, 70, 72
1, 39782, Note_on_c, 0, 58, 0
1, 39785, Note_on_c, 0, 67, 72
1, 39785, Note_on_c, 0, 63, 72
1, 39945, Note_on_c, 0, 75, 0
1, 39945, Note_on_c, 0, 74, 75
1, 40103, Note_on_c, 0, 74, 0
1, 40103, Note_on_c, 0, 75, 79
1, 40261, Note_on_c, 0, 63, 0
1, 40261, Note_on_c, 0, 67, 0
1, 40261, Note_on_c, 0, 58, 66
1, 40264, Note_on_c, 0, 65, 66
1, 40414, Note_on_c, 0, 65, 0
1, 40414, Note_on_c, 0, 58, 0
1, 40414, Note_on_c, 0, 63, 72
1, 40417, Note_on_c, 0, 67, 72
1, 40573, Note_on_c, 0, 75, 0
1, 40573, Note_on_c, 0, 74, 75
1, 40724, Note_on_c, 0, 74, 0
1, 40724, Note_on_c, 0, 75, 79
1, 40882, Note_on_c, 0, 67, 0
1, 40882, Note_on_c, 0, 63, 0
1, 40882, Note_on_c, 0, 65, 66
1, 40885, Note_on_c, 0, 69, 66
1, 41034, Note_on_c, 0, 69, 0
1, 41034, Note_on_c, 0, 65, 0
1, 41034, Note_on_c, 0, 63, 73
1, 41037, Note_on_c, 0, 67, 73
1, 41191, Note_on_c, 0, 75, 0
1, 41191, Note_on_c, 0, 74, 76
1, 41342, Note_on_c, 0, 74, 0
1, 41342, Note_on_c, 0, 75, 80
1, 41499, Note_on_c, 0, 67, 0
1, 41499, Note_on_c, 0, 63, 0
1, 41499, Note_on_c, 0, 65, 68
1, 41502, Note_on_c, 0, 58, 68
1, 41655, Note_on_c, 0, 70, 0
1, 41655, Note_on_c, 0, 58, 0
1, 41655, Note_on_c, 0, 65, 0
1, 41658, Note_on_c, 0, 57, 72
1, 41658, Note_on_c, 0, 67, 72
1, 41812, Note_on_c, 0, 75, 0
1, 41812, Note_on_c, 0, 74, 75
1, 41965, Note_on_c, 0, 74, 0
1, 41965, Note_on_c, 0, 75, 75
1, 42116, Note_on_c, 0, 75, 0
1, 42116, Note_on_c, 0, 79, 77
1, 42273, Note_on_c, 0, 79, 0
1, 42273, Note_on_c, 0, 67, 61
1, 42273, Note_on_c, 0, 74, 77
1, 42276, Note_on_c, 0, 67, 0
1, 42276, Note_on_c, 0, 57, 0
1, 42276, Note_on_c, 0, 50, 66
1, 42279, Note_on_c, 0, 57, 66
1, 42426, Note_on_c, 0, 67, 0
1, 42426, Note_on_c, 0, 69, 66
1, 42579, Note_on_c, 0, 69, 0
1, 42579, Note_on_c, 0, 67, 65
1, 42732, Note_on_c, 0, 67, 0
1, 42732, Note_on_c, 0, 64, 59
1, 42884, Note_on_c, 0, 64, 0
1, 42884, Note_on_c, 0, 67, 61
1, 43038, Note_on_c, 0, 67, 0
1, 43038, Note_on_c, 0, 69, 58
1, 43191, Note_on_c, 0, 69, 0
1, 43191, Note_on_c, 0, 67, 57
1, 43344, Note_on_c, 0, 67, 0
1, 43344, Note_on_c, 0, 64, 50
1, 43475, Note_on_c, 0, 64, 0
1, 43475, Note_on_c, 0, 74, 0
1, 43475, Note_on_c, 0, 57, 0
1, 43478, Note_on_c, 0, 50, 0
1, 43502, Note_on_c, 0, 74, 69
1, 43502, Note_on_c, 0, 69, 64
1, 43502, Note_on_c, 0, 65, 65
1, 43505, Note_on_c, 0, 62, 65
1, 43658, Note_on_c, 0, 74, 0
1, 43658, Note_on_c, 0, 72, 68
1, 43812, Note_on_c, 0, 72, 0
1, 43812, Note_on_c, 0, 74, 70
1, 43967, Note_on_c, 0, 62, 0
1, 43967, Note_on_c, 0, 65, 0
1, 43967, Note_on_c, 0, 57, 59
1, 43970, Note_on_c, 0, 64, 59
1, 44120, Note_on_c, 0, 64, 0
1, 44120, Note_on_c, 0, 57, 0
1, 44120, Note_on_c, 0, 62, 65
1, 44123, Note_on_c, 0, 65, 65
1, 44276, Note_on_c, 0, 74, 0
1, 44276, Note_on_c, 0, 72, 68
1, 44428, Note_on_c, 0, 72, 0
1, 44428, Note_on_c, 0, 74, 70
1, 44584, Note_on_c, 0, 65, 0
1, 44584, Note_on_c, 0, 62, 0
1, 44584, Note_on_c, 0, 64, 59
1, 44587, Note_on_c, 0, 67, 59
1, 44736, Note_on_c, 0, 67, 0
1, 44736, Note_on_c, 0, 64, 0
1, 44736, Note_on_c, 0, 62, 66
1, 44739, Note_on_c, 0, 65, 66
1, 44891, Note_on_c, 0, 74, 0
1, 44891, Note_on_c, 0, 72, 68
1, 45042, Note_on_c, 0, 72, 0
1, 45042, Note_on_c, 0, 74, 72
1, 45199, Note_on_c, 0, 65, 0
1, 45199, Note_on_c, 0, 62, 0
1, 45199, Note_on_c, 0, 64, 61
1, 45202, Note_on_c, 0, 57, 61
1, 45356, Note_on_c, 0, 69, 0
1, 45356, Note_on_c, 0, 70, 65
1, 45356, Note_on_c, 0, 57, 0
1, 45359, Note_on_c, 0, 64, 0
1, 45359, Note_on_c, 0, 55, 65
1, 45359, Note_on_c, 0, 65, 65
1, 45511, Note_on_c, 0, 74, 0
1, 45511, Note_on_c, 0, 72, 69
1, 45661, Note_on_c, 0, 72, 0
1, 45661, Note_on_c, 0, 74, 69
1, 45817, Note_on_c, 0, 74, 0
1, 45817, Note_on_c, 0, 77, 72
1, 45977, Note_on_c, 0, 77, 0
1, 45977, Note_on_c, 0, 70, 0
1, 45977, Note_on_c, 0, 65, 55
1, 45980, Note_on_c, 0, 70, 69
1, 45980, Note_on_c, 0, 65, 0
1, 45980, Note_on_c, 0, 55, 0
1, 45983, Note_on_c, 0, 48, 59
1, 45983, Note_on_c, 0, 55, 59
1, 46130, Note_on_c, 0, 65, 0
1, 46130, Note_on_c, 0, 63, 59
1, 46283, Note_on_c, 0, 63, 0
1, 46283, Note_on_c, 0, 62, 58
1, 46435, Note_on_c, 0, 62, 0
1, 46435, Note_on_c, 0, 63, 57
1, 46588, Note_on_c, 0, 63, 0
1, 46588, Note_on_c, 0, 65, 55
1, 46741, Note_on_c, 0, 65, 0
1, 46741, Note_on_c, 0, 63, 52
1, 46894, Note_on_c, 0, 63, 0
1, 46894, Note_on_c, 0, 62, 51
1, 47046, Note_on_c, 0, 62, 0
1, 47046, Note_on_c, 0, 63, 50
1, 47199, Note_on_c, 0, 48, 0
1, 47199, Note_on_c, 0, 41, 59
1, 47352, Note_on_c, 0, 63, 0
1, 47352, Note_on_c, 0, 62, 59
1, 47505, Note_on_c, 0, 62, 0
1, 47505, Note_on_c, 0, 60, 59
1, 47657, Note_on_c, 0, 60, 0
1, 47657, Note_on_c, 0, 63, 59
1, 47810, Note_on_c, 0, 70, 0
1, 47810, Control_c, 0, 64, 127
1, 47810, Note_on_c, 0, 69, 69
1, 47813, Note_on_c, 0, 55, 0
1, 47813, Note_on_c, 0, 53, 50
1, 47969, Note_on_c, 0, 63, 0
1, 47969, Note_on_c, 0, 62, 45
1, 48123, Note_on_c, 0, 62, 0
1, 48123, Note_on_c, 0, 60, 45
1, 48278, Note_on_c, 0, 60, 0
1, 48278, Note_on_c, 0, 63, 45
1, 48380, Control_c, 0, 64, 0
1, 48431, Note_on_c, 0, 63, 0
1, 48431, Note_on_c, 0, 60, 50
1, 48431, Note_on_c, 0, 67, 68
1, 48434, Note_on_c, 0, 51, 50
1, 48457, Note_on_c, 0, 69, 0
1, 48457, Note_on_c, 0, 53, 0
1, 48484, Control_c, 0, 64, 127
1, 48588, Note_on_c, 0, 60, 0
1, 48588, Note_on_c, 0, 58, 47
1, 48740, Note_on_c, 0, 58, 0
1, 48740, Note_on_c, 0, 57, 47
1, 48892, Note_on_c, 0, 57, 0
1, 48892, Note_on_c, 0, 60, 47
1, 49044, Control_c, 0, 64, 0
1, 49044, Note_on_c, 0, 65, 68
1, 49044, Note_on_c, 0, 50, 50
1, 49070, Note_on_c, 0, 67, 0
1, 49070, Note_on_c, 0, 51, 0
1, 49104, Control_c, 0, 64, 127
1, 49200, Note_on_c, 0, 60, 0
1, 49200, Note_on_c, 0, 58, 45
1, 49352, Note_on_c, 0, 58, 0
1, 49352, Note_on_c, 0, 57, 45
1, 49504, Note_on_c, 0, 57, 0
1, 49504, Note_on_c, 0, 60, 45
1, 49562, Control_c, 0, 64, 0
1, 49656, Note_on_c, 0, 60, 0
1, 49656, Note_on_c, 0, 58, 45
1, 49810, Note_on_c, 0, 58, 0
1, 49810, Note_on_c, 0, 62, 45
1, 49956, Note_on_c, 0, 62, 0
1, 49956, Note_on_c, 0, 65, 0
1, 49956, Control_c, 0, 64, 127
1, 49959, Note_on_c, 0, 65, 50
1, 49959, Note_on_c, 0, 67, 66
1, 49959, Note_on_c, 0, 50, 0
1, 49962, Note_on_c, 0, 53, 51
1, 50109, Note_on_c, 0, 65, 0
1, 50109, Note_on_c, 0, 62, 47
1, 50262, Note_on_c, 0, 62, 0
1, 50262, Note_on_c, 0, 67, 51
1, 50262, Note_on_c, 0, 70, 72
1, 50265, Note_on_c, 0, 55, 52
1, 50286, Note_on_c, 0, 67, 0
1, 50286, Note_on_c, 0, 53, 0
1, 50411, Note_on_c, 0, 67, 0
1, 50411, Note_on_c, 0, 65, 47
1, 50554, Note_on_c, 0, 65, 0
1, 50554, Note_on_c, 0, 70, 52
1, 50554, Note_on_c, 0, 74, 69
1, 50557, Note_on_c, 0, 58, 50
1, 50580, Note_on_c, 0, 70, 0
1, 50580, Note_on_c, 0, 55, 0
1, 50707, Note_on_c, 0, 70, 0
1, 50707, Note_on_c, 0, 67, 49
1, 50729, Control_c, 0, 64, 0
1, 50860, Note_on_c, 0, 67, 0
1, 50860, Note_on_c, 0, 74, 0
1, 50860, Note_on_c, 0, 63, 40
1, 50863, Note_on_c, 0, 70, 69
1, 50863, Note_on_c, 0, 58, 0
1, 50863, Note_on_c, 0, 41, 0
1, 50866, Note_on_c, 0, 41, 59
1, 51013, Note_on_c, 0, 63, 0
1, 51013, Note_on_c, 0, 62, 49
1, 51162, Note_on_c, 0, 62, 0
1, 51162, Note_on_c, 0, 60, 49
1, 51312, Note_on_c, 0, 60, 0
1, 51312, Note_on_c, 0, 63, 49
1, 51462, Note_on_c, 0, 69, 69
1, 51462, Control_c, 0, 64, 127
1, 51462, Note_on_c, 0, 53, 50
1, 51488, Note_on_c, 0, 70, 0
1, 51619, Note_on_c, 0, 63, 0
1, 51619, Note_on_c, 0, 62, 45
1, 51771, Note_on_c, 0, 62, 0
1, 51771, Note_on_c, 0, 60, 45
1, 51926, Note_on_c, 0, 60, 0
1, 51926, Note_on_c, 0, 63, 45
1, 52035, Control_c, 0, 64, 0
1, 52078, Note_on_c, 0, 63, 0
1, 52078, Note_on_c, 0, 60, 50
1, 52078, Note_on_c, 0, 67, 68
1, 52081, Note_on_c, 0, 51, 50
1, 52104, Note_on_c, 0, 69, 0
1, 52104, Note_on_c, 0, 53, 0
1, 52130, Control_c, 0, 64, 127
1, 52235, Note_on_c, 0, 60, 0
1, 52235, Note_on_c, 0, 58, 47
1, 52387, Note_on_c, 0, 58, 0
1, 52387, Note_on_c, 0, 57, 47
1, 52539, Note_on_c, 0, 57, 0
1, 52539, Note_on_c, 0, 60, 47
1, 52690, Control_c, 0, 64, 0
1, 52690, Note_on_c, 0, 65, 68
1, 52690, Note_on_c, 0, 50, 50
1, 52717, Note_on_c, 0, 67, 0
1, 52717, Note_on_c, 0, 51, 0
1, 52757, Control_c, 0, 64, 127
1, 52847, Note_on_c, 0, 60, 0
1, 52847, Note_on_c, 0, 58, 45
1, 52997, Note_on_c, 0, 58, 0
1, 52997, Note_on_c, 0, 57, 45
1, 53149, Note_on_c, 0, 57, 0
1, 53149, Note_on_c, 0, 60, 45
1, 53207, Control_c, 0, 64, 0
1, 53301, Note_on_c, 0, 60, 0
1, 53301, Note_on_c, 0, 58, 45
1, 53454, Note_on_c, 0, 58, 0
1, 53454, Note_on_c, 0, 62, 45
1, 53601, Note_on_c, 0, 62, 0
1, 53601, Note_on_c, 0, 65, 0
1, 53601, Control_c, 0, 64, 127
1, 53604, Note_on_c, 0, 65, 50
1, 53604, Note_on_c, 0, 67, 68
1, 53604, Note_on_c, 0, 50, 0
1, 53607, Note_on_c, 0, 53, 51
1, 53753, Note_on_c, 0, 65, 0
1, 53753, Note_on_c, 0, 62, 47
1, 53904, Note_on_c, 0, 62, 0
1, 53904, Note_on_c, 0, 67, 51
1, 53904, Note_on_c, 0, 70, 72
1, 53907, Note_on_c, 0, 55, 52
1, 53929, Note_on_c, 0, 67, 0
1, 53929, Note_on_c, 0, 53, 0
1, 54053, Note_on_c, 0, 67, 0
1, 54053, Note_on_c, 0, 65, 47
1, 54197, Note_on_c, 0, 65, 0
1, 54197, Note_on_c, 0, 74, 69
1, 54197, Note_on_c, 0, 70, 52
1, 54200, Note_on_c, 0, 58, 51
1, 54222, Note_on_c, 0, 70, 0
1, 54222, Note_on_c, 0, 55, 0
1, 54347, Note_on_c, 0, 70, 0
1, 54347, Note_on_c, 0, 67, 49
1, 54368, Control_c, 0, 64, 0
1, 54497, Note_on_c, 0, 67, 0
1, 54497, Note_on_c, 0, 70, 54
1, 54497, Note_on_c, 0, 76, 73
1, 54500, Note_on_c, 0, 58, 0
1, 54500, Note_on_c, 0, 41, 0
1, 54500, Note_on_c, 0, 43, 64
1, 54522, Note_on_c, 0, 74, 0
1, 54646, Note_on_c, 0, 70, 0
1, 54646, Note_on_c, 0, 67, 49
1, 54796, Note_on_c, 0, 67, 0
1, 54796, Note_on_c, 0, 72, 51
1, 54796, Note_on_c, 0, 77, 68
1, 54799, Note_on_c, 0, 57, 51
1, 54799, Note_on_c, 0, 60, 51
1, 54799, Note_on_c, 0, 65, 51
1, 54821, Note_on_c, 0, 76, 0
1, 54942, Note_on_c, 0, 72, 0
1, 54942, Note_on_c, 0, 69, 49
1, 55088, Note_on_c, 0, 69, 0
1, 55088, Note_on_c, 0, 77, 0
1, 55088, Note_on_c, 0, 70, 51
1, 55091, Note_on_c, 0, 74, 69
1, 55091, Note_on_c, 0, 65, 0
1, 55091, Note_on_c, 0, 60, 0
1, 55094, Note_on_c, 0, 57, 0
1, 55094, Note_on_c, 0, 58, 51
1, 55094, Note_on_c, 0, 62, 51
1, 55097, Note_on_c, 0, 55, 51
1, 55144, Control_c, 0, 64, 127
1, 55235, Note_on_c, 0, 70, 0
1, 55235, Note_on_c, 0, 67, 49
1, 55381, Note_on_c, 0, 67, 0
1, 55381, Note_on_c, 0, 70, 51
1, 55381, Note_on_c, 0, 43, 0
1, 55384, Note_on_c, 0, 41, 61
1, 55527, Note_on_c, 0, 70, 0
1, 55527, Note_on_c, 0, 67, 49
1, 55638, Control_c, 0, 64, 0
1, 55673, Note_on_c, 0, 67, 0
1, 55673, Note_on_c, 0, 74, 0
1, 55673, Note_on_c, 0, 70, 54
1, 55676, Note_on_c, 0, 72, 69
1, 55676, Note_on_c, 0, 41, 0
1, 55676, Note_on_c, 0, 55, 0
1, 55679, Note_on_c, 0, 62, 0
1, 55679, Note_on_c, 0, 58, 0
1, 55679, Note_on_c, 0, 40, 64
1, 55745, Control_c, 0, 64, 127
1, 55825, Note_on_c, 0, 70, 0
1, 55825, Note_on_c, 0, 67, 49
1, 55976, Note_on_c, 0, 67, 0
1, 55976, Note_on_c, 0, 70, 54
1, 55976, Note_on_c, 0, 74, 69
1, 55979, Note_on_c, 0, 40, 0
1, 55979, Note_on_c, 0, 38, 66
1, 56002, Note_on_c, 0, 72, 0
1, 56129, Note_on_c, 0, 70, 0
1, 56129, Note_on_c, 0, 67, 49
1, 56282, Note_on_c, 0, 67, 0
1, 56282, Control_c, 0, 64, 0
1, 56282, Note_on_c, 0, 79, 79
1, 56285, Note_on_c, 0, 74, 58
1, 56285, Note_on_c, 0, 38, 0
1, 56285, Note_on_c, 0, 36, 72
1, 56307, Note_on_c, 0, 74, 0
1, 56340, Control_c, 0, 64, 127
1, 56433, Note_on_c, 0, 74, 0
1, 56433, Note_on_c, 0, 70, 52
1, 56583, Note_on_c, 0, 70, 0
1, 56583, Note_on_c, 0, 79, 0
1, 56583, Note_on_c, 0, 76, 57
1, 56586, Note_on_c, 0, 81, 72
1, 56586, Note_on_c, 0, 69, 52
1, 56586, Note_on_c, 0, 64, 52
1, 56589, Note_on_c, 0, 60, 52
1, 56736, Note_on_c, 0, 76, 0
1, 56736, Note_on_c, 0, 72, 52
1, 56889, Note_on_c, 0, 72, 0
1, 56889, Note_on_c, 0, 81, 0
1, 56889, Note_on_c, 0, 76, 59
1, 56892, Note_on_c, 0, 81, 79
1, 56892, Note_on_c, 0, 60, 0
1, 56892, Note_on_c, 0, 64, 0
1, 56895, Note_on_c, 0, 69, 0
1, 56895, Note_on_c, 0, 60, 57
1, 56895, Note_on_c, 0, 64, 57
1, 56898, Note_on_c, 0, 69, 57
1, 57038, Note_on_c, 0, 76, 0
1, 57038, Note_on_c, 0, 72, 52
1, 57187, Note_on_c, 0, 72, 0
1, 57187, Note_on_c, 0, 81, 0
1, 57187, Note_on_c, 0, 72, 57
1, 57190, Note_on_c, 0, 76, 72
1, 57190, Note_on_c, 0, 69, 0
1, 57190, Note_on_c, 0, 64, 0
1, 57193, Note_on_c, 0, 60, 0
1, 57193, Note_on_c, 0, 64, 52
1, 57193, Note_on_c, 0, 57, 52
1, 57196, Note_on_c, 0, 60, 52
1, 57335, Note_on_c, 0, 72, 0
1, 57335, Note_on_c, 0, 69, 50
1, 57421, Control_c, 0, 64, 0
1, 57484, Note_on_c, 0, 69, 0
1, 57484, Note_on_c, 0, 76, 0
1, 57484, Note_on_c, 0, 72, 57
1, 57487, Note_on_c, 0, 76, 72
1, 57487, Note_on_c, 0, 60, 0
1, 57487, Note_on_c, 0, 57, 0
1, 57490, Note_on_c, 0, 64, 0
1, 57490, Note_on_c, 0, 57, 52
1, 57490, Note_on_c, 0, 60, 52
1, 57493, Note_on_c, 0, 64, 52
1, 57548, Control_c, 0, 64, 127
1, 57633, Note_on_c, 0, 72, 0
1, 57633, Note_on_c, 0, 69, 47
1, 57782, Note_on_c, 0, 69, 0
1, 57782, Note_on_c, 0, 72, 57
1, 57935, Note_on_c, 0, 72, 0
1, 57935, Note_on_c, 0, 69, 47
1, 57993, Control_c, 0, 64, 0
1, 58088, Note_on_c, 0, 69, 0
1, 58088, Note_on_c, 0, 76, 0
1, 58088, Note_on_c, 0, 70, 57
1, 58091, Note_on_c, 0, 76, 76
1, 58091, Note_on_c, 0, 64, 0
1, 58091, Note_on_c, 0, 36, 0
1, 58094, Note_on_c, 0, 57, 0
1, 58094, Note_on_c, 0, 60, 0
1, 58094, Note_on_c, 0, 43, 66
1, 58237, Note_on_c, 0, 70, 0
1, 58237, Note_on_c, 0, 67, 50
1, 58387, Note_on_c, 0, 67, 0
1, 58387, Note_on_c, 0, 72, 52
1, 58387, Note_on_c, 0, 77, 70
1, 58390, Note_on_c, 0, 57, 52
1, 58390, Note_on_c, 0, 60, 52
1, 58390, Note_on_c, 0, 65, 52
1, 58412, Note_on_c, 0, 76, 0
1, 58533, Note_on_c, 0, 72, 0
1, 58533, Note_on_c, 0, 69, 50
1, 58679, Note_on_c, 0, 69, 0
1, 58679, Note_on_c, 0, 77, 0
1, 58679, Note_on_c, 0, 70, 52
1, 58682, Control_c, 0, 64, 127
1, 58682, Note_on_c, 0, 74, 72
1, 58682, Note_on_c, 0, 65, 0
1, 58685, Note_on_c, 0, 60, 0
1, 58685, Note_on_c, 0, 57, 0
1, 58685, Note_on_c, 0, 58, 52
1, 58688, Note_on_c, 0, 62, 52
1, 58688, Note_on_c, 0, 55, 52
1, 58825, Note_on_c, 0, 70, 0
1, 58825, Note_on_c, 0, 67, 50
1, 58972, Note_on_c, 0, 67, 0
1, 58972, Note_on_c, 0, 70, 52
1, 58972, Note_on_c, 0, 43, 0
1, 58975, Note_on_c, 0, 41, 64
1, 59118, Note_on_c, 0, 70, 0
1, 59118, Note_on_c, 0, 67, 50
1, 59243, Control_c, 0, 64, 0
1, 59264, Note_on_c, 0, 67, 0
1, 59264, Note_on_c, 0, 74, 0
1, 59264, Note_on_c, 0, 70, 57
1, 59267, Note_on_c, 0, 72, 72
1, 59267, Note_on_c, 0, 41, 0
1, 59267, Note_on_c, 0, 55, 0
1, 59270, Note_on_c, 0, 62, 0
1, 59270, Note_on_c, 0, 58, 0
1, 59270, Note_on_c, 0, 40, 66
1, 59336, Control_c, 0, 64, 127
1, 59416, Note_on_c, 0, 70, 0
1, 59416, Note_on_c, 0, 67, 50
1, 59567, Note_on_c, 0, 67, 0
1, 59567, Note_on_c, 0, 70, 57
1, 59567, Note_on_c, 0, 74, 72
1, 59570, Note_on_c, 0, 40, 0
1, 59570, Note_on_c, 0, 38, 69
1, 59592, Note_on_c, 0, 72, 0
1, 59716, Note_on_c, 0, 70, 0
1, 59716, Note_on_c, 0, 67, 50
1, 59865, Note_on_c, 0, 67, 0
1, 59865, Control_c, 0, 64, 0
1, 59865, Note_on_c, 0, 74, 61
1, 59868, Note_on_c, 0, 79, 83
1, 59868, Note_on_c, 0, 38, 0
1, 59868, Note_on_c, 0, 36, 75
1, 59890, Note_on_c, 0, 74, 0
1, 59907, Control_c, 0, 64, 127
1, 60013, Note_on_c, 0, 74, 0
1, 60013, Note_on_c, 0, 70, 55
1, 60161, Note_on_c, 0, 70, 0
1, 60161, Note_on_c, 0, 79, 0
1, 60161, Note_on_c, 0, 76, 59
1, 60164, Note_on_c, 0, 81, 75
1, 60164, Note_on_c, 0, 69, 55
1, 60164, Note_on_c, 0, 64, 55
1, 60167, Note_on_c, 0, 60, 55
1, 60313, Note_on_c, 0, 76, 0
1, 60313, Note_on_c, 0, 72, 55
1, 60464, Note_on_c, 0, 72, 0
1, 60464, Note_on_c, 0, 81, 0
1, 60464, Note_on_c, 0, 76, 62
1, 60467, Note_on_c, 0, 81, 83
1, 60467, Note_on_c, 0, 60, 0
1, 60467, Note_on_c, 0, 64, 0
1, 60470, Note_on_c, 0, 69, 0
1, 60470, Note_on_c, 0, 60, 59
1, 60470, Note_on_c, 0, 64, 59
1, 60473, Note_on_c, 0, 69, 59
1, 60611, Note_on_c, 0, 76, 0
1, 60611, Note_on_c, 0, 72, 55
1, 60758, Note_on_c, 0, 72, 0
1, 60758, Note_on_c, 0, 81, 0
1, 60758, Note_on_c, 0, 72, 59
1, 60761, Note_on_c, 0, 76, 75
1, 60761, Note_on_c, 0, 69, 0
1, 60761, Note_on_c, 0, 64, 0
1, 60764, Note_on_c, 0, 60, 0
1, 60764, Note_on_c, 0, 64, 55
1, 60764, Note_on_c, 0, 57, 55
1, 60767, Note_on_c, 0, 60, 55
1, 60900, Note_on_c, 0, 72, 0
1, 60900, Note_on_c, 0, 69, 51
1, 61002, Control_c, 0, 64, 0
1, 61042, Note_on_c, 0, 69, 0
1, 61042, Note_on_c, 0, 76, 0
1, 61042, Note_on_c, 0, 72, 59
1, 61045, Note_on_c, 0, 76, 75
1, 61045, Note_on_c, 0, 60, 0
1, 61045, Note_on_c, 0, 57, 0
1, 61048, Note_on_c, 0, 64, 0
1, 61048, Note_on_c, 0, 57, 58
1, 61048, Note_on_c, 0, 60, 58
1, 61051, Note_on_c, 0, 64, 58
1, 61106, Control_c, 0, 64, 127
1, 61192, Note_on_c, 0, 72, 0
1, 61192, Note_on_c, 0, 69, 49
1, 61343, Note_on_c, 0, 69, 0
1, 61343, Note_on_c, 0, 76, 0
1, 61343, Note_on_c, 0, 82, 87
1, 61346, Note_on_c, 0, 77, 66
1, 61346, Note_on_c, 0, 64, 0
1, 61346, Note_on_c, 0, 60, 0
1, 61349, Note_on_c, 0, 57, 0
1, 61349, Note_on_c, 0, 70, 61
1, 61349, Note_on_c, 0, 62, 61
1, 61352, Note_on_c, 0, 65, 61
1, 61484, Note_on_c, 0, 77, 0
1, 61484, Note_on_c, 0, 74, 57
1, 61538, Control_c, 0, 64, 0
1, 61625, Note_on_c, 0, 74, 0
1, 61625, Note_on_c, 0, 82, 0
1, 61625, Note_on_c, 0, 77, 73
1, 61628, Note_on_c, 0, 82, 94
1, 61628, Note_on_c, 0, 65, 0
1, 61628, Note_on_c, 0, 62, 0
1, 61631, Note_on_c, 0, 70, 0
1, 61631, Note_on_c, 0, 62, 66
1, 61631, Note_on_c, 0, 65, 66
1, 61634, Note_on_c, 0, 70, 66
1, 61772, Note_on_c, 0, 77, 0
1, 61772, Note_on_c, 0, 74, 52
1, 61920, Note_on_c, 0, 74, 0
1, 61920, Note_on_c, 0, 82, 0
1, 61920, Note_on_c, 0, 79, 73
1, 61923, Note_on_c, 0, 84, 87
1, 61923, Note_on_c, 0, 70, 0
1, 61923, Note_on_c, 0, 65, 0
1, 61926, Note_on_c, 0, 62, 0
1, 61926, Note_on_c, 0, 64, 61
1, 61926, Note_on_c, 0, 67, 61
1, 61929, Note_on_c, 0, 72, 61
1, 62061, Note_on_c, 0, 79, 0
1, 62061, Note_on_c, 0, 76, 52
1, 62202, Note_on_c, 0, 76, 0
1, 62202, Note_on_c, 0, 84, 0
1, 62202, Note_on_c, 0, 79, 73
1, 62205, Note_on_c, 0, 84, 96
1, 62205, Note_on_c, 0, 72, 0
1, 62205, Note_on_c, 0, 67, 0
1, 62208, Note_on_c, 0, 64, 0
1, 62208, Note_on_c, 0, 64, 66
1, 62208, Note_on_c, 0, 67, 66
1, 62211, Note_on_c, 0, 72, 66
1, 62349, Note_on_c, 0, 79, 0
1, 62349, Note_on_c, 0, 76, 52
1, 62495, Note_on_c, 0, 76, 0
1, 62495, Note_on_c, 0, 84, 0
1, 62495, Note_on_c, 0, 76, 73
1, 62498, Note_on_c, 0, 81, 87
1, 62498, Note_on_c, 0, 72, 0
1, 62498, Note_on_c, 0, 67, 0
1, 62501, Note_on_c, 0, 64, 0
1, 62501, Note_on_c, 0, 60, 61
1, 62501, Note_on_c, 0, 64, 61
1, 62504, Note_on_c, 0, 69, 61
1, 62637, Note_on_c, 0, 76, 0
1, 62637, Note_on_c, 0, 72, 52
1, 62777, Note_on_c, 0, 72, 0
1, 62777, Note_on_c, 0, 81, 0
1, 62777, Note_on_c, 0, 76, 73
1, 62780, Note_on_c, 0, 81, 94
1, 62780, Note_on_c, 0, 69, 0
1, 62780, Note_on_c, 0, 64, 0
1, 62783, Note_on_c, 0, 60, 0
1, 62783, Note_on_c, 0, 60, 66
1, 62783, Note_on_c, 0, 64, 66
1, 62786, Note_on_c, 0, 69, 66
1, 62917, Note_on_c, 0, 76, 0
1, 62917, Note_on_c, 0, 72, 52
1, 63057, Note_on_c, 0, 72, 0
1, 63057, Note_on_c, 0, 81, 0
1, 63057, Note_on_c, 0, 81, 73
1, 63060, Note_on_c, 0, 84, 97
1, 63060, Note_on_c, 0, 69, 0
1, 63060, Note_on_c, 0, 64, 0
1, 63063, Note_on_c, 0, 60, 0
1, 63063, Note_on_c, 0, 64, 70
1, 63063, Note_on_c, 0, 69, 70
1, 63066, Note_on_c, 0, 72, 70
1, 63197, Note_on_c, 0, 81, 0
1, 63197, Note_on_c, 0, 76, 52
1, 63337, Note_on_c, 0, 76, 0
1, 63337, Note_on_c, 0, 84, 0
1, 63337, Note_on_c, 0, 82, 96
1, 63340, Note_on_c, 0, 86, 96
1, 63340, Note_on_c, 0, 72, 0
1, 63340, Note_on_c, 0, 36, 0
1, 63343, Note_on_c, 0, 64, 0
1, 63343, Note_on_c, 0, 69, 0
1, 63343, Note_on_c, 0, 34, 82
1, 63346, Note_on_c, 0, 41, 82
1, 63477, Note_on_c, 0, 82, 0
1, 63477, Note_on_c, 0, 76, 57
1, 63617, Note_on_c, 0, 76, 0
1, 63617, Note_on_c, 0, 86, 0
1, 63617, Note_on_c, 0, 82, 94
1, 63620, Note_on_c, 0, 86, 94
1, 63620, Note_on_c, 0, 65, 88
1, 63761, Note_on_c, 0, 82, 0
1, 63761, Note_on_c, 0, 77, 57
1, 63905, Note_on_c, 0, 77, 0
1, 63905, Note_on_c, 0, 86, 0
1, 63905, Control_c, 0, 64, 127
1, 63908, Note_on_c, 0, 82, 82
1, 63908, Note_on_c, 0, 86, 82
1, 63908, Note_on_c, 0, 65, 0
1, 63911, Note_on_c, 0, 55, 57
1, 63911, Note_on_c, 0, 58, 57
1, 63911, Note_on_c, 0, 62, 91
1, 64045, Note_on_c, 0, 86, 0
1, 64045, Note_on_c, 0, 82, 0
1, 64045, Note_on_c, 0, 74, 65
1, 64185, Note_on_c, 0, 74, 0
1, 64185, Note_on_c, 0, 82, 81
1, 64185, Note_on_c, 0, 86, 81
1, 64325, Note_on_c, 0, 86, 0
1, 64325, Note_on_c, 0, 82, 0
1, 64325, Note_on_c, 0, 74, 65
1, 64465, Note_on_c, 0, 74, 0
1, 64465, Note_on_c, 0, 82, 79
1, 64465, Note_on_c, 0, 86, 79
1, 64468, Note_on_c, 0, 62, 0
1, 64468, Note_on_c, 0, 60, 84
1, 64605, Note_on_c, 0, 86, 0
1, 64605, Note_on_c, 0, 82, 0
1, 64605, Note_on_c, 0, 72, 64
1, 64745, Note_on_c, 0, 72, 0
1, 64745, Note_on_c, 0, 82, 75
1, 64745, Note_on_c, 0, 86, 75
1, 64748, Note_on_c, 0, 60, 0
1, 64748, Note_on_c, 0, 62, 79
1, 64883, Note_on_c, 0, 86, 0
1, 64883, Note_on_c, 0, 82, 0
1, 64883, Note_on_c, 0, 74, 66
1, 65021, Note_on_c, 0, 74, 0
1, 65021, Control_c, 0, 64, 0
1, 65021, Note_on_c, 0, 82, 75
1, 65024, Note_on_c, 0, 86, 75
1, 65024, Note_on_c, 0, 62, 0
1, 65024, Note_on_c, 0, 55, 0
1, 65027, Note_on_c, 0, 34, 0
1, 65027, Note_on_c, 0, 41, 0
1, 65027, Note_on_c, 0, 58, 0
1, 65030, Note_on_c, 0, 58, 57
1, 65030, Note_on_c, 0, 62, 57
1, 65030, Note_on_c, 0, 67, 83
1, 65068, Control_c, 0, 64, 127
1, 65163, Note_on_c, 0, 86, 0
1, 65163, Note_on_c, 0, 82, 0
1, 65163, Note_on_c, 0, 79, 67
1, 65306, Note_on_c, 0, 79, 0
1, 65306, Note_on_c, 0, 82, 75
1, 65306, Note_on_c, 0, 86, 75
1, 65309, Note_on_c, 0, 67, 0
1, 65309, Note_on_c, 0, 69, 73
1, 65442, Note_on_c, 0, 86, 0
1, 65442, Note_on_c, 0, 82, 0
1, 65442, Note_on_c, 0, 81, 66
1, 65567, Control_c, 0, 64, 0
1, 65579, Note_on_c, 0, 81, 0
1, 65579, Note_on_c, 0, 82, 74
1, 65579, Note_on_c, 0, 86, 74
1, 65582, Note_on_c, 0, 69, 0
1, 65582, Note_on_c, 0, 69, 75
1, 65646, Control_c, 0, 64, 127
1, 65720, Note_on_c, 0, 86, 0
1, 65720, Note_on_c, 0, 82, 0
1, 65720, Note_on_c, 0, 81, 58
1, 65861, Note_on_c, 0, 81, 0
1, 65861, Note_on_c, 0, 82, 72
1, 65861, Note_on_c, 0, 86, 72
1, 65864, Note_on_c, 0, 69, 0
1, 65864, Note_on_c, 0, 64, 73
1, 66006, Note_on_c, 0, 86, 0
1, 66006, Note_on_c, 0, 82, 0
1, 66006, Note_on_c, 0, 76, 55
1, 66151, Note_on_c, 0, 76, 0
1, 66151, Note_on_c, 0, 82, 62
1, 66151, Note_on_c, 0, 86, 62
1, 66154, Note_on_c, 0, 64, 0
1, 66154, Note_on_c, 0, 64, 72
1, 66296, Note_on_c, 0, 86, 0
1, 66296, Note_on_c, 0, 82, 0
1, 66296, Note_on_c, 0, 76, 51
1, 66442, Note_on_c, 0, 76, 0
1, 66442, Note_on_c, 0, 82, 60
1, 66442, Note_on_c, 0, 86, 60
1, 66587, Note_on_c, 0, 86, 0
1, 66587, Note_on_c, 0, 82, 0
1, 66587, Note_on_c, 0, 76, 50
1, 66628, Control_c, 0, 64, 0
1, 66732, Note_on_c, 0, 76, 0
1, 66732, Note_on_c, 0, 82, 64
1, 66732, Note_on_c, 0, 86, 85
1, 66735, Note_on_c, 0, 64, 0
1, 66735, Note_on_c, 0, 62, 0
1, 66735, Note_on_c, 0, 58, 0
1, 66738, Note_on_c, 0, 34, 66
1, 66738, Note_on_c, 0, 41, 66
1, 66882, Note_on_c, 0, 82, 0
1, 66882, Note_on_c, 0, 76, 45
1, 67032, Note_on_c, 0, 76, 0
1, 67032, Note_on_c, 0, 86, 0
1, 67032, Note_on_c, 0, 82, 62
1, 67035, Note_on_c, 0, 86, 83
1, 67035, Note_on_c, 0, 65, 62
1, 67185, Note_on_c, 0, 82, 0
1, 67185, Note_on_c, 0, 77, 45
1, 67339, Note_on_c, 0, 77, 0
1, 67339, Note_on_c, 0, 86, 0
1, 67339, Note_on_c, 0, 82, 73
1, 67342, Control_c, 0, 64, 127
1, 67342, Note_on_c, 0, 86, 73
1, 67342, Note_on_c, 0, 65, 0
1, 67345, Note_on_c, 0, 55, 39
1, 67345, Note_on_c, 0, 58, 39
1, 67345, Note_on_c, 0, 62, 62
1, 67487, Note_on_c, 0, 86, 0
1, 67487, Note_on_c, 0, 82, 0
1, 67487, Note_on_c, 0, 74, 49
1, 67635, Note_on_c, 0, 74, 0
1, 67635, Note_on_c, 0, 82, 72
1, 67635, Note_on_c, 0, 86, 72
1, 67783, Note_on_c, 0, 86, 0
1, 67783, Note_on_c, 0, 82, 0
1, 67783, Note_on_c, 0, 74, 49
1, 67931, Note_on_c, 0, 74, 0
1, 67931, Note_on_c, 0, 82, 65
1, 67931, Note_on_c, 0, 86, 65
1, 67934, Note_on_c, 0, 62, 0
1, 67934, Note_on_c, 0, 60, 60
1, 68084, Note_on_c, 0, 86, 0
1, 68084, Note_on_c, 0, 82, 0
1, 68084, Note_on_c, 0, 72, 46
1, 68236, Note_on_c, 0, 72, 0
1, 68236, Note_on_c, 0, 82, 61
1, 68236, Note_on_c, 0, 86, 61
1, 68239, Note_on_c, 0, 60, 0
1, 68239, Note_on_c, 0, 62, 57
1, 68398, Note_on_c, 0, 86, 0
1, 68398, Note_on_c, 0, 82, 0
1, 68398, Note_on_c, 0, 74, 44
1, 68515, Control_c, 0, 64, 0
1, 68534, Note_on_c, 0, 74, 0
1, 68534, Note_on_c, 0, 62, 0
1, 68561, Note_on_c, 0, 83, 57
1, 68561, Note_on_c, 0, 88, 57
1, 68561, Note_on_c, 0, 55, 0
1, 68564, Note_on_c, 0, 34, 0
1, 68564, Note_on_c, 0, 41, 0
1, 68564, Note_on_c, 0, 58, 0
1, 68567, Note_on_c, 0, 28, 52
1, 68567, Note_on_c, 0, 40, 52
1, 68611, Control_c, 0, 64, 127
1, 68703, Note_on_c, 0, 88, 0
1, 68703, Note_on_c, 0, 83, 0
1, 68703, Note_on_c, 0, 76, 50
1, 68842, Note_on_c, 0, 76, 0
1, 68842, Note_on_c, 0, 71, 50
1, 68842, Note_on_c, 0, 76, 50
1, 68850, Control_c, 0, 64, 0
1, 68890, Control_c, 0, 64, 127
1, 68980, Note_on_c, 0, 76, 0
1, 68980, Note_on_c, 0, 71, 0
1, 68980, Note_on_c, 0, 64, 50
1, 69094, Control_c, 0, 64, 0
1, 69118, Note_on_c, 0, 64, 0
1, 69118, Note_on_c, 0, 76, 58
1, 69118, Note_on_c, 0, 69, 58
1, 69121, Note_on_c, 0, 40, 0
1, 69121, Note_on_c, 0, 28, 0
1, 69121, Note_on_c, 0, 29, 54
1, 69124, Note_on_c, 0, 41, 54
1, 69168, Control_c, 0, 64, 127
1, 69261, Note_on_c, 0, 69, 0
1, 69261, Note_on_c, 0, 76, 0
1, 69261, Note_on_c, 0, 64, 54
1, 69376, Control_c, 0, 64, 0
1, 69400, Note_on_c, 0, 64, 0
1, 69400, Note_on_c, 0, 57, 58
1, 69400, Note_on_c, 0, 64, 58
1, 69449, Control_c, 0, 64, 127
1, 69539, Note_on_c, 0, 64, 0
1, 69539, Note_on_c, 0, 57, 0
1, 69539, Note_on_c, 0, 52, 54
1, 69678, Note_on_c, 0, 52, 0
1, 69678, Note_on_c, 0, 59, 60
1, 69678, Note_on_c, 0, 64, 60
1, 69681, Note_on_c, 0, 41, 0
1, 69681, Note_on_c, 0, 29, 0
1, 69681, Note_on_c, 0, 31, 58
1, 69684, Note_on_c, 0, 43, 58
1, 69687, Control_c, 0, 64, 0
1, 69750, Control_c, 0, 64, 127
1, 69821, Note_on_c, 0, 64, 0
1, 69821, Note_on_c, 0, 59, 0
1, 69821, Note_on_c, 0, 52, 58
1, 69960, Note_on_c, 0, 52, 0
1, 69960, Note_on_c, 0, 59, 61
1, 69960, Note_on_c, 0, 64, 61
1, 70099, Note_on_c, 0, 64, 0
1, 70099, Note_on_c, 0, 59, 0
1, 70099, Note_on_c, 0, 52, 59
1, 70174, Control_c, 0, 64, 0
1, 70239, Note_on_c, 0, 52, 0
1, 70239, Control_c, 0, 64, 127
1, 70239, Note_on_c, 0, 60, 64
1, 70242, Note_on_c, 0, 64, 64
1, 70242, Note_on_c, 0, 43, 0
1, 70242, Note_on_c, 0, 31, 0
1, 70245, Note_on_c, 0, 33, 60
1, 70245, Note_on_c, 0, 45, 60
1, 70378, Note_on_c, 0, 64, 0
1, 70378, Note_on_c, 0, 60, 0
1, 70378, Note_on_c, 0, 52, 60
1, 70517, Note_on_c, 0, 52, 0
1, 70517, Note_on_c, 0, 60, 64
1, 70517, Note_on_c, 0, 64, 64
1, 70656, Note_on_c, 0, 64, 0
1, 70656, Note_on_c, 0, 60, 0
1, 70656, Note_on_c, 0, 52, 61
1, 70715, Control_c, 0, 64, 0
1, 70795, Note_on_c, 0, 52, 0
1, 70795, Note_on_c, 0, 64, 62
1, 70795, Control_c, 0, 64, 127
1, 70798, Note_on_c, 0, 62, 62
1, 70798, Note_on_c, 0, 45, 0
1, 70798, Note_on_c, 0, 33, 0
1, 70801, Note_on_c, 0, 35, 54
1, 70801, Note_on_c, 0, 47, 54
1, 70937, Note_on_c, 0, 62, 0
1, 70937, Note_on_c, 0, 64, 0
1, 70937, Note_on_c, 0, 52, 60
1, 71079, Note_on_c, 0, 52, 0
1, 71079, Note_on_c, 0, 60, 62
1, 71079, Note_on_c, 0, 64, 62
1, 71082, Note_on_c, 0, 47, 0
1, 71082, Note_on_c, 0, 35, 0
1, 71082, Note_on_c, 0, 33, 54
1, 71085, Note_on_c, 0, 45, 54
1, 71224, Note_on_c, 0, 64, 0
1, 71224, Note_on_c, 0, 60, 0
1, 71224, Note_on_c, 0, 52, 60
1, 71293, Control_c, 0, 64, 0
1, 71369, Note_on_c, 0, 52, 0
1, 71369, Note_on_c, 0, 59, 53
1, 71369, Note_on_c, 0, 62, 53
1, 71372, Note_on_c, 0, 65, 53
1, 71372, Note_on_c, 0, 45, 0
1, 71372, Note_on_c, 0, 33, 0
1, 71375, Note_on_c, 0, 31, 52
1, 71375, Note_on_c, 0, 43, 52
1, 71679, Note_on_c, 0, 65, 0
1, 71679, Note_on_c, 0, 69, 51
1, 71679, Note_on_c, 0, 43, 0
1, 71682, Note_on_c, 0, 31, 0
1, 71682, Note_on_c, 0, 29, 51
1, 71682, Note_on_c, 0, 41, 51
1, 72010, Note_on_c, 0, 69, 0
1, 72010, Note_on_c, 0, 62, 0
1, 72010, Note_on_c, 0, 59, 0
1, 72013, Control_c, 0, 64, 127
1, 72013, Note_on_c, 0, 83, 57
1, 72013, Note_on_c, 0, 88, 57
1, 72016, Note_on_c, 0, 41, 0
1, 72016, Note_on_c, 0, 29, 0
1, 72016, Note_on_c, 0, 28, 52
1, 72019, Note_on_c, 0, 40, 52
1, 72152, Note_on_c, 0, 88, 0
1, 72152, Note_on_c, 0, 83, 0
1, 72152, Note_on_c, 0, 76, 50
1, 72242, Control_c, 0, 64, 0
1, 72291, Note_on_c, 0, 76, 0
1, 72291, Note_on_c, 0, 71, 50
1, 72291, Note_on_c, 0, 76, 50
1, 72307, Control_c, 0, 64, 127
1, 72429, Note_on_c, 0, 76, 0
1, 72429, Note_on_c, 0, 71, 0
1, 72429, Note_on_c, 0, 64, 50
1, 72551, Control_c, 0, 64, 0
1, 72567, Note_on_c, 0, 64, 0
1, 72567, Note_on_c, 0, 69, 58
1, 72567, Note_on_c, 0, 76, 58
1, 72570, Note_on_c, 0, 40, 0
1, 72570, Note_on_c, 0, 28, 0
1, 72570, Note_on_c, 0, 29, 54
1, 72573, Note_on_c, 0, 41, 54
1, 72609, Control_c, 0, 64, 127
1, 72710, Note_on_c, 0, 76, 0
1, 72710, Note_on_c, 0, 69, 0
1, 72710, Note_on_c, 0, 64, 54
1, 72825, Control_c, 0, 64, 0
1, 72849, Note_on_c, 0, 64, 0
1, 72849, Note_on_c, 0, 64, 58
1, 72849, Note_on_c, 0, 57, 58
1, 72890, Control_c, 0, 64, 127
1, 72988, Note_on_c, 0, 57, 0
1, 72988, Note_on_c, 0, 64, 0
1, 72988, Note_on_c, 0, 52, 54
1, 73128, Note_on_c, 0, 52, 0
1, 73128, Note_on_c, 0, 59, 59
1, 73128, Note_on_c, 0, 64, 59
1, 73131, Note_on_c, 0, 41, 0
1, 73131, Note_on_c, 0, 29, 0
1, 73131, Note_on_c, 0, 31, 54
1, 73134, Note_on_c, 0, 43, 54
1, 73134, Control_c, 0, 64, 0
1, 73199, Control_c, 0, 64, 127
1, 73270, Note_on_c, 0, 64, 0
1, 73270, Note_on_c, 0, 59, 0
1, 73270, Note_on_c, 0, 52, 55
1, 73409, Note_on_c, 0, 52, 0
1, 73409, Note_on_c, 0, 59, 59
1, 73409, Note_on_c, 0, 64, 59
1, 73548, Note_on_c, 0, 64, 0
1, 73548, Note_on_c, 0, 59, 0
1, 73548, Note_on_c, 0, 52, 55
1, 73688, Note_on_c, 0, 52, 0
1, 73688, Control_c, 0, 64, 0
1, 73688, Note_on_c, 0, 60, 58
1, 73691, Note_on_c, 0, 64, 58
1, 73691, Note_on_c, 0, 43, 0
1, 73691, Note_on_c, 0, 31, 0
1, 73694, Note_on_c, 0, 33, 47
1, 73694, Note_on_c, 0, 45, 47
1, 73732, Control_c, 0, 64, 127
1, 73827, Note_on_c, 0, 64, 0
1, 73827, Note_on_c, 0, 60, 0
1, 73827, Note_on_c, 0, 52, 53
1, 73966, Note_on_c, 0, 52, 0
1, 73966, Note_on_c, 0, 60, 57
1, 73966, Note_on_c, 0, 64, 57
1, 74109, Note_on_c, 0, 64, 0
1, 74109, Note_on_c, 0, 60, 0
1, 74109, Note_on_c, 0, 52, 53
1, 74237, Control_c, 0, 64, 0
1, 74253, Note_on_c, 0, 52, 0
1, 74253, Note_on_c, 0, 62, 53
1, 74253, Note_on_c, 0, 64, 53
1, 74256, Note_on_c, 0, 45, 0
1, 74256, Note_on_c, 0, 33, 0
1, 74256, Note_on_c, 0, 47, 43
1, 74259, Note_on_c, 0, 35, 43
1, 74301, Control_c, 0, 64, 127
1, 74406, Note_on_c, 0, 64, 0
1, 74406, Note_on_c, 0, 62, 0
1, 74406, Note_on_c, 0, 52, 51
1, 74558, Note_on_c, 0, 52, 0
1, 74558, Note_on_c, 0, 64, 52
1, 74558, Note_on_c, 0, 62, 52
1, 74722, Note_on_c, 0, 62, 0
1, 74722, Note_on_c, 0, 64, 0
1, 74722, Note_on_c, 0, 52, 50
1, 74885, Note_on_c, 0, 52, 0
1, 74885, Control_c, 0, 64, 0
1, 74885, Note_on_c, 0, 64, 51
1, 74888, Note_on_c, 0, 35, 0
1, 74888, Note_on_c, 0, 47, 0
1, 74888, Note_on_c, 0, 36, 39
1, 74891, Note_on_c, 0, 48, 39
1, 74990, Control_c, 0, 64, 127
1, 75067, Note_on_c, 0, 64, 0
1, 75067, Note_on_c, 0, 52, 45
1, 75250, Note_on_c, 0, 52, 0
1, 75250, Note_on_c, 0, 64, 47
1, 75480, Note_on_c, 0, 64, 0
1, 75480, Control_c, 0, 64, 0
1, 75480, Note_on_c, 0, 52, 43
1, 75596, Note_on_c, 0, 38, 39
1, 75634, Note_on_c, 0, 45, 44
1, 75673, Note_on_c, 0, 52, 0
1, 75673, Note_on_c, 0, 69, 57
1, 75673, Control_c, 0, 91, 127
1, 75676, Note_on_c, 0, 48, 0
1, 75676, Note_on_c, 0, 36, 0
1, 75676, Note_on_c, 0, 54, 49
1, 75679, Control_c, 0, 91, 127
1, 75679, Note_on_c, 0, 60, 49
1, 75679, Note_on_c, 0, 64, 49
1, 75711, Note_on_c, 0, 69, 0
1, 75711, Note_on_c, 0, 54, 0
1, 75711, Note_on_c, 0, 38, 0
1, 75714, Note_on_c, 0, 45, 0
1, 75714, Note_on_c, 0, 64, 0
1, 75714, Note_on_c, 0, 60, 0
1, 75825, Note_on_c, 0, 71, 54
1, 75862, Note_on_c, 0, 71, 0
1, 75973, Note_on_c, 0, 72, 57
1, 76009, Note_on_c, 0, 72, 0
1, 76118, Note_on_c, 0, 74, 55
1, 76158, Note_on_c, 0, 74, 0
1, 76276, Note_on_c, 0, 71, 57
1, 76404, Note_on_c, 0, 71, 0
1, 76429, Note_on_c, 0, 71, 51
1, 76503, Note_on_c, 0, 71, 0
1, 76503, Note_on_c, 0, 72, 51
1, 76578, Note_on_c, 0, 72, 0
1, 76578, Note_on_c, 0, 71, 57
1, 76722, Note_on_c, 0, 71, 0
1, 76722, Note_on_c, 0, 69, 57
1, 76802, Note_on_c, 0, 38, 37
1, 76841, Note_on_c, 0, 69, 0
1, 76841, Note_on_c, 0, 45, 43
1, 76881, Note_on_c, 0, 60, 45
1, 76881, Note_on_c, 0, 64, 45
1, 76881, Note_on_c, 0, 71, 61
1, 76884, Note_on_c, 0, 54, 46
1, 76938, Note_on_c, 0, 71, 0
1, 76995, Note_on_c, 0, 64, 0
1, 76995, Note_on_c, 0, 60, 0
1, 77033, Note_on_c, 0, 54, 0
1, 77033, Note_on_c, 0, 45, 0
1, 77033, Note_on_c, 0, 38, 0
1, 77185, Note_on_c, 0, 72, 55
1, 77305, Note_on_c, 0, 72, 0
1, 77426, Note_on_c, 0, 38, 49
1, 77467, Note_on_c, 0, 45, 49
1, 77507, Note_on_c, 0, 71, 58
1, 77507, Note_on_c, 0, 64, 49
1, 77507, Note_on_c, 0, 60, 49
1, 77510, Note_on_c, 0, 54, 49
1, 77545, Note_on_c, 0, 54, 0
1, 77545, Note_on_c, 0, 45, 0
1, 77545, Note_on_c, 0, 38, 0
1, 77662, Note_on_c, 0, 71, 0
1, 77662, Note_on_c, 0, 72, 55
1, 77812, Note_on_c, 0, 72, 0
1, 77812, Note_on_c, 0, 60, 0
1, 77812, Note_on_c, 0, 64, 0
1, 77815, Note_on_c, 0, 74, 58
1, 77886, Note_on_c, 0, 74, 0
1, 77960, Note_on_c, 0, 76, 55
1, 78034, Note_on_c, 0, 76, 0
1, 78108, Note_on_c, 0, 78, 58
1, 78108, Note_on_c, 0, 69, 51
1, 78145, Note_on_c, 0, 69, 0
1, 78182, Note_on_c, 0, 78, 0
1, 78256, Note_on_c, 0, 78, 55
1, 78304, Note_on_c, 0, 78, 0
1, 78304, Note_on_c, 0, 79, 53
1, 78352, Note_on_c, 0, 79, 0
1, 78352, Note_on_c, 0, 78, 53
1, 78400, Note_on_c, 0, 78, 0
1, 78400, Note_on_c, 0, 76, 58
1, 78549, Note_on_c, 0, 76, 0
1, 78549, Note_on_c, 0, 74, 55
1, 78706, Note_on_c, 0, 74, 0
1, 78706, Note_on_c, 0, 72, 58
1, 78706, Note_on_c, 0, 62, 51
1, 78747, Note_on_c, 0, 62, 0
1, 78868, Note_on_c, 0, 72, 0
1, 78868, Note_on_c, 0, 74, 53
1, 79038, Note_on_c, 0, 74, 0
1, 79038, Note_on_c, 0, 76, 53
1, 79376, Note_on_c, 0, 76, 0
1, 79376, Note_on_c, 0, 74, 49
1, 79376, Note_on_c, 0, 81, 57
1, 79379, Control_c, 0, 91, 127
1, 79379, Note_on_c, 0, 60, 44
1, 79379, Note_on_c, 0, 62, 44
1, 79382, Note_on_c, 0, 65, 49
1, 79414, Note_on_c, 0, 81, 0
1, 79529, Note_on_c, 0, 83, 54
1, 79565, Note_on_c, 0, 83, 0
1, 79673, Note_on_c, 0, 84, 57
1, 79708, Note_on_c, 0, 84, 0
1, 79814, Note_on_c, 0, 86, 55
1, 79853, Note_on_c, 0, 86, 0
1, 79972, Note_on_c, 0, 83, 57
1, 80099, Note_on_c, 0, 83, 0
1, 80125, Note_on_c, 0, 83, 51
1, 80197, Note_on_c, 0, 83, 0
1, 80197, Note_on_c, 0, 84, 51
1, 80269, Note_on_c, 0, 84, 0
1, 80269, Note_on_c, 0, 83, 57
1, 80410, Note_on_c, 0, 83, 0
1, 80410, Note_on_c, 0, 81, 57
1, 80529, Note_on_c, 0, 81, 0
1, 80569, Note_on_c, 0, 83, 61
1, 80626, Note_on_c, 0, 83, 0
1, 80872, Note_on_c, 0, 84, 55
1, 80993, Note_on_c, 0, 84, 0
1, 81194, Note_on_c, 0, 74, 0
1, 81194, Note_on_c, 0, 74, 49
1, 81194, Note_on_c, 0, 83, 58
1, 81197, Note_on_c, 0, 65, 0
1, 81197, Note_on_c, 0, 66, 49
1, 81349, Note_on_c, 0, 83, 0
1, 81349, Note_on_c, 0, 84, 55
1, 81500, Note_on_c, 0, 84, 0
1, 81500, Note_on_c, 0, 86, 58
1, 81574, Note_on_c, 0, 86, 0
1, 81648, Note_on_c, 0, 88, 55
1, 81722, Note_on_c, 0, 88, 0
1, 81796, Note_on_c, 0, 90, 58
1, 81796, Note_on_c, 0, 66, 0
1, 81796, Note_on_c, 0, 69, 49
1, 81870, Note_on_c, 0, 90, 0
1, 81944, Note_on_c, 0, 90, 55
1, 81991, Note_on_c, 0, 90, 0
1, 81991, Note_on_c, 0, 91, 53
1, 82039, Note_on_c, 0, 91, 0
1, 82039, Note_on_c, 0, 90, 53
1, 82087, Note_on_c, 0, 90, 0
1, 82087, Note_on_c, 0, 88, 58
1, 82237, Note_on_c, 0, 88, 0
1, 82237, Note_on_c, 0, 86, 55
1, 82394, Note_on_c, 0, 86, 0
1, 82394, Note_on_c, 0, 84, 58
1, 82394, Note_on_c, 0, 69, 0
1, 82397, Note_on_c, 0, 62, 0
1, 82397, Note_on_c, 0, 60, 0
1, 82397, Note_on_c, 0, 38, 49
1, 82556, Note_on_c, 0, 84, 0
1, 82556, Note_on_c, 0, 86, 53
1, 82556, Note_on_c, 0, 38, 0
1, 82725, Note_on_c, 0, 86, 0
1, 82725, Note_on_c, 0, 88, 53
1, 82979, Note_on_c, 0, 55, 42
1, 83021, Note_on_c, 0, 62, 46
1, 83064, Note_on_c, 0, 74, 0
1, 83064, Note_on_c, 0, 71, 49
1, 83215, Note_on_c, 0, 88, 0
1, 83215, Note_on_c, 0, 86, 54
1, 83289, Note_on_c, 0, 86, 0
1, 83326, Note_on_c, 0, 62, 0
1, 83362, Note_on_c, 0, 83, 53
1, 83362, Note_on_c, 0, 71, 0
1, 83362, Note_on_c, 0, 55, 0
1, 83436, Note_on_c, 0, 83, 0
1, 83509, Note_on_c, 0, 81, 53
1, 83583, Note_on_c, 0, 81, 0
1, 83656, Note_on_c, 0, 83, 57
1, 83732, Note_on_c, 0, 83, 0
1, 83807, Note_on_c, 0, 79, 53
1, 83880, Note_on_c, 0, 79, 0
1, 83952, Note_on_c, 0, 76, 53
1, 84025, Note_on_c, 0, 76, 0
1, 84098, Note_on_c, 0, 74, 53
1, 84175, Note_on_c, 0, 74, 0
1, 84251, Note_on_c, 0, 72, 59
1, 84251, Note_on_c, 0, 67, 42
1, 84251, Note_on_c, 0, 76, 42
1, 84254, Note_on_c, 0, 48, 43
1, 84254, Note_on_c, 0, 64, 43
1, 84254, Note_on_c, 0, 55, 43
1, 84563, Note_on_c, 0, 72, 0
1, 84563, Note_on_c, 0, 69, 50
1, 84813, Note_on_c, 0, 43, 49
1, 84855, Note_on_c, 0, 50, 49
1, 84897, Note_on_c, 0, 69, 0
1, 84897, Note_on_c, 0, 67, 0
1, 84897, Note_on_c, 0, 71, 40
1, 84900, Note_on_c, 0, 67, 40
1, 84900, Note_on_c, 0, 62, 40
1, 84900, Note_on_c, 0, 55, 0
1, 84903, Note_on_c, 0, 48, 0
1, 84903, Note_on_c, 0, 64, 0
1, 84903, Note_on_c, 0, 59, 49
1, 85048, Note_on_c, 0, 76, 0
1, 85048, Note_on_c, 0, 74, 54
1, 85122, Note_on_c, 0, 74, 0
1, 85195, Note_on_c, 0, 71, 53
1, 85195, Note_on_c, 0, 59, 0
1, 85195, Note_on_c, 0, 43, 0
1, 85198, Note_on_c, 0, 50, 0
1, 85269, Note_on_c, 0, 71, 0
1, 85342, Note_on_c, 0, 69, 53
1, 85416, Note_on_c, 0, 69, 0
1, 85489, Note_on_c, 0, 62, 0
1, 85489, Note_on_c, 0, 67, 0
1, 85489, Note_on_c, 0, 71, 0
1, 85492, Note_on_c, 0, 71, 57
1, 85565, Note_on_c, 0, 71, 0
1, 85640, Note_on_c, 0, 67, 53
1, 85713, Note_on_c, 0, 67, 0
1, 85785, Note_on_c, 0, 64, 53
1, 85858, Note_on_c, 0, 64, 0
1, 85931, Note_on_c, 0, 62, 53
1, 86008, Note_on_c, 0, 62, 0
1, 86085, Note_on_c, 0, 64, 40
1, 86085, Note_on_c, 0, 60, 57
1, 86085, Note_on_c, 0, 45, 43
1, 86088, Note_on_c, 0, 48, 43
1, 86412, Note_on_c, 0, 60, 0
1, 86412, Note_on_c, 0, 57, 50
1, 86412, Note_on_c, 0, 45, 0
1, 86415, Note_on_c, 0, 42, 43
1, 86766, Note_on_c, 0, 57, 0
1, 86766, Note_on_c, 0, 55, 46
1, 86766, Control_c, 0, 91, 127
1, 86769, Note_on_c, 0, 42, 0
1, 86769, Note_on_c, 0, 40, 43
1, 86922, Note_on_c, 0, 64, 0
1, 86922, Note_on_c, 0, 66, 52
1, 87074, Note_on_c, 0, 66, 0
1, 87074, Note_on_c, 0, 67, 52
1, 87146, Note_on_c, 0, 67, 0
1, 87218, Note_on_c, 0, 69, 52
1, 87294, Note_on_c, 0, 69, 0
1, 87370, Note_on_c, 0, 64, 55
1, 87496, Note_on_c, 0, 64, 0
1, 87521, Note_on_c, 0, 64, 51
1, 87596, Note_on_c, 0, 64, 0
1, 87596, Note_on_c, 0, 66, 51
1, 87670, Note_on_c, 0, 66, 0
1, 87670, Note_on_c, 0, 64, 55
1, 87815, Note_on_c, 0, 64, 0
1, 87815, Note_on_c, 0, 62, 51
1, 87929, Note_on_c, 0, 62, 0
1, 87967, Note_on_c, 0, 64, 57
1, 87967, Note_on_c, 0, 48, 0
1, 87967, Note_on_c, 0, 47, 43
1, 88063, Note_on_c, 0, 64, 0
1, 88276, Note_on_c, 0, 67, 57
1, 88368, Note_on_c, 0, 67, 0
1, 88570, Note_on_c, 0, 55, 0
1, 88570, Note_on_c, 0, 71, 57
1, 88570, Note_on_c, 0, 62, 57
1, 88573, Note_on_c, 0, 67, 57
1, 88573, Note_on_c, 0, 47, 0
1, 88573, Note_on_c, 0, 40, 0
1, 88576, Note_on_c, 0, 33, 51
1, 88576, Note_on_c, 0, 45, 51
1, 88664, Note_on_c, 0, 67, 0
1, 88664, Note_on_c, 0, 62, 0
1, 88664, Note_on_c, 0, 71, 0
1, 88872, Note_on_c, 0, 60, 53
1, 88872, Note_on_c, 0, 64, 53
1, 88872, Note_on_c, 0, 69, 53
1, 88875, Note_on_c, 0, 45, 0
1, 88875, Note_on_c, 0, 33, 0
1, 88966, Note_on_c, 0, 69, 0
1, 88966, Note_on_c, 0, 64, 0
1, 88966, Note_on_c, 0, 60, 0
1, 89173, Note_on_c, 0, 57, 57
1, 89267, Note_on_c, 0, 57, 0
1, 89475, Note_on_c, 0, 52, 53
1, 89569, Note_on_c, 0, 52, 0
1, 89776, Note_on_c, 0, 45, 65
1, 89889, Note_on_c, 0, 45, 0
1, 90078, Note_on_c, 0, 43, 64
1, 90191, Note_on_c, 0, 43, 0
1, 90380, Note_on_c, 0, 69, 95
1, 90380, Note_on_c, 0, 81, 95
1, 90380, Note_on_c, 0, 29, 95
1, 90383, Note_on_c, 0, 41, 95
1, 90393, Control_c, 0, 64, 127
1, 90527, Note_on_c, 0, 81, 0
1, 90527, Note_on_c, 0, 79, 87
1, 90600, Note_on_c, 0, 79, 0
1, 90600, Note_on_c, 0, 77, 87
1, 90672, Note_on_c, 0, 77, 0
1, 90672, Note_on_c, 0, 76, 87
1, 90745, Note_on_c, 0, 76, 0
1, 90745, Note_on_c, 0, 74, 87
1, 90817, Note_on_c, 0, 74, 0
1, 90817, Note_on_c, 0, 72, 87
1, 90890, Note_on_c, 0, 72, 0
1, 90890, Note_on_c, 0, 71, 87
1, 90924, Control_c, 0, 64, 0
1, 90963, Note_on_c, 0, 71, 0
1, 90963, Note_on_c, 0, 69, 0
1, 90963, Note_on_c, 0, 69, 95
1, 90985, Control_c, 0, 64, 127
1, 91111, Note_on_c, 0, 67, 85
1, 91183, Note_on_c, 0, 67, 0
1, 91183, Note_on_c, 0, 65, 85
1, 91256, Note_on_c, 0, 65, 0
1, 91256, Note_on_c, 0, 64, 85
1, 91328, Note_on_c, 0, 64, 0
1, 91328, Note_on_c, 0, 62, 85
1, 91401, Note_on_c, 0, 62, 0
1, 91401, Note_on_c, 0, 60, 85
1, 91474, Note_on_c, 0, 60, 0
1, 91474, Note_on_c, 0, 59, 85
1, 91491, Control_c, 0, 64, 0
1, 91546, Note_on_c, 0, 59, 0
1, 91546, Note_on_c, 0, 57, 95
1, 91699, Note_on_c, 0, 72, 81
1, 91711, Note_on_c, 0, 69, 0
1, 91820, Note_on_c, 0, 72, 0
1, 91844, Note_on_c, 0, 71, 84
1, 91844, Note_on_c, 0, 57, 0
1, 91844, Note_on_c, 0, 55, 84
1, 91996, Note_on_c, 0, 74, 81
1, 92008, Note_on_c, 0, 71, 0
1, 92118, Note_on_c, 0, 74, 0
1, 92142, Note_on_c, 0, 65, 73
1, 92142, Note_on_c, 0, 72, 84
1, 92142, Note_on_c, 0, 55, 0
1, 92145, Note_on_c, 0, 41, 0
1, 92145, Note_on_c, 0, 29, 0
1, 92145, Note_on_c, 0, 57, 88
1, 92293, Note_on_c, 0, 76, 81
1, 92305, Note_on_c, 0, 72, 0
1, 92414, Note_on_c, 0, 76, 0
1, 92439, Note_on_c, 0, 74, 83
1, 92439, Note_on_c, 0, 57, 0
1, 92439, Note_on_c, 0, 59, 82
1, 92589, Note_on_c, 0, 77, 84
1, 92602, Note_on_c, 0, 74, 0
1, 92711, Note_on_c, 0, 77, 0
1, 92736, Note_on_c, 0, 76, 88
1, 92736, Note_on_c, 0, 59, 0
1, 92736, Note_on_c, 0, 60, 79
1, 92888, Note_on_c, 0, 72, 76
1, 92901, Note_on_c, 0, 76, 0
1, 93037, Note_on_c, 0, 71, 74
1, 93037, Note_on_c, 0, 60, 0
1, 93037, Note_on_c, 0, 62, 77
1, 93049, Note_on_c, 0, 72, 0
1, 93186, Note_on_c, 0, 67, 69
1, 93198, Note_on_c, 0, 71, 0
1, 93335, Note_on_c, 0, 67, 0
1, 93335, Note_on_c, 0, 65, 0
1, 93335, Note_on_c, 0, 65, 69
1, 93338, Note_on_c, 0, 62, 69
1, 93338, Note_on_c, 0, 62, 0
1, 93338, Note_on_c, 0, 59, 69
1, 93656, Note_on_c, 0, 62, 0
1, 93656, Note_on_c, 0, 65, 0
1, 93656, Note_on_c, 0, 64, 69
1, 93659, Note_on_c, 0, 67, 69
1, 93659, Note_on_c, 0, 59, 0
1, 93659, Note_on_c, 0, 57, 67
1, 93818, Note_on_c, 0, 57, 0
1, 93818, Note_on_c, 0, 55, 64
1, 93940, Note_on_c, 0, 67, 0
1, 93940, Note_on_c, 0, 64, 0
1, 93980, Note_on_c, 0, 69, 95
1, 93980, Note_on_c, 0, 81, 95
1, 93980, Note_on_c, 0, 55, 0
1, 93983, Control_c, 0, 64, 127
1, 93983, Note_on_c, 0, 29, 95
1, 93983, Note_on_c, 0, 41, 95
1, 94128, Note_on_c, 0, 81, 0
1, 94128, Note_on_c, 0, 79, 87
1, 94200, Note_on_c, 0, 79, 0
1, 94200, Note_on_c, 0, 77, 87
1, 94273, Note_on_c, 0, 77, 0
1, 94273, Note_on_c, 0, 76, 87
1, 94346, Note_on_c, 0, 76, 0
1, 94346, Note_on_c, 0, 74, 87
1, 94418, Note_on_c, 0, 74, 0
1, 94418, Note_on_c, 0, 72, 87
1, 94491, Note_on_c, 0, 72, 0
1, 94491, Note_on_c, 0, 71, 87
1, 94564, Note_on_c, 0, 71, 0
1, 94564, Note_on_c, 0, 69, 0
1, 94564, Note_on_c, 0, 69, 95
1, 94572, Control_c, 0, 64, 0
1, 94603, Control_c, 0, 64, 127
1, 94711, Note_on_c, 0, 67, 85
1, 94784, Note_on_c, 0, 67, 0
1, 94784, Note_on_c, 0, 65, 85
1, 94857, Note_on_c, 0, 65, 0
1, 94857, Note_on_c, 0, 64, 85
1, 94929, Note_on_c, 0, 64, 0
1, 94929, Note_on_c, 0, 62, 85
1, 95002, Note_on_c, 0, 62, 0
1, 95002, Note_on_c, 0, 60, 85
1, 95075, Note_on_c, 0, 60, 0
1, 95075, Note_on_c, 0, 59, 85
1, 95122, Control_c, 0, 64, 0
1, 95147, Note_on_c, 0, 59, 0
1, 95147, Note_on_c, 0, 57, 95
1, 95298, Note_on_c, 0, 72, 81
1, 95310, Note_on_c, 0, 69, 0
1, 95419, Note_on_c, 0, 72, 0
1, 95443, Note_on_c, 0, 71, 84
1, 95443, Note_on_c, 0, 57, 0
1, 95443, Note_on_c, 0, 55, 84
1, 95593, Note_on_c, 0, 74, 81
1, 95605, Note_on_c, 0, 71, 0
1, 95714, Note_on_c, 0, 74, 0
1, 95738, Note_on_c, 0, 65, 73
1, 95738, Note_on_c, 0, 72, 84
1, 95738, Note_on_c, 0, 55, 0
1, 95741, Note_on_c, 0, 41, 0
1, 95741, Note_on_c, 0, 29, 0
1, 95741, Note_on_c, 0, 57, 88
1, 95889, Note_on_c, 0, 76, 81
1, 95901, Note_on_c, 0, 72, 0
1, 96011, Note_on_c, 0, 76, 0
1, 96035, Note_on_c, 0, 74, 83
1, 96035, Note_on_c, 0, 57, 0
1, 96035, Note_on_c, 0, 59, 82
1, 96186, Note_on_c, 0, 77, 84
1, 96198, Note_on_c, 0, 74, 0
1, 96307, Note_on_c, 0, 77, 0
1, 96332, Note_on_c, 0, 76, 88
1, 96332, Note_on_c, 0, 59, 0
1, 96332, Note_on_c, 0, 60, 79
1, 96484, Note_on_c, 0, 72, 74
1, 96497, Note_on_c, 0, 76, 0
1, 96633, Note_on_c, 0, 71, 74
1, 96633, Note_on_c, 0, 60, 0
1, 96633, Note_on_c, 0, 62, 77
1, 96646, Note_on_c, 0, 72, 0
1, 96782, Note_on_c, 0, 67, 72
1, 96795, Note_on_c, 0, 71, 0
1, 96931, Note_on_c, 0, 67, 0
1, 96931, Note_on_c, 0, 65, 0
1, 96931, Note_on_c, 0, 65, 69
1, 96934, Note_on_c, 0, 62, 69
1, 96934, Note_on_c, 0, 62, 0
1, 96934, Note_on_c, 0, 57, 69
1, 97253, Note_on_c, 0, 62, 0
1, 97253, Note_on_c, 0, 65, 0
1, 97253, Note_on_c, 0, 69, 69
1, 97256, Note_on_c, 0, 65, 69
1, 97256, Note_on_c, 0, 57, 0
1, 97256, Note_on_c, 0, 55, 67
1, 97418, Note_on_c, 0, 55, 0
1, 97418, Note_on_c, 0, 53, 64
1, 97543, Note_on_c, 0, 65, 0
1, 97543, Note_on_c, 0, 69, 0
1, 97584, Note_on_c, 0, 67, 95
1, 97584, Note_on_c, 0, 79, 97
1, 97584, Note_on_c, 0, 53, 0
1, 97587, Control_c, 0, 64, 127
1, 97587, Note_on_c, 0, 27, 99
1, 97587, Note_on_c, 0, 39, 99
1, 97731, Note_on_c, 0, 79, 0
1, 97731, Note_on_c, 0, 77, 87
1, 97804, Note_on_c, 0, 77, 0
1, 97804, Note_on_c, 0, 75, 87
1, 97877, Note_on_c, 0, 75, 0
1, 97877, Note_on_c, 0, 74, 87
1, 97949, Note_on_c, 0, 74, 0
1, 97949, Note_on_c, 0, 72, 87
1, 98022, Note_on_c, 0, 72, 0
1, 98022, Note_on_c, 0, 70, 87
1, 98095, Note_on_c, 0, 70, 0
1, 98095, Note_on_c, 0, 69, 87
1, 98164, Control_c, 0, 64, 0
1, 98167, Note_on_c, 0, 69, 0
1, 98167, Note_on_c, 0, 67, 0
1, 98167, Note_on_c, 0, 67, 95
1, 98209, Control_c, 0, 64, 127
1, 98315, Note_on_c, 0, 65, 85
1, 98388, Note_on_c, 0, 65, 0
1, 98388, Note_on_c, 0, 63, 85
1, 98460, Note_on_c, 0, 63, 0
1, 98460, Note_on_c, 0, 62, 85
1, 98533, Note_on_c, 0, 62, 0
1, 98533, Note_on_c, 0, 60, 85
1, 98606, Note_on_c, 0, 60, 0
1, 98606, Note_on_c, 0, 58, 85
1, 98678, Note_on_c, 0, 58, 0
1, 98678, Note_on_c, 0, 57, 85
1, 98713, Control_c, 0, 64, 0
1, 98751, Note_on_c, 0, 57, 0
1, 98751, Note_on_c, 0, 55, 95
1, 98903, Note_on_c, 0, 70, 81
1, 98915, Note_on_c, 0, 67, 0
1, 99024, Note_on_c, 0, 70, 0
1, 99049, Note_on_c, 0, 69, 84
1, 99049, Note_on_c, 0, 55, 0
1, 99049, Note_on_c, 0, 53, 84
1, 99200, Note_on_c, 0, 72, 81
1, 99212, Note_on_c, 0, 69, 0
1, 99322, Note_on_c, 0, 72, 0
1, 99346, Note_on_c, 0, 63, 73
1, 99346, Note_on_c, 0, 70, 84
1, 99346, Note_on_c, 0, 53, 0
1, 99349, Note_on_c, 0, 39, 0
1, 99349, Note_on_c, 0, 27, 0
1, 99349, Note_on_c, 0, 55, 88
1, 99497, Note_on_c, 0, 74, 81
1, 99509, Note_on_c, 0, 70, 0
1, 99619, Note_on_c, 0, 74, 0
1, 99643, Note_on_c, 0, 72, 83
1, 99643, Note_on_c, 0, 55, 0
1, 99643, Note_on_c, 0, 57, 82
1, 99794, Note_on_c, 0, 75, 84
1, 99806, Note_on_c, 0, 72, 0
1, 99916, Note_on_c, 0, 75, 0
1, 99940, Note_on_c, 0, 74, 88
1, 99940, Note_on_c, 0, 57, 0
1, 99940, Note_on_c, 0, 58, 79
1, 100093, Note_on_c, 0, 70, 73
1, 100105, Note_on_c, 0, 74, 0
1, 100242, Note_on_c, 0, 69, 74
1, 100242, Note_on_c, 0, 58, 0
1, 100242, Note_on_c, 0, 60, 77
1, 100254, Note_on_c, 0, 70, 0
1, 100390, Note_on_c, 0, 65, 69
1, 100403, Note_on_c, 0, 69, 0
1, 100539, Note_on_c, 0, 65, 0
1, 100539, Note_on_c, 0, 63, 0
1, 100539, Note_on_c, 0, 60, 69
1, 100542, Note_on_c, 0, 63, 69
1, 100542, Note_on_c, 0, 60, 0
1, 100542, Note_on_c, 0, 57, 69
1, 100861, Note_on_c, 0, 63, 0
1, 100861, Note_on_c, 0, 60, 0
1, 100861, Note_on_c, 0, 65, 69
1, 100864, Note_on_c, 0, 62, 69
1, 100864, Note_on_c, 0, 57, 0
1, 100864, Note_on_c, 0, 55, 67
1, 101023, Note_on_c, 0, 55, 0
1, 101023, Note_on_c, 0, 53, 64
1, 101144, Note_on_c, 0, 62, 0
1, 101144, Note_on_c, 0, 65, 0
1, 101185, Note_on_c, 0, 67, 95
1, 101185, Note_on_c, 0, 79, 97
1, 101185, Note_on_c, 0, 53, 0
1, 101188, Note_on_c, 0, 27, 99
1, 101188, Note_on_c, 0, 39, 99
1, 101188, Control_c, 0, 64, 127
1, 101332, Note_on_c, 0, 79, 0
1, 101332, Note_on_c, 0, 77, 87
1, 101404, Note_on_c, 0, 77, 0
1, 101404, Note_on_c, 0, 75, 87
1, 101477, Note_on_c, 0, 75, 0
1, 101477, Note_on_c, 0, 74, 87
1, 101549, Note_on_c, 0, 74, 0
1, 101549, Note_on_c, 0, 72, 87
1, 101621, Note_on_c, 0, 72, 0
1, 101621, Note_on_c, 0, 70, 87
1, 101693, Note_on_c, 0, 70, 0
1, 101693, Note_on_c, 0, 69, 87
1, 101748, Control_c, 0, 64, 0
1, 101765, Note_on_c, 0, 69, 0
1, 101765, Note_on_c, 0, 67, 0
1, 101765, Note_on_c, 0, 67, 95
1, 101782, Control_c, 0, 64, 127
1, 101913, Note_on_c, 0, 65, 85
1, 101985, Note_on_c, 0, 65, 0
1, 101985, Note_on_c, 0, 63, 85
1, 102057, Note_on_c, 0, 63, 0
1, 102057, Note_on_c, 0, 62, 85
1, 102130, Note_on_c, 0, 62, 0
1, 102130, Note_on_c, 0, 60, 85
1, 102202, Note_on_c, 0, 60, 0
1, 102202, Note_on_c, 0, 58, 85
1, 102274, Note_on_c, 0, 58, 0
1, 102274, Note_on_c, 0, 57, 85
1, 102329, Control_c, 0, 64, 0
1, 102346, Note_on_c, 0, 57, 0
1, 102346, Note_on_c, 0, 55, 95
1, 102499, Note_on_c, 0, 70, 81
1, 102511, Note_on_c, 0, 67, 0
1, 102620, Note_on_c, 0, 70, 0
1, 102644, Note_on_c, 0, 69, 84
1, 102644, Note_on_c, 0, 55, 0
1, 102644, Note_on_c, 0, 53, 84
1, 102796, Note_on_c, 0, 72, 81
1, 102808, Note_on_c, 0, 69, 0
1, 102917, Note_on_c, 0, 72, 0
1, 102942, Note_on_c, 0, 63, 73
1, 102942, Note_on_c, 0, 70, 84
1, 102942, Note_on_c, 0, 53, 0
1, 102945, Note_on_c, 0, 39, 0
1, 102945, Note_on_c, 0, 27, 0
1, 102945, Note_on_c, 0, 55, 88
1, 103092, Note_on_c, 0, 74, 81
1, 103105, Note_on_c, 0, 70, 0
1, 103214, Note_on_c, 0, 74, 0
1, 103238, Note_on_c, 0, 72, 83
1, 103238, Note_on_c, 0, 55, 0
1, 103238, Note_on_c, 0, 57, 82
1, 103389, Note_on_c, 0, 75, 84
1, 103401, Note_on_c, 0, 72, 0
1, 103511, Note_on_c, 0, 75, 0
1, 103535, Note_on_c, 0, 74, 88
1, 103535, Note_on_c, 0, 57, 0
1, 103535, Note_on_c, 0, 58, 79
1, 103688, Note_on_c, 0, 70, 73
1, 103700, Note_on_c, 0, 74, 0
1, 103837, Note_on_c, 0, 69, 79
1, 103837, Note_on_c, 0, 58, 0
1, 103837, Note_on_c, 0, 60, 77
1, 103849, Note_on_c, 0, 70, 0
1, 103986, Note_on_c, 0, 65, 68
1, 103998, Note_on_c, 0, 69, 0
1, 104135, Note_on_c, 0, 65, 0
1, 104135, Note_on_c, 0, 63, 0
1, 104135, Note_on_c, 0, 60, 69
1, 104138, Note_on_c, 0, 63, 69
1, 104138, Note_on_c, 0, 60, 0
1, 104138, Note_on_c, 0, 57, 69
1, 104456, Note_on_c, 0, 63, 0
1, 104456, Note_on_c, 0, 60, 0
1, 104456, Note_on_c, 0, 67, 69
1, 104459, Note_on_c, 0, 63, 52
1, 104459, Note_on_c, 0, 57, 0
1, 104459, Note_on_c, 0, 58, 67
1, 104618, Note_on_c, 0, 58, 0
1, 104618, Note_on_c, 0, 60, 64
1, 104695, Note_on_c, 0, 63, 0
1, 104695, Note_on_c, 0, 67, 0
1, 104772, Note_on_c, 0, 66, 61
1, 104772, Note_on_c, 0, 62, 61
1, 104772, Note_on_c, 0, 60, 0
1, 104775, Note_on_c, 0, 50, 59
1, 104775, Note_on_c, 0, 57, 59
1, 105218, Note_on_c, 0, 62, 0
1, 105218, Note_on_c, 0, 66, 0
1, 105218, Note_on_c, 0, 60, 45
1, 105221, Note_on_c, 0, 63, 45
1, 105221, Note_on_c, 0, 67, 54
1, 105221, Note_on_c, 0, 57, 0
1, 105224, Note_on_c, 0, 50, 0
1, 105224, Note_on_c, 0, 45, 53
1, 105335, Note_on_c, 0, 67, 0
1, 105335, Note_on_c, 0, 63, 0
1, 105335, Note_on_c, 0, 60, 0
1, 105338, Note_on_c, 0, 45, 0
1, 105373, Note_on_c, 0, 66, 61
1, 105373, Note_on_c, 0, 62, 61
1, 105373, Note_on_c, 0, 50, 59
1, 105376, Note_on_c, 0, 57, 59
1, 105820, Note_on_c, 0, 62, 0
1, 105820, Note_on_c, 0, 66, 0
1, 105820, Note_on_c, 0, 60, 45
1, 105823, Note_on_c, 0, 63, 45
1, 105823, Note_on_c, 0, 67, 54
1, 105823, Note_on_c, 0, 57, 0
1, 105826, Note_on_c, 0, 50, 0
1, 105826, Note_on_c, 0, 45, 54
1, 105928, Note_on_c, 0, 67, 0
1, 105928, Note_on_c, 0, 63, 0
1, 105928, Note_on_c, 0, 60, 0
1, 105964, Note_on_c, 0, 62, 60
1, 105964, Note_on_c, 0, 66, 60
1, 105964, Note_on_c, 0, 45, 0
1, 105967, Note_on_c, 0, 50, 58
1, 105967, Note_on_c, 0, 57, 58
1, 106262, Note_on_c, 0, 66, 0
1, 106262, Note_on_c, 0, 62, 0
1, 106262, Note_on_c, 0, 60, 50
1, 106265, Note_on_c, 0, 63, 50
1, 106265, Note_on_c, 0, 69, 64
1, 106265, Note_on_c, 0, 57, 0
1, 106268, Note_on_c, 0, 50, 0
1, 106268, Note_on_c, 0, 42, 62
1, 106571, Note_on_c, 0, 69, 0
1, 106571, Note_on_c, 0, 63, 0
1, 106571, Note_on_c, 0, 60, 0
1, 106574, Note_on_c, 0, 58, 58
1, 106574, Note_on_c, 0, 62, 58
1, 106574, Note_on_c, 0, 67, 69
1, 106577, Note_on_c, 0, 42, 0
1, 106577, Note_on_c, 0, 43, 66
1, 106881, Note_on_c, 0, 67, 0
1, 106881, Note_on_c, 0, 62, 0
1, 106881, Note_on_c, 0, 58, 0
1, 106884, Note_on_c, 0, 57, 55
1, 106884, Note_on_c, 0, 62, 55
1, 106884, Note_on_c, 0, 66, 55
1, 106887, Note_on_c, 0, 43, 0
1, 106887, Note_on_c, 0, 45, 58
1, 107031, Note_on_c, 0, 66, 0
1, 107031, Note_on_c, 0, 62, 0
1, 107031, Note_on_c, 0, 57, 0
1, 107034, Note_on_c, 0, 67, 59
1, 107181, Note_on_c, 0, 67, 0
1, 107181, Note_on_c, 0, 64, 58
1, 107181, Note_on_c, 0, 55, 58
1, 107184, Note_on_c, 0, 62, 58
1, 107184, Note_on_c, 0, 45, 0
1, 107184, Note_on_c, 0, 46, 54
1, 107780, Note_on_c, 0, 64, 0
1, 107780, Note_on_c, 0, 46, 0
1, 107780, Note_on_c, 0, 45, 55
1, 107934, Note_on_c, 0, 62, 0
1, 107934, Note_on_c, 0, 61, 57
1, 108083, Note_on_c, 0, 61, 0
1, 108083, Note_on_c, 0, 59, 57
1, 108239, Note_on_c, 0, 59, 0
1, 108239, Note_on_c, 0, 61, 57
1, 108395, Note_on_c, 0, 61, 0
1, 108395, Note_on_c, 0, 55, 0
1, 108395, Note_on_c, 0, 66, 57
1, 108398, Note_on_c, 0, 57, 57
1, 108398, Note_on_c, 0, 62, 57
1, 108398, Note_on_c, 0, 45, 0
1, 108401, Note_on_c, 0, 50, 58
1, 108696, Note_on_c, 0, 62, 0
1, 108696, Note_on_c, 0, 57, 0
1, 108696, Note_on_c, 0, 66, 0
1, 108699, Note_on_c, 0, 60, 65
1, 108699, Note_on_c, 0, 69, 65
1, 108989, Note_on_c, 0, 69, 0
1, 108989, Note_on_c, 0, 60, 0
1, 108989, Note_on_c, 0, 64, 61
1, 108992, Note_on_c, 0, 66, 61
1, 108992, Note_on_c, 0, 72, 61
1, 109516, Note_on_c, 0, 50, 0
1, 109516, Note_on_c, 0, 43, 47
1, 109556, Note_on_c, 0, 50, 51
1, 109596, Note_on_c, 0, 72, 0
1, 109596, Note_on_c, 0, 66, 0
1, 109596, Note_on_c, 0, 64, 0
1, 109599, Note_on_c, 0, 62, 59
1, 109599, Note_on_c, 0, 67, 59
1, 109599, Note_on_c, 0, 71, 59
1, 109602, Note_on_c, 0, 59, 57
1, 109907, Note_on_c, 0, 71, 0
1, 109907, Note_on_c, 0, 67, 0
1, 109907, Note_on_c, 0, 62, 0
1, 109910, Note_on_c, 0, 66, 62
1, 109910, Note_on_c, 0, 71, 62
1, 109910, Note_on_c, 0, 74, 62
1, 110137, Note_on_c, 0, 59, 0
1, 110137, Note_on_c, 0, 50, 0
1, 110137, Note_on_c, 0, 43, 0
1, 110140, Note_on_c, 0, 40, 52
1, 110179, Note_on_c, 0, 55, 57
1, 110221, Note_on_c, 0, 74, 0
1, 110221, Note_on_c, 0, 71, 0
1, 110221, Note_on_c, 0, 66, 0
1, 110224, Note_on_c, 0, 71, 66
1, 110224, Note_on_c, 0, 69, 66
1, 110224, Note_on_c, 0, 78, 66
1, 110227, Note_on_c, 0, 47, 61
1, 110836, Note_on_c, 0, 78, 0
1, 110836, Note_on_c, 0, 69, 0
1, 110836, Note_on_c, 0, 71, 0
1, 110839, Note_on_c, 0, 67, 62
1, 110839, Note_on_c, 0, 76, 62
1, 110839, Note_on_c, 0, 71, 54
1, 111139, Note_on_c, 0, 76, 0
1, 111139, Note_on_c, 0, 67, 0
1, 111139, Note_on_c, 0, 74, 62
1, 111142, Note_on_c, 0, 66, 62
1, 111433, Note_on_c, 0, 66, 0
1, 111433, Note_on_c, 0, 74, 0
1, 111433, Note_on_c, 0, 71, 0
1, 111436, Note_on_c, 0, 64, 59
1, 111436, Note_on_c, 0, 67, 59
1, 111436, Note_on_c, 0, 71, 59
1, 111439, Note_on_c, 0, 47, 0
1, 111439, Note_on_c, 0, 55, 0
1, 111439, Note_on_c, 0, 40, 0
1, 111442, Note_on_c, 0, 45, 52
1, 111591, Note_on_c, 0, 64, 0
1, 111591, Note_on_c, 0, 62, 58
1, 111744, Note_on_c, 0, 62, 0
1, 111744, Note_on_c, 0, 71, 0
1, 111744, Note_on_c, 0, 67, 0
1, 111747, Note_on_c, 0, 61, 55
1, 111747, Note_on_c, 0, 64, 55
1, 111747, Note_on_c, 0, 67, 55
1, 111901, Note_on_c, 0, 61, 0
1, 111901, Note_on_c, 0, 59, 54
1, 112053, Note_on_c, 0, 59, 0
1, 112053, Note_on_c, 0, 67, 0
1, 112053, Note_on_c, 0, 64, 0
1, 112056, Note_on_c, 0, 66, 61
1, 112056, Note_on_c, 0, 62, 61
1, 112056, Note_on_c, 0, 45, 0
1, 112059, Note_on_c, 0, 50, 59
1, 112059, Note_on_c, 0, 57, 59
1, 112500, Note_on_c, 0, 62, 0
1, 112500, Note_on_c, 0, 66, 0
1, 112500, Note_on_c, 0, 60, 45
1, 112503, Note_on_c, 0, 63, 45
1, 112503, Note_on_c, 0, 67, 54
1, 112503, Note_on_c, 0, 57, 0
1, 112506, Note_on_c, 0, 50, 0
1, 112506, Note_on_c, 0, 45, 53
1, 112616, Note_on_c, 0, 67, 0
1, 112616, Note_on_c, 0, 63, 0
1, 112616, Note_on_c, 0, 60, 0
1, 112619, Note_on_c, 0, 45, 0
1, 112655, Note_on_c, 0, 66, 61
1, 112655, Note_on_c, 0, 62, 61
1, 112655, Note_on_c, 0, 50, 59
1, 112658, Note_on_c, 0, 57, 59
1, 113101, Note_on_c, 0, 62, 0
1, 113101, Note_on_c, 0, 66, 0
1, 113101, Note_on_c, 0, 60, 45
1, 113104, Note_on_c, 0, 63, 45
1, 113104, Note_on_c, 0, 67, 54
1, 113104, Note_on_c, 0, 57, 0
1, 113107, Note_on_c, 0, 50, 0
1, 113107, Note_on_c, 0, 45, 54
1, 113210, Note_on_c, 0, 67, 0
1, 113210, Note_on_c, 0, 63, 0
1, 113210, Note_on_c, 0, 60, 0
1, 113246, Note_on_c, 0, 62, 60
1, 113246, Note_on_c, 0, 66, 60
1, 113246, Note_on_c, 0, 45, 0
1, 113249, Note_on_c, 0, 50, 58
1, 113249, Note_on_c, 0, 57, 58
1, 113543, Note_on_c, 0, 66, 0
1, 113543, Note_on_c, 0, 62, 0
1, 113543, Note_on_c, 0, 60, 50
1, 113546, Note_on_c, 0, 63, 50
1, 113546, Note_on_c, 0, 69, 64
1, 113546, Note_on_c, 0, 57, 0
1, 113549, Note_on_c, 0, 50, 0
1, 113549, Note_on_c, 0, 42, 62
1, 113853, Note_on_c, 0, 69, 0
1, 113853, Note_on_c, 0, 63, 0
1, 113853, Note_on_c, 0, 60, 0
1, 113856, Note_on_c, 0, 62, 58
1, 113856, Note_on_c, 0, 67, 69
1, 113856, Note_on_c, 0, 59, 58
1, 113859, Note_on_c, 0, 42, 0
1, 113859, Note_on_c, 0, 43, 66
1, 114162, Note_on_c, 0, 59, 0
1, 114162, Note_on_c, 0, 67, 0
1, 114162, Note_on_c, 0, 62, 0
1, 114165, Note_on_c, 0, 62, 55
1, 114165, Note_on_c, 0, 57, 55
1, 114165, Note_on_c, 0, 66, 55
1, 114168, Note_on_c, 0, 43, 0
1, 114168, Note_on_c, 0, 45, 58
1, 114312, Note_on_c, 0, 66, 0
1, 114312, Note_on_c, 0, 57, 0
1, 114312, Note_on_c, 0, 62, 0
1, 114315, Note_on_c, 0, 67, 59
1, 114462, Note_on_c, 0, 67, 0
1, 114462, Note_on_c, 0, 62, 58
1, 114462, Note_on_c, 0, 55, 58
1, 114465, Note_on_c, 0, 64, 58
1, 114465, Note_on_c, 0, 45, 0
1, 114465, Note_on_c, 0, 47, 58
1, 114738, Note_on_c, 0, 64, 0
1, 114738, Note_on_c, 0, 55, 0
1, 114738, Note_on_c, 0, 62, 0
1, 114741, Note_on_c, 0, 47, 0
1, 114778, Note_on_c, 0, 64, 59
1, 114778, Note_on_c, 0, 67, 59
1, 114778, Note_on_c, 0, 71, 59
1, 114781, Note_on_c, 0, 49, 61
1, 115083, Note_on_c, 0, 71, 0
1, 115083, Note_on_c, 0, 67, 0
1, 115083, Note_on_c, 0, 64, 0
1, 115086, Note_on_c, 0, 61, 64
1, 115086, Note_on_c, 0, 66, 64
1, 115086, Note_on_c, 0, 69, 64
1, 115089, Note_on_c, 0, 49, 0
1, 115089, Note_on_c, 0, 50, 65
1, 115387, Note_on_c, 0, 69, 0
1, 115387, Note_on_c, 0, 66, 0
1, 115387, Note_on_c, 0, 61, 0
1, 115390, Note_on_c, 0, 59, 66
1, 115390, Note_on_c, 0, 64, 66
1, 115390, Note_on_c, 0, 67, 66
1, 115393, Note_on_c, 0, 50, 0
1, 115393, Note_on_c, 0, 52, 65
1, 115694, Note_on_c, 0, 67, 0
1, 115694, Note_on_c, 0, 64, 0
1, 115694, Note_on_c, 0, 59, 0
1, 115697, Note_on_c, 0, 61, 66
1, 115697, Note_on_c, 0, 58, 66
1, 115697, Note_on_c, 0, 66, 66
1, 115700, Note_on_c, 0, 52, 0
1, 115700, Note_on_c, 0, 54, 65
1, 115963, Note_on_c, 0, 66, 0
1, 115963, Note_on_c, 0, 58, 0
1, 115963, Note_on_c, 0, 61, 0
1, 115966, Note_on_c, 0, 54, 0
1, 116002, Note_on_c, 0, 66, 66
1, 116002, Note_on_c, 0, 71, 66
1, 116002, Note_on_c, 0, 74, 66
1, 116005, Note_on_c, 0, 55, 64
1, 116303, Note_on_c, 0, 74, 0
1, 116303, Note_on_c, 0, 71, 0
1, 116303, Note_on_c, 0, 66, 0
1, 116306, Note_on_c, 0, 64, 68
1, 116306, Note_on_c, 0, 67, 68
1, 116306, Note_on_c, 0, 73, 68
1, 116309, Note_on_c, 0, 55, 0
1, 116309, Note_on_c, 0, 57, 66
1, 116604, Note_on_c, 0, 73, 0
1, 116604, Note_on_c, 0, 67, 0
1, 116604, Note_on_c, 0, 64, 0
1, 116607, Note_on_c, 0, 66, 70
1, 116607, Note_on_c, 0, 62, 70
1, 116607, Note_on_c, 0, 71, 70
1, 116610, Note_on_c, 0, 57, 0
1, 116610, Note_on_c, 0, 59, 68
1, 116898, Note_on_c, 0, 71, 0
1, 116898, Note_on_c, 0, 62, 0
1, 116898, Note_on_c, 0, 66, 0
1, 116901, Note_on_c, 0, 64, 75
1, 116901, Note_on_c, 0, 67, 75
1, 116901, Note_on_c, 0, 69, 75
1, 116904, Note_on_c, 0, 59, 0
1, 116904, Note_on_c, 0, 61, 72
1, 117200, Note_on_c, 0, 69, 0
1, 117200, Note_on_c, 0, 81, 82
1, 117445, Note_on_c, 0, 81, 0
1, 117527, Note_on_c, 0, 67, 0
1, 117527, Note_on_c, 0, 64, 0
1, 117527, Note_on_c, 0, 74, 61
1, 117530, Note_on_c, 0, 78, 61
1, 117530, Note_on_c, 0, 81, 61
1, 117530, Note_on_c, 0, 61, 0
1, 117533, Note_on_c, 0, 62, 55
1, 117533, Note_on_c, 0, 69, 55
1, 117601, Note_on_c, 0, 69, 0
1, 117601, Note_on_c, 0, 62, 0
1, 117824, Note_on_c, 0, 57, 46
1, 117899, Note_on_c, 0, 57, 0
1, 117973, Note_on_c, 0, 78, 0
1, 117973, Note_on_c, 0, 74, 0
1, 117973, Note_on_c, 0, 75, 45
1, 117976, Note_on_c, 0, 79, 54
1, 118045, Note_on_c, 0, 79, 0
1, 118045, Note_on_c, 0, 75, 0
1, 118117, Note_on_c, 0, 78, 61
1, 118117, Note_on_c, 0, 74, 61
1, 118117, Note_on_c, 0, 50, 54
1, 118192, Note_on_c, 0, 50, 0
1, 118415, Note_on_c, 0, 57, 49
1, 118490, Note_on_c, 0, 57, 0
1, 118564, Note_on_c, 0, 74, 0
1, 118564, Note_on_c, 0, 78, 0
1, 118564, Note_on_c, 0, 75, 45
1, 118567, Note_on_c, 0, 79, 54
1, 118636, Note_on_c, 0, 79, 0
1, 118636, Note_on_c, 0, 75, 0
1, 118708, Note_on_c, 0, 74, 60
1, 118708, Note_on_c, 0, 78, 60
1, 118708, Note_on_c, 0, 62, 55
1, 118782, Note_on_c, 0, 62, 0
1, 118967, Note_on_c, 0, 78, 0
1, 118967, Note_on_c, 0, 74, 0
1, 118967, Note_on_c, 0, 81, 0
1, 119004, Note_on_c, 0, 72, 62
1, 119004, Note_on_c, 0, 75, 62
1, 119004, Note_on_c, 0, 81, 62
1, 119007, Note_on_c, 0, 69, 47
1, 119007, Note_on_c, 0, 63, 47
1, 119007, Note_on_c, 0, 60, 47
1, 119010, Note_on_c, 0, 54, 47
1, 119308, Note_on_c, 0, 81, 0
1, 119308, Note_on_c, 0, 75, 0
1, 119308, Note_on_c, 0, 72, 0
1, 119311, Note_on_c, 0, 70, 62
1, 119311, Note_on_c, 0, 74, 62
1, 119311, Note_on_c, 0, 79, 62
1, 119314, Note_on_c, 0, 54, 0
1, 119314, Note_on_c, 0, 69, 0
1, 119314, Note_on_c, 0, 63, 0
1, 119317, Note_on_c, 0, 60, 0
1, 119317, Note_on_c, 0, 67, 47
1, 119317, Note_on_c, 0, 62, 47
1, 119320, Note_on_c, 0, 58, 47
1, 119320, Note_on_c, 0, 55, 47
1, 119611, Note_on_c, 0, 79, 0
1, 119611, Note_on_c, 0, 74, 0
1, 119611, Note_on_c, 0, 70, 0
1, 119614, Note_on_c, 0, 78, 52
1, 119614, Note_on_c, 0, 74, 52
1, 119614, Note_on_c, 0, 69, 52
1, 119617, Note_on_c, 0, 55, 0
1, 119617, Note_on_c, 0, 67, 0
1, 119617, Note_on_c, 0, 62, 0
1, 119620, Note_on_c, 0, 58, 0
1, 119620, Note_on_c, 0, 66, 46
1, 119620, Note_on_c, 0, 62, 46
1, 119623, Note_on_c, 0, 57, 46
1, 119761, Note_on_c, 0, 69, 0
1, 119761, Note_on_c, 0, 74, 0
1, 119761, Note_on_c, 0, 78, 0
1, 119764, Note_on_c, 0, 79, 55
1, 119911, Note_on_c, 0, 79, 0
1, 119911, Note_on_c, 0, 74, 50
1, 119911, Note_on_c, 0, 67, 50
1, 119914, Note_on_c, 0, 76, 50
1, 119914, Note_on_c, 0, 57, 0
1, 119914, Note_on_c, 0, 62, 0
1, 119917, Note_on_c, 0, 66, 0
1, 119917, Note_on_c, 0, 64, 45
1, 119917, Note_on_c, 0, 62, 45
1, 119920, Note_on_c, 0, 58, 45
1, 120510, Note_on_c, 0, 76, 0
1, 120510, Note_on_c, 0, 67, 0
1, 120510, Note_on_c, 0, 74, 0
1, 120513, Note_on_c, 0, 79, 54
1, 120513, Note_on_c, 0, 76, 54
1, 120513, Note_on_c, 0, 70, 54
1, 120516, Note_on_c, 0, 58, 0
1, 120516, Note_on_c, 0, 62, 0
1, 120516, Note_on_c, 0, 64, 0
1, 120519, Note_on_c, 0, 67, 47
1, 120519, Note_on_c, 0, 64, 47
1, 120519, Note_on_c, 0, 61, 47
1, 121125, Note_on_c, 0, 70, 0
1, 121125, Note_on_c, 0, 76, 0
1, 121125, Note_on_c, 0, 79, 0
1, 121128, Note_on_c, 0, 78, 57
1, 121128, Note_on_c, 0, 69, 57
1, 121128, Note_on_c, 0, 74, 57
1, 121131, Note_on_c, 0, 61, 0
1, 121131, Note_on_c, 0, 64, 0
1, 121131, Note_on_c, 0, 67, 0
1, 121134, Note_on_c, 0, 66, 54
1, 121134, Note_on_c, 0, 62, 54
1, 121427, Note_on_c, 0, 74, 0
1, 121427, Note_on_c, 0, 78, 0
1, 121427, Note_on_c, 0, 81, 68
1, 121738, Note_on_c, 0, 81, 0
1, 121738, Note_on_c, 0, 69, 0
1, 121738, Note_on_c, 0, 72, 60
1, 121741, Note_on_c, 0, 78, 60
1, 121741, Note_on_c, 0, 84, 60
1, 121741, Note_on_c, 0, 57, 50
1, 122341, Note_on_c, 0, 84, 0
1, 122341, Note_on_c, 0, 78, 0
1, 122341, Note_on_c, 0, 72, 0
1, 122344, Note_on_c, 0, 67, 66
1, 122344, Note_on_c, 0, 71, 66
1, 122344, Note_on_c, 0, 57, 0
1, 122347, Note_on_c, 0, 62, 0
1, 122347, Note_on_c, 0, 66, 0
1, 122347, Note_on_c, 0, 55, 47
1, 122350, Note_on_c, 0, 59, 47
1, 122653, Note_on_c, 0, 71, 0
1, 122653, Note_on_c, 0, 74, 64
1, 122980, Note_on_c, 0, 74, 0
1, 122980, Note_on_c, 0, 78, 69
1, 122980, Note_on_c, 0, 55, 0
1, 122983, Note_on_c, 0, 52, 49
1, 122983, Note_on_c, 0, 45, 49
1, 123615, Note_on_c, 0, 78, 0
1, 123615, Note_on_c, 0, 76, 62
1, 123919, Note_on_c, 0, 76, 0
1, 123919, Note_on_c, 0, 74, 59
1, 124248, Note_on_c, 0, 74, 0
1, 124248, Note_on_c, 0, 67, 0
1, 124248, Note_on_c, 0, 67, 55
1, 124251, Note_on_c, 0, 71, 55
1, 124251, Note_on_c, 0, 59, 0
1, 124251, Note_on_c, 0, 61, 50
1, 124599, Note_on_c, 0, 71, 0
1, 124599, Note_on_c, 0, 67, 0
1, 124599, Note_on_c, 0, 64, 50
1, 124602, Note_on_c, 0, 67, 50
1, 124978, Note_on_c, 0, 67, 0
1, 124978, Note_on_c, 0, 64, 0
1, 124978, Note_on_c, 0, 62, 47
1, 124981, Note_on_c, 0, 59, 47
1, 124981, Note_on_c, 0, 66, 47
1, 124981, Note_on_c, 0, 61, 0
1, 124984, Note_on_c, 0, 45, 0
1, 124984, Note_on_c, 0, 52, 0
1, 124984, Note_on_c, 0, 44, 50
1, 125665, Note_on_c, 0, 66, 0
1, 125665, Note_on_c, 0, 59, 0
1, 125665, Note_on_c, 0, 62, 0
1, 125668, Note_on_c, 0, 56, 50
1, 125668, Note_on_c, 0, 61, 50
1, 125668, Note_on_c, 0, 64, 50
1, 125671, Note_on_c, 0, 44, 0
1, 125671, Note_on_c, 0, 45, 51
1, 125992, Note_on_c, 0, 64, 0
1, 125992, Note_on_c, 0, 61, 0
1, 125992, Note_on_c, 0, 56, 0
1, 125995, Note_on_c, 0, 54, 47
1, 125995, Note_on_c, 0, 59, 47
1, 125995, Note_on_c, 0, 62, 47
1, 125998, Note_on_c, 0, 45, 0
1, 125998, Note_on_c, 0, 47, 50
1, 126308, Note_on_c, 0, 62, 0
1, 126308, Note_on_c, 0, 59, 0
1, 126308, Note_on_c, 0, 54, 0
1, 126311, Note_on_c, 0, 53, 50
1, 126311, Note_on_c, 0, 59, 50
1, 126311, Note_on_c, 0, 61, 50
1, 126314, Note_on_c, 0, 47, 0
1, 126314, Note_on_c, 0, 49, 51
1, 126630, Note_on_c, 0, 61, 0
1, 126630, Note_on_c, 0, 59, 0
1, 126630, Note_on_c, 0, 53, 0
1, 126633, Note_on_c, 0, 59, 47
1, 126633, Note_on_c, 0, 61, 47
1, 126633, Note_on_c, 0, 68, 47
1, 126636, Note_on_c, 0, 49, 0
1, 126636, Note_on_c, 0, 51, 49
1, 126781, Note_on_c, 0, 51, 0
1, 126781, Note_on_c, 0, 53, 52
1, 126931, Note_on_c, 0, 61, 0
1, 126931, Note_on_c, 0, 62, 47
1, 126931, Note_on_c, 0, 53, 0
1, 126934, Note_on_c, 0, 54, 58
1, 127233, Note_on_c, 0, 68, 0
1, 127233, Note_on_c, 0, 66, 44
1, 127330, Note_on_c, 0, 66, 0
1, 127330, Note_on_c, 0, 68, 49
1, 127426, Note_on_c, 0, 68, 0
1, 127426, Note_on_c, 0, 69, 53
1, 127523, Note_on_c, 0, 69, 0
1, 127523, Note_on_c, 0, 66, 55
1, 127523, Note_on_c, 0, 54, 0
1, 127526, Note_on_c, 0, 56, 47
1, 127835, Note_on_c, 0, 66, 0
1, 127835, Note_on_c, 0, 64, 52
1, 128135, Note_on_c, 0, 56, 0
1, 128135, Note_on_c, 0, 57, 50
1, 128434, Note_on_c, 0, 64, 0
1, 128434, Note_on_c, 0, 66, 58
1, 128718, Note_on_c, 0, 66, 0
1, 128718, Note_on_c, 0, 57, 0
1, 128744, Note_on_c, 0, 62, 0
1, 128744, Note_on_c, 0, 59, 0
1, 128744, Note_on_c, 0, 68, 51
1, 128747, Note_on_c, 0, 78, 51
1, 128747, Note_on_c, 0, 74, 51
1, 128747, Note_on_c, 0, 59, 50
1, 129359, Note_on_c, 0, 74, 0
1, 129359, Note_on_c, 0, 78, 0
1, 129359, Note_on_c, 0, 73, 50
1, 129362, Note_on_c, 0, 76, 50
1, 129362, Note_on_c, 0, 59, 0
1, 129362, Note_on_c, 0, 61, 51
1, 129670, Note_on_c, 0, 76, 0
1, 129670, Note_on_c, 0, 73, 0
1, 129670, Note_on_c, 0, 74, 47
1, 129673, Note_on_c, 0, 71, 47
1, 129673, Note_on_c, 0, 61, 0
1, 129673, Note_on_c, 0, 62, 50
1, 129974, Note_on_c, 0, 71, 0
1, 129974, Note_on_c, 0, 74, 0
1, 129974, Note_on_c, 0, 68, 0
1, 129977, Note_on_c, 0, 68, 50
1, 129977, Note_on_c, 0, 71, 50
1, 129977, Note_on_c, 0, 73, 50
1, 129980, Note_on_c, 0, 62, 0
1, 129980, Note_on_c, 0, 64, 51
1, 130287, Note_on_c, 0, 73, 0
1, 130287, Note_on_c, 0, 71, 0
1, 130287, Note_on_c, 0, 68, 0
1, 130290, Note_on_c, 0, 71, 57
1, 130290, Note_on_c, 0, 73, 57
1, 130290, Note_on_c, 0, 80, 57
1, 130293, Note_on_c, 0, 64, 0
1, 130293, Note_on_c, 0, 65, 51
1, 130612, Note_on_c, 0, 73, 0
1, 130612, Note_on_c, 0, 74, 55
1, 130612, Note_on_c, 0, 65, 0
1, 130615, Note_on_c, 0, 66, 51
1, 130919, Note_on_c, 0, 80, 0
1, 130919, Note_on_c, 0, 78, 50
1, 131227, Note_on_c, 0, 78, 0
1, 131227, Note_on_c, 0, 80, 51
1, 131545, Note_on_c, 0, 80, 0
1, 131545, Note_on_c, 0, 81, 47
1, 131876, Note_on_c, 0, 81, 0
1, 131876, Note_on_c, 0, 78, 50
1, 132258, Note_on_c, 0, 78, 0
1, 132258, Note_on_c, 0, 80, 46
1, 133328, Note_on_c, 0, 80, 0
1, 133328, Note_on_c, 0, 74, 0
1, 133328, Note_on_c, 0, 71, 0
1, 133331, Note_on_c, 0, 51, 46
1, 133331, Note_on_c, 0, 58, 46
1, 133331, Note_on_c, 0, 55, 46
1, 133334, Note_on_c, 0, 66, 0
1, 133334, Note_on_c, 0, 34, 46
1, 133334, Note_on_c, 0, 46, 46
1, 133365, Control_c, 0, 64, 127
1, 134011, Note_on_c, 0, 55, 0
1, 134011, Note_on_c, 0, 58, 0
1, 134011, Note_on_c, 0, 51, 0
1, 134014, Note_on_c, 0, 70, 43
1, 134014, Note_on_c, 0, 46, 0
1, 134014, Note_on_c, 0, 34, 0
1, 134017, Note_on_c, 0, 55, 42
1, 134048, Note_on_c, 0, 75, 45
1, 134048, Note_on_c, 0, 58, 44
1, 134084, Note_on_c, 0, 79, 46
1, 134084, Note_on_c, 0, 63, 46
1, 134121, Note_on_c, 0, 82, 53
1, 134121, Note_on_c, 0, 67, 52
1, 134787, Control_c, 0, 64, 0
1, 134813, Note_on_c, 0, 82, 0
1, 134813, Note_on_c, 0, 70, 0
1, 134813, Note_on_c, 0, 75, 0
1, 134816, Note_on_c, 0, 79, 0
1, 134816, Note_on_c, 0, 51, 50
1, 134816, Note_on_c, 0, 55, 50
1, 134819, Note_on_c, 0, 58, 50
1, 134819, Note_on_c, 0, 67, 0
1, 134819, Note_on_c, 0, 55, 0
1, 134822, Note_on_c, 0, 58, 0
1, 134822, Note_on_c, 0, 63, 0
1, 134822, Note_on_c, 0, 46, 50
1, 134835, Control_c, 0, 64, 127
1, 135554, Note_on_c, 0, 34, 57
1, 136225, Note_on_c, 0, 58, 0
1, 136225, Note_on_c, 0, 55, 0
1, 136225, Note_on_c, 0, 51, 0
1, 136228, Note_on_c, 0, 70, 43
1, 136228, Note_on_c, 0, 34, 0
1, 136228, Note_on_c, 0, 46, 0
1, 136231, Note_on_c, 0, 55, 42
1, 136262, Note_on_c, 0, 75, 44
1, 136262, Note_on_c, 0, 58, 44
1, 136299, Note_on_c, 0, 79, 46
1, 136299, Note_on_c, 0, 63, 46
1, 136336, Note_on_c, 0, 82, 52
1, 136336, Note_on_c, 0, 67, 53
1, 136357, Control_c, 0, 64, 0
1, 137033, Note_on_c, 0, 82, 0
1, 137033, Note_on_c, 0, 70, 0
1, 137033, Note_on_c, 0, 75, 0
1, 137036, Note_on_c, 0, 79, 0
1, 137036, Note_on_c, 0, 51, 52
1, 137036, Note_on_c, 0, 55, 52
1, 137039, Note_on_c, 0, 58, 52
1, 137039, Note_on_c, 0, 67, 0
1, 137039, Note_on_c, 0, 55, 0
1, 137042, Note_on_c, 0, 58, 0
1, 137042, Note_on_c, 0, 63, 0
1, 137042, Note_on_c, 0, 46, 53
1, 137730, Control_c, 0, 91, 127
1, 137730, Note_on_c, 0, 34, 53
1, 137883, Note_on_c, 0, 58, 0
1, 137883, Note_on_c, 0, 60, 54
1, 138031, Note_on_c, 0, 60, 0
1, 138031, Note_on_c, 0, 55, 0
1, 138031, Note_on_c, 0, 51, 0
1, 138034, Note_on_c, 0, 62, 57
1, 138034, Note_on_c, 0, 34, 0
1, 138034, Note_on_c, 0, 46, 0
1, 138176, Note_on_c, 0, 62, 0
1, 138176, Note_on_c, 0, 63, 55
1, 138334, Note_on_c, 0, 63, 0
1, 138334, Note_on_c, 0, 60, 57
1, 138334, Note_on_c, 0, 51, 47
1, 138337, Note_on_c, 0, 55, 47
1, 138461, Note_on_c, 0, 60, 0
1, 138487, Note_on_c, 0, 60, 51
1, 138561, Note_on_c, 0, 60, 0
1, 138561, Note_on_c, 0, 62, 51
1, 138636, Note_on_c, 0, 62, 0
1, 138636, Note_on_c, 0, 60, 57
1, 138636, Note_on_c, 0, 55, 0
1, 138639, Note_on_c, 0, 51, 0
1, 138744, Note_on_c, 0, 60, 0
1, 138780, Note_on_c, 0, 58, 57
1, 138899, Note_on_c, 0, 58, 0
1, 138939, Note_on_c, 0, 60, 55
1, 138939, Note_on_c, 0, 67, 44
1, 138939, Note_on_c, 0, 72, 44
1, 138942, Note_on_c, 0, 75, 44
1, 138977, Note_on_c, 0, 60, 0
1, 139016, Note_on_c, 0, 75, 0
1, 139016, Note_on_c, 0, 72, 0
1, 139016, Note_on_c, 0, 67, 0
1, 139246, Note_on_c, 0, 63, 51
1, 139287, Note_on_c, 0, 63, 0
1, 139569, Note_on_c, 0, 62, 54
1, 139569, Control_c, 0, 91, 127
1, 139569, Note_on_c, 0, 46, 53
1, 139572, Note_on_c, 0, 34, 53
1, 139721, Note_on_c, 0, 62, 0
1, 139721, Note_on_c, 0, 63, 54
1, 139869, Note_on_c, 0, 63, 0
1, 139869, Note_on_c, 0, 65, 57
1, 139869, Note_on_c, 0, 34, 0
1, 139872, Note_on_c, 0, 46, 0
1, 140014, Note_on_c, 0, 65, 0
1, 140014, Note_on_c, 0, 67, 55
1, 140172, Note_on_c, 0, 67, 0
1, 140172, Note_on_c, 0, 62, 57
1, 140172, Note_on_c, 0, 58, 47
1, 140175, Note_on_c, 0, 50, 47
1, 140175, Note_on_c, 0, 55, 47
1, 140300, Note_on_c, 0, 62, 0
1, 140325, Note_on_c, 0, 62, 51
1, 140399, Note_on_c, 0, 62, 0
1, 140399, Note_on_c, 0, 63, 51
1, 140474, Note_on_c, 0, 63, 0
1, 140474, Note_on_c, 0, 62, 57
1, 140474, Note_on_c, 0, 55, 0
1, 140477, Note_on_c, 0, 50, 0
1, 140477, Note_on_c, 0, 58, 0
1, 140582, Note_on_c, 0, 62, 0
1, 140618, Note_on_c, 0, 60, 54
1, 140737, Note_on_c, 0, 60, 0
1, 140777, Note_on_c, 0, 58, 51
1, 140777, Note_on_c, 0, 67, 44
1, 140777, Note_on_c, 0, 70, 44
1, 140780, Note_on_c, 0, 74, 44
1, 140854, Note_on_c, 0, 74, 0
1, 140854, Note_on_c, 0, 70, 0
1, 140854, Note_on_c, 0, 67, 0
1, 140932, Note_on_c, 0, 58, 0
1, 140932, Note_on_c, 0, 60, 51
1, 141087, Note_on_c, 0, 60, 0
1, 141087, Note_on_c, 0, 62, 51
1, 141409, Note_on_c, 0, 62, 0
1, 141409, Note_on_c, 0, 61, 47
1, 141409, Note_on_c, 0, 63, 54
1, 141412, Control_c, 0, 91, 127
1, 141412, Note_on_c, 0, 55, 47
1, 141412, Note_on_c, 0, 46, 53
1, 141561, Note_on_c, 0, 63, 0
1, 141561, Note_on_c, 0, 65, 54
1, 141709, Note_on_c, 0, 65, 0
1, 141709, Note_on_c, 0, 67, 57
1, 141855, Note_on_c, 0, 67, 0
1, 141855, Note_on_c, 0, 68, 55
1, 142012, Note_on_c, 0, 68, 0
1, 142012, Note_on_c, 0, 61, 0
1, 142012, Note_on_c, 0, 65, 57
1, 142015, Note_on_c, 0, 55, 0
1, 142015, Note_on_c, 0, 56, 50
1, 142140, Note_on_c, 0, 65, 0
1, 142165, Note_on_c, 0, 65, 51
1, 142240, Note_on_c, 0, 65, 0
1, 142240, Note_on_c, 0, 67, 51
1, 142314, Note_on_c, 0, 67, 0
1, 142314, Note_on_c, 0, 65, 57
1, 142422, Note_on_c, 0, 65, 0
1, 142458, Note_on_c, 0, 63, 57
1, 142578, Note_on_c, 0, 63, 0
1, 142617, Note_on_c, 0, 65, 59
1, 142617, Note_on_c, 0, 56, 0
1, 142617, Note_on_c, 0, 68, 47
1, 142620, Note_on_c, 0, 77, 47
1, 142620, Note_on_c, 0, 73, 47
1, 142655, Note_on_c, 0, 65, 0
1, 142923, Note_on_c, 0, 68, 57
1, 142923, Note_on_c, 0, 73, 0
1, 142923, Note_on_c, 0, 77, 0
1, 142926, Note_on_c, 0, 68, 0
1, 142963, Note_on_c, 0, 68, 0
1, 143243, Note_on_c, 0, 61, 51
1, 143243, Note_on_c, 0, 67, 59
1, 143243, Control_c, 0, 91, 127
1, 143246, Note_on_c, 0, 46, 0
1, 143246, Note_on_c, 0, 46, 53
1, 143246, Note_on_c, 0, 51, 53
1, 143396, Note_on_c, 0, 67, 0
1, 143396, Note_on_c, 0, 68, 59
1, 143543, Note_on_c, 0, 68, 0
1, 143543, Note_on_c, 0, 70, 61
1, 143689, Note_on_c, 0, 70, 0
1, 143689, Note_on_c, 0, 72, 60
1, 143847, Note_on_c, 0, 72, 0
1, 143847, Note_on_c, 0, 67, 61
1, 143847, Note_on_c, 0, 51, 0
1, 143850, Note_on_c, 0, 46, 0
1, 143850, Note_on_c, 0, 75, 47
1, 143850, Note_on_c, 0, 73, 47
1, 143974, Note_on_c, 0, 67, 0
1, 143999, Note_on_c, 0, 65, 54
1, 144049, Note_on_c, 0, 67, 54
1, 144074, Note_on_c, 0, 65, 0
1, 144099, Note_on_c, 0, 67, 0
1, 144099, Note_on_c, 0, 65, 54
1, 144148, Note_on_c, 0, 65, 0
1, 144148, Note_on_c, 0, 61, 0
1, 144148, Note_on_c, 0, 63, 61
1, 144151, Note_on_c, 0, 73, 0
1, 144151, Note_on_c, 0, 75, 0
1, 144256, Note_on_c, 0, 63, 0
1, 144292, Note_on_c, 0, 61, 59
1, 144410, Note_on_c, 0, 61, 0
1, 144449, Note_on_c, 0, 63, 54
1, 144449, Note_on_c, 0, 51, 53
1, 144602, Note_on_c, 0, 63, 0
1, 144602, Note_on_c, 0, 65, 54
1, 144755, Note_on_c, 0, 65, 0
1, 144755, Note_on_c, 0, 67, 54
1, 145077, Note_on_c, 0, 67, 0
1, 145077, Note_on_c, 0, 61, 54
1, 145077, Note_on_c, 0, 67, 64
1, 145080, Control_c, 0, 91, 127
1, 145080, Note_on_c, 0, 46, 58
1, 145228, Note_on_c, 0, 67, 0
1, 145228, Note_on_c, 0, 68, 64
1, 145375, Note_on_c, 0, 68, 0
1, 145375, Note_on_c, 0, 70, 66
1, 145519, Note_on_c, 0, 70, 0
1, 145519, Note_on_c, 0, 72, 65
1, 145672, Note_on_c, 0, 72, 0
1, 145672, Note_on_c, 0, 67, 66
1, 145672, Note_on_c, 0, 46, 0
1, 145675, Note_on_c, 0, 51, 0
1, 145675, Note_on_c, 0, 75, 52
1, 145675, Note_on_c, 0, 73, 52
1, 145798, Note_on_c, 0, 67, 0
1, 145823, Note_on_c, 0, 65, 59
1, 145872, Note_on_c, 0, 67, 59
1, 145897, Note_on_c, 0, 65, 0
1, 145921, Note_on_c, 0, 67, 0
1, 145921, Note_on_c, 0, 65, 59
1, 145970, Note_on_c, 0, 65, 0
1, 145970, Note_on_c, 0, 61, 0
1, 145970, Note_on_c, 0, 63, 67
1, 145973, Note_on_c, 0, 73, 0
1, 145973, Note_on_c, 0, 75, 0
1, 146078, Note_on_c, 0, 63, 0
1, 146114, Note_on_c, 0, 61, 64
1, 146228, Note_on_c, 0, 61, 0
1, 146266, Note_on_c, 0, 63, 68
1, 146266, Note_on_c, 0, 51, 60
1, 146416, Note_on_c, 0, 63, 0
1, 146416, Note_on_c, 0, 65, 65
1, 146566, Note_on_c, 0, 65, 0
1, 146566, Note_on_c, 0, 67, 65
1, 146875, Note_on_c, 0, 67, 0
1, 146875, Note_on_c, 0, 61, 69
1, 146875, Control_c, 0, 91, 127
1, 146878, Note_on_c, 0, 68, 69
1, 146878, Note_on_c, 0, 51, 0
1, 146878, Note_on_c, 0, 52, 66
1, 146881, Note_on_c, 0, 42, 66
1, 147025, Note_on_c, 0, 68, 0
1, 147025, Note_on_c, 0, 69, 70
1, 147170, Note_on_c, 0, 69, 0
1, 147170, Note_on_c, 0, 71, 73
1, 147312, Note_on_c, 0, 71, 0
1, 147312, Note_on_c, 0, 73, 72
1, 147463, Note_on_c, 0, 73, 0
1, 147463, Note_on_c, 0, 68, 73
1, 147463, Note_on_c, 0, 42, 0
1, 147466, Note_on_c, 0, 52, 0
1, 147466, Note_on_c, 0, 76, 58
1, 147466, Note_on_c, 0, 73, 58
1, 147585, Note_on_c, 0, 68, 0
1, 147609, Note_on_c, 0, 66, 65
1, 147658, Note_on_c, 0, 68, 65
1, 147682, Note_on_c, 0, 66, 0
1, 147706, Note_on_c, 0, 68, 0
1, 147706, Note_on_c, 0, 66, 65
1, 147755, Note_on_c, 0, 66, 0
1, 147755, Note_on_c, 0, 61, 0
1, 147755, Note_on_c, 0, 64, 74
1, 147758, Note_on_c, 0, 73, 0
1, 147758, Note_on_c, 0, 76, 0
1, 147861, Note_on_c, 0, 64, 0
1, 147897, Note_on_c, 0, 63, 70
1, 148008, Note_on_c, 0, 63, 0
1, 148045, Note_on_c, 0, 64, 75
1, 148045, Note_on_c, 0, 52, 66
1, 148191, Note_on_c, 0, 64, 0
1, 148191, Note_on_c, 0, 66, 72
1, 148337, Note_on_c, 0, 66, 0
1, 148337, Note_on_c, 0, 68, 72
1, 148636, Note_on_c, 0, 62, 75
1, 148636, Note_on_c, 0, 40, 75
1, 148784, Note_on_c, 0, 68, 0
1, 148784, Note_on_c, 0, 69, 69
1, 148926, Note_on_c, 0, 69, 0
1, 148926, Note_on_c, 0, 71, 72
1, 148926, Note_on_c, 0, 40, 0
1, 148929, Note_on_c, 0, 52, 0
1, 149069, Note_on_c, 0, 71, 0
1, 149069, Note_on_c, 0, 73, 75
1, 149210, Note_on_c, 0, 73, 0
1, 149210, Note_on_c, 0, 68, 81
1, 149210, Note_on_c, 0, 74, 59
1, 149213, Note_on_c, 0, 76, 59
1, 149355, Note_on_c, 0, 68, 0
1, 149355, Note_on_c, 0, 69, 74
1, 149494, Note_on_c, 0, 69, 0
1, 149494, Note_on_c, 0, 62, 0
1, 149494, Note_on_c, 0, 71, 79
1, 149497, Note_on_c, 0, 76, 0
1, 149497, Note_on_c, 0, 74, 0
1, 149635, Note_on_c, 0, 71, 0
1, 149635, Note_on_c, 0, 73, 82
1, 149774, Note_on_c, 0, 73, 0
1, 149774, Note_on_c, 0, 74, 87
1, 149774, Note_on_c, 0, 52, 68
1, 149918, Note_on_c, 0, 74, 0
1, 149918, Note_on_c, 0, 76, 80
1, 150056, Note_on_c, 0, 76, 0
1, 150056, Note_on_c, 0, 78, 83
1, 150197, Note_on_c, 0, 78, 0
1, 150197, Note_on_c, 0, 80, 85
1, 150197, Control_c, 0, 64, 127
1, 150200, Note_on_c, 0, 40, 81
1, 150334, Note_on_c, 0, 80, 0
1, 150334, Note_on_c, 0, 81, 94
1, 150334, Note_on_c, 0, 40, 0
1, 150337, Note_on_c, 0, 52, 0
1, 150337, Note_on_c, 0, 62, 70
1, 150337, Note_on_c, 0, 61, 70
1, 150340, Note_on_c, 0, 69, 70
1, 150418, Control_c, 0, 64, 0
1, 150476, Control_c, 0, 64, 127
1, 150476, Note_on_c, 0, 73, 73
1, 150609, Note_on_c, 0, 73, 0
1, 150609, Note_on_c, 0, 74, 73
1, 150745, Note_on_c, 0, 74, 0
1, 150745, Note_on_c, 0, 81, 73
1, 150878, Note_on_c, 0, 81, 0
1, 150878, Note_on_c, 0, 81, 0
1, 150878, Note_on_c, 0, 80, 92
1, 150881, Note_on_c, 0, 69, 0
1, 150881, Note_on_c, 0, 61, 0
1, 150881, Note_on_c, 0, 62, 0
1, 150884, Note_on_c, 0, 68, 67
1, 150884, Note_on_c, 0, 62, 67
1, 150884, Note_on_c, 0, 59, 67
1, 150884, Control_c, 0, 64, 0
1, 151016, Control_c, 0, 64, 127
1, 151016, Note_on_c, 0, 71, 70
1, 151150, Note_on_c, 0, 71, 0
1, 151150, Note_on_c, 0, 74, 70
1, 151286, Note_on_c, 0, 74, 0
1, 151286, Note_on_c, 0, 80, 70
1, 151418, Note_on_c, 0, 80, 0
1, 151418, Note_on_c, 0, 80, 0
1, 151418, Note_on_c, 0, 78, 89
1, 151421, Note_on_c, 0, 59, 0
1, 151421, Note_on_c, 0, 62, 0
1, 151421, Note_on_c, 0, 68, 0
1, 151424, Note_on_c, 0, 66, 61
1, 151424, Note_on_c, 0, 62, 61
1, 151424, Note_on_c, 0, 56, 61
1, 151424, Control_c, 0, 64, 0
1, 151555, Control_c, 0, 64, 127
1, 151555, Note_on_c, 0, 71, 69
1, 151689, Note_on_c, 0, 71, 0
1, 151689, Note_on_c, 0, 74, 69
1, 151826, Note_on_c, 0, 74, 0
1, 151826, Note_on_c, 0, 78, 69
1, 151957, Note_on_c, 0, 78, 0
1, 151957, Note_on_c, 0, 78, 0
1, 151957, Control_c, 0, 64, 0
1, 151960, Note_on_c, 0, 76, 88
1, 151960, Note_on_c, 0, 56, 0
1, 151960, Note_on_c, 0, 62, 0
1, 151963, Note_on_c, 0, 66, 0
1, 151963, Note_on_c, 0, 64, 60
1, 151963, Note_on_c, 0, 61, 60
1, 151966, Note_on_c, 0, 57, 60
1, 152093, Control_c, 0, 64, 127
1, 152093, Note_on_c, 0, 69, 66
1, 152227, Note_on_c, 0, 69, 0
1, 152227, Note_on_c, 0, 73, 66
1, 152361, Note_on_c, 0, 73, 0
1, 152361, Note_on_c, 0, 76, 66
1, 152494, Note_on_c, 0, 76, 0
1, 152494, Note_on_c, 0, 73, 66
1, 152494, Note_on_c, 0, 40, 80
1, 152631, Note_on_c, 0, 73, 0
1, 152631, Note_on_c, 0, 69, 66
1, 152671, Control_c, 0, 64, 0
1, 152768, Note_on_c, 0, 69, 0
1, 152768, Note_on_c, 0, 76, 0
1, 152768, Note_on_c, 0, 78, 83
1, 152771, Control_c, 0, 64, 127
1, 152771, Note_on_c, 0, 73, 69
1, 152771, Note_on_c, 0, 57, 0
1, 152774, Note_on_c, 0, 64, 0
1, 152774, Note_on_c, 0, 61, 0
1, 152774, Note_on_c, 0, 57, 68
1, 152777, Note_on_c, 0, 61, 68
1, 152777, Note_on_c, 0, 66, 68
1, 152901, Note_on_c, 0, 73, 0
1, 152901, Note_on_c, 0, 69, 69
1, 153035, Note_on_c, 0, 69, 0
1, 153035, Note_on_c, 0, 78, 0
1, 153035, Note_on_c, 0, 78, 69
1, 153038, Note_on_c, 0, 81, 82
1, 153038, Note_on_c, 0, 66, 0
1, 153038, Note_on_c, 0, 61, 0
1, 153041, Note_on_c, 0, 57, 0
1, 153041, Note_on_c, 0, 61, 68
1, 153041, Note_on_c, 0, 66, 68
1, 153044, Note_on_c, 0, 69, 68
1, 153171, Note_on_c, 0, 78, 0
1, 153171, Note_on_c, 0, 73, 69
1, 153307, Note_on_c, 0, 73, 0
1, 153307, Note_on_c, 0, 81, 0
1, 153307, Note_on_c, 0, 81, 69
1, 153310, Note_on_c, 0, 85, 83
1, 153310, Note_on_c, 0, 69, 0
1, 153310, Note_on_c, 0, 66, 0
1, 153313, Note_on_c, 0, 61, 0
1, 153313, Note_on_c, 0, 66, 68
1, 153313, Note_on_c, 0, 69, 68
1, 153316, Note_on_c, 0, 73, 68
1, 153446, Note_on_c, 0, 81, 0
1, 153446, Note_on_c, 0, 78, 69
1, 153586, Note_on_c, 0, 78, 0
1, 153586, Note_on_c, 0, 85, 0
1, 153586, Control_c, 0, 64, 0
1, 153589, Note_on_c, 0, 81, 94
1, 153589, Note_on_c, 0, 73, 0
1, 153589, Note_on_c, 0, 40, 0
1, 153592, Note_on_c, 0, 66, 0
1, 153592, Note_on_c, 0, 69, 0
1, 153592, Note_on_c, 0, 62, 70
1, 153595, Note_on_c, 0, 61, 70
1, 153595, Note_on_c, 0, 69, 70
1, 153726, Control_c, 0, 64, 127
1, 153726, Note_on_c, 0, 73, 73
1, 153861, Note_on_c, 0, 73, 0
1, 153861, Note_on_c, 0, 74, 73
1, 154001, Note_on_c, 0, 74, 0
1, 154001, Note_on_c, 0, 81, 73
1, 154135, Note_on_c, 0, 81, 0
1, 154135, Note_on_c, 0, 81, 0
1, 154135, Note_on_c, 0, 80, 92
1, 154138, Note_on_c, 0, 69, 0
1, 154138, Note_on_c, 0, 61, 0
1, 154138, Note_on_c, 0, 62, 0
1, 154141, Note_on_c, 0, 68, 67
1, 154141, Note_on_c, 0, 62, 67
1, 154141, Note_on_c, 0, 59, 67
1, 154141, Control_c, 0, 64, 0
1, 154275, Control_c, 0, 64, 127
1, 154275, Note_on_c, 0, 71, 70
1, 154410, Note_on_c, 0, 71, 0
1, 154410, Note_on_c, 0, 74, 70
1, 154550, Note_on_c, 0, 74, 0
1, 154550, Note_on_c, 0, 80, 70
1, 154684, Note_on_c, 0, 80, 0
1, 154684, Note_on_c, 0, 80, 0
1, 154684, Note_on_c, 0, 78, 89
1, 154687, Note_on_c, 0, 59, 0
1, 154687, Note_on_c, 0, 62, 0
1, 154687, Note_on_c, 0, 68, 0
1, 154690, Note_on_c, 0, 66, 61
1, 154690, Note_on_c, 0, 62, 61
1, 154690, Note_on_c, 0, 56, 61
1, 154716, Control_c, 0, 64, 0
1, 154823, Control_c, 0, 64, 127
1, 154823, Note_on_c, 0, 71, 69
1, 154959, Note_on_c, 0, 71, 0
1, 154959, Note_on_c, 0, 74, 69
1, 155098, Note_on_c, 0, 74, 0
1, 155098, Note_on_c, 0, 78, 69
1, 155231, Note_on_c, 0, 78, 0
1, 155231, Note_on_c, 0, 78, 0
1, 155231, Control_c, 0, 64, 0
1, 155234, Note_on_c, 0, 76, 88
1, 155234, Note_on_c, 0, 56, 0
1, 155234, Note_on_c, 0, 62, 0
1, 155237, Note_on_c, 0, 66, 0
1, 155237, Note_on_c, 0, 64, 60
1, 155237, Note_on_c, 0, 61, 60
1, 155240, Note_on_c, 0, 57, 60
1, 155371, Control_c, 0, 64, 127
1, 155371, Note_on_c, 0, 69, 66
1, 155506, Note_on_c, 0, 69, 0
1, 155506, Note_on_c, 0, 73, 66
1, 155644, Note_on_c, 0, 73, 0
1, 155644, Note_on_c, 0, 76, 66
1, 155782, Note_on_c, 0, 76, 0
1, 155782, Note_on_c, 0, 73, 66
1, 155782, Note_on_c, 0, 40, 80
1, 155920, Note_on_c, 0, 73, 0
1, 155920, Note_on_c, 0, 69, 66
1, 155961, Control_c, 0, 64, 0
1, 156059, Note_on_c, 0, 69, 0
1, 156059, Note_on_c, 0, 76, 0
1, 156059, Control_c, 0, 64, 127
1, 156062, Note_on_c, 0, 73, 76
1, 156062, Note_on_c, 0, 78, 76
1, 156062, Note_on_c, 0, 57, 0
1, 156065, Note_on_c, 0, 64, 0
1, 156065, Note_on_c, 0, 61, 0
1, 156065, Note_on_c, 0, 54, 62
1, 156194, Note_on_c, 0, 73, 0
1, 156194, Note_on_c, 0, 69, 67
1, 156329, Note_on_c, 0, 69, 0
1, 156329, Note_on_c, 0, 78, 0
1, 156329, Note_on_c, 0, 78, 77
1, 156332, Note_on_c, 0, 81, 77
1, 156332, Note_on_c, 0, 54, 0
1, 156332, Note_on_c, 0, 57, 66
1, 156467, Note_on_c, 0, 78, 0
1, 156467, Note_on_c, 0, 73, 68
1, 156605, Note_on_c, 0, 73, 0
1, 156605, Note_on_c, 0, 81, 0
1, 156605, Note_on_c, 0, 81, 80
1, 156608, Note_on_c, 0, 85, 80
1, 156608, Note_on_c, 0, 57, 0
1, 156608, Note_on_c, 0, 61, 68
1, 156744, Note_on_c, 0, 81, 0
1, 156744, Note_on_c, 0, 78, 68
1, 156786, Control_c, 0, 64, 0
1, 156864, Note_on_c, 0, 78, 0
1, 156864, Note_on_c, 0, 85, 0
1, 156864, Note_on_c, 0, 61, 0
1, 156867, Note_on_c, 0, 40, 0
1, 156888, Note_on_c, 0, 64, 57
1, 156888, Note_on_c, 0, 73, 67
1, 156888, Note_on_c, 0, 76, 67
1, 156891, Note_on_c, 0, 38, 70
1, 156891, Note_on_c, 0, 45, 70
1, 157027, Note_on_c, 0, 64, 0
1, 157027, Note_on_c, 0, 66, 57
1, 157166, Note_on_c, 0, 66, 0
1, 157166, Note_on_c, 0, 76, 0
1, 157166, Note_on_c, 0, 73, 0
1, 157169, Note_on_c, 0, 69, 57
1, 157169, Note_on_c, 0, 73, 66
1, 157169, Note_on_c, 0, 61, 70
1, 157301, Note_on_c, 0, 69, 0
1, 157301, Note_on_c, 0, 66, 57
1, 157414, Note_on_c, 0, 73, 0
1, 157426, Note_on_c, 0, 66, 0
1, 157437, Note_on_c, 0, 69, 57
1, 157437, Control_c, 0, 64, 127
1, 157437, Note_on_c, 0, 73, 66
1, 157440, Note_on_c, 0, 61, 0
1, 157440, Note_on_c, 0, 54, 61
1, 157440, Note_on_c, 0, 57, 61
1, 157443, Note_on_c, 0, 61, 61
1, 157573, Note_on_c, 0, 69, 0
1, 157573, Note_on_c, 0, 66, 57
1, 157709, Note_on_c, 0, 66, 0
1, 157709, Note_on_c, 0, 69, 59
1, 157845, Note_on_c, 0, 69, 0
1, 157845, Note_on_c, 0, 66, 57
1, 157877, Control_c, 0, 64, 0
1, 157959, Note_on_c, 0, 73, 0
1, 157970, Note_on_c, 0, 66, 0
1, 157981, Note_on_c, 0, 66, 57
1, 157981, Note_on_c, 0, 69, 67
1, 157981, Note_on_c, 0, 61, 0
1, 157984, Note_on_c, 0, 54, 0
1, 157984, Note_on_c, 0, 57, 0
1, 157984, Note_on_c, 0, 45, 66
1, 158121, Note_on_c, 0, 66, 0
1, 158121, Note_on_c, 0, 62, 57
1, 158260, Note_on_c, 0, 62, 0
1, 158260, Note_on_c, 0, 69, 0
1, 158260, Note_on_c, 0, 69, 57
1, 158263, Note_on_c, 0, 73, 67
1, 158394, Note_on_c, 0, 69, 0
1, 158394, Note_on_c, 0, 62, 57
1, 158528, Note_on_c, 0, 62, 0
1, 158528, Note_on_c, 0, 73, 0
1, 158528, Note_on_c, 0, 68, 57
1, 158531, Note_on_c, 0, 71, 70
1, 158531, Note_on_c, 0, 45, 0
1, 158531, Note_on_c, 0, 45, 0
1, 158534, Note_on_c, 0, 38, 0
1, 158534, Note_on_c, 0, 32, 67
1, 158534, Note_on_c, 0, 44, 67
1, 158664, Note_on_c, 0, 68, 0
1, 158664, Note_on_c, 0, 62, 57
1, 158800, Note_on_c, 0, 62, 0
1, 158800, Note_on_c, 0, 71, 0
1, 158800, Note_on_c, 0, 68, 57
1, 158803, Note_on_c, 0, 71, 65
1, 158803, Note_on_c, 0, 56, 55
1, 158803, Note_on_c, 0, 59, 55
1, 158933, Note_on_c, 0, 71, 0
1, 158933, Note_on_c, 0, 68, 0
1, 158933, Note_on_c, 0, 65, 51
1, 158936, Note_on_c, 0, 69, 61
1, 158936, Note_on_c, 0, 59, 0
1, 158936, Note_on_c, 0, 56, 0
1, 158939, Note_on_c, 0, 53, 47
1, 158939, Note_on_c, 0, 57, 52
1, 159066, Note_on_c, 0, 69, 0
1, 159066, Note_on_c, 0, 65, 0
1, 159066, Control_c, 0, 64, 127
1, 159069, Note_on_c, 0, 68, 57
1, 159069, Note_on_c, 0, 71, 65
1, 159069, Note_on_c, 0, 57, 0
1, 159072, Note_on_c, 0, 32, 0
1, 159072, Note_on_c, 0, 44, 0
1, 159072, Note_on_c, 0, 53, 0
1, 159075, Note_on_c, 0, 50, 55
1, 159075, Note_on_c, 0, 56, 55
1, 159075, Note_on_c, 0, 59, 55
1, 159203, Note_on_c, 0, 68, 0
1, 159203, Note_on_c, 0, 62, 57
1, 159340, Note_on_c, 0, 62, 0
1, 159340, Note_on_c, 0, 68, 57
1, 159473, Note_on_c, 0, 68, 0
1, 159473, Note_on_c, 0, 62, 57
1, 159518, Control_c, 0, 64, 0
1, 159607, Note_on_c, 0, 62, 0
1, 159607, Note_on_c, 0, 71, 0
1, 159607, Note_on_c, 0, 68, 66
1, 159610, Control_c, 0, 64, 127
1, 159610, Note_on_c, 0, 59, 0
1, 159610, Note_on_c, 0, 56, 0
1, 159613, Note_on_c, 0, 50, 0
1, 159613, Note_on_c, 0, 44, 58
1, 159745, Note_on_c, 0, 62, 57
1, 159884, Note_on_c, 0, 62, 0
1, 159884, Note_on_c, 0, 68, 0
1, 159884, Note_on_c, 0, 71, 66
1, 159887, Note_on_c, 0, 68, 61
1, 160018, Note_on_c, 0, 62, 57
1, 160075, Control_c, 0, 64, 0
1, 160152, Note_on_c, 0, 62, 0
1, 160152, Note_on_c, 0, 68, 0
1, 160152, Note_on_c, 0, 71, 0
1, 160155, Note_on_c, 0, 64, 58
1, 160155, Note_on_c, 0, 73, 68
1, 160155, Note_on_c, 0, 76, 68
1, 160158, Note_on_c, 0, 44, 0
1, 160158, Note_on_c, 0, 38, 72
1, 160158, Note_on_c, 0, 45, 72
1, 160290, Note_on_c, 0, 64, 0
1, 160290, Note_on_c, 0, 66, 58
1, 160428, Note_on_c, 0, 66, 0
1, 160428, Note_on_c, 0, 76, 0
1, 160428, Note_on_c, 0, 73, 0
1, 160431, Note_on_c, 0, 69, 57
1, 160431, Note_on_c, 0, 73, 66
1, 160431, Note_on_c, 0, 61, 70
1, 160563, Note_on_c, 0, 69, 0
1, 160563, Note_on_c, 0, 66, 57
1, 160676, Note_on_c, 0, 73, 0
1, 160687, Note_on_c, 0, 66, 0
1, 160698, Control_c, 0, 64, 127
1, 160698, Note_on_c, 0, 69, 57
1, 160698, Note_on_c, 0, 73, 66
1, 160701, Note_on_c, 0, 61, 0
1, 160701, Note_on_c, 0, 45, 0
1, 160701, Note_on_c, 0, 38, 0
1, 160704, Note_on_c, 0, 54, 61
1, 160704, Note_on_c, 0, 57, 61
1, 160704, Note_on_c, 0, 61, 61
1, 160834, Note_on_c, 0, 69, 0
1, 160834, Note_on_c, 0, 66, 57
1, 160971, Note_on_c, 0, 66, 0
1, 160971, Note_on_c, 0, 69, 59
1, 161107, Note_on_c, 0, 69, 0
1, 161107, Note_on_c, 0, 66, 57
1, 161219, Control_c, 0, 64, 0
1, 161219, Note_on_c, 0, 73, 0
1, 161232, Note_on_c, 0, 66, 0
1, 161243, Note_on_c, 0, 69, 67
1, 161243, Note_on_c, 0, 66, 57
1, 161243, Note_on_c, 0, 61, 0
1, 161246, Note_on_c, 0, 57, 0
1, 161246, Note_on_c, 0, 54, 0
1, 161246, Note_on_c, 0, 45, 66
1, 161317, Control_c, 0, 64, 127
1, 161382, Note_on_c, 0, 66, 0
1, 161382, Note_on_c, 0, 62, 57
1, 161521, Note_on_c, 0, 62, 0
1, 161521, Note_on_c, 0, 69, 0
1, 161521, Note_on_c, 0, 69, 57
1, 161524, Note_on_c, 0, 73, 67
1, 161655, Note_on_c, 0, 69, 0
1, 161655, Note_on_c, 0, 62, 57
1, 161789, Note_on_c, 0, 62, 0
1, 161789, Note_on_c, 0, 73, 0
1, 161789, Control_c, 0, 64, 0
1, 161792, Note_on_c, 0, 71, 57
1, 161792, Note_on_c, 0, 74, 70
1, 161792, Note_on_c, 0, 45, 0
1, 161795, Note_on_c, 0, 35, 67
1, 161795, Note_on_c, 0, 47, 67
1, 161843, Control_c, 0, 64, 127
1, 161921, Note_on_c, 0, 71, 0
1, 161921, Note_on_c, 0, 66, 57
1, 162052, Note_on_c, 0, 66, 0
1, 162052, Note_on_c, 0, 71, 60
1, 162183, Note_on_c, 0, 71, 0
1, 162183, Note_on_c, 0, 66, 55
1, 162315, Note_on_c, 0, 66, 0
1, 162315, Note_on_c, 0, 71, 59
1, 162315, Note_on_c, 0, 47, 0
1, 162318, Note_on_c, 0, 35, 0
1, 162318, Note_on_c, 0, 54, 60
1, 162318, Note_on_c, 0, 59, 60
1, 162321, Note_on_c, 0, 62, 60
1, 162446, Note_on_c, 0, 71, 0
1, 162446, Note_on_c, 0, 66, 55
1, 162578, Note_on_c, 0, 66, 0
1, 162578, Note_on_c, 0, 71, 59
1, 162709, Note_on_c, 0, 71, 0
1, 162709, Note_on_c, 0, 66, 55
1, 162794, Control_c, 0, 64, 0
1, 162840, Note_on_c, 0, 66, 0
1, 162840, Note_on_c, 0, 74, 0
1, 162840, Note_on_c, 0, 66, 70
1, 162843, Note_on_c, 0, 71, 70
1, 162843, Note_on_c, 0, 62, 0
1, 162843, Note_on_c, 0, 59, 0
1, 162846, Note_on_c, 0, 54, 0
1, 162846, Note_on_c, 0, 45, 58
1, 162846, Note_on_c, 0, 33, 58
1, 162913, Control_c, 0, 64, 127
1, 162976, Note_on_c, 0, 66, 0
1, 162976, Note_on_c, 0, 62, 60
1, 163112, Note_on_c, 0, 62, 0
1, 163112, Note_on_c, 0, 71, 0
1, 163112, Note_on_c, 0, 71, 74
1, 163115, Note_on_c, 0, 74, 74
1, 163251, Note_on_c, 0, 71, 0
1, 163251, Note_on_c, 0, 66, 65
1, 163366, Note_on_c, 0, 66, 0
1, 163366, Note_on_c, 0, 74, 0
1, 163389, Note_on_c, 0, 74, 61
1, 163389, Note_on_c, 0, 78, 75
1, 163389, Note_on_c, 0, 33, 0
1, 163392, Note_on_c, 0, 45, 0
1, 163392, Note_on_c, 0, 32, 72
1, 163392, Note_on_c, 0, 44, 72
1, 163523, Note_on_c, 0, 74, 0
1, 163523, Note_on_c, 0, 71, 60
1, 163658, Note_on_c, 0, 71, 0
1, 163658, Note_on_c, 0, 78, 0
1, 163658, Note_on_c, 0, 66, 58
1, 163661, Note_on_c, 0, 74, 70
1, 163661, Note_on_c, 0, 62, 70
1, 163789, Note_on_c, 0, 66, 0
1, 163789, Note_on_c, 0, 71, 60
1, 163882, Control_c, 0, 64, 0
1, 163899, Note_on_c, 0, 74, 0
1, 163910, Note_on_c, 0, 71, 0
1, 163921, Note_on_c, 0, 74, 70
1, 163921, Note_on_c, 0, 62, 0
1, 163921, Note_on_c, 0, 44, 0
1, 163924, Note_on_c, 0, 32, 0
1, 163924, Note_on_c, 0, 56, 61
1, 163924, Note_on_c, 0, 59, 61
1, 163927, Note_on_c, 0, 62, 61
1, 163976, Control_c, 0, 64, 127
1, 164055, Note_on_c, 0, 71, 60
1, 164189, Note_on_c, 0, 71, 0
1, 164189, Note_on_c, 0, 66, 64
1, 164324, Note_on_c, 0, 66, 0
1, 164324, Note_on_c, 0, 71, 60
1, 164363, Control_c, 0, 64, 0
1, 164436, Note_on_c, 0, 74, 0
1, 164447, Note_on_c, 0, 71, 0
1, 164458, Note_on_c, 0, 73, 70
1, 164458, Note_on_c, 0, 76, 70
1, 164458, Note_on_c, 0, 62, 0
1, 164461, Note_on_c, 0, 64, 60
1, 164461, Note_on_c, 0, 61, 60
1, 164597, Note_on_c, 0, 73, 0
1, 164597, Note_on_c, 0, 71, 60
1, 164737, Note_on_c, 0, 71, 0
1, 164737, Note_on_c, 0, 76, 0
1, 164737, Note_on_c, 0, 74, 72
1, 164740, Note_on_c, 0, 78, 72
1, 164740, Note_on_c, 0, 61, 0
1, 164740, Note_on_c, 0, 64, 0
1, 164743, Note_on_c, 0, 62, 60
1, 164743, Note_on_c, 0, 66, 60
1, 164871, Note_on_c, 0, 74, 0
1, 164871, Note_on_c, 0, 71, 60
1, 165004, Note_on_c, 0, 71, 0
1, 165004, Note_on_c, 0, 78, 0
1, 165004, Note_on_c, 0, 77, 76
1, 165007, Note_on_c, 0, 80, 76
1, 165007, Note_on_c, 0, 66, 0
1, 165007, Note_on_c, 0, 56, 0
1, 165010, Note_on_c, 0, 59, 0
1, 165010, Note_on_c, 0, 62, 0
1, 165010, Note_on_c, 0, 37, 67
1, 165013, Note_on_c, 0, 49, 67
1, 165138, Note_on_c, 0, 77, 0
1, 165138, Note_on_c, 0, 71, 72
1, 165272, Note_on_c, 0, 80, 0
1, 165272, Note_on_c, 0, 77, 72
1, 165272, Note_on_c, 0, 80, 72
1, 165275, Note_on_c, 0, 65, 65
1, 165275, Note_on_c, 0, 68, 65
1, 165403, Note_on_c, 0, 80, 0
1, 165403, Note_on_c, 0, 77, 0
1, 165403, Note_on_c, 0, 75, 72
1, 165406, Note_on_c, 0, 78, 72
1, 165406, Note_on_c, 0, 68, 0
1, 165406, Note_on_c, 0, 65, 0
1, 165409, Note_on_c, 0, 63, 65
1, 165409, Note_on_c, 0, 66, 65
1, 165534, Note_on_c, 0, 78, 0
1, 165534, Note_on_c, 0, 75, 0
1, 165534, Note_on_c, 0, 71, 0
1, 165537, Note_on_c, 0, 77, 69
1, 165537, Note_on_c, 0, 80, 75
1, 165537, Note_on_c, 0, 66, 0
1, 165540, Note_on_c, 0, 37, 0
1, 165540, Note_on_c, 0, 49, 0
1, 165540, Note_on_c, 0, 63, 0
1, 165543, Note_on_c, 0, 59, 67
1, 165543, Note_on_c, 0, 65, 68
1, 165543, Note_on_c, 0, 68, 68
1, 165666, Note_on_c, 0, 77, 0
1, 165666, Note_on_c, 0, 71, 64
1, 165777, Note_on_c, 0, 71, 0
1, 165777, Note_on_c, 0, 80, 0
1, 165777, Note_on_c, 0, 68, 0
1, 165780, Note_on_c, 0, 65, 0
1, 165799, Note_on_c, 0, 73, 69
1, 165799, Control_c, 0, 64, 127
1, 165799, Note_on_c, 0, 77, 76
1, 165802, Note_on_c, 0, 61, 68
1, 165802, Note_on_c, 0, 65, 68
1, 165936, Note_on_c, 0, 73, 0
1, 165936, Note_on_c, 0, 71, 64
1, 165988, Control_c, 0, 64, 0
1, 166073, Note_on_c, 0, 71, 0
1, 166073, Note_on_c, 0, 77, 0
1, 166073, Control_c, 0, 64, 127
1, 166076, Note_on_c, 0, 75, 73
1, 166076, Note_on_c, 0, 78, 81
1, 166076, Note_on_c, 0, 65, 0
1, 166079, Note_on_c, 0, 61, 0
1, 166079, Note_on_c, 0, 63, 73
1, 166079, Note_on_c, 0, 66, 73
1, 166210, Note_on_c, 0, 75, 0
1, 166210, Note_on_c, 0, 71, 64
1, 166268, Control_c, 0, 64, 0
1, 166346, Note_on_c, 0, 71, 0
1, 166346, Note_on_c, 0, 78, 0
1, 166346, Control_c, 0, 64, 127
1, 166349, Note_on_c, 0, 77, 73
1, 166349, Note_on_c, 0, 80, 85
1, 166349, Note_on_c, 0, 66, 0
1, 166352, Note_on_c, 0, 63, 0
1, 166352, Note_on_c, 0, 65, 77
1, 166352, Note_on_c, 0, 68, 77
1, 166480, Note_on_c, 0, 77, 0
1, 166480, Note_on_c, 0, 71, 64
1, 166531, Control_c, 0, 64, 0
1, 166614, Note_on_c, 0, 71, 0
1, 166614, Note_on_c, 0, 80, 0
1, 166614, Note_on_c, 0, 78, 74
1, 166617, Note_on_c, 0, 81, 91
1, 166617, Note_on_c, 0, 68, 0
1, 166617, Note_on_c, 0, 65, 0
1, 166620, Note_on_c, 0, 59, 0
1, 166620, Note_on_c, 0, 42, 91
1, 166620, Note_on_c, 0, 49, 91
1, 166748, Note_on_c, 0, 78, 0
1, 166748, Note_on_c, 0, 73, 65
1, 166882, Note_on_c, 0, 73, 0
1, 166882, Note_on_c, 0, 81, 0
1, 166882, Note_on_c, 0, 73, 64
1, 166885, Note_on_c, 0, 78, 90
1, 166885, Note_on_c, 0, 66, 90
1, 167014, Note_on_c, 0, 73, 0
1, 167014, Note_on_c, 0, 69, 65
1, 167094, Control_c, 0, 64, 0
1, 167126, Note_on_c, 0, 78, 0
1, 167138, Note_on_c, 0, 69, 0
1, 167149, Note_on_c, 0, 73, 70
1, 167149, Note_on_c, 0, 78, 90
1, 167149, Note_on_c, 0, 66, 0
1, 167152, Note_on_c, 0, 49, 0
1, 167152, Note_on_c, 0, 42, 0
1, 167152, Note_on_c, 0, 57, 88
1, 167155, Note_on_c, 0, 61, 88
1, 167155, Note_on_c, 0, 66, 88
1, 167196, Control_c, 0, 64, 127
1, 167283, Note_on_c, 0, 73, 0
1, 167283, Note_on_c, 0, 69, 65
1, 167418, Note_on_c, 0, 69, 0
1, 167418, Note_on_c, 0, 73, 70
1, 167552, Note_on_c, 0, 73, 0
1, 167552, Note_on_c, 0, 69, 65
1, 167663, Control_c, 0, 64, 0
1, 167663, Note_on_c, 0, 78, 0
1, 167675, Note_on_c, 0, 69, 0
1, 167687, Note_on_c, 0, 78, 96
1, 167687, Note_on_c, 0, 81, 96
1, 167687, Note_on_c, 0, 66, 0
1, 167690, Note_on_c, 0, 61, 0
1, 167690, Note_on_c, 0, 57, 0
1, 167690, Note_on_c, 0, 54, 82
1, 167693, Note_on_c, 0, 57, 82
1, 167693, Note_on_c, 0, 61, 82
1, 167752, Control_c, 0, 64, 127
1, 167826, Note_on_c, 0, 78, 0
1, 167826, Note_on_c, 0, 73, 81
1, 167965, Note_on_c, 0, 73, 0
1, 167965, Note_on_c, 0, 81, 0
1, 167965, Note_on_c, 0, 81, 97
1, 167968, Note_on_c, 0, 85, 97
1, 168111, Note_on_c, 0, 81, 0
1, 168111, Note_on_c, 0, 78, 81
1, 168257, Note_on_c, 0, 78, 0
1, 168257, Note_on_c, 0, 85, 0
1, 168257, Control_c, 0, 64, 0
1, 168260, Note_on_c, 0, 86, 109
1, 168260, Note_on_c, 0, 78, 79
1, 168260, Note_on_c, 0, 81, 79
1, 168263, Note_on_c, 0, 61, 0
1, 168263, Note_on_c, 0, 57, 0
1, 168263, Note_on_c, 0, 54, 0
1, 168266, Note_on_c, 0, 38, 91
1, 168266, Note_on_c, 0, 45, 91
1, 168331, Control_c, 0, 64, 127
1, 168396, Note_on_c, 0, 81, 0
1, 168396, Note_on_c, 0, 78, 0
1, 168396, Note_on_c, 0, 74, 58
1, 168536, Note_on_c, 0, 74, 0
1, 168536, Note_on_c, 0, 78, 58
1, 168536, Note_on_c, 0, 81, 58
1, 168539, Note_on_c, 0, 50, 72
1, 168539, Note_on_c, 0, 54, 72
1, 168539, Note_on_c, 0, 57, 72
1, 168670, Note_on_c, 0, 81, 0
1, 168670, Note_on_c, 0, 78, 0
1, 168670, Note_on_c, 0, 74, 59
1, 168804, Note_on_c, 0, 74, 0
1, 168804, Note_on_c, 0, 78, 60
1, 168804, Note_on_c, 0, 81, 60
1, 168807, Note_on_c, 0, 57, 0
1, 168807, Note_on_c, 0, 50, 0
1, 168807, Note_on_c, 0, 54, 0
1, 168810, Note_on_c, 0, 54, 72
1, 168810, Note_on_c, 0, 57, 72
1, 168810, Note_on_c, 0, 62, 72
1, 168939, Note_on_c, 0, 81, 0
1, 168939, Note_on_c, 0, 78, 0
1, 168939, Note_on_c, 0, 74, 61
1, 169073, Note_on_c, 0, 74, 0
1, 169073, Note_on_c, 0, 81, 61
1, 169073, Note_on_c, 0, 78, 61
1, 169208, Note_on_c, 0, 78, 0
1, 169208, Note_on_c, 0, 81, 0
1, 169208, Note_on_c, 0, 74, 61
1, 169342, Note_on_c, 0, 74, 0
1, 169342, Note_on_c, 0, 81, 62
1, 169342, Note_on_c, 0, 78, 62
1, 169345, Note_on_c, 0, 62, 0
1, 169345, Note_on_c, 0, 54, 0
1, 169345, Note_on_c, 0, 57, 0
1, 169348, Note_on_c, 0, 66, 75
1, 169348, Note_on_c, 0, 62, 75
1, 169348, Note_on_c, 0, 57, 75
1, 169476, Note_on_c, 0, 78, 0
1, 169476, Note_on_c, 0, 81, 0
1, 169476, Note_on_c, 0, 74, 64
1, 169611, Note_on_c, 0, 74, 0
1, 169611, Note_on_c, 0, 78, 64
1, 169611, Note_on_c, 0, 81, 64
1, 169614, Note_on_c, 0, 57, 0
1, 169614, Note_on_c, 0, 66, 0
1, 169614, Note_on_c, 0, 62, 0
1, 169617, Note_on_c, 0, 69, 74
1, 169617, Note_on_c, 0, 66, 74
1, 169617, Note_on_c, 0, 62, 74
1, 169748, Note_on_c, 0, 81, 0
1, 169748, Note_on_c, 0, 78, 0
1, 169748, Note_on_c, 0, 74, 65
1, 169886, Note_on_c, 0, 74, 0
1, 169886, Note_on_c, 0, 78, 59
1, 169886, Note_on_c, 0, 81, 59
1, 169889, Note_on_c, 0, 62, 0
1, 169889, Note_on_c, 0, 69, 0
1, 169889, Note_on_c, 0, 38, 0
1, 169892, Note_on_c, 0, 45, 0
1, 169892, Note_on_c, 0, 66, 0
1, 169892, Note_on_c, 0, 62, 80
1, 169895, Note_on_c, 0, 66, 80
1, 169895, Note_on_c, 0, 69, 80
1, 170020, Note_on_c, 0, 81, 0
1, 170020, Note_on_c, 0, 78, 0
1, 170020, Note_on_c, 0, 74, 55
1, 170155, Note_on_c, 0, 74, 0
1, 170155, Note_on_c, 0, 78, 61
1, 170155, Note_on_c, 0, 81, 61
1, 170210, Control_c, 0, 64, 0
1, 170289, Note_on_c, 0, 81, 0
1, 170289, Note_on_c, 0, 78, 0
1, 170289, Note_on_c, 0, 74, 55
1, 170423, Note_on_c, 0, 74, 0
1, 170423, Note_on_c, 0, 86, 0
1, 170423, Note_on_c, 0, 81, 53
1, 170426, Note_on_c, 0, 86, 53
1, 170426, Note_on_c, 0, 88, 74
1, 170559, Note_on_c, 0, 86, 0
1, 170559, Note_on_c, 0, 81, 0
1, 170559, Note_on_c, 0, 76, 49
1, 170694, Note_on_c, 0, 76, 0
1, 170694, Note_on_c, 0, 81, 55
1, 170694, Note_on_c, 0, 86, 55
1, 170829, Note_on_c, 0, 86, 0
1, 170829, Note_on_c, 0, 81, 0
1, 170829, Note_on_c, 0, 76, 52
1, 170964, Note_on_c, 0, 76, 0
1, 170964, Note_on_c, 0, 88, 0
1, 170964, Note_on_c, 0, 81, 58
1, 170967, Note_on_c, 0, 86, 58
1, 170967, Note_on_c, 0, 90, 83
1, 171102, Note_on_c, 0, 86, 0
1, 171102, Note_on_c, 0, 81, 0
1, 171102, Note_on_c, 0, 78, 54
1, 171239, Note_on_c, 0, 78, 0
1, 171239, Note_on_c, 0, 86, 61
1, 171239, Note_on_c, 0, 81, 61
1, 171377, Note_on_c, 0, 81, 0
1, 171377, Note_on_c, 0, 86, 0
1, 171377, Note_on_c, 0, 78, 57
1, 171514, Note_on_c, 0, 78, 0
1, 171514, Note_on_c, 0, 90, 0
1, 171514, Control_c, 0, 64, 127
1, 171517, Note_on_c, 0, 81, 54
1, 171517, Note_on_c, 0, 86, 54
1, 171517, Note_on_c, 0, 90, 85
1, 171520, Note_on_c, 0, 69, 0
1, 171520, Note_on_c, 0, 66, 0
1, 171520, Note_on_c, 0, 62, 0
1, 171523, Note_on_c, 0, 35, 66
1, 171523, Note_on_c, 0, 47, 66
1, 171654, Note_on_c, 0, 86, 0
1, 171654, Note_on_c, 0, 81, 0
1, 171654, Note_on_c, 0, 78, 50
1, 171794, Note_on_c, 0, 78, 0
1, 171794, Note_on_c, 0, 81, 54
1, 171794, Note_on_c, 0, 86, 54
1, 171797, Note_on_c, 0, 50, 58
1, 171797, Note_on_c, 0, 57, 58
1, 171797, Note_on_c, 0, 54, 58
1, 171930, Note_on_c, 0, 86, 0
1, 171930, Note_on_c, 0, 81, 0
1, 171930, Note_on_c, 0, 78, 49
1, 172065, Note_on_c, 0, 78, 0
1, 172065, Note_on_c, 0, 81, 51
1, 172065, Note_on_c, 0, 86, 51
1, 172068, Note_on_c, 0, 54, 0
1, 172068, Note_on_c, 0, 50, 0
1, 172068, Note_on_c, 0, 57, 0
1, 172071, Note_on_c, 0, 54, 57
1, 172071, Note_on_c, 0, 57, 57
1, 172071, Note_on_c, 0, 62, 57
1, 172200, Note_on_c, 0, 86, 0
1, 172200, Note_on_c, 0, 81, 0
1, 172200, Note_on_c, 0, 78, 47
1, 172335, Note_on_c, 0, 78, 0
1, 172335, Note_on_c, 0, 81, 50
1, 172335, Note_on_c, 0, 86, 50
1, 172470, Note_on_c, 0, 86, 0
1, 172470, Note_on_c, 0, 81, 0
1, 172470, Note_on_c, 0, 78, 45
1, 172605, Note_on_c, 0, 78, 0
1, 172605, Note_on_c, 0, 81, 47
1, 172605, Note_on_c, 0, 86, 47
1, 172608, Note_on_c, 0, 62, 0
1, 172608, Note_on_c, 0, 54, 0
1, 172608, Note_on_c, 0, 57, 0
1, 172611, Note_on_c, 0, 66, 57
1, 172611, Note_on_c, 0, 62, 57
1, 172611, Note_on_c, 0, 57, 57
1, 172741, Note_on_c, 0, 86, 0
1, 172741, Note_on_c, 0, 81, 0
1, 172741, Note_on_c, 0, 78, 43
1, 172876, Note_on_c, 0, 78, 0
1, 172876, Note_on_c, 0, 81, 45
1, 172876, Note_on_c, 0, 86, 45
1, 172879, Note_on_c, 0, 57, 0
1, 172879, Note_on_c, 0, 66, 0
1, 172879, Note_on_c, 0, 62, 0
1, 172882, Note_on_c, 0, 69, 53
1, 172882, Note_on_c, 0, 66, 53
1, 172882, Note_on_c, 0, 62, 53
1, 173018, Note_on_c, 0, 86, 0
1, 173018, Note_on_c, 0, 81, 0
1, 173018, Note_on_c, 0, 78, 42
1, 173159, Note_on_c, 0, 78, 0
1, 173159, Control_c, 0, 64, 0
1, 173159, Note_on_c, 0, 86, 46
1, 173162, Note_on_c, 0, 81, 46
1, 173162, Note_on_c, 0, 62, 0
1, 173162, Note_on_c, 0, 69, 0
1, 173165, Note_on_c, 0, 35, 0
1, 173165, Note_on_c, 0, 47, 0
1, 173165, Note_on_c, 0, 66, 0
1, 173168, Note_on_c, 0, 69, 53
1, 173168, Note_on_c, 0, 66, 53
1, 173168, Note_on_c, 0, 62, 53
1, 173223, Control_c, 0, 64, 127
1, 173296, Note_on_c, 0, 81, 0
1, 173296, Note_on_c, 0, 86, 0
1, 173296, Note_on_c, 0, 78, 45
1, 173433, Note_on_c, 0, 78, 0
1, 173433, Note_on_c, 0, 86, 44
1, 173433, Note_on_c, 0, 81, 44
1, 173569, Note_on_c, 0, 81, 0
1, 173569, Note_on_c, 0, 86, 0
1, 173569, Note_on_c, 0, 78, 45
1, 173706, Note_on_c, 0, 78, 0
1, 173706, Note_on_c, 0, 90, 0
1, 173706, Note_on_c, 0, 86, 62
1, 173709, Note_on_c, 0, 78, 44
1, 173709, Note_on_c, 0, 81, 44
1, 173709, Note_on_c, 0, 62, 0
1, 173712, Note_on_c, 0, 66, 0
1, 173712, Note_on_c, 0, 69, 0
1, 173843, Note_on_c, 0, 81, 0
1, 173843, Note_on_c, 0, 78, 0
1, 173843, Note_on_c, 0, 74, 40
1, 173980, Note_on_c, 0, 74, 0
1, 173980, Note_on_c, 0, 78, 38
1, 173980, Note_on_c, 0, 81, 38
1, 174117, Note_on_c, 0, 81, 0
1, 174117, Note_on_c, 0, 78, 0
1, 174117, Note_on_c, 0, 74, 40
1, 174253, Note_on_c, 0, 74, 0
1, 174253, Note_on_c, 0, 86, 0
1, 174253, Note_on_c, 0, 90, 66
1, 174256, Note_on_c, 0, 83, 44
1, 174256, Note_on_c, 0, 86, 44
1, 174256, Note_on_c, 0, 71, 46
1, 174259, Note_on_c, 0, 66, 46
1, 174259, Note_on_c, 0, 62, 46
1, 174259, Note_on_c, 0, 59, 46
1, 174390, Note_on_c, 0, 86, 0
1, 174390, Note_on_c, 0, 83, 0
1, 174390, Note_on_c, 0, 78, 40
1, 174393, Note_on_c, 0, 59, 0
1, 174393, Note_on_c, 0, 71, 0
1, 174393, Note_on_c, 0, 66, 0
1, 174396, Note_on_c, 0, 62, 0
1, 174527, Note_on_c, 0, 78, 0
1, 174527, Note_on_c, 0, 83, 38
1, 174527, Note_on_c, 0, 86, 38
1, 174600, Control_c, 0, 64, 0
1, 174664, Note_on_c, 0, 86, 0
1, 174664, Note_on_c, 0, 83, 0
1, 174664, Note_on_c, 0, 78, 40
1, 174800, Note_on_c, 0, 78, 0
1, 174800, Note_on_c, 0, 90, 0
1, 174800, Note_on_c, 0, 93, 53
1, 174803, Note_on_c, 0, 88, 53
1, 174803, Note_on_c, 0, 81, 53
1, 174803, Note_on_c, 0, 33, 50
1, 174806, Note_on_c, 0, 40, 50
1, 174806, Note_on_c, 0, 45, 50
1, 174904, Note_on_c, 0, 81, 0
1, 174904, Note_on_c, 0, 88, 0
1, 174904, Note_on_c, 0, 93, 0
1, 174907, Note_on_c, 0, 45, 0
1, 174907, Note_on_c, 0, 40, 0
1, 174907, Note_on_c, 0, 33, 0
1, 175077, Note_on_c, 0, 64, 44
1, 175077, Note_on_c, 0, 69, 44
1, 175077, Note_on_c, 0, 60, 45
1, 175080, Note_on_c, 0, 57, 45
1, 175199, Note_on_c, 0, 69, 0
1, 175199, Note_on_c, 0, 64, 0
1, 175199, Note_on_c, 0, 62, 44
1, 175202, Note_on_c, 0, 57, 0
1, 175202, Note_on_c, 0, 60, 0
1, 175202, Note_on_c, 0, 52, 45
1, 175205, Note_on_c, 0, 59, 45
1, 175333, Note_on_c, 0, 62, 0
1, 175333, Note_on_c, 0, 69, 49
1, 175333, Note_on_c, 0, 64, 49
1, 175336, Note_on_c, 0, 59, 0
1, 175336, Note_on_c, 0, 52, 0
1, 175336, Note_on_c, 0, 60, 49
1, 175339, Note_on_c, 0, 57, 49
1, 175367, Note_on_c, 0, 64, 0
1, 175367, Note_on_c, 0, 69, 0
1, 175367, Note_on_c, 0, 57, 0
1, 175370, Note_on_c, 0, 60, 0
1, 175608, Note_on_c, 0, 64, 44
1, 175608, Note_on_c, 0, 69, 44
1, 175608, Note_on_c, 0, 60, 44
1, 175611, Note_on_c, 0, 57, 44
1, 175676, Note_on_c, 0, 69, 0
1, 175676, Note_on_c, 0, 64, 0
1, 175676, Note_on_c, 0, 57, 0
1, 175679, Note_on_c, 0, 60, 0
1, 176153, Note_on_c, 0, 83, 45
1, 176153, Note_on_c, 0, 79, 45
1, 176153, Note_on_c, 0, 71, 45
1, 176156, Note_on_c, 0, 43, 44
1, 176156, Note_on_c, 0, 50, 44
1, 176156, Note_on_c, 0, 55, 44
1, 176221, Note_on_c, 0, 71, 0
1, 176221, Note_on_c, 0, 79, 0
1, 176221, Note_on_c, 0, 83, 0
1, 176224, Note_on_c, 0, 55, 0
1, 176224, Note_on_c, 0, 50, 0
1, 176224, Note_on_c, 0, 43, 0
1, 176423, Note_on_c, 0, 84, 53
1, 176423, Note_on_c, 0, 79, 53
1, 176423, Note_on_c, 0, 72, 53
1, 176426, Note_on_c, 0, 36, 47
1, 176426, Note_on_c, 0, 43, 47
1, 176426, Note_on_c, 0, 48, 47
1, 176493, Note_on_c, 0, 72, 0
1, 176493, Note_on_c, 0, 79, 0
1, 176493, Note_on_c, 0, 84, 0
1, 176496, Note_on_c, 0, 48, 0
1, 176496, Note_on_c, 0, 43, 0
1, 176496, Note_on_c, 0, 36, 0
1, 176700, Note_on_c, 0, 67, 44
1, 176700, Note_on_c, 0, 72, 44
1, 176700, Note_on_c, 0, 64, 45
1, 176703, Note_on_c, 0, 60, 45
1, 176822, Note_on_c, 0, 72, 0
1, 176822, Note_on_c, 0, 67, 0
1, 176822, Note_on_c, 0, 65, 44
1, 176825, Note_on_c, 0, 60, 0
1, 176825, Note_on_c, 0, 64, 0
1, 176825, Note_on_c, 0, 55, 45
1, 176828, Note_on_c, 0, 62, 45
1, 176956, Note_on_c, 0, 65, 0
1, 176956, Note_on_c, 0, 67, 47
1, 176956, Note_on_c, 0, 72, 47
1, 176959, Note_on_c, 0, 62, 0
1, 176959, Note_on_c, 0, 55, 0
1, 176959, Note_on_c, 0, 60, 47
1, 176962, Note_on_c, 0, 64, 47
1, 176990, Note_on_c, 0, 72, 0
1, 176990, Note_on_c, 0, 67, 0
1, 176990, Note_on_c, 0, 64, 0
1, 176993, Note_on_c, 0, 60, 0
1, 177231, Note_on_c, 0, 67, 44
1, 177231, Note_on_c, 0, 72, 44
1, 177231, Note_on_c, 0, 60, 44
1, 177234, Note_on_c, 0, 64, 44
1, 177300, Note_on_c, 0, 72, 0
1, 177300, Note_on_c, 0, 67, 0
1, 177300, Note_on_c, 0, 64, 0
1, 177303, Note_on_c, 0, 60, 0
1, 177775, Note_on_c, 0, 83, 45
1, 177775, Note_on_c, 0, 79, 45
1, 177775, Note_on_c, 0, 71, 45
1, 177778, Note_on_c, 0, 43, 44
1, 177778, Note_on_c, 0, 50, 44
1, 177778, Note_on_c, 0, 55, 44
1, 177842, Note_on_c, 0, 71, 0
1, 177842, Note_on_c, 0, 79, 0
1, 177842, Note_on_c, 0, 83, 0
1, 177845, Note_on_c, 0, 55, 0
1, 177845, Note_on_c, 0, 50, 0
1, 177845, Note_on_c, 0, 43, 0
1, 178043, Note_on_c, 0, 81, 52
1, 178043, Note_on_c, 0, 76, 52
1, 178043, Note_on_c, 0, 69, 52
1, 178046, Note_on_c, 0, 45, 46
1, 178046, Note_on_c, 0, 52, 46
1, 178046, Note_on_c, 0, 57, 46
1, 178113, Note_on_c, 0, 69, 0
1, 178113, Note_on_c, 0, 76, 0
1, 178113, Note_on_c, 0, 81, 0
1, 178116, Note_on_c, 0, 57, 0
1, 178116, Note_on_c, 0, 52, 0
1, 178116, Note_on_c, 0, 45, 0
1, 178320, Note_on_c, 0, 64, 44
1, 178320, Note_on_c, 0, 69, 44
1, 178320, Note_on_c, 0, 57, 45
1, 178323, Note_on_c, 0, 60, 45
1, 178442, Note_on_c, 0, 69, 0
1, 178442, Note_on_c, 0, 64, 0
1, 178442, Note_on_c, 0, 64, 44
1, 178445, Note_on_c, 0, 60, 0
1, 178445, Note_on_c, 0, 57, 0
1, 178445, Note_on_c, 0, 52, 45
1, 178448, Note_on_c, 0, 59, 45
1, 178576, Note_on_c, 0, 64, 0
1, 178576, Note_on_c, 0, 64, 47
1, 178576, Note_on_c, 0, 69, 47
1, 178579, Note_on_c, 0, 59, 0
1, 178579, Note_on_c, 0, 52, 0
1, 178579, Note_on_c, 0, 60, 47
1, 178582, Note_on_c, 0, 57, 47
1, 178610, Note_on_c, 0, 69, 0
1, 178610, Note_on_c, 0, 64, 0
1, 178610, Note_on_c, 0, 57, 0
1, 178613, Note_on_c, 0, 60, 0
1, 178851, Note_on_c, 0, 64, 43
1, 178851, Note_on_c, 0, 69, 43
1, 178851, Note_on_c, 0, 60, 43
1, 178854, Note_on_c, 0, 57, 43
1, 178920, Note_on_c, 0, 69, 0
1, 178920, Note_on_c, 0, 64, 0
1, 178920, Note_on_c, 0, 57, 0
1, 178923, Note_on_c, 0, 60, 0
1, 179396, Note_on_c, 0, 83, 49
1, 179396, Note_on_c, 0, 79, 49
1, 179396, Note_on_c, 0, 71, 49
1, 179399, Note_on_c, 0, 43, 43
1, 179399, Note_on_c, 0, 50, 43
1, 179399, Note_on_c, 0, 55, 43
1, 179464, Note_on_c, 0, 71, 0
1, 179464, Note_on_c, 0, 79, 0
1, 179464, Note_on_c, 0, 83, 0
1, 179467, Note_on_c, 0, 55, 0
1, 179467, Note_on_c, 0, 50, 0
1, 179467, Note_on_c, 0, 43, 0
1, 179667, Note_on_c, 0, 84, 53
1, 179667, Note_on_c, 0, 79, 53
1, 179667, Note_on_c, 0, 72, 53
1, 179670, Note_on_c, 0, 36, 49
1, 179670, Note_on_c, 0, 43, 49
1, 179670, Note_on_c, 0, 48, 49
1, 179736, Note_on_c, 0, 72, 0
1, 179736, Note_on_c, 0, 79, 0
1, 179736, Note_on_c, 0, 84, 0
1, 179739, Note_on_c, 0, 48, 0
1, 179739, Note_on_c, 0, 43, 0
1, 179739, Note_on_c, 0, 36, 0
1, 179943, Note_on_c, 0, 67, 43
1, 179943, Note_on_c, 0, 72, 43
1, 179943, Note_on_c, 0, 64, 44
1, 179946, Note_on_c, 0, 60, 44
1, 180065, Note_on_c, 0, 72, 0
1, 180065, Note_on_c, 0, 67, 0
1, 180065, Note_on_c, 0, 65, 43
1, 180068, Note_on_c, 0, 60, 0
1, 180068, Note_on_c, 0, 64, 0
1, 180068, Note_on_c, 0, 55, 44
1, 180071, Note_on_c, 0, 62, 44
1, 180199, Note_on_c, 0, 65, 0
1, 180199, Note_on_c, 0, 67, 46
1, 180199, Note_on_c, 0, 72, 46
1, 180202, Note_on_c, 0, 62, 0
1, 180202, Note_on_c, 0, 55, 0
1, 180202, Note_on_c, 0, 60, 46
1, 180205, Note_on_c, 0, 64, 46
1, 180233, Note_on_c, 0, 72, 0
1, 180233, Note_on_c, 0, 67, 0
1, 180233, Note_on_c, 0, 64, 0
1, 180236, Note_on_c, 0, 60, 0
1, 180474, Note_on_c, 0, 67, 43
1, 180474, Note_on_c, 0, 72, 43
1, 180474, Note_on_c, 0, 60, 43
1, 180477, Note_on_c, 0, 64, 43
1, 180543, Note_on_c, 0, 72, 0
1, 180543, Note_on_c, 0, 67, 0
1, 180543, Note_on_c, 0, 64, 0
1, 180546, Note_on_c, 0, 60, 0
1, 181029, Note_on_c, 0, 83, 44
1, 181029, Note_on_c, 0, 79, 44
1, 181029, Note_on_c, 0, 71, 44
1, 181032, Note_on_c, 0, 64, 43
1, 181032, Note_on_c, 0, 59, 43
1, 181032, Note_on_c, 0, 52, 43
1, 181105, Note_on_c, 0, 71, 0
1, 181105, Note_on_c, 0, 79, 0
1, 181105, Note_on_c, 0, 83, 0
1, 181108, Note_on_c, 0, 52, 0
1, 181108, Note_on_c, 0, 59, 0
1, 181108, Note_on_c, 0, 64, 0
1, 181333, Note_on_c, 0, 71, 46
1, 181333, Note_on_c, 0, 79, 46
1, 181333, Note_on_c, 0, 83, 46
1, 181336, Note_on_c, 0, 52, 45
1, 181336, Note_on_c, 0, 59, 45
1, 181336, Note_on_c, 0, 64, 45
1, 181405, Note_on_c, 0, 83, 0
1, 181405, Note_on_c, 0, 79, 0
1, 181405, Note_on_c, 0, 71, 0
1, 181408, Note_on_c, 0, 64, 0
1, 181408, Note_on_c, 0, 59, 0
1, 181408, Note_on_c, 0, 52, 0
1, 181913, Note_on_c, 0, 40, 52
1, 182219, Note_on_c, 0, 40, 0
1, 182524, Note_on_c, 0, 52, 57
1, 182830, Note_on_c, 0, 52, 0
1, 183135, Note_on_c, 0, 64, 65
1, 183750, Note_on_c, 0, 36, 50
1, 183793, Control_c, 0, 64, 127
1, 183804, Note_on_c, 0, 64, 0
1, 183804, Note_on_c, 0, 65, 44
1, 183858, Note_on_c, 0, 65, 0
1, 183858, Note_on_c, 0, 67, 44
1, 183911, Note_on_c, 0, 67, 0
1, 183911, Note_on_c, 0, 69, 44
1, 183965, Note_on_c, 0, 69, 0
1, 183965, Note_on_c, 0, 71, 44
1, 184019, Note_on_c, 0, 71, 0
1, 184019, Note_on_c, 0, 72, 44
1, 184074, Note_on_c, 0, 72, 0
1, 184074, Note_on_c, 0, 74, 44
1, 184074, Note_on_c, 0, 36, 0
1, 184128, Note_on_c, 0, 74, 0
1, 184128, Note_on_c, 0, 76, 44
1, 184183, Note_on_c, 0, 76, 0
1, 184183, Note_on_c, 0, 77, 44
1, 184237, Note_on_c, 0, 77, 0
1, 184237, Note_on_c, 0, 79, 44
1, 184292, Note_on_c, 0, 79, 0
1, 184292, Note_on_c, 0, 81, 44
1, 184347, Note_on_c, 0, 81, 0
1, 184347, Note_on_c, 0, 83, 44
1, 184402, Note_on_c, 0, 83, 0
1, 184402, Note_on_c, 0, 84, 44
1, 184402, Note_on_c, 0, 35, 47
1, 184457, Note_on_c, 0, 84, 0
1, 184457, Note_on_c, 0, 86, 44
1, 184513, Note_on_c, 0, 86, 0
1, 184513, Note_on_c, 0, 88, 44
1, 184569, Note_on_c, 0, 88, 0
1, 184569, Note_on_c, 0, 89, 44
1, 184626, Note_on_c, 0, 89, 0
1, 184626, Note_on_c, 0, 91, 44
1, 184684, Note_on_c, 0, 91, 0
1, 184684, Note_on_c, 0, 93, 44
1, 184742, Note_on_c, 0, 93, 0
1, 184742, Note_on_c, 0, 95, 44
1, 184742, Note_on_c, 0, 35, 0
1, 184801, Note_on_c, 0, 95, 0
1, 184801, Note_on_c, 0, 96, 44
1, 184861, Note_on_c, 0, 96, 0
1, 184861, Note_on_c, 0, 98, 44
1, 184922, Note_on_c, 0, 98, 0
1, 184922, Note_on_c, 0, 100, 44
1, 184983, Note_on_c, 0, 100, 0
1, 184983, Note_on_c, 0, 101, 44
1, 185046, Note_on_c, 0, 101, 0
1, 185046, Note_on_c, 0, 103, 44
1, 185109, Note_on_c, 0, 103, 0
1, 185109, Note_on_c, 0, 105, 50
1, 185109, Note_on_c, 0, 33, 47
1, 185150, Control_c, 0, 64, 0
1, 185415, Note_on_c, 0, 105, 0
1, 185415, Note_on_c, 0, 33, 0
1, 186942, Note_on_c, 0, 57, 37
1, 186942, Note_on_c, 0, 33, 34
1, 186942, Note_on_c, 0, 45, 34
1, 187095, Note_on_c, 0, 57, 0
1, 187095, Note_on_c, 0, 45, 0
1, 187095, Note_on_c, 0, 33, 0
1, 188593, End_track
0, 0, End_of_file
