0, 0, Header, 0, 1, 480
1, 0, Start_track
1, 0, Title_t, "Etueden Opus 109"
1, 0, Title_t, "Gewitter"
1, 0, Copyright_t, "Copyright © 2004 by Bernd Krueger"
1, 0, Text_t, "Friedrich Buergmueller"
1, 0, Text_t, "Allegro"
1, 0, Text_t, "Erstellt am 8.9.2000\012"
1, 0, Text_t, "Normierung: 23.12.2002\012"
1, 0, Text_t, "Update am 29.7.2004\012"
1, 0, Text_t, "Update am 5.3.2012\012"
1, 0, Text_t, "Update am 143.2012\012"
1, 0, Text_t, "Dauer:1:20 Minuten\012"
1, 0, SMPTE_offset, 96, 0, 3, 0, 0
1, 0, Time_signature, 4, 2, 24, 8
1, 0, Key_signature, -1, "major"
1, 0, Tempo, 406780
1, 0, Program_c, 0, 0
1, 0, Control_c, 0, 7, 127
1, 0, Control_c, 0, 10, 64
1, 0, Control_c, 0, 64, 0
1, 0, Control_c, 0, 91, 127
1, 0, Text_t, "bdca426d104a26ac9dcb070447587523"
1, 0, Program_c, 0, 0
1, 0, Control_c, 0, 7, 127
1, 0, Control_c, 0, 10, 64
1, 0, Note_on_c, 0, 38, 42
1, 120, Note_on_c, 0, 50, 37
1, 240, Note_on_c, 0, 49, 32
1, 260, Note_on_c, 0, 50, 0
1, 360, Tempo, 415225
1, 360, Note_on_c, 0, 50, 37
1, 380, Note_on_c, 0, 49, 0
1, 480, Tempo, 402685
1, 480, Note_on_c, 0, 41, 37
1, 500, Note_on_c, 0, 50, 0
1, 500, Note_on_c, 0, 38, 0
1, 600, Note_on_c, 0, 53, 37
1, 720, Note_on_c, 0, 52, 33
1, 740, Note_on_c, 0, 53, 0
1, 840, Tempo, 415225
1, 840, Note_on_c, 0, 53, 37
1, 860, Note_on_c, 0, 52, 0
1, 960, Tempo, 402685
1, 960, Note_on_c, 0, 38, 43
1, 980, Note_on_c, 0, 53, 0
1, 980, Note_on_c, 0, 41, 0
1, 1080, Note_on_c, 0, 50, 37
1, 1200, Note_on_c, 0, 49, 33
1, 1220, Note_on_c, 0, 50, 0
1, 1320, Tempo, 415225
1, 1320, Note_on_c, 0, 50, 37
1, 1340, Note_on_c, 0, 49, 0
1, 1440, Tempo, 408163
1, 1440, Note_on_c, 0, 41, 37
1, 1460, Note_on_c, 0, 50, 0
1, 1460, Note_on_c, 0, 38, 0
1, 1560, Note_on_c, 0, 53, 37
1, 1680, Note_on_c, 0, 52, 32
1, 1700, Note_on_c, 0, 53, 0
1, 1800, Tempo, 415225
1, 1800, Note_on_c, 0, 53, 34
1, 1820, Note_on_c, 0, 52, 0
1, 1920, Tempo, 412371
1, 1920, Note_on_c, 0, 41, 0
1, 1920, Note_on_c, 0, 38, 47
1, 1940, Note_on_c, 0, 53, 0
1, 2040, Note_on_c, 0, 50, 36
1, 2068, Control_c, 0, 64, 127
1, 2120, Tempo, 410959
1, 2160, Note_on_c, 0, 50, 0
1, 2160, Note_on_c, 0, 62, 47
1, 2280, Note_on_c, 0, 62, 0
1, 2280, Note_on_c, 0, 50, 40
1, 2320, Tempo, 409556
1, 2400, Note_on_c, 0, 50, 0
1, 2400, Note_on_c, 0, 62, 52
1, 2520, Tempo, 408163
1, 2520, Note_on_c, 0, 62, 0
1, 2520, Note_on_c, 0, 50, 42
1, 2640, Note_on_c, 0, 50, 0
1, 2640, Note_on_c, 0, 62, 54
1, 2720, Tempo, 406780
1, 2760, Tempo, 418118
1, 2760, Note_on_c, 0, 62, 0
1, 2760, Note_on_c, 0, 50, 46
1, 2880, Tempo, 406780
1, 2880, Note_on_c, 0, 50, 0
1, 2880, Note_on_c, 0, 38, 0
1, 2880, Note_on_c, 0, 62, 61
1, 2880, Note_on_c, 0, 36, 58
1, 2880, Note_on_c, 0, 48, 58
1, 2892, Control_c, 0, 64, 0
1, 2986, Control_c, 0, 64, 127
1, 3000, Note_on_c, 0, 62, 0
1, 3000, Note_on_c, 0, 50, 49
1, 3120, Note_on_c, 0, 50, 0
1, 3120, Note_on_c, 0, 62, 59
1, 3160, Tempo, 408163
1, 3240, Note_on_c, 0, 62, 0
1, 3240, Note_on_c, 0, 50, 43
1, 3360, Note_on_c, 0, 50, 0
1, 3360, Note_on_c, 0, 62, 54
1, 3420, Tempo, 409556
1, 3480, Note_on_c, 0, 62, 0
1, 3480, Note_on_c, 0, 50, 40
1, 3600, Note_on_c, 0, 50, 0
1, 3600, Note_on_c, 0, 62, 50
1, 3680, Tempo, 410959
1, 3720, Tempo, 410959
1, 3720, Note_on_c, 0, 62, 0
1, 3720, Note_on_c, 0, 50, 45
1, 3732, Tempo, 410959
1, 3744, Tempo, 416667
1, 3760, Tempo, 422535
1, 3772, Tempo, 428571
1, 3784, Tempo, 436364
1, 3800, Tempo, 442804
1, 3812, Tempo, 449438
1, 3824, Tempo, 458015
1, 3840, Tempo, 406780
1, 3840, Note_on_c, 0, 50, 0
1, 3840, Note_on_c, 0, 48, 0
1, 3840, Note_on_c, 0, 36, 0
1, 3840, Control_c, 0, 64, 0
1, 3840, Note_on_c, 0, 34, 38
1, 3840, Note_on_c, 0, 46, 45
1, 3960, Note_on_c, 0, 50, 37
1, 4080, Note_on_c, 0, 49, 34
1, 4100, Note_on_c, 0, 50, 0
1, 4200, Tempo, 415225
1, 4200, Note_on_c, 0, 50, 37
1, 4220, Note_on_c, 0, 49, 0
1, 4320, Tempo, 402685
1, 4320, Note_on_c, 0, 41, 37
1, 4340, Note_on_c, 0, 50, 0
1, 4440, Note_on_c, 0, 53, 37
1, 4560, Note_on_c, 0, 52, 35
1, 4580, Note_on_c, 0, 53, 0
1, 4680, Tempo, 415225
1, 4680, Note_on_c, 0, 53, 37
1, 4700, Note_on_c, 0, 52, 0
1, 4800, Tempo, 402685
1, 4800, Note_on_c, 0, 38, 45
1, 4820, Note_on_c, 0, 41, 0
1, 4820, Note_on_c, 0, 53, 0
1, 4920, Note_on_c, 0, 50, 37
1, 5040, Note_on_c, 0, 49, 34
1, 5060, Note_on_c, 0, 50, 0
1, 5160, Tempo, 415225
1, 5160, Note_on_c, 0, 50, 37
1, 5180, Note_on_c, 0, 49, 0
1, 5280, Tempo, 408163
1, 5280, Note_on_c, 0, 41, 38
1, 5300, Note_on_c, 0, 38, 0
1, 5300, Note_on_c, 0, 50, 0
1, 5400, Note_on_c, 0, 53, 37
1, 5520, Note_on_c, 0, 52, 33
1, 5540, Note_on_c, 0, 53, 0
1, 5640, Tempo, 415225
1, 5640, Note_on_c, 0, 53, 37
1, 5660, Note_on_c, 0, 52, 0
1, 5760, Tempo, 415225
1, 5760, Note_on_c, 0, 34, 0
1, 5760, Note_on_c, 0, 46, 0
1, 5760, Note_on_c, 0, 46, 50
1, 5760, Note_on_c, 0, 34, 50
1, 5780, Note_on_c, 0, 41, 0
1, 5780, Note_on_c, 0, 53, 0
1, 5880, Note_on_c, 0, 50, 36
1, 5900, Tempo, 413793
1, 5908, Control_c, 0, 64, 127
1, 6000, Note_on_c, 0, 50, 0
1, 6000, Note_on_c, 0, 62, 47
1, 6040, Tempo, 412371
1, 6120, Note_on_c, 0, 62, 0
1, 6120, Note_on_c, 0, 50, 40
1, 6180, Tempo, 410959
1, 6240, Note_on_c, 0, 50, 0
1, 6240, Note_on_c, 0, 62, 52
1, 6320, Tempo, 409556
1, 6360, Note_on_c, 0, 62, 0
1, 6360, Note_on_c, 0, 50, 42
1, 6460, Tempo, 408163
1, 6480, Note_on_c, 0, 50, 0
1, 6480, Note_on_c, 0, 62, 54
1, 6580, Tempo, 406780
1, 6600, Tempo, 427046
1, 6600, Note_on_c, 0, 62, 0
1, 6600, Note_on_c, 0, 50, 46
1, 6720, Tempo, 406780
1, 6720, Note_on_c, 0, 50, 0
1, 6720, Note_on_c, 0, 46, 0
1, 6720, Note_on_c, 0, 34, 0
1, 6720, Note_on_c, 0, 62, 61
1, 6720, Note_on_c, 0, 33, 59
1, 6720, Note_on_c, 0, 45, 59
1, 6732, Control_c, 0, 64, 0
1, 6826, Control_c, 0, 64, 127
1, 6840, Note_on_c, 0, 62, 0
1, 6840, Note_on_c, 0, 50, 49
1, 6960, Note_on_c, 0, 50, 0
1, 6960, Note_on_c, 0, 62, 59
1, 6980, Tempo, 408163
1, 7080, Note_on_c, 0, 62, 0
1, 7080, Note_on_c, 0, 50, 43
1, 7200, Note_on_c, 0, 50, 0
1, 7200, Note_on_c, 0, 62, 54
1, 7240, Tempo, 409556
1, 7320, Note_on_c, 0, 62, 0
1, 7320, Note_on_c, 0, 50, 40
1, 7440, Note_on_c, 0, 50, 0
1, 7440, Note_on_c, 0, 62, 50
1, 7500, Tempo, 410959
1, 7560, Tempo, 447761
1, 7560, Note_on_c, 0, 62, 0
1, 7560, Note_on_c, 0, 50, 45
1, 7640, Tempo, 412371
1, 7680, Note_on_c, 0, 50, 0
1, 7680, Note_on_c, 0, 45, 0
1, 7680, Note_on_c, 0, 33, 0
1, 7680, Control_c, 0, 64, 0
1, 7680, Note_on_c, 0, 31, 40
1, 7680, Note_on_c, 0, 43, 40
1, 7800, Tempo, 406780
1, 7800, Note_on_c, 0, 58, 40
1, 7920, Note_on_c, 0, 60, 41
1, 7940, Note_on_c, 0, 58, 0
1, 8040, Note_on_c, 0, 58, 42
1, 8060, Note_on_c, 0, 60, 0
1, 8160, Tempo, 410959
1, 8160, Note_on_c, 0, 31, 0
1, 8160, Note_on_c, 0, 43, 0
1, 8160, Note_on_c, 0, 33, 43
1, 8160, Note_on_c, 0, 45, 43
1, 8180, Note_on_c, 0, 58, 0
1, 8280, Tempo, 405405
1, 8280, Note_on_c, 0, 57, 45
1, 8400, Note_on_c, 0, 58, 47
1, 8420, Note_on_c, 0, 57, 0
1, 8520, Note_on_c, 0, 57, 48
1, 8540, Note_on_c, 0, 58, 0
1, 8640, Tempo, 412371
1, 8640, Note_on_c, 0, 33, 0
1, 8640, Note_on_c, 0, 45, 0
1, 8640, Note_on_c, 0, 34, 46
1, 8640, Note_on_c, 0, 46, 46
1, 8660, Note_on_c, 0, 57, 0
1, 8760, Tempo, 408163
1, 8760, Note_on_c, 0, 55, 51
1, 8880, Note_on_c, 0, 57, 52
1, 8900, Note_on_c, 0, 55, 0
1, 9000, Note_on_c, 0, 55, 54
1, 9020, Note_on_c, 0, 57, 0
1, 9120, Tempo, 413793
1, 9120, Note_on_c, 0, 34, 0
1, 9120, Note_on_c, 0, 46, 0
1, 9120, Note_on_c, 0, 38, 48
1, 9120, Note_on_c, 0, 50, 48
1, 9140, Note_on_c, 0, 55, 0
1, 9240, Tempo, 405405
1, 9240, Note_on_c, 0, 53, 57
1, 9360, Note_on_c, 0, 55, 58
1, 9380, Note_on_c, 0, 53, 0
1, 9480, Note_on_c, 0, 53, 59
1, 9500, Note_on_c, 0, 55, 0
1, 9600, Tempo, 409556
1, 9600, Note_on_c, 0, 38, 0
1, 9600, Note_on_c, 0, 50, 0
1, 9600, Note_on_c, 0, 38, 51
1, 9600, Note_on_c, 0, 50, 51
1, 9620, Note_on_c, 0, 53, 0
1, 9720, Note_on_c, 0, 52, 58
1, 9740, Tempo, 408163
1, 9840, Note_on_c, 0, 55, 61
1, 9860, Tempo, 406780
1, 9860, Note_on_c, 0, 52, 0
1, 9960, Note_on_c, 0, 57, 64
1, 9980, Tempo, 405405
1, 9980, Note_on_c, 0, 55, 0
1, 10060, Tempo, 404040
1, 10080, Note_on_c, 0, 58, 67
1, 10100, Note_on_c, 0, 57, 0
1, 10160, Tempo, 405405
1, 10200, Note_on_c, 0, 57, 63
1, 10220, Note_on_c, 0, 58, 0
1, 10240, Tempo, 406780
1, 10320, Note_on_c, 0, 55, 63
1, 10340, Tempo, 408163
1, 10340, Note_on_c, 0, 57, 0
1, 10420, Tempo, 409556
1, 10440, Note_on_c, 0, 52, 64
1, 10460, Note_on_c, 0, 55, 0
1, 10500, Tempo, 410959
1, 10560, Tempo, 416667
1, 10560, Note_on_c, 0, 38, 0
1, 10560, Note_on_c, 0, 50, 0
1, 10560, Note_on_c, 0, 52, 0
1, 10560, Note_on_c, 0, 64, 68
1, 10560, Note_on_c, 0, 37, 50
1, 10560, Note_on_c, 0, 49, 50
1, 10680, Tempo, 406780
1, 10680, Note_on_c, 0, 55, 61
1, 10760, Tempo, 406780
1, 10800, Note_on_c, 0, 57, 61
1, 10820, Note_on_c, 0, 55, 0
1, 10880, Tempo, 408163
1, 10920, Note_on_c, 0, 58, 61
1, 10940, Note_on_c, 0, 57, 0
1, 11000, Tempo, 409556
1, 11040, Note_on_c, 0, 57, 55
1, 11060, Note_on_c, 0, 58, 0
1, 11100, Tempo, 410959
1, 11160, Note_on_c, 0, 58, 54
1, 11180, Note_on_c, 0, 57, 0
1, 11220, Tempo, 412371
1, 11280, Note_on_c, 0, 57, 52
1, 11300, Note_on_c, 0, 58, 0
1, 11340, Tempo, 413793
1, 11400, Note_on_c, 0, 55, 51
1, 11420, Note_on_c, 0, 57, 0
1, 11440, Tempo, 415225
1, 11500, Tempo, 409556
1, 11520, Note_on_c, 0, 49, 0
1, 11520, Note_on_c, 0, 64, 0
1, 11520, Note_on_c, 0, 37, 0
1, 11520, Note_on_c, 0, 55, 0
1, 11520, Note_on_c, 0, 38, 50
1, 11520, Note_on_c, 0, 50, 50
1, 11540, Tempo, 410959
1, 11566, Control_c, 0, 64, 127
1, 11640, Note_on_c, 0, 53, 58
1, 11760, Note_on_c, 0, 53, 0
1, 11760, Note_on_c, 0, 62, 55
1, 11880, Tempo, 424028
1, 11880, Note_on_c, 0, 62, 0
1, 11880, Note_on_c, 0, 53, 49
1, 12000, Note_on_c, 0, 53, 0
1, 12000, Note_on_c, 0, 50, 0
1, 12000, Note_on_c, 0, 38, 0
1, 12000, Note_on_c, 0, 48, 54
1, 12000, Note_on_c, 0, 50, 54
1, 12010, Control_c, 0, 64, 0
1, 12020, Tempo, 409556
1, 12074, Control_c, 0, 64, 127
1, 12120, Note_on_c, 0, 54, 65
1, 12240, Note_on_c, 0, 54, 0
1, 12240, Note_on_c, 0, 62, 59
1, 12360, Tempo, 422535
1, 12360, Note_on_c, 0, 62, 0
1, 12360, Note_on_c, 0, 54, 57
1, 12460, Tempo, 406780
1, 12480, Tempo, 412371
1, 12480, Note_on_c, 0, 54, 0
1, 12480, Note_on_c, 0, 50, 0
1, 12480, Note_on_c, 0, 48, 0
1, 12480, Note_on_c, 0, 47, 58
1, 12480, Note_on_c, 0, 50, 58
1, 12492, Control_c, 0, 64, 0
1, 12549, Control_c, 0, 64, 127
1, 12600, Note_on_c, 0, 55, 70
1, 12720, Note_on_c, 0, 55, 0
1, 12720, Note_on_c, 0, 62, 66
1, 12820, Tempo, 412371
1, 12840, Tempo, 425532
1, 12840, Note_on_c, 0, 62, 0
1, 12840, Note_on_c, 0, 55, 60
1, 12960, Tempo, 419580
1, 12960, Note_on_c, 0, 55, 0
1, 12960, Note_on_c, 0, 50, 0
1, 12960, Note_on_c, 0, 47, 0
1, 12960, Note_on_c, 0, 46, 63
1, 12960, Note_on_c, 0, 50, 63
1, 12970, Control_c, 0, 64, 0
1, 13034, Control_c, 0, 64, 127
1, 13080, Note_on_c, 0, 56, 74
1, 13100, Tempo, 416667
1, 13180, Tempo, 418118
1, 13200, Note_on_c, 0, 56, 0
1, 13200, Note_on_c, 0, 62, 66
1, 13260, Tempo, 419580
1, 13300, Tempo, 416667
1, 13320, Tempo, 439560
1, 13320, Note_on_c, 0, 62, 0
1, 13320, Note_on_c, 0, 56, 61
1, 13440, Note_on_c, 0, 56, 0
1, 13440, Note_on_c, 0, 50, 0
1, 13440, Note_on_c, 0, 46, 0
1, 13440, Note_on_c, 0, 45, 64
1, 13440, Note_on_c, 0, 50, 64
1, 13440, Note_on_c, 0, 53, 64
1, 13447, Control_c, 0, 64, 0
1, 13520, Tempo, 410959
1, 13537, Control_c, 0, 64, 127
1, 13560, Note_on_c, 0, 57, 62
1, 13600, Tempo, 412371
1, 13680, Tempo, 413793
1, 13680, Note_on_c, 0, 57, 0
1, 13680, Note_on_c, 0, 62, 65
1, 13760, Tempo, 415225
1, 13800, Note_on_c, 0, 62, 0
1, 13800, Note_on_c, 0, 65, 67
1, 13840, Tempo, 416667
1, 13900, Tempo, 418118
1, 13920, Note_on_c, 0, 65, 0
1, 13920, Note_on_c, 0, 69, 70
1, 14040, Note_on_c, 0, 69, 0
1, 14040, Note_on_c, 0, 65, 68
1, 14160, Note_on_c, 0, 65, 0
1, 14160, Note_on_c, 0, 64, 66
1, 14280, Note_on_c, 0, 64, 0
1, 14280, Note_on_c, 0, 62, 64
1, 14400, Note_on_c, 0, 62, 0
1, 14400, Note_on_c, 0, 53, 0
1, 14400, Note_on_c, 0, 50, 0
1, 14400, Note_on_c, 0, 61, 60
1, 14400, Note_on_c, 0, 52, 54
1, 14400, Note_on_c, 0, 55, 54
1, 14406, Control_c, 0, 64, 0
1, 14420, Tempo, 408163
1, 14500, Tempo, 409556
1, 14520, Note_on_c, 0, 58, 59
1, 14540, Note_on_c, 0, 61, 0
1, 14580, Tempo, 410959
1, 14640, Tempo, 412371
1, 14640, Note_on_c, 0, 57, 56
1, 14660, Note_on_c, 0, 58, 0
1, 14720, Tempo, 413793
1, 14760, Note_on_c, 0, 58, 55
1, 14780, Note_on_c, 0, 57, 0
1, 14800, Tempo, 415225
1, 14860, Tempo, 416667
1, 14880, Note_on_c, 0, 55, 0
1, 14880, Note_on_c, 0, 45, 0
1, 14880, Note_on_c, 0, 52, 0
1, 14880, Note_on_c, 0, 57, 54
1, 14900, Note_on_c, 0, 58, 0
1, 15000, Note_on_c, 0, 55, 49
1, 15020, Note_on_c, 0, 57, 0
1, 15120, Note_on_c, 0, 53, 49
1, 15140, Note_on_c, 0, 55, 0
1, 15240, Note_on_c, 0, 52, 48
1, 15260, Note_on_c, 0, 53, 0
1, 15360, Tempo, 406780
1, 15360, Note_on_c, 0, 38, 42
1, 15380, Note_on_c, 0, 52, 0
1, 15480, Note_on_c, 0, 50, 37
1, 15600, Note_on_c, 0, 49, 32
1, 15620, Note_on_c, 0, 50, 0
1, 15720, Tempo, 415225
1, 15720, Note_on_c, 0, 50, 37
1, 15740, Note_on_c, 0, 49, 0
1, 15840, Tempo, 402685
1, 15840, Note_on_c, 0, 41, 37
1, 15860, Note_on_c, 0, 50, 0
1, 15860, Note_on_c, 0, 38, 0
1, 15960, Note_on_c, 0, 53, 37
1, 16080, Note_on_c, 0, 52, 33
1, 16100, Note_on_c, 0, 53, 0
1, 16200, Tempo, 415225
1, 16200, Note_on_c, 0, 53, 37
1, 16220, Note_on_c, 0, 52, 0
1, 16320, Tempo, 402685
1, 16320, Note_on_c, 0, 38, 43
1, 16340, Note_on_c, 0, 53, 0
1, 16340, Note_on_c, 0, 41, 0
1, 16440, Note_on_c, 0, 50, 37
1, 16560, Note_on_c, 0, 49, 33
1, 16580, Note_on_c, 0, 50, 0
1, 16680, Tempo, 415225
1, 16680, Note_on_c, 0, 50, 37
1, 16700, Note_on_c, 0, 49, 0
1, 16800, Tempo, 408163
1, 16800, Note_on_c, 0, 41, 37
1, 16820, Note_on_c, 0, 50, 0
1, 16820, Note_on_c, 0, 38, 0
1, 16920, Note_on_c, 0, 53, 37
1, 17040, Note_on_c, 0, 52, 32
1, 17060, Note_on_c, 0, 53, 0
1, 17160, Tempo, 415225
1, 17160, Note_on_c, 0, 53, 34
1, 17180, Note_on_c, 0, 52, 0
1, 17280, Tempo, 412371
1, 17280, Note_on_c, 0, 41, 0
1, 17280, Note_on_c, 0, 38, 47
1, 17300, Note_on_c, 0, 53, 0
1, 17400, Note_on_c, 0, 50, 36
1, 17428, Control_c, 0, 64, 127
1, 17480, Tempo, 410959
1, 17520, Note_on_c, 0, 50, 0
1, 17520, Note_on_c, 0, 62, 47
1, 17640, Note_on_c, 0, 62, 0
1, 17640, Note_on_c, 0, 50, 40
1, 17680, Tempo, 409556
1, 17760, Note_on_c, 0, 50, 0
1, 17760, Note_on_c, 0, 62, 52
1, 17880, Tempo, 408163
1, 17880, Note_on_c, 0, 62, 0
1, 17880, Note_on_c, 0, 50, 42
1, 18000, Note_on_c, 0, 50, 0
1, 18000, Note_on_c, 0, 62, 54
1, 18080, Tempo, 406780
1, 18120, Tempo, 418118
1, 18120, Note_on_c, 0, 62, 0
1, 18120, Note_on_c, 0, 50, 46
1, 18240, Tempo, 406780
1, 18240, Note_on_c, 0, 50, 0
1, 18240, Note_on_c, 0, 38, 0
1, 18240, Note_on_c, 0, 62, 61
1, 18240, Note_on_c, 0, 36, 58
1, 18240, Note_on_c, 0, 48, 58
1, 18252, Control_c, 0, 64, 0
1, 18346, Control_c, 0, 64, 127
1, 18360, Note_on_c, 0, 62, 0
1, 18360, Note_on_c, 0, 50, 49
1, 18480, Note_on_c, 0, 50, 0
1, 18480, Note_on_c, 0, 62, 59
1, 18520, Tempo, 408163
1, 18600, Note_on_c, 0, 62, 0
1, 18600, Note_on_c, 0, 50, 43
1, 18720, Note_on_c, 0, 50, 0
1, 18720, Note_on_c, 0, 62, 54
1, 18780, Tempo, 409556
1, 18840, Note_on_c, 0, 62, 0
1, 18840, Note_on_c, 0, 50, 40
1, 18960, Note_on_c, 0, 50, 0
1, 18960, Note_on_c, 0, 62, 50
1, 19040, Tempo, 410959
1, 19080, Tempo, 410959
1, 19080, Note_on_c, 0, 62, 0
1, 19080, Note_on_c, 0, 50, 45
1, 19092, Tempo, 410959
1, 19104, Tempo, 416667
1, 19120, Tempo, 422535
1, 19132, Tempo, 428571
1, 19144, Tempo, 436364
1, 19160, Tempo, 442804
1, 19172, Tempo, 449438
1, 19184, Tempo, 458015
1, 19200, Tempo, 406780
1, 19200, Note_on_c, 0, 50, 0
1, 19200, Note_on_c, 0, 48, 0
1, 19200, Note_on_c, 0, 36, 0
1, 19200, Note_on_c, 0, 34, 38
1, 19200, Note_on_c, 0, 46, 45
1, 19206, Control_c, 0, 64, 0
1, 19320, Note_on_c, 0, 50, 37
1, 19440, Note_on_c, 0, 49, 34
1, 19460, Note_on_c, 0, 50, 0
1, 19560, Tempo, 415225
1, 19560, Note_on_c, 0, 50, 37
1, 19580, Note_on_c, 0, 49, 0
1, 19680, Tempo, 402685
1, 19680, Note_on_c, 0, 41, 37
1, 19700, Note_on_c, 0, 50, 0
1, 19800, Note_on_c, 0, 53, 37
1, 19920, Note_on_c, 0, 52, 35
1, 19940, Note_on_c, 0, 53, 0
1, 20040, Tempo, 415225
1, 20040, Note_on_c, 0, 53, 37
1, 20060, Note_on_c, 0, 52, 0
1, 20160, Tempo, 402685
1, 20160, Note_on_c, 0, 38, 45
1, 20180, Note_on_c, 0, 41, 0
1, 20180, Note_on_c, 0, 53, 0
1, 20280, Note_on_c, 0, 50, 37
1, 20400, Note_on_c, 0, 49, 34
1, 20420, Note_on_c, 0, 50, 0
1, 20520, Tempo, 415225
1, 20520, Note_on_c, 0, 50, 37
1, 20540, Note_on_c, 0, 49, 0
1, 20640, Tempo, 408163
1, 20640, Note_on_c, 0, 41, 38
1, 20660, Note_on_c, 0, 38, 0
1, 20660, Note_on_c, 0, 50, 0
1, 20760, Note_on_c, 0, 53, 37
1, 20880, Note_on_c, 0, 52, 33
1, 20900, Note_on_c, 0, 53, 0
1, 21000, Tempo, 415225
1, 21000, Note_on_c, 0, 53, 37
1, 21020, Note_on_c, 0, 52, 0
1, 21120, Tempo, 415225
1, 21120, Note_on_c, 0, 34, 0
1, 21120, Note_on_c, 0, 46, 0
1, 21120, Note_on_c, 0, 46, 50
1, 21120, Note_on_c, 0, 34, 50
1, 21140, Note_on_c, 0, 41, 0
1, 21140, Note_on_c, 0, 53, 0
1, 21240, Note_on_c, 0, 50, 36
1, 21260, Tempo, 413793
1, 21268, Control_c, 0, 64, 127
1, 21360, Note_on_c, 0, 50, 0
1, 21360, Note_on_c, 0, 62, 47
1, 21400, Tempo, 412371
1, 21480, Note_on_c, 0, 62, 0
1, 21480, Note_on_c, 0, 50, 40
1, 21540, Tempo, 410959
1, 21600, Note_on_c, 0, 50, 0
1, 21600, Note_on_c, 0, 62, 52
1, 21680, Tempo, 409556
1, 21720, Note_on_c, 0, 62, 0
1, 21720, Note_on_c, 0, 50, 42
1, 21820, Tempo, 408163
1, 21840, Note_on_c, 0, 50, 0
1, 21840, Note_on_c, 0, 62, 54
1, 21940, Tempo, 406780
1, 21960, Tempo, 427046
1, 21960, Note_on_c, 0, 62, 0
1, 21960, Note_on_c, 0, 50, 46
1, 22080, Tempo, 406780
1, 22080, Note_on_c, 0, 50, 0
1, 22080, Note_on_c, 0, 46, 0
1, 22080, Note_on_c, 0, 34, 0
1, 22080, Note_on_c, 0, 62, 61
1, 22080, Note_on_c, 0, 33, 59
1, 22080, Note_on_c, 0, 45, 59
1, 22090, Control_c, 0, 64, 0
1, 22140, Control_c, 0, 64, 127
1, 22200, Note_on_c, 0, 62, 0
1, 22200, Note_on_c, 0, 50, 49
1, 22320, Note_on_c, 0, 50, 0
1, 22320, Note_on_c, 0, 62, 59
1, 22340, Tempo, 408163
1, 22440, Note_on_c, 0, 62, 0
1, 22440, Note_on_c, 0, 50, 43
1, 22560, Note_on_c, 0, 50, 0
1, 22560, Note_on_c, 0, 62, 54
1, 22600, Tempo, 409556
1, 22680, Note_on_c, 0, 62, 0
1, 22680, Note_on_c, 0, 50, 40
1, 22800, Note_on_c, 0, 50, 0
1, 22800, Note_on_c, 0, 62, 50
1, 22860, Tempo, 410959
1, 22920, Tempo, 447761
1, 22920, Note_on_c, 0, 62, 0
1, 22920, Note_on_c, 0, 50, 45
1, 23000, Tempo, 412371
1, 23040, Note_on_c, 0, 50, 0
1, 23040, Note_on_c, 0, 45, 0
1, 23040, Note_on_c, 0, 33, 0
1, 23040, Control_c, 0, 64, 0
1, 23040, Note_on_c, 0, 31, 40
1, 23040, Note_on_c, 0, 43, 40
1, 23160, Tempo, 406780
1, 23160, Note_on_c, 0, 58, 40
1, 23280, Note_on_c, 0, 60, 41
1, 23300, Note_on_c, 0, 58, 0
1, 23400, Note_on_c, 0, 58, 42
1, 23420, Note_on_c, 0, 60, 0
1, 23520, Tempo, 410959
1, 23520, Note_on_c, 0, 31, 0
1, 23520, Note_on_c, 0, 43, 0
1, 23520, Note_on_c, 0, 33, 43
1, 23520, Note_on_c, 0, 45, 43
1, 23540, Note_on_c, 0, 58, 0
1, 23640, Tempo, 405405
1, 23640, Note_on_c, 0, 57, 45
1, 23760, Note_on_c, 0, 58, 47
1, 23780, Note_on_c, 0, 57, 0
1, 23880, Note_on_c, 0, 57, 48
1, 23900, Note_on_c, 0, 58, 0
1, 24000, Tempo, 412371
1, 24000, Note_on_c, 0, 33, 0
1, 24000, Note_on_c, 0, 45, 0
1, 24000, Note_on_c, 0, 34, 46
1, 24000, Note_on_c, 0, 46, 46
1, 24020, Note_on_c, 0, 57, 0
1, 24120, Tempo, 408163
1, 24120, Note_on_c, 0, 55, 51
1, 24240, Note_on_c, 0, 57, 52
1, 24260, Note_on_c, 0, 55, 0
1, 24360, Note_on_c, 0, 55, 54
1, 24380, Note_on_c, 0, 57, 0
1, 24480, Tempo, 413793
1, 24480, Note_on_c, 0, 34, 0
1, 24480, Note_on_c, 0, 46, 0
1, 24480, Note_on_c, 0, 38, 48
1, 24480, Note_on_c, 0, 50, 48
1, 24500, Note_on_c, 0, 55, 0
1, 24600, Tempo, 405405
1, 24600, Note_on_c, 0, 53, 57
1, 24720, Note_on_c, 0, 55, 58
1, 24740, Note_on_c, 0, 53, 0
1, 24840, Note_on_c, 0, 53, 59
1, 24860, Note_on_c, 0, 55, 0
1, 24960, Tempo, 409556
1, 24960, Note_on_c, 0, 38, 0
1, 24960, Note_on_c, 0, 50, 0
1, 24960, Note_on_c, 0, 38, 51
1, 24960, Note_on_c, 0, 50, 51
1, 24980, Note_on_c, 0, 53, 0
1, 25080, Note_on_c, 0, 52, 58
1, 25100, Tempo, 408163
1, 25200, Note_on_c, 0, 55, 61
1, 25220, Tempo, 406780
1, 25220, Note_on_c, 0, 52, 0
1, 25320, Note_on_c, 0, 57, 64
1, 25340, Tempo, 405405
1, 25340, Note_on_c, 0, 55, 0
1, 25420, Tempo, 404040
1, 25440, Note_on_c, 0, 58, 67
1, 25460, Note_on_c, 0, 57, 0
1, 25520, Tempo, 405405
1, 25560, Note_on_c, 0, 57, 63
1, 25580, Note_on_c, 0, 58, 0
1, 25600, Tempo, 406780
1, 25680, Note_on_c, 0, 55, 63
1, 25700, Tempo, 408163
1, 25700, Note_on_c, 0, 57, 0
1, 25780, Tempo, 409556
1, 25800, Note_on_c, 0, 52, 64
1, 25820, Note_on_c, 0, 55, 0
1, 25860, Tempo, 410959
1, 25920, Tempo, 416667
1, 25920, Note_on_c, 0, 38, 0
1, 25920, Note_on_c, 0, 50, 0
1, 25920, Note_on_c, 0, 52, 0
1, 25920, Note_on_c, 0, 64, 68
1, 25920, Note_on_c, 0, 37, 50
1, 25920, Note_on_c, 0, 49, 50
1, 26040, Tempo, 406780
1, 26040, Note_on_c, 0, 55, 61
1, 26120, Tempo, 406780
1, 26160, Note_on_c, 0, 57, 61
1, 26180, Note_on_c, 0, 55, 0
1, 26240, Tempo, 408163
1, 26280, Note_on_c, 0, 58, 61
1, 26300, Note_on_c, 0, 57, 0
1, 26360, Tempo, 409556
1, 26400, Note_on_c, 0, 57, 55
1, 26420, Note_on_c, 0, 58, 0
1, 26460, Tempo, 410959
1, 26520, Note_on_c, 0, 58, 54
1, 26540, Note_on_c, 0, 57, 0
1, 26580, Tempo, 412371
1, 26640, Note_on_c, 0, 57, 52
1, 26660, Note_on_c, 0, 58, 0
1, 26700, Tempo, 413793
1, 26760, Note_on_c, 0, 55, 51
1, 26780, Note_on_c, 0, 57, 0
1, 26800, Tempo, 415225
1, 26860, Tempo, 409556
1, 26880, Note_on_c, 0, 49, 0
1, 26880, Note_on_c, 0, 64, 0
1, 26880, Note_on_c, 0, 37, 0
1, 26880, Note_on_c, 0, 55, 0
1, 26880, Note_on_c, 0, 38, 50
1, 26880, Note_on_c, 0, 50, 50
1, 26900, Tempo, 410959
1, 26926, Control_c, 0, 64, 127
1, 27000, Note_on_c, 0, 53, 58
1, 27120, Note_on_c, 0, 53, 0
1, 27120, Note_on_c, 0, 62, 55
1, 27240, Tempo, 424028
1, 27240, Note_on_c, 0, 62, 0
1, 27240, Note_on_c, 0, 53, 49
1, 27360, Note_on_c, 0, 53, 0
1, 27360, Note_on_c, 0, 50, 0
1, 27360, Note_on_c, 0, 38, 0
1, 27360, Note_on_c, 0, 48, 54
1, 27360, Note_on_c, 0, 50, 54
1, 27370, Control_c, 0, 64, 0
1, 27380, Tempo, 409556
1, 27440, Control_c, 0, 64, 127
1, 27480, Note_on_c, 0, 54, 65
1, 27600, Note_on_c, 0, 54, 0
1, 27600, Note_on_c, 0, 62, 59
1, 27720, Tempo, 422535
1, 27720, Note_on_c, 0, 62, 0
1, 27720, Note_on_c, 0, 54, 57
1, 27820, Tempo, 406780
1, 27840, Tempo, 412371
1, 27840, Note_on_c, 0, 54, 0
1, 27840, Note_on_c, 0, 50, 0
1, 27840, Note_on_c, 0, 48, 0
1, 27840, Note_on_c, 0, 47, 58
1, 27840, Note_on_c, 0, 50, 58
1, 27850, Control_c, 0, 64, 0
1, 27920, Control_c, 0, 64, 127
1, 27960, Note_on_c, 0, 55, 70
1, 28080, Note_on_c, 0, 55, 0
1, 28080, Note_on_c, 0, 62, 66
1, 28180, Tempo, 412371
1, 28200, Tempo, 425532
1, 28200, Note_on_c, 0, 62, 0
1, 28200, Note_on_c, 0, 55, 60
1, 28320, Tempo, 419580
1, 28320, Note_on_c, 0, 55, 0
1, 28320, Note_on_c, 0, 50, 0
1, 28320, Note_on_c, 0, 47, 0
1, 28320, Note_on_c, 0, 46, 63
1, 28320, Note_on_c, 0, 50, 63
1, 28330, Control_c, 0, 64, 0
1, 28389, Control_c, 0, 64, 127
1, 28440, Note_on_c, 0, 56, 74
1, 28460, Tempo, 416667
1, 28540, Tempo, 418118
1, 28560, Note_on_c, 0, 56, 0
1, 28560, Note_on_c, 0, 62, 66
1, 28680, Note_on_c, 0, 62, 0
1, 28680, Note_on_c, 0, 56, 61
1, 28800, Tempo, 497925
1, 28800, Note_on_c, 0, 56, 0
1, 28800, Note_on_c, 0, 50, 0
1, 28800, Note_on_c, 0, 46, 0
1, 28800, Note_on_c, 0, 45, 64
1, 28800, Note_on_c, 0, 50, 64
1, 28800, Note_on_c, 0, 53, 64
1, 28807, Control_c, 0, 64, 0
1, 28880, Tempo, 410959
1, 28886, Control_c, 0, 64, 127
1, 28920, Note_on_c, 0, 57, 62
1, 28960, Tempo, 412371
1, 29040, Tempo, 413793
1, 29040, Note_on_c, 0, 57, 0
1, 29040, Note_on_c, 0, 62, 65
1, 29120, Tempo, 415225
1, 29160, Note_on_c, 0, 62, 0
1, 29160, Note_on_c, 0, 65, 67
1, 29200, Tempo, 416667
1, 29260, Tempo, 418118
1, 29280, Note_on_c, 0, 65, 0
1, 29280, Note_on_c, 0, 69, 70
1, 29400, Note_on_c, 0, 69, 0
1, 29400, Note_on_c, 0, 65, 68
1, 29520, Note_on_c, 0, 65, 0
1, 29520, Note_on_c, 0, 62, 66
1, 29640, Note_on_c, 0, 62, 0
1, 29640, Note_on_c, 0, 57, 64
1, 29760, Tempo, 459770
1, 29760, Note_on_c, 0, 57, 0
1, 29760, Note_on_c, 0, 53, 0
1, 29760, Note_on_c, 0, 50, 0
1, 29760, Note_on_c, 0, 49, 60
1, 29760, Note_on_c, 0, 52, 60
1, 29768, Control_c, 0, 64, 0
1, 29840, Tempo, 410959
1, 29846, Control_c, 0, 64, 127
1, 29880, Note_on_c, 0, 57, 62
1, 29920, Tempo, 412371
1, 30000, Tempo, 413793
1, 30000, Note_on_c, 0, 57, 0
1, 30000, Note_on_c, 0, 61, 65
1, 30080, Tempo, 415225
1, 30120, Note_on_c, 0, 61, 0
1, 30120, Note_on_c, 0, 64, 68
1, 30160, Tempo, 416667
1, 30220, Tempo, 418118
1, 30240, Note_on_c, 0, 64, 0
1, 30240, Note_on_c, 0, 45, 0
1, 30240, Note_on_c, 0, 49, 0
1, 30240, Note_on_c, 0, 52, 0
1, 30240, Note_on_c, 0, 69, 71
1, 30360, Note_on_c, 0, 69, 0
1, 30360, Note_on_c, 0, 64, 68
1, 30480, Note_on_c, 0, 64, 0
1, 30480, Note_on_c, 0, 61, 67
1, 30600, Note_on_c, 0, 61, 0
1, 30600, Note_on_c, 0, 57, 65
1, 30720, Tempo, 458015
1, 30720, Note_on_c, 0, 57, 0
1, 30720, Note_on_c, 0, 41, 70
1, 30727, Control_c, 0, 64, 0
1, 30783, Control_c, 0, 64, 127
1, 30840, Tempo, 416667
1, 30840, Note_on_c, 0, 57, 72
1, 30960, Note_on_c, 0, 57, 0
1, 30960, Note_on_c, 0, 60, 75
1, 31080, Note_on_c, 0, 60, 0
1, 31080, Note_on_c, 0, 57, 73
1, 31180, Tempo, 412371
1, 31200, Tempo, 461538
1, 31200, Note_on_c, 0, 57, 0
1, 31200, Note_on_c, 0, 69, 76
1, 31320, Tempo, 415225
1, 31320, Note_on_c, 0, 41, 0
1, 31320, Note_on_c, 0, 41, 63
1, 31343, Control_c, 0, 64, 0
1, 31440, Note_on_c, 0, 41, 0
1, 31440, Note_on_c, 0, 40, 68
1, 31560, Note_on_c, 0, 40, 0
1, 31560, Note_on_c, 0, 41, 63
1, 31680, Tempo, 452830
1, 31680, Note_on_c, 0, 41, 0
1, 31680, Note_on_c, 0, 69, 0
1, 31680, Note_on_c, 0, 45, 76
1, 31743, Control_c, 0, 64, 127
1, 31800, Tempo, 415225
1, 31800, Note_on_c, 0, 60, 70
1, 31920, Note_on_c, 0, 60, 0
1, 31920, Note_on_c, 0, 65, 74
1, 32040, Note_on_c, 0, 65, 0
1, 32040, Note_on_c, 0, 60, 73
1, 32140, Tempo, 413793
1, 32160, Tempo, 449438
1, 32160, Note_on_c, 0, 60, 0
1, 32160, Note_on_c, 0, 72, 77
1, 32280, Tempo, 413793
1, 32280, Note_on_c, 0, 45, 0
1, 32280, Note_on_c, 0, 45, 63
1, 32309, Control_c, 0, 64, 0
1, 32400, Note_on_c, 0, 45, 0
1, 32400, Note_on_c, 0, 44, 68
1, 32520, Note_on_c, 0, 44, 0
1, 32520, Note_on_c, 0, 45, 63
1, 32640, Tempo, 500000
1, 32640, Note_on_c, 0, 45, 0
1, 32640, Note_on_c, 0, 72, 0
1, 32640, Note_on_c, 0, 48, 75
1, 32705, Control_c, 0, 64, 127
1, 32720, Tempo, 410959
1, 32760, Note_on_c, 0, 57, 68
1, 32800, Tempo, 412371
1, 32880, Tempo, 413793
1, 32880, Note_on_c, 0, 57, 0
1, 32880, Note_on_c, 0, 60, 71
1, 32960, Tempo, 415225
1, 33000, Note_on_c, 0, 60, 0
1, 33000, Note_on_c, 0, 65, 73
1, 33040, Tempo, 416667
1, 33100, Tempo, 418118
1, 33120, Note_on_c, 0, 65, 0
1, 33120, Note_on_c, 0, 69, 76
1, 33240, Note_on_c, 0, 65, 74
1, 33360, Note_on_c, 0, 65, 0
1, 33360, Note_on_c, 0, 60, 72
1, 33480, Note_on_c, 0, 60, 0
1, 33480, Note_on_c, 0, 57, 70
1, 33600, Tempo, 459770
1, 33600, Note_on_c, 0, 57, 0
1, 33600, Note_on_c, 0, 69, 0
1, 33600, Note_on_c, 0, 48, 0
1, 33600, Note_on_c, 0, 36, 66
1, 33610, Control_c, 0, 64, 0
1, 33680, Tempo, 410959
1, 33699, Control_c, 0, 64, 127
1, 33720, Note_on_c, 0, 55, 63
1, 33760, Tempo, 412371
1, 33840, Tempo, 413793
1, 33840, Note_on_c, 0, 55, 0
1, 33840, Note_on_c, 0, 60, 67
1, 33920, Tempo, 415225
1, 33960, Note_on_c, 0, 60, 0
1, 33960, Note_on_c, 0, 64, 69
1, 34000, Tempo, 416667
1, 34060, Tempo, 418118
1, 34080, Note_on_c, 0, 64, 0
1, 34080, Note_on_c, 0, 67, 72
1, 34200, Note_on_c, 0, 64, 70
1, 34320, Note_on_c, 0, 64, 0
1, 34320, Note_on_c, 0, 60, 68
1, 34440, Note_on_c, 0, 60, 0
1, 34440, Note_on_c, 0, 55, 66
1, 34560, Tempo, 458015
1, 34560, Note_on_c, 0, 55, 0
1, 34560, Note_on_c, 0, 67, 0
1, 34560, Note_on_c, 0, 36, 0
1, 34560, Control_c, 0, 64, 0
1, 34560, Note_on_c, 0, 43, 70
1, 34623, Control_c, 0, 64, 127
1, 34680, Tempo, 416667
1, 34680, Note_on_c, 0, 58, 72
1, 34800, Note_on_c, 0, 58, 0
1, 34800, Note_on_c, 0, 62, 75
1, 34920, Note_on_c, 0, 62, 0
1, 34920, Note_on_c, 0, 58, 73
1, 35020, Tempo, 412371
1, 35040, Tempo, 461538
1, 35040, Note_on_c, 0, 58, 0
1, 35040, Note_on_c, 0, 70, 76
1, 35160, Tempo, 415225
1, 35160, Note_on_c, 0, 43, 0
1, 35160, Note_on_c, 0, 43, 63
1, 35183, Control_c, 0, 64, 0
1, 35280, Note_on_c, 0, 43, 0
1, 35280, Note_on_c, 0, 42, 68
1, 35400, Note_on_c, 0, 42, 0
1, 35400, Note_on_c, 0, 43, 63
1, 35520, Tempo, 452830
1, 35520, Note_on_c, 0, 43, 0
1, 35520, Note_on_c, 0, 70, 0
1, 35520, Note_on_c, 0, 37, 75
1, 35589, Control_c, 0, 64, 127
1, 35640, Tempo, 415225
1, 35640, Note_on_c, 0, 57, 70
1, 35760, Note_on_c, 0, 57, 0
1, 35760, Note_on_c, 0, 64, 74
1, 35880, Note_on_c, 0, 64, 0
1, 35880, Note_on_c, 0, 57, 73
1, 35980, Tempo, 413793
1, 36000, Tempo, 449438
1, 36000, Note_on_c, 0, 57, 0
1, 36000, Note_on_c, 0, 69, 77
1, 36120, Tempo, 413793
1, 36120, Note_on_c, 0, 37, 0
1, 36120, Note_on_c, 0, 37, 63
1, 36137, Control_c, 0, 64, 0
1, 36240, Note_on_c, 0, 37, 0
1, 36240, Note_on_c, 0, 36, 68
1, 36360, Note_on_c, 0, 36, 0
1, 36360, Note_on_c, 0, 37, 63
1, 36480, Tempo, 458015
1, 36480, Note_on_c, 0, 37, 0
1, 36480, Note_on_c, 0, 69, 0
1, 36480, Note_on_c, 0, 40, 72
1, 36543, Control_c, 0, 64, 127
1, 36600, Tempo, 416667
1, 36600, Note_on_c, 0, 57, 72
1, 36720, Note_on_c, 0, 57, 0
1, 36720, Note_on_c, 0, 61, 75
1, 36840, Tempo, 436364
1, 36840, Note_on_c, 0, 61, 0
1, 36840, Note_on_c, 0, 57, 73
1, 36940, Tempo, 412371
1, 36960, Tempo, 418118
1, 36960, Note_on_c, 0, 57, 0
1, 36960, Note_on_c, 0, 67, 80
1, 37080, Tempo, 415225
1, 37080, Note_on_c, 0, 57, 63
1, 37200, Note_on_c, 0, 57, 0
1, 37200, Note_on_c, 0, 61, 68
1, 37320, Note_on_c, 0, 61, 0
1, 37320, Note_on_c, 0, 57, 63
1, 37440, Tempo, 452830
1, 37440, Note_on_c, 0, 57, 0
1, 37440, Note_on_c, 0, 40, 0
1, 37440, Note_on_c, 0, 38, 72
1, 37450, Control_c, 0, 64, 0
1, 37520, Control_c, 0, 64, 127
1, 37560, Tempo, 415225
1, 37560, Note_on_c, 0, 57, 73
1, 37680, Note_on_c, 0, 57, 0
1, 37680, Note_on_c, 0, 62, 77
1, 37800, Note_on_c, 0, 62, 0
1, 37800, Note_on_c, 0, 57, 76
1, 37920, Note_on_c, 0, 57, 0
1, 37920, Note_on_c, 0, 67, 0
1, 37920, Note_on_c, 0, 65, 80
1, 38040, Tempo, 413793
1, 38040, Note_on_c, 0, 57, 66
1, 38160, Note_on_c, 0, 57, 0
1, 38160, Note_on_c, 0, 62, 71
1, 38280, Note_on_c, 0, 62, 0
1, 38280, Note_on_c, 0, 57, 66
1, 38400, Tempo, 458015
1, 38400, Note_on_c, 0, 57, 0
1, 38400, Note_on_c, 0, 65, 0
1, 38400, Note_on_c, 0, 38, 0
1, 38400, Note_on_c, 0, 32, 82
1, 38400, Note_on_c, 0, 44, 82
1, 38409, Control_c, 0, 64, 0
1, 38463, Control_c, 0, 64, 127
1, 38520, Tempo, 416667
1, 38520, Note_on_c, 0, 62, 86
1, 38640, Note_on_c, 0, 62, 0
1, 38640, Note_on_c, 0, 65, 91
1, 38760, Note_on_c, 0, 65, 0
1, 38760, Note_on_c, 0, 62, 84
1, 38860, Tempo, 412371
1, 38880, Tempo, 461538
1, 38880, Note_on_c, 0, 62, 0
1, 38880, Note_on_c, 0, 74, 96
1, 39000, Tempo, 434783
1, 39120, Note_on_c, 0, 44, 0
1, 39120, Note_on_c, 0, 32, 0
1, 39120, Control_c, 0, 64, 0
1, 39120, Note_on_c, 0, 33, 81
1, 39120, Note_on_c, 0, 45, 81
1, 39240, Note_on_c, 0, 45, 0
1, 39240, Note_on_c, 0, 33, 0
1, 39360, Tempo, 458015
1, 39360, Note_on_c, 0, 74, 0
1, 39360, Note_on_c, 0, 34, 86
1, 39360, Note_on_c, 0, 46, 86
1, 39423, Control_c, 0, 64, 127
1, 39480, Tempo, 431655
1, 39480, Note_on_c, 0, 74, 87
1, 39600, Note_on_c, 0, 74, 0
1, 39600, Note_on_c, 0, 77, 95
1, 39720, Note_on_c, 0, 77, 0
1, 39720, Note_on_c, 0, 74, 89
1, 39820, Tempo, 412371
1, 39840, Tempo, 485830
1, 39840, Note_on_c, 0, 74, 0
1, 39840, Note_on_c, 0, 86, 101
1, 40077, Control_c, 0, 64, 0
1, 40080, Note_on_c, 0, 46, 0
1, 40080, Note_on_c, 0, 34, 0
1, 40080, Note_on_c, 0, 33, 82
1, 40080, Note_on_c, 0, 45, 82
1, 40200, Tempo, 745342
1, 40200, Note_on_c, 0, 45, 0
1, 40200, Note_on_c, 0, 33, 0
1, 40230, Note_on_c, 0, 86, 0
1, 40230, Note_on_c, 0, 77, 77
1, 40260, Note_on_c, 0, 83, 85
1, 40290, Note_on_c, 0, 86, 93
1, 40320, Tempo, 500000
1, 40320, Note_on_c, 0, 89, 106
1, 40320, Note_on_c, 0, 32, 86
1, 40320, Note_on_c, 0, 44, 86
1, 40348, Control_c, 0, 64, 127
1, 40440, Note_on_c, 0, 44, 0
1, 40440, Note_on_c, 0, 83, 0
1, 40440, Note_on_c, 0, 86, 0
1, 40440, Note_on_c, 0, 77, 0
1, 40440, Note_on_c, 0, 32, 0
1, 40440, Note_on_c, 0, 89, 0
1, 40496, Control_c, 0, 64, 0
1, 40800, Tempo, 412371
1, 40800, Note_on_c, 0, 53, 80
1, 40800, Note_on_c, 0, 41, 68
1, 40820, Tempo, 412371
1, 40920, Tempo, 413793
1, 40920, Note_on_c, 0, 52, 79
1, 40920, Note_on_c, 0, 40, 67
1, 40940, Note_on_c, 0, 41, 0
1, 40940, Note_on_c, 0, 53, 0
1, 41000, Tempo, 415225
1, 41040, Note_on_c, 0, 51, 77
1, 41040, Note_on_c, 0, 39, 65
1, 41060, Note_on_c, 0, 52, 0
1, 41060, Note_on_c, 0, 40, 0
1, 41080, Tempo, 416667
1, 41160, Tempo, 418118
1, 41160, Note_on_c, 0, 50, 75
1, 41160, Note_on_c, 0, 38, 64
1, 41180, Note_on_c, 0, 51, 0
1, 41180, Note_on_c, 0, 39, 0
1, 41240, Tempo, 419580
1, 41280, Tempo, 412371
1, 41280, Note_on_c, 0, 50, 0
1, 41280, Note_on_c, 0, 38, 0
1, 41280, Note_on_c, 0, 53, 75
1, 41280, Note_on_c, 0, 41, 64
1, 41300, Tempo, 412371
1, 41360, Tempo, 413793
1, 41400, Tempo, 415225
1, 41400, Note_on_c, 0, 52, 72
1, 41400, Note_on_c, 0, 40, 60
1, 41420, Note_on_c, 0, 41, 0
1, 41420, Note_on_c, 0, 53, 0
1, 41440, Tempo, 416667
1, 41480, Tempo, 418118
1, 41520, Tempo, 419580
1, 41520, Note_on_c, 0, 51, 69
1, 41520, Note_on_c, 0, 39, 57
1, 41540, Note_on_c, 0, 52, 0
1, 41540, Note_on_c, 0, 40, 0
1, 41580, Tempo, 421053
1, 41620, Tempo, 422535
1, 41640, Note_on_c, 0, 50, 65
1, 41640, Note_on_c, 0, 38, 55
1, 41660, Tempo, 424028
1, 41660, Note_on_c, 0, 51, 0
1, 41660, Note_on_c, 0, 39, 0
1, 41700, Tempo, 425532
1, 41740, Tempo, 427046
1, 41760, Tempo, 415225
1, 41760, Note_on_c, 0, 50, 0
1, 41760, Note_on_c, 0, 38, 0
1, 41760, Note_on_c, 0, 53, 69
1, 41760, Note_on_c, 0, 41, 58
1, 41820, Tempo, 416667
1, 41860, Tempo, 418118
1, 41880, Note_on_c, 0, 52, 67
1, 41880, Note_on_c, 0, 40, 57
1, 41900, Tempo, 419580
1, 41900, Note_on_c, 0, 41, 0
1, 41900, Note_on_c, 0, 53, 0
1, 41940, Tempo, 421053
1, 41980, Tempo, 422535
1, 42000, Note_on_c, 0, 51, 63
1, 42000, Note_on_c, 0, 39, 53
1, 42020, Tempo, 424028
1, 42020, Note_on_c, 0, 52, 0
1, 42020, Note_on_c, 0, 40, 0
1, 42060, Tempo, 425532
1, 42100, Tempo, 427046
1, 42120, Note_on_c, 0, 50, 61
1, 42120, Note_on_c, 0, 38, 51
1, 42140, Tempo, 428571
1, 42140, Note_on_c, 0, 51, 0
1, 42140, Note_on_c, 0, 39, 0
1, 42180, Tempo, 430108
1, 42220, Tempo, 431655
1, 42240, Tempo, 439560
1, 42240, Note_on_c, 0, 38, 0
1, 42240, Note_on_c, 0, 57, 56
1, 42240, Note_on_c, 0, 53, 47
1, 42240, Note_on_c, 0, 33, 48
1, 42293, Control_c, 0, 64, 127
1, 42360, Note_on_c, 0, 33, 0
1, 42360, Note_on_c, 0, 45, 45
1, 42480, Note_on_c, 0, 45, 0
1, 42480, Note_on_c, 0, 44, 45
1, 42494, Control_c, 0, 64, 0
1, 42600, Note_on_c, 0, 44, 0
1, 42600, Note_on_c, 0, 45, 45
1, 42720, Tempo, 441176
1, 42720, Note_on_c, 0, 45, 0
1, 42720, Note_on_c, 0, 53, 0
1, 42720, Note_on_c, 0, 57, 0
1, 42720, Note_on_c, 0, 50, 0
1, 42720, Note_on_c, 0, 53, 51
1, 42720, Note_on_c, 0, 57, 51
1, 42720, Note_on_c, 0, 62, 60
1, 42720, Note_on_c, 0, 33, 50
1, 42787, Control_c, 0, 64, 127
1, 42840, Note_on_c, 0, 33, 0
1, 42840, Note_on_c, 0, 45, 48
1, 42960, Note_on_c, 0, 45, 0
1, 42960, Note_on_c, 0, 44, 48
1, 42974, Control_c, 0, 64, 0
1, 43080, Tempo, 478088
1, 43080, Note_on_c, 0, 44, 0
1, 43080, Note_on_c, 0, 45, 48
1, 43110, Note_on_c, 0, 53, 0
1, 43110, Note_on_c, 0, 62, 0
1, 43110, Note_on_c, 0, 57, 0
1, 43110, Note_on_c, 0, 52, 49
1, 43130, Note_on_c, 0, 45, 0
1, 43140, Note_on_c, 0, 55, 52
1, 43154, Control_c, 0, 64, 127
1, 43170, Note_on_c, 0, 58, 55
1, 43200, Tempo, 436364
1, 43200, Note_on_c, 0, 62, 65
1, 43200, Note_on_c, 0, 33, 53
1, 43320, Note_on_c, 0, 33, 0
1, 43320, Note_on_c, 0, 45, 50
1, 43440, Note_on_c, 0, 45, 0
1, 43440, Note_on_c, 0, 44, 47
1, 43451, Control_c, 0, 64, 0
1, 43560, Note_on_c, 0, 44, 0
1, 43560, Note_on_c, 0, 45, 45
1, 43680, Tempo, 442804
1, 43680, Note_on_c, 0, 45, 0
1, 43680, Note_on_c, 0, 62, 0
1, 43680, Note_on_c, 0, 58, 0
1, 43680, Note_on_c, 0, 57, 48
1, 43680, Note_on_c, 0, 61, 57
1, 43680, Note_on_c, 0, 33, 48
1, 43729, Control_c, 0, 64, 127
1, 43800, Note_on_c, 0, 33, 0
1, 43800, Note_on_c, 0, 45, 45
1, 43920, Note_on_c, 0, 45, 0
1, 43920, Note_on_c, 0, 44, 45
1, 43941, Control_c, 0, 64, 0
1, 44040, Tempo, 483871
1, 44040, Note_on_c, 0, 44, 0
1, 44040, Note_on_c, 0, 45, 45
1, 44160, Tempo, 446097
1, 44160, Note_on_c, 0, 45, 0
1, 44160, Note_on_c, 0, 61, 0
1, 44160, Note_on_c, 0, 52, 0
1, 44160, Note_on_c, 0, 55, 0
1, 44160, Note_on_c, 0, 57, 0
1, 44160, Note_on_c, 0, 53, 53
1, 44160, Note_on_c, 0, 62, 59
1, 44160, Note_on_c, 0, 57, 53
1, 44160, Note_on_c, 0, 38, 52
1, 44180, Tempo, 451128
1, 44280, Note_on_c, 0, 45, 46
1, 44300, Note_on_c, 0, 38, 0
1, 44400, Note_on_c, 0, 44, 46
1, 44420, Note_on_c, 0, 45, 0
1, 44520, Note_on_c, 0, 45, 47
1, 44540, Note_on_c, 0, 44, 0
1, 44640, Tempo, 449438
1, 44640, Note_on_c, 0, 57, 0
1, 44640, Note_on_c, 0, 53, 0
1, 44640, Note_on_c, 0, 62, 0
1, 44640, Note_on_c, 0, 64, 62
1, 44640, Note_on_c, 0, 61, 55
1, 44640, Note_on_c, 0, 57, 55
1, 44640, Note_on_c, 0, 33, 54
1, 44660, Note_on_c, 0, 45, 0
1, 44760, Tempo, 451128
1, 44760, Note_on_c, 0, 45, 50
1, 44780, Note_on_c, 0, 33, 0
1, 44860, Tempo, 452830
1, 44880, Note_on_c, 0, 44, 50
1, 44900, Note_on_c, 0, 45, 0
1, 44980, Tempo, 454545
1, 45000, Note_on_c, 0, 45, 51
1, 45020, Note_on_c, 0, 44, 0
1, 45080, Tempo, 456274
1, 45120, Note_on_c, 0, 57, 0
1, 45120, Note_on_c, 0, 64, 0
1, 45120, Note_on_c, 0, 61, 0
1, 45120, Note_on_c, 0, 57, 60
1, 45120, Note_on_c, 0, 62, 60
1, 45120, Note_on_c, 0, 65, 67
1, 45120, Note_on_c, 0, 38, 64
1, 45140, Note_on_c, 0, 45, 0
1, 45200, Tempo, 458015
1, 45240, Note_on_c, 0, 45, 57
1, 45260, Note_on_c, 0, 38, 0
1, 45300, Tempo, 459770
1, 45360, Note_on_c, 0, 44, 57
1, 45380, Note_on_c, 0, 45, 0
1, 45420, Tempo, 461538
1, 45480, Note_on_c, 0, 45, 57
1, 45500, Note_on_c, 0, 44, 0
1, 45520, Tempo, 463320
1, 45600, Note_on_c, 0, 65, 0
1, 45600, Note_on_c, 0, 57, 0
1, 45600, Note_on_c, 0, 62, 0
1, 45600, Note_on_c, 0, 67, 70
1, 45600, Note_on_c, 0, 60, 62
1, 45600, Note_on_c, 0, 64, 62
1, 45600, Note_on_c, 0, 36, 74
1, 45620, Note_on_c, 0, 45, 0
1, 45640, Tempo, 465116
1, 45720, Note_on_c, 0, 48, 65
1, 45740, Tempo, 466926
1, 45740, Note_on_c, 0, 36, 0
1, 45840, Note_on_c, 0, 47, 65
1, 45860, Tempo, 468750
1, 45860, Note_on_c, 0, 48, 0
1, 45960, Tempo, 512821
1, 45960, Note_on_c, 0, 48, 65
1, 45980, Note_on_c, 0, 47, 0
1, 46060, Tempo, 472441
1, 46080, Tempo, 458015
1, 46080, Note_on_c, 0, 64, 0
1, 46080, Note_on_c, 0, 67, 0
1, 46080, Note_on_c, 0, 60, 0
1, 46080, Note_on_c, 0, 41, 70
1, 46100, Note_on_c, 0, 48, 0
1, 46143, Control_c, 0, 64, 127
1, 46200, Tempo, 416667
1, 46200, Note_on_c, 0, 57, 72
1, 46320, Note_on_c, 0, 57, 0
1, 46320, Note_on_c, 0, 60, 75
1, 46440, Note_on_c, 0, 60, 0
1, 46440, Note_on_c, 0, 57, 73
1, 46540, Tempo, 412371
1, 46560, Tempo, 461538
1, 46560, Note_on_c, 0, 57, 0
1, 46560, Note_on_c, 0, 69, 76
1, 46680, Tempo, 415225
1, 46680, Note_on_c, 0, 41, 0
1, 46680, Note_on_c, 0, 41, 63
1, 46703, Control_c, 0, 64, 0
1, 46800, Note_on_c, 0, 41, 0
1, 46800, Note_on_c, 0, 40, 68
1, 46920, Note_on_c, 0, 40, 0
1, 46920, Note_on_c, 0, 41, 63
1, 47040, Tempo, 452830
1, 47040, Note_on_c, 0, 41, 0
1, 47040, Note_on_c, 0, 69, 0
1, 47040, Note_on_c, 0, 45, 74
1, 47109, Control_c, 0, 64, 127
1, 47160, Tempo, 415225
1, 47160, Note_on_c, 0, 60, 70
1, 47280, Note_on_c, 0, 60, 0
1, 47280, Note_on_c, 0, 65, 74
1, 47400, Note_on_c, 0, 65, 0
1, 47400, Note_on_c, 0, 60, 73
1, 47500, Tempo, 413793
1, 47520, Tempo, 449438
1, 47520, Note_on_c, 0, 60, 0
1, 47520, Note_on_c, 0, 72, 77
1, 47640, Tempo, 413793
1, 47640, Note_on_c, 0, 45, 0
1, 47640, Note_on_c, 0, 45, 63
1, 47680, Control_c, 0, 64, 0
1, 47760, Note_on_c, 0, 45, 0
1, 47760, Note_on_c, 0, 44, 68
1, 47880, Note_on_c, 0, 44, 0
1, 47880, Note_on_c, 0, 45, 63
1, 48000, Tempo, 497925
1, 48000, Note_on_c, 0, 45, 0
1, 48000, Note_on_c, 0, 72, 0
1, 48000, Note_on_c, 0, 48, 74
1, 48080, Tempo, 410959
1, 48092, Control_c, 0, 64, 127
1, 48120, Note_on_c, 0, 57, 68
1, 48160, Tempo, 412371
1, 48240, Tempo, 413793
1, 48240, Note_on_c, 0, 57, 0
1, 48240, Note_on_c, 0, 60, 71
1, 48320, Tempo, 415225
1, 48360, Note_on_c, 0, 60, 0
1, 48360, Note_on_c, 0, 65, 73
1, 48400, Tempo, 416667
1, 48460, Tempo, 418118
1, 48480, Note_on_c, 0, 65, 0
1, 48480, Note_on_c, 0, 69, 76
1, 48600, Note_on_c, 0, 65, 74
1, 48720, Note_on_c, 0, 65, 0
1, 48720, Note_on_c, 0, 60, 72
1, 48840, Note_on_c, 0, 60, 0
1, 48840, Note_on_c, 0, 57, 70
1, 48960, Tempo, 459770
1, 48960, Note_on_c, 0, 57, 0
1, 48960, Note_on_c, 0, 69, 0
1, 48960, Note_on_c, 0, 48, 0
1, 48960, Note_on_c, 0, 36, 66
1, 48969, Control_c, 0, 64, 0
1, 49040, Tempo, 410959
1, 49052, Control_c, 0, 64, 127
1, 49080, Note_on_c, 0, 55, 63
1, 49120, Tempo, 412371
1, 49200, Tempo, 413793
1, 49200, Note_on_c, 0, 55, 0
1, 49200, Note_on_c, 0, 60, 67
1, 49280, Tempo, 415225
1, 49320, Note_on_c, 0, 60, 0
1, 49320, Note_on_c, 0, 64, 69
1, 49360, Tempo, 416667
1, 49420, Tempo, 418118
1, 49440, Note_on_c, 0, 64, 0
1, 49440, Note_on_c, 0, 67, 72
1, 49560, Note_on_c, 0, 64, 70
1, 49680, Note_on_c, 0, 64, 0
1, 49680, Note_on_c, 0, 60, 68
1, 49800, Note_on_c, 0, 60, 0
1, 49800, Note_on_c, 0, 55, 66
1, 49920, Tempo, 458015
1, 49920, Note_on_c, 0, 55, 0
1, 49920, Note_on_c, 0, 67, 0
1, 49920, Note_on_c, 0, 36, 0
1, 49920, Note_on_c, 0, 43, 70
1, 49928, Control_c, 0, 64, 0
1, 50040, Tempo, 416667
1, 50040, Note_on_c, 0, 58, 72
1, 50040, Control_c, 0, 64, 127
1, 50160, Note_on_c, 0, 58, 0
1, 50160, Note_on_c, 0, 62, 75
1, 50280, Note_on_c, 0, 62, 0
1, 50280, Note_on_c, 0, 58, 73
1, 50380, Tempo, 412371
1, 50400, Tempo, 461538
1, 50400, Note_on_c, 0, 58, 0
1, 50400, Note_on_c, 0, 70, 76
1, 50520, Tempo, 415225
1, 50520, Note_on_c, 0, 43, 0
1, 50520, Note_on_c, 0, 43, 63
1, 50555, Control_c, 0, 64, 0
1, 50640, Note_on_c, 0, 43, 0
1, 50640, Note_on_c, 0, 42, 68
1, 50760, Note_on_c, 0, 42, 0
1, 50760, Note_on_c, 0, 43, 63
1, 50880, Tempo, 452830
1, 50880, Note_on_c, 0, 43, 0
1, 50880, Note_on_c, 0, 70, 0
1, 50880, Note_on_c, 0, 37, 76
1, 50994, Control_c, 0, 64, 127
1, 51000, Tempo, 415225
1, 51000, Note_on_c, 0, 57, 70
1, 51120, Note_on_c, 0, 57, 0
1, 51120, Note_on_c, 0, 64, 74
1, 51240, Note_on_c, 0, 64, 0
1, 51240, Note_on_c, 0, 57, 73
1, 51340, Tempo, 413793
1, 51360, Tempo, 449438
1, 51360, Note_on_c, 0, 57, 0
1, 51360, Note_on_c, 0, 69, 77
1, 51480, Tempo, 413793
1, 51480, Note_on_c, 0, 37, 0
1, 51480, Note_on_c, 0, 37, 63
1, 51515, Control_c, 0, 64, 0
1, 51600, Note_on_c, 0, 37, 0
1, 51600, Note_on_c, 0, 36, 68
1, 51720, Note_on_c, 0, 36, 0
1, 51720, Note_on_c, 0, 37, 63
1, 51840, Tempo, 458015
1, 51840, Note_on_c, 0, 37, 0
1, 51840, Note_on_c, 0, 69, 0
1, 51840, Note_on_c, 0, 40, 74
1, 51960, Tempo, 416667
1, 51960, Note_on_c, 0, 57, 72
1, 51966, Control_c, 0, 64, 127
1, 52080, Note_on_c, 0, 57, 0
1, 52080, Note_on_c, 0, 61, 75
1, 52200, Tempo, 436364
1, 52200, Note_on_c, 0, 61, 0
1, 52200, Note_on_c, 0, 57, 73
1, 52300, Tempo, 412371
1, 52320, Tempo, 418118
1, 52320, Note_on_c, 0, 57, 0
1, 52320, Note_on_c, 0, 67, 80
1, 52440, Tempo, 415225
1, 52440, Note_on_c, 0, 57, 63
1, 52560, Note_on_c, 0, 57, 0
1, 52560, Note_on_c, 0, 61, 68
1, 52680, Note_on_c, 0, 61, 0
1, 52680, Note_on_c, 0, 57, 63
1, 52800, Tempo, 452830
1, 52800, Note_on_c, 0, 57, 0
1, 52800, Note_on_c, 0, 40, 0
1, 52800, Note_on_c, 0, 38, 72
1, 52810, Control_c, 0, 64, 0
1, 52920, Tempo, 415225
1, 52920, Note_on_c, 0, 57, 73
1, 52931, Control_c, 0, 64, 127
1, 53040, Note_on_c, 0, 57, 0
1, 53040, Note_on_c, 0, 62, 77
1, 53160, Note_on_c, 0, 62, 0
1, 53160, Note_on_c, 0, 57, 76
1, 53280, Note_on_c, 0, 57, 0
1, 53280, Note_on_c, 0, 67, 0
1, 53280, Note_on_c, 0, 65, 80
1, 53400, Tempo, 413793
1, 53400, Note_on_c, 0, 57, 66
1, 53520, Note_on_c, 0, 57, 0
1, 53520, Note_on_c, 0, 62, 71
1, 53640, Note_on_c, 0, 62, 0
1, 53640, Note_on_c, 0, 57, 66
1, 53760, Tempo, 458015
1, 53760, Note_on_c, 0, 57, 0
1, 53760, Note_on_c, 0, 65, 0
1, 53760, Note_on_c, 0, 38, 0
1, 53760, Note_on_c, 0, 32, 82
1, 53760, Note_on_c, 0, 44, 82
1, 53768, Control_c, 0, 64, 0
1, 53823, Control_c, 0, 64, 127
1, 53880, Tempo, 416667
1, 53880, Note_on_c, 0, 62, 86
1, 54000, Note_on_c, 0, 62, 0
1, 54000, Note_on_c, 0, 65, 91
1, 54120, Note_on_c, 0, 65, 0
1, 54120, Note_on_c, 0, 62, 84
1, 54220, Tempo, 412371
1, 54240, Tempo, 461538
1, 54240, Note_on_c, 0, 62, 0
1, 54240, Note_on_c, 0, 74, 96
1, 54360, Tempo, 434783
1, 54480, Note_on_c, 0, 44, 0
1, 54480, Note_on_c, 0, 32, 0
1, 54480, Control_c, 0, 64, 0
1, 54480, Note_on_c, 0, 33, 81
1, 54480, Note_on_c, 0, 45, 81
1, 54600, Note_on_c, 0, 45, 0
1, 54600, Note_on_c, 0, 33, 0
1, 54720, Tempo, 458015
1, 54720, Note_on_c, 0, 74, 0
1, 54720, Note_on_c, 0, 34, 86
1, 54720, Note_on_c, 0, 46, 86
1, 54783, Control_c, 0, 64, 127
1, 54840, Tempo, 433213
1, 54840, Note_on_c, 0, 74, 87
1, 54960, Note_on_c, 0, 74, 0
1, 54960, Note_on_c, 0, 77, 95
1, 55080, Note_on_c, 0, 77, 0
1, 55080, Note_on_c, 0, 74, 89
1, 55180, Tempo, 412371
1, 55200, Tempo, 485830
1, 55200, Note_on_c, 0, 74, 0
1, 55200, Note_on_c, 0, 86, 101
1, 55440, Note_on_c, 0, 46, 0
1, 55440, Note_on_c, 0, 34, 0
1, 55440, Note_on_c, 0, 33, 82
1, 55440, Note_on_c, 0, 45, 82
1, 55449, Control_c, 0, 64, 0
1, 55560, Tempo, 750000
1, 55560, Note_on_c, 0, 45, 0
1, 55560, Note_on_c, 0, 33, 0
1, 55590, Note_on_c, 0, 86, 0
1, 55590, Note_on_c, 0, 77, 77
1, 55620, Note_on_c, 0, 83, 85
1, 55650, Note_on_c, 0, 86, 93
1, 55680, Tempo, 500000
1, 55680, Note_on_c, 0, 89, 106
1, 55680, Note_on_c, 0, 32, 86
1, 55680, Note_on_c, 0, 44, 86
1, 55698, Control_c, 0, 64, 127
1, 55800, Note_on_c, 0, 44, 0
1, 55800, Note_on_c, 0, 83, 0
1, 55800, Note_on_c, 0, 86, 0
1, 55800, Note_on_c, 0, 77, 0
1, 55800, Note_on_c, 0, 32, 0
1, 55800, Note_on_c, 0, 89, 0
1, 55864, Control_c, 0, 64, 0
1, 56160, Tempo, 412371
1, 56160, Note_on_c, 0, 53, 80
1, 56160, Note_on_c, 0, 41, 68
1, 56180, Tempo, 412371
1, 56280, Tempo, 413793
1, 56280, Note_on_c, 0, 52, 79
1, 56280, Note_on_c, 0, 40, 67
1, 56300, Note_on_c, 0, 41, 0
1, 56300, Note_on_c, 0, 53, 0
1, 56360, Tempo, 415225
1, 56400, Note_on_c, 0, 51, 77
1, 56400, Note_on_c, 0, 39, 65
1, 56420, Note_on_c, 0, 52, 0
1, 56420, Note_on_c, 0, 40, 0
1, 56440, Tempo, 416667
1, 56520, Tempo, 418118
1, 56520, Note_on_c, 0, 50, 75
1, 56520, Note_on_c, 0, 38, 64
1, 56540, Note_on_c, 0, 51, 0
1, 56540, Note_on_c, 0, 39, 0
1, 56600, Tempo, 419580
1, 56640, Tempo, 412371
1, 56640, Note_on_c, 0, 50, 0
1, 56640, Note_on_c, 0, 38, 0
1, 56640, Note_on_c, 0, 53, 75
1, 56640, Note_on_c, 0, 41, 64
1, 56660, Tempo, 412371
1, 56720, Tempo, 413793
1, 56760, Tempo, 415225
1, 56760, Note_on_c, 0, 52, 72
1, 56760, Note_on_c, 0, 40, 60
1, 56780, Note_on_c, 0, 41, 0
1, 56780, Note_on_c, 0, 53, 0
1, 56800, Tempo, 416667
1, 56840, Tempo, 418118
1, 56880, Tempo, 419580
1, 56880, Note_on_c, 0, 51, 69
1, 56880, Note_on_c, 0, 39, 57
1, 56900, Note_on_c, 0, 52, 0
1, 56900, Note_on_c, 0, 40, 0
1, 56940, Tempo, 421053
1, 56980, Tempo, 422535
1, 57000, Note_on_c, 0, 50, 65
1, 57000, Note_on_c, 0, 38, 55
1, 57020, Tempo, 424028
1, 57020, Note_on_c, 0, 51, 0
1, 57020, Note_on_c, 0, 39, 0
1, 57060, Tempo, 425532
1, 57100, Tempo, 427046
1, 57120, Tempo, 415225
1, 57120, Note_on_c, 0, 50, 0
1, 57120, Note_on_c, 0, 38, 0
1, 57120, Note_on_c, 0, 53, 69
1, 57120, Note_on_c, 0, 41, 58
1, 57180, Tempo, 416667
1, 57220, Tempo, 418118
1, 57240, Note_on_c, 0, 52, 67
1, 57240, Note_on_c, 0, 40, 57
1, 57260, Tempo, 419580
1, 57260, Note_on_c, 0, 41, 0
1, 57260, Note_on_c, 0, 53, 0
1, 57300, Tempo, 421053
1, 57340, Tempo, 422535
1, 57360, Note_on_c, 0, 51, 63
1, 57360, Note_on_c, 0, 39, 53
1, 57380, Tempo, 424028
1, 57380, Note_on_c, 0, 52, 0
1, 57380, Note_on_c, 0, 40, 0
1, 57420, Tempo, 425532
1, 57460, Tempo, 427046
1, 57480, Note_on_c, 0, 50, 61
1, 57480, Note_on_c, 0, 38, 51
1, 57500, Tempo, 428571
1, 57500, Note_on_c, 0, 51, 0
1, 57500, Note_on_c, 0, 39, 0
1, 57540, Tempo, 430108
1, 57580, Tempo, 431655
1, 57600, Tempo, 439560
1, 57600, Note_on_c, 0, 38, 0
1, 57600, Note_on_c, 0, 57, 56
1, 57600, Note_on_c, 0, 53, 47
1, 57600, Note_on_c, 0, 33, 48
1, 57646, Control_c, 0, 64, 127
1, 57720, Note_on_c, 0, 33, 0
1, 57720, Note_on_c, 0, 45, 45
1, 57840, Note_on_c, 0, 45, 0
1, 57840, Note_on_c, 0, 44, 45
1, 57960, Note_on_c, 0, 44, 0
1, 57960, Note_on_c, 0, 45, 45
1, 58080, Tempo, 441176
1, 58080, Note_on_c, 0, 45, 0
1, 58080, Note_on_c, 0, 53, 0
1, 58080, Note_on_c, 0, 57, 0
1, 58080, Note_on_c, 0, 50, 0
1, 58080, Note_on_c, 0, 62, 60
1, 58080, Note_on_c, 0, 57, 51
1, 58080, Note_on_c, 0, 53, 51
1, 58080, Note_on_c, 0, 33, 50
1, 58090, Control_c, 0, 64, 0
1, 58154, Control_c, 0, 64, 127
1, 58200, Note_on_c, 0, 33, 0
1, 58200, Note_on_c, 0, 45, 48
1, 58320, Note_on_c, 0, 45, 0
1, 58320, Note_on_c, 0, 44, 48
1, 58440, Tempo, 478088
1, 58440, Note_on_c, 0, 44, 0
1, 58440, Note_on_c, 0, 45, 48
1, 58454, Control_c, 0, 64, 0
1, 58470, Note_on_c, 0, 62, 0
1, 58470, Note_on_c, 0, 53, 0
1, 58470, Note_on_c, 0, 57, 0
1, 58470, Note_on_c, 0, 52, 49
1, 58490, Note_on_c, 0, 45, 0
1, 58500, Note_on_c, 0, 55, 52
1, 58514, Control_c, 0, 64, 127
1, 58530, Note_on_c, 0, 58, 55
1, 58560, Tempo, 436364
1, 58560, Note_on_c, 0, 62, 65
1, 58560, Note_on_c, 0, 33, 53
1, 58680, Note_on_c, 0, 33, 0
1, 58680, Note_on_c, 0, 45, 50
1, 58800, Note_on_c, 0, 45, 0
1, 58800, Note_on_c, 0, 44, 47
1, 58920, Note_on_c, 0, 44, 0
1, 58920, Note_on_c, 0, 45, 45
1, 59040, Tempo, 442804
1, 59040, Note_on_c, 0, 45, 0
1, 59040, Note_on_c, 0, 62, 0
1, 59040, Note_on_c, 0, 58, 0
1, 59040, Note_on_c, 0, 61, 57
1, 59040, Note_on_c, 0, 57, 48
1, 59040, Control_c, 0, 64, 0
1, 59040, Note_on_c, 0, 33, 48
1, 59089, Control_c, 0, 64, 127
1, 59160, Note_on_c, 0, 33, 0
1, 59160, Note_on_c, 0, 45, 45
1, 59280, Note_on_c, 0, 45, 0
1, 59280, Note_on_c, 0, 44, 45
1, 59400, Tempo, 483871
1, 59400, Note_on_c, 0, 44, 0
1, 59400, Note_on_c, 0, 45, 45
1, 59520, Tempo, 406780
1, 59520, Note_on_c, 0, 45, 0
1, 59520, Note_on_c, 0, 57, 0
1, 59520, Note_on_c, 0, 52, 0
1, 59520, Note_on_c, 0, 55, 0
1, 59520, Note_on_c, 0, 61, 0
1, 59520, Note_on_c, 0, 53, 52
1, 59520, Note_on_c, 0, 57, 52
1, 59520, Note_on_c, 0, 62, 59
1, 59520, Control_c, 0, 64, 0
1, 59520, Note_on_c, 0, 38, 49
1, 59610, Note_on_c, 0, 62, 0
1, 59610, Note_on_c, 0, 53, 0
1, 59610, Note_on_c, 0, 57, 0
1, 59640, Note_on_c, 0, 50, 44
1, 59760, Note_on_c, 0, 49, 38
1, 59780, Note_on_c, 0, 50, 0
1, 59880, Tempo, 415225
1, 59880, Note_on_c, 0, 50, 44
1, 59900, Note_on_c, 0, 49, 0
1, 60000, Tempo, 402685
1, 60000, Note_on_c, 0, 41, 44
1, 60020, Note_on_c, 0, 50, 0
1, 60020, Note_on_c, 0, 38, 0
1, 60120, Note_on_c, 0, 53, 44
1, 60240, Note_on_c, 0, 52, 39
1, 60260, Note_on_c, 0, 53, 0
1, 60360, Tempo, 415225
1, 60360, Note_on_c, 0, 53, 44
1, 60380, Note_on_c, 0, 52, 0
1, 60480, Tempo, 402685
1, 60480, Note_on_c, 0, 38, 50
1, 60500, Note_on_c, 0, 53, 0
1, 60500, Note_on_c, 0, 41, 0
1, 60600, Note_on_c, 0, 50, 44
1, 60720, Note_on_c, 0, 49, 39
1, 60740, Note_on_c, 0, 50, 0
1, 60840, Tempo, 415225
1, 60840, Note_on_c, 0, 50, 44
1, 60860, Note_on_c, 0, 49, 0
1, 60960, Tempo, 408163
1, 60960, Note_on_c, 0, 41, 44
1, 60980, Note_on_c, 0, 50, 0
1, 60980, Note_on_c, 0, 38, 0
1, 61080, Note_on_c, 0, 53, 44
1, 61200, Note_on_c, 0, 52, 38
1, 61220, Note_on_c, 0, 53, 0
1, 61320, Tempo, 415225
1, 61320, Note_on_c, 0, 53, 40
1, 61340, Note_on_c, 0, 52, 0
1, 61440, Tempo, 412371
1, 61440, Note_on_c, 0, 41, 0
1, 61440, Note_on_c, 0, 38, 51
1, 61460, Note_on_c, 0, 53, 0
1, 61560, Note_on_c, 0, 50, 39
1, 61588, Control_c, 0, 64, 127
1, 61640, Tempo, 410959
1, 61680, Note_on_c, 0, 50, 0
1, 61680, Note_on_c, 0, 62, 51
1, 61800, Note_on_c, 0, 62, 0
1, 61800, Note_on_c, 0, 50, 44
1, 61840, Tempo, 409556
1, 61920, Note_on_c, 0, 50, 0
1, 61920, Note_on_c, 0, 62, 57
1, 62040, Tempo, 408163
1, 62040, Note_on_c, 0, 62, 0
1, 62040, Note_on_c, 0, 50, 46
1, 62160, Note_on_c, 0, 50, 0
1, 62160, Note_on_c, 0, 62, 59
1, 62240, Tempo, 406780
1, 62280, Tempo, 418118
1, 62280, Note_on_c, 0, 62, 0
1, 62280, Note_on_c, 0, 50, 50
1, 62400, Tempo, 406780
1, 62400, Note_on_c, 0, 50, 0
1, 62400, Note_on_c, 0, 38, 0
1, 62400, Note_on_c, 0, 62, 67
1, 62400, Note_on_c, 0, 34, 63
1, 62400, Note_on_c, 0, 46, 63
1, 62410, Control_c, 0, 64, 0
1, 62506, Control_c, 0, 64, 127
1, 62520, Note_on_c, 0, 62, 0
1, 62520, Note_on_c, 0, 50, 53
1, 62640, Note_on_c, 0, 50, 0
1, 62640, Note_on_c, 0, 62, 64
1, 62680, Tempo, 408163
1, 62760, Note_on_c, 0, 62, 0
1, 62760, Note_on_c, 0, 50, 47
1, 62880, Note_on_c, 0, 50, 0
1, 62880, Note_on_c, 0, 62, 59
1, 62940, Tempo, 409556
1, 63000, Note_on_c, 0, 62, 0
1, 63000, Note_on_c, 0, 50, 44
1, 63120, Note_on_c, 0, 50, 0
1, 63120, Note_on_c, 0, 62, 55
1, 63200, Tempo, 410959
1, 63240, Tempo, 410959
1, 63240, Note_on_c, 0, 62, 0
1, 63240, Note_on_c, 0, 50, 49
1, 63252, Tempo, 410959
1, 63264, Tempo, 416667
1, 63280, Tempo, 422535
1, 63292, Tempo, 428571
1, 63304, Tempo, 436364
1, 63320, Tempo, 442804
1, 63332, Tempo, 449438
1, 63344, Tempo, 458015
1, 63360, Tempo, 406780
1, 63360, Note_on_c, 0, 50, 0
1, 63360, Note_on_c, 0, 46, 0
1, 63360, Note_on_c, 0, 34, 0
1, 63360, Control_c, 0, 64, 0
1, 63360, Note_on_c, 0, 38, 52
1, 63480, Note_on_c, 0, 50, 44
1, 63600, Note_on_c, 0, 49, 40
1, 63620, Note_on_c, 0, 50, 0
1, 63720, Tempo, 415225
1, 63720, Note_on_c, 0, 50, 44
1, 63740, Note_on_c, 0, 49, 0
1, 63840, Tempo, 402685
1, 63840, Note_on_c, 0, 41, 44
1, 63860, Note_on_c, 0, 50, 0
1, 63860, Note_on_c, 0, 38, 0
1, 63960, Note_on_c, 0, 53, 44
1, 64080, Note_on_c, 0, 52, 41
1, 64100, Note_on_c, 0, 53, 0
1, 64200, Tempo, 415225
1, 64200, Note_on_c, 0, 53, 44
1, 64220, Note_on_c, 0, 52, 0
1, 64320, Tempo, 402685
1, 64320, Note_on_c, 0, 38, 52
1, 64340, Note_on_c, 0, 53, 0
1, 64340, Note_on_c, 0, 41, 0
1, 64440, Note_on_c, 0, 50, 44
1, 64560, Note_on_c, 0, 49, 40
1, 64580, Note_on_c, 0, 50, 0
1, 64680, Tempo, 415225
1, 64680, Note_on_c, 0, 50, 44
1, 64700, Note_on_c, 0, 49, 0
1, 64800, Tempo, 408163
1, 64800, Note_on_c, 0, 41, 46
1, 64820, Note_on_c, 0, 50, 0
1, 64820, Note_on_c, 0, 38, 0
1, 64920, Note_on_c, 0, 53, 44
1, 65040, Note_on_c, 0, 52, 39
1, 65060, Note_on_c, 0, 53, 0
1, 65160, Tempo, 415225
1, 65160, Note_on_c, 0, 53, 44
1, 65180, Note_on_c, 0, 52, 0
1, 65280, Tempo, 415225
1, 65280, Note_on_c, 0, 38, 55
1, 65300, Note_on_c, 0, 53, 0
1, 65300, Note_on_c, 0, 41, 0
1, 65400, Note_on_c, 0, 50, 39
1, 65420, Tempo, 413793
1, 65428, Control_c, 0, 64, 127
1, 65520, Note_on_c, 0, 50, 0
1, 65520, Note_on_c, 0, 62, 51
1, 65560, Tempo, 412371
1, 65640, Note_on_c, 0, 62, 0
1, 65640, Note_on_c, 0, 50, 44
1, 65700, Tempo, 410959
1, 65760, Note_on_c, 0, 50, 0
1, 65760, Note_on_c, 0, 62, 57
1, 65840, Tempo, 409556
1, 65880, Note_on_c, 0, 62, 0
1, 65880, Note_on_c, 0, 50, 46
1, 65980, Tempo, 408163
1, 66000, Note_on_c, 0, 50, 0
1, 66000, Note_on_c, 0, 62, 59
1, 66100, Tempo, 406780
1, 66120, Tempo, 427046
1, 66120, Note_on_c, 0, 62, 0
1, 66120, Note_on_c, 0, 50, 50
1, 66240, Tempo, 406780
1, 66240, Note_on_c, 0, 50, 0
1, 66240, Note_on_c, 0, 38, 0
1, 66240, Note_on_c, 0, 55, 64
1, 66240, Note_on_c, 0, 58, 66
1, 66240, Note_on_c, 0, 31, 55
1, 66240, Note_on_c, 0, 43, 58
1, 66250, Control_c, 0, 64, 0
1, 66346, Control_c, 0, 64, 127
1, 66360, Note_on_c, 0, 50, 53
1, 66480, Note_on_c, 0, 50, 0
1, 66480, Note_on_c, 0, 62, 64
1, 66500, Tempo, 408163
1, 66600, Note_on_c, 0, 62, 0
1, 66600, Note_on_c, 0, 50, 47
1, 66720, Note_on_c, 0, 50, 0
1, 66720, Note_on_c, 0, 62, 59
1, 66760, Tempo, 409556
1, 66840, Note_on_c, 0, 62, 0
1, 66840, Note_on_c, 0, 50, 44
1, 66960, Note_on_c, 0, 50, 0
1, 66960, Note_on_c, 0, 62, 55
1, 67020, Tempo, 410959
1, 67080, Tempo, 447761
1, 67080, Note_on_c, 0, 62, 0
1, 67080, Note_on_c, 0, 50, 49
1, 67160, Tempo, 412371
1, 67200, Key_signature, 2, "major"
1, 67200, Tempo, 424568
1, 67200, Note_on_c, 0, 43, 0
1, 67200, Note_on_c, 0, 31, 0
1, 67200, Note_on_c, 0, 55, 0
1, 67200, Note_on_c, 0, 58, 0
1, 67200, Note_on_c, 0, 54, 49
1, 67200, Note_on_c, 0, 57, 49
1, 67200, Note_on_c, 0, 26, 56
1, 67206, Control_c, 0, 64, 0
1, 67292, Control_c, 0, 64, 127
1, 67320, Note_on_c, 0, 26, 0
1, 67320, Note_on_c, 0, 38, 29
1, 67440, Note_on_c, 0, 38, 0
1, 67440, Note_on_c, 0, 26, 39
1, 67560, Note_on_c, 0, 26, 0
1, 67560, Note_on_c, 0, 38, 29
1, 67680, Tempo, 428970
1, 67680, Note_on_c, 0, 38, 0
1, 67680, Note_on_c, 0, 57, 0
1, 67680, Note_on_c, 0, 54, 0
1, 67680, Note_on_c, 0, 50, 0
1, 67680, Note_on_c, 0, 26, 40
1, 67800, Note_on_c, 0, 26, 0
1, 67800, Note_on_c, 0, 38, 28
1, 67920, Note_on_c, 0, 38, 0
1, 67920, Note_on_c, 0, 26, 39
1, 68040, Note_on_c, 0, 26, 0
1, 68040, Note_on_c, 0, 38, 29
1, 68160, Tempo, 424568
1, 68160, Note_on_c, 0, 38, 0
1, 68160, Note_on_c, 0, 57, 41
1, 68160, Note_on_c, 0, 62, 41
1, 68160, Note_on_c, 0, 66, 49
1, 68160, Note_on_c, 0, 26, 47
1, 68169, Control_c, 0, 64, 0
1, 68200, Tempo, 424568
1, 68238, Control_c, 0, 64, 127
1, 68280, Note_on_c, 0, 26, 0
1, 68280, Note_on_c, 0, 38, 28
1, 68400, Note_on_c, 0, 38, 0
1, 68400, Note_on_c, 0, 26, 39
1, 68440, Tempo, 423101
1, 68520, Note_on_c, 0, 26, 0
1, 68520, Note_on_c, 0, 38, 29
1, 68640, Note_on_c, 0, 38, 0
1, 68640, Note_on_c, 0, 26, 43
1, 68680, Tempo, 421674
1, 68760, Note_on_c, 0, 26, 0
1, 68760, Note_on_c, 0, 38, 29
1, 68880, Note_on_c, 0, 38, 0
1, 68880, Note_on_c, 0, 26, 42
1, 68920, Tempo, 420227
1, 69000, Note_on_c, 0, 26, 0
1, 69000, Note_on_c, 0, 38, 31
1, 69120, Tempo, 418819
1, 69120, Note_on_c, 0, 38, 0
1, 69120, Note_on_c, 0, 66, 0
1, 69120, Note_on_c, 0, 62, 0
1, 69120, Note_on_c, 0, 57, 0
1, 69120, Note_on_c, 0, 57, 47
1, 69120, Note_on_c, 0, 55, 47
1, 69120, Note_on_c, 0, 64, 56
1, 69120, Note_on_c, 0, 26, 57
1, 69133, Control_c, 0, 64, 0
1, 69198, Control_c, 0, 64, 127
1, 69240, Note_on_c, 0, 26, 0
1, 69240, Note_on_c, 0, 38, 33
1, 69360, Note_on_c, 0, 38, 0
1, 69360, Note_on_c, 0, 26, 45
1, 69480, Note_on_c, 0, 26, 0
1, 69480, Note_on_c, 0, 38, 36
1, 69600, Note_on_c, 0, 38, 0
1, 69600, Note_on_c, 0, 26, 46
1, 69720, Note_on_c, 0, 26, 0
1, 69720, Note_on_c, 0, 38, 35
1, 69840, Note_on_c, 0, 38, 0
1, 69840, Note_on_c, 0, 26, 45
1, 69960, Note_on_c, 0, 26, 0
1, 69960, Note_on_c, 0, 38, 36
1, 70080, Note_on_c, 0, 38, 0
1, 70080, Note_on_c, 0, 64, 0
1, 70080, Note_on_c, 0, 55, 0
1, 70080, Note_on_c, 0, 57, 0
1, 70080, Note_on_c, 0, 54, 49
1, 70080, Note_on_c, 0, 57, 49
1, 70080, Note_on_c, 0, 62, 58
1, 70080, Note_on_c, 0, 26, 56
1, 70093, Control_c, 0, 64, 0
1, 70179, Control_c, 0, 64, 127
1, 70200, Note_on_c, 0, 26, 0
1, 70200, Note_on_c, 0, 38, 36
1, 70320, Note_on_c, 0, 38, 0
1, 70320, Note_on_c, 0, 26, 47
1, 70440, Note_on_c, 0, 26, 0
1, 70440, Note_on_c, 0, 38, 38
1, 70560, Tempo, 423101
1, 70560, Note_on_c, 0, 38, 0
1, 70560, Note_on_c, 0, 26, 55
1, 70680, Note_on_c, 0, 26, 0
1, 70680, Note_on_c, 0, 38, 42
1, 70800, Note_on_c, 0, 38, 0
1, 70800, Note_on_c, 0, 26, 64
1, 70920, Note_on_c, 0, 26, 0
1, 70920, Note_on_c, 0, 38, 42
1, 71040, Tempo, 421674
1, 71040, Note_on_c, 0, 38, 0
1, 71040, Note_on_c, 0, 62, 0
1, 71040, Note_on_c, 0, 57, 0
1, 71040, Note_on_c, 0, 54, 0
1, 71040, Note_on_c, 0, 69, 68
1, 71040, Note_on_c, 0, 62, 57
1, 71040, Note_on_c, 0, 60, 57
1, 71040, Note_on_c, 0, 31, 73
1, 71056, Control_c, 0, 64, 0
1, 71104, Control_c, 0, 64, 127
1, 71160, Note_on_c, 0, 31, 0
1, 71160, Note_on_c, 0, 38, 50
1, 71280, Note_on_c, 0, 38, 0
1, 71280, Note_on_c, 0, 31, 57
1, 71320, Tempo, 420227
1, 71400, Note_on_c, 0, 31, 0
1, 71400, Note_on_c, 0, 38, 47
1, 71480, Tempo, 418819
1, 71520, Note_on_c, 0, 38, 0
1, 71520, Note_on_c, 0, 31, 63
1, 71640, Tempo, 417391
1, 71640, Note_on_c, 0, 31, 0
1, 71640, Note_on_c, 0, 38, 38
1, 71760, Note_on_c, 0, 38, 0
1, 71760, Note_on_c, 0, 31, 49
1, 71800, Tempo, 416002
1, 71880, Note_on_c, 0, 31, 0
1, 71880, Note_on_c, 0, 38, 39
1, 71960, Tempo, 414594
1, 72000, Tempo, 417391
1, 72000, Note_on_c, 0, 38, 0
1, 72000, Note_on_c, 0, 60, 0
1, 72000, Note_on_c, 0, 62, 0
1, 72000, Note_on_c, 0, 69, 0
1, 72000, Note_on_c, 0, 59, 57
1, 72000, Note_on_c, 0, 62, 54
1, 72000, Note_on_c, 0, 67, 64
1, 72000, Note_on_c, 0, 31, 55
1, 72014, Control_c, 0, 64, 0
1, 72085, Control_c, 0, 64, 127
1, 72120, Note_on_c, 0, 31, 0
1, 72120, Note_on_c, 0, 38, 35
1, 72160, Tempo, 418819
1, 72240, Note_on_c, 0, 38, 0
1, 72240, Note_on_c, 0, 31, 46
1, 72320, Tempo, 420227
1, 72360, Note_on_c, 0, 31, 0
1, 72360, Note_on_c, 0, 38, 33
1, 72480, Tempo, 421674
1, 72480, Note_on_c, 0, 38, 0
1, 72480, Note_on_c, 0, 59, 0
1, 72480, Note_on_c, 0, 58, 57
1, 72480, Note_on_c, 0, 31, 47
1, 72497, Control_c, 0, 64, 0
1, 72572, Control_c, 0, 64, 127
1, 72600, Note_on_c, 0, 31, 0
1, 72600, Note_on_c, 0, 38, 30
1, 72640, Tempo, 423101
1, 72720, Note_on_c, 0, 38, 0
1, 72720, Note_on_c, 0, 31, 43
1, 72800, Tempo, 424568
1, 72840, Note_on_c, 0, 31, 0
1, 72840, Note_on_c, 0, 38, 31
1, 72920, Tempo, 426015
1, 72960, Tempo, 430108
1, 72960, Note_on_c, 0, 38, 0
1, 72960, Note_on_c, 0, 58, 0
1, 72960, Note_on_c, 0, 67, 0
1, 72960, Note_on_c, 0, 62, 0
1, 72960, Note_on_c, 0, 66, 59
1, 72960, Note_on_c, 0, 57, 50
1, 72960, Note_on_c, 0, 62, 50
1, 72960, Note_on_c, 0, 33, 45
1, 72979, Control_c, 0, 64, 0
1, 73035, Control_c, 0, 64, 127
1, 73080, Note_on_c, 0, 33, 0
1, 73080, Note_on_c, 0, 38, 30
1, 73200, Tempo, 428571
1, 73200, Note_on_c, 0, 38, 0
1, 73200, Note_on_c, 0, 33, 45
1, 73320, Note_on_c, 0, 33, 0
1, 73320, Note_on_c, 0, 38, 34
1, 73440, Tempo, 427046
1, 73440, Note_on_c, 0, 38, 0
1, 73440, Note_on_c, 0, 33, 47
1, 73560, Note_on_c, 0, 33, 0
1, 73560, Note_on_c, 0, 38, 36
1, 73680, Tempo, 425532
1, 73680, Note_on_c, 0, 38, 0
1, 73680, Note_on_c, 0, 33, 50
1, 73800, Note_on_c, 0, 33, 0
1, 73800, Note_on_c, 0, 38, 38
1, 73880, Tempo, 424028
1, 73920, Note_on_c, 0, 38, 0
1, 73920, Note_on_c, 0, 62, 0
1, 73920, Note_on_c, 0, 57, 0
1, 73920, Note_on_c, 0, 66, 0
1, 73920, Note_on_c, 0, 55, 57
1, 73920, Note_on_c, 0, 62, 57
1, 73920, Note_on_c, 0, 64, 67
1, 73920, Note_on_c, 0, 34, 57
1, 73935, Control_c, 0, 64, 0
1, 73995, Control_c, 0, 64, 127
1, 74000, Tempo, 425532
1, 74040, Note_on_c, 0, 34, 0
1, 74040, Note_on_c, 0, 38, 40
1, 74080, Tempo, 427046
1, 74160, Note_on_c, 0, 38, 0
1, 74160, Note_on_c, 0, 34, 50
1, 74200, Tempo, 428571
1, 74280, Tempo, 430108
1, 74280, Note_on_c, 0, 34, 0
1, 74280, Note_on_c, 0, 38, 36
1, 74360, Tempo, 431655
1, 74400, Note_on_c, 0, 38, 0
1, 74400, Note_on_c, 0, 34, 48
1, 74480, Tempo, 433213
1, 74520, Note_on_c, 0, 34, 0
1, 74520, Note_on_c, 0, 38, 35
1, 74560, Tempo, 434783
1, 74640, Note_on_c, 0, 38, 0
1, 74640, Note_on_c, 0, 34, 39
1, 74680, Tempo, 436364
1, 74760, Tempo, 437956
1, 74760, Note_on_c, 0, 34, 0
1, 74760, Note_on_c, 0, 38, 32
1, 74840, Tempo, 439560
1, 74880, Tempo, 550459
1, 74880, Note_on_c, 0, 38, 0
1, 74880, Note_on_c, 0, 64, 0
1, 74880, Note_on_c, 0, 62, 0
1, 74880, Note_on_c, 0, 55, 0
1, 74880, Note_on_c, 0, 57, 52
1, 74880, Note_on_c, 0, 66, 62
1, 74880, Note_on_c, 0, 62, 52
1, 74880, Note_on_c, 0, 33, 46
1, 74880, Control_c, 0, 64, 0
1, 75120, Note_on_c, 0, 33, 0
1, 75120, Note_on_c, 0, 57, 0
1, 75120, Note_on_c, 0, 66, 0
1, 75120, Note_on_c, 0, 62, 0
1, 75360, Tempo, 521739
1, 75360, Note_on_c, 0, 45, 63
1, 75720, Tempo, 491803
1, 75720, Note_on_c, 0, 45, 0
1, 75720, Note_on_c, 0, 47, 60
1, 75780, Note_on_c, 0, 47, 0
1, 75780, Note_on_c, 0, 45, 61
1, 75840, Tempo, 500000
1, 75840, Note_on_c, 0, 45, 0
1, 75840, Note_on_c, 0, 44, 64
1, 76080, Note_on_c, 0, 44, 0
1, 76080, Note_on_c, 0, 45, 58
1, 76320, Tempo, 500000
1, 76320, Note_on_c, 0, 45, 0
1, 76320, Note_on_c, 0, 49, 64
1, 76560, Note_on_c, 0, 49, 0
1, 76560, Note_on_c, 0, 50, 57
1, 76800, Tempo, 512821
1, 76800, Note_on_c, 0, 50, 0
1, 76800, Note_on_c, 0, 55, 65
1, 77040, Tempo, 542986
1, 77040, Note_on_c, 0, 55, 0
1, 77040, Note_on_c, 0, 54, 59
1, 77200, Note_on_c, 0, 54, 0
1, 77220, Note_on_c, 0, 54, 56
1, 77280, Note_on_c, 0, 54, 0
1, 77280, Note_on_c, 0, 59, 64
1, 77640, Tempo, 566038
1, 77640, Note_on_c, 0, 59, 0
1, 77640, Note_on_c, 0, 57, 59
1, 77760, Note_on_c, 0, 57, 0
1, 77760, Note_on_c, 0, 57, 58
1, 78240, Tempo, 478088
1, 78240, Note_on_c, 0, 57, 0
1, 78240, Note_on_c, 0, 54, 58
1, 78240, Note_on_c, 0, 62, 58
1, 78240, Note_on_c, 0, 57, 52
1, 78240, Note_on_c, 0, 33, 43
1, 78240, Note_on_c, 0, 45, 48
1, 78279, Control_c, 0, 64, 127
1, 78720, Note_on_c, 0, 45, 0
1, 78720, Note_on_c, 0, 57, 0
1, 78720, Note_on_c, 0, 54, 0
1, 78720, Note_on_c, 0, 62, 0
1, 78720, Note_on_c, 0, 33, 0
1, 78720, Note_on_c, 0, 58, 58
1, 78720, Note_on_c, 0, 55, 52
1, 78720, Note_on_c, 0, 52, 52
1, 78720, Note_on_c, 0, 62, 58
1, 78720, Control_c, 0, 64, 0
1, 78720, Note_on_c, 0, 33, 43
1, 78720, Note_on_c, 0, 45, 48
1, 78840, Note_on_c, 0, 45, 0
1, 78840, Note_on_c, 0, 33, 0
1, 78960, Note_on_c, 0, 33, 42
1, 78960, Note_on_c, 0, 45, 47
1, 79080, Note_on_c, 0, 45, 0
1, 79080, Note_on_c, 0, 33, 0
1, 79200, Tempo, 489796
1, 79440, Tempo, 476190
1, 79440, Note_on_c, 0, 33, 43
1, 79440, Note_on_c, 0, 45, 48
1, 79560, Note_on_c, 0, 45, 0
1, 79560, Note_on_c, 0, 33, 0
1, 79680, Tempo, 474308
1, 79680, Note_on_c, 0, 33, 43
1, 79680, Note_on_c, 0, 45, 48
1, 79800, Note_on_c, 0, 45, 0
1, 79800, Note_on_c, 0, 33, 0
1, 79920, Note_on_c, 0, 33, 43
1, 79920, Note_on_c, 0, 45, 48
1, 80040, Note_on_c, 0, 45, 0
1, 80040, Note_on_c, 0, 33, 0
1, 80160, Tempo, 487805
1, 80400, Tempo, 472441
1, 80400, Note_on_c, 0, 33, 43
1, 80400, Note_on_c, 0, 45, 48
1, 80520, Note_on_c, 0, 45, 0
1, 80520, Note_on_c, 0, 33, 0
1, 80640, Tempo, 472441
1, 80640, Note_on_c, 0, 62, 0
1, 80640, Note_on_c, 0, 58, 0
1, 80640, Note_on_c, 0, 57, 58
1, 80640, Note_on_c, 0, 61, 58
1, 80640, Note_on_c, 0, 33, 43
1, 80640, Note_on_c, 0, 45, 48
1, 80760, Note_on_c, 0, 45, 0
1, 80760, Note_on_c, 0, 33, 0
1, 80880, Tempo, 472441
1, 80880, Note_on_c, 0, 33, 41
1, 80880, Note_on_c, 0, 45, 46
1, 81000, Note_on_c, 0, 45, 0
1, 81000, Note_on_c, 0, 33, 0
1, 81120, Tempo, 493827
1, 81360, Tempo, 478088
1, 81360, Note_on_c, 0, 33, 38
1, 81360, Note_on_c, 0, 45, 43
1, 81480, Note_on_c, 0, 45, 0
1, 81480, Note_on_c, 0, 33, 0
1, 81600, Tempo, 481928
1, 81600, Note_on_c, 0, 33, 37
1, 81600, Note_on_c, 0, 45, 42
1, 81720, Note_on_c, 0, 45, 0
1, 81720, Note_on_c, 0, 33, 0
1, 81840, Tempo, 480000
1, 81840, Note_on_c, 0, 33, 36
1, 81840, Note_on_c, 0, 45, 40
1, 81960, Note_on_c, 0, 45, 0
1, 81960, Note_on_c, 0, 33, 0
1, 82080, Tempo, 504202
1, 82320, Note_on_c, 0, 33, 33
1, 82320, Note_on_c, 0, 45, 37
1, 82440, Note_on_c, 0, 45, 0
1, 82440, Note_on_c, 0, 33, 0
1, 82560, Tempo, 517241
1, 82560, Note_on_c, 0, 61, 0
1, 82560, Note_on_c, 0, 55, 0
1, 82560, Note_on_c, 0, 52, 0
1, 82560, Note_on_c, 0, 62, 44
1, 82560, Note_on_c, 0, 50, 39
1, 82560, Note_on_c, 0, 54, 39
1, 82560, Note_on_c, 0, 26, 29
1, 82560, Note_on_c, 0, 38, 33
1, 82640, Control_c, 0, 64, 127
1, 83013, Control_c, 0, 64, 0
1, 83040, Note_on_c, 0, 38, 0
1, 83040, Note_on_c, 0, 62, 0
1, 83040, Note_on_c, 0, 50, 0
1, 83040, Note_on_c, 0, 57, 0
1, 83040, Note_on_c, 0, 26, 0
1, 83040, Note_on_c, 0, 54, 0
1, 83520, Tempo, 588235
1, 83520, Note_on_c, 0, 45, 37
1, 83520, Note_on_c, 0, 50, 33
1, 83520, Note_on_c, 0, 54, 37
1, 83520, Note_on_c, 0, 26, 27
1, 83520, Note_on_c, 0, 38, 31
1, 83573, Control_c, 0, 64, 127
1, 84000, Note_on_c, 0, 38, 0
1, 84000, Note_on_c, 0, 54, 0
1, 84000, Note_on_c, 0, 45, 0
1, 84000, Note_on_c, 0, 50, 0
1, 84000, Note_on_c, 0, 26, 0
1, 84053, Control_c, 0, 64, 0
1, 84480, Note_on_c, 0, 50, 33
1, 84480, Note_on_c, 0, 26, 22
1, 84480, Note_on_c, 0, 38, 25
1, 84667, Control_c, 0, 64, 127
1, 85440, Note_on_c, 0, 38, 0
1, 85440, Note_on_c, 0, 26, 0
1, 85440, Note_on_c, 0, 50, 0
1, 85627, Control_c, 0, 64, 0
1, 86400, Tempo, 545455
1, 86400, End_track
0, 0, End_of_file
