0, 0, Header, 0, 1, 480
1, 0, Start_track
1, 0, Title_t, "Etueden Opus 109"
1, 0, Title_t, "Die Perlen"
1, 0, Copyright_t, "Copyright © 2000 by Bernd Krueger"
1, 0, Text_t, "Friedrich Buergmueller"
1, 0, Text_t, "Moderato"
1, 0, Text_t, "Erstellt am 8.9.2000\012"
1, 0, Text_t, "Normierung: 23.12.2002\012"
1, 0, Text_t, "Update: 3.3.2012\012"
1, 0, Text_t, "Dauer: 1:27 Minuten\012"
1, 0, SMPTE_offset, 96, 0, 3, 0, 0
1, 0, Time_signature, 3, 2, 24, 8
1, 0, Key_signature, 0, "major"
1, 0, Tempo, 714286
1, 0, Program_c, 0, 0
1, 0, Control_c, 0, 7, 127
1, 0, Control_c, 0, 10, 64
1, 0, Note_on_c, 0, 76, 42
1, 0, Control_c, 0, 91, 127
1, 0, Text_t, "bdca426d104a26ac9dcb070447587523"
1, 0, Program_c, 0, 0
1, 0, Control_c, 0, 7, 127
1, 0, Control_c, 0, 10, 64
1, 0, Note_on_c, 0, 36, 30
1, 0, Note_on_c, 0, 48, 37
1, 11, Control_c, 0, 64, 127
1, 120, Note_on_c, 0, 76, 0
1, 120, Note_on_c, 0, 77, 39
1, 180, Note_on_c, 0, 79, 39
1, 190, Note_on_c, 0, 77, 0
1, 240, Tempo, 710059
1, 240, Note_on_c, 0, 81, 40
1, 250, Note_on_c, 0, 79, 0
1, 300, Tempo, 714286
1, 300, Note_on_c, 0, 83, 40
1, 310, Note_on_c, 0, 81, 0
1, 340, Tempo, 718563
1, 360, Note_on_c, 0, 84, 41
1, 370, Note_on_c, 0, 83, 0
1, 400, Tempo, 722892
1, 420, Note_on_c, 0, 86, 42
1, 430, Note_on_c, 0, 84, 0
1, 440, Tempo, 727273
1, 480, Tempo, 779221
1, 480, Note_on_c, 0, 36, 0
1, 480, Note_on_c, 0, 48, 0
1, 480, Note_on_c, 0, 88, 49
1, 480, Note_on_c, 0, 64, 33
1, 480, Note_on_c, 0, 60, 28
1, 480, Note_on_c, 0, 55, 28
1, 490, Note_on_c, 0, 86, 0
1, 491, Control_c, 0, 64, 0
1, 510, Note_on_c, 0, 88, 0
1, 522, Control_c, 0, 64, 127
1, 540, Tempo, 714286
1, 540, Note_on_c, 0, 88, 42
1, 600, Note_on_c, 0, 89, 42
1, 610, Note_on_c, 0, 88, 0
1, 660, Note_on_c, 0, 91, 44
1, 670, Note_on_c, 0, 89, 0
1, 720, Tempo, 714286
1, 720, Note_on_c, 0, 93, 45
1, 730, Note_on_c, 0, 91, 0
1, 740, Tempo, 718563
1, 780, Tempo, 722892
1, 780, Note_on_c, 0, 95, 46
1, 790, Note_on_c, 0, 93, 0
1, 800, Tempo, 727273
1, 840, Tempo, 731707
1, 840, Note_on_c, 0, 96, 48
1, 850, Note_on_c, 0, 95, 0
1, 860, Tempo, 736196
1, 900, Tempo, 740741
1, 900, Note_on_c, 0, 98, 49
1, 910, Note_on_c, 0, 96, 0
1, 920, Tempo, 745342
1, 940, Tempo, 740741
1, 960, Tempo, 769231
1, 960, Note_on_c, 0, 60, 0
1, 960, Note_on_c, 0, 55, 0
1, 960, Note_on_c, 0, 64, 0
1, 960, Note_on_c, 0, 100, 51
1, 960, Note_on_c, 0, 64, 31
1, 960, Note_on_c, 0, 60, 26
1, 960, Note_on_c, 0, 55, 26
1, 969, Control_c, 0, 64, 0
1, 970, Note_on_c, 0, 98, 0
1, 1002, Control_c, 0, 64, 127
1, 1030, Note_on_c, 0, 100, 0
1, 1076, Control_c, 0, 64, 0
1, 1200, Tempo, 736196
1, 1200, Note_on_c, 0, 76, 42
1, 1232, Control_c, 0, 64, 127
1, 1440, Tempo, 714286
1, 1440, Note_on_c, 0, 76, 0
1, 1440, Note_on_c, 0, 55, 0
1, 1440, Note_on_c, 0, 64, 0
1, 1440, Note_on_c, 0, 60, 0
1, 1440, Note_on_c, 0, 79, 42
1, 1440, Note_on_c, 0, 36, 30
1, 1440, Note_on_c, 0, 48, 37
1, 1560, Note_on_c, 0, 79, 0
1, 1560, Note_on_c, 0, 81, 39
1, 1620, Note_on_c, 0, 83, 39
1, 1630, Note_on_c, 0, 81, 0
1, 1680, Tempo, 710059
1, 1680, Note_on_c, 0, 84, 40
1, 1690, Note_on_c, 0, 83, 0
1, 1740, Tempo, 714286
1, 1740, Note_on_c, 0, 86, 40
1, 1750, Note_on_c, 0, 84, 0
1, 1780, Tempo, 718563
1, 1800, Note_on_c, 0, 88, 41
1, 1810, Note_on_c, 0, 86, 0
1, 1840, Tempo, 722892
1, 1860, Note_on_c, 0, 89, 42
1, 1870, Note_on_c, 0, 88, 0
1, 1880, Tempo, 727273
1, 1920, Tempo, 779221
1, 1920, Note_on_c, 0, 36, 0
1, 1920, Note_on_c, 0, 48, 0
1, 1920, Note_on_c, 0, 91, 49
1, 1920, Note_on_c, 0, 64, 33
1, 1920, Note_on_c, 0, 60, 28
1, 1920, Note_on_c, 0, 55, 28
1, 1930, Note_on_c, 0, 89, 0
1, 1931, Control_c, 0, 64, 0
1, 1950, Note_on_c, 0, 91, 0
1, 1980, Tempo, 714286
1, 1980, Note_on_c, 0, 91, 41
1, 1980, Control_c, 0, 64, 127
1, 2040, Note_on_c, 0, 93, 42
1, 2050, Note_on_c, 0, 91, 0
1, 2100, Note_on_c, 0, 95, 42
1, 2110, Note_on_c, 0, 93, 0
1, 2160, Tempo, 714286
1, 2160, Note_on_c, 0, 96, 44
1, 2170, Note_on_c, 0, 95, 0
1, 2180, Tempo, 718563
1, 2220, Tempo, 722892
1, 2220, Note_on_c, 0, 98, 45
1, 2230, Note_on_c, 0, 96, 0
1, 2240, Tempo, 727273
1, 2280, Tempo, 731707
1, 2280, Note_on_c, 0, 100, 48
1, 2290, Note_on_c, 0, 98, 0
1, 2300, Tempo, 736196
1, 2340, Tempo, 740741
1, 2340, Note_on_c, 0, 101, 49
1, 2350, Note_on_c, 0, 100, 0
1, 2360, Tempo, 745342
1, 2380, Tempo, 740741
1, 2400, Tempo, 769231
1, 2400, Note_on_c, 0, 60, 0
1, 2400, Note_on_c, 0, 55, 0
1, 2400, Note_on_c, 0, 64, 0
1, 2400, Note_on_c, 0, 103, 51
1, 2400, Note_on_c, 0, 64, 31
1, 2400, Note_on_c, 0, 60, 26
1, 2400, Note_on_c, 0, 55, 26
1, 2410, Note_on_c, 0, 101, 0
1, 2412, Control_c, 0, 64, 0
1, 2446, Control_c, 0, 64, 127
1, 2470, Note_on_c, 0, 103, 0
1, 2619, Control_c, 0, 64, 0
1, 2640, Tempo, 727273
1, 2640, Note_on_c, 0, 72, 42
1, 2721, Control_c, 0, 64, 127
1, 2880, Tempo, 714286
1, 2880, Note_on_c, 0, 72, 0
1, 2880, Note_on_c, 0, 55, 0
1, 2880, Note_on_c, 0, 64, 0
1, 2880, Note_on_c, 0, 60, 0
1, 2880, Note_on_c, 0, 74, 42
1, 2880, Note_on_c, 0, 31, 30
1, 2880, Note_on_c, 0, 43, 37
1, 3000, Note_on_c, 0, 74, 0
1, 3000, Note_on_c, 0, 76, 39
1, 3060, Note_on_c, 0, 77, 39
1, 3070, Note_on_c, 0, 76, 0
1, 3120, Tempo, 710059
1, 3120, Note_on_c, 0, 79, 40
1, 3130, Note_on_c, 0, 77, 0
1, 3180, Tempo, 714286
1, 3180, Note_on_c, 0, 81, 40
1, 3190, Note_on_c, 0, 79, 0
1, 3220, Tempo, 718563
1, 3240, Note_on_c, 0, 83, 41
1, 3250, Note_on_c, 0, 81, 0
1, 3280, Tempo, 722892
1, 3300, Note_on_c, 0, 84, 42
1, 3310, Note_on_c, 0, 83, 0
1, 3320, Tempo, 727273
1, 3360, Tempo, 779221
1, 3360, Note_on_c, 0, 31, 0
1, 3360, Note_on_c, 0, 43, 0
1, 3360, Note_on_c, 0, 86, 49
1, 3360, Note_on_c, 0, 65, 33
1, 3360, Note_on_c, 0, 59, 28
1, 3360, Note_on_c, 0, 55, 28
1, 3370, Note_on_c, 0, 84, 0
1, 3370, Control_c, 0, 64, 0
1, 3390, Note_on_c, 0, 86, 0
1, 3402, Control_c, 0, 64, 127
1, 3420, Tempo, 714286
1, 3420, Note_on_c, 0, 86, 42
1, 3480, Note_on_c, 0, 88, 44
1, 3490, Note_on_c, 0, 86, 0
1, 3540, Note_on_c, 0, 89, 45
1, 3550, Note_on_c, 0, 88, 0
1, 3600, Tempo, 714286
1, 3600, Note_on_c, 0, 91, 46
1, 3610, Note_on_c, 0, 89, 0
1, 3620, Tempo, 718563
1, 3660, Tempo, 722892
1, 3660, Note_on_c, 0, 93, 48
1, 3670, Note_on_c, 0, 91, 0
1, 3680, Tempo, 727273
1, 3720, Tempo, 731707
1, 3720, Note_on_c, 0, 95, 49
1, 3730, Note_on_c, 0, 93, 0
1, 3740, Tempo, 736196
1, 3780, Tempo, 740741
1, 3780, Note_on_c, 0, 96, 50
1, 3790, Note_on_c, 0, 95, 0
1, 3800, Tempo, 745342
1, 3820, Tempo, 740741
1, 3840, Tempo, 750000
1, 3840, Note_on_c, 0, 59, 0
1, 3840, Note_on_c, 0, 55, 0
1, 3840, Note_on_c, 0, 65, 0
1, 3840, Note_on_c, 0, 98, 51
1, 3840, Note_on_c, 0, 65, 31
1, 3840, Note_on_c, 0, 59, 26
1, 3840, Note_on_c, 0, 55, 26
1, 3844, Control_c, 0, 64, 0
1, 3850, Note_on_c, 0, 96, 0
1, 3882, Control_c, 0, 64, 127
1, 3910, Note_on_c, 0, 98, 0
1, 3921, Control_c, 0, 64, 0
1, 4080, Tempo, 722892
1, 4080, Note_on_c, 0, 76, 42
1, 4158, Control_c, 0, 64, 127
1, 4320, Tempo, 714286
1, 4320, Note_on_c, 0, 76, 0
1, 4320, Note_on_c, 0, 55, 0
1, 4320, Note_on_c, 0, 65, 0
1, 4320, Note_on_c, 0, 59, 0
1, 4320, Note_on_c, 0, 72, 42
1, 4320, Note_on_c, 0, 36, 30
1, 4320, Note_on_c, 0, 48, 37
1, 4440, Note_on_c, 0, 72, 0
1, 4440, Note_on_c, 0, 74, 39
1, 4500, Note_on_c, 0, 76, 39
1, 4510, Note_on_c, 0, 74, 0
1, 4560, Tempo, 710059
1, 4560, Note_on_c, 0, 77, 40
1, 4570, Note_on_c, 0, 76, 0
1, 4620, Tempo, 714286
1, 4620, Note_on_c, 0, 79, 40
1, 4630, Note_on_c, 0, 77, 0
1, 4660, Tempo, 718563
1, 4680, Note_on_c, 0, 81, 41
1, 4690, Note_on_c, 0, 79, 0
1, 4720, Tempo, 722892
1, 4740, Note_on_c, 0, 83, 42
1, 4750, Note_on_c, 0, 81, 0
1, 4760, Tempo, 727273
1, 4800, Tempo, 779221
1, 4800, Note_on_c, 0, 36, 0
1, 4800, Note_on_c, 0, 48, 0
1, 4800, Note_on_c, 0, 84, 45
1, 4800, Note_on_c, 0, 64, 33
1, 4800, Note_on_c, 0, 60, 28
1, 4800, Note_on_c, 0, 55, 28
1, 4810, Note_on_c, 0, 83, 0
1, 4811, Control_c, 0, 64, 0
1, 4830, Note_on_c, 0, 84, 0
1, 4846, Control_c, 0, 64, 127
1, 4860, Tempo, 714286
1, 4860, Note_on_c, 0, 84, 39
1, 4920, Note_on_c, 0, 86, 40
1, 4930, Note_on_c, 0, 84, 0
1, 4980, Note_on_c, 0, 88, 40
1, 4990, Note_on_c, 0, 86, 0
1, 5040, Tempo, 714286
1, 5040, Note_on_c, 0, 89, 41
1, 5050, Note_on_c, 0, 88, 0
1, 5060, Tempo, 718563
1, 5100, Tempo, 722892
1, 5100, Note_on_c, 0, 91, 42
1, 5110, Note_on_c, 0, 89, 0
1, 5120, Tempo, 727273
1, 5160, Tempo, 731707
1, 5160, Note_on_c, 0, 93, 42
1, 5170, Note_on_c, 0, 91, 0
1, 5180, Tempo, 736196
1, 5220, Tempo, 740741
1, 5220, Note_on_c, 0, 95, 44
1, 5230, Note_on_c, 0, 93, 0
1, 5240, Tempo, 745342
1, 5260, Tempo, 740741
1, 5280, Tempo, 750000
1, 5280, Note_on_c, 0, 60, 0
1, 5280, Note_on_c, 0, 55, 0
1, 5280, Note_on_c, 0, 64, 0
1, 5280, Note_on_c, 0, 96, 46
1, 5280, Note_on_c, 0, 64, 31
1, 5280, Note_on_c, 0, 60, 26
1, 5280, Note_on_c, 0, 55, 26
1, 5289, Control_c, 0, 64, 0
1, 5290, Note_on_c, 0, 95, 0
1, 5340, Control_c, 0, 64, 127
1, 5350, Note_on_c, 0, 96, 0
1, 5421, Control_c, 0, 64, 0
1, 5520, Tempo, 722892
1, 5520, Note_on_c, 0, 72, 59
1, 5552, Control_c, 0, 64, 127
1, 5760, Tempo, 714286
1, 5760, Note_on_c, 0, 72, 0
1, 5760, Note_on_c, 0, 55, 0
1, 5760, Note_on_c, 0, 64, 0
1, 5760, Note_on_c, 0, 60, 0
1, 5760, Note_on_c, 0, 69, 60
1, 5760, Note_on_c, 0, 36, 42
1, 5760, Note_on_c, 0, 48, 53
1, 5880, Note_on_c, 0, 69, 0
1, 5880, Note_on_c, 0, 71, 56
1, 5940, Note_on_c, 0, 72, 56
1, 5950, Note_on_c, 0, 71, 0
1, 6000, Tempo, 710059
1, 6000, Note_on_c, 0, 74, 58
1, 6010, Note_on_c, 0, 72, 0
1, 6060, Tempo, 714286
1, 6060, Note_on_c, 0, 76, 58
1, 6070, Note_on_c, 0, 74, 0
1, 6100, Tempo, 718563
1, 6120, Note_on_c, 0, 77, 59
1, 6130, Note_on_c, 0, 76, 0
1, 6160, Tempo, 722892
1, 6180, Note_on_c, 0, 79, 61
1, 6190, Note_on_c, 0, 77, 0
1, 6200, Tempo, 727273
1, 6240, Tempo, 779221
1, 6240, Note_on_c, 0, 36, 0
1, 6240, Note_on_c, 0, 48, 0
1, 6240, Note_on_c, 0, 81, 64
1, 6240, Note_on_c, 0, 65, 47
1, 6240, Note_on_c, 0, 60, 39
1, 6240, Note_on_c, 0, 57, 39
1, 6250, Note_on_c, 0, 79, 0
1, 6252, Control_c, 0, 64, 0
1, 6270, Note_on_c, 0, 81, 0
1, 6289, Control_c, 0, 64, 127
1, 6300, Tempo, 714286
1, 6300, Note_on_c, 0, 81, 56
1, 6360, Note_on_c, 0, 83, 58
1, 6370, Note_on_c, 0, 81, 0
1, 6420, Note_on_c, 0, 84, 58
1, 6430, Note_on_c, 0, 83, 0
1, 6480, Tempo, 714286
1, 6480, Note_on_c, 0, 86, 59
1, 6490, Note_on_c, 0, 84, 0
1, 6500, Tempo, 718563
1, 6540, Tempo, 722892
1, 6540, Note_on_c, 0, 88, 60
1, 6550, Note_on_c, 0, 86, 0
1, 6560, Tempo, 727273
1, 6600, Tempo, 731707
1, 6600, Note_on_c, 0, 89, 61
1, 6610, Note_on_c, 0, 88, 0
1, 6620, Tempo, 736196
1, 6660, Tempo, 740741
1, 6660, Note_on_c, 0, 91, 62
1, 6670, Note_on_c, 0, 89, 0
1, 6680, Tempo, 745342
1, 6700, Tempo, 740741
1, 6720, Tempo, 727273
1, 6720, Note_on_c, 0, 60, 0
1, 6720, Note_on_c, 0, 57, 0
1, 6720, Note_on_c, 0, 65, 0
1, 6720, Note_on_c, 0, 93, 67
1, 6720, Note_on_c, 0, 65, 45
1, 6720, Note_on_c, 0, 60, 37
1, 6720, Note_on_c, 0, 57, 37
1, 6730, Note_on_c, 0, 91, 0
1, 6731, Control_c, 0, 64, 0
1, 6764, Control_c, 0, 64, 127
1, 6790, Note_on_c, 0, 93, 0
1, 6893, Control_c, 0, 64, 0
1, 6960, Tempo, 722892
1, 6960, Note_on_c, 0, 72, 56
1, 6992, Control_c, 0, 64, 127
1, 7200, Tempo, 714286
1, 7200, Note_on_c, 0, 72, 0
1, 7200, Note_on_c, 0, 57, 0
1, 7200, Note_on_c, 0, 65, 0
1, 7200, Note_on_c, 0, 60, 0
1, 7200, Note_on_c, 0, 67, 55
1, 7200, Note_on_c, 0, 36, 37
1, 7200, Note_on_c, 0, 48, 47
1, 7320, Note_on_c, 0, 67, 0
1, 7320, Note_on_c, 0, 69, 49
1, 7380, Note_on_c, 0, 71, 49
1, 7390, Note_on_c, 0, 69, 0
1, 7440, Tempo, 710059
1, 7440, Note_on_c, 0, 72, 50
1, 7450, Note_on_c, 0, 71, 0
1, 7500, Tempo, 714286
1, 7500, Note_on_c, 0, 74, 50
1, 7510, Note_on_c, 0, 72, 0
1, 7540, Tempo, 718563
1, 7560, Note_on_c, 0, 76, 51
1, 7570, Note_on_c, 0, 74, 0
1, 7600, Tempo, 722892
1, 7620, Note_on_c, 0, 77, 55
1, 7630, Note_on_c, 0, 76, 0
1, 7640, Tempo, 727273
1, 7680, Tempo, 779221
1, 7680, Note_on_c, 0, 36, 0
1, 7680, Note_on_c, 0, 48, 0
1, 7680, Note_on_c, 0, 79, 58
1, 7680, Note_on_c, 0, 64, 42
1, 7680, Note_on_c, 0, 60, 35
1, 7680, Note_on_c, 0, 55, 35
1, 7690, Note_on_c, 0, 77, 0
1, 7690, Control_c, 0, 64, 0
1, 7710, Note_on_c, 0, 79, 0
1, 7722, Control_c, 0, 64, 127
1, 7740, Tempo, 714286
1, 7740, Note_on_c, 0, 79, 49
1, 7800, Note_on_c, 0, 81, 50
1, 7810, Note_on_c, 0, 79, 0
1, 7860, Note_on_c, 0, 83, 50
1, 7870, Note_on_c, 0, 81, 0
1, 7920, Tempo, 714286
1, 7920, Note_on_c, 0, 84, 51
1, 7930, Note_on_c, 0, 83, 0
1, 7940, Tempo, 718563
1, 7980, Tempo, 722892
1, 7980, Note_on_c, 0, 86, 55
1, 7990, Note_on_c, 0, 84, 0
1, 8000, Tempo, 727273
1, 8040, Tempo, 731707
1, 8040, Note_on_c, 0, 88, 55
1, 8050, Note_on_c, 0, 86, 0
1, 8060, Tempo, 736196
1, 8100, Tempo, 740741
1, 8100, Note_on_c, 0, 89, 56
1, 8110, Note_on_c, 0, 88, 0
1, 8120, Tempo, 745342
1, 8140, Tempo, 740741
1, 8160, Tempo, 750000
1, 8160, Note_on_c, 0, 60, 0
1, 8160, Note_on_c, 0, 55, 0
1, 8160, Note_on_c, 0, 64, 0
1, 8160, Note_on_c, 0, 91, 59
1, 8160, Note_on_c, 0, 64, 39
1, 8160, Note_on_c, 0, 60, 33
1, 8160, Note_on_c, 0, 55, 33
1, 8170, Note_on_c, 0, 89, 0
1, 8172, Control_c, 0, 64, 0
1, 8209, Control_c, 0, 64, 127
1, 8230, Note_on_c, 0, 91, 0
1, 8294, Control_c, 0, 64, 0
1, 8400, Tempo, 718563
1, 8400, Note_on_c, 0, 72, 50
1, 8432, Control_c, 0, 64, 127
1, 8640, Tempo, 714286
1, 8640, Note_on_c, 0, 72, 0
1, 8640, Note_on_c, 0, 55, 0
1, 8640, Note_on_c, 0, 64, 0
1, 8640, Note_on_c, 0, 60, 0
1, 8640, Note_on_c, 0, 74, 50
1, 8640, Note_on_c, 0, 31, 36
1, 8640, Note_on_c, 0, 43, 44
1, 8760, Note_on_c, 0, 74, 0
1, 8760, Note_on_c, 0, 76, 46
1, 8820, Note_on_c, 0, 77, 46
1, 8830, Note_on_c, 0, 76, 0
1, 8880, Tempo, 710059
1, 8880, Note_on_c, 0, 79, 47
1, 8890, Note_on_c, 0, 77, 0
1, 8940, Tempo, 714286
1, 8940, Note_on_c, 0, 81, 47
1, 8950, Note_on_c, 0, 79, 0
1, 8980, Tempo, 718563
1, 9000, Note_on_c, 0, 83, 49
1, 9010, Note_on_c, 0, 81, 0
1, 9040, Tempo, 722892
1, 9060, Note_on_c, 0, 84, 51
1, 9070, Note_on_c, 0, 83, 0
1, 9080, Tempo, 727273
1, 9120, Tempo, 779221
1, 9120, Note_on_c, 0, 31, 0
1, 9120, Note_on_c, 0, 43, 0
1, 9120, Note_on_c, 0, 86, 59
1, 9120, Note_on_c, 0, 65, 39
1, 9120, Note_on_c, 0, 59, 34
1, 9120, Note_on_c, 0, 55, 34
1, 9130, Note_on_c, 0, 84, 0
1, 9131, Control_c, 0, 64, 0
1, 9150, Note_on_c, 0, 86, 0
1, 9173, Control_c, 0, 64, 127
1, 9180, Tempo, 714286
1, 9180, Note_on_c, 0, 86, 51
1, 9240, Note_on_c, 0, 88, 53
1, 9250, Note_on_c, 0, 86, 0
1, 9300, Note_on_c, 0, 89, 55
1, 9310, Note_on_c, 0, 88, 0
1, 9360, Tempo, 714286
1, 9360, Note_on_c, 0, 91, 56
1, 9370, Note_on_c, 0, 89, 0
1, 9380, Tempo, 718563
1, 9420, Tempo, 722892
1, 9420, Note_on_c, 0, 93, 58
1, 9430, Note_on_c, 0, 91, 0
1, 9440, Tempo, 727273
1, 9480, Tempo, 731707
1, 9480, Note_on_c, 0, 95, 59
1, 9490, Note_on_c, 0, 93, 0
1, 9500, Tempo, 736196
1, 9540, Tempo, 740741
1, 9540, Note_on_c, 0, 96, 59
1, 9550, Note_on_c, 0, 95, 0
1, 9560, Tempo, 745342
1, 9580, Tempo, 740741
1, 9600, Tempo, 750000
1, 9600, Note_on_c, 0, 59, 0
1, 9600, Note_on_c, 0, 55, 0
1, 9600, Note_on_c, 0, 65, 0
1, 9600, Note_on_c, 0, 98, 60
1, 9600, Note_on_c, 0, 65, 37
1, 9600, Note_on_c, 0, 59, 29
1, 9600, Note_on_c, 0, 55, 29
1, 9610, Note_on_c, 0, 96, 0
1, 9610, Control_c, 0, 64, 0
1, 9643, Control_c, 0, 64, 127
1, 9670, Note_on_c, 0, 98, 0
1, 9681, Control_c, 0, 64, 0
1, 9840, Tempo, 722892
1, 9840, Note_on_c, 0, 76, 49
1, 9872, Control_c, 0, 64, 127
1, 10080, Tempo, 714286
1, 10080, Note_on_c, 0, 76, 0
1, 10080, Note_on_c, 0, 55, 0
1, 10080, Note_on_c, 0, 65, 0
1, 10080, Note_on_c, 0, 59, 0
1, 10080, Note_on_c, 0, 72, 49
1, 10080, Note_on_c, 0, 36, 35
1, 10080, Note_on_c, 0, 48, 42
1, 10200, Note_on_c, 0, 72, 0
1, 10200, Note_on_c, 0, 74, 45
1, 10260, Note_on_c, 0, 76, 45
1, 10270, Note_on_c, 0, 74, 0
1, 10320, Tempo, 710059
1, 10320, Note_on_c, 0, 77, 46
1, 10330, Note_on_c, 0, 76, 0
1, 10380, Tempo, 714286
1, 10380, Note_on_c, 0, 79, 46
1, 10390, Note_on_c, 0, 77, 0
1, 10420, Tempo, 718563
1, 10440, Note_on_c, 0, 81, 47
1, 10450, Note_on_c, 0, 79, 0
1, 10480, Tempo, 722892
1, 10500, Note_on_c, 0, 83, 49
1, 10510, Note_on_c, 0, 81, 0
1, 10520, Tempo, 727273
1, 10560, Tempo, 779221
1, 10560, Note_on_c, 0, 36, 0
1, 10560, Note_on_c, 0, 48, 0
1, 10560, Note_on_c, 0, 84, 51
1, 10560, Note_on_c, 0, 64, 38
1, 10560, Note_on_c, 0, 60, 33
1, 10560, Note_on_c, 0, 55, 33
1, 10569, Control_c, 0, 64, 0
1, 10570, Note_on_c, 0, 83, 0
1, 10590, Note_on_c, 0, 84, 0
1, 10602, Control_c, 0, 64, 127
1, 10620, Tempo, 714286
1, 10620, Note_on_c, 0, 84, 45
1, 10680, Note_on_c, 0, 86, 46
1, 10690, Note_on_c, 0, 84, 0
1, 10740, Note_on_c, 0, 88, 46
1, 10750, Note_on_c, 0, 86, 0
1, 10800, Tempo, 722892
1, 10800, Note_on_c, 0, 89, 47
1, 10810, Note_on_c, 0, 88, 0
1, 10840, Tempo, 727273
1, 10860, Tempo, 731707
1, 10860, Note_on_c, 0, 91, 49
1, 10870, Note_on_c, 0, 89, 0
1, 10880, Tempo, 736196
1, 10900, Tempo, 740741
1, 10920, Tempo, 745342
1, 10920, Note_on_c, 0, 93, 49
1, 10930, Note_on_c, 0, 91, 0
1, 10960, Tempo, 750000
1, 10980, Tempo, 754717
1, 10980, Note_on_c, 0, 95, 50
1, 10990, Note_on_c, 0, 93, 0
1, 11000, Tempo, 759494
1, 11020, Tempo, 764331
1, 11040, Tempo, 769231
1, 11040, Note_on_c, 0, 60, 0
1, 11040, Note_on_c, 0, 55, 0
1, 11040, Note_on_c, 0, 64, 0
1, 11040, Note_on_c, 0, 96, 53
1, 11040, Note_on_c, 0, 64, 36
1, 11040, Note_on_c, 0, 60, 29
1, 11040, Note_on_c, 0, 55, 29
1, 11050, Note_on_c, 0, 95, 0
1, 11051, Control_c, 0, 64, 0
1, 11100, Control_c, 0, 64, 127
1, 11110, Note_on_c, 0, 96, 0
1, 11167, Control_c, 0, 64, 0
1, 11520, Tempo, 714286
1, 11520, Note_on_c, 0, 60, 0
1, 11520, Note_on_c, 0, 64, 0
1, 11520, Note_on_c, 0, 55, 0
1, 11520, Note_on_c, 0, 76, 42
1, 11520, Note_on_c, 0, 36, 30
1, 11520, Note_on_c, 0, 48, 37
1, 11573, Control_c, 0, 64, 127
1, 11640, Note_on_c, 0, 76, 0
1, 11640, Note_on_c, 0, 77, 39
1, 11700, Note_on_c, 0, 79, 39
1, 11710, Note_on_c, 0, 77, 0
1, 11760, Tempo, 710059
1, 11760, Note_on_c, 0, 81, 40
1, 11770, Note_on_c, 0, 79, 0
1, 11820, Tempo, 714286
1, 11820, Note_on_c, 0, 83, 40
1, 11830, Note_on_c, 0, 81, 0
1, 11860, Tempo, 718563
1, 11880, Note_on_c, 0, 84, 41
1, 11890, Note_on_c, 0, 83, 0
1, 11920, Tempo, 722892
1, 11940, Note_on_c, 0, 86, 42
1, 11950, Note_on_c, 0, 84, 0
1, 11960, Tempo, 727273
1, 12000, Tempo, 779221
1, 12000, Note_on_c, 0, 36, 0
1, 12000, Note_on_c, 0, 48, 0
1, 12000, Note_on_c, 0, 88, 49
1, 12000, Note_on_c, 0, 64, 33
1, 12000, Note_on_c, 0, 60, 28
1, 12000, Note_on_c, 0, 55, 28
1, 12009, Control_c, 0, 64, 0
1, 12010, Note_on_c, 0, 86, 0
1, 12030, Note_on_c, 0, 88, 0
1, 12039, Control_c, 0, 64, 127
1, 12060, Tempo, 714286
1, 12060, Note_on_c, 0, 88, 42
1, 12120, Note_on_c, 0, 89, 42
1, 12130, Note_on_c, 0, 88, 0
1, 12180, Note_on_c, 0, 91, 44
1, 12190, Note_on_c, 0, 89, 0
1, 12240, Tempo, 714286
1, 12240, Note_on_c, 0, 93, 45
1, 12250, Note_on_c, 0, 91, 0
1, 12260, Tempo, 718563
1, 12300, Tempo, 722892
1, 12300, Note_on_c, 0, 95, 46
1, 12310, Note_on_c, 0, 93, 0
1, 12320, Tempo, 727273
1, 12360, Tempo, 731707
1, 12360, Note_on_c, 0, 96, 48
1, 12370, Note_on_c, 0, 95, 0
1, 12380, Tempo, 736196
1, 12420, Tempo, 740741
1, 12420, Note_on_c, 0, 98, 49
1, 12430, Note_on_c, 0, 96, 0
1, 12440, Tempo, 745342
1, 12460, Tempo, 740741
1, 12480, Tempo, 769231
1, 12480, Note_on_c, 0, 60, 0
1, 12480, Note_on_c, 0, 55, 0
1, 12480, Note_on_c, 0, 64, 0
1, 12480, Note_on_c, 0, 100, 51
1, 12480, Note_on_c, 0, 64, 31
1, 12480, Note_on_c, 0, 60, 26
1, 12480, Note_on_c, 0, 55, 26
1, 12490, Note_on_c, 0, 98, 0
1, 12490, Control_c, 0, 64, 0
1, 12526, Control_c, 0, 64, 127
1, 12550, Note_on_c, 0, 100, 0
1, 12596, Control_c, 0, 64, 0
1, 12720, Tempo, 718563
1, 12720, Note_on_c, 0, 76, 42
1, 12752, Control_c, 0, 64, 127
1, 12960, Tempo, 714286
1, 12960, Note_on_c, 0, 76, 0
1, 12960, Note_on_c, 0, 55, 0
1, 12960, Note_on_c, 0, 64, 0
1, 12960, Note_on_c, 0, 60, 0
1, 12960, Note_on_c, 0, 79, 42
1, 12960, Note_on_c, 0, 36, 30
1, 12960, Note_on_c, 0, 48, 37
1, 13080, Note_on_c, 0, 79, 0
1, 13080, Note_on_c, 0, 81, 39
1, 13140, Note_on_c, 0, 83, 39
1, 13150, Note_on_c, 0, 81, 0
1, 13200, Tempo, 710059
1, 13200, Note_on_c, 0, 84, 40
1, 13210, Note_on_c, 0, 83, 0
1, 13260, Tempo, 714286
1, 13260, Note_on_c, 0, 86, 40
1, 13270, Note_on_c, 0, 84, 0
1, 13300, Tempo, 718563
1, 13320, Note_on_c, 0, 88, 41
1, 13330, Note_on_c, 0, 86, 0
1, 13360, Tempo, 722892
1, 13380, Note_on_c, 0, 89, 42
1, 13390, Note_on_c, 0, 88, 0
1, 13400, Tempo, 727273
1, 13440, Tempo, 779221
1, 13440, Note_on_c, 0, 36, 0
1, 13440, Note_on_c, 0, 48, 0
1, 13440, Note_on_c, 0, 91, 49
1, 13440, Note_on_c, 0, 64, 33
1, 13440, Note_on_c, 0, 60, 28
1, 13440, Note_on_c, 0, 55, 28
1, 13450, Note_on_c, 0, 89, 0
1, 13451, Control_c, 0, 64, 0
1, 13470, Note_on_c, 0, 91, 0
1, 13486, Control_c, 0, 64, 127
1, 13500, Tempo, 714286
1, 13500, Note_on_c, 0, 91, 41
1, 13560, Note_on_c, 0, 93, 42
1, 13570, Note_on_c, 0, 91, 0
1, 13620, Note_on_c, 0, 95, 42
1, 13630, Note_on_c, 0, 93, 0
1, 13680, Tempo, 714286
1, 13680, Note_on_c, 0, 96, 44
1, 13690, Note_on_c, 0, 95, 0
1, 13700, Tempo, 718563
1, 13740, Tempo, 722892
1, 13740, Note_on_c, 0, 98, 45
1, 13750, Note_on_c, 0, 96, 0
1, 13760, Tempo, 727273
1, 13800, Tempo, 731707
1, 13800, Note_on_c, 0, 100, 48
1, 13810, Note_on_c, 0, 98, 0
1, 13820, Tempo, 736196
1, 13860, Tempo, 740741
1, 13860, Note_on_c, 0, 101, 49
1, 13870, Note_on_c, 0, 100, 0
1, 13880, Tempo, 745342
1, 13900, Tempo, 740741
1, 13920, Tempo, 769231
1, 13920, Note_on_c, 0, 60, 0
1, 13920, Note_on_c, 0, 55, 0
1, 13920, Note_on_c, 0, 64, 0
1, 13920, Note_on_c, 0, 103, 51
1, 13920, Note_on_c, 0, 64, 31
1, 13920, Note_on_c, 0, 60, 26
1, 13920, Note_on_c, 0, 55, 26
1, 13930, Note_on_c, 0, 101, 0
1, 13931, Control_c, 0, 64, 0
1, 13966, Control_c, 0, 64, 127
1, 13990, Note_on_c, 0, 103, 0
1, 14139, Control_c, 0, 64, 0
1, 14160, Tempo, 727273
1, 14160, Note_on_c, 0, 72, 42
1, 14217, Control_c, 0, 64, 127
1, 14400, Tempo, 714286
1, 14400, Note_on_c, 0, 72, 0
1, 14400, Note_on_c, 0, 55, 0
1, 14400, Note_on_c, 0, 64, 0
1, 14400, Note_on_c, 0, 60, 0
1, 14400, Note_on_c, 0, 74, 42
1, 14400, Note_on_c, 0, 31, 30
1, 14400, Note_on_c, 0, 43, 37
1, 14520, Note_on_c, 0, 74, 0
1, 14520, Note_on_c, 0, 76, 39
1, 14580, Note_on_c, 0, 77, 39
1, 14590, Note_on_c, 0, 76, 0
1, 14640, Tempo, 710059
1, 14640, Note_on_c, 0, 79, 40
1, 14650, Note_on_c, 0, 77, 0
1, 14700, Tempo, 714286
1, 14700, Note_on_c, 0, 81, 40
1, 14710, Note_on_c, 0, 79, 0
1, 14740, Tempo, 718563
1, 14760, Note_on_c, 0, 83, 41
1, 14770, Note_on_c, 0, 81, 0
1, 14800, Tempo, 722892
1, 14820, Note_on_c, 0, 84, 42
1, 14830, Note_on_c, 0, 83, 0
1, 14840, Tempo, 727273
1, 14880, Tempo, 779221
1, 14880, Note_on_c, 0, 31, 0
1, 14880, Note_on_c, 0, 43, 0
1, 14880, Note_on_c, 0, 86, 49
1, 14880, Note_on_c, 0, 65, 33
1, 14880, Note_on_c, 0, 59, 28
1, 14880, Note_on_c, 0, 55, 28
1, 14884, Control_c, 0, 64, 0
1, 14890, Note_on_c, 0, 84, 0
1, 14910, Note_on_c, 0, 86, 0
1, 14915, Control_c, 0, 64, 127
1, 14940, Tempo, 714286
1, 14940, Note_on_c, 0, 86, 42
1, 15000, Note_on_c, 0, 88, 44
1, 15010, Note_on_c, 0, 86, 0
1, 15060, Note_on_c, 0, 89, 45
1, 15070, Note_on_c, 0, 88, 0
1, 15120, Tempo, 714286
1, 15120, Note_on_c, 0, 91, 46
1, 15130, Note_on_c, 0, 89, 0
1, 15140, Tempo, 718563
1, 15180, Tempo, 722892
1, 15180, Note_on_c, 0, 93, 48
1, 15190, Note_on_c, 0, 91, 0
1, 15200, Tempo, 727273
1, 15240, Tempo, 731707
1, 15240, Note_on_c, 0, 95, 49
1, 15250, Note_on_c, 0, 93, 0
1, 15260, Tempo, 736196
1, 15300, Tempo, 740741
1, 15300, Note_on_c, 0, 96, 50
1, 15310, Note_on_c, 0, 95, 0
1, 15320, Tempo, 745342
1, 15340, Tempo, 740741
1, 15360, Tempo, 750000
1, 15360, Note_on_c, 0, 59, 0
1, 15360, Note_on_c, 0, 55, 0
1, 15360, Note_on_c, 0, 65, 0
1, 15360, Note_on_c, 0, 98, 51
1, 15360, Note_on_c, 0, 65, 31
1, 15360, Note_on_c, 0, 59, 26
1, 15360, Note_on_c, 0, 55, 26
1, 15367, Control_c, 0, 64, 0
1, 15370, Note_on_c, 0, 96, 0
1, 15392, Control_c, 0, 64, 127
1, 15430, Note_on_c, 0, 98, 0
1, 15441, Control_c, 0, 64, 0
1, 15600, Tempo, 722892
1, 15600, Note_on_c, 0, 76, 42
1, 15632, Control_c, 0, 64, 127
1, 15840, Tempo, 714286
1, 15840, Note_on_c, 0, 76, 0
1, 15840, Note_on_c, 0, 55, 0
1, 15840, Note_on_c, 0, 65, 0
1, 15840, Note_on_c, 0, 59, 0
1, 15840, Note_on_c, 0, 72, 42
1, 15840, Note_on_c, 0, 36, 30
1, 15840, Note_on_c, 0, 48, 37
1, 15960, Note_on_c, 0, 72, 0
1, 15960, Note_on_c, 0, 74, 39
1, 16020, Note_on_c, 0, 76, 39
1, 16030, Note_on_c, 0, 74, 0
1, 16080, Tempo, 710059
1, 16080, Note_on_c, 0, 77, 40
1, 16090, Note_on_c, 0, 76, 0
1, 16140, Tempo, 714286
1, 16140, Note_on_c, 0, 79, 40
1, 16150, Note_on_c, 0, 77, 0
1, 16180, Tempo, 718563
1, 16200, Note_on_c, 0, 81, 41
1, 16210, Note_on_c, 0, 79, 0
1, 16240, Tempo, 722892
1, 16260, Note_on_c, 0, 83, 42
1, 16270, Note_on_c, 0, 81, 0
1, 16280, Tempo, 727273
1, 16320, Tempo, 779221
1, 16320, Note_on_c, 0, 36, 0
1, 16320, Note_on_c, 0, 48, 0
1, 16320, Note_on_c, 0, 84, 45
1, 16320, Note_on_c, 0, 64, 33
1, 16320, Note_on_c, 0, 60, 28
1, 16320, Note_on_c, 0, 55, 28
1, 16330, Note_on_c, 0, 83, 0
1, 16330, Control_c, 0, 64, 0
1, 16350, Note_on_c, 0, 84, 0
1, 16366, Control_c, 0, 64, 127
1, 16380, Tempo, 714286
1, 16380, Note_on_c, 0, 84, 39
1, 16440, Note_on_c, 0, 86, 40
1, 16450, Note_on_c, 0, 84, 0
1, 16500, Note_on_c, 0, 88, 40
1, 16510, Note_on_c, 0, 86, 0
1, 16560, Tempo, 714286
1, 16560, Note_on_c, 0, 89, 41
1, 16570, Note_on_c, 0, 88, 0
1, 16580, Tempo, 718563
1, 16620, Tempo, 722892
1, 16620, Note_on_c, 0, 91, 42
1, 16630, Note_on_c, 0, 89, 0
1, 16640, Tempo, 727273
1, 16680, Tempo, 731707
1, 16680, Note_on_c, 0, 93, 42
1, 16690, Note_on_c, 0, 91, 0
1, 16700, Tempo, 736196
1, 16740, Tempo, 740741
1, 16740, Note_on_c, 0, 95, 44
1, 16750, Note_on_c, 0, 93, 0
1, 16760, Tempo, 745342
1, 16780, Tempo, 740741
1, 16800, Tempo, 736196
1, 16800, Note_on_c, 0, 60, 0
1, 16800, Note_on_c, 0, 55, 0
1, 16800, Note_on_c, 0, 64, 0
1, 16800, Note_on_c, 0, 96, 46
1, 16800, Note_on_c, 0, 64, 31
1, 16800, Note_on_c, 0, 60, 26
1, 16800, Note_on_c, 0, 55, 26
1, 16810, Note_on_c, 0, 95, 0
1, 16814, Control_c, 0, 64, 0
1, 16856, Control_c, 0, 64, 127
1, 16870, Note_on_c, 0, 96, 0
1, 16913, Control_c, 0, 64, 0
1, 17040, Tempo, 722892
1, 17040, Note_on_c, 0, 72, 61
1, 17072, Control_c, 0, 64, 127
1, 17280, Tempo, 714286
1, 17280, Note_on_c, 0, 72, 0
1, 17280, Note_on_c, 0, 55, 0
1, 17280, Note_on_c, 0, 64, 0
1, 17280, Note_on_c, 0, 60, 0
1, 17280, Note_on_c, 0, 69, 60
1, 17280, Note_on_c, 0, 36, 42
1, 17280, Note_on_c, 0, 48, 53
1, 17400, Note_on_c, 0, 69, 0
1, 17400, Note_on_c, 0, 71, 56
1, 17460, Note_on_c, 0, 72, 56
1, 17470, Note_on_c, 0, 71, 0
1, 17520, Tempo, 710059
1, 17520, Note_on_c, 0, 74, 58
1, 17530, Note_on_c, 0, 72, 0
1, 17580, Tempo, 714286
1, 17580, Note_on_c, 0, 76, 58
1, 17590, Note_on_c, 0, 74, 0
1, 17620, Tempo, 718563
1, 17640, Note_on_c, 0, 77, 59
1, 17650, Note_on_c, 0, 76, 0
1, 17680, Tempo, 722892
1, 17700, Note_on_c, 0, 79, 61
1, 17710, Note_on_c, 0, 77, 0
1, 17720, Tempo, 727273
1, 17760, Tempo, 779221
1, 17760, Note_on_c, 0, 36, 0
1, 17760, Note_on_c, 0, 48, 0
1, 17760, Note_on_c, 0, 81, 64
1, 17760, Note_on_c, 0, 65, 47
1, 17760, Note_on_c, 0, 60, 39
1, 17760, Note_on_c, 0, 57, 39
1, 17770, Note_on_c, 0, 79, 0
1, 17774, Control_c, 0, 64, 0
1, 17790, Note_on_c, 0, 81, 0
1, 17802, Control_c, 0, 64, 127
1, 17820, Tempo, 714286
1, 17820, Note_on_c, 0, 81, 56
1, 17880, Note_on_c, 0, 83, 58
1, 17890, Note_on_c, 0, 81, 0
1, 17940, Note_on_c, 0, 84, 58
1, 17950, Note_on_c, 0, 83, 0
1, 18000, Tempo, 714286
1, 18000, Note_on_c, 0, 86, 59
1, 18010, Note_on_c, 0, 84, 0
1, 18020, Tempo, 718563
1, 18060, Tempo, 722892
1, 18060, Note_on_c, 0, 88, 60
1, 18070, Note_on_c, 0, 86, 0
1, 18080, Tempo, 727273
1, 18120, Tempo, 731707
1, 18120, Note_on_c, 0, 89, 61
1, 18130, Note_on_c, 0, 88, 0
1, 18140, Tempo, 736196
1, 18180, Tempo, 740741
1, 18180, Note_on_c, 0, 91, 62
1, 18190, Note_on_c, 0, 89, 0
1, 18200, Tempo, 745342
1, 18220, Tempo, 740741
1, 18240, Tempo, 727273
1, 18240, Note_on_c, 0, 60, 0
1, 18240, Note_on_c, 0, 57, 0
1, 18240, Note_on_c, 0, 65, 0
1, 18240, Note_on_c, 0, 93, 67
1, 18240, Note_on_c, 0, 65, 45
1, 18240, Note_on_c, 0, 60, 37
1, 18240, Note_on_c, 0, 57, 37
1, 18249, Control_c, 0, 64, 0
1, 18250, Note_on_c, 0, 91, 0
1, 18276, Control_c, 0, 64, 127
1, 18310, Note_on_c, 0, 93, 0
1, 18381, Control_c, 0, 64, 0
1, 18480, Tempo, 722892
1, 18480, Note_on_c, 0, 72, 58
1, 18512, Control_c, 0, 64, 127
1, 18720, Tempo, 714286
1, 18720, Note_on_c, 0, 72, 0
1, 18720, Note_on_c, 0, 57, 0
1, 18720, Note_on_c, 0, 65, 0
1, 18720, Note_on_c, 0, 60, 0
1, 18720, Note_on_c, 0, 67, 55
1, 18720, Note_on_c, 0, 36, 37
1, 18720, Note_on_c, 0, 48, 47
1, 18840, Note_on_c, 0, 67, 0
1, 18840, Note_on_c, 0, 69, 49
1, 18900, Note_on_c, 0, 71, 49
1, 18910, Note_on_c, 0, 69, 0
1, 18960, Tempo, 710059
1, 18960, Note_on_c, 0, 72, 50
1, 18970, Note_on_c, 0, 71, 0
1, 19020, Tempo, 714286
1, 19020, Note_on_c, 0, 74, 50
1, 19030, Note_on_c, 0, 72, 0
1, 19060, Tempo, 718563
1, 19080, Note_on_c, 0, 76, 51
1, 19090, Note_on_c, 0, 74, 0
1, 19120, Tempo, 722892
1, 19140, Note_on_c, 0, 77, 55
1, 19150, Note_on_c, 0, 76, 0
1, 19160, Tempo, 727273
1, 19200, Tempo, 779221
1, 19200, Note_on_c, 0, 36, 0
1, 19200, Note_on_c, 0, 48, 0
1, 19200, Note_on_c, 0, 79, 58
1, 19200, Note_on_c, 0, 64, 42
1, 19200, Note_on_c, 0, 60, 35
1, 19200, Note_on_c, 0, 55, 35
1, 19210, Note_on_c, 0, 77, 0
1, 19211, Control_c, 0, 64, 0
1, 19230, Note_on_c, 0, 79, 0
1, 19242, Control_c, 0, 64, 127
1, 19260, Tempo, 714286
1, 19260, Note_on_c, 0, 79, 49
1, 19320, Note_on_c, 0, 81, 50
1, 19330, Note_on_c, 0, 79, 0
1, 19380, Note_on_c, 0, 83, 50
1, 19390, Note_on_c, 0, 81, 0
1, 19440, Tempo, 714286
1, 19440, Note_on_c, 0, 84, 51
1, 19450, Note_on_c, 0, 83, 0
1, 19460, Tempo, 718563
1, 19500, Tempo, 722892
1, 19500, Note_on_c, 0, 86, 55
1, 19510, Note_on_c, 0, 84, 0
1, 19520, Tempo, 727273
1, 19560, Tempo, 731707
1, 19560, Note_on_c, 0, 88, 55
1, 19570, Note_on_c, 0, 86, 0
1, 19580, Tempo, 736196
1, 19620, Tempo, 740741
1, 19620, Note_on_c, 0, 89, 56
1, 19630, Note_on_c, 0, 88, 0
1, 19640, Tempo, 745342
1, 19660, Tempo, 740741
1, 19680, Tempo, 750000
1, 19680, Note_on_c, 0, 60, 0
1, 19680, Note_on_c, 0, 55, 0
1, 19680, Note_on_c, 0, 64, 0
1, 19680, Note_on_c, 0, 91, 59
1, 19680, Note_on_c, 0, 64, 39
1, 19680, Note_on_c, 0, 60, 33
1, 19680, Note_on_c, 0, 55, 33
1, 19690, Note_on_c, 0, 89, 0
1, 19691, Control_c, 0, 64, 0
1, 19739, Control_c, 0, 64, 127
1, 19750, Note_on_c, 0, 91, 0
1, 19800, Control_c, 0, 64, 0
1, 19920, Tempo, 727273
1, 19920, Note_on_c, 0, 72, 50
1, 19952, Control_c, 0, 64, 127
1, 20160, Tempo, 714286
1, 20160, Note_on_c, 0, 72, 0
1, 20160, Note_on_c, 0, 55, 0
1, 20160, Note_on_c, 0, 64, 0
1, 20160, Note_on_c, 0, 60, 0
1, 20160, Note_on_c, 0, 74, 50
1, 20160, Note_on_c, 0, 31, 36
1, 20160, Note_on_c, 0, 43, 44
1, 20280, Note_on_c, 0, 74, 0
1, 20280, Note_on_c, 0, 76, 46
1, 20340, Note_on_c, 0, 77, 46
1, 20350, Note_on_c, 0, 76, 0
1, 20400, Tempo, 710059
1, 20400, Note_on_c, 0, 79, 47
1, 20410, Note_on_c, 0, 77, 0
1, 20460, Tempo, 714286
1, 20460, Note_on_c, 0, 81, 47
1, 20470, Note_on_c, 0, 79, 0
1, 20500, Tempo, 718563
1, 20520, Note_on_c, 0, 83, 49
1, 20530, Note_on_c, 0, 81, 0
1, 20560, Tempo, 722892
1, 20580, Note_on_c, 0, 84, 51
1, 20590, Note_on_c, 0, 83, 0
1, 20600, Tempo, 727273
1, 20640, Tempo, 779221
1, 20640, Note_on_c, 0, 31, 0
1, 20640, Note_on_c, 0, 43, 0
1, 20640, Note_on_c, 0, 86, 59
1, 20640, Note_on_c, 0, 65, 39
1, 20640, Note_on_c, 0, 59, 34
1, 20640, Note_on_c, 0, 55, 34
1, 20650, Note_on_c, 0, 84, 0
1, 20651, Control_c, 0, 64, 0
1, 20670, Note_on_c, 0, 86, 0
1, 20675, Control_c, 0, 64, 127
1, 20700, Tempo, 714286
1, 20700, Note_on_c, 0, 86, 51
1, 20760, Note_on_c, 0, 88, 53
1, 20770, Note_on_c, 0, 86, 0
1, 20820, Note_on_c, 0, 89, 55
1, 20830, Note_on_c, 0, 88, 0
1, 20880, Tempo, 714286
1, 20880, Note_on_c, 0, 91, 56
1, 20890, Note_on_c, 0, 89, 0
1, 20900, Tempo, 718563
1, 20940, Tempo, 722892
1, 20940, Note_on_c, 0, 93, 58
1, 20950, Note_on_c, 0, 91, 0
1, 20960, Tempo, 727273
1, 21000, Tempo, 731707
1, 21000, Note_on_c, 0, 95, 59
1, 21010, Note_on_c, 0, 93, 0
1, 21020, Tempo, 736196
1, 21060, Tempo, 740741
1, 21060, Note_on_c, 0, 96, 59
1, 21070, Note_on_c, 0, 95, 0
1, 21080, Tempo, 745342
1, 21100, Tempo, 740741
1, 21120, Tempo, 750000
1, 21120, Note_on_c, 0, 59, 0
1, 21120, Note_on_c, 0, 55, 0
1, 21120, Note_on_c, 0, 65, 0
1, 21120, Note_on_c, 0, 98, 60
1, 21120, Note_on_c, 0, 65, 37
1, 21120, Note_on_c, 0, 59, 29
1, 21120, Note_on_c, 0, 55, 29
1, 21127, Control_c, 0, 64, 0
1, 21130, Note_on_c, 0, 96, 0
1, 21147, Control_c, 0, 64, 127
1, 21190, Note_on_c, 0, 98, 0
1, 21201, Control_c, 0, 64, 0
1, 21360, Tempo, 722892
1, 21360, Note_on_c, 0, 76, 49
1, 21392, Control_c, 0, 64, 127
1, 21600, Tempo, 714286
1, 21600, Note_on_c, 0, 76, 0
1, 21600, Note_on_c, 0, 55, 0
1, 21600, Note_on_c, 0, 65, 0
1, 21600, Note_on_c, 0, 59, 0
1, 21600, Note_on_c, 0, 72, 49
1, 21600, Note_on_c, 0, 36, 35
1, 21600, Note_on_c, 0, 48, 42
1, 21720, Note_on_c, 0, 72, 0
1, 21720, Note_on_c, 0, 74, 45
1, 21780, Note_on_c, 0, 76, 45
1, 21790, Note_on_c, 0, 74, 0
1, 21840, Tempo, 710059
1, 21840, Note_on_c, 0, 77, 46
1, 21850, Note_on_c, 0, 76, 0
1, 21900, Tempo, 714286
1, 21900, Note_on_c, 0, 79, 46
1, 21910, Note_on_c, 0, 77, 0
1, 21940, Tempo, 718563
1, 21960, Note_on_c, 0, 81, 47
1, 21970, Note_on_c, 0, 79, 0
1, 22000, Tempo, 722892
1, 22020, Note_on_c, 0, 83, 49
1, 22030, Note_on_c, 0, 81, 0
1, 22040, Tempo, 727273
1, 22080, Tempo, 779221
1, 22080, Note_on_c, 0, 36, 0
1, 22080, Note_on_c, 0, 48, 0
1, 22080, Note_on_c, 0, 84, 51
1, 22080, Note_on_c, 0, 64, 38
1, 22080, Note_on_c, 0, 60, 33
1, 22080, Note_on_c, 0, 55, 33
1, 22090, Note_on_c, 0, 83, 0
1, 22091, Control_c, 0, 64, 0
1, 22110, Note_on_c, 0, 84, 0
1, 22126, Control_c, 0, 64, 127
1, 22140, Tempo, 714286
1, 22140, Note_on_c, 0, 84, 45
1, 22200, Note_on_c, 0, 86, 46
1, 22210, Note_on_c, 0, 84, 0
1, 22260, Note_on_c, 0, 88, 46
1, 22270, Note_on_c, 0, 86, 0
1, 22320, Tempo, 722892
1, 22320, Note_on_c, 0, 89, 47
1, 22330, Note_on_c, 0, 88, 0
1, 22360, Tempo, 727273
1, 22380, Tempo, 731707
1, 22380, Note_on_c, 0, 91, 49
1, 22390, Note_on_c, 0, 89, 0
1, 22400, Tempo, 736196
1, 22420, Tempo, 740741
1, 22440, Tempo, 745342
1, 22440, Note_on_c, 0, 93, 49
1, 22450, Note_on_c, 0, 91, 0
1, 22480, Tempo, 750000
1, 22500, Tempo, 754717
1, 22500, Note_on_c, 0, 95, 50
1, 22510, Note_on_c, 0, 93, 0
1, 22520, Tempo, 759494
1, 22540, Tempo, 764331
1, 22560, Tempo, 769231
1, 22560, Note_on_c, 0, 60, 0
1, 22560, Note_on_c, 0, 55, 0
1, 22560, Note_on_c, 0, 64, 0
1, 22560, Note_on_c, 0, 96, 53
1, 22560, Note_on_c, 0, 64, 36
1, 22560, Note_on_c, 0, 60, 29
1, 22560, Note_on_c, 0, 55, 29
1, 22570, Note_on_c, 0, 95, 0
1, 22573, Control_c, 0, 64, 0
1, 22630, Note_on_c, 0, 96, 0
1, 22920, Tempo, 718563
1, 22973, Control_c, 0, 64, 127
1, 22980, Note_on_c, 0, 74, 58
1, 23040, Tempo, 736196
1, 23040, Note_on_c, 0, 74, 0
1, 23040, Note_on_c, 0, 55, 0
1, 23040, Note_on_c, 0, 64, 0
1, 23040, Note_on_c, 0, 60, 0
1, 23040, Note_on_c, 0, 86, 69
1, 23040, Note_on_c, 0, 43, 50
1, 23160, Tempo, 714286
1, 23160, Note_on_c, 0, 86, 0
1, 23160, Note_on_c, 0, 84, 64
1, 23220, Note_on_c, 0, 83, 64
1, 23230, Note_on_c, 0, 84, 0
1, 23280, Tempo, 710059
1, 23280, Note_on_c, 0, 81, 64
1, 23290, Note_on_c, 0, 83, 0
1, 23340, Tempo, 714286
1, 23340, Note_on_c, 0, 79, 64
1, 23350, Note_on_c, 0, 81, 0
1, 23380, Tempo, 718563
1, 23400, Note_on_c, 0, 78, 64
1, 23410, Note_on_c, 0, 79, 0
1, 23440, Tempo, 722892
1, 23460, Note_on_c, 0, 76, 64
1, 23470, Note_on_c, 0, 78, 0
1, 23480, Tempo, 727273
1, 23520, Tempo, 779221
1, 23520, Note_on_c, 0, 43, 0
1, 23520, Note_on_c, 0, 74, 69
1, 23520, Note_on_c, 0, 59, 46
1, 23520, Note_on_c, 0, 55, 37
1, 23520, Note_on_c, 0, 50, 37
1, 23530, Note_on_c, 0, 76, 0
1, 23531, Control_c, 0, 64, 0
1, 23550, Note_on_c, 0, 74, 0
1, 23560, Control_c, 0, 64, 127
1, 23580, Tempo, 714286
1, 23580, Note_on_c, 0, 74, 61
1, 23640, Note_on_c, 0, 72, 61
1, 23650, Note_on_c, 0, 74, 0
1, 23700, Note_on_c, 0, 71, 60
1, 23710, Note_on_c, 0, 72, 0
1, 23760, Tempo, 714286
1, 23760, Note_on_c, 0, 69, 60
1, 23770, Note_on_c, 0, 71, 0
1, 23780, Tempo, 718563
1, 23820, Tempo, 722892
1, 23820, Note_on_c, 0, 67, 59
1, 23830, Note_on_c, 0, 69, 0
1, 23840, Tempo, 727273
1, 23880, Tempo, 731707
1, 23880, Note_on_c, 0, 66, 59
1, 23890, Note_on_c, 0, 67, 0
1, 23900, Tempo, 736196
1, 23940, Tempo, 740741
1, 23940, Note_on_c, 0, 64, 59
1, 23950, Note_on_c, 0, 66, 0
1, 23960, Tempo, 745342
1, 23980, Tempo, 740741
1, 24000, Tempo, 750000
1, 24000, Note_on_c, 0, 55, 0
1, 24000, Note_on_c, 0, 50, 0
1, 24000, Note_on_c, 0, 59, 0
1, 24000, Note_on_c, 0, 62, 59
1, 24000, Note_on_c, 0, 59, 44
1, 24000, Note_on_c, 0, 55, 35
1, 24000, Note_on_c, 0, 50, 35
1, 24006, Control_c, 0, 64, 0
1, 24010, Note_on_c, 0, 64, 0
1, 24034, Control_c, 0, 64, 127
1, 24070, Note_on_c, 0, 62, 0
1, 24126, Control_c, 0, 64, 0
1, 24240, Tempo, 727273
1, 24240, Note_on_c, 0, 83, 61
1, 24272, Control_c, 0, 64, 127
1, 24480, Tempo, 736196
1, 24480, Note_on_c, 0, 83, 0
1, 24480, Note_on_c, 0, 50, 0
1, 24480, Note_on_c, 0, 59, 0
1, 24480, Note_on_c, 0, 55, 0
1, 24480, Note_on_c, 0, 91, 69
1, 24480, Note_on_c, 0, 43, 50
1, 24600, Tempo, 718563
1, 24600, Note_on_c, 0, 91, 0
1, 24600, Note_on_c, 0, 90, 64
1, 24660, Note_on_c, 0, 88, 64
1, 24670, Note_on_c, 0, 90, 0
1, 24720, Tempo, 710059
1, 24720, Note_on_c, 0, 86, 64
1, 24730, Note_on_c, 0, 88, 0
1, 24780, Tempo, 714286
1, 24780, Note_on_c, 0, 84, 64
1, 24790, Note_on_c, 0, 86, 0
1, 24820, Tempo, 718563
1, 24840, Note_on_c, 0, 83, 64
1, 24850, Note_on_c, 0, 84, 0
1, 24880, Tempo, 722892
1, 24900, Note_on_c, 0, 81, 64
1, 24910, Note_on_c, 0, 83, 0
1, 24920, Tempo, 727273
1, 24960, Tempo, 779221
1, 24960, Note_on_c, 0, 43, 0
1, 24960, Note_on_c, 0, 79, 69
1, 24960, Note_on_c, 0, 59, 46
1, 24960, Note_on_c, 0, 55, 37
1, 24960, Note_on_c, 0, 50, 37
1, 24969, Control_c, 0, 64, 0
1, 24970, Note_on_c, 0, 81, 0
1, 24990, Note_on_c, 0, 79, 0
1, 24991, Control_c, 0, 64, 127
1, 25020, Tempo, 714286
1, 25020, Note_on_c, 0, 79, 61
1, 25080, Note_on_c, 0, 78, 61
1, 25090, Note_on_c, 0, 79, 0
1, 25140, Note_on_c, 0, 76, 60
1, 25150, Note_on_c, 0, 78, 0
1, 25200, Tempo, 714286
1, 25200, Note_on_c, 0, 74, 60
1, 25210, Note_on_c, 0, 76, 0
1, 25220, Tempo, 718563
1, 25260, Tempo, 722892
1, 25260, Note_on_c, 0, 72, 59
1, 25270, Note_on_c, 0, 74, 0
1, 25280, Tempo, 727273
1, 25320, Tempo, 731707
1, 25320, Note_on_c, 0, 71, 59
1, 25330, Note_on_c, 0, 72, 0
1, 25340, Tempo, 736196
1, 25380, Tempo, 740741
1, 25380, Note_on_c, 0, 69, 59
1, 25390, Note_on_c, 0, 71, 0
1, 25400, Tempo, 745342
1, 25420, Tempo, 740741
1, 25440, Tempo, 750000
1, 25440, Note_on_c, 0, 55, 0
1, 25440, Note_on_c, 0, 50, 0
1, 25440, Note_on_c, 0, 59, 0
1, 25440, Note_on_c, 0, 67, 59
1, 25440, Note_on_c, 0, 59, 44
1, 25440, Note_on_c, 0, 55, 35
1, 25440, Note_on_c, 0, 50, 35
1, 25449, Control_c, 0, 64, 0
1, 25450, Note_on_c, 0, 69, 0
1, 25483, Control_c, 0, 64, 127
1, 25510, Note_on_c, 0, 67, 0
1, 25537, Control_c, 0, 64, 0
1, 25680, Tempo, 727273
1, 25680, Note_on_c, 0, 83, 69
1, 25712, Control_c, 0, 64, 127
1, 25860, Note_on_c, 0, 83, 0
1, 25860, Note_on_c, 0, 74, 67
1, 25920, Tempo, 731707
1, 25920, Note_on_c, 0, 74, 0
1, 25920, Note_on_c, 0, 55, 0
1, 25920, Note_on_c, 0, 59, 0
1, 25920, Note_on_c, 0, 50, 0
1, 25920, Note_on_c, 0, 86, 79
1, 25920, Note_on_c, 0, 38, 47
1, 25920, Note_on_c, 0, 50, 50
1, 26040, Tempo, 714286
1, 26040, Note_on_c, 0, 86, 0
1, 26040, Note_on_c, 0, 84, 69
1, 26100, Note_on_c, 0, 83, 69
1, 26110, Note_on_c, 0, 84, 0
1, 26160, Tempo, 710059
1, 26160, Note_on_c, 0, 81, 68
1, 26170, Note_on_c, 0, 83, 0
1, 26220, Tempo, 714286
1, 26220, Note_on_c, 0, 79, 68
1, 26230, Note_on_c, 0, 81, 0
1, 26260, Tempo, 718563
1, 26280, Note_on_c, 0, 78, 68
1, 26290, Note_on_c, 0, 79, 0
1, 26320, Tempo, 722892
1, 26340, Note_on_c, 0, 76, 64
1, 26350, Note_on_c, 0, 78, 0
1, 26360, Tempo, 727273
1, 26400, Tempo, 779221
1, 26400, Note_on_c, 0, 38, 0
1, 26400, Note_on_c, 0, 50, 0
1, 26400, Note_on_c, 0, 74, 69
1, 26400, Note_on_c, 0, 60, 46
1, 26400, Note_on_c, 0, 54, 37
1, 26400, Note_on_c, 0, 50, 37
1, 26405, Control_c, 0, 64, 0
1, 26410, Note_on_c, 0, 76, 0
1, 26430, Note_on_c, 0, 74, 0
1, 26431, Control_c, 0, 64, 127
1, 26460, Tempo, 714286
1, 26460, Note_on_c, 0, 74, 61
1, 26520, Note_on_c, 0, 72, 61
1, 26530, Note_on_c, 0, 74, 0
1, 26580, Note_on_c, 0, 71, 60
1, 26590, Note_on_c, 0, 72, 0
1, 26640, Tempo, 714286
1, 26640, Note_on_c, 0, 69, 60
1, 26650, Note_on_c, 0, 71, 0
1, 26660, Tempo, 718563
1, 26700, Tempo, 722892
1, 26700, Note_on_c, 0, 67, 59
1, 26710, Note_on_c, 0, 69, 0
1, 26720, Tempo, 727273
1, 26760, Tempo, 731707
1, 26760, Note_on_c, 0, 66, 59
1, 26770, Note_on_c, 0, 67, 0
1, 26780, Tempo, 736196
1, 26820, Tempo, 740741
1, 26820, Note_on_c, 0, 64, 59
1, 26830, Note_on_c, 0, 66, 0
1, 26840, Tempo, 745342
1, 26860, Tempo, 740741
1, 26880, Tempo, 750000
1, 26880, Note_on_c, 0, 54, 0
1, 26880, Note_on_c, 0, 50, 0
1, 26880, Note_on_c, 0, 60, 0
1, 26880, Note_on_c, 0, 62, 59
1, 26880, Note_on_c, 0, 60, 44
1, 26880, Note_on_c, 0, 54, 35
1, 26880, Note_on_c, 0, 50, 35
1, 26890, Note_on_c, 0, 64, 0
1, 26890, Control_c, 0, 64, 0
1, 26914, Control_c, 0, 64, 127
1, 26950, Note_on_c, 0, 62, 0
1, 27026, Control_c, 0, 64, 0
1, 27120, Tempo, 727273
1, 27120, Note_on_c, 0, 81, 67
1, 27152, Control_c, 0, 64, 127
1, 27360, Tempo, 745342
1, 27360, Note_on_c, 0, 81, 0
1, 27360, Note_on_c, 0, 50, 0
1, 27360, Note_on_c, 0, 60, 0
1, 27360, Note_on_c, 0, 54, 0
1, 27360, Note_on_c, 0, 83, 74
1, 27360, Note_on_c, 0, 43, 53
1, 27480, Note_on_c, 0, 83, 0
1, 27480, Note_on_c, 0, 84, 64
1, 27540, Note_on_c, 0, 86, 64
1, 27550, Note_on_c, 0, 84, 0
1, 27580, Tempo, 745342
1, 27600, Note_on_c, 0, 88, 62
1, 27610, Note_on_c, 0, 86, 0
1, 27620, Tempo, 750000
1, 27660, Tempo, 754717
1, 27660, Note_on_c, 0, 90, 62
1, 27670, Note_on_c, 0, 88, 0
1, 27700, Tempo, 759494
1, 27720, Tempo, 764331
1, 27720, Note_on_c, 0, 91, 61
1, 27730, Note_on_c, 0, 90, 0
1, 27760, Tempo, 769231
1, 27780, Note_on_c, 0, 93, 58
1, 27790, Note_on_c, 0, 91, 0
1, 27800, Tempo, 774194
1, 27820, Tempo, 779221
1, 27840, Tempo, 827586
1, 27840, Note_on_c, 0, 43, 0
1, 27840, Note_on_c, 0, 95, 69
1, 27840, Note_on_c, 0, 59, 44
1, 27840, Note_on_c, 0, 55, 36
1, 27840, Note_on_c, 0, 50, 36
1, 27850, Note_on_c, 0, 93, 0
1, 27850, Control_c, 0, 64, 0
1, 27870, Note_on_c, 0, 95, 0
1, 27871, Control_c, 0, 64, 127
1, 27900, Tempo, 754717
1, 27900, Note_on_c, 0, 79, 61
1, 27960, Note_on_c, 0, 81, 61
1, 27970, Note_on_c, 0, 79, 0
1, 28020, Note_on_c, 0, 83, 60
1, 28030, Note_on_c, 0, 81, 0
1, 28060, Tempo, 754717
1, 28080, Tempo, 759494
1, 28080, Note_on_c, 0, 84, 58
1, 28090, Note_on_c, 0, 83, 0
1, 28100, Tempo, 764331
1, 28120, Tempo, 769231
1, 28140, Tempo, 774194
1, 28140, Note_on_c, 0, 86, 56
1, 28150, Note_on_c, 0, 84, 0
1, 28160, Tempo, 779221
1, 28180, Tempo, 784314
1, 28200, Tempo, 789474
1, 28200, Note_on_c, 0, 88, 56
1, 28210, Note_on_c, 0, 86, 0
1, 28220, Tempo, 794702
1, 28240, Tempo, 800000
1, 28260, Tempo, 805369
1, 28260, Note_on_c, 0, 90, 55
1, 28270, Note_on_c, 0, 88, 0
1, 28280, Tempo, 816327
1, 28300, Tempo, 759494
1, 28320, Tempo, 827586
1, 28320, Note_on_c, 0, 55, 0
1, 28320, Note_on_c, 0, 50, 0
1, 28320, Note_on_c, 0, 59, 0
1, 28320, Note_on_c, 0, 91, 66
1, 28320, Note_on_c, 0, 59, 36
1, 28320, Note_on_c, 0, 55, 29
1, 28320, Note_on_c, 0, 50, 29
1, 28329, Control_c, 0, 64, 0
1, 28330, Note_on_c, 0, 90, 0
1, 28360, Control_c, 0, 64, 127
1, 28380, Tempo, 789474
1, 28380, Note_on_c, 0, 74, 60
1, 28390, Note_on_c, 0, 91, 0
1, 28440, Note_on_c, 0, 76, 58
1, 28450, Note_on_c, 0, 74, 0
1, 28500, Note_on_c, 0, 78, 56
1, 28510, Note_on_c, 0, 76, 0
1, 28520, Tempo, 764331
1, 28540, Tempo, 774194
1, 28560, Tempo, 784314
1, 28560, Note_on_c, 0, 79, 55
1, 28570, Note_on_c, 0, 78, 0
1, 28580, Tempo, 794702
1, 28600, Tempo, 810811
1, 28620, Tempo, 821918
1, 28620, Note_on_c, 0, 81, 55
1, 28630, Note_on_c, 0, 79, 0
1, 28640, Tempo, 833333
1, 28660, Tempo, 845070
1, 28680, Tempo, 863309
1, 28680, Note_on_c, 0, 83, 53
1, 28690, Note_on_c, 0, 81, 0
1, 28700, Tempo, 875912
1, 28720, Tempo, 888889
1, 28740, Tempo, 909091
1, 28740, Note_on_c, 0, 84, 52
1, 28750, Note_on_c, 0, 83, 0
1, 28800, Tempo, 764331
1, 28800, Note_on_c, 0, 50, 0
1, 28800, Note_on_c, 0, 55, 0
1, 28800, Note_on_c, 0, 59, 0
1, 28800, Note_on_c, 0, 86, 57
1, 28800, Note_on_c, 0, 43, 34
1, 28808, Control_c, 0, 64, 0
1, 28810, Note_on_c, 0, 84, 0
1, 28840, Control_c, 0, 64, 127
1, 28920, Tempo, 710059
1, 28920, Note_on_c, 0, 86, 0
1, 28920, Note_on_c, 0, 84, 44
1, 28980, Note_on_c, 0, 83, 44
1, 28990, Note_on_c, 0, 84, 0
1, 29040, Tempo, 710059
1, 29040, Note_on_c, 0, 81, 44
1, 29050, Note_on_c, 0, 83, 0
1, 29100, Tempo, 714286
1, 29100, Note_on_c, 0, 79, 44
1, 29110, Note_on_c, 0, 81, 0
1, 29140, Tempo, 718563
1, 29160, Note_on_c, 0, 78, 44
1, 29170, Note_on_c, 0, 79, 0
1, 29200, Tempo, 722892
1, 29220, Note_on_c, 0, 76, 44
1, 29230, Note_on_c, 0, 78, 0
1, 29240, Tempo, 727273
1, 29280, Tempo, 779221
1, 29280, Note_on_c, 0, 43, 0
1, 29280, Note_on_c, 0, 74, 46
1, 29280, Note_on_c, 0, 59, 30
1, 29280, Note_on_c, 0, 55, 25
1, 29280, Note_on_c, 0, 50, 25
1, 29290, Note_on_c, 0, 76, 0
1, 29291, Control_c, 0, 64, 0
1, 29310, Note_on_c, 0, 74, 0
1, 29320, Control_c, 0, 64, 127
1, 29340, Tempo, 714286
1, 29340, Note_on_c, 0, 74, 41
1, 29400, Note_on_c, 0, 72, 41
1, 29410, Note_on_c, 0, 74, 0
1, 29460, Note_on_c, 0, 71, 41
1, 29470, Note_on_c, 0, 72, 0
1, 29520, Tempo, 714286
1, 29520, Note_on_c, 0, 69, 41
1, 29530, Note_on_c, 0, 71, 0
1, 29540, Tempo, 718563
1, 29580, Tempo, 722892
1, 29580, Note_on_c, 0, 67, 40
1, 29590, Note_on_c, 0, 69, 0
1, 29600, Tempo, 727273
1, 29640, Tempo, 731707
1, 29640, Note_on_c, 0, 66, 40
1, 29650, Note_on_c, 0, 67, 0
1, 29660, Tempo, 736196
1, 29700, Tempo, 740741
1, 29700, Note_on_c, 0, 64, 39
1, 29710, Note_on_c, 0, 66, 0
1, 29720, Tempo, 745342
1, 29740, Tempo, 740741
1, 29760, Tempo, 750000
1, 29760, Note_on_c, 0, 55, 0
1, 29760, Note_on_c, 0, 50, 0
1, 29760, Note_on_c, 0, 59, 0
1, 29760, Note_on_c, 0, 62, 39
1, 29760, Note_on_c, 0, 59, 29
1, 29760, Note_on_c, 0, 55, 24
1, 29760, Note_on_c, 0, 50, 24
1, 29766, Control_c, 0, 64, 0
1, 29770, Note_on_c, 0, 64, 0
1, 29786, Control_c, 0, 64, 127
1, 29830, Note_on_c, 0, 62, 0
1, 29894, Control_c, 0, 64, 0
1, 30000, Tempo, 727273
1, 30000, Note_on_c, 0, 83, 41
1, 30032, Control_c, 0, 64, 127
1, 30240, Tempo, 731707
1, 30240, Note_on_c, 0, 83, 0
1, 30240, Note_on_c, 0, 50, 0
1, 30240, Note_on_c, 0, 59, 0
1, 30240, Note_on_c, 0, 55, 0
1, 30240, Note_on_c, 0, 95, 53
1, 30240, Note_on_c, 0, 43, 34
1, 30357, Note_on_c, 0, 93, 49
1, 30360, Tempo, 714286
1, 30360, Note_on_c, 0, 95, 0
1, 30420, Note_on_c, 0, 91, 47
1, 30427, Note_on_c, 0, 93, 0
1, 30480, Tempo, 710059
1, 30480, Note_on_c, 0, 90, 46
1, 30490, Note_on_c, 0, 91, 0
1, 30540, Tempo, 714286
1, 30540, Note_on_c, 0, 88, 44
1, 30550, Note_on_c, 0, 90, 0
1, 30580, Tempo, 718563
1, 30600, Note_on_c, 0, 86, 44
1, 30610, Note_on_c, 0, 88, 0
1, 30640, Tempo, 722892
1, 30660, Note_on_c, 0, 84, 44
1, 30670, Note_on_c, 0, 86, 0
1, 30680, Tempo, 727273
1, 30720, Tempo, 779221
1, 30720, Note_on_c, 0, 43, 0
1, 30720, Note_on_c, 0, 83, 46
1, 30720, Note_on_c, 0, 59, 30
1, 30720, Note_on_c, 0, 55, 25
1, 30720, Note_on_c, 0, 50, 25
1, 30730, Note_on_c, 0, 84, 0
1, 30731, Control_c, 0, 64, 0
1, 30750, Note_on_c, 0, 83, 0
1, 30760, Control_c, 0, 64, 127
1, 30780, Tempo, 714286
1, 30780, Note_on_c, 0, 83, 41
1, 30840, Note_on_c, 0, 81, 41
1, 30850, Note_on_c, 0, 83, 0
1, 30900, Note_on_c, 0, 79, 41
1, 30910, Note_on_c, 0, 81, 0
1, 30960, Tempo, 714286
1, 30960, Note_on_c, 0, 78, 41
1, 30970, Note_on_c, 0, 79, 0
1, 30980, Tempo, 718563
1, 31020, Tempo, 722892
1, 31020, Note_on_c, 0, 76, 40
1, 31030, Note_on_c, 0, 78, 0
1, 31040, Tempo, 727273
1, 31080, Tempo, 731707
1, 31080, Note_on_c, 0, 74, 40
1, 31090, Note_on_c, 0, 76, 0
1, 31100, Tempo, 736196
1, 31140, Tempo, 740741
1, 31140, Note_on_c, 0, 72, 39
1, 31150, Note_on_c, 0, 74, 0
1, 31160, Tempo, 745342
1, 31180, Tempo, 740741
1, 31200, Tempo, 750000
1, 31200, Note_on_c, 0, 55, 0
1, 31200, Note_on_c, 0, 50, 0
1, 31200, Note_on_c, 0, 59, 0
1, 31200, Note_on_c, 0, 71, 39
1, 31200, Note_on_c, 0, 59, 29
1, 31200, Note_on_c, 0, 55, 24
1, 31200, Note_on_c, 0, 50, 24
1, 31206, Control_c, 0, 64, 0
1, 31210, Note_on_c, 0, 72, 0
1, 31246, Control_c, 0, 64, 127
1, 31270, Note_on_c, 0, 71, 0
1, 31306, Control_c, 0, 64, 0
1, 31440, Tempo, 727273
1, 31440, Note_on_c, 0, 83, 64
1, 31472, Control_c, 0, 64, 127
1, 31620, Note_on_c, 0, 83, 0
1, 31620, Note_on_c, 0, 74, 60
1, 31680, Tempo, 740741
1, 31680, Note_on_c, 0, 74, 0
1, 31680, Note_on_c, 0, 55, 0
1, 31680, Note_on_c, 0, 59, 0
1, 31680, Note_on_c, 0, 50, 0
1, 31680, Note_on_c, 0, 86, 72
1, 31680, Note_on_c, 0, 38, 44
1, 31680, Note_on_c, 0, 50, 47
1, 31800, Tempo, 714286
1, 31800, Note_on_c, 0, 86, 0
1, 31800, Note_on_c, 0, 84, 61
1, 31860, Note_on_c, 0, 83, 61
1, 31870, Note_on_c, 0, 84, 0
1, 31920, Tempo, 710059
1, 31920, Note_on_c, 0, 81, 60
1, 31930, Note_on_c, 0, 83, 0
1, 31980, Tempo, 714286
1, 31980, Note_on_c, 0, 79, 60
1, 31990, Note_on_c, 0, 81, 0
1, 32020, Tempo, 718563
1, 32040, Note_on_c, 0, 78, 60
1, 32050, Note_on_c, 0, 79, 0
1, 32080, Tempo, 722892
1, 32100, Note_on_c, 0, 76, 58
1, 32110, Note_on_c, 0, 78, 0
1, 32120, Tempo, 727273
1, 32160, Tempo, 779221
1, 32160, Note_on_c, 0, 38, 0
1, 32160, Note_on_c, 0, 50, 0
1, 32160, Note_on_c, 0, 74, 62
1, 32160, Note_on_c, 0, 60, 39
1, 32160, Note_on_c, 0, 54, 33
1, 32160, Note_on_c, 0, 50, 33
1, 32169, Control_c, 0, 64, 0
1, 32170, Note_on_c, 0, 76, 0
1, 32190, Note_on_c, 0, 74, 0
1, 32197, Control_c, 0, 64, 127
1, 32220, Tempo, 714286
1, 32220, Note_on_c, 0, 74, 55
1, 32280, Note_on_c, 0, 72, 55
1, 32290, Note_on_c, 0, 74, 0
1, 32340, Note_on_c, 0, 71, 55
1, 32350, Note_on_c, 0, 72, 0
1, 32400, Tempo, 714286
1, 32400, Note_on_c, 0, 69, 55
1, 32410, Note_on_c, 0, 71, 0
1, 32420, Tempo, 718563
1, 32460, Tempo, 722892
1, 32460, Note_on_c, 0, 67, 53
1, 32470, Note_on_c, 0, 69, 0
1, 32480, Tempo, 727273
1, 32520, Tempo, 731707
1, 32520, Note_on_c, 0, 66, 53
1, 32530, Note_on_c, 0, 67, 0
1, 32540, Tempo, 736196
1, 32580, Tempo, 740741
1, 32580, Note_on_c, 0, 64, 51
1, 32590, Note_on_c, 0, 66, 0
1, 32600, Tempo, 745342
1, 32620, Tempo, 740741
1, 32640, Tempo, 784314
1, 32640, Note_on_c, 0, 54, 0
1, 32640, Note_on_c, 0, 50, 0
1, 32640, Note_on_c, 0, 60, 0
1, 32640, Note_on_c, 0, 62, 51
1, 32640, Note_on_c, 0, 60, 38
1, 32640, Note_on_c, 0, 54, 29
1, 32640, Note_on_c, 0, 50, 29
1, 32650, Note_on_c, 0, 64, 0
1, 32650, Control_c, 0, 64, 0
1, 32682, Control_c, 0, 64, 127
1, 32710, Note_on_c, 0, 62, 0
1, 32800, Control_c, 0, 64, 0
1, 32880, Tempo, 816327
1, 32880, Note_on_c, 0, 81, 66
1, 32891, Control_c, 0, 64, 127
1, 33000, Tempo, 857143
1, 33060, Note_on_c, 0, 81, 0
1, 33060, Note_on_c, 0, 83, 59
1, 33100, Control_c, 0, 64, 0
1, 33120, Tempo, 821918
1, 33120, Note_on_c, 0, 83, 0
1, 33120, Note_on_c, 0, 54, 0
1, 33120, Note_on_c, 0, 60, 0
1, 33120, Note_on_c, 0, 50, 0
1, 33120, Note_on_c, 0, 79, 69
1, 33120, Note_on_c, 0, 59, 58
1, 33120, Note_on_c, 0, 55, 58
1, 33180, Tempo, 800000
1, 33180, Note_on_c, 0, 55, 0
1, 33180, Note_on_c, 0, 59, 0
1, 33180, Note_on_c, 0, 79, 0
1, 33240, Note_on_c, 0, 55, 62
1, 33240, Note_on_c, 0, 43, 53
1, 33263, Control_c, 0, 64, 127
1, 33300, Note_on_c, 0, 57, 64
1, 33300, Note_on_c, 0, 45, 55
1, 33310, Note_on_c, 0, 43, 0
1, 33310, Note_on_c, 0, 55, 0
1, 33340, Tempo, 774194
1, 33360, Note_on_c, 0, 59, 66
1, 33360, Note_on_c, 0, 47, 53
1, 33370, Note_on_c, 0, 57, 0
1, 33370, Note_on_c, 0, 45, 0
1, 33380, Tempo, 779221
1, 33420, Tempo, 784314
1, 33420, Note_on_c, 0, 60, 66
1, 33420, Note_on_c, 0, 48, 56
1, 33430, Note_on_c, 0, 59, 0
1, 33430, Note_on_c, 0, 47, 0
1, 33440, Tempo, 789474
1, 33480, Tempo, 794702
1, 33480, Note_on_c, 0, 62, 68
1, 33480, Note_on_c, 0, 50, 56
1, 33490, Note_on_c, 0, 60, 0
1, 33490, Note_on_c, 0, 48, 0
1, 33500, Tempo, 800000
1, 33540, Tempo, 805369
1, 33540, Note_on_c, 0, 64, 68
1, 33540, Note_on_c, 0, 52, 56
1, 33550, Note_on_c, 0, 62, 0
1, 33550, Note_on_c, 0, 50, 0
1, 33560, Tempo, 810811
1, 33580, Tempo, 779221
1, 33600, Tempo, 869565
1, 33600, Note_on_c, 0, 65, 78
1, 33600, Note_on_c, 0, 53, 66
1, 33606, Control_c, 0, 64, 0
1, 33610, Note_on_c, 0, 64, 0
1, 33610, Note_on_c, 0, 52, 0
1, 33630, Note_on_c, 0, 65, 0
1, 33630, Note_on_c, 0, 53, 0
1, 33660, Tempo, 784314
1, 33720, Note_on_c, 0, 67, 62
1, 33720, Note_on_c, 0, 55, 53
1, 33751, Control_c, 0, 64, 127
1, 33780, Note_on_c, 0, 69, 63
1, 33780, Note_on_c, 0, 57, 53
1, 33790, Note_on_c, 0, 55, 0
1, 33790, Note_on_c, 0, 67, 0
1, 33820, Tempo, 754717
1, 33840, Tempo, 759494
1, 33840, Note_on_c, 0, 71, 64
1, 33840, Note_on_c, 0, 59, 55
1, 33850, Note_on_c, 0, 69, 0
1, 33850, Note_on_c, 0, 57, 0
1, 33860, Tempo, 764331
1, 33880, Tempo, 769231
1, 33900, Tempo, 774194
1, 33900, Note_on_c, 0, 72, 64
1, 33900, Note_on_c, 0, 60, 55
1, 33910, Note_on_c, 0, 71, 0
1, 33910, Note_on_c, 0, 59, 0
1, 33920, Tempo, 779221
1, 33940, Tempo, 784314
1, 33960, Tempo, 789474
1, 33960, Note_on_c, 0, 74, 66
1, 33960, Note_on_c, 0, 62, 56
1, 33970, Note_on_c, 0, 72, 0
1, 33970, Note_on_c, 0, 60, 0
1, 33980, Tempo, 794702
1, 34000, Tempo, 800000
1, 34020, Tempo, 805369
1, 34020, Note_on_c, 0, 76, 67
1, 34020, Note_on_c, 0, 64, 59
1, 34030, Note_on_c, 0, 74, 0
1, 34030, Note_on_c, 0, 62, 0
1, 34040, Tempo, 816327
1, 34060, Tempo, 759494
1, 34080, Tempo, 895522
1, 34080, Note_on_c, 0, 77, 79
1, 34080, Note_on_c, 0, 65, 67
1, 34090, Note_on_c, 0, 76, 0
1, 34090, Note_on_c, 0, 64, 0
1, 34092, Control_c, 0, 64, 0
1, 34110, Note_on_c, 0, 77, 0
1, 34110, Note_on_c, 0, 65, 0
1, 34140, Tempo, 810811
1, 34200, Note_on_c, 0, 67, 64
1, 34229, Control_c, 0, 64, 127
1, 34260, Note_on_c, 0, 69, 64
1, 34270, Note_on_c, 0, 67, 0
1, 34280, Tempo, 779221
1, 34300, Tempo, 784314
1, 34320, Tempo, 789474
1, 34320, Note_on_c, 0, 71, 66
1, 34330, Note_on_c, 0, 69, 0
1, 34340, Tempo, 794702
1, 34360, Tempo, 805369
1, 34380, Tempo, 810811
1, 34380, Note_on_c, 0, 72, 68
1, 34390, Note_on_c, 0, 71, 0
1, 34400, Tempo, 816327
1, 34420, Tempo, 821918
1, 34440, Tempo, 833333
1, 34440, Note_on_c, 0, 74, 72
1, 34450, Note_on_c, 0, 72, 0
1, 34460, Tempo, 839161
1, 34480, Tempo, 845070
1, 34500, Tempo, 851064
1, 34500, Note_on_c, 0, 75, 78
1, 34510, Note_on_c, 0, 74, 0
1, 34520, Tempo, 863309
1, 34560, Tempo, 764331
1, 34560, Note_on_c, 0, 76, 88
1, 34560, Control_c, 0, 64, 0
1, 34560, Note_on_c, 0, 36, 63
1, 34560, Note_on_c, 0, 48, 78
1, 34570, Note_on_c, 0, 75, 0
1, 34606, Control_c, 0, 64, 127
1, 34680, Tempo, 710059
1, 34680, Note_on_c, 0, 76, 0
1, 34680, Note_on_c, 0, 77, 68
1, 34740, Note_on_c, 0, 79, 68
1, 34750, Note_on_c, 0, 77, 0
1, 34800, Tempo, 710059
1, 34800, Note_on_c, 0, 81, 70
1, 34810, Note_on_c, 0, 79, 0
1, 34860, Tempo, 714286
1, 34860, Note_on_c, 0, 83, 70
1, 34870, Note_on_c, 0, 81, 0
1, 34900, Tempo, 718563
1, 34920, Note_on_c, 0, 84, 71
1, 34930, Note_on_c, 0, 83, 0
1, 34960, Tempo, 722892
1, 34980, Note_on_c, 0, 86, 73
1, 34990, Note_on_c, 0, 84, 0
1, 35000, Tempo, 727273
1, 35040, Tempo, 779221
1, 35040, Note_on_c, 0, 48, 0
1, 35040, Note_on_c, 0, 36, 0
1, 35040, Note_on_c, 0, 88, 83
1, 35040, Note_on_c, 0, 64, 66
1, 35040, Note_on_c, 0, 60, 55
1, 35040, Note_on_c, 0, 55, 55
1, 35050, Note_on_c, 0, 86, 0
1, 35054, Control_c, 0, 64, 0
1, 35070, Note_on_c, 0, 88, 0
1, 35089, Control_c, 0, 64, 127
1, 35100, Tempo, 714286
1, 35100, Note_on_c, 0, 88, 73
1, 35160, Note_on_c, 0, 89, 73
1, 35170, Note_on_c, 0, 88, 0
1, 35220, Note_on_c, 0, 91, 74
1, 35230, Note_on_c, 0, 89, 0
1, 35280, Tempo, 718563
1, 35280, Note_on_c, 0, 93, 77
1, 35290, Note_on_c, 0, 91, 0
1, 35320, Tempo, 714286
1, 35340, Tempo, 710059
1, 35340, Note_on_c, 0, 95, 78
1, 35350, Note_on_c, 0, 93, 0
1, 35380, Tempo, 705882
1, 35400, Tempo, 701754
1, 35400, Note_on_c, 0, 96, 80
1, 35410, Note_on_c, 0, 95, 0
1, 35420, Tempo, 697674
1, 35460, Tempo, 693642
1, 35460, Note_on_c, 0, 98, 81
1, 35470, Note_on_c, 0, 96, 0
1, 35480, Tempo, 689655
1, 35500, Tempo, 685714
1, 35520, Tempo, 705882
1, 35520, Note_on_c, 0, 60, 0
1, 35520, Note_on_c, 0, 55, 0
1, 35520, Note_on_c, 0, 64, 0
1, 35520, Note_on_c, 0, 100, 86
1, 35520, Note_on_c, 0, 64, 63
1, 35520, Note_on_c, 0, 60, 51
1, 35520, Note_on_c, 0, 55, 51
1, 35530, Note_on_c, 0, 98, 0
1, 35532, Control_c, 0, 64, 0
1, 35573, Control_c, 0, 64, 127
1, 35590, Note_on_c, 0, 100, 0
1, 35636, Control_c, 0, 64, 0
1, 35760, Tempo, 722892
1, 35760, Note_on_c, 0, 76, 73
1, 35792, Control_c, 0, 64, 127
1, 36000, Tempo, 714286
1, 36000, Note_on_c, 0, 76, 0
1, 36000, Note_on_c, 0, 55, 0
1, 36000, Note_on_c, 0, 64, 0
1, 36000, Note_on_c, 0, 60, 0
1, 36000, Note_on_c, 0, 79, 73
1, 36000, Note_on_c, 0, 36, 58
1, 36000, Note_on_c, 0, 48, 71
1, 36120, Note_on_c, 0, 79, 0
1, 36120, Note_on_c, 0, 81, 68
1, 36180, Note_on_c, 0, 83, 68
1, 36190, Note_on_c, 0, 81, 0
1, 36240, Tempo, 710059
1, 36240, Note_on_c, 0, 84, 70
1, 36250, Note_on_c, 0, 83, 0
1, 36300, Tempo, 714286
1, 36300, Note_on_c, 0, 86, 70
1, 36310, Note_on_c, 0, 84, 0
1, 36340, Tempo, 718563
1, 36360, Note_on_c, 0, 88, 71
1, 36370, Note_on_c, 0, 86, 0
1, 36400, Tempo, 722892
1, 36420, Note_on_c, 0, 89, 73
1, 36430, Note_on_c, 0, 88, 0
1, 36440, Tempo, 727273
1, 36480, Tempo, 779221
1, 36480, Note_on_c, 0, 36, 0
1, 36480, Note_on_c, 0, 48, 0
1, 36480, Note_on_c, 0, 91, 83
1, 36480, Note_on_c, 0, 64, 66
1, 36480, Note_on_c, 0, 60, 55
1, 36480, Note_on_c, 0, 55, 55
1, 36490, Note_on_c, 0, 89, 0
1, 36491, Control_c, 0, 64, 0
1, 36510, Note_on_c, 0, 91, 0
1, 36522, Control_c, 0, 64, 127
1, 36540, Tempo, 714286
1, 36540, Note_on_c, 0, 91, 71
1, 36600, Note_on_c, 0, 93, 73
1, 36610, Note_on_c, 0, 91, 0
1, 36660, Note_on_c, 0, 95, 73
1, 36670, Note_on_c, 0, 93, 0
1, 36720, Tempo, 714286
1, 36720, Note_on_c, 0, 96, 74
1, 36730, Note_on_c, 0, 95, 0
1, 36780, Note_on_c, 0, 98, 77
1, 36790, Note_on_c, 0, 96, 0
1, 36800, Tempo, 710059
1, 36840, Note_on_c, 0, 100, 79
1, 36850, Note_on_c, 0, 98, 0
1, 36880, Tempo, 705882
1, 36900, Note_on_c, 0, 101, 80
1, 36910, Note_on_c, 0, 100, 0
1, 36940, Tempo, 701754
1, 36960, Tempo, 722892
1, 36960, Note_on_c, 0, 60, 0
1, 36960, Note_on_c, 0, 55, 0
1, 36960, Note_on_c, 0, 64, 0
1, 36960, Note_on_c, 0, 103, 84
1, 36960, Note_on_c, 0, 64, 63
1, 36960, Note_on_c, 0, 60, 51
1, 36960, Note_on_c, 0, 55, 51
1, 36969, Control_c, 0, 64, 0
1, 36970, Note_on_c, 0, 101, 0
1, 37002, Control_c, 0, 64, 127
1, 37030, Note_on_c, 0, 103, 0
1, 37179, Control_c, 0, 64, 0
1, 37200, Tempo, 727273
1, 37200, Note_on_c, 0, 72, 73
1, 37267, Control_c, 0, 64, 127
1, 37440, Tempo, 714286
1, 37440, Note_on_c, 0, 72, 0
1, 37440, Note_on_c, 0, 55, 0
1, 37440, Note_on_c, 0, 64, 0
1, 37440, Note_on_c, 0, 60, 0
1, 37440, Note_on_c, 0, 74, 73
1, 37440, Note_on_c, 0, 31, 63
1, 37440, Note_on_c, 0, 43, 78
1, 37560, Note_on_c, 0, 74, 0
1, 37560, Note_on_c, 0, 76, 68
1, 37620, Note_on_c, 0, 77, 68
1, 37630, Note_on_c, 0, 76, 0
1, 37680, Tempo, 710059
1, 37680, Note_on_c, 0, 79, 70
1, 37690, Note_on_c, 0, 77, 0
1, 37740, Tempo, 714286
1, 37740, Note_on_c, 0, 81, 70
1, 37750, Note_on_c, 0, 79, 0
1, 37780, Tempo, 718563
1, 37800, Note_on_c, 0, 83, 71
1, 37810, Note_on_c, 0, 81, 0
1, 37840, Tempo, 722892
1, 37860, Note_on_c, 0, 84, 73
1, 37870, Note_on_c, 0, 83, 0
1, 37880, Tempo, 727273
1, 37920, Tempo, 779221
1, 37920, Note_on_c, 0, 31, 0
1, 37920, Note_on_c, 0, 43, 0
1, 37920, Note_on_c, 0, 86, 83
1, 37920, Note_on_c, 0, 65, 66
1, 37920, Note_on_c, 0, 59, 55
1, 37920, Note_on_c, 0, 55, 55
1, 37930, Note_on_c, 0, 84, 0
1, 37931, Control_c, 0, 64, 0
1, 37950, Note_on_c, 0, 86, 0
1, 37959, Control_c, 0, 64, 127
1, 37980, Tempo, 714286
1, 37980, Note_on_c, 0, 86, 73
1, 38040, Note_on_c, 0, 88, 74
1, 38050, Note_on_c, 0, 86, 0
1, 38100, Note_on_c, 0, 89, 75
1, 38110, Note_on_c, 0, 88, 0
1, 38160, Tempo, 718563
1, 38160, Note_on_c, 0, 91, 78
1, 38170, Note_on_c, 0, 89, 0
1, 38200, Tempo, 714286
1, 38220, Tempo, 710059
1, 38220, Note_on_c, 0, 93, 79
1, 38230, Note_on_c, 0, 91, 0
1, 38240, Tempo, 705882
1, 38260, Tempo, 701754
1, 38280, Note_on_c, 0, 95, 81
1, 38290, Note_on_c, 0, 93, 0
1, 38300, Tempo, 697674
1, 38320, Tempo, 693642
1, 38340, Tempo, 689655
1, 38340, Note_on_c, 0, 96, 82
1, 38350, Note_on_c, 0, 95, 0
1, 38360, Tempo, 685714
1, 38380, Tempo, 740741
1, 38400, Tempo, 714286
1, 38400, Note_on_c, 0, 59, 0
1, 38400, Note_on_c, 0, 55, 0
1, 38400, Note_on_c, 0, 65, 0
1, 38400, Note_on_c, 0, 98, 85
1, 38400, Note_on_c, 0, 65, 63
1, 38400, Note_on_c, 0, 59, 51
1, 38400, Note_on_c, 0, 55, 51
1, 38404, Control_c, 0, 64, 0
1, 38410, Note_on_c, 0, 96, 0
1, 38428, Control_c, 0, 64, 127
1, 38470, Note_on_c, 0, 98, 0
1, 38481, Control_c, 0, 64, 0
1, 38640, Tempo, 722892
1, 38640, Note_on_c, 0, 76, 73
1, 38672, Control_c, 0, 64, 127
1, 38880, Tempo, 714286
1, 38880, Note_on_c, 0, 76, 0
1, 38880, Note_on_c, 0, 55, 0
1, 38880, Note_on_c, 0, 65, 0
1, 38880, Note_on_c, 0, 59, 0
1, 38880, Note_on_c, 0, 72, 73
1, 38880, Note_on_c, 0, 36, 58
1, 38880, Note_on_c, 0, 48, 71
1, 39000, Note_on_c, 0, 72, 0
1, 39000, Note_on_c, 0, 74, 68
1, 39060, Note_on_c, 0, 76, 68
1, 39070, Note_on_c, 0, 74, 0
1, 39120, Tempo, 710059
1, 39120, Note_on_c, 0, 77, 70
1, 39130, Note_on_c, 0, 76, 0
1, 39180, Tempo, 714286
1, 39180, Note_on_c, 0, 79, 70
1, 39190, Note_on_c, 0, 77, 0
1, 39220, Tempo, 718563
1, 39240, Note_on_c, 0, 81, 71
1, 39250, Note_on_c, 0, 79, 0
1, 39280, Tempo, 722892
1, 39300, Note_on_c, 0, 83, 73
1, 39310, Note_on_c, 0, 81, 0
1, 39320, Tempo, 727273
1, 39360, Tempo, 779221
1, 39360, Note_on_c, 0, 36, 0
1, 39360, Note_on_c, 0, 48, 0
1, 39360, Note_on_c, 0, 84, 79
1, 39360, Note_on_c, 0, 64, 66
1, 39360, Note_on_c, 0, 60, 55
1, 39360, Note_on_c, 0, 55, 55
1, 39370, Note_on_c, 0, 83, 0
1, 39370, Control_c, 0, 64, 0
1, 39390, Note_on_c, 0, 84, 0
1, 39409, Control_c, 0, 64, 127
1, 39420, Tempo, 714286
1, 39420, Note_on_c, 0, 84, 68
1, 39480, Note_on_c, 0, 86, 70
1, 39490, Note_on_c, 0, 84, 0
1, 39540, Note_on_c, 0, 88, 70
1, 39550, Note_on_c, 0, 86, 0
1, 39600, Tempo, 714286
1, 39600, Note_on_c, 0, 89, 71
1, 39610, Note_on_c, 0, 88, 0
1, 39620, Tempo, 718563
1, 39660, Tempo, 722892
1, 39660, Note_on_c, 0, 91, 73
1, 39670, Note_on_c, 0, 89, 0
1, 39680, Tempo, 727273
1, 39720, Tempo, 731707
1, 39720, Note_on_c, 0, 93, 73
1, 39730, Note_on_c, 0, 91, 0
1, 39740, Tempo, 736196
1, 39780, Tempo, 740741
1, 39780, Note_on_c, 0, 95, 77
1, 39790, Note_on_c, 0, 93, 0
1, 39800, Tempo, 745342
1, 39820, Tempo, 740741
1, 39840, Tempo, 750000
1, 39840, Note_on_c, 0, 60, 0
1, 39840, Note_on_c, 0, 55, 0
1, 39840, Note_on_c, 0, 64, 0
1, 39840, Note_on_c, 0, 96, 81
1, 39840, Note_on_c, 0, 64, 63
1, 39840, Note_on_c, 0, 60, 51
1, 39840, Note_on_c, 0, 55, 51
1, 39849, Control_c, 0, 64, 0
1, 39850, Note_on_c, 0, 95, 0
1, 39874, Control_c, 0, 64, 127
1, 39910, Note_on_c, 0, 96, 0
1, 39974, Control_c, 0, 64, 0
1, 40080, Tempo, 722892
1, 40080, Note_on_c, 0, 72, 70
1, 40112, Control_c, 0, 64, 127
1, 40320, Tempo, 714286
1, 40320, Note_on_c, 0, 72, 0
1, 40320, Note_on_c, 0, 55, 0
1, 40320, Note_on_c, 0, 64, 0
1, 40320, Note_on_c, 0, 60, 0
1, 40320, Note_on_c, 0, 69, 68
1, 40320, Note_on_c, 0, 36, 48
1, 40320, Note_on_c, 0, 48, 60
1, 40440, Note_on_c, 0, 69, 0
1, 40440, Note_on_c, 0, 71, 62
1, 40500, Note_on_c, 0, 72, 62
1, 40510, Note_on_c, 0, 71, 0
1, 40560, Tempo, 710059
1, 40560, Note_on_c, 0, 74, 64
1, 40570, Note_on_c, 0, 72, 0
1, 40620, Tempo, 714286
1, 40620, Note_on_c, 0, 76, 64
1, 40630, Note_on_c, 0, 74, 0
1, 40660, Tempo, 718563
1, 40680, Note_on_c, 0, 77, 66
1, 40690, Note_on_c, 0, 76, 0
1, 40720, Tempo, 722892
1, 40740, Note_on_c, 0, 79, 69
1, 40750, Note_on_c, 0, 77, 0
1, 40760, Tempo, 727273
1, 40800, Tempo, 779221
1, 40800, Note_on_c, 0, 36, 0
1, 40800, Note_on_c, 0, 48, 0
1, 40800, Note_on_c, 0, 81, 72
1, 40800, Note_on_c, 0, 65, 52
1, 40800, Note_on_c, 0, 60, 44
1, 40800, Note_on_c, 0, 57, 44
1, 40809, Control_c, 0, 64, 0
1, 40810, Note_on_c, 0, 79, 0
1, 40830, Note_on_c, 0, 81, 0
1, 40842, Control_c, 0, 64, 127
1, 40860, Tempo, 714286
1, 40860, Note_on_c, 0, 81, 62
1, 40920, Note_on_c, 0, 83, 64
1, 40930, Note_on_c, 0, 81, 0
1, 40980, Note_on_c, 0, 84, 64
1, 40990, Note_on_c, 0, 83, 0
1, 41040, Tempo, 714286
1, 41040, Note_on_c, 0, 86, 66
1, 41050, Note_on_c, 0, 84, 0
1, 41060, Tempo, 718563
1, 41100, Tempo, 722892
1, 41100, Note_on_c, 0, 88, 68
1, 41110, Note_on_c, 0, 86, 0
1, 41120, Tempo, 727273
1, 41160, Tempo, 731707
1, 41160, Note_on_c, 0, 89, 69
1, 41170, Note_on_c, 0, 88, 0
1, 41180, Tempo, 736196
1, 41220, Tempo, 740741
1, 41220, Note_on_c, 0, 91, 70
1, 41230, Note_on_c, 0, 89, 0
1, 41240, Tempo, 745342
1, 41260, Tempo, 740741
1, 41280, Tempo, 727273
1, 41280, Note_on_c, 0, 60, 0
1, 41280, Note_on_c, 0, 57, 0
1, 41280, Note_on_c, 0, 65, 0
1, 41280, Note_on_c, 0, 93, 74
1, 41280, Note_on_c, 0, 65, 50
1, 41280, Note_on_c, 0, 60, 41
1, 41280, Note_on_c, 0, 57, 41
1, 41290, Note_on_c, 0, 91, 0
1, 41292, Control_c, 0, 64, 0
1, 41333, Control_c, 0, 64, 127
1, 41350, Note_on_c, 0, 93, 0
1, 41411, Control_c, 0, 64, 0
1, 41520, Tempo, 722892
1, 41520, Note_on_c, 0, 72, 64
1, 41552, Control_c, 0, 64, 127
1, 41760, Tempo, 714286
1, 41760, Note_on_c, 0, 72, 0
1, 41760, Note_on_c, 0, 57, 0
1, 41760, Note_on_c, 0, 65, 0
1, 41760, Note_on_c, 0, 60, 0
1, 41760, Note_on_c, 0, 67, 61
1, 41760, Note_on_c, 0, 36, 41
1, 41760, Note_on_c, 0, 48, 52
1, 41880, Note_on_c, 0, 67, 0
1, 41880, Note_on_c, 0, 69, 56
1, 41940, Note_on_c, 0, 71, 56
1, 41950, Note_on_c, 0, 69, 0
1, 42000, Tempo, 710059
1, 42000, Note_on_c, 0, 72, 57
1, 42010, Note_on_c, 0, 71, 0
1, 42060, Tempo, 714286
1, 42060, Note_on_c, 0, 74, 57
1, 42070, Note_on_c, 0, 72, 0
1, 42100, Tempo, 718563
1, 42120, Note_on_c, 0, 76, 58
1, 42130, Note_on_c, 0, 74, 0
1, 42160, Tempo, 722892
1, 42180, Note_on_c, 0, 77, 61
1, 42190, Note_on_c, 0, 76, 0
1, 42200, Tempo, 727273
1, 42240, Tempo, 779221
1, 42240, Note_on_c, 0, 36, 0
1, 42240, Note_on_c, 0, 48, 0
1, 42240, Note_on_c, 0, 79, 64
1, 42240, Note_on_c, 0, 64, 48
1, 42240, Note_on_c, 0, 60, 39
1, 42240, Note_on_c, 0, 55, 39
1, 42250, Note_on_c, 0, 77, 0
1, 42250, Control_c, 0, 64, 0
1, 42270, Note_on_c, 0, 79, 0
1, 42286, Control_c, 0, 64, 127
1, 42300, Tempo, 714286
1, 42300, Note_on_c, 0, 79, 56
1, 42360, Note_on_c, 0, 81, 57
1, 42370, Note_on_c, 0, 79, 0
1, 42420, Note_on_c, 0, 83, 57
1, 42430, Note_on_c, 0, 81, 0
1, 42480, Tempo, 714286
1, 42480, Note_on_c, 0, 84, 58
1, 42490, Note_on_c, 0, 83, 0
1, 42500, Tempo, 718563
1, 42540, Tempo, 722892
1, 42540, Note_on_c, 0, 86, 61
1, 42550, Note_on_c, 0, 84, 0
1, 42560, Tempo, 727273
1, 42600, Tempo, 731707
1, 42600, Note_on_c, 0, 88, 61
1, 42610, Note_on_c, 0, 86, 0
1, 42620, Tempo, 736196
1, 42660, Tempo, 740741
1, 42660, Note_on_c, 0, 89, 62
1, 42670, Note_on_c, 0, 88, 0
1, 42680, Tempo, 745342
1, 42700, Tempo, 740741
1, 42720, Tempo, 750000
1, 42720, Note_on_c, 0, 60, 0
1, 42720, Note_on_c, 0, 55, 0
1, 42720, Note_on_c, 0, 64, 0
1, 42720, Note_on_c, 0, 91, 66
1, 42720, Note_on_c, 0, 64, 44
1, 42720, Note_on_c, 0, 60, 37
1, 42720, Note_on_c, 0, 55, 37
1, 42730, Note_on_c, 0, 89, 0
1, 42731, Control_c, 0, 64, 0
1, 42790, Note_on_c, 0, 91, 0
1, 42960, Tempo, 727273
1, 42960, Note_on_c, 0, 72, 57
1, 42992, Control_c, 0, 64, 127
1, 43200, Tempo, 714286
1, 43200, Note_on_c, 0, 72, 0
1, 43200, Note_on_c, 0, 55, 0
1, 43200, Note_on_c, 0, 64, 0
1, 43200, Note_on_c, 0, 60, 0
1, 43200, Note_on_c, 0, 74, 57
1, 43200, Note_on_c, 0, 31, 40
1, 43200, Note_on_c, 0, 43, 49
1, 43320, Note_on_c, 0, 74, 0
1, 43320, Note_on_c, 0, 76, 51
1, 43380, Note_on_c, 0, 77, 51
1, 43390, Note_on_c, 0, 76, 0
1, 43440, Tempo, 710059
1, 43440, Note_on_c, 0, 79, 52
1, 43450, Note_on_c, 0, 77, 0
1, 43500, Tempo, 714286
1, 43500, Note_on_c, 0, 81, 52
1, 43510, Note_on_c, 0, 79, 0
1, 43540, Tempo, 718563
1, 43560, Note_on_c, 0, 83, 55
1, 43570, Note_on_c, 0, 81, 0
1, 43600, Tempo, 722892
1, 43620, Note_on_c, 0, 84, 58
1, 43630, Note_on_c, 0, 83, 0
1, 43640, Tempo, 727273
1, 43680, Tempo, 779221
1, 43680, Note_on_c, 0, 31, 0
1, 43680, Note_on_c, 0, 43, 0
1, 43680, Note_on_c, 0, 86, 66
1, 43680, Note_on_c, 0, 65, 44
1, 43680, Note_on_c, 0, 59, 38
1, 43680, Note_on_c, 0, 55, 38
1, 43690, Note_on_c, 0, 84, 0
1, 43691, Control_c, 0, 64, 0
1, 43710, Note_on_c, 0, 86, 0
1, 43726, Control_c, 0, 64, 127
1, 43740, Tempo, 714286
1, 43740, Note_on_c, 0, 86, 58
1, 43800, Note_on_c, 0, 88, 60
1, 43810, Note_on_c, 0, 86, 0
1, 43860, Note_on_c, 0, 89, 61
1, 43870, Note_on_c, 0, 88, 0
1, 43920, Tempo, 714286
1, 43920, Note_on_c, 0, 91, 62
1, 43930, Note_on_c, 0, 89, 0
1, 43940, Tempo, 718563
1, 43980, Tempo, 722892
1, 43980, Note_on_c, 0, 93, 64
1, 43990, Note_on_c, 0, 91, 0
1, 44000, Tempo, 727273
1, 44040, Tempo, 731707
1, 44040, Note_on_c, 0, 95, 66
1, 44050, Note_on_c, 0, 93, 0
1, 44060, Tempo, 736196
1, 44100, Tempo, 740741
1, 44100, Note_on_c, 0, 96, 67
1, 44110, Note_on_c, 0, 95, 0
1, 44120, Tempo, 745342
1, 44140, Tempo, 740741
1, 44160, Tempo, 750000
1, 44160, Note_on_c, 0, 59, 0
1, 44160, Note_on_c, 0, 55, 0
1, 44160, Note_on_c, 0, 65, 0
1, 44160, Note_on_c, 0, 98, 68
1, 44160, Note_on_c, 0, 65, 41
1, 44160, Note_on_c, 0, 59, 34
1, 44160, Note_on_c, 0, 55, 34
1, 44167, Control_c, 0, 64, 0
1, 44170, Note_on_c, 0, 96, 0
1, 44199, Control_c, 0, 64, 127
1, 44230, Note_on_c, 0, 98, 0
1, 44241, Control_c, 0, 64, 0
1, 44400, Tempo, 722892
1, 44400, Note_on_c, 0, 76, 48
1, 44432, Control_c, 0, 64, 127
1, 44640, Tempo, 714286
1, 44640, Note_on_c, 0, 76, 0
1, 44640, Note_on_c, 0, 55, 0
1, 44640, Note_on_c, 0, 65, 0
1, 44640, Note_on_c, 0, 59, 0
1, 44640, Note_on_c, 0, 72, 48
1, 44640, Note_on_c, 0, 36, 34
1, 44640, Note_on_c, 0, 48, 41
1, 44760, Note_on_c, 0, 72, 0
1, 44760, Note_on_c, 0, 74, 44
1, 44820, Note_on_c, 0, 76, 44
1, 44830, Note_on_c, 0, 74, 0
1, 44880, Tempo, 710059
1, 44880, Note_on_c, 0, 77, 45
1, 44890, Note_on_c, 0, 76, 0
1, 44940, Tempo, 714286
1, 44940, Note_on_c, 0, 79, 45
1, 44950, Note_on_c, 0, 77, 0
1, 44980, Tempo, 718563
1, 45000, Note_on_c, 0, 81, 46
1, 45010, Note_on_c, 0, 79, 0
1, 45040, Tempo, 722892
1, 45060, Note_on_c, 0, 83, 49
1, 45070, Note_on_c, 0, 81, 0
1, 45080, Tempo, 727273
1, 45120, Tempo, 779221
1, 45120, Note_on_c, 0, 36, 0
1, 45120, Note_on_c, 0, 48, 0
1, 45120, Note_on_c, 0, 84, 51
1, 45120, Note_on_c, 0, 64, 38
1, 45120, Note_on_c, 0, 60, 31
1, 45120, Note_on_c, 0, 55, 31
1, 45130, Note_on_c, 0, 83, 0
1, 45130, Control_c, 0, 64, 0
1, 45150, Note_on_c, 0, 84, 0
1, 45159, Control_c, 0, 64, 127
1, 45180, Tempo, 714286
1, 45180, Note_on_c, 0, 84, 44
1, 45240, Note_on_c, 0, 86, 45
1, 45250, Note_on_c, 0, 84, 0
1, 45300, Note_on_c, 0, 88, 45
1, 45310, Note_on_c, 0, 86, 0
1, 45360, Tempo, 722892
1, 45360, Note_on_c, 0, 89, 46
1, 45370, Note_on_c, 0, 88, 0
1, 45400, Tempo, 727273
1, 45420, Tempo, 731707
1, 45420, Note_on_c, 0, 91, 48
1, 45430, Note_on_c, 0, 89, 0
1, 45440, Tempo, 736196
1, 45460, Tempo, 740741
1, 45480, Tempo, 745342
1, 45480, Note_on_c, 0, 93, 49
1, 45490, Note_on_c, 0, 91, 0
1, 45520, Tempo, 750000
1, 45540, Tempo, 754717
1, 45540, Note_on_c, 0, 95, 50
1, 45550, Note_on_c, 0, 93, 0
1, 45560, Tempo, 759494
1, 45580, Tempo, 764331
1, 45600, Tempo, 769231
1, 45600, Note_on_c, 0, 60, 0
1, 45600, Note_on_c, 0, 55, 0
1, 45600, Note_on_c, 0, 64, 0
1, 45600, Note_on_c, 0, 96, 52
1, 45600, Note_on_c, 0, 64, 36
1, 45600, Note_on_c, 0, 60, 29
1, 45600, Note_on_c, 0, 55, 29
1, 45607, Control_c, 0, 64, 0
1, 45610, Note_on_c, 0, 95, 0
1, 45656, Control_c, 0, 64, 127
1, 45670, Note_on_c, 0, 96, 0
1, 45745, Control_c, 0, 64, 0
1, 45840, Tempo, 736196
1, 45840, Note_on_c, 0, 76, 42
1, 45872, Control_c, 0, 64, 127
1, 46080, Tempo, 714286
1, 46080, Note_on_c, 0, 76, 0
1, 46080, Note_on_c, 0, 55, 0
1, 46080, Note_on_c, 0, 64, 0
1, 46080, Note_on_c, 0, 60, 0
1, 46080, Note_on_c, 0, 79, 42
1, 46080, Note_on_c, 0, 36, 30
1, 46080, Note_on_c, 0, 48, 37
1, 46200, Note_on_c, 0, 79, 0
1, 46200, Note_on_c, 0, 81, 39
1, 46260, Note_on_c, 0, 83, 39
1, 46270, Note_on_c, 0, 81, 0
1, 46320, Tempo, 710059
1, 46320, Note_on_c, 0, 84, 40
1, 46330, Note_on_c, 0, 83, 0
1, 46380, Tempo, 714286
1, 46380, Note_on_c, 0, 86, 40
1, 46390, Note_on_c, 0, 84, 0
1, 46420, Tempo, 718563
1, 46440, Note_on_c, 0, 88, 41
1, 46450, Note_on_c, 0, 86, 0
1, 46480, Tempo, 722892
1, 46500, Note_on_c, 0, 89, 42
1, 46510, Note_on_c, 0, 88, 0
1, 46520, Tempo, 727273
1, 46560, Tempo, 779221
1, 46560, Note_on_c, 0, 36, 0
1, 46560, Note_on_c, 0, 48, 0
1, 46560, Note_on_c, 0, 91, 49
1, 46560, Note_on_c, 0, 64, 33
1, 46560, Note_on_c, 0, 60, 28
1, 46560, Note_on_c, 0, 55, 28
1, 46570, Note_on_c, 0, 89, 0
1, 46571, Control_c, 0, 64, 0
1, 46590, Note_on_c, 0, 91, 0
1, 46602, Control_c, 0, 64, 127
1, 46620, Tempo, 714286
1, 46620, Note_on_c, 0, 91, 41
1, 46680, Note_on_c, 0, 93, 42
1, 46690, Note_on_c, 0, 91, 0
1, 46740, Note_on_c, 0, 95, 42
1, 46750, Note_on_c, 0, 93, 0
1, 46800, Tempo, 714286
1, 46800, Note_on_c, 0, 96, 44
1, 46810, Note_on_c, 0, 95, 0
1, 46820, Tempo, 718563
1, 46860, Tempo, 722892
1, 46860, Note_on_c, 0, 98, 45
1, 46870, Note_on_c, 0, 96, 0
1, 46880, Tempo, 727273
1, 46920, Tempo, 731707
1, 46920, Note_on_c, 0, 100, 48
1, 46930, Note_on_c, 0, 98, 0
1, 46940, Tempo, 736196
1, 46980, Tempo, 740741
1, 46980, Note_on_c, 0, 101, 49
1, 46990, Note_on_c, 0, 100, 0
1, 47000, Tempo, 745342
1, 47020, Tempo, 740741
1, 47040, Tempo, 769231
1, 47040, Note_on_c, 0, 60, 0
1, 47040, Note_on_c, 0, 55, 0
1, 47040, Note_on_c, 0, 64, 0
1, 47040, Note_on_c, 0, 103, 51
1, 47040, Note_on_c, 0, 64, 31
1, 47040, Note_on_c, 0, 60, 26
1, 47040, Note_on_c, 0, 55, 26
1, 47050, Note_on_c, 0, 101, 0
1, 47053, Control_c, 0, 64, 0
1, 47089, Control_c, 0, 64, 127
1, 47110, Note_on_c, 0, 103, 0
1, 47192, Control_c, 0, 64, 0
1, 47280, Tempo, 722892
1, 47280, Note_on_c, 0, 76, 42
1, 47312, Control_c, 0, 64, 127
1, 47520, Tempo, 714286
1, 47520, Note_on_c, 0, 76, 0
1, 47520, Note_on_c, 0, 55, 0
1, 47520, Note_on_c, 0, 64, 0
1, 47520, Note_on_c, 0, 60, 0
1, 47520, Note_on_c, 0, 72, 42
1, 47520, Note_on_c, 0, 36, 30
1, 47520, Note_on_c, 0, 48, 37
1, 47640, Note_on_c, 0, 72, 0
1, 47640, Note_on_c, 0, 74, 39
1, 47700, Note_on_c, 0, 76, 39
1, 47710, Note_on_c, 0, 74, 0
1, 47760, Tempo, 710059
1, 47760, Note_on_c, 0, 77, 40
1, 47770, Note_on_c, 0, 76, 0
1, 47820, Tempo, 714286
1, 47820, Note_on_c, 0, 79, 40
1, 47830, Note_on_c, 0, 77, 0
1, 47860, Tempo, 718563
1, 47880, Note_on_c, 0, 81, 41
1, 47890, Note_on_c, 0, 79, 0
1, 47920, Tempo, 722892
1, 47940, Note_on_c, 0, 83, 42
1, 47950, Note_on_c, 0, 81, 0
1, 47960, Tempo, 727273
1, 48000, Tempo, 779221
1, 48000, Note_on_c, 0, 36, 0
1, 48000, Note_on_c, 0, 48, 0
1, 48000, Note_on_c, 0, 84, 45
1, 48000, Note_on_c, 0, 64, 33
1, 48000, Note_on_c, 0, 60, 28
1, 48000, Note_on_c, 0, 55, 28
1, 48009, Control_c, 0, 64, 0
1, 48010, Note_on_c, 0, 83, 0
1, 48030, Note_on_c, 0, 84, 0
1, 48042, Control_c, 0, 64, 127
1, 48060, Tempo, 714286
1, 48060, Note_on_c, 0, 84, 39
1, 48120, Note_on_c, 0, 86, 40
1, 48130, Note_on_c, 0, 84, 0
1, 48180, Note_on_c, 0, 88, 40
1, 48190, Note_on_c, 0, 86, 0
1, 48240, Tempo, 714286
1, 48240, Note_on_c, 0, 89, 41
1, 48250, Note_on_c, 0, 88, 0
1, 48260, Tempo, 718563
1, 48300, Tempo, 722892
1, 48300, Note_on_c, 0, 91, 42
1, 48310, Note_on_c, 0, 89, 0
1, 48320, Tempo, 727273
1, 48360, Tempo, 731707
1, 48360, Note_on_c, 0, 93, 42
1, 48370, Note_on_c, 0, 91, 0
1, 48380, Tempo, 736196
1, 48420, Tempo, 740741
1, 48420, Note_on_c, 0, 95, 44
1, 48430, Note_on_c, 0, 93, 0
1, 48440, Tempo, 745342
1, 48460, Tempo, 740741
1, 48480, Tempo, 750000
1, 48480, Note_on_c, 0, 60, 0
1, 48480, Note_on_c, 0, 55, 0
1, 48480, Note_on_c, 0, 64, 0
1, 48480, Note_on_c, 0, 96, 46
1, 48480, Note_on_c, 0, 64, 31
1, 48480, Note_on_c, 0, 60, 26
1, 48480, Note_on_c, 0, 55, 26
1, 48486, Control_c, 0, 64, 0
1, 48490, Note_on_c, 0, 95, 0
1, 48530, Control_c, 0, 64, 127
1, 48550, Note_on_c, 0, 96, 0
1, 48604, Control_c, 0, 64, 0
1, 48720, Tempo, 736196
1, 48720, Note_on_c, 0, 76, 41
1, 48752, Control_c, 0, 64, 127
1, 48840, Note_on_c, 0, 76, 0
1, 48840, Note_on_c, 0, 81, 37
1, 48960, Tempo, 714286
1, 48960, Note_on_c, 0, 81, 0
1, 48960, Note_on_c, 0, 60, 0
1, 48960, Note_on_c, 0, 64, 0
1, 48960, Note_on_c, 0, 55, 0
1, 48960, Note_on_c, 0, 79, 38
1, 48960, Note_on_c, 0, 36, 27
1, 48960, Note_on_c, 0, 48, 31
1, 49080, Note_on_c, 0, 79, 0
1, 49080, Note_on_c, 0, 81, 34
1, 49140, Note_on_c, 0, 83, 34
1, 49150, Note_on_c, 0, 81, 0
1, 49200, Tempo, 710059
1, 49200, Note_on_c, 0, 84, 36
1, 49210, Note_on_c, 0, 83, 0
1, 49260, Tempo, 714286
1, 49260, Note_on_c, 0, 86, 36
1, 49270, Note_on_c, 0, 84, 0
1, 49300, Tempo, 718563
1, 49320, Note_on_c, 0, 88, 37
1, 49330, Note_on_c, 0, 86, 0
1, 49360, Tempo, 722892
1, 49380, Note_on_c, 0, 89, 38
1, 49390, Note_on_c, 0, 88, 0
1, 49400, Tempo, 727273
1, 49440, Tempo, 779221
1, 49440, Note_on_c, 0, 36, 0
1, 49440, Note_on_c, 0, 48, 0
1, 49440, Note_on_c, 0, 91, 42
1, 49440, Note_on_c, 0, 64, 29
1, 49440, Note_on_c, 0, 60, 25
1, 49440, Note_on_c, 0, 55, 25
1, 49450, Note_on_c, 0, 89, 0
1, 49450, Control_c, 0, 64, 0
1, 49470, Note_on_c, 0, 91, 0
1, 49500, Tempo, 714286
1, 49500, Note_on_c, 0, 91, 37
1, 49528, Control_c, 0, 64, 127
1, 49560, Note_on_c, 0, 93, 38
1, 49570, Note_on_c, 0, 91, 0
1, 49620, Note_on_c, 0, 95, 38
1, 49630, Note_on_c, 0, 93, 0
1, 49680, Tempo, 714286
1, 49680, Note_on_c, 0, 96, 39
1, 49690, Note_on_c, 0, 95, 0
1, 49700, Tempo, 718563
1, 49740, Tempo, 722892
1, 49740, Note_on_c, 0, 98, 40
1, 49750, Note_on_c, 0, 96, 0
1, 49760, Tempo, 727273
1, 49800, Tempo, 731707
1, 49800, Note_on_c, 0, 100, 42
1, 49810, Note_on_c, 0, 98, 0
1, 49820, Tempo, 736196
1, 49860, Tempo, 740741
1, 49860, Note_on_c, 0, 101, 42
1, 49870, Note_on_c, 0, 100, 0
1, 49880, Tempo, 745342
1, 49900, Tempo, 740741
1, 49920, Tempo, 769231
1, 49920, Note_on_c, 0, 60, 0
1, 49920, Note_on_c, 0, 55, 0
1, 49920, Note_on_c, 0, 64, 0
1, 49920, Note_on_c, 0, 103, 45
1, 49920, Note_on_c, 0, 64, 28
1, 49920, Note_on_c, 0, 60, 22
1, 49920, Note_on_c, 0, 55, 22
1, 49930, Note_on_c, 0, 101, 0
1, 49931, Control_c, 0, 64, 0
1, 49959, Control_c, 0, 64, 127
1, 49990, Note_on_c, 0, 103, 0
1, 50068, Control_c, 0, 64, 0
1, 50160, Tempo, 722892
1, 50160, Note_on_c, 0, 76, 42
1, 50192, Control_c, 0, 64, 127
1, 50400, Tempo, 736196
1, 50400, Note_on_c, 0, 76, 0
1, 50400, Note_on_c, 0, 55, 0
1, 50400, Note_on_c, 0, 64, 0
1, 50400, Note_on_c, 0, 60, 0
1, 50400, Note_on_c, 0, 72, 42
1, 50400, Note_on_c, 0, 36, 30
1, 50400, Note_on_c, 0, 48, 37
1, 50520, Note_on_c, 0, 72, 0
1, 50520, Note_on_c, 0, 74, 39
1, 50580, Note_on_c, 0, 76, 39
1, 50590, Note_on_c, 0, 74, 0
1, 50640, Tempo, 731707
1, 50640, Note_on_c, 0, 77, 40
1, 50650, Note_on_c, 0, 76, 0
1, 50680, Tempo, 736196
1, 50700, Note_on_c, 0, 79, 40
1, 50710, Note_on_c, 0, 77, 0
1, 50720, Tempo, 740741
1, 50740, Tempo, 745342
1, 50760, Note_on_c, 0, 81, 42
1, 50770, Note_on_c, 0, 79, 0
1, 50780, Tempo, 750000
1, 50800, Tempo, 754717
1, 50820, Note_on_c, 0, 83, 44
1, 50830, Note_on_c, 0, 81, 0
1, 50840, Tempo, 759494
1, 50860, Tempo, 764331
1, 50880, Tempo, 779221
1, 50880, Note_on_c, 0, 36, 0
1, 50880, Note_on_c, 0, 48, 0
1, 50880, Note_on_c, 0, 84, 46
1, 50890, Note_on_c, 0, 83, 0
1, 50894, Control_c, 0, 64, 0
1, 50910, Note_on_c, 0, 84, 0
1, 50940, Tempo, 745342
1, 50940, Note_on_c, 0, 76, 41
1, 50940, Note_on_c, 0, 60, 34
1, 50968, Control_c, 0, 64, 127
1, 51000, Note_on_c, 0, 77, 42
1, 51000, Note_on_c, 0, 62, 36
1, 51010, Note_on_c, 0, 60, 0
1, 51010, Note_on_c, 0, 76, 0
1, 51060, Note_on_c, 0, 79, 45
1, 51060, Note_on_c, 0, 64, 37
1, 51070, Note_on_c, 0, 77, 0
1, 51070, Note_on_c, 0, 62, 0
1, 51120, Tempo, 745342
1, 51120, Note_on_c, 0, 81, 46
1, 51120, Note_on_c, 0, 65, 39
1, 51130, Note_on_c, 0, 79, 0
1, 51130, Note_on_c, 0, 64, 0
1, 51160, Tempo, 750000
1, 51180, Tempo, 754717
1, 51180, Note_on_c, 0, 83, 49
1, 51180, Note_on_c, 0, 67, 41
1, 51190, Note_on_c, 0, 81, 0
1, 51190, Note_on_c, 0, 65, 0
1, 51200, Tempo, 759494
1, 51220, Tempo, 764331
1, 51240, Note_on_c, 0, 84, 51
1, 51240, Note_on_c, 0, 69, 42
1, 51250, Note_on_c, 0, 83, 0
1, 51250, Note_on_c, 0, 67, 0
1, 51260, Tempo, 769231
1, 51280, Tempo, 774194
1, 51300, Tempo, 779221
1, 51300, Note_on_c, 0, 86, 52
1, 51300, Note_on_c, 0, 71, 42
1, 51310, Note_on_c, 0, 84, 0
1, 51310, Note_on_c, 0, 69, 0
1, 51320, Tempo, 784314
1, 51340, Tempo, 789474
1, 51360, Tempo, 774194
1, 51360, Note_on_c, 0, 88, 53
1, 51360, Note_on_c, 0, 72, 45
1, 51367, Control_c, 0, 64, 0
1, 51370, Note_on_c, 0, 86, 0
1, 51370, Note_on_c, 0, 71, 0
1, 51420, Tempo, 750000
1, 51420, Note_on_c, 0, 79, 48
1, 51420, Note_on_c, 0, 64, 40
1, 51430, Note_on_c, 0, 88, 0
1, 51430, Note_on_c, 0, 72, 0
1, 51440, Tempo, 736196
1, 51455, Control_c, 0, 64, 127
1, 51480, Note_on_c, 0, 81, 49
1, 51480, Note_on_c, 0, 65, 41
1, 51490, Note_on_c, 0, 79, 0
1, 51490, Note_on_c, 0, 64, 0
1, 51540, Note_on_c, 0, 83, 51
1, 51540, Note_on_c, 0, 67, 42
1, 51550, Note_on_c, 0, 81, 0
1, 51550, Note_on_c, 0, 65, 0
1, 51600, Tempo, 714286
1, 51600, Note_on_c, 0, 84, 52
1, 51600, Note_on_c, 0, 69, 44
1, 51610, Note_on_c, 0, 83, 0
1, 51610, Note_on_c, 0, 67, 0
1, 51620, Tempo, 727273
1, 51640, Tempo, 736196
1, 51660, Tempo, 740741
1, 51660, Note_on_c, 0, 86, 53
1, 51660, Note_on_c, 0, 71, 45
1, 51670, Note_on_c, 0, 84, 0
1, 51670, Note_on_c, 0, 69, 0
1, 51680, Tempo, 745342
1, 51700, Tempo, 750000
1, 51720, Tempo, 759494
1, 51720, Note_on_c, 0, 88, 56
1, 51720, Note_on_c, 0, 72, 46
1, 51730, Note_on_c, 0, 86, 0
1, 51730, Note_on_c, 0, 71, 0
1, 51740, Tempo, 764331
1, 51760, Tempo, 769231
1, 51780, Tempo, 779221
1, 51780, Note_on_c, 0, 89, 57
1, 51780, Note_on_c, 0, 74, 48
1, 51790, Note_on_c, 0, 88, 0
1, 51790, Note_on_c, 0, 72, 0
1, 51800, Tempo, 784314
1, 51820, Tempo, 789474
1, 51840, Tempo, 800000
1, 51840, Note_on_c, 0, 91, 60
1, 51840, Note_on_c, 0, 76, 50
1, 51847, Control_c, 0, 64, 0
1, 51850, Note_on_c, 0, 89, 0
1, 51850, Note_on_c, 0, 74, 0
1, 51900, Tempo, 779221
1, 51900, Note_on_c, 0, 88, 51
1, 51900, Note_on_c, 0, 72, 42
1, 51910, Note_on_c, 0, 91, 0
1, 51910, Note_on_c, 0, 76, 0
1, 51935, Control_c, 0, 64, 127
1, 51960, Note_on_c, 0, 89, 52
1, 51960, Note_on_c, 0, 74, 44
1, 51970, Note_on_c, 0, 88, 0
1, 51970, Note_on_c, 0, 72, 0
1, 52020, Note_on_c, 0, 91, 56
1, 52020, Note_on_c, 0, 76, 46
1, 52030, Note_on_c, 0, 89, 0
1, 52030, Note_on_c, 0, 74, 0
1, 52060, Tempo, 750000
1, 52080, Tempo, 794702
1, 52080, Note_on_c, 0, 93, 56
1, 52080, Note_on_c, 0, 77, 48
1, 52090, Note_on_c, 0, 91, 0
1, 52090, Note_on_c, 0, 76, 0
1, 52120, Tempo, 800000
1, 52140, Tempo, 805369
1, 52140, Note_on_c, 0, 95, 61
1, 52140, Note_on_c, 0, 79, 50
1, 52150, Note_on_c, 0, 93, 0
1, 52150, Note_on_c, 0, 77, 0
1, 52160, Tempo, 810811
1, 52180, Tempo, 810811
1, 52200, Tempo, 821918
1, 52200, Note_on_c, 0, 96, 63
1, 52200, Note_on_c, 0, 81, 53
1, 52210, Note_on_c, 0, 95, 0
1, 52210, Note_on_c, 0, 79, 0
1, 52220, Tempo, 833333
1, 52240, Tempo, 845070
1, 52260, Tempo, 916031
1, 52260, Note_on_c, 0, 98, 70
1, 52260, Note_on_c, 0, 83, 57
1, 52270, Note_on_c, 0, 96, 0
1, 52270, Note_on_c, 0, 81, 0
1, 52320, Tempo, 875912
1, 52320, Note_on_c, 0, 100, 86
1, 52320, Note_on_c, 0, 84, 69
1, 52324, Control_c, 0, 64, 0
1, 52330, Note_on_c, 0, 98, 0
1, 52330, Note_on_c, 0, 83, 0
1, 52390, Note_on_c, 0, 100, 0
1, 52390, Note_on_c, 0, 84, 0
1, 52800, Note_on_c, 0, 64, 72
1, 52800, Note_on_c, 0, 67, 72
1, 52800, Note_on_c, 0, 76, 81
1, 52800, Note_on_c, 0, 72, 81
1, 52800, Note_on_c, 0, 48, 59
1, 52800, Note_on_c, 0, 55, 59
1, 52800, Note_on_c, 0, 60, 66
1, 52804, Control_c, 0, 64, 127
1, 52920, Note_on_c, 0, 60, 0
1, 52920, Note_on_c, 0, 48, 0
1, 52920, Note_on_c, 0, 67, 0
1, 52920, Note_on_c, 0, 76, 0
1, 52920, Note_on_c, 0, 64, 0
1, 52920, Note_on_c, 0, 55, 0
1, 52920, Note_on_c, 0, 72, 0
1, 52966, Control_c, 0, 64, 0
1, 53280, Note_on_c, 0, 55, 77
1, 53280, Note_on_c, 0, 52, 77
1, 53280, Note_on_c, 0, 60, 86
1, 53280, Note_on_c, 0, 36, 62
1, 53280, Note_on_c, 0, 43, 62
1, 53280, Note_on_c, 0, 48, 70
1, 53413, Control_c, 0, 64, 127
1, 54240, Note_on_c, 0, 48, 0
1, 54240, Note_on_c, 0, 52, 0
1, 54240, Note_on_c, 0, 60, 0
1, 54240, Note_on_c, 0, 55, 0
1, 54240, Note_on_c, 0, 43, 0
1, 54240, Note_on_c, 0, 36, 0
1, 54373, Control_c, 0, 64, 0
1, 54720, Tempo, 750000
1, 54720, End_track
0, 0, End_of_file
