0, 0, Header, 0, 1, 384
1, 0, Start_track
1, 0, Tempo, 512820
1, 0, Title_t, ""
1, 0, Control_c, 0, 64, 127
1, 0, Note_on_c, 0, 67, 16
1, 476, Note_on_c, 0, 69, 45
1, 507, Note_on_c, 0, 66, 12
1, 507, Note_off_c, 0, 67, 64
1, 666, Note_off_c, 0, 66, 64
1, 807, Note_on_c, 0, 55, 13
1, 811, Note_on_c, 0, 71, 37
1, 814, Note_off_c, 0, 69, 64
1, 849, Note_on_c, 0, 65, 39
1, 874, Note_on_c, 0, 76, 58
1, 986, Note_off_c, 0, 55, 64
1, 1021, Note_off_c, 0, 65, 64
1, 1036, Note_off_c, 0, 71, 64
1, 1181, Note_on_c, 0, 64, 45
1, 1192, Note_on_c, 0, 57, 21
1, 1197, Note_on_c, 0, 72, 69
1, 1228, Note_off_c, 0, 76, 64
1, 1336, Control_c, 0, 64, 0
1, 1468, Control_c, 0, 64, 127
1, 1510, Note_on_c, 0, 76, 88
1, 1556, Note_off_c, 0, 57, 64
1, 1595, Note_off_c, 0, 72, 64
1, 1599, Note_off_c, 0, 64, 64
1, 1740, Note_off_c, 0, 76, 64
1, 1840, Note_on_c, 0, 83, 99
1, 1849, Note_on_c, 0, 66, 30
1, 1853, Note_on_c, 0, 75, 34
1, 1866, Note_on_c, 0, 72, 30
1, 1936, Control_c, 0, 64, 0
1, 2116, Control_c, 0, 64, 127
1, 2170, Note_on_c, 0, 81, 90
1, 2186, Note_off_c, 0, 83, 64
1, 2300, Note_off_c, 0, 81, 64
1, 2322, Note_off_c, 0, 72, 64
1, 2328, Note_off_c, 0, 75, 64
1, 2362, Note_off_c, 0, 66, 64
1, 2507, Note_on_c, 0, 78, 76
1, 2520, Note_on_c, 0, 71, 59
1, 2520, Note_on_c, 0, 66, 8
1, 2535, Note_on_c, 0, 65, 34
1, 2540, Note_on_c, 0, 74, 36
1, 2903, Note_on_c, 0, 79, 94
1, 2911, Note_on_c, 0, 67, 59
1, 2922, Note_off_c, 0, 74, 64
1, 2938, Note_off_c, 0, 78, 64
1, 2964, Note_off_c, 0, 71, 64
1, 2964, Note_off_c, 0, 66, 64
1, 3148, Note_off_c, 0, 79, 64
1, 3206, Note_off_c, 0, 65, 64
1, 3211, Note_on_c, 0, 80, 92
1, 3215, Note_on_c, 0, 79, 59
1, 3219, Note_off_c, 0, 67, 64
1, 3223, Note_on_c, 0, 68, 53
1, 3236, Note_on_c, 0, 73, 27
1, 3240, Note_on_c, 0, 64, 51
1, 3314, Control_c, 0, 64, 0
1, 3434, Control_c, 0, 64, 127
1, 3459, Note_off_c, 0, 73, 64
1, 3470, Note_off_c, 0, 79, 64
1, 3509, Note_on_c, 0, 69, 57
1, 3509, Note_on_c, 0, 81, 92
1, 3520, Note_off_c, 0, 68, 64
1, 3559, Note_off_c, 0, 80, 64
1, 3588, Note_off_c, 0, 81, 64
1, 3641, Note_on_c, 0, 81, 84
1, 3766, Note_off_c, 0, 64, 64
1, 3872, Note_on_c, 0, 89, 91
1, 3886, Note_on_c, 0, 77, 64
1, 3900, Note_on_c, 0, 62, 52
1, 3936, Control_c, 0, 64, 0
1, 4166, Control_c, 0, 64, 127
1, 4201, Note_off_c, 0, 69, 64
1, 4275, Note_off_c, 0, 62, 64
1, 4332, Note_on_c, 0, 82, 71
1, 4337, Note_on_c, 0, 70, 53
1, 4343, Note_off_c, 0, 81, 64
1, 4448, Note_off_c, 0, 70, 64
1, 4535, Note_off_c, 0, 82, 64
1, 4638, Note_on_c, 0, 55, 40
1, 4872, Note_on_c, 0, 83, 89
1, 4894, Note_on_c, 0, 71, 41
1, 4908, Control_c, 0, 64, 0
1, 5086, Note_on_c, 0, 88, 80
1, 5140, Note_off_c, 0, 89, 64
1, 5147, Control_c, 0, 64, 127
1, 5257, Note_off_c, 0, 77, 64
1, 5356, Note_on_c, 0, 91, 63
1, 5384, Note_off_c, 0, 88, 64
1, 5594, Note_on_c, 0, 89, 71
1, 5629, Note_off_c, 0, 83, 64
1, 5660, Note_off_c, 0, 91, 64
1, 5779, Note_on_c, 0, 86, 82
1, 5818, Note_off_c, 0, 89, 64
1, 5944, Note_off_c, 0, 71, 64
1, 5953, Note_on_c, 0, 83, 102
1, 5970, Note_off_c, 0, 86, 64
1, 6075, Note_off_c, 0, 83, 64
1, 6100, Note_on_c, 0, 79, 77
1, 6173, Note_off_c, 0, 55, 64
1, 6214, Note_off_c, 0, 79, 64
1, 6250, Note_on_c, 0, 78, 88
1, 6334, Note_off_c, 0, 78, 64
1, 6477, Note_on_c, 0, 57, 56
1, 6477, Note_on_c, 0, 77, 84
1, 6484, Note_on_c, 0, 69, 47
1, 6484, Note_on_c, 0, 65, 48
1, 6496, Note_on_c, 0, 50, 38
1, 6621, Control_c, 0, 64, 0
1, 6783, Note_off_c, 0, 57, 64
1, 6789, Control_c, 0, 64, 127
1, 6813, Note_off_c, 0, 50, 64
1, 6877, Note_on_c, 0, 58, 50
1, 6881, Note_on_c, 0, 70, 63
1, 6884, Note_off_c, 0, 69, 64
1, 6998, Note_off_c, 0, 58, 64
1, 7050, Note_off_c, 0, 70, 64
1, 7109, Note_on_c, 0, 43, 36
1, 7307, Note_on_c, 0, 71, 65
1, 7348, Note_on_c, 0, 59, 36
1, 7401, Control_c, 0, 64, 0
1, 7534, Note_on_c, 0, 76, 67
1, 7593, Note_off_c, 0, 77, 64
1, 7616, Control_c, 0, 64, 127
1, 7704, Note_off_c, 0, 65, 64
1, 7811, Note_on_c, 0, 79, 66
1, 7836, Note_off_c, 0, 71, 64
1, 7852, Note_off_c, 0, 76, 64
1, 8037, Note_on_c, 0, 77, 65
1, 8108, Note_off_c, 0, 79, 64
1, 8218, Note_on_c, 0, 74, 73
1, 8234, Note_off_c, 0, 77, 64
1, 8395, Note_on_c, 0, 71, 76
1, 8401, Note_off_c, 0, 74, 64
1, 8499, Note_off_c, 0, 59, 64
1, 8537, Note_off_c, 0, 71, 64
1, 8591, Note_on_c, 0, 67, 59
1, 8721, Note_off_c, 0, 43, 64
1, 8758, Note_off_c, 0, 67, 64
1, 8828, Note_on_c, 0, 66, 58
1, 8914, Note_off_c, 0, 66, 64
1, 9175, Note_on_c, 0, 65, 68
1, 9184, Note_on_c, 0, 57, 67
1, 9195, Note_on_c, 0, 45, 34
1, 9198, Note_on_c, 0, 53, 64
1, 9207, Note_on_c, 0, 50, 27
1, 9210, Note_on_c, 0, 38, 30
1, 9306, Control_c, 0, 64, 0
1, 9869, Control_c, 0, 64, 127
1, 9917, Note_off_c, 0, 45, 64
1, 10022, Note_on_c, 0, 58, 50
1, 10026, Note_on_c, 0, 46, 42
1, 10062, Note_off_c, 0, 57, 64
1, 10217, Control_c, 0, 64, 0
1, 10469, Control_c, 0, 64, 127
1, 10571, Note_off_c, 0, 50, 64
1, 10604, Note_off_c, 0, 46, 64
1, 10627, Note_off_c, 0, 38, 64
1, 10856, Note_off_c, 0, 58, 64
1, 11248, Note_on_c, 0, 47, 10
1, 11251, Note_on_c, 0, 31, 27
1, 11251, Note_on_c, 0, 59, 36
1, 11356, Control_c, 0, 64, 0
1, 11702, Control_c, 0, 64, 127
1, 11775, Note_off_c, 0, 53, 64
1, 11848, Note_off_c, 0, 65, 64
1, 11928, Note_off_c, 0, 47, 64
1, 12112, Note_off_c, 0, 31, 64
1, 12132, Note_off_c, 0, 59, 64
1, 12561, Note_on_c, 0, 64, 21
1, 12582, Note_on_c, 0, 52, 13
1, 12727, Note_off_c, 0, 52, 64
1, 12825, Note_on_c, 0, 36, 21
1, 12916, Note_off_c, 0, 64, 64
1, 12955, Note_on_c, 0, 43, 19
1, 13059, Note_on_c, 0, 48, 23
1, 13148, Note_on_c, 0, 52, 42
1, 13254, Note_on_c, 0, 55, 29
1, 13357, Note_on_c, 0, 60, 33
1, 13405, Control_c, 0, 64, 0
1, 13569, Note_on_c, 0, 64, 46
1, 13730, Note_off_c, 0, 52, 64
1, 13760, Note_off_c, 0, 55, 64
1, 13777, Control_c, 0, 64, 127
1, 13786, Note_off_c, 0, 64, 64
1, 13798, Note_off_c, 0, 60, 64
1, 14034, Note_off_c, 0, 43, 64
1, 14067, Note_off_c, 0, 48, 64
1, 14107, Note_on_c, 0, 60, 21
1, 14110, Note_on_c, 0, 64, 31
1, 14182, Note_off_c, 0, 64, 64
1, 14187, Note_off_c, 0, 60, 64
1, 14337, Note_off_c, 0, 36, 64
1, 14511, Note_on_c, 0, 64, 29
1, 14511, Note_on_c, 0, 60, 20
1, 14603, Note_off_c, 0, 64, 64
1, 14636, Note_off_c, 0, 60, 64
1, 14951, Note_on_c, 0, 60, 22
1, 14958, Note_on_c, 0, 55, 69
1, 14981, Note_on_c, 0, 64, 3
1, 15128, Note_off_c, 0, 60, 64
1, 15146, Note_off_c, 0, 64, 64
1, 15335, Note_on_c, 0, 64, 51
1, 15335, Note_on_c, 0, 56, 70
1, 15344, Note_on_c, 0, 60, 35
1, 15446, Note_off_c, 0, 55, 64
1, 15454, Control_c, 0, 64, 0
1, 15580, Note_off_c, 0, 64, 64
1, 15591, Note_off_c, 0, 60, 64
1, 15610, Control_c, 0, 64, 127
1, 15708, Note_on_c, 0, 59, 73
1, 15711, Note_on_c, 0, 60, 33
1, 15719, Note_on_c, 0, 64, 50
1, 15773, Note_off_c, 0, 56, 64
1, 15850, Control_c, 0, 64, 0
1, 15976, Note_off_c, 0, 60, 64
1, 15979, Note_off_c, 0, 64, 64
1, 15990, Control_c, 0, 64, 127
1, 16053, Note_off_c, 0, 59, 64
1, 16173, Note_on_c, 0, 64, 41
1, 16181, Note_on_c, 0, 59, 69
1, 16190, Note_on_c, 0, 60, 19
1, 16377, Note_off_c, 0, 60, 64
1, 16387, Note_off_c, 0, 64, 64
1, 16596, Note_on_c, 0, 60, 41
1, 16600, Note_on_c, 0, 57, 66
1, 16603, Note_on_c, 0, 64, 42
1, 16631, Note_off_c, 0, 59, 64
1, 16713, Control_c, 0, 64, 0
1, 16814, Note_off_c, 0, 64, 64
1, 16833, Note_off_c, 0, 60, 64
1, 16833, Control_c, 0, 64, 127
1, 16959, Note_on_c, 0, 52, 76
1, 16965, Note_on_c, 0, 64, 37
1, 16968, Note_on_c, 0, 60, 38
1, 17046, Note_off_c, 0, 57, 64
1, 17060, Control_c, 0, 64, 0
1, 17177, Note_off_c, 0, 64, 64
1, 17181, Note_off_c, 0, 60, 64
1, 17204, Control_c, 0, 64, 127
1, 17302, Note_on_c, 0, 64, 55
1, 17302, Note_on_c, 0, 54, 80
1, 17310, Note_on_c, 0, 60, 54
1, 17394, Note_off_c, 0, 52, 64
1, 17432, Control_c, 0, 64, 0
1, 17572, Note_off_c, 0, 60, 64
1, 17586, Control_c, 0, 64, 127
1, 17641, Note_on_c, 0, 55, 74
1, 17649, Note_off_c, 0, 64, 64
1, 17649, Note_on_c, 0, 59, 48
1, 17653, Note_on_c, 0, 62, 47
1, 17684, Note_off_c, 0, 54, 64
1, 17731, Control_c, 0, 64, 0
1, 17923, Control_c, 0, 64, 127
1, 17931, Note_off_c, 0, 59, 64
1, 17979, Note_off_c, 0, 62, 64
1, 18009, Note_on_c, 0, 57, 52
1, 18012, Note_on_c, 0, 64, 47
1, 18018, Note_on_c, 0, 58, 17
1, 18039, Note_on_c, 0, 49, 25
1, 18043, Control_c, 0, 64, 0
1, 18089, Note_off_c, 0, 55, 64
1, 18343, Control_c, 0, 64, 127
1, 18405, Note_off_c, 0, 58, 64
1, 18415, Note_off_c, 0, 64, 64
1, 18478, Note_off_c, 0, 49, 64
1, 18483, Note_off_c, 0, 57, 64
1, 18494, Note_on_c, 0, 55, 54
1, 18499, Note_on_c, 0, 50, 35
1, 18893, Control_c, 0, 64, 0
1, 18925, Note_on_c, 0, 57, 33
1, 18934, Note_on_c, 0, 62, 26
1, 19085, Control_c, 0, 64, 127
1, 19099, Note_off_c, 0, 62, 64
1, 19126, Note_off_c, 0, 57, 64
1, 19369, Note_on_c, 0, 62, 24
1, 19379, Note_on_c, 0, 57, 19
1, 19408, Note_off_c, 0, 55, 64
1, 19413, Note_on_c, 0, 53, 75
1, 19472, Note_off_c, 0, 57, 64
1, 19516, Note_off_c, 0, 62, 64
1, 19773, Note_on_c, 0, 57, 23
1, 19773, Note_on_c, 0, 62, 25
1, 19870, Note_off_c, 0, 57, 64
1, 19870, Note_off_c, 0, 62, 64
1, 20099, Note_on_c, 0, 56, 40
1, 20115, Note_on_c, 0, 59, 36
1, 20127, Control_c, 0, 64, 0
1, 20283, Control_c, 0, 64, 127
1, 20288, Note_off_c, 0, 56, 64
1, 20313, Note_off_c, 0, 59, 64
1, 20453, Note_on_c, 0, 56, 44
1, 20463, Note_on_c, 0, 59, 34
1, 20600, Note_off_c, 0, 56, 64
1, 20627, Note_off_c, 0, 59, 64
1, 20783, Note_on_c, 0, 45, 39
1, 20809, Note_off_c, 0, 50, 64
1, 21062, Control_c, 0, 64, 0
1, 21137, Note_on_c, 0, 61, 37
1, 21137, Note_on_c, 0, 55, 40
1, 21311, Note_off_c, 0, 55, 64
1, 21314, Control_c, 0, 64, 127
1, 21322, Note_off_c, 0, 61, 64
1, 21563, Note_on_c, 0, 61, 30
1, 21563, Note_on_c, 0, 55, 40
1, 21577, Note_off_c, 0, 53, 64
1, 21595, Note_on_c, 0, 52, 73
1, 21673, Control_c, 0, 64, 0
1, 21783, Note_off_c, 0, 61, 64
1, 21787, Note_off_c, 0, 55, 64
1, 21854, Control_c, 0, 64, 127
1, 21950, Note_on_c, 0, 61, 43
1, 21974, Note_on_c, 0, 55, 31
1, 22045, Note_off_c, 0, 55, 64
1, 22087, Note_off_c, 0, 61, 64
1, 22305, Note_on_c, 0, 61, 33
1, 22324, Note_on_c, 0, 55, 27
1, 22335, Note_off_c, 0, 52, 64
1, 22343, Note_on_c, 0, 53, 94
1, 22388, Note_off_c, 0, 55, 64
1, 22427, Note_off_c, 0, 61, 64
1, 22569, Note_off_c, 0, 53, 64
1, 22658, Note_on_c, 0, 55, 77
1, 22658, Note_on_c, 0, 61, 66
1, 22681, Note_off_c, 0, 45, 64
1, 22781, Note_off_c, 0, 55, 64
1, 22870, Note_on_c, 0, 45, 43
1, 22889, Note_off_c, 0, 61, 64
1, 22995, Note_on_c, 0, 57, 77
1, 23183, Control_c, 0, 64, 0
1, 23338, Note_on_c, 0, 52, 78
1, 23341, Note_on_c, 0, 54, 58
1, 23354, Note_on_c, 0, 64, 59
1, 23360, Note_off_c, 0, 57, 64
1, 23371, Note_on_c, 0, 60, 36
1, 23388, Control_c, 0, 64, 127
1, 23466, Note_off_c, 0, 54, 64
1, 23533, Note_off_c, 0, 60, 64
1, 23539, Note_off_c, 0, 64, 64
1, 23762, Note_on_c, 0, 60, 90
1, 23806, Note_off_c, 0, 52, 64
1, 24115, Note_on_c, 0, 54, 41
1, 24124, Note_on_c, 0, 64, 42
1, 24188, Note_off_c, 0, 54, 64
1, 24193, Note_off_c, 0, 64, 64
1, 24235, Note_off_c, 0, 45, 64
1, 24453, Note_on_c, 0, 64, 53
1, 24453, Note_on_c, 0, 54, 42
1, 24505, Note_off_c, 0, 54, 64
1, 24517, Note_off_c, 0, 64, 64
1, 24620, Note_off_c, 0, 60, 64
1, 24806, Note_on_c, 0, 57, 87
1, 24829, Note_on_c, 0, 64, 17
1, 24901, Note_off_c, 0, 64, 64
1, 24907, Note_off_c, 0, 57, 64
1, 25300, Note_on_c, 0, 38, 38
1, 25341, Control_c, 0, 64, 0
1, 25349, Note_on_c, 0, 64, 79
1, 25497, Control_c, 0, 64, 127
1, 25527, Note_off_c, 0, 38, 64
1, 25537, Note_off_c, 0, 64, 64
1, 25946, Note_on_c, 0, 81, 30
1, 25963, Note_on_c, 0, 67, 12
1, 25977, Note_on_c, 0, 72, 16
1, 26013, Note_on_c, 0, 76, 2
1, 26073, Note_off_c, 0, 72, 64
1, 26091, Note_off_c, 0, 76, 64
1, 26116, Note_off_c, 0, 67, 64
1, 26133, Note_off_c, 0, 81, 64
1, 26182, Note_on_c, 0, 57, 48
1, 26332, Note_off_c, 0, 57, 64
1, 26427, Note_on_c, 0, 81, 42
1, 26449, Note_on_c, 0, 67, 12
1, 26452, Note_on_c, 0, 76, 8
1, 26464, Note_on_c, 0, 57, 52
1, 26472, Note_on_c, 0, 72, 5
1, 26514, Note_off_c, 0, 57, 64
1, 26542, Note_off_c, 0, 81, 64
1, 26558, Note_off_c, 0, 67, 64
1, 26561, Note_off_c, 0, 72, 64
1, 26578, Note_off_c, 0, 76, 64
1, 26703, Note_on_c, 0, 50, 38
1, 26824, Note_on_c, 0, 72, 75
1, 26831, Note_off_c, 0, 50, 64
1, 26831, Note_on_c, 0, 60, 43
1, 26839, Note_on_c, 0, 64, 57
1, 26842, Note_on_c, 0, 67, 36
1, 26959, Note_off_c, 0, 60, 64
1, 26976, Note_off_c, 0, 67, 64
1, 27010, Note_off_c, 0, 64, 64
1, 27155, Note_on_c, 0, 74, 92
1, 27168, Note_on_c, 0, 62, 67
1, 27171, Note_on_c, 0, 59, 46
1, 27171, Note_on_c, 0, 50, 63
1, 27171, Note_on_c, 0, 67, 45
1, 27215, Note_off_c, 0, 72, 64
1, 27303, Note_off_c, 0, 50, 64
1, 27308, Note_off_c, 0, 59, 64
1, 27313, Note_off_c, 0, 62, 64
1, 27355, Note_off_c, 0, 67, 64
1, 27500, Note_on_c, 0, 76, 82
1, 27505, Note_on_c, 0, 60, 57
1, 27520, Note_on_c, 0, 67, 53
1, 27520, Note_on_c, 0, 57, 48
1, 27533, Note_off_c, 0, 74, 64
1, 27541, Note_on_c, 0, 50, 50
1, 27567, Note_off_c, 0, 60, 64
1, 27586, Note_off_c, 0, 57, 64
1, 27615, Note_off_c, 0, 50, 64
1, 27768, Note_off_c, 0, 76, 64
1, 27946, Note_on_c, 0, 76, 90
1, 27959, Note_on_c, 0, 31, 48
1, 27966, Control_c, 0, 64, 0
1, 27966, Note_on_c, 0, 43, 37
1, 28012, Note_off_c, 0, 67, 64
1, 28102, Note_off_c, 0, 31, 64
1, 28152, Note_off_c, 0, 43, 64
1, 28158, Control_c, 0, 64, 127
1, 28428, Note_on_c, 0, 65, 44
1, 28431, Note_on_c, 0, 60, 34
1, 28453, Note_on_c, 0, 50, 40
1, 28453, Note_on_c, 0, 55, 34
1, 28657, Note_on_c, 0, 74, 77
1, 28679, Note_off_c, 0, 76, 64
1, 28723, Note_off_c, 0, 65, 64
1, 28743, Note_off_c, 0, 55, 64
1, 28751, Note_off_c, 0, 74, 64
1, 28904, Note_on_c, 0, 74, 57
1, 28912, Note_on_c, 0, 56, 43
1, 28916, Note_on_c, 0, 70, 39
1, 28932, Note_on_c, 0, 65, 35
1, 29032, Control_c, 0, 64, 0
1, 29164, Control_c, 0, 64, 127
1, 29185, Note_off_c, 0, 56, 64
1, 29292, Note_on_c, 0, 69, 26
1, 29303, Note_on_c, 0, 57, 23
1, 29331, Control_c, 0, 64, 0
1, 29364, Note_off_c, 0, 70, 64
1, 29500, Control_c, 0, 64, 127
1, 29564, Note_off_c, 0, 69, 64
1, 29639, Note_off_c, 0, 57, 64
1, 29653, Note_on_c, 0, 68, 38
1, 29673, Note_on_c, 0, 58, 21
1, 29799, Note_off_c, 0, 60, 64
1, 29866, Note_off_c, 0, 65, 64
1, 29871, Note_off_c, 0, 58, 64
1, 29881, Note_off_c, 0, 68, 64
1, 30141, Note_on_c, 0, 67, 27
1, 30164, Note_on_c, 0, 59, 15
1, 30171, Note_on_c, 0, 65, 16
1, 30171, Control_c, 0, 64, 0
1, 30186, Note_on_c, 0, 55, 12
1, 30339, Note_off_c, 0, 74, 64
1, 30388, Control_c, 0, 64, 127
1, 30398, Note_off_c, 0, 59, 64
1, 30414, Note_off_c, 0, 55, 64
1, 30420, Note_off_c, 0, 50, 64
1, 30687, Note_off_c, 0, 67, 64
1, 30732, Note_off_c, 0, 65, 64
1, 30749, Note_on_c, 0, 43, 25
1, 30762, Note_on_c, 0, 36, 36
1, 31213, Note_on_c, 0, 60, 27
1, 31213, Control_c, 0, 64, 0
1, 31227, Note_on_c, 0, 64, 34
1, 31370, Control_c, 0, 64, 127
1, 31416, Note_off_c, 0, 64, 64
1, 31439, Note_off_c, 0, 60, 64
1, 31498, Note_off_c, 0, 36, 64
1, 31519, Note_off_c, 0, 43, 64
1, 31648, Note_on_c, 0, 64, 18
1, 31648, Note_on_c, 0, 60, 13
1, 31721, Note_off_c, 0, 64, 64
1, 31746, Note_off_c, 0, 60, 64
1, 32114, Note_on_c, 0, 67, 26
1, 32122, Note_on_c, 0, 55, 46
1, 32125, Note_on_c, 0, 60, 13
1, 32141, Note_on_c, 0, 64, 21
1, 32210, Note_off_c, 0, 64, 64
1, 32291, Note_off_c, 0, 60, 64
1, 32509, Note_off_c, 0, 67, 64
1, 32522, Note_on_c, 0, 68, 47
1, 32545, Note_on_c, 0, 56, 61
1, 32557, Note_off_c, 0, 55, 64
1, 32582, Note_on_c, 0, 60, 2
1, 32592, Note_on_c, 0, 64, 5
1, 32712, Control_c, 0, 64, 0
1, 32721, Note_off_c, 0, 60, 64
1, 32721, Note_off_c, 0, 64, 64
1, 32807, Control_c, 0, 64, 127
1, 32880, Note_on_c, 0, 71, 73
1, 32908, Note_on_c, 0, 59, 57
1, 32908, Note_on_c, 0, 60, 23
1, 32913, Note_on_c, 0, 64, 30
1, 32921, Note_off_c, 0, 68, 64
1, 32957, Note_off_c, 0, 56, 64
1, 33083, Control_c, 0, 64, 0
1, 33153, Note_off_c, 0, 64, 64
1, 33164, Note_off_c, 0, 60, 64
1, 33178, Control_c, 0, 64, 127
1, 33182, Note_off_c, 0, 71, 64
1, 33214, Note_off_c, 0, 59, 64
1, 33327, Note_on_c, 0, 71, 54
1, 33361, Note_on_c, 0, 60, 8
1, 33361, Note_on_c, 0, 59, 41
1, 33543, Note_off_c, 0, 60, 64
1, 33726, Note_off_c, 0, 59, 64
1, 33756, Note_on_c, 0, 69, 47
1, 33770, Note_on_c, 0, 60, 25
1, 33774, Note_off_c, 0, 71, 64
1, 33782, Note_on_c, 0, 57, 35
1, 33785, Note_on_c, 0, 64, 35
1, 33887, Control_c, 0, 64, 0
1, 33943, Note_off_c, 0, 64, 64
1, 33994, Control_c, 0, 64, 127
1, 33994, Note_off_c, 0, 60, 64
1, 34142, Note_off_c, 0, 69, 64
1, 34142, Note_on_c, 0, 64, 70
1, 34150, Note_on_c, 0, 60, 37
1, 34153, Note_on_c, 0, 52, 45
1, 34220, Note_off_c, 0, 57, 64
1, 34364, Note_off_c, 0, 60, 64
1, 34370, Note_off_c, 0, 64, 64
1, 34506, Note_on_c, 0, 54, 73
1, 34506, Note_on_c, 0, 66, 64
1, 34522, Note_on_c, 0, 60, 56
1, 34522, Note_on_c, 0, 64, 40
1, 34548, Note_off_c, 0, 52, 64
1, 34575, Note_off_c, 0, 64, 64
1, 34682, Note_off_c, 0, 60, 64
1, 34873, Note_on_c, 0, 67, 71
1, 34880, Note_on_c, 0, 55, 74
1, 34887, Note_on_c, 0, 59, 34
1, 34887, Note_off_c, 0, 54, 64
1, 34902, Note_on_c, 0, 62, 39
1, 34902, Note_off_c, 0, 66, 64
1, 34918, Control_c, 0, 64, 0
1, 35036, Note_off_c, 0, 59, 64
1, 35036, Control_c, 0, 64, 127
1, 35114, Note_off_c, 0, 62, 64
1, 35175, Note_off_c, 0, 67, 64
1, 35272, Note_on_c, 0, 57, 54
1, 35272, Note_on_c, 0, 69, 48
1, 35272, Note_on_c, 0, 58, 26
1, 35275, Note_off_c, 0, 55, 64
1, 35302, Note_on_c, 0, 49, 34
1, 35308, Note_on_c, 0, 64, 38
1, 35361, Control_c, 0, 64, 0
1, 35517, Control_c, 0, 64, 127
1, 35609, Note_off_c, 0, 57, 64
1, 35640, Note_off_c, 0, 69, 64
1, 35660, Note_off_c, 0, 49, 64
1, 35740, Note_off_c, 0, 64, 64
1, 35745, Note_on_c, 0, 55, 59
1, 35760, Note_on_c, 0, 50, 47
1, 35774, Note_off_c, 0, 58, 64
1, 36192, Note_on_c, 0, 67, 34
1, 36200, Note_on_c, 0, 57, 19
1, 36217, Note_on_c, 0, 62, 25
1, 36236, Control_c, 0, 64, 0
1, 36386, Note_off_c, 0, 62, 64
1, 36403, Control_c, 0, 64, 127
1, 36408, Note_off_c, 0, 57, 64
1, 36576, Note_off_c, 0, 67, 64
1, 36590, Note_off_c, 0, 55, 64
1, 36598, Note_on_c, 0, 65, 21
1, 36598, Note_on_c, 0, 57, 24
1, 36618, Note_on_c, 0, 62, 12
1, 36671, Note_on_c, 0, 53, 69
1, 36732, Note_off_c, 0, 62, 64
1, 36752, Note_off_c, 0, 65, 64
1, 36773, Note_off_c, 0, 57, 64
1, 37003, Note_on_c, 0, 57, 37
1, 37013, Note_on_c, 0, 65, 42
1, 37022, Note_on_c, 0, 62, 31
1, 37072, Note_off_c, 0, 62, 64
1, 37094, Note_off_c, 0, 57, 64
1, 37108, Note_off_c, 0, 65, 64
1, 37367, Note_on_c, 0, 56, 30
1, 37381, Note_on_c, 0, 65, 41
1, 37386, Control_c, 0, 64, 0
1, 37386, Note_on_c, 0, 59, 33
1, 37535, Note_off_c, 0, 59, 64
1, 37542, Control_c, 0, 64, 127
1, 37584, Note_off_c, 0, 65, 64
1, 37610, Note_off_c, 0, 56, 64
1, 37620, Note_off_c, 0, 53, 64
1, 37862, Note_on_c, 0, 65, 39
1, 37862, Note_off_c, 0, 50, 64
1, 37865, Note_on_c, 0, 56, 23
1, 37891, Note_on_c, 0, 59, 25
1, 37896, Note_on_c, 0, 53, 56
1, 37966, Note_off_c, 0, 59, 64
1, 37980, Note_off_c, 0, 56, 64
1, 38039, Note_off_c, 0, 53, 64
1, 38155, Note_on_c, 0, 45, 29
1, 38194, Note_off_c, 0, 65, 64
1, 38437, Note_on_c, 0, 57, 48
1, 38704, Control_c, 0, 64, 0
1, 38860, Control_c, 0, 64, 127
1, 38894, Note_on_c, 0, 65, 23
1, 38911, Note_on_c, 0, 61, 24
1, 38916, Note_on_c, 0, 55, 19
1, 39032, Note_off_c, 0, 57, 64
1, 39067, Note_off_c, 0, 55, 64
1, 39067, Note_off_c, 0, 61, 64
1, 39169, Note_off_c, 0, 65, 64
1, 39186, Note_on_c, 0, 52, 48
1, 39286, Note_off_c, 0, 52, 64
1, 39415, Note_on_c, 0, 52, 33
1, 39579, Control_c, 0, 64, 0
1, 39699, Control_c, 0, 64, 127
1, 39766, Note_on_c, 0, 64, 35
1, 39769, Note_on_c, 0, 61, 26
1, 39769, Note_on_c, 0, 55, 32
1, 39882, Note_off_c, 0, 55, 64
1, 39911, Note_off_c, 0, 64, 64
1, 39932, Note_off_c, 0, 61, 64
1, 40130, Note_on_c, 0, 64, 54
1, 40130, Note_on_c, 0, 61, 41
1, 40139, Note_on_c, 0, 55, 44
1, 40184, Note_off_c, 0, 55, 64
1, 40216, Note_off_c, 0, 64, 64
1, 40248, Note_off_c, 0, 61, 64
1, 40379, Note_off_c, 0, 52, 64
1, 40436, Note_off_c, 0, 45, 64
1, 40473, Note_on_c, 0, 57, 78
1, 40476, Note_on_c, 0, 64, 58
1, 40496, Note_on_c, 0, 61, 30
1, 40551, Note_off_c, 0, 61, 64
1, 40627, Note_off_c, 0, 57, 64
1, 40627, Note_off_c, 0, 64, 64
1, 40682, Note_on_c, 0, 45, 59
1, 40891, Note_on_c, 0, 60, 81
1, 41017, Control_c, 0, 64, 0
1, 41148, Control_c, 0, 64, 127
1, 41169, Note_off_c, 0, 45, 64
1, 41329, Note_off_c, 0, 60, 64
1, 41395, Note_on_c, 0, 54, 37
1, 41395, Note_on_c, 0, 64, 50
1, 41420, Note_on_c, 0, 60, 45
1, 41459, Note_off_c, 0, 54, 64
1, 41484, Note_off_c, 0, 64, 64
1, 41490, Note_off_c, 0, 60, 64
1, 41581, Note_on_c, 0, 57, 69
1, 41685, Note_off_c, 0, 57, 64
1, 41758, Note_on_c, 0, 57, 52
1, 42078, Note_on_c, 0, 54, 42
1, 42083, Note_on_c, 0, 64, 45
1, 42102, Note_on_c, 0, 60, 25
1, 42141, Note_off_c, 0, 64, 64
1, 42167, Note_off_c, 0, 54, 64
1, 42189, Note_off_c, 0, 60, 64
1, 42390, Note_off_c, 0, 57, 64
1, 42420, Note_on_c, 0, 54, 51
1, 42431, Note_on_c, 0, 64, 57
1, 42435, Note_on_c, 0, 60, 52
1, 42492, Note_off_c, 0, 54, 64
1, 42515, Note_off_c, 0, 64, 64
1, 42557, Note_off_c, 0, 60, 64
1, 42772, Note_on_c, 0, 60, 100
1, 42794, Note_on_c, 0, 54, 60
1, 42824, Note_on_c, 0, 64, 30
1, 42877, Note_off_c, 0, 64, 64
1, 42939, Note_off_c, 0, 54, 64
1, 43027, Note_off_c, 0, 60, 64
1, 43272, Note_on_c, 0, 64, 101
1, 43278, Note_on_c, 0, 38, 65
1, 43282, Control_c, 0, 64, 0
1, 43426, Control_c, 0, 64, 127
1, 43446, Note_off_c, 0, 64, 64
1, 43490, Note_off_c, 0, 38, 64
1, 43797, Note_on_c, 0, 81, 68
1, 43805, Note_on_c, 0, 67, 41
1, 43813, Note_on_c, 0, 72, 32
1, 43818, Note_on_c, 0, 76, 42
1, 43921, Note_off_c, 0, 72, 64
1, 43930, Note_off_c, 0, 67, 64
1, 43942, Note_off_c, 0, 76, 64
1, 43974, Note_off_c, 0, 81, 64
1, 43988, Note_on_c, 0, 57, 81
1, 44106, Note_off_c, 0, 57, 64
1, 44176, Note_on_c, 0, 57, 53
1, 44179, Note_on_c, 0, 67, 58
1, 44198, Note_on_c, 0, 72, 32
1, 44198, Note_on_c, 0, 76, 33
1, 44226, Note_off_c, 0, 67, 64
1, 44257, Note_off_c, 0, 76, 64
1, 44268, Note_off_c, 0, 72, 64
1, 44320, Note_off_c, 0, 57, 64
1, 44555, Note_on_c, 0, 57, 81
1, 44558, Note_on_c, 0, 72, 77
1, 44569, Note_on_c, 0, 64, 66
1, 44569, Note_on_c, 0, 67, 64
1, 44577, Note_on_c, 0, 50, 66
1, 44704, Note_off_c, 0, 67, 64
1, 44725, Note_off_c, 0, 50, 64
1, 44755, Note_off_c, 0, 64, 64
1, 44897, Note_on_c, 0, 74, 94
1, 44897, Note_on_c, 0, 59, 100
1, 44905, Note_on_c, 0, 62, 60
1, 44911, Note_on_c, 0, 67, 64
1, 44916, Note_off_c, 0, 72, 64
1, 44916, Note_on_c, 0, 50, 66
1, 44935, Note_off_c, 0, 57, 64
1, 45042, Note_off_c, 0, 67, 64
1, 45058, Note_off_c, 0, 62, 64
1, 45084, Note_off_c, 0, 50, 64
1, 45103, Note_off_c, 0, 74, 64
1, 45131, Note_off_c, 0, 59, 64
1, 45214, Note_on_c, 0, 50, 71
1, 45223, Control_c, 0, 64, 0
1, 45243, Note_on_c, 0, 60, 103
1, 45243, Note_on_c, 0, 76, 75
1, 45248, Note_on_c, 0, 67, 83
1, 45345, Control_c, 0, 64, 127
1, 45373, Note_off_c, 0, 50, 64
1, 45373, Note_off_c, 0, 60, 64
1, 45448, Note_off_c, 0, 76, 64
1, 45454, Note_off_c, 0, 67, 64
1, 45602, Note_on_c, 0, 43, 84
1, 45680, Note_on_c, 0, 64, 105
1, 45752, Control_c, 0, 64, 0
1, 45895, Control_c, 0, 64, 127
1, 45988, Note_off_c, 0, 64, 64
1, 45991, Note_off_c, 0, 43, 64
1, 46140, Note_on_c, 0, 77, 79
1, 46140, Note_on_c, 0, 69, 49
1, 46145, Note_on_c, 0, 65, 64
1, 46156, Note_on_c, 0, 72, 54
1, 46337, Note_off_c, 0, 77, 64
1, 46340, Note_on_c, 0, 62, 93
1, 46340, Note_off_c, 0, 69, 64
1, 46351, Note_off_c, 0, 72, 64
1, 46367, Note_off_c, 0, 65, 64
1, 46471, Note_off_c, 0, 62, 64
1, 46501, Note_on_c, 0, 77, 73
1, 46505, Note_on_c, 0, 69, 57
1, 46505, Note_on_c, 0, 65, 57
1, 46516, Note_on_c, 0, 72, 59
1, 46534, Note_on_c, 0, 62, 79
1, 46672, Note_off_c, 0, 77, 64
1, 46672, Note_off_c, 0, 72, 64
1, 46683, Note_off_c, 0, 69, 64
1, 46699, Note_off_c, 0, 65, 64
1, 46858, Note_on_c, 0, 77, 77
1, 46861, Note_on_c, 0, 69, 55
1, 46867, Note_on_c, 0, 72, 59
1, 46870, Note_on_c, 0, 65, 44
1, 47019, Note_off_c, 0, 69, 64
1, 47025, Note_off_c, 0, 77, 64
1, 47025, Note_off_c, 0, 72, 64
1, 47050, Note_off_c, 0, 65, 64
1, 47240, Note_on_c, 0, 77, 70
1, 47248, Note_on_c, 0, 69, 52
1, 47248, Note_on_c, 0, 72, 66
1, 47251, Note_on_c, 0, 65, 51
1, 47362, Note_off_c, 0, 62, 64
1, 47409, Note_off_c, 0, 77, 64
1, 47413, Note_off_c, 0, 69, 64
1, 47427, Note_off_c, 0, 65, 64
1, 47427, Note_off_c, 0, 72, 64
1, 47596, Note_on_c, 0, 62, 108
1, 47608, Note_on_c, 0, 77, 95
1, 47608, Note_on_c, 0, 65, 94
1, 47613, Note_on_c, 0, 69, 68
1, 47621, Note_on_c, 0, 72, 74
1, 47669, Note_off_c, 0, 62, 64
1, 47672, Note_off_c, 0, 72, 64
1, 47679, Note_off_c, 0, 65, 64
1, 47679, Note_off_c, 0, 77, 64
1, 47708, Note_off_c, 0, 69, 64
1, 47880, Note_on_c, 0, 31, 98
1, 47958, Note_on_c, 0, 43, 94
1, 47980, Note_off_c, 0, 31, 64
1, 47992, Note_off_c, 0, 43, 64
1, 48028, Note_on_c, 0, 50, 99
1, 48129, Note_on_c, 0, 53, 107
1, 48221, Note_on_c, 0, 60, 93
1, 48306, Note_off_c, 0, 50, 64
1, 48334, Note_off_c, 0, 53, 64
1, 48376, Note_on_c, 0, 65, 107
1, 48451, Note_off_c, 0, 60, 64
1, 48811, Note_off_c, 0, 65, 64
1, 48917, Note_on_c, 0, 77, 89
1, 48923, Note_on_c, 0, 68, 53
1, 48927, Note_on_c, 0, 72, 65
1, 48927, Note_on_c, 0, 65, 66
1, 49101, Note_off_c, 0, 68, 64
1, 49101, Note_off_c, 0, 72, 64
1, 49125, Note_on_c, 0, 56, 93
1, 49136, Note_off_c, 0, 77, 64
1, 49148, Note_off_c, 0, 65, 64
1, 49351, Note_off_c, 0, 56, 64
1, 49412, Note_on_c, 0, 77, 76
1, 49424, Note_on_c, 0, 72, 53
1, 49424, Note_on_c, 0, 65, 48
1, 49427, Note_on_c, 0, 68, 43
1, 49449, Note_on_c, 0, 56, 94
1, 49605, Note_off_c, 0, 72, 64
1, 49635, Note_off_c, 0, 77, 64
1, 49647, Note_off_c, 0, 68, 64
1, 49668, Note_off_c, 0, 65, 64
1, 49888, Note_on_c, 0, 77, 76
1, 49888, Note_on_c, 0, 72, 69
1, 49888, Note_on_c, 0, 55, 98
1, 49892, Note_on_c, 0, 67, 58
1, 49895, Note_on_c, 0, 65, 52
1, 49964, Note_off_c, 0, 56, 64
1, 50030, Control_c, 0, 64, 0
1, 50103, Control_c, 0, 64, 127
1, 50103, Note_off_c, 0, 77, 64
1, 50134, Note_off_c, 0, 65, 64
1, 50145, Note_off_c, 0, 67, 64
1, 50267, Note_on_c, 0, 71, 84
1, 50267, Note_on_c, 0, 77, 69
1, 50267, Note_on_c, 0, 65, 56
1, 50270, Note_on_c, 0, 67, 52
1, 50270, Note_on_c, 0, 59, 107
1, 50287, Note_off_c, 0, 72, 64
1, 50365, Control_c, 0, 64, 0
1, 50504, Note_off_c, 0, 55, 64
1, 50508, Note_off_c, 0, 77, 64
1, 50508, Control_c, 0, 64, 127
1, 50521, Note_off_c, 0, 71, 64
1, 50552, Note_off_c, 0, 65, 64
1, 50555, Note_off_c, 0, 67, 64
1, 50702, Note_off_c, 0, 59, 64
1, 50733, Note_on_c, 0, 64, 103
1, 50750, Note_on_c, 0, 77, 66
1, 50769, Note_on_c, 0, 71, 49
1, 50797, Note_off_c, 0, 64, 64
1, 50830, Note_off_c, 0, 71, 64
1, 50849, Note_off_c, 0, 77, 64
1, 51019, Note_on_c, 0, 36, 55
1, 51079, Note_on_c, 0, 43, 49
1, 51139, Note_on_c, 0, 48, 53
1, 51200, Note_on_c, 0, 52, 73
1, 51296, Note_on_c, 0, 55, 62
1, 51452, Note_on_c, 0, 62, 80
1, 51480, Control_c, 0, 64, 0
1, 51624, Control_c, 0, 64, 127
1, 51633, Note_off_c, 0, 52, 64
1, 51663, Note_off_c, 0, 36, 64
1, 51663, Note_off_c, 0, 55, 64
1, 51703, Note_off_c, 0, 62, 64
1, 51739, Note_off_c, 0, 43, 64
1, 51742, Note_off_c, 0, 48, 64
1, 51998, Note_on_c, 0, 76, 40
1, 51998, Note_on_c, 0, 67, 37
1, 52017, Note_on_c, 0, 64, 35
1, 52306, Note_off_c, 0, 67, 64
1, 52354, Note_on_c, 0, 60, 64
1, 52377, Note_off_c, 0, 76, 64
1, 52394, Note_off_c, 0, 64, 64
1, 52529, Note_off_c, 0, 60, 64
1, 52664, Note_on_c, 0, 76, 32
1, 52688, Note_on_c, 0, 67, 18
1, 52699, Note_on_c, 0, 64, 22
1, 52699, Note_on_c, 0, 60, 40
1, 52775, Control_c, 0, 64, 0
1, 52847, Control_c, 0, 64, 127
1, 52940, Note_off_c, 0, 60, 64
1, 53279, Note_on_c, 0, 55, 50
1, 53295, Note_on_c, 0, 43, 26
1, 53295, Note_on_c, 0, 52, 42
1, 53309, Note_on_c, 0, 48, 25
1, 53463, Note_off_c, 0, 48, 64
1, 53463, Note_off_c, 0, 43, 64
1, 53474, Note_off_c, 0, 67, 64
1, 53521, Note_off_c, 0, 52, 64
1, 53525, Note_off_c, 0, 76, 64
1, 53535, Note_off_c, 0, 55, 64
1, 53566, Note_off_c, 0, 64, 64
1, 53725, Note_on_c, 0, 56, 56
1, 53761, Note_on_c, 0, 44, 26
1, 53761, Note_on_c, 0, 48, 39
1, 53798, Note_on_c, 0, 52, 28
1, 53864, Note_off_c, 0, 52, 64
1, 53889, Note_off_c, 0, 48, 64
1, 53934, Note_off_c, 0, 56, 64
1, 54100, Note_off_c, 0, 44, 64
1, 54106, Note_on_c, 0, 59, 58
1, 54112, Note_on_c, 0, 52, 50
1, 54121, Note_on_c, 0, 47, 32
1, 54128, Note_on_c, 0, 48, 35
1, 54224, Control_c, 0, 64, 0
1, 54332, Control_c, 0, 64, 127
1, 54335, Note_off_c, 0, 52, 64
1, 54359, Note_off_c, 0, 48, 64
1, 54365, Note_off_c, 0, 47, 64
1, 54371, Note_off_c, 0, 59, 64
1, 54441, Note_on_c, 0, 59, 59
1, 54468, Note_on_c, 0, 52, 68
1, 54480, Note_on_c, 0, 47, 29
1, 54502, Note_on_c, 0, 48, 18
1, 54641, Control_c, 0, 64, 0
1, 54647, Note_off_c, 0, 52, 64
1, 54677, Note_off_c, 0, 48, 64
1, 54716, Control_c, 0, 64, 127
1, 54809, Note_off_c, 0, 47, 64
1, 54812, Note_on_c, 0, 57, 62
1, 54820, Note_on_c, 0, 45, 49
1, 54825, Note_on_c, 0, 48, 20
1, 54830, Note_on_c, 0, 52, 50
1, 54870, Note_off_c, 0, 59, 64
1, 55001, Note_off_c, 0, 52, 64
1, 55029, Note_off_c, 0, 48, 64
1, 55087, Note_off_c, 0, 45, 64
1, 55224, Note_on_c, 0, 52, 67
1, 55246, Note_on_c, 0, 48, 25
1, 55260, Note_on_c, 0, 40, 31
1, 55309, Note_off_c, 0, 57, 64
1, 55327, Control_c, 0, 64, 0
1, 55430, Note_off_c, 0, 48, 64
1, 55447, Control_c, 0, 64, 127
1, 55496, Note_off_c, 0, 52, 64
1, 55619, Note_off_c, 0, 40, 64
1, 55625, Note_on_c, 0, 54, 68
1, 55625, Note_on_c, 0, 42, 47
1, 55652, Note_on_c, 0, 52, 52
1, 55652, Note_on_c, 0, 48, 24
1, 55736, Note_off_c, 0, 52, 64
1, 55747, Control_c, 0, 64, 0
1, 55851, Note_off_c, 0, 48, 64
1, 55867, Control_c, 0, 64, 127
1, 55990, Note_on_c, 0, 55, 61
1, 56011, Note_on_c, 0, 50, 42
1, 56014, Note_on_c, 0, 47, 31
1, 56023, Note_off_c, 0, 54, 64
1, 56029, Note_off_c, 0, 42, 64
1, 56034, Note_on_c, 0, 43, 40
1, 56070, Control_c, 0, 64, 0
1, 56238, Control_c, 0, 64, 127
1, 56251, Note_off_c, 0, 47, 64
1, 56363, Note_off_c, 0, 50, 64
1, 56452, Note_on_c, 0, 57, 43
1, 56458, Note_off_c, 0, 43, 64
1, 56458, Note_on_c, 0, 46, 30
1, 56474, Note_on_c, 0, 52, 48
1, 56480, Note_on_c, 0, 37, 26
1, 56480, Note_off_c, 0, 55, 64
1, 56502, Control_c, 0, 64, 0
1, 56766, Control_c, 0, 64, 127
1, 56890, Note_off_c, 0, 52, 64
1, 56942, Note_off_c, 0, 46, 64
1, 56989, Note_off_c, 0, 37, 64
1, 57085, Note_on_c, 0, 55, 44
1, 57085, Note_on_c, 0, 50, 34
1, 57090, Note_on_c, 0, 45, 29
1, 57118, Note_on_c, 0, 38, 31
1, 57293, Control_c, 0, 64, 0
1, 57363, Note_off_c, 0, 57, 64
1, 57833, Control_c, 0, 64, 127
1, 57998, Note_off_c, 0, 50, 64
1, 58046, Note_off_c, 0, 38, 64
1, 58057, Note_off_c, 0, 55, 64
1, 58057, Note_off_c, 0, 45, 64
1, 58761, Note_on_c, 0, 53, 53
1, 58770, Note_on_c, 0, 31, 27
1, 58775, Note_on_c, 0, 47, 15
1, 58775, Note_on_c, 0, 43, 14
1, 59126, Control_c, 0, 64, 0
1, 59282, Control_c, 0, 64, 127
1, 59385, Note_off_c, 0, 43, 64
1, 59603, Note_off_c, 0, 31, 64
1, 59613, Note_off_c, 0, 47, 64
1, 59893, Note_off_c, 0, 53, 64
1, 60051, Note_on_c, 0, 24, 42
1, 60056, Note_on_c, 0, 36, 30
1, 60411, Note_on_c, 0, 43, 36
1, 60416, Note_off_c, 0, 36, 64
1, 60469, Control_c, 0, 64, 0
1, 60613, Control_c, 0, 64, 127
1, 60691, Note_on_c, 0, 48, 33
1, 60705, Note_off_c, 0, 24, 64
1, 60725, Note_off_c, 0, 43, 64
1, 60923, Note_on_c, 0, 52, 46
1, 60979, Note_off_c, 0, 48, 64
1, 61049, Note_off_c, 0, 52, 64
1, 61141, Note_on_c, 0, 55, 29
1, 61282, Note_off_c, 0, 55, 64
1, 61315, Note_on_c, 0, 60, 34
1, 61400, Note_off_c, 0, 60, 64
1, 61467, Note_on_c, 0, 64, 28
1, 61544, Note_off_c, 0, 64, 64
1, 61647, Note_on_c, 0, 67, 49
1, 61659, Note_on_c, 0, 55, 15
1, 61812, Note_on_c, 0, 60, 26
1, 61904, Note_off_c, 0, 60, 64
1, 61962, Note_on_c, 0, 64, 39
1, 62026, Note_off_c, 0, 64, 64
1, 62056, Note_off_c, 0, 55, 64
1, 62095, Note_on_c, 0, 68, 60
1, 62104, Note_on_c, 0, 56, 32
1, 62199, Note_off_c, 0, 67, 64
1, 62240, Note_on_c, 0, 60, 47
1, 62255, Control_c, 0, 64, 0
1, 62344, Note_off_c, 0, 60, 64
1, 62350, Note_on_c, 0, 64, 47
1, 62363, Control_c, 0, 64, 127
1, 62414, Note_off_c, 0, 64, 64
1, 62435, Note_on_c, 0, 71, 83
1, 62480, Note_on_c, 0, 59, 35
1, 62492, Note_off_c, 0, 56, 64
1, 62509, Note_off_c, 0, 68, 64
1, 62555, Control_c, 0, 64, 0
1, 62587, Note_on_c, 0, 60, 54
1, 62637, Control_c, 0, 64, 127
1, 62644, Note_off_c, 0, 59, 64
1, 62659, Note_off_c, 0, 60, 64
1, 62689, Note_off_c, 0, 71, 64
1, 62694, Note_on_c, 0, 64, 43
1, 62743, Note_off_c, 0, 64, 64
1, 62767, Note_on_c, 0, 71, 56
1, 62807, Note_on_c, 0, 59, 35
1, 62931, Note_on_c, 0, 60, 36
1, 62949, Control_c, 0, 64, 0
1, 63007, Note_off_c, 0, 60, 64
1, 63007, Control_c, 0, 64, 127
1, 63024, Note_on_c, 0, 64, 32
1, 63090, Note_off_c, 0, 64, 64
1, 63134, Note_off_c, 0, 59, 64
1, 63134, Note_on_c, 0, 69, 44
1, 63168, Note_on_c, 0, 57, 39
1, 63202, Control_c, 0, 64, 0
1, 63222, Note_off_c, 0, 71, 64
1, 63293, Note_on_c, 0, 60, 30
1, 63333, Control_c, 0, 64, 127
1, 63361, Note_off_c, 0, 57, 64
1, 63377, Note_off_c, 0, 60, 64
1, 63399, Note_on_c, 0, 64, 25
1, 63449, Note_off_c, 0, 64, 64
1, 63522, Note_on_c, 0, 64, 46
1, 63541, Note_on_c, 0, 52, 31
1, 63589, Note_off_c, 0, 69, 64
1, 63658, Note_off_c, 0, 64, 64
1, 63665, Note_off_c, 0, 52, 64
1, 63683, Note_on_c, 0, 60, 23
1, 63754, Note_off_c, 0, 60, 64
1, 63761, Note_on_c, 0, 64, 23
1, 63828, Note_off_c, 0, 64, 64
1, 63860, Note_on_c, 0, 54, 47
1, 63860, Note_on_c, 0, 66, 61
1, 63990, Note_on_c, 0, 60, 24
1, 64004, Control_c, 0, 64, 0
1, 64066, Note_on_c, 0, 64, 36
1, 64084, Note_off_c, 0, 60, 64
1, 64088, Control_c, 0, 64, 127
1, 64124, Note_off_c, 0, 64, 64
1, 64190, Note_off_c, 0, 54, 64
1, 64204, Note_on_c, 0, 55, 55
1, 64204, Note_on_c, 0, 67, 81
1, 64260, Note_off_c, 0, 66, 64
1, 64291, Control_c, 0, 64, 0
1, 64300, Note_on_c, 0, 59, 48
1, 64361, Note_off_c, 0, 59, 64
1, 64371, Note_off_c, 0, 55, 64
1, 64375, Control_c, 0, 64, 127
1, 64406, Note_on_c, 0, 62, 38
1, 64455, Note_off_c, 0, 62, 64
1, 64600, Note_on_c, 0, 69, 54
1, 64617, Note_on_c, 0, 57, 31
1, 64617, Note_on_c, 0, 49, 29
1, 64656, Note_off_c, 0, 67, 64
1, 64687, Control_c, 0, 64, 0
1, 64768, Note_on_c, 0, 58, 29
1, 64781, Note_off_c, 0, 57, 64
1, 64795, Control_c, 0, 64, 127
1, 64846, Note_off_c, 0, 58, 64
1, 64873, Note_off_c, 0, 49, 64
1, 64918, Note_on_c, 0, 64, 27
1, 65002, Note_off_c, 0, 64, 64
1, 65087, Note_on_c, 0, 67, 59
1, 65112, Note_on_c, 0, 38, 27
1, 65191, Control_c, 0, 64, 0
1, 65238, Note_on_c, 0, 45, 22
1, 65275, Note_off_c, 0, 69, 64
1, 65322, Control_c, 0, 64, 127
1, 65335, Note_off_c, 0, 38, 64
1, 65355, Note_off_c, 0, 45, 64
1, 65391, Note_on_c, 0, 50, 43
1, 65450, Note_off_c, 0, 50, 64
1, 65548, Note_on_c, 0, 55, 47
1, 65687, Note_on_c, 0, 57, 49
1, 65690, Note_off_c, 0, 55, 64
1, 65740, Note_off_c, 0, 57, 64
1, 65818, Note_on_c, 0, 62, 34
1, 65887, Note_off_c, 0, 62, 64
1, 66019, Note_on_c, 0, 65, 32
1, 66044, Note_on_c, 0, 53, 45
1, 66090, Control_c, 0, 64, 0
1, 66118, Note_off_c, 0, 67, 64
1, 66174, Note_on_c, 0, 57, 25
1, 66257, Control_c, 0, 64, 127
1, 66282, Note_off_c, 0, 53, 64
1, 66311, Note_off_c, 0, 57, 64
1, 66316, Note_on_c, 0, 62, 33
1, 66380, Note_off_c, 0, 62, 64
1, 66442, Note_on_c, 0, 53, 54
1, 66512, Note_off_c, 0, 53, 64
1, 66544, Note_on_c, 0, 57, 30
1, 66606, Note_off_c, 0, 57, 64
1, 66647, Note_on_c, 0, 62, 44
1, 66726, Note_off_c, 0, 62, 64
1, 66776, Note_on_c, 0, 56, 45
1, 66799, Note_on_c, 0, 53, 64
1, 66820, Control_c, 0, 64, 0
1, 66913, Note_on_c, 0, 59, 56
1, 66913, Note_off_c, 0, 53, 64
1, 66940, Control_c, 0, 64, 127
1, 66945, Note_off_c, 0, 56, 64
1, 66968, Note_off_c, 0, 59, 64
1, 67018, Note_on_c, 0, 62, 49
1, 67071, Note_off_c, 0, 62, 64
1, 67121, Note_on_c, 0, 53, 46
1, 67150, Note_on_c, 0, 56, 54
1, 67171, Note_off_c, 0, 53, 64
1, 67196, Note_off_c, 0, 56, 64
1, 67236, Note_on_c, 0, 59, 29
1, 67289, Note_off_c, 0, 59, 64
1, 67328, Note_on_c, 0, 62, 50
1, 67372, Note_off_c, 0, 62, 64
1, 67450, Note_on_c, 0, 45, 65
1, 67578, Note_on_c, 0, 53, 83
1, 67684, Control_c, 0, 64, 0
1, 67759, Note_on_c, 0, 55, 61
1, 67814, Note_off_c, 0, 53, 64
1, 67824, Note_off_c, 0, 45, 64
1, 67828, Control_c, 0, 64, 127
1, 67867, Note_off_c, 0, 55, 64
1, 67882, Note_on_c, 0, 61, 45
1, 67971, Note_off_c, 0, 65, 64
1, 67971, Note_off_c, 0, 61, 64
1, 68023, Note_on_c, 0, 53, 72
1, 68133, Note_off_c, 0, 53, 64
1, 68144, Note_on_c, 0, 55, 41
1, 68207, Note_off_c, 0, 55, 64
1, 68227, Note_on_c, 0, 61, 39
1, 68317, Note_off_c, 0, 61, 64
1, 68361, Note_on_c, 0, 64, 91
1, 68380, Note_on_c, 0, 52, 50
1, 68427, Control_c, 0, 64, 0
1, 68497, Note_on_c, 0, 55, 45
1, 68547, Control_c, 0, 64, 127
1, 68558, Note_off_c, 0, 52, 64
1, 68578, Note_on_c, 0, 61, 36
1, 68606, Note_off_c, 0, 55, 64
1, 68657, Note_off_c, 0, 61, 64
1, 68706, Note_on_c, 0, 52, 63
1, 68767, Note_off_c, 0, 52, 64
1, 68810, Note_on_c, 0, 55, 62
1, 68849, Note_off_c, 0, 55, 64
1, 68888, Note_on_c, 0, 61, 51
1, 68952, Note_off_c, 0, 61, 64
1, 69004, Note_off_c, 0, 64, 64
1, 69010, Note_on_c, 0, 65, 92
1, 69026, Note_on_c, 0, 53, 86
1, 69130, Note_on_c, 0, 61, 57
1, 69222, Note_off_c, 0, 61, 64
1, 69235, Note_on_c, 0, 64, 57
1, 69281, Note_off_c, 0, 64, 64
1, 69320, Note_off_c, 0, 53, 64
1, 69341, Note_on_c, 0, 67, 100
1, 69355, Note_on_c, 0, 55, 70
1, 69388, Note_off_c, 0, 65, 64
1, 69452, Note_on_c, 0, 61, 69
1, 69455, Note_off_c, 0, 55, 64
1, 69529, Note_off_c, 0, 61, 64
1, 69554, Note_on_c, 0, 64, 30
1, 69604, Note_off_c, 0, 64, 64
1, 69673, Note_on_c, 0, 45, 74
1, 69673, Note_on_c, 0, 69, 85
1, 69734, Note_off_c, 0, 67, 64
1, 69768, Control_c, 0, 64, 0
1, 69851, Note_on_c, 0, 52, 56
1, 69901, Control_c, 0, 64, 127
1, 69909, Note_off_c, 0, 45, 64
1, 69969, Note_on_c, 0, 54, 64
1, 69994, Note_off_c, 0, 52, 64
1, 70065, Note_off_c, 0, 54, 64
1, 70091, Note_on_c, 0, 64, 101
1, 70091, Note_on_c, 0, 60, 62
1, 70127, Note_off_c, 0, 69, 64
1, 70183, Note_off_c, 0, 60, 64
1, 70183, Note_off_c, 0, 64, 64
1, 70256, Note_on_c, 0, 64, 35
1, 70370, Note_on_c, 0, 66, 55
1, 70370, Note_off_c, 0, 64, 64
1, 70501, Note_off_c, 0, 66, 64
1, 70561, Note_on_c, 0, 72, 97
1, 70726, Note_on_c, 0, 66, 50
1, 70782, Note_off_c, 0, 66, 64
1, 70851, Note_on_c, 0, 64, 47
1, 70893, Note_off_c, 0, 64, 64
1, 70957, Note_on_c, 0, 60, 47
1, 71052, Note_off_c, 0, 60, 64
1, 71068, Note_on_c, 0, 54, 67
1, 71171, Note_on_c, 0, 52, 67
1, 71177, Note_off_c, 0, 54, 64
1, 71242, Note_off_c, 0, 52, 64
1, 71278, Note_on_c, 0, 45, 64
1, 71381, Note_off_c, 0, 45, 64
1, 71381, Note_on_c, 0, 52, 73
1, 71494, Note_off_c, 0, 52, 64
1, 71494, Note_on_c, 0, 54, 71
1, 71540, Note_off_c, 0, 54, 64
1, 71587, Note_on_c, 0, 60, 58
1, 71623, Note_on_c, 0, 69, 95
1, 71637, Note_off_c, 0, 60, 64
1, 71667, Note_off_c, 0, 72, 64
1, 71746, Note_on_c, 0, 64, 71
1, 71801, Note_off_c, 0, 64, 64
1, 71868, Note_on_c, 0, 66, 61
1, 71918, Note_off_c, 0, 66, 64
1, 72150, Note_on_c, 0, 38, 72
1, 72220, Note_on_c, 0, 76, 90
1, 72297, Control_c, 0, 64, 0
1, 72305, Note_off_c, 0, 69, 64
1, 72461, Note_on_c, 0, 45, 23
1, 72483, Note_off_c, 0, 38, 64
1, 72489, Control_c, 0, 64, 127
1, 72618, Note_on_c, 0, 48, 35
1, 72668, Note_off_c, 0, 45, 64
1, 72715, Note_off_c, 0, 48, 64
1, 72763, Note_on_c, 0, 55, 65
1, 72899, Note_off_c, 0, 55, 64
1, 72918, Note_on_c, 0, 57, 51
1, 73018, Note_on_c, 0, 69, 70
1, 73060, Note_off_c, 0, 57, 64
1, 73100, Note_on_c, 0, 60, 56
1, 73138, Note_off_c, 0, 69, 64
1, 73228, Note_off_c, 0, 60, 64
1, 73267, Note_on_c, 0, 69, 71
1, 73278, Note_on_c, 0, 67, 56
1, 73295, Note_off_c, 0, 76, 64
1, 73311, Note_off_c, 0, 69, 64
1, 73330, Note_off_c, 0, 67, 64
1, 73415, Note_on_c, 0, 60, 74
1, 73470, Note_off_c, 0, 60, 64
1, 73545, Note_on_c, 0, 57, 60
1, 73582, Note_off_c, 0, 57, 64
1, 73681, Note_on_c, 0, 55, 76
1, 73688, Note_on_c, 0, 57, 90
1, 73727, Note_off_c, 0, 55, 64
1, 73818, Note_on_c, 0, 48, 58
1, 73915, Note_off_c, 0, 48, 64
1, 73926, Note_on_c, 0, 45, 64
1, 74038, Note_on_c, 0, 59, 101
1, 74044, Note_off_c, 0, 45, 64
1, 74049, Note_on_c, 0, 38, 66
1, 74097, Note_off_c, 0, 57, 64
1, 74169, Note_off_c, 0, 38, 64
1, 74172, Note_on_c, 0, 45, 61
1, 74284, Note_on_c, 0, 48, 66
1, 74314, Note_off_c, 0, 45, 64
1, 74384, Note_off_c, 0, 48, 64
1, 74406, Note_on_c, 0, 60, 100
1, 74412, Note_on_c, 0, 55, 83
1, 74483, Note_off_c, 0, 59, 64
1, 74525, Note_off_c, 0, 55, 64
1, 74545, Note_on_c, 0, 48, 67
1, 74668, Note_on_c, 0, 45, 71
1, 74710, Note_off_c, 0, 48, 64
1, 74723, Note_off_c, 0, 45, 64
1, 74840, Note_on_c, 0, 64, 97
1, 74924, Note_off_c, 0, 60, 64
1, 74969, Note_on_c, 0, 31, 81
1, 75102, Note_on_c, 0, 43, 68
1, 75209, Control_c, 0, 64, 0
1, 75244, Note_on_c, 0, 53, 104
1, 75378, Control_c, 0, 64, 127
1, 75412, Note_on_c, 0, 59, 77
1, 75451, Note_off_c, 0, 53, 64
1, 75526, Note_off_c, 0, 31, 64
1, 75551, Note_off_c, 0, 43, 64
1, 75565, Note_on_c, 0, 62, 92
1, 75599, Note_off_c, 0, 64, 64
1, 75613, Note_off_c, 0, 59, 64
1, 75649, Note_off_c, 0, 62, 64
1, 75709, Note_on_c, 0, 32, 73
1, 75724, Note_on_c, 0, 62, 83
1, 75838, Note_on_c, 0, 44, 70
1, 75882, Note_on_c, 0, 53, 88
1, 75985, Note_on_c, 0, 58, 61
1, 76008, Note_off_c, 0, 53, 64
1, 76030, Note_off_c, 0, 44, 64
1, 76038, Note_off_c, 0, 32, 64
1, 76085, Note_on_c, 0, 33, 90
1, 76114, Note_off_c, 0, 58, 64
1, 76156, Control_c, 0, 64, 0
1, 76219, Note_on_c, 0, 45, 54
1, 76225, Note_on_c, 0, 53, 80
1, 76312, Control_c, 0, 64, 127
1, 76334, Note_off_c, 0, 45, 64
1, 76345, Note_on_c, 0, 57, 57
1, 76355, Note_off_c, 0, 53, 64
1, 76362, Note_off_c, 0, 33, 64
1, 76457, Note_on_c, 0, 34, 72
1, 76517, Control_c, 0, 64, 0
1, 76582, Note_off_c, 0, 57, 64
1, 76582, Note_on_c, 0, 46, 52
1, 76596, Note_on_c, 0, 53, 65
1, 76709, Control_c, 0, 64, 127
1, 76726, Note_on_c, 0, 56, 63
1, 76740, Note_off_c, 0, 53, 64
1, 76812, Note_off_c, 0, 46, 64
1, 76816, Note_off_c, 0, 34, 64
1, 76893, Note_on_c, 0, 35, 66
1, 77052, Note_on_c, 0, 47, 44
1, 77103, Note_on_c, 0, 53, 71
1, 77120, Note_off_c, 0, 56, 64
1, 77152, Control_c, 0, 64, 0
1, 77269, Note_off_c, 0, 35, 64
1, 77272, Control_c, 0, 64, 127
1, 77314, Note_on_c, 0, 55, 64
1, 77336, Note_off_c, 0, 53, 64
1, 77353, Note_off_c, 0, 47, 64
1, 77383, Note_on_c, 0, 36, 69
1, 77439, Control_c, 0, 64, 0
1, 77554, Note_off_c, 0, 55, 64
1, 77590, Note_on_c, 0, 48, 60
1, 77624, Note_off_c, 0, 36, 64
1, 77627, Note_off_c, 0, 62, 64
1, 77631, Control_c, 0, 64, 127
1, 77677, Note_off_c, 0, 48, 64
1, 77882, Note_on_c, 0, 64, 49
1, 77882, Note_on_c, 0, 60, 39
1, 77888, Note_on_c, 0, 55, 46
1, 77936, Note_off_c, 0, 64, 64
1, 77955, Note_off_c, 0, 60, 64
1, 77963, Note_off_c, 0, 55, 64
1, 78075, Note_on_c, 0, 64, 50
1, 78075, Note_on_c, 0, 55, 21
1, 78078, Note_on_c, 0, 60, 27
1, 78128, Note_off_c, 0, 64, 64
1, 78138, Note_off_c, 0, 55, 64
1, 78142, Note_off_c, 0, 60, 64
1, 78236, Note_on_c, 0, 60, 25
1, 78241, Note_on_c, 0, 55, 21
1, 78241, Note_on_c, 0, 64, 48
1, 78294, Note_off_c, 0, 64, 64
1, 78303, Note_off_c, 0, 55, 64
1, 78309, Note_off_c, 0, 60, 64
1, 78372, Note_on_c, 0, 55, 53
1, 78378, Note_on_c, 0, 64, 47
1, 78382, Note_on_c, 0, 60, 64
1, 78426, Note_off_c, 0, 55, 64
1, 78431, Note_off_c, 0, 64, 64
1, 78436, Note_off_c, 0, 60, 64
1, 78504, Note_on_c, 0, 55, 31
1, 78504, Note_on_c, 0, 64, 55
1, 78504, Note_on_c, 0, 60, 61
1, 78560, Note_off_c, 0, 64, 64
1, 78560, Note_off_c, 0, 55, 64
1, 78567, Note_off_c, 0, 60, 64
1, 78624, Note_on_c, 0, 55, 59
1, 78632, Note_on_c, 0, 60, 68
1, 78635, Note_on_c, 0, 64, 62
1, 78688, Note_off_c, 0, 55, 64
1, 78693, Note_off_c, 0, 64, 64
1, 78699, Note_off_c, 0, 60, 64
1, 78757, Note_on_c, 0, 55, 54
1, 78768, Note_on_c, 0, 64, 57
1, 78772, Note_on_c, 0, 60, 72
1, 78805, Note_off_c, 0, 55, 64
1, 78810, Note_off_c, 0, 64, 64
1, 78815, Note_off_c, 0, 60, 64
1, 78891, Note_on_c, 0, 60, 42
1, 78891, Note_on_c, 0, 64, 57
1, 78897, Note_on_c, 0, 55, 46
1, 78967, Note_off_c, 0, 64, 64
1, 78967, Note_off_c, 0, 55, 64
1, 78991, Note_off_c, 0, 60, 64
1, 78996, Note_on_c, 0, 79, 104
1, 79006, Note_on_c, 0, 67, 76
1, 79120, Note_on_c, 0, 64, 55
1, 79125, Note_on_c, 0, 55, 50
1, 79136, Note_on_c, 0, 60, 36
1, 79145, Note_off_c, 0, 67, 64
1, 79159, Note_off_c, 0, 64, 64
1, 79172, Note_off_c, 0, 55, 64
1, 79189, Note_off_c, 0, 60, 64
1, 79226, Note_on_c, 0, 55, 68
1, 79230, Note_on_c, 0, 64, 57
1, 79242, Note_on_c, 0, 60, 70
1, 79294, Note_off_c, 0, 60, 64
1, 79311, Note_off_c, 0, 64, 64
1, 79320, Note_off_c, 0, 55, 64
1, 79334, Note_on_c, 0, 80, 101
1, 79339, Note_on_c, 0, 68, 78
1, 79370, Note_off_c, 0, 79, 64
1, 79454, Note_on_c, 0, 56, 68
1, 79457, Note_on_c, 0, 60, 56
1, 79457, Note_on_c, 0, 64, 62
1, 79465, Control_c, 0, 64, 0
1, 79506, Note_off_c, 0, 64, 64
1, 79510, Note_off_c, 0, 60, 64
1, 79534, Note_off_c, 0, 56, 64
1, 79560, Control_c, 0, 64, 127
1, 79574, Note_on_c, 0, 64, 75
1, 79585, Note_off_c, 0, 68, 64
1, 79585, Note_on_c, 0, 60, 44
1, 79588, Note_on_c, 0, 56, 77
1, 79663, Note_off_c, 0, 60, 64
1, 79666, Note_off_c, 0, 64, 64
1, 79687, Note_on_c, 0, 83, 119
1, 79687, Note_off_c, 0, 56, 64
1, 79696, Note_on_c, 0, 71, 84
1, 79749, Note_off_c, 0, 80, 64
1, 79816, Note_on_c, 0, 64, 67
1, 79827, Note_on_c, 0, 59, 62
1, 79836, Note_on_c, 0, 60, 45
1, 79863, Note_off_c, 0, 64, 64
1, 79868, Note_off_c, 0, 59, 64
1, 79883, Note_off_c, 0, 60, 64
1, 79974, Note_on_c, 0, 59, 46
1, 79974, Note_on_c, 0, 64, 70
1, 79978, Note_off_c, 0, 71, 64
1, 79978, Note_on_c, 0, 60, 20
1, 80010, Note_off_c, 0, 83, 64
1, 80035, Note_off_c, 0, 64, 64
1, 80055, Note_off_c, 0, 60, 64
1, 80069, Note_off_c, 0, 59, 64
1, 80109, Note_on_c, 0, 83, 121
1, 80117, Note_on_c, 0, 71, 94
1, 80278, Note_on_c, 0, 64, 61
1, 80287, Note_on_c, 0, 59, 53
1, 80287, Note_on_c, 0, 60, 45
1, 80336, Note_off_c, 0, 64, 64
1, 80342, Note_off_c, 0, 59, 64
1, 80345, Note_off_c, 0, 60, 64
1, 80431, Note_on_c, 0, 64, 51
1, 80431, Note_on_c, 0, 59, 47
1, 80435, Note_on_c, 0, 60, 28
1, 80460, Note_off_c, 0, 71, 64
1, 80467, Note_off_c, 0, 83, 64
1, 80488, Note_off_c, 0, 64, 64
1, 80496, Note_off_c, 0, 60, 64
1, 80501, Note_off_c, 0, 59, 64
1, 80540, Note_on_c, 0, 81, 96
1, 80540, Note_on_c, 0, 69, 74
1, 80652, Note_on_c, 0, 64, 57
1, 80659, Note_on_c, 0, 60, 55
1, 80659, Note_on_c, 0, 57, 48
1, 80680, Note_off_c, 0, 81, 64
1, 80691, Note_off_c, 0, 64, 64
1, 80707, Note_off_c, 0, 57, 64
1, 80707, Note_off_c, 0, 60, 64
1, 80738, Note_off_c, 0, 69, 64
1, 80782, Note_on_c, 0, 64, 59
1, 80782, Note_on_c, 0, 60, 51
1, 80782, Note_on_c, 0, 57, 38
1, 80821, Note_off_c, 0, 64, 64
1, 80839, Note_off_c, 0, 60, 64
1, 80839, Note_off_c, 0, 57, 64
1, 80880, Note_on_c, 0, 76, 93
1, 80891, Note_on_c, 0, 64, 76
1, 80938, Note_off_c, 0, 64, 64
1, 80991, Note_on_c, 0, 52, 81
1, 81011, Note_on_c, 0, 60, 36
1, 81017, Note_on_c, 0, 64, 31
1, 81027, Note_off_c, 0, 52, 64
1, 81063, Note_off_c, 0, 60, 64
1, 81070, Note_off_c, 0, 64, 64
1, 81117, Note_off_c, 0, 76, 64
1, 81117, Note_on_c, 0, 52, 55
1, 81117, Note_on_c, 0, 60, 65
1, 81136, Note_on_c, 0, 64, 60
1, 81180, Note_off_c, 0, 64, 64
1, 81187, Note_off_c, 0, 52, 64
1, 81209, Note_on_c, 0, 78, 103
1, 81215, Note_on_c, 0, 66, 81
1, 81248, Note_off_c, 0, 60, 64
1, 81311, Control_c, 0, 64, 0
1, 81314, Note_on_c, 0, 60, 53
1, 81314, Note_on_c, 0, 54, 85
1, 81318, Note_on_c, 0, 64, 69
1, 81370, Note_off_c, 0, 64, 64
1, 81395, Control_c, 0, 64, 127
1, 81404, Note_off_c, 0, 54, 64
1, 81408, Note_off_c, 0, 60, 64
1, 81435, Note_on_c, 0, 64, 75
1, 81453, Note_on_c, 0, 54, 85
1, 81457, Note_on_c, 0, 60, 49
1, 81478, Note_off_c, 0, 66, 64
1, 81488, Note_off_c, 0, 64, 64
1, 81501, Note_off_c, 0, 78, 64
1, 81507, Note_off_c, 0, 60, 64
1, 81540, Note_off_c, 0, 54, 64
1, 81543, Note_on_c, 0, 79, 109
1, 81549, Note_on_c, 0, 67, 91
1, 81657, Note_on_c, 0, 55, 79
1, 81657, Note_on_c, 0, 62, 72
1, 81663, Note_on_c, 0, 59, 63
1, 81669, Control_c, 0, 64, 0
1, 81707, Note_off_c, 0, 55, 64
1, 81707, Note_off_c, 0, 62, 64
1, 81713, Note_off_c, 0, 59, 64
1, 81766, Control_c, 0, 64, 127
1, 81783, Note_on_c, 0, 59, 69
1, 81790, Note_on_c, 0, 62, 64
1, 81794, Note_on_c, 0, 55, 62
1, 81849, Note_off_c, 0, 67, 64
1, 81858, Note_off_c, 0, 59, 64
1, 81874, Note_off_c, 0, 79, 64
1, 81874, Note_off_c, 0, 62, 64
1, 81888, Note_off_c, 0, 55, 64
1, 81928, Note_on_c, 0, 81, 102
1, 81938, Note_on_c, 0, 69, 67
1, 82005, Control_c, 0, 64, 0
1, 82014, Note_on_c, 0, 49, 73
1, 82089, Control_c, 0, 64, 127
1, 82114, Note_off_c, 0, 49, 64
1, 82145, Note_off_c, 0, 81, 64
1, 82148, Note_on_c, 0, 58, 56
1, 82148, Note_on_c, 0, 64, 69
1, 82180, Note_off_c, 0, 69, 64
1, 82198, Note_off_c, 0, 58, 64
1, 82198, Note_off_c, 0, 64, 64
1, 82265, Note_on_c, 0, 58, 38
1, 82276, Note_on_c, 0, 67, 76
1, 82315, Note_off_c, 0, 58, 64
1, 82345, Note_on_c, 0, 69, 59
1, 82418, Note_on_c, 0, 74, 82
1, 82443, Note_off_c, 0, 69, 64
1, 82473, Control_c, 0, 64, 0
1, 82498, Note_on_c, 0, 38, 69
1, 82509, Note_on_c, 0, 50, 67
1, 82563, Note_off_c, 0, 74, 64
1, 82570, Control_c, 0, 64, 127
1, 82613, Note_off_c, 0, 38, 64
1, 82635, Note_on_c, 0, 79, 100
1, 82651, Note_off_c, 0, 50, 64
1, 82711, Note_off_c, 0, 67, 64
1, 82858, Note_on_c, 0, 67, 53
1, 82877, Note_on_c, 0, 62, 20
1, 82882, Note_on_c, 0, 57, 15
1, 82922, Note_off_c, 0, 67, 64
1, 82933, Note_off_c, 0, 62, 64
1, 82944, Note_off_c, 0, 57, 64
1, 83017, Note_on_c, 0, 57, 35
1, 83028, Note_on_c, 0, 62, 32
1, 83034, Note_on_c, 0, 67, 48
1, 83078, Note_off_c, 0, 57, 64
1, 83092, Note_off_c, 0, 67, 64
1, 83092, Note_off_c, 0, 62, 64
1, 83187, Note_on_c, 0, 62, 33
1, 83190, Note_on_c, 0, 67, 44
1, 83212, Note_on_c, 0, 57, 32
1, 83240, Note_off_c, 0, 67, 64
1, 83258, Note_off_c, 0, 62, 64
1, 83265, Note_off_c, 0, 57, 64
1, 83346, Note_on_c, 0, 57, 23
1, 83353, Note_on_c, 0, 62, 47
1, 83357, Note_on_c, 0, 67, 40
1, 83398, Note_off_c, 0, 62, 64
1, 83412, Note_off_c, 0, 67, 64
1, 83428, Note_off_c, 0, 79, 64
1, 83465, Note_on_c, 0, 67, 65
1, 83473, Note_on_c, 0, 62, 50
1, 83506, Note_off_c, 0, 67, 64
1, 83516, Note_off_c, 0, 62, 64
1, 83524, Note_off_c, 0, 57, 64
1, 83529, Note_on_c, 0, 65, 60
1, 83707, Note_on_c, 0, 77, 75
1, 83766, Control_c, 0, 64, 0
1, 83838, Control_c, 0, 64, 127
1, 83849, Note_off_c, 0, 65, 64
1, 83897, Note_on_c, 0, 62, 50
1, 83913, Note_on_c, 0, 57, 36
1, 83924, Note_on_c, 0, 65, 33
1, 83949, Note_off_c, 0, 62, 64
1, 83970, Note_off_c, 0, 57, 64
1, 83980, Note_off_c, 0, 65, 64
1, 84034, Note_on_c, 0, 57, 36
1, 84034, Note_on_c, 0, 65, 64
1, 84053, Note_on_c, 0, 62, 38
1, 84084, Note_off_c, 0, 65, 64
1, 84092, Note_off_c, 0, 57, 64
1, 84097, Note_off_c, 0, 62, 64
1, 84172, Note_on_c, 0, 65, 42
1, 84172, Note_on_c, 0, 57, 31
1, 84178, Note_on_c, 0, 62, 36
1, 84226, Note_off_c, 0, 62, 64
1, 84229, Note_off_c, 0, 57, 64
1, 84236, Note_off_c, 0, 65, 64
1, 84309, Note_on_c, 0, 65, 55
1, 84315, Note_on_c, 0, 57, 34
1, 84320, Note_on_c, 0, 62, 41
1, 84364, Note_off_c, 0, 62, 64
1, 84364, Note_off_c, 0, 65, 64
1, 84373, Note_off_c, 0, 57, 64
1, 84468, Note_on_c, 0, 65, 46
1, 84487, Note_on_c, 0, 62, 25
1, 84498, Note_on_c, 0, 57, 36
1, 84518, Note_off_c, 0, 65, 64
1, 84535, Note_off_c, 0, 62, 64
1, 84555, Note_off_c, 0, 57, 64
1, 84772, Note_on_c, 0, 62, 51
1, 84772, Control_c, 0, 64, 0
1, 84782, Note_on_c, 0, 59, 42
1, 84789, Note_on_c, 0, 56, 35
1, 84825, Note_off_c, 0, 62, 64
1, 84830, Note_off_c, 0, 59, 64
1, 84833, Control_c, 0, 64, 127
1, 84846, Note_off_c, 0, 56, 64
1, 84914, Note_on_c, 0, 56, 42
1, 84914, Note_on_c, 0, 59, 45
1, 84919, Note_on_c, 0, 62, 53
1, 84939, Note_off_c, 0, 77, 64
1, 84970, Note_off_c, 0, 62, 64
1, 84975, Note_off_c, 0, 56, 64
1, 84975, Note_off_c, 0, 59, 64
1, 85076, Note_on_c, 0, 62, 48
1, 85080, Note_on_c, 0, 56, 53
1, 85083, Note_on_c, 0, 59, 38
1, 85097, Note_on_c, 0, 77, 102
1, 85106, Note_on_c, 0, 65, 75
1, 85130, Note_off_c, 0, 62, 64
1, 85130, Note_off_c, 0, 59, 64
1, 85134, Note_off_c, 0, 56, 64
1, 85159, Note_off_c, 0, 65, 64
1, 85254, Note_on_c, 0, 59, 48
1, 85259, Note_on_c, 0, 62, 40
1, 85265, Note_on_c, 0, 56, 22
1, 85293, Note_off_c, 0, 59, 64
1, 85310, Note_off_c, 0, 62, 64
1, 85320, Note_off_c, 0, 56, 64
1, 85373, Note_on_c, 0, 62, 60
1, 85388, Note_on_c, 0, 56, 42
1, 85388, Note_on_c, 0, 59, 48
1, 85410, Note_off_c, 0, 77, 64
1, 85410, Note_off_c, 0, 62, 64
1, 85427, Note_off_c, 0, 59, 64
1, 85432, Note_off_c, 0, 56, 64
1, 85626, Note_on_c, 0, 33, 77
1, 85636, Control_c, 0, 64, 0
1, 85649, Note_on_c, 0, 45, 49
1, 85663, Note_on_c, 0, 81, 95
1, 85672, Note_on_c, 0, 69, 66
1, 85677, Note_on_c, 0, 77, 73
1, 85677, Note_on_c, 0, 73, 48
1, 85738, Note_off_c, 0, 33, 64
1, 85738, Note_off_c, 0, 45, 64
1, 85744, Control_c, 0, 64, 127
1, 85833, Note_off_c, 0, 69, 64
1, 85967, Note_on_c, 0, 65, 45
1, 85972, Note_on_c, 0, 61, 40
1, 85972, Note_on_c, 0, 55, 48
1, 86017, Note_off_c, 0, 65, 64
1, 86025, Note_off_c, 0, 55, 64
1, 86025, Note_off_c, 0, 61, 64
1, 86089, Note_off_c, 0, 81, 64
1, 86137, Note_off_c, 0, 77, 64
1, 86140, Note_on_c, 0, 65, 55
1, 86162, Note_on_c, 0, 61, 39
1, 86162, Note_on_c, 0, 55, 44
1, 86190, Note_off_c, 0, 65, 64
1, 86209, Note_off_c, 0, 73, 64
1, 86209, Note_off_c, 0, 61, 64
1, 86209, Note_off_c, 0, 55, 64
1, 86309, Note_on_c, 0, 55, 23
1, 86309, Note_on_c, 0, 61, 29
1, 86317, Note_on_c, 0, 65, 52
1, 86357, Note_off_c, 0, 65, 64
1, 86362, Note_off_c, 0, 55, 64
1, 86362, Note_off_c, 0, 61, 64
1, 86434, Note_on_c, 0, 65, 44
1, 86434, Note_on_c, 0, 55, 39
1, 86434, Note_on_c, 0, 61, 43
1, 86494, Note_off_c, 0, 55, 64
1, 86499, Note_off_c, 0, 61, 64
1, 86504, Note_on_c, 0, 76, 76
1, 86510, Note_on_c, 0, 64, 69
1, 86521, Note_off_c, 0, 65, 64
1, 86566, Note_off_c, 0, 64, 64
1, 86618, Note_off_c, 0, 76, 64
1, 86702, Note_on_c, 0, 76, 69
1, 86711, Note_on_c, 0, 64, 83
1, 86786, Note_off_c, 0, 64, 64
1, 86849, Note_on_c, 0, 64, 68
1, 86861, Note_on_c, 0, 55, 44
1, 86861, Note_on_c, 0, 61, 46
1, 86895, Note_off_c, 0, 64, 64
1, 86909, Note_off_c, 0, 55, 64
1, 86909, Note_off_c, 0, 61, 64
1, 86983, Note_on_c, 0, 61, 47
1, 86987, Note_on_c, 0, 55, 48
1, 86994, Note_on_c, 0, 64, 60
1, 87033, Note_off_c, 0, 55, 64
1, 87033, Note_off_c, 0, 64, 64
1, 87040, Note_off_c, 0, 61, 64
1, 87114, Note_on_c, 0, 64, 55
1, 87117, Note_on_c, 0, 61, 43
1, 87128, Note_on_c, 0, 55, 19
1, 87172, Note_off_c, 0, 64, 64
1, 87178, Note_off_c, 0, 61, 64
1, 87189, Note_off_c, 0, 55, 64
1, 87251, Note_on_c, 0, 55, 58
1, 87251, Note_on_c, 0, 64, 66
1, 87254, Note_on_c, 0, 61, 50
1, 87309, Note_off_c, 0, 64, 64
1, 87309, Note_off_c, 0, 61, 64
1, 87317, Note_off_c, 0, 55, 64
1, 87402, Note_on_c, 0, 64, 56
1, 87410, Note_on_c, 0, 55, 35
1, 87415, Note_on_c, 0, 61, 38
1, 87446, Note_off_c, 0, 64, 64
1, 87463, Note_off_c, 0, 55, 64
1, 87463, Note_off_c, 0, 61, 64
1, 87529, Note_off_c, 0, 76, 64
1, 87664, Note_on_c, 0, 61, 61
1, 87664, Note_on_c, 0, 55, 68
1, 87667, Note_on_c, 0, 64, 63
1, 87704, Note_off_c, 0, 55, 64
1, 87704, Note_off_c, 0, 64, 64
1, 87708, Note_off_c, 0, 61, 64
1, 87774, Note_on_c, 0, 64, 59
1, 87783, Note_on_c, 0, 55, 34
1, 87783, Note_on_c, 0, 61, 46
1, 87842, Note_off_c, 0, 61, 64
1, 87858, Note_off_c, 0, 55, 64
1, 87866, Note_off_c, 0, 64, 64
1, 87908, Note_on_c, 0, 81, 108
1, 87908, Note_on_c, 0, 69, 89
1, 88012, Note_on_c, 0, 64, 71
1, 88020, Note_on_c, 0, 55, 66
1, 88026, Note_on_c, 0, 61, 53
1, 88053, Note_off_c, 0, 64, 64
1, 88061, Note_off_c, 0, 55, 64
1, 88065, Note_off_c, 0, 69, 64
1, 88070, Note_off_c, 0, 61, 64
1, 88159, Note_off_c, 0, 81, 64
1, 88172, Note_on_c, 0, 55, 66
1, 88175, Note_on_c, 0, 64, 15
1, 88175, Note_on_c, 0, 61, 55
1, 88212, Note_off_c, 0, 55, 64
1, 88212, Note_off_c, 0, 61, 64
1, 88215, Note_off_c, 0, 64, 64
1, 88346, Note_on_c, 0, 33, 73
1, 88368, Control_c, 0, 64, 0
1, 88368, Note_on_c, 0, 84, 111
1, 88368, Note_on_c, 0, 45, 86
1, 88374, Note_on_c, 0, 72, 99
1, 88374, Note_on_c, 0, 78, 84
1, 88377, Note_on_c, 0, 76, 82
1, 88413, Note_off_c, 0, 33, 64
1, 88443, Note_off_c, 0, 45, 64
1, 88465, Control_c, 0, 64, 127
1, 88594, Note_on_c, 0, 54, 73
1, 88594, Note_on_c, 0, 60, 57
1, 88597, Note_on_c, 0, 64, 69
1, 88636, Note_off_c, 0, 64, 64
1, 88641, Note_off_c, 0, 54, 64
1, 88657, Note_off_c, 0, 60, 64
1, 88757, Note_on_c, 0, 54, 76
1, 88757, Note_on_c, 0, 64, 74
1, 88783, Note_on_c, 0, 60, 41
1, 88795, Note_off_c, 0, 54, 64
1, 88795, Note_off_c, 0, 64, 64
1, 88830, Note_off_c, 0, 60, 64
1, 88892, Note_off_c, 0, 84, 64
1, 88905, Note_on_c, 0, 60, 34
1, 88909, Note_on_c, 0, 64, 69
1, 88920, Note_on_c, 0, 54, 54
1, 88944, Note_off_c, 0, 64, 64
1, 88953, Note_off_c, 0, 72, 64
1, 88962, Note_off_c, 0, 60, 64
1, 88962, Note_off_c, 0, 54, 64
1, 89009, Note_on_c, 0, 64, 61
1, 89012, Note_on_c, 0, 54, 76
1, 89026, Note_on_c, 0, 60, 70
1, 89076, Note_off_c, 0, 78, 64
1, 89081, Note_off_c, 0, 60, 64
1, 89081, Note_on_c, 0, 69, 89
1, 89081, Note_on_c, 0, 81, 103
1, 89081, Note_off_c, 0, 54, 64
1, 89093, Note_off_c, 0, 64, 64
1, 89106, Note_off_c, 0, 76, 64
1, 89215, Note_on_c, 0, 64, 67
1, 89218, Note_on_c, 0, 60, 51
1, 89218, Note_on_c, 0, 54, 51
1, 89256, Note_off_c, 0, 69, 64
1, 89265, Note_off_c, 0, 81, 64
1, 89332, Note_on_c, 0, 81, 94
1, 89340, Note_on_c, 0, 69, 77
1, 89340, Note_off_c, 0, 64, 64
1, 89365, Note_off_c, 0, 54, 64
1, 89373, Note_off_c, 0, 60, 64
1, 89490, Note_on_c, 0, 54, 67
1, 89496, Note_on_c, 0, 64, 59
1, 89507, Note_on_c, 0, 60, 50
1, 89527, Note_off_c, 0, 54, 64
1, 89536, Note_off_c, 0, 64, 64
1, 89552, Note_off_c, 0, 60, 64
1, 89605, Note_on_c, 0, 60, 68
1, 89610, Note_on_c, 0, 54, 53
1, 89610, Note_on_c, 0, 64, 62
1, 89655, Note_off_c, 0, 64, 64
1, 89658, Note_off_c, 0, 54, 64
1, 89674, Note_off_c, 0, 60, 64
1, 89736, Note_on_c, 0, 64, 69
1, 89736, Note_on_c, 0, 54, 57
1, 89741, Note_on_c, 0, 60, 55
1, 89788, Note_off_c, 0, 64, 64
1, 89788, Note_off_c, 0, 54, 64
1, 89805, Note_off_c, 0, 60, 64
1, 89863, Note_on_c, 0, 64, 70
1, 89863, Note_on_c, 0, 60, 67
1, 89872, Note_on_c, 0, 54, 64
1, 89911, Note_off_c, 0, 64, 64
1, 89911, Note_off_c, 0, 54, 64
1, 89928, Note_off_c, 0, 60, 64
1, 89997, Note_on_c, 0, 64, 73
1, 90004, Note_on_c, 0, 54, 63
1, 90011, Note_on_c, 0, 60, 42
1, 90072, Note_off_c, 0, 64, 64
1, 90090, Note_off_c, 0, 54, 64
1, 90103, Note_off_c, 0, 60, 64
1, 90162, Note_off_c, 0, 69, 64
1, 90220, Note_off_c, 0, 81, 64
1, 90237, Note_on_c, 0, 64, 86
1, 90237, Note_on_c, 0, 54, 87
1, 90249, Note_on_c, 0, 60, 54
1, 90270, Note_off_c, 0, 54, 64
1, 90270, Note_off_c, 0, 64, 64
1, 90295, Note_off_c, 0, 60, 64
1, 90346, Note_on_c, 0, 60, 75
1, 90351, Note_on_c, 0, 64, 72
1, 90355, Note_on_c, 0, 54, 69
1, 90416, Note_off_c, 0, 54, 64
1, 90452, Note_off_c, 0, 64, 64
1, 90452, Note_off_c, 0, 60, 64
1, 90476, Note_on_c, 0, 84, 117
1, 90476, Note_on_c, 0, 72, 107
1, 90583, Note_off_c, 0, 72, 64
1, 90586, Note_on_c, 0, 54, 79
1, 90586, Note_on_c, 0, 64, 76
1, 90593, Note_on_c, 0, 60, 60
1, 90629, Note_off_c, 0, 64, 64
1, 90639, Note_off_c, 0, 54, 64
1, 90639, Note_off_c, 0, 60, 64
1, 90697, Note_on_c, 0, 60, 70
1, 90700, Note_on_c, 0, 64, 72
1, 90716, Note_on_c, 0, 54, 67
1, 90733, Note_off_c, 0, 64, 64
1, 90744, Note_off_c, 0, 60, 64
1, 90752, Note_on_c, 0, 76, 100
1, 90778, Note_off_c, 0, 54, 64
1, 90912, Note_on_c, 0, 38, 96
1, 90912, Note_off_c, 0, 84, 64
1, 90920, Note_on_c, 0, 50, 92
1, 90983, Control_c, 0, 64, 0
1, 91047, Note_on_c, 0, 88, 112
1, 91087, Note_off_c, 0, 38, 64
1, 91114, Control_c, 0, 64, 127
1, 91129, Note_off_c, 0, 50, 64
1, 91215, Note_off_c, 0, 76, 64
1, 91271, Note_on_c, 0, 67, 81
1, 91279, Note_on_c, 0, 64, 69
1, 91284, Note_on_c, 0, 60, 63
1, 91334, Note_off_c, 0, 67, 64
1, 91337, Note_off_c, 0, 60, 64
1, 91340, Note_off_c, 0, 64, 64
1, 91423, Note_on_c, 0, 67, 79
1, 91423, Note_on_c, 0, 64, 64
1, 91427, Note_on_c, 0, 60, 64
1, 91472, Note_off_c, 0, 60, 64
1, 91490, Note_off_c, 0, 64, 64
1, 91493, Note_off_c, 0, 67, 64
1, 91499, Note_off_c, 0, 88, 64
1, 91558, Note_on_c, 0, 67, 69
1, 91565, Note_on_c, 0, 64, 55
1, 91577, Note_on_c, 0, 60, 40
1, 91603, Note_off_c, 0, 67, 64
1, 91611, Note_off_c, 0, 64, 64
1, 91632, Note_off_c, 0, 60, 64
1, 91680, Note_on_c, 0, 67, 57
1, 91680, Note_on_c, 0, 60, 79
1, 91685, Note_on_c, 0, 64, 60
1, 91708, Note_on_c, 0, 81, 104
1, 91708, Note_on_c, 0, 69, 85
1, 91731, Note_off_c, 0, 67, 64
1, 91731, Note_off_c, 0, 64, 64
1, 91734, Note_off_c, 0, 60, 64
1, 91834, Note_off_c, 0, 69, 64
1, 91844, Note_on_c, 0, 67, 82
1, 91853, Note_on_c, 0, 64, 57
1, 91861, Note_off_c, 0, 81, 64
1, 91861, Note_on_c, 0, 60, 79
1, 91906, Note_on_c, 0, 81, 97
1, 91912, Note_off_c, 0, 67, 64
1, 91912, Note_off_c, 0, 60, 64
1, 91915, Note_off_c, 0, 64, 64
1, 91919, Note_on_c, 0, 69, 77
1, 92042, Note_on_c, 0, 79, 78
1, 92048, Note_on_c, 0, 67, 77
1, 92048, Note_on_c, 0, 76, 58
1, 92051, Note_on_c, 0, 60, 69
1, 92057, Note_on_c, 0, 64, 73
1, 92079, Note_off_c, 0, 79, 64
1, 92087, Note_off_c, 0, 76, 64
1, 92087, Note_off_c, 0, 67, 64
1, 92092, Note_off_c, 0, 64, 64
1, 92098, Note_off_c, 0, 60, 64
1, 92148, Note_on_c, 0, 79, 86
1, 92153, Note_on_c, 0, 60, 77
1, 92153, Note_on_c, 0, 76, 56
1, 92160, Note_on_c, 0, 67, 49
1, 92173, Note_on_c, 0, 64, 46
1, 92184, Note_off_c, 0, 69, 64
1, 92188, Note_off_c, 0, 81, 64
1, 92195, Note_off_c, 0, 76, 64
1, 92221, Note_off_c, 0, 64, 64
1, 92232, Note_off_c, 0, 79, 64
1, 92238, Note_off_c, 0, 60, 64
1, 92248, Note_off_c, 0, 67, 64
1, 92260, Note_on_c, 0, 81, 104
1, 92260, Note_on_c, 0, 69, 94
1, 92391, Note_on_c, 0, 67, 70
1, 92398, Note_on_c, 0, 79, 93
1, 92401, Note_on_c, 0, 64, 68
1, 92401, Note_on_c, 0, 60, 68
1, 92405, Note_on_c, 0, 76, 75
1, 92435, Note_off_c, 0, 67, 64
1, 92440, Note_off_c, 0, 64, 64
1, 92440, Note_off_c, 0, 79, 64
1, 92440, Note_off_c, 0, 76, 64
1, 92443, Note_off_c, 0, 60, 64
1, 92513, Note_on_c, 0, 79, 90
1, 92513, Note_on_c, 0, 76, 73
1, 92522, Note_on_c, 0, 67, 69
1, 92522, Note_on_c, 0, 64, 67
1, 92529, Note_on_c, 0, 60, 57
1, 92560, Note_off_c, 0, 69, 64
1, 92564, Note_off_c, 0, 81, 64
1, 92589, Note_off_c, 0, 79, 64
1, 92610, Note_off_c, 0, 76, 64
1, 92610, Note_off_c, 0, 64, 64
1, 92614, Note_off_c, 0, 67, 64
1, 92632, Note_off_c, 0, 60, 64
1, 92642, Note_on_c, 0, 83, 127
1, 92647, Note_on_c, 0, 71, 113
1, 92758, Note_on_c, 0, 67, 88
1, 92767, Note_on_c, 0, 59, 76
1, 92767, Note_on_c, 0, 74, 92
1, 92783, Note_on_c, 0, 62, 40
1, 92802, Note_on_c, 0, 64, 49
1, 92816, Control_c, 0, 64, 0
1, 92828, Note_off_c, 0, 62, 64
1, 92842, Note_off_c, 0, 59, 64
1, 92845, Note_off_c, 0, 64, 64
1, 92852, Control_c, 0, 64, 127
1, 92852, Note_off_c, 0, 67, 64
1, 92852, Note_off_c, 0, 74, 64
1, 92889, Note_on_c, 0, 62, 71
1, 92893, Note_on_c, 0, 59, 82
1, 92893, Note_on_c, 0, 74, 107
1, 92901, Note_on_c, 0, 67, 90
1, 92944, Note_off_c, 0, 71, 64
1, 92956, Note_off_c, 0, 83, 64
1, 92981, Note_off_c, 0, 74, 64
1, 92992, Note_off_c, 0, 59, 64
1, 93003, Note_off_c, 0, 67, 64
1, 93018, Note_off_c, 0, 62, 64
1, 93025, Note_on_c, 0, 84, 117
1, 93028, Note_on_c, 0, 72, 110
1, 93128, Note_on_c, 0, 67, 90
1, 93137, Note_on_c, 0, 60, 65
1, 93137, Note_on_c, 0, 57, 60
1, 93149, Note_on_c, 0, 76, 76
1, 93159, Note_off_c, 0, 84, 64
1, 93168, Note_off_c, 0, 67, 64
1, 93179, Note_off_c, 0, 72, 64
1, 93179, Note_off_c, 0, 60, 64
1, 93182, Note_off_c, 0, 57, 64
1, 93182, Note_off_c, 0, 76, 64
1, 93235, Note_on_c, 0, 60, 68
1, 93235, Note_on_c, 0, 57, 55
1, 93248, Note_on_c, 0, 76, 75
1, 93273, Note_off_c, 0, 60, 64
1, 93279, Note_off_c, 0, 76, 64
1, 93282, Note_off_c, 0, 57, 64
1, 93343, Note_on_c, 0, 76, 83
1, 93413, Note_on_c, 0, 49, 10
1, 93455, Note_on_c, 0, 43, 99
1, 93468, Note_off_c, 0, 49, 64
1, 93494, Note_on_c, 0, 55, 95
1, 93497, Control_c, 0, 64, 0
1, 93558, Note_on_c, 0, 88, 115
1, 93592, Note_off_c, 0, 43, 64
1, 93607, Control_c, 0, 64, 127
1, 93631, Note_off_c, 0, 55, 64
1, 93636, Note_off_c, 0, 88, 64
1, 93666, Note_off_c, 0, 76, 64
1, 93786, Note_on_c, 0, 60, 68
1, 93786, Note_on_c, 0, 57, 57
1, 93794, Note_on_c, 0, 77, 91
1, 93805, Note_on_c, 0, 69, 55
1, 93805, Note_on_c, 0, 65, 61
1, 93805, Note_on_c, 0, 72, 66
1, 93820, Note_on_c, 0, 50, 11
1, 93851, Note_off_c, 0, 60, 64
1, 93862, Note_off_c, 0, 57, 64
1, 93869, Note_off_c, 0, 50, 64
1, 93875, Note_off_c, 0, 72, 64
1, 93883, Note_off_c, 0, 77, 64
1, 93897, Note_off_c, 0, 65, 64
1, 93900, Note_off_c, 0, 69, 64
1, 93962, Note_on_c, 0, 50, 71
1, 93967, Note_on_c, 0, 60, 83
1, 93967, Note_on_c, 0, 69, 42
1, 93972, Note_on_c, 0, 65, 74
1, 93972, Note_on_c, 0, 72, 71
1, 93972, Note_on_c, 0, 77, 81
1, 93978, Note_on_c, 0, 57, 48
1, 94014, Note_off_c, 0, 50, 64
1, 94014, Note_off_c, 0, 60, 64
1, 94022, Note_off_c, 0, 57, 64
1, 94043, Note_off_c, 0, 77, 64
1, 94050, Note_off_c, 0, 65, 64
1, 94057, Note_off_c, 0, 72, 64
1, 94064, Note_off_c, 0, 69, 64
1, 94104, Note_on_c, 0, 77, 75
1, 94109, Note_on_c, 0, 72, 70
1, 94114, Note_on_c, 0, 65, 65
1, 94114, Note_on_c, 0, 69, 59
1, 94117, Note_on_c, 0, 60, 83
1, 94117, Note_on_c, 0, 57, 55
1, 94120, Note_on_c, 0, 50, 84
1, 94159, Note_off_c, 0, 65, 64
1, 94159, Note_off_c, 0, 60, 64
1, 94159, Note_off_c, 0, 50, 64
1, 94167, Note_off_c, 0, 57, 64
1, 94173, Note_off_c, 0, 77, 64
1, 94173, Note_off_c, 0, 69, 64
1, 94182, Note_off_c, 0, 72, 64
1, 94232, Note_on_c, 0, 77, 79
1, 94237, Note_on_c, 0, 72, 67
1, 94240, Note_on_c, 0, 65, 46
1, 94240, Note_on_c, 0, 69, 27
1, 94243, Note_on_c, 0, 60, 73
1, 94249, Note_on_c, 0, 57, 45
1, 94260, Note_on_c, 0, 50, 59
1, 94271, Note_off_c, 0, 72, 64
1, 94285, Note_off_c, 0, 65, 64
1, 94290, Note_off_c, 0, 77, 64
1, 94298, Note_off_c, 0, 69, 64
1, 94373, Note_on_c, 0, 86, 114
1, 94379, Note_on_c, 0, 74, 98
1, 94387, Note_off_c, 0, 57, 64
1, 94393, Note_off_c, 0, 60, 64
1, 94408, Note_off_c, 0, 74, 64
1, 94443, Note_off_c, 0, 86, 64
1, 94450, Note_off_c, 0, 50, 64
1, 94519, Note_on_c, 0, 86, 100
1, 94519, Note_on_c, 0, 74, 116
1, 94578, Note_off_c, 0, 86, 64
1, 94582, Note_off_c, 0, 74, 64
1, 94734, Note_on_c, 0, 60, 82
1, 94739, Note_on_c, 0, 50, 73
1, 94742, Note_on_c, 0, 65, 73
1, 94742, Note_on_c, 0, 57, 69
1, 94742, Note_on_c, 0, 77, 90
1, 94750, Note_on_c, 0, 69, 61
1, 94759, Note_on_c, 0, 72, 63
1, 94792, Note_off_c, 0, 50, 64
1, 94795, Note_off_c, 0, 60, 64
1, 94795, Note_off_c, 0, 57, 64
1, 94820, Note_off_c, 0, 72, 64
1, 94825, Note_off_c, 0, 77, 64
1, 94828, Note_off_c, 0, 65, 64
1, 94856, Note_off_c, 0, 69, 64
1, 94892, Note_on_c, 0, 60, 76
1, 94892, Note_on_c, 0, 72, 71
1, 94897, Note_on_c, 0, 65, 69
1, 94897, Note_on_c, 0, 77, 69
1, 94900, Note_on_c, 0, 50, 74
1, 94900, Note_on_c, 0, 57, 53
1, 94903, Note_on_c, 0, 69, 78
1, 94947, Note_off_c, 0, 50, 64
1, 94947, Note_off_c, 0, 57, 64
1, 94962, Note_off_c, 0, 65, 64
1, 94965, Note_off_c, 0, 60, 64
1, 94972, Note_off_c, 0, 77, 64
1, 94975, Note_off_c, 0, 72, 64
1, 94990, Note_off_c, 0, 69, 64
1, 95029, Note_on_c, 0, 60, 72
1, 95032, Note_on_c, 0, 72, 69
1, 95032, Note_on_c, 0, 77, 82
1, 95032, Note_on_c, 0, 65, 79
1, 95032, Note_on_c, 0, 57, 60
1, 95036, Note_on_c, 0, 69, 74
1, 95045, Note_on_c, 0, 50, 70
1, 95081, Note_off_c, 0, 50, 64
1, 95085, Note_off_c, 0, 60, 64
1, 95085, Note_off_c, 0, 57, 64
1, 95092, Note_off_c, 0, 77, 64
1, 95095, Note_off_c, 0, 65, 64
1, 95116, Note_off_c, 0, 69, 64
1, 95116, Note_off_c, 0, 72, 64
1, 95159, Note_on_c, 0, 77, 79
1, 95159, Note_on_c, 0, 60, 71
1, 95159, Note_on_c, 0, 65, 73
1, 95163, Note_on_c, 0, 69, 64
1, 95163, Note_on_c, 0, 72, 77
1, 95163, Note_on_c, 0, 50, 64
1, 95167, Note_on_c, 0, 57, 53
1, 95209, Note_off_c, 0, 77, 64
1, 95216, Note_off_c, 0, 50, 64
1, 95216, Note_off_c, 0, 65, 64
1, 95220, Note_off_c, 0, 57, 64
1, 95227, Note_off_c, 0, 72, 64
1, 95230, Note_off_c, 0, 69, 64
1, 95238, Note_off_c, 0, 60, 64
1, 95291, Note_on_c, 0, 72, 72
1, 95291, Note_on_c, 0, 69, 59
1, 95294, Note_on_c, 0, 77, 89
1, 95294, Note_on_c, 0, 65, 78
1, 95298, Note_on_c, 0, 60, 71
1, 95313, Note_on_c, 0, 57, 51
1, 95316, Note_on_c, 0, 50, 71
1, 95390, Note_off_c, 0, 77, 64
1, 95401, Note_off_c, 0, 60, 64
1, 95421, Note_off_c, 0, 69, 64
1, 95426, Note_off_c, 0, 72, 64
1, 95426, Note_off_c, 0, 50, 64
1, 95433, Note_off_c, 0, 57, 64
1, 95461, Note_off_c, 0, 65, 64
1, 95544, Note_on_c, 0, 77, 90
1, 95550, Note_on_c, 0, 60, 79
1, 95550, Note_on_c, 0, 57, 70
1, 95550, Note_on_c, 0, 65, 76
1, 95558, Note_on_c, 0, 69, 60
1, 95558, Note_on_c, 0, 72, 59
1, 95563, Note_on_c, 0, 50, 67
1, 95588, Note_off_c, 0, 77, 64
1, 95594, Note_off_c, 0, 60, 64
1, 95594, Note_off_c, 0, 65, 64
1, 95603, Note_off_c, 0, 72, 64
1, 95603, Note_off_c, 0, 50, 64
1, 95611, Note_off_c, 0, 57, 64
1, 95611, Note_off_c, 0, 69, 64
1, 95678, Note_on_c, 0, 72, 47
1, 95678, Note_on_c, 0, 65, 47
1, 95681, Note_on_c, 0, 77, 57
1, 95691, Note_on_c, 0, 60, 89
1, 95694, Note_on_c, 0, 57, 41
1, 95708, Note_on_c, 0, 50, 45
1, 95717, Note_off_c, 0, 72, 64
1, 95722, Note_off_c, 0, 65, 64
1, 95736, Note_off_c, 0, 77, 64
1, 95761, Note_off_c, 0, 57, 64
1, 95803, Note_off_c, 0, 50, 64
1, 95825, Note_off_c, 0, 60, 64
1, 95851, Note_on_c, 0, 82, 6
1, 95898, Note_off_c, 0, 82, 64
1, 95909, Note_on_c, 0, 86, 114
1, 95909, Note_on_c, 0, 74, 121
1, 95915, Note_on_c, 0, 62, 115
1, 95976, Note_off_c, 0, 86, 64
1, 95976, Note_off_c, 0, 74, 64
1, 96007, Note_off_c, 0, 62, 64
1, 96090, Note_on_c, 0, 77, 95
1, 96090, Note_on_c, 0, 60, 99
1, 96101, Note_on_c, 0, 50, 85
1, 96107, Note_on_c, 0, 65, 65
1, 96121, Note_on_c, 0, 69, 23
1, 96121, Note_on_c, 0, 57, 47
1, 96140, Note_off_c, 0, 50, 64
1, 96151, Note_on_c, 0, 72, 14
1, 96151, Note_off_c, 0, 65, 64
1, 96162, Note_off_c, 0, 77, 64
1, 96171, Note_off_c, 0, 57, 64
1, 96181, Note_off_c, 0, 60, 64
1, 96181, Note_off_c, 0, 69, 64
1, 96205, Note_off_c, 0, 72, 64
1, 96227, Note_on_c, 0, 60, 89
1, 96227, Note_on_c, 0, 57, 68
1, 96235, Note_on_c, 0, 65, 70
1, 96243, Note_on_c, 0, 77, 79
1, 96246, Note_on_c, 0, 50, 93
1, 96254, Note_on_c, 0, 72, 64
1, 96254, Note_off_c, 0, 60, 64
1, 96265, Note_off_c, 0, 57, 64
1, 96265, Note_off_c, 0, 65, 64
1, 96279, Note_off_c, 0, 50, 64
1, 96291, Note_off_c, 0, 72, 64
1, 96307, Note_off_c, 0, 77, 64
1, 96483, Note_on_c, 0, 43, 115
1, 96486, Note_on_c, 0, 31, 110
1, 96508, Note_off_c, 0, 31, 64
1, 96541, Note_off_c, 0, 43, 64
1, 96784, Note_on_c, 0, 89, 117
1, 96784, Note_on_c, 0, 77, 116
1, 96800, Note_on_c, 0, 65, 115
1, 96868, Note_off_c, 0, 65, 64
1, 96878, Note_off_c, 0, 89, 64
1, 96917, Note_off_c, 0, 77, 64
1, 97115, Note_on_c, 0, 77, 99
1, 97115, Note_on_c, 0, 60, 95
1, 97120, Note_on_c, 0, 68, 76
1, 97120, Note_on_c, 0, 65, 80
1, 97120, Note_on_c, 0, 72, 79
1, 97120, Note_on_c, 0, 56, 78
1, 97132, Note_on_c, 0, 50, 72
1, 97132, Note_on_c, 0, 53, 97
1, 97188, Note_off_c, 0, 53, 64
1, 97191, Note_off_c, 0, 50, 64
1, 97221, Note_off_c, 0, 77, 64
1, 97221, Note_off_c, 0, 56, 64
1, 97227, Note_off_c, 0, 60, 64
1, 97230, Note_off_c, 0, 72, 64
1, 97230, Note_off_c, 0, 68, 64
1, 97238, Note_off_c, 0, 65, 64
1, 97333, Note_on_c, 0, 77, 94
1, 97336, Note_on_c, 0, 68, 64
1, 97336, Note_on_c, 0, 60, 92
1, 97340, Note_on_c, 0, 65, 69
1, 97340, Note_on_c, 0, 72, 69
1, 97344, Note_on_c, 0, 56, 68
1, 97347, Note_on_c, 0, 50, 74
1, 97355, Note_on_c, 0, 53, 91
1, 97390, Note_off_c, 0, 50, 64
1, 97390, Note_off_c, 0, 53, 64
1, 97407, Note_off_c, 0, 60, 64
1, 97411, Note_off_c, 0, 77, 64
1, 97411, Note_off_c, 0, 56, 64
1, 97424, Note_off_c, 0, 68, 64
1, 97424, Note_off_c, 0, 65, 64
1, 97435, Note_off_c, 0, 72, 64
1, 97494, Note_on_c, 0, 77, 86
1, 97494, Note_on_c, 0, 72, 73
1, 97499, Note_on_c, 0, 65, 75
1, 97499, Note_on_c, 0, 68, 64
1, 97502, Note_on_c, 0, 60, 84
1, 97511, Note_on_c, 0, 50, 71
1, 97514, Note_on_c, 0, 56, 54
1, 97535, Note_on_c, 0, 53, 79
1, 97560, Note_off_c, 0, 50, 64
1, 97567, Note_off_c, 0, 77, 64
1, 97570, Note_off_c, 0, 53, 64
1, 97578, Note_off_c, 0, 56, 64
1, 97578, Note_off_c, 0, 65, 64
1, 97588, Note_off_c, 0, 60, 64
1, 97603, Note_off_c, 0, 68, 64
1, 97606, Note_off_c, 0, 72, 64
1, 97645, Note_on_c, 0, 60, 88
1, 97649, Note_on_c, 0, 65, 78
1, 97653, Note_on_c, 0, 72, 79
1, 97653, Note_on_c, 0, 68, 49
1, 97657, Note_on_c, 0, 77, 64
1, 97657, Note_on_c, 0, 53, 78
1, 97677, Note_on_c, 0, 50, 53
1, 97681, Note_off_c, 0, 65, 64
1, 97695, Note_off_c, 0, 72, 64
1, 97698, Note_off_c, 0, 53, 64
1, 97702, Note_off_c, 0, 68, 64
1, 97706, Note_off_c, 0, 77, 64
1, 97723, Note_off_c, 0, 50, 64
1, 97728, Note_off_c, 0, 60, 64
1, 97817, Note_on_c, 0, 68, 107
1, 97817, Note_on_c, 0, 80, 111
1, 97822, Note_on_c, 0, 56, 108
1, 97900, Note_off_c, 0, 68, 64
1, 97907, Note_off_c, 0, 56, 64
1, 97915, Note_off_c, 0, 80, 64
1, 98054, Note_on_c, 0, 68, 103
1, 98054, Note_on_c, 0, 80, 102
1, 98062, Note_on_c, 0, 56, 97
1, 98131, Note_off_c, 0, 80, 64
1, 98149, Note_off_c, 0, 68, 64
1, 98162, Note_off_c, 0, 56, 64
1, 98229, Note_on_c, 0, 65, 88
1, 98229, Note_on_c, 0, 77, 81
1, 98232, Note_on_c, 0, 56, 60
1, 98232, Note_on_c, 0, 60, 89
1, 98243, Note_on_c, 0, 68, 48
1, 98249, Note_on_c, 0, 50, 64
1, 98252, Note_on_c, 0, 72, 18
1, 98260, Note_on_c, 0, 53, 74
1, 98290, Note_off_c, 0, 50, 64
1, 98290, Note_off_c, 0, 60, 64
1, 98294, Note_off_c, 0, 77, 64
1, 98297, Note_off_c, 0, 53, 64
1, 98303, Note_off_c, 0, 68, 64
1, 98303, Note_off_c, 0, 72, 64
1, 98315, Note_off_c, 0, 65, 64
1, 98315, Note_off_c, 0, 56, 64
1, 98368, Note_on_c, 0, 56, 68
1, 98368, Note_on_c, 0, 68, 60
1, 98368, Note_on_c, 0, 65, 75
1, 98368, Note_on_c, 0, 77, 69
1, 98368, Note_on_c, 0, 60, 79
1, 98375, Note_on_c, 0, 53, 68
1, 98386, Note_on_c, 0, 50, 49
1, 98389, Note_on_c, 0, 72, 48
1, 98405, Note_off_c, 0, 68, 64
1, 98436, Note_off_c, 0, 72, 64
1, 98439, Note_off_c, 0, 65, 64
1, 98442, Note_off_c, 0, 50, 64
1, 98446, Note_off_c, 0, 56, 64
1, 98449, Note_off_c, 0, 77, 64
1, 98449, Note_off_c, 0, 60, 64
1, 98455, Note_off_c, 0, 53, 64
1, 98521, Control_c, 0, 64, 0
1, 98521, Note_on_c, 0, 79, 118
1, 98525, Note_on_c, 0, 67, 112
1, 98525, Note_on_c, 0, 55, 110
1, 98580, Control_c, 0, 64, 127
1, 98620, Note_off_c, 0, 79, 64
1, 98628, Note_off_c, 0, 67, 64
1, 98633, Note_off_c, 0, 55, 64
1, 98691, Note_on_c, 0, 60, 87
1, 98691, Note_on_c, 0, 53, 97
1, 98691, Note_on_c, 0, 65, 98
1, 98695, Note_on_c, 0, 77, 83
1, 98698, Note_on_c, 0, 55, 62
1, 98702, Note_on_c, 0, 50, 66
1, 98705, Note_on_c, 0, 72, 64
1, 98745, Note_off_c, 0, 50, 64
1, 98745, Note_off_c, 0, 72, 64
1, 98751, Note_off_c, 0, 53, 64
1, 98769, Note_off_c, 0, 60, 64
1, 98769, Note_off_c, 0, 55, 64
1, 98769, Note_off_c, 0, 77, 64
1, 98776, Note_off_c, 0, 65, 64
1, 98831, Note_on_c, 0, 65, 75
1, 98840, Note_on_c, 0, 77, 59
1, 98840, Note_on_c, 0, 60, 77
1, 98845, Note_on_c, 0, 72, 61
1, 98853, Note_on_c, 0, 55, 59
1, 98857, Note_on_c, 0, 53, 85
1, 98860, Note_on_c, 0, 50, 69
1, 98864, Note_off_c, 0, 65, 64
1, 98879, Note_off_c, 0, 72, 64
1, 98915, Note_off_c, 0, 77, 64
1, 98946, Note_off_c, 0, 60, 64
1, 98989, Note_off_c, 0, 55, 64
1, 99021, Note_off_c, 0, 53, 64
1, 99051, Note_on_c, 0, 59, 112
1, 99051, Note_on_c, 0, 83, 127
1, 99055, Note_on_c, 0, 71, 120
1, 99084, Control_c, 0, 64, 0
1, 99084, Note_on_c, 0, 80, 39
1, 99120, Control_c, 0, 64, 127
1, 99137, Note_off_c, 0, 80, 64
1, 99159, Note_off_c, 0, 83, 64
1, 99174, Note_off_c, 0, 50, 64
1, 99182, Note_off_c, 0, 71, 64
1, 99190, Note_off_c, 0, 59, 64
1, 99251, Note_on_c, 0, 59, 77
1, 99258, Note_on_c, 0, 77, 91
1, 99262, Note_on_c, 0, 71, 74
1, 99262, Note_on_c, 0, 67, 85
1, 99268, Note_on_c, 0, 50, 47
1, 99268, Note_on_c, 0, 65, 88
1, 99271, Note_on_c, 0, 53, 83
1, 99274, Note_on_c, 0, 55, 66
1, 99301, Note_off_c, 0, 65, 64
1, 99308, Note_off_c, 0, 53, 64
1, 99311, Note_off_c, 0, 67, 64
1, 99319, Note_off_c, 0, 71, 64
1, 99319, Note_off_c, 0, 55, 64
1, 99335, Note_off_c, 0, 59, 64
1, 99349, Note_off_c, 0, 77, 64
1, 99358, Note_off_c, 0, 50, 64
1, 99432, Note_on_c, 0, 77, 82
1, 99432, Note_on_c, 0, 71, 85
1, 99436, Note_on_c, 0, 53, 101
1, 99441, Note_on_c, 0, 59, 93
1, 99441, Note_on_c, 0, 65, 53
1, 99444, Note_on_c, 0, 55, 63
1, 99447, Note_on_c, 0, 50, 61
1, 99452, Note_on_c, 0, 67, 35
1, 99464, Note_off_c, 0, 71, 64
1, 99464, Note_off_c, 0, 53, 64
1, 99481, Note_off_c, 0, 55, 64
1, 99484, Note_off_c, 0, 65, 64
1, 99484, Note_off_c, 0, 50, 64
1, 99491, Note_off_c, 0, 59, 64
1, 99494, Note_off_c, 0, 77, 64
1, 99508, Note_off_c, 0, 67, 64
1, 99606, Note_on_c, 0, 82, 10
1, 99662, Note_off_c, 0, 82, 64
1, 99672, Note_on_c, 0, 88, 115
1, 99675, Note_on_c, 0, 76, 115
1, 99681, Note_on_c, 0, 64, 113
1, 99734, Note_off_c, 0, 76, 64
1, 99739, Note_off_c, 0, 88, 64
1, 99753, Note_off_c, 0, 64, 64
1, 99926, Note_on_c, 0, 59, 82
1, 99926, Note_on_c, 0, 77, 87
1, 99926, Note_on_c, 0, 67, 87
1, 99926, Note_on_c, 0, 65, 77
1, 99945, Note_on_c, 0, 50, 60
1, 99945, Note_on_c, 0, 71, 67
1, 99945, Note_on_c, 0, 53, 79
1, 99957, Note_on_c, 0, 55, 61
1, 99985, Note_off_c, 0, 71, 64
1, 99985, Note_off_c, 0, 53, 64
1, 99999, Note_off_c, 0, 55, 64
1, 100004, Note_off_c, 0, 50, 64
1, 100020, Note_off_c, 0, 59, 64
1, 100024, Note_off_c, 0, 67, 64
1, 100024, Note_off_c, 0, 65, 64
1, 100032, Note_off_c, 0, 77, 64
1, 100106, Note_on_c, 0, 59, 73
1, 100113, Note_on_c, 0, 77, 73
1, 100113, Note_on_c, 0, 65, 70
1, 100121, Note_on_c, 0, 50, 81
1, 100124, Note_on_c, 0, 71, 75
1, 100124, Note_on_c, 0, 53, 52
1, 100135, Note_off_c, 0, 59, 64
1, 100141, Note_off_c, 0, 77, 64
1, 100154, Note_off_c, 0, 50, 64
1, 100159, Note_off_c, 0, 71, 64
1, 100173, Note_off_c, 0, 53, 64
1, 100177, Note_off_c, 0, 65, 64
1, 100315, Note_on_c, 0, 36, 106
1, 100343, Note_on_c, 0, 62, 97
1, 100377, Control_c, 0, 64, 0
1, 100407, Note_on_c, 0, 48, 99
1, 100424, Note_on_c, 0, 64, 98
1, 100464, Note_off_c, 0, 36, 64
1, 100474, Note_off_c, 0, 62, 64
1, 100474, Control_c, 0, 64, 127
1, 100492, Note_off_c, 0, 48, 64
1, 100500, Note_on_c, 0, 70, 86
1, 100503, Note_off_c, 0, 64, 64
1, 100555, Note_off_c, 0, 70, 64
1, 100602, Note_on_c, 0, 74, 106
1, 100809, Note_on_c, 0, 62, 114
1, 100825, Note_on_c, 0, 86, 115
1, 100981, Note_off_c, 0, 86, 64
1, 101012, Note_off_c, 0, 74, 64
1, 101127, Note_off_c, 0, 62, 64
1, 101215, Note_on_c, 0, 76, 71
1, 101233, Note_on_c, 0, 64, 39
1, 101233, Note_on_c, 0, 70, 39
1, 101237, Note_on_c, 0, 60, 67
1, 101246, Note_on_c, 0, 62, 51
1, 101246, Note_on_c, 0, 52, 73
1, 101246, Note_on_c, 0, 48, 52
1, 101249, Note_on_c, 0, 58, 46
1, 101290, Note_off_c, 0, 62, 64
1, 101313, Note_off_c, 0, 70, 64
1, 101313, Note_off_c, 0, 52, 64
1, 101319, Note_off_c, 0, 48, 64
1, 101322, Note_off_c, 0, 58, 64
1, 101325, Note_off_c, 0, 64, 64
1, 101338, Note_off_c, 0, 60, 64
1, 101349, Note_off_c, 0, 76, 64
1, 101455, Note_on_c, 0, 60, 75
1, 101455, Note_on_c, 0, 70, 61
1, 101455, Note_on_c, 0, 76, 68
1, 101458, Note_on_c, 0, 64, 79
1, 101464, Note_on_c, 0, 52, 73
1, 101464, Note_on_c, 0, 48, 52
1, 101464, Note_on_c, 0, 58, 46
1, 101531, Note_off_c, 0, 52, 64
1, 101534, Note_off_c, 0, 60, 64
1, 101534, Note_off_c, 0, 64, 64
1, 101538, Note_off_c, 0, 48, 64
1, 101541, Note_off_c, 0, 70, 64
1, 101541, Note_off_c, 0, 58, 64
1, 101552, Note_off_c, 0, 76, 64
1, 101642, Note_on_c, 0, 76, 55
1, 101642, Note_on_c, 0, 60, 74
1, 101647, Note_on_c, 0, 64, 75
1, 101651, Note_on_c, 0, 58, 45
1, 101651, Note_on_c, 0, 70, 59
1, 101669, Note_on_c, 0, 48, 39
1, 101675, Note_on_c, 0, 52, 55
1, 101704, Note_off_c, 0, 70, 64
1, 101712, Note_off_c, 0, 64, 64
1, 101717, Note_off_c, 0, 60, 64
1, 101717, Note_off_c, 0, 58, 64
1, 101717, Note_off_c, 0, 52, 64
1, 101722, Note_off_c, 0, 48, 64
1, 101734, Note_off_c, 0, 76, 64
1, 101848, Note_on_c, 0, 60, 68
1, 101851, Note_on_c, 0, 76, 78
1, 101856, Note_on_c, 0, 58, 54
1, 101856, Note_on_c, 0, 48, 50
1, 101856, Note_on_c, 0, 64, 25
1, 101856, Note_on_c, 0, 70, 49
1, 101884, Note_on_c, 0, 52, 29
1, 101896, Note_off_c, 0, 70, 64
1, 101899, Note_off_c, 0, 76, 64
1, 101904, Note_off_c, 0, 64, 64
1, 101918, Note_off_c, 0, 48, 64
1, 101934, Note_off_c, 0, 52, 64
1, 101937, Note_off_c, 0, 60, 64
1, 101959, Note_off_c, 0, 58, 64
1, 102093, Note_on_c, 0, 84, 109
1, 102093, Note_on_c, 0, 72, 104
1, 102137, Note_on_c, 0, 60, 93
1, 102247, Note_off_c, 0, 72, 64
1, 102252, Note_off_c, 0, 60, 64
1, 102263, Note_off_c, 0, 84, 64
1, 102322, Note_on_c, 0, 84, 92
1, 102329, Note_on_c, 0, 72, 89
1, 102349, Note_on_c, 0, 60, 81
1, 102369, Note_off_c, 0, 84, 64
1, 102405, Note_off_c, 0, 72, 64
1, 102464, Note_off_c, 0, 60, 64
1, 102580, Note_on_c, 0, 64, 72
1, 102583, Note_on_c, 0, 60, 69
1, 102583, Note_on_c, 0, 76, 61
1, 102592, Note_on_c, 0, 70, 47
1, 102592, Note_on_c, 0, 58, 24
1, 102598, Note_on_c, 0, 48, 30
1, 102612, Note_on_c, 0, 52, 44
1, 102655, Note_off_c, 0, 52, 64
1, 102655, Note_off_c, 0, 64, 64
1, 102661, Note_off_c, 0, 58, 64
1, 102661, Note_off_c, 0, 60, 64
1, 102669, Note_off_c, 0, 70, 64
1, 102673, Note_off_c, 0, 76, 64
1, 102673, Note_off_c, 0, 48, 64
1, 102776, Note_on_c, 0, 60, 59
1, 102776, Note_on_c, 0, 76, 52
1, 102781, Note_on_c, 0, 64, 60
1, 102786, Note_on_c, 0, 70, 41
1, 102807, Note_on_c, 0, 58, 7
1, 102814, Note_on_c, 0, 52, 30
1, 102834, Note_off_c, 0, 70, 64
1, 102834, Note_off_c, 0, 64, 64
1, 102839, Note_off_c, 0, 60, 64
1, 102843, Note_off_c, 0, 76, 64
1, 102853, Note_off_c, 0, 58, 64
1, 102859, Note_off_c, 0, 52, 64
1, 102928, Note_on_c, 0, 60, 102
1, 102943, Note_on_c, 0, 48, 79
1, 103079, Note_on_c, 0, 70, 48
1, 103085, Note_on_c, 0, 76, 47
1, 103085, Note_off_c, 0, 48, 64
1, 103093, Note_on_c, 0, 64, 50
1, 103138, Note_off_c, 0, 76, 64
1, 103141, Note_off_c, 0, 70, 64
1, 103141, Note_off_c, 0, 64, 64
1, 103176, Note_off_c, 0, 60, 64
1, 103244, Note_on_c, 0, 76, 67
1, 103249, Note_on_c, 0, 70, 44
1, 103249, Note_on_c, 0, 64, 63
1, 103299, Note_off_c, 0, 64, 64
1, 103299, Note_off_c, 0, 70, 64
1, 103327, Note_off_c, 0, 76, 64
1, 103392, Note_on_c, 0, 64, 114
1, 103400, Note_on_c, 0, 52, 100
1, 103428, Note_off_c, 0, 52, 64
1, 103470, Note_off_c, 0, 64, 64
1, 103542, Note_on_c, 0, 64, 66
1, 103542, Note_on_c, 0, 76, 71
1, 103555, Note_on_c, 0, 70, 52
1, 103595, Note_off_c, 0, 70, 64
1, 103595, Note_off_c, 0, 64, 64
1, 103600, Note_off_c, 0, 76, 64
1, 103683, Note_on_c, 0, 76, 57
1, 103689, Note_on_c, 0, 70, 41
1, 103731, Note_off_c, 0, 70, 64
1, 103756, Note_off_c, 0, 76, 64
1, 103832, Note_on_c, 0, 69, 105
1, 103845, Note_on_c, 0, 57, 87
1, 103893, Note_off_c, 0, 69, 64
1, 103893, Note_off_c, 0, 57, 64
1, 103998, Note_on_c, 0, 76, 53
1, 104002, Note_on_c, 0, 70, 50
1, 104002, Note_on_c, 0, 64, 48
1, 104038, Note_off_c, 0, 76, 64
1, 104049, Note_off_c, 0, 64, 64
1, 104054, Note_off_c, 0, 70, 64
1, 104132, Note_on_c, 0, 76, 32
1, 104138, Note_on_c, 0, 70, 27
1, 104165, Note_on_c, 0, 64, 34
1, 104176, Note_off_c, 0, 76, 64
1, 104191, Note_off_c, 0, 70, 64
1, 104208, Note_on_c, 0, 36, 84
1, 104271, Note_off_c, 0, 64, 64
1, 104286, Note_off_c, 0, 36, 64
1, 104433, Note_on_c, 0, 67, 97
1, 104472, Note_on_c, 0, 55, 84
1, 104644, Control_c, 0, 64, 0
1, 104681, Control_c, 0, 64, 127
1, 104681, Note_on_c, 0, 60, 46
1, 104681, Note_on_c, 0, 69, 33
1, 104690, Note_on_c, 0, 72, 41
1, 104748, Note_off_c, 0, 72, 64
1, 104757, Note_off_c, 0, 69, 64
1, 104768, Note_off_c, 0, 60, 64
1, 104848, Note_on_c, 0, 69, 29
1, 104854, Note_on_c, 0, 60, 42
1, 104863, Note_on_c, 0, 72, 40
1, 104912, Note_off_c, 0, 55, 64
1, 104912, Note_off_c, 0, 72, 64
1, 104920, Note_off_c, 0, 69, 64
1, 104934, Note_off_c, 0, 60, 64
1, 105035, Note_on_c, 0, 69, 30
1, 105051, Note_on_c, 0, 72, 35
1, 105051, Note_on_c, 0, 60, 42
1, 105101, Note_off_c, 0, 69, 64
1, 105101, Note_off_c, 0, 72, 64
1, 105130, Note_off_c, 0, 60, 64
1, 105160, Note_off_c, 0, 67, 64
1, 105208, Note_on_c, 0, 72, 58
1, 105222, Note_on_c, 0, 69, 40
1, 105230, Note_on_c, 0, 60, 51
1, 105282, Note_off_c, 0, 72, 64
1, 105282, Note_off_c, 0, 69, 64
1, 105282, Note_off_c, 0, 60, 64
1, 105378, Note_on_c, 0, 65, 71
1, 105399, Note_on_c, 0, 53, 73
1, 105409, Note_on_c, 0, 69, 38
1, 105434, Note_off_c, 0, 53, 64
1, 105461, Note_off_c, 0, 65, 64
1, 105469, Note_off_c, 0, 69, 64
1, 105561, Note_on_c, 0, 65, 69
1, 105565, Note_on_c, 0, 53, 94
1, 105653, Note_off_c, 0, 65, 64
1, 105692, Note_on_c, 0, 60, 66
1, 105698, Note_off_c, 0, 53, 64
1, 105704, Note_on_c, 0, 72, 31
1, 105748, Note_off_c, 0, 60, 64
1, 105760, Note_off_c, 0, 72, 64
1, 105839, Note_on_c, 0, 69, 52
1, 105839, Note_on_c, 0, 60, 57
1, 105851, Note_on_c, 0, 72, 16
1, 105882, Note_off_c, 0, 69, 64
1, 105885, Note_off_c, 0, 60, 64
1, 105899, Note_off_c, 0, 72, 64
1, 106063, Note_on_c, 0, 65, 95
1, 106069, Note_on_c, 0, 53, 98
1, 106118, Note_off_c, 0, 53, 64
1, 106227, Note_on_c, 0, 57, 68
1, 106241, Note_on_c, 0, 60, 72
1, 106250, Note_on_c, 0, 48, 36
1, 106278, Note_off_c, 0, 57, 64
1, 106289, Note_off_c, 0, 60, 64
1, 106307, Note_off_c, 0, 48, 64
1, 106319, Note_off_c, 0, 65, 64
1, 106360, Note_on_c, 0, 60, 66
1, 106367, Note_on_c, 0, 57, 49
1, 106370, Note_on_c, 0, 48, 44
1, 106408, Note_off_c, 0, 60, 64
1, 106424, Note_off_c, 0, 57, 64
1, 106495, Note_off_c, 0, 48, 64
1, 106508, Note_on_c, 0, 69, 103
1, 106514, Note_on_c, 0, 57, 87
1, 106562, Note_off_c, 0, 57, 64
1, 106667, Note_off_c, 0, 69, 64
1, 106667, Note_on_c, 0, 48, 47
1, 106667, Note_on_c, 0, 60, 69
1, 106667, Note_on_c, 0, 53, 80
1, 106679, Note_on_c, 0, 65, 51
1, 106711, Note_off_c, 0, 60, 64
1, 106715, Note_off_c, 0, 53, 64
1, 106721, Note_off_c, 0, 48, 64
1, 106721, Note_off_c, 0, 65, 64
1, 106790, Note_on_c, 0, 65, 55
1, 106799, Note_on_c, 0, 60, 36
1, 106815, Note_on_c, 0, 53, 71
1, 106823, Note_off_c, 0, 65, 64
1, 106838, Note_on_c, 0, 48, 8
1, 106856, Note_off_c, 0, 60, 64
1, 106910, Note_off_c, 0, 48, 64
1, 106948, Note_off_c, 0, 53, 64
1, 107002, Note_on_c, 0, 74, 103
1, 107009, Note_on_c, 0, 62, 87
1, 107121, Note_off_c, 0, 62, 64
1, 107154, Note_on_c, 0, 48, 54
1, 107163, Note_on_c, 0, 57, 53
1, 107172, Note_on_c, 0, 69, 23
1, 107179, Note_off_c, 0, 74, 64
1, 107203, Note_off_c, 0, 48, 64
1, 107217, Note_off_c, 0, 57, 64
1, 107236, Note_off_c, 0, 69, 64
1, 107285, Note_on_c, 0, 57, 55
1, 107292, Note_on_c, 0, 69, 50
1, 107300, Note_on_c, 0, 65, 34
1, 107306, Note_on_c, 0, 48, 52
1, 107322, Note_off_c, 0, 57, 64
1, 107349, Note_off_c, 0, 48, 64
1, 107380, Note_off_c, 0, 65, 64
1, 107408, Note_on_c, 0, 60, 79
1, 107498, Note_on_c, 0, 36, 64
1, 107554, Note_off_c, 0, 69, 64
1, 107569, Control_c, 0, 64, 0
1, 107614, Note_on_c, 0, 72, 87
1, 107622, Note_on_c, 0, 48, 54
1, 107645, Note_off_c, 0, 36, 64
1, 107679, Note_off_c, 0, 48, 64
1, 107689, Control_c, 0, 64, 127
1, 107729, Note_off_c, 0, 60, 64
1, 107840, Note_on_c, 0, 68, 48
1, 107852, Note_on_c, 0, 62, 63
1, 107857, Note_on_c, 0, 65, 39
1, 107857, Note_on_c, 0, 56, 48
1, 107857, Note_on_c, 0, 50, 44
1, 107863, Note_on_c, 0, 53, 46
1, 107905, Note_off_c, 0, 65, 64
1, 107909, Note_off_c, 0, 53, 64
1, 107909, Note_off_c, 0, 62, 64
1, 107917, Note_off_c, 0, 50, 64
1, 107937, Note_off_c, 0, 68, 64
1, 107937, Note_off_c, 0, 56, 64
1, 108012, Note_on_c, 0, 68, 44
1, 108012, Note_on_c, 0, 56, 31
1, 108016, Note_on_c, 0, 65, 29
1, 108019, Note_on_c, 0, 50, 44
1, 108022, Note_on_c, 0, 62, 50
1, 108030, Note_on_c, 0, 53, 35
1, 108072, Note_off_c, 0, 62, 64
1, 108077, Note_off_c, 0, 50, 64
1, 108080, Note_off_c, 0, 65, 64
1, 108080, Note_off_c, 0, 53, 64
1, 108085, Note_off_c, 0, 68, 64
1, 108094, Note_off_c, 0, 56, 64
1, 108179, Note_on_c, 0, 50, 44
1, 108183, Note_on_c, 0, 68, 27
1, 108188, Note_off_c, 0, 72, 64
1, 108188, Note_on_c, 0, 65, 31
1, 108188, Note_on_c, 0, 56, 19
1, 108191, Note_on_c, 0, 62, 47
1, 108213, Note_on_c, 0, 53, 32
1, 108237, Note_off_c, 0, 50, 64
1, 108244, Note_off_c, 0, 62, 64
1, 108256, Note_off_c, 0, 65, 64
1, 108264, Note_off_c, 0, 56, 64
1, 108264, Note_off_c, 0, 53, 64
1, 108271, Note_off_c, 0, 68, 64
1, 108339, Note_on_c, 0, 68, 34
1, 108347, Note_on_c, 0, 65, 35
1, 108388, Note_on_c, 0, 62, 46
1, 108402, Note_on_c, 0, 56, 37
1, 108402, Note_off_c, 0, 65, 64
1, 108419, Note_on_c, 0, 50, 26
1, 108437, Note_on_c, 0, 53, 15
1, 108448, Note_off_c, 0, 68, 64
1, 108451, Note_off_c, 0, 62, 64
1, 108458, Note_off_c, 0, 56, 64
1, 108481, Note_off_c, 0, 50, 64
1, 108489, Note_off_c, 0, 53, 64
1, 108503, Note_on_c, 0, 59, 54
1, 108503, Note_on_c, 0, 71, 70
1, 108562, Note_off_c, 0, 59, 64
1, 108586, Note_off_c, 0, 71, 64
1, 108681, Note_on_c, 0, 59, 48
1, 108687, Note_on_c, 0, 71, 30
1, 108726, Note_off_c, 0, 59, 64
1, 108796, Note_on_c, 0, 56, 26
1, 108802, Note_on_c, 0, 53, 25
1, 108802, Note_on_c, 0, 50, 7
1, 108810, Note_on_c, 0, 65, 54
1, 108817, Note_on_c, 0, 68, 32
1, 108817, Note_on_c, 0, 62, 40
1, 108831, Note_off_c, 0, 71, 64
1, 108849, Note_off_c, 0, 53, 64
1, 108854, Note_off_c, 0, 50, 64
1, 108854, Note_off_c, 0, 56, 64
1, 108860, Note_off_c, 0, 65, 64
1, 108866, Note_off_c, 0, 62, 64
1, 108871, Note_off_c, 0, 68, 64
1, 108951, Note_on_c, 0, 62, 40
1, 108966, Note_on_c, 0, 65, 54
1, 108966, Note_on_c, 0, 56, 38
1, 108969, Note_on_c, 0, 68, 26
1, 108973, Note_on_c, 0, 53, 25
1, 108973, Note_on_c, 0, 50, 7
1, 108999, Note_off_c, 0, 62, 64
1, 109013, Note_off_c, 0, 56, 64
1, 109016, Note_off_c, 0, 65, 64
1, 109019, Note_off_c, 0, 68, 64
1, 109019, Note_off_c, 0, 53, 64
1, 109026, Note_off_c, 0, 50, 64
1, 109168, Note_on_c, 0, 48, 70
1, 109188, Note_on_c, 0, 36, 44
1, 109311, Note_off_c, 0, 36, 64
1, 109338, Note_on_c, 0, 65, 26
1, 109353, Note_on_c, 0, 53, 19
1, 109363, Note_on_c, 0, 59, 35
1, 109380, Note_off_c, 0, 48, 64
1, 109391, Note_off_c, 0, 53, 64
1, 109395, Note_off_c, 0, 65, 64
1, 109411, Note_off_c, 0, 59, 64
1, 109473, Note_on_c, 0, 59, 56
1, 109481, Note_on_c, 0, 53, 19
1, 109490, Note_on_c, 0, 65, 12
1, 109519, Note_off_c, 0, 53, 64
1, 109554, Note_off_c, 0, 59, 64
1, 109561, Note_off_c, 0, 65, 64
1, 109621, Note_on_c, 0, 53, 104
1, 109634, Note_on_c, 0, 41, 53
1, 109690, Note_off_c, 0, 41, 64
1, 109712, Note_off_c, 0, 53, 64
1, 109779, Note_on_c, 0, 65, 58
1, 109785, Note_on_c, 0, 53, 19
1, 109790, Note_on_c, 0, 59, 44
1, 109823, Note_off_c, 0, 53, 64
1, 109835, Note_off_c, 0, 59, 64
1, 109835, Note_off_c, 0, 65, 64
1, 109918, Note_on_c, 0, 53, 19
1, 109923, Note_on_c, 0, 59, 34
1, 109930, Note_on_c, 0, 65, 31
1, 109955, Note_off_c, 0, 53, 64
1, 109990, Note_off_c, 0, 59, 64
1, 109996, Note_off_c, 0, 65, 64
1, 110130, Note_on_c, 0, 58, 72
1, 110143, Note_on_c, 0, 46, 54
1, 110278, Note_off_c, 0, 58, 64
1, 110328, Note_off_c, 0, 46, 64
1, 110364, Note_on_c, 0, 53, 65
1, 110364, Note_on_c, 0, 59, 47
1, 110375, Note_on_c, 0, 65, 23
1, 110411, Note_off_c, 0, 53, 64
1, 110417, Note_off_c, 0, 59, 64
1, 110442, Note_off_c, 0, 65, 64
1, 110542, Note_on_c, 0, 24, 84
1, 110547, Note_on_c, 0, 36, 75
1, 110556, Note_on_c, 0, 65, 31
1, 110556, Note_on_c, 0, 53, 57
1, 110562, Note_on_c, 0, 59, 44
1, 110565, Control_c, 0, 64, 0
1, 110650, Note_off_c, 0, 24, 64
1, 110654, Note_off_c, 0, 36, 64
1, 110660, Control_c, 0, 64, 127
1, 110768, Note_off_c, 0, 59, 64
1, 110788, Note_off_c, 0, 53, 64
1, 110862, Note_off_c, 0, 65, 64
1, 110879, Note_on_c, 0, 56, 87
1, 110887, Note_on_c, 0, 44, 82
1, 111191, Note_on_c, 0, 52, 48
1, 111199, Note_on_c, 0, 60, 37
1, 111203, Note_on_c, 0, 64, 35
1, 111236, Control_c, 0, 64, 0
1, 111308, Control_c, 0, 64, 127
1, 111319, Note_off_c, 0, 64, 64
1, 111322, Note_off_c, 0, 52, 64
1, 111327, Note_off_c, 0, 60, 64
1, 111450, Note_on_c, 0, 52, 36
1, 111462, Note_on_c, 0, 64, 33
1, 111465, Note_on_c, 0, 60, 18
1, 111525, Note_off_c, 0, 64, 64
1, 111532, Note_off_c, 0, 60, 64
1, 111532, Note_off_c, 0, 52, 64
1, 111671, Note_on_c, 0, 52, 40
1, 111682, Note_on_c, 0, 60, 34
1, 111682, Note_on_c, 0, 64, 25
1, 111740, Note_off_c, 0, 64, 64
1, 111751, Note_off_c, 0, 60, 64
1, 111751, Note_off_c, 0, 52, 64
1, 111924, Note_on_c, 0, 60, 24
1, 111929, Note_on_c, 0, 52, 33
1, 111933, Note_on_c, 0, 64, 37
1, 111957, Note_off_c, 0, 44, 64
1, 111969, Note_off_c, 0, 56, 64
1, 112083, Note_off_c, 0, 64, 64
1, 112089, Note_off_c, 0, 52, 64
1, 112111, Note_off_c, 0, 60, 64
1, 112116, Note_on_c, 0, 55, 53
1, 112122, Note_on_c, 0, 43, 46
1, 112206, Note_off_c, 0, 43, 64
1, 112227, Note_off_c, 0, 55, 64
1, 112319, Note_on_c, 0, 55, 54
1, 112337, Note_on_c, 0, 43, 39
1, 112434, Control_c, 0, 64, 0
1, 112542, Control_c, 0, 64, 127
1, 112559, Note_on_c, 0, 60, 20
1, 112559, Note_on_c, 0, 52, 29
1, 112559, Note_on_c, 0, 64, 33
1, 112584, Note_off_c, 0, 55, 64
1, 112639, Note_off_c, 0, 43, 64
1, 112642, Note_off_c, 0, 64, 64
1, 112656, Note_off_c, 0, 60, 64
1, 112663, Note_off_c, 0, 52, 64
1, 112840, Note_on_c, 0, 64, 35
1, 112840, Note_on_c, 0, 60, 28
1, 112851, Note_on_c, 0, 52, 15
1, 112905, Note_on_c, 0, 36, 23
1, 112915, Note_off_c, 0, 52, 64
1, 112919, Note_off_c, 0, 64, 64
1, 112949, Note_off_c, 0, 60, 64
1, 112994, Note_on_c, 0, 43, 31
1, 113136, Note_on_c, 0, 52, 55
1, 113273, Note_off_c, 0, 36, 64
1, 113314, Note_off_c, 0, 43, 64
1, 113330, Note_on_c, 0, 55, 29
1, 113337, Note_on_c, 0, 67, 22
1, 113340, Note_on_c, 0, 64, 38
1, 113365, Note_on_c, 0, 60, 9
1, 113400, Note_off_c, 0, 52, 64
1, 113400, Note_off_c, 0, 67, 64
1, 113406, Note_off_c, 0, 64, 64
1, 113409, Note_off_c, 0, 55, 64
1, 113425, Note_off_c, 0, 60, 64
1, 113532, Note_on_c, 0, 55, 41
1, 113539, Note_on_c, 0, 60, 13
1, 113546, Note_on_c, 0, 67, 21
1, 113567, Note_on_c, 0, 64, 6
1, 113582, Note_off_c, 0, 55, 64
1, 113596, Note_off_c, 0, 60, 64
1, 113610, Note_off_c, 0, 64, 64
1, 113643, Note_off_c, 0, 67, 64
1, 113707, Note_on_c, 0, 55, 31
1, 113727, Note_on_c, 0, 52, 38
1, 113727, Note_on_c, 0, 48, 14
1, 113798, Note_off_c, 0, 52, 64
1, 113848, Note_off_c, 0, 48, 64
1, 113857, Note_off_c, 0, 55, 64
1, 113871, Note_on_c, 0, 72, 45
1, 113871, Note_on_c, 0, 64, 51
1, 113879, Note_on_c, 0, 60, 23
1, 113905, Note_on_c, 0, 67, 17
1, 113921, Note_off_c, 0, 72, 64
1, 113921, Note_off_c, 0, 64, 64
1, 113941, Note_off_c, 0, 60, 64
1, 113965, Note_off_c, 0, 67, 64
1, 114011, Note_on_c, 0, 72, 46
1, 114018, Note_on_c, 0, 60, 36
1, 114030, Note_on_c, 0, 64, 32
1, 114036, Note_on_c, 0, 67, 55
1, 114074, Note_off_c, 0, 60, 64
1, 114074, Note_off_c, 0, 64, 64
1, 114080, Note_off_c, 0, 72, 64
1, 114080, Note_off_c, 0, 67, 64
1, 114141, Note_on_c, 0, 60, 47
1, 114146, Note_on_c, 0, 55, 37
1, 114156, Note_on_c, 0, 52, 49
1, 114199, Note_off_c, 0, 55, 64
1, 114272, Note_off_c, 0, 52, 64
1, 114272, Note_off_c, 0, 60, 64
1, 114286, Note_on_c, 0, 67, 64
1, 114286, Note_on_c, 0, 64, 72
1, 114298, Note_on_c, 0, 72, 37
1, 114323, Note_off_c, 0, 64, 64
1, 114344, Note_off_c, 0, 67, 64
1, 114365, Note_off_c, 0, 72, 64
1, 114411, Note_on_c, 0, 67, 49
1, 114433, Note_on_c, 0, 72, 47
1, 114433, Note_on_c, 0, 64, 36
1, 114433, Note_on_c, 0, 76, 15
1, 114464, Note_off_c, 0, 67, 64
1, 114476, Note_off_c, 0, 72, 64
1, 114482, Note_off_c, 0, 64, 64
1, 114500, Note_off_c, 0, 76, 64
1, 114550, Note_on_c, 0, 64, 57
1, 114556, Note_on_c, 0, 55, 35
1, 114570, Note_on_c, 0, 60, 50
1, 114635, Note_off_c, 0, 60, 64
1, 114687, Note_on_c, 0, 67, 73
1, 114691, Note_on_c, 0, 76, 54
1, 114696, Note_off_c, 0, 55, 64
1, 114696, Note_on_c, 0, 79, 55
1, 114701, Note_on_c, 0, 72, 55
1, 114712, Note_off_c, 0, 64, 64
1, 114731, Note_off_c, 0, 67, 64
1, 114738, Note_off_c, 0, 76, 64
1, 114741, Note_off_c, 0, 79, 64
1, 114741, Note_off_c, 0, 72, 64
1, 114807, Note_on_c, 0, 76, 53
1, 114810, Note_on_c, 0, 72, 41
1, 114810, Note_on_c, 0, 67, 45
1, 114813, Note_on_c, 0, 79, 46
1, 114848, Note_off_c, 0, 76, 64
1, 114851, Note_off_c, 0, 72, 64
1, 114862, Note_off_c, 0, 67, 64
1, 114876, Note_off_c, 0, 79, 64
1, 114941, Note_on_c, 0, 67, 47
1, 114950, Note_on_c, 0, 60, 39
1, 114950, Note_on_c, 0, 64, 50
1, 115049, Note_off_c, 0, 64, 64
1, 115053, Note_off_c, 0, 60, 64
1, 115069, Note_on_c, 0, 72, 45
1, 115069, Note_on_c, 0, 84, 54
1, 115078, Note_on_c, 0, 79, 51
1, 115078, Note_on_c, 0, 76, 32
1, 115108, Note_off_c, 0, 84, 64
1, 115108, Note_off_c, 0, 67, 64
1, 115117, Note_off_c, 0, 72, 64
1, 115125, Note_off_c, 0, 79, 64
1, 115130, Note_off_c, 0, 76, 64
1, 115188, Note_on_c, 0, 79, 59
1, 115191, Note_on_c, 0, 76, 46
1, 115194, Note_on_c, 0, 72, 34
1, 115198, Note_on_c, 0, 84, 30
1, 115233, Note_off_c, 0, 76, 64
1, 115236, Note_off_c, 0, 79, 64
1, 115242, Note_off_c, 0, 72, 64
1, 115259, Note_off_c, 0, 84, 64
1, 115319, Note_on_c, 0, 72, 42
1, 115319, Note_on_c, 0, 64, 45
1, 115326, Note_on_c, 0, 67, 46
1, 115389, Note_off_c, 0, 67, 64
1, 115440, Note_off_c, 0, 64, 64
1, 115445, Note_on_c, 0, 76, 53
1, 115454, Note_on_c, 0, 79, 43
1, 115454, Note_on_c, 0, 84, 48
1, 115467, Note_on_c, 0, 88, 9
1, 115467, Note_off_c, 0, 72, 64
1, 115487, Note_off_c, 0, 76, 64
1, 115504, Note_off_c, 0, 84, 64
1, 115509, Note_off_c, 0, 88, 64
1, 115512, Note_off_c, 0, 79, 64
1, 115576, Note_on_c, 0, 84, 51
1, 115584, Note_on_c, 0, 79, 23
1, 115599, Note_on_c, 0, 88, 10
1, 115618, Note_off_c, 0, 84, 64
1, 115627, Note_off_c, 0, 79, 64
1, 115652, Note_off_c, 0, 88, 64
1, 115734, Note_on_c, 0, 67, 76
1, 115760, Note_on_c, 0, 76, 39
1, 115837, Note_off_c, 0, 76, 64
1, 115854, Note_on_c, 0, 91, 46
1, 115861, Note_on_c, 0, 88, 49
1, 115865, Note_on_c, 0, 79, 56
1, 115872, Note_on_c, 0, 84, 25
1, 115915, Note_off_c, 0, 79, 64
1, 115919, Note_off_c, 0, 91, 64
1, 115925, Note_off_c, 0, 88, 64
1, 115925, Note_off_c, 0, 84, 64
1, 116000, Note_on_c, 0, 91, 53
1, 116008, Note_on_c, 0, 79, 57
1, 116016, Note_on_c, 0, 88, 49
1, 116032, Note_on_c, 0, 84, 43
1, 116061, Note_off_c, 0, 79, 64
1, 116075, Note_off_c, 0, 91, 64
1, 116075, Note_off_c, 0, 84, 64
1, 116080, Note_off_c, 0, 88, 64
1, 116128, Note_on_c, 0, 68, 74
1, 116135, Note_off_c, 0, 67, 64
1, 116135, Note_on_c, 0, 76, 48
1, 116156, Note_on_c, 0, 72, 45
1, 116216, Note_off_c, 0, 72, 64
1, 116220, Note_off_c, 0, 76, 64
1, 116252, Note_on_c, 0, 92, 66
1, 116252, Note_on_c, 0, 88, 44
1, 116262, Note_on_c, 0, 80, 57
1, 116284, Note_on_c, 0, 84, 33
1, 116300, Note_off_c, 0, 88, 64
1, 116306, Note_off_c, 0, 92, 64
1, 116309, Note_off_c, 0, 80, 64
1, 116334, Note_off_c, 0, 84, 64
1, 116392, Note_on_c, 0, 80, 57
1, 116392, Note_on_c, 0, 92, 49
1, 116404, Note_on_c, 0, 84, 50
1, 116431, Note_on_c, 0, 88, 44
1, 116443, Note_off_c, 0, 84, 64
1, 116446, Note_off_c, 0, 80, 64
1, 116479, Note_off_c, 0, 88, 64
1, 116506, Note_off_c, 0, 92, 64
1, 116531, Note_on_c, 0, 76, 46
1, 116531, Note_on_c, 0, 71, 77
1, 116557, Note_on_c, 0, 72, 42
1, 116610, Note_off_c, 0, 68, 64
1, 116677, Control_c, 0, 64, 0
1, 116688, Note_on_c, 0, 95, 58
1, 116701, Note_on_c, 0, 83, 70
1, 116701, Note_on_c, 0, 84, 43
1, 116716, Note_on_c, 0, 88, 37
1, 116741, Note_off_c, 0, 76, 64
1, 116748, Control_c, 0, 64, 127
1, 116763, Note_off_c, 0, 84, 64
1, 116763, Note_off_c, 0, 88, 64
1, 116766, Note_off_c, 0, 83, 64
1, 116783, Note_off_c, 0, 95, 64
1, 116810, Note_off_c, 0, 72, 64
1, 116846, Note_on_c, 0, 95, 60
1, 116846, Note_off_c, 0, 71, 64
1, 116850, Note_on_c, 0, 88, 33
1, 116857, Note_on_c, 0, 83, 72
1, 116857, Note_on_c, 0, 84, 41
1, 116913, Note_off_c, 0, 88, 64
1, 116927, Note_off_c, 0, 83, 64
1, 116932, Note_off_c, 0, 84, 64
1, 116961, Note_off_c, 0, 95, 64
1, 117005, Note_on_c, 0, 71, 67
1, 117008, Note_on_c, 0, 76, 50
1, 117021, Note_on_c, 0, 72, 19
1, 117102, Note_off_c, 0, 72, 64
1, 117153, Note_off_c, 0, 76, 64
1, 117181, Note_on_c, 0, 95, 29
1, 117181, Note_on_c, 0, 84, 21
1, 117184, Note_on_c, 0, 83, 41
1, 117198, Note_on_c, 0, 88, 18
1, 117241, Note_off_c, 0, 83, 64
1, 117241, Note_off_c, 0, 95, 64
1, 117247, Note_off_c, 0, 84, 64
1, 117259, Note_off_c, 0, 88, 64
1, 117359, Note_on_c, 0, 95, 35
1, 117359, Note_on_c, 0, 84, 21
1, 117359, Note_on_c, 0, 83, 41
1, 117364, Note_on_c, 0, 88, 6
1, 117409, Note_off_c, 0, 71, 64
1, 117413, Note_off_c, 0, 95, 64
1, 117418, Note_off_c, 0, 83, 64
1, 117422, Note_off_c, 0, 88, 64
1, 117425, Note_off_c, 0, 84, 64
1, 117528, Note_on_c, 0, 76, 40
1, 117548, Note_on_c, 0, 72, 14
1, 117548, Note_on_c, 0, 69, 27
1, 117635, Control_c, 0, 64, 0
1, 117676, Note_on_c, 0, 93, 39
1, 117691, Note_on_c, 0, 81, 29
1, 117694, Control_c, 0, 64, 127
1, 117704, Note_on_c, 0, 88, 20
1, 117709, Note_on_c, 0, 84, 10
1, 117726, Note_off_c, 0, 72, 64
1, 117730, Note_off_c, 0, 76, 64
1, 117738, Note_off_c, 0, 93, 64
1, 117751, Note_off_c, 0, 81, 64
1, 117762, Note_off_c, 0, 84, 64
1, 117777, Note_off_c, 0, 88, 64
1, 117811, Note_off_c, 0, 69, 64
1, 117843, Note_on_c, 0, 93, 39
1, 117849, Note_on_c, 0, 84, 27
1, 117854, Note_on_c, 0, 81, 19
1, 117866, Note_on_c, 0, 88, 17
1, 117904, Note_off_c, 0, 93, 64
1, 117911, Note_off_c, 0, 81, 64
1, 117916, Note_off_c, 0, 88, 64
1, 117922, Note_off_c, 0, 84, 64
1, 117988, Note_on_c, 0, 76, 41
1, 118002, Note_on_c, 0, 72, 39
1, 118011, Note_on_c, 0, 64, 18
1, 118030, Note_off_c, 0, 76, 64
1, 118056, Note_off_c, 0, 72, 64
1, 118128, Note_on_c, 0, 88, 39
1, 118136, Note_on_c, 0, 84, 41
1, 118168, Note_off_c, 0, 64, 64
1, 118180, Note_off_c, 0, 88, 64
1, 118187, Note_off_c, 0, 84, 64
1, 118278, Note_on_c, 0, 88, 33
1, 118287, Note_on_c, 0, 84, 33
1, 118329, Note_off_c, 0, 84, 64
1, 118336, Note_off_c, 0, 88, 64
1, 118434, Note_on_c, 0, 76, 41
1, 118448, Note_on_c, 0, 66, 33
1, 118462, Note_on_c, 0, 72, 43
1, 118581, Note_on_c, 0, 78, 41
1, 118581, Note_on_c, 0, 90, 37
1, 118602, Note_off_c, 0, 76, 64
1, 118610, Note_on_c, 0, 88, 19
1, 118616, Note_on_c, 0, 84, 21
1, 118627, Note_off_c, 0, 72, 64
1, 118634, Note_off_c, 0, 78, 64
1, 118641, Note_off_c, 0, 90, 64
1, 118668, Note_off_c, 0, 88, 64
1, 118673, Note_off_c, 0, 84, 64
1, 118743, Note_on_c, 0, 88, 23
1, 118743, Note_on_c, 0, 84, 50
1, 118755, Note_on_c, 0, 78, 32
1, 118760, Note_on_c, 0, 90, 36
1, 118793, Note_off_c, 0, 84, 64
1, 118815, Note_off_c, 0, 78, 64
1, 118819, Note_off_c, 0, 66, 64
1, 118829, Note_off_c, 0, 88, 64
1, 118833, Note_off_c, 0, 90, 64
1, 118900, Note_on_c, 0, 74, 45
1, 118904, Note_on_c, 0, 67, 49
1, 118924, Note_on_c, 0, 71, 43
1, 118966, Control_c, 0, 64, 0
1, 119038, Control_c, 0, 64, 127
1, 119049, Note_on_c, 0, 91, 48
1, 119053, Note_on_c, 0, 79, 55
1, 119067, Note_off_c, 0, 74, 64
1, 119080, Note_off_c, 0, 71, 64
1, 119084, Note_on_c, 0, 83, 36
1, 119097, Note_on_c, 0, 86, 6
1, 119109, Note_off_c, 0, 67, 64
1, 119109, Note_off_c, 0, 91, 64
1, 119119, Note_off_c, 0, 79, 64
1, 119141, Note_off_c, 0, 83, 64
1, 119148, Note_off_c, 0, 86, 64
1, 119253, Note_on_c, 0, 79, 47
1, 119253, Note_on_c, 0, 91, 44
1, 119258, Note_on_c, 0, 86, 5
1, 119284, Note_on_c, 0, 83, 19
1, 119284, Note_on_c, 0, 61, 62
1, 119326, Control_c, 0, 64, 0
1, 119342, Note_off_c, 0, 83, 64
1, 119371, Note_off_c, 0, 86, 64
1, 119400, Note_on_c, 0, 69, 40
1, 119409, Control_c, 0, 64, 127
1, 119421, Note_off_c, 0, 79, 64
1, 119426, Note_off_c, 0, 61, 64
1, 119460, Note_off_c, 0, 69, 64
1, 119490, Note_on_c, 0, 70, 31
1, 119521, Note_off_c, 0, 91, 64
1, 119542, Note_off_c, 0, 70, 64
1, 119621, Note_on_c, 0, 76, 61
1, 119810, Note_on_c, 0, 93, 42
1, 119819, Note_on_c, 0, 81, 36
1, 119824, Note_on_c, 0, 88, 34
1, 119877, Note_off_c, 0, 81, 64
1, 119894, Note_off_c, 0, 88, 64
1, 119914, Note_off_c, 0, 93, 64
1, 119944, Note_off_c, 0, 76, 64
1, 120077, Note_on_c, 0, 93, 39
1, 120077, Note_on_c, 0, 81, 38
1, 120098, Note_on_c, 0, 88, 30
1, 120169, Note_on_c, 0, 62, 31
1, 120172, Note_off_c, 0, 88, 64
1, 120186, Note_off_c, 0, 81, 64
1, 120214, Note_off_c, 0, 93, 64
1, 120233, Note_on_c, 0, 67, 31
1, 120329, Note_on_c, 0, 69, 26
1, 120431, Note_on_c, 0, 74, 41
1, 120546, Note_on_c, 0, 79, 54
1, 120694, Note_on_c, 0, 81, 34
1, 120772, Note_off_c, 0, 81, 64
1, 120833, Note_on_c, 0, 86, 41
1, 121087, Note_on_c, 0, 91, 40
1, 121130, Note_on_c, 0, 81, 2
1, 121147, Control_c, 0, 64, 0
1, 121279, Control_c, 0, 64, 127
1, 121839, Note_off_c, 0, 74, 64
1, 121953, Note_off_c, 0, 69, 64
1, 122008, Note_off_c, 0, 67, 64
1, 122111, Note_off_c, 0, 62, 64
1, 122134, Note_off_c, 0, 81, 64
1, 122148, Note_off_c, 0, 79, 64
1, 122169, Note_off_c, 0, 91, 64
1, 122231, Note_off_c, 0, 86, 64
1, 122718, Control_c, 0, 64, 0
1, 122735, Note_on_c, 0, 43, 28
1, 122874, Control_c, 0, 64, 127
1, 122922, Note_on_c, 0, 50, 25
1, 122958, Note_off_c, 0, 43, 64
1, 123017, Note_off_c, 0, 50, 64
1, 123061, Note_on_c, 0, 55, 25
1, 123139, Note_off_c, 0, 55, 64
1, 123220, Note_on_c, 0, 59, 17
1, 123314, Note_off_c, 0, 59, 64
1, 123331, Note_on_c, 0, 65, 21
1, 123484, Note_on_c, 0, 67, 31
1, 123704, Note_on_c, 0, 71, 31
1, 123816, Note_off_c, 0, 67, 64
1, 124220, Note_on_c, 0, 77, 32
1, 125329, Note_off_c, 0, 77, 64
1, 125426, Note_off_c, 0, 65, 64
1, 125537, Note_off_c, 0, 71, 64
1, 126356, Note_on_c, 0, 24, 31
1, 126445, Control_c, 0, 64, 0
1, 126649, Control_c, 0, 64, 127
1, 126867, Note_off_c, 0, 24, 64
1, 126878, Note_on_c, 0, 36, 33
1, 127053, Note_off_c, 0, 36, 64
1, 127248, Note_on_c, 0, 43, 36
1, 127527, Note_on_c, 0, 48, 21
1, 127633, Note_off_c, 0, 43, 64
1, 127856, Note_on_c, 0, 52, 22
1, 128023, Note_off_c, 0, 48, 64
1, 128221, Note_off_c, 0, 52, 64
1, 128288, Note_on_c, 0, 55, 15
1, 128625, Note_off_c, 0, 55, 64
1, 128878, Note_on_c, 0, 60, 19
1, 129267, Note_off_c, 0, 60, 64
1, 130462, Note_on_c, 0, 64, 16
1, 132240, Note_off_c, 0, 64, 64
1, 133287, Control_c, 0, 64, 0
1, 134785, End_track
0, 0, End_of_file
