0, 0, Header, 0, 1, 384
1, 0, Start_track
1, 0, Tempo, 512820
1, 0, Title_t, "Grieg: Lyrische Stücke Op. 12 Nr"
1, 0, Program_c, 0, 0
1, 748, Note_on_c, 0, 71, 47
1, 748, Note_on_c, 0, 76, 54
1, 748, Program_c, 0, 0
1, 751, Note_on_c, 0, 67, 54
1, 751, Note_on_c, 0, 64, 47
1, 751, Program_c, 0, 0
1, 796, Note_on_c, 0, 76, 0
1, 796, Note_on_c, 0, 71, 0
1, 796, Note_on_c, 0, 64, 0
1, 799, Note_on_c, 0, 67, 0
1, 937, Note_on_c, 0, 71, 43
1, 937, Note_on_c, 0, 76, 50
1, 937, Note_on_c, 0, 64, 41
1, 940, Note_on_c, 0, 67, 48
1, 985, Note_on_c, 0, 76, 0
1, 985, Note_on_c, 0, 71, 0
1, 985, Note_on_c, 0, 67, 0
1, 988, Note_on_c, 0, 64, 0
1, 1127, Note_on_c, 0, 76, 50
1, 1127, Note_on_c, 0, 72, 43
1, 1127, Note_on_c, 0, 67, 42
1, 1130, Note_on_c, 0, 60, 36
1, 1176, Note_on_c, 0, 72, 0
1, 1176, Note_on_c, 0, 76, 0
1, 1176, Note_on_c, 0, 60, 0
1, 1179, Note_on_c, 0, 67, 0
1, 1325, Note_on_c, 0, 71, 47
1, 1325, Note_on_c, 0, 76, 54
1, 1325, Note_on_c, 0, 64, 41
1, 1328, Note_on_c, 0, 67, 48
1, 1373, Note_on_c, 0, 76, 0
1, 1373, Note_on_c, 0, 71, 0
1, 1373, Note_on_c, 0, 67, 0
1, 1376, Note_on_c, 0, 64, 0
1, 1518, Note_on_c, 0, 76, 49
1, 1518, Note_on_c, 0, 71, 42
1, 1518, Note_on_c, 0, 67, 43
1, 1521, Note_on_c, 0, 64, 37
1, 1566, Note_on_c, 0, 71, 0
1, 1566, Note_on_c, 0, 76, 0
1, 1566, Note_on_c, 0, 64, 0
1, 1569, Note_on_c, 0, 67, 0
1, 1710, Note_on_c, 0, 67, 54
1, 1710, Control_c, 0, 64, 127
1, 1804, Note_on_c, 0, 67, 0
1, 1804, Note_on_c, 0, 69, 48
1, 1898, Note_on_c, 0, 69, 0
1, 1898, Note_on_c, 0, 71, 54
1, 1898, Note_on_c, 0, 64, 41
1, 1901, Note_on_c, 0, 67, 48
1, 1901, Control_c, 0, 64, 0
1, 1938, Control_c, 0, 64, 127
1, 1943, Note_on_c, 0, 67, 0
1, 1943, Note_on_c, 0, 64, 0
1, 1988, Note_on_c, 0, 71, 0
1, 1988, Note_on_c, 0, 72, 49
1, 2078, Note_on_c, 0, 72, 0
1, 2078, Note_on_c, 0, 71, 54
1, 2078, Note_on_c, 0, 67, 44
1, 2081, Note_on_c, 0, 64, 38
1, 2123, Note_on_c, 0, 64, 0
1, 2123, Note_on_c, 0, 67, 0
1, 2168, Note_on_c, 0, 71, 0
1, 2168, Note_on_c, 0, 78, 60
1, 2259, Note_on_c, 0, 78, 0
1, 2259, Note_on_c, 0, 76, 58
1, 2259, Note_on_c, 0, 69, 46
1, 2262, Note_on_c, 0, 64, 40
1, 2268, Control_c, 0, 64, 0
1, 2304, Note_on_c, 0, 64, 0
1, 2304, Note_on_c, 0, 69, 0
1, 2311, Control_c, 0, 64, 127
1, 2349, Note_on_c, 0, 76, 0
1, 2349, Note_on_c, 0, 74, 54
1, 2439, Note_on_c, 0, 74, 0
1, 2439, Note_on_c, 0, 71, 53
1, 2439, Note_on_c, 0, 64, 41
1, 2442, Note_on_c, 0, 67, 48
1, 2442, Control_c, 0, 64, 0
1, 2510, Control_c, 0, 64, 127
1, 2532, Note_on_c, 0, 71, 0
1, 2532, Note_on_c, 0, 76, 55
1, 2624, Note_on_c, 0, 76, 0
1, 2624, Note_on_c, 0, 79, 58
1, 2624, Note_on_c, 0, 67, 0
1, 2627, Note_on_c, 0, 64, 0
1, 2715, Note_on_c, 0, 79, 0
1, 2715, Note_on_c, 0, 82, 60
1, 2804, Note_on_c, 0, 82, 0
1, 2804, Note_on_c, 0, 83, 64
1, 2893, Note_on_c, 0, 83, 0
1, 2924, Control_c, 0, 64, 0
1, 3000, Note_on_c, 0, 74, 47
1, 3000, Note_on_c, 0, 78, 47
1, 3000, Note_on_c, 0, 83, 54
1, 3003, Note_on_c, 0, 71, 54
1, 3047, Note_on_c, 0, 83, 0
1, 3047, Note_on_c, 0, 78, 0
1, 3047, Note_on_c, 0, 74, 0
1, 3050, Note_on_c, 0, 71, 0
1, 3189, Note_on_c, 0, 83, 50
1, 3189, Note_on_c, 0, 74, 43
1, 3189, Note_on_c, 0, 78, 43
1, 3192, Note_on_c, 0, 71, 48
1, 3236, Note_on_c, 0, 78, 0
1, 3236, Note_on_c, 0, 74, 0
1, 3236, Note_on_c, 0, 83, 0
1, 3239, Note_on_c, 0, 71, 0
1, 3378, Note_on_c, 0, 83, 50
1, 3378, Note_on_c, 0, 74, 43
1, 3378, Note_on_c, 0, 79, 43
1, 3381, Note_on_c, 0, 67, 42
1, 3428, Note_on_c, 0, 79, 0
1, 3428, Note_on_c, 0, 74, 0
1, 3428, Note_on_c, 0, 83, 0
1, 3431, Note_on_c, 0, 67, 0
1, 3577, Note_on_c, 0, 74, 47
1, 3577, Note_on_c, 0, 78, 47
1, 3577, Note_on_c, 0, 83, 54
1, 3580, Note_on_c, 0, 71, 48
1, 3625, Note_on_c, 0, 83, 0
1, 3625, Note_on_c, 0, 78, 0
1, 3625, Note_on_c, 0, 74, 0
1, 3628, Note_on_c, 0, 71, 0
1, 3769, Note_on_c, 0, 74, 42
1, 3769, Note_on_c, 0, 83, 49
1, 3769, Note_on_c, 0, 78, 42
1, 3772, Note_on_c, 0, 71, 43
1, 3818, Note_on_c, 0, 78, 0
1, 3818, Note_on_c, 0, 83, 0
1, 3818, Note_on_c, 0, 74, 0
1, 3821, Note_on_c, 0, 71, 0
1, 3962, Note_on_c, 0, 71, 54
1, 3962, Control_c, 0, 64, 127
1, 4056, Note_on_c, 0, 71, 0
1, 4056, Note_on_c, 0, 73, 48
1, 4149, Note_on_c, 0, 73, 0
1, 4149, Note_on_c, 0, 74, 54
1, 4149, Note_on_c, 0, 66, 48
1, 4153, Control_c, 0, 64, 0
1, 4190, Control_c, 0, 64, 127
1, 4195, Note_on_c, 0, 66, 0
1, 4240, Note_on_c, 0, 74, 0
1, 4240, Note_on_c, 0, 78, 49
1, 4331, Note_on_c, 0, 78, 0
1, 4331, Note_on_c, 0, 71, 54
1, 4331, Note_on_c, 0, 74, 54
1, 4334, Note_on_c, 0, 62, 44
1, 4377, Note_on_c, 0, 62, 0
1, 4422, Note_on_c, 0, 74, 0
1, 4422, Note_on_c, 0, 71, 0
1, 4422, Note_on_c, 0, 78, 60
1, 4425, Note_on_c, 0, 64, 53
1, 4473, Note_on_c, 0, 64, 0
1, 4523, Note_on_c, 0, 78, 0
1, 4523, Note_on_c, 0, 73, 82
1, 4523, Note_on_c, 0, 70, 70
1, 4526, Note_on_c, 0, 66, 73
1, 4533, Control_c, 0, 64, 0
1, 4569, Note_on_c, 0, 66, 0
1, 4577, Control_c, 0, 64, 127
1, 4614, Note_on_c, 0, 73, 0
1, 4614, Note_on_c, 0, 78, 78
1, 4706, Note_on_c, 0, 78, 0
1, 4706, Note_on_c, 0, 70, 0
1, 4706, Note_on_c, 0, 71, 68
1, 4709, Note_on_c, 0, 75, 80
1, 4709, Note_on_c, 0, 66, 85
1, 4709, Control_c, 0, 64, 0
1, 4775, Control_c, 0, 64, 127
1, 4797, Note_on_c, 0, 75, 0
1, 4797, Note_on_c, 0, 71, 0
1, 4797, Note_on_c, 0, 78, 74
1, 4888, Note_on_c, 0, 78, 0
1, 4888, Note_on_c, 0, 71, 70
1, 4888, Note_on_c, 0, 75, 82
1, 4978, Note_on_c, 0, 75, 0
1, 4978, Note_on_c, 0, 71, 0
1, 4978, Note_on_c, 0, 78, 77
1, 5066, Note_on_c, 0, 78, 0
1, 5066, Note_on_c, 0, 75, 83
1, 5066, Note_on_c, 0, 71, 71
1, 5069, Note_on_c, 0, 66, 0
1, 5069, Note_on_c, 0, 59, 78
1, 5154, Note_on_c, 0, 71, 0
1, 5154, Note_on_c, 0, 75, 0
1, 5154, Note_on_c, 0, 78, 74
1, 5275, Note_on_c, 0, 78, 0
1, 5275, Note_on_c, 0, 71, 47
1, 5275, Note_on_c, 0, 76, 54
1, 5278, Note_on_c, 0, 59, 0
1, 5278, Note_on_c, 0, 64, 47
1, 5278, Note_on_c, 0, 67, 54
1, 5281, Control_c, 0, 64, 0
1, 5323, Note_on_c, 0, 76, 0
1, 5323, Note_on_c, 0, 71, 0
1, 5323, Note_on_c, 0, 67, 0
1, 5326, Note_on_c, 0, 64, 0
1, 5465, Note_on_c, 0, 76, 50
1, 5465, Note_on_c, 0, 71, 43
1, 5465, Note_on_c, 0, 67, 48
1, 5468, Note_on_c, 0, 64, 41
1, 5512, Note_on_c, 0, 71, 0
1, 5512, Note_on_c, 0, 76, 0
1, 5512, Note_on_c, 0, 64, 0
1, 5515, Note_on_c, 0, 67, 0
1, 5654, Note_on_c, 0, 72, 43
1, 5654, Note_on_c, 0, 76, 50
1, 5654, Note_on_c, 0, 67, 42
1, 5657, Note_on_c, 0, 60, 36
1, 5703, Note_on_c, 0, 76, 0
1, 5703, Note_on_c, 0, 72, 0
1, 5703, Note_on_c, 0, 60, 0
1, 5706, Note_on_c, 0, 67, 0
1, 5852, Note_on_c, 0, 71, 47
1, 5852, Note_on_c, 0, 76, 54
1, 5852, Note_on_c, 0, 64, 41
1, 5855, Note_on_c, 0, 67, 48
1, 5901, Note_on_c, 0, 76, 0
1, 5901, Note_on_c, 0, 71, 0
1, 5901, Note_on_c, 0, 67, 0
1, 5904, Note_on_c, 0, 64, 0
1, 6045, Note_on_c, 0, 76, 49
1, 6045, Note_on_c, 0, 71, 42
1, 6045, Note_on_c, 0, 67, 43
1, 6048, Note_on_c, 0, 64, 37
1, 6094, Note_on_c, 0, 71, 0
1, 6094, Note_on_c, 0, 76, 0
1, 6094, Note_on_c, 0, 64, 0
1, 6097, Note_on_c, 0, 67, 0
1, 6240, Note_on_c, 0, 67, 54
1, 6240, Control_c, 0, 64, 127
1, 6334, Note_on_c, 0, 67, 0
1, 6334, Note_on_c, 0, 69, 48
1, 6428, Note_on_c, 0, 69, 0
1, 6428, Note_on_c, 0, 71, 54
1, 6428, Note_on_c, 0, 64, 41
1, 6431, Note_on_c, 0, 67, 48
1, 6431, Control_c, 0, 64, 0
1, 6467, Control_c, 0, 64, 127
1, 6473, Note_on_c, 0, 67, 0
1, 6473, Note_on_c, 0, 64, 0
1, 6518, Note_on_c, 0, 71, 0
1, 6518, Note_on_c, 0, 72, 49
1, 6607, Note_on_c, 0, 72, 0
1, 6607, Note_on_c, 0, 71, 54
1, 6607, Note_on_c, 0, 67, 44
1, 6610, Note_on_c, 0, 64, 38
1, 6652, Note_on_c, 0, 64, 0
1, 6652, Note_on_c, 0, 67, 0
1, 6697, Note_on_c, 0, 71, 0
1, 6697, Note_on_c, 0, 78, 60
1, 6787, Note_on_c, 0, 78, 0
1, 6787, Note_on_c, 0, 76, 58
1, 6787, Note_on_c, 0, 69, 46
1, 6790, Note_on_c, 0, 64, 40
1, 6796, Control_c, 0, 64, 0
1, 6832, Note_on_c, 0, 64, 0
1, 6832, Note_on_c, 0, 69, 0
1, 6840, Control_c, 0, 64, 127
1, 6877, Note_on_c, 0, 76, 0
1, 6877, Note_on_c, 0, 74, 54
1, 6967, Note_on_c, 0, 74, 0
1, 6967, Note_on_c, 0, 71, 53
1, 6967, Note_on_c, 0, 67, 48
1, 6970, Note_on_c, 0, 64, 41
1, 6970, Control_c, 0, 64, 0
1, 7038, Control_c, 0, 64, 127
1, 7060, Note_on_c, 0, 71, 0
1, 7060, Note_on_c, 0, 76, 55
1, 7152, Note_on_c, 0, 76, 0
1, 7152, Note_on_c, 0, 79, 58
1, 7152, Note_on_c, 0, 64, 0
1, 7155, Note_on_c, 0, 67, 0
1, 7243, Note_on_c, 0, 79, 0
1, 7243, Note_on_c, 0, 82, 60
1, 7332, Note_on_c, 0, 82, 0
1, 7332, Note_on_c, 0, 83, 64
1, 7421, Note_on_c, 0, 83, 0
1, 7451, Control_c, 0, 64, 0
1, 7527, Note_on_c, 0, 83, 54
1, 7527, Note_on_c, 0, 74, 47
1, 7527, Note_on_c, 0, 78, 47
1, 7530, Note_on_c, 0, 71, 54
1, 7574, Note_on_c, 0, 78, 0
1, 7574, Note_on_c, 0, 74, 0
1, 7574, Note_on_c, 0, 83, 0
1, 7577, Note_on_c, 0, 71, 0
1, 7716, Note_on_c, 0, 74, 43
1, 7716, Note_on_c, 0, 78, 43
1, 7716, Note_on_c, 0, 83, 50
1, 7719, Note_on_c, 0, 71, 48
1, 7764, Note_on_c, 0, 83, 0
1, 7764, Note_on_c, 0, 78, 0
1, 7764, Note_on_c, 0, 74, 0
1, 7767, Note_on_c, 0, 71, 0
1, 7905, Note_on_c, 0, 74, 43
1, 7905, Note_on_c, 0, 79, 43
1, 7905, Note_on_c, 0, 83, 50
1, 7908, Note_on_c, 0, 67, 42
1, 7955, Note_on_c, 0, 83, 0
1, 7955, Note_on_c, 0, 79, 0
1, 7955, Note_on_c, 0, 74, 0
1, 7958, Note_on_c, 0, 67, 0
1, 8104, Note_on_c, 0, 83, 54
1, 8104, Note_on_c, 0, 74, 47
1, 8104, Note_on_c, 0, 78, 47
1, 8107, Note_on_c, 0, 71, 48
1, 8152, Note_on_c, 0, 78, 0
1, 8152, Note_on_c, 0, 74, 0
1, 8152, Note_on_c, 0, 83, 0
1, 8155, Note_on_c, 0, 71, 0
1, 8297, Note_on_c, 0, 74, 42
1, 8297, Note_on_c, 0, 78, 42
1, 8297, Note_on_c, 0, 83, 49
1, 8300, Note_on_c, 0, 71, 43
1, 8345, Note_on_c, 0, 83, 0
1, 8345, Note_on_c, 0, 78, 0
1, 8345, Note_on_c, 0, 74, 0
1, 8348, Note_on_c, 0, 71, 0
1, 8489, Note_on_c, 0, 71, 54
1, 8489, Control_c, 0, 64, 127
1, 8583, Note_on_c, 0, 71, 0
1, 8583, Note_on_c, 0, 73, 48
1, 8677, Note_on_c, 0, 73, 0
1, 8677, Note_on_c, 0, 74, 54
1, 8677, Note_on_c, 0, 66, 48
1, 8680, Control_c, 0, 64, 0
1, 8717, Control_c, 0, 64, 127
1, 8722, Note_on_c, 0, 66, 0
1, 8767, Note_on_c, 0, 74, 0
1, 8767, Note_on_c, 0, 78, 49
1, 8858, Note_on_c, 0, 78, 0
1, 8858, Note_on_c, 0, 74, 54
1, 8858, Note_on_c, 0, 71, 54
1, 8861, Note_on_c, 0, 62, 44
1, 8903, Note_on_c, 0, 62, 0
1, 8948, Note_on_c, 0, 71, 0
1, 8948, Note_on_c, 0, 74, 0
1, 8948, Note_on_c, 0, 78, 60
1, 8951, Note_on_c, 0, 64, 53
1, 8999, Note_on_c, 0, 64, 0
1, 9050, Note_on_c, 0, 78, 0
1, 9050, Note_on_c, 0, 70, 70
1, 9050, Note_on_c, 0, 73, 82
1, 9053, Note_on_c, 0, 66, 73
1, 9059, Control_c, 0, 64, 0
1, 9095, Note_on_c, 0, 66, 0
1, 9103, Control_c, 0, 64, 127
1, 9141, Note_on_c, 0, 73, 0
1, 9141, Note_on_c, 0, 78, 78
1, 9232, Note_on_c, 0, 78, 0
1, 9232, Note_on_c, 0, 70, 0
1, 9232, Note_on_c, 0, 71, 68
1, 9235, Note_on_c, 0, 75, 80
1, 9235, Note_on_c, 0, 66, 85
1, 9235, Control_c, 0, 64, 0
1, 9301, Control_c, 0, 64, 127
1, 9323, Note_on_c, 0, 75, 0
1, 9323, Note_on_c, 0, 71, 0
1, 9323, Note_on_c, 0, 78, 74
1, 9414, Note_on_c, 0, 78, 0
1, 9414, Note_on_c, 0, 71, 70
1, 9414, Note_on_c, 0, 75, 82
1, 9504, Note_on_c, 0, 75, 0
1, 9504, Note_on_c, 0, 71, 0
1, 9504, Note_on_c, 0, 78, 77
1, 9592, Note_on_c, 0, 78, 0
1, 9592, Note_on_c, 0, 75, 83
1, 9592, Note_on_c, 0, 71, 71
1, 9595, Note_on_c, 0, 66, 0
1, 9595, Note_on_c, 0, 59, 78
1, 9680, Note_on_c, 0, 71, 0
1, 9680, Note_on_c, 0, 75, 0
1, 9680, Note_on_c, 0, 78, 74
1, 9801, Note_on_c, 0, 78, 0
1, 9801, Note_on_c, 0, 59, 88
1, 9801, Note_on_c, 0, 59, 0
1, 9804, Note_on_c, 0, 47, 88
1, 9804, Control_c, 0, 64, 0
1, 9848, Note_on_c, 0, 59, 0
1, 9848, Note_on_c, 0, 47, 0
1, 9990, Note_on_c, 0, 59, 80
1, 9990, Note_on_c, 0, 47, 77
1, 10037, Note_on_c, 0, 59, 0
1, 10037, Note_on_c, 0, 47, 0
1, 10179, Note_on_c, 0, 54, 80
1, 10179, Note_on_c, 0, 42, 67
1, 10229, Note_on_c, 0, 54, 0
1, 10229, Note_on_c, 0, 42, 0
1, 10378, Note_on_c, 0, 59, 88
1, 10378, Note_on_c, 0, 47, 77
1, 10426, Note_on_c, 0, 59, 0
1, 10426, Note_on_c, 0, 47, 0
1, 10570, Note_on_c, 0, 59, 79
1, 10570, Note_on_c, 0, 47, 68
1, 10619, Note_on_c, 0, 59, 0
1, 10619, Note_on_c, 0, 47, 0
1, 10766, Note_on_c, 0, 64, 54
1, 10766, Control_c, 0, 64, 127
1, 10859, Note_on_c, 0, 64, 0
1, 10859, Note_on_c, 0, 66, 48
1, 10953, Note_on_c, 0, 66, 0
1, 10953, Note_on_c, 0, 67, 54
1, 10953, Note_on_c, 0, 52, 40
1, 10956, Note_on_c, 0, 61, 47
1, 10956, Control_c, 0, 64, 0
1, 10986, Control_c, 0, 64, 127
1, 10998, Note_on_c, 0, 61, 0
1, 10998, Note_on_c, 0, 52, 0
1, 11043, Note_on_c, 0, 67, 0
1, 11043, Note_on_c, 0, 70, 49
1, 11051, Control_c, 0, 64, 0
1, 11134, Note_on_c, 0, 70, 0
1, 11134, Note_on_c, 0, 67, 54
1, 11134, Note_on_c, 0, 52, 40
1, 11137, Note_on_c, 0, 61, 47
1, 11149, Control_c, 0, 64, 127
1, 11179, Note_on_c, 0, 61, 0
1, 11179, Note_on_c, 0, 52, 0
1, 11224, Note_on_c, 0, 67, 0
1, 11224, Note_on_c, 0, 70, 47
1, 11232, Control_c, 0, 64, 0
1, 11317, Note_on_c, 0, 70, 0
1, 11317, Note_on_c, 0, 66, 55
1, 11317, Note_on_c, 0, 61, 47
1, 11320, Note_on_c, 0, 54, 40
1, 11332, Control_c, 0, 64, 127
1, 11363, Note_on_c, 0, 54, 0
1, 11363, Note_on_c, 0, 61, 0
1, 11408, Note_on_c, 0, 66, 0
1, 11408, Note_on_c, 0, 70, 49
1, 11416, Control_c, 0, 64, 0
1, 11499, Note_on_c, 0, 70, 0
1, 11499, Note_on_c, 0, 64, 55
1, 11499, Note_on_c, 0, 61, 47
1, 11502, Note_on_c, 0, 55, 40
1, 11505, Control_c, 0, 64, 127
1, 11545, Note_on_c, 0, 55, 0
1, 11545, Note_on_c, 0, 61, 0
1, 11591, Note_on_c, 0, 64, 0
1, 11591, Note_on_c, 0, 70, 49
1, 11598, Control_c, 0, 64, 0
1, 11681, Note_on_c, 0, 70, 0
1, 11681, Note_on_c, 0, 64, 55
1, 11681, Note_on_c, 0, 61, 48
1, 11684, Note_on_c, 0, 55, 41
1, 11700, Control_c, 0, 64, 127
1, 11726, Note_on_c, 0, 55, 0
1, 11726, Note_on_c, 0, 61, 0
1, 11771, Note_on_c, 0, 64, 0
1, 11771, Note_on_c, 0, 70, 48
1, 11779, Control_c, 0, 64, 0
1, 11860, Note_on_c, 0, 70, 0
1, 12068, Note_on_c, 0, 59, 88
1, 12068, Note_on_c, 0, 47, 88
1, 12068, Control_c, 0, 64, 0
1, 12116, Note_on_c, 0, 59, 0
1, 12116, Note_on_c, 0, 47, 0
1, 12257, Note_on_c, 0, 59, 80
1, 12257, Note_on_c, 0, 47, 77
1, 12305, Note_on_c, 0, 59, 0
1, 12305, Note_on_c, 0, 47, 0
1, 12447, Note_on_c, 0, 54, 80
1, 12447, Note_on_c, 0, 42, 67
1, 12496, Note_on_c, 0, 54, 0
1, 12496, Note_on_c, 0, 42, 0
1, 12645, Note_on_c, 0, 59, 88
1, 12645, Note_on_c, 0, 47, 77
1, 12693, Note_on_c, 0, 59, 0
1, 12693, Note_on_c, 0, 47, 0
1, 12838, Note_on_c, 0, 59, 79
1, 12838, Note_on_c, 0, 47, 68
1, 12886, Note_on_c, 0, 59, 0
1, 12886, Note_on_c, 0, 47, 0
1, 13030, Note_on_c, 0, 64, 54
1, 13030, Control_c, 0, 64, 127
1, 13124, Note_on_c, 0, 64, 0
1, 13124, Note_on_c, 0, 66, 48
1, 13218, Note_on_c, 0, 66, 0
1, 13218, Note_on_c, 0, 67, 54
1, 13218, Note_on_c, 0, 52, 40
1, 13221, Note_on_c, 0, 61, 47
1, 13221, Control_c, 0, 64, 0
1, 13250, Control_c, 0, 64, 127
1, 13263, Note_on_c, 0, 61, 0
1, 13263, Note_on_c, 0, 52, 0
1, 13309, Note_on_c, 0, 67, 0
1, 13309, Note_on_c, 0, 70, 49
1, 13316, Control_c, 0, 64, 0
1, 13400, Note_on_c, 0, 70, 0
1, 13400, Note_on_c, 0, 67, 54
1, 13400, Note_on_c, 0, 52, 40
1, 13403, Note_on_c, 0, 61, 47
1, 13415, Control_c, 0, 64, 127
1, 13445, Note_on_c, 0, 61, 0
1, 13445, Note_on_c, 0, 52, 0
1, 13491, Note_on_c, 0, 67, 0
1, 13491, Note_on_c, 0, 70, 47
1, 13498, Control_c, 0, 64, 0
1, 13584, Note_on_c, 0, 70, 0
1, 13584, Note_on_c, 0, 66, 55
1, 13584, Note_on_c, 0, 54, 40
1, 13587, Note_on_c, 0, 61, 47
1, 13599, Control_c, 0, 64, 127
1, 13629, Note_on_c, 0, 61, 0
1, 13629, Note_on_c, 0, 54, 0
1, 13674, Note_on_c, 0, 66, 0
1, 13674, Note_on_c, 0, 70, 49
1, 13682, Control_c, 0, 64, 0
1, 13766, Note_on_c, 0, 70, 0
1, 13766, Note_on_c, 0, 64, 55
1, 13766, Note_on_c, 0, 55, 40
1, 13769, Note_on_c, 0, 61, 47
1, 13772, Control_c, 0, 64, 127
1, 13811, Note_on_c, 0, 61, 0
1, 13811, Note_on_c, 0, 55, 0
1, 13857, Note_on_c, 0, 64, 0
1, 13857, Note_on_c, 0, 70, 49
1, 13865, Control_c, 0, 64, 0
1, 13948, Note_on_c, 0, 70, 0
1, 13948, Note_on_c, 0, 64, 55
1, 13948, Note_on_c, 0, 61, 48
1, 13951, Note_on_c, 0, 55, 41
1, 13967, Control_c, 0, 64, 127
1, 13994, Note_on_c, 0, 55, 0
1, 13994, Note_on_c, 0, 61, 0
1, 14040, Note_on_c, 0, 64, 0
1, 14040, Note_on_c, 0, 70, 48
1, 14048, Control_c, 0, 64, 0
1, 14134, Note_on_c, 0, 70, 0
1, 14134, Note_on_c, 0, 67, 55
1, 14180, Control_c, 0, 64, 127
1, 14225, Note_on_c, 0, 67, 0
1, 14225, Note_on_c, 0, 69, 48
1, 14317, Note_on_c, 0, 69, 0
1, 14317, Note_on_c, 0, 70, 59
1, 14317, Note_on_c, 0, 55, 42
1, 14320, Note_on_c, 0, 64, 50
1, 14320, Control_c, 0, 64, 0
1, 14349, Control_c, 0, 64, 127
1, 14362, Note_on_c, 0, 64, 0
1, 14362, Note_on_c, 0, 55, 0
1, 14408, Note_on_c, 0, 70, 0
1, 14408, Note_on_c, 0, 73, 54
1, 14415, Control_c, 0, 64, 0
1, 14498, Note_on_c, 0, 73, 0
1, 14498, Note_on_c, 0, 70, 61
1, 14498, Note_on_c, 0, 64, 53
1, 14501, Note_on_c, 0, 55, 44
1, 14513, Control_c, 0, 64, 127
1, 14543, Note_on_c, 0, 55, 0
1, 14543, Note_on_c, 0, 64, 0
1, 14588, Note_on_c, 0, 70, 0
1, 14588, Note_on_c, 0, 73, 53
1, 14596, Control_c, 0, 64, 0
1, 14679, Note_on_c, 0, 73, 0
1, 14679, Note_on_c, 0, 69, 67
1, 14679, Note_on_c, 0, 64, 54
1, 14682, Note_on_c, 0, 55, 46
1, 14694, Control_c, 0, 64, 127
1, 14724, Note_on_c, 0, 55, 0
1, 14724, Note_on_c, 0, 64, 0
1, 14769, Note_on_c, 0, 69, 0
1, 14769, Note_on_c, 0, 73, 60
1, 14776, Control_c, 0, 64, 0
1, 14860, Note_on_c, 0, 73, 0
1, 14860, Note_on_c, 0, 67, 71
1, 14860, Note_on_c, 0, 58, 48
1, 14863, Note_on_c, 0, 64, 56
1, 14866, Control_c, 0, 64, 127
1, 14906, Note_on_c, 0, 64, 0
1, 14906, Note_on_c, 0, 58, 0
1, 14951, Note_on_c, 0, 67, 0
1, 14951, Note_on_c, 0, 73, 64
1, 14958, Control_c, 0, 64, 0
1, 15041, Note_on_c, 0, 73, 0
1, 15041, Note_on_c, 0, 67, 74
1, 15041, Note_on_c, 0, 64, 60
1, 15044, Note_on_c, 0, 58, 50
1, 15060, Control_c, 0, 64, 127
1, 15086, Note_on_c, 0, 58, 0
1, 15086, Note_on_c, 0, 64, 0
1, 15131, Note_on_c, 0, 67, 0
1, 15131, Note_on_c, 0, 73, 70
1, 15139, Control_c, 0, 64, 0
1, 15225, Note_on_c, 0, 73, 0
1, 15225, Note_on_c, 0, 70, 77
1, 15271, Control_c, 0, 64, 127
1, 15317, Note_on_c, 0, 70, 0
1, 15317, Note_on_c, 0, 71, 68
1, 15408, Note_on_c, 0, 71, 0
1, 15408, Note_on_c, 0, 72, 80
1, 15408, Note_on_c, 0, 58, 56
1, 15411, Note_on_c, 0, 67, 67
1, 15411, Control_c, 0, 64, 0
1, 15441, Control_c, 0, 64, 127
1, 15454, Note_on_c, 0, 67, 0
1, 15454, Note_on_c, 0, 58, 0
1, 15499, Note_on_c, 0, 72, 0
1, 15499, Note_on_c, 0, 76, 72
1, 15507, Control_c, 0, 64, 0
1, 15589, Note_on_c, 0, 76, 0
1, 15589, Note_on_c, 0, 72, 80
1, 15589, Note_on_c, 0, 67, 67
1, 15592, Note_on_c, 0, 64, 56
1, 15604, Control_c, 0, 64, 127
1, 15635, Note_on_c, 0, 64, 0
1, 15635, Note_on_c, 0, 67, 0
1, 15680, Note_on_c, 0, 72, 0
1, 15680, Note_on_c, 0, 76, 72
1, 15687, Control_c, 0, 64, 0
1, 15770, Note_on_c, 0, 76, 0
1, 15770, Note_on_c, 0, 71, 79
1, 15770, Note_on_c, 0, 62, 56
1, 15773, Note_on_c, 0, 67, 67
1, 15785, Control_c, 0, 64, 127
1, 15815, Note_on_c, 0, 67, 0
1, 15815, Note_on_c, 0, 62, 0
1, 15860, Note_on_c, 0, 71, 0
1, 15860, Note_on_c, 0, 76, 66
1, 15868, Control_c, 0, 64, 0
1, 15953, Note_on_c, 0, 76, 0
1, 15953, Note_on_c, 0, 70, 80
1, 15953, Note_on_c, 0, 60, 56
1, 15956, Note_on_c, 0, 66, 67
1, 15956, Control_c, 0, 64, 0
1, 15985, Control_c, 0, 64, 127
1, 15998, Note_on_c, 0, 66, 0
1, 15998, Note_on_c, 0, 60, 0
1, 16043, Note_on_c, 0, 70, 0
1, 16043, Note_on_c, 0, 76, 72
1, 16051, Control_c, 0, 64, 0
1, 16133, Note_on_c, 0, 76, 0
1, 16133, Note_on_c, 0, 70, 76
1, 16133, Note_on_c, 0, 66, 59
1, 16136, Note_on_c, 0, 60, 49
1, 16148, Control_c, 0, 64, 127
1, 16178, Note_on_c, 0, 60, 0
1, 16178, Note_on_c, 0, 66, 0
1, 16223, Note_on_c, 0, 70, 0
1, 16223, Note_on_c, 0, 76, 66
1, 16231, Control_c, 0, 64, 0
1, 16314, Note_on_c, 0, 76, 0
1, 16314, Note_on_c, 0, 70, 72
1, 16314, Note_on_c, 0, 60, 46
1, 16317, Note_on_c, 0, 66, 54
1, 16329, Control_c, 0, 64, 127
1, 16360, Note_on_c, 0, 66, 0
1, 16360, Note_on_c, 0, 60, 0
1, 16406, Note_on_c, 0, 70, 0
1, 16406, Note_on_c, 0, 76, 61
1, 16415, Control_c, 0, 64, 0
1, 16507, Note_on_c, 0, 76, 0
1, 16507, Note_on_c, 0, 71, 54
1, 16507, Note_on_c, 0, 59, 40
1, 16510, Note_on_c, 0, 66, 47
1, 16510, Control_c, 0, 64, 0
1, 16541, Control_c, 0, 64, 127
1, 16554, Note_on_c, 0, 66, 0
1, 16554, Note_on_c, 0, 59, 0
1, 16600, Note_on_c, 0, 71, 0
1, 16600, Note_on_c, 0, 76, 49
1, 16693, Note_on_c, 0, 76, 0
1, 16693, Note_on_c, 0, 71, 54
1, 16693, Note_on_c, 0, 59, 40
1, 16696, Note_on_c, 0, 66, 47
1, 16702, Control_c, 0, 64, 0
1, 16734, Control_c, 0, 64, 127
1, 16740, Note_on_c, 0, 66, 0
1, 16740, Note_on_c, 0, 59, 0
1, 16786, Note_on_c, 0, 71, 0
1, 16786, Note_on_c, 0, 76, 47
1, 16879, Note_on_c, 0, 76, 0
1, 16879, Note_on_c, 0, 71, 55
1, 16879, Note_on_c, 0, 59, 40
1, 16882, Note_on_c, 0, 66, 47
1, 16885, Control_c, 0, 64, 0
1, 16920, Control_c, 0, 64, 127
1, 16926, Note_on_c, 0, 66, 0
1, 16926, Note_on_c, 0, 59, 0
1, 16972, Note_on_c, 0, 71, 0
1, 16972, Note_on_c, 0, 76, 49
1, 17065, Note_on_c, 0, 76, 0
1, 17065, Note_on_c, 0, 71, 54
1, 17065, Note_on_c, 0, 59, 40
1, 17068, Note_on_c, 0, 66, 47
1, 17068, Control_c, 0, 64, 0
1, 17099, Control_c, 0, 64, 127
1, 17112, Note_on_c, 0, 66, 0
1, 17112, Note_on_c, 0, 59, 0
1, 17160, Note_on_c, 0, 71, 0
1, 17160, Note_on_c, 0, 75, 49
1, 17254, Note_on_c, 0, 75, 0
1, 17254, Note_on_c, 0, 71, 54
1, 17254, Note_on_c, 0, 66, 47
1, 17257, Note_on_c, 0, 59, 40
1, 17260, Control_c, 0, 64, 0
1, 17290, Control_c, 0, 64, 127
1, 17301, Note_on_c, 0, 59, 0
1, 17301, Note_on_c, 0, 66, 0
1, 17349, Note_on_c, 0, 71, 0
1, 17349, Note_on_c, 0, 75, 47
1, 17443, Note_on_c, 0, 75, 0
1, 17443, Note_on_c, 0, 71, 55
1, 17443, Note_on_c, 0, 59, 40
1, 17446, Note_on_c, 0, 66, 47
1, 17449, Control_c, 0, 64, 0
1, 17487, Control_c, 0, 64, 127
1, 17491, Note_on_c, 0, 66, 0
1, 17491, Note_on_c, 0, 59, 0
1, 17538, Note_on_c, 0, 71, 0
1, 17538, Note_on_c, 0, 75, 49
1, 17648, Note_on_c, 0, 75, 0
1, 17648, Note_on_c, 0, 76, 54
1, 17648, Note_on_c, 0, 71, 47
1, 17651, Note_on_c, 0, 67, 54
1, 17651, Note_on_c, 0, 64, 47
1, 17651, Control_c, 0, 64, 0
1, 17695, Note_on_c, 0, 71, 0
1, 17695, Note_on_c, 0, 76, 0
1, 17695, Note_on_c, 0, 64, 0
1, 17698, Note_on_c, 0, 67, 0
1, 17837, Note_on_c, 0, 71, 43
1, 17837, Note_on_c, 0, 76, 50
1, 17837, Note_on_c, 0, 67, 48
1, 17840, Note_on_c, 0, 64, 41
1, 17884, Note_on_c, 0, 76, 0
1, 17884, Note_on_c, 0, 71, 0
1, 17884, Note_on_c, 0, 64, 0
1, 17887, Note_on_c, 0, 67, 0
1, 18026, Note_on_c, 0, 72, 43
1, 18026, Note_on_c, 0, 76, 50
1, 18026, Note_on_c, 0, 60, 36
1, 18029, Note_on_c, 0, 67, 42
1, 18076, Note_on_c, 0, 76, 0
1, 18076, Note_on_c, 0, 72, 0
1, 18076, Note_on_c, 0, 67, 0
1, 18079, Note_on_c, 0, 60, 0
1, 18225, Note_on_c, 0, 71, 47
1, 18225, Note_on_c, 0, 76, 54
1, 18225, Note_on_c, 0, 64, 41
1, 18228, Note_on_c, 0, 67, 48
1, 18273, Note_on_c, 0, 76, 0
1, 18273, Note_on_c, 0, 71, 0
1, 18273, Note_on_c, 0, 67, 0
1, 18276, Note_on_c, 0, 64, 0
1, 18417, Note_on_c, 0, 71, 42
1, 18417, Note_on_c, 0, 76, 49
1, 18417, Note_on_c, 0, 67, 43
1, 18420, Note_on_c, 0, 64, 37
1, 18466, Note_on_c, 0, 76, 0
1, 18466, Note_on_c, 0, 71, 0
1, 18466, Note_on_c, 0, 64, 0
1, 18469, Note_on_c, 0, 67, 0
1, 18613, Note_on_c, 0, 67, 54
1, 18613, Control_c, 0, 64, 127
1, 18706, Note_on_c, 0, 67, 0
1, 18706, Note_on_c, 0, 69, 48
1, 18800, Note_on_c, 0, 69, 0
1, 18800, Note_on_c, 0, 71, 54
1, 18800, Note_on_c, 0, 64, 41
1, 18803, Note_on_c, 0, 67, 48
1, 18803, Control_c, 0, 64, 0
1, 18840, Control_c, 0, 64, 127
1, 18845, Note_on_c, 0, 67, 0
1, 18845, Note_on_c, 0, 64, 0
1, 18890, Note_on_c, 0, 71, 0
1, 18890, Note_on_c, 0, 72, 49
1, 18980, Note_on_c, 0, 72, 0
1, 18980, Note_on_c, 0, 71, 54
1, 18980, Note_on_c, 0, 64, 38
1, 18983, Note_on_c, 0, 67, 44
1, 19025, Note_on_c, 0, 67, 0
1, 19025, Note_on_c, 0, 64, 0
1, 19070, Note_on_c, 0, 71, 0
1, 19070, Note_on_c, 0, 78, 60
1, 19160, Note_on_c, 0, 78, 0
1, 19160, Note_on_c, 0, 76, 58
1, 19160, Note_on_c, 0, 64, 40
1, 19163, Note_on_c, 0, 69, 46
1, 19169, Control_c, 0, 64, 0
1, 19205, Note_on_c, 0, 69, 0
1, 19205, Note_on_c, 0, 64, 0
1, 19212, Control_c, 0, 64, 127
1, 19250, Note_on_c, 0, 76, 0
1, 19250, Note_on_c, 0, 74, 54
1, 19340, Note_on_c, 0, 74, 0
1, 19340, Note_on_c, 0, 71, 53
1, 19340, Note_on_c, 0, 67, 48
1, 19343, Note_on_c, 0, 64, 41
1, 19343, Control_c, 0, 64, 0
1, 19410, Control_c, 0, 64, 127
1, 19433, Note_on_c, 0, 71, 0
1, 19433, Note_on_c, 0, 76, 55
1, 19524, Note_on_c, 0, 76, 0
1, 19524, Note_on_c, 0, 79, 58
1, 19524, Note_on_c, 0, 64, 0
1, 19527, Note_on_c, 0, 67, 0
1, 19615, Note_on_c, 0, 79, 0
1, 19615, Note_on_c, 0, 82, 60
1, 19705, Note_on_c, 0, 82, 0
1, 19705, Note_on_c, 0, 83, 64
1, 19794, Note_on_c, 0, 83, 0
1, 19824, Control_c, 0, 64, 0
1, 19900, Note_on_c, 0, 83, 54
1, 19900, Note_on_c, 0, 74, 47
1, 19900, Note_on_c, 0, 78, 47
1, 19903, Note_on_c, 0, 71, 54
1, 19947, Note_on_c, 0, 78, 0
1, 19947, Note_on_c, 0, 74, 0
1, 19947, Note_on_c, 0, 83, 0
1, 19950, Note_on_c, 0, 71, 0
1, 20089, Note_on_c, 0, 74, 43
1, 20089, Note_on_c, 0, 83, 50
1, 20089, Note_on_c, 0, 78, 43
1, 20092, Note_on_c, 0, 71, 48
1, 20136, Note_on_c, 0, 78, 0
1, 20136, Note_on_c, 0, 83, 0
1, 20136, Note_on_c, 0, 74, 0
1, 20139, Note_on_c, 0, 71, 0
1, 20278, Note_on_c, 0, 83, 50
1, 20278, Note_on_c, 0, 74, 43
1, 20278, Note_on_c, 0, 79, 43
1, 20281, Note_on_c, 0, 67, 42
1, 20328, Note_on_c, 0, 79, 0
1, 20328, Note_on_c, 0, 74, 0
1, 20328, Note_on_c, 0, 83, 0
1, 20331, Note_on_c, 0, 67, 0
1, 20477, Note_on_c, 0, 74, 47
1, 20477, Note_on_c, 0, 78, 47
1, 20477, Note_on_c, 0, 83, 54
1, 20480, Note_on_c, 0, 71, 48
1, 20525, Note_on_c, 0, 83, 0
1, 20525, Note_on_c, 0, 78, 0
1, 20525, Note_on_c, 0, 74, 0
1, 20528, Note_on_c, 0, 71, 0
1, 20669, Note_on_c, 0, 78, 42
1, 20669, Note_on_c, 0, 83, 49
1, 20669, Note_on_c, 0, 74, 42
1, 20672, Note_on_c, 0, 71, 43
1, 20717, Note_on_c, 0, 74, 0
1, 20717, Note_on_c, 0, 83, 0
1, 20717, Note_on_c, 0, 78, 0
1, 20720, Note_on_c, 0, 71, 0
1, 20862, Note_on_c, 0, 71, 54
1, 20862, Control_c, 0, 64, 127
1, 20955, Note_on_c, 0, 71, 0
1, 20955, Note_on_c, 0, 73, 48
1, 21049, Note_on_c, 0, 73, 0
1, 21049, Note_on_c, 0, 74, 54
1, 21049, Note_on_c, 0, 66, 48
1, 21053, Control_c, 0, 64, 0
1, 21089, Control_c, 0, 64, 127
1, 21094, Note_on_c, 0, 66, 0
1, 21140, Note_on_c, 0, 74, 0
1, 21140, Note_on_c, 0, 78, 49
1, 21230, Note_on_c, 0, 78, 0
1, 21230, Note_on_c, 0, 74, 54
1, 21230, Note_on_c, 0, 71, 54
1, 21233, Note_on_c, 0, 62, 44
1, 21276, Note_on_c, 0, 62, 0
1, 21321, Note_on_c, 0, 71, 0
1, 21321, Note_on_c, 0, 74, 0
1, 21321, Note_on_c, 0, 78, 60
1, 21324, Note_on_c, 0, 64, 53
1, 21372, Note_on_c, 0, 64, 0
1, 21422, Note_on_c, 0, 78, 0
1, 21422, Note_on_c, 0, 70, 70
1, 21422, Note_on_c, 0, 73, 82
1, 21425, Note_on_c, 0, 66, 73
1, 21431, Control_c, 0, 64, 0
1, 21468, Note_on_c, 0, 66, 0
1, 21475, Control_c, 0, 64, 127
1, 21513, Note_on_c, 0, 73, 0
1, 21513, Note_on_c, 0, 78, 78
1, 21604, Note_on_c, 0, 78, 0
1, 21604, Note_on_c, 0, 70, 0
1, 21604, Note_on_c, 0, 71, 68
1, 21607, Note_on_c, 0, 75, 80
1, 21607, Note_on_c, 0, 66, 85
1, 21607, Control_c, 0, 64, 0
1, 21674, Control_c, 0, 64, 127
1, 21696, Note_on_c, 0, 75, 0
1, 21696, Note_on_c, 0, 71, 0
1, 21696, Note_on_c, 0, 78, 74
1, 21787, Note_on_c, 0, 78, 0
1, 21787, Note_on_c, 0, 71, 70
1, 21787, Note_on_c, 0, 75, 82
1, 21876, Note_on_c, 0, 75, 0
1, 21876, Note_on_c, 0, 71, 0
1, 21876, Note_on_c, 0, 78, 77
1, 21965, Note_on_c, 0, 78, 0
1, 21965, Note_on_c, 0, 71, 71
1, 21965, Note_on_c, 0, 75, 83
1, 21968, Note_on_c, 0, 66, 0
1, 21968, Note_on_c, 0, 59, 78
1, 22053, Note_on_c, 0, 75, 0
1, 22053, Note_on_c, 0, 71, 0
1, 22053, Note_on_c, 0, 78, 74
1, 22173, Note_on_c, 0, 78, 0
1, 22173, Note_on_c, 0, 59, 88
1, 22173, Note_on_c, 0, 59, 0
1, 22176, Note_on_c, 0, 47, 88
1, 22176, Control_c, 0, 64, 0
1, 22221, Note_on_c, 0, 59, 0
1, 22221, Note_on_c, 0, 47, 0
1, 22363, Note_on_c, 0, 59, 80
1, 22363, Note_on_c, 0, 47, 77
1, 22410, Note_on_c, 0, 59, 0
1, 22410, Note_on_c, 0, 47, 0
1, 22552, Note_on_c, 0, 54, 80
1, 22552, Note_on_c, 0, 42, 67
1, 22601, Note_on_c, 0, 54, 0
1, 22601, Note_on_c, 0, 42, 0
1, 22750, Note_on_c, 0, 59, 88
1, 22750, Note_on_c, 0, 47, 77
1, 22799, Note_on_c, 0, 59, 0
1, 22799, Note_on_c, 0, 47, 0
1, 22943, Note_on_c, 0, 59, 79
1, 22943, Note_on_c, 0, 47, 68
1, 22992, Note_on_c, 0, 59, 0
1, 22992, Note_on_c, 0, 47, 0
1, 23138, Note_on_c, 0, 64, 54
1, 23138, Control_c, 0, 64, 127
1, 23232, Note_on_c, 0, 64, 0
1, 23232, Note_on_c, 0, 66, 48
1, 23326, Note_on_c, 0, 66, 0
1, 23326, Note_on_c, 0, 67, 54
1, 23326, Note_on_c, 0, 52, 40
1, 23329, Note_on_c, 0, 61, 47
1, 23329, Control_c, 0, 64, 0
1, 23358, Control_c, 0, 64, 127
1, 23371, Note_on_c, 0, 61, 0
1, 23371, Note_on_c, 0, 52, 0
1, 23416, Note_on_c, 0, 67, 0
1, 23416, Note_on_c, 0, 70, 49
1, 23423, Control_c, 0, 64, 0
1, 23506, Note_on_c, 0, 70, 0
1, 23506, Note_on_c, 0, 67, 54
1, 23506, Note_on_c, 0, 61, 47
1, 23509, Note_on_c, 0, 52, 40
1, 23521, Control_c, 0, 64, 127
1, 23551, Note_on_c, 0, 52, 0
1, 23551, Note_on_c, 0, 61, 0
1, 23596, Note_on_c, 0, 67, 0
1, 23596, Note_on_c, 0, 70, 47
1, 23604, Control_c, 0, 64, 0
1, 23690, Note_on_c, 0, 70, 0
1, 23690, Note_on_c, 0, 66, 55
1, 23690, Note_on_c, 0, 54, 40
1, 23693, Note_on_c, 0, 61, 47
1, 23705, Control_c, 0, 64, 127
1, 23735, Note_on_c, 0, 61, 0
1, 23735, Note_on_c, 0, 54, 0
1, 23781, Note_on_c, 0, 66, 0
1, 23781, Note_on_c, 0, 70, 49
1, 23788, Control_c, 0, 64, 0
1, 23872, Note_on_c, 0, 70, 0
1, 23872, Note_on_c, 0, 64, 55
1, 23872, Note_on_c, 0, 61, 47
1, 23875, Note_on_c, 0, 55, 40
1, 23878, Control_c, 0, 64, 127
1, 23918, Note_on_c, 0, 55, 0
1, 23918, Note_on_c, 0, 61, 0
1, 23963, Note_on_c, 0, 64, 0
1, 23963, Note_on_c, 0, 70, 49
1, 23971, Control_c, 0, 64, 0
1, 24054, Note_on_c, 0, 70, 0
1, 24054, Note_on_c, 0, 64, 55
1, 24054, Note_on_c, 0, 61, 48
1, 24057, Note_on_c, 0, 55, 41
1, 24073, Control_c, 0, 64, 127
1, 24099, Note_on_c, 0, 55, 0
1, 24099, Note_on_c, 0, 61, 0
1, 24144, Note_on_c, 0, 64, 0
1, 24144, Note_on_c, 0, 70, 48
1, 24151, Control_c, 0, 64, 0
1, 24232, Note_on_c, 0, 70, 0
1, 24441, Note_on_c, 0, 59, 88
1, 24441, Note_on_c, 0, 47, 88
1, 24441, Control_c, 0, 64, 0
1, 24488, Note_on_c, 0, 59, 0
1, 24488, Note_on_c, 0, 47, 0
1, 24630, Note_on_c, 0, 59, 80
1, 24630, Note_on_c, 0, 47, 77
1, 24677, Note_on_c, 0, 59, 0
1, 24677, Note_on_c, 0, 47, 0
1, 24819, Note_on_c, 0, 54, 80
1, 24819, Note_on_c, 0, 42, 67
1, 24869, Note_on_c, 0, 54, 0
1, 24869, Note_on_c, 0, 42, 0
1, 25018, Note_on_c, 0, 59, 88
1, 25018, Note_on_c, 0, 47, 77
1, 25066, Note_on_c, 0, 59, 0
1, 25066, Note_on_c, 0, 47, 0
1, 25210, Note_on_c, 0, 59, 79
1, 25210, Note_on_c, 0, 47, 68
1, 25258, Note_on_c, 0, 59, 0
1, 25258, Note_on_c, 0, 47, 0
1, 25403, Note_on_c, 0, 64, 54
1, 25403, Control_c, 0, 64, 127
1, 25497, Note_on_c, 0, 64, 0
1, 25497, Note_on_c, 0, 66, 48
1, 25590, Note_on_c, 0, 66, 0
1, 25590, Note_on_c, 0, 67, 54
1, 25590, Note_on_c, 0, 52, 40
1, 25593, Note_on_c, 0, 61, 47
1, 25593, Control_c, 0, 64, 0
1, 25623, Control_c, 0, 64, 127
1, 25636, Note_on_c, 0, 61, 0
1, 25636, Note_on_c, 0, 52, 0
1, 25681, Note_on_c, 0, 67, 0
1, 25681, Note_on_c, 0, 70, 49
1, 25689, Control_c, 0, 64, 0
1, 25772, Note_on_c, 0, 70, 0
1, 25772, Note_on_c, 0, 67, 54
1, 25772, Note_on_c, 0, 52, 40
1, 25775, Note_on_c, 0, 61, 47
1, 25787, Control_c, 0, 64, 127
1, 25818, Note_on_c, 0, 61, 0
1, 25818, Note_on_c, 0, 52, 0
1, 25863, Note_on_c, 0, 67, 0
1, 25863, Note_on_c, 0, 70, 47
1, 25871, Control_c, 0, 64, 0
1, 25956, Note_on_c, 0, 70, 0
1, 25956, Note_on_c, 0, 66, 55
1, 25956, Note_on_c, 0, 54, 40
1, 25959, Note_on_c, 0, 61, 47
1, 25971, Control_c, 0, 64, 127
1, 26002, Note_on_c, 0, 61, 0
1, 26002, Note_on_c, 0, 54, 0
1, 26047, Note_on_c, 0, 66, 0
1, 26047, Note_on_c, 0, 70, 49
1, 26055, Control_c, 0, 64, 0
1, 26138, Note_on_c, 0, 70, 0
1, 26138, Note_on_c, 0, 64, 55
1, 26138, Note_on_c, 0, 55, 40
1, 26141, Note_on_c, 0, 61, 47
1, 26144, Control_c, 0, 64, 127
1, 26184, Note_on_c, 0, 61, 0
1, 26184, Note_on_c, 0, 55, 0
1, 26230, Note_on_c, 0, 64, 0
1, 26230, Note_on_c, 0, 70, 49
1, 26237, Control_c, 0, 64, 0
1, 26321, Note_on_c, 0, 70, 0
1, 26321, Note_on_c, 0, 64, 55
1, 26321, Note_on_c, 0, 55, 41
1, 26324, Note_on_c, 0, 61, 48
1, 26340, Control_c, 0, 64, 127
1, 26367, Note_on_c, 0, 61, 0
1, 26367, Note_on_c, 0, 55, 0
1, 26412, Note_on_c, 0, 64, 0
1, 26412, Note_on_c, 0, 70, 48
1, 26420, Control_c, 0, 64, 0
1, 26506, Note_on_c, 0, 70, 0
1, 26506, Note_on_c, 0, 67, 55
1, 26552, Control_c, 0, 64, 127
1, 26598, Note_on_c, 0, 67, 0
1, 26598, Note_on_c, 0, 69, 48
1, 26689, Note_on_c, 0, 69, 0
1, 26689, Note_on_c, 0, 70, 59
1, 26689, Note_on_c, 0, 64, 50
1, 26692, Note_on_c, 0, 55, 42
1, 26692, Control_c, 0, 64, 0
1, 26722, Control_c, 0, 64, 127
1, 26735, Note_on_c, 0, 55, 0
1, 26735, Note_on_c, 0, 64, 0
1, 26780, Note_on_c, 0, 70, 0
1, 26780, Note_on_c, 0, 73, 54
1, 26788, Control_c, 0, 64, 0
1, 26871, Note_on_c, 0, 73, 0
1, 26871, Note_on_c, 0, 70, 61
1, 26871, Note_on_c, 0, 55, 44
1, 26874, Note_on_c, 0, 64, 53
1, 26886, Control_c, 0, 64, 127
1, 26916, Note_on_c, 0, 64, 0
1, 26916, Note_on_c, 0, 55, 0
1, 26961, Note_on_c, 0, 70, 0
1, 26961, Note_on_c, 0, 73, 53
1, 26968, Control_c, 0, 64, 0
1, 27051, Note_on_c, 0, 73, 0
1, 27051, Note_on_c, 0, 69, 67
1, 27051, Note_on_c, 0, 55, 46
1, 27054, Note_on_c, 0, 64, 54
1, 27066, Control_c, 0, 64, 127
1, 27096, Note_on_c, 0, 64, 0
1, 27096, Note_on_c, 0, 55, 0
1, 27141, Note_on_c, 0, 69, 0
1, 27141, Note_on_c, 0, 73, 60
1, 27149, Control_c, 0, 64, 0
1, 27233, Note_on_c, 0, 73, 0
1, 27233, Note_on_c, 0, 67, 71
1, 27233, Note_on_c, 0, 64, 56
1, 27236, Note_on_c, 0, 58, 48
1, 27239, Control_c, 0, 64, 127
1, 27278, Note_on_c, 0, 58, 0
1, 27278, Note_on_c, 0, 64, 0
1, 27323, Note_on_c, 0, 67, 0
1, 27323, Note_on_c, 0, 73, 64
1, 27331, Control_c, 0, 64, 0
1, 27413, Note_on_c, 0, 73, 0
1, 27413, Note_on_c, 0, 67, 74
1, 27413, Note_on_c, 0, 64, 60
1, 27416, Note_on_c, 0, 58, 50
1, 27432, Control_c, 0, 64, 127
1, 27458, Note_on_c, 0, 58, 0
1, 27458, Note_on_c, 0, 64, 0
1, 27504, Note_on_c, 0, 67, 0
1, 27504, Note_on_c, 0, 73, 70
1, 27511, Control_c, 0, 64, 0
1, 27598, Note_on_c, 0, 73, 0
1, 27598, Note_on_c, 0, 70, 77
1, 27643, Control_c, 0, 64, 127
1, 27689, Note_on_c, 0, 70, 0
1, 27689, Note_on_c, 0, 71, 68
1, 27780, Note_on_c, 0, 71, 0
1, 27780, Note_on_c, 0, 72, 80
1, 27780, Note_on_c, 0, 67, 67
1, 27783, Note_on_c, 0, 58, 56
1, 27783, Control_c, 0, 64, 0
1, 27813, Control_c, 0, 64, 127
1, 27826, Note_on_c, 0, 58, 0
1, 27826, Note_on_c, 0, 67, 0
1, 27872, Note_on_c, 0, 72, 0
1, 27872, Note_on_c, 0, 76, 72
1, 27879, Control_c, 0, 64, 0
1, 27962, Note_on_c, 0, 76, 0
1, 27962, Note_on_c, 0, 72, 80
1, 27962, Note_on_c, 0, 64, 56
1, 27965, Note_on_c, 0, 67, 67
1, 27977, Control_c, 0, 64, 127
1, 28007, Note_on_c, 0, 67, 0
1, 28007, Note_on_c, 0, 64, 0
1, 28052, Note_on_c, 0, 72, 0
1, 28052, Note_on_c, 0, 76, 72
1, 28060, Control_c, 0, 64, 0
1, 28142, Note_on_c, 0, 76, 0
1, 28142, Note_on_c, 0, 71, 79
1, 28142, Note_on_c, 0, 67, 67
1, 28145, Note_on_c, 0, 62, 56
1, 28157, Control_c, 0, 64, 127
1, 28187, Note_on_c, 0, 62, 0
1, 28187, Note_on_c, 0, 67, 0
1, 28233, Note_on_c, 0, 71, 0
1, 28233, Note_on_c, 0, 76, 66
1, 28240, Control_c, 0, 64, 0
1, 28325, Note_on_c, 0, 76, 0
1, 28325, Note_on_c, 0, 70, 80
1, 28325, Note_on_c, 0, 60, 56
1, 28328, Note_on_c, 0, 66, 67
1, 28328, Control_c, 0, 64, 0
1, 28358, Control_c, 0, 64, 127
1, 28371, Note_on_c, 0, 66, 0
1, 28371, Note_on_c, 0, 60, 0
1, 28416, Note_on_c, 0, 70, 0
1, 28416, Note_on_c, 0, 76, 72
1, 28423, Control_c, 0, 64, 0
1, 28506, Note_on_c, 0, 76, 0
1, 28506, Note_on_c, 0, 70, 76
1, 28506, Note_on_c, 0, 66, 59
1, 28509, Note_on_c, 0, 60, 49
1, 28521, Control_c, 0, 64, 127
1, 28551, Note_on_c, 0, 60, 0
1, 28551, Note_on_c, 0, 66, 0
1, 28596, Note_on_c, 0, 70, 0
1, 28596, Note_on_c, 0, 76, 66
1, 28604, Control_c, 0, 64, 0
1, 28686, Note_on_c, 0, 76, 0
1, 28686, Note_on_c, 0, 70, 72
1, 28686, Note_on_c, 0, 66, 54
1, 28689, Note_on_c, 0, 60, 46
1, 28702, Control_c, 0, 64, 127
1, 28732, Note_on_c, 0, 60, 0
1, 28732, Note_on_c, 0, 66, 0
1, 28779, Note_on_c, 0, 70, 0
1, 28779, Note_on_c, 0, 76, 61
1, 28787, Control_c, 0, 64, 0
1, 28880, Note_on_c, 0, 76, 0
1, 28880, Note_on_c, 0, 71, 54
1, 28880, Note_on_c, 0, 66, 47
1, 28883, Note_on_c, 0, 59, 40
1, 28883, Control_c, 0, 64, 0
1, 28913, Control_c, 0, 64, 127
1, 28926, Note_on_c, 0, 59, 0
1, 28926, Note_on_c, 0, 66, 0
1, 28973, Note_on_c, 0, 71, 0
1, 28973, Note_on_c, 0, 76, 49
1, 29066, Note_on_c, 0, 76, 0
1, 29066, Note_on_c, 0, 71, 54
1, 29066, Note_on_c, 0, 66, 47
1, 29069, Note_on_c, 0, 59, 40
1, 29074, Control_c, 0, 64, 0
1, 29112, Note_on_c, 0, 59, 0
1, 29112, Note_on_c, 0, 66, 0
1, 29120, Control_c, 0, 64, 127
1, 29159, Note_on_c, 0, 71, 0
1, 29159, Note_on_c, 0, 76, 47
1, 29252, Note_on_c, 0, 76, 0
1, 29252, Note_on_c, 0, 71, 55
1, 29252, Note_on_c, 0, 66, 47
1, 29255, Note_on_c, 0, 59, 40
1, 29259, Control_c, 0, 64, 0
1, 29298, Note_on_c, 0, 59, 0
1, 29298, Note_on_c, 0, 66, 0
1, 29298, Control_c, 0, 64, 127
1, 29345, Note_on_c, 0, 71, 0
1, 29345, Note_on_c, 0, 76, 49
1, 29438, Note_on_c, 0, 76, 0
1, 29438, Note_on_c, 0, 71, 54
1, 29438, Note_on_c, 0, 59, 40
1, 29441, Note_on_c, 0, 66, 47
1, 29441, Control_c, 0, 64, 0
1, 29485, Note_on_c, 0, 66, 0
1, 29485, Note_on_c, 0, 59, 0
1, 29493, Control_c, 0, 64, 127
1, 29532, Note_on_c, 0, 71, 0
1, 29532, Note_on_c, 0, 75, 49
1, 29627, Note_on_c, 0, 75, 0
1, 29627, Note_on_c, 0, 71, 54
1, 29627, Note_on_c, 0, 66, 47
1, 29630, Note_on_c, 0, 59, 40
1, 29634, Control_c, 0, 64, 0
1, 29668, Control_c, 0, 64, 127
1, 29674, Note_on_c, 0, 59, 0
1, 29674, Note_on_c, 0, 66, 0
1, 29721, Note_on_c, 0, 71, 0
1, 29721, Note_on_c, 0, 75, 47
1, 29816, Note_on_c, 0, 75, 0
1, 29816, Note_on_c, 0, 71, 55
1, 29816, Note_on_c, 0, 59, 40
1, 29819, Note_on_c, 0, 66, 47
1, 29819, Control_c, 0, 64, 0
1, 29860, Control_c, 0, 64, 127
1, 29863, Note_on_c, 0, 66, 0
1, 29863, Note_on_c, 0, 59, 0
1, 29910, Note_on_c, 0, 71, 0
1, 29910, Note_on_c, 0, 75, 49
1, 30029, Note_on_c, 0, 75, 0
1, 30029, Note_on_c, 0, 76, 54
1, 30029, Note_on_c, 0, 71, 47
1, 30032, Note_on_c, 0, 67, 54
1, 30032, Note_on_c, 0, 64, 47
1, 30032, Control_c, 0, 64, 0
1, 30077, Note_on_c, 0, 71, 0
1, 30077, Note_on_c, 0, 76, 0
1, 30077, Note_on_c, 0, 64, 0
1, 30080, Note_on_c, 0, 67, 0
1, 30218, Note_on_c, 0, 71, 43
1, 30218, Note_on_c, 0, 76, 50
1, 30218, Note_on_c, 0, 64, 41
1, 30221, Note_on_c, 0, 67, 48
1, 30266, Note_on_c, 0, 76, 0
1, 30266, Note_on_c, 0, 71, 0
1, 30266, Note_on_c, 0, 67, 0
1, 30269, Note_on_c, 0, 64, 0
1, 30407, Note_on_c, 0, 76, 50
1, 30407, Note_on_c, 0, 72, 43
1, 30407, Note_on_c, 0, 67, 42
1, 30410, Note_on_c, 0, 60, 36
1, 30457, Note_on_c, 0, 72, 0
1, 30457, Note_on_c, 0, 76, 0
1, 30457, Note_on_c, 0, 60, 0
1, 30460, Note_on_c, 0, 67, 0
1, 30606, Note_on_c, 0, 76, 54
1, 30606, Note_on_c, 0, 71, 47
1, 30606, Note_on_c, 0, 67, 48
1, 30609, Note_on_c, 0, 64, 41
1, 30654, Note_on_c, 0, 71, 0
1, 30654, Note_on_c, 0, 76, 0
1, 30654, Note_on_c, 0, 64, 0
1, 30657, Note_on_c, 0, 67, 0
1, 30799, Note_on_c, 0, 76, 49
1, 30799, Note_on_c, 0, 71, 42
1, 30799, Note_on_c, 0, 67, 43
1, 30802, Note_on_c, 0, 64, 37
1, 30847, Note_on_c, 0, 71, 0
1, 30847, Note_on_c, 0, 76, 0
1, 30847, Note_on_c, 0, 64, 0
1, 30850, Note_on_c, 0, 67, 0
1, 30991, Note_on_c, 0, 67, 54
1, 30991, Control_c, 0, 64, 127
1, 31085, Note_on_c, 0, 67, 0
1, 31085, Note_on_c, 0, 69, 48
1, 31179, Note_on_c, 0, 69, 0
1, 31179, Note_on_c, 0, 71, 54
1, 31179, Note_on_c, 0, 64, 41
1, 31182, Note_on_c, 0, 67, 48
1, 31182, Control_c, 0, 64, 0
1, 31219, Control_c, 0, 64, 127
1, 31224, Note_on_c, 0, 67, 0
1, 31224, Note_on_c, 0, 64, 0
1, 31269, Note_on_c, 0, 71, 0
1, 31269, Note_on_c, 0, 72, 49
1, 31359, Note_on_c, 0, 72, 0
1, 31359, Note_on_c, 0, 71, 54
1, 31359, Note_on_c, 0, 64, 38
1, 31362, Note_on_c, 0, 67, 44
1, 31404, Note_on_c, 0, 67, 0
1, 31404, Note_on_c, 0, 64, 0
1, 31449, Note_on_c, 0, 71, 0
1, 31449, Note_on_c, 0, 78, 60
1, 31540, Note_on_c, 0, 78, 0
1, 31540, Note_on_c, 0, 76, 58
1, 31540, Note_on_c, 0, 64, 40
1, 31543, Note_on_c, 0, 69, 46
1, 31549, Control_c, 0, 64, 0
1, 31585, Note_on_c, 0, 69, 0
1, 31585, Note_on_c, 0, 64, 0
1, 31592, Control_c, 0, 64, 127
1, 31630, Note_on_c, 0, 76, 0
1, 31630, Note_on_c, 0, 74, 54
1, 31720, Note_on_c, 0, 74, 0
1, 31720, Note_on_c, 0, 71, 53
1, 31720, Note_on_c, 0, 67, 48
1, 31723, Note_on_c, 0, 64, 41
1, 31723, Control_c, 0, 64, 0
1, 31791, Control_c, 0, 64, 127
1, 31813, Note_on_c, 0, 71, 0
1, 31813, Note_on_c, 0, 76, 55
1, 31905, Note_on_c, 0, 76, 0
1, 31905, Note_on_c, 0, 79, 58
1, 31905, Note_on_c, 0, 64, 0
1, 31908, Note_on_c, 0, 67, 0
1, 31996, Note_on_c, 0, 79, 0
1, 31996, Note_on_c, 0, 82, 60
1, 32085, Note_on_c, 0, 82, 0
1, 32085, Note_on_c, 0, 83, 64
1, 32174, Note_on_c, 0, 83, 0
1, 32205, Control_c, 0, 64, 0
1, 32281, Note_on_c, 0, 74, 47
1, 32281, Note_on_c, 0, 78, 47
1, 32281, Note_on_c, 0, 83, 54
1, 32284, Note_on_c, 0, 71, 54
1, 32328, Note_on_c, 0, 83, 0
1, 32328, Note_on_c, 0, 78, 0
1, 32328, Note_on_c, 0, 74, 0
1, 32331, Note_on_c, 0, 71, 0
1, 32470, Note_on_c, 0, 78, 43
1, 32470, Note_on_c, 0, 74, 43
1, 32470, Note_on_c, 0, 83, 50
1, 32473, Note_on_c, 0, 71, 48
1, 32517, Note_on_c, 0, 83, 0
1, 32517, Note_on_c, 0, 74, 0
1, 32517, Note_on_c, 0, 78, 0
1, 32520, Note_on_c, 0, 71, 0
1, 32659, Note_on_c, 0, 79, 43
1, 32659, Note_on_c, 0, 74, 43
1, 32659, Note_on_c, 0, 83, 50
1, 32662, Note_on_c, 0, 67, 42
1, 32709, Note_on_c, 0, 83, 0
1, 32709, Note_on_c, 0, 74, 0
1, 32709, Note_on_c, 0, 79, 0
1, 32712, Note_on_c, 0, 67, 0
1, 32858, Note_on_c, 0, 74, 47
1, 32858, Note_on_c, 0, 78, 47
1, 32858, Note_on_c, 0, 83, 54
1, 32861, Note_on_c, 0, 71, 48
1, 32906, Note_on_c, 0, 83, 0
1, 32906, Note_on_c, 0, 78, 0
1, 32906, Note_on_c, 0, 74, 0
1, 32909, Note_on_c, 0, 71, 0
1, 33050, Note_on_c, 0, 74, 42
1, 33050, Note_on_c, 0, 83, 49
1, 33050, Note_on_c, 0, 78, 42
1, 33053, Note_on_c, 0, 71, 43
1, 33098, Note_on_c, 0, 78, 0
1, 33098, Note_on_c, 0, 83, 0
1, 33098, Note_on_c, 0, 74, 0
1, 33101, Note_on_c, 0, 71, 0
1, 33243, Note_on_c, 0, 71, 54
1, 33243, Control_c, 0, 64, 127
1, 33337, Note_on_c, 0, 71, 0
1, 33337, Note_on_c, 0, 73, 48
1, 33430, Note_on_c, 0, 73, 0
1, 33430, Note_on_c, 0, 74, 54
1, 33430, Note_on_c, 0, 66, 48
1, 33434, Control_c, 0, 64, 0
1, 33470, Control_c, 0, 64, 127
1, 33476, Note_on_c, 0, 66, 0
1, 33521, Note_on_c, 0, 74, 0
1, 33521, Note_on_c, 0, 78, 49
1, 33612, Note_on_c, 0, 78, 0
1, 33612, Note_on_c, 0, 71, 54
1, 33612, Note_on_c, 0, 74, 54
1, 33615, Note_on_c, 0, 62, 44
1, 33658, Note_on_c, 0, 62, 0
1, 33703, Note_on_c, 0, 74, 0
1, 33703, Note_on_c, 0, 71, 0
1, 33703, Note_on_c, 0, 78, 60
1, 33706, Note_on_c, 0, 64, 53
1, 33754, Note_on_c, 0, 64, 0
1, 33804, Note_on_c, 0, 78, 0
1, 33804, Note_on_c, 0, 73, 82
1, 33804, Note_on_c, 0, 70, 70
1, 33807, Note_on_c, 0, 66, 73
1, 33814, Control_c, 0, 64, 0
1, 33850, Note_on_c, 0, 66, 0
1, 33857, Control_c, 0, 64, 127
1, 33895, Note_on_c, 0, 73, 0
1, 33895, Note_on_c, 0, 78, 78
1, 33987, Note_on_c, 0, 78, 0
1, 33987, Note_on_c, 0, 70, 0
1, 33987, Note_on_c, 0, 75, 80
1, 33990, Note_on_c, 0, 71, 68
1, 33990, Note_on_c, 0, 66, 85
1, 33990, Control_c, 0, 64, 0
1, 34056, Control_c, 0, 64, 127
1, 34078, Note_on_c, 0, 71, 0
1, 34078, Note_on_c, 0, 75, 0
1, 34078, Note_on_c, 0, 78, 74
1, 34169, Note_on_c, 0, 78, 0
1, 34169, Note_on_c, 0, 75, 82
1, 34169, Note_on_c, 0, 71, 70
1, 34258, Note_on_c, 0, 71, 0
1, 34258, Note_on_c, 0, 75, 0
1, 34258, Note_on_c, 0, 78, 77
1, 34347, Note_on_c, 0, 78, 0
1, 34347, Note_on_c, 0, 75, 83
1, 34347, Note_on_c, 0, 71, 71
1, 34350, Note_on_c, 0, 66, 0
1, 34350, Note_on_c, 0, 59, 78
1, 34435, Note_on_c, 0, 71, 0
1, 34435, Note_on_c, 0, 75, 0
1, 34435, Note_on_c, 0, 78, 74
1, 34556, Note_on_c, 0, 78, 0
1, 34556, Note_on_c, 0, 71, 47
1, 34556, Note_on_c, 0, 76, 54
1, 34559, Note_on_c, 0, 59, 0
1, 34559, Note_on_c, 0, 64, 47
1, 34559, Note_on_c, 0, 67, 54
1, 34562, Control_c, 0, 64, 0
1, 34604, Note_on_c, 0, 76, 0
1, 34604, Note_on_c, 0, 71, 0
1, 34604, Note_on_c, 0, 67, 0
1, 34607, Note_on_c, 0, 64, 0
1, 34745, Note_on_c, 0, 71, 43
1, 34745, Note_on_c, 0, 76, 50
1, 34745, Note_on_c, 0, 64, 41
1, 34748, Note_on_c, 0, 67, 48
1, 34793, Note_on_c, 0, 76, 0
1, 34793, Note_on_c, 0, 71, 0
1, 34793, Note_on_c, 0, 67, 0
1, 34796, Note_on_c, 0, 64, 0
1, 34935, Note_on_c, 0, 76, 50
1, 34935, Note_on_c, 0, 72, 43
1, 34935, Note_on_c, 0, 60, 36
1, 34938, Note_on_c, 0, 67, 42
1, 34984, Note_on_c, 0, 72, 0
1, 34984, Note_on_c, 0, 76, 0
1, 34984, Note_on_c, 0, 67, 0
1, 34987, Note_on_c, 0, 60, 0
1, 35133, Note_on_c, 0, 71, 47
1, 35133, Note_on_c, 0, 76, 54
1, 35133, Note_on_c, 0, 64, 41
1, 35136, Note_on_c, 0, 67, 48
1, 35181, Note_on_c, 0, 76, 0
1, 35181, Note_on_c, 0, 71, 0
1, 35181, Note_on_c, 0, 67, 0
1, 35184, Note_on_c, 0, 64, 0
1, 35326, Note_on_c, 0, 76, 49
1, 35326, Note_on_c, 0, 71, 42
1, 35326, Note_on_c, 0, 67, 43
1, 35329, Note_on_c, 0, 64, 37
1, 35375, Note_on_c, 0, 71, 0
1, 35375, Note_on_c, 0, 76, 0
1, 35375, Note_on_c, 0, 64, 0
1, 35378, Note_on_c, 0, 67, 0
1, 35521, Note_on_c, 0, 67, 54
1, 35521, Control_c, 0, 64, 127
1, 35615, Note_on_c, 0, 67, 0
1, 35615, Note_on_c, 0, 69, 48
1, 35709, Note_on_c, 0, 69, 0
1, 35709, Note_on_c, 0, 71, 54
1, 35709, Note_on_c, 0, 64, 41
1, 35712, Note_on_c, 0, 67, 48
1, 35712, Control_c, 0, 64, 0
1, 35748, Control_c, 0, 64, 127
1, 35754, Note_on_c, 0, 67, 0
1, 35754, Note_on_c, 0, 64, 0
1, 35798, Note_on_c, 0, 71, 0
1, 35798, Note_on_c, 0, 72, 49
1, 35888, Note_on_c, 0, 72, 0
1, 35888, Note_on_c, 0, 71, 54
1, 35888, Note_on_c, 0, 64, 38
1, 35891, Note_on_c, 0, 67, 44
1, 35933, Note_on_c, 0, 67, 0
1, 35933, Note_on_c, 0, 64, 0
1, 35978, Note_on_c, 0, 71, 0
1, 35978, Note_on_c, 0, 78, 60
1, 36068, Note_on_c, 0, 78, 0
1, 36068, Note_on_c, 0, 76, 58
1, 36068, Note_on_c, 0, 64, 40
1, 36071, Note_on_c, 0, 69, 46
1, 36077, Control_c, 0, 64, 0
1, 36113, Note_on_c, 0, 69, 0
1, 36113, Note_on_c, 0, 64, 0
1, 36120, Control_c, 0, 64, 127
1, 36158, Note_on_c, 0, 76, 0
1, 36158, Note_on_c, 0, 74, 54
1, 36248, Note_on_c, 0, 74, 0
1, 36248, Note_on_c, 0, 71, 53
1, 36248, Note_on_c, 0, 64, 41
1, 36251, Note_on_c, 0, 67, 48
1, 36251, Control_c, 0, 64, 0
1, 36319, Control_c, 0, 64, 127
1, 36341, Note_on_c, 0, 71, 0
1, 36341, Note_on_c, 0, 76, 55
1, 36433, Note_on_c, 0, 76, 0
1, 36433, Note_on_c, 0, 79, 58
1, 36433, Note_on_c, 0, 67, 0
1, 36436, Note_on_c, 0, 64, 0
1, 36524, Note_on_c, 0, 79, 0
1, 36524, Note_on_c, 0, 82, 60
1, 36613, Note_on_c, 0, 82, 0
1, 36613, Note_on_c, 0, 83, 64
1, 36702, Note_on_c, 0, 83, 0
1, 36732, Control_c, 0, 64, 0
1, 36808, Note_on_c, 0, 64, 43
1, 36808, Note_on_c, 0, 60, 37
1, 36879, Control_c, 0, 64, 127
1, 36901, Note_on_c, 0, 68, 49
1, 36993, Note_on_c, 0, 68, 0
1, 36993, Note_on_c, 0, 69, 52
1, 36993, Note_on_c, 0, 60, 0
1, 36996, Note_on_c, 0, 64, 0
1, 37084, Note_on_c, 0, 69, 0
1, 37084, Note_on_c, 0, 72, 54
1, 37173, Note_on_c, 0, 72, 0
1, 37173, Note_on_c, 0, 76, 58
1, 37262, Note_on_c, 0, 76, 0
1, 37292, Control_c, 0, 64, 0
1, 37366, Note_on_c, 0, 57, 37
1, 37366, Note_on_c, 0, 60, 43
1, 37440, Control_c, 0, 64, 127
1, 37463, Note_on_c, 0, 64, 49
1, 37559, Note_on_c, 0, 64, 0
1, 37559, Note_on_c, 0, 65, 52
1, 37559, Note_on_c, 0, 60, 0
1, 37562, Note_on_c, 0, 57, 0
1, 37653, Note_on_c, 0, 65, 0
1, 37653, Note_on_c, 0, 69, 54
1, 37746, Note_on_c, 0, 69, 0
1, 37746, Note_on_c, 0, 72, 58
1, 37839, Note_on_c, 0, 72, 0
1, 37876, Control_c, 0, 64, 0
1, 37966, Note_on_c, 0, 54, 35
1, 37966, Note_on_c, 0, 47, 31
1, 37966, Note_on_c, 0, 57, 41
1, 38050, Control_c, 0, 64, 127
1, 38076, Note_on_c, 0, 62, 47
1, 38186, Note_on_c, 0, 62, 0
1, 38186, Note_on_c, 0, 63, 49
1, 38186, Note_on_c, 0, 57, 0
1, 38189, Note_on_c, 0, 47, 0
1, 38189, Note_on_c, 0, 54, 0
1, 38294, Note_on_c, 0, 63, 0
1, 38294, Note_on_c, 0, 66, 52
1, 38400, Note_on_c, 0, 66, 0
1, 38400, Note_on_c, 0, 71, 54
1, 38508, Note_on_c, 0, 71, 0
1, 38570, Control_c, 0, 64, 0
1, 38727, Note_on_c, 0, 59, 42
1, 38727, Note_on_c, 0, 64, 49
1, 38727, Note_on_c, 0, 55, 42
1, 38730, Note_on_c, 0, 40, 36
1, 38730, Note_on_c, 0, 47, 36
1, 38730, Note_on_c, 0, 52, 42
1, 38774, Note_on_c, 0, 55, 0
1, 38774, Note_on_c, 0, 64, 0
1, 38774, Note_on_c, 0, 59, 0
1, 38777, Note_on_c, 0, 52, 0
1, 38777, Note_on_c, 0, 47, 0
1, 38777, Note_on_c, 0, 40, 0
1, 38916, Note_on_c, 0, 59, 38
1, 38916, Note_on_c, 0, 64, 46
1, 38916, Note_on_c, 0, 55, 38
1, 38919, Note_on_c, 0, 47, 32
1, 38919, Note_on_c, 0, 40, 32
1, 38919, Note_on_c, 0, 52, 37
1, 38963, Note_on_c, 0, 55, 0
1, 38963, Note_on_c, 0, 64, 0
1, 38963, Note_on_c, 0, 59, 0
1, 38966, Note_on_c, 0, 52, 0
1, 38966, Note_on_c, 0, 40, 0
1, 38966, Note_on_c, 0, 47, 0
1, 39105, Note_on_c, 0, 60, 38
1, 39105, Note_on_c, 0, 64, 46
1, 39105, Note_on_c, 0, 55, 38
1, 39108, Note_on_c, 0, 52, 32
1, 39108, Note_on_c, 0, 45, 28
1, 39108, Note_on_c, 0, 40, 28
1, 39155, Note_on_c, 0, 55, 0
1, 39155, Note_on_c, 0, 64, 0
1, 39155, Note_on_c, 0, 60, 0
1, 39158, Note_on_c, 0, 40, 0
1, 39158, Note_on_c, 0, 45, 0
1, 39158, Note_on_c, 0, 52, 0
1, 39304, Note_on_c, 0, 59, 42
1, 39304, Note_on_c, 0, 55, 42
1, 39304, Note_on_c, 0, 64, 49
1, 39307, Note_on_c, 0, 40, 36
1, 39307, Note_on_c, 0, 52, 42
1, 39307, Note_on_c, 0, 47, 36
1, 39351, Note_on_c, 0, 64, 0
1, 39351, Note_on_c, 0, 55, 0
1, 39351, Note_on_c, 0, 59, 0
1, 39354, Note_on_c, 0, 47, 0
1, 39354, Note_on_c, 0, 52, 0
1, 39354, Note_on_c, 0, 40, 0
1, 39493, Note_on_c, 0, 64, 46
1, 39493, Note_on_c, 0, 59, 38
1, 39493, Note_on_c, 0, 55, 38
1, 39496, Note_on_c, 0, 40, 32
1, 39496, Note_on_c, 0, 47, 32
1, 39496, Note_on_c, 0, 52, 37
1, 39540, Note_on_c, 0, 55, 0
1, 39540, Note_on_c, 0, 59, 0
1, 39540, Note_on_c, 0, 64, 0
1, 39543, Note_on_c, 0, 52, 0
1, 39543, Note_on_c, 0, 47, 0
1, 39543, Note_on_c, 0, 40, 0
1, 39682, Note_on_c, 0, 55, 38
1, 39682, Note_on_c, 0, 57, 38
1, 39682, Note_on_c, 0, 64, 46
1, 39685, Note_on_c, 0, 52, 32
1, 39685, Note_on_c, 0, 40, 28
1, 39685, Note_on_c, 0, 48, 28
1, 39732, Note_on_c, 0, 64, 0
1, 39732, Note_on_c, 0, 57, 0
1, 39732, Note_on_c, 0, 55, 0
1, 39735, Note_on_c, 0, 48, 0
1, 39735, Note_on_c, 0, 40, 0
1, 39735, Note_on_c, 0, 52, 0
1, 39881, Note_on_c, 0, 59, 42
1, 39881, Note_on_c, 0, 55, 42
1, 39881, Note_on_c, 0, 64, 49
1, 39884, Note_on_c, 0, 52, 42
1, 39884, Note_on_c, 0, 40, 36
1, 39884, Note_on_c, 0, 47, 36
1, 39928, Note_on_c, 0, 64, 0
1, 39928, Note_on_c, 0, 55, 0
1, 39928, Note_on_c, 0, 59, 0
1, 39931, Note_on_c, 0, 47, 0
1, 39931, Note_on_c, 0, 40, 0
1, 39931, Note_on_c, 0, 52, 0
1, 39939, Control_c, 0, 64, 127
1, 40034, Control_c, 0, 64, 0
1, 40353, Note_on_c, 0, 71, 36
1, 40382, Control_c, 0, 64, 127
1, 40415, Note_on_c, 0, 71, 0
1, 40415, Note_on_c, 0, 75, 36
1, 40482, Note_on_c, 0, 75, 0
1, 40482, Note_on_c, 0, 76, 49
1, 40482, Note_on_c, 0, 67, 42
1, 40485, Note_on_c, 0, 52, 36
1, 40485, Note_on_c, 0, 59, 42
1, 40485, Control_c, 0, 64, 0
1, 40516, Control_c, 0, 64, 127
1, 40533, Note_on_c, 0, 67, 0
1, 40533, Note_on_c, 0, 76, 0
1, 40533, Note_on_c, 0, 59, 0
1, 40536, Note_on_c, 0, 52, 0
1, 40632, Control_c, 0, 64, 0
1, 40991, Note_on_c, 0, 83, 36
1, 41007, Control_c, 0, 64, 127
1, 41056, Note_on_c, 0, 83, 0
1, 41056, Note_on_c, 0, 87, 36
1, 41128, Note_on_c, 0, 87, 0
1, 41128, Note_on_c, 0, 88, 49
1, 41128, Note_on_c, 0, 79, 42
1, 41131, Note_on_c, 0, 71, 42
1, 41131, Note_on_c, 0, 64, 36
1, 41131, Control_c, 0, 64, 0
1, 41178, Control_c, 0, 64, 127
1, 41199, Note_on_c, 0, 79, 0
1, 41199, Note_on_c, 0, 88, 0
1, 41199, Note_on_c, 0, 64, 0
1, 41202, Note_on_c, 0, 71, 0
1, 41337, Control_c, 0, 64, 0
1, 42835, End_track
0, 0, End_of_file
