0, 0, Header, 1, 2, 480
1, 0, Start_track
1, 0, Title_t, "untitled"
1, 0, Time_signature, 4, 2, 24, 8
1, 0, Key_signature, 0, "major"
1, 0, Tempo, 500000
1, 0, Marker_t, "Morning"
1, 199680, Tempo, 500000
1, 199680, Marker_t, "Aase's Death"
1, 370560, Tempo, 500000
1, 370560, Marker_t, "Anitra's Dance"
1, 495360, Tempo, 500000
1, 495360, Marker_t, "In the Hall of the Mountain King"
1, 495360, End_track
2, 0, Start_track
2, 0, Title_t, "Grieg: Peer Gynt Suite no. 1"
2, 0, Control_c, 0, 7, 105
2, 0, Control_c, 0, 91, 127
2, 0, Control_c, 0, 64, 127
2, 0, Note_on_c, 0, 52, 28
2, 52, Note_on_c, 0, 59, 29
2, 138, Note_on_c, 0, 52, 0
2, 268, Note_on_c, 0, 83, 85
2, 282, Note_on_c, 0, 68, 44
2, 646, Note_on_c, 0, 80, 62
2, 718, Note_on_c, 0, 83, 0
2, 1006, Note_on_c, 0, 78, 64
2, 1058, Note_on_c, 0, 80, 0
2, 1350, Note_on_c, 0, 76, 44
2, 1364, Note_on_c, 0, 78, 0
2, 1558, Note_on_c, 0, 68, 0
2, 1564, Note_on_c, 0, 59, 0
2, 1718, Note_on_c, 0, 78, 52
2, 1812, Note_on_c, 0, 76, 0
2, 2110, Note_on_c, 0, 80, 40
2, 2130, Note_on_c, 0, 78, 0
2, 2192, Note_on_c, 0, 52, 46
2, 2206, Control_c, 0, 64, 0
2, 2318, Note_on_c, 0, 59, 39
2, 2344, Control_c, 0, 64, 127
2, 2356, Note_on_c, 0, 52, 0
2, 2496, Note_on_c, 0, 83, 93
2, 2512, Note_on_c, 0, 80, 0
2, 2558, Note_on_c, 0, 68, 38
2, 2784, Note_on_c, 0, 80, 72
2, 2810, Note_on_c, 0, 83, 0
2, 2830, Note_on_c, 0, 80, 0
2, 2846, Note_on_c, 0, 81, 72
2, 2880, Note_on_c, 0, 80, 88
2, 2918, Note_on_c, 0, 81, 0
2, 3200, Note_on_c, 0, 78, 75
2, 3282, Note_on_c, 0, 80, 0
2, 3570, Note_on_c, 0, 76, 62
2, 3594, Note_on_c, 0, 78, 0
2, 3940, Note_on_c, 0, 78, 48
2, 3982, Note_on_c, 0, 68, 0
2, 3988, Note_on_c, 0, 76, 0
2, 4004, Note_on_c, 0, 59, 0
2, 4122, Note_on_c, 0, 78, 0
2, 4138, Note_on_c, 0, 80, 41
2, 4220, Note_on_c, 0, 80, 0
2, 4282, Note_on_c, 0, 78, 64
2, 4418, Control_c, 0, 64, 0
2, 4432, Note_on_c, 0, 80, 60
2, 4442, Note_on_c, 0, 52, 44
2, 4464, Note_on_c, 0, 78, 0
2, 4526, Control_c, 0, 64, 127
2, 4558, Note_on_c, 0, 80, 0
2, 4582, Note_on_c, 0, 59, 29
2, 4590, Note_on_c, 0, 52, 0
2, 4628, Note_on_c, 0, 80, 61
2, 4688, Note_on_c, 0, 81, 67
2, 4691, Note_on_c, 0, 80, 0
2, 4738, Note_on_c, 0, 59, 0
2, 4748, Note_on_c, 0, 81, 0
2, 4768, Note_on_c, 0, 83, 100
2, 4772, Note_on_c, 0, 68, 41
2, 5046, Note_on_c, 0, 68, 0
2, 5110, Note_on_c, 0, 80, 88
2, 5128, Note_on_c, 0, 83, 0
2, 5432, Note_on_c, 0, 83, 116
2, 5474, Note_on_c, 0, 80, 0
2, 5586, Note_on_c, 0, 49, 28
2, 5632, Note_on_c, 0, 56, 31
2, 5752, Note_on_c, 0, 85, 84
2, 5766, Note_on_c, 0, 73, 47
2, 5788, Note_on_c, 0, 64, 53
2, 5822, Note_on_c, 0, 83, 0
2, 5864, Control_c, 0, 64, 0
2, 6078, Control_c, 0, 64, 127
2, 6108, Note_on_c, 0, 80, 71
2, 6142, Note_on_c, 0, 85, 0
2, 6178, Note_on_c, 0, 49, 0
2, 6244, Note_on_c, 0, 56, 0
2, 6294, Note_on_c, 0, 64, 0
2, 6392, Note_on_c, 0, 80, 0
2, 6480, Note_on_c, 0, 85, 63
2, 6514, Note_on_c, 0, 52, 46
2, 6538, Control_c, 0, 64, 0
2, 6668, Note_on_c, 0, 59, 34
2, 6694, Control_c, 0, 64, 127
2, 6708, Note_on_c, 0, 52, 0
2, 6730, Note_on_c, 0, 85, 0
2, 6736, Note_on_c, 0, 73, 0
2, 6848, Note_on_c, 0, 59, 0
2, 6868, Note_on_c, 0, 83, 82
2, 6876, Note_on_c, 0, 71, 45
2, 6956, Note_on_c, 0, 68, 21
2, 7296, Note_on_c, 0, 80, 47
2, 7350, Note_on_c, 0, 83, 0
2, 7620, Note_on_c, 0, 78, 49
2, 7688, Note_on_c, 0, 80, 0
2, 7958, Note_on_c, 0, 78, 0
2, 7990, Note_on_c, 0, 76, 31
2, 7993, Note_on_c, 0, 59, 45
2, 8138, Control_c, 0, 64, 0
2, 8276, Control_c, 0, 64, 127
2, 8320, Note_on_c, 0, 68, 0
2, 8436, Note_on_c, 0, 56, 44
2, 8478, Note_on_c, 0, 71, 0
2, 8502, Note_on_c, 0, 59, 0
2, 8522, Note_on_c, 0, 76, 0
2, 8708, Note_on_c, 0, 56, 0
2, 8792, Note_on_c, 0, 54, 55
2, 8854, Note_on_c, 0, 54, 0
2, 9156, Note_on_c, 0, 40, 51
2, 9164, Note_on_c, 0, 47, 28
2, 9182, Control_c, 0, 64, 0
2, 9194, Note_on_c, 0, 52, 53
2, 9200, Note_on_c, 0, 56, 51
2, 9294, Note_on_c, 0, 64, 33
2, 9332, Note_on_c, 0, 56, 0
2, 9336, Control_c, 0, 64, 127
2, 9466, Note_on_c, 0, 71, 74
2, 9488, Note_on_c, 0, 64, 0
2, 9888, Note_on_c, 0, 68, 64
2, 9910, Note_on_c, 0, 71, 0
2, 10222, Note_on_c, 0, 66, 49
2, 10240, Note_on_c, 0, 68, 0
2, 10394, Note_on_c, 0, 66, 0
2, 10552, Note_on_c, 0, 64, 61
2, 10924, Note_on_c, 0, 64, 0
2, 10928, Note_on_c, 0, 66, 38
2, 11052, Note_on_c, 0, 47, 0
2, 11060, Note_on_c, 0, 40, 0
2, 11254, Note_on_c, 0, 66, 0
2, 11274, Note_on_c, 0, 52, 0
2, 11314, Note_on_c, 0, 68, 38
2, 11432, Note_on_c, 0, 40, 53
2, 11440, Control_c, 0, 64, 0
2, 11474, Note_on_c, 0, 47, 34
2, 11508, Note_on_c, 0, 56, 39
2, 11542, Note_on_c, 0, 52, 46
2, 11564, Control_c, 0, 64, 127
2, 11606, Note_on_c, 0, 56, 0
2, 11622, Note_on_c, 0, 64, 46
2, 11720, Note_on_c, 0, 71, 85
2, 11740, Note_on_c, 0, 68, 0
2, 11744, Note_on_c, 0, 64, 0
2, 11888, Note_on_c, 0, 71, 0
2, 11956, Note_on_c, 0, 68, 48
2, 12016, Note_on_c, 0, 69, 64
2, 12019, Note_on_c, 0, 68, 0
2, 12080, Note_on_c, 0, 68, 78
2, 12088, Note_on_c, 0, 69, 0
2, 12414, Note_on_c, 0, 66, 68
2, 12570, Note_on_c, 0, 68, 0
2, 12792, Note_on_c, 0, 64, 64
2, 12838, Note_on_c, 0, 66, 0
2, 13144, Note_on_c, 0, 66, 45
2, 13224, Note_on_c, 0, 64, 0
2, 13314, Note_on_c, 0, 68, 49
2, 13322, Note_on_c, 0, 47, 0
2, 13330, Note_on_c, 0, 66, 0
2, 13333, Note_on_c, 0, 40, 0
2, 13382, Note_on_c, 0, 52, 0
2, 13464, Note_on_c, 0, 68, 0
2, 13476, Note_on_c, 0, 66, 52
2, 13600, Note_on_c, 0, 68, 70
2, 13636, Note_on_c, 0, 66, 0
2, 13638, Control_c, 0, 64, 0
2, 13640, Note_on_c, 0, 40, 68
2, 13664, Note_on_c, 0, 68, 0
2, 13736, Note_on_c, 0, 47, 44
2, 13742, Note_on_c, 0, 68, 54
2, 13746, Control_c, 0, 64, 127
2, 13770, Note_on_c, 0, 40, 0
2, 13788, Note_on_c, 0, 69, 70
2, 13826, Note_on_c, 0, 68, 0
2, 13894, Note_on_c, 0, 69, 0
2, 13896, Note_on_c, 0, 71, 93
2, 13908, Note_on_c, 0, 56, 55
2, 13920, Note_on_c, 0, 64, 61
2, 14254, Note_on_c, 0, 47, 0
2, 14254, Note_on_c, 0, 68, 90
2, 14292, Note_on_c, 0, 71, 0
2, 14562, Note_on_c, 0, 56, 0
2, 14588, Note_on_c, 0, 71, 105
2, 14682, Note_on_c, 0, 68, 0
2, 14710, Note_on_c, 0, 64, 0
2, 14926, Note_on_c, 0, 73, 87
2, 14929, Note_on_c, 0, 61, 48
2, 14944, Note_on_c, 0, 64, 59
2, 14952, Note_on_c, 0, 49, 37
2, 14962, Note_on_c, 0, 56, 34
2, 14990, Note_on_c, 0, 71, 0
2, 15006, Control_c, 0, 64, 0
2, 15236, Control_c, 0, 64, 127
2, 15260, Note_on_c, 0, 68, 83
2, 15308, Note_on_c, 0, 61, 0
2, 15348, Note_on_c, 0, 73, 0
2, 15352, Note_on_c, 0, 56, 0
2, 15406, Note_on_c, 0, 64, 0
2, 15410, Note_on_c, 0, 49, 0
2, 15618, Note_on_c, 0, 73, 64
2, 15632, Note_on_c, 0, 68, 0
2, 15696, Note_on_c, 0, 44, 42
2, 15758, Control_c, 0, 64, 0
2, 15840, Note_on_c, 0, 51, 34
2, 15972, Control_c, 0, 64, 127
2, 15982, Note_on_c, 0, 44, 0
2, 15998, Note_on_c, 0, 73, 0
2, 16030, Note_on_c, 0, 75, 53
2, 16038, Note_on_c, 0, 63, 57
2, 16084, Note_on_c, 0, 60, 41
2, 16446, Note_on_c, 0, 72, 49
2, 16588, Control_c, 0, 64, 0
2, 16696, Control_c, 0, 64, 127
2, 16704, Note_on_c, 0, 75, 0
2, 16786, Note_on_c, 0, 70, 38
2, 16844, Note_on_c, 0, 72, 0
2, 16912, Note_on_c, 0, 60, 0
2, 17004, Note_on_c, 0, 63, 0
2, 17106, Note_on_c, 0, 63, 46
2, 17132, Note_on_c, 0, 68, 39
2, 17194, Note_on_c, 0, 70, 0
2, 17310, Control_c, 0, 64, 0
2, 17418, Control_c, 0, 64, 127
2, 17484, Note_on_c, 0, 60, 44
2, 17536, Note_on_c, 0, 63, 0
2, 17638, Note_on_c, 0, 51, 0
2, 17686, Note_on_c, 0, 68, 0
2, 17802, Note_on_c, 0, 60, 0
2, 17856, Note_on_c, 0, 58, 37
2, 18002, Note_on_c, 0, 58, 0
2, 18204, Note_on_c, 0, 56, 39
2, 18294, Control_c, 0, 64, 0
2, 18328, Note_on_c, 0, 87, 44
2, 18336, Note_on_c, 0, 63, 42
2, 18432, Control_c, 0, 64, 127
2, 18434, Note_on_c, 0, 56, 0
2, 18570, Note_on_c, 0, 72, 26
2, 18646, Note_on_c, 0, 84, 55
2, 18798, Note_on_c, 0, 87, 0
2, 19000, Note_on_c, 0, 82, 60
2, 19056, Note_on_c, 0, 84, 0
2, 19344, Note_on_c, 0, 80, 70
2, 19388, Note_on_c, 0, 82, 0
2, 19596, Note_on_c, 0, 72, 0
2, 19718, Note_on_c, 0, 82, 53
2, 19770, Note_on_c, 0, 63, 0
2, 19784, Note_on_c, 0, 80, 0
2, 20082, Note_on_c, 0, 82, 0
2, 20084, Note_on_c, 0, 84, 57
2, 20200, Control_c, 0, 64, 0
2, 20216, Note_on_c, 0, 56, 28
2, 20322, Control_c, 0, 64, 127
2, 20342, Note_on_c, 0, 63, 31
2, 20380, Note_on_c, 0, 56, 0
2, 20456, Note_on_c, 0, 84, 0
2, 20464, Note_on_c, 0, 87, 53
2, 20538, Note_on_c, 0, 72, 40
2, 20680, Note_on_c, 0, 87, 0
2, 20730, Note_on_c, 0, 84, 49
2, 20776, Note_on_c, 0, 85, 78
2, 20882, Note_on_c, 0, 85, 0
2, 21146, Note_on_c, 0, 82, 72
2, 21186, Note_on_c, 0, 84, 0
2, 21494, Note_on_c, 0, 80, 72
2, 21506, Note_on_c, 0, 82, 0
2, 21782, Note_on_c, 0, 72, 0
2, 21830, Note_on_c, 0, 82, 62
2, 21854, Note_on_c, 0, 80, 0
2, 21910, Note_on_c, 0, 63, 0
2, 21996, Note_on_c, 0, 82, 0
2, 21998, Note_on_c, 0, 84, 79
2, 22128, Note_on_c, 0, 82, 67
2, 22131, Note_on_c, 0, 84, 0
2, 22232, Note_on_c, 0, 84, 84
2, 22254, Note_on_c, 0, 82, 0
2, 22278, Note_on_c, 0, 84, 0
2, 22346, Note_on_c, 0, 56, 44
2, 22350, Note_on_c, 0, 84, 87
2, 22380, Control_c, 0, 64, 0
2, 22430, Note_on_c, 0, 63, 45
2, 22438, Note_on_c, 0, 56, 0
2, 22438, Note_on_c, 0, 85, 84
2, 22474, Note_on_c, 0, 84, 0
2, 22488, Note_on_c, 0, 63, 0
2, 22488, Control_c, 0, 64, 127
2, 22540, Note_on_c, 0, 87, 88
2, 22572, Note_on_c, 0, 85, 0
2, 22575, Note_on_c, 0, 72, 40
2, 22850, Note_on_c, 0, 72, 0
2, 22892, Note_on_c, 0, 84, 101
2, 22896, Note_on_c, 0, 87, 0
2, 23200, Note_on_c, 0, 87, 84
2, 23300, Note_on_c, 0, 84, 0
2, 23536, Note_on_c, 0, 89, 85
2, 23544, Note_on_c, 0, 68, 49
2, 23546, Note_on_c, 0, 77, 36
2, 23570, Note_on_c, 0, 53, 52
2, 23572, Note_on_c, 0, 87, 0
2, 23586, Note_on_c, 0, 60, 42
2, 23626, Control_c, 0, 64, 0
2, 23794, Control_c, 0, 64, 127
2, 23880, Note_on_c, 0, 53, 0
2, 23898, Note_on_c, 0, 84, 93
2, 23930, Note_on_c, 0, 60, 0
2, 23958, Note_on_c, 0, 89, 0
2, 24056, Note_on_c, 0, 68, 0
2, 24180, Note_on_c, 0, 84, 0
2, 24260, Note_on_c, 0, 89, 71
2, 24286, Control_c, 0, 64, 0
2, 24296, Note_on_c, 0, 56, 46
2, 24336, Note_on_c, 0, 77, 0
2, 24424, Note_on_c, 0, 63, 47
2, 24440, Control_c, 0, 64, 127
2, 24443, Note_on_c, 0, 89, 0
2, 24466, Note_on_c, 0, 56, 0
2, 24538, Note_on_c, 0, 63, 0
2, 24606, Note_on_c, 0, 87, 63
2, 24632, Note_on_c, 0, 75, 31
2, 24666, Note_on_c, 0, 72, 36
2, 25002, Note_on_c, 0, 84, 63
2, 25104, Note_on_c, 0, 87, 0
2, 25266, Note_on_c, 0, 72, 0
2, 25358, Note_on_c, 0, 82, 34
2, 25408, Note_on_c, 0, 84, 0
2, 25698, Note_on_c, 0, 82, 0
2, 25730, Note_on_c, 0, 80, 34
2, 25736, Note_on_c, 0, 63, 42
2, 25954, Note_on_c, 0, 75, 0
2, 26086, Note_on_c, 0, 80, 0
2, 26116, Note_on_c, 0, 60, 42
2, 26150, Note_on_c, 0, 63, 0
2, 26438, Note_on_c, 0, 60, 0
2, 26540, Note_on_c, 0, 58, 33
2, 26604, Note_on_c, 0, 58, 0
2, 26860, Note_on_c, 0, 44, 51
2, 26928, Control_c, 0, 64, 0
2, 26970, Note_on_c, 0, 51, 45
2, 27082, Control_c, 0, 64, 127
2, 27096, Note_on_c, 0, 60, 56
2, 27124, Note_on_c, 0, 56, 39
2, 27232, Note_on_c, 0, 60, 0
2, 27240, Note_on_c, 0, 68, 54
2, 27450, Note_on_c, 0, 75, 62
2, 27544, Note_on_c, 0, 68, 0
2, 27880, Note_on_c, 0, 72, 62
2, 27920, Note_on_c, 0, 75, 0
2, 28248, Note_on_c, 0, 70, 54
2, 28268, Note_on_c, 0, 72, 0
2, 28598, Note_on_c, 0, 68, 70
2, 28628, Note_on_c, 0, 70, 0
2, 28896, Note_on_c, 0, 44, 0
2, 28900, Note_on_c, 0, 70, 75
2, 28918, Note_on_c, 0, 56, 0
2, 28936, Note_on_c, 0, 51, 0
2, 28990, Note_on_c, 0, 68, 0
2, 29196, Note_on_c, 0, 70, 0
2, 29226, Note_on_c, 0, 44, 41
2, 29248, Note_on_c, 0, 72, 74
2, 29306, Note_on_c, 0, 51, 45
2, 29326, Control_c, 0, 64, 0
2, 29396, Note_on_c, 0, 56, 49
2, 29430, Note_on_c, 0, 60, 48
2, 29480, Control_c, 0, 64, 127
2, 29534, Note_on_c, 0, 60, 0
2, 29544, Note_on_c, 0, 68, 54
2, 29718, Note_on_c, 0, 72, 0
2, 29732, Note_on_c, 0, 75, 74
2, 29772, Note_on_c, 0, 68, 0
2, 29984, Note_on_c, 0, 75, 0
2, 30020, Note_on_c, 0, 72, 44
2, 30060, Note_on_c, 0, 73, 78
2, 30086, Note_on_c, 0, 72, 0
2, 30136, Note_on_c, 0, 72, 75
2, 30184, Note_on_c, 0, 73, 0
2, 30464, Note_on_c, 0, 70, 75
2, 30536, Note_on_c, 0, 72, 0
2, 30858, Note_on_c, 0, 68, 65
2, 30894, Note_on_c, 0, 70, 0
2, 31186, Note_on_c, 0, 70, 72
2, 31272, Note_on_c, 0, 68, 0
2, 31362, Note_on_c, 0, 72, 76
2, 31394, Note_on_c, 0, 70, 0
2, 31424, Note_on_c, 0, 44, 0
2, 31450, Note_on_c, 0, 56, 0
2, 31456, Note_on_c, 0, 51, 0
2, 31516, Note_on_c, 0, 70, 65
2, 31530, Note_on_c, 0, 72, 0
2, 31634, Note_on_c, 0, 44, 60
2, 31682, Note_on_c, 0, 72, 86
2, 31692, Control_c, 0, 64, 0
2, 31708, Note_on_c, 0, 70, 0
2, 31726, Note_on_c, 0, 51, 55
2, 31772, Note_on_c, 0, 72, 0
2, 31784, Control_c, 0, 64, 127
2, 31832, Note_on_c, 0, 56, 47
2, 31832, Note_on_c, 0, 72, 92
2, 31844, Note_on_c, 0, 44, 0
2, 31891, Note_on_c, 0, 51, 0
2, 31896, Note_on_c, 0, 56, 0
2, 31928, Note_on_c, 0, 73, 87
2, 31956, Note_on_c, 0, 72, 0
2, 32036, Note_on_c, 0, 75, 90
2, 32042, Note_on_c, 0, 68, 70
2, 32060, Note_on_c, 0, 73, 0
2, 32060, Note_on_c, 0, 60, 67
2, 32436, Note_on_c, 0, 72, 97
2, 32456, Note_on_c, 0, 75, 0
2, 32776, Note_on_c, 0, 75, 94
2, 32780, Note_on_c, 0, 68, 0
2, 32824, Note_on_c, 0, 72, 0
2, 32854, Note_on_c, 0, 60, 0
2, 33108, Note_on_c, 0, 75, 0
2, 33112, Note_on_c, 0, 68, 69
2, 33120, Note_on_c, 0, 76, 91
2, 33134, Note_on_c, 0, 61, 46
2, 33152, Note_on_c, 0, 56, 41
2, 33170, Note_on_c, 0, 49, 28
2, 33228, Control_c, 0, 64, 0
2, 33428, Control_c, 0, 64, 127
2, 33466, Note_on_c, 0, 73, 85
2, 33512, Note_on_c, 0, 76, 0
2, 33572, Note_on_c, 0, 56, 0
2, 33596, Note_on_c, 0, 61, 0
2, 33620, Note_on_c, 0, 49, 0
2, 33696, Note_on_c, 0, 68, 0
2, 33812, Note_on_c, 0, 76, 75
2, 33820, Note_on_c, 0, 73, 0
2, 33874, Note_on_c, 0, 47, 46
2, 33920, Control_c, 0, 64, 0
2, 33980, Note_on_c, 0, 54, 52
2, 33996, Note_on_c, 0, 66, 44
2, 34090, Note_on_c, 0, 47, 0
2, 34090, Control_c, 0, 64, 127
2, 34104, Note_on_c, 0, 76, 0
2, 34107, Note_on_c, 0, 71, 42
2, 34238, Note_on_c, 0, 78, 67
2, 34258, Note_on_c, 0, 63, 49
2, 34676, Note_on_c, 0, 75, 49
2, 34772, Note_on_c, 0, 78, 0
2, 34822, Note_on_c, 0, 71, 0
2, 35046, Note_on_c, 0, 73, 42
2, 35066, Note_on_c, 0, 66, 0
2, 35198, Note_on_c, 0, 75, 0
2, 35198, Note_on_c, 0, 63, 0
2, 35384, Note_on_c, 0, 71, 55
2, 35396, Note_on_c, 0, 66, 32
2, 35452, Note_on_c, 0, 73, 0
2, 35472, Control_c, 0, 64, 0
2, 35596, Control_c, 0, 64, 127
2, 35732, Note_on_c, 0, 54, 0
2, 35760, Note_on_c, 0, 63, 47
2, 35844, Note_on_c, 0, 66, 0
2, 35866, Note_on_c, 0, 71, 0
2, 36004, Note_on_c, 0, 63, 0
2, 36102, Note_on_c, 0, 61, 48
2, 36206, Note_on_c, 0, 61, 0
2, 36362, Control_c, 0, 64, 0
2, 36366, Note_on_c, 0, 59, 48
2, 36510, Note_on_c, 0, 66, 52
2, 36548, Control_c, 0, 64, 127
2, 36576, Note_on_c, 0, 59, 0
2, 36686, Note_on_c, 0, 90, 76
2, 36718, Note_on_c, 0, 78, 38
2, 36746, Note_on_c, 0, 75, 64
2, 37082, Note_on_c, 0, 87, 76
2, 37190, Note_on_c, 0, 90, 0
2, 37430, Note_on_c, 0, 85, 76
2, 37472, Note_on_c, 0, 87, 0
2, 37816, Note_on_c, 0, 85, 0
2, 37826, Note_on_c, 0, 83, 97
2, 37960, Note_on_c, 0, 75, 0
2, 38120, Note_on_c, 0, 66, 0
2, 38176, Note_on_c, 0, 85, 72
2, 38248, Note_on_c, 0, 83, 0
2, 38360, Note_on_c, 0, 87, 72
2, 38382, Note_on_c, 0, 85, 0
2, 38552, Note_on_c, 0, 85, 72
2, 38580, Note_on_c, 0, 87, 0
2, 38638, Control_c, 0, 64, 0
2, 38656, Note_on_c, 0, 47, 44
2, 38740, Note_on_c, 0, 78, 0
2, 38752, Note_on_c, 0, 87, 55
2, 38774, Control_c, 0, 64, 127
2, 38776, Note_on_c, 0, 54, 45
2, 38779, Note_on_c, 0, 85, 0
2, 38800, Note_on_c, 0, 87, 0
2, 38808, Note_on_c, 0, 47, 0
2, 39060, Note_on_c, 0, 78, 64
2, 39074, Note_on_c, 0, 66, 38
2, 39118, Note_on_c, 0, 71, 22
2, 39122, Note_on_c, 0, 63, 26
2, 39272, Note_on_c, 0, 71, 0
2, 39468, Note_on_c, 0, 75, 55
2, 39552, Note_on_c, 0, 78, 0
2, 39648, Note_on_c, 0, 66, 0
2, 39788, Note_on_c, 0, 73, 64
2, 39840, Note_on_c, 0, 75, 0
2, 40130, Note_on_c, 0, 73, 0
2, 40156, Note_on_c, 0, 71, 70
2, 40396, Note_on_c, 0, 54, 0
2, 40482, Note_on_c, 0, 73, 68
2, 40492, Note_on_c, 0, 63, 0
2, 40538, Note_on_c, 0, 71, 0
2, 40636, Note_on_c, 0, 75, 78
2, 40654, Note_on_c, 0, 73, 0
2, 40782, Note_on_c, 0, 75, 0
2, 40786, Note_on_c, 0, 73, 82
2, 40892, Note_on_c, 0, 59, 40
2, 40892, Control_c, 0, 64, 0
2, 40936, Note_on_c, 0, 75, 87
2, 40976, Note_on_c, 0, 75, 0
2, 40980, Note_on_c, 0, 73, 0
2, 41004, Control_c, 0, 64, 127
2, 41046, Note_on_c, 0, 59, 0
2, 41060, Note_on_c, 0, 66, 31
2, 41196, Note_on_c, 0, 90, 91
2, 41214, Note_on_c, 0, 78, 55
2, 41240, Note_on_c, 0, 75, 75
2, 41574, Note_on_c, 0, 87, 77
2, 41598, Note_on_c, 0, 75, 0
2, 41656, Note_on_c, 0, 90, 0
2, 41668, Note_on_c, 0, 78, 0
2, 41680, Note_on_c, 0, 66, 0
2, 41844, Note_on_c, 0, 87, 0
2, 41964, Note_on_c, 0, 83, 90
2, 42006, Note_on_c, 0, 83, 0
2, 42134, Note_on_c, 0, 47, 34
2, 42194, Note_on_c, 0, 47, 0
2, 42216, Note_on_c, 0, 54, 47
2, 42266, Note_on_c, 0, 78, 83
2, 42280, Note_on_c, 0, 71, 51
2, 42288, Note_on_c, 0, 66, 46
2, 42328, Note_on_c, 0, 63, 71
2, 42596, Note_on_c, 0, 71, 0
2, 42632, Note_on_c, 0, 54, 0
2, 42635, Note_on_c, 0, 75, 78
2, 42686, Note_on_c, 0, 66, 0
2, 42774, Note_on_c, 0, 63, 0
2, 42802, Note_on_c, 0, 78, 0
2, 42990, Note_on_c, 0, 71, 76
2, 42996, Note_on_c, 0, 75, 0
2, 43038, Note_on_c, 0, 71, 0
2, 43142, Note_on_c, 0, 59, 87
2, 43184, Control_c, 0, 64, 0
2, 43250, Note_on_c, 0, 69, 48
2, 43272, Note_on_c, 0, 59, 0
2, 43292, Control_c, 0, 64, 127
2, 43374, Note_on_c, 0, 69, 0
2, 43414, Note_on_c, 0, 90, 101
2, 43428, Note_on_c, 0, 78, 82
2, 43454, Note_on_c, 0, 75, 102
2, 43524, Note_on_c, 0, 75, 0
2, 43792, Note_on_c, 0, 87, 85
2, 43812, Note_on_c, 0, 78, 0
2, 43882, Note_on_c, 0, 90, 0
2, 44128, Note_on_c, 0, 87, 0
2, 44170, Note_on_c, 0, 83, 121
2, 44208, Note_on_c, 0, 83, 0
2, 44292, Note_on_c, 0, 47, 82
2, 44342, Note_on_c, 0, 47, 0
2, 44526, Note_on_c, 0, 78, 109
2, 44540, Note_on_c, 0, 71, 83
2, 44540, Note_on_c, 0, 66, 68
2, 44546, Note_on_c, 0, 63, 94
2, 44556, Note_on_c, 0, 57, 78
2, 44848, Note_on_c, 0, 71, 0
2, 44950, Note_on_c, 0, 75, 95
2, 45136, Note_on_c, 0, 78, 0
2, 45168, Note_on_c, 0, 66, 0
2, 45190, Note_on_c, 0, 63, 0
2, 45220, Note_on_c, 0, 57, 0
2, 45322, Note_on_c, 0, 75, 0
2, 45372, Note_on_c, 0, 71, 101
2, 45428, Note_on_c, 0, 71, 0
2, 45572, Note_on_c, 0, 40, 108
2, 45652, Note_on_c, 0, 47, 72
2, 45652, Control_c, 0, 64, 0
2, 45798, Control_c, 0, 64, 127
2, 45810, Note_on_c, 0, 40, 0
2, 45858, Note_on_c, 0, 83, 127
2, 45868, Note_on_c, 0, 71, 102
2, 45876, Note_on_c, 0, 76, 68
2, 45920, Note_on_c, 0, 56, 94
2, 46168, Note_on_c, 0, 71, 0
2, 46198, Note_on_c, 0, 83, 0
2, 46330, Note_on_c, 0, 68, 84
2, 46333, Note_on_c, 0, 80, 100
2, 46400, Note_on_c, 0, 76, 0
2, 46512, Note_on_c, 0, 80, 0
2, 46572, Note_on_c, 0, 68, 0
2, 46710, Note_on_c, 0, 78, 98
2, 46720, Note_on_c, 0, 66, 78
2, 46840, Note_on_c, 0, 66, 0
2, 46856, Note_on_c, 0, 78, 0
2, 47038, Note_on_c, 0, 76, 105
2, 47046, Note_on_c, 0, 64, 92
2, 47174, Note_on_c, 0, 64, 0
2, 47266, Note_on_c, 0, 76, 0
2, 47380, Note_on_c, 0, 78, 105
2, 47383, Note_on_c, 0, 66, 79
2, 47496, Note_on_c, 0, 66, 0
2, 47554, Note_on_c, 0, 47, 0
2, 47574, Note_on_c, 0, 56, 0
2, 47594, Note_on_c, 0, 78, 0
2, 47710, Note_on_c, 0, 80, 110
2, 47732, Note_on_c, 0, 68, 57
2, 47850, Note_on_c, 0, 40, 90
2, 47856, Control_c, 0, 64, 0
2, 47932, Note_on_c, 0, 47, 74
2, 47946, Note_on_c, 0, 68, 0
2, 47980, Control_c, 0, 64, 127
2, 47984, Note_on_c, 0, 40, 0
2, 48014, Note_on_c, 0, 80, 0
2, 48104, Note_on_c, 0, 83, 127
2, 48122, Note_on_c, 0, 76, 63
2, 48125, Note_on_c, 0, 71, 98
2, 48172, Note_on_c, 0, 56, 68
2, 48276, Note_on_c, 0, 83, 0
2, 48286, Note_on_c, 0, 76, 0
2, 48308, Note_on_c, 0, 71, 0
2, 48386, Note_on_c, 0, 80, 79
2, 48450, Note_on_c, 0, 80, 0
2, 48474, Note_on_c, 0, 81, 53
2, 48510, Note_on_c, 0, 80, 110
2, 48512, Note_on_c, 0, 68, 95
2, 48564, Note_on_c, 0, 81, 0
2, 48776, Note_on_c, 0, 68, 0
2, 48788, Note_on_c, 0, 80, 0
2, 48874, Note_on_c, 0, 78, 103
2, 48877, Note_on_c, 0, 66, 76
2, 49074, Note_on_c, 0, 78, 0
2, 49076, Note_on_c, 0, 66, 0
2, 49210, Note_on_c, 0, 76, 98
2, 49224, Note_on_c, 0, 64, 80
2, 49272, Note_on_c, 0, 64, 0
2, 49308, Note_on_c, 0, 76, 0
2, 49538, Note_on_c, 0, 66, 71
2, 49544, Note_on_c, 0, 78, 82
2, 49608, Note_on_c, 0, 66, 0
2, 49670, Note_on_c, 0, 78, 0
2, 49700, Note_on_c, 0, 80, 99
2, 49714, Note_on_c, 0, 68, 60
2, 49746, Note_on_c, 0, 80, 0
2, 49752, Note_on_c, 0, 56, 0
2, 49772, Note_on_c, 0, 68, 0
2, 49786, Note_on_c, 0, 47, 0
2, 49860, Note_on_c, 0, 66, 88
2, 49864, Note_on_c, 0, 78, 99
2, 49932, Note_on_c, 0, 66, 0
2, 50024, Note_on_c, 0, 80, 105
2, 50036, Note_on_c, 0, 68, 78
2, 50050, Note_on_c, 0, 78, 0
2, 50064, Note_on_c, 0, 40, 87
2, 50067, Control_c, 0, 64, 0
2, 50130, Note_on_c, 0, 68, 0
2, 50168, Note_on_c, 0, 80, 0
2, 50172, Note_on_c, 0, 47, 57
2, 50176, Control_c, 0, 64, 127
2, 50206, Note_on_c, 0, 40, 0
2, 50230, Note_on_c, 0, 80, 88
2, 50290, Note_on_c, 0, 81, 94
2, 50354, Note_on_c, 0, 80, 0
2, 50372, Note_on_c, 0, 71, 88
2, 50378, Note_on_c, 0, 83, 124
2, 50394, Note_on_c, 0, 56, 83
2, 50446, Note_on_c, 0, 81, 0
2, 50746, Note_on_c, 0, 80, 105
2, 50794, Note_on_c, 0, 83, 0
2, 50880, Note_on_c, 0, 47, 0
2, 50892, Note_on_c, 0, 56, 0
2, 50978, Note_on_c, 0, 80, 0
2, 51068, Note_on_c, 0, 83, 126
2, 51162, Note_on_c, 0, 40, 88
2, 51172, Note_on_c, 0, 71, 0
2, 51174, Control_c, 0, 64, 0
2, 51254, Note_on_c, 0, 83, 0
2, 51262, Note_on_c, 0, 40, 0
2, 51276, Note_on_c, 0, 49, 72
2, 51282, Control_c, 0, 64, 127
2, 51370, Note_on_c, 0, 85, 108
2, 51370, Note_on_c, 0, 73, 87
2, 51388, Note_on_c, 0, 76, 64
2, 51416, Note_on_c, 0, 56, 92
2, 51460, Note_on_c, 0, 49, 0
2, 51566, Note_on_c, 0, 56, 0
2, 51614, Note_on_c, 0, 76, 0
2, 51724, Note_on_c, 0, 80, 101
2, 51766, Note_on_c, 0, 85, 0
2, 51862, Note_on_c, 0, 56, 8
2, 51938, Note_on_c, 0, 56, 0
2, 52020, Note_on_c, 0, 80, 0
2, 52044, Note_on_c, 0, 85, 106
2, 52146, Note_on_c, 0, 73, 0
2, 52149, Note_on_c, 0, 42, 64
2, 52218, Note_on_c, 0, 49, 63
2, 52244, Note_on_c, 0, 85, 0
2, 52350, Note_on_c, 0, 85, 87
2, 52366, Note_on_c, 0, 73, 68
2, 52372, Note_on_c, 0, 76, 64
2, 52410, Note_on_c, 0, 57, 71
2, 52450, Control_c, 0, 64, 0
2, 52728, Control_c, 0, 64, 127
2, 52760, Note_on_c, 0, 81, 82
2, 52916, Note_on_c, 0, 42, 0
2, 52970, Note_on_c, 0, 76, 0
2, 52992, Note_on_c, 0, 49, 0
2, 53010, Note_on_c, 0, 85, 0
2, 53066, Note_on_c, 0, 57, 0
2, 53104, Note_on_c, 0, 80, 78
2, 53170, Note_on_c, 0, 81, 0
2, 53192, Note_on_c, 0, 73, 0
2, 53254, Note_on_c, 0, 80, 0
2, 53434, Note_on_c, 0, 78, 76
2, 53436, Note_on_c, 0, 73, 52
2, 53448, Note_on_c, 0, 61, 75
2, 53452, Note_on_c, 0, 76, 53
2, 53466, Note_on_c, 0, 49, 56
2, 53620, Note_on_c, 0, 61, 0
2, 53650, Note_on_c, 0, 49, 0
2, 53764, Note_on_c, 0, 57, 101
2, 53770, Note_on_c, 0, 45, 86
2, 53952, Note_on_c, 0, 57, 0
2, 53958, Note_on_c, 0, 45, 0
2, 54024, Note_on_c, 0, 76, 0
2, 54080, Note_on_c, 0, 56, 101
2, 54094, Note_on_c, 0, 44, 100
2, 54138, Note_on_c, 0, 73, 0
2, 54200, Note_on_c, 0, 78, 0
2, 54214, Note_on_c, 0, 44, 0
2, 54250, Note_on_c, 0, 56, 0
2, 54312, Note_on_c, 0, 42, 95
2, 54426, Note_on_c, 0, 49, 95
2, 54432, Control_c, 0, 64, 0
2, 54510, Note_on_c, 0, 42, 0
2, 54568, Note_on_c, 0, 85, 108
2, 54571, Control_c, 0, 64, 127
2, 54571, Note_on_c, 0, 73, 92
2, 54586, Note_on_c, 0, 76, 74
2, 54586, Note_on_c, 0, 52, 102
2, 54638, Note_on_c, 0, 57, 86
2, 54738, Note_on_c, 0, 85, 0
2, 54802, Note_on_c, 0, 73, 0
2, 54956, Note_on_c, 0, 81, 109
2, 54961, Note_on_c, 0, 69, 82
2, 55002, Note_on_c, 0, 76, 0
2, 55092, Note_on_c, 0, 69, 0
2, 55272, Note_on_c, 0, 80, 105
2, 55280, Note_on_c, 0, 68, 78
2, 55316, Note_on_c, 0, 81, 0
2, 55424, Note_on_c, 0, 68, 0
2, 55452, Note_on_c, 0, 80, 0
2, 55586, Note_on_c, 0, 78, 101
2, 55592, Note_on_c, 0, 66, 87
2, 55772, Note_on_c, 0, 66, 0
2, 55922, Note_on_c, 0, 68, 79
2, 55924, Note_on_c, 0, 80, 98
2, 55936, Note_on_c, 0, 52, 0
2, 55966, Note_on_c, 0, 57, 0
2, 56012, Note_on_c, 0, 49, 0
2, 56070, Note_on_c, 0, 78, 0
2, 56112, Note_on_c, 0, 68, 0
2, 56172, Note_on_c, 0, 80, 0
2, 56258, Note_on_c, 0, 81, 108
2, 56264, Note_on_c, 0, 69, 80
2, 56284, Note_on_c, 0, 42, 72
2, 56306, Control_c, 0, 64, 0
2, 56390, Note_on_c, 0, 49, 78
2, 56402, Note_on_c, 0, 69, 0
2, 56420, Note_on_c, 0, 42, 0
2, 56430, Control_c, 0, 64, 127
2, 56432, Note_on_c, 0, 81, 0
2, 56498, Note_on_c, 0, 52, 83
2, 56616, Note_on_c, 0, 85, 110
2, 56626, Note_on_c, 0, 73, 75
2, 56634, Note_on_c, 0, 57, 80
2, 56646, Note_on_c, 0, 76, 53
2, 56710, Note_on_c, 0, 76, 0
2, 56778, Note_on_c, 0, 85, 0
2, 56786, Note_on_c, 0, 73, 0
2, 56864, Note_on_c, 0, 81, 68
2, 56914, Note_on_c, 0, 83, 120
2, 56952, Note_on_c, 0, 83, 0
2, 56974, Note_on_c, 0, 81, 0
2, 57040, Note_on_c, 0, 81, 101
2, 57048, Note_on_c, 0, 69, 94
2, 57194, Note_on_c, 0, 69, 0
2, 57358, Note_on_c, 0, 80, 101
2, 57361, Note_on_c, 0, 68, 82
2, 57404, Note_on_c, 0, 81, 0
2, 57524, Note_on_c, 0, 68, 0
2, 57554, Note_on_c, 0, 80, 0
2, 57704, Note_on_c, 0, 78, 103
2, 57710, Note_on_c, 0, 66, 76
2, 57922, Note_on_c, 0, 66, 0
2, 58046, Note_on_c, 0, 68, 63
2, 58046, Note_on_c, 0, 80, 95
2, 58124, Note_on_c, 0, 78, 0
2, 58146, Note_on_c, 0, 80, 0
2, 58160, Note_on_c, 0, 68, 0
2, 58184, Note_on_c, 0, 57, 0
2, 58206, Note_on_c, 0, 52, 0
2, 58206, Note_on_c, 0, 81, 70
2, 58209, Note_on_c, 0, 69, 61
2, 58228, Note_on_c, 0, 49, 0
2, 58256, Note_on_c, 0, 81, 0
2, 58264, Note_on_c, 0, 69, 0
2, 58354, Note_on_c, 0, 68, 92
2, 58354, Note_on_c, 0, 80, 103
2, 58456, Note_on_c, 0, 80, 0
2, 58468, Note_on_c, 0, 68, 0
2, 58522, Note_on_c, 0, 81, 83
2, 58524, Note_on_c, 0, 69, 63
2, 58550, Note_on_c, 0, 42, 68
2, 58570, Note_on_c, 0, 81, 0
2, 58582, Note_on_c, 0, 69, 0
2, 58626, Control_c, 0, 64, 0
2, 58644, Note_on_c, 0, 81, 90
2, 58647, Note_on_c, 0, 49, 60
2, 58718, Control_c, 0, 64, 127
2, 58724, Note_on_c, 0, 52, 70
2, 58726, Note_on_c, 0, 42, 0
2, 58740, Note_on_c, 0, 83, 120
2, 58768, Note_on_c, 0, 81, 0
2, 58830, Note_on_c, 0, 85, 107
2, 58848, Note_on_c, 0, 57, 82
2, 58858, Note_on_c, 0, 83, 0
2, 58861, Note_on_c, 0, 76, 61
2, 59156, Note_on_c, 0, 85, 0
2, 59194, Note_on_c, 0, 81, 102
2, 59306, Note_on_c, 0, 52, 0
2, 59324, Note_on_c, 0, 57, 0
2, 59374, Note_on_c, 0, 49, 0
2, 59386, Note_on_c, 0, 76, 0
2, 59464, Note_on_c, 0, 81, 0
2, 59496, Note_on_c, 0, 85, 108
2, 59668, Note_on_c, 0, 42, 74
2, 59708, Control_c, 0, 64, 0
2, 59754, Note_on_c, 0, 51, 65
2, 59824, Control_c, 0, 64, 127
2, 59826, Note_on_c, 0, 42, 0
2, 59828, Note_on_c, 0, 85, 0
2, 59828, Note_on_c, 0, 87, 95
2, 59836, Note_on_c, 0, 75, 83
2, 59846, Note_on_c, 0, 78, 80
2, 59848, Note_on_c, 0, 57, 87
2, 60106, Note_on_c, 0, 87, 0
2, 60154, Note_on_c, 0, 81, 102
2, 60220, Note_on_c, 0, 78, 0
2, 60282, Note_on_c, 0, 51, 0
2, 60292, Note_on_c, 0, 57, 0
2, 60322, Note_on_c, 0, 75, 0
2, 60446, Note_on_c, 0, 81, 0
2, 60456, Note_on_c, 0, 87, 100
2, 60538, Note_on_c, 0, 44, 92
2, 60582, Note_on_c, 0, 87, 0
2, 60608, Control_c, 0, 64, 0
2, 60640, Note_on_c, 0, 51, 83
2, 60662, Note_on_c, 0, 87, 72
2, 60716, Control_c, 0, 64, 127
2, 60722, Note_on_c, 0, 44, 0
2, 60726, Note_on_c, 0, 54, 83
2, 60748, Note_on_c, 0, 88, 102
2, 60754, Note_on_c, 0, 87, 0
2, 60780, Note_on_c, 0, 78, 92
2, 60806, Note_on_c, 0, 87, 102
2, 60818, Note_on_c, 0, 59, 91
2, 60916, Note_on_c, 0, 88, 0
2, 61100, Note_on_c, 0, 87, 0
2, 61132, Note_on_c, 0, 83, 126
2, 61234, Note_on_c, 0, 59, 0
2, 61282, Note_on_c, 0, 51, 0
2, 61290, Note_on_c, 0, 54, 0
2, 61340, Note_on_c, 0, 83, 0
2, 61428, Note_on_c, 0, 87, 110
2, 61544, Note_on_c, 0, 78, 0
2, 61566, Note_on_c, 0, 44, 76
2, 61636, Note_on_c, 0, 87, 0
2, 61658, Note_on_c, 0, 52, 77
2, 61728, Note_on_c, 0, 88, 114
2, 61736, Note_on_c, 0, 80, 95
2, 61736, Note_on_c, 0, 76, 95
2, 61764, Note_on_c, 0, 59, 92
2, 61838, Control_c, 0, 64, 0
2, 62006, Control_c, 0, 64, 127
2, 62026, Note_on_c, 0, 88, 0
2, 62046, Note_on_c, 0, 83, 127
2, 62118, Note_on_c, 0, 59, 0
2, 62142, Note_on_c, 0, 80, 0
2, 62150, Note_on_c, 0, 52, 0
2, 62166, Note_on_c, 0, 76, 0
2, 62184, Note_on_c, 0, 44, 0
2, 62260, Note_on_c, 0, 83, 0
2, 62314, Note_on_c, 0, 88, 90
2, 62396, Note_on_c, 0, 45, 92
2, 62468, Note_on_c, 0, 88, 0
2, 62468, Control_c, 0, 64, 0
2, 62502, Note_on_c, 0, 52, 70
2, 62552, Note_on_c, 0, 88, 69
2, 62576, Control_c, 0, 64, 127
2, 62582, Note_on_c, 0, 45, 0
2, 62618, Note_on_c, 0, 88, 0
2, 62621, Note_on_c, 0, 90, 93
2, 62632, Note_on_c, 0, 56, 84
2, 62635, Note_on_c, 0, 52, 0
2, 62688, Note_on_c, 0, 56, 0
2, 62706, Note_on_c, 0, 88, 94
2, 62712, Note_on_c, 0, 80, 85
2, 62740, Note_on_c, 0, 61, 120
2, 62808, Note_on_c, 0, 90, 0
2, 62866, Note_on_c, 0, 61, 0
2, 63012, Note_on_c, 0, 88, 0
2, 63040, Note_on_c, 0, 85, 110
2, 63308, Note_on_c, 0, 80, 0
2, 63310, Note_on_c, 0, 85, 0
2, 63342, Note_on_c, 0, 88, 115
2, 63416, Note_on_c, 0, 45, 95
2, 63419, Control_c, 0, 64, 0
2, 63486, Note_on_c, 0, 88, 0
2, 63514, Control_c, 0, 64, 127
2, 63534, Note_on_c, 0, 54, 106
2, 63552, Note_on_c, 0, 45, 0
2, 63642, Note_on_c, 0, 90, 109
2, 63648, Note_on_c, 0, 54, 0
2, 63652, Note_on_c, 0, 81, 90
2, 63658, Note_on_c, 0, 78, 83
2, 63676, Note_on_c, 0, 61, 116
2, 63752, Note_on_c, 0, 61, 0
2, 63848, Note_on_c, 0, 81, 0
2, 63926, Note_on_c, 0, 78, 0
2, 63986, Note_on_c, 0, 90, 0
2, 63990, Note_on_c, 0, 85, 109
2, 64260, Note_on_c, 0, 85, 0
2, 64294, Note_on_c, 0, 90, 107
2, 64454, Note_on_c, 0, 44, 114
2, 64512, Control_c, 0, 64, 0
2, 64566, Note_on_c, 0, 51, 98
2, 64612, Note_on_c, 0, 90, 0
2, 64680, Control_c, 0, 64, 127
2, 64696, Note_on_c, 0, 44, 0
2, 64742, Note_on_c, 0, 92, 110
2, 64756, Note_on_c, 0, 80, 95
2, 64796, Note_on_c, 0, 51, 0
2, 64816, Note_on_c, 0, 60, 103
2, 64980, Note_on_c, 0, 87, 94
2, 64992, Note_on_c, 0, 80, 0
2, 65016, Note_on_c, 0, 60, 0
2, 65076, Note_on_c, 0, 92, 0
2, 65142, Note_on_c, 0, 84, 106
2, 65190, Note_on_c, 0, 87, 0
2, 65278, Note_on_c, 0, 80, 99
2, 65320, Note_on_c, 0, 84, 0
2, 65410, Note_on_c, 0, 84, 75
2, 65420, Note_on_c, 0, 80, 0
2, 65558, Note_on_c, 0, 87, 90
2, 65584, Note_on_c, 0, 84, 0
2, 65600, Note_on_c, 0, 87, 0
2, 65690, Note_on_c, 0, 80, 100
2, 65700, Note_on_c, 0, 87, 84
2, 65804, Note_on_c, 0, 80, 0
2, 65854, Note_on_c, 0, 84, 100
2, 65854, Note_on_c, 0, 75, 79
2, 65920, Note_on_c, 0, 87, 0
2, 65988, Note_on_c, 0, 75, 0
2, 65996, Note_on_c, 0, 80, 85
2, 66016, Note_on_c, 0, 84, 0
2, 66120, Note_on_c, 0, 80, 0
2, 66126, Note_on_c, 0, 75, 91
2, 66238, Note_on_c, 0, 75, 0
2, 66262, Note_on_c, 0, 80, 93
2, 66376, Note_on_c, 0, 84, 99
2, 66378, Note_on_c, 0, 80, 0
2, 66418, Note_on_c, 0, 84, 0
2, 66504, Note_on_c, 0, 84, 94
2, 66507, Note_on_c, 0, 75, 88
2, 66590, Note_on_c, 0, 75, 0
2, 66648, Note_on_c, 0, 80, 80
2, 66692, Note_on_c, 0, 72, 65
2, 66722, Note_on_c, 0, 84, 0
2, 66786, Note_on_c, 0, 75, 65
2, 66824, Note_on_c, 0, 72, 0
2, 66827, Note_on_c, 0, 80, 0
2, 66924, Note_on_c, 0, 72, 67
2, 66938, Note_on_c, 0, 75, 0
2, 67042, Note_on_c, 0, 72, 0
2, 67058, Note_on_c, 0, 75, 57
2, 67168, Note_on_c, 0, 80, 87
2, 67194, Note_on_c, 0, 75, 0
2, 67218, Note_on_c, 0, 80, 0
2, 67316, Note_on_c, 0, 80, 74
2, 67326, Note_on_c, 0, 72, 67
2, 67384, Note_on_c, 0, 72, 0
2, 67452, Note_on_c, 0, 75, 68
2, 67490, Note_on_c, 0, 68, 47
2, 67500, Note_on_c, 0, 80, 0
2, 67548, Note_on_c, 0, 68, 0
2, 67594, Note_on_c, 0, 72, 65
2, 67610, Note_on_c, 0, 75, 0
2, 67714, Note_on_c, 0, 72, 0
2, 67740, Note_on_c, 0, 68, 47
2, 67876, Note_on_c, 0, 68, 0
2, 67896, Note_on_c, 0, 72, 52
2, 67972, Note_on_c, 0, 72, 0
2, 68046, Note_on_c, 0, 75, 68
2, 68104, Note_on_c, 0, 75, 0
2, 68192, Note_on_c, 0, 68, 83
2, 68210, Note_on_c, 0, 61, 57
2, 68216, Note_on_c, 0, 57, 52
2, 68492, Control_c, 0, 64, 0
2, 68504, Note_on_c, 0, 80, 67
2, 68506, Note_on_c, 0, 85, 62
2, 68644, Control_c, 0, 64, 127
2, 68790, Note_on_c, 0, 85, 0
2, 68818, Note_on_c, 0, 73, 52
2, 68920, Note_on_c, 0, 80, 0
2, 68990, Note_on_c, 0, 68, 0
2, 69038, Note_on_c, 0, 73, 0
2, 69080, Note_on_c, 0, 66, 100
2, 69358, Note_on_c, 0, 85, 74
2, 69368, Note_on_c, 0, 78, 62
2, 69638, Note_on_c, 0, 73, 65
2, 69686, Note_on_c, 0, 85, 0
2, 69736, Note_on_c, 0, 78, 0
2, 69822, Note_on_c, 0, 73, 0
2, 69882, Note_on_c, 0, 66, 0
2, 69896, Note_on_c, 0, 64, 102
2, 70188, Note_on_c, 0, 85, 85
2, 70194, Note_on_c, 0, 76, 74
2, 70482, Note_on_c, 0, 73, 85
2, 70556, Note_on_c, 0, 76, 0
2, 70572, Note_on_c, 0, 85, 0
2, 70722, Note_on_c, 0, 73, 0
2, 70776, Note_on_c, 0, 66, 102
2, 70826, Note_on_c, 0, 64, 0
2, 70872, Control_c, 0, 64, 0
2, 70996, Control_c, 0, 64, 127
2, 71056, Note_on_c, 0, 85, 95
2, 71064, Note_on_c, 0, 78, 92
2, 71140, Note_on_c, 0, 66, 0
2, 71154, Note_on_c, 0, 61, 0
2, 71158, Note_on_c, 0, 57, 0
2, 71254, Note_on_c, 0, 78, 0
2, 71346, Note_on_c, 0, 73, 87
2, 71408, Note_on_c, 0, 73, 0
2, 71442, Note_on_c, 0, 85, 0
2, 71488, Note_on_c, 0, 44, 90
2, 71582, Note_on_c, 0, 51, 84
2, 71610, Control_c, 0, 64, 0
2, 71718, Control_c, 0, 64, 127
2, 71736, Note_on_c, 0, 44, 0
2, 71806, Note_on_c, 0, 92, 101
2, 71809, Note_on_c, 0, 80, 95
2, 71852, Note_on_c, 0, 60, 94
2, 72018, Note_on_c, 0, 87, 82
2, 72054, Note_on_c, 0, 80, 0
2, 72112, Note_on_c, 0, 51, 0
2, 72158, Note_on_c, 0, 84, 98
2, 72208, Note_on_c, 0, 87, 0
2, 72236, Note_on_c, 0, 60, 0
2, 72276, Note_on_c, 0, 80, 95
2, 72306, Note_on_c, 0, 92, 0
2, 72306, Note_on_c, 0, 84, 0
2, 72398, Note_on_c, 0, 84, 78
2, 72434, Note_on_c, 0, 80, 0
2, 72546, Note_on_c, 0, 87, 71
2, 72572, Note_on_c, 0, 84, 0
2, 72586, Note_on_c, 0, 87, 0
2, 72680, Note_on_c, 0, 64, 113
2, 72683, Note_on_c, 0, 61, 84
2, 72692, Note_on_c, 0, 57, 64
2, 72980, Note_on_c, 0, 85, 102
2, 72988, Note_on_c, 0, 76, 88
2, 73054, Control_c, 0, 64, 0
2, 73192, Control_c, 0, 64, 127
2, 73206, Note_on_c, 0, 57, 0
2, 73216, Note_on_c, 0, 64, 0
2, 73256, Note_on_c, 0, 85, 0
2, 73264, Note_on_c, 0, 61, 0
2, 73270, Note_on_c, 0, 76, 0
2, 73312, Note_on_c, 0, 66, 110
2, 73324, Note_on_c, 0, 73, 95
2, 73382, Note_on_c, 0, 73, 0
2, 73422, Note_on_c, 0, 66, 0
2, 73540, Note_on_c, 0, 44, 99
2, 73642, Note_on_c, 0, 51, 107
2, 73654, Control_c, 0, 64, 0
2, 73740, Note_on_c, 0, 44, 0
2, 73764, Note_on_c, 0, 92, 100
2, 73774, Note_on_c, 0, 80, 94
2, 73792, Control_c, 0, 64, 127
2, 73836, Note_on_c, 0, 60, 111
2, 73984, Note_on_c, 0, 87, 83
2, 74008, Note_on_c, 0, 80, 0
2, 74082, Note_on_c, 0, 92, 0
2, 74130, Note_on_c, 0, 84, 100
2, 74180, Note_on_c, 0, 87, 0
2, 74186, Note_on_c, 0, 51, 0
2, 74250, Note_on_c, 0, 80, 101
2, 74288, Note_on_c, 0, 84, 0
2, 74356, Note_on_c, 0, 60, 0
2, 74380, Note_on_c, 0, 84, 70
2, 74434, Note_on_c, 0, 80, 0
2, 74522, Note_on_c, 0, 87, 85
2, 74574, Note_on_c, 0, 84, 0
2, 74634, Note_on_c, 0, 87, 0
2, 74670, Note_on_c, 0, 64, 108
2, 74680, Note_on_c, 0, 61, 83
2, 74680, Note_on_c, 0, 57, 65
2, 74982, Note_on_c, 0, 85, 102
2, 74990, Note_on_c, 0, 76, 90
2, 75036, Control_c, 0, 64, 0
2, 75174, Control_c, 0, 64, 127
2, 75280, Note_on_c, 0, 64, 0
2, 75296, Note_on_c, 0, 57, 0
2, 75306, Note_on_c, 0, 61, 0
2, 75358, Note_on_c, 0, 85, 0
2, 75400, Note_on_c, 0, 66, 91
2, 75448, Note_on_c, 0, 76, 0
2, 75460, Note_on_c, 0, 73, 68
2, 75508, Note_on_c, 0, 66, 0
2, 75550, Note_on_c, 0, 73, 0
2, 75672, Note_on_c, 0, 44, 78
2, 75774, Note_on_c, 0, 51, 76
2, 75852, Control_c, 0, 64, 0
2, 75960, Note_on_c, 0, 72, 77
2, 75978, Note_on_c, 0, 44, 0
2, 75988, Control_c, 0, 64, 127
2, 76046, Note_on_c, 0, 60, 85
2, 76204, Note_on_c, 0, 68, 74
2, 76302, Note_on_c, 0, 72, 0
2, 76370, Note_on_c, 0, 63, 72
2, 76404, Note_on_c, 0, 68, 0
2, 76528, Note_on_c, 0, 68, 57
2, 76556, Note_on_c, 0, 63, 0
2, 76676, Note_on_c, 0, 72, 74
2, 76682, Note_on_c, 0, 68, 0
2, 76806, Note_on_c, 0, 75, 76
2, 76814, Note_on_c, 0, 72, 0
2, 76848, Note_on_c, 0, 75, 0
2, 76934, Note_on_c, 0, 75, 67
2, 77092, Note_on_c, 0, 72, 74
2, 77142, Note_on_c, 0, 75, 0
2, 77230, Note_on_c, 0, 68, 74
2, 77240, Note_on_c, 0, 72, 0
2, 77342, Note_on_c, 0, 72, 59
2, 77390, Note_on_c, 0, 68, 0
2, 77492, Note_on_c, 0, 75, 83
2, 77548, Note_on_c, 0, 72, 0
2, 77606, Note_on_c, 0, 80, 95
2, 77648, Note_on_c, 0, 80, 0
2, 77648, Note_on_c, 0, 75, 0
2, 77756, Note_on_c, 0, 80, 93
2, 77896, Note_on_c, 0, 75, 91
2, 77948, Note_on_c, 0, 80, 0
2, 78036, Note_on_c, 0, 72, 90
2, 78052, Note_on_c, 0, 75, 0
2, 78132, Note_on_c, 0, 60, 0
2, 78172, Note_on_c, 0, 75, 94
2, 78204, Note_on_c, 0, 51, 0
2, 78232, Note_on_c, 0, 72, 0
2, 78324, Note_on_c, 0, 80, 91
2, 78350, Note_on_c, 0, 75, 0
2, 78458, Note_on_c, 0, 84, 109
2, 78470, Note_on_c, 0, 43, 88
2, 78472, Note_on_c, 0, 80, 0
2, 78508, Control_c, 0, 64, 0
2, 78556, Note_on_c, 0, 48, 88
2, 78630, Note_on_c, 0, 43, 0
2, 78632, Control_c, 0, 64, 127
2, 78644, Note_on_c, 0, 84, 0
2, 78654, Note_on_c, 0, 52, 98
2, 78700, Note_on_c, 0, 84, 117
2, 78728, Note_on_c, 0, 76, 53
2, 78758, Note_on_c, 0, 58, 94
2, 78794, Note_on_c, 0, 76, 0
2, 78920, Note_on_c, 0, 79, 107
2, 78996, Note_on_c, 0, 84, 0
2, 79060, Note_on_c, 0, 76, 100
2, 79096, Note_on_c, 0, 79, 0
2, 79114, Note_on_c, 0, 58, 0
2, 79134, Note_on_c, 0, 52, 0
2, 79220, Note_on_c, 0, 79, 118
2, 79234, Note_on_c, 0, 76, 0
2, 79244, Note_on_c, 0, 48, 0
2, 79376, Note_on_c, 0, 84, 114
2, 79414, Note_on_c, 0, 79, 0
2, 79532, Note_on_c, 0, 88, 106
2, 79534, Note_on_c, 0, 41, 110
2, 79537, Control_c, 0, 64, 0
2, 79592, Note_on_c, 0, 84, 0
2, 79644, Note_on_c, 0, 48, 68
2, 79692, Control_c, 0, 64, 127
2, 79696, Note_on_c, 0, 88, 0
2, 79720, Note_on_c, 0, 41, 0
2, 79796, Note_on_c, 0, 89, 118
2, 79814, Note_on_c, 0, 77, 77
2, 79838, Note_on_c, 0, 57, 86
2, 79972, Note_on_c, 0, 48, 0
2, 80024, Note_on_c, 0, 84, 111
2, 80060, Note_on_c, 0, 77, 0
2, 80102, Note_on_c, 0, 89, 0
2, 80182, Note_on_c, 0, 81, 99
2, 80216, Note_on_c, 0, 57, 0
2, 80266, Note_on_c, 0, 84, 0
2, 80320, Note_on_c, 0, 77, 101
2, 80354, Note_on_c, 0, 81, 0
2, 80452, Note_on_c, 0, 81, 87
2, 80480, Note_on_c, 0, 77, 0
2, 80594, Note_on_c, 0, 84, 113
2, 80628, Note_on_c, 0, 81, 0
2, 80698, Note_on_c, 0, 84, 0
2, 80762, Note_on_c, 0, 84, 114
2, 80780, Note_on_c, 0, 77, 113
2, 80922, Note_on_c, 0, 77, 0
2, 80968, Note_on_c, 0, 81, 86
2, 81022, Note_on_c, 0, 72, 61
2, 81124, Note_on_c, 0, 77, 84
2, 81154, Note_on_c, 0, 81, 0
2, 81164, Note_on_c, 0, 72, 0
2, 81244, Note_on_c, 0, 72, 84
2, 81246, Note_on_c, 0, 77, 0
2, 81358, Note_on_c, 0, 72, 0
2, 81398, Note_on_c, 0, 77, 91
2, 81428, Note_on_c, 0, 84, 0
2, 81532, Note_on_c, 0, 81, 84
2, 81562, Note_on_c, 0, 77, 0
2, 81574, Note_on_c, 0, 81, 0
2, 81684, Note_on_c, 0, 81, 77
2, 81692, Note_on_c, 0, 72, 84
2, 81810, Note_on_c, 0, 72, 0
2, 81850, Note_on_c, 0, 77, 68
2, 81876, Note_on_c, 0, 69, 44
2, 81996, Note_on_c, 0, 72, 71
2, 82016, Note_on_c, 0, 77, 0
2, 82026, Note_on_c, 0, 69, 0
2, 82132, Note_on_c, 0, 69, 38
2, 82135, Note_on_c, 0, 72, 0
2, 82236, Note_on_c, 0, 69, 0
2, 82260, Note_on_c, 0, 72, 48
2, 82330, Note_on_c, 0, 81, 0
2, 82344, Note_on_c, 0, 72, 0
2, 82392, Note_on_c, 0, 77, 72
2, 82434, Note_on_c, 0, 77, 0
2, 82534, Note_on_c, 0, 77, 56
2, 82550, Note_on_c, 0, 69, 42
2, 82618, Note_on_c, 0, 69, 0
2, 82696, Note_on_c, 0, 72, 48
2, 82722, Note_on_c, 0, 65, 39
2, 82792, Note_on_c, 0, 65, 0
2, 82792, Note_on_c, 0, 72, 0
2, 82822, Note_on_c, 0, 69, 53
2, 82968, Note_on_c, 0, 65, 53
2, 82978, Note_on_c, 0, 69, 0
2, 83080, Note_on_c, 0, 65, 0
2, 83140, Note_on_c, 0, 69, 49
2, 83208, Note_on_c, 0, 69, 0
2, 83264, Note_on_c, 0, 77, 0
2, 83274, Note_on_c, 0, 72, 54
2, 83328, Note_on_c, 0, 72, 0
2, 83440, Note_on_c, 0, 65, 88
2, 83450, Note_on_c, 0, 54, 65
2, 83454, Note_on_c, 0, 58, 47
2, 83742, Note_on_c, 0, 82, 51
2, 83748, Note_on_c, 0, 77, 54
2, 83870, Control_c, 0, 64, 0
2, 83994, Control_c, 0, 64, 127
2, 84010, Note_on_c, 0, 70, 63
2, 84050, Note_on_c, 0, 82, 0
2, 84178, Note_on_c, 0, 77, 0
2, 84226, Note_on_c, 0, 70, 0
2, 84278, Note_on_c, 0, 63, 91
2, 84360, Note_on_c, 0, 65, 0
2, 84558, Note_on_c, 0, 82, 63
2, 84561, Note_on_c, 0, 75, 79
2, 84748, Control_c, 0, 64, 0
2, 84808, Note_on_c, 0, 70, 74
2, 84864, Note_on_c, 0, 82, 0
2, 84886, Control_c, 0, 64, 127
2, 84944, Note_on_c, 0, 75, 0
2, 85022, Note_on_c, 0, 70, 0
2, 85070, Note_on_c, 0, 61, 87
2, 85114, Note_on_c, 0, 63, 0
2, 85370, Note_on_c, 0, 82, 52
2, 85370, Note_on_c, 0, 73, 48
2, 85468, Control_c, 0, 64, 0
2, 85608, Control_c, 0, 64, 127
2, 85636, Note_on_c, 0, 70, 53
2, 85696, Note_on_c, 0, 73, 0
2, 85699, Note_on_c, 0, 82, 0
2, 85830, Note_on_c, 0, 70, 0
2, 85930, Note_on_c, 0, 63, 49
2, 86014, Note_on_c, 0, 61, 0
2, 86100, Control_c, 0, 64, 0
2, 86196, Note_on_c, 0, 75, 60
2, 86200, Note_on_c, 0, 82, 47
2, 86238, Control_c, 0, 64, 127
2, 86290, Note_on_c, 0, 63, 0
2, 86302, Note_on_c, 0, 58, 0
2, 86308, Note_on_c, 0, 75, 0
2, 86326, Note_on_c, 0, 54, 0
2, 86416, Note_on_c, 0, 75, 7
2, 86434, Note_on_c, 0, 82, 0
2, 86484, Note_on_c, 0, 70, 51
2, 86518, Note_on_c, 0, 75, 0
2, 86538, Note_on_c, 0, 70, 0
2, 86612, Note_on_c, 0, 41, 68
2, 86670, Note_on_c, 0, 48, 60
2, 86870, Note_on_c, 0, 89, 108
2, 86884, Note_on_c, 0, 77, 76
2, 86896, Note_on_c, 0, 57, 90
2, 87082, Control_c, 0, 64, 0
2, 87128, Note_on_c, 0, 84, 98
2, 87236, Control_c, 0, 64, 127
2, 87262, Note_on_c, 0, 77, 0
2, 87284, Note_on_c, 0, 81, 86
2, 87322, Note_on_c, 0, 41, 0
2, 87342, Note_on_c, 0, 84, 0
2, 87352, Note_on_c, 0, 48, 0
2, 87392, Note_on_c, 0, 89, 0
2, 87412, Note_on_c, 0, 77, 97
2, 87426, Note_on_c, 0, 57, 0
2, 87442, Note_on_c, 0, 81, 0
2, 87536, Note_on_c, 0, 81, 72
2, 87541, Note_on_c, 0, 77, 0
2, 87668, Note_on_c, 0, 84, 108
2, 87674, Note_on_c, 0, 81, 0
2, 87714, Note_on_c, 0, 84, 0
2, 87860, Note_on_c, 0, 58, 39
2, 87866, Note_on_c, 0, 61, 87
2, 87878, Note_on_c, 0, 54, 70
2, 88164, Note_on_c, 0, 82, 80
2, 88164, Note_on_c, 0, 73, 83
2, 88408, Note_on_c, 0, 54, 0
2, 88410, Note_on_c, 0, 61, 0
2, 88420, Note_on_c, 0, 73, 0
2, 88464, Note_on_c, 0, 82, 0
2, 88474, Note_on_c, 0, 70, 80
2, 88477, Note_on_c, 0, 63, 95
2, 88496, Note_on_c, 0, 58, 0
2, 88510, Note_on_c, 0, 63, 0
2, 88520, Note_on_c, 0, 70, 0
2, 88750, Note_on_c, 0, 41, 100
2, 88786, Note_on_c, 0, 48, 70
2, 88804, Control_c, 0, 64, 0
2, 88852, Note_on_c, 0, 89, 109
2, 88860, Note_on_c, 0, 77, 90
2, 88878, Note_on_c, 0, 41, 0
2, 88904, Note_on_c, 0, 57, 116
2, 88922, Note_on_c, 0, 48, 0
2, 88942, Control_c, 0, 64, 127
2, 88964, Note_on_c, 0, 57, 0
2, 89030, Note_on_c, 0, 84, 98
2, 89064, Note_on_c, 0, 77, 0
2, 89070, Note_on_c, 0, 89, 0
2, 89174, Note_on_c, 0, 81, 94
2, 89218, Note_on_c, 0, 84, 0
2, 89294, Note_on_c, 0, 77, 94
2, 89318, Note_on_c, 0, 81, 0
2, 89432, Note_on_c, 0, 81, 79
2, 89446, Note_on_c, 0, 77, 0
2, 89562, Note_on_c, 0, 84, 101
2, 89572, Note_on_c, 0, 81, 0
2, 89608, Note_on_c, 0, 84, 0
2, 89734, Note_on_c, 0, 61, 99
2, 89739, Note_on_c, 0, 54, 91
2, 89754, Note_on_c, 0, 58, 69
2, 90088, Note_on_c, 0, 82, 78
2, 90090, Note_on_c, 0, 73, 77
2, 90140, Control_c, 0, 64, 0
2, 90278, Control_c, 0, 64, 127
2, 90286, Note_on_c, 0, 54, 0
2, 90308, Note_on_c, 0, 58, 0
2, 90356, Note_on_c, 0, 61, 0
2, 90435, Note_on_c, 0, 82, 0
2, 90456, Note_on_c, 0, 63, 106
2, 90490, Note_on_c, 0, 70, 62
2, 90520, Note_on_c, 0, 63, 0
2, 90538, Note_on_c, 0, 73, 0
2, 90722, Note_on_c, 0, 70, 0
2, 90740, Note_on_c, 0, 41, 60
2, 90812, Note_on_c, 0, 48, 52
2, 90998, Note_on_c, 0, 69, 77
2, 91064, Note_on_c, 0, 57, 55
2, 91184, Control_c, 0, 64, 0
2, 91216, Note_on_c, 0, 65, 79
2, 91386, Control_c, 0, 64, 127
2, 91398, Note_on_c, 0, 60, 74
2, 91440, Note_on_c, 0, 65, 0
2, 91544, Note_on_c, 0, 65, 49
2, 91546, Note_on_c, 0, 69, 0
2, 91582, Note_on_c, 0, 60, 0
2, 91706, Note_on_c, 0, 69, 71
2, 91748, Note_on_c, 0, 65, 0
2, 91840, Note_on_c, 0, 72, 76
2, 91850, Note_on_c, 0, 69, 0
2, 91886, Note_on_c, 0, 72, 0
2, 91966, Note_on_c, 0, 72, 68
2, 92118, Note_on_c, 0, 69, 63
2, 92156, Note_on_c, 0, 72, 0
2, 92240, Note_on_c, 0, 69, 0
2, 92240, Note_on_c, 0, 65, 68
2, 92366, Note_on_c, 0, 69, 69
2, 92390, Note_on_c, 0, 65, 0
2, 92498, Note_on_c, 0, 72, 85
2, 92532, Note_on_c, 0, 69, 0
2, 92614, Note_on_c, 0, 77, 88
2, 92646, Note_on_c, 0, 72, 0
2, 92656, Note_on_c, 0, 77, 0
2, 92740, Note_on_c, 0, 77, 94
2, 92824, Note_on_c, 0, 57, 0
2, 92840, Note_on_c, 0, 41, 0
2, 92894, Note_on_c, 0, 72, 95
2, 92912, Note_on_c, 0, 48, 0
2, 93006, Note_on_c, 0, 69, 94
2, 93016, Note_on_c, 0, 77, 0
2, 93020, Note_on_c, 0, 72, 0
2, 93136, Note_on_c, 0, 72, 101
2, 93182, Note_on_c, 0, 69, 0
2, 93220, Note_on_c, 0, 40, 95
2, 93254, Note_on_c, 0, 77, 106
2, 93300, Note_on_c, 0, 45, 68
2, 93346, Note_on_c, 0, 72, 0
2, 93376, Note_on_c, 0, 81, 109
2, 93428, Note_on_c, 0, 49, 82
2, 93444, Note_on_c, 0, 77, 0
2, 93466, Note_on_c, 0, 81, 0
2, 93540, Note_on_c, 0, 81, 90
2, 93546, Note_on_c, 0, 73, 100
2, 93552, Note_on_c, 0, 55, 107
2, 93658, Control_c, 0, 64, 0
2, 93712, Note_on_c, 0, 76, 95
2, 93730, Note_on_c, 0, 73, 0
2, 93800, Note_on_c, 0, 81, 0
2, 93828, Control_c, 0, 64, 127
2, 93866, Note_on_c, 0, 73, 98
2, 93904, Note_on_c, 0, 76, 0
2, 93942, Note_on_c, 0, 55, 0
2, 93994, Note_on_c, 0, 45, 0
2, 94004, Note_on_c, 0, 49, 0
2, 94012, Note_on_c, 0, 73, 0
2, 94018, Note_on_c, 0, 76, 84
2, 94030, Note_on_c, 0, 40, 0
2, 94180, Note_on_c, 0, 81, 106
2, 94290, Note_on_c, 0, 76, 0
2, 94336, Note_on_c, 0, 85, 98
2, 94338, Note_on_c, 0, 38, 113
2, 94388, Note_on_c, 0, 81, 0
2, 94396, Control_c, 0, 64, 0
2, 94462, Note_on_c, 0, 45, 92
2, 94550, Control_c, 0, 64, 127
2, 94556, Note_on_c, 0, 38, 0
2, 94628, Note_on_c, 0, 85, 0
2, 94648, Note_on_c, 0, 86, 116
2, 94662, Note_on_c, 0, 74, 92
2, 94692, Note_on_c, 0, 54, 121
2, 94882, Note_on_c, 0, 81, 100
2, 94940, Note_on_c, 0, 74, 0
2, 94958, Note_on_c, 0, 45, 0
2, 95028, Note_on_c, 0, 78, 95
2, 95082, Note_on_c, 0, 81, 0
2, 95100, Note_on_c, 0, 54, 0
2, 95114, Note_on_c, 0, 86, 0
2, 95170, Note_on_c, 0, 74, 100
2, 95182, Note_on_c, 0, 78, 0
2, 95314, Note_on_c, 0, 78, 101
2, 95344, Note_on_c, 0, 74, 0
2, 95452, Note_on_c, 0, 81, 102
2, 95474, Note_on_c, 0, 78, 0
2, 95616, Note_on_c, 0, 78, 103
2, 95619, Note_on_c, 0, 86, 102
2, 95660, Note_on_c, 0, 81, 0
2, 95728, Note_on_c, 0, 78, 0
2, 95794, Note_on_c, 0, 81, 85
2, 95810, Note_on_c, 0, 74, 85
2, 95932, Note_on_c, 0, 78, 85
2, 95934, Note_on_c, 0, 74, 0
2, 95958, Note_on_c, 0, 81, 0
2, 95961, Note_on_c, 0, 86, 0
2, 96066, Note_on_c, 0, 74, 69
2, 96080, Note_on_c, 0, 78, 0
2, 96210, Note_on_c, 0, 74, 0
2, 96224, Note_on_c, 0, 78, 87
2, 96358, Note_on_c, 0, 78, 0
2, 96366, Note_on_c, 0, 81, 90
2, 96516, Note_on_c, 0, 78, 90
2, 96518, Note_on_c, 0, 86, 98
2, 96532, Note_on_c, 0, 81, 0
2, 96646, Note_on_c, 0, 78, 0
2, 96672, Note_on_c, 0, 81, 76
2, 96686, Note_on_c, 0, 74, 72
2, 96732, Note_on_c, 0, 74, 0
2, 96794, Note_on_c, 0, 78, 76
2, 96814, Note_on_c, 0, 86, 0
2, 96824, Note_on_c, 0, 81, 0
2, 96926, Note_on_c, 0, 78, 0
2, 96938, Note_on_c, 0, 74, 74
2, 97044, Note_on_c, 0, 74, 0
2, 97092, Note_on_c, 0, 78, 76
2, 97202, Note_on_c, 0, 78, 0
2, 97230, Note_on_c, 0, 81, 85
2, 97296, Note_on_c, 0, 81, 0
2, 97388, Note_on_c, 0, 78, 84
2, 97390, Note_on_c, 0, 86, 87
2, 97472, Note_on_c, 0, 78, 0
2, 97534, Note_on_c, 0, 81, 75
2, 97578, Note_on_c, 0, 74, 46
2, 97626, Note_on_c, 0, 74, 0
2, 97680, Note_on_c, 0, 78, 64
2, 97682, Note_on_c, 0, 81, 0
2, 97794, Note_on_c, 0, 86, 0
2, 97812, Note_on_c, 0, 78, 0
2, 97815, Note_on_c, 0, 74, 69
2, 97948, Note_on_c, 0, 74, 0
2, 98002, Note_on_c, 0, 78, 59
2, 98116, Note_on_c, 0, 78, 0
2, 98180, Note_on_c, 0, 81, 44
2, 98298, Note_on_c, 0, 81, 0
2, 98334, Note_on_c, 0, 69, 47
2, 98342, Note_on_c, 0, 86, 60
2, 98344, Note_on_c, 0, 66, 41
2, 98356, Note_on_c, 0, 78, 28
2, 98366, Note_on_c, 0, 62, 51
2, 98454, Note_on_c, 0, 78, 0
2, 98514, Note_on_c, 0, 81, 46
2, 98578, Note_on_c, 0, 86, 0
2, 98630, Note_on_c, 0, 78, 54
2, 98672, Note_on_c, 0, 81, 0
2, 98724, Note_on_c, 0, 78, 0
2, 98788, Note_on_c, 0, 74, 52
2, 98914, Note_on_c, 0, 74, 0
2, 98926, Note_on_c, 0, 78, 52
2, 99038, Note_on_c, 0, 78, 0
2, 99084, Note_on_c, 0, 81, 30
2, 99184, Note_on_c, 0, 81, 0
2, 99214, Note_on_c, 0, 78, 47
2, 99218, Note_on_c, 0, 86, 52
2, 99298, Note_on_c, 0, 78, 0
2, 99368, Note_on_c, 0, 81, 42
2, 99402, Note_on_c, 0, 86, 0
2, 99504, Note_on_c, 0, 78, 53
2, 99534, Note_on_c, 0, 81, 0
2, 99650, Note_on_c, 0, 78, 0
2, 99672, Note_on_c, 0, 74, 47
2, 99768, Note_on_c, 0, 74, 0
2, 99820, Note_on_c, 0, 78, 49
2, 99858, Note_on_c, 0, 62, 0
2, 99908, Note_on_c, 0, 78, 0
2, 99911, Note_on_c, 0, 66, 0
2, 99970, Note_on_c, 0, 81, 45
2, 100132, Note_on_c, 0, 81, 0
2, 100152, Note_on_c, 0, 85, 46
2, 100172, Note_on_c, 0, 77, 39
2, 100172, Note_on_c, 0, 65, 30
2, 100172, Note_on_c, 0, 61, 44
2, 100175, Control_c, 0, 64, 0
2, 100286, Note_on_c, 0, 77, 0
2, 100328, Control_c, 0, 64, 127
2, 100340, Note_on_c, 0, 81, 36
2, 100500, Note_on_c, 0, 81, 0
2, 100502, Note_on_c, 0, 77, 39
2, 100610, Note_on_c, 0, 77, 0
2, 100634, Note_on_c, 0, 73, 47
2, 100672, Note_on_c, 0, 85, 0
2, 100786, Note_on_c, 0, 73, 0
2, 100818, Note_on_c, 0, 77, 48
2, 100902, Note_on_c, 0, 77, 0
2, 100938, Note_on_c, 0, 81, 51
2, 101092, Note_on_c, 0, 81, 0
2, 101100, Note_on_c, 0, 85, 59
2, 101142, Note_on_c, 0, 77, 31
2, 101212, Note_on_c, 0, 77, 0
2, 101256, Note_on_c, 0, 69, 0
2, 101278, Note_on_c, 0, 81, 45
2, 101310, Note_on_c, 0, 65, 0
2, 101348, Note_on_c, 0, 61, 0
2, 101448, Note_on_c, 0, 81, 0
2, 101458, Note_on_c, 0, 77, 34
2, 101522, Note_on_c, 0, 85, 0
2, 101552, Note_on_c, 0, 77, 0
2, 101582, Note_on_c, 0, 73, 37
2, 101822, Note_on_c, 0, 77, 32
2, 101825, Note_on_c, 0, 73, 0
2, 101854, Note_on_c, 0, 36, 10
2, 101910, Control_c, 0, 64, 0
2, 101940, Note_on_c, 0, 77, 0
2, 102000, Note_on_c, 0, 36, 0
2, 102010, Note_on_c, 0, 48, 45
2, 102020, Note_on_c, 0, 81, 42
2, 102032, Control_c, 0, 64, 127
2, 102072, Note_on_c, 0, 48, 0
2, 102334, Note_on_c, 0, 81, 0
2, 102378, Note_on_c, 0, 60, 48
2, 102380, Note_on_c, 0, 77, 42
2, 102384, Note_on_c, 0, 84, 51
2, 102476, Note_on_c, 0, 77, 0
2, 102640, Note_on_c, 0, 81, 45
2, 102714, Note_on_c, 0, 48, 7
2, 102826, Note_on_c, 0, 57, 55
2, 102834, Note_on_c, 0, 77, 42
2, 102870, Note_on_c, 0, 84, 0
2, 102906, Note_on_c, 0, 81, 0
2, 102908, Note_on_c, 0, 60, 0
2, 102930, Note_on_c, 0, 77, 0
2, 103038, Note_on_c, 0, 72, 32
2, 103146, Note_on_c, 0, 72, 0
2, 103164, Note_on_c, 0, 55, 68
2, 103188, Note_on_c, 0, 57, 0
2, 103204, Note_on_c, 0, 77, 33
2, 103286, Note_on_c, 0, 77, 0
2, 103342, Note_on_c, 0, 81, 40
2, 103464, Note_on_c, 0, 81, 0
2, 103474, Note_on_c, 0, 53, 100
2, 103478, Note_on_c, 0, 55, 0
2, 103484, Note_on_c, 0, 84, 67
2, 103646, Control_c, 0, 64, 0
2, 103656, Note_on_c, 0, 81, 49
2, 103738, Control_c, 0, 64, 127
2, 103804, Note_on_c, 0, 55, 98
2, 103812, Note_on_c, 0, 77, 54
2, 103840, Note_on_c, 0, 81, 0
2, 103854, Note_on_c, 0, 53, 0
2, 103982, Note_on_c, 0, 77, 0
2, 103990, Note_on_c, 0, 72, 46
2, 104000, Control_c, 0, 64, 0
2, 104108, Control_c, 0, 64, 127
2, 104118, Note_on_c, 0, 57, 75
2, 104128, Note_on_c, 0, 84, 0
2, 104144, Note_on_c, 0, 77, 41
2, 104174, Note_on_c, 0, 72, 0
2, 104186, Note_on_c, 0, 55, 0
2, 104232, Note_on_c, 0, 77, 0
2, 104286, Note_on_c, 0, 81, 46
2, 104450, Note_on_c, 0, 81, 0
2, 104453, Note_on_c, 0, 60, 60
2, 104466, Note_on_c, 0, 77, 40
2, 104468, Note_on_c, 0, 84, 64
2, 104484, Note_on_c, 0, 57, 0
2, 104492, Control_c, 0, 64, 0
2, 104628, Note_on_c, 0, 77, 0
2, 104630, Control_c, 0, 64, 127
2, 104654, Note_on_c, 0, 81, 45
2, 104808, Note_on_c, 0, 57, 54
2, 104826, Note_on_c, 0, 77, 37
2, 104832, Note_on_c, 0, 81, 0
2, 104842, Note_on_c, 0, 84, 0
2, 104850, Note_on_c, 0, 60, 0
2, 104944, Note_on_c, 0, 77, 0
2, 105002, Note_on_c, 0, 72, 38
2, 105112, Note_on_c, 0, 72, 0
2, 105124, Note_on_c, 0, 55, 52
2, 105136, Note_on_c, 0, 57, 0
2, 105152, Note_on_c, 0, 77, 37
2, 105234, Note_on_c, 0, 77, 0
2, 105298, Note_on_c, 0, 81, 46
2, 105430, Note_on_c, 0, 81, 0
2, 105448, Note_on_c, 0, 55, 0
2, 105468, Note_on_c, 0, 53, 72
2, 105484, Note_on_c, 0, 84, 46
2, 105487, Note_on_c, 0, 77, 34
2, 105536, Control_c, 0, 64, 0
2, 105592, Note_on_c, 0, 77, 0
2, 105658, Note_on_c, 0, 81, 45
2, 105660, Control_c, 0, 64, 127
2, 105764, Note_on_c, 0, 84, 0
2, 105794, Note_on_c, 0, 53, 0
2, 105812, Note_on_c, 0, 55, 68
2, 105840, Note_on_c, 0, 81, 0
2, 105846, Note_on_c, 0, 77, 37
2, 105933, Note_on_c, 0, 77, 0
2, 105978, Note_on_c, 0, 55, 0
2, 105981, Note_on_c, 0, 57, 71
2, 106002, Note_on_c, 0, 72, 38
2, 106102, Note_on_c, 0, 72, 0
2, 106142, Note_on_c, 0, 77, 42
2, 106148, Note_on_c, 0, 57, 0
2, 106150, Note_on_c, 0, 55, 83
2, 106164, Note_on_c, 0, 48, 0
2, 106214, Note_on_c, 0, 77, 0
2, 106274, Note_on_c, 0, 81, 45
2, 106288, Note_on_c, 0, 57, 64
2, 106296, Note_on_c, 0, 55, 0
2, 106396, Note_on_c, 0, 48, 64
2, 106424, Note_on_c, 0, 57, 0
2, 106452, Note_on_c, 0, 53, 75
2, 106502, Note_on_c, 0, 57, 67
2, 106505, Note_on_c, 0, 81, 0
2, 106518, Note_on_c, 0, 84, 70
2, 106520, Control_c, 0, 64, 0
2, 106520, Note_on_c, 0, 60, 80
2, 106560, Note_on_c, 0, 77, 32
2, 106648, Note_on_c, 0, 57, 0
2, 106658, Note_on_c, 0, 77, 0
2, 106696, Note_on_c, 0, 81, 52
2, 106704, Control_c, 0, 64, 127
2, 106760, Note_on_c, 0, 84, 0
2, 106854, Note_on_c, 0, 60, 0
2, 106864, Note_on_c, 0, 57, 78
2, 106870, Note_on_c, 0, 77, 63
2, 106886, Note_on_c, 0, 81, 0
2, 106944, Note_on_c, 0, 77, 0
2, 106954, Note_on_c, 0, 53, 0
2, 106996, Note_on_c, 0, 57, 0
2, 107028, Note_on_c, 0, 72, 52
2, 107138, Note_on_c, 0, 48, 0
2, 107146, Note_on_c, 0, 72, 0
2, 107162, Note_on_c, 0, 60, 68
2, 107194, Note_on_c, 0, 77, 54
2, 107270, Note_on_c, 0, 60, 0
2, 107278, Note_on_c, 0, 77, 0
2, 107316, Note_on_c, 0, 81, 59
2, 107372, Note_on_c, 0, 45, 57
2, 107410, Control_c, 0, 64, 0
2, 107452, Note_on_c, 0, 53, 106
2, 107478, Note_on_c, 0, 45, 0
2, 107500, Note_on_c, 0, 53, 0
2, 107518, Note_on_c, 0, 57, 68
2, 107534, Control_c, 0, 64, 127
2, 107570, Note_on_c, 0, 81, 0
2, 107590, Note_on_c, 0, 86, 68
2, 107604, Note_on_c, 0, 57, 0
2, 107636, Note_on_c, 0, 62, 105
2, 107658, Note_on_c, 0, 77, 13
2, 107724, Note_on_c, 0, 77, 0
2, 107742, Note_on_c, 0, 62, 0
2, 107812, Note_on_c, 0, 86, 0
2, 107830, Note_on_c, 0, 77, 47
2, 107966, Note_on_c, 0, 77, 0
2, 107996, Note_on_c, 0, 57, 80
2, 108002, Note_on_c, 0, 74, 56
2, 108090, Note_on_c, 0, 74, 0
2, 108114, Note_on_c, 0, 57, 0
2, 108162, Note_on_c, 0, 77, 32
2, 108292, Note_on_c, 0, 62, 93
2, 108316, Note_on_c, 0, 77, 0
2, 108390, Note_on_c, 0, 62, 0
2, 108396, Note_on_c, 0, 81, 7
2, 108468, Note_on_c, 0, 86, 47
2, 108516, Note_on_c, 0, 81, 0
2, 108536, Note_on_c, 0, 86, 0
2, 108628, Note_on_c, 0, 60, 72
2, 108650, Note_on_c, 0, 84, 53
2, 108654, Note_on_c, 0, 57, 37
2, 108654, Note_on_c, 0, 53, 70
2, 108658, Note_on_c, 0, 48, 33
2, 108670, Control_c, 0, 64, 0
2, 108674, Note_on_c, 0, 77, 18
2, 108758, Note_on_c, 0, 77, 0
2, 108816, Note_on_c, 0, 81, 46
2, 108916, Control_c, 0, 64, 127
2, 108968, Note_on_c, 0, 77, 56
2, 108984, Note_on_c, 0, 81, 0
2, 109054, Note_on_c, 0, 77, 0
2, 109100, Note_on_c, 0, 72, 53
2, 109234, Note_on_c, 0, 72, 0
2, 109260, Note_on_c, 0, 84, 0
2, 109262, Note_on_c, 0, 77, 41
2, 109374, Note_on_c, 0, 77, 0
2, 109382, Note_on_c, 0, 81, 62
2, 109464, Note_on_c, 0, 81, 0
2, 109542, Note_on_c, 0, 84, 86
2, 109696, Note_on_c, 0, 81, 64
2, 109784, Note_on_c, 0, 48, 0
2, 109836, Note_on_c, 0, 53, 0
2, 109839, Note_on_c, 0, 77, 51
2, 109848, Note_on_c, 0, 81, 0
2, 109860, Note_on_c, 0, 57, 0
2, 109866, Note_on_c, 0, 84, 0
2, 109912, Note_on_c, 0, 60, 0
2, 109956, Note_on_c, 0, 77, 0
2, 109970, Note_on_c, 0, 72, 51
2, 110062, Note_on_c, 0, 72, 0
2, 110136, Note_on_c, 0, 77, 48
2, 110202, Note_on_c, 0, 77, 0
2, 110266, Note_on_c, 0, 81, 42
2, 110340, Note_on_c, 0, 81, 0
2, 110450, Note_on_c, 0, 69, 29
2, 110453, Note_on_c, 0, 84, 64
2, 110460, Note_on_c, 0, 60, 52
2, 110498, Note_on_c, 0, 65, 32
2, 110498, Control_c, 0, 64, 0
2, 110606, Control_c, 0, 64, 127
2, 110638, Note_on_c, 0, 81, 34
2, 110712, Note_on_c, 0, 84, 0
2, 110778, Note_on_c, 0, 77, 39
2, 110784, Note_on_c, 0, 81, 0
2, 110892, Note_on_c, 0, 77, 0
2, 110932, Note_on_c, 0, 72, 42
2, 111024, Note_on_c, 0, 72, 0
2, 111078, Note_on_c, 0, 77, 45
2, 111162, Note_on_c, 0, 77, 0
2, 111216, Note_on_c, 0, 81, 38
2, 111304, Note_on_c, 0, 81, 0
2, 111372, Note_on_c, 0, 84, 59
2, 111408, Note_on_c, 0, 77, 29
2, 111472, Note_on_c, 0, 77, 0
2, 111540, Note_on_c, 0, 81, 39
2, 111668, Note_on_c, 0, 84, 0
2, 111674, Note_on_c, 0, 77, 41
2, 111696, Note_on_c, 0, 81, 0
2, 111796, Note_on_c, 0, 77, 0
2, 111822, Note_on_c, 0, 72, 36
2, 111914, Note_on_c, 0, 72, 0
2, 111936, Note_on_c, 0, 65, 0
2, 111962, Note_on_c, 0, 77, 23
2, 112048, Note_on_c, 0, 69, 0
2, 112066, Note_on_c, 0, 77, 0
2, 112132, Note_on_c, 0, 81, 30
2, 112228, Note_on_c, 0, 81, 0
2, 112352, Note_on_c, 0, 68, 25
2, 112355, Note_on_c, 0, 76, 29
2, 112355, Note_on_c, 0, 84, 41
2, 112382, Note_on_c, 0, 64, 42
2, 112420, Control_c, 0, 64, 0
2, 112540, Note_on_c, 0, 76, 0
2, 112545, Note_on_c, 0, 80, 46
2, 112666, Control_c, 0, 64, 127
2, 112696, Note_on_c, 0, 76, 14
2, 112718, Note_on_c, 0, 84, 0
2, 112721, Note_on_c, 0, 80, 0
2, 112846, Note_on_c, 0, 76, 0
2, 112868, Note_on_c, 0, 72, 41
2, 112960, Note_on_c, 0, 72, 0
2, 113048, Note_on_c, 0, 76, 31
2, 113126, Note_on_c, 0, 76, 0
2, 113146, Note_on_c, 0, 68, 0
2, 113148, Note_on_c, 0, 80, 45
2, 113156, Note_on_c, 0, 60, 0
2, 113210, Note_on_c, 0, 64, 0
2, 113242, Note_on_c, 0, 80, 0
2, 113342, Note_on_c, 0, 84, 48
2, 113378, Note_on_c, 0, 76, 18
2, 113476, Note_on_c, 0, 76, 0
2, 113520, Note_on_c, 0, 80, 44
2, 113574, Note_on_c, 0, 84, 0
2, 113660, Note_on_c, 0, 80, 0
2, 113692, Note_on_c, 0, 76, 24
2, 113822, Note_on_c, 0, 76, 0
2, 113876, Note_on_c, 0, 72, 28
2, 113998, Note_on_c, 0, 72, 0
2, 114094, Note_on_c, 0, 35, 44
2, 114098, Note_on_c, 0, 76, 29
2, 114110, Control_c, 0, 64, 0
2, 114246, Note_on_c, 0, 35, 0
2, 114248, Control_c, 0, 64, 127
2, 114306, Note_on_c, 0, 80, 48
2, 114328, Note_on_c, 0, 76, 0
2, 114526, Note_on_c, 0, 80, 0
2, 114602, Note_on_c, 0, 59, 44
2, 114616, Note_on_c, 0, 83, 44
2, 114648, Note_on_c, 0, 47, 25
2, 114854, Note_on_c, 0, 80, 42
2, 114964, Note_on_c, 0, 83, 0
2, 115048, Note_on_c, 0, 80, 0
2, 115074, Note_on_c, 0, 56, 52
2, 115098, Note_on_c, 0, 76, 24
2, 115138, Note_on_c, 0, 59, 0
2, 115194, Note_on_c, 0, 76, 0
2, 115282, Note_on_c, 0, 71, 33
2, 115384, Note_on_c, 0, 71, 0
2, 115420, Note_on_c, 0, 54, 59
2, 115448, Note_on_c, 0, 76, 37
2, 115462, Note_on_c, 0, 56, 0
2, 115524, Note_on_c, 0, 76, 0
2, 115580, Note_on_c, 0, 80, 51
2, 115742, Note_on_c, 0, 54, 0
2, 115745, Note_on_c, 0, 80, 0
2, 115760, Note_on_c, 0, 52, 65
2, 115770, Note_on_c, 0, 83, 69
2, 115792, Note_on_c, 0, 76, 26
2, 115896, Note_on_c, 0, 76, 0
2, 115924, Note_on_c, 0, 80, 49
2, 115976, Note_on_c, 0, 83, 0
2, 116090, Note_on_c, 0, 54, 78
2, 116093, Note_on_c, 0, 80, 0
2, 116124, Note_on_c, 0, 76, 40
2, 116196, Note_on_c, 0, 76, 0
2, 116216, Note_on_c, 0, 52, 0
2, 116272, Note_on_c, 0, 71, 53
2, 116370, Note_on_c, 0, 71, 0
2, 116378, Note_on_c, 0, 56, 70
2, 116420, Note_on_c, 0, 54, 0
2, 116420, Note_on_c, 0, 76, 46
2, 116508, Note_on_c, 0, 76, 0
2, 116580, Note_on_c, 0, 80, 42
2, 116734, Note_on_c, 0, 80, 0
2, 116752, Note_on_c, 0, 59, 71
2, 116754, Note_on_c, 0, 83, 80
2, 116770, Note_on_c, 0, 56, 0
2, 116772, Note_on_c, 0, 76, 31
2, 116784, Control_c, 0, 64, 0
2, 116912, Note_on_c, 0, 76, 0
2, 116922, Control_c, 0, 64, 127
2, 116928, Note_on_c, 0, 80, 42
2, 117006, Note_on_c, 0, 83, 0
2, 117106, Note_on_c, 0, 56, 74
2, 117120, Note_on_c, 0, 80, 0
2, 117128, Note_on_c, 0, 59, 0
2, 117128, Note_on_c, 0, 76, 44
2, 117210, Note_on_c, 0, 76, 0
2, 117304, Note_on_c, 0, 71, 49
2, 117398, Note_on_c, 0, 71, 0
2, 117414, Note_on_c, 0, 54, 76
2, 117434, Note_on_c, 0, 56, 0
2, 117442, Note_on_c, 0, 76, 44
2, 117516, Note_on_c, 0, 76, 0
2, 117596, Note_on_c, 0, 80, 30
2, 117740, Note_on_c, 0, 80, 0
2, 117754, Note_on_c, 0, 52, 64
2, 117756, Note_on_c, 0, 54, 0
2, 117776, Note_on_c, 0, 83, 51
2, 117798, Control_c, 0, 64, 0
2, 117804, Note_on_c, 0, 76, 13
2, 117924, Note_on_c, 0, 76, 0
2, 117928, Note_on_c, 0, 80, 39
2, 117982, Control_c, 0, 64, 127
2, 118004, Note_on_c, 0, 83, 0
2, 118118, Note_on_c, 0, 54, 72
2, 118132, Note_on_c, 0, 80, 0
2, 118140, Note_on_c, 0, 52, 0
2, 118154, Note_on_c, 0, 76, 33
2, 118238, Note_on_c, 0, 76, 0
2, 118288, Note_on_c, 0, 56, 76
2, 118310, Note_on_c, 0, 54, 0
2, 118318, Note_on_c, 0, 71, 46
2, 118426, Note_on_c, 0, 71, 0
2, 118440, Note_on_c, 0, 56, 0
2, 118462, Note_on_c, 0, 54, 85
2, 118470, Note_on_c, 0, 76, 42
2, 118538, Note_on_c, 0, 47, 0
2, 118546, Note_on_c, 0, 76, 0
2, 118570, Note_on_c, 0, 54, 0
2, 118584, Note_on_c, 0, 56, 74
2, 118596, Note_on_c, 0, 80, 52
2, 118682, Note_on_c, 0, 56, 0
2, 118748, Note_on_c, 0, 47, 51
2, 118778, Note_on_c, 0, 52, 71
2, 118806, Note_on_c, 0, 80, 0
2, 118840, Note_on_c, 0, 56, 32
2, 118846, Note_on_c, 0, 52, 0
2, 118850, Note_on_c, 0, 83, 90
2, 118864, Note_on_c, 0, 59, 86
2, 118868, Note_on_c, 0, 76, 24
2, 118872, Control_c, 0, 64, 0
2, 118900, Note_on_c, 0, 52, 17
2, 118962, Note_on_c, 0, 56, 0
2, 118970, Note_on_c, 0, 76, 0
2, 119026, Note_on_c, 0, 80, 68
2, 119058, Control_c, 0, 64, 127
2, 119106, Note_on_c, 0, 83, 0
2, 119212, Note_on_c, 0, 80, 0
2, 119212, Note_on_c, 0, 56, 83
2, 119215, Note_on_c, 0, 76, 51
2, 119224, Note_on_c, 0, 59, 0
2, 119308, Note_on_c, 0, 76, 0
2, 119366, Note_on_c, 0, 56, 0
2, 119376, Note_on_c, 0, 71, 51
2, 119442, Note_on_c, 0, 47, 0
2, 119474, Note_on_c, 0, 71, 0
2, 119506, Note_on_c, 0, 52, 0
2, 119520, Note_on_c, 0, 56, 33
2, 119530, Note_on_c, 0, 76, 55
2, 119570, Note_on_c, 0, 59, 82
2, 119584, Note_on_c, 0, 56, 0
2, 119612, Note_on_c, 0, 59, 0
2, 119712, Note_on_c, 0, 76, 0
2, 119712, Note_on_c, 0, 80, 39
2, 119730, Note_on_c, 0, 44, 82
2, 119780, Control_c, 0, 64, 0
2, 119828, Note_on_c, 0, 52, 69
2, 119884, Note_on_c, 0, 44, 0
2, 119888, Control_c, 0, 64, 127
2, 119890, Note_on_c, 0, 52, 0
2, 119898, Note_on_c, 0, 56, 68
2, 119914, Note_on_c, 0, 80, 0
2, 119944, Note_on_c, 0, 56, 0
2, 119994, Note_on_c, 0, 85, 64
2, 120028, Note_on_c, 0, 76, 36
2, 120060, Note_on_c, 0, 61, 64
2, 120208, Note_on_c, 0, 76, 0
2, 120250, Note_on_c, 0, 80, 41
2, 120254, Note_on_c, 0, 85, 0
2, 120306, Note_on_c, 0, 61, 0
2, 120340, Note_on_c, 0, 80, 0
2, 120406, Note_on_c, 0, 56, 69
2, 120416, Note_on_c, 0, 73, 44
2, 120534, Note_on_c, 0, 73, 0
2, 120552, Note_on_c, 0, 56, 0
2, 120602, Note_on_c, 0, 76, 49
2, 120678, Note_on_c, 0, 76, 0
2, 120728, Note_on_c, 0, 61, 69
2, 120802, Note_on_c, 0, 80, 28
2, 120840, Note_on_c, 0, 61, 0
2, 120952, Note_on_c, 0, 80, 0
2, 120968, Note_on_c, 0, 85, 30
2, 121040, Note_on_c, 0, 85, 0
2, 121122, Note_on_c, 0, 56, 34
2, 121124, Note_on_c, 0, 59, 46
2, 121134, Note_on_c, 0, 83, 77
2, 121154, Note_on_c, 0, 47, 29
2, 121157, Note_on_c, 0, 52, 52
2, 121172, Note_on_c, 0, 76, 19
2, 121194, Control_c, 0, 64, 0
2, 121278, Note_on_c, 0, 76, 0
2, 121312, Note_on_c, 0, 80, 39
2, 121408, Control_c, 0, 64, 127
2, 121484, Note_on_c, 0, 80, 0
2, 121496, Note_on_c, 0, 76, 28
2, 121576, Note_on_c, 0, 83, 0
2, 121600, Note_on_c, 0, 76, 0
2, 121630, Note_on_c, 0, 71, 49
2, 121776, Note_on_c, 0, 71, 0
2, 121804, Note_on_c, 0, 76, 33
2, 121888, Note_on_c, 0, 76, 0
2, 121932, Note_on_c, 0, 80, 41
2, 122042, Note_on_c, 0, 80, 0
2, 122128, Note_on_c, 0, 76, 36
2, 122138, Note_on_c, 0, 83, 40
2, 122216, Note_on_c, 0, 76, 0
2, 122274, Note_on_c, 0, 80, 47
2, 122284, Note_on_c, 0, 83, 0
2, 122392, Note_on_c, 0, 80, 0
2, 122456, Note_on_c, 0, 76, 39
2, 122540, Note_on_c, 0, 47, 0
2, 122544, Note_on_c, 0, 76, 0
2, 122574, Note_on_c, 0, 59, 0
2, 122588, Note_on_c, 0, 52, 0
2, 122602, Note_on_c, 0, 56, 0
2, 122610, Note_on_c, 0, 71, 41
2, 122708, Note_on_c, 0, 71, 0
2, 122776, Note_on_c, 0, 76, 42
2, 122848, Note_on_c, 0, 44, 56
2, 122866, Note_on_c, 0, 76, 0
2, 122918, Note_on_c, 0, 80, 39
2, 122942, Note_on_c, 0, 52, 54
2, 122960, Control_c, 0, 64, 0
2, 123052, Control_c, 0, 64, 127
2, 123052, Note_on_c, 0, 56, 55
2, 123062, Note_on_c, 0, 44, 0
2, 123104, Note_on_c, 0, 52, 0
2, 123114, Note_on_c, 0, 56, 0
2, 123116, Note_on_c, 0, 80, 0
2, 123200, Note_on_c, 0, 85, 46
2, 123226, Note_on_c, 0, 76, 24
2, 123246, Note_on_c, 0, 61, 83
2, 123334, Note_on_c, 0, 76, 0
2, 123434, Note_on_c, 0, 85, 0
2, 123456, Note_on_c, 0, 80, 51
2, 123546, Note_on_c, 0, 61, 0
2, 123614, Note_on_c, 0, 80, 0
2, 123674, Note_on_c, 0, 56, 72
2, 123686, Note_on_c, 0, 76, 32
2, 123792, Note_on_c, 0, 76, 0
2, 123842, Note_on_c, 0, 73, 44
2, 123866, Note_on_c, 0, 56, 0
2, 124002, Note_on_c, 0, 61, 79
2, 124004, Note_on_c, 0, 73, 0
2, 124026, Note_on_c, 0, 76, 45
2, 124098, Note_on_c, 0, 76, 0
2, 124126, Note_on_c, 0, 61, 0
2, 124142, Note_on_c, 0, 80, 47
2, 124308, Note_on_c, 0, 56, 41
2, 124316, Note_on_c, 0, 80, 0
2, 124324, Note_on_c, 0, 59, 70
2, 124342, Note_on_c, 0, 47, 41
2, 124356, Note_on_c, 0, 83, 67
2, 124358, Note_on_c, 0, 52, 57
2, 124382, Note_on_c, 0, 76, 17
2, 124390, Control_c, 0, 64, 0
2, 124510, Note_on_c, 0, 76, 0
2, 124513, Note_on_c, 0, 80, 55
2, 124588, Control_c, 0, 64, 127
2, 124662, Note_on_c, 0, 47, 0
2, 124674, Note_on_c, 0, 80, 0
2, 124677, Note_on_c, 0, 76, 55
2, 124694, Note_on_c, 0, 83, 0
2, 124700, Note_on_c, 0, 59, 0
2, 124760, Note_on_c, 0, 52, 0
2, 124780, Note_on_c, 0, 56, 0
2, 124810, Note_on_c, 0, 76, 0
2, 124846, Note_on_c, 0, 71, 56
2, 124968, Note_on_c, 0, 71, 0
2, 125000, Note_on_c, 0, 76, 44
2, 125044, Note_on_c, 0, 44, 69
2, 125110, Control_c, 0, 64, 0
2, 125144, Note_on_c, 0, 80, 51
2, 125158, Note_on_c, 0, 52, 79
2, 125180, Note_on_c, 0, 44, 0
2, 125188, Note_on_c, 0, 76, 0
2, 125216, Note_on_c, 0, 52, 0
2, 125216, Control_c, 0, 64, 127
2, 125219, Note_on_c, 0, 56, 85
2, 125264, Note_on_c, 0, 56, 0
2, 125318, Note_on_c, 0, 80, 0
2, 125354, Note_on_c, 0, 85, 52
2, 125394, Note_on_c, 0, 61, 92
2, 125404, Note_on_c, 0, 76, 24
2, 125526, Note_on_c, 0, 76, 0
2, 125568, Note_on_c, 0, 85, 0
2, 125596, Note_on_c, 0, 80, 52
2, 125680, Note_on_c, 0, 61, 0
2, 125762, Note_on_c, 0, 80, 0
2, 125812, Note_on_c, 0, 76, 36
2, 125836, Note_on_c, 0, 56, 65
2, 125934, Note_on_c, 0, 76, 0
2, 126014, Note_on_c, 0, 73, 49
2, 126044, Note_on_c, 0, 56, 0
2, 126134, Note_on_c, 0, 73, 0
2, 126172, Note_on_c, 0, 61, 71
2, 126202, Note_on_c, 0, 76, 37
2, 126276, Note_on_c, 0, 76, 0
2, 126294, Note_on_c, 0, 61, 0
2, 126320, Note_on_c, 0, 80, 44
2, 126494, Note_on_c, 0, 80, 0
2, 126502, Note_on_c, 0, 56, 28
2, 126502, Note_on_c, 0, 59, 59
2, 126528, Note_on_c, 0, 47, 30
2, 126534, Note_on_c, 0, 83, 51
2, 126536, Note_on_c, 0, 76, 26
2, 126540, Control_c, 0, 64, 0
2, 126556, Note_on_c, 0, 52, 40
2, 126666, Note_on_c, 0, 76, 0
2, 126676, Note_on_c, 0, 80, 46
2, 126772, Control_c, 0, 64, 127
2, 126830, Note_on_c, 0, 83, 0
2, 126842, Note_on_c, 0, 80, 0
2, 126850, Note_on_c, 0, 47, 0
2, 126852, Note_on_c, 0, 59, 0
2, 126864, Note_on_c, 0, 76, 33
2, 126904, Note_on_c, 0, 52, 0
2, 126918, Note_on_c, 0, 56, 0
2, 126946, Note_on_c, 0, 76, 0
2, 127026, Note_on_c, 0, 71, 41
2, 127122, Note_on_c, 0, 71, 0
2, 127208, Note_on_c, 0, 76, 33
2, 127272, Note_on_c, 0, 44, 46
2, 127340, Control_c, 0, 64, 0
2, 127360, Note_on_c, 0, 80, 47
2, 127362, Note_on_c, 0, 76, 0
2, 127398, Note_on_c, 0, 52, 46
2, 127446, Control_c, 0, 64, 127
2, 127448, Note_on_c, 0, 44, 0
2, 127486, Note_on_c, 0, 52, 0
2, 127528, Note_on_c, 0, 56, 41
2, 127564, Note_on_c, 0, 80, 0
2, 127676, Note_on_c, 0, 56, 0
2, 127696, Note_on_c, 0, 85, 42
2, 127714, Note_on_c, 0, 76, 22
2, 127750, Note_on_c, 0, 61, 40
2, 127836, Note_on_c, 0, 76, 0
2, 127922, Note_on_c, 0, 85, 0
2, 128000, Note_on_c, 0, 80, 26
2, 128086, Note_on_c, 0, 80, 0
2, 128174, Note_on_c, 0, 76, 23
2, 128262, Note_on_c, 0, 76, 0
2, 128288, Note_on_c, 0, 73, 34
2, 128382, Note_on_c, 0, 73, 0
2, 128450, Note_on_c, 0, 76, 30
2, 128550, Note_on_c, 0, 76, 0
2, 128598, Note_on_c, 0, 80, 39
2, 128674, Note_on_c, 0, 80, 0
2, 128742, Note_on_c, 0, 85, 38
2, 128802, Note_on_c, 0, 76, 19
2, 128914, Note_on_c, 0, 76, 0
2, 128928, Note_on_c, 0, 85, 0
2, 129138, Note_on_c, 0, 76, 26
2, 129218, Note_on_c, 0, 76, 0
2, 129296, Note_on_c, 0, 73, 26
2, 129458, Note_on_c, 0, 73, 0
2, 129496, Note_on_c, 0, 76, 30
2, 129582, Note_on_c, 0, 76, 0
2, 129714, Note_on_c, 0, 80, 18
2, 129928, Note_on_c, 0, 56, 47
2, 129956, Note_on_c, 0, 80, 0
2, 130032, Note_on_c, 0, 61, 0
2, 131310, Note_on_c, 0, 61, 28
2, 131440, Note_on_c, 0, 56, 0
2, 131518, Control_c, 0, 64, 0
2, 131640, Control_c, 0, 64, 127
2, 131928, Note_on_c, 0, 61, 0
2, 132578, Note_on_c, 0, 71, 31
2, 132590, Note_on_c, 0, 56, 14
2, 132602, Note_on_c, 0, 64, 22
2, 132602, Note_on_c, 0, 59, 23
2, 132612, Note_on_c, 0, 47, 16
2, 133024, Control_c, 0, 64, 0
2, 133050, Note_on_c, 0, 68, 42
2, 133124, Note_on_c, 0, 71, 0
2, 133178, Control_c, 0, 64, 127
2, 133326, Note_on_c, 0, 68, 0
2, 133350, Note_on_c, 0, 64, 0
2, 133370, Note_on_c, 0, 56, 0
2, 133426, Note_on_c, 0, 66, 33
2, 133478, Note_on_c, 0, 59, 0
2, 133770, Note_on_c, 0, 64, 38
2, 133774, Note_on_c, 0, 47, 0
2, 133780, Note_on_c, 0, 49, 30
2, 133780, Note_on_c, 0, 57, 28
2, 133820, Note_on_c, 0, 66, 0
2, 134084, Control_c, 0, 64, 0
2, 134114, Note_on_c, 0, 66, 45
2, 134268, Control_c, 0, 64, 127
2, 134478, Note_on_c, 0, 49, 0
2, 134492, Note_on_c, 0, 68, 39
2, 134496, Note_on_c, 0, 64, 0
2, 134576, Note_on_c, 0, 57, 0
2, 134592, Note_on_c, 0, 66, 0
2, 134922, Note_on_c, 0, 71, 47
2, 134944, Note_on_c, 0, 56, 30
2, 134947, Note_on_c, 0, 68, 0
2, 134947, Note_on_c, 0, 64, 26
2, 134996, Note_on_c, 0, 47, 18
2, 135176, Control_c, 0, 64, 0
2, 135330, Control_c, 0, 64, 127
2, 135342, Note_on_c, 0, 68, 49
2, 135398, Note_on_c, 0, 71, 0
2, 135562, Note_on_c, 0, 64, 0
2, 135586, Note_on_c, 0, 56, 0
2, 135694, Note_on_c, 0, 47, 0
2, 135708, Note_on_c, 0, 66, 37
2, 135710, Note_on_c, 0, 68, 0
2, 135864, Note_on_c, 0, 66, 0
2, 136060, Note_on_c, 0, 61, 32
2, 136062, Note_on_c, 0, 64, 51
2, 136086, Note_on_c, 0, 52, 33
2, 136090, Note_on_c, 0, 45, 22
2, 136112, Control_c, 0, 64, 0
2, 136374, Control_c, 0, 64, 127
2, 136548, Note_on_c, 0, 66, 21
2, 136558, Note_on_c, 0, 64, 0
2, 136758, Note_on_c, 0, 66, 0
2, 136766, Note_on_c, 0, 68, 42
2, 136848, Note_on_c, 0, 68, 0
2, 136918, Note_on_c, 0, 52, 0
2, 136966, Note_on_c, 0, 45, 0
2, 136980, Note_on_c, 0, 66, 42
2, 137050, Note_on_c, 0, 61, 0
2, 137144, Note_on_c, 0, 68, 54
2, 137202, Note_on_c, 0, 66, 0
2, 137352, Note_on_c, 0, 44, 44
2, 137358, Note_on_c, 0, 64, 57
2, 137370, Note_on_c, 0, 47, 25
2, 137376, Note_on_c, 0, 71, 55
2, 137379, Note_on_c, 0, 52, 40
2, 137386, Note_on_c, 0, 68, 0
2, 137404, Control_c, 0, 64, 0
2, 137664, Control_c, 0, 64, 127
2, 137744, Note_on_c, 0, 68, 59
2, 137788, Note_on_c, 0, 71, 0
2, 138098, Note_on_c, 0, 71, 84
2, 138308, Note_on_c, 0, 68, 0
2, 138440, Note_on_c, 0, 44, 0
2, 138448, Note_on_c, 0, 73, 76
2, 138470, Note_on_c, 0, 71, 0
2, 138508, Note_on_c, 0, 43, 29
2, 138534, Note_on_c, 0, 47, 0
2, 138678, Control_c, 0, 64, 0
2, 138810, Note_on_c, 0, 70, 63
2, 138816, Control_c, 0, 64, 127
2, 138860, Note_on_c, 0, 73, 0
2, 139136, Note_on_c, 0, 64, 0
2, 139148, Note_on_c, 0, 52, 0
2, 139180, Note_on_c, 0, 43, 0
2, 139192, Note_on_c, 0, 73, 63
2, 139258, Note_on_c, 0, 70, 0
2, 139362, Note_on_c, 0, 42, 34
2, 139448, Note_on_c, 0, 63, 47
2, 139458, Note_on_c, 0, 73, 0
2, 139482, Note_on_c, 0, 47, 32
2, 139540, Control_c, 0, 64, 0
2, 139594, Note_on_c, 0, 69, 51
2, 139646, Control_c, 0, 64, 127
2, 139706, Note_on_c, 0, 47, 0
2, 139714, Note_on_c, 0, 42, 0
2, 139742, Note_on_c, 0, 63, 0
2, 139756, Note_on_c, 0, 75, 55
2, 139798, Note_on_c, 0, 69, 0
2, 139856, Note_on_c, 0, 57, 29
2, 139980, Note_on_c, 0, 75, 0
2, 140000, Note_on_c, 0, 76, 40
2, 140138, Note_on_c, 0, 76, 0
2, 140150, Note_on_c, 0, 75, 54
2, 140304, Note_on_c, 0, 75, 0
2, 140304, Note_on_c, 0, 76, 61
2, 140412, Note_on_c, 0, 76, 0
2, 140438, Note_on_c, 0, 75, 51
2, 140540, Note_on_c, 0, 75, 0
2, 140560, Note_on_c, 0, 76, 47
2, 140630, Note_on_c, 0, 76, 0
2, 140634, Note_on_c, 0, 75, 56
2, 140726, Note_on_c, 0, 76, 45
2, 140729, Note_on_c, 0, 75, 0
2, 140788, Note_on_c, 0, 76, 0
2, 140810, Note_on_c, 0, 75, 64
2, 140864, Note_on_c, 0, 75, 0
2, 140867, Note_on_c, 0, 76, 51
2, 140932, Note_on_c, 0, 75, 62
2, 140936, Note_on_c, 0, 76, 0
2, 140980, Note_on_c, 0, 57, 0
2, 140994, Note_on_c, 0, 75, 0
2, 141014, Note_on_c, 0, 76, 64
2, 141058, Note_on_c, 0, 75, 71
2, 141070, Note_on_c, 0, 76, 0
2, 141154, Note_on_c, 0, 75, 0
2, 141160, Note_on_c, 0, 76, 44
2, 141218, Note_on_c, 0, 76, 0
2, 141240, Note_on_c, 0, 75, 51
2, 141286, Note_on_c, 0, 76, 69
2, 141298, Note_on_c, 0, 75, 0
2, 141372, Note_on_c, 0, 75, 59
2, 141416, Note_on_c, 0, 76, 0
2, 141518, Note_on_c, 0, 75, 0
2, 141536, Note_on_c, 0, 73, 59
2, 141646, Note_on_c, 0, 40, 48
2, 141660, Control_c, 0, 64, 0
2, 141742, Note_on_c, 0, 75, 65
2, 141754, Note_on_c, 0, 73, 0
2, 141782, Control_c, 0, 64, 127
2, 141788, Note_on_c, 0, 75, 0
2, 141822, Note_on_c, 0, 47, 28
2, 141844, Note_on_c, 0, 40, 0
2, 142016, Note_on_c, 0, 76, 51
2, 142138, Note_on_c, 0, 47, 0
2, 142148, Note_on_c, 0, 56, 42
2, 142206, Note_on_c, 0, 83, 80
2, 142336, Note_on_c, 0, 83, 0
2, 142350, Note_on_c, 0, 56, 0
2, 142358, Note_on_c, 0, 85, 54
2, 142428, Note_on_c, 0, 85, 0
2, 142486, Note_on_c, 0, 83, 64
2, 142548, Note_on_c, 0, 83, 0
2, 142586, Note_on_c, 0, 82, 40
2, 142652, Note_on_c, 0, 83, 83
2, 142658, Note_on_c, 0, 82, 0
2, 142736, Note_on_c, 0, 83, 0
2, 142776, Note_on_c, 0, 82, 33
2, 142810, Note_on_c, 0, 66, 54
2, 142832, Note_on_c, 0, 83, 86
2, 142846, Note_on_c, 0, 82, 0
2, 142856, Note_on_c, 0, 59, 19
2, 142998, Note_on_c, 0, 83, 0
2, 143026, Note_on_c, 0, 66, 0
2, 143112, Note_on_c, 0, 76, 0
2, 143134, Note_on_c, 0, 68, 55
2, 143148, Note_on_c, 0, 64, 44
2, 143214, Note_on_c, 0, 64, 0
2, 143250, Note_on_c, 0, 68, 0
2, 143450, Note_on_c, 0, 68, 53
2, 143458, Note_on_c, 0, 76, 67
2, 143478, Note_on_c, 0, 64, 36
2, 143481, Note_on_c, 0, 83, 86
2, 143528, Note_on_c, 0, 83, 0
2, 143542, Note_on_c, 0, 59, 0
2, 143548, Note_on_c, 0, 85, 62
2, 143594, Note_on_c, 0, 85, 0
2, 143594, Note_on_c, 0, 83, 102
2, 143634, Note_on_c, 0, 83, 0
2, 143670, Note_on_c, 0, 85, 67
2, 143673, Note_on_c, 0, 68, 0
2, 143704, Note_on_c, 0, 83, 100
2, 143720, Note_on_c, 0, 85, 0
2, 143728, Note_on_c, 0, 64, 0
2, 143786, Note_on_c, 0, 83, 0
2, 143800, Note_on_c, 0, 82, 64
2, 143814, Note_on_c, 0, 66, 57
2, 143854, Note_on_c, 0, 59, 40
2, 143858, Note_on_c, 0, 82, 0
2, 143874, Note_on_c, 0, 83, 91
2, 143948, Control_c, 0, 64, 0
2, 144040, Control_c, 0, 64, 127
2, 144104, Note_on_c, 0, 83, 0
2, 144104, Note_on_c, 0, 76, 0
2, 144120, Note_on_c, 0, 59, 0
2, 144122, Note_on_c, 0, 68, 74
2, 144126, Note_on_c, 0, 66, 0
2, 144184, Note_on_c, 0, 64, 37
2, 144260, Note_on_c, 0, 64, 0
2, 144268, Note_on_c, 0, 68, 0
2, 144450, Note_on_c, 0, 76, 74
2, 144464, Note_on_c, 0, 68, 61
2, 144470, Note_on_c, 0, 83, 79
2, 144520, Note_on_c, 0, 64, 36
2, 144522, Note_on_c, 0, 83, 0
2, 144538, Note_on_c, 0, 85, 67
2, 144586, Note_on_c, 0, 83, 105
2, 144622, Note_on_c, 0, 85, 0
2, 144652, Note_on_c, 0, 83, 0
2, 144692, Note_on_c, 0, 82, 52
2, 144712, Note_on_c, 0, 68, 0
2, 144744, Note_on_c, 0, 64, 0
2, 144750, Note_on_c, 0, 83, 94
2, 144754, Note_on_c, 0, 82, 0
2, 144784, Note_on_c, 0, 66, 49
2, 144820, Note_on_c, 0, 59, 29
2, 144832, Control_c, 0, 64, 0
2, 144962, Control_c, 0, 64, 127
2, 144986, Note_on_c, 0, 83, 0
2, 145006, Note_on_c, 0, 76, 0
2, 145026, Note_on_c, 0, 59, 0
2, 145050, Note_on_c, 0, 66, 0
2, 145070, Note_on_c, 0, 68, 52
2, 145192, Note_on_c, 0, 68, 0
2, 145380, Note_on_c, 0, 68, 41
2, 145410, Note_on_c, 0, 76, 38
2, 145420, Note_on_c, 0, 83, 55
2, 145432, Note_on_c, 0, 64, 31
2, 145482, Note_on_c, 0, 85, 52
2, 145485, Note_on_c, 0, 83, 0
2, 145536, Note_on_c, 0, 85, 0
2, 145570, Note_on_c, 0, 83, 59
2, 145628, Note_on_c, 0, 83, 0
2, 145636, Note_on_c, 0, 82, 42
2, 145664, Note_on_c, 0, 64, 0
2, 145698, Note_on_c, 0, 82, 0
2, 145698, Note_on_c, 0, 68, 0
2, 145714, Control_c, 0, 64, 0
2, 145732, Note_on_c, 0, 83, 86
2, 145742, Note_on_c, 0, 66, 34
2, 145780, Note_on_c, 0, 59, 26
2, 145870, Control_c, 0, 64, 127
2, 145884, Note_on_c, 0, 76, 0
2, 145890, Note_on_c, 0, 59, 0
2, 145902, Note_on_c, 0, 83, 0
2, 145952, Note_on_c, 0, 66, 0
2, 146082, Note_on_c, 0, 68, 52
2, 146098, Note_on_c, 0, 64, 55
2, 146130, Note_on_c, 0, 68, 0
2, 146148, Note_on_c, 0, 64, 0
2, 146537, Note_on_c, 0, 64, 69
2, 146546, Note_on_c, 0, 71, 68
2, 146558, Note_on_c, 0, 44, 51
2, 146570, Note_on_c, 0, 52, 49
2, 146592, Note_on_c, 0, 47, 48
2, 146920, Note_on_c, 0, 68, 75
2, 146966, Note_on_c, 0, 71, 0
2, 147254, Note_on_c, 0, 71, 97
2, 147414, Note_on_c, 0, 68, 0
2, 147582, Note_on_c, 0, 73, 72
2, 147626, Note_on_c, 0, 43, 60
2, 147638, Note_on_c, 0, 71, 0
2, 147656, Note_on_c, 0, 44, 0
2, 147760, Control_c, 0, 64, 0
2, 147824, Note_on_c, 0, 47, 0
2, 147910, Note_on_c, 0, 70, 70
2, 147913, Control_c, 0, 64, 127
2, 147956, Note_on_c, 0, 73, 0
2, 148216, Note_on_c, 0, 43, 0
2, 148228, Note_on_c, 0, 70, 0
2, 148310, Note_on_c, 0, 73, 68
2, 148322, Note_on_c, 0, 52, 0
2, 148338, Note_on_c, 0, 64, 0
2, 148438, Note_on_c, 0, 42, 34
2, 148544, Note_on_c, 0, 73, 0
2, 148564, Note_on_c, 0, 63, 62
2, 148598, Note_on_c, 0, 47, 41
2, 148666, Control_c, 0, 64, 0
2, 148718, Note_on_c, 0, 69, 46
2, 148820, Control_c, 0, 64, 127
2, 148850, Note_on_c, 0, 42, 0
2, 148878, Note_on_c, 0, 63, 0
2, 148878, Note_on_c, 0, 75, 56
2, 148918, Note_on_c, 0, 69, 0
2, 148998, Note_on_c, 0, 57, 40
2, 149076, Note_on_c, 0, 75, 0
2, 149082, Note_on_c, 0, 76, 52
2, 149174, Note_on_c, 0, 76, 0
2, 149224, Note_on_c, 0, 75, 67
2, 149334, Note_on_c, 0, 75, 0
2, 149360, Note_on_c, 0, 76, 68
2, 149476, Note_on_c, 0, 76, 0
2, 149478, Note_on_c, 0, 75, 65
2, 149582, Note_on_c, 0, 76, 54
2, 149584, Note_on_c, 0, 75, 0
2, 149662, Note_on_c, 0, 76, 0
2, 149666, Note_on_c, 0, 75, 60
2, 149744, Note_on_c, 0, 75, 0
2, 149754, Note_on_c, 0, 76, 59
2, 149818, Note_on_c, 0, 76, 0
2, 149818, Note_on_c, 0, 75, 69
2, 149866, Note_on_c, 0, 47, 0
2, 149886, Note_on_c, 0, 75, 0
2, 149916, Note_on_c, 0, 76, 52
2, 149966, Note_on_c, 0, 75, 68
2, 149972, Note_on_c, 0, 76, 0
2, 150026, Note_on_c, 0, 75, 0
2, 150046, Note_on_c, 0, 76, 63
2, 150112, Note_on_c, 0, 57, 0
2, 150112, Note_on_c, 0, 75, 62
2, 150120, Note_on_c, 0, 76, 0
2, 150172, Note_on_c, 0, 75, 0
2, 150202, Note_on_c, 0, 76, 57
2, 150280, Note_on_c, 0, 75, 42
2, 150296, Note_on_c, 0, 76, 0
2, 150420, Note_on_c, 0, 75, 0
2, 150446, Note_on_c, 0, 73, 49
2, 150652, Note_on_c, 0, 73, 0
2, 150662, Note_on_c, 0, 75, 59
2, 150670, Note_on_c, 0, 40, 52
2, 150710, Control_c, 0, 64, 0
2, 150822, Note_on_c, 0, 47, 41
2, 150862, Control_c, 0, 64, 127
2, 150888, Note_on_c, 0, 75, 0
2, 150918, Note_on_c, 0, 40, 0
2, 150926, Note_on_c, 0, 76, 76
2, 151146, Note_on_c, 0, 56, 45
2, 151154, Note_on_c, 0, 83, 87
2, 151294, Note_on_c, 0, 47, 0
2, 151308, Note_on_c, 0, 83, 0
2, 151318, Note_on_c, 0, 85, 71
2, 151380, Note_on_c, 0, 56, 0
2, 151434, Note_on_c, 0, 85, 0
2, 151453, Note_on_c, 0, 83, 85
2, 151522, Note_on_c, 0, 83, 0
2, 151546, Note_on_c, 0, 85, 61
2, 151606, Note_on_c, 0, 85, 0
2, 151628, Note_on_c, 0, 83, 78
2, 151678, Note_on_c, 0, 83, 0
2, 151698, Note_on_c, 0, 85, 56
2, 151780, Note_on_c, 0, 66, 55
2, 151782, Note_on_c, 0, 83, 47
2, 151802, Note_on_c, 0, 59, 48
2, 151805, Note_on_c, 0, 85, 0
2, 151872, Note_on_c, 0, 83, 0
2, 151902, Note_on_c, 0, 82, 37
2, 152000, Note_on_c, 0, 82, 0
2, 152030, Note_on_c, 0, 83, 42
2, 152112, Note_on_c, 0, 83, 0
2, 152124, Note_on_c, 0, 66, 0
2, 152134, Note_on_c, 0, 68, 62
2, 152178, Note_on_c, 0, 64, 47
2, 152258, Note_on_c, 0, 64, 0
2, 152261, Note_on_c, 0, 68, 0
2, 152330, Note_on_c, 0, 76, 0
2, 152480, Note_on_c, 0, 76, 67
2, 152500, Note_on_c, 0, 68, 53
2, 152510, Note_on_c, 0, 59, 0
2, 152516, Note_on_c, 0, 83, 59
2, 152532, Note_on_c, 0, 64, 41
2, 152582, Note_on_c, 0, 83, 0
2, 152594, Note_on_c, 0, 85, 52
2, 152644, Note_on_c, 0, 85, 0
2, 152652, Note_on_c, 0, 83, 75
2, 152698, Note_on_c, 0, 83, 0
2, 152706, Note_on_c, 0, 85, 71
2, 152720, Note_on_c, 0, 64, 0
2, 152758, Note_on_c, 0, 68, 0
2, 152776, Note_on_c, 0, 83, 79
2, 152800, Note_on_c, 0, 66, 48
2, 152806, Note_on_c, 0, 85, 0
2, 152824, Note_on_c, 0, 59, 38
2, 152850, Note_on_c, 0, 83, 0
2, 152888, Note_on_c, 0, 82, 53
2, 152924, Note_on_c, 0, 76, 0
2, 152956, Note_on_c, 0, 82, 0
2, 152968, Note_on_c, 0, 83, 71
2, 153024, Note_on_c, 0, 83, 0
2, 153044, Note_on_c, 0, 66, 0
2, 153060, Note_on_c, 0, 59, 0
2, 153138, Note_on_c, 0, 68, 69
2, 153176, Note_on_c, 0, 64, 42
2, 153184, Note_on_c, 0, 68, 0
2, 153238, Note_on_c, 0, 64, 0
2, 153536, Note_on_c, 0, 63, 60
2, 153554, Note_on_c, 0, 42, 55
2, 153588, Control_c, 0, 64, 0
2, 153666, Note_on_c, 0, 47, 52
2, 153690, Note_on_c, 0, 69, 49
2, 153736, Control_c, 0, 64, 127
2, 153746, Note_on_c, 0, 42, 0
2, 153758, Note_on_c, 0, 63, 0
2, 153770, Note_on_c, 0, 47, 0
2, 153822, Note_on_c, 0, 75, 59
2, 153825, Note_on_c, 0, 69, 0
2, 153886, Note_on_c, 0, 57, 41
2, 153964, Note_on_c, 0, 75, 0
2, 153966, Note_on_c, 0, 76, 34
2, 154052, Note_on_c, 0, 75, 56
2, 154055, Note_on_c, 0, 76, 0
2, 154170, Note_on_c, 0, 75, 0
2, 154178, Note_on_c, 0, 76, 46
2, 154250, Note_on_c, 0, 75, 60
2, 154256, Note_on_c, 0, 76, 0
2, 154352, Note_on_c, 0, 75, 0
2, 154358, Note_on_c, 0, 76, 52
2, 154422, Note_on_c, 0, 76, 0
2, 154425, Note_on_c, 0, 75, 63
2, 154500, Note_on_c, 0, 75, 0
2, 154514, Note_on_c, 0, 76, 53
2, 154576, Note_on_c, 0, 76, 0
2, 154584, Note_on_c, 0, 75, 63
2, 154654, Note_on_c, 0, 75, 0
2, 154676, Note_on_c, 0, 76, 53
2, 154730, Note_on_c, 0, 57, 0
2, 154742, Note_on_c, 0, 76, 0
2, 154748, Note_on_c, 0, 75, 64
2, 154806, Note_on_c, 0, 75, 0
2, 154834, Note_on_c, 0, 76, 61
2, 154910, Note_on_c, 0, 75, 53
2, 154920, Note_on_c, 0, 76, 0
2, 154970, Note_on_c, 0, 75, 0
2, 155000, Note_on_c, 0, 76, 67
2, 155078, Note_on_c, 0, 76, 0
2, 155090, Note_on_c, 0, 75, 48
2, 155162, Note_on_c, 0, 75, 0
2, 155184, Note_on_c, 0, 76, 51
2, 155274, Note_on_c, 0, 76, 0
2, 155304, Note_on_c, 0, 75, 45
2, 155394, Note_on_c, 0, 75, 0
2, 155430, Note_on_c, 0, 73, 53
2, 155540, Note_on_c, 0, 40, 63
2, 155550, Control_c, 0, 64, 0
2, 155592, Note_on_c, 0, 73, 0
2, 155594, Note_on_c, 0, 75, 61
2, 155646, Note_on_c, 0, 75, 0
2, 155686, Note_on_c, 0, 47, 39
2, 155688, Control_c, 0, 64, 127
2, 155702, Note_on_c, 0, 40, 0
2, 155840, Note_on_c, 0, 76, 56
2, 155898, Note_on_c, 0, 47, 0
2, 155918, Note_on_c, 0, 56, 55
2, 156000, Note_on_c, 0, 56, 0
2, 156008, Note_on_c, 0, 83, 78
2, 156060, Note_on_c, 0, 83, 0
2, 156100, Note_on_c, 0, 85, 53
2, 156162, Note_on_c, 0, 85, 0
2, 156198, Note_on_c, 0, 83, 69
2, 156252, Note_on_c, 0, 83, 0
2, 156260, Note_on_c, 0, 85, 46
2, 156338, Note_on_c, 0, 83, 70
2, 156350, Note_on_c, 0, 85, 0
2, 156402, Note_on_c, 0, 66, 52
2, 156448, Note_on_c, 0, 59, 28
2, 156476, Note_on_c, 0, 83, 0
2, 156518, Note_on_c, 0, 82, 33
2, 156544, Note_on_c, 0, 76, 0
2, 156590, Note_on_c, 0, 66, 0
2, 156610, Note_on_c, 0, 82, 0
2, 156624, Note_on_c, 0, 83, 74
2, 156664, Note_on_c, 0, 59, 0
2, 156678, Note_on_c, 0, 83, 0
2, 156794, Note_on_c, 0, 68, 51
2, 156808, Note_on_c, 0, 64, 53
2, 156846, Note_on_c, 0, 68, 0
2, 156862, Note_on_c, 0, 64, 0
2, 157122, Note_on_c, 0, 63, 48
2, 157132, Note_on_c, 0, 42, 45
2, 157162, Control_c, 0, 64, 0
2, 157216, Note_on_c, 0, 47, 47
2, 157240, Note_on_c, 0, 69, 45
2, 157274, Note_on_c, 0, 63, 0
2, 157286, Control_c, 0, 64, 127
2, 157296, Note_on_c, 0, 42, 0
2, 157324, Note_on_c, 0, 69, 0
2, 157338, Note_on_c, 0, 47, 0
2, 157344, Note_on_c, 0, 75, 60
2, 157360, Note_on_c, 0, 57, 52
2, 157432, Note_on_c, 0, 75, 0
2, 157530, Note_on_c, 0, 75, 61
2, 157610, Note_on_c, 0, 75, 0
2, 157626, Note_on_c, 0, 76, 48
2, 157670, Note_on_c, 0, 75, 82
2, 157684, Note_on_c, 0, 76, 0
2, 157710, Note_on_c, 0, 57, 0
2, 157726, Note_on_c, 0, 75, 0
2, 157756, Note_on_c, 0, 76, 71
2, 157808, Note_on_c, 0, 75, 62
2, 157820, Note_on_c, 0, 76, 0
2, 157906, Note_on_c, 0, 76, 52
2, 157918, Note_on_c, 0, 75, 0
2, 157984, Note_on_c, 0, 75, 82
2, 157986, Note_on_c, 0, 76, 0
2, 158096, Note_on_c, 0, 75, 0
2, 158108, Note_on_c, 0, 73, 55
2, 158162, Control_c, 0, 64, 0
2, 158188, Note_on_c, 0, 40, 64
2, 158202, Note_on_c, 0, 75, 45
2, 158218, Note_on_c, 0, 73, 0
2, 158256, Note_on_c, 0, 75, 0
2, 158284, Control_c, 0, 64, 127
2, 158306, Note_on_c, 0, 40, 0
2, 158314, Note_on_c, 0, 47, 33
2, 158366, Note_on_c, 0, 76, 60
2, 158458, Note_on_c, 0, 47, 0
2, 158470, Note_on_c, 0, 56, 48
2, 158506, Note_on_c, 0, 83, 90
2, 158526, Note_on_c, 0, 56, 0
2, 158556, Note_on_c, 0, 83, 0
2, 158608, Note_on_c, 0, 85, 60
2, 158666, Note_on_c, 0, 85, 0
2, 158702, Note_on_c, 0, 83, 86
2, 158748, Note_on_c, 0, 83, 0
2, 158762, Note_on_c, 0, 85, 51
2, 158820, Note_on_c, 0, 83, 88
2, 158828, Note_on_c, 0, 85, 0
2, 158854, Note_on_c, 0, 66, 55
2, 158878, Note_on_c, 0, 59, 37
2, 158894, Note_on_c, 0, 83, 0
2, 158912, Note_on_c, 0, 85, 59
2, 158984, Note_on_c, 0, 83, 78
2, 158994, Note_on_c, 0, 85, 0
2, 159036, Note_on_c, 0, 83, 0
2, 159084, Note_on_c, 0, 85, 62
2, 159090, Note_on_c, 0, 66, 0
2, 159102, Note_on_c, 0, 59, 0
2, 159136, Note_on_c, 0, 85, 0
2, 159196, Note_on_c, 0, 68, 49
2, 159200, Note_on_c, 0, 83, 11
2, 159218, Note_on_c, 0, 76, 0
2, 159221, Note_on_c, 0, 64, 44
2, 159260, Note_on_c, 0, 68, 0
2, 159268, Note_on_c, 0, 83, 0
2, 159276, Note_on_c, 0, 64, 0
2, 159288, Note_on_c, 0, 82, 30
2, 159418, Note_on_c, 0, 83, 67
2, 159434, Note_on_c, 0, 82, 0
2, 159480, Note_on_c, 0, 83, 0
2, 159642, Note_on_c, 0, 42, 38
2, 159714, Control_c, 0, 64, 0
2, 159720, Note_on_c, 0, 47, 25
2, 159720, Note_on_c, 0, 63, 48
2, 159836, Note_on_c, 0, 69, 41
2, 159866, Control_c, 0, 64, 127
2, 159870, Note_on_c, 0, 42, 0
2, 159896, Note_on_c, 0, 63, 0
2, 159966, Note_on_c, 0, 57, 32
2, 159972, Note_on_c, 0, 75, 47
2, 159974, Note_on_c, 0, 69, 0
2, 160096, Note_on_c, 0, 75, 0
2, 160114, Note_on_c, 0, 76, 42
2, 160182, Note_on_c, 0, 76, 0
2, 160232, Note_on_c, 0, 75, 44
2, 160292, Note_on_c, 0, 75, 0
2, 160304, Note_on_c, 0, 76, 40
2, 160370, Note_on_c, 0, 75, 49
2, 160374, Note_on_c, 0, 76, 0
2, 160460, Note_on_c, 0, 75, 0
2, 160460, Note_on_c, 0, 76, 48
2, 160516, Note_on_c, 0, 76, 0
2, 160546, Note_on_c, 0, 75, 48
2, 160594, Note_on_c, 0, 76, 48
2, 160608, Note_on_c, 0, 75, 0
2, 160656, Note_on_c, 0, 76, 0
2, 160694, Note_on_c, 0, 75, 52
2, 160746, Note_on_c, 0, 76, 42
2, 160752, Note_on_c, 0, 75, 0
2, 160766, Note_on_c, 0, 57, 0
2, 160818, Note_on_c, 0, 76, 0
2, 160828, Note_on_c, 0, 75, 49
2, 160892, Note_on_c, 0, 75, 0
2, 160916, Note_on_c, 0, 57, 7
2, 160920, Note_on_c, 0, 76, 26
2, 160988, Note_on_c, 0, 75, 34
2, 161004, Note_on_c, 0, 76, 0
2, 161098, Note_on_c, 0, 75, 0
2, 161152, Note_on_c, 0, 73, 40
2, 161202, Control_c, 0, 64, 0
2, 161296, Control_c, 0, 64, 127
2, 161494, Note_on_c, 0, 73, 0
2, 161608, Note_on_c, 0, 75, 21
2, 161864, Control_c, 0, 64, 0
2, 161992, Note_on_c, 0, 57, 0
2, 162018, Control_c, 0, 64, 127
2, 162074, Note_on_c, 0, 47, 0
2, 162240, Note_on_c, 0, 75, 0
2, 162462, Control_c, 0, 64, 0
2, 162970, Control_c, 0, 64, 127
2, 164426, Note_on_c, 0, 63, 52
2, 164448, Note_on_c, 0, 54, 30
2, 164460, Note_on_c, 0, 57, 29
2, 164470, Note_on_c, 0, 59, 32
2, 164506, Note_on_c, 0, 35, 25
2, 164506, Note_on_c, 0, 47, 15
2, 165236, Note_on_c, 0, 54, 0
2, 165494, Note_on_c, 0, 57, 0
2, 165552, Note_on_c, 0, 59, 0
2, 165572, Note_on_c, 0, 47, 0
2, 165594, Note_on_c, 0, 63, 0
2, 165636, Note_on_c, 0, 35, 0
2, 166434, Note_on_c, 0, 63, 68
2, 166462, Note_on_c, 0, 54, 31
2, 166472, Note_on_c, 0, 59, 29
2, 166496, Note_on_c, 0, 47, 22
2, 166496, Note_on_c, 0, 57, 22
2, 166504, Note_on_c, 0, 35, 38
2, 166746, Note_on_c, 0, 54, 0
2, 166816, Note_on_c, 0, 47, 0
2, 166932, Note_on_c, 0, 57, 0
2, 166966, Note_on_c, 0, 35, 0
2, 167102, Note_on_c, 0, 59, 0
2, 167272, Note_on_c, 0, 63, 0
2, 167914, Note_on_c, 0, 64, 46
2, 167934, Note_on_c, 0, 57, 15
2, 167950, Note_on_c, 0, 54, 11
2, 167970, Note_on_c, 0, 35, 26
2, 167970, Note_on_c, 0, 47, 13
2, 167982, Note_on_c, 0, 59, 21
2, 168026, Control_c, 0, 64, 0
2, 168286, Control_c, 0, 64, 127
2, 168336, Note_on_c, 0, 35, 0
2, 168378, Note_on_c, 0, 54, 0
2, 168444, Note_on_c, 0, 47, 0
2, 168486, Note_on_c, 0, 57, 0
2, 168560, Note_on_c, 0, 59, 0
2, 168932, Note_on_c, 0, 40, 54
2, 168932, Control_c, 0, 64, 0
2, 169094, Note_on_c, 0, 64, 0
2, 169116, Control_c, 0, 64, 127
2, 169190, Note_on_c, 0, 47, 47
2, 169216, Note_on_c, 0, 40, 0
2, 169498, Note_on_c, 0, 83, 72
2, 169564, Note_on_c, 0, 56, 44
2, 169968, Note_on_c, 0, 80, 57
2, 170034, Note_on_c, 0, 83, 0
2, 170288, Note_on_c, 0, 78, 63
2, 170342, Note_on_c, 0, 80, 0
2, 170604, Note_on_c, 0, 76, 59
2, 170604, Note_on_c, 0, 49, 52
2, 170624, Note_on_c, 0, 78, 0
2, 170638, Note_on_c, 0, 47, 0
2, 170940, Note_on_c, 0, 78, 72
2, 171000, Note_on_c, 0, 76, 0
2, 171278, Note_on_c, 0, 80, 75
2, 171318, Note_on_c, 0, 78, 0
2, 171616, Note_on_c, 0, 83, 100
2, 171620, Note_on_c, 0, 47, 39
2, 171624, Note_on_c, 0, 80, 0
2, 171644, Note_on_c, 0, 49, 0
2, 171980, Note_on_c, 0, 80, 75
2, 172030, Note_on_c, 0, 83, 0
2, 172290, Note_on_c, 0, 78, 64
2, 172336, Note_on_c, 0, 80, 0
2, 172596, Note_on_c, 0, 47, 0
2, 172622, Note_on_c, 0, 78, 0
2, 172644, Note_on_c, 0, 76, 37
2, 172696, Note_on_c, 0, 49, 29
2, 173014, Note_on_c, 0, 78, 44
2, 173038, Note_on_c, 0, 76, 0
2, 173196, Note_on_c, 0, 78, 0
2, 173204, Note_on_c, 0, 80, 47
2, 173282, Note_on_c, 0, 80, 0
2, 173370, Note_on_c, 0, 56, 0
2, 173392, Note_on_c, 0, 78, 44
2, 173408, Note_on_c, 0, 49, 0
2, 173496, Note_on_c, 0, 78, 0
2, 173598, Note_on_c, 0, 80, 67
2, 173644, Note_on_c, 0, 80, 0
2, 173998, Note_on_c, 0, 71, 65
2, 174024, Note_on_c, 0, 68, 28
2, 174034, Note_on_c, 0, 47, 30
2, 174046, Note_on_c, 0, 59, 13
2, 174049, Note_on_c, 0, 64, 26
2, 174310, Control_c, 0, 64, 0
2, 174414, Note_on_c, 0, 44, 55
2, 174478, Control_c, 0, 64, 127
2, 174514, Note_on_c, 0, 68, 0
2, 174564, Note_on_c, 0, 64, 0
2, 174586, Note_on_c, 0, 59, 0
2, 174628, Note_on_c, 0, 71, 0
2, 174768, Note_on_c, 0, 42, 52
2, 174790, Note_on_c, 0, 44, 0
2, 175050, Note_on_c, 0, 42, 0
2, 175080, Note_on_c, 0, 73, 53
2, 175104, Note_on_c, 0, 61, 38
2, 175120, Note_on_c, 0, 40, 57
2, 175122, Note_on_c, 0, 68, 25
2, 175128, Note_on_c, 0, 47, 0
2, 175148, Note_on_c, 0, 64, 42
2, 175170, Control_c, 0, 64, 0
2, 175446, Note_on_c, 0, 42, 55
2, 175452, Note_on_c, 0, 40, 0
2, 175478, Control_c, 0, 64, 127
2, 175586, Control_c, 0, 64, 0
2, 175798, Note_on_c, 0, 42, 0
2, 175818, Note_on_c, 0, 44, 42
2, 175836, Note_on_c, 0, 68, 0
2, 175846, Control_c, 0, 64, 127
2, 175870, Note_on_c, 0, 64, 0
2, 175960, Note_on_c, 0, 73, 0
2, 175992, Note_on_c, 0, 61, 0
2, 176166, Note_on_c, 0, 44, 0
2, 176216, Note_on_c, 0, 71, 71
2, 176242, Note_on_c, 0, 59, 33
2, 176244, Note_on_c, 0, 68, 29
2, 176250, Note_on_c, 0, 47, 41
2, 176258, Note_on_c, 0, 64, 37
2, 176430, Control_c, 0, 64, 0
2, 176590, Note_on_c, 0, 44, 54
2, 176632, Note_on_c, 0, 47, 0
2, 176644, Control_c, 0, 64, 127
2, 176649, Note_on_c, 0, 68, 0
2, 176796, Note_on_c, 0, 64, 0
2, 176832, Note_on_c, 0, 59, 0
2, 176840, Note_on_c, 0, 71, 0
2, 176952, Note_on_c, 0, 44, 0
2, 176962, Note_on_c, 0, 42, 34
2, 177316, Note_on_c, 0, 42, 0
2, 177362, Note_on_c, 0, 73, 34
2, 177370, Note_on_c, 0, 61, 31
2, 177378, Note_on_c, 0, 40, 37
2, 177402, Note_on_c, 0, 68, 17
2, 177440, Note_on_c, 0, 64, 25
2, 177536, Control_c, 0, 64, 0
2, 177782, Note_on_c, 0, 42, 47
2, 177794, Note_on_c, 0, 40, 0
2, 177890, Control_c, 0, 64, 127
2, 177990, Note_on_c, 0, 42, 0
2, 178018, Note_on_c, 0, 44, 48
2, 178120, Control_c, 0, 64, 0
2, 178274, Note_on_c, 0, 42, 42
2, 178274, Control_c, 0, 64, 127
2, 178298, Note_on_c, 0, 44, 0
2, 178320, Control_c, 0, 64, 0
2, 178424, Note_on_c, 0, 64, 0
2, 178550, Control_c, 0, 64, 127
2, 178598, Note_on_c, 0, 42, 0
2, 178638, Note_on_c, 0, 44, 37
2, 178702, Note_on_c, 0, 44, 0
2, 178806, Note_on_c, 0, 61, 0
2, 178958, Note_on_c, 0, 68, 0
2, 179052, Note_on_c, 0, 47, 37
2, 179134, Control_c, 0, 64, 0
2, 179238, Note_on_c, 0, 73, 0
2, 179286, Note_on_c, 0, 56, 44
2, 179318, Control_c, 0, 64, 127
2, 179348, Note_on_c, 0, 47, 0
2, 179420, Note_on_c, 0, 56, 0
2, 179488, Note_on_c, 0, 59, 46
2, 179666, Note_on_c, 0, 59, 0
2, 179696, Note_on_c, 0, 83, 94
2, 179712, Note_on_c, 0, 80, 41
2, 179724, Note_on_c, 0, 71, 30
2, 179746, Note_on_c, 0, 64, 31
2, 179752, Note_on_c, 0, 76, 14
2, 180080, Note_on_c, 0, 64, 0
2, 180882, Note_on_c, 0, 71, 0
2, 181002, Note_on_c, 0, 76, 0
2, 181364, Note_on_c, 0, 80, 0
2, 181646, Note_on_c, 0, 44, 31
2, 181746, Control_c, 0, 64, 0
2, 181846, Note_on_c, 0, 52, 44
2, 181854, Note_on_c, 0, 83, 0
2, 181946, Control_c, 0, 64, 127
2, 181984, Note_on_c, 0, 52, 0
2, 181996, Note_on_c, 0, 44, 0
2, 182038, Note_on_c, 0, 56, 38
2, 182310, Note_on_c, 0, 56, 0
2, 182406, Note_on_c, 0, 85, 41
2, 182433, Note_on_c, 0, 73, 16
2, 182454, Note_on_c, 0, 80, 24
2, 182496, Note_on_c, 0, 61, 40
2, 182504, Note_on_c, 0, 76, 9
2, 182694, Note_on_c, 0, 61, 0
2, 183546, Note_on_c, 0, 73, 0
2, 183800, Note_on_c, 0, 76, 0
2, 184586, Note_on_c, 0, 80, 0
2, 184891, Note_on_c, 0, 40, 45
2, 184988, Control_c, 0, 64, 0
2, 185172, Control_c, 0, 64, 127
2, 185190, Note_on_c, 0, 47, 37
2, 185218, Note_on_c, 0, 40, 0
2, 185302, Note_on_c, 0, 47, 0
2, 185418, Note_on_c, 0, 52, 40
2, 185520, Note_on_c, 0, 52, 0
2, 185536, Note_on_c, 0, 85, 0
2, 185556, Note_on_c, 0, 56, 51
2, 185708, Note_on_c, 0, 56, 0
2, 185744, Note_on_c, 0, 59, 49
2, 185822, Note_on_c, 0, 59, 0
2, 185894, Note_on_c, 0, 64, 49
2, 186074, Note_on_c, 0, 64, 0
2, 186104, Note_on_c, 0, 76, 32
2, 186284, Note_on_c, 0, 80, 42
2, 186519, Note_on_c, 0, 83, 57
2, 186966, Note_on_c, 0, 88, 53
2, 188088, Note_on_c, 0, 28, 19
2, 188280, Note_on_c, 0, 28, 0
2, 188354, Note_on_c, 0, 40, 30
2, 188430, Note_on_c, 0, 40, 0
2, 188452, Note_on_c, 0, 28, 18
2, 188542, Note_on_c, 0, 28, 0
2, 188552, Note_on_c, 0, 40, 49
2, 188612, Note_on_c, 0, 40, 0
2, 188652, Note_on_c, 0, 28, 37
2, 188720, Note_on_c, 0, 40, 49
2, 188730, Note_on_c, 0, 28, 0
2, 188780, Note_on_c, 0, 40, 0
2, 188790, Note_on_c, 0, 28, 26
2, 188852, Note_on_c, 0, 28, 0
2, 188866, Note_on_c, 0, 40, 48
2, 188922, Note_on_c, 0, 40, 0
2, 188938, Note_on_c, 0, 28, 53
2, 189000, Note_on_c, 0, 40, 49
2, 189014, Note_on_c, 0, 28, 0
2, 189060, Note_on_c, 0, 40, 0
2, 189088, Note_on_c, 0, 28, 30
2, 189160, Note_on_c, 0, 40, 49
2, 189184, Note_on_c, 0, 28, 0
2, 189220, Note_on_c, 0, 40, 0
2, 189256, Note_on_c, 0, 28, 19
2, 189326, Note_on_c, 0, 28, 0
2, 189328, Note_on_c, 0, 40, 40
2, 189402, Note_on_c, 0, 40, 0
2, 189426, Note_on_c, 0, 28, 42
2, 189500, Note_on_c, 0, 40, 49
2, 189506, Note_on_c, 0, 28, 0
2, 189552, Note_on_c, 0, 28, 19
2, 189560, Note_on_c, 0, 40, 0
2, 189624, Note_on_c, 0, 28, 0
2, 189646, Note_on_c, 0, 40, 39
2, 189704, Note_on_c, 0, 40, 0
2, 189720, Note_on_c, 0, 28, 40
2, 189784, Note_on_c, 0, 40, 46
2, 189789, Note_on_c, 0, 28, 0
2, 189848, Note_on_c, 0, 40, 0
2, 189860, Note_on_c, 0, 28, 32
2, 189964, Note_on_c, 0, 28, 0
2, 189970, Note_on_c, 0, 40, 25
2, 190032, Note_on_c, 0, 40, 0
2, 190040, Note_on_c, 0, 28, 36
2, 190106, Note_on_c, 0, 28, 0
2, 190120, Note_on_c, 0, 40, 44
2, 190178, Note_on_c, 0, 40, 0
2, 190180, Note_on_c, 0, 28, 36
2, 190246, Note_on_c, 0, 28, 0
2, 190248, Note_on_c, 0, 40, 25
2, 190310, Note_on_c, 0, 40, 0
2, 190318, Note_on_c, 0, 28, 36
2, 190384, Note_on_c, 0, 28, 0
2, 190398, Note_on_c, 0, 40, 44
2, 190456, Note_on_c, 0, 40, 0
2, 190466, Note_on_c, 0, 28, 46
2, 190530, Note_on_c, 0, 40, 49
2, 190542, Note_on_c, 0, 28, 0
2, 190590, Note_on_c, 0, 40, 0
2, 190618, Note_on_c, 0, 28, 13
2, 190700, Note_on_c, 0, 40, 16
2, 190720, Note_on_c, 0, 28, 0
2, 190762, Note_on_c, 0, 40, 0
2, 190790, Note_on_c, 0, 28, 29
2, 190860, Note_on_c, 0, 40, 19
2, 190862, Note_on_c, 0, 28, 0
2, 190924, Note_on_c, 0, 40, 0
2, 190930, Note_on_c, 0, 28, 29
2, 191000, Note_on_c, 0, 40, 32
2, 191002, Note_on_c, 0, 28, 0
2, 191066, Note_on_c, 0, 40, 0
2, 191082, Note_on_c, 0, 28, 22
2, 191150, Note_on_c, 0, 40, 49
2, 191160, Note_on_c, 0, 28, 0
2, 191210, Note_on_c, 0, 40, 0
2, 191226, Note_on_c, 0, 28, 23
2, 191290, Note_on_c, 0, 40, 49
2, 191306, Note_on_c, 0, 28, 0
2, 191350, Note_on_c, 0, 40, 0
2, 191394, Note_on_c, 0, 28, 26
2, 191470, Note_on_c, 0, 28, 0
2, 191494, Note_on_c, 0, 40, 13
2, 191542, Note_on_c, 0, 40, 0
2, 191550, Note_on_c, 0, 28, 29
2, 191622, Note_on_c, 0, 28, 0
2, 191642, Note_on_c, 0, 40, 29
2, 191708, Note_on_c, 0, 40, 0
2, 191716, Note_on_c, 0, 28, 23
2, 191788, Note_on_c, 0, 40, 16
2, 191800, Note_on_c, 0, 28, 0
2, 191860, Note_on_c, 0, 28, 29
2, 191880, Note_on_c, 0, 40, 0
2, 191932, Note_on_c, 0, 28, 0
2, 191950, Note_on_c, 0, 40, 13
2, 192034, Note_on_c, 0, 40, 0
2, 192054, Note_on_c, 0, 28, 11
2, 192128, Note_on_c, 0, 28, 0
2, 192148, Note_on_c, 0, 40, 9
2, 192216, Note_on_c, 0, 40, 0
2, 192240, Note_on_c, 0, 28, 29
2, 192312, Note_on_c, 0, 28, 0
2, 192330, Note_on_c, 0, 40, 14
2, 192396, Note_on_c, 0, 40, 0
2, 192399, Note_on_c, 0, 28, 13
2, 192492, Note_on_c, 0, 28, 0
2, 192570, Note_on_c, 0, 28, 13
2, 192832, Note_on_c, 0, 28, 0
2, 192902, Note_on_c, 0, 28, 8
2, 192992, Note_on_c, 0, 40, 13
2, 192994, Note_on_c, 0, 28, 0
2, 193096, Note_on_c, 0, 40, 0
2, 193168, Note_on_c, 0, 28, 7
2, 193940, Note_on_c, 0, 28, 0
2, 195486, Note_on_c, 0, 88, 0
2, 195546, Note_on_c, 0, 76, 0
2, 195604, Note_on_c, 0, 83, 0
2, 195608, Note_on_c, 0, 80, 0
2, 195760, Control_c, 0, 64, 0
2, 195840, Control_c, 0, 64, 0
2, 199680, Control_c, 0, 64, 127
2, 199680, Control_c, 0, 64, 0
2, 199680, Control_c, 0, 64, 127
2, 199680, Note_on_c, 0, 54, 44
2, 199686, Note_on_c, 0, 50, 37
2, 199698, Note_on_c, 0, 35, 32
2, 199701, Note_on_c, 0, 47, 17
2, 200064, Note_on_c, 0, 47, 0
2, 200402, Note_on_c, 0, 54, 0
2, 200548, Note_on_c, 0, 54, 36
2, 200564, Note_on_c, 0, 59, 67
2, 200582, Note_on_c, 0, 38, 33
2, 200584, Note_on_c, 0, 47, 17
2, 200622, Note_on_c, 0, 50, 0
2, 200714, Note_on_c, 0, 35, 0
2, 200778, Control_c, 0, 64, 0
2, 200978, Control_c, 0, 64, 127
2, 201066, Note_on_c, 0, 47, 0
2, 201092, Note_on_c, 0, 54, 0
2, 201095, Note_on_c, 0, 59, 0
2, 201468, Note_on_c, 0, 61, 48
2, 201470, Note_on_c, 0, 54, 38
2, 201486, Note_on_c, 0, 49, 19
2, 201494, Note_on_c, 0, 58, 19
2, 201508, Note_on_c, 0, 42, 24
2, 201722, Note_on_c, 0, 38, 0
2, 201762, Control_c, 0, 64, 0
2, 202270, Control_c, 0, 64, 127
2, 202644, Note_on_c, 0, 58, 0
2, 202668, Note_on_c, 0, 54, 0
2, 202672, Note_on_c, 0, 49, 0
2, 202978, Note_on_c, 0, 42, 0
2, 203102, Note_on_c, 0, 61, 0
2, 203636, Note_on_c, 0, 54, 45
2, 203664, Note_on_c, 0, 50, 38
2, 203676, Note_on_c, 0, 47, 25
2, 203684, Note_on_c, 0, 35, 32
2, 203944, Control_c, 0, 64, 0
2, 204224, Note_on_c, 0, 47, 0
2, 204252, Control_c, 0, 64, 127
2, 204326, Note_on_c, 0, 54, 0
2, 204522, Note_on_c, 0, 59, 75
2, 204528, Note_on_c, 0, 54, 54
2, 204528, Note_on_c, 0, 38, 49
2, 204540, Note_on_c, 0, 47, 28
2, 204650, Note_on_c, 0, 50, 0
2, 204724, Note_on_c, 0, 35, 0
2, 204804, Control_c, 0, 64, 0
2, 204974, Control_c, 0, 64, 127
2, 205040, Note_on_c, 0, 47, 0
2, 205086, Note_on_c, 0, 54, 0
2, 205108, Note_on_c, 0, 59, 0
2, 205408, Note_on_c, 0, 61, 64
2, 205420, Note_on_c, 0, 58, 30
2, 205420, Note_on_c, 0, 54, 38
2, 205420, Note_on_c, 0, 49, 29
2, 205432, Note_on_c, 0, 42, 38
2, 205558, Note_on_c, 0, 38, 0
2, 205664, Control_c, 0, 64, 0
2, 206294, Control_c, 0, 64, 127
2, 206560, Note_on_c, 0, 49, 0
2, 206752, Note_on_c, 0, 58, 0
2, 206864, Note_on_c, 0, 54, 0
2, 207176, Note_on_c, 0, 61, 0
2, 207538, Note_on_c, 0, 62, 59
2, 207548, Note_on_c, 0, 50, 34
2, 207556, Note_on_c, 0, 47, 32
2, 207568, Note_on_c, 0, 35, 45
2, 207572, Note_on_c, 0, 42, 0
2, 207754, Control_c, 0, 64, 0
2, 208016, Control_c, 0, 64, 127
2, 208252, Note_on_c, 0, 50, 0
2, 208294, Note_on_c, 0, 62, 0
2, 208466, Note_on_c, 0, 61, 70
2, 208482, Note_on_c, 0, 37, 45
2, 208492, Note_on_c, 0, 52, 46
2, 208548, Note_on_c, 0, 35, 0
2, 208730, Control_c, 0, 64, 0
2, 208830, Control_c, 0, 64, 127
2, 208870, Note_on_c, 0, 54, 76
2, 208882, Note_on_c, 0, 37, 0
2, 208882, Note_on_c, 0, 38, 61
2, 209000, Control_c, 0, 64, 0
2, 209022, Note_on_c, 0, 52, 0
2, 209122, Control_c, 0, 64, 127
2, 209136, Note_on_c, 0, 47, 0
2, 209162, Note_on_c, 0, 54, 0
2, 209348, Note_on_c, 0, 55, 57
2, 209350, Note_on_c, 0, 59, 62
2, 209360, Note_on_c, 0, 40, 64
2, 209374, Note_on_c, 0, 47, 15
2, 209428, Note_on_c, 0, 61, 0
2, 209444, Note_on_c, 0, 38, 0
2, 209584, Control_c, 0, 64, 0
2, 209830, Control_c, 0, 64, 127
2, 210008, Note_on_c, 0, 55, 0
2, 210192, Note_on_c, 0, 54, 56
2, 210204, Note_on_c, 0, 61, 60
2, 210228, Note_on_c, 0, 38, 44
2, 210256, Note_on_c, 0, 40, 0
2, 210288, Note_on_c, 0, 59, 0
2, 210490, Control_c, 0, 64, 0
2, 210588, Note_on_c, 0, 62, 82
2, 210658, Control_c, 0, 64, 127
2, 210660, Note_on_c, 0, 61, 0
2, 210708, Note_on_c, 0, 47, 0
2, 210792, Note_on_c, 0, 62, 0
2, 210800, Note_on_c, 0, 54, 0
2, 210880, Note_on_c, 0, 38, 0
2, 211016, Note_on_c, 0, 64, 85
2, 211042, Note_on_c, 0, 52, 67
2, 211060, Note_on_c, 0, 37, 39
2, 211060, Note_on_c, 0, 47, 29
2, 211288, Control_c, 0, 64, 0
2, 211504, Control_c, 0, 64, 127
2, 211648, Note_on_c, 0, 64, 0
2, 211840, Note_on_c, 0, 37, 0
2, 211856, Note_on_c, 0, 54, 64
2, 211856, Note_on_c, 0, 62, 62
2, 211864, Note_on_c, 0, 52, 0
2, 211864, Note_on_c, 0, 38, 33
2, 212272, Control_c, 0, 64, 0
2, 212302, Note_on_c, 0, 56, 48
2, 212310, Note_on_c, 0, 54, 0
2, 212326, Note_on_c, 0, 38, 0
2, 212336, Note_on_c, 0, 40, 46
2, 212532, Control_c, 0, 64, 127
2, 212602, Note_on_c, 0, 62, 0
2, 212832, Note_on_c, 0, 47, 0
2, 212910, Note_on_c, 0, 49, 30
2, 212910, Note_on_c, 0, 61, 45
2, 212913, Note_on_c, 0, 40, 0
2, 212924, Note_on_c, 0, 58, 24
2, 212942, Note_on_c, 0, 42, 21
2, 213076, Note_on_c, 0, 56, 0
2, 213118, Control_c, 0, 64, 0
2, 213470, Control_c, 0, 64, 127
2, 213968, Note_on_c, 0, 49, 0
2, 214102, Note_on_c, 0, 61, 0
2, 214104, Note_on_c, 0, 42, 0
2, 214114, Note_on_c, 0, 58, 0
2, 214746, Control_c, 0, 64, 0
2, 215250, Note_on_c, 0, 54, 42
2, 215272, Note_on_c, 0, 50, 34
2, 215292, Note_on_c, 0, 47, 22
2, 215306, Note_on_c, 0, 35, 33
2, 215560, Control_c, 0, 64, 127
2, 215634, Note_on_c, 0, 47, 0
2, 215794, Note_on_c, 0, 54, 0
2, 216086, Note_on_c, 0, 59, 53
2, 216098, Note_on_c, 0, 54, 55
2, 216120, Note_on_c, 0, 38, 38
2, 216126, Note_on_c, 0, 47, 30
2, 216190, Note_on_c, 0, 50, 0
2, 216266, Note_on_c, 0, 35, 0
2, 216328, Control_c, 0, 64, 0
2, 216558, Control_c, 0, 64, 127
2, 216664, Note_on_c, 0, 47, 0
2, 216674, Note_on_c, 0, 54, 0
2, 216728, Note_on_c, 0, 59, 0
2, 217138, Note_on_c, 0, 61, 34
2, 217160, Note_on_c, 0, 38, 0
2, 217164, Note_on_c, 0, 53, 55
2, 217182, Note_on_c, 0, 59, 37
2, 217192, Note_on_c, 0, 49, 18
2, 217192, Note_on_c, 0, 43, 30
2, 217328, Control_c, 0, 64, 0
2, 218064, Control_c, 0, 64, 127
2, 218298, Note_on_c, 0, 53, 0
2, 218378, Note_on_c, 0, 49, 0
2, 218450, Note_on_c, 0, 43, 0
2, 218482, Note_on_c, 0, 59, 0
2, 218916, Note_on_c, 0, 61, 0
2, 219288, Note_on_c, 0, 54, 52
2, 219316, Note_on_c, 0, 50, 45
2, 219332, Note_on_c, 0, 47, 29
2, 219342, Note_on_c, 0, 35, 41
2, 219432, Control_c, 0, 64, 0
2, 219750, Note_on_c, 0, 47, 0
2, 219786, Control_c, 0, 64, 127
2, 219864, Note_on_c, 0, 54, 0
2, 220116, Note_on_c, 0, 59, 69
2, 220130, Note_on_c, 0, 47, 32
2, 220134, Note_on_c, 0, 54, 51
2, 220138, Note_on_c, 0, 38, 48
2, 220188, Note_on_c, 0, 50, 0
2, 220318, Note_on_c, 0, 35, 0
2, 220368, Control_c, 0, 64, 0
2, 220554, Control_c, 0, 64, 127
2, 220684, Note_on_c, 0, 47, 0
2, 220722, Note_on_c, 0, 59, 0
2, 221078, Note_on_c, 0, 61, 51
2, 221088, Note_on_c, 0, 49, 25
2, 221090, Note_on_c, 0, 53, 71
2, 221100, Note_on_c, 0, 43, 29
2, 221110, Note_on_c, 0, 59, 33
2, 221136, Note_on_c, 0, 38, 0
2, 221152, Note_on_c, 0, 54, 0
2, 221476, Control_c, 0, 64, 0
2, 222028, Control_c, 0, 64, 127
2, 222392, Note_on_c, 0, 53, 0
2, 222522, Note_on_c, 0, 49, 0
2, 222530, Note_on_c, 0, 59, 0
2, 222842, Note_on_c, 0, 61, 0
2, 223186, Note_on_c, 0, 64, 82
2, 223196, Note_on_c, 0, 43, 0
2, 223216, Note_on_c, 0, 52, 39
2, 223216, Note_on_c, 0, 37, 36
2, 223219, Note_on_c, 0, 49, 31
2, 223236, Note_on_c, 0, 59, 37
2, 223442, Control_c, 0, 64, 0
2, 223642, Control_c, 0, 64, 127
2, 223694, Note_on_c, 0, 52, 0
2, 223714, Note_on_c, 0, 64, 0
2, 223746, Note_on_c, 0, 59, 0
2, 223886, Note_on_c, 0, 49, 0
2, 223892, Note_on_c, 0, 37, 0
2, 224054, Note_on_c, 0, 54, 57
2, 224057, Note_on_c, 0, 62, 83
2, 224074, Note_on_c, 0, 59, 52
2, 224077, Note_on_c, 0, 38, 45
2, 224092, Note_on_c, 0, 50, 33
2, 224196, Control_c, 0, 64, 0
2, 224318, Control_c, 0, 64, 127
2, 224320, Note_on_c, 0, 50, 0
2, 224320, Note_on_c, 0, 38, 0
2, 224436, Note_on_c, 0, 56, 65
2, 224440, Note_on_c, 0, 52, 68
2, 224462, Note_on_c, 0, 59, 0
2, 224462, Note_on_c, 0, 40, 67
2, 224468, Note_on_c, 0, 54, 0
2, 224564, Note_on_c, 0, 62, 0
2, 224616, Note_on_c, 0, 52, 0
2, 224640, Note_on_c, 0, 40, 0
2, 224864, Note_on_c, 0, 61, 80
2, 224867, Note_on_c, 0, 49, 48
2, 224872, Note_on_c, 0, 58, 52
2, 224888, Note_on_c, 0, 54, 68
2, 224903, Note_on_c, 0, 42, 38
2, 224966, Note_on_c, 0, 56, 0
2, 225072, Control_c, 0, 64, 0
2, 225304, Note_on_c, 0, 49, 0
2, 225318, Control_c, 0, 64, 127
2, 225394, Note_on_c, 0, 58, 0
2, 225400, Note_on_c, 0, 54, 0
2, 225604, Note_on_c, 0, 61, 0
2, 225674, Note_on_c, 0, 42, 0
2, 225686, Note_on_c, 0, 56, 62
2, 225696, Note_on_c, 0, 62, 72
2, 225706, Note_on_c, 0, 52, 52
2, 225706, Note_on_c, 0, 40, 63
2, 225720, Note_on_c, 0, 59, 51
2, 225994, Note_on_c, 0, 62, 0
2, 226116, Note_on_c, 0, 59, 0
2, 226116, Note_on_c, 0, 64, 85
2, 226116, Note_on_c, 0, 61, 46
2, 226126, Note_on_c, 0, 55, 71
2, 226172, Note_on_c, 0, 56, 0
2, 226288, Note_on_c, 0, 64, 0
2, 226318, Note_on_c, 0, 61, 0
2, 226356, Note_on_c, 0, 52, 0
2, 226376, Note_on_c, 0, 40, 0
2, 226620, Note_on_c, 0, 58, 55
2, 226626, Note_on_c, 0, 54, 62
2, 226662, Note_on_c, 0, 38, 39
2, 226665, Note_on_c, 0, 50, 33
2, 226670, Control_c, 0, 64, 0
2, 226686, Note_on_c, 0, 55, 0
2, 226900, Note_on_c, 0, 50, 0
2, 226946, Control_c, 0, 64, 127
2, 227176, Control_c, 0, 64, 0
2, 227206, Note_on_c, 0, 37, 26
2, 227209, Note_on_c, 0, 49, 19
2, 227212, Note_on_c, 0, 52, 48
2, 227232, Note_on_c, 0, 54, 0
2, 227244, Note_on_c, 0, 38, 0
2, 227498, Control_c, 0, 64, 127
2, 227584, Note_on_c, 0, 49, 0
2, 227652, Note_on_c, 0, 52, 0
2, 227708, Note_on_c, 0, 37, 0
2, 227928, Note_on_c, 0, 59, 38
2, 227956, Note_on_c, 0, 54, 38
2, 227986, Note_on_c, 0, 50, 33
2, 227996, Note_on_c, 0, 47, 16
2, 228014, Note_on_c, 0, 35, 26
2, 228036, Control_c, 0, 64, 0
2, 228052, Note_on_c, 0, 58, 0
2, 228758, Control_c, 0, 64, 127
2, 228984, Note_on_c, 0, 47, 0
2, 229536, Note_on_c, 0, 50, 0
2, 229650, Note_on_c, 0, 54, 0
2, 229650, Note_on_c, 0, 35, 0
2, 229658, Note_on_c, 0, 59, 0
2, 230156, Control_c, 0, 64, 0
2, 230478, Note_on_c, 0, 61, 75
2, 230484, Note_on_c, 0, 57, 55
2, 230492, Note_on_c, 0, 54, 62
2, 230498, Note_on_c, 0, 42, 53
2, 230540, Control_c, 0, 64, 127
2, 230866, Note_on_c, 0, 57, 0
2, 231050, Note_on_c, 0, 42, 0
2, 231068, Note_on_c, 0, 54, 0
2, 231068, Note_on_c, 0, 61, 0
2, 231308, Note_on_c, 0, 66, 82
2, 231314, Note_on_c, 0, 45, 62
2, 231316, Note_on_c, 0, 61, 78
2, 231318, Note_on_c, 0, 57, 59
2, 231556, Control_c, 0, 64, 0
2, 231786, Control_c, 0, 64, 127
2, 231810, Note_on_c, 0, 57, 0
2, 231828, Note_on_c, 0, 61, 0
2, 231894, Note_on_c, 0, 45, 0
2, 231918, Note_on_c, 0, 66, 0
2, 232146, Note_on_c, 0, 68, 82
2, 232152, Note_on_c, 0, 61, 69
2, 232154, Note_on_c, 0, 56, 70
2, 232164, Note_on_c, 0, 49, 63
2, 232166, Note_on_c, 0, 65, 57
2, 232522, Control_c, 0, 64, 0
2, 233076, Control_c, 0, 64, 127
2, 233172, Note_on_c, 0, 56, 0
2, 233210, Note_on_c, 0, 61, 0
2, 233254, Note_on_c, 0, 65, 0
2, 233280, Note_on_c, 0, 68, 0
2, 233676, Note_on_c, 0, 49, 0
2, 233906, Note_on_c, 0, 61, 84
2, 233924, Note_on_c, 0, 57, 54
2, 233926, Note_on_c, 0, 42, 44
2, 233930, Note_on_c, 0, 54, 57
2, 234090, Control_c, 0, 64, 0
2, 234398, Control_c, 0, 64, 127
2, 234502, Note_on_c, 0, 54, 0
2, 234620, Note_on_c, 0, 61, 0
2, 234722, Note_on_c, 0, 66, 87
2, 234728, Note_on_c, 0, 61, 59
2, 234740, Note_on_c, 0, 54, 76
2, 234746, Note_on_c, 0, 45, 62
2, 234826, Note_on_c, 0, 57, 0
2, 234906, Note_on_c, 0, 42, 0
2, 234950, Control_c, 0, 64, 0
2, 235182, Control_c, 0, 64, 127
2, 235220, Note_on_c, 0, 61, 0
2, 235296, Note_on_c, 0, 54, 0
2, 235324, Note_on_c, 0, 66, 0
2, 235516, Note_on_c, 0, 56, 72
2, 235516, Note_on_c, 0, 68, 86
2, 235522, Note_on_c, 0, 61, 76
2, 235532, Note_on_c, 0, 65, 63
2, 235540, Note_on_c, 0, 45, 0
2, 235544, Note_on_c, 0, 49, 55
2, 235810, Control_c, 0, 64, 0
2, 236334, Control_c, 0, 64, 127
2, 236468, Note_on_c, 0, 56, 0
2, 236620, Note_on_c, 0, 65, 0
2, 236736, Note_on_c, 0, 61, 0
2, 237010, Note_on_c, 0, 68, 0
2, 237302, Note_on_c, 0, 69, 77
2, 237310, Note_on_c, 0, 42, 48
2, 237320, Note_on_c, 0, 57, 48
2, 237322, Note_on_c, 0, 54, 47
2, 237378, Note_on_c, 0, 49, 0
2, 237440, Control_c, 0, 64, 0
2, 237702, Control_c, 0, 64, 127
2, 237878, Note_on_c, 0, 57, 0
2, 238054, Note_on_c, 0, 68, 82
2, 238078, Note_on_c, 0, 59, 48
2, 238080, Note_on_c, 0, 44, 57
2, 238136, Note_on_c, 0, 69, 0
2, 238160, Note_on_c, 0, 42, 0
2, 238330, Control_c, 0, 64, 0
2, 238430, Note_on_c, 0, 61, 83
2, 238460, Note_on_c, 0, 45, 56
2, 238484, Control_c, 0, 64, 127
2, 238492, Note_on_c, 0, 44, 0
2, 238550, Note_on_c, 0, 59, 0
2, 238642, Note_on_c, 0, 54, 0
2, 238680, Note_on_c, 0, 61, 0
2, 238826, Note_on_c, 0, 66, 83
2, 238838, Note_on_c, 0, 62, 65
2, 238840, Note_on_c, 0, 54, 61
2, 238856, Note_on_c, 0, 47, 55
2, 238892, Note_on_c, 0, 45, 0
2, 238966, Note_on_c, 0, 68, 0
2, 239052, Control_c, 0, 64, 0
2, 239330, Control_c, 0, 64, 127
2, 239434, Note_on_c, 0, 62, 0
2, 239592, Note_on_c, 0, 68, 78
2, 239604, Note_on_c, 0, 61, 64
2, 239638, Note_on_c, 0, 45, 60
2, 239656, Note_on_c, 0, 47, 0
2, 239680, Note_on_c, 0, 66, 0
2, 239852, Control_c, 0, 64, 0
2, 239966, Note_on_c, 0, 69, 92
2, 240036, Control_c, 0, 64, 127
2, 240046, Note_on_c, 0, 68, 0
2, 240142, Note_on_c, 0, 54, 0
2, 240198, Note_on_c, 0, 69, 0
2, 240214, Note_on_c, 0, 61, 0
2, 240366, Note_on_c, 0, 71, 102
2, 240378, Note_on_c, 0, 54, 60
2, 240378, Note_on_c, 0, 59, 60
2, 240404, Note_on_c, 0, 44, 55
2, 240414, Note_on_c, 0, 45, 0
2, 240544, Control_c, 0, 64, 0
2, 240882, Control_c, 0, 64, 127
2, 241064, Note_on_c, 0, 71, 0
2, 241196, Note_on_c, 0, 69, 60
2, 241204, Note_on_c, 0, 61, 57
2, 241230, Note_on_c, 0, 45, 45
2, 241232, Note_on_c, 0, 59, 0
2, 241244, Note_on_c, 0, 44, 0
2, 241282, Control_c, 0, 64, 0
2, 241480, Control_c, 0, 64, 127
2, 241572, Control_c, 0, 64, 0
2, 241622, Note_on_c, 0, 61, 0
2, 241632, Note_on_c, 0, 63, 54
2, 241652, Note_on_c, 0, 45, 0
2, 241658, Note_on_c, 0, 47, 44
2, 241834, Control_c, 0, 64, 127
2, 241848, Note_on_c, 0, 69, 0
2, 242060, Note_on_c, 0, 54, 0
2, 242178, Note_on_c, 0, 56, 41
2, 242181, Note_on_c, 0, 68, 47
2, 242192, Note_on_c, 0, 65, 33
2, 242212, Note_on_c, 0, 47, 0
2, 242234, Note_on_c, 0, 49, 28
2, 242264, Control_c, 0, 64, 0
2, 242278, Note_on_c, 0, 63, 0
2, 242880, Control_c, 0, 64, 127
2, 243058, Note_on_c, 0, 56, 0
2, 243080, Note_on_c, 0, 49, 0
2, 243108, Note_on_c, 0, 65, 0
2, 243111, Note_on_c, 0, 68, 0
2, 243816, Note_on_c, 0, 61, 59
2, 243822, Note_on_c, 0, 57, 46
2, 243842, Note_on_c, 0, 54, 47
2, 243852, Note_on_c, 0, 42, 41
2, 244124, Control_c, 0, 64, 0
2, 244400, Control_c, 0, 64, 127
2, 244444, Note_on_c, 0, 54, 0
2, 244544, Note_on_c, 0, 61, 0
2, 244640, Note_on_c, 0, 61, 59
2, 244642, Note_on_c, 0, 66, 78
2, 244652, Note_on_c, 0, 54, 80
2, 244672, Note_on_c, 0, 45, 56
2, 244802, Note_on_c, 0, 57, 0
2, 244810, Note_on_c, 0, 42, 0
2, 245254, Note_on_c, 0, 66, 0
2, 245390, Note_on_c, 0, 54, 0
2, 245490, Note_on_c, 0, 68, 82
2, 245496, Note_on_c, 0, 60, 78
2, 245499, Note_on_c, 0, 56, 79
2, 245499, Note_on_c, 0, 66, 67
2, 245522, Note_on_c, 0, 50, 72
2, 245688, Note_on_c, 0, 61, 0
2, 245830, Control_c, 0, 64, 0
2, 245838, Note_on_c, 0, 45, 0
2, 246306, Control_c, 0, 64, 127
2, 246722, Note_on_c, 0, 60, 0
2, 246756, Note_on_c, 0, 56, 0
2, 247392, Note_on_c, 0, 61, 71
2, 247400, Note_on_c, 0, 57, 48
2, 247404, Note_on_c, 0, 42, 40
2, 247410, Note_on_c, 0, 54, 53
2, 247444, Note_on_c, 0, 68, 0
2, 247452, Note_on_c, 0, 50, 0
2, 247466, Note_on_c, 0, 66, 0
2, 247626, Control_c, 0, 64, 0
2, 247996, Control_c, 0, 64, 127
2, 248050, Note_on_c, 0, 54, 0
2, 248092, Note_on_c, 0, 61, 0
2, 248198, Note_on_c, 0, 66, 83
2, 248200, Note_on_c, 0, 61, 68
2, 248210, Note_on_c, 0, 54, 78
2, 248228, Note_on_c, 0, 45, 61
2, 248320, Note_on_c, 0, 57, 0
2, 248368, Note_on_c, 0, 42, 0
2, 248548, Control_c, 0, 64, 0
2, 248748, Control_c, 0, 64, 127
2, 248924, Note_on_c, 0, 66, 0
2, 248928, Note_on_c, 0, 54, 0
2, 249058, Note_on_c, 0, 68, 91
2, 249066, Note_on_c, 0, 56, 80
2, 249068, Note_on_c, 0, 60, 83
2, 249080, Note_on_c, 0, 66, 76
2, 249096, Note_on_c, 0, 50, 60
2, 249262, Note_on_c, 0, 61, 0
2, 249364, Note_on_c, 0, 45, 0
2, 249456, Control_c, 0, 64, 0
2, 249962, Control_c, 0, 64, 127
2, 250252, Note_on_c, 0, 56, 0
2, 250486, Note_on_c, 0, 66, 0
2, 250512, Note_on_c, 0, 60, 0
2, 250770, Note_on_c, 0, 68, 0
2, 251000, Note_on_c, 0, 71, 106
2, 251006, Note_on_c, 0, 56, 64
2, 251008, Note_on_c, 0, 59, 72
2, 251010, Note_on_c, 0, 44, 68
2, 251014, Note_on_c, 0, 66, 64
2, 251080, Note_on_c, 0, 50, 0
2, 251222, Control_c, 0, 64, 0
2, 251530, Control_c, 0, 64, 127
2, 251578, Note_on_c, 0, 71, 0
2, 251704, Note_on_c, 0, 44, 0
2, 251710, Note_on_c, 0, 59, 0
2, 251710, Note_on_c, 0, 66, 0
2, 251710, Note_on_c, 0, 56, 0
2, 251768, Note_on_c, 0, 61, 75
2, 251770, Note_on_c, 0, 69, 85
2, 251780, Note_on_c, 0, 66, 77
2, 251780, Note_on_c, 0, 57, 67
2, 251784, Note_on_c, 0, 45, 61
2, 251884, Control_c, 0, 64, 0
2, 252032, Note_on_c, 0, 45, 0
2, 252034, Note_on_c, 0, 57, 0
2, 252036, Control_c, 0, 64, 127
2, 252152, Note_on_c, 0, 63, 94
2, 252158, Note_on_c, 0, 59, 83
2, 252170, Note_on_c, 0, 47, 64
2, 252204, Note_on_c, 0, 69, 0
2, 252236, Note_on_c, 0, 66, 0
2, 252250, Note_on_c, 0, 61, 0
2, 252558, Note_on_c, 0, 59, 0
2, 252590, Note_on_c, 0, 56, 74
2, 252596, Note_on_c, 0, 68, 85
2, 252608, Note_on_c, 0, 61, 74
2, 252610, Note_on_c, 0, 65, 71
2, 252612, Note_on_c, 0, 49, 85
2, 252644, Note_on_c, 0, 47, 0
2, 252659, Note_on_c, 0, 63, 0
2, 252836, Control_c, 0, 64, 0
2, 253098, Control_c, 0, 64, 127
2, 253130, Note_on_c, 0, 56, 0
2, 253138, Note_on_c, 0, 65, 0
2, 253154, Note_on_c, 0, 61, 0
2, 253388, Note_on_c, 0, 68, 0
2, 253446, Note_on_c, 0, 69, 78
2, 253454, Note_on_c, 0, 63, 74
2, 253457, Note_on_c, 0, 66, 63
2, 253460, Note_on_c, 0, 47, 74
2, 253464, Note_on_c, 0, 49, 0
2, 253470, Note_on_c, 0, 59, 67
2, 253736, Note_on_c, 0, 66, 0
2, 253750, Note_on_c, 0, 69, 0
2, 253860, Note_on_c, 0, 71, 99
2, 253872, Note_on_c, 0, 62, 85
2, 253878, Note_on_c, 0, 68, 55
2, 253896, Note_on_c, 0, 63, 0
2, 254018, Note_on_c, 0, 68, 0
2, 254050, Note_on_c, 0, 71, 0
2, 254120, Note_on_c, 0, 59, 0
2, 254282, Note_on_c, 0, 47, 0
2, 254350, Note_on_c, 0, 61, 76
2, 254354, Note_on_c, 0, 65, 84
2, 254376, Note_on_c, 0, 45, 47
2, 254384, Note_on_c, 0, 57, 32
2, 254422, Note_on_c, 0, 62, 0
2, 254464, Control_c, 0, 64, 0
2, 254610, Note_on_c, 0, 57, 0
2, 254696, Control_c, 0, 64, 127
2, 254890, Note_on_c, 0, 44, 54
2, 254894, Note_on_c, 0, 56, 34
2, 254894, Note_on_c, 0, 59, 55
2, 254928, Note_on_c, 0, 45, 0
2, 254940, Control_c, 0, 64, 0
2, 254946, Note_on_c, 0, 61, 0
2, 255202, Control_c, 0, 64, 127
2, 255270, Note_on_c, 0, 56, 0
2, 255322, Note_on_c, 0, 59, 0
2, 255550, Note_on_c, 0, 61, 36
2, 255552, Note_on_c, 0, 44, 0
2, 255555, Note_on_c, 0, 57, 37
2, 255555, Note_on_c, 0, 66, 37
2, 255559, Note_on_c, 0, 54, 37
2, 255568, Note_on_c, 0, 42, 25
2, 255632, Control_c, 0, 64, 0
2, 255744, Note_on_c, 0, 65, 0
2, 256232, Control_c, 0, 64, 127
2, 256452, Note_on_c, 0, 54, 0
2, 257204, Note_on_c, 0, 57, 0
2, 257224, Note_on_c, 0, 42, 0
2, 257278, Note_on_c, 0, 61, 0
2, 257300, Note_on_c, 0, 66, 0
2, 257430, Control_c, 0, 64, 0
2, 257770, Note_on_c, 0, 66, 91
2, 257772, Note_on_c, 0, 54, 95
2, 257782, Note_on_c, 0, 47, 77
2, 257784, Note_on_c, 0, 62, 87
2, 257790, Note_on_c, 0, 59, 76
2, 257792, Note_on_c, 0, 35, 77
2, 257906, Control_c, 0, 64, 127
2, 258100, Note_on_c, 0, 35, 0
2, 258102, Note_on_c, 0, 54, 0
2, 258178, Note_on_c, 0, 59, 0
2, 258212, Note_on_c, 0, 47, 0
2, 258232, Note_on_c, 0, 62, 0
2, 258328, Note_on_c, 0, 66, 0
2, 258618, Note_on_c, 0, 71, 117
2, 258628, Note_on_c, 0, 59, 100
2, 258631, Note_on_c, 0, 66, 80
2, 258634, Note_on_c, 0, 50, 93
2, 258636, Note_on_c, 0, 38, 84
2, 258874, Control_c, 0, 64, 0
2, 259004, Note_on_c, 0, 38, 0
2, 259012, Control_c, 0, 64, 127
2, 259030, Note_on_c, 0, 59, 0
2, 259088, Note_on_c, 0, 50, 0
2, 259174, Note_on_c, 0, 66, 0
2, 259282, Note_on_c, 0, 42, 84
2, 259344, Note_on_c, 0, 49, 83
2, 259350, Control_c, 0, 64, 0
2, 259352, Note_on_c, 0, 71, 0
2, 259502, Note_on_c, 0, 73, 108
2, 259505, Note_on_c, 0, 42, 0
2, 259505, Note_on_c, 0, 61, 103
2, 259520, Note_on_c, 0, 66, 71
2, 259534, Control_c, 0, 64, 127
2, 259558, Note_on_c, 0, 58, 83
2, 260188, Note_on_c, 0, 61, 0
2, 260206, Note_on_c, 0, 49, 0
2, 260262, Note_on_c, 0, 58, 0
2, 260374, Note_on_c, 0, 73, 0
2, 260382, Note_on_c, 0, 66, 0
2, 261164, Note_on_c, 0, 66, 92
2, 261172, Note_on_c, 0, 54, 97
2, 261186, Note_on_c, 0, 47, 85
2, 261188, Note_on_c, 0, 62, 88
2, 261188, Note_on_c, 0, 35, 98
2, 261196, Note_on_c, 0, 59, 75
2, 261332, Control_c, 0, 64, 0
2, 261558, Note_on_c, 0, 54, 0
2, 261578, Control_c, 0, 64, 127
2, 261596, Note_on_c, 0, 35, 0
2, 261616, Note_on_c, 0, 59, 0
2, 261660, Note_on_c, 0, 62, 0
2, 261708, Note_on_c, 0, 47, 0
2, 261720, Note_on_c, 0, 66, 0
2, 261936, Note_on_c, 0, 71, 121
2, 261946, Note_on_c, 0, 59, 92
2, 261949, Note_on_c, 0, 50, 100
2, 261953, Note_on_c, 0, 66, 78
2, 261953, Note_on_c, 0, 38, 90
2, 262132, Control_c, 0, 64, 0
2, 262300, Control_c, 0, 64, 127
2, 262320, Note_on_c, 0, 38, 0
2, 262412, Note_on_c, 0, 50, 0
2, 262464, Note_on_c, 0, 59, 0
2, 262552, Note_on_c, 0, 66, 0
2, 262554, Note_on_c, 0, 42, 88
2, 262608, Control_c, 0, 64, 0
2, 262638, Note_on_c, 0, 49, 82
2, 262726, Note_on_c, 0, 71, 0
2, 262774, Note_on_c, 0, 42, 0
2, 262776, Control_c, 0, 64, 127
2, 262798, Note_on_c, 0, 73, 106
2, 262806, Note_on_c, 0, 61, 94
2, 262820, Note_on_c, 0, 66, 68
2, 262826, Note_on_c, 0, 58, 79
2, 263486, Note_on_c, 0, 49, 0
2, 263512, Note_on_c, 0, 58, 0
2, 263674, Note_on_c, 0, 61, 0
2, 264028, Note_on_c, 0, 73, 0
2, 264268, Note_on_c, 0, 74, 110
2, 264270, Note_on_c, 0, 47, 67
2, 264276, Note_on_c, 0, 35, 82
2, 264280, Note_on_c, 0, 62, 78
2, 264344, Note_on_c, 0, 66, 0
2, 264436, Control_c, 0, 64, 0
2, 264636, Control_c, 0, 64, 127
2, 264724, Note_on_c, 0, 74, 0
2, 264802, Note_on_c, 0, 62, 0
2, 264920, Note_on_c, 0, 47, 0
2, 264968, Note_on_c, 0, 35, 0
2, 265040, Note_on_c, 0, 73, 95
2, 265048, Note_on_c, 0, 61, 68
2, 265050, Note_on_c, 0, 37, 84
2, 265062, Note_on_c, 0, 47, 70
2, 265070, Note_on_c, 0, 64, 70
2, 265250, Control_c, 0, 64, 0
2, 265372, Control_c, 0, 64, 127
2, 265400, Note_on_c, 0, 47, 0
2, 265426, Note_on_c, 0, 38, 92
2, 265430, Note_on_c, 0, 66, 95
2, 265460, Note_on_c, 0, 37, 0
2, 265504, Note_on_c, 0, 73, 0
2, 265606, Note_on_c, 0, 61, 0
2, 265612, Note_on_c, 0, 64, 0
2, 265790, Note_on_c, 0, 40, 97
2, 265802, Note_on_c, 0, 71, 114
2, 265805, Note_on_c, 0, 47, 68
2, 265812, Note_on_c, 0, 59, 76
2, 265820, Note_on_c, 0, 67, 82
2, 265846, Note_on_c, 0, 38, 0
2, 265868, Note_on_c, 0, 66, 0
2, 265942, Control_c, 0, 64, 0
2, 266172, Control_c, 0, 64, 127
2, 266250, Note_on_c, 0, 71, 0
2, 266258, Note_on_c, 0, 59, 0
2, 266276, Note_on_c, 0, 67, 0
2, 266302, Note_on_c, 0, 47, 0
2, 266502, Note_on_c, 0, 73, 105
2, 266514, Note_on_c, 0, 61, 92
2, 266514, Note_on_c, 0, 66, 79
2, 266530, Note_on_c, 0, 38, 80
2, 266533, Note_on_c, 0, 47, 71
2, 266542, Note_on_c, 0, 40, 0
2, 266694, Control_c, 0, 64, 0
2, 266816, Control_c, 0, 64, 127
2, 266828, Note_on_c, 0, 61, 0
2, 266840, Note_on_c, 0, 73, 0
2, 266880, Note_on_c, 0, 74, 121
2, 266890, Note_on_c, 0, 62, 95
2, 267014, Note_on_c, 0, 47, 0
2, 267142, Note_on_c, 0, 62, 0
2, 267194, Note_on_c, 0, 38, 0
2, 267200, Note_on_c, 0, 74, 0
2, 267204, Note_on_c, 0, 66, 0
2, 267326, Note_on_c, 0, 76, 114
2, 267340, Note_on_c, 0, 47, 72
2, 267340, Note_on_c, 0, 64, 94
2, 267350, Note_on_c, 0, 37, 74
2, 267586, Control_c, 0, 64, 0
2, 267846, Control_c, 0, 64, 127
2, 267900, Note_on_c, 0, 47, 0
2, 267960, Note_on_c, 0, 76, 0
2, 267980, Note_on_c, 0, 64, 0
2, 268104, Note_on_c, 0, 37, 0
2, 268107, Note_on_c, 0, 74, 105
2, 268107, Note_on_c, 0, 66, 59
2, 268118, Note_on_c, 0, 62, 75
2, 268124, Note_on_c, 0, 38, 68
2, 268124, Note_on_c, 0, 47, 53
2, 268292, Control_c, 0, 64, 0
2, 268438, Note_on_c, 0, 66, 0
2, 268462, Control_c, 0, 64, 127
2, 268474, Note_on_c, 0, 38, 0
2, 268506, Note_on_c, 0, 68, 85
2, 268518, Note_on_c, 0, 40, 86
2, 268556, Note_on_c, 0, 62, 0
2, 268582, Note_on_c, 0, 40, 0
2, 268630, Note_on_c, 0, 47, 0
2, 268784, Note_on_c, 0, 42, 78
2, 268846, Control_c, 0, 64, 0
2, 268892, Note_on_c, 0, 49, 68
2, 268960, Note_on_c, 0, 68, 0
2, 268978, Note_on_c, 0, 74, 0
2, 269030, Control_c, 0, 64, 127
2, 269048, Note_on_c, 0, 42, 0
2, 269102, Note_on_c, 0, 73, 85
2, 269106, Note_on_c, 0, 61, 82
2, 269116, Note_on_c, 0, 70, 64
2, 269154, Note_on_c, 0, 58, 60
2, 270002, Note_on_c, 0, 58, 0
2, 270008, Note_on_c, 0, 61, 0
2, 270028, Note_on_c, 0, 49, 0
2, 270042, Note_on_c, 0, 73, 0
2, 270084, Note_on_c, 0, 70, 0
2, 270736, Note_on_c, 0, 66, 100
2, 270739, Note_on_c, 0, 54, 110
2, 270744, Note_on_c, 0, 62, 102
2, 270746, Note_on_c, 0, 35, 114
2, 270748, Note_on_c, 0, 47, 100
2, 270752, Note_on_c, 0, 59, 94
2, 270772, Note_on_c, 0, 42, 49
2, 270812, Control_c, 0, 64, 0
2, 271058, Control_c, 0, 64, 127
2, 271116, Note_on_c, 0, 54, 0
2, 271134, Note_on_c, 0, 35, 0
2, 271156, Note_on_c, 0, 59, 0
2, 271174, Note_on_c, 0, 62, 0
2, 271186, Note_on_c, 0, 42, 0
2, 271230, Note_on_c, 0, 66, 0
2, 271244, Note_on_c, 0, 47, 0
2, 271506, Note_on_c, 0, 71, 127
2, 271508, Note_on_c, 0, 59, 120
2, 271514, Note_on_c, 0, 50, 106
2, 271514, Note_on_c, 0, 66, 94
2, 271517, Note_on_c, 0, 38, 98
2, 271784, Note_on_c, 0, 38, 0
2, 271860, Note_on_c, 0, 50, 0
2, 271874, Note_on_c, 0, 59, 0
2, 271984, Note_on_c, 0, 66, 0
2, 272006, Note_on_c, 0, 71, 0
2, 272234, Note_on_c, 0, 43, 99
2, 272256, Control_c, 0, 64, 0
2, 272268, Note_on_c, 0, 49, 93
2, 272336, Note_on_c, 0, 61, 115
2, 272340, Note_on_c, 0, 73, 108
2, 272340, Note_on_c, 0, 71, 115
2, 272346, Note_on_c, 0, 43, 0
2, 272349, Note_on_c, 0, 65, 97
2, 272368, Note_on_c, 0, 59, 113
2, 272398, Note_on_c, 0, 49, 0
2, 272426, Control_c, 0, 64, 127
2, 272460, Note_on_c, 0, 59, 0
2, 272924, Note_on_c, 0, 61, 0
2, 273090, Note_on_c, 0, 65, 0
2, 273194, Note_on_c, 0, 73, 0
2, 273196, Note_on_c, 0, 71, 0
2, 274134, Note_on_c, 0, 66, 106
2, 274134, Note_on_c, 0, 54, 123
2, 274140, Note_on_c, 0, 47, 107
2, 274142, Note_on_c, 0, 35, 113
2, 274145, Note_on_c, 0, 59, 109
2, 274145, Note_on_c, 0, 62, 108
2, 274316, Control_c, 0, 64, 0
2, 274486, Control_c, 0, 64, 127
2, 274489, Note_on_c, 0, 35, 0
2, 274489, Note_on_c, 0, 54, 0
2, 274550, Note_on_c, 0, 59, 0
2, 274556, Note_on_c, 0, 62, 0
2, 274590, Note_on_c, 0, 47, 0
2, 274630, Note_on_c, 0, 66, 0
2, 274922, Note_on_c, 0, 71, 127
2, 274922, Note_on_c, 0, 66, 103
2, 274922, Note_on_c, 0, 59, 124
2, 274930, Note_on_c, 0, 38, 114
2, 274932, Note_on_c, 0, 50, 117
2, 274992, Control_c, 0, 64, 0
2, 275206, Control_c, 0, 64, 127
2, 275246, Note_on_c, 0, 38, 0
2, 275251, Note_on_c, 0, 59, 0
2, 275294, Note_on_c, 0, 50, 0
2, 275318, Note_on_c, 0, 71, 0
2, 275362, Note_on_c, 0, 66, 0
2, 275852, Note_on_c, 0, 43, 85
2, 275855, Note_on_c, 0, 73, 108
2, 275858, Note_on_c, 0, 61, 114
2, 275860, Note_on_c, 0, 71, 115
2, 275870, Note_on_c, 0, 65, 97
2, 275873, Note_on_c, 0, 49, 79
2, 275882, Note_on_c, 0, 59, 88
2, 276160, Control_c, 0, 64, 0
2, 276606, Control_c, 0, 64, 127
2, 276778, Note_on_c, 0, 59, 0
2, 276804, Note_on_c, 0, 61, 0
2, 276880, Note_on_c, 0, 65, 0
2, 276902, Note_on_c, 0, 43, 0
2, 276928, Note_on_c, 0, 49, 0
2, 277006, Note_on_c, 0, 71, 0
2, 277102, Note_on_c, 0, 73, 0
2, 277504, Note_on_c, 0, 64, 121
2, 277506, Note_on_c, 0, 76, 117
2, 277508, Note_on_c, 0, 71, 121
2, 277516, Note_on_c, 0, 49, 109
2, 277519, Note_on_c, 0, 37, 108
2, 277522, Note_on_c, 0, 47, 90
2, 277956, Note_on_c, 0, 47, 0
2, 278012, Note_on_c, 0, 76, 0
2, 278016, Note_on_c, 0, 71, 0
2, 278074, Note_on_c, 0, 64, 0
2, 278100, Note_on_c, 0, 49, 0
2, 278134, Note_on_c, 0, 37, 0
2, 278296, Note_on_c, 0, 74, 124
2, 278301, Note_on_c, 0, 66, 98
2, 278301, Note_on_c, 0, 62, 114
2, 278301, Note_on_c, 0, 38, 114
2, 278308, Note_on_c, 0, 50, 113
2, 278324, Note_on_c, 0, 47, 90
2, 278372, Control_c, 0, 64, 0
2, 278526, Control_c, 0, 64, 127
2, 278566, Note_on_c, 0, 50, 0
2, 278574, Note_on_c, 0, 38, 0
2, 278668, Note_on_c, 0, 68, 108
2, 278678, Note_on_c, 0, 52, 123
2, 278681, Note_on_c, 0, 40, 123
2, 278788, Note_on_c, 0, 74, 0
2, 278808, Note_on_c, 0, 66, 0
2, 278826, Note_on_c, 0, 62, 0
2, 278922, Note_on_c, 0, 52, 0
2, 279024, Note_on_c, 0, 40, 0
2, 279106, Note_on_c, 0, 73, 108
2, 279106, Note_on_c, 0, 61, 118
2, 279109, Note_on_c, 0, 70, 98
2, 279112, Note_on_c, 0, 54, 120
2, 279124, Note_on_c, 0, 42, 92
2, 279344, Note_on_c, 0, 68, 0
2, 279386, Control_c, 0, 64, 0
2, 279584, Note_on_c, 0, 70, 0
2, 279632, Control_c, 0, 64, 127
2, 279732, Note_on_c, 0, 61, 0
2, 279782, Note_on_c, 0, 73, 0
2, 279806, Note_on_c, 0, 54, 0
2, 279918, Note_on_c, 0, 68, 84
2, 279920, Note_on_c, 0, 74, 121
2, 279922, Note_on_c, 0, 47, 0
2, 279922, Note_on_c, 0, 62, 116
2, 279926, Note_on_c, 0, 71, 105
2, 279930, Note_on_c, 0, 52, 114
2, 279932, Note_on_c, 0, 42, 0
2, 279936, Note_on_c, 0, 40, 116
2, 280032, Control_c, 0, 64, 0
2, 280170, Control_c, 0, 64, 127
2, 280210, Note_on_c, 0, 68, 0
2, 280222, Note_on_c, 0, 71, 0
2, 280224, Note_on_c, 0, 62, 0
2, 280252, Note_on_c, 0, 74, 0
2, 280360, Note_on_c, 0, 76, 117
2, 280366, Note_on_c, 0, 67, 92
2, 280370, Note_on_c, 0, 73, 94
2, 280370, Note_on_c, 0, 64, 114
2, 280448, Note_on_c, 0, 76, 0
2, 280500, Note_on_c, 0, 73, 0
2, 280508, Note_on_c, 0, 67, 0
2, 280520, Note_on_c, 0, 64, 0
2, 280694, Note_on_c, 0, 52, 0
2, 280734, Note_on_c, 0, 40, 0
2, 280818, Note_on_c, 0, 70, 97
2, 280820, Note_on_c, 0, 58, 97
2, 280822, Note_on_c, 0, 66, 87
2, 280838, Note_on_c, 0, 50, 107
2, 280846, Note_on_c, 0, 38, 93
2, 280862, Note_on_c, 0, 42, 53
2, 280906, Control_c, 0, 64, 0
2, 280926, Note_on_c, 0, 42, 0
2, 281044, Note_on_c, 0, 42, 23
2, 281100, Control_c, 0, 64, 127
2, 281146, Note_on_c, 0, 42, 0
2, 281166, Note_on_c, 0, 50, 0
2, 281292, Note_on_c, 0, 49, 100
2, 281296, Note_on_c, 0, 64, 106
2, 281308, Note_on_c, 0, 37, 94
2, 281336, Note_on_c, 0, 38, 0
2, 281384, Control_c, 0, 64, 0
2, 281410, Note_on_c, 0, 66, 0
2, 281644, Control_c, 0, 64, 127
2, 281710, Note_on_c, 0, 70, 0
2, 281710, Note_on_c, 0, 58, 0
2, 281794, Note_on_c, 0, 49, 0
2, 281806, Note_on_c, 0, 37, 0
2, 281946, Note_on_c, 0, 66, 78
2, 281946, Note_on_c, 0, 71, 115
2, 281950, Note_on_c, 0, 59, 98
2, 281954, Note_on_c, 0, 47, 86
2, 281958, Note_on_c, 0, 62, 91
2, 281964, Note_on_c, 0, 42, 68
2, 281966, Note_on_c, 0, 35, 85
2, 281976, Note_on_c, 0, 38, 62
2, 282018, Note_on_c, 0, 64, 0
2, 282074, Control_c, 0, 64, 0
2, 282736, Control_c, 0, 64, 127
2, 283660, Note_on_c, 0, 59, 0
2, 283665, Note_on_c, 0, 35, 0
2, 283686, Note_on_c, 0, 71, 0
2, 283696, Note_on_c, 0, 47, 0
2, 283706, Note_on_c, 0, 38, 0
2, 283746, Note_on_c, 0, 62, 0
2, 283749, Note_on_c, 0, 42, 0
2, 283808, Note_on_c, 0, 66, 0
2, 284118, Control_c, 0, 64, 0
2, 284896, Note_on_c, 0, 83, 85
2, 284908, Note_on_c, 0, 71, 40
2, 284916, Note_on_c, 0, 77, 46
2, 284922, Note_on_c, 0, 67, 33
2, 285270, Control_c, 0, 64, 127
2, 285332, Note_on_c, 0, 71, 0
2, 285682, Note_on_c, 0, 82, 79
2, 285698, Note_on_c, 0, 73, 31
2, 285762, Note_on_c, 0, 83, 0
2, 285994, Control_c, 0, 64, 0
2, 286132, Control_c, 0, 64, 127
2, 286242, Note_on_c, 0, 77, 0
2, 286370, Note_on_c, 0, 73, 0
2, 286390, Note_on_c, 0, 67, 0
2, 286614, Note_on_c, 0, 81, 47
2, 286630, Note_on_c, 0, 78, 29
2, 286632, Note_on_c, 0, 82, 0
2, 286634, Note_on_c, 0, 62, 37
2, 286644, Note_on_c, 0, 74, 40
2, 287038, Control_c, 0, 64, 0
2, 287422, Control_c, 0, 64, 127
2, 287442, Note_on_c, 0, 74, 0
2, 287490, Note_on_c, 0, 81, 0
2, 287492, Note_on_c, 0, 62, 0
2, 287526, Note_on_c, 0, 78, 0
2, 288136, Note_on_c, 0, 83, 92
2, 288146, Note_on_c, 0, 77, 48
2, 288154, Note_on_c, 0, 71, 34
2, 288178, Note_on_c, 0, 67, 28
2, 288252, Control_c, 0, 64, 0
2, 288560, Control_c, 0, 64, 127
2, 288676, Note_on_c, 0, 71, 0
2, 288964, Note_on_c, 0, 82, 63
2, 288974, Note_on_c, 0, 73, 36
2, 289112, Control_c, 0, 64, 0
2, 289144, Note_on_c, 0, 83, 0
2, 289358, Control_c, 0, 64, 127
2, 289544, Note_on_c, 0, 77, 0
2, 289620, Note_on_c, 0, 73, 0
2, 289810, Note_on_c, 0, 67, 0
2, 289854, Note_on_c, 0, 81, 40
2, 289862, Note_on_c, 0, 78, 31
2, 289866, Note_on_c, 0, 82, 0
2, 289890, Note_on_c, 0, 74, 38
2, 289906, Note_on_c, 0, 62, 30
2, 290112, Control_c, 0, 64, 0
2, 290588, Control_c, 0, 64, 127
2, 290598, Note_on_c, 0, 74, 0
2, 290660, Note_on_c, 0, 81, 0
2, 290712, Note_on_c, 0, 62, 0
2, 290720, Note_on_c, 0, 78, 0
2, 291628, Note_on_c, 0, 83, 67
2, 291648, Note_on_c, 0, 77, 32
2, 291651, Note_on_c, 0, 71, 26
2, 291674, Note_on_c, 0, 67, 19
2, 291724, Control_c, 0, 64, 0
2, 292032, Control_c, 0, 64, 127
2, 292156, Note_on_c, 0, 71, 0
2, 292417, Note_on_c, 0, 82, 70
2, 292430, Note_on_c, 0, 73, 40
2, 292524, Note_on_c, 0, 83, 0
2, 292768, Control_c, 0, 64, 0
2, 292908, Control_c, 0, 64, 127
2, 293004, Note_on_c, 0, 73, 0
2, 293022, Note_on_c, 0, 77, 0
2, 293034, Note_on_c, 0, 82, 0
2, 293150, Note_on_c, 0, 81, 67
2, 293156, Note_on_c, 0, 67, 0
2, 293159, Note_on_c, 0, 78, 48
2, 293159, Note_on_c, 0, 74, 55
2, 293178, Note_on_c, 0, 62, 38
2, 293522, Control_c, 0, 64, 0
2, 293692, Control_c, 0, 64, 127
2, 293908, Note_on_c, 0, 73, 60
2, 294026, Note_on_c, 0, 74, 0
2, 294186, Note_on_c, 0, 73, 0
2, 294244, Note_on_c, 0, 81, 0
2, 294296, Note_on_c, 0, 72, 71
2, 294412, Note_on_c, 0, 78, 0
2, 294476, Note_on_c, 0, 72, 0
2, 294550, Note_on_c, 0, 62, 0
2, 294802, Note_on_c, 0, 81, 71
2, 294802, Note_on_c, 0, 61, 55
2, 294808, Note_on_c, 0, 71, 63
2, 294818, Note_on_c, 0, 77, 52
2, 294952, Control_c, 0, 64, 0
2, 295458, Control_c, 0, 64, 127
2, 295772, Note_on_c, 0, 79, 69
2, 295780, Control_c, 0, 64, 0
2, 295836, Note_on_c, 0, 81, 0
2, 296150, Control_c, 0, 64, 127
2, 296306, Note_on_c, 0, 71, 0
2, 296408, Note_on_c, 0, 77, 0
2, 296632, Note_on_c, 0, 61, 0
2, 296726, Note_on_c, 0, 78, 41
2, 296762, Note_on_c, 0, 70, 23
2, 296772, Note_on_c, 0, 66, 28
2, 296782, Note_on_c, 0, 73, 18
2, 296838, Note_on_c, 0, 79, 0
2, 296994, Control_c, 0, 64, 0
2, 297578, Control_c, 0, 64, 127
2, 297704, Note_on_c, 0, 70, 0
2, 297750, Note_on_c, 0, 66, 0
2, 297756, Note_on_c, 0, 73, 0
2, 297774, Note_on_c, 0, 78, 0
2, 298392, Control_c, 0, 64, 0
2, 298770, Note_on_c, 0, 76, 37
2, 298774, Note_on_c, 0, 70, 24
2, 298796, Note_on_c, 0, 64, 24
2, 298810, Note_on_c, 0, 60, 22
2, 299008, Control_c, 0, 64, 127
2, 299186, Note_on_c, 0, 64, 0
2, 299594, Note_on_c, 0, 75, 34
2, 299646, Note_on_c, 0, 66, 9
2, 299724, Note_on_c, 0, 76, 0
2, 300104, Note_on_c, 0, 70, 0
2, 300128, Note_on_c, 0, 66, 0
2, 300168, Note_on_c, 0, 60, 0
2, 300362, Note_on_c, 0, 75, 0
2, 300434, Note_on_c, 0, 74, 22
2, 300470, Note_on_c, 0, 67, 23
2, 300476, Note_on_c, 0, 55, 19
2, 300482, Note_on_c, 0, 71, 15
2, 300698, Control_c, 0, 64, 0
2, 301112, Control_c, 0, 64, 127
2, 301264, Note_on_c, 0, 67, 0
2, 301272, Note_on_c, 0, 55, 0
2, 301296, Note_on_c, 0, 74, 0
2, 301314, Note_on_c, 0, 71, 0
2, 302048, Note_on_c, 0, 70, 25
2, 302051, Note_on_c, 0, 76, 52
2, 302098, Note_on_c, 0, 64, 22
2, 302098, Note_on_c, 0, 60, 31
2, 302202, Control_c, 0, 64, 0
2, 302464, Control_c, 0, 64, 127
2, 302508, Note_on_c, 0, 64, 0
2, 302824, Note_on_c, 0, 75, 56
2, 302844, Note_on_c, 0, 66, 24
2, 302960, Note_on_c, 0, 76, 0
2, 303232, Control_c, 0, 64, 0
2, 303340, Control_c, 0, 64, 127
2, 303440, Note_on_c, 0, 70, 0
2, 303446, Note_on_c, 0, 66, 0
2, 303514, Note_on_c, 0, 60, 0
2, 303676, Note_on_c, 0, 74, 52
2, 303696, Note_on_c, 0, 71, 31
2, 303710, Note_on_c, 0, 67, 31
2, 303732, Note_on_c, 0, 55, 26
2, 303836, Note_on_c, 0, 75, 0
2, 303910, Control_c, 0, 64, 0
2, 304508, Control_c, 0, 64, 127
2, 304584, Note_on_c, 0, 67, 0
2, 304612, Note_on_c, 0, 71, 0
2, 304642, Note_on_c, 0, 74, 0
2, 305222, Note_on_c, 0, 76, 59
2, 305236, Note_on_c, 0, 70, 30
2, 305250, Note_on_c, 0, 55, 0
2, 305254, Note_on_c, 0, 64, 19
2, 305268, Note_on_c, 0, 60, 25
2, 305430, Control_c, 0, 64, 0
2, 305692, Control_c, 0, 64, 127
2, 305794, Note_on_c, 0, 64, 0
2, 306104, Note_on_c, 0, 75, 67
2, 306112, Note_on_c, 0, 66, 39
2, 306194, Note_on_c, 0, 76, 0
2, 306570, Note_on_c, 0, 75, 0
2, 306648, Note_on_c, 0, 70, 0
2, 306734, Note_on_c, 0, 66, 0
2, 306888, Note_on_c, 0, 74, 74
2, 306894, Note_on_c, 0, 55, 44
2, 306897, Note_on_c, 0, 67, 44
2, 306902, Note_on_c, 0, 71, 59
2, 306918, Note_on_c, 0, 60, 0
2, 307504, Control_c, 0, 64, 0
2, 307614, Note_on_c, 0, 66, 64
2, 307826, Control_c, 0, 64, 127
2, 307848, Note_on_c, 0, 67, 0
2, 307954, Note_on_c, 0, 66, 0
2, 308040, Note_on_c, 0, 65, 71
2, 308170, Note_on_c, 0, 74, 0
2, 308294, Note_on_c, 0, 65, 0
2, 308338, Note_on_c, 0, 71, 0
2, 308370, Note_on_c, 0, 55, 0
2, 308582, Note_on_c, 0, 74, 76
2, 308584, Note_on_c, 0, 70, 45
2, 308590, Note_on_c, 0, 64, 62
2, 308604, Note_on_c, 0, 54, 47
2, 308872, Control_c, 0, 64, 0
2, 309378, Control_c, 0, 64, 127
2, 309484, Note_on_c, 0, 73, 59
2, 309526, Note_on_c, 0, 74, 0
2, 309578, Control_c, 0, 64, 0
2, 309932, Control_c, 0, 64, 127
2, 309998, Note_on_c, 0, 70, 0
2, 310038, Note_on_c, 0, 64, 0
2, 310246, Note_on_c, 0, 73, 0
2, 310370, Note_on_c, 0, 54, 0
2, 310373, Note_on_c, 0, 71, 42
2, 310410, Note_on_c, 0, 62, 21
2, 310410, Note_on_c, 0, 66, 17
2, 310444, Note_on_c, 0, 59, 14
2, 310592, Control_c, 0, 64, 0
2, 311084, Control_c, 0, 64, 127
2, 311136, Note_on_c, 0, 71, 0
2, 311194, Note_on_c, 0, 62, 0
2, 311200, Note_on_c, 0, 59, 0
2, 311258, Note_on_c, 0, 66, 0
2, 312498, Note_on_c, 0, 71, 52
2, 312516, Note_on_c, 0, 59, 23
2, 312524, Note_on_c, 0, 65, 21
2, 312534, Note_on_c, 0, 43, 30
2, 312546, Note_on_c, 0, 55, 19
2, 313128, Note_on_c, 0, 71, 0
2, 313488, Note_on_c, 0, 70, 29
2, 313514, Note_on_c, 0, 61, 31
2, 313634, Control_c, 0, 64, 0
2, 313692, Note_on_c, 0, 59, 0
2, 313834, Control_c, 0, 64, 127
2, 313876, Note_on_c, 0, 55, 0
2, 313926, Note_on_c, 0, 43, 0
2, 314082, Note_on_c, 0, 61, 0
2, 314094, Note_on_c, 0, 70, 0
2, 314286, Note_on_c, 0, 65, 0
2, 314390, Note_on_c, 0, 66, 24
2, 314400, Note_on_c, 0, 62, 22
2, 314412, Note_on_c, 0, 69, 21
2, 314428, Note_on_c, 0, 38, 22
2, 314432, Note_on_c, 0, 50, 21
2, 314726, Control_c, 0, 64, 0
2, 315248, Control_c, 0, 64, 127
2, 315254, Note_on_c, 0, 69, 0
2, 315266, Note_on_c, 0, 38, 0
2, 315272, Note_on_c, 0, 62, 0
2, 315356, Note_on_c, 0, 50, 0
2, 315376, Note_on_c, 0, 66, 0
2, 316180, Note_on_c, 0, 71, 64
2, 316210, Note_on_c, 0, 59, 19
2, 316216, Note_on_c, 0, 43, 22
2, 316220, Note_on_c, 0, 55, 14
2, 316230, Note_on_c, 0, 65, 18
2, 316446, Control_c, 0, 64, 0
2, 316600, Control_c, 0, 64, 127
2, 316744, Note_on_c, 0, 71, 0
2, 316972, Note_on_c, 0, 59, 0
2, 317066, Note_on_c, 0, 70, 33
2, 317110, Note_on_c, 0, 61, 26
2, 317322, Control_c, 0, 64, 0
2, 317522, Control_c, 0, 64, 127
2, 317558, Note_on_c, 0, 55, 0
2, 317614, Note_on_c, 0, 43, 0
2, 317772, Note_on_c, 0, 61, 0
2, 317792, Note_on_c, 0, 70, 0
2, 317902, Note_on_c, 0, 65, 0
2, 318076, Note_on_c, 0, 69, 29
2, 318086, Note_on_c, 0, 66, 21
2, 318088, Note_on_c, 0, 62, 23
2, 318112, Note_on_c, 0, 38, 19
2, 318120, Note_on_c, 0, 50, 18
2, 318414, Control_c, 0, 64, 0
2, 318902, Note_on_c, 0, 69, 0
2, 318904, Control_c, 0, 64, 127
2, 319028, Note_on_c, 0, 38, 0
2, 319104, Note_on_c, 0, 62, 0
2, 319126, Note_on_c, 0, 50, 0
2, 319596, Note_on_c, 0, 66, 0
2, 319846, Note_on_c, 0, 71, 61
2, 319868, Note_on_c, 0, 65, 31
2, 319876, Note_on_c, 0, 59, 22
2, 319886, Note_on_c, 0, 55, 30
2, 319892, Note_on_c, 0, 43, 32
2, 320288, Control_c, 0, 64, 0
2, 320456, Control_c, 0, 64, 127
2, 320508, Note_on_c, 0, 71, 0
2, 320632, Note_on_c, 0, 70, 76
2, 320652, Note_on_c, 0, 61, 56
2, 320674, Note_on_c, 0, 59, 0
2, 321096, Note_on_c, 0, 55, 0
2, 321152, Note_on_c, 0, 43, 0
2, 321356, Note_on_c, 0, 70, 0
2, 321482, Note_on_c, 0, 69, 62
2, 321486, Note_on_c, 0, 62, 67
2, 321504, Note_on_c, 0, 66, 63
2, 321507, Note_on_c, 0, 50, 40
2, 321507, Note_on_c, 0, 38, 32
2, 321544, Note_on_c, 0, 65, 0
2, 321572, Note_on_c, 0, 61, 0
2, 321870, Control_c, 0, 64, 0
2, 322100, Control_c, 0, 64, 127
2, 322434, Note_on_c, 0, 61, 76
2, 322604, Note_on_c, 0, 62, 0
2, 322790, Note_on_c, 0, 61, 0
2, 322806, Note_on_c, 0, 50, 0
2, 322838, Note_on_c, 0, 60, 95
2, 322912, Note_on_c, 0, 69, 0
2, 322932, Note_on_c, 0, 38, 0
2, 323214, Note_on_c, 0, 60, 0
2, 323260, Note_on_c, 0, 66, 0
2, 323426, Note_on_c, 0, 69, 69
2, 323432, Note_on_c, 0, 59, 67
2, 323454, Note_on_c, 0, 65, 26
2, 323457, Note_on_c, 0, 49, 38
2, 323472, Note_on_c, 0, 37, 33
2, 323638, Control_c, 0, 64, 0
2, 324144, Control_c, 0, 64, 127
2, 324390, Note_on_c, 0, 67, 57
2, 324468, Control_c, 0, 64, 0
2, 324552, Note_on_c, 0, 69, 0
2, 324790, Control_c, 0, 64, 127
2, 324934, Note_on_c, 0, 37, 0
2, 324990, Note_on_c, 0, 49, 0
2, 324993, Note_on_c, 0, 65, 0
2, 325000, Note_on_c, 0, 59, 0
2, 325474, Note_on_c, 0, 66, 38
2, 325486, Note_on_c, 0, 58, 24
2, 325502, Note_on_c, 0, 54, 26
2, 325514, Note_on_c, 0, 42, 26
2, 325514, Note_on_c, 0, 61, 24
2, 325682, Control_c, 0, 64, 0
2, 325762, Note_on_c, 0, 67, 0
2, 326250, Control_c, 0, 64, 127
2, 326398, Note_on_c, 0, 54, 0
2, 326518, Note_on_c, 0, 58, 0
2, 326526, Note_on_c, 0, 66, 0
2, 326526, Note_on_c, 0, 61, 0
2, 326538, Note_on_c, 0, 42, 0
2, 327432, Control_c, 0, 64, 0
2, 327584, Note_on_c, 0, 64, 63
2, 327586, Note_on_c, 0, 58, 24
2, 327594, Note_on_c, 0, 48, 25
2, 327600, Note_on_c, 0, 52, 46
2, 327624, Note_on_c, 0, 36, 44
2, 327970, Control_c, 0, 64, 127
2, 328050, Note_on_c, 0, 52, 0
2, 328456, Note_on_c, 0, 54, 60
2, 328472, Note_on_c, 0, 63, 64
2, 328570, Note_on_c, 0, 64, 0
2, 328934, Note_on_c, 0, 48, 0
2, 329002, Note_on_c, 0, 36, 0
2, 329100, Note_on_c, 0, 58, 0
2, 329218, Note_on_c, 0, 54, 0
2, 329384, Note_on_c, 0, 62, 54
2, 329392, Note_on_c, 0, 59, 36
2, 329410, Note_on_c, 0, 55, 45
2, 329412, Note_on_c, 0, 43, 36
2, 329412, Note_on_c, 0, 31, 37
2, 329620, Note_on_c, 0, 63, 0
2, 329630, Control_c, 0, 64, 0
2, 330152, Control_c, 0, 64, 127
2, 330196, Note_on_c, 0, 31, 0
2, 330258, Note_on_c, 0, 43, 0
2, 330336, Note_on_c, 0, 55, 0
2, 330400, Note_on_c, 0, 59, 0
2, 330480, Note_on_c, 0, 62, 0
2, 331202, Note_on_c, 0, 58, 17
2, 331214, Note_on_c, 0, 36, 24
2, 331224, Note_on_c, 0, 48, 19
2, 331228, Note_on_c, 0, 64, 37
2, 331254, Note_on_c, 0, 52, 9
2, 331320, Control_c, 0, 64, 0
2, 331644, Control_c, 0, 64, 127
2, 331676, Note_on_c, 0, 52, 0
2, 332100, Note_on_c, 0, 54, 32
2, 332106, Note_on_c, 0, 63, 36
2, 332168, Note_on_c, 0, 64, 0
2, 332226, Control_c, 0, 64, 0
2, 332442, Control_c, 0, 64, 127
2, 332484, Note_on_c, 0, 48, 0
2, 332538, Note_on_c, 0, 36, 0
2, 332560, Note_on_c, 0, 58, 0
2, 332590, Note_on_c, 0, 54, 0
2, 332950, Note_on_c, 0, 62, 30
2, 332998, Note_on_c, 0, 55, 21
2, 333001, Note_on_c, 0, 43, 18
2, 333001, Note_on_c, 0, 59, 16
2, 333022, Note_on_c, 0, 31, 33
2, 333164, Note_on_c, 0, 63, 0
2, 333164, Control_c, 0, 64, 0
2, 333748, Control_c, 0, 64, 127
2, 333828, Note_on_c, 0, 31, 0
2, 333844, Note_on_c, 0, 43, 0
2, 333888, Note_on_c, 0, 55, 0
2, 333984, Note_on_c, 0, 59, 0
2, 334038, Note_on_c, 0, 62, 0
2, 334772, Note_on_c, 0, 58, 15
2, 334772, Note_on_c, 0, 52, 32
2, 334778, Note_on_c, 0, 64, 41
2, 334792, Note_on_c, 0, 48, 15
2, 334812, Note_on_c, 0, 36, 29
2, 334946, Control_c, 0, 64, 0
2, 335238, Control_c, 0, 64, 127
2, 335346, Note_on_c, 0, 52, 0
2, 335710, Note_on_c, 0, 54, 38
2, 335716, Note_on_c, 0, 63, 60
2, 335848, Note_on_c, 0, 64, 0
2, 336102, Note_on_c, 0, 48, 0
2, 336166, Note_on_c, 0, 36, 0
2, 336206, Note_on_c, 0, 58, 0
2, 336272, Note_on_c, 0, 54, 0
2, 336332, Note_on_c, 0, 63, 0
2, 336522, Note_on_c, 0, 55, 67
2, 336532, Note_on_c, 0, 62, 59
2, 336544, Note_on_c, 0, 59, 48
2, 336556, Note_on_c, 0, 31, 34
2, 336570, Note_on_c, 0, 43, 25
2, 337082, Control_c, 0, 64, 0
2, 337266, Control_c, 0, 64, 127
2, 337340, Note_on_c, 0, 54, 78
2, 337384, Note_on_c, 0, 55, 0
2, 337652, Note_on_c, 0, 54, 0
2, 337688, Note_on_c, 0, 43, 0
2, 337822, Note_on_c, 0, 53, 98
2, 337864, Note_on_c, 0, 62, 0
2, 337898, Note_on_c, 0, 59, 0
2, 337946, Note_on_c, 0, 31, 0
2, 338040, Note_on_c, 0, 53, 0
2, 338448, Note_on_c, 0, 62, 75
2, 338460, Note_on_c, 0, 58, 33
2, 338466, Note_on_c, 0, 30, 34
2, 338466, Note_on_c, 0, 52, 60
2, 338469, Note_on_c, 0, 42, 34
2, 338558, Control_c, 0, 64, 0
2, 339846, Note_on_c, 0, 61, 55
2, 339998, Note_on_c, 0, 62, 0
2, 340278, Control_c, 0, 64, 127
2, 340296, Note_on_c, 0, 30, 0
2, 340300, Note_on_c, 0, 58, 0
2, 340358, Note_on_c, 0, 42, 0
2, 340416, Note_on_c, 0, 52, 0
2, 340910, Note_on_c, 0, 59, 40
2, 340930, Note_on_c, 0, 54, 24
2, 340932, Note_on_c, 0, 61, 0
2, 340934, Note_on_c, 0, 50, 30
2, 340966, Note_on_c, 0, 47, 16
2, 340980, Note_on_c, 0, 35, 37
2, 341568, Control_c, 0, 64, 0
2, 341834, Note_on_c, 0, 47, 0
2, 341890, Note_on_c, 0, 50, 0
2, 341890, Control_c, 0, 64, 127
2, 341904, Note_on_c, 0, 35, 0
2, 341926, Note_on_c, 0, 59, 0
2, 341962, Note_on_c, 0, 54, 0
2, 343013, Control_c, 0, 64, 0
2, 343446, Note_on_c, 0, 62, 49
2, 343446, Note_on_c, 0, 58, 17
2, 343449, Note_on_c, 0, 52, 41
2, 343456, Note_on_c, 0, 42, 36
2, 343462, Note_on_c, 0, 30, 34
2, 343780, Control_c, 0, 64, 127
2, 344734, Note_on_c, 0, 61, 42
2, 344812, Note_on_c, 0, 62, 0
2, 344826, Control_c, 0, 64, 0
2, 345072, Control_c, 0, 64, 127
2, 345075, Note_on_c, 0, 30, 0
2, 345102, Note_on_c, 0, 58, 0
2, 345116, Note_on_c, 0, 52, 0
2, 345130, Note_on_c, 0, 42, 0
2, 345776, Note_on_c, 0, 59, 30
2, 345794, Note_on_c, 0, 50, 17
2, 345804, Note_on_c, 0, 54, 22
2, 345806, Note_on_c, 0, 47, 9
2, 345814, Note_on_c, 0, 35, 24
2, 345836, Note_on_c, 0, 61, 0
2, 346010, Control_c, 0, 64, 0
2, 346358, Note_on_c, 0, 47, 0
2, 346392, Control_c, 0, 64, 127
2, 346400, Note_on_c, 0, 35, 0
2, 346418, Note_on_c, 0, 59, 0
2, 346446, Note_on_c, 0, 54, 0
2, 346452, Note_on_c, 0, 50, 0
2, 347760, Control_c, 0, 64, 0
2, 348406, Control_c, 0, 64, 127
2, 348628, Note_on_c, 0, 58, 17
2, 348636, Note_on_c, 0, 30, 21
2, 348636, Note_on_c, 0, 62, 32
2, 348656, Note_on_c, 0, 42, 13
2, 348658, Note_on_c, 0, 52, 22
2, 351158, Note_on_c, 0, 61, 16
2, 351304, Note_on_c, 0, 62, 0
2, 351510, Control_c, 0, 64, 0
2, 351708, Control_c, 0, 64, 127
2, 351934, Note_on_c, 0, 42, 0
2, 351950, Note_on_c, 0, 52, 0
2, 351990, Note_on_c, 0, 30, 0
2, 352064, Note_on_c, 0, 58, 0
2, 352928, Note_on_c, 0, 61, 0
2, 353512, Note_on_c, 0, 50, 8
2, 353515, Note_on_c, 0, 59, 15
2, 353520, Note_on_c, 0, 42, 10
2, 353542, Note_on_c, 0, 35, 10
2, 354044, Control_c, 0, 64, 0
2, 354214, Control_c, 0, 64, 127
2, 355594, Note_on_c, 0, 42, 0
2, 355630, Note_on_c, 0, 50, 0
2, 355632, Note_on_c, 0, 35, 0
2, 355692, Note_on_c, 0, 59, 0
2, 356540, Note_on_c, 0, 59, 32
2, 356540, Note_on_c, 0, 50, 25
2, 356562, Note_on_c, 0, 42, 22
2, 356568, Note_on_c, 0, 35, 28
2, 357242, Note_on_c, 0, 35, 0
2, 357912, Note_on_c, 0, 42, 0
2, 358124, Note_on_c, 0, 50, 0
2, 358816, Note_on_c, 0, 59, 0
2, 360826, Note_on_c, 0, 42, 19
2, 360836, Note_on_c, 0, 59, 18
2, 360844, Note_on_c, 0, 35, 26
2, 360852, Note_on_c, 0, 50, 18
2, 365414, Note_on_c, 0, 42, 0
2, 365448, Note_on_c, 0, 35, 0
2, 365458, Note_on_c, 0, 50, 0
2, 365566, Note_on_c, 0, 59, 0
2, 366720, Control_c, 0, 64, 0
2, 370560, Control_c, 0, 64, 127
2, 370560, Note_on_c, 0, 71, 40
2, 370568, Note_on_c, 0, 80, 36
2, 370568, Note_on_c, 0, 76, 28
2, 370570, Note_on_c, 0, 88, 44
2, 370572, Note_on_c, 0, 64, 37
2, 370572, Note_on_c, 0, 83, 79
2, 371994, Note_on_c, 0, 71, 0
2, 372072, Note_on_c, 0, 64, 0
2, 372080, Note_on_c, 0, 76, 0
2, 372250, Note_on_c, 0, 80, 0
2, 372254, Note_on_c, 0, 83, 0
2, 372358, Note_on_c, 0, 88, 0
2, 372940, Control_c, 0, 64, 0
2, 373630, Note_on_c, 0, 45, 31
2, 373704, Note_on_c, 0, 45, 0
2, 373738, Control_c, 0, 64, 127
2, 373830, Control_c, 0, 64, 0
2, 373974, Note_on_c, 0, 57, 45
2, 373974, Note_on_c, 0, 60, 38
2, 373984, Note_on_c, 0, 52, 52
2, 374050, Note_on_c, 0, 52, 0
2, 374066, Note_on_c, 0, 57, 0
2, 374088, Note_on_c, 0, 60, 0
2, 374320, Note_on_c, 0, 59, 47
2, 374320, Note_on_c, 0, 62, 47
2, 374322, Note_on_c, 0, 52, 70
2, 374374, Note_on_c, 0, 52, 0
2, 374400, Note_on_c, 0, 59, 0
2, 374406, Note_on_c, 0, 62, 0
2, 374460, Note_on_c, 0, 52, 75
2, 374514, Note_on_c, 0, 52, 0
2, 374634, Note_on_c, 0, 45, 88
2, 374678, Note_on_c, 0, 45, 0
2, 374948, Note_on_c, 0, 60, 80
2, 374948, Note_on_c, 0, 64, 90
2, 374951, Note_on_c, 0, 52, 85
2, 374994, Note_on_c, 0, 52, 0
2, 375018, Note_on_c, 0, 60, 0
2, 375032, Note_on_c, 0, 64, 0
2, 375278, Note_on_c, 0, 52, 99
2, 375282, Note_on_c, 0, 62, 86
2, 375286, Note_on_c, 0, 65, 78
2, 375316, Note_on_c, 0, 52, 0
2, 375348, Note_on_c, 0, 62, 0
2, 375356, Note_on_c, 0, 65, 0
2, 375400, Note_on_c, 0, 52, 78
2, 375468, Note_on_c, 0, 52, 0
2, 375592, Note_on_c, 0, 45, 87
2, 375636, Note_on_c, 0, 45, 0
2, 375910, Note_on_c, 0, 64, 69
2, 375912, Note_on_c, 0, 60, 62
2, 375928, Note_on_c, 0, 52, 72
2, 375970, Note_on_c, 0, 64, 0
2, 375976, Note_on_c, 0, 52, 0
2, 375984, Note_on_c, 0, 60, 0
2, 376234, Note_on_c, 0, 52, 60
2, 376244, Note_on_c, 0, 59, 54
2, 376248, Note_on_c, 0, 62, 55
2, 376290, Note_on_c, 0, 52, 0
2, 376314, Note_on_c, 0, 59, 0
2, 376328, Note_on_c, 0, 62, 0
2, 376372, Note_on_c, 0, 52, 76
2, 376430, Note_on_c, 0, 52, 0
2, 376556, Note_on_c, 0, 45, 62
2, 376624, Note_on_c, 0, 45, 0
2, 376888, Note_on_c, 0, 60, 47
2, 376891, Note_on_c, 0, 57, 45
2, 376902, Note_on_c, 0, 52, 45
2, 376964, Note_on_c, 0, 52, 0
2, 376964, Note_on_c, 0, 57, 0
2, 376980, Note_on_c, 0, 60, 0
2, 377250, Note_on_c, 0, 56, 54
2, 377262, Note_on_c, 0, 64, 72
2, 377280, Note_on_c, 0, 59, 47
2, 377280, Note_on_c, 0, 52, 68
2, 377312, Note_on_c, 0, 56, 0
2, 377340, Note_on_c, 0, 59, 0
2, 377362, Note_on_c, 0, 52, 0
2, 377382, Note_on_c, 0, 64, 0
2, 377460, Note_on_c, 0, 52, 82
2, 377506, Note_on_c, 0, 52, 0
2, 377586, Note_on_c, 0, 69, 55
2, 377614, Note_on_c, 0, 45, 46
2, 377634, Note_on_c, 0, 71, 101
2, 377726, Note_on_c, 0, 71, 0
2, 377726, Note_on_c, 0, 45, 0
2, 377848, Note_on_c, 0, 68, 95
2, 377850, Note_on_c, 0, 69, 0
2, 377900, Note_on_c, 0, 68, 0
2, 378018, Note_on_c, 0, 69, 85
2, 378021, Note_on_c, 0, 60, 52
2, 378034, Note_on_c, 0, 57, 33
2, 378060, Note_on_c, 0, 52, 17
2, 378076, Note_on_c, 0, 69, 0
2, 378092, Note_on_c, 0, 60, 0
2, 378102, Note_on_c, 0, 57, 0
2, 378130, Note_on_c, 0, 52, 0
2, 378166, Note_on_c, 0, 71, 107
2, 378218, Note_on_c, 0, 71, 0
2, 378316, Note_on_c, 0, 72, 97
2, 378328, Note_on_c, 0, 52, 62
2, 378332, Note_on_c, 0, 59, 56
2, 378334, Note_on_c, 0, 62, 59
2, 378372, Note_on_c, 0, 72, 0
2, 378384, Note_on_c, 0, 52, 0
2, 378384, Note_on_c, 0, 59, 0
2, 378390, Note_on_c, 0, 62, 0
2, 378462, Note_on_c, 0, 74, 103
2, 378496, Note_on_c, 0, 74, 0
2, 378612, Note_on_c, 0, 76, 99
2, 378622, Note_on_c, 0, 45, 70
2, 378674, Note_on_c, 0, 45, 0
2, 378746, Note_on_c, 0, 76, 0
2, 378756, Note_on_c, 0, 81, 86
2, 378804, Note_on_c, 0, 81, 0
2, 378906, Note_on_c, 0, 76, 90
2, 378930, Note_on_c, 0, 60, 59
2, 378930, Note_on_c, 0, 52, 55
2, 378936, Note_on_c, 0, 64, 60
2, 378996, Note_on_c, 0, 64, 0
2, 379000, Note_on_c, 0, 52, 0
2, 379000, Note_on_c, 0, 60, 0
2, 379102, Note_on_c, 0, 76, 0
2, 379116, Control_c, 0, 64, 127
2, 379172, Note_on_c, 0, 52, 76
2, 379222, Note_on_c, 0, 52, 0
2, 379242, Note_on_c, 0, 74, 97
2, 379250, Note_on_c, 0, 62, 79
2, 379282, Note_on_c, 0, 74, 0
2, 379284, Note_on_c, 0, 65, 71
2, 379292, Note_on_c, 0, 76, 88
2, 379306, Note_on_c, 0, 62, 0
2, 379330, Note_on_c, 0, 65, 0
2, 379334, Note_on_c, 0, 76, 0
2, 379340, Note_on_c, 0, 74, 105
2, 379384, Note_on_c, 0, 74, 0
2, 379391, Control_c, 0, 64, 0
2, 379412, Note_on_c, 0, 76, 75
2, 379458, Note_on_c, 0, 74, 84
2, 379520, Note_on_c, 0, 76, 0
2, 379530, Note_on_c, 0, 72, 101
2, 379536, Note_on_c, 0, 45, 83
2, 379550, Note_on_c, 0, 74, 0
2, 379584, Note_on_c, 0, 45, 0
2, 379650, Note_on_c, 0, 72, 0
2, 379680, Note_on_c, 0, 81, 108
2, 379776, Note_on_c, 0, 81, 0
2, 379836, Note_on_c, 0, 72, 97
2, 379850, Note_on_c, 0, 64, 59
2, 379853, Note_on_c, 0, 52, 51
2, 379868, Note_on_c, 0, 60, 68
2, 379904, Note_on_c, 0, 64, 0
2, 379922, Note_on_c, 0, 52, 0
2, 379928, Note_on_c, 0, 60, 0
2, 379931, Control_c, 0, 64, 127
2, 380018, Note_on_c, 0, 72, 0
2, 380144, Control_c, 0, 64, 0
2, 380154, Note_on_c, 0, 62, 67
2, 380156, Note_on_c, 0, 71, 109
2, 380166, Note_on_c, 0, 52, 57
2, 380176, Note_on_c, 0, 59, 49
2, 380194, Note_on_c, 0, 71, 0
2, 380205, Note_on_c, 0, 72, 99
2, 380222, Note_on_c, 0, 62, 0
2, 380236, Note_on_c, 0, 59, 0
2, 380254, Note_on_c, 0, 72, 0
2, 380256, Note_on_c, 0, 71, 94
2, 380300, Note_on_c, 0, 52, 0
2, 380316, Note_on_c, 0, 71, 0
2, 380326, Note_on_c, 0, 72, 90
2, 380384, Note_on_c, 0, 71, 93
2, 380424, Note_on_c, 0, 72, 0
2, 380464, Note_on_c, 0, 69, 75
2, 380476, Note_on_c, 0, 45, 63
2, 380484, Note_on_c, 0, 71, 0
2, 380530, Note_on_c, 0, 45, 0
2, 380796, Note_on_c, 0, 60, 57
2, 380808, Note_on_c, 0, 57, 48
2, 380812, Note_on_c, 0, 52, 49
2, 380862, Note_on_c, 0, 60, 0
2, 380868, Note_on_c, 0, 57, 0
2, 380884, Note_on_c, 0, 52, 0
2, 381190, Note_on_c, 0, 64, 51
2, 381206, Note_on_c, 0, 60, 26
2, 381212, Note_on_c, 0, 57, 34
2, 381254, Note_on_c, 0, 64, 0
2, 381288, Note_on_c, 0, 60, 0
2, 381294, Note_on_c, 0, 57, 0
2, 381344, Control_c, 0, 64, 127
2, 381366, Note_on_c, 0, 69, 0
2, 381544, Control_c, 0, 64, 0
2, 381566, Note_on_c, 0, 69, 92
2, 381584, Note_on_c, 0, 45, 48
2, 381648, Note_on_c, 0, 45, 0
2, 381712, Control_c, 0, 64, 127
2, 381726, Note_on_c, 0, 72, 105
2, 381748, Note_on_c, 0, 69, 0
2, 381804, Control_c, 0, 64, 0
2, 381840, Note_on_c, 0, 69, 83
2, 381868, Note_on_c, 0, 65, 62
2, 381882, Note_on_c, 0, 57, 53
2, 381885, Note_on_c, 0, 72, 0
2, 381890, Note_on_c, 0, 60, 49
2, 381922, Note_on_c, 0, 65, 0
2, 381954, Note_on_c, 0, 57, 0
2, 381957, Note_on_c, 0, 60, 0
2, 382154, Note_on_c, 0, 69, 0
2, 382178, Note_on_c, 0, 64, 75
2, 382182, Note_on_c, 0, 67, 91
2, 382204, Note_on_c, 0, 60, 44
2, 382212, Note_on_c, 0, 55, 56
2, 382224, Note_on_c, 0, 69, 79
2, 382226, Note_on_c, 0, 64, 0
2, 382232, Note_on_c, 0, 67, 0
2, 382268, Note_on_c, 0, 55, 0
2, 382276, Note_on_c, 0, 60, 0
2, 382296, Note_on_c, 0, 67, 85
2, 382299, Note_on_c, 0, 69, 0
2, 382352, Note_on_c, 0, 67, 0
2, 382362, Note_on_c, 0, 69, 74
2, 382414, Note_on_c, 0, 67, 91
2, 382468, Note_on_c, 0, 69, 0
2, 382502, Note_on_c, 0, 45, 69
2, 382516, Note_on_c, 0, 66, 90
2, 382536, Note_on_c, 0, 67, 0
2, 382556, Note_on_c, 0, 45, 0
2, 382690, Note_on_c, 0, 72, 92
2, 382708, Note_on_c, 0, 66, 0
2, 382838, Note_on_c, 0, 66, 74
2, 382850, Note_on_c, 0, 63, 62
2, 382858, Note_on_c, 0, 60, 53
2, 382864, Note_on_c, 0, 54, 62
2, 382886, Note_on_c, 0, 72, 0
2, 382910, Note_on_c, 0, 63, 0
2, 382930, Note_on_c, 0, 54, 0
2, 382930, Note_on_c, 0, 60, 0
2, 383208, Note_on_c, 0, 54, 74
2, 383218, Note_on_c, 0, 63, 56
2, 383238, Note_on_c, 0, 60, 47
2, 383284, Note_on_c, 0, 63, 0
2, 383300, Note_on_c, 0, 60, 0
2, 383324, Note_on_c, 0, 54, 0
2, 383342, Control_c, 0, 64, 127
2, 383464, Control_c, 0, 64, 0
2, 383482, Note_on_c, 0, 66, 0
2, 383540, Note_on_c, 0, 65, 79
2, 383540, Note_on_c, 0, 45, 61
2, 383612, Note_on_c, 0, 45, 0
2, 383680, Note_on_c, 0, 65, 0
2, 383680, Control_c, 0, 64, 127
2, 383688, Note_on_c, 0, 72, 75
2, 383750, Note_on_c, 0, 72, 0
2, 383772, Control_c, 0, 64, 0
2, 383840, Note_on_c, 0, 65, 76
2, 383848, Note_on_c, 0, 60, 42
2, 383848, Note_on_c, 0, 57, 38
2, 383920, Note_on_c, 0, 60, 0
2, 383934, Note_on_c, 0, 57, 0
2, 384064, Control_c, 0, 64, 127
2, 384094, Control_c, 0, 64, 0
2, 384110, Note_on_c, 0, 65, 0
2, 384146, Note_on_c, 0, 60, 51
2, 384158, Note_on_c, 0, 55, 52
2, 384160, Note_on_c, 0, 64, 65
2, 384206, Note_on_c, 0, 65, 68
2, 384218, Note_on_c, 0, 64, 0
2, 384224, Note_on_c, 0, 55, 0
2, 384246, Note_on_c, 0, 60, 0
2, 384260, Note_on_c, 0, 65, 0
2, 384278, Control_c, 0, 64, 127
2, 384302, Note_on_c, 0, 64, 48
2, 384310, Control_c, 0, 64, 0
2, 384336, Note_on_c, 0, 65, 80
2, 384366, Note_on_c, 0, 64, 0
2, 384402, Note_on_c, 0, 65, 0
2, 384442, Note_on_c, 0, 64, 25
2, 384488, Note_on_c, 0, 63, 82
2, 384512, Note_on_c, 0, 47, 41
2, 384515, Note_on_c, 0, 64, 0
2, 384588, Note_on_c, 0, 47, 0
2, 384678, Note_on_c, 0, 63, 0
2, 384692, Note_on_c, 0, 71, 64
2, 384832, Control_c, 0, 64, 127
2, 384856, Note_on_c, 0, 54, 36
2, 384864, Note_on_c, 0, 63, 56
2, 384866, Note_on_c, 0, 59, 36
2, 384904, Note_on_c, 0, 71, 0
2, 384934, Note_on_c, 0, 59, 0
2, 384942, Note_on_c, 0, 54, 0
2, 385032, Control_c, 0, 64, 0
2, 385244, Note_on_c, 0, 54, 37
2, 385246, Note_on_c, 0, 59, 30
2, 385292, Control_c, 0, 64, 127
2, 385308, Note_on_c, 0, 59, 0
2, 385314, Note_on_c, 0, 54, 0
2, 385500, Note_on_c, 0, 63, 0
2, 385600, Control_c, 0, 64, 0
2, 385620, Note_on_c, 0, 59, 74
2, 385626, Note_on_c, 0, 71, 85
2, 385670, Note_on_c, 0, 59, 0
2, 385678, Note_on_c, 0, 71, 0
2, 385770, Note_on_c, 0, 70, 49
2, 385774, Note_on_c, 0, 58, 59
2, 385834, Note_on_c, 0, 70, 0
2, 385846, Note_on_c, 0, 58, 0
2, 385940, Note_on_c, 0, 54, 68
2, 385946, Note_on_c, 0, 66, 46
2, 385994, Note_on_c, 0, 54, 0
2, 386004, Note_on_c, 0, 66, 0
2, 386102, Note_on_c, 0, 71, 64
2, 386132, Note_on_c, 0, 59, 32
2, 386166, Note_on_c, 0, 71, 0
2, 386198, Note_on_c, 0, 59, 0
2, 386264, Note_on_c, 0, 69, 55
2, 386266, Note_on_c, 0, 57, 53
2, 386326, Note_on_c, 0, 57, 0
2, 386326, Note_on_c, 0, 69, 0
2, 386424, Note_on_c, 0, 53, 88
2, 386424, Note_on_c, 0, 65, 59
2, 386472, Note_on_c, 0, 53, 0
2, 386475, Note_on_c, 0, 65, 0
2, 386574, Note_on_c, 0, 71, 85
2, 386586, Note_on_c, 0, 59, 70
2, 386632, Note_on_c, 0, 71, 0
2, 386640, Note_on_c, 0, 59, 0
2, 386722, Note_on_c, 0, 68, 78
2, 386733, Note_on_c, 0, 56, 64
2, 386782, Note_on_c, 0, 68, 0
2, 386786, Note_on_c, 0, 56, 0
2, 386894, Note_on_c, 0, 52, 78
2, 386900, Note_on_c, 0, 64, 84
2, 386942, Note_on_c, 0, 64, 0
2, 386942, Note_on_c, 0, 52, 0
2, 387052, Note_on_c, 0, 71, 100
2, 387066, Note_on_c, 0, 59, 65
2, 387100, Note_on_c, 0, 71, 0
2, 387116, Note_on_c, 0, 59, 0
2, 387210, Note_on_c, 0, 55, 95
2, 387210, Note_on_c, 0, 67, 98
2, 387252, Note_on_c, 0, 55, 0
2, 387260, Note_on_c, 0, 67, 0
2, 387354, Note_on_c, 0, 51, 82
2, 387354, Note_on_c, 0, 63, 110
2, 387404, Note_on_c, 0, 51, 0
2, 387408, Note_on_c, 0, 63, 0
2, 387520, Note_on_c, 0, 71, 117
2, 387522, Note_on_c, 0, 59, 94
2, 387574, Note_on_c, 0, 59, 0
2, 387588, Note_on_c, 0, 71, 0
2, 387686, Note_on_c, 0, 66, 86
2, 387688, Note_on_c, 0, 54, 92
2, 387732, Note_on_c, 0, 54, 0
2, 387748, Note_on_c, 0, 66, 0
2, 387836, Note_on_c, 0, 50, 97
2, 387848, Note_on_c, 0, 62, 98
2, 387880, Note_on_c, 0, 50, 0
2, 387894, Note_on_c, 0, 62, 0
2, 387990, Note_on_c, 0, 71, 100
2, 388000, Note_on_c, 0, 59, 85
2, 388038, Note_on_c, 0, 71, 0
2, 388046, Note_on_c, 0, 59, 0
2, 388164, Note_on_c, 0, 65, 84
2, 388164, Note_on_c, 0, 53, 99
2, 388206, Note_on_c, 0, 53, 0
2, 388208, Note_on_c, 0, 65, 0
2, 388288, Note_on_c, 0, 49, 83
2, 388304, Note_on_c, 0, 61, 78
2, 388340, Note_on_c, 0, 49, 0
2, 388358, Note_on_c, 0, 61, 0
2, 388480, Note_on_c, 0, 59, 74
2, 388480, Note_on_c, 0, 71, 84
2, 388530, Note_on_c, 0, 59, 0
2, 388536, Note_on_c, 0, 71, 0
2, 388638, Note_on_c, 0, 52, 78
2, 388641, Note_on_c, 0, 64, 72
2, 388684, Note_on_c, 0, 52, 0
2, 388690, Note_on_c, 0, 64, 0
2, 388800, Note_on_c, 0, 48, 52
2, 388802, Note_on_c, 0, 60, 70
2, 388864, Note_on_c, 0, 60, 0
2, 388864, Note_on_c, 0, 48, 0
2, 388954, Note_on_c, 0, 59, 64
2, 388964, Note_on_c, 0, 71, 72
2, 389008, Note_on_c, 0, 59, 0
2, 389020, Note_on_c, 0, 71, 0
2, 389124, Note_on_c, 0, 63, 65
2, 389126, Note_on_c, 0, 51, 61
2, 389176, Note_on_c, 0, 63, 0
2, 389186, Note_on_c, 0, 51, 0
2, 389268, Note_on_c, 0, 59, 68
2, 389316, Note_on_c, 0, 59, 0
2, 389374, Note_on_c, 0, 64, 88
2, 389414, Note_on_c, 0, 66, 84
2, 389417, Note_on_c, 0, 64, 0
2, 389478, Note_on_c, 0, 64, 103
2, 389478, Note_on_c, 0, 52, 93
2, 389510, Note_on_c, 0, 66, 0
2, 389522, Note_on_c, 0, 52, 0
2, 389524, Note_on_c, 0, 64, 0
2, 389628, Note_on_c, 0, 63, 86
2, 389646, Note_on_c, 0, 51, 82
2, 389676, Note_on_c, 0, 63, 0
2, 389690, Note_on_c, 0, 51, 0
2, 389784, Note_on_c, 0, 64, 80
2, 389797, Note_on_c, 0, 52, 91
2, 389836, Note_on_c, 0, 64, 0
2, 389839, Note_on_c, 0, 52, 0
2, 389932, Note_on_c, 0, 66, 67
2, 389938, Note_on_c, 0, 54, 101
2, 389980, Note_on_c, 0, 54, 0
2, 389984, Note_on_c, 0, 66, 0
2, 390084, Note_on_c, 0, 67, 90
2, 390100, Note_on_c, 0, 55, 107
2, 390134, Note_on_c, 0, 67, 0
2, 390142, Note_on_c, 0, 55, 0
2, 390234, Note_on_c, 0, 69, 95
2, 390246, Note_on_c, 0, 57, 108
2, 390284, Note_on_c, 0, 57, 0
2, 390284, Note_on_c, 0, 69, 0
2, 390400, Note_on_c, 0, 71, 120
2, 390416, Note_on_c, 0, 59, 114
2, 390464, Note_on_c, 0, 59, 0
2, 390476, Note_on_c, 0, 71, 0
2, 390558, Note_on_c, 0, 76, 95
2, 390558, Note_on_c, 0, 64, 99
2, 390606, Note_on_c, 0, 64, 0
2, 390616, Note_on_c, 0, 76, 0
2, 390722, Note_on_c, 0, 71, 105
2, 390734, Note_on_c, 0, 59, 86
2, 390774, Note_on_c, 0, 71, 0
2, 390784, Note_on_c, 0, 59, 0
2, 390884, Note_on_c, 0, 69, 78
2, 390886, Note_on_c, 0, 57, 76
2, 390936, Note_on_c, 0, 57, 0
2, 390936, Note_on_c, 0, 69, 0
2, 391038, Note_on_c, 0, 55, 79
2, 391042, Note_on_c, 0, 67, 85
2, 391092, Note_on_c, 0, 67, 0
2, 391094, Note_on_c, 0, 55, 0
2, 391186, Note_on_c, 0, 66, 82
2, 391192, Note_on_c, 0, 54, 78
2, 391240, Note_on_c, 0, 66, 0
2, 391242, Note_on_c, 0, 54, 0
2, 391366, Note_on_c, 0, 64, 79
2, 391372, Note_on_c, 0, 52, 68
2, 391412, Note_on_c, 0, 64, 0
2, 391424, Note_on_c, 0, 52, 0
2, 391516, Note_on_c, 0, 66, 69
2, 391518, Note_on_c, 0, 54, 80
2, 391568, Note_on_c, 0, 54, 0
2, 391574, Note_on_c, 0, 66, 0
2, 391676, Note_on_c, 0, 67, 88
2, 391700, Note_on_c, 0, 55, 71
2, 391732, Note_on_c, 0, 67, 0
2, 391754, Note_on_c, 0, 55, 0
2, 391824, Note_on_c, 0, 69, 99
2, 391842, Note_on_c, 0, 57, 68
2, 391878, Note_on_c, 0, 69, 0
2, 391898, Note_on_c, 0, 57, 0
2, 392006, Note_on_c, 0, 71, 127
2, 392014, Note_on_c, 0, 47, 122
2, 392014, Note_on_c, 0, 59, 122
2, 392017, Note_on_c, 0, 35, 123
2, 392048, Note_on_c, 0, 35, 0
2, 392051, Note_on_c, 0, 47, 0
2, 392104, Note_on_c, 0, 59, 0
2, 392152, Note_on_c, 0, 71, 0
2, 392406, Note_on_c, 0, 76, 121
2, 392412, Note_on_c, 0, 64, 120
2, 392412, Note_on_c, 0, 52, 126
2, 392418, Note_on_c, 0, 40, 120
2, 392446, Note_on_c, 0, 52, 0
2, 392449, Note_on_c, 0, 40, 0
2, 392482, Control_c, 0, 64, 127
2, 392512, Note_on_c, 0, 64, 0
2, 392524, Note_on_c, 0, 76, 0
2, 392714, Control_c, 0, 64, 0
2, 393252, Note_on_c, 0, 64, 69
2, 393558, Note_on_c, 0, 64, 0
2, 393588, Note_on_c, 0, 69, 39
2, 393636, Control_c, 0, 64, 127
2, 393660, Note_on_c, 0, 71, 69
2, 393666, Control_c, 0, 64, 0
2, 393706, Note_on_c, 0, 45, 29
2, 393722, Note_on_c, 0, 71, 0
2, 393858, Note_on_c, 0, 45, 0
2, 393866, Control_c, 0, 64, 127
2, 393944, Note_on_c, 0, 69, 0
2, 393960, Note_on_c, 0, 68, 64
2, 394014, Note_on_c, 0, 68, 0
2, 394126, Control_c, 0, 64, 0
2, 394144, Note_on_c, 0, 60, 56
2, 394150, Note_on_c, 0, 69, 53
2, 394172, Note_on_c, 0, 52, 39
2, 394172, Note_on_c, 0, 57, 25
2, 394208, Note_on_c, 0, 60, 0
2, 394216, Note_on_c, 0, 69, 0
2, 394234, Note_on_c, 0, 52, 0
2, 394248, Note_on_c, 0, 57, 0
2, 394306, Note_on_c, 0, 71, 86
2, 394354, Note_on_c, 0, 71, 0
2, 394462, Note_on_c, 0, 72, 84
2, 394472, Note_on_c, 0, 62, 56
2, 394474, Note_on_c, 0, 52, 70
2, 394478, Note_on_c, 0, 59, 42
2, 394506, Note_on_c, 0, 72, 0
2, 394528, Note_on_c, 0, 62, 0
2, 394538, Note_on_c, 0, 52, 0
2, 394538, Note_on_c, 0, 59, 0
2, 394614, Note_on_c, 0, 74, 91
2, 394658, Note_on_c, 0, 74, 0
2, 394774, Note_on_c, 0, 45, 65
2, 394782, Note_on_c, 0, 76, 84
2, 394832, Note_on_c, 0, 45, 0
2, 394880, Control_c, 0, 64, 127
2, 394938, Note_on_c, 0, 81, 70
2, 394943, Note_on_c, 0, 76, 0
2, 395001, Control_c, 0, 64, 0
2, 395123, Note_on_c, 0, 81, 0
2, 395156, Note_on_c, 0, 76, 45
2, 395160, Note_on_c, 0, 64, 38
2, 395186, Note_on_c, 0, 52, 47
2, 395192, Note_on_c, 0, 60, 45
2, 395280, Note_on_c, 0, 52, 0
2, 395316, Note_on_c, 0, 64, 0
2, 395340, Control_c, 0, 64, 127
2, 395352, Note_on_c, 0, 60, 0
2, 395370, Note_on_c, 0, 76, 0
2, 395546, Note_on_c, 0, 52, 46
2, 395549, Note_on_c, 0, 74, 92
2, 395556, Control_c, 0, 64, 0
2, 395572, Note_on_c, 0, 65, 47
2, 395576, Note_on_c, 0, 62, 36
2, 395594, Note_on_c, 0, 74, 0
2, 395648, Note_on_c, 0, 62, 0
2, 395648, Note_on_c, 0, 76, 53
2, 395668, Note_on_c, 0, 52, 0
2, 395671, Note_on_c, 0, 74, 83
2, 395710, Note_on_c, 0, 76, 0
2, 395710, Control_c, 0, 64, 127
2, 395718, Note_on_c, 0, 74, 0
2, 395754, Note_on_c, 0, 76, 57
2, 395802, Control_c, 0, 64, 0
2, 395805, Note_on_c, 0, 65, 0
2, 395810, Note_on_c, 0, 74, 68
2, 395862, Note_on_c, 0, 76, 0
2, 395894, Note_on_c, 0, 45, 68
2, 395897, Note_on_c, 0, 72, 76
2, 395924, Note_on_c, 0, 74, 0
2, 395944, Note_on_c, 0, 45, 0
2, 396056, Note_on_c, 0, 81, 80
2, 396064, Note_on_c, 0, 72, 0
2, 396215, Note_on_c, 0, 81, 0
2, 396248, Note_on_c, 0, 72, 82
2, 396266, Note_on_c, 0, 64, 33
2, 396266, Note_on_c, 0, 52, 37
2, 396286, Note_on_c, 0, 60, 36
2, 396346, Note_on_c, 0, 64, 0
2, 396366, Note_on_c, 0, 60, 0
2, 396366, Note_on_c, 0, 52, 0
2, 396402, Control_c, 0, 64, 127
2, 396472, Note_on_c, 0, 72, 0
2, 396582, Note_on_c, 0, 52, 49
2, 396592, Note_on_c, 0, 62, 36
2, 396594, Note_on_c, 0, 71, 90
2, 396600, Control_c, 0, 64, 0
2, 396602, Note_on_c, 0, 59, 33
2, 396640, Note_on_c, 0, 71, 0
2, 396642, Note_on_c, 0, 72, 78
2, 396682, Note_on_c, 0, 59, 0
2, 396688, Note_on_c, 0, 62, 0
2, 396696, Note_on_c, 0, 72, 0
2, 396710, Note_on_c, 0, 71, 76
2, 396740, Control_c, 0, 64, 127
2, 396746, Note_on_c, 0, 52, 0
2, 396776, Note_on_c, 0, 71, 0
2, 396776, Note_on_c, 0, 72, 76
2, 396786, Control_c, 0, 64, 0
2, 396864, Note_on_c, 0, 71, 78
2, 396890, Note_on_c, 0, 72, 0
2, 396946, Note_on_c, 0, 45, 52
2, 396956, Note_on_c, 0, 69, 80
2, 396982, Note_on_c, 0, 71, 0
2, 397074, Note_on_c, 0, 45, 0
2, 397092, Control_c, 0, 64, 127
2, 397216, Control_c, 0, 64, 0
2, 397296, Note_on_c, 0, 60, 57
2, 397314, Note_on_c, 0, 57, 24
2, 397320, Note_on_c, 0, 52, 54
2, 397366, Note_on_c, 0, 60, 0
2, 397380, Note_on_c, 0, 52, 0
2, 397384, Note_on_c, 0, 57, 0
2, 397722, Note_on_c, 0, 64, 44
2, 397744, Note_on_c, 0, 57, 29
2, 397754, Note_on_c, 0, 60, 24
2, 397812, Note_on_c, 0, 64, 0
2, 397830, Note_on_c, 0, 60, 0
2, 397830, Control_c, 0, 64, 127
2, 397876, Note_on_c, 0, 57, 0
2, 397930, Note_on_c, 0, 69, 0
2, 398092, Control_c, 0, 64, 0
2, 398106, Note_on_c, 0, 69, 80
2, 398124, Note_on_c, 0, 45, 49
2, 398186, Note_on_c, 0, 45, 0
2, 398256, Note_on_c, 0, 72, 93
2, 398258, Control_c, 0, 64, 127
2, 398264, Note_on_c, 0, 69, 0
2, 398306, Control_c, 0, 64, 0
2, 398410, Note_on_c, 0, 69, 95
2, 398420, Note_on_c, 0, 65, 60
2, 398434, Note_on_c, 0, 72, 0
2, 398450, Note_on_c, 0, 60, 31
2, 398452, Note_on_c, 0, 57, 51
2, 398514, Note_on_c, 0, 65, 0
2, 398526, Note_on_c, 0, 57, 0
2, 398526, Note_on_c, 0, 60, 0
2, 398660, Control_c, 0, 64, 127
2, 398682, Note_on_c, 0, 69, 0
2, 398752, Control_c, 0, 64, 0
2, 398770, Note_on_c, 0, 67, 91
2, 398772, Note_on_c, 0, 64, 46
2, 398778, Note_on_c, 0, 55, 54
2, 398818, Note_on_c, 0, 67, 0
2, 398830, Note_on_c, 0, 69, 74
2, 398832, Note_on_c, 0, 64, 0
2, 398840, Note_on_c, 0, 55, 0
2, 398872, Note_on_c, 0, 67, 101
2, 398886, Note_on_c, 0, 69, 0
2, 398922, Control_c, 0, 64, 127
2, 398948, Note_on_c, 0, 69, 77
2, 398952, Control_c, 0, 64, 0
2, 398958, Note_on_c, 0, 67, 0
2, 399020, Note_on_c, 0, 67, 107
2, 399046, Note_on_c, 0, 69, 0
2, 399092, Note_on_c, 0, 45, 53
2, 399098, Note_on_c, 0, 66, 87
2, 399128, Note_on_c, 0, 67, 0
2, 399152, Note_on_c, 0, 45, 0
2, 399166, Control_c, 0, 64, 127
2, 399266, Note_on_c, 0, 66, 0
2, 399280, Note_on_c, 0, 72, 93
2, 399306, Control_c, 0, 64, 0
2, 399426, Note_on_c, 0, 63, 56
2, 399452, Note_on_c, 0, 60, 47
2, 399452, Note_on_c, 0, 66, 79
2, 399462, Note_on_c, 0, 54, 57
2, 399474, Control_c, 0, 64, 127
2, 399500, Note_on_c, 0, 72, 0
2, 399514, Note_on_c, 0, 63, 0
2, 399524, Note_on_c, 0, 60, 0
2, 399532, Note_on_c, 0, 54, 0
2, 399658, Control_c, 0, 64, 0
2, 399828, Note_on_c, 0, 54, 40
2, 399838, Note_on_c, 0, 63, 42
2, 399868, Note_on_c, 0, 60, 33
2, 399888, Control_c, 0, 64, 127
2, 399892, Note_on_c, 0, 63, 0
2, 399924, Note_on_c, 0, 54, 0
2, 399936, Note_on_c, 0, 60, 0
2, 399996, Note_on_c, 0, 66, 0
2, 400134, Control_c, 0, 64, 0
2, 400180, Note_on_c, 0, 45, 45
2, 400198, Note_on_c, 0, 65, 74
2, 400280, Note_on_c, 0, 45, 0
2, 400324, Note_on_c, 0, 65, 0
2, 400334, Control_c, 0, 64, 127
2, 400346, Note_on_c, 0, 72, 71
2, 400426, Note_on_c, 0, 72, 0
2, 400428, Control_c, 0, 64, 0
2, 400500, Note_on_c, 0, 65, 72
2, 400502, Note_on_c, 0, 57, 38
2, 400508, Note_on_c, 0, 60, 41
2, 400580, Note_on_c, 0, 60, 0
2, 400588, Note_on_c, 0, 57, 0
2, 400672, Control_c, 0, 64, 127
2, 400752, Note_on_c, 0, 65, 0
2, 400794, Control_c, 0, 64, 0
2, 400830, Note_on_c, 0, 60, 38
2, 400830, Note_on_c, 0, 64, 75
2, 400833, Note_on_c, 0, 55, 40
2, 400880, Note_on_c, 0, 64, 0
2, 400904, Note_on_c, 0, 65, 49
2, 400914, Note_on_c, 0, 55, 0
2, 400920, Note_on_c, 0, 60, 0
2, 400964, Note_on_c, 0, 65, 0
2, 400964, Note_on_c, 0, 64, 78
2, 401012, Note_on_c, 0, 64, 0
2, 401040, Note_on_c, 0, 65, 59
2, 401088, Note_on_c, 0, 64, 85
2, 401098, Note_on_c, 0, 65, 0
2, 401170, Note_on_c, 0, 63, 65
2, 401186, Note_on_c, 0, 47, 39
2, 401188, Note_on_c, 0, 64, 0
2, 401304, Note_on_c, 0, 47, 0
2, 401328, Note_on_c, 0, 63, 0
2, 401362, Note_on_c, 0, 71, 61
2, 401532, Note_on_c, 0, 59, 40
2, 401534, Note_on_c, 0, 54, 37
2, 401558, Note_on_c, 0, 63, 62
2, 401586, Note_on_c, 0, 71, 0
2, 401624, Note_on_c, 0, 59, 0
2, 401638, Note_on_c, 0, 54, 0
2, 401928, Note_on_c, 0, 54, 41
2, 401932, Note_on_c, 0, 59, 40
2, 402002, Note_on_c, 0, 59, 0
2, 402018, Note_on_c, 0, 54, 0
2, 402055, Control_c, 0, 64, 127
2, 402196, Note_on_c, 0, 63, 0
2, 402286, Control_c, 0, 64, 0
2, 402328, Note_on_c, 0, 59, 61
2, 402340, Note_on_c, 0, 71, 57
2, 402380, Note_on_c, 0, 59, 0
2, 402402, Note_on_c, 0, 71, 0
2, 402488, Note_on_c, 0, 70, 39
2, 402496, Note_on_c, 0, 58, 44
2, 402556, Note_on_c, 0, 70, 0
2, 402566, Note_on_c, 0, 58, 0
2, 402672, Note_on_c, 0, 54, 49
2, 402684, Note_on_c, 0, 66, 37
2, 402744, Note_on_c, 0, 54, 0
2, 402756, Note_on_c, 0, 66, 0
2, 402846, Note_on_c, 0, 71, 61
2, 402876, Note_on_c, 0, 59, 22
2, 402908, Note_on_c, 0, 71, 0
2, 402938, Note_on_c, 0, 59, 0
2, 403006, Note_on_c, 0, 69, 61
2, 403026, Note_on_c, 0, 57, 39
2, 403062, Note_on_c, 0, 69, 0
2, 403098, Note_on_c, 0, 57, 0
2, 403178, Note_on_c, 0, 65, 62
2, 403196, Note_on_c, 0, 53, 56
2, 403226, Note_on_c, 0, 65, 0
2, 403258, Note_on_c, 0, 53, 0
2, 403344, Note_on_c, 0, 71, 79
2, 403354, Note_on_c, 0, 59, 65
2, 403400, Note_on_c, 0, 71, 0
2, 403408, Note_on_c, 0, 59, 0
2, 403510, Note_on_c, 0, 68, 77
2, 403522, Note_on_c, 0, 56, 41
2, 403562, Note_on_c, 0, 68, 0
2, 403594, Note_on_c, 0, 56, 0
2, 403698, Note_on_c, 0, 64, 64
2, 403700, Note_on_c, 0, 52, 60
2, 403748, Note_on_c, 0, 64, 0
2, 403756, Note_on_c, 0, 52, 0
2, 403866, Note_on_c, 0, 71, 78
2, 403876, Note_on_c, 0, 59, 42
2, 403920, Note_on_c, 0, 71, 0
2, 403936, Note_on_c, 0, 59, 0
2, 404042, Note_on_c, 0, 67, 78
2, 404045, Note_on_c, 0, 55, 56
2, 404092, Note_on_c, 0, 67, 0
2, 404108, Note_on_c, 0, 55, 0
2, 404192, Note_on_c, 0, 51, 68
2, 404202, Note_on_c, 0, 63, 78
2, 404244, Note_on_c, 0, 51, 0
2, 404250, Note_on_c, 0, 63, 0
2, 404370, Note_on_c, 0, 71, 94
2, 404378, Note_on_c, 0, 59, 71
2, 404420, Note_on_c, 0, 71, 0
2, 404430, Note_on_c, 0, 59, 0
2, 404544, Note_on_c, 0, 66, 74
2, 404547, Note_on_c, 0, 54, 71
2, 404596, Note_on_c, 0, 66, 0
2, 404599, Note_on_c, 0, 54, 0
2, 404716, Note_on_c, 0, 50, 76
2, 404724, Note_on_c, 0, 62, 75
2, 404768, Note_on_c, 0, 50, 0
2, 404774, Note_on_c, 0, 62, 0
2, 404878, Note_on_c, 0, 71, 91
2, 404896, Note_on_c, 0, 59, 53
2, 404928, Note_on_c, 0, 71, 0
2, 404952, Note_on_c, 0, 59, 0
2, 405062, Note_on_c, 0, 53, 90
2, 405065, Note_on_c, 0, 65, 74
2, 405110, Note_on_c, 0, 53, 0
2, 405112, Note_on_c, 0, 65, 0
2, 405212, Note_on_c, 0, 61, 82
2, 405214, Note_on_c, 0, 49, 78
2, 405262, Note_on_c, 0, 49, 0
2, 405266, Note_on_c, 0, 61, 0
2, 405388, Note_on_c, 0, 59, 88
2, 405391, Note_on_c, 0, 71, 98
2, 405438, Note_on_c, 0, 59, 0
2, 405446, Note_on_c, 0, 71, 0
2, 405558, Note_on_c, 0, 52, 97
2, 405564, Note_on_c, 0, 64, 79
2, 405598, Note_on_c, 0, 52, 0
2, 405610, Note_on_c, 0, 64, 0
2, 405722, Note_on_c, 0, 48, 63
2, 405730, Note_on_c, 0, 60, 76
2, 405780, Note_on_c, 0, 48, 0
2, 405788, Note_on_c, 0, 60, 0
2, 405880, Note_on_c, 0, 59, 71
2, 405890, Note_on_c, 0, 71, 74
2, 405930, Note_on_c, 0, 59, 0
2, 405944, Note_on_c, 0, 71, 0
2, 406052, Note_on_c, 0, 63, 76
2, 406060, Note_on_c, 0, 51, 63
2, 406100, Note_on_c, 0, 63, 0
2, 406116, Note_on_c, 0, 51, 0
2, 406212, Note_on_c, 0, 59, 56
2, 406212, Note_on_c, 0, 47, 78
2, 406260, Note_on_c, 0, 47, 0
2, 406266, Note_on_c, 0, 59, 0
2, 406320, Note_on_c, 0, 64, 75
2, 406354, Note_on_c, 0, 66, 82
2, 406410, Note_on_c, 0, 52, 93
2, 406426, Note_on_c, 0, 66, 0
2, 406456, Note_on_c, 0, 52, 0
2, 406459, Note_on_c, 0, 64, 0
2, 406572, Note_on_c, 0, 63, 71
2, 406600, Note_on_c, 0, 51, 40
2, 406622, Note_on_c, 0, 63, 0
2, 406670, Note_on_c, 0, 51, 0
2, 406732, Note_on_c, 0, 64, 65
2, 406742, Note_on_c, 0, 52, 74
2, 406786, Note_on_c, 0, 64, 0
2, 406789, Note_on_c, 0, 52, 0
2, 406884, Note_on_c, 0, 66, 74
2, 406896, Note_on_c, 0, 54, 86
2, 406942, Note_on_c, 0, 54, 0
2, 406942, Note_on_c, 0, 66, 0
2, 407050, Note_on_c, 0, 67, 87
2, 407070, Note_on_c, 0, 55, 92
2, 407102, Note_on_c, 0, 67, 0
2, 407114, Note_on_c, 0, 55, 0
2, 407210, Note_on_c, 0, 69, 94
2, 407224, Note_on_c, 0, 57, 88
2, 407266, Note_on_c, 0, 57, 0
2, 407268, Note_on_c, 0, 69, 0
2, 407378, Note_on_c, 0, 71, 122
2, 407396, Note_on_c, 0, 59, 102
2, 407436, Note_on_c, 0, 59, 0
2, 407436, Note_on_c, 0, 71, 0
2, 407540, Note_on_c, 0, 76, 105
2, 407550, Note_on_c, 0, 64, 90
2, 407600, Note_on_c, 0, 64, 0
2, 407648, Note_on_c, 0, 76, 0
2, 407706, Note_on_c, 0, 71, 115
2, 407718, Note_on_c, 0, 59, 92
2, 407758, Note_on_c, 0, 59, 0
2, 407770, Note_on_c, 0, 71, 0
2, 407866, Note_on_c, 0, 57, 88
2, 407866, Note_on_c, 0, 69, 92
2, 407914, Note_on_c, 0, 57, 0
2, 407926, Note_on_c, 0, 69, 0
2, 408026, Note_on_c, 0, 55, 100
2, 408029, Note_on_c, 0, 67, 99
2, 408070, Note_on_c, 0, 55, 0
2, 408078, Note_on_c, 0, 67, 0
2, 408184, Note_on_c, 0, 66, 91
2, 408190, Note_on_c, 0, 54, 101
2, 408234, Note_on_c, 0, 54, 0
2, 408256, Note_on_c, 0, 66, 0
2, 408356, Note_on_c, 0, 52, 111
2, 408358, Note_on_c, 0, 64, 92
2, 408398, Note_on_c, 0, 52, 0
2, 408412, Note_on_c, 0, 64, 0
2, 408512, Note_on_c, 0, 66, 98
2, 408520, Note_on_c, 0, 54, 107
2, 408562, Note_on_c, 0, 54, 0
2, 408600, Note_on_c, 0, 66, 0
2, 408674, Note_on_c, 0, 67, 105
2, 408690, Note_on_c, 0, 55, 108
2, 408724, Note_on_c, 0, 67, 0
2, 408732, Note_on_c, 0, 55, 0
2, 408830, Note_on_c, 0, 69, 109
2, 408830, Note_on_c, 0, 57, 100
2, 408870, Note_on_c, 0, 57, 0
2, 408898, Note_on_c, 0, 69, 0
2, 409010, Note_on_c, 0, 71, 127
2, 409016, Note_on_c, 0, 59, 125
2, 409016, Note_on_c, 0, 47, 123
2, 409024, Note_on_c, 0, 35, 126
2, 409048, Note_on_c, 0, 47, 0
2, 409052, Note_on_c, 0, 35, 0
2, 409092, Control_c, 0, 64, 127
2, 409100, Note_on_c, 0, 59, 0
2, 409124, Control_c, 0, 64, 0
2, 409127, Note_on_c, 0, 71, 0
2, 409422, Note_on_c, 0, 76, 127
2, 409426, Note_on_c, 0, 64, 127
2, 409436, Note_on_c, 0, 52, 127
2, 409439, Note_on_c, 0, 40, 127
2, 409462, Note_on_c, 0, 52, 0
2, 409468, Note_on_c, 0, 40, 0
2, 409520, Note_on_c, 0, 64, 0
2, 409523, Note_on_c, 0, 76, 0
2, 409523, Control_c, 0, 64, 127
2, 409738, Control_c, 0, 64, 0
2, 410596, Note_on_c, 0, 68, 45
2, 410602, Note_on_c, 0, 77, 90
2, 410612, Note_on_c, 0, 40, 65
2, 410618, Note_on_c, 0, 74, 61
2, 410734, Note_on_c, 0, 40, 0
2, 410736, Control_c, 0, 64, 127
2, 411036, Note_on_c, 0, 74, 0
2, 411118, Note_on_c, 0, 56, 42
2, 411132, Note_on_c, 0, 47, 36
2, 411140, Note_on_c, 0, 52, 24
2, 411246, Note_on_c, 0, 52, 0
2, 411249, Note_on_c, 0, 47, 0
2, 411266, Note_on_c, 0, 56, 0
2, 411336, Note_on_c, 0, 77, 0
2, 411370, Note_on_c, 0, 72, 78
2, 411370, Note_on_c, 0, 76, 68
2, 411420, Note_on_c, 0, 76, 0
2, 411420, Note_on_c, 0, 72, 0
2, 411590, Note_on_c, 0, 76, 80
2, 411606, Note_on_c, 0, 62, 62
2, 411612, Note_on_c, 0, 56, 48
2, 411614, Note_on_c, 0, 72, 70
2, 411628, Note_on_c, 0, 52, 53
2, 411660, Note_on_c, 0, 62, 0
2, 411676, Note_on_c, 0, 56, 0
2, 411686, Note_on_c, 0, 52, 0
2, 411708, Note_on_c, 0, 72, 0
2, 411776, Note_on_c, 0, 76, 0
2, 411776, Note_on_c, 0, 74, 95
2, 411782, Note_on_c, 0, 71, 93
2, 411830, Note_on_c, 0, 74, 0
2, 411846, Note_on_c, 0, 71, 0
2, 411854, Note_on_c, 0, 68, 0
2, 411936, Control_c, 0, 64, 0
2, 411966, Note_on_c, 0, 68, 79
2, 411972, Note_on_c, 0, 40, 88
2, 411976, Note_on_c, 0, 74, 105
2, 411980, Note_on_c, 0, 71, 92
2, 412030, Note_on_c, 0, 40, 0
2, 412120, Control_c, 0, 64, 127
2, 412342, Note_on_c, 0, 71, 0
2, 412352, Note_on_c, 0, 56, 70
2, 412358, Note_on_c, 0, 52, 74
2, 412362, Note_on_c, 0, 47, 59
2, 412404, Note_on_c, 0, 52, 0
2, 412414, Note_on_c, 0, 47, 0
2, 412426, Note_on_c, 0, 56, 0
2, 412428, Note_on_c, 0, 74, 0
2, 412518, Note_on_c, 0, 76, 103
2, 412528, Note_on_c, 0, 72, 65
2, 412584, Note_on_c, 0, 72, 0
2, 412632, Note_on_c, 0, 76, 0
2, 412702, Note_on_c, 0, 76, 90
2, 412712, Note_on_c, 0, 72, 63
2, 412724, Note_on_c, 0, 62, 75
2, 412728, Note_on_c, 0, 56, 67
2, 412740, Note_on_c, 0, 52, 65
2, 412778, Note_on_c, 0, 62, 0
2, 412798, Note_on_c, 0, 56, 0
2, 412808, Note_on_c, 0, 52, 0
2, 412858, Note_on_c, 0, 72, 0
2, 412892, Note_on_c, 0, 77, 103
2, 412902, Note_on_c, 0, 74, 94
2, 412906, Note_on_c, 0, 76, 0
2, 412970, Note_on_c, 0, 74, 0
2, 412984, Note_on_c, 0, 68, 0
2, 412998, Note_on_c, 0, 77, 0
2, 413040, Control_c, 0, 64, 0
2, 413086, Note_on_c, 0, 77, 79
2, 413096, Note_on_c, 0, 40, 82
2, 413099, Note_on_c, 0, 68, 74
2, 413114, Note_on_c, 0, 74, 80
2, 413180, Note_on_c, 0, 40, 0
2, 413242, Control_c, 0, 64, 127
2, 413530, Note_on_c, 0, 47, 36
2, 413534, Note_on_c, 0, 56, 21
2, 413540, Note_on_c, 0, 52, 51
2, 413604, Note_on_c, 0, 47, 0
2, 413606, Note_on_c, 0, 52, 0
2, 413614, Note_on_c, 0, 56, 0
2, 413948, Note_on_c, 0, 62, 41
2, 413954, Note_on_c, 0, 52, 51
2, 413954, Note_on_c, 0, 56, 32
2, 414014, Note_on_c, 0, 62, 0
2, 414020, Note_on_c, 0, 52, 0
2, 414030, Note_on_c, 0, 56, 0
2, 414052, Note_on_c, 0, 68, 0
2, 414062, Note_on_c, 0, 74, 0
2, 414348, Control_c, 0, 64, 0
2, 414376, Note_on_c, 0, 77, 0
2, 414390, Note_on_c, 0, 40, 53
2, 414393, Note_on_c, 0, 68, 31
2, 414406, Note_on_c, 0, 76, 37
2, 414409, Note_on_c, 0, 74, 47
2, 414490, Note_on_c, 0, 40, 0
2, 414532, Control_c, 0, 64, 127
2, 414775, Note_on_c, 0, 47, 36
2, 414780, Note_on_c, 0, 56, 36
2, 414785, Note_on_c, 0, 52, 51
2, 414849, Note_on_c, 0, 47, 0
2, 414851, Note_on_c, 0, 52, 0
2, 414854, Note_on_c, 0, 56, 0
2, 415238, Note_on_c, 0, 52, 37
2, 415244, Note_on_c, 0, 56, 23
2, 415264, Note_on_c, 0, 62, 8
2, 415308, Note_on_c, 0, 52, 0
2, 415320, Note_on_c, 0, 62, 0
2, 415323, Note_on_c, 0, 56, 0
2, 415470, Note_on_c, 0, 74, 0
2, 415476, Note_on_c, 0, 68, 0
2, 415494, Note_on_c, 0, 76, 0
2, 415592, Control_c, 0, 64, 0
2, 415822, Note_on_c, 0, 65, 52
2, 415880, Note_on_c, 0, 65, 0
2, 416006, Note_on_c, 0, 62, 59
2, 416062, Note_on_c, 0, 62, 0
2, 416176, Note_on_c, 0, 60, 54
2, 416240, Note_on_c, 0, 60, 0
2, 416368, Note_on_c, 0, 59, 57
2, 416422, Note_on_c, 0, 59, 0
2, 416540, Note_on_c, 0, 77, 108
2, 416552, Note_on_c, 0, 65, 88
2, 416638, Note_on_c, 0, 65, 0
2, 416694, Note_on_c, 0, 77, 0
2, 416728, Note_on_c, 0, 74, 93
2, 416740, Note_on_c, 0, 62, 57
2, 416772, Note_on_c, 0, 74, 0
2, 416798, Note_on_c, 0, 62, 0
2, 416894, Note_on_c, 0, 72, 77
2, 416908, Note_on_c, 0, 60, 57
2, 416948, Note_on_c, 0, 72, 0
2, 416972, Note_on_c, 0, 60, 0
2, 417074, Note_on_c, 0, 71, 97
2, 417086, Note_on_c, 0, 59, 55
2, 417122, Note_on_c, 0, 71, 0
2, 417140, Note_on_c, 0, 59, 0
2, 417240, Note_on_c, 0, 62, 92
2, 417300, Note_on_c, 0, 62, 0
2, 417432, Note_on_c, 0, 59, 69
2, 417480, Note_on_c, 0, 59, 0
2, 417594, Note_on_c, 0, 57, 51
2, 417660, Note_on_c, 0, 57, 0
2, 417766, Note_on_c, 0, 56, 64
2, 417820, Note_on_c, 0, 56, 0
2, 417928, Note_on_c, 0, 74, 122
2, 417932, Note_on_c, 0, 62, 106
2, 418048, Note_on_c, 0, 62, 0
2, 418102, Note_on_c, 0, 74, 0
2, 418105, Note_on_c, 0, 71, 105
2, 418120, Note_on_c, 0, 59, 77
2, 418166, Note_on_c, 0, 71, 0
2, 418168, Note_on_c, 0, 59, 0
2, 418284, Note_on_c, 0, 57, 72
2, 418284, Note_on_c, 0, 69, 83
2, 418342, Note_on_c, 0, 69, 0
2, 418342, Note_on_c, 0, 57, 0
2, 418460, Note_on_c, 0, 56, 70
2, 418463, Note_on_c, 0, 68, 79
2, 418510, Note_on_c, 0, 56, 0
2, 418526, Note_on_c, 0, 68, 0
2, 418622, Note_on_c, 0, 59, 93
2, 418676, Note_on_c, 0, 59, 0
2, 418786, Note_on_c, 0, 56, 91
2, 418864, Note_on_c, 0, 56, 0
2, 418974, Note_on_c, 0, 53, 115
2, 419012, Note_on_c, 0, 53, 0
2, 419124, Note_on_c, 0, 52, 116
2, 419206, Note_on_c, 0, 52, 0
2, 419304, Note_on_c, 0, 50, 109
2, 419352, Note_on_c, 0, 50, 0
2, 419470, Note_on_c, 0, 48, 92
2, 419512, Note_on_c, 0, 48, 0
2, 419638, Note_on_c, 0, 47, 88
2, 419680, Note_on_c, 0, 47, 0
2, 419838, Note_on_c, 0, 82, 91
2, 419850, Note_on_c, 0, 73, 47
2, 419854, Note_on_c, 0, 79, 72
2, 419854, Note_on_c, 0, 45, 61
2, 419922, Note_on_c, 0, 45, 0
2, 419940, Control_c, 0, 64, 127
2, 420272, Note_on_c, 0, 61, 64
2, 420290, Note_on_c, 0, 79, 0
2, 420294, Note_on_c, 0, 57, 26
2, 420296, Note_on_c, 0, 52, 38
2, 420356, Note_on_c, 0, 52, 0
2, 420366, Note_on_c, 0, 57, 0
2, 420378, Note_on_c, 0, 82, 0
2, 420380, Note_on_c, 0, 61, 0
2, 420440, Note_on_c, 0, 81, 88
2, 420454, Note_on_c, 0, 77, 74
2, 420484, Note_on_c, 0, 81, 0
2, 420500, Note_on_c, 0, 77, 0
2, 420520, Note_on_c, 0, 73, 0
2, 420612, Note_on_c, 0, 67, 80
2, 420620, Note_on_c, 0, 77, 80
2, 420624, Note_on_c, 0, 61, 68
2, 420626, Note_on_c, 0, 57, 61
2, 420628, Note_on_c, 0, 81, 95
2, 420660, Note_on_c, 0, 67, 0
2, 420686, Note_on_c, 0, 57, 0
2, 420686, Note_on_c, 0, 61, 0
2, 420708, Note_on_c, 0, 77, 0
2, 420782, Note_on_c, 0, 81, 0
2, 420782, Note_on_c, 0, 79, 108
2, 420792, Note_on_c, 0, 76, 77
2, 420842, Note_on_c, 0, 79, 0
2, 420844, Note_on_c, 0, 76, 0
2, 420940, Control_c, 0, 64, 0
2, 420962, Note_on_c, 0, 45, 70
2, 420976, Note_on_c, 0, 79, 123
2, 420980, Note_on_c, 0, 73, 90
2, 420990, Note_on_c, 0, 76, 78
2, 421064, Note_on_c, 0, 45, 0
2, 421108, Control_c, 0, 64, 127
2, 421336, Note_on_c, 0, 61, 85
2, 421344, Note_on_c, 0, 76, 0
2, 421350, Note_on_c, 0, 57, 26
2, 421362, Note_on_c, 0, 52, 55
2, 421402, Note_on_c, 0, 61, 0
2, 421422, Note_on_c, 0, 57, 0
2, 421422, Note_on_c, 0, 52, 0
2, 421446, Note_on_c, 0, 73, 0
2, 421460, Note_on_c, 0, 79, 0
2, 421522, Note_on_c, 0, 81, 108
2, 421526, Note_on_c, 0, 77, 99
2, 421564, Note_on_c, 0, 77, 0
2, 421620, Note_on_c, 0, 81, 0
2, 421668, Note_on_c, 0, 57, 46
2, 421680, Note_on_c, 0, 61, 67
2, 421696, Note_on_c, 0, 67, 78
2, 421704, Note_on_c, 0, 81, 98
2, 421719, Note_on_c, 0, 77, 102
2, 421746, Note_on_c, 0, 67, 0
2, 421752, Note_on_c, 0, 57, 0
2, 421780, Note_on_c, 0, 61, 0
2, 421792, Note_on_c, 0, 77, 0
2, 421882, Note_on_c, 0, 82, 105
2, 421886, Note_on_c, 0, 79, 107
2, 421908, Note_on_c, 0, 81, 0
2, 421944, Note_on_c, 0, 79, 0
2, 421976, Note_on_c, 0, 82, 0
2, 422014, Control_c, 0, 64, 0
2, 422062, Note_on_c, 0, 82, 92
2, 422074, Note_on_c, 0, 45, 64
2, 422078, Note_on_c, 0, 73, 79
2, 422078, Note_on_c, 0, 79, 109
2, 422130, Note_on_c, 0, 45, 0
2, 422184, Control_c, 0, 64, 127
2, 422332, Note_on_c, 0, 73, 0
2, 422472, Note_on_c, 0, 61, 56
2, 422480, Note_on_c, 0, 52, 52
2, 422482, Note_on_c, 0, 57, 16
2, 422536, Note_on_c, 0, 52, 0
2, 422540, Note_on_c, 0, 61, 0
2, 422540, Note_on_c, 0, 57, 0
2, 422868, Note_on_c, 0, 67, 55
2, 422878, Note_on_c, 0, 57, 52
2, 422882, Note_on_c, 0, 61, 56
2, 422930, Note_on_c, 0, 67, 0
2, 422936, Note_on_c, 0, 57, 0
2, 422938, Note_on_c, 0, 61, 0
2, 422938, Note_on_c, 0, 79, 0
2, 423212, Control_c, 0, 64, 0
2, 423254, Note_on_c, 0, 45, 54
2, 423254, Note_on_c, 0, 81, 65
2, 423258, Note_on_c, 0, 82, 0
2, 423258, Note_on_c, 0, 73, 51
2, 423270, Note_on_c, 0, 79, 65
2, 423312, Note_on_c, 0, 45, 0
2, 423366, Control_c, 0, 64, 127
2, 423606, Note_on_c, 0, 52, 77
2, 423611, Note_on_c, 0, 61, 59
2, 423620, Note_on_c, 0, 57, 21
2, 423666, Note_on_c, 0, 52, 0
2, 423680, Note_on_c, 0, 61, 0
2, 423680, Note_on_c, 0, 57, 0
2, 423998, Note_on_c, 0, 67, 64
2, 424010, Note_on_c, 0, 61, 56
2, 424012, Note_on_c, 0, 57, 49
2, 424054, Note_on_c, 0, 67, 0
2, 424074, Note_on_c, 0, 57, 0
2, 424077, Note_on_c, 0, 61, 0
2, 424168, Note_on_c, 0, 73, 0
2, 424196, Note_on_c, 0, 81, 0
2, 424208, Note_on_c, 0, 79, 0
2, 424304, Control_c, 0, 64, 0
2, 424580, Note_on_c, 0, 70, 70
2, 424638, Note_on_c, 0, 70, 0
2, 424766, Note_on_c, 0, 67, 78
2, 424822, Note_on_c, 0, 67, 0
2, 424958, Note_on_c, 0, 65, 68
2, 425008, Note_on_c, 0, 65, 0
2, 425128, Note_on_c, 0, 64, 84
2, 425170, Note_on_c, 0, 64, 0
2, 425300, Note_on_c, 0, 70, 99
2, 425302, Note_on_c, 0, 82, 103
2, 425484, Note_on_c, 0, 70, 0
2, 425484, Note_on_c, 0, 79, 103
2, 425487, Note_on_c, 0, 82, 0
2, 425487, Note_on_c, 0, 67, 88
2, 425536, Note_on_c, 0, 79, 0
2, 425542, Note_on_c, 0, 67, 0
2, 425652, Note_on_c, 0, 77, 90
2, 425658, Note_on_c, 0, 65, 69
2, 425700, Note_on_c, 0, 77, 0
2, 425712, Note_on_c, 0, 65, 0
2, 425838, Note_on_c, 0, 76, 70
2, 425842, Note_on_c, 0, 64, 70
2, 425890, Note_on_c, 0, 64, 0
2, 425892, Note_on_c, 0, 76, 0
2, 426004, Note_on_c, 0, 67, 101
2, 426072, Note_on_c, 0, 67, 0
2, 426204, Note_on_c, 0, 64, 80
2, 426248, Note_on_c, 0, 64, 0
2, 426358, Note_on_c, 0, 62, 69
2, 426408, Note_on_c, 0, 62, 0
2, 426532, Note_on_c, 0, 61, 78
2, 426580, Note_on_c, 0, 61, 0
2, 426700, Note_on_c, 0, 79, 127
2, 426704, Note_on_c, 0, 67, 99
2, 426856, Note_on_c, 0, 79, 0
2, 426878, Note_on_c, 0, 67, 0
2, 426880, Note_on_c, 0, 76, 103
2, 426898, Note_on_c, 0, 64, 90
2, 426950, Note_on_c, 0, 64, 0
2, 427002, Note_on_c, 0, 76, 0
2, 427052, Note_on_c, 0, 74, 102
2, 427055, Note_on_c, 0, 62, 70
2, 427096, Note_on_c, 0, 74, 0
2, 427108, Note_on_c, 0, 62, 0
2, 427218, Note_on_c, 0, 73, 84
2, 427218, Note_on_c, 0, 61, 77
2, 427258, Note_on_c, 0, 73, 0
2, 427268, Note_on_c, 0, 61, 0
2, 427380, Note_on_c, 0, 64, 90
2, 427432, Note_on_c, 0, 64, 0
2, 427564, Note_on_c, 0, 61, 84
2, 427624, Note_on_c, 0, 61, 0
2, 427750, Note_on_c, 0, 58, 74
2, 427806, Note_on_c, 0, 58, 0
2, 427920, Note_on_c, 0, 57, 88
2, 427986, Note_on_c, 0, 57, 0
2, 428100, Note_on_c, 0, 55, 88
2, 428152, Note_on_c, 0, 55, 0
2, 428270, Note_on_c, 0, 53, 110
2, 428320, Note_on_c, 0, 53, 0
2, 428478, Note_on_c, 0, 52, 72
2, 428530, Note_on_c, 0, 52, 0
2, 428914, Note_on_c, 0, 50, 51
2, 429006, Control_c, 0, 64, 127
2, 429066, Note_on_c, 0, 50, 0
2, 429248, Note_on_c, 0, 66, 59
2, 429252, Control_c, 0, 64, 0
2, 429266, Note_on_c, 0, 57, 46
2, 429268, Note_on_c, 0, 62, 56
2, 429320, Note_on_c, 0, 66, 0
2, 429330, Note_on_c, 0, 62, 0
2, 429333, Note_on_c, 0, 57, 0
2, 429576, Note_on_c, 0, 67, 62
2, 429579, Note_on_c, 0, 57, 56
2, 429586, Note_on_c, 0, 64, 59
2, 429638, Note_on_c, 0, 57, 0
2, 429646, Note_on_c, 0, 64, 0
2, 429652, Note_on_c, 0, 67, 0
2, 429726, Note_on_c, 0, 57, 46
2, 429792, Note_on_c, 0, 57, 0
2, 429936, Note_on_c, 0, 50, 76
2, 430012, Note_on_c, 0, 50, 0
2, 430244, Note_on_c, 0, 66, 65
2, 430246, Note_on_c, 0, 69, 62
2, 430260, Note_on_c, 0, 57, 69
2, 430318, Note_on_c, 0, 57, 0
2, 430324, Note_on_c, 0, 66, 0
2, 430342, Note_on_c, 0, 69, 0
2, 430578, Note_on_c, 0, 57, 64
2, 430586, Note_on_c, 0, 67, 64
2, 430593, Note_on_c, 0, 71, 61
2, 430636, Note_on_c, 0, 57, 0
2, 430652, Note_on_c, 0, 67, 0
2, 430658, Note_on_c, 0, 71, 0
2, 430712, Note_on_c, 0, 57, 63
2, 430782, Note_on_c, 0, 57, 0
2, 430914, Note_on_c, 0, 50, 84
2, 430962, Note_on_c, 0, 50, 0
2, 431260, Note_on_c, 0, 69, 59
2, 431262, Note_on_c, 0, 57, 60
2, 431272, Note_on_c, 0, 66, 41
2, 431320, Note_on_c, 0, 57, 0
2, 431328, Note_on_c, 0, 69, 0
2, 431342, Note_on_c, 0, 66, 0
2, 431602, Note_on_c, 0, 69, 80
2, 431618, Note_on_c, 0, 67, 79
2, 431628, Note_on_c, 0, 57, 17
2, 431682, Note_on_c, 0, 57, 0
2, 431685, Note_on_c, 0, 67, 0
2, 431726, Control_c, 0, 64, 127
2, 431746, Note_on_c, 0, 69, 0
2, 431772, Note_on_c, 0, 57, 45
2, 431846, Note_on_c, 0, 57, 0
2, 431994, Note_on_c, 0, 74, 60
2, 432022, Note_on_c, 0, 50, 47
2, 432036, Note_on_c, 0, 76, 72
2, 432048, Control_c, 0, 64, 0
2, 432090, Note_on_c, 0, 76, 0
2, 432096, Note_on_c, 0, 50, 0
2, 432216, Note_on_c, 0, 74, 0
2, 432266, Note_on_c, 0, 73, 83
2, 432312, Note_on_c, 0, 73, 0
2, 432424, Note_on_c, 0, 66, 37
2, 432428, Note_on_c, 0, 74, 83
2, 432434, Note_on_c, 0, 57, 33
2, 432444, Note_on_c, 0, 62, 49
2, 432474, Note_on_c, 0, 74, 0
2, 432496, Note_on_c, 0, 66, 0
2, 432499, Note_on_c, 0, 62, 0
2, 432506, Note_on_c, 0, 57, 0
2, 432582, Note_on_c, 0, 76, 86
2, 432632, Note_on_c, 0, 76, 0
2, 432738, Note_on_c, 0, 78, 97
2, 432746, Note_on_c, 0, 57, 56
2, 432752, Note_on_c, 0, 61, 60
2, 432766, Note_on_c, 0, 64, 40
2, 432788, Note_on_c, 0, 78, 0
2, 432802, Note_on_c, 0, 57, 0
2, 432804, Note_on_c, 0, 61, 0
2, 432830, Note_on_c, 0, 64, 0
2, 432896, Note_on_c, 0, 79, 110
2, 432940, Note_on_c, 0, 79, 0
2, 433068, Note_on_c, 0, 81, 107
2, 433088, Note_on_c, 0, 50, 53
2, 433156, Note_on_c, 0, 50, 0
2, 433212, Note_on_c, 0, 81, 0
2, 433228, Note_on_c, 0, 86, 97
2, 433394, Note_on_c, 0, 86, 0
2, 433450, Note_on_c, 0, 81, 84
2, 433452, Note_on_c, 0, 66, 34
2, 433468, Note_on_c, 0, 62, 38
2, 433492, Note_on_c, 0, 57, 26
2, 433560, Note_on_c, 0, 62, 0
2, 433588, Note_on_c, 0, 57, 0
2, 433646, Control_c, 0, 64, 127
2, 433652, Note_on_c, 0, 66, 0
2, 433708, Note_on_c, 0, 81, 0
2, 433828, Note_on_c, 0, 67, 46
2, 433834, Note_on_c, 0, 79, 88
2, 433848, Note_on_c, 0, 57, 30
2, 433848, Note_on_c, 0, 64, 15
2, 433860, Control_c, 0, 64, 0
2, 433881, Note_on_c, 0, 79, 0
2, 433894, Note_on_c, 0, 81, 72
2, 433900, Note_on_c, 0, 67, 0
2, 433900, Note_on_c, 0, 64, 0
2, 433930, Note_on_c, 0, 57, 0
2, 433938, Note_on_c, 0, 79, 103
2, 433941, Note_on_c, 0, 81, 0
2, 434024, Note_on_c, 0, 79, 0
2, 434024, Note_on_c, 0, 81, 79
2, 434100, Note_on_c, 0, 79, 97
2, 434122, Note_on_c, 0, 81, 0
2, 434158, Note_on_c, 0, 79, 0
2, 434164, Note_on_c, 0, 78, 93
2, 434170, Note_on_c, 0, 50, 53
2, 434238, Note_on_c, 0, 50, 0
2, 434280, Note_on_c, 0, 78, 0
2, 434338, Note_on_c, 0, 86, 71
2, 434486, Note_on_c, 0, 86, 0
2, 434520, Note_on_c, 0, 78, 79
2, 434524, Note_on_c, 0, 69, 31
2, 434538, Note_on_c, 0, 57, 37
2, 434538, Note_on_c, 0, 66, 46
2, 434638, Note_on_c, 0, 69, 0
2, 434644, Control_c, 0, 64, 127
2, 434654, Note_on_c, 0, 57, 0
2, 434742, Note_on_c, 0, 66, 0
2, 434782, Note_on_c, 0, 78, 0
2, 434836, Note_on_c, 0, 57, 51
2, 434844, Control_c, 0, 64, 0
2, 434896, Note_on_c, 0, 76, 64
2, 434924, Note_on_c, 0, 71, 40
2, 434930, Note_on_c, 0, 67, 26
2, 434948, Note_on_c, 0, 76, 0
2, 434950, Note_on_c, 0, 57, 0
2, 434956, Note_on_c, 0, 78, 76
2, 435000, Note_on_c, 0, 67, 0
2, 435016, Note_on_c, 0, 78, 0
2, 435026, Note_on_c, 0, 76, 47
2, 435028, Control_c, 0, 64, 127
2, 435088, Note_on_c, 0, 76, 0
2, 435094, Note_on_c, 0, 78, 70
2, 435106, Control_c, 0, 64, 0
2, 435110, Note_on_c, 0, 71, 0
2, 435174, Note_on_c, 0, 76, 55
2, 435218, Note_on_c, 0, 78, 0
2, 435242, Note_on_c, 0, 50, 56
2, 435264, Note_on_c, 0, 76, 0
2, 435276, Note_on_c, 0, 74, 79
2, 435298, Note_on_c, 0, 50, 0
2, 435584, Note_on_c, 0, 69, 52
2, 435594, Note_on_c, 0, 66, 54
2, 435596, Note_on_c, 0, 57, 48
2, 435652, Note_on_c, 0, 69, 0
2, 435666, Note_on_c, 0, 57, 0
2, 435666, Note_on_c, 0, 66, 0
2, 435944, Note_on_c, 0, 67, 48
2, 435948, Note_on_c, 0, 57, 38
2, 435972, Note_on_c, 0, 64, 47
2, 436012, Note_on_c, 0, 67, 0
2, 436032, Note_on_c, 0, 64, 0
2, 436058, Control_c, 0, 64, 127
2, 436076, Note_on_c, 0, 57, 0
2, 436122, Note_on_c, 0, 74, 0
2, 436284, Note_on_c, 0, 50, 63
2, 436288, Control_c, 0, 64, 0
2, 436440, Note_on_c, 0, 50, 0
2, 436614, Note_on_c, 0, 65, 44
2, 436616, Note_on_c, 0, 57, 47
2, 436626, Note_on_c, 0, 62, 44
2, 436686, Note_on_c, 0, 57, 0
2, 436694, Note_on_c, 0, 65, 0
2, 436712, Note_on_c, 0, 62, 0
2, 436958, Note_on_c, 0, 57, 59
2, 436966, Note_on_c, 0, 67, 51
2, 436969, Note_on_c, 0, 64, 52
2, 437016, Note_on_c, 0, 57, 0
2, 437042, Note_on_c, 0, 64, 0
2, 437062, Note_on_c, 0, 67, 0
2, 437098, Note_on_c, 0, 57, 47
2, 437166, Note_on_c, 0, 57, 0
2, 437294, Note_on_c, 0, 50, 86
2, 437340, Note_on_c, 0, 50, 0
2, 437618, Note_on_c, 0, 69, 56
2, 437620, Note_on_c, 0, 57, 59
2, 437624, Note_on_c, 0, 65, 51
2, 437682, Note_on_c, 0, 57, 0
2, 437688, Note_on_c, 0, 65, 0
2, 437712, Note_on_c, 0, 69, 0
2, 437954, Note_on_c, 0, 70, 47
2, 437960, Note_on_c, 0, 57, 54
2, 437962, Note_on_c, 0, 67, 52
2, 438018, Note_on_c, 0, 57, 0
2, 438048, Note_on_c, 0, 67, 0
2, 438096, Note_on_c, 0, 57, 52
2, 438172, Note_on_c, 0, 57, 0
2, 438186, Note_on_c, 0, 70, 0
2, 438314, Note_on_c, 0, 50, 53
2, 438378, Note_on_c, 0, 50, 0
2, 438640, Note_on_c, 0, 65, 26
2, 438642, Note_on_c, 0, 57, 41
2, 438644, Note_on_c, 0, 69, 45
2, 438716, Note_on_c, 0, 57, 0
2, 438722, Note_on_c, 0, 65, 0
2, 438746, Note_on_c, 0, 69, 0
2, 439016, Note_on_c, 0, 69, 54
2, 439020, Note_on_c, 0, 67, 11
2, 439026, Note_on_c, 0, 64, 37
2, 439028, Note_on_c, 0, 57, 19
2, 439054, Control_c, 0, 64, 127
2, 439086, Note_on_c, 0, 64, 0
2, 439106, Note_on_c, 0, 67, 0
2, 439156, Note_on_c, 0, 57, 0
2, 439192, Note_on_c, 0, 69, 0
2, 439344, Note_on_c, 0, 74, 84
2, 439388, Note_on_c, 0, 74, 0
2, 439408, Control_c, 0, 64, 0
2, 439414, Note_on_c, 0, 76, 69
2, 439448, Note_on_c, 0, 50, 28
2, 439456, Note_on_c, 0, 74, 84
2, 439478, Note_on_c, 0, 76, 0
2, 439552, Note_on_c, 0, 50, 0
2, 439608, Control_c, 0, 64, 127
2, 439642, Note_on_c, 0, 74, 0
2, 439684, Note_on_c, 0, 73, 69
2, 439734, Note_on_c, 0, 73, 0
2, 439776, Control_c, 0, 64, 0
2, 439860, Note_on_c, 0, 74, 80
2, 439874, Note_on_c, 0, 65, 44
2, 439882, Note_on_c, 0, 62, 41
2, 439884, Note_on_c, 0, 57, 16
2, 439912, Note_on_c, 0, 74, 0
2, 439938, Note_on_c, 0, 65, 0
2, 439941, Note_on_c, 0, 62, 0
2, 439960, Note_on_c, 0, 57, 0
2, 440020, Note_on_c, 0, 76, 78
2, 440066, Note_on_c, 0, 76, 0
2, 440172, Note_on_c, 0, 77, 83
2, 440178, Note_on_c, 0, 57, 29
2, 440186, Note_on_c, 0, 61, 51
2, 440189, Note_on_c, 0, 64, 53
2, 440216, Note_on_c, 0, 77, 0
2, 440244, Note_on_c, 0, 64, 0
2, 440247, Note_on_c, 0, 57, 0
2, 440250, Note_on_c, 0, 61, 0
2, 440342, Note_on_c, 0, 79, 95
2, 440384, Note_on_c, 0, 79, 0
2, 440524, Note_on_c, 0, 81, 76
2, 440556, Note_on_c, 0, 50, 45
2, 440638, Note_on_c, 0, 81, 0
2, 440638, Control_c, 0, 64, 127
2, 440676, Note_on_c, 0, 50, 0
2, 440742, Note_on_c, 0, 86, 62
2, 440834, Note_on_c, 0, 86, 0
2, 440884, Control_c, 0, 64, 0
2, 440974, Note_on_c, 0, 81, 51
2, 440988, Note_on_c, 0, 65, 36
2, 441012, Note_on_c, 0, 57, 21
2, 441012, Note_on_c, 0, 62, 26
2, 441088, Note_on_c, 0, 62, 0
2, 441098, Note_on_c, 0, 65, 0
2, 441118, Note_on_c, 0, 57, 0
2, 441160, Control_c, 0, 64, 127
2, 441200, Note_on_c, 0, 81, 0
2, 441298, Control_c, 0, 64, 0
2, 441326, Note_on_c, 0, 79, 76
2, 441328, Note_on_c, 0, 67, 46
2, 441348, Note_on_c, 0, 64, 49
2, 441356, Note_on_c, 0, 57, 34
2, 441368, Note_on_c, 0, 81, 79
2, 441382, Note_on_c, 0, 79, 0
2, 441406, Note_on_c, 0, 64, 0
2, 441408, Note_on_c, 0, 67, 0
2, 441418, Note_on_c, 0, 81, 0
2, 441446, Note_on_c, 0, 57, 0
2, 441464, Note_on_c, 0, 79, 34
2, 441482, Control_c, 0, 64, 127
2, 441488, Note_on_c, 0, 81, 76
2, 441546, Note_on_c, 0, 81, 0
2, 441558, Control_c, 0, 64, 0
2, 441626, Note_on_c, 0, 79, 0
2, 441629, Note_on_c, 0, 77, 86
2, 441668, Note_on_c, 0, 50, 70
2, 441720, Note_on_c, 0, 50, 0
2, 441794, Note_on_c, 0, 77, 0
2, 441814, Note_on_c, 0, 86, 82
2, 441972, Note_on_c, 0, 86, 0
2, 441982, Note_on_c, 0, 57, 51
2, 441996, Note_on_c, 0, 69, 41
2, 441999, Note_on_c, 0, 77, 80
2, 442014, Note_on_c, 0, 65, 54
2, 442084, Note_on_c, 0, 69, 0
2, 442098, Note_on_c, 0, 65, 0
2, 442112, Note_on_c, 0, 57, 0
2, 442120, Note_on_c, 0, 77, 0
2, 442128, Control_c, 0, 64, 127
2, 442272, Note_on_c, 0, 57, 30
2, 442328, Control_c, 0, 64, 0
2, 442344, Note_on_c, 0, 76, 80
2, 442368, Note_on_c, 0, 67, 47
2, 442372, Note_on_c, 0, 70, 42
2, 442376, Note_on_c, 0, 57, 0
2, 442396, Note_on_c, 0, 76, 0
2, 442436, Note_on_c, 0, 67, 0
2, 442438, Note_on_c, 0, 77, 74
2, 442494, Note_on_c, 0, 77, 0
2, 442502, Note_on_c, 0, 76, 47
2, 442512, Control_c, 0, 64, 127
2, 442564, Note_on_c, 0, 76, 0
2, 442572, Note_on_c, 0, 77, 83
2, 442572, Control_c, 0, 64, 0
2, 442622, Note_on_c, 0, 77, 0
2, 442625, Note_on_c, 0, 70, 0
2, 442646, Note_on_c, 0, 76, 79
2, 442702, Note_on_c, 0, 50, 62
2, 442720, Note_on_c, 0, 76, 0
2, 442748, Note_on_c, 0, 74, 80
2, 442834, Note_on_c, 0, 50, 0
2, 443060, Note_on_c, 0, 69, 53
2, 443064, Note_on_c, 0, 57, 54
2, 443082, Note_on_c, 0, 65, 40
2, 443136, Note_on_c, 0, 69, 0
2, 443144, Note_on_c, 0, 65, 0
2, 443154, Note_on_c, 0, 57, 0
2, 443406, Note_on_c, 0, 57, 37
2, 443414, Note_on_c, 0, 67, 45
2, 443423, Note_on_c, 0, 64, 31
2, 443448, Control_c, 0, 64, 127
2, 443484, Note_on_c, 0, 64, 0
2, 443484, Note_on_c, 0, 67, 0
2, 443534, Note_on_c, 0, 57, 0
2, 443730, Note_on_c, 0, 39, 75
2, 443800, Note_on_c, 0, 74, 0
2, 443848, Control_c, 0, 64, 0
2, 443958, Note_on_c, 0, 51, 83
2, 444076, Note_on_c, 0, 39, 0
2, 444386, Note_on_c, 0, 57, 47
2, 444394, Note_on_c, 0, 60, 39
2, 444396, Note_on_c, 0, 65, 46
2, 444444, Note_on_c, 0, 57, 0
2, 444494, Note_on_c, 0, 60, 0
2, 444548, Note_on_c, 0, 65, 0
2, 444586, Control_c, 0, 64, 127
2, 444826, Note_on_c, 0, 65, 44
2, 444838, Note_on_c, 0, 57, 53
2, 444864, Note_on_c, 0, 60, 37
2, 444920, Note_on_c, 0, 65, 0
2, 444928, Note_on_c, 0, 57, 0
2, 444940, Note_on_c, 0, 60, 0
2, 444982, Note_on_c, 0, 72, 65
2, 445036, Note_on_c, 0, 72, 0
2, 445076, Note_on_c, 0, 77, 99
2, 445112, Note_on_c, 0, 77, 0
2, 445130, Note_on_c, 0, 79, 98
2, 445168, Note_on_c, 0, 77, 107
2, 445242, Note_on_c, 0, 79, 0
2, 445288, Note_on_c, 0, 77, 0
2, 445336, Note_on_c, 0, 76, 100
2, 445384, Note_on_c, 0, 76, 0
2, 445416, Control_c, 0, 64, 0
2, 445464, Note_on_c, 0, 65, 46
2, 445484, Note_on_c, 0, 77, 107
2, 445500, Note_on_c, 0, 60, 59
2, 445514, Note_on_c, 0, 57, 37
2, 445534, Note_on_c, 0, 77, 0
2, 445570, Note_on_c, 0, 60, 0
2, 445580, Note_on_c, 0, 65, 0
2, 445583, Note_on_c, 0, 57, 0
2, 445644, Note_on_c, 0, 79, 111
2, 445700, Note_on_c, 0, 79, 0
2, 445798, Note_on_c, 0, 81, 97
2, 445810, Note_on_c, 0, 65, 30
2, 445820, Note_on_c, 0, 51, 0
2, 445824, Note_on_c, 0, 60, 28
2, 445848, Note_on_c, 0, 81, 0
2, 445876, Control_c, 0, 64, 127
2, 445886, Note_on_c, 0, 60, 0
2, 445888, Note_on_c, 0, 65, 0
2, 445964, Note_on_c, 0, 82, 84
2, 446004, Note_on_c, 0, 82, 0
2, 446058, Note_on_c, 0, 65, 52
2, 446104, Note_on_c, 0, 67, 55
2, 446122, Note_on_c, 0, 65, 0
2, 446148, Note_on_c, 0, 84, 93
2, 446174, Note_on_c, 0, 67, 0
2, 446184, Control_c, 0, 64, 0
2, 446190, Note_on_c, 0, 65, 71
2, 446322, Control_c, 0, 64, 127
2, 446350, Note_on_c, 0, 65, 0
2, 446370, Note_on_c, 0, 84, 0
2, 446394, Note_on_c, 0, 64, 71
2, 446397, Note_on_c, 0, 89, 78
2, 446442, Note_on_c, 0, 64, 0
2, 446450, Note_on_c, 0, 89, 0
2, 446460, Control_c, 0, 64, 0
2, 446548, Note_on_c, 0, 65, 92
2, 446570, Note_on_c, 0, 57, 44
2, 446576, Note_on_c, 0, 60, 63
2, 446576, Note_on_c, 0, 84, 74
2, 446588, Note_on_c, 0, 65, 0
2, 446626, Note_on_c, 0, 84, 0
2, 446629, Control_c, 0, 64, 127
2, 446638, Note_on_c, 0, 60, 0
2, 446644, Note_on_c, 0, 57, 0
2, 446766, Note_on_c, 0, 67, 84
2, 446890, Note_on_c, 0, 67, 0
2, 446958, Note_on_c, 0, 69, 80
2, 446970, Note_on_c, 0, 65, 72
2, 446984, Note_on_c, 0, 60, 59
2, 447020, Note_on_c, 0, 69, 0
2, 447030, Note_on_c, 0, 65, 0
2, 447050, Note_on_c, 0, 60, 0
2, 447122, Note_on_c, 0, 70, 86
2, 447186, Note_on_c, 0, 70, 0
2, 447286, Note_on_c, 0, 72, 98
2, 447414, Control_c, 0, 64, 0
2, 447428, Note_on_c, 0, 72, 0
2, 447476, Note_on_c, 0, 77, 92
2, 447656, Note_on_c, 0, 65, 67
2, 447659, Note_on_c, 0, 77, 0
2, 447659, Note_on_c, 0, 60, 64
2, 447670, Note_on_c, 0, 57, 45
2, 447692, Note_on_c, 0, 72, 71
2, 447704, Control_c, 0, 64, 127
2, 447726, Note_on_c, 0, 65, 0
2, 447768, Note_on_c, 0, 60, 0
2, 447774, Note_on_c, 0, 57, 0
2, 447880, Note_on_c, 0, 72, 0
2, 448056, Note_on_c, 0, 72, 95
2, 448082, Note_on_c, 0, 65, 52
2, 448082, Note_on_c, 0, 57, 30
2, 448094, Note_on_c, 0, 72, 0
2, 448110, Note_on_c, 0, 60, 19
2, 448148, Note_on_c, 0, 65, 0
2, 448156, Note_on_c, 0, 57, 0
2, 448206, Note_on_c, 0, 60, 0
2, 448328, Note_on_c, 0, 42, 83
2, 448382, Control_c, 0, 64, 0
2, 448454, Note_on_c, 0, 54, 114
2, 448614, Note_on_c, 0, 42, 0
2, 448750, Control_c, 0, 64, 127
2, 448798, Note_on_c, 0, 57, 76
2, 448808, Note_on_c, 0, 64, 70
2, 448811, Note_on_c, 0, 60, 57
2, 448846, Note_on_c, 0, 57, 0
2, 448870, Note_on_c, 0, 60, 0
2, 448872, Note_on_c, 0, 64, 0
2, 449150, Note_on_c, 0, 64, 82
2, 449170, Note_on_c, 0, 57, 59
2, 449176, Note_on_c, 0, 60, 63
2, 449318, Note_on_c, 0, 76, 69
2, 449368, Note_on_c, 0, 76, 0
2, 449408, Note_on_c, 0, 81, 72
2, 449436, Note_on_c, 0, 83, 126
2, 449464, Note_on_c, 0, 81, 0
2, 449482, Note_on_c, 0, 64, 0
2, 449492, Note_on_c, 0, 81, 76
2, 449520, Note_on_c, 0, 57, 0
2, 449534, Note_on_c, 0, 83, 0
2, 449558, Note_on_c, 0, 60, 0
2, 449630, Note_on_c, 0, 81, 0
2, 449646, Note_on_c, 0, 80, 110
2, 449712, Note_on_c, 0, 80, 0
2, 449732, Control_c, 0, 64, 0
2, 449796, Note_on_c, 0, 81, 113
2, 449801, Note_on_c, 0, 64, 76
2, 449808, Note_on_c, 0, 60, 74
2, 449811, Note_on_c, 0, 57, 63
2, 449852, Note_on_c, 0, 64, 0
2, 449866, Note_on_c, 0, 81, 0
2, 449869, Note_on_c, 0, 60, 0
2, 449872, Note_on_c, 0, 57, 0
2, 449948, Note_on_c, 0, 83, 127
2, 450010, Note_on_c, 0, 83, 0
2, 450092, Note_on_c, 0, 64, 72
2, 450095, Note_on_c, 0, 57, 33
2, 450106, Note_on_c, 0, 84, 113
2, 450122, Note_on_c, 0, 54, 0
2, 450142, Note_on_c, 0, 84, 0
2, 450148, Control_c, 0, 64, 127
2, 450158, Note_on_c, 0, 64, 0
2, 450160, Note_on_c, 0, 57, 0
2, 450250, Note_on_c, 0, 86, 82
2, 450304, Note_on_c, 0, 86, 0
2, 450316, Note_on_c, 0, 69, 61
2, 450380, Note_on_c, 0, 69, 0
2, 450383, Note_on_c, 0, 71, 95
2, 450418, Note_on_c, 0, 88, 72
2, 450446, Note_on_c, 0, 71, 0
2, 450458, Note_on_c, 0, 69, 41
2, 450468, Note_on_c, 0, 86, 18
2, 450522, Note_on_c, 0, 86, 0
2, 450574, Note_on_c, 0, 88, 0
2, 450604, Note_on_c, 0, 69, 0
2, 450612, Note_on_c, 0, 68, 75
2, 450634, Note_on_c, 0, 93, 84
2, 450660, Note_on_c, 0, 68, 0
2, 450706, Note_on_c, 0, 93, 0
2, 450762, Control_c, 0, 64, 0
2, 450836, Note_on_c, 0, 88, 80
2, 450840, Note_on_c, 0, 64, 22
2, 450840, Note_on_c, 0, 60, 22
2, 450840, Note_on_c, 0, 57, 22
2, 450846, Note_on_c, 0, 69, 22
2, 450880, Note_on_c, 0, 88, 0
2, 450908, Note_on_c, 0, 57, 0
2, 450908, Note_on_c, 0, 64, 0
2, 450908, Note_on_c, 0, 60, 0
2, 450916, Control_c, 0, 64, 127
2, 450994, Note_on_c, 0, 69, 0
2, 451060, Note_on_c, 0, 71, 88
2, 451180, Note_on_c, 0, 71, 0
2, 451278, Note_on_c, 0, 72, 88
2, 451314, Note_on_c, 0, 57, 49
2, 451318, Note_on_c, 0, 64, 57
2, 451378, Note_on_c, 0, 57, 0
2, 451386, Note_on_c, 0, 64, 0
2, 451398, Note_on_c, 0, 72, 0
2, 451466, Note_on_c, 0, 74, 95
2, 451544, Note_on_c, 0, 74, 0
2, 451668, Note_on_c, 0, 76, 72
2, 451740, Note_on_c, 0, 76, 0
2, 451854, Note_on_c, 0, 81, 72
2, 451978, Note_on_c, 0, 81, 0
2, 452088, Note_on_c, 0, 60, 33
2, 452091, Note_on_c, 0, 64, 44
2, 452108, Note_on_c, 0, 57, 17
2, 452110, Note_on_c, 0, 76, 46
2, 452146, Control_c, 0, 64, 0
2, 452222, Note_on_c, 0, 64, 0
2, 452230, Note_on_c, 0, 57, 0
2, 452254, Note_on_c, 0, 60, 0
2, 452284, Control_c, 0, 64, 127
2, 452370, Note_on_c, 0, 76, 0
2, 452574, Note_on_c, 0, 57, 41
2, 452580, Note_on_c, 0, 60, 37
2, 452598, Note_on_c, 0, 64, 33
2, 452650, Note_on_c, 0, 57, 0
2, 452672, Note_on_c, 0, 60, 0
2, 452680, Note_on_c, 0, 64, 0
2, 452944, Note_on_c, 0, 47, 53
2, 453002, Note_on_c, 0, 47, 0
2, 453048, Note_on_c, 0, 60, 103
2, 453388, Note_on_c, 0, 69, 59
2, 453398, Note_on_c, 0, 60, 0
2, 453402, Note_on_c, 0, 64, 48
2, 453414, Note_on_c, 0, 66, 29
2, 453462, Note_on_c, 0, 64, 0
2, 453488, Note_on_c, 0, 66, 0
2, 453494, Note_on_c, 0, 69, 0
2, 453734, Note_on_c, 0, 69, 85
2, 453754, Note_on_c, 0, 63, 83
2, 453754, Note_on_c, 0, 66, 65
2, 453776, Note_on_c, 0, 59, 38
2, 453779, Note_on_c, 0, 69, 0
2, 453798, Note_on_c, 0, 63, 0
2, 453801, Note_on_c, 0, 66, 0
2, 453832, Note_on_c, 0, 59, 0
2, 453942, Note_on_c, 0, 71, 84
2, 453992, Note_on_c, 0, 78, 92
2, 454000, Note_on_c, 0, 71, 0
2, 454034, Note_on_c, 0, 78, 0
2, 454050, Control_c, 0, 64, 0
2, 454052, Note_on_c, 0, 79, 98
2, 454110, Note_on_c, 0, 78, 91
2, 454116, Note_on_c, 0, 47, 82
2, 454160, Note_on_c, 0, 47, 0
2, 454190, Note_on_c, 0, 79, 0
2, 454220, Control_c, 0, 64, 127
2, 454304, Note_on_c, 0, 77, 110
2, 454338, Note_on_c, 0, 78, 0
2, 454416, Note_on_c, 0, 77, 0
2, 454464, Note_on_c, 0, 78, 118
2, 454467, Note_on_c, 0, 69, 77
2, 454476, Note_on_c, 0, 60, 72
2, 454500, Note_on_c, 0, 66, 41
2, 454506, Note_on_c, 0, 64, 64
2, 454550, Note_on_c, 0, 69, 0
2, 454553, Note_on_c, 0, 78, 0
2, 454553, Note_on_c, 0, 64, 0
2, 454562, Note_on_c, 0, 66, 0
2, 454584, Note_on_c, 0, 60, 0
2, 454618, Note_on_c, 0, 79, 126
2, 454752, Note_on_c, 0, 79, 0
2, 454784, Note_on_c, 0, 69, 76
2, 454796, Note_on_c, 0, 81, 121
2, 454802, Note_on_c, 0, 63, 79
2, 454812, Note_on_c, 0, 66, 39
2, 454820, Note_on_c, 0, 59, 36
2, 454834, Note_on_c, 0, 69, 0
2, 454846, Note_on_c, 0, 63, 0
2, 454884, Note_on_c, 0, 59, 0
2, 454888, Note_on_c, 0, 66, 0
2, 454936, Note_on_c, 0, 81, 0
2, 454966, Note_on_c, 0, 83, 127
2, 455096, Control_c, 0, 64, 0
2, 455136, Note_on_c, 0, 47, 72
2, 455190, Note_on_c, 0, 83, 0
2, 455193, Note_on_c, 0, 47, 0
2, 455200, Note_on_c, 0, 84, 114
2, 455264, Control_c, 0, 64, 127
2, 455322, Note_on_c, 0, 84, 0
2, 455422, Note_on_c, 0, 65, 74
2, 455442, Note_on_c, 0, 72, 83
2, 455504, Note_on_c, 0, 65, 0
2, 455590, Note_on_c, 0, 72, 0
2, 455664, Note_on_c, 0, 78, 99
2, 455668, Note_on_c, 0, 66, 72
2, 455692, Note_on_c, 0, 64, 65
2, 455700, Note_on_c, 0, 60, 44
2, 455752, Note_on_c, 0, 64, 0
2, 455790, Note_on_c, 0, 60, 0
2, 455790, Note_on_c, 0, 66, 0
2, 455840, Note_on_c, 0, 78, 0
2, 455860, Note_on_c, 0, 67, 91
2, 455938, Note_on_c, 0, 67, 0
2, 456030, Note_on_c, 0, 69, 84
2, 456030, Note_on_c, 0, 63, 82
2, 456064, Note_on_c, 0, 59, 57
2, 456096, Note_on_c, 0, 63, 0
2, 456099, Note_on_c, 0, 69, 0
2, 456128, Note_on_c, 0, 59, 0
2, 456196, Note_on_c, 0, 71, 113
2, 456326, Control_c, 0, 64, 0
2, 456348, Note_on_c, 0, 71, 0
2, 456372, Note_on_c, 0, 72, 98
2, 456384, Note_on_c, 0, 47, 76
2, 456436, Note_on_c, 0, 47, 0
2, 456456, Note_on_c, 0, 72, 0
2, 456494, Control_c, 0, 64, 127
2, 456556, Note_on_c, 0, 60, 91
2, 456690, Note_on_c, 0, 60, 0
2, 456756, Control_c, 0, 64, 0
2, 456792, Note_on_c, 0, 66, 83
2, 456800, Note_on_c, 0, 60, 33
2, 456814, Note_on_c, 0, 69, 37
2, 456814, Note_on_c, 0, 64, 57
2, 456872, Note_on_c, 0, 64, 0
2, 456906, Note_on_c, 0, 69, 0
2, 456940, Control_c, 0, 64, 127
2, 456978, Note_on_c, 0, 60, 0
2, 457270, Note_on_c, 0, 69, 37
2, 457272, Note_on_c, 0, 63, 41
2, 457275, Note_on_c, 0, 59, 46
2, 457336, Note_on_c, 0, 63, 0
2, 457341, Note_on_c, 0, 59, 0
2, 457362, Note_on_c, 0, 69, 0
2, 457596, Note_on_c, 0, 40, 78
2, 457674, Note_on_c, 0, 66, 0
2, 457790, Note_on_c, 0, 53, 113
2, 457876, Control_c, 0, 64, 0
2, 458042, Note_on_c, 0, 40, 0
2, 458062, Control_c, 0, 64, 127
2, 458188, Note_on_c, 0, 53, 0
2, 458224, Note_on_c, 0, 57, 62
2, 458230, Note_on_c, 0, 62, 61
2, 458244, Note_on_c, 0, 59, 46
2, 458278, Note_on_c, 0, 57, 0
2, 458310, Note_on_c, 0, 59, 0
2, 458410, Note_on_c, 0, 62, 0
2, 458686, Note_on_c, 0, 62, 62
2, 458690, Note_on_c, 0, 56, 47
2, 458702, Note_on_c, 0, 64, 109
2, 458704, Note_on_c, 0, 59, 49
2, 458706, Note_on_c, 0, 52, 52
2, 458770, Note_on_c, 0, 59, 0
2, 458774, Note_on_c, 0, 62, 0
2, 458810, Note_on_c, 0, 56, 0
2, 458846, Note_on_c, 0, 52, 0
2, 458878, Note_on_c, 0, 64, 0
2, 458968, Note_on_c, 0, 71, 100
2, 459008, Note_on_c, 0, 71, 0
2, 459011, Note_on_c, 0, 72, 95
2, 459028, Control_c, 0, 64, 0
2, 459056, Note_on_c, 0, 71, 126
2, 459086, Note_on_c, 0, 40, 93
2, 459094, Note_on_c, 0, 41, 55
2, 459116, Note_on_c, 0, 72, 0
2, 459132, Note_on_c, 0, 40, 0
2, 459150, Note_on_c, 0, 41, 0
2, 459198, Control_c, 0, 64, 127
2, 459262, Note_on_c, 0, 70, 101
2, 459290, Note_on_c, 0, 71, 0
2, 459376, Note_on_c, 0, 70, 0
2, 459420, Note_on_c, 0, 71, 120
2, 459432, Note_on_c, 0, 62, 53
2, 459434, Note_on_c, 0, 57, 49
2, 459450, Note_on_c, 0, 59, 17
2, 459460, Note_on_c, 0, 53, 65
2, 459496, Note_on_c, 0, 62, 0
2, 459508, Note_on_c, 0, 57, 0
2, 459522, Note_on_c, 0, 59, 0
2, 459526, Note_on_c, 0, 71, 0
2, 459529, Note_on_c, 0, 53, 0
2, 459588, Note_on_c, 0, 72, 110
2, 459692, Note_on_c, 0, 72, 0
2, 459706, Control_c, 0, 64, 0
2, 459748, Note_on_c, 0, 62, 68
2, 459756, Note_on_c, 0, 59, 47
2, 459758, Note_on_c, 0, 74, 114
2, 459760, Note_on_c, 0, 56, 56
2, 459768, Note_on_c, 0, 52, 61
2, 459802, Note_on_c, 0, 62, 0
2, 459810, Note_on_c, 0, 59, 0
2, 459822, Note_on_c, 0, 56, 0
2, 459848, Note_on_c, 0, 52, 0
2, 459874, Control_c, 0, 64, 127
2, 459884, Note_on_c, 0, 74, 0
2, 459934, Note_on_c, 0, 76, 100
2, 460058, Control_c, 0, 64, 0
2, 460110, Note_on_c, 0, 40, 76
2, 460116, Note_on_c, 0, 76, 0
2, 460148, Note_on_c, 0, 77, 85
2, 460154, Note_on_c, 0, 40, 0
2, 460212, Control_c, 0, 64, 127
2, 460236, Note_on_c, 0, 77, 0
2, 460324, Note_on_c, 0, 58, 61
2, 460360, Note_on_c, 0, 65, 83
2, 460472, Note_on_c, 0, 65, 0
2, 460480, Note_on_c, 0, 58, 0
2, 460550, Control_c, 0, 64, 0
2, 460572, Note_on_c, 0, 59, 86
2, 460582, Note_on_c, 0, 53, 87
2, 460592, Note_on_c, 0, 57, 24
2, 460594, Note_on_c, 0, 71, 83
2, 460628, Note_on_c, 0, 53, 0
2, 460656, Note_on_c, 0, 57, 0
2, 460718, Control_c, 0, 64, 127
2, 460774, Note_on_c, 0, 60, 90
2, 460778, Note_on_c, 0, 59, 0
2, 460836, Note_on_c, 0, 60, 0
2, 460858, Control_c, 0, 64, 0
2, 460962, Note_on_c, 0, 62, 78
2, 460968, Note_on_c, 0, 56, 55
2, 460974, Note_on_c, 0, 59, 61
2, 460974, Note_on_c, 0, 52, 45
2, 461020, Note_on_c, 0, 62, 0
2, 461028, Note_on_c, 0, 59, 0
2, 461042, Note_on_c, 0, 56, 0
2, 461074, Note_on_c, 0, 52, 0
2, 461118, Control_c, 0, 64, 127
2, 461166, Note_on_c, 0, 64, 83
2, 461208, Note_on_c, 0, 71, 0
2, 461240, Note_on_c, 0, 64, 0
2, 461350, Control_c, 0, 64, 0
2, 461372, Note_on_c, 0, 40, 71
2, 461390, Note_on_c, 0, 65, 70
2, 461462, Note_on_c, 0, 40, 0
2, 461518, Note_on_c, 0, 65, 0
2, 461534, Control_c, 0, 64, 127
2, 461598, Note_on_c, 0, 53, 99
2, 461732, Note_on_c, 0, 53, 0
2, 461932, Control_c, 0, 64, 0
2, 461940, Note_on_c, 0, 59, 87
2, 461944, Note_on_c, 0, 57, 14
2, 461950, Note_on_c, 0, 62, 40
2, 461950, Note_on_c, 0, 53, 59
2, 462014, Note_on_c, 0, 62, 0
2, 462154, Note_on_c, 0, 57, 0
2, 462226, Control_c, 0, 64, 127
2, 462258, Note_on_c, 0, 53, 0
2, 462350, Note_on_c, 0, 59, 0
2, 462634, Note_on_c, 0, 56, 24
2, 462634, Note_on_c, 0, 64, 84
2, 462644, Note_on_c, 0, 62, 33
2, 462654, Note_on_c, 0, 52, 33
2, 462824, Control_c, 0, 64, 0
2, 462906, Note_on_c, 0, 62, 0
2, 462938, Note_on_c, 0, 56, 0
2, 462940, Note_on_c, 0, 52, 0
2, 462948, Control_c, 0, 64, 127
2, 462990, Note_on_c, 0, 64, 0
2, 463030, Note_on_c, 0, 69, 71
2, 463080, Note_on_c, 0, 69, 0
2, 463100, Control_c, 0, 64, 0
2, 463102, Note_on_c, 0, 71, 68
2, 463132, Note_on_c, 0, 69, 91
2, 463154, Note_on_c, 0, 45, 49
2, 463180, Note_on_c, 0, 71, 0
2, 463226, Note_on_c, 0, 45, 0
2, 463300, Control_c, 0, 64, 127
2, 463328, Note_on_c, 0, 69, 0
2, 463338, Note_on_c, 0, 68, 90
2, 463394, Note_on_c, 0, 68, 0
2, 463500, Control_c, 0, 64, 0
2, 463504, Note_on_c, 0, 69, 83
2, 463512, Note_on_c, 0, 60, 55
2, 463520, Note_on_c, 0, 57, 52
2, 463542, Note_on_c, 0, 52, 44
2, 463570, Note_on_c, 0, 69, 0
2, 463578, Note_on_c, 0, 57, 0
2, 463580, Note_on_c, 0, 60, 0
2, 463608, Note_on_c, 0, 52, 0
2, 463674, Note_on_c, 0, 71, 91
2, 463722, Note_on_c, 0, 71, 0
2, 463824, Note_on_c, 0, 62, 61
2, 463838, Note_on_c, 0, 72, 85
2, 463841, Note_on_c, 0, 52, 63
2, 463878, Note_on_c, 0, 62, 0
2, 463884, Note_on_c, 0, 72, 0
2, 463904, Note_on_c, 0, 52, 0
2, 464008, Note_on_c, 0, 74, 80
2, 464060, Note_on_c, 0, 74, 0
2, 464150, Note_on_c, 0, 45, 72
2, 464200, Note_on_c, 0, 76, 67
2, 464203, Note_on_c, 0, 45, 0
2, 464206, Note_on_c, 0, 57, 74
2, 464284, Control_c, 0, 64, 127
2, 464334, Note_on_c, 0, 57, 0
2, 464386, Note_on_c, 0, 56, 74
2, 464400, Note_on_c, 0, 76, 0
2, 464412, Note_on_c, 0, 81, 72
2, 464460, Note_on_c, 0, 81, 0
2, 464484, Note_on_c, 0, 56, 0
2, 464500, Control_c, 0, 64, 0
2, 464560, Note_on_c, 0, 57, 97
2, 464572, Note_on_c, 0, 72, 78
2, 464578, Note_on_c, 0, 76, 72
2, 464586, Note_on_c, 0, 69, 59
2, 464620, Note_on_c, 0, 57, 0
2, 464630, Note_on_c, 0, 72, 0
2, 464632, Note_on_c, 0, 76, 0
2, 464654, Note_on_c, 0, 69, 0
2, 464728, Note_on_c, 0, 59, 99
2, 464770, Note_on_c, 0, 59, 0
2, 464868, Note_on_c, 0, 74, 100
2, 464880, Note_on_c, 0, 60, 93
2, 464890, Note_on_c, 0, 65, 59
2, 464914, Note_on_c, 0, 74, 0
2, 464932, Note_on_c, 0, 60, 0
2, 464966, Note_on_c, 0, 76, 62
2, 464990, Note_on_c, 0, 74, 87
2, 465020, Note_on_c, 0, 62, 63
2, 465030, Note_on_c, 0, 74, 0
2, 465054, Note_on_c, 0, 71, 7
2, 465068, Note_on_c, 0, 65, 0
2, 465080, Note_on_c, 0, 62, 0
2, 465098, Note_on_c, 0, 74, 97
2, 465108, Note_on_c, 0, 71, 0
2, 465166, Note_on_c, 0, 72, 76
2, 465170, Note_on_c, 0, 76, 0
2, 465178, Note_on_c, 0, 64, 71
2, 465182, Note_on_c, 0, 45, 94
2, 465218, Note_on_c, 0, 74, 0
2, 465226, Note_on_c, 0, 45, 0
2, 465254, Note_on_c, 0, 64, 0
2, 465270, Note_on_c, 0, 72, 0
2, 465328, Note_on_c, 0, 76, 87
2, 465334, Note_on_c, 0, 69, 69
2, 465386, Note_on_c, 0, 69, 0
2, 465396, Note_on_c, 0, 76, 0
2, 465514, Note_on_c, 0, 72, 90
2, 465526, Note_on_c, 0, 60, 60
2, 465532, Note_on_c, 0, 64, 72
2, 465540, Note_on_c, 0, 52, 57
2, 465592, Note_on_c, 0, 64, 0
2, 465614, Note_on_c, 0, 60, 0
2, 465646, Note_on_c, 0, 72, 0
2, 465650, Note_on_c, 0, 52, 0
2, 465666, Control_c, 0, 64, 127
2, 465820, Control_c, 0, 64, 0
2, 465834, Note_on_c, 0, 52, 74
2, 465868, Note_on_c, 0, 62, 84
2, 465876, Note_on_c, 0, 68, 53
2, 465876, Note_on_c, 0, 71, 79
2, 465884, Note_on_c, 0, 59, 42
2, 465910, Note_on_c, 0, 52, 0
2, 465932, Note_on_c, 0, 71, 0
2, 465940, Note_on_c, 0, 72, 70
2, 465948, Note_on_c, 0, 68, 0
2, 465964, Note_on_c, 0, 59, 0
2, 465992, Note_on_c, 0, 72, 0
2, 466018, Note_on_c, 0, 71, 25
2, 466034, Note_on_c, 0, 68, 29
2, 466054, Note_on_c, 0, 72, 84
2, 466080, Note_on_c, 0, 71, 0
2, 466092, Note_on_c, 0, 62, 0
2, 466112, Note_on_c, 0, 72, 0
2, 466124, Note_on_c, 0, 71, 41
2, 466186, Note_on_c, 0, 68, 0
2, 466186, Note_on_c, 0, 45, 57
2, 466202, Note_on_c, 0, 71, 0
2, 466202, Note_on_c, 0, 69, 84
2, 466252, Note_on_c, 0, 45, 0
2, 466530, Note_on_c, 0, 60, 53
2, 466546, Note_on_c, 0, 57, 37
2, 466552, Note_on_c, 0, 52, 56
2, 466598, Note_on_c, 0, 60, 0
2, 466608, Note_on_c, 0, 52, 0
2, 466610, Note_on_c, 0, 57, 0
2, 466912, Note_on_c, 0, 64, 59
2, 466922, Note_on_c, 0, 60, 47
2, 466928, Note_on_c, 0, 57, 46
2, 466968, Note_on_c, 0, 64, 0
2, 466974, Control_c, 0, 64, 127
2, 466984, Note_on_c, 0, 60, 0
2, 466992, Note_on_c, 0, 69, 0
2, 466992, Note_on_c, 0, 57, 0
2, 467234, Control_c, 0, 64, 0
2, 467262, Note_on_c, 0, 77, 108
2, 467270, Note_on_c, 0, 81, 100
2, 467288, Note_on_c, 0, 45, 53
2, 467354, Note_on_c, 0, 45, 0
2, 467434, Control_c, 0, 64, 127
2, 467438, Note_on_c, 0, 81, 0
2, 467454, Note_on_c, 0, 84, 115
2, 467630, Note_on_c, 0, 81, 114
2, 467642, Note_on_c, 0, 72, 68
2, 467652, Note_on_c, 0, 65, 70
2, 467660, Note_on_c, 0, 84, 0
2, 467710, Note_on_c, 0, 72, 0
2, 467724, Note_on_c, 0, 65, 0
2, 467864, Note_on_c, 0, 81, 0
2, 467874, Note_on_c, 0, 77, 0
2, 467974, Note_on_c, 0, 72, 62
2, 467986, Note_on_c, 0, 64, 62
2, 467990, Note_on_c, 0, 67, 65
2, 468028, Note_on_c, 0, 72, 0
2, 468040, Note_on_c, 0, 64, 0
2, 468042, Note_on_c, 0, 76, 63
2, 468044, Note_on_c, 0, 79, 95
2, 468046, Note_on_c, 0, 67, 0
2, 468094, Note_on_c, 0, 79, 0
2, 468114, Note_on_c, 0, 81, 83
2, 468158, Note_on_c, 0, 79, 101
2, 468180, Note_on_c, 0, 81, 0
2, 468214, Note_on_c, 0, 79, 0
2, 468264, Note_on_c, 0, 81, 86
2, 468276, Note_on_c, 0, 76, 0
2, 468284, Note_on_c, 0, 79, 105
2, 468310, Control_c, 0, 64, 0
2, 468318, Note_on_c, 0, 81, 0
2, 468370, Note_on_c, 0, 78, 94
2, 468376, Note_on_c, 0, 75, 74
2, 468388, Note_on_c, 0, 57, 42
2, 468390, Note_on_c, 0, 79, 0
2, 468526, Note_on_c, 0, 57, 0
2, 468540, Note_on_c, 0, 78, 0
2, 468540, Control_c, 0, 64, 127
2, 468574, Note_on_c, 0, 84, 99
2, 468734, Note_on_c, 0, 78, 98
2, 468737, Note_on_c, 0, 72, 48
2, 468758, Note_on_c, 0, 63, 34
2, 468761, Note_on_c, 0, 66, 34
2, 468772, Note_on_c, 0, 84, 0
2, 468808, Note_on_c, 0, 72, 0
2, 468822, Note_on_c, 0, 63, 0
2, 468830, Note_on_c, 0, 66, 0
2, 469072, Note_on_c, 0, 75, 0
2, 469078, Note_on_c, 0, 72, 63
2, 469090, Note_on_c, 0, 66, 49
2, 469096, Note_on_c, 0, 63, 61
2, 469098, Note_on_c, 0, 78, 0
2, 469136, Note_on_c, 0, 72, 0
2, 469148, Note_on_c, 0, 63, 0
2, 469150, Note_on_c, 0, 66, 0
2, 469416, Control_c, 0, 64, 0
2, 469462, Note_on_c, 0, 69, 64
2, 469465, Note_on_c, 0, 77, 80
2, 469478, Note_on_c, 0, 45, 51
2, 469536, Note_on_c, 0, 69, 0
2, 469541, Note_on_c, 0, 45, 0
2, 469584, Control_c, 0, 64, 127
2, 469662, Note_on_c, 0, 84, 70
2, 469666, Note_on_c, 0, 77, 0
2, 469846, Note_on_c, 0, 84, 0
2, 469912, Note_on_c, 0, 65, 30
2, 469924, Note_on_c, 0, 77, 72
2, 469924, Note_on_c, 0, 60, 19
2, 469940, Note_on_c, 0, 57, 17
2, 469998, Note_on_c, 0, 77, 0
2, 470020, Note_on_c, 0, 65, 0
2, 470028, Note_on_c, 0, 60, 0
2, 470042, Note_on_c, 0, 57, 0
2, 470284, Note_on_c, 0, 64, 46
2, 470298, Note_on_c, 0, 60, 25
2, 470298, Note_on_c, 0, 55, 38
2, 470330, Note_on_c, 0, 76, 57
2, 470346, Note_on_c, 0, 64, 0
2, 470356, Note_on_c, 0, 67, 25
2, 470370, Note_on_c, 0, 60, 0
2, 470373, Note_on_c, 0, 55, 0
2, 470386, Note_on_c, 0, 76, 0
2, 470422, Note_on_c, 0, 77, 48
2, 470452, Note_on_c, 0, 76, 76
2, 470482, Note_on_c, 0, 77, 0
2, 470502, Note_on_c, 0, 76, 0
2, 470556, Note_on_c, 0, 67, 0
2, 470580, Note_on_c, 0, 77, 22
2, 470592, Note_on_c, 0, 76, 51
2, 470630, Control_c, 0, 64, 0
2, 470636, Note_on_c, 0, 77, 0
2, 470718, Note_on_c, 0, 47, 26
2, 470720, Note_on_c, 0, 76, 0
2, 470732, Note_on_c, 0, 66, 52
2, 470735, Note_on_c, 0, 75, 54
2, 470792, Note_on_c, 0, 66, 0
2, 470852, Note_on_c, 0, 47, 0
2, 470876, Control_c, 0, 64, 127
2, 470984, Note_on_c, 0, 75, 0
2, 471008, Note_on_c, 0, 83, 76
2, 471197, Note_on_c, 0, 63, 30
2, 471214, Note_on_c, 0, 83, 0
2, 471214, Note_on_c, 0, 54, 38
2, 471234, Note_on_c, 0, 59, 15
2, 471270, Note_on_c, 0, 75, 61
2, 471300, Note_on_c, 0, 63, 0
2, 471304, Note_on_c, 0, 54, 0
2, 471324, Note_on_c, 0, 59, 0
2, 471538, Note_on_c, 0, 75, 0
2, 471630, Note_on_c, 0, 63, 40
2, 471646, Note_on_c, 0, 54, 33
2, 471692, Note_on_c, 0, 63, 0
2, 471714, Note_on_c, 0, 54, 0
2, 471998, Control_c, 0, 64, 0
2, 472012, Note_on_c, 0, 70, 60
2, 472022, Note_on_c, 0, 74, 76
2, 472036, Note_on_c, 0, 38, 54
2, 472090, Note_on_c, 0, 38, 0
2, 472182, Control_c, 0, 64, 127
2, 472200, Note_on_c, 0, 74, 0
2, 472208, Note_on_c, 0, 77, 83
2, 472444, Note_on_c, 0, 74, 91
2, 472446, Note_on_c, 0, 77, 0
2, 472458, Note_on_c, 0, 58, 36
2, 472458, Note_on_c, 0, 65, 42
2, 472466, Note_on_c, 0, 62, 39
2, 472544, Note_on_c, 0, 65, 0
2, 472560, Note_on_c, 0, 62, 0
2, 472640, Note_on_c, 0, 58, 0
2, 472734, Note_on_c, 0, 74, 0
2, 472758, Note_on_c, 0, 70, 0
2, 472848, Note_on_c, 0, 65, 40
2, 472862, Note_on_c, 0, 57, 37
2, 472865, Note_on_c, 0, 60, 42
2, 472870, Note_on_c, 0, 69, 54
2, 472890, Note_on_c, 0, 72, 39
2, 472908, Note_on_c, 0, 65, 0
2, 472932, Note_on_c, 0, 60, 0
2, 472934, Note_on_c, 0, 57, 0
2, 472954, Note_on_c, 0, 74, 70
2, 472966, Note_on_c, 0, 72, 0
2, 473002, Note_on_c, 0, 72, 53
2, 473004, Note_on_c, 0, 74, 0
2, 473054, Note_on_c, 0, 72, 0
2, 473086, Note_on_c, 0, 74, 68
2, 473089, Note_on_c, 0, 69, 0
2, 473128, Note_on_c, 0, 72, 68
2, 473140, Note_on_c, 0, 74, 0
2, 473270, Note_on_c, 0, 72, 0
2, 473288, Control_c, 0, 64, 0
2, 473296, Note_on_c, 0, 71, 83
2, 473306, Note_on_c, 0, 68, 40
2, 473326, Note_on_c, 0, 50, 54
2, 473412, Note_on_c, 0, 50, 0
2, 473492, Note_on_c, 0, 71, 0
2, 473504, Control_c, 0, 64, 127
2, 473522, Note_on_c, 0, 77, 75
2, 473742, Note_on_c, 0, 77, 0
2, 473758, Note_on_c, 0, 65, 41
2, 473758, Note_on_c, 0, 56, 38
2, 473774, Note_on_c, 0, 59, 38
2, 473794, Note_on_c, 0, 71, 70
2, 473850, Note_on_c, 0, 65, 0
2, 473853, Note_on_c, 0, 59, 0
2, 473902, Note_on_c, 0, 56, 0
2, 474128, Note_on_c, 0, 65, 62
2, 474152, Note_on_c, 0, 71, 0
2, 474152, Note_on_c, 0, 56, 46
2, 474152, Note_on_c, 0, 59, 47
2, 474176, Note_on_c, 0, 65, 0
2, 474192, Note_on_c, 0, 68, 0
2, 474208, Note_on_c, 0, 59, 0
2, 474211, Note_on_c, 0, 56, 0
2, 474456, Control_c, 0, 64, 0
2, 474502, Note_on_c, 0, 70, 70
2, 474505, Note_on_c, 0, 62, 79
2, 474540, Note_on_c, 0, 38, 17
2, 474586, Note_on_c, 0, 62, 0
2, 474591, Note_on_c, 0, 38, 0
2, 474616, Note_on_c, 0, 70, 0
2, 474624, Control_c, 0, 64, 127
2, 474704, Note_on_c, 0, 77, 90
2, 474758, Note_on_c, 0, 77, 0
2, 474892, Note_on_c, 0, 70, 78
2, 474896, Note_on_c, 0, 58, 41
2, 474904, Note_on_c, 0, 53, 55
2, 474942, Note_on_c, 0, 70, 0
2, 474974, Note_on_c, 0, 50, 13
2, 474980, Note_on_c, 0, 53, 0
2, 474990, Note_on_c, 0, 58, 0
2, 475046, Note_on_c, 0, 50, 0
2, 475254, Note_on_c, 0, 57, 46
2, 475260, Note_on_c, 0, 48, 40
2, 475263, Note_on_c, 0, 60, 79
2, 475272, Note_on_c, 0, 53, 56
2, 475282, Note_on_c, 0, 69, 40
2, 475326, Note_on_c, 0, 57, 0
2, 475329, Note_on_c, 0, 53, 0
2, 475356, Note_on_c, 0, 48, 0
2, 475466, Note_on_c, 0, 69, 0
2, 475469, Note_on_c, 0, 70, 83
2, 475544, Note_on_c, 0, 69, 52
2, 475550, Note_on_c, 0, 60, 0
2, 475558, Note_on_c, 0, 70, 0
2, 475622, Control_c, 0, 64, 0
2, 475668, Note_on_c, 0, 40, 65
2, 475678, Note_on_c, 0, 69, 0
2, 475692, Note_on_c, 0, 68, 67
2, 475710, Note_on_c, 0, 59, 71
2, 475810, Note_on_c, 0, 59, 0
2, 475828, Note_on_c, 0, 40, 0
2, 475854, Control_c, 0, 64, 127
2, 475862, Note_on_c, 0, 68, 0
2, 475944, Note_on_c, 0, 76, 76
2, 476006, Note_on_c, 0, 76, 0
2, 476186, Note_on_c, 0, 56, 33
2, 476210, Note_on_c, 0, 47, 21
2, 476216, Note_on_c, 0, 52, 36
2, 476238, Note_on_c, 0, 68, 54
2, 476288, Note_on_c, 0, 56, 0
2, 476292, Note_on_c, 0, 52, 0
2, 476302, Note_on_c, 0, 47, 0
2, 476640, Note_on_c, 0, 56, 37
2, 476660, Note_on_c, 0, 47, 22
2, 476670, Note_on_c, 0, 52, 24
2, 476706, Note_on_c, 0, 56, 0
2, 476726, Note_on_c, 0, 47, 0
2, 476736, Note_on_c, 0, 68, 0
2, 476738, Note_on_c, 0, 52, 0
2, 477112, Note_on_c, 0, 76, 38
2, 477122, Note_on_c, 0, 64, 53
2, 477180, Note_on_c, 0, 64, 0
2, 477190, Control_c, 0, 64, 0
2, 477196, Note_on_c, 0, 76, 0
2, 477292, Note_on_c, 0, 75, 70
2, 477292, Note_on_c, 0, 63, 82
2, 477342, Note_on_c, 0, 63, 0
2, 477350, Note_on_c, 0, 75, 0
2, 477492, Note_on_c, 0, 59, 72
2, 477495, Note_on_c, 0, 71, 67
2, 477538, Note_on_c, 0, 59, 0
2, 477550, Note_on_c, 0, 71, 0
2, 477680, Note_on_c, 0, 64, 72
2, 477683, Note_on_c, 0, 76, 53
2, 477730, Note_on_c, 0, 64, 0
2, 477742, Note_on_c, 0, 76, 0
2, 477862, Note_on_c, 0, 62, 61
2, 477874, Note_on_c, 0, 74, 67
2, 477916, Note_on_c, 0, 62, 0
2, 477922, Note_on_c, 0, 74, 0
2, 478036, Note_on_c, 0, 58, 54
2, 478046, Note_on_c, 0, 70, 53
2, 478098, Note_on_c, 0, 58, 0
2, 478101, Note_on_c, 0, 70, 0
2, 478236, Note_on_c, 0, 76, 61
2, 478252, Note_on_c, 0, 64, 65
2, 478292, Note_on_c, 0, 76, 0
2, 478306, Note_on_c, 0, 64, 0
2, 478422, Note_on_c, 0, 61, 74
2, 478432, Note_on_c, 0, 73, 51
2, 478478, Note_on_c, 0, 61, 0
2, 478490, Note_on_c, 0, 73, 0
2, 478610, Note_on_c, 0, 69, 67
2, 478612, Note_on_c, 0, 57, 67
2, 478664, Note_on_c, 0, 69, 0
2, 478666, Note_on_c, 0, 57, 0
2, 478792, Note_on_c, 0, 76, 78
2, 478792, Note_on_c, 0, 64, 82
2, 478840, Note_on_c, 0, 64, 0
2, 478850, Note_on_c, 0, 76, 0
2, 478976, Note_on_c, 0, 72, 79
2, 478988, Note_on_c, 0, 60, 80
2, 479026, Note_on_c, 0, 72, 0
2, 479040, Note_on_c, 0, 60, 0
2, 479144, Note_on_c, 0, 56, 75
2, 479146, Note_on_c, 0, 68, 84
2, 479194, Note_on_c, 0, 68, 0
2, 479196, Note_on_c, 0, 56, 0
2, 479330, Note_on_c, 0, 64, 94
2, 479332, Note_on_c, 0, 76, 86
2, 479386, Note_on_c, 0, 64, 0
2, 479389, Note_on_c, 0, 76, 0
2, 479514, Note_on_c, 0, 59, 74
2, 479514, Note_on_c, 0, 71, 101
2, 479560, Note_on_c, 0, 59, 0
2, 479562, Note_on_c, 0, 71, 0
2, 479686, Note_on_c, 0, 55, 82
2, 479688, Note_on_c, 0, 67, 83
2, 479736, Note_on_c, 0, 55, 0
2, 479742, Note_on_c, 0, 67, 0
2, 479872, Note_on_c, 0, 76, 84
2, 479874, Note_on_c, 0, 64, 86
2, 479920, Note_on_c, 0, 76, 0
2, 479922, Note_on_c, 0, 64, 0
2, 480058, Note_on_c, 0, 58, 60
2, 480061, Note_on_c, 0, 70, 68
2, 480112, Note_on_c, 0, 70, 0
2, 480118, Note_on_c, 0, 58, 0
2, 480234, Note_on_c, 0, 66, 61
2, 480234, Note_on_c, 0, 54, 72
2, 480286, Note_on_c, 0, 66, 0
2, 480289, Note_on_c, 0, 54, 0
2, 480420, Note_on_c, 0, 64, 69
2, 480425, Note_on_c, 0, 76, 55
2, 480482, Note_on_c, 0, 76, 0
2, 480482, Note_on_c, 0, 64, 0
2, 480604, Note_on_c, 0, 57, 61
2, 480612, Note_on_c, 0, 69, 49
2, 480660, Note_on_c, 0, 57, 0
2, 480676, Note_on_c, 0, 69, 0
2, 480788, Note_on_c, 0, 65, 51
2, 480790, Note_on_c, 0, 53, 55
2, 480842, Note_on_c, 0, 65, 0
2, 480847, Note_on_c, 0, 53, 0
2, 480956, Note_on_c, 0, 64, 74
2, 480976, Note_on_c, 0, 76, 25
2, 481010, Note_on_c, 0, 64, 0
2, 481048, Note_on_c, 0, 76, 0
2, 481124, Note_on_c, 0, 68, 54
2, 481144, Note_on_c, 0, 56, 37
2, 481184, Note_on_c, 0, 68, 0
2, 481220, Note_on_c, 0, 56, 0
2, 481294, Note_on_c, 0, 64, 63
2, 481296, Note_on_c, 0, 52, 69
2, 481346, Note_on_c, 0, 52, 0
2, 481346, Note_on_c, 0, 64, 0
2, 481402, Note_on_c, 0, 69, 54
2, 481432, Note_on_c, 0, 71, 97
2, 481488, Note_on_c, 0, 57, 75
2, 481494, Note_on_c, 0, 71, 0
2, 481544, Note_on_c, 0, 57, 0
2, 481568, Note_on_c, 0, 69, 0
2, 481648, Note_on_c, 0, 68, 71
2, 481664, Note_on_c, 0, 56, 70
2, 481696, Note_on_c, 0, 68, 0
2, 481716, Note_on_c, 0, 56, 0
2, 481822, Note_on_c, 0, 69, 54
2, 481842, Note_on_c, 0, 57, 67
2, 481886, Note_on_c, 0, 69, 0
2, 481894, Note_on_c, 0, 57, 0
2, 481998, Note_on_c, 0, 71, 80
2, 482006, Note_on_c, 0, 59, 67
2, 482048, Note_on_c, 0, 71, 0
2, 482056, Note_on_c, 0, 59, 0
2, 482168, Note_on_c, 0, 60, 60
2, 482170, Note_on_c, 0, 72, 70
2, 482220, Note_on_c, 0, 72, 0
2, 482230, Note_on_c, 0, 60, 0
2, 482344, Note_on_c, 0, 74, 56
2, 482350, Note_on_c, 0, 62, 54
2, 482398, Note_on_c, 0, 74, 0
2, 482412, Note_on_c, 0, 62, 0
2, 482524, Note_on_c, 0, 76, 69
2, 482524, Note_on_c, 0, 64, 64
2, 482574, Note_on_c, 0, 64, 0
2, 482574, Note_on_c, 0, 76, 0
2, 482694, Note_on_c, 0, 81, 67
2, 482694, Note_on_c, 0, 69, 41
2, 482746, Note_on_c, 0, 81, 0
2, 482764, Note_on_c, 0, 69, 0
2, 482884, Note_on_c, 0, 76, 53
2, 482910, Note_on_c, 0, 64, 33
2, 482944, Note_on_c, 0, 76, 0
2, 482976, Note_on_c, 0, 64, 0
2, 483056, Note_on_c, 0, 74, 72
2, 483064, Note_on_c, 0, 62, 47
2, 483104, Note_on_c, 0, 74, 0
2, 483130, Note_on_c, 0, 62, 0
2, 483224, Note_on_c, 0, 60, 54
2, 483229, Note_on_c, 0, 72, 63
2, 483284, Note_on_c, 0, 72, 0
2, 483287, Note_on_c, 0, 60, 0
2, 483394, Note_on_c, 0, 71, 91
2, 483408, Note_on_c, 0, 59, 61
2, 483446, Note_on_c, 0, 71, 0
2, 483462, Note_on_c, 0, 59, 0
2, 483570, Note_on_c, 0, 69, 79
2, 483576, Note_on_c, 0, 57, 86
2, 483626, Note_on_c, 0, 57, 0
2, 483630, Note_on_c, 0, 69, 0
2, 483738, Note_on_c, 0, 71, 107
2, 483758, Note_on_c, 0, 59, 80
2, 483788, Note_on_c, 0, 71, 0
2, 483808, Note_on_c, 0, 59, 0
2, 483916, Note_on_c, 0, 72, 103
2, 483922, Note_on_c, 0, 60, 93
2, 483962, Note_on_c, 0, 72, 0
2, 483968, Note_on_c, 0, 60, 0
2, 484084, Note_on_c, 0, 74, 116
2, 484098, Note_on_c, 0, 62, 95
2, 484136, Note_on_c, 0, 62, 0
2, 484138, Note_on_c, 0, 74, 0
2, 484280, Note_on_c, 0, 52, 127
2, 484280, Note_on_c, 0, 76, 127
2, 484283, Note_on_c, 0, 64, 127
2, 484283, Note_on_c, 0, 40, 127
2, 484310, Note_on_c, 0, 40, 0
2, 484316, Note_on_c, 0, 52, 0
2, 484372, Note_on_c, 0, 64, 0
2, 484408, Note_on_c, 0, 76, 0
2, 484720, Note_on_c, 0, 81, 115
2, 484720, Note_on_c, 0, 57, 91
2, 484720, Note_on_c, 0, 45, 90
2, 484720, Note_on_c, 0, 69, 97
2, 484856, Note_on_c, 0, 57, 0
2, 484858, Note_on_c, 0, 69, 0
2, 484884, Note_on_c, 0, 45, 0
2, 484912, Note_on_c, 0, 81, 0
2, 485548, Note_on_c, 0, 52, 76
2, 485556, Note_on_c, 0, 40, 77
2, 485598, Note_on_c, 0, 52, 0
2, 485606, Note_on_c, 0, 40, 0
2, 486016, Note_on_c, 0, 45, 49
2, 486020, Note_on_c, 0, 33, 57
2, 486082, Control_c, 0, 64, 127
2, 486102, Note_on_c, 0, 33, 0
2, 486114, Note_on_c, 0, 45, 0
2, 486176, Control_c, 0, 64, 0
2, 486636, Control_c, 0, 64, 127
2, 487344, Note_on_c, 0, 81, 34
2, 487348, Note_on_c, 0, 69, 14
2, 487352, Note_on_c, 0, 76, 29
2, 487354, Note_on_c, 0, 72, 16
2, 487358, Note_on_c, 0, 64, 26
2, 487372, Note_on_c, 0, 57, 17
2, 490800, Control_c, 0, 64, 0
2, 491002, Note_on_c, 0, 69, 0
2, 491008, Note_on_c, 0, 64, 0
2, 491024, Note_on_c, 0, 76, 0
2, 491056, Note_on_c, 0, 72, 0
2, 491060, Note_on_c, 0, 81, 0
2, 491084, Note_on_c, 0, 57, 0
2, 491520, Control_c, 0, 64, 0
2, 495360, Control_c, 0, 64, 127
2, 495360, Note_on_c, 0, 54, 60
2, 495362, Note_on_c, 0, 66, 54
2, 497382, Note_on_c, 0, 66, 0
2, 497468, Note_on_c, 0, 54, 0
2, 498982, Note_on_c, 0, 23, 45
2, 498998, Note_on_c, 0, 35, 39
2, 499046, Note_on_c, 0, 23, 0
2, 499068, Control_c, 0, 64, 0
2, 499086, Note_on_c, 0, 35, 0
2, 499216, Note_on_c, 0, 37, 49
2, 499302, Note_on_c, 0, 37, 0
2, 499478, Note_on_c, 0, 30, 52
2, 499488, Note_on_c, 0, 38, 49
2, 499550, Note_on_c, 0, 38, 0
2, 499550, Note_on_c, 0, 30, 0
2, 499734, Note_on_c, 0, 40, 64
2, 499784, Note_on_c, 0, 40, 0
2, 499964, Note_on_c, 0, 23, 60
2, 499964, Note_on_c, 0, 42, 56
2, 500018, Note_on_c, 0, 42, 0
2, 500020, Note_on_c, 0, 23, 0
2, 500184, Note_on_c, 0, 38, 61
2, 500240, Note_on_c, 0, 38, 0
2, 500428, Note_on_c, 0, 42, 60
2, 500428, Note_on_c, 0, 30, 52
2, 500502, Note_on_c, 0, 30, 0
2, 500505, Note_on_c, 0, 42, 0
2, 500896, Note_on_c, 0, 41, 84
2, 500910, Note_on_c, 0, 23, 61
2, 500964, Note_on_c, 0, 23, 0
2, 500970, Note_on_c, 0, 41, 0
2, 501126, Note_on_c, 0, 37, 62
2, 501190, Note_on_c, 0, 37, 0
2, 501356, Note_on_c, 0, 41, 56
2, 501362, Note_on_c, 0, 30, 53
2, 501446, Note_on_c, 0, 30, 0
2, 501524, Note_on_c, 0, 41, 0
2, 501808, Note_on_c, 0, 40, 68
2, 501814, Note_on_c, 0, 23, 40
2, 501866, Note_on_c, 0, 40, 0
2, 501902, Note_on_c, 0, 23, 0
2, 502040, Note_on_c, 0, 36, 54
2, 502098, Note_on_c, 0, 36, 0
2, 502266, Note_on_c, 0, 40, 64
2, 502274, Note_on_c, 0, 30, 38
2, 502344, Note_on_c, 0, 30, 0
2, 502378, Note_on_c, 0, 40, 0
2, 502694, Note_on_c, 0, 23, 55
2, 502696, Note_on_c, 0, 35, 82
2, 502756, Note_on_c, 0, 35, 0
2, 502772, Note_on_c, 0, 23, 0
2, 502896, Note_on_c, 0, 37, 79
2, 502944, Note_on_c, 0, 37, 0
2, 503116, Note_on_c, 0, 38, 77
2, 503119, Note_on_c, 0, 30, 55
2, 503174, Note_on_c, 0, 38, 0
2, 503176, Note_on_c, 0, 30, 0
2, 503324, Note_on_c, 0, 40, 100
2, 503378, Note_on_c, 0, 40, 0
2, 503554, Note_on_c, 0, 42, 78
2, 503570, Note_on_c, 0, 23, 62
2, 503634, Note_on_c, 0, 42, 0
2, 503639, Note_on_c, 0, 23, 0
2, 503772, Note_on_c, 0, 38, 82
2, 503840, Note_on_c, 0, 38, 0
2, 503980, Note_on_c, 0, 42, 78
2, 503988, Note_on_c, 0, 30, 52
2, 504054, Note_on_c, 0, 30, 0
2, 504074, Note_on_c, 0, 42, 0
2, 504188, Note_on_c, 0, 47, 77
2, 504264, Note_on_c, 0, 47, 0
2, 504422, Note_on_c, 0, 45, 56
2, 504428, Note_on_c, 0, 26, 46
2, 504504, Note_on_c, 0, 45, 0
2, 504514, Note_on_c, 0, 26, 0
2, 504628, Note_on_c, 0, 42, 64
2, 504684, Note_on_c, 0, 42, 0
2, 504846, Note_on_c, 0, 38, 60
2, 504854, Note_on_c, 0, 33, 49
2, 504906, Note_on_c, 0, 38, 0
2, 504934, Note_on_c, 0, 33, 0
2, 505066, Note_on_c, 0, 42, 54
2, 505138, Note_on_c, 0, 42, 0
2, 505314, Note_on_c, 0, 26, 36
2, 505314, Note_on_c, 0, 45, 49
2, 505454, Note_on_c, 0, 26, 0
2, 505764, Note_on_c, 0, 33, 41
2, 505864, Note_on_c, 0, 45, 0
2, 505874, Control_c, 0, 64, 127
2, 505876, Note_on_c, 0, 33, 0
2, 505922, Control_c, 0, 64, 0
2, 506174, Note_on_c, 0, 47, 60
2, 506192, Note_on_c, 0, 23, 51
2, 506230, Note_on_c, 0, 47, 0
2, 506304, Note_on_c, 0, 23, 0
2, 506394, Note_on_c, 0, 49, 60
2, 506450, Note_on_c, 0, 49, 0
2, 506626, Note_on_c, 0, 50, 69
2, 506628, Note_on_c, 0, 30, 51
2, 506688, Note_on_c, 0, 50, 0
2, 506696, Note_on_c, 0, 30, 0
2, 506862, Note_on_c, 0, 52, 54
2, 506918, Note_on_c, 0, 52, 0
2, 507070, Note_on_c, 0, 54, 68
2, 507073, Note_on_c, 0, 23, 48
2, 507128, Note_on_c, 0, 54, 0
2, 507142, Note_on_c, 0, 23, 0
2, 507300, Note_on_c, 0, 50, 56
2, 507370, Note_on_c, 0, 50, 0
2, 507514, Note_on_c, 0, 30, 46
2, 507522, Note_on_c, 0, 54, 57
2, 507598, Note_on_c, 0, 30, 0
2, 507696, Note_on_c, 0, 54, 0
2, 507946, Note_on_c, 0, 23, 55
2, 507952, Note_on_c, 0, 53, 90
2, 508000, Note_on_c, 0, 53, 0
2, 508046, Note_on_c, 0, 23, 0
2, 508176, Note_on_c, 0, 49, 59
2, 508230, Note_on_c, 0, 49, 0
2, 508390, Note_on_c, 0, 30, 45
2, 508406, Note_on_c, 0, 53, 71
2, 508466, Note_on_c, 0, 30, 0
2, 508482, Note_on_c, 0, 53, 0
2, 508848, Note_on_c, 0, 23, 44
2, 508848, Note_on_c, 0, 52, 46
2, 508908, Note_on_c, 0, 52, 0
2, 508950, Note_on_c, 0, 23, 0
2, 509048, Note_on_c, 0, 48, 48
2, 509116, Note_on_c, 0, 48, 0
2, 509274, Note_on_c, 0, 30, 34
2, 509288, Note_on_c, 0, 52, 60
2, 509360, Note_on_c, 0, 52, 0
2, 509384, Note_on_c, 0, 30, 0
2, 509704, Note_on_c, 0, 47, 53
2, 509704, Note_on_c, 0, 23, 57
2, 509772, Note_on_c, 0, 47, 0
2, 509780, Note_on_c, 0, 23, 0
2, 509922, Note_on_c, 0, 49, 69
2, 509976, Note_on_c, 0, 49, 0
2, 510142, Note_on_c, 0, 30, 55
2, 510142, Note_on_c, 0, 50, 74
2, 510202, Note_on_c, 0, 50, 0
2, 510216, Note_on_c, 0, 30, 0
2, 510354, Note_on_c, 0, 52, 75
2, 510409, Note_on_c, 0, 52, 0
2, 510570, Note_on_c, 0, 54, 65
2, 510596, Note_on_c, 0, 23, 46
2, 510640, Note_on_c, 0, 54, 0
2, 510658, Note_on_c, 0, 23, 0
2, 510786, Note_on_c, 0, 50, 70
2, 510850, Note_on_c, 0, 50, 0
2, 510996, Note_on_c, 0, 54, 76
2, 511010, Note_on_c, 0, 30, 42
2, 511060, Note_on_c, 0, 54, 0
2, 511080, Note_on_c, 0, 30, 0
2, 511212, Note_on_c, 0, 59, 68
2, 511266, Note_on_c, 0, 59, 0
2, 511424, Note_on_c, 0, 57, 62
2, 511440, Note_on_c, 0, 26, 40
2, 511504, Note_on_c, 0, 57, 0
2, 511508, Note_on_c, 0, 26, 0
2, 511612, Note_on_c, 0, 54, 85
2, 511670, Note_on_c, 0, 54, 0
2, 511828, Note_on_c, 0, 33, 57
2, 511834, Note_on_c, 0, 50, 78
2, 511900, Note_on_c, 0, 50, 0
2, 511900, Note_on_c, 0, 33, 0
2, 512048, Note_on_c, 0, 54, 62
2, 512104, Note_on_c, 0, 54, 0
2, 512282, Note_on_c, 0, 57, 70
2, 512288, Note_on_c, 0, 45, 54
2, 512308, Note_on_c, 0, 26, 40
2, 512432, Note_on_c, 0, 26, 0
2, 512742, Note_on_c, 0, 33, 28
2, 512758, Control_c, 0, 64, 127
2, 512764, Note_on_c, 0, 45, 0
2, 512800, Note_on_c, 0, 57, 0
2, 512824, Note_on_c, 0, 33, 0
2, 513188, Note_on_c, 0, 42, 54
2, 513192, Note_on_c, 0, 30, 34
2, 513266, Note_on_c, 0, 42, 0
2, 513278, Note_on_c, 0, 30, 0
2, 513296, Control_c, 0, 64, 0
2, 513398, Note_on_c, 0, 44, 63
2, 513458, Note_on_c, 0, 44, 0
2, 513630, Note_on_c, 0, 37, 40
2, 513636, Note_on_c, 0, 46, 39
2, 513704, Note_on_c, 0, 37, 0
2, 513706, Note_on_c, 0, 46, 0
2, 513868, Note_on_c, 0, 47, 46
2, 513930, Note_on_c, 0, 47, 0
2, 514092, Note_on_c, 0, 49, 53
2, 514102, Note_on_c, 0, 30, 41
2, 514154, Note_on_c, 0, 49, 0
2, 514202, Note_on_c, 0, 30, 0
2, 514316, Note_on_c, 0, 46, 41
2, 514390, Note_on_c, 0, 46, 0
2, 514544, Note_on_c, 0, 49, 49
2, 514564, Note_on_c, 0, 37, 30
2, 514650, Note_on_c, 0, 37, 0
2, 514710, Note_on_c, 0, 49, 0
2, 514994, Note_on_c, 0, 50, 69
2, 515008, Note_on_c, 0, 26, 44
2, 515050, Note_on_c, 0, 50, 0
2, 515076, Note_on_c, 0, 26, 0
2, 515212, Note_on_c, 0, 46, 57
2, 515274, Note_on_c, 0, 46, 0
2, 515432, Note_on_c, 0, 34, 41
2, 515440, Note_on_c, 0, 50, 49
2, 515500, Note_on_c, 0, 34, 0
2, 515662, Note_on_c, 0, 50, 0
2, 515856, Note_on_c, 0, 30, 38
2, 515856, Note_on_c, 0, 49, 55
2, 515922, Note_on_c, 0, 49, 0
2, 515954, Note_on_c, 0, 30, 0
2, 516076, Note_on_c, 0, 46, 47
2, 516146, Note_on_c, 0, 46, 0
2, 516318, Note_on_c, 0, 49, 47
2, 516332, Note_on_c, 0, 37, 26
2, 516420, Note_on_c, 0, 37, 0
2, 516516, Note_on_c, 0, 49, 0
2, 516750, Note_on_c, 0, 42, 64
2, 516758, Note_on_c, 0, 30, 34
2, 516816, Note_on_c, 0, 42, 0
2, 516834, Note_on_c, 0, 30, 0
2, 516956, Note_on_c, 0, 44, 64
2, 517020, Note_on_c, 0, 44, 0
2, 517170, Note_on_c, 0, 46, 59
2, 517184, Note_on_c, 0, 37, 44
2, 517242, Note_on_c, 0, 46, 0
2, 517250, Note_on_c, 0, 37, 0
2, 517392, Note_on_c, 0, 47, 69
2, 517444, Note_on_c, 0, 47, 0
2, 517602, Note_on_c, 0, 49, 75
2, 517614, Note_on_c, 0, 30, 48
2, 517698, Note_on_c, 0, 30, 0
2, 517701, Note_on_c, 0, 49, 0
2, 517810, Note_on_c, 0, 46, 59
2, 517872, Note_on_c, 0, 46, 0
2, 518024, Note_on_c, 0, 49, 68
2, 518032, Note_on_c, 0, 37, 47
2, 518124, Note_on_c, 0, 49, 0
2, 518162, Note_on_c, 0, 37, 0
2, 518440, Note_on_c, 0, 50, 80
2, 518464, Note_on_c, 0, 26, 36
2, 518496, Note_on_c, 0, 50, 0
2, 518596, Note_on_c, 0, 26, 0
2, 518648, Note_on_c, 0, 46, 57
2, 518722, Note_on_c, 0, 46, 0
2, 518870, Note_on_c, 0, 34, 48
2, 518876, Note_on_c, 0, 50, 63
2, 518944, Note_on_c, 0, 34, 0
2, 518968, Note_on_c, 0, 50, 0
2, 519284, Note_on_c, 0, 49, 67
2, 519306, Note_on_c, 0, 30, 44
2, 519444, Note_on_c, 0, 30, 0
2, 519758, Note_on_c, 0, 37, 46
2, 519854, Note_on_c, 0, 37, 0
2, 520010, Control_c, 0, 64, 127
2, 520022, Note_on_c, 0, 49, 0
2, 520134, Control_c, 0, 64, 0
2, 520178, Note_on_c, 0, 54, 71
2, 520193, Note_on_c, 0, 30, 44
2, 520234, Note_on_c, 0, 54, 0
2, 520282, Note_on_c, 0, 30, 0
2, 520382, Note_on_c, 0, 56, 59
2, 520444, Note_on_c, 0, 56, 0
2, 520604, Note_on_c, 0, 58, 42
2, 520622, Note_on_c, 0, 37, 38
2, 520674, Note_on_c, 0, 58, 0
2, 520686, Note_on_c, 0, 37, 0
2, 520822, Note_on_c, 0, 59, 59
2, 520876, Note_on_c, 0, 59, 0
2, 521030, Note_on_c, 0, 61, 76
2, 521038, Note_on_c, 0, 30, 44
2, 521090, Note_on_c, 0, 61, 0
2, 521126, Note_on_c, 0, 30, 0
2, 521244, Note_on_c, 0, 58, 44
2, 521306, Note_on_c, 0, 58, 0
2, 521460, Note_on_c, 0, 61, 64
2, 521468, Note_on_c, 0, 37, 46
2, 521524, Note_on_c, 0, 61, 0
2, 521538, Note_on_c, 0, 37, 0
2, 521896, Note_on_c, 0, 62, 72
2, 521918, Note_on_c, 0, 26, 46
2, 521946, Note_on_c, 0, 62, 0
2, 522012, Note_on_c, 0, 26, 0
2, 522100, Note_on_c, 0, 58, 46
2, 522174, Note_on_c, 0, 58, 0
2, 522338, Note_on_c, 0, 34, 36
2, 522338, Note_on_c, 0, 62, 49
2, 522446, Note_on_c, 0, 62, 0
2, 522502, Note_on_c, 0, 34, 0
2, 522754, Note_on_c, 0, 61, 64
2, 522778, Note_on_c, 0, 30, 32
2, 522812, Note_on_c, 0, 61, 0
2, 522902, Note_on_c, 0, 30, 0
2, 522960, Note_on_c, 0, 58, 60
2, 523040, Note_on_c, 0, 58, 0
2, 523196, Note_on_c, 0, 61, 62
2, 523206, Note_on_c, 0, 37, 37
2, 523284, Note_on_c, 0, 61, 0
2, 523308, Note_on_c, 0, 37, 0
2, 523604, Note_on_c, 0, 54, 57
2, 523622, Note_on_c, 0, 30, 40
2, 523664, Note_on_c, 0, 54, 0
2, 523696, Note_on_c, 0, 30, 0
2, 523804, Note_on_c, 0, 56, 64
2, 523864, Note_on_c, 0, 56, 0
2, 524016, Note_on_c, 0, 58, 48
2, 524026, Note_on_c, 0, 37, 45
2, 524082, Note_on_c, 0, 58, 0
2, 524098, Note_on_c, 0, 37, 0
2, 524232, Note_on_c, 0, 59, 62
2, 524282, Note_on_c, 0, 59, 0
2, 524432, Note_on_c, 0, 61, 85
2, 524446, Note_on_c, 0, 30, 48
2, 524520, Note_on_c, 0, 30, 0
2, 524522, Note_on_c, 0, 61, 0
2, 524642, Note_on_c, 0, 58, 52
2, 524702, Note_on_c, 0, 58, 0
2, 524862, Note_on_c, 0, 61, 69
2, 524878, Note_on_c, 0, 37, 36
2, 524924, Note_on_c, 0, 61, 0
2, 525018, Note_on_c, 0, 37, 0
2, 525266, Note_on_c, 0, 62, 85
2, 525290, Note_on_c, 0, 26, 48
2, 525320, Note_on_c, 0, 62, 0
2, 525370, Note_on_c, 0, 26, 0
2, 525470, Note_on_c, 0, 58, 64
2, 525548, Note_on_c, 0, 58, 0
2, 525698, Note_on_c, 0, 34, 46
2, 525698, Note_on_c, 0, 62, 74
2, 525778, Note_on_c, 0, 34, 0
2, 525828, Note_on_c, 0, 62, 0
2, 526142, Note_on_c, 0, 61, 76
2, 526144, Note_on_c, 0, 49, 68
2, 526158, Note_on_c, 0, 30, 41
2, 526238, Note_on_c, 0, 30, 0
2, 526586, Control_c, 0, 64, 127
2, 526594, Note_on_c, 0, 37, 45
2, 526630, Note_on_c, 0, 49, 0
2, 526644, Note_on_c, 0, 61, 0
2, 526672, Note_on_c, 0, 37, 0
2, 527062, Control_c, 0, 64, 0
2, 527082, Note_on_c, 0, 35, 87
2, 527088, Note_on_c, 0, 23, 57
2, 527148, Note_on_c, 0, 23, 0
2, 527148, Note_on_c, 0, 35, 0
2, 527294, Note_on_c, 0, 37, 67
2, 527360, Note_on_c, 0, 37, 0
2, 527528, Note_on_c, 0, 38, 70
2, 527540, Note_on_c, 0, 30, 54
2, 527590, Note_on_c, 0, 38, 0
2, 527600, Note_on_c, 0, 30, 0
2, 527760, Note_on_c, 0, 40, 90
2, 527808, Note_on_c, 0, 40, 0
2, 527972, Note_on_c, 0, 42, 84
2, 527990, Note_on_c, 0, 23, 56
2, 528052, Note_on_c, 0, 23, 0
2, 528074, Note_on_c, 0, 42, 0
2, 528198, Note_on_c, 0, 38, 72
2, 528252, Note_on_c, 0, 38, 0
2, 528424, Note_on_c, 0, 30, 46
2, 528426, Note_on_c, 0, 42, 62
2, 528494, Note_on_c, 0, 42, 0
2, 528510, Note_on_c, 0, 30, 0
2, 528860, Note_on_c, 0, 41, 82
2, 528876, Note_on_c, 0, 23, 45
2, 528948, Note_on_c, 0, 23, 0
2, 528948, Note_on_c, 0, 41, 0
2, 529066, Note_on_c, 0, 37, 75
2, 529128, Note_on_c, 0, 37, 0
2, 529296, Note_on_c, 0, 30, 46
2, 529308, Note_on_c, 0, 41, 71
2, 529380, Note_on_c, 0, 41, 0
2, 529394, Note_on_c, 0, 30, 0
2, 529746, Note_on_c, 0, 40, 82
2, 529760, Note_on_c, 0, 23, 49
2, 529798, Note_on_c, 0, 40, 0
2, 529836, Note_on_c, 0, 23, 0
2, 529968, Note_on_c, 0, 36, 61
2, 530026, Note_on_c, 0, 36, 0
2, 530198, Note_on_c, 0, 30, 42
2, 530201, Note_on_c, 0, 40, 72
2, 530284, Note_on_c, 0, 40, 0
2, 530287, Note_on_c, 0, 30, 0
2, 530638, Note_on_c, 0, 35, 78
2, 530650, Note_on_c, 0, 23, 47
2, 530688, Note_on_c, 0, 35, 0
2, 530714, Note_on_c, 0, 23, 0
2, 530842, Note_on_c, 0, 37, 76
2, 530920, Note_on_c, 0, 37, 0
2, 531062, Note_on_c, 0, 38, 77
2, 531064, Note_on_c, 0, 30, 44
2, 531132, Note_on_c, 0, 38, 0
2, 531134, Note_on_c, 0, 30, 0
2, 531292, Note_on_c, 0, 40, 94
2, 531344, Note_on_c, 0, 40, 0
2, 531500, Note_on_c, 0, 42, 71
2, 531514, Note_on_c, 0, 23, 52
2, 531568, Note_on_c, 0, 42, 0
2, 531578, Note_on_c, 0, 23, 0
2, 531706, Note_on_c, 0, 38, 79
2, 531776, Note_on_c, 0, 38, 0
2, 531914, Note_on_c, 0, 42, 76
2, 531916, Note_on_c, 0, 30, 54
2, 531986, Note_on_c, 0, 30, 0
2, 532000, Note_on_c, 0, 42, 0
2, 532122, Note_on_c, 0, 47, 85
2, 532208, Note_on_c, 0, 47, 0
2, 532334, Note_on_c, 0, 45, 75
2, 532348, Note_on_c, 0, 26, 49
2, 532412, Note_on_c, 0, 26, 0
2, 532416, Note_on_c, 0, 45, 0
2, 532544, Note_on_c, 0, 42, 64
2, 532598, Note_on_c, 0, 42, 0
2, 532750, Note_on_c, 0, 33, 55
2, 532766, Note_on_c, 0, 38, 46
2, 532816, Note_on_c, 0, 33, 0
2, 532826, Note_on_c, 0, 38, 0
2, 532962, Note_on_c, 0, 42, 67
2, 533022, Note_on_c, 0, 42, 0
2, 533194, Note_on_c, 0, 45, 79
2, 533222, Note_on_c, 0, 26, 36
2, 533316, Note_on_c, 0, 26, 0
2, 533624, Note_on_c, 0, 33, 47
2, 533714, Note_on_c, 0, 33, 0
2, 533716, Control_c, 0, 64, 127
2, 533734, Note_on_c, 0, 45, 0
2, 534100, Note_on_c, 0, 47, 70
2, 534114, Note_on_c, 0, 23, 53
2, 534132, Control_c, 0, 64, 0
2, 534164, Note_on_c, 0, 47, 0
2, 534222, Note_on_c, 0, 23, 0
2, 534320, Note_on_c, 0, 49, 59
2, 534382, Note_on_c, 0, 49, 0
2, 534540, Note_on_c, 0, 30, 47
2, 534540, Note_on_c, 0, 50, 65
2, 534602, Note_on_c, 0, 50, 0
2, 534614, Note_on_c, 0, 30, 0
2, 534768, Note_on_c, 0, 52, 67
2, 534820, Note_on_c, 0, 52, 0
2, 534980, Note_on_c, 0, 54, 76
2, 534994, Note_on_c, 0, 23, 56
2, 535038, Note_on_c, 0, 54, 0
2, 535068, Note_on_c, 0, 23, 0
2, 535190, Note_on_c, 0, 50, 78
2, 535242, Note_on_c, 0, 50, 0
2, 535438, Note_on_c, 0, 30, 47
2, 535438, Note_on_c, 0, 54, 75
2, 535528, Note_on_c, 0, 30, 0
2, 535586, Note_on_c, 0, 54, 0
2, 535882, Note_on_c, 0, 53, 92
2, 535896, Note_on_c, 0, 23, 42
2, 535930, Note_on_c, 0, 53, 0
2, 535962, Note_on_c, 0, 23, 0
2, 536102, Note_on_c, 0, 49, 51
2, 536168, Note_on_c, 0, 49, 0
2, 536316, Note_on_c, 0, 53, 72
2, 536322, Note_on_c, 0, 30, 41
2, 536400, Note_on_c, 0, 53, 0
2, 536408, Note_on_c, 0, 30, 0
2, 536778, Note_on_c, 0, 52, 65
2, 536790, Note_on_c, 0, 23, 47
2, 536830, Note_on_c, 0, 52, 0
2, 536860, Note_on_c, 0, 23, 0
2, 536986, Note_on_c, 0, 48, 54
2, 537044, Note_on_c, 0, 48, 0
2, 537214, Note_on_c, 0, 30, 39
2, 537228, Note_on_c, 0, 52, 60
2, 537304, Note_on_c, 0, 30, 0
2, 537312, Note_on_c, 0, 52, 0
2, 537644, Note_on_c, 0, 47, 55
2, 537646, Note_on_c, 0, 23, 53
2, 537704, Note_on_c, 0, 47, 0
2, 537706, Note_on_c, 0, 23, 0
2, 537852, Note_on_c, 0, 49, 67
2, 537902, Note_on_c, 0, 49, 0
2, 538068, Note_on_c, 0, 35, 61
2, 538073, Note_on_c, 0, 50, 65
2, 538134, Note_on_c, 0, 50, 0
2, 538158, Note_on_c, 0, 35, 0
2, 538290, Note_on_c, 0, 52, 54
2, 538344, Note_on_c, 0, 52, 0
2, 538480, Note_on_c, 0, 54, 74
2, 538506, Note_on_c, 0, 33, 53
2, 538544, Note_on_c, 0, 54, 0
2, 538570, Note_on_c, 0, 33, 0
2, 538696, Note_on_c, 0, 50, 76
2, 538758, Note_on_c, 0, 50, 0
2, 538900, Note_on_c, 0, 54, 79
2, 538906, Note_on_c, 0, 31, 63
2, 538970, Note_on_c, 0, 31, 0
2, 538970, Note_on_c, 0, 54, 0
2, 539118, Note_on_c, 0, 59, 76
2, 539170, Note_on_c, 0, 59, 0
2, 539314, Note_on_c, 0, 54, 79
2, 539320, Note_on_c, 0, 30, 71
2, 539386, Note_on_c, 0, 30, 0
2, 539389, Note_on_c, 0, 54, 0
2, 539514, Note_on_c, 0, 50, 94
2, 539576, Note_on_c, 0, 50, 0
2, 539724, Note_on_c, 0, 54, 90
2, 539732, Note_on_c, 0, 28, 63
2, 539782, Note_on_c, 0, 28, 0
2, 539790, Note_on_c, 0, 54, 0
2, 539918, Note_on_c, 0, 59, 94
2, 539956, Note_on_c, 0, 59, 0
2, 540178, Note_on_c, 0, 47, 92
2, 540181, Note_on_c, 0, 26, 65
2, 540242, Note_on_c, 0, 26, 0
2, 540594, Note_on_c, 0, 25, 64
2, 540666, Note_on_c, 0, 25, 0
2, 540756, Note_on_c, 0, 47, 0
2, 541068, Note_on_c, 0, 59, 61
2, 541090, Note_on_c, 0, 23, 64
2, 541126, Note_on_c, 0, 59, 0
2, 541134, Note_on_c, 0, 23, 0
2, 541154, Control_c, 0, 64, 127
2, 541304, Note_on_c, 0, 61, 46
2, 541368, Note_on_c, 0, 61, 0
2, 541494, Note_on_c, 0, 54, 74
2, 541496, Note_on_c, 0, 50, 63
2, 541506, Note_on_c, 0, 42, 75
2, 541518, Note_on_c, 0, 62, 53
2, 541574, Note_on_c, 0, 54, 0
2, 541580, Note_on_c, 0, 41, 68
2, 541582, Note_on_c, 0, 50, 0
2, 541584, Control_c, 0, 64, 0
2, 541596, Note_on_c, 0, 62, 0
2, 541612, Note_on_c, 0, 42, 0
2, 541634, Note_on_c, 0, 42, 65
2, 541658, Note_on_c, 0, 41, 0
2, 541688, Note_on_c, 0, 64, 76
2, 541692, Note_on_c, 0, 42, 0
2, 541744, Note_on_c, 0, 64, 0
2, 541920, Note_on_c, 0, 35, 71
2, 541924, Note_on_c, 0, 66, 52
2, 541970, Note_on_c, 0, 35, 0
2, 541986, Note_on_c, 0, 66, 0
2, 542044, Control_c, 0, 64, 127
2, 542136, Note_on_c, 0, 62, 49
2, 542194, Note_on_c, 0, 62, 0
2, 542212, Control_c, 0, 64, 0
2, 542322, Note_on_c, 0, 42, 71
2, 542332, Note_on_c, 0, 54, 70
2, 542332, Note_on_c, 0, 66, 62
2, 542332, Note_on_c, 0, 50, 59
2, 542370, Note_on_c, 0, 42, 0
2, 542414, Note_on_c, 0, 41, 68
2, 542492, Note_on_c, 0, 41, 0
2, 542508, Note_on_c, 0, 42, 76
2, 542524, Note_on_c, 0, 50, 0
2, 542554, Note_on_c, 0, 42, 0
2, 542616, Note_on_c, 0, 54, 0
2, 542736, Note_on_c, 0, 65, 85
2, 542758, Note_on_c, 0, 66, 0
2, 542764, Note_on_c, 0, 35, 86
2, 542796, Note_on_c, 0, 65, 0
2, 542846, Note_on_c, 0, 35, 0
2, 542938, Note_on_c, 0, 61, 80
2, 542998, Note_on_c, 0, 61, 0
2, 543130, Note_on_c, 0, 49, 62
2, 543136, Note_on_c, 0, 54, 68
2, 543140, Note_on_c, 0, 65, 74
2, 543140, Note_on_c, 0, 42, 60
2, 543190, Note_on_c, 0, 42, 0
2, 543216, Note_on_c, 0, 41, 75
2, 543228, Control_c, 0, 64, 127
2, 543294, Note_on_c, 0, 41, 0
2, 543340, Note_on_c, 0, 54, 0
2, 543340, Note_on_c, 0, 42, 65
2, 543352, Note_on_c, 0, 49, 0
2, 543386, Note_on_c, 0, 42, 0
2, 543400, Note_on_c, 0, 65, 0
2, 543458, Control_c, 0, 64, 0
2, 543552, Note_on_c, 0, 35, 85
2, 543557, Note_on_c, 0, 64, 80
2, 543594, Note_on_c, 0, 35, 0
2, 543602, Note_on_c, 0, 64, 0
2, 543658, Control_c, 0, 64, 127
2, 543750, Control_c, 0, 64, 0
2, 543758, Note_on_c, 0, 60, 63
2, 543814, Note_on_c, 0, 60, 0
2, 543960, Note_on_c, 0, 64, 79
2, 543963, Note_on_c, 0, 54, 55
2, 543963, Note_on_c, 0, 42, 63
2, 543970, Note_on_c, 0, 48, 48
2, 544046, Note_on_c, 0, 42, 0
2, 544054, Note_on_c, 0, 48, 0
2, 544064, Note_on_c, 0, 41, 63
2, 544130, Note_on_c, 0, 41, 0
2, 544152, Note_on_c, 0, 42, 65
2, 544202, Note_on_c, 0, 54, 0
2, 544205, Note_on_c, 0, 42, 0
2, 544296, Note_on_c, 0, 64, 0
2, 544380, Note_on_c, 0, 59, 78
2, 544388, Note_on_c, 0, 35, 90
2, 544438, Note_on_c, 0, 59, 0
2, 544496, Note_on_c, 0, 35, 0
2, 544582, Note_on_c, 0, 61, 69
2, 544636, Note_on_c, 0, 61, 0
2, 544766, Note_on_c, 0, 42, 67
2, 544768, Note_on_c, 0, 54, 74
2, 544784, Note_on_c, 0, 62, 67
2, 544790, Note_on_c, 0, 50, 52
2, 544818, Note_on_c, 0, 42, 0
2, 544846, Note_on_c, 0, 62, 0
2, 544856, Note_on_c, 0, 54, 0
2, 544872, Note_on_c, 0, 41, 71
2, 544962, Note_on_c, 0, 42, 83
2, 544974, Note_on_c, 0, 64, 82
2, 544977, Note_on_c, 0, 50, 0
2, 544990, Note_on_c, 0, 41, 0
2, 545022, Note_on_c, 0, 42, 0
2, 545042, Note_on_c, 0, 64, 0
2, 545174, Note_on_c, 0, 66, 83
2, 545178, Control_c, 0, 64, 127
2, 545196, Note_on_c, 0, 35, 83
2, 545244, Note_on_c, 0, 66, 0
2, 545250, Note_on_c, 0, 35, 0
2, 545362, Control_c, 0, 64, 0
2, 545378, Note_on_c, 0, 62, 94
2, 545434, Note_on_c, 0, 62, 0
2, 545556, Note_on_c, 0, 42, 78
2, 545562, Note_on_c, 0, 50, 78
2, 545562, Note_on_c, 0, 66, 65
2, 545608, Note_on_c, 0, 42, 0
2, 545628, Note_on_c, 0, 66, 0
2, 545650, Note_on_c, 0, 41, 86
2, 545716, Note_on_c, 0, 41, 0
2, 545748, Note_on_c, 0, 71, 109
2, 545756, Note_on_c, 0, 42, 86
2, 545780, Note_on_c, 0, 50, 0
2, 545822, Note_on_c, 0, 42, 0
2, 545854, Note_on_c, 0, 71, 0
2, 545944, Note_on_c, 0, 69, 85
2, 545954, Note_on_c, 0, 38, 95
2, 546014, Note_on_c, 0, 38, 0
2, 546024, Control_c, 0, 64, 127
2, 546068, Note_on_c, 0, 69, 0
2, 546100, Control_c, 0, 64, 0
2, 546140, Note_on_c, 0, 66, 80
2, 546230, Note_on_c, 0, 66, 0
2, 546318, Note_on_c, 0, 54, 79
2, 546330, Note_on_c, 0, 57, 68
2, 546338, Note_on_c, 0, 62, 82
2, 546356, Note_on_c, 0, 45, 47
2, 546386, Note_on_c, 0, 57, 0
2, 546390, Note_on_c, 0, 62, 0
2, 546402, Note_on_c, 0, 54, 0
2, 546422, Note_on_c, 0, 45, 0
2, 546428, Note_on_c, 0, 44, 74
2, 546496, Note_on_c, 0, 44, 0
2, 546506, Note_on_c, 0, 66, 87
2, 546526, Note_on_c, 0, 45, 48
2, 546610, Note_on_c, 0, 45, 0
2, 546620, Note_on_c, 0, 66, 0
2, 546740, Note_on_c, 0, 69, 92
2, 546768, Note_on_c, 0, 38, 55
2, 546848, Note_on_c, 0, 38, 0
2, 546884, Control_c, 0, 64, 127
2, 547132, Note_on_c, 0, 57, 56
2, 547135, Note_on_c, 0, 54, 75
2, 547140, Note_on_c, 0, 62, 63
2, 547172, Note_on_c, 0, 45, 54
2, 547192, Note_on_c, 0, 54, 0
2, 547192, Note_on_c, 0, 57, 0
2, 547204, Note_on_c, 0, 62, 0
2, 547232, Note_on_c, 0, 45, 0
2, 547248, Note_on_c, 0, 44, 64
2, 547286, Note_on_c, 0, 69, 0
2, 547312, Note_on_c, 0, 45, 55
2, 547334, Note_on_c, 0, 44, 0
2, 547376, Note_on_c, 0, 45, 0
2, 547546, Control_c, 0, 64, 0
2, 547560, Note_on_c, 0, 71, 103
2, 547578, Note_on_c, 0, 35, 92
2, 547618, Note_on_c, 0, 71, 0
2, 547682, Note_on_c, 0, 35, 0
2, 547748, Note_on_c, 0, 73, 80
2, 547828, Note_on_c, 0, 73, 0
2, 547940, Note_on_c, 0, 66, 60
2, 547944, Note_on_c, 0, 42, 60
2, 547944, Note_on_c, 0, 50, 63
2, 547950, Note_on_c, 0, 74, 84
2, 548002, Note_on_c, 0, 66, 0
2, 548004, Note_on_c, 0, 74, 0
2, 548006, Note_on_c, 0, 42, 0
2, 548028, Note_on_c, 0, 41, 76
2, 548044, Note_on_c, 0, 50, 0
2, 548096, Note_on_c, 0, 41, 0
2, 548130, Note_on_c, 0, 76, 90
2, 548136, Note_on_c, 0, 42, 77
2, 548204, Note_on_c, 0, 42, 0
2, 548244, Note_on_c, 0, 76, 0
2, 548266, Control_c, 0, 64, 127
2, 548338, Note_on_c, 0, 78, 95
2, 548350, Note_on_c, 0, 35, 95
2, 548360, Control_c, 0, 64, 0
2, 548450, Note_on_c, 0, 35, 0
2, 548453, Note_on_c, 0, 78, 0
2, 548544, Note_on_c, 0, 74, 94
2, 548582, Note_on_c, 0, 74, 0
2, 548728, Note_on_c, 0, 50, 68
2, 548736, Note_on_c, 0, 78, 106
2, 548740, Note_on_c, 0, 42, 56
2, 548758, Note_on_c, 0, 66, 55
2, 548798, Note_on_c, 0, 42, 0
2, 548816, Note_on_c, 0, 41, 82
2, 548864, Note_on_c, 0, 50, 0
2, 548894, Note_on_c, 0, 41, 0
2, 548944, Control_c, 0, 64, 127
2, 548947, Note_on_c, 0, 42, 62
2, 549046, Note_on_c, 0, 78, 0
2, 549060, Note_on_c, 0, 42, 0
2, 549082, Control_c, 0, 64, 0
2, 549132, Note_on_c, 0, 66, 0
2, 549142, Note_on_c, 0, 77, 98
2, 549160, Note_on_c, 0, 35, 86
2, 549218, Note_on_c, 0, 35, 0
2, 549244, Note_on_c, 0, 77, 0
2, 549282, Control_c, 0, 64, 127
2, 549328, Control_c, 0, 64, 0
2, 549360, Note_on_c, 0, 73, 71
2, 549410, Note_on_c, 0, 73, 0
2, 549544, Note_on_c, 0, 49, 53
2, 549546, Note_on_c, 0, 66, 64
2, 549558, Note_on_c, 0, 77, 68
2, 549560, Note_on_c, 0, 42, 45
2, 549614, Note_on_c, 0, 42, 0
2, 549634, Note_on_c, 0, 41, 61
2, 549712, Note_on_c, 0, 41, 0
2, 549712, Note_on_c, 0, 49, 0
2, 549740, Note_on_c, 0, 42, 64
2, 549800, Note_on_c, 0, 42, 0
2, 549944, Note_on_c, 0, 66, 0
2, 549952, Note_on_c, 0, 35, 70
2, 549962, Note_on_c, 0, 77, 0
2, 549968, Note_on_c, 0, 76, 64
2, 550008, Note_on_c, 0, 35, 0
2, 550022, Note_on_c, 0, 76, 0
2, 550164, Note_on_c, 0, 72, 61
2, 550218, Note_on_c, 0, 72, 0
2, 550348, Note_on_c, 0, 76, 70
2, 550360, Note_on_c, 0, 48, 39
2, 550366, Note_on_c, 0, 66, 39
2, 550370, Note_on_c, 0, 42, 33
2, 550426, Note_on_c, 0, 41, 65
2, 550432, Note_on_c, 0, 42, 0
2, 550500, Note_on_c, 0, 41, 0
2, 550532, Note_on_c, 0, 42, 44
2, 550574, Note_on_c, 0, 48, 0
2, 550594, Note_on_c, 0, 66, 0
2, 550700, Note_on_c, 0, 42, 0
2, 550760, Note_on_c, 0, 35, 80
2, 550768, Note_on_c, 0, 71, 80
2, 550786, Note_on_c, 0, 76, 0
2, 550822, Note_on_c, 0, 35, 0
2, 550830, Note_on_c, 0, 71, 0
2, 550960, Note_on_c, 0, 73, 72
2, 551028, Note_on_c, 0, 73, 0
2, 551148, Note_on_c, 0, 50, 60
2, 551151, Note_on_c, 0, 42, 57
2, 551156, Control_c, 0, 64, 127
2, 551158, Note_on_c, 0, 66, 60
2, 551166, Note_on_c, 0, 74, 80
2, 551214, Note_on_c, 0, 42, 0
2, 551230, Note_on_c, 0, 74, 0
2, 551233, Control_c, 0, 64, 0
2, 551236, Note_on_c, 0, 41, 75
2, 551254, Note_on_c, 0, 66, 0
2, 551318, Note_on_c, 0, 41, 0
2, 551348, Note_on_c, 0, 76, 87
2, 551348, Note_on_c, 0, 42, 72
2, 551351, Note_on_c, 0, 50, 0
2, 551424, Note_on_c, 0, 42, 0
2, 551440, Note_on_c, 0, 76, 0
2, 551546, Note_on_c, 0, 78, 91
2, 551554, Note_on_c, 0, 35, 90
2, 551600, Note_on_c, 0, 35, 0
2, 551672, Note_on_c, 0, 78, 0
2, 551748, Note_on_c, 0, 74, 90
2, 551832, Note_on_c, 0, 74, 0
2, 551916, Note_on_c, 0, 50, 70
2, 551922, Note_on_c, 0, 42, 74
2, 551936, Note_on_c, 0, 78, 94
2, 552000, Note_on_c, 0, 41, 91
2, 552006, Note_on_c, 0, 42, 0
2, 552038, Note_on_c, 0, 78, 0
2, 552058, Note_on_c, 0, 41, 0
2, 552108, Control_c, 0, 64, 127
2, 552114, Note_on_c, 0, 42, 80
2, 552118, Note_on_c, 0, 83, 125
2, 552186, Control_c, 0, 64, 0
2, 552194, Note_on_c, 0, 50, 0
2, 552212, Note_on_c, 0, 42, 0
2, 552218, Note_on_c, 0, 83, 0
2, 552326, Note_on_c, 0, 81, 106
2, 552328, Note_on_c, 0, 38, 103
2, 552354, Control_c, 0, 64, 127
2, 552408, Note_on_c, 0, 38, 0
2, 552446, Note_on_c, 0, 81, 0
2, 552516, Note_on_c, 0, 78, 92
2, 552524, Control_c, 0, 64, 0
2, 552588, Note_on_c, 0, 78, 0
2, 552692, Note_on_c, 0, 54, 84
2, 552708, Note_on_c, 0, 69, 51
2, 552710, Note_on_c, 0, 74, 78
2, 552722, Note_on_c, 0, 45, 63
2, 552762, Note_on_c, 0, 74, 0
2, 552780, Note_on_c, 0, 45, 0
2, 552794, Note_on_c, 0, 54, 0
2, 552797, Note_on_c, 0, 44, 72
2, 552800, Note_on_c, 0, 69, 0
2, 552882, Note_on_c, 0, 78, 98
2, 552894, Note_on_c, 0, 44, 0
2, 552894, Note_on_c, 0, 45, 59
2, 552990, Note_on_c, 0, 45, 0
2, 552992, Note_on_c, 0, 78, 0
2, 553102, Note_on_c, 0, 81, 113
2, 553122, Note_on_c, 0, 38, 69
2, 553184, Note_on_c, 0, 38, 0
2, 553198, Control_c, 0, 64, 127
2, 553384, Note_on_c, 0, 81, 0
2, 553482, Note_on_c, 0, 54, 76
2, 553494, Note_on_c, 0, 69, 57
2, 553502, Note_on_c, 0, 74, 74
2, 553518, Note_on_c, 0, 45, 64
2, 553542, Note_on_c, 0, 74, 0
2, 553545, Note_on_c, 0, 54, 0
2, 553556, Note_on_c, 0, 69, 0
2, 553588, Note_on_c, 0, 45, 0
2, 553610, Note_on_c, 0, 44, 74
2, 553686, Note_on_c, 0, 45, 51
2, 553732, Note_on_c, 0, 44, 0
2, 553744, Note_on_c, 0, 45, 0
2, 553830, Control_c, 0, 64, 0
2, 553904, Note_on_c, 0, 66, 61
2, 553914, Note_on_c, 0, 42, 70
2, 553990, Note_on_c, 0, 66, 0
2, 554020, Note_on_c, 0, 42, 0
2, 554106, Note_on_c, 0, 68, 64
2, 554170, Note_on_c, 0, 68, 0
2, 554282, Note_on_c, 0, 58, 49
2, 554292, Note_on_c, 0, 49, 53
2, 554296, Note_on_c, 0, 70, 57
2, 554304, Note_on_c, 0, 66, 37
2, 554350, Note_on_c, 0, 49, 0
2, 554364, Note_on_c, 0, 70, 0
2, 554374, Note_on_c, 0, 66, 0
2, 554382, Note_on_c, 0, 48, 45
2, 554461, Note_on_c, 0, 48, 0
2, 554461, Note_on_c, 0, 49, 52
2, 554478, Note_on_c, 0, 71, 72
2, 554512, Note_on_c, 0, 58, 0
2, 554542, Note_on_c, 0, 71, 0
2, 554552, Note_on_c, 0, 49, 0
2, 554686, Note_on_c, 0, 42, 69
2, 554690, Note_on_c, 0, 73, 68
2, 554738, Note_on_c, 0, 42, 0
2, 554776, Note_on_c, 0, 73, 0
2, 554886, Note_on_c, 0, 70, 64
2, 554946, Note_on_c, 0, 70, 0
2, 555080, Note_on_c, 0, 58, 52
2, 555080, Note_on_c, 0, 73, 65
2, 555086, Note_on_c, 0, 49, 57
2, 555096, Note_on_c, 0, 66, 37
2, 555110, Note_on_c, 0, 70, 40
2, 555146, Note_on_c, 0, 49, 0
2, 555190, Note_on_c, 0, 66, 0
2, 555190, Note_on_c, 0, 70, 0
2, 555190, Note_on_c, 0, 48, 38
2, 555298, Note_on_c, 0, 58, 0
2, 555304, Note_on_c, 0, 48, 0
2, 555310, Note_on_c, 0, 49, 38
2, 555352, Note_on_c, 0, 73, 0
2, 555382, Note_on_c, 0, 49, 0
2, 555504, Note_on_c, 0, 74, 72
2, 555514, Note_on_c, 0, 38, 71
2, 555560, Note_on_c, 0, 74, 0
2, 555568, Note_on_c, 0, 38, 0
2, 555696, Note_on_c, 0, 70, 59
2, 555768, Note_on_c, 0, 70, 0
2, 555892, Note_on_c, 0, 58, 54
2, 555914, Note_on_c, 0, 74, 70
2, 555920, Note_on_c, 0, 62, 42
2, 555934, Note_on_c, 0, 66, 31
2, 555934, Note_on_c, 0, 50, 45
2, 555982, Note_on_c, 0, 49, 62
2, 556000, Note_on_c, 0, 50, 0
2, 556050, Note_on_c, 0, 49, 0
2, 556058, Note_on_c, 0, 58, 0
2, 556092, Note_on_c, 0, 50, 48
2, 556174, Note_on_c, 0, 50, 0
2, 556177, Note_on_c, 0, 74, 0
2, 556177, Note_on_c, 0, 62, 0
2, 556214, Note_on_c, 0, 66, 0
2, 556308, Note_on_c, 0, 42, 68
2, 556312, Note_on_c, 0, 73, 61
2, 556368, Note_on_c, 0, 42, 0
2, 556372, Note_on_c, 0, 73, 0
2, 556502, Note_on_c, 0, 70, 61
2, 556562, Note_on_c, 0, 70, 0
2, 556710, Note_on_c, 0, 58, 46
2, 556710, Note_on_c, 0, 70, 51
2, 556714, Note_on_c, 0, 73, 69
2, 556716, Note_on_c, 0, 49, 49
2, 556722, Note_on_c, 0, 66, 42
2, 556774, Note_on_c, 0, 49, 0
2, 556794, Note_on_c, 0, 48, 60
2, 556856, Control_c, 0, 64, 127
2, 556900, Note_on_c, 0, 48, 0
2, 556906, Note_on_c, 0, 49, 60
2, 556924, Note_on_c, 0, 58, 0
2, 556958, Note_on_c, 0, 49, 0
2, 556968, Note_on_c, 0, 70, 0
2, 556994, Note_on_c, 0, 66, 0
2, 557038, Note_on_c, 0, 73, 0
2, 557118, Control_c, 0, 64, 0
2, 557128, Note_on_c, 0, 42, 71
2, 557133, Note_on_c, 0, 66, 67
2, 557198, Note_on_c, 0, 66, 0
2, 557240, Control_c, 0, 64, 127
2, 557242, Note_on_c, 0, 42, 0
2, 557328, Note_on_c, 0, 68, 71
2, 557380, Note_on_c, 0, 68, 0
2, 557410, Control_c, 0, 64, 0
2, 557500, Note_on_c, 0, 58, 59
2, 557512, Note_on_c, 0, 70, 68
2, 557512, Note_on_c, 0, 49, 59
2, 557518, Note_on_c, 0, 66, 55
2, 557532, Control_c, 0, 64, 127
2, 557566, Note_on_c, 0, 49, 0
2, 557576, Note_on_c, 0, 70, 0
2, 557579, Control_c, 0, 64, 0
2, 557586, Note_on_c, 0, 66, 0
2, 557594, Note_on_c, 0, 48, 57
2, 557678, Note_on_c, 0, 48, 0
2, 557688, Note_on_c, 0, 49, 64
2, 557698, Note_on_c, 0, 71, 95
2, 557716, Control_c, 0, 64, 127
2, 557750, Note_on_c, 0, 49, 0
2, 557752, Note_on_c, 0, 58, 0
2, 557766, Note_on_c, 0, 71, 0
2, 557840, Control_c, 0, 64, 0
2, 557902, Note_on_c, 0, 73, 84
2, 557922, Note_on_c, 0, 42, 80
2, 557978, Control_c, 0, 64, 127
2, 557986, Note_on_c, 0, 42, 0
2, 558018, Note_on_c, 0, 73, 0
2, 558102, Note_on_c, 0, 70, 75
2, 558132, Control_c, 0, 64, 0
2, 558158, Note_on_c, 0, 70, 0
2, 558288, Note_on_c, 0, 73, 87
2, 558292, Note_on_c, 0, 58, 55
2, 558294, Note_on_c, 0, 49, 71
2, 558296, Note_on_c, 0, 66, 69
2, 558300, Control_c, 0, 64, 127
2, 558302, Note_on_c, 0, 70, 59
2, 558348, Note_on_c, 0, 49, 0
2, 558378, Control_c, 0, 64, 0
2, 558386, Note_on_c, 0, 70, 0
2, 558396, Note_on_c, 0, 48, 53
2, 558432, Note_on_c, 0, 58, 0
2, 558444, Note_on_c, 0, 66, 0
2, 558488, Note_on_c, 0, 73, 0
2, 558500, Note_on_c, 0, 49, 87
2, 558516, Control_c, 0, 64, 127
2, 558524, Note_on_c, 0, 48, 0
2, 558544, Note_on_c, 0, 49, 0
2, 558608, Control_c, 0, 64, 0
2, 558696, Note_on_c, 0, 74, 105
2, 558722, Note_on_c, 0, 38, 48
2, 558776, Control_c, 0, 64, 127
2, 558784, Note_on_c, 0, 38, 0
2, 558788, Note_on_c, 0, 74, 0
2, 558874, Note_on_c, 0, 70, 78
2, 558900, Control_c, 0, 64, 0
2, 558942, Note_on_c, 0, 70, 0
2, 558992, Control_c, 0, 64, 127
2, 559038, Control_c, 0, 64, 0
2, 559066, Note_on_c, 0, 58, 64
2, 559076, Note_on_c, 0, 74, 108
2, 559088, Note_on_c, 0, 66, 63
2, 559088, Note_on_c, 0, 70, 59
2, 559094, Note_on_c, 0, 50, 76
2, 559144, Note_on_c, 0, 50, 0
2, 559144, Note_on_c, 0, 49, 79
2, 559156, Note_on_c, 0, 70, 0
2, 559192, Note_on_c, 0, 58, 0
2, 559268, Control_c, 0, 64, 127
2, 559270, Note_on_c, 0, 50, 71
2, 559278, Note_on_c, 0, 49, 0
2, 559312, Note_on_c, 0, 66, 0
2, 559328, Note_on_c, 0, 50, 0
2, 559376, Note_on_c, 0, 74, 0
2, 559422, Control_c, 0, 64, 0
2, 559486, Note_on_c, 0, 42, 85
2, 559492, Note_on_c, 0, 73, 100
2, 559572, Note_on_c, 0, 42, 0
2, 559592, Control_c, 0, 64, 127
2, 559852, Note_on_c, 0, 49, 75
2, 559852, Control_c, 0, 64, 0
2, 559855, Note_on_c, 0, 58, 49
2, 559878, Note_on_c, 0, 70, 60
2, 559886, Note_on_c, 0, 66, 47
2, 559900, Note_on_c, 0, 49, 0
2, 559936, Note_on_c, 0, 48, 72
2, 559972, Note_on_c, 0, 70, 0
2, 559972, Note_on_c, 0, 66, 0
2, 559990, Control_c, 0, 64, 127
2, 560008, Note_on_c, 0, 58, 0
2, 560018, Note_on_c, 0, 73, 0
2, 560054, Note_on_c, 0, 49, 68
2, 560072, Note_on_c, 0, 48, 0
2, 560102, Note_on_c, 0, 49, 0
2, 560160, Control_c, 0, 64, 0
2, 560256, Note_on_c, 0, 42, 83
2, 560262, Note_on_c, 0, 78, 84
2, 560314, Note_on_c, 0, 78, 0
2, 560320, Note_on_c, 0, 42, 0
2, 560328, Control_c, 0, 64, 127
2, 560420, Control_c, 0, 64, 0
2, 560452, Note_on_c, 0, 80, 82
2, 560504, Note_on_c, 0, 80, 0
2, 560630, Note_on_c, 0, 58, 54
2, 560636, Note_on_c, 0, 49, 67
2, 560640, Note_on_c, 0, 78, 71
2, 560640, Note_on_c, 0, 82, 82
2, 560688, Note_on_c, 0, 78, 0
2, 560688, Note_on_c, 0, 49, 0
2, 560698, Note_on_c, 0, 82, 0
2, 560724, Note_on_c, 0, 48, 53
2, 560830, Note_on_c, 0, 83, 126
2, 560833, Note_on_c, 0, 48, 0
2, 560836, Note_on_c, 0, 49, 79
2, 560838, Note_on_c, 0, 58, 0
2, 560880, Note_on_c, 0, 49, 0
2, 560914, Note_on_c, 0, 83, 0
2, 561028, Note_on_c, 0, 85, 109
2, 561031, Note_on_c, 0, 42, 85
2, 561036, Control_c, 0, 64, 127
2, 561090, Note_on_c, 0, 42, 0
2, 561130, Note_on_c, 0, 85, 0
2, 561222, Note_on_c, 0, 82, 86
2, 561274, Note_on_c, 0, 82, 0
2, 561282, Control_c, 0, 64, 0
2, 561412, Note_on_c, 0, 85, 109
2, 561415, Note_on_c, 0, 49, 85
2, 561422, Note_on_c, 0, 78, 90
2, 561422, Note_on_c, 0, 58, 53
2, 561430, Note_on_c, 0, 82, 69
2, 561490, Note_on_c, 0, 82, 0
2, 561496, Control_c, 0, 64, 127
2, 561516, Note_on_c, 0, 48, 59
2, 561524, Note_on_c, 0, 49, 0
2, 561542, Control_c, 0, 64, 0
2, 561556, Note_on_c, 0, 58, 0
2, 561616, Note_on_c, 0, 49, 91
2, 561630, Note_on_c, 0, 48, 0
2, 561664, Note_on_c, 0, 49, 0
2, 561696, Control_c, 0, 64, 127
2, 561698, Note_on_c, 0, 78, 0
2, 561758, Note_on_c, 0, 85, 0
2, 561758, Control_c, 0, 64, 0
2, 561812, Note_on_c, 0, 86, 113
2, 561830, Note_on_c, 0, 38, 107
2, 561862, Note_on_c, 0, 38, 0
2, 561942, Control_c, 0, 64, 127
2, 561948, Note_on_c, 0, 86, 0
2, 561972, Control_c, 0, 64, 0
2, 562012, Note_on_c, 0, 82, 92
2, 562124, Note_on_c, 0, 82, 0
2, 562194, Note_on_c, 0, 82, 85
2, 562200, Note_on_c, 0, 50, 100
2, 562200, Note_on_c, 0, 86, 116
2, 562203, Note_on_c, 0, 58, 60
2, 562203, Note_on_c, 0, 78, 93
2, 562274, Note_on_c, 0, 50, 0
2, 562294, Note_on_c, 0, 49, 87
2, 562320, Note_on_c, 0, 82, 0
2, 562388, Control_c, 0, 64, 127
2, 562402, Note_on_c, 0, 50, 93
2, 562410, Note_on_c, 0, 78, 0
2, 562410, Note_on_c, 0, 58, 0
2, 562434, Note_on_c, 0, 49, 0
2, 562466, Note_on_c, 0, 50, 0
2, 562476, Note_on_c, 0, 86, 0
2, 562510, Control_c, 0, 64, 0
2, 562590, Note_on_c, 0, 42, 108
2, 562604, Note_on_c, 0, 85, 109
2, 562680, Control_c, 0, 64, 127
2, 562688, Note_on_c, 0, 42, 0
2, 562710, Note_on_c, 0, 85, 0
2, 562788, Control_c, 0, 64, 0
2, 562802, Note_on_c, 0, 82, 97
2, 562910, Note_on_c, 0, 82, 0
2, 562982, Note_on_c, 0, 49, 93
2, 562982, Note_on_c, 0, 85, 111
2, 562985, Note_on_c, 0, 58, 70
2, 562994, Note_on_c, 0, 78, 95
2, 562997, Note_on_c, 0, 82, 61
2, 563032, Control_c, 0, 64, 127
2, 563038, Note_on_c, 0, 49, 0
2, 563064, Control_c, 0, 64, 0
2, 563070, Note_on_c, 0, 48, 69
2, 563100, Note_on_c, 0, 58, 0
2, 563178, Note_on_c, 0, 49, 92
2, 563184, Note_on_c, 0, 82, 0
2, 563210, Note_on_c, 0, 48, 0
2, 563232, Note_on_c, 0, 78, 0
2, 563234, Note_on_c, 0, 49, 0
2, 563248, Control_c, 0, 64, 127
2, 563294, Control_c, 0, 64, 0
2, 563324, Note_on_c, 0, 85, 0
2, 563370, Note_on_c, 0, 78, 107
2, 563374, Note_on_c, 0, 42, 97
2, 563438, Note_on_c, 0, 42, 0
2, 563468, Note_on_c, 0, 78, 0
2, 563478, Control_c, 0, 64, 127
2, 563510, Control_c, 0, 64, 0
2, 563572, Note_on_c, 0, 80, 103
2, 563666, Note_on_c, 0, 80, 0
2, 563736, Note_on_c, 0, 58, 65
2, 563744, Note_on_c, 0, 49, 80
2, 563752, Note_on_c, 0, 82, 92
2, 563752, Note_on_c, 0, 78, 97
2, 563802, Note_on_c, 0, 78, 0
2, 563808, Note_on_c, 0, 49, 0
2, 563826, Note_on_c, 0, 48, 71
2, 563842, Note_on_c, 0, 82, 0
2, 563928, Note_on_c, 0, 83, 127
2, 563930, Note_on_c, 0, 49, 97
2, 563932, Note_on_c, 0, 58, 0
2, 563940, Control_c, 0, 64, 127
2, 563960, Note_on_c, 0, 48, 0
2, 563998, Note_on_c, 0, 49, 0
2, 564001, Control_c, 0, 64, 0
2, 564016, Note_on_c, 0, 83, 0
2, 564124, Note_on_c, 0, 42, 100
2, 564124, Note_on_c, 0, 85, 114
2, 564184, Control_c, 0, 64, 127
2, 564189, Note_on_c, 0, 42, 0
2, 564230, Control_c, 0, 64, 0
2, 564258, Note_on_c, 0, 85, 0
2, 564310, Note_on_c, 0, 82, 101
2, 564416, Control_c, 0, 64, 127
2, 564426, Note_on_c, 0, 82, 0
2, 564478, Control_c, 0, 64, 0
2, 564496, Note_on_c, 0, 85, 118
2, 564504, Note_on_c, 0, 58, 75
2, 564506, Note_on_c, 0, 82, 69
2, 564506, Note_on_c, 0, 78, 106
2, 564510, Note_on_c, 0, 49, 94
2, 564578, Note_on_c, 0, 58, 0
2, 564618, Note_on_c, 0, 48, 71
2, 564662, Control_c, 0, 64, 127
2, 564678, Note_on_c, 0, 49, 0
2, 564684, Note_on_c, 0, 82, 0
2, 564706, Note_on_c, 0, 49, 48
2, 564744, Note_on_c, 0, 48, 0
2, 564770, Control_c, 0, 64, 0
2, 564794, Note_on_c, 0, 49, 0
2, 564796, Note_on_c, 0, 78, 0
2, 564802, Note_on_c, 0, 85, 0
2, 564878, Note_on_c, 0, 86, 121
2, 564890, Note_on_c, 0, 38, 100
2, 564926, Note_on_c, 0, 38, 0
2, 564954, Control_c, 0, 64, 127
2, 565020, Note_on_c, 0, 86, 0
2, 565046, Control_c, 0, 64, 0
2, 565068, Note_on_c, 0, 82, 100
2, 565172, Note_on_c, 0, 82, 0
2, 565244, Note_on_c, 0, 86, 125
2, 565250, Note_on_c, 0, 58, 74
2, 565254, Note_on_c, 0, 78, 108
2, 565256, Note_on_c, 0, 82, 63
2, 565264, Note_on_c, 0, 50, 82
2, 565298, Note_on_c, 0, 49, 94
2, 565312, Note_on_c, 0, 50, 0
2, 565378, Note_on_c, 0, 58, 0
2, 565422, Note_on_c, 0, 78, 0
2, 565422, Note_on_c, 0, 50, 72
2, 565428, Note_on_c, 0, 82, 0
2, 565460, Control_c, 0, 64, 127
2, 565480, Note_on_c, 0, 49, 0
2, 565514, Note_on_c, 0, 50, 0
2, 565538, Control_c, 0, 64, 0
2, 565542, Note_on_c, 0, 86, 0
2, 565642, Note_on_c, 0, 42, 103
2, 565642, Note_on_c, 0, 85, 122
2, 565712, Note_on_c, 0, 42, 0
2, 565738, Control_c, 0, 64, 127
2, 566012, Note_on_c, 0, 49, 72
2, 566015, Note_on_c, 0, 58, 62
2, 566024, Note_on_c, 0, 78, 95
2, 566026, Note_on_c, 0, 82, 91
2, 566036, Note_on_c, 0, 85, 0
2, 566062, Note_on_c, 0, 82, 0
2, 566070, Note_on_c, 0, 78, 0
2, 566098, Note_on_c, 0, 48, 67
2, 566122, Note_on_c, 0, 58, 0
2, 566124, Note_on_c, 0, 49, 0
2, 566182, Note_on_c, 0, 49, 93
2, 566206, Note_on_c, 0, 48, 0
2, 566218, Note_on_c, 0, 49, 0
2, 566398, Control_c, 0, 64, 0
2, 566516, Note_on_c, 0, 35, 57
2, 566530, Note_on_c, 0, 59, 62
2, 566644, Control_c, 0, 64, 127
2, 566664, Note_on_c, 0, 35, 0
2, 566682, Note_on_c, 0, 59, 0
2, 566688, Note_on_c, 0, 41, 46
2, 566740, Note_on_c, 0, 61, 69
2, 566760, Note_on_c, 0, 41, 0
2, 566784, Note_on_c, 0, 42, 56
2, 566794, Note_on_c, 0, 61, 0
2, 566860, Note_on_c, 0, 42, 0
2, 566932, Note_on_c, 0, 50, 71
2, 566934, Note_on_c, 0, 54, 63
2, 566942, Note_on_c, 0, 62, 76
2, 567008, Note_on_c, 0, 54, 0
2, 567014, Note_on_c, 0, 62, 0
2, 567048, Note_on_c, 0, 41, 69
2, 567060, Note_on_c, 0, 50, 0
2, 567134, Note_on_c, 0, 64, 103
2, 567160, Note_on_c, 0, 42, 78
2, 567178, Note_on_c, 0, 41, 0
2, 567206, Note_on_c, 0, 64, 0
2, 567272, Note_on_c, 0, 42, 0
2, 567336, Control_c, 0, 64, 0
2, 567346, Note_on_c, 0, 66, 82
2, 567346, Note_on_c, 0, 35, 91
2, 567468, Note_on_c, 0, 41, 72
2, 567502, Note_on_c, 0, 66, 0
2, 567507, Note_on_c, 0, 35, 0
2, 567536, Control_c, 0, 64, 127
2, 567564, Note_on_c, 0, 62, 92
2, 567608, Note_on_c, 0, 42, 76
2, 567626, Note_on_c, 0, 41, 0
2, 567632, Note_on_c, 0, 62, 0
2, 567712, Note_on_c, 0, 42, 0
2, 567776, Note_on_c, 0, 50, 68
2, 567786, Note_on_c, 0, 66, 87
2, 567814, Note_on_c, 0, 54, 65
2, 567894, Note_on_c, 0, 50, 0
2, 567916, Note_on_c, 0, 41, 60
2, 567948, Note_on_c, 0, 54, 0
2, 568038, Note_on_c, 0, 42, 65
2, 568048, Note_on_c, 0, 41, 0
2, 568138, Note_on_c, 0, 66, 0
2, 568158, Note_on_c, 0, 42, 0
2, 568180, Control_c, 0, 64, 0
2, 568220, Note_on_c, 0, 65, 78
2, 568236, Note_on_c, 0, 35, 71
2, 568360, Note_on_c, 0, 65, 0
2, 568362, Note_on_c, 0, 35, 0
2, 568362, Note_on_c, 0, 42, 60
2, 568380, Control_c, 0, 64, 127
2, 568422, Note_on_c, 0, 61, 78
2, 568476, Note_on_c, 0, 42, 0
2, 568496, Note_on_c, 0, 41, 37
2, 568498, Note_on_c, 0, 61, 0
2, 568592, Note_on_c, 0, 41, 0
2, 568628, Note_on_c, 0, 54, 82
2, 568631, Note_on_c, 0, 65, 88
2, 568652, Note_on_c, 0, 49, 67
2, 568786, Note_on_c, 0, 54, 0
2, 568796, Note_on_c, 0, 49, 0
2, 568796, Note_on_c, 0, 41, 62
2, 568874, Note_on_c, 0, 65, 0
2, 568906, Note_on_c, 0, 42, 67
2, 568910, Note_on_c, 0, 41, 0
2, 569012, Note_on_c, 0, 42, 0
2, 569056, Control_c, 0, 64, 0
2, 569076, Note_on_c, 0, 64, 78
2, 569088, Note_on_c, 0, 35, 71
2, 569200, Note_on_c, 0, 41, 72
2, 569208, Note_on_c, 0, 35, 0
2, 569224, Note_on_c, 0, 64, 0
2, 569266, Note_on_c, 0, 60, 62
2, 569272, Control_c, 0, 64, 127
2, 569322, Note_on_c, 0, 42, 71
2, 569332, Note_on_c, 0, 41, 0
2, 569388, Note_on_c, 0, 60, 0
2, 569412, Note_on_c, 0, 42, 0
2, 569466, Note_on_c, 0, 54, 90
2, 569474, Note_on_c, 0, 64, 107
2, 569478, Note_on_c, 0, 48, 63
2, 569584, Note_on_c, 0, 48, 0
2, 569598, Note_on_c, 0, 41, 70
2, 569632, Note_on_c, 0, 54, 0
2, 569698, Note_on_c, 0, 64, 0
2, 569698, Note_on_c, 0, 42, 77
2, 569722, Note_on_c, 0, 41, 0
2, 569808, Control_c, 0, 64, 0
2, 569818, Note_on_c, 0, 42, 0
2, 569866, Note_on_c, 0, 35, 78
2, 569878, Note_on_c, 0, 59, 83
2, 569958, Note_on_c, 0, 59, 0
2, 570002, Note_on_c, 0, 35, 0
2, 570006, Note_on_c, 0, 41, 71
2, 570024, Control_c, 0, 64, 127
2, 570072, Note_on_c, 0, 61, 80
2, 570130, Note_on_c, 0, 41, 0
2, 570134, Note_on_c, 0, 42, 67
2, 570136, Note_on_c, 0, 61, 0
2, 570230, Note_on_c, 0, 42, 0
2, 570274, Note_on_c, 0, 54, 79
2, 570284, Note_on_c, 0, 62, 85
2, 570294, Note_on_c, 0, 50, 69
2, 570380, Note_on_c, 0, 50, 0
2, 570392, Note_on_c, 0, 54, 0
2, 570418, Note_on_c, 0, 41, 74
2, 570484, Note_on_c, 0, 64, 102
2, 570504, Note_on_c, 0, 41, 0
2, 570516, Note_on_c, 0, 42, 80
2, 570519, Note_on_c, 0, 62, 0
2, 570598, Note_on_c, 0, 64, 0
2, 570626, Note_on_c, 0, 42, 0
2, 570670, Control_c, 0, 64, 0
2, 570673, Note_on_c, 0, 35, 87
2, 570690, Note_on_c, 0, 66, 83
2, 570800, Note_on_c, 0, 35, 0
2, 570800, Note_on_c, 0, 42, 76
2, 570838, Control_c, 0, 64, 127
2, 570854, Note_on_c, 0, 66, 0
2, 570890, Note_on_c, 0, 62, 84
2, 570916, Note_on_c, 0, 41, 77
2, 570924, Note_on_c, 0, 42, 0
2, 571016, Note_on_c, 0, 62, 0
2, 571028, Note_on_c, 0, 41, 0
2, 571042, Note_on_c, 0, 42, 28
2, 571084, Note_on_c, 0, 66, 90
2, 571100, Note_on_c, 0, 59, 72
2, 571112, Note_on_c, 0, 42, 0
2, 571112, Note_on_c, 0, 50, 82
2, 571170, Note_on_c, 0, 59, 0
2, 571190, Note_on_c, 0, 50, 0
2, 571220, Note_on_c, 0, 41, 84
2, 571234, Note_on_c, 0, 66, 0
2, 571292, Note_on_c, 0, 71, 110
2, 571326, Note_on_c, 0, 41, 0
2, 571340, Note_on_c, 0, 42, 78
2, 571418, Note_on_c, 0, 71, 0
2, 571426, Note_on_c, 0, 42, 0
2, 571468, Control_c, 0, 64, 0
2, 571490, Note_on_c, 0, 38, 86
2, 571490, Note_on_c, 0, 69, 93
2, 571608, Note_on_c, 0, 44, 82
2, 571646, Note_on_c, 0, 38, 0
2, 571650, Note_on_c, 0, 69, 0
2, 571684, Note_on_c, 0, 66, 78
2, 571700, Control_c, 0, 64, 127
2, 571752, Note_on_c, 0, 45, 75
2, 571760, Note_on_c, 0, 44, 0
2, 571806, Note_on_c, 0, 66, 0
2, 571822, Note_on_c, 0, 45, 0
2, 571864, Note_on_c, 0, 62, 97
2, 571867, Note_on_c, 0, 57, 72
2, 571882, Note_on_c, 0, 54, 85
2, 571926, Note_on_c, 0, 57, 0
2, 571978, Note_on_c, 0, 54, 0
2, 571988, Note_on_c, 0, 62, 0
2, 572010, Note_on_c, 0, 44, 78
2, 572054, Note_on_c, 0, 66, 97
2, 572148, Note_on_c, 0, 45, 75
2, 572184, Note_on_c, 0, 44, 0
2, 572202, Note_on_c, 0, 66, 0
2, 572246, Note_on_c, 0, 45, 0
2, 572268, Note_on_c, 0, 69, 103
2, 572282, Control_c, 0, 64, 0
2, 572300, Note_on_c, 0, 38, 77
2, 572400, Note_on_c, 0, 44, 83
2, 572430, Note_on_c, 0, 38, 0
2, 572482, Control_c, 0, 64, 127
2, 572516, Note_on_c, 0, 44, 0
2, 572518, Note_on_c, 0, 45, 61
2, 572598, Note_on_c, 0, 45, 0
2, 572634, Note_on_c, 0, 57, 82
2, 572642, Note_on_c, 0, 62, 88
2, 572644, Note_on_c, 0, 69, 0
2, 572652, Note_on_c, 0, 54, 88
2, 572680, Note_on_c, 0, 57, 0
2, 572690, Note_on_c, 0, 62, 0
2, 572702, Note_on_c, 0, 54, 0
2, 572756, Note_on_c, 0, 44, 70
2, 572864, Note_on_c, 0, 45, 80
2, 572896, Note_on_c, 0, 44, 0
2, 572910, Note_on_c, 0, 45, 0
2, 573020, Control_c, 0, 64, 0
2, 573056, Note_on_c, 0, 35, 77
2, 573059, Note_on_c, 0, 71, 91
2, 573150, Note_on_c, 0, 71, 0
2, 573208, Note_on_c, 0, 41, 60
2, 573210, Note_on_c, 0, 35, 0
2, 573236, Control_c, 0, 64, 127
2, 573274, Note_on_c, 0, 73, 71
2, 573312, Note_on_c, 0, 42, 72
2, 573315, Note_on_c, 0, 41, 0
2, 573322, Note_on_c, 0, 73, 0
2, 573374, Note_on_c, 0, 42, 0
2, 573478, Note_on_c, 0, 66, 51
2, 573480, Note_on_c, 0, 50, 62
2, 573482, Note_on_c, 0, 74, 82
2, 573560, Note_on_c, 0, 50, 0
2, 573576, Note_on_c, 0, 66, 0
2, 573618, Note_on_c, 0, 41, 55
2, 573634, Note_on_c, 0, 74, 0
2, 573680, Note_on_c, 0, 76, 84
2, 573726, Note_on_c, 0, 42, 67
2, 573736, Note_on_c, 0, 41, 0
2, 573739, Note_on_c, 0, 76, 0
2, 573782, Note_on_c, 0, 42, 0
2, 573880, Note_on_c, 0, 78, 95
2, 573880, Control_c, 0, 64, 0
2, 573900, Note_on_c, 0, 35, 87
2, 574002, Note_on_c, 0, 78, 0
2, 574028, Note_on_c, 0, 35, 0
2, 574028, Note_on_c, 0, 41, 69
2, 574066, Control_c, 0, 64, 127
2, 574102, Note_on_c, 0, 74, 93
2, 574136, Note_on_c, 0, 42, 72
2, 574142, Note_on_c, 0, 41, 0
2, 574170, Note_on_c, 0, 74, 0
2, 574200, Note_on_c, 0, 42, 0
2, 574292, Note_on_c, 0, 78, 111
2, 574312, Note_on_c, 0, 66, 71
2, 574322, Note_on_c, 0, 50, 77
2, 574386, Note_on_c, 0, 50, 0
2, 574386, Note_on_c, 0, 66, 0
2, 574442, Note_on_c, 0, 41, 76
2, 574546, Note_on_c, 0, 42, 78
2, 574558, Note_on_c, 0, 41, 0
2, 574592, Note_on_c, 0, 78, 0
2, 574664, Control_c, 0, 64, 0
2, 574668, Note_on_c, 0, 42, 0
2, 574686, Note_on_c, 0, 35, 88
2, 574706, Note_on_c, 0, 77, 98
2, 574810, Note_on_c, 0, 35, 0
2, 574830, Note_on_c, 0, 41, 56
2, 574833, Note_on_c, 0, 77, 0
2, 574864, Control_c, 0, 64, 127
2, 574908, Note_on_c, 0, 73, 77
2, 574956, Note_on_c, 0, 41, 0
2, 574956, Note_on_c, 0, 42, 70
2, 574960, Note_on_c, 0, 73, 0
2, 575012, Note_on_c, 0, 42, 0
2, 575104, Note_on_c, 0, 77, 116
2, 575118, Note_on_c, 0, 49, 62
2, 575124, Note_on_c, 0, 66, 63
2, 575228, Note_on_c, 0, 49, 0
2, 575234, Note_on_c, 0, 41, 67
2, 575264, Note_on_c, 0, 66, 0
2, 575350, Note_on_c, 0, 42, 79
2, 575376, Note_on_c, 0, 77, 0
2, 575386, Note_on_c, 0, 41, 0
2, 575488, Note_on_c, 0, 42, 0
2, 575494, Control_c, 0, 64, 0
2, 575504, Note_on_c, 0, 76, 87
2, 575508, Note_on_c, 0, 35, 90
2, 575630, Note_on_c, 0, 41, 72
2, 575638, Note_on_c, 0, 76, 0
2, 575650, Note_on_c, 0, 35, 0
2, 575678, Control_c, 0, 64, 127
2, 575689, Note_on_c, 0, 72, 88
2, 575736, Note_on_c, 0, 72, 0
2, 575740, Note_on_c, 0, 42, 72
2, 575748, Note_on_c, 0, 41, 0
2, 575870, Note_on_c, 0, 42, 0
2, 575892, Note_on_c, 0, 76, 116
2, 575898, Note_on_c, 0, 48, 70
2, 575900, Note_on_c, 0, 66, 83
2, 576012, Note_on_c, 0, 41, 85
2, 576054, Note_on_c, 0, 48, 0
2, 576078, Note_on_c, 0, 66, 0
2, 576130, Note_on_c, 0, 42, 83
2, 576164, Note_on_c, 0, 41, 0
2, 576180, Note_on_c, 0, 76, 0
2, 576274, Note_on_c, 0, 42, 0
2, 576282, Note_on_c, 0, 35, 106
2, 576294, Control_c, 0, 64, 0
2, 576300, Note_on_c, 0, 71, 114
2, 576406, Note_on_c, 0, 41, 80
2, 576434, Note_on_c, 0, 35, 0
2, 576466, Note_on_c, 0, 71, 0
2, 576492, Control_c, 0, 64, 127
2, 576506, Note_on_c, 0, 73, 88
2, 576516, Note_on_c, 0, 42, 92
2, 576534, Note_on_c, 0, 41, 0
2, 576548, Note_on_c, 0, 42, 0
2, 576724, Note_on_c, 0, 59, 116
2, 576727, Note_on_c, 0, 47, 109
2, 576736, Note_on_c, 0, 74, 116
2, 576782, Note_on_c, 0, 73, 0
2, 576934, Note_on_c, 0, 76, 102
2, 576974, Note_on_c, 0, 74, 0
2, 576982, Note_on_c, 0, 59, 0
2, 577020, Note_on_c, 0, 47, 0
2, 577082, Note_on_c, 0, 76, 0
2, 577132, Note_on_c, 0, 57, 121
2, 577135, Note_on_c, 0, 78, 100
2, 577140, Note_on_c, 0, 45, 100
2, 577148, Note_on_c, 0, 47, 77
2, 577184, Control_c, 0, 64, 0
2, 577288, Note_on_c, 0, 78, 0
2, 577340, Note_on_c, 0, 74, 103
2, 577354, Control_c, 0, 64, 127
2, 577396, Note_on_c, 0, 57, 0
2, 577402, Note_on_c, 0, 45, 0
2, 577420, Note_on_c, 0, 47, 0
2, 577448, Note_on_c, 0, 74, 0
2, 577522, Control_c, 0, 64, 0
2, 577528, Note_on_c, 0, 78, 110
2, 577536, Note_on_c, 0, 55, 125
2, 577544, Note_on_c, 0, 71, 95
2, 577546, Note_on_c, 0, 47, 92
2, 577552, Note_on_c, 0, 74, 48
2, 577554, Note_on_c, 0, 43, 99
2, 577606, Note_on_c, 0, 74, 0
2, 577690, Control_c, 0, 64, 127
2, 577704, Note_on_c, 0, 71, 0
2, 577720, Note_on_c, 0, 47, 0
2, 577722, Note_on_c, 0, 78, 0
2, 577728, Note_on_c, 0, 55, 0
2, 577736, Note_on_c, 0, 43, 0
2, 577746, Note_on_c, 0, 83, 127
2, 577882, Note_on_c, 0, 83, 0
2, 577906, Control_c, 0, 64, 0
2, 577938, Note_on_c, 0, 78, 114
2, 577938, Note_on_c, 0, 54, 126
2, 577956, Note_on_c, 0, 42, 105
2, 577960, Note_on_c, 0, 47, 97
2, 578074, Control_c, 0, 64, 127
2, 578096, Note_on_c, 0, 78, 0
2, 578099, Note_on_c, 0, 47, 0
2, 578140, Note_on_c, 0, 74, 114
2, 578180, Note_on_c, 0, 54, 0
2, 578242, Note_on_c, 0, 42, 0
2, 578298, Note_on_c, 0, 74, 0
2, 578322, Control_c, 0, 64, 0
2, 578334, Note_on_c, 0, 47, 109
2, 578336, Note_on_c, 0, 52, 127
2, 578336, Note_on_c, 0, 78, 115
2, 578342, Note_on_c, 0, 71, 107
2, 578346, Note_on_c, 0, 40, 121
2, 578490, Control_c, 0, 64, 127
2, 578506, Note_on_c, 0, 71, 0
2, 578518, Note_on_c, 0, 78, 0
2, 578518, Note_on_c, 0, 47, 0
2, 578518, Note_on_c, 0, 52, 0
2, 578538, Note_on_c, 0, 40, 0
2, 578538, Note_on_c, 0, 83, 127
2, 578706, Control_c, 0, 64, 0
2, 578740, Note_on_c, 0, 47, 106
2, 578740, Note_on_c, 0, 50, 127
2, 578743, Note_on_c, 0, 71, 127
2, 578754, Note_on_c, 0, 38, 123
2, 578874, Control_c, 0, 64, 127
2, 578908, Note_on_c, 0, 38, 0
2, 578930, Note_on_c, 0, 50, 0
2, 578972, Note_on_c, 0, 47, 0
2, 578978, Note_on_c, 0, 71, 0
2, 579062, Note_on_c, 0, 83, 0
2, 579148, Note_on_c, 0, 49, 125
2, 579150, Note_on_c, 0, 47, 48
2, 579151, Note_on_c, 0, 37, 120
2, 579206, Note_on_c, 0, 47, 0
2, 579240, Note_on_c, 0, 49, 0
2, 579254, Note_on_c, 0, 37, 0
2, 579536, Control_c, 0, 64, 0
2, 579552, Note_on_c, 0, 83, 127
2, 579556, Note_on_c, 0, 47, 127
2, 579568, Note_on_c, 0, 35, 127
2, 579640, Note_on_c, 0, 35, 0
2, 579658, Control_c, 0, 64, 127
2, 579700, Note_on_c, 0, 47, 0
2, 579752, Note_on_c, 0, 45, 109
2, 579754, Note_on_c, 0, 85, 122
2, 579810, Note_on_c, 0, 83, 0
2, 579886, Note_on_c, 0, 45, 0
2, 579900, Note_on_c, 0, 85, 0
2, 579930, Note_on_c, 0, 43, 102
2, 579938, Note_on_c, 0, 86, 117
2, 580040, Note_on_c, 0, 43, 0
2, 580062, Note_on_c, 0, 86, 0
2, 580106, Note_on_c, 0, 42, 93
2, 580114, Note_on_c, 0, 88, 116
2, 580204, Note_on_c, 0, 42, 0
2, 580238, Note_on_c, 0, 88, 0
2, 580304, Note_on_c, 0, 90, 122
2, 580307, Note_on_c, 0, 83, 127
2, 580318, Note_on_c, 0, 47, 126
2, 580318, Control_c, 0, 64, 0
2, 580321, Note_on_c, 0, 35, 127
2, 580350, Note_on_c, 0, 35, 0
2, 580426, Control_c, 0, 64, 127
2, 580464, Note_on_c, 0, 47, 0
2, 580482, Note_on_c, 0, 90, 0
2, 580500, Note_on_c, 0, 45, 107
2, 580503, Note_on_c, 0, 86, 113
2, 580616, Note_on_c, 0, 45, 0
2, 580658, Note_on_c, 0, 86, 0
2, 580690, Note_on_c, 0, 43, 97
2, 580693, Note_on_c, 0, 90, 114
2, 580856, Note_on_c, 0, 42, 95
2, 580858, Note_on_c, 0, 43, 0
2, 580882, Note_on_c, 0, 83, 0
2, 580896, Note_on_c, 0, 90, 0
2, 580962, Note_on_c, 0, 42, 0
2, 581026, Control_c, 0, 64, 0
2, 581056, Note_on_c, 0, 89, 127
2, 581056, Note_on_c, 0, 83, 127
2, 581059, Note_on_c, 0, 47, 126
2, 581066, Note_on_c, 0, 35, 125
2, 581094, Note_on_c, 0, 35, 0
2, 581180, Control_c, 0, 64, 127
2, 581190, Note_on_c, 0, 47, 0
2, 581210, Note_on_c, 0, 89, 0
2, 581236, Note_on_c, 0, 45, 92
2, 581240, Note_on_c, 0, 85, 110
2, 581366, Note_on_c, 0, 45, 0
2, 581378, Note_on_c, 0, 85, 0
2, 581438, Note_on_c, 0, 43, 101
2, 581444, Note_on_c, 0, 89, 110
2, 581586, Note_on_c, 0, 43, 0
2, 581592, Note_on_c, 0, 89, 0
2, 581614, Note_on_c, 0, 42, 92
2, 581710, Note_on_c, 0, 42, 0
2, 581713, Note_on_c, 0, 83, 0
2, 581776, Control_c, 0, 64, 0
2, 581796, Note_on_c, 0, 88, 127
2, 581798, Note_on_c, 0, 83, 127
2, 581802, Note_on_c, 0, 47, 114
2, 581806, Note_on_c, 0, 35, 122
2, 581838, Note_on_c, 0, 35, 0
2, 581916, Control_c, 0, 64, 127
2, 581924, Note_on_c, 0, 47, 0
2, 581950, Note_on_c, 0, 88, 0
2, 581976, Note_on_c, 0, 45, 93
2, 581979, Note_on_c, 0, 84, 118
2, 582090, Note_on_c, 0, 45, 0
2, 582104, Note_on_c, 0, 84, 0
2, 582170, Note_on_c, 0, 88, 116
2, 582170, Note_on_c, 0, 43, 95
2, 582304, Note_on_c, 0, 83, 0
2, 582320, Note_on_c, 0, 43, 0
2, 582328, Note_on_c, 0, 42, 90
2, 582358, Note_on_c, 0, 88, 0
2, 582428, Note_on_c, 0, 42, 0
2, 582454, Control_c, 0, 64, 0
2, 582516, Note_on_c, 0, 83, 127
2, 582522, Note_on_c, 0, 47, 121
2, 582528, Note_on_c, 0, 35, 120
2, 582558, Note_on_c, 0, 35, 0
2, 582624, Control_c, 0, 64, 127
2, 582672, Note_on_c, 0, 47, 0
2, 582692, Note_on_c, 0, 45, 90
2, 582702, Note_on_c, 0, 85, 114
2, 582780, Note_on_c, 0, 83, 0
2, 582816, Note_on_c, 0, 45, 0
2, 582842, Note_on_c, 0, 85, 0
2, 582874, Note_on_c, 0, 86, 110
2, 582879, Note_on_c, 0, 43, 86
2, 583008, Note_on_c, 0, 43, 0
2, 583008, Note_on_c, 0, 86, 0
2, 583034, Note_on_c, 0, 88, 107
2, 583042, Note_on_c, 0, 42, 88
2, 583128, Note_on_c, 0, 88, 0
2, 583134, Note_on_c, 0, 42, 0
2, 583176, Control_c, 0, 64, 0
2, 583202, Note_on_c, 0, 90, 116
2, 583216, Note_on_c, 0, 83, 127
2, 583219, Note_on_c, 0, 47, 117
2, 583226, Note_on_c, 0, 35, 115
2, 583258, Note_on_c, 0, 35, 0
2, 583314, Control_c, 0, 64, 127
2, 583316, Note_on_c, 0, 47, 0
2, 583330, Note_on_c, 0, 90, 0
2, 583378, Note_on_c, 0, 45, 101
2, 583390, Note_on_c, 0, 86, 113
2, 583494, Note_on_c, 0, 86, 0
2, 583500, Note_on_c, 0, 45, 0
2, 583546, Note_on_c, 0, 90, 105
2, 583552, Note_on_c, 0, 43, 76
2, 583642, Note_on_c, 0, 90, 0
2, 583682, Note_on_c, 0, 43, 0
2, 583690, Note_on_c, 0, 42, 84
2, 583706, Note_on_c, 0, 95, 121
2, 583756, Note_on_c, 0, 95, 0
2, 583780, Note_on_c, 0, 83, 0
2, 583806, Control_c, 0, 64, 0
2, 583816, Note_on_c, 0, 42, 0
2, 583872, Note_on_c, 0, 93, 127
2, 583874, Note_on_c, 0, 81, 127
2, 583877, Note_on_c, 0, 50, 127
2, 583880, Note_on_c, 0, 38, 121
2, 583880, Note_on_c, 0, 86, 118
2, 583916, Note_on_c, 0, 38, 0
2, 583960, Control_c, 0, 64, 127
2, 583996, Note_on_c, 0, 86, 0
2, 584012, Note_on_c, 0, 50, 0
2, 584044, Note_on_c, 0, 49, 98
2, 584046, Note_on_c, 0, 90, 103
2, 584102, Note_on_c, 0, 93, 0
2, 584140, Note_on_c, 0, 81, 0
2, 584178, Note_on_c, 0, 49, 0
2, 584194, Note_on_c, 0, 90, 0
2, 584214, Note_on_c, 0, 86, 109
2, 584218, Note_on_c, 0, 47, 97
2, 584334, Note_on_c, 0, 47, 0
2, 584334, Note_on_c, 0, 86, 0
2, 584368, Note_on_c, 0, 90, 114
2, 584380, Note_on_c, 0, 45, 80
2, 584464, Note_on_c, 0, 45, 0
2, 584482, Control_c, 0, 64, 0
2, 584494, Note_on_c, 0, 90, 0
2, 584538, Note_on_c, 0, 93, 127
2, 584538, Note_on_c, 0, 81, 110
2, 584541, Note_on_c, 0, 50, 127
2, 584544, Note_on_c, 0, 38, 116
2, 584546, Note_on_c, 0, 86, 102
2, 584572, Note_on_c, 0, 38, 0
2, 584620, Control_c, 0, 64, 127
2, 584622, Note_on_c, 0, 50, 0
2, 584708, Note_on_c, 0, 49, 110
2, 584830, Note_on_c, 0, 49, 0
2, 584838, Note_on_c, 0, 86, 0
2, 584874, Note_on_c, 0, 47, 101
2, 584890, Note_on_c, 0, 93, 0
2, 584978, Note_on_c, 0, 47, 0
2, 585030, Note_on_c, 0, 45, 101
2, 585076, Note_on_c, 0, 81, 0
2, 585086, Note_on_c, 0, 45, 0
2, 585128, Control_c, 0, 64, 0
2, 585204, Note_on_c, 0, 83, 127
2, 585214, Note_on_c, 0, 47, 125
2, 585218, Note_on_c, 0, 35, 127
2, 585244, Note_on_c, 0, 35, 0
2, 585296, Control_c, 0, 64, 127
2, 585314, Note_on_c, 0, 47, 0
2, 585370, Note_on_c, 0, 45, 97
2, 585373, Note_on_c, 0, 85, 102
2, 585482, Note_on_c, 0, 45, 0
2, 585514, Note_on_c, 0, 85, 0
2, 585532, Note_on_c, 0, 86, 95
2, 585534, Note_on_c, 0, 43, 92
2, 585552, Note_on_c, 0, 83, 0
2, 585638, Note_on_c, 0, 43, 0
2, 585686, Note_on_c, 0, 86, 0
2, 585686, Note_on_c, 0, 42, 91
2, 585688, Note_on_c, 0, 88, 107
2, 585762, Note_on_c, 0, 42, 0
2, 585782, Note_on_c, 0, 88, 0
2, 585788, Control_c, 0, 64, 0
2, 585846, Note_on_c, 0, 90, 116
2, 585852, Note_on_c, 0, 83, 127
2, 585852, Note_on_c, 0, 47, 124
2, 585858, Note_on_c, 0, 35, 126
2, 585884, Note_on_c, 0, 35, 0
2, 585954, Note_on_c, 0, 47, 0
2, 585957, Control_c, 0, 64, 127
2, 585982, Note_on_c, 0, 90, 0
2, 585994, Note_on_c, 0, 45, 97
2, 586006, Note_on_c, 0, 86, 107
2, 586104, Note_on_c, 0, 45, 0
2, 586126, Note_on_c, 0, 86, 0
2, 586174, Note_on_c, 0, 43, 85
2, 586182, Note_on_c, 0, 90, 110
2, 586270, Note_on_c, 0, 83, 0
2, 586312, Note_on_c, 0, 42, 91
2, 586320, Note_on_c, 0, 90, 0
2, 586330, Note_on_c, 0, 43, 0
2, 586398, Note_on_c, 0, 42, 0
2, 586418, Control_c, 0, 64, 0
2, 586474, Note_on_c, 0, 89, 127
2, 586476, Note_on_c, 0, 83, 127
2, 586486, Note_on_c, 0, 35, 127
2, 586486, Note_on_c, 0, 47, 124
2, 586520, Note_on_c, 0, 35, 0
2, 586548, Note_on_c, 0, 45, 15
2, 586572, Note_on_c, 0, 89, 0
2, 586572, Control_c, 0, 64, 127
2, 586594, Note_on_c, 0, 45, 0
2, 586608, Note_on_c, 0, 47, 0
2, 586634, Note_on_c, 0, 85, 98
2, 586634, Note_on_c, 0, 45, 83
2, 586752, Note_on_c, 0, 45, 0
2, 586770, Note_on_c, 0, 85, 0
2, 586784, Note_on_c, 0, 43, 88
2, 586804, Note_on_c, 0, 89, 106
2, 586914, Note_on_c, 0, 83, 0
2, 586920, Note_on_c, 0, 42, 91
2, 586938, Note_on_c, 0, 43, 0
2, 586944, Note_on_c, 0, 89, 0
2, 586986, Note_on_c, 0, 42, 0
2, 587048, Control_c, 0, 64, 0
2, 587104, Note_on_c, 0, 88, 123
2, 587108, Note_on_c, 0, 83, 127
2, 587118, Note_on_c, 0, 47, 126
2, 587120, Note_on_c, 0, 35, 126
2, 587154, Note_on_c, 0, 35, 0
2, 587232, Control_c, 0, 64, 127
2, 587252, Note_on_c, 0, 47, 0
2, 587268, Note_on_c, 0, 84, 114
2, 587268, Note_on_c, 0, 45, 98
2, 587290, Note_on_c, 0, 88, 0
2, 587406, Note_on_c, 0, 84, 0
2, 587416, Note_on_c, 0, 45, 0
2, 587418, Note_on_c, 0, 43, 91
2, 587424, Note_on_c, 0, 88, 107
2, 587536, Note_on_c, 0, 83, 0
2, 587568, Note_on_c, 0, 42, 92
2, 587588, Note_on_c, 0, 88, 0
2, 587591, Note_on_c, 0, 43, 0
2, 587648, Control_c, 0, 64, 0
2, 587670, Note_on_c, 0, 42, 0
2, 587728, Note_on_c, 0, 83, 127
2, 587742, Note_on_c, 0, 47, 126
2, 587745, Note_on_c, 0, 35, 126
2, 587774, Note_on_c, 0, 35, 0
2, 587816, Control_c, 0, 64, 127
2, 587862, Note_on_c, 0, 47, 0
2, 587880, Note_on_c, 0, 85, 110
2, 587886, Note_on_c, 0, 45, 99
2, 588012, Note_on_c, 0, 85, 0
2, 588024, Note_on_c, 0, 83, 0
2, 588026, Note_on_c, 0, 45, 0
2, 588026, Note_on_c, 0, 43, 99
2, 588028, Note_on_c, 0, 86, 108
2, 588140, Note_on_c, 0, 86, 0
2, 588166, Note_on_c, 0, 88, 109
2, 588169, Note_on_c, 0, 42, 100
2, 588186, Note_on_c, 0, 43, 0
2, 588256, Note_on_c, 0, 88, 0
2, 588262, Control_c, 0, 64, 0
2, 588272, Note_on_c, 0, 42, 0
2, 588316, Note_on_c, 0, 90, 121
2, 588318, Note_on_c, 0, 83, 127
2, 588328, Note_on_c, 0, 47, 117
2, 588330, Note_on_c, 0, 35, 120
2, 588356, Note_on_c, 0, 35, 0
2, 588416, Control_c, 0, 64, 127
2, 588426, Note_on_c, 0, 90, 0
2, 588446, Note_on_c, 0, 47, 0
2, 588476, Note_on_c, 0, 45, 92
2, 588482, Note_on_c, 0, 86, 102
2, 588578, Note_on_c, 0, 86, 0
2, 588608, Note_on_c, 0, 45, 0
2, 588608, Note_on_c, 0, 44, 71
2, 588630, Note_on_c, 0, 90, 99
2, 588644, Note_on_c, 0, 43, 77
2, 588674, Note_on_c, 0, 44, 0
2, 588696, Note_on_c, 0, 90, 0
2, 588718, Note_on_c, 0, 43, 0
2, 588722, Note_on_c, 0, 42, 84
2, 588748, Note_on_c, 0, 83, 0
2, 588768, Note_on_c, 0, 95, 97
2, 588806, Note_on_c, 0, 95, 0
2, 588834, Note_on_c, 0, 42, 0
2, 588846, Control_c, 0, 64, 0
2, 588904, Note_on_c, 0, 93, 123
2, 588904, Note_on_c, 0, 50, 127
2, 588904, Note_on_c, 0, 81, 127
2, 588910, Note_on_c, 0, 38, 116
2, 588912, Note_on_c, 0, 86, 116
2, 588940, Note_on_c, 0, 38, 0
2, 589000, Control_c, 0, 64, 127
2, 589044, Note_on_c, 0, 86, 0
2, 589046, Note_on_c, 0, 90, 99
2, 589054, Note_on_c, 0, 49, 99
2, 589058, Note_on_c, 0, 50, 0
2, 589100, Note_on_c, 0, 93, 0
2, 589184, Note_on_c, 0, 49, 0
2, 589196, Note_on_c, 0, 86, 101
2, 589202, Note_on_c, 0, 47, 97
2, 589220, Note_on_c, 0, 81, 0
2, 589222, Note_on_c, 0, 90, 0
2, 589318, Note_on_c, 0, 47, 0
2, 589330, Note_on_c, 0, 45, 90
2, 589333, Note_on_c, 0, 86, 0
2, 589333, Note_on_c, 0, 90, 109
2, 589400, Control_c, 0, 64, 0
2, 589402, Note_on_c, 0, 45, 0
2, 589434, Note_on_c, 0, 90, 0
2, 589486, Note_on_c, 0, 93, 127
2, 589488, Note_on_c, 0, 81, 117
2, 589488, Note_on_c, 0, 86, 116
2, 589492, Note_on_c, 0, 50, 127
2, 589494, Note_on_c, 0, 38, 116
2, 589522, Note_on_c, 0, 38, 0
2, 589568, Control_c, 0, 64, 127
2, 589606, Note_on_c, 0, 50, 0
2, 589648, Note_on_c, 0, 49, 108
2, 589710, Note_on_c, 0, 81, 0
2, 589766, Note_on_c, 0, 86, 0
2, 589786, Note_on_c, 0, 47, 87
2, 589794, Note_on_c, 0, 49, 0
2, 589820, Note_on_c, 0, 93, 0
2, 589900, Note_on_c, 0, 45, 102
2, 589926, Note_on_c, 0, 47, 0
2, 590006, Note_on_c, 0, 45, 0
2, 590014, Control_c, 0, 64, 0
2, 590092, Note_on_c, 0, 90, 124
2, 590092, Note_on_c, 0, 54, 127
2, 590100, Note_on_c, 0, 42, 98
2, 590138, Note_on_c, 0, 42, 0
2, 590168, Control_c, 0, 64, 127
2, 590236, Note_on_c, 0, 54, 0
2, 590244, Note_on_c, 0, 92, 103
2, 590252, Note_on_c, 0, 52, 113
2, 590348, Note_on_c, 0, 90, 0
2, 590398, Note_on_c, 0, 50, 102
2, 590401, Note_on_c, 0, 94, 99
2, 590418, Note_on_c, 0, 52, 0
2, 590440, Note_on_c, 0, 92, 0
2, 590526, Note_on_c, 0, 49, 99
2, 590532, Note_on_c, 0, 95, 113
2, 590550, Note_on_c, 0, 50, 0
2, 590594, Note_on_c, 0, 94, 0
2, 590618, Note_on_c, 0, 95, 0
2, 590624, Note_on_c, 0, 49, 0
2, 590660, Control_c, 0, 64, 0
2, 590692, Note_on_c, 0, 85, 118
2, 590694, Note_on_c, 0, 97, 122
2, 590697, Note_on_c, 0, 54, 127
2, 590697, Note_on_c, 0, 42, 113
2, 590702, Note_on_c, 0, 90, 105
2, 590742, Note_on_c, 0, 42, 0
2, 590812, Control_c, 0, 64, 127
2, 590814, Note_on_c, 0, 54, 0
2, 590856, Note_on_c, 0, 94, 101
2, 590872, Note_on_c, 0, 52, 108
2, 590890, Note_on_c, 0, 85, 0
2, 590900, Note_on_c, 0, 90, 0
2, 590906, Note_on_c, 0, 97, 0
2, 590990, Note_on_c, 0, 52, 0
2, 591006, Note_on_c, 0, 50, 98
2, 591012, Note_on_c, 0, 97, 105
2, 591018, Note_on_c, 0, 85, 108
2, 591020, Note_on_c, 0, 90, 91
2, 591030, Note_on_c, 0, 94, 0
2, 591122, Note_on_c, 0, 49, 95
2, 591152, Note_on_c, 0, 50, 0
2, 591178, Note_on_c, 0, 85, 0
2, 591186, Note_on_c, 0, 90, 0
2, 591202, Note_on_c, 0, 49, 0
2, 591228, Note_on_c, 0, 97, 0
2, 591258, Control_c, 0, 64, 0
2, 591314, Note_on_c, 0, 50, 127
2, 591314, Note_on_c, 0, 90, 100
2, 591314, Note_on_c, 0, 98, 127
2, 591317, Note_on_c, 0, 86, 114
2, 591324, Note_on_c, 0, 38, 115
2, 591350, Note_on_c, 0, 38, 0
2, 591428, Control_c, 0, 64, 127
2, 591440, Note_on_c, 0, 50, 0
2, 591464, Note_on_c, 0, 49, 75
2, 591470, Note_on_c, 0, 94, 95
2, 591512, Note_on_c, 0, 98, 0
2, 591518, Note_on_c, 0, 49, 0
2, 591522, Note_on_c, 0, 86, 0
2, 591528, Note_on_c, 0, 90, 0
2, 591598, Note_on_c, 0, 50, 116
2, 591601, Note_on_c, 0, 86, 88
2, 591610, Note_on_c, 0, 98, 109
2, 591614, Note_on_c, 0, 90, 68
2, 591656, Note_on_c, 0, 94, 0
2, 591680, Note_on_c, 0, 50, 0
2, 591710, Note_on_c, 0, 98, 0
2, 591726, Note_on_c, 0, 52, 117
2, 591748, Note_on_c, 0, 86, 0
2, 591758, Note_on_c, 0, 90, 0
2, 591793, Note_on_c, 0, 52, 0
2, 591858, Control_c, 0, 64, 0
2, 591900, Note_on_c, 0, 97, 113
2, 591900, Note_on_c, 0, 85, 114
2, 591903, Note_on_c, 0, 54, 127
2, 591906, Note_on_c, 0, 90, 91
2, 591914, Note_on_c, 0, 42, 103
2, 591948, Note_on_c, 0, 42, 0
2, 592018, Note_on_c, 0, 54, 0
2, 592026, Control_c, 0, 64, 127
2, 592040, Note_on_c, 0, 52, 121
2, 592054, Note_on_c, 0, 94, 92
2, 592094, Note_on_c, 0, 97, 0
2, 592102, Note_on_c, 0, 85, 0
2, 592106, Note_on_c, 0, 90, 0
2, 592142, Note_on_c, 0, 52, 0
2, 592200, Note_on_c, 0, 85, 91
2, 592202, Note_on_c, 0, 50, 107
2, 592210, Note_on_c, 0, 90, 70
2, 592210, Note_on_c, 0, 97, 95
2, 592248, Note_on_c, 0, 94, 0
2, 592312, Note_on_c, 0, 90, 0
2, 592312, Note_on_c, 0, 85, 0
2, 592328, Note_on_c, 0, 49, 101
2, 592336, Note_on_c, 0, 50, 0
2, 592418, Note_on_c, 0, 49, 0
2, 592434, Note_on_c, 0, 97, 0
2, 592456, Control_c, 0, 64, 0
2, 592508, Note_on_c, 0, 42, 107
2, 592508, Note_on_c, 0, 54, 127
2, 592508, Note_on_c, 0, 90, 125
2, 592550, Note_on_c, 0, 42, 0
2, 592586, Note_on_c, 0, 90, 0
2, 592594, Control_c, 0, 64, 127
2, 592623, Note_on_c, 0, 54, 0
2, 592654, Note_on_c, 0, 92, 102
2, 592654, Note_on_c, 0, 90, 75
2, 592656, Note_on_c, 0, 52, 109
2, 592706, Note_on_c, 0, 92, 0
2, 592730, Note_on_c, 0, 90, 0
2, 592764, Note_on_c, 0, 52, 0
2, 592796, Note_on_c, 0, 50, 110
2, 592799, Note_on_c, 0, 94, 105
2, 592799, Note_on_c, 0, 90, 97
2, 592892, Note_on_c, 0, 90, 0
2, 592895, Note_on_c, 0, 94, 0
2, 592914, Note_on_c, 0, 50, 0
2, 592926, Note_on_c, 0, 49, 98
2, 592936, Note_on_c, 0, 90, 79
2, 592936, Note_on_c, 0, 95, 110
2, 592984, Note_on_c, 0, 95, 0
2, 592987, Note_on_c, 0, 90, 0
2, 593022, Note_on_c, 0, 49, 0
2, 593056, Control_c, 0, 64, 0
2, 593092, Note_on_c, 0, 85, 124
2, 593094, Note_on_c, 0, 54, 127
2, 593098, Note_on_c, 0, 97, 116
2, 593100, Note_on_c, 0, 42, 115
2, 593104, Note_on_c, 0, 90, 103
2, 593142, Note_on_c, 0, 42, 0
2, 593146, Note_on_c, 0, 90, 0
2, 593190, Note_on_c, 0, 97, 0
2, 593194, Control_c, 0, 64, 127
2, 593206, Note_on_c, 0, 54, 0
2, 593248, Note_on_c, 0, 52, 122
2, 593248, Note_on_c, 0, 94, 95
2, 593264, Note_on_c, 0, 85, 0
2, 593354, Note_on_c, 0, 52, 0
2, 593364, Note_on_c, 0, 94, 0
2, 593386, Note_on_c, 0, 50, 107
2, 593389, Note_on_c, 0, 97, 114
2, 593389, Note_on_c, 0, 85, 113
2, 593393, Note_on_c, 0, 90, 98
2, 593454, Note_on_c, 0, 90, 0
2, 593486, Note_on_c, 0, 97, 0
2, 593506, Note_on_c, 0, 49, 106
2, 593520, Note_on_c, 0, 85, 0
2, 593542, Note_on_c, 0, 50, 0
2, 593596, Note_on_c, 0, 49, 0
2, 593656, Control_c, 0, 64, 0
2, 593680, Note_on_c, 0, 50, 127
2, 593684, Note_on_c, 0, 38, 126
2, 593686, Note_on_c, 0, 90, 110
2, 593688, Note_on_c, 0, 86, 113
2, 593688, Note_on_c, 0, 98, 127
2, 593714, Note_on_c, 0, 38, 0
2, 593780, Note_on_c, 0, 90, 0
2, 593788, Note_on_c, 0, 50, 0
2, 593792, Control_c, 0, 64, 127
2, 593794, Note_on_c, 0, 98, 0
2, 593806, Note_on_c, 0, 86, 0
2, 593828, Note_on_c, 0, 49, 114
2, 593828, Note_on_c, 0, 94, 105
2, 593928, Note_on_c, 0, 94, 0
2, 593948, Note_on_c, 0, 49, 0
2, 593968, Note_on_c, 0, 50, 121
2, 593972, Note_on_c, 0, 90, 106
2, 593976, Note_on_c, 0, 98, 123
2, 593980, Note_on_c, 0, 86, 85
2, 594054, Note_on_c, 0, 50, 0
2, 594070, Note_on_c, 0, 98, 0
2, 594078, Note_on_c, 0, 90, 0
2, 594102, Note_on_c, 0, 52, 126
2, 594108, Note_on_c, 0, 86, 0
2, 594160, Note_on_c, 0, 52, 0
2, 594224, Control_c, 0, 64, 0
2, 594270, Note_on_c, 0, 97, 120
2, 594270, Note_on_c, 0, 54, 127
2, 594270, Note_on_c, 0, 85, 120
2, 594270, Note_on_c, 0, 90, 106
2, 594280, Note_on_c, 0, 42, 114
2, 594314, Note_on_c, 0, 42, 0
2, 594378, Control_c, 0, 64, 127
2, 594384, Note_on_c, 0, 54, 0
2, 594418, Note_on_c, 0, 52, 121
2, 594496, Note_on_c, 0, 85, 0
2, 594560, Note_on_c, 0, 50, 111
2, 594568, Note_on_c, 0, 90, 0
2, 594586, Note_on_c, 0, 52, 0
2, 594672, Note_on_c, 0, 49, 108
2, 594698, Note_on_c, 0, 50, 0
2, 594754, Note_on_c, 0, 49, 0
2, 594764, Note_on_c, 0, 97, 0
2, 594776, Control_c, 0, 64, 0
2, 594834, Note_on_c, 0, 90, 125
2, 594842, Note_on_c, 0, 54, 127
2, 594842, Note_on_c, 0, 42, 108
2, 594856, Note_on_c, 0, 97, 64
2, 594880, Note_on_c, 0, 42, 0
2, 594898, Note_on_c, 0, 97, 0
2, 594930, Control_c, 0, 64, 127
2, 594956, Note_on_c, 0, 54, 0
2, 594972, Note_on_c, 0, 92, 109
2, 594978, Note_on_c, 0, 53, 127
2, 595012, Note_on_c, 0, 90, 0
2, 595092, Note_on_c, 0, 53, 0
2, 595116, Note_on_c, 0, 94, 97
2, 595122, Note_on_c, 0, 51, 111
2, 595136, Note_on_c, 0, 92, 0
2, 595242, Note_on_c, 0, 95, 109
2, 595242, Note_on_c, 0, 49, 110
2, 595276, Note_on_c, 0, 51, 0
2, 595304, Note_on_c, 0, 94, 0
2, 595320, Note_on_c, 0, 49, 0
2, 595330, Note_on_c, 0, 95, 0
2, 595390, Note_on_c, 0, 54, 127
2, 595392, Note_on_c, 0, 85, 120
2, 595394, Note_on_c, 0, 97, 120
2, 595396, Note_on_c, 0, 90, 106
2, 595398, Note_on_c, 0, 42, 114
2, 595436, Note_on_c, 0, 42, 0
2, 595510, Note_on_c, 0, 54, 0
2, 595540, Note_on_c, 0, 53, 127
2, 595540, Note_on_c, 0, 94, 101
2, 595546, Note_on_c, 0, 85, 0
2, 595562, Note_on_c, 0, 90, 0
2, 595584, Note_on_c, 0, 97, 0
2, 595682, Note_on_c, 0, 94, 0
2, 595682, Note_on_c, 0, 51, 113
2, 595692, Note_on_c, 0, 53, 0
2, 595696, Note_on_c, 0, 85, 110
2, 595696, Note_on_c, 0, 97, 113
2, 595699, Note_on_c, 0, 90, 98
2, 595814, Note_on_c, 0, 85, 0
2, 595814, Note_on_c, 0, 49, 108
2, 595828, Note_on_c, 0, 90, 0
2, 595856, Note_on_c, 0, 51, 0
2, 595860, Note_on_c, 0, 97, 0
2, 595900, Note_on_c, 0, 49, 0
2, 595976, Control_c, 0, 64, 0
2, 596012, Note_on_c, 0, 51, 127
2, 596018, Note_on_c, 0, 99, 121
2, 596018, Note_on_c, 0, 87, 107
2, 596018, Note_on_c, 0, 39, 116
2, 596021, Note_on_c, 0, 90, 101
2, 596054, Note_on_c, 0, 39, 0
2, 596114, Control_c, 0, 64, 127
2, 596134, Note_on_c, 0, 51, 0
2, 596162, Note_on_c, 0, 49, 102
2, 596168, Note_on_c, 0, 94, 92
2, 596190, Note_on_c, 0, 87, 0
2, 596194, Note_on_c, 0, 99, 0
2, 596202, Note_on_c, 0, 90, 0
2, 596316, Note_on_c, 0, 87, 102
2, 596318, Note_on_c, 0, 99, 114
2, 596321, Note_on_c, 0, 51, 113
2, 596321, Note_on_c, 0, 90, 92
2, 596372, Note_on_c, 0, 94, 0
2, 596374, Note_on_c, 0, 49, 0
2, 596444, Note_on_c, 0, 51, 0
2, 596452, Note_on_c, 0, 53, 127
2, 596458, Note_on_c, 0, 99, 0
2, 596472, Note_on_c, 0, 87, 0
2, 596510, Note_on_c, 0, 53, 0
2, 596516, Note_on_c, 0, 90, 0
2, 596544, Control_c, 0, 64, 0
2, 596592, Note_on_c, 0, 90, 88
2, 596592, Note_on_c, 0, 97, 117
2, 596592, Note_on_c, 0, 85, 118
2, 596598, Note_on_c, 0, 54, 127
2, 596608, Note_on_c, 0, 42, 105
2, 596644, Note_on_c, 0, 42, 0
2, 596696, Control_c, 0, 64, 127
2, 596718, Note_on_c, 0, 54, 0
2, 596736, Note_on_c, 0, 53, 123
2, 596742, Note_on_c, 0, 94, 100
2, 596764, Note_on_c, 0, 85, 0
2, 596776, Note_on_c, 0, 90, 0
2, 596778, Note_on_c, 0, 97, 0
2, 596872, Note_on_c, 0, 51, 109
2, 596888, Note_on_c, 0, 97, 102
2, 596888, Note_on_c, 0, 85, 110
2, 596898, Note_on_c, 0, 94, 0
2, 596898, Note_on_c, 0, 90, 93
2, 596902, Note_on_c, 0, 53, 0
2, 597004, Note_on_c, 0, 49, 103
2, 597012, Note_on_c, 0, 85, 0
2, 597036, Note_on_c, 0, 51, 0
2, 597044, Note_on_c, 0, 90, 0
2, 597098, Note_on_c, 0, 49, 0
2, 597128, Control_c, 0, 64, 0
2, 597164, Note_on_c, 0, 97, 0
2, 597172, Note_on_c, 0, 54, 127
2, 597175, Note_on_c, 0, 90, 123
2, 597178, Note_on_c, 0, 42, 116
2, 597222, Note_on_c, 0, 42, 0
2, 597282, Note_on_c, 0, 54, 0
2, 597282, Control_c, 0, 64, 127
2, 597300, Note_on_c, 0, 90, 0
2, 597316, Note_on_c, 0, 53, 127
2, 597319, Note_on_c, 0, 92, 111
2, 597436, Note_on_c, 0, 53, 0
2, 597452, Note_on_c, 0, 92, 0
2, 597452, Note_on_c, 0, 51, 108
2, 597458, Note_on_c, 0, 94, 99
2, 597460, Note_on_c, 0, 90, 100
2, 597552, Note_on_c, 0, 90, 0
2, 597580, Note_on_c, 0, 94, 0
2, 597584, Note_on_c, 0, 95, 111
2, 597588, Note_on_c, 0, 51, 0
2, 597588, Note_on_c, 0, 49, 106
2, 597596, Note_on_c, 0, 90, 88
2, 597646, Note_on_c, 0, 95, 0
2, 597650, Note_on_c, 0, 90, 0
2, 597688, Note_on_c, 0, 49, 0
2, 597726, Control_c, 0, 64, 0
2, 597736, Note_on_c, 0, 85, 116
2, 597741, Note_on_c, 0, 54, 123
2, 597741, Note_on_c, 0, 97, 116
2, 597744, Note_on_c, 0, 42, 103
2, 597746, Note_on_c, 0, 90, 90
2, 597752, Note_on_c, 0, 87, 75
2, 597788, Control_c, 0, 64, 127
2, 597790, Note_on_c, 0, 42, 0
2, 597794, Note_on_c, 0, 87, 0
2, 597808, Note_on_c, 0, 90, 0
2, 597848, Note_on_c, 0, 97, 0
2, 597866, Note_on_c, 0, 54, 0
2, 597880, Note_on_c, 0, 53, 123
2, 597883, Note_on_c, 0, 94, 97
2, 597914, Note_on_c, 0, 85, 0
2, 597998, Note_on_c, 0, 51, 105
2, 598001, Note_on_c, 0, 53, 0
2, 598016, Note_on_c, 0, 94, 0
2, 598024, Note_on_c, 0, 90, 97
2, 598027, Note_on_c, 0, 97, 105
2, 598027, Note_on_c, 0, 85, 88
2, 598120, Note_on_c, 0, 49, 108
2, 598156, Note_on_c, 0, 51, 0
2, 598192, Note_on_c, 0, 85, 0
2, 598202, Note_on_c, 0, 49, 0
2, 598214, Note_on_c, 0, 90, 0
2, 598220, Note_on_c, 0, 97, 0
2, 598248, Control_c, 0, 64, 0
2, 598292, Note_on_c, 0, 51, 116
2, 598298, Note_on_c, 0, 87, 114
2, 598301, Note_on_c, 0, 99, 122
2, 598304, Note_on_c, 0, 90, 84
2, 598310, Note_on_c, 0, 39, 63
2, 598356, Note_on_c, 0, 39, 0
2, 598404, Control_c, 0, 64, 127
2, 598406, Note_on_c, 0, 51, 0
2, 598448, Note_on_c, 0, 94, 92
2, 598456, Note_on_c, 0, 90, 0
2, 598468, Note_on_c, 0, 87, 0
2, 598480, Note_on_c, 0, 99, 0
2, 598480, Note_on_c, 0, 49, 108
2, 598562, Note_on_c, 0, 49, 0
2, 598584, Note_on_c, 0, 87, 100
2, 598586, Note_on_c, 0, 99, 101
2, 598588, Note_on_c, 0, 90, 94
2, 598629, Note_on_c, 0, 51, 103
2, 598630, Note_on_c, 0, 94, 0
2, 598695, Note_on_c, 0, 51, 0
2, 598740, Note_on_c, 0, 99, 0
2, 598742, Note_on_c, 0, 53, 110
2, 598762, Note_on_c, 0, 87, 0
2, 598770, Note_on_c, 0, 90, 0
2, 598818, Control_c, 0, 64, 0
2, 598862, Note_on_c, 0, 85, 118
2, 598866, Note_on_c, 0, 97, 111
2, 598866, Note_on_c, 0, 90, 78
2, 598876, Note_on_c, 0, 54, 127
2, 598880, Note_on_c, 0, 53, 0
2, 598888, Note_on_c, 0, 42, 98
2, 598928, Note_on_c, 0, 42, 0
2, 599002, Control_c, 0, 64, 127
2, 599018, Note_on_c, 0, 53, 127
2, 599030, Note_on_c, 0, 54, 0
2, 599106, Note_on_c, 0, 97, 0
2, 599134, Note_on_c, 0, 90, 0
2, 599182, Note_on_c, 0, 53, 0
2, 599186, Note_on_c, 0, 51, 85
2, 599216, Note_on_c, 0, 85, 0
2, 599306, Note_on_c, 0, 51, 0
2, 599313, Note_on_c, 0, 49, 92
2, 599349, Note_on_c, 0, 49, 0
2, 599572, Control_c, 0, 64, 0
2, 599575, Note_on_c, 0, 83, 127
2, 599580, Note_on_c, 0, 47, 127
2, 599596, Note_on_c, 0, 35, 123
2, 599688, Note_on_c, 0, 35, 0
2, 599732, Note_on_c, 0, 47, 0
2, 599740, Control_c, 0, 64, 127
2, 599754, Note_on_c, 0, 45, 110
2, 599756, Note_on_c, 0, 85, 114
2, 599830, Note_on_c, 0, 83, 0
2, 599892, Note_on_c, 0, 86, 107
2, 599904, Note_on_c, 0, 43, 105
2, 599906, Note_on_c, 0, 85, 0
2, 599912, Note_on_c, 0, 45, 0
2, 600012, Note_on_c, 0, 42, 105
2, 600030, Note_on_c, 0, 88, 105
2, 600044, Note_on_c, 0, 43, 0
2, 600068, Note_on_c, 0, 86, 0
2, 600102, Note_on_c, 0, 42, 0
2, 600132, Note_on_c, 0, 88, 0
2, 600168, Note_on_c, 0, 47, 126
2, 600168, Note_on_c, 0, 35, 127
2, 600168, Note_on_c, 0, 90, 116
2, 600171, Note_on_c, 0, 83, 127
2, 600198, Note_on_c, 0, 35, 0
2, 600300, Note_on_c, 0, 47, 0
2, 600300, Note_on_c, 0, 83, 0
2, 600310, Note_on_c, 0, 45, 109
2, 600316, Note_on_c, 0, 86, 103
2, 600352, Note_on_c, 0, 90, 0
2, 600446, Note_on_c, 0, 43, 99
2, 600460, Note_on_c, 0, 90, 103
2, 600464, Note_on_c, 0, 83, 121
2, 600466, Note_on_c, 0, 45, 0
2, 600498, Note_on_c, 0, 86, 0
2, 600548, Note_on_c, 0, 42, 105
2, 600594, Note_on_c, 0, 43, 0
2, 600624, Note_on_c, 0, 83, 0
2, 600652, Note_on_c, 0, 90, 0
2, 600654, Note_on_c, 0, 42, 0
2, 600692, Control_c, 0, 64, 0
2, 600710, Note_on_c, 0, 47, 127
2, 600714, Note_on_c, 0, 83, 126
2, 600714, Note_on_c, 0, 35, 127
2, 600720, Note_on_c, 0, 89, 118
2, 600752, Note_on_c, 0, 35, 0
2, 600800, Control_c, 0, 64, 127
2, 600848, Note_on_c, 0, 85, 109
2, 600850, Note_on_c, 0, 45, 107
2, 600876, Note_on_c, 0, 47, 0
2, 600882, Note_on_c, 0, 83, 0
2, 600898, Note_on_c, 0, 89, 0
2, 600978, Note_on_c, 0, 43, 100
2, 600982, Note_on_c, 0, 85, 0
2, 600988, Note_on_c, 0, 83, 116
2, 600992, Note_on_c, 0, 89, 98
2, 601004, Note_on_c, 0, 45, 0
2, 601080, Note_on_c, 0, 42, 103
2, 601126, Note_on_c, 0, 43, 0
2, 601132, Note_on_c, 0, 83, 0
2, 601162, Note_on_c, 0, 42, 0
2, 601170, Note_on_c, 0, 89, 0
2, 601216, Control_c, 0, 64, 0
2, 601244, Note_on_c, 0, 47, 126
2, 601244, Note_on_c, 0, 83, 127
2, 601247, Note_on_c, 0, 35, 127
2, 601250, Note_on_c, 0, 88, 123
2, 601278, Note_on_c, 0, 35, 0
2, 601354, Control_c, 0, 64, 127
2, 601370, Note_on_c, 0, 45, 101
2, 601372, Note_on_c, 0, 84, 122
2, 601396, Note_on_c, 0, 47, 0
2, 601402, Note_on_c, 0, 83, 0
2, 601416, Note_on_c, 0, 88, 0
2, 601504, Note_on_c, 0, 83, 115
2, 601507, Note_on_c, 0, 43, 102
2, 601510, Note_on_c, 0, 84, 0
2, 601516, Note_on_c, 0, 88, 94
2, 601536, Note_on_c, 0, 45, 0
2, 601610, Note_on_c, 0, 83, 0
2, 601612, Note_on_c, 0, 42, 98
2, 601648, Note_on_c, 0, 43, 0
2, 601684, Note_on_c, 0, 88, 0
2, 601692, Control_c, 0, 64, 0
2, 601710, Note_on_c, 0, 42, 0
2, 601752, Note_on_c, 0, 83, 127
2, 601760, Note_on_c, 0, 47, 126
2, 601768, Note_on_c, 0, 35, 126
2, 601792, Note_on_c, 0, 45, 64
2, 601795, Note_on_c, 0, 35, 0
2, 601844, Control_c, 0, 64, 127
2, 601852, Note_on_c, 0, 45, 0
2, 601874, Note_on_c, 0, 85, 109
2, 601900, Note_on_c, 0, 45, 110
2, 601903, Note_on_c, 0, 47, 0
2, 601948, Note_on_c, 0, 83, 0
2, 601988, Note_on_c, 0, 86, 110
2, 602012, Note_on_c, 0, 43, 90
2, 602048, Note_on_c, 0, 85, 0
2, 602060, Note_on_c, 0, 45, 0
2, 602102, Note_on_c, 0, 42, 106
2, 602104, Note_on_c, 0, 88, 109
2, 602150, Note_on_c, 0, 43, 0
2, 602166, Note_on_c, 0, 86, 0
2, 602180, Note_on_c, 0, 42, 0
2, 602190, Note_on_c, 0, 88, 0
2, 602198, Control_c, 0, 64, 0
2, 602244, Note_on_c, 0, 90, 116
2, 602244, Note_on_c, 0, 47, 127
2, 602248, Note_on_c, 0, 83, 127
2, 602254, Note_on_c, 0, 35, 117
2, 602282, Note_on_c, 0, 35, 0
2, 602352, Control_c, 0, 64, 127
2, 602355, Note_on_c, 0, 47, 0
2, 602370, Note_on_c, 0, 86, 105
2, 602378, Note_on_c, 0, 90, 0
2, 602380, Note_on_c, 0, 45, 101
2, 602488, Note_on_c, 0, 43, 98
2, 602494, Note_on_c, 0, 90, 93
2, 602530, Note_on_c, 0, 86, 0
2, 602536, Note_on_c, 0, 45, 0
2, 602560, Note_on_c, 0, 83, 0
2, 602580, Note_on_c, 0, 42, 100
2, 602604, Note_on_c, 0, 95, 91
2, 602616, Note_on_c, 0, 43, 0
2, 602644, Note_on_c, 0, 95, 0
2, 602654, Note_on_c, 0, 90, 0
2, 602666, Note_on_c, 0, 42, 0
2, 602674, Control_c, 0, 64, 0
2, 602720, Note_on_c, 0, 50, 127
2, 602722, Note_on_c, 0, 38, 120
2, 602726, Note_on_c, 0, 86, 107
2, 602728, Note_on_c, 0, 81, 120
2, 602728, Note_on_c, 0, 93, 120
2, 602752, Note_on_c, 0, 38, 0
2, 602778, Note_on_c, 0, 83, 47
2, 602844, Control_c, 0, 64, 127
2, 602854, Note_on_c, 0, 90, 100
2, 602854, Note_on_c, 0, 49, 103
2, 602862, Note_on_c, 0, 50, 0
2, 602872, Note_on_c, 0, 86, 0
2, 602920, Note_on_c, 0, 93, 0
2, 602960, Note_on_c, 0, 47, 82
2, 602980, Note_on_c, 0, 86, 87
2, 602982, Note_on_c, 0, 83, 0
2, 602982, Note_on_c, 0, 49, 0
2, 603018, Note_on_c, 0, 90, 0
2, 603018, Note_on_c, 0, 81, 0
2, 603070, Note_on_c, 0, 45, 94
2, 603094, Note_on_c, 0, 90, 90
2, 603104, Note_on_c, 0, 47, 0
2, 603148, Note_on_c, 0, 86, 0
2, 603151, Control_c, 0, 64, 0
2, 603166, Note_on_c, 0, 45, 0
2, 603200, Note_on_c, 0, 90, 0
2, 603228, Note_on_c, 0, 81, 127
2, 603228, Note_on_c, 0, 86, 98
2, 603228, Note_on_c, 0, 93, 126
2, 603234, Note_on_c, 0, 38, 114
2, 603238, Note_on_c, 0, 50, 127
2, 603266, Note_on_c, 0, 38, 0
2, 603276, Note_on_c, 0, 40, 68
2, 603304, Control_c, 0, 64, 127
2, 603320, Note_on_c, 0, 40, 0
2, 603380, Note_on_c, 0, 49, 106
2, 603388, Note_on_c, 0, 50, 0
2, 603464, Note_on_c, 0, 93, 0
2, 603490, Note_on_c, 0, 86, 0
2, 603496, Note_on_c, 0, 47, 72
2, 603518, Note_on_c, 0, 49, 0
2, 603520, Note_on_c, 0, 81, 0
2, 603578, Note_on_c, 0, 45, 99
2, 603604, Note_on_c, 0, 47, 0
2, 603648, Note_on_c, 0, 45, 0
2, 603688, Control_c, 0, 64, 0
2, 603736, Note_on_c, 0, 83, 127
2, 603738, Note_on_c, 0, 47, 127
2, 603746, Note_on_c, 0, 35, 127
2, 603770, Note_on_c, 0, 35, 0
2, 603810, Note_on_c, 0, 83, 0
2, 603840, Note_on_c, 0, 47, 0
2, 603842, Control_c, 0, 64, 127
2, 603848, Note_on_c, 0, 85, 111
2, 603868, Note_on_c, 0, 45, 106
2, 603942, Note_on_c, 0, 85, 0
2, 603984, Note_on_c, 0, 43, 95
2, 603987, Note_on_c, 0, 83, 113
2, 603990, Note_on_c, 0, 86, 109
2, 603998, Note_on_c, 0, 45, 0
2, 604048, Note_on_c, 0, 86, 0
2, 604060, Note_on_c, 0, 83, 0
2, 604074, Note_on_c, 0, 42, 100
2, 604098, Note_on_c, 0, 88, 101
2, 604116, Note_on_c, 0, 43, 0
2, 604168, Note_on_c, 0, 42, 0
2, 604196, Control_c, 0, 64, 0
2, 604198, Note_on_c, 0, 88, 0
2, 604236, Note_on_c, 0, 90, 116
2, 604236, Note_on_c, 0, 47, 125
2, 604239, Note_on_c, 0, 35, 125
2, 604250, Note_on_c, 0, 83, 127
2, 604266, Note_on_c, 0, 35, 0
2, 604348, Control_c, 0, 64, 127
2, 604360, Note_on_c, 0, 45, 106
2, 604368, Note_on_c, 0, 86, 105
2, 604374, Note_on_c, 0, 47, 0
2, 604400, Note_on_c, 0, 83, 0
2, 604424, Note_on_c, 0, 90, 0
2, 604478, Note_on_c, 0, 43, 101
2, 604500, Note_on_c, 0, 90, 95
2, 604506, Note_on_c, 0, 83, 124
2, 604530, Note_on_c, 0, 45, 0
2, 604546, Note_on_c, 0, 86, 0
2, 604574, Note_on_c, 0, 42, 103
2, 604624, Note_on_c, 0, 43, 0
2, 604632, Note_on_c, 0, 83, 0
2, 604654, Note_on_c, 0, 90, 0
2, 604678, Note_on_c, 0, 42, 0
2, 604688, Control_c, 0, 64, 0
2, 604744, Note_on_c, 0, 47, 127
2, 604746, Note_on_c, 0, 35, 127
2, 604756, Note_on_c, 0, 89, 125
2, 604756, Note_on_c, 0, 83, 127
2, 604776, Note_on_c, 0, 35, 0
2, 604776, Note_on_c, 0, 45, 69
2, 604832, Note_on_c, 0, 45, 0
2, 604850, Note_on_c, 0, 83, 0
2, 604856, Control_c, 0, 64, 127
2, 604868, Note_on_c, 0, 85, 116
2, 604880, Note_on_c, 0, 45, 117
2, 604900, Note_on_c, 0, 47, 0
2, 604922, Note_on_c, 0, 89, 0
2, 604990, Note_on_c, 0, 43, 98
2, 604993, Note_on_c, 0, 85, 0
2, 605006, Note_on_c, 0, 89, 98
2, 605010, Note_on_c, 0, 83, 127
2, 605036, Note_on_c, 0, 45, 0
2, 605092, Note_on_c, 0, 42, 103
2, 605138, Note_on_c, 0, 83, 0
2, 605140, Note_on_c, 0, 43, 0
2, 605170, Note_on_c, 0, 89, 0
2, 605186, Note_on_c, 0, 42, 0
2, 605194, Control_c, 0, 64, 0
2, 605258, Note_on_c, 0, 47, 127
2, 605260, Note_on_c, 0, 88, 125
2, 605260, Note_on_c, 0, 83, 127
2, 605264, Note_on_c, 0, 35, 127
2, 605290, Note_on_c, 0, 35, 0
2, 605346, Note_on_c, 0, 83, 0
2, 605378, Control_c, 0, 64, 127
2, 605382, Note_on_c, 0, 84, 122
2, 605390, Note_on_c, 0, 45, 111
2, 605400, Note_on_c, 0, 47, 0
2, 605430, Note_on_c, 0, 88, 0
2, 605492, Note_on_c, 0, 43, 100
2, 605510, Note_on_c, 0, 88, 94
2, 605510, Note_on_c, 0, 83, 127
2, 605548, Note_on_c, 0, 84, 0
2, 605564, Note_on_c, 0, 45, 0
2, 605578, Note_on_c, 0, 42, 106
2, 605598, Note_on_c, 0, 83, 0
2, 605632, Note_on_c, 0, 43, 0
2, 605660, Note_on_c, 0, 88, 0
2, 605670, Control_c, 0, 64, 0
2, 605682, Note_on_c, 0, 42, 0
2, 605750, Note_on_c, 0, 47, 127
2, 605753, Note_on_c, 0, 83, 127
2, 605753, Note_on_c, 0, 35, 124
2, 605782, Note_on_c, 0, 35, 0
2, 605840, Control_c, 0, 64, 127
2, 605874, Note_on_c, 0, 85, 113
2, 605877, Note_on_c, 0, 47, 0
2, 605880, Note_on_c, 0, 45, 105
2, 605934, Note_on_c, 0, 83, 0
2, 605988, Note_on_c, 0, 43, 99
2, 605990, Note_on_c, 0, 86, 113
2, 606050, Note_on_c, 0, 85, 0
2, 606056, Note_on_c, 0, 45, 0
2, 606088, Note_on_c, 0, 42, 98
2, 606110, Note_on_c, 0, 88, 98
2, 606130, Note_on_c, 0, 43, 0
2, 606148, Control_c, 0, 64, 0
2, 606151, Note_on_c, 0, 86, 0
2, 606174, Note_on_c, 0, 42, 0
2, 606230, Note_on_c, 0, 47, 127
2, 606236, Note_on_c, 0, 90, 114
2, 606239, Note_on_c, 0, 88, 0
2, 606244, Note_on_c, 0, 83, 127
2, 606256, Note_on_c, 0, 35, 59
2, 606270, Note_on_c, 0, 87, 26
2, 606300, Control_c, 0, 64, 127
2, 606310, Note_on_c, 0, 35, 0
2, 606334, Note_on_c, 0, 87, 0
2, 606350, Note_on_c, 0, 47, 0
2, 606353, Note_on_c, 0, 45, 105
2, 606358, Note_on_c, 0, 86, 109
2, 606372, Note_on_c, 0, 90, 0
2, 606428, Note_on_c, 0, 83, 0
2, 606466, Note_on_c, 0, 43, 94
2, 606472, Note_on_c, 0, 90, 80
2, 606530, Note_on_c, 0, 45, 0
2, 606538, Note_on_c, 0, 86, 0
2, 606564, Note_on_c, 0, 42, 100
2, 606588, Note_on_c, 0, 95, 88
2, 606610, Note_on_c, 0, 43, 0
2, 606613, Note_on_c, 0, 90, 0
2, 606624, Control_c, 0, 64, 0
2, 606627, Note_on_c, 0, 95, 0
2, 606650, Note_on_c, 0, 42, 0
2, 606702, Note_on_c, 0, 90, 100
2, 606704, Note_on_c, 0, 83, 127
2, 606708, Note_on_c, 0, 47, 110
2, 606714, Note_on_c, 0, 35, 114
2, 606746, Note_on_c, 0, 35, 0
2, 606792, Control_c, 0, 64, 127
2, 606812, Note_on_c, 0, 47, 0
2, 606820, Note_on_c, 0, 45, 80
2, 606824, Note_on_c, 0, 86, 107
2, 606866, Note_on_c, 0, 90, 0
2, 606908, Note_on_c, 0, 83, 0
2, 606916, Note_on_c, 0, 43, 102
2, 606940, Note_on_c, 0, 90, 84
2, 607000, Note_on_c, 0, 45, 0
2, 607000, Note_on_c, 0, 86, 0
2, 607028, Note_on_c, 0, 42, 57
2, 607054, Control_c, 0, 64, 0
2, 607066, Note_on_c, 0, 43, 0
2, 607068, Note_on_c, 0, 95, 97
2, 607082, Note_on_c, 0, 42, 0
2, 607128, Note_on_c, 0, 90, 0
2, 607152, Note_on_c, 0, 47, 126
2, 607152, Note_on_c, 0, 83, 127
2, 607238, Control_c, 0, 64, 127
2, 607252, Note_on_c, 0, 45, 111
2, 607280, Note_on_c, 0, 47, 0
2, 607350, Note_on_c, 0, 43, 67
2, 607402, Note_on_c, 0, 95, 0
2, 607430, Note_on_c, 0, 45, 0
2, 607451, Note_on_c, 0, 42, 101
2, 607468, Note_on_c, 0, 83, 0
2, 607471, Note_on_c, 0, 43, 0
2, 607514, Control_c, 0, 64, 0
2, 607553, Note_on_c, 0, 42, 0
2, 607580, Note_on_c, 0, 47, 127
2, 607582, Note_on_c, 0, 35, 127
2, 607624, Note_on_c, 0, 35, 0
2, 607650, Note_on_c, 0, 47, 0
2, 607682, Control_c, 0, 64, 127
2, 607722, Note_on_c, 0, 92, 95
2, 607764, Note_on_c, 0, 93, 88
2, 607818, Note_on_c, 0, 94, 84
2, 607882, Note_on_c, 0, 86, 125
2, 607882, Note_on_c, 0, 95, 127
2, 607888, Note_on_c, 0, 59, 127
2, 607888, Note_on_c, 0, 56, 123
2, 607894, Note_on_c, 0, 50, 121
2, 607896, Note_on_c, 0, 53, 127
2, 607980, Note_on_c, 0, 92, 0
2, 607986, Note_on_c, 0, 93, 0
2, 608036, Note_on_c, 0, 94, 0
2, 608042, Note_on_c, 0, 53, 0
2, 608048, Note_on_c, 0, 56, 0
2, 608048, Note_on_c, 0, 59, 0
2, 608062, Note_on_c, 0, 50, 0
2, 608212, Note_on_c, 0, 86, 0
2, 608304, Note_on_c, 0, 95, 0
2, 608498, Control_c, 0, 64, 0
2, 608728, Note_on_c, 0, 47, 127
2, 608730, Note_on_c, 0, 35, 127
2, 608802, Note_on_c, 0, 47, 0
2, 608806, Control_c, 0, 64, 127
2, 608814, Note_on_c, 0, 35, 0
2, 608898, Note_on_c, 0, 92, 90
2, 608950, Note_on_c, 0, 93, 84
2, 609000, Note_on_c, 0, 94, 77
2, 609068, Note_on_c, 0, 92, 0
2, 609122, Note_on_c, 0, 95, 127
2, 609126, Note_on_c, 0, 86, 123
2, 609130, Note_on_c, 0, 59, 127
2, 609136, Note_on_c, 0, 50, 121
2, 609138, Note_on_c, 0, 54, 127
2, 609222, Note_on_c, 0, 93, 0
2, 609268, Note_on_c, 0, 94, 0
2, 609284, Note_on_c, 0, 54, 0
2, 609290, Note_on_c, 0, 59, 0
2, 609304, Note_on_c, 0, 50, 0
2, 609424, Note_on_c, 0, 95, 0
2, 609456, Note_on_c, 0, 86, 0
2, 609542, Control_c, 0, 64, 0
2, 609826, Note_on_c, 0, 71, 124
2, 609832, Note_on_c, 0, 55, 127
2, 609834, Note_on_c, 0, 43, 117
2, 609912, Control_c, 0, 64, 127
2, 609942, Note_on_c, 0, 73, 103
2, 609946, Note_on_c, 0, 43, 0
2, 609958, Note_on_c, 0, 55, 0
2, 610002, Note_on_c, 0, 71, 0
2, 610060, Note_on_c, 0, 74, 101
2, 610076, Note_on_c, 0, 59, 90
2, 610079, Note_on_c, 0, 50, 97
2, 610079, Note_on_c, 0, 55, 63
2, 610114, Note_on_c, 0, 59, 0
2, 610124, Note_on_c, 0, 50, 0
2, 610127, Note_on_c, 0, 55, 0
2, 610130, Note_on_c, 0, 73, 0
2, 610154, Note_on_c, 0, 76, 87
2, 610174, Control_c, 0, 64, 0
2, 610226, Note_on_c, 0, 74, 0
2, 610270, Note_on_c, 0, 78, 108
2, 610273, Note_on_c, 0, 54, 127
2, 610278, Note_on_c, 0, 42, 118
2, 610306, Note_on_c, 0, 76, 0
2, 610350, Note_on_c, 0, 42, 0
2, 610358, Note_on_c, 0, 78, 0
2, 610370, Note_on_c, 0, 54, 0
2, 610380, Note_on_c, 0, 74, 109
2, 610388, Control_c, 0, 64, 127
2, 610492, Note_on_c, 0, 54, 106
2, 610496, Note_on_c, 0, 50, 95
2, 610496, Note_on_c, 0, 59, 97
2, 610496, Note_on_c, 0, 78, 103
2, 610528, Note_on_c, 0, 54, 0
2, 610532, Note_on_c, 0, 59, 0
2, 610540, Note_on_c, 0, 50, 0
2, 610562, Note_on_c, 0, 74, 0
2, 610588, Control_c, 0, 64, 0
2, 610600, Note_on_c, 0, 83, 121
2, 610642, Note_on_c, 0, 78, 0
2, 610706, Note_on_c, 0, 42, 127
2, 610706, Note_on_c, 0, 30, 127
2, 610724, Note_on_c, 0, 82, 115
2, 610730, Note_on_c, 0, 30, 0
2, 610760, Note_on_c, 0, 83, 0
2, 610788, Note_on_c, 0, 42, 0
2, 610818, Control_c, 0, 64, 127
2, 610821, Note_on_c, 0, 78, 95
2, 610874, Note_on_c, 0, 82, 0
2, 610932, Note_on_c, 0, 58, 106
2, 610946, Note_on_c, 0, 54, 97
2, 610948, Note_on_c, 0, 49, 85
2, 610951, Note_on_c, 0, 82, 82
2, 610972, Note_on_c, 0, 58, 0
2, 610990, Note_on_c, 0, 54, 0
2, 611010, Note_on_c, 0, 49, 0
2, 611034, Note_on_c, 0, 78, 0
2, 611062, Note_on_c, 0, 85, 98
2, 611110, Control_c, 0, 64, 0
2, 611128, Note_on_c, 0, 82, 0
2, 611208, Note_on_c, 0, 85, 0
2, 611211, Note_on_c, 0, 83, 127
2, 611211, Note_on_c, 0, 47, 127
2, 611211, Note_on_c, 0, 35, 127
2, 611244, Note_on_c, 0, 35, 0
2, 611308, Note_on_c, 0, 47, 0
2, 611324, Control_c, 0, 64, 127
2, 611464, Note_on_c, 0, 54, 117
2, 611468, Note_on_c, 0, 59, 116
2, 611476, Note_on_c, 0, 50, 100
2, 611496, Note_on_c, 0, 59, 0
2, 611498, Note_on_c, 0, 54, 0
2, 611516, Note_on_c, 0, 50, 0
2, 611552, Note_on_c, 0, 83, 0
2, 611740, Control_c, 0, 64, 0
2, 611846, Note_on_c, 0, 47, 127
2, 611850, Note_on_c, 0, 35, 127
2, 611910, Note_on_c, 0, 47, 0
2, 611942, Note_on_c, 0, 35, 0
2, 611970, Control_c, 0, 64, 127
2, 612028, Note_on_c, 0, 92, 87
2, 612080, Note_on_c, 0, 93, 97
2, 612140, Note_on_c, 0, 94, 87
2, 612160, Note_on_c, 0, 92, 0
2, 612198, Note_on_c, 0, 95, 127
2, 612201, Note_on_c, 0, 59, 123
2, 612201, Note_on_c, 0, 86, 127
2, 612201, Note_on_c, 0, 53, 127
2, 612205, Note_on_c, 0, 50, 116
2, 612214, Note_on_c, 0, 56, 103
2, 612242, Note_on_c, 0, 50, 0
2, 612290, Note_on_c, 0, 53, 0
2, 612302, Note_on_c, 0, 59, 0
2, 612320, Note_on_c, 0, 93, 0
2, 612330, Note_on_c, 0, 56, 0
2, 612344, Note_on_c, 0, 94, 0
2, 612478, Note_on_c, 0, 86, 0
2, 612578, Note_on_c, 0, 95, 0
2, 612810, Control_c, 0, 64, 0
2, 613030, Note_on_c, 0, 47, 127
2, 613032, Note_on_c, 0, 35, 127
2, 613084, Note_on_c, 0, 35, 0
2, 613098, Note_on_c, 0, 47, 0
2, 613108, Control_c, 0, 64, 127
2, 613208, Note_on_c, 0, 92, 88
2, 613254, Note_on_c, 0, 93, 93
2, 613320, Note_on_c, 0, 94, 78
2, 613370, Note_on_c, 0, 92, 0
2, 613396, Note_on_c, 0, 95, 127
2, 613398, Note_on_c, 0, 86, 122
2, 613402, Note_on_c, 0, 59, 127
2, 613410, Note_on_c, 0, 54, 123
2, 613410, Note_on_c, 0, 50, 123
2, 613480, Note_on_c, 0, 93, 0
2, 613500, Note_on_c, 0, 54, 0
2, 613502, Note_on_c, 0, 50, 0
2, 613506, Note_on_c, 0, 94, 0
2, 613516, Note_on_c, 0, 59, 0
2, 613652, Note_on_c, 0, 95, 0
2, 613664, Note_on_c, 0, 86, 0
2, 613998, Control_c, 0, 64, 0
2, 614238, Note_on_c, 0, 83, 127
2, 614250, Note_on_c, 0, 55, 127
2, 614250, Note_on_c, 0, 43, 120
2, 614336, Control_c, 0, 64, 127
2, 614341, Note_on_c, 0, 43, 0
2, 614378, Note_on_c, 0, 55, 0
2, 614384, Note_on_c, 0, 85, 98
2, 614508, Note_on_c, 0, 59, 99
2, 614508, Note_on_c, 0, 86, 91
2, 614518, Note_on_c, 0, 55, 85
2, 614520, Note_on_c, 0, 50, 87
2, 614546, Note_on_c, 0, 59, 0
2, 614562, Note_on_c, 0, 55, 0
2, 614566, Note_on_c, 0, 85, 0
2, 614570, Note_on_c, 0, 50, 0
2, 614592, Note_on_c, 0, 88, 80
2, 614612, Note_on_c, 0, 83, 0
2, 614674, Control_c, 0, 64, 0
2, 614684, Note_on_c, 0, 86, 0
2, 614716, Note_on_c, 0, 90, 101
2, 614730, Note_on_c, 0, 54, 127
2, 614736, Note_on_c, 0, 42, 121
2, 614752, Note_on_c, 0, 88, 0
2, 614776, Note_on_c, 0, 42, 0
2, 614818, Note_on_c, 0, 54, 0
2, 614822, Note_on_c, 0, 90, 0
2, 614832, Note_on_c, 0, 86, 114
2, 614844, Control_c, 0, 64, 127
2, 614958, Note_on_c, 0, 90, 106
2, 614980, Note_on_c, 0, 50, 40
2, 614983, Note_on_c, 0, 54, 95
2, 614985, Note_on_c, 0, 59, 28
2, 615020, Note_on_c, 0, 54, 0
2, 615046, Note_on_c, 0, 59, 0
2, 615054, Note_on_c, 0, 50, 0
2, 615058, Note_on_c, 0, 86, 0
2, 615058, Control_c, 0, 64, 0
2, 615074, Note_on_c, 0, 95, 101
2, 615120, Note_on_c, 0, 90, 0
2, 615172, Note_on_c, 0, 42, 125
2, 615176, Note_on_c, 0, 30, 126
2, 615196, Note_on_c, 0, 94, 115
2, 615202, Note_on_c, 0, 30, 0
2, 615218, Note_on_c, 0, 95, 0
2, 615262, Note_on_c, 0, 42, 0
2, 615274, Control_c, 0, 64, 127
2, 615302, Note_on_c, 0, 90, 95
2, 615346, Note_on_c, 0, 94, 0
2, 615430, Note_on_c, 0, 54, 44
2, 615434, Note_on_c, 0, 61, 114
2, 615434, Note_on_c, 0, 58, 64
2, 615438, Note_on_c, 0, 52, 60
2, 615446, Note_on_c, 0, 94, 84
2, 615468, Note_on_c, 0, 61, 0
2, 615486, Note_on_c, 0, 58, 0
2, 615494, Note_on_c, 0, 52, 0
2, 615502, Note_on_c, 0, 54, 0
2, 615512, Note_on_c, 0, 90, 0
2, 615568, Note_on_c, 0, 97, 102
2, 615628, Control_c, 0, 64, 0
2, 615636, Note_on_c, 0, 94, 0
2, 615700, Note_on_c, 0, 97, 0
2, 615718, Note_on_c, 0, 47, 126
2, 615721, Note_on_c, 0, 95, 126
2, 615724, Note_on_c, 0, 35, 127
2, 615750, Note_on_c, 0, 35, 0
2, 615778, Note_on_c, 0, 47, 0
2, 615842, Control_c, 0, 64, 127
2, 616028, Note_on_c, 0, 59, 111
2, 616031, Note_on_c, 0, 54, 101
2, 616036, Note_on_c, 0, 50, 100
2, 616076, Note_on_c, 0, 59, 0
2, 616104, Note_on_c, 0, 50, 0
2, 616104, Note_on_c, 0, 54, 0
2, 616180, Note_on_c, 0, 95, 0
2, 616288, Control_c, 0, 64, 0
2, 616378, Note_on_c, 0, 47, 127
2, 616380, Note_on_c, 0, 35, 126
2, 616408, Note_on_c, 0, 35, 0
2, 616456, Note_on_c, 0, 47, 0
2, 616488, Control_c, 0, 64, 127
2, 616568, Note_on_c, 0, 92, 84
2, 616620, Note_on_c, 0, 93, 85
2, 616686, Note_on_c, 0, 94, 79
2, 616689, Note_on_c, 0, 92, 0
2, 616756, Note_on_c, 0, 95, 127
2, 616760, Note_on_c, 0, 59, 125
2, 616762, Note_on_c, 0, 86, 126
2, 616764, Note_on_c, 0, 50, 120
2, 616766, Note_on_c, 0, 53, 127
2, 616768, Note_on_c, 0, 56, 97
2, 616848, Note_on_c, 0, 50, 0
2, 616872, Note_on_c, 0, 53, 0
2, 616886, Note_on_c, 0, 93, 0
2, 616900, Note_on_c, 0, 59, 0
2, 616908, Note_on_c, 0, 56, 0
2, 616920, Note_on_c, 0, 94, 0
2, 617072, Note_on_c, 0, 86, 0
2, 617142, Note_on_c, 0, 95, 0
2, 617302, Control_c, 0, 64, 0
2, 617550, Note_on_c, 0, 47, 127
2, 617552, Note_on_c, 0, 35, 127
2, 617608, Note_on_c, 0, 35, 0
2, 617624, Note_on_c, 0, 47, 0
2, 617656, Control_c, 0, 64, 127
2, 617734, Note_on_c, 0, 92, 87
2, 617794, Note_on_c, 0, 93, 87
2, 617862, Note_on_c, 0, 94, 61
2, 617892, Note_on_c, 0, 92, 0
2, 617938, Note_on_c, 0, 95, 127
2, 617941, Note_on_c, 0, 86, 125
2, 617944, Note_on_c, 0, 59, 121
2, 617948, Note_on_c, 0, 50, 114
2, 617954, Note_on_c, 0, 53, 127
2, 617954, Note_on_c, 0, 56, 100
2, 618048, Note_on_c, 0, 93, 0
2, 618066, Note_on_c, 0, 94, 0
2, 618166, Note_on_c, 0, 59, 0
2, 618169, Note_on_c, 0, 56, 0
2, 618184, Note_on_c, 0, 53, 0
2, 618236, Note_on_c, 0, 50, 0
2, 618324, Note_on_c, 0, 86, 0
2, 618418, Note_on_c, 0, 95, 0
2, 618700, Control_c, 0, 64, 0
2, 618814, Note_on_c, 0, 47, 127
2, 618820, Note_on_c, 0, 35, 127
2, 618884, Note_on_c, 0, 35, 0
2, 618900, Control_c, 0, 64, 127
2, 618904, Note_on_c, 0, 47, 0
2, 619106, Note_on_c, 0, 92, 76
2, 619164, Note_on_c, 0, 93, 70
2, 619200, Note_on_c, 0, 94, 71
2, 619206, Note_on_c, 0, 92, 0
2, 619250, Note_on_c, 0, 59, 57
2, 619258, Note_on_c, 0, 50, 59
2, 619264, Note_on_c, 0, 53, 72
2, 619264, Note_on_c, 0, 95, 101
2, 619264, Note_on_c, 0, 56, 49
2, 619267, Note_on_c, 0, 86, 83
2, 619280, Note_on_c, 0, 93, 0
2, 619328, Note_on_c, 0, 53, 0
2, 619328, Note_on_c, 0, 94, 0
2, 619328, Note_on_c, 0, 56, 0
2, 619362, Note_on_c, 0, 50, 0
2, 619366, Note_on_c, 0, 59, 0
2, 619384, Note_on_c, 0, 86, 0
2, 619410, Note_on_c, 0, 95, 0
2, 619470, Note_on_c, 0, 92, 59
2, 619518, Note_on_c, 0, 93, 88
2, 619540, Note_on_c, 0, 94, 85
2, 619568, Note_on_c, 0, 59, 82
2, 619574, Note_on_c, 0, 50, 75
2, 619576, Note_on_c, 0, 53, 97
2, 619580, Note_on_c, 0, 86, 90
2, 619582, Note_on_c, 0, 56, 61
2, 619588, Note_on_c, 0, 95, 107
2, 619612, Note_on_c, 0, 92, 0
2, 619630, Note_on_c, 0, 93, 0
2, 619638, Note_on_c, 0, 50, 0
2, 619658, Note_on_c, 0, 56, 0
2, 619666, Note_on_c, 0, 94, 0
2, 619666, Note_on_c, 0, 53, 0
2, 619674, Note_on_c, 0, 59, 0
2, 619678, Note_on_c, 0, 86, 0
2, 619694, Note_on_c, 0, 95, 0
2, 619776, Note_on_c, 0, 92, 52
2, 619788, Note_on_c, 0, 93, 110
2, 619810, Note_on_c, 0, 94, 98
2, 619826, Note_on_c, 0, 59, 99
2, 619830, Note_on_c, 0, 86, 93
2, 619834, Note_on_c, 0, 92, 0
2, 619834, Note_on_c, 0, 53, 109
2, 619837, Note_on_c, 0, 50, 94
2, 619840, Note_on_c, 0, 56, 80
2, 619860, Note_on_c, 0, 95, 118
2, 619898, Note_on_c, 0, 50, 0
2, 619910, Note_on_c, 0, 93, 0
2, 619930, Note_on_c, 0, 86, 0
2, 619934, Note_on_c, 0, 94, 0
2, 619942, Note_on_c, 0, 53, 0
2, 619946, Note_on_c, 0, 59, 0
2, 619970, Note_on_c, 0, 95, 0
2, 619972, Note_on_c, 0, 56, 0
2, 619998, Note_on_c, 0, 92, 69
2, 620032, Note_on_c, 0, 93, 125
2, 620050, Note_on_c, 0, 94, 103
2, 620058, Note_on_c, 0, 86, 105
2, 620060, Note_on_c, 0, 59, 103
2, 620066, Note_on_c, 0, 50, 107
2, 620066, Note_on_c, 0, 53, 105
2, 620069, Note_on_c, 0, 56, 68
2, 620100, Note_on_c, 0, 95, 118
2, 620104, Note_on_c, 0, 92, 0
2, 620126, Note_on_c, 0, 50, 0
2, 620154, Note_on_c, 0, 86, 0
2, 620158, Note_on_c, 0, 59, 0
2, 620160, Note_on_c, 0, 93, 0
2, 620178, Note_on_c, 0, 53, 0
2, 620178, Note_on_c, 0, 94, 0
2, 620186, Note_on_c, 0, 95, 0
2, 620192, Note_on_c, 0, 56, 0
2, 620232, Note_on_c, 0, 92, 68
2, 620246, Note_on_c, 0, 93, 114
2, 620258, Note_on_c, 0, 86, 110
2, 620262, Note_on_c, 0, 53, 117
2, 620262, Note_on_c, 0, 94, 95
2, 620264, Note_on_c, 0, 59, 114
2, 620270, Note_on_c, 0, 56, 79
2, 620272, Note_on_c, 0, 50, 109
2, 620304, Note_on_c, 0, 95, 100
2, 620330, Note_on_c, 0, 92, 0
2, 620334, Note_on_c, 0, 50, 0
2, 620348, Note_on_c, 0, 86, 0
2, 620354, Note_on_c, 0, 59, 0
2, 620370, Note_on_c, 0, 93, 0
2, 620398, Note_on_c, 0, 53, 0
2, 620401, Note_on_c, 0, 94, 0
2, 620401, Note_on_c, 0, 95, 0
2, 620406, Note_on_c, 0, 56, 0
2, 620434, Note_on_c, 0, 92, 80
2, 620456, Note_on_c, 0, 93, 110
2, 620462, Note_on_c, 0, 86, 121
2, 620462, Note_on_c, 0, 94, 95
2, 620470, Note_on_c, 0, 53, 125
2, 620476, Note_on_c, 0, 59, 122
2, 620478, Note_on_c, 0, 50, 110
2, 620480, Note_on_c, 0, 56, 76
2, 620488, Note_on_c, 0, 95, 106
2, 620544, Note_on_c, 0, 92, 0
2, 620554, Note_on_c, 0, 93, 0
2, 620558, Note_on_c, 0, 59, 0
2, 620568, Note_on_c, 0, 50, 0
2, 620580, Note_on_c, 0, 86, 0
2, 620600, Note_on_c, 0, 53, 0
2, 620606, Note_on_c, 0, 94, 0
2, 620612, Note_on_c, 0, 56, 0
2, 620626, Note_on_c, 0, 95, 0
2, 620702, Note_on_c, 0, 92, 25
2, 620732, Note_on_c, 0, 93, 115
2, 620738, Note_on_c, 0, 86, 88
2, 620740, Note_on_c, 0, 59, 126
2, 620742, Note_on_c, 0, 94, 106
2, 620750, Note_on_c, 0, 50, 117
2, 620750, Note_on_c, 0, 53, 127
2, 620750, Note_on_c, 0, 56, 103
2, 620753, Note_on_c, 0, 95, 127
2, 620808, Note_on_c, 0, 50, 0
2, 620826, Note_on_c, 0, 59, 0
2, 620850, Note_on_c, 0, 56, 0
2, 620852, Note_on_c, 0, 93, 0
2, 620854, Note_on_c, 0, 86, 0
2, 620860, Note_on_c, 0, 53, 0
2, 620862, Note_on_c, 0, 92, 0
2, 620872, Note_on_c, 0, 95, 0
2, 620890, Note_on_c, 0, 94, 0
2, 621174, Control_c, 0, 64, 0
2, 622092, Note_on_c, 0, 35, 57
2, 622096, Control_c, 0, 64, 127
2, 622150, Note_on_c, 0, 35, 0
2, 622218, Note_on_c, 0, 47, 46
2, 622290, Note_on_c, 0, 47, 0
2, 622330, Note_on_c, 0, 35, 57
2, 622388, Note_on_c, 0, 35, 0
2, 622438, Note_on_c, 0, 47, 33
2, 622508, Note_on_c, 0, 47, 0
2, 622516, Note_on_c, 0, 35, 40
2, 622574, Note_on_c, 0, 35, 0
2, 622588, Note_on_c, 0, 47, 55
2, 622682, Note_on_c, 0, 47, 0
2, 622684, Note_on_c, 0, 35, 34
2, 622744, Note_on_c, 0, 35, 0
2, 622766, Note_on_c, 0, 47, 44
2, 622830, Note_on_c, 0, 47, 0
2, 622836, Note_on_c, 0, 35, 62
2, 622890, Note_on_c, 0, 35, 0
2, 622910, Note_on_c, 0, 47, 64
2, 622978, Note_on_c, 0, 47, 0
2, 623000, Note_on_c, 0, 35, 84
2, 623048, Note_on_c, 0, 35, 0
2, 623062, Note_on_c, 0, 47, 72
2, 623116, Note_on_c, 0, 47, 0
2, 623152, Note_on_c, 0, 35, 93
2, 623198, Note_on_c, 0, 35, 0
2, 623214, Note_on_c, 0, 47, 83
2, 623264, Note_on_c, 0, 47, 0
2, 623304, Note_on_c, 0, 35, 102
2, 623344, Note_on_c, 0, 47, 80
2, 623406, Note_on_c, 0, 35, 0
2, 623438, Note_on_c, 0, 47, 0
2, 623466, Note_on_c, 0, 47, 95
2, 623508, Note_on_c, 0, 47, 0
2, 623508, Note_on_c, 0, 35, 121
2, 623590, Note_on_c, 0, 47, 94
2, 623606, Note_on_c, 0, 35, 0
2, 623664, Note_on_c, 0, 35, 126
2, 623686, Note_on_c, 0, 47, 0
2, 623734, Note_on_c, 0, 47, 127
2, 623742, Note_on_c, 0, 35, 0
2, 623812, Note_on_c, 0, 47, 0
2, 623814, Note_on_c, 0, 35, 127
2, 623878, Note_on_c, 0, 35, 0
2, 623882, Note_on_c, 0, 47, 113
2, 623956, Note_on_c, 0, 35, 124
2, 623978, Note_on_c, 0, 47, 0
2, 624026, Note_on_c, 0, 35, 0
2, 624029, Note_on_c, 0, 47, 125
2, 624100, Note_on_c, 0, 35, 120
2, 624122, Note_on_c, 0, 47, 0
2, 624168, Note_on_c, 0, 47, 127
2, 624184, Note_on_c, 0, 35, 0
2, 624244, Note_on_c, 0, 47, 0
2, 624330, Note_on_c, 0, 35, 127
2, 624336, Note_on_c, 0, 23, 127
2, 624432, Note_on_c, 0, 23, 0
2, 624466, Note_on_c, 0, 35, 0
2, 624894, Note_on_c, 0, 92, 55
2, 624968, Note_on_c, 0, 93, 76
2, 625022, Note_on_c, 0, 94, 53
2, 625050, Note_on_c, 0, 95, 127
2, 625054, Note_on_c, 0, 86, 127
2, 625058, Note_on_c, 0, 47, 125
2, 625058, Note_on_c, 0, 59, 127
2, 625066, Note_on_c, 0, 54, 123
2, 625072, Note_on_c, 0, 50, 125
2, 625074, Note_on_c, 0, 92, 0
2, 625126, Note_on_c, 0, 93, 0
2, 625154, Note_on_c, 0, 47, 0
2, 625184, Note_on_c, 0, 86, 0
2, 625184, Note_on_c, 0, 59, 0
2, 625186, Note_on_c, 0, 54, 0
2, 625190, Note_on_c, 0, 95, 0
2, 625192, Note_on_c, 0, 50, 0
2, 625204, Note_on_c, 0, 94, 0
2, 625368, Control_c, 0, 64, 0
2, 627840, Control_c, 0, 64, 0
2, 627840, End_track
0, 0, End_of_file
