0, 0, Header, 0, 1, 384
1, 0, Start_track
1, 0, Tempo, 512820
1, 0, Title_t, ""
1, 0, Control_c, 0, 64, 0
1, 748, Control_c, 0, 64, 127
1, 748, Note_on_c, 0, 81, 28
1, 761, Note_on_c, 0, 74, 16
1, 797, Note_off_c, 0, 81, 64
1, 797, Note_on_c, 0, 77, 38
1, 803, Note_on_c, 0, 82, 36
1, 842, Note_off_c, 0, 77, 64
1, 856, Note_off_c, 0, 82, 64
1, 856, Note_on_c, 0, 81, 60
1, 903, Note_off_c, 0, 81, 64
1, 903, Note_on_c, 0, 77, 59
1, 912, Note_off_c, 0, 74, 64
1, 920, Note_on_c, 0, 82, 51
1, 957, Note_off_c, 0, 77, 64
1, 960, Note_on_c, 0, 81, 69
1, 970, Note_off_c, 0, 82, 64
1, 1004, Note_off_c, 0, 81, 64
1, 1218, Control_c, 0, 64, 0
1, 1391, Note_on_c, 0, 69, 25
1, 1407, Note_on_c, 0, 62, 20
1, 1446, Control_c, 0, 64, 127
1, 1450, Note_off_c, 0, 69, 64
1, 1458, Note_off_c, 0, 62, 64
1, 1566, Control_c, 0, 64, 0
1, 1659, Note_on_c, 0, 69, 32
1, 1670, Note_on_c, 0, 62, 27
1, 1698, Control_c, 0, 64, 127
1, 1712, Note_off_c, 0, 69, 64
1, 1722, Note_off_c, 0, 62, 64
1, 2046, Control_c, 0, 64, 0
1, 2113, Note_on_c, 0, 79, 51
1, 2120, Note_on_c, 0, 86, 50
1, 2157, Note_off_c, 0, 79, 64
1, 2157, Note_on_c, 0, 83, 75
1, 2165, Note_off_c, 0, 86, 64
1, 2174, Note_on_c, 0, 88, 50
1, 2199, Note_off_c, 0, 83, 64
1, 2208, Note_on_c, 0, 79, 79
1, 2216, Note_off_c, 0, 88, 64
1, 2221, Note_on_c, 0, 86, 66
1, 2257, Note_off_c, 0, 79, 64
1, 2265, Note_off_c, 0, 86, 64
1, 2268, Note_on_c, 0, 88, 63
1, 2268, Note_on_c, 0, 83, 81
1, 2319, Note_on_c, 0, 86, 68
1, 2322, Note_on_c, 0, 79, 80
1, 2327, Note_off_c, 0, 88, 64
1, 2327, Note_off_c, 0, 83, 64
1, 2354, Note_off_c, 0, 79, 64
1, 2391, Note_off_c, 0, 86, 64
1, 2441, Control_c, 0, 64, 127
1, 2717, Note_on_c, 0, 74, 25
1, 2717, Note_on_c, 0, 67, 40
1, 2768, Note_off_c, 0, 74, 64
1, 2768, Note_off_c, 0, 67, 64
1, 2873, Control_c, 0, 64, 0
1, 2992, Note_on_c, 0, 74, 34
1, 2996, Note_on_c, 0, 67, 41
1, 3063, Note_off_c, 0, 74, 64
1, 3077, Note_off_c, 0, 67, 64
1, 3088, Control_c, 0, 64, 127
1, 3411, Control_c, 0, 64, 0
1, 3422, Note_on_c, 0, 81, 51
1, 3431, Note_on_c, 0, 74, 26
1, 3464, Note_off_c, 0, 81, 64
1, 3464, Note_on_c, 0, 77, 53
1, 3470, Note_on_c, 0, 82, 47
1, 3510, Note_off_c, 0, 77, 64
1, 3513, Note_off_c, 0, 82, 64
1, 3522, Note_on_c, 0, 81, 67
1, 3561, Note_off_c, 0, 81, 64
1, 3564, Note_on_c, 0, 82, 53
1, 3572, Note_off_c, 0, 74, 64
1, 3572, Note_on_c, 0, 77, 56
1, 3612, Note_on_c, 0, 81, 75
1, 3625, Note_off_c, 0, 77, 64
1, 3625, Note_on_c, 0, 74, 81
1, 3634, Note_off_c, 0, 82, 64
1, 3655, Note_off_c, 0, 74, 64
1, 3698, Note_off_c, 0, 81, 64
1, 3711, Control_c, 0, 64, 127
1, 3772, Control_c, 0, 64, 0
1, 4002, Note_on_c, 0, 70, 35
1, 4005, Note_on_c, 0, 77, 51
1, 4045, Note_off_c, 0, 77, 64
1, 4054, Note_off_c, 0, 70, 64
1, 4054, Note_on_c, 0, 74, 58
1, 4062, Note_on_c, 0, 79, 45
1, 4095, Note_off_c, 0, 74, 64
1, 4105, Note_on_c, 0, 77, 60
1, 4112, Note_on_c, 0, 70, 52
1, 4116, Note_off_c, 0, 79, 64
1, 4146, Note_off_c, 0, 77, 64
1, 4154, Note_on_c, 0, 74, 65
1, 4154, Note_off_c, 0, 70, 64
1, 4176, Note_on_c, 0, 79, 30
1, 4197, Note_off_c, 0, 74, 64
1, 4200, Note_on_c, 0, 77, 73
1, 4212, Note_on_c, 0, 70, 45
1, 4232, Note_off_c, 0, 79, 64
1, 4263, Note_off_c, 0, 70, 64
1, 4289, Note_off_c, 0, 77, 64
1, 4572, Note_on_c, 0, 81, 54
1, 4612, Note_off_c, 0, 81, 64
1, 4617, Note_on_c, 0, 82, 48
1, 4620, Note_on_c, 0, 77, 46
1, 4661, Note_off_c, 0, 77, 64
1, 4664, Note_off_c, 0, 82, 64
1, 4664, Note_on_c, 0, 81, 64
1, 4690, Note_on_c, 0, 74, 38
1, 4706, Note_off_c, 0, 81, 64
1, 4719, Note_on_c, 0, 77, 65
1, 4728, Note_on_c, 0, 82, 48
1, 4737, Note_off_c, 0, 74, 64
1, 4761, Note_on_c, 0, 81, 73
1, 4773, Note_off_c, 0, 82, 64
1, 4773, Note_off_c, 0, 77, 64
1, 4801, Note_on_c, 0, 74, 41
1, 4851, Note_off_c, 0, 74, 64
1, 4856, Note_off_c, 0, 81, 64
1, 4885, Control_c, 0, 64, 127
1, 5180, Note_on_c, 0, 69, 22
1, 5186, Note_on_c, 0, 62, 10
1, 5229, Note_off_c, 0, 62, 64
1, 5238, Note_off_c, 0, 69, 64
1, 5378, Control_c, 0, 64, 0
1, 5430, Note_on_c, 0, 69, 34
1, 5438, Note_on_c, 0, 62, 43
1, 5480, Note_off_c, 0, 62, 64
1, 5480, Note_off_c, 0, 69, 64
1, 5497, Control_c, 0, 64, 127
1, 5786, Control_c, 0, 64, 0
1, 5839, Note_on_c, 0, 77, 26
1, 5845, Note_on_c, 0, 84, 39
1, 5884, Note_on_c, 0, 81, 47
1, 5893, Note_off_c, 0, 77, 64
1, 5893, Note_off_c, 0, 84, 64
1, 5893, Note_on_c, 0, 86, 43
1, 5929, Note_off_c, 0, 81, 64
1, 5942, Note_off_c, 0, 86, 64
1, 5942, Note_on_c, 0, 84, 33
1, 5959, Note_on_c, 0, 77, 29
1, 5984, Note_off_c, 0, 84, 64
1, 5984, Note_on_c, 0, 81, 61
1, 5989, Note_on_c, 0, 86, 73
1, 6005, Note_off_c, 0, 77, 64
1, 6026, Note_off_c, 0, 86, 64
1, 6032, Note_on_c, 0, 84, 93
1, 6038, Note_off_c, 0, 81, 64
1, 6048, Note_on_c, 0, 77, 65
1, 6079, Note_off_c, 0, 77, 64
1, 6084, Note_off_c, 0, 84, 64
1, 6132, Control_c, 0, 64, 127
1, 6385, Control_c, 0, 64, 0
1, 6449, Note_on_c, 0, 65, 29
1, 6449, Note_on_c, 0, 72, 27
1, 6503, Note_off_c, 0, 65, 64
1, 6506, Note_off_c, 0, 72, 64
1, 6539, Control_c, 0, 64, 127
1, 6648, Control_c, 0, 64, 0
1, 6701, Note_on_c, 0, 65, 22
1, 6711, Note_on_c, 0, 72, 28
1, 6776, Note_off_c, 0, 72, 64
1, 6779, Control_c, 0, 64, 127
1, 6801, Note_off_c, 0, 65, 64
1, 7183, Note_on_c, 0, 81, 46
1, 7183, Note_on_c, 0, 88, 56
1, 7222, Control_c, 0, 64, 0
1, 7225, Note_off_c, 0, 81, 64
1, 7225, Note_off_c, 0, 88, 64
1, 7243, Note_on_c, 0, 84, 53
1, 7243, Note_on_c, 0, 89, 48
1, 7282, Note_on_c, 0, 88, 59
1, 7286, Note_off_c, 0, 84, 64
1, 7286, Note_off_c, 0, 89, 64
1, 7289, Note_on_c, 0, 81, 49
1, 7336, Note_off_c, 0, 88, 64
1, 7339, Note_on_c, 0, 89, 67
1, 7356, Note_on_c, 0, 84, 46
1, 7364, Note_off_c, 0, 81, 64
1, 7394, Note_on_c, 0, 88, 77
1, 7408, Note_off_c, 0, 89, 64
1, 7413, Note_on_c, 0, 81, 89
1, 7420, Note_off_c, 0, 84, 64
1, 7439, Note_off_c, 0, 81, 64
1, 7473, Note_off_c, 0, 88, 64
1, 7522, Control_c, 0, 64, 127
1, 7828, Note_on_c, 0, 72, 29
1, 7839, Note_on_c, 0, 64, 27
1, 7879, Note_off_c, 0, 72, 64
1, 7884, Note_off_c, 0, 64, 64
1, 8107, Note_on_c, 0, 72, 29
1, 8129, Note_on_c, 0, 64, 6
1, 8165, Note_off_c, 0, 72, 64
1, 8177, Note_off_c, 0, 64, 64
1, 8419, Note_on_c, 0, 80, 57
1, 8458, Control_c, 0, 64, 0
1, 8503, Note_on_c, 0, 76, 48
1, 8514, Note_off_c, 0, 80, 64
1, 8611, Note_off_c, 0, 76, 64
1, 8753, Note_on_c, 0, 68, 35
1, 8757, Note_on_c, 0, 52, 35
1, 8757, Note_on_c, 0, 72, 49
1, 8757, Note_on_c, 0, 62, 25
1, 8810, Note_off_c, 0, 52, 64
1, 8810, Note_off_c, 0, 62, 64
1, 8817, Control_c, 0, 64, 127
1, 8821, Note_off_c, 0, 72, 64
1, 8835, Note_off_c, 0, 68, 64
1, 9058, Note_on_c, 0, 80, 64
1, 9104, Control_c, 0, 64, 0
1, 9129, Note_on_c, 0, 76, 70
1, 9140, Note_off_c, 0, 80, 64
1, 9232, Note_off_c, 0, 76, 64
1, 9381, Note_on_c, 0, 72, 58
1, 9381, Note_on_c, 0, 52, 37
1, 9381, Note_on_c, 0, 68, 55
1, 9384, Note_on_c, 0, 62, 44
1, 9428, Note_off_c, 0, 62, 64
1, 9437, Note_off_c, 0, 52, 64
1, 9437, Note_off_c, 0, 68, 64
1, 9448, Note_off_c, 0, 72, 64
1, 9489, Control_c, 0, 64, 127
1, 9632, Control_c, 0, 64, 0
1, 9679, Note_on_c, 0, 81, 66
1, 9764, Note_off_c, 0, 81, 64
1, 9788, Note_on_c, 0, 76, 51
1, 9921, Note_off_c, 0, 76, 64
1, 9932, Control_c, 0, 64, 127
1, 10065, Note_on_c, 0, 69, 40
1, 10141, Note_off_c, 0, 69, 64
1, 10375, Control_c, 0, 64, 0
1, 10441, Note_on_c, 0, 69, 36
1, 10441, Note_on_c, 0, 60, 39
1, 10444, Note_on_c, 0, 45, 19
1, 10444, Note_on_c, 0, 52, 38
1, 10500, Note_off_c, 0, 52, 64
1, 10500, Note_off_c, 0, 60, 64
1, 10505, Note_off_c, 0, 45, 64
1, 10536, Note_off_c, 0, 69, 64
1, 10767, Note_on_c, 0, 45, 13
1, 10767, Note_on_c, 0, 69, 20
1, 10779, Note_on_c, 0, 60, 23
1, 10779, Note_on_c, 0, 52, 27
1, 10831, Control_c, 0, 64, 127
1, 10859, Note_off_c, 0, 60, 64
1, 10859, Note_off_c, 0, 52, 64
1, 10874, Note_off_c, 0, 45, 64
1, 10957, Note_off_c, 0, 69, 64
1, 11478, Control_c, 0, 64, 0
1, 11514, Note_on_c, 0, 81, 50
1, 11526, Note_on_c, 0, 74, 28
1, 11559, Note_off_c, 0, 81, 64
1, 11567, Note_on_c, 0, 82, 55
1, 11581, Note_on_c, 0, 77, 27
1, 11614, Note_off_c, 0, 82, 64
1, 11614, Note_on_c, 0, 81, 69
1, 11631, Note_off_c, 0, 77, 64
1, 11654, Note_off_c, 0, 81, 64
1, 11667, Note_off_c, 0, 74, 64
1, 11676, Note_on_c, 0, 82, 51
1, 11684, Note_on_c, 0, 77, 58
1, 11707, Note_on_c, 0, 81, 77
1, 11716, Note_off_c, 0, 77, 64
1, 11726, Note_off_c, 0, 82, 64
1, 11726, Note_on_c, 0, 74, 61
1, 11763, Note_off_c, 0, 74, 64
1, 11804, Note_off_c, 0, 81, 64
1, 11826, Control_c, 0, 64, 127
1, 11921, Control_c, 0, 64, 0
1, 12097, Note_on_c, 0, 62, 38
1, 12100, Note_on_c, 0, 69, 18
1, 12146, Note_off_c, 0, 62, 64
1, 12160, Note_off_c, 0, 69, 64
1, 12341, Control_c, 0, 64, 127
1, 12353, Note_on_c, 0, 69, 16
1, 12359, Note_on_c, 0, 62, 34
1, 12408, Note_off_c, 0, 62, 64
1, 12416, Note_off_c, 0, 69, 64
1, 12784, Control_c, 0, 64, 0
1, 12795, Note_on_c, 0, 79, 57
1, 12813, Note_on_c, 0, 86, 48
1, 12837, Note_off_c, 0, 79, 64
1, 12854, Note_on_c, 0, 83, 73
1, 12859, Note_off_c, 0, 86, 64
1, 12862, Note_on_c, 0, 88, 54
1, 12893, Note_off_c, 0, 83, 64
1, 12899, Note_on_c, 0, 79, 57
1, 12904, Note_off_c, 0, 88, 64
1, 12912, Note_on_c, 0, 86, 63
1, 12954, Note_off_c, 0, 86, 64
1, 12957, Note_off_c, 0, 79, 64
1, 12957, Note_on_c, 0, 83, 87
1, 12957, Note_on_c, 0, 88, 64
1, 13008, Note_on_c, 0, 86, 63
1, 13016, Note_off_c, 0, 83, 64
1, 13016, Note_off_c, 0, 88, 64
1, 13016, Note_on_c, 0, 79, 75
1, 13061, Note_off_c, 0, 79, 64
1, 13077, Note_off_c, 0, 86, 64
1, 13144, Control_c, 0, 64, 127
1, 13372, Control_c, 0, 64, 0
1, 13533, Note_on_c, 0, 74, 59
1, 13544, Note_on_c, 0, 67, 37
1, 13580, Note_off_c, 0, 74, 64
1, 13600, Note_off_c, 0, 67, 64
1, 13805, Note_on_c, 0, 67, 30
1, 13809, Note_on_c, 0, 74, 41
1, 13912, Control_c, 0, 64, 127
1, 13984, Note_off_c, 0, 67, 64
1, 13984, Note_off_c, 0, 74, 64
1, 14212, Control_c, 0, 64, 0
1, 14224, Note_on_c, 0, 74, 61
1, 14231, Note_on_c, 0, 81, 59
1, 14260, Note_off_c, 0, 74, 64
1, 14268, Note_on_c, 0, 77, 55
1, 14268, Note_off_c, 0, 81, 64
1, 14276, Note_on_c, 0, 82, 54
1, 14309, Note_off_c, 0, 77, 64
1, 14318, Note_off_c, 0, 82, 64
1, 14318, Note_on_c, 0, 74, 69
1, 14318, Note_on_c, 0, 81, 66
1, 14369, Note_off_c, 0, 81, 64
1, 14369, Note_off_c, 0, 74, 64
1, 14377, Note_on_c, 0, 77, 55
1, 14382, Note_on_c, 0, 82, 54
1, 14429, Note_off_c, 0, 77, 64
1, 14429, Note_on_c, 0, 81, 73
1, 14429, Note_on_c, 0, 74, 71
1, 14461, Note_off_c, 0, 74, 64
1, 14471, Note_off_c, 0, 82, 64
1, 14515, Note_off_c, 0, 81, 64
1, 14524, Control_c, 0, 64, 127
1, 14608, Control_c, 0, 64, 0
1, 14800, Note_on_c, 0, 70, 36
1, 14814, Note_on_c, 0, 77, 49
1, 14851, Note_on_c, 0, 74, 58
1, 14851, Note_off_c, 0, 77, 64
1, 14864, Note_on_c, 0, 79, 56
1, 14892, Note_off_c, 0, 74, 64
1, 14909, Note_off_c, 0, 79, 64
1, 14909, Note_on_c, 0, 77, 63
1, 14950, Note_off_c, 0, 77, 64
1, 14954, Note_on_c, 0, 74, 60
1, 14968, Note_on_c, 0, 79, 70
1, 15000, Note_off_c, 0, 74, 64
1, 15009, Note_on_c, 0, 77, 67
1, 15022, Note_off_c, 0, 79, 64
1, 15054, Note_off_c, 0, 70, 64
1, 15098, Control_c, 0, 64, 127
1, 15098, Note_off_c, 0, 77, 64
1, 15184, Control_c, 0, 64, 0
1, 15379, Note_on_c, 0, 74, 54
1, 15394, Note_on_c, 0, 81, 37
1, 15416, Note_off_c, 0, 74, 64
1, 15424, Note_on_c, 0, 82, 49
1, 15424, Note_on_c, 0, 77, 53
1, 15452, Note_off_c, 0, 81, 64
1, 15463, Note_off_c, 0, 77, 64
1, 15477, Note_on_c, 0, 74, 56
1, 15477, Note_off_c, 0, 82, 64
1, 15502, Note_on_c, 0, 81, 13
1, 15527, Note_off_c, 0, 74, 64
1, 15536, Note_on_c, 0, 77, 37
1, 15536, Note_on_c, 0, 82, 47
1, 15555, Note_off_c, 0, 81, 64
1, 15588, Note_off_c, 0, 77, 64
1, 15594, Note_off_c, 0, 82, 64
1, 15599, Note_on_c, 0, 74, 64
1, 15599, Note_on_c, 0, 81, 37
1, 15636, Note_off_c, 0, 74, 64
1, 15669, Note_off_c, 0, 81, 64
1, 15709, Control_c, 0, 64, 127
1, 15993, Note_on_c, 0, 69, 20
1, 15996, Note_on_c, 0, 62, 32
1, 16045, Note_off_c, 0, 62, 64
1, 16054, Note_off_c, 0, 69, 64
1, 16234, Note_on_c, 0, 62, 41
1, 16234, Note_on_c, 0, 69, 24
1, 16277, Note_off_c, 0, 62, 64
1, 16290, Note_off_c, 0, 69, 64
1, 16525, Control_c, 0, 64, 0
1, 16635, Note_on_c, 0, 77, 46
1, 16647, Note_on_c, 0, 84, 47
1, 16675, Note_off_c, 0, 77, 64
1, 16681, Note_on_c, 0, 81, 38
1, 16684, Note_on_c, 0, 86, 61
1, 16688, Note_off_c, 0, 84, 64
1, 16726, Note_off_c, 0, 86, 64
1, 16736, Note_on_c, 0, 77, 57
1, 16736, Note_off_c, 0, 81, 64
1, 16752, Note_on_c, 0, 84, 60
1, 16786, Note_on_c, 0, 86, 64
1, 16786, Note_off_c, 0, 77, 64
1, 16786, Note_off_c, 0, 84, 64
1, 16805, Note_on_c, 0, 81, 64
1, 16840, Note_on_c, 0, 84, 82
1, 16847, Note_off_c, 0, 81, 64
1, 16847, Note_on_c, 0, 77, 79
1, 16858, Note_off_c, 0, 86, 64
1, 16884, Note_off_c, 0, 77, 64
1, 16922, Note_off_c, 0, 84, 64
1, 16945, Control_c, 0, 64, 127
1, 17220, Note_on_c, 0, 72, 35
1, 17241, Note_on_c, 0, 65, 15
1, 17269, Note_off_c, 0, 72, 64
1, 17293, Note_off_c, 0, 65, 64
1, 17401, Control_c, 0, 64, 0
1, 17480, Note_on_c, 0, 65, 35
1, 17480, Note_on_c, 0, 72, 38
1, 17544, Note_off_c, 0, 72, 64
1, 17552, Note_off_c, 0, 65, 64
1, 17567, Control_c, 0, 64, 127
1, 17867, Control_c, 0, 64, 0
1, 17895, Note_on_c, 0, 81, 60
1, 17906, Note_on_c, 0, 88, 57
1, 17932, Note_off_c, 0, 81, 64
1, 17945, Note_off_c, 0, 88, 64
1, 17954, Note_on_c, 0, 89, 62
1, 17971, Note_on_c, 0, 84, 24
1, 17996, Note_off_c, 0, 89, 64
1, 17999, Note_on_c, 0, 88, 57
1, 17999, Note_on_c, 0, 81, 46
1, 18023, Note_off_c, 0, 84, 64
1, 18051, Note_off_c, 0, 88, 64
1, 18059, Note_on_c, 0, 84, 39
1, 18059, Note_off_c, 0, 81, 64
1, 18059, Note_on_c, 0, 89, 69
1, 18109, Note_off_c, 0, 84, 64
1, 18120, Note_on_c, 0, 81, 78
1, 18124, Note_on_c, 0, 88, 86
1, 18154, Note_off_c, 0, 81, 64
1, 18159, Note_off_c, 0, 89, 64
1, 18210, Note_off_c, 0, 88, 64
1, 18215, Control_c, 0, 64, 127
1, 18524, Note_on_c, 0, 72, 14
1, 18524, Note_on_c, 0, 64, 35
1, 18578, Note_off_c, 0, 72, 64
1, 18596, Note_off_c, 0, 64, 64
1, 18683, Control_c, 0, 64, 0
1, 18762, Note_on_c, 0, 72, 49
1, 18775, Note_on_c, 0, 64, 37
1, 18886, Control_c, 0, 64, 127
1, 18901, Note_off_c, 0, 72, 64
1, 18906, Note_off_c, 0, 64, 64
1, 19093, Note_on_c, 0, 80, 63
1, 19113, Control_c, 0, 64, 0
1, 19174, Note_on_c, 0, 76, 67
1, 19190, Note_off_c, 0, 80, 64
1, 19308, Note_off_c, 0, 76, 64
1, 19418, Note_on_c, 0, 72, 60
1, 19418, Note_on_c, 0, 68, 45
1, 19427, Note_on_c, 0, 52, 51
1, 19435, Note_on_c, 0, 62, 38
1, 19472, Note_off_c, 0, 52, 64
1, 19477, Note_off_c, 0, 68, 64
1, 19482, Note_off_c, 0, 62, 64
1, 19497, Control_c, 0, 64, 127
1, 19497, Note_off_c, 0, 72, 64
1, 19653, Control_c, 0, 64, 0
1, 19736, Note_on_c, 0, 80, 60
1, 19839, Note_off_c, 0, 80, 64
1, 19839, Note_on_c, 0, 76, 49
1, 19978, Note_off_c, 0, 76, 64
1, 20037, Control_c, 0, 64, 127
1, 20102, Note_on_c, 0, 68, 29
1, 20112, Note_on_c, 0, 72, 28
1, 20112, Note_on_c, 0, 62, 28
1, 20120, Note_on_c, 0, 52, 28
1, 20184, Note_off_c, 0, 62, 64
1, 20196, Note_off_c, 0, 68, 64
1, 20216, Note_off_c, 0, 52, 64
1, 20226, Note_off_c, 0, 72, 64
1, 20324, Control_c, 0, 64, 0
1, 20432, Note_on_c, 0, 81, 41
1, 20553, Note_off_c, 0, 81, 64
1, 20564, Note_on_c, 0, 76, 42
1, 20803, Note_off_c, 0, 76, 64
1, 20851, Note_on_c, 0, 69, 27
1, 20925, Control_c, 0, 64, 127
1, 20925, Note_off_c, 0, 69, 64
1, 21294, Note_on_c, 0, 69, 21
1, 21305, Note_on_c, 0, 60, 27
1, 21310, Note_on_c, 0, 45, 20
1, 21310, Note_on_c, 0, 52, 31
1, 21364, Note_off_c, 0, 52, 64
1, 21375, Note_off_c, 0, 45, 64
1, 21380, Note_off_c, 0, 60, 64
1, 21380, Note_off_c, 0, 69, 64
1, 21628, Note_on_c, 0, 45, 12
1, 21628, Note_on_c, 0, 69, 15
1, 21641, Note_on_c, 0, 52, 18
1, 21641, Note_on_c, 0, 60, 17
1, 21698, Note_off_c, 0, 52, 64
1, 21703, Note_off_c, 0, 45, 64
1, 21740, Note_off_c, 0, 60, 64
1, 21985, Note_off_c, 0, 69, 64
1, 22115, Note_on_c, 0, 46, 60
1, 22146, Control_c, 0, 64, 0
1, 22180, Note_off_c, 0, 46, 64
1, 22180, Note_on_c, 0, 48, 64
1, 22219, Note_off_c, 0, 48, 64
1, 22233, Note_on_c, 0, 46, 55
1, 22266, Note_on_c, 0, 48, 82
1, 22322, Note_off_c, 0, 48, 64
1, 22630, Note_on_c, 0, 62, 54
1, 22633, Note_on_c, 0, 52, 54
1, 22694, Note_on_c, 0, 64, 75
1, 22711, Note_off_c, 0, 52, 64
1, 22737, Note_off_c, 0, 62, 64
1, 22754, Note_off_c, 0, 64, 64
1, 22960, Note_on_c, 0, 52, 73
1, 22964, Note_on_c, 0, 62, 63
1, 22968, Note_on_c, 0, 64, 73
1, 22998, Note_off_c, 0, 46, 64
1, 23021, Control_c, 0, 64, 127
1, 23360, Note_on_c, 0, 46, 60
1, 23422, Note_off_c, 0, 46, 64
1, 23427, Note_on_c, 0, 48, 64
1, 23466, Note_off_c, 0, 48, 64
1, 23475, Note_on_c, 0, 46, 60
1, 23475, Control_c, 0, 64, 0
1, 23509, Note_on_c, 0, 48, 77
1, 23522, Note_off_c, 0, 46, 64
1, 23548, Note_off_c, 0, 62, 64
1, 23548, Note_off_c, 0, 64, 64
1, 23567, Note_off_c, 0, 52, 64
1, 23573, Note_on_c, 0, 46, 71
1, 23587, Note_off_c, 0, 48, 64
1, 23912, Note_on_c, 0, 62, 62
1, 23920, Note_on_c, 0, 52, 53
1, 23920, Control_c, 0, 64, 127
1, 23943, Control_c, 0, 64, 0
1, 23992, Note_on_c, 0, 64, 73
1, 24012, Note_off_c, 0, 52, 64
1, 24020, Note_off_c, 0, 62, 64
1, 24026, Note_off_c, 0, 64, 64
1, 24260, Note_on_c, 0, 64, 74
1, 24263, Note_on_c, 0, 62, 62
1, 24269, Note_on_c, 0, 52, 67
1, 24350, Control_c, 0, 64, 127
1, 24367, Note_off_c, 0, 46, 64
1, 24669, Note_on_c, 0, 46, 56
1, 24728, Note_off_c, 0, 46, 64
1, 24733, Note_on_c, 0, 48, 58
1, 24759, Control_c, 0, 64, 0
1, 24775, Note_off_c, 0, 48, 64
1, 24779, Note_on_c, 0, 46, 62
1, 24817, Note_off_c, 0, 46, 64
1, 24821, Note_on_c, 0, 48, 76
1, 24828, Note_off_c, 0, 62, 64
1, 24842, Note_off_c, 0, 64, 64
1, 24885, Note_on_c, 0, 46, 54
1, 24901, Note_off_c, 0, 52, 64
1, 24910, Note_off_c, 0, 48, 64
1, 24962, Note_off_c, 0, 46, 64
1, 25168, Note_on_c, 0, 46, 73
1, 25238, Note_off_c, 0, 46, 64
1, 25252, Note_on_c, 0, 62, 37
1, 25255, Note_on_c, 0, 48, 66
1, 25258, Note_on_c, 0, 64, 33
1, 25258, Note_on_c, 0, 52, 41
1, 25313, Note_off_c, 0, 48, 64
1, 25414, Note_off_c, 0, 64, 64
1, 25424, Note_off_c, 0, 62, 64
1, 25430, Note_off_c, 0, 52, 64
1, 25483, Note_on_c, 0, 46, 59
1, 25534, Note_off_c, 0, 46, 64
1, 25739, Note_on_c, 0, 46, 49
1, 25825, Note_off_c, 0, 46, 64
1, 25831, Note_on_c, 0, 62, 35
1, 25831, Note_on_c, 0, 48, 59
1, 25831, Note_on_c, 0, 64, 37
1, 25837, Note_on_c, 0, 52, 36
1, 25882, Note_off_c, 0, 48, 64
1, 25898, Note_off_c, 0, 52, 64
1, 25921, Note_off_c, 0, 64, 64
1, 25926, Note_off_c, 0, 62, 64
1, 26077, Note_on_c, 0, 45, 31
1, 26355, Note_on_c, 0, 61, 38
1, 26366, Note_on_c, 0, 52, 34
1, 26420, Note_off_c, 0, 61, 64
1, 26436, Control_c, 0, 64, 127
1, 26453, Note_off_c, 0, 52, 64
1, 26458, Note_on_c, 0, 64, 42
1, 26511, Note_off_c, 0, 64, 64
1, 26556, Control_c, 0, 64, 0
1, 26695, Note_on_c, 0, 61, 34
1, 26706, Note_on_c, 0, 52, 46
1, 26706, Note_on_c, 0, 64, 47
1, 26796, Note_off_c, 0, 45, 64
1, 26884, Note_on_c, 0, 42, 62
1, 26920, Note_off_c, 0, 42, 64
1, 27076, Note_on_c, 0, 44, 68
1, 27108, Note_off_c, 0, 52, 64
1, 27118, Note_off_c, 0, 44, 64
1, 27188, Note_off_c, 0, 64, 64
1, 27210, Note_off_c, 0, 61, 64
1, 27327, Note_on_c, 0, 40, 81
1, 27378, Note_off_c, 0, 40, 64
1, 27408, Control_c, 0, 64, 127
1, 27715, Note_on_c, 0, 69, 75
1, 27721, Note_on_c, 0, 64, 71
1, 27721, Note_on_c, 0, 61, 54
1, 27757, Note_off_c, 0, 69, 64
1, 27781, Note_on_c, 0, 71, 76
1, 27821, Note_off_c, 0, 71, 64
1, 27821, Note_on_c, 0, 69, 57
1, 27824, Note_off_c, 0, 64, 64
1, 27876, Note_off_c, 0, 69, 64
1, 27885, Note_on_c, 0, 71, 70
1, 27906, Note_off_c, 0, 61, 64
1, 27934, Note_on_c, 0, 68, 89
1, 27934, Note_on_c, 0, 63, 78
1, 27943, Note_on_c, 0, 60, 68
1, 27966, Note_off_c, 0, 71, 64
1, 28065, Note_off_c, 0, 60, 64
1, 28082, Note_off_c, 0, 68, 64
1, 28085, Note_off_c, 0, 63, 64
1, 28115, Control_c, 0, 64, 0
1, 28296, Note_on_c, 0, 62, 58
1, 28296, Note_on_c, 0, 67, 91
1, 28302, Note_on_c, 0, 59, 54
1, 28333, Note_off_c, 0, 67, 64
1, 28364, Note_on_c, 0, 69, 48
1, 28409, Note_on_c, 0, 67, 56
1, 28414, Note_off_c, 0, 69, 64
1, 28462, Note_on_c, 0, 69, 59
1, 28466, Note_off_c, 0, 67, 64
1, 28508, Note_off_c, 0, 62, 64
1, 28508, Note_on_c, 0, 61, 70
1, 28520, Note_off_c, 0, 59, 64
1, 28528, Note_on_c, 0, 58, 42
1, 28531, Note_on_c, 0, 66, 70
1, 28542, Note_off_c, 0, 69, 64
1, 28642, Note_off_c, 0, 66, 64
1, 28672, Note_off_c, 0, 61, 64
1, 28682, Note_off_c, 0, 58, 64
1, 28868, Note_on_c, 0, 60, 50
1, 28873, Note_on_c, 0, 57, 33
1, 28877, Note_on_c, 0, 65, 53
1, 28918, Note_off_c, 0, 65, 64
1, 28932, Note_on_c, 0, 67, 52
1, 28971, Note_on_c, 0, 65, 61
1, 28977, Note_off_c, 0, 67, 64
1, 29018, Note_off_c, 0, 65, 64
1, 29032, Note_on_c, 0, 67, 62
1, 29066, Note_off_c, 0, 60, 64
1, 29083, Note_off_c, 0, 57, 64
1, 29083, Note_off_c, 0, 67, 64
1, 29097, Note_on_c, 0, 64, 63
1, 29102, Note_on_c, 0, 56, 30
1, 29107, Note_on_c, 0, 59, 44
1, 29197, Note_off_c, 0, 64, 64
1, 29214, Note_off_c, 0, 59, 64
1, 29260, Note_off_c, 0, 56, 64
1, 29436, Note_on_c, 0, 54, 57
1, 29448, Note_on_c, 0, 62, 66
1, 29448, Note_on_c, 0, 57, 45
1, 29487, Note_off_c, 0, 62, 64
1, 29503, Note_on_c, 0, 64, 58
1, 29540, Note_off_c, 0, 64, 64
1, 29540, Note_on_c, 0, 62, 79
1, 29597, Note_on_c, 0, 64, 73
1, 29601, Note_off_c, 0, 62, 64
1, 29651, Note_off_c, 0, 54, 64
1, 29656, Note_on_c, 0, 61, 81
1, 29664, Note_on_c, 0, 53, 84
1, 29678, Note_off_c, 0, 64, 64
1, 29785, Note_off_c, 0, 61, 64
1, 29788, Note_off_c, 0, 57, 64
1, 29813, Note_off_c, 0, 53, 64
1, 30015, Note_on_c, 0, 57, 53
1, 30015, Note_on_c, 0, 52, 60
1, 30019, Note_on_c, 0, 60, 71
1, 30061, Note_off_c, 0, 60, 64
1, 30083, Note_on_c, 0, 64, 53
1, 30116, Note_on_c, 0, 60, 68
1, 30124, Note_off_c, 0, 64, 64
1, 30161, Note_off_c, 0, 60, 64
1, 30177, Note_on_c, 0, 64, 57
1, 30203, Note_off_c, 0, 52, 64
1, 30217, Note_off_c, 0, 64, 64
1, 30224, Note_on_c, 0, 60, 44
1, 30241, Note_on_c, 0, 59, 83
1, 30264, Note_on_c, 0, 51, 47
1, 30280, Note_off_c, 0, 60, 64
1, 30291, Note_off_c, 0, 57, 64
1, 30314, Note_off_c, 0, 59, 64
1, 30359, Note_off_c, 0, 51, 64
1, 30573, Note_on_c, 0, 58, 48
1, 30592, Note_on_c, 0, 52, 41
1, 30603, Note_on_c, 0, 50, 33
1, 30631, Note_off_c, 0, 58, 64
1, 30696, Note_on_c, 0, 58, 39
1, 30742, Note_on_c, 0, 64, 2
1, 30748, Note_off_c, 0, 58, 64
1, 30809, Note_off_c, 0, 50, 64
1, 30820, Note_on_c, 0, 49, 40
1, 30829, Note_off_c, 0, 64, 64
1, 30857, Note_on_c, 0, 57, 25
1, 30916, Note_off_c, 0, 52, 64
1, 30941, Note_off_c, 0, 49, 64
1, 30955, Control_c, 0, 64, 127
1, 30996, Note_off_c, 0, 57, 64
1, 31122, Control_c, 0, 64, 0
1, 31153, Note_on_c, 0, 40, 62
1, 31191, Note_off_c, 0, 40, 64
1, 31213, Note_on_c, 0, 45, 54
1, 31294, Note_off_c, 0, 45, 64
1, 31467, Note_on_c, 0, 33, 50
1, 31522, Note_off_c, 0, 33, 64
1, 31565, Control_c, 0, 64, 127
1, 31746, Control_c, 0, 64, 0
1, 31831, Note_on_c, 0, 64, 29
1, 31831, Note_on_c, 0, 70, 51
1, 31841, Note_on_c, 0, 62, 25
1, 31876, Note_off_c, 0, 70, 64
1, 31896, Note_on_c, 0, 76, 35
1, 31926, Note_on_c, 0, 70, 53
1, 31944, Note_off_c, 0, 76, 64
1, 31976, Note_off_c, 0, 70, 64
1, 32007, Note_on_c, 0, 76, 55
1, 32040, Note_off_c, 0, 62, 64
1, 32052, Note_off_c, 0, 76, 64
1, 32058, Note_on_c, 0, 61, 43
1, 32075, Note_on_c, 0, 69, 41
1, 32116, Note_off_c, 0, 61, 64
1, 32130, Note_off_c, 0, 64, 64
1, 32158, Note_off_c, 0, 69, 64
1, 32202, Control_c, 0, 64, 127
1, 32345, Control_c, 0, 64, 0
1, 32369, Note_on_c, 0, 52, 70
1, 32406, Note_off_c, 0, 52, 64
1, 32448, Note_on_c, 0, 57, 35
1, 32514, Note_off_c, 0, 57, 64
1, 32684, Note_on_c, 0, 45, 39
1, 32729, Control_c, 0, 64, 127
1, 32735, Note_off_c, 0, 45, 64
1, 32969, Control_c, 0, 64, 0
1, 33061, Note_on_c, 0, 76, 43
1, 33061, Note_on_c, 0, 82, 72
1, 33064, Note_on_c, 0, 74, 47
1, 33108, Note_off_c, 0, 82, 64
1, 33128, Note_on_c, 0, 88, 54
1, 33167, Note_off_c, 0, 88, 64
1, 33167, Note_on_c, 0, 82, 60
1, 33225, Note_off_c, 0, 82, 64
1, 33230, Note_on_c, 0, 88, 44
1, 33271, Note_off_c, 0, 74, 64
1, 33284, Note_off_c, 0, 88, 64
1, 33311, Note_on_c, 0, 73, 29
1, 33311, Note_on_c, 0, 81, 68
1, 33355, Note_off_c, 0, 76, 64
1, 33355, Note_off_c, 0, 73, 64
1, 33412, Control_c, 0, 64, 127
1, 33575, Note_off_c, 0, 81, 64
1, 33632, Note_on_c, 0, 64, 63
1, 33640, Control_c, 0, 64, 0
1, 33673, Note_on_c, 0, 69, 67
1, 33676, Note_off_c, 0, 64, 64
1, 33751, Note_off_c, 0, 69, 64
1, 33916, Note_on_c, 0, 57, 70
1, 33952, Note_off_c, 0, 57, 64
1, 33999, Control_c, 0, 64, 127
1, 34155, Control_c, 0, 64, 0
1, 34305, Note_on_c, 0, 94, 84
1, 34309, Note_on_c, 0, 86, 81
1, 34314, Note_on_c, 0, 88, 81
1, 34351, Note_off_c, 0, 94, 64
1, 34364, Note_on_c, 0, 100, 73
1, 34403, Note_off_c, 0, 100, 64
1, 34417, Note_on_c, 0, 94, 74
1, 34486, Note_on_c, 0, 100, 80
1, 34503, Note_off_c, 0, 94, 64
1, 34528, Note_off_c, 0, 86, 64
1, 34534, Note_on_c, 0, 85, 71
1, 34537, Note_on_c, 0, 93, 93
1, 34559, Note_off_c, 0, 88, 64
1, 34565, Note_off_c, 0, 85, 64
1, 34570, Note_off_c, 0, 100, 64
1, 34598, Control_c, 0, 64, 127
1, 34621, Note_off_c, 0, 93, 64
1, 34777, Control_c, 0, 64, 0
1, 34893, Note_on_c, 0, 74, 80
1, 34893, Note_on_c, 0, 76, 68
1, 34893, Note_on_c, 0, 82, 74
1, 34935, Note_off_c, 0, 82, 64
1, 34949, Note_on_c, 0, 88, 57
1, 34991, Note_off_c, 0, 88, 64
1, 35000, Note_on_c, 0, 82, 51
1, 35053, Note_off_c, 0, 82, 64
1, 35061, Note_on_c, 0, 88, 48
1, 35071, Note_off_c, 0, 74, 64
1, 35119, Note_on_c, 0, 73, 62
1, 35122, Note_on_c, 0, 81, 82
1, 35138, Note_off_c, 0, 76, 64
1, 35149, Note_off_c, 0, 88, 64
1, 35155, Note_off_c, 0, 73, 64
1, 35185, Note_off_c, 0, 81, 64
1, 35185, Control_c, 0, 64, 127
1, 35342, Control_c, 0, 64, 0
1, 35459, Note_on_c, 0, 70, 62
1, 35476, Note_on_c, 0, 64, 66
1, 35482, Note_on_c, 0, 62, 52
1, 35503, Note_off_c, 0, 70, 64
1, 35534, Note_on_c, 0, 76, 38
1, 35560, Note_on_c, 0, 70, 43
1, 35582, Note_off_c, 0, 76, 64
1, 35620, Note_off_c, 0, 70, 64
1, 35626, Note_on_c, 0, 76, 53
1, 35659, Note_off_c, 0, 62, 64
1, 35673, Note_off_c, 0, 76, 64
1, 35673, Note_on_c, 0, 61, 62
1, 35687, Note_on_c, 0, 69, 62
1, 35687, Note_off_c, 0, 64, 64
1, 35716, Note_off_c, 0, 61, 64
1, 35729, Note_off_c, 0, 69, 64
1, 35749, Control_c, 0, 64, 127
1, 35844, Control_c, 0, 64, 0
1, 36035, Note_on_c, 0, 58, 48
1, 36061, Note_on_c, 0, 52, 53
1, 36067, Note_on_c, 0, 50, 40
1, 36089, Note_off_c, 0, 58, 64
1, 36124, Note_on_c, 0, 64, 35
1, 36149, Note_on_c, 0, 58, 38
1, 36206, Note_off_c, 0, 58, 64
1, 36275, Note_off_c, 0, 50, 64
1, 36284, Note_off_c, 0, 64, 64
1, 36297, Note_on_c, 0, 57, 43
1, 36297, Note_on_c, 0, 49, 37
1, 36379, Note_off_c, 0, 52, 64
1, 36397, Note_off_c, 0, 57, 64
1, 36397, Note_off_c, 0, 49, 64
1, 36408, Control_c, 0, 64, 127
1, 36553, Control_c, 0, 64, 0
1, 36807, Note_on_c, 0, 74, 42
1, 36824, Note_on_c, 0, 81, 11
1, 36852, Note_off_c, 0, 74, 64
1, 36852, Note_on_c, 0, 82, 47
1, 36860, Note_on_c, 0, 77, 42
1, 36899, Note_off_c, 0, 77, 64
1, 36902, Note_off_c, 0, 82, 64
1, 36924, Note_on_c, 0, 74, 48
1, 36955, Note_on_c, 0, 77, 64
1, 36958, Note_off_c, 0, 81, 64
1, 36963, Note_on_c, 0, 82, 52
1, 36963, Note_off_c, 0, 74, 64
1, 37007, Note_off_c, 0, 77, 64
1, 37007, Note_off_c, 0, 82, 64
1, 37016, Note_on_c, 0, 81, 69
1, 37021, Note_on_c, 0, 74, 66
1, 37053, Note_off_c, 0, 74, 64
1, 37078, Note_off_c, 0, 81, 64
1, 37127, Control_c, 0, 64, 127
1, 37353, Note_on_c, 0, 82, 38
1, 37401, Note_off_c, 0, 82, 64
1, 37418, Note_on_c, 0, 81, 50
1, 37476, Note_off_c, 0, 81, 64
1, 37496, Note_on_c, 0, 77, 23
1, 37546, Note_off_c, 0, 77, 64
1, 37551, Note_on_c, 0, 69, 21
1, 37551, Note_on_c, 0, 74, 12
1, 37601, Note_off_c, 0, 74, 64
1, 37615, Note_off_c, 0, 69, 64
1, 37623, Note_on_c, 0, 62, 42
1, 37662, Note_off_c, 0, 62, 64
1, 37882, Control_c, 0, 64, 0
1, 38022, Note_on_c, 0, 79, 60
1, 38028, Note_on_c, 0, 86, 64
1, 38063, Note_off_c, 0, 79, 64
1, 38069, Note_off_c, 0, 86, 64
1, 38078, Note_on_c, 0, 83, 64
1, 38078, Note_on_c, 0, 88, 65
1, 38119, Note_on_c, 0, 79, 65
1, 38119, Note_off_c, 0, 88, 64
1, 38122, Note_off_c, 0, 83, 64
1, 38122, Note_on_c, 0, 86, 55
1, 38175, Note_off_c, 0, 79, 64
1, 38181, Note_off_c, 0, 86, 64
1, 38181, Note_on_c, 0, 88, 71
1, 38184, Note_on_c, 0, 83, 85
1, 38236, Note_off_c, 0, 83, 64
1, 38236, Note_on_c, 0, 86, 78
1, 38236, Note_on_c, 0, 79, 76
1, 38264, Note_off_c, 0, 88, 64
1, 38278, Note_off_c, 0, 79, 64
1, 38315, Note_off_c, 0, 86, 64
1, 38337, Control_c, 0, 64, 127
1, 38604, Note_on_c, 0, 88, 47
1, 38648, Note_off_c, 0, 88, 64
1, 38660, Note_on_c, 0, 86, 50
1, 38713, Note_on_c, 0, 83, 79
1, 38729, Note_off_c, 0, 86, 64
1, 38773, Note_on_c, 0, 79, 48
1, 38793, Note_on_c, 0, 74, 35
1, 38807, Note_off_c, 0, 83, 64
1, 38824, Note_off_c, 0, 79, 64
1, 38851, Note_off_c, 0, 74, 64
1, 38857, Note_on_c, 0, 67, 49
1, 38908, Note_off_c, 0, 67, 64
1, 39056, Control_c, 0, 64, 0
1, 39270, Note_on_c, 0, 81, 53
1, 39276, Note_on_c, 0, 74, 51
1, 39311, Note_off_c, 0, 81, 64
1, 39315, Note_off_c, 0, 74, 64
1, 39315, Note_on_c, 0, 82, 57
1, 39322, Note_on_c, 0, 77, 48
1, 39362, Note_off_c, 0, 82, 64
1, 39362, Note_off_c, 0, 77, 64
1, 39362, Note_on_c, 0, 81, 63
1, 39372, Note_on_c, 0, 74, 71
1, 39409, Note_off_c, 0, 81, 64
1, 39414, Note_off_c, 0, 74, 64
1, 39420, Note_on_c, 0, 77, 60
1, 39428, Note_on_c, 0, 82, 58
1, 39468, Note_on_c, 0, 81, 77
1, 39473, Note_on_c, 0, 74, 71
1, 39473, Note_off_c, 0, 77, 64
1, 39501, Note_off_c, 0, 82, 64
1, 39501, Note_off_c, 0, 74, 64
1, 39546, Note_off_c, 0, 81, 64
1, 39560, Control_c, 0, 64, 127
1, 39643, Control_c, 0, 64, 0
1, 39835, Note_on_c, 0, 70, 33
1, 39844, Note_on_c, 0, 77, 57
1, 39883, Note_off_c, 0, 77, 64
1, 39883, Note_on_c, 0, 74, 58
1, 39893, Note_off_c, 0, 70, 64
1, 39902, Note_on_c, 0, 79, 63
1, 39921, Note_off_c, 0, 74, 64
1, 39936, Note_on_c, 0, 70, 30
1, 39941, Note_on_c, 0, 77, 63
1, 39946, Note_off_c, 0, 79, 64
1, 39989, Note_on_c, 0, 74, 41
1, 39989, Note_off_c, 0, 70, 64
1, 39992, Note_off_c, 0, 77, 64
1, 40006, Note_on_c, 0, 79, 73
1, 40038, Note_off_c, 0, 74, 64
1, 40052, Note_on_c, 0, 77, 70
1, 40058, Note_off_c, 0, 79, 64
1, 40058, Note_on_c, 0, 70, 34
1, 40119, Note_off_c, 0, 70, 64
1, 40133, Note_off_c, 0, 77, 64
1, 40133, Control_c, 0, 64, 127
1, 40195, Control_c, 0, 64, 0
1, 40429, Note_on_c, 0, 81, 40
1, 40450, Note_on_c, 0, 74, 14
1, 40464, Note_on_c, 0, 82, 54
1, 40476, Note_on_c, 0, 77, 36
1, 40476, Note_off_c, 0, 81, 64
1, 40512, Note_off_c, 0, 82, 64
1, 40521, Note_off_c, 0, 77, 64
1, 40535, Note_on_c, 0, 81, 33
1, 40574, Note_off_c, 0, 74, 64
1, 40574, Note_on_c, 0, 82, 51
1, 40582, Note_off_c, 0, 81, 64
1, 40587, Note_on_c, 0, 77, 54
1, 40632, Note_off_c, 0, 77, 64
1, 40637, Note_on_c, 0, 81, 70
1, 40641, Note_off_c, 0, 82, 64
1, 40641, Note_on_c, 0, 74, 65
1, 40680, Note_off_c, 0, 74, 64
1, 40715, Note_off_c, 0, 81, 64
1, 40746, Control_c, 0, 64, 127
1, 40818, Control_c, 0, 64, 0
1, 40971, Note_on_c, 0, 82, 50
1, 41022, Note_off_c, 0, 82, 64
1, 41036, Note_on_c, 0, 81, 54
1, 41089, Note_off_c, 0, 81, 64
1, 41094, Control_c, 0, 64, 127
1, 41102, Note_on_c, 0, 77, 37
1, 41148, Note_off_c, 0, 77, 64
1, 41155, Note_on_c, 0, 74, 40
1, 41175, Note_on_c, 0, 69, 44
1, 41211, Note_off_c, 0, 74, 64
1, 41236, Note_off_c, 0, 69, 64
1, 41250, Note_on_c, 0, 62, 50
1, 41290, Note_off_c, 0, 62, 64
1, 41465, Control_c, 0, 64, 0
1, 41644, Note_on_c, 0, 73, 47
1, 41655, Note_on_c, 0, 81, 57
1, 41687, Note_off_c, 0, 73, 64
1, 41693, Note_off_c, 0, 81, 64
1, 41693, Note_on_c, 0, 82, 62
1, 41708, Note_on_c, 0, 77, 52
1, 41749, Note_on_c, 0, 81, 61
1, 41749, Note_off_c, 0, 82, 64
1, 41749, Note_off_c, 0, 77, 64
1, 41754, Note_on_c, 0, 73, 43
1, 41802, Note_off_c, 0, 81, 64
1, 41815, Note_on_c, 0, 82, 60
1, 41815, Note_on_c, 0, 77, 54
1, 41819, Note_off_c, 0, 73, 64
1, 41861, Note_on_c, 0, 81, 76
1, 41871, Note_off_c, 0, 77, 64
1, 41871, Note_on_c, 0, 73, 71
1, 41902, Note_off_c, 0, 82, 64
1, 41907, Note_off_c, 0, 73, 64
1, 41938, Note_off_c, 0, 81, 64
1, 41956, Control_c, 0, 64, 127
1, 42100, Control_c, 0, 64, 0
1, 42240, Note_on_c, 0, 82, 41
1, 42289, Note_off_c, 0, 82, 64
1, 42311, Note_on_c, 0, 81, 37
1, 42361, Note_on_c, 0, 77, 50
1, 42375, Note_off_c, 0, 81, 64
1, 42404, Note_on_c, 0, 73, 33
1, 42407, Note_off_c, 0, 77, 64
1, 42415, Note_on_c, 0, 69, 26
1, 42460, Note_off_c, 0, 73, 64
1, 42476, Note_off_c, 0, 69, 64
1, 42484, Control_c, 0, 64, 127
1, 42492, Note_on_c, 0, 61, 46
1, 42538, Note_off_c, 0, 61, 64
1, 42724, Control_c, 0, 64, 0
1, 42871, Note_on_c, 0, 84, 76
1, 42882, Note_on_c, 0, 77, 27
1, 42907, Note_off_c, 0, 84, 64
1, 42927, Note_on_c, 0, 81, 56
1, 42930, Note_on_c, 0, 86, 69
1, 42930, Note_off_c, 0, 77, 64
1, 42972, Note_off_c, 0, 81, 64
1, 42972, Note_off_c, 0, 86, 64
1, 42985, Note_on_c, 0, 84, 60
1, 42985, Note_on_c, 0, 77, 70
1, 43028, Note_off_c, 0, 77, 64
1, 43031, Note_off_c, 0, 84, 64
1, 43041, Note_on_c, 0, 81, 57
1, 43041, Note_on_c, 0, 86, 77
1, 43102, Note_on_c, 0, 77, 75
1, 43102, Note_on_c, 0, 84, 94
1, 43108, Note_off_c, 0, 81, 64
1, 43128, Note_off_c, 0, 86, 64
1, 43136, Note_off_c, 0, 77, 64
1, 43192, Control_c, 0, 64, 127
1, 43204, Note_off_c, 0, 84, 64
1, 43346, Control_c, 0, 64, 0
1, 43477, Note_on_c, 0, 86, 52
1, 43520, Note_on_c, 0, 84, 62
1, 43523, Note_off_c, 0, 86, 64
1, 43560, Note_off_c, 0, 84, 64
1, 43585, Note_on_c, 0, 81, 39
1, 43616, Note_on_c, 0, 77, 41
1, 43629, Note_on_c, 0, 72, 48
1, 43637, Note_off_c, 0, 81, 64
1, 43663, Note_off_c, 0, 77, 64
1, 43680, Note_off_c, 0, 72, 64
1, 43680, Control_c, 0, 64, 127
1, 43685, Note_on_c, 0, 69, 51
1, 43729, Note_off_c, 0, 69, 64
1, 43746, Note_on_c, 0, 60, 78
1, 43780, Note_off_c, 0, 60, 64
1, 43922, Control_c, 0, 64, 0
1, 44045, Note_on_c, 0, 84, 79
1, 44103, Note_on_c, 0, 81, 89
1, 44134, Note_off_c, 0, 84, 64
1, 44239, Note_off_c, 0, 81, 64
1, 44293, Control_c, 0, 64, 127
1, 44329, Note_on_c, 0, 73, 59
1, 44332, Note_on_c, 0, 67, 57
1, 44332, Note_on_c, 0, 77, 79
1, 44337, Note_on_c, 0, 57, 49
1, 44374, Note_off_c, 0, 67, 64
1, 44379, Note_off_c, 0, 73, 64
1, 44379, Note_off_c, 0, 57, 64
1, 44418, Note_off_c, 0, 77, 64
1, 44485, Control_c, 0, 64, 0
1, 44630, Note_on_c, 0, 85, 54
1, 44725, Note_off_c, 0, 85, 64
1, 44730, Note_on_c, 0, 81, 53
1, 44849, Note_off_c, 0, 81, 64
1, 44969, Note_on_c, 0, 73, 32
1, 44978, Note_on_c, 0, 67, 38
1, 44981, Note_on_c, 0, 77, 32
1, 44988, Note_on_c, 0, 57, 29
1, 45031, Note_off_c, 0, 67, 64
1, 45039, Note_off_c, 0, 73, 64
1, 45047, Note_off_c, 0, 57, 64
1, 45047, Note_off_c, 0, 77, 64
1, 45086, Control_c, 0, 64, 127
1, 45145, Control_c, 0, 64, 0
1, 45259, Note_on_c, 0, 86, 48
1, 45315, Note_off_c, 0, 86, 64
1, 45374, Note_on_c, 0, 81, 36
1, 45468, Note_off_c, 0, 81, 64
1, 45504, Control_c, 0, 64, 127
1, 45672, Note_on_c, 0, 74, 41
1, 45721, Note_off_c, 0, 74, 64
1, 46033, Control_c, 0, 64, 0
1, 46090, Note_on_c, 0, 74, 41
1, 46090, Note_on_c, 0, 65, 39
1, 46090, Note_on_c, 0, 57, 28
1, 46093, Note_on_c, 0, 50, 36
1, 46136, Note_off_c, 0, 74, 64
1, 46140, Note_off_c, 0, 65, 64
1, 46147, Note_off_c, 0, 50, 64
1, 46147, Note_off_c, 0, 57, 64
1, 46402, Note_on_c, 0, 57, 17
1, 46402, Note_on_c, 0, 74, 43
1, 46407, Note_on_c, 0, 65, 30
1, 46418, Note_on_c, 0, 50, 17
1, 46487, Control_c, 0, 64, 127
1, 46661, Note_off_c, 0, 57, 64
1, 46705, Note_off_c, 0, 74, 64
1, 46730, Note_off_c, 0, 50, 64
1, 46738, Note_off_c, 0, 65, 64
1, 47122, Note_on_c, 0, 46, 45
1, 47170, Note_on_c, 0, 48, 45
1, 47186, Note_off_c, 0, 46, 64
1, 47228, Note_on_c, 0, 46, 26
1, 47234, Note_off_c, 0, 48, 64
1, 47279, Note_on_c, 0, 48, 45
1, 47293, Note_off_c, 0, 46, 64
1, 47338, Note_on_c, 0, 46, 46
1, 47343, Note_off_c, 0, 48, 64
1, 47518, Control_c, 0, 64, 127
1, 47649, Note_on_c, 0, 52, 62
1, 47654, Note_on_c, 0, 62, 47
1, 47661, Control_c, 0, 64, 0
1, 47728, Note_on_c, 0, 64, 51
1, 47736, Note_off_c, 0, 52, 64
1, 47752, Note_off_c, 0, 62, 64
1, 47771, Note_off_c, 0, 64, 64
1, 47958, Note_on_c, 0, 62, 48
1, 47964, Note_on_c, 0, 52, 74
1, 47967, Note_on_c, 0, 64, 74
1, 48019, Note_off_c, 0, 46, 64
1, 48081, Control_c, 0, 64, 127
1, 48313, Note_off_c, 0, 64, 64
1, 48362, Note_on_c, 0, 46, 58
1, 48362, Note_off_c, 0, 62, 64
1, 48416, Control_c, 0, 64, 0
1, 48437, Note_on_c, 0, 48, 61
1, 48443, Note_off_c, 0, 52, 64
1, 48477, Note_off_c, 0, 48, 64
1, 48537, Note_on_c, 0, 48, 68
1, 48613, Note_off_c, 0, 48, 64
1, 48908, Note_on_c, 0, 52, 48
1, 48908, Note_on_c, 0, 62, 40
1, 48952, Note_on_c, 0, 64, 64
1, 48970, Note_off_c, 0, 62, 64
1, 48973, Note_off_c, 0, 52, 64
1, 49008, Note_off_c, 0, 64, 64
1, 49204, Note_on_c, 0, 62, 60
1, 49207, Note_on_c, 0, 52, 73
1, 49207, Note_on_c, 0, 64, 73
1, 49228, Note_off_c, 0, 46, 64
1, 49327, Control_c, 0, 64, 127
1, 49596, Note_on_c, 0, 46, 51
1, 49663, Note_on_c, 0, 48, 57
1, 49668, Note_off_c, 0, 46, 64
1, 49705, Note_off_c, 0, 48, 64
1, 49711, Control_c, 0, 64, 0
1, 49711, Note_on_c, 0, 46, 50
1, 49763, Note_on_c, 0, 48, 53
1, 49781, Note_off_c, 0, 64, 64
1, 49794, Note_off_c, 0, 46, 64
1, 49797, Note_off_c, 0, 62, 64
1, 49828, Note_on_c, 0, 46, 56
1, 49842, Note_off_c, 0, 52, 64
1, 49849, Note_off_c, 0, 48, 64
1, 49909, Note_off_c, 0, 46, 64
1, 50078, Note_on_c, 0, 46, 72
1, 50146, Note_on_c, 0, 48, 84
1, 50162, Note_off_c, 0, 46, 64
1, 50162, Note_on_c, 0, 52, 53
1, 50170, Note_on_c, 0, 64, 34
1, 50173, Note_on_c, 0, 62, 32
1, 50226, Note_off_c, 0, 48, 64
1, 50232, Note_off_c, 0, 52, 64
1, 50232, Note_off_c, 0, 64, 64
1, 50245, Note_off_c, 0, 62, 64
1, 50371, Note_on_c, 0, 46, 73
1, 50429, Note_off_c, 0, 46, 64
1, 50619, Note_on_c, 0, 46, 61
1, 50686, Note_off_c, 0, 46, 64
1, 50692, Note_on_c, 0, 62, 38
1, 50696, Note_on_c, 0, 64, 47
1, 50708, Note_on_c, 0, 48, 61
1, 50711, Note_on_c, 0, 52, 33
1, 50753, Note_off_c, 0, 48, 64
1, 50777, Note_off_c, 0, 64, 64
1, 50781, Note_off_c, 0, 52, 64
1, 50809, Note_off_c, 0, 62, 64
1, 50956, Note_on_c, 0, 45, 37
1, 51218, Note_on_c, 0, 61, 48
1, 51221, Note_on_c, 0, 52, 50
1, 51304, Note_off_c, 0, 61, 64
1, 51312, Note_on_c, 0, 64, 56
1, 51327, Note_off_c, 0, 52, 64
1, 51357, Note_off_c, 0, 64, 64
1, 51554, Note_on_c, 0, 61, 39
1, 51554, Note_on_c, 0, 52, 53
1, 51558, Note_on_c, 0, 64, 53
1, 51641, Note_off_c, 0, 45, 64
1, 51755, Note_on_c, 0, 42, 67
1, 51791, Note_off_c, 0, 42, 64
1, 51950, Note_on_c, 0, 44, 71
1, 51997, Note_off_c, 0, 44, 64
1, 52095, Note_off_c, 0, 52, 64
1, 52190, Note_off_c, 0, 64, 64
1, 52190, Note_on_c, 0, 40, 90
1, 52217, Note_off_c, 0, 61, 64
1, 52220, Note_off_c, 0, 40, 64
1, 52228, Control_c, 0, 64, 127
1, 52563, Note_on_c, 0, 69, 70
1, 52563, Note_on_c, 0, 61, 69
1, 52569, Note_on_c, 0, 64, 86
1, 52610, Note_off_c, 0, 69, 64
1, 52627, Note_on_c, 0, 71, 60
1, 52647, Control_c, 0, 64, 0
1, 52663, Note_on_c, 0, 69, 66
1, 52672, Note_off_c, 0, 71, 64
1, 52728, Note_on_c, 0, 71, 92
1, 52738, Note_off_c, 0, 61, 64
1, 52763, Note_off_c, 0, 69, 64
1, 52767, Note_off_c, 0, 64, 64
1, 52777, Note_on_c, 0, 68, 89
1, 52783, Note_on_c, 0, 63, 76
1, 52795, Note_on_c, 0, 60, 57
1, 52809, Note_off_c, 0, 71, 64
1, 52922, Note_off_c, 0, 60, 64
1, 52922, Note_off_c, 0, 68, 64
1, 52922, Note_off_c, 0, 63, 64
1, 53129, Note_on_c, 0, 62, 67
1, 53132, Note_on_c, 0, 59, 49
1, 53145, Note_on_c, 0, 67, 73
1, 53185, Note_off_c, 0, 67, 64
1, 53196, Note_on_c, 0, 69, 51
1, 53240, Note_on_c, 0, 67, 65
1, 53249, Note_off_c, 0, 69, 64
1, 53295, Note_off_c, 0, 67, 64
1, 53304, Note_on_c, 0, 69, 65
1, 53304, Note_off_c, 0, 62, 64
1, 53324, Note_off_c, 0, 59, 64
1, 53348, Note_on_c, 0, 66, 71
1, 53352, Note_off_c, 0, 69, 64
1, 53359, Note_on_c, 0, 61, 56
1, 53362, Note_on_c, 0, 58, 43
1, 53465, Note_off_c, 0, 66, 64
1, 53476, Note_off_c, 0, 61, 64
1, 53488, Note_off_c, 0, 58, 64
1, 53694, Note_on_c, 0, 65, 53
1, 53702, Note_on_c, 0, 60, 43
1, 53710, Note_on_c, 0, 57, 24
1, 53734, Note_off_c, 0, 65, 64
1, 53750, Note_on_c, 0, 67, 49
1, 53786, Note_on_c, 0, 65, 65
1, 53803, Note_off_c, 0, 67, 64
1, 53828, Note_off_c, 0, 65, 64
1, 53859, Note_on_c, 0, 67, 31
1, 53881, Note_off_c, 0, 57, 64
1, 53889, Note_off_c, 0, 60, 64
1, 53900, Note_on_c, 0, 64, 59
1, 53905, Note_on_c, 0, 59, 40
1, 53908, Note_on_c, 0, 56, 44
1, 53914, Note_off_c, 0, 67, 64
1, 53975, Note_off_c, 0, 64, 64
1, 53986, Note_off_c, 0, 59, 64
1, 54003, Note_off_c, 0, 56, 64
1, 54259, Note_on_c, 0, 57, 32
1, 54259, Note_on_c, 0, 54, 38
1, 54259, Note_on_c, 0, 62, 48
1, 54304, Note_off_c, 0, 62, 64
1, 54324, Note_on_c, 0, 64, 50
1, 54365, Note_off_c, 0, 64, 64
1, 54365, Note_on_c, 0, 62, 62
1, 54405, Note_off_c, 0, 62, 64
1, 54433, Note_on_c, 0, 64, 66
1, 54460, Note_on_c, 0, 61, 73
1, 54468, Note_off_c, 0, 54, 64
1, 54468, Note_off_c, 0, 64, 64
1, 54488, Note_on_c, 0, 53, 71
1, 54566, Note_off_c, 0, 61, 64
1, 54578, Note_off_c, 0, 57, 64
1, 54594, Note_off_c, 0, 53, 64
1, 54613, Control_c, 0, 64, 127
1, 54660, Control_c, 0, 64, 0
1, 54823, Note_on_c, 0, 60, 65
1, 54837, Note_on_c, 0, 57, 36
1, 54845, Note_on_c, 0, 52, 48
1, 54867, Note_off_c, 0, 60, 64
1, 54889, Note_on_c, 0, 64, 56
1, 54923, Note_on_c, 0, 60, 59
1, 54926, Control_c, 0, 64, 127
1, 54929, Note_off_c, 0, 64, 64
1, 54975, Note_off_c, 0, 60, 64
1, 54998, Note_on_c, 0, 64, 64
1, 55015, Note_off_c, 0, 52, 64
1, 55037, Note_off_c, 0, 64, 64
1, 55043, Note_on_c, 0, 59, 51
1, 55056, Note_on_c, 0, 51, 39
1, 55128, Note_off_c, 0, 57, 64
1, 55199, Control_c, 0, 64, 0
1, 55223, Note_off_c, 0, 59, 64
1, 55229, Note_off_c, 0, 51, 64
1, 55406, Note_on_c, 0, 58, 37
1, 55440, Note_on_c, 0, 50, 27
1, 55446, Note_on_c, 0, 52, 35
1, 55460, Note_off_c, 0, 58, 64
1, 55528, Note_on_c, 0, 58, 29
1, 55547, Control_c, 0, 64, 127
1, 55557, Note_on_c, 0, 64, 2
1, 55583, Control_c, 0, 64, 0
1, 55588, Note_off_c, 0, 58, 64
1, 55652, Note_off_c, 0, 50, 64
1, 55667, Note_off_c, 0, 64, 64
1, 55672, Note_on_c, 0, 57, 46
1, 55672, Note_on_c, 0, 49, 34
1, 55762, Note_off_c, 0, 52, 64
1, 55767, Note_off_c, 0, 49, 64
1, 55808, Note_off_c, 0, 57, 64
1, 55808, Control_c, 0, 64, 127
1, 56014, Note_on_c, 0, 40, 64
1, 56028, Control_c, 0, 64, 0
1, 56051, Note_off_c, 0, 40, 64
1, 56079, Note_on_c, 0, 45, 46
1, 56143, Note_off_c, 0, 45, 64
1, 56333, Note_on_c, 0, 33, 58
1, 56394, Note_off_c, 0, 33, 64
1, 56422, Control_c, 0, 64, 127
1, 56638, Control_c, 0, 64, 0
1, 56698, Note_on_c, 0, 70, 61
1, 56716, Note_on_c, 0, 64, 44
1, 56716, Note_on_c, 0, 62, 29
1, 56739, Note_off_c, 0, 70, 64
1, 56764, Note_on_c, 0, 76, 43
1, 56795, Note_on_c, 0, 70, 41
1, 56806, Note_off_c, 0, 76, 64
1, 56845, Note_off_c, 0, 70, 64
1, 56862, Note_on_c, 0, 76, 56
1, 56909, Note_off_c, 0, 62, 64
1, 56909, Note_off_c, 0, 76, 64
1, 56932, Note_on_c, 0, 69, 43
1, 56932, Note_on_c, 0, 61, 47
1, 56986, Note_off_c, 0, 64, 64
1, 56990, Note_off_c, 0, 61, 64
1, 57062, Note_off_c, 0, 69, 64
1, 57070, Control_c, 0, 64, 127
1, 57201, Control_c, 0, 64, 0
1, 57226, Note_on_c, 0, 52, 61
1, 57273, Note_off_c, 0, 52, 64
1, 57283, Note_on_c, 0, 57, 60
1, 57380, Note_off_c, 0, 57, 64
1, 57519, Note_on_c, 0, 45, 59
1, 57561, Note_off_c, 0, 45, 64
1, 57608, Control_c, 0, 64, 127
1, 57878, Note_on_c, 0, 82, 67
1, 57884, Control_c, 0, 64, 0
1, 57884, Note_on_c, 0, 76, 51
1, 57890, Note_on_c, 0, 74, 56
1, 57920, Note_off_c, 0, 82, 64
1, 57950, Note_on_c, 0, 88, 43
1, 57982, Note_on_c, 0, 82, 50
1, 57995, Note_off_c, 0, 88, 64
1, 58037, Note_off_c, 0, 82, 64
1, 58042, Note_on_c, 0, 88, 68
1, 58070, Note_off_c, 0, 74, 64
1, 58088, Note_off_c, 0, 88, 64
1, 58112, Note_on_c, 0, 81, 68
1, 58121, Note_on_c, 0, 73, 32
1, 58160, Note_off_c, 0, 76, 64
1, 58165, Note_off_c, 0, 73, 64
1, 58173, Note_off_c, 0, 81, 64
1, 58207, Control_c, 0, 64, 127
1, 58400, Control_c, 0, 64, 0
1, 58403, Note_on_c, 0, 64, 64
1, 58443, Note_off_c, 0, 64, 64
1, 58463, Note_on_c, 0, 69, 66
1, 58555, Note_off_c, 0, 69, 64
1, 58664, Control_c, 0, 64, 127
1, 58689, Note_on_c, 0, 57, 68
1, 58725, Note_off_c, 0, 57, 64
1, 59010, Control_c, 0, 64, 0
1, 59060, Note_on_c, 0, 88, 72
1, 59063, Note_on_c, 0, 86, 62
1, 59068, Note_on_c, 0, 94, 73
1, 59110, Note_off_c, 0, 94, 64
1, 59120, Note_on_c, 0, 100, 80
1, 59152, Note_off_c, 0, 100, 64
1, 59179, Note_on_c, 0, 94, 69
1, 59212, Note_off_c, 0, 86, 64
1, 59237, Note_off_c, 0, 94, 64
1, 59243, Note_on_c, 0, 100, 87
1, 59283, Note_off_c, 0, 88, 64
1, 59283, Note_on_c, 0, 85, 64
1, 59293, Note_on_c, 0, 93, 93
1, 59310, Control_c, 0, 64, 127
1, 59314, Note_off_c, 0, 100, 64
1, 59314, Note_off_c, 0, 85, 64
1, 59358, Note_off_c, 0, 93, 64
1, 59539, Control_c, 0, 64, 0
1, 59630, Note_on_c, 0, 82, 77
1, 59630, Note_on_c, 0, 76, 73
1, 59634, Note_on_c, 0, 74, 72
1, 59677, Note_off_c, 0, 82, 64
1, 59687, Note_on_c, 0, 88, 68
1, 59726, Note_off_c, 0, 88, 64
1, 59731, Note_on_c, 0, 82, 64
1, 59795, Note_on_c, 0, 88, 64
1, 59806, Note_off_c, 0, 82, 64
1, 59820, Note_off_c, 0, 74, 64
1, 59850, Note_on_c, 0, 73, 55
1, 59861, Note_on_c, 0, 81, 83
1, 59870, Note_off_c, 0, 88, 64
1, 59870, Note_off_c, 0, 76, 64
1, 59887, Note_off_c, 0, 73, 64
1, 59928, Note_off_c, 0, 81, 64
1, 59946, Control_c, 0, 64, 127
1, 60113, Control_c, 0, 64, 0
1, 60193, Note_on_c, 0, 70, 59
1, 60207, Note_on_c, 0, 64, 47
1, 60215, Note_on_c, 0, 62, 44
1, 60235, Note_off_c, 0, 70, 64
1, 60265, Note_on_c, 0, 76, 26
1, 60290, Note_on_c, 0, 70, 45
1, 60344, Note_off_c, 0, 70, 64
1, 60383, Note_off_c, 0, 62, 64
1, 60421, Note_on_c, 0, 61, 42
1, 60421, Note_on_c, 0, 69, 55
1, 60436, Note_off_c, 0, 64, 64
1, 60444, Note_off_c, 0, 76, 64
1, 60449, Control_c, 0, 64, 127
1, 60464, Note_off_c, 0, 61, 64
1, 60472, Note_off_c, 0, 69, 64
1, 60628, Control_c, 0, 64, 0
1, 60758, Note_on_c, 0, 58, 47
1, 60779, Note_on_c, 0, 52, 49
1, 60792, Note_on_c, 0, 50, 32
1, 60817, Note_off_c, 0, 58, 64
1, 60831, Note_on_c, 0, 64, 46
1, 60878, Note_off_c, 0, 64, 64
1, 60878, Note_on_c, 0, 58, 36
1, 60939, Note_off_c, 0, 58, 64
1, 60949, Note_on_c, 0, 64, 66
1, 61001, Note_off_c, 0, 64, 64
1, 61020, Note_off_c, 0, 50, 64
1, 61026, Note_on_c, 0, 57, 45
1, 61046, Note_on_c, 0, 49, 36
1, 61096, Note_off_c, 0, 52, 64
1, 61104, Note_off_c, 0, 57, 64
1, 61110, Note_off_c, 0, 49, 64
1, 61144, Control_c, 0, 64, 127
1, 61265, Control_c, 0, 64, 0
1, 61525, Note_on_c, 0, 81, 39
1, 61534, Note_on_c, 0, 74, 24
1, 61573, Note_off_c, 0, 81, 64
1, 61576, Note_on_c, 0, 82, 50
1, 61580, Note_on_c, 0, 77, 50
1, 61619, Note_off_c, 0, 82, 64
1, 61619, Note_off_c, 0, 77, 64
1, 61639, Note_on_c, 0, 81, 56
1, 61675, Note_off_c, 0, 74, 64
1, 61678, Note_on_c, 0, 82, 50
1, 61683, Note_off_c, 0, 81, 64
1, 61687, Note_on_c, 0, 77, 48
1, 61729, Note_off_c, 0, 77, 64
1, 61733, Note_on_c, 0, 74, 76
1, 61733, Note_off_c, 0, 82, 64
1, 61733, Note_on_c, 0, 81, 69
1, 61765, Note_off_c, 0, 74, 64
1, 61834, Note_off_c, 0, 81, 64
1, 61851, Control_c, 0, 64, 127
1, 62007, Control_c, 0, 64, 0
1, 62070, Note_on_c, 0, 82, 56
1, 62124, Note_off_c, 0, 82, 64
1, 62137, Note_on_c, 0, 81, 58
1, 62179, Note_off_c, 0, 81, 64
1, 62199, Note_on_c, 0, 77, 41
1, 62235, Note_on_c, 0, 74, 45
1, 62240, Note_off_c, 0, 77, 64
1, 62258, Note_on_c, 0, 69, 30
1, 62279, Note_off_c, 0, 74, 64
1, 62339, Note_on_c, 0, 62, 46
1, 62361, Note_off_c, 0, 69, 64
1, 62380, Note_off_c, 0, 62, 64
1, 62414, Control_c, 0, 64, 127
1, 62594, Control_c, 0, 64, 0
1, 62740, Note_on_c, 0, 86, 57
1, 62740, Note_on_c, 0, 79, 46
1, 62782, Note_off_c, 0, 86, 64
1, 62786, Note_on_c, 0, 83, 77
1, 62786, Note_off_c, 0, 79, 64
1, 62798, Note_on_c, 0, 88, 47
1, 62828, Note_off_c, 0, 83, 64
1, 62839, Note_on_c, 0, 86, 51
1, 62843, Note_off_c, 0, 88, 64
1, 62848, Note_on_c, 0, 79, 68
1, 62892, Note_off_c, 0, 86, 64
1, 62892, Note_off_c, 0, 79, 64
1, 62901, Note_on_c, 0, 88, 59
1, 62901, Note_on_c, 0, 83, 73
1, 62942, Note_off_c, 0, 88, 64
1, 62948, Note_on_c, 0, 86, 73
1, 62957, Note_off_c, 0, 83, 64
1, 62957, Note_on_c, 0, 79, 57
1, 63001, Note_off_c, 0, 79, 64
1, 63035, Note_off_c, 0, 86, 64
1, 63051, Control_c, 0, 64, 127
1, 63229, Control_c, 0, 64, 0
1, 63316, Note_on_c, 0, 88, 50
1, 63360, Note_off_c, 0, 88, 64
1, 63366, Note_on_c, 0, 86, 53
1, 63422, Note_on_c, 0, 83, 60
1, 63464, Note_on_c, 0, 79, 47
1, 63469, Note_off_c, 0, 86, 64
1, 63469, Note_off_c, 0, 83, 64
1, 63483, Note_on_c, 0, 74, 33
1, 63538, Note_off_c, 0, 79, 64
1, 63552, Note_off_c, 0, 74, 64
1, 63555, Note_on_c, 0, 67, 47
1, 63589, Control_c, 0, 64, 127
1, 63597, Note_off_c, 0, 67, 64
1, 63757, Control_c, 0, 64, 0
1, 63948, Note_on_c, 0, 74, 54
1, 63948, Note_on_c, 0, 81, 55
1, 63987, Note_off_c, 0, 74, 64
1, 63987, Note_off_c, 0, 81, 64
1, 63987, Note_on_c, 0, 82, 61
1, 63991, Note_on_c, 0, 77, 56
1, 64030, Note_off_c, 0, 77, 64
1, 64035, Note_off_c, 0, 82, 64
1, 64040, Note_on_c, 0, 81, 69
1, 64045, Note_on_c, 0, 74, 69
1, 64090, Note_off_c, 0, 74, 64
1, 64090, Note_off_c, 0, 81, 64
1, 64099, Note_on_c, 0, 77, 49
1, 64099, Note_on_c, 0, 82, 63
1, 64151, Note_on_c, 0, 81, 79
1, 64151, Note_on_c, 0, 74, 77
1, 64158, Note_off_c, 0, 77, 64
1, 64183, Note_off_c, 0, 74, 64
1, 64199, Note_off_c, 0, 82, 64
1, 64224, Control_c, 0, 64, 127
1, 64240, Note_off_c, 0, 81, 64
1, 64333, Control_c, 0, 64, 0
1, 64520, Note_on_c, 0, 70, 37
1, 64524, Note_on_c, 0, 77, 60
1, 64564, Note_off_c, 0, 77, 64
1, 64573, Note_off_c, 0, 70, 64
1, 64576, Note_on_c, 0, 74, 61
1, 64586, Note_on_c, 0, 79, 51
1, 64614, Note_off_c, 0, 74, 64
1, 64625, Note_on_c, 0, 77, 58
1, 64625, Note_on_c, 0, 70, 57
1, 64637, Note_off_c, 0, 79, 64
1, 64670, Note_off_c, 0, 77, 64
1, 64681, Note_on_c, 0, 74, 55
1, 64686, Note_off_c, 0, 70, 64
1, 64700, Note_on_c, 0, 79, 65
1, 64728, Note_on_c, 0, 77, 73
1, 64734, Note_off_c, 0, 74, 64
1, 64740, Note_on_c, 0, 70, 63
1, 64743, Note_off_c, 0, 79, 64
1, 64776, Note_off_c, 0, 70, 64
1, 64776, Control_c, 0, 64, 127
1, 64803, Note_off_c, 0, 77, 64
1, 64895, Control_c, 0, 64, 0
1, 65115, Note_on_c, 0, 74, 53
1, 65119, Note_on_c, 0, 81, 51
1, 65151, Note_on_c, 0, 82, 61
1, 65154, Note_off_c, 0, 74, 64
1, 65160, Note_off_c, 0, 81, 64
1, 65160, Note_on_c, 0, 77, 60
1, 65202, Note_off_c, 0, 77, 64
1, 65205, Note_off_c, 0, 82, 64
1, 65215, Note_on_c, 0, 74, 50
1, 65218, Note_on_c, 0, 81, 60
1, 65261, Note_off_c, 0, 81, 64
1, 65266, Note_off_c, 0, 74, 64
1, 65266, Note_on_c, 0, 82, 53
1, 65277, Note_on_c, 0, 77, 54
1, 65316, Note_on_c, 0, 81, 74
1, 65330, Note_on_c, 0, 74, 75
1, 65341, Note_off_c, 0, 77, 64
1, 65355, Note_off_c, 0, 82, 64
1, 65361, Note_off_c, 0, 74, 64
1, 65424, Note_off_c, 0, 81, 64
1, 65434, Control_c, 0, 64, 127
1, 65494, Control_c, 0, 64, 0
1, 65664, Note_on_c, 0, 82, 41
1, 65709, Note_off_c, 0, 82, 64
1, 65723, Control_c, 0, 64, 127
1, 65723, Note_on_c, 0, 81, 57
1, 65784, Note_off_c, 0, 81, 64
1, 65800, Note_on_c, 0, 77, 37
1, 65845, Note_on_c, 0, 74, 46
1, 65845, Note_off_c, 0, 77, 64
1, 65860, Note_on_c, 0, 69, 34
1, 65895, Note_off_c, 0, 74, 64
1, 65935, Note_on_c, 0, 62, 46
1, 65941, Note_off_c, 0, 69, 64
1, 65974, Note_off_c, 0, 62, 64
1, 66202, Control_c, 0, 64, 0
1, 66338, Note_on_c, 0, 73, 44
1, 66344, Note_on_c, 0, 81, 56
1, 66383, Note_off_c, 0, 73, 64
1, 66383, Note_off_c, 0, 81, 64
1, 66383, Note_on_c, 0, 82, 60
1, 66402, Note_on_c, 0, 77, 56
1, 66438, Note_on_c, 0, 81, 58
1, 66438, Note_off_c, 0, 82, 64
1, 66438, Note_off_c, 0, 77, 64
1, 66442, Note_on_c, 0, 73, 52
1, 66492, Note_off_c, 0, 81, 64
1, 66503, Note_on_c, 0, 82, 60
1, 66516, Note_off_c, 0, 73, 64
1, 66516, Note_on_c, 0, 77, 42
1, 66553, Note_on_c, 0, 81, 76
1, 66565, Note_off_c, 0, 77, 64
1, 66576, Note_on_c, 0, 73, 54
1, 66583, Note_off_c, 0, 82, 64
1, 66614, Note_off_c, 0, 73, 64
1, 66633, Control_c, 0, 64, 127
1, 66633, Note_off_c, 0, 81, 64
1, 66812, Control_c, 0, 64, 0
1, 66931, Note_on_c, 0, 82, 42
1, 66976, Note_off_c, 0, 82, 64
1, 66996, Note_on_c, 0, 81, 45
1, 67044, Note_on_c, 0, 77, 50
1, 67048, Note_off_c, 0, 81, 64
1, 67079, Note_on_c, 0, 73, 56
1, 67090, Note_on_c, 0, 69, 33
1, 67090, Note_off_c, 0, 77, 64
1, 67132, Note_off_c, 0, 73, 64
1, 67154, Note_off_c, 0, 69, 64
1, 67172, Control_c, 0, 64, 127
1, 67172, Note_on_c, 0, 61, 40
1, 67221, Note_off_c, 0, 61, 64
1, 67436, Control_c, 0, 64, 0
1, 67567, Note_on_c, 0, 84, 69
1, 67572, Note_on_c, 0, 77, 31
1, 67604, Note_off_c, 0, 84, 64
1, 67608, Note_on_c, 0, 81, 58
1, 67622, Note_off_c, 0, 77, 64
1, 67622, Note_on_c, 0, 86, 69
1, 67651, Note_off_c, 0, 81, 64
1, 67664, Note_off_c, 0, 86, 64
1, 67675, Note_on_c, 0, 84, 56
1, 67687, Note_on_c, 0, 77, 55
1, 67725, Note_off_c, 0, 84, 64
1, 67725, Note_off_c, 0, 77, 64
1, 67729, Note_on_c, 0, 81, 55
1, 67735, Note_on_c, 0, 86, 69
1, 67787, Note_on_c, 0, 84, 95
1, 67787, Note_off_c, 0, 81, 64
1, 67787, Note_on_c, 0, 77, 64
1, 67821, Note_off_c, 0, 86, 64
1, 67828, Note_off_c, 0, 77, 64
1, 67879, Control_c, 0, 64, 127
1, 67891, Note_off_c, 0, 84, 64
1, 68058, Control_c, 0, 64, 0
1, 68141, Note_on_c, 0, 86, 63
1, 68188, Note_off_c, 0, 86, 64
1, 68188, Note_on_c, 0, 84, 72
1, 68230, Note_off_c, 0, 84, 64
1, 68239, Note_on_c, 0, 81, 55
1, 68274, Note_on_c, 0, 72, 52
1, 68285, Note_off_c, 0, 81, 64
1, 68285, Note_on_c, 0, 77, 51
1, 68319, Note_off_c, 0, 72, 64
1, 68331, Note_off_c, 0, 77, 64
1, 68334, Note_on_c, 0, 69, 42
1, 68347, Control_c, 0, 64, 127
1, 68383, Note_off_c, 0, 69, 64
1, 68398, Note_on_c, 0, 60, 77
1, 68431, Note_off_c, 0, 60, 64
1, 68575, Control_c, 0, 64, 0
1, 68703, Note_on_c, 0, 84, 70
1, 68764, Note_on_c, 0, 81, 89
1, 68795, Note_off_c, 0, 84, 64
1, 68874, Note_off_c, 0, 81, 64
1, 68887, Control_c, 0, 64, 127
1, 69002, Note_on_c, 0, 73, 54
1, 69002, Note_on_c, 0, 77, 74
1, 69005, Note_on_c, 0, 57, 49
1, 69008, Note_on_c, 0, 67, 39
1, 69047, Note_off_c, 0, 73, 64
1, 69047, Note_off_c, 0, 57, 64
1, 69050, Note_off_c, 0, 77, 64
1, 69065, Note_off_c, 0, 67, 64
1, 69150, Control_c, 0, 64, 0
1, 69303, Note_on_c, 0, 85, 52
1, 69373, Note_off_c, 0, 85, 64
1, 69389, Note_on_c, 0, 81, 60
1, 69466, Note_off_c, 0, 81, 64
1, 69498, Control_c, 0, 64, 127
1, 69650, Note_on_c, 0, 73, 29
1, 69654, Note_on_c, 0, 67, 34
1, 69659, Note_on_c, 0, 77, 41
1, 69659, Note_on_c, 0, 57, 28
1, 69712, Note_off_c, 0, 67, 64
1, 69715, Note_off_c, 0, 73, 64
1, 69721, Note_off_c, 0, 77, 64
1, 69728, Note_off_c, 0, 57, 64
1, 69785, Control_c, 0, 64, 0
1, 69957, Note_on_c, 0, 86, 45
1, 70018, Note_off_c, 0, 86, 64
1, 70055, Note_on_c, 0, 81, 43
1, 70192, Note_off_c, 0, 81, 64
1, 70314, Note_on_c, 0, 74, 39
1, 70367, Note_off_c, 0, 74, 64
1, 70397, Control_c, 0, 64, 127
1, 70623, Control_c, 0, 64, 0
1, 70701, Note_on_c, 0, 50, 24
1, 70704, Note_on_c, 0, 57, 27
1, 70704, Note_on_c, 0, 65, 41
1, 70704, Note_on_c, 0, 74, 41
1, 70754, Note_off_c, 0, 65, 64
1, 70759, Note_off_c, 0, 50, 64
1, 70759, Note_off_c, 0, 74, 64
1, 70762, Note_off_c, 0, 57, 64
1, 71021, Note_on_c, 0, 57, 16
1, 71021, Note_on_c, 0, 74, 38
1, 71026, Note_on_c, 0, 50, 15
1, 71026, Note_on_c, 0, 65, 25
1, 71032, Control_c, 0, 64, 127
1, 71205, Note_off_c, 0, 57, 64
1, 71205, Note_off_c, 0, 65, 64
1, 71216, Note_off_c, 0, 74, 64
1, 71280, Note_off_c, 0, 50, 64
1, 71522, Note_on_c, 0, 39, 41
1, 71589, Note_off_c, 0, 39, 64
1, 71606, Control_c, 0, 64, 0
1, 71621, Note_on_c, 0, 41, 52
1, 71664, Note_off_c, 0, 41, 64
1, 71698, Note_on_c, 0, 39, 42
1, 71790, Note_on_c, 0, 41, 59
1, 71862, Note_off_c, 0, 39, 64
1, 71892, Note_off_c, 0, 41, 64
1, 71898, Note_on_c, 0, 39, 45
1, 72220, Note_on_c, 0, 55, 53
1, 72224, Note_on_c, 0, 45, 38
1, 72292, Note_on_c, 0, 57, 55
1, 72316, Note_off_c, 0, 55, 64
1, 72316, Note_off_c, 0, 45, 64
1, 72339, Note_off_c, 0, 57, 64
1, 72528, Note_on_c, 0, 45, 52
1, 72528, Note_on_c, 0, 55, 51
1, 72534, Note_on_c, 0, 57, 59
1, 72601, Note_off_c, 0, 39, 64
1, 72649, Control_c, 0, 64, 127
1, 72877, Control_c, 0, 64, 0
1, 72941, Note_on_c, 0, 39, 41
1, 73008, Note_off_c, 0, 39, 64
1, 73018, Note_on_c, 0, 41, 52
1, 73035, Note_off_c, 0, 45, 64
1, 73060, Note_off_c, 0, 41, 64
1, 73060, Note_on_c, 0, 39, 58
1, 73074, Note_off_c, 0, 55, 64
1, 73100, Note_off_c, 0, 57, 64
1, 73121, Note_on_c, 0, 41, 63
1, 73132, Note_off_c, 0, 39, 64
1, 73199, Note_on_c, 0, 39, 68
1, 73228, Note_off_c, 0, 41, 64
1, 73520, Note_on_c, 0, 45, 46
1, 73523, Note_on_c, 0, 55, 47
1, 73568, Note_on_c, 0, 57, 69
1, 73612, Note_off_c, 0, 45, 64
1, 73617, Note_off_c, 0, 55, 64
1, 73626, Note_off_c, 0, 57, 64
1, 73838, Note_on_c, 0, 55, 59
1, 73838, Note_on_c, 0, 57, 68
1, 73841, Note_on_c, 0, 45, 60
1, 73944, Control_c, 0, 64, 127
1, 74050, Note_off_c, 0, 39, 64
1, 74270, Note_on_c, 0, 39, 67
1, 74316, Control_c, 0, 64, 0
1, 74342, Note_off_c, 0, 39, 64
1, 74348, Note_on_c, 0, 41, 79
1, 74390, Note_off_c, 0, 41, 64
1, 74400, Note_on_c, 0, 39, 62
1, 74472, Note_on_c, 0, 41, 78
1, 74486, Note_off_c, 0, 39, 64
1, 74521, Note_off_c, 0, 55, 64
1, 74529, Note_off_c, 0, 57, 64
1, 74537, Note_on_c, 0, 39, 78
1, 74548, Note_off_c, 0, 45, 64
1, 74567, Note_off_c, 0, 41, 64
1, 74606, Note_off_c, 0, 39, 64
1, 74790, Note_on_c, 0, 39, 74
1, 74848, Note_on_c, 0, 41, 87
1, 74848, Note_on_c, 0, 45, 51
1, 74851, Note_on_c, 0, 57, 32
1, 74854, Note_on_c, 0, 55, 24
1, 74854, Note_off_c, 0, 39, 64
1, 74929, Note_off_c, 0, 41, 64
1, 74963, Note_off_c, 0, 55, 64
1, 74966, Note_off_c, 0, 45, 64
1, 74979, Note_off_c, 0, 57, 64
1, 75077, Note_on_c, 0, 39, 64
1, 75152, Note_off_c, 0, 39, 64
1, 75339, Note_on_c, 0, 39, 56
1, 75392, Note_off_c, 0, 39, 64
1, 75412, Note_on_c, 0, 41, 54
1, 75415, Note_on_c, 0, 55, 25
1, 75415, Note_on_c, 0, 57, 32
1, 75423, Note_on_c, 0, 45, 30
1, 75470, Note_off_c, 0, 41, 64
1, 75526, Note_off_c, 0, 45, 64
1, 75565, Note_off_c, 0, 55, 64
1, 75595, Note_off_c, 0, 57, 64
1, 75651, Note_on_c, 0, 39, 44
1, 75710, Note_off_c, 0, 39, 64
1, 75913, Note_on_c, 0, 39, 36
1, 75961, Note_off_c, 0, 39, 64
1, 75972, Note_on_c, 0, 45, 27
1, 75975, Note_on_c, 0, 57, 24
1, 75975, Note_on_c, 0, 55, 16
1, 75980, Note_on_c, 0, 41, 48
1, 76033, Note_off_c, 0, 41, 64
1, 76086, Note_off_c, 0, 45, 64
1, 76111, Note_off_c, 0, 55, 64
1, 76122, Note_off_c, 0, 57, 64
1, 76211, Note_on_c, 0, 39, 32
1, 76258, Note_off_c, 0, 39, 64
1, 76481, Note_on_c, 0, 39, 23
1, 76545, Note_off_c, 0, 39, 64
1, 76549, Note_on_c, 0, 55, 9
1, 76549, Note_on_c, 0, 57, 7
1, 76556, Note_on_c, 0, 45, 4
1, 76560, Note_on_c, 0, 41, 37
1, 76610, Note_off_c, 0, 41, 64
1, 76623, Note_off_c, 0, 45, 64
1, 76646, Note_off_c, 0, 55, 64
1, 76646, Note_off_c, 0, 57, 64
1, 76822, Note_on_c, 0, 38, 55
1, 76861, Note_off_c, 0, 38, 64
1, 76893, Control_c, 0, 64, 127
1, 77120, Note_on_c, 0, 45, 44
1, 77125, Note_on_c, 0, 54, 45
1, 77169, Note_off_c, 0, 45, 64
1, 77175, Note_off_c, 0, 54, 64
1, 77188, Note_on_c, 0, 57, 49
1, 77205, Note_on_c, 0, 50, 60
1, 77230, Note_off_c, 0, 57, 64
1, 77251, Note_off_c, 0, 50, 64
1, 77412, Note_on_c, 0, 54, 65
1, 77420, Note_on_c, 0, 62, 67
1, 77459, Note_off_c, 0, 54, 64
1, 77464, Note_off_c, 0, 62, 64
1, 77656, Note_on_c, 0, 57, 45
1, 77656, Note_on_c, 0, 66, 49
1, 77701, Note_off_c, 0, 57, 64
1, 77716, Note_off_c, 0, 66, 64
1, 77727, Note_on_c, 0, 62, 64
1, 77735, Note_on_c, 0, 69, 69
1, 77768, Note_off_c, 0, 62, 64
1, 77773, Note_off_c, 0, 69, 64
1, 77960, Note_on_c, 0, 66, 50
1, 77966, Note_on_c, 0, 74, 50
1, 78002, Note_off_c, 0, 66, 64
1, 78007, Note_off_c, 0, 74, 64
1, 78230, Note_on_c, 0, 57, 27
1, 78241, Note_on_c, 0, 66, 34
1, 78289, Note_off_c, 0, 57, 64
1, 78297, Note_off_c, 0, 66, 64
1, 78315, Note_on_c, 0, 62, 41
1, 78315, Note_on_c, 0, 69, 45
1, 78362, Note_off_c, 0, 69, 64
1, 78379, Note_off_c, 0, 62, 64
1, 78543, Note_on_c, 0, 74, 28
1, 78546, Note_on_c, 0, 66, 35
1, 78595, Note_off_c, 0, 66, 64
1, 78595, Note_off_c, 0, 74, 64
1, 78826, Note_on_c, 0, 69, 25
1, 78826, Note_on_c, 0, 78, 38
1, 78877, Note_off_c, 0, 78, 64
1, 78888, Note_off_c, 0, 69, 64
1, 78946, Note_on_c, 0, 81, 40
1, 78963, Note_on_c, 0, 74, 40
1, 79000, Note_off_c, 0, 81, 64
1, 79021, Note_off_c, 0, 74, 64
1, 79239, Note_on_c, 0, 78, 42
1, 79243, Note_on_c, 0, 86, 45
1, 79286, Note_off_c, 0, 78, 64
1, 79286, Note_off_c, 0, 86, 64
1, 79457, Control_c, 0, 64, 0
1, 79946, Note_on_c, 0, 62, 34
1, 79955, Note_on_c, 0, 58, 33
1, 79955, Note_on_c, 0, 45, 22
1, 79955, Note_on_c, 0, 52, 42
1, 79958, Note_on_c, 0, 55, 44
1, 79958, Note_on_c, 0, 33, 18
1, 80020, Note_off_c, 0, 55, 64
1, 80025, Note_off_c, 0, 52, 64
1, 80041, Note_off_c, 0, 45, 64
1, 80052, Note_off_c, 0, 33, 64
1, 80066, Note_off_c, 0, 62, 64
1, 80075, Note_off_c, 0, 58, 64
1, 80632, Control_c, 0, 64, 127
1, 80821, Note_on_c, 0, 54, 24
1, 80821, Note_on_c, 0, 62, 37
1, 80821, Note_on_c, 0, 57, 20
1, 80821, Note_on_c, 0, 38, 15
1, 80829, Note_on_c, 0, 26, 22
1, 80882, Note_off_c, 0, 38, 64
1, 80902, Note_off_c, 0, 57, 64
1, 80917, Note_off_c, 0, 26, 64
1, 80939, Note_off_c, 0, 54, 64
1, 80981, Note_off_c, 0, 62, 64
1, 81615, Control_c, 0, 64, 0
1, 83116, Control_c, 0, 64, 0
1, 84614, End_track
0, 0, End_of_file
