0, 0, Header, 0, 1, 384
1, 0, Start_track
1, 0, Tempo, 512820
1, 0, Title_t, "Fantasie Nr. 6, Intermezzo"
1, 0, Program_c, 0, 0
1, 0, Control_c, 0, 7, 100
1, 3, Control_c, 0, 64, 0
1, 3, Control_c, 0, 91, 127
1, 3, Program_c, 0, 0
1, 6, Control_c, 0, 7, 100
1, 1139, Control_c, 0, 91, 127
1, 1139, Control_c, 0, 91, 127
1, 1143, Note_on_c, 0, 71, 68
1, 1143, Note_on_c, 0, 59, 57
1, 1143, Note_on_c, 0, 68, 57
1, 1146, Control_c, 0, 64, 127
1, 1146, Note_on_c, 0, 28, 42
1, 1146, Note_on_c, 0, 40, 57
1, 1644, Note_on_c, 0, 68, 0
1, 1644, Note_on_c, 0, 59, 0
1, 1644, Note_on_c, 0, 71, 0
1, 1647, Note_on_c, 0, 60, 54
1, 1647, Note_on_c, 0, 68, 54
1, 1647, Note_on_c, 0, 71, 63
1, 1650, Note_on_c, 0, 40, 0
1, 1650, Note_on_c, 0, 28, 0
1, 1650, Control_c, 0, 64, 0
1, 1653, Note_on_c, 0, 33, 39
1, 1653, Note_on_c, 0, 45, 54
1, 1703, Control_c, 0, 64, 127
1, 2137, Note_on_c, 0, 71, 0
1, 2137, Note_on_c, 0, 68, 0
1, 2137, Note_on_c, 0, 60, 0
1, 2140, Note_on_c, 0, 61, 48
1, 2140, Note_on_c, 0, 66, 48
1, 2140, Note_on_c, 0, 69, 57
1, 2143, Note_on_c, 0, 45, 0
1, 2143, Note_on_c, 0, 33, 0
1, 2143, Note_on_c, 0, 30, 37
1, 2146, Note_on_c, 0, 42, 60
1, 2146, Control_c, 0, 64, 0
1, 2250, Control_c, 0, 64, 127
1, 2614, Note_on_c, 0, 69, 0
1, 2614, Note_on_c, 0, 66, 0
1, 2614, Note_on_c, 0, 61, 0
1, 2617, Note_on_c, 0, 66, 48
1, 2617, Note_on_c, 0, 62, 56
1, 2617, Note_on_c, 0, 69, 48
1, 2620, Note_on_c, 0, 42, 0
1, 2620, Note_on_c, 0, 30, 0
1, 2620, Note_on_c, 0, 35, 39
1, 2623, Note_on_c, 0, 47, 52
1, 2671, Control_c, 0, 64, 0
1, 2741, Control_c, 0, 64, 127
1, 2855, Note_on_c, 0, 62, 0
1, 2855, Note_on_c, 0, 63, 60
1, 3097, Note_on_c, 0, 63, 0
1, 3097, Note_on_c, 0, 69, 0
1, 3097, Note_on_c, 0, 66, 0
1, 3100, Note_on_c, 0, 69, 40
1, 3100, Note_on_c, 0, 66, 63
1, 3100, Note_on_c, 0, 47, 0
1, 3103, Note_on_c, 0, 35, 0
1, 3103, Note_on_c, 0, 28, 37
1, 3103, Note_on_c, 0, 40, 49
1, 3140, Control_c, 0, 64, 0
1, 3211, Control_c, 0, 64, 127
1, 3340, Note_on_c, 0, 66, 0
1, 3340, Note_on_c, 0, 64, 48
1, 3573, Note_on_c, 0, 64, 0
1, 3573, Note_on_c, 0, 69, 0
1, 3573, Note_on_c, 0, 68, 50
1, 3576, Note_on_c, 0, 59, 55
1, 3576, Note_on_c, 0, 40, 0
1, 3576, Note_on_c, 0, 28, 0
1, 3579, Note_on_c, 0, 40, 33
1, 3579, Note_on_c, 0, 52, 46
1, 3593, Control_c, 0, 64, 0
1, 3638, Control_c, 0, 64, 127
1, 3809, Note_on_c, 0, 59, 0
1, 3809, Note_on_c, 0, 56, 48
1, 4031, Note_on_c, 0, 56, 0
1, 4031, Note_on_c, 0, 68, 0
1, 4031, Note_on_c, 0, 52, 0
1, 4034, Note_on_c, 0, 40, 0
1, 4051, Note_on_c, 0, 56, 52
1, 4051, Note_on_c, 0, 64, 52
1, 4051, Note_on_c, 0, 68, 62
1, 4054, Note_on_c, 0, 35, 38
1, 4054, Note_on_c, 0, 47, 52
1, 4107, Control_c, 0, 64, 0
1, 4191, Control_c, 0, 64, 127
1, 4527, Note_on_c, 0, 68, 0
1, 4527, Note_on_c, 0, 64, 0
1, 4527, Note_on_c, 0, 56, 0
1, 4530, Note_on_c, 0, 68, 60
1, 4530, Note_on_c, 0, 57, 52
1, 4530, Note_on_c, 0, 64, 52
1, 4533, Note_on_c, 0, 47, 0
1, 4533, Note_on_c, 0, 35, 0
1, 4533, Control_c, 0, 64, 0
1, 4536, Note_on_c, 0, 36, 38
1, 4536, Note_on_c, 0, 48, 52
1, 4640, Control_c, 0, 64, 127
1, 5001, Note_on_c, 0, 64, 0
1, 5001, Note_on_c, 0, 57, 0
1, 5001, Note_on_c, 0, 68, 0
1, 5004, Note_on_c, 0, 58, 52
1, 5004, Note_on_c, 0, 64, 52
1, 5004, Note_on_c, 0, 66, 60
1, 5007, Note_on_c, 0, 48, 0
1, 5007, Note_on_c, 0, 36, 0
1, 5007, Note_on_c, 0, 37, 38
1, 5010, Note_on_c, 0, 49, 52
1, 5078, Control_c, 0, 64, 0
1, 5155, Control_c, 0, 64, 127
1, 5464, Note_on_c, 0, 66, 0
1, 5464, Note_on_c, 0, 64, 0
1, 5464, Note_on_c, 0, 58, 0
1, 5467, Note_on_c, 0, 64, 49
1, 5467, Note_on_c, 0, 65, 58
1, 5467, Note_on_c, 0, 58, 41
1, 5470, Note_on_c, 0, 49, 0
1, 5470, Note_on_c, 0, 37, 0
1, 5470, Note_on_c, 0, 30, 35
1, 5473, Note_on_c, 0, 42, 48
1, 5509, Control_c, 0, 64, 0
1, 5621, Control_c, 0, 64, 127
1, 5699, Note_on_c, 0, 65, 0
1, 5699, Note_on_c, 0, 66, 61
1, 5935, Note_on_c, 0, 66, 0
1, 5935, Note_on_c, 0, 58, 0
1, 5935, Note_on_c, 0, 64, 0
1, 5938, Note_on_c, 0, 69, 62
1, 5938, Note_on_c, 0, 63, 48
1, 5938, Note_on_c, 0, 57, 37
1, 5941, Note_on_c, 0, 42, 0
1, 5941, Note_on_c, 0, 30, 0
1, 5941, Note_on_c, 0, 35, 40
1, 5962, Control_c, 0, 64, 0
1, 6003, Control_c, 0, 64, 127
1, 6167, Note_on_c, 0, 69, 0
1, 6167, Note_on_c, 0, 66, 57
1, 6398, Note_on_c, 0, 66, 0
1, 6398, Note_on_c, 0, 57, 0
1, 6398, Note_on_c, 0, 63, 0
1, 6401, Note_on_c, 0, 57, 58
1, 6401, Note_on_c, 0, 64, 58
1, 6401, Note_on_c, 0, 35, 0
1, 6404, Note_on_c, 0, 54, 33
1, 6404, Note_on_c, 0, 47, 31
1, 6425, Control_c, 0, 64, 0
1, 6452, Control_c, 0, 64, 127
1, 6629, Note_on_c, 0, 64, 0
1, 6629, Note_on_c, 0, 63, 50
1, 6858, Note_on_c, 0, 63, 0
1, 6858, Note_on_c, 0, 57, 0
1, 6858, Note_on_c, 0, 47, 0
1, 6861, Note_on_c, 0, 54, 0
1, 6861, Control_c, 0, 64, 0
1, 6879, Note_on_c, 0, 73, 72
1, 6879, Note_on_c, 0, 61, 62
1, 6879, Note_on_c, 0, 69, 62
1, 6882, Note_on_c, 0, 30, 46
1, 6882, Note_on_c, 0, 42, 54
1, 6903, Control_c, 0, 64, 127
1, 7354, Note_on_c, 0, 69, 0
1, 7354, Note_on_c, 0, 61, 0
1, 7354, Note_on_c, 0, 73, 0
1, 7357, Note_on_c, 0, 62, 62
1, 7357, Note_on_c, 0, 69, 62
1, 7357, Note_on_c, 0, 73, 72
1, 7360, Note_on_c, 0, 42, 0
1, 7360, Note_on_c, 0, 30, 0
1, 7360, Control_c, 0, 64, 0
1, 7363, Note_on_c, 0, 35, 46
1, 7363, Note_on_c, 0, 47, 53
1, 7500, Control_c, 0, 64, 127
1, 7802, Control_c, 0, 64, 0
1, 7825, Note_on_c, 0, 73, 0
1, 7825, Note_on_c, 0, 69, 0
1, 7825, Note_on_c, 0, 62, 0
1, 7828, Note_on_c, 0, 69, 61
1, 7828, Note_on_c, 0, 63, 61
1, 7828, Note_on_c, 0, 71, 71
1, 7831, Note_on_c, 0, 47, 0
1, 7831, Note_on_c, 0, 35, 0
1, 7831, Note_on_c, 0, 32, 46
1, 7834, Note_on_c, 0, 44, 53
1, 7925, Control_c, 0, 64, 127
1, 8268, Control_c, 0, 64, 0
1, 8291, Note_on_c, 0, 71, 0
1, 8291, Note_on_c, 0, 63, 0
1, 8291, Note_on_c, 0, 69, 0
1, 8294, Note_on_c, 0, 68, 57
1, 8294, Note_on_c, 0, 64, 68
1, 8294, Note_on_c, 0, 71, 57
1, 8297, Note_on_c, 0, 44, 0
1, 8297, Note_on_c, 0, 32, 0
1, 8297, Note_on_c, 0, 37, 46
1, 8300, Note_on_c, 0, 49, 54
1, 8369, Control_c, 0, 64, 127
1, 8525, Note_on_c, 0, 65, 68
1, 8564, Note_on_c, 0, 64, 0
1, 8757, Note_on_c, 0, 68, 0
1, 8757, Note_on_c, 0, 71, 0
1, 8757, Note_on_c, 0, 65, 0
1, 8760, Note_on_c, 0, 68, 70
1, 8760, Note_on_c, 0, 71, 64
1, 8760, Note_on_c, 0, 49, 0
1, 8763, Note_on_c, 0, 37, 0
1, 8763, Control_c, 0, 64, 0
1, 8763, Note_on_c, 0, 30, 40
1, 8766, Note_on_c, 0, 42, 47
1, 8812, Control_c, 0, 64, 127
1, 8990, Note_on_c, 0, 68, 0
1, 8990, Note_on_c, 0, 66, 58
1, 9220, Note_on_c, 0, 66, 0
1, 9220, Note_on_c, 0, 71, 0
1, 9220, Note_on_c, 0, 69, 60
1, 9223, Note_on_c, 0, 61, 63
1, 9223, Note_on_c, 0, 42, 0
1, 9223, Note_on_c, 0, 30, 0
1, 9226, Note_on_c, 0, 42, 32
1, 9226, Note_on_c, 0, 54, 40
1, 9242, Control_c, 0, 64, 0
1, 9272, Control_c, 0, 64, 127
1, 9455, Note_on_c, 0, 61, 0
1, 9455, Note_on_c, 0, 57, 57
1, 9672, Note_on_c, 0, 57, 0
1, 9672, Note_on_c, 0, 69, 0
1, 9672, Note_on_c, 0, 54, 0
1, 9675, Note_on_c, 0, 42, 0
1, 9692, Note_on_c, 0, 66, 54
1, 9692, Note_on_c, 0, 60, 54
1, 9692, Note_on_c, 0, 69, 63
1, 9695, Note_on_c, 0, 38, 41
1, 9695, Note_on_c, 0, 50, 48
1, 9736, Control_c, 0, 64, 0
1, 9777, Control_c, 0, 64, 127
1, 10187, Note_on_c, 0, 69, 0
1, 10187, Note_on_c, 0, 60, 0
1, 10187, Note_on_c, 0, 66, 0
1, 10190, Note_on_c, 0, 66, 48
1, 10190, Note_on_c, 0, 59, 48
1, 10190, Note_on_c, 0, 69, 57
1, 10193, Note_on_c, 0, 50, 0
1, 10193, Note_on_c, 0, 38, 0
1, 10193, Control_c, 0, 64, 0
1, 10196, Note_on_c, 0, 39, 41
1, 10196, Note_on_c, 0, 51, 48
1, 10300, Control_c, 0, 64, 127
1, 10736, Note_on_c, 0, 69, 0
1, 10736, Note_on_c, 0, 59, 0
1, 10736, Note_on_c, 0, 66, 0
1, 10739, Note_on_c, 0, 66, 49
1, 10739, Note_on_c, 0, 68, 60
1, 10739, Note_on_c, 0, 60, 49
1, 10742, Note_on_c, 0, 51, 0
1, 10742, Note_on_c, 0, 39, 0
1, 10742, Note_on_c, 0, 40, 42
1, 10745, Note_on_c, 0, 52, 49
1, 10821, Control_c, 0, 64, 0
1, 10948, Control_c, 0, 64, 127
1, 11349, Note_on_c, 0, 60, 0
1, 11349, Note_on_c, 0, 68, 0
1, 11349, Note_on_c, 0, 66, 0
1, 11352, Note_on_c, 0, 61, 52
1, 11352, Note_on_c, 0, 64, 52
1, 11352, Note_on_c, 0, 68, 61
1, 11355, Note_on_c, 0, 52, 0
1, 11355, Note_on_c, 0, 40, 0
1, 11355, Note_on_c, 0, 37, 46
1, 11358, Note_on_c, 0, 49, 54
1, 11422, Control_c, 0, 64, 0
1, 11543, Control_c, 0, 64, 127
1, 12057, Note_on_c, 0, 64, 0
1, 12057, Note_on_c, 0, 61, 0
1, 12057, Note_on_c, 0, 63, 48
1, 12060, Note_on_c, 0, 56, 48
1, 12060, Note_on_c, 0, 60, 48
1, 12060, Note_on_c, 0, 49, 0
1, 12063, Note_on_c, 0, 37, 0
1, 12063, Control_c, 0, 64, 0
1, 12063, Note_on_c, 0, 32, 41
1, 12066, Note_on_c, 0, 44, 48
1, 12337, Control_c, 0, 64, 127
1, 12897, Note_on_c, 0, 60, 0
1, 12897, Note_on_c, 0, 68, 0
1, 12897, Note_on_c, 0, 63, 0
1, 12900, Note_on_c, 0, 56, 0
1, 12900, Note_on_c, 0, 56, 46
1, 12900, Note_on_c, 0, 61, 46
1, 12903, Note_on_c, 0, 65, 53
1, 12903, Note_on_c, 0, 68, 53
1, 12903, Note_on_c, 0, 44, 0
1, 12906, Note_on_c, 0, 32, 0
1, 12906, Note_on_c, 0, 25, 41
1, 12906, Note_on_c, 0, 37, 48
1, 13079, Control_c, 0, 64, 0
1, 13501, Control_c, 0, 64, 127
1, 14084, Note_on_c, 0, 68, 0
1, 14084, Note_on_c, 0, 56, 0
1, 14084, Note_on_c, 0, 61, 0
1, 14087, Note_on_c, 0, 65, 0
1, 14087, Note_on_c, 0, 37, 0
1, 14087, Note_on_c, 0, 25, 0
1, 14163, Note_on_c, 0, 80, 57
1, 14163, Note_on_c, 0, 68, 48
1, 14163, Note_on_c, 0, 73, 48
1, 14166, Note_on_c, 0, 65, 46
1, 14166, Note_on_c, 0, 61, 46
1, 14209, Control_c, 0, 64, 0
1, 14347, Control_c, 0, 64, 127
1, 14646, Note_on_c, 0, 73, 0
1, 14646, Note_on_c, 0, 68, 0
1, 14646, Note_on_c, 0, 72, 52
1, 14649, Note_on_c, 0, 68, 52
1, 14649, Note_on_c, 0, 75, 52
1, 14649, Note_on_c, 0, 61, 0
1, 14652, Note_on_c, 0, 65, 0
1, 14652, Control_c, 0, 64, 0
1, 14652, Note_on_c, 0, 56, 55
1, 14655, Note_on_c, 0, 63, 48
1, 14744, Control_c, 0, 64, 127
1, 15129, Note_on_c, 0, 75, 0
1, 15129, Note_on_c, 0, 80, 0
1, 15129, Note_on_c, 0, 72, 0
1, 15132, Note_on_c, 0, 68, 0
1, 15132, Note_on_c, 0, 68, 49
1, 15132, Note_on_c, 0, 73, 49
1, 15135, Note_on_c, 0, 77, 60
1, 15135, Note_on_c, 0, 80, 60
1, 15135, Note_on_c, 0, 63, 0
1, 15138, Note_on_c, 0, 56, 0
1, 15138, Note_on_c, 0, 49, 47
1, 15138, Note_on_c, 0, 61, 47
1, 15141, Control_c, 0, 64, 0
1, 15164, Control_c, 0, 64, 127
1, 15624, Note_on_c, 0, 80, 0
1, 15624, Note_on_c, 0, 68, 0
1, 15624, Note_on_c, 0, 73, 0
1, 15627, Note_on_c, 0, 77, 0
1, 15627, Note_on_c, 0, 70, 52
1, 15627, Note_on_c, 0, 78, 68
1, 15630, Note_on_c, 0, 82, 52
1, 15630, Note_on_c, 0, 61, 0
1, 15630, Note_on_c, 0, 49, 0
1, 15633, Note_on_c, 0, 42, 50
1, 15653, Control_c, 0, 64, 0
1, 15687, Control_c, 0, 64, 127
1, 15783, Note_on_c, 0, 54, 42
1, 15803, Note_on_c, 0, 42, 0
1, 15862, Note_on_c, 0, 73, 63
1, 15882, Note_on_c, 0, 78, 0
1, 15944, Note_on_c, 0, 58, 40
1, 15964, Note_on_c, 0, 54, 0
1, 16107, Note_on_c, 0, 70, 0
1, 16107, Note_on_c, 0, 82, 0
1, 16107, Note_on_c, 0, 73, 0
1, 16110, Note_on_c, 0, 68, 48
1, 16110, Note_on_c, 0, 77, 68
1, 16110, Note_on_c, 0, 80, 55
1, 16113, Note_on_c, 0, 58, 0
1, 16113, Control_c, 0, 64, 0
1, 16113, Note_on_c, 0, 44, 50
1, 16153, Control_c, 0, 64, 127
1, 16267, Note_on_c, 0, 56, 45
1, 16287, Note_on_c, 0, 44, 0
1, 16346, Note_on_c, 0, 73, 63
1, 16367, Note_on_c, 0, 77, 0
1, 16429, Note_on_c, 0, 65, 41
1, 16449, Note_on_c, 0, 56, 0
1, 16593, Note_on_c, 0, 68, 0
1, 16593, Note_on_c, 0, 80, 0
1, 16593, Note_on_c, 0, 72, 67
1, 16596, Note_on_c, 0, 80, 53
1, 16596, Note_on_c, 0, 68, 46
1, 16596, Note_on_c, 0, 65, 0
1, 16599, Note_on_c, 0, 56, 55
1, 16599, Note_on_c, 0, 66, 55
1, 16614, Note_on_c, 0, 73, 0
1, 16623, Control_c, 0, 64, 0
1, 16686, Control_c, 0, 64, 127
1, 16757, Note_on_c, 0, 63, 45
1, 16777, Note_on_c, 0, 66, 0
1, 16777, Note_on_c, 0, 56, 0
1, 16839, Note_on_c, 0, 75, 62
1, 16860, Note_on_c, 0, 72, 0
1, 16922, Note_on_c, 0, 56, 53
1, 16943, Note_on_c, 0, 63, 0
1, 17089, Note_on_c, 0, 68, 0
1, 17089, Note_on_c, 0, 80, 0
1, 17089, Note_on_c, 0, 75, 0
1, 17092, Note_on_c, 0, 68, 52
1, 17092, Note_on_c, 0, 73, 52
1, 17092, Note_on_c, 0, 80, 61
1, 17095, Note_on_c, 0, 56, 0
1, 17095, Note_on_c, 0, 65, 41
1, 17095, Note_on_c, 0, 61, 41
1, 17118, Control_c, 0, 64, 0
1, 17181, Control_c, 0, 64, 127
1, 17572, Note_on_c, 0, 80, 0
1, 17572, Note_on_c, 0, 73, 0
1, 17572, Note_on_c, 0, 80, 72
1, 17575, Note_on_c, 0, 72, 62
1, 17575, Note_on_c, 0, 75, 62
1, 17575, Note_on_c, 0, 61, 0
1, 17578, Note_on_c, 0, 65, 0
1, 17578, Note_on_c, 0, 56, 60
1, 17578, Note_on_c, 0, 63, 60
1, 17629, Control_c, 0, 64, 0
1, 17700, Control_c, 0, 64, 127
1, 18056, Note_on_c, 0, 75, 0
1, 18056, Note_on_c, 0, 68, 0
1, 18056, Note_on_c, 0, 80, 0
1, 18059, Note_on_c, 0, 72, 0
1, 18059, Note_on_c, 0, 68, 57
1, 18059, Note_on_c, 0, 71, 57
1, 18062, Note_on_c, 0, 77, 57
1, 18062, Note_on_c, 0, 80, 67
1, 18062, Note_on_c, 0, 63, 0
1, 18065, Note_on_c, 0, 56, 0
1, 18065, Note_on_c, 0, 49, 54
1, 18065, Note_on_c, 0, 61, 54
1, 18177, Control_c, 0, 64, 0
1, 18219, Control_c, 0, 64, 127
1, 18539, Note_on_c, 0, 80, 0
1, 18539, Note_on_c, 0, 68, 0
1, 18539, Note_on_c, 0, 71, 0
1, 18542, Note_on_c, 0, 77, 0
1, 18542, Note_on_c, 0, 81, 83
1, 18542, Note_on_c, 0, 78, 70
1, 18545, Note_on_c, 0, 69, 70
1, 18545, Note_on_c, 0, 61, 0
1, 18545, Note_on_c, 0, 49, 0
1, 18548, Note_on_c, 0, 42, 55
1, 18574, Control_c, 0, 64, 0
1, 18624, Control_c, 0, 64, 127
1, 18699, Note_on_c, 0, 54, 49
1, 18719, Note_on_c, 0, 42, 0
1, 18779, Note_on_c, 0, 71, 64
1, 18779, Note_on_c, 0, 75, 64
1, 18779, Note_on_c, 0, 83, 76
1, 18800, Note_on_c, 0, 69, 0
1, 18800, Note_on_c, 0, 81, 0
1, 18800, Note_on_c, 0, 78, 0
1, 18862, Note_on_c, 0, 57, 52
1, 18882, Note_on_c, 0, 54, 0
1, 19026, Note_on_c, 0, 75, 0
1, 19026, Note_on_c, 0, 76, 75
1, 19026, Note_on_c, 0, 73, 73
1, 19029, Note_on_c, 0, 85, 86
1, 19029, Note_on_c, 0, 57, 0
1, 19029, Control_c, 0, 64, 0
1, 19032, Note_on_c, 0, 40, 61
1, 19046, Note_on_c, 0, 83, 0
1, 19046, Note_on_c, 0, 71, 0
1, 19068, Control_c, 0, 64, 127
1, 19185, Note_on_c, 0, 52, 52
1, 19205, Note_on_c, 0, 40, 0
1, 19265, Note_on_c, 0, 81, 83
1, 19265, Note_on_c, 0, 69, 71
1, 19286, Note_on_c, 0, 73, 0
1, 19286, Note_on_c, 0, 85, 0
1, 19347, Note_on_c, 0, 61, 52
1, 19368, Note_on_c, 0, 52, 0
1, 19512, Note_on_c, 0, 76, 0
1, 19512, Note_on_c, 0, 74, 85
1, 19512, Note_on_c, 0, 68, 79
1, 19515, Note_on_c, 0, 80, 93
1, 19515, Note_on_c, 0, 61, 0
1, 19515, Note_on_c, 0, 52, 63
1, 19532, Note_on_c, 0, 81, 0
1, 19532, Note_on_c, 0, 69, 0
1, 19555, Control_c, 0, 64, 0
1, 19606, Control_c, 0, 64, 127
1, 19675, Note_on_c, 0, 59, 55
1, 19756, Note_on_c, 0, 83, 87
1, 19756, Note_on_c, 0, 71, 75
1, 19777, Note_on_c, 0, 68, 0
1, 19777, Note_on_c, 0, 80, 0
1, 19838, Note_on_c, 0, 59, 0
1, 19838, Note_on_c, 0, 62, 55
1, 20001, Note_on_c, 0, 83, 0
1, 20001, Note_on_c, 0, 74, 0
1, 20001, Note_on_c, 0, 71, 0
1, 20004, Note_on_c, 0, 82, 98
1, 20004, Note_on_c, 0, 70, 84
1, 20004, Note_on_c, 0, 79, 84
1, 20007, Note_on_c, 0, 73, 84
1, 20007, Note_on_c, 0, 62, 0
1, 20007, Note_on_c, 0, 52, 0
1, 20010, Note_on_c, 0, 52, 67
1, 20010, Note_on_c, 0, 55, 67
1, 20010, Note_on_c, 0, 61, 67
1, 20038, Control_c, 0, 64, 0
1, 20149, Control_c, 0, 64, 127
1, 20505, Note_on_c, 0, 73, 0
1, 20505, Note_on_c, 0, 82, 0
1, 20505, Note_on_c, 0, 70, 0
1, 20508, Note_on_c, 0, 79, 0
1, 20508, Note_on_c, 0, 72, 87
1, 20508, Note_on_c, 0, 79, 87
1, 20511, Note_on_c, 0, 84, 102
1, 20511, Note_on_c, 0, 61, 0
1, 20511, Note_on_c, 0, 55, 0
1, 20514, Note_on_c, 0, 52, 0
1, 20514, Control_c, 0, 64, 0
1, 20514, Note_on_c, 0, 52, 75
1, 20517, Note_on_c, 0, 55, 75
1, 20517, Note_on_c, 0, 60, 75
1, 20609, Control_c, 0, 64, 127
1, 21009, Note_on_c, 0, 84, 0
1, 21009, Note_on_c, 0, 79, 0
1, 21009, Note_on_c, 0, 72, 0
1, 21012, Note_on_c, 0, 73, 85
1, 21012, Note_on_c, 0, 79, 85
1, 21012, Note_on_c, 0, 85, 100
1, 21015, Note_on_c, 0, 60, 0
1, 21015, Note_on_c, 0, 55, 0
1, 21015, Note_on_c, 0, 52, 0
1, 21018, Note_on_c, 0, 52, 75
1, 21018, Note_on_c, 0, 55, 75
1, 21018, Note_on_c, 0, 58, 75
1, 21047, Control_c, 0, 64, 0
1, 21161, Control_c, 0, 64, 127
1, 21552, Note_on_c, 0, 85, 0
1, 21552, Note_on_c, 0, 79, 0
1, 21552, Note_on_c, 0, 73, 0
1, 21555, Note_on_c, 0, 58, 0
1, 21555, Note_on_c, 0, 55, 0
1, 21555, Note_on_c, 0, 52, 0
1, 21563, Note_on_c, 0, 67, 46
1, 21563, Note_on_c, 0, 64, 46
1, 21563, Note_on_c, 0, 70, 53
1, 21566, Note_on_c, 0, 49, 46
1, 21566, Note_on_c, 0, 52, 46
1, 21566, Note_on_c, 0, 55, 46
1, 21584, Control_c, 0, 64, 0
1, 21723, Control_c, 0, 64, 127
1, 22145, Note_on_c, 0, 70, 0
1, 22145, Note_on_c, 0, 64, 0
1, 22145, Note_on_c, 0, 67, 0
1, 22148, Note_on_c, 0, 64, 48
1, 22148, Note_on_c, 0, 67, 48
1, 22148, Note_on_c, 0, 72, 57
1, 22151, Note_on_c, 0, 55, 0
1, 22151, Note_on_c, 0, 52, 0
1, 22151, Note_on_c, 0, 49, 0
1, 22154, Control_c, 0, 64, 0
1, 22154, Note_on_c, 0, 48, 49
1, 22154, Note_on_c, 0, 52, 49
1, 22157, Note_on_c, 0, 55, 49
1, 22260, Control_c, 0, 64, 127
1, 22807, Note_on_c, 0, 72, 0
1, 22807, Note_on_c, 0, 67, 0
1, 22807, Note_on_c, 0, 64, 0
1, 22810, Note_on_c, 0, 73, 53
1, 22810, Note_on_c, 0, 67, 46
1, 22810, Note_on_c, 0, 64, 46
1, 22813, Note_on_c, 0, 55, 0
1, 22813, Note_on_c, 0, 52, 0
1, 22813, Note_on_c, 0, 48, 0
1, 22816, Note_on_c, 0, 46, 46
1, 22816, Note_on_c, 0, 55, 46
1, 22816, Note_on_c, 0, 52, 46
1, 22899, Control_c, 0, 64, 0
1, 23131, Control_c, 0, 64, 127
1, 24056, Note_on_c, 0, 64, 0
1, 24056, Note_on_c, 0, 67, 0
1, 24056, Note_on_c, 0, 73, 0
1, 24059, Note_on_c, 0, 52, 0
1, 24059, Note_on_c, 0, 55, 0
1, 24059, Note_on_c, 0, 46, 0
1, 24118, Note_on_c, 0, 64, 52
1, 24118, Note_on_c, 0, 68, 62
1, 24118, Note_on_c, 0, 56, 52
1, 24121, Note_on_c, 0, 47, 52
1, 24121, Note_on_c, 0, 35, 38
1, 24173, Control_c, 0, 64, 0
1, 24257, Control_c, 0, 64, 127
1, 24594, Note_on_c, 0, 56, 0
1, 24594, Note_on_c, 0, 68, 0
1, 24594, Note_on_c, 0, 64, 0
1, 24597, Note_on_c, 0, 57, 52
1, 24597, Note_on_c, 0, 68, 60
1, 24597, Note_on_c, 0, 64, 52
1, 24600, Note_on_c, 0, 35, 0
1, 24600, Note_on_c, 0, 47, 0
1, 24600, Control_c, 0, 64, 0
1, 24603, Note_on_c, 0, 48, 52
1, 24603, Note_on_c, 0, 36, 38
1, 24706, Control_c, 0, 64, 127
1, 25067, Note_on_c, 0, 64, 0
1, 25067, Note_on_c, 0, 68, 0
1, 25067, Note_on_c, 0, 57, 0
1, 25070, Note_on_c, 0, 66, 60
1, 25070, Note_on_c, 0, 58, 52
1, 25070, Note_on_c, 0, 64, 52
1, 25073, Note_on_c, 0, 36, 0
1, 25073, Note_on_c, 0, 48, 0
1, 25073, Note_on_c, 0, 37, 38
1, 25076, Note_on_c, 0, 49, 52
1, 25145, Control_c, 0, 64, 0
1, 25222, Control_c, 0, 64, 127
1, 25531, Note_on_c, 0, 64, 0
1, 25531, Note_on_c, 0, 58, 0
1, 25531, Note_on_c, 0, 66, 0
1, 25534, Note_on_c, 0, 58, 41
1, 25534, Note_on_c, 0, 65, 58
1, 25534, Note_on_c, 0, 64, 49
1, 25537, Note_on_c, 0, 49, 0
1, 25537, Note_on_c, 0, 37, 0
1, 25537, Note_on_c, 0, 42, 48
1, 25540, Note_on_c, 0, 30, 35
1, 25576, Control_c, 0, 64, 0
1, 25687, Control_c, 0, 64, 127
1, 25766, Note_on_c, 0, 65, 0
1, 25766, Note_on_c, 0, 66, 61
1, 26001, Note_on_c, 0, 66, 0
1, 26001, Note_on_c, 0, 64, 0
1, 26001, Note_on_c, 0, 58, 0
1, 26004, Note_on_c, 0, 69, 62
1, 26004, Note_on_c, 0, 63, 48
1, 26004, Note_on_c, 0, 57, 37
1, 26007, Note_on_c, 0, 30, 0
1, 26007, Note_on_c, 0, 42, 0
1, 26007, Note_on_c, 0, 35, 40
1, 26029, Control_c, 0, 64, 0
1, 26072, Control_c, 0, 64, 127
1, 26240, Note_on_c, 0, 69, 0
1, 26240, Note_on_c, 0, 66, 57
1, 26474, Note_on_c, 0, 66, 0
1, 26474, Note_on_c, 0, 57, 0
1, 26474, Note_on_c, 0, 63, 0
1, 26477, Note_on_c, 0, 57, 58
1, 26477, Note_on_c, 0, 64, 58
1, 26477, Note_on_c, 0, 35, 0
1, 26480, Note_on_c, 0, 47, 31
1, 26480, Note_on_c, 0, 54, 33
1, 26502, Control_c, 0, 64, 0
1, 26529, Control_c, 0, 64, 127
1, 26711, Note_on_c, 0, 64, 0
1, 26711, Note_on_c, 0, 63, 50
1, 26939, Note_on_c, 0, 63, 0
1, 26939, Note_on_c, 0, 57, 0
1, 26939, Note_on_c, 0, 54, 0
1, 26942, Note_on_c, 0, 47, 0
1, 26960, Note_on_c, 0, 73, 72
1, 26960, Note_on_c, 0, 61, 62
1, 26960, Note_on_c, 0, 69, 62
1, 26963, Note_on_c, 0, 30, 46
1, 26963, Note_on_c, 0, 42, 54
1, 27001, Control_c, 0, 64, 0
1, 27127, Control_c, 0, 64, 127
1, 27435, Note_on_c, 0, 69, 0
1, 27435, Note_on_c, 0, 61, 0
1, 27435, Note_on_c, 0, 73, 0
1, 27438, Note_on_c, 0, 69, 62
1, 27438, Note_on_c, 0, 73, 72
1, 27438, Note_on_c, 0, 62, 62
1, 27441, Note_on_c, 0, 42, 0
1, 27441, Note_on_c, 0, 30, 0
1, 27441, Note_on_c, 0, 35, 46
1, 27444, Control_c, 0, 64, 0
1, 27444, Note_on_c, 0, 47, 53
1, 27581, Control_c, 0, 64, 127
1, 27883, Control_c, 0, 64, 0
1, 27906, Note_on_c, 0, 62, 0
1, 27906, Note_on_c, 0, 73, 0
1, 27906, Note_on_c, 0, 69, 0
1, 27909, Note_on_c, 0, 71, 71
1, 27909, Note_on_c, 0, 69, 61
1, 27909, Note_on_c, 0, 63, 61
1, 27912, Note_on_c, 0, 47, 0
1, 27912, Note_on_c, 0, 35, 0
1, 27912, Note_on_c, 0, 44, 53
1, 27915, Note_on_c, 0, 32, 46
1, 28006, Control_c, 0, 64, 127
1, 28350, Control_c, 0, 64, 0
1, 28372, Note_on_c, 0, 63, 0
1, 28372, Note_on_c, 0, 69, 0
1, 28372, Note_on_c, 0, 71, 0
1, 28375, Note_on_c, 0, 71, 57
1, 28375, Note_on_c, 0, 68, 57
1, 28375, Note_on_c, 0, 64, 68
1, 28378, Note_on_c, 0, 32, 0
1, 28378, Note_on_c, 0, 44, 0
1, 28378, Note_on_c, 0, 37, 46
1, 28381, Note_on_c, 0, 49, 54
1, 28450, Control_c, 0, 64, 127
1, 28606, Note_on_c, 0, 65, 68
1, 28645, Note_on_c, 0, 64, 0
1, 28839, Note_on_c, 0, 71, 0
1, 28839, Note_on_c, 0, 68, 0
1, 28839, Note_on_c, 0, 65, 0
1, 28842, Note_on_c, 0, 68, 70
1, 28842, Note_on_c, 0, 71, 64
1, 28842, Note_on_c, 0, 49, 0
1, 28845, Note_on_c, 0, 37, 0
1, 28845, Note_on_c, 0, 30, 40
1, 28845, Note_on_c, 0, 42, 47
1, 28848, Control_c, 0, 64, 0
1, 28893, Control_c, 0, 64, 127
1, 29073, Note_on_c, 0, 68, 0
1, 29073, Note_on_c, 0, 66, 63
1, 29307, Note_on_c, 0, 66, 0
1, 29307, Note_on_c, 0, 71, 0
1, 29307, Note_on_c, 0, 69, 60
1, 29310, Note_on_c, 0, 61, 63
1, 29310, Note_on_c, 0, 42, 0
1, 29310, Note_on_c, 0, 30, 0
1, 29313, Note_on_c, 0, 54, 40
1, 29313, Note_on_c, 0, 42, 32
1, 29329, Control_c, 0, 64, 0
1, 29360, Control_c, 0, 64, 127
1, 29542, Note_on_c, 0, 61, 0
1, 29542, Note_on_c, 0, 57, 57
1, 29759, Note_on_c, 0, 57, 0
1, 29759, Note_on_c, 0, 69, 0
1, 29759, Note_on_c, 0, 42, 0
1, 29762, Note_on_c, 0, 54, 0
1, 29779, Note_on_c, 0, 68, 75
1, 29779, Note_on_c, 0, 74, 86
1, 29779, Note_on_c, 0, 62, 75
1, 29782, Note_on_c, 0, 28, 64
1, 29782, Note_on_c, 0, 40, 75
1, 29821, Control_c, 0, 64, 0
1, 29844, Control_c, 0, 64, 127
1, 30233, Note_on_c, 0, 62, 0
1, 30233, Note_on_c, 0, 74, 0
1, 30233, Note_on_c, 0, 68, 0
1, 30236, Note_on_c, 0, 40, 0
1, 30236, Note_on_c, 0, 28, 0
1, 30236, Control_c, 0, 64, 0
1, 30252, Note_on_c, 0, 63, 76
1, 30252, Note_on_c, 0, 74, 90
1, 30252, Note_on_c, 0, 69, 76
1, 30255, Note_on_c, 0, 29, 65
1, 30255, Note_on_c, 0, 41, 76
1, 30410, Control_c, 0, 64, 127
1, 30726, Note_on_c, 0, 69, 0
1, 30726, Note_on_c, 0, 74, 0
1, 30726, Note_on_c, 0, 63, 0
1, 30729, Note_on_c, 0, 69, 72
1, 30729, Note_on_c, 0, 72, 72
1, 30729, Note_on_c, 0, 63, 72
1, 30732, Note_on_c, 0, 41, 0
1, 30732, Note_on_c, 0, 29, 0
1, 30732, Note_on_c, 0, 53, 72
1, 30735, Note_on_c, 0, 41, 62
1, 30810, Control_c, 0, 64, 0
1, 30895, Control_c, 0, 64, 127
1, 31170, Note_on_c, 0, 63, 0
1, 31170, Note_on_c, 0, 72, 0
1, 31170, Note_on_c, 0, 69, 0
1, 31173, Note_on_c, 0, 75, 95
1, 31173, Note_on_c, 0, 60, 83
1, 31173, Note_on_c, 0, 69, 83
1, 31176, Note_on_c, 0, 41, 0
1, 31176, Note_on_c, 0, 53, 0
1, 31176, Note_on_c, 0, 42, 77
1, 31179, Note_on_c, 0, 30, 65
1, 31303, Control_c, 0, 64, 0
1, 31414, Control_c, 0, 64, 127
1, 31638, Note_on_c, 0, 69, 0
1, 31638, Note_on_c, 0, 60, 0
1, 31638, Note_on_c, 0, 75, 0
1, 31641, Note_on_c, 0, 74, 92
1, 31641, Note_on_c, 0, 62, 78
1, 31641, Note_on_c, 0, 69, 78
1, 31644, Note_on_c, 0, 30, 0
1, 31644, Note_on_c, 0, 42, 0
1, 31644, Control_c, 0, 64, 0
1, 31647, Note_on_c, 0, 42, 64
1, 31647, Note_on_c, 0, 54, 75
1, 31771, Control_c, 0, 64, 127
1, 32106, Note_on_c, 0, 69, 0
1, 32106, Note_on_c, 0, 62, 0
1, 32106, Note_on_c, 0, 74, 0
1, 32109, Note_on_c, 0, 72, 87
1, 32109, Note_on_c, 0, 69, 75
1, 32109, Note_on_c, 0, 63, 75
1, 32112, Note_on_c, 0, 54, 0
1, 32112, Note_on_c, 0, 42, 0
1, 32112, Note_on_c, 0, 29, 60
1, 32115, Note_on_c, 0, 41, 70
1, 32178, Control_c, 0, 64, 0
1, 32297, Control_c, 0, 64, 127
1, 32607, Note_on_c, 0, 63, 0
1, 32607, Note_on_c, 0, 69, 0
1, 32607, Note_on_c, 0, 72, 0
1, 32610, Note_on_c, 0, 51, 64
1, 32610, Note_on_c, 0, 63, 77
1, 32610, Note_on_c, 0, 57, 64
1, 32613, Note_on_c, 0, 41, 0
1, 32613, Note_on_c, 0, 29, 0
1, 32613, Note_on_c, 0, 41, 52
1, 32616, Note_on_c, 0, 48, 61
1, 32684, Control_c, 0, 64, 0
1, 32837, Control_c, 0, 64, 127
1, 33143, Note_on_c, 0, 63, 0
1, 33143, Note_on_c, 0, 51, 0
1, 33143, Note_on_c, 0, 50, 62
1, 33146, Note_on_c, 0, 62, 72
1, 33146, Note_on_c, 0, 41, 0
1, 33146, Control_c, 0, 64, 0
1, 33149, Note_on_c, 0, 42, 47
1, 33325, Control_c, 0, 64, 127
1, 33689, Note_on_c, 0, 62, 0
1, 33689, Note_on_c, 0, 50, 0
1, 33689, Note_on_c, 0, 57, 0
1, 33692, Note_on_c, 0, 57, 57
1, 33692, Note_on_c, 0, 51, 57
1, 33692, Note_on_c, 0, 63, 67
1, 33695, Note_on_c, 0, 42, 0
1, 33695, Note_on_c, 0, 48, 0
1, 33695, Note_on_c, 0, 43, 54
1, 33698, Note_on_c, 0, 47, 54
1, 33769, Control_c, 0, 64, 0
1, 33928, Control_c, 0, 64, 127
1, 34246, Note_on_c, 0, 63, 0
1, 34246, Note_on_c, 0, 51, 0
1, 34246, Note_on_c, 0, 57, 0
1, 34249, Note_on_c, 0, 52, 57
1, 34249, Note_on_c, 0, 55, 57
1, 34249, Note_on_c, 0, 64, 68
1, 34252, Note_on_c, 0, 43, 0
1, 34252, Note_on_c, 0, 40, 55
1, 34423, Control_c, 0, 64, 0
1, 34599, Control_c, 0, 64, 127
1, 34864, Note_on_c, 0, 64, 0
1, 34864, Note_on_c, 0, 55, 0
1, 34864, Note_on_c, 0, 52, 0
1, 34867, Note_on_c, 0, 54, 54
1, 34867, Note_on_c, 0, 63, 54
1, 34867, Note_on_c, 0, 66, 63
1, 34870, Note_on_c, 0, 40, 0
1, 34870, Note_on_c, 0, 47, 0
1, 34870, Note_on_c, 0, 47, 52
1, 34873, Note_on_c, 0, 35, 45
1, 34902, Control_c, 0, 64, 0
1, 34956, Control_c, 0, 64, 127
1, 35365, Control_c, 0, 64, 0
1, 35420, Note_on_c, 0, 66, 0
1, 35420, Note_on_c, 0, 63, 0
1, 35420, Note_on_c, 0, 54, 0
1, 35423, Note_on_c, 0, 35, 0
1, 35423, Note_on_c, 0, 47, 0
1, 35423, Note_on_c, 0, 28, 48
1, 35460, Control_c, 0, 64, 127
1, 35555, Note_on_c, 0, 40, 54
1, 35724, Note_on_c, 0, 56, 49
1, 35724, Note_on_c, 0, 59, 49
1, 35724, Note_on_c, 0, 68, 60
1, 35727, Note_on_c, 0, 64, 49
1, 35727, Note_on_c, 0, 47, 48
1, 36964, Note_on_c, 0, 28, 0
1, 37584, Note_on_c, 0, 64, 0
1, 37584, Note_on_c, 0, 56, 0
1, 37584, Note_on_c, 0, 59, 0
1, 37587, Note_on_c, 0, 68, 0
1, 37587, Note_on_c, 0, 59, 39
1, 37587, Note_on_c, 0, 68, 47
1, 37590, Note_on_c, 0, 56, 39
1, 37590, Note_on_c, 0, 47, 0
1, 37590, Note_on_c, 0, 40, 0
1, 37593, Note_on_c, 0, 51, 37
1, 37593, Note_on_c, 0, 39, 37
1, 37593, Note_on_c, 0, 47, 37
1, 37854, Control_c, 0, 64, 0
1, 38154, Control_c, 0, 64, 127
1, 39535, Control_c, 0, 64, 0
1, 39741, Note_on_c, 0, 56, 0
1, 39741, Note_on_c, 0, 68, 0
1, 39741, Note_on_c, 0, 59, 0
1, 39744, Note_on_c, 0, 75, 67
1, 39744, Note_on_c, 0, 47, 0
1, 39744, Note_on_c, 0, 39, 0
1, 39747, Note_on_c, 0, 51, 0
1, 39747, Control_c, 0, 64, 127
1, 39898, Note_on_c, 0, 71, 55
1, 40052, Note_on_c, 0, 71, 0
1, 40052, Note_on_c, 0, 68, 54
1, 40206, Note_on_c, 0, 68, 0
1, 40206, Note_on_c, 0, 75, 0
1, 40206, Note_on_c, 0, 73, 63
1, 40209, Note_on_c, 0, 63, 54
1, 40209, Control_c, 0, 64, 0
1, 40281, Control_c, 0, 64, 127
1, 40360, Note_on_c, 0, 63, 0
1, 40360, Note_on_c, 0, 59, 38
1, 40511, Note_on_c, 0, 59, 0
1, 40511, Note_on_c, 0, 56, 45
1, 40656, Control_c, 0, 64, 0
1, 40663, Note_on_c, 0, 73, 0
1, 40663, Note_on_c, 0, 71, 70
1, 40663, Note_on_c, 0, 56, 0
1, 40731, Control_c, 0, 64, 127
1, 40816, Note_on_c, 0, 68, 60
1, 40966, Note_on_c, 0, 68, 0
1, 40966, Note_on_c, 0, 64, 53
1, 41088, Control_c, 0, 64, 0
1, 41114, Note_on_c, 0, 64, 0
1, 41114, Note_on_c, 0, 71, 0
1, 41114, Note_on_c, 0, 70, 63
1, 41117, Note_on_c, 0, 59, 53
1, 41147, Control_c, 0, 64, 127
1, 41267, Note_on_c, 0, 59, 0
1, 41267, Note_on_c, 0, 56, 39
1, 41418, Note_on_c, 0, 56, 0
1, 41418, Note_on_c, 0, 52, 46
1, 41569, Note_on_c, 0, 70, 0
1, 41569, Note_on_c, 0, 68, 70
1, 41569, Note_on_c, 0, 52, 0
1, 41572, Control_c, 0, 64, 0
1, 41623, Control_c, 0, 64, 127
1, 41722, Note_on_c, 0, 64, 60
1, 41873, Note_on_c, 0, 64, 0
1, 41873, Note_on_c, 0, 61, 60
1, 42017, Control_c, 0, 64, 0
1, 42030, Note_on_c, 0, 61, 0
1, 42030, Note_on_c, 0, 68, 0
1, 42030, Note_on_c, 0, 71, 83
1, 42033, Note_on_c, 0, 56, 57
1, 42088, Control_c, 0, 64, 127
1, 42194, Note_on_c, 0, 56, 0
1, 42194, Note_on_c, 0, 52, 41
1, 42255, Note_on_c, 0, 71, 0
1, 42276, Note_on_c, 0, 70, 76
1, 42354, Note_on_c, 0, 52, 0
1, 42354, Note_on_c, 0, 49, 47
1, 42470, Control_c, 0, 64, 0
1, 42492, Note_on_c, 0, 70, 0
1, 42511, Note_on_c, 0, 68, 72
1, 42511, Note_on_c, 0, 49, 0
1, 42511, Control_c, 0, 64, 127
1, 42664, Note_on_c, 0, 64, 61
1, 42815, Note_on_c, 0, 64, 0
1, 42815, Note_on_c, 0, 61, 63
1, 42970, Note_on_c, 0, 61, 0
1, 42970, Note_on_c, 0, 68, 0
1, 42970, Note_on_c, 0, 71, 83
1, 42973, Control_c, 0, 64, 0
1, 42973, Note_on_c, 0, 56, 57
1, 43034, Control_c, 0, 64, 127
1, 43133, Note_on_c, 0, 56, 0
1, 43133, Note_on_c, 0, 52, 45
1, 43194, Note_on_c, 0, 71, 0
1, 43214, Note_on_c, 0, 70, 76
1, 43292, Note_on_c, 0, 52, 0
1, 43292, Note_on_c, 0, 49, 47
1, 43429, Note_on_c, 0, 70, 0
1, 43437, Control_c, 0, 64, 0
1, 43448, Note_on_c, 0, 49, 0
1, 43448, Control_c, 0, 64, 127
1, 43467, Note_on_c, 0, 68, 72
1, 43620, Note_on_c, 0, 64, 60
1, 43774, Note_on_c, 0, 64, 0
1, 43774, Note_on_c, 0, 61, 64
1, 43922, Note_on_c, 0, 73, 85
1, 43922, Note_on_c, 0, 58, 62
1, 43943, Note_on_c, 0, 61, 0
1, 43943, Note_on_c, 0, 68, 0
1, 43946, Control_c, 0, 64, 0
1, 44020, Control_c, 0, 64, 127
1, 44094, Note_on_c, 0, 58, 0
1, 44094, Note_on_c, 0, 55, 53
1, 44158, Note_on_c, 0, 73, 0
1, 44180, Note_on_c, 0, 71, 73
1, 44264, Note_on_c, 0, 55, 0
1, 44264, Note_on_c, 0, 51, 48
1, 44411, Note_on_c, 0, 71, 0
1, 44432, Note_on_c, 0, 70, 78
1, 44432, Note_on_c, 0, 51, 0
1, 44432, Control_c, 0, 64, 0
1, 44489, Control_c, 0, 64, 127
1, 44592, Note_on_c, 0, 67, 65
1, 44757, Note_on_c, 0, 67, 0
1, 44757, Note_on_c, 0, 63, 62
1, 44921, Control_c, 0, 64, 0
1, 44928, Note_on_c, 0, 63, 0
1, 44928, Note_on_c, 0, 70, 0
1, 44928, Note_on_c, 0, 76, 75
1, 44931, Note_on_c, 0, 61, 53
1, 44958, Control_c, 0, 64, 127
1, 45099, Note_on_c, 0, 61, 0
1, 45099, Note_on_c, 0, 58, 38
1, 45266, Note_on_c, 0, 58, 0
1, 45266, Note_on_c, 0, 55, 45
1, 45437, Note_on_c, 0, 76, 0
1, 45437, Note_on_c, 0, 75, 71
1, 45437, Note_on_c, 0, 55, 0
1, 45440, Note_on_c, 0, 51, 50
1, 45451, Control_c, 0, 64, 0
1, 45487, Control_c, 0, 64, 127
1, 45601, Note_on_c, 0, 70, 52
1, 45680, Note_on_c, 0, 51, 0
1, 45760, Note_on_c, 0, 70, 0
1, 45760, Note_on_c, 0, 67, 61
1, 45922, Note_on_c, 0, 67, 0
1, 45922, Note_on_c, 0, 75, 0
1, 45922, Note_on_c, 0, 73, 63
1, 45925, Note_on_c, 0, 63, 54
1, 45925, Control_c, 0, 64, 0
1, 46017, Control_c, 0, 64, 127
1, 46075, Note_on_c, 0, 63, 0
1, 46075, Note_on_c, 0, 59, 39
1, 46227, Note_on_c, 0, 59, 0
1, 46227, Note_on_c, 0, 56, 45
1, 46379, Note_on_c, 0, 73, 0
1, 46379, Note_on_c, 0, 71, 70
1, 46379, Note_on_c, 0, 56, 0
1, 46399, Control_c, 0, 64, 0
1, 46460, Control_c, 0, 64, 127
1, 46532, Note_on_c, 0, 68, 53
1, 46682, Note_on_c, 0, 68, 0
1, 46682, Note_on_c, 0, 64, 60
1, 46829, Note_on_c, 0, 64, 0
1, 46829, Note_on_c, 0, 71, 0
1, 46829, Note_on_c, 0, 70, 63
1, 46832, Note_on_c, 0, 59, 53
1, 46870, Control_c, 0, 64, 0
1, 46891, Control_c, 0, 64, 127
1, 46983, Note_on_c, 0, 59, 0
1, 46983, Note_on_c, 0, 56, 40
1, 47134, Note_on_c, 0, 56, 0
1, 47134, Note_on_c, 0, 52, 41
1, 47285, Note_on_c, 0, 70, 0
1, 47285, Note_on_c, 0, 68, 70
1, 47285, Note_on_c, 0, 52, 0
1, 47288, Control_c, 0, 64, 0
1, 47332, Control_c, 0, 64, 127
1, 47438, Note_on_c, 0, 64, 60
1, 47589, Note_on_c, 0, 64, 0
1, 47589, Note_on_c, 0, 61, 60
1, 47746, Note_on_c, 0, 61, 0
1, 47746, Note_on_c, 0, 68, 0
1, 47746, Note_on_c, 0, 71, 83
1, 47749, Note_on_c, 0, 56, 57
1, 47753, Control_c, 0, 64, 0
1, 47826, Control_c, 0, 64, 127
1, 47911, Note_on_c, 0, 56, 0
1, 47911, Note_on_c, 0, 52, 45
1, 47972, Note_on_c, 0, 71, 0
1, 47992, Note_on_c, 0, 70, 76
1, 48072, Note_on_c, 0, 52, 0
1, 48072, Note_on_c, 0, 49, 47
1, 48203, Control_c, 0, 64, 0
1, 48211, Note_on_c, 0, 70, 0
1, 48231, Note_on_c, 0, 64, 86
1, 48231, Note_on_c, 0, 49, 0
1, 48231, Control_c, 0, 64, 127
1, 48387, Note_on_c, 0, 61, 76
1, 48541, Note_on_c, 0, 58, 72
1, 48561, Note_on_c, 0, 61, 0
1, 48701, Note_on_c, 0, 58, 0
1, 48701, Note_on_c, 0, 64, 0
1, 48701, Note_on_c, 0, 68, 87
1, 48704, Note_on_c, 0, 52, 62
1, 48704, Control_c, 0, 64, 0
1, 48792, Control_c, 0, 64, 127
1, 48872, Note_on_c, 0, 52, 0
1, 48872, Note_on_c, 0, 49, 46
1, 48936, Note_on_c, 0, 68, 0
1, 48958, Note_on_c, 0, 66, 84
1, 49039, Note_on_c, 0, 49, 0
1, 49039, Note_on_c, 0, 46, 53
1, 49182, Note_on_c, 0, 66, 0
1, 49202, Note_on_c, 0, 61, 91
1, 49202, Note_on_c, 0, 46, 0
1, 49216, Control_c, 0, 64, 0
1, 49258, Control_c, 0, 64, 127
1, 49361, Note_on_c, 0, 58, 84
1, 49521, Note_on_c, 0, 58, 0
1, 49521, Note_on_c, 0, 54, 76
1, 49643, Control_c, 0, 64, 0
1, 49687, Note_on_c, 0, 54, 0
1, 49687, Note_on_c, 0, 61, 0
1, 49687, Note_on_c, 0, 63, 86
1, 49690, Note_on_c, 0, 49, 77
1, 49694, Control_c, 0, 64, 127
1, 49850, Note_on_c, 0, 49, 0
1, 49850, Note_on_c, 0, 46, 75
1, 50013, Note_on_c, 0, 46, 0
1, 50013, Note_on_c, 0, 42, 69
1, 50183, Note_on_c, 0, 63, 0
1, 50183, Note_on_c, 0, 64, 95
1, 50183, Note_on_c, 0, 42, 0
1, 50186, Control_c, 0, 64, 0
1, 50256, Control_c, 0, 64, 127
1, 50353, Note_on_c, 0, 61, 86
1, 50523, Note_on_c, 0, 61, 0
1, 50523, Note_on_c, 0, 58, 75
1, 50695, Note_on_c, 0, 58, 0
1, 50695, Note_on_c, 0, 49, 78
1, 50890, Note_on_c, 0, 49, 0
1, 50890, Note_on_c, 0, 46, 71
1, 51093, Note_on_c, 0, 46, 0
1, 51093, Note_on_c, 0, 43, 65
1, 51317, Note_on_c, 0, 64, 0
1, 51317, Note_on_c, 0, 63, 64
1, 51317, Note_on_c, 0, 43, 0
1, 51320, Control_c, 0, 64, 0
1, 51320, Note_on_c, 0, 39, 54
1, 51414, Control_c, 0, 64, 127
1, 51488, Note_on_c, 0, 67, 54
1, 51572, Note_on_c, 0, 39, 0
1, 51656, Note_on_c, 0, 67, 0
1, 51656, Note_on_c, 0, 70, 60
1, 51830, Note_on_c, 0, 70, 0
1, 51830, Note_on_c, 0, 63, 0
1, 51830, Note_on_c, 0, 61, 64
1, 51833, Note_on_c, 0, 44, 49
1, 51833, Control_c, 0, 64, 0
1, 51881, Control_c, 0, 64, 127
1, 51998, Note_on_c, 0, 44, 0
1, 51998, Note_on_c, 0, 51, 40
1, 52163, Note_on_c, 0, 51, 0
1, 52163, Note_on_c, 0, 56, 47
1, 52336, Note_on_c, 0, 61, 0
1, 52336, Note_on_c, 0, 59, 64
1, 52336, Note_on_c, 0, 56, 0
1, 52365, Control_c, 0, 64, 0
1, 52408, Control_c, 0, 64, 127
1, 52497, Note_on_c, 0, 63, 55
1, 52655, Note_on_c, 0, 63, 0
1, 52655, Note_on_c, 0, 68, 60
1, 52813, Note_on_c, 0, 68, 0
1, 52813, Note_on_c, 0, 59, 0
1, 52813, Note_on_c, 0, 58, 63
1, 52816, Note_on_c, 0, 40, 54
1, 52848, Control_c, 0, 64, 0
1, 52898, Control_c, 0, 64, 127
1, 52973, Note_on_c, 0, 40, 0
1, 52973, Note_on_c, 0, 47, 48
1, 53131, Note_on_c, 0, 47, 0
1, 53131, Note_on_c, 0, 52, 52
1, 53288, Note_on_c, 0, 58, 0
1, 53288, Note_on_c, 0, 56, 64
1, 53288, Note_on_c, 0, 52, 0
1, 53291, Control_c, 0, 64, 0
1, 53323, Control_c, 0, 64, 127
1, 53446, Note_on_c, 0, 59, 53
1, 53604, Note_on_c, 0, 64, 60
1, 53625, Note_on_c, 0, 59, 0
1, 53767, Note_on_c, 0, 64, 0
1, 53767, Note_on_c, 0, 56, 0
1, 53767, Note_on_c, 0, 59, 75
1, 53770, Note_on_c, 0, 37, 60
1, 53805, Control_c, 0, 64, 0
1, 53940, Note_on_c, 0, 37, 0
1, 53940, Note_on_c, 0, 44, 53
1, 53983, Note_on_c, 0, 59, 0
1, 54027, Note_on_c, 0, 58, 70
1, 54110, Note_on_c, 0, 44, 0
1, 54110, Note_on_c, 0, 52, 46
1, 54246, Note_on_c, 0, 58, 0
1, 54278, Note_on_c, 0, 56, 67
1, 54278, Note_on_c, 0, 52, 0
1, 54330, Control_c, 0, 64, 127
1, 54436, Note_on_c, 0, 61, 54
1, 54594, Note_on_c, 0, 64, 60
1, 54614, Note_on_c, 0, 61, 0
1, 54757, Note_on_c, 0, 64, 0
1, 54757, Note_on_c, 0, 56, 0
1, 54757, Note_on_c, 0, 59, 73
1, 54760, Note_on_c, 0, 37, 60
1, 54760, Control_c, 0, 64, 0
1, 54932, Note_on_c, 0, 37, 0
1, 54932, Note_on_c, 0, 44, 53
1, 54975, Note_on_c, 0, 59, 0
1, 55019, Note_on_c, 0, 58, 69
1, 55104, Note_on_c, 0, 44, 0
1, 55104, Note_on_c, 0, 52, 46
1, 55243, Note_on_c, 0, 58, 0
1, 55275, Note_on_c, 0, 56, 64
1, 55275, Note_on_c, 0, 52, 0
1, 55323, Control_c, 0, 64, 127
1, 55434, Note_on_c, 0, 59, 55
1, 55594, Note_on_c, 0, 59, 0
1, 55594, Note_on_c, 0, 64, 60
1, 55640, Control_c, 0, 64, 0
1, 55754, Note_on_c, 0, 64, 0
1, 55754, Note_on_c, 0, 56, 0
1, 55754, Note_on_c, 0, 61, 71
1, 55757, Note_on_c, 0, 39, 57
1, 55925, Note_on_c, 0, 39, 0
1, 55925, Note_on_c, 0, 46, 53
1, 55970, Note_on_c, 0, 61, 0
1, 56016, Note_on_c, 0, 59, 65
1, 56106, Note_on_c, 0, 46, 0
1, 56106, Note_on_c, 0, 55, 46
1, 56254, Note_on_c, 0, 59, 0
1, 56288, Note_on_c, 0, 58, 63
1, 56288, Note_on_c, 0, 55, 0
1, 56288, Control_c, 0, 64, 127
1, 56469, Note_on_c, 0, 63, 60
1, 56647, Note_on_c, 0, 63, 0
1, 56647, Note_on_c, 0, 67, 57
1, 56827, Note_on_c, 0, 67, 0
1, 56827, Note_on_c, 0, 58, 0
1, 56827, Note_on_c, 0, 76, 75
1, 56830, Note_on_c, 0, 61, 53
1, 56833, Control_c, 0, 64, 0
1, 56870, Control_c, 0, 64, 127
1, 56998, Note_on_c, 0, 61, 0
1, 56998, Note_on_c, 0, 58, 39
1, 57165, Note_on_c, 0, 58, 0
1, 57165, Note_on_c, 0, 55, 45
1, 57336, Note_on_c, 0, 76, 0
1, 57336, Note_on_c, 0, 75, 70
1, 57336, Note_on_c, 0, 55, 0
1, 57339, Note_on_c, 0, 51, 45
1, 57342, Control_c, 0, 64, 0
1, 57401, Control_c, 0, 64, 127
1, 57502, Note_on_c, 0, 70, 53
1, 57584, Note_on_c, 0, 51, 0
1, 57665, Note_on_c, 0, 70, 0
1, 57665, Note_on_c, 0, 67, 52
1, 57832, Note_on_c, 0, 67, 0
1, 57832, Note_on_c, 0, 75, 0
1, 57832, Note_on_c, 0, 73, 63
1, 57835, Control_c, 0, 64, 0
1, 57835, Note_on_c, 0, 63, 54
1, 57895, Control_c, 0, 64, 127
1, 57989, Note_on_c, 0, 63, 0
1, 57989, Note_on_c, 0, 59, 40
1, 58144, Note_on_c, 0, 59, 0
1, 58144, Note_on_c, 0, 56, 45
1, 58299, Note_on_c, 0, 73, 0
1, 58299, Note_on_c, 0, 71, 70
1, 58299, Note_on_c, 0, 56, 0
1, 58354, Control_c, 0, 64, 0
1, 58410, Control_c, 0, 64, 127
1, 58456, Note_on_c, 0, 68, 53
1, 58609, Note_on_c, 0, 68, 0
1, 58609, Note_on_c, 0, 64, 60
1, 58734, Control_c, 0, 64, 0
1, 58760, Note_on_c, 0, 64, 0
1, 58760, Note_on_c, 0, 71, 0
1, 58760, Note_on_c, 0, 70, 63
1, 58763, Note_on_c, 0, 59, 53
1, 58801, Control_c, 0, 64, 127
1, 58917, Note_on_c, 0, 59, 0
1, 58917, Note_on_c, 0, 56, 40
1, 59071, Note_on_c, 0, 56, 0
1, 59071, Note_on_c, 0, 52, 46
1, 59225, Note_on_c, 0, 70, 0
1, 59225, Note_on_c, 0, 68, 70
1, 59225, Note_on_c, 0, 52, 0
1, 59228, Control_c, 0, 64, 0
1, 59263, Control_c, 0, 64, 127
1, 59382, Note_on_c, 0, 64, 60
1, 59536, Note_on_c, 0, 64, 0
1, 59536, Note_on_c, 0, 61, 60
1, 59697, Note_on_c, 0, 61, 0
1, 59697, Note_on_c, 0, 68, 0
1, 59697, Note_on_c, 0, 58, 83
1, 59700, Note_on_c, 0, 37, 60
1, 59704, Control_c, 0, 64, 0
1, 59754, Control_c, 0, 64, 127
1, 59861, Note_on_c, 0, 37, 0
1, 59861, Note_on_c, 0, 44, 41
1, 59902, Note_on_c, 0, 58, 0
1, 59943, Note_on_c, 0, 59, 75
1, 60024, Note_on_c, 0, 44, 0
1, 60024, Note_on_c, 0, 52, 48
1, 60154, Note_on_c, 0, 59, 0
1, 60184, Note_on_c, 0, 61, 72
1, 60184, Note_on_c, 0, 52, 0
1, 60197, Control_c, 0, 64, 0
1, 60235, Control_c, 0, 64, 127
1, 60340, Note_on_c, 0, 64, 76
1, 60496, Note_on_c, 0, 64, 0
1, 60496, Note_on_c, 0, 68, 80
1, 60652, Note_on_c, 0, 68, 0
1, 60652, Note_on_c, 0, 61, 0
1, 60652, Note_on_c, 0, 71, 85
1, 60655, Control_c, 0, 64, 0
1, 60655, Note_on_c, 0, 56, 65
1, 60698, Control_c, 0, 64, 127
1, 60814, Note_on_c, 0, 56, 0
1, 60814, Note_on_c, 0, 52, 55
1, 60854, Note_on_c, 0, 71, 0
1, 60895, Note_on_c, 0, 70, 80
1, 60975, Note_on_c, 0, 52, 0
1, 60975, Note_on_c, 0, 49, 62
1, 61105, Note_on_c, 0, 70, 0
1, 61135, Note_on_c, 0, 68, 90
1, 61135, Note_on_c, 0, 49, 0
1, 61142, Control_c, 0, 64, 0
1, 61177, Control_c, 0, 64, 127
1, 61296, Note_on_c, 0, 64, 80
1, 61457, Note_on_c, 0, 64, 0
1, 61457, Note_on_c, 0, 61, 85
1, 61520, Control_c, 0, 64, 0
1, 61618, Note_on_c, 0, 61, 0
1, 61618, Note_on_c, 0, 68, 0
1, 61618, Note_on_c, 0, 56, 98
1, 61621, Note_on_c, 0, 38, 67
1, 61660, Control_c, 0, 64, 127
1, 61791, Note_on_c, 0, 38, 0
1, 61791, Note_on_c, 0, 44, 52
1, 61834, Note_on_c, 0, 56, 0
1, 61878, Note_on_c, 0, 58, 91
1, 61961, Note_on_c, 0, 44, 0
1, 61961, Note_on_c, 0, 53, 58
1, 62073, Control_c, 0, 64, 0
1, 62097, Note_on_c, 0, 58, 0
1, 62129, Note_on_c, 0, 59, 98
1, 62129, Note_on_c, 0, 53, 0
1, 62129, Control_c, 0, 64, 127
1, 62300, Note_on_c, 0, 65, 91
1, 62471, Note_on_c, 0, 65, 0
1, 62471, Note_on_c, 0, 68, 93
1, 62654, Note_on_c, 0, 68, 0
1, 62654, Note_on_c, 0, 59, 0
1, 62654, Note_on_c, 0, 71, 105
1, 62657, Control_c, 0, 64, 0
1, 62657, Note_on_c, 0, 56, 83
1, 62689, Control_c, 0, 64, 127
1, 62831, Note_on_c, 0, 56, 0
1, 62831, Note_on_c, 0, 53, 62
1, 62875, Note_on_c, 0, 71, 0
1, 62919, Note_on_c, 0, 70, 95
1, 63008, Note_on_c, 0, 53, 0
1, 63008, Note_on_c, 0, 50, 70
1, 63152, Note_on_c, 0, 70, 0
1, 63185, Note_on_c, 0, 68, 88
1, 63185, Note_on_c, 0, 50, 0
1, 63209, Control_c, 0, 64, 0
1, 63236, Control_c, 0, 64, 127
1, 63363, Note_on_c, 0, 65, 78
1, 63540, Note_on_c, 0, 65, 0
1, 63540, Note_on_c, 0, 59, 70
1, 63721, Note_on_c, 0, 59, 0
1, 63721, Note_on_c, 0, 39, 67
1, 63721, Control_c, 0, 64, 0
1, 63810, Control_c, 0, 64, 127
1, 63903, Note_on_c, 0, 39, 0
1, 63903, Note_on_c, 0, 47, 49
1, 64084, Note_on_c, 0, 47, 0
1, 64084, Note_on_c, 0, 51, 55
1, 64266, Note_on_c, 0, 63, 61
1, 64266, Note_on_c, 0, 51, 0
1, 64298, Control_c, 0, 64, 0
1, 64364, Control_c, 0, 64, 127
1, 64451, Note_on_c, 0, 63, 0
1, 64451, Note_on_c, 0, 59, 48
1, 64630, Note_on_c, 0, 59, 0
1, 64630, Note_on_c, 0, 56, 53
1, 64809, Note_on_c, 0, 56, 0
1, 64809, Note_on_c, 0, 39, 53
1, 64826, Control_c, 0, 64, 0
1, 64908, Control_c, 0, 64, 127
1, 64994, Note_on_c, 0, 39, 0
1, 64994, Note_on_c, 0, 49, 39
1, 65179, Note_on_c, 0, 49, 0
1, 65179, Note_on_c, 0, 51, 46
1, 65364, Note_on_c, 0, 61, 53
1, 65364, Note_on_c, 0, 51, 0
1, 65364, Control_c, 0, 64, 0
1, 65418, Control_c, 0, 64, 127
1, 65568, Note_on_c, 0, 61, 0
1, 65568, Note_on_c, 0, 58, 46
1, 65785, Note_on_c, 0, 58, 0
1, 65785, Note_on_c, 0, 56, 48
1, 65974, Note_on_c, 0, 32, 46
1, 66018, Control_c, 0, 64, 0
1, 66105, Control_c, 0, 64, 127
1, 66122, Note_on_c, 0, 44, 46
1, 67384, Control_c, 0, 64, 0
1, 67427, Note_on_c, 0, 56, 0
1, 67427, Note_on_c, 0, 44, 0
1, 67427, Note_on_c, 0, 32, 0
1, 67483, Note_on_c, 0, 68, 0
1, 67483, Note_on_c, 0, 68, 48
1, 67483, Note_on_c, 0, 71, 58
1, 67486, Note_on_c, 0, 59, 48
1, 67486, Note_on_c, 0, 40, 54
1, 67486, Control_c, 0, 64, 127
1, 67489, Note_on_c, 0, 28, 40
1, 67984, Note_on_c, 0, 59, 0
1, 67984, Note_on_c, 0, 71, 0
1, 67984, Note_on_c, 0, 68, 0
1, 67987, Note_on_c, 0, 71, 60
1, 67987, Note_on_c, 0, 60, 50
1, 67987, Note_on_c, 0, 68, 50
1, 67990, Note_on_c, 0, 28, 0
1, 67990, Note_on_c, 0, 40, 0
1, 67990, Control_c, 0, 64, 0
1, 67993, Note_on_c, 0, 33, 37
1, 67993, Note_on_c, 0, 45, 50
1, 68043, Control_c, 0, 64, 127
1, 68477, Note_on_c, 0, 68, 0
1, 68477, Note_on_c, 0, 60, 0
1, 68477, Note_on_c, 0, 71, 0
1, 68480, Note_on_c, 0, 61, 46
1, 68480, Note_on_c, 0, 69, 54
1, 68480, Note_on_c, 0, 66, 46
1, 68483, Note_on_c, 0, 45, 0
1, 68483, Note_on_c, 0, 33, 0
1, 68483, Note_on_c, 0, 30, 34
1, 68486, Note_on_c, 0, 42, 56
1, 68486, Control_c, 0, 64, 0
1, 68590, Control_c, 0, 64, 127
1, 68954, Note_on_c, 0, 66, 0
1, 68954, Note_on_c, 0, 69, 0
1, 68954, Note_on_c, 0, 61, 0
1, 68957, Note_on_c, 0, 69, 46
1, 68957, Note_on_c, 0, 62, 53
1, 68957, Note_on_c, 0, 66, 46
1, 68960, Note_on_c, 0, 42, 0
1, 68960, Note_on_c, 0, 30, 0
1, 68960, Note_on_c, 0, 47, 49
1, 68963, Note_on_c, 0, 35, 37
1, 69012, Control_c, 0, 64, 0
1, 69081, Control_c, 0, 64, 127
1, 69196, Note_on_c, 0, 62, 0
1, 69196, Note_on_c, 0, 63, 56
1, 69437, Note_on_c, 0, 63, 0
1, 69437, Note_on_c, 0, 66, 0
1, 69437, Note_on_c, 0, 69, 0
1, 69440, Note_on_c, 0, 66, 60
1, 69440, Note_on_c, 0, 69, 38
1, 69440, Note_on_c, 0, 35, 0
1, 69443, Note_on_c, 0, 47, 0
1, 69443, Note_on_c, 0, 28, 34
1, 69443, Note_on_c, 0, 40, 47
1, 69480, Control_c, 0, 64, 0
1, 69553, Control_c, 0, 64, 127
1, 69683, Note_on_c, 0, 66, 0
1, 69683, Note_on_c, 0, 64, 46
1, 69917, Note_on_c, 0, 64, 0
1, 69917, Note_on_c, 0, 69, 0
1, 69917, Note_on_c, 0, 68, 48
1, 69920, Note_on_c, 0, 59, 52
1, 69920, Note_on_c, 0, 40, 0
1, 69920, Note_on_c, 0, 28, 0
1, 69923, Note_on_c, 0, 52, 43
1, 69923, Note_on_c, 0, 40, 31
1, 69937, Control_c, 0, 64, 0
1, 69982, Control_c, 0, 64, 127
1, 70151, Note_on_c, 0, 59, 0
1, 70151, Note_on_c, 0, 56, 46
1, 70373, Note_on_c, 0, 56, 0
1, 70373, Note_on_c, 0, 68, 0
1, 70373, Note_on_c, 0, 40, 0
1, 70376, Note_on_c, 0, 52, 0
1, 70393, Note_on_c, 0, 56, 49
1, 70393, Note_on_c, 0, 64, 49
1, 70393, Note_on_c, 0, 68, 58
1, 70396, Note_on_c, 0, 47, 49
1, 70396, Note_on_c, 0, 35, 35
1, 70448, Control_c, 0, 64, 0
1, 70533, Control_c, 0, 64, 127
1, 70869, Note_on_c, 0, 68, 0
1, 70869, Note_on_c, 0, 64, 0
1, 70869, Note_on_c, 0, 56, 0
1, 70872, Note_on_c, 0, 57, 49
1, 70872, Note_on_c, 0, 68, 56
1, 70872, Note_on_c, 0, 64, 49
1, 70875, Note_on_c, 0, 35, 0
1, 70875, Note_on_c, 0, 47, 0
1, 70875, Control_c, 0, 64, 0
1, 70878, Note_on_c, 0, 48, 49
1, 70878, Note_on_c, 0, 36, 35
1, 70982, Control_c, 0, 64, 127
1, 71343, Note_on_c, 0, 64, 0
1, 71343, Note_on_c, 0, 68, 0
1, 71343, Note_on_c, 0, 57, 0
1, 71346, Note_on_c, 0, 66, 56
1, 71346, Note_on_c, 0, 64, 49
1, 71346, Note_on_c, 0, 58, 49
1, 71349, Note_on_c, 0, 36, 0
1, 71349, Note_on_c, 0, 48, 0
1, 71349, Note_on_c, 0, 37, 35
1, 71352, Note_on_c, 0, 49, 49
1, 71420, Control_c, 0, 64, 0
1, 71497, Control_c, 0, 64, 127
1, 71806, Note_on_c, 0, 58, 0
1, 71806, Note_on_c, 0, 64, 0
1, 71806, Note_on_c, 0, 66, 0
1, 71809, Note_on_c, 0, 64, 47
1, 71809, Note_on_c, 0, 58, 39
1, 71809, Note_on_c, 0, 65, 55
1, 71812, Note_on_c, 0, 49, 0
1, 71812, Note_on_c, 0, 37, 0
1, 71812, Note_on_c, 0, 30, 33
1, 71815, Note_on_c, 0, 42, 46
1, 71851, Control_c, 0, 64, 0
1, 71963, Control_c, 0, 64, 127
1, 72041, Note_on_c, 0, 65, 0
1, 72041, Note_on_c, 0, 66, 57
1, 72276, Note_on_c, 0, 66, 0
1, 72276, Note_on_c, 0, 58, 0
1, 72276, Note_on_c, 0, 64, 0
1, 72279, Note_on_c, 0, 69, 58
1, 72279, Note_on_c, 0, 57, 34
1, 72279, Note_on_c, 0, 63, 46
1, 72282, Note_on_c, 0, 42, 0
1, 72282, Note_on_c, 0, 30, 0
1, 72282, Note_on_c, 0, 35, 38
1, 72304, Control_c, 0, 64, 0
1, 72345, Control_c, 0, 64, 127
1, 72509, Note_on_c, 0, 69, 0
1, 72509, Note_on_c, 0, 66, 54
1, 72742, Note_on_c, 0, 66, 0
1, 72742, Note_on_c, 0, 63, 0
1, 72742, Note_on_c, 0, 57, 0
1, 72745, Note_on_c, 0, 57, 55
1, 72745, Note_on_c, 0, 64, 55
1, 72745, Note_on_c, 0, 35, 0
1, 72748, Note_on_c, 0, 47, 29
1, 72748, Note_on_c, 0, 54, 31
1, 72770, Control_c, 0, 64, 0
1, 72797, Control_c, 0, 64, 127
1, 72978, Note_on_c, 0, 64, 0
1, 72978, Note_on_c, 0, 63, 48
1, 73207, Note_on_c, 0, 63, 0
1, 73207, Note_on_c, 0, 57, 0
1, 73207, Note_on_c, 0, 54, 0
1, 73210, Note_on_c, 0, 47, 0
1, 73210, Control_c, 0, 64, 0
1, 73228, Note_on_c, 0, 69, 63
1, 73228, Note_on_c, 0, 73, 75
1, 73228, Note_on_c, 0, 61, 63
1, 73231, Note_on_c, 0, 42, 54
1, 73231, Note_on_c, 0, 30, 47
1, 73252, Control_c, 0, 64, 127
1, 73703, Note_on_c, 0, 61, 0
1, 73703, Note_on_c, 0, 73, 0
1, 73703, Note_on_c, 0, 69, 0
1, 73706, Note_on_c, 0, 73, 75
1, 73706, Note_on_c, 0, 62, 63
1, 73706, Note_on_c, 0, 69, 63
1, 73709, Note_on_c, 0, 30, 0
1, 73709, Note_on_c, 0, 42, 0
1, 73709, Control_c, 0, 64, 0
1, 73712, Note_on_c, 0, 35, 47
1, 73712, Note_on_c, 0, 47, 54
1, 73849, Control_c, 0, 64, 127
1, 74151, Control_c, 0, 64, 0
1, 74174, Note_on_c, 0, 69, 0
1, 74174, Note_on_c, 0, 62, 0
1, 74174, Note_on_c, 0, 73, 0
1, 74177, Note_on_c, 0, 71, 73
1, 74177, Note_on_c, 0, 63, 62
1, 74177, Note_on_c, 0, 69, 62
1, 74180, Note_on_c, 0, 47, 0
1, 74180, Note_on_c, 0, 35, 0
1, 74180, Note_on_c, 0, 32, 47
1, 74183, Note_on_c, 0, 44, 54
1, 74274, Control_c, 0, 64, 127
1, 74618, Control_c, 0, 64, 0
1, 74640, Note_on_c, 0, 69, 0
1, 74640, Note_on_c, 0, 63, 0
1, 74640, Note_on_c, 0, 71, 0
1, 74643, Note_on_c, 0, 64, 70
1, 74643, Note_on_c, 0, 68, 58
1, 74643, Note_on_c, 0, 71, 58
1, 74646, Note_on_c, 0, 44, 0
1, 74646, Note_on_c, 0, 32, 0
1, 74646, Note_on_c, 0, 37, 47
1, 74649, Note_on_c, 0, 49, 54
1, 74718, Control_c, 0, 64, 127
1, 74874, Note_on_c, 0, 65, 70
1, 74913, Note_on_c, 0, 64, 0
1, 75107, Note_on_c, 0, 68, 0
1, 75107, Note_on_c, 0, 71, 0
1, 75107, Note_on_c, 0, 65, 0
1, 75110, Note_on_c, 0, 71, 65
1, 75110, Note_on_c, 0, 68, 72
1, 75110, Note_on_c, 0, 49, 0
1, 75113, Note_on_c, 0, 37, 0
1, 75113, Note_on_c, 0, 42, 48
1, 75113, Control_c, 0, 64, 0
1, 75116, Note_on_c, 0, 30, 40
1, 75161, Control_c, 0, 64, 127
1, 75341, Note_on_c, 0, 68, 0
1, 75341, Note_on_c, 0, 66, 64
1, 75575, Note_on_c, 0, 66, 0
1, 75575, Note_on_c, 0, 71, 0
1, 75575, Note_on_c, 0, 69, 61
1, 75578, Note_on_c, 0, 61, 64
1, 75578, Note_on_c, 0, 30, 0
1, 75578, Note_on_c, 0, 42, 0
1, 75581, Note_on_c, 0, 42, 32
1, 75581, Note_on_c, 0, 54, 40
1, 75597, Control_c, 0, 64, 0
1, 75628, Control_c, 0, 64, 127
1, 75810, Note_on_c, 0, 61, 0
1, 75810, Note_on_c, 0, 57, 58
1, 76027, Note_on_c, 0, 57, 0
1, 76027, Note_on_c, 0, 69, 0
1, 76027, Note_on_c, 0, 54, 0
1, 76030, Note_on_c, 0, 42, 0
1, 76047, Note_on_c, 0, 62, 64
1, 76047, Note_on_c, 0, 68, 64
1, 76047, Note_on_c, 0, 74, 76
1, 76050, Note_on_c, 0, 28, 70
1, 76050, Note_on_c, 0, 40, 70
1, 76095, Control_c, 0, 64, 127
1, 76520, Note_on_c, 0, 74, 0
1, 76520, Note_on_c, 0, 68, 0
1, 76520, Note_on_c, 0, 62, 0
1, 76523, Note_on_c, 0, 63, 71
1, 76523, Note_on_c, 0, 74, 84
1, 76523, Note_on_c, 0, 69, 71
1, 76526, Note_on_c, 0, 40, 0
1, 76526, Note_on_c, 0, 28, 0
1, 76526, Control_c, 0, 64, 0
1, 76529, Note_on_c, 0, 29, 67
1, 76529, Note_on_c, 0, 41, 67
1, 76578, Control_c, 0, 64, 127
1, 76986, Note_on_c, 0, 69, 0
1, 76986, Note_on_c, 0, 74, 0
1, 76986, Note_on_c, 0, 63, 0
1, 76989, Note_on_c, 0, 69, 68
1, 76989, Note_on_c, 0, 63, 68
1, 76989, Note_on_c, 0, 72, 79
1, 76992, Note_on_c, 0, 41, 0
1, 76992, Note_on_c, 0, 29, 0
1, 76992, Note_on_c, 0, 41, 68
1, 76995, Note_on_c, 0, 53, 68
1, 77041, Control_c, 0, 64, 0
1, 77119, Control_c, 0, 64, 127
1, 77451, Note_on_c, 0, 72, 0
1, 77451, Note_on_c, 0, 63, 0
1, 77451, Note_on_c, 0, 69, 0
1, 77454, Note_on_c, 0, 71, 85
1, 77454, Note_on_c, 0, 62, 72
1, 77454, Note_on_c, 0, 68, 72
1, 77457, Note_on_c, 0, 53, 0
1, 77457, Note_on_c, 0, 41, 0
1, 77457, Note_on_c, 0, 29, 71
1, 77460, Note_on_c, 0, 41, 61
1, 77506, Control_c, 0, 64, 0
1, 77594, Control_c, 0, 64, 127
1, 77681, Note_on_c, 0, 71, 0
1, 77681, Note_on_c, 0, 72, 72
1, 77917, Note_on_c, 0, 72, 0
1, 77917, Note_on_c, 0, 68, 0
1, 77917, Note_on_c, 0, 62, 0
1, 77920, Note_on_c, 0, 69, 83
1, 77920, Note_on_c, 0, 41, 0
1, 77920, Note_on_c, 0, 29, 0
1, 77923, Control_c, 0, 64, 0
1, 77923, Note_on_c, 0, 53, 75
1, 77923, Note_on_c, 0, 60, 75
1, 77926, Note_on_c, 0, 75, 83
1, 77961, Control_c, 0, 64, 127
1, 78148, Note_on_c, 0, 72, 71
1, 78148, Note_on_c, 0, 69, 0
1, 78148, Note_on_c, 0, 60, 0
1, 78148, Note_on_c, 0, 57, 68
1, 78148, Note_on_c, 0, 75, 0
1, 78379, Note_on_c, 0, 72, 0
1, 78379, Note_on_c, 0, 57, 0
1, 78382, Note_on_c, 0, 70, 87
1, 78382, Note_on_c, 0, 55, 72
1, 78613, Note_on_c, 0, 69, 79
1, 78613, Note_on_c, 0, 70, 0
1, 78613, Note_on_c, 0, 53, 63
1, 78613, Note_on_c, 0, 55, 0
1, 78825, Note_on_c, 0, 69, 0
1, 78825, Note_on_c, 0, 53, 0
1, 78843, Note_on_c, 0, 69, 78
1, 78843, Note_on_c, 0, 75, 93
1, 78843, Note_on_c, 0, 60, 78
1, 78846, Note_on_c, 0, 53, 0
1, 78846, Note_on_c, 0, 41, 80
1, 78846, Note_on_c, 0, 29, 80
1, 78877, Control_c, 0, 64, 0
1, 78956, Control_c, 0, 64, 127
1, 79316, Note_on_c, 0, 60, 0
1, 79316, Note_on_c, 0, 75, 0
1, 79316, Note_on_c, 0, 69, 0
1, 79319, Note_on_c, 0, 62, 85
1, 79319, Note_on_c, 0, 74, 99
1, 79319, Note_on_c, 0, 69, 85
1, 79322, Note_on_c, 0, 29, 0
1, 79322, Note_on_c, 0, 41, 0
1, 79322, Control_c, 0, 64, 0
1, 79325, Note_on_c, 0, 30, 86
1, 79325, Note_on_c, 0, 42, 86
1, 79405, Control_c, 0, 64, 127
1, 79782, Note_on_c, 0, 69, 0
1, 79782, Note_on_c, 0, 74, 0
1, 79782, Note_on_c, 0, 62, 0
1, 79785, Note_on_c, 0, 72, 93
1, 79785, Note_on_c, 0, 69, 78
1, 79785, Note_on_c, 0, 63, 78
1, 79788, Note_on_c, 0, 42, 0
1, 79788, Note_on_c, 0, 30, 0
1, 79788, Note_on_c, 0, 42, 73
1, 79791, Note_on_c, 0, 54, 86
1, 79861, Control_c, 0, 64, 0
1, 79986, Control_c, 0, 64, 127
1, 80257, Note_on_c, 0, 63, 0
1, 80257, Note_on_c, 0, 69, 0
1, 80257, Note_on_c, 0, 72, 0
1, 80260, Note_on_c, 0, 62, 85
1, 80260, Note_on_c, 0, 68, 85
1, 80260, Note_on_c, 0, 71, 100
1, 80263, Note_on_c, 0, 54, 0
1, 80263, Note_on_c, 0, 42, 0
1, 80263, Note_on_c, 0, 41, 86
1, 80266, Note_on_c, 0, 29, 86
1, 80325, Control_c, 0, 64, 0
1, 80404, Control_c, 0, 64, 127
1, 80494, Note_on_c, 0, 71, 0
1, 80494, Note_on_c, 0, 72, 96
1, 80727, Note_on_c, 0, 72, 0
1, 80727, Note_on_c, 0, 68, 0
1, 80727, Note_on_c, 0, 62, 0
1, 80730, Note_on_c, 0, 69, 101
1, 80730, Note_on_c, 0, 79, 101
1, 80730, Note_on_c, 0, 29, 0
1, 80733, Note_on_c, 0, 41, 0
1, 80733, Control_c, 0, 64, 0
1, 80733, Note_on_c, 0, 63, 87
1, 80736, Note_on_c, 0, 53, 87
1, 80826, Control_c, 0, 64, 127
1, 80958, Note_on_c, 0, 69, 0
1, 80958, Note_on_c, 0, 75, 86
1, 80958, Note_on_c, 0, 63, 0
1, 80961, Note_on_c, 0, 60, 75
1, 81190, Note_on_c, 0, 75, 0
1, 81190, Note_on_c, 0, 74, 90
1, 81190, Note_on_c, 0, 58, 79
1, 81209, Note_on_c, 0, 60, 0
1, 81234, Control_c, 0, 64, 0
1, 81289, Control_c, 0, 64, 127
1, 81421, Note_on_c, 0, 72, 84
1, 81421, Note_on_c, 0, 57, 75
1, 81441, Note_on_c, 0, 74, 0
1, 81441, Note_on_c, 0, 58, 0
1, 81653, Note_on_c, 0, 71, 86
1, 81653, Note_on_c, 0, 56, 70
1, 81672, Note_on_c, 0, 72, 0
1, 81672, Note_on_c, 0, 57, 0
1, 81708, Control_c, 0, 64, 0
1, 81807, Control_c, 0, 64, 127
1, 81885, Note_on_c, 0, 72, 78
1, 81885, Note_on_c, 0, 57, 63
1, 81904, Note_on_c, 0, 71, 0
1, 81904, Note_on_c, 0, 56, 0
1, 82121, Note_on_c, 0, 72, 0
1, 82121, Note_on_c, 0, 79, 0
1, 82121, Note_on_c, 0, 77, 84
1, 82124, Note_on_c, 0, 75, 84
1, 82124, Note_on_c, 0, 57, 0
1, 82124, Control_c, 0, 64, 0
1, 82127, Note_on_c, 0, 60, 68
1, 82188, Control_c, 0, 64, 127
1, 82353, Note_on_c, 0, 75, 0
1, 82353, Note_on_c, 0, 72, 75
1, 82353, Note_on_c, 0, 60, 0
1, 82356, Note_on_c, 0, 57, 61
1, 82584, Note_on_c, 0, 77, 0
1, 82584, Note_on_c, 0, 70, 78
1, 82584, Note_on_c, 0, 53, 0
1, 82587, Note_on_c, 0, 55, 67
1, 82595, Control_c, 0, 64, 0
1, 82603, Note_on_c, 0, 72, 0
1, 82603, Note_on_c, 0, 57, 0
1, 82629, Control_c, 0, 64, 127
1, 82816, Note_on_c, 0, 69, 60
1, 82816, Note_on_c, 0, 53, 49
1, 82835, Note_on_c, 0, 70, 0
1, 82835, Note_on_c, 0, 55, 0
1, 83037, Control_c, 0, 64, 0
1, 83047, Note_on_c, 0, 67, 70
1, 83047, Note_on_c, 0, 51, 57
1, 83067, Note_on_c, 0, 69, 0
1, 83067, Note_on_c, 0, 53, 0
1, 83150, Control_c, 0, 64, 127
1, 83288, Note_on_c, 0, 65, 61
1, 83288, Note_on_c, 0, 50, 49
1, 83309, Note_on_c, 0, 67, 0
1, 83309, Note_on_c, 0, 51, 0
1, 83543, Note_on_c, 0, 63, 60
1, 83543, Note_on_c, 0, 48, 48
1, 83543, Control_c, 0, 64, 0
1, 83565, Note_on_c, 0, 65, 0
1, 83565, Note_on_c, 0, 50, 0
1, 83642, Control_c, 0, 64, 127
1, 83804, Note_on_c, 0, 60, 48
1, 83804, Note_on_c, 0, 45, 41
1, 83827, Note_on_c, 0, 63, 0
1, 83827, Note_on_c, 0, 48, 0
1, 84078, Note_on_c, 0, 58, 48
1, 84078, Note_on_c, 0, 43, 41
1, 84101, Note_on_c, 0, 60, 0
1, 84101, Note_on_c, 0, 45, 0
1, 84116, Control_c, 0, 64, 0
1, 84220, Control_c, 0, 64, 127
1, 84585, Note_on_c, 0, 58, 0
1, 84585, Note_on_c, 0, 43, 0
1, 84619, Note_on_c, 0, 57, 54
1, 84619, Note_on_c, 0, 63, 63
1, 84619, Control_c, 0, 64, 0
1, 84622, Note_on_c, 0, 48, 61
1, 84622, Note_on_c, 0, 41, 52
1, 84734, Control_c, 0, 64, 127
1, 85155, Note_on_c, 0, 63, 0
1, 85155, Note_on_c, 0, 62, 68
1, 85155, Note_on_c, 0, 41, 0
1, 85158, Control_c, 0, 64, 0
1, 85158, Note_on_c, 0, 42, 55
1, 85337, Control_c, 0, 64, 127
1, 85679, Control_c, 0, 64, 0
1, 85701, Note_on_c, 0, 62, 0
1, 85701, Note_on_c, 0, 57, 0
1, 85701, Note_on_c, 0, 63, 67
1, 85704, Note_on_c, 0, 57, 57
1, 85704, Note_on_c, 0, 42, 0
1, 85704, Note_on_c, 0, 48, 0
1, 85707, Note_on_c, 0, 47, 63
1, 85707, Note_on_c, 0, 43, 54
1, 85841, Control_c, 0, 64, 127
1, 86258, Note_on_c, 0, 57, 0
1, 86258, Note_on_c, 0, 63, 0
1, 86258, Note_on_c, 0, 64, 68
1, 86261, Note_on_c, 0, 55, 57
1, 86261, Note_on_c, 0, 43, 0
1, 86261, Note_on_c, 0, 40, 55
1, 86318, Control_c, 0, 64, 0
1, 86464, Control_c, 0, 64, 127
1, 86876, Note_on_c, 0, 55, 0
1, 86876, Note_on_c, 0, 64, 0
1, 86876, Note_on_c, 0, 66, 63
1, 86879, Note_on_c, 0, 63, 54
1, 86879, Note_on_c, 0, 54, 54
1, 86879, Note_on_c, 0, 40, 0
1, 86882, Note_on_c, 0, 47, 0
1, 86882, Control_c, 0, 64, 0
1, 86882, Note_on_c, 0, 47, 61
1, 86885, Note_on_c, 0, 35, 52
1, 87165, Control_c, 0, 64, 127
1, 87617, Note_on_c, 0, 54, 0
1, 87617, Note_on_c, 0, 63, 0
1, 87617, Note_on_c, 0, 66, 0
1, 87620, Note_on_c, 0, 64, 49
1, 87620, Note_on_c, 0, 68, 60
1, 87620, Note_on_c, 0, 59, 49
1, 87623, Note_on_c, 0, 56, 49
1, 87623, Note_on_c, 0, 35, 0
1, 87623, Note_on_c, 0, 47, 0
1, 87626, Note_on_c, 0, 40, 48
1, 87626, Note_on_c, 0, 47, 57
1, 87801, Control_c, 0, 64, 0
1, 88172, Control_c, 0, 64, 127
1, 88948, Note_on_c, 0, 56, 0
1, 88948, Note_on_c, 0, 64, 0
1, 88948, Note_on_c, 0, 68, 0
1, 88951, Note_on_c, 0, 59, 0
1, 88951, Note_on_c, 0, 68, 39
1, 88951, Note_on_c, 0, 71, 47
1, 88954, Note_on_c, 0, 59, 39
1, 88954, Note_on_c, 0, 47, 0
1, 88954, Note_on_c, 0, 40, 0
1, 88957, Control_c, 0, 64, 0
1, 88957, Note_on_c, 0, 51, 41
1, 88957, Note_on_c, 0, 39, 37
1, 89114, Control_c, 0, 64, 127
1, 90129, Control_c, 0, 64, 0
1, 90153, Note_on_c, 0, 59, 0
1, 90153, Note_on_c, 0, 71, 0
1, 90153, Note_on_c, 0, 68, 0
1, 90156, Note_on_c, 0, 76, 78
1, 90156, Note_on_c, 0, 39, 0
1, 90156, Note_on_c, 0, 51, 0
1, 90159, Note_on_c, 0, 37, 60
1, 90218, Control_c, 0, 64, 127
1, 90317, Note_on_c, 0, 69, 53
1, 90317, Note_on_c, 0, 37, 0
1, 90317, Note_on_c, 0, 52, 47
1, 90480, Note_on_c, 0, 69, 0
1, 90480, Note_on_c, 0, 64, 53
1, 90480, Note_on_c, 0, 52, 0
1, 90483, Note_on_c, 0, 57, 52
1, 90648, Note_on_c, 0, 64, 0
1, 90648, Note_on_c, 0, 76, 0
1, 90648, Note_on_c, 0, 75, 75
1, 90651, Control_c, 0, 64, 0
1, 90651, Note_on_c, 0, 49, 52
1, 90651, Note_on_c, 0, 53, 52
1, 90698, Control_c, 0, 64, 127
1, 90811, Note_on_c, 0, 69, 53
1, 90975, Note_on_c, 0, 69, 0
1, 90975, Note_on_c, 0, 65, 53
1, 91144, Note_on_c, 0, 65, 0
1, 91144, Note_on_c, 0, 75, 0
1, 91144, Note_on_c, 0, 73, 72
1, 91147, Note_on_c, 0, 53, 0
1, 91147, Note_on_c, 0, 49, 0
1, 91147, Note_on_c, 0, 57, 0
1, 91150, Note_on_c, 0, 33, 61
1, 91173, Control_c, 0, 64, 0
1, 91231, Control_c, 0, 64, 127
1, 91307, Note_on_c, 0, 69, 53
1, 91307, Note_on_c, 0, 33, 0
1, 91307, Note_on_c, 0, 49, 47
1, 91470, Note_on_c, 0, 69, 0
1, 91470, Note_on_c, 0, 66, 53
1, 91470, Note_on_c, 0, 49, 0
1, 91473, Note_on_c, 0, 54, 53
1, 91631, Control_c, 0, 64, 0
1, 91638, Note_on_c, 0, 66, 0
1, 91638, Note_on_c, 0, 73, 0
1, 91638, Note_on_c, 0, 71, 69
1, 91641, Note_on_c, 0, 54, 0
1, 91641, Note_on_c, 0, 50, 60
1, 91641, Note_on_c, 0, 45, 52
1, 91674, Control_c, 0, 64, 127
1, 91801, Note_on_c, 0, 68, 53
1, 91964, Note_on_c, 0, 68, 0
1, 91964, Note_on_c, 0, 65, 53
1, 92131, Note_on_c, 0, 65, 0
1, 92131, Note_on_c, 0, 71, 0
1, 92131, Note_on_c, 0, 69, 72
1, 92134, Note_on_c, 0, 66, 79
1, 92134, Note_on_c, 0, 45, 0
1, 92134, Note_on_c, 0, 50, 0
1, 92137, Control_c, 0, 64, 0
1, 92137, Note_on_c, 0, 35, 63
1, 92165, Control_c, 0, 64, 127
1, 92302, Note_on_c, 0, 35, 0
1, 92302, Note_on_c, 0, 51, 50
1, 92366, Note_on_c, 0, 66, 0
1, 92388, Note_on_c, 0, 64, 72
1, 92480, Note_on_c, 0, 51, 0
1, 92480, Note_on_c, 0, 54, 55
1, 92640, Note_on_c, 0, 64, 0
1, 92663, Note_on_c, 0, 69, 0
1, 92663, Note_on_c, 0, 73, 87
1, 92663, Note_on_c, 0, 63, 68
1, 92666, Note_on_c, 0, 54, 0
1, 92666, Note_on_c, 0, 47, 52
1, 92666, Note_on_c, 0, 57, 62
1, 92676, Control_c, 0, 64, 0
1, 92746, Control_c, 0, 64, 127
1, 92908, Note_on_c, 0, 73, 0
1, 92931, Note_on_c, 0, 71, 76
1, 93176, Note_on_c, 0, 71, 0
1, 93198, Note_on_c, 0, 63, 0
1, 93198, Note_on_c, 0, 61, 85
1, 93198, Note_on_c, 0, 64, 78
1, 93201, Note_on_c, 0, 57, 0
1, 93201, Note_on_c, 0, 47, 0
1, 93201, Note_on_c, 0, 35, 64
1, 93201, Control_c, 0, 64, 0
1, 93246, Control_c, 0, 64, 127
1, 93380, Note_on_c, 0, 35, 0
1, 93380, Note_on_c, 0, 49, 53
1, 93448, Note_on_c, 0, 61, 0
1, 93470, Note_on_c, 0, 59, 78
1, 93563, Note_on_c, 0, 49, 0
1, 93563, Note_on_c, 0, 52, 55
1, 93680, Note_on_c, 0, 52, 0
1, 93680, Note_on_c, 0, 47, 64
1, 93736, Note_on_c, 0, 59, 0
1, 93765, Note_on_c, 0, 64, 0
1, 93765, Note_on_c, 0, 57, 68
1, 93765, Note_on_c, 0, 69, 85
1, 93768, Control_c, 0, 64, 0
1, 93768, Note_on_c, 0, 61, 64
1, 93863, Control_c, 0, 64, 127
1, 94019, Note_on_c, 0, 69, 0
1, 94042, Note_on_c, 0, 68, 73
1, 94296, Note_on_c, 0, 68, 0
1, 94311, Control_c, 0, 64, 0
1, 94319, Note_on_c, 0, 57, 0
1, 94319, Note_on_c, 0, 61, 67
1, 94319, Note_on_c, 0, 61, 0
1, 94322, Note_on_c, 0, 47, 0
1, 94322, Note_on_c, 0, 35, 70
1, 94322, Note_on_c, 0, 56, 76
1, 94361, Control_c, 0, 64, 127
1, 94509, Note_on_c, 0, 35, 0
1, 94509, Note_on_c, 0, 45, 60
1, 94580, Note_on_c, 0, 56, 0
1, 94604, Note_on_c, 0, 54, 64
1, 94709, Note_on_c, 0, 45, 0
1, 94709, Note_on_c, 0, 49, 60
1, 94892, Note_on_c, 0, 54, 0
1, 94918, Note_on_c, 0, 61, 0
1, 94918, Note_on_c, 0, 68, 78
1, 94918, Note_on_c, 0, 49, 0
1, 94921, Note_on_c, 0, 52, 70
1, 94921, Note_on_c, 0, 47, 64
1, 94970, Control_c, 0, 64, 0
1, 95031, Control_c, 0, 64, 127
1, 95214, Note_on_c, 0, 57, 63
1, 95509, Note_on_c, 0, 61, 70
1, 96100, Note_on_c, 0, 61, 0
1, 96100, Note_on_c, 0, 59, 60
1, 96100, Note_on_c, 0, 52, 0
1, 96103, Note_on_c, 0, 51, 62
1, 96135, Control_c, 0, 64, 0
1, 96377, Control_c, 0, 64, 127
1, 96724, Note_on_c, 0, 68, 0
1, 96724, Note_on_c, 0, 66, 72
1, 97348, Note_on_c, 0, 57, 0
1, 97362, Note_on_c, 0, 57, 54
1, 97362, Note_on_c, 0, 51, 0
1, 97362, Note_on_c, 0, 47, 0
1, 97365, Control_c, 0, 64, 0
1, 97365, Note_on_c, 0, 28, 49
1, 97601, Control_c, 0, 64, 127
1, 97648, Note_on_c, 0, 28, 0
1, 97674, Note_on_c, 0, 40, 40
1, 97948, Note_on_c, 0, 40, 0
1, 97973, Note_on_c, 0, 47, 46
1, 98241, Note_on_c, 0, 47, 0
1, 98265, Note_on_c, 0, 52, 41
1, 98527, Note_on_c, 0, 52, 0
1, 98551, Note_on_c, 0, 57, 0
1, 98551, Note_on_c, 0, 56, 48
1, 98837, Note_on_c, 0, 59, 45
1, 99123, Note_on_c, 0, 66, 0
1, 99123, Note_on_c, 0, 59, 0
1, 99123, Note_on_c, 0, 64, 55
1, 99126, Note_on_c, 0, 52, 41
1, 99412, Note_on_c, 0, 68, 52
1, 99681, Note_on_c, 0, 68, 0
1, 99705, Note_on_c, 0, 71, 53
1, 99978, Note_on_c, 0, 71, 0
1, 100003, Note_on_c, 0, 76, 48
1, 100279, Note_on_c, 0, 76, 0
1, 100304, Note_on_c, 0, 64, 0
1, 100304, Note_on_c, 0, 80, 49
1, 100304, Note_on_c, 0, 52, 0
1, 100307, Note_on_c, 0, 59, 0
1, 100307, Note_on_c, 0, 56, 0
1, 100307, Note_on_c, 0, 28, 38
1, 100596, Note_on_c, 0, 80, 0
1, 100622, Note_on_c, 0, 83, 48
1, 100942, Note_on_c, 0, 83, 0
1, 100971, Note_on_c, 0, 28, 0
1, 100971, Note_on_c, 0, 40, 40
1, 101063, Note_on_c, 0, 47, 40
1, 101160, Note_on_c, 0, 56, 40
1, 101262, Note_on_c, 0, 71, 40
1, 101372, Note_on_c, 0, 76, 41
1, 101495, Note_on_c, 0, 80, 45
1, 101638, Note_on_c, 0, 83, 46
1, 101806, Note_on_c, 0, 88, 47
1, 103508, Note_on_c, 0, 88, 0
1, 103508, Note_on_c, 0, 80, 0
1, 103508, Note_on_c, 0, 71, 0
1, 103511, Note_on_c, 0, 76, 0
1, 103511, Note_on_c, 0, 83, 0
1, 103511, Note_on_c, 0, 56, 0
1, 103514, Note_on_c, 0, 47, 0
1, 103514, Note_on_c, 0, 40, 0
1, 105048, Control_c, 0, 64, 0
1, 106546, End_track
0, 0, End_of_file
