0, 0, Header, 0, 1, 480
1, 0, Start_track
1, 0, Title_t, "Fantasies Op.116Albert Mamriev"
1, 0, Text_t, "Brahms Fantasies, Opus 116 performed on the Yamaha Disklavier by Albert Mamriev--06/10/02"
1, 0, SMPTE_offset, 96, 0, 0, 0, 0
1, 0, Time_signature, 4, 2, 24, 8
1, 0, Tempo, 512820
1, 0, System_exclusive, 5, 126, 127, 9, 1, 247
1, 1, System_exclusive, 8, 67, 16, 76, 0, 0, 126, 0, 247
1, 5, Control_c, 0, 0, 0
1, 6, Control_c, 0, 32, 0
1, 7, Program_c, 0, 0
1, 8, Control_c, 0, 7, 100
1, 1263, Control_c, 0, 64, 8
1, 1356, Control_c, 0, 64, 14
1, 1449, Control_c, 0, 64, 18
1, 1712, Control_c, 0, 64, 23
1, 2330, Control_c, 0, 64, 27
1, 3434, Control_c, 0, 64, 22
1, 3472, Control_c, 0, 64, 18
1, 3640, Control_c, 0, 64, 23
1, 3678, Control_c, 0, 64, 28
1, 3696, Control_c, 0, 64, 33
1, 3714, Control_c, 0, 64, 41
1, 3734, Control_c, 0, 64, 51
1, 3752, Control_c, 0, 64, 58
1, 3771, Control_c, 0, 64, 61
1, 3789, Control_c, 0, 64, 63
1, 3809, Control_c, 0, 64, 65
1, 3826, Control_c, 0, 64, 69
1, 3846, Control_c, 0, 64, 73
1, 3864, Control_c, 0, 64, 79
1, 3884, Control_c, 0, 64, 87
1, 3902, Control_c, 0, 64, 98
1, 3919, Poly_aftertouch_c, 0, 38, 28
1, 3921, Control_c, 0, 64, 116
1, 3927, Note_on_c, 0, 38, 58
1, 3931, Poly_aftertouch_c, 0, 70, 28
1, 3932, Poly_aftertouch_c, 0, 70, 0
1, 3935, Poly_aftertouch_c, 0, 62, 28
1, 3939, Note_on_c, 0, 62, 71
1, 3939, Control_c, 0, 64, 127
1, 3944, Poly_aftertouch_c, 0, 41, 28
1, 3949, Note_on_c, 0, 41, 68
1, 3965, Poly_aftertouch_c, 0, 65, 28
1, 3972, Note_on_c, 0, 65, 74
1, 3984, Poly_aftertouch_c, 0, 45, 28
1, 3986, Note_on_c, 0, 45, 83
1, 3986, Poly_aftertouch_c, 0, 69, 28
1, 3990, Note_on_c, 0, 69, 85
1, 3997, Poly_aftertouch_c, 0, 50, 28
1, 3998, Note_off_c, 0, 62, 64
1, 3999, Note_on_c, 0, 50, 93
1, 4016, Note_on_c, 0, 74, 98
1, 4016, Poly_aftertouch_c, 0, 74, 28
1, 4018, Note_off_c, 0, 38, 59
1, 4030, Note_off_c, 0, 65, 64
1, 4034, Note_off_c, 0, 41, 64
1, 4039, Note_off_c, 0, 45, 63
1, 4041, Note_off_c, 0, 69, 64
1, 4056, Note_off_c, 0, 50, 64
1, 4064, Note_off_c, 0, 74, 67
1, 4409, Poly_aftertouch_c, 0, 74, 28
1, 4412, Note_on_c, 0, 74, 88
1, 4478, Note_off_c, 0, 74, 63
1, 4650, Control_c, 0, 64, 106
1, 4653, Poly_aftertouch_c, 0, 53, 28
1, 4654, Poly_aftertouch_c, 0, 74, 28
1, 4658, Note_on_c, 0, 53, 80
1, 4660, Note_on_c, 0, 74, 96
1, 4661, Note_on_c, 0, 62, 90
1, 4662, Poly_aftertouch_c, 0, 50, 28
1, 4663, Poly_aftertouch_c, 0, 62, 28
1, 4664, Note_on_c, 0, 50, 82
1, 4669, Control_c, 0, 64, 71
1, 4689, Control_c, 0, 64, 46
1, 4706, Control_c, 0, 64, 28
1, 4726, Control_c, 0, 64, 24
1, 4763, Control_c, 0, 64, 35
1, 4781, Control_c, 0, 64, 51
1, 4788, Note_off_c, 0, 50, 56
1, 4795, Note_off_c, 0, 62, 59
1, 4801, Control_c, 0, 64, 68
1, 4820, Control_c, 0, 64, 82
1, 4837, Control_c, 0, 64, 98
1, 4857, Note_off_c, 0, 53, 59
1, 4857, Control_c, 0, 64, 127
1, 4895, Poly_aftertouch_c, 0, 82, 28
1, 4900, Note_on_c, 0, 82, 90
1, 4901, Poly_aftertouch_c, 0, 70, 28
1, 4906, Note_on_c, 0, 70, 79
1, 4908, Note_off_c, 0, 74, 46
1, 4947, Note_off_c, 0, 70, 61
1, 4974, Note_off_c, 0, 82, 65
1, 5109, Poly_aftertouch_c, 0, 70, 28
1, 5110, Poly_aftertouch_c, 0, 82, 28
1, 5112, Note_on_c, 0, 82, 84
1, 5113, Note_on_c, 0, 70, 80
1, 5184, Note_off_c, 0, 70, 61
1, 5195, Note_off_c, 0, 82, 63
1, 5269, Control_c, 0, 64, 97
1, 5288, Control_c, 0, 64, 64
1, 5289, Poly_aftertouch_c, 0, 50, 28
1, 5290, Poly_aftertouch_c, 0, 58, 28
1, 5292, Poly_aftertouch_c, 0, 74, 28
1, 5296, Note_on_c, 0, 58, 88
1, 5297, Note_on_c, 0, 50, 78
1, 5298, Note_on_c, 0, 74, 84
1, 5299, Note_on_c, 0, 70, 91
1, 5302, Note_on_c, 0, 82, 91
1, 5303, Poly_aftertouch_c, 0, 46, 28
1, 5305, Note_on_c, 0, 46, 80
1, 5306, Control_c, 0, 64, 38
1, 5307, Poly_aftertouch_c, 0, 70, 28
1, 5308, Poly_aftertouch_c, 0, 82, 28
1, 5326, Control_c, 0, 64, 24
1, 5362, Control_c, 0, 64, 32
1, 5381, Control_c, 0, 64, 48
1, 5388, Note_off_c, 0, 82, 66
1, 5391, Note_off_c, 0, 58, 60
1, 5392, Note_off_c, 0, 70, 60
1, 5400, Control_c, 0, 64, 69
1, 5414, Note_off_c, 0, 46, 61
1, 5417, Control_c, 0, 64, 90
1, 5431, Note_off_c, 0, 74, 61
1, 5434, Note_off_c, 0, 50, 63
1, 5434, Control_c, 0, 64, 127
1, 5488, Poly_aftertouch_c, 0, 79, 28
1, 5490, Note_on_c, 0, 79, 85
1, 5493, Poly_aftertouch_c, 0, 67, 28
1, 5495, Note_on_c, 0, 67, 82
1, 5553, Note_off_c, 0, 79, 63
1, 5557, Note_off_c, 0, 67, 60
1, 5667, Poly_aftertouch_c, 0, 67, 28
1, 5668, Poly_aftertouch_c, 0, 79, 28
1, 5670, Note_on_c, 0, 79, 85
1, 5671, Note_on_c, 0, 67, 80
1, 5736, Note_off_c, 0, 67, 56
1, 5763, Note_off_c, 0, 79, 49
1, 5812, Control_c, 0, 64, 106
1, 5829, Control_c, 0, 64, 69
1, 5848, Poly_aftertouch_c, 0, 50, 28
1, 5848, Control_c, 0, 64, 40
1, 5849, Poly_aftertouch_c, 0, 55, 28
1, 5853, Note_on_c, 0, 79, 94
1, 5854, Note_on_c, 0, 55, 84
1, 5856, Note_on_c, 0, 74, 81
1, 5857, Note_on_c, 0, 70, 83
1, 5858, Note_on_c, 0, 43, 72
1, 5860, Note_on_c, 0, 46, 73
1, 5860, Note_on_c, 0, 50, 77
1, 5861, Note_on_c, 0, 67, 90
1, 5862, Note_off_c, 0, 67, 127
1, 5865, Poly_aftertouch_c, 0, 67, 28
1, 5866, Poly_aftertouch_c, 0, 70, 28
1, 5866, Poly_aftertouch_c, 0, 74, 28
1, 5867, Poly_aftertouch_c, 0, 79, 28
1, 5867, Control_c, 0, 64, 20
1, 5872, Poly_aftertouch_c, 0, 43, 28
1, 5873, Poly_aftertouch_c, 0, 46, 28
1, 5905, Control_c, 0, 64, 24
1, 5914, Note_off_c, 0, 79, 63
1, 5917, Note_off_c, 0, 43, 61
1, 5922, Poly_aftertouch_c, 0, 67, 127
1, 5924, Control_c, 0, 64, 38
1, 5933, Note_off_c, 0, 55, 60
1, 5936, Poly_aftertouch_c, 0, 67, 0
1, 5942, Control_c, 0, 64, 63
1, 5961, Note_off_c, 0, 74, 57
1, 5961, Control_c, 0, 64, 86
1, 5964, Note_off_c, 0, 46, 63
1, 5969, Note_off_c, 0, 70, 63
1, 5976, Note_off_c, 0, 50, 62
1, 5978, Control_c, 0, 64, 127
1, 6043, Poly_aftertouch_c, 0, 76, 28
1, 6046, Note_on_c, 0, 76, 84
1, 6048, Poly_aftertouch_c, 0, 64, 28
1, 6050, Note_on_c, 0, 64, 81
1, 6109, Note_off_c, 0, 76, 63
1, 6112, Note_off_c, 0, 64, 62
1, 6225, Poly_aftertouch_c, 0, 76, 28
1, 6227, Note_on_c, 0, 76, 89
1, 6229, Note_on_c, 0, 64, 81
1, 6230, Poly_aftertouch_c, 0, 64, 28
1, 6280, Note_off_c, 0, 64, 57
1, 6284, Note_off_c, 0, 76, 64
1, 6373, Control_c, 0, 64, 116
1, 6393, Control_c, 0, 64, 73
1, 6411, Control_c, 0, 64, 41
1, 6415, Note_on_c, 0, 77, 92
1, 6417, Note_on_c, 0, 49, 74
1, 6417, Note_on_c, 0, 73, 92
1, 6419, Note_on_c, 0, 45, 75
1, 6419, Note_on_c, 0, 65, 88
1, 6420, Note_on_c, 0, 57, 81
1, 6421, Poly_aftertouch_c, 0, 45, 28
1, 6422, Poly_aftertouch_c, 0, 49, 28
1, 6422, Poly_aftertouch_c, 0, 57, 28
1, 6424, Poly_aftertouch_c, 0, 65, 28
1, 6425, Poly_aftertouch_c, 0, 73, 28
1, 6425, Poly_aftertouch_c, 0, 77, 28
1, 6429, Control_c, 0, 64, 9
1, 6476, Note_off_c, 0, 65, 60
1, 6504, Control_c, 0, 64, 21
1, 6522, Control_c, 0, 64, 43
1, 6535, Note_off_c, 0, 45, 61
1, 6541, Control_c, 0, 64, 67
1, 6560, Control_c, 0, 64, 85
1, 6578, Control_c, 0, 64, 108
1, 6590, Note_off_c, 0, 77, 56
1, 6597, Note_off_c, 0, 73, 59
1, 6597, Control_c, 0, 64, 127
1, 6606, Poly_aftertouch_c, 0, 76, 28
1, 6611, Note_on_c, 0, 76, 80
1, 6621, Poly_aftertouch_c, 0, 64, 28
1, 6623, Note_on_c, 0, 64, 80
1, 6635, Note_off_c, 0, 57, 57
1, 6664, Note_off_c, 0, 49, 53
1, 6685, Note_off_c, 0, 64, 60
1, 6719, Note_off_c, 0, 76, 58
1, 6789, Poly_aftertouch_c, 0, 62, 28
1, 6790, Note_on_c, 0, 74, 80
1, 6791, Poly_aftertouch_c, 0, 74, 28
1, 6794, Note_on_c, 0, 62, 73
1, 6824, Note_off_c, 0, 62, 66
1, 6852, Note_off_c, 0, 74, 62
1, 6934, Control_c, 0, 64, 99
1, 6954, Control_c, 0, 64, 65
1, 6957, Poly_aftertouch_c, 0, 79, 28
1, 6961, Note_on_c, 0, 79, 91
1, 6963, Note_on_c, 0, 67, 88
1, 6965, Poly_aftertouch_c, 0, 50, 28
1, 6965, Poly_aftertouch_c, 0, 58, 28
1, 6969, Note_on_c, 0, 50, 72
1, 6969, Note_on_c, 0, 74, 88
1, 6970, Note_off_c, 0, 74, 127
1, 6970, Note_on_c, 0, 58, 81
1, 6970, Poly_aftertouch_c, 0, 67, 28
1, 6971, Poly_aftertouch_c, 0, 74, 28
1, 6971, Control_c, 0, 64, 33
1, 6976, Note_on_c, 0, 46, 73
1, 6978, Poly_aftertouch_c, 0, 46, 28
1, 7009, Control_c, 0, 64, 0
1, 7027, Poly_aftertouch_c, 0, 74, 127
1, 7033, Note_off_c, 0, 67, 53
1, 7046, Control_c, 0, 64, 11
1, 7065, Control_c, 0, 64, 28
1, 7084, Control_c, 0, 64, 53
1, 7102, Control_c, 0, 64, 75
1, 7105, Poly_aftertouch_c, 0, 74, 0
1, 7108, Note_off_c, 0, 79, 64
1, 7122, Control_c, 0, 64, 93
1, 7135, Note_off_c, 0, 50, 62
1, 7139, Control_c, 0, 64, 127
1, 7154, Poly_aftertouch_c, 0, 77, 28
1, 7157, Note_on_c, 0, 77, 74
1, 7159, Note_off_c, 0, 58, 57
1, 7160, Note_on_c, 0, 65, 79
1, 7160, Poly_aftertouch_c, 0, 65, 28
1, 7174, Note_off_c, 0, 46, 62
1, 7227, Note_off_c, 0, 65, 63
1, 7277, Note_off_c, 0, 77, 59
1, 7321, Poly_aftertouch_c, 0, 76, 28
1, 7326, Poly_aftertouch_c, 0, 64, 28
1, 7327, Note_on_c, 0, 64, 79
1, 7328, Note_on_c, 0, 76, 80
1, 7369, Note_off_c, 0, 64, 61
1, 7391, Note_off_c, 0, 76, 63
1, 7459, Control_c, 0, 64, 97
1, 7477, Control_c, 0, 64, 62
1, 7492, Poly_aftertouch_c, 0, 65, 28
1, 7493, Poly_aftertouch_c, 0, 77, 28
1, 7495, Control_c, 0, 64, 25
1, 7496, Note_on_c, 0, 77, 93
1, 7497, Note_on_c, 0, 65, 91
1, 7498, Note_on_c, 0, 73, 89
1, 7500, Note_on_c, 0, 57, 87
1, 7503, Note_on_c, 0, 49, 81
1, 7504, Note_off_c, 0, 49, 127
1, 7504, Note_on_c, 0, 45, 81
1, 7505, Note_off_c, 0, 45, 127
1, 7506, Poly_aftertouch_c, 0, 45, 28
1, 7507, Poly_aftertouch_c, 0, 49, 28
1, 7507, Poly_aftertouch_c, 0, 57, 28
1, 7511, Poly_aftertouch_c, 0, 73, 28
1, 7512, Control_c, 0, 64, 0
1, 7552, Note_off_c, 0, 65, 63
1, 7560, Poly_aftertouch_c, 0, 45, 127
1, 7561, Poly_aftertouch_c, 0, 49, 127
1, 7571, Control_c, 0, 64, 10
1, 7589, Control_c, 0, 64, 27
1, 7593, Poly_aftertouch_c, 0, 45, 0
1, 7605, Note_off_c, 0, 57, 59
1, 7608, Control_c, 0, 64, 52
1, 7628, Control_c, 0, 64, 75
1, 7638, Note_off_c, 0, 77, 56
1, 7644, Control_c, 0, 64, 96
1, 7645, Note_off_c, 0, 73, 62
1, 7649, Poly_aftertouch_c, 0, 49, 0
1, 7665, Control_c, 0, 64, 127
1, 7681, Poly_aftertouch_c, 0, 76, 28
1, 7683, Note_on_c, 0, 76, 80
1, 7685, Note_on_c, 0, 64, 84
1, 7686, Poly_aftertouch_c, 0, 64, 28
1, 7752, Note_off_c, 0, 64, 63
1, 7790, Note_off_c, 0, 76, 59
1, 7851, Poly_aftertouch_c, 0, 62, 28
1, 7855, Note_on_c, 0, 62, 81
1, 7859, Poly_aftertouch_c, 0, 74, 28
1, 7860, Note_on_c, 0, 74, 80
1, 7918, Note_off_c, 0, 62, 60
1, 7926, Note_off_c, 0, 74, 61
1, 7982, Control_c, 0, 64, 121
1, 8002, Control_c, 0, 64, 68
1, 8016, Poly_aftertouch_c, 0, 43, 28
1, 8020, Note_on_c, 0, 43, 85
1, 8020, Control_c, 0, 64, 25
1, 8023, Poly_aftertouch_c, 0, 64, 28
1, 8025, Poly_aftertouch_c, 0, 76, 28
1, 8027, Note_on_c, 0, 76, 84
1, 8027, Note_on_c, 0, 64, 87
1, 8031, Note_on_c, 0, 72, 82
1, 8034, Poly_aftertouch_c, 0, 72, 28
1, 8038, Control_c, 0, 64, 0
1, 8072, Poly_aftertouch_c, 0, 46, 28
1, 8077, Note_on_c, 0, 46, 77
1, 8088, Note_off_c, 0, 64, 59
1, 8113, Note_off_c, 0, 76, 61
1, 8113, Control_c, 0, 64, 19
1, 8133, Control_c, 0, 64, 38
1, 8151, Control_c, 0, 64, 61
1, 8169, Poly_aftertouch_c, 0, 50, 28
1, 8170, Control_c, 0, 64, 76
1, 8173, Note_on_c, 0, 50, 77
1, 8189, Control_c, 0, 64, 91
1, 8207, Control_c, 0, 64, 108
1, 8226, Control_c, 0, 64, 127
1, 8257, Poly_aftertouch_c, 0, 70, 28
1, 8266, Note_on_c, 0, 70, 88
1, 8270, Note_on_c, 0, 52, 93
1, 8271, Note_on_c, 0, 74, 95
1, 8272, Note_on_c, 0, 62, 97
1, 8272, Poly_aftertouch_c, 0, 52, 28
1, 8273, Poly_aftertouch_c, 0, 62, 28
1, 8275, Poly_aftertouch_c, 0, 74, 28
1, 8307, Note_off_c, 0, 72, 61
1, 8315, Note_off_c, 0, 43, 63
1, 8335, Note_off_c, 0, 74, 62
1, 8338, Note_off_c, 0, 52, 63
1, 8346, Note_off_c, 0, 50, 63
1, 8351, Note_off_c, 0, 62, 61
1, 8359, Note_off_c, 0, 46, 64
1, 8364, Note_off_c, 0, 70, 66
1, 8756, Poly_aftertouch_c, 0, 67, 28
1, 8757, Poly_aftertouch_c, 0, 70, 28
1, 8763, Note_on_c, 0, 67, 76
1, 8763, Note_on_c, 0, 70, 82
1, 8764, Poly_aftertouch_c, 0, 58, 28
1, 8769, Note_on_c, 0, 58, 77
1, 8838, Note_off_c, 0, 58, 63
1, 8841, Poly_aftertouch_c, 0, 26, 28
1, 8845, Note_on_c, 0, 26, 92
1, 8869, Note_off_c, 0, 67, 59
1, 8889, Note_off_c, 0, 70, 53
1, 8974, Control_c, 0, 64, 91
1, 8994, Control_c, 0, 64, 59
1, 9012, Control_c, 0, 64, 26
1, 9013, Note_off_c, 0, 26, 61
1, 9028, Poly_aftertouch_c, 0, 38, 28
1, 9029, Note_on_c, 0, 38, 82
1, 9031, Poly_aftertouch_c, 0, 65, 28
1, 9036, Poly_aftertouch_c, 0, 57, 28
1, 9037, Note_on_c, 0, 65, 84
1, 9038, Note_on_c, 0, 57, 88
1, 9039, Poly_aftertouch_c, 0, 69, 28
1, 9041, Note_on_c, 0, 69, 86
1, 9069, Control_c, 0, 64, 11
1, 9087, Control_c, 0, 64, 26
1, 9100, Note_off_c, 0, 57, 64
1, 9106, Control_c, 0, 64, 52
1, 9124, Control_c, 0, 64, 77
1, 9134, Note_off_c, 0, 38, 62
1, 9143, Control_c, 0, 64, 103
1, 9158, Note_off_c, 0, 65, 60
1, 9161, Control_c, 0, 64, 127
1, 9184, Note_off_c, 0, 69, 62
1, 9311, Poly_aftertouch_c, 0, 38, 28
1, 9317, Note_on_c, 0, 38, 72
1, 9400, Note_off_c, 0, 38, 59
1, 9460, Poly_aftertouch_c, 0, 38, 28
1, 9471, Note_on_c, 0, 38, 53
1, 9471, Poly_aftertouch_c, 0, 77, 28
1, 9471, Poly_aftertouch_c, 0, 86, 28
1, 9474, Note_on_c, 0, 77, 86
1, 9475, Note_on_c, 0, 86, 93
1, 9479, Note_on_c, 0, 74, 88
1, 9481, Poly_aftertouch_c, 0, 74, 28
1, 9593, Control_c, 0, 64, 88
1, 9596, Poly_aftertouch_c, 0, 34, 28
1, 9602, Note_on_c, 0, 34, 76
1, 9606, Note_off_c, 0, 38, 61
1, 9612, Control_c, 0, 64, 55
1, 9630, Control_c, 0, 64, 19
1, 9644, Note_off_c, 0, 86, 62
1, 9672, Poly_aftertouch_c, 0, 46, 28
1, 9675, Note_on_c, 0, 46, 91
1, 9682, Note_off_c, 0, 74, 63
1, 9685, Control_c, 0, 64, 14
1, 9695, Note_off_c, 0, 77, 59
1, 9697, Note_off_c, 0, 34, 62
1, 9704, Control_c, 0, 64, 31
1, 9723, Control_c, 0, 64, 58
1, 9735, Note_off_c, 0, 46, 64
1, 9741, Control_c, 0, 64, 80
1, 9762, Control_c, 0, 64, 105
1, 9779, Control_c, 0, 64, 127
1, 9833, Poly_aftertouch_c, 0, 46, 28
1, 9838, Note_on_c, 0, 46, 83
1, 9898, Note_off_c, 0, 46, 55
1, 9995, Poly_aftertouch_c, 0, 74, 28
1, 9995, Poly_aftertouch_c, 0, 82, 28
1, 9997, Note_on_c, 0, 74, 80
1, 9998, Note_on_c, 0, 82, 86
1, 10001, Note_on_c, 0, 70, 83
1, 10002, Poly_aftertouch_c, 0, 46, 28
1, 10004, Poly_aftertouch_c, 0, 70, 28
1, 10008, Note_on_c, 0, 46, 78
1, 10110, Note_off_c, 0, 46, 61
1, 10110, Note_on_c, 0, 43, 71
1, 10110, Poly_aftertouch_c, 0, 43, 28
1, 10117, Control_c, 0, 64, 90
1, 10135, Control_c, 0, 64, 58
1, 10154, Control_c, 0, 64, 27
1, 10173, Control_c, 0, 64, 16
1, 10182, Poly_aftertouch_c, 0, 55, 28
1, 10187, Note_on_c, 0, 55, 89
1, 10191, Note_off_c, 0, 43, 54
1, 10203, Note_off_c, 0, 74, 62
1, 10210, Control_c, 0, 64, 30
1, 10211, Note_off_c, 0, 82, 64
1, 10229, Control_c, 0, 64, 50
1, 10246, Note_off_c, 0, 55, 65
1, 10247, Control_c, 0, 64, 73
1, 10263, Note_off_c, 0, 70, 59
1, 10265, Control_c, 0, 64, 94
1, 10286, Control_c, 0, 64, 127
1, 10346, Poly_aftertouch_c, 0, 55, 28
1, 10351, Note_on_c, 0, 55, 83
1, 10392, Note_off_c, 0, 55, 56
1, 10495, Poly_aftertouch_c, 0, 79, 28
1, 10498, Note_on_c, 0, 79, 83
1, 10501, Poly_aftertouch_c, 0, 55, 28
1, 10502, Note_on_c, 0, 70, 81
1, 10504, Note_on_c, 0, 74, 80
1, 10505, Note_on_c, 0, 67, 80
1, 10506, Note_on_c, 0, 55, 75
1, 10507, Poly_aftertouch_c, 0, 67, 28
1, 10508, Poly_aftertouch_c, 0, 70, 28
1, 10508, Poly_aftertouch_c, 0, 74, 28
1, 10599, Poly_aftertouch_c, 0, 52, 28
1, 10605, Note_on_c, 0, 52, 64
1, 10613, Note_off_c, 0, 55, 61
1, 10621, Control_c, 0, 64, 78
1, 10641, Control_c, 0, 64, 48
1, 10660, Control_c, 0, 64, 23
1, 10692, Note_off_c, 0, 52, 60
1, 10693, Poly_aftertouch_c, 0, 64, 28
1, 10696, Control_c, 0, 64, 28
1, 10699, Note_on_c, 0, 64, 89
1, 10715, Control_c, 0, 64, 44
1, 10724, Note_off_c, 0, 79, 58
1, 10734, Control_c, 0, 64, 68
1, 10754, Control_c, 0, 64, 93
1, 10763, Note_off_c, 0, 64, 63
1, 10771, Control_c, 0, 64, 127
1, 10772, Note_off_c, 0, 67, 52
1, 10791, Note_off_c, 0, 70, 61
1, 10795, Note_off_c, 0, 74, 58
1, 10847, Poly_aftertouch_c, 0, 64, 28
1, 10849, Note_on_c, 0, 64, 78
1, 10875, Note_off_c, 0, 64, 71
1, 11056, Poly_aftertouch_c, 0, 77, 28
1, 11062, Note_on_c, 0, 77, 75
1, 11064, Poly_aftertouch_c, 0, 57, 28
1, 11065, Note_on_c, 0, 73, 78
1, 11067, Poly_aftertouch_c, 0, 65, 28
1, 11067, Poly_aftertouch_c, 0, 73, 28
1, 11071, Note_on_c, 0, 65, 73
1, 11071, Control_c, 0, 64, 82
1, 11072, Note_on_c, 0, 57, 69
1, 11074, Note_on_c, 0, 49, 59
1, 11076, Note_on_c, 0, 45, 57
1, 11077, Poly_aftertouch_c, 0, 45, 28
1, 11077, Poly_aftertouch_c, 0, 49, 28
1, 11092, Control_c, 0, 64, 57
1, 11109, Control_c, 0, 64, 37
1, 11126, Control_c, 0, 64, 32
1, 11142, Note_off_c, 0, 45, 0
1, 11143, Note_on_c, 0, 45, 32
1, 11164, Control_c, 0, 64, 44
1, 11169, Note_off_c, 0, 65, 59
1, 11184, Control_c, 0, 64, 61
1, 11202, Control_c, 0, 64, 76
1, 11221, Control_c, 0, 64, 96
1, 11231, Note_off_c, 0, 73, 62
1, 11240, Control_c, 0, 64, 127
1, 11243, Note_off_c, 0, 77, 61
1, 11255, Poly_aftertouch_c, 0, 76, 28
1, 11257, Note_on_c, 0, 76, 75
1, 11269, Note_off_c, 0, 45, 58
1, 11283, Poly_aftertouch_c, 0, 64, 28
1, 11288, Note_on_c, 0, 64, 62
1, 11330, Note_off_c, 0, 64, 66
1, 11367, Note_off_c, 0, 76, 59
1, 11371, Note_off_c, 0, 57, 59
1, 11374, Note_off_c, 0, 49, 62
1, 11423, Poly_aftertouch_c, 0, 62, 28
1, 11424, Note_on_c, 0, 62, 81
1, 11430, Poly_aftertouch_c, 0, 74, 28
1, 11431, Note_on_c, 0, 74, 83
1, 11462, Note_off_c, 0, 62, 61
1, 11501, Note_off_c, 0, 74, 63
1, 11577, Control_c, 0, 64, 79
1, 11589, Poly_aftertouch_c, 0, 67, 28
1, 11590, Poly_aftertouch_c, 0, 79, 28
1, 11592, Note_on_c, 0, 79, 91
1, 11593, Note_on_c, 0, 67, 83
1, 11595, Control_c, 0, 64, 50
1, 11596, Note_on_c, 0, 50, 70
1, 11596, Note_on_c, 0, 74, 84
1, 11597, Note_on_c, 0, 58, 82
1, 11599, Poly_aftertouch_c, 0, 46, 28
1, 11600, Poly_aftertouch_c, 0, 50, 28
1, 11601, Poly_aftertouch_c, 0, 58, 28
1, 11604, Poly_aftertouch_c, 0, 74, 28
1, 11607, Note_on_c, 0, 46, 68
1, 11613, Control_c, 0, 64, 25
1, 11633, Control_c, 0, 64, 19
1, 11670, Control_c, 0, 64, 30
1, 11680, Note_off_c, 0, 67, 54
1, 11689, Control_c, 0, 64, 48
1, 11708, Control_c, 0, 64, 72
1, 11715, Note_off_c, 0, 74, 62
1, 11726, Control_c, 0, 64, 96
1, 11727, Note_off_c, 0, 79, 63
1, 11745, Control_c, 0, 64, 127
1, 11753, Note_off_c, 0, 50, 62
1, 11759, Poly_aftertouch_c, 0, 77, 28
1, 11763, Note_on_c, 0, 77, 78
1, 11766, Poly_aftertouch_c, 0, 65, 28
1, 11770, Note_off_c, 0, 58, 59
1, 11771, Note_on_c, 0, 65, 80
1, 11776, Note_off_c, 0, 46, 59
1, 11835, Note_off_c, 0, 65, 64
1, 11867, Note_off_c, 0, 77, 59
1, 11919, Poly_aftertouch_c, 0, 64, 28
1, 11921, Poly_aftertouch_c, 0, 76, 28
1, 11922, Note_on_c, 0, 64, 80
1, 11925, Note_on_c, 0, 76, 81
1, 11973, Note_off_c, 0, 64, 57
1, 11990, Note_off_c, 0, 76, 62
1, 12063, Control_c, 0, 64, 91
1, 12083, Control_c, 0, 64, 58
1, 12087, Note_on_c, 0, 77, 89
1, 12089, Poly_aftertouch_c, 0, 65, 28
1, 12089, Poly_aftertouch_c, 0, 73, 28
1, 12089, Poly_aftertouch_c, 0, 77, 28
1, 12091, Note_on_c, 0, 65, 86
1, 12092, Note_on_c, 0, 73, 88
1, 12096, Note_on_c, 0, 57, 85
1, 12098, Note_on_c, 0, 49, 78
1, 12099, Note_off_c, 0, 49, 127
1, 12100, Poly_aftertouch_c, 0, 45, 28
1, 12100, Poly_aftertouch_c, 0, 49, 28
1, 12101, Poly_aftertouch_c, 0, 57, 28
1, 12102, Control_c, 0, 64, 22
1, 12103, Note_on_c, 0, 45, 77
1, 12124, Control_c, 0, 64, 0
1, 12152, Poly_aftertouch_c, 0, 49, 127
1, 12159, Note_off_c, 0, 65, 52
1, 12176, Control_c, 0, 64, 19
1, 12194, Control_c, 0, 64, 41
1, 12212, Note_off_c, 0, 45, 61
1, 12212, Control_c, 0, 64, 67
1, 12217, Note_off_c, 0, 57, 59
1, 12232, Control_c, 0, 64, 90
1, 12250, Control_c, 0, 64, 127
1, 12257, Note_off_c, 0, 73, 62
1, 12269, Note_off_c, 0, 77, 54
1, 12273, Poly_aftertouch_c, 0, 49, 0
1, 12274, Poly_aftertouch_c, 0, 76, 28
1, 12279, Note_on_c, 0, 76, 80
1, 12294, Poly_aftertouch_c, 0, 64, 28
1, 12296, Note_on_c, 0, 64, 70
1, 12296, Poly_aftertouch_c, 0, 65, 28
1, 12301, Note_on_c, 0, 65, 71
1, 12337, Note_off_c, 0, 65, 62
1, 12362, Note_off_c, 0, 64, 62
1, 12408, Note_off_c, 0, 76, 58
1, 12460, Poly_aftertouch_c, 0, 62, 28
1, 12462, Poly_aftertouch_c, 0, 74, 28
1, 12466, Note_on_c, 0, 62, 81
1, 12467, Note_on_c, 0, 74, 81
1, 12580, Note_off_c, 0, 62, 50
1, 12592, Note_off_c, 0, 74, 60
1, 12645, Poly_aftertouch_c, 0, 43, 28
1, 12646, Note_on_c, 0, 43, 82
1, 12682, Control_c, 0, 64, 98
1, 12700, Poly_aftertouch_c, 0, 64, 28
1, 12700, Control_c, 0, 64, 60
1, 12701, Note_on_c, 0, 76, 85
1, 12702, Note_on_c, 0, 64, 86
1, 12703, Note_on_c, 0, 72, 82
1, 12703, Poly_aftertouch_c, 0, 72, 28
1, 12703, Poly_aftertouch_c, 0, 76, 28
1, 12718, Control_c, 0, 64, 18
1, 12737, Control_c, 0, 64, 0
1, 12774, Note_off_c, 0, 64, 57
1, 12791, Poly_aftertouch_c, 0, 46, 28
1, 12793, Control_c, 0, 64, 9
1, 12795, Note_on_c, 0, 46, 80
1, 12805, Note_off_c, 0, 76, 61
1, 12811, Control_c, 0, 64, 29
1, 12831, Control_c, 0, 64, 57
1, 12849, Control_c, 0, 64, 85
1, 12868, Control_c, 0, 64, 127
1, 12908, Poly_aftertouch_c, 0, 50, 28
1, 12912, Note_on_c, 0, 50, 79
1, 13018, Control_c, 0, 64, 103
1, 13037, Control_c, 0, 64, 65
1, 13039, Poly_aftertouch_c, 0, 62, 28
1, 13040, Poly_aftertouch_c, 0, 70, 28
1, 13041, Poly_aftertouch_c, 0, 74, 28
1, 13044, Note_on_c, 0, 52, 87
1, 13045, Note_on_c, 0, 70, 86
1, 13046, Note_on_c, 0, 74, 93
1, 13046, Note_on_c, 0, 62, 92
1, 13049, Poly_aftertouch_c, 0, 52, 28
1, 13055, Control_c, 0, 64, 26
1, 13074, Control_c, 0, 64, 0
1, 13085, Note_off_c, 0, 72, 59
1, 13130, Control_c, 0, 64, 25
1, 13149, Control_c, 0, 64, 55
1, 13166, Note_off_c, 0, 74, 62
1, 13167, Control_c, 0, 64, 86
1, 13176, Note_off_c, 0, 43, 56
1, 13187, Control_c, 0, 64, 127
1, 13199, Note_off_c, 0, 62, 62
1, 13212, Note_off_c, 0, 70, 65
1, 13219, Note_off_c, 0, 52, 57
1, 13261, Note_off_c, 0, 50, 58
1, 13291, Note_off_c, 0, 46, 57
1, 13647, Poly_aftertouch_c, 0, 70, 28
1, 13653, Poly_aftertouch_c, 0, 58, 28
1, 13654, Note_on_c, 0, 70, 86
1, 13654, Note_on_c, 0, 67, 82
1, 13655, Poly_aftertouch_c, 0, 67, 28
1, 13657, Note_on_c, 0, 58, 82
1, 13734, Note_off_c, 0, 58, 63
1, 13756, Note_off_c, 0, 67, 58
1, 13783, Note_off_c, 0, 70, 61
1, 13961, Poly_aftertouch_c, 0, 30, 28
1, 13991, Control_c, 0, 64, 122
1, 14000, Poly_aftertouch_c, 0, 26, 28
1, 14001, Poly_aftertouch_c, 0, 38, 28
1, 14004, Note_on_c, 0, 38, 86
1, 14006, Note_on_c, 0, 26, 80
1, 14009, Control_c, 0, 64, 75
1, 14013, Poly_aftertouch_c, 0, 30, 127
1, 14025, Poly_aftertouch_c, 0, 30, 0
1, 14027, Control_c, 0, 64, 41
1, 14047, Control_c, 0, 64, 0
1, 14082, Note_on_c, 0, 69, 92
1, 14083, Note_on_c, 0, 65, 87
1, 14084, Note_on_c, 0, 57, 93
1, 14085, Poly_aftertouch_c, 0, 57, 28
1, 14086, Poly_aftertouch_c, 0, 65, 28
1, 14086, Poly_aftertouch_c, 0, 69, 28
1, 14090, Note_off_c, 0, 26, 61
1, 14122, Control_c, 0, 64, 25
1, 14140, Control_c, 0, 64, 56
1, 14148, Note_off_c, 0, 38, 63
1, 14160, Control_c, 0, 64, 88
1, 14179, Control_c, 0, 64, 127
1, 14193, Note_off_c, 0, 57, 59
1, 14263, Note_off_c, 0, 65, 56
1, 14289, Note_off_c, 0, 69, 55
1, 14528, Poly_aftertouch_c, 0, 57, 28
1, 14532, Note_on_c, 0, 57, 78
1, 14538, Poly_aftertouch_c, 0, 53, 28
1, 14544, Note_on_c, 0, 53, 70
1, 14600, Note_off_c, 0, 53, 51
1, 14634, Note_off_c, 0, 57, 61
1, 14765, Poly_aftertouch_c, 0, 88, 28
1, 14770, Poly_aftertouch_c, 0, 84, 28
1, 14772, Note_on_c, 0, 88, 82
1, 14774, Note_on_c, 0, 64, 82
1, 14775, Note_on_c, 0, 84, 81
1, 14776, Note_on_c, 0, 76, 80
1, 14778, Note_on_c, 0, 60, 78
1, 14780, Poly_aftertouch_c, 0, 60, 28
1, 14780, Poly_aftertouch_c, 0, 64, 28
1, 14781, Poly_aftertouch_c, 0, 76, 28
1, 14800, Note_off_c, 0, 64, 70
1, 14809, Note_off_c, 0, 60, 70
1, 14840, Note_off_c, 0, 76, 64
1, 14856, Note_off_c, 0, 88, 65
1, 14983, Control_c, 0, 64, 98
1, 15002, Control_c, 0, 64, 60
1, 15020, Control_c, 0, 64, 19
1, 15040, Control_c, 0, 64, 0
1, 15050, Note_off_c, 0, 84, 56
1, 15054, Poly_aftertouch_c, 0, 82, 28
1, 15059, Poly_aftertouch_c, 0, 86, 28
1, 15062, Note_on_c, 0, 82, 84
1, 15065, Note_on_c, 0, 86, 86
1, 15068, Note_on_c, 0, 74, 85
1, 15069, Poly_aftertouch_c, 0, 74, 28
1, 15072, Poly_aftertouch_c, 0, 28, 28
1, 15073, Poly_aftertouch_c, 0, 40, 28
1, 15076, Note_on_c, 0, 28, 75
1, 15076, Note_on_c, 0, 40, 78
1, 15095, Control_c, 0, 64, 16
1, 15109, Note_off_c, 0, 40, 65
1, 15113, Note_off_c, 0, 28, 62
1, 15113, Control_c, 0, 64, 40
1, 15123, Note_off_c, 0, 74, 60
1, 15124, Note_off_c, 0, 86, 63
1, 15132, Control_c, 0, 64, 71
1, 15148, Note_off_c, 0, 82, 65
1, 15151, Control_c, 0, 64, 98
1, 15170, Control_c, 0, 64, 127
1, 15309, Poly_aftertouch_c, 0, 58, 28
1, 15315, Poly_aftertouch_c, 0, 62, 28
1, 15318, Note_on_c, 0, 58, 71
1, 15321, Note_on_c, 0, 62, 65
1, 15357, Note_off_c, 0, 62, 62
1, 15406, Note_off_c, 0, 58, 61
1, 15453, Poly_aftertouch_c, 0, 82, 28
1, 15454, Note_on_c, 0, 82, 81
1, 15457, Poly_aftertouch_c, 0, 55, 28
1, 15461, Note_on_c, 0, 79, 75
1, 15461, Poly_aftertouch_c, 0, 70, 28
1, 15462, Poly_aftertouch_c, 0, 79, 28
1, 15465, Note_on_c, 0, 55, 53
1, 15466, Note_on_c, 0, 70, 78
1, 15469, Note_on_c, 0, 52, 54
1, 15469, Poly_aftertouch_c, 0, 52, 28
1, 15499, Note_off_c, 0, 55, 56
1, 15505, Note_off_c, 0, 52, 56
1, 15537, Note_off_c, 0, 70, 60
1, 15544, Note_off_c, 0, 82, 64
1, 15560, Note_off_c, 0, 79, 60
1, 15639, Control_c, 0, 64, 77
1, 15657, Control_c, 0, 64, 42
1, 15676, Poly_aftertouch_c, 0, 81, 28
1, 15680, Note_on_c, 0, 81, 82
1, 15683, Poly_aftertouch_c, 0, 77, 28
1, 15686, Note_on_c, 0, 77, 73
1, 15689, Note_on_c, 0, 69, 75
1, 15690, Poly_aftertouch_c, 0, 69, 28
1, 15694, Poly_aftertouch_c, 0, 29, 28
1, 15695, Control_c, 0, 64, 0
1, 15700, Note_on_c, 0, 29, 59
1, 15708, Poly_aftertouch_c, 0, 41, 28
1, 15711, Note_on_c, 0, 41, 50
1, 15727, Note_on_c, 0, 31, 18
1, 15730, Control_c, 0, 64, 12
1, 15737, Note_off_c, 0, 29, 55
1, 15748, Note_off_c, 0, 41, 52
1, 15749, Control_c, 0, 64, 32
1, 15769, Control_c, 0, 64, 60
1, 15782, Poly_aftertouch_c, 0, 43, 28
1, 15783, Poly_aftertouch_c, 0, 43, 0
1, 15789, Control_c, 0, 64, 84
1, 15794, Poly_aftertouch_c, 0, 31, 28
1, 15795, Note_off_c, 0, 31, 28
1, 15804, Note_off_c, 0, 77, 60
1, 15805, Control_c, 0, 64, 127
1, 15808, Note_off_c, 0, 81, 62
1, 15834, Note_off_c, 0, 69, 55
1, 15922, Poly_aftertouch_c, 0, 53, 28
1, 15924, Note_on_c, 0, 53, 65
1, 15928, Poly_aftertouch_c, 0, 57, 28
1, 15931, Note_on_c, 0, 57, 65
1, 16013, Control_c, 0, 64, 81
1, 16032, Control_c, 0, 64, 51
1, 16050, Control_c, 0, 64, 31
1, 16085, Poly_aftertouch_c, 0, 76, 28
1, 16087, Control_c, 0, 64, 39
1, 16089, Note_on_c, 0, 76, 64
1, 16093, Poly_aftertouch_c, 0, 67, 28
1, 16094, Poly_aftertouch_c, 0, 79, 28
1, 16096, Note_on_c, 0, 79, 75
1, 16097, Note_on_c, 0, 67, 64
1, 16100, Poly_aftertouch_c, 0, 61, 28
1, 16103, Note_on_c, 0, 61, 61
1, 16107, Control_c, 0, 64, 55
1, 16108, Poly_aftertouch_c, 0, 64, 28
1, 16111, Note_on_c, 0, 64, 56
1, 16125, Control_c, 0, 64, 73
1, 16136, Note_off_c, 0, 57, 61
1, 16142, Control_c, 0, 64, 96
1, 16145, Note_off_c, 0, 64, 62
1, 16145, Note_off_c, 0, 61, 64
1, 16156, Note_off_c, 0, 76, 58
1, 16161, Note_off_c, 0, 67, 53
1, 16162, Control_c, 0, 64, 127
1, 16164, Control_c, 0, 67, 10
1, 16172, Note_off_c, 0, 53, 61
1, 16294, Control_c, 0, 67, 14
1, 16368, Control_c, 0, 64, 90
1, 16388, Control_c, 0, 64, 57
1, 16392, Poly_aftertouch_c, 0, 74, 28
1, 16398, Note_on_c, 0, 77, 65
1, 16398, Note_on_c, 0, 74, 60
1, 16400, Poly_aftertouch_c, 0, 65, 28
1, 16401, Poly_aftertouch_c, 0, 77, 28
1, 16406, Control_c, 0, 64, 21
1, 16407, Note_on_c, 0, 65, 56
1, 16411, Poly_aftertouch_c, 0, 46, 28
1, 16418, Note_on_c, 0, 46, 59
1, 16422, Poly_aftertouch_c, 0, 34, 28
1, 16425, Control_c, 0, 64, 0
1, 16427, Note_on_c, 0, 34, 57
1, 16427, Control_c, 0, 67, 19
1, 16443, Control_c, 0, 67, 23
1, 16462, Control_c, 0, 67, 27
1, 16475, Note_off_c, 0, 79, 27
1, 16481, Control_c, 0, 64, 14
1, 16482, Control_c, 0, 67, 32
1, 16494, Note_off_c, 0, 34, 61
1, 16497, Control_c, 0, 64, 34
1, 16519, Control_c, 0, 64, 61
1, 16520, Control_c, 0, 67, 39
1, 16536, Control_c, 0, 64, 83
1, 16537, Note_off_c, 0, 46, 61
1, 16556, Control_c, 0, 64, 116
1, 16558, Control_c, 0, 67, 44
1, 16574, Control_c, 0, 64, 127
1, 16604, Note_off_c, 0, 74, 59
1, 16651, Note_off_c, 0, 65, 58
1, 16765, Poly_aftertouch_c, 0, 58, 28
1, 16774, Poly_aftertouch_c, 0, 62, 28
1, 16778, Note_on_c, 0, 58, 47
1, 16781, Note_on_c, 0, 62, 49
1, 16790, Poly_aftertouch_c, 0, 53, 28
1, 16797, Note_on_c, 0, 53, 42
1, 16797, Poly_aftertouch_c, 0, 55, 28
1, 16800, Note_on_c, 0, 55, 50
1, 16894, Note_off_c, 0, 53, 50
1, 16902, Note_off_c, 0, 62, 59
1, 16907, Note_off_c, 0, 58, 62
1, 16927, Note_off_c, 0, 55, 47
1, 17067, Poly_aftertouch_c, 0, 74, 28
1, 17070, Note_on_c, 0, 74, 56
1, 17073, Note_off_c, 0, 77, 56
1, 17078, Poly_aftertouch_c, 0, 70, 28
1, 17090, Note_on_c, 0, 70, 45
1, 17093, Poly_aftertouch_c, 0, 67, 28
1, 17099, Poly_aftertouch_c, 0, 65, 28
1, 17106, Note_on_c, 0, 67, 30
1, 17109, Note_on_c, 0, 65, 34
1, 17249, Control_c, 0, 67, 48
1, 17324, Control_c, 0, 67, 53
1, 17341, Control_c, 0, 67, 59
1, 17342, Note_off_c, 0, 74, 44
1, 17351, Note_off_c, 0, 67, 36
1, 17359, Note_off_c, 0, 65, 37
1, 17359, Control_c, 0, 67, 67
1, 17380, Control_c, 0, 67, 74
1, 17398, Control_c, 0, 67, 79
1, 17417, Control_c, 0, 67, 84
1, 17428, Note_off_c, 0, 70, 49
1, 17455, Control_c, 0, 67, 91
1, 17491, Control_c, 0, 67, 96
1, 17529, Control_c, 0, 67, 100
1, 17541, Poly_aftertouch_c, 0, 48, 28
1, 17548, Note_on_c, 0, 48, 52
1, 17559, Poly_aftertouch_c, 0, 36, 28
1, 17563, Note_on_c, 0, 36, 42
1, 17567, Control_c, 0, 67, 106
1, 17604, Control_c, 0, 64, 104
1, 17606, Control_c, 0, 67, 112
1, 17623, Control_c, 0, 64, 87
1, 17642, Control_c, 0, 64, 69
1, 17644, Control_c, 0, 67, 119
1, 17661, Control_c, 0, 64, 51
1, 17679, Control_c, 0, 64, 34
1, 17680, Control_c, 0, 67, 125
1, 17697, Control_c, 0, 64, 23
1, 17791, Control_c, 0, 64, 28
1, 17810, Control_c, 0, 64, 35
1, 17828, Control_c, 0, 64, 46
1, 17848, Control_c, 0, 64, 59
1, 17866, Control_c, 0, 64, 67
1, 17885, Control_c, 0, 64, 72
1, 17903, Control_c, 0, 64, 76
1, 17923, Control_c, 0, 64, 82
1, 17940, Control_c, 0, 64, 92
1, 17959, Control_c, 0, 64, 108
1, 17967, Note_off_c, 0, 48, 60
1, 17978, Control_c, 0, 64, 127
1, 18083, Poly_aftertouch_c, 0, 64, 28
1, 18086, Note_on_c, 0, 64, 62
1, 18100, Poly_aftertouch_c, 0, 70, 28
1, 18111, Note_on_c, 0, 70, 49
1, 18137, Poly_aftertouch_c, 0, 60, 28
1, 18139, Poly_aftertouch_c, 0, 72, 28
1, 18144, Note_on_c, 0, 72, 36
1, 18146, Note_on_c, 0, 60, 24
1, 18329, Note_off_c, 0, 60, 22
1, 18337, Note_off_c, 0, 72, 20
1, 18353, Note_off_c, 0, 64, 61
1, 18373, Poly_aftertouch_c, 0, 36, 24
1, 18382, Note_off_c, 0, 70, 52
1, 18407, Note_off_c, 0, 36, 36
1, 18407, Poly_aftertouch_c, 0, 37, 28
1, 18418, Poly_aftertouch_c, 0, 49, 28
1, 18420, Note_on_c, 0, 37, 34
1, 18425, Note_on_c, 0, 49, 34
1, 18627, Poly_aftertouch_c, 0, 65, 28
1, 18633, Note_on_c, 0, 65, 67
1, 18646, Poly_aftertouch_c, 0, 70, 28
1, 18652, Control_c, 0, 64, 92
1, 18655, Note_on_c, 0, 70, 51
1, 18665, Poly_aftertouch_c, 0, 60, 28
1, 18668, Note_on_c, 0, 60, 38
1, 18670, Control_c, 0, 64, 72
1, 18686, Poly_aftertouch_c, 0, 72, 28
1, 18688, Control_c, 0, 64, 63
1, 18696, Note_on_c, 0, 72, 28
1, 18710, Control_c, 0, 64, 64
1, 18727, Control_c, 0, 64, 67
1, 18746, Control_c, 0, 64, 72
1, 18764, Control_c, 0, 64, 80
1, 18776, Note_off_c, 0, 37, 39
1, 18783, Control_c, 0, 64, 95
1, 18802, Control_c, 0, 64, 127
1, 18822, Note_off_c, 0, 49, 41
1, 18861, Poly_aftertouch_c, 0, 50, 28
1, 18866, Poly_aftertouch_c, 0, 38, 28
1, 18869, Note_on_c, 0, 50, 50
1, 18875, Note_on_c, 0, 38, 43
1, 18883, Note_off_c, 0, 65, 60
1, 18903, Note_off_c, 0, 72, 22
1, 18906, Note_off_c, 0, 60, 35
1, 18924, Note_off_c, 0, 70, 53
1, 19009, Control_c, 0, 64, 93
1, 19016, Note_off_c, 0, 50, 58
1, 19026, Control_c, 0, 64, 72
1, 19029, Poly_aftertouch_c, 0, 66, 28
1, 19032, Note_on_c, 0, 66, 66
1, 19039, Poly_aftertouch_c, 0, 70, 28
1, 19045, Control_c, 0, 64, 61
1, 19046, Note_on_c, 0, 70, 63
1, 19052, Note_on_c, 0, 60, 46
1, 19052, Poly_aftertouch_c, 0, 60, 28
1, 19064, Control_c, 0, 64, 62
1, 19082, Control_c, 0, 64, 67
1, 19089, Poly_aftertouch_c, 0, 72, 28
1, 19094, Note_on_c, 0, 72, 22
1, 19101, Control_c, 0, 64, 73
1, 19120, Control_c, 0, 64, 85
1, 19138, Control_c, 0, 64, 109
1, 19158, Control_c, 0, 64, 127
1, 19164, Note_off_c, 0, 38, 39
1, 19195, Poly_aftertouch_c, 0, 51, 28
1, 19200, Note_on_c, 0, 51, 52
1, 19209, Poly_aftertouch_c, 0, 39, 28
1, 19218, Note_on_c, 0, 39, 35
1, 19252, Note_off_c, 0, 72, 24
1, 19260, Note_off_c, 0, 66, 61
1, 19261, Note_off_c, 0, 70, 55
1, 19269, Note_off_c, 0, 60, 41
1, 19269, Control_c, 0, 67, 121
1, 19307, Control_c, 0, 64, 92
1, 19327, Control_c, 0, 64, 68
1, 19344, Control_c, 0, 64, 54
1, 19354, Poly_aftertouch_c, 0, 67, 28
1, 19358, Note_on_c, 0, 67, 73
1, 19365, Poly_aftertouch_c, 0, 70, 28
1, 19373, Note_on_c, 0, 70, 66
1, 19381, Note_on_c, 0, 60, 58
1, 19381, Poly_aftertouch_c, 0, 60, 28
1, 19383, Control_c, 0, 64, 59
1, 19401, Control_c, 0, 64, 66
1, 19404, Note_on_c, 0, 72, 38
1, 19406, Poly_aftertouch_c, 0, 72, 28
1, 19418, Note_off_c, 0, 51, 57
1, 19418, Control_c, 0, 64, 76
1, 19431, Note_off_c, 0, 39, 43
1, 19438, Control_c, 0, 64, 94
1, 19458, Control_c, 0, 64, 127
1, 19530, Poly_aftertouch_c, 0, 52, 28
1, 19534, Note_on_c, 0, 52, 58
1, 19553, Poly_aftertouch_c, 0, 40, 28
1, 19554, Note_off_c, 0, 60, 46
1, 19560, Note_on_c, 0, 40, 42
1, 19561, Note_off_c, 0, 72, 22
1, 19566, Note_off_c, 0, 67, 61
1, 19599, Note_off_c, 0, 70, 59
1, 19682, Control_c, 0, 64, 85
1, 19689, Poly_aftertouch_c, 0, 70, 28
1, 19694, Poly_aftertouch_c, 0, 68, 28
1, 19698, Note_on_c, 0, 70, 72
1, 19699, Note_on_c, 0, 68, 72
1, 19701, Control_c, 0, 64, 59
1, 19707, Note_on_c, 0, 60, 67
1, 19709, Poly_aftertouch_c, 0, 60, 28
1, 19710, Poly_aftertouch_c, 0, 72, 28
1, 19713, Note_on_c, 0, 72, 63
1, 19714, Note_off_c, 0, 40, 40
1, 19720, Control_c, 0, 64, 45
1, 19730, Note_off_c, 0, 52, 57
1, 19757, Control_c, 0, 64, 53
1, 19775, Control_c, 0, 64, 64
1, 19795, Control_c, 0, 64, 76
1, 19812, Control_c, 0, 64, 101
1, 19831, Control_c, 0, 64, 127
1, 19858, Poly_aftertouch_c, 0, 53, 28
1, 19861, Note_on_c, 0, 53, 67
1, 19869, Note_off_c, 0, 70, 62
1, 19884, Poly_aftertouch_c, 0, 41, 28
1, 19887, Note_on_c, 0, 41, 49
1, 19902, Note_off_c, 0, 60, 54
1, 19928, Note_off_c, 0, 72, 51
1, 19982, Control_c, 0, 64, 93
1, 20000, Control_c, 0, 64, 62
1, 20004, Note_off_c, 0, 41, 55
1, 20018, Control_c, 0, 64, 41
1, 20023, Poly_aftertouch_c, 0, 69, 28
1, 20026, Note_on_c, 0, 69, 83
1, 20037, Note_on_c, 0, 60, 77
1, 20039, Poly_aftertouch_c, 0, 60, 28
1, 20040, Note_on_c, 0, 72, 74
1, 20041, Note_off_c, 0, 68, 63
1, 20042, Poly_aftertouch_c, 0, 72, 28
1, 20050, Note_off_c, 0, 53, 61
1, 20055, Control_c, 0, 64, 45
1, 20074, Control_c, 0, 64, 57
1, 20093, Control_c, 0, 64, 73
1, 20113, Control_c, 0, 64, 99
1, 20131, Control_c, 0, 64, 127
1, 20170, Control_c, 0, 67, 117
1, 20176, Note_off_c, 0, 60, 55
1, 20200, Poly_aftertouch_c, 0, 54, 28
1, 20208, Note_on_c, 0, 54, 66
1, 20213, Note_on_c, 0, 48, 54
1, 20213, Poly_aftertouch_c, 0, 48, 28
1, 20217, Poly_aftertouch_c, 0, 42, 28
1, 20223, Note_on_c, 0, 42, 50
1, 20228, Note_off_c, 0, 69, 57
1, 20240, Note_off_c, 0, 72, 58
1, 20264, Control_c, 0, 67, 113
1, 20354, Note_off_c, 0, 42, 56
1, 20374, Note_off_c, 0, 54, 60
1, 20383, Poly_aftertouch_c, 0, 76, 28
1, 20385, Note_on_c, 0, 76, 85
1, 20402, Poly_aftertouch_c, 0, 70, 28
1, 20410, Note_on_c, 0, 70, 67
1, 20412, Poly_aftertouch_c, 0, 64, 28
1, 20417, Note_on_c, 0, 64, 59
1, 20430, Control_c, 0, 64, 83
1, 20435, Note_off_c, 0, 48, 30
1, 20450, Control_c, 0, 64, 52
1, 20468, Control_c, 0, 64, 24
1, 20487, Control_c, 0, 64, 13
1, 20525, Control_c, 0, 64, 20
1, 20542, Control_c, 0, 64, 36
1, 20562, Control_c, 0, 64, 62
1, 20563, Control_c, 0, 67, 109
1, 20572, Poly_aftertouch_c, 0, 48, 28
1, 20579, Control_c, 0, 64, 86
1, 20581, Note_on_c, 0, 48, 35
1, 20584, Poly_aftertouch_c, 0, 43, 28
1, 20585, Poly_aftertouch_c, 0, 55, 28
1, 20590, Note_on_c, 0, 43, 38
1, 20591, Note_on_c, 0, 55, 50
1, 20597, Control_c, 0, 64, 127
1, 20620, Note_off_c, 0, 76, 58
1, 20625, Note_off_c, 0, 64, 49
1, 20685, Note_off_c, 0, 43, 52
1, 20697, Note_off_c, 0, 55, 55
1, 20703, Note_off_c, 0, 70, 56
1, 20786, Note_off_c, 0, 48, 31
1, 20840, Poly_aftertouch_c, 0, 74, 28
1, 20842, Note_on_c, 0, 74, 76
1, 20854, Poly_aftertouch_c, 0, 70, 28
1, 20862, Note_on_c, 0, 70, 56
1, 20866, Poly_aftertouch_c, 0, 62, 28
1, 20871, Note_on_c, 0, 62, 53
1, 20879, Control_c, 0, 64, 118
1, 20899, Control_c, 0, 64, 78
1, 20917, Control_c, 0, 64, 52
1, 20937, Control_c, 0, 64, 33
1, 20954, Control_c, 0, 64, 29
1, 20992, Control_c, 0, 64, 36
1, 21011, Control_c, 0, 64, 49
1, 21029, Control_c, 0, 64, 66
1, 21032, Poly_aftertouch_c, 0, 48, 28
1, 21037, Note_on_c, 0, 48, 39
1, 21039, Note_on_c, 0, 52, 43
1, 21039, Poly_aftertouch_c, 0, 52, 28
1, 21047, Poly_aftertouch_c, 0, 40, 28
1, 21048, Control_c, 0, 64, 80
1, 21050, Note_off_c, 0, 62, 56
1, 21051, Note_off_c, 0, 70, 54
1, 21054, Note_on_c, 0, 40, 23
1, 21068, Control_c, 0, 64, 99
1, 21085, Control_c, 0, 64, 127
1, 21148, Note_off_c, 0, 52, 53
1, 21162, Note_off_c, 0, 74, 60
1, 21166, Note_off_c, 0, 48, 61
1, 21182, Note_off_c, 0, 40, 34
1, 21193, Poly_aftertouch_c, 0, 72, 28
1, 21197, Note_on_c, 0, 72, 66
1, 21207, Poly_aftertouch_c, 0, 70, 28
1, 21215, Note_on_c, 0, 70, 55
1, 21215, Control_c, 0, 64, 94
1, 21216, Poly_aftertouch_c, 0, 60, 28
1, 21221, Note_on_c, 0, 60, 50
1, 21236, Control_c, 0, 64, 67
1, 21254, Control_c, 0, 64, 49
1, 21273, Control_c, 0, 64, 47
1, 21288, Note_off_c, 0, 60, 43
1, 21290, Control_c, 0, 64, 53
1, 21310, Control_c, 0, 64, 61
1, 21330, Control_c, 0, 64, 71
1, 21343, Poly_aftertouch_c, 0, 49, 28
1, 21346, Note_on_c, 0, 49, 43
1, 21346, Control_c, 0, 64, 86
1, 21348, Poly_aftertouch_c, 0, 37, 28
1, 21354, Poly_aftertouch_c, 0, 46, 28
1, 21356, Note_on_c, 0, 37, 43
1, 21363, Note_on_c, 0, 46, 41
1, 21364, Control_c, 0, 64, 127
1, 21370, Note_off_c, 0, 72, 60
1, 21376, Note_off_c, 0, 70, 62
1, 21459, Note_off_c, 0, 37, 57
1, 21478, Note_off_c, 0, 49, 56
1, 21532, Poly_aftertouch_c, 0, 79, 28
1, 21535, Control_c, 0, 64, 105
1, 21537, Note_on_c, 0, 79, 66
1, 21542, Poly_aftertouch_c, 0, 70, 28
1, 21551, Note_on_c, 0, 70, 43
1, 21551, Control_c, 0, 64, 73
1, 21555, Note_off_c, 0, 46, 29
1, 21560, Poly_aftertouch_c, 0, 67, 28
1, 21565, Note_on_c, 0, 67, 37
1, 21570, Control_c, 0, 64, 50
1, 21591, Control_c, 0, 64, 40
1, 21628, Control_c, 0, 64, 48
1, 21648, Control_c, 0, 64, 61
1, 21666, Control_c, 0, 64, 75
1, 21685, Control_c, 0, 64, 96
1, 21691, Poly_aftertouch_c, 0, 46, 28
1, 21692, Note_off_c, 0, 67, 58
1, 21698, Note_off_c, 0, 79, 59
1, 21701, Note_on_c, 0, 46, 47
1, 21704, Control_c, 0, 64, 127
1, 21707, Poly_aftertouch_c, 0, 50, 28
1, 21712, Poly_aftertouch_c, 0, 38, 28
1, 21720, Note_on_c, 0, 38, 37
1, 21720, Note_on_c, 0, 50, 43
1, 21749, Note_off_c, 0, 70, 53
1, 21808, Note_off_c, 0, 50, 56
1, 21812, Note_off_c, 0, 46, 58
1, 21864, Note_off_c, 0, 38, 53
1, 21912, Poly_aftertouch_c, 0, 70, 28
1, 21919, Note_on_c, 0, 77, 60
1, 21923, Poly_aftertouch_c, 0, 77, 28
1, 21926, Note_on_c, 0, 70, 45
1, 21933, Poly_aftertouch_c, 0, 65, 28
1, 21942, Note_on_c, 0, 65, 41
1, 21946, Control_c, 0, 64, 100
1, 21965, Control_c, 0, 64, 71
1, 21985, Control_c, 0, 64, 52
1, 22003, Control_c, 0, 64, 48
1, 22022, Control_c, 0, 64, 53
1, 22040, Control_c, 0, 64, 61
1, 22058, Control_c, 0, 64, 69
1, 22078, Control_c, 0, 64, 83
1, 22097, Control_c, 0, 64, 109
1, 22104, Note_off_c, 0, 65, 46
1, 22115, Control_c, 0, 64, 127
1, 22134, Poly_aftertouch_c, 0, 43, 28
1, 22140, Note_on_c, 0, 43, 39
1, 22143, Poly_aftertouch_c, 0, 31, 28
1, 22145, Note_off_c, 0, 70, 38
1, 22151, Note_on_c, 0, 31, 42
1, 22233, Note_off_c, 0, 43, 52
1, 22244, Note_off_c, 0, 31, 52
1, 22314, Note_off_c, 0, 77, 53
1, 22350, Poly_aftertouch_c, 0, 70, 28
1, 22360, Poly_aftertouch_c, 0, 74, 28
1, 22365, Note_on_c, 0, 70, 37
1, 22366, Note_on_c, 0, 74, 51
1, 22375, Poly_aftertouch_c, 0, 65, 28
1, 22383, Note_on_c, 0, 65, 34
1, 22487, Note_off_c, 0, 70, 52
1, 22495, Note_off_c, 0, 74, 57
1, 22573, Note_off_c, 0, 65, 50
1, 22641, Poly_aftertouch_c, 0, 24, 28
1, 22642, Poly_aftertouch_c, 0, 36, 28
1, 22648, Note_on_c, 0, 36, 49
1, 22650, Note_on_c, 0, 24, 41
1, 22677, Control_c, 0, 64, 86
1, 22696, Control_c, 0, 64, 60
1, 22714, Control_c, 0, 64, 40
1, 22733, Control_c, 0, 64, 34
1, 22770, Control_c, 0, 64, 46
1, 22789, Control_c, 0, 64, 63
1, 22802, Note_off_c, 0, 24, 54
1, 22807, Control_c, 0, 64, 81
1, 22827, Control_c, 0, 64, 118
1, 22845, Control_c, 0, 64, 127
1, 22867, Note_off_c, 0, 36, 61
1, 23058, Poly_aftertouch_c, 0, 72, 28
1, 23063, Note_on_c, 0, 72, 63
1, 23069, Poly_aftertouch_c, 0, 70, 28
1, 23077, Poly_aftertouch_c, 0, 60, 28
1, 23081, Note_on_c, 0, 70, 44
1, 23089, Note_on_c, 0, 60, 25
1, 23110, Poly_aftertouch_c, 0, 64, 28
1, 23122, Note_on_c, 0, 64, 20
1, 23221, Note_off_c, 0, 64, 38
1, 23233, Note_off_c, 0, 60, 36
1, 23234, Note_off_c, 0, 72, 60
1, 23258, Note_off_c, 0, 70, 58
1, 23284, Poly_aftertouch_c, 0, 48, 28
1, 23285, Poly_aftertouch_c, 0, 58, 28
1, 23292, Note_on_c, 0, 48, 36
1, 23293, Note_on_c, 0, 58, 49
1, 23370, Note_off_c, 0, 58, 62
1, 23382, Note_off_c, 0, 48, 58
1, 23528, Poly_aftertouch_c, 0, 73, 28
1, 23534, Note_on_c, 0, 73, 73
1, 23540, Poly_aftertouch_c, 0, 70, 28
1, 23549, Poly_aftertouch_c, 0, 61, 28
1, 23552, Note_on_c, 0, 70, 53
1, 23557, Poly_aftertouch_c, 0, 65, 28
1, 23558, Note_on_c, 0, 61, 41
1, 23566, Note_on_c, 0, 65, 44
1, 23641, Note_off_c, 0, 65, 48
1, 23725, Poly_aftertouch_c, 0, 46, 28
1, 23732, Note_on_c, 0, 46, 57
1, 23736, Note_off_c, 0, 61, 30
1, 23746, Note_off_c, 0, 73, 54
1, 23751, Note_off_c, 0, 70, 45
1, 23755, Poly_aftertouch_c, 0, 36, 28
1, 23762, Note_on_c, 0, 36, 36
1, 23775, Note_off_c, 0, 46, 64
1, 23812, Note_off_c, 0, 36, 44
1, 23899, Poly_aftertouch_c, 0, 74, 28
1, 23901, Note_on_c, 0, 74, 80
1, 23904, Poly_aftertouch_c, 0, 70, 28
1, 23914, Note_on_c, 0, 70, 60
1, 23914, Poly_aftertouch_c, 0, 62, 28
1, 23922, Note_on_c, 0, 62, 57
1, 23922, Poly_aftertouch_c, 0, 66, 28
1, 23930, Note_on_c, 0, 66, 54
1, 23972, Note_off_c, 0, 62, 60
1, 24007, Note_off_c, 0, 66, 46
1, 24008, Note_off_c, 0, 74, 61
1, 24037, Poly_aftertouch_c, 0, 36, 28
1, 24039, Note_off_c, 0, 70, 56
1, 24041, Poly_aftertouch_c, 0, 24, 28
1, 24047, Note_on_c, 0, 36, 38
1, 24049, Note_on_c, 0, 24, 65
1, 24095, Note_off_c, 0, 24, 56
1, 24115, Note_off_c, 0, 36, 62
1, 24223, Poly_aftertouch_c, 0, 70, 28
1, 24223, Poly_aftertouch_c, 0, 75, 28
1, 24226, Note_on_c, 0, 75, 82
1, 24229, Note_on_c, 0, 70, 71
1, 24230, Poly_aftertouch_c, 0, 63, 28
1, 24236, Note_on_c, 0, 63, 65
1, 24239, Note_on_c, 0, 67, 62
1, 24239, Poly_aftertouch_c, 0, 67, 28
1, 24285, Note_off_c, 0, 63, 53
1, 24293, Note_off_c, 0, 67, 55
1, 24344, Poly_aftertouch_c, 0, 58, 28
1, 24348, Note_on_c, 0, 58, 70
1, 24349, Poly_aftertouch_c, 0, 48, 28
1, 24352, Note_on_c, 0, 48, 67
1, 24356, Note_off_c, 0, 70, 50
1, 24386, Note_off_c, 0, 58, 68
1, 24389, Note_off_c, 0, 75, 54
1, 24402, Note_off_c, 0, 48, 62
1, 24526, Poly_aftertouch_c, 0, 76, 28
1, 24531, Note_on_c, 0, 76, 87
1, 24533, Poly_aftertouch_c, 0, 70, 28
1, 24535, Note_on_c, 0, 70, 76
1, 24544, Poly_aftertouch_c, 0, 64, 28
1, 24547, Note_on_c, 0, 64, 68
1, 24547, Poly_aftertouch_c, 0, 68, 28
1, 24548, Control_c, 0, 64, 88
1, 24554, Note_on_c, 0, 68, 58
1, 24567, Control_c, 0, 64, 69
1, 24587, Control_c, 0, 64, 67
1, 24605, Control_c, 0, 64, 73
1, 24624, Control_c, 0, 64, 86
1, 24634, Note_off_c, 0, 68, 41
1, 24642, Control_c, 0, 64, 127
1, 24646, Note_off_c, 0, 64, 50
1, 24677, Poly_aftertouch_c, 0, 45, 28
1, 24677, Poly_aftertouch_c, 0, 48, 28
1, 24682, Note_on_c, 0, 45, 63
1, 24682, Note_on_c, 0, 48, 67
1, 24697, Poly_aftertouch_c, 0, 36, 28
1, 24702, Note_on_c, 0, 36, 60
1, 24726, Note_off_c, 0, 76, 59
1, 24761, Note_off_c, 0, 45, 61
1, 24771, Note_off_c, 0, 70, 60
1, 24791, Control_c, 0, 64, 113
1, 24797, Note_off_c, 0, 48, 54
1, 24803, Note_off_c, 0, 36, 62
1, 24809, Control_c, 0, 64, 78
1, 24829, Control_c, 0, 64, 60
1, 24830, Control_c, 0, 67, 103
1, 24836, Poly_aftertouch_c, 0, 69, 28
1, 24837, Poly_aftertouch_c, 0, 77, 28
1, 24838, Note_on_c, 0, 77, 93
1, 24840, Note_on_c, 0, 69, 72
1, 24851, Poly_aftertouch_c, 0, 65, 28
1, 24856, Note_on_c, 0, 65, 69
1, 24867, Control_c, 0, 64, 64
1, 24885, Control_c, 0, 64, 74
1, 24904, Control_c, 0, 64, 99
1, 24905, Control_c, 0, 67, 99
1, 24923, Control_c, 0, 64, 127
1, 24948, Note_off_c, 0, 69, 57
1, 24957, Note_off_c, 0, 65, 58
1, 24977, Poly_aftertouch_c, 0, 47, 28
1, 24986, Note_on_c, 0, 47, 64
1, 24989, Note_on_c, 0, 35, 65
1, 24989, Poly_aftertouch_c, 0, 35, 28
1, 24989, Poly_aftertouch_c, 0, 41, 28
1, 24995, Note_on_c, 0, 41, 60
1, 25019, Note_off_c, 0, 77, 62
1, 25120, Note_off_c, 0, 35, 52
1, 25144, Note_off_c, 0, 47, 50
1, 25154, Poly_aftertouch_c, 0, 81, 28
1, 25159, Note_on_c, 0, 81, 93
1, 25166, Control_c, 0, 64, 94
1, 25173, Poly_aftertouch_c, 0, 75, 28
1, 25177, Note_off_c, 0, 41, 44
1, 25178, Note_on_c, 0, 75, 69
1, 25185, Poly_aftertouch_c, 0, 69, 28
1, 25185, Control_c, 0, 64, 63
1, 25188, Control_c, 0, 67, 95
1, 25189, Note_on_c, 0, 69, 62
1, 25204, Control_c, 0, 64, 38
1, 25222, Control_c, 0, 64, 29
1, 25260, Control_c, 0, 64, 42
1, 25261, Control_c, 0, 67, 90
1, 25278, Control_c, 0, 64, 63
1, 25297, Control_c, 0, 64, 89
1, 25315, Control_c, 0, 64, 127
1, 25323, Poly_aftertouch_c, 0, 48, 28
1, 25328, Note_on_c, 0, 48, 66
1, 25328, Poly_aftertouch_c, 0, 36, 28
1, 25328, Poly_aftertouch_c, 0, 41, 28
1, 25331, Note_on_c, 0, 41, 57
1, 25336, Note_on_c, 0, 36, 53
1, 25366, Note_off_c, 0, 81, 60
1, 25390, Note_off_c, 0, 69, 46
1, 25482, Note_off_c, 0, 75, 38
1, 25489, Note_off_c, 0, 48, 56
1, 25555, Note_off_c, 0, 41, 36
1, 25576, Poly_aftertouch_c, 0, 79, 28
1, 25578, Note_on_c, 0, 79, 81
1, 25597, Poly_aftertouch_c, 0, 67, 28
1, 25598, Poly_aftertouch_c, 0, 75, 28
1, 25601, Note_on_c, 0, 67, 64
1, 25606, Note_on_c, 0, 75, 64
1, 25652, Control_c, 0, 64, 83
1, 25672, Control_c, 0, 64, 51
1, 25690, Control_c, 0, 64, 20
1, 25747, Control_c, 0, 64, 12
1, 25758, Poly_aftertouch_c, 0, 41, 28
1, 25763, Note_off_c, 0, 36, 39
1, 25763, Control_c, 0, 64, 28
1, 25764, Note_on_c, 0, 41, 58
1, 25766, Note_off_c, 0, 75, 47
1, 25770, Poly_aftertouch_c, 0, 45, 28
1, 25775, Note_on_c, 0, 45, 59
1, 25777, Note_off_c, 0, 67, 50
1, 25782, Control_c, 0, 64, 51
1, 25790, Poly_aftertouch_c, 0, 33, 28
1, 25793, Note_on_c, 0, 33, 53
1, 25801, Control_c, 0, 64, 76
1, 25822, Control_c, 0, 64, 111
1, 25839, Control_c, 0, 64, 127
1, 25902, Note_off_c, 0, 41, 60
1, 25918, Poly_aftertouch_c, 0, 77, 28
1, 25921, Note_off_c, 0, 45, 60
1, 25923, Note_on_c, 0, 77, 80
1, 25924, Poly_aftertouch_c, 0, 75, 28
1, 25926, Note_off_c, 0, 33, 59
1, 25931, Note_on_c, 0, 75, 67
1, 25932, Poly_aftertouch_c, 0, 65, 28
1, 25939, Note_on_c, 0, 65, 70
1, 25943, Note_off_c, 0, 79, 51
1, 25996, Note_off_c, 0, 65, 55
1, 26057, Poly_aftertouch_c, 0, 30, 28
1, 26064, Note_on_c, 0, 30, 67
1, 26074, Note_off_c, 0, 75, 61
1, 26088, Note_on_c, 0, 44, 29
1, 26096, Note_off_c, 0, 77, 61
1, 26104, Poly_aftertouch_c, 0, 44, 28
1, 26129, Poly_aftertouch_c, 0, 43, 28
1, 26170, Note_off_c, 0, 44, 38
1, 26180, Poly_aftertouch_c, 0, 43, 127
1, 26203, Poly_aftertouch_c, 0, 43, 0
1, 26239, Poly_aftertouch_c, 0, 84, 28
1, 26243, Note_on_c, 0, 84, 82
1, 26245, Poly_aftertouch_c, 0, 81, 28
1, 26250, Note_on_c, 0, 81, 74
1, 26257, Poly_aftertouch_c, 0, 75, 28
1, 26262, Poly_aftertouch_c, 0, 72, 28
1, 26266, Note_on_c, 0, 72, 55
1, 26267, Note_on_c, 0, 75, 56
1, 26270, Control_c, 0, 64, 105
1, 26290, Control_c, 0, 64, 68
1, 26291, Note_off_c, 0, 30, 52
1, 26307, Control_c, 0, 64, 38
1, 26327, Control_c, 0, 64, 24
1, 26364, Control_c, 0, 64, 33
1, 26378, Note_off_c, 0, 84, 63
1, 26378, Note_off_c, 0, 81, 60
1, 26383, Control_c, 0, 64, 54
1, 26397, Note_off_c, 0, 72, 61
1, 26402, Control_c, 0, 64, 81
1, 26416, Note_off_c, 0, 75, 60
1, 26420, Control_c, 0, 64, 127
1, 26432, Poly_aftertouch_c, 0, 43, 28
1, 26437, Note_on_c, 0, 43, 57
1, 26445, Poly_aftertouch_c, 0, 31, 28
1, 26453, Note_on_c, 0, 31, 49
1, 26645, Control_c, 0, 64, 93
1, 26647, Poly_aftertouch_c, 0, 82, 28
1, 26653, Note_on_c, 0, 82, 71
1, 26655, Note_off_c, 0, 43, 46
1, 26660, Note_off_c, 0, 31, 36
1, 26664, Control_c, 0, 64, 62
1, 26673, Poly_aftertouch_c, 0, 74, 28
1, 26679, Poly_aftertouch_c, 0, 79, 28
1, 26683, Note_on_c, 0, 74, 53
1, 26683, Control_c, 0, 64, 36
1, 26685, Note_on_c, 0, 79, 59
1, 26685, Poly_aftertouch_c, 0, 70, 28
1, 26697, Note_on_c, 0, 70, 44
1, 26700, Control_c, 0, 64, 29
1, 26739, Control_c, 0, 64, 43
1, 26758, Control_c, 0, 64, 66
1, 26777, Control_c, 0, 64, 93
1, 26796, Control_c, 0, 64, 127
1, 26828, Note_off_c, 0, 82, 64
1, 26845, Note_off_c, 0, 74, 58
1, 26849, Note_off_c, 0, 70, 61
1, 26886, Note_off_c, 0, 79, 56
1, 26897, Poly_aftertouch_c, 0, 46, 28
1, 26908, Note_on_c, 0, 46, 47
1, 26912, Poly_aftertouch_c, 0, 34, 28
1, 26917, Note_on_c, 0, 34, 48
1, 26940, Poly_aftertouch_c, 0, 78, 28
1, 26942, Poly_aftertouch_c, 0, 78, 0
1, 27041, Note_off_c, 0, 46, 58
1, 27085, Note_off_c, 0, 34, 59
1, 27150, Control_c, 0, 67, 94
1, 27172, Poly_aftertouch_c, 0, 79, 28
1, 27179, Note_on_c, 0, 79, 53
1, 27186, Poly_aftertouch_c, 0, 67, 28
1, 27194, Note_on_c, 0, 67, 40
1, 27194, Poly_aftertouch_c, 0, 73, 28
1, 27200, Note_on_c, 0, 73, 52
1, 27282, Control_c, 0, 67, 98
1, 27376, Control_c, 0, 67, 104
1, 27393, Control_c, 0, 67, 109
1, 27413, Control_c, 0, 67, 115
1, 27431, Control_c, 0, 67, 120
1, 27451, Note_off_c, 0, 73, 48
1, 27468, Control_c, 0, 67, 126
1, 27516, Poly_aftertouch_c, 0, 36, 28
1, 27524, Note_on_c, 0, 36, 54
1, 27530, Poly_aftertouch_c, 0, 24, 28
1, 27536, Note_on_c, 0, 24, 48
1, 27562, Control_c, 0, 64, 92
1, 27571, Note_off_c, 0, 79, 33
1, 27581, Control_c, 0, 64, 64
1, 27599, Control_c, 0, 64, 38
1, 27619, Control_c, 0, 64, 13
1, 27635, Note_off_c, 0, 67, 38
1, 27730, Control_c, 0, 64, 17
1, 27750, Control_c, 0, 64, 27
1, 27767, Control_c, 0, 64, 42
1, 27787, Control_c, 0, 64, 63
1, 27792, Note_off_c, 0, 24, 55
1, 27806, Control_c, 0, 64, 80
1, 27825, Control_c, 0, 64, 102
1, 27843, Control_c, 0, 64, 127
1, 27871, Note_off_c, 0, 36, 55
1, 27921, Poly_aftertouch_c, 0, 72, 28
1, 27927, Note_on_c, 0, 72, 57
1, 28083, Note_off_c, 0, 72, 53
1, 28106, Poly_aftertouch_c, 0, 65, 28
1, 28113, Note_on_c, 0, 77, 66
1, 28114, Note_on_c, 0, 65, 61
1, 28115, Poly_aftertouch_c, 0, 77, 28
1, 28157, Note_off_c, 0, 65, 60
1, 28233, Note_off_c, 0, 77, 53
1, 28310, Control_c, 0, 67, 122
1, 28332, Poly_aftertouch_c, 0, 81, 28
1, 28337, Note_on_c, 0, 81, 70
1, 28347, Note_on_c, 0, 69, 63
1, 28347, Poly_aftertouch_c, 0, 69, 28
1, 28390, Note_off_c, 0, 69, 60
1, 28686, Control_c, 0, 64, 109
1, 28697, Poly_aftertouch_c, 0, 80, 28
1, 28701, Note_off_c, 0, 81, 62
1, 28703, Control_c, 0, 64, 76
1, 28706, Note_on_c, 0, 80, 69
1, 28712, Poly_aftertouch_c, 0, 68, 28
1, 28720, Note_on_c, 0, 68, 52
1, 28720, Control_c, 0, 64, 51
1, 28732, Poly_aftertouch_c, 0, 65, 28
1, 28735, Note_on_c, 0, 65, 51
1, 28741, Poly_aftertouch_c, 0, 53, 28
1, 28741, Control_c, 0, 64, 33
1, 28746, Note_on_c, 0, 53, 45
1, 28798, Control_c, 0, 64, 40
1, 28818, Control_c, 0, 64, 57
1, 28823, Note_off_c, 0, 65, 60
1, 28835, Control_c, 0, 64, 75
1, 28837, Note_off_c, 0, 53, 57
1, 28854, Control_c, 0, 64, 97
1, 28874, Control_c, 0, 64, 127
1, 28996, Poly_aftertouch_c, 0, 50, 28
1, 29002, Note_on_c, 0, 50, 59
1, 29046, Note_off_c, 0, 50, 54
1, 29047, Poly_aftertouch_c, 0, 62, 28
1, 29098, Poly_aftertouch_c, 0, 62, 127
1, 29120, Poly_aftertouch_c, 0, 62, 0
1, 29200, Note_on_c, 0, 47, 53
1, 29200, Poly_aftertouch_c, 0, 47, 28
1, 29239, Note_off_c, 0, 47, 55
1, 29296, Note_off_c, 0, 68, 41
1, 29300, Poly_aftertouch_c, 0, 59, 28
1, 29302, Poly_aftertouch_c, 0, 59, 0
1, 29354, Poly_aftertouch_c, 0, 44, 28
1, 29358, Note_on_c, 0, 44, 67
1, 29370, Poly_aftertouch_c, 0, 79, 28
1, 29376, Note_on_c, 0, 79, 60
1, 29376, Poly_aftertouch_c, 0, 67, 28
1, 29384, Note_on_c, 0, 67, 52
1, 29391, Note_on_c, 0, 56, 28
1, 29391, Poly_aftertouch_c, 0, 56, 28
1, 29405, Note_off_c, 0, 44, 62
1, 29447, Note_off_c, 0, 56, 45
1, 29449, Note_off_c, 0, 80, 30
1, 29518, Poly_aftertouch_c, 0, 41, 28
1, 29523, Note_on_c, 0, 41, 70
1, 29561, Note_off_c, 0, 41, 64
1, 29575, Note_off_c, 0, 79, 54
1, 29654, Poly_aftertouch_c, 0, 53, 28
1, 29654, Poly_aftertouch_c, 0, 53, 0
1, 29661, Note_off_c, 0, 67, 35
1, 29686, Poly_aftertouch_c, 0, 38, 28
1, 29691, Note_on_c, 0, 38, 67
1, 29724, Note_off_c, 0, 38, 61
1, 29835, Poly_aftertouch_c, 0, 35, 28
1, 29839, Note_on_c, 0, 35, 70
1, 29844, Poly_aftertouch_c, 0, 77, 28
1, 29847, Note_on_c, 0, 77, 69
1, 29850, Poly_aftertouch_c, 0, 65, 28
1, 29853, Note_on_c, 0, 65, 65
1, 29855, Note_on_c, 0, 47, 48
1, 29856, Poly_aftertouch_c, 0, 47, 28
1, 29872, Note_off_c, 0, 35, 59
1, 29897, Note_off_c, 0, 47, 53
1, 29974, Poly_aftertouch_c, 0, 32, 28
1, 29975, Note_on_c, 0, 32, 77
1, 30010, Poly_aftertouch_c, 0, 44, 28
1, 30016, Note_on_c, 0, 44, 29
1, 30023, Note_off_c, 0, 32, 62
1, 30067, Note_off_c, 0, 44, 42
1, 30069, Control_c, 0, 67, 118
1, 30153, Note_off_c, 0, 77, 46
1, 30182, Control_c, 0, 67, 113
1, 30217, Poly_aftertouch_c, 0, 24, 28
1, 30218, Poly_aftertouch_c, 0, 36, 28
1, 30221, Note_on_c, 0, 24, 75
1, 30221, Control_c, 0, 64, 105
1, 30226, Note_on_c, 0, 36, 70
1, 30239, Control_c, 0, 64, 71
1, 30241, Control_c, 0, 67, 109
1, 30258, Control_c, 0, 64, 35
1, 30277, Control_c, 0, 64, 0
1, 30278, Control_c, 0, 67, 103
1, 30296, Control_c, 0, 67, 98
1, 30313, Control_c, 0, 67, 91
1, 30333, Control_c, 0, 67, 83
1, 30351, Control_c, 0, 67, 73
1, 30370, Control_c, 0, 67, 63
1, 30377, Note_off_c, 0, 65, 54
1, 30380, Note_off_c, 0, 24, 60
1, 30388, Control_c, 0, 67, 52
1, 30407, Control_c, 0, 64, 18
1, 30409, Control_c, 0, 67, 43
1, 30425, Poly_aftertouch_c, 0, 72, 28
1, 30427, Control_c, 0, 64, 34
1, 30428, Note_on_c, 0, 72, 68
1, 30428, Control_c, 0, 67, 34
1, 30439, Note_off_c, 0, 36, 60
1, 30444, Control_c, 0, 64, 57
1, 30445, Control_c, 0, 67, 26
1, 30465, Control_c, 0, 64, 76
1, 30467, Control_c, 0, 67, 19
1, 30482, Control_c, 0, 64, 93
1, 30486, Control_c, 0, 67, 11
1, 30501, Control_c, 0, 64, 127
1, 30519, Control_c, 0, 67, 0
1, 30520, Note_off_c, 0, 72, 58
1, 30575, Poly_aftertouch_c, 0, 76, 28
1, 30579, Note_on_c, 0, 76, 75
1, 30580, Poly_aftertouch_c, 0, 64, 28
1, 30583, Note_on_c, 0, 64, 68
1, 30620, Note_off_c, 0, 64, 61
1, 30696, Note_off_c, 0, 76, 58
1, 30764, Poly_aftertouch_c, 0, 79, 28
1, 30768, Note_on_c, 0, 79, 81
1, 30777, Poly_aftertouch_c, 0, 67, 28
1, 30780, Note_on_c, 0, 67, 66
1, 30818, Note_off_c, 0, 67, 64
1, 30840, Note_off_c, 0, 79, 60
1, 31081, Control_c, 0, 64, 90
1, 31092, Poly_aftertouch_c, 0, 82, 28
1, 31098, Note_on_c, 0, 82, 80
1, 31102, Poly_aftertouch_c, 0, 70, 28
1, 31102, Control_c, 0, 64, 60
1, 31110, Note_on_c, 0, 70, 70
1, 31117, Poly_aftertouch_c, 0, 55, 28
1, 31120, Control_c, 0, 64, 32
1, 31122, Note_on_c, 0, 55, 58
1, 31124, Poly_aftertouch_c, 0, 67, 28
1, 31128, Note_on_c, 0, 67, 54
1, 31137, Control_c, 0, 64, 12
1, 31182, Note_off_c, 0, 67, 58
1, 31193, Control_c, 0, 64, 19
1, 31204, Note_off_c, 0, 55, 62
1, 31213, Control_c, 0, 64, 33
1, 31231, Control_c, 0, 64, 55
1, 31249, Control_c, 0, 64, 73
1, 31269, Control_c, 0, 64, 88
1, 31287, Control_c, 0, 64, 110
1, 31306, Control_c, 0, 64, 127
1, 31330, Poly_aftertouch_c, 0, 52, 28
1, 31334, Note_on_c, 0, 52, 64
1, 31353, Note_on_c, 0, 64, 40
1, 31353, Poly_aftertouch_c, 0, 64, 28
1, 31366, Note_off_c, 0, 52, 60
1, 31396, Note_off_c, 0, 64, 47
1, 31497, Note_on_c, 0, 49, 70
1, 31497, Poly_aftertouch_c, 0, 49, 28
1, 31503, Poly_aftertouch_c, 0, 61, 28
1, 31505, Note_on_c, 0, 61, 58
1, 31535, Note_off_c, 0, 61, 60
1, 31540, Note_off_c, 0, 49, 63
1, 31608, Note_off_c, 0, 70, 36
1, 31642, Poly_aftertouch_c, 0, 46, 28
1, 31647, Note_on_c, 0, 46, 78
1, 31651, Poly_aftertouch_c, 0, 81, 28
1, 31653, Note_on_c, 0, 81, 73
1, 31657, Poly_aftertouch_c, 0, 58, 28
1, 31658, Note_on_c, 0, 58, 62
1, 31659, Poly_aftertouch_c, 0, 69, 28
1, 31662, Note_on_c, 0, 69, 70
1, 31671, Note_off_c, 0, 82, 39
1, 31691, Note_off_c, 0, 46, 58
1, 31700, Note_off_c, 0, 58, 66
1, 31800, Note_on_c, 0, 43, 71
1, 31802, Poly_aftertouch_c, 0, 43, 28
1, 31806, Poly_aftertouch_c, 0, 55, 28
1, 31811, Note_on_c, 0, 55, 59
1, 31838, Note_off_c, 0, 43, 64
1, 31843, Note_off_c, 0, 55, 59
1, 31860, Note_off_c, 0, 81, 47
1, 31916, Note_off_c, 0, 69, 48
1, 31961, Note_on_c, 0, 40, 72
1, 31962, Poly_aftertouch_c, 0, 40, 28
1, 31970, Note_on_c, 0, 52, 62
1, 31973, Poly_aftertouch_c, 0, 52, 28
1, 31990, Note_off_c, 0, 40, 60
1, 31998, Note_off_c, 0, 52, 60
1, 32101, Poly_aftertouch_c, 0, 37, 28
1, 32104, Poly_aftertouch_c, 0, 79, 28
1, 32108, Note_on_c, 0, 37, 75
1, 32110, Note_on_c, 0, 79, 70
1, 32112, Poly_aftertouch_c, 0, 67, 28
1, 32116, Note_on_c, 0, 67, 66
1, 32118, Note_on_c, 0, 49, 60
1, 32118, Poly_aftertouch_c, 0, 49, 28
1, 32147, Note_off_c, 0, 49, 58
1, 32151, Note_off_c, 0, 37, 65
1, 32251, Poly_aftertouch_c, 0, 34, 28
1, 32252, Note_on_c, 0, 34, 79
1, 32287, Poly_aftertouch_c, 0, 46, 28
1, 32296, Note_off_c, 0, 34, 66
1, 32301, Note_on_c, 0, 46, 16
1, 32357, Note_off_c, 0, 46, 43
1, 32446, Note_off_c, 0, 79, 54
1, 32447, Poly_aftertouch_c, 0, 24, 28
1, 32448, Poly_aftertouch_c, 0, 36, 28
1, 32450, Note_on_c, 0, 24, 84
1, 32455, Note_on_c, 0, 36, 80
1, 32466, Control_c, 0, 64, 87
1, 32486, Control_c, 0, 64, 58
1, 32504, Control_c, 0, 64, 28
1, 32521, Control_c, 0, 64, 8
1, 32579, Control_c, 0, 64, 13
1, 32585, Note_off_c, 0, 67, 57
1, 32599, Control_c, 0, 64, 24
1, 32605, Note_off_c, 0, 24, 61
1, 32616, Control_c, 0, 64, 40
1, 32628, Poly_aftertouch_c, 0, 72, 28
1, 32631, Note_on_c, 0, 72, 78
1, 32634, Control_c, 0, 64, 61
1, 32652, Note_off_c, 0, 36, 62
1, 32652, Control_c, 0, 64, 75
1, 32672, Control_c, 0, 64, 86
1, 32691, Control_c, 0, 64, 98
1, 32711, Control_c, 0, 64, 111
1, 32728, Control_c, 0, 64, 127
1, 32736, Note_off_c, 0, 72, 60
1, 32781, Poly_aftertouch_c, 0, 65, 28
1, 32781, Poly_aftertouch_c, 0, 77, 28
1, 32784, Note_on_c, 0, 77, 84
1, 32785, Note_on_c, 0, 65, 81
1, 32839, Note_off_c, 0, 65, 56
1, 32896, Note_off_c, 0, 77, 57
1, 32970, Note_on_c, 0, 81, 92
1, 32971, Note_on_c, 0, 69, 87
1, 32972, Poly_aftertouch_c, 0, 69, 28
1, 32973, Poly_aftertouch_c, 0, 81, 28
1, 33031, Note_off_c, 0, 69, 60
1, 33041, Note_off_c, 0, 81, 59
1, 33215, Control_c, 0, 64, 115
1, 33236, Control_c, 0, 64, 78
1, 33244, Poly_aftertouch_c, 0, 83, 28
1, 33250, Note_on_c, 0, 83, 91
1, 33251, Control_c, 0, 64, 48
1, 33254, Poly_aftertouch_c, 0, 71, 28
1, 33258, Note_on_c, 0, 71, 87
1, 33260, Poly_aftertouch_c, 0, 68, 28
1, 33266, Poly_aftertouch_c, 0, 56, 28
1, 33268, Note_on_c, 0, 68, 77
1, 33270, Note_on_c, 0, 56, 70
1, 33270, Control_c, 0, 64, 19
1, 33290, Control_c, 0, 64, 8
1, 33327, Control_c, 0, 64, 15
1, 33345, Note_off_c, 0, 68, 58
1, 33345, Control_c, 0, 64, 29
1, 33355, Note_off_c, 0, 56, 61
1, 33363, Control_c, 0, 64, 54
1, 33383, Control_c, 0, 64, 76
1, 33402, Control_c, 0, 64, 98
1, 33420, Control_c, 0, 64, 127
1, 33458, Poly_aftertouch_c, 0, 53, 28
1, 33463, Note_on_c, 0, 53, 80
1, 33480, Poly_aftertouch_c, 0, 65, 28
1, 33481, Note_off_c, 0, 71, 52
1, 33485, Note_on_c, 0, 65, 54
1, 33500, Note_off_c, 0, 53, 59
1, 33514, Note_off_c, 0, 65, 57
1, 33619, Poly_aftertouch_c, 0, 50, 28
1, 33623, Note_on_c, 0, 50, 83
1, 33646, Note_on_c, 0, 62, 49
1, 33648, Poly_aftertouch_c, 0, 62, 28
1, 33663, Note_off_c, 0, 50, 65
1, 33676, Note_off_c, 0, 62, 56
1, 33771, Poly_aftertouch_c, 0, 47, 28
1, 33774, Note_off_c, 0, 83, 60
1, 33774, Poly_aftertouch_c, 0, 86, 28
1, 33776, Note_on_c, 0, 47, 82
1, 33778, Note_on_c, 0, 59, 74
1, 33778, Note_on_c, 0, 86, 88
1, 33781, Poly_aftertouch_c, 0, 59, 28
1, 33782, Note_on_c, 0, 74, 86
1, 33783, Poly_aftertouch_c, 0, 74, 28
1, 33810, Note_off_c, 0, 47, 63
1, 33811, Note_off_c, 0, 59, 68
1, 33914, Poly_aftertouch_c, 0, 44, 28
1, 33915, Note_on_c, 0, 44, 85
1, 33920, Poly_aftertouch_c, 0, 56, 28
1, 33924, Note_on_c, 0, 56, 80
1, 33953, Note_off_c, 0, 74, 44
1, 33961, Note_off_c, 0, 56, 63
1, 33983, Note_off_c, 0, 44, 56
1, 34065, Poly_aftertouch_c, 0, 41, 28
1, 34067, Note_on_c, 0, 41, 88
1, 34071, Poly_aftertouch_c, 0, 53, 28
1, 34075, Note_on_c, 0, 53, 80
1, 34107, Note_off_c, 0, 53, 67
1, 34118, Note_off_c, 0, 41, 60
1, 34202, Poly_aftertouch_c, 0, 89, 28
1, 34204, Poly_aftertouch_c, 0, 38, 28
1, 34207, Note_on_c, 0, 89, 93
1, 34209, Note_off_c, 0, 86, 62
1, 34212, Note_on_c, 0, 38, 89
1, 34213, Note_on_c, 0, 77, 89
1, 34214, Note_on_c, 0, 50, 84
1, 34216, Poly_aftertouch_c, 0, 50, 28
1, 34217, Poly_aftertouch_c, 0, 77, 28
1, 34247, Note_off_c, 0, 50, 65
1, 34255, Note_off_c, 0, 38, 62
1, 34267, Note_off_c, 0, 89, 64
1, 34286, Note_off_c, 0, 77, 59
1, 34353, Poly_aftertouch_c, 0, 35, 28
1, 34354, Note_on_c, 0, 35, 82
1, 34370, Note_on_c, 0, 47, 56
1, 34370, Poly_aftertouch_c, 0, 47, 28
1, 34373, Note_on_c, 0, 36, 57
1, 34375, Poly_aftertouch_c, 0, 36, 28
1, 34397, Note_off_c, 0, 35, 60
1, 34407, Note_off_c, 0, 47, 55
1, 34411, Note_off_c, 0, 36, 54
1, 34490, Poly_aftertouch_c, 0, 48, 28
1, 34491, Poly_aftertouch_c, 0, 48, 0
1, 34550, Poly_aftertouch_c, 0, 36, 28
1, 34554, Poly_aftertouch_c, 0, 24, 28
1, 34556, Note_on_c, 0, 36, 83
1, 34557, Note_on_c, 0, 24, 97
1, 34582, Control_c, 0, 64, 99
1, 34601, Control_c, 0, 64, 65
1, 34620, Control_c, 0, 64, 32
1, 34694, Control_c, 0, 64, 11
1, 34713, Control_c, 0, 64, 24
1, 34721, Note_off_c, 0, 24, 62
1, 34723, Poly_aftertouch_c, 0, 72, 28
1, 34725, Note_on_c, 0, 72, 85
1, 34730, Control_c, 0, 64, 44
1, 34750, Control_c, 0, 64, 66
1, 34765, Note_off_c, 0, 36, 61
1, 34768, Control_c, 0, 64, 83
1, 34787, Control_c, 0, 64, 109
1, 34806, Control_c, 0, 64, 127
1, 34823, Note_off_c, 0, 72, 60
1, 34872, Poly_aftertouch_c, 0, 67, 28
1, 34873, Poly_aftertouch_c, 0, 79, 28
1, 34875, Note_on_c, 0, 79, 88
1, 34875, Note_on_c, 0, 67, 81
1, 34910, Note_off_c, 0, 67, 62
1, 34945, Note_off_c, 0, 79, 62
1, 35037, Poly_aftertouch_c, 0, 70, 28
1, 35037, Poly_aftertouch_c, 0, 82, 28
1, 35041, Note_on_c, 0, 82, 95
1, 35045, Note_on_c, 0, 70, 87
1, 35118, Note_off_c, 0, 70, 58
1, 35218, Control_c, 0, 64, 100
1, 35237, Control_c, 0, 64, 66
1, 35255, Note_off_c, 0, 82, 65
1, 35255, Control_c, 0, 64, 35
1, 35267, Poly_aftertouch_c, 0, 85, 28
1, 35272, Poly_aftertouch_c, 0, 73, 28
1, 35273, Control_c, 0, 64, 19
1, 35274, Note_on_c, 0, 85, 100
1, 35275, Note_on_c, 0, 73, 97
1, 35279, Poly_aftertouch_c, 0, 58, 28
1, 35281, Note_on_c, 0, 70, 82
1, 35282, Poly_aftertouch_c, 0, 70, 28
1, 35284, Note_on_c, 0, 58, 78
1, 35311, Control_c, 0, 64, 26
1, 35330, Control_c, 0, 64, 40
1, 35349, Control_c, 0, 64, 65
1, 35354, Note_off_c, 0, 70, 63
1, 35360, Note_off_c, 0, 58, 63
1, 35368, Control_c, 0, 64, 89
1, 35387, Control_c, 0, 64, 127
1, 35448, Poly_aftertouch_c, 0, 67, 28
1, 35453, Poly_aftertouch_c, 0, 55, 28
1, 35454, Note_on_c, 0, 55, 85
1, 35454, Note_on_c, 0, 67, 80
1, 35486, Note_off_c, 0, 67, 63
1, 35493, Note_off_c, 0, 73, 55
1, 35497, Note_off_c, 0, 55, 62
1, 35603, Poly_aftertouch_c, 0, 52, 28
1, 35603, Poly_aftertouch_c, 0, 64, 28
1, 35604, Note_on_c, 0, 52, 88
1, 35605, Note_on_c, 0, 64, 84
1, 35634, Note_off_c, 0, 64, 66
1, 35641, Note_off_c, 0, 52, 56
1, 35738, Poly_aftertouch_c, 0, 49, 28
1, 35739, Poly_aftertouch_c, 0, 61, 28
1, 35742, Poly_aftertouch_c, 0, 88, 28
1, 35744, Note_on_c, 0, 49, 91
1, 35745, Note_on_c, 0, 61, 93
1, 35747, Note_on_c, 0, 88, 100
1, 35751, Note_on_c, 0, 76, 101
1, 35752, Poly_aftertouch_c, 0, 76, 28
1, 35777, Note_off_c, 0, 85, 67
1, 35799, Note_off_c, 0, 61, 57
1, 35807, Note_off_c, 0, 49, 60
1, 35895, Poly_aftertouch_c, 0, 46, 28
1, 35900, Note_on_c, 0, 46, 93
1, 35901, Poly_aftertouch_c, 0, 58, 28
1, 35903, Note_on_c, 0, 58, 92
1, 35934, Note_off_c, 0, 76, 55
1, 35962, Note_off_c, 0, 58, 64
1, 35980, Note_off_c, 0, 46, 62
1, 36084, Poly_aftertouch_c, 0, 43, 28
1, 36084, Poly_aftertouch_c, 0, 55, 28
1, 36089, Note_on_c, 0, 55, 96
1, 36098, Note_on_c, 0, 43, 61
1, 36141, Note_off_c, 0, 55, 63
1, 36153, Note_off_c, 0, 43, 58
1, 36287, Note_off_c, 0, 88, 66
1, 36291, Poly_aftertouch_c, 0, 52, 28
1, 36293, Note_on_c, 0, 52, 97
1, 36294, Poly_aftertouch_c, 0, 91, 28
1, 36296, Note_on_c, 0, 40, 91
1, 36297, Note_on_c, 0, 91, 105
1, 36299, Poly_aftertouch_c, 0, 40, 28
1, 36300, Note_on_c, 0, 79, 103
1, 36304, Poly_aftertouch_c, 0, 79, 28
1, 36337, Note_off_c, 0, 52, 63
1, 36340, Note_off_c, 0, 40, 64
1, 36415, Note_off_c, 0, 79, 61
1, 36464, Note_off_c, 0, 91, 60
1, 36517, Poly_aftertouch_c, 0, 49, 28
1, 36522, Note_on_c, 0, 49, 96
1, 36522, Note_on_c, 0, 37, 95
1, 36524, Poly_aftertouch_c, 0, 37, 28
1, 36557, Note_off_c, 0, 49, 61
1, 36578, Note_off_c, 0, 37, 59
1, 36829, Control_c, 0, 64, 70
1, 36847, Control_c, 0, 64, 26
1, 36865, Control_c, 0, 64, 0
1, 36889, Poly_aftertouch_c, 0, 88, 28
1, 36894, Poly_aftertouch_c, 0, 82, 28
1, 36895, Poly_aftertouch_c, 0, 94, 28
1, 36896, Note_on_c, 0, 88, 98
1, 36898, Note_on_c, 0, 82, 102
1, 36899, Note_on_c, 0, 94, 100
1, 36902, Note_on_c, 0, 36, 108
1, 36903, Poly_aftertouch_c, 0, 24, 28
1, 36904, Poly_aftertouch_c, 0, 36, 28
1, 36908, Note_on_c, 0, 24, 100
1, 36937, Note_off_c, 0, 24, 70
1, 36939, Control_c, 0, 64, 13
1, 36946, Note_off_c, 0, 36, 65
1, 36958, Control_c, 0, 64, 45
1, 36963, Note_off_c, 0, 94, 66
1, 36979, Control_c, 0, 64, 88
1, 36981, Note_off_c, 0, 88, 68
1, 36996, Control_c, 0, 64, 127
1, 37017, Note_off_c, 0, 82, 66
1, 37052, Poly_aftertouch_c, 0, 25, 28
1, 37053, Poly_aftertouch_c, 0, 25, 0
1, 37109, Control_c, 0, 64, 106
1, 37127, Control_c, 0, 64, 79
1, 37134, Poly_aftertouch_c, 0, 24, 28
1, 37136, Poly_aftertouch_c, 0, 24, 0
1, 37145, Control_c, 0, 64, 59
1, 37165, Control_c, 0, 64, 41
1, 37184, Control_c, 0, 64, 27
1, 37202, Control_c, 0, 64, 17
1, 37220, Control_c, 0, 64, 11
1, 37258, Control_c, 0, 64, 0
1, 37390, Poly_aftertouch_c, 0, 76, 28
1, 37392, Note_on_c, 0, 76, 93
1, 37398, Note_on_c, 0, 64, 95
1, 37399, Note_on_c, 0, 48, 89
1, 37400, Note_on_c, 0, 70, 96
1, 37401, Note_on_c, 0, 55, 87
1, 37401, Note_on_c, 0, 60, 91
1, 37402, Note_off_c, 0, 60, 127
1, 37403, Poly_aftertouch_c, 0, 48, 28
1, 37404, Poly_aftertouch_c, 0, 55, 28
1, 37405, Poly_aftertouch_c, 0, 60, 28
1, 37405, Poly_aftertouch_c, 0, 64, 28
1, 37408, Poly_aftertouch_c, 0, 70, 28
1, 37430, Control_c, 0, 64, 20
1, 37437, Poly_aftertouch_c, 0, 60, 0
1, 37440, Note_off_c, 0, 48, 67
1, 37445, Note_off_c, 0, 64, 65
1, 37445, Control_c, 0, 64, 50
1, 37456, Note_off_c, 0, 55, 64
1, 37464, Control_c, 0, 64, 83
1, 37472, Note_off_c, 0, 70, 68
1, 37477, Note_off_c, 0, 76, 67
1, 37482, Control_c, 0, 64, 127
1, 37727, Control_c, 0, 64, 107
1, 37744, Control_c, 0, 64, 74
1, 37764, Control_c, 0, 64, 49
1, 37783, Control_c, 0, 64, 25
1, 37819, Control_c, 0, 64, 0
1, 37925, Poly_aftertouch_c, 0, 81, 28
1, 37932, Note_on_c, 0, 81, 101
1, 37932, Note_on_c, 0, 77, 103
1, 37934, Poly_aftertouch_c, 0, 77, 28
1, 37935, Poly_aftertouch_c, 0, 89, 28
1, 37937, Note_on_c, 0, 89, 101
1, 37939, Note_on_c, 0, 41, 101
1, 37941, Note_on_c, 0, 29, 98
1, 37945, Poly_aftertouch_c, 0, 29, 28
1, 37946, Poly_aftertouch_c, 0, 41, 28
1, 37970, Control_c, 0, 64, 30
1, 37972, Note_off_c, 0, 29, 70
1, 37976, Note_off_c, 0, 41, 66
1, 37985, Note_off_c, 0, 89, 66
1, 37987, Control_c, 0, 64, 84
1, 38007, Control_c, 0, 64, 127
1, 38014, Note_off_c, 0, 77, 65
1, 38027, Note_off_c, 0, 81, 67
1, 38382, Control_c, 0, 64, 117
1, 38400, Control_c, 0, 64, 83
1, 38419, Control_c, 0, 64, 60
1, 38438, Control_c, 0, 64, 38
1, 38456, Control_c, 0, 64, 16
1, 38493, Control_c, 0, 64, 0
1, 38705, Poly_aftertouch_c, 0, 70, 28
1, 38709, Note_on_c, 0, 70, 96
1, 38712, Note_on_c, 0, 74, 99
1, 38713, Note_on_c, 0, 52, 96
1, 38715, Note_on_c, 0, 64, 101
1, 38717, Note_on_c, 0, 62, 96
1, 38717, Note_on_c, 0, 55, 103
1, 38718, Note_off_c, 0, 55, 127
1, 38719, Note_on_c, 0, 43, 99
1, 38720, Note_off_c, 0, 43, 127
1, 38722, Poly_aftertouch_c, 0, 43, 28
1, 38722, Poly_aftertouch_c, 0, 52, 28
1, 38723, Poly_aftertouch_c, 0, 55, 28
1, 38724, Poly_aftertouch_c, 0, 62, 28
1, 38724, Poly_aftertouch_c, 0, 64, 28
1, 38728, Poly_aftertouch_c, 0, 74, 28
1, 38765, Note_on_c, 0, 73, 35
1, 38766, Note_off_c, 0, 73, 127
1, 38773, Poly_aftertouch_c, 0, 43, 127
1, 38778, Poly_aftertouch_c, 0, 55, 127
1, 38981, Control_c, 0, 64, 14
1, 38999, Control_c, 0, 64, 21
1, 39017, Control_c, 0, 64, 26
1, 39037, Control_c, 0, 64, 33
1, 39055, Control_c, 0, 64, 42
1, 39074, Control_c, 0, 64, 53
1, 39092, Control_c, 0, 64, 62
1, 39112, Control_c, 0, 64, 67
1, 39129, Poly_aftertouch_c, 0, 43, 0
1, 39131, Control_c, 0, 64, 71
1, 39148, Control_c, 0, 64, 75
1, 39168, Control_c, 0, 64, 79
1, 39186, Control_c, 0, 64, 87
1, 39191, Poly_aftertouch_c, 0, 55, 0
1, 39204, Control_c, 0, 64, 98
1, 39224, Control_c, 0, 64, 127
1, 39233, Note_off_c, 0, 52, 55
1, 39660, Note_off_c, 0, 74, 53
1, 39684, Note_off_c, 0, 70, 60
1, 39804, Note_off_c, 0, 64, 48
1, 39833, Note_off_c, 0, 62, 60
1, 40181, Poly_aftertouch_c, 0, 57, 28
1, 40188, Note_on_c, 0, 57, 73
1, 40194, Poly_aftertouch_c, 0, 33, 28
1, 40198, Note_on_c, 0, 33, 77
1, 40256, Poly_aftertouch_c, 0, 61, 28
1, 40261, Note_on_c, 0, 61, 71
1, 40290, Control_c, 0, 64, 81
1, 40291, Poly_aftertouch_c, 0, 64, 28
1, 40292, Note_on_c, 0, 64, 81
1, 40306, Note_off_c, 0, 57, 63
1, 40310, Control_c, 0, 64, 40
1, 40311, Poly_aftertouch_c, 0, 37, 28
1, 40312, Poly_aftertouch_c, 0, 40, 28
1, 40313, Poly_aftertouch_c, 0, 45, 28
1, 40315, Note_on_c, 0, 37, 86
1, 40315, Note_on_c, 0, 40, 86
1, 40318, Note_on_c, 0, 45, 102
1, 40323, Poly_aftertouch_c, 0, 69, 28
1, 40325, Note_on_c, 0, 69, 98
1, 40329, Control_c, 0, 64, 0
1, 40368, Note_off_c, 0, 61, 63
1, 40382, Note_off_c, 0, 64, 64
1, 40393, Note_off_c, 0, 33, 61
1, 40403, Control_c, 0, 64, 30
1, 40418, Note_off_c, 0, 69, 61
1, 40421, Control_c, 0, 64, 63
1, 40430, Note_off_c, 0, 45, 57
1, 40440, Control_c, 0, 64, 96
1, 40453, Note_off_c, 0, 40, 60
1, 40457, Note_off_c, 0, 37, 62
1, 40458, Control_c, 0, 64, 127
1, 40760, Poly_aftertouch_c, 0, 69, 28
1, 40763, Note_on_c, 0, 69, 92
1, 40854, Note_off_c, 0, 69, 55
1, 41002, Control_c, 0, 64, 94
1, 41005, Poly_aftertouch_c, 0, 67, 28
1, 41006, Poly_aftertouch_c, 0, 69, 28
1, 41009, Note_on_c, 0, 67, 102
1, 41009, Note_on_c, 0, 69, 93
1, 41012, Note_on_c, 0, 55, 97
1, 41014, Poly_aftertouch_c, 0, 55, 28
1, 41019, Control_c, 0, 64, 62
1, 41039, Control_c, 0, 64, 34
1, 41058, Control_c, 0, 64, 25
1, 41091, Note_off_c, 0, 69, 60
1, 41095, Control_c, 0, 64, 40
1, 41114, Control_c, 0, 64, 64
1, 41134, Control_c, 0, 64, 91
1, 41151, Control_c, 0, 64, 127
1, 41237, Poly_aftertouch_c, 0, 70, 28
1, 41237, Poly_aftertouch_c, 0, 82, 28
1, 41239, Note_on_c, 0, 82, 88
1, 41242, Note_on_c, 0, 70, 86
1, 41257, Note_off_c, 0, 55, 59
1, 41262, Note_off_c, 0, 67, 56
1, 41301, Note_off_c, 0, 70, 63
1, 41310, Note_off_c, 0, 82, 63
1, 41427, Poly_aftertouch_c, 0, 82, 28
1, 41432, Note_on_c, 0, 82, 90
1, 41433, Poly_aftertouch_c, 0, 70, 28
1, 41435, Note_on_c, 0, 70, 87
1, 41494, Note_off_c, 0, 70, 64
1, 41509, Note_off_c, 0, 82, 64
1, 41583, Control_c, 0, 64, 95
1, 41596, Poly_aftertouch_c, 0, 64, 28
1, 41597, Poly_aftertouch_c, 0, 73, 28
1, 41598, Poly_aftertouch_c, 0, 82, 28
1, 41601, Control_c, 0, 64, 62
1, 41602, Note_on_c, 0, 73, 92
1, 41603, Note_on_c, 0, 64, 94
1, 41603, Note_on_c, 0, 82, 87
1, 41605, Note_on_c, 0, 70, 90
1, 41606, Note_on_c, 0, 52, 88
1, 41607, Note_off_c, 0, 52, 127
1, 41610, Poly_aftertouch_c, 0, 52, 28
1, 41612, Poly_aftertouch_c, 0, 70, 28
1, 41620, Control_c, 0, 64, 33
1, 41639, Control_c, 0, 64, 23
1, 41660, Note_off_c, 0, 70, 63
1, 41666, Poly_aftertouch_c, 0, 52, 127
1, 41673, Note_off_c, 0, 82, 65
1, 41676, Control_c, 0, 64, 36
1, 41695, Control_c, 0, 64, 58
1, 41714, Control_c, 0, 64, 82
1, 41732, Note_off_c, 0, 73, 61
1, 41732, Control_c, 0, 64, 127
1, 41765, Note_off_c, 0, 64, 55
1, 41776, Poly_aftertouch_c, 0, 79, 28
1, 41778, Note_on_c, 0, 79, 83
1, 41782, Poly_aftertouch_c, 0, 67, 28
1, 41784, Note_on_c, 0, 67, 82
1, 41787, Poly_aftertouch_c, 0, 52, 0
1, 41846, Note_off_c, 0, 79, 63
1, 41846, Note_off_c, 0, 67, 61
1, 41941, Poly_aftertouch_c, 0, 79, 28
1, 41943, Note_on_c, 0, 79, 85
1, 41947, Note_on_c, 0, 67, 81
1, 41948, Poly_aftertouch_c, 0, 67, 28
1, 42006, Note_off_c, 0, 67, 56
1, 42018, Note_off_c, 0, 79, 60
1, 42069, Control_c, 0, 64, 93
1, 42089, Control_c, 0, 64, 62
1, 42098, Poly_aftertouch_c, 0, 70, 28
1, 42099, Poly_aftertouch_c, 0, 79, 28
1, 42101, Note_on_c, 0, 79, 90
1, 42104, Note_on_c, 0, 61, 91
1, 42105, Note_on_c, 0, 70, 91
1, 42105, Control_c, 0, 64, 40
1, 42107, Poly_aftertouch_c, 0, 49, 28
1, 42107, Poly_aftertouch_c, 0, 61, 28
1, 42109, Note_on_c, 0, 49, 87
1, 42111, Poly_aftertouch_c, 0, 67, 28
1, 42113, Note_on_c, 0, 67, 87
1, 42144, Control_c, 0, 64, 47
1, 42159, Note_off_c, 0, 79, 65
1, 42161, Control_c, 0, 64, 63
1, 42180, Note_off_c, 0, 67, 61
1, 42182, Control_c, 0, 64, 86
1, 42200, Control_c, 0, 64, 127
1, 42204, Note_off_c, 0, 70, 65
1, 42207, Note_off_c, 0, 61, 59
1, 42229, Note_off_c, 0, 49, 58
1, 42286, Poly_aftertouch_c, 0, 64, 28
1, 42287, Note_on_c, 0, 76, 85
1, 42289, Poly_aftertouch_c, 0, 76, 28
1, 42290, Note_on_c, 0, 64, 81
1, 42344, Note_off_c, 0, 64, 60
1, 42345, Note_off_c, 0, 76, 63
1, 42444, Poly_aftertouch_c, 0, 64, 28
1, 42445, Note_on_c, 0, 64, 76
1, 42446, Poly_aftertouch_c, 0, 76, 28
1, 42448, Note_on_c, 0, 76, 80
1, 42487, Note_off_c, 0, 64, 57
1, 42503, Note_off_c, 0, 76, 59
1, 42646, Poly_aftertouch_c, 0, 45, 28
1, 42647, Poly_aftertouch_c, 0, 49, 28
1, 42649, Control_c, 0, 64, 102
1, 42652, Note_on_c, 0, 49, 66
1, 42653, Note_on_c, 0, 45, 67
1, 42653, Note_on_c, 0, 77, 81
1, 42654, Note_on_c, 0, 73, 82
1, 42655, Note_on_c, 0, 57, 74
1, 42655, Poly_aftertouch_c, 0, 73, 28
1, 42656, Poly_aftertouch_c, 0, 77, 28
1, 42661, Poly_aftertouch_c, 0, 57, 28
1, 42664, Poly_aftertouch_c, 0, 65, 28
1, 42667, Note_on_c, 0, 65, 72
1, 42669, Control_c, 0, 64, 64
1, 42686, Control_c, 0, 64, 24
1, 42705, Control_c, 0, 64, 0
1, 42719, Note_off_c, 0, 65, 56
1, 42781, Control_c, 0, 64, 24
1, 42799, Control_c, 0, 64, 45
1, 42818, Control_c, 0, 64, 69
1, 42836, Control_c, 0, 64, 89
1, 42839, Note_off_c, 0, 45, 56
1, 42856, Note_on_c, 0, 76, 77
1, 42856, Control_c, 0, 64, 127
1, 42857, Poly_aftertouch_c, 0, 76, 28
1, 42861, Note_off_c, 0, 73, 61
1, 42862, Note_off_c, 0, 77, 52
1, 42867, Poly_aftertouch_c, 0, 64, 28
1, 42869, Note_on_c, 0, 64, 73
1, 42913, Note_off_c, 0, 64, 61
1, 42936, Note_off_c, 0, 57, 58
1, 42944, Note_off_c, 0, 49, 60
1, 42946, Note_off_c, 0, 76, 56
1, 43024, Poly_aftertouch_c, 0, 62, 28
1, 43026, Note_on_c, 0, 62, 72
1, 43027, Note_on_c, 0, 74, 74
1, 43028, Poly_aftertouch_c, 0, 74, 28
1, 43056, Note_off_c, 0, 62, 66
1, 43091, Note_off_c, 0, 74, 59
1, 43136, Control_c, 0, 64, 104
1, 43156, Control_c, 0, 64, 67
1, 43168, Poly_aftertouch_c, 0, 50, 28
1, 43172, Control_c, 0, 64, 31
1, 43179, Note_on_c, 0, 50, 62
1, 43181, Poly_aftertouch_c, 0, 79, 28
1, 43185, Note_on_c, 0, 79, 80
1, 43187, Poly_aftertouch_c, 0, 58, 28
1, 43190, Note_on_c, 0, 58, 71
1, 43191, Note_on_c, 0, 67, 76
1, 43191, Note_on_c, 0, 74, 77
1, 43191, Control_c, 0, 64, 0
1, 43193, Poly_aftertouch_c, 0, 67, 28
1, 43193, Poly_aftertouch_c, 0, 74, 28
1, 43197, Note_on_c, 0, 46, 61
1, 43200, Poly_aftertouch_c, 0, 46, 28
1, 43254, Note_off_c, 0, 67, 54
1, 43268, Control_c, 0, 64, 21
1, 43286, Control_c, 0, 64, 43
1, 43304, Control_c, 0, 64, 68
1, 43315, Note_off_c, 0, 74, 61
1, 43322, Control_c, 0, 64, 87
1, 43342, Control_c, 0, 64, 127
1, 43344, Note_off_c, 0, 79, 61
1, 43360, Note_off_c, 0, 50, 61
1, 43362, Poly_aftertouch_c, 0, 77, 28
1, 43366, Note_on_c, 0, 77, 73
1, 43376, Poly_aftertouch_c, 0, 65, 28
1, 43384, Note_on_c, 0, 65, 67
1, 43385, Note_off_c, 0, 46, 59
1, 43407, Note_off_c, 0, 58, 59
1, 43432, Note_off_c, 0, 65, 59
1, 43460, Note_off_c, 0, 77, 59
1, 43526, Poly_aftertouch_c, 0, 76, 28
1, 43531, Poly_aftertouch_c, 0, 64, 28
1, 43533, Note_on_c, 0, 76, 69
1, 43535, Note_on_c, 0, 64, 64
1, 43573, Note_off_c, 0, 64, 61
1, 43586, Note_off_c, 0, 76, 57
1, 43661, Control_c, 0, 64, 87
1, 43679, Control_c, 0, 64, 55
1, 43699, Control_c, 0, 64, 21
1, 43706, Note_on_c, 0, 77, 72
1, 43709, Note_on_c, 0, 73, 70
1, 43709, Poly_aftertouch_c, 0, 65, 28
1, 43710, Poly_aftertouch_c, 0, 73, 28
1, 43710, Poly_aftertouch_c, 0, 77, 28
1, 43714, Note_on_c, 0, 65, 67
1, 43715, Note_on_c, 0, 49, 60
1, 43716, Note_on_c, 0, 57, 61
1, 43717, Control_c, 0, 64, 0
1, 43720, Note_on_c, 0, 45, 51
1, 43720, Poly_aftertouch_c, 0, 45, 28
1, 43720, Poly_aftertouch_c, 0, 49, 28
1, 43720, Poly_aftertouch_c, 0, 57, 28
1, 43769, Note_off_c, 0, 65, 56
1, 43773, Control_c, 0, 64, 8
1, 43791, Control_c, 0, 64, 25
1, 43810, Control_c, 0, 64, 50
1, 43828, Control_c, 0, 64, 75
1, 43850, Control_c, 0, 64, 99
1, 43860, Note_off_c, 0, 45, 60
1, 43861, Note_off_c, 0, 57, 61
1, 43862, Note_off_c, 0, 77, 56
1, 43865, Control_c, 0, 64, 127
1, 43876, Note_off_c, 0, 73, 60
1, 43884, Poly_aftertouch_c, 0, 76, 28
1, 43887, Note_on_c, 0, 76, 67
1, 43899, Poly_aftertouch_c, 0, 64, 28
1, 43904, Note_on_c, 0, 64, 63
1, 43920, Note_off_c, 0, 49, 62
1, 43959, Note_off_c, 0, 64, 58
1, 44022, Note_off_c, 0, 76, 53
1, 44083, Note_on_c, 0, 74, 66
1, 44084, Poly_aftertouch_c, 0, 74, 28
1, 44088, Poly_aftertouch_c, 0, 62, 28
1, 44089, Note_on_c, 0, 62, 59
1, 44133, Note_off_c, 0, 62, 59
1, 44163, Note_off_c, 0, 74, 58
1, 44246, Poly_aftertouch_c, 0, 43, 28
1, 44253, Note_on_c, 0, 43, 51
1, 44257, Control_c, 0, 64, 81
1, 44277, Poly_aftertouch_c, 0, 64, 28
1, 44279, Note_on_c, 0, 72, 55
1, 44279, Note_on_c, 0, 76, 61
1, 44279, Control_c, 0, 64, 54
1, 44280, Poly_aftertouch_c, 0, 72, 28
1, 44281, Note_on_c, 0, 64, 56
1, 44281, Poly_aftertouch_c, 0, 76, 28
1, 44297, Control_c, 0, 64, 33
1, 44315, Control_c, 0, 64, 28
1, 44352, Control_c, 0, 64, 41
1, 44358, Poly_aftertouch_c, 0, 46, 28
1, 44363, Note_off_c, 0, 64, 56
1, 44367, Note_on_c, 0, 46, 64
1, 44370, Control_c, 0, 64, 59
1, 44382, Note_off_c, 0, 76, 59
1, 44389, Control_c, 0, 64, 75
1, 44409, Control_c, 0, 64, 92
1, 44426, Control_c, 0, 64, 127
1, 44445, Poly_aftertouch_c, 0, 50, 28
1, 44454, Note_on_c, 0, 50, 57
1, 44611, Poly_aftertouch_c, 0, 52, 28
1, 44615, Control_c, 0, 64, 96
1, 44617, Note_on_c, 0, 52, 52
1, 44621, Note_on_c, 0, 74, 66
1, 44621, Poly_aftertouch_c, 0, 70, 28
1, 44622, Note_off_c, 0, 72, 61
1, 44622, Poly_aftertouch_c, 0, 74, 28
1, 44628, Poly_aftertouch_c, 0, 62, 28
1, 44630, Note_on_c, 0, 70, 55
1, 44632, Control_c, 0, 64, 66
1, 44634, Note_on_c, 0, 62, 47
1, 44652, Control_c, 0, 64, 36
1, 44689, Control_c, 0, 64, 0
1, 44765, Control_c, 0, 64, 14
1, 44783, Control_c, 0, 64, 28
1, 44803, Control_c, 0, 64, 48
1, 44820, Control_c, 0, 64, 70
1, 44838, Control_c, 0, 64, 88
1, 44850, Note_off_c, 0, 74, 54
1, 44858, Control_c, 0, 64, 127
1, 44879, Note_off_c, 0, 43, 35
1, 44915, Note_off_c, 0, 62, 56
1, 44919, Note_off_c, 0, 52, 32
1, 44941, Note_off_c, 0, 70, 61
1, 44994, Note_off_c, 0, 50, 36
1, 45060, Note_off_c, 0, 46, 36
1, 45463, Poly_aftertouch_c, 0, 70, 28
1, 45475, Note_on_c, 0, 70, 49
1, 45476, Poly_aftertouch_c, 0, 58, 28
1, 45493, Note_on_c, 0, 58, 34
1, 45643, Control_c, 0, 67, 8
1, 45699, Control_c, 0, 67, 13
1, 45737, Control_c, 0, 67, 19
1, 45739, Note_off_c, 0, 58, 41
1, 45756, Control_c, 0, 67, 25
1, 45774, Control_c, 0, 67, 31
1, 45794, Control_c, 0, 67, 38
1, 45810, Note_off_c, 0, 70, 39
1, 45811, Control_c, 0, 67, 45
1, 45831, Control_c, 0, 67, 52
1, 45850, Control_c, 0, 67, 59
1, 45870, Control_c, 0, 67, 65
1, 45888, Control_c, 0, 67, 70
1, 45906, Control_c, 0, 67, 75
1, 45925, Control_c, 0, 67, 79
1, 45944, Control_c, 0, 67, 84
1, 45962, Control_c, 0, 67, 89
1, 45981, Control_c, 0, 67, 93
1, 46000, Control_c, 0, 67, 99
1, 46011, Poly_aftertouch_c, 0, 45, 28
1, 46017, Note_on_c, 0, 45, 46
1, 46018, Control_c, 0, 67, 104
1, 46027, Poly_aftertouch_c, 0, 33, 28
1, 46035, Note_on_c, 0, 33, 27
1, 46036, Control_c, 0, 67, 110
1, 46057, Control_c, 0, 64, 105
1, 46059, Control_c, 0, 67, 116
1, 46075, Control_c, 0, 64, 75
1, 46077, Control_c, 0, 67, 122
1, 46093, Control_c, 0, 64, 48
1, 46094, Control_c, 0, 67, 127
1, 46112, Control_c, 0, 64, 24
1, 46132, Control_c, 0, 64, 13
1, 46187, Control_c, 0, 64, 20
1, 46207, Control_c, 0, 64, 31
1, 46224, Control_c, 0, 64, 47
1, 46243, Control_c, 0, 64, 66
1, 46262, Control_c, 0, 64, 79
1, 46282, Control_c, 0, 64, 96
1, 46299, Control_c, 0, 64, 127
1, 46356, Note_off_c, 0, 33, 34
1, 46384, Note_off_c, 0, 45, 36
1, 46450, Poly_aftertouch_c, 0, 57, 28
1, 46455, Note_on_c, 0, 57, 48
1, 46607, Poly_aftertouch_c, 0, 69, 28
1, 46608, Poly_aftertouch_c, 0, 69, 0
1, 46648, Note_off_c, 0, 57, 35
1, 46678, Poly_aftertouch_c, 0, 33, 28
1, 46685, Note_on_c, 0, 33, 40
1, 46708, Poly_aftertouch_c, 0, 45, 28
1, 46718, Note_on_c, 0, 45, 20
1, 46732, Note_off_c, 0, 33, 55
1, 46771, Note_off_c, 0, 45, 48
1, 46955, Poly_aftertouch_c, 0, 65, 28
1, 46966, Note_on_c, 0, 65, 45
1, 46974, Poly_aftertouch_c, 0, 69, 28
1, 46981, Note_on_c, 0, 69, 41
1, 46991, Control_c, 0, 64, 101
1, 47011, Control_c, 0, 64, 80
1, 47029, Control_c, 0, 64, 67
1, 47048, Control_c, 0, 64, 64
1, 47067, Control_c, 0, 64, 66
1, 47085, Control_c, 0, 64, 70
1, 47104, Control_c, 0, 64, 76
1, 47124, Control_c, 0, 64, 85
1, 47134, Note_off_c, 0, 65, 54
1, 47141, Control_c, 0, 64, 96
1, 47151, Note_off_c, 0, 69, 35
1, 47160, Control_c, 0, 64, 104
1, 47175, Poly_aftertouch_c, 0, 53, 28
1, 47178, Note_on_c, 0, 53, 51
1, 47179, Control_c, 0, 64, 99
1, 47198, Control_c, 0, 64, 88
1, 47200, Poly_aftertouch_c, 0, 57, 28
1, 47207, Note_on_c, 0, 57, 42
1, 47216, Control_c, 0, 64, 78
1, 47235, Control_c, 0, 64, 72
1, 47266, Note_off_c, 0, 57, 44
1, 47272, Control_c, 0, 64, 75
1, 47277, Note_off_c, 0, 53, 49
1, 47291, Control_c, 0, 64, 80
1, 47310, Control_c, 0, 64, 89
1, 47318, Poly_aftertouch_c, 0, 65, 28
1, 47326, Note_on_c, 0, 65, 55
1, 47329, Control_c, 0, 64, 103
1, 47338, Poly_aftertouch_c, 0, 69, 28
1, 47342, Note_on_c, 0, 69, 43
1, 47346, Control_c, 0, 64, 127
1, 47409, Note_off_c, 0, 69, 44
1, 47420, Note_off_c, 0, 65, 55
1, 47493, Poly_aftertouch_c, 0, 50, 28
1, 47499, Note_on_c, 0, 50, 68
1, 47516, Control_c, 0, 64, 98
1, 47536, Control_c, 0, 64, 73
1, 47545, Note_on_c, 0, 53, 31
1, 47545, Poly_aftertouch_c, 0, 53, 28
1, 47554, Control_c, 0, 64, 55
1, 47572, Control_c, 0, 64, 50
1, 47592, Control_c, 0, 64, 52
1, 47610, Control_c, 0, 64, 57
1, 47614, Note_off_c, 0, 53, 39
1, 47628, Control_c, 0, 64, 63
1, 47647, Control_c, 0, 64, 70
1, 47654, Poly_aftertouch_c, 0, 62, 28
1, 47659, Note_on_c, 0, 62, 57
1, 47664, Poly_aftertouch_c, 0, 65, 28
1, 47665, Control_c, 0, 64, 79
1, 47673, Note_on_c, 0, 65, 51
1, 47674, Note_off_c, 0, 50, 56
1, 47685, Control_c, 0, 64, 92
1, 47695, Note_on_c, 0, 69, 33
1, 47701, Control_c, 0, 64, 121
1, 47715, Note_off_c, 0, 62, 57
1, 47722, Control_c, 0, 64, 127
1, 47723, Note_off_c, 0, 65, 61
1, 47740, Note_off_c, 0, 69, 34
1, 47740, Poly_aftertouch_c, 0, 69, 28
1, 47807, Poly_aftertouch_c, 0, 50, 28
1, 47814, Note_on_c, 0, 50, 70
1, 47840, Poly_aftertouch_c, 0, 53, 28
1, 47840, Poly_aftertouch_c, 0, 57, 28
1, 47843, Note_on_c, 0, 53, 55
1, 47848, Note_on_c, 0, 57, 45
1, 47852, Control_c, 0, 64, 106
1, 47872, Control_c, 0, 64, 75
1, 47890, Control_c, 0, 64, 52
1, 47909, Control_c, 0, 64, 37
1, 47937, Note_off_c, 0, 57, 50
1, 47942, Note_off_c, 0, 53, 46
1, 47961, Note_off_c, 0, 50, 56
1, 47964, Control_c, 0, 64, 46
1, 47983, Poly_aftertouch_c, 0, 59, 28
1, 47983, Control_c, 0, 64, 60
1, 47987, Note_on_c, 0, 59, 66
1, 47989, Poly_aftertouch_c, 0, 62, 28
1, 47994, Note_on_c, 0, 62, 54
1, 47995, Poly_aftertouch_c, 0, 65, 28
1, 47999, Note_on_c, 0, 65, 43
1, 48003, Control_c, 0, 64, 72
1, 48022, Control_c, 0, 64, 83
1, 48033, Note_off_c, 0, 65, 56
1, 48037, Note_off_c, 0, 62, 62
1, 48040, Control_c, 0, 64, 98
1, 48056, Note_off_c, 0, 59, 61
1, 48059, Control_c, 0, 64, 127
1, 48084, Poly_aftertouch_c, 0, 69, 28
1, 48085, Poly_aftertouch_c, 0, 69, 0
1, 48147, Poly_aftertouch_c, 0, 50, 28
1, 48153, Poly_aftertouch_c, 0, 47, 28
1, 48155, Note_on_c, 0, 50, 56
1, 48156, Note_on_c, 0, 47, 62
1, 48168, Note_on_c, 0, 53, 36
1, 48168, Poly_aftertouch_c, 0, 53, 28
1, 48190, Note_off_c, 0, 50, 62
1, 48211, Note_off_c, 0, 53, 47
1, 48219, Note_off_c, 0, 47, 57
1, 48336, Poly_aftertouch_c, 0, 48, 28
1, 48339, Note_on_c, 0, 48, 74
1, 48340, Control_c, 0, 64, 83
1, 48347, Poly_aftertouch_c, 0, 56, 28
1, 48352, Note_on_c, 0, 52, 60
1, 48354, Note_on_c, 0, 56, 58
1, 48355, Poly_aftertouch_c, 0, 52, 28
1, 48359, Control_c, 0, 64, 56
1, 48377, Control_c, 0, 64, 33
1, 48396, Control_c, 0, 64, 23
1, 48470, Control_c, 0, 64, 34
1, 48490, Control_c, 0, 64, 45
1, 48503, Note_off_c, 0, 56, 36
1, 48506, Control_c, 0, 64, 59
1, 48527, Control_c, 0, 64, 68
1, 48543, Poly_aftertouch_c, 0, 47, 28
1, 48545, Control_c, 0, 64, 74
1, 48548, Note_on_c, 0, 47, 66
1, 48549, Note_off_c, 0, 48, 58
1, 48549, Note_off_c, 0, 52, 36
1, 48564, Control_c, 0, 64, 80
1, 48583, Control_c, 0, 64, 88
1, 48589, Note_off_c, 0, 47, 65
1, 48602, Control_c, 0, 64, 99
1, 48620, Control_c, 0, 64, 124
1, 48685, Poly_aftertouch_c, 0, 33, 28
1, 48692, Note_on_c, 0, 33, 61
1, 48696, Poly_aftertouch_c, 0, 45, 28
1, 48703, Note_on_c, 0, 45, 60
1, 48738, Note_off_c, 0, 33, 61
1, 48749, Note_off_c, 0, 45, 63
1, 48808, Control_c, 0, 64, 94
1, 48827, Control_c, 0, 64, 63
1, 48844, Control_c, 0, 64, 31
1, 48854, Poly_aftertouch_c, 0, 62, 28
1, 48857, Note_on_c, 0, 62, 71
1, 48866, Poly_aftertouch_c, 0, 65, 28
1, 48871, Note_on_c, 0, 65, 58
1, 48873, Note_on_c, 0, 69, 57
1, 48873, Poly_aftertouch_c, 0, 69, 28
1, 48939, Control_c, 0, 64, 10
1, 48958, Control_c, 0, 64, 21
1, 48977, Control_c, 0, 64, 35
1, 48995, Control_c, 0, 64, 57
1, 49014, Control_c, 0, 64, 76
1, 49034, Control_c, 0, 64, 94
1, 49044, Poly_aftertouch_c, 0, 60, 28
1, 49047, Note_on_c, 0, 60, 64
1, 49049, Note_off_c, 0, 65, 59
1, 49053, Control_c, 0, 64, 127
1, 49059, Note_off_c, 0, 69, 46
1, 49067, Note_off_c, 0, 62, 57
1, 49082, Note_off_c, 0, 60, 65
1, 49186, Poly_aftertouch_c, 0, 59, 28
1, 49190, Note_on_c, 0, 59, 60
1, 49194, Poly_aftertouch_c, 0, 47, 28
1, 49202, Note_on_c, 0, 47, 53
1, 49225, Note_off_c, 0, 59, 63
1, 49273, Note_off_c, 0, 47, 62
1, 49313, Control_c, 0, 64, 112
1, 49333, Control_c, 0, 64, 77
1, 49348, Note_on_c, 0, 48, 76
1, 49349, Poly_aftertouch_c, 0, 48, 28
1, 49350, Control_c, 0, 64, 50
1, 49355, Note_on_c, 0, 52, 61
1, 49355, Poly_aftertouch_c, 0, 52, 28
1, 49356, Poly_aftertouch_c, 0, 56, 28
1, 49359, Note_on_c, 0, 56, 57
1, 49369, Control_c, 0, 64, 26
1, 49387, Control_c, 0, 64, 14
1, 49415, Note_off_c, 0, 56, 55
1, 49464, Control_c, 0, 64, 21
1, 49481, Control_c, 0, 64, 32
1, 49500, Control_c, 0, 64, 50
1, 49519, Control_c, 0, 64, 67
1, 49524, Poly_aftertouch_c, 0, 47, 28
1, 49529, Note_off_c, 0, 48, 61
1, 49529, Note_on_c, 0, 47, 67
1, 49538, Control_c, 0, 64, 80
1, 49542, Note_off_c, 0, 52, 54
1, 49557, Control_c, 0, 64, 94
1, 49568, Note_off_c, 0, 47, 65
1, 49574, Control_c, 0, 64, 114
1, 49594, Control_c, 0, 64, 127
1, 49679, Poly_aftertouch_c, 0, 33, 28
1, 49681, Poly_aftertouch_c, 0, 45, 28
1, 49682, Note_on_c, 0, 33, 61
1, 49686, Note_on_c, 0, 45, 61
1, 49723, Note_off_c, 0, 33, 62
1, 49728, Note_off_c, 0, 45, 62
1, 49820, Control_c, 0, 64, 105
1, 49836, Control_c, 0, 64, 72
1, 49844, Poly_aftertouch_c, 0, 62, 28
1, 49849, Note_on_c, 0, 62, 76
1, 49855, Control_c, 0, 64, 41
1, 49859, Poly_aftertouch_c, 0, 65, 28
1, 49866, Note_on_c, 0, 65, 61
1, 49871, Note_on_c, 0, 69, 56
1, 49871, Poly_aftertouch_c, 0, 69, 28
1, 49874, Control_c, 0, 64, 10
1, 49894, Control_c, 0, 64, 0
1, 49968, Control_c, 0, 64, 9
1, 49987, Control_c, 0, 64, 20
1, 50006, Control_c, 0, 64, 33
1, 50026, Control_c, 0, 64, 54
1, 50027, Note_off_c, 0, 69, 25
1, 50031, Poly_aftertouch_c, 0, 60, 28
1, 50035, Note_on_c, 0, 60, 66
1, 50043, Control_c, 0, 64, 70
1, 50052, Note_off_c, 0, 65, 49
1, 50056, Note_off_c, 0, 62, 55
1, 50062, Control_c, 0, 64, 82
1, 50071, Note_off_c, 0, 60, 64
1, 50080, Control_c, 0, 64, 93
1, 50100, Control_c, 0, 64, 107
1, 50117, Control_c, 0, 64, 127
1, 50186, Poly_aftertouch_c, 0, 47, 28
1, 50186, Poly_aftertouch_c, 0, 59, 28
1, 50189, Note_on_c, 0, 59, 59
1, 50191, Note_on_c, 0, 47, 56
1, 50231, Note_off_c, 0, 59, 61
1, 50244, Note_off_c, 0, 47, 59
1, 50343, Control_c, 0, 64, 89
1, 50350, Poly_aftertouch_c, 0, 62, 28
1, 50355, Note_on_c, 0, 62, 74
1, 50361, Poly_aftertouch_c, 0, 65, 28
1, 50362, Control_c, 0, 64, 64
1, 50367, Note_on_c, 0, 65, 63
1, 50372, Poly_aftertouch_c, 0, 68, 28
1, 50380, Note_on_c, 0, 68, 55
1, 50380, Control_c, 0, 64, 37
1, 50398, Control_c, 0, 64, 16
1, 50418, Control_c, 0, 64, 11
1, 50473, Control_c, 0, 64, 19
1, 50494, Control_c, 0, 64, 31
1, 50510, Control_c, 0, 64, 47
1, 50530, Control_c, 0, 64, 65
1, 50532, Poly_aftertouch_c, 0, 60, 28
1, 50534, Note_on_c, 0, 60, 69
1, 50549, Control_c, 0, 64, 77
1, 50555, Note_off_c, 0, 62, 51
1, 50560, Note_off_c, 0, 65, 57
1, 50568, Note_off_c, 0, 68, 39
1, 50568, Control_c, 0, 64, 89
1, 50579, Note_off_c, 0, 60, 59
1, 50586, Control_c, 0, 64, 100
1, 50587, Control_c, 0, 67, 122
1, 50605, Control_c, 0, 64, 111
1, 50624, Control_c, 0, 64, 124
1, 50626, Control_c, 0, 67, 117
1, 50681, Poly_aftertouch_c, 0, 59, 28
1, 50685, Note_on_c, 0, 59, 72
1, 50690, Poly_aftertouch_c, 0, 47, 28
1, 50695, Note_on_c, 0, 47, 61
1, 50743, Note_off_c, 0, 59, 59
1, 50746, Note_off_c, 0, 47, 60
1, 50772, Control_c, 0, 67, 113
1, 50792, Control_c, 0, 64, 100
1, 50813, Control_c, 0, 64, 78
1, 50829, Control_c, 0, 64, 57
1, 50835, Poly_aftertouch_c, 0, 60, 28
1, 50836, Note_on_c, 0, 60, 77
1, 50846, Poly_aftertouch_c, 0, 64, 28
1, 50847, Control_c, 0, 64, 37
1, 50848, Note_on_c, 0, 64, 63
1, 50848, Poly_aftertouch_c, 0, 67, 28
1, 50848, Control_c, 0, 67, 108
1, 50852, Note_on_c, 0, 67, 67
1, 50867, Control_c, 0, 64, 27
1, 50886, Control_c, 0, 67, 103
1, 50924, Control_c, 0, 64, 32
1, 50925, Control_c, 0, 67, 97
1, 50941, Control_c, 0, 64, 42
1, 50961, Control_c, 0, 64, 57
1, 50963, Control_c, 0, 67, 92
1, 50979, Control_c, 0, 64, 68
1, 50998, Control_c, 0, 64, 76
1, 50999, Control_c, 0, 67, 86
1, 51009, Poly_aftertouch_c, 0, 59, 28
1, 51013, Note_on_c, 0, 59, 77
1, 51016, Note_off_c, 0, 60, 57
1, 51016, Control_c, 0, 64, 83
1, 51023, Note_off_c, 0, 67, 55
1, 51036, Control_c, 0, 64, 89
1, 51037, Note_off_c, 0, 64, 41
1, 51038, Control_c, 0, 67, 80
1, 51054, Control_c, 0, 64, 94
1, 51061, Note_off_c, 0, 59, 60
1, 51073, Control_c, 0, 67, 76
1, 51092, Control_c, 0, 64, 100
1, 51130, Control_c, 0, 64, 106
1, 51147, Control_c, 0, 67, 72
1, 51157, Poly_aftertouch_c, 0, 57, 28
1, 51162, Note_on_c, 0, 57, 79
1, 51163, Poly_aftertouch_c, 0, 45, 28
1, 51167, Note_on_c, 0, 45, 75
1, 51203, Control_c, 0, 64, 101
1, 51223, Control_c, 0, 64, 91
1, 51225, Control_c, 0, 67, 68
1, 51232, Note_off_c, 0, 45, 59
1, 51233, Note_off_c, 0, 57, 63
1, 51241, Control_c, 0, 64, 75
1, 51259, Control_c, 0, 64, 57
1, 51279, Control_c, 0, 64, 36
1, 51298, Control_c, 0, 64, 21
1, 51316, Poly_aftertouch_c, 0, 59, 28
1, 51318, Poly_aftertouch_c, 0, 65, 28
1, 51321, Note_on_c, 0, 59, 80
1, 51325, Note_on_c, 0, 65, 74
1, 51326, Poly_aftertouch_c, 0, 62, 28
1, 51329, Note_on_c, 0, 62, 69
1, 51354, Control_c, 0, 67, 63
1, 51390, Control_c, 0, 64, 34
1, 51410, Control_c, 0, 64, 48
1, 51411, Control_c, 0, 67, 59
1, 51429, Control_c, 0, 64, 64
1, 51448, Control_c, 0, 64, 75
1, 51467, Control_c, 0, 64, 82
1, 51468, Control_c, 0, 67, 55
1, 51471, Note_off_c, 0, 59, 63
1, 51476, Poly_aftertouch_c, 0, 57, 28
1, 51477, Note_on_c, 0, 57, 81
1, 51486, Control_c, 0, 64, 90
1, 51497, Note_off_c, 0, 62, 48
1, 51498, Note_off_c, 0, 65, 61
1, 51504, Control_c, 0, 64, 98
1, 51520, Note_off_c, 0, 57, 63
1, 51521, Control_c, 0, 64, 106
1, 51540, Control_c, 0, 64, 111
1, 51577, Control_c, 0, 64, 116
1, 51616, Control_c, 0, 64, 121
1, 51620, Poly_aftertouch_c, 0, 55, 28
1, 51626, Note_on_c, 0, 55, 81
1, 51630, Poly_aftertouch_c, 0, 43, 28
1, 51635, Note_on_c, 0, 43, 75
1, 51635, Control_c, 0, 67, 51
1, 51652, Control_c, 0, 64, 114
1, 51671, Control_c, 0, 64, 99
1, 51691, Control_c, 0, 64, 78
1, 51692, Control_c, 0, 67, 44
1, 51709, Control_c, 0, 64, 57
1, 51709, Control_c, 0, 67, 39
1, 51718, Note_off_c, 0, 43, 58
1, 51723, Note_off_c, 0, 55, 62
1, 51727, Control_c, 0, 64, 33
1, 51728, Control_c, 0, 67, 35
1, 51747, Control_c, 0, 64, 18
1, 51748, Control_c, 0, 67, 29
1, 51766, Control_c, 0, 67, 25
1, 51778, Note_on_c, 0, 57, 80
1, 51779, Note_on_c, 0, 64, 78
1, 51781, Poly_aftertouch_c, 0, 57, 28
1, 51781, Poly_aftertouch_c, 0, 60, 28
1, 51782, Poly_aftertouch_c, 0, 64, 28
1, 51783, Note_on_c, 0, 60, 71
1, 51802, Control_c, 0, 67, 17
1, 51821, Control_c, 0, 64, 31
1, 51840, Control_c, 0, 64, 44
1, 51841, Control_c, 0, 67, 10
1, 51858, Control_c, 0, 64, 61
1, 51878, Control_c, 0, 64, 73
1, 51896, Control_c, 0, 64, 83
1, 51915, Control_c, 0, 64, 99
1, 51930, Note_off_c, 0, 64, 57
1, 51932, Control_c, 0, 64, 127
1, 51935, Poly_aftertouch_c, 0, 55, 28
1, 51940, Note_off_c, 0, 60, 59
1, 51942, Note_on_c, 0, 55, 85
1, 51945, Note_off_c, 0, 57, 64
1, 51981, Note_off_c, 0, 55, 64
1, 52028, Control_c, 0, 64, 105
1, 52046, Control_c, 0, 64, 72
1, 52060, Poly_aftertouch_c, 0, 53, 28
1, 52062, Note_on_c, 0, 53, 79
1, 52064, Control_c, 0, 64, 45
1, 52071, Poly_aftertouch_c, 0, 41, 28
1, 52073, Note_on_c, 0, 41, 70
1, 52084, Control_c, 0, 64, 25
1, 52140, Control_c, 0, 64, 36
1, 52158, Control_c, 0, 64, 54
1, 52177, Control_c, 0, 64, 71
1, 52196, Control_c, 0, 64, 85
1, 52203, Note_off_c, 0, 53, 55
1, 52212, Note_off_c, 0, 41, 60
1, 52214, Control_c, 0, 64, 104
1, 52230, Poly_aftertouch_c, 0, 55, 28
1, 52231, Poly_aftertouch_c, 0, 59, 28
1, 52231, Poly_aftertouch_c, 0, 62, 28
1, 52233, Control_c, 0, 64, 127
1, 52235, Note_on_c, 0, 59, 77
1, 52236, Note_on_c, 0, 55, 80
1, 52237, Note_on_c, 0, 62, 76
1, 52276, Note_off_c, 0, 55, 61
1, 52296, Note_off_c, 0, 59, 58
1, 52304, Note_off_c, 0, 62, 59
1, 52345, Control_c, 0, 64, 121
1, 52364, Control_c, 0, 64, 112
1, 52382, Control_c, 0, 64, 103
1, 52401, Control_c, 0, 64, 95
1, 52416, Poly_aftertouch_c, 0, 52, 28
1, 52418, Note_on_c, 0, 52, 79
1, 52420, Control_c, 0, 64, 86
1, 52422, Poly_aftertouch_c, 0, 44, 28
1, 52427, Note_on_c, 0, 44, 69
1, 52428, Poly_aftertouch_c, 0, 40, 28
1, 52436, Note_on_c, 0, 40, 63
1, 52439, Control_c, 0, 64, 76
1, 52459, Control_c, 0, 64, 66
1, 52476, Control_c, 0, 64, 57
1, 52496, Control_c, 0, 64, 50
1, 52513, Control_c, 0, 64, 44
1, 52533, Control_c, 0, 64, 36
1, 52551, Control_c, 0, 64, 27
1, 52571, Control_c, 0, 64, 19
1, 52588, Control_c, 0, 64, 11
1, 52600, Poly_aftertouch_c, 0, 64, 28
1, 52601, Note_on_c, 0, 64, 78
1, 52606, Poly_aftertouch_c, 0, 59, 28
1, 52608, Note_on_c, 0, 59, 74
1, 52613, Poly_aftertouch_c, 0, 56, 28
1, 52617, Note_on_c, 0, 56, 65
1, 52626, Control_c, 0, 64, 0
1, 53076, Control_c, 0, 64, 8
1, 53113, Control_c, 0, 64, 14
1, 53131, Control_c, 0, 64, 20
1, 53151, Control_c, 0, 64, 28
1, 53169, Control_c, 0, 64, 41
1, 53188, Control_c, 0, 64, 56
1, 53206, Control_c, 0, 64, 63
1, 53226, Control_c, 0, 64, 64
1, 53227, Control_c, 0, 67, 14
1, 53263, Control_c, 0, 64, 65
1, 53301, Control_c, 0, 64, 67
1, 53309, Note_off_c, 0, 40, 47
1, 53315, Note_off_c, 0, 52, 51
1, 53319, Control_c, 0, 64, 68
1, 53413, Control_c, 0, 64, 70
1, 53414, Control_c, 0, 67, 18
1, 53487, Control_c, 0, 67, 25
1, 53507, Control_c, 0, 67, 30
1, 53524, Control_c, 0, 67, 36
1, 53544, Control_c, 0, 67, 41
1, 53562, Control_c, 0, 67, 46
1, 53581, Control_c, 0, 67, 51
1, 53599, Control_c, 0, 67, 55
1, 53618, Control_c, 0, 67, 59
1, 53656, Control_c, 0, 67, 66
1, 53675, Control_c, 0, 67, 70
1, 53693, Control_c, 0, 67, 75
1, 53712, Control_c, 0, 67, 79
1, 53730, Control_c, 0, 67, 83
1, 53768, Control_c, 0, 67, 90
1, 53807, Control_c, 0, 67, 96
1, 53844, Control_c, 0, 64, 67
1, 53844, Control_c, 0, 67, 101
1, 53853, Poly_aftertouch_c, 0, 39, 28
1, 53858, Poly_aftertouch_c, 0, 51, 28
1, 53862, Control_c, 0, 64, 65
1, 53865, Note_on_c, 0, 39, 31
1, 53868, Note_on_c, 0, 51, 35
1, 53881, Control_c, 0, 64, 62
1, 53882, Control_c, 0, 67, 107
1, 53900, Control_c, 0, 64, 59
1, 53918, Control_c, 0, 64, 55
1, 53919, Control_c, 0, 67, 111
1, 53937, Control_c, 0, 64, 48
1, 53956, Control_c, 0, 64, 40
1, 53957, Control_c, 0, 67, 116
1, 53974, Control_c, 0, 64, 30
1, 53992, Control_c, 0, 64, 21
1, 53994, Control_c, 0, 67, 122
1, 54011, Control_c, 0, 64, 16
1, 54031, Control_c, 0, 67, 127
1, 54059, Poly_aftertouch_c, 0, 60, 28
1, 54063, Note_on_c, 0, 60, 46
1, 54086, Control_c, 0, 64, 12
1, 54096, Note_off_c, 0, 59, 60
1, 54404, Control_c, 0, 64, 16
1, 54443, Control_c, 0, 64, 22
1, 54479, Control_c, 0, 64, 30
1, 54498, Control_c, 0, 64, 35
1, 54517, Control_c, 0, 64, 43
1, 54535, Control_c, 0, 64, 53
1, 54554, Control_c, 0, 64, 59
1, 54573, Control_c, 0, 64, 62
1, 54591, Control_c, 0, 64, 64
1, 54610, Control_c, 0, 64, 65
1, 54630, Control_c, 0, 64, 68
1, 54648, Control_c, 0, 64, 70
1, 54667, Control_c, 0, 64, 74
1, 54685, Control_c, 0, 64, 79
1, 54705, Control_c, 0, 64, 87
1, 54722, Control_c, 0, 64, 96
1, 54729, Note_off_c, 0, 44, 36
1, 54741, Control_c, 0, 64, 107
1, 54747, Note_off_c, 0, 51, 37
1, 54761, Control_c, 0, 64, 124
1, 54808, Note_off_c, 0, 56, 34
1, 54811, Note_off_c, 0, 39, 41
1, 54968, Note_off_c, 0, 64, 33
1, 54976, Note_off_c, 0, 60, 32
1, 55789, Control_c, 0, 64, 118
1, 55808, Control_c, 0, 64, 107
1, 55828, Control_c, 0, 64, 92
1, 55832, Poly_aftertouch_c, 0, 37, 28
1, 55837, Poly_aftertouch_c, 0, 49, 28
1, 55846, Note_on_c, 0, 37, 31
1, 55846, Note_on_c, 0, 49, 33
1, 55847, Control_c, 0, 64, 75
1, 55864, Control_c, 0, 64, 56
1, 55884, Control_c, 0, 64, 35
1, 55901, Control_c, 0, 64, 17
1, 55921, Control_c, 0, 64, 11
1, 55997, Control_c, 0, 64, 19
1, 56014, Control_c, 0, 64, 28
1, 56034, Control_c, 0, 64, 38
1, 56052, Control_c, 0, 64, 55
1, 56071, Control_c, 0, 64, 69
1, 56073, Control_c, 0, 67, 122
1, 56090, Control_c, 0, 64, 78
1, 56091, Control_c, 0, 67, 117
1, 56093, Note_off_c, 0, 37, 51
1, 56108, Control_c, 0, 64, 88
1, 56110, Control_c, 0, 67, 109
1, 56126, Control_c, 0, 64, 101
1, 56127, Control_c, 0, 67, 100
1, 56131, Note_off_c, 0, 49, 55
1, 56145, Control_c, 0, 64, 127
1, 56146, Control_c, 0, 67, 89
1, 56164, Control_c, 0, 67, 79
1, 56183, Control_c, 0, 67, 70
1, 56201, Control_c, 0, 67, 66
1, 56282, Poly_aftertouch_c, 0, 73, 28
1, 56290, Note_on_c, 0, 73, 51
1, 56338, Poly_aftertouch_c, 0, 61, 28
1, 56388, Poly_aftertouch_c, 0, 61, 127
1, 56424, Note_off_c, 0, 73, 61
1, 56433, Poly_aftertouch_c, 0, 61, 0
1, 56559, Poly_aftertouch_c, 0, 49, 28
1, 56562, Note_on_c, 0, 49, 44
1, 56568, Poly_aftertouch_c, 0, 61, 28
1, 56577, Note_on_c, 0, 61, 32
1, 56620, Note_off_c, 0, 49, 52
1, 56680, Note_off_c, 0, 61, 35
1, 56744, Control_c, 0, 67, 70
1, 56928, Poly_aftertouch_c, 0, 81, 28
1, 56930, Note_on_c, 0, 81, 62
1, 56949, Poly_aftertouch_c, 0, 76, 28
1, 56953, Note_on_c, 0, 76, 44
1, 57000, Poly_aftertouch_c, 0, 69, 28
1, 57001, Poly_aftertouch_c, 0, 69, 0
1, 57017, Poly_aftertouch_c, 0, 73, 28
1, 57069, Poly_aftertouch_c, 0, 73, 127
1, 57076, Note_off_c, 0, 76, 28
1, 57096, Poly_aftertouch_c, 0, 73, 0
1, 57115, Note_off_c, 0, 81, 62
1, 57231, Poly_aftertouch_c, 0, 64, 28
1, 57236, Poly_aftertouch_c, 0, 61, 28
1, 57237, Note_on_c, 0, 64, 37
1, 57243, Poly_aftertouch_c, 0, 69, 28
1, 57244, Note_on_c, 0, 61, 42
1, 57247, Note_on_c, 0, 69, 38
1, 57296, Note_off_c, 0, 64, 50
1, 57313, Note_off_c, 0, 61, 50
1, 57314, Note_off_c, 0, 69, 42
1, 57444, Poly_aftertouch_c, 0, 81, 28
1, 57447, Note_on_c, 0, 81, 58
1, 57478, Poly_aftertouch_c, 0, 76, 28
1, 57479, Note_on_c, 0, 69, 25
1, 57481, Note_on_c, 0, 76, 45
1, 57487, Poly_aftertouch_c, 0, 73, 28
1, 57497, Note_on_c, 0, 73, 35
1, 57531, Note_off_c, 0, 69, 28
1, 57531, Poly_aftertouch_c, 0, 69, 28
1, 57537, Note_off_c, 0, 76, 44
1, 57548, Note_off_c, 0, 73, 49
1, 57559, Note_off_c, 0, 81, 59
1, 57634, Poly_aftertouch_c, 0, 66, 28
1, 57638, Poly_aftertouch_c, 0, 61, 28
1, 57641, Note_on_c, 0, 66, 51
1, 57646, Note_on_c, 0, 61, 44
1, 57654, Poly_aftertouch_c, 0, 57, 28
1, 57662, Note_on_c, 0, 57, 30
1, 57723, Note_off_c, 0, 57, 47
1, 57727, Note_off_c, 0, 61, 47
1, 57736, Note_off_c, 0, 66, 49
1, 57800, Poly_aftertouch_c, 0, 78, 28
1, 57806, Note_on_c, 0, 78, 64
1, 57819, Poly_aftertouch_c, 0, 73, 28
1, 57823, Note_on_c, 0, 73, 48
1, 57828, Poly_aftertouch_c, 0, 69, 28
1, 57835, Note_on_c, 0, 69, 41
1, 57871, Note_off_c, 0, 69, 51
1, 57876, Note_off_c, 0, 73, 59
1, 57916, Note_off_c, 0, 78, 62
1, 57963, Poly_aftertouch_c, 0, 66, 28
1, 57967, Note_on_c, 0, 66, 56
1, 57968, Poly_aftertouch_c, 0, 57, 28
1, 57973, Note_on_c, 0, 57, 48
1, 57974, Poly_aftertouch_c, 0, 61, 28
1, 57977, Note_on_c, 0, 61, 51
1, 57999, Note_off_c, 0, 66, 63
1, 58016, Note_off_c, 0, 61, 60
1, 58016, Note_off_c, 0, 57, 60
1, 58132, Poly_aftertouch_c, 0, 75, 28
1, 58140, Note_on_c, 0, 75, 64
1, 58151, Poly_aftertouch_c, 0, 73, 28
1, 58159, Note_on_c, 0, 73, 50
1, 58162, Poly_aftertouch_c, 0, 69, 28
1, 58163, Note_on_c, 0, 69, 42
1, 58213, Note_off_c, 0, 69, 47
1, 58217, Note_off_c, 0, 73, 48
1, 58236, Note_off_c, 0, 75, 62
1, 58314, Poly_aftertouch_c, 0, 54, 28
1, 58314, Poly_aftertouch_c, 0, 61, 28
1, 58321, Note_on_c, 0, 54, 49
1, 58322, Note_on_c, 0, 61, 43
1, 58322, Poly_aftertouch_c, 0, 57, 28
1, 58322, Poly_aftertouch_c, 0, 63, 28
1, 58326, Note_on_c, 0, 63, 43
1, 58326, Note_on_c, 0, 57, 44
1, 58377, Note_off_c, 0, 61, 56
1, 58380, Note_off_c, 0, 57, 60
1, 58381, Note_off_c, 0, 63, 51
1, 58385, Note_off_c, 0, 54, 55
1, 58614, Poly_aftertouch_c, 0, 76, 28
1, 58619, Note_on_c, 0, 76, 72
1, 58652, Poly_aftertouch_c, 0, 73, 28
1, 58656, Note_on_c, 0, 73, 53
1, 58661, Poly_aftertouch_c, 0, 69, 28
1, 58666, Note_on_c, 0, 69, 43
1, 58692, Control_c, 0, 64, 97
1, 58710, Control_c, 0, 64, 72
1, 58729, Control_c, 0, 64, 52
1, 58746, Control_c, 0, 64, 36
1, 58766, Control_c, 0, 64, 28
1, 58840, Control_c, 0, 64, 34
1, 58860, Control_c, 0, 64, 44
1, 58877, Control_c, 0, 64, 55
1, 58897, Control_c, 0, 64, 64
1, 58912, Note_off_c, 0, 73, 49
1, 58914, Control_c, 0, 64, 68
1, 58918, Note_off_c, 0, 69, 36
1, 58929, Poly_aftertouch_c, 0, 57, 28
1, 58929, Poly_aftertouch_c, 0, 61, 28
1, 58930, Poly_aftertouch_c, 0, 63, 28
1, 58934, Control_c, 0, 64, 71
1, 58935, Note_on_c, 0, 61, 31
1, 58938, Note_on_c, 0, 63, 34
1, 58941, Note_on_c, 0, 57, 31
1, 58947, Poly_aftertouch_c, 0, 54, 28
1, 58953, Control_c, 0, 64, 75
1, 58973, Control_c, 0, 64, 79
1, 58991, Control_c, 0, 64, 85
1, 59000, Poly_aftertouch_c, 0, 54, 127
1, 59009, Control_c, 0, 64, 89
1, 59028, Control_c, 0, 64, 93
1, 59065, Control_c, 0, 64, 97
1, 59067, Poly_aftertouch_c, 0, 54, 0
1, 59092, Note_off_c, 0, 76, 57
1, 59123, Note_off_c, 0, 57, 34
1, 59136, Note_off_c, 0, 63, 34
1, 59141, Note_off_c, 0, 61, 31
1, 59142, Poly_aftertouch_c, 0, 75, 28
1, 59149, Poly_aftertouch_c, 0, 73, 28
1, 59150, Note_on_c, 0, 75, 49
1, 59157, Note_on_c, 0, 73, 35
1, 59165, Poly_aftertouch_c, 0, 69, 28
1, 59166, Note_on_c, 0, 69, 35
1, 59247, Note_off_c, 0, 69, 35
1, 59291, Control_c, 0, 64, 87
1, 59299, Poly_aftertouch_c, 0, 64, 28
1, 59303, Note_on_c, 0, 64, 70
1, 59310, Control_c, 0, 64, 74
1, 59319, Poly_aftertouch_c, 0, 61, 28
1, 59321, Note_off_c, 0, 75, 48
1, 59326, Note_on_c, 0, 61, 44
1, 59327, Poly_aftertouch_c, 0, 57, 28
1, 59329, Note_off_c, 0, 73, 37
1, 59329, Note_on_c, 0, 57, 43
1, 59329, Control_c, 0, 64, 60
1, 59346, Control_c, 0, 64, 48
1, 59365, Control_c, 0, 64, 42
1, 59422, Control_c, 0, 64, 49
1, 59439, Control_c, 0, 64, 55
1, 59459, Control_c, 0, 64, 61
1, 59476, Control_c, 0, 64, 64
1, 59496, Control_c, 0, 64, 69
1, 59497, Poly_aftertouch_c, 0, 54, 28
1, 59498, Poly_aftertouch_c, 0, 54, 0
1, 59506, Poly_aftertouch_c, 0, 75, 28
1, 59514, Control_c, 0, 64, 72
1, 59517, Note_on_c, 0, 75, 51
1, 59518, Note_off_c, 0, 64, 60
1, 59518, Poly_aftertouch_c, 0, 73, 28
1, 59523, Note_off_c, 0, 61, 32
1, 59527, Note_on_c, 0, 73, 42
1, 59530, Poly_aftertouch_c, 0, 69, 28
1, 59533, Control_c, 0, 64, 76
1, 59535, Note_on_c, 0, 69, 45
1, 59552, Control_c, 0, 64, 81
1, 59554, Note_off_c, 0, 57, 39
1, 59572, Control_c, 0, 64, 86
1, 59587, Note_off_c, 0, 69, 61
1, 59589, Control_c, 0, 64, 91
1, 59600, Note_off_c, 0, 75, 59
1, 59605, Note_off_c, 0, 73, 53
1, 59626, Control_c, 0, 64, 96
1, 59664, Poly_aftertouch_c, 0, 63, 28
1, 59672, Note_on_c, 0, 63, 64
1, 59680, Poly_aftertouch_c, 0, 61, 28
1, 59686, Poly_aftertouch_c, 0, 57, 28
1, 59687, Note_on_c, 0, 61, 41
1, 59691, Note_on_c, 0, 57, 48
1, 59693, Poly_aftertouch_c, 0, 54, 28
1, 59702, Note_on_c, 0, 54, 29
1, 59724, Note_off_c, 0, 57, 58
1, 59738, Note_off_c, 0, 61, 49
1, 59738, Note_off_c, 0, 63, 59
1, 59753, Note_off_c, 0, 54, 49
1, 59831, Poly_aftertouch_c, 0, 76, 28
1, 59832, Control_c, 0, 64, 88
1, 59836, Note_on_c, 0, 76, 77
1, 59846, Poly_aftertouch_c, 0, 70, 28
1, 59852, Poly_aftertouch_c, 0, 73, 28
1, 59852, Control_c, 0, 64, 75
1, 59855, Note_on_c, 0, 70, 57
1, 59855, Note_on_c, 0, 73, 56
1, 59870, Control_c, 0, 64, 60
1, 59889, Control_c, 0, 64, 47
1, 59908, Control_c, 0, 64, 39
1, 59983, Control_c, 0, 64, 44
1, 60000, Poly_aftertouch_c, 0, 58, 28
1, 60000, Poly_aftertouch_c, 0, 61, 28
1, 60001, Note_off_c, 0, 73, 55
1, 60001, Poly_aftertouch_c, 0, 63, 28
1, 60001, Control_c, 0, 64, 54
1, 60006, Note_on_c, 0, 61, 37
1, 60007, Note_on_c, 0, 63, 49
1, 60009, Note_off_c, 0, 70, 47
1, 60013, Note_on_c, 0, 58, 47
1, 60019, Poly_aftertouch_c, 0, 55, 28
1, 60020, Control_c, 0, 64, 62
1, 60027, Note_on_c, 0, 55, 35
1, 60039, Control_c, 0, 64, 67
1, 60059, Control_c, 0, 64, 71
1, 60073, Note_off_c, 0, 76, 61
1, 60074, Control_c, 0, 64, 75
1, 60095, Control_c, 0, 64, 79
1, 60114, Control_c, 0, 64, 85
1, 60133, Note_off_c, 0, 55, 36
1, 60133, Control_c, 0, 64, 91
1, 60142, Note_off_c, 0, 63, 61
1, 60149, Control_c, 0, 64, 97
1, 60170, Poly_aftertouch_c, 0, 70, 28
1, 60170, Control_c, 0, 64, 103
1, 60171, Poly_aftertouch_c, 0, 75, 28
1, 60175, Note_off_c, 0, 58, 35
1, 60177, Poly_aftertouch_c, 0, 73, 28
1, 60180, Note_on_c, 0, 75, 58
1, 60182, Note_on_c, 0, 73, 47
1, 60183, Note_on_c, 0, 70, 41
1, 60189, Control_c, 0, 64, 108
1, 60206, Note_off_c, 0, 61, 30
1, 60206, Control_c, 0, 64, 114
1, 60265, Note_off_c, 0, 70, 50
1, 60308, Note_off_c, 0, 75, 54
1, 60320, Control_c, 0, 64, 104
1, 60323, Poly_aftertouch_c, 0, 64, 28
1, 60325, Note_on_c, 0, 64, 78
1, 60338, Note_off_c, 0, 73, 37
1, 60338, Control_c, 0, 64, 89
1, 60342, Poly_aftertouch_c, 0, 58, 28
1, 60352, Note_on_c, 0, 58, 49
1, 60353, Note_on_c, 0, 61, 55
1, 60354, Poly_aftertouch_c, 0, 61, 28
1, 60357, Control_c, 0, 64, 70
1, 60358, Poly_aftertouch_c, 0, 55, 28
1, 60365, Note_on_c, 0, 55, 43
1, 60376, Control_c, 0, 64, 52
1, 60394, Control_c, 0, 64, 41
1, 60459, Note_off_c, 0, 55, 32
1, 60469, Control_c, 0, 64, 48
1, 60477, Poly_aftertouch_c, 0, 75, 28
1, 60483, Poly_aftertouch_c, 0, 73, 28
1, 60485, Note_on_c, 0, 75, 58
1, 60487, Control_c, 0, 64, 57
1, 60488, Note_off_c, 0, 64, 62
1, 60488, Note_on_c, 0, 73, 54
1, 60496, Poly_aftertouch_c, 0, 70, 28
1, 60500, Note_off_c, 0, 58, 37
1, 60500, Note_off_c, 0, 61, 40
1, 60502, Note_on_c, 0, 70, 56
1, 60505, Control_c, 0, 64, 64
1, 60526, Control_c, 0, 64, 69
1, 60544, Control_c, 0, 64, 72
1, 60550, Note_off_c, 0, 70, 61
1, 60563, Control_c, 0, 64, 76
1, 60569, Note_off_c, 0, 73, 53
1, 60569, Note_off_c, 0, 75, 62
1, 60582, Control_c, 0, 64, 78
1, 60600, Control_c, 0, 64, 82
1, 60617, Poly_aftertouch_c, 0, 63, 28
1, 60619, Control_c, 0, 64, 87
1, 60627, Note_on_c, 0, 63, 58
1, 60638, Poly_aftertouch_c, 0, 58, 28
1, 60638, Control_c, 0, 64, 92
1, 60639, Poly_aftertouch_c, 0, 61, 28
1, 60643, Note_on_c, 0, 61, 61
1, 60645, Note_on_c, 0, 58, 56
1, 60646, Note_on_c, 0, 55, 38
1, 60646, Poly_aftertouch_c, 0, 55, 28
1, 60656, Control_c, 0, 64, 98
1, 60675, Control_c, 0, 64, 103
1, 60690, Note_off_c, 0, 55, 49
1, 60691, Note_off_c, 0, 61, 57
1, 60691, Note_off_c, 0, 58, 66
1, 60694, Control_c, 0, 64, 107
1, 60709, Note_off_c, 0, 63, 58
1, 60788, Control_c, 0, 64, 103
1, 60790, Poly_aftertouch_c, 0, 76, 28
1, 60793, Note_on_c, 0, 76, 75
1, 60796, Poly_aftertouch_c, 0, 68, 28
1, 60797, Poly_aftertouch_c, 0, 72, 28
1, 60802, Note_on_c, 0, 68, 58
1, 60803, Note_on_c, 0, 72, 65
1, 60807, Control_c, 0, 64, 91
1, 60825, Control_c, 0, 64, 75
1, 60843, Control_c, 0, 64, 59
1, 60863, Control_c, 0, 64, 47
1, 60880, Control_c, 0, 64, 43
1, 60918, Control_c, 0, 64, 46
1, 60937, Control_c, 0, 64, 53
1, 60955, Control_c, 0, 64, 59
1, 60960, Poly_aftertouch_c, 0, 60, 28
1, 60966, Note_on_c, 0, 60, 49
1, 60966, Poly_aftertouch_c, 0, 63, 28
1, 60967, Note_off_c, 0, 72, 53
1, 60974, Note_on_c, 0, 63, 53
1, 60974, Control_c, 0, 64, 64
1, 60982, Poly_aftertouch_c, 0, 56, 28
1, 60988, Note_on_c, 0, 56, 38
1, 60989, Note_off_c, 0, 68, 51
1, 60993, Control_c, 0, 64, 69
1, 61011, Control_c, 0, 64, 74
1, 61031, Control_c, 0, 64, 81
1, 61047, Note_off_c, 0, 76, 59
1, 61049, Control_c, 0, 64, 91
1, 61069, Control_c, 0, 64, 104
1, 61087, Control_c, 0, 64, 127
1, 61100, Note_off_c, 0, 60, 55
1, 61113, Note_off_c, 0, 56, 47
1, 61118, Note_off_c, 0, 63, 56
1, 61133, Poly_aftertouch_c, 0, 68, 28
1, 61134, Poly_aftertouch_c, 0, 75, 28
1, 61140, Note_on_c, 0, 75, 60
1, 61142, Note_on_c, 0, 68, 56
1, 61142, Poly_aftertouch_c, 0, 72, 28
1, 61146, Note_on_c, 0, 72, 53
1, 61250, Note_off_c, 0, 72, 55
1, 61255, Note_off_c, 0, 68, 47
1, 61274, Control_c, 0, 64, 93
1, 61277, Poly_aftertouch_c, 0, 64, 28
1, 61278, Note_on_c, 0, 64, 81
1, 61279, Note_off_c, 0, 75, 56
1, 61283, Poly_aftertouch_c, 0, 60, 28
1, 61290, Note_on_c, 0, 60, 61
1, 61294, Control_c, 0, 64, 70
1, 61295, Poly_aftertouch_c, 0, 56, 28
1, 61300, Note_on_c, 0, 56, 55
1, 61312, Control_c, 0, 64, 53
1, 61332, Control_c, 0, 64, 42
1, 61348, Control_c, 0, 64, 40
1, 61387, Control_c, 0, 64, 46
1, 61405, Control_c, 0, 64, 55
1, 61410, Note_off_c, 0, 56, 46
1, 61421, Poly_aftertouch_c, 0, 68, 28
1, 61424, Control_c, 0, 64, 63
1, 61429, Note_on_c, 0, 68, 63
1, 61429, Poly_aftertouch_c, 0, 72, 28
1, 61429, Poly_aftertouch_c, 0, 75, 28
1, 61433, Note_on_c, 0, 75, 67
1, 61436, Note_on_c, 0, 72, 61
1, 61442, Control_c, 0, 64, 69
1, 61445, Note_off_c, 0, 60, 47
1, 61460, Note_off_c, 0, 64, 60
1, 61462, Control_c, 0, 64, 75
1, 61480, Control_c, 0, 64, 81
1, 61493, Note_off_c, 0, 68, 56
1, 61497, Note_off_c, 0, 72, 54
1, 61498, Control_c, 0, 64, 88
1, 61518, Control_c, 0, 64, 95
1, 61536, Note_off_c, 0, 75, 62
1, 61536, Control_c, 0, 64, 102
1, 61537, Control_c, 0, 67, 66
1, 61555, Control_c, 0, 64, 107
1, 61569, Poly_aftertouch_c, 0, 63, 28
1, 61573, Control_c, 0, 64, 115
1, 61577, Note_on_c, 0, 63, 67
1, 61583, Poly_aftertouch_c, 0, 56, 28
1, 61586, Note_on_c, 0, 56, 59
1, 61590, Poly_aftertouch_c, 0, 60, 28
1, 61592, Control_c, 0, 64, 127
1, 61595, Note_on_c, 0, 60, 55
1, 61644, Note_off_c, 0, 60, 55
1, 61668, Note_off_c, 0, 63, 59
1, 61688, Note_off_c, 0, 56, 53
1, 61752, Poly_aftertouch_c, 0, 78, 28
1, 61757, Note_on_c, 0, 78, 85
1, 61759, Poly_aftertouch_c, 0, 75, 28
1, 61762, Note_on_c, 0, 75, 72
1, 61771, Poly_aftertouch_c, 0, 71, 28
1, 61774, Note_on_c, 0, 71, 59
1, 61778, Poly_aftertouch_c, 0, 68, 28
1, 61779, Control_c, 0, 64, 91
1, 61781, Note_on_c, 0, 68, 58
1, 61798, Control_c, 0, 64, 68
1, 61817, Control_c, 0, 64, 50
1, 61835, Control_c, 0, 64, 41
1, 61892, Control_c, 0, 64, 43
1, 61910, Control_c, 0, 64, 52
1, 61930, Control_c, 0, 64, 61
1, 61947, Control_c, 0, 64, 68
1, 61959, Poly_aftertouch_c, 0, 63, 28
1, 61961, Note_off_c, 0, 75, 57
1, 61961, Poly_aftertouch_c, 0, 65, 28
1, 61965, Note_on_c, 0, 63, 50
1, 61966, Note_on_c, 0, 65, 60
1, 61966, Control_c, 0, 64, 75
1, 61968, Note_on_c, 0, 59, 49
1, 61968, Poly_aftertouch_c, 0, 59, 28
1, 61969, Note_off_c, 0, 68, 47
1, 61970, Note_off_c, 0, 71, 36
1, 61974, Poly_aftertouch_c, 0, 56, 28
1, 61979, Note_on_c, 0, 56, 40
1, 61986, Control_c, 0, 64, 83
1, 62005, Control_c, 0, 64, 94
1, 62010, Note_off_c, 0, 78, 60
1, 62022, Control_c, 0, 64, 110
1, 62041, Control_c, 0, 64, 127
1, 62113, Note_off_c, 0, 65, 58
1, 62118, Note_off_c, 0, 59, 48
1, 62122, Note_off_c, 0, 63, 58
1, 62122, Note_off_c, 0, 56, 51
1, 62126, Poly_aftertouch_c, 0, 68, 28
1, 62126, Poly_aftertouch_c, 0, 75, 28
1, 62133, Note_on_c, 0, 77, 70
1, 62136, Note_on_c, 0, 68, 58
1, 62136, Note_on_c, 0, 75, 57
1, 62137, Note_on_c, 0, 71, 54
1, 62137, Poly_aftertouch_c, 0, 71, 28
1, 62138, Poly_aftertouch_c, 0, 77, 28
1, 62153, Control_c, 0, 67, 62
1, 62228, Control_c, 0, 67, 58
1, 62266, Control_c, 0, 64, 90
1, 62268, Control_c, 0, 67, 53
1, 62275, Note_off_c, 0, 68, 37
1, 62275, Note_off_c, 0, 71, 48
1, 62276, Note_off_c, 0, 77, 57
1, 62281, Note_on_c, 0, 66, 89
1, 62283, Poly_aftertouch_c, 0, 59, 28
1, 62283, Poly_aftertouch_c, 0, 63, 28
1, 62284, Note_off_c, 0, 75, 57
1, 62284, Poly_aftertouch_c, 0, 66, 28
1, 62284, Control_c, 0, 64, 67
1, 62288, Note_on_c, 0, 59, 62
1, 62289, Note_on_c, 0, 63, 63
1, 62303, Poly_aftertouch_c, 0, 56, 28
1, 62306, Control_c, 0, 64, 50
1, 62306, Control_c, 0, 67, 47
1, 62311, Note_on_c, 0, 56, 47
1, 62322, Control_c, 0, 64, 42
1, 62323, Control_c, 0, 67, 42
1, 62341, Control_c, 0, 67, 35
1, 62359, Control_c, 0, 67, 27
1, 62379, Control_c, 0, 64, 46
1, 62381, Control_c, 0, 67, 20
1, 62398, Control_c, 0, 64, 55
1, 62399, Control_c, 0, 67, 12
1, 62406, Note_off_c, 0, 63, 56
1, 62416, Control_c, 0, 64, 63
1, 62428, Poly_aftertouch_c, 0, 75, 28
1, 62434, Control_c, 0, 64, 69
1, 62435, Note_on_c, 0, 75, 68
1, 62435, Control_c, 0, 67, 0
1, 62436, Note_on_c, 0, 77, 73
1, 62436, Poly_aftertouch_c, 0, 68, 28
1, 62437, Poly_aftertouch_c, 0, 71, 28
1, 62437, Poly_aftertouch_c, 0, 77, 28
1, 62441, Note_on_c, 0, 68, 64
1, 62443, Note_off_c, 0, 59, 53
1, 62443, Note_on_c, 0, 71, 61
1, 62452, Control_c, 0, 64, 74
1, 62472, Control_c, 0, 64, 80
1, 62475, Note_off_c, 0, 56, 35
1, 62476, Note_off_c, 0, 68, 66
1, 62481, Note_off_c, 0, 66, 53
1, 62490, Control_c, 0, 64, 89
1, 62494, Note_off_c, 0, 71, 62
1, 62509, Control_c, 0, 64, 98
1, 62522, Note_off_c, 0, 77, 62
1, 62528, Control_c, 0, 64, 112
1, 62546, Note_off_c, 0, 75, 63
1, 62546, Control_c, 0, 64, 127
1, 62580, Poly_aftertouch_c, 0, 63, 28
1, 62581, Poly_aftertouch_c, 0, 65, 28
1, 62585, Note_on_c, 0, 63, 62
1, 62586, Note_on_c, 0, 65, 70
1, 62592, Poly_aftertouch_c, 0, 56, 28
1, 62595, Note_on_c, 0, 56, 66
1, 62604, Poly_aftertouch_c, 0, 59, 28
1, 62606, Note_on_c, 0, 59, 53
1, 62632, Note_off_c, 0, 56, 63
1, 62634, Note_off_c, 0, 65, 52
1, 62640, Note_off_c, 0, 59, 55
1, 62660, Note_off_c, 0, 63, 58
1, 62827, Control_c, 0, 64, 114
1, 62846, Poly_aftertouch_c, 0, 82, 28
1, 62846, Control_c, 0, 64, 81
1, 62852, Note_on_c, 0, 82, 86
1, 62866, Control_c, 0, 64, 57
1, 62874, Note_on_c, 0, 77, 60
1, 62875, Poly_aftertouch_c, 0, 75, 28
1, 62876, Poly_aftertouch_c, 0, 77, 28
1, 62883, Note_on_c, 0, 75, 58
1, 62884, Control_c, 0, 64, 35
1, 62891, Poly_aftertouch_c, 0, 71, 28
1, 62895, Note_on_c, 0, 71, 62
1, 62903, Control_c, 0, 64, 24
1, 62978, Control_c, 0, 64, 33
1, 62996, Control_c, 0, 64, 47
1, 63003, Note_off_c, 0, 71, 55
1, 63008, Note_off_c, 0, 75, 58
1, 63014, Control_c, 0, 64, 64
1, 63035, Note_off_c, 0, 77, 55
1, 63035, Control_c, 0, 64, 75
1, 63040, Poly_aftertouch_c, 0, 63, 28
1, 63041, Poly_aftertouch_c, 0, 68, 28
1, 63045, Note_on_c, 0, 63, 60
1, 63047, Note_on_c, 0, 68, 61
1, 63048, Poly_aftertouch_c, 0, 65, 28
1, 63052, Note_on_c, 0, 65, 53
1, 63054, Control_c, 0, 64, 85
1, 63068, Note_on_c, 0, 59, 43
1, 63068, Poly_aftertouch_c, 0, 59, 28
1, 63070, Note_off_c, 0, 82, 64
1, 63070, Control_c, 0, 64, 98
1, 63071, Control_c, 0, 67, 8
1, 63078, Note_off_c, 0, 63, 66
1, 63080, Note_off_c, 0, 65, 57
1, 63080, Note_off_c, 0, 68, 65
1, 63088, Control_c, 0, 64, 111
1, 63104, Note_off_c, 0, 59, 49
1, 63108, Control_c, 0, 64, 127
1, 63219, Poly_aftertouch_c, 0, 80, 28
1, 63225, Note_on_c, 0, 80, 72
1, 63225, Poly_aftertouch_c, 0, 75, 28
1, 63231, Note_on_c, 0, 75, 62
1, 63240, Poly_aftertouch_c, 0, 71, 28
1, 63248, Note_on_c, 0, 71, 50
1, 63259, Note_off_c, 0, 80, 64
1, 63266, Note_off_c, 0, 75, 69
1, 63277, Note_off_c, 0, 71, 56
1, 63329, Poly_aftertouch_c, 0, 77, 28
1, 63330, Poly_aftertouch_c, 0, 77, 0
1, 63371, Poly_aftertouch_c, 0, 56, 28
1, 63378, Note_on_c, 0, 56, 67
1, 63378, Poly_aftertouch_c, 0, 47, 28
1, 63379, Poly_aftertouch_c, 0, 51, 28
1, 63379, Poly_aftertouch_c, 0, 53, 28
1, 63381, Note_on_c, 0, 47, 59
1, 63382, Note_on_c, 0, 53, 64
1, 63385, Note_on_c, 0, 51, 62
1, 63389, Control_c, 0, 64, 90
1, 63408, Control_c, 0, 64, 67
1, 63427, Control_c, 0, 64, 50
1, 63445, Control_c, 0, 64, 42
1, 63452, Note_off_c, 0, 47, 59
1, 63453, Note_off_c, 0, 51, 62
1, 63457, Note_off_c, 0, 53, 61
1, 63466, Note_off_c, 0, 56, 55
1, 63483, Control_c, 0, 64, 45
1, 63501, Control_c, 0, 64, 52
1, 63513, Poly_aftertouch_c, 0, 58, 28
1, 63514, Poly_aftertouch_c, 0, 62, 28
1, 63516, Note_on_c, 0, 68, 75
1, 63518, Note_on_c, 0, 58, 70
1, 63520, Note_on_c, 0, 62, 57
1, 63520, Poly_aftertouch_c, 0, 65, 28
1, 63520, Poly_aftertouch_c, 0, 68, 28
1, 63520, Control_c, 0, 64, 60
1, 63523, Note_on_c, 0, 65, 64
1, 63540, Control_c, 0, 64, 66
1, 63551, Note_off_c, 0, 58, 67
1, 63556, Control_c, 0, 64, 72
1, 63563, Note_off_c, 0, 62, 63
1, 63576, Control_c, 0, 64, 78
1, 63579, Note_off_c, 0, 65, 60
1, 63596, Control_c, 0, 64, 89
1, 63599, Note_off_c, 0, 68, 64
1, 63613, Control_c, 0, 64, 103
1, 63632, Control_c, 0, 64, 127
1, 63651, Poly_aftertouch_c, 0, 56, 28
1, 63657, Note_on_c, 0, 56, 68
1, 63658, Poly_aftertouch_c, 0, 46, 28
1, 63658, Poly_aftertouch_c, 0, 50, 28
1, 63663, Note_on_c, 0, 50, 66
1, 63664, Note_on_c, 0, 46, 67
1, 63667, Note_on_c, 0, 53, 63
1, 63667, Poly_aftertouch_c, 0, 53, 28
1, 63701, Note_off_c, 0, 50, 65
1, 63701, Note_off_c, 0, 46, 65
1, 63705, Note_off_c, 0, 53, 63
1, 63723, Note_off_c, 0, 56, 59
1, 63821, Poly_aftertouch_c, 0, 80, 28
1, 63827, Note_on_c, 0, 80, 87
1, 63839, Note_on_c, 0, 77, 69
1, 63841, Poly_aftertouch_c, 0, 70, 28
1, 63841, Poly_aftertouch_c, 0, 77, 28
1, 63847, Note_on_c, 0, 70, 63
1, 63857, Control_c, 0, 67, 12
1, 63871, Poly_aftertouch_c, 0, 74, 28
1, 63875, Note_on_c, 0, 74, 47
1, 63876, Control_c, 0, 64, 86
1, 63894, Control_c, 0, 64, 54
1, 63914, Control_c, 0, 64, 24
1, 63921, Note_off_c, 0, 74, 46
1, 63933, Control_c, 0, 64, 9
1, 63949, Note_off_c, 0, 77, 58
1, 63974, Poly_aftertouch_c, 0, 66, 28
1, 63975, Note_off_c, 0, 70, 56
1, 63979, Poly_aftertouch_c, 0, 58, 28
1, 63979, Poly_aftertouch_c, 0, 63, 28
1, 63983, Note_on_c, 0, 63, 60
1, 63983, Note_on_c, 0, 66, 63
1, 63987, Note_on_c, 0, 58, 64
1, 63988, Control_c, 0, 64, 18
1, 64007, Control_c, 0, 64, 31
1, 64017, Note_off_c, 0, 66, 65
1, 64025, Note_off_c, 0, 63, 66
1, 64025, Control_c, 0, 64, 49
1, 64033, Note_off_c, 0, 58, 66
1, 64045, Control_c, 0, 64, 67
1, 64063, Control_c, 0, 64, 79
1, 64082, Control_c, 0, 64, 90
1, 64101, Control_c, 0, 64, 100
1, 64119, Control_c, 0, 64, 111
1, 64135, Poly_aftertouch_c, 0, 70, 28
1, 64135, Poly_aftertouch_c, 0, 75, 28
1, 64136, Poly_aftertouch_c, 0, 78, 28
1, 64140, Control_c, 0, 64, 127
1, 64142, Note_on_c, 0, 75, 67
1, 64142, Note_on_c, 0, 78, 73
1, 64144, Note_on_c, 0, 70, 66
1, 64154, Note_off_c, 0, 80, 64
1, 64171, Note_off_c, 0, 75, 70
1, 64175, Note_off_c, 0, 78, 64
1, 64179, Note_off_c, 0, 70, 65
1, 64278, Poly_aftertouch_c, 0, 51, 28
1, 64282, Note_on_c, 0, 51, 60
1, 64284, Poly_aftertouch_c, 0, 46, 28
1, 64285, Poly_aftertouch_c, 0, 54, 28
1, 64288, Note_on_c, 0, 54, 58
1, 64291, Poly_aftertouch_c, 0, 48, 28
1, 64294, Note_on_c, 0, 46, 55
1, 64298, Note_on_c, 0, 48, 51
1, 64345, Note_off_c, 0, 48, 59
1, 64351, Note_off_c, 0, 54, 56
1, 64367, Note_off_c, 0, 46, 50
1, 64373, Note_off_c, 0, 51, 56
1, 64438, Control_c, 0, 64, 83
1, 64456, Control_c, 0, 64, 59
1, 64465, Poly_aftertouch_c, 0, 66, 28
1, 64470, Note_on_c, 0, 66, 62
1, 64471, Poly_aftertouch_c, 0, 57, 28
1, 64471, Poly_aftertouch_c, 0, 60, 28
1, 64472, Poly_aftertouch_c, 0, 63, 28
1, 64475, Note_on_c, 0, 60, 54
1, 64475, Control_c, 0, 64, 40
1, 64477, Note_on_c, 0, 57, 58
1, 64479, Note_on_c, 0, 63, 50
1, 64493, Control_c, 0, 64, 34
1, 64531, Control_c, 0, 64, 39
1, 64532, Note_off_c, 0, 60, 60
1, 64540, Note_off_c, 0, 57, 59
1, 64549, Control_c, 0, 64, 51
1, 64566, Note_off_c, 0, 63, 62
1, 64568, Control_c, 0, 64, 66
1, 64587, Control_c, 0, 64, 78
1, 64593, Note_off_c, 0, 66, 63
1, 64606, Control_c, 0, 64, 94
1, 64625, Control_c, 0, 64, 127
1, 64630, Poly_aftertouch_c, 0, 48, 28
1, 64636, Note_on_c, 0, 48, 52
1, 64636, Poly_aftertouch_c, 0, 45, 28
1, 64636, Poly_aftertouch_c, 0, 51, 28
1, 64637, Poly_aftertouch_c, 0, 54, 28
1, 64641, Note_on_c, 0, 51, 53
1, 64643, Note_on_c, 0, 54, 52
1, 64644, Note_on_c, 0, 45, 49
1, 64682, Note_off_c, 0, 48, 63
1, 64682, Note_off_c, 0, 45, 61
1, 64696, Note_off_c, 0, 51, 61
1, 64721, Note_off_c, 0, 54, 60
1, 64862, Poly_aftertouch_c, 0, 78, 28
1, 64871, Note_on_c, 0, 78, 69
1, 64871, Poly_aftertouch_c, 0, 74, 28
1, 64877, Note_on_c, 0, 74, 52
1, 64897, Poly_aftertouch_c, 0, 70, 28
1, 64905, Control_c, 0, 64, 98
1, 64913, Note_on_c, 0, 70, 33
1, 64924, Control_c, 0, 64, 71
1, 64944, Control_c, 0, 64, 50
1, 64961, Control_c, 0, 64, 36
1, 65037, Control_c, 0, 64, 45
1, 65041, Poly_aftertouch_c, 0, 62, 28
1, 65042, Poly_aftertouch_c, 0, 65, 28
1, 65046, Note_on_c, 0, 65, 54
1, 65047, Poly_aftertouch_c, 0, 58, 28
1, 65050, Note_on_c, 0, 62, 47
1, 65053, Note_on_c, 0, 58, 51
1, 65055, Control_c, 0, 64, 58
1, 65075, Control_c, 0, 64, 69
1, 65082, Note_off_c, 0, 78, 62
1, 65093, Control_c, 0, 64, 78
1, 65100, Note_off_c, 0, 74, 52
1, 65111, Control_c, 0, 64, 93
1, 65128, Note_off_c, 0, 70, 44
1, 65129, Control_c, 0, 64, 127
1, 65199, Note_off_c, 0, 65, 53
1, 65205, Poly_aftertouch_c, 0, 77, 28
1, 65208, Note_on_c, 0, 77, 68
1, 65211, Poly_aftertouch_c, 0, 70, 28
1, 65216, Note_off_c, 0, 62, 43
1, 65217, Poly_aftertouch_c, 0, 74, 28
1, 65221, Note_on_c, 0, 70, 58
1, 65223, Note_on_c, 0, 74, 52
1, 65237, Note_off_c, 0, 58, 58
1, 65272, Note_off_c, 0, 74, 58
1, 65276, Note_off_c, 0, 70, 57
1, 65317, Control_c, 0, 64, 107
1, 65337, Control_c, 0, 64, 77
1, 65342, Poly_aftertouch_c, 0, 62, 28
1, 65347, Poly_aftertouch_c, 0, 58, 28
1, 65350, Note_on_c, 0, 62, 67
1, 65354, Poly_aftertouch_c, 0, 54, 28
1, 65355, Note_on_c, 0, 58, 56
1, 65355, Control_c, 0, 64, 55
1, 65360, Note_on_c, 0, 54, 63
1, 65374, Control_c, 0, 64, 41
1, 65430, Control_c, 0, 64, 48
1, 65448, Control_c, 0, 64, 59
1, 65467, Note_off_c, 0, 58, 59
1, 65467, Control_c, 0, 64, 69
1, 65477, Note_off_c, 0, 62, 59
1, 65478, Poly_aftertouch_c, 0, 74, 28
1, 65484, Note_on_c, 0, 74, 70
1, 65485, Poly_aftertouch_c, 0, 70, 28
1, 65485, Control_c, 0, 64, 79
1, 65491, Note_off_c, 0, 77, 62
1, 65491, Note_on_c, 0, 70, 65
1, 65491, Poly_aftertouch_c, 0, 65, 28
1, 65495, Note_on_c, 0, 65, 58
1, 65496, Note_off_c, 0, 54, 52
1, 65503, Control_c, 0, 64, 96
1, 65523, Note_off_c, 0, 74, 63
1, 65523, Control_c, 0, 64, 127
1, 65534, Note_off_c, 0, 70, 62
1, 65544, Note_off_c, 0, 65, 61
1, 65621, Poly_aftertouch_c, 0, 58, 28
1, 65630, Note_on_c, 0, 58, 61
1, 65631, Poly_aftertouch_c, 0, 62, 28
1, 65634, Note_on_c, 0, 62, 55
1, 65642, Poly_aftertouch_c, 0, 53, 28
1, 65644, Note_on_c, 0, 53, 66
1, 65662, Note_off_c, 0, 62, 61
1, 65670, Note_off_c, 0, 58, 67
1, 65695, Note_off_c, 0, 53, 59
1, 65787, Poly_aftertouch_c, 0, 66, 28
1, 65791, Poly_aftertouch_c, 0, 62, 28
1, 65793, Note_on_c, 0, 66, 71
1, 65800, Note_on_c, 0, 62, 47
1, 65803, Poly_aftertouch_c, 0, 58, 28
1, 65806, Control_c, 0, 64, 98
1, 65814, Note_on_c, 0, 58, 35
1, 65824, Control_c, 0, 64, 72
1, 65841, Control_c, 0, 64, 54
1, 65861, Control_c, 0, 64, 50
1, 65880, Control_c, 0, 64, 53
1, 65898, Control_c, 0, 64, 58
1, 65916, Control_c, 0, 64, 65
1, 65937, Control_c, 0, 64, 73
1, 65953, Control_c, 0, 64, 85
1, 65969, Poly_aftertouch_c, 0, 46, 28
1, 65971, Control_c, 0, 64, 108
1, 65975, Note_on_c, 0, 46, 73
1, 65991, Control_c, 0, 64, 127
1, 66000, Note_off_c, 0, 58, 54
1, 66005, Note_off_c, 0, 62, 58
1, 66015, Note_off_c, 0, 66, 55
1, 66040, Poly_aftertouch_c, 0, 53, 28
1, 66048, Note_on_c, 0, 53, 26
1, 66122, Control_c, 0, 64, 87
1, 66142, Control_c, 0, 64, 65
1, 66144, Poly_aftertouch_c, 0, 50, 28
1, 66145, Poly_aftertouch_c, 0, 50, 0
1, 66159, Control_c, 0, 64, 56
1, 66168, Poly_aftertouch_c, 0, 58, 28
1, 66173, Poly_aftertouch_c, 0, 65, 28
1, 66179, Note_on_c, 0, 58, 49
1, 66179, Control_c, 0, 64, 58
1, 66183, Note_on_c, 0, 65, 56
1, 66185, Note_off_c, 0, 53, 32
1, 66190, Poly_aftertouch_c, 0, 62, 28
1, 66198, Note_on_c, 0, 62, 41
1, 66198, Control_c, 0, 64, 63
1, 66217, Control_c, 0, 64, 69
1, 66234, Control_c, 0, 64, 80
1, 66238, Note_off_c, 0, 46, 62
1, 66254, Control_c, 0, 64, 102
1, 66272, Control_c, 0, 64, 127
1, 66308, Note_off_c, 0, 58, 52
1, 66323, Note_off_c, 0, 62, 50
1, 66363, Poly_aftertouch_c, 0, 42, 28
1, 66370, Note_on_c, 0, 42, 66
1, 66403, Control_c, 0, 64, 119
1, 66422, Control_c, 0, 64, 78
1, 66441, Control_c, 0, 64, 53
1, 66459, Control_c, 0, 64, 37
1, 66515, Control_c, 0, 64, 48
1, 66534, Control_c, 0, 64, 64
1, 66553, Control_c, 0, 64, 80
1, 66558, Note_off_c, 0, 65, 58
1, 66571, Control_c, 0, 64, 106
1, 66589, Control_c, 0, 64, 127
1, 66590, Poly_aftertouch_c, 0, 62, 28
1, 66594, Note_on_c, 0, 62, 54
1, 66596, Poly_aftertouch_c, 0, 58, 28
1, 66600, Poly_aftertouch_c, 0, 53, 28
1, 66603, Note_on_c, 0, 58, 53
1, 66603, Note_on_c, 0, 53, 48
1, 66637, Note_off_c, 0, 42, 35
1, 66712, Note_off_c, 0, 62, 60
1, 66728, Note_off_c, 0, 58, 59
1, 66783, Note_off_c, 0, 53, 59
1, 66806, Poly_aftertouch_c, 0, 41, 28
1, 66815, Note_on_c, 0, 41, 57
1, 66815, Control_c, 0, 64, 108
1, 66833, Control_c, 0, 64, 73
1, 66845, Poly_aftertouch_c, 0, 46, 28
1, 66852, Control_c, 0, 64, 49
1, 66855, Note_on_c, 0, 46, 43
1, 66871, Control_c, 0, 64, 41
1, 66889, Control_c, 0, 64, 44
1, 66908, Control_c, 0, 64, 53
1, 66927, Control_c, 0, 64, 64
1, 66947, Control_c, 0, 64, 77
1, 66964, Control_c, 0, 64, 97
1, 66977, Note_off_c, 0, 46, 54
1, 66982, Control_c, 0, 64, 127
1, 67051, Note_off_c, 0, 41, 60
1, 67065, Poly_aftertouch_c, 0, 58, 28
1, 67074, Note_on_c, 0, 58, 52
1, 67088, Poly_aftertouch_c, 0, 50, 28
1, 67093, Poly_aftertouch_c, 0, 53, 28
1, 67098, Note_on_c, 0, 53, 38
1, 67099, Note_on_c, 0, 50, 35
1, 67275, Note_off_c, 0, 50, 41
1, 67330, Note_off_c, 0, 53, 39
1, 67405, Note_off_c, 0, 58, 61
1, 67504, Poly_aftertouch_c, 0, 22, 28
1, 67507, Note_on_c, 0, 22, 61
1, 67545, Control_c, 0, 64, 121
1, 67562, Poly_aftertouch_c, 0, 34, 28
1, 67562, Control_c, 0, 64, 86
1, 67583, Control_c, 0, 64, 62
1, 67602, Control_c, 0, 64, 44
1, 67617, Poly_aftertouch_c, 0, 34, 127
1, 67619, Control_c, 0, 64, 37
1, 67657, Control_c, 0, 64, 43
1, 67677, Control_c, 0, 64, 56
1, 67679, Poly_aftertouch_c, 0, 34, 0
1, 67694, Control_c, 0, 64, 70
1, 67714, Control_c, 0, 64, 85
1, 67733, Control_c, 0, 64, 109
1, 67751, Control_c, 0, 64, 127
1, 67759, Note_off_c, 0, 22, 53
1, 67913, Poly_aftertouch_c, 0, 77, 28
1, 67915, Note_on_c, 0, 77, 66
1, 67922, Poly_aftertouch_c, 0, 65, 28
1, 67927, Note_on_c, 0, 65, 51
1, 67975, Control_c, 0, 67, 8
1, 67986, Note_off_c, 0, 65, 62
1, 68022, Note_off_c, 0, 77, 61
1, 68130, Poly_aftertouch_c, 0, 82, 28
1, 68135, Note_on_c, 0, 82, 82
1, 68147, Poly_aftertouch_c, 0, 70, 28
1, 68155, Note_on_c, 0, 70, 56
1, 68191, Note_off_c, 0, 70, 58
1, 68418, Poly_aftertouch_c, 0, 85, 28
1, 68424, Note_on_c, 0, 85, 80
1, 68435, Poly_aftertouch_c, 0, 73, 28
1, 68440, Note_off_c, 0, 82, 62
1, 68443, Note_on_c, 0, 73, 51
1, 68674, Note_off_c, 0, 73, 54
1, 68743, Control_c, 0, 64, 96
1, 68751, Poly_aftertouch_c, 0, 72, 28
1, 68756, Poly_aftertouch_c, 0, 54, 28
1, 68757, Poly_aftertouch_c, 0, 66, 28
1, 68758, Poly_aftertouch_c, 0, 84, 28
1, 68761, Note_on_c, 0, 72, 49
1, 68762, Note_on_c, 0, 66, 54
1, 68762, Note_on_c, 0, 84, 70
1, 68762, Control_c, 0, 64, 70
1, 68764, Note_on_c, 0, 54, 49
1, 68781, Control_c, 0, 64, 53
1, 68783, Note_off_c, 0, 85, 49
1, 68798, Control_c, 0, 64, 50
1, 68818, Control_c, 0, 64, 54
1, 68835, Control_c, 0, 64, 60
1, 68855, Control_c, 0, 64, 68
1, 68859, Note_off_c, 0, 66, 61
1, 68874, Control_c, 0, 64, 79
1, 68878, Note_off_c, 0, 54, 61
1, 68893, Control_c, 0, 64, 99
1, 68911, Control_c, 0, 64, 127
1, 69004, Poly_aftertouch_c, 0, 51, 28
1, 69005, Poly_aftertouch_c, 0, 63, 28
1, 69008, Note_on_c, 0, 51, 66
1, 69010, Note_on_c, 0, 63, 62
1, 69054, Note_off_c, 0, 51, 57
1, 69062, Note_off_c, 0, 63, 54
1, 69197, Poly_aftertouch_c, 0, 48, 28
1, 69201, Note_on_c, 0, 48, 67
1, 69203, Poly_aftertouch_c, 0, 60, 28
1, 69209, Note_on_c, 0, 60, 56
1, 69239, Note_off_c, 0, 60, 59
1, 69243, Note_off_c, 0, 48, 61
1, 69358, Poly_aftertouch_c, 0, 45, 28
1, 69361, Note_on_c, 0, 45, 72
1, 69365, Poly_aftertouch_c, 0, 57, 28
1, 69369, Note_on_c, 0, 57, 61
1, 69404, Note_off_c, 0, 45, 60
1, 69408, Note_off_c, 0, 57, 65
1, 69514, Poly_aftertouch_c, 0, 42, 28
1, 69520, Note_on_c, 0, 42, 72
1, 69525, Poly_aftertouch_c, 0, 54, 28
1, 69530, Note_on_c, 0, 54, 57
1, 69565, Note_off_c, 0, 54, 57
1, 69567, Note_off_c, 0, 42, 62
1, 69676, Poly_aftertouch_c, 0, 39, 28
1, 69682, Note_on_c, 0, 39, 73
1, 69683, Poly_aftertouch_c, 0, 51, 28
1, 69685, Note_on_c, 0, 51, 67
1, 69727, Note_off_c, 0, 51, 63
1, 69731, Note_off_c, 0, 39, 62
1, 69830, Poly_aftertouch_c, 0, 48, 28
1, 69836, Note_on_c, 0, 48, 67
1, 69837, Poly_aftertouch_c, 0, 36, 28
1, 69841, Note_on_c, 0, 36, 67
1, 69871, Note_off_c, 0, 48, 64
1, 69874, Note_off_c, 0, 36, 54
1, 70009, Note_on_c, 0, 33, 63
1, 70011, Poly_aftertouch_c, 0, 33, 28
1, 70022, Poly_aftertouch_c, 0, 45, 28
1, 70024, Note_on_c, 0, 45, 39
1, 70042, Note_off_c, 0, 33, 55
1, 70071, Note_off_c, 0, 45, 46
1, 70089, Poly_aftertouch_c, 0, 47, 28
1, 70090, Poly_aftertouch_c, 0, 47, 0
1, 70107, Poly_aftertouch_c, 0, 35, 28
1, 70107, Poly_aftertouch_c, 0, 35, 0
1, 70322, Poly_aftertouch_c, 0, 34, 28
1, 70326, Note_on_c, 0, 34, 78
1, 70333, Control_c, 0, 64, 106
1, 70353, Control_c, 0, 64, 73
1, 70355, Note_on_c, 0, 23, 48
1, 70355, Poly_aftertouch_c, 0, 23, 28
1, 70370, Note_off_c, 0, 72, 42
1, 70371, Control_c, 0, 64, 47
1, 70391, Control_c, 0, 64, 27
1, 70409, Control_c, 0, 64, 21
1, 70422, Note_off_c, 0, 84, 62
1, 70427, Control_c, 0, 67, 0
1, 70437, Note_off_c, 0, 23, 48
1, 70465, Control_c, 0, 64, 34
1, 70483, Control_c, 0, 64, 50
1, 70502, Control_c, 0, 64, 69
1, 70521, Control_c, 0, 64, 86
1, 70540, Control_c, 0, 64, 127
1, 70560, Note_off_c, 0, 34, 54
1, 70630, Poly_aftertouch_c, 0, 75, 28
1, 70631, Poly_aftertouch_c, 0, 87, 28
1, 70633, Note_on_c, 0, 87, 61
1, 70634, Note_on_c, 0, 75, 64
1, 70673, Note_off_c, 0, 87, 65
1, 70677, Note_off_c, 0, 75, 64
1, 70802, Poly_aftertouch_c, 0, 85, 28
1, 70805, Note_on_c, 0, 85, 73
1, 70808, Poly_aftertouch_c, 0, 73, 28
1, 70810, Note_on_c, 0, 73, 67
1, 70845, Note_off_c, 0, 73, 63
1, 70883, Note_off_c, 0, 85, 61
1, 70973, Poly_aftertouch_c, 0, 84, 28
1, 70978, Note_on_c, 0, 84, 76
1, 70980, Note_on_c, 0, 72, 73
1, 70980, Poly_aftertouch_c, 0, 72, 28
1, 71014, Note_off_c, 0, 72, 61
1, 71025, Note_off_c, 0, 84, 56
1, 71139, Control_c, 0, 64, 105
1, 71158, Control_c, 0, 64, 74
1, 71176, Poly_aftertouch_c, 0, 82, 28
1, 71176, Control_c, 0, 64, 55
1, 71182, Note_on_c, 0, 82, 75
1, 71182, Poly_aftertouch_c, 0, 55, 28
1, 71184, Poly_aftertouch_c, 0, 67, 28
1, 71184, Poly_aftertouch_c, 0, 70, 28
1, 71188, Note_on_c, 0, 70, 71
1, 71189, Note_on_c, 0, 67, 64
1, 71190, Note_on_c, 0, 55, 65
1, 71194, Control_c, 0, 64, 51
1, 71213, Control_c, 0, 64, 56
1, 71228, Note_off_c, 0, 67, 60
1, 71233, Control_c, 0, 64, 62
1, 71252, Control_c, 0, 64, 70
1, 71257, Note_off_c, 0, 55, 61
1, 71270, Control_c, 0, 64, 85
1, 71289, Control_c, 0, 64, 127
1, 71373, Poly_aftertouch_c, 0, 52, 28
1, 71374, Poly_aftertouch_c, 0, 64, 28
1, 71379, Note_on_c, 0, 64, 65
1, 71379, Note_on_c, 0, 52, 67
1, 71406, Note_off_c, 0, 52, 60
1, 71410, Note_off_c, 0, 64, 63
1, 71538, Note_on_c, 0, 49, 68
1, 71538, Poly_aftertouch_c, 0, 49, 28
1, 71543, Note_on_c, 0, 61, 60
1, 71543, Poly_aftertouch_c, 0, 61, 28
1, 71575, Note_off_c, 0, 61, 60
1, 71583, Note_off_c, 0, 49, 63
1, 71689, Poly_aftertouch_c, 0, 46, 28
1, 71697, Poly_aftertouch_c, 0, 58, 28
1, 71699, Note_on_c, 0, 46, 74
1, 71702, Note_on_c, 0, 58, 68
1, 71745, Note_off_c, 0, 58, 65
1, 71752, Note_off_c, 0, 46, 56
1, 71844, Poly_aftertouch_c, 0, 43, 28
1, 71847, Note_on_c, 0, 43, 80
1, 71850, Poly_aftertouch_c, 0, 55, 28
1, 71853, Note_on_c, 0, 55, 69
1, 71878, Note_off_c, 0, 55, 62
1, 71891, Note_off_c, 0, 43, 60
1, 72005, Poly_aftertouch_c, 0, 40, 28
1, 72008, Note_on_c, 0, 40, 77
1, 72011, Poly_aftertouch_c, 0, 52, 28
1, 72014, Note_on_c, 0, 52, 64
1, 72043, Note_off_c, 0, 40, 65
1, 72044, Note_off_c, 0, 52, 61
1, 72146, Poly_aftertouch_c, 0, 37, 28
1, 72151, Note_on_c, 0, 37, 78
1, 72154, Note_on_c, 0, 49, 74
1, 72154, Poly_aftertouch_c, 0, 49, 28
1, 72189, Note_off_c, 0, 49, 66
1, 72197, Note_off_c, 0, 37, 59
1, 72308, Poly_aftertouch_c, 0, 34, 28
1, 72310, Poly_aftertouch_c, 0, 46, 28
1, 72312, Note_on_c, 0, 34, 80
1, 72314, Note_on_c, 0, 46, 71
1, 72345, Note_off_c, 0, 82, 62
1, 72347, Note_off_c, 0, 46, 70
1, 72370, Note_off_c, 0, 34, 59
1, 72378, Note_off_c, 0, 70, 56
1, 72579, Poly_aftertouch_c, 0, 34, 28
1, 72580, Note_on_c, 0, 34, 84
1, 72584, Note_on_c, 0, 22, 80
1, 72585, Poly_aftertouch_c, 0, 22, 28
1, 72618, Control_c, 0, 64, 82
1, 72637, Control_c, 0, 64, 58
1, 72656, Control_c, 0, 64, 38
1, 72674, Control_c, 0, 64, 32
1, 72730, Control_c, 0, 64, 45
1, 72734, Note_off_c, 0, 22, 60
1, 72749, Control_c, 0, 64, 60
1, 72767, Control_c, 0, 64, 72
1, 72772, Note_off_c, 0, 34, 56
1, 72784, Poly_aftertouch_c, 0, 77, 28
1, 72785, Control_c, 0, 64, 83
1, 72787, Note_on_c, 0, 77, 76
1, 72790, Poly_aftertouch_c, 0, 65, 28
1, 72797, Note_on_c, 0, 65, 63
1, 72804, Control_c, 0, 64, 100
1, 72824, Control_c, 0, 64, 127
1, 72827, Note_off_c, 0, 65, 62
1, 72848, Note_off_c, 0, 77, 60
1, 72942, Poly_aftertouch_c, 0, 82, 28
1, 72949, Note_on_c, 0, 82, 86
1, 72957, Poly_aftertouch_c, 0, 70, 28
1, 72962, Note_on_c, 0, 70, 68
1, 72995, Note_off_c, 0, 70, 68
1, 73043, Note_off_c, 0, 82, 62
1, 73137, Poly_aftertouch_c, 0, 85, 28
1, 73140, Note_on_c, 0, 85, 88
1, 73143, Poly_aftertouch_c, 0, 73, 28
1, 73145, Note_on_c, 0, 73, 81
1, 73289, Note_off_c, 0, 73, 55
1, 73367, Control_c, 0, 64, 104
1, 73384, Control_c, 0, 64, 71
1, 73403, Control_c, 0, 64, 47
1, 73407, Poly_aftertouch_c, 0, 86, 28
1, 73412, Note_on_c, 0, 86, 84
1, 73413, Poly_aftertouch_c, 0, 68, 28
1, 73414, Poly_aftertouch_c, 0, 74, 28
1, 73415, Note_off_c, 0, 85, 64
1, 73417, Note_on_c, 0, 74, 80
1, 73418, Note_on_c, 0, 68, 82
1, 73421, Poly_aftertouch_c, 0, 56, 28
1, 73421, Control_c, 0, 64, 34
1, 73424, Note_on_c, 0, 56, 73
1, 73460, Control_c, 0, 64, 38
1, 73478, Control_c, 0, 64, 50
1, 73498, Control_c, 0, 64, 67
1, 73516, Control_c, 0, 64, 85
1, 73519, Note_off_c, 0, 56, 60
1, 73520, Note_off_c, 0, 68, 63
1, 73534, Control_c, 0, 64, 127
1, 73646, Poly_aftertouch_c, 0, 53, 28
1, 73647, Poly_aftertouch_c, 0, 65, 28
1, 73651, Note_on_c, 0, 53, 74
1, 73654, Note_on_c, 0, 65, 69
1, 73690, Note_off_c, 0, 65, 64
1, 73694, Note_off_c, 0, 53, 59
1, 73814, Poly_aftertouch_c, 0, 50, 28
1, 73819, Note_on_c, 0, 50, 78
1, 73821, Poly_aftertouch_c, 0, 62, 28
1, 73826, Note_on_c, 0, 62, 64
1, 73865, Note_off_c, 0, 50, 63
1, 73865, Note_off_c, 0, 62, 65
1, 73989, Note_on_c, 0, 59, 77
1, 73991, Poly_aftertouch_c, 0, 47, 28
1, 73991, Poly_aftertouch_c, 0, 59, 28
1, 73993, Note_on_c, 0, 47, 78
1, 74018, Note_off_c, 0, 59, 69
1, 74023, Note_off_c, 0, 47, 64
1, 74135, Note_on_c, 0, 44, 84
1, 74136, Note_on_c, 0, 56, 82
1, 74136, Poly_aftertouch_c, 0, 44, 28
1, 74137, Poly_aftertouch_c, 0, 56, 28
1, 74194, Note_off_c, 0, 56, 59
1, 74197, Note_off_c, 0, 44, 59
1, 74301, Poly_aftertouch_c, 0, 41, 28
1, 74302, Note_on_c, 0, 41, 83
1, 74304, Note_on_c, 0, 53, 75
1, 74304, Poly_aftertouch_c, 0, 53, 28
1, 74336, Note_off_c, 0, 53, 64
1, 74348, Note_off_c, 0, 41, 60
1, 74451, Poly_aftertouch_c, 0, 50, 28
1, 74455, Note_on_c, 0, 50, 84
1, 74457, Note_on_c, 0, 38, 87
1, 74457, Poly_aftertouch_c, 0, 38, 28
1, 74494, Note_off_c, 0, 50, 61
1, 74505, Note_off_c, 0, 38, 61
1, 74611, Poly_aftertouch_c, 0, 47, 28
1, 74616, Note_on_c, 0, 47, 85
1, 74621, Note_on_c, 0, 35, 85
1, 74622, Poly_aftertouch_c, 0, 35, 28
1, 74650, Note_off_c, 0, 47, 63
1, 74663, Note_off_c, 0, 35, 63
1, 74947, Poly_aftertouch_c, 0, 34, 28
1, 74951, Note_on_c, 0, 34, 94
1, 74961, Note_on_c, 0, 22, 86
1, 74962, Poly_aftertouch_c, 0, 22, 28
1, 74969, Note_off_c, 0, 74, 56
1, 74994, Control_c, 0, 64, 85
1, 75014, Control_c, 0, 64, 55
1, 75020, Note_off_c, 0, 86, 63
1, 75034, Control_c, 0, 64, 27
1, 75050, Control_c, 0, 64, 13
1, 75107, Control_c, 0, 64, 20
1, 75108, Note_off_c, 0, 22, 60
1, 75126, Control_c, 0, 64, 32
1, 75145, Control_c, 0, 64, 51
1, 75164, Control_c, 0, 64, 71
1, 75170, Note_off_c, 0, 34, 56
1, 75182, Control_c, 0, 64, 93
1, 75202, Control_c, 0, 64, 127
1, 75230, Poly_aftertouch_c, 0, 92, 28
1, 75233, Note_on_c, 0, 92, 84
1, 75235, Poly_aftertouch_c, 0, 80, 28
1, 75240, Note_on_c, 0, 80, 81
1, 75284, Note_off_c, 0, 92, 61
1, 75291, Note_off_c, 0, 80, 62
1, 75392, Poly_aftertouch_c, 0, 78, 28
1, 75393, Poly_aftertouch_c, 0, 90, 28
1, 75395, Note_on_c, 0, 90, 88
1, 75397, Note_on_c, 0, 78, 82
1, 75456, Note_off_c, 0, 78, 62
1, 75489, Note_off_c, 0, 90, 64
1, 75583, Poly_aftertouch_c, 0, 89, 28
1, 75586, Note_on_c, 0, 89, 90
1, 75589, Poly_aftertouch_c, 0, 77, 28
1, 75591, Note_on_c, 0, 77, 84
1, 75645, Note_off_c, 0, 77, 62
1, 75657, Note_off_c, 0, 89, 62
1, 75781, Control_c, 0, 64, 106
1, 75799, Control_c, 0, 64, 71
1, 75808, Poly_aftertouch_c, 0, 75, 28
1, 75809, Poly_aftertouch_c, 0, 87, 28
1, 75810, Note_on_c, 0, 87, 86
1, 75811, Note_on_c, 0, 75, 83
1, 75814, Poly_aftertouch_c, 0, 69, 28
1, 75817, Control_c, 0, 64, 45
1, 75818, Note_on_c, 0, 69, 86
1, 75820, Note_on_c, 0, 57, 82
1, 75821, Poly_aftertouch_c, 0, 57, 28
1, 75838, Control_c, 0, 64, 30
1, 75893, Control_c, 0, 64, 45
1, 75897, Note_off_c, 0, 69, 58
1, 75912, Control_c, 0, 64, 66
1, 75915, Note_off_c, 0, 57, 60
1, 75930, Control_c, 0, 64, 88
1, 75949, Control_c, 0, 64, 127
1, 76019, Poly_aftertouch_c, 0, 54, 28
1, 76021, Note_on_c, 0, 66, 81
1, 76021, Note_on_c, 0, 54, 82
1, 76022, Poly_aftertouch_c, 0, 66, 28
1, 76068, Note_off_c, 0, 66, 55
1, 76083, Note_off_c, 0, 54, 61
1, 76191, Note_on_c, 0, 51, 84
1, 76192, Poly_aftertouch_c, 0, 51, 28
1, 76193, Poly_aftertouch_c, 0, 63, 28
1, 76194, Note_on_c, 0, 63, 82
1, 76250, Note_off_c, 0, 63, 60
1, 76257, Note_off_c, 0, 51, 61
1, 76346, Note_on_c, 0, 48, 87
1, 76347, Poly_aftertouch_c, 0, 48, 28
1, 76347, Poly_aftertouch_c, 0, 60, 28
1, 76351, Note_on_c, 0, 60, 78
1, 76380, Note_off_c, 0, 60, 69
1, 76393, Note_off_c, 0, 48, 58
1, 76491, Poly_aftertouch_c, 0, 57, 28
1, 76496, Note_on_c, 0, 57, 86
1, 76496, Note_on_c, 0, 45, 87
1, 76498, Poly_aftertouch_c, 0, 45, 28
1, 76544, Note_off_c, 0, 45, 60
1, 76545, Note_off_c, 0, 57, 61
1, 76648, Poly_aftertouch_c, 0, 42, 28
1, 76651, Poly_aftertouch_c, 0, 54, 28
1, 76652, Note_on_c, 0, 42, 89
1, 76653, Note_on_c, 0, 54, 89
1, 76694, Note_off_c, 0, 54, 58
1, 76718, Note_off_c, 0, 42, 57
1, 76808, Poly_aftertouch_c, 0, 39, 28
1, 76814, Note_on_c, 0, 39, 90
1, 76816, Poly_aftertouch_c, 0, 51, 28
1, 76817, Note_on_c, 0, 51, 88
1, 76858, Note_off_c, 0, 51, 61
1, 76891, Note_off_c, 0, 39, 62
1, 76974, Poly_aftertouch_c, 0, 48, 28
1, 76978, Note_on_c, 0, 48, 88
1, 76979, Poly_aftertouch_c, 0, 36, 28
1, 76981, Note_on_c, 0, 36, 91
1, 77029, Note_off_c, 0, 48, 58
1, 77043, Note_off_c, 0, 36, 61
1, 77382, Note_off_c, 0, 75, 61
1, 77389, Poly_aftertouch_c, 0, 34, 28
1, 77393, Note_on_c, 0, 34, 101
1, 77394, Poly_aftertouch_c, 0, 22, 28
1, 77399, Note_on_c, 0, 22, 96
1, 77425, Note_off_c, 0, 87, 59
1, 77426, Control_c, 0, 64, 105
1, 77448, Control_c, 0, 64, 70
1, 77465, Control_c, 0, 64, 40
1, 77484, Control_c, 0, 64, 8
1, 77504, Control_c, 0, 64, 0
1, 77596, Control_c, 0, 64, 14
1, 77615, Control_c, 0, 64, 28
1, 77634, Control_c, 0, 64, 48
1, 77640, Note_off_c, 0, 22, 59
1, 77653, Control_c, 0, 64, 72
1, 77672, Control_c, 0, 64, 93
1, 77690, Control_c, 0, 64, 127
1, 77726, Note_off_c, 0, 34, 51
1, 77880, Poly_aftertouch_c, 0, 94, 28
1, 77884, Note_on_c, 0, 94, 95
1, 77886, Poly_aftertouch_c, 0, 82, 28
1, 77888, Note_on_c, 0, 82, 97
1, 77932, Note_off_c, 0, 94, 62
1, 77938, Note_off_c, 0, 82, 65
1, 78156, Poly_aftertouch_c, 0, 78, 28
1, 78157, Poly_aftertouch_c, 0, 90, 28
1, 78163, Note_on_c, 0, 90, 93
1, 78163, Note_on_c, 0, 78, 89
1, 78219, Note_off_c, 0, 78, 64
1, 78226, Note_off_c, 0, 90, 65
1, 78348, Poly_aftertouch_c, 0, 87, 28
1, 78349, Note_on_c, 0, 87, 94
1, 78354, Poly_aftertouch_c, 0, 75, 28
1, 78356, Note_on_c, 0, 75, 88
1, 78410, Note_off_c, 0, 75, 63
1, 78414, Note_off_c, 0, 87, 66
1, 78570, Control_c, 0, 64, 89
1, 78578, Poly_aftertouch_c, 0, 85, 28
1, 78580, Note_on_c, 0, 85, 96
1, 78584, Note_on_c, 0, 73, 92
1, 78586, Poly_aftertouch_c, 0, 70, 28
1, 78586, Poly_aftertouch_c, 0, 73, 28
1, 78589, Note_on_c, 0, 70, 89
1, 78589, Control_c, 0, 64, 56
1, 78592, Poly_aftertouch_c, 0, 58, 28
1, 78594, Note_on_c, 0, 58, 81
1, 78607, Control_c, 0, 64, 25
1, 78626, Control_c, 0, 64, 12
1, 78663, Control_c, 0, 64, 16
1, 78682, Control_c, 0, 64, 29
1, 78690, Note_off_c, 0, 70, 62
1, 78693, Note_off_c, 0, 58, 64
1, 78701, Control_c, 0, 64, 54
1, 78720, Control_c, 0, 64, 81
1, 78738, Control_c, 0, 64, 127
1, 78807, Poly_aftertouch_c, 0, 55, 28
1, 78809, Poly_aftertouch_c, 0, 67, 28
1, 78811, Note_on_c, 0, 55, 76
1, 78813, Note_on_c, 0, 67, 70
1, 78845, Note_off_c, 0, 55, 67
1, 78846, Note_off_c, 0, 67, 64
1, 78962, Poly_aftertouch_c, 0, 52, 28
1, 78963, Poly_aftertouch_c, 0, 64, 28
1, 78966, Note_on_c, 0, 52, 81
1, 78967, Note_on_c, 0, 64, 78
1, 78985, Note_off_c, 0, 73, 54
1, 78993, Note_off_c, 0, 64, 69
1, 78998, Note_off_c, 0, 52, 64
1, 79095, Poly_aftertouch_c, 0, 84, 28
1, 79100, Note_on_c, 0, 84, 88
1, 79106, Note_on_c, 0, 72, 81
1, 79107, Note_on_c, 0, 49, 82
1, 79108, Poly_aftertouch_c, 0, 49, 28
1, 79109, Poly_aftertouch_c, 0, 61, 28
1, 79110, Note_on_c, 0, 61, 78
1, 79111, Poly_aftertouch_c, 0, 72, 28
1, 79112, Note_off_c, 0, 85, 40
1, 79140, Note_off_c, 0, 61, 69
1, 79144, Note_off_c, 0, 49, 65
1, 79247, Poly_aftertouch_c, 0, 46, 28
1, 79248, Poly_aftertouch_c, 0, 58, 28
1, 79252, Note_on_c, 0, 46, 85
1, 79254, Note_on_c, 0, 58, 81
1, 79312, Note_off_c, 0, 58, 60
1, 79316, Note_off_c, 0, 46, 58
1, 79359, Note_off_c, 0, 72, 58
1, 79370, Note_off_c, 0, 84, 60
1, 79400, Poly_aftertouch_c, 0, 43, 28
1, 79401, Poly_aftertouch_c, 0, 55, 28
1, 79403, Note_on_c, 0, 43, 87
1, 79406, Note_on_c, 0, 55, 80
1, 79440, Note_off_c, 0, 55, 63
1, 79444, Note_off_c, 0, 43, 64
1, 79546, Poly_aftertouch_c, 0, 40, 28
1, 79548, Poly_aftertouch_c, 0, 52, 28
1, 79549, Note_on_c, 0, 52, 82
1, 79550, Note_on_c, 0, 40, 84
1, 79552, Poly_aftertouch_c, 0, 82, 28
1, 79554, Note_on_c, 0, 82, 93
1, 79557, Note_on_c, 0, 70, 87
1, 79560, Poly_aftertouch_c, 0, 70, 28
1, 79577, Note_off_c, 0, 52, 65
1, 79589, Note_off_c, 0, 40, 61
1, 79643, Note_off_c, 0, 70, 57
1, 79688, Poly_aftertouch_c, 0, 37, 28
1, 79693, Note_on_c, 0, 37, 88
1, 79694, Note_on_c, 0, 49, 82
1, 79696, Poly_aftertouch_c, 0, 49, 28
1, 79717, Note_off_c, 0, 49, 73
1, 79719, Note_off_c, 0, 82, 62
1, 79733, Note_off_c, 0, 37, 60
1, 79919, Poly_aftertouch_c, 0, 34, 28
1, 79923, Note_on_c, 0, 34, 96
1, 79924, Poly_aftertouch_c, 0, 22, 28
1, 79929, Note_on_c, 0, 22, 93
1, 79955, Control_c, 0, 64, 86
1, 79975, Control_c, 0, 64, 56
1, 79994, Control_c, 0, 64, 28
1, 80011, Control_c, 0, 64, 10
1, 80086, Control_c, 0, 64, 22
1, 80105, Control_c, 0, 64, 35
1, 80108, Poly_aftertouch_c, 0, 85, 28
1, 80111, Note_on_c, 0, 85, 89
1, 80113, Poly_aftertouch_c, 0, 73, 28
1, 80116, Note_off_c, 0, 22, 61
1, 80118, Note_on_c, 0, 73, 86
1, 80125, Control_c, 0, 64, 57
1, 80143, Note_off_c, 0, 34, 55
1, 80143, Control_c, 0, 64, 76
1, 80161, Control_c, 0, 64, 97
1, 80163, Note_off_c, 0, 73, 62
1, 80168, Note_off_c, 0, 85, 61
1, 80180, Control_c, 0, 64, 127
1, 80275, Poly_aftertouch_c, 0, 82, 28
1, 80279, Note_on_c, 0, 82, 92
1, 80281, Poly_aftertouch_c, 0, 70, 28
1, 80286, Note_on_c, 0, 70, 87
1, 80334, Note_off_c, 0, 70, 62
1, 80342, Note_off_c, 0, 82, 61
1, 80526, Poly_aftertouch_c, 0, 78, 28
1, 80532, Poly_aftertouch_c, 0, 66, 28
1, 80535, Note_on_c, 0, 78, 90
1, 80536, Note_on_c, 0, 66, 87
1, 80629, Control_c, 0, 64, 87
1, 80648, Control_c, 0, 64, 61
1, 80666, Control_c, 0, 64, 43
1, 80685, Control_c, 0, 64, 40
1, 80694, Note_off_c, 0, 66, 59
1, 80723, Control_c, 0, 64, 49
1, 80743, Control_c, 0, 64, 61
1, 80752, Note_on_c, 0, 77, 86
1, 80753, Note_on_c, 0, 65, 80
1, 80754, Poly_aftertouch_c, 0, 65, 28
1, 80754, Poly_aftertouch_c, 0, 77, 28
1, 80757, Note_on_c, 0, 49, 78
1, 80757, Note_on_c, 0, 61, 81
1, 80760, Poly_aftertouch_c, 0, 49, 28
1, 80761, Poly_aftertouch_c, 0, 61, 28
1, 80762, Control_c, 0, 64, 72
1, 80779, Control_c, 0, 64, 85
1, 80785, Note_off_c, 0, 78, 54
1, 80793, Note_off_c, 0, 61, 61
1, 80798, Control_c, 0, 64, 105
1, 80800, Note_off_c, 0, 49, 60
1, 80815, Control_c, 0, 64, 127
1, 80914, Poly_aftertouch_c, 0, 58, 28
1, 80919, Note_on_c, 0, 58, 68
1, 80921, Poly_aftertouch_c, 0, 46, 28
1, 80922, Poly_aftertouch_c, 0, 56, 28
1, 80925, Note_on_c, 0, 46, 62
1, 80929, Note_on_c, 0, 56, 67
1, 80930, Note_on_c, 0, 45, 71
1, 80930, Poly_aftertouch_c, 0, 45, 28
1, 80950, Note_off_c, 0, 58, 66
1, 80956, Note_off_c, 0, 56, 60
1, 80969, Note_off_c, 0, 45, 63
1, 80973, Note_off_c, 0, 46, 63
1, 81039, Note_off_c, 0, 77, 54
1, 81067, Poly_aftertouch_c, 0, 55, 28
1, 81068, Note_off_c, 0, 65, 59
1, 81073, Note_on_c, 0, 55, 86
1, 81073, Poly_aftertouch_c, 0, 43, 28
1, 81076, Note_on_c, 0, 43, 82
1, 81191, Control_c, 0, 64, 88
1, 81211, Control_c, 0, 64, 64
1, 81220, Poly_aftertouch_c, 0, 76, 28
1, 81224, Note_on_c, 0, 76, 93
1, 81230, Poly_aftertouch_c, 0, 64, 28
1, 81230, Control_c, 0, 64, 38
1, 81231, Note_on_c, 0, 64, 82
1, 81247, Control_c, 0, 64, 11
1, 81266, Control_c, 0, 64, 0
1, 81359, Control_c, 0, 64, 14
1, 81377, Control_c, 0, 64, 28
1, 81397, Control_c, 0, 64, 48
1, 81414, Control_c, 0, 64, 71
1, 81434, Control_c, 0, 64, 95
1, 81453, Control_c, 0, 64, 127
1, 81497, Note_off_c, 0, 55, 54
1, 81510, Note_off_c, 0, 76, 57
1, 81524, Note_off_c, 0, 43, 60
1, 81529, Note_off_c, 0, 64, 62
1, 81825, Poly_aftertouch_c, 0, 40, 28
1, 81826, Control_c, 0, 64, 113
1, 81830, Note_on_c, 0, 40, 67
1, 81830, Poly_aftertouch_c, 0, 73, 28
1, 81836, Note_on_c, 0, 73, 73
1, 81838, Note_on_c, 0, 52, 59
1, 81840, Poly_aftertouch_c, 0, 52, 28
1, 81841, Poly_aftertouch_c, 0, 61, 28
1, 81843, Note_on_c, 0, 61, 64
1, 81846, Control_c, 0, 64, 77
1, 81864, Control_c, 0, 64, 55
1, 81870, Note_off_c, 0, 52, 56
1, 81882, Note_off_c, 0, 40, 60
1, 81883, Control_c, 0, 64, 46
1, 81902, Control_c, 0, 64, 48
1, 81920, Control_c, 0, 64, 56
1, 81939, Control_c, 0, 64, 65
1, 81957, Control_c, 0, 64, 77
1, 81973, Poly_aftertouch_c, 0, 37, 28
1, 81978, Note_on_c, 0, 37, 67
1, 81978, Control_c, 0, 64, 99
1, 81980, Note_on_c, 0, 49, 60
1, 81981, Poly_aftertouch_c, 0, 49, 28
1, 81995, Control_c, 0, 64, 127
1, 82007, Note_off_c, 0, 49, 60
1, 82023, Note_off_c, 0, 37, 61
1, 82119, Note_off_c, 0, 73, 61
1, 82144, Poly_aftertouch_c, 0, 34, 28
1, 82146, Note_on_c, 0, 34, 73
1, 82151, Poly_aftertouch_c, 0, 46, 28
1, 82157, Note_off_c, 0, 61, 57
1, 82158, Note_on_c, 0, 46, 57
1, 82239, Control_c, 0, 64, 101
1, 82259, Control_c, 0, 64, 72
1, 82275, Control_c, 0, 64, 48
1, 82295, Control_c, 0, 64, 29
1, 82313, Control_c, 0, 64, 21
1, 82348, Poly_aftertouch_c, 0, 70, 28
1, 82358, Note_on_c, 0, 70, 68
1, 82362, Poly_aftertouch_c, 0, 58, 28
1, 82369, Control_c, 0, 64, 32
1, 82371, Note_on_c, 0, 58, 51
1, 82388, Control_c, 0, 64, 49
1, 82407, Control_c, 0, 64, 69
1, 82426, Control_c, 0, 64, 90
1, 82444, Control_c, 0, 64, 127
1, 82492, Note_off_c, 0, 46, 47
1, 82494, Note_off_c, 0, 70, 62
1, 82524, Note_off_c, 0, 58, 59
1, 82535, Note_off_c, 0, 34, 58
1, 82932, Control_c, 0, 64, 93
1, 82950, Control_c, 0, 64, 66
1, 82964, Poly_aftertouch_c, 0, 67, 28
1, 82969, Control_c, 0, 64, 43
1, 82970, Note_on_c, 0, 67, 60
1, 82976, Poly_aftertouch_c, 0, 43, 28
1, 82977, Poly_aftertouch_c, 0, 55, 28
1, 82980, Note_on_c, 0, 43, 45
1, 82982, Note_on_c, 0, 55, 45
1, 82983, Note_on_c, 0, 31, 46
1, 82983, Poly_aftertouch_c, 0, 31, 28
1, 82987, Control_c, 0, 64, 27
1, 83044, Control_c, 0, 64, 32
1, 83063, Control_c, 0, 64, 46
1, 83073, Note_off_c, 0, 43, 58
1, 83080, Control_c, 0, 64, 65
1, 83101, Control_c, 0, 64, 80
1, 83109, Note_off_c, 0, 31, 58
1, 83119, Control_c, 0, 64, 104
1, 83137, Control_c, 0, 64, 127
1, 83193, Note_off_c, 0, 67, 58
1, 83253, Note_off_c, 0, 55, 60
1, 83331, Poly_aftertouch_c, 0, 40, 28
1, 83337, Poly_aftertouch_c, 0, 28, 28
1, 83342, Note_on_c, 0, 40, 40
1, 83347, Note_on_c, 0, 28, 32
1, 83549, Control_c, 0, 64, 106
1, 83565, Poly_aftertouch_c, 0, 64, 28
1, 83567, Control_c, 0, 64, 77
1, 83573, Note_on_c, 0, 64, 57
1, 83588, Control_c, 0, 64, 54
1, 83591, Poly_aftertouch_c, 0, 52, 28
1, 83594, Note_on_c, 0, 52, 41
1, 83605, Control_c, 0, 64, 36
1, 83624, Control_c, 0, 64, 29
1, 83661, Control_c, 0, 64, 35
1, 83679, Control_c, 0, 64, 47
1, 83699, Control_c, 0, 64, 64
1, 83717, Control_c, 0, 64, 78
1, 83737, Control_c, 0, 64, 96
1, 83754, Control_c, 0, 64, 127
1, 83759, Note_off_c, 0, 64, 55
1, 83798, Note_off_c, 0, 40, 40
1, 83803, Note_off_c, 0, 52, 52
1, 83829, Control_c, 0, 67, 8
1, 83856, Note_off_c, 0, 28, 41
1, 83886, Control_c, 0, 67, 14
1, 83905, Control_c, 0, 67, 19
1, 83924, Control_c, 0, 67, 25
1, 83942, Control_c, 0, 67, 30
1, 83962, Control_c, 0, 67, 35
1, 83979, Control_c, 0, 67, 40
1, 83999, Control_c, 0, 67, 46
1, 84017, Control_c, 0, 67, 52
1, 84035, Control_c, 0, 67, 58
1, 84055, Control_c, 0, 67, 63
1, 84092, Control_c, 0, 67, 69
1, 84130, Control_c, 0, 67, 73
1, 84160, Poly_aftertouch_c, 0, 37, 28
1, 84173, Poly_aftertouch_c, 0, 25, 28
1, 84176, Note_on_c, 0, 37, 22
1, 84181, Note_on_c, 0, 25, 38
1, 84223, Control_c, 0, 64, 92
1, 84232, Poly_aftertouch_c, 0, 61, 28
1, 84239, Note_on_c, 0, 61, 50
1, 84241, Control_c, 0, 64, 66
1, 84258, Poly_aftertouch_c, 0, 49, 28
1, 84259, Control_c, 0, 64, 44
1, 84264, Note_on_c, 0, 49, 34
1, 84279, Control_c, 0, 64, 28
1, 84298, Control_c, 0, 64, 24
1, 84336, Control_c, 0, 64, 31
1, 84353, Control_c, 0, 64, 43
1, 84373, Control_c, 0, 64, 62
1, 84383, Note_off_c, 0, 37, 48
1, 84392, Control_c, 0, 64, 77
1, 84411, Control_c, 0, 64, 97
1, 84430, Control_c, 0, 64, 127
1, 84432, Note_off_c, 0, 25, 51
1, 84467, Control_c, 0, 67, 69
1, 84530, Note_off_c, 0, 61, 55
1, 84666, Note_off_c, 0, 49, 42
1, 84732, Poly_aftertouch_c, 0, 22, 28
1, 84743, Note_on_c, 0, 22, 36
1, 84749, Poly_aftertouch_c, 0, 34, 28
1, 84760, Note_on_c, 0, 34, 20
1, 84999, Poly_aftertouch_c, 0, 58, 28
1, 85009, Poly_aftertouch_c, 0, 46, 28
1, 85009, Control_c, 0, 64, 115
1, 85013, Note_on_c, 0, 58, 43
1, 85023, Note_on_c, 0, 46, 30
1, 85026, Control_c, 0, 64, 91
1, 85046, Control_c, 0, 64, 70
1, 85065, Control_c, 0, 64, 52
1, 85084, Control_c, 0, 64, 38
1, 85102, Control_c, 0, 64, 31
1, 85158, Control_c, 0, 64, 38
1, 85178, Control_c, 0, 64, 48
1, 85196, Control_c, 0, 64, 62
1, 85215, Control_c, 0, 64, 74
1, 85234, Control_c, 0, 64, 89
1, 85252, Control_c, 0, 64, 127
1, 85268, Note_off_c, 0, 46, 41
1, 85289, Control_c, 0, 67, 65
1, 85291, Note_off_c, 0, 22, 50
1, 85327, Control_c, 0, 67, 60
1, 85347, Control_c, 0, 67, 55
1, 85364, Control_c, 0, 67, 49
1, 85373, Note_off_c, 0, 34, 41
1, 85383, Control_c, 0, 67, 43
1, 85403, Control_c, 0, 67, 38
1, 85420, Control_c, 0, 67, 33
1, 85458, Control_c, 0, 67, 28
1, 85609, Control_c, 0, 67, 32
1, 85655, Note_off_c, 0, 58, 50
1, 85701, Control_c, 0, 67, 36
1, 85814, Control_c, 0, 67, 44
1, 85832, Control_c, 0, 67, 50
1, 85851, Control_c, 0, 67, 58
1, 85870, Control_c, 0, 67, 65
1, 85888, Control_c, 0, 67, 73
1, 85908, Control_c, 0, 67, 80
1, 85926, Control_c, 0, 67, 86
1, 85945, Control_c, 0, 67, 91
1, 85965, Control_c, 0, 67, 97
1, 85982, Control_c, 0, 67, 102
1, 86001, Control_c, 0, 67, 108
1, 86020, Control_c, 0, 67, 114
1, 86038, Control_c, 0, 67, 119
1, 86057, Control_c, 0, 67, 123
1, 86058, Poly_aftertouch_c, 0, 41, 28
1, 86064, Note_on_c, 0, 41, 39
1, 86083, Poly_aftertouch_c, 0, 29, 28
1, 86091, Note_on_c, 0, 29, 31
1, 86092, Control_c, 0, 67, 127
1, 86518, Poly_aftertouch_c, 0, 57, 28
1, 86527, Note_on_c, 0, 57, 48
1, 86533, Poly_aftertouch_c, 0, 63, 28
1, 86542, Note_on_c, 0, 63, 38
1, 86562, Control_c, 0, 64, 104
1, 86563, Poly_aftertouch_c, 0, 65, 28
1, 86574, Note_on_c, 0, 65, 24
1, 86580, Control_c, 0, 64, 80
1, 86586, Poly_aftertouch_c, 0, 53, 28
1, 86602, Control_c, 0, 64, 63
1, 86619, Control_c, 0, 64, 54
1, 86637, Poly_aftertouch_c, 0, 53, 127
1, 86656, Control_c, 0, 64, 57
1, 86668, Note_off_c, 0, 41, 58
1, 86671, Note_off_c, 0, 65, 0
1, 86671, Poly_aftertouch_c, 0, 65, 28
1, 86676, Control_c, 0, 64, 63
1, 86695, Control_c, 0, 64, 71
1, 86712, Control_c, 0, 64, 82
1, 86732, Control_c, 0, 64, 103
1, 86751, Control_c, 0, 64, 127
1, 86788, Control_c, 0, 67, 123
1, 86837, Poly_aftertouch_c, 0, 65, 24
1, 86855, Poly_aftertouch_c, 0, 53, 24
1, 86906, Note_off_c, 0, 57, 59
1, 86945, Poly_aftertouch_c, 0, 53, 0
1, 86946, Poly_aftertouch_c, 0, 65, 0
1, 86967, Poly_aftertouch_c, 0, 30, 28
1, 86973, Poly_aftertouch_c, 0, 42, 28
1, 86976, Note_on_c, 0, 30, 36
1, 86980, Note_off_c, 0, 63, 42
1, 86983, Note_on_c, 0, 42, 33
1, 86987, Note_off_c, 0, 29, 39
1, 87231, Poly_aftertouch_c, 0, 58, 28
1, 87239, Note_on_c, 0, 58, 56
1, 87249, Poly_aftertouch_c, 0, 63, 28
1, 87257, Note_on_c, 0, 63, 41
1, 87274, Control_c, 0, 64, 106
1, 87289, Poly_aftertouch_c, 0, 65, 28
1, 87294, Control_c, 0, 64, 82
1, 87299, Note_on_c, 0, 65, 28
1, 87311, Control_c, 0, 64, 68
1, 87314, Poly_aftertouch_c, 0, 53, 28
1, 87330, Control_c, 0, 64, 63
1, 87350, Control_c, 0, 64, 64
1, 87365, Poly_aftertouch_c, 0, 53, 127
1, 87366, Control_c, 0, 64, 69
1, 87387, Control_c, 0, 64, 75
1, 87391, Note_off_c, 0, 65, 0
1, 87391, Poly_aftertouch_c, 0, 65, 28
1, 87406, Control_c, 0, 64, 86
1, 87423, Control_c, 0, 64, 105
1, 87442, Control_c, 0, 64, 127
1, 87477, Note_off_c, 0, 42, 41
1, 87490, Note_off_c, 0, 30, 36
1, 87493, Poly_aftertouch_c, 0, 53, 0
1, 87523, Poly_aftertouch_c, 0, 65, 0
1, 87539, Poly_aftertouch_c, 0, 43, 28
1, 87540, Note_off_c, 0, 63, 34
1, 87547, Note_on_c, 0, 43, 39
1, 87548, Poly_aftertouch_c, 0, 31, 28
1, 87555, Note_on_c, 0, 31, 42
1, 87559, Note_off_c, 0, 58, 32
1, 87722, Note_off_c, 0, 43, 57
1, 87742, Control_c, 0, 64, 89
1, 87743, Poly_aftertouch_c, 0, 59, 28
1, 87743, Poly_aftertouch_c, 0, 63, 28
1, 87745, Note_on_c, 0, 59, 54
1, 87751, Note_on_c, 0, 63, 41
1, 87760, Control_c, 0, 64, 70
1, 87780, Poly_aftertouch_c, 0, 53, 28
1, 87780, Control_c, 0, 64, 59
1, 87788, Note_on_c, 0, 53, 30
1, 87788, Poly_aftertouch_c, 0, 65, 28
1, 87796, Note_on_c, 0, 65, 30
1, 87798, Control_c, 0, 64, 56
1, 87817, Control_c, 0, 64, 58
1, 87836, Control_c, 0, 64, 64
1, 87854, Control_c, 0, 64, 73
1, 87876, Control_c, 0, 64, 87
1, 87891, Control_c, 0, 64, 127
1, 87893, Note_off_c, 0, 65, 0
1, 87894, Poly_aftertouch_c, 0, 65, 28
1, 87964, Note_off_c, 0, 59, 60
1, 87968, Poly_aftertouch_c, 0, 32, 28
1, 87970, Poly_aftertouch_c, 0, 44, 28
1, 87974, Note_on_c, 0, 32, 41
1, 87976, Note_off_c, 0, 31, 41
1, 87976, Note_on_c, 0, 44, 41
1, 87977, Note_off_c, 0, 53, 36
1, 87984, Control_c, 0, 67, 119
1, 88005, Poly_aftertouch_c, 0, 65, 0
1, 88040, Note_off_c, 0, 63, 35
1, 88134, Poly_aftertouch_c, 0, 63, 28
1, 88136, Control_c, 0, 64, 86
1, 88140, Note_on_c, 0, 63, 49
1, 88140, Poly_aftertouch_c, 0, 60, 28
1, 88142, Note_on_c, 0, 60, 59
1, 88154, Control_c, 0, 64, 66
1, 88166, Poly_aftertouch_c, 0, 53, 28
1, 88173, Control_c, 0, 64, 57
1, 88175, Note_on_c, 0, 53, 26
1, 88178, Poly_aftertouch_c, 0, 65, 28
1, 88187, Note_on_c, 0, 65, 18
1, 88202, Note_off_c, 0, 44, 55
1, 88209, Control_c, 0, 64, 62
1, 88219, Note_off_c, 0, 32, 41
1, 88229, Control_c, 0, 64, 69
1, 88247, Control_c, 0, 64, 79
1, 88268, Control_c, 0, 64, 97
1, 88284, Control_c, 0, 64, 127
1, 88315, Poly_aftertouch_c, 0, 45, 28
1, 88321, Note_on_c, 0, 45, 49
1, 88334, Poly_aftertouch_c, 0, 33, 28
1, 88339, Note_on_c, 0, 33, 47
1, 88341, Note_off_c, 0, 60, 59
1, 88374, Note_off_c, 0, 65, 23
1, 88378, Note_off_c, 0, 53, 36
1, 88379, Note_off_c, 0, 63, 53
1, 88455, Note_off_c, 0, 45, 57
1, 88475, Poly_aftertouch_c, 0, 63, 28
1, 88480, Note_on_c, 0, 63, 50
1, 88491, Control_c, 0, 64, 91
1, 88492, Poly_aftertouch_c, 0, 61, 28
1, 88496, Note_on_c, 0, 61, 62
1, 88503, Note_on_c, 0, 53, 52
1, 88503, Poly_aftertouch_c, 0, 53, 28
1, 88509, Control_c, 0, 64, 69
1, 88519, Poly_aftertouch_c, 0, 65, 28
1, 88522, Note_on_c, 0, 65, 43
1, 88528, Control_c, 0, 64, 59
1, 88565, Control_c, 0, 64, 64
1, 88584, Control_c, 0, 64, 73
1, 88603, Control_c, 0, 64, 88
1, 88619, Note_off_c, 0, 65, 0
1, 88619, Poly_aftertouch_c, 0, 65, 28
1, 88622, Control_c, 0, 64, 127
1, 88637, Note_off_c, 0, 63, 53
1, 88659, Poly_aftertouch_c, 0, 46, 28
1, 88665, Note_on_c, 0, 46, 51
1, 88669, Note_off_c, 0, 33, 29
1, 88670, Poly_aftertouch_c, 0, 34, 28
1, 88674, Note_on_c, 0, 34, 50
1, 88722, Note_off_c, 0, 53, 33
1, 88733, Poly_aftertouch_c, 0, 65, 0
1, 88810, Control_c, 0, 64, 86
1, 88811, Note_off_c, 0, 61, 57
1, 88814, Poly_aftertouch_c, 0, 62, 28
1, 88820, Note_on_c, 0, 62, 64
1, 88827, Control_c, 0, 64, 66
1, 88830, Poly_aftertouch_c, 0, 65, 28
1, 88837, Note_on_c, 0, 65, 56
1, 88847, Note_on_c, 0, 53, 54
1, 88847, Poly_aftertouch_c, 0, 53, 28
1, 88847, Control_c, 0, 64, 60
1, 88852, Note_off_c, 0, 46, 53
1, 88860, Note_off_c, 0, 34, 49
1, 88867, Control_c, 0, 64, 64
1, 88884, Control_c, 0, 64, 71
1, 88903, Control_c, 0, 64, 86
1, 88922, Control_c, 0, 64, 127
1, 88954, Note_off_c, 0, 53, 54
1, 88997, Control_c, 0, 67, 115
1, 89000, Note_off_c, 0, 62, 61
1, 89004, Poly_aftertouch_c, 0, 41, 28
1, 89006, Poly_aftertouch_c, 0, 47, 28
1, 89012, Note_on_c, 0, 41, 49
1, 89015, Note_on_c, 0, 47, 46
1, 89018, Note_off_c, 0, 65, 60
1, 89022, Poly_aftertouch_c, 0, 35, 28
1, 89024, Note_on_c, 0, 35, 40
1, 89146, Note_off_c, 0, 35, 45
1, 89176, Note_off_c, 0, 47, 49
1, 89177, Poly_aftertouch_c, 0, 63, 28
1, 89182, Note_on_c, 0, 63, 60
1, 89186, Note_on_c, 0, 69, 69
1, 89186, Poly_aftertouch_c, 0, 69, 28
1, 89190, Poly_aftertouch_c, 0, 57, 28
1, 89197, Note_on_c, 0, 57, 51
1, 89201, Control_c, 0, 64, 93
1, 89221, Control_c, 0, 64, 67
1, 89226, Note_off_c, 0, 41, 36
1, 89239, Control_c, 0, 64, 50
1, 89258, Control_c, 0, 64, 46
1, 89277, Control_c, 0, 64, 49
1, 89295, Control_c, 0, 64, 59
1, 89314, Control_c, 0, 64, 70
1, 89333, Control_c, 0, 64, 88
1, 89352, Control_c, 0, 64, 127
1, 89378, Note_off_c, 0, 69, 58
1, 89382, Poly_aftertouch_c, 0, 48, 28
1, 89385, Note_on_c, 0, 48, 48
1, 89387, Poly_aftertouch_c, 0, 41, 28
1, 89392, Poly_aftertouch_c, 0, 36, 28
1, 89394, Note_on_c, 0, 41, 31
1, 89400, Note_on_c, 0, 36, 37
1, 89427, Note_off_c, 0, 57, 38
1, 89475, Note_off_c, 0, 63, 51
1, 89519, Control_c, 0, 67, 111
1, 89549, Note_off_c, 0, 48, 36
1, 89557, Control_c, 0, 67, 107
1, 89577, Note_off_c, 0, 41, 32
1, 89622, Note_off_c, 0, 36, 37
1, 89673, Poly_aftertouch_c, 0, 67, 28
1, 89680, Note_on_c, 0, 67, 62
1, 89690, Poly_aftertouch_c, 0, 63, 28
1, 89698, Note_on_c, 0, 63, 46
1, 89700, Poly_aftertouch_c, 0, 55, 28
1, 89710, Note_on_c, 0, 55, 40
1, 89745, Control_c, 0, 64, 91
1, 89763, Control_c, 0, 64, 67
1, 89783, Control_c, 0, 64, 50
1, 89802, Control_c, 0, 64, 44
1, 89838, Control_c, 0, 64, 52
1, 89859, Control_c, 0, 64, 62
1, 89876, Control_c, 0, 64, 72
1, 89887, Poly_aftertouch_c, 0, 41, 28
1, 89894, Note_on_c, 0, 41, 41
1, 89895, Poly_aftertouch_c, 0, 45, 28
1, 89895, Control_c, 0, 64, 87
1, 89900, Note_on_c, 0, 45, 45
1, 89904, Poly_aftertouch_c, 0, 33, 28
1, 89907, Note_off_c, 0, 55, 46
1, 89910, Note_on_c, 0, 33, 33
1, 89913, Control_c, 0, 64, 127
1, 89921, Note_off_c, 0, 63, 55
1, 90039, Note_off_c, 0, 45, 53
1, 90040, Note_off_c, 0, 67, 54
1, 90043, Note_off_c, 0, 41, 60
1, 90064, Poly_aftertouch_c, 0, 65, 28
1, 90070, Note_on_c, 0, 65, 67
1, 90073, Poly_aftertouch_c, 0, 63, 28
1, 90081, Note_on_c, 0, 63, 55
1, 90082, Control_c, 0, 64, 96
1, 90090, Poly_aftertouch_c, 0, 53, 28
1, 90095, Note_on_c, 0, 53, 52
1, 90100, Control_c, 0, 64, 75
1, 90119, Control_c, 0, 64, 64
1, 90124, Note_off_c, 0, 33, 35
1, 90138, Control_c, 0, 64, 62
1, 90157, Control_c, 0, 64, 67
1, 90165, Note_off_c, 0, 53, 57
1, 90175, Control_c, 0, 64, 76
1, 90195, Control_c, 0, 64, 94
1, 90213, Control_c, 0, 64, 127
1, 90235, Poly_aftertouch_c, 0, 30, 28
1, 90242, Note_on_c, 0, 30, 53
1, 90242, Poly_aftertouch_c, 0, 42, 28
1, 90243, Note_off_c, 0, 65, 61
1, 90248, Note_on_c, 0, 42, 45
1, 90256, Note_off_c, 0, 63, 62
1, 90400, Control_c, 0, 64, 85
1, 90403, Note_off_c, 0, 42, 51
1, 90407, Note_on_c, 0, 72, 60
1, 90407, Poly_aftertouch_c, 0, 72, 28
1, 90415, Poly_aftertouch_c, 0, 63, 28
1, 90420, Note_on_c, 0, 63, 49
1, 90420, Control_c, 0, 64, 62
1, 90426, Poly_aftertouch_c, 0, 60, 28
1, 90430, Note_off_c, 0, 30, 36
1, 90436, Note_on_c, 0, 60, 24
1, 90436, Control_c, 0, 64, 47
1, 90456, Control_c, 0, 64, 44
1, 90475, Control_c, 0, 64, 48
1, 90495, Control_c, 0, 64, 59
1, 90513, Control_c, 0, 64, 71
1, 90532, Control_c, 0, 64, 87
1, 90536, Note_off_c, 0, 60, 55
1, 90538, Note_off_c, 0, 72, 56
1, 90549, Control_c, 0, 64, 127
1, 90568, Poly_aftertouch_c, 0, 43, 28
1, 90572, Poly_aftertouch_c, 0, 31, 28
1, 90576, Note_on_c, 0, 43, 40
1, 90581, Note_off_c, 0, 63, 59
1, 90582, Note_on_c, 0, 31, 40
1, 90685, Note_off_c, 0, 31, 50
1, 90723, Note_off_c, 0, 43, 43
1, 90783, Poly_aftertouch_c, 0, 63, 28
1, 90784, Poly_aftertouch_c, 0, 70, 28
1, 90789, Note_on_c, 0, 63, 46
1, 90790, Note_on_c, 0, 70, 57
1, 90790, Poly_aftertouch_c, 0, 58, 28
1, 90793, Control_c, 0, 64, 87
1, 90803, Note_on_c, 0, 58, 41
1, 90812, Control_c, 0, 64, 63
1, 90831, Control_c, 0, 64, 47
1, 90868, Control_c, 0, 64, 52
1, 90887, Control_c, 0, 64, 62
1, 90906, Control_c, 0, 64, 74
1, 90913, Note_off_c, 0, 70, 63
1, 90922, Note_off_c, 0, 63, 61
1, 90923, Control_c, 0, 64, 92
1, 90943, Control_c, 0, 64, 127
1, 90970, Note_off_c, 0, 58, 59
1, 90996, Poly_aftertouch_c, 0, 36, 28
1, 90997, Poly_aftertouch_c, 0, 48, 28
1, 91003, Note_on_c, 0, 48, 41
1, 91005, Note_on_c, 0, 36, 39
1, 91093, Note_off_c, 0, 48, 55
1, 91121, Note_off_c, 0, 36, 55
1, 91263, Poly_aftertouch_c, 0, 67, 28
1, 91270, Note_on_c, 0, 67, 45
1, 91273, Poly_aftertouch_c, 0, 63, 28
1, 91281, Note_on_c, 0, 63, 40
1, 91284, Poly_aftertouch_c, 0, 55, 28
1, 91284, Poly_aftertouch_c, 0, 58, 28
1, 91293, Note_on_c, 0, 55, 34
1, 91299, Note_on_c, 0, 58, 35
1, 91448, Note_off_c, 0, 55, 40
1, 91464, Note_off_c, 0, 58, 56
1, 91504, Note_off_c, 0, 63, 61
1, 91505, Note_off_c, 0, 67, 59
1, 91536, Poly_aftertouch_c, 0, 41, 28
1, 91540, Poly_aftertouch_c, 0, 29, 28
1, 91544, Note_on_c, 0, 41, 51
1, 91547, Note_on_c, 0, 29, 43
1, 91579, Control_c, 0, 64, 88
1, 91598, Control_c, 0, 64, 62
1, 91617, Control_c, 0, 64, 42
1, 91635, Control_c, 0, 64, 37
1, 91673, Control_c, 0, 64, 49
1, 91692, Control_c, 0, 64, 64
1, 91710, Control_c, 0, 64, 81
1, 91730, Control_c, 0, 64, 116
1, 91738, Note_off_c, 0, 29, 54
1, 91748, Control_c, 0, 64, 127
1, 91749, Control_c, 0, 67, 102
1, 91767, Control_c, 0, 67, 94
1, 91786, Control_c, 0, 67, 84
1, 91801, Note_off_c, 0, 41, 61
1, 91803, Control_c, 0, 67, 75
1, 91823, Control_c, 0, 67, 68
1, 91840, Control_c, 0, 67, 62
1, 91934, Poly_aftertouch_c, 0, 77, 28
1, 91938, Note_on_c, 0, 77, 70
1, 91952, Poly_aftertouch_c, 0, 65, 28
1, 91953, Poly_aftertouch_c, 0, 75, 28
1, 91959, Note_on_c, 0, 65, 29
1, 91967, Note_on_c, 0, 75, 40
1, 92015, Poly_aftertouch_c, 0, 69, 28
1, 92066, Poly_aftertouch_c, 0, 69, 127
1, 92142, Note_off_c, 0, 65, 53
1, 92157, Poly_aftertouch_c, 0, 69, 0
1, 92161, Note_off_c, 0, 77, 62
1, 92191, Poly_aftertouch_c, 0, 53, 28
1, 92192, Poly_aftertouch_c, 0, 63, 28
1, 92199, Note_on_c, 0, 53, 34
1, 92201, Note_off_c, 0, 75, 49
1, 92201, Note_on_c, 0, 63, 49
1, 92258, Note_off_c, 0, 63, 60
1, 92280, Note_off_c, 0, 53, 55
1, 92454, Poly_aftertouch_c, 0, 78, 28
1, 92462, Note_on_c, 0, 78, 70
1, 92471, Poly_aftertouch_c, 0, 66, 28
1, 92477, Note_on_c, 0, 66, 42
1, 92482, Poly_aftertouch_c, 0, 75, 28
1, 92486, Poly_aftertouch_c, 0, 70, 28
1, 92490, Note_on_c, 0, 75, 47
1, 92498, Note_on_c, 0, 70, 41
1, 92554, Note_off_c, 0, 70, 48
1, 92573, Note_off_c, 0, 66, 46
1, 92608, Note_off_c, 0, 75, 53
1, 92647, Note_off_c, 0, 78, 57
1, 92659, Poly_aftertouch_c, 0, 51, 28
1, 92663, Poly_aftertouch_c, 0, 41, 28
1, 92665, Note_on_c, 0, 51, 53
1, 92671, Note_on_c, 0, 41, 46
1, 92699, Note_off_c, 0, 51, 61
1, 92715, Note_off_c, 0, 41, 62
1, 92835, Poly_aftertouch_c, 0, 79, 28
1, 92838, Note_on_c, 0, 79, 71
1, 92849, Poly_aftertouch_c, 0, 67, 28
1, 92849, Poly_aftertouch_c, 0, 75, 28
1, 92855, Note_on_c, 0, 67, 52
1, 92859, Note_on_c, 0, 75, 56
1, 92866, Poly_aftertouch_c, 0, 71, 28
1, 92870, Note_on_c, 0, 71, 47
1, 92904, Note_off_c, 0, 67, 63
1, 92912, Note_off_c, 0, 71, 50
1, 92924, Note_off_c, 0, 79, 62
1, 92947, Note_off_c, 0, 75, 54
1, 92984, Poly_aftertouch_c, 0, 29, 28
1, 92990, Note_on_c, 0, 29, 51
1, 92995, Poly_aftertouch_c, 0, 41, 28
1, 93000, Note_on_c, 0, 41, 53
1, 93039, Note_off_c, 0, 29, 46
1, 93042, Note_off_c, 0, 41, 63
1, 93153, Poly_aftertouch_c, 0, 80, 28
1, 93158, Poly_aftertouch_c, 0, 75, 28
1, 93161, Note_on_c, 0, 80, 74
1, 93166, Note_on_c, 0, 75, 59
1, 93167, Note_on_c, 0, 72, 59
1, 93167, Poly_aftertouch_c, 0, 68, 28
1, 93167, Poly_aftertouch_c, 0, 72, 28
1, 93173, Note_on_c, 0, 68, 53
1, 93228, Note_off_c, 0, 68, 61
1, 93232, Note_off_c, 0, 72, 55
1, 93270, Note_off_c, 0, 75, 53
1, 93288, Note_off_c, 0, 80, 63
1, 93290, Poly_aftertouch_c, 0, 63, 28
1, 93296, Note_on_c, 0, 63, 67
1, 93301, Poly_aftertouch_c, 0, 53, 28
1, 93307, Note_on_c, 0, 53, 64
1, 93333, Note_off_c, 0, 63, 69
1, 93347, Note_off_c, 0, 53, 65
1, 93464, Poly_aftertouch_c, 0, 81, 28
1, 93467, Note_on_c, 0, 81, 78
1, 93476, Poly_aftertouch_c, 0, 69, 28
1, 93476, Poly_aftertouch_c, 0, 75, 28
1, 93478, Note_on_c, 0, 69, 73
1, 93482, Note_on_c, 0, 75, 72
1, 93493, Poly_aftertouch_c, 0, 73, 28
1, 93499, Note_on_c, 0, 73, 53
1, 93543, Note_off_c, 0, 73, 52
1, 93551, Note_off_c, 0, 69, 58
1, 93575, Note_off_c, 0, 81, 59
1, 93610, Poly_aftertouch_c, 0, 50, 28
1, 93617, Note_on_c, 0, 50, 65
1, 93617, Poly_aftertouch_c, 0, 53, 28
1, 93623, Note_on_c, 0, 53, 61
1, 93624, Note_on_c, 0, 41, 67
1, 93624, Poly_aftertouch_c, 0, 41, 28
1, 93654, Note_off_c, 0, 50, 65
1, 93670, Note_off_c, 0, 53, 52
1, 93696, Note_off_c, 0, 41, 61
1, 93763, Note_off_c, 0, 75, 59
1, 93782, Poly_aftertouch_c, 0, 74, 28
1, 93786, Note_on_c, 0, 74, 76
1, 93787, Poly_aftertouch_c, 0, 82, 28
1, 93787, Control_c, 0, 67, 58
1, 93789, Note_on_c, 0, 82, 87
1, 93798, Poly_aftertouch_c, 0, 70, 28
1, 93802, Note_on_c, 0, 70, 68
1, 93844, Control_c, 0, 67, 51
1, 93883, Control_c, 0, 67, 45
1, 93889, Note_off_c, 0, 70, 59
1, 93898, Note_off_c, 0, 74, 59
1, 93926, Poly_aftertouch_c, 0, 46, 28
1, 93934, Note_on_c, 0, 46, 64
1, 93941, Poly_aftertouch_c, 0, 40, 28
1, 93944, Note_on_c, 0, 40, 61
1, 93944, Note_on_c, 0, 52, 65
1, 93945, Poly_aftertouch_c, 0, 52, 28
1, 93961, Note_off_c, 0, 82, 66
1, 94032, Control_c, 0, 64, 121
1, 94049, Control_c, 0, 64, 81
1, 94069, Control_c, 0, 64, 60
1, 94088, Control_c, 0, 64, 55
1, 94104, Poly_aftertouch_c, 0, 86, 28
1, 94106, Control_c, 0, 64, 58
1, 94107, Note_on_c, 0, 86, 92
1, 94119, Poly_aftertouch_c, 0, 80, 28
1, 94124, Control_c, 0, 64, 64
1, 94127, Note_on_c, 0, 80, 69
1, 94134, Note_on_c, 0, 74, 61
1, 94136, Poly_aftertouch_c, 0, 74, 28
1, 94137, Note_off_c, 0, 40, 58
1, 94143, Control_c, 0, 64, 74
1, 94152, Note_off_c, 0, 52, 56
1, 94160, Control_c, 0, 64, 94
1, 94180, Control_c, 0, 64, 127
1, 94186, Note_off_c, 0, 46, 50
1, 94269, Poly_aftertouch_c, 0, 46, 28
1, 94274, Control_c, 0, 67, 41
1, 94281, Note_on_c, 0, 46, 53
1, 94287, Poly_aftertouch_c, 0, 53, 28
1, 94289, Note_off_c, 0, 74, 51
1, 94289, Note_on_c, 0, 53, 73
1, 94293, Poly_aftertouch_c, 0, 41, 28
1, 94295, Note_on_c, 0, 41, 65
1, 94302, Note_off_c, 0, 86, 62
1, 94306, Note_on_c, 0, 74, 20
1, 94307, Note_off_c, 0, 74, 127
1, 94312, Control_c, 0, 67, 32
1, 94330, Control_c, 0, 67, 17
1, 94350, Control_c, 0, 67, 0
1, 94368, Note_off_c, 0, 80, 54
1, 94511, Note_on_c, 0, 84, 88
1, 94513, Poly_aftertouch_c, 0, 84, 28
1, 94517, Control_c, 0, 64, 97
1, 94522, Poly_aftertouch_c, 0, 80, 28
1, 94529, Note_on_c, 0, 80, 67
1, 94530, Poly_aftertouch_c, 0, 72, 28
1, 94533, Note_on_c, 0, 72, 73
1, 94535, Control_c, 0, 64, 65
1, 94555, Control_c, 0, 64, 44
1, 94558, Note_off_c, 0, 53, 47
1, 94575, Control_c, 0, 64, 37
1, 94604, Note_off_c, 0, 46, 37
1, 94613, Control_c, 0, 64, 44
1, 94631, Control_c, 0, 64, 59
1, 94650, Control_c, 0, 64, 75
1, 94668, Control_c, 0, 64, 96
1, 94670, Note_off_c, 0, 72, 59
1, 94686, Control_c, 0, 64, 127
1, 94692, Note_off_c, 0, 80, 62
1, 94704, Poly_aftertouch_c, 0, 50, 28
1, 94710, Poly_aftertouch_c, 0, 46, 28
1, 94713, Note_on_c, 0, 46, 73
1, 94714, Note_on_c, 0, 50, 75
1, 94721, Poly_aftertouch_c, 0, 38, 28
1, 94728, Note_on_c, 0, 38, 66
1, 94765, Note_off_c, 0, 41, 55
1, 94803, Note_off_c, 0, 50, 61
1, 94808, Note_off_c, 0, 46, 60
1, 94831, Note_off_c, 0, 38, 61
1, 94841, Poly_aftertouch_c, 0, 80, 28
1, 94841, Poly_aftertouch_c, 0, 82, 28
1, 94848, Note_on_c, 0, 80, 80
1, 94849, Note_on_c, 0, 82, 83
1, 94850, Poly_aftertouch_c, 0, 70, 28
1, 94851, Note_off_c, 0, 84, 64
1, 94854, Note_on_c, 0, 70, 82
1, 94889, Note_off_c, 0, 70, 62
1, 94958, Note_off_c, 0, 82, 65
1, 94958, Note_off_c, 0, 80, 64
1, 95005, Poly_aftertouch_c, 0, 47, 28
1, 95012, Note_on_c, 0, 47, 86
1, 95024, Poly_aftertouch_c, 0, 35, 28
1, 95027, Note_on_c, 0, 35, 74
1, 95080, Control_c, 0, 64, 89
1, 95099, Control_c, 0, 64, 62
1, 95116, Control_c, 0, 64, 41
1, 95136, Control_c, 0, 64, 35
1, 95174, Control_c, 0, 64, 42
1, 95189, Poly_aftertouch_c, 0, 80, 28
1, 95190, Poly_aftertouch_c, 0, 86, 28
1, 95190, Poly_aftertouch_c, 0, 89, 28
1, 95192, Note_on_c, 0, 89, 89
1, 95193, Control_c, 0, 64, 57
1, 95194, Note_on_c, 0, 86, 82
1, 95195, Note_on_c, 0, 77, 82
1, 95196, Note_on_c, 0, 80, 82
1, 95200, Poly_aftertouch_c, 0, 77, 28
1, 95213, Control_c, 0, 64, 75
1, 95230, Control_c, 0, 64, 96
1, 95231, Note_off_c, 0, 35, 56
1, 95248, Control_c, 0, 64, 127
1, 95253, Note_off_c, 0, 47, 58
1, 95272, Note_off_c, 0, 89, 62
1, 95279, Note_off_c, 0, 77, 63
1, 95295, Note_off_c, 0, 86, 64
1, 95339, Note_off_c, 0, 80, 64
1, 95379, Poly_aftertouch_c, 0, 48, 28
1, 95383, Note_on_c, 0, 48, 85
1, 95385, Poly_aftertouch_c, 0, 36, 28
1, 95387, Note_on_c, 0, 36, 80
1, 95567, Control_c, 0, 64, 115
1, 95584, Control_c, 0, 64, 76
1, 95603, Control_c, 0, 64, 51
1, 95620, Poly_aftertouch_c, 0, 87, 28
1, 95621, Control_c, 0, 64, 32
1, 95624, Note_on_c, 0, 87, 86
1, 95627, Note_on_c, 0, 75, 78
1, 95628, Note_on_c, 0, 79, 80
1, 95629, Poly_aftertouch_c, 0, 75, 28
1, 95629, Poly_aftertouch_c, 0, 79, 28
1, 95630, Poly_aftertouch_c, 0, 84, 28
1, 95632, Note_on_c, 0, 84, 80
1, 95641, Control_c, 0, 64, 28
1, 95679, Control_c, 0, 64, 37
1, 95680, Note_off_c, 0, 36, 57
1, 95698, Control_c, 0, 64, 55
1, 95716, Note_off_c, 0, 48, 57
1, 95716, Control_c, 0, 64, 76
1, 95735, Control_c, 0, 64, 105
1, 95754, Control_c, 0, 64, 127
1, 95770, Note_off_c, 0, 79, 61
1, 95799, Note_off_c, 0, 87, 65
1, 95809, Note_off_c, 0, 75, 59
1, 95857, Note_off_c, 0, 84, 53
1, 95880, Poly_aftertouch_c, 0, 39, 28
1, 95881, Poly_aftertouch_c, 0, 51, 28
1, 95883, Note_on_c, 0, 51, 77
1, 95888, Note_on_c, 0, 39, 75
1, 95973, Note_off_c, 0, 51, 58
1, 96017, Note_off_c, 0, 39, 58
1, 96144, Poly_aftertouch_c, 0, 84, 28
1, 96151, Note_on_c, 0, 84, 76
1, 96154, Poly_aftertouch_c, 0, 78, 28
1, 96160, Note_on_c, 0, 78, 70
1, 96160, Poly_aftertouch_c, 0, 72, 28
1, 96166, Note_on_c, 0, 72, 60
1, 96429, Poly_aftertouch_c, 0, 29, 28
1, 96430, Poly_aftertouch_c, 0, 41, 28
1, 96432, Note_on_c, 0, 41, 76
1, 96432, Note_on_c, 0, 29, 69
1, 96438, Note_off_c, 0, 78, 64
1, 96446, Control_c, 0, 64, 103
1, 96464, Control_c, 0, 64, 74
1, 96484, Control_c, 0, 64, 45
1, 96489, Note_off_c, 0, 84, 62
1, 96506, Note_off_c, 0, 72, 57
1, 96520, Control_c, 0, 64, 0
1, 96672, Control_c, 0, 64, 8
1, 96690, Control_c, 0, 64, 19
1, 96703, Note_off_c, 0, 29, 56
1, 96706, Control_c, 0, 64, 34
1, 96727, Control_c, 0, 64, 55
1, 96744, Poly_aftertouch_c, 0, 77, 28
1, 96744, Control_c, 0, 64, 72
1, 96747, Note_on_c, 0, 77, 72
1, 96765, Control_c, 0, 64, 86
1, 96783, Control_c, 0, 64, 109
1, 96795, Note_off_c, 0, 41, 56
1, 96799, Control_c, 0, 64, 127
1, 96896, Note_off_c, 0, 77, 58
1, 96924, Poly_aftertouch_c, 0, 70, 28
1, 96925, Poly_aftertouch_c, 0, 82, 28
1, 96927, Note_on_c, 0, 82, 80
1, 96928, Note_on_c, 0, 70, 78
1, 96978, Note_off_c, 0, 70, 59
1, 97073, Note_off_c, 0, 82, 62
1, 97149, Poly_aftertouch_c, 0, 86, 28
1, 97152, Note_on_c, 0, 86, 84
1, 97160, Poly_aftertouch_c, 0, 74, 28
1, 97163, Note_on_c, 0, 74, 80
1, 97226, Note_off_c, 0, 74, 61
1, 97438, Control_c, 0, 64, 104
1, 97457, Control_c, 0, 64, 72
1, 97471, Poly_aftertouch_c, 0, 85, 28
1, 97476, Control_c, 0, 64, 47
1, 97477, Note_on_c, 0, 85, 77
1, 97478, Poly_aftertouch_c, 0, 73, 28
1, 97481, Note_on_c, 0, 73, 71
1, 97489, Poly_aftertouch_c, 0, 70, 28
1, 97494, Poly_aftertouch_c, 0, 58, 28
1, 97495, Note_on_c, 0, 70, 63
1, 97495, Control_c, 0, 64, 26
1, 97500, Note_on_c, 0, 58, 58
1, 97502, Note_off_c, 0, 86, 61
1, 97514, Control_c, 0, 64, 16
1, 97570, Control_c, 0, 64, 29
1, 97587, Note_off_c, 0, 70, 61
1, 97588, Control_c, 0, 64, 46
1, 97598, Note_off_c, 0, 58, 63
1, 97605, Control_c, 0, 64, 66
1, 97625, Control_c, 0, 64, 79
1, 97644, Control_c, 0, 64, 94
1, 97662, Control_c, 0, 64, 108
1, 97681, Control_c, 0, 64, 127
1, 97741, Poly_aftertouch_c, 0, 55, 28
1, 97747, Note_on_c, 0, 55, 66
1, 97762, Note_on_c, 0, 67, 43
1, 97763, Poly_aftertouch_c, 0, 67, 28
1, 97775, Note_off_c, 0, 55, 56
1, 97800, Note_off_c, 0, 67, 49
1, 97915, Note_on_c, 0, 52, 65
1, 97917, Poly_aftertouch_c, 0, 52, 28
1, 97928, Note_on_c, 0, 64, 47
1, 97931, Poly_aftertouch_c, 0, 64, 28
1, 97939, Note_off_c, 0, 52, 59
1, 97967, Note_off_c, 0, 64, 54
1, 98007, Note_off_c, 0, 73, 36
1, 98061, Poly_aftertouch_c, 0, 49, 28
1, 98064, Note_on_c, 0, 49, 71
1, 98065, Poly_aftertouch_c, 0, 84, 28
1, 98068, Note_on_c, 0, 84, 70
1, 98070, Poly_aftertouch_c, 0, 61, 28
1, 98072, Note_on_c, 0, 61, 57
1, 98072, Poly_aftertouch_c, 0, 72, 28
1, 98073, Note_off_c, 0, 85, 52
1, 98076, Note_on_c, 0, 72, 61
1, 98101, Note_off_c, 0, 49, 63
1, 98102, Note_off_c, 0, 61, 59
1, 98208, Poly_aftertouch_c, 0, 46, 28
1, 98213, Note_on_c, 0, 46, 80
1, 98215, Poly_aftertouch_c, 0, 58, 28
1, 98223, Note_on_c, 0, 58, 64
1, 98266, Note_off_c, 0, 58, 64
1, 98277, Note_off_c, 0, 46, 57
1, 98317, Note_off_c, 0, 72, 59
1, 98321, Note_off_c, 0, 84, 57
1, 98368, Poly_aftertouch_c, 0, 43, 28
1, 98370, Note_on_c, 0, 43, 81
1, 98378, Poly_aftertouch_c, 0, 55, 28
1, 98380, Note_on_c, 0, 55, 62
1, 98412, Note_off_c, 0, 43, 64
1, 98413, Note_off_c, 0, 55, 58
1, 98514, Poly_aftertouch_c, 0, 40, 28
1, 98517, Poly_aftertouch_c, 0, 52, 28
1, 98519, Note_on_c, 0, 40, 80
1, 98520, Poly_aftertouch_c, 0, 70, 28
1, 98521, Poly_aftertouch_c, 0, 82, 28
1, 98523, Note_on_c, 0, 82, 78
1, 98524, Note_on_c, 0, 52, 72
1, 98527, Note_on_c, 0, 70, 72
1, 98555, Note_off_c, 0, 40, 61
1, 98561, Note_off_c, 0, 52, 64
1, 98651, Poly_aftertouch_c, 0, 37, 28
1, 98655, Note_on_c, 0, 37, 83
1, 98657, Poly_aftertouch_c, 0, 49, 28
1, 98660, Note_on_c, 0, 49, 74
1, 98685, Note_off_c, 0, 70, 51
1, 98695, Note_off_c, 0, 49, 66
1, 98711, Note_off_c, 0, 37, 58
1, 98793, Note_off_c, 0, 82, 48
1, 98889, Poly_aftertouch_c, 0, 29, 28
1, 98890, Poly_aftertouch_c, 0, 41, 28
1, 98894, Note_on_c, 0, 41, 84
1, 98897, Note_on_c, 0, 29, 86
1, 98898, Control_c, 0, 64, 93
1, 98918, Control_c, 0, 64, 70
1, 98936, Control_c, 0, 64, 49
1, 98954, Control_c, 0, 64, 29
1, 98974, Control_c, 0, 64, 14
1, 99054, Note_off_c, 0, 29, 61
1, 99067, Control_c, 0, 64, 25
1, 99083, Poly_aftertouch_c, 0, 77, 28
1, 99084, Control_c, 0, 64, 38
1, 99085, Note_on_c, 0, 77, 77
1, 99104, Control_c, 0, 64, 56
1, 99112, Note_off_c, 0, 41, 59
1, 99123, Control_c, 0, 64, 72
1, 99142, Control_c, 0, 64, 85
1, 99160, Control_c, 0, 64, 103
1, 99180, Control_c, 0, 64, 127
1, 99188, Note_off_c, 0, 77, 59
1, 99227, Poly_aftertouch_c, 0, 81, 28
1, 99229, Note_on_c, 0, 81, 85
1, 99232, Note_on_c, 0, 69, 80
1, 99234, Poly_aftertouch_c, 0, 69, 28
1, 99277, Note_off_c, 0, 69, 57
1, 99342, Note_off_c, 0, 81, 62
1, 99404, Poly_aftertouch_c, 0, 84, 28
1, 99409, Note_on_c, 0, 84, 93
1, 99416, Poly_aftertouch_c, 0, 72, 28
1, 99418, Note_on_c, 0, 72, 80
1, 99453, Note_off_c, 0, 72, 64
1, 99483, Note_off_c, 0, 84, 63
1, 99703, Control_c, 0, 64, 110
1, 99711, Poly_aftertouch_c, 0, 87, 28
1, 99714, Note_on_c, 0, 87, 93
1, 99716, Poly_aftertouch_c, 0, 75, 28
1, 99720, Note_on_c, 0, 75, 85
1, 99722, Control_c, 0, 64, 77
1, 99740, Control_c, 0, 64, 52
1, 99745, Note_on_c, 0, 60, 61
1, 99750, Poly_aftertouch_c, 0, 60, 28
1, 99751, Poly_aftertouch_c, 0, 72, 28
1, 99756, Note_on_c, 0, 72, 52
1, 99757, Note_on_c, 0, 74, 53
1, 99758, Poly_aftertouch_c, 0, 74, 28
1, 99758, Control_c, 0, 64, 31
1, 99763, Poly_aftertouch_c, 0, 62, 28
1, 99767, Note_on_c, 0, 62, 55
1, 99778, Control_c, 0, 64, 26
1, 99785, Note_off_c, 0, 74, 59
1, 99801, Note_off_c, 0, 62, 55
1, 99802, Note_off_c, 0, 72, 54
1, 99817, Control_c, 0, 64, 36
1, 99821, Note_off_c, 0, 60, 62
1, 99834, Control_c, 0, 64, 54
1, 99854, Control_c, 0, 64, 75
1, 99871, Control_c, 0, 64, 94
1, 99890, Control_c, 0, 64, 127
1, 99937, Poly_aftertouch_c, 0, 57, 28
1, 99943, Note_on_c, 0, 57, 76
1, 99952, Note_on_c, 0, 69, 59
1, 99953, Poly_aftertouch_c, 0, 69, 28
1, 99974, Note_off_c, 0, 57, 68
1, 99980, Note_off_c, 0, 69, 59
1, 100091, Poly_aftertouch_c, 0, 54, 28
1, 100096, Note_on_c, 0, 54, 80
1, 100099, Note_on_c, 0, 66, 72
1, 100100, Poly_aftertouch_c, 0, 66, 28
1, 100128, Note_off_c, 0, 54, 64
1, 100129, Note_off_c, 0, 66, 66
1, 100167, Note_off_c, 0, 75, 56
1, 100239, Note_off_c, 0, 87, 56
1, 100245, Poly_aftertouch_c, 0, 86, 28
1, 100247, Note_on_c, 0, 86, 79
1, 100250, Poly_aftertouch_c, 0, 51, 28
1, 100251, Poly_aftertouch_c, 0, 63, 28
1, 100252, Note_on_c, 0, 51, 77
1, 100254, Note_on_c, 0, 74, 73
1, 100255, Poly_aftertouch_c, 0, 74, 28
1, 100259, Note_on_c, 0, 63, 70
1, 100288, Note_off_c, 0, 51, 65
1, 100292, Note_off_c, 0, 63, 68
1, 100392, Poly_aftertouch_c, 0, 48, 28
1, 100392, Poly_aftertouch_c, 0, 60, 28
1, 100396, Note_on_c, 0, 48, 83
1, 100397, Note_on_c, 0, 60, 73
1, 100429, Note_off_c, 0, 48, 62
1, 100429, Note_off_c, 0, 60, 66
1, 100447, Note_off_c, 0, 86, 55
1, 100496, Note_off_c, 0, 74, 56
1, 100536, Poly_aftertouch_c, 0, 45, 28
1, 100541, Note_on_c, 0, 45, 87
1, 100542, Poly_aftertouch_c, 0, 57, 28
1, 100544, Note_on_c, 0, 57, 80
1, 100572, Note_off_c, 0, 57, 66
1, 100579, Note_off_c, 0, 45, 56
1, 100673, Poly_aftertouch_c, 0, 84, 28
1, 100677, Note_on_c, 0, 84, 83
1, 100682, Poly_aftertouch_c, 0, 42, 28
1, 100683, Note_on_c, 0, 42, 84
1, 100685, Poly_aftertouch_c, 0, 54, 28
1, 100686, Note_on_c, 0, 54, 82
1, 100687, Poly_aftertouch_c, 0, 72, 28
1, 100689, Note_on_c, 0, 72, 75
1, 100726, Note_off_c, 0, 54, 66
1, 100738, Note_off_c, 0, 42, 56
1, 100819, Poly_aftertouch_c, 0, 39, 28
1, 100820, Note_on_c, 0, 39, 86
1, 100825, Poly_aftertouch_c, 0, 51, 28
1, 100828, Note_on_c, 0, 51, 71
1, 100861, Note_off_c, 0, 51, 63
1, 100886, Note_off_c, 0, 39, 59
1, 101016, Poly_aftertouch_c, 0, 29, 28
1, 101017, Poly_aftertouch_c, 0, 41, 28
1, 101020, Note_on_c, 0, 41, 92
1, 101023, Note_on_c, 0, 29, 96
1, 101032, Control_c, 0, 64, 100
1, 101052, Control_c, 0, 64, 68
1, 101054, Note_off_c, 0, 84, 60
1, 101069, Control_c, 0, 64, 39
1, 101088, Control_c, 0, 64, 13
1, 101096, Note_off_c, 0, 72, 57
1, 101175, Note_off_c, 0, 29, 62
1, 101182, Control_c, 0, 64, 22
1, 101195, Poly_aftertouch_c, 0, 77, 28
1, 101196, Note_on_c, 0, 77, 80
1, 101200, Control_c, 0, 64, 37
1, 101219, Control_c, 0, 64, 60
1, 101224, Note_off_c, 0, 41, 59
1, 101238, Control_c, 0, 64, 77
1, 101258, Control_c, 0, 64, 95
1, 101275, Control_c, 0, 64, 127
1, 101288, Note_off_c, 0, 77, 59
1, 101338, Poly_aftertouch_c, 0, 70, 28
1, 101339, Poly_aftertouch_c, 0, 82, 28
1, 101343, Note_on_c, 0, 70, 83
1, 101344, Note_on_c, 0, 82, 88
1, 101408, Note_off_c, 0, 70, 64
1, 101445, Note_off_c, 0, 82, 64
1, 101526, Note_on_c, 0, 86, 94
1, 101527, Note_on_c, 0, 74, 88
1, 101528, Poly_aftertouch_c, 0, 74, 28
1, 101529, Poly_aftertouch_c, 0, 86, 28
1, 101588, Note_off_c, 0, 74, 63
1, 101603, Note_off_c, 0, 86, 60
1, 101725, Control_c, 0, 64, 111
1, 101743, Control_c, 0, 64, 73
1, 101762, Control_c, 0, 64, 45
1, 101768, Poly_aftertouch_c, 0, 88, 28
1, 101772, Note_on_c, 0, 88, 96
1, 101774, Poly_aftertouch_c, 0, 76, 28
1, 101775, Note_on_c, 0, 76, 95
1, 101780, Control_c, 0, 64, 23
1, 101785, Poly_aftertouch_c, 0, 61, 28
1, 101787, Note_on_c, 0, 73, 85
1, 101788, Note_on_c, 0, 61, 77
1, 101789, Poly_aftertouch_c, 0, 73, 28
1, 101837, Note_off_c, 0, 73, 59
1, 101838, Control_c, 0, 64, 32
1, 101856, Control_c, 0, 64, 52
1, 101859, Note_off_c, 0, 61, 60
1, 101874, Control_c, 0, 64, 76
1, 101894, Control_c, 0, 64, 100
1, 101912, Control_c, 0, 64, 127
1, 101953, Poly_aftertouch_c, 0, 70, 28
1, 101958, Poly_aftertouch_c, 0, 58, 28
1, 101960, Note_on_c, 0, 70, 82
1, 101960, Note_on_c, 0, 58, 81
1, 102007, Note_off_c, 0, 76, 55
1, 102015, Note_off_c, 0, 70, 61
1, 102022, Note_off_c, 0, 58, 60
1, 102104, Poly_aftertouch_c, 0, 55, 28
1, 102107, Note_on_c, 0, 55, 86
1, 102115, Poly_aftertouch_c, 0, 67, 28
1, 102119, Note_on_c, 0, 67, 69
1, 102142, Note_off_c, 0, 67, 64
1, 102146, Note_off_c, 0, 55, 59
1, 102247, Poly_aftertouch_c, 0, 52, 28
1, 102248, Poly_aftertouch_c, 0, 64, 28
1, 102251, Poly_aftertouch_c, 0, 79, 28
1, 102252, Poly_aftertouch_c, 0, 91, 28
1, 102253, Note_on_c, 0, 52, 88
1, 102253, Note_on_c, 0, 64, 83
1, 102254, Note_on_c, 0, 91, 97
1, 102255, Note_on_c, 0, 79, 93
1, 102263, Note_off_c, 0, 88, 55
1, 102280, Note_off_c, 0, 64, 71
1, 102293, Note_off_c, 0, 52, 59
1, 102325, Note_off_c, 0, 79, 62
1, 102377, Note_off_c, 0, 91, 60
1, 102388, Poly_aftertouch_c, 0, 49, 28
1, 102389, Poly_aftertouch_c, 0, 61, 28
1, 102393, Note_on_c, 0, 49, 86
1, 102394, Note_on_c, 0, 61, 88
1, 102425, Note_off_c, 0, 61, 62
1, 102439, Note_off_c, 0, 49, 52
1, 102529, Poly_aftertouch_c, 0, 46, 28
1, 102532, Note_on_c, 0, 46, 91
1, 102535, Poly_aftertouch_c, 0, 58, 28
1, 102538, Note_on_c, 0, 58, 86
1, 102585, Note_off_c, 0, 58, 62
1, 102597, Note_off_c, 0, 46, 64
1, 102680, Note_on_c, 0, 43, 98
1, 102681, Poly_aftertouch_c, 0, 43, 28
1, 102682, Poly_aftertouch_c, 0, 55, 28
1, 102684, Note_on_c, 0, 55, 91
1, 102685, Poly_aftertouch_c, 0, 82, 28
1, 102686, Poly_aftertouch_c, 0, 94, 28
1, 102689, Note_on_c, 0, 94, 104
1, 102690, Note_on_c, 0, 82, 96
1, 102734, Note_off_c, 0, 43, 65
1, 102734, Note_off_c, 0, 55, 59
1, 102750, Note_off_c, 0, 94, 64
1, 102769, Note_off_c, 0, 82, 61
1, 102823, Poly_aftertouch_c, 0, 40, 28
1, 102824, Poly_aftertouch_c, 0, 52, 28
1, 102825, Note_on_c, 0, 52, 85
1, 102825, Note_on_c, 0, 40, 92
1, 102856, Note_off_c, 0, 52, 67
1, 102875, Note_off_c, 0, 40, 64
1, 103064, Poly_aftertouch_c, 0, 29, 28
1, 103064, Poly_aftertouch_c, 0, 41, 28
1, 103069, Note_on_c, 0, 41, 97
1, 103072, Note_on_c, 0, 29, 102
1, 103091, Control_c, 0, 64, 93
1, 103110, Control_c, 0, 64, 62
1, 103129, Control_c, 0, 64, 31
1, 103222, Control_c, 0, 64, 11
1, 103240, Control_c, 0, 64, 25
1, 103242, Note_off_c, 0, 29, 62
1, 103250, Poly_aftertouch_c, 0, 77, 28
1, 103251, Note_on_c, 0, 77, 86
1, 103259, Control_c, 0, 64, 44
1, 103278, Control_c, 0, 64, 68
1, 103285, Note_off_c, 0, 41, 57
1, 103298, Control_c, 0, 64, 85
1, 103315, Control_c, 0, 64, 127
1, 103349, Note_off_c, 0, 77, 63
1, 103403, Poly_aftertouch_c, 0, 84, 28
1, 103407, Note_on_c, 0, 84, 94
1, 103408, Note_on_c, 0, 72, 87
1, 103409, Poly_aftertouch_c, 0, 72, 28
1, 103455, Note_off_c, 0, 72, 60
1, 103496, Note_off_c, 0, 84, 63
1, 103595, Poly_aftertouch_c, 0, 75, 28
1, 103596, Poly_aftertouch_c, 0, 87, 28
1, 103599, Note_on_c, 0, 87, 98
1, 103601, Note_on_c, 0, 75, 90
1, 103677, Note_off_c, 0, 75, 54
1, 103840, Control_c, 0, 64, 79
1, 103858, Control_c, 0, 64, 48
1, 103874, Poly_aftertouch_c, 0, 90, 28
1, 103879, Poly_aftertouch_c, 0, 78, 28
1, 103879, Control_c, 0, 64, 21
1, 103882, Note_on_c, 0, 90, 102
1, 103882, Note_on_c, 0, 78, 102
1, 103887, Poly_aftertouch_c, 0, 63, 28
1, 103889, Note_on_c, 0, 75, 96
1, 103890, Note_on_c, 0, 63, 91
1, 103891, Poly_aftertouch_c, 0, 75, 28
1, 103912, Note_off_c, 0, 87, 64
1, 103934, Control_c, 0, 64, 34
1, 103949, Note_off_c, 0, 75, 66
1, 103952, Control_c, 0, 64, 59
1, 103963, Note_off_c, 0, 63, 62
1, 103969, Control_c, 0, 64, 87
1, 103990, Control_c, 0, 64, 127
1, 104095, Poly_aftertouch_c, 0, 60, 28
1, 104096, Note_on_c, 0, 60, 87
1, 104097, Note_off_c, 0, 78, 49
1, 104097, Poly_aftertouch_c, 0, 72, 28
1, 104099, Note_on_c, 0, 72, 85
1, 104129, Note_off_c, 0, 72, 60
1, 104137, Note_off_c, 0, 60, 60
1, 104250, Poly_aftertouch_c, 0, 57, 28
1, 104253, Poly_aftertouch_c, 0, 69, 28
1, 104255, Note_on_c, 0, 69, 89
1, 104255, Note_on_c, 0, 57, 89
1, 104288, Note_off_c, 0, 69, 61
1, 104292, Note_off_c, 0, 57, 63
1, 104375, Note_off_c, 0, 90, 63
1, 104375, Poly_aftertouch_c, 0, 93, 28
1, 104380, Note_on_c, 0, 93, 103
1, 104381, Poly_aftertouch_c, 0, 66, 28
1, 104382, Poly_aftertouch_c, 0, 81, 28
1, 104384, Note_on_c, 0, 81, 103
1, 104388, Note_on_c, 0, 66, 98
1, 104389, Note_on_c, 0, 54, 93
1, 104391, Poly_aftertouch_c, 0, 54, 28
1, 104440, Note_off_c, 0, 66, 60
1, 104447, Note_off_c, 0, 54, 60
1, 104529, Poly_aftertouch_c, 0, 51, 28
1, 104529, Poly_aftertouch_c, 0, 63, 28
1, 104531, Note_on_c, 0, 51, 93
1, 104531, Note_on_c, 0, 63, 89
1, 104554, Note_off_c, 0, 81, 52
1, 104588, Note_off_c, 0, 63, 65
1, 104599, Note_off_c, 0, 51, 62
1, 104698, Poly_aftertouch_c, 0, 48, 28
1, 104699, Poly_aftertouch_c, 0, 60, 28
1, 104704, Note_on_c, 0, 48, 98
1, 104704, Note_on_c, 0, 60, 93
1, 104755, Note_off_c, 0, 60, 65
1, 104766, Note_off_c, 0, 48, 59
1, 104874, Note_off_c, 0, 93, 62
1, 104900, Poly_aftertouch_c, 0, 45, 28
1, 104900, Poly_aftertouch_c, 0, 57, 28
1, 104902, Note_on_c, 0, 57, 98
1, 104903, Note_on_c, 0, 45, 99
1, 104904, Note_on_c, 0, 96, 110
1, 104905, Note_on_c, 0, 84, 105
1, 104907, Poly_aftertouch_c, 0, 84, 28
1, 104908, Poly_aftertouch_c, 0, 96, 28
1, 104947, Note_off_c, 0, 57, 67
1, 104951, Note_off_c, 0, 45, 66
1, 105054, Note_off_c, 0, 84, 59
1, 105088, Note_off_c, 0, 96, 61
1, 105108, Poly_aftertouch_c, 0, 42, 28
1, 105110, Poly_aftertouch_c, 0, 54, 28
1, 105112, Note_on_c, 0, 42, 98
1, 105113, Note_on_c, 0, 54, 97
1, 105150, Note_off_c, 0, 54, 62
1, 105170, Note_off_c, 0, 42, 60
1, 105450, Control_c, 0, 64, 77
1, 105468, Control_c, 0, 64, 38
1, 105487, Control_c, 0, 64, 0
1, 105506, Poly_aftertouch_c, 0, 93, 28
1, 105512, Note_on_c, 0, 93, 102
1, 105513, Note_on_c, 0, 87, 102
1, 105515, Poly_aftertouch_c, 0, 87, 28
1, 105515, Poly_aftertouch_c, 0, 99, 28
1, 105517, Note_on_c, 0, 99, 105
1, 105520, Poly_aftertouch_c, 0, 41, 28
1, 105523, Note_on_c, 0, 41, 107
1, 105526, Note_on_c, 0, 29, 101
1, 105529, Poly_aftertouch_c, 0, 29, 28
1, 105556, Note_off_c, 0, 29, 72
1, 105573, Note_off_c, 0, 41, 63
1, 105579, Control_c, 0, 64, 28
1, 105593, Note_off_c, 0, 99, 65
1, 105600, Control_c, 0, 64, 59
1, 105618, Control_c, 0, 64, 89
1, 105624, Note_off_c, 0, 93, 66
1, 105637, Control_c, 0, 64, 127
1, 105662, Note_off_c, 0, 87, 65
1, 105730, Control_c, 0, 64, 94
1, 105749, Control_c, 0, 64, 73
1, 105768, Control_c, 0, 64, 56
1, 105786, Control_c, 0, 64, 43
1, 105806, Control_c, 0, 64, 32
1, 105823, Control_c, 0, 64, 23
1, 105843, Control_c, 0, 64, 15
1, 105861, Control_c, 0, 64, 10
1, 105990, Poly_aftertouch_c, 0, 54, 28
1, 105995, Note_on_c, 0, 81, 93
1, 105996, Note_on_c, 0, 69, 95
1, 105997, Note_on_c, 0, 75, 97
1, 105997, Note_on_c, 0, 54, 95
1, 105998, Note_on_c, 0, 48, 90
1, 105999, Note_on_c, 0, 42, 89
1, 106001, Poly_aftertouch_c, 0, 69, 28
1, 106001, Poly_aftertouch_c, 0, 75, 28
1, 106002, Poly_aftertouch_c, 0, 81, 28
1, 106007, Poly_aftertouch_c, 0, 42, 28
1, 106009, Poly_aftertouch_c, 0, 48, 28
1, 106011, Control_c, 0, 64, 20
1, 106030, Control_c, 0, 64, 43
1, 106041, Note_off_c, 0, 42, 65
1, 106047, Note_off_c, 0, 54, 66
1, 106047, Control_c, 0, 64, 73
1, 106059, Note_off_c, 0, 48, 64
1, 106068, Control_c, 0, 64, 112
1, 106073, Note_off_c, 0, 69, 60
1, 106074, Note_off_c, 0, 81, 64
1, 106085, Control_c, 0, 64, 127
1, 106126, Note_off_c, 0, 75, 65
1, 106292, Control_c, 0, 64, 96
1, 106311, Control_c, 0, 64, 68
1, 106329, Control_c, 0, 64, 42
1, 106348, Control_c, 0, 64, 13
1, 106367, Control_c, 0, 64, 0
1, 106525, Poly_aftertouch_c, 0, 70, 28
1, 106525, Poly_aftertouch_c, 0, 74, 28
1, 106526, Poly_aftertouch_c, 0, 82, 28
1, 106529, Note_on_c, 0, 74, 94
1, 106530, Note_on_c, 0, 70, 100
1, 106531, Note_on_c, 0, 82, 98
1, 106533, Poly_aftertouch_c, 0, 31, 28
1, 106538, Note_on_c, 0, 31, 97
1, 106538, Poly_aftertouch_c, 0, 43, 28
1, 106547, Note_on_c, 0, 43, 65
1, 106554, Control_c, 0, 64, 47
1, 106567, Note_off_c, 0, 31, 71
1, 106573, Control_c, 0, 64, 93
1, 106580, Note_off_c, 0, 43, 64
1, 106591, Control_c, 0, 64, 127
1, 106621, Note_off_c, 0, 82, 66
1, 106647, Note_off_c, 0, 70, 61
1, 106659, Note_off_c, 0, 74, 63
1, 106965, Control_c, 0, 64, 82
1, 106984, Control_c, 0, 64, 54
1, 107004, Control_c, 0, 64, 20
1, 107021, Control_c, 0, 64, 0
1, 107241, Poly_aftertouch_c, 0, 62, 28
1, 107243, Poly_aftertouch_c, 0, 70, 28
1, 107244, Poly_aftertouch_c, 0, 74, 28
1, 107247, Note_on_c, 0, 62, 98
1, 107247, Note_on_c, 0, 74, 98
1, 107248, Note_on_c, 0, 70, 91
1, 107251, Note_on_c, 0, 58, 107
1, 107252, Note_on_c, 0, 44, 102
1, 107254, Note_on_c, 0, 50, 90
1, 107259, Poly_aftertouch_c, 0, 44, 28
1, 107259, Poly_aftertouch_c, 0, 50, 28
1, 107260, Poly_aftertouch_c, 0, 58, 28
1, 107302, Control_c, 0, 64, 19
1, 107309, Note_on_c, 0, 51, 25
1, 107310, Note_off_c, 0, 51, 127
1, 107321, Control_c, 0, 64, 28
1, 107341, Control_c, 0, 64, 35
1, 107359, Control_c, 0, 64, 51
1, 107377, Control_c, 0, 64, 68
1, 107397, Control_c, 0, 64, 87
1, 107415, Control_c, 0, 64, 127
1, 107608, Note_off_c, 0, 58, 59
1, 107634, Note_off_c, 0, 74, 48
1, 107678, Note_off_c, 0, 62, 43
1, 107712, Note_off_c, 0, 50, 54
1, 107773, Note_off_c, 0, 70, 56
1, 107811, Note_off_c, 0, 44, 54
1, 108866, Poly_aftertouch_c, 0, 81, 28
1, 108867, Poly_aftertouch_c, 0, 85, 28
1, 108868, Poly_aftertouch_c, 0, 88, 28
1, 108868, Poly_aftertouch_c, 0, 93, 28
1, 108870, Note_on_c, 0, 85, 99
1, 108873, Note_on_c, 0, 88, 96
1, 108873, Note_on_c, 0, 81, 105
1, 108875, Note_on_c, 0, 93, 105
1, 108881, Note_on_c, 0, 40, 93
1, 108882, Note_off_c, 0, 40, 127
1, 108883, Note_on_c, 0, 37, 96
1, 108884, Note_off_c, 0, 37, 127
1, 108884, Note_on_c, 0, 33, 96
1, 108885, Note_off_c, 0, 33, 127
1, 108890, Poly_aftertouch_c, 0, 33, 28
1, 108891, Poly_aftertouch_c, 0, 37, 28
1, 108891, Poly_aftertouch_c, 0, 40, 28
1, 108892, Poly_aftertouch_c, 0, 45, 28
1, 108913, Note_on_c, 0, 45, 47
1, 108931, Control_c, 0, 64, 93
1, 108943, Poly_aftertouch_c, 0, 33, 127
1, 108943, Poly_aftertouch_c, 0, 37, 127
1, 108943, Poly_aftertouch_c, 0, 40, 127
1, 108950, Control_c, 0, 64, 51
1, 108951, Poly_aftertouch_c, 0, 87, 28
1, 108952, Poly_aftertouch_c, 0, 87, 0
1, 108968, Control_c, 0, 64, 0
1, 109081, Control_c, 0, 64, 15
1, 109100, Control_c, 0, 64, 30
1, 109118, Control_c, 0, 64, 54
1, 109137, Control_c, 0, 64, 74
1, 109156, Control_c, 0, 64, 93
1, 109171, Poly_aftertouch_c, 0, 33, 0
1, 109173, Control_c, 0, 64, 127
1, 109281, Poly_aftertouch_c, 0, 37, 0
1, 109293, Poly_aftertouch_c, 0, 40, 0
1, 109297, Note_off_c, 0, 45, 57
1, 109320, Note_off_c, 0, 88, 60
1, 109324, Note_off_c, 0, 93, 48
1, 109363, Note_off_c, 0, 81, 57
1, 109711, Note_off_c, 0, 85, 63
1, 109750, Poly_aftertouch_c, 0, 88, 28
1, 109753, Note_on_c, 0, 88, 89
1, 109756, Note_on_c, 0, 79, 92
1, 109756, Note_on_c, 0, 91, 85
1, 109757, Poly_aftertouch_c, 0, 79, 28
1, 109759, Poly_aftertouch_c, 0, 91, 28
1, 109800, Note_off_c, 0, 91, 60
1, 109807, Note_off_c, 0, 88, 65
1, 109818, Note_off_c, 0, 79, 63
1, 109991, Poly_aftertouch_c, 0, 69, 28
1, 109996, Note_on_c, 0, 69, 86
1, 109998, Poly_aftertouch_c, 0, 64, 28
1, 109999, Note_on_c, 0, 73, 83
1, 110000, Poly_aftertouch_c, 0, 73, 28
1, 110003, Note_on_c, 0, 64, 83
1, 110024, Note_off_c, 0, 73, 70
1, 110034, Note_off_c, 0, 69, 60
1, 110053, Note_off_c, 0, 64, 64
1, 110163, Poly_aftertouch_c, 0, 74, 28
1, 110164, Poly_aftertouch_c, 0, 77, 28
1, 110166, Note_on_c, 0, 74, 81
1, 110166, Note_on_c, 0, 77, 83
1, 110170, Note_on_c, 0, 65, 85
1, 110171, Poly_aftertouch_c, 0, 65, 28
1, 110186, Control_c, 0, 64, 81
1, 110204, Control_c, 0, 64, 51
1, 110223, Control_c, 0, 64, 30
1, 110242, Control_c, 0, 64, 26
1, 110267, Note_off_c, 0, 77, 61
1, 110279, Control_c, 0, 64, 37
1, 110288, Note_off_c, 0, 74, 62
1, 110297, Control_c, 0, 64, 55
1, 110299, Note_off_c, 0, 65, 60
1, 110308, Poly_aftertouch_c, 0, 59, 28
1, 110308, Poly_aftertouch_c, 0, 62, 28
1, 110310, Poly_aftertouch_c, 0, 68, 28
1, 110312, Note_on_c, 0, 68, 82
1, 110312, Note_on_c, 0, 62, 78
1, 110313, Note_on_c, 0, 59, 81
1, 110314, Control_c, 0, 64, 71
1, 110335, Control_c, 0, 64, 86
1, 110341, Note_off_c, 0, 68, 72
1, 110352, Note_off_c, 0, 62, 66
1, 110355, Control_c, 0, 64, 108
1, 110363, Note_off_c, 0, 59, 62
1, 110370, Control_c, 0, 64, 127
1, 110461, Poly_aftertouch_c, 0, 62, 28
1, 110463, Note_on_c, 0, 74, 86
1, 110465, Poly_aftertouch_c, 0, 71, 28
1, 110465, Poly_aftertouch_c, 0, 74, 28
1, 110467, Note_on_c, 0, 71, 86
1, 110468, Note_on_c, 0, 62, 89
1, 110527, Note_off_c, 0, 74, 62
1, 110549, Note_off_c, 0, 62, 52
1, 110550, Note_off_c, 0, 71, 60
1, 110653, Control_c, 0, 64, 82
1, 110662, Poly_aftertouch_c, 0, 50, 28
1, 110667, Poly_aftertouch_c, 0, 45, 28
1, 110667, Poly_aftertouch_c, 0, 53, 28
1, 110669, Note_on_c, 0, 50, 89
1, 110670, Note_on_c, 0, 45, 89
1, 110672, Control_c, 0, 64, 50
1, 110673, Note_on_c, 0, 53, 91
1, 110692, Control_c, 0, 64, 17
1, 110729, Control_c, 0, 64, 8
1, 110747, Control_c, 0, 64, 18
1, 110765, Note_off_c, 0, 53, 62
1, 110765, Control_c, 0, 64, 38
1, 110784, Control_c, 0, 64, 64
1, 110796, Note_off_c, 0, 50, 63
1, 110804, Control_c, 0, 64, 83
1, 110818, Note_off_c, 0, 45, 63
1, 110822, Control_c, 0, 64, 114
1, 110840, Control_c, 0, 64, 127
1, 110903, Poly_aftertouch_c, 0, 69, 28
1, 110908, Poly_aftertouch_c, 0, 57, 28
1, 110909, Note_on_c, 0, 69, 93
1, 110910, Note_on_c, 0, 65, 90
1, 110911, Poly_aftertouch_c, 0, 65, 28
1, 110913, Note_on_c, 0, 57, 96
1, 110976, Note_off_c, 0, 69, 61
1, 110991, Note_off_c, 0, 57, 60
1, 111014, Note_off_c, 0, 65, 63
1, 111201, Poly_aftertouch_c, 0, 33, 28
1, 111206, Note_on_c, 0, 33, 96
1, 111207, Note_on_c, 0, 21, 99
1, 111208, Poly_aftertouch_c, 0, 21, 28
1, 111214, Control_c, 0, 64, 90
1, 111233, Control_c, 0, 64, 64
1, 111252, Control_c, 0, 64, 44
1, 111271, Control_c, 0, 64, 30
1, 111291, Control_c, 0, 64, 22
1, 111459, Control_c, 0, 64, 27
1, 111555, Poly_aftertouch_c, 0, 57, 28
1, 111561, Note_on_c, 0, 57, 89
1, 111562, Poly_aftertouch_c, 0, 52, 28
1, 111563, Poly_aftertouch_c, 0, 55, 28
1, 111563, Poly_aftertouch_c, 0, 61, 28
1, 111565, Note_on_c, 0, 55, 91
1, 111566, Note_on_c, 0, 61, 92
1, 111566, Note_on_c, 0, 52, 95
1, 111591, Control_c, 0, 64, 35
1, 111605, Note_on_c, 0, 56, 33
1, 111606, Note_off_c, 0, 56, 127
1, 111606, Control_c, 0, 64, 42
1, 111628, Control_c, 0, 64, 52
1, 111645, Control_c, 0, 64, 61
1, 111664, Control_c, 0, 64, 66
1, 111684, Control_c, 0, 64, 69
1, 111701, Control_c, 0, 64, 71
1, 111739, Control_c, 0, 64, 74
1, 111758, Control_c, 0, 64, 77
1, 111776, Control_c, 0, 64, 81
1, 111795, Control_c, 0, 64, 87
1, 111814, Control_c, 0, 64, 96
1, 111832, Control_c, 0, 64, 114
1, 111851, Control_c, 0, 64, 127
1, 112012, Note_off_c, 0, 52, 43
1, 112031, Note_off_c, 0, 21, 45
1, 112065, Note_off_c, 0, 61, 38
1, 112177, Note_off_c, 0, 55, 56
1, 112213, Note_off_c, 0, 57, 59
1, 112307, Note_off_c, 0, 33, 52
1, 112768, Poly_aftertouch_c, 0, 26, 28
1, 112771, Note_on_c, 0, 26, 86
1, 112774, Poly_aftertouch_c, 0, 50, 28
1, 112779, Note_on_c, 0, 50, 78
1, 112850, Poly_aftertouch_c, 0, 53, 28
1, 112854, Note_on_c, 0, 53, 77
1, 112883, Note_off_c, 0, 50, 63
1, 112904, Poly_aftertouch_c, 0, 57, 28
1, 112907, Note_on_c, 0, 57, 77
1, 112938, Control_c, 0, 64, 71
1, 112947, Poly_aftertouch_c, 0, 29, 28
1, 112947, Poly_aftertouch_c, 0, 33, 28
1, 112950, Note_on_c, 0, 29, 85
1, 112954, Note_on_c, 0, 33, 92
1, 112956, Poly_aftertouch_c, 0, 38, 28
1, 112957, Note_on_c, 0, 38, 99
1, 112957, Control_c, 0, 64, 34
1, 112958, Poly_aftertouch_c, 0, 62, 28
1, 112961, Note_on_c, 0, 62, 102
1, 112974, Control_c, 0, 64, 0
1, 112983, Note_on_c, 0, 59, 60
1, 112988, Note_off_c, 0, 53, 61
1, 112989, Poly_aftertouch_c, 0, 59, 28
1, 113004, Note_off_c, 0, 26, 61
1, 113006, Note_off_c, 0, 57, 63
1, 113007, Note_off_c, 0, 59, 59
1, 113049, Note_off_c, 0, 62, 65
1, 113049, Control_c, 0, 64, 24
1, 113061, Note_off_c, 0, 29, 63
1, 113068, Control_c, 0, 64, 53
1, 113076, Note_off_c, 0, 33, 61
1, 113081, Note_off_c, 0, 38, 62
1, 113087, Control_c, 0, 64, 79
1, 113106, Control_c, 0, 64, 117
1, 113124, Control_c, 0, 64, 127
1, 113476, Poly_aftertouch_c, 0, 74, 28
1, 113478, Note_on_c, 0, 74, 91
1, 113573, Note_off_c, 0, 74, 59
1, 113808, Poly_aftertouch_c, 0, 74, 28
1, 113812, Poly_aftertouch_c, 0, 62, 28
1, 113813, Note_on_c, 0, 74, 94
1, 113819, Note_on_c, 0, 62, 97
1, 113821, Poly_aftertouch_c, 0, 53, 28
1, 113822, Note_on_c, 0, 53, 86
1, 113827, Poly_aftertouch_c, 0, 50, 28
1, 113829, Note_on_c, 0, 50, 84
1, 113836, Control_c, 0, 64, 92
1, 113855, Control_c, 0, 64, 64
1, 113873, Control_c, 0, 64, 43
1, 113892, Control_c, 0, 64, 32
1, 113929, Control_c, 0, 64, 39
1, 113949, Control_c, 0, 64, 54
1, 113967, Control_c, 0, 64, 70
1, 113985, Control_c, 0, 64, 83
1, 114004, Control_c, 0, 64, 103
1, 114023, Control_c, 0, 64, 127
1, 114098, Note_off_c, 0, 62, 57
1, 114100, Note_off_c, 0, 74, 53
1, 114110, Poly_aftertouch_c, 0, 70, 28
1, 114110, Poly_aftertouch_c, 0, 82, 28
1, 114112, Note_on_c, 0, 82, 90
1, 114113, Note_on_c, 0, 70, 87
1, 114129, Note_off_c, 0, 50, 58
1, 114137, Note_off_c, 0, 53, 61
1, 114184, Note_off_c, 0, 70, 61
1, 114211, Note_off_c, 0, 82, 64
1, 114328, Poly_aftertouch_c, 0, 78, 28
1, 114329, Poly_aftertouch_c, 0, 78, 0
1, 114339, Poly_aftertouch_c, 0, 82, 28
1, 114344, Note_on_c, 0, 82, 87
1, 114345, Poly_aftertouch_c, 0, 70, 28
1, 114348, Note_on_c, 0, 70, 83
1, 114412, Note_off_c, 0, 70, 62
1, 114439, Note_off_c, 0, 82, 63
1, 114528, Control_c, 0, 64, 98
1, 114547, Control_c, 0, 64, 64
1, 114552, Poly_aftertouch_c, 0, 74, 28
1, 114557, Note_on_c, 0, 74, 88
1, 114560, Poly_aftertouch_c, 0, 50, 28
1, 114560, Poly_aftertouch_c, 0, 58, 28
1, 114561, Note_on_c, 0, 82, 96
1, 114562, Note_on_c, 0, 70, 89
1, 114564, Note_on_c, 0, 50, 80
1, 114564, Note_on_c, 0, 58, 93
1, 114566, Poly_aftertouch_c, 0, 70, 28
1, 114566, Control_c, 0, 64, 38
1, 114567, Poly_aftertouch_c, 0, 82, 28
1, 114573, Note_on_c, 0, 46, 80
1, 114574, Note_off_c, 0, 46, 127
1, 114575, Poly_aftertouch_c, 0, 46, 28
1, 114590, Control_c, 0, 64, 26
1, 114622, Control_c, 0, 64, 35
1, 114627, Poly_aftertouch_c, 0, 46, 127
1, 114641, Control_c, 0, 64, 51
1, 114658, Control_c, 0, 64, 70
1, 114659, Note_off_c, 0, 82, 66
1, 114668, Note_off_c, 0, 70, 60
1, 114678, Control_c, 0, 64, 90
1, 114697, Control_c, 0, 64, 127
1, 114704, Note_off_c, 0, 74, 61
1, 114715, Note_off_c, 0, 58, 62
1, 114723, Note_off_c, 0, 50, 61
1, 114751, Poly_aftertouch_c, 0, 46, 0
1, 114765, Poly_aftertouch_c, 0, 67, 28
1, 114766, Poly_aftertouch_c, 0, 79, 28
1, 114770, Note_on_c, 0, 79, 87
1, 114771, Note_on_c, 0, 67, 80
1, 114817, Note_off_c, 0, 67, 57
1, 114830, Note_off_c, 0, 79, 62
1, 114932, Poly_aftertouch_c, 0, 79, 28
1, 114933, Note_on_c, 0, 79, 84
1, 114936, Poly_aftertouch_c, 0, 67, 28
1, 114940, Note_on_c, 0, 67, 75
1, 114995, Note_off_c, 0, 67, 48
1, 115023, Note_off_c, 0, 79, 59
1, 115072, Control_c, 0, 64, 77
1, 115090, Control_c, 0, 64, 49
1, 115103, Poly_aftertouch_c, 0, 46, 28
1, 115104, Poly_aftertouch_c, 0, 50, 28
1, 115104, Poly_aftertouch_c, 0, 55, 28
1, 115107, Note_on_c, 0, 79, 91
1, 115109, Note_on_c, 0, 70, 85
1, 115109, Control_c, 0, 64, 23
1, 115111, Note_on_c, 0, 46, 71
1, 115111, Note_on_c, 0, 55, 85
1, 115112, Note_on_c, 0, 50, 78
1, 115113, Note_on_c, 0, 74, 83
1, 115116, Note_on_c, 0, 43, 69
1, 115118, Poly_aftertouch_c, 0, 67, 28
1, 115119, Poly_aftertouch_c, 0, 70, 28
1, 115119, Poly_aftertouch_c, 0, 74, 28
1, 115120, Poly_aftertouch_c, 0, 79, 28
1, 115124, Poly_aftertouch_c, 0, 43, 28
1, 115127, Note_on_c, 0, 67, 66
1, 115128, Control_c, 0, 64, 17
1, 115165, Control_c, 0, 64, 27
1, 115166, Note_off_c, 0, 79, 62
1, 115183, Control_c, 0, 64, 45
1, 115184, Note_off_c, 0, 67, 57
1, 115202, Control_c, 0, 64, 67
1, 115210, Note_off_c, 0, 74, 60
1, 115213, Note_off_c, 0, 43, 61
1, 115221, Control_c, 0, 64, 84
1, 115224, Note_off_c, 0, 70, 64
1, 115240, Control_c, 0, 64, 108
1, 115246, Note_off_c, 0, 46, 63
1, 115258, Control_c, 0, 64, 127
1, 115262, Note_off_c, 0, 50, 62
1, 115289, Poly_aftertouch_c, 0, 76, 28
1, 115294, Poly_aftertouch_c, 0, 64, 28
1, 115295, Note_on_c, 0, 76, 85
1, 115298, Note_on_c, 0, 64, 81
1, 115299, Note_off_c, 0, 55, 59
1, 115359, Note_off_c, 0, 64, 60
1, 115364, Note_off_c, 0, 76, 62
1, 115469, Poly_aftertouch_c, 0, 76, 28
1, 115473, Note_on_c, 0, 76, 79
1, 115479, Poly_aftertouch_c, 0, 64, 28
1, 115482, Note_on_c, 0, 64, 66
1, 115486, Poly_aftertouch_c, 0, 45, 28
1, 115491, Note_on_c, 0, 45, 70
1, 115522, Note_off_c, 0, 64, 62
1, 115548, Note_off_c, 0, 76, 57
1, 115572, Poly_aftertouch_c, 0, 49, 28
1, 115575, Note_on_c, 0, 49, 66
1, 115791, Poly_aftertouch_c, 0, 73, 28
1, 115797, Note_on_c, 0, 73, 61
1, 115797, Poly_aftertouch_c, 0, 77, 28
1, 115800, Note_on_c, 0, 77, 65
1, 115800, Control_c, 0, 64, 93
1, 115808, Note_on_c, 0, 57, 84
1, 115809, Poly_aftertouch_c, 0, 57, 28
1, 115811, Poly_aftertouch_c, 0, 65, 28
1, 115817, Note_on_c, 0, 65, 51
1, 115818, Control_c, 0, 64, 59
1, 115840, Control_c, 0, 64, 22
1, 115856, Control_c, 0, 64, 0
1, 115932, Control_c, 0, 64, 17
1, 115951, Control_c, 0, 64, 31
1, 115970, Note_off_c, 0, 65, 34
1, 115970, Control_c, 0, 64, 52
1, 115988, Control_c, 0, 64, 72
1, 116001, Note_off_c, 0, 45, 47
1, 116006, Control_c, 0, 64, 88
1, 116026, Control_c, 0, 64, 118
1, 116044, Control_c, 0, 64, 127
1, 116103, Note_off_c, 0, 49, 61
1, 116125, Note_off_c, 0, 77, 53
1, 116125, Note_off_c, 0, 73, 61
1, 116140, Poly_aftertouch_c, 0, 76, 28
1, 116145, Note_on_c, 0, 76, 60
1, 116145, Poly_aftertouch_c, 0, 64, 28
1, 116150, Note_on_c, 0, 64, 52
1, 116192, Note_off_c, 0, 64, 60
1, 116250, Note_off_c, 0, 76, 49
1, 116268, Note_off_c, 0, 57, 44
1, 116332, Poly_aftertouch_c, 0, 62, 28
1, 116335, Note_on_c, 0, 62, 53
1, 116337, Poly_aftertouch_c, 0, 46, 28
1, 116340, Poly_aftertouch_c, 0, 74, 28
1, 116345, Note_on_c, 0, 46, 58
1, 116345, Note_on_c, 0, 74, 58
1, 116368, Note_off_c, 0, 62, 57
1, 116378, Poly_aftertouch_c, 0, 50, 28
1, 116386, Note_on_c, 0, 50, 60
1, 116389, Note_off_c, 0, 74, 63
1, 116493, Control_c, 0, 64, 84
1, 116513, Control_c, 0, 64, 58
1, 116514, Poly_aftertouch_c, 0, 58, 28
1, 116517, Poly_aftertouch_c, 0, 79, 28
1, 116519, Note_on_c, 0, 58, 84
1, 116522, Note_on_c, 0, 79, 73
1, 116524, Poly_aftertouch_c, 0, 67, 28
1, 116525, Poly_aftertouch_c, 0, 74, 28
1, 116528, Note_on_c, 0, 67, 64
1, 116529, Note_on_c, 0, 74, 66
1, 116530, Control_c, 0, 64, 36
1, 116550, Control_c, 0, 64, 23
1, 116588, Control_c, 0, 64, 27
1, 116606, Control_c, 0, 64, 40
1, 116625, Control_c, 0, 64, 61
1, 116645, Control_c, 0, 64, 80
1, 116657, Note_off_c, 0, 67, 47
1, 116662, Control_c, 0, 64, 109
1, 116680, Control_c, 0, 64, 127
1, 116687, Note_off_c, 0, 74, 59
1, 116707, Note_off_c, 0, 79, 60
1, 116732, Note_off_c, 0, 50, 56
1, 116747, Poly_aftertouch_c, 0, 77, 28
1, 116750, Note_on_c, 0, 77, 62
1, 116756, Note_off_c, 0, 46, 50
1, 116817, Note_off_c, 0, 58, 64
1, 116842, Note_off_c, 0, 77, 58
1, 116868, Poly_aftertouch_c, 0, 65, 28
1, 116869, Poly_aftertouch_c, 0, 65, 0
1, 116908, Poly_aftertouch_c, 0, 45, 28
1, 116908, Poly_aftertouch_c, 0, 64, 28
1, 116911, Note_on_c, 0, 45, 64
1, 116912, Note_on_c, 0, 76, 67
1, 116914, Note_on_c, 0, 64, 64
1, 116914, Poly_aftertouch_c, 0, 76, 28
1, 116952, Note_off_c, 0, 64, 61
1, 116964, Note_off_c, 0, 76, 55
1, 116968, Poly_aftertouch_c, 0, 49, 28
1, 116973, Note_on_c, 0, 49, 57
1, 117018, Control_c, 0, 64, 96
1, 117037, Control_c, 0, 64, 66
1, 117055, Control_c, 0, 64, 44
1, 117070, Poly_aftertouch_c, 0, 57, 28
1, 117072, Note_on_c, 0, 57, 85
1, 117073, Control_c, 0, 64, 32
1, 117074, Poly_aftertouch_c, 0, 73, 28
1, 117074, Poly_aftertouch_c, 0, 77, 28
1, 117076, Note_on_c, 0, 77, 80
1, 117078, Note_on_c, 0, 73, 74
1, 117082, Poly_aftertouch_c, 0, 65, 28
1, 117088, Note_on_c, 0, 65, 67
1, 117130, Control_c, 0, 64, 47
1, 117136, Note_off_c, 0, 45, 48
1, 117142, Note_off_c, 0, 65, 56
1, 117149, Control_c, 0, 64, 65
1, 117168, Control_c, 0, 64, 82
1, 117186, Control_c, 0, 64, 114
1, 117196, Note_off_c, 0, 49, 61
1, 117203, Control_c, 0, 64, 127
1, 117217, Note_off_c, 0, 73, 58
1, 117232, Note_off_c, 0, 77, 57
1, 117249, Poly_aftertouch_c, 0, 76, 28
1, 117258, Note_on_c, 0, 76, 72
1, 117259, Poly_aftertouch_c, 0, 64, 28
1, 117263, Note_on_c, 0, 64, 69
1, 117302, Note_off_c, 0, 64, 67
1, 117336, Note_off_c, 0, 76, 58
1, 117340, Note_off_c, 0, 57, 59
1, 117407, Poly_aftertouch_c, 0, 47, 28
1, 117413, Note_on_c, 0, 47, 65
1, 117414, Poly_aftertouch_c, 0, 62, 28
1, 117416, Note_on_c, 0, 74, 71
1, 117417, Poly_aftertouch_c, 0, 74, 28
1, 117420, Note_on_c, 0, 62, 59
1, 117422, Poly_aftertouch_c, 0, 50, 28
1, 117430, Note_on_c, 0, 50, 68
1, 117448, Note_off_c, 0, 62, 60
1, 117464, Note_off_c, 0, 74, 56
1, 117562, Control_c, 0, 64, 79
1, 117565, Poly_aftertouch_c, 0, 55, 28
1, 117571, Note_on_c, 0, 55, 53
1, 117580, Control_c, 0, 64, 56
1, 117597, Poly_aftertouch_c, 0, 74, 28
1, 117597, Control_c, 0, 64, 40
1, 117598, Poly_aftertouch_c, 0, 79, 28
1, 117600, Note_on_c, 0, 79, 80
1, 117601, Note_on_c, 0, 74, 77
1, 117605, Poly_aftertouch_c, 0, 59, 28
1, 117607, Note_on_c, 0, 59, 88
1, 117609, Note_on_c, 0, 67, 74
1, 117609, Poly_aftertouch_c, 0, 67, 28
1, 117654, Control_c, 0, 64, 50
1, 117672, Control_c, 0, 64, 64
1, 117681, Note_off_c, 0, 67, 59
1, 117692, Control_c, 0, 64, 80
1, 117711, Control_c, 0, 64, 103
1, 117728, Control_c, 0, 64, 127
1, 117737, Note_off_c, 0, 74, 61
1, 117744, Note_off_c, 0, 50, 61
1, 117745, Note_off_c, 0, 79, 60
1, 117749, Note_off_c, 0, 47, 34
1, 117798, Poly_aftertouch_c, 0, 77, 28
1, 117800, Note_on_c, 0, 77, 68
1, 117808, Poly_aftertouch_c, 0, 65, 28
1, 117812, Note_on_c, 0, 65, 65
1, 117818, Note_off_c, 0, 55, 59
1, 117847, Note_off_c, 0, 65, 66
1, 117859, Note_off_c, 0, 59, 54
1, 117878, Note_off_c, 0, 77, 59
1, 117931, Poly_aftertouch_c, 0, 48, 28
1, 117933, Note_on_c, 0, 48, 70
1, 117938, Poly_aftertouch_c, 0, 76, 28
1, 117940, Note_on_c, 0, 76, 77
1, 117952, Note_on_c, 0, 64, 60
1, 117953, Poly_aftertouch_c, 0, 64, 28
1, 117972, Poly_aftertouch_c, 0, 52, 28
1, 117976, Note_on_c, 0, 52, 61
1, 117982, Note_off_c, 0, 64, 61
1, 118007, Note_off_c, 0, 76, 62
1, 118029, Control_c, 0, 64, 86
1, 118044, Poly_aftertouch_c, 0, 55, 28
1, 118047, Control_c, 0, 64, 60
1, 118051, Note_on_c, 0, 55, 48
1, 118065, Control_c, 0, 64, 41
1, 118095, Poly_aftertouch_c, 0, 60, 28
1, 118096, Note_on_c, 0, 60, 94
1, 118103, Poly_aftertouch_c, 0, 70, 28
1, 118104, Poly_aftertouch_c, 0, 79, 28
1, 118107, Note_on_c, 0, 79, 92
1, 118107, Note_on_c, 0, 70, 88
1, 118111, Note_on_c, 0, 67, 81
1, 118114, Poly_aftertouch_c, 0, 67, 28
1, 118122, Control_c, 0, 64, 52
1, 118140, Control_c, 0, 64, 67
1, 118152, Note_off_c, 0, 67, 57
1, 118159, Control_c, 0, 64, 84
1, 118169, Note_off_c, 0, 79, 57
1, 118176, Control_c, 0, 64, 127
1, 118177, Note_off_c, 0, 70, 64
1, 118197, Note_off_c, 0, 48, 54
1, 118245, Note_off_c, 0, 52, 56
1, 118273, Note_on_c, 0, 77, 79
1, 118273, Poly_aftertouch_c, 0, 65, 28
1, 118274, Poly_aftertouch_c, 0, 77, 28
1, 118277, Note_on_c, 0, 65, 78
1, 118326, Note_off_c, 0, 60, 51
1, 118326, Note_off_c, 0, 65, 61
1, 118326, Note_off_c, 0, 77, 56
1, 118354, Note_off_c, 0, 55, 38
1, 118420, Poly_aftertouch_c, 0, 49, 28
1, 118425, Note_on_c, 0, 49, 75
1, 118427, Note_on_c, 0, 64, 76
1, 118428, Poly_aftertouch_c, 0, 64, 28
1, 118429, Poly_aftertouch_c, 0, 76, 28
1, 118435, Note_on_c, 0, 76, 70
1, 118455, Note_off_c, 0, 64, 64
1, 118464, Poly_aftertouch_c, 0, 53, 28
1, 118466, Note_off_c, 0, 76, 68
1, 118466, Note_on_c, 0, 53, 57
1, 118484, Poly_aftertouch_c, 0, 74, 28
1, 118498, Poly_aftertouch_c, 0, 55, 28
1, 118505, Note_on_c, 0, 55, 52
1, 118536, Poly_aftertouch_c, 0, 74, 127
1, 118555, Poly_aftertouch_c, 0, 74, 0
1, 118629, Control_c, 0, 64, 83
1, 118647, Control_c, 0, 64, 57
1, 118651, Poly_aftertouch_c, 0, 70, 28
1, 118651, Poly_aftertouch_c, 0, 77, 28
1, 118652, Poly_aftertouch_c, 0, 82, 28
1, 118655, Note_on_c, 0, 77, 80
1, 118656, Note_on_c, 0, 61, 97
1, 118657, Note_on_c, 0, 82, 83
1, 118658, Note_on_c, 0, 70, 84
1, 118663, Poly_aftertouch_c, 0, 61, 28
1, 118666, Control_c, 0, 64, 39
1, 118721, Control_c, 0, 64, 48
1, 118739, Control_c, 0, 64, 64
1, 118759, Control_c, 0, 64, 82
1, 118775, Note_off_c, 0, 70, 61
1, 118777, Control_c, 0, 64, 127
1, 118809, Note_off_c, 0, 82, 62
1, 118817, Note_off_c, 0, 77, 58
1, 118856, Poly_aftertouch_c, 0, 81, 28
1, 118859, Note_on_c, 0, 81, 80
1, 118862, Poly_aftertouch_c, 0, 69, 28
1, 118867, Note_on_c, 0, 69, 75
1, 118916, Note_off_c, 0, 81, 63
1, 118920, Note_off_c, 0, 69, 57
1, 118974, Note_off_c, 0, 49, 36
1, 118992, Note_off_c, 0, 61, 55
1, 118995, Note_off_c, 0, 53, 35
1, 119010, Note_on_c, 0, 79, 83
1, 119011, Poly_aftertouch_c, 0, 67, 28
1, 119012, Poly_aftertouch_c, 0, 79, 28
1, 119014, Note_on_c, 0, 67, 79
1, 119038, Note_off_c, 0, 55, 31
1, 119064, Note_off_c, 0, 67, 55
1, 119076, Control_c, 0, 64, 102
1, 119078, Note_off_c, 0, 79, 61
1, 119095, Control_c, 0, 64, 70
1, 119115, Control_c, 0, 64, 48
1, 119132, Control_c, 0, 64, 40
1, 119159, Poly_aftertouch_c, 0, 48, 28
1, 119160, Poly_aftertouch_c, 0, 79, 28
1, 119164, Note_on_c, 0, 48, 73
1, 119165, Note_on_c, 0, 79, 80
1, 119166, Note_on_c, 0, 60, 80
1, 119170, Poly_aftertouch_c, 0, 55, 28
1, 119170, Poly_aftertouch_c, 0, 60, 28
1, 119170, Control_c, 0, 64, 49
1, 119172, Poly_aftertouch_c, 0, 70, 28
1, 119177, Note_on_c, 0, 55, 68
1, 119177, Note_on_c, 0, 70, 80
1, 119181, Note_on_c, 0, 67, 76
1, 119183, Note_on_c, 0, 52, 65
1, 119183, Poly_aftertouch_c, 0, 52, 28
1, 119185, Poly_aftertouch_c, 0, 67, 28
1, 119189, Control_c, 0, 64, 62
1, 119207, Control_c, 0, 64, 78
1, 119226, Control_c, 0, 64, 107
1, 119239, Note_off_c, 0, 48, 61
1, 119244, Control_c, 0, 64, 127
1, 119270, Note_off_c, 0, 60, 47
1, 119290, Note_off_c, 0, 52, 56
1, 119301, Note_off_c, 0, 55, 62
1, 119320, Poly_aftertouch_c, 0, 77, 28
1, 119321, Note_on_c, 0, 77, 80
1, 119325, Note_off_c, 0, 79, 56
1, 119343, Note_off_c, 0, 70, 64
1, 119354, Note_off_c, 0, 67, 54
1, 119376, Control_c, 0, 64, 88
1, 119379, Note_off_c, 0, 77, 59
1, 119394, Control_c, 0, 64, 64
1, 119415, Control_c, 0, 64, 58
1, 119432, Control_c, 0, 64, 64
1, 119450, Poly_aftertouch_c, 0, 55, 28
1, 119452, Control_c, 0, 64, 75
1, 119457, Note_on_c, 0, 55, 77
1, 119461, Poly_aftertouch_c, 0, 61, 28
1, 119463, Poly_aftertouch_c, 0, 82, 28
1, 119465, Note_on_c, 0, 61, 86
1, 119466, Note_on_c, 0, 49, 79
1, 119469, Note_on_c, 0, 82, 93
1, 119470, Poly_aftertouch_c, 0, 49, 28
1, 119470, Control_c, 0, 64, 103
1, 119472, Note_on_c, 0, 70, 91
1, 119474, Poly_aftertouch_c, 0, 70, 28
1, 119480, Note_on_c, 0, 52, 55
1, 119480, Poly_aftertouch_c, 0, 52, 28
1, 119490, Control_c, 0, 64, 127
1, 119491, Poly_aftertouch_c, 0, 76, 28
1, 119497, Note_on_c, 0, 76, 71
1, 119509, Note_off_c, 0, 52, 55
1, 119524, Note_off_c, 0, 55, 61
1, 119532, Note_off_c, 0, 49, 60
1, 119533, Note_off_c, 0, 70, 65
1, 119539, Note_off_c, 0, 82, 67
1, 119541, Note_off_c, 0, 61, 60
1, 119618, Poly_aftertouch_c, 0, 81, 28
1, 119621, Note_on_c, 0, 81, 83
1, 119639, Note_off_c, 0, 76, 61
1, 119685, Note_off_c, 0, 81, 64
1, 119714, Control_c, 0, 64, 98
1, 119731, Control_c, 0, 64, 65
1, 119750, Control_c, 0, 64, 39
1, 119761, Poly_aftertouch_c, 0, 58, 28
1, 119767, Note_on_c, 0, 58, 82
1, 119768, Poly_aftertouch_c, 0, 55, 28
1, 119769, Poly_aftertouch_c, 0, 62, 28
1, 119769, Control_c, 0, 64, 30
1, 119771, Note_on_c, 0, 55, 77
1, 119773, Poly_aftertouch_c, 0, 76, 28
1, 119774, Note_on_c, 0, 62, 87
1, 119774, Poly_aftertouch_c, 0, 88, 28
1, 119775, Note_on_c, 0, 76, 97
1, 119777, Note_on_c, 0, 88, 96
1, 119781, Note_on_c, 0, 79, 90
1, 119784, Poly_aftertouch_c, 0, 50, 28
1, 119787, Note_on_c, 0, 50, 72
1, 119789, Poly_aftertouch_c, 0, 79, 28
1, 119806, Control_c, 0, 64, 41
1, 119825, Control_c, 0, 64, 59
1, 119826, Note_off_c, 0, 50, 64
1, 119836, Note_off_c, 0, 55, 63
1, 119844, Control_c, 0, 64, 80
1, 119857, Note_off_c, 0, 58, 63
1, 119862, Control_c, 0, 64, 124
1, 119867, Note_off_c, 0, 88, 63
1, 119870, Note_off_c, 0, 62, 60
1, 119897, Note_off_c, 0, 76, 59
1, 119951, Poly_aftertouch_c, 0, 86, 28
1, 119953, Note_on_c, 0, 86, 90
1, 119956, Note_off_c, 0, 79, 49
1, 120021, Note_off_c, 0, 86, 67
1, 120238, Control_c, 0, 64, 110
1, 120253, Poly_aftertouch_c, 0, 93, 28
1, 120256, Control_c, 0, 64, 69
1, 120257, Poly_aftertouch_c, 0, 61, 28
1, 120257, Poly_aftertouch_c, 0, 64, 28
1, 120258, Note_on_c, 0, 93, 101
1, 120263, Note_on_c, 0, 61, 74
1, 120263, Note_on_c, 0, 64, 82
1, 120264, Note_on_c, 0, 85, 91
1, 120265, Note_off_c, 0, 85, 127
1, 120265, Note_on_c, 0, 81, 90
1, 120266, Note_off_c, 0, 81, 127
1, 120268, Poly_aftertouch_c, 0, 81, 28
1, 120269, Poly_aftertouch_c, 0, 85, 28
1, 120272, Note_on_c, 0, 52, 75
1, 120274, Note_on_c, 0, 55, 70
1, 120275, Note_off_c, 0, 55, 127
1, 120275, Control_c, 0, 64, 40
1, 120276, Poly_aftertouch_c, 0, 52, 28
1, 120276, Poly_aftertouch_c, 0, 55, 28
1, 120301, Control_c, 0, 64, 19
1, 120323, Poly_aftertouch_c, 0, 81, 127
1, 120323, Poly_aftertouch_c, 0, 85, 127
1, 120330, Poly_aftertouch_c, 0, 55, 127
1, 120369, Control_c, 0, 64, 36
1, 120387, Control_c, 0, 64, 58
1, 120390, Note_off_c, 0, 52, 61
1, 120404, Poly_aftertouch_c, 0, 55, 0
1, 120407, Control_c, 0, 64, 80
1, 120414, Poly_aftertouch_c, 0, 81, 0
1, 120425, Control_c, 0, 64, 117
1, 120434, Note_off_c, 0, 93, 60
1, 120443, Control_c, 0, 64, 127
1, 120456, Note_off_c, 0, 61, 58
1, 120460, Note_off_c, 0, 64, 59
1, 120552, Poly_aftertouch_c, 0, 85, 0
1, 120572, Note_on_c, 0, 91, 90
1, 120573, Poly_aftertouch_c, 0, 79, 28
1, 120574, Poly_aftertouch_c, 0, 91, 28
1, 120576, Note_on_c, 0, 79, 82
1, 120627, Note_off_c, 0, 91, 65
1, 120660, Note_off_c, 0, 79, 58
1, 120666, Control_c, 0, 64, 96
1, 120687, Control_c, 0, 64, 65
1, 120698, Poly_aftertouch_c, 0, 53, 28
1, 120699, Poly_aftertouch_c, 0, 62, 28
1, 120701, Note_on_c, 0, 53, 77
1, 120702, Poly_aftertouch_c, 0, 65, 28
1, 120706, Note_on_c, 0, 62, 79
1, 120706, Note_on_c, 0, 65, 81
1, 120706, Control_c, 0, 64, 45
1, 120709, Poly_aftertouch_c, 0, 57, 28
1, 120714, Note_on_c, 0, 57, 72
1, 120743, Control_c, 0, 64, 52
1, 120761, Control_c, 0, 64, 64
1, 120763, Note_off_c, 0, 57, 64
1, 120775, Note_off_c, 0, 53, 55
1, 120776, Note_off_c, 0, 62, 63
1, 120781, Control_c, 0, 64, 81
1, 120799, Control_c, 0, 64, 127
1, 120803, Note_off_c, 0, 65, 58
1, 120838, Poly_aftertouch_c, 0, 77, 28
1, 120838, Poly_aftertouch_c, 0, 81, 28
1, 120840, Poly_aftertouch_c, 0, 81, 0
1, 120840, Poly_aftertouch_c, 0, 86, 28
1, 120840, Poly_aftertouch_c, 0, 89, 28
1, 120841, Note_on_c, 0, 86, 82
1, 120842, Note_on_c, 0, 77, 84
1, 120842, Note_on_c, 0, 89, 81
1, 120913, Note_off_c, 0, 89, 62
1, 120920, Note_off_c, 0, 77, 61
1, 120957, Note_off_c, 0, 86, 65
1, 120968, Control_c, 0, 64, 100
1, 120986, Control_c, 0, 64, 64
1, 121002, Poly_aftertouch_c, 0, 88, 28
1, 121003, Control_c, 0, 64, 31
1, 121005, Poly_aftertouch_c, 0, 58, 28
1, 121006, Poly_aftertouch_c, 0, 64, 28
1, 121007, Note_on_c, 0, 88, 95
1, 121008, Note_on_c, 0, 64, 84
1, 121013, Note_on_c, 0, 82, 98
1, 121014, Note_off_c, 0, 82, 127
1, 121014, Note_on_c, 0, 76, 96
1, 121015, Note_off_c, 0, 76, 127
1, 121016, Note_on_c, 0, 58, 80
1, 121016, Note_on_c, 0, 67, 87
1, 121017, Note_off_c, 0, 67, 127
1, 121019, Note_on_c, 0, 55, 80
1, 121022, Poly_aftertouch_c, 0, 67, 28
1, 121022, Control_c, 0, 64, 13
1, 121023, Poly_aftertouch_c, 0, 76, 28
1, 121023, Poly_aftertouch_c, 0, 82, 28
1, 121030, Poly_aftertouch_c, 0, 55, 28
1, 121061, Control_c, 0, 64, 22
1, 121064, Note_off_c, 0, 64, 62
1, 121071, Poly_aftertouch_c, 0, 67, 0
1, 121079, Poly_aftertouch_c, 0, 76, 127
1, 121080, Poly_aftertouch_c, 0, 82, 127
1, 121080, Control_c, 0, 64, 42
1, 121089, Note_off_c, 0, 58, 65
1, 121091, Poly_aftertouch_c, 0, 76, 0
1, 121095, Note_off_c, 0, 88, 64
1, 121098, Note_off_c, 0, 55, 62
1, 121098, Control_c, 0, 64, 72
1, 121117, Control_c, 0, 64, 111
1, 121135, Control_c, 0, 64, 127
1, 121172, Poly_aftertouch_c, 0, 82, 0
1, 121341, Control_c, 0, 64, 98
1, 121361, Control_c, 0, 64, 73
1, 121370, Poly_aftertouch_c, 0, 52, 28
1, 121375, Note_on_c, 0, 52, 60
1, 121380, Control_c, 0, 64, 52
1, 121399, Control_c, 0, 64, 26
1, 121400, Poly_aftertouch_c, 0, 55, 28
1, 121405, Note_on_c, 0, 55, 68
1, 121416, Control_c, 0, 64, 0
1, 121455, Poly_aftertouch_c, 0, 58, 28
1, 121458, Note_on_c, 0, 58, 77
1, 121476, Note_off_c, 0, 52, 62
1, 121488, Poly_aftertouch_c, 0, 86, 28
1, 121490, Note_on_c, 0, 86, 94
1, 121495, Note_on_c, 0, 79, 95
1, 121496, Note_on_c, 0, 74, 97
1, 121497, Note_on_c, 0, 82, 95
1, 121500, Poly_aftertouch_c, 0, 74, 28
1, 121500, Poly_aftertouch_c, 0, 79, 28
1, 121501, Poly_aftertouch_c, 0, 82, 28
1, 121504, Note_on_c, 0, 64, 81
1, 121509, Poly_aftertouch_c, 0, 64, 28
1, 121529, Note_off_c, 0, 55, 61
1, 121529, Control_c, 0, 64, 14
1, 121547, Control_c, 0, 64, 35
1, 121559, Note_off_c, 0, 58, 63
1, 121565, Control_c, 0, 64, 64
1, 121569, Note_off_c, 0, 74, 58
1, 121587, Control_c, 0, 64, 93
1, 121589, Note_off_c, 0, 86, 64
1, 121603, Control_c, 0, 64, 127
1, 121611, Note_off_c, 0, 64, 56
1, 121623, Note_off_c, 0, 79, 62
1, 121653, Note_off_c, 0, 82, 62
1, 121852, Poly_aftertouch_c, 0, 57, 28
1, 121855, Note_on_c, 0, 57, 80
1, 121905, Control_c, 0, 64, 104
1, 121922, Control_c, 0, 64, 85
1, 121941, Control_c, 0, 64, 73
1, 121955, Poly_aftertouch_c, 0, 64, 28
1, 121960, Note_on_c, 0, 64, 75
1, 121960, Control_c, 0, 64, 65
1, 121978, Control_c, 0, 64, 61
1, 121997, Control_c, 0, 64, 57
1, 122015, Control_c, 0, 64, 52
1, 122034, Control_c, 0, 64, 42
1, 122053, Control_c, 0, 64, 26
1, 122090, Control_c, 0, 64, 0
1, 122112, Poly_aftertouch_c, 0, 76, 28
1, 122112, Poly_aftertouch_c, 0, 81, 28
1, 122113, Poly_aftertouch_c, 0, 86, 28
1, 122116, Note_on_c, 0, 86, 99
1, 122117, Note_on_c, 0, 81, 99
1, 122118, Note_on_c, 0, 76, 99
1, 122119, Note_on_c, 0, 74, 93
1, 122123, Note_on_c, 0, 69, 100
1, 122124, Note_off_c, 0, 69, 127
1, 122129, Poly_aftertouch_c, 0, 69, 28
1, 122129, Poly_aftertouch_c, 0, 74, 28
1, 122147, Control_c, 0, 64, 14
1, 122165, Control_c, 0, 64, 37
1, 122177, Poly_aftertouch_c, 0, 69, 127
1, 122182, Control_c, 0, 64, 68
1, 122186, Poly_aftertouch_c, 0, 69, 0
1, 122202, Control_c, 0, 64, 105
1, 122206, Note_off_c, 0, 57, 64
1, 122221, Control_c, 0, 64, 127
1, 122227, Note_off_c, 0, 64, 64
1, 122331, Note_off_c, 0, 86, 53
1, 122375, Note_off_c, 0, 76, 49
1, 122393, Note_off_c, 0, 74, 54
1, 122714, Poly_aftertouch_c, 0, 21, 28
1, 122719, Note_on_c, 0, 21, 98
1, 122783, Control_c, 0, 64, 103
1, 122802, Control_c, 0, 64, 71
1, 122820, Control_c, 0, 64, 42
1, 122839, Control_c, 0, 64, 10
1, 122860, Control_c, 0, 64, 0
1, 122871, Note_off_c, 0, 81, 62
1, 122891, Poly_aftertouch_c, 0, 73, 28
1, 122892, Poly_aftertouch_c, 0, 85, 28
1, 122895, Poly_aftertouch_c, 0, 33, 28
1, 122896, Note_on_c, 0, 73, 93
1, 122897, Note_on_c, 0, 85, 96
1, 122901, Note_on_c, 0, 33, 101
1, 122915, Control_c, 0, 64, 21
1, 122933, Control_c, 0, 64, 44
1, 122941, Note_off_c, 0, 21, 63
1, 122951, Control_c, 0, 64, 71
1, 122970, Control_c, 0, 64, 95
1, 122990, Control_c, 0, 64, 127
1, 123011, Note_off_c, 0, 85, 65
1, 123050, Note_off_c, 0, 33, 57
1, 123065, Note_off_c, 0, 73, 61
1, 123184, Note_on_c, 0, 33, 77
1, 123185, Poly_aftertouch_c, 0, 33, 28
1, 123241, Note_off_c, 0, 33, 56
1, 123336, Poly_aftertouch_c, 0, 33, 28
1, 123340, Note_on_c, 0, 33, 77
1, 123435, Poly_aftertouch_c, 0, 29, 28
1, 123440, Note_on_c, 0, 29, 63
1, 123448, Note_off_c, 0, 33, 59
1, 123457, Control_c, 0, 64, 104
1, 123475, Control_c, 0, 64, 71
1, 123495, Control_c, 0, 64, 46
1, 123513, Control_c, 0, 64, 27
1, 123527, Poly_aftertouch_c, 0, 45, 28
1, 123531, Note_on_c, 0, 45, 89
1, 123533, Note_on_c, 0, 41, 91
1, 123533, Poly_aftertouch_c, 0, 41, 28
1, 123534, Note_on_c, 0, 57, 90
1, 123535, Poly_aftertouch_c, 0, 57, 28
1, 123567, Note_off_c, 0, 29, 61
1, 123568, Control_c, 0, 64, 34
1, 123588, Control_c, 0, 64, 49
1, 123604, Note_off_c, 0, 45, 64
1, 123606, Control_c, 0, 64, 65
1, 123625, Control_c, 0, 64, 75
1, 123631, Note_off_c, 0, 41, 61
1, 123642, Note_off_c, 0, 57, 62
1, 123646, Control_c, 0, 64, 83
1, 123665, Control_c, 0, 64, 89
1, 123738, Control_c, 0, 64, 93
1, 123757, Poly_aftertouch_c, 0, 57, 28
1, 123761, Note_on_c, 0, 57, 61
1, 123762, Poly_aftertouch_c, 0, 41, 28
1, 123764, Note_on_c, 0, 41, 68
1, 123794, Control_c, 0, 64, 101
1, 123800, Note_off_c, 0, 57, 66
1, 123803, Note_off_c, 0, 41, 65
1, 123811, Control_c, 0, 64, 111
1, 123830, Control_c, 0, 64, 127
1, 123899, Poly_aftertouch_c, 0, 57, 28
1, 123904, Note_on_c, 0, 57, 72
1, 123904, Poly_aftertouch_c, 0, 41, 28
1, 123906, Note_on_c, 0, 41, 68
1, 123964, Poly_aftertouch_c, 0, 38, 28
1, 123971, Note_on_c, 0, 38, 68
1, 123988, Note_off_c, 0, 57, 62
1, 123992, Note_off_c, 0, 41, 59
1, 124000, Control_c, 0, 64, 85
1, 124021, Control_c, 0, 64, 61
1, 124037, Control_c, 0, 64, 45
1, 124043, Poly_aftertouch_c, 0, 50, 28
1, 124048, Note_on_c, 0, 50, 89
1, 124049, Poly_aftertouch_c, 0, 53, 28
1, 124051, Poly_aftertouch_c, 0, 65, 28
1, 124053, Note_on_c, 0, 53, 87
1, 124056, Note_on_c, 0, 65, 90
1, 124057, Control_c, 0, 64, 42
1, 124065, Note_off_c, 0, 38, 58
1, 124074, Control_c, 0, 64, 46
1, 124087, Note_off_c, 0, 53, 66
1, 124093, Control_c, 0, 64, 54
1, 124115, Control_c, 0, 64, 63
1, 124117, Note_off_c, 0, 50, 65
1, 124122, Note_off_c, 0, 65, 62
1, 124130, Control_c, 0, 64, 72
1, 124149, Control_c, 0, 64, 80
1, 124168, Control_c, 0, 64, 92
1, 124187, Control_c, 0, 64, 105
1, 124194, Poly_aftertouch_c, 0, 50, 28
1, 124203, Note_on_c, 0, 50, 78
1, 124205, Control_c, 0, 64, 127
1, 124215, Poly_aftertouch_c, 0, 65, 28
1, 124220, Note_on_c, 0, 65, 63
1, 124221, Poly_aftertouch_c, 0, 67, 28
1, 124229, Note_on_c, 0, 67, 54
1, 124259, Note_off_c, 0, 67, 55
1, 124263, Note_off_c, 0, 65, 64
1, 124266, Note_off_c, 0, 50, 47
1, 124328, Poly_aftertouch_c, 0, 65, 28
1, 124331, Note_on_c, 0, 65, 85
1, 124333, Poly_aftertouch_c, 0, 50, 28
1, 124347, Note_on_c, 0, 50, 33
1, 124371, Poly_aftertouch_c, 0, 46, 28
1, 124378, Note_on_c, 0, 46, 73
1, 124408, Note_off_c, 0, 65, 62
1, 124427, Note_off_c, 0, 50, 61
1, 124430, Control_c, 0, 64, 112
1, 124449, Control_c, 0, 64, 78
1, 124454, Poly_aftertouch_c, 0, 51, 28
1, 124455, Poly_aftertouch_c, 0, 51, 0
1, 124460, Poly_aftertouch_c, 0, 58, 28
1, 124466, Note_on_c, 0, 58, 97
1, 124469, Control_c, 0, 64, 56
1, 124477, Poly_aftertouch_c, 0, 62, 28
1, 124478, Note_on_c, 0, 62, 84
1, 124479, Poly_aftertouch_c, 0, 74, 28
1, 124481, Note_on_c, 0, 74, 91
1, 124487, Control_c, 0, 64, 45
1, 124495, Note_off_c, 0, 46, 62
1, 124505, Control_c, 0, 64, 47
1, 124512, Note_off_c, 0, 62, 64
1, 124525, Control_c, 0, 64, 55
1, 124528, Note_off_c, 0, 58, 66
1, 124534, Note_off_c, 0, 74, 64
1, 124537, Poly_aftertouch_c, 0, 45, 28
1, 124538, Poly_aftertouch_c, 0, 45, 0
1, 124542, Control_c, 0, 64, 65
1, 124561, Control_c, 0, 64, 77
1, 124580, Control_c, 0, 64, 95
1, 124600, Control_c, 0, 64, 127
1, 124608, Poly_aftertouch_c, 0, 58, 28
1, 124609, Poly_aftertouch_c, 0, 74, 28
1, 124613, Note_on_c, 0, 58, 77
1, 124614, Note_on_c, 0, 74, 77
1, 124640, Note_off_c, 0, 74, 65
1, 124654, Note_off_c, 0, 58, 63
1, 124724, Poly_aftertouch_c, 0, 58, 28
1, 124726, Poly_aftertouch_c, 0, 74, 28
1, 124729, Note_on_c, 0, 58, 75
1, 124729, Note_on_c, 0, 74, 80
1, 124789, Poly_aftertouch_c, 0, 55, 28
1, 124791, Note_on_c, 0, 55, 80
1, 124794, Note_off_c, 0, 74, 63
1, 124813, Note_off_c, 0, 58, 63
1, 124822, Control_c, 0, 64, 101
1, 124842, Control_c, 0, 64, 69
1, 124854, Poly_aftertouch_c, 0, 70, 28
1, 124854, Poly_aftertouch_c, 0, 82, 28
1, 124859, Note_on_c, 0, 82, 97
1, 124860, Note_on_c, 0, 70, 88
1, 124860, Control_c, 0, 64, 47
1, 124864, Poly_aftertouch_c, 0, 67, 28
1, 124866, Note_on_c, 0, 67, 92
1, 124880, Control_c, 0, 64, 41
1, 124898, Control_c, 0, 64, 46
1, 124906, Note_off_c, 0, 70, 64
1, 124913, Note_off_c, 0, 55, 63
1, 124916, Control_c, 0, 64, 57
1, 124918, Note_off_c, 0, 82, 67
1, 124922, Note_off_c, 0, 67, 63
1, 124936, Control_c, 0, 64, 72
1, 124954, Control_c, 0, 64, 95
1, 124974, Control_c, 0, 64, 127
1, 125000, Poly_aftertouch_c, 0, 82, 28
1, 125002, Note_on_c, 0, 82, 92
1, 125058, Note_off_c, 0, 82, 65
1, 125106, Poly_aftertouch_c, 0, 82, 28
1, 125114, Note_on_c, 0, 82, 74
1, 125122, Poly_aftertouch_c, 0, 52, 28
1, 125127, Note_on_c, 0, 52, 70
1, 125150, Poly_aftertouch_c, 0, 55, 28
1, 125156, Note_on_c, 0, 55, 72
1, 125215, Note_off_c, 0, 82, 64
1, 125222, Poly_aftertouch_c, 0, 58, 28
1, 125228, Note_on_c, 0, 58, 77
1, 125234, Control_c, 0, 64, 81
1, 125255, Control_c, 0, 64, 51
1, 125257, Note_off_c, 0, 52, 60
1, 125260, Poly_aftertouch_c, 0, 88, 28
1, 125261, Poly_aftertouch_c, 0, 91, 28
1, 125263, Note_on_c, 0, 88, 96
1, 125266, Note_on_c, 0, 91, 97
1, 125266, Note_on_c, 0, 79, 99
1, 125270, Poly_aftertouch_c, 0, 79, 28
1, 125273, Control_c, 0, 64, 24
1, 125275, Note_on_c, 0, 64, 90
1, 125277, Poly_aftertouch_c, 0, 64, 28
1, 125288, Note_off_c, 0, 55, 60
1, 125292, Control_c, 0, 64, 18
1, 125317, Note_off_c, 0, 58, 66
1, 125328, Control_c, 0, 64, 33
1, 125347, Control_c, 0, 64, 57
1, 125367, Control_c, 0, 64, 85
1, 125382, Note_off_c, 0, 91, 58
1, 125385, Control_c, 0, 64, 127
1, 125413, Note_off_c, 0, 88, 62
1, 125423, Note_off_c, 0, 79, 53
1, 125508, Note_off_c, 0, 64, 57
1, 125578, Poly_aftertouch_c, 0, 55, 28
1, 125581, Note_on_c, 0, 55, 76
1, 125627, Poly_aftertouch_c, 0, 58, 28
1, 125636, Note_on_c, 0, 58, 70
1, 125666, Control_c, 0, 64, 72
1, 125682, Poly_aftertouch_c, 0, 62, 28
1, 125686, Control_c, 0, 64, 32
1, 125688, Note_on_c, 0, 62, 74
1, 125704, Control_c, 0, 64, 0
1, 125719, Note_on_c, 0, 67, 88
1, 125720, Note_on_c, 0, 89, 95
1, 125721, Note_on_c, 0, 86, 93
1, 125722, Note_on_c, 0, 77, 102
1, 125723, Note_on_c, 0, 82, 98
1, 125726, Poly_aftertouch_c, 0, 67, 28
1, 125727, Poly_aftertouch_c, 0, 77, 28
1, 125727, Poly_aftertouch_c, 0, 82, 28
1, 125727, Poly_aftertouch_c, 0, 86, 28
1, 125727, Poly_aftertouch_c, 0, 89, 28
1, 125746, Note_off_c, 0, 55, 59
1, 125777, Control_c, 0, 64, 16
1, 125797, Control_c, 0, 64, 47
1, 125805, Note_off_c, 0, 58, 65
1, 125810, Note_off_c, 0, 77, 59
1, 125811, Note_off_c, 0, 89, 63
1, 125815, Control_c, 0, 64, 85
1, 125833, Control_c, 0, 64, 127
1, 125849, Note_off_c, 0, 62, 57
1, 125851, Note_off_c, 0, 86, 65
1, 125859, Note_off_c, 0, 82, 64
1, 125973, Note_off_c, 0, 67, 49
1, 126034, Poly_aftertouch_c, 0, 57, 28
1, 126037, Note_on_c, 0, 57, 86
1, 126137, Poly_aftertouch_c, 0, 61, 28
1, 126138, Note_on_c, 0, 61, 81
1, 126301, Control_c, 0, 64, 104
1, 126321, Control_c, 0, 64, 63
1, 126329, Poly_aftertouch_c, 0, 85, 28
1, 126330, Poly_aftertouch_c, 0, 89, 28
1, 126333, Note_on_c, 0, 89, 102
1, 126334, Note_on_c, 0, 77, 101
1, 126335, Note_on_c, 0, 85, 100
1, 126341, Note_on_c, 0, 69, 101
1, 126341, Control_c, 0, 64, 23
1, 126342, Note_off_c, 0, 69, 127
1, 126342, Poly_aftertouch_c, 0, 69, 28
1, 126342, Poly_aftertouch_c, 0, 77, 28
1, 126358, Control_c, 0, 64, 0
1, 126395, Poly_aftertouch_c, 0, 69, 127
1, 126433, Control_c, 0, 64, 23
1, 126442, Poly_aftertouch_c, 0, 69, 0
1, 126452, Control_c, 0, 64, 51
1, 126471, Control_c, 0, 64, 80
1, 126473, Note_off_c, 0, 57, 59
1, 126489, Control_c, 0, 64, 127
1, 126509, Note_off_c, 0, 61, 61
1, 126580, Note_off_c, 0, 89, 49
1, 126621, Note_off_c, 0, 77, 32
1, 126868, Note_on_c, 0, 25, 98
1, 126868, Poly_aftertouch_c, 0, 25, 28
1, 126995, Control_c, 0, 64, 90
1, 127014, Control_c, 0, 64, 57
1, 127032, Control_c, 0, 64, 23
1, 127041, Note_off_c, 0, 85, 62
1, 127049, Control_c, 0, 64, 0
1, 127061, Poly_aftertouch_c, 0, 37, 28
1, 127065, Poly_aftertouch_c, 0, 88, 28
1, 127067, Note_on_c, 0, 88, 93
1, 127069, Note_on_c, 0, 37, 105
1, 127071, Note_on_c, 0, 76, 97
1, 127073, Poly_aftertouch_c, 0, 76, 28
1, 127107, Control_c, 0, 64, 16
1, 127122, Note_off_c, 0, 25, 63
1, 127125, Control_c, 0, 64, 36
1, 127145, Control_c, 0, 64, 65
1, 127164, Control_c, 0, 64, 88
1, 127174, Note_off_c, 0, 88, 67
1, 127179, Note_off_c, 0, 37, 60
1, 127183, Control_c, 0, 64, 127
1, 127228, Note_off_c, 0, 76, 62
1, 127350, Poly_aftertouch_c, 0, 37, 28
1, 127355, Note_on_c, 0, 37, 78
1, 127416, Note_off_c, 0, 37, 57
1, 127499, Poly_aftertouch_c, 0, 37, 28
1, 127504, Note_on_c, 0, 37, 80
1, 127593, Poly_aftertouch_c, 0, 33, 28
1, 127600, Note_on_c, 0, 33, 76
1, 127618, Note_off_c, 0, 37, 61
1, 127631, Control_c, 0, 64, 78
1, 127650, Control_c, 0, 64, 49
1, 127669, Control_c, 0, 64, 24
1, 127682, Poly_aftertouch_c, 0, 49, 28
1, 127687, Note_on_c, 0, 49, 91
1, 127687, Control_c, 0, 64, 19
1, 127688, Note_on_c, 0, 61, 88
1, 127689, Poly_aftertouch_c, 0, 45, 28
1, 127690, Poly_aftertouch_c, 0, 61, 28
1, 127694, Note_on_c, 0, 45, 93
1, 127714, Note_off_c, 0, 33, 61
1, 127725, Control_c, 0, 64, 31
1, 127744, Control_c, 0, 64, 48
1, 127751, Note_off_c, 0, 49, 64
1, 127762, Control_c, 0, 64, 68
1, 127773, Note_off_c, 0, 45, 64
1, 127780, Control_c, 0, 64, 83
1, 127792, Note_off_c, 0, 61, 61
1, 127800, Control_c, 0, 64, 102
1, 127818, Control_c, 0, 64, 127
1, 127890, Poly_aftertouch_c, 0, 45, 28
1, 127890, Poly_aftertouch_c, 0, 61, 28
1, 127892, Note_on_c, 0, 45, 76
1, 127893, Note_on_c, 0, 61, 72
1, 127928, Note_off_c, 0, 45, 63
1, 127929, Note_off_c, 0, 61, 61
1, 128015, Poly_aftertouch_c, 0, 45, 28
1, 128016, Poly_aftertouch_c, 0, 61, 28
1, 128019, Note_on_c, 0, 45, 73
1, 128019, Note_on_c, 0, 61, 76
1, 128066, Poly_aftertouch_c, 0, 41, 28
1, 128069, Note_on_c, 0, 41, 75
1, 128080, Control_c, 0, 64, 109
1, 128099, Control_c, 0, 64, 76
1, 128108, Note_off_c, 0, 45, 62
1, 128113, Note_off_c, 0, 61, 62
1, 128118, Control_c, 0, 64, 52
1, 128136, Control_c, 0, 64, 37
1, 128146, Note_off_c, 0, 41, 63
1, 128155, Poly_aftertouch_c, 0, 57, 28
1, 128159, Note_on_c, 0, 57, 85
1, 128162, Poly_aftertouch_c, 0, 53, 28
1, 128164, Note_on_c, 0, 69, 87
1, 128165, Poly_aftertouch_c, 0, 69, 28
1, 128167, Note_on_c, 0, 53, 88
1, 128174, Control_c, 0, 64, 41
1, 128193, Control_c, 0, 64, 54
1, 128211, Control_c, 0, 64, 68
1, 128212, Note_off_c, 0, 57, 63
1, 128216, Note_off_c, 0, 69, 62
1, 128229, Note_off_c, 0, 53, 64
1, 128229, Control_c, 0, 64, 82
1, 128249, Control_c, 0, 64, 103
1, 128268, Control_c, 0, 64, 127
1, 128305, Poly_aftertouch_c, 0, 53, 28
1, 128307, Note_on_c, 0, 69, 80
1, 128308, Poly_aftertouch_c, 0, 69, 28
1, 128312, Note_on_c, 0, 53, 64
1, 128344, Note_off_c, 0, 69, 63
1, 128347, Note_off_c, 0, 53, 62
1, 128430, Poly_aftertouch_c, 0, 50, 28
1, 128436, Note_on_c, 0, 50, 82
1, 128437, Poly_aftertouch_c, 0, 69, 28
1, 128440, Note_on_c, 0, 69, 80
1, 128448, Note_on_c, 0, 53, 69
1, 128449, Poly_aftertouch_c, 0, 53, 28
1, 128492, Control_c, 0, 64, 104
1, 128506, Note_off_c, 0, 69, 61
1, 128510, Control_c, 0, 64, 70
1, 128529, Note_off_c, 0, 53, 61
1, 128529, Control_c, 0, 64, 45
1, 128533, Note_off_c, 0, 50, 66
1, 128549, Control_c, 0, 64, 32
1, 128557, Poly_aftertouch_c, 0, 62, 28
1, 128559, Note_on_c, 0, 62, 90
1, 128559, Note_on_c, 0, 65, 90
1, 128560, Note_on_c, 0, 77, 94
1, 128562, Poly_aftertouch_c, 0, 65, 28
1, 128562, Poly_aftertouch_c, 0, 77, 28
1, 128585, Control_c, 0, 64, 43
1, 128603, Note_off_c, 0, 65, 61
1, 128605, Control_c, 0, 64, 60
1, 128614, Note_off_c, 0, 77, 65
1, 128621, Note_off_c, 0, 62, 64
1, 128622, Control_c, 0, 64, 77
1, 128641, Control_c, 0, 64, 100
1, 128660, Control_c, 0, 64, 127
1, 128669, Poly_aftertouch_c, 0, 62, 28
1, 128677, Note_on_c, 0, 62, 74
1, 128689, Poly_aftertouch_c, 0, 77, 28
1, 128691, Note_on_c, 0, 77, 84
1, 128734, Note_off_c, 0, 77, 59
1, 128782, Note_off_c, 0, 62, 58
1, 128810, Poly_aftertouch_c, 0, 77, 28
1, 128812, Note_on_c, 0, 77, 81
1, 128819, Poly_aftertouch_c, 0, 62, 28
1, 128826, Note_on_c, 0, 62, 48
1, 128830, Poly_aftertouch_c, 0, 58, 28
1, 128835, Note_on_c, 0, 58, 75
1, 128895, Note_off_c, 0, 77, 61
1, 128902, Control_c, 0, 64, 89
1, 128923, Control_c, 0, 64, 72
1, 128943, Control_c, 0, 64, 70
1, 128949, Poly_aftertouch_c, 0, 70, 28
1, 128956, Note_on_c, 0, 70, 94
1, 128959, Control_c, 0, 64, 77
1, 128961, Note_on_c, 0, 74, 88
1, 128961, Note_on_c, 0, 86, 96
1, 128962, Poly_aftertouch_c, 0, 74, 28
1, 128963, Poly_aftertouch_c, 0, 86, 28
1, 128979, Control_c, 0, 64, 92
1, 128989, Note_off_c, 0, 70, 65
1, 128998, Control_c, 0, 64, 127
1, 129006, Note_off_c, 0, 62, 60
1, 129011, Note_off_c, 0, 74, 62
1, 129018, Note_off_c, 0, 86, 65
1, 129032, Note_off_c, 0, 58, 66
1, 129118, Poly_aftertouch_c, 0, 86, 28
1, 129120, Note_on_c, 0, 86, 94
1, 129175, Note_off_c, 0, 86, 66
1, 129247, Poly_aftertouch_c, 0, 86, 28
1, 129252, Note_on_c, 0, 86, 78
1, 129270, Poly_aftertouch_c, 0, 31, 28
1, 129276, Note_on_c, 0, 31, 79
1, 129313, Note_off_c, 0, 86, 56
1, 129372, Control_c, 0, 64, 74
1, 129391, Control_c, 0, 64, 38
1, 129410, Control_c, 0, 64, 0
1, 129428, Note_on_c, 0, 86, 102
1, 129429, Note_on_c, 0, 94, 98
1, 129431, Note_on_c, 0, 82, 100
1, 129432, Note_on_c, 0, 91, 91
1, 129434, Poly_aftertouch_c, 0, 82, 28
1, 129435, Poly_aftertouch_c, 0, 86, 28
1, 129436, Poly_aftertouch_c, 0, 91, 28
1, 129436, Poly_aftertouch_c, 0, 94, 28
1, 129440, Note_on_c, 0, 38, 81
1, 129442, Note_on_c, 0, 34, 84
1, 129443, Note_off_c, 0, 34, 127
1, 129444, Note_off_c, 0, 31, 64
1, 129445, Poly_aftertouch_c, 0, 34, 28
1, 129445, Poly_aftertouch_c, 0, 38, 28
1, 129447, Poly_aftertouch_c, 0, 43, 28
1, 129473, Note_on_c, 0, 43, 16
1, 129479, Note_off_c, 0, 38, 65
1, 129479, Poly_aftertouch_c, 0, 34, 0
1, 129483, Control_c, 0, 64, 24
1, 129500, Note_off_c, 0, 94, 66
1, 129502, Control_c, 0, 64, 54
1, 129510, Note_off_c, 0, 43, 63
1, 129521, Note_off_c, 0, 91, 64
1, 129522, Control_c, 0, 64, 85
1, 129525, Note_off_c, 0, 82, 66
1, 129540, Control_c, 0, 64, 127
1, 129544, Note_off_c, 0, 86, 66
1, 129784, Control_c, 0, 64, 99
1, 129803, Control_c, 0, 64, 72
1, 129822, Poly_aftertouch_c, 0, 45, 28
1, 129822, Control_c, 0, 64, 47
1, 129827, Note_on_c, 0, 45, 81
1, 129840, Control_c, 0, 64, 23
1, 129878, Control_c, 0, 64, 0
1, 130041, Note_on_c, 0, 76, 94
1, 130042, Note_on_c, 0, 85, 96
1, 130045, Note_on_c, 0, 73, 99
1, 130045, Note_on_c, 0, 81, 88
1, 130045, Control_c, 0, 64, 23
1, 130046, Note_off_c, 0, 73, 127
1, 130046, Note_on_c, 0, 52, 92
1, 130047, Note_on_c, 0, 49, 89
1, 130048, Note_on_c, 0, 57, 94
1, 130052, Poly_aftertouch_c, 0, 73, 28
1, 130052, Poly_aftertouch_c, 0, 76, 28
1, 130053, Poly_aftertouch_c, 0, 81, 28
1, 130053, Poly_aftertouch_c, 0, 85, 28
1, 130059, Poly_aftertouch_c, 0, 49, 28
1, 130060, Poly_aftertouch_c, 0, 52, 28
1, 130060, Poly_aftertouch_c, 0, 57, 28
1, 130063, Control_c, 0, 64, 54
1, 130066, Note_off_c, 0, 45, 53
1, 130085, Control_c, 0, 64, 92
1, 130093, Note_off_c, 0, 57, 65
1, 130101, Note_off_c, 0, 52, 64
1, 130102, Control_c, 0, 64, 127
1, 130106, Note_off_c, 0, 49, 66
1, 130111, Poly_aftertouch_c, 0, 73, 127
1, 130146, Note_off_c, 0, 85, 66
1, 130151, Poly_aftertouch_c, 0, 73, 0
1, 130193, Note_off_c, 0, 81, 53
1, 130205, Note_off_c, 0, 76, 54
1, 130476, Control_c, 0, 64, 83
1, 130495, Control_c, 0, 64, 44
1, 130513, Poly_aftertouch_c, 0, 26, 28
1, 130513, Control_c, 0, 64, 0
1, 130514, Note_on_c, 0, 26, 103
1, 130626, Control_c, 0, 64, 12
1, 130644, Control_c, 0, 64, 37
1, 130663, Control_c, 0, 64, 67
1, 130669, Note_off_c, 0, 26, 60
1, 130673, Poly_aftertouch_c, 0, 38, 28
1, 130676, Note_on_c, 0, 38, 96
1, 130682, Control_c, 0, 64, 97
1, 130701, Control_c, 0, 64, 127
1, 130713, Note_off_c, 0, 38, 65
1, 131092, Poly_aftertouch_c, 0, 74, 28
1, 131092, Poly_aftertouch_c, 0, 77, 28
1, 131093, Poly_aftertouch_c, 0, 81, 28
1, 131093, Poly_aftertouch_c, 0, 86, 28
1, 131096, Note_on_c, 0, 81, 91
1, 131098, Note_on_c, 0, 77, 96
1, 131100, Note_on_c, 0, 57, 83
1, 131101, Note_on_c, 0, 74, 96
1, 131102, Note_on_c, 0, 86, 95
1, 131105, Note_on_c, 0, 50, 81
1, 131106, Note_on_c, 0, 53, 84
1, 131107, Note_off_c, 0, 53, 127
1, 131107, Note_on_c, 0, 62, 93
1, 131108, Note_off_c, 0, 62, 127
1, 131113, Poly_aftertouch_c, 0, 50, 28
1, 131114, Poly_aftertouch_c, 0, 53, 28
1, 131114, Poly_aftertouch_c, 0, 57, 28
1, 131115, Poly_aftertouch_c, 0, 62, 28
1, 131165, Poly_aftertouch_c, 0, 53, 127
1, 131165, Poly_aftertouch_c, 0, 62, 127
1, 134919, Poly_aftertouch_c, 0, 80, 28
1, 134921, Poly_aftertouch_c, 0, 80, 0
1, 135197, Poly_aftertouch_c, 0, 86, 24
1, 135259, Note_off_c, 0, 86, 35
1, 135720, Poly_aftertouch_c, 0, 81, 24
1, 135792, Note_off_c, 0, 81, 32
1, 135960, Note_off_c, 0, 50, 33
1, 136011, Poly_aftertouch_c, 0, 62, 0
1, 136042, Poly_aftertouch_c, 0, 77, 20
1, 136047, Note_off_c, 0, 77, 48
1, 136051, Poly_aftertouch_c, 0, 53, 0
1, 136078, Note_off_c, 0, 57, 58
1, 136079, Note_off_c, 0, 74, 56
1, 136093, Control_c, 0, 64, 96
1, 136111, Control_c, 0, 64, 74
1, 136129, Control_c, 0, 64, 57
1, 136150, Control_c, 0, 64, 45
1, 136167, Control_c, 0, 64, 36
1, 136185, Control_c, 0, 64, 30
1, 136206, Control_c, 0, 64, 25
1, 136242, Control_c, 0, 64, 19
1, 136279, Control_c, 0, 64, 15
1, 138394, Control_c, 0, 64, 20
1, 138451, Control_c, 0, 64, 25
1, 138506, Control_c, 0, 64, 31
1, 138544, Control_c, 0, 64, 35
1, 138582, Control_c, 0, 64, 41
1, 138600, Control_c, 0, 64, 46
1, 138619, Control_c, 0, 64, 51
1, 138638, Control_c, 0, 64, 53
1, 138675, Control_c, 0, 64, 55
1, 138731, Control_c, 0, 64, 58
1, 138749, Control_c, 0, 64, 60
1, 138769, Control_c, 0, 64, 62
1, 138787, Control_c, 0, 64, 63
1, 138806, Control_c, 0, 64, 64
1, 138824, Control_c, 0, 64, 66
1, 138844, Control_c, 0, 64, 67
1, 138881, Control_c, 0, 64, 71
1, 138899, Control_c, 0, 64, 73
1, 138919, Control_c, 0, 64, 75
1, 138937, Control_c, 0, 64, 78
1, 138956, Control_c, 0, 64, 81
1, 138975, Control_c, 0, 64, 85
1, 138995, Control_c, 0, 64, 90
1, 138996, Control_c, 0, 67, 8
1, 139012, Control_c, 0, 64, 94
1, 139050, Control_c, 0, 64, 99
1, 139087, Control_c, 0, 64, 104
1, 139087, Control_c, 0, 67, 12
1, 139124, Control_c, 0, 64, 112
1, 139143, Control_c, 0, 64, 118
1, 139144, Control_c, 0, 67, 16
1, 139162, Control_c, 0, 64, 127
1, 139199, Control_c, 0, 67, 21
1, 139274, Control_c, 0, 67, 26
1, 139311, Control_c, 0, 67, 31
1, 139348, Control_c, 0, 67, 37
1, 139367, Control_c, 0, 67, 41
1, 139404, Control_c, 0, 67, 49
1, 139423, Control_c, 0, 67, 54
1, 139443, Control_c, 0, 67, 59
1, 139460, Control_c, 0, 67, 64
1, 139480, Control_c, 0, 67, 68
1, 139518, Control_c, 0, 67, 73
1, 139692, Poly_aftertouch_c, 0, 72, 28
1, 139696, Note_on_c, 0, 72, 60
1, 139704, Poly_aftertouch_c, 0, 33, 28
1, 139710, Note_on_c, 0, 33, 30
1, 139728, Poly_aftertouch_c, 0, 69, 28
1, 139732, Note_on_c, 0, 69, 40
1, 139940, Note_off_c, 0, 33, 35
1, 139947, Control_c, 0, 67, 69
1, 139969, Note_off_c, 0, 72, 60
1, 139972, Note_off_c, 0, 69, 36
1, 139976, Poly_aftertouch_c, 0, 45, 28
1, 139982, Note_on_c, 0, 45, 50
1, 140009, Poly_aftertouch_c, 0, 65, 28
1, 140011, Poly_aftertouch_c, 0, 65, 0
1, 140050, Note_off_c, 0, 45, 53
1, 140063, Poly_aftertouch_c, 0, 72, 28
1, 140069, Note_on_c, 0, 72, 79
1, 140097, Note_on_c, 0, 69, 61
1, 140097, Poly_aftertouch_c, 0, 69, 28
1, 140206, Poly_aftertouch_c, 0, 52, 28
1, 140210, Note_on_c, 0, 52, 52
1, 140538, Poly_aftertouch_c, 0, 74, 28
1, 140540, Note_on_c, 0, 74, 76
1, 140544, Poly_aftertouch_c, 0, 65, 28
1, 140549, Poly_aftertouch_c, 0, 45, 28
1, 140551, Note_off_c, 0, 69, 54
1, 140551, Poly_aftertouch_c, 0, 71, 28
1, 140556, Note_on_c, 0, 65, 44
1, 140556, Note_on_c, 0, 71, 54
1, 140558, Note_on_c, 0, 45, 36
1, 140571, Poly_aftertouch_c, 0, 50, 28
1, 140573, Note_off_c, 0, 72, 55
1, 140583, Note_on_c, 0, 50, 42
1, 140603, Control_c, 0, 64, 122
1, 140622, Control_c, 0, 64, 107
1, 140642, Control_c, 0, 64, 97
1, 140659, Control_c, 0, 64, 87
1, 140678, Control_c, 0, 64, 78
1, 140697, Control_c, 0, 64, 68
1, 140698, Note_off_c, 0, 52, 51
1, 140715, Control_c, 0, 64, 59
1, 140734, Control_c, 0, 64, 51
1, 140753, Control_c, 0, 64, 46
1, 140772, Control_c, 0, 64, 40
1, 140791, Control_c, 0, 64, 33
1, 140809, Control_c, 0, 64, 27
1, 140828, Control_c, 0, 64, 21
1, 140847, Control_c, 0, 64, 17
1, 140865, Control_c, 0, 64, 13
1, 140904, Control_c, 0, 64, 8
1, 141371, Control_c, 0, 64, 13
1, 141407, Control_c, 0, 64, 17
1, 141445, Control_c, 0, 64, 24
1, 141464, Control_c, 0, 64, 28
1, 141482, Control_c, 0, 64, 34
1, 141502, Control_c, 0, 64, 45
1, 141520, Control_c, 0, 64, 58
1, 141539, Control_c, 0, 64, 65
1, 141558, Control_c, 0, 64, 69
1, 141576, Control_c, 0, 64, 71
1, 141595, Control_c, 0, 64, 76
1, 141613, Control_c, 0, 64, 81
1, 141633, Control_c, 0, 64, 89
1, 141652, Control_c, 0, 64, 104
1, 141670, Control_c, 0, 64, 127
1, 141835, Note_off_c, 0, 50, 50
1, 141873, Note_off_c, 0, 74, 56
1, 141887, Note_off_c, 0, 45, 58
1, 141898, Note_off_c, 0, 71, 55
1, 142006, Control_c, 0, 67, 65
1, 142363, Control_c, 0, 64, 108
1, 142381, Control_c, 0, 64, 89
1, 142393, Poly_aftertouch_c, 0, 72, 28
1, 142398, Note_on_c, 0, 72, 64
1, 142400, Poly_aftertouch_c, 0, 33, 28
1, 142400, Control_c, 0, 64, 67
1, 142408, Note_on_c, 0, 33, 36
1, 142418, Control_c, 0, 64, 46
1, 142438, Control_c, 0, 64, 30
1, 142440, Poly_aftertouch_c, 0, 69, 28
1, 142444, Note_on_c, 0, 69, 45
1, 142457, Control_c, 0, 64, 23
1, 142472, Note_off_c, 0, 65, 53
1, 142513, Control_c, 0, 64, 30
1, 142531, Control_c, 0, 64, 41
1, 142550, Control_c, 0, 64, 59
1, 142569, Control_c, 0, 64, 74
1, 142587, Control_c, 0, 64, 92
1, 142606, Control_c, 0, 64, 127
1, 142624, Note_off_c, 0, 33, 42
1, 142643, Poly_aftertouch_c, 0, 45, 28
1, 142649, Note_off_c, 0, 72, 61
1, 142651, Note_on_c, 0, 45, 54
1, 142654, Note_off_c, 0, 69, 55
1, 142735, Note_off_c, 0, 45, 55
1, 142760, Poly_aftertouch_c, 0, 72, 28
1, 142762, Note_on_c, 0, 72, 80
1, 142772, Poly_aftertouch_c, 0, 69, 28
1, 142777, Note_on_c, 0, 69, 68
1, 142877, Note_off_c, 0, 69, 58
1, 142892, Poly_aftertouch_c, 0, 52, 28
1, 142897, Note_on_c, 0, 52, 59
1, 143186, Poly_aftertouch_c, 0, 71, 28
1, 143189, Poly_aftertouch_c, 0, 62, 28
1, 143190, Note_on_c, 0, 71, 76
1, 143199, Note_on_c, 0, 62, 44
1, 143203, Poly_aftertouch_c, 0, 68, 28
1, 143210, Note_on_c, 0, 68, 59
1, 143218, Poly_aftertouch_c, 0, 53, 28
1, 143221, Note_on_c, 0, 53, 44
1, 143238, Poly_aftertouch_c, 0, 45, 28
1, 143241, Control_c, 0, 64, 111
1, 143246, Note_on_c, 0, 45, 38
1, 143262, Control_c, 0, 64, 95
1, 143279, Control_c, 0, 64, 82
1, 143299, Control_c, 0, 64, 69
1, 143303, Note_off_c, 0, 52, 49
1, 143317, Control_c, 0, 64, 57
1, 143324, Note_off_c, 0, 72, 34
1, 143336, Control_c, 0, 64, 48
1, 143355, Control_c, 0, 64, 41
1, 143373, Control_c, 0, 64, 34
1, 143392, Control_c, 0, 64, 28
1, 143410, Control_c, 0, 64, 21
1, 143429, Control_c, 0, 64, 11
1, 143485, Control_c, 0, 64, 0
1, 143842, Control_c, 0, 64, 10
1, 143879, Control_c, 0, 64, 17
1, 143897, Control_c, 0, 64, 22
1, 143917, Control_c, 0, 64, 28
1, 143935, Control_c, 0, 64, 36
1, 143954, Control_c, 0, 64, 49
1, 143972, Control_c, 0, 64, 61
1, 143992, Control_c, 0, 64, 67
1, 144009, Control_c, 0, 64, 70
1, 144047, Control_c, 0, 64, 73
1, 144067, Control_c, 0, 64, 78
1, 144085, Control_c, 0, 64, 86
1, 144103, Control_c, 0, 64, 103
1, 144123, Control_c, 0, 64, 127
1, 144323, Note_off_c, 0, 68, 50
1, 144352, Note_off_c, 0, 53, 36
1, 144360, Note_off_c, 0, 45, 59
1, 144964, Control_c, 0, 64, 109
1, 144983, Control_c, 0, 64, 90
1, 144985, Poly_aftertouch_c, 0, 33, 28
1, 144987, Note_on_c, 0, 69, 68
1, 144988, Note_on_c, 0, 33, 36
1, 144988, Poly_aftertouch_c, 0, 69, 28
1, 145003, Control_c, 0, 64, 69
1, 145012, Poly_aftertouch_c, 0, 66, 28
1, 145019, Note_on_c, 0, 66, 45
1, 145019, Control_c, 0, 64, 48
1, 145039, Control_c, 0, 64, 30
1, 145060, Control_c, 0, 64, 20
1, 145068, Note_off_c, 0, 62, 37
1, 145070, Note_off_c, 0, 71, 44
1, 145114, Control_c, 0, 64, 26
1, 145134, Control_c, 0, 64, 37
1, 145151, Control_c, 0, 64, 56
1, 145170, Control_c, 0, 64, 75
1, 145189, Control_c, 0, 64, 100
1, 145199, Note_off_c, 0, 33, 42
1, 145207, Control_c, 0, 64, 127
1, 145244, Poly_aftertouch_c, 0, 45, 28
1, 145250, Note_on_c, 0, 45, 49
1, 145269, Note_off_c, 0, 66, 61
1, 145274, Note_off_c, 0, 69, 60
1, 145346, Note_off_c, 0, 45, 53
1, 145361, Poly_aftertouch_c, 0, 69, 28
1, 145363, Note_on_c, 0, 69, 80
1, 145370, Poly_aftertouch_c, 0, 66, 28
1, 145379, Note_on_c, 0, 66, 65
1, 145481, Poly_aftertouch_c, 0, 48, 28
1, 145487, Note_on_c, 0, 48, 57
1, 145855, Poly_aftertouch_c, 0, 72, 28
1, 145860, Note_on_c, 0, 72, 73
1, 145880, Poly_aftertouch_c, 0, 60, 28
1, 145881, Control_c, 0, 64, 110
1, 145886, Note_on_c, 0, 60, 41
1, 145890, Poly_aftertouch_c, 0, 51, 28
1, 145897, Note_on_c, 0, 51, 44
1, 145900, Control_c, 0, 64, 95
1, 145911, Poly_aftertouch_c, 0, 45, 28
1, 145919, Note_on_c, 0, 45, 28
1, 145919, Control_c, 0, 64, 80
1, 145938, Control_c, 0, 64, 66
1, 145945, Note_off_c, 0, 66, 33
1, 145956, Control_c, 0, 64, 54
1, 145975, Control_c, 0, 64, 44
1, 145994, Control_c, 0, 64, 35
1, 146000, Note_off_c, 0, 69, 52
1, 146013, Control_c, 0, 64, 26
1, 146031, Control_c, 0, 64, 21
1, 146051, Control_c, 0, 64, 17
1, 146071, Note_off_c, 0, 48, 29
1, 146582, Poly_aftertouch_c, 0, 69, 28
1, 146588, Note_on_c, 0, 69, 65
1, 146606, Poly_aftertouch_c, 0, 66, 28
1, 146614, Note_on_c, 0, 66, 47
1, 146619, Note_off_c, 0, 72, 53
1, 146687, Control_c, 0, 64, 21
1, 146705, Control_c, 0, 64, 27
1, 146725, Control_c, 0, 64, 38
1, 146743, Control_c, 0, 64, 55
1, 146762, Control_c, 0, 64, 70
1, 146780, Control_c, 0, 64, 85
1, 146799, Control_c, 0, 64, 109
1, 146818, Control_c, 0, 64, 127
1, 146843, Note_off_c, 0, 66, 47
1, 146860, Note_off_c, 0, 51, 56
1, 146877, Note_off_c, 0, 45, 52
1, 146967, Control_c, 0, 67, 69
1, 146986, Note_off_c, 0, 60, 35
1, 147136, Control_c, 0, 67, 73
1, 147229, Control_c, 0, 67, 80
1, 147248, Control_c, 0, 67, 84
1, 147284, Control_c, 0, 67, 91
1, 147304, Control_c, 0, 67, 95
1, 147322, Control_c, 0, 67, 100
1, 147360, Control_c, 0, 67, 106
1, 147398, Control_c, 0, 67, 111
1, 147609, Note_off_c, 0, 69, 49
1, 147626, Poly_aftertouch_c, 0, 68, 28
1, 147635, Note_on_c, 0, 68, 45
1, 147639, Control_c, 0, 64, 109
1, 147653, Poly_aftertouch_c, 0, 64, 28
1, 147657, Poly_aftertouch_c, 0, 40, 28
1, 147659, Control_c, 0, 64, 97
1, 147661, Note_on_c, 0, 64, 37
1, 147667, Note_on_c, 0, 40, 31
1, 147679, Control_c, 0, 64, 84
1, 147697, Control_c, 0, 64, 70
1, 147716, Control_c, 0, 64, 56
1, 147735, Control_c, 0, 64, 41
1, 147754, Control_c, 0, 64, 27
1, 147772, Control_c, 0, 64, 17
1, 147884, Control_c, 0, 64, 22
1, 147903, Control_c, 0, 64, 31
1, 147922, Control_c, 0, 64, 42
1, 147941, Control_c, 0, 64, 59
1, 147958, Control_c, 0, 64, 71
1, 147978, Control_c, 0, 64, 79
1, 147998, Control_c, 0, 64, 86
1, 148016, Control_c, 0, 64, 94
1, 148034, Control_c, 0, 64, 102
1, 148053, Control_c, 0, 64, 112
1, 148073, Control_c, 0, 64, 127
1, 148166, Poly_aftertouch_c, 0, 47, 28
1, 148176, Note_on_c, 0, 47, 33
1, 148242, Note_off_c, 0, 64, 40
1, 148243, Note_off_c, 0, 68, 38
1, 148448, Poly_aftertouch_c, 0, 52, 28
1, 148455, Note_on_c, 0, 52, 33
1, 148579, Note_off_c, 0, 47, 35
1, 148672, Poly_aftertouch_c, 0, 71, 28
1, 148675, Poly_aftertouch_c, 0, 59, 28
1, 148679, Note_on_c, 0, 71, 36
1, 148683, Note_on_c, 0, 59, 25
1, 148688, Poly_aftertouch_c, 0, 68, 28
1, 148689, Control_c, 0, 67, 107
1, 148703, Note_on_c, 0, 68, 26
1, 148727, Control_c, 0, 64, 118
1, 148746, Control_c, 0, 64, 108
1, 148763, Control_c, 0, 64, 101
1, 148783, Control_c, 0, 64, 94
1, 148802, Control_c, 0, 64, 86
1, 148820, Control_c, 0, 64, 77
1, 148839, Control_c, 0, 64, 69
1, 148858, Control_c, 0, 64, 62
1, 148878, Control_c, 0, 64, 56
1, 148895, Control_c, 0, 64, 50
1, 148914, Control_c, 0, 64, 46
1, 148935, Control_c, 0, 64, 42
1, 148952, Control_c, 0, 64, 38
1, 149120, Control_c, 0, 64, 41
1, 149139, Control_c, 0, 64, 46
1, 149158, Control_c, 0, 64, 50
1, 149176, Control_c, 0, 64, 52
1, 149196, Control_c, 0, 64, 55
1, 149214, Control_c, 0, 64, 57
1, 149251, Control_c, 0, 64, 59
1, 149269, Control_c, 0, 64, 60
1, 149288, Control_c, 0, 64, 62
1, 149307, Control_c, 0, 64, 64
1, 149326, Control_c, 0, 64, 66
1, 149345, Control_c, 0, 64, 67
1, 149381, Control_c, 0, 64, 70
1, 149401, Control_c, 0, 64, 73
1, 149420, Control_c, 0, 64, 76
1, 149438, Control_c, 0, 64, 80
1, 149458, Control_c, 0, 64, 86
1, 149477, Control_c, 0, 64, 94
1, 149494, Control_c, 0, 64, 105
1, 149512, Control_c, 0, 64, 127
1, 149708, Note_off_c, 0, 59, 38
1, 149738, Note_off_c, 0, 52, 30
1, 149756, Control_c, 0, 67, 103
1, 149879, Note_off_c, 0, 68, 43
1, 150006, Note_off_c, 0, 40, 35
1, 150033, Note_off_c, 0, 71, 54
1, 150692, Control_c, 0, 64, 107
1, 150700, Poly_aftertouch_c, 0, 72, 28
1, 150707, Note_on_c, 0, 72, 48
1, 150709, Control_c, 0, 64, 86
1, 150728, Poly_aftertouch_c, 0, 69, 28
1, 150729, Control_c, 0, 64, 68
1, 150731, Poly_aftertouch_c, 0, 33, 28
1, 150734, Note_on_c, 0, 69, 34
1, 150738, Note_on_c, 0, 33, 27
1, 150750, Control_c, 0, 64, 54
1, 150766, Control_c, 0, 64, 51
1, 150804, Control_c, 0, 64, 55
1, 150824, Control_c, 0, 64, 61
1, 150841, Control_c, 0, 64, 68
1, 150862, Control_c, 0, 64, 77
1, 150880, Control_c, 0, 64, 94
1, 150897, Control_c, 0, 64, 127
1, 150980, Note_off_c, 0, 72, 58
1, 150985, Note_off_c, 0, 69, 48
1, 150991, Note_off_c, 0, 33, 39
1, 151009, Poly_aftertouch_c, 0, 45, 28
1, 151015, Note_on_c, 0, 45, 44
1, 151066, Note_off_c, 0, 45, 60
1, 151104, Poly_aftertouch_c, 0, 72, 28
1, 151111, Note_on_c, 0, 72, 67
1, 151142, Poly_aftertouch_c, 0, 69, 28
1, 151145, Note_on_c, 0, 69, 53
1, 151250, Poly_aftertouch_c, 0, 52, 28
1, 151254, Note_on_c, 0, 52, 43
1, 151457, Poly_aftertouch_c, 0, 69, 24
1, 151474, Note_off_c, 0, 69, 58
1, 151487, Poly_aftertouch_c, 0, 76, 28
1, 151489, Note_on_c, 0, 76, 75
1, 151499, Poly_aftertouch_c, 0, 73, 28
1, 151507, Note_on_c, 0, 73, 46
1, 151510, Poly_aftertouch_c, 0, 64, 28
1, 151514, Note_on_c, 0, 64, 47
1, 151516, Poly_aftertouch_c, 0, 52, 24
1, 151521, Poly_aftertouch_c, 0, 45, 28
1, 151522, Poly_aftertouch_c, 0, 57, 28
1, 151526, Note_off_c, 0, 72, 45
1, 151526, Note_on_c, 0, 45, 43
1, 151530, Note_on_c, 0, 57, 41
1, 151534, Control_c, 0, 64, 108
1, 151553, Control_c, 0, 64, 93
1, 151572, Control_c, 0, 64, 77
1, 151591, Note_off_c, 0, 52, 33
1, 151591, Control_c, 0, 64, 63
1, 151610, Control_c, 0, 64, 51
1, 151628, Control_c, 0, 64, 43
1, 151646, Control_c, 0, 64, 37
1, 151666, Control_c, 0, 64, 32
1, 151816, Control_c, 0, 64, 39
1, 151833, Control_c, 0, 64, 45
1, 151853, Control_c, 0, 64, 54
1, 151871, Control_c, 0, 64, 61
1, 151891, Control_c, 0, 64, 64
1, 151909, Control_c, 0, 64, 66
1, 151928, Control_c, 0, 64, 68
1, 151929, Control_c, 0, 67, 97
1, 151947, Control_c, 0, 64, 70
1, 151949, Control_c, 0, 67, 90
1, 151966, Control_c, 0, 64, 74
1, 151969, Control_c, 0, 67, 82
1, 151984, Control_c, 0, 64, 81
1, 151985, Control_c, 0, 67, 73
1, 152003, Control_c, 0, 64, 93
1, 152005, Control_c, 0, 67, 65
1, 152022, Control_c, 0, 64, 121
1, 152023, Control_c, 0, 67, 56
1, 152040, Control_c, 0, 64, 127
1, 152041, Control_c, 0, 67, 48
1, 152058, Control_c, 0, 67, 41
1, 152077, Control_c, 0, 67, 36
1, 152096, Control_c, 0, 67, 32
1, 152114, Control_c, 0, 67, 28
1, 152133, Control_c, 0, 67, 24
1, 152142, Note_off_c, 0, 64, 32
1, 152152, Control_c, 0, 67, 20
1, 152170, Control_c, 0, 67, 15
1, 152189, Control_c, 0, 67, 10
1, 152198, Note_off_c, 0, 57, 39
1, 152245, Control_c, 0, 67, 0
1, 152364, Note_off_c, 0, 73, 53
1, 152436, Note_off_c, 0, 45, 58
1, 152584, Note_off_c, 0, 76, 60
1, 153004, Poly_aftertouch_c, 0, 77, 28
1, 153006, Note_on_c, 0, 77, 76
1, 153022, Poly_aftertouch_c, 0, 38, 28
1, 153025, Poly_aftertouch_c, 0, 74, 28
1, 153028, Note_on_c, 0, 74, 56
1, 153031, Note_on_c, 0, 38, 40
1, 153031, Control_c, 0, 64, 105
1, 153050, Control_c, 0, 64, 78
1, 153070, Control_c, 0, 64, 57
1, 153088, Control_c, 0, 64, 43
1, 153107, Control_c, 0, 64, 38
1, 153145, Control_c, 0, 64, 41
1, 153163, Control_c, 0, 64, 50
1, 153182, Control_c, 0, 64, 64
1, 153200, Control_c, 0, 64, 77
1, 153220, Control_c, 0, 64, 97
1, 153238, Control_c, 0, 64, 127
1, 153259, Note_off_c, 0, 38, 42
1, 153278, Poly_aftertouch_c, 0, 50, 28
1, 153285, Note_on_c, 0, 50, 58
1, 153289, Note_off_c, 0, 77, 60
1, 153297, Note_off_c, 0, 74, 37
1, 153374, Note_off_c, 0, 50, 58
1, 153396, Poly_aftertouch_c, 0, 77, 28
1, 153398, Note_on_c, 0, 77, 95
1, 153410, Poly_aftertouch_c, 0, 74, 28
1, 153413, Note_on_c, 0, 74, 80
1, 153548, Poly_aftertouch_c, 0, 57, 28
1, 153552, Note_on_c, 0, 57, 58
1, 153974, Poly_aftertouch_c, 0, 81, 28
1, 153975, Note_on_c, 0, 81, 85
1, 153978, Note_off_c, 0, 74, 60
1, 153992, Poly_aftertouch_c, 0, 78, 28
1, 153998, Note_on_c, 0, 78, 65
1, 154003, Poly_aftertouch_c, 0, 69, 28
1, 154008, Note_on_c, 0, 69, 62
1, 154013, Poly_aftertouch_c, 0, 51, 28
1, 154014, Poly_aftertouch_c, 0, 60, 28
1, 154021, Note_on_c, 0, 60, 49
1, 154022, Note_on_c, 0, 51, 43
1, 154030, Note_off_c, 0, 57, 51
1, 154042, Control_c, 0, 64, 103
1, 154062, Control_c, 0, 64, 84
1, 154072, Note_off_c, 0, 77, 44
1, 154081, Control_c, 0, 64, 67
1, 154099, Control_c, 0, 64, 53
1, 154118, Control_c, 0, 64, 41
1, 154136, Control_c, 0, 64, 31
1, 154156, Control_c, 0, 64, 21
1, 154173, Control_c, 0, 64, 11
1, 154399, Control_c, 0, 64, 15
1, 154436, Control_c, 0, 64, 23
1, 154454, Control_c, 0, 64, 27
1, 154474, Control_c, 0, 64, 34
1, 154492, Control_c, 0, 64, 44
1, 154511, Control_c, 0, 64, 58
1, 154529, Control_c, 0, 64, 67
1, 154549, Control_c, 0, 64, 70
1, 154586, Control_c, 0, 64, 72
1, 154604, Control_c, 0, 64, 76
1, 154624, Control_c, 0, 64, 84
1, 154641, Control_c, 0, 64, 103
1, 154660, Control_c, 0, 64, 127
1, 154764, Note_off_c, 0, 60, 32
1, 154864, Note_off_c, 0, 81, 60
1, 154875, Note_off_c, 0, 51, 56
1, 154984, Note_off_c, 0, 69, 35
1, 155650, Poly_aftertouch_c, 0, 79, 28
1, 155654, Note_on_c, 0, 79, 79
1, 155667, Poly_aftertouch_c, 0, 72, 28
1, 155671, Note_on_c, 0, 72, 47
1, 155672, Poly_aftertouch_c, 0, 67, 28
1, 155672, Control_c, 0, 64, 95
1, 155681, Note_on_c, 0, 67, 45
1, 155690, Poly_aftertouch_c, 0, 40, 28
1, 155690, Control_c, 0, 64, 73
1, 155698, Note_on_c, 0, 40, 34
1, 155709, Control_c, 0, 64, 54
1, 155723, Note_off_c, 0, 78, 61
1, 155728, Control_c, 0, 64, 37
1, 155746, Control_c, 0, 64, 21
1, 155765, Control_c, 0, 64, 11
1, 155877, Control_c, 0, 64, 15
1, 155896, Control_c, 0, 64, 26
1, 155914, Control_c, 0, 64, 41
1, 155933, Control_c, 0, 64, 63
1, 155952, Control_c, 0, 64, 80
1, 155972, Control_c, 0, 64, 107
1, 155989, Control_c, 0, 64, 127
1, 156015, Note_off_c, 0, 67, 58
1, 156067, Note_off_c, 0, 79, 63
1, 156082, Note_off_c, 0, 40, 34
1, 156132, Poly_aftertouch_c, 0, 52, 28
1, 156138, Note_on_c, 0, 52, 49
1, 156223, Poly_aftertouch_c, 0, 79, 28
1, 156227, Note_on_c, 0, 79, 83
1, 156239, Note_off_c, 0, 52, 41
1, 156265, Poly_aftertouch_c, 0, 67, 28
1, 156271, Note_on_c, 0, 67, 50
1, 156345, Note_off_c, 0, 67, 55
1, 156399, Note_off_c, 0, 79, 59
1, 156422, Poly_aftertouch_c, 0, 55, 28
1, 156428, Note_on_c, 0, 55, 48
1, 156626, Control_c, 0, 67, 8
1, 156682, Control_c, 0, 67, 14
1, 156757, Control_c, 0, 67, 18
1, 156877, Poly_aftertouch_c, 0, 76, 28
1, 156879, Note_on_c, 0, 76, 67
1, 156887, Poly_aftertouch_c, 0, 68, 28
1, 156899, Note_on_c, 0, 68, 42
1, 156905, Control_c, 0, 64, 102
1, 156907, Poly_aftertouch_c, 0, 60, 28
1, 156907, Control_c, 0, 67, 23
1, 156911, Note_on_c, 0, 60, 40
1, 156911, Poly_aftertouch_c, 0, 52, 28
1, 156915, Note_on_c, 0, 52, 37
1, 156923, Control_c, 0, 64, 86
1, 156944, Control_c, 0, 64, 69
1, 156963, Control_c, 0, 64, 54
1, 156981, Control_c, 0, 64, 41
1, 157000, Control_c, 0, 64, 30
1, 157021, Control_c, 0, 64, 21
1, 157028, Note_off_c, 0, 55, 42
1, 157038, Control_c, 0, 64, 16
1, 157038, Control_c, 0, 67, 27
1, 157170, Control_c, 0, 64, 24
1, 157188, Control_c, 0, 64, 32
1, 157207, Control_c, 0, 64, 44
1, 157225, Control_c, 0, 64, 61
1, 157244, Control_c, 0, 64, 75
1, 157262, Control_c, 0, 64, 89
1, 157281, Control_c, 0, 64, 113
1, 157300, Control_c, 0, 64, 127
1, 157376, Note_off_c, 0, 72, 36
1, 157507, Control_c, 0, 67, 32
1, 157539, Note_off_c, 0, 68, 27
1, 157543, Control_c, 0, 67, 38
1, 157581, Control_c, 0, 67, 42
1, 157768, Control_c, 0, 64, 118
1, 157780, Poly_aftertouch_c, 0, 72, 28
1, 157785, Note_on_c, 0, 72, 53
1, 157786, Control_c, 0, 64, 97
1, 157803, Poly_aftertouch_c, 0, 53, 28
1, 157804, Poly_aftertouch_c, 0, 69, 28
1, 157804, Control_c, 0, 64, 79
1, 157809, Note_on_c, 0, 69, 36
1, 157810, Note_on_c, 0, 53, 35
1, 157824, Control_c, 0, 64, 63
1, 157842, Note_off_c, 0, 76, 59
1, 157842, Control_c, 0, 64, 47
1, 157861, Control_c, 0, 64, 32
1, 157881, Control_c, 0, 64, 22
1, 157894, Note_off_c, 0, 52, 41
1, 157898, Control_c, 0, 64, 17
1, 158011, Control_c, 0, 64, 25
1, 158030, Control_c, 0, 64, 34
1, 158049, Control_c, 0, 64, 47
1, 158067, Control_c, 0, 64, 63
1, 158085, Control_c, 0, 64, 74
1, 158106, Control_c, 0, 64, 85
1, 158123, Control_c, 0, 64, 97
1, 158129, Poly_aftertouch_c, 0, 60, 24
1, 158143, Control_c, 0, 64, 118
1, 158144, Control_c, 0, 67, 46
1, 158161, Control_c, 0, 64, 127
1, 158180, Control_c, 0, 67, 52
1, 158217, Control_c, 0, 67, 59
1, 158273, Control_c, 0, 67, 63
1, 158276, Note_off_c, 0, 72, 51
1, 158368, Control_c, 0, 67, 67
1, 158387, Poly_aftertouch_c, 0, 60, 20
1, 158389, Note_off_c, 0, 69, 52
1, 158400, Note_off_c, 0, 60, 27
1, 158499, Poly_aftertouch_c, 0, 57, 28
1, 158505, Note_on_c, 0, 57, 36
1, 158872, Control_c, 0, 64, 110
1, 158891, Control_c, 0, 64, 94
1, 158903, Poly_aftertouch_c, 0, 76, 28
1, 158906, Note_on_c, 0, 76, 50
1, 158910, Control_c, 0, 64, 76
1, 158924, Poly_aftertouch_c, 0, 71, 28
1, 158928, Control_c, 0, 64, 57
1, 158929, Poly_aftertouch_c, 0, 68, 28
1, 158934, Note_on_c, 0, 71, 38
1, 158935, Poly_aftertouch_c, 0, 52, 28
1, 158935, Poly_aftertouch_c, 0, 64, 28
1, 158940, Note_on_c, 0, 52, 36
1, 158941, Note_on_c, 0, 64, 26
1, 158944, Note_on_c, 0, 68, 29
1, 158946, Control_c, 0, 64, 42
1, 158956, Note_off_c, 0, 57, 36
1, 158962, Note_off_c, 0, 53, 40
1, 158965, Control_c, 0, 64, 34
1, 159059, Control_c, 0, 64, 47
1, 159078, Control_c, 0, 64, 61
1, 159098, Control_c, 0, 64, 73
1, 159116, Control_c, 0, 64, 85
1, 159134, Control_c, 0, 64, 103
1, 159150, Note_off_c, 0, 52, 52
1, 159152, Control_c, 0, 64, 127
1, 159323, Poly_aftertouch_c, 0, 52, 28
1, 159329, Note_on_c, 0, 52, 45
1, 159354, Note_off_c, 0, 68, 43
1, 159715, Control_c, 0, 64, 115
1, 159732, Control_c, 0, 64, 106
1, 159736, Poly_aftertouch_c, 0, 69, 28
1, 159740, Poly_aftertouch_c, 0, 48, 28
1, 159743, Note_on_c, 0, 69, 48
1, 159745, Note_on_c, 0, 48, 40
1, 159751, Control_c, 0, 64, 97
1, 159762, Note_off_c, 0, 71, 44
1, 159769, Control_c, 0, 64, 88
1, 159789, Control_c, 0, 64, 77
1, 159807, Control_c, 0, 64, 67
1, 159827, Control_c, 0, 64, 59
1, 159845, Control_c, 0, 64, 53
1, 159864, Control_c, 0, 64, 49
1, 159882, Control_c, 0, 64, 45
1, 159902, Control_c, 0, 64, 40
1, 159921, Control_c, 0, 64, 35
1, 159939, Control_c, 0, 64, 31
1, 159958, Control_c, 0, 64, 27
1, 159995, Control_c, 0, 64, 22
1, 160183, Control_c, 0, 67, 71
1, 160220, Control_c, 0, 67, 79
1, 160239, Control_c, 0, 67, 86
1, 160257, Control_c, 0, 67, 93
1, 160276, Control_c, 0, 67, 98
1, 160294, Control_c, 0, 67, 102
1, 160314, Control_c, 0, 64, 18
1, 160315, Control_c, 0, 67, 106
1, 160351, Control_c, 0, 67, 113
1, 160370, Control_c, 0, 67, 117
1, 160389, Control_c, 0, 67, 122
1, 160408, Control_c, 0, 67, 126
1, 160560, Poly_aftertouch_c, 0, 45, 28
1, 160568, Note_on_c, 0, 45, 40
1, 160711, Note_off_c, 0, 48, 41
1, 160744, Control_c, 0, 64, 23
1, 160763, Control_c, 0, 64, 28
1, 160783, Control_c, 0, 64, 35
1, 160800, Control_c, 0, 64, 48
1, 160819, Control_c, 0, 64, 62
1, 160839, Control_c, 0, 64, 72
1, 160857, Control_c, 0, 64, 80
1, 160875, Control_c, 0, 64, 93
1, 160881, Note_off_c, 0, 76, 36
1, 160895, Control_c, 0, 64, 118
1, 160913, Control_c, 0, 64, 127
1, 160921, Note_off_c, 0, 69, 58
1, 160987, Note_off_c, 0, 64, 54
1, 161055, Note_off_c, 0, 52, 33
1, 161261, Note_off_c, 0, 45, 57
1, 161774, Control_c, 0, 64, 116
1, 161793, Control_c, 0, 64, 101
1, 161794, Poly_aftertouch_c, 0, 64, 28
1, 161801, Note_on_c, 0, 64, 32
1, 161806, Poly_aftertouch_c, 0, 52, 28
1, 161806, Poly_aftertouch_c, 0, 59, 28
1, 161812, Note_on_c, 0, 59, 33
1, 161812, Poly_aftertouch_c, 0, 56, 28
1, 161812, Control_c, 0, 64, 87
1, 161814, Note_on_c, 0, 52, 25
1, 161822, Note_on_c, 0, 56, 32
1, 161824, Poly_aftertouch_c, 0, 40, 28
1, 161829, Control_c, 0, 64, 73
1, 161835, Note_on_c, 0, 40, 26
1, 161850, Control_c, 0, 64, 59
1, 161866, Control_c, 0, 64, 44
1, 161886, Control_c, 0, 64, 33
1, 161905, Control_c, 0, 64, 27
1, 161980, Control_c, 0, 64, 33
1, 161998, Control_c, 0, 64, 43
1, 162018, Control_c, 0, 64, 59
1, 162036, Control_c, 0, 64, 73
1, 162056, Control_c, 0, 64, 88
1, 162073, Control_c, 0, 64, 114
1, 162082, Note_off_c, 0, 40, 39
1, 162090, Control_c, 0, 64, 127
1, 162285, Poly_aftertouch_c, 0, 40, 28
1, 162293, Note_on_c, 0, 40, 30
1, 162307, Note_off_c, 0, 56, 40
1, 162706, Poly_aftertouch_c, 0, 57, 28
1, 162714, Note_on_c, 0, 57, 41
1, 162729, Control_c, 0, 64, 116
1, 162735, Poly_aftertouch_c, 0, 36, 28
1, 162742, Note_off_c, 0, 59, 44
1, 162745, Note_on_c, 0, 36, 28
1, 162748, Control_c, 0, 64, 105
1, 162766, Control_c, 0, 64, 98
1, 162776, Poly_aftertouch_c, 0, 40, 24
1, 162783, Control_c, 0, 64, 89
1, 162802, Control_c, 0, 64, 79
1, 162822, Control_c, 0, 64, 69
1, 162841, Control_c, 0, 64, 62
1, 162848, Note_off_c, 0, 40, 34
1, 162860, Control_c, 0, 64, 56
1, 162878, Control_c, 0, 64, 53
1, 162896, Control_c, 0, 64, 51
1, 162934, Control_c, 0, 64, 47
1, 162953, Control_c, 0, 64, 44
1, 162971, Control_c, 0, 64, 40
1, 163009, Control_c, 0, 64, 34
1, 163065, Control_c, 0, 64, 30
1, 163140, Control_c, 0, 64, 25
1, 163253, Control_c, 0, 64, 21
1, 163959, Poly_aftertouch_c, 0, 33, 28
1, 163968, Note_on_c, 0, 33, 36
1, 164080, Note_off_c, 0, 36, 52
1, 164544, Control_c, 0, 64, 26
1, 164582, Control_c, 0, 64, 32
1, 164619, Control_c, 0, 64, 41
1, 164637, Control_c, 0, 64, 48
1, 164657, Control_c, 0, 64, 57
1, 164675, Control_c, 0, 64, 61
1, 164694, Control_c, 0, 64, 63
1, 164732, Control_c, 0, 64, 64
1, 164749, Control_c, 0, 64, 66
1, 164769, Control_c, 0, 64, 68
1, 164787, Control_c, 0, 64, 70
1, 164806, Control_c, 0, 64, 74
1, 164824, Control_c, 0, 64, 78
1, 164844, Control_c, 0, 64, 84
1, 164854, Note_off_c, 0, 52, 34
1, 164863, Control_c, 0, 64, 91
1, 164880, Control_c, 0, 64, 99
1, 164893, Note_off_c, 0, 57, 55
1, 164900, Control_c, 0, 64, 109
1, 164919, Control_c, 0, 64, 127
1, 165091, Note_off_c, 0, 64, 53
1, 165763, Poly_aftertouch_c, 0, 72, 28
1, 165771, Note_on_c, 0, 72, 51
1, 165792, Poly_aftertouch_c, 0, 69, 28
1, 165798, Note_on_c, 0, 69, 38
1, 165992, Poly_aftertouch_c, 0, 33, 20
1, 166004, Note_off_c, 0, 33, 25
1, 166089, Poly_aftertouch_c, 0, 69, 24
1, 166147, Poly_aftertouch_c, 0, 45, 28
1, 166155, Note_on_c, 0, 45, 39
1, 166170, Note_off_c, 0, 69, 32
1, 166170, Note_off_c, 0, 72, 53
1, 166273, Note_off_c, 0, 45, 57
1, 166317, Poly_aftertouch_c, 0, 72, 28
1, 166322, Note_on_c, 0, 72, 65
1, 166331, Note_on_c, 0, 69, 49
1, 166331, Poly_aftertouch_c, 0, 69, 28
1, 166484, Poly_aftertouch_c, 0, 52, 28
1, 166491, Note_on_c, 0, 52, 39
1, 166659, Poly_aftertouch_c, 0, 69, 24
1, 166677, Note_off_c, 0, 69, 54
1, 166688, Poly_aftertouch_c, 0, 74, 28
1, 166691, Note_on_c, 0, 74, 66
1, 166693, Poly_aftertouch_c, 0, 45, 28
1, 166695, Note_on_c, 0, 45, 44
1, 166695, Control_c, 0, 64, 99
1, 166701, Poly_aftertouch_c, 0, 65, 28
1, 166706, Poly_aftertouch_c, 0, 71, 28
1, 166709, Note_on_c, 0, 65, 40
1, 166713, Note_on_c, 0, 71, 46
1, 166715, Control_c, 0, 64, 77
1, 166716, Note_off_c, 0, 52, 33
1, 166722, Note_off_c, 0, 72, 37
1, 166734, Control_c, 0, 64, 59
1, 166752, Control_c, 0, 64, 46
1, 166771, Control_c, 0, 64, 42
1, 166827, Control_c, 0, 64, 47
1, 166847, Control_c, 0, 64, 55
1, 166866, Control_c, 0, 64, 62
1, 166883, Control_c, 0, 64, 67
1, 166902, Control_c, 0, 64, 73
1, 166921, Control_c, 0, 64, 78
1, 166922, Poly_aftertouch_c, 0, 50, 28
1, 166937, Note_on_c, 0, 50, 35
1, 166940, Control_c, 0, 64, 86
1, 166959, Control_c, 0, 64, 96
1, 166977, Control_c, 0, 64, 108
1, 166996, Control_c, 0, 64, 127
1, 167000, Note_off_c, 0, 74, 59
1, 167027, Note_off_c, 0, 71, 58
1, 167028, Poly_aftertouch_c, 0, 72, 28
1, 167030, Note_on_c, 0, 72, 61
1, 167034, Note_off_c, 0, 65, 56
1, 167039, Poly_aftertouch_c, 0, 69, 28
1, 167043, Note_on_c, 0, 69, 53
1, 167086, Note_off_c, 0, 45, 35
1, 167150, Poly_aftertouch_c, 0, 53, 28
1, 167158, Note_on_c, 0, 53, 32
1, 167232, Note_off_c, 0, 53, 0
1, 167232, Poly_aftertouch_c, 0, 53, 28
1, 167390, Control_c, 0, 64, 116
1, 167398, Poly_aftertouch_c, 0, 69, 24
1, 167407, Control_c, 0, 64, 104
1, 167413, Poly_aftertouch_c, 0, 53, 24
1, 167415, Note_off_c, 0, 69, 53
1, 167426, Control_c, 0, 64, 92
1, 167433, Note_off_c, 0, 72, 51
1, 167439, Poly_aftertouch_c, 0, 74, 28
1, 167441, Note_on_c, 0, 74, 58
1, 167445, Control_c, 0, 64, 76
1, 167449, Poly_aftertouch_c, 0, 45, 28
1, 167451, Poly_aftertouch_c, 0, 65, 28
1, 167452, Poly_aftertouch_c, 0, 71, 28
1, 167456, Note_on_c, 0, 45, 38
1, 167459, Note_on_c, 0, 71, 35
1, 167461, Note_on_c, 0, 65, 33
1, 167464, Control_c, 0, 64, 60
1, 167482, Control_c, 0, 64, 46
1, 167495, Poly_aftertouch_c, 0, 53, 28
1, 167501, Control_c, 0, 64, 37
1, 167503, Note_off_c, 0, 50, 41
1, 167576, Control_c, 0, 64, 40
1, 167595, Control_c, 0, 64, 48
1, 167613, Control_c, 0, 64, 59
1, 167633, Poly_aftertouch_c, 0, 53, 0
1, 167633, Control_c, 0, 64, 69
1, 167652, Control_c, 0, 64, 77
1, 167670, Control_c, 0, 64, 88
1, 167689, Control_c, 0, 64, 105
1, 167708, Control_c, 0, 64, 127
1, 167726, Control_c, 0, 67, 122
1, 167903, Note_off_c, 0, 45, 34
1, 167924, Note_off_c, 0, 71, 49
1, 167945, Note_off_c, 0, 74, 55
1, 168291, Poly_aftertouch_c, 0, 33, 28
1, 168299, Note_on_c, 0, 33, 40
1, 168305, Control_c, 0, 64, 109
1, 168325, Control_c, 0, 64, 86
1, 168345, Control_c, 0, 64, 65
1, 168362, Control_c, 0, 64, 46
1, 168368, Poly_aftertouch_c, 0, 72, 28
1, 168375, Note_on_c, 0, 72, 70
1, 168381, Control_c, 0, 64, 35
1, 168391, Note_off_c, 0, 65, 51
1, 168402, Note_on_c, 0, 69, 48
1, 168402, Poly_aftertouch_c, 0, 69, 28
1, 168456, Control_c, 0, 64, 42
1, 168475, Control_c, 0, 64, 56
1, 168493, Control_c, 0, 64, 69
1, 168512, Control_c, 0, 64, 82
1, 168531, Control_c, 0, 64, 103
1, 168549, Control_c, 0, 64, 127
1, 168595, Note_off_c, 0, 33, 33
1, 168653, Note_off_c, 0, 72, 58
1, 168666, Note_off_c, 0, 69, 56
1, 168670, Poly_aftertouch_c, 0, 45, 28
1, 168675, Note_on_c, 0, 45, 50
1, 168745, Note_off_c, 0, 45, 58
1, 168773, Poly_aftertouch_c, 0, 72, 28
1, 168777, Note_on_c, 0, 72, 78
1, 168793, Poly_aftertouch_c, 0, 69, 28
1, 168796, Note_on_c, 0, 69, 62
1, 168916, Note_off_c, 0, 69, 54
1, 168920, Poly_aftertouch_c, 0, 52, 28
1, 168924, Note_on_c, 0, 52, 47
1, 169056, Control_c, 0, 64, 104
1, 169074, Control_c, 0, 64, 78
1, 169089, Poly_aftertouch_c, 0, 68, 28
1, 169089, Poly_aftertouch_c, 0, 71, 28
1, 169091, Control_c, 0, 64, 59
1, 169092, Note_on_c, 0, 71, 74
1, 169093, Note_on_c, 0, 68, 64
1, 169095, Poly_aftertouch_c, 0, 45, 28
1, 169097, Note_on_c, 0, 45, 44
1, 169111, Control_c, 0, 64, 46
1, 169117, Poly_aftertouch_c, 0, 62, 28
1, 169125, Note_on_c, 0, 62, 41
1, 169128, Control_c, 0, 64, 44
1, 169131, Note_off_c, 0, 72, 57
1, 169149, Control_c, 0, 64, 46
1, 169168, Control_c, 0, 64, 53
1, 169186, Control_c, 0, 64, 63
1, 169190, Note_off_c, 0, 52, 29
1, 169205, Control_c, 0, 64, 73
1, 169223, Control_c, 0, 64, 85
1, 169242, Control_c, 0, 64, 102
1, 169246, Note_off_c, 0, 68, 58
1, 169261, Control_c, 0, 64, 127
1, 169274, Note_off_c, 0, 71, 60
1, 169313, Poly_aftertouch_c, 0, 53, 28
1, 169315, Note_on_c, 0, 53, 52
1, 169354, Control_c, 0, 67, 118
1, 169395, Poly_aftertouch_c, 0, 69, 28
1, 169399, Note_on_c, 0, 69, 78
1, 169422, Poly_aftertouch_c, 0, 65, 28
1, 169432, Note_off_c, 0, 62, 47
1, 169432, Note_on_c, 0, 65, 41
1, 169454, Poly_aftertouch_c, 0, 64, 28
1, 169460, Note_on_c, 0, 64, 38
1, 169488, Note_off_c, 0, 45, 54
1, 169503, Control_c, 0, 67, 114
1, 169504, Note_off_c, 0, 64, 43
1, 169513, Poly_aftertouch_c, 0, 50, 28
1, 169522, Note_on_c, 0, 50, 53
1, 169610, Poly_aftertouch_c, 0, 53, 24
1, 169635, Control_c, 0, 67, 109
1, 169652, Note_off_c, 0, 53, 30
1, 169691, Control_c, 0, 67, 105
1, 169767, Control_c, 0, 64, 103
1, 169780, Note_off_c, 0, 65, 59
1, 169783, Control_c, 0, 64, 82
1, 169786, Poly_aftertouch_c, 0, 68, 28
1, 169787, Poly_aftertouch_c, 0, 71, 28
1, 169790, Note_on_c, 0, 71, 69
1, 169796, Note_on_c, 0, 68, 58
1, 169798, Poly_aftertouch_c, 0, 45, 28
1, 169801, Note_off_c, 0, 69, 46
1, 169803, Note_on_c, 0, 45, 44
1, 169803, Control_c, 0, 64, 62
1, 169806, Poly_aftertouch_c, 0, 62, 28
1, 169811, Note_on_c, 0, 62, 38
1, 169822, Control_c, 0, 64, 45
1, 169841, Control_c, 0, 64, 34
1, 169842, Control_c, 0, 67, 101
1, 169860, Note_off_c, 0, 50, 37
1, 169916, Control_c, 0, 64, 41
1, 169936, Control_c, 0, 64, 54
1, 169953, Control_c, 0, 64, 69
1, 169973, Control_c, 0, 64, 84
1, 169990, Control_c, 0, 64, 127
1, 170011, Control_c, 0, 67, 95
1, 170027, Control_c, 0, 67, 91
1, 170047, Control_c, 0, 67, 86
1, 170065, Control_c, 0, 67, 82
1, 170102, Control_c, 0, 67, 78
1, 170103, Note_off_c, 0, 45, 58
1, 170205, Note_off_c, 0, 68, 59
1, 170290, Control_c, 0, 67, 68
1, 170309, Control_c, 0, 67, 56
1, 170328, Control_c, 0, 67, 41
1, 170347, Control_c, 0, 67, 25
1, 170364, Control_c, 0, 67, 12
1, 170402, Control_c, 0, 67, 0
1, 170465, Poly_aftertouch_c, 0, 33, 28
1, 170471, Note_on_c, 0, 33, 45
1, 170515, Control_c, 0, 64, 97
1, 170535, Control_c, 0, 64, 69
1, 170553, Note_off_c, 0, 62, 58
1, 170553, Control_c, 0, 64, 45
1, 170559, Poly_aftertouch_c, 0, 69, 28
1, 170563, Note_on_c, 0, 69, 67
1, 170571, Control_c, 0, 64, 23
1, 170581, Poly_aftertouch_c, 0, 66, 28
1, 170588, Control_c, 0, 64, 13
1, 170589, Note_on_c, 0, 66, 53
1, 170612, Note_off_c, 0, 71, 55
1, 170684, Control_c, 0, 64, 24
1, 170701, Control_c, 0, 64, 38
1, 170722, Control_c, 0, 64, 60
1, 170739, Control_c, 0, 64, 81
1, 170758, Control_c, 0, 64, 127
1, 170859, Note_off_c, 0, 33, 31
1, 170873, Note_off_c, 0, 66, 52
1, 170876, Note_off_c, 0, 69, 59
1, 170880, Poly_aftertouch_c, 0, 45, 28
1, 170886, Note_on_c, 0, 45, 47
1, 170976, Note_off_c, 0, 45, 51
1, 170982, Poly_aftertouch_c, 0, 69, 28
1, 170984, Note_on_c, 0, 69, 80
1, 170997, Poly_aftertouch_c, 0, 66, 28
1, 171004, Note_on_c, 0, 66, 69
1, 171136, Poly_aftertouch_c, 0, 48, 28
1, 171143, Note_on_c, 0, 48, 56
1, 171339, Note_off_c, 0, 66, 46
1, 171401, Poly_aftertouch_c, 0, 45, 28
1, 171406, Note_on_c, 0, 45, 50
1, 171469, Control_c, 0, 64, 94
1, 171472, Note_off_c, 0, 48, 37
1, 171489, Control_c, 0, 64, 72
1, 171499, Poly_aftertouch_c, 0, 72, 28
1, 171501, Note_on_c, 0, 72, 74
1, 171507, Control_c, 0, 64, 52
1, 171517, Poly_aftertouch_c, 0, 60, 28
1, 171519, Note_on_c, 0, 60, 43
1, 171525, Control_c, 0, 64, 35
1, 171544, Control_c, 0, 64, 23
1, 171563, Control_c, 0, 64, 19
1, 171591, Note_off_c, 0, 69, 50
1, 171658, Control_c, 0, 64, 28
1, 171676, Control_c, 0, 64, 40
1, 171694, Control_c, 0, 64, 58
1, 171713, Control_c, 0, 64, 72
1, 171732, Control_c, 0, 64, 87
1, 171751, Control_c, 0, 64, 105
1, 171768, Control_c, 0, 64, 127
1, 171851, Poly_aftertouch_c, 0, 54, 28
1, 171859, Note_on_c, 0, 54, 44
1, 171960, Poly_aftertouch_c, 0, 71, 28
1, 171963, Note_on_c, 0, 71, 75
1, 171971, Poly_aftertouch_c, 0, 68, 28
1, 171977, Note_on_c, 0, 68, 62
1, 172001, Note_off_c, 0, 72, 58
1, 172036, Note_off_c, 0, 60, 37
1, 172067, Note_off_c, 0, 45, 51
1, 172108, Poly_aftertouch_c, 0, 51, 28
1, 172116, Note_on_c, 0, 51, 45
1, 172238, Note_off_c, 0, 54, 26
1, 172287, Poly_aftertouch_c, 0, 45, 28
1, 172295, Note_on_c, 0, 45, 43
1, 172332, Control_c, 0, 64, 94
1, 172335, Poly_aftertouch_c, 0, 72, 28
1, 172339, Note_off_c, 0, 68, 60
1, 172343, Note_on_c, 0, 72, 68
1, 172352, Control_c, 0, 64, 72
1, 172364, Poly_aftertouch_c, 0, 60, 28
1, 172367, Control_c, 0, 64, 53
1, 172370, Note_on_c, 0, 60, 34
1, 172386, Note_off_c, 0, 71, 60
1, 172386, Control_c, 0, 64, 36
1, 172406, Control_c, 0, 64, 25
1, 172411, Note_off_c, 0, 51, 37
1, 172518, Control_c, 0, 64, 39
1, 172538, Control_c, 0, 64, 55
1, 172556, Control_c, 0, 64, 71
1, 172567, Poly_aftertouch_c, 0, 54, 28
1, 172574, Control_c, 0, 64, 85
1, 172578, Note_on_c, 0, 54, 45
1, 172593, Control_c, 0, 64, 102
1, 172612, Control_c, 0, 64, 127
1, 172663, Poly_aftertouch_c, 0, 69, 28
1, 172666, Note_on_c, 0, 69, 65
1, 172680, Poly_aftertouch_c, 0, 66, 28
1, 172687, Note_off_c, 0, 72, 49
1, 172687, Note_on_c, 0, 66, 50
1, 172734, Note_off_c, 0, 66, 58
1, 172753, Note_off_c, 0, 60, 38
1, 172774, Note_off_c, 0, 54, 33
1, 172804, Poly_aftertouch_c, 0, 51, 28
1, 172806, Note_on_c, 0, 51, 53
1, 172809, Note_off_c, 0, 45, 30
1, 172851, Note_off_c, 0, 51, 60
1, 173117, Control_c, 0, 64, 114
1, 173135, Control_c, 0, 64, 102
1, 173146, Poly_aftertouch_c, 0, 68, 28
1, 173155, Control_c, 0, 64, 90
1, 173156, Note_on_c, 0, 68, 61
1, 173162, Note_off_c, 0, 69, 53
1, 173167, Poly_aftertouch_c, 0, 64, 28
1, 173170, Note_on_c, 0, 64, 47
1, 173173, Control_c, 0, 64, 76
1, 173175, Poly_aftertouch_c, 0, 40, 28
1, 173184, Note_on_c, 0, 40, 32
1, 173191, Control_c, 0, 64, 62
1, 173211, Control_c, 0, 64, 48
1, 173230, Control_c, 0, 64, 34
1, 173248, Control_c, 0, 64, 20
1, 173266, Control_c, 0, 64, 10
1, 173398, Control_c, 0, 64, 17
1, 173416, Control_c, 0, 64, 29
1, 173435, Control_c, 0, 64, 47
1, 173453, Control_c, 0, 64, 69
1, 173473, Control_c, 0, 64, 89
1, 173492, Control_c, 0, 64, 127
1, 173518, Poly_aftertouch_c, 0, 47, 28
1, 173526, Note_on_c, 0, 47, 40
1, 173698, Note_off_c, 0, 68, 34
1, 173748, Note_off_c, 0, 64, 41
1, 173765, Poly_aftertouch_c, 0, 52, 28
1, 173773, Note_on_c, 0, 52, 34
1, 174069, Poly_aftertouch_c, 0, 59, 28
1, 174070, Poly_aftertouch_c, 0, 71, 28
1, 174074, Note_on_c, 0, 59, 42
1, 174075, Note_on_c, 0, 71, 52
1, 174077, Poly_aftertouch_c, 0, 68, 28
1, 174089, Note_on_c, 0, 68, 35
1, 174127, Control_c, 0, 64, 108
1, 174147, Control_c, 0, 64, 91
1, 174165, Control_c, 0, 64, 74
1, 174183, Control_c, 0, 64, 58
1, 174203, Control_c, 0, 64, 42
1, 174221, Control_c, 0, 64, 31
1, 174240, Control_c, 0, 64, 24
1, 174353, Control_c, 0, 64, 30
1, 174371, Control_c, 0, 64, 36
1, 174390, Control_c, 0, 64, 46
1, 174409, Control_c, 0, 64, 59
1, 174428, Control_c, 0, 64, 67
1, 174446, Control_c, 0, 64, 72
1, 174464, Control_c, 0, 64, 75
1, 174485, Control_c, 0, 64, 77
1, 174502, Control_c, 0, 64, 80
1, 174521, Control_c, 0, 64, 86
1, 174539, Control_c, 0, 64, 95
1, 174558, Control_c, 0, 64, 109
1, 174577, Control_c, 0, 64, 127
1, 174852, Note_off_c, 0, 59, 34
1, 174876, Poly_aftertouch_c, 0, 52, 24
1, 174948, Note_off_c, 0, 71, 36
1, 174952, Note_off_c, 0, 52, 33
1, 175038, Note_off_c, 0, 47, 42
1, 175149, Note_off_c, 0, 40, 39
1, 175184, Note_off_c, 0, 68, 36
1, 175625, Control_c, 0, 67, 8
1, 175662, Control_c, 0, 67, 13
1, 175681, Control_c, 0, 67, 17
1, 175701, Control_c, 0, 67, 21
1, 175718, Control_c, 0, 67, 26
1, 175737, Control_c, 0, 67, 31
1, 175757, Control_c, 0, 67, 35
1, 175793, Control_c, 0, 67, 41
1, 175831, Control_c, 0, 67, 47
1, 175868, Control_c, 0, 67, 51
1, 175929, Poly_aftertouch_c, 0, 33, 28
1, 175935, Note_on_c, 0, 33, 38
1, 176019, Control_c, 0, 64, 98
1, 176033, Poly_aftertouch_c, 0, 72, 28
1, 176037, Control_c, 0, 64, 78
1, 176040, Note_on_c, 0, 72, 53
1, 176044, Poly_aftertouch_c, 0, 69, 28
1, 176045, Note_on_c, 0, 69, 38
1, 176055, Control_c, 0, 64, 59
1, 176074, Control_c, 0, 64, 41
1, 176093, Control_c, 0, 64, 30
1, 176168, Control_c, 0, 64, 34
1, 176187, Control_c, 0, 64, 44
1, 176205, Control_c, 0, 64, 60
1, 176225, Control_c, 0, 64, 73
1, 176242, Control_c, 0, 64, 88
1, 176261, Control_c, 0, 64, 115
1, 176280, Control_c, 0, 64, 127
1, 176355, Note_off_c, 0, 33, 33
1, 176421, Poly_aftertouch_c, 0, 45, 28
1, 176425, Note_off_c, 0, 72, 54
1, 176425, Note_on_c, 0, 45, 48
1, 176429, Note_off_c, 0, 69, 43
1, 176513, Note_off_c, 0, 45, 51
1, 176554, Poly_aftertouch_c, 0, 72, 28
1, 176559, Note_on_c, 0, 72, 76
1, 176570, Note_on_c, 0, 69, 68
1, 176570, Poly_aftertouch_c, 0, 69, 28
1, 176710, Poly_aftertouch_c, 0, 52, 28
1, 176712, Note_on_c, 0, 52, 48
1, 176899, Control_c, 0, 64, 107
1, 176916, Control_c, 0, 64, 77
1, 176925, Poly_aftertouch_c, 0, 45, 28
1, 176926, Note_on_c, 0, 45, 47
1, 176927, Note_off_c, 0, 72, 56
1, 176932, Note_off_c, 0, 69, 56
1, 176933, Poly_aftertouch_c, 0, 73, 28
1, 176933, Poly_aftertouch_c, 0, 76, 28
1, 176935, Control_c, 0, 64, 54
1, 176941, Note_on_c, 0, 73, 67
1, 176942, Note_on_c, 0, 76, 69
1, 176946, Poly_aftertouch_c, 0, 64, 28
1, 176952, Note_on_c, 0, 64, 59
1, 176953, Note_off_c, 0, 52, 34
1, 176954, Control_c, 0, 64, 38
1, 176973, Control_c, 0, 64, 31
1, 177030, Control_c, 0, 64, 36
1, 177047, Control_c, 0, 64, 47
1, 177068, Control_c, 0, 64, 62
1, 177085, Control_c, 0, 64, 74
1, 177105, Control_c, 0, 64, 88
1, 177116, Note_off_c, 0, 64, 60
1, 177121, Control_c, 0, 64, 111
1, 177141, Control_c, 0, 64, 127
1, 177182, Poly_aftertouch_c, 0, 57, 28
1, 177186, Note_on_c, 0, 57, 55
1, 177280, Poly_aftertouch_c, 0, 65, 28
1, 177284, Note_on_c, 0, 65, 72
1, 177285, Note_on_c, 0, 74, 74
1, 177288, Poly_aftertouch_c, 0, 71, 28
1, 177289, Note_off_c, 0, 76, 55
1, 177289, Poly_aftertouch_c, 0, 74, 28
1, 177292, Note_on_c, 0, 71, 70
1, 177336, Note_off_c, 0, 73, 26
1, 177339, Note_off_c, 0, 45, 49
1, 177368, Note_off_c, 0, 65, 58
1, 177388, Poly_aftertouch_c, 0, 50, 28
1, 177398, Note_on_c, 0, 50, 53
1, 177515, Note_off_c, 0, 57, 27
1, 177515, Control_c, 0, 64, 101
1, 177535, Control_c, 0, 64, 73
1, 177554, Control_c, 0, 64, 54
1, 177572, Control_c, 0, 64, 45
1, 177588, Poly_aftertouch_c, 0, 45, 28
1, 177588, Poly_aftertouch_c, 0, 64, 28
1, 177589, Note_on_c, 0, 76, 81
1, 177592, Note_on_c, 0, 45, 58
1, 177592, Note_on_c, 0, 73, 78
1, 177593, Note_on_c, 0, 64, 70
1, 177593, Poly_aftertouch_c, 0, 73, 28
1, 177594, Poly_aftertouch_c, 0, 76, 28
1, 177609, Note_off_c, 0, 71, 50
1, 177612, Control_c, 0, 64, 48
1, 177628, Control_c, 0, 64, 57
1, 177633, Note_off_c, 0, 74, 56
1, 177647, Control_c, 0, 64, 67
1, 177658, Note_off_c, 0, 50, 52
1, 177665, Control_c, 0, 64, 78
1, 177685, Control_c, 0, 64, 92
1, 177699, Note_off_c, 0, 64, 60
1, 177703, Control_c, 0, 64, 114
1, 177721, Control_c, 0, 64, 127
1, 177746, Note_off_c, 0, 76, 62
1, 177759, Control_c, 0, 67, 47
1, 177770, Note_off_c, 0, 73, 62
1, 177804, Poly_aftertouch_c, 0, 57, 28
1, 177807, Note_on_c, 0, 57, 53
1, 177883, Poly_aftertouch_c, 0, 79, 28
1, 177885, Note_on_c, 0, 79, 87
1, 177901, Note_on_c, 0, 69, 74
1, 177901, Poly_aftertouch_c, 0, 69, 28
1, 177954, Note_off_c, 0, 57, 59
1, 177962, Note_off_c, 0, 45, 32
1, 177976, Poly_aftertouch_c, 0, 52, 28
1, 177980, Note_on_c, 0, 52, 60
1, 178017, Note_off_c, 0, 52, 62
1, 178061, Note_off_c, 0, 69, 46
1, 178096, Control_c, 0, 67, 43
1, 178198, Poly_aftertouch_c, 0, 77, 28
1, 178200, Note_on_c, 0, 77, 81
1, 178202, Poly_aftertouch_c, 0, 38, 28
1, 178206, Note_on_c, 0, 38, 68
1, 178208, Control_c, 0, 64, 80
1, 178216, Note_on_c, 0, 69, 70
1, 178217, Poly_aftertouch_c, 0, 69, 28
1, 178217, Poly_aftertouch_c, 0, 74, 28
1, 178220, Note_on_c, 0, 74, 71
1, 178227, Control_c, 0, 64, 54
1, 178246, Control_c, 0, 64, 29
1, 178254, Note_off_c, 0, 79, 57
1, 178265, Control_c, 0, 64, 16
1, 178320, Control_c, 0, 64, 28
1, 178339, Control_c, 0, 64, 47
1, 178359, Control_c, 0, 64, 72
1, 178377, Control_c, 0, 64, 103
1, 178395, Control_c, 0, 64, 127
1, 178397, Control_c, 0, 67, 37
1, 178417, Note_off_c, 0, 69, 46
1, 178420, Note_off_c, 0, 38, 50
1, 178426, Note_off_c, 0, 74, 55
1, 178433, Control_c, 0, 67, 33
1, 178434, Poly_aftertouch_c, 0, 50, 28
1, 178441, Note_on_c, 0, 50, 69
1, 178457, Note_off_c, 0, 77, 61
1, 178536, Poly_aftertouch_c, 0, 77, 28
1, 178538, Note_on_c, 0, 77, 85
1, 178539, Note_off_c, 0, 50, 60
1, 178552, Poly_aftertouch_c, 0, 69, 28
1, 178552, Poly_aftertouch_c, 0, 74, 28
1, 178554, Note_on_c, 0, 69, 80
1, 178555, Note_on_c, 0, 74, 80
1, 178637, Note_off_c, 0, 69, 52
1, 178664, Poly_aftertouch_c, 0, 57, 28
1, 178668, Note_on_c, 0, 57, 72
1, 178678, Note_off_c, 0, 74, 59
1, 178729, Note_off_c, 0, 77, 63
1, 178874, Note_on_c, 0, 81, 85
1, 178875, Poly_aftertouch_c, 0, 81, 28
1, 178878, Poly_aftertouch_c, 0, 51, 28
1, 178880, Poly_aftertouch_c, 0, 78, 28
1, 178884, Note_on_c, 0, 51, 64
1, 178888, Note_on_c, 0, 78, 79
1, 178889, Poly_aftertouch_c, 0, 72, 28
1, 178891, Note_on_c, 0, 72, 76
1, 178902, Control_c, 0, 64, 103
1, 178919, Control_c, 0, 64, 67
1, 178936, Note_off_c, 0, 57, 51
1, 178937, Control_c, 0, 64, 40
1, 178958, Control_c, 0, 64, 23
1, 179014, Control_c, 0, 64, 31
1, 179032, Control_c, 0, 64, 50
1, 179050, Control_c, 0, 64, 73
1, 179070, Control_c, 0, 64, 102
1, 179078, Note_off_c, 0, 72, 51
1, 179088, Control_c, 0, 64, 127
1, 179103, Note_off_c, 0, 78, 64
1, 179120, Poly_aftertouch_c, 0, 60, 28
1, 179122, Note_on_c, 0, 60, 74
1, 179144, Control_c, 0, 67, 37
1, 179209, Poly_aftertouch_c, 0, 80, 28
1, 179215, Poly_aftertouch_c, 0, 77, 28
1, 179217, Note_on_c, 0, 80, 89
1, 179219, Note_on_c, 0, 77, 73
1, 179222, Note_on_c, 0, 71, 81
1, 179223, Poly_aftertouch_c, 0, 71, 28
1, 179267, Note_on_c, 0, 76, 31
1, 179268, Note_off_c, 0, 76, 127
1, 179276, Note_off_c, 0, 81, 61
1, 179358, Note_off_c, 0, 77, 62
1, 179361, Poly_aftertouch_c, 0, 57, 28
1, 179368, Note_on_c, 0, 57, 65
1, 179409, Note_off_c, 0, 51, 36
1, 179418, Note_off_c, 0, 71, 54
1, 179544, Poly_aftertouch_c, 0, 60, 20
1, 179587, Poly_aftertouch_c, 0, 51, 28
1, 179594, Note_on_c, 0, 51, 60
1, 179606, Note_off_c, 0, 60, 19
1, 179702, Poly_aftertouch_c, 0, 81, 28
1, 179704, Note_on_c, 0, 81, 87
1, 179704, Control_c, 0, 64, 82
1, 179708, Poly_aftertouch_c, 0, 78, 28
1, 179713, Note_on_c, 0, 78, 70
1, 179722, Note_off_c, 0, 57, 51
1, 179723, Control_c, 0, 64, 53
1, 179728, Poly_aftertouch_c, 0, 72, 28
1, 179733, Note_on_c, 0, 72, 63
1, 179741, Control_c, 0, 64, 23
1, 179761, Note_off_c, 0, 80, 62
1, 179855, Control_c, 0, 64, 8
1, 179874, Control_c, 0, 64, 19
1, 179895, Control_c, 0, 64, 34
1, 179912, Control_c, 0, 64, 59
1, 179930, Control_c, 0, 64, 81
1, 179931, Note_off_c, 0, 72, 51
1, 179949, Control_c, 0, 64, 119
1, 179968, Control_c, 0, 64, 127
1, 180056, Note_off_c, 0, 78, 37
1, 180080, Poly_aftertouch_c, 0, 60, 28
1, 180084, Note_on_c, 0, 60, 49
1, 180171, Note_off_c, 0, 51, 47
1, 180250, Poly_aftertouch_c, 0, 84, 28
1, 180253, Note_on_c, 0, 84, 80
1, 180264, Note_off_c, 0, 81, 62
1, 180370, Note_off_c, 0, 84, 60
1, 180385, Note_off_c, 0, 60, 34
1, 180462, Poly_aftertouch_c, 0, 57, 28
1, 180469, Note_on_c, 0, 57, 48
1, 180524, Note_off_c, 0, 57, 62
1, 180938, Poly_aftertouch_c, 0, 40, 28
1, 180947, Note_on_c, 0, 40, 42
1, 181027, Poly_aftertouch_c, 0, 79, 28
1, 181031, Note_on_c, 0, 79, 83
1, 181045, Poly_aftertouch_c, 0, 72, 28
1, 181049, Note_on_c, 0, 72, 64
1, 181052, Control_c, 0, 64, 90
1, 181059, Poly_aftertouch_c, 0, 67, 28
1, 181068, Note_on_c, 0, 67, 53
1, 181070, Control_c, 0, 64, 63
1, 181091, Control_c, 0, 64, 36
1, 181110, Control_c, 0, 64, 18
1, 181128, Control_c, 0, 64, 14
1, 181203, Control_c, 0, 64, 26
1, 181223, Control_c, 0, 64, 40
1, 181241, Control_c, 0, 64, 62
1, 181261, Control_c, 0, 64, 83
1, 181278, Control_c, 0, 64, 127
1, 181410, Note_off_c, 0, 40, 34
1, 181412, Note_off_c, 0, 67, 55
1, 181433, Note_off_c, 0, 79, 61
1, 181481, Poly_aftertouch_c, 0, 52, 28
1, 181487, Note_on_c, 0, 52, 48
1, 181488, Note_off_c, 0, 72, 58
1, 181569, Note_off_c, 0, 52, 45
1, 181601, Poly_aftertouch_c, 0, 79, 28
1, 181606, Note_on_c, 0, 79, 81
1, 181631, Poly_aftertouch_c, 0, 67, 28
1, 181637, Poly_aftertouch_c, 0, 72, 28
1, 181639, Note_on_c, 0, 67, 58
1, 181640, Note_on_c, 0, 72, 56
1, 181763, Note_off_c, 0, 67, 58
1, 181783, Poly_aftertouch_c, 0, 55, 28
1, 181789, Note_on_c, 0, 55, 47
1, 181997, Poly_aftertouch_c, 0, 52, 28
1, 182003, Note_on_c, 0, 52, 47
1, 182083, Control_c, 0, 64, 115
1, 182096, Poly_aftertouch_c, 0, 77, 28
1, 182101, Note_on_c, 0, 77, 76
1, 182101, Control_c, 0, 64, 83
1, 182103, Control_c, 0, 67, 41
1, 182107, Note_off_c, 0, 72, 53
1, 182107, Poly_aftertouch_c, 0, 68, 28
1, 182114, Note_on_c, 0, 68, 56
1, 182119, Control_c, 0, 64, 57
1, 182122, Note_off_c, 0, 55, 37
1, 182138, Control_c, 0, 64, 31
1, 182158, Control_c, 0, 64, 14
1, 182196, Control_c, 0, 67, 45
1, 182233, Control_c, 0, 67, 49
1, 182259, Note_off_c, 0, 79, 48
1, 182270, Control_c, 0, 64, 19
1, 182290, Control_c, 0, 64, 26
1, 182291, Control_c, 0, 67, 53
1, 182308, Control_c, 0, 64, 35
1, 182326, Control_c, 0, 64, 48
1, 182345, Control_c, 0, 64, 62
1, 182364, Control_c, 0, 64, 69
1, 182367, Control_c, 0, 67, 57
1, 182382, Control_c, 0, 64, 72
1, 182392, Poly_aftertouch_c, 0, 60, 28
1, 182400, Note_on_c, 0, 60, 49
1, 182401, Control_c, 0, 64, 74
1, 182420, Control_c, 0, 64, 77
1, 182439, Control_c, 0, 64, 82
1, 182458, Control_c, 0, 64, 88
1, 182476, Control_c, 0, 64, 96
1, 182495, Control_c, 0, 64, 105
1, 182505, Poly_aftertouch_c, 0, 76, 28
1, 182508, Note_on_c, 0, 76, 71
1, 182513, Control_c, 0, 64, 116
1, 182520, Note_off_c, 0, 77, 53
1, 182532, Control_c, 0, 64, 127
1, 182601, Note_off_c, 0, 68, 36
1, 182813, Control_c, 0, 64, 101
1, 182832, Control_c, 0, 64, 78
1, 182846, Poly_aftertouch_c, 0, 60, 24
1, 182846, Poly_aftertouch_c, 0, 53, 28
1, 182849, Note_on_c, 0, 53, 40
1, 182849, Poly_aftertouch_c, 0, 74, 28
1, 182849, Control_c, 0, 64, 55
1, 182853, Note_off_c, 0, 52, 45
1, 182853, Note_on_c, 0, 74, 63
1, 182861, Poly_aftertouch_c, 0, 69, 28
1, 182864, Note_on_c, 0, 69, 47
1, 182868, Control_c, 0, 64, 30
1, 182869, Control_c, 0, 67, 62
1, 182881, Note_off_c, 0, 76, 46
1, 182887, Control_c, 0, 64, 13
1, 182888, Control_c, 0, 67, 67
1, 182907, Control_c, 0, 67, 73
1, 182911, Note_off_c, 0, 60, 35
1, 182925, Control_c, 0, 67, 78
1, 182963, Control_c, 0, 67, 84
1, 182982, Control_c, 0, 64, 23
1, 182999, Control_c, 0, 64, 34
1, 183019, Control_c, 0, 64, 53
1, 183037, Control_c, 0, 64, 71
1, 183057, Control_c, 0, 64, 84
1, 183059, Control_c, 0, 67, 88
1, 183075, Control_c, 0, 64, 99
1, 183078, Note_off_c, 0, 74, 60
1, 183095, Control_c, 0, 64, 109
1, 183113, Control_c, 0, 64, 114
1, 183164, Poly_aftertouch_c, 0, 57, 28
1, 183171, Note_on_c, 0, 57, 46
1, 183262, Poly_aftertouch_c, 0, 72, 28
1, 183267, Note_on_c, 0, 72, 67
1, 183279, Note_off_c, 0, 69, 56
1, 183299, Control_c, 0, 64, 110
1, 183362, Note_off_c, 0, 57, 36
1, 183450, Control_c, 0, 64, 106
1, 183843, Control_c, 0, 64, 102
1, 183879, Control_c, 0, 64, 94
1, 183893, Poly_aftertouch_c, 0, 76, 28
1, 183898, Note_on_c, 0, 76, 61
1, 183898, Control_c, 0, 64, 87
1, 183899, Note_off_c, 0, 72, 51
1, 183918, Control_c, 0, 64, 77
1, 183925, Poly_aftertouch_c, 0, 71, 28
1, 183929, Poly_aftertouch_c, 0, 64, 28
1, 183932, Note_on_c, 0, 71, 47
1, 183936, Note_off_c, 0, 53, 39
1, 183938, Note_on_c, 0, 64, 29
1, 183938, Control_c, 0, 64, 64
1, 183942, Poly_aftertouch_c, 0, 68, 28
1, 183947, Poly_aftertouch_c, 0, 52, 28
1, 183953, Note_on_c, 0, 52, 35
1, 183955, Control_c, 0, 64, 49
1, 183961, Note_on_c, 0, 68, 17
1, 183974, Control_c, 0, 64, 33
1, 183993, Control_c, 0, 64, 17
1, 183994, Control_c, 0, 67, 84
1, 184010, Control_c, 0, 64, 10
1, 184104, Control_c, 0, 64, 19
1, 184124, Control_c, 0, 64, 29
1, 184141, Control_c, 0, 64, 45
1, 184161, Control_c, 0, 64, 65
1, 184179, Control_c, 0, 64, 82
1, 184180, Control_c, 0, 67, 80
1, 184198, Control_c, 0, 64, 103
1, 184217, Control_c, 0, 64, 127
1, 184239, Note_off_c, 0, 52, 50
1, 184416, Note_off_c, 0, 68, 43
1, 184570, Poly_aftertouch_c, 0, 52, 28
1, 184578, Note_on_c, 0, 52, 36
1, 184820, Note_off_c, 0, 71, 34
1, 184966, Control_c, 0, 64, 118
1, 184974, Poly_aftertouch_c, 0, 50, 28
1, 184983, Note_on_c, 0, 50, 39
1, 184983, Control_c, 0, 64, 107
1, 184984, Poly_aftertouch_c, 0, 69, 28
1, 184988, Note_on_c, 0, 69, 38
1, 185003, Control_c, 0, 64, 98
1, 185023, Control_c, 0, 64, 88
1, 185041, Control_c, 0, 64, 79
1, 185060, Control_c, 0, 64, 70
1, 185078, Control_c, 0, 64, 63
1, 185097, Control_c, 0, 64, 57
1, 185116, Control_c, 0, 64, 53
1, 185134, Control_c, 0, 64, 50
1, 185153, Control_c, 0, 64, 46
1, 185171, Control_c, 0, 64, 41
1, 185191, Control_c, 0, 64, 35
1, 185208, Control_c, 0, 64, 27
1, 185228, Control_c, 0, 64, 18
1, 185246, Control_c, 0, 64, 11
1, 185339, Control_c, 0, 64, 0
1, 185378, Poly_aftertouch_c, 0, 48, 28
1, 185383, Note_on_c, 0, 48, 38
1, 185439, Note_off_c, 0, 50, 42
1, 185622, Control_c, 0, 67, 84
1, 185741, Poly_aftertouch_c, 0, 47, 28
1, 185750, Note_on_c, 0, 47, 33
1, 185790, Note_off_c, 0, 48, 41
1, 185826, Control_c, 0, 67, 88
1, 185864, Control_c, 0, 67, 92
1, 185901, Control_c, 0, 67, 99
1, 185939, Control_c, 0, 67, 103
1, 185958, Control_c, 0, 67, 107
1, 185976, Control_c, 0, 67, 112
1, 185996, Control_c, 0, 67, 117
1, 186033, Control_c, 0, 67, 122
1, 186166, Poly_aftertouch_c, 0, 45, 28
1, 186171, Note_on_c, 0, 45, 39
1, 186183, Note_off_c, 0, 76, 37
1, 186220, Control_c, 0, 64, 11
1, 186238, Control_c, 0, 64, 19
1, 186239, Note_off_c, 0, 69, 51
1, 186242, Note_off_c, 0, 47, 41
1, 186257, Control_c, 0, 64, 29
1, 186277, Control_c, 0, 64, 46
1, 186294, Control_c, 0, 64, 64
1, 186295, Note_off_c, 0, 64, 58
1, 186314, Control_c, 0, 64, 75
1, 186332, Control_c, 0, 64, 85
1, 186351, Control_c, 0, 64, 94
1, 186370, Control_c, 0, 64, 104
1, 186371, Control_c, 0, 67, 118
1, 186388, Control_c, 0, 64, 115
1, 186407, Note_off_c, 0, 52, 37
1, 186407, Control_c, 0, 64, 127
1, 186670, Control_c, 0, 64, 122
1, 186688, Control_c, 0, 64, 118
1, 186725, Control_c, 0, 64, 114
1, 186757, Note_off_c, 0, 45, 31
1, 186782, Control_c, 0, 64, 108
1, 186818, Control_c, 0, 64, 103
1, 186842, Poly_aftertouch_c, 0, 64, 28
1, 186849, Note_on_c, 0, 64, 47
1, 186853, Poly_aftertouch_c, 0, 59, 28
1, 186859, Note_on_c, 0, 59, 41
1, 186859, Poly_aftertouch_c, 0, 52, 28
1, 186859, Control_c, 0, 64, 96
1, 186864, Note_on_c, 0, 52, 29
1, 186865, Poly_aftertouch_c, 0, 56, 28
1, 186872, Note_on_c, 0, 56, 37
1, 186877, Control_c, 0, 64, 92
1, 186913, Control_c, 0, 64, 84
1, 186932, Control_c, 0, 64, 79
1, 186949, Control_c, 0, 64, 73
1, 186969, Control_c, 0, 64, 67
1, 186987, Control_c, 0, 64, 61
1, 187006, Control_c, 0, 64, 56
1, 187026, Control_c, 0, 64, 52
1, 187043, Control_c, 0, 64, 50
1, 187063, Control_c, 0, 64, 47
1, 187080, Control_c, 0, 64, 42
1, 187100, Control_c, 0, 64, 37
1, 187118, Control_c, 0, 64, 32
1, 187138, Control_c, 0, 64, 28
1, 187175, Control_c, 0, 64, 23
1, 187249, Control_c, 0, 64, 18
1, 187399, Poly_aftertouch_c, 0, 40, 28
1, 187407, Note_on_c, 0, 40, 39
1, 187492, Control_c, 0, 64, 26
1, 187512, Control_c, 0, 64, 33
1, 187530, Control_c, 0, 64, 45
1, 187549, Control_c, 0, 64, 60
1, 187556, Note_off_c, 0, 56, 47
1, 187569, Control_c, 0, 64, 69
1, 187586, Control_c, 0, 64, 74
1, 187605, Control_c, 0, 64, 79
1, 187623, Control_c, 0, 64, 84
1, 187643, Control_c, 0, 64, 90
1, 187661, Control_c, 0, 64, 95
1, 187696, Poly_aftertouch_c, 0, 59, 24
1, 187700, Control_c, 0, 64, 99
1, 187709, Note_off_c, 0, 59, 58
1, 188016, Control_c, 0, 64, 95
1, 188091, Control_c, 0, 64, 91
1, 188129, Control_c, 0, 64, 86
1, 188136, Poly_aftertouch_c, 0, 57, 28
1, 188145, Note_on_c, 0, 57, 41
1, 188147, Control_c, 0, 64, 83
1, 188166, Control_c, 0, 64, 79
1, 188167, Poly_aftertouch_c, 0, 38, 28
1, 188177, Note_on_c, 0, 38, 23
1, 188183, Control_c, 0, 64, 76
1, 188206, Control_c, 0, 64, 71
1, 188222, Control_c, 0, 64, 65
1, 188242, Control_c, 0, 64, 60
1, 188260, Control_c, 0, 64, 56
1, 188279, Control_c, 0, 64, 51
1, 188297, Control_c, 0, 64, 47
1, 188301, Note_off_c, 0, 40, 42
1, 188316, Control_c, 0, 64, 44
1, 188336, Control_c, 0, 64, 40
1, 188353, Control_c, 0, 64, 34
1, 188391, Control_c, 0, 64, 28
1, 188429, Control_c, 0, 64, 24
1, 188484, Control_c, 0, 64, 20
1, 188578, Control_c, 0, 67, 122
1, 188839, Poly_aftertouch_c, 0, 36, 28
1, 188848, Note_on_c, 0, 36, 32
1, 188860, Control_c, 0, 67, 126
1, 189008, Note_off_c, 0, 38, 45
1, 189346, Control_c, 0, 67, 122
1, 189829, Poly_aftertouch_c, 0, 35, 28
1, 189834, Note_on_c, 0, 35, 32
1, 189918, Note_off_c, 0, 36, 41
1, 191447, Poly_aftertouch_c, 0, 33, 28
1, 191454, Note_on_c, 0, 33, 21
1, 191625, Note_off_c, 0, 35, 39
1, 192060, Control_c, 0, 64, 25
1, 192116, Control_c, 0, 64, 30
1, 192154, Control_c, 0, 64, 34
1, 192191, Control_c, 0, 64, 43
1, 192209, Control_c, 0, 64, 49
1, 192228, Control_c, 0, 64, 54
1, 192247, Control_c, 0, 64, 56
1, 192285, Control_c, 0, 64, 58
1, 192303, Control_c, 0, 64, 60
1, 192322, Control_c, 0, 64, 62
1, 192341, Control_c, 0, 64, 65
1, 192359, Control_c, 0, 64, 69
1, 192378, Control_c, 0, 64, 73
1, 192396, Control_c, 0, 64, 79
1, 192416, Control_c, 0, 64, 89
1, 192435, Control_c, 0, 64, 105
1, 192452, Poly_aftertouch_c, 0, 52, 24
1, 192452, Control_c, 0, 64, 127
1, 192616, Note_off_c, 0, 52, 20
1, 192762, Note_off_c, 0, 33, 29
1, 192941, Note_off_c, 0, 57, 30
1, 193068, Note_off_c, 0, 64, 30
1, 193838, Control_c, 0, 67, 126
1, 194681, Control_c, 0, 64, 119
1, 194699, Control_c, 0, 64, 115
1, 194719, Control_c, 0, 64, 111
1, 194736, Control_c, 0, 64, 106
1, 194756, Control_c, 0, 64, 102
1, 194793, Control_c, 0, 64, 96
1, 194831, Control_c, 0, 64, 91
1, 194867, Control_c, 0, 64, 88
1, 194904, Control_c, 0, 64, 85
1, 194940, Poly_aftertouch_c, 0, 76, 28
1, 194942, Control_c, 0, 64, 80
1, 194946, Note_on_c, 0, 76, 41
1, 194954, Poly_aftertouch_c, 0, 68, 28
1, 194961, Control_c, 0, 64, 76
1, 194963, Poly_aftertouch_c, 0, 64, 28
1, 194967, Note_on_c, 0, 68, 29
1, 194971, Note_on_c, 0, 64, 31
1, 194978, Control_c, 0, 64, 70
1, 194999, Control_c, 0, 64, 64
1, 195017, Control_c, 0, 64, 57
1, 195036, Control_c, 0, 64, 51
1, 195054, Control_c, 0, 64, 43
1, 195074, Control_c, 0, 64, 33
1, 195093, Control_c, 0, 64, 25
1, 195111, Control_c, 0, 64, 20
1, 195223, Control_c, 0, 64, 25
1, 195242, Control_c, 0, 64, 33
1, 195260, Control_c, 0, 64, 43
1, 195280, Control_c, 0, 64, 59
1, 195299, Control_c, 0, 64, 70
1, 195317, Control_c, 0, 64, 80
1, 195336, Note_off_c, 0, 64, 50
1, 195336, Control_c, 0, 64, 90
1, 195355, Control_c, 0, 64, 101
1, 195373, Control_c, 0, 64, 119
1, 195391, Control_c, 0, 64, 127
1, 195449, Poly_aftertouch_c, 0, 88, 28
1, 195455, Note_on_c, 0, 88, 49
1, 195756, Note_off_c, 0, 88, 57
1, 195760, Note_off_c, 0, 76, 35
1, 195772, Poly_aftertouch_c, 0, 86, 28
1, 195781, Note_on_c, 0, 86, 55
1, 195785, Control_c, 0, 64, 118
1, 195791, Poly_aftertouch_c, 0, 65, 28
1, 195792, Poly_aftertouch_c, 0, 69, 28
1, 195796, Note_on_c, 0, 69, 37
1, 195798, Note_on_c, 0, 65, 39
1, 195804, Control_c, 0, 64, 96
1, 195822, Control_c, 0, 64, 78
1, 195823, Note_off_c, 0, 68, 37
1, 195842, Control_c, 0, 64, 63
1, 195860, Control_c, 0, 64, 51
1, 195879, Control_c, 0, 64, 45
1, 195898, Control_c, 0, 64, 43
1, 195954, Control_c, 0, 64, 46
1, 195972, Control_c, 0, 64, 51
1, 195991, Control_c, 0, 64, 57
1, 196010, Control_c, 0, 64, 62
1, 196029, Control_c, 0, 64, 67
1, 196036, Poly_aftertouch_c, 0, 74, 28
1, 196041, Note_on_c, 0, 74, 48
1, 196047, Control_c, 0, 64, 73
1, 196066, Control_c, 0, 64, 82
1, 196072, Note_off_c, 0, 74, 58
1, 196084, Control_c, 0, 64, 96
1, 196103, Control_c, 0, 64, 127
1, 196215, Control_c, 0, 64, 99
1, 196227, Note_off_c, 0, 86, 59
1, 196235, Poly_aftertouch_c, 0, 62, 28
1, 196235, Control_c, 0, 64, 82
1, 196236, Poly_aftertouch_c, 0, 77, 28
1, 196239, Note_on_c, 0, 77, 61
1, 196241, Note_on_c, 0, 62, 38
1, 196254, Control_c, 0, 64, 70
1, 196272, Control_c, 0, 64, 66
1, 196290, Control_c, 0, 64, 68
1, 196309, Control_c, 0, 64, 72
1, 196327, Control_c, 0, 64, 77
1, 196347, Control_c, 0, 64, 85
1, 196351, Note_off_c, 0, 69, 35
1, 196366, Control_c, 0, 64, 98
1, 196383, Control_c, 0, 64, 127
1, 196406, Note_off_c, 0, 77, 57
1, 196420, Poly_aftertouch_c, 0, 89, 28
1, 196425, Note_on_c, 0, 89, 55
1, 196529, Poly_aftertouch_c, 0, 62, 24
1, 196533, Control_c, 0, 64, 118
1, 196552, Control_c, 0, 64, 86
1, 196565, Note_off_c, 0, 62, 42
1, 196568, Note_off_c, 0, 89, 59
1, 196570, Control_c, 0, 64, 65
1, 196575, Poly_aftertouch_c, 0, 64, 28
1, 196577, Note_off_c, 0, 65, 35
1, 196578, Poly_aftertouch_c, 0, 68, 28
1, 196585, Note_on_c, 0, 64, 40
1, 196585, Poly_aftertouch_c, 0, 88, 28
1, 196588, Note_on_c, 0, 68, 41
1, 196588, Note_on_c, 0, 88, 59
1, 196588, Control_c, 0, 64, 55
1, 196628, Control_c, 0, 64, 59
1, 196646, Control_c, 0, 64, 64
1, 196665, Control_c, 0, 64, 72
1, 196684, Control_c, 0, 64, 82
1, 196703, Control_c, 0, 64, 100
1, 196720, Control_c, 0, 64, 127
1, 196727, Note_off_c, 0, 88, 59
1, 196743, Poly_aftertouch_c, 0, 76, 28
1, 196747, Note_on_c, 0, 76, 61
1, 196786, Note_off_c, 0, 76, 65
1, 196851, Control_c, 0, 64, 116
1, 196853, Note_off_c, 0, 64, 53
1, 196871, Control_c, 0, 64, 85
1, 196882, Note_on_c, 0, 74, 64
1, 196882, Poly_aftertouch_c, 0, 74, 28
1, 196887, Poly_aftertouch_c, 0, 65, 28
1, 196890, Control_c, 0, 64, 64
1, 196893, Note_off_c, 0, 68, 44
1, 196893, Poly_aftertouch_c, 0, 69, 28
1, 196897, Note_on_c, 0, 69, 43
1, 196898, Note_on_c, 0, 65, 39
1, 196908, Control_c, 0, 64, 53
1, 196945, Control_c, 0, 64, 57
1, 196965, Control_c, 0, 64, 63
1, 196982, Control_c, 0, 64, 71
1, 196990, Note_off_c, 0, 74, 57
1, 197002, Control_c, 0, 64, 82
1, 197017, Poly_aftertouch_c, 0, 86, 28
1, 197019, Control_c, 0, 64, 100
1, 197025, Note_on_c, 0, 86, 63
1, 197039, Control_c, 0, 64, 127
1, 197114, Control_c, 0, 64, 111
1, 197133, Control_c, 0, 64, 83
1, 197152, Control_c, 0, 64, 65
1, 197156, Note_off_c, 0, 69, 54
1, 197156, Note_off_c, 0, 86, 59
1, 197164, Poly_aftertouch_c, 0, 62, 28
1, 197171, Note_on_c, 0, 62, 44
1, 197171, Poly_aftertouch_c, 0, 84, 28
1, 197171, Control_c, 0, 64, 60
1, 197176, Note_on_c, 0, 84, 67
1, 197189, Control_c, 0, 64, 62
1, 197208, Control_c, 0, 64, 68
1, 197227, Control_c, 0, 64, 77
1, 197246, Control_c, 0, 64, 94
1, 197263, Control_c, 0, 64, 127
1, 197288, Note_off_c, 0, 84, 60
1, 197322, Note_on_c, 0, 72, 63
1, 197323, Poly_aftertouch_c, 0, 72, 28
1, 197355, Note_off_c, 0, 72, 66
1, 197417, Note_off_c, 0, 62, 42
1, 197432, Control_c, 0, 64, 116
1, 197438, Poly_aftertouch_c, 0, 68, 28
1, 197444, Note_off_c, 0, 65, 39
1, 197449, Note_on_c, 0, 68, 50
1, 197449, Poly_aftertouch_c, 0, 64, 28
1, 197449, Control_c, 0, 64, 83
1, 197451, Note_on_c, 0, 71, 68
1, 197451, Poly_aftertouch_c, 0, 71, 28
1, 197456, Note_on_c, 0, 64, 43
1, 197469, Control_c, 0, 64, 63
1, 197489, Control_c, 0, 64, 52
1, 197526, Control_c, 0, 64, 58
1, 197544, Control_c, 0, 64, 64
1, 197552, Note_off_c, 0, 71, 55
1, 197564, Control_c, 0, 64, 74
1, 197579, Poly_aftertouch_c, 0, 83, 28
1, 197581, Note_on_c, 0, 83, 62
1, 197581, Control_c, 0, 64, 87
1, 197600, Control_c, 0, 64, 127
1, 197667, Note_off_c, 0, 83, 60
1, 197712, Note_off_c, 0, 64, 56
1, 197712, Control_c, 0, 64, 86
1, 197727, Poly_aftertouch_c, 0, 86, 28
1, 197731, Control_c, 0, 64, 65
1, 197734, Note_on_c, 0, 86, 63
1, 197739, Note_on_c, 0, 69, 48
1, 197739, Poly_aftertouch_c, 0, 65, 28
1, 197739, Poly_aftertouch_c, 0, 69, 28
1, 197742, Note_on_c, 0, 65, 43
1, 197749, Note_off_c, 0, 68, 43
1, 197750, Control_c, 0, 64, 52
1, 197770, Control_c, 0, 64, 49
1, 197787, Control_c, 0, 64, 53
1, 197807, Control_c, 0, 64, 61
1, 197825, Control_c, 0, 64, 69
1, 197833, Note_off_c, 0, 86, 58
1, 197844, Control_c, 0, 64, 80
1, 197853, Poly_aftertouch_c, 0, 74, 28
1, 197858, Note_on_c, 0, 74, 66
1, 197861, Control_c, 0, 64, 100
1, 197883, Control_c, 0, 64, 127
1, 197895, Note_off_c, 0, 74, 64
1, 197975, Control_c, 0, 64, 93
1, 197979, Note_off_c, 0, 69, 49
1, 197988, Poly_aftertouch_c, 0, 62, 28
1, 197992, Note_on_c, 0, 62, 48
1, 197992, Control_c, 0, 64, 69
1, 198005, Note_on_c, 0, 72, 60
1, 198005, Poly_aftertouch_c, 0, 72, 28
1, 198010, Control_c, 0, 64, 54
1, 198032, Control_c, 0, 64, 50
1, 198049, Control_c, 0, 64, 53
1, 198068, Control_c, 0, 64, 61
1, 198088, Control_c, 0, 64, 70
1, 198101, Note_off_c, 0, 72, 58
1, 198105, Control_c, 0, 64, 82
1, 198125, Control_c, 0, 64, 105
1, 198127, Poly_aftertouch_c, 0, 84, 28
1, 198134, Note_on_c, 0, 84, 61
1, 198145, Control_c, 0, 64, 127
1, 198255, Control_c, 0, 64, 94
1, 198259, Note_off_c, 0, 65, 51
1, 198266, Note_off_c, 0, 84, 58
1, 198271, Poly_aftertouch_c, 0, 68, 28
1, 198274, Control_c, 0, 64, 70
1, 198275, Note_off_c, 0, 62, 41
1, 198275, Poly_aftertouch_c, 0, 64, 28
1, 198281, Note_on_c, 0, 68, 44
1, 198282, Note_on_c, 0, 64, 44
1, 198288, Poly_aftertouch_c, 0, 83, 28
1, 198292, Note_on_c, 0, 83, 56
1, 198293, Control_c, 0, 64, 51
1, 198312, Control_c, 0, 64, 38
1, 198330, Control_c, 0, 64, 33
1, 198387, Control_c, 0, 64, 43
1, 198405, Control_c, 0, 64, 56
1, 198425, Control_c, 0, 64, 67
1, 198443, Control_c, 0, 64, 76
1, 198447, Note_off_c, 0, 83, 56
1, 198451, Poly_aftertouch_c, 0, 71, 28
1, 198458, Note_on_c, 0, 71, 47
1, 198460, Control_c, 0, 64, 87
1, 198480, Control_c, 0, 64, 104
1, 198499, Control_c, 0, 64, 127
1, 198550, Note_off_c, 0, 71, 60
1, 198639, Note_off_c, 0, 64, 50
1, 198645, Poly_aftertouch_c, 0, 69, 28
1, 198649, Note_on_c, 0, 69, 42
1, 198654, Poly_aftertouch_c, 0, 65, 28
1, 198662, Note_on_c, 0, 65, 42
1, 198692, Note_off_c, 0, 68, 33
1, 198705, Control_c, 0, 64, 109
1, 198724, Control_c, 0, 64, 97
1, 198743, Control_c, 0, 64, 87
1, 198761, Control_c, 0, 64, 76
1, 198780, Control_c, 0, 64, 67
1, 198798, Control_c, 0, 64, 59
1, 198817, Control_c, 0, 64, 51
1, 198828, Poly_aftertouch_c, 0, 81, 28
1, 198833, Note_on_c, 0, 81, 52
1, 198835, Control_c, 0, 64, 42
1, 198854, Control_c, 0, 64, 34
1, 198875, Control_c, 0, 64, 28
1, 198987, Control_c, 0, 64, 39
1, 199005, Control_c, 0, 64, 51
1, 199023, Control_c, 0, 64, 64
1, 199043, Control_c, 0, 64, 75
1, 199047, Poly_aftertouch_c, 0, 62, 28
1, 199055, Note_on_c, 0, 62, 28
1, 199061, Control_c, 0, 64, 85
1, 199079, Control_c, 0, 64, 99
1, 199099, Control_c, 0, 64, 127
1, 199116, Note_off_c, 0, 65, 59
1, 199229, Control_c, 0, 67, 121
1, 199240, Note_off_c, 0, 62, 38
1, 199286, Control_c, 0, 67, 117
1, 199668, Poly_aftertouch_c, 0, 63, 28
1, 199673, Note_on_c, 0, 63, 52
1, 199690, Poly_aftertouch_c, 0, 59, 28
1, 199695, Note_on_c, 0, 59, 36
1, 199716, Control_c, 0, 64, 106
1, 199734, Control_c, 0, 64, 89
1, 199754, Control_c, 0, 64, 72
1, 199772, Control_c, 0, 64, 57
1, 199790, Control_c, 0, 64, 44
1, 199811, Control_c, 0, 64, 38
1, 199884, Control_c, 0, 64, 41
1, 199904, Control_c, 0, 64, 50
1, 199922, Control_c, 0, 64, 61
1, 199941, Control_c, 0, 64, 69
1, 199959, Control_c, 0, 64, 78
1, 199979, Control_c, 0, 64, 89
1, 199997, Control_c, 0, 64, 107
1, 200015, Control_c, 0, 64, 127
1, 200070, Note_off_c, 0, 69, 42
1, 200362, Note_off_c, 0, 81, 52
1, 200366, Poly_aftertouch_c, 0, 59, 24
1, 200392, Poly_aftertouch_c, 0, 69, 28
1, 200401, Note_on_c, 0, 69, 38
1, 200402, Poly_aftertouch_c, 0, 64, 28
1, 200408, Note_on_c, 0, 64, 33
1, 200416, Note_off_c, 0, 59, 37
1, 200426, Poly_aftertouch_c, 0, 60, 28
1, 200434, Note_on_c, 0, 60, 36
1, 200447, Control_c, 0, 64, 110
1, 200465, Control_c, 0, 64, 97
1, 200484, Control_c, 0, 64, 84
1, 200502, Control_c, 0, 64, 73
1, 200520, Note_off_c, 0, 63, 34
1, 200520, Control_c, 0, 64, 64
1, 200540, Control_c, 0, 64, 57
1, 200558, Control_c, 0, 64, 52
1, 200578, Control_c, 0, 64, 48
1, 200595, Control_c, 0, 64, 44
1, 200609, Poly_aftertouch_c, 0, 81, 28
1, 200615, Note_on_c, 0, 81, 47
1, 200615, Control_c, 0, 64, 40
1, 200652, Control_c, 0, 64, 35
1, 200778, Poly_aftertouch_c, 0, 57, 28
1, 200783, Note_on_c, 0, 57, 40
1, 200783, Control_c, 0, 64, 41
1, 200801, Control_c, 0, 64, 50
1, 200820, Control_c, 0, 64, 60
1, 200840, Control_c, 0, 64, 68
1, 200857, Control_c, 0, 64, 74
1, 200876, Control_c, 0, 64, 82
1, 200895, Control_c, 0, 64, 94
1, 200915, Control_c, 0, 64, 114
1, 200932, Control_c, 0, 64, 127
1, 201101, Control_c, 0, 64, 111
1, 201106, Poly_aftertouch_c, 0, 63, 28
1, 201113, Note_off_c, 0, 64, 36
1, 201113, Note_on_c, 0, 63, 53
1, 201120, Control_c, 0, 64, 82
1, 201131, Note_on_c, 0, 59, 38
1, 201131, Poly_aftertouch_c, 0, 59, 28
1, 201132, Note_off_c, 0, 60, 40
1, 201136, Note_off_c, 0, 57, 41
1, 201137, Control_c, 0, 64, 61
1, 201157, Control_c, 0, 64, 47
1, 201177, Control_c, 0, 64, 41
1, 201214, Control_c, 0, 64, 45
1, 201232, Control_c, 0, 64, 53
1, 201251, Control_c, 0, 64, 64
1, 201269, Control_c, 0, 64, 73
1, 201289, Control_c, 0, 64, 85
1, 201308, Control_c, 0, 64, 107
1, 201320, Note_off_c, 0, 81, 50
1, 201325, Control_c, 0, 64, 127
1, 201353, Note_off_c, 0, 69, 55
1, 201577, Poly_aftertouch_c, 0, 67, 28
1, 201582, Note_on_c, 0, 67, 55
1, 201583, Poly_aftertouch_c, 0, 64, 28
1, 201591, Note_on_c, 0, 64, 35
1, 201610, Poly_aftertouch_c, 0, 60, 28
1, 201617, Note_on_c, 0, 60, 36
1, 201625, Control_c, 0, 64, 102
1, 201644, Control_c, 0, 64, 79
1, 201646, Note_off_c, 0, 59, 31
1, 201662, Control_c, 0, 64, 62
1, 201682, Control_c, 0, 64, 49
1, 201687, Note_off_c, 0, 63, 37
1, 201700, Control_c, 0, 64, 44
1, 201775, Control_c, 0, 64, 46
1, 201793, Control_c, 0, 64, 50
1, 201812, Control_c, 0, 64, 55
1, 201814, Poly_aftertouch_c, 0, 79, 28
1, 201823, Note_on_c, 0, 79, 49
1, 201832, Control_c, 0, 64, 59
1, 201851, Control_c, 0, 64, 62
1, 201868, Control_c, 0, 64, 66
1, 201888, Control_c, 0, 64, 69
1, 201903, Note_off_c, 0, 67, 59
1, 201906, Control_c, 0, 64, 74
1, 201925, Control_c, 0, 64, 80
1, 201943, Control_c, 0, 64, 90
1, 201962, Control_c, 0, 64, 105
1, 201981, Control_c, 0, 64, 127
1, 202009, Note_off_c, 0, 79, 62
1, 202014, Poly_aftertouch_c, 0, 78, 28
1, 202018, Poly_aftertouch_c, 0, 57, 28
1, 202023, Note_on_c, 0, 78, 64
1, 202025, Note_on_c, 0, 57, 37
1, 202106, Note_off_c, 0, 64, 40
1, 202166, Poly_aftertouch_c, 0, 66, 28
1, 202173, Note_on_c, 0, 66, 58
1, 202216, Note_off_c, 0, 66, 66
1, 202267, Note_off_c, 0, 78, 60
1, 202303, Poly_aftertouch_c, 0, 57, 24
1, 202336, Control_c, 0, 64, 89
1, 202348, Note_off_c, 0, 57, 39
1, 202348, Note_off_c, 0, 60, 40
1, 202348, Poly_aftertouch_c, 0, 59, 28
1, 202348, Poly_aftertouch_c, 0, 63, 28
1, 202352, Note_on_c, 0, 59, 45
1, 202352, Poly_aftertouch_c, 0, 71, 28
1, 202354, Note_on_c, 0, 63, 46
1, 202355, Control_c, 0, 64, 67
1, 202358, Note_on_c, 0, 71, 58
1, 202374, Control_c, 0, 64, 53
1, 202393, Control_c, 0, 64, 47
1, 202430, Control_c, 0, 64, 52
1, 202450, Control_c, 0, 64, 59
1, 202468, Control_c, 0, 64, 64
1, 202486, Control_c, 0, 64, 71
1, 202505, Poly_aftertouch_c, 0, 83, 28
1, 202505, Control_c, 0, 64, 80
1, 202509, Note_off_c, 0, 71, 56
1, 202512, Note_on_c, 0, 83, 57
1, 202524, Control_c, 0, 64, 96
1, 202542, Control_c, 0, 64, 127
1, 202617, Control_c, 0, 64, 98
1, 202634, Note_off_c, 0, 59, 53
1, 202635, Note_off_c, 0, 83, 61
1, 202636, Control_c, 0, 64, 76
1, 202655, Control_c, 0, 64, 62
1, 202663, Poly_aftertouch_c, 0, 60, 28
1, 202664, Poly_aftertouch_c, 0, 64, 28
1, 202667, Note_on_c, 0, 60, 46
1, 202668, Note_on_c, 0, 81, 58
1, 202670, Note_on_c, 0, 64, 40
1, 202670, Poly_aftertouch_c, 0, 81, 28
1, 202671, Note_off_c, 0, 63, 49
1, 202674, Control_c, 0, 64, 61
1, 202692, Control_c, 0, 64, 65
1, 202711, Control_c, 0, 64, 72
1, 202731, Control_c, 0, 64, 83
1, 202748, Control_c, 0, 64, 108
1, 202760, Note_off_c, 0, 81, 59
1, 202766, Control_c, 0, 64, 127
1, 202797, Poly_aftertouch_c, 0, 69, 28
1, 202802, Note_on_c, 0, 69, 61
1, 202838, Note_off_c, 0, 69, 63
1, 202881, Control_c, 0, 64, 108
1, 202898, Control_c, 0, 64, 84
1, 202913, Note_off_c, 0, 64, 51
1, 202916, Control_c, 0, 64, 69
1, 202934, Poly_aftertouch_c, 0, 67, 28
1, 202934, Control_c, 0, 64, 62
1, 202938, Poly_aftertouch_c, 0, 57, 28
1, 202941, Note_on_c, 0, 67, 61
1, 202943, Note_on_c, 0, 57, 43
1, 202956, Control_c, 0, 64, 64
1, 202973, Control_c, 0, 64, 69
1, 202992, Control_c, 0, 64, 77
1, 203010, Control_c, 0, 64, 92
1, 203018, Note_off_c, 0, 67, 57
1, 203029, Control_c, 0, 64, 127
1, 203045, Poly_aftertouch_c, 0, 79, 28
1, 203051, Note_on_c, 0, 79, 67
1, 203105, Control_c, 0, 64, 115
1, 203123, Control_c, 0, 64, 82
1, 203141, Control_c, 0, 64, 62
1, 203150, Note_off_c, 0, 79, 60
1, 203157, Note_off_c, 0, 60, 56
1, 203160, Control_c, 0, 64, 51
1, 203161, Note_off_c, 0, 57, 53
1, 203191, Poly_aftertouch_c, 0, 63, 28
1, 203197, Control_c, 0, 64, 58
1, 203199, Note_on_c, 0, 63, 52
1, 203199, Poly_aftertouch_c, 0, 78, 28
1, 203204, Note_on_c, 0, 59, 42
1, 203204, Poly_aftertouch_c, 0, 59, 28
1, 203206, Note_on_c, 0, 78, 65
1, 203216, Control_c, 0, 64, 66
1, 203235, Control_c, 0, 64, 78
1, 203254, Control_c, 0, 64, 99
1, 203272, Control_c, 0, 64, 127
1, 203304, Note_off_c, 0, 78, 62
1, 203340, Poly_aftertouch_c, 0, 66, 28
1, 203343, Note_on_c, 0, 66, 71
1, 203385, Note_off_c, 0, 66, 64
1, 203403, Control_c, 0, 64, 91
1, 203416, Note_off_c, 0, 59, 51
1, 203424, Control_c, 0, 64, 70
1, 203441, Control_c, 0, 64, 59
1, 203456, Note_off_c, 0, 63, 60
1, 203470, Poly_aftertouch_c, 0, 60, 28
1, 203472, Note_on_c, 0, 60, 56
1, 203475, Poly_aftertouch_c, 0, 64, 28
1, 203476, Control_c, 0, 64, 64
1, 203478, Note_on_c, 0, 69, 70
1, 203478, Poly_aftertouch_c, 0, 69, 28
1, 203482, Note_on_c, 0, 64, 50
1, 203498, Control_c, 0, 64, 71
1, 203516, Control_c, 0, 64, 81
1, 203530, Note_off_c, 0, 64, 65
1, 203533, Control_c, 0, 64, 104
1, 203553, Control_c, 0, 64, 127
1, 203576, Note_off_c, 0, 69, 48
1, 203590, Poly_aftertouch_c, 0, 81, 28
1, 203594, Note_on_c, 0, 81, 74
1, 203625, Note_off_c, 0, 81, 61
1, 203647, Control_c, 0, 64, 116
1, 203665, Control_c, 0, 64, 86
1, 203684, Control_c, 0, 64, 69
1, 203704, Control_c, 0, 64, 62
1, 203716, Note_off_c, 0, 60, 57
1, 203722, Control_c, 0, 64, 64
1, 203725, Poly_aftertouch_c, 0, 57, 28
1, 203727, Poly_aftertouch_c, 0, 66, 28
1, 203730, Note_on_c, 0, 57, 59
1, 203732, Note_on_c, 0, 66, 60
1, 203738, Poly_aftertouch_c, 0, 84, 28
1, 203740, Control_c, 0, 64, 70
1, 203745, Note_on_c, 0, 84, 62
1, 203758, Control_c, 0, 64, 80
1, 203775, Note_off_c, 0, 57, 65
1, 203779, Note_on_c, 0, 83, 39
1, 203779, Control_c, 0, 64, 102
1, 203796, Control_c, 0, 64, 127
1, 203816, Note_off_c, 0, 66, 58
1, 203817, Note_off_c, 0, 83, 34
1, 203817, Poly_aftertouch_c, 0, 83, 28
1, 203826, Note_off_c, 0, 84, 63
1, 203861, Poly_aftertouch_c, 0, 72, 28
1, 203864, Note_on_c, 0, 72, 68
1, 203896, Note_off_c, 0, 72, 63
1, 203946, Control_c, 0, 64, 122
1, 203967, Control_c, 0, 64, 84
1, 203984, Poly_aftertouch_c, 0, 68, 28
1, 203984, Control_c, 0, 64, 63
1, 203990, Note_on_c, 0, 68, 58
1, 203993, Poly_aftertouch_c, 0, 71, 28
1, 203998, Note_on_c, 0, 71, 77
1, 204000, Poly_aftertouch_c, 0, 64, 28
1, 204001, Note_on_c, 0, 64, 62
1, 204001, Control_c, 0, 64, 55
1, 204021, Control_c, 0, 64, 57
1, 204039, Control_c, 0, 64, 64
1, 204059, Control_c, 0, 64, 73
1, 204074, Note_off_c, 0, 71, 56
1, 204077, Control_c, 0, 64, 91
1, 204097, Control_c, 0, 64, 127
1, 204118, Poly_aftertouch_c, 0, 83, 28
1, 204120, Note_on_c, 0, 83, 75
1, 204172, Control_c, 0, 64, 101
1, 204176, Note_off_c, 0, 83, 58
1, 204190, Control_c, 0, 64, 74
1, 204208, Control_c, 0, 64, 56
1, 204216, Note_off_c, 0, 64, 57
1, 204227, Control_c, 0, 64, 49
1, 204241, Note_off_c, 0, 68, 56
1, 204241, Poly_aftertouch_c, 0, 65, 28
1, 204245, Note_on_c, 0, 65, 60
1, 204249, Note_on_c, 0, 69, 58
1, 204249, Poly_aftertouch_c, 0, 69, 28
1, 204250, Poly_aftertouch_c, 0, 86, 28
1, 204254, Note_on_c, 0, 86, 81
1, 204264, Control_c, 0, 64, 57
1, 204283, Control_c, 0, 64, 66
1, 204302, Control_c, 0, 64, 76
1, 204321, Control_c, 0, 64, 96
1, 204339, Control_c, 0, 64, 127
1, 204346, Note_off_c, 0, 86, 63
1, 204366, Poly_aftertouch_c, 0, 74, 28
1, 204368, Note_on_c, 0, 74, 80
1, 204418, Note_off_c, 0, 74, 57
1, 204489, Control_c, 0, 64, 103
1, 204490, Note_off_c, 0, 69, 53
1, 204498, Poly_aftertouch_c, 0, 62, 28
1, 204504, Note_on_c, 0, 62, 58
1, 204506, Poly_aftertouch_c, 0, 77, 28
1, 204508, Control_c, 0, 64, 76
1, 204509, Note_on_c, 0, 77, 80
1, 204527, Control_c, 0, 64, 58
1, 204545, Control_c, 0, 64, 54
1, 204564, Control_c, 0, 64, 58
1, 204583, Control_c, 0, 64, 65
1, 204601, Control_c, 0, 64, 77
1, 204621, Control_c, 0, 64, 102
1, 204626, Note_off_c, 0, 77, 58
1, 204627, Poly_aftertouch_c, 0, 89, 28
1, 204630, Note_on_c, 0, 89, 78
1, 204639, Control_c, 0, 64, 127
1, 204695, Control_c, 0, 64, 122
1, 204714, Control_c, 0, 64, 83
1, 204732, Control_c, 0, 64, 61
1, 204740, Note_off_c, 0, 65, 53
1, 204744, Note_off_c, 0, 62, 57
1, 204751, Control_c, 0, 64, 47
1, 204758, Poly_aftertouch_c, 0, 68, 28
1, 204764, Note_on_c, 0, 68, 61
1, 204768, Poly_aftertouch_c, 0, 64, 28
1, 204771, Poly_aftertouch_c, 0, 88, 28
1, 204772, Note_off_c, 0, 89, 61
1, 204775, Note_on_c, 0, 88, 76
1, 204776, Note_on_c, 0, 64, 54
1, 204790, Control_c, 0, 64, 56
1, 204807, Control_c, 0, 64, 67
1, 204826, Control_c, 0, 64, 84
1, 204845, Control_c, 0, 64, 127
1, 204846, Control_c, 0, 67, 111
1, 204864, Control_c, 0, 67, 107
1, 204884, Poly_aftertouch_c, 0, 76, 28
1, 204891, Note_on_c, 0, 76, 72
1, 204895, Note_off_c, 0, 88, 62
1, 204900, Control_c, 0, 67, 101
1, 204951, Note_off_c, 0, 76, 60
1, 204956, Control_c, 0, 64, 113
1, 204976, Control_c, 0, 64, 83
1, 204995, Control_c, 0, 64, 65
1, 204996, Note_off_c, 0, 64, 59
1, 205010, Poly_aftertouch_c, 0, 69, 28
1, 205012, Control_c, 0, 64, 61
1, 205013, Note_on_c, 0, 69, 63
1, 205015, Poly_aftertouch_c, 0, 65, 28
1, 205020, Note_on_c, 0, 65, 57
1, 205022, Poly_aftertouch_c, 0, 74, 28
1, 205024, Note_on_c, 0, 74, 80
1, 205031, Control_c, 0, 64, 64
1, 205052, Control_c, 0, 64, 72
1, 205060, Note_off_c, 0, 68, 39
1, 205070, Control_c, 0, 64, 85
1, 205088, Control_c, 0, 64, 127
1, 205125, Note_off_c, 0, 74, 59
1, 205130, Poly_aftertouch_c, 0, 86, 28
1, 205132, Note_on_c, 0, 86, 80
1, 205200, Control_c, 0, 64, 114
1, 205210, Note_off_c, 0, 86, 63
1, 205218, Control_c, 0, 64, 80
1, 205238, Control_c, 0, 64, 59
1, 205255, Note_off_c, 0, 69, 57
1, 205255, Control_c, 0, 64, 50
1, 205259, Poly_aftertouch_c, 0, 62, 28
1, 205261, Note_on_c, 0, 62, 66
1, 205268, Poly_aftertouch_c, 0, 89, 28
1, 205269, Note_on_c, 0, 89, 83
1, 205273, Control_c, 0, 64, 52
1, 205294, Control_c, 0, 64, 61
1, 205313, Control_c, 0, 64, 72
1, 205332, Control_c, 0, 64, 91
1, 205351, Control_c, 0, 64, 127
1, 205364, Note_off_c, 0, 89, 63
1, 205381, Poly_aftertouch_c, 0, 77, 28
1, 205383, Note_on_c, 0, 77, 80
1, 205434, Note_off_c, 0, 77, 58
1, 205500, Control_c, 0, 64, 82
1, 205512, Poly_aftertouch_c, 0, 76, 28
1, 205516, Note_on_c, 0, 76, 81
1, 205518, Note_off_c, 0, 65, 56
1, 205518, Control_c, 0, 64, 57
1, 205519, Poly_aftertouch_c, 0, 68, 28
1, 205520, Control_c, 0, 67, 97
1, 205522, Note_on_c, 0, 68, 61
1, 205523, Note_off_c, 0, 62, 55
1, 205524, Poly_aftertouch_c, 0, 64, 28
1, 205528, Note_on_c, 0, 64, 56
1, 205537, Control_c, 0, 64, 39
1, 205593, Control_c, 0, 64, 52
1, 205612, Control_c, 0, 64, 69
1, 205632, Control_c, 0, 64, 89
1, 205650, Control_c, 0, 64, 127
1, 205654, Poly_aftertouch_c, 0, 88, 28
1, 205656, Note_on_c, 0, 88, 84
1, 205711, Note_off_c, 0, 76, 56
1, 205818, Control_c, 0, 64, 84
1, 205822, Poly_aftertouch_c, 0, 86, 28
1, 205825, Note_on_c, 0, 86, 84
1, 205837, Note_on_c, 0, 69, 54
1, 205837, Control_c, 0, 64, 56
1, 205839, Poly_aftertouch_c, 0, 69, 28
1, 205842, Note_off_c, 0, 64, 53
1, 205843, Poly_aftertouch_c, 0, 65, 28
1, 205846, Note_on_c, 0, 65, 53
1, 205856, Control_c, 0, 64, 34
1, 205863, Note_off_c, 0, 88, 41
1, 205873, Control_c, 0, 64, 27
1, 205905, Note_off_c, 0, 68, 39
1, 205912, Control_c, 0, 64, 32
1, 205931, Control_c, 0, 64, 45
1, 205950, Control_c, 0, 64, 66
1, 205968, Control_c, 0, 64, 84
1, 205987, Control_c, 0, 64, 127
1, 205996, Poly_aftertouch_c, 0, 74, 28
1, 206001, Note_on_c, 0, 74, 75
1, 206063, Note_off_c, 0, 74, 55
1, 206079, Control_c, 0, 67, 102
1, 206117, Control_c, 0, 67, 106
1, 206155, Control_c, 0, 67, 116
1, 206173, Control_c, 0, 67, 123
1, 206192, Control_c, 0, 67, 127
1, 206222, Poly_aftertouch_c, 0, 62, 28
1, 206227, Note_on_c, 0, 62, 45
1, 206318, Note_off_c, 0, 86, 62
1, 206337, Note_on_c, 0, 77, 57
1, 206337, Poly_aftertouch_c, 0, 77, 28
1, 206341, Control_c, 0, 64, 100
1, 206362, Control_c, 0, 64, 75
1, 206380, Control_c, 0, 64, 54
1, 206398, Control_c, 0, 64, 39
1, 206400, Note_off_c, 0, 69, 54
1, 206432, Note_off_c, 0, 65, 50
1, 206455, Control_c, 0, 64, 45
1, 206473, Control_c, 0, 64, 59
1, 206493, Control_c, 0, 64, 71
1, 206511, Control_c, 0, 64, 86
1, 206522, Poly_aftertouch_c, 0, 89, 28
1, 206527, Note_on_c, 0, 89, 60
1, 206529, Control_c, 0, 64, 127
1, 206535, Note_off_c, 0, 77, 58
1, 206663, Note_off_c, 0, 62, 52
1, 206677, Poly_aftertouch_c, 0, 68, 28
1, 206679, Control_c, 0, 64, 105
1, 206688, Note_on_c, 0, 68, 51
1, 206690, Poly_aftertouch_c, 0, 64, 28
1, 206692, Poly_aftertouch_c, 0, 88, 28
1, 206695, Note_on_c, 0, 88, 61
1, 206695, Control_c, 0, 64, 76
1, 206698, Note_off_c, 0, 89, 55
1, 206698, Note_on_c, 0, 64, 42
1, 206717, Control_c, 0, 64, 58
1, 206736, Control_c, 0, 64, 52
1, 206754, Control_c, 0, 64, 55
1, 206773, Control_c, 0, 64, 61
1, 206793, Control_c, 0, 64, 69
1, 206810, Control_c, 0, 64, 81
1, 206829, Control_c, 0, 64, 104
1, 206847, Poly_aftertouch_c, 0, 76, 28
1, 206847, Control_c, 0, 64, 127
1, 206848, Note_off_c, 0, 88, 62
1, 206851, Note_on_c, 0, 76, 53
1, 206877, Note_off_c, 0, 76, 61
1, 206941, Note_off_c, 0, 64, 54
1, 206960, Control_c, 0, 64, 112
1, 206969, Poly_aftertouch_c, 0, 69, 28
1, 206973, Note_on_c, 0, 69, 49
1, 206975, Poly_aftertouch_c, 0, 65, 28
1, 206975, Poly_aftertouch_c, 0, 74, 28
1, 206978, Control_c, 0, 64, 81
1, 206979, Note_on_c, 0, 74, 66
1, 206983, Note_on_c, 0, 65, 45
1, 206998, Control_c, 0, 64, 61
1, 207001, Note_off_c, 0, 68, 37
1, 207017, Control_c, 0, 64, 51
1, 207053, Control_c, 0, 64, 58
1, 207073, Control_c, 0, 64, 66
1, 207077, Note_off_c, 0, 74, 52
1, 207091, Control_c, 0, 64, 77
1, 207095, Poly_aftertouch_c, 0, 86, 28
1, 207097, Note_on_c, 0, 86, 62
1, 207110, Control_c, 0, 64, 98
1, 207128, Control_c, 0, 64, 127
1, 207204, Control_c, 0, 64, 112
1, 207222, Control_c, 0, 64, 82
1, 207223, Note_off_c, 0, 86, 60
1, 207227, Note_off_c, 0, 69, 47
1, 207231, Poly_aftertouch_c, 0, 62, 28
1, 207238, Note_on_c, 0, 62, 48
1, 207239, Poly_aftertouch_c, 0, 84, 28
1, 207241, Control_c, 0, 64, 64
1, 207242, Note_on_c, 0, 84, 63
1, 207260, Control_c, 0, 64, 59
1, 207278, Control_c, 0, 64, 63
1, 207296, Control_c, 0, 64, 70
1, 207316, Control_c, 0, 64, 82
1, 207336, Control_c, 0, 64, 111
1, 207353, Control_c, 0, 64, 127
1, 207363, Note_off_c, 0, 84, 60
1, 207375, Poly_aftertouch_c, 0, 72, 28
1, 207378, Note_on_c, 0, 72, 48
1, 207413, Note_off_c, 0, 72, 58
1, 207467, Note_off_c, 0, 65, 40
1, 207476, Note_off_c, 0, 62, 37
1, 207477, Poly_aftertouch_c, 0, 68, 28
1, 207481, Poly_aftertouch_c, 0, 64, 28
1, 207486, Note_on_c, 0, 68, 52
1, 207488, Note_on_c, 0, 64, 43
1, 207502, Poly_aftertouch_c, 0, 71, 28
1, 207503, Control_c, 0, 64, 87
1, 207506, Note_on_c, 0, 71, 64
1, 207522, Control_c, 0, 64, 65
1, 207540, Control_c, 0, 64, 52
1, 207578, Control_c, 0, 64, 57
1, 207584, Note_off_c, 0, 71, 52
1, 207596, Control_c, 0, 64, 65
1, 207615, Control_c, 0, 64, 76
1, 207626, Poly_aftertouch_c, 0, 83, 28
1, 207632, Note_on_c, 0, 83, 45
1, 207633, Control_c, 0, 64, 93
1, 207652, Control_c, 0, 64, 127
1, 207740, Note_off_c, 0, 64, 52
1, 207745, Control_c, 0, 64, 95
1, 207764, Note_off_c, 0, 83, 62
1, 207764, Control_c, 0, 64, 71
1, 207769, Poly_aftertouch_c, 0, 65, 28
1, 207770, Poly_aftertouch_c, 0, 86, 28
1, 207775, Note_on_c, 0, 86, 57
1, 207777, Note_on_c, 0, 65, 37
1, 207781, Poly_aftertouch_c, 0, 69, 28
1, 207784, Control_c, 0, 64, 56
1, 207786, Note_on_c, 0, 69, 44
1, 207801, Note_off_c, 0, 68, 36
1, 207802, Control_c, 0, 64, 52
1, 207821, Control_c, 0, 64, 56
1, 207839, Control_c, 0, 64, 64
1, 207859, Control_c, 0, 64, 73
1, 207877, Control_c, 0, 64, 88
1, 207884, Note_off_c, 0, 86, 62
1, 207895, Control_c, 0, 64, 127
1, 207901, Poly_aftertouch_c, 0, 74, 28
1, 207907, Note_on_c, 0, 74, 48
1, 207958, Note_off_c, 0, 74, 58
1, 208000, Note_off_c, 0, 69, 46
1, 208011, Poly_aftertouch_c, 0, 62, 28
1, 208019, Note_on_c, 0, 62, 50
1, 208025, Control_c, 0, 64, 93
1, 208046, Control_c, 0, 64, 70
1, 208065, Control_c, 0, 64, 55
1, 208083, Control_c, 0, 64, 52
1, 208102, Control_c, 0, 64, 56
1, 208119, Poly_aftertouch_c, 0, 72, 28
1, 208122, Control_c, 0, 64, 64
1, 208140, Control_c, 0, 64, 74
1, 208153, Poly_aftertouch_c, 0, 74, 28
1, 208154, Poly_aftertouch_c, 0, 74, 0
1, 208154, Poly_aftertouch_c, 0, 84, 28
1, 208156, Note_on_c, 0, 84, 63
1, 208157, Control_c, 0, 64, 89
1, 208173, Poly_aftertouch_c, 0, 72, 127
1, 208175, Control_c, 0, 64, 127
1, 208198, Poly_aftertouch_c, 0, 72, 0
1, 208285, Poly_aftertouch_c, 0, 68, 28
1, 208289, Control_c, 0, 64, 111
1, 208290, Note_off_c, 0, 62, 51
1, 208296, Note_off_c, 0, 65, 33
1, 208296, Note_on_c, 0, 68, 53
1, 208301, Poly_aftertouch_c, 0, 64, 28
1, 208308, Note_on_c, 0, 64, 41
1, 208308, Control_c, 0, 64, 80
1, 208313, Note_off_c, 0, 84, 59
1, 208317, Poly_aftertouch_c, 0, 83, 28
1, 208321, Note_on_c, 0, 83, 63
1, 208327, Control_c, 0, 64, 59
1, 208345, Control_c, 0, 64, 50
1, 208363, Control_c, 0, 64, 52
1, 208383, Control_c, 0, 64, 59
1, 208402, Control_c, 0, 64, 69
1, 208420, Control_c, 0, 64, 81
1, 208438, Control_c, 0, 64, 108
1, 208459, Control_c, 0, 64, 127
1, 208476, Poly_aftertouch_c, 0, 71, 28
1, 208478, Note_on_c, 0, 71, 61
1, 208489, Note_off_c, 0, 83, 52
1, 208522, Note_off_c, 0, 71, 60
1, 208614, Note_off_c, 0, 68, 53
1, 208620, Poly_aftertouch_c, 0, 69, 28
1, 208623, Note_on_c, 0, 69, 51
1, 208624, Control_c, 0, 64, 103
1, 208629, Poly_aftertouch_c, 0, 65, 28
1, 208637, Note_on_c, 0, 65, 44
1, 208643, Control_c, 0, 64, 79
1, 208664, Control_c, 0, 64, 61
1, 208681, Note_off_c, 0, 64, 31
1, 208681, Control_c, 0, 64, 47
1, 208701, Control_c, 0, 64, 41
1, 208757, Control_c, 0, 64, 45
1, 208777, Control_c, 0, 64, 53
1, 208783, Poly_aftertouch_c, 0, 81, 28
1, 208787, Note_on_c, 0, 81, 54
1, 208795, Control_c, 0, 64, 60
1, 208813, Control_c, 0, 64, 64
1, 208832, Control_c, 0, 64, 68
1, 208850, Control_c, 0, 64, 72
1, 208869, Control_c, 0, 64, 78
1, 208888, Control_c, 0, 64, 90
1, 208907, Control_c, 0, 64, 114
1, 208925, Control_c, 0, 64, 127
1, 208983, Control_c, 0, 67, 122
1, 208991, Poly_aftertouch_c, 0, 62, 28
1, 208998, Note_on_c, 0, 62, 47
1, 209019, Control_c, 0, 67, 116
1, 209043, Note_off_c, 0, 65, 33
1, 209057, Control_c, 0, 67, 112
1, 209108, Note_off_c, 0, 62, 57
1, 209112, Control_c, 0, 67, 107
1, 209149, Control_c, 0, 67, 103
1, 209435, Poly_aftertouch_c, 0, 63, 28
1, 209440, Poly_aftertouch_c, 0, 59, 28
1, 209443, Note_on_c, 0, 59, 45
1, 209445, Note_on_c, 0, 63, 45
1, 209449, Control_c, 0, 64, 116
1, 209469, Control_c, 0, 64, 92
1, 209486, Control_c, 0, 64, 69
1, 209506, Control_c, 0, 64, 42
1, 209525, Control_c, 0, 64, 16
1, 209544, Control_c, 0, 64, 10
1, 209618, Control_c, 0, 64, 14
1, 209636, Control_c, 0, 64, 21
1, 209656, Control_c, 0, 64, 31
1, 209675, Control_c, 0, 64, 46
1, 209693, Control_c, 0, 64, 65
1, 209697, Note_off_c, 0, 69, 52
1, 209712, Control_c, 0, 64, 78
1, 209721, Note_off_c, 0, 81, 42
1, 209730, Control_c, 0, 64, 92
1, 209749, Control_c, 0, 64, 111
1, 209768, Control_c, 0, 64, 127
1, 209978, Note_off_c, 0, 59, 48
1, 209979, Poly_aftertouch_c, 0, 69, 28
1, 209983, Note_on_c, 0, 69, 58
1, 209999, Poly_aftertouch_c, 0, 64, 28
1, 210009, Note_on_c, 0, 64, 35
1, 210009, Poly_aftertouch_c, 0, 60, 28
1, 210009, Control_c, 0, 64, 116
1, 210012, Note_on_c, 0, 60, 40
1, 210030, Control_c, 0, 64, 97
1, 210048, Control_c, 0, 64, 83
1, 210068, Control_c, 0, 64, 72
1, 210070, Note_off_c, 0, 63, 31
1, 210087, Control_c, 0, 64, 64
1, 210105, Control_c, 0, 64, 60
1, 210124, Control_c, 0, 64, 57
1, 210199, Control_c, 0, 64, 55
1, 210204, Poly_aftertouch_c, 0, 81, 28
1, 210208, Note_on_c, 0, 81, 59
1, 210235, Control_c, 0, 64, 52
1, 210292, Control_c, 0, 64, 50
1, 210330, Control_c, 0, 64, 47
1, 210374, Poly_aftertouch_c, 0, 57, 28
1, 210380, Note_on_c, 0, 57, 38
1, 210406, Control_c, 0, 64, 50
1, 210423, Control_c, 0, 64, 56
1, 210426, Note_off_c, 0, 64, 49
1, 210442, Control_c, 0, 64, 62
1, 210460, Control_c, 0, 64, 67
1, 210480, Control_c, 0, 64, 75
1, 210497, Control_c, 0, 64, 87
1, 210517, Control_c, 0, 64, 112
1, 210535, Control_c, 0, 64, 127
1, 210655, Poly_aftertouch_c, 0, 63, 28
1, 210660, Note_on_c, 0, 63, 50
1, 210666, Poly_aftertouch_c, 0, 59, 28
1, 210666, Control_c, 0, 64, 98
1, 210670, Note_on_c, 0, 59, 49
1, 210671, Note_off_c, 0, 60, 37
1, 210685, Control_c, 0, 64, 74
1, 210689, Note_off_c, 0, 57, 40
1, 210704, Control_c, 0, 64, 58
1, 210723, Control_c, 0, 64, 53
1, 210741, Control_c, 0, 64, 55
1, 210761, Control_c, 0, 64, 60
1, 210778, Control_c, 0, 64, 67
1, 210798, Control_c, 0, 64, 74
1, 210799, Note_off_c, 0, 81, 54
1, 210818, Control_c, 0, 64, 86
1, 210826, Note_off_c, 0, 69, 56
1, 210834, Control_c, 0, 64, 107
1, 210854, Control_c, 0, 64, 127
1, 211030, Note_off_c, 0, 59, 51
1, 211036, Poly_aftertouch_c, 0, 64, 28
1, 211037, Poly_aftertouch_c, 0, 67, 28
1, 211043, Note_on_c, 0, 67, 60
1, 211047, Note_on_c, 0, 64, 34
1, 211052, Poly_aftertouch_c, 0, 60, 28
1, 211059, Note_on_c, 0, 60, 42
1, 211059, Control_c, 0, 64, 104
1, 211078, Control_c, 0, 64, 81
1, 211096, Note_off_c, 0, 63, 30
1, 211096, Control_c, 0, 64, 64
1, 211117, Control_c, 0, 64, 52
1, 211134, Control_c, 0, 64, 48
1, 211190, Control_c, 0, 64, 52
1, 211210, Control_c, 0, 64, 56
1, 211228, Control_c, 0, 64, 58
1, 211239, Poly_aftertouch_c, 0, 79, 28
1, 211245, Note_on_c, 0, 79, 56
1, 211246, Control_c, 0, 64, 60
1, 211266, Control_c, 0, 64, 62
1, 211280, Note_off_c, 0, 67, 57
1, 211284, Control_c, 0, 64, 65
1, 211303, Control_c, 0, 64, 68
1, 211322, Control_c, 0, 64, 72
1, 211340, Control_c, 0, 64, 78
1, 211359, Control_c, 0, 64, 87
1, 211377, Control_c, 0, 64, 100
1, 211396, Control_c, 0, 64, 122
1, 211404, Note_off_c, 0, 79, 62
1, 211415, Control_c, 0, 64, 127
1, 211421, Poly_aftertouch_c, 0, 57, 28
1, 211422, Note_off_c, 0, 64, 48
1, 211424, Poly_aftertouch_c, 0, 78, 28
1, 211428, Note_on_c, 0, 78, 69
1, 211431, Note_on_c, 0, 57, 39
1, 211554, Poly_aftertouch_c, 0, 66, 28
1, 211562, Note_on_c, 0, 66, 62
1, 211618, Note_off_c, 0, 66, 59
1, 211671, Note_off_c, 0, 78, 62
1, 211682, Note_off_c, 0, 60, 46
1, 211727, Poly_aftertouch_c, 0, 63, 28
1, 211732, Note_off_c, 0, 57, 40
1, 211735, Note_on_c, 0, 63, 49
1, 211738, Poly_aftertouch_c, 0, 59, 28
1, 211739, Poly_aftertouch_c, 0, 71, 28
1, 211743, Note_on_c, 0, 59, 43
1, 211745, Note_on_c, 0, 71, 68
1, 211751, Control_c, 0, 64, 109
1, 211771, Control_c, 0, 64, 77
1, 211791, Control_c, 0, 64, 56
1, 211808, Control_c, 0, 64, 45
1, 211845, Control_c, 0, 64, 48
1, 211864, Control_c, 0, 64, 57
1, 211883, Control_c, 0, 64, 66
1, 211885, Poly_aftertouch_c, 0, 83, 28
1, 211893, Note_on_c, 0, 83, 65
1, 211901, Control_c, 0, 64, 77
1, 211912, Note_off_c, 0, 71, 49
1, 211920, Control_c, 0, 64, 96
1, 211940, Control_c, 0, 64, 127
1, 211976, Control_c, 0, 64, 112
1, 211997, Control_c, 0, 64, 83
1, 212009, Note_off_c, 0, 83, 58
1, 212013, Control_c, 0, 64, 67
1, 212032, Note_off_c, 0, 59, 58
1, 212032, Control_c, 0, 64, 57
1, 212039, Poly_aftertouch_c, 0, 81, 28
1, 212043, Note_on_c, 0, 81, 69
1, 212058, Poly_aftertouch_c, 0, 60, 28
1, 212059, Poly_aftertouch_c, 0, 64, 28
1, 212061, Note_on_c, 0, 64, 48
1, 212062, Note_on_c, 0, 60, 50
1, 212069, Note_off_c, 0, 63, 53
1, 212074, Control_c, 0, 64, 63
1, 212089, Control_c, 0, 64, 71
1, 212108, Control_c, 0, 64, 85
1, 212126, Control_c, 0, 64, 127
1, 212127, Note_off_c, 0, 81, 60
1, 212176, Note_on_c, 0, 69, 69
1, 212176, Poly_aftertouch_c, 0, 69, 28
1, 212211, Note_off_c, 0, 69, 64
1, 212258, Control_c, 0, 64, 117
1, 212276, Control_c, 0, 64, 86
1, 212279, Note_off_c, 0, 64, 52
1, 212295, Control_c, 0, 64, 69
1, 212298, Poly_aftertouch_c, 0, 67, 28
1, 212303, Note_on_c, 0, 67, 69
1, 212308, Poly_aftertouch_c, 0, 57, 28
1, 212313, Control_c, 0, 64, 64
1, 212315, Note_on_c, 0, 57, 54
1, 212333, Control_c, 0, 64, 67
1, 212351, Control_c, 0, 64, 73
1, 212369, Control_c, 0, 64, 82
1, 212373, Note_off_c, 0, 67, 60
1, 212389, Control_c, 0, 64, 101
1, 212407, Control_c, 0, 64, 127
1, 212413, Poly_aftertouch_c, 0, 79, 28
1, 212416, Note_on_c, 0, 79, 75
1, 212464, Control_c, 0, 64, 94
1, 212482, Control_c, 0, 64, 69
1, 212492, Note_off_c, 0, 60, 45
1, 212497, Note_off_c, 0, 79, 61
1, 212500, Control_c, 0, 64, 50
1, 212519, Note_off_c, 0, 57, 56
1, 212519, Control_c, 0, 64, 44
1, 212538, Control_c, 0, 64, 46
1, 212543, Poly_aftertouch_c, 0, 63, 28
1, 212552, Note_on_c, 0, 63, 53
1, 212557, Control_c, 0, 64, 56
1, 212558, Poly_aftertouch_c, 0, 59, 28
1, 212563, Note_on_c, 0, 59, 49
1, 212570, Poly_aftertouch_c, 0, 78, 28
1, 212576, Note_on_c, 0, 78, 69
1, 212576, Control_c, 0, 64, 69
1, 212594, Control_c, 0, 64, 89
1, 212613, Control_c, 0, 64, 127
1, 212655, Note_off_c, 0, 78, 62
1, 212690, Poly_aftertouch_c, 0, 66, 28
1, 212694, Note_on_c, 0, 66, 66
1, 212728, Note_off_c, 0, 66, 66
1, 212745, Control_c, 0, 64, 91
1, 212752, Note_off_c, 0, 59, 35
1, 212762, Control_c, 0, 64, 69
1, 212781, Control_c, 0, 64, 61
1, 212782, Note_off_c, 0, 63, 60
1, 212800, Control_c, 0, 64, 63
1, 212803, Poly_aftertouch_c, 0, 64, 28
1, 212809, Note_on_c, 0, 64, 55
1, 212809, Poly_aftertouch_c, 0, 60, 28
1, 212812, Note_on_c, 0, 69, 72
1, 212812, Poly_aftertouch_c, 0, 69, 28
1, 212817, Note_on_c, 0, 60, 60
1, 212819, Control_c, 0, 64, 67
1, 212838, Control_c, 0, 64, 74
1, 212855, Note_off_c, 0, 64, 63
1, 212856, Control_c, 0, 64, 86
1, 212876, Control_c, 0, 64, 127
1, 212922, Poly_aftertouch_c, 0, 81, 28
1, 212923, Note_on_c, 0, 81, 76
1, 212934, Note_off_c, 0, 69, 53
1, 212958, Note_off_c, 0, 81, 62
1, 212988, Control_c, 0, 64, 96
1, 213006, Control_c, 0, 64, 74
1, 213026, Control_c, 0, 64, 63
1, 213027, Note_off_c, 0, 60, 54
1, 213039, Poly_aftertouch_c, 0, 57, 28
1, 213045, Note_on_c, 0, 57, 62
1, 213045, Control_c, 0, 64, 64
1, 213050, Poly_aftertouch_c, 0, 66, 28
1, 213055, Note_on_c, 0, 66, 61
1, 213056, Poly_aftertouch_c, 0, 84, 28
1, 213062, Note_on_c, 0, 84, 81
1, 213064, Control_c, 0, 64, 69
1, 213081, Control_c, 0, 64, 79
1, 213093, Note_off_c, 0, 57, 63
1, 213099, Control_c, 0, 64, 100
1, 213117, Control_c, 0, 64, 127
1, 213139, Note_off_c, 0, 66, 60
1, 213158, Note_off_c, 0, 84, 62
1, 213181, Poly_aftertouch_c, 0, 72, 28
1, 213186, Note_on_c, 0, 72, 73
1, 213218, Note_off_c, 0, 72, 66
1, 213230, Control_c, 0, 64, 92
1, 213249, Control_c, 0, 64, 68
1, 213268, Control_c, 0, 64, 56
1, 213286, Poly_aftertouch_c, 0, 68, 28
1, 213291, Note_on_c, 0, 68, 61
1, 213299, Poly_aftertouch_c, 0, 64, 28
1, 213303, Control_c, 0, 64, 64
1, 213306, Note_on_c, 0, 64, 58
1, 213312, Poly_aftertouch_c, 0, 71, 28
1, 213314, Note_on_c, 0, 71, 79
1, 213322, Control_c, 0, 64, 73
1, 213344, Control_c, 0, 64, 92
1, 213361, Control_c, 0, 64, 127
1, 213397, Note_off_c, 0, 71, 57
1, 213410, Poly_aftertouch_c, 0, 83, 28
1, 213414, Note_on_c, 0, 83, 80
1, 213436, Control_c, 0, 64, 102
1, 213455, Control_c, 0, 64, 74
1, 213475, Note_off_c, 0, 83, 64
1, 213475, Control_c, 0, 64, 56
1, 213493, Note_off_c, 0, 64, 51
1, 213493, Control_c, 0, 64, 51
1, 213512, Control_c, 0, 64, 55
1, 213530, Control_c, 0, 64, 63
1, 213536, Note_off_c, 0, 68, 52
1, 213542, Note_on_c, 0, 86, 85
1, 213543, Poly_aftertouch_c, 0, 65, 28
1, 213544, Poly_aftertouch_c, 0, 86, 28
1, 213548, Control_c, 0, 64, 73
1, 213551, Note_on_c, 0, 65, 62
1, 213551, Poly_aftertouch_c, 0, 69, 28
1, 213554, Note_on_c, 0, 69, 66
1, 213568, Control_c, 0, 64, 87
1, 213586, Control_c, 0, 64, 127
1, 213636, Note_off_c, 0, 86, 63
1, 213651, Note_off_c, 0, 69, 56
1, 213661, Poly_aftertouch_c, 0, 74, 28
1, 213663, Note_on_c, 0, 74, 81
1, 213704, Note_off_c, 0, 74, 59
1, 213755, Note_off_c, 0, 65, 36
1, 213775, Poly_aftertouch_c, 0, 62, 28
1, 213779, Note_on_c, 0, 62, 78
1, 213783, Poly_aftertouch_c, 0, 71, 28
1, 213787, Note_on_c, 0, 71, 77
1, 213787, Note_on_c, 0, 77, 86
1, 213790, Poly_aftertouch_c, 0, 77, 28
1, 213834, Note_off_c, 0, 62, 59
1, 213843, Note_off_c, 0, 71, 59
1, 213887, Note_off_c, 0, 77, 58
1, 213900, Poly_aftertouch_c, 0, 89, 28
1, 213901, Note_on_c, 0, 89, 84
1, 213923, Control_c, 0, 67, 96
1, 213943, Control_c, 0, 67, 87
1, 213961, Control_c, 0, 64, 107
1, 213961, Control_c, 0, 67, 76
1, 213980, Control_c, 0, 64, 76
1, 213983, Control_c, 0, 67, 66
1, 214000, Control_c, 0, 64, 53
1, 214002, Control_c, 0, 67, 58
1, 214017, Control_c, 0, 64, 40
1, 214019, Control_c, 0, 67, 53
1, 214022, Poly_aftertouch_c, 0, 73, 28
1, 214024, Note_off_c, 0, 89, 56
1, 214026, Note_on_c, 0, 73, 73
1, 214029, Poly_aftertouch_c, 0, 69, 28
1, 214033, Note_on_c, 0, 69, 65
1, 214036, Poly_aftertouch_c, 0, 88, 28
1, 214039, Note_on_c, 0, 88, 80
1, 214054, Control_c, 0, 64, 45
1, 214073, Control_c, 0, 64, 58
1, 214092, Control_c, 0, 64, 76
1, 214110, Control_c, 0, 64, 107
1, 214128, Control_c, 0, 64, 127
1, 214152, Poly_aftertouch_c, 0, 76, 28
1, 214154, Note_on_c, 0, 76, 80
1, 214209, Note_off_c, 0, 76, 60
1, 214240, Note_off_c, 0, 88, 63
1, 214280, Control_c, 0, 64, 116
1, 214298, Control_c, 0, 64, 78
1, 214304, Poly_aftertouch_c, 0, 70, 28
1, 214305, Poly_aftertouch_c, 0, 74, 28
1, 214305, Poly_aftertouch_c, 0, 79, 28
1, 214308, Note_on_c, 0, 79, 80
1, 214309, Note_on_c, 0, 74, 67
1, 214312, Note_on_c, 0, 70, 68
1, 214313, Note_off_c, 0, 69, 53
1, 214316, Control_c, 0, 64, 55
1, 214327, Note_off_c, 0, 73, 52
1, 214335, Control_c, 0, 64, 43
1, 214373, Control_c, 0, 64, 49
1, 214391, Control_c, 0, 64, 61
1, 214410, Control_c, 0, 64, 77
1, 214422, Poly_aftertouch_c, 0, 91, 28
1, 214425, Note_on_c, 0, 91, 81
1, 214428, Note_off_c, 0, 79, 59
1, 214429, Control_c, 0, 64, 111
1, 214446, Control_c, 0, 64, 127
1, 214503, Control_c, 0, 64, 118
1, 214523, Control_c, 0, 64, 84
1, 214541, Control_c, 0, 64, 66
1, 214553, Poly_aftertouch_c, 0, 89, 28
1, 214554, Note_off_c, 0, 91, 61
1, 214555, Note_on_c, 0, 89, 80
1, 214560, Control_c, 0, 64, 62
1, 214567, Poly_aftertouch_c, 0, 67, 28
1, 214573, Note_on_c, 0, 67, 64
1, 214578, Control_c, 0, 64, 66
1, 214581, Note_off_c, 0, 74, 56
1, 214598, Control_c, 0, 64, 75
1, 214600, Control_c, 0, 67, 47
1, 214617, Control_c, 0, 64, 92
1, 214619, Control_c, 0, 67, 39
1, 214634, Control_c, 0, 64, 127
1, 214635, Control_c, 0, 67, 26
1, 214653, Control_c, 0, 67, 9
1, 214663, Poly_aftertouch_c, 0, 77, 28
1, 214665, Note_on_c, 0, 77, 82
1, 214669, Note_off_c, 0, 89, 61
1, 214671, Control_c, 0, 67, 0
1, 214730, Note_off_c, 0, 77, 63
1, 214774, Note_off_c, 0, 70, 57
1, 214782, Poly_aftertouch_c, 0, 73, 28
1, 214783, Control_c, 0, 64, 90
1, 214789, Note_on_c, 0, 73, 73
1, 214789, Poly_aftertouch_c, 0, 69, 28
1, 214793, Note_on_c, 0, 69, 69
1, 214800, Poly_aftertouch_c, 0, 76, 28
1, 214802, Control_c, 0, 64, 66
1, 214804, Note_on_c, 0, 76, 85
1, 214806, Note_off_c, 0, 67, 50
1, 214822, Control_c, 0, 64, 53
1, 214858, Control_c, 0, 64, 60
1, 214878, Control_c, 0, 64, 69
1, 214897, Control_c, 0, 64, 86
1, 214903, Poly_aftertouch_c, 0, 88, 28
1, 214907, Note_on_c, 0, 88, 84
1, 214913, Control_c, 0, 64, 127
1, 214925, Note_off_c, 0, 76, 60
1, 215084, Control_c, 0, 64, 88
1, 215097, Poly_aftertouch_c, 0, 74, 28
1, 215098, Poly_aftertouch_c, 0, 91, 28
1, 215100, Note_on_c, 0, 74, 63
1, 215101, Note_on_c, 0, 91, 87
1, 215102, Control_c, 0, 64, 61
1, 215103, Poly_aftertouch_c, 0, 70, 28
1, 215110, Note_on_c, 0, 70, 65
1, 215120, Note_off_c, 0, 88, 63
1, 215120, Control_c, 0, 64, 41
1, 215140, Control_c, 0, 64, 35
1, 215161, Note_off_c, 0, 69, 53
1, 215166, Note_off_c, 0, 73, 53
1, 215177, Control_c, 0, 64, 41
1, 215197, Control_c, 0, 64, 57
1, 215215, Control_c, 0, 64, 76
1, 215222, Poly_aftertouch_c, 0, 79, 28
1, 215226, Note_on_c, 0, 79, 78
1, 215233, Note_off_c, 0, 91, 63
1, 215233, Control_c, 0, 64, 112
1, 215252, Control_c, 0, 64, 127
1, 215291, Note_off_c, 0, 79, 63
1, 215346, Control_c, 0, 64, 101
1, 215356, Note_on_c, 0, 77, 83
1, 215357, Poly_aftertouch_c, 0, 77, 28
1, 215364, Control_c, 0, 64, 75
1, 215367, Poly_aftertouch_c, 0, 67, 28
1, 215371, Note_on_c, 0, 67, 67
1, 215384, Control_c, 0, 64, 61
1, 215402, Control_c, 0, 64, 60
1, 215420, Control_c, 0, 64, 66
1, 215439, Control_c, 0, 64, 76
1, 215459, Control_c, 0, 64, 101
1, 215478, Control_c, 0, 64, 127
1, 215480, Poly_aftertouch_c, 0, 89, 28
1, 215483, Note_on_c, 0, 89, 88
1, 215567, Note_off_c, 0, 77, 53
1, 215656, Poly_aftertouch_c, 0, 88, 28
1, 215660, Note_on_c, 0, 88, 87
1, 215664, Control_c, 0, 64, 80
1, 215668, Poly_aftertouch_c, 0, 73, 28
1, 215671, Note_on_c, 0, 73, 71
1, 215673, Note_off_c, 0, 67, 59
1, 215673, Poly_aftertouch_c, 0, 69, 28
1, 215677, Note_on_c, 0, 69, 65
1, 215683, Control_c, 0, 64, 56
1, 215690, Note_off_c, 0, 89, 50
1, 215701, Control_c, 0, 64, 41
1, 215703, Note_off_c, 0, 74, 52
1, 215703, Note_off_c, 0, 70, 58
1, 215739, Control_c, 0, 64, 43
1, 215758, Control_c, 0, 64, 52
1, 215776, Control_c, 0, 64, 66
1, 215795, Control_c, 0, 64, 81
1, 215814, Control_c, 0, 64, 109
1, 215832, Control_c, 0, 64, 127
1, 215843, Poly_aftertouch_c, 0, 76, 28
1, 215845, Note_on_c, 0, 76, 85
1, 215939, Note_off_c, 0, 76, 62
1, 216050, Poly_aftertouch_c, 0, 74, 28
1, 216053, Note_on_c, 0, 74, 68
1, 216055, Poly_aftertouch_c, 0, 65, 28
1, 216060, Note_on_c, 0, 65, 61
1, 216180, Note_off_c, 0, 69, 50
1, 216188, Control_c, 0, 64, 114
1, 216193, Note_off_c, 0, 88, 64
1, 216206, Poly_aftertouch_c, 0, 81, 28
1, 216206, Control_c, 0, 64, 79
1, 216207, Note_on_c, 0, 81, 89
1, 216226, Control_c, 0, 64, 56
1, 216246, Control_c, 0, 64, 40
1, 216266, Note_off_c, 0, 73, 50
1, 216301, Control_c, 0, 64, 43
1, 216320, Control_c, 0, 64, 57
1, 216338, Control_c, 0, 64, 72
1, 216359, Control_c, 0, 64, 93
1, 216375, Control_c, 0, 64, 127
1, 216522, Poly_aftertouch_c, 0, 93, 28
1, 216526, Note_on_c, 0, 93, 94
1, 216714, Note_off_c, 0, 81, 60
1, 216743, Poly_aftertouch_c, 0, 70, 28
1, 216749, Note_on_c, 0, 70, 64
1, 216751, Poly_aftertouch_c, 0, 89, 28
1, 216753, Note_on_c, 0, 89, 84
1, 216761, Note_off_c, 0, 93, 52
1, 216792, Note_off_c, 0, 65, 61
1, 216899, Poly_aftertouch_c, 0, 77, 28
1, 216900, Note_on_c, 0, 77, 80
1, 216968, Note_off_c, 0, 77, 61
1, 217031, Control_c, 0, 64, 88
1, 217044, Poly_aftertouch_c, 0, 79, 28
1, 217047, Poly_aftertouch_c, 0, 64, 28
1, 217048, Control_c, 0, 64, 66
1, 217051, Note_on_c, 0, 79, 80
1, 217051, Note_on_c, 0, 64, 63
1, 217056, Note_off_c, 0, 89, 62
1, 217068, Control_c, 0, 64, 59
1, 217086, Control_c, 0, 64, 61
1, 217105, Control_c, 0, 64, 67
1, 217123, Control_c, 0, 64, 75
1, 217143, Control_c, 0, 64, 96
1, 217162, Control_c, 0, 64, 127
1, 217178, Note_off_c, 0, 74, 45
1, 217179, Poly_aftertouch_c, 0, 91, 28
1, 217180, Note_on_c, 0, 91, 84
1, 217197, Note_off_c, 0, 79, 58
1, 217229, Note_off_c, 0, 70, 36
1, 217254, Control_c, 0, 64, 82
1, 217274, Control_c, 0, 64, 62
1, 217293, Control_c, 0, 64, 55
1, 217311, Control_c, 0, 64, 59
1, 217316, Note_off_c, 0, 91, 54
1, 217320, Note_off_c, 0, 64, 60
1, 217320, Poly_aftertouch_c, 0, 69, 28
1, 217325, Note_on_c, 0, 69, 56
1, 217327, Note_on_c, 0, 72, 58
1, 217327, Note_on_c, 0, 88, 79
1, 217330, Poly_aftertouch_c, 0, 72, 28
1, 217331, Poly_aftertouch_c, 0, 88, 28
1, 217331, Control_c, 0, 64, 65
1, 217349, Control_c, 0, 64, 74
1, 217369, Control_c, 0, 64, 94
1, 217386, Control_c, 0, 64, 127
1, 217444, Poly_aftertouch_c, 0, 76, 28
1, 217449, Note_on_c, 0, 76, 75
1, 217486, Note_off_c, 0, 76, 62
1, 217523, Note_off_c, 0, 88, 64
1, 217536, Control_c, 0, 64, 86
1, 217555, Control_c, 0, 64, 65
1, 217573, Control_c, 0, 64, 57
1, 217576, Poly_aftertouch_c, 0, 62, 28
1, 217578, Poly_aftertouch_c, 0, 77, 28
1, 217581, Note_on_c, 0, 77, 75
1, 217583, Note_on_c, 0, 62, 63
1, 217588, Note_off_c, 0, 69, 59
1, 217592, Control_c, 0, 64, 61
1, 217611, Control_c, 0, 64, 67
1, 217631, Control_c, 0, 64, 78
1, 217643, Note_off_c, 0, 72, 61
1, 217649, Control_c, 0, 64, 106
1, 217667, Control_c, 0, 64, 127
1, 217676, Note_off_c, 0, 62, 61
1, 217712, Poly_aftertouch_c, 0, 89, 28
1, 217717, Note_on_c, 0, 89, 75
1, 217718, Note_off_c, 0, 77, 60
1, 217836, Control_c, 0, 64, 104
1, 217853, Note_off_c, 0, 89, 54
1, 217853, Control_c, 0, 64, 74
1, 217862, Poly_aftertouch_c, 0, 70, 28
1, 217863, Poly_aftertouch_c, 0, 86, 28
1, 217866, Note_on_c, 0, 86, 75
1, 217866, Note_on_c, 0, 70, 62
1, 217873, Control_c, 0, 64, 55
1, 217878, Poly_aftertouch_c, 0, 67, 28
1, 217883, Note_on_c, 0, 67, 50
1, 217891, Control_c, 0, 64, 49
1, 217910, Control_c, 0, 64, 52
1, 217928, Control_c, 0, 64, 60
1, 217948, Control_c, 0, 64, 72
1, 217966, Control_c, 0, 64, 91
1, 217985, Control_c, 0, 64, 127
1, 218002, Note_on_c, 0, 74, 68
1, 218003, Poly_aftertouch_c, 0, 74, 28
1, 218041, Note_off_c, 0, 74, 59
1, 218058, Note_off_c, 0, 86, 62
1, 218133, Note_off_c, 0, 67, 55
1, 218151, Poly_aftertouch_c, 0, 76, 28
1, 218155, Note_on_c, 0, 76, 68
1, 218156, Poly_aftertouch_c, 0, 61, 28
1, 218158, Note_on_c, 0, 61, 57
1, 218193, Control_c, 0, 64, 85
1, 218210, Control_c, 0, 64, 62
1, 218229, Control_c, 0, 64, 48
1, 218266, Control_c, 0, 64, 54
1, 218285, Control_c, 0, 64, 64
1, 218296, Poly_aftertouch_c, 0, 88, 28
1, 218304, Note_on_c, 0, 88, 68
1, 218304, Control_c, 0, 64, 79
1, 218323, Control_c, 0, 64, 113
1, 218327, Note_off_c, 0, 76, 58
1, 218340, Control_c, 0, 64, 127
1, 218403, Note_off_c, 0, 70, 37
1, 218480, Note_off_c, 0, 88, 51
1, 218497, Poly_aftertouch_c, 0, 85, 28
1, 218500, Note_on_c, 0, 85, 70
1, 218503, Poly_aftertouch_c, 0, 65, 28
1, 218503, Poly_aftertouch_c, 0, 69, 28
1, 218507, Note_on_c, 0, 69, 66
1, 218509, Note_on_c, 0, 65, 45
1, 218547, Control_c, 0, 64, 91
1, 218566, Control_c, 0, 64, 66
1, 218573, Note_off_c, 0, 61, 49
1, 218584, Control_c, 0, 64, 48
1, 218602, Control_c, 0, 64, 39
1, 218659, Control_c, 0, 64, 49
1, 218678, Control_c, 0, 64, 63
1, 218686, Poly_aftertouch_c, 0, 73, 28
1, 218692, Note_on_c, 0, 73, 71
1, 218696, Control_c, 0, 64, 79
1, 218715, Control_c, 0, 64, 114
1, 218734, Control_c, 0, 64, 127
1, 218783, Note_off_c, 0, 73, 61
1, 218923, Poly_aftertouch_c, 0, 59, 28
1, 218927, Note_on_c, 0, 59, 50
1, 218942, Poly_aftertouch_c, 0, 76, 28
1, 218946, Note_on_c, 0, 76, 69
1, 218962, Note_off_c, 0, 85, 60
1, 218977, Control_c, 0, 64, 112
1, 218996, Control_c, 0, 64, 79
1, 219015, Control_c, 0, 64, 56
1, 219033, Control_c, 0, 64, 38
1, 219052, Control_c, 0, 64, 32
1, 219126, Control_c, 0, 64, 38
1, 219141, Poly_aftertouch_c, 0, 88, 28
1, 219144, Control_c, 0, 64, 49
1, 219149, Note_on_c, 0, 88, 66
1, 219165, Control_c, 0, 64, 65
1, 219184, Control_c, 0, 64, 80
1, 219202, Control_c, 0, 64, 103
1, 219210, Note_off_c, 0, 65, 42
1, 219221, Control_c, 0, 64, 127
1, 219224, Note_off_c, 0, 76, 58
1, 219314, Note_off_c, 0, 88, 62
1, 219321, Note_off_c, 0, 59, 35
1, 219323, Poly_aftertouch_c, 0, 86, 28
1, 219326, Note_on_c, 0, 86, 72
1, 219416, Note_off_c, 0, 86, 60
1, 219450, Poly_aftertouch_c, 0, 74, 28
1, 219452, Note_on_c, 0, 74, 68
1, 219488, Note_off_c, 0, 74, 64
1, 219565, Poly_aftertouch_c, 0, 62, 28
1, 219570, Note_on_c, 0, 62, 61
1, 219583, Poly_aftertouch_c, 0, 72, 28
1, 219586, Note_on_c, 0, 72, 75
1, 219592, Note_off_c, 0, 69, 32
1, 219610, Note_off_c, 0, 62, 65
1, 219665, Note_off_c, 0, 72, 56
1, 219693, Poly_aftertouch_c, 0, 84, 28
1, 219697, Note_on_c, 0, 84, 77
1, 219800, Control_c, 0, 64, 96
1, 219820, Control_c, 0, 64, 69
1, 219825, Poly_aftertouch_c, 0, 68, 28
1, 219831, Poly_aftertouch_c, 0, 83, 28
1, 219832, Note_off_c, 0, 84, 60
1, 219835, Note_on_c, 0, 68, 58
1, 219836, Note_on_c, 0, 83, 75
1, 219839, Note_on_c, 0, 64, 57
1, 219839, Poly_aftertouch_c, 0, 64, 28
1, 219839, Control_c, 0, 64, 51
1, 219857, Control_c, 0, 64, 44
1, 219895, Control_c, 0, 64, 51
1, 219913, Control_c, 0, 64, 62
1, 219932, Control_c, 0, 64, 76
1, 219949, Poly_aftertouch_c, 0, 71, 28
1, 219949, Control_c, 0, 64, 101
1, 219955, Note_on_c, 0, 71, 69
1, 219969, Control_c, 0, 64, 127
1, 219990, Note_off_c, 0, 71, 67
1, 220074, Note_off_c, 0, 83, 59
1, 220092, Note_off_c, 0, 64, 57
1, 220107, Poly_aftertouch_c, 0, 74, 28
1, 220112, Note_on_c, 0, 74, 78
1, 220113, Poly_aftertouch_c, 0, 69, 28
1, 220118, Note_on_c, 0, 69, 55
1, 220119, Control_c, 0, 64, 85
1, 220124, Poly_aftertouch_c, 0, 65, 28
1, 220129, Note_on_c, 0, 65, 52
1, 220138, Control_c, 0, 64, 61
1, 220157, Control_c, 0, 64, 44
1, 220165, Note_off_c, 0, 68, 34
1, 220177, Control_c, 0, 64, 38
1, 220212, Control_c, 0, 64, 42
1, 220233, Control_c, 0, 64, 53
1, 220242, Poly_aftertouch_c, 0, 86, 28
1, 220249, Note_on_c, 0, 86, 72
1, 220249, Control_c, 0, 64, 68
1, 220255, Note_off_c, 0, 74, 58
1, 220270, Control_c, 0, 64, 84
1, 220287, Control_c, 0, 64, 127
1, 220363, Control_c, 0, 64, 115
1, 220373, Note_off_c, 0, 86, 60
1, 220381, Control_c, 0, 64, 84
1, 220383, Poly_aftertouch_c, 0, 84, 28
1, 220386, Note_on_c, 0, 84, 73
1, 220392, Poly_aftertouch_c, 0, 62, 28
1, 220397, Note_on_c, 0, 62, 52
1, 220400, Control_c, 0, 64, 69
1, 220402, Note_off_c, 0, 69, 55
1, 220419, Control_c, 0, 64, 66
1, 220438, Control_c, 0, 64, 70
1, 220455, Control_c, 0, 64, 77
1, 220475, Control_c, 0, 64, 90
1, 220493, Control_c, 0, 64, 127
1, 220501, Poly_aftertouch_c, 0, 72, 28
1, 220502, Note_off_c, 0, 84, 60
1, 220505, Note_on_c, 0, 72, 70
1, 220555, Note_off_c, 0, 72, 58
1, 220607, Note_off_c, 0, 62, 48
1, 220635, Poly_aftertouch_c, 0, 64, 28
1, 220637, Note_off_c, 0, 65, 41
1, 220637, Poly_aftertouch_c, 0, 68, 28
1, 220638, Poly_aftertouch_c, 0, 71, 28
1, 220640, Note_on_c, 0, 71, 80
1, 220643, Note_on_c, 0, 64, 47
1, 220643, Control_c, 0, 64, 100
1, 220646, Note_on_c, 0, 68, 51
1, 220662, Control_c, 0, 64, 73
1, 220681, Control_c, 0, 64, 57
1, 220700, Control_c, 0, 64, 53
1, 220718, Control_c, 0, 64, 55
1, 220738, Control_c, 0, 64, 61
1, 220755, Control_c, 0, 64, 68
1, 220775, Control_c, 0, 64, 78
1, 220778, Poly_aftertouch_c, 0, 83, 28
1, 220779, Note_on_c, 0, 83, 78
1, 220791, Note_off_c, 0, 71, 45
1, 220792, Control_c, 0, 64, 96
1, 220812, Control_c, 0, 64, 127
1, 220981, Poly_aftertouch_c, 0, 69, 28
1, 220985, Note_on_c, 0, 69, 43
1, 220992, Poly_aftertouch_c, 0, 65, 28
1, 220998, Note_on_c, 0, 65, 47
1, 221048, Note_off_c, 0, 64, 35
1, 221093, Control_c, 0, 64, 96
1, 221110, Note_off_c, 0, 68, 35
1, 221112, Poly_aftertouch_c, 0, 86, 28
1, 221112, Control_c, 0, 64, 73
1, 221116, Note_off_c, 0, 83, 64
1, 221118, Note_on_c, 0, 86, 81
1, 221130, Control_c, 0, 64, 53
1, 221149, Control_c, 0, 64, 35
1, 221168, Control_c, 0, 64, 24
1, 221280, Control_c, 0, 64, 32
1, 221299, Control_c, 0, 64, 38
1, 221317, Control_c, 0, 64, 45
1, 221336, Control_c, 0, 64, 56
1, 221354, Control_c, 0, 64, 64
1, 221375, Control_c, 0, 64, 67
1, 221411, Control_c, 0, 64, 68
1, 221413, Control_c, 0, 67, 8
1, 221449, Control_c, 0, 64, 71
1, 221460, Poly_aftertouch_c, 0, 74, 28
1, 221465, Note_on_c, 0, 74, 49
1, 221465, Control_c, 0, 64, 74
1, 221486, Control_c, 0, 64, 81
1, 221504, Control_c, 0, 64, 92
1, 221523, Control_c, 0, 64, 114
1, 221542, Control_c, 0, 64, 127
1, 221560, Control_c, 0, 67, 12
1, 221574, Poly_aftertouch_c, 0, 62, 28
1, 221580, Note_on_c, 0, 62, 46
1, 221597, Control_c, 0, 67, 16
1, 221635, Control_c, 0, 67, 21
1, 221651, Note_off_c, 0, 86, 47
1, 221654, Note_off_c, 0, 74, 52
1, 221672, Control_c, 0, 67, 27
1, 221710, Control_c, 0, 67, 31
1, 221846, Poly_aftertouch_c, 0, 69, 24
1, 221858, Note_off_c, 0, 62, 45
1, 221871, Poly_aftertouch_c, 0, 68, 28
1, 221879, Note_on_c, 0, 68, 48
1, 221886, Poly_aftertouch_c, 0, 64, 28
1, 221889, Note_on_c, 0, 72, 69
1, 221890, Note_on_c, 0, 64, 41
1, 221890, Poly_aftertouch_c, 0, 72, 28
1, 221895, Note_off_c, 0, 69, 38
1, 221900, Note_off_c, 0, 65, 41
1, 221916, Control_c, 0, 64, 107
1, 221935, Control_c, 0, 64, 87
1, 221954, Control_c, 0, 64, 71
1, 221972, Control_c, 0, 64, 58
1, 221992, Control_c, 0, 64, 49
1, 222009, Control_c, 0, 64, 44
1, 222029, Control_c, 0, 64, 40
1, 222049, Poly_aftertouch_c, 0, 84, 28
1, 222054, Note_on_c, 0, 84, 74
1, 222245, Note_off_c, 0, 64, 55
1, 222256, Note_off_c, 0, 68, 50
1, 222256, Poly_aftertouch_c, 0, 69, 28
1, 222262, Note_on_c, 0, 69, 42
1, 222263, Poly_aftertouch_c, 0, 65, 28
1, 222268, Note_on_c, 0, 65, 41
1, 222290, Control_c, 0, 64, 42
1, 222310, Control_c, 0, 64, 49
1, 222327, Control_c, 0, 64, 60
1, 222347, Control_c, 0, 64, 71
1, 222366, Control_c, 0, 64, 86
1, 222385, Control_c, 0, 64, 127
1, 222452, Note_off_c, 0, 84, 48
1, 222599, Note_off_c, 0, 72, 37
1, 222740, Poly_aftertouch_c, 0, 62, 28
1, 222746, Note_on_c, 0, 62, 44
1, 222855, Poly_aftertouch_c, 0, 83, 28
1, 222858, Note_on_c, 0, 83, 63
1, 222870, Control_c, 0, 64, 100
1, 222890, Control_c, 0, 64, 78
1, 222908, Control_c, 0, 64, 61
1, 222927, Control_c, 0, 64, 48
1, 222945, Control_c, 0, 64, 40
1, 223039, Control_c, 0, 64, 44
1, 223058, Control_c, 0, 64, 53
1, 223076, Control_c, 0, 64, 64
1, 223096, Control_c, 0, 64, 73
1, 223102, Poly_aftertouch_c, 0, 71, 28
1, 223108, Note_on_c, 0, 71, 43
1, 223115, Control_c, 0, 64, 82
1, 223132, Control_c, 0, 64, 96
1, 223152, Control_c, 0, 64, 114
1, 223170, Control_c, 0, 64, 127
1, 223339, Control_c, 0, 64, 113
1, 223357, Control_c, 0, 64, 101
1, 223365, Poly_aftertouch_c, 0, 68, 28
1, 223374, Poly_aftertouch_c, 0, 64, 28
1, 223376, Control_c, 0, 64, 90
1, 223377, Note_on_c, 0, 68, 44
1, 223379, Note_on_c, 0, 64, 37
1, 223391, Note_off_c, 0, 65, 36
1, 223394, Control_c, 0, 64, 79
1, 223395, Note_off_c, 0, 62, 37
1, 223406, Note_off_c, 0, 69, 37
1, 223414, Control_c, 0, 64, 68
1, 223432, Control_c, 0, 64, 57
1, 223453, Control_c, 0, 64, 47
1, 223469, Control_c, 0, 64, 40
1, 223489, Control_c, 0, 64, 35
1, 223619, Control_c, 0, 64, 41
1, 223638, Control_c, 0, 64, 48
1, 223657, Control_c, 0, 64, 59
1, 223675, Control_c, 0, 64, 68
1, 223695, Control_c, 0, 64, 76
1, 223713, Control_c, 0, 64, 88
1, 223731, Control_c, 0, 64, 107
1, 223751, Control_c, 0, 64, 127
1, 224031, Control_c, 0, 67, 35
1, 224087, Control_c, 0, 67, 39
1, 224396, Poly_aftertouch_c, 0, 69, 28
1, 224403, Note_on_c, 0, 69, 61
1, 224405, Control_c, 0, 64, 105
1, 224423, Poly_aftertouch_c, 0, 61, 28
1, 224424, Control_c, 0, 64, 86
1, 224431, Note_on_c, 0, 61, 46
1, 224435, Note_off_c, 0, 64, 40
1, 224444, Control_c, 0, 64, 67
1, 224453, Note_off_c, 0, 83, 39
1, 224461, Control_c, 0, 64, 49
1, 224470, Note_off_c, 0, 68, 59
1, 224480, Control_c, 0, 64, 36
1, 224499, Control_c, 0, 64, 30
1, 224549, Note_off_c, 0, 71, 38
1, 224575, Control_c, 0, 64, 40
1, 224593, Control_c, 0, 64, 57
1, 224612, Control_c, 0, 64, 76
1, 224630, Control_c, 0, 64, 107
1, 224650, Control_c, 0, 64, 127
1, 224833, Note_off_c, 0, 69, 47
1, 224889, Note_off_c, 0, 61, 33
1, 224943, Poly_aftertouch_c, 0, 81, 28
1, 224948, Note_on_c, 0, 81, 62
1, 224975, Poly_aftertouch_c, 0, 69, 28
1, 224980, Note_on_c, 0, 69, 42
1, 225240, Poly_aftertouch_c, 0, 65, 28
1, 225245, Note_on_c, 0, 65, 69
1, 225270, Poly_aftertouch_c, 0, 62, 28
1, 225276, Note_on_c, 0, 62, 46
1, 225361, Note_off_c, 0, 62, 0
1, 225361, Poly_aftertouch_c, 0, 62, 28
1, 225361, Control_c, 0, 64, 122
1, 225379, Control_c, 0, 64, 103
1, 225398, Control_c, 0, 64, 93
1, 225417, Control_c, 0, 64, 86
1, 225435, Control_c, 0, 64, 81
1, 225456, Control_c, 0, 64, 77
1, 225472, Control_c, 0, 64, 75
1, 225491, Control_c, 0, 64, 73
1, 225529, Control_c, 0, 64, 70
1, 225585, Control_c, 0, 64, 68
1, 225622, Control_c, 0, 64, 67
1, 225660, Control_c, 0, 64, 66
1, 225716, Control_c, 0, 64, 64
1, 225792, Control_c, 0, 64, 63
1, 225829, Control_c, 0, 64, 62
1, 225866, Control_c, 0, 64, 61
1, 225915, Poly_aftertouch_c, 0, 62, 24
1, 225922, Control_c, 0, 64, 59
1, 225945, Poly_aftertouch_c, 0, 67, 28
1, 225952, Note_on_c, 0, 67, 65
1, 225961, Poly_aftertouch_c, 0, 62, 0
1, 225983, Poly_aftertouch_c, 0, 59, 28
1, 225987, Note_on_c, 0, 59, 42
1, 225996, Control_c, 0, 64, 57
1, 226054, Control_c, 0, 64, 55
1, 226075, Note_off_c, 0, 65, 56
1, 226441, Note_off_c, 0, 59, 58
1, 226444, Control_c, 0, 64, 53
1, 226464, Poly_aftertouch_c, 0, 64, 28
1, 226468, Note_on_c, 0, 64, 62
1, 226478, Poly_aftertouch_c, 0, 61, 28
1, 226483, Note_on_c, 0, 61, 45
1, 226519, Note_off_c, 0, 67, 60
1, 226633, Control_c, 0, 67, 35
1, 226857, Note_off_c, 0, 61, 48
1, 226863, Poly_aftertouch_c, 0, 65, 28
1, 226867, Note_on_c, 0, 65, 59
1, 226875, Control_c, 0, 64, 55
1, 226892, Poly_aftertouch_c, 0, 57, 28
1, 226895, Control_c, 0, 64, 57
1, 226899, Note_on_c, 0, 57, 50
1, 226903, Note_off_c, 0, 64, 60
1, 226914, Control_c, 0, 64, 61
1, 226932, Control_c, 0, 64, 64
1, 226951, Control_c, 0, 64, 69
1, 226970, Control_c, 0, 64, 78
1, 226989, Control_c, 0, 64, 94
1, 227007, Control_c, 0, 64, 127
1, 227031, Note_off_c, 0, 69, 49
1, 227321, Note_off_c, 0, 81, 57
1, 227329, Note_off_c, 0, 57, 52
1, 227329, Poly_aftertouch_c, 0, 62, 28
1, 227331, Poly_aftertouch_c, 0, 69, 28
1, 227336, Note_on_c, 0, 69, 55
1, 227338, Note_on_c, 0, 62, 52
1, 227343, Control_c, 0, 64, 102
1, 227362, Poly_aftertouch_c, 0, 59, 28
1, 227363, Control_c, 0, 64, 88
1, 227367, Note_on_c, 0, 59, 40
1, 227383, Control_c, 0, 64, 76
1, 227401, Control_c, 0, 64, 67
1, 227419, Control_c, 0, 64, 60
1, 227438, Control_c, 0, 64, 57
1, 227475, Control_c, 0, 64, 54
1, 227491, Note_off_c, 0, 65, 35
1, 227513, Control_c, 0, 64, 52
1, 227550, Control_c, 0, 64, 50
1, 227558, Poly_aftertouch_c, 0, 81, 28
1, 227562, Note_on_c, 0, 81, 51
1, 227588, Control_c, 0, 64, 47
1, 227767, Poly_aftertouch_c, 0, 59, 24
1, 227818, Note_off_c, 0, 59, 37
1, 227832, Control_c, 0, 64, 45
1, 227845, Poly_aftertouch_c, 0, 64, 28
1, 227851, Note_on_c, 0, 64, 52
1, 227859, Poly_aftertouch_c, 0, 55, 28
1, 227867, Note_on_c, 0, 55, 42
1, 227911, Note_off_c, 0, 62, 61
1, 228094, Control_c, 0, 64, 49
1, 228111, Control_c, 0, 64, 53
1, 228131, Control_c, 0, 64, 57
1, 228148, Control_c, 0, 64, 61
1, 228168, Control_c, 0, 64, 65
1, 228187, Control_c, 0, 64, 70
1, 228206, Control_c, 0, 64, 78
1, 228224, Control_c, 0, 64, 92
1, 228243, Control_c, 0, 64, 127
1, 228432, Poly_aftertouch_c, 0, 61, 28
1, 228440, Note_on_c, 0, 61, 50
1, 228449, Control_c, 0, 64, 114
1, 228452, Note_off_c, 0, 55, 53
1, 228462, Poly_aftertouch_c, 0, 57, 28
1, 228468, Control_c, 0, 64, 95
1, 228470, Note_on_c, 0, 57, 38
1, 228486, Control_c, 0, 64, 81
1, 228505, Control_c, 0, 64, 70
1, 228525, Control_c, 0, 64, 63
1, 228538, Note_off_c, 0, 64, 60
1, 228542, Control_c, 0, 64, 58
1, 228561, Control_c, 0, 64, 55
1, 228580, Control_c, 0, 64, 53
1, 228599, Control_c, 0, 64, 51
1, 228618, Control_c, 0, 64, 48
1, 228637, Control_c, 0, 64, 45
1, 228656, Control_c, 0, 64, 41
1, 228674, Control_c, 0, 64, 37
1, 228711, Control_c, 0, 64, 33
1, 228785, Control_c, 0, 64, 29
1, 228842, Control_c, 0, 64, 24
1, 228879, Control_c, 0, 67, 39
1, 228916, Control_c, 0, 64, 20
1, 229104, Control_c, 0, 67, 45
1, 229259, Poly_aftertouch_c, 0, 64, 28
1, 229266, Note_on_c, 0, 64, 48
1, 229283, Poly_aftertouch_c, 0, 54, 28
1, 229284, Poly_aftertouch_c, 0, 57, 24
1, 229295, Note_on_c, 0, 54, 35
1, 229344, Note_off_c, 0, 61, 51
1, 229347, Control_c, 0, 64, 15
1, 229366, Control_c, 0, 64, 11
1, 229390, Note_off_c, 0, 57, 26
1, 229516, Control_c, 0, 64, 19
1, 229535, Control_c, 0, 64, 27
1, 229553, Control_c, 0, 64, 41
1, 229572, Control_c, 0, 64, 61
1, 229592, Control_c, 0, 64, 77
1, 229610, Control_c, 0, 64, 97
1, 229625, Note_off_c, 0, 54, 42
1, 229626, Control_c, 0, 64, 127
1, 230194, Poly_aftertouch_c, 0, 57, 28
1, 230205, Note_on_c, 0, 57, 30
1, 230217, Poly_aftertouch_c, 0, 53, 28
1, 230224, Note_on_c, 0, 53, 30
1, 230246, Control_c, 0, 64, 115
1, 230264, Control_c, 0, 64, 97
1, 230284, Control_c, 0, 64, 80
1, 230302, Control_c, 0, 64, 65
1, 230320, Control_c, 0, 64, 54
1, 230340, Control_c, 0, 64, 50
1, 230377, Control_c, 0, 64, 52
1, 230397, Control_c, 0, 64, 57
1, 230414, Control_c, 0, 64, 62
1, 230432, Control_c, 0, 64, 68
1, 230452, Control_c, 0, 64, 76
1, 230471, Control_c, 0, 64, 88
1, 230489, Control_c, 0, 64, 110
1, 230508, Control_c, 0, 64, 127
1, 230624, Note_off_c, 0, 64, 36
1, 231145, Control_c, 0, 67, 52
1, 231182, Control_c, 0, 67, 56
1, 231237, Control_c, 0, 67, 62
1, 231293, Control_c, 0, 67, 67
1, 231836, Poly_aftertouch_c, 0, 50, 28
1, 231842, Poly_aftertouch_c, 0, 62, 28
1, 231848, Note_on_c, 0, 62, 33
1, 231848, Note_on_c, 0, 50, 34
1, 231968, Control_c, 0, 64, 107
1, 231986, Control_c, 0, 64, 98
1, 232006, Control_c, 0, 64, 87
1, 232023, Control_c, 0, 64, 75
1, 232042, Control_c, 0, 64, 64
1, 232062, Control_c, 0, 64, 54
1, 232080, Control_c, 0, 64, 48
1, 232099, Control_c, 0, 64, 45
1, 232193, Control_c, 0, 64, 50
1, 232211, Control_c, 0, 64, 56
1, 232230, Control_c, 0, 64, 60
1, 232248, Control_c, 0, 64, 64
1, 232268, Control_c, 0, 64, 68
1, 232286, Control_c, 0, 64, 73
1, 232305, Control_c, 0, 64, 81
1, 232324, Control_c, 0, 64, 93
1, 232342, Control_c, 0, 64, 122
1, 232360, Control_c, 0, 64, 127
1, 232381, Poly_aftertouch_c, 0, 57, 24
1, 232407, Poly_aftertouch_c, 0, 53, 24
1, 232449, Note_off_c, 0, 57, 35
1, 232490, Note_off_c, 0, 53, 21
1, 232561, Note_off_c, 0, 81, 35
1, 232579, Note_off_c, 0, 62, 37
1, 232690, Note_off_c, 0, 69, 35
1, 232757, Note_off_c, 0, 50, 41
1, 233806, Poly_aftertouch_c, 0, 33, 28
1, 233812, Note_on_c, 0, 33, 43
1, 233851, Poly_aftertouch_c, 0, 69, 28
1, 233855, Note_on_c, 0, 69, 85
1, 233879, Control_c, 0, 64, 117
1, 233880, Poly_aftertouch_c, 0, 57, 28
1, 233887, Note_on_c, 0, 57, 57
1, 233887, Poly_aftertouch_c, 0, 61, 28
1, 233895, Note_on_c, 0, 61, 54
1, 233897, Control_c, 0, 64, 91
1, 233914, Control_c, 0, 64, 68
1, 233933, Control_c, 0, 64, 47
1, 233952, Control_c, 0, 64, 29
1, 233971, Control_c, 0, 64, 20
1, 233972, Control_c, 0, 67, 63
1, 234064, Control_c, 0, 64, 30
1, 234083, Control_c, 0, 64, 40
1, 234101, Control_c, 0, 64, 58
1, 234121, Control_c, 0, 64, 75
1, 234139, Control_c, 0, 64, 93
1, 234158, Control_c, 0, 64, 127
1, 234176, Control_c, 0, 67, 59
1, 234224, Note_off_c, 0, 33, 28
1, 234322, Note_off_c, 0, 57, 54
1, 234395, Poly_aftertouch_c, 0, 45, 28
1, 234402, Note_on_c, 0, 45, 51
1, 234425, Note_off_c, 0, 61, 43
1, 234510, Note_off_c, 0, 45, 56
1, 234678, Poly_aftertouch_c, 0, 52, 28
1, 234683, Note_on_c, 0, 52, 48
1, 234899, Poly_aftertouch_c, 0, 45, 28
1, 234906, Note_on_c, 0, 45, 36
1, 234925, Poly_aftertouch_c, 0, 50, 28
1, 234935, Note_on_c, 0, 50, 44
1, 234939, Poly_aftertouch_c, 0, 62, 28
1, 234944, Note_on_c, 0, 62, 55
1, 235000, Poly_aftertouch_c, 0, 52, 24
1, 235071, Note_off_c, 0, 52, 30
1, 235074, Poly_aftertouch_c, 0, 68, 28
1, 235077, Note_on_c, 0, 68, 71
1, 235112, Control_c, 0, 64, 111
1, 235116, Note_off_c, 0, 69, 57
1, 235131, Control_c, 0, 64, 99
1, 235150, Control_c, 0, 64, 87
1, 235169, Control_c, 0, 64, 76
1, 235188, Control_c, 0, 64, 68
1, 235206, Control_c, 0, 64, 61
1, 235225, Control_c, 0, 64, 57
1, 235243, Control_c, 0, 64, 55
1, 235262, Control_c, 0, 64, 52
1, 235282, Control_c, 0, 64, 50
1, 235299, Control_c, 0, 64, 47
1, 235319, Control_c, 0, 64, 43
1, 235337, Control_c, 0, 64, 39
1, 235357, Control_c, 0, 64, 34
1, 235374, Control_c, 0, 64, 30
1, 235388, Poly_aftertouch_c, 0, 66, 28
1, 235392, Note_on_c, 0, 66, 59
1, 235392, Control_c, 0, 64, 24
1, 235412, Control_c, 0, 64, 18
1, 235431, Control_c, 0, 64, 10
1, 235441, Note_off_c, 0, 68, 59
1, 235487, Control_c, 0, 64, 0
1, 235937, Control_c, 0, 64, 11
1, 235955, Control_c, 0, 64, 15
1, 235973, Control_c, 0, 64, 23
1, 235994, Control_c, 0, 64, 35
1, 236011, Control_c, 0, 64, 52
1, 236030, Control_c, 0, 64, 65
1, 236048, Control_c, 0, 64, 71
1, 236067, Control_c, 0, 64, 75
1, 236086, Control_c, 0, 64, 78
1, 236105, Control_c, 0, 64, 82
1, 236123, Control_c, 0, 64, 89
1, 236142, Control_c, 0, 64, 98
1, 236162, Control_c, 0, 64, 108
1, 236179, Control_c, 0, 64, 127
1, 236367, Control_c, 0, 67, 55
1, 236404, Control_c, 0, 67, 49
1, 236442, Control_c, 0, 67, 42
1, 236460, Control_c, 0, 67, 38
1, 236490, Note_off_c, 0, 50, 53
1, 236498, Control_c, 0, 67, 33
1, 236565, Note_off_c, 0, 62, 52
1, 236592, Note_off_c, 0, 45, 43
1, 237315, Note_on_c, 0, 69, 81
1, 237316, Poly_aftertouch_c, 0, 69, 28
1, 237320, Control_c, 0, 64, 109
1, 237322, Poly_aftertouch_c, 0, 33, 28
1, 237331, Note_on_c, 0, 33, 44
1, 237339, Control_c, 0, 64, 92
1, 237345, Poly_aftertouch_c, 0, 57, 28
1, 237345, Poly_aftertouch_c, 0, 61, 28
1, 237350, Note_on_c, 0, 57, 49
1, 237351, Note_on_c, 0, 61, 50
1, 237358, Control_c, 0, 64, 76
1, 237371, Note_off_c, 0, 66, 62
1, 237376, Control_c, 0, 64, 60
1, 237398, Control_c, 0, 64, 44
1, 237415, Control_c, 0, 64, 28
1, 237433, Control_c, 0, 64, 16
1, 237471, Control_c, 0, 67, 37
1, 237546, Control_c, 0, 64, 23
1, 237566, Control_c, 0, 64, 34
1, 237583, Control_c, 0, 64, 52
1, 237602, Control_c, 0, 64, 69
1, 237621, Control_c, 0, 64, 82
1, 237640, Control_c, 0, 64, 99
1, 237657, Control_c, 0, 64, 127
1, 237660, Note_off_c, 0, 33, 32
1, 237716, Poly_aftertouch_c, 0, 45, 28
1, 237720, Note_on_c, 0, 45, 56
1, 237804, Note_off_c, 0, 45, 54
1, 237984, Note_on_c, 0, 52, 61
1, 237984, Poly_aftertouch_c, 0, 52, 28
1, 237988, Note_off_c, 0, 57, 54
1, 238041, Note_off_c, 0, 61, 33
1, 238236, Poly_aftertouch_c, 0, 45, 28
1, 238242, Note_on_c, 0, 45, 46
1, 238283, Poly_aftertouch_c, 0, 54, 28
1, 238291, Note_on_c, 0, 54, 50
1, 238341, Poly_aftertouch_c, 0, 52, 24
1, 238375, Poly_aftertouch_c, 0, 59, 28
1, 238383, Note_on_c, 0, 59, 43
1, 238415, Poly_aftertouch_c, 0, 64, 28
1, 238422, Note_on_c, 0, 64, 71
1, 238450, Note_off_c, 0, 52, 26
1, 238456, Note_off_c, 0, 69, 58
1, 238483, Control_c, 0, 64, 101
1, 238501, Control_c, 0, 64, 87
1, 238520, Control_c, 0, 64, 75
1, 238538, Control_c, 0, 64, 64
1, 238557, Control_c, 0, 64, 55
1, 238576, Control_c, 0, 64, 50
1, 238594, Control_c, 0, 64, 46
1, 238613, Control_c, 0, 64, 41
1, 238632, Control_c, 0, 64, 36
1, 238649, Control_c, 0, 64, 31
1, 238688, Control_c, 0, 64, 26
1, 238799, Control_c, 0, 64, 22
1, 238812, Poly_aftertouch_c, 0, 62, 28
1, 238819, Note_on_c, 0, 62, 57
1, 238901, Note_off_c, 0, 64, 50
1, 238912, Control_c, 0, 64, 18
1, 239212, Control_c, 0, 64, 24
1, 239232, Control_c, 0, 64, 28
1, 239249, Control_c, 0, 64, 33
1, 239267, Control_c, 0, 64, 41
1, 239288, Control_c, 0, 64, 52
1, 239306, Control_c, 0, 64, 62
1, 239324, Control_c, 0, 64, 67
1, 239343, Control_c, 0, 64, 70
1, 239362, Control_c, 0, 64, 73
1, 239380, Control_c, 0, 64, 78
1, 239400, Control_c, 0, 64, 87
1, 239418, Control_c, 0, 64, 100
1, 239437, Control_c, 0, 64, 127
1, 239500, Note_off_c, 0, 59, 35
1, 239584, Note_off_c, 0, 54, 34
1, 239716, Note_off_c, 0, 45, 34
1, 240355, Poly_aftertouch_c, 0, 66, 28
1, 240359, Note_on_c, 0, 66, 77
1, 240373, Control_c, 0, 64, 118
1, 240378, Note_off_c, 0, 62, 62
1, 240389, Poly_aftertouch_c, 0, 33, 28
1, 240389, Control_c, 0, 64, 99
1, 240391, Poly_aftertouch_c, 0, 57, 28
1, 240394, Note_on_c, 0, 33, 42
1, 240396, Note_on_c, 0, 57, 56
1, 240410, Control_c, 0, 64, 83
1, 240429, Control_c, 0, 64, 67
1, 240447, Control_c, 0, 64, 51
1, 240467, Control_c, 0, 64, 36
1, 240485, Control_c, 0, 64, 24
1, 240504, Control_c, 0, 64, 20
1, 240579, Control_c, 0, 64, 24
1, 240597, Control_c, 0, 64, 30
1, 240615, Control_c, 0, 64, 40
1, 240635, Control_c, 0, 64, 57
1, 240652, Control_c, 0, 64, 71
1, 240672, Control_c, 0, 64, 83
1, 240690, Control_c, 0, 64, 96
1, 240694, Note_off_c, 0, 33, 37
1, 240710, Control_c, 0, 64, 115
1, 240729, Control_c, 0, 64, 127
1, 240827, Poly_aftertouch_c, 0, 45, 28
1, 240828, Note_on_c, 0, 45, 52
1, 240927, Note_off_c, 0, 45, 51
1, 241106, Poly_aftertouch_c, 0, 49, 28
1, 241112, Note_on_c, 0, 49, 47
1, 241365, Control_c, 0, 67, 41
1, 241388, Poly_aftertouch_c, 0, 61, 28
1, 241392, Note_on_c, 0, 61, 62
1, 241417, Poly_aftertouch_c, 0, 51, 28
1, 241423, Note_on_c, 0, 51, 42
1, 241435, Note_off_c, 0, 66, 55
1, 241447, Poly_aftertouch_c, 0, 45, 28
1, 241459, Note_on_c, 0, 45, 14
1, 241497, Control_c, 0, 64, 110
1, 241515, Control_c, 0, 64, 99
1, 241532, Control_c, 0, 64, 87
1, 241552, Control_c, 0, 64, 74
1, 241570, Control_c, 0, 64, 63
1, 241589, Control_c, 0, 64, 53
1, 241607, Control_c, 0, 64, 46
1, 241611, Note_off_c, 0, 49, 34
1, 241626, Control_c, 0, 64, 39
1, 241646, Control_c, 0, 64, 33
1, 241663, Control_c, 0, 64, 29
1, 242149, Poly_aftertouch_c, 0, 66, 28
1, 242154, Note_on_c, 0, 66, 56
1, 242187, Note_off_c, 0, 61, 53
1, 242263, Control_c, 0, 64, 35
1, 242281, Control_c, 0, 64, 44
1, 242302, Control_c, 0, 64, 57
1, 242319, Control_c, 0, 64, 68
1, 242338, Control_c, 0, 64, 78
1, 242357, Control_c, 0, 64, 93
1, 242375, Control_c, 0, 64, 127
1, 242436, Poly_aftertouch_c, 0, 45, 24
1, 242465, Note_off_c, 0, 51, 50
1, 242498, Note_off_c, 0, 66, 55
1, 242514, Note_off_c, 0, 45, 33
1, 242844, Control_c, 0, 67, 45
1, 243141, Poly_aftertouch_c, 0, 64, 28
1, 243146, Note_on_c, 0, 64, 47
1, 243163, Poly_aftertouch_c, 0, 40, 28
1, 243171, Note_on_c, 0, 40, 36
1, 243171, Poly_aftertouch_c, 0, 56, 28
1, 243176, Note_on_c, 0, 56, 38
1, 243180, Control_c, 0, 64, 112
1, 243199, Control_c, 0, 64, 100
1, 243217, Control_c, 0, 64, 89
1, 243224, Note_off_c, 0, 57, 38
1, 243237, Control_c, 0, 64, 78
1, 243255, Control_c, 0, 64, 69
1, 243274, Control_c, 0, 64, 61
1, 243292, Control_c, 0, 64, 56
1, 243312, Control_c, 0, 64, 54
1, 243331, Control_c, 0, 64, 51
1, 243348, Control_c, 0, 64, 49
1, 243368, Control_c, 0, 64, 47
1, 243386, Control_c, 0, 64, 44
1, 243405, Control_c, 0, 64, 41
1, 243461, Control_c, 0, 64, 37
1, 243555, Control_c, 0, 64, 33
1, 243782, Poly_aftertouch_c, 0, 47, 28
1, 243791, Note_on_c, 0, 47, 37
1, 244292, Poly_aftertouch_c, 0, 59, 28
1, 244296, Note_on_c, 0, 59, 39
1, 244302, Poly_aftertouch_c, 0, 52, 28
1, 244310, Note_on_c, 0, 52, 29
1, 244467, Note_off_c, 0, 64, 36
1, 244660, Control_c, 0, 64, 38
1, 244677, Control_c, 0, 64, 42
1, 244697, Control_c, 0, 64, 48
1, 244715, Control_c, 0, 64, 55
1, 244734, Control_c, 0, 64, 60
1, 244752, Control_c, 0, 64, 62
1, 244772, Control_c, 0, 64, 64
1, 244790, Control_c, 0, 64, 66
1, 244809, Control_c, 0, 64, 67
1, 244827, Control_c, 0, 64, 69
1, 244846, Control_c, 0, 64, 72
1, 244864, Control_c, 0, 64, 75
1, 244883, Control_c, 0, 64, 79
1, 244903, Control_c, 0, 64, 85
1, 244922, Control_c, 0, 64, 92
1, 244940, Control_c, 0, 64, 100
1, 244958, Control_c, 0, 64, 110
1, 244979, Control_c, 0, 64, 127
1, 245052, Control_c, 0, 67, 41
1, 245200, Poly_aftertouch_c, 0, 40, 22
1, 245221, Control_c, 0, 67, 37
1, 245224, Note_off_c, 0, 40, 29
1, 245276, Control_c, 0, 67, 30
1, 245296, Control_c, 0, 67, 24
1, 245314, Control_c, 0, 67, 18
1, 245333, Control_c, 0, 67, 12
1, 245363, Note_off_c, 0, 47, 37
1, 245391, Note_off_c, 0, 56, 37
1, 245452, Poly_aftertouch_c, 0, 52, 24
1, 245515, Note_off_c, 0, 52, 35
1, 245576, Control_c, 0, 67, 8
1, 245583, Note_off_c, 0, 59, 33
1, 245669, Control_c, 0, 67, 13
1, 245745, Control_c, 0, 67, 19
1, 245782, Control_c, 0, 67, 23
1, 245819, Control_c, 0, 67, 28
1, 245875, Control_c, 0, 67, 33
1, 245913, Control_c, 0, 67, 38
1, 245932, Control_c, 0, 67, 43
1, 245950, Control_c, 0, 67, 48
1, 245969, Control_c, 0, 67, 52
1, 245988, Control_c, 0, 67, 56
1, 246027, Control_c, 0, 67, 62
1, 246063, Control_c, 0, 67, 68
1, 246081, Control_c, 0, 67, 72
1, 246101, Control_c, 0, 67, 77
1, 246119, Control_c, 0, 67, 81
1, 246137, Control_c, 0, 67, 85
1, 246156, Control_c, 0, 67, 91
1, 246175, Control_c, 0, 67, 96
1, 246194, Control_c, 0, 67, 103
1, 246212, Control_c, 0, 67, 111
1, 246231, Control_c, 0, 67, 120
1, 246250, Control_c, 0, 67, 127
1, 246830, Control_c, 0, 64, 122
1, 246844, Poly_aftertouch_c, 0, 45, 28
1, 246850, Control_c, 0, 64, 100
1, 246853, Note_on_c, 0, 45, 34
1, 246868, Control_c, 0, 64, 81
1, 246887, Control_c, 0, 64, 63
1, 246894, Poly_aftertouch_c, 0, 81, 28
1, 246900, Note_on_c, 0, 81, 45
1, 246906, Control_c, 0, 64, 47
1, 246924, Control_c, 0, 64, 35
1, 246925, Poly_aftertouch_c, 0, 73, 28
1, 246929, Poly_aftertouch_c, 0, 69, 28
1, 246936, Note_on_c, 0, 69, 15
1, 246937, Note_on_c, 0, 73, 30
1, 246942, Control_c, 0, 64, 30
1, 247017, Control_c, 0, 64, 37
1, 247037, Control_c, 0, 64, 50
1, 247055, Control_c, 0, 64, 65
1, 247072, Control_c, 0, 64, 77
1, 247093, Control_c, 0, 64, 93
1, 247102, Note_off_c, 0, 81, 56
1, 247111, Control_c, 0, 64, 127
1, 247114, Note_off_c, 0, 45, 40
1, 247180, Poly_aftertouch_c, 0, 57, 28
1, 247188, Note_on_c, 0, 57, 40
1, 247229, Note_off_c, 0, 57, 60
1, 247247, Poly_aftertouch_c, 0, 81, 28
1, 247249, Note_on_c, 0, 81, 58
1, 247272, Note_off_c, 0, 73, 39
1, 247296, Note_off_c, 0, 69, 29
1, 247429, Poly_aftertouch_c, 0, 64, 28
1, 247435, Note_on_c, 0, 64, 33
1, 247716, Poly_aftertouch_c, 0, 80, 28
1, 247726, Note_on_c, 0, 80, 56
1, 247741, Poly_aftertouch_c, 0, 57, 28
1, 247744, Poly_aftertouch_c, 0, 69, 28
1, 247745, Note_on_c, 0, 69, 26
1, 247747, Poly_aftertouch_c, 0, 62, 28
1, 247754, Note_on_c, 0, 57, 23
1, 247756, Note_on_c, 0, 62, 37
1, 247757, Poly_aftertouch_c, 0, 74, 28
1, 247761, Note_off_c, 0, 81, 34
1, 247765, Note_on_c, 0, 74, 27
1, 247765, Control_c, 0, 64, 119
1, 247785, Control_c, 0, 64, 103
1, 247800, Poly_aftertouch_c, 0, 64, 24
1, 247804, Control_c, 0, 64, 91
1, 247823, Control_c, 0, 64, 79
1, 247842, Control_c, 0, 64, 68
1, 247860, Control_c, 0, 64, 59
1, 247861, Note_off_c, 0, 64, 35
1, 247874, Note_off_c, 0, 74, 0
1, 247874, Poly_aftertouch_c, 0, 74, 28
1, 247878, Control_c, 0, 64, 52
1, 247897, Control_c, 0, 64, 47
1, 247916, Control_c, 0, 64, 42
1, 247935, Control_c, 0, 64, 37
1, 247953, Control_c, 0, 64, 32
1, 247957, Poly_aftertouch_c, 0, 78, 28
1, 247965, Note_on_c, 0, 78, 46
1, 247969, Note_off_c, 0, 80, 46
1, 247970, Control_c, 0, 64, 27
1, 247991, Control_c, 0, 64, 23
1, 248178, Control_c, 0, 64, 29
1, 248198, Control_c, 0, 64, 34
1, 248216, Control_c, 0, 64, 41
1, 248234, Control_c, 0, 64, 52
1, 248255, Control_c, 0, 64, 62
1, 248272, Control_c, 0, 64, 68
1, 248291, Control_c, 0, 64, 70
1, 248309, Control_c, 0, 64, 73
1, 248328, Control_c, 0, 64, 78
1, 248346, Control_c, 0, 64, 85
1, 248365, Control_c, 0, 64, 94
1, 248385, Control_c, 0, 64, 107
1, 248403, Control_c, 0, 64, 127
1, 248589, Note_off_c, 0, 69, 32
1, 248613, Note_off_c, 0, 62, 34
1, 248634, Poly_aftertouch_c, 0, 74, 24
1, 248693, Note_off_c, 0, 57, 38
1, 248728, Poly_aftertouch_c, 0, 74, 0
1, 249395, Control_c, 0, 64, 121
1, 249405, Poly_aftertouch_c, 0, 45, 28
1, 249411, Note_on_c, 0, 45, 41
1, 249413, Control_c, 0, 64, 97
1, 249424, Poly_aftertouch_c, 0, 81, 28
1, 249427, Note_on_c, 0, 81, 64
1, 249431, Control_c, 0, 64, 77
1, 249452, Control_c, 0, 64, 60
1, 249453, Poly_aftertouch_c, 0, 73, 28
1, 249460, Note_on_c, 0, 73, 42
1, 249468, Control_c, 0, 64, 45
1, 249473, Poly_aftertouch_c, 0, 69, 28
1, 249478, Note_on_c, 0, 69, 22
1, 249486, Control_c, 0, 64, 36
1, 249521, Note_off_c, 0, 78, 44
1, 249563, Control_c, 0, 64, 40
1, 249581, Control_c, 0, 64, 51
1, 249602, Control_c, 0, 64, 65
1, 249619, Control_c, 0, 64, 76
1, 249638, Control_c, 0, 64, 92
1, 249647, Note_off_c, 0, 81, 59
1, 249650, Note_off_c, 0, 45, 39
1, 249657, Control_c, 0, 64, 127
1, 249686, Poly_aftertouch_c, 0, 57, 28
1, 249694, Note_on_c, 0, 57, 51
1, 249743, Note_off_c, 0, 57, 61
1, 249782, Poly_aftertouch_c, 0, 81, 28
1, 249784, Note_on_c, 0, 81, 79
1, 249868, Note_off_c, 0, 69, 53
1, 249879, Note_off_c, 0, 73, 53
1, 249939, Poly_aftertouch_c, 0, 64, 28
1, 249944, Note_on_c, 0, 64, 57
1, 250235, Poly_aftertouch_c, 0, 64, 24
1, 250375, Poly_aftertouch_c, 0, 76, 28
1, 250382, Note_on_c, 0, 76, 62
1, 250385, Poly_aftertouch_c, 0, 66, 28
1, 250393, Note_on_c, 0, 66, 40
1, 250396, Poly_aftertouch_c, 0, 57, 28
1, 250405, Note_on_c, 0, 57, 36
1, 250413, Poly_aftertouch_c, 0, 71, 28
1, 250420, Note_on_c, 0, 71, 29
1, 250462, Control_c, 0, 64, 121
1, 250480, Control_c, 0, 64, 102
1, 250499, Control_c, 0, 64, 89
1, 250504, Poly_aftertouch_c, 0, 64, 22
1, 250506, Note_off_c, 0, 81, 40
1, 250518, Control_c, 0, 64, 77
1, 250537, Control_c, 0, 64, 67
1, 250546, Note_off_c, 0, 64, 19
1, 250554, Control_c, 0, 64, 59
1, 250573, Control_c, 0, 64, 53
1, 250593, Control_c, 0, 64, 49
1, 250611, Control_c, 0, 64, 44
1, 250630, Control_c, 0, 64, 38
1, 250649, Control_c, 0, 64, 31
1, 250668, Control_c, 0, 64, 24
1, 250686, Control_c, 0, 64, 19
1, 250696, Poly_aftertouch_c, 0, 74, 28
1, 250699, Note_on_c, 0, 74, 62
1, 250724, Control_c, 0, 64, 13
1, 250756, Note_off_c, 0, 76, 57
1, 250930, Control_c, 0, 64, 21
1, 250948, Control_c, 0, 64, 26
1, 250967, Control_c, 0, 64, 33
1, 250985, Control_c, 0, 64, 45
1, 251005, Control_c, 0, 64, 61
1, 251023, Control_c, 0, 64, 71
1, 251042, Control_c, 0, 64, 77
1, 251061, Control_c, 0, 64, 84
1, 251079, Control_c, 0, 64, 94
1, 251098, Control_c, 0, 64, 110
1, 251116, Control_c, 0, 64, 127
1, 251192, Control_c, 0, 67, 122
1, 251195, Note_off_c, 0, 71, 41
1, 251229, Control_c, 0, 67, 118
1, 251244, Note_off_c, 0, 66, 36
1, 251267, Control_c, 0, 67, 114
1, 251298, Note_off_c, 0, 57, 27
1, 251941, Control_c, 0, 67, 118
1, 251996, Poly_aftertouch_c, 0, 45, 28
1, 252002, Note_on_c, 0, 45, 38
1, 252034, Control_c, 0, 64, 114
1, 252053, Control_c, 0, 64, 97
1, 252073, Control_c, 0, 64, 80
1, 252090, Control_c, 0, 64, 63
1, 252097, Note_off_c, 0, 74, 61
1, 252103, Poly_aftertouch_c, 0, 78, 28
1, 252108, Note_on_c, 0, 78, 66
1, 252109, Control_c, 0, 64, 48
1, 252127, Control_c, 0, 64, 41
1, 252142, Note_on_c, 0, 69, 40
1, 252142, Poly_aftertouch_c, 0, 69, 28
1, 252203, Control_c, 0, 64, 45
1, 252221, Control_c, 0, 64, 55
1, 252240, Control_c, 0, 64, 66
1, 252260, Control_c, 0, 64, 76
1, 252278, Control_c, 0, 64, 89
1, 252296, Control_c, 0, 64, 115
1, 252308, Note_off_c, 0, 45, 41
1, 252314, Control_c, 0, 64, 127
1, 252318, Note_off_c, 0, 78, 64
1, 252374, Poly_aftertouch_c, 0, 57, 28
1, 252381, Note_on_c, 0, 57, 52
1, 252436, Note_off_c, 0, 57, 62
1, 252442, Poly_aftertouch_c, 0, 78, 28
1, 252448, Note_on_c, 0, 78, 76
1, 252588, Poly_aftertouch_c, 0, 61, 28
1, 252593, Note_on_c, 0, 61, 55
1, 252846, Poly_aftertouch_c, 0, 73, 28
1, 252850, Note_on_c, 0, 73, 80
1, 252862, Poly_aftertouch_c, 0, 57, 28
1, 252867, Note_on_c, 0, 57, 38
1, 252868, Poly_aftertouch_c, 0, 63, 28
1, 252876, Note_on_c, 0, 63, 50
1, 252915, Control_c, 0, 64, 103
1, 252932, Control_c, 0, 64, 86
1, 252952, Control_c, 0, 64, 70
1, 252970, Control_c, 0, 64, 56
1, 252987, Note_off_c, 0, 61, 37
1, 252988, Control_c, 0, 64, 42
1, 253008, Control_c, 0, 64, 29
1, 253025, Note_off_c, 0, 78, 58
1, 253025, Control_c, 0, 64, 16
1, 253101, Control_c, 0, 64, 0
1, 253195, Control_c, 0, 64, 12
1, 253213, Control_c, 0, 64, 20
1, 253232, Control_c, 0, 64, 30
1, 253250, Control_c, 0, 64, 47
1, 253270, Control_c, 0, 64, 66
1, 253289, Control_c, 0, 64, 77
1, 253307, Control_c, 0, 64, 87
1, 253326, Control_c, 0, 64, 98
1, 253345, Control_c, 0, 64, 127
1, 253473, Poly_aftertouch_c, 0, 78, 28
1, 253478, Note_on_c, 0, 78, 80
1, 253526, Note_off_c, 0, 73, 59
1, 253561, Note_off_c, 0, 63, 37
1, 253595, Note_off_c, 0, 57, 38
1, 253786, Note_off_c, 0, 78, 61
1, 254349, Poly_aftertouch_c, 0, 52, 28
1, 254356, Note_on_c, 0, 52, 30
1, 254425, Poly_aftertouch_c, 0, 76, 28
1, 254429, Note_on_c, 0, 76, 66
1, 254429, Control_c, 0, 64, 116
1, 254444, Poly_aftertouch_c, 0, 68, 28
1, 254448, Control_c, 0, 64, 101
1, 254452, Note_off_c, 0, 69, 47
1, 254452, Note_on_c, 0, 68, 50
1, 254468, Control_c, 0, 64, 87
1, 254487, Control_c, 0, 64, 75
1, 254505, Control_c, 0, 64, 63
1, 254523, Control_c, 0, 64, 53
1, 254543, Control_c, 0, 64, 46
1, 254560, Control_c, 0, 64, 40
1, 254580, Control_c, 0, 64, 33
1, 254599, Control_c, 0, 64, 27
1, 254617, Control_c, 0, 64, 22
1, 254637, Control_c, 0, 67, 122
1, 254654, Control_c, 0, 64, 18
1, 254692, Control_c, 0, 67, 126
1, 254989, Poly_aftertouch_c, 0, 59, 28
1, 254995, Note_on_c, 0, 59, 35
1, 255600, Poly_aftertouch_c, 0, 71, 28
1, 255605, Note_on_c, 0, 71, 47
1, 255625, Poly_aftertouch_c, 0, 64, 28
1, 255633, Note_on_c, 0, 64, 33
1, 255699, Note_off_c, 0, 76, 36
1, 255965, Control_c, 0, 64, 26
1, 255983, Control_c, 0, 64, 30
1, 256002, Control_c, 0, 64, 36
1, 256021, Control_c, 0, 64, 45
1, 256039, Control_c, 0, 64, 56
1, 256058, Control_c, 0, 64, 62
1, 256078, Control_c, 0, 64, 64
1, 256096, Control_c, 0, 64, 66
1, 256114, Control_c, 0, 64, 68
1, 256135, Control_c, 0, 64, 70
1, 256152, Control_c, 0, 64, 73
1, 256171, Control_c, 0, 64, 78
1, 256189, Control_c, 0, 64, 84
1, 256209, Control_c, 0, 64, 94
1, 256227, Control_c, 0, 64, 107
1, 256245, Control_c, 0, 64, 127
1, 256370, Poly_aftertouch_c, 0, 64, 24
1, 256414, Control_c, 0, 67, 122
1, 256443, Note_off_c, 0, 64, 33
1, 256451, Control_c, 0, 67, 118
1, 256489, Control_c, 0, 67, 111
1, 256526, Control_c, 0, 67, 107
1, 256582, Control_c, 0, 67, 103
1, 256609, Note_off_c, 0, 59, 29
1, 256620, Control_c, 0, 67, 94
1, 256638, Control_c, 0, 67, 89
1, 256658, Control_c, 0, 67, 85
1, 256676, Control_c, 0, 67, 80
1, 256696, Control_c, 0, 67, 75
1, 256713, Control_c, 0, 67, 69
1, 256733, Control_c, 0, 67, 63
1, 256751, Control_c, 0, 67, 57
1, 256770, Control_c, 0, 67, 50
1, 256778, Note_off_c, 0, 52, 31
1, 256789, Control_c, 0, 67, 44
1, 256807, Control_c, 0, 67, 37
1, 256827, Control_c, 0, 67, 30
1, 256844, Control_c, 0, 67, 23
1, 256863, Control_c, 0, 67, 15
1, 256882, Control_c, 0, 67, 8
1, 256900, Note_off_c, 0, 71, 34
1, 256919, Control_c, 0, 67, 0
1, 256944, Note_off_c, 0, 68, 36
1, 257538, Control_c, 0, 67, 9
1, 257593, Control_c, 0, 67, 15
1, 257631, Control_c, 0, 67, 20
1, 257668, Control_c, 0, 67, 26
1, 257687, Control_c, 0, 67, 33
1, 257705, Control_c, 0, 67, 41
1, 257725, Control_c, 0, 67, 49
1, 257743, Control_c, 0, 67, 55
1, 257762, Control_c, 0, 67, 62
1, 257780, Control_c, 0, 67, 68
1, 257799, Control_c, 0, 67, 74
1, 257818, Control_c, 0, 67, 79
1, 257836, Control_c, 0, 67, 86
1, 257855, Control_c, 0, 67, 92
1, 257874, Control_c, 0, 67, 98
1, 257894, Control_c, 0, 67, 104
1, 257911, Control_c, 0, 67, 110
1, 257930, Control_c, 0, 67, 115
1, 257949, Control_c, 0, 67, 121
1, 257968, Control_c, 0, 67, 127
1, 258155, Control_c, 0, 64, 112
1, 258174, Control_c, 0, 64, 99
1, 258192, Control_c, 0, 64, 83
1, 258203, Poly_aftertouch_c, 0, 33, 28
1, 258209, Note_on_c, 0, 33, 34
1, 258210, Control_c, 0, 64, 67
1, 258230, Control_c, 0, 64, 51
1, 258249, Control_c, 0, 64, 37
1, 258267, Control_c, 0, 64, 27
1, 258286, Control_c, 0, 64, 22
1, 258380, Control_c, 0, 64, 28
1, 258398, Control_c, 0, 64, 37
1, 258418, Control_c, 0, 64, 52
1, 258436, Control_c, 0, 64, 67
1, 258455, Control_c, 0, 64, 77
1, 258473, Control_c, 0, 64, 89
1, 258492, Control_c, 0, 64, 104
1, 258509, Control_c, 0, 64, 127
1, 258611, Note_off_c, 0, 33, 37
1, 258952, Poly_aftertouch_c, 0, 45, 28
1, 258961, Note_on_c, 0, 45, 34
1, 259083, Note_off_c, 0, 45, 49
1, 259163, Poly_aftertouch_c, 0, 66, 28
1, 259171, Note_on_c, 0, 66, 46
1, 259195, Poly_aftertouch_c, 0, 57, 28
1, 259209, Note_on_c, 0, 57, 15
1, 259343, Poly_aftertouch_c, 0, 49, 28
1, 259348, Note_on_c, 0, 49, 43
1, 259588, Poly_aftertouch_c, 0, 61, 28
1, 259595, Note_on_c, 0, 61, 52
1, 259611, Poly_aftertouch_c, 0, 51, 28
1, 259617, Note_on_c, 0, 51, 35
1, 259725, Note_off_c, 0, 66, 35
1, 259737, Note_off_c, 0, 49, 26
1, 259844, Note_off_c, 0, 61, 52
1, 259898, Poly_aftertouch_c, 0, 68, 28
1, 259906, Note_on_c, 0, 68, 55
1, 260233, Control_c, 0, 64, 102
1, 260250, Poly_aftertouch_c, 0, 45, 28
1, 260252, Control_c, 0, 64, 82
1, 260257, Note_on_c, 0, 45, 37
1, 260257, Poly_aftertouch_c, 0, 61, 28
1, 260262, Note_on_c, 0, 61, 44
1, 260270, Control_c, 0, 64, 65
1, 260288, Control_c, 0, 64, 51
1, 260308, Control_c, 0, 64, 42
1, 260326, Control_c, 0, 64, 38
1, 260352, Note_off_c, 0, 68, 43
1, 260382, Control_c, 0, 64, 40
1, 260402, Control_c, 0, 64, 47
1, 260421, Control_c, 0, 64, 56
1, 260438, Control_c, 0, 64, 64
1, 260457, Control_c, 0, 64, 70
1, 260476, Control_c, 0, 64, 77
1, 260495, Control_c, 0, 64, 85
1, 260513, Control_c, 0, 64, 95
1, 260532, Control_c, 0, 64, 108
1, 260551, Control_c, 0, 64, 127
1, 260601, Note_off_c, 0, 51, 39
1, 260639, Note_off_c, 0, 45, 31
1, 260696, Poly_aftertouch_c, 0, 66, 28
1, 260704, Note_on_c, 0, 66, 43
1, 260740, Note_off_c, 0, 61, 34
1, 260993, Note_off_c, 0, 57, 37
1, 261016, Note_off_c, 0, 66, 35
1, 261244, Control_c, 0, 64, 116
1, 261262, Control_c, 0, 64, 106
1, 261271, Poly_aftertouch_c, 0, 40, 28
1, 261277, Poly_aftertouch_c, 0, 47, 28
1, 261279, Note_on_c, 0, 40, 42
1, 261282, Control_c, 0, 64, 93
1, 261287, Note_on_c, 0, 47, 46
1, 261300, Control_c, 0, 64, 78
1, 261318, Control_c, 0, 64, 64
1, 261336, Control_c, 0, 64, 49
1, 261356, Control_c, 0, 64, 37
1, 261375, Control_c, 0, 64, 30
1, 261487, Control_c, 0, 64, 40
1, 261488, Control_c, 0, 67, 123
1, 261507, Control_c, 0, 64, 50
1, 261524, Control_c, 0, 64, 62
1, 261525, Control_c, 0, 67, 118
1, 261543, Control_c, 0, 64, 69
1, 261544, Control_c, 0, 67, 114
1, 261564, Control_c, 0, 64, 75
1, 261565, Control_c, 0, 67, 109
1, 261581, Control_c, 0, 64, 81
1, 261582, Control_c, 0, 67, 105
1, 261599, Control_c, 0, 64, 90
1, 261603, Control_c, 0, 67, 100
1, 261618, Control_c, 0, 64, 101
1, 261619, Control_c, 0, 67, 95
1, 261638, Control_c, 0, 64, 119
1, 261639, Control_c, 0, 67, 90
1, 261655, Control_c, 0, 64, 127
1, 261656, Control_c, 0, 67, 85
1, 261663, Note_off_c, 0, 40, 39
1, 261674, Control_c, 0, 67, 80
1, 261692, Control_c, 0, 67, 76
1, 261712, Control_c, 0, 67, 72
1, 261726, Note_off_c, 0, 47, 47
1, 261749, Control_c, 0, 67, 65
1, 261768, Control_c, 0, 67, 61
1, 261786, Control_c, 0, 67, 57
1, 261824, Control_c, 0, 67, 51
1, 261861, Control_c, 0, 67, 46
1, 261899, Control_c, 0, 67, 40
1, 261955, Control_c, 0, 67, 36
1, 261990, Poly_aftertouch_c, 0, 64, 28
1, 261994, Note_on_c, 0, 64, 54
1, 261994, Poly_aftertouch_c, 0, 56, 28
1, 262003, Note_on_c, 0, 56, 45
1, 262132, Note_off_c, 0, 56, 57
1, 262297, Note_off_c, 0, 64, 61
1, 262410, Poly_aftertouch_c, 0, 59, 28
1, 262414, Note_on_c, 0, 59, 68
1, 262415, Note_on_c, 0, 52, 65
1, 262416, Poly_aftertouch_c, 0, 52, 28
1, 262559, Note_off_c, 0, 52, 55
1, 262591, Control_c, 0, 67, 26
1, 262609, Control_c, 0, 67, 15
1, 262629, Note_off_c, 0, 59, 60
1, 262647, Control_c, 0, 67, 0
1, 262739, Poly_aftertouch_c, 0, 76, 28
1, 262741, Note_on_c, 0, 76, 80
1, 262757, Poly_aftertouch_c, 0, 68, 28
1, 262765, Note_on_c, 0, 68, 59
1, 262871, Note_off_c, 0, 68, 60
1, 263049, Note_off_c, 0, 76, 62
1, 263156, Poly_aftertouch_c, 0, 71, 28
1, 263160, Note_on_c, 0, 71, 86
1, 263166, Poly_aftertouch_c, 0, 64, 28
1, 263169, Note_on_c, 0, 64, 78
1, 263409, Note_off_c, 0, 64, 46
1, 263554, Note_off_c, 0, 71, 48
1, 263725, Poly_aftertouch_c, 0, 88, 28
1, 263729, Note_on_c, 0, 88, 94
1, 263734, Poly_aftertouch_c, 0, 80, 28
1, 263739, Note_on_c, 0, 80, 76
1, 263743, Poly_aftertouch_c, 0, 76, 28
1, 263745, Note_on_c, 0, 76, 71
1, 263921, Note_off_c, 0, 80, 58
1, 263933, Note_off_c, 0, 88, 61
1, 264677, Poly_aftertouch_c, 0, 83, 28
1, 264680, Note_on_c, 0, 83, 88
1, 264697, Poly_aftertouch_c, 0, 64, 28
1, 264700, Note_on_c, 0, 64, 70
1, 264700, Note_on_c, 0, 77, 78
1, 264701, Poly_aftertouch_c, 0, 74, 28
1, 264702, Poly_aftertouch_c, 0, 77, 28
1, 264705, Note_on_c, 0, 74, 57
1, 264763, Control_c, 0, 64, 92
1, 264777, Note_off_c, 0, 76, 47
1, 264781, Control_c, 0, 64, 68
1, 264799, Control_c, 0, 64, 49
1, 264819, Control_c, 0, 64, 37
1, 264837, Control_c, 0, 64, 30
1, 264857, Control_c, 0, 64, 26
1, 264931, Control_c, 0, 64, 40
1, 264950, Control_c, 0, 64, 60
1, 264969, Control_c, 0, 64, 80
1, 264987, Control_c, 0, 64, 127
1, 265100, Note_off_c, 0, 74, 50
1, 265454, Note_off_c, 0, 77, 45
1, 265468, Poly_aftertouch_c, 0, 86, 28
1, 265470, Note_on_c, 0, 86, 83
1, 265473, Poly_aftertouch_c, 0, 71, 28
1, 265477, Note_on_c, 0, 71, 58
1, 265480, Poly_aftertouch_c, 0, 74, 28
1, 265485, Note_on_c, 0, 74, 59
1, 265495, Note_off_c, 0, 83, 60
1, 265721, Note_off_c, 0, 86, 61
1, 266004, Poly_aftertouch_c, 0, 81, 28
1, 266008, Note_on_c, 0, 81, 80
1, 266011, Poly_aftertouch_c, 0, 76, 28
1, 266014, Note_on_c, 0, 76, 71
1, 266018, Poly_aftertouch_c, 0, 72, 28
1, 266022, Note_on_c, 0, 72, 59
1, 266035, Control_c, 0, 64, 88
1, 266054, Note_off_c, 0, 71, 56
1, 266054, Control_c, 0, 64, 66
1, 266073, Control_c, 0, 64, 55
1, 266097, Note_off_c, 0, 74, 54
1, 266129, Control_c, 0, 64, 59
1, 266148, Control_c, 0, 64, 66
1, 266166, Control_c, 0, 64, 75
1, 266186, Control_c, 0, 64, 88
1, 266204, Control_c, 0, 64, 127
1, 266312, Note_off_c, 0, 72, 45
1, 266402, Note_off_c, 0, 76, 57
1, 266427, Poly_aftertouch_c, 0, 84, 28
1, 266431, Note_on_c, 0, 84, 83
1, 266434, Note_off_c, 0, 81, 59
1, 266438, Poly_aftertouch_c, 0, 69, 28
1, 266442, Note_on_c, 0, 69, 64
1, 266446, Poly_aftertouch_c, 0, 72, 28
1, 266450, Note_on_c, 0, 72, 72
1, 266541, Note_off_c, 0, 84, 63
1, 266757, Poly_aftertouch_c, 0, 71, 28
1, 266758, Poly_aftertouch_c, 0, 79, 28
1, 266762, Note_on_c, 0, 79, 82
1, 266764, Note_on_c, 0, 71, 69
1, 266765, Poly_aftertouch_c, 0, 74, 28
1, 266765, Control_c, 0, 64, 100
1, 266768, Note_on_c, 0, 74, 78
1, 266785, Control_c, 0, 64, 71
1, 266790, Note_off_c, 0, 69, 53
1, 266802, Control_c, 0, 64, 53
1, 266808, Note_off_c, 0, 72, 56
1, 266822, Control_c, 0, 64, 46
1, 266859, Control_c, 0, 64, 48
1, 266879, Control_c, 0, 64, 56
1, 266896, Control_c, 0, 64, 65
1, 266916, Control_c, 0, 64, 73
1, 266933, Control_c, 0, 64, 83
1, 266953, Control_c, 0, 64, 101
1, 266971, Control_c, 0, 64, 127
1, 267040, Note_off_c, 0, 74, 61
1, 267061, Note_off_c, 0, 71, 52
1, 267078, Poly_aftertouch_c, 0, 71, 28
1, 267082, Poly_aftertouch_c, 0, 83, 28
1, 267087, Note_on_c, 0, 83, 86
1, 267089, Note_on_c, 0, 71, 54
1, 267092, Note_on_c, 0, 67, 69
1, 267092, Poly_aftertouch_c, 0, 67, 28
1, 267102, Note_off_c, 0, 79, 51
1, 267119, Note_off_c, 0, 64, 60
1, 267189, Note_off_c, 0, 83, 62
1, 267556, Poly_aftertouch_c, 0, 72, 28
1, 267557, Poly_aftertouch_c, 0, 77, 28
1, 267559, Note_on_c, 0, 77, 80
1, 267562, Note_on_c, 0, 72, 73
1, 267562, Poly_aftertouch_c, 0, 64, 28
1, 267566, Note_on_c, 0, 64, 53
1, 267566, Poly_aftertouch_c, 0, 69, 28
1, 267569, Note_on_c, 0, 69, 60
1, 267590, Control_c, 0, 64, 101
1, 267607, Control_c, 0, 64, 74
1, 267627, Control_c, 0, 64, 52
1, 267637, Note_off_c, 0, 71, 54
1, 267643, Control_c, 0, 64, 32
1, 267645, Note_off_c, 0, 67, 56
1, 267664, Control_c, 0, 64, 18
1, 267681, Control_c, 0, 64, 12
1, 267757, Control_c, 0, 64, 16
1, 267777, Control_c, 0, 64, 25
1, 267795, Control_c, 0, 64, 35
1, 267814, Control_c, 0, 64, 50
1, 267832, Control_c, 0, 64, 66
1, 267851, Control_c, 0, 64, 77
1, 267869, Control_c, 0, 64, 90
1, 267888, Control_c, 0, 64, 110
1, 267908, Control_c, 0, 64, 127
1, 268061, Poly_aftertouch_c, 0, 81, 28
1, 268063, Note_on_c, 0, 81, 74
1, 268071, Note_off_c, 0, 72, 47
1, 268089, Note_off_c, 0, 77, 58
1, 268465, Poly_aftertouch_c, 0, 79, 28
1, 268470, Note_on_c, 0, 79, 71
1, 268470, Poly_aftertouch_c, 0, 71, 28
1, 268474, Note_on_c, 0, 71, 52
1, 268477, Poly_aftertouch_c, 0, 74, 28
1, 268482, Note_on_c, 0, 74, 57
1, 268506, Control_c, 0, 64, 89
1, 268526, Control_c, 0, 64, 64
1, 268543, Note_off_c, 0, 81, 54
1, 268543, Control_c, 0, 64, 45
1, 268562, Control_c, 0, 64, 35
1, 268592, Note_off_c, 0, 69, 54
1, 268656, Control_c, 0, 64, 46
1, 268675, Control_c, 0, 64, 58
1, 268693, Control_c, 0, 64, 68
1, 268713, Control_c, 0, 64, 75
1, 268731, Control_c, 0, 64, 83
1, 268750, Control_c, 0, 64, 96
1, 268769, Control_c, 0, 64, 124
1, 268854, Poly_aftertouch_c, 0, 77, 28
1, 268857, Note_on_c, 0, 77, 76
1, 268861, Note_off_c, 0, 74, 58
1, 268866, Note_on_c, 0, 69, 57
1, 268869, Note_on_c, 0, 72, 50
1, 268869, Poly_aftertouch_c, 0, 69, 28
1, 268869, Poly_aftertouch_c, 0, 72, 28
1, 268893, Note_off_c, 0, 79, 56
1, 268936, Note_off_c, 0, 71, 35
1, 268992, Note_off_c, 0, 77, 59
1, 269161, Control_c, 0, 64, 99
1, 269164, Poly_aftertouch_c, 0, 76, 28
1, 269171, Note_on_c, 0, 76, 68
1, 269180, Control_c, 0, 64, 71
1, 269186, Note_on_c, 0, 67, 54
1, 269187, Note_off_c, 0, 72, 51
1, 269187, Note_on_c, 0, 71, 64
1, 269187, Poly_aftertouch_c, 0, 67, 28
1, 269187, Poly_aftertouch_c, 0, 71, 28
1, 269199, Control_c, 0, 64, 50
1, 269201, Note_off_c, 0, 69, 53
1, 269217, Control_c, 0, 64, 36
1, 269236, Control_c, 0, 64, 32
1, 269292, Control_c, 0, 64, 47
1, 269311, Control_c, 0, 64, 62
1, 269330, Control_c, 0, 64, 74
1, 269349, Control_c, 0, 64, 88
1, 269367, Control_c, 0, 64, 115
1, 269386, Control_c, 0, 64, 127
1, 269471, Note_off_c, 0, 71, 60
1, 269478, Control_c, 0, 64, 96
1, 269494, Poly_aftertouch_c, 0, 69, 28
1, 269494, Poly_aftertouch_c, 0, 75, 28
1, 269498, Note_on_c, 0, 69, 58
1, 269498, Control_c, 0, 64, 69
1, 269501, Note_on_c, 0, 75, 68
1, 269517, Poly_aftertouch_c, 0, 65, 28
1, 269518, Note_off_c, 0, 76, 54
1, 269518, Control_c, 0, 64, 50
1, 269522, Note_off_c, 0, 64, 38
1, 269527, Note_on_c, 0, 65, 43
1, 269537, Control_c, 0, 64, 40
1, 269562, Note_off_c, 0, 67, 59
1, 269574, Control_c, 0, 64, 43
1, 269592, Control_c, 0, 64, 55
1, 269610, Control_c, 0, 64, 68
1, 269629, Control_c, 0, 64, 80
1, 269648, Control_c, 0, 64, 98
1, 269665, Note_off_c, 0, 69, 57
1, 269666, Control_c, 0, 64, 127
1, 269835, Control_c, 0, 64, 97
1, 269856, Control_c, 0, 64, 68
1, 269873, Poly_aftertouch_c, 0, 76, 28
1, 269873, Control_c, 0, 64, 45
1, 269880, Note_on_c, 0, 76, 64
1, 269880, Poly_aftertouch_c, 0, 68, 28
1, 269888, Note_on_c, 0, 68, 48
1, 269889, Poly_aftertouch_c, 0, 64, 28
1, 269891, Note_off_c, 0, 65, 58
1, 269891, Control_c, 0, 64, 30
1, 269896, Note_on_c, 0, 64, 49
1, 269919, Note_off_c, 0, 75, 61
1, 269967, Control_c, 0, 64, 45
1, 269986, Control_c, 0, 64, 63
1, 269989, Note_off_c, 0, 68, 62
1, 270005, Control_c, 0, 64, 77
1, 270022, Control_c, 0, 64, 94
1, 270041, Control_c, 0, 64, 127
1, 270077, Note_off_c, 0, 64, 60
1, 270366, Poly_aftertouch_c, 0, 79, 28
1, 270370, Note_on_c, 0, 79, 79
1, 270392, Poly_aftertouch_c, 0, 73, 28
1, 270397, Note_off_c, 0, 76, 62
1, 270400, Note_on_c, 0, 73, 60
1, 270415, Control_c, 0, 64, 118
1, 270427, Poly_aftertouch_c, 0, 57, 28
1, 270432, Note_on_c, 0, 57, 44
1, 270433, Control_c, 0, 64, 84
1, 270453, Control_c, 0, 64, 63
1, 270472, Control_c, 0, 64, 46
1, 270491, Control_c, 0, 64, 36
1, 270510, Control_c, 0, 64, 32
1, 270584, Control_c, 0, 64, 42
1, 270603, Control_c, 0, 64, 55
1, 270621, Control_c, 0, 64, 66
1, 270640, Control_c, 0, 64, 75
1, 270659, Control_c, 0, 64, 85
1, 270679, Control_c, 0, 64, 102
1, 270696, Control_c, 0, 64, 127
1, 270885, Poly_aftertouch_c, 0, 78, 28
1, 270893, Note_on_c, 0, 78, 84
1, 270900, Poly_aftertouch_c, 0, 50, 28
1, 270909, Note_off_c, 0, 73, 59
1, 270909, Note_on_c, 0, 50, 52
1, 270909, Poly_aftertouch_c, 0, 72, 28
1, 270912, Note_on_c, 0, 72, 63
1, 270921, Control_c, 0, 64, 101
1, 270940, Control_c, 0, 64, 71
1, 270949, Note_off_c, 0, 57, 36
1, 270958, Note_off_c, 0, 79, 61
1, 270958, Control_c, 0, 64, 50
1, 270977, Control_c, 0, 64, 38
1, 271033, Control_c, 0, 64, 52
1, 271053, Control_c, 0, 64, 68
1, 271072, Control_c, 0, 64, 85
1, 271089, Control_c, 0, 64, 124
1, 271235, Note_off_c, 0, 78, 62
1, 271267, Note_off_c, 0, 72, 45
1, 271284, Poly_aftertouch_c, 0, 77, 28
1, 271286, Note_on_c, 0, 77, 81
1, 271288, Poly_aftertouch_c, 0, 43, 28
1, 271291, Poly_aftertouch_c, 0, 71, 28
1, 271294, Note_on_c, 0, 71, 68
1, 271314, Control_c, 0, 64, 104
1, 271318, Note_on_c, 0, 43, 25
1, 271324, Note_off_c, 0, 50, 36
1, 271332, Control_c, 0, 64, 71
1, 271351, Control_c, 0, 64, 50
1, 271370, Control_c, 0, 64, 45
1, 271389, Control_c, 0, 64, 48
1, 271408, Control_c, 0, 64, 58
1, 271426, Control_c, 0, 64, 72
1, 271445, Control_c, 0, 64, 93
1, 271465, Control_c, 0, 64, 127
1, 271576, Control_c, 0, 64, 118
1, 271589, Note_off_c, 0, 71, 60
1, 271594, Control_c, 0, 64, 76
1, 271598, Note_off_c, 0, 43, 52
1, 271599, Poly_aftertouch_c, 0, 76, 28
1, 271602, Note_on_c, 0, 76, 81
1, 271607, Poly_aftertouch_c, 0, 70, 28
1, 271610, Note_on_c, 0, 70, 71
1, 271612, Poly_aftertouch_c, 0, 36, 28
1, 271613, Control_c, 0, 64, 51
1, 271615, Note_off_c, 0, 77, 57
1, 271616, Note_on_c, 0, 36, 54
1, 271632, Control_c, 0, 64, 35
1, 271670, Control_c, 0, 64, 39
1, 271688, Control_c, 0, 64, 55
1, 271707, Control_c, 0, 64, 77
1, 271726, Control_c, 0, 64, 124
1, 271728, Note_off_c, 0, 76, 64
1, 271876, Note_off_c, 0, 70, 50
1, 271884, Poly_aftertouch_c, 0, 75, 28
1, 271888, Note_on_c, 0, 75, 80
1, 271892, Control_c, 0, 64, 94
1, 271896, Poly_aftertouch_c, 0, 69, 28
1, 271900, Note_on_c, 0, 69, 71
1, 271906, Poly_aftertouch_c, 0, 41, 28
1, 271909, Note_on_c, 0, 41, 53
1, 271911, Control_c, 0, 64, 63
1, 271921, Note_off_c, 0, 36, 49
1, 271932, Control_c, 0, 64, 38
1, 271951, Control_c, 0, 64, 27
1, 271989, Control_c, 0, 64, 31
1, 272007, Control_c, 0, 64, 46
1, 272026, Control_c, 0, 64, 69
1, 272044, Control_c, 0, 64, 95
1, 272063, Control_c, 0, 64, 127
1, 272175, Control_c, 0, 64, 91
1, 272184, Note_off_c, 0, 69, 58
1, 272194, Control_c, 0, 64, 60
1, 272195, Note_off_c, 0, 41, 59
1, 272197, Poly_aftertouch_c, 0, 68, 28
1, 272198, Poly_aftertouch_c, 0, 74, 28
1, 272200, Note_on_c, 0, 68, 66
1, 272200, Note_on_c, 0, 74, 80
1, 272213, Control_c, 0, 64, 32
1, 272214, Poly_aftertouch_c, 0, 40, 28
1, 272220, Note_on_c, 0, 40, 42
1, 272230, Note_off_c, 0, 75, 63
1, 272232, Control_c, 0, 64, 19
1, 272271, Note_off_c, 0, 68, 56
1, 272287, Control_c, 0, 64, 34
1, 272306, Control_c, 0, 64, 56
1, 272316, Poly_aftertouch_c, 0, 38, 28
1, 272317, Poly_aftertouch_c, 0, 38, 0
1, 272324, Control_c, 0, 64, 79
1, 272326, Note_off_c, 0, 74, 60
1, 272344, Control_c, 0, 64, 122
1, 272362, Control_c, 0, 64, 127
1, 272537, Poly_aftertouch_c, 0, 73, 28
1, 272542, Note_on_c, 0, 73, 84
1, 272548, Poly_aftertouch_c, 0, 67, 28
1, 272556, Note_on_c, 0, 67, 67
1, 272557, Poly_aftertouch_c, 0, 45, 28
1, 272564, Note_on_c, 0, 45, 45
1, 272568, Control_c, 0, 64, 114
1, 272587, Control_c, 0, 64, 74
1, 272600, Note_off_c, 0, 40, 55
1, 272605, Control_c, 0, 64, 42
1, 272624, Control_c, 0, 64, 12
1, 272718, Control_c, 0, 64, 25
1, 272737, Control_c, 0, 64, 40
1, 272755, Control_c, 0, 64, 62
1, 272775, Control_c, 0, 64, 80
1, 272793, Control_c, 0, 64, 109
1, 272811, Control_c, 0, 64, 127
1, 272943, Control_c, 0, 64, 93
1, 272950, Poly_aftertouch_c, 0, 74, 28
1, 272954, Poly_aftertouch_c, 0, 38, 28
1, 272955, Note_on_c, 0, 74, 80
1, 272959, Note_off_c, 0, 67, 64
1, 272960, Note_on_c, 0, 38, 50
1, 272961, Control_c, 0, 64, 62
1, 272963, Poly_aftertouch_c, 0, 66, 28
1, 272969, Note_on_c, 0, 66, 57
1, 272980, Control_c, 0, 64, 35
1, 272991, Note_off_c, 0, 45, 36
1, 272998, Control_c, 0, 64, 19
1, 273055, Control_c, 0, 64, 26
1, 273074, Note_off_c, 0, 73, 51
1, 273074, Control_c, 0, 64, 43
1, 273092, Control_c, 0, 64, 64
1, 273111, Control_c, 0, 64, 83
1, 273131, Control_c, 0, 64, 127
1, 273147, Note_off_c, 0, 66, 57
1, 273222, Note_off_c, 0, 74, 56
1, 273274, Poly_aftertouch_c, 0, 71, 28
1, 273277, Poly_aftertouch_c, 0, 31, 28
1, 273278, Control_c, 0, 64, 81
1, 273279, Note_on_c, 0, 71, 68
1, 273281, Note_on_c, 0, 31, 49
1, 273281, Poly_aftertouch_c, 0, 65, 28
1, 273288, Note_on_c, 0, 65, 48
1, 273298, Control_c, 0, 64, 53
1, 273311, Note_off_c, 0, 38, 36
1, 273316, Control_c, 0, 64, 24
1, 273335, Control_c, 0, 64, 10
1, 273392, Control_c, 0, 64, 23
1, 273411, Control_c, 0, 64, 38
1, 273430, Control_c, 0, 64, 58
1, 273448, Control_c, 0, 64, 73
1, 273467, Control_c, 0, 64, 87
1, 273485, Control_c, 0, 64, 107
1, 273504, Control_c, 0, 64, 127
1, 273542, Control_c, 0, 64, 116
1, 273557, Note_off_c, 0, 65, 61
1, 273559, Control_c, 0, 64, 85
1, 273572, Note_off_c, 0, 71, 60
1, 273572, Poly_aftertouch_c, 0, 72, 28
1, 273574, Note_on_c, 0, 72, 63
1, 273578, Control_c, 0, 64, 60
1, 273580, Poly_aftertouch_c, 0, 36, 28
1, 273584, Poly_aftertouch_c, 0, 64, 28
1, 273585, Note_on_c, 0, 64, 54
1, 273586, Note_on_c, 0, 36, 41
1, 273592, Note_off_c, 0, 31, 40
1, 273597, Control_c, 0, 64, 34
1, 273617, Control_c, 0, 64, 15
1, 273673, Control_c, 0, 64, 22
1, 273690, Control_c, 0, 64, 39
1, 273710, Control_c, 0, 64, 63
1, 273728, Control_c, 0, 64, 82
1, 273733, Note_off_c, 0, 72, 58
1, 273748, Control_c, 0, 64, 108
1, 273766, Control_c, 0, 64, 127
1, 273796, Note_off_c, 0, 64, 32
1, 273896, Poly_aftertouch_c, 0, 73, 28
1, 273897, Control_c, 0, 64, 113
1, 273903, Note_on_c, 0, 73, 56
1, 273914, Poly_aftertouch_c, 0, 67, 28
1, 273916, Control_c, 0, 64, 77
1, 273919, Poly_aftertouch_c, 0, 45, 28
1, 273923, Note_on_c, 0, 67, 41
1, 273926, Note_on_c, 0, 45, 42
1, 273934, Control_c, 0, 64, 50
1, 273942, Note_off_c, 0, 36, 41
1, 273954, Control_c, 0, 64, 22
1, 274065, Control_c, 0, 64, 8
1, 274085, Control_c, 0, 64, 17
1, 274103, Control_c, 0, 64, 26
1, 274123, Control_c, 0, 64, 37
1, 274141, Control_c, 0, 64, 51
1, 274158, Control_c, 0, 64, 57
1, 274178, Control_c, 0, 64, 49
1, 274197, Control_c, 0, 64, 37
1, 274216, Control_c, 0, 64, 25
1, 274217, Note_off_c, 0, 67, 56
1, 274226, Poly_aftertouch_c, 0, 66, 28
1, 274227, Note_off_c, 0, 73, 55
1, 274227, Poly_aftertouch_c, 0, 74, 28
1, 274231, Note_on_c, 0, 74, 52
1, 274234, Note_on_c, 0, 66, 42
1, 274234, Control_c, 0, 64, 15
1, 274237, Poly_aftertouch_c, 0, 38, 28
1, 274244, Note_on_c, 0, 38, 35
1, 274291, Control_c, 0, 64, 26
1, 274295, Note_off_c, 0, 45, 30
1, 274309, Control_c, 0, 64, 45
1, 274328, Control_c, 0, 64, 69
1, 274348, Control_c, 0, 64, 87
1, 274365, Control_c, 0, 64, 127
1, 274461, Note_off_c, 0, 74, 39
1, 274533, Note_off_c, 0, 66, 26
1, 274533, Control_c, 0, 64, 119
1, 274552, Control_c, 0, 64, 82
1, 274556, Poly_aftertouch_c, 0, 31, 28
1, 274562, Note_on_c, 0, 31, 33
1, 274569, Control_c, 0, 64, 56
1, 274573, Poly_aftertouch_c, 0, 65, 28
1, 274580, Note_on_c, 0, 65, 37
1, 274588, Control_c, 0, 64, 31
1, 274592, Poly_aftertouch_c, 0, 71, 28
1, 274600, Note_on_c, 0, 71, 42
1, 274607, Control_c, 0, 64, 16
1, 274642, Note_off_c, 0, 38, 31
1, 274683, Control_c, 0, 64, 31
1, 274702, Control_c, 0, 64, 49
1, 274720, Control_c, 0, 64, 69
1, 274740, Control_c, 0, 64, 86
1, 274758, Control_c, 0, 64, 116
1, 274776, Control_c, 0, 64, 127
1, 274946, Control_c, 0, 64, 118
1, 274947, Poly_aftertouch_c, 0, 31, 24
1, 274957, Note_off_c, 0, 65, 60
1, 274958, Note_off_c, 0, 71, 52
1, 274963, Control_c, 0, 64, 90
1, 274968, Poly_aftertouch_c, 0, 36, 28
1, 274976, Note_on_c, 0, 36, 37
1, 274983, Poly_aftertouch_c, 0, 72, 28
1, 274983, Control_c, 0, 64, 68
1, 274989, Note_on_c, 0, 72, 41
1, 274989, Poly_aftertouch_c, 0, 64, 28
1, 274994, Note_on_c, 0, 64, 41
1, 275001, Control_c, 0, 64, 48
1, 275009, Note_off_c, 0, 31, 36
1, 275021, Control_c, 0, 64, 32
1, 275039, Control_c, 0, 64, 25
1, 275077, Control_c, 0, 67, 8
1, 275095, Control_c, 0, 64, 31
1, 275115, Control_c, 0, 64, 43
1, 275133, Control_c, 0, 64, 60
1, 275134, Control_c, 0, 67, 13
1, 275152, Control_c, 0, 64, 73
1, 275170, Control_c, 0, 64, 84
1, 275173, Control_c, 0, 67, 17
1, 275188, Control_c, 0, 64, 98
1, 275208, Control_c, 0, 64, 114
1, 275209, Control_c, 0, 67, 22
1, 275226, Control_c, 0, 64, 127
1, 275244, Control_c, 0, 67, 30
1, 275254, Note_off_c, 0, 72, 56
1, 275262, Control_c, 0, 67, 37
1, 275282, Control_c, 0, 67, 43
1, 275284, Note_off_c, 0, 64, 54
1, 275300, Control_c, 0, 67, 50
1, 275321, Control_c, 0, 67, 55
1, 275338, Control_c, 0, 67, 60
1, 275358, Control_c, 0, 67, 65
1, 275375, Control_c, 0, 67, 69
1, 275394, Control_c, 0, 67, 73
1, 275413, Control_c, 0, 67, 78
1, 275431, Control_c, 0, 67, 82
1, 275450, Control_c, 0, 67, 86
1, 275488, Control_c, 0, 67, 92
1, 275503, Poly_aftertouch_c, 0, 45, 28
1, 275510, Note_on_c, 0, 45, 35
1, 275526, Control_c, 0, 64, 122
1, 275544, Control_c, 0, 64, 118
1, 275563, Control_c, 0, 64, 114
1, 275564, Control_c, 0, 67, 96
1, 275581, Control_c, 0, 64, 107
1, 275601, Control_c, 0, 64, 98
1, 275616, Poly_aftertouch_c, 0, 67, 28
1, 275619, Control_c, 0, 64, 82
1, 275622, Note_on_c, 0, 67, 64
1, 275638, Control_c, 0, 64, 64
1, 275645, Poly_aftertouch_c, 0, 73, 28
1, 275649, Note_off_c, 0, 36, 41
1, 275654, Note_on_c, 0, 73, 39
1, 275658, Control_c, 0, 64, 43
1, 275676, Control_c, 0, 64, 23
1, 275677, Control_c, 0, 67, 101
1, 275694, Control_c, 0, 64, 14
1, 275713, Control_c, 0, 67, 105
1, 275751, Control_c, 0, 67, 109
1, 275769, Control_c, 0, 64, 23
1, 275788, Control_c, 0, 64, 34
1, 275790, Control_c, 0, 67, 113
1, 275808, Control_c, 0, 64, 53
1, 275825, Control_c, 0, 64, 72
1, 275844, Control_c, 0, 64, 91
1, 275847, Control_c, 0, 67, 119
1, 275864, Control_c, 0, 64, 127
1, 275881, Control_c, 0, 67, 127
1, 276170, Poly_aftertouch_c, 0, 38, 28
1, 276178, Note_on_c, 0, 38, 38
1, 276205, Note_off_c, 0, 67, 61
1, 276206, Note_off_c, 0, 73, 54
1, 276216, Poly_aftertouch_c, 0, 66, 28
1, 276219, Control_c, 0, 64, 106
1, 276220, Note_on_c, 0, 66, 68
1, 276237, Control_c, 0, 64, 78
1, 276241, Poly_aftertouch_c, 0, 74, 28
1, 276248, Note_on_c, 0, 74, 34
1, 276250, Note_off_c, 0, 45, 37
1, 276256, Control_c, 0, 64, 56
1, 276275, Control_c, 0, 64, 37
1, 276294, Control_c, 0, 64, 27
1, 276350, Control_c, 0, 64, 32
1, 276368, Control_c, 0, 64, 43
1, 276387, Control_c, 0, 64, 61
1, 276405, Control_c, 0, 64, 75
1, 276425, Control_c, 0, 64, 91
1, 276443, Control_c, 0, 64, 127
1, 276500, Note_off_c, 0, 74, 33
1, 276680, Note_off_c, 0, 66, 32
1, 276904, Poly_aftertouch_c, 0, 65, 28
1, 276910, Note_on_c, 0, 65, 58
1, 276910, Control_c, 0, 64, 101
1, 276917, Poly_aftertouch_c, 0, 26, 28
1, 276925, Note_on_c, 0, 26, 42
1, 276928, Control_c, 0, 64, 76
1, 276929, Poly_aftertouch_c, 0, 71, 28
1, 276937, Note_on_c, 0, 71, 50
1, 276950, Control_c, 0, 64, 54
1, 276966, Control_c, 0, 64, 33
1, 276986, Control_c, 0, 64, 20
1, 277035, Note_off_c, 0, 38, 40
1, 277061, Control_c, 0, 64, 24
1, 277079, Control_c, 0, 64, 35
1, 277098, Control_c, 0, 64, 51
1, 277116, Control_c, 0, 64, 69
1, 277136, Control_c, 0, 64, 82
1, 277154, Control_c, 0, 64, 98
1, 277157, Note_off_c, 0, 26, 46
1, 277172, Control_c, 0, 64, 127
1, 277363, Note_off_c, 0, 71, 56
1, 277723, Poly_aftertouch_c, 0, 33, 28
1, 277727, Note_on_c, 0, 33, 39
1, 277829, Control_c, 0, 64, 115
1, 277832, Note_off_c, 0, 65, 60
1, 277846, Control_c, 0, 64, 95
1, 277849, Poly_aftertouch_c, 0, 64, 28
1, 277851, Note_on_c, 0, 64, 70
1, 277865, Control_c, 0, 64, 74
1, 277873, Poly_aftertouch_c, 0, 69, 28
1, 277874, Poly_aftertouch_c, 0, 72, 28
1, 277879, Note_on_c, 0, 69, 33
1, 277880, Note_on_c, 0, 72, 41
1, 277883, Control_c, 0, 64, 53
1, 277903, Control_c, 0, 64, 34
1, 277922, Control_c, 0, 64, 22
1, 277996, Control_c, 0, 64, 27
1, 278017, Control_c, 0, 64, 39
1, 278024, Note_off_c, 0, 72, 0
1, 278024, Poly_aftertouch_c, 0, 72, 28
1, 278034, Control_c, 0, 64, 58
1, 278052, Control_c, 0, 64, 76
1, 278072, Control_c, 0, 64, 98
1, 278086, Note_off_c, 0, 69, 22
1, 278090, Control_c, 0, 64, 127
1, 278131, Poly_aftertouch_c, 0, 72, 0
1, 278166, Note_off_c, 0, 33, 33
1, 278289, Poly_aftertouch_c, 0, 45, 28
1, 278295, Note_on_c, 0, 45, 41
1, 278363, Note_off_c, 0, 45, 54
1, 278414, Poly_aftertouch_c, 0, 72, 28
1, 278421, Note_on_c, 0, 72, 49
1, 278424, Poly_aftertouch_c, 0, 69, 28
1, 278428, Note_on_c, 0, 69, 46
1, 278466, Note_off_c, 0, 64, 54
1, 278549, Note_off_c, 0, 72, 53
1, 278566, Poly_aftertouch_c, 0, 52, 28
1, 278573, Note_on_c, 0, 52, 26
1, 278803, Note_off_c, 0, 69, 60
1, 278818, Poly_aftertouch_c, 0, 65, 28
1, 278822, Note_on_c, 0, 65, 69
1, 278824, Poly_aftertouch_c, 0, 50, 28
1, 278826, Poly_aftertouch_c, 0, 71, 28
1, 278832, Note_on_c, 0, 71, 52
1, 278837, Note_on_c, 0, 50, 41
1, 278838, Note_on_c, 0, 74, 47
1, 278838, Poly_aftertouch_c, 0, 45, 28
1, 278839, Poly_aftertouch_c, 0, 52, 24
1, 278842, Poly_aftertouch_c, 0, 74, 28
1, 278845, Note_on_c, 0, 45, 32
1, 278869, Note_off_c, 0, 52, 34
1, 278877, Control_c, 0, 64, 99
1, 278896, Control_c, 0, 64, 83
1, 278913, Control_c, 0, 64, 68
1, 278933, Control_c, 0, 64, 54
1, 278951, Control_c, 0, 64, 41
1, 278970, Control_c, 0, 64, 27
1, 278988, Control_c, 0, 64, 11
1, 279026, Control_c, 0, 64, 0
1, 279195, Control_c, 0, 64, 8
1, 279233, Control_c, 0, 64, 15
1, 279270, Control_c, 0, 64, 22
1, 279288, Control_c, 0, 64, 26
1, 279306, Control_c, 0, 64, 32
1, 279325, Control_c, 0, 64, 41
1, 279345, Control_c, 0, 64, 54
1, 279363, Control_c, 0, 64, 62
1, 279382, Control_c, 0, 64, 65
1, 279420, Control_c, 0, 64, 66
1, 279438, Control_c, 0, 64, 67
1, 279475, Control_c, 0, 64, 71
1, 279495, Control_c, 0, 64, 74
1, 279512, Control_c, 0, 64, 79
1, 279532, Control_c, 0, 64, 86
1, 279550, Control_c, 0, 64, 94
1, 279570, Control_c, 0, 64, 105
1, 279587, Control_c, 0, 64, 127
1, 279588, Control_c, 0, 67, 122
1, 279644, Control_c, 0, 67, 118
1, 279738, Control_c, 0, 67, 113
1, 279775, Control_c, 0, 67, 108
1, 279793, Note_off_c, 0, 71, 34
1, 279812, Control_c, 0, 67, 103
1, 279833, Note_off_c, 0, 50, 41
1, 279869, Poly_aftertouch_c, 0, 45, 24
1, 279887, Control_c, 0, 67, 98
1, 279909, Poly_aftertouch_c, 0, 74, 24
1, 279939, Note_off_c, 0, 45, 34
1, 279958, Note_off_c, 0, 74, 33
1, 280300, Control_c, 0, 67, 102
1, 280448, Control_c, 0, 67, 106
1, 280543, Control_c, 0, 67, 111
1, 280579, Control_c, 0, 67, 117
1, 280598, Control_c, 0, 67, 121
1, 280617, Control_c, 0, 67, 125
1, 280883, Poly_aftertouch_c, 0, 33, 28
1, 280891, Note_on_c, 0, 33, 35
1, 280898, Control_c, 0, 64, 116
1, 280916, Control_c, 0, 64, 100
1, 280935, Control_c, 0, 64, 81
1, 280955, Control_c, 0, 64, 60
1, 280973, Control_c, 0, 64, 38
1, 280991, Control_c, 0, 64, 23
1, 281010, Control_c, 0, 64, 18
1, 281016, Poly_aftertouch_c, 0, 72, 28
1, 281024, Note_on_c, 0, 72, 40
1, 281025, Note_off_c, 0, 65, 41
1, 281029, Poly_aftertouch_c, 0, 69, 28
1, 281033, Note_on_c, 0, 69, 30
1, 281086, Control_c, 0, 64, 30
1, 281104, Control_c, 0, 64, 45
1, 281123, Control_c, 0, 64, 66
1, 281141, Control_c, 0, 64, 83
1, 281161, Control_c, 0, 64, 111
1, 281178, Control_c, 0, 64, 127
1, 281192, Note_off_c, 0, 33, 39
1, 281234, Note_off_c, 0, 72, 49
1, 281242, Poly_aftertouch_c, 0, 45, 28
1, 281246, Note_on_c, 0, 45, 48
1, 281248, Note_off_c, 0, 69, 35
1, 281301, Note_off_c, 0, 45, 60
1, 281345, Poly_aftertouch_c, 0, 72, 28
1, 281354, Note_on_c, 0, 72, 40
1, 281354, Poly_aftertouch_c, 0, 69, 28
1, 281358, Note_on_c, 0, 69, 46
1, 281459, Note_off_c, 0, 69, 45
1, 281478, Poly_aftertouch_c, 0, 52, 28
1, 281484, Note_on_c, 0, 52, 55
1, 281890, Poly_aftertouch_c, 0, 62, 28
1, 281892, Poly_aftertouch_c, 0, 71, 28
1, 281895, Note_on_c, 0, 71, 46
1, 281896, Poly_aftertouch_c, 0, 53, 28
1, 281899, Note_on_c, 0, 53, 52
1, 281900, Note_off_c, 0, 72, 36
1, 281900, Note_on_c, 0, 62, 37
1, 281900, Poly_aftertouch_c, 0, 68, 28
1, 281904, Poly_aftertouch_c, 0, 45, 28
1, 281909, Note_on_c, 0, 68, 36
1, 281916, Note_on_c, 0, 45, 27
1, 281946, Control_c, 0, 64, 106
1, 281966, Control_c, 0, 64, 92
1, 281983, Control_c, 0, 64, 79
1, 281994, Note_off_c, 0, 52, 38
1, 282001, Control_c, 0, 64, 66
1, 282021, Control_c, 0, 64, 55
1, 282040, Control_c, 0, 64, 47
1, 282057, Control_c, 0, 64, 38
1, 282077, Control_c, 0, 64, 28
1, 282096, Control_c, 0, 64, 19
1, 282114, Control_c, 0, 64, 11
1, 282434, Control_c, 0, 64, 18
1, 282451, Control_c, 0, 64, 23
1, 282470, Control_c, 0, 64, 30
1, 282489, Control_c, 0, 64, 39
1, 282508, Control_c, 0, 64, 53
1, 282526, Control_c, 0, 64, 64
1, 282545, Control_c, 0, 64, 70
1, 282564, Control_c, 0, 64, 73
1, 282582, Control_c, 0, 64, 76
1, 282601, Control_c, 0, 64, 79
1, 282621, Control_c, 0, 64, 84
1, 282639, Control_c, 0, 64, 92
1, 282657, Control_c, 0, 64, 104
1, 282677, Control_c, 0, 64, 127
1, 282807, Control_c, 0, 67, 121
1, 282814, Note_off_c, 0, 68, 43
1, 282845, Control_c, 0, 67, 115
1, 282882, Control_c, 0, 67, 108
1, 282908, Note_off_c, 0, 45, 36
1, 282926, Note_off_c, 0, 53, 32
1, 283368, Control_c, 0, 67, 112
1, 283500, Control_c, 0, 67, 117
1, 283537, Control_c, 0, 67, 122
1, 283555, Control_c, 0, 67, 126
1, 283663, Poly_aftertouch_c, 0, 33, 28
1, 283669, Note_on_c, 0, 33, 39
1, 283707, Control_c, 0, 64, 108
1, 283722, Note_off_c, 0, 71, 37
1, 283723, Control_c, 0, 64, 83
1, 283742, Note_off_c, 0, 62, 52
1, 283743, Control_c, 0, 64, 61
1, 283759, Poly_aftertouch_c, 0, 69, 28
1, 283762, Control_c, 0, 64, 41
1, 283766, Note_on_c, 0, 69, 42
1, 283769, Poly_aftertouch_c, 0, 66, 28
1, 283778, Note_on_c, 0, 66, 38
1, 283779, Control_c, 0, 64, 30
1, 283855, Control_c, 0, 64, 39
1, 283874, Control_c, 0, 64, 52
1, 283893, Control_c, 0, 64, 66
1, 283912, Control_c, 0, 64, 78
1, 283930, Control_c, 0, 64, 93
1, 283949, Control_c, 0, 64, 127
1, 283957, Note_off_c, 0, 33, 39
1, 283989, Poly_aftertouch_c, 0, 45, 28
1, 283993, Note_on_c, 0, 45, 52
1, 284004, Note_off_c, 0, 69, 56
1, 284008, Note_off_c, 0, 66, 45
1, 284066, Note_off_c, 0, 45, 52
1, 284114, Poly_aftertouch_c, 0, 66, 28
1, 284120, Note_on_c, 0, 66, 48
1, 284120, Poly_aftertouch_c, 0, 69, 28
1, 284124, Note_on_c, 0, 69, 52
1, 284238, Poly_aftertouch_c, 0, 48, 28
1, 284245, Note_on_c, 0, 48, 59
1, 284623, Poly_aftertouch_c, 0, 66, 24
1, 284641, Poly_aftertouch_c, 0, 51, 28
1, 284648, Note_on_c, 0, 51, 57
1, 284663, Poly_aftertouch_c, 0, 72, 28
1, 284668, Note_on_c, 0, 72, 52
1, 284674, Poly_aftertouch_c, 0, 60, 28
1, 284677, Note_on_c, 0, 60, 39
1, 284681, Note_off_c, 0, 66, 37
1, 284685, Poly_aftertouch_c, 0, 45, 28
1, 284689, Note_on_c, 0, 45, 35
1, 284697, Control_c, 0, 64, 106
1, 284714, Note_off_c, 0, 69, 37
1, 284716, Control_c, 0, 64, 91
1, 284726, Note_off_c, 0, 48, 59
1, 284734, Control_c, 0, 64, 76
1, 284754, Control_c, 0, 64, 60
1, 284773, Control_c, 0, 64, 45
1, 284792, Control_c, 0, 64, 30
1, 284810, Control_c, 0, 64, 17
1, 284829, Control_c, 0, 64, 9
1, 285035, Control_c, 0, 64, 15
1, 285072, Control_c, 0, 64, 21
1, 285110, Control_c, 0, 64, 29
1, 285128, Control_c, 0, 64, 35
1, 285147, Control_c, 0, 64, 47
1, 285166, Control_c, 0, 64, 60
1, 285185, Control_c, 0, 64, 66
1, 285203, Control_c, 0, 64, 69
1, 285222, Control_c, 0, 64, 71
1, 285241, Control_c, 0, 64, 74
1, 285259, Control_c, 0, 64, 79
1, 285279, Control_c, 0, 64, 87
1, 285296, Control_c, 0, 64, 100
1, 285315, Control_c, 0, 64, 127
1, 285412, Poly_aftertouch_c, 0, 69, 28
1, 285418, Note_on_c, 0, 69, 49
1, 285429, Poly_aftertouch_c, 0, 66, 28
1, 285436, Note_on_c, 0, 66, 40
1, 285478, Note_off_c, 0, 72, 32
1, 285490, Note_off_c, 0, 51, 48
1, 285511, Note_off_c, 0, 45, 38
1, 285664, Note_off_c, 0, 60, 32
1, 285672, Note_off_c, 0, 66, 43
1, 286502, Poly_aftertouch_c, 0, 69, 24
1, 286544, Poly_aftertouch_c, 0, 68, 28
1, 286550, Control_c, 0, 64, 116
1, 286558, Note_on_c, 0, 68, 43
1, 286563, Poly_aftertouch_c, 0, 40, 28
1, 286565, Poly_aftertouch_c, 0, 64, 28
1, 286566, Note_on_c, 0, 40, 40
1, 286569, Note_on_c, 0, 64, 40
1, 286569, Control_c, 0, 64, 97
1, 286571, Note_off_c, 0, 69, 32
1, 286589, Control_c, 0, 64, 79
1, 286606, Control_c, 0, 64, 62
1, 286626, Control_c, 0, 64, 44
1, 286644, Control_c, 0, 64, 25
1, 286664, Control_c, 0, 64, 11
1, 286813, Control_c, 0, 64, 19
1, 286831, Control_c, 0, 64, 28
1, 286851, Control_c, 0, 64, 40
1, 286868, Control_c, 0, 64, 59
1, 286888, Control_c, 0, 64, 72
1, 286906, Control_c, 0, 64, 82
1, 286926, Control_c, 0, 64, 93
1, 286944, Control_c, 0, 64, 107
1, 286962, Control_c, 0, 64, 127
1, 287173, Poly_aftertouch_c, 0, 47, 28
1, 287181, Note_on_c, 0, 47, 39
1, 287189, Note_off_c, 0, 68, 40
1, 287296, Note_off_c, 0, 64, 34
1, 287527, Poly_aftertouch_c, 0, 52, 28
1, 287532, Note_on_c, 0, 52, 37
1, 287760, Poly_aftertouch_c, 0, 47, 24
1, 287832, Poly_aftertouch_c, 0, 71, 28
1, 287836, Poly_aftertouch_c, 0, 68, 28
1, 287841, Note_on_c, 0, 71, 37
1, 287846, Poly_aftertouch_c, 0, 59, 28
1, 287851, Note_on_c, 0, 59, 29
1, 287852, Note_off_c, 0, 47, 32
1, 287852, Note_on_c, 0, 68, 33
1, 287993, Control_c, 0, 64, 122
1, 288011, Control_c, 0, 64, 109
1, 288029, Control_c, 0, 64, 99
1, 288049, Control_c, 0, 64, 88
1, 288067, Control_c, 0, 64, 75
1, 288085, Control_c, 0, 64, 61
1, 288105, Control_c, 0, 64, 50
1, 288123, Control_c, 0, 64, 44
1, 288142, Control_c, 0, 64, 40
1, 288236, Control_c, 0, 64, 45
1, 288254, Control_c, 0, 64, 52
1, 288273, Control_c, 0, 64, 59
1, 288291, Control_c, 0, 64, 64
1, 288311, Control_c, 0, 64, 68
1, 288330, Control_c, 0, 64, 72
1, 288347, Control_c, 0, 64, 75
1, 288367, Control_c, 0, 64, 79
1, 288386, Control_c, 0, 64, 85
1, 288404, Control_c, 0, 64, 93
1, 288422, Control_c, 0, 64, 103
1, 288442, Control_c, 0, 64, 122
1, 288462, Control_c, 0, 64, 127
1, 288518, Control_c, 0, 67, 122
1, 288610, Control_c, 0, 67, 116
1, 288628, Control_c, 0, 67, 112
1, 288661, Note_off_c, 0, 52, 34
1, 288665, Control_c, 0, 67, 106
1, 288722, Control_c, 0, 67, 101
1, 288742, Note_off_c, 0, 59, 33
1, 288886, Note_off_c, 0, 40, 40
1, 289121, Note_off_c, 0, 68, 42
1, 289355, Note_off_c, 0, 71, 40
1, 289509, Control_c, 0, 67, 105
1, 289609, Poly_aftertouch_c, 0, 33, 28
1, 289616, Note_on_c, 0, 33, 32
1, 289691, Poly_aftertouch_c, 0, 72, 28
1, 289696, Control_c, 0, 64, 101
1, 289698, Note_on_c, 0, 72, 60
1, 289715, Control_c, 0, 64, 76
1, 289724, Poly_aftertouch_c, 0, 69, 28
1, 289731, Note_on_c, 0, 69, 29
1, 289733, Control_c, 0, 64, 58
1, 289752, Control_c, 0, 64, 45
1, 289770, Control_c, 0, 64, 41
1, 289807, Control_c, 0, 64, 43
1, 289827, Control_c, 0, 64, 50
1, 289845, Control_c, 0, 64, 59
1, 289865, Control_c, 0, 64, 68
1, 289880, Note_off_c, 0, 33, 39
1, 289882, Control_c, 0, 64, 77
1, 289901, Control_c, 0, 64, 91
1, 289920, Control_c, 0, 64, 122
1, 289935, Poly_aftertouch_c, 0, 45, 28
1, 289939, Note_on_c, 0, 45, 52
1, 289940, Control_c, 0, 64, 127
1, 289948, Note_off_c, 0, 69, 47
1, 289956, Note_off_c, 0, 72, 60
1, 290001, Note_off_c, 0, 45, 59
1, 290043, Poly_aftertouch_c, 0, 72, 28
1, 290049, Note_on_c, 0, 72, 74
1, 290080, Poly_aftertouch_c, 0, 69, 28
1, 290083, Note_on_c, 0, 69, 56
1, 290170, Poly_aftertouch_c, 0, 52, 28
1, 290175, Note_on_c, 0, 52, 50
1, 290481, Poly_aftertouch_c, 0, 69, 24
1, 290482, Poly_aftertouch_c, 0, 76, 28
1, 290485, Note_on_c, 0, 76, 77
1, 290493, Poly_aftertouch_c, 0, 73, 28
1, 290498, Note_on_c, 0, 73, 61
1, 290499, Note_off_c, 0, 69, 54
1, 290508, Poly_aftertouch_c, 0, 64, 28
1, 290512, Note_on_c, 0, 64, 50
1, 290519, Note_off_c, 0, 72, 57
1, 290529, Poly_aftertouch_c, 0, 45, 28
1, 290530, Poly_aftertouch_c, 0, 57, 28
1, 290537, Note_on_c, 0, 45, 44
1, 290538, Note_on_c, 0, 57, 42
1, 290576, Control_c, 0, 64, 101
1, 290594, Control_c, 0, 64, 84
1, 290613, Control_c, 0, 64, 69
1, 290617, Note_off_c, 0, 52, 27
1, 290633, Control_c, 0, 64, 56
1, 290650, Control_c, 0, 64, 45
1, 290670, Control_c, 0, 64, 34
1, 290687, Control_c, 0, 64, 25
1, 290707, Control_c, 0, 64, 18
1, 290725, Control_c, 0, 67, 101
1, 290745, Control_c, 0, 64, 14
1, 290800, Control_c, 0, 67, 97
1, 290818, Control_c, 0, 67, 91
1, 290837, Control_c, 0, 67, 82
1, 290856, Control_c, 0, 67, 73
1, 290875, Control_c, 0, 64, 21
1, 290877, Control_c, 0, 67, 62
1, 290894, Control_c, 0, 64, 27
1, 290895, Control_c, 0, 67, 52
1, 290913, Control_c, 0, 64, 34
1, 290914, Control_c, 0, 67, 43
1, 290931, Control_c, 0, 64, 44
1, 290933, Control_c, 0, 67, 35
1, 290949, Control_c, 0, 64, 57
1, 290950, Control_c, 0, 67, 27
1, 290969, Control_c, 0, 64, 67
1, 290970, Control_c, 0, 67, 20
1, 290988, Control_c, 0, 64, 72
1, 290990, Control_c, 0, 67, 14
1, 291006, Control_c, 0, 64, 76
1, 291006, Control_c, 0, 67, 10
1, 291024, Control_c, 0, 64, 82
1, 291044, Control_c, 0, 64, 91
1, 291062, Control_c, 0, 64, 108
1, 291081, Control_c, 0, 64, 127
1, 291082, Control_c, 0, 67, 0
1, 291125, Note_off_c, 0, 64, 31
1, 291261, Note_off_c, 0, 57, 36
1, 291327, Note_off_c, 0, 76, 53
1, 291383, Note_off_c, 0, 45, 53
1, 291601, Note_off_c, 0, 73, 57
1, 291979, Poly_aftertouch_c, 0, 38, 28
1, 291988, Note_on_c, 0, 38, 51
1, 292017, Poly_aftertouch_c, 0, 77, 28
1, 292021, Note_on_c, 0, 77, 78
1, 292035, Control_c, 0, 64, 107
1, 292042, Poly_aftertouch_c, 0, 74, 28
1, 292045, Note_on_c, 0, 74, 63
1, 292054, Control_c, 0, 64, 74
1, 292073, Control_c, 0, 64, 49
1, 292091, Control_c, 0, 64, 30
1, 292110, Control_c, 0, 64, 24
1, 292147, Control_c, 0, 64, 28
1, 292166, Control_c, 0, 64, 40
1, 292185, Control_c, 0, 64, 62
1, 292204, Control_c, 0, 64, 82
1, 292223, Control_c, 0, 64, 119
1, 292242, Control_c, 0, 64, 127
1, 292249, Note_off_c, 0, 38, 33
1, 292272, Poly_aftertouch_c, 0, 50, 28
1, 292281, Note_on_c, 0, 50, 62
1, 292294, Note_off_c, 0, 74, 50
1, 292299, Note_off_c, 0, 77, 61
1, 292367, Note_off_c, 0, 50, 61
1, 292383, Poly_aftertouch_c, 0, 77, 28
1, 292386, Note_on_c, 0, 77, 91
1, 292397, Poly_aftertouch_c, 0, 74, 28
1, 292401, Note_on_c, 0, 74, 82
1, 292516, Poly_aftertouch_c, 0, 57, 28
1, 292520, Note_on_c, 0, 57, 71
1, 292916, Poly_aftertouch_c, 0, 81, 28
1, 292921, Note_on_c, 0, 81, 91
1, 292927, Poly_aftertouch_c, 0, 78, 28
1, 292934, Note_on_c, 0, 78, 71
1, 292946, Note_off_c, 0, 74, 51
1, 292946, Poly_aftertouch_c, 0, 69, 28
1, 292950, Note_on_c, 0, 69, 70
1, 292951, Poly_aftertouch_c, 0, 51, 28
1, 292952, Poly_aftertouch_c, 0, 60, 28
1, 292956, Note_on_c, 0, 60, 56
1, 292957, Note_on_c, 0, 51, 53
1, 292971, Control_c, 0, 64, 121
1, 292990, Control_c, 0, 64, 88
1, 293009, Control_c, 0, 64, 67
1, 293028, Control_c, 0, 64, 47
1, 293037, Note_off_c, 0, 57, 53
1, 293045, Control_c, 0, 64, 29
1, 293065, Control_c, 0, 64, 13
1, 293102, Control_c, 0, 64, 0
1, 293131, Note_off_c, 0, 77, 24
1, 293289, Control_c, 0, 64, 13
1, 293309, Control_c, 0, 64, 17
1, 293327, Control_c, 0, 64, 21
1, 293346, Control_c, 0, 64, 25
1, 293365, Control_c, 0, 64, 31
1, 293384, Control_c, 0, 64, 40
1, 293402, Control_c, 0, 64, 53
1, 293420, Control_c, 0, 64, 63
1, 293439, Control_c, 0, 64, 67
1, 293477, Control_c, 0, 64, 69
1, 293514, Control_c, 0, 64, 72
1, 293533, Control_c, 0, 64, 77
1, 293551, Control_c, 0, 64, 88
1, 293570, Control_c, 0, 64, 116
1, 293589, Control_c, 0, 64, 127
1, 293728, Note_off_c, 0, 60, 32
1, 293751, Note_off_c, 0, 81, 53
1, 293848, Note_off_c, 0, 69, 42
1, 293874, Note_off_c, 0, 51, 52
1, 294656, Control_c, 0, 64, 108
1, 294672, Poly_aftertouch_c, 0, 79, 28
1, 294677, Note_on_c, 0, 79, 80
1, 294677, Control_c, 0, 64, 86
1, 294685, Poly_aftertouch_c, 0, 67, 28
1, 294693, Note_on_c, 0, 67, 49
1, 294693, Poly_aftertouch_c, 0, 40, 28
1, 294693, Control_c, 0, 64, 64
1, 294701, Poly_aftertouch_c, 0, 72, 28
1, 294702, Note_on_c, 0, 40, 37
1, 294704, Note_on_c, 0, 72, 58
1, 294711, Control_c, 0, 64, 41
1, 294731, Control_c, 0, 64, 19
1, 294739, Note_off_c, 0, 78, 63
1, 294842, Control_c, 0, 64, 10
1, 294862, Control_c, 0, 64, 20
1, 294864, Control_c, 0, 67, 8
1, 294881, Control_c, 0, 64, 32
1, 294900, Control_c, 0, 64, 52
1, 294902, Control_c, 0, 67, 13
1, 294918, Control_c, 0, 64, 73
1, 294919, Control_c, 0, 67, 17
1, 294938, Control_c, 0, 64, 94
1, 294941, Control_c, 0, 67, 21
1, 294955, Control_c, 0, 64, 127
1, 294971, Note_off_c, 0, 67, 57
1, 294974, Control_c, 0, 67, 26
1, 295033, Note_off_c, 0, 79, 62
1, 295051, Note_off_c, 0, 40, 37
1, 295087, Poly_aftertouch_c, 0, 52, 28
1, 295093, Note_on_c, 0, 52, 45
1, 295176, Note_off_c, 0, 52, 48
1, 295187, Poly_aftertouch_c, 0, 79, 28
1, 295188, Note_on_c, 0, 79, 84
1, 295212, Poly_aftertouch_c, 0, 67, 28
1, 295219, Note_on_c, 0, 67, 54
1, 295280, Note_off_c, 0, 67, 53
1, 295354, Poly_aftertouch_c, 0, 55, 28
1, 295358, Note_on_c, 0, 55, 56
1, 295371, Note_off_c, 0, 79, 63
1, 295809, Poly_aftertouch_c, 0, 76, 28
1, 295817, Note_on_c, 0, 76, 68
1, 295819, Poly_aftertouch_c, 0, 68, 28
1, 295829, Note_on_c, 0, 68, 47
1, 295833, Control_c, 0, 64, 104
1, 295852, Poly_aftertouch_c, 0, 60, 28
1, 295855, Control_c, 0, 64, 89
1, 295858, Note_on_c, 0, 60, 41
1, 295862, Poly_aftertouch_c, 0, 52, 28
1, 295869, Note_on_c, 0, 52, 33
1, 295873, Control_c, 0, 64, 74
1, 295891, Control_c, 0, 64, 60
1, 295910, Control_c, 0, 64, 44
1, 295929, Control_c, 0, 64, 26
1, 295979, Note_off_c, 0, 55, 26
1, 296096, Control_c, 0, 64, 11
1, 296117, Control_c, 0, 64, 18
1, 296135, Control_c, 0, 64, 25
1, 296154, Control_c, 0, 64, 36
1, 296172, Control_c, 0, 64, 54
1, 296190, Control_c, 0, 64, 68
1, 296210, Control_c, 0, 64, 77
1, 296228, Control_c, 0, 64, 85
1, 296234, Note_off_c, 0, 72, 55
1, 296247, Control_c, 0, 64, 90
1, 296266, Control_c, 0, 64, 95
1, 296402, Note_off_c, 0, 68, 30
1, 296472, Control_c, 0, 67, 31
1, 296509, Control_c, 0, 67, 38
1, 296528, Control_c, 0, 67, 44
1, 296547, Control_c, 0, 67, 48
1, 296584, Control_c, 0, 67, 53
1, 296603, Control_c, 0, 64, 90
1, 296622, Control_c, 0, 64, 86
1, 296627, Poly_aftertouch_c, 0, 72, 28
1, 296632, Note_on_c, 0, 72, 53
1, 296639, Control_c, 0, 64, 81
1, 296648, Poly_aftertouch_c, 0, 69, 28
1, 296652, Note_on_c, 0, 69, 38
1, 296652, Poly_aftertouch_c, 0, 53, 28
1, 296658, Note_on_c, 0, 53, 39
1, 296659, Control_c, 0, 64, 73
1, 296678, Control_c, 0, 64, 62
1, 296681, Note_off_c, 0, 76, 57
1, 296696, Control_c, 0, 64, 49
1, 296715, Control_c, 0, 64, 31
1, 296726, Note_off_c, 0, 52, 40
1, 296733, Control_c, 0, 64, 13
1, 296865, Control_c, 0, 64, 17
1, 296885, Control_c, 0, 64, 27
1, 296902, Control_c, 0, 64, 42
1, 296922, Control_c, 0, 64, 62
1, 296940, Control_c, 0, 64, 76
1, 296960, Control_c, 0, 64, 86
1, 296977, Control_c, 0, 64, 96
1, 296996, Control_c, 0, 64, 103
1, 297014, Control_c, 0, 64, 108
1, 297024, Note_off_c, 0, 72, 57
1, 297112, Note_off_c, 0, 69, 47
1, 297155, Poly_aftertouch_c, 0, 57, 28
1, 297164, Note_on_c, 0, 57, 39
1, 297200, Poly_aftertouch_c, 0, 60, 20
1, 297213, Note_off_c, 0, 60, 31
1, 297463, Control_c, 0, 64, 104
1, 297502, Control_c, 0, 64, 97
1, 297520, Control_c, 0, 64, 90
1, 297530, Poly_aftertouch_c, 0, 76, 28
1, 297534, Note_on_c, 0, 76, 49
1, 297537, Poly_aftertouch_c, 0, 68, 28
1, 297538, Poly_aftertouch_c, 0, 71, 28
1, 297538, Control_c, 0, 64, 78
1, 297545, Note_on_c, 0, 71, 38
1, 297549, Poly_aftertouch_c, 0, 64, 28
1, 297555, Note_on_c, 0, 68, 33
1, 297555, Poly_aftertouch_c, 0, 52, 28
1, 297557, Control_c, 0, 64, 65
1, 297559, Note_on_c, 0, 52, 40
1, 297561, Note_on_c, 0, 64, 23
1, 297576, Control_c, 0, 64, 48
1, 297583, Note_off_c, 0, 57, 38
1, 297595, Control_c, 0, 64, 30
1, 297598, Note_off_c, 0, 53, 40
1, 297613, Control_c, 0, 64, 15
1, 297707, Control_c, 0, 64, 21
1, 297726, Control_c, 0, 64, 33
1, 297747, Control_c, 0, 64, 52
1, 297763, Control_c, 0, 64, 71
1, 297783, Control_c, 0, 64, 87
1, 297791, Note_off_c, 0, 52, 58
1, 297800, Control_c, 0, 64, 108
1, 297820, Control_c, 0, 64, 127
1, 297968, Poly_aftertouch_c, 0, 52, 28
1, 297974, Note_on_c, 0, 52, 47
1, 298025, Note_off_c, 0, 68, 40
1, 298399, Control_c, 0, 64, 118
1, 298419, Control_c, 0, 64, 111
1, 298436, Control_c, 0, 64, 104
1, 298451, Poly_aftertouch_c, 0, 48, 28
1, 298455, Note_on_c, 0, 69, 50
1, 298455, Poly_aftertouch_c, 0, 69, 28
1, 298455, Control_c, 0, 64, 97
1, 298460, Note_on_c, 0, 48, 39
1, 298475, Control_c, 0, 64, 90
1, 298491, Note_off_c, 0, 71, 46
1, 298492, Control_c, 0, 64, 82
1, 298512, Control_c, 0, 64, 72
1, 298531, Control_c, 0, 64, 64
1, 298549, Control_c, 0, 64, 57
1, 298568, Control_c, 0, 64, 52
1, 298586, Control_c, 0, 64, 48
1, 298606, Control_c, 0, 64, 44
1, 298624, Control_c, 0, 64, 37
1, 298643, Control_c, 0, 64, 29
1, 298662, Control_c, 0, 64, 17
1, 298699, Control_c, 0, 64, 0
1, 299315, Poly_aftertouch_c, 0, 45, 28
1, 299323, Note_on_c, 0, 45, 36
1, 299429, Note_off_c, 0, 48, 51
1, 299448, Control_c, 0, 64, 12
1, 299466, Control_c, 0, 64, 19
1, 299486, Control_c, 0, 64, 30
1, 299504, Control_c, 0, 64, 49
1, 299523, Control_c, 0, 64, 69
1, 299542, Control_c, 0, 64, 83
1, 299556, Note_off_c, 0, 76, 38
1, 299562, Control_c, 0, 64, 105
1, 299578, Control_c, 0, 64, 127
1, 299624, Note_off_c, 0, 69, 56
1, 299709, Note_off_c, 0, 64, 54
1, 299731, Poly_aftertouch_c, 0, 52, 24
1, 299834, Note_off_c, 0, 52, 29
1, 300078, Note_off_c, 0, 45, 39
1, 300197, Control_c, 0, 67, 59
1, 300216, Control_c, 0, 67, 64
1, 300254, Control_c, 0, 67, 72
1, 300271, Control_c, 0, 67, 76
1, 300290, Control_c, 0, 67, 81
1, 300328, Control_c, 0, 67, 87
1, 300402, Control_c, 0, 67, 91
1, 300459, Control_c, 0, 67, 96
1, 300515, Control_c, 0, 67, 101
1, 300553, Control_c, 0, 67, 107
1, 300570, Poly_aftertouch_c, 0, 52, 28
1, 300575, Poly_aftertouch_c, 0, 59, 28
1, 300579, Note_on_c, 0, 52, 29
1, 300580, Note_on_c, 0, 59, 36
1, 300582, Poly_aftertouch_c, 0, 56, 28
1, 300588, Poly_aftertouch_c, 0, 64, 28
1, 300590, Note_on_c, 0, 56, 23
1, 300590, Control_c, 0, 64, 100
1, 300596, Note_on_c, 0, 64, 41
1, 300610, Control_c, 0, 64, 79
1, 300613, Control_c, 0, 67, 111
1, 300627, Control_c, 0, 64, 61
1, 300629, Poly_aftertouch_c, 0, 40, 28
1, 300636, Note_on_c, 0, 40, 19
1, 300646, Control_c, 0, 64, 43
1, 300666, Control_c, 0, 64, 30
1, 300683, Control_c, 0, 64, 25
1, 300739, Control_c, 0, 64, 32
1, 300759, Control_c, 0, 64, 42
1, 300776, Control_c, 0, 64, 59
1, 300796, Control_c, 0, 64, 72
1, 300814, Control_c, 0, 64, 84
1, 300817, Note_off_c, 0, 40, 51
1, 300833, Control_c, 0, 64, 102
1, 300852, Control_c, 0, 64, 127
1, 300926, Control_c, 0, 67, 107
1, 301002, Poly_aftertouch_c, 0, 40, 28
1, 301010, Note_on_c, 0, 40, 32
1, 301033, Note_off_c, 0, 56, 43
1, 301189, Note_off_c, 0, 59, 52
1, 301395, Control_c, 0, 64, 121
1, 301413, Control_c, 0, 64, 116
1, 301431, Poly_aftertouch_c, 0, 57, 28
1, 301433, Control_c, 0, 64, 110
1, 301438, Note_on_c, 0, 57, 39
1, 301440, Poly_aftertouch_c, 0, 36, 28
1, 301449, Note_on_c, 0, 36, 31
1, 301451, Control_c, 0, 64, 104
1, 301469, Control_c, 0, 64, 97
1, 301488, Control_c, 0, 64, 88
1, 301507, Control_c, 0, 64, 79
1, 301525, Control_c, 0, 64, 70
1, 301535, Poly_aftertouch_c, 0, 40, 24
1, 301545, Control_c, 0, 64, 61
1, 301563, Control_c, 0, 64, 55
1, 301582, Control_c, 0, 64, 51
1, 301589, Note_off_c, 0, 40, 37
1, 301601, Control_c, 0, 64, 48
1, 301638, Control_c, 0, 64, 45
1, 301657, Control_c, 0, 64, 43
1, 301676, Control_c, 0, 64, 40
1, 301732, Control_c, 0, 64, 36
1, 302538, Poly_aftertouch_c, 0, 33, 28
1, 302542, Note_on_c, 0, 33, 33
1, 302679, Note_off_c, 0, 36, 35
1, 302761, Control_c, 0, 64, 40
1, 302780, Control_c, 0, 64, 46
1, 302799, Control_c, 0, 64, 53
1, 302818, Control_c, 0, 64, 59
1, 302837, Control_c, 0, 64, 65
1, 302854, Control_c, 0, 64, 70
1, 302875, Control_c, 0, 64, 76
1, 302892, Control_c, 0, 64, 86
1, 302911, Control_c, 0, 64, 99
1, 302931, Control_c, 0, 64, 127
1, 302955, Note_off_c, 0, 52, 37
1, 302990, Note_off_c, 0, 57, 41
1, 303135, Note_off_c, 0, 64, 59
1, 303828, Poly_aftertouch_c, 0, 33, 24
1, 303878, Poly_aftertouch_c, 0, 72, 28
1, 303886, Note_on_c, 0, 72, 38
1, 303906, Poly_aftertouch_c, 0, 69, 28
1, 303912, Note_on_c, 0, 69, 26
1, 304033, Note_off_c, 0, 33, 19
1, 304287, Poly_aftertouch_c, 0, 69, 24
1, 304339, Note_off_c, 0, 72, 33
1, 304365, Poly_aftertouch_c, 0, 45, 28
1, 304371, Note_off_c, 0, 69, 31
1, 304374, Note_on_c, 0, 45, 27
1, 304501, Note_off_c, 0, 45, 55
1, 304583, Poly_aftertouch_c, 0, 72, 28
1, 304590, Note_on_c, 0, 72, 47
1, 304595, Poly_aftertouch_c, 0, 69, 28
1, 304601, Note_on_c, 0, 69, 25
1, 304778, Poly_aftertouch_c, 0, 52, 28
1, 304786, Note_on_c, 0, 52, 24
1, 304934, Poly_aftertouch_c, 0, 69, 24
1, 304948, Note_off_c, 0, 72, 44
1, 304969, Note_off_c, 0, 52, 24
1, 304977, Poly_aftertouch_c, 0, 45, 28
1, 304985, Note_off_c, 0, 69, 39
1, 304985, Note_on_c, 0, 45, 34
1, 305014, Poly_aftertouch_c, 0, 74, 28
1, 305019, Note_on_c, 0, 74, 43
1, 305024, Poly_aftertouch_c, 0, 65, 28
1, 305026, Control_c, 0, 64, 95
1, 305034, Note_on_c, 0, 65, 38
1, 305047, Control_c, 0, 64, 74
1, 305064, Control_c, 0, 64, 58
1, 305066, Poly_aftertouch_c, 0, 71, 28
1, 305076, Note_on_c, 0, 71, 13
1, 305080, Control_c, 0, 64, 47
1, 305101, Control_c, 0, 64, 44
1, 305139, Control_c, 0, 64, 46
1, 305157, Control_c, 0, 64, 52
1, 305176, Control_c, 0, 64, 58
1, 305194, Control_c, 0, 64, 63
1, 305213, Control_c, 0, 64, 67
1, 305232, Control_c, 0, 64, 71
1, 305251, Control_c, 0, 64, 76
1, 305269, Control_c, 0, 64, 83
1, 305274, Poly_aftertouch_c, 0, 50, 28
1, 305287, Note_on_c, 0, 50, 25
1, 305287, Control_c, 0, 64, 91
1, 305306, Note_off_c, 0, 74, 50
1, 305308, Control_c, 0, 64, 101
1, 305325, Control_c, 0, 64, 112
1, 305344, Control_c, 0, 64, 127
1, 305376, Poly_aftertouch_c, 0, 72, 28
1, 305380, Note_on_c, 0, 72, 47
1, 305383, Note_off_c, 0, 71, 42
1, 305391, Poly_aftertouch_c, 0, 69, 28
1, 305392, Note_on_c, 0, 69, 46
1, 305399, Note_off_c, 0, 65, 35
1, 305417, Note_off_c, 0, 45, 36
1, 305526, Poly_aftertouch_c, 0, 53, 28
1, 305533, Note_on_c, 0, 53, 35
1, 305631, Note_off_c, 0, 53, 0
1, 305631, Poly_aftertouch_c, 0, 53, 28
1, 305700, Control_c, 0, 64, 114
1, 305719, Note_off_c, 0, 72, 55
1, 305719, Control_c, 0, 64, 94
1, 305728, Note_off_c, 0, 69, 47
1, 305738, Control_c, 0, 64, 75
1, 305746, Poly_aftertouch_c, 0, 74, 28
1, 305749, Note_on_c, 0, 74, 49
1, 305750, Poly_aftertouch_c, 0, 45, 28
1, 305753, Poly_aftertouch_c, 0, 65, 28
1, 305753, Poly_aftertouch_c, 0, 71, 28
1, 305756, Note_on_c, 0, 45, 30
1, 305757, Control_c, 0, 64, 58
1, 305758, Note_on_c, 0, 71, 37
1, 305766, Note_on_c, 0, 65, 20
1, 305775, Control_c, 0, 64, 44
1, 305794, Control_c, 0, 64, 37
1, 305801, Poly_aftertouch_c, 0, 50, 24
1, 305801, Poly_aftertouch_c, 0, 53, 24
1, 305833, Note_off_c, 0, 50, 42
1, 305870, Control_c, 0, 64, 47
1, 305887, Control_c, 0, 64, 58
1, 305907, Control_c, 0, 64, 67
1, 305924, Control_c, 0, 64, 76
1, 305941, Poly_aftertouch_c, 0, 53, 0
1, 305943, Control_c, 0, 64, 90
1, 305963, Control_c, 0, 64, 113
1, 305964, Control_c, 0, 67, 103
1, 305981, Control_c, 0, 64, 127
1, 306104, Note_off_c, 0, 45, 41
1, 306152, Note_off_c, 0, 74, 52
1, 306175, Note_off_c, 0, 71, 57
1, 306451, Poly_aftertouch_c, 0, 33, 28
1, 306453, Note_on_c, 0, 33, 39
1, 306487, Control_c, 0, 64, 118
1, 306505, Control_c, 0, 64, 91
1, 306524, Control_c, 0, 64, 69
1, 306542, Control_c, 0, 64, 51
1, 306550, Poly_aftertouch_c, 0, 72, 28
1, 306555, Note_on_c, 0, 72, 56
1, 306561, Control_c, 0, 64, 38
1, 306569, Note_on_c, 0, 69, 47
1, 306569, Poly_aftertouch_c, 0, 69, 28
1, 306573, Note_off_c, 0, 65, 46
1, 306578, Control_c, 0, 64, 33
1, 306636, Control_c, 0, 64, 39
1, 306655, Control_c, 0, 64, 50
1, 306675, Control_c, 0, 64, 63
1, 306692, Control_c, 0, 64, 73
1, 306712, Control_c, 0, 64, 86
1, 306718, Note_off_c, 0, 33, 34
1, 306730, Control_c, 0, 64, 107
1, 306748, Control_c, 0, 64, 127
1, 306790, Note_off_c, 0, 72, 56
1, 306802, Note_off_c, 0, 69, 51
1, 306822, Poly_aftertouch_c, 0, 45, 28
1, 306826, Note_on_c, 0, 45, 46
1, 306887, Note_off_c, 0, 45, 53
1, 306933, Poly_aftertouch_c, 0, 72, 28
1, 306940, Note_on_c, 0, 72, 65
1, 306954, Poly_aftertouch_c, 0, 69, 28
1, 306958, Note_on_c, 0, 69, 55
1, 307040, Note_off_c, 0, 69, 46
1, 307081, Poly_aftertouch_c, 0, 52, 28
1, 307086, Note_on_c, 0, 52, 44
1, 307198, Control_c, 0, 64, 106
1, 307217, Control_c, 0, 64, 79
1, 307235, Control_c, 0, 64, 60
1, 307240, Poly_aftertouch_c, 0, 68, 28
1, 307243, Note_on_c, 0, 68, 54
1, 307246, Poly_aftertouch_c, 0, 71, 28
1, 307250, Note_on_c, 0, 71, 61
1, 307251, Poly_aftertouch_c, 0, 45, 28
1, 307252, Poly_aftertouch_c, 0, 62, 28
1, 307255, Note_on_c, 0, 62, 46
1, 307255, Control_c, 0, 64, 45
1, 307257, Note_on_c, 0, 45, 46
1, 307273, Control_c, 0, 64, 40
1, 307284, Note_off_c, 0, 72, 36
1, 307311, Control_c, 0, 64, 43
1, 307318, Note_off_c, 0, 52, 36
1, 307328, Control_c, 0, 64, 52
1, 307347, Control_c, 0, 64, 62
1, 307366, Control_c, 0, 64, 69
1, 307385, Control_c, 0, 64, 77
1, 307402, Note_off_c, 0, 71, 59
1, 307403, Control_c, 0, 64, 88
1, 307415, Note_off_c, 0, 68, 60
1, 307422, Control_c, 0, 64, 99
1, 307441, Control_c, 0, 64, 112
1, 307460, Control_c, 0, 64, 127
1, 307469, Poly_aftertouch_c, 0, 53, 28
1, 307476, Note_on_c, 0, 53, 44
1, 307539, Poly_aftertouch_c, 0, 69, 28
1, 307543, Note_on_c, 0, 69, 70
1, 307546, Poly_aftertouch_c, 0, 65, 28
1, 307548, Note_on_c, 0, 65, 66
1, 307561, Note_off_c, 0, 62, 55
1, 307571, Control_c, 0, 67, 99
1, 307645, Note_off_c, 0, 45, 54
1, 307665, Poly_aftertouch_c, 0, 50, 28
1, 307674, Note_on_c, 0, 50, 53
1, 307697, Note_off_c, 0, 53, 36
1, 307739, Control_c, 0, 67, 92
1, 307760, Control_c, 0, 67, 88
1, 307777, Control_c, 0, 67, 84
1, 307814, Control_c, 0, 67, 79
1, 307899, Note_off_c, 0, 65, 57
1, 307899, Note_off_c, 0, 69, 50
1, 307899, Poly_aftertouch_c, 0, 68, 28
1, 307900, Poly_aftertouch_c, 0, 71, 28
1, 307904, Note_on_c, 0, 71, 63
1, 307906, Poly_aftertouch_c, 0, 62, 28
1, 307909, Note_on_c, 0, 62, 49
1, 307910, Note_on_c, 0, 68, 56
1, 307910, Control_c, 0, 64, 94
1, 307921, Poly_aftertouch_c, 0, 45, 28
1, 307927, Control_c, 0, 64, 74
1, 307930, Note_on_c, 0, 45, 46
1, 307946, Control_c, 0, 64, 56
1, 307947, Control_c, 0, 67, 75
1, 307965, Control_c, 0, 64, 42
1, 307966, Note_off_c, 0, 50, 57
1, 307984, Control_c, 0, 64, 34
1, 308059, Control_c, 0, 64, 40
1, 308077, Control_c, 0, 64, 51
1, 308096, Control_c, 0, 64, 64
1, 308115, Control_c, 0, 64, 74
1, 308133, Control_c, 0, 64, 86
1, 308136, Control_c, 0, 67, 68
1, 308152, Control_c, 0, 64, 104
1, 308171, Control_c, 0, 64, 127
1, 308172, Control_c, 0, 67, 62
1, 308197, Note_off_c, 0, 45, 52
1, 308208, Control_c, 0, 67, 55
1, 308246, Control_c, 0, 67, 51
1, 308293, Note_off_c, 0, 68, 52
1, 308646, Poly_aftertouch_c, 0, 33, 28
1, 308650, Note_on_c, 0, 33, 49
1, 308676, Control_c, 0, 64, 117
1, 308695, Control_c, 0, 64, 88
1, 308713, Control_c, 0, 64, 66
1, 308726, Note_off_c, 0, 62, 55
1, 308732, Control_c, 0, 64, 45
1, 308735, Poly_aftertouch_c, 0, 69, 28
1, 308740, Note_on_c, 0, 69, 63
1, 308750, Poly_aftertouch_c, 0, 66, 28
1, 308750, Control_c, 0, 64, 27
1, 308757, Note_on_c, 0, 66, 55
1, 308770, Control_c, 0, 64, 17
1, 308786, Note_off_c, 0, 71, 54
1, 308864, Control_c, 0, 64, 32
1, 308881, Control_c, 0, 64, 49
1, 308901, Control_c, 0, 64, 70
1, 308921, Control_c, 0, 64, 91
1, 308937, Control_c, 0, 64, 127
1, 309008, Note_off_c, 0, 33, 32
1, 309055, Note_off_c, 0, 69, 56
1, 309068, Poly_aftertouch_c, 0, 45, 28
1, 309073, Note_on_c, 0, 45, 49
1, 309078, Note_off_c, 0, 66, 34
1, 309205, Note_off_c, 0, 45, 47
1, 309207, Note_on_c, 0, 69, 79
1, 309208, Poly_aftertouch_c, 0, 66, 28
1, 309208, Poly_aftertouch_c, 0, 69, 28
1, 309214, Note_on_c, 0, 66, 68
1, 309360, Poly_aftertouch_c, 0, 48, 28
1, 309364, Note_on_c, 0, 48, 54
1, 309578, Poly_aftertouch_c, 0, 45, 28
1, 309584, Note_on_c, 0, 45, 51
1, 309612, Control_c, 0, 64, 105
1, 309619, Poly_aftertouch_c, 0, 72, 28
1, 309625, Note_on_c, 0, 72, 80
1, 309631, Control_c, 0, 64, 78
1, 309639, Poly_aftertouch_c, 0, 60, 28
1, 309642, Note_on_c, 0, 60, 60
1, 309650, Control_c, 0, 64, 57
1, 309660, Note_off_c, 0, 48, 36
1, 309668, Control_c, 0, 64, 35
1, 309687, Control_c, 0, 64, 17
1, 309689, Note_off_c, 0, 66, 37
1, 309706, Control_c, 0, 64, 11
1, 309747, Note_off_c, 0, 69, 51
1, 309799, Control_c, 0, 64, 23
1, 309817, Control_c, 0, 64, 36
1, 309837, Control_c, 0, 64, 55
1, 309855, Control_c, 0, 64, 72
1, 309874, Poly_aftertouch_c, 0, 54, 28
1, 309874, Control_c, 0, 64, 85
1, 309883, Note_on_c, 0, 54, 56
1, 309894, Control_c, 0, 64, 102
1, 309912, Control_c, 0, 64, 124
1, 309946, Poly_aftertouch_c, 0, 71, 28
1, 309953, Note_on_c, 0, 71, 82
1, 309965, Poly_aftertouch_c, 0, 68, 28
1, 309971, Note_on_c, 0, 68, 70
1, 310017, Note_off_c, 0, 72, 56
1, 310019, Note_off_c, 0, 45, 55
1, 310094, Poly_aftertouch_c, 0, 51, 28
1, 310103, Note_on_c, 0, 51, 50
1, 310109, Note_off_c, 0, 54, 29
1, 310113, Note_off_c, 0, 60, 33
1, 310196, Note_off_c, 0, 68, 60
1, 310248, Poly_aftertouch_c, 0, 45, 28
1, 310252, Note_on_c, 0, 45, 50
1, 310304, Control_c, 0, 64, 117
1, 310325, Control_c, 0, 64, 108
1, 310341, Control_c, 0, 64, 94
1, 310356, Poly_aftertouch_c, 0, 72, 28
1, 310357, Note_on_c, 0, 72, 84
1, 310360, Control_c, 0, 64, 75
1, 310372, Poly_aftertouch_c, 0, 60, 28
1, 310377, Note_on_c, 0, 60, 61
1, 310378, Note_off_c, 0, 51, 35
1, 310382, Control_c, 0, 64, 53
1, 310399, Control_c, 0, 64, 31
1, 310417, Control_c, 0, 64, 14
1, 310432, Note_off_c, 0, 71, 40
1, 310437, Control_c, 0, 64, 9
1, 310530, Control_c, 0, 64, 19
1, 310547, Control_c, 0, 64, 29
1, 310567, Control_c, 0, 64, 41
1, 310585, Control_c, 0, 64, 59
1, 310604, Control_c, 0, 64, 72
1, 310624, Control_c, 0, 64, 80
1, 310631, Poly_aftertouch_c, 0, 54, 28
1, 310639, Note_on_c, 0, 54, 45
1, 310642, Control_c, 0, 64, 88
1, 310661, Control_c, 0, 64, 99
1, 310679, Control_c, 0, 64, 116
1, 310697, Control_c, 0, 64, 127
1, 310765, Poly_aftertouch_c, 0, 69, 28
1, 310769, Note_on_c, 0, 69, 80
1, 310785, Poly_aftertouch_c, 0, 66, 28
1, 310789, Note_on_c, 0, 66, 65
1, 310817, Note_off_c, 0, 72, 56
1, 310845, Note_off_c, 0, 54, 31
1, 310897, Poly_aftertouch_c, 0, 51, 28
1, 310900, Note_on_c, 0, 51, 53
1, 310904, Note_off_c, 0, 66, 53
1, 310958, Note_off_c, 0, 51, 57
1, 310975, Note_off_c, 0, 45, 26
1, 310976, Note_off_c, 0, 60, 32
1, 311317, Control_c, 0, 64, 118
1, 311335, Control_c, 0, 64, 109
1, 311349, Poly_aftertouch_c, 0, 68, 28
1, 311351, Control_c, 0, 64, 100
1, 311357, Note_on_c, 0, 68, 75
1, 311363, Poly_aftertouch_c, 0, 64, 28
1, 311370, Note_on_c, 0, 64, 61
1, 311370, Control_c, 0, 64, 87
1, 311378, Poly_aftertouch_c, 0, 40, 28
1, 311384, Note_on_c, 0, 40, 39
1, 311389, Control_c, 0, 64, 71
1, 311409, Control_c, 0, 64, 54
1, 311428, Control_c, 0, 64, 37
1, 311440, Note_off_c, 0, 69, 49
1, 311445, Control_c, 0, 64, 20
1, 311467, Control_c, 0, 64, 8
1, 311615, Control_c, 0, 64, 18
1, 311634, Control_c, 0, 64, 26
1, 311653, Control_c, 0, 64, 37
1, 311671, Control_c, 0, 64, 55
1, 311690, Control_c, 0, 64, 71
1, 311709, Control_c, 0, 64, 83
1, 311728, Control_c, 0, 64, 99
1, 311746, Control_c, 0, 64, 127
1, 311857, Poly_aftertouch_c, 0, 47, 28
1, 311865, Note_on_c, 0, 47, 48
1, 312076, Note_off_c, 0, 68, 38
1, 312156, Poly_aftertouch_c, 0, 52, 28
1, 312159, Note_on_c, 0, 52, 49
1, 312417, Poly_aftertouch_c, 0, 68, 28
1, 312417, Poly_aftertouch_c, 0, 71, 28
1, 312422, Note_on_c, 0, 71, 70
1, 312425, Note_on_c, 0, 68, 62
1, 312433, Poly_aftertouch_c, 0, 59, 28
1, 312438, Note_on_c, 0, 59, 47
1, 312445, Note_off_c, 0, 64, 55
1, 312458, Control_c, 0, 64, 97
1, 312476, Control_c, 0, 64, 70
1, 312494, Control_c, 0, 64, 49
1, 312514, Control_c, 0, 64, 34
1, 312608, Control_c, 0, 64, 43
1, 312625, Control_c, 0, 64, 55
1, 312645, Control_c, 0, 64, 65
1, 312663, Control_c, 0, 64, 72
1, 312682, Control_c, 0, 64, 79
1, 312700, Control_c, 0, 64, 89
1, 312719, Control_c, 0, 64, 103
1, 312739, Control_c, 0, 64, 127
1, 312756, Control_c, 0, 67, 46
1, 312794, Control_c, 0, 67, 37
1, 312813, Control_c, 0, 67, 24
1, 312831, Control_c, 0, 67, 10
1, 312851, Control_c, 0, 67, 0
1, 313293, Note_off_c, 0, 52, 34
1, 313319, Note_off_c, 0, 47, 49
1, 313329, Note_off_c, 0, 71, 53
1, 313338, Note_off_c, 0, 59, 50
1, 313403, Note_off_c, 0, 40, 41
1, 313483, Note_off_c, 0, 68, 51
1, 314005, Poly_aftertouch_c, 0, 33, 28
1, 314012, Note_on_c, 0, 33, 48
1, 314123, Control_c, 0, 64, 85
1, 314142, Control_c, 0, 64, 59
1, 314155, Note_on_c, 0, 69, 81
1, 314156, Poly_aftertouch_c, 0, 69, 28
1, 314160, Control_c, 0, 64, 36
1, 314179, Control_c, 0, 64, 22
1, 314185, Poly_aftertouch_c, 0, 72, 28
1, 314190, Note_on_c, 0, 72, 62
1, 314235, Control_c, 0, 64, 27
1, 314254, Control_c, 0, 64, 37
1, 314273, Control_c, 0, 64, 51
1, 314292, Control_c, 0, 64, 67
1, 314310, Control_c, 0, 64, 82
1, 314330, Control_c, 0, 64, 112
1, 314348, Control_c, 0, 64, 127
1, 314495, Note_off_c, 0, 72, 36
1, 314527, Note_off_c, 0, 33, 49
1, 314536, Note_off_c, 0, 69, 55
1, 314575, Poly_aftertouch_c, 0, 45, 28
1, 314581, Note_on_c, 0, 45, 53
1, 314626, Note_off_c, 0, 45, 61
1, 314685, Poly_aftertouch_c, 0, 69, 28
1, 314686, Note_on_c, 0, 69, 91
1, 314696, Poly_aftertouch_c, 0, 72, 28
1, 314698, Note_on_c, 0, 72, 78
1, 314871, Poly_aftertouch_c, 0, 52, 28
1, 314875, Note_on_c, 0, 52, 59
1, 315021, Control_c, 0, 64, 92
1, 315041, Control_c, 0, 64, 64
1, 315059, Control_c, 0, 64, 41
1, 315067, Poly_aftertouch_c, 0, 45, 28
1, 315069, Poly_aftertouch_c, 0, 67, 28
1, 315073, Note_on_c, 0, 45, 69
1, 315074, Note_on_c, 0, 67, 93
1, 315077, Note_off_c, 0, 69, 63
1, 315078, Poly_aftertouch_c, 0, 76, 28
1, 315078, Control_c, 0, 64, 33
1, 315080, Note_on_c, 0, 76, 77
1, 315086, Note_off_c, 0, 72, 46
1, 315086, Poly_aftertouch_c, 0, 73, 28
1, 315090, Note_on_c, 0, 73, 75
1, 315095, Note_off_c, 0, 52, 52
1, 315115, Control_c, 0, 64, 38
1, 315135, Control_c, 0, 64, 52
1, 315153, Control_c, 0, 64, 68
1, 315172, Control_c, 0, 64, 85
1, 315190, Control_c, 0, 64, 127
1, 315260, Note_off_c, 0, 76, 56
1, 315275, Note_off_c, 0, 45, 56
1, 315319, Poly_aftertouch_c, 0, 57, 28
1, 315326, Note_on_c, 0, 57, 68
1, 315388, Note_off_c, 0, 57, 59
1, 315472, Note_off_c, 0, 67, 57
1, 315505, Poly_aftertouch_c, 0, 50, 28
1, 315512, Note_on_c, 0, 50, 73
1, 315734, Control_c, 0, 64, 84
1, 315740, Poly_aftertouch_c, 0, 65, 28
1, 315742, Note_on_c, 0, 65, 101
1, 315746, Poly_aftertouch_c, 0, 62, 28
1, 315749, Note_on_c, 0, 77, 77
1, 315750, Poly_aftertouch_c, 0, 71, 28
1, 315751, Poly_aftertouch_c, 0, 77, 28
1, 315752, Control_c, 0, 64, 54
1, 315753, Note_on_c, 0, 62, 70
1, 315755, Note_on_c, 0, 71, 69
1, 315770, Control_c, 0, 64, 23
1, 315789, Note_off_c, 0, 73, 64
1, 315789, Control_c, 0, 64, 13
1, 315796, Note_off_c, 0, 50, 56
1, 315826, Control_c, 0, 64, 24
1, 315845, Control_c, 0, 64, 46
1, 315864, Control_c, 0, 64, 76
1, 315884, Control_c, 0, 64, 127
1, 315912, Note_off_c, 0, 62, 60
1, 315963, Note_off_c, 0, 77, 45
1, 316009, Note_off_c, 0, 65, 57
1, 316044, Poly_aftertouch_c, 0, 57, 28
1, 316049, Note_off_c, 0, 71, 58
1, 316052, Note_on_c, 0, 57, 71
1, 316313, Poly_aftertouch_c, 0, 69, 28
1, 316317, Note_on_c, 0, 69, 76
1, 316811, Poly_aftertouch_c, 0, 64, 28
1, 316813, Note_on_c, 0, 79, 78
1, 316813, Note_on_c, 0, 64, 92
1, 316814, Note_on_c, 0, 73, 78
1, 316816, Poly_aftertouch_c, 0, 73, 28
1, 316816, Poly_aftertouch_c, 0, 79, 28
1, 316893, Control_c, 0, 64, 119
1, 316912, Control_c, 0, 64, 89
1, 316932, Control_c, 0, 64, 72
1, 316951, Control_c, 0, 64, 61
1, 316968, Control_c, 0, 64, 53
1, 316988, Control_c, 0, 64, 47
1, 317006, Control_c, 0, 64, 41
1, 317025, Control_c, 0, 64, 34
1, 317043, Control_c, 0, 64, 25
1, 317063, Control_c, 0, 64, 18
1, 317081, Control_c, 0, 64, 11
1, 317174, Control_c, 0, 64, 0
1, 317605, Control_c, 0, 64, 10
1, 317624, Control_c, 0, 64, 15
1, 317642, Control_c, 0, 64, 22
1, 317662, Control_c, 0, 64, 31
1, 317680, Control_c, 0, 64, 43
1, 317698, Control_c, 0, 64, 57
1, 317717, Control_c, 0, 64, 64
1, 317736, Control_c, 0, 64, 67
1, 317810, Control_c, 0, 64, 70
1, 317829, Control_c, 0, 64, 74
1, 317847, Control_c, 0, 64, 81
1, 317867, Control_c, 0, 64, 91
1, 317886, Control_c, 0, 64, 105
1, 317903, Control_c, 0, 64, 127
1, 318286, Note_off_c, 0, 69, 42
1, 318343, Note_off_c, 0, 57, 54
1, 318426, Note_off_c, 0, 64, 56
1, 318620, Note_off_c, 0, 73, 62
1, 319164, Poly_aftertouch_c, 0, 77, 28
1, 319168, Note_on_c, 0, 77, 78
1, 319175, Poly_aftertouch_c, 0, 74, 28
1, 319176, Control_c, 0, 64, 95
1, 319179, Poly_aftertouch_c, 0, 38, 28
1, 319181, Note_on_c, 0, 74, 68
1, 319183, Note_on_c, 0, 38, 56
1, 319196, Control_c, 0, 64, 68
1, 319215, Control_c, 0, 64, 42
1, 319229, Note_off_c, 0, 79, 56
1, 319233, Control_c, 0, 64, 19
1, 319252, Control_c, 0, 64, 10
1, 319327, Control_c, 0, 64, 20
1, 319346, Control_c, 0, 64, 31
1, 319365, Control_c, 0, 64, 50
1, 319382, Control_c, 0, 64, 71
1, 319402, Control_c, 0, 64, 92
1, 319421, Control_c, 0, 64, 127
1, 319540, Note_off_c, 0, 74, 50
1, 319549, Poly_aftertouch_c, 0, 50, 28
1, 319555, Note_off_c, 0, 77, 53
1, 319558, Note_on_c, 0, 50, 72
1, 319568, Note_off_c, 0, 38, 33
1, 319640, Note_off_c, 0, 50, 62
1, 319667, Poly_aftertouch_c, 0, 74, 28
1, 319667, Poly_aftertouch_c, 0, 77, 28
1, 319670, Note_on_c, 0, 77, 88
1, 319670, Note_on_c, 0, 74, 85
1, 319798, Poly_aftertouch_c, 0, 57, 28
1, 319804, Note_on_c, 0, 57, 68
1, 319945, Control_c, 0, 64, 96
1, 319964, Control_c, 0, 64, 67
1, 319982, Control_c, 0, 64, 42
1, 319999, Poly_aftertouch_c, 0, 50, 28
1, 320000, Control_c, 0, 64, 26
1, 320001, Poly_aftertouch_c, 0, 81, 28
1, 320007, Note_on_c, 0, 50, 76
1, 320007, Note_on_c, 0, 81, 85
1, 320009, Note_off_c, 0, 77, 58
1, 320009, Poly_aftertouch_c, 0, 72, 28
1, 320010, Poly_aftertouch_c, 0, 78, 28
1, 320012, Note_on_c, 0, 72, 82
1, 320015, Note_on_c, 0, 78, 80
1, 320017, Note_off_c, 0, 57, 63
1, 320018, Note_off_c, 0, 74, 59
1, 320039, Control_c, 0, 64, 30
1, 320057, Control_c, 0, 64, 42
1, 320077, Control_c, 0, 64, 64
1, 320096, Control_c, 0, 64, 83
1, 320098, Note_off_c, 0, 72, 56
1, 320113, Control_c, 0, 64, 127
1, 320159, Note_off_c, 0, 81, 62
1, 320209, Note_off_c, 0, 50, 61
1, 320224, Poly_aftertouch_c, 0, 62, 28
1, 320227, Note_on_c, 0, 62, 83
1, 320273, Note_off_c, 0, 78, 63
1, 320287, Note_off_c, 0, 62, 62
1, 320308, Poly_aftertouch_c, 0, 70, 28
1, 320308, Poly_aftertouch_c, 0, 79, 28
1, 320310, Note_on_c, 0, 79, 89
1, 320313, Note_on_c, 0, 70, 92
1, 320426, Note_off_c, 0, 70, 57
1, 320445, Poly_aftertouch_c, 0, 55, 28
1, 320447, Note_on_c, 0, 55, 90
1, 320712, Control_c, 0, 64, 104
1, 320732, Control_c, 0, 64, 65
1, 320750, Control_c, 0, 64, 31
1, 320754, Poly_aftertouch_c, 0, 73, 28
1, 320754, Poly_aftertouch_c, 0, 76, 28
1, 320755, Poly_aftertouch_c, 0, 82, 28
1, 320758, Note_on_c, 0, 76, 87
1, 320759, Note_on_c, 0, 82, 96
1, 320760, Note_on_c, 0, 73, 88
1, 320765, Note_on_c, 0, 67, 83
1, 320766, Poly_aftertouch_c, 0, 67, 28
1, 320767, Note_off_c, 0, 79, 64
1, 320807, Control_c, 0, 64, 10
1, 320817, Note_off_c, 0, 55, 60
1, 320825, Control_c, 0, 64, 25
1, 320843, Control_c, 0, 64, 54
1, 320862, Control_c, 0, 64, 91
1, 320880, Control_c, 0, 64, 127
1, 320901, Note_off_c, 0, 67, 61
1, 320921, Note_off_c, 0, 73, 53
1, 320974, Note_off_c, 0, 82, 57
1, 321078, Poly_aftertouch_c, 0, 62, 28
1, 321084, Note_on_c, 0, 62, 90
1, 321255, Control_c, 0, 64, 78
1, 321269, Poly_aftertouch_c, 0, 78, 28
1, 321270, Poly_aftertouch_c, 0, 81, 28
1, 321274, Control_c, 0, 64, 36
1, 321275, Note_on_c, 0, 81, 92
1, 321275, Note_on_c, 0, 78, 86
1, 321277, Note_on_c, 0, 69, 94
1, 321278, Poly_aftertouch_c, 0, 69, 28
1, 321293, Control_c, 0, 64, 0
1, 321301, Note_off_c, 0, 76, 56
1, 321404, Control_c, 0, 64, 16
1, 321424, Control_c, 0, 64, 40
1, 321432, Note_off_c, 0, 69, 55
1, 321441, Note_off_c, 0, 81, 62
1, 321442, Control_c, 0, 64, 70
1, 321461, Control_c, 0, 64, 104
1, 321479, Control_c, 0, 64, 127
1, 321501, Note_off_c, 0, 78, 63
1, 321510, Poly_aftertouch_c, 0, 74, 28
1, 321515, Note_on_c, 0, 74, 90
1, 321634, Note_off_c, 0, 74, 60
1, 322110, Poly_aftertouch_c, 0, 84, 28
1, 322115, Note_on_c, 0, 84, 96
1, 322116, Poly_aftertouch_c, 0, 72, 28
1, 322117, Poly_aftertouch_c, 0, 78, 28
1, 322120, Note_on_c, 0, 78, 89
1, 322122, Note_on_c, 0, 72, 91
1, 322125, Note_on_c, 0, 69, 84
1, 322127, Poly_aftertouch_c, 0, 69, 28
1, 322173, Control_c, 0, 64, 81
1, 322191, Control_c, 0, 64, 55
1, 322210, Control_c, 0, 64, 30
1, 322228, Control_c, 0, 64, 10
1, 322285, Control_c, 0, 64, 0
1, 322603, Control_c, 0, 64, 8
1, 322641, Control_c, 0, 64, 16
1, 322658, Control_c, 0, 64, 23
1, 322678, Control_c, 0, 64, 32
1, 322696, Control_c, 0, 64, 45
1, 322715, Control_c, 0, 64, 58
1, 322733, Control_c, 0, 64, 64
1, 322753, Control_c, 0, 64, 65
1, 322790, Control_c, 0, 64, 66
1, 322808, Control_c, 0, 64, 67
1, 322846, Control_c, 0, 64, 70
1, 322865, Control_c, 0, 64, 73
1, 322883, Control_c, 0, 64, 76
1, 322903, Control_c, 0, 64, 79
1, 322920, Control_c, 0, 64, 84
1, 322940, Control_c, 0, 64, 89
1, 322959, Control_c, 0, 64, 94
1, 322977, Control_c, 0, 64, 98
1, 322996, Control_c, 0, 64, 103
1, 323033, Control_c, 0, 64, 110
1, 323071, Control_c, 0, 64, 117
1, 323090, Control_c, 0, 64, 122
1, 323108, Control_c, 0, 64, 127
1, 323530, Poly_aftertouch_c, 0, 63, 28
1, 323534, Note_off_c, 0, 62, 58
1, 323534, Note_on_c, 0, 63, 71
1, 323594, Control_c, 0, 64, 103
1, 323615, Control_c, 0, 64, 89
1, 323632, Control_c, 0, 64, 76
1, 323651, Control_c, 0, 64, 63
1, 323669, Control_c, 0, 64, 51
1, 323689, Control_c, 0, 64, 42
1, 323707, Control_c, 0, 64, 34
1, 323726, Control_c, 0, 64, 26
1, 323745, Control_c, 0, 64, 20
1, 323782, Control_c, 0, 64, 14
1, 323819, Control_c, 0, 64, 10
1, 324269, Control_c, 0, 64, 15
1, 324307, Control_c, 0, 64, 21
1, 324344, Control_c, 0, 64, 27
1, 324381, Control_c, 0, 64, 32
1, 324419, Control_c, 0, 64, 41
1, 324437, Control_c, 0, 64, 47
1, 324456, Control_c, 0, 64, 52
1, 324474, Control_c, 0, 64, 55
1, 324606, Control_c, 0, 64, 57
1, 324663, Control_c, 0, 64, 59
1, 324700, Control_c, 0, 64, 60
1, 324737, Control_c, 0, 64, 62
1, 324774, Control_c, 0, 64, 63
1, 324811, Control_c, 0, 64, 64
1, 324849, Control_c, 0, 64, 65
1, 324886, Control_c, 0, 64, 66
1, 324905, Control_c, 0, 64, 68
1, 324923, Control_c, 0, 64, 70
1, 324942, Control_c, 0, 64, 74
1, 324961, Control_c, 0, 64, 80
1, 324980, Control_c, 0, 64, 90
1, 324999, Control_c, 0, 64, 107
1, 325017, Control_c, 0, 64, 127
1, 325120, Note_off_c, 0, 69, 28
1, 325186, Note_off_c, 0, 84, 49
1, 325226, Note_off_c, 0, 63, 39
1, 325319, Note_off_c, 0, 78, 55
1, 325468, Note_off_c, 0, 72, 48
1, 326813, Poly_aftertouch_c, 0, 79, 28
1, 326818, Note_on_c, 0, 79, 65
1, 326833, Control_c, 0, 64, 96
1, 326841, Poly_aftertouch_c, 0, 67, 28
1, 326847, Poly_aftertouch_c, 0, 72, 28
1, 326852, Note_on_c, 0, 67, 38
1, 326852, Poly_aftertouch_c, 0, 40, 28
1, 326852, Control_c, 0, 64, 76
1, 326853, Note_on_c, 0, 72, 49
1, 326856, Note_on_c, 0, 40, 35
1, 326870, Control_c, 0, 64, 59
1, 326891, Control_c, 0, 64, 41
1, 326908, Control_c, 0, 64, 27
1, 326926, Control_c, 0, 64, 20
1, 327001, Control_c, 0, 64, 25
1, 327020, Control_c, 0, 64, 35
1, 327039, Control_c, 0, 64, 50
1, 327058, Control_c, 0, 64, 67
1, 327076, Control_c, 0, 64, 79
1, 327095, Control_c, 0, 64, 97
1, 327114, Control_c, 0, 64, 127
1, 327253, Note_off_c, 0, 40, 32
1, 327264, Note_off_c, 0, 79, 50
1, 327303, Note_off_c, 0, 67, 33
1, 327310, Note_off_c, 0, 72, 48
1, 327376, Poly_aftertouch_c, 0, 52, 28
1, 327381, Note_on_c, 0, 52, 38
1, 327496, Poly_aftertouch_c, 0, 79, 28
1, 327500, Note_on_c, 0, 79, 76
1, 327534, Note_off_c, 0, 52, 25
1, 327536, Poly_aftertouch_c, 0, 72, 28
1, 327542, Note_on_c, 0, 72, 43
1, 327545, Poly_aftertouch_c, 0, 67, 28
1, 327550, Note_on_c, 0, 67, 46
1, 327617, Note_off_c, 0, 67, 54
1, 327687, Note_off_c, 0, 79, 61
1, 327709, Poly_aftertouch_c, 0, 55, 28
1, 327724, Note_on_c, 0, 55, 12
1, 327882, Poly_aftertouch_c, 0, 52, 28
1, 327888, Note_on_c, 0, 52, 46
1, 328015, Note_on_c, 0, 77, 63
1, 328016, Poly_aftertouch_c, 0, 77, 28
1, 328027, Poly_aftertouch_c, 0, 55, 24
1, 328031, Control_c, 0, 64, 93
1, 328033, Poly_aftertouch_c, 0, 68, 28
1, 328041, Note_on_c, 0, 68, 48
1, 328048, Control_c, 0, 64, 68
1, 328050, Control_c, 0, 67, 8
1, 328065, Note_off_c, 0, 55, 41
1, 328068, Control_c, 0, 64, 47
1, 328077, Note_off_c, 0, 72, 44
1, 328087, Control_c, 0, 64, 30
1, 328108, Control_c, 0, 64, 21
1, 328144, Control_c, 0, 67, 12
1, 328182, Control_c, 0, 64, 26
1, 328199, Control_c, 0, 64, 32
1, 328200, Control_c, 0, 67, 16
1, 328218, Control_c, 0, 64, 40
1, 328237, Control_c, 0, 64, 51
1, 328238, Control_c, 0, 67, 21
1, 328256, Control_c, 0, 64, 61
1, 328273, Control_c, 0, 64, 66
1, 328293, Control_c, 0, 64, 69
1, 328311, Control_c, 0, 64, 71
1, 328322, Poly_aftertouch_c, 0, 60, 28
1, 328327, Note_on_c, 0, 60, 41
1, 328331, Control_c, 0, 64, 74
1, 328349, Control_c, 0, 64, 78
1, 328368, Control_c, 0, 64, 82
1, 328387, Control_c, 0, 64, 89
1, 328405, Control_c, 0, 64, 96
1, 328424, Control_c, 0, 64, 104
1, 328432, Poly_aftertouch_c, 0, 76, 28
1, 328438, Note_on_c, 0, 76, 64
1, 328439, Note_off_c, 0, 77, 55
1, 328442, Control_c, 0, 64, 116
1, 328462, Control_c, 0, 64, 127
1, 328485, Note_off_c, 0, 68, 52
1, 328724, Control_c, 0, 67, 25
1, 328769, Poly_aftertouch_c, 0, 53, 28
1, 328775, Note_on_c, 0, 53, 41
1, 328781, Control_c, 0, 64, 104
1, 328787, Poly_aftertouch_c, 0, 60, 24
1, 328797, Note_off_c, 0, 76, 55
1, 328798, Control_c, 0, 64, 83
1, 328807, Poly_aftertouch_c, 0, 74, 28
1, 328811, Note_on_c, 0, 74, 59
1, 328816, Note_off_c, 0, 52, 36
1, 328816, Control_c, 0, 64, 62
1, 328827, Poly_aftertouch_c, 0, 69, 28
1, 328831, Note_on_c, 0, 69, 42
1, 328835, Control_c, 0, 64, 41
1, 328855, Control_c, 0, 64, 21
1, 328857, Note_off_c, 0, 60, 34
1, 328873, Control_c, 0, 64, 8
1, 328967, Control_c, 0, 64, 13
1, 328986, Control_c, 0, 64, 20
1, 329004, Control_c, 0, 64, 29
1, 329023, Control_c, 0, 64, 40
1, 329042, Control_c, 0, 64, 57
1, 329061, Control_c, 0, 64, 68
1, 329079, Control_c, 0, 64, 74
1, 329098, Control_c, 0, 64, 78
1, 329117, Control_c, 0, 64, 82
1, 329130, Poly_aftertouch_c, 0, 57, 28
1, 329136, Note_on_c, 0, 57, 43
1, 329136, Control_c, 0, 64, 87
1, 329154, Control_c, 0, 64, 93
1, 329174, Control_c, 0, 64, 100
1, 329192, Control_c, 0, 64, 108
1, 329211, Control_c, 0, 64, 122
1, 329230, Control_c, 0, 64, 127
1, 329253, Poly_aftertouch_c, 0, 72, 28
1, 329258, Note_on_c, 0, 72, 55
1, 329289, Note_off_c, 0, 74, 37
1, 329343, Note_off_c, 0, 69, 38
1, 329362, Note_off_c, 0, 72, 61
1, 329400, Note_off_c, 0, 57, 35
1, 329848, Control_c, 0, 64, 117
1, 329866, Control_c, 0, 64, 100
1, 329870, Poly_aftertouch_c, 0, 76, 28
1, 329875, Note_on_c, 0, 76, 59
1, 329880, Poly_aftertouch_c, 0, 71, 28
1, 329884, Control_c, 0, 64, 83
1, 329888, Note_on_c, 0, 71, 45
1, 329900, Poly_aftertouch_c, 0, 64, 28
1, 329903, Control_c, 0, 64, 66
1, 329907, Note_off_c, 0, 53, 47
1, 329908, Note_on_c, 0, 64, 32
1, 329908, Poly_aftertouch_c, 0, 68, 28
1, 329911, Poly_aftertouch_c, 0, 52, 28
1, 329918, Note_on_c, 0, 68, 35
1, 329918, Note_on_c, 0, 52, 39
1, 329921, Control_c, 0, 64, 47
1, 329940, Control_c, 0, 64, 27
1, 329959, Control_c, 0, 64, 10
1, 330070, Control_c, 0, 64, 17
1, 330090, Control_c, 0, 64, 26
1, 330108, Control_c, 0, 64, 41
1, 330128, Control_c, 0, 64, 61
1, 330145, Control_c, 0, 64, 76
1, 330165, Control_c, 0, 64, 92
1, 330185, Control_c, 0, 64, 118
1, 330202, Control_c, 0, 64, 127
1, 330217, Note_off_c, 0, 52, 46
1, 330271, Note_off_c, 0, 68, 41
1, 330502, Poly_aftertouch_c, 0, 52, 28
1, 330508, Note_on_c, 0, 52, 42
1, 330895, Control_c, 0, 64, 121
1, 330916, Control_c, 0, 64, 113
1, 330933, Control_c, 0, 64, 106
1, 330952, Control_c, 0, 64, 98
1, 330962, Poly_aftertouch_c, 0, 50, 28
1, 330963, Poly_aftertouch_c, 0, 69, 28
1, 330969, Note_on_c, 0, 69, 50
1, 330969, Control_c, 0, 64, 89
1, 330973, Note_on_c, 0, 50, 43
1, 330978, Note_off_c, 0, 71, 60
1, 330989, Control_c, 0, 64, 79
1, 331007, Control_c, 0, 64, 70
1, 331027, Control_c, 0, 64, 62
1, 331045, Control_c, 0, 64, 56
1, 331065, Control_c, 0, 64, 51
1, 331082, Control_c, 0, 64, 48
1, 331100, Control_c, 0, 64, 45
1, 331121, Control_c, 0, 64, 41
1, 331138, Control_c, 0, 64, 37
1, 331157, Control_c, 0, 64, 33
1, 331195, Control_c, 0, 64, 29
1, 331251, Control_c, 0, 64, 25
1, 331363, Control_c, 0, 64, 21
1, 331391, Poly_aftertouch_c, 0, 48, 28
1, 331399, Note_on_c, 0, 48, 42
1, 331432, Note_off_c, 0, 50, 39
1, 331475, Control_c, 0, 67, 30
1, 331494, Control_c, 0, 64, 17
1, 331495, Control_c, 0, 67, 34
1, 331532, Control_c, 0, 67, 41
1, 331568, Control_c, 0, 64, 12
1, 331569, Control_c, 0, 67, 47
1, 331643, Control_c, 0, 64, 8
1, 331789, Poly_aftertouch_c, 0, 47, 28
1, 331798, Note_on_c, 0, 47, 38
1, 331802, Note_off_c, 0, 48, 53
1, 331830, Control_c, 0, 64, 0
1, 332256, Poly_aftertouch_c, 0, 45, 28
1, 332263, Note_on_c, 0, 45, 44
1, 332306, Note_off_c, 0, 47, 40
1, 332308, Note_off_c, 0, 76, 51
1, 332355, Control_c, 0, 64, 8
1, 332366, Note_off_c, 0, 69, 58
1, 332373, Control_c, 0, 64, 17
1, 332393, Control_c, 0, 64, 28
1, 332411, Control_c, 0, 64, 45
1, 332430, Note_off_c, 0, 64, 58
1, 332431, Control_c, 0, 64, 65
1, 332449, Control_c, 0, 64, 78
1, 332467, Control_c, 0, 64, 92
1, 332486, Control_c, 0, 64, 112
1, 332504, Control_c, 0, 64, 127
1, 332584, Note_off_c, 0, 52, 39
1, 332941, Note_off_c, 0, 45, 33
1, 332942, Poly_aftertouch_c, 0, 64, 28
1, 332946, Note_on_c, 0, 64, 44
1, 332950, Poly_aftertouch_c, 0, 59, 28
1, 332952, Note_on_c, 0, 59, 43
1, 332959, Poly_aftertouch_c, 0, 52, 28
1, 332959, Poly_aftertouch_c, 0, 56, 28
1, 332968, Note_on_c, 0, 56, 31
1, 332969, Note_on_c, 0, 52, 27
1, 332971, Control_c, 0, 64, 110
1, 332991, Control_c, 0, 64, 100
1, 333010, Control_c, 0, 64, 90
1, 333030, Control_c, 0, 64, 80
1, 333048, Control_c, 0, 64, 69
1, 333067, Control_c, 0, 64, 59
1, 333084, Control_c, 0, 64, 50
1, 333104, Control_c, 0, 64, 45
1, 333122, Control_c, 0, 64, 40
1, 333142, Control_c, 0, 64, 34
1, 333159, Control_c, 0, 64, 29
1, 333179, Control_c, 0, 64, 24
1, 333197, Control_c, 0, 64, 20
1, 333234, Control_c, 0, 64, 15
1, 333404, Control_c, 0, 64, 11
1, 333690, Poly_aftertouch_c, 0, 40, 28
1, 333696, Note_on_c, 0, 40, 49
1, 334677, Poly_aftertouch_c, 0, 38, 28
1, 334687, Note_on_c, 0, 38, 46
1, 334845, Note_off_c, 0, 40, 57
1, 335219, Control_c, 0, 64, 17
1, 335258, Control_c, 0, 64, 24
1, 335276, Control_c, 0, 64, 28
1, 335294, Control_c, 0, 64, 32
1, 335314, Control_c, 0, 64, 40
1, 335332, Control_c, 0, 64, 50
1, 335350, Control_c, 0, 64, 60
1, 335369, Control_c, 0, 64, 64
1, 335375, Note_off_c, 0, 56, 40
1, 335387, Control_c, 0, 64, 66
1, 335407, Control_c, 0, 64, 67
1, 335424, Control_c, 0, 64, 69
1, 335444, Control_c, 0, 64, 71
1, 335462, Control_c, 0, 64, 75
1, 335482, Control_c, 0, 64, 79
1, 335500, Control_c, 0, 64, 86
1, 335518, Control_c, 0, 64, 94
1, 335538, Control_c, 0, 64, 103
1, 335555, Control_c, 0, 64, 116
1, 335574, Control_c, 0, 64, 127
1, 335628, Poly_aftertouch_c, 0, 59, 24
1, 335630, Control_c, 0, 67, 53
1, 335639, Note_off_c, 0, 59, 57
1, 335649, Control_c, 0, 67, 61
1, 335669, Control_c, 0, 67, 71
1, 335687, Control_c, 0, 67, 79
1, 335706, Control_c, 0, 67, 85
1, 335724, Control_c, 0, 67, 90
1, 335761, Control_c, 0, 67, 97
1, 335799, Control_c, 0, 67, 103
1, 335818, Control_c, 0, 67, 107
1, 335857, Control_c, 0, 67, 113
1, 335892, Control_c, 0, 67, 117
1, 335949, Control_c, 0, 67, 122
1, 336380, Control_c, 0, 64, 116
1, 336398, Control_c, 0, 64, 107
1, 336416, Poly_aftertouch_c, 0, 57, 28
1, 336417, Control_c, 0, 64, 98
1, 336424, Note_on_c, 0, 57, 41
1, 336433, Poly_aftertouch_c, 0, 36, 28
1, 336434, Control_c, 0, 64, 90
1, 336442, Note_on_c, 0, 36, 35
1, 336455, Control_c, 0, 64, 81
1, 336474, Control_c, 0, 64, 70
1, 336492, Control_c, 0, 64, 61
1, 336510, Control_c, 0, 64, 54
1, 336529, Control_c, 0, 64, 48
1, 336548, Control_c, 0, 64, 44
1, 336567, Control_c, 0, 64, 39
1, 336586, Control_c, 0, 64, 34
1, 336604, Control_c, 0, 64, 29
1, 336624, Control_c, 0, 64, 25
1, 336645, Note_off_c, 0, 38, 34
1, 336680, Control_c, 0, 64, 21
1, 336735, Control_c, 0, 64, 17
1, 337017, Control_c, 0, 67, 118
1, 338144, Poly_aftertouch_c, 0, 35, 28
1, 338149, Note_on_c, 0, 35, 36
1, 338258, Note_off_c, 0, 36, 41
1, 341177, Poly_aftertouch_c, 0, 33, 28
1, 341187, Note_on_c, 0, 33, 21
1, 341367, Poly_aftertouch_c, 0, 52, 24
1, 341395, Note_off_c, 0, 35, 42
1, 341473, Note_off_c, 0, 52, 28
1, 341509, Note_off_c, 0, 57, 30
1, 341635, Note_off_c, 0, 64, 33
1, 343830, Control_c, 0, 67, 114
1, 344530, Note_off_c, 0, 33, 24
1, 345477, Control_c, 0, 67, 109
1, 345495, Control_c, 0, 67, 105
1, 345515, Control_c, 0, 67, 100
1, 345532, Control_c, 0, 67, 96
1, 345570, Control_c, 0, 67, 89
1, 345702, Control_c, 0, 67, 85
1, 345925, Control_c, 0, 67, 78
1, 345945, Control_c, 0, 67, 73
1, 345963, Control_c, 0, 67, 69
1, 346000, Control_c, 0, 67, 63
1, 346038, Control_c, 0, 67, 59
1, 346076, Control_c, 0, 67, 55
1, 346113, Control_c, 0, 67, 50
1, 346169, Control_c, 0, 67, 45
1, 346227, Control_c, 0, 67, 40
1, 346301, Control_c, 0, 67, 36
1, 346356, Control_c, 0, 67, 32
1, 346432, Control_c, 0, 67, 28
1, 346506, Control_c, 0, 67, 24
1, 346563, Control_c, 0, 67, 18
1, 346619, Control_c, 0, 67, 14
1, 346675, Control_c, 0, 67, 9
1, 346992, Control_c, 0, 67, 0
1, 347780, Control_c, 0, 64, 22
1, 347817, Control_c, 0, 64, 27
1, 347854, Control_c, 0, 64, 33
1, 347872, Control_c, 0, 64, 37
1, 347891, Control_c, 0, 64, 44
1, 347910, Control_c, 0, 64, 52
1, 347929, Control_c, 0, 64, 59
1, 347947, Control_c, 0, 64, 64
1, 347967, Control_c, 0, 64, 66
1, 347985, Control_c, 0, 64, 68
1, 348005, Control_c, 0, 64, 70
1, 348022, Control_c, 0, 64, 74
1, 348041, Control_c, 0, 64, 81
1, 348061, Control_c, 0, 64, 96
1, 348078, Control_c, 0, 64, 127
1, 348339, Poly_aftertouch_c, 0, 75, 28
1, 348340, Poly_aftertouch_c, 0, 75, 0
1, 348394, Poly_aftertouch_c, 0, 79, 28
1, 348396, Note_on_c, 0, 79, 95
1, 348599, Poly_aftertouch_c, 0, 75, 28
1, 348601, Note_on_c, 0, 75, 94
1, 348632, Note_off_c, 0, 79, 62
1, 348735, Note_off_c, 0, 75, 65
1, 348746, Poly_aftertouch_c, 0, 72, 28
1, 348747, Note_on_c, 0, 72, 93
1, 348864, Poly_aftertouch_c, 0, 70, 28
1, 348869, Note_on_c, 0, 70, 88
1, 348884, Note_off_c, 0, 72, 58
1, 348939, Note_off_c, 0, 70, 63
1, 349074, Poly_aftertouch_c, 0, 75, 28
1, 349074, Poly_aftertouch_c, 0, 79, 28
1, 349076, Note_on_c, 0, 79, 97
1, 349080, Note_on_c, 0, 75, 80
1, 349087, Poly_aftertouch_c, 0, 69, 28
1, 349091, Note_on_c, 0, 69, 85
1, 349095, Poly_aftertouch_c, 0, 72, 28
1, 349098, Note_on_c, 0, 72, 60
1, 349146, Control_c, 0, 64, 78
1, 349164, Control_c, 0, 64, 50
1, 349184, Control_c, 0, 64, 22
1, 349258, Control_c, 0, 64, 9
1, 349274, Poly_aftertouch_c, 0, 38, 28
1, 349277, Control_c, 0, 64, 18
1, 349280, Note_on_c, 0, 38, 61
1, 349296, Control_c, 0, 64, 31
1, 349314, Control_c, 0, 64, 47
1, 349333, Control_c, 0, 64, 62
1, 349351, Control_c, 0, 64, 71
1, 349371, Control_c, 0, 64, 77
1, 349389, Control_c, 0, 64, 81
1, 349408, Control_c, 0, 64, 85
1, 349426, Control_c, 0, 64, 89
1, 349446, Control_c, 0, 64, 96
1, 349459, Poly_aftertouch_c, 0, 45, 28
1, 349463, Note_on_c, 0, 45, 64
1, 349465, Control_c, 0, 64, 104
1, 349468, Note_off_c, 0, 38, 58
1, 349482, Control_c, 0, 64, 118
1, 349487, Poly_aftertouch_c, 0, 72, 24
1, 349501, Control_c, 0, 64, 127
1, 349558, Note_off_c, 0, 45, 62
1, 349564, Poly_aftertouch_c, 0, 48, 28
1, 349566, Note_on_c, 0, 48, 69
1, 349603, Note_off_c, 0, 48, 65
1, 349687, Note_off_c, 0, 72, 0
1, 349687, Poly_aftertouch_c, 0, 72, 28
1, 349702, Poly_aftertouch_c, 0, 50, 28
1, 349710, Note_on_c, 0, 50, 75
1, 349720, Note_off_c, 0, 79, 53
1, 349756, Poly_aftertouch_c, 0, 72, 32
1, 349803, Poly_aftertouch_c, 0, 57, 28
1, 349808, Note_on_c, 0, 57, 70
1, 349823, Poly_aftertouch_c, 0, 69, 24
1, 349831, Note_off_c, 0, 50, 59
1, 349837, Control_c, 0, 64, 112
1, 349858, Note_off_c, 0, 69, 43
1, 349858, Control_c, 0, 64, 77
1, 349873, Note_off_c, 0, 75, 55
1, 349874, Control_c, 0, 64, 52
1, 349887, Poly_aftertouch_c, 0, 72, 0
1, 349893, Control_c, 0, 64, 31
1, 349913, Control_c, 0, 64, 26
1, 349916, Poly_aftertouch_c, 0, 78, 28
1, 349918, Note_on_c, 0, 78, 83
1, 349924, Note_off_c, 0, 57, 61
1, 349930, Poly_aftertouch_c, 0, 60, 28
1, 349932, Note_on_c, 0, 60, 69
1, 349951, Control_c, 0, 64, 41
1, 349969, Control_c, 0, 64, 59
1, 349989, Control_c, 0, 64, 71
1, 350007, Note_off_c, 0, 60, 57
1, 350019, Poly_aftertouch_c, 0, 69, 28
1, 350020, Poly_aftertouch_c, 0, 72, 28
1, 350024, Note_on_c, 0, 69, 61
1, 350025, Note_on_c, 0, 72, 64
1, 350026, Poly_aftertouch_c, 0, 50, 28
1, 350027, Control_c, 0, 64, 61
1, 350031, Note_on_c, 0, 50, 74
1, 350038, Poly_aftertouch_c, 0, 75, 28
1, 350043, Control_c, 0, 64, 52
1, 350044, Note_off_c, 0, 78, 62
1, 350048, Note_on_c, 0, 75, 47
1, 350063, Control_c, 0, 64, 47
1, 350080, Note_off_c, 0, 75, 58
1, 350080, Control_c, 0, 64, 50
1, 350087, Note_off_c, 0, 72, 60
1, 350092, Note_off_c, 0, 69, 51
1, 350099, Control_c, 0, 64, 58
1, 350119, Control_c, 0, 64, 67
1, 350122, Note_off_c, 0, 50, 59
1, 350125, Poly_aftertouch_c, 0, 58, 28
1, 350132, Note_on_c, 0, 58, 78
1, 350137, Poly_aftertouch_c, 0, 79, 28
1, 350137, Control_c, 0, 64, 82
1, 350139, Note_on_c, 0, 79, 89
1, 350157, Control_c, 0, 64, 119
1, 350175, Control_c, 0, 64, 127
1, 350210, Note_off_c, 0, 58, 62
1, 350220, Poly_aftertouch_c, 0, 74, 28
1, 350224, Note_on_c, 0, 74, 55
1, 350225, Note_off_c, 0, 79, 61
1, 350234, Poly_aftertouch_c, 0, 70, 28
1, 350238, Note_on_c, 0, 70, 72
1, 350239, Poly_aftertouch_c, 0, 50, 28
1, 350244, Note_on_c, 0, 50, 84
1, 350248, Poly_aftertouch_c, 0, 67, 28
1, 350252, Note_on_c, 0, 67, 59
1, 350268, Note_off_c, 0, 74, 61
1, 350285, Note_off_c, 0, 70, 60
1, 350290, Note_off_c, 0, 67, 61
1, 350362, Control_c, 0, 64, 82
1, 350366, Poly_aftertouch_c, 0, 81, 28
1, 350368, Note_on_c, 0, 81, 100
1, 350370, Poly_aftertouch_c, 0, 54, 28
1, 350371, Note_on_c, 0, 54, 86
1, 350375, Note_off_c, 0, 50, 56
1, 350382, Control_c, 0, 64, 56
1, 350400, Control_c, 0, 64, 47
1, 350418, Control_c, 0, 64, 52
1, 350437, Control_c, 0, 64, 64
1, 350454, Note_off_c, 0, 81, 60
1, 350455, Control_c, 0, 64, 81
1, 350472, Note_off_c, 0, 54, 64
1, 350474, Control_c, 0, 64, 127
1, 350481, Poly_aftertouch_c, 0, 50, 28
1, 350484, Note_on_c, 0, 69, 73
1, 350484, Poly_aftertouch_c, 0, 69, 28
1, 350487, Note_on_c, 0, 50, 84
1, 350500, Note_on_c, 0, 72, 43
1, 350505, Poly_aftertouch_c, 0, 72, 28
1, 350514, Note_off_c, 0, 69, 63
1, 350535, Note_off_c, 0, 72, 54
1, 350546, Note_off_c, 0, 50, 61
1, 350794, Poly_aftertouch_c, 0, 70, 28
1, 350794, Control_c, 0, 64, 101
1, 350797, Note_on_c, 0, 70, 91
1, 350811, Control_c, 0, 64, 69
1, 350831, Control_c, 0, 64, 41
1, 350850, Control_c, 0, 64, 17
1, 350868, Control_c, 0, 64, 12
1, 350903, Poly_aftertouch_c, 0, 67, 28
1, 350904, Control_c, 0, 64, 22
1, 350908, Note_on_c, 0, 67, 81
1, 350924, Control_c, 0, 64, 35
1, 350942, Control_c, 0, 64, 56
1, 350961, Control_c, 0, 64, 76
1, 350962, Note_off_c, 0, 70, 61
1, 350980, Control_c, 0, 64, 103
1, 350999, Control_c, 0, 64, 127
1, 351000, Poly_aftertouch_c, 0, 63, 28
1, 351005, Note_on_c, 0, 63, 85
1, 351010, Note_off_c, 0, 67, 64
1, 351065, Note_off_c, 0, 63, 63
1, 351098, Poly_aftertouch_c, 0, 62, 28
1, 351102, Note_on_c, 0, 62, 87
1, 351261, Poly_aftertouch_c, 0, 64, 28
1, 351261, Control_c, 0, 64, 96
1, 351262, Poly_aftertouch_c, 0, 70, 28
1, 351264, Note_on_c, 0, 64, 84
1, 351267, Poly_aftertouch_c, 0, 61, 28
1, 351269, Note_on_c, 0, 70, 94
1, 351270, Note_on_c, 0, 61, 86
1, 351271, Poly_aftertouch_c, 0, 67, 28
1, 351275, Note_on_c, 0, 67, 82
1, 351279, Control_c, 0, 64, 64
1, 351296, Note_off_c, 0, 62, 35
1, 351297, Control_c, 0, 64, 31
1, 351350, Poly_aftertouch_c, 0, 31, 28
1, 351357, Note_on_c, 0, 31, 69
1, 351373, Control_c, 0, 64, 13
1, 351392, Control_c, 0, 64, 26
1, 351411, Control_c, 0, 64, 41
1, 351429, Control_c, 0, 64, 60
1, 351449, Control_c, 0, 64, 72
1, 351467, Control_c, 0, 64, 81
1, 351486, Control_c, 0, 64, 87
1, 351487, Note_off_c, 0, 31, 61
1, 351511, Poly_aftertouch_c, 0, 43, 28
1, 351514, Note_on_c, 0, 43, 69
1, 351521, Control_c, 0, 64, 92
1, 351552, Note_off_c, 0, 43, 64
1, 351560, Control_c, 0, 64, 98
1, 351578, Control_c, 0, 64, 103
1, 351587, Note_off_c, 0, 64, 58
1, 351592, Note_off_c, 0, 61, 52
1, 351597, Control_c, 0, 64, 108
1, 351603, Note_off_c, 0, 67, 57
1, 351635, Control_c, 0, 64, 115
1, 351654, Control_c, 0, 64, 124
1, 351679, Poly_aftertouch_c, 0, 46, 28
1, 351687, Note_on_c, 0, 46, 70
1, 351761, Note_off_c, 0, 46, 60
1, 351781, Poly_aftertouch_c, 0, 52, 28
1, 351785, Note_on_c, 0, 52, 72
1, 351879, Control_c, 0, 64, 100
1, 351886, Poly_aftertouch_c, 0, 55, 28
1, 351889, Note_on_c, 0, 55, 79
1, 351896, Control_c, 0, 64, 72
1, 351915, Control_c, 0, 64, 50
1, 351921, Note_off_c, 0, 52, 57
1, 351935, Control_c, 0, 64, 35
1, 351958, Note_off_c, 0, 70, 58
1, 351973, Control_c, 0, 64, 39
1, 351981, Poly_aftertouch_c, 0, 67, 28
1, 351985, Note_on_c, 0, 67, 78
1, 351986, Poly_aftertouch_c, 0, 58, 28
1, 351989, Control_c, 0, 64, 53
1, 351994, Note_on_c, 0, 58, 77
1, 352008, Control_c, 0, 64, 71
1, 352023, Note_off_c, 0, 55, 59
1, 352028, Control_c, 0, 64, 95
1, 352047, Control_c, 0, 64, 127
1, 352069, Note_off_c, 0, 58, 64
1, 352082, Poly_aftertouch_c, 0, 50, 28
1, 352083, Poly_aftertouch_c, 0, 64, 28
1, 352085, Note_on_c, 0, 64, 70
1, 352086, Note_off_c, 0, 67, 64
1, 352090, Note_on_c, 0, 50, 72
1, 352103, Control_c, 0, 64, 100
1, 352121, Note_off_c, 0, 64, 67
1, 352123, Control_c, 0, 64, 75
1, 352141, Control_c, 0, 64, 57
1, 352160, Control_c, 0, 64, 52
1, 352178, Control_c, 0, 64, 57
1, 352188, Poly_aftertouch_c, 0, 55, 28
1, 352193, Note_off_c, 0, 50, 60
1, 352195, Note_on_c, 0, 55, 70
1, 352197, Control_c, 0, 64, 69
1, 352199, Poly_aftertouch_c, 0, 73, 28
1, 352201, Note_on_c, 0, 73, 83
1, 352216, Control_c, 0, 64, 89
1, 352234, Control_c, 0, 64, 127
1, 352301, Note_off_c, 0, 55, 59
1, 352307, Poly_aftertouch_c, 0, 50, 28
1, 352308, Poly_aftertouch_c, 0, 64, 28
1, 352308, Control_c, 0, 64, 89
1, 352311, Note_on_c, 0, 64, 63
1, 352313, Note_on_c, 0, 50, 69
1, 352314, Note_off_c, 0, 73, 62
1, 352314, Note_on_c, 0, 70, 68
1, 352314, Poly_aftertouch_c, 0, 70, 28
1, 352328, Control_c, 0, 64, 63
1, 352346, Control_c, 0, 64, 48
1, 352365, Note_off_c, 0, 64, 57
1, 352365, Control_c, 0, 64, 50
1, 352384, Control_c, 0, 64, 60
1, 352394, Note_off_c, 0, 50, 61
1, 352396, Note_off_c, 0, 70, 61
1, 352402, Control_c, 0, 64, 73
1, 352417, Poly_aftertouch_c, 0, 54, 28
1, 352419, Note_on_c, 0, 54, 74
1, 352419, Note_on_c, 0, 74, 87
1, 352420, Poly_aftertouch_c, 0, 74, 28
1, 352421, Control_c, 0, 64, 94
1, 352440, Control_c, 0, 64, 127
1, 352519, Poly_aftertouch_c, 0, 50, 28
1, 352520, Note_off_c, 0, 54, 63
1, 352524, Note_on_c, 0, 50, 75
1, 352527, Note_on_c, 0, 69, 72
1, 352528, Poly_aftertouch_c, 0, 69, 28
1, 352537, Poly_aftertouch_c, 0, 62, 28
1, 352539, Note_on_c, 0, 62, 54
1, 352544, Note_off_c, 0, 74, 55
1, 352572, Note_off_c, 0, 50, 54
1, 352573, Note_off_c, 0, 62, 58
1, 352612, Note_off_c, 0, 69, 60
1, 352805, Note_on_c, 0, 79, 94
1, 352806, Poly_aftertouch_c, 0, 79, 28
1, 352834, Control_c, 0, 64, 81
1, 352853, Control_c, 0, 64, 51
1, 352871, Control_c, 0, 64, 24
1, 352890, Control_c, 0, 64, 17
1, 352915, Note_off_c, 0, 79, 63
1, 352915, Poly_aftertouch_c, 0, 75, 28
1, 352921, Note_on_c, 0, 75, 88
1, 352927, Control_c, 0, 64, 30
1, 352945, Control_c, 0, 64, 52
1, 352964, Control_c, 0, 64, 82
1, 352984, Control_c, 0, 64, 127
1, 352992, Note_off_c, 0, 75, 66
1, 353009, Poly_aftertouch_c, 0, 72, 28
1, 353013, Note_on_c, 0, 72, 86
1, 353097, Poly_aftertouch_c, 0, 70, 28
1, 353101, Note_on_c, 0, 70, 86
1, 353111, Note_off_c, 0, 72, 59
1, 353149, Note_off_c, 0, 70, 68
1, 353205, Poly_aftertouch_c, 0, 75, 28
1, 353206, Poly_aftertouch_c, 0, 79, 28
1, 353208, Note_on_c, 0, 75, 91
1, 353210, Note_on_c, 0, 79, 91
1, 353213, Note_on_c, 0, 69, 91
1, 353213, Poly_aftertouch_c, 0, 69, 28
1, 353221, Poly_aftertouch_c, 0, 72, 28
1, 353225, Note_on_c, 0, 72, 81
1, 353226, Control_c, 0, 64, 107
1, 353245, Control_c, 0, 64, 69
1, 353264, Control_c, 0, 64, 38
1, 353281, Control_c, 0, 64, 13
1, 353293, Poly_aftertouch_c, 0, 60, 28
1, 353297, Note_on_c, 0, 60, 87
1, 353301, Control_c, 0, 64, 8
1, 353356, Control_c, 0, 64, 20
1, 353368, Note_off_c, 0, 60, 63
1, 353375, Control_c, 0, 64, 29
1, 353395, Control_c, 0, 64, 41
1, 353405, Poly_aftertouch_c, 0, 57, 28
1, 353408, Note_on_c, 0, 57, 81
1, 353413, Control_c, 0, 64, 58
1, 353432, Control_c, 0, 64, 70
1, 353450, Control_c, 0, 64, 78
1, 353470, Control_c, 0, 64, 87
1, 353481, Note_off_c, 0, 57, 61
1, 353488, Control_c, 0, 64, 94
1, 353506, Control_c, 0, 64, 99
1, 353515, Poly_aftertouch_c, 0, 51, 28
1, 353518, Note_on_c, 0, 51, 76
1, 353525, Control_c, 0, 64, 104
1, 353544, Control_c, 0, 64, 114
1, 353554, Note_off_c, 0, 51, 67
1, 353562, Control_c, 0, 64, 127
1, 353599, Note_off_c, 0, 69, 54
1, 353624, Note_off_c, 0, 72, 57
1, 353632, Poly_aftertouch_c, 0, 48, 28
1, 353635, Note_on_c, 0, 48, 85
1, 353649, Note_off_c, 0, 79, 64
1, 353661, Note_off_c, 0, 75, 63
1, 353705, Note_off_c, 0, 48, 61
1, 353727, Poly_aftertouch_c, 0, 38, 28
1, 353733, Note_on_c, 0, 38, 80
1, 353772, Note_off_c, 0, 38, 65
1, 353900, Control_c, 0, 64, 84
1, 353919, Control_c, 0, 64, 59
1, 353934, Poly_aftertouch_c, 0, 84, 28
1, 353938, Note_on_c, 0, 84, 82
1, 353938, Control_c, 0, 64, 42
1, 353942, Poly_aftertouch_c, 0, 54, 28
1, 353947, Note_on_c, 0, 54, 66
1, 353976, Control_c, 0, 64, 45
1, 353993, Control_c, 0, 64, 56
1, 354002, Note_off_c, 0, 54, 59
1, 354011, Note_off_c, 0, 84, 64
1, 354011, Control_c, 0, 64, 66
1, 354029, Poly_aftertouch_c, 0, 50, 28
1, 354029, Control_c, 0, 64, 76
1, 354034, Note_on_c, 0, 50, 76
1, 354045, Note_on_c, 0, 72, 64
1, 354045, Poly_aftertouch_c, 0, 72, 28
1, 354045, Poly_aftertouch_c, 0, 75, 28
1, 354050, Control_c, 0, 64, 88
1, 354052, Note_on_c, 0, 75, 68
1, 354069, Control_c, 0, 64, 104
1, 354085, Note_off_c, 0, 72, 61
1, 354087, Control_c, 0, 64, 127
1, 354094, Note_off_c, 0, 75, 60
1, 354122, Note_off_c, 0, 50, 60
1, 354127, Poly_aftertouch_c, 0, 55, 28
1, 354132, Note_on_c, 0, 55, 81
1, 354146, Poly_aftertouch_c, 0, 81, 28
1, 354148, Note_on_c, 0, 81, 84
1, 354218, Poly_aftertouch_c, 0, 75, 28
1, 354223, Note_on_c, 0, 75, 76
1, 354224, Note_off_c, 0, 81, 62
1, 354235, Note_off_c, 0, 55, 60
1, 354240, Poly_aftertouch_c, 0, 50, 28
1, 354247, Note_on_c, 0, 50, 81
1, 354256, Poly_aftertouch_c, 0, 69, 28
1, 354260, Note_on_c, 0, 69, 67
1, 354261, Note_off_c, 0, 75, 60
1, 354283, Note_off_c, 0, 69, 61
1, 354311, Note_off_c, 0, 50, 61
1, 354331, Poly_aftertouch_c, 0, 57, 28
1, 354337, Note_on_c, 0, 57, 81
1, 354342, Poly_aftertouch_c, 0, 72, 28
1, 354347, Note_on_c, 0, 72, 95
1, 354409, Note_off_c, 0, 57, 64
1, 354418, Poly_aftertouch_c, 0, 50, 28
1, 354423, Note_on_c, 0, 50, 88
1, 354440, Poly_aftertouch_c, 0, 60, 28
1, 354442, Note_off_c, 0, 72, 63
1, 354446, Note_on_c, 0, 60, 70
1, 354449, Note_on_c, 0, 66, 75
1, 354449, Poly_aftertouch_c, 0, 66, 28
1, 354469, Note_off_c, 0, 50, 57
1, 354630, Control_c, 0, 64, 90
1, 354645, Note_off_c, 0, 66, 61
1, 354650, Control_c, 0, 64, 62
1, 354663, Poly_aftertouch_c, 0, 70, 28
1, 354667, Control_c, 0, 64, 36
1, 354669, Note_on_c, 0, 70, 89
1, 354685, Control_c, 0, 64, 19
1, 354703, Note_off_c, 0, 60, 37
1, 354743, Control_c, 0, 64, 25
1, 354761, Control_c, 0, 64, 38
1, 354769, Poly_aftertouch_c, 0, 67, 28
1, 354775, Note_on_c, 0, 67, 83
1, 354781, Control_c, 0, 64, 57
1, 354799, Control_c, 0, 64, 76
1, 354817, Control_c, 0, 64, 104
1, 354835, Control_c, 0, 64, 127
1, 354838, Note_off_c, 0, 70, 58
1, 354858, Poly_aftertouch_c, 0, 63, 28
1, 354860, Note_on_c, 0, 63, 90
1, 354872, Note_off_c, 0, 67, 64
1, 354962, Note_off_c, 0, 63, 39
1, 354962, Poly_aftertouch_c, 0, 62, 28
1, 354963, Note_on_c, 0, 62, 89
1, 355002, Note_on_c, 0, 68, 41
1, 355002, Poly_aftertouch_c, 0, 68, 28
1, 355047, Note_off_c, 0, 68, 54
1, 355063, Poly_aftertouch_c, 0, 64, 28
1, 355066, Note_on_c, 0, 64, 85
1, 355069, Poly_aftertouch_c, 0, 70, 28
1, 355073, Note_on_c, 0, 70, 92
1, 355077, Poly_aftertouch_c, 0, 61, 28
1, 355078, Note_on_c, 0, 61, 90
1, 355079, Note_on_c, 0, 67, 81
1, 355080, Poly_aftertouch_c, 0, 67, 28
1, 355104, Note_off_c, 0, 62, 33
1, 355117, Control_c, 0, 64, 83
1, 355136, Control_c, 0, 64, 49
1, 355159, Poly_aftertouch_c, 0, 55, 28
1, 355164, Note_on_c, 0, 55, 88
1, 355172, Control_c, 0, 64, 0
1, 355232, Note_off_c, 0, 55, 64
1, 355267, Control_c, 0, 64, 13
1, 355273, Note_on_c, 0, 52, 79
1, 355274, Poly_aftertouch_c, 0, 52, 28
1, 355285, Control_c, 0, 64, 28
1, 355304, Control_c, 0, 64, 50
1, 355322, Control_c, 0, 64, 70
1, 355342, Control_c, 0, 64, 87
1, 355345, Note_off_c, 0, 52, 59
1, 355359, Control_c, 0, 64, 110
1, 355370, Poly_aftertouch_c, 0, 46, 28
1, 355373, Note_on_c, 0, 46, 80
1, 355379, Control_c, 0, 64, 127
1, 355426, Note_off_c, 0, 46, 62
1, 355489, Poly_aftertouch_c, 0, 43, 28
1, 355493, Note_on_c, 0, 43, 85
1, 355542, Note_off_c, 0, 70, 44
1, 355550, Note_off_c, 0, 67, 56
1, 355554, Note_off_c, 0, 43, 60
1, 355576, Poly_aftertouch_c, 0, 31, 28
1, 355581, Note_on_c, 0, 31, 75
1, 355582, Note_off_c, 0, 64, 59
1, 355587, Note_off_c, 0, 61, 56
1, 355616, Note_off_c, 0, 31, 64
1, 355678, Control_c, 0, 64, 98
1, 355698, Control_c, 0, 64, 64
1, 355716, Control_c, 0, 64, 33
1, 355721, Poly_aftertouch_c, 0, 69, 28
1, 355725, Note_on_c, 0, 69, 85
1, 355734, Control_c, 0, 64, 14
1, 355737, Poly_aftertouch_c, 0, 46, 28
1, 355741, Note_on_c, 0, 46, 70
1, 355772, Control_c, 0, 64, 23
1, 355791, Control_c, 0, 64, 39
1, 355810, Control_c, 0, 64, 64
1, 355820, Note_off_c, 0, 69, 57
1, 355823, Note_off_c, 0, 46, 57
1, 355827, Control_c, 0, 64, 87
1, 355837, Poly_aftertouch_c, 0, 61, 28
1, 355838, Poly_aftertouch_c, 0, 64, 28
1, 355840, Note_on_c, 0, 61, 55
1, 355844, Note_on_c, 0, 64, 57
1, 355845, Control_c, 0, 64, 127
1, 355848, Poly_aftertouch_c, 0, 38, 28
1, 355853, Note_on_c, 0, 38, 59
1, 355935, Note_off_c, 0, 61, 55
1, 355948, Note_off_c, 0, 64, 49
1, 355978, Control_c, 0, 64, 102
1, 355996, Control_c, 0, 64, 67
1, 356003, Poly_aftertouch_c, 0, 67, 28
1, 356007, Note_on_c, 0, 67, 74
1, 356008, Note_off_c, 0, 38, 34
1, 356013, Poly_aftertouch_c, 0, 49, 28
1, 356014, Control_c, 0, 64, 34
1, 356016, Note_on_c, 0, 49, 64
1, 356033, Control_c, 0, 64, 14
1, 356072, Control_c, 0, 64, 26
1, 356090, Control_c, 0, 64, 46
1, 356108, Control_c, 0, 64, 72
1, 356118, Note_off_c, 0, 49, 61
1, 356126, Control_c, 0, 64, 101
1, 356147, Control_c, 0, 64, 127
1, 356151, Poly_aftertouch_c, 0, 38, 28
1, 356157, Note_on_c, 0, 38, 57
1, 356160, Note_off_c, 0, 67, 58
1, 356171, Poly_aftertouch_c, 0, 64, 28
1, 356175, Poly_aftertouch_c, 0, 58, 28
1, 356181, Note_on_c, 0, 64, 26
1, 356190, Note_on_c, 0, 58, 35
1, 356235, Note_off_c, 0, 64, 49
1, 356242, Note_off_c, 0, 58, 50
1, 356268, Note_off_c, 0, 38, 55
1, 356296, Control_c, 0, 64, 99
1, 356302, Poly_aftertouch_c, 0, 50, 28
1, 356303, Poly_aftertouch_c, 0, 66, 28
1, 356309, Note_on_c, 0, 66, 68
1, 356310, Note_on_c, 0, 50, 62
1, 356316, Control_c, 0, 64, 65
1, 356334, Control_c, 0, 64, 32
1, 356408, Control_c, 0, 64, 18
1, 356426, Control_c, 0, 64, 35
1, 356445, Control_c, 0, 64, 58
1, 356451, Poly_aftertouch_c, 0, 38, 28
1, 356459, Note_on_c, 0, 38, 54
1, 356465, Control_c, 0, 64, 74
1, 356471, Note_off_c, 0, 50, 55
1, 356472, Poly_aftertouch_c, 0, 62, 28
1, 356480, Note_on_c, 0, 62, 43
1, 356484, Control_c, 0, 64, 88
1, 356503, Control_c, 0, 64, 110
1, 356516, Note_off_c, 0, 38, 63
1, 356521, Control_c, 0, 64, 127
1, 356527, Note_off_c, 0, 62, 63
1, 356557, Note_off_c, 0, 66, 62
1, 356563, Poly_aftertouch_c, 0, 57, 28
1, 356564, Poly_aftertouch_c, 0, 57, 0
1, 356854, Poly_aftertouch_c, 0, 75, 28
1, 356859, Poly_aftertouch_c, 0, 63, 28
1, 356861, Note_on_c, 0, 75, 68
1, 356866, Note_on_c, 0, 63, 60
1, 356878, Control_c, 0, 64, 88
1, 356895, Control_c, 0, 64, 61
1, 356914, Control_c, 0, 64, 38
1, 356932, Control_c, 0, 64, 22
1, 357008, Control_c, 0, 64, 35
1, 357025, Control_c, 0, 64, 51
1, 357045, Control_c, 0, 64, 67
1, 357064, Control_c, 0, 64, 78
1, 357083, Control_c, 0, 64, 94
1, 357101, Control_c, 0, 64, 122
1, 357109, Poly_aftertouch_c, 0, 60, 28
1, 357113, Note_off_c, 0, 63, 38
1, 357116, Note_on_c, 0, 60, 52
1, 357120, Control_c, 0, 64, 127
1, 357131, Poly_aftertouch_c, 0, 72, 28
1, 357139, Note_on_c, 0, 72, 41
1, 357236, Note_off_c, 0, 60, 34
1, 357257, Note_off_c, 0, 75, 37
1, 357275, Poly_aftertouch_c, 0, 56, 28
1, 357276, Poly_aftertouch_c, 0, 68, 28
1, 357282, Note_on_c, 0, 56, 52
1, 357285, Note_on_c, 0, 68, 54
1, 357308, Note_off_c, 0, 72, 35
1, 357358, Note_off_c, 0, 68, 49
1, 357373, Note_off_c, 0, 56, 50
1, 357378, Poly_aftertouch_c, 0, 67, 28
1, 357387, Note_on_c, 0, 67, 63
1, 357396, Poly_aftertouch_c, 0, 55, 28
1, 357402, Note_on_c, 0, 55, 34
1, 357434, Note_off_c, 0, 67, 62
1, 357437, Control_c, 0, 64, 103
1, 357449, Note_off_c, 0, 55, 45
1, 357457, Control_c, 0, 64, 77
1, 357468, Poly_aftertouch_c, 0, 54, 28
1, 357475, Note_on_c, 0, 54, 69
1, 357475, Control_c, 0, 64, 59
1, 357491, Poly_aftertouch_c, 0, 66, 28
1, 357493, Control_c, 0, 64, 47
1, 357498, Note_on_c, 0, 66, 68
1, 357531, Control_c, 0, 64, 51
1, 357551, Control_c, 0, 64, 59
1, 357565, Note_off_c, 0, 54, 61
1, 357568, Control_c, 0, 64, 65
1, 357570, Poly_aftertouch_c, 0, 57, 28
1, 357577, Note_on_c, 0, 57, 71
1, 357580, Note_off_c, 0, 66, 55
1, 357585, Poly_aftertouch_c, 0, 69, 28
1, 357587, Control_c, 0, 64, 72
1, 357590, Note_on_c, 0, 69, 73
1, 357607, Control_c, 0, 64, 80
1, 357625, Control_c, 0, 64, 91
1, 357644, Control_c, 0, 64, 109
1, 357662, Control_c, 0, 64, 127
1, 357665, Note_off_c, 0, 57, 63
1, 357672, Poly_aftertouch_c, 0, 61, 28
1, 357677, Note_on_c, 0, 61, 67
1, 357692, Note_off_c, 0, 69, 57
1, 357693, Poly_aftertouch_c, 0, 73, 28
1, 357700, Note_on_c, 0, 73, 70
1, 357748, Note_off_c, 0, 61, 60
1, 357767, Poly_aftertouch_c, 0, 62, 28
1, 357773, Note_on_c, 0, 62, 76
1, 357782, Poly_aftertouch_c, 0, 74, 28
1, 357785, Note_on_c, 0, 74, 72
1, 357799, Note_off_c, 0, 73, 60
1, 357806, Note_off_c, 0, 62, 65
1, 357847, Note_off_c, 0, 74, 59
1, 357943, Control_c, 0, 64, 109
1, 357954, Poly_aftertouch_c, 0, 75, 28
1, 357959, Poly_aftertouch_c, 0, 63, 28
1, 357961, Note_on_c, 0, 75, 79
1, 357962, Control_c, 0, 64, 76
1, 357963, Note_on_c, 0, 63, 78
1, 357980, Control_c, 0, 64, 51
1, 358001, Control_c, 0, 64, 32
1, 358046, Note_off_c, 0, 63, 58
1, 358055, Control_c, 0, 64, 40
1, 358074, Control_c, 0, 64, 53
1, 358092, Note_off_c, 0, 75, 60
1, 358092, Control_c, 0, 64, 64
1, 358106, Poly_aftertouch_c, 0, 72, 28
1, 358109, Note_on_c, 0, 72, 60
1, 358110, Poly_aftertouch_c, 0, 60, 28
1, 358112, Control_c, 0, 64, 72
1, 358114, Note_on_c, 0, 60, 57
1, 358131, Control_c, 0, 64, 80
1, 358149, Control_c, 0, 64, 91
1, 358168, Control_c, 0, 64, 105
1, 358186, Control_c, 0, 64, 127
1, 358212, Note_off_c, 0, 72, 57
1, 358221, Poly_aftertouch_c, 0, 68, 28
1, 358226, Note_on_c, 0, 68, 64
1, 358230, Note_off_c, 0, 60, 52
1, 358230, Poly_aftertouch_c, 0, 56, 28
1, 358236, Note_on_c, 0, 56, 71
1, 358294, Note_off_c, 0, 68, 52
1, 358318, Poly_aftertouch_c, 0, 67, 28
1, 358321, Note_on_c, 0, 67, 70
1, 358331, Note_off_c, 0, 56, 61
1, 358336, Poly_aftertouch_c, 0, 55, 28
1, 358344, Note_on_c, 0, 55, 54
1, 358366, Note_off_c, 0, 67, 62
1, 358377, Note_off_c, 0, 55, 56
1, 358392, Control_c, 0, 64, 91
1, 358400, Poly_aftertouch_c, 0, 54, 28
1, 358403, Note_on_c, 0, 54, 76
1, 358411, Control_c, 0, 64, 66
1, 358428, Poly_aftertouch_c, 0, 66, 28
1, 358430, Control_c, 0, 64, 46
1, 358431, Note_on_c, 0, 66, 76
1, 358449, Control_c, 0, 64, 37
1, 358486, Control_c, 0, 64, 41
1, 358489, Note_off_c, 0, 54, 61
1, 358490, Note_off_c, 0, 66, 60
1, 358503, Poly_aftertouch_c, 0, 57, 28
1, 358503, Control_c, 0, 64, 52
1, 358507, Note_on_c, 0, 57, 71
1, 358514, Poly_aftertouch_c, 0, 69, 28
1, 358517, Note_on_c, 0, 69, 79
1, 358522, Control_c, 0, 64, 63
1, 358544, Control_c, 0, 64, 72
1, 358561, Control_c, 0, 64, 82
1, 358579, Control_c, 0, 64, 101
1, 358592, Note_off_c, 0, 57, 63
1, 358597, Poly_aftertouch_c, 0, 61, 28
1, 358598, Control_c, 0, 64, 127
1, 358602, Note_on_c, 0, 61, 72
1, 358608, Poly_aftertouch_c, 0, 73, 28
1, 358613, Note_on_c, 0, 73, 80
1, 358615, Note_off_c, 0, 69, 57
1, 358657, Note_off_c, 0, 61, 61
1, 358692, Poly_aftertouch_c, 0, 62, 28
1, 358696, Note_on_c, 0, 62, 79
1, 358699, Poly_aftertouch_c, 0, 74, 28
1, 358704, Note_on_c, 0, 74, 74
1, 358722, Note_off_c, 0, 73, 60
1, 358733, Note_off_c, 0, 62, 63
1, 358761, Note_off_c, 0, 74, 61
1, 358805, Control_c, 0, 64, 103
1, 358812, Poly_aftertouch_c, 0, 77, 28
1, 358814, Note_on_c, 0, 77, 91
1, 358817, Poly_aftertouch_c, 0, 65, 28
1, 358821, Note_on_c, 0, 65, 85
1, 358822, Control_c, 0, 64, 69
1, 358841, Control_c, 0, 64, 42
1, 358861, Control_c, 0, 64, 23
1, 358882, Note_off_c, 0, 65, 59
1, 358902, Note_off_c, 0, 77, 56
1, 358914, Poly_aftertouch_c, 0, 62, 28
1, 358914, Control_c, 0, 64, 35
1, 358915, Note_on_c, 0, 74, 71
1, 358916, Poly_aftertouch_c, 0, 74, 28
1, 358920, Note_on_c, 0, 62, 71
1, 358935, Control_c, 0, 64, 51
1, 358954, Control_c, 0, 64, 68
1, 358972, Control_c, 0, 64, 79
1, 358992, Control_c, 0, 64, 96
1, 359000, Poly_aftertouch_c, 0, 70, 28
1, 359004, Note_off_c, 0, 62, 58
1, 359005, Note_on_c, 0, 70, 80
1, 359010, Control_c, 0, 64, 127
1, 359011, Note_off_c, 0, 74, 62
1, 359019, Poly_aftertouch_c, 0, 58, 28
1, 359024, Note_on_c, 0, 58, 76
1, 359062, Note_off_c, 0, 58, 68
1, 359095, Poly_aftertouch_c, 0, 69, 28
1, 359099, Note_on_c, 0, 69, 82
1, 359101, Note_off_c, 0, 70, 49
1, 359105, Poly_aftertouch_c, 0, 57, 28
1, 359111, Note_on_c, 0, 57, 71
1, 359132, Note_off_c, 0, 69, 62
1, 359162, Note_off_c, 0, 57, 62
1, 359178, Control_c, 0, 64, 81
1, 359193, Poly_aftertouch_c, 0, 56, 28
1, 359194, Note_on_c, 0, 56, 78
1, 359195, Poly_aftertouch_c, 0, 68, 28
1, 359197, Control_c, 0, 64, 56
1, 359199, Note_on_c, 0, 68, 86
1, 359217, Control_c, 0, 64, 38
1, 359231, Note_on_c, 0, 55, 56
1, 359254, Control_c, 0, 64, 42
1, 359264, Note_off_c, 0, 55, 42
1, 359264, Poly_aftertouch_c, 0, 55, 28
1, 359272, Control_c, 0, 64, 56
1, 359277, Poly_aftertouch_c, 0, 59, 28
1, 359281, Note_on_c, 0, 59, 66
1, 359282, Note_off_c, 0, 56, 58
1, 359284, Note_off_c, 0, 68, 62
1, 359291, Note_on_c, 0, 71, 76
1, 359291, Control_c, 0, 64, 71
1, 359292, Poly_aftertouch_c, 0, 71, 28
1, 359310, Control_c, 0, 64, 88
1, 359329, Control_c, 0, 64, 127
1, 359367, Note_off_c, 0, 59, 61
1, 359372, Poly_aftertouch_c, 0, 63, 28
1, 359374, Note_on_c, 0, 63, 82
1, 359375, Poly_aftertouch_c, 0, 75, 28
1, 359379, Note_on_c, 0, 75, 81
1, 359394, Note_off_c, 0, 71, 61
1, 359433, Note_off_c, 0, 63, 66
1, 359453, Poly_aftertouch_c, 0, 64, 28
1, 359454, Note_on_c, 0, 64, 85
1, 359468, Poly_aftertouch_c, 0, 76, 28
1, 359471, Note_on_c, 0, 76, 77
1, 359509, Note_off_c, 0, 64, 63
1, 359510, Note_off_c, 0, 75, 64
1, 359526, Note_off_c, 0, 76, 64
1, 359553, Control_c, 0, 64, 86
1, 359569, Poly_aftertouch_c, 0, 79, 28
1, 359571, Control_c, 0, 64, 55
1, 359573, Note_on_c, 0, 79, 97
1, 359588, Poly_aftertouch_c, 0, 67, 28
1, 359590, Control_c, 0, 64, 23
1, 359592, Note_on_c, 0, 67, 85
1, 359610, Control_c, 0, 64, 11
1, 359647, Control_c, 0, 64, 16
1, 359660, Note_off_c, 0, 67, 60
1, 359663, Control_c, 0, 64, 30
1, 359670, Poly_aftertouch_c, 0, 76, 28
1, 359673, Poly_aftertouch_c, 0, 64, 28
1, 359675, Note_on_c, 0, 76, 80
1, 359676, Note_on_c, 0, 64, 77
1, 359682, Control_c, 0, 64, 49
1, 359696, Note_off_c, 0, 79, 57
1, 359702, Control_c, 0, 64, 71
1, 359722, Control_c, 0, 64, 91
1, 359740, Control_c, 0, 64, 127
1, 359776, Poly_aftertouch_c, 0, 72, 28
1, 359778, Note_on_c, 0, 72, 84
1, 359786, Poly_aftertouch_c, 0, 60, 28
1, 359787, Note_off_c, 0, 64, 63
1, 359789, Note_off_c, 0, 76, 63
1, 359789, Note_on_c, 0, 60, 75
1, 359859, Note_off_c, 0, 72, 60
1, 359874, Poly_aftertouch_c, 0, 59, 28
1, 359875, Note_on_c, 0, 59, 86
1, 359877, Poly_aftertouch_c, 0, 71, 28
1, 359879, Note_on_c, 0, 71, 88
1, 359885, Note_off_c, 0, 60, 61
1, 360017, Note_off_c, 0, 59, 62
1, 360023, Poly_aftertouch_c, 0, 67, 28
1, 360023, Poly_aftertouch_c, 0, 79, 28
1, 360025, Note_on_c, 0, 79, 101
1, 360027, Note_on_c, 0, 67, 95
1, 360040, Control_c, 0, 64, 89
1, 360058, Note_off_c, 0, 71, 56
1, 360058, Control_c, 0, 64, 55
1, 360078, Control_c, 0, 64, 15
1, 360096, Control_c, 0, 64, 0
1, 360153, Control_c, 0, 64, 16
1, 360158, Poly_aftertouch_c, 0, 64, 28
1, 360160, Note_off_c, 0, 67, 62
1, 360161, Poly_aftertouch_c, 0, 76, 28
1, 360163, Note_on_c, 0, 64, 86
1, 360164, Note_on_c, 0, 76, 87
1, 360172, Control_c, 0, 64, 33
1, 360180, Note_off_c, 0, 79, 55
1, 360188, Control_c, 0, 64, 56
1, 360208, Control_c, 0, 64, 76
1, 360228, Control_c, 0, 64, 95
1, 360245, Control_c, 0, 64, 127
1, 360287, Note_off_c, 0, 64, 56
1, 360293, Poly_aftertouch_c, 0, 72, 28
1, 360298, Note_on_c, 0, 72, 89
1, 360299, Poly_aftertouch_c, 0, 60, 28
1, 360300, Note_off_c, 0, 76, 61
1, 360302, Note_on_c, 0, 60, 81
1, 360397, Note_off_c, 0, 72, 55
1, 360412, Poly_aftertouch_c, 0, 70, 28
1, 360418, Note_on_c, 0, 70, 95
1, 360432, Note_off_c, 0, 60, 61
1, 360432, Poly_aftertouch_c, 0, 58, 28
1, 360436, Note_on_c, 0, 58, 87
1, 360495, Note_off_c, 0, 70, 64
1, 360581, Poly_aftertouch_c, 0, 67, 28
1, 360583, Note_on_c, 0, 67, 97
1, 360774, Poly_aftertouch_c, 0, 79, 28
1, 360779, Note_on_c, 0, 79, 108
1, 360788, Control_c, 0, 64, 102
1, 360799, Note_off_c, 0, 58, 62
1, 360806, Control_c, 0, 64, 76
1, 360826, Control_c, 0, 64, 52
1, 360844, Control_c, 0, 64, 15
1, 360864, Control_c, 0, 64, 0
1, 360975, Control_c, 0, 64, 13
1, 360981, Poly_aftertouch_c, 0, 63, 28
1, 360986, Note_on_c, 0, 63, 77
1, 360994, Control_c, 0, 64, 30
1, 361013, Control_c, 0, 64, 55
1, 361032, Control_c, 0, 64, 72
1, 361050, Control_c, 0, 64, 83
1, 361070, Control_c, 0, 64, 93
1, 361089, Control_c, 0, 64, 102
1, 361106, Control_c, 0, 64, 114
1, 361126, Control_c, 0, 64, 127
1, 361145, Note_off_c, 0, 63, 46
1, 361150, Poly_aftertouch_c, 0, 75, 28
1, 361155, Note_on_c, 0, 75, 90
1, 361156, Poly_aftertouch_c, 0, 60, 28
1, 361159, Note_on_c, 0, 60, 77
1, 361259, Note_off_c, 0, 60, 48
1, 361289, Poly_aftertouch_c, 0, 58, 28
1, 361294, Note_on_c, 0, 58, 77
1, 361328, Poly_aftertouch_c, 0, 60, 28
1, 361329, Poly_aftertouch_c, 0, 60, 0
1, 361402, Note_off_c, 0, 67, 37
1, 361403, Note_off_c, 0, 75, 63
1, 361415, Poly_aftertouch_c, 0, 57, 28
1, 361418, Note_on_c, 0, 57, 75
1, 361418, Poly_aftertouch_c, 0, 72, 28
1, 361420, Note_on_c, 0, 72, 87
1, 361422, Note_off_c, 0, 58, 63
1, 361449, Note_off_c, 0, 57, 67
1, 361571, Poly_aftertouch_c, 0, 38, 28
1, 361573, Note_on_c, 0, 38, 84
1, 361613, Control_c, 0, 64, 90
1, 361631, Control_c, 0, 64, 66
1, 361649, Control_c, 0, 64, 54
1, 361667, Note_off_c, 0, 72, 50
1, 361687, Control_c, 0, 64, 59
1, 361688, Poly_aftertouch_c, 0, 70, 28
1, 361695, Note_on_c, 0, 70, 82
1, 361697, Poly_aftertouch_c, 0, 45, 28
1, 361699, Note_on_c, 0, 45, 81
1, 361705, Control_c, 0, 64, 67
1, 361711, Note_off_c, 0, 38, 61
1, 361724, Control_c, 0, 64, 80
1, 361743, Control_c, 0, 64, 112
1, 361762, Control_c, 0, 64, 127
1, 361776, Note_off_c, 0, 45, 63
1, 361793, Poly_aftertouch_c, 0, 48, 28
1, 361797, Note_on_c, 0, 48, 82
1, 361799, Control_c, 0, 64, 100
1, 361818, Control_c, 0, 64, 74
1, 361836, Control_c, 0, 64, 57
1, 361838, Note_off_c, 0, 48, 64
1, 361850, Note_off_c, 0, 79, 64
1, 361854, Control_c, 0, 64, 54
1, 361865, Note_off_c, 0, 70, 62
1, 361875, Control_c, 0, 64, 60
1, 361893, Control_c, 0, 64, 72
1, 361900, Note_on_c, 0, 69, 85
1, 361901, Poly_aftertouch_c, 0, 69, 28
1, 361905, Poly_aftertouch_c, 0, 50, 28
1, 361909, Note_on_c, 0, 50, 86
1, 361911, Control_c, 0, 64, 101
1, 361930, Control_c, 0, 64, 127
1, 362002, Poly_aftertouch_c, 0, 57, 28
1, 362007, Note_on_c, 0, 57, 80
1, 362024, Control_c, 0, 64, 118
1, 362042, Control_c, 0, 64, 76
1, 362044, Note_off_c, 0, 50, 61
1, 362061, Control_c, 0, 64, 48
1, 362079, Note_off_c, 0, 69, 57
1, 362080, Control_c, 0, 64, 32
1, 362094, Poly_aftertouch_c, 0, 78, 28
1, 362098, Note_off_c, 0, 57, 62
1, 362100, Note_on_c, 0, 78, 94
1, 362104, Poly_aftertouch_c, 0, 60, 28
1, 362109, Note_on_c, 0, 60, 83
1, 362117, Control_c, 0, 64, 50
1, 362136, Control_c, 0, 64, 76
1, 362155, Control_c, 0, 64, 127
1, 362204, Note_off_c, 0, 60, 58
1, 362206, Poly_aftertouch_c, 0, 69, 28
1, 362209, Note_on_c, 0, 69, 79
1, 362215, Note_on_c, 0, 72, 67
1, 362215, Poly_aftertouch_c, 0, 72, 28
1, 362215, Poly_aftertouch_c, 0, 75, 28
1, 362218, Note_on_c, 0, 75, 75
1, 362220, Note_on_c, 0, 50, 85
1, 362221, Poly_aftertouch_c, 0, 50, 28
1, 362239, Note_off_c, 0, 78, 60
1, 362278, Note_off_c, 0, 75, 66
1, 362282, Note_off_c, 0, 69, 59
1, 362283, Note_off_c, 0, 72, 59
1, 362285, Control_c, 0, 64, 91
1, 362304, Control_c, 0, 64, 61
1, 362315, Note_off_c, 0, 50, 57
1, 362322, Control_c, 0, 64, 42
1, 362339, Poly_aftertouch_c, 0, 58, 28
1, 362341, Poly_aftertouch_c, 0, 79, 28
1, 362343, Note_on_c, 0, 79, 98
1, 362344, Note_on_c, 0, 58, 88
1, 362361, Control_c, 0, 64, 56
1, 362379, Control_c, 0, 64, 77
1, 362398, Control_c, 0, 64, 127
1, 362456, Note_off_c, 0, 58, 61
1, 362462, Poly_aftertouch_c, 0, 74, 28
1, 362466, Note_on_c, 0, 74, 68
1, 362469, Poly_aftertouch_c, 0, 67, 28
1, 362470, Poly_aftertouch_c, 0, 70, 28
1, 362472, Note_on_c, 0, 70, 79
1, 362474, Note_on_c, 0, 67, 78
1, 362477, Poly_aftertouch_c, 0, 50, 28
1, 362479, Note_on_c, 0, 50, 89
1, 362485, Note_off_c, 0, 79, 62
1, 362518, Note_off_c, 0, 67, 55
1, 362525, Note_off_c, 0, 74, 62
1, 362534, Note_off_c, 0, 70, 64
1, 362667, Poly_aftertouch_c, 0, 81, 28
1, 362669, Note_on_c, 0, 81, 105
1, 362671, Poly_aftertouch_c, 0, 54, 28
1, 362677, Note_on_c, 0, 54, 89
1, 362678, Control_c, 0, 64, 82
1, 362693, Note_off_c, 0, 50, 63
1, 362698, Control_c, 0, 64, 46
1, 362735, Control_c, 0, 64, 0
1, 362772, Control_c, 0, 64, 17
1, 362791, Control_c, 0, 64, 38
1, 362810, Control_c, 0, 64, 67
1, 362812, Poly_aftertouch_c, 0, 50, 28
1, 362819, Note_on_c, 0, 50, 83
1, 362820, Poly_aftertouch_c, 0, 69, 28
1, 362821, Note_off_c, 0, 81, 59
1, 362823, Note_on_c, 0, 69, 81
1, 362829, Control_c, 0, 64, 96
1, 362830, Note_off_c, 0, 54, 60
1, 362836, Note_on_c, 0, 72, 73
1, 362838, Poly_aftertouch_c, 0, 72, 28
1, 362847, Control_c, 0, 64, 127
1, 362866, Note_off_c, 0, 72, 67
1, 362875, Note_off_c, 0, 50, 63
1, 362880, Note_off_c, 0, 69, 58
1, 363147, Control_c, 0, 64, 105
1, 363158, Poly_aftertouch_c, 0, 70, 28
1, 363165, Note_on_c, 0, 70, 96
1, 363165, Control_c, 0, 64, 66
1, 363184, Control_c, 0, 64, 33
1, 363203, Control_c, 0, 64, 9
1, 363241, Control_c, 0, 64, 19
1, 363259, Control_c, 0, 64, 40
1, 363262, Poly_aftertouch_c, 0, 64, 28
1, 363263, Poly_aftertouch_c, 0, 64, 0
1, 363270, Poly_aftertouch_c, 0, 67, 28
1, 363277, Note_on_c, 0, 67, 87
1, 363277, Control_c, 0, 64, 70
1, 363298, Control_c, 0, 64, 112
1, 363315, Control_c, 0, 64, 127
1, 363363, Note_off_c, 0, 70, 60
1, 363383, Poly_aftertouch_c, 0, 63, 28
1, 363387, Note_on_c, 0, 63, 94
1, 363398, Note_off_c, 0, 67, 61
1, 363448, Note_off_c, 0, 63, 67
1, 363489, Poly_aftertouch_c, 0, 62, 28
1, 363495, Note_on_c, 0, 62, 94
1, 363690, Control_c, 0, 64, 115
1, 363694, Poly_aftertouch_c, 0, 64, 28
1, 363695, Poly_aftertouch_c, 0, 70, 28
1, 363699, Note_on_c, 0, 64, 81
1, 363701, Note_on_c, 0, 70, 91
1, 363702, Note_on_c, 0, 61, 89
1, 363704, Poly_aftertouch_c, 0, 61, 28
1, 363705, Poly_aftertouch_c, 0, 67, 28
1, 363707, Note_on_c, 0, 67, 82
1, 363709, Control_c, 0, 64, 70
1, 363726, Control_c, 0, 64, 35
1, 363738, Note_off_c, 0, 62, 62
1, 363745, Control_c, 0, 64, 0
1, 363793, Poly_aftertouch_c, 0, 31, 28
1, 363800, Note_on_c, 0, 31, 71
1, 363840, Control_c, 0, 64, 15
1, 363859, Control_c, 0, 64, 35
1, 363876, Control_c, 0, 64, 61
1, 363896, Control_c, 0, 64, 88
1, 363914, Control_c, 0, 64, 127
1, 363950, Note_off_c, 0, 31, 62
1, 363958, Poly_aftertouch_c, 0, 43, 28
1, 363965, Note_on_c, 0, 43, 74
1, 364002, Note_off_c, 0, 43, 67
1, 364023, Note_off_c, 0, 64, 61
1, 364042, Note_off_c, 0, 61, 58
1, 364043, Note_off_c, 0, 67, 58
1, 364110, Poly_aftertouch_c, 0, 46, 28
1, 364117, Note_on_c, 0, 46, 73
1, 364207, Note_off_c, 0, 46, 60
1, 364212, Poly_aftertouch_c, 0, 52, 28
1, 364218, Note_on_c, 0, 52, 81
1, 364314, Poly_aftertouch_c, 0, 55, 28
1, 364317, Note_on_c, 0, 55, 80
1, 364325, Control_c, 0, 64, 89
1, 364345, Control_c, 0, 64, 58
1, 364352, Note_off_c, 0, 52, 57
1, 364364, Control_c, 0, 64, 30
1, 364382, Note_off_c, 0, 70, 61
1, 364382, Control_c, 0, 64, 23
1, 364391, Poly_aftertouch_c, 0, 67, 28
1, 364394, Note_on_c, 0, 67, 79
1, 364400, Control_c, 0, 64, 28
1, 364405, Poly_aftertouch_c, 0, 58, 28
1, 364409, Note_on_c, 0, 58, 81
1, 364420, Control_c, 0, 64, 44
1, 364438, Control_c, 0, 64, 69
1, 364452, Note_off_c, 0, 55, 61
1, 364457, Control_c, 0, 64, 110
1, 364476, Control_c, 0, 64, 127
1, 364481, Note_off_c, 0, 58, 65
1, 364482, Poly_aftertouch_c, 0, 64, 28
1, 364484, Note_on_c, 0, 64, 76
1, 364492, Note_off_c, 0, 67, 63
1, 364512, Poly_aftertouch_c, 0, 50, 28
1, 364517, Note_on_c, 0, 50, 78
1, 364530, Note_off_c, 0, 64, 61
1, 364532, Control_c, 0, 64, 113
1, 364551, Control_c, 0, 64, 80
1, 364570, Control_c, 0, 64, 61
1, 364585, Poly_aftertouch_c, 0, 61, 28
1, 364586, Poly_aftertouch_c, 0, 61, 0
1, 364588, Control_c, 0, 64, 58
1, 364602, Poly_aftertouch_c, 0, 73, 28
1, 364604, Note_on_c, 0, 73, 85
1, 364607, Control_c, 0, 64, 66
1, 364608, Poly_aftertouch_c, 0, 55, 28
1, 364611, Note_on_c, 0, 55, 80
1, 364613, Note_off_c, 0, 50, 57
1, 364626, Control_c, 0, 64, 86
1, 364645, Control_c, 0, 64, 127
1, 364688, Poly_aftertouch_c, 0, 64, 28
1, 364696, Note_on_c, 0, 64, 56
1, 364699, Poly_aftertouch_c, 0, 70, 28
1, 364706, Note_on_c, 0, 70, 73
1, 364709, Note_off_c, 0, 73, 62
1, 364714, Poly_aftertouch_c, 0, 50, 28
1, 364718, Note_on_c, 0, 50, 85
1, 364719, Note_off_c, 0, 55, 54
1, 364757, Control_c, 0, 64, 78
1, 364770, Note_off_c, 0, 64, 61
1, 364775, Control_c, 0, 64, 51
1, 364782, Note_off_c, 0, 70, 65
1, 364793, Control_c, 0, 64, 32
1, 364808, Poly_aftertouch_c, 0, 74, 28
1, 364813, Note_on_c, 0, 74, 87
1, 364818, Note_off_c, 0, 50, 45
1, 364818, Poly_aftertouch_c, 0, 54, 28
1, 364821, Note_on_c, 0, 54, 85
1, 364832, Control_c, 0, 64, 41
1, 364849, Control_c, 0, 64, 60
1, 364869, Control_c, 0, 64, 81
1, 364888, Control_c, 0, 64, 127
1, 364897, Poly_aftertouch_c, 0, 69, 28
1, 364899, Note_on_c, 0, 69, 80
1, 364903, Poly_aftertouch_c, 0, 62, 28
1, 364905, Note_on_c, 0, 62, 69
1, 364913, Poly_aftertouch_c, 0, 50, 28
1, 364919, Note_on_c, 0, 50, 87
1, 364935, Note_off_c, 0, 54, 63
1, 364936, Note_off_c, 0, 74, 61
1, 364944, Note_off_c, 0, 62, 60
1, 364990, Note_off_c, 0, 50, 62
1, 364998, Note_off_c, 0, 69, 62
1, 365151, Poly_aftertouch_c, 0, 79, 28
1, 365155, Note_on_c, 0, 79, 95
1, 365189, Control_c, 0, 64, 78
1, 365206, Control_c, 0, 64, 45
1, 365224, Control_c, 0, 64, 9
1, 365264, Poly_aftertouch_c, 0, 75, 28
1, 365269, Note_off_c, 0, 79, 61
1, 365271, Note_on_c, 0, 75, 88
1, 365281, Control_c, 0, 64, 15
1, 365300, Control_c, 0, 64, 33
1, 365318, Control_c, 0, 64, 61
1, 365337, Control_c, 0, 64, 91
1, 365347, Note_off_c, 0, 75, 65
1, 365354, Control_c, 0, 64, 127
1, 365360, Poly_aftertouch_c, 0, 72, 28
1, 365362, Note_on_c, 0, 72, 85
1, 365435, Poly_aftertouch_c, 0, 70, 28
1, 365443, Note_on_c, 0, 70, 89
1, 365463, Note_off_c, 0, 72, 58
1, 365503, Note_off_c, 0, 70, 67
1, 365549, Poly_aftertouch_c, 0, 75, 28
1, 365549, Poly_aftertouch_c, 0, 79, 28
1, 365551, Note_on_c, 0, 79, 90
1, 365552, Note_on_c, 0, 75, 89
1, 365556, Note_on_c, 0, 69, 91
1, 365557, Poly_aftertouch_c, 0, 69, 28
1, 365564, Note_on_c, 0, 72, 82
1, 365565, Poly_aftertouch_c, 0, 72, 28
1, 365581, Control_c, 0, 64, 85
1, 365599, Control_c, 0, 64, 54
1, 365618, Control_c, 0, 64, 22
1, 365637, Control_c, 0, 64, 10
1, 365648, Poly_aftertouch_c, 0, 60, 28
1, 365650, Note_on_c, 0, 60, 93
1, 365674, Control_c, 0, 64, 17
1, 365692, Control_c, 0, 64, 29
1, 365712, Control_c, 0, 64, 44
1, 365715, Note_off_c, 0, 60, 62
1, 365729, Control_c, 0, 64, 62
1, 365748, Control_c, 0, 64, 74
1, 365751, Poly_aftertouch_c, 0, 57, 28
1, 365752, Note_on_c, 0, 57, 85
1, 365768, Control_c, 0, 64, 87
1, 365787, Control_c, 0, 64, 102
1, 365804, Control_c, 0, 64, 127
1, 365827, Note_off_c, 0, 57, 61
1, 365857, Poly_aftertouch_c, 0, 51, 28
1, 365858, Note_on_c, 0, 51, 82
1, 365912, Note_off_c, 0, 69, 55
1, 365915, Note_off_c, 0, 51, 61
1, 365933, Note_off_c, 0, 72, 58
1, 365957, Note_off_c, 0, 79, 62
1, 365975, Note_off_c, 0, 75, 64
1, 365977, Poly_aftertouch_c, 0, 48, 28
1, 365982, Note_on_c, 0, 48, 88
1, 366050, Note_off_c, 0, 48, 61
1, 366065, Poly_aftertouch_c, 0, 38, 28
1, 366071, Note_on_c, 0, 38, 78
1, 366113, Note_off_c, 0, 38, 66
1, 366235, Control_c, 0, 64, 105
1, 366252, Poly_aftertouch_c, 0, 84, 28
1, 366253, Control_c, 0, 64, 69
1, 366256, Note_on_c, 0, 84, 88
1, 366268, Poly_aftertouch_c, 0, 54, 28
1, 366272, Control_c, 0, 64, 44
1, 366275, Note_on_c, 0, 54, 68
1, 366291, Control_c, 0, 64, 39
1, 366310, Control_c, 0, 64, 42
1, 366329, Control_c, 0, 64, 50
1, 366337, Note_off_c, 0, 84, 58
1, 366343, Note_off_c, 0, 54, 52
1, 366347, Control_c, 0, 64, 62
1, 366354, Poly_aftertouch_c, 0, 72, 28
1, 366358, Note_on_c, 0, 72, 68
1, 366358, Poly_aftertouch_c, 0, 50, 28
1, 366365, Control_c, 0, 64, 72
1, 366366, Note_on_c, 0, 50, 76
1, 366376, Poly_aftertouch_c, 0, 75, 28
1, 366385, Note_on_c, 0, 75, 63
1, 366385, Control_c, 0, 64, 83
1, 366405, Control_c, 0, 64, 98
1, 366413, Note_off_c, 0, 72, 59
1, 366423, Control_c, 0, 64, 127
1, 366427, Note_off_c, 0, 75, 65
1, 366443, Note_off_c, 0, 50, 61
1, 366451, Poly_aftertouch_c, 0, 55, 28
1, 366455, Note_on_c, 0, 55, 82
1, 366467, Poly_aftertouch_c, 0, 81, 28
1, 366468, Note_on_c, 0, 81, 86
1, 366549, Note_off_c, 0, 81, 62
1, 366549, Poly_aftertouch_c, 0, 75, 28
1, 366554, Note_on_c, 0, 75, 77
1, 366559, Note_off_c, 0, 55, 61
1, 366559, Poly_aftertouch_c, 0, 50, 28
1, 366564, Note_on_c, 0, 50, 83
1, 366572, Poly_aftertouch_c, 0, 69, 28
1, 366575, Note_on_c, 0, 69, 73
1, 366583, Note_off_c, 0, 75, 70
1, 366608, Note_off_c, 0, 69, 66
1, 366630, Note_off_c, 0, 50, 63
1, 366651, Poly_aftertouch_c, 0, 57, 28
1, 366655, Note_on_c, 0, 57, 86
1, 366667, Note_on_c, 0, 72, 97
1, 366668, Poly_aftertouch_c, 0, 72, 28
1, 366737, Note_off_c, 0, 57, 66
1, 366742, Poly_aftertouch_c, 0, 50, 28
1, 366747, Note_on_c, 0, 50, 88
1, 366757, Poly_aftertouch_c, 0, 60, 28
1, 366762, Note_on_c, 0, 60, 75
1, 366765, Poly_aftertouch_c, 0, 66, 28
1, 366768, Note_on_c, 0, 66, 78
1, 366771, Note_off_c, 0, 72, 62
1, 366792, Note_off_c, 0, 50, 58
1, 366946, Control_c, 0, 64, 108
1, 366967, Control_c, 0, 64, 69
1, 366970, Note_off_c, 0, 66, 62
1, 366985, Poly_aftertouch_c, 0, 70, 28
1, 366985, Control_c, 0, 64, 38
1, 366991, Note_on_c, 0, 70, 89
1, 367003, Control_c, 0, 64, 11
1, 367016, Note_off_c, 0, 60, 37
1, 367059, Control_c, 0, 64, 17
1, 367077, Control_c, 0, 64, 31
1, 367091, Poly_aftertouch_c, 0, 67, 28
1, 367095, Note_on_c, 0, 67, 85
1, 367096, Control_c, 0, 64, 51
1, 367116, Control_c, 0, 64, 73
1, 367133, Control_c, 0, 64, 104
1, 367152, Control_c, 0, 64, 127
1, 367160, Note_off_c, 0, 70, 52
1, 367190, Poly_aftertouch_c, 0, 63, 28
1, 367191, Note_on_c, 0, 63, 90
1, 367200, Note_off_c, 0, 67, 63
1, 367290, Poly_aftertouch_c, 0, 62, 28
1, 367292, Note_on_c, 0, 62, 87
1, 367300, Note_off_c, 0, 63, 57
1, 367451, Poly_aftertouch_c, 0, 64, 28
1, 367453, Note_on_c, 0, 64, 80
1, 367456, Poly_aftertouch_c, 0, 70, 28
1, 367462, Poly_aftertouch_c, 0, 61, 28
1, 367463, Note_on_c, 0, 70, 91
1, 367465, Poly_aftertouch_c, 0, 67, 28
1, 367467, Note_on_c, 0, 61, 85
1, 367468, Note_on_c, 0, 67, 81
1, 367509, Note_off_c, 0, 62, 55
1, 367509, Control_c, 0, 64, 102
1, 367528, Control_c, 0, 64, 64
1, 367545, Control_c, 0, 64, 26
1, 367565, Control_c, 0, 64, 0
1, 367575, Poly_aftertouch_c, 0, 55, 28
1, 367581, Note_on_c, 0, 55, 91
1, 367648, Note_off_c, 0, 55, 62
1, 367658, Control_c, 0, 64, 9
1, 367677, Control_c, 0, 64, 24
1, 367684, Poly_aftertouch_c, 0, 52, 28
1, 367689, Note_on_c, 0, 52, 85
1, 367695, Control_c, 0, 64, 43
1, 367715, Control_c, 0, 64, 66
1, 367732, Control_c, 0, 64, 83
1, 367752, Control_c, 0, 64, 115
1, 367762, Note_off_c, 0, 52, 60
1, 367771, Control_c, 0, 64, 127
1, 367787, Poly_aftertouch_c, 0, 46, 28
1, 367793, Note_on_c, 0, 46, 80
1, 367842, Note_off_c, 0, 46, 60
1, 367900, Poly_aftertouch_c, 0, 43, 28
1, 367901, Note_on_c, 0, 43, 84
1, 367951, Note_off_c, 0, 70, 38
1, 367956, Note_off_c, 0, 67, 53
1, 367976, Note_off_c, 0, 43, 61
1, 368007, Poly_aftertouch_c, 0, 31, 28
1, 368008, Note_off_c, 0, 64, 60
1, 368012, Note_on_c, 0, 31, 61
1, 368013, Note_on_c, 0, 33, 64
1, 368014, Poly_aftertouch_c, 0, 33, 28
1, 368015, Note_off_c, 0, 61, 59
1, 368049, Note_off_c, 0, 31, 58
1, 368050, Note_off_c, 0, 33, 57
1, 368089, Control_c, 0, 64, 101
1, 368108, Control_c, 0, 64, 65
1, 368125, Control_c, 0, 64, 34
1, 368138, Poly_aftertouch_c, 0, 69, 28
1, 368140, Note_on_c, 0, 69, 84
1, 368144, Control_c, 0, 64, 19
1, 368145, Poly_aftertouch_c, 0, 46, 28
1, 368151, Note_on_c, 0, 46, 72
1, 368182, Control_c, 0, 64, 32
1, 368201, Control_c, 0, 64, 53
1, 368208, Note_off_c, 0, 46, 49
1, 368219, Control_c, 0, 64, 76
1, 368231, Note_off_c, 0, 69, 58
1, 368238, Control_c, 0, 64, 127
1, 368252, Poly_aftertouch_c, 0, 64, 28
1, 368255, Note_on_c, 0, 64, 64
1, 368262, Poly_aftertouch_c, 0, 61, 28
1, 368262, Poly_aftertouch_c, 0, 63, 28
1, 368267, Note_on_c, 0, 61, 45
1, 368274, Poly_aftertouch_c, 0, 38, 28
1, 368277, Note_on_c, 0, 63, 11
1, 368277, Note_on_c, 0, 38, 61
1, 368320, Note_off_c, 0, 61, 54
1, 368353, Note_off_c, 0, 63, 44
1, 368365, Note_off_c, 0, 64, 60
1, 368407, Control_c, 0, 64, 80
1, 368421, Note_off_c, 0, 38, 37
1, 368423, Poly_aftertouch_c, 0, 67, 28
1, 368424, Control_c, 0, 64, 52
1, 368427, Note_on_c, 0, 67, 71
1, 368441, Poly_aftertouch_c, 0, 49, 28
1, 368444, Note_on_c, 0, 49, 64
1, 368444, Control_c, 0, 64, 34
1, 368482, Control_c, 0, 64, 48
1, 368500, Control_c, 0, 64, 68
1, 368520, Control_c, 0, 64, 95
1, 368537, Control_c, 0, 64, 127
1, 368549, Note_off_c, 0, 67, 59
1, 368564, Poly_aftertouch_c, 0, 64, 28
1, 368568, Note_on_c, 0, 64, 48
1, 368568, Poly_aftertouch_c, 0, 38, 28
1, 368571, Note_off_c, 0, 49, 59
1, 368571, Note_on_c, 0, 38, 61
1, 368580, Poly_aftertouch_c, 0, 58, 28
1, 368589, Note_on_c, 0, 58, 41
1, 368637, Note_off_c, 0, 64, 59
1, 368648, Note_off_c, 0, 58, 59
1, 368695, Note_off_c, 0, 38, 55
1, 368723, Poly_aftertouch_c, 0, 66, 28
1, 368724, Control_c, 0, 64, 100
1, 368727, Note_on_c, 0, 66, 72
1, 368736, Poly_aftertouch_c, 0, 50, 28
1, 368743, Note_on_c, 0, 50, 60
1, 368743, Control_c, 0, 64, 66
1, 368763, Control_c, 0, 64, 34
1, 368782, Control_c, 0, 64, 11
1, 368819, Control_c, 0, 64, 16
1, 368837, Control_c, 0, 64, 30
1, 368851, Poly_aftertouch_c, 0, 57, 28
1, 368856, Control_c, 0, 64, 52
1, 368864, Note_on_c, 0, 57, 34
1, 368875, Control_c, 0, 64, 75
1, 368878, Poly_aftertouch_c, 0, 38, 28
1, 368884, Note_on_c, 0, 38, 56
1, 368886, Poly_aftertouch_c, 0, 62, 28
1, 368894, Control_c, 0, 64, 105
1, 368895, Note_on_c, 0, 62, 50
1, 368913, Control_c, 0, 64, 127
1, 368918, Note_off_c, 0, 57, 53
1, 368939, Note_off_c, 0, 50, 33
1, 368946, Note_off_c, 0, 38, 60
1, 368971, Note_off_c, 0, 62, 56
1, 369021, Note_off_c, 0, 66, 62
1, 369245, Poly_aftertouch_c, 0, 74, 28
1, 369248, Note_on_c, 0, 74, 66
1, 369259, Poly_aftertouch_c, 0, 62, 28
1, 369264, Note_on_c, 0, 62, 49
1, 369286, Control_c, 0, 64, 93
1, 369306, Control_c, 0, 64, 63
1, 369324, Control_c, 0, 64, 35
1, 369343, Control_c, 0, 64, 14
1, 369361, Control_c, 0, 64, 10
1, 369418, Control_c, 0, 64, 16
1, 369437, Control_c, 0, 64, 27
1, 369456, Control_c, 0, 64, 42
1, 369473, Control_c, 0, 64, 63
1, 369480, Note_off_c, 0, 74, 53
1, 369487, Note_off_c, 0, 62, 56
1, 369493, Control_c, 0, 64, 79
1, 369510, Note_on_c, 0, 59, 46
1, 369510, Control_c, 0, 64, 99
1, 369511, Poly_aftertouch_c, 0, 59, 28
1, 369513, Note_on_c, 0, 71, 47
1, 369513, Poly_aftertouch_c, 0, 71, 28
1, 369530, Control_c, 0, 64, 127
1, 369589, Note_off_c, 0, 59, 46
1, 369644, Note_off_c, 0, 71, 46
1, 369644, Poly_aftertouch_c, 0, 67, 28
1, 369646, Note_on_c, 0, 67, 55
1, 369653, Poly_aftertouch_c, 0, 55, 28
1, 369659, Note_on_c, 0, 55, 57
1, 369709, Note_off_c, 0, 55, 59
1, 369724, Note_off_c, 0, 67, 60
1, 369756, Poly_aftertouch_c, 0, 66, 28
1, 369762, Note_on_c, 0, 66, 62
1, 369777, Poly_aftertouch_c, 0, 54, 28
1, 369779, Note_on_c, 0, 54, 64
1, 369812, Note_off_c, 0, 66, 59
1, 369829, Control_c, 0, 64, 90
1, 369836, Note_off_c, 0, 54, 58
1, 369849, Control_c, 0, 64, 65
1, 369862, Poly_aftertouch_c, 0, 65, 28
1, 369866, Note_on_c, 0, 65, 63
1, 369866, Control_c, 0, 64, 45
1, 369871, Poly_aftertouch_c, 0, 53, 28
1, 369876, Note_on_c, 0, 53, 67
1, 369886, Control_c, 0, 64, 39
1, 369904, Control_c, 0, 64, 41
1, 369924, Control_c, 0, 64, 49
1, 369936, Note_off_c, 0, 65, 49
1, 369941, Control_c, 0, 64, 60
1, 369949, Poly_aftertouch_c, 0, 68, 28
1, 369954, Note_on_c, 0, 68, 68
1, 369958, Poly_aftertouch_c, 0, 56, 28
1, 369960, Control_c, 0, 64, 70
1, 369964, Note_on_c, 0, 56, 73
1, 369972, Note_off_c, 0, 53, 61
1, 369978, Control_c, 0, 64, 80
1, 369998, Control_c, 0, 64, 97
1, 370017, Control_c, 0, 64, 127
1, 370026, Note_off_c, 0, 56, 57
1, 370034, Note_off_c, 0, 68, 60
1, 370056, Poly_aftertouch_c, 0, 72, 28
1, 370058, Note_on_c, 0, 72, 73
1, 370061, Poly_aftertouch_c, 0, 60, 28
1, 370063, Note_on_c, 0, 60, 69
1, 370150, Poly_aftertouch_c, 0, 73, 28
1, 370155, Note_off_c, 0, 60, 55
1, 370155, Poly_aftertouch_c, 0, 61, 28
1, 370157, Note_on_c, 0, 73, 76
1, 370160, Note_on_c, 0, 61, 69
1, 370163, Note_off_c, 0, 72, 59
1, 370241, Control_c, 0, 64, 89
1, 370261, Control_c, 0, 64, 64
1, 370264, Note_off_c, 0, 61, 53
1, 370278, Control_c, 0, 64, 46
1, 370280, Poly_aftertouch_c, 0, 62, 28
1, 370285, Note_on_c, 0, 62, 71
1, 370287, Note_off_c, 0, 73, 62
1, 370288, Poly_aftertouch_c, 0, 74, 28
1, 370292, Note_on_c, 0, 74, 76
1, 370298, Control_c, 0, 64, 43
1, 370316, Control_c, 0, 64, 46
1, 370334, Control_c, 0, 64, 56
1, 370348, Note_off_c, 0, 62, 50
1, 370353, Control_c, 0, 64, 66
1, 370372, Control_c, 0, 64, 77
1, 370378, Note_off_c, 0, 74, 55
1, 370391, Control_c, 0, 64, 95
1, 370397, Poly_aftertouch_c, 0, 59, 28
1, 370402, Note_on_c, 0, 59, 65
1, 370404, Poly_aftertouch_c, 0, 71, 28
1, 370407, Note_on_c, 0, 71, 66
1, 370408, Control_c, 0, 64, 127
1, 370475, Note_off_c, 0, 59, 58
1, 370489, Poly_aftertouch_c, 0, 67, 28
1, 370492, Note_on_c, 0, 67, 67
1, 370495, Poly_aftertouch_c, 0, 55, 28
1, 370496, Note_off_c, 0, 71, 57
1, 370501, Note_on_c, 0, 55, 69
1, 370561, Note_off_c, 0, 67, 60
1, 370580, Note_off_c, 0, 55, 62
1, 370584, Poly_aftertouch_c, 0, 54, 28
1, 370588, Note_on_c, 0, 54, 78
1, 370592, Poly_aftertouch_c, 0, 66, 28
1, 370595, Note_on_c, 0, 66, 74
1, 370653, Note_off_c, 0, 66, 59
1, 370653, Control_c, 0, 64, 89
1, 370660, Note_off_c, 0, 54, 61
1, 370671, Control_c, 0, 64, 59
1, 370685, Poly_aftertouch_c, 0, 65, 28
1, 370687, Note_on_c, 0, 65, 78
1, 370690, Poly_aftertouch_c, 0, 53, 28
1, 370690, Control_c, 0, 64, 36
1, 370693, Note_on_c, 0, 53, 72
1, 370709, Control_c, 0, 64, 31
1, 370746, Control_c, 0, 64, 37
1, 370766, Control_c, 0, 64, 50
1, 370768, Note_off_c, 0, 65, 58
1, 370772, Poly_aftertouch_c, 0, 56, 28
1, 370773, Poly_aftertouch_c, 0, 68, 28
1, 370777, Note_on_c, 0, 56, 70
1, 370778, Note_off_c, 0, 53, 61
1, 370780, Note_on_c, 0, 68, 79
1, 370785, Control_c, 0, 64, 67
1, 370802, Control_c, 0, 64, 81
1, 370821, Control_c, 0, 64, 106
1, 370841, Control_c, 0, 64, 127
1, 370843, Note_off_c, 0, 56, 47
1, 370855, Poly_aftertouch_c, 0, 60, 28
1, 370858, Note_on_c, 0, 60, 77
1, 370874, Note_off_c, 0, 68, 51
1, 370875, Poly_aftertouch_c, 0, 72, 28
1, 370878, Note_on_c, 0, 72, 80
1, 370950, Poly_aftertouch_c, 0, 61, 28
1, 370953, Note_on_c, 0, 61, 78
1, 370960, Note_off_c, 0, 60, 61
1, 370961, Poly_aftertouch_c, 0, 73, 28
1, 370966, Note_on_c, 0, 73, 80
1, 370989, Note_off_c, 0, 72, 60
1, 371019, Note_off_c, 0, 61, 59
1, 371038, Note_off_c, 0, 73, 64
1, 371102, Control_c, 0, 64, 82
1, 371121, Poly_aftertouch_c, 0, 61, 28
1, 371121, Control_c, 0, 64, 52
1, 371124, Note_on_c, 0, 61, 75
1, 371124, Poly_aftertouch_c, 0, 73, 28
1, 371126, Note_on_c, 0, 73, 82
1, 371139, Control_c, 0, 64, 28
1, 371159, Control_c, 0, 64, 18
1, 371197, Control_c, 0, 64, 22
1, 371205, Note_off_c, 0, 61, 59
1, 371214, Control_c, 0, 64, 34
1, 371234, Control_c, 0, 64, 52
1, 371243, Note_off_c, 0, 73, 61
1, 371248, Poly_aftertouch_c, 0, 70, 28
1, 371251, Poly_aftertouch_c, 0, 58, 28
1, 371251, Control_c, 0, 64, 72
1, 371256, Note_on_c, 0, 70, 65
1, 371257, Note_on_c, 0, 58, 66
1, 371271, Control_c, 0, 64, 90
1, 371289, Control_c, 0, 64, 127
1, 371343, Poly_aftertouch_c, 0, 66, 28
1, 371347, Note_off_c, 0, 58, 63
1, 371347, Note_on_c, 0, 66, 72
1, 371357, Note_off_c, 0, 70, 57
1, 371365, Poly_aftertouch_c, 0, 54, 28
1, 371371, Note_on_c, 0, 54, 68
1, 371433, Note_off_c, 0, 54, 62
1, 371434, Note_off_c, 0, 66, 59
1, 371434, Poly_aftertouch_c, 0, 65, 28
1, 371437, Note_on_c, 0, 65, 78
1, 371457, Poly_aftertouch_c, 0, 53, 28
1, 371461, Note_on_c, 0, 53, 67
1, 371496, Control_c, 0, 64, 101
1, 371501, Note_off_c, 0, 65, 63
1, 371515, Control_c, 0, 64, 71
1, 371525, Note_off_c, 0, 53, 57
1, 371532, Poly_aftertouch_c, 0, 64, 28
1, 371532, Control_c, 0, 64, 49
1, 371534, Note_on_c, 0, 64, 78
1, 371536, Note_on_c, 0, 52, 69
1, 371537, Poly_aftertouch_c, 0, 52, 28
1, 371552, Control_c, 0, 64, 40
1, 371591, Control_c, 0, 64, 49
1, 371607, Control_c, 0, 64, 61
1, 371614, Poly_aftertouch_c, 0, 55, 28
1, 371620, Note_on_c, 0, 55, 74
1, 371621, Note_off_c, 0, 64, 61
1, 371622, Note_on_c, 0, 67, 74
1, 371622, Poly_aftertouch_c, 0, 67, 28
1, 371626, Note_off_c, 0, 52, 62
1, 371626, Control_c, 0, 64, 74
1, 371646, Control_c, 0, 64, 93
1, 371665, Control_c, 0, 64, 127
1, 371696, Poly_aftertouch_c, 0, 59, 28
1, 371698, Note_off_c, 0, 67, 60
1, 371700, Note_on_c, 0, 59, 77
1, 371702, Note_off_c, 0, 55, 62
1, 371709, Poly_aftertouch_c, 0, 71, 28
1, 371712, Note_on_c, 0, 71, 79
1, 371757, Note_off_c, 0, 59, 61
1, 371782, Poly_aftertouch_c, 0, 72, 28
1, 371785, Note_on_c, 0, 72, 79
1, 371792, Poly_aftertouch_c, 0, 60, 28
1, 371793, Note_on_c, 0, 60, 80
1, 371798, Note_off_c, 0, 71, 59
1, 371820, Note_off_c, 0, 72, 65
1, 371827, Note_off_c, 0, 60, 68
1, 371851, Control_c, 0, 64, 82
1, 371870, Control_c, 0, 64, 52
1, 371883, Poly_aftertouch_c, 0, 72, 28
1, 371886, Note_on_c, 0, 72, 83
1, 371887, Control_c, 0, 64, 24
1, 371900, Poly_aftertouch_c, 0, 60, 28
1, 371906, Note_on_c, 0, 60, 79
1, 371906, Control_c, 0, 64, 13
1, 371944, Control_c, 0, 64, 19
1, 371963, Control_c, 0, 64, 32
1, 371977, Note_off_c, 0, 60, 58
1, 371983, Control_c, 0, 64, 53
1, 371986, Poly_aftertouch_c, 0, 57, 28
1, 371988, Note_on_c, 0, 69, 76
1, 371989, Note_off_c, 0, 72, 62
1, 371989, Poly_aftertouch_c, 0, 69, 28
1, 371993, Note_on_c, 0, 57, 72
1, 372001, Control_c, 0, 64, 74
1, 372019, Control_c, 0, 64, 96
1, 372039, Control_c, 0, 64, 127
1, 372077, Poly_aftertouch_c, 0, 65, 28
1, 372080, Note_on_c, 0, 65, 80
1, 372083, Note_off_c, 0, 57, 63
1, 372084, Note_off_c, 0, 69, 59
1, 372089, Note_on_c, 0, 53, 73
1, 372089, Poly_aftertouch_c, 0, 53, 28
1, 372152, Poly_aftertouch_c, 0, 52, 28
1, 372154, Note_off_c, 0, 65, 62
1, 372157, Note_on_c, 0, 52, 82
1, 372159, Poly_aftertouch_c, 0, 64, 28
1, 372162, Note_on_c, 0, 64, 79
1, 372164, Note_off_c, 0, 53, 62
1, 372238, Note_off_c, 0, 52, 59
1, 372244, Control_c, 0, 64, 84
1, 372263, Control_c, 0, 64, 54
1, 372266, Poly_aftertouch_c, 0, 60, 28
1, 372270, Note_on_c, 0, 60, 85
1, 372273, Poly_aftertouch_c, 0, 72, 28
1, 372277, Note_on_c, 0, 72, 94
1, 372282, Control_c, 0, 64, 27
1, 372300, Control_c, 0, 64, 18
1, 372315, Note_off_c, 0, 64, 58
1, 372337, Control_c, 0, 64, 28
1, 372346, Note_off_c, 0, 60, 56
1, 372356, Control_c, 0, 64, 47
1, 372375, Control_c, 0, 64, 72
1, 372378, Poly_aftertouch_c, 0, 57, 28
1, 372380, Note_off_c, 0, 72, 60
1, 372381, Note_on_c, 0, 57, 79
1, 372390, Note_on_c, 0, 69, 80
1, 372391, Poly_aftertouch_c, 0, 69, 28
1, 372395, Control_c, 0, 64, 96
1, 372412, Control_c, 0, 64, 127
1, 372484, Note_off_c, 0, 57, 62
1, 372488, Note_off_c, 0, 69, 60
1, 372493, Poly_aftertouch_c, 0, 65, 28
1, 372498, Poly_aftertouch_c, 0, 53, 28
1, 372499, Note_on_c, 0, 65, 76
1, 372500, Note_on_c, 0, 53, 64
1, 372552, Note_off_c, 0, 65, 56
1, 372573, Note_off_c, 0, 53, 62
1, 372586, Poly_aftertouch_c, 0, 51, 28
1, 372590, Note_on_c, 0, 51, 67
1, 372605, Poly_aftertouch_c, 0, 63, 28
1, 372611, Note_on_c, 0, 63, 75
1, 372908, Poly_aftertouch_c, 0, 72, 28
1, 372913, Note_on_c, 0, 72, 60
1, 372919, Control_c, 0, 64, 106
1, 372929, Poly_aftertouch_c, 0, 60, 28
1, 372934, Note_on_c, 0, 60, 45
1, 372935, Note_off_c, 0, 63, 57
1, 372935, Control_c, 0, 64, 73
1, 372942, Note_off_c, 0, 51, 56
1, 372955, Control_c, 0, 64, 43
1, 372993, Control_c, 0, 64, 0
1, 373106, Control_c, 0, 64, 11
1, 373124, Control_c, 0, 64, 26
1, 373143, Control_c, 0, 64, 49
1, 373156, Poly_aftertouch_c, 0, 57, 28
1, 373160, Control_c, 0, 64, 73
1, 373163, Note_on_c, 0, 57, 44
1, 373163, Poly_aftertouch_c, 0, 69, 28
1, 373164, Note_off_c, 0, 72, 54
1, 373167, Note_on_c, 0, 69, 55
1, 373180, Control_c, 0, 64, 98
1, 373190, Note_off_c, 0, 60, 44
1, 373199, Control_c, 0, 64, 127
1, 373264, Note_off_c, 0, 69, 52
1, 373270, Poly_aftertouch_c, 0, 66, 28
1, 373277, Note_on_c, 0, 66, 56
1, 373283, Note_off_c, 0, 57, 57
1, 373292, Poly_aftertouch_c, 0, 54, 28
1, 373302, Note_on_c, 0, 54, 46
1, 373320, Poly_aftertouch_c, 0, 50, 28
1, 373330, Note_on_c, 0, 50, 57
1, 373331, Note_off_c, 0, 66, 57
1, 373357, Poly_aftertouch_c, 0, 62, 28
1, 373361, Note_on_c, 0, 62, 58
1, 373373, Note_off_c, 0, 50, 64
1, 373410, Note_off_c, 0, 54, 60
1, 373437, Note_off_c, 0, 62, 56
1, 373461, Control_c, 0, 64, 92
1, 373469, Poly_aftertouch_c, 0, 73, 28
1, 373474, Note_on_c, 0, 73, 76
1, 373479, Control_c, 0, 64, 63
1, 373498, Poly_aftertouch_c, 0, 61, 28
1, 373498, Control_c, 0, 64, 37
1, 373503, Note_on_c, 0, 61, 58
1, 373518, Control_c, 0, 64, 22
1, 373554, Control_c, 0, 64, 27
1, 373574, Control_c, 0, 64, 38
1, 373592, Control_c, 0, 64, 55
1, 373600, Poly_aftertouch_c, 0, 58, 28
1, 373602, Poly_aftertouch_c, 0, 70, 28
1, 373605, Note_on_c, 0, 58, 61
1, 373610, Control_c, 0, 64, 70
1, 373612, Note_on_c, 0, 70, 60
1, 373621, Note_off_c, 0, 61, 57
1, 373629, Control_c, 0, 64, 83
1, 373648, Control_c, 0, 64, 111
1, 373666, Note_off_c, 0, 73, 58
1, 373666, Control_c, 0, 64, 127
1, 373690, Poly_aftertouch_c, 0, 67, 28
1, 373693, Note_on_c, 0, 67, 61
1, 373694, Poly_aftertouch_c, 0, 55, 28
1, 373700, Note_on_c, 0, 55, 55
1, 373709, Note_off_c, 0, 58, 55
1, 373733, Note_off_c, 0, 70, 58
1, 373752, Poly_aftertouch_c, 0, 51, 28
1, 373757, Note_on_c, 0, 51, 70
1, 373758, Poly_aftertouch_c, 0, 63, 28
1, 373763, Note_on_c, 0, 63, 71
1, 373765, Note_off_c, 0, 67, 60
1, 373798, Note_off_c, 0, 55, 62
1, 373798, Control_c, 0, 64, 118
1, 373816, Control_c, 0, 64, 78
1, 373832, Note_off_c, 0, 51, 61
1, 373834, Control_c, 0, 64, 54
1, 373837, Note_off_c, 0, 63, 62
1, 373854, Poly_aftertouch_c, 0, 74, 28
1, 373854, Control_c, 0, 64, 42
1, 373856, Note_on_c, 0, 74, 91
1, 373863, Poly_aftertouch_c, 0, 62, 28
1, 373869, Note_on_c, 0, 62, 76
1, 373872, Control_c, 0, 64, 44
1, 373892, Control_c, 0, 64, 53
1, 373910, Control_c, 0, 64, 65
1, 373930, Control_c, 0, 64, 79
1, 373937, Note_off_c, 0, 62, 58
1, 373943, Poly_aftertouch_c, 0, 58, 28
1, 373944, Poly_aftertouch_c, 0, 70, 28
1, 373948, Note_on_c, 0, 58, 75
1, 373948, Control_c, 0, 64, 105
1, 373949, Note_on_c, 0, 70, 73
1, 373964, Note_off_c, 0, 74, 57
1, 373966, Control_c, 0, 64, 127
1, 374005, Note_off_c, 0, 58, 66
1, 374030, Poly_aftertouch_c, 0, 67, 28
1, 374037, Note_on_c, 0, 67, 69
1, 374043, Poly_aftertouch_c, 0, 55, 28
1, 374046, Note_on_c, 0, 55, 74
1, 374075, Note_off_c, 0, 70, 60
1, 374082, Poly_aftertouch_c, 0, 50, 28
1, 374090, Note_on_c, 0, 50, 71
1, 374107, Poly_aftertouch_c, 0, 62, 28
1, 374108, Note_on_c, 0, 62, 76
1, 374118, Note_off_c, 0, 67, 62
1, 374122, Note_off_c, 0, 55, 60
1, 374130, Note_off_c, 0, 50, 67
1, 374171, Note_off_c, 0, 62, 61
1, 374191, Control_c, 0, 64, 101
1, 374210, Control_c, 0, 64, 69
1, 374214, Poly_aftertouch_c, 0, 75, 28
1, 374218, Poly_aftertouch_c, 0, 63, 28
1, 374219, Note_on_c, 0, 75, 95
1, 374222, Note_on_c, 0, 63, 89
1, 374230, Control_c, 0, 64, 47
1, 374247, Control_c, 0, 64, 42
1, 374266, Control_c, 0, 64, 48
1, 374285, Control_c, 0, 64, 60
1, 374293, Note_off_c, 0, 63, 63
1, 374298, Poly_aftertouch_c, 0, 70, 28
1, 374302, Control_c, 0, 64, 73
1, 374304, Poly_aftertouch_c, 0, 58, 28
1, 374305, Note_on_c, 0, 70, 80
1, 374306, Note_on_c, 0, 58, 80
1, 374322, Control_c, 0, 64, 96
1, 374336, Note_off_c, 0, 75, 64
1, 374339, Control_c, 0, 64, 127
1, 374384, Poly_aftertouch_c, 0, 67, 28
1, 374387, Note_on_c, 0, 67, 71
1, 374393, Note_off_c, 0, 58, 63
1, 374398, Poly_aftertouch_c, 0, 55, 28
1, 374402, Note_on_c, 0, 55, 67
1, 374432, Note_off_c, 0, 70, 63
1, 374461, Note_on_c, 0, 49, 84
1, 374462, Poly_aftertouch_c, 0, 49, 28
1, 374463, Note_off_c, 0, 55, 63
1, 374463, Poly_aftertouch_c, 0, 61, 28
1, 374464, Note_on_c, 0, 61, 82
1, 374479, Note_off_c, 0, 67, 61
1, 374517, Note_off_c, 0, 61, 64
1, 374524, Note_off_c, 0, 49, 61
1, 374565, Control_c, 0, 64, 91
1, 374573, Poly_aftertouch_c, 0, 76, 28
1, 374578, Note_on_c, 0, 76, 107
1, 374584, Note_on_c, 0, 64, 91
1, 374584, Poly_aftertouch_c, 0, 64, 28
1, 374584, Control_c, 0, 64, 59
1, 374603, Control_c, 0, 64, 36
1, 374649, Note_off_c, 0, 64, 61
1, 374658, Control_c, 0, 64, 53
1, 374673, Poly_aftertouch_c, 0, 58, 28
1, 374677, Note_on_c, 0, 58, 81
1, 374677, Control_c, 0, 64, 72
1, 374679, Poly_aftertouch_c, 0, 70, 28
1, 374682, Note_on_c, 0, 70, 86
1, 374686, Note_off_c, 0, 76, 58
1, 374696, Control_c, 0, 64, 96
1, 374710, Note_off_c, 0, 58, 71
1, 374715, Control_c, 0, 64, 127
1, 374771, Poly_aftertouch_c, 0, 67, 28
1, 374775, Note_on_c, 0, 67, 81
1, 374781, Poly_aftertouch_c, 0, 53, 28
1, 374781, Poly_aftertouch_c, 0, 55, 28
1, 374786, Note_on_c, 0, 53, 66
1, 374787, Note_on_c, 0, 55, 60
1, 374815, Note_off_c, 0, 53, 61
1, 374817, Note_off_c, 0, 70, 59
1, 374820, Note_off_c, 0, 55, 63
1, 374828, Poly_aftertouch_c, 0, 48, 28
1, 374833, Note_on_c, 0, 48, 87
1, 374849, Poly_aftertouch_c, 0, 60, 28
1, 374851, Note_on_c, 0, 60, 84
1, 374867, Note_off_c, 0, 48, 63
1, 374882, Note_off_c, 0, 67, 64
1, 374912, Note_off_c, 0, 60, 62
1, 374995, Control_c, 0, 64, 85
1, 374999, Note_on_c, 0, 77, 110
1, 375000, Poly_aftertouch_c, 0, 65, 28
1, 375001, Poly_aftertouch_c, 0, 77, 28
1, 375003, Note_on_c, 0, 65, 101
1, 375015, Control_c, 0, 64, 52
1, 375033, Control_c, 0, 64, 30
1, 375069, Note_off_c, 0, 65, 63
1, 375071, Control_c, 0, 64, 40
1, 375089, Control_c, 0, 64, 58
1, 375110, Control_c, 0, 64, 82
1, 375116, Poly_aftertouch_c, 0, 60, 28
1, 375119, Note_on_c, 0, 60, 89
1, 375125, Control_c, 0, 64, 127
1, 375127, Poly_aftertouch_c, 0, 72, 28
1, 375129, Note_on_c, 0, 72, 89
1, 375132, Note_off_c, 0, 77, 62
1, 375226, Poly_aftertouch_c, 0, 57, 28
1, 375227, Note_on_c, 0, 57, 79
1, 375232, Note_off_c, 0, 60, 60
1, 375238, Poly_aftertouch_c, 0, 69, 28
1, 375240, Note_on_c, 0, 69, 88
1, 375243, Note_off_c, 0, 72, 62
1, 375298, Note_off_c, 0, 69, 62
1, 375328, Poly_aftertouch_c, 0, 51, 28
1, 375333, Note_on_c, 0, 51, 85
1, 375349, Poly_aftertouch_c, 0, 63, 28
1, 375350, Note_on_c, 0, 63, 90
1, 375353, Note_off_c, 0, 57, 58
1, 375409, Note_off_c, 0, 63, 63
1, 375450, Note_off_c, 0, 51, 59
1, 375557, Control_c, 0, 64, 92
1, 375573, Poly_aftertouch_c, 0, 78, 28
1, 375577, Control_c, 0, 64, 47
1, 375578, Note_on_c, 0, 78, 99
1, 375580, Poly_aftertouch_c, 0, 66, 28
1, 375582, Note_on_c, 0, 66, 105
1, 375596, Control_c, 0, 64, 0
1, 375672, Control_c, 0, 64, 19
1, 375676, Note_on_c, 0, 60, 18
1, 375677, Note_off_c, 0, 60, 127
1, 375688, Control_c, 0, 64, 49
1, 375707, Control_c, 0, 64, 83
1, 375726, Control_c, 0, 64, 127
1, 375746, Note_off_c, 0, 66, 57
1, 375795, Poly_aftertouch_c, 0, 72, 28
1, 375800, Poly_aftertouch_c, 0, 60, 28
1, 375801, Note_on_c, 0, 72, 92
1, 375802, Note_on_c, 0, 60, 87
1, 375807, Note_off_c, 0, 78, 63
1, 375965, Poly_aftertouch_c, 0, 69, 28
1, 375968, Note_on_c, 0, 69, 91
1, 375974, Poly_aftertouch_c, 0, 57, 28
1, 375980, Note_on_c, 0, 57, 86
1, 375986, Note_off_c, 0, 72, 54
1, 376002, Note_off_c, 0, 60, 61
1, 376154, Note_off_c, 0, 69, 63
1, 376157, Poly_aftertouch_c, 0, 50, 28
1, 376158, Note_off_c, 0, 57, 57
1, 376163, Note_on_c, 0, 50, 97
1, 376165, Poly_aftertouch_c, 0, 62, 28
1, 376166, Note_on_c, 0, 62, 103
1, 376205, Note_off_c, 0, 50, 70
1, 376246, Note_off_c, 0, 62, 64
1, 377017, Control_c, 0, 64, 99
1, 377036, Control_c, 0, 64, 77
1, 377055, Control_c, 0, 64, 60
1, 377074, Control_c, 0, 64, 47
1, 377092, Control_c, 0, 64, 39
1, 377111, Control_c, 0, 64, 34
1, 377130, Control_c, 0, 64, 30
1, 377149, Control_c, 0, 64, 25
1, 377167, Control_c, 0, 64, 20
1, 377717, Poly_aftertouch_c, 0, 75, 28
1, 377719, Note_on_c, 0, 75, 102
1, 377730, Poly_aftertouch_c, 0, 67, 28
1, 377736, Note_on_c, 0, 67, 84
1, 377766, Poly_aftertouch_c, 0, 79, 28
1, 377766, Control_c, 0, 64, 26
1, 377770, Note_on_c, 0, 79, 51
1, 377784, Control_c, 0, 64, 31
1, 377804, Control_c, 0, 64, 40
1, 377819, Note_off_c, 0, 67, 0
1, 377819, Poly_aftertouch_c, 0, 67, 28
1, 377822, Control_c, 0, 64, 57
1, 377840, Control_c, 0, 64, 79
1, 377845, Note_off_c, 0, 79, 0
1, 377846, Note_on_c, 0, 79, 13
1, 377860, Control_c, 0, 64, 127
1, 378210, Poly_aftertouch_c, 0, 36, 28
1, 378213, Note_on_c, 0, 36, 88
1, 378395, Note_off_c, 0, 36, 36
1, 378425, Poly_aftertouch_c, 0, 51, 28
1, 378430, Note_on_c, 0, 51, 75
1, 378472, Note_off_c, 0, 51, 61
1, 378592, Poly_aftertouch_c, 0, 55, 28
1, 378596, Note_on_c, 0, 55, 80
1, 378620, Poly_aftertouch_c, 0, 72, 28
1, 378625, Note_on_c, 0, 72, 99
1, 378629, Note_off_c, 0, 55, 68
1, 378669, Note_off_c, 0, 75, 59
1, 378731, Note_off_c, 0, 79, 39
1, 378736, Poly_aftertouch_c, 0, 67, 0
1, 378761, Poly_aftertouch_c, 0, 69, 28
1, 378762, Poly_aftertouch_c, 0, 69, 0
1, 378779, Poly_aftertouch_c, 0, 63, 28
1, 378784, Note_on_c, 0, 63, 82
1, 378799, Note_off_c, 0, 72, 61
1, 378814, Note_off_c, 0, 63, 67
1, 379104, Poly_aftertouch_c, 0, 70, 28
1, 379110, Note_on_c, 0, 70, 103
1, 379125, Poly_aftertouch_c, 0, 76, 28
1, 379125, Poly_aftertouch_c, 0, 79, 28
1, 379128, Note_on_c, 0, 76, 79
1, 379131, Note_on_c, 0, 79, 76
1, 379133, Control_c, 0, 64, 89
1, 379152, Control_c, 0, 64, 53
1, 379190, Control_c, 0, 64, 0
1, 379263, Control_c, 0, 64, 25
1, 379275, Poly_aftertouch_c, 0, 37, 28
1, 379280, Note_on_c, 0, 37, 73
1, 379281, Control_c, 0, 64, 57
1, 379300, Control_c, 0, 64, 97
1, 379319, Control_c, 0, 64, 127
1, 379369, Note_off_c, 0, 37, 64
1, 379430, Poly_aftertouch_c, 0, 52, 28
1, 379434, Note_on_c, 0, 52, 68
1, 379485, Note_off_c, 0, 52, 59
1, 379569, Poly_aftertouch_c, 0, 69, 28
1, 379571, Note_on_c, 0, 69, 101
1, 379573, Note_on_c, 0, 55, 80
1, 379575, Poly_aftertouch_c, 0, 55, 28
1, 379604, Note_off_c, 0, 70, 62
1, 379620, Note_off_c, 0, 55, 59
1, 379697, Note_off_c, 0, 79, 54
1, 379721, Poly_aftertouch_c, 0, 64, 28
1, 379722, Note_on_c, 0, 64, 82
1, 379743, Note_off_c, 0, 76, 58
1, 379755, Note_off_c, 0, 64, 66
1, 379804, Note_off_c, 0, 69, 60
1, 380168, Poly_aftertouch_c, 0, 50, 28
1, 380175, Note_on_c, 0, 50, 101
1, 380185, Poly_aftertouch_c, 0, 38, 28
1, 380190, Note_on_c, 0, 38, 81
1, 380201, Control_c, 0, 64, 76
1, 380218, Control_c, 0, 64, 46
1, 380237, Control_c, 0, 64, 15
1, 380330, Control_c, 0, 64, 33
1, 380350, Control_c, 0, 64, 61
1, 380353, Note_off_c, 0, 38, 52
1, 380370, Control_c, 0, 64, 93
1, 380371, Poly_aftertouch_c, 0, 54, 28
1, 380376, Note_off_c, 0, 50, 65
1, 380380, Note_on_c, 0, 54, 74
1, 380387, Control_c, 0, 64, 127
1, 380477, Note_off_c, 0, 54, 64
1, 380511, Poly_aftertouch_c, 0, 62, 28
1, 380517, Note_on_c, 0, 62, 70
1, 380549, Note_off_c, 0, 62, 68
1, 380596, Poly_aftertouch_c, 0, 34, 28
1, 380597, Poly_aftertouch_c, 0, 34, 0
1, 380647, Poly_aftertouch_c, 0, 46, 28
1, 380652, Note_on_c, 0, 46, 103
1, 380658, Poly_aftertouch_c, 0, 34, 28
1, 380661, Note_on_c, 0, 34, 82
1, 380666, Control_c, 0, 64, 102
1, 380670, Poly_aftertouch_c, 0, 66, 28
1, 380672, Note_on_c, 0, 66, 82
1, 380686, Control_c, 0, 64, 67
1, 380704, Control_c, 0, 64, 38
1, 380712, Note_on_c, 0, 35, 25
1, 380713, Note_off_c, 0, 35, 127
1, 380724, Control_c, 0, 64, 20
1, 380762, Control_c, 0, 64, 26
1, 380770, Poly_aftertouch_c, 0, 35, 28
1, 380771, Poly_aftertouch_c, 0, 35, 0
1, 380779, Control_c, 0, 64, 41
1, 380799, Control_c, 0, 64, 65
1, 380819, Control_c, 0, 64, 94
1, 380835, Control_c, 0, 64, 127
1, 380847, Poly_aftertouch_c, 0, 74, 28
1, 380849, Note_on_c, 0, 74, 80
1, 380916, Note_off_c, 0, 74, 60
1, 380927, Note_off_c, 0, 66, 58
1, 380957, Note_off_c, 0, 46, 57
1, 381044, Note_off_c, 0, 34, 55
1, 381199, Poly_aftertouch_c, 0, 45, 28
1, 381202, Note_on_c, 0, 45, 105
1, 381209, Poly_aftertouch_c, 0, 33, 28
1, 381211, Note_on_c, 0, 33, 93
1, 381229, Control_c, 0, 64, 118
1, 381249, Control_c, 0, 64, 74
1, 381266, Control_c, 0, 64, 45
1, 381286, Control_c, 0, 64, 11
1, 381303, Control_c, 0, 64, 0
1, 381417, Control_c, 0, 64, 21
1, 381422, Poly_aftertouch_c, 0, 60, 28
1, 381426, Note_on_c, 0, 60, 85
1, 381435, Control_c, 0, 64, 50
1, 381454, Control_c, 0, 64, 84
1, 381473, Control_c, 0, 64, 127
1, 381631, Note_off_c, 0, 45, 48
1, 381646, Poly_aftertouch_c, 0, 66, 28
1, 381649, Note_on_c, 0, 66, 93
1, 381668, Note_off_c, 0, 60, 60
1, 381709, Note_off_c, 0, 66, 65
1, 381911, Note_off_c, 0, 33, 58
1, 381961, Control_c, 0, 64, 89
1, 381962, Poly_aftertouch_c, 0, 72, 28
1, 381968, Note_on_c, 0, 72, 100
1, 381972, Poly_aftertouch_c, 0, 31, 28
1, 381973, Note_on_c, 0, 31, 99
1, 381979, Control_c, 0, 64, 48
1, 381997, Control_c, 0, 64, 0
1, 382008, Poly_aftertouch_c, 0, 32, 28
1, 382012, Note_on_c, 0, 32, 45
1, 382053, Note_off_c, 0, 32, 48
1, 382282, Poly_aftertouch_c, 0, 78, 28
1, 382283, Note_on_c, 0, 78, 106
1, 382303, Note_off_c, 0, 72, 59
1, 382315, Control_c, 0, 64, 127
1, 382317, Note_off_c, 0, 31, 62
1, 382343, Note_off_c, 0, 78, 69
1, 383534, Poly_aftertouch_c, 0, 79, 28
1, 383536, Note_on_c, 0, 79, 88
1, 383539, Poly_aftertouch_c, 0, 62, 28
1, 383546, Note_on_c, 0, 62, 74
1, 383550, Note_on_c, 0, 58, 65
1, 383553, Note_on_c, 0, 50, 64
1, 383553, Note_on_c, 0, 74, 76
1, 383555, Note_on_c, 0, 55, 61
1, 383555, Note_on_c, 0, 70, 77
1, 383558, Note_on_c, 0, 67, 71
1, 383558, Poly_aftertouch_c, 0, 50, 28
1, 383559, Note_off_c, 0, 67, 127
1, 383559, Poly_aftertouch_c, 0, 55, 28
1, 383559, Poly_aftertouch_c, 0, 58, 28
1, 383562, Poly_aftertouch_c, 0, 67, 28
1, 383562, Poly_aftertouch_c, 0, 70, 28
1, 383563, Poly_aftertouch_c, 0, 74, 28
1, 383588, Control_c, 0, 64, 91
1, 383606, Control_c, 0, 64, 63
1, 383615, Poly_aftertouch_c, 0, 67, 127
1, 383623, Control_c, 0, 64, 36
1, 383662, Control_c, 0, 64, 0
1, 383962, Control_c, 0, 64, 9
1, 383981, Control_c, 0, 64, 22
1, 383999, Control_c, 0, 64, 42
1, 384018, Control_c, 0, 64, 67
1, 384037, Control_c, 0, 64, 90
1, 384055, Control_c, 0, 64, 127
1, 384340, Note_off_c, 0, 79, 55
1, 384418, Note_off_c, 0, 74, 54
1, 384494, Poly_aftertouch_c, 0, 67, 0
1, 384506, Note_off_c, 0, 70, 53
1, 385208, Poly_aftertouch_c, 0, 43, 28
1, 385217, Note_on_c, 0, 43, 35
1, 386833, Note_off_c, 0, 62, 36
1, 386967, Note_off_c, 0, 55, 59
1, 386999, Note_off_c, 0, 43, 29
1, 387182, Note_off_c, 0, 58, 43
1, 387317, Note_off_c, 0, 50, 35
1, 389144, Poly_aftertouch_c, 0, 67, 28
1, 389148, Poly_aftertouch_c, 0, 46, 28
1, 389153, Note_on_c, 0, 67, 58
1, 389182, Poly_aftertouch_c, 0, 39, 28
1, 389183, Poly_aftertouch_c, 0, 51, 28
1, 389189, Note_on_c, 0, 51, 27
1, 389195, Note_on_c, 0, 39, 18
1, 389195, Poly_aftertouch_c, 0, 55, 28
1, 389199, Poly_aftertouch_c, 0, 46, 127
1, 389200, Poly_aftertouch_c, 0, 58, 28
1, 389208, Note_on_c, 0, 55, 12
1, 389214, Note_on_c, 0, 58, 31
1, 389297, Control_c, 0, 64, 94
1, 389317, Control_c, 0, 64, 69
1, 389334, Control_c, 0, 64, 44
1, 389352, Control_c, 0, 64, 22
1, 389372, Control_c, 0, 64, 11
1, 389465, Control_c, 0, 64, 17
1, 389483, Control_c, 0, 64, 25
1, 389503, Control_c, 0, 64, 38
1, 389522, Control_c, 0, 64, 57
1, 389540, Control_c, 0, 64, 72
1, 389558, Control_c, 0, 64, 89
1, 389579, Control_c, 0, 64, 127
1, 389833, Poly_aftertouch_c, 0, 46, 0
1, 389858, Note_off_c, 0, 39, 39
1, 389888, Note_off_c, 0, 51, 39
1, 389893, Note_off_c, 0, 67, 33
1, 389941, Note_off_c, 0, 55, 39
1, 389955, Note_off_c, 0, 58, 40
1, 390208, Poly_aftertouch_c, 0, 67, 28
1, 390212, Note_on_c, 0, 67, 67
1, 390229, Poly_aftertouch_c, 0, 38, 28
1, 390237, Poly_aftertouch_c, 0, 46, 28
1, 390239, Note_on_c, 0, 38, 26
1, 390242, Poly_aftertouch_c, 0, 50, 28
1, 390249, Note_on_c, 0, 46, 29
1, 390253, Note_on_c, 0, 50, 34
1, 390254, Poly_aftertouch_c, 0, 55, 28
1, 390254, Poly_aftertouch_c, 0, 58, 28
1, 390266, Note_on_c, 0, 58, 35
1, 390268, Control_c, 0, 64, 96
1, 390270, Note_on_c, 0, 55, 10
1, 390288, Control_c, 0, 64, 71
1, 390308, Control_c, 0, 64, 55
1, 390326, Control_c, 0, 64, 49
1, 390345, Control_c, 0, 64, 51
1, 390364, Control_c, 0, 64, 59
1, 390383, Control_c, 0, 64, 68
1, 390391, Note_off_c, 0, 38, 55
1, 390392, Note_off_c, 0, 50, 58
1, 390401, Control_c, 0, 64, 81
1, 390421, Control_c, 0, 64, 114
1, 390438, Control_c, 0, 64, 127
1, 390571, Poly_aftertouch_c, 0, 39, 28
1, 390581, Note_on_c, 0, 39, 31
1, 390581, Poly_aftertouch_c, 0, 51, 28
1, 390590, Note_on_c, 0, 51, 38
1, 390603, Note_off_c, 0, 46, 42
1, 390634, Note_off_c, 0, 39, 51
1, 390638, Note_off_c, 0, 51, 51
1, 390796, Poly_aftertouch_c, 0, 53, 28
1, 390800, Note_on_c, 0, 53, 50
1, 390806, Poly_aftertouch_c, 0, 41, 28
1, 390810, Note_on_c, 0, 41, 42
1, 390847, Note_off_c, 0, 53, 61
1, 390851, Note_off_c, 0, 41, 51
1, 390896, Note_off_c, 0, 55, 38
1, 390910, Note_off_c, 0, 67, 31
1, 390931, Note_off_c, 0, 58, 33
1, 391057, Poly_aftertouch_c, 0, 67, 28
1, 391064, Note_on_c, 0, 67, 73
1, 391082, Poly_aftertouch_c, 0, 51, 28
1, 391088, Note_on_c, 0, 51, 32
1, 391088, Poly_aftertouch_c, 0, 63, 28
1, 391094, Note_on_c, 0, 63, 52
1, 391099, Poly_aftertouch_c, 0, 39, 28
1, 391100, Poly_aftertouch_c, 0, 46, 28
1, 391105, Note_on_c, 0, 39, 39
1, 391107, Poly_aftertouch_c, 0, 58, 28
1, 391112, Note_on_c, 0, 46, 36
1, 391114, Control_c, 0, 64, 99
1, 391118, Poly_aftertouch_c, 0, 55, 28
1, 391125, Note_on_c, 0, 58, 24
1, 391128, Note_on_c, 0, 55, 29
1, 391133, Control_c, 0, 64, 72
1, 391150, Control_c, 0, 64, 50
1, 391169, Control_c, 0, 64, 33
1, 391187, Control_c, 0, 64, 27
1, 391225, Control_c, 0, 64, 34
1, 391244, Control_c, 0, 64, 47
1, 391262, Control_c, 0, 64, 66
1, 391281, Control_c, 0, 64, 85
1, 391297, Note_off_c, 0, 67, 63
1, 391298, Control_c, 0, 64, 127
1, 391341, Note_off_c, 0, 58, 45
1, 391346, Note_off_c, 0, 55, 41
1, 391394, Note_off_c, 0, 51, 39
1, 391399, Note_off_c, 0, 63, 62
1, 391489, Poly_aftertouch_c, 0, 70, 28
1, 391492, Note_on_c, 0, 70, 74
1, 391511, Note_off_c, 0, 46, 37
1, 391586, Note_off_c, 0, 39, 42
1, 391698, Note_off_c, 0, 70, 56
1, 391888, Poly_aftertouch_c, 0, 70, 28
1, 391895, Note_on_c, 0, 70, 68
1, 391907, Poly_aftertouch_c, 0, 46, 28
1, 391912, Poly_aftertouch_c, 0, 34, 28
1, 391914, Poly_aftertouch_c, 0, 58, 28
1, 391917, Control_c, 0, 64, 91
1, 391920, Note_on_c, 0, 34, 38
1, 391921, Poly_aftertouch_c, 0, 56, 28
1, 391924, Note_on_c, 0, 46, 34
1, 391926, Note_on_c, 0, 58, 39
1, 391926, Note_on_c, 0, 56, 42
1, 391929, Poly_aftertouch_c, 0, 62, 28
1, 391933, Note_on_c, 0, 62, 50
1, 391935, Control_c, 0, 64, 66
1, 391954, Control_c, 0, 64, 43
1, 391974, Control_c, 0, 64, 25
1, 391992, Control_c, 0, 64, 21
1, 392029, Control_c, 0, 64, 25
1, 392048, Control_c, 0, 64, 36
1, 392067, Control_c, 0, 64, 53
1, 392085, Control_c, 0, 64, 72
1, 392104, Control_c, 0, 64, 95
1, 392111, Note_off_c, 0, 70, 63
1, 392124, Control_c, 0, 64, 127
1, 392197, Poly_aftertouch_c, 0, 63, 28
1, 392202, Note_on_c, 0, 63, 59
1, 392215, Note_off_c, 0, 58, 37
1, 392238, Note_off_c, 0, 34, 52
1, 392302, Note_off_c, 0, 62, 35
1, 392326, Note_off_c, 0, 46, 52
1, 392446, Poly_aftertouch_c, 0, 65, 28
1, 392454, Note_on_c, 0, 65, 57
1, 392489, Note_off_c, 0, 56, 54
1, 392490, Note_off_c, 0, 63, 47
1, 392535, Note_off_c, 0, 65, 60
1, 392720, Poly_aftertouch_c, 0, 46, 28
1, 392728, Poly_aftertouch_c, 0, 55, 28
1, 392735, Note_on_c, 0, 46, 31
1, 392740, Note_on_c, 0, 55, 38
1, 392748, Poly_aftertouch_c, 0, 51, 28
1, 392753, Note_on_c, 0, 51, 40
1, 392823, Poly_aftertouch_c, 0, 70, 28
1, 392829, Note_on_c, 0, 70, 79
1, 392834, Control_c, 0, 64, 104
1, 392854, Control_c, 0, 64, 74
1, 392857, Poly_aftertouch_c, 0, 63, 28
1, 392863, Note_on_c, 0, 63, 47
1, 392868, Poly_aftertouch_c, 0, 58, 28
1, 392872, Control_c, 0, 64, 50
1, 392881, Note_on_c, 0, 58, 37
1, 392891, Control_c, 0, 64, 31
1, 392910, Control_c, 0, 64, 24
1, 392948, Control_c, 0, 64, 32
1, 392965, Control_c, 0, 64, 46
1, 392985, Control_c, 0, 64, 66
1, 393003, Control_c, 0, 64, 86
1, 393021, Control_c, 0, 64, 127
1, 393055, Note_off_c, 0, 58, 54
1, 393056, Note_off_c, 0, 63, 58
1, 393251, Poly_aftertouch_c, 0, 75, 28
1, 393254, Note_on_c, 0, 75, 79
1, 393270, Note_off_c, 0, 55, 39
1, 393279, Note_off_c, 0, 46, 59
1, 393281, Note_off_c, 0, 70, 58
1, 393324, Note_off_c, 0, 51, 40
1, 393485, Note_off_c, 0, 75, 53
1, 393613, Poly_aftertouch_c, 0, 75, 28
1, 393616, Note_on_c, 0, 75, 80
1, 393646, Poly_aftertouch_c, 0, 44, 28
1, 393652, Poly_aftertouch_c, 0, 51, 28
1, 393654, Note_on_c, 0, 44, 35
1, 393654, Poly_aftertouch_c, 0, 65, 28
1, 393659, Control_c, 0, 64, 89
1, 393660, Poly_aftertouch_c, 0, 53, 28
1, 393661, Note_on_c, 0, 51, 31
1, 393661, Poly_aftertouch_c, 0, 72, 28
1, 393666, Note_on_c, 0, 65, 47
1, 393667, Note_on_c, 0, 72, 49
1, 393668, Note_on_c, 0, 53, 28
1, 393676, Control_c, 0, 64, 63
1, 393695, Control_c, 0, 64, 40
1, 393716, Control_c, 0, 64, 21
1, 393733, Control_c, 0, 64, 14
1, 393790, Control_c, 0, 64, 19
1, 393807, Control_c, 0, 64, 27
1, 393827, Control_c, 0, 64, 39
1, 393845, Control_c, 0, 64, 57
1, 393865, Control_c, 0, 64, 72
1, 393882, Control_c, 0, 64, 89
1, 393901, Control_c, 0, 64, 127
1, 393919, Poly_aftertouch_c, 0, 46, 28
1, 393927, Note_on_c, 0, 46, 46
1, 393927, Poly_aftertouch_c, 0, 67, 28
1, 393933, Note_on_c, 0, 67, 56
1, 393937, Note_off_c, 0, 44, 41
1, 394012, Note_off_c, 0, 46, 48
1, 394055, Poly_aftertouch_c, 0, 53, 24
1, 394098, Note_off_c, 0, 72, 30
1, 394144, Note_off_c, 0, 65, 32
1, 394155, Poly_aftertouch_c, 0, 68, 28
1, 394161, Note_on_c, 0, 68, 61
1, 394165, Note_off_c, 0, 51, 42
1, 394165, Poly_aftertouch_c, 0, 48, 28
1, 394169, Note_on_c, 0, 48, 59
1, 394172, Note_off_c, 0, 67, 60
1, 394183, Note_off_c, 0, 75, 58
1, 394199, Note_off_c, 0, 53, 25
1, 394203, Note_off_c, 0, 68, 65
1, 394215, Note_off_c, 0, 48, 62
1, 394403, Poly_aftertouch_c, 0, 75, 28
1, 394407, Note_on_c, 0, 75, 84
1, 394425, Control_c, 0, 64, 104
1, 394426, Poly_aftertouch_c, 0, 41, 28
1, 394434, Note_on_c, 0, 41, 42
1, 394434, Poly_aftertouch_c, 0, 48, 28
1, 394434, Poly_aftertouch_c, 0, 63, 28
1, 394440, Note_on_c, 0, 48, 43
1, 394441, Note_on_c, 0, 69, 55
1, 394443, Note_on_c, 0, 63, 49
1, 394444, Poly_aftertouch_c, 0, 69, 28
1, 394444, Control_c, 0, 64, 74
1, 394458, Poly_aftertouch_c, 0, 53, 28
1, 394464, Note_on_c, 0, 53, 32
1, 394464, Control_c, 0, 64, 50
1, 394481, Control_c, 0, 64, 24
1, 394520, Control_c, 0, 64, 0
1, 394612, Control_c, 0, 64, 8
1, 394632, Control_c, 0, 64, 17
1, 394650, Control_c, 0, 64, 27
1, 394667, Note_off_c, 0, 69, 59
1, 394670, Control_c, 0, 64, 40
1, 394677, Poly_aftertouch_c, 0, 70, 28
1, 394680, Poly_aftertouch_c, 0, 46, 28
1, 394685, Note_on_c, 0, 70, 58
1, 394686, Note_off_c, 0, 48, 49
1, 394689, Note_on_c, 0, 46, 48
1, 394689, Control_c, 0, 64, 58
1, 394707, Control_c, 0, 64, 72
1, 394725, Control_c, 0, 64, 84
1, 394743, Control_c, 0, 64, 101
1, 394762, Control_c, 0, 64, 127
1, 394828, Poly_aftertouch_c, 0, 41, 24
1, 394868, Note_off_c, 0, 46, 54
1, 394873, Control_c, 0, 67, 8
1, 394904, Note_off_c, 0, 41, 35
1, 394905, Note_off_c, 0, 75, 48
1, 394926, Poly_aftertouch_c, 0, 45, 28
1, 394930, Note_on_c, 0, 45, 53
1, 394934, Note_off_c, 0, 70, 52
1, 394934, Poly_aftertouch_c, 0, 72, 28
1, 394937, Note_on_c, 0, 72, 59
1, 394939, Poly_aftertouch_c, 0, 53, 24
1, 394975, Note_off_c, 0, 63, 47
1, 394977, Note_off_c, 0, 45, 62
1, 394982, Note_off_c, 0, 53, 41
1, 395281, Note_off_c, 0, 72, 58
1, 395288, Control_c, 0, 64, 108
1, 395294, Poly_aftertouch_c, 0, 74, 28
1, 395299, Note_on_c, 0, 74, 60
1, 395301, Poly_aftertouch_c, 0, 70, 28
1, 395305, Poly_aftertouch_c, 0, 46, 28
1, 395306, Control_c, 0, 64, 76
1, 395308, Note_on_c, 0, 70, 51
1, 395316, Note_on_c, 0, 46, 32
1, 395318, Poly_aftertouch_c, 0, 56, 28
1, 395319, Poly_aftertouch_c, 0, 62, 28
1, 395322, Poly_aftertouch_c, 0, 68, 28
1, 395323, Note_on_c, 0, 56, 36
1, 395323, Control_c, 0, 64, 50
1, 395326, Note_on_c, 0, 62, 41
1, 395332, Poly_aftertouch_c, 0, 53, 28
1, 395334, Note_on_c, 0, 68, 38
1, 395339, Note_on_c, 0, 53, 36
1, 395343, Control_c, 0, 64, 25
1, 395363, Control_c, 0, 64, 11
1, 395417, Control_c, 0, 64, 19
1, 395436, Control_c, 0, 64, 33
1, 395444, Note_off_c, 0, 70, 56
1, 395455, Control_c, 0, 64, 54
1, 395465, Note_off_c, 0, 68, 49
1, 395474, Control_c, 0, 64, 77
1, 395482, Note_off_c, 0, 62, 61
1, 395492, Control_c, 0, 64, 111
1, 395504, Note_off_c, 0, 56, 54
1, 395510, Control_c, 0, 64, 127
1, 395524, Note_off_c, 0, 53, 45
1, 395556, Note_off_c, 0, 46, 62
1, 395638, Note_off_c, 0, 74, 59
1, 395651, Poly_aftertouch_c, 0, 75, 28
1, 395659, Note_on_c, 0, 75, 67
1, 395669, Poly_aftertouch_c, 0, 63, 28
1, 395675, Note_on_c, 0, 63, 58
1, 395736, Note_off_c, 0, 63, 52
1, 395752, Note_off_c, 0, 75, 64
1, 395795, Poly_aftertouch_c, 0, 34, 28
1, 395800, Note_on_c, 0, 34, 51
1, 395852, Note_off_c, 0, 34, 61
1, 395928, Note_on_c, 0, 77, 72
1, 395928, Poly_aftertouch_c, 0, 77, 28
1, 395938, Poly_aftertouch_c, 0, 74, 28
1, 395942, Note_on_c, 0, 74, 47
1, 395943, Poly_aftertouch_c, 0, 65, 28
1, 395949, Note_on_c, 0, 65, 41
1, 395964, Poly_aftertouch_c, 0, 68, 28
1, 395984, Note_on_c, 0, 68, 14
1, 396000, Note_off_c, 0, 65, 57
1, 396001, Note_off_c, 0, 74, 57
1, 396001, Note_off_c, 0, 77, 59
1, 396060, Note_off_c, 0, 68, 52
1, 396075, Poly_aftertouch_c, 0, 39, 28
1, 396083, Note_on_c, 0, 39, 55
1, 396162, Poly_aftertouch_c, 0, 46, 28
1, 396173, Note_on_c, 0, 46, 53
1, 396175, Note_off_c, 0, 39, 62
1, 396319, Poly_aftertouch_c, 0, 55, 28
1, 396327, Note_on_c, 0, 55, 50
1, 396334, Control_c, 0, 64, 119
1, 396353, Control_c, 0, 64, 80
1, 396373, Control_c, 0, 64, 55
1, 396387, Poly_aftertouch_c, 0, 70, 28
1, 396391, Control_c, 0, 64, 33
1, 396392, Note_on_c, 0, 70, 76
1, 396408, Poly_aftertouch_c, 0, 67, 28
1, 396409, Control_c, 0, 64, 26
1, 396411, Poly_aftertouch_c, 0, 58, 28
1, 396414, Note_on_c, 0, 67, 54
1, 396421, Note_on_c, 0, 58, 44
1, 396447, Control_c, 0, 64, 36
1, 396466, Control_c, 0, 64, 52
1, 396484, Control_c, 0, 64, 70
1, 396491, Note_off_c, 0, 55, 58
1, 396504, Control_c, 0, 64, 91
1, 396522, Control_c, 0, 64, 127
1, 396595, Note_off_c, 0, 46, 61
1, 396609, Note_off_c, 0, 58, 59
1, 396622, Note_off_c, 0, 67, 53
1, 396749, Poly_aftertouch_c, 0, 39, 28
1, 396759, Note_on_c, 0, 39, 48
1, 396857, Poly_aftertouch_c, 0, 75, 28
1, 396860, Note_on_c, 0, 75, 80
1, 396883, Poly_aftertouch_c, 0, 63, 28
1, 396889, Note_on_c, 0, 63, 50
1, 396897, Note_off_c, 0, 70, 59
1, 396965, Poly_aftertouch_c, 0, 27, 28
1, 396972, Note_on_c, 0, 27, 58
1, 397014, Note_off_c, 0, 27, 64
1, 397082, Note_off_c, 0, 39, 40
1, 397126, Note_off_c, 0, 63, 51
1, 397157, Note_off_c, 0, 75, 52
1, 397288, Poly_aftertouch_c, 0, 75, 28
1, 397292, Note_on_c, 0, 75, 79
1, 397297, Poly_aftertouch_c, 0, 48, 28
1, 397303, Note_on_c, 0, 48, 53
1, 397307, Control_c, 0, 64, 96
1, 397313, Poly_aftertouch_c, 0, 63, 28
1, 397317, Poly_aftertouch_c, 0, 57, 28
1, 397325, Note_on_c, 0, 63, 44
1, 397327, Note_on_c, 0, 57, 47
1, 397327, Poly_aftertouch_c, 0, 55, 28
1, 397327, Control_c, 0, 64, 66
1, 397333, Note_on_c, 0, 55, 52
1, 397334, Poly_aftertouch_c, 0, 72, 28
1, 397339, Note_on_c, 0, 72, 46
1, 397345, Control_c, 0, 64, 41
1, 397360, Poly_aftertouch_c, 0, 51, 28
1, 397364, Control_c, 0, 64, 23
1, 397371, Note_on_c, 0, 51, 7
1, 397412, Note_off_c, 0, 51, 43
1, 397438, Control_c, 0, 64, 32
1, 397458, Control_c, 0, 64, 46
1, 397477, Control_c, 0, 64, 65
1, 397495, Control_c, 0, 64, 81
1, 397514, Control_c, 0, 64, 108
1, 397533, Control_c, 0, 64, 127
1, 397558, Note_off_c, 0, 57, 33
1, 397581, Note_off_c, 0, 72, 50
1, 397587, Poly_aftertouch_c, 0, 70, 28
1, 397592, Poly_aftertouch_c, 0, 58, 28
1, 397596, Note_on_c, 0, 70, 65
1, 397605, Note_on_c, 0, 58, 47
1, 397613, Note_off_c, 0, 48, 35
1, 397699, Note_off_c, 0, 55, 53
1, 397737, Note_off_c, 0, 58, 59
1, 397771, Poly_aftertouch_c, 0, 60, 28
1, 397777, Note_on_c, 0, 60, 58
1, 397791, Note_off_c, 0, 70, 57
1, 397791, Poly_aftertouch_c, 0, 69, 28
1, 397795, Note_on_c, 0, 69, 72
1, 397797, Note_off_c, 0, 75, 62
1, 397815, Note_off_c, 0, 60, 63
1, 397839, Note_off_c, 0, 69, 56
1, 397858, Note_off_c, 0, 63, 26
1, 397885, Poly_aftertouch_c, 0, 43, 28
1, 397888, Note_on_c, 0, 43, 65
1, 397961, Note_off_c, 0, 43, 54
1, 397977, Poly_aftertouch_c, 0, 51, 28
1, 397985, Note_on_c, 0, 51, 63
1, 398076, Control_c, 0, 64, 102
1, 398080, Poly_aftertouch_c, 0, 58, 28
1, 398089, Note_on_c, 0, 58, 67
1, 398094, Control_c, 0, 64, 72
1, 398113, Control_c, 0, 64, 48
1, 398132, Control_c, 0, 64, 35
1, 398153, Poly_aftertouch_c, 0, 75, 28
1, 398157, Note_on_c, 0, 75, 83
1, 398169, Control_c, 0, 64, 42
1, 398181, Poly_aftertouch_c, 0, 63, 28
1, 398181, Poly_aftertouch_c, 0, 70, 28
1, 398187, Note_on_c, 0, 63, 58
1, 398187, Note_on_c, 0, 70, 60
1, 398187, Control_c, 0, 64, 57
1, 398208, Control_c, 0, 64, 73
1, 398225, Control_c, 0, 64, 96
1, 398232, Note_off_c, 0, 58, 63
1, 398244, Control_c, 0, 64, 127
1, 398280, Note_off_c, 0, 63, 58
1, 398287, Note_off_c, 0, 51, 61
1, 398442, Poly_aftertouch_c, 0, 39, 28
1, 398447, Note_on_c, 0, 39, 61
1, 398535, Poly_aftertouch_c, 0, 79, 28
1, 398540, Note_on_c, 0, 79, 88
1, 398546, Poly_aftertouch_c, 0, 67, 28
1, 398552, Note_on_c, 0, 67, 67
1, 398567, Note_off_c, 0, 70, 41
1, 398587, Note_off_c, 0, 75, 29
1, 398622, Poly_aftertouch_c, 0, 27, 28
1, 398626, Note_on_c, 0, 27, 63
1, 398682, Note_off_c, 0, 27, 64
1, 398687, Note_off_c, 0, 39, 36
1, 398748, Note_off_c, 0, 67, 32
1, 398822, Note_off_c, 0, 79, 58
1, 398937, Control_c, 0, 64, 93
1, 398941, Poly_aftertouch_c, 0, 79, 28
1, 398943, Note_on_c, 0, 79, 86
1, 398955, Control_c, 0, 64, 64
1, 398962, Poly_aftertouch_c, 0, 48, 28
1, 398963, Note_on_c, 0, 48, 45
1, 398965, Poly_aftertouch_c, 0, 75, 28
1, 398969, Note_on_c, 0, 75, 62
1, 398970, Note_on_c, 0, 60, 49
1, 398970, Poly_aftertouch_c, 0, 51, 28
1, 398971, Poly_aftertouch_c, 0, 60, 28
1, 398974, Note_on_c, 0, 51, 47
1, 398974, Control_c, 0, 64, 41
1, 398981, Note_on_c, 0, 69, 44
1, 398981, Poly_aftertouch_c, 0, 69, 28
1, 398986, Poly_aftertouch_c, 0, 67, 28
1, 398990, Note_on_c, 0, 67, 46
1, 398992, Control_c, 0, 64, 27
1, 399049, Control_c, 0, 64, 39
1, 399068, Control_c, 0, 64, 57
1, 399087, Control_c, 0, 64, 74
1, 399098, Note_off_c, 0, 48, 49
1, 399103, Note_off_c, 0, 60, 54
1, 399104, Control_c, 0, 64, 96
1, 399125, Control_c, 0, 64, 127
1, 399206, Note_off_c, 0, 51, 55
1, 399255, Poly_aftertouch_c, 0, 46, 28
1, 399257, Note_off_c, 0, 79, 51
1, 399261, Poly_aftertouch_c, 0, 58, 28
1, 399262, Note_on_c, 0, 46, 62
1, 399270, Note_on_c, 0, 58, 51
1, 399270, Poly_aftertouch_c, 0, 70, 28
1, 399276, Note_on_c, 0, 70, 61
1, 399331, Note_off_c, 0, 58, 60
1, 399339, Note_off_c, 0, 46, 49
1, 399360, Note_off_c, 0, 75, 29
1, 399439, Poly_aftertouch_c, 0, 67, 24
1, 399460, Note_on_c, 0, 45, 65
1, 399460, Poly_aftertouch_c, 0, 45, 28
1, 399484, Poly_aftertouch_c, 0, 72, 28
1, 399490, Note_on_c, 0, 72, 66
1, 399496, Poly_aftertouch_c, 0, 57, 28
1, 399500, Note_on_c, 0, 57, 45
1, 399501, Note_off_c, 0, 45, 65
1, 399502, Note_off_c, 0, 67, 33
1, 399508, Note_off_c, 0, 70, 56
1, 399520, Note_off_c, 0, 72, 67
1, 399528, Note_off_c, 0, 69, 33
1, 399545, Note_off_c, 0, 57, 62
1, 399636, Poly_aftertouch_c, 0, 50, 28
1, 399643, Note_on_c, 0, 50, 51
1, 399706, Poly_aftertouch_c, 0, 57, 28
1, 399714, Note_on_c, 0, 57, 47
1, 399798, Control_c, 0, 64, 98
1, 399817, Control_c, 0, 64, 69
1, 399836, Control_c, 0, 64, 46
1, 399840, Poly_aftertouch_c, 0, 78, 28
1, 399845, Note_on_c, 0, 78, 70
1, 399847, Poly_aftertouch_c, 0, 74, 28
1, 399850, Note_on_c, 0, 74, 61
1, 399853, Poly_aftertouch_c, 0, 62, 28
1, 399855, Control_c, 0, 64, 35
1, 399856, Note_on_c, 0, 62, 50
1, 399856, Poly_aftertouch_c, 0, 66, 28
1, 399862, Note_on_c, 0, 66, 46
1, 399892, Control_c, 0, 64, 43
1, 399909, Control_c, 0, 64, 58
1, 399929, Control_c, 0, 64, 76
1, 399948, Control_c, 0, 64, 107
1, 399959, Note_off_c, 0, 74, 59
1, 399966, Control_c, 0, 64, 127
1, 399975, Note_off_c, 0, 62, 60
1, 399993, Note_off_c, 0, 57, 52
1, 400001, Note_off_c, 0, 66, 57
1, 400025, Note_off_c, 0, 50, 62
1, 400101, Note_off_c, 0, 78, 62
1, 400177, Poly_aftertouch_c, 0, 79, 28
1, 400183, Note_on_c, 0, 79, 71
1, 400187, Poly_aftertouch_c, 0, 76, 28
1, 400191, Note_on_c, 0, 76, 67
1, 400203, Poly_aftertouch_c, 0, 67, 28
1, 400208, Note_on_c, 0, 67, 50
1, 400240, Note_off_c, 0, 67, 54
1, 400260, Poly_aftertouch_c, 0, 38, 28
1, 400265, Note_on_c, 0, 38, 62
1, 400275, Note_off_c, 0, 76, 61
1, 400291, Poly_aftertouch_c, 0, 50, 28
1, 400302, Note_on_c, 0, 50, 38
1, 400305, Note_off_c, 0, 38, 63
1, 400353, Note_off_c, 0, 50, 50
1, 400399, Note_off_c, 0, 79, 59
1, 400404, Poly_aftertouch_c, 0, 78, 28
1, 400404, Poly_aftertouch_c, 0, 81, 28
1, 400407, Note_on_c, 0, 81, 78
1, 400411, Note_on_c, 0, 78, 72
1, 400413, Poly_aftertouch_c, 0, 69, 28
1, 400417, Note_on_c, 0, 69, 66
1, 400448, Note_off_c, 0, 78, 65
1, 400453, Note_off_c, 0, 69, 61
1, 400509, Poly_aftertouch_c, 0, 55, 28
1, 400517, Note_on_c, 0, 55, 60
1, 400528, Control_c, 0, 64, 88
1, 400547, Control_c, 0, 64, 62
1, 400563, Poly_aftertouch_c, 0, 62, 28
1, 400566, Control_c, 0, 64, 51
1, 400568, Note_on_c, 0, 62, 54
1, 400584, Control_c, 0, 64, 55
1, 400603, Control_c, 0, 64, 62
1, 400609, Poly_aftertouch_c, 0, 67, 28
1, 400616, Note_on_c, 0, 67, 64
1, 400617, Poly_aftertouch_c, 0, 70, 28
1, 400618, Poly_aftertouch_c, 0, 82, 28
1, 400621, Note_on_c, 0, 82, 74
1, 400621, Note_on_c, 0, 70, 76
1, 400621, Control_c, 0, 64, 73
1, 400625, Poly_aftertouch_c, 0, 79, 28
1, 400626, Note_off_c, 0, 81, 64
1, 400632, Note_on_c, 0, 79, 64
1, 400639, Control_c, 0, 64, 95
1, 400652, Note_off_c, 0, 67, 66
1, 400656, Note_off_c, 0, 62, 61
1, 400658, Control_c, 0, 64, 127
1, 400687, Note_off_c, 0, 55, 62
1, 400697, Note_off_c, 0, 79, 63
1, 400710, Note_off_c, 0, 70, 63
1, 400757, Note_off_c, 0, 82, 64
1, 400826, Poly_aftertouch_c, 0, 81, 28
1, 400826, Poly_aftertouch_c, 0, 84, 28
1, 400827, Note_on_c, 0, 81, 81
1, 400828, Note_on_c, 0, 84, 81
1, 400831, Note_on_c, 0, 72, 80
1, 400833, Poly_aftertouch_c, 0, 72, 28
1, 400886, Poly_aftertouch_c, 0, 31, 28
1, 400889, Note_on_c, 0, 31, 74
1, 400893, Note_off_c, 0, 72, 57
1, 400918, Poly_aftertouch_c, 0, 43, 28
1, 400921, Note_off_c, 0, 81, 60
1, 400924, Note_off_c, 0, 31, 65
1, 400924, Note_on_c, 0, 43, 30
1, 400976, Note_off_c, 0, 43, 43
1, 400986, Note_off_c, 0, 84, 61
1, 401029, Poly_aftertouch_c, 0, 86, 28
1, 401031, Note_on_c, 0, 86, 88
1, 401035, Poly_aftertouch_c, 0, 74, 28
1, 401035, Poly_aftertouch_c, 0, 82, 28
1, 401037, Note_on_c, 0, 82, 83
1, 401038, Note_on_c, 0, 74, 80
1, 401075, Note_off_c, 0, 74, 58
1, 401098, Note_off_c, 0, 82, 65
1, 401124, Note_off_c, 0, 86, 63
1, 401160, Poly_aftertouch_c, 0, 48, 28
1, 401166, Note_on_c, 0, 48, 62
1, 401219, Poly_aftertouch_c, 0, 55, 28
1, 401226, Note_on_c, 0, 55, 61
1, 401295, Control_c, 0, 64, 80
1, 401299, Poly_aftertouch_c, 0, 60, 28
1, 401303, Poly_aftertouch_c, 0, 89, 28
1, 401306, Note_on_c, 0, 60, 61
1, 401306, Note_on_c, 0, 89, 87
1, 401310, Poly_aftertouch_c, 0, 84, 28
1, 401312, Note_on_c, 0, 84, 70
1, 401315, Control_c, 0, 64, 51
1, 401323, Note_on_c, 0, 79, 58
1, 401324, Poly_aftertouch_c, 0, 79, 28
1, 401329, Note_on_c, 0, 77, 66
1, 401329, Poly_aftertouch_c, 0, 77, 28
1, 401333, Control_c, 0, 64, 25
1, 401351, Control_c, 0, 64, 17
1, 401387, Note_off_c, 0, 77, 55
1, 401388, Control_c, 0, 64, 28
1, 401396, Note_off_c, 0, 79, 60
1, 401408, Control_c, 0, 64, 47
1, 401426, Control_c, 0, 64, 76
1, 401446, Control_c, 0, 64, 127
1, 401453, Note_off_c, 0, 48, 60
1, 401460, Note_off_c, 0, 89, 63
1, 401496, Note_off_c, 0, 60, 59
1, 401500, Note_off_c, 0, 55, 58
1, 401553, Note_off_c, 0, 84, 61
1, 401573, Poly_aftertouch_c, 0, 87, 28
1, 401575, Note_on_c, 0, 87, 86
1, 401578, Poly_aftertouch_c, 0, 75, 28
1, 401585, Note_on_c, 0, 75, 73
1, 401652, Poly_aftertouch_c, 0, 63, 28
1, 401657, Poly_aftertouch_c, 0, 51, 28
1, 401659, Note_on_c, 0, 51, 68
1, 401660, Note_on_c, 0, 63, 74
1, 401674, Note_off_c, 0, 75, 53
1, 401699, Note_off_c, 0, 87, 65
1, 401705, Note_off_c, 0, 51, 62
1, 401724, Note_off_c, 0, 63, 54
1, 401795, Poly_aftertouch_c, 0, 86, 28
1, 401797, Note_on_c, 0, 86, 86
1, 401807, Poly_aftertouch_c, 0, 82, 28
1, 401809, Note_on_c, 0, 82, 72
1, 401811, Poly_aftertouch_c, 0, 74, 28
1, 401814, Note_on_c, 0, 74, 76
1, 401858, Note_off_c, 0, 82, 60
1, 401870, Note_off_c, 0, 74, 59
1, 401881, Note_off_c, 0, 86, 64
1, 401925, Poly_aftertouch_c, 0, 53, 28
1, 401930, Note_on_c, 0, 53, 61
1, 401973, Poly_aftertouch_c, 0, 57, 28
1, 401982, Note_on_c, 0, 57, 39
1, 401995, Poly_aftertouch_c, 0, 60, 28
1, 402001, Note_on_c, 0, 60, 50
1, 402073, Poly_aftertouch_c, 0, 63, 28
1, 402078, Note_on_c, 0, 63, 48
1, 402101, Control_c, 0, 64, 80
1, 402119, Control_c, 0, 64, 52
1, 402129, Poly_aftertouch_c, 0, 81, 28
1, 402129, Poly_aftertouch_c, 0, 84, 28
1, 402134, Note_on_c, 0, 84, 72
1, 402135, Note_on_c, 0, 81, 63
1, 402139, Control_c, 0, 64, 27
1, 402140, Note_on_c, 0, 72, 63
1, 402142, Note_on_c, 0, 75, 62
1, 402142, Poly_aftertouch_c, 0, 65, 28
1, 402143, Poly_aftertouch_c, 0, 72, 28
1, 402143, Poly_aftertouch_c, 0, 75, 28
1, 402146, Note_on_c, 0, 65, 56
1, 402157, Control_c, 0, 64, 17
1, 402194, Control_c, 0, 64, 27
1, 402213, Control_c, 0, 64, 44
1, 402231, Control_c, 0, 64, 70
1, 402234, Note_off_c, 0, 65, 59
1, 402247, Note_off_c, 0, 60, 59
1, 402247, Note_off_c, 0, 63, 60
1, 402249, Control_c, 0, 64, 107
1, 402269, Control_c, 0, 64, 127
1, 402294, Note_off_c, 0, 57, 40
1, 402309, Note_off_c, 0, 53, 53
1, 402333, Note_off_c, 0, 72, 56
1, 402363, Note_off_c, 0, 84, 60
1, 402378, Note_off_c, 0, 81, 60
1, 402397, Note_off_c, 0, 75, 62
1, 402485, Poly_aftertouch_c, 0, 86, 28
1, 402490, Note_on_c, 0, 86, 74
1, 402508, Poly_aftertouch_c, 0, 74, 28
1, 402510, Note_on_c, 0, 74, 52
1, 402543, Note_off_c, 0, 86, 60
1, 402579, Poly_aftertouch_c, 0, 29, 28
1, 402582, Note_off_c, 0, 74, 57
1, 402586, Note_on_c, 0, 29, 56
1, 402670, Note_off_c, 0, 29, 62
1, 402770, Poly_aftertouch_c, 0, 84, 28
1, 402774, Note_on_c, 0, 84, 71
1, 402785, Poly_aftertouch_c, 0, 81, 28
1, 402787, Note_on_c, 0, 81, 59
1, 402790, Poly_aftertouch_c, 0, 75, 28
1, 402802, Note_on_c, 0, 75, 45
1, 402802, Poly_aftertouch_c, 0, 72, 28
1, 402805, Note_on_c, 0, 72, 45
1, 402850, Note_off_c, 0, 84, 57
1, 402900, Note_off_c, 0, 75, 53
1, 402908, Note_off_c, 0, 72, 56
1, 402908, Note_off_c, 0, 81, 57
1, 403197, Poly_aftertouch_c, 0, 45, 28
1, 403197, Poly_aftertouch_c, 0, 50, 28
1, 403204, Poly_aftertouch_c, 0, 57, 28
1, 403206, Note_on_c, 0, 45, 39
1, 403208, Note_on_c, 0, 50, 46
1, 403211, Note_on_c, 0, 57, 42
1, 403219, Poly_aftertouch_c, 0, 53, 28
1, 403223, Note_on_c, 0, 53, 41
1, 403261, Control_c, 0, 64, 98
1, 403270, Poly_aftertouch_c, 0, 77, 28
1, 403272, Note_on_c, 0, 77, 81
1, 403278, Control_c, 0, 64, 68
1, 403298, Control_c, 0, 64, 41
1, 403304, Poly_aftertouch_c, 0, 65, 28
1, 403309, Note_on_c, 0, 65, 55
1, 403311, Poly_aftertouch_c, 0, 74, 28
1, 403313, Note_on_c, 0, 74, 59
1, 403316, Control_c, 0, 64, 18
1, 403335, Control_c, 0, 64, 11
1, 403392, Control_c, 0, 64, 22
1, 403410, Control_c, 0, 64, 35
1, 403430, Control_c, 0, 64, 56
1, 403447, Control_c, 0, 64, 80
1, 403448, Note_off_c, 0, 50, 49
1, 403452, Note_off_c, 0, 45, 55
1, 403453, Note_off_c, 0, 57, 60
1, 403467, Control_c, 0, 64, 127
1, 403515, Note_off_c, 0, 53, 57
1, 403629, Poly_aftertouch_c, 0, 58, 28
1, 403635, Poly_aftertouch_c, 0, 46, 28
1, 403636, Note_on_c, 0, 46, 62
1, 403639, Note_on_c, 0, 58, 60
1, 403694, Note_off_c, 0, 58, 60
1, 403710, Note_off_c, 0, 46, 55
1, 403755, Note_off_c, 0, 65, 60
1, 403767, Note_off_c, 0, 74, 59
1, 403820, Note_off_c, 0, 77, 61
1, 403837, Poly_aftertouch_c, 0, 48, 28
1, 403840, Note_on_c, 0, 48, 61
1, 403843, Poly_aftertouch_c, 0, 60, 28
1, 403845, Note_on_c, 0, 60, 54
1, 403876, Note_off_c, 0, 48, 62
1, 403877, Note_off_c, 0, 60, 57
1, 403972, Poly_aftertouch_c, 0, 46, 28
1, 403977, Note_on_c, 0, 46, 69
1, 404041, Poly_aftertouch_c, 0, 51, 28
1, 404050, Note_on_c, 0, 51, 39
1, 404090, Poly_aftertouch_c, 0, 55, 28
1, 404097, Note_on_c, 0, 55, 44
1, 404110, Poly_aftertouch_c, 0, 58, 28
1, 404118, Note_on_c, 0, 58, 56
1, 404121, Control_c, 0, 64, 99
1, 404140, Control_c, 0, 64, 68
1, 404152, Poly_aftertouch_c, 0, 79, 28
1, 404156, Note_on_c, 0, 79, 76
1, 404158, Poly_aftertouch_c, 0, 75, 28
1, 404159, Control_c, 0, 64, 43
1, 404165, Note_on_c, 0, 75, 59
1, 404170, Poly_aftertouch_c, 0, 67, 28
1, 404177, Note_on_c, 0, 67, 50
1, 404178, Control_c, 0, 64, 28
1, 404234, Control_c, 0, 64, 42
1, 404241, Note_off_c, 0, 55, 59
1, 404252, Control_c, 0, 64, 62
1, 404253, Note_off_c, 0, 58, 64
1, 404272, Control_c, 0, 64, 82
1, 404290, Control_c, 0, 64, 127
1, 404300, Note_off_c, 0, 51, 59
1, 404323, Note_off_c, 0, 79, 59
1, 404342, Note_off_c, 0, 46, 60
1, 404370, Note_off_c, 0, 75, 63
1, 404370, Note_off_c, 0, 67, 36
1, 404439, Note_on_c, 0, 77, 80
1, 404440, Poly_aftertouch_c, 0, 74, 28
1, 404440, Poly_aftertouch_c, 0, 77, 28
1, 404444, Note_on_c, 0, 74, 70
1, 404459, Poly_aftertouch_c, 0, 65, 28
1, 404465, Note_on_c, 0, 65, 45
1, 404527, Note_off_c, 0, 65, 60
1, 404529, Poly_aftertouch_c, 0, 27, 28
1, 404530, Poly_aftertouch_c, 0, 39, 28
1, 404535, Note_on_c, 0, 27, 74
1, 404538, Note_on_c, 0, 39, 60
1, 404543, Note_off_c, 0, 77, 61
1, 404571, Note_off_c, 0, 74, 59
1, 404571, Poly_aftertouch_c, 0, 67, 28
1, 404571, Poly_aftertouch_c, 0, 67, 0
1, 404574, Note_off_c, 0, 27, 65
1, 404604, Note_off_c, 0, 39, 59
1, 404655, Poly_aftertouch_c, 0, 75, 28
1, 404659, Note_on_c, 0, 75, 85
1, 404666, Poly_aftertouch_c, 0, 72, 28
1, 404668, Note_on_c, 0, 72, 76
1, 404671, Poly_aftertouch_c, 0, 63, 28
1, 404673, Note_on_c, 0, 63, 74
1, 404751, Note_off_c, 0, 63, 61
1, 404846, Note_off_c, 0, 75, 62
1, 404849, Control_c, 0, 64, 112
1, 404871, Control_c, 0, 64, 75
1, 404878, Poly_aftertouch_c, 0, 45, 28
1, 404881, Poly_aftertouch_c, 0, 74, 28
1, 404884, Note_on_c, 0, 74, 80
1, 404887, Note_on_c, 0, 45, 52
1, 404890, Note_on_c, 0, 77, 88
1, 404890, Control_c, 0, 64, 48
1, 404891, Poly_aftertouch_c, 0, 50, 28
1, 404892, Poly_aftertouch_c, 0, 53, 28
1, 404892, Poly_aftertouch_c, 0, 57, 28
1, 404894, Note_on_c, 0, 65, 78
1, 404897, Note_on_c, 0, 50, 46
1, 404898, Note_on_c, 0, 53, 50
1, 404898, Note_on_c, 0, 57, 53
1, 404898, Poly_aftertouch_c, 0, 65, 28
1, 404899, Note_off_c, 0, 72, 58
1, 404899, Poly_aftertouch_c, 0, 77, 28
1, 404921, Control_c, 0, 64, 22
1, 404927, Control_c, 0, 64, 12
1, 404982, Control_c, 0, 64, 24
1, 404995, Note_off_c, 0, 45, 59
1, 405000, Control_c, 0, 64, 37
1, 405004, Note_off_c, 0, 57, 61
1, 405020, Control_c, 0, 64, 58
1, 405035, Note_off_c, 0, 50, 59
1, 405038, Control_c, 0, 64, 79
1, 405058, Control_c, 0, 64, 114
1, 405076, Control_c, 0, 64, 127
1, 405134, Poly_aftertouch_c, 0, 46, 28
1, 405135, Poly_aftertouch_c, 0, 58, 28
1, 405142, Note_on_c, 0, 46, 76
1, 405143, Note_on_c, 0, 58, 74
1, 405188, Note_off_c, 0, 65, 60
1, 405201, Note_off_c, 0, 53, 34
1, 405249, Note_off_c, 0, 77, 48
1, 405252, Note_off_c, 0, 58, 61
1, 405256, Note_off_c, 0, 46, 61
1, 405323, Poly_aftertouch_c, 0, 76, 28
1, 405325, Poly_aftertouch_c, 0, 76, 0
1, 405341, Note_off_c, 0, 74, 56
1, 405386, Poly_aftertouch_c, 0, 60, 28
1, 405390, Note_on_c, 0, 60, 80
1, 405390, Note_on_c, 0, 48, 78
1, 405391, Poly_aftertouch_c, 0, 48, 28
1, 405433, Note_off_c, 0, 48, 61
1, 405448, Note_off_c, 0, 60, 56
1, 405556, Poly_aftertouch_c, 0, 46, 28
1, 405564, Note_on_c, 0, 46, 62
1, 405624, Poly_aftertouch_c, 0, 51, 28
1, 405632, Note_on_c, 0, 51, 50
1, 405656, Poly_aftertouch_c, 0, 55, 28
1, 405663, Note_on_c, 0, 55, 53
1, 405769, Control_c, 0, 64, 97
1, 405783, Poly_aftertouch_c, 0, 58, 28
1, 405787, Control_c, 0, 64, 64
1, 405793, Note_on_c, 0, 58, 57
1, 405802, Poly_aftertouch_c, 0, 79, 28
1, 405803, Poly_aftertouch_c, 0, 87, 28
1, 405807, Note_on_c, 0, 87, 84
1, 405807, Control_c, 0, 64, 30
1, 405808, Note_on_c, 0, 79, 71
1, 405815, Poly_aftertouch_c, 0, 75, 28
1, 405820, Note_on_c, 0, 75, 63
1, 405825, Control_c, 0, 64, 0
1, 405900, Control_c, 0, 64, 21
1, 405917, Note_off_c, 0, 79, 62
1, 405917, Control_c, 0, 64, 42
1, 405937, Control_c, 0, 64, 73
1, 405947, Note_off_c, 0, 55, 60
1, 405950, Poly_aftertouch_c, 0, 85, 28
1, 405956, Control_c, 0, 64, 121
1, 405959, Note_off_c, 0, 58, 62
1, 405959, Note_on_c, 0, 85, 38
1, 405975, Control_c, 0, 64, 127
1, 405989, Note_off_c, 0, 51, 59
1, 406008, Note_off_c, 0, 87, 63
1, 406020, Note_off_c, 0, 85, 45
1, 406024, Note_off_c, 0, 46, 61
1, 406047, Note_off_c, 0, 75, 62
1, 406177, Poly_aftertouch_c, 0, 86, 28
1, 406182, Note_on_c, 0, 86, 76
1, 406190, Poly_aftertouch_c, 0, 77, 28
1, 406194, Note_on_c, 0, 77, 63
1, 406200, Poly_aftertouch_c, 0, 74, 28
1, 406203, Note_on_c, 0, 74, 56
1, 406288, Note_off_c, 0, 74, 52
1, 406291, Poly_aftertouch_c, 0, 27, 28
1, 406292, Poly_aftertouch_c, 0, 39, 28
1, 406295, Note_off_c, 0, 77, 59
1, 406295, Note_on_c, 0, 27, 61
1, 406299, Note_on_c, 0, 39, 52
1, 406308, Note_off_c, 0, 86, 45
1, 406340, Note_off_c, 0, 27, 63
1, 406409, Note_off_c, 0, 39, 61
1, 406445, Poly_aftertouch_c, 0, 84, 28
1, 406451, Note_on_c, 0, 84, 79
1, 406456, Poly_aftertouch_c, 0, 75, 28
1, 406460, Note_on_c, 0, 75, 68
1, 406467, Poly_aftertouch_c, 0, 72, 28
1, 406470, Note_on_c, 0, 72, 58
1, 406536, Note_off_c, 0, 84, 63
1, 406562, Note_off_c, 0, 72, 56
1, 406578, Note_off_c, 0, 75, 62
1, 406874, Control_c, 0, 64, 104
1, 406876, Poly_aftertouch_c, 0, 77, 28
1, 406881, Note_on_c, 0, 77, 75
1, 406892, Control_c, 0, 64, 70
1, 406900, Poly_aftertouch_c, 0, 65, 28
1, 406901, Poly_aftertouch_c, 0, 74, 28
1, 406905, Note_on_c, 0, 74, 53
1, 406906, Poly_aftertouch_c, 0, 45, 28
1, 406907, Poly_aftertouch_c, 0, 50, 28
1, 406908, Poly_aftertouch_c, 0, 57, 28
1, 406911, Note_on_c, 0, 65, 48
1, 406911, Control_c, 0, 64, 43
1, 406916, Note_on_c, 0, 45, 32
1, 406916, Note_on_c, 0, 57, 37
1, 406916, Poly_aftertouch_c, 0, 53, 28
1, 406922, Note_on_c, 0, 50, 36
1, 406923, Note_on_c, 0, 53, 36
1, 406929, Control_c, 0, 64, 18
1, 406948, Control_c, 0, 64, 8
1, 407004, Control_c, 0, 64, 12
1, 407023, Control_c, 0, 64, 22
1, 407042, Control_c, 0, 64, 37
1, 407060, Control_c, 0, 64, 61
1, 407062, Note_off_c, 0, 45, 56
1, 407068, Note_off_c, 0, 57, 56
1, 407080, Control_c, 0, 64, 83
1, 407093, Note_off_c, 0, 50, 48
1, 407096, Control_c, 0, 64, 127
1, 407237, Poly_aftertouch_c, 0, 46, 28
1, 407243, Note_on_c, 0, 46, 56
1, 407244, Poly_aftertouch_c, 0, 58, 28
1, 407249, Note_on_c, 0, 58, 53
1, 407254, Note_off_c, 0, 53, 30
1, 407256, Note_off_c, 0, 74, 61
1, 407264, Note_off_c, 0, 65, 59
1, 407305, Note_off_c, 0, 46, 58
1, 407313, Note_off_c, 0, 58, 59
1, 407458, Poly_aftertouch_c, 0, 48, 28
1, 407462, Note_on_c, 0, 48, 59
1, 407465, Poly_aftertouch_c, 0, 60, 28
1, 407467, Note_on_c, 0, 60, 52
1, 407500, Note_off_c, 0, 60, 55
1, 407505, Note_off_c, 0, 48, 60
1, 407780, Poly_aftertouch_c, 0, 82, 28
1, 407786, Poly_aftertouch_c, 0, 70, 28
1, 407790, Note_on_c, 0, 82, 62
1, 407790, Poly_aftertouch_c, 0, 46, 28
1, 407790, Control_c, 0, 64, 101
1, 407799, Note_on_c, 0, 70, 43
1, 407803, Note_on_c, 0, 46, 39
1, 407804, Poly_aftertouch_c, 0, 58, 28
1, 407809, Control_c, 0, 64, 72
1, 407814, Note_on_c, 0, 58, 37
1, 407824, Poly_aftertouch_c, 0, 50, 28
1, 407828, Control_c, 0, 64, 48
1, 407836, Note_on_c, 0, 50, 37
1, 407840, Note_off_c, 0, 77, 48
1, 407845, Control_c, 0, 64, 22
1, 407941, Control_c, 0, 64, 11
1, 407959, Control_c, 0, 64, 21
1, 407978, Control_c, 0, 64, 35
1, 407996, Control_c, 0, 64, 58
1, 408015, Control_c, 0, 64, 81
1, 408034, Control_c, 0, 64, 127
1, 408136, Note_off_c, 0, 82, 58
1, 408201, Note_off_c, 0, 50, 41
1, 408201, Control_c, 0, 67, 13
1, 408205, Note_off_c, 0, 46, 40
1, 408254, Note_off_c, 0, 70, 59
1, 408279, Note_off_c, 0, 58, 31
1, 408314, Control_c, 0, 67, 17
1, 408371, Control_c, 0, 67, 21
1, 408389, Control_c, 0, 67, 28
1, 408408, Control_c, 0, 67, 38
1, 408427, Control_c, 0, 67, 46
1, 408446, Control_c, 0, 67, 52
1, 408466, Control_c, 0, 67, 57
1, 408483, Control_c, 0, 67, 61
1, 408503, Control_c, 0, 67, 66
1, 408521, Control_c, 0, 67, 72
1, 408539, Control_c, 0, 67, 78
1, 408558, Control_c, 0, 67, 83
1, 408577, Control_c, 0, 67, 88
1, 408595, Control_c, 0, 67, 92
1, 408624, Poly_aftertouch_c, 0, 46, 28
1, 408632, Control_c, 0, 67, 99
1, 408643, Note_on_c, 0, 46, 24
1, 408654, Poly_aftertouch_c, 0, 51, 28
1, 408663, Note_on_c, 0, 51, 40
1, 408667, Control_c, 0, 67, 106
1, 408682, Poly_aftertouch_c, 0, 57, 28
1, 408690, Note_on_c, 0, 57, 39
1, 408708, Control_c, 0, 67, 112
1, 408745, Control_c, 0, 67, 119
1, 408758, Poly_aftertouch_c, 0, 70, 28
1, 408763, Control_c, 0, 64, 89
1, 408765, Note_on_c, 0, 70, 67
1, 408783, Control_c, 0, 64, 62
1, 408784, Control_c, 0, 67, 124
1, 408795, Poly_aftertouch_c, 0, 60, 28
1, 408801, Note_on_c, 0, 60, 46
1, 408801, Control_c, 0, 64, 38
1, 408820, Control_c, 0, 64, 19
1, 408839, Control_c, 0, 64, 14
1, 408896, Control_c, 0, 64, 21
1, 408914, Control_c, 0, 64, 33
1, 408931, Control_c, 0, 64, 52
1, 408951, Control_c, 0, 64, 75
1, 408955, Note_off_c, 0, 46, 55
1, 408970, Control_c, 0, 64, 104
1, 408987, Note_off_c, 0, 51, 58
1, 408988, Control_c, 0, 64, 127
1, 409177, Poly_aftertouch_c, 0, 58, 28
1, 409177, Poly_aftertouch_c, 0, 62, 28
1, 409185, Note_on_c, 0, 62, 47
1, 409186, Note_on_c, 0, 58, 46
1, 409198, Note_off_c, 0, 57, 41
1, 409213, Control_c, 0, 64, 93
1, 409232, Control_c, 0, 64, 74
1, 409245, Note_off_c, 0, 60, 40
1, 409250, Control_c, 0, 64, 68
1, 409270, Control_c, 0, 64, 72
1, 409288, Control_c, 0, 64, 82
1, 409308, Control_c, 0, 64, 112
1, 409325, Control_c, 0, 64, 127
1, 409326, Note_off_c, 0, 62, 60
1, 409511, Note_off_c, 0, 58, 36
1, 409512, Poly_aftertouch_c, 0, 63, 28
1, 409520, Note_on_c, 0, 63, 49
1, 409534, Poly_aftertouch_c, 0, 60, 28
1, 409538, Note_on_c, 0, 60, 43
1, 409577, Note_off_c, 0, 60, 56
1, 409588, Note_off_c, 0, 63, 57
1, 409618, Note_off_c, 0, 70, 59
1, 410053, Poly_aftertouch_c, 0, 70, 28
1, 410064, Note_on_c, 0, 70, 47
1, 410073, Poly_aftertouch_c, 0, 46, 28
1, 410074, Poly_aftertouch_c, 0, 62, 28
1, 410081, Poly_aftertouch_c, 0, 56, 28
1, 410085, Note_on_c, 0, 62, 28
1, 410085, Poly_aftertouch_c, 0, 65, 28
1, 410086, Note_on_c, 0, 56, 34
1, 410089, Note_on_c, 0, 46, 27
1, 410090, Note_on_c, 0, 65, 34
1, 410091, Note_on_c, 0, 53, 31
1, 410091, Poly_aftertouch_c, 0, 53, 28
1, 410112, Control_c, 0, 64, 99
1, 410130, Control_c, 0, 64, 76
1, 410150, Control_c, 0, 64, 57
1, 410168, Control_c, 0, 64, 38
1, 410186, Control_c, 0, 64, 18
1, 410337, Control_c, 0, 64, 10
1, 410355, Control_c, 0, 64, 18
1, 410374, Control_c, 0, 64, 27
1, 410392, Control_c, 0, 64, 39
1, 410411, Control_c, 0, 64, 57
1, 410430, Control_c, 0, 64, 72
1, 410449, Control_c, 0, 64, 85
1, 410467, Control_c, 0, 64, 99
1, 410486, Control_c, 0, 64, 118
1, 410504, Control_c, 0, 64, 127
1, 410609, Note_off_c, 0, 53, 36
1, 410618, Note_off_c, 0, 70, 50
1, 410626, Note_off_c, 0, 65, 47
1, 410652, Note_off_c, 0, 56, 35
1, 410706, Note_off_c, 0, 62, 46
1, 410710, Control_c, 0, 67, 119
1, 410749, Control_c, 0, 67, 114
1, 410786, Control_c, 0, 67, 107
1, 410820, Note_off_c, 0, 46, 42
1, 410821, Control_c, 0, 67, 101
1, 410861, Control_c, 0, 67, 95
1, 411290, Poly_aftertouch_c, 0, 67, 28
1, 411294, Poly_aftertouch_c, 0, 55, 28
1, 411300, Note_on_c, 0, 67, 36
1, 411301, Poly_aftertouch_c, 0, 51, 28
1, 411301, Poly_aftertouch_c, 0, 58, 28
1, 411302, Note_on_c, 0, 55, 40
1, 411307, Note_on_c, 0, 51, 57
1, 411317, Note_on_c, 0, 58, 36
1, 411319, Poly_aftertouch_c, 0, 46, 28
1, 411324, Poly_aftertouch_c, 0, 39, 28
1, 411334, Note_on_c, 0, 39, 26
1, 411335, Note_on_c, 0, 46, 27
1, 411347, Control_c, 0, 64, 93
1, 411367, Control_c, 0, 64, 72
1, 411385, Control_c, 0, 64, 53
1, 411403, Control_c, 0, 64, 38
1, 411422, Control_c, 0, 64, 28
1, 411515, Note_off_c, 0, 46, 0
1, 411516, Poly_aftertouch_c, 0, 46, 28
1, 411534, Control_c, 0, 64, 38
1, 411553, Control_c, 0, 64, 52
1, 411572, Control_c, 0, 64, 69
1, 411591, Control_c, 0, 64, 84
1, 411610, Control_c, 0, 64, 111
1, 411628, Control_c, 0, 64, 127
1, 411733, Poly_aftertouch_c, 0, 46, 24
1, 411777, Note_off_c, 0, 67, 39
1, 411777, Poly_aftertouch_c, 0, 46, 0
1, 411814, Note_off_c, 0, 58, 38
1, 411856, Note_off_c, 0, 39, 40
1, 411897, Note_off_c, 0, 55, 37
1, 411955, Note_off_c, 0, 51, 46
1, 412152, Poly_aftertouch_c, 0, 50, 28
1, 412161, Note_on_c, 0, 50, 57
1, 412181, Poly_aftertouch_c, 0, 55, 28
1, 412186, Poly_aftertouch_c, 0, 38, 28
1, 412188, Control_c, 0, 64, 114
1, 412191, Note_on_c, 0, 55, 39
1, 412191, Note_on_c, 0, 38, 36
1, 412191, Poly_aftertouch_c, 0, 46, 28
1, 412192, Poly_aftertouch_c, 0, 67, 28
1, 412196, Poly_aftertouch_c, 0, 58, 28
1, 412200, Note_on_c, 0, 46, 41
1, 412202, Note_on_c, 0, 67, 30
1, 412207, Control_c, 0, 64, 83
1, 412209, Note_on_c, 0, 58, 37
1, 412227, Control_c, 0, 64, 67
1, 412245, Control_c, 0, 64, 62
1, 412264, Control_c, 0, 64, 65
1, 412282, Control_c, 0, 64, 71
1, 412302, Control_c, 0, 64, 81
1, 412310, Note_off_c, 0, 38, 52
1, 412322, Control_c, 0, 64, 102
1, 412339, Control_c, 0, 64, 127
1, 412349, Note_off_c, 0, 50, 61
1, 412477, Poly_aftertouch_c, 0, 51, 28
1, 412482, Note_on_c, 0, 51, 63
1, 412486, Poly_aftertouch_c, 0, 39, 28
1, 412495, Note_on_c, 0, 39, 49
1, 412544, Note_off_c, 0, 46, 54
1, 412564, Note_off_c, 0, 39, 63
1, 412586, Note_off_c, 0, 51, 61
1, 412688, Poly_aftertouch_c, 0, 53, 28
1, 412692, Note_on_c, 0, 53, 70
1, 412706, Poly_aftertouch_c, 0, 41, 28
1, 412709, Note_on_c, 0, 41, 52
1, 412743, Note_off_c, 0, 55, 42
1, 412747, Note_off_c, 0, 58, 36
1, 412751, Note_off_c, 0, 41, 61
1, 412760, Note_off_c, 0, 53, 53
1, 412950, Poly_aftertouch_c, 0, 46, 28
1, 412950, Poly_aftertouch_c, 0, 51, 28
1, 412955, Note_on_c, 0, 51, 46
1, 412959, Note_on_c, 0, 46, 44
1, 412968, Poly_aftertouch_c, 0, 39, 28
1, 412978, Note_on_c, 0, 39, 38
1, 413030, Poly_aftertouch_c, 0, 63, 28
1, 413036, Note_on_c, 0, 63, 81
1, 413051, Control_c, 0, 64, 85
1, 413069, Poly_aftertouch_c, 0, 55, 28
1, 413069, Control_c, 0, 64, 59
1, 413072, Note_on_c, 0, 55, 46
1, 413084, Poly_aftertouch_c, 0, 58, 28
1, 413086, Control_c, 0, 64, 33
1, 413099, Note_on_c, 0, 58, 35
1, 413107, Control_c, 0, 64, 13
1, 413182, Control_c, 0, 64, 25
1, 413200, Control_c, 0, 64, 42
1, 413205, Note_off_c, 0, 67, 56
1, 413219, Control_c, 0, 64, 67
1, 413238, Control_c, 0, 64, 96
1, 413258, Control_c, 0, 64, 127
1, 413273, Note_off_c, 0, 58, 51
1, 413315, Note_off_c, 0, 55, 52
1, 413388, Note_off_c, 0, 51, 35
1, 413439, Note_off_c, 0, 46, 45
1, 413480, Note_off_c, 0, 39, 49
1, 413561, Poly_aftertouch_c, 0, 70, 28
1, 413570, Note_on_c, 0, 70, 59
1, 413801, Note_off_c, 0, 70, 37
1, 413809, Note_off_c, 0, 63, 50
1, 413850, Poly_aftertouch_c, 0, 34, 28
1, 413856, Note_on_c, 0, 34, 47
1, 413860, Poly_aftertouch_c, 0, 46, 28
1, 413876, Note_on_c, 0, 46, 27
1, 413951, Poly_aftertouch_c, 0, 62, 28
1, 413956, Note_on_c, 0, 62, 70
1, 413966, Poly_aftertouch_c, 0, 70, 28
1, 413975, Note_on_c, 0, 70, 57
1, 413986, Control_c, 0, 64, 92
1, 413999, Poly_aftertouch_c, 0, 56, 28
1, 414005, Control_c, 0, 64, 64
1, 414007, Note_on_c, 0, 56, 38
1, 414010, Poly_aftertouch_c, 0, 58, 28
1, 414019, Note_on_c, 0, 58, 28
1, 414022, Control_c, 0, 64, 40
1, 414043, Control_c, 0, 64, 23
1, 414099, Control_c, 0, 64, 32
1, 414117, Control_c, 0, 64, 48
1, 414136, Control_c, 0, 64, 69
1, 414155, Note_off_c, 0, 70, 62
1, 414155, Control_c, 0, 64, 93
1, 414174, Control_c, 0, 64, 127
1, 414217, Note_off_c, 0, 34, 60
1, 414256, Poly_aftertouch_c, 0, 63, 28
1, 414261, Note_on_c, 0, 63, 73
1, 414271, Note_off_c, 0, 58, 37
1, 414276, Note_off_c, 0, 62, 61
1, 414312, Note_off_c, 0, 46, 53
1, 414481, Poly_aftertouch_c, 0, 65, 28
1, 414486, Note_on_c, 0, 65, 73
1, 414506, Note_off_c, 0, 63, 61
1, 414546, Note_off_c, 0, 56, 42
1, 414558, Note_off_c, 0, 65, 61
1, 414648, Poly_aftertouch_c, 0, 46, 28
1, 414661, Note_on_c, 0, 46, 37
1, 414664, Poly_aftertouch_c, 0, 51, 28
1, 414674, Note_on_c, 0, 51, 42
1, 414696, Poly_aftertouch_c, 0, 55, 28
1, 414706, Note_on_c, 0, 55, 28
1, 414763, Poly_aftertouch_c, 0, 63, 28
1, 414768, Note_on_c, 0, 63, 68
1, 414772, Control_c, 0, 64, 98
1, 414775, Poly_aftertouch_c, 0, 70, 28
1, 414783, Note_on_c, 0, 70, 63
1, 414791, Control_c, 0, 64, 69
1, 414798, Poly_aftertouch_c, 0, 58, 28
1, 414805, Note_on_c, 0, 58, 53
1, 414810, Control_c, 0, 64, 46
1, 414830, Control_c, 0, 64, 24
1, 414847, Control_c, 0, 64, 15
1, 414903, Control_c, 0, 64, 28
1, 414923, Control_c, 0, 64, 45
1, 414941, Control_c, 0, 64, 69
1, 414960, Control_c, 0, 64, 94
1, 414970, Note_off_c, 0, 58, 63
1, 414977, Control_c, 0, 64, 127
1, 415045, Note_off_c, 0, 63, 55
1, 415119, Poly_aftertouch_c, 0, 55, 24
1, 415173, Note_off_c, 0, 55, 38
1, 415175, Poly_aftertouch_c, 0, 75, 28
1, 415184, Note_on_c, 0, 75, 61
1, 415228, Note_off_c, 0, 46, 60
1, 415242, Note_off_c, 0, 51, 33
1, 415273, Note_off_c, 0, 70, 57
1, 415428, Note_off_c, 0, 75, 33
1, 415496, Poly_aftertouch_c, 0, 65, 28
1, 415497, Poly_aftertouch_c, 0, 75, 28
1, 415503, Note_on_c, 0, 65, 66
1, 415511, Note_on_c, 0, 75, 38
1, 415523, Poly_aftertouch_c, 0, 72, 28
1, 415527, Note_on_c, 0, 72, 53
1, 415527, Poly_aftertouch_c, 0, 44, 28
1, 415527, Poly_aftertouch_c, 0, 51, 28
1, 415534, Note_on_c, 0, 44, 37
1, 415540, Note_on_c, 0, 51, 29
1, 415540, Poly_aftertouch_c, 0, 53, 28
1, 415547, Note_on_c, 0, 53, 28
1, 415559, Control_c, 0, 64, 110
1, 415577, Control_c, 0, 64, 81
1, 415597, Control_c, 0, 64, 59
1, 415614, Control_c, 0, 64, 39
1, 415634, Control_c, 0, 64, 25
1, 415653, Control_c, 0, 64, 20
1, 415728, Control_c, 0, 64, 32
1, 415745, Control_c, 0, 64, 43
1, 415764, Control_c, 0, 64, 61
1, 415784, Control_c, 0, 64, 75
1, 415792, Poly_aftertouch_c, 0, 46, 28
1, 415794, Poly_aftertouch_c, 0, 67, 28
1, 415798, Note_on_c, 0, 67, 70
1, 415800, Note_on_c, 0, 46, 50
1, 415803, Control_c, 0, 64, 90
1, 415804, Note_off_c, 0, 44, 50
1, 415820, Control_c, 0, 64, 116
1, 415839, Control_c, 0, 64, 127
1, 415887, Note_off_c, 0, 72, 34
1, 415933, Note_off_c, 0, 46, 51
1, 416010, Note_off_c, 0, 51, 52
1, 416012, Poly_aftertouch_c, 0, 68, 28
1, 416016, Poly_aftertouch_c, 0, 48, 28
1, 416018, Note_on_c, 0, 68, 81
1, 416021, Note_on_c, 0, 48, 65
1, 416025, Note_off_c, 0, 65, 56
1, 416043, Note_off_c, 0, 53, 33
1, 416045, Note_off_c, 0, 75, 62
1, 416045, Note_off_c, 0, 67, 61
1, 416077, Note_off_c, 0, 48, 58
1, 416085, Note_off_c, 0, 68, 65
1, 416226, Poly_aftertouch_c, 0, 48, 28
1, 416229, Poly_aftertouch_c, 0, 69, 28
1, 416230, Note_on_c, 0, 48, 57
1, 416231, Note_on_c, 0, 69, 81
1, 416241, Poly_aftertouch_c, 0, 75, 28
1, 416246, Note_on_c, 0, 63, 71
1, 416247, Poly_aftertouch_c, 0, 63, 28
1, 416250, Note_on_c, 0, 75, 63
1, 416253, Poly_aftertouch_c, 0, 41, 28
1, 416256, Note_on_c, 0, 41, 44
1, 416260, Poly_aftertouch_c, 0, 53, 28
1, 416266, Note_on_c, 0, 53, 43
1, 416289, Control_c, 0, 64, 85
1, 416307, Control_c, 0, 64, 61
1, 416326, Control_c, 0, 64, 40
1, 416345, Control_c, 0, 64, 26
1, 416363, Control_c, 0, 64, 21
1, 416419, Control_c, 0, 64, 25
1, 416439, Control_c, 0, 64, 34
1, 416445, Note_off_c, 0, 75, 53
1, 416447, Note_off_c, 0, 41, 57
1, 416453, Poly_aftertouch_c, 0, 46, 28
1, 416458, Control_c, 0, 64, 48
1, 416459, Control_c, 0, 67, 91
1, 416461, Note_on_c, 0, 46, 62
1, 416464, Note_off_c, 0, 48, 58
1, 416466, Poly_aftertouch_c, 0, 70, 28
1, 416468, Note_on_c, 0, 70, 81
1, 416476, Note_off_c, 0, 69, 58
1, 416476, Control_c, 0, 64, 67
1, 416495, Control_c, 0, 64, 82
1, 416496, Control_c, 0, 67, 87
1, 416513, Control_c, 0, 64, 103
1, 416517, Control_c, 0, 67, 81
1, 416533, Control_c, 0, 64, 127
1, 416534, Control_c, 0, 67, 75
1, 416550, Control_c, 0, 67, 69
1, 416570, Control_c, 0, 67, 64
1, 416588, Control_c, 0, 67, 59
1, 416608, Control_c, 0, 67, 54
1, 416645, Control_c, 0, 67, 49
1, 416686, Poly_aftertouch_c, 0, 45, 28
1, 416692, Note_on_c, 0, 45, 67
1, 416700, Control_c, 0, 67, 44
1, 416704, Poly_aftertouch_c, 0, 72, 28
1, 416707, Note_on_c, 0, 72, 80
1, 416722, Note_off_c, 0, 46, 35
1, 416724, Note_off_c, 0, 70, 53
1, 416731, Note_off_c, 0, 45, 64
1, 416736, Note_off_c, 0, 63, 55
1, 416748, Note_off_c, 0, 53, 37
1, 416913, Poly_aftertouch_c, 0, 46, 28
1, 416921, Note_on_c, 0, 46, 53
1, 416952, Poly_aftertouch_c, 0, 53, 28
1, 416958, Note_on_c, 0, 53, 43
1, 416958, Poly_aftertouch_c, 0, 56, 28
1, 416964, Note_on_c, 0, 56, 55
1, 417037, Control_c, 0, 64, 100
1, 417057, Control_c, 0, 64, 70
1, 417062, Poly_aftertouch_c, 0, 68, 28
1, 417067, Note_off_c, 0, 72, 60
1, 417072, Note_on_c, 0, 68, 54
1, 417073, Poly_aftertouch_c, 0, 70, 28
1, 417075, Control_c, 0, 64, 46
1, 417078, Poly_aftertouch_c, 0, 62, 28
1, 417079, Note_on_c, 0, 70, 62
1, 417081, Poly_aftertouch_c, 0, 74, 28
1, 417084, Note_on_c, 0, 62, 83
1, 417086, Note_on_c, 0, 74, 64
1, 417093, Control_c, 0, 64, 21
1, 417168, Control_c, 0, 64, 8
1, 417189, Control_c, 0, 64, 17
1, 417206, Control_c, 0, 64, 32
1, 417225, Control_c, 0, 64, 57
1, 417239, Note_off_c, 0, 70, 59
1, 417242, Note_off_c, 0, 56, 59
1, 417242, Control_c, 0, 64, 84
1, 417262, Control_c, 0, 64, 127
1, 417277, Note_off_c, 0, 53, 60
1, 417281, Control_c, 0, 67, 39
1, 417299, Control_c, 0, 67, 32
1, 417310, Note_off_c, 0, 68, 38
1, 417317, Control_c, 0, 67, 22
1, 417325, Note_off_c, 0, 46, 62
1, 417339, Note_off_c, 0, 62, 63
1, 417339, Control_c, 0, 67, 12
1, 417412, Control_c, 0, 67, 0
1, 417467, Poly_aftertouch_c, 0, 75, 28
1, 417471, Note_on_c, 0, 75, 77
1, 417472, Poly_aftertouch_c, 0, 63, 28
1, 417473, Note_on_c, 0, 63, 87
1, 417478, Note_off_c, 0, 74, 48
1, 417587, Poly_aftertouch_c, 0, 34, 28
1, 417589, Note_off_c, 0, 75, 62
1, 417593, Note_on_c, 0, 34, 66
1, 417594, Note_off_c, 0, 63, 61
1, 417656, Note_off_c, 0, 34, 59
1, 417740, Poly_aftertouch_c, 0, 65, 28
1, 417748, Note_on_c, 0, 65, 90
1, 417751, Note_on_c, 0, 77, 81
1, 417752, Poly_aftertouch_c, 0, 68, 28
1, 417753, Poly_aftertouch_c, 0, 77, 28
1, 417760, Note_on_c, 0, 74, 71
1, 417762, Note_on_c, 0, 68, 68
1, 417763, Poly_aftertouch_c, 0, 74, 28
1, 417805, Note_off_c, 0, 77, 54
1, 417817, Note_off_c, 0, 74, 55
1, 417851, Note_off_c, 0, 68, 56
1, 417873, Poly_aftertouch_c, 0, 39, 28
1, 417876, Note_on_c, 0, 68, 13
1, 417877, Note_off_c, 0, 68, 127
1, 417878, Note_on_c, 0, 39, 61
1, 417887, Note_off_c, 0, 65, 60
1, 417955, Poly_aftertouch_c, 0, 46, 28
1, 417962, Note_on_c, 0, 46, 62
1, 417981, Note_off_c, 0, 39, 62
1, 418096, Poly_aftertouch_c, 0, 55, 28
1, 418104, Note_on_c, 0, 55, 65
1, 418162, Control_c, 0, 64, 82
1, 418179, Control_c, 0, 64, 51
1, 418180, Poly_aftertouch_c, 0, 67, 28
1, 418180, Poly_aftertouch_c, 0, 70, 28
1, 418186, Note_on_c, 0, 67, 64
1, 418186, Note_on_c, 0, 58, 92
1, 418187, Poly_aftertouch_c, 0, 58, 28
1, 418189, Note_on_c, 0, 70, 58
1, 418197, Control_c, 0, 64, 21
1, 418217, Control_c, 0, 64, 10
1, 418254, Control_c, 0, 64, 19
1, 418274, Control_c, 0, 64, 34
1, 418289, Note_off_c, 0, 55, 59
1, 418291, Control_c, 0, 64, 60
1, 418310, Control_c, 0, 64, 90
1, 418329, Control_c, 0, 64, 127
1, 418382, Note_off_c, 0, 46, 62
1, 418474, Note_off_c, 0, 58, 64
1, 418553, Note_off_c, 0, 67, 57
1, 418556, Poly_aftertouch_c, 0, 39, 28
1, 418560, Note_on_c, 0, 39, 61
1, 418658, Poly_aftertouch_c, 0, 63, 28
1, 418660, Note_on_c, 0, 63, 94
1, 418661, Poly_aftertouch_c, 0, 75, 28
1, 418668, Note_on_c, 0, 75, 75
1, 418676, Note_off_c, 0, 70, 63
1, 418754, Poly_aftertouch_c, 0, 27, 28
1, 418758, Note_on_c, 0, 27, 68
1, 418798, Note_off_c, 0, 27, 63
1, 418832, Note_off_c, 0, 39, 55
1, 418878, Note_off_c, 0, 75, 37
1, 418940, Note_off_c, 0, 63, 59
1, 419078, Poly_aftertouch_c, 0, 63, 28
1, 419079, Note_on_c, 0, 63, 93
1, 419089, Poly_aftertouch_c, 0, 48, 28
1, 419093, Note_on_c, 0, 48, 50
1, 419093, Poly_aftertouch_c, 0, 75, 28
1, 419095, Control_c, 0, 64, 77
1, 419096, Note_on_c, 0, 75, 71
1, 419097, Note_on_c, 0, 57, 62
1, 419099, Poly_aftertouch_c, 0, 55, 28
1, 419099, Poly_aftertouch_c, 0, 57, 28
1, 419102, Poly_aftertouch_c, 0, 72, 28
1, 419106, Note_on_c, 0, 55, 55
1, 419107, Note_on_c, 0, 72, 60
1, 419114, Control_c, 0, 64, 51
1, 419120, Poly_aftertouch_c, 0, 51, 28
1, 419128, Note_on_c, 0, 51, 25
1, 419133, Control_c, 0, 64, 30
1, 419153, Control_c, 0, 64, 22
1, 419180, Note_off_c, 0, 51, 45
1, 419209, Control_c, 0, 64, 34
1, 419228, Control_c, 0, 64, 49
1, 419246, Control_c, 0, 64, 69
1, 419266, Control_c, 0, 64, 88
1, 419283, Control_c, 0, 64, 127
1, 419311, Note_off_c, 0, 57, 46
1, 419334, Note_off_c, 0, 72, 47
1, 419356, Poly_aftertouch_c, 0, 58, 28
1, 419358, Poly_aftertouch_c, 0, 70, 28
1, 419363, Note_on_c, 0, 58, 49
1, 419365, Note_on_c, 0, 70, 69
1, 419392, Note_off_c, 0, 48, 36
1, 419462, Note_off_c, 0, 55, 45
1, 419527, Note_off_c, 0, 58, 61
1, 419560, Poly_aftertouch_c, 0, 60, 28
1, 419562, Note_on_c, 0, 60, 63
1, 419570, Note_on_c, 0, 69, 70
1, 419570, Poly_aftertouch_c, 0, 69, 28
1, 419571, Note_off_c, 0, 75, 63
1, 419579, Note_off_c, 0, 63, 56
1, 419598, Note_off_c, 0, 60, 63
1, 419621, Note_off_c, 0, 70, 38
1, 419621, Note_off_c, 0, 69, 56
1, 419668, Poly_aftertouch_c, 0, 43, 28
1, 419671, Note_on_c, 0, 43, 72
1, 419776, Note_off_c, 0, 43, 47
1, 419784, Poly_aftertouch_c, 0, 51, 28
1, 419790, Note_on_c, 0, 51, 75
1, 419939, Control_c, 0, 64, 108
1, 419958, Control_c, 0, 64, 70
1, 419976, Control_c, 0, 64, 43
1, 419988, Poly_aftertouch_c, 0, 58, 28
1, 419993, Note_on_c, 0, 58, 97
1, 419996, Control_c, 0, 64, 31
1, 420009, Poly_aftertouch_c, 0, 75, 28
1, 420014, Poly_aftertouch_c, 0, 63, 28
1, 420018, Note_on_c, 0, 63, 54
1, 420018, Note_on_c, 0, 75, 59
1, 420030, Poly_aftertouch_c, 0, 70, 28
1, 420032, Control_c, 0, 64, 40
1, 420039, Note_on_c, 0, 70, 50
1, 420051, Control_c, 0, 64, 59
1, 420070, Control_c, 0, 64, 83
1, 420089, Control_c, 0, 64, 127
1, 420150, Note_off_c, 0, 58, 67
1, 420155, Note_off_c, 0, 63, 62
1, 420195, Note_off_c, 0, 51, 62
1, 420355, Poly_aftertouch_c, 0, 39, 28
1, 420361, Note_on_c, 0, 39, 68
1, 420438, Poly_aftertouch_c, 0, 79, 28
1, 420444, Note_on_c, 0, 79, 73
1, 420444, Poly_aftertouch_c, 0, 67, 28
1, 420448, Note_on_c, 0, 67, 67
1, 420484, Note_off_c, 0, 70, 35
1, 420484, Note_off_c, 0, 75, 52
1, 420528, Poly_aftertouch_c, 0, 27, 28
1, 420531, Note_off_c, 0, 67, 55
1, 420531, Note_on_c, 0, 27, 76
1, 420556, Note_off_c, 0, 39, 61
1, 420571, Note_off_c, 0, 27, 67
1, 420578, Note_off_c, 0, 79, 52
1, 421008, Poly_aftertouch_c, 0, 79, 28
1, 421011, Poly_aftertouch_c, 0, 60, 28
1, 421015, Note_on_c, 0, 79, 72
1, 421018, Note_on_c, 0, 60, 83
1, 421023, Note_on_c, 0, 69, 66
1, 421025, Note_on_c, 0, 67, 67
1, 421026, Note_on_c, 0, 48, 62
1, 421026, Poly_aftertouch_c, 0, 48, 28
1, 421027, Poly_aftertouch_c, 0, 51, 28
1, 421029, Note_on_c, 0, 51, 67
1, 421030, Note_on_c, 0, 75, 64
1, 421031, Poly_aftertouch_c, 0, 67, 28
1, 421031, Poly_aftertouch_c, 0, 69, 28
1, 421032, Poly_aftertouch_c, 0, 75, 28
1, 421048, Control_c, 0, 64, 87
1, 421062, Control_c, 0, 64, 58
1, 421081, Control_c, 0, 64, 36
1, 421099, Control_c, 0, 64, 28
1, 421137, Control_c, 0, 64, 33
1, 421156, Control_c, 0, 64, 45
1, 421174, Control_c, 0, 64, 65
1, 421193, Control_c, 0, 64, 88
1, 421212, Control_c, 0, 64, 127
1, 421245, Note_off_c, 0, 48, 55
1, 421276, Note_off_c, 0, 60, 58
1, 421427, Poly_aftertouch_c, 0, 58, 28
1, 421434, Note_on_c, 0, 58, 91
1, 421435, Poly_aftertouch_c, 0, 70, 28
1, 421436, Note_off_c, 0, 79, 49
1, 421440, Poly_aftertouch_c, 0, 46, 28
1, 421442, Note_on_c, 0, 70, 74
1, 421443, Note_on_c, 0, 46, 80
1, 421478, Note_off_c, 0, 51, 60
1, 421518, Note_off_c, 0, 75, 37
1, 421564, Note_off_c, 0, 58, 60
1, 421581, Note_off_c, 0, 46, 58
1, 421683, Poly_aftertouch_c, 0, 57, 28
1, 421689, Note_on_c, 0, 57, 89
1, 421691, Poly_aftertouch_c, 0, 45, 28
1, 421696, Note_on_c, 0, 45, 69
1, 421708, Poly_aftertouch_c, 0, 72, 28
1, 421711, Note_on_c, 0, 72, 76
1, 421722, Note_off_c, 0, 45, 60
1, 421740, Note_off_c, 0, 70, 59
1, 421757, Note_off_c, 0, 57, 62
1, 421758, Note_off_c, 0, 69, 35
1, 421758, Note_off_c, 0, 67, 36
1, 421769, Note_off_c, 0, 72, 59
1, 421839, Poly_aftertouch_c, 0, 50, 28
1, 421843, Note_on_c, 0, 50, 80
1, 421944, Poly_aftertouch_c, 0, 57, 28
1, 421948, Note_on_c, 0, 57, 68
1, 422092, Control_c, 0, 64, 83
1, 422106, Poly_aftertouch_c, 0, 62, 28
1, 422108, Poly_aftertouch_c, 0, 78, 28
1, 422109, Control_c, 0, 64, 50
1, 422111, Note_on_c, 0, 78, 73
1, 422111, Note_on_c, 0, 62, 92
1, 422115, Note_on_c, 0, 66, 69
1, 422115, Note_on_c, 0, 74, 66
1, 422119, Poly_aftertouch_c, 0, 66, 28
1, 422119, Poly_aftertouch_c, 0, 74, 28
1, 422127, Control_c, 0, 64, 14
1, 422162, Note_off_c, 0, 57, 63
1, 422185, Control_c, 0, 64, 8
1, 422203, Control_c, 0, 64, 22
1, 422223, Control_c, 0, 64, 44
1, 422242, Control_c, 0, 64, 74
1, 422254, Note_off_c, 0, 74, 60
1, 422259, Control_c, 0, 64, 127
1, 422290, Note_off_c, 0, 62, 61
1, 422313, Note_off_c, 0, 66, 61
1, 422320, Note_off_c, 0, 50, 63
1, 422370, Note_off_c, 0, 78, 63
1, 422444, Poly_aftertouch_c, 0, 76, 28
1, 422444, Poly_aftertouch_c, 0, 79, 28
1, 422450, Note_on_c, 0, 79, 71
1, 422451, Note_on_c, 0, 76, 71
1, 422457, Poly_aftertouch_c, 0, 67, 28
1, 422460, Note_on_c, 0, 67, 65
1, 422502, Note_off_c, 0, 67, 60
1, 422531, Poly_aftertouch_c, 0, 38, 28
1, 422532, Note_on_c, 0, 38, 74
1, 422537, Poly_aftertouch_c, 0, 50, 28
1, 422544, Note_on_c, 0, 50, 68
1, 422563, Note_off_c, 0, 76, 58
1, 422571, Note_off_c, 0, 38, 62
1, 422588, Note_off_c, 0, 50, 64
1, 422652, Poly_aftertouch_c, 0, 69, 28
1, 422653, Note_off_c, 0, 79, 38
1, 422657, Note_on_c, 0, 69, 75
1, 422660, Poly_aftertouch_c, 0, 78, 28
1, 422661, Poly_aftertouch_c, 0, 81, 28
1, 422663, Note_on_c, 0, 81, 73
1, 422666, Note_on_c, 0, 78, 64
1, 422696, Note_off_c, 0, 78, 63
1, 422700, Note_off_c, 0, 69, 53
1, 422753, Poly_aftertouch_c, 0, 55, 28
1, 422756, Note_on_c, 0, 55, 74
1, 422804, Control_c, 0, 64, 80
1, 422822, Control_c, 0, 64, 56
1, 422824, Poly_aftertouch_c, 0, 62, 28
1, 422828, Note_on_c, 0, 62, 65
1, 422840, Control_c, 0, 64, 48
1, 422858, Control_c, 0, 64, 51
1, 422871, Poly_aftertouch_c, 0, 67, 28
1, 422872, Note_off_c, 0, 81, 61
1, 422873, Note_on_c, 0, 67, 91
1, 422877, Control_c, 0, 64, 61
1, 422879, Poly_aftertouch_c, 0, 70, 28
1, 422880, Poly_aftertouch_c, 0, 82, 28
1, 422882, Note_on_c, 0, 70, 81
1, 422885, Note_on_c, 0, 82, 72
1, 422888, Note_on_c, 0, 79, 63
1, 422890, Poly_aftertouch_c, 0, 79, 28
1, 422896, Control_c, 0, 64, 74
1, 422916, Control_c, 0, 64, 102
1, 422926, Note_off_c, 0, 67, 65
1, 422934, Note_off_c, 0, 62, 63
1, 422934, Control_c, 0, 64, 127
1, 422948, Note_off_c, 0, 79, 60
1, 422971, Note_off_c, 0, 55, 63
1, 422977, Note_off_c, 0, 70, 61
1, 423028, Note_off_c, 0, 82, 64
1, 423104, Poly_aftertouch_c, 0, 72, 28
1, 423105, Poly_aftertouch_c, 0, 81, 28
1, 423106, Poly_aftertouch_c, 0, 84, 28
1, 423108, Note_on_c, 0, 84, 78
1, 423109, Note_on_c, 0, 81, 76
1, 423110, Note_on_c, 0, 72, 77
1, 423174, Poly_aftertouch_c, 0, 31, 28
1, 423175, Poly_aftertouch_c, 0, 43, 28
1, 423176, Note_off_c, 0, 72, 55
1, 423179, Note_on_c, 0, 31, 78
1, 423181, Note_on_c, 0, 43, 68
1, 423188, Note_off_c, 0, 81, 57
1, 423218, Note_off_c, 0, 31, 63
1, 423219, Note_off_c, 0, 43, 63
1, 423261, Note_off_c, 0, 84, 61
1, 423299, Poly_aftertouch_c, 0, 74, 28
1, 423300, Poly_aftertouch_c, 0, 86, 28
1, 423302, Note_on_c, 0, 74, 79
1, 423304, Note_on_c, 0, 86, 81
1, 423306, Poly_aftertouch_c, 0, 82, 28
1, 423310, Note_on_c, 0, 82, 80
1, 423336, Note_off_c, 0, 74, 60
1, 423361, Note_off_c, 0, 82, 60
1, 423368, Note_off_c, 0, 86, 65
1, 423429, Poly_aftertouch_c, 0, 48, 28
1, 423432, Note_on_c, 0, 48, 71
1, 423491, Poly_aftertouch_c, 0, 55, 28
1, 423499, Note_on_c, 0, 55, 57
1, 423570, Control_c, 0, 64, 98
1, 423577, Poly_aftertouch_c, 0, 89, 28
1, 423581, Poly_aftertouch_c, 0, 60, 28
1, 423582, Note_on_c, 0, 89, 83
1, 423585, Note_on_c, 0, 60, 94
1, 423589, Control_c, 0, 64, 65
1, 423591, Note_on_c, 0, 79, 60
1, 423592, Poly_aftertouch_c, 0, 79, 28
1, 423592, Poly_aftertouch_c, 0, 84, 28
1, 423596, Note_on_c, 0, 84, 65
1, 423603, Note_on_c, 0, 77, 68
1, 423605, Poly_aftertouch_c, 0, 77, 28
1, 423609, Control_c, 0, 64, 35
1, 423627, Control_c, 0, 64, 10
1, 423682, Control_c, 0, 64, 22
1, 423701, Control_c, 0, 64, 40
1, 423712, Note_off_c, 0, 77, 58
1, 423713, Note_off_c, 0, 79, 62
1, 423719, Control_c, 0, 64, 68
1, 423727, Note_off_c, 0, 89, 62
1, 423739, Control_c, 0, 64, 102
1, 423742, Note_off_c, 0, 48, 52
1, 423758, Control_c, 0, 64, 127
1, 423774, Note_off_c, 0, 55, 51
1, 423818, Note_off_c, 0, 60, 58
1, 423936, Note_off_c, 0, 84, 64
1, 423955, Poly_aftertouch_c, 0, 87, 28
1, 423959, Note_on_c, 0, 87, 82
1, 423964, Poly_aftertouch_c, 0, 75, 28
1, 423967, Note_on_c, 0, 75, 77
1, 424043, Poly_aftertouch_c, 0, 63, 28
1, 424047, Note_on_c, 0, 63, 102
1, 424054, Poly_aftertouch_c, 0, 51, 28
1, 424056, Note_on_c, 0, 51, 84
1, 424063, Note_off_c, 0, 87, 63
1, 424080, Note_off_c, 0, 75, 41
1, 424087, Note_off_c, 0, 51, 69
1, 424154, Note_off_c, 0, 63, 59
1, 424199, Poly_aftertouch_c, 0, 86, 28
1, 424203, Note_on_c, 0, 86, 84
1, 424206, Poly_aftertouch_c, 0, 74, 28
1, 424206, Poly_aftertouch_c, 0, 82, 28
1, 424209, Note_on_c, 0, 74, 83
1, 424212, Note_on_c, 0, 82, 77
1, 424267, Note_off_c, 0, 82, 61
1, 424272, Note_off_c, 0, 74, 60
1, 424283, Note_off_c, 0, 86, 63
1, 424353, Poly_aftertouch_c, 0, 53, 28
1, 424355, Note_on_c, 0, 53, 70
1, 424371, Poly_aftertouch_c, 0, 57, 28
1, 424376, Note_on_c, 0, 57, 63
1, 424389, Poly_aftertouch_c, 0, 60, 28
1, 424393, Note_on_c, 0, 60, 66
1, 424470, Poly_aftertouch_c, 0, 63, 28
1, 424475, Note_on_c, 0, 63, 62
1, 424543, Control_c, 0, 64, 89
1, 424546, Poly_aftertouch_c, 0, 75, 28
1, 424547, Poly_aftertouch_c, 0, 81, 28
1, 424550, Note_on_c, 0, 75, 68
1, 424551, Note_on_c, 0, 81, 68
1, 424554, Note_on_c, 0, 84, 78
1, 424556, Note_on_c, 0, 72, 73
1, 424558, Note_on_c, 0, 65, 89
1, 424559, Note_off_c, 0, 65, 127
1, 424559, Poly_aftertouch_c, 0, 65, 28
1, 424560, Poly_aftertouch_c, 0, 72, 28
1, 424562, Poly_aftertouch_c, 0, 84, 28
1, 424562, Control_c, 0, 64, 55
1, 424581, Control_c, 0, 64, 12
1, 424599, Control_c, 0, 64, 0
1, 424612, Poly_aftertouch_c, 0, 65, 127
1, 424674, Control_c, 0, 64, 18
1, 424694, Control_c, 0, 64, 42
1, 424711, Control_c, 0, 64, 73
1, 424731, Control_c, 0, 64, 127
1, 424740, Note_off_c, 0, 60, 47
1, 424751, Poly_aftertouch_c, 0, 65, 0
1, 424773, Note_off_c, 0, 63, 61
1, 424808, Note_off_c, 0, 57, 38
1, 424809, Note_off_c, 0, 72, 56
1, 424825, Note_off_c, 0, 53, 50
1, 424838, Note_off_c, 0, 84, 56
1, 424851, Note_off_c, 0, 81, 61
1, 424871, Note_off_c, 0, 75, 63
1, 424959, Poly_aftertouch_c, 0, 86, 28
1, 424962, Note_on_c, 0, 86, 79
1, 424970, Poly_aftertouch_c, 0, 74, 28
1, 424974, Note_on_c, 0, 74, 67
1, 425013, Note_off_c, 0, 86, 60
1, 425041, Note_off_c, 0, 74, 55
1, 425079, Poly_aftertouch_c, 0, 29, 28
1, 425081, Note_on_c, 0, 29, 79
1, 425126, Note_off_c, 0, 29, 63
1, 425226, Poly_aftertouch_c, 0, 84, 28
1, 425230, Note_on_c, 0, 84, 78
1, 425232, Poly_aftertouch_c, 0, 75, 28
1, 425233, Poly_aftertouch_c, 0, 81, 28
1, 425239, Note_on_c, 0, 81, 66
1, 425240, Note_on_c, 0, 75, 59
1, 425251, Poly_aftertouch_c, 0, 72, 28
1, 425255, Note_on_c, 0, 72, 55
1, 425289, Note_off_c, 0, 84, 60
1, 425310, Note_off_c, 0, 81, 61
1, 425317, Note_off_c, 0, 75, 60
1, 425325, Note_off_c, 0, 72, 59
1, 425642, Poly_aftertouch_c, 0, 65, 28
1, 425643, Poly_aftertouch_c, 0, 77, 28
1, 425646, Note_on_c, 0, 77, 66
1, 425646, Note_on_c, 0, 65, 63
1, 425649, Poly_aftertouch_c, 0, 57, 28
1, 425652, Note_on_c, 0, 57, 75
1, 425653, Poly_aftertouch_c, 0, 74, 28
1, 425656, Note_on_c, 0, 74, 60
1, 425660, Poly_aftertouch_c, 0, 45, 28
1, 425666, Note_on_c, 0, 45, 48
1, 425667, Poly_aftertouch_c, 0, 50, 28
1, 425667, Poly_aftertouch_c, 0, 53, 28
1, 425667, Control_c, 0, 64, 89
1, 425674, Note_on_c, 0, 53, 40
1, 425676, Note_on_c, 0, 50, 42
1, 425686, Control_c, 0, 64, 59
1, 425705, Control_c, 0, 64, 27
1, 425761, Control_c, 0, 64, 12
1, 425765, Note_off_c, 0, 50, 45
1, 425779, Control_c, 0, 64, 25
1, 425797, Control_c, 0, 64, 45
1, 425816, Note_off_c, 0, 45, 55
1, 425816, Control_c, 0, 64, 71
1, 425835, Control_c, 0, 64, 99
1, 425853, Control_c, 0, 64, 127
1, 425865, Note_off_c, 0, 57, 60
1, 425953, Note_off_c, 0, 53, 36
1, 425966, Poly_aftertouch_c, 0, 58, 28
1, 425969, Note_on_c, 0, 58, 86
1, 425971, Poly_aftertouch_c, 0, 46, 28
1, 425975, Note_on_c, 0, 46, 78
1, 426066, Note_off_c, 0, 46, 60
1, 426070, Note_off_c, 0, 58, 62
1, 426116, Note_off_c, 0, 65, 61
1, 426125, Note_off_c, 0, 74, 58
1, 426163, Note_off_c, 0, 77, 60
1, 426171, Poly_aftertouch_c, 0, 60, 28
1, 426173, Note_on_c, 0, 60, 84
1, 426181, Poly_aftertouch_c, 0, 48, 28
1, 426184, Note_on_c, 0, 48, 69
1, 426224, Note_off_c, 0, 48, 65
1, 426235, Note_off_c, 0, 60, 60
1, 426331, Poly_aftertouch_c, 0, 46, 28
1, 426335, Note_on_c, 0, 46, 71
1, 426336, Poly_aftertouch_c, 0, 51, 28
1, 426345, Note_on_c, 0, 51, 41
1, 426394, Poly_aftertouch_c, 0, 55, 28
1, 426401, Note_on_c, 0, 55, 54
1, 426416, Control_c, 0, 64, 87
1, 426435, Control_c, 0, 64, 58
1, 426444, Poly_aftertouch_c, 0, 58, 28
1, 426445, Note_on_c, 0, 58, 80
1, 426447, Note_on_c, 0, 79, 73
1, 426447, Poly_aftertouch_c, 0, 67, 28
1, 426448, Poly_aftertouch_c, 0, 75, 28
1, 426448, Poly_aftertouch_c, 0, 79, 28
1, 426452, Note_on_c, 0, 67, 59
1, 426452, Note_on_c, 0, 75, 64
1, 426452, Control_c, 0, 64, 29
1, 426472, Control_c, 0, 64, 13
1, 426509, Control_c, 0, 64, 23
1, 426527, Control_c, 0, 64, 40
1, 426547, Control_c, 0, 64, 64
1, 426552, Note_off_c, 0, 55, 60
1, 426566, Control_c, 0, 64, 88
1, 426570, Note_off_c, 0, 79, 56
1, 426574, Note_off_c, 0, 58, 65
1, 426583, Control_c, 0, 64, 127
1, 426593, Note_off_c, 0, 51, 61
1, 426594, Note_off_c, 0, 67, 57
1, 426613, Note_off_c, 0, 75, 56
1, 426628, Note_off_c, 0, 46, 63
1, 426709, Poly_aftertouch_c, 0, 65, 28
1, 426710, Poly_aftertouch_c, 0, 74, 28
1, 426714, Note_on_c, 0, 74, 68
1, 426714, Note_on_c, 0, 65, 69
1, 426715, Note_on_c, 0, 77, 65
1, 426717, Poly_aftertouch_c, 0, 77, 28
1, 426778, Note_off_c, 0, 65, 58
1, 426779, Note_off_c, 0, 77, 59
1, 426802, Poly_aftertouch_c, 0, 39, 28
1, 426808, Note_on_c, 0, 39, 72
1, 426808, Poly_aftertouch_c, 0, 27, 28
1, 426812, Note_on_c, 0, 27, 72
1, 426828, Note_off_c, 0, 74, 56
1, 426855, Note_off_c, 0, 27, 64
1, 426856, Note_off_c, 0, 39, 62
1, 426924, Poly_aftertouch_c, 0, 63, 28
1, 426925, Note_on_c, 0, 75, 77
1, 426926, Note_on_c, 0, 63, 77
1, 426928, Poly_aftertouch_c, 0, 72, 28
1, 426928, Poly_aftertouch_c, 0, 75, 28
1, 426930, Note_on_c, 0, 72, 76
1, 427006, Note_off_c, 0, 63, 57
1, 427164, Note_off_c, 0, 75, 60
1, 427220, Control_c, 0, 64, 81
1, 427224, Poly_aftertouch_c, 0, 57, 28
1, 427225, Note_on_c, 0, 65, 78
1, 427226, Note_on_c, 0, 57, 81
1, 427228, Note_on_c, 0, 77, 75
1, 427228, Note_on_c, 0, 74, 71
1, 427229, Note_off_c, 0, 72, 64
1, 427229, Poly_aftertouch_c, 0, 65, 28
1, 427230, Poly_aftertouch_c, 0, 74, 28
1, 427230, Poly_aftertouch_c, 0, 77, 28
1, 427235, Note_on_c, 0, 53, 55
1, 427238, Poly_aftertouch_c, 0, 50, 28
1, 427238, Poly_aftertouch_c, 0, 53, 28
1, 427239, Control_c, 0, 64, 52
1, 427244, Poly_aftertouch_c, 0, 45, 28
1, 427248, Note_on_c, 0, 50, 53
1, 427250, Note_on_c, 0, 45, 55
1, 427257, Control_c, 0, 64, 21
1, 427332, Control_c, 0, 64, 14
1, 427352, Control_c, 0, 64, 29
1, 427370, Control_c, 0, 64, 51
1, 427385, Note_off_c, 0, 45, 57
1, 427388, Control_c, 0, 64, 75
1, 427408, Control_c, 0, 64, 103
1, 427424, Note_off_c, 0, 50, 29
1, 427426, Control_c, 0, 64, 127
1, 427437, Note_off_c, 0, 57, 62
1, 427514, Poly_aftertouch_c, 0, 58, 28
1, 427520, Note_on_c, 0, 58, 91
1, 427524, Poly_aftertouch_c, 0, 46, 28
1, 427530, Note_on_c, 0, 46, 84
1, 427561, Note_off_c, 0, 53, 49
1, 427607, Note_off_c, 0, 65, 53
1, 427650, Note_off_c, 0, 46, 61
1, 427658, Note_off_c, 0, 58, 63
1, 427685, Note_off_c, 0, 77, 57
1, 427719, Note_off_c, 0, 74, 59
1, 427749, Poly_aftertouch_c, 0, 60, 28
1, 427752, Note_on_c, 0, 60, 90
1, 427754, Poly_aftertouch_c, 0, 48, 28
1, 427758, Note_on_c, 0, 48, 86
1, 427822, Note_off_c, 0, 48, 58
1, 427823, Note_off_c, 0, 60, 56
1, 427931, Poly_aftertouch_c, 0, 46, 28
1, 427938, Note_on_c, 0, 46, 67
1, 427970, Poly_aftertouch_c, 0, 51, 28
1, 427974, Note_on_c, 0, 51, 64
1, 428007, Poly_aftertouch_c, 0, 55, 28
1, 428016, Note_on_c, 0, 55, 58
1, 428137, Control_c, 0, 64, 97
1, 428156, Control_c, 0, 64, 64
1, 428162, Poly_aftertouch_c, 0, 79, 28
1, 428167, Note_on_c, 0, 79, 71
1, 428168, Poly_aftertouch_c, 0, 58, 28
1, 428171, Poly_aftertouch_c, 0, 75, 28
1, 428172, Poly_aftertouch_c, 0, 87, 28
1, 428173, Note_on_c, 0, 87, 83
1, 428175, Note_on_c, 0, 58, 71
1, 428175, Control_c, 0, 64, 28
1, 428176, Note_on_c, 0, 75, 68
1, 428193, Control_c, 0, 64, 0
1, 428288, Control_c, 0, 64, 26
1, 428306, Control_c, 0, 64, 53
1, 428316, Note_off_c, 0, 79, 63
1, 428323, Control_c, 0, 64, 85
1, 428343, Control_c, 0, 64, 127
1, 428345, Note_off_c, 0, 55, 47
1, 428351, Note_off_c, 0, 58, 63
1, 428396, Note_off_c, 0, 87, 55
1, 428399, Note_off_c, 0, 51, 59
1, 428406, Poly_aftertouch_c, 0, 85, 28
1, 428419, Note_off_c, 0, 75, 62
1, 428435, Note_off_c, 0, 46, 60
1, 428458, Poly_aftertouch_c, 0, 85, 127
1, 428467, Poly_aftertouch_c, 0, 85, 0
1, 428558, Poly_aftertouch_c, 0, 86, 28
1, 428561, Note_on_c, 0, 86, 81
1, 428574, Poly_aftertouch_c, 0, 77, 28
1, 428578, Note_on_c, 0, 77, 62
1, 428580, Poly_aftertouch_c, 0, 74, 28
1, 428583, Note_on_c, 0, 74, 63
1, 428665, Note_off_c, 0, 86, 55
1, 428673, Note_off_c, 0, 74, 55
1, 428677, Note_off_c, 0, 77, 59
1, 428688, Poly_aftertouch_c, 0, 27, 28
1, 428692, Note_on_c, 0, 27, 72
1, 428695, Poly_aftertouch_c, 0, 39, 28
1, 428699, Note_on_c, 0, 39, 53
1, 428752, Note_off_c, 0, 27, 59
1, 428807, Note_off_c, 0, 39, 59
1, 428860, Poly_aftertouch_c, 0, 75, 28
1, 428860, Poly_aftertouch_c, 0, 84, 28
1, 428863, Note_on_c, 0, 84, 73
1, 428866, Note_on_c, 0, 75, 64
1, 428887, Poly_aftertouch_c, 0, 72, 28
1, 428891, Note_on_c, 0, 72, 50
1, 428922, Note_off_c, 0, 84, 62
1, 428950, Note_off_c, 0, 75, 62
1, 428953, Note_off_c, 0, 72, 57
1, 429422, Poly_aftertouch_c, 0, 77, 28
1, 429425, Note_on_c, 0, 77, 61
1, 429428, Poly_aftertouch_c, 0, 74, 28
1, 429428, Control_c, 0, 64, 87
1, 429433, Poly_aftertouch_c, 0, 45, 28
1, 429435, Note_on_c, 0, 74, 50
1, 429435, Poly_aftertouch_c, 0, 65, 28
1, 429439, Note_on_c, 0, 45, 70
1, 429440, Note_on_c, 0, 65, 49
1, 429442, Poly_aftertouch_c, 0, 50, 28
1, 429446, Control_c, 0, 64, 58
1, 429455, Note_on_c, 0, 50, 26
1, 429466, Control_c, 0, 64, 25
1, 429475, Poly_aftertouch_c, 0, 57, 28
1, 429480, Note_on_c, 0, 57, 35
1, 429485, Control_c, 0, 64, 0
1, 429560, Control_c, 0, 64, 10
1, 429579, Control_c, 0, 64, 21
1, 429597, Control_c, 0, 64, 36
1, 429616, Control_c, 0, 64, 60
1, 429636, Control_c, 0, 64, 84
1, 429654, Control_c, 0, 64, 127
1, 429681, Note_off_c, 0, 50, 0
1, 429681, Poly_aftertouch_c, 0, 50, 28
1, 429689, Poly_aftertouch_c, 0, 53, 28
1, 429702, Note_off_c, 0, 45, 59
1, 429726, Note_off_c, 0, 57, 39
1, 429741, Poly_aftertouch_c, 0, 53, 127
1, 429756, Poly_aftertouch_c, 0, 50, 24
1, 429781, Poly_aftertouch_c, 0, 50, 0
1, 429927, Poly_aftertouch_c, 0, 46, 28
1, 429933, Note_on_c, 0, 46, 71
1, 429964, Note_off_c, 0, 74, 53
1, 429980, Poly_aftertouch_c, 0, 58, 28
1, 430033, Poly_aftertouch_c, 0, 58, 127
1, 430062, Note_off_c, 0, 65, 52
1, 430066, Poly_aftertouch_c, 0, 53, 0
1, 430075, Poly_aftertouch_c, 0, 58, 0
1, 430082, Note_off_c, 0, 46, 53
1, 430262, Poly_aftertouch_c, 0, 48, 28
1, 430268, Note_on_c, 0, 48, 68
1, 430295, Poly_aftertouch_c, 0, 60, 28
1, 430300, Note_on_c, 0, 60, 40
1, 430329, Note_off_c, 0, 48, 56
1, 430342, Note_off_c, 0, 60, 48
1, 430764, Poly_aftertouch_c, 0, 82, 28
1, 430771, Note_on_c, 0, 82, 58
1, 430772, Poly_aftertouch_c, 0, 50, 28
1, 430785, Poly_aftertouch_c, 0, 70, 28
1, 430786, Note_on_c, 0, 50, 29
1, 430789, Poly_aftertouch_c, 0, 46, 28
1, 430794, Note_on_c, 0, 46, 66
1, 430797, Note_on_c, 0, 70, 38
1, 430815, Note_off_c, 0, 77, 36
1, 430829, Poly_aftertouch_c, 0, 58, 28
1, 430832, Control_c, 0, 64, 87
1, 430853, Note_on_c, 0, 58, 15
1, 430853, Control_c, 0, 64, 62
1, 430870, Control_c, 0, 64, 36
1, 430889, Control_c, 0, 64, 9
1, 430908, Control_c, 0, 64, 0
1, 430983, Control_c, 0, 64, 8
1, 431002, Control_c, 0, 64, 20
1, 431020, Control_c, 0, 64, 35
1, 431038, Control_c, 0, 64, 59
1, 431058, Control_c, 0, 64, 81
1, 431076, Control_c, 0, 64, 124
1, 431194, Note_off_c, 0, 82, 64
1, 431298, Poly_aftertouch_c, 0, 58, 24
1, 431299, Note_off_c, 0, 70, 51
1, 431336, Note_off_c, 0, 50, 42
1, 431387, Note_off_c, 0, 46, 35
1, 431551, Poly_aftertouch_c, 0, 58, 20
1, 431721, Poly_aftertouch_c, 0, 45, 28
1, 431724, Note_on_c, 0, 45, 69
1, 431724, Poly_aftertouch_c, 0, 70, 28
1, 431730, Note_on_c, 0, 70, 50
1, 431732, Note_off_c, 0, 58, 0
1, 431733, Poly_aftertouch_c, 0, 58, 28
1, 431744, Poly_aftertouch_c, 0, 60, 28
1, 431749, Note_on_c, 0, 60, 41
1, 431749, Control_c, 0, 64, 104
1, 431769, Control_c, 0, 64, 76
1, 431777, Note_on_c, 0, 58, 14
1, 431788, Control_c, 0, 64, 55
1, 431790, Poly_aftertouch_c, 0, 51, 28
1, 431800, Note_on_c, 0, 51, 21
1, 431805, Control_c, 0, 64, 36
1, 431819, Poly_aftertouch_c, 0, 58, 32
1, 431824, Control_c, 0, 64, 24
1, 431900, Control_c, 0, 64, 31
1, 431915, Note_off_c, 0, 51, 0
1, 431916, Poly_aftertouch_c, 0, 51, 28
1, 431920, Control_c, 0, 64, 44
1, 431937, Control_c, 0, 64, 63
1, 431956, Control_c, 0, 64, 80
1, 431976, Control_c, 0, 64, 109
1, 431994, Control_c, 0, 64, 127
1, 432054, Poly_aftertouch_c, 0, 51, 24
1, 432105, Note_off_c, 0, 60, 35
1, 432113, Poly_aftertouch_c, 0, 62, 28
1, 432121, Note_on_c, 0, 62, 41
1, 432174, Note_off_c, 0, 58, 43
1, 432274, Control_c, 0, 67, 8
1, 432312, Control_c, 0, 67, 13
1, 432318, Poly_aftertouch_c, 0, 51, 22
1, 432344, Note_off_c, 0, 62, 33
1, 432348, Control_c, 0, 67, 19
1, 432353, Poly_aftertouch_c, 0, 51, 0
1, 432360, Note_off_c, 0, 45, 28
1, 432378, Poly_aftertouch_c, 0, 63, 28
1, 432385, Note_on_c, 0, 63, 48
1, 432386, Control_c, 0, 67, 26
1, 432402, Poly_aftertouch_c, 0, 60, 28
1, 432404, Control_c, 0, 67, 30
1, 432409, Note_on_c, 0, 60, 28
1, 432424, Control_c, 0, 67, 35
1, 432445, Control_c, 0, 67, 40
1, 432453, Note_off_c, 0, 70, 38
1, 432462, Note_off_c, 0, 60, 46
1, 432462, Control_c, 0, 67, 45
1, 432479, Control_c, 0, 67, 49
1, 432481, Note_off_c, 0, 63, 42
1, 432518, Control_c, 0, 67, 55
1, 432574, Control_c, 0, 67, 59
1, 432819, Poly_aftertouch_c, 0, 70, 28
1, 432823, Poly_aftertouch_c, 0, 58, 28
1, 432827, Poly_aftertouch_c, 0, 44, 28
1, 432831, Note_on_c, 0, 44, 58
1, 432831, Note_on_c, 0, 70, 47
1, 432835, Note_on_c, 0, 58, 38
1, 432842, Poly_aftertouch_c, 0, 62, 28
1, 432848, Poly_aftertouch_c, 0, 53, 28
1, 432849, Note_on_c, 0, 62, 42
1, 432856, Note_on_c, 0, 53, 25
1, 432873, Control_c, 0, 64, 96
1, 432893, Control_c, 0, 64, 76
1, 432911, Control_c, 0, 64, 57
1, 432930, Control_c, 0, 64, 36
1, 432948, Control_c, 0, 64, 18
1, 432967, Control_c, 0, 64, 11
1, 433061, Control_c, 0, 64, 23
1, 433079, Control_c, 0, 64, 34
1, 433091, Note_off_c, 0, 58, 61
1, 433098, Control_c, 0, 64, 51
1, 433117, Control_c, 0, 64, 69
1, 433135, Control_c, 0, 64, 84
1, 433154, Control_c, 0, 64, 104
1, 433172, Control_c, 0, 64, 127
1, 433229, Poly_aftertouch_c, 0, 53, 24
1, 433303, Poly_aftertouch_c, 0, 60, 28
1, 433308, Note_on_c, 0, 60, 42
1, 433309, Poly_aftertouch_c, 0, 51, 28
1, 433310, Poly_aftertouch_c, 0, 63, 28
1, 433313, Note_on_c, 0, 51, 44
1, 433314, Note_on_c, 0, 63, 47
1, 433321, Note_off_c, 0, 53, 32
1, 433327, Note_off_c, 0, 70, 53
1, 433350, Note_off_c, 0, 62, 25
1, 433430, Note_off_c, 0, 44, 42
1, 433475, Note_off_c, 0, 63, 49
1, 433551, Note_off_c, 0, 51, 29
1, 433697, Poly_aftertouch_c, 0, 65, 28
1, 433704, Note_on_c, 0, 65, 45
1, 433716, Poly_aftertouch_c, 0, 50, 28
1, 433717, Poly_aftertouch_c, 0, 62, 28
1, 433724, Note_on_c, 0, 62, 35
1, 433724, Note_on_c, 0, 50, 40
1, 433724, Poly_aftertouch_c, 0, 60, 24
1, 433763, Note_off_c, 0, 60, 37
1, 433802, Note_off_c, 0, 50, 62
1, 433807, Note_off_c, 0, 65, 52
1, 433818, Note_off_c, 0, 62, 47
1, 434350, Poly_aftertouch_c, 0, 71, 28
1, 434356, Note_on_c, 0, 71, 68
1, 434405, Poly_aftertouch_c, 0, 43, 28
1, 434406, Poly_aftertouch_c, 0, 50, 28
1, 434406, Poly_aftertouch_c, 0, 55, 28
1, 434407, Poly_aftertouch_c, 0, 59, 28
1, 434408, Control_c, 0, 64, 107
1, 434409, Note_on_c, 0, 59, 37
1, 434414, Poly_aftertouch_c, 0, 62, 28
1, 434416, Note_on_c, 0, 43, 20
1, 434417, Note_on_c, 0, 55, 32
1, 434419, Note_on_c, 0, 62, 33
1, 434421, Note_on_c, 0, 50, 36
1, 434427, Control_c, 0, 64, 95
1, 434446, Control_c, 0, 64, 82
1, 434465, Control_c, 0, 64, 70
1, 434482, Control_c, 0, 64, 59
1, 434502, Control_c, 0, 64, 48
1, 434520, Control_c, 0, 64, 37
1, 434539, Control_c, 0, 64, 20
1, 434558, Control_c, 0, 64, 0
1, 434652, Control_c, 0, 67, 55
1, 434801, Control_c, 0, 64, 15
1, 434820, Control_c, 0, 64, 24
1, 434839, Control_c, 0, 64, 39
1, 434858, Control_c, 0, 64, 59
1, 434876, Control_c, 0, 64, 76
1, 434895, Control_c, 0, 64, 98
1, 434914, Control_c, 0, 64, 127
1, 434951, Control_c, 0, 67, 51
1, 434955, Note_off_c, 0, 43, 39
1, 435038, Note_off_c, 0, 55, 39
1, 435051, Note_off_c, 0, 50, 40
1, 435080, Note_off_c, 0, 62, 40
1, 435094, Note_off_c, 0, 59, 41
1, 435133, Note_off_c, 0, 71, 33
1, 435336, Poly_aftertouch_c, 0, 71, 28
1, 435342, Note_on_c, 0, 71, 73
1, 435374, Poly_aftertouch_c, 0, 50, 28
1, 435380, Poly_aftertouch_c, 0, 42, 28
1, 435381, Poly_aftertouch_c, 0, 54, 28
1, 435382, Poly_aftertouch_c, 0, 62, 28
1, 435385, Note_on_c, 0, 62, 42
1, 435387, Note_on_c, 0, 42, 33
1, 435391, Note_on_c, 0, 50, 31
1, 435392, Note_on_c, 0, 54, 31
1, 435400, Control_c, 0, 64, 110
1, 435404, Poly_aftertouch_c, 0, 59, 28
1, 435412, Note_on_c, 0, 59, 31
1, 435418, Control_c, 0, 64, 82
1, 435438, Control_c, 0, 64, 61
1, 435456, Control_c, 0, 64, 44
1, 435475, Control_c, 0, 64, 36
1, 435513, Control_c, 0, 64, 41
1, 435531, Control_c, 0, 64, 51
1, 435550, Control_c, 0, 64, 61
1, 435556, Note_off_c, 0, 54, 54
1, 435561, Note_off_c, 0, 42, 58
1, 435569, Control_c, 0, 64, 70
1, 435587, Control_c, 0, 64, 79
1, 435607, Control_c, 0, 64, 93
1, 435625, Control_c, 0, 64, 127
1, 435688, Poly_aftertouch_c, 0, 43, 28
1, 435694, Note_on_c, 0, 43, 44
1, 435694, Poly_aftertouch_c, 0, 55, 28
1, 435700, Note_on_c, 0, 55, 41
1, 435772, Note_off_c, 0, 43, 53
1, 435789, Note_off_c, 0, 50, 40
1, 435795, Note_off_c, 0, 55, 57
1, 435799, Note_off_c, 0, 59, 41
1, 435812, Note_off_c, 0, 62, 56
1, 435911, Note_off_c, 0, 71, 55
1, 435922, Poly_aftertouch_c, 0, 57, 28
1, 435930, Note_on_c, 0, 57, 58
1, 435944, Poly_aftertouch_c, 0, 45, 28
1, 435951, Note_on_c, 0, 45, 42
1, 435989, Note_off_c, 0, 57, 56
1, 436004, Note_off_c, 0, 45, 47
1, 436206, Control_c, 0, 64, 93
1, 436219, Poly_aftertouch_c, 0, 72, 28
1, 436221, Control_c, 0, 64, 69
1, 436224, Note_on_c, 0, 72, 74
1, 436242, Control_c, 0, 64, 51
1, 436246, Poly_aftertouch_c, 0, 64, 28
1, 436251, Note_on_c, 0, 64, 49
1, 436251, Poly_aftertouch_c, 0, 48, 28
1, 436251, Poly_aftertouch_c, 0, 52, 28
1, 436252, Poly_aftertouch_c, 0, 55, 28
1, 436260, Note_on_c, 0, 52, 40
1, 436260, Control_c, 0, 64, 43
1, 436261, Note_on_c, 0, 48, 39
1, 436261, Note_on_c, 0, 55, 38
1, 436263, Note_on_c, 0, 43, 35
1, 436263, Poly_aftertouch_c, 0, 43, 28
1, 436278, Poly_aftertouch_c, 0, 60, 28
1, 436286, Note_on_c, 0, 60, 34
1, 436298, Control_c, 0, 64, 52
1, 436318, Control_c, 0, 64, 62
1, 436336, Control_c, 0, 64, 75
1, 436355, Control_c, 0, 64, 94
1, 436374, Control_c, 0, 64, 127
1, 436376, Control_c, 0, 67, 55
1, 436383, Note_off_c, 0, 64, 61
1, 436388, Note_off_c, 0, 72, 59
1, 436423, Note_off_c, 0, 60, 43
1, 436554, Note_off_c, 0, 43, 33
1, 436556, Poly_aftertouch_c, 0, 71, 28
1, 436559, Note_off_c, 0, 55, 39
1, 436562, Note_on_c, 0, 71, 75
1, 436585, Poly_aftertouch_c, 0, 62, 28
1, 436591, Note_on_c, 0, 62, 52
1, 436594, Poly_aftertouch_c, 0, 59, 28
1, 436598, Note_on_c, 0, 59, 46
1, 436675, Note_off_c, 0, 62, 59
1, 436677, Note_off_c, 0, 71, 57
1, 436685, Note_off_c, 0, 59, 55
1, 436688, Note_off_c, 0, 52, 38
1, 436766, Note_off_c, 0, 48, 37
1, 436797, Poly_aftertouch_c, 0, 69, 28
1, 436801, Note_on_c, 0, 69, 80
1, 436821, Poly_aftertouch_c, 0, 60, 28
1, 436823, Note_on_c, 0, 60, 60
1, 436827, Poly_aftertouch_c, 0, 57, 28
1, 436832, Note_on_c, 0, 57, 52
1, 436889, Note_off_c, 0, 57, 61
1, 436896, Note_off_c, 0, 60, 58
1, 436942, Note_off_c, 0, 69, 57
1, 437048, Poly_aftertouch_c, 0, 71, 28
1, 437052, Note_on_c, 0, 71, 80
1, 437058, Poly_aftertouch_c, 0, 50, 28
1, 437064, Poly_aftertouch_c, 0, 42, 28
1, 437066, Poly_aftertouch_c, 0, 54, 28
1, 437066, Control_c, 0, 64, 96
1, 437067, Poly_aftertouch_c, 0, 62, 28
1, 437070, Note_on_c, 0, 42, 45
1, 437071, Note_on_c, 0, 50, 44
1, 437074, Note_on_c, 0, 62, 67
1, 437077, Note_on_c, 0, 54, 50
1, 437082, Poly_aftertouch_c, 0, 59, 28
1, 437083, Note_on_c, 0, 59, 55
1, 437085, Control_c, 0, 64, 70
1, 437104, Control_c, 0, 64, 51
1, 437105, Control_c, 0, 67, 51
1, 437123, Control_c, 0, 64, 38
1, 437178, Control_c, 0, 64, 47
1, 437198, Control_c, 0, 64, 59
1, 437204, Note_off_c, 0, 54, 60
1, 437213, Note_off_c, 0, 42, 60
1, 437216, Control_c, 0, 64, 69
1, 437235, Control_c, 0, 64, 79
1, 437254, Control_c, 0, 64, 91
1, 437272, Control_c, 0, 64, 109
1, 437291, Control_c, 0, 64, 127
1, 437296, Poly_aftertouch_c, 0, 43, 28
1, 437297, Poly_aftertouch_c, 0, 55, 28
1, 437303, Note_on_c, 0, 43, 54
1, 437303, Note_on_c, 0, 55, 62
1, 437346, Note_off_c, 0, 59, 52
1, 437346, Control_c, 0, 67, 47
1, 437387, Note_off_c, 0, 43, 59
1, 437403, Control_c, 0, 67, 41
1, 437408, Note_off_c, 0, 55, 56
1, 437413, Note_off_c, 0, 62, 56
1, 437430, Note_off_c, 0, 50, 40
1, 437440, Control_c, 0, 67, 36
1, 437537, Note_off_c, 0, 71, 49
1, 437540, Poly_aftertouch_c, 0, 57, 28
1, 437546, Poly_aftertouch_c, 0, 45, 28
1, 437549, Note_on_c, 0, 57, 71
1, 437550, Note_on_c, 0, 45, 67
1, 437641, Note_off_c, 0, 57, 59
1, 437649, Note_off_c, 0, 45, 55
1, 437943, Poly_aftertouch_c, 0, 76, 28
1, 437945, Control_c, 0, 64, 82
1, 437946, Note_on_c, 0, 76, 82
1, 437962, Poly_aftertouch_c, 0, 48, 28
1, 437963, Control_c, 0, 64, 56
1, 437967, Note_on_c, 0, 48, 43
1, 437969, Poly_aftertouch_c, 0, 43, 28
1, 437970, Poly_aftertouch_c, 0, 55, 28
1, 437972, Poly_aftertouch_c, 0, 72, 28
1, 437976, Note_on_c, 0, 72, 59
1, 437979, Note_on_c, 0, 55, 36
1, 437979, Poly_aftertouch_c, 0, 64, 28
1, 437980, Note_on_c, 0, 43, 32
1, 437983, Control_c, 0, 64, 32
1, 437985, Note_on_c, 0, 64, 41
1, 438002, Control_c, 0, 64, 19
1, 438059, Control_c, 0, 64, 30
1, 438078, Control_c, 0, 64, 44
1, 438096, Control_c, 0, 64, 65
1, 438114, Control_c, 0, 64, 85
1, 438134, Control_c, 0, 64, 127
1, 438161, Note_off_c, 0, 76, 63
1, 438164, Note_off_c, 0, 64, 56
1, 438178, Note_off_c, 0, 72, 60
1, 438292, Poly_aftertouch_c, 0, 74, 28
1, 438296, Poly_aftertouch_c, 0, 50, 28
1, 438297, Note_on_c, 0, 74, 81
1, 438304, Note_on_c, 0, 50, 57
1, 438316, Poly_aftertouch_c, 0, 71, 28
1, 438319, Note_on_c, 0, 71, 65
1, 438321, Poly_aftertouch_c, 0, 62, 28
1, 438326, Note_on_c, 0, 62, 57
1, 438393, Note_off_c, 0, 62, 43
1, 438397, Note_off_c, 0, 48, 34
1, 438418, Note_off_c, 0, 71, 55
1, 438422, Note_off_c, 0, 50, 61
1, 438431, Note_off_c, 0, 74, 61
1, 438531, Poly_aftertouch_c, 0, 72, 28
1, 438536, Note_on_c, 0, 72, 87
1, 438546, Poly_aftertouch_c, 0, 52, 28
1, 438549, Note_on_c, 0, 52, 64
1, 438551, Note_on_c, 0, 69, 76
1, 438551, Poly_aftertouch_c, 0, 69, 28
1, 438560, Poly_aftertouch_c, 0, 60, 28
1, 438562, Note_on_c, 0, 60, 61
1, 438606, Note_off_c, 0, 60, 57
1, 438624, Poly_aftertouch_c, 0, 55, 24
1, 438641, Note_off_c, 0, 52, 58
1, 438642, Note_off_c, 0, 69, 55
1, 438651, Note_off_c, 0, 72, 59
1, 438659, Note_off_c, 0, 43, 56
1, 438667, Note_off_c, 0, 55, 39
1, 438766, Poly_aftertouch_c, 0, 71, 28
1, 438770, Control_c, 0, 64, 92
1, 438772, Note_on_c, 0, 71, 84
1, 438773, Poly_aftertouch_c, 0, 50, 28
1, 438774, Poly_aftertouch_c, 0, 59, 28
1, 438775, Note_on_c, 0, 67, 80
1, 438777, Note_on_c, 0, 59, 77
1, 438779, Poly_aftertouch_c, 0, 67, 28
1, 438782, Note_on_c, 0, 50, 60
1, 438786, Note_on_c, 0, 55, 61
1, 438786, Poly_aftertouch_c, 0, 43, 28
1, 438786, Poly_aftertouch_c, 0, 55, 28
1, 438788, Control_c, 0, 64, 69
1, 438790, Note_on_c, 0, 43, 47
1, 438808, Control_c, 0, 64, 58
1, 438817, Note_off_c, 0, 59, 61
1, 438845, Control_c, 0, 64, 64
1, 438863, Control_c, 0, 64, 70
1, 438864, Note_off_c, 0, 67, 59
1, 438882, Control_c, 0, 64, 80
1, 438887, Note_off_c, 0, 71, 62
1, 438901, Control_c, 0, 64, 98
1, 438919, Control_c, 0, 64, 127
1, 438981, Poly_aftertouch_c, 0, 48, 28
1, 438984, Note_on_c, 0, 48, 73
1, 438985, Poly_aftertouch_c, 0, 69, 28
1, 438985, Poly_aftertouch_c, 0, 72, 28
1, 438986, Note_on_c, 0, 69, 82
1, 438990, Note_on_c, 0, 72, 84
1, 438991, Note_off_c, 0, 43, 53
1, 438992, Poly_aftertouch_c, 0, 60, 28
1, 438995, Note_on_c, 0, 60, 75
1, 439024, Note_off_c, 0, 55, 46
1, 439033, Note_off_c, 0, 60, 62
1, 439062, Note_off_c, 0, 72, 61
1, 439066, Note_off_c, 0, 50, 51
1, 439067, Note_off_c, 0, 69, 56
1, 439181, Poly_aftertouch_c, 0, 47, 28
1, 439187, Note_on_c, 0, 47, 77
1, 439189, Poly_aftertouch_c, 0, 71, 28
1, 439190, Poly_aftertouch_c, 0, 74, 28
1, 439192, Note_on_c, 0, 74, 87
1, 439193, Note_on_c, 0, 71, 81
1, 439197, Poly_aftertouch_c, 0, 62, 28
1, 439198, Note_on_c, 0, 62, 81
1, 439203, Note_off_c, 0, 48, 58
1, 439234, Note_off_c, 0, 71, 56
1, 439249, Note_off_c, 0, 47, 63
1, 439255, Note_off_c, 0, 74, 61
1, 439262, Note_off_c, 0, 62, 58
1, 439538, Control_c, 0, 64, 96
1, 439544, Poly_aftertouch_c, 0, 55, 28
1, 439551, Note_on_c, 0, 55, 95
1, 439556, Control_c, 0, 64, 64
1, 439565, Note_on_c, 0, 45, 69
1, 439566, Note_on_c, 0, 57, 80
1, 439568, Note_on_c, 0, 49, 70
1, 439570, Poly_aftertouch_c, 0, 43, 28
1, 439570, Poly_aftertouch_c, 0, 45, 28
1, 439570, Poly_aftertouch_c, 0, 49, 28
1, 439570, Poly_aftertouch_c, 0, 57, 28
1, 439571, Poly_aftertouch_c, 0, 64, 28
1, 439573, Note_on_c, 0, 43, 63
1, 439573, Control_c, 0, 64, 34
1, 439575, Note_on_c, 0, 69, 75
1, 439576, Note_on_c, 0, 64, 63
1, 439577, Poly_aftertouch_c, 0, 69, 28
1, 439599, Poly_aftertouch_c, 0, 61, 28
1, 439602, Control_c, 0, 64, 10
1, 439605, Note_on_c, 0, 61, 60
1, 439649, Control_c, 0, 64, 15
1, 439668, Control_c, 0, 64, 28
1, 439687, Control_c, 0, 64, 48
1, 439705, Control_c, 0, 64, 75
1, 439716, Note_off_c, 0, 57, 60
1, 439723, Control_c, 0, 64, 127
1, 439726, Control_c, 0, 67, 32
1, 439751, Note_off_c, 0, 61, 59
1, 439760, Note_off_c, 0, 64, 61
1, 439761, Control_c, 0, 67, 22
1, 439781, Note_off_c, 0, 43, 59
1, 439783, Note_off_c, 0, 69, 61
1, 439800, Control_c, 0, 67, 0
1, 439808, Note_off_c, 0, 49, 57
1, 439809, Note_off_c, 0, 55, 57
1, 439817, Note_off_c, 0, 45, 24
1, 439824, Note_on_c, 0, 49, 9
1, 439825, Note_off_c, 0, 49, 127
1, 439985, Poly_aftertouch_c, 0, 54, 28
1, 439991, Note_on_c, 0, 54, 92
1, 439994, Poly_aftertouch_c, 0, 42, 28
1, 439998, Note_on_c, 0, 42, 82
1, 440126, Poly_aftertouch_c, 0, 73, 28
1, 440127, Poly_aftertouch_c, 0, 79, 28
1, 440127, Poly_aftertouch_c, 0, 81, 28
1, 440130, Note_on_c, 0, 81, 78
1, 440133, Note_on_c, 0, 73, 74
1, 440133, Note_on_c, 0, 69, 76
1, 440135, Note_on_c, 0, 79, 73
1, 440137, Note_off_c, 0, 42, 62
1, 440138, Note_off_c, 0, 54, 63
1, 440140, Poly_aftertouch_c, 0, 69, 28
1, 440186, Note_off_c, 0, 73, 59
1, 440199, Note_off_c, 0, 69, 57
1, 440223, Note_off_c, 0, 79, 60
1, 440231, Note_off_c, 0, 81, 61
1, 440239, Poly_aftertouch_c, 0, 52, 28
1, 440242, Note_on_c, 0, 52, 91
1, 440248, Poly_aftertouch_c, 0, 40, 28
1, 440249, Note_on_c, 0, 40, 85
1, 440368, Note_off_c, 0, 40, 57
1, 440369, Note_off_c, 0, 52, 53
1, 440437, Control_c, 0, 64, 92
1, 440454, Control_c, 0, 64, 59
1, 440472, Poly_aftertouch_c, 0, 50, 28
1, 440473, Control_c, 0, 64, 25
1, 440474, Note_on_c, 0, 50, 93
1, 440476, Note_on_c, 0, 81, 83
1, 440476, Note_on_c, 0, 78, 81
1, 440478, Note_on_c, 0, 72, 81
1, 440479, Note_off_c, 0, 72, 127
1, 440480, Poly_aftertouch_c, 0, 69, 28
1, 440480, Poly_aftertouch_c, 0, 72, 28
1, 440481, Poly_aftertouch_c, 0, 78, 28
1, 440481, Poly_aftertouch_c, 0, 81, 28
1, 440484, Note_on_c, 0, 69, 81
1, 440485, Note_on_c, 0, 38, 79
1, 440488, Note_on_c, 0, 45, 71
1, 440489, Note_off_c, 0, 45, 127
1, 440492, Poly_aftertouch_c, 0, 38, 28
1, 440492, Poly_aftertouch_c, 0, 45, 28
1, 440492, Control_c, 0, 64, 13
1, 440529, Control_c, 0, 64, 27
1, 440535, Poly_aftertouch_c, 0, 72, 127
1, 440539, Note_off_c, 0, 81, 63
1, 440546, Poly_aftertouch_c, 0, 45, 127
1, 440548, Control_c, 0, 64, 47
1, 440565, Poly_aftertouch_c, 0, 72, 0
1, 440565, Control_c, 0, 64, 74
1, 440578, Note_off_c, 0, 78, 63
1, 440584, Control_c, 0, 64, 127
1, 440590, Note_off_c, 0, 69, 60
1, 440592, Note_off_c, 0, 38, 61
1, 440598, Poly_aftertouch_c, 0, 45, 0
1, 440625, Note_off_c, 0, 50, 60
1, 440708, Poly_aftertouch_c, 0, 52, 28
1, 440711, Note_on_c, 0, 52, 96
1, 440713, Note_on_c, 0, 40, 88
1, 440713, Poly_aftertouch_c, 0, 40, 28
1, 440773, Note_off_c, 0, 40, 62
1, 440789, Note_off_c, 0, 52, 60
1, 440828, Poly_aftertouch_c, 0, 62, 28
1, 440830, Note_on_c, 0, 62, 86
1, 440832, Poly_aftertouch_c, 0, 69, 28
1, 440832, Poly_aftertouch_c, 0, 72, 28
1, 440833, Poly_aftertouch_c, 0, 74, 28
1, 440835, Note_on_c, 0, 74, 86
1, 440836, Note_on_c, 0, 69, 80
1, 440837, Note_on_c, 0, 72, 82
1, 440908, Note_off_c, 0, 62, 56
1, 440952, Note_off_c, 0, 74, 59
1, 440959, Poly_aftertouch_c, 0, 54, 28
1, 440961, Note_on_c, 0, 54, 101
1, 440965, Poly_aftertouch_c, 0, 42, 28
1, 440966, Note_on_c, 0, 42, 92
1, 440969, Note_off_c, 0, 69, 60
1, 440979, Note_off_c, 0, 72, 60
1, 441011, Note_off_c, 0, 42, 57
1, 441041, Note_off_c, 0, 54, 51
1, 441128, Poly_aftertouch_c, 0, 43, 28
1, 441144, Note_on_c, 0, 43, 48
1, 441193, Poly_aftertouch_c, 0, 50, 28
1, 441201, Note_on_c, 0, 50, 75
1, 441353, Control_c, 0, 64, 89
1, 441371, Control_c, 0, 64, 52
1, 441390, Poly_aftertouch_c, 0, 83, 28
1, 441392, Note_on_c, 0, 83, 101
1, 441398, Note_on_c, 0, 79, 88
1, 441399, Poly_aftertouch_c, 0, 71, 28
1, 441399, Poly_aftertouch_c, 0, 74, 28
1, 441400, Poly_aftertouch_c, 0, 79, 28
1, 441402, Note_on_c, 0, 71, 96
1, 441403, Note_on_c, 0, 74, 84
1, 441408, Poly_aftertouch_c, 0, 55, 28
1, 441409, Control_c, 0, 64, 0
1, 441413, Note_on_c, 0, 55, 91
1, 441483, Control_c, 0, 64, 18
1, 441502, Control_c, 0, 64, 45
1, 441511, Note_off_c, 0, 55, 63
1, 441519, Note_off_c, 0, 50, 64
1, 441521, Control_c, 0, 64, 78
1, 441541, Control_c, 0, 64, 127
1, 441550, Note_off_c, 0, 43, 64
1, 441762, Poly_aftertouch_c, 0, 38, 28
1, 441768, Note_on_c, 0, 38, 80
1, 441780, Note_off_c, 0, 71, 51
1, 441789, Note_off_c, 0, 74, 54
1, 441849, Note_off_c, 0, 83, 50
1, 441864, Note_off_c, 0, 79, 53
1, 441914, Note_off_c, 0, 38, 60
1, 441975, Poly_aftertouch_c, 0, 31, 28
1, 441979, Note_on_c, 0, 31, 83
1, 442019, Note_off_c, 0, 31, 67
1, 442358, Poly_aftertouch_c, 0, 84, 28
1, 442360, Note_on_c, 0, 84, 106
1, 442363, Control_c, 0, 64, 76
1, 442365, Poly_aftertouch_c, 0, 76, 28
1, 442367, Note_on_c, 0, 76, 83
1, 442371, Note_on_c, 0, 54, 77
1, 442373, Note_on_c, 0, 72, 88
1, 442375, Note_on_c, 0, 48, 66
1, 442376, Poly_aftertouch_c, 0, 42, 28
1, 442378, Note_on_c, 0, 42, 74
1, 442379, Poly_aftertouch_c, 0, 48, 28
1, 442379, Poly_aftertouch_c, 0, 54, 28
1, 442382, Poly_aftertouch_c, 0, 72, 28
1, 442382, Control_c, 0, 64, 43
1, 442398, Poly_aftertouch_c, 0, 82, 28
1, 442404, Note_on_c, 0, 82, 55
1, 442420, Control_c, 0, 64, 0
1, 442443, Note_off_c, 0, 82, 67
1, 442457, Control_c, 0, 64, 20
1, 442476, Control_c, 0, 64, 45
1, 442495, Control_c, 0, 64, 77
1, 442513, Control_c, 0, 64, 127
1, 442559, Note_off_c, 0, 54, 61
1, 442563, Note_off_c, 0, 42, 61
1, 442584, Note_off_c, 0, 48, 56
1, 442670, Note_off_c, 0, 72, 51
1, 442695, Note_off_c, 0, 84, 57
1, 442699, Poly_aftertouch_c, 0, 82, 28
1, 442707, Poly_aftertouch_c, 0, 55, 28
1, 442713, Note_on_c, 0, 55, 88
1, 442713, Note_on_c, 0, 43, 88
1, 442714, Note_on_c, 0, 82, 30
1, 442714, Poly_aftertouch_c, 0, 43, 28
1, 442743, Note_off_c, 0, 76, 61
1, 442762, Note_off_c, 0, 82, 52
1, 442786, Note_off_c, 0, 43, 57
1, 442812, Note_off_c, 0, 55, 60
1, 442935, Poly_aftertouch_c, 0, 57, 28
1, 442938, Note_on_c, 0, 57, 92
1, 442941, Note_on_c, 0, 45, 87
1, 442941, Poly_aftertouch_c, 0, 45, 28
1, 442981, Note_off_c, 0, 45, 60
1, 442996, Note_off_c, 0, 57, 66
1, 443081, Note_on_c, 0, 43, 88
1, 443081, Poly_aftertouch_c, 0, 43, 28
1, 443147, Poly_aftertouch_c, 0, 48, 28
1, 443151, Note_on_c, 0, 48, 78
1, 443238, Poly_aftertouch_c, 0, 52, 28
1, 443242, Note_on_c, 0, 52, 77
1, 443299, Control_c, 0, 64, 103
1, 443318, Control_c, 0, 64, 62
1, 443338, Control_c, 0, 64, 21
1, 443339, Poly_aftertouch_c, 0, 88, 28
1, 443343, Note_on_c, 0, 88, 95
1, 443345, Poly_aftertouch_c, 0, 76, 28
1, 443345, Poly_aftertouch_c, 0, 84, 28
1, 443348, Note_on_c, 0, 84, 92
1, 443350, Note_on_c, 0, 76, 95
1, 443352, Note_on_c, 0, 55, 94
1, 443355, Poly_aftertouch_c, 0, 55, 28
1, 443356, Control_c, 0, 64, 0
1, 443431, Control_c, 0, 64, 26
1, 443445, Note_off_c, 0, 55, 64
1, 443451, Control_c, 0, 64, 54
1, 443453, Note_off_c, 0, 43, 58
1, 443468, Control_c, 0, 64, 84
1, 443478, Note_off_c, 0, 52, 61
1, 443487, Control_c, 0, 64, 127
1, 443489, Note_off_c, 0, 88, 59
1, 443503, Note_off_c, 0, 48, 62
1, 443557, Note_off_c, 0, 76, 56
1, 443572, Note_off_c, 0, 84, 56
1, 443756, Poly_aftertouch_c, 0, 86, 28
1, 443762, Note_on_c, 0, 86, 89
1, 443762, Note_on_c, 0, 83, 81
1, 443765, Note_on_c, 0, 74, 87
1, 443766, Poly_aftertouch_c, 0, 74, 28
1, 443766, Poly_aftertouch_c, 0, 83, 28
1, 443872, Poly_aftertouch_c, 0, 36, 28
1, 443878, Note_on_c, 0, 24, 88
1, 443878, Note_on_c, 0, 36, 88
1, 443879, Poly_aftertouch_c, 0, 24, 28
1, 443883, Note_off_c, 0, 86, 61
1, 443895, Note_off_c, 0, 83, 62
1, 443895, Note_off_c, 0, 74, 58
1, 443917, Note_off_c, 0, 24, 61
1, 443941, Note_off_c, 0, 36, 61
1, 444020, Poly_aftertouch_c, 0, 81, 28
1, 444021, Poly_aftertouch_c, 0, 84, 28
1, 444024, Note_on_c, 0, 81, 87
1, 444025, Note_on_c, 0, 84, 89
1, 444025, Note_on_c, 0, 72, 90
1, 444029, Poly_aftertouch_c, 0, 72, 28
1, 444162, Note_off_c, 0, 72, 57
1, 444190, Note_off_c, 0, 84, 62
1, 444193, Note_off_c, 0, 81, 61
1, 444274, Control_c, 0, 64, 94
1, 444281, Poly_aftertouch_c, 0, 86, 28
1, 444286, Poly_aftertouch_c, 0, 50, 28
1, 444286, Poly_aftertouch_c, 0, 54, 28
1, 444288, Note_on_c, 0, 86, 99
1, 444292, Note_on_c, 0, 50, 82
1, 444292, Note_on_c, 0, 83, 93
1, 444292, Control_c, 0, 64, 56
1, 444293, Note_on_c, 0, 74, 98
1, 444294, Note_on_c, 0, 54, 89
1, 444297, Poly_aftertouch_c, 0, 74, 28
1, 444298, Poly_aftertouch_c, 0, 83, 28
1, 444301, Note_on_c, 0, 42, 81
1, 444302, Note_off_c, 0, 42, 127
1, 444304, Poly_aftertouch_c, 0, 42, 28
1, 444310, Control_c, 0, 64, 13
1, 444329, Control_c, 0, 64, 0
1, 444354, Poly_aftertouch_c, 0, 42, 127
1, 444404, Control_c, 0, 64, 21
1, 444423, Control_c, 0, 64, 48
1, 444442, Control_c, 0, 64, 76
1, 444460, Control_c, 0, 64, 109
1, 444479, Control_c, 0, 64, 127
1, 444491, Note_off_c, 0, 54, 62
1, 444504, Poly_aftertouch_c, 0, 42, 0
1, 444532, Note_off_c, 0, 50, 60
1, 444625, Poly_aftertouch_c, 0, 43, 28
1, 444626, Poly_aftertouch_c, 0, 55, 28
1, 444627, Note_on_c, 0, 55, 94
1, 444627, Note_on_c, 0, 43, 91
1, 444649, Note_off_c, 0, 86, 59
1, 444677, Note_off_c, 0, 74, 55
1, 444748, Note_off_c, 0, 83, 59
1, 444755, Note_off_c, 0, 43, 59
1, 444767, Note_off_c, 0, 55, 58
1, 444904, Poly_aftertouch_c, 0, 45, 28
1, 444905, Poly_aftertouch_c, 0, 57, 28
1, 444907, Note_on_c, 0, 57, 97
1, 444908, Note_on_c, 0, 45, 93
1, 444981, Note_off_c, 0, 45, 58
1, 444985, Note_off_c, 0, 57, 56
1, 445111, Poly_aftertouch_c, 0, 43, 28
1, 445113, Note_on_c, 0, 43, 85
1, 445208, Poly_aftertouch_c, 0, 48, 28
1, 445212, Note_on_c, 0, 48, 83
1, 445317, Poly_aftertouch_c, 0, 52, 28
1, 445320, Note_on_c, 0, 52, 83
1, 445433, Control_c, 0, 64, 99
1, 445451, Poly_aftertouch_c, 0, 79, 28
1, 445451, Control_c, 0, 64, 67
1, 445452, Poly_aftertouch_c, 0, 88, 28
1, 445453, Poly_aftertouch_c, 0, 91, 28
1, 445455, Note_on_c, 0, 88, 93
1, 445455, Note_on_c, 0, 91, 100
1, 445456, Note_on_c, 0, 79, 102
1, 445458, Note_on_c, 0, 55, 97
1, 445462, Poly_aftertouch_c, 0, 55, 28
1, 445475, Control_c, 0, 64, 38
1, 445489, Control_c, 0, 64, 0
1, 445601, Control_c, 0, 64, 12
1, 445621, Control_c, 0, 64, 28
1, 445625, Note_off_c, 0, 55, 55
1, 445639, Control_c, 0, 64, 54
1, 445657, Control_c, 0, 64, 81
1, 445677, Control_c, 0, 64, 127
1, 445689, Note_off_c, 0, 43, 50
1, 445706, Note_off_c, 0, 52, 56
1, 445708, Note_off_c, 0, 91, 55
1, 445749, Note_off_c, 0, 48, 58
1, 445770, Note_off_c, 0, 79, 57
1, 446049, Note_off_c, 0, 88, 65
1, 446077, Poly_aftertouch_c, 0, 86, 28
1, 446078, Note_on_c, 0, 86, 89
1, 446078, Poly_aftertouch_c, 0, 90, 28
1, 446084, Poly_aftertouch_c, 0, 78, 28
1, 446086, Note_on_c, 0, 90, 97
1, 446087, Note_on_c, 0, 78, 91
1, 446154, Note_off_c, 0, 86, 63
1, 446195, Note_off_c, 0, 78, 59
1, 446200, Note_off_c, 0, 90, 66
1, 446272, Poly_aftertouch_c, 0, 24, 28
1, 446274, Note_on_c, 0, 24, 85
1, 446279, Poly_aftertouch_c, 0, 36, 28
1, 446281, Note_on_c, 0, 36, 85
1, 446312, Note_on_c, 0, 23, 35
1, 446313, Note_off_c, 0, 24, 65
1, 446313, Note_off_c, 0, 23, 127
1, 446321, Note_off_c, 0, 36, 63
1, 446325, Poly_aftertouch_c, 0, 23, 28
1, 446369, Poly_aftertouch_c, 0, 23, 0
1, 446447, Poly_aftertouch_c, 0, 84, 28
1, 446448, Poly_aftertouch_c, 0, 88, 28
1, 446451, Note_on_c, 0, 88, 90
1, 446451, Note_on_c, 0, 84, 87
1, 446453, Note_on_c, 0, 76, 90
1, 446456, Poly_aftertouch_c, 0, 76, 28
1, 446593, Note_off_c, 0, 88, 57
1, 446623, Poly_aftertouch_c, 0, 43, 28
1, 446639, Note_off_c, 0, 84, 61
1, 446639, Note_on_c, 0, 43, 55
1, 446651, Note_off_c, 0, 76, 59
1, 446670, Control_c, 0, 64, 114
1, 446677, Poly_aftertouch_c, 0, 50, 28
1, 446683, Note_on_c, 0, 50, 53
1, 446686, Control_c, 0, 64, 72
1, 446707, Control_c, 0, 64, 41
1, 446722, Note_off_c, 0, 43, 61
1, 446724, Control_c, 0, 64, 20
1, 446747, Poly_aftertouch_c, 0, 59, 28
1, 446749, Poly_aftertouch_c, 0, 86, 28
1, 446752, Note_on_c, 0, 59, 90
1, 446752, Note_on_c, 0, 86, 86
1, 446755, Note_on_c, 0, 83, 81
1, 446756, Note_on_c, 0, 74, 91
1, 446760, Poly_aftertouch_c, 0, 74, 28
1, 446760, Poly_aftertouch_c, 0, 83, 28
1, 446762, Control_c, 0, 64, 31
1, 446780, Note_on_c, 0, 84, 58
1, 446780, Control_c, 0, 64, 51
1, 446781, Note_off_c, 0, 84, 127
1, 446789, Note_off_c, 0, 59, 64
1, 446791, Note_on_c, 0, 81, 47
1, 446792, Note_off_c, 0, 81, 127
1, 446798, Control_c, 0, 64, 76
1, 446819, Control_c, 0, 64, 121
1, 446822, Note_off_c, 0, 50, 63
1, 446838, Control_c, 0, 64, 127
1, 446903, Note_off_c, 0, 86, 61
1, 446911, Note_off_c, 0, 74, 54
1, 446934, Note_off_c, 0, 83, 60
1, 447017, Poly_aftertouch_c, 0, 84, 28
1, 447024, Note_on_c, 0, 84, 88
1, 447028, Note_on_c, 0, 81, 82
1, 447029, Poly_aftertouch_c, 0, 72, 28
1, 447030, Poly_aftertouch_c, 0, 81, 28
1, 447032, Note_on_c, 0, 72, 84
1, 447112, Poly_aftertouch_c, 0, 43, 28
1, 447113, Note_on_c, 0, 43, 85
1, 447116, Poly_aftertouch_c, 0, 31, 28
1, 447119, Note_on_c, 0, 31, 69
1, 447120, Note_off_c, 0, 72, 54
1, 447135, Note_off_c, 0, 84, 63
1, 447155, Note_off_c, 0, 31, 58
1, 447158, Note_off_c, 0, 81, 60
1, 447167, Note_off_c, 0, 43, 61
1, 447243, Poly_aftertouch_c, 0, 71, 28
1, 447244, Poly_aftertouch_c, 0, 79, 28
1, 447245, Poly_aftertouch_c, 0, 83, 28
1, 447246, Note_on_c, 0, 83, 90
1, 447247, Note_on_c, 0, 71, 88
1, 447248, Note_on_c, 0, 79, 82
1, 447250, Poly_aftertouch_c, 0, 33, 28
1, 447251, Poly_aftertouch_c, 0, 33, 0
1, 447290, Note_off_c, 0, 71, 60
1, 447298, Note_off_c, 0, 79, 59
1, 447325, Note_off_c, 0, 83, 65
1, 447396, Poly_aftertouch_c, 0, 48, 28
1, 447402, Note_on_c, 0, 48, 69
1, 447441, Poly_aftertouch_c, 0, 51, 28
1, 447447, Note_on_c, 0, 51, 66
1, 447514, Poly_aftertouch_c, 0, 55, 28
1, 447519, Note_on_c, 0, 55, 63
1, 447604, Control_c, 0, 64, 82
1, 447624, Control_c, 0, 64, 50
1, 447637, Poly_aftertouch_c, 0, 60, 28
1, 447642, Control_c, 0, 64, 11
1, 447643, Note_on_c, 0, 60, 97
1, 447646, Note_on_c, 0, 91, 78
1, 447647, Poly_aftertouch_c, 0, 79, 28
1, 447648, Poly_aftertouch_c, 0, 87, 28
1, 447649, Poly_aftertouch_c, 0, 91, 28
1, 447651, Note_on_c, 0, 87, 76
1, 447652, Note_on_c, 0, 79, 76
1, 447660, Control_c, 0, 64, 0
1, 447716, Control_c, 0, 64, 15
1, 447736, Control_c, 0, 64, 37
1, 447755, Control_c, 0, 64, 67
1, 447774, Control_c, 0, 64, 102
1, 447788, Note_off_c, 0, 55, 52
1, 447791, Control_c, 0, 64, 127
1, 447809, Note_off_c, 0, 48, 50
1, 447812, Note_off_c, 0, 91, 53
1, 447862, Note_off_c, 0, 51, 54
1, 447867, Note_off_c, 0, 79, 57
1, 447870, Note_off_c, 0, 60, 58
1, 447875, Poly_aftertouch_c, 0, 51, 0
1, 447914, Note_off_c, 0, 87, 42
1, 447957, Poly_aftertouch_c, 0, 86, 28
1, 447957, Poly_aftertouch_c, 0, 89, 28
1, 447960, Note_on_c, 0, 89, 79
1, 447962, Note_on_c, 0, 86, 76
1, 447963, Note_on_c, 0, 77, 82
1, 447965, Poly_aftertouch_c, 0, 77, 28
1, 448038, Note_off_c, 0, 77, 59
1, 448056, Note_off_c, 0, 89, 59
1, 448081, Poly_aftertouch_c, 0, 63, 28
1, 448086, Note_on_c, 0, 63, 105
1, 448089, Note_off_c, 0, 86, 60
1, 448106, Poly_aftertouch_c, 0, 51, 28
1, 448108, Note_on_c, 0, 51, 79
1, 448131, Note_off_c, 0, 51, 65
1, 448234, Note_off_c, 0, 63, 59
1, 448237, Poly_aftertouch_c, 0, 75, 28
1, 448238, Poly_aftertouch_c, 0, 84, 28
1, 448239, Poly_aftertouch_c, 0, 87, 28
1, 448241, Note_on_c, 0, 87, 87
1, 448241, Note_on_c, 0, 75, 87
1, 448242, Note_on_c, 0, 84, 80
1, 448311, Note_off_c, 0, 84, 60
1, 448328, Note_off_c, 0, 75, 54
1, 448357, Note_off_c, 0, 87, 64
1, 448381, Poly_aftertouch_c, 0, 55, 28
1, 448388, Note_on_c, 0, 55, 67
1, 448426, Poly_aftertouch_c, 0, 58, 28
1, 448431, Note_on_c, 0, 58, 68
1, 448477, Poly_aftertouch_c, 0, 62, 28
1, 448485, Note_on_c, 0, 62, 64
1, 448579, Control_c, 0, 64, 106
1, 448598, Control_c, 0, 64, 65
1, 448606, Poly_aftertouch_c, 0, 82, 28
1, 448611, Note_on_c, 0, 82, 77
1, 448613, Poly_aftertouch_c, 0, 74, 28
1, 448614, Poly_aftertouch_c, 0, 86, 28
1, 448615, Note_on_c, 0, 74, 80
1, 448617, Note_on_c, 0, 86, 78
1, 448617, Control_c, 0, 64, 27
1, 448621, Note_on_c, 0, 67, 103
1, 448622, Poly_aftertouch_c, 0, 67, 28
1, 448634, Control_c, 0, 64, 0
1, 448691, Control_c, 0, 64, 9
1, 448709, Control_c, 0, 64, 32
1, 448728, Control_c, 0, 64, 64
1, 448747, Control_c, 0, 64, 105
1, 448764, Note_off_c, 0, 67, 61
1, 448765, Control_c, 0, 64, 127
1, 448776, Note_off_c, 0, 62, 60
1, 448811, Note_off_c, 0, 86, 59
1, 448818, Note_off_c, 0, 58, 63
1, 448826, Note_off_c, 0, 55, 63
1, 448857, Note_off_c, 0, 74, 56
1, 448870, Note_off_c, 0, 82, 55
1, 448979, Poly_aftertouch_c, 0, 81, 28
1, 448980, Poly_aftertouch_c, 0, 84, 28
1, 448982, Note_on_c, 0, 81, 74
1, 448983, Note_on_c, 0, 84, 80
1, 448987, Poly_aftertouch_c, 0, 72, 28
1, 448989, Note_on_c, 0, 72, 79
1, 449056, Note_off_c, 0, 72, 60
1, 449084, Note_off_c, 0, 84, 62
1, 449092, Poly_aftertouch_c, 0, 43, 28
1, 449094, Note_off_c, 0, 81, 58
1, 449097, Poly_aftertouch_c, 0, 31, 28
1, 449103, Note_on_c, 0, 31, 79
1, 449106, Note_on_c, 0, 43, 50
1, 449141, Note_off_c, 0, 31, 63
1, 449164, Note_off_c, 0, 43, 62
1, 449251, Poly_aftertouch_c, 0, 70, 28
1, 449251, Poly_aftertouch_c, 0, 79, 28
1, 449254, Note_on_c, 0, 79, 84
1, 449258, Note_on_c, 0, 70, 89
1, 449259, Note_on_c, 0, 82, 88
1, 449261, Poly_aftertouch_c, 0, 82, 28
1, 449334, Note_off_c, 0, 79, 60
1, 449367, Note_off_c, 0, 70, 39
1, 449793, Poly_aftertouch_c, 0, 84, 28
1, 449796, Note_on_c, 0, 84, 89
1, 449799, Poly_aftertouch_c, 0, 63, 28
1, 449802, Note_on_c, 0, 72, 87
1, 449803, Note_on_c, 0, 80, 81
1, 449804, Note_on_c, 0, 67, 99
1, 449806, Note_on_c, 0, 63, 75
1, 449806, Note_on_c, 0, 75, 80
1, 449809, Note_on_c, 0, 60, 65
1, 449810, Poly_aftertouch_c, 0, 67, 28
1, 449811, Poly_aftertouch_c, 0, 72, 28
1, 449811, Poly_aftertouch_c, 0, 75, 28
1, 449812, Poly_aftertouch_c, 0, 80, 28
1, 449812, Control_c, 0, 64, 103
1, 449819, Note_on_c, 0, 55, 68
1, 449820, Note_off_c, 0, 55, 127
1, 449820, Poly_aftertouch_c, 0, 55, 28
1, 449820, Poly_aftertouch_c, 0, 60, 28
1, 449841, Control_c, 0, 64, 65
1, 449844, Note_off_c, 0, 82, 56
1, 449851, Control_c, 0, 64, 31
1, 449869, Control_c, 0, 64, 0
1, 449878, Poly_aftertouch_c, 0, 55, 127
1, 449925, Control_c, 0, 64, 8
1, 449944, Control_c, 0, 64, 27
1, 449965, Control_c, 0, 64, 51
1, 449971, Note_off_c, 0, 60, 55
1, 449982, Control_c, 0, 64, 76
1, 450001, Control_c, 0, 64, 115
1, 450019, Control_c, 0, 64, 127
1, 450022, Note_off_c, 0, 63, 57
1, 450059, Poly_aftertouch_c, 0, 55, 0
1, 450064, Note_off_c, 0, 67, 57
1, 450239, Poly_aftertouch_c, 0, 65, 28
1, 450244, Note_on_c, 0, 65, 92
1, 450252, Poly_aftertouch_c, 0, 53, 28
1, 450256, Note_on_c, 0, 53, 86
1, 450294, Note_off_c, 0, 53, 64
1, 450334, Note_off_c, 0, 65, 61
1, 450476, Poly_aftertouch_c, 0, 63, 28
1, 450479, Note_on_c, 0, 63, 97
1, 450486, Poly_aftertouch_c, 0, 51, 28
1, 450489, Note_on_c, 0, 51, 84
1, 450508, Note_off_c, 0, 75, 51
1, 450519, Note_off_c, 0, 51, 69
1, 450538, Note_off_c, 0, 63, 63
1, 450538, Note_off_c, 0, 72, 58
1, 450557, Note_off_c, 0, 80, 37
1, 450886, Poly_aftertouch_c, 0, 72, 28
1, 450887, Poly_aftertouch_c, 0, 74, 28
1, 450889, Note_on_c, 0, 74, 72
1, 450889, Note_on_c, 0, 72, 88
1, 450895, Poly_aftertouch_c, 0, 65, 28
1, 450896, Poly_aftertouch_c, 0, 80, 28
1, 450900, Note_on_c, 0, 80, 73
1, 450900, Note_on_c, 0, 65, 92
1, 450902, Note_on_c, 0, 62, 79
1, 450904, Note_on_c, 0, 56, 70
1, 450906, Poly_aftertouch_c, 0, 56, 28
1, 450906, Poly_aftertouch_c, 0, 62, 28
1, 450915, Note_on_c, 0, 53, 68
1, 450915, Poly_aftertouch_c, 0, 53, 28
1, 450918, Control_c, 0, 64, 93
1, 450936, Control_c, 0, 64, 60
1, 450955, Control_c, 0, 64, 25
1, 450975, Control_c, 0, 64, 0
1, 451003, Note_off_c, 0, 84, 44
1, 451030, Control_c, 0, 64, 8
1, 451049, Control_c, 0, 64, 25
1, 451067, Control_c, 0, 64, 49
1, 451087, Control_c, 0, 64, 75
1, 451105, Control_c, 0, 64, 103
1, 451109, Note_off_c, 0, 74, 60
1, 451124, Control_c, 0, 64, 127
1, 451148, Note_off_c, 0, 72, 61
1, 451281, Poly_aftertouch_c, 0, 82, 28
1, 451285, Note_on_c, 0, 82, 86
1, 451292, Poly_aftertouch_c, 0, 70, 28
1, 451294, Note_on_c, 0, 70, 88
1, 451337, Note_off_c, 0, 80, 52
1, 451391, Note_off_c, 0, 70, 63
1, 451405, Note_off_c, 0, 82, 63
1, 451519, Note_on_c, 0, 68, 90
1, 451520, Poly_aftertouch_c, 0, 68, 28
1, 451520, Poly_aftertouch_c, 0, 80, 28
1, 451522, Note_on_c, 0, 80, 88
1, 451539, Note_off_c, 0, 56, 54
1, 451540, Note_off_c, 0, 62, 57
1, 451552, Note_off_c, 0, 65, 55
1, 451607, Note_off_c, 0, 68, 52
1, 451619, Note_off_c, 0, 80, 65
1, 451780, Control_c, 0, 64, 77
1, 451783, Poly_aftertouch_c, 0, 82, 28
1, 451789, Note_on_c, 0, 82, 86
1, 451791, Note_on_c, 0, 79, 80
1, 451793, Poly_aftertouch_c, 0, 62, 28
1, 451795, Note_on_c, 0, 70, 84
1, 451796, Note_on_c, 0, 62, 64
1, 451797, Note_on_c, 0, 74, 76
1, 451798, Note_off_c, 0, 74, 127
1, 451799, Note_on_c, 0, 65, 78
1, 451799, Control_c, 0, 64, 44
1, 451800, Note_off_c, 0, 65, 127
1, 451801, Poly_aftertouch_c, 0, 65, 28
1, 451801, Poly_aftertouch_c, 0, 70, 28
1, 451802, Poly_aftertouch_c, 0, 74, 28
1, 451802, Poly_aftertouch_c, 0, 79, 28
1, 451808, Poly_aftertouch_c, 0, 55, 28
1, 451811, Note_on_c, 0, 55, 60
1, 451835, Control_c, 0, 64, 0
1, 451853, Poly_aftertouch_c, 0, 65, 127
1, 451853, Poly_aftertouch_c, 0, 74, 127
1, 451872, Control_c, 0, 64, 13
1, 451891, Control_c, 0, 64, 34
1, 451898, Note_off_c, 0, 53, 59
1, 451912, Control_c, 0, 64, 63
1, 451921, Poly_aftertouch_c, 0, 65, 0
1, 451928, Control_c, 0, 64, 91
1, 451932, Note_off_c, 0, 62, 60
1, 451947, Control_c, 0, 64, 127
1, 451958, Note_off_c, 0, 55, 61
1, 452089, Note_on_c, 0, 63, 91
1, 452089, Poly_aftertouch_c, 0, 63, 28
1, 452100, Poly_aftertouch_c, 0, 51, 28
1, 452102, Note_on_c, 0, 51, 83
1, 452157, Note_off_c, 0, 63, 62
1, 452165, Note_off_c, 0, 51, 57
1, 452276, Poly_aftertouch_c, 0, 74, 0
1, 452278, Poly_aftertouch_c, 0, 50, 28
1, 452278, Poly_aftertouch_c, 0, 62, 28
1, 452283, Note_on_c, 0, 62, 91
1, 452284, Note_on_c, 0, 50, 87
1, 452286, Note_off_c, 0, 70, 57
1, 452300, Note_off_c, 0, 79, 57
1, 452327, Note_off_c, 0, 50, 62
1, 452343, Note_off_c, 0, 62, 63
1, 452570, Poly_aftertouch_c, 0, 55, 28
1, 452572, Note_on_c, 0, 72, 90
1, 452573, Note_on_c, 0, 70, 90
1, 452575, Note_on_c, 0, 79, 79
1, 452576, Note_on_c, 0, 55, 75
1, 452578, Note_on_c, 0, 60, 80
1, 452580, Note_on_c, 0, 63, 90
1, 452582, Poly_aftertouch_c, 0, 70, 28
1, 452583, Poly_aftertouch_c, 0, 72, 28
1, 452583, Poly_aftertouch_c, 0, 79, 28
1, 452586, Note_on_c, 0, 51, 77
1, 452587, Note_off_c, 0, 51, 127
1, 452589, Poly_aftertouch_c, 0, 51, 28
1, 452590, Poly_aftertouch_c, 0, 60, 28
1, 452591, Poly_aftertouch_c, 0, 63, 28
1, 452611, Control_c, 0, 64, 85
1, 452621, Control_c, 0, 64, 57
1, 452640, Control_c, 0, 64, 36
1, 452645, Poly_aftertouch_c, 0, 51, 127
1, 452659, Control_c, 0, 64, 24
1, 452674, Note_off_c, 0, 82, 65
1, 452717, Note_off_c, 0, 70, 63
1, 452733, Control_c, 0, 64, 30
1, 452752, Control_c, 0, 64, 47
1, 452771, Control_c, 0, 64, 67
1, 452790, Control_c, 0, 64, 82
1, 452808, Control_c, 0, 64, 102
1, 452818, Note_off_c, 0, 79, 41
1, 452827, Control_c, 0, 64, 127
1, 452838, Poly_aftertouch_c, 0, 80, 28
1, 452842, Note_on_c, 0, 80, 89
1, 452844, Poly_aftertouch_c, 0, 68, 28
1, 452847, Note_on_c, 0, 68, 87
1, 452873, Note_off_c, 0, 55, 54
1, 452881, Note_off_c, 0, 63, 57
1, 452957, Note_off_c, 0, 60, 50
1, 452966, Note_off_c, 0, 68, 53
1, 452970, Note_off_c, 0, 80, 61
1, 453052, Note_off_c, 0, 72, 55
1, 453085, Poly_aftertouch_c, 0, 79, 28
1, 453091, Note_on_c, 0, 79, 94
1, 453093, Poly_aftertouch_c, 0, 67, 28
1, 453095, Note_on_c, 0, 67, 91
1, 453171, Note_off_c, 0, 67, 57
1, 453200, Note_off_c, 0, 79, 62
1, 453473, Poly_aftertouch_c, 0, 80, 28
1, 453479, Note_on_c, 0, 80, 95
1, 453480, Poly_aftertouch_c, 0, 68, 28
1, 453480, Poly_aftertouch_c, 0, 77, 28
1, 453483, Note_on_c, 0, 77, 82
1, 453487, Note_on_c, 0, 68, 83
1, 453489, Poly_aftertouch_c, 0, 60, 28
1, 453489, Poly_aftertouch_c, 0, 63, 28
1, 453491, Note_on_c, 0, 72, 81
1, 453493, Note_on_c, 0, 60, 70
1, 453493, Poly_aftertouch_c, 0, 72, 28
1, 453497, Note_on_c, 0, 63, 74
1, 453499, Poly_aftertouch_c, 0, 53, 28
1, 453500, Control_c, 0, 64, 79
1, 453504, Note_on_c, 0, 53, 66
1, 453522, Control_c, 0, 64, 48
1, 453538, Control_c, 0, 64, 15
1, 453556, Control_c, 0, 64, 0
1, 453613, Control_c, 0, 64, 14
1, 453632, Control_c, 0, 64, 32
1, 453651, Control_c, 0, 64, 57
1, 453669, Control_c, 0, 64, 80
1, 453672, Note_off_c, 0, 60, 57
1, 453685, Note_off_c, 0, 63, 52
1, 453689, Control_c, 0, 64, 117
1, 453690, Note_off_c, 0, 53, 58
1, 453707, Control_c, 0, 64, 127
1, 453716, Poly_aftertouch_c, 0, 51, 0
1, 453870, Poly_aftertouch_c, 0, 62, 28
1, 453875, Note_on_c, 0, 62, 77
1, 453877, Poly_aftertouch_c, 0, 50, 28
1, 453881, Note_on_c, 0, 50, 77
1, 453944, Note_off_c, 0, 62, 59
1, 453948, Note_off_c, 0, 72, 56
1, 453961, Note_off_c, 0, 50, 59
1, 454010, Note_off_c, 0, 80, 46
1, 454023, Note_off_c, 0, 77, 47
1, 454037, Note_off_c, 0, 68, 36
1, 454080, Poly_aftertouch_c, 0, 48, 28
1, 454080, Poly_aftertouch_c, 0, 60, 28
1, 454084, Note_on_c, 0, 48, 80
1, 454085, Note_on_c, 0, 60, 80
1, 454156, Note_off_c, 0, 60, 59
1, 454183, Note_off_c, 0, 48, 55
1, 454268, Control_c, 0, 64, 103
1, 454283, Poly_aftertouch_c, 0, 79, 28
1, 454286, Note_on_c, 0, 79, 80
1, 454288, Control_c, 0, 64, 70
1, 454289, Note_on_c, 0, 77, 76
1, 454291, Note_on_c, 0, 74, 76
1, 454294, Note_on_c, 0, 59, 73
1, 454294, Note_on_c, 0, 67, 80
1, 454296, Note_on_c, 0, 55, 65
1, 454298, Note_on_c, 0, 50, 65
1, 454299, Poly_aftertouch_c, 0, 50, 28
1, 454300, Poly_aftertouch_c, 0, 55, 28
1, 454300, Poly_aftertouch_c, 0, 59, 28
1, 454303, Poly_aftertouch_c, 0, 67, 28
1, 454303, Poly_aftertouch_c, 0, 74, 28
1, 454304, Poly_aftertouch_c, 0, 77, 28
1, 454306, Control_c, 0, 64, 43
1, 454326, Poly_aftertouch_c, 0, 47, 28
1, 454330, Note_on_c, 0, 47, 56
1, 454336, Control_c, 0, 64, 27
1, 454362, Control_c, 0, 64, 31
1, 454368, Note_off_c, 0, 59, 58
1, 454376, Note_off_c, 0, 50, 62
1, 454381, Control_c, 0, 64, 45
1, 454385, Note_off_c, 0, 55, 62
1, 454400, Control_c, 0, 64, 65
1, 454401, Note_off_c, 0, 47, 63
1, 454418, Control_c, 0, 64, 82
1, 454438, Control_c, 0, 64, 112
1, 454456, Control_c, 0, 64, 127
1, 454494, Poly_aftertouch_c, 0, 45, 28
1, 454495, Poly_aftertouch_c, 0, 57, 28
1, 454497, Note_on_c, 0, 57, 84
1, 454497, Note_on_c, 0, 45, 85
1, 454534, Note_off_c, 0, 79, 56
1, 454538, Note_off_c, 0, 67, 54
1, 454554, Note_off_c, 0, 45, 62
1, 454559, Note_off_c, 0, 57, 64
1, 454587, Note_off_c, 0, 77, 55
1, 454603, Note_off_c, 0, 74, 58
1, 454656, Poly_aftertouch_c, 0, 43, 28
1, 454662, Poly_aftertouch_c, 0, 55, 28
1, 454665, Note_on_c, 0, 55, 86
1, 454674, Note_on_c, 0, 43, 53
1, 454691, Note_off_c, 0, 43, 69
1, 454698, Note_off_c, 0, 55, 66
1, 454903, Poly_aftertouch_c, 0, 80, 28
1, 454907, Poly_aftertouch_c, 0, 68, 28
1, 454911, Note_on_c, 0, 80, 95
1, 454913, Note_on_c, 0, 77, 86
1, 454914, Note_on_c, 0, 68, 92
1, 454916, Note_on_c, 0, 72, 89
1, 454919, Poly_aftertouch_c, 0, 56, 28
1, 454920, Poly_aftertouch_c, 0, 60, 28
1, 454920, Poly_aftertouch_c, 0, 63, 28
1, 454922, Note_on_c, 0, 60, 82
1, 454924, Note_on_c, 0, 63, 93
1, 454926, Note_on_c, 0, 56, 76
1, 454926, Control_c, 0, 64, 93
1, 454927, Note_on_c, 0, 51, 77
1, 454930, Poly_aftertouch_c, 0, 72, 28
1, 454931, Poly_aftertouch_c, 0, 77, 28
1, 454936, Poly_aftertouch_c, 0, 51, 28
1, 454943, Control_c, 0, 64, 58
1, 454961, Control_c, 0, 64, 25
1, 455035, Control_c, 0, 64, 18
1, 455050, Note_off_c, 0, 60, 61
1, 455054, Control_c, 0, 64, 37
1, 455059, Note_off_c, 0, 63, 60
1, 455063, Note_off_c, 0, 56, 60
1, 455072, Note_off_c, 0, 51, 61
1, 455072, Control_c, 0, 64, 62
1, 455093, Control_c, 0, 64, 88
1, 455112, Control_c, 0, 64, 127
1, 455172, Poly_aftertouch_c, 0, 62, 28
1, 455176, Poly_aftertouch_c, 0, 50, 28
1, 455178, Note_on_c, 0, 62, 92
1, 455181, Note_on_c, 0, 50, 89
1, 455227, Note_off_c, 0, 68, 54
1, 455228, Note_off_c, 0, 80, 48
1, 455269, Note_off_c, 0, 50, 58
1, 455270, Note_off_c, 0, 62, 55
1, 455308, Note_off_c, 0, 72, 53
1, 455365, Note_off_c, 0, 77, 45
1, 455402, Poly_aftertouch_c, 0, 60, 28
1, 455406, Note_on_c, 0, 60, 92
1, 455406, Note_on_c, 0, 48, 87
1, 455409, Poly_aftertouch_c, 0, 48, 28
1, 455479, Note_off_c, 0, 60, 51
1, 455501, Note_off_c, 0, 48, 57
1, 455708, Poly_aftertouch_c, 0, 50, 28
1, 455711, Note_on_c, 0, 50, 80
1, 455712, Note_on_c, 0, 79, 90
1, 455716, Note_on_c, 0, 67, 91
1, 455717, Note_on_c, 0, 55, 79
1, 455717, Note_on_c, 0, 77, 86
1, 455718, Note_off_c, 0, 77, 127
1, 455718, Note_on_c, 0, 74, 86
1, 455719, Note_off_c, 0, 74, 127
1, 455720, Note_on_c, 0, 59, 86
1, 455722, Poly_aftertouch_c, 0, 67, 28
1, 455723, Poly_aftertouch_c, 0, 74, 28
1, 455723, Poly_aftertouch_c, 0, 77, 28
1, 455724, Poly_aftertouch_c, 0, 79, 28
1, 455729, Control_c, 0, 64, 71
1, 455731, Poly_aftertouch_c, 0, 55, 28
1, 455731, Poly_aftertouch_c, 0, 59, 28
1, 455738, Note_on_c, 0, 47, 69
1, 455740, Poly_aftertouch_c, 0, 47, 28
1, 455746, Control_c, 0, 64, 32
1, 455766, Control_c, 0, 64, 0
1, 455776, Poly_aftertouch_c, 0, 74, 127
1, 455776, Poly_aftertouch_c, 0, 77, 127
1, 455842, Control_c, 0, 64, 26
1, 455860, Control_c, 0, 64, 58
1, 455879, Control_c, 0, 64, 94
1, 455890, Note_off_c, 0, 50, 59
1, 455898, Control_c, 0, 64, 127
1, 455899, Note_off_c, 0, 59, 53
1, 455904, Note_off_c, 0, 55, 60
1, 455935, Note_off_c, 0, 47, 60
1, 455988, Note_off_c, 0, 79, 51
1, 456040, Poly_aftertouch_c, 0, 57, 28
1, 456042, Note_on_c, 0, 57, 92
1, 456043, Note_off_c, 0, 67, 53
1, 456046, Note_on_c, 0, 45, 86
1, 456047, Poly_aftertouch_c, 0, 45, 28
1, 456063, Poly_aftertouch_c, 0, 77, 0
1, 456098, Poly_aftertouch_c, 0, 74, 0
1, 456194, Note_off_c, 0, 57, 58
1, 456200, Note_off_c, 0, 45, 55
1, 456393, Poly_aftertouch_c, 0, 55, 28
1, 456399, Poly_aftertouch_c, 0, 43, 28
1, 456401, Note_on_c, 0, 55, 97
1, 456403, Note_on_c, 0, 43, 93
1, 456478, Note_off_c, 0, 55, 60
1, 456511, Note_off_c, 0, 43, 62
1, 456859, Poly_aftertouch_c, 0, 58, 28
1, 456861, Poly_aftertouch_c, 0, 58, 0
1, 457032, Poly_aftertouch_c, 0, 39, 28
1, 457036, Note_on_c, 0, 54, 91
1, 457038, Note_on_c, 0, 66, 89
1, 457039, Note_on_c, 0, 68, 96
1, 457040, Note_on_c, 0, 39, 84
1, 457042, Note_on_c, 0, 44, 78
1, 457043, Note_on_c, 0, 60, 86
1, 457044, Note_off_c, 0, 60, 127
1, 457044, Note_on_c, 0, 51, 93
1, 457045, Note_off_c, 0, 51, 127
1, 457045, Note_on_c, 0, 48, 88
1, 457046, Note_off_c, 0, 48, 127
1, 457048, Poly_aftertouch_c, 0, 44, 28
1, 457049, Poly_aftertouch_c, 0, 48, 28
1, 457049, Poly_aftertouch_c, 0, 51, 28
1, 457050, Poly_aftertouch_c, 0, 54, 28
1, 457050, Poly_aftertouch_c, 0, 60, 28
1, 457054, Poly_aftertouch_c, 0, 66, 28
1, 457054, Poly_aftertouch_c, 0, 68, 28
1, 457105, Poly_aftertouch_c, 0, 48, 127
1, 457105, Poly_aftertouch_c, 0, 51, 127
1, 457105, Poly_aftertouch_c, 0, 60, 127
1, 457113, Control_c, 0, 64, 88
1, 457133, Control_c, 0, 64, 51
1, 457150, Control_c, 0, 64, 0
1, 457301, Control_c, 0, 64, 15
1, 457320, Control_c, 0, 64, 30
1, 457339, Control_c, 0, 64, 48
1, 457357, Control_c, 0, 64, 64
1, 457376, Control_c, 0, 64, 72
1, 457396, Control_c, 0, 64, 78
1, 457413, Control_c, 0, 64, 80
1, 457469, Control_c, 0, 64, 82
1, 457488, Control_c, 0, 64, 84
1, 457508, Control_c, 0, 64, 87
1, 457525, Control_c, 0, 64, 92
1, 457544, Control_c, 0, 64, 96
1, 457562, Control_c, 0, 64, 101
1, 457582, Control_c, 0, 64, 107
1, 457600, Control_c, 0, 64, 114
1, 457618, Control_c, 0, 64, 127
1, 457690, Poly_aftertouch_c, 0, 60, 0
1, 457778, Note_off_c, 0, 39, 32
1, 457965, Poly_aftertouch_c, 0, 48, 0
1, 458197, Poly_aftertouch_c, 0, 51, 0
1, 458443, Control_c, 0, 64, 104
1, 458445, Note_off_c, 0, 44, 54
1, 458446, Poly_aftertouch_c, 0, 62, 28
1, 458451, Note_on_c, 0, 62, 59
1, 458455, Poly_aftertouch_c, 0, 38, 28
1, 458461, Note_on_c, 0, 38, 51
1, 458462, Control_c, 0, 64, 78
1, 458477, Poly_aftertouch_c, 0, 50, 28
1, 458479, Note_off_c, 0, 66, 55
1, 458480, Control_c, 0, 64, 55
1, 458485, Note_on_c, 0, 50, 38
1, 458498, Control_c, 0, 64, 29
1, 458574, Control_c, 0, 64, 12
1, 458592, Control_c, 0, 64, 24
1, 458612, Control_c, 0, 64, 41
1, 458629, Control_c, 0, 64, 62
1, 458649, Control_c, 0, 64, 80
1, 458667, Control_c, 0, 64, 112
1, 458685, Control_c, 0, 64, 127
1, 458711, Note_off_c, 0, 38, 55
1, 458716, Note_off_c, 0, 50, 43
1, 458959, Poly_aftertouch_c, 0, 63, 28
1, 458966, Note_on_c, 0, 63, 50
1, 458967, Control_c, 0, 64, 86
1, 458977, Poly_aftertouch_c, 0, 36, 28
1, 458984, Note_on_c, 0, 36, 34
1, 458984, Poly_aftertouch_c, 0, 48, 28
1, 458985, Control_c, 0, 64, 61
1, 458991, Note_on_c, 0, 48, 37
1, 458998, Note_off_c, 0, 62, 59
1, 459004, Control_c, 0, 64, 37
1, 459022, Control_c, 0, 64, 20
1, 459080, Control_c, 0, 64, 30
1, 459097, Control_c, 0, 64, 44
1, 459117, Control_c, 0, 64, 61
1, 459135, Control_c, 0, 64, 75
1, 459154, Control_c, 0, 64, 94
1, 459172, Control_c, 0, 64, 127
1, 459183, Note_off_c, 0, 48, 35
1, 459211, Note_off_c, 0, 36, 45
1, 459235, Note_off_c, 0, 68, 28
1, 459242, Note_off_c, 0, 63, 53
1, 459255, Note_off_c, 0, 54, 51
1, 459641, Control_c, 0, 64, 109
1, 459650, Poly_aftertouch_c, 0, 67, 28
1, 459659, Note_on_c, 0, 67, 52
1, 459659, Control_c, 0, 64, 84
1, 459672, Poly_aftertouch_c, 0, 62, 28
1, 459676, Poly_aftertouch_c, 0, 31, 28
1, 459678, Poly_aftertouch_c, 0, 43, 28
1, 459679, Poly_aftertouch_c, 0, 55, 28
1, 459679, Control_c, 0, 64, 63
1, 459682, Note_on_c, 0, 62, 39
1, 459686, Note_on_c, 0, 43, 29
1, 459687, Note_on_c, 0, 31, 27
1, 459688, Note_on_c, 0, 55, 31
1, 459696, Control_c, 0, 64, 41
1, 459709, Poly_aftertouch_c, 0, 59, 28
1, 459712, Note_on_c, 0, 59, 37
1, 459714, Control_c, 0, 64, 20
1, 459735, Control_c, 0, 64, 9
1, 459809, Control_c, 0, 64, 21
1, 459828, Control_c, 0, 64, 33
1, 459834, Note_off_c, 0, 31, 54
1, 459847, Control_c, 0, 64, 49
1, 459865, Control_c, 0, 64, 67
1, 459884, Control_c, 0, 64, 82
1, 459902, Control_c, 0, 64, 104
1, 459922, Control_c, 0, 64, 127
1, 460300, Poly_aftertouch_c, 0, 50, 28
1, 460307, Note_on_c, 0, 50, 60
1, 460314, Control_c, 0, 64, 98
1, 460320, Poly_aftertouch_c, 0, 47, 28
1, 460327, Note_on_c, 0, 47, 35
1, 460333, Control_c, 0, 64, 76
1, 460352, Control_c, 0, 64, 58
1, 460371, Control_c, 0, 64, 41
1, 460389, Control_c, 0, 64, 30
1, 460445, Control_c, 0, 64, 35
1, 460456, Poly_aftertouch_c, 0, 59, 24
1, 460464, Control_c, 0, 64, 44
1, 460483, Control_c, 0, 64, 57
1, 460502, Control_c, 0, 64, 68
1, 460521, Control_c, 0, 64, 79
1, 460529, Note_off_c, 0, 59, 33
1, 460541, Control_c, 0, 64, 93
1, 460557, Control_c, 0, 64, 116
1, 460558, Note_off_c, 0, 47, 53
1, 460559, Note_off_c, 0, 62, 39
1, 460577, Control_c, 0, 64, 127
1, 461082, Control_c, 0, 64, 119
1, 461093, Poly_aftertouch_c, 0, 48, 28
1, 461098, Poly_aftertouch_c, 0, 63, 28
1, 461100, Control_c, 0, 64, 97
1, 461103, Note_on_c, 0, 48, 27
1, 461107, Note_on_c, 0, 63, 45
1, 461113, Poly_aftertouch_c, 0, 51, 28
1, 461120, Control_c, 0, 64, 76
1, 461123, Note_on_c, 0, 51, 32
1, 461130, Poly_aftertouch_c, 0, 60, 28
1, 461137, Note_on_c, 0, 60, 29
1, 461139, Control_c, 0, 64, 58
1, 461156, Control_c, 0, 64, 36
1, 461158, Note_off_c, 0, 50, 58
1, 461175, Control_c, 0, 64, 18
1, 461195, Control_c, 0, 64, 11
1, 461269, Control_c, 0, 64, 16
1, 461288, Control_c, 0, 64, 24
1, 461306, Control_c, 0, 64, 34
1, 461325, Control_c, 0, 64, 49
1, 461344, Control_c, 0, 64, 64
1, 461362, Control_c, 0, 64, 74
1, 461381, Control_c, 0, 64, 85
1, 461400, Control_c, 0, 64, 96
1, 461419, Note_off_c, 0, 60, 49
1, 461419, Control_c, 0, 64, 107
1, 461435, Note_off_c, 0, 63, 51
1, 461436, Control_c, 0, 64, 127
1, 461439, Note_off_c, 0, 51, 41
1, 461999, Control_c, 0, 64, 106
1, 462007, Poly_aftertouch_c, 0, 50, 28
1, 462007, Poly_aftertouch_c, 0, 62, 28
1, 462015, Poly_aftertouch_c, 0, 65, 28
1, 462017, Note_on_c, 0, 62, 29
1, 462018, Control_c, 0, 64, 90
1, 462019, Poly_aftertouch_c, 0, 53, 28
1, 462023, Note_on_c, 0, 50, 29
1, 462024, Note_on_c, 0, 65, 31
1, 462027, Note_on_c, 0, 53, 28
1, 462037, Control_c, 0, 64, 73
1, 462055, Control_c, 0, 64, 58
1, 462070, Note_off_c, 0, 67, 29
1, 462074, Control_c, 0, 64, 46
1, 462094, Control_c, 0, 64, 40
1, 462151, Control_c, 0, 64, 46
1, 462158, Note_off_c, 0, 48, 41
1, 462167, Control_c, 0, 64, 54
1, 462186, Control_c, 0, 64, 62
1, 462206, Control_c, 0, 64, 68
1, 462224, Control_c, 0, 64, 74
1, 462242, Control_c, 0, 64, 81
1, 462261, Control_c, 0, 64, 89
1, 462281, Control_c, 0, 64, 100
1, 462298, Control_c, 0, 64, 111
1, 462317, Control_c, 0, 64, 127
1, 462362, Note_off_c, 0, 50, 41
1, 462371, Note_off_c, 0, 62, 41
1, 462484, Note_off_c, 0, 53, 36
1, 462539, Note_off_c, 0, 43, 38
1, 462608, Note_off_c, 0, 55, 39
1, 463328, Control_c, 0, 67, 8
1, 463347, Control_c, 0, 67, 14
1, 463365, Control_c, 0, 67, 23
1, 463384, Control_c, 0, 67, 37
1, 463403, Control_c, 0, 67, 51
1, 463422, Control_c, 0, 67, 62
1, 463441, Control_c, 0, 67, 72
1, 463459, Control_c, 0, 67, 80
1, 463478, Control_c, 0, 67, 89
1, 463497, Control_c, 0, 67, 97
1, 463515, Control_c, 0, 67, 104
1, 463535, Control_c, 0, 67, 110
1, 463553, Control_c, 0, 67, 114
1, 463572, Control_c, 0, 67, 119
1, 463591, Control_c, 0, 67, 123
1, 463609, Control_c, 0, 67, 127
1, 463613, Poly_aftertouch_c, 0, 67, 28
1, 463617, Note_on_c, 0, 67, 46
1, 463641, Poly_aftertouch_c, 0, 46, 28
1, 463646, Poly_aftertouch_c, 0, 51, 28
1, 463646, Poly_aftertouch_c, 0, 55, 28
1, 463647, Note_off_c, 0, 65, 41
1, 463657, Note_on_c, 0, 46, 26
1, 463658, Note_on_c, 0, 51, 27
1, 463660, Note_on_c, 0, 55, 25
1, 463660, Poly_aftertouch_c, 0, 39, 28
1, 463661, Poly_aftertouch_c, 0, 58, 28
1, 463665, Control_c, 0, 64, 118
1, 463672, Note_on_c, 0, 39, 18
1, 463677, Note_on_c, 0, 58, 32
1, 463684, Control_c, 0, 64, 100
1, 463702, Control_c, 0, 64, 85
1, 463722, Control_c, 0, 64, 71
1, 463740, Control_c, 0, 64, 58
1, 463759, Control_c, 0, 64, 45
1, 463777, Control_c, 0, 64, 31
1, 463796, Control_c, 0, 64, 16
1, 463833, Control_c, 0, 64, 0
1, 464040, Control_c, 0, 64, 9
1, 464058, Control_c, 0, 64, 17
1, 464077, Control_c, 0, 64, 26
1, 464096, Control_c, 0, 64, 40
1, 464114, Control_c, 0, 64, 61
1, 464133, Control_c, 0, 64, 77
1, 464152, Control_c, 0, 64, 99
1, 464169, Control_c, 0, 64, 127
1, 464228, Note_off_c, 0, 46, 34
1, 464237, Note_off_c, 0, 39, 41
1, 464251, Note_off_c, 0, 55, 38
1, 464259, Note_off_c, 0, 58, 43
1, 464288, Note_off_c, 0, 67, 34
1, 464343, Note_off_c, 0, 51, 34
1, 464686, Poly_aftertouch_c, 0, 67, 28
1, 464692, Note_on_c, 0, 67, 52
1, 464710, Poly_aftertouch_c, 0, 46, 28
1, 464710, Poly_aftertouch_c, 0, 50, 28
1, 464714, Control_c, 0, 64, 102
1, 464720, Poly_aftertouch_c, 0, 38, 28
1, 464724, Note_on_c, 0, 50, 32
1, 464728, Note_on_c, 0, 46, 29
1, 464729, Poly_aftertouch_c, 0, 55, 28
1, 464733, Note_on_c, 0, 38, 23
1, 464733, Control_c, 0, 64, 78
1, 464739, Poly_aftertouch_c, 0, 58, 28
1, 464743, Note_on_c, 0, 55, 23
1, 464751, Control_c, 0, 64, 60
1, 464754, Note_on_c, 0, 58, 27
1, 464769, Control_c, 0, 64, 49
1, 464808, Control_c, 0, 64, 54
1, 464826, Control_c, 0, 64, 61
1, 464845, Control_c, 0, 64, 69
1, 464863, Control_c, 0, 64, 79
1, 464868, Note_off_c, 0, 38, 55
1, 464881, Note_off_c, 0, 50, 55
1, 464882, Control_c, 0, 64, 97
1, 464900, Control_c, 0, 64, 127
1, 465065, Poly_aftertouch_c, 0, 39, 28
1, 465075, Note_on_c, 0, 39, 39
1, 465081, Poly_aftertouch_c, 0, 51, 28
1, 465089, Note_on_c, 0, 51, 34
1, 465122, Note_off_c, 0, 46, 41
1, 465131, Note_off_c, 0, 39, 59
1, 465141, Note_off_c, 0, 51, 50
1, 465325, Poly_aftertouch_c, 0, 53, 28
1, 465328, Note_on_c, 0, 53, 45
1, 465339, Note_off_c, 0, 55, 38
1, 465339, Poly_aftertouch_c, 0, 41, 28
1, 465345, Note_on_c, 0, 41, 25
1, 465350, Note_off_c, 0, 67, 34
1, 465354, Note_off_c, 0, 58, 39
1, 465367, Note_off_c, 0, 53, 53
1, 465399, Note_off_c, 0, 41, 41
1, 465630, Control_c, 0, 64, 112
1, 465636, Poly_aftertouch_c, 0, 67, 28
1, 465644, Note_on_c, 0, 67, 59
1, 465648, Control_c, 0, 64, 83
1, 465661, Poly_aftertouch_c, 0, 46, 28
1, 465661, Poly_aftertouch_c, 0, 51, 28
1, 465662, Poly_aftertouch_c, 0, 63, 28
1, 465668, Note_on_c, 0, 51, 32
1, 465668, Control_c, 0, 64, 62
1, 465670, Note_on_c, 0, 63, 37
1, 465670, Poly_aftertouch_c, 0, 39, 28
1, 465673, Note_on_c, 0, 46, 23
1, 465676, Note_on_c, 0, 39, 25
1, 465676, Poly_aftertouch_c, 0, 55, 28
1, 465683, Poly_aftertouch_c, 0, 58, 28
1, 465686, Control_c, 0, 64, 41
1, 465690, Note_on_c, 0, 55, 25
1, 465697, Note_on_c, 0, 58, 26
1, 465705, Control_c, 0, 64, 26
1, 465724, Control_c, 0, 64, 21
1, 465781, Control_c, 0, 64, 32
1, 465799, Control_c, 0, 64, 45
1, 465818, Control_c, 0, 64, 63
1, 465838, Control_c, 0, 64, 79
1, 465855, Control_c, 0, 64, 104
1, 465871, Note_off_c, 0, 67, 62
1, 465873, Control_c, 0, 64, 127
1, 465906, Note_off_c, 0, 58, 45
1, 465942, Note_off_c, 0, 55, 40
1, 465977, Note_off_c, 0, 51, 41
1, 465978, Note_off_c, 0, 63, 62
1, 466098, Note_off_c, 0, 46, 41
1, 466141, Poly_aftertouch_c, 0, 70, 28
1, 466149, Note_on_c, 0, 70, 65
1, 466230, Note_off_c, 0, 39, 41
1, 466361, Note_off_c, 0, 70, 56
1, 466684, Poly_aftertouch_c, 0, 70, 28
1, 466691, Note_on_c, 0, 70, 58
1, 466697, Control_c, 0, 64, 113
1, 466700, Poly_aftertouch_c, 0, 58, 28
1, 466705, Poly_aftertouch_c, 0, 56, 28
1, 466712, Poly_aftertouch_c, 0, 34, 28
1, 466714, Note_on_c, 0, 34, 29
1, 466715, Note_on_c, 0, 58, 32
1, 466715, Poly_aftertouch_c, 0, 46, 28
1, 466715, Control_c, 0, 64, 85
1, 466717, Note_on_c, 0, 56, 36
1, 466721, Poly_aftertouch_c, 0, 62, 28
1, 466724, Note_on_c, 0, 46, 29
1, 466728, Note_on_c, 0, 62, 42
1, 466734, Control_c, 0, 64, 64
1, 466754, Control_c, 0, 64, 45
1, 466772, Control_c, 0, 64, 32
1, 466847, Control_c, 0, 64, 46
1, 466867, Control_c, 0, 64, 60
1, 466885, Control_c, 0, 64, 71
1, 466904, Control_c, 0, 64, 83
1, 466922, Control_c, 0, 64, 100
1, 466932, Note_off_c, 0, 70, 51
1, 466940, Control_c, 0, 64, 127
1, 467026, Note_off_c, 0, 58, 39
1, 467049, Poly_aftertouch_c, 0, 63, 28
1, 467053, Note_on_c, 0, 63, 57
1, 467054, Note_off_c, 0, 34, 52
1, 467071, Note_off_c, 0, 62, 54
1, 467144, Note_off_c, 0, 46, 55
1, 467302, Poly_aftertouch_c, 0, 65, 28
1, 467308, Note_on_c, 0, 65, 61
1, 467323, Note_off_c, 0, 63, 61
1, 467331, Note_off_c, 0, 56, 46
1, 467349, Note_off_c, 0, 65, 64
1, 467568, Poly_aftertouch_c, 0, 70, 28
1, 467575, Note_on_c, 0, 70, 74
1, 467577, Control_c, 0, 64, 122
1, 467582, Poly_aftertouch_c, 0, 46, 28
1, 467589, Poly_aftertouch_c, 0, 51, 28
1, 467592, Note_on_c, 0, 51, 41
1, 467594, Note_on_c, 0, 46, 40
1, 467595, Control_c, 0, 64, 87
1, 467597, Poly_aftertouch_c, 0, 55, 28
1, 467597, Poly_aftertouch_c, 0, 63, 28
1, 467606, Note_on_c, 0, 55, 34
1, 467606, Note_on_c, 0, 63, 49
1, 467609, Poly_aftertouch_c, 0, 58, 28
1, 467614, Control_c, 0, 64, 64
1, 467622, Note_on_c, 0, 58, 43
1, 467634, Control_c, 0, 64, 44
1, 467652, Control_c, 0, 64, 29
1, 467727, Control_c, 0, 64, 40
1, 467745, Control_c, 0, 64, 55
1, 467765, Control_c, 0, 64, 71
1, 467769, Note_off_c, 0, 63, 58
1, 467783, Control_c, 0, 64, 87
1, 467794, Note_off_c, 0, 58, 63
1, 467802, Control_c, 0, 64, 122
1, 467821, Control_c, 0, 64, 127
1, 467937, Note_off_c, 0, 55, 48
1, 468002, Poly_aftertouch_c, 0, 75, 28
1, 468005, Note_off_c, 0, 51, 40
1, 468008, Note_off_c, 0, 70, 64
1, 468008, Note_on_c, 0, 75, 77
1, 468283, Note_off_c, 0, 75, 61
1, 468396, Note_off_c, 0, 46, 38
1, 468399, Control_c, 0, 64, 87
1, 468417, Poly_aftertouch_c, 0, 75, 28
1, 468420, Control_c, 0, 64, 62
1, 468425, Note_on_c, 0, 75, 74
1, 468436, Poly_aftertouch_c, 0, 43, 28
1, 468436, Poly_aftertouch_c, 0, 58, 28
1, 468437, Control_c, 0, 64, 40
1, 468441, Note_on_c, 0, 43, 30
1, 468443, Note_on_c, 0, 58, 45
1, 468450, Poly_aftertouch_c, 0, 51, 28
1, 468451, Poly_aftertouch_c, 0, 70, 28
1, 468455, Poly_aftertouch_c, 0, 63, 28
1, 468455, Control_c, 0, 64, 29
1, 468459, Note_on_c, 0, 51, 36
1, 468459, Note_on_c, 0, 70, 55
1, 468464, Note_on_c, 0, 63, 37
1, 468495, Control_c, 0, 64, 35
1, 468513, Control_c, 0, 64, 48
1, 468520, Note_off_c, 0, 63, 46
1, 468531, Control_c, 0, 64, 67
1, 468551, Control_c, 0, 64, 84
1, 468570, Control_c, 0, 64, 127
1, 468588, Note_off_c, 0, 75, 60
1, 468664, Note_off_c, 0, 70, 61
1, 468703, Note_off_c, 0, 43, 36
1, 468733, Note_off_c, 0, 51, 60
1, 468745, Poly_aftertouch_c, 0, 72, 28
1, 468748, Note_on_c, 0, 72, 65
1, 468754, Note_on_c, 0, 60, 58
1, 468755, Poly_aftertouch_c, 0, 60, 28
1, 468780, Note_off_c, 0, 58, 52
1, 468792, Note_off_c, 0, 60, 59
1, 468995, Note_off_c, 0, 72, 60
1, 469000, Poly_aftertouch_c, 0, 73, 28
1, 469004, Poly_aftertouch_c, 0, 61, 28
1, 469009, Note_on_c, 0, 73, 69
1, 469010, Note_on_c, 0, 61, 56
1, 469048, Note_off_c, 0, 61, 60
1, 469066, Note_off_c, 0, 73, 56
1, 469099, Poly_aftertouch_c, 0, 48, 28
1, 469107, Note_on_c, 0, 48, 42
1, 469157, Poly_aftertouch_c, 0, 55, 28
1, 469166, Note_on_c, 0, 55, 41
1, 469236, Poly_aftertouch_c, 0, 58, 28
1, 469249, Note_on_c, 0, 58, 41
1, 469376, Control_c, 0, 64, 91
1, 469383, Poly_aftertouch_c, 0, 60, 28
1, 469385, Poly_aftertouch_c, 0, 76, 28
1, 469388, Note_on_c, 0, 76, 69
1, 469390, Note_on_c, 0, 60, 47
1, 469394, Control_c, 0, 64, 64
1, 469398, Poly_aftertouch_c, 0, 72, 28
1, 469404, Note_on_c, 0, 72, 54
1, 469405, Poly_aftertouch_c, 0, 64, 28
1, 469408, Note_on_c, 0, 64, 42
1, 469412, Control_c, 0, 64, 40
1, 469431, Control_c, 0, 64, 30
1, 469468, Control_c, 0, 64, 36
1, 469478, Poly_aftertouch_c, 0, 48, 24
1, 469485, Control_c, 0, 64, 49
1, 469507, Control_c, 0, 64, 67
1, 469511, Note_off_c, 0, 72, 59
1, 469522, Note_off_c, 0, 60, 58
1, 469523, Control_c, 0, 64, 83
1, 469526, Note_off_c, 0, 55, 52
1, 469541, Note_off_c, 0, 58, 57
1, 469543, Control_c, 0, 64, 111
1, 469561, Control_c, 0, 64, 127
1, 469581, Note_off_c, 0, 64, 51
1, 469616, Note_off_c, 0, 48, 19
1, 469745, Poly_aftertouch_c, 0, 77, 28
1, 469748, Note_on_c, 0, 77, 69
1, 469751, Poly_aftertouch_c, 0, 74, 28
1, 469752, Note_off_c, 0, 76, 58
1, 469756, Note_on_c, 0, 74, 68
1, 469757, Poly_aftertouch_c, 0, 65, 28
1, 469761, Note_on_c, 0, 65, 54
1, 469826, Note_off_c, 0, 65, 53
1, 469827, Note_off_c, 0, 74, 59
1, 469829, Poly_aftertouch_c, 0, 36, 28
1, 469837, Note_on_c, 0, 36, 56
1, 469879, Note_off_c, 0, 36, 62
1, 469993, Poly_aftertouch_c, 0, 67, 28
1, 469994, Poly_aftertouch_c, 0, 79, 28
1, 469998, Note_on_c, 0, 79, 76
1, 469999, Note_on_c, 0, 67, 70
1, 470001, Note_on_c, 0, 76, 69
1, 470003, Poly_aftertouch_c, 0, 76, 28
1, 470038, Note_off_c, 0, 76, 48
1, 470041, Note_off_c, 0, 67, 60
1, 470042, Note_off_c, 0, 77, 61
1, 470105, Poly_aftertouch_c, 0, 41, 28
1, 470110, Note_on_c, 0, 41, 45
1, 470198, Control_c, 0, 64, 109
1, 470205, Poly_aftertouch_c, 0, 48, 28
1, 470209, Note_on_c, 0, 48, 56
1, 470217, Control_c, 0, 64, 74
1, 470235, Control_c, 0, 64, 49
1, 470238, Note_on_c, 0, 77, 61
1, 470238, Poly_aftertouch_c, 0, 77, 28
1, 470243, Poly_aftertouch_c, 0, 80, 28
1, 470250, Note_on_c, 0, 80, 77
1, 470251, Poly_aftertouch_c, 0, 68, 28
1, 470252, Note_off_c, 0, 79, 63
1, 470253, Control_c, 0, 64, 35
1, 470255, Note_on_c, 0, 68, 68
1, 470256, Note_on_c, 0, 53, 59
1, 470257, Poly_aftertouch_c, 0, 53, 28
1, 470292, Control_c, 0, 64, 42
1, 470308, Note_off_c, 0, 77, 62
1, 470309, Control_c, 0, 64, 57
1, 470329, Control_c, 0, 64, 73
1, 470338, Note_off_c, 0, 53, 59
1, 470348, Control_c, 0, 64, 96
1, 470357, Note_off_c, 0, 68, 46
1, 470365, Note_off_c, 0, 48, 61
1, 470365, Control_c, 0, 64, 127
1, 470382, Note_off_c, 0, 41, 61
1, 470385, Control_c, 0, 67, 123
1, 470517, Poly_aftertouch_c, 0, 82, 28
1, 470520, Note_on_c, 0, 82, 77
1, 470523, Poly_aftertouch_c, 0, 79, 28
1, 470526, Note_on_c, 0, 79, 69
1, 470534, Poly_aftertouch_c, 0, 70, 28
1, 470543, Note_on_c, 0, 70, 53
1, 470549, Note_off_c, 0, 80, 52
1, 470597, Note_off_c, 0, 70, 54
1, 470666, Poly_aftertouch_c, 0, 29, 28
1, 470671, Note_on_c, 0, 29, 62
1, 470685, Control_c, 0, 64, 109
1, 470705, Control_c, 0, 64, 75
1, 470722, Control_c, 0, 64, 54
1, 470740, Control_c, 0, 64, 51
1, 470760, Control_c, 0, 64, 57
1, 470778, Control_c, 0, 64, 67
1, 470797, Control_c, 0, 64, 83
1, 470816, Control_c, 0, 64, 127
1, 470826, Note_off_c, 0, 79, 20
1, 470832, Note_off_c, 0, 29, 61
1, 470856, Poly_aftertouch_c, 0, 84, 28
1, 470858, Note_on_c, 0, 84, 80
1, 470862, Poly_aftertouch_c, 0, 80, 28
1, 470870, Note_on_c, 0, 80, 55
1, 470872, Poly_aftertouch_c, 0, 72, 28
1, 470877, Note_on_c, 0, 72, 55
1, 470890, Control_c, 0, 67, 119
1, 470893, Note_off_c, 0, 82, 51
1, 470926, Note_off_c, 0, 72, 58
1, 470986, Note_off_c, 0, 84, 62
1, 470995, Note_off_c, 0, 80, 58
1, 471148, Poly_aftertouch_c, 0, 45, 28
1, 471155, Note_on_c, 0, 45, 36
1, 471218, Poly_aftertouch_c, 0, 51, 28
1, 471226, Note_on_c, 0, 51, 50
1, 471304, Poly_aftertouch_c, 0, 57, 28
1, 471308, Note_on_c, 0, 57, 45
1, 471340, Control_c, 0, 64, 100
1, 471359, Control_c, 0, 64, 69
1, 471379, Control_c, 0, 64, 43
1, 471396, Control_c, 0, 64, 24
1, 471412, Poly_aftertouch_c, 0, 79, 28
1, 471414, Control_c, 0, 64, 20
1, 471421, Note_on_c, 0, 79, 48
1, 471423, Poly_aftertouch_c, 0, 87, 28
1, 471427, Note_on_c, 0, 87, 92
1, 471438, Poly_aftertouch_c, 0, 75, 28
1, 471450, Note_on_c, 0, 75, 49
1, 471453, Control_c, 0, 64, 30
1, 471472, Control_c, 0, 64, 47
1, 471489, Control_c, 0, 64, 73
1, 471509, Control_c, 0, 64, 127
1, 471514, Note_off_c, 0, 45, 58
1, 471540, Note_off_c, 0, 79, 61
1, 471548, Note_off_c, 0, 87, 65
1, 471553, Note_off_c, 0, 57, 54
1, 471582, Note_off_c, 0, 51, 60
1, 471590, Note_off_c, 0, 75, 58
1, 471773, Poly_aftertouch_c, 0, 58, 28
1, 471777, Poly_aftertouch_c, 0, 46, 28
1, 471781, Note_on_c, 0, 58, 51
1, 471783, Note_on_c, 0, 46, 51
1, 471870, Note_off_c, 0, 46, 61
1, 471875, Note_off_c, 0, 58, 60
1, 471895, Poly_aftertouch_c, 0, 79, 28
1, 471897, Note_on_c, 0, 79, 88
1, 471912, Poly_aftertouch_c, 0, 75, 28
1, 471920, Note_on_c, 0, 75, 65
1, 471935, Poly_aftertouch_c, 0, 67, 28
1, 471939, Note_on_c, 0, 67, 51
1, 471972, Note_off_c, 0, 67, 56
1, 471973, Note_off_c, 0, 75, 42
1, 472052, Poly_aftertouch_c, 0, 48, 28
1, 472052, Poly_aftertouch_c, 0, 60, 28
1, 472054, Note_on_c, 0, 60, 53
1, 472058, Note_on_c, 0, 48, 48
1, 472059, Note_off_c, 0, 79, 60
1, 472064, Poly_aftertouch_c, 0, 75, 28
1, 472065, Poly_aftertouch_c, 0, 75, 0
1, 472094, Note_off_c, 0, 60, 61
1, 472098, Note_off_c, 0, 48, 52
1, 472312, Poly_aftertouch_c, 0, 46, 28
1, 472321, Poly_aftertouch_c, 0, 58, 28
1, 472326, Note_on_c, 0, 46, 38
1, 472333, Note_on_c, 0, 58, 38
1, 472349, Poly_aftertouch_c, 0, 53, 28
1, 472356, Note_on_c, 0, 53, 39
1, 472370, Control_c, 0, 64, 88
1, 472388, Control_c, 0, 64, 61
1, 472407, Control_c, 0, 64, 36
1, 472413, Poly_aftertouch_c, 0, 82, 28
1, 472421, Note_on_c, 0, 82, 71
1, 472424, Poly_aftertouch_c, 0, 70, 28
1, 472426, Control_c, 0, 64, 18
1, 472429, Poly_aftertouch_c, 0, 68, 28
1, 472436, Note_on_c, 0, 70, 31
1, 472439, Note_on_c, 0, 68, 42
1, 472442, Poly_aftertouch_c, 0, 74, 28
1, 472446, Note_on_c, 0, 74, 47
1, 472500, Control_c, 0, 64, 23
1, 472520, Control_c, 0, 64, 35
1, 472537, Control_c, 0, 64, 54
1, 472557, Control_c, 0, 64, 75
1, 472576, Control_c, 0, 64, 101
1, 472590, Note_off_c, 0, 82, 64
1, 472593, Control_c, 0, 64, 127
1, 472645, Note_off_c, 0, 46, 37
1, 472675, Note_off_c, 0, 70, 41
1, 472718, Poly_aftertouch_c, 0, 51, 28
1, 472724, Note_off_c, 0, 58, 35
1, 472725, Note_on_c, 0, 51, 45
1, 472740, Poly_aftertouch_c, 0, 75, 28
1, 472742, Note_off_c, 0, 53, 33
1, 472753, Note_on_c, 0, 75, 45
1, 472767, Note_off_c, 0, 74, 37
1, 472886, Note_off_c, 0, 51, 48
1, 472946, Poly_aftertouch_c, 0, 50, 28
1, 472956, Note_on_c, 0, 50, 52
1, 472974, Poly_aftertouch_c, 0, 77, 28
1, 472976, Note_on_c, 0, 77, 53
1, 472988, Note_off_c, 0, 75, 55
1, 473007, Note_off_c, 0, 50, 64
1, 473009, Note_off_c, 0, 77, 58
1, 473076, Note_off_c, 0, 68, 40
1, 473081, Control_c, 0, 67, 113
1, 473118, Control_c, 0, 67, 108
1, 473145, Poly_aftertouch_c, 0, 45, 28
1, 473151, Note_on_c, 0, 45, 45
1, 473217, Poly_aftertouch_c, 0, 51, 28
1, 473222, Note_on_c, 0, 51, 47
1, 473436, Control_c, 0, 64, 98
1, 473456, Control_c, 0, 64, 72
1, 473464, Poly_aftertouch_c, 0, 57, 28
1, 473468, Note_on_c, 0, 57, 60
1, 473472, Control_c, 0, 64, 51
1, 473488, Poly_aftertouch_c, 0, 63, 28
1, 473492, Control_c, 0, 64, 34
1, 473495, Poly_aftertouch_c, 0, 75, 28
1, 473501, Note_on_c, 0, 63, 33
1, 473506, Poly_aftertouch_c, 0, 67, 28
1, 473508, Note_on_c, 0, 75, 34
1, 473511, Control_c, 0, 64, 28
1, 473516, Note_on_c, 0, 67, 29
1, 473562, Note_off_c, 0, 51, 55
1, 473566, Control_c, 0, 64, 41
1, 473587, Control_c, 0, 64, 56
1, 473604, Control_c, 0, 64, 72
1, 473624, Control_c, 0, 64, 93
1, 473638, Note_off_c, 0, 75, 62
1, 473641, Control_c, 0, 64, 127
1, 473670, Note_off_c, 0, 45, 50
1, 473679, Note_off_c, 0, 67, 37
1, 473738, Note_off_c, 0, 63, 62
1, 473763, Note_off_c, 0, 57, 60
1, 474012, Poly_aftertouch_c, 0, 58, 28
1, 474016, Note_on_c, 0, 58, 71
1, 474046, Poly_aftertouch_c, 0, 46, 28
1, 474055, Note_on_c, 0, 46, 47
1, 474091, Control_c, 0, 64, 108
1, 474111, Control_c, 0, 64, 78
1, 474129, Control_c, 0, 64, 60
1, 474147, Control_c, 0, 64, 55
1, 474166, Control_c, 0, 64, 58
1, 474185, Control_c, 0, 64, 64
1, 474199, Poly_aftertouch_c, 0, 63, 28
1, 474203, Note_on_c, 0, 63, 56
1, 474203, Poly_aftertouch_c, 0, 55, 28
1, 474203, Control_c, 0, 64, 74
1, 474211, Note_on_c, 0, 55, 51
1, 474219, Note_off_c, 0, 46, 57
1, 474221, Poly_aftertouch_c, 0, 67, 28
1, 474222, Control_c, 0, 64, 90
1, 474231, Note_on_c, 0, 67, 51
1, 474242, Control_c, 0, 64, 127
1, 474272, Note_off_c, 0, 55, 60
1, 474272, Note_off_c, 0, 58, 63
1, 474372, Control_c, 0, 64, 97
1, 474391, Poly_aftertouch_c, 0, 60, 28
1, 474392, Control_c, 0, 64, 73
1, 474397, Note_on_c, 0, 60, 80
1, 474409, Control_c, 0, 64, 62
1, 474426, Poly_aftertouch_c, 0, 48, 28
1, 474428, Control_c, 0, 64, 63
1, 474431, Note_on_c, 0, 48, 46
1, 474447, Control_c, 0, 64, 70
1, 474455, Note_off_c, 0, 67, 56
1, 474466, Control_c, 0, 64, 85
1, 474483, Control_c, 0, 64, 127
1, 474527, Note_off_c, 0, 48, 35
1, 474568, Note_off_c, 0, 60, 53
1, 474583, Note_off_c, 0, 63, 57
1, 474814, Poly_aftertouch_c, 0, 46, 28
1, 474822, Poly_aftertouch_c, 0, 53, 28
1, 474828, Note_on_c, 0, 46, 35
1, 474830, Note_on_c, 0, 53, 49
1, 474921, Poly_aftertouch_c, 0, 62, 28
1, 474924, Note_on_c, 0, 62, 69
1, 474928, Poly_aftertouch_c, 0, 70, 28
1, 474933, Note_on_c, 0, 70, 69
1, 474939, Poly_aftertouch_c, 0, 56, 28
1, 474945, Note_on_c, 0, 56, 53
1, 474951, Control_c, 0, 64, 94
1, 474972, Control_c, 0, 64, 66
1, 474992, Control_c, 0, 64, 40
1, 475008, Control_c, 0, 64, 19
1, 475028, Control_c, 0, 64, 12
1, 475102, Control_c, 0, 64, 24
1, 475121, Control_c, 0, 64, 38
1, 475139, Control_c, 0, 64, 61
1, 475159, Control_c, 0, 64, 84
1, 475178, Control_c, 0, 64, 127
1, 475252, Note_off_c, 0, 70, 53
1, 475275, Note_off_c, 0, 53, 50
1, 475465, Note_off_c, 0, 46, 48
1, 475495, Control_c, 0, 64, 101
1, 475504, Poly_aftertouch_c, 0, 63, 28
1, 475508, Note_on_c, 0, 63, 67
1, 475513, Control_c, 0, 64, 85
1, 475550, Note_off_c, 0, 62, 62
1, 475552, Control_c, 0, 64, 92
1, 475570, Control_c, 0, 64, 108
1, 475589, Control_c, 0, 64, 127
1, 475767, Poly_aftertouch_c, 0, 34, 28
1, 475774, Note_on_c, 0, 34, 42
1, 475776, Control_c, 0, 64, 87
1, 475796, Control_c, 0, 64, 66
1, 475813, Control_c, 0, 64, 55
1, 475851, Control_c, 0, 64, 63
1, 475870, Control_c, 0, 64, 72
1, 475888, Control_c, 0, 64, 89
1, 475907, Control_c, 0, 64, 127
1, 475972, Note_off_c, 0, 34, 52
1, 476225, Control_c, 0, 67, 112
1, 476241, Poly_aftertouch_c, 0, 50, 28
1, 476255, Note_on_c, 0, 50, 34
1, 476356, Control_c, 0, 64, 90
1, 476366, Poly_aftertouch_c, 0, 65, 28
1, 476372, Note_on_c, 0, 65, 41
1, 476374, Control_c, 0, 64, 67
1, 476378, Note_off_c, 0, 63, 54
1, 476396, Control_c, 0, 64, 49
1, 476412, Control_c, 0, 64, 39
1, 476469, Control_c, 0, 64, 42
1, 476487, Control_c, 0, 64, 54
1, 476507, Control_c, 0, 64, 69
1, 476525, Control_c, 0, 64, 88
1, 476542, Control_c, 0, 64, 127
1, 476696, Note_off_c, 0, 65, 35
1, 476802, Note_off_c, 0, 56, 55
1, 477108, Note_off_c, 0, 50, 30
1, 477284, Poly_aftertouch_c, 0, 63, 28
1, 477291, Note_on_c, 0, 63, 40
1, 477313, Poly_aftertouch_c, 0, 39, 28
1, 477315, Poly_aftertouch_c, 0, 55, 28
1, 477319, Poly_aftertouch_c, 0, 51, 28
1, 477322, Note_on_c, 0, 55, 35
1, 477327, Note_on_c, 0, 39, 22
1, 477332, Note_on_c, 0, 51, 14
1, 477405, Control_c, 0, 64, 113
1, 477423, Control_c, 0, 64, 94
1, 477443, Control_c, 0, 64, 79
1, 477461, Control_c, 0, 64, 66
1, 477479, Control_c, 0, 64, 55
1, 477499, Control_c, 0, 64, 45
1, 477517, Control_c, 0, 64, 35
1, 477537, Control_c, 0, 64, 27
1, 477554, Control_c, 0, 64, 20
1, 477685, Control_c, 0, 64, 24
1, 477704, Control_c, 0, 64, 31
1, 477723, Control_c, 0, 64, 40
1, 477741, Control_c, 0, 64, 53
1, 477760, Control_c, 0, 64, 67
1, 477779, Control_c, 0, 64, 76
1, 477798, Control_c, 0, 64, 85
1, 477816, Control_c, 0, 64, 94
1, 477835, Control_c, 0, 64, 108
1, 477853, Control_c, 0, 64, 127
1, 478062, Note_off_c, 0, 39, 38
1, 478088, Note_off_c, 0, 55, 40
1, 478089, Note_off_c, 0, 63, 37
1, 478092, Note_off_c, 0, 51, 33
1, 478692, Poly_aftertouch_c, 0, 55, 28
1, 478697, Poly_aftertouch_c, 0, 45, 28
1, 478698, Poly_aftertouch_c, 0, 63, 28
1, 478702, Note_on_c, 0, 45, 42
1, 478702, Note_on_c, 0, 55, 37
1, 478706, Note_on_c, 0, 63, 36
1, 478710, Poly_aftertouch_c, 0, 51, 28
1, 478721, Note_on_c, 0, 51, 22
1, 478721, Poly_aftertouch_c, 0, 39, 28
1, 478732, Note_on_c, 0, 39, 34
1, 478771, Control_c, 0, 64, 109
1, 478790, Control_c, 0, 64, 97
1, 478809, Control_c, 0, 64, 86
1, 478827, Control_c, 0, 64, 78
1, 478846, Control_c, 0, 64, 71
1, 478865, Control_c, 0, 64, 66
1, 478883, Control_c, 0, 64, 62
1, 478902, Control_c, 0, 64, 59
1, 478921, Control_c, 0, 64, 57
1, 478940, Control_c, 0, 64, 55
1, 478958, Control_c, 0, 64, 53
1, 478977, Control_c, 0, 64, 51
1, 478995, Control_c, 0, 64, 49
1, 479014, Control_c, 0, 64, 47
1, 479032, Control_c, 0, 64, 45
1, 479052, Control_c, 0, 64, 43
1, 479089, Control_c, 0, 64, 40
1, 479183, Control_c, 0, 64, 36
1, 479297, Poly_aftertouch_c, 0, 46, 28
1, 479306, Note_on_c, 0, 46, 47
1, 479408, Note_off_c, 0, 45, 56
1, 479680, Poly_aftertouch_c, 0, 48, 28
1, 479683, Note_on_c, 0, 48, 50
1, 479745, Note_off_c, 0, 46, 60
1, 480142, Poly_aftertouch_c, 0, 46, 28
1, 480155, Note_on_c, 0, 46, 41
1, 480228, Note_off_c, 0, 48, 58
1, 480569, Control_c, 0, 64, 40
1, 480586, Control_c, 0, 64, 44
1, 480606, Control_c, 0, 64, 51
1, 480624, Control_c, 0, 64, 57
1, 480643, Control_c, 0, 64, 61
1, 480662, Control_c, 0, 64, 64
1, 480681, Control_c, 0, 64, 68
1, 480699, Control_c, 0, 64, 72
1, 480718, Control_c, 0, 64, 80
1, 480737, Control_c, 0, 64, 93
1, 480754, Control_c, 0, 64, 122
1, 480774, Control_c, 0, 64, 127
1, 480933, Note_off_c, 0, 51, 38
1, 480934, Note_off_c, 0, 55, 38
1, 481090, Note_off_c, 0, 63, 36
1, 481317, Control_c, 0, 67, 116
1, 481503, Control_c, 0, 67, 121
1, 481578, Control_c, 0, 67, 127
1, 481924, Poly_aftertouch_c, 0, 55, 28
1, 481930, Note_on_c, 0, 55, 44
1, 481978, Poly_aftertouch_c, 0, 63, 28
1, 481987, Note_on_c, 0, 63, 26
1, 481987, Poly_aftertouch_c, 0, 67, 28
1, 482041, Poly_aftertouch_c, 0, 67, 127
1, 482129, Poly_aftertouch_c, 0, 46, 22
1, 482172, Note_off_c, 0, 46, 29
1, 482180, Note_off_c, 0, 39, 36
1, 482246, Poly_aftertouch_c, 0, 67, 0
1, 482263, Poly_aftertouch_c, 0, 63, 22
1, 482295, Note_off_c, 0, 63, 28
1, 484675, Poly_aftertouch_c, 0, 67, 28
1, 484684, Note_on_c, 0, 67, 57
1, 484699, Poly_aftertouch_c, 0, 45, 28
1, 484710, Poly_aftertouch_c, 0, 57, 28
1, 484712, Note_on_c, 0, 45, 20
1, 484716, Poly_aftertouch_c, 0, 51, 28
1, 484720, Note_on_c, 0, 57, 28
1, 484721, Note_on_c, 0, 51, 31
1, 484723, Poly_aftertouch_c, 0, 63, 28
1, 484729, Note_on_c, 0, 63, 45
1, 484761, Control_c, 0, 64, 106
1, 484780, Control_c, 0, 64, 87
1, 484799, Control_c, 0, 64, 70
1, 484818, Control_c, 0, 64, 55
1, 484836, Control_c, 0, 64, 42
1, 484854, Control_c, 0, 64, 34
1, 484948, Control_c, 0, 64, 45
1, 484967, Control_c, 0, 64, 59
1, 484986, Control_c, 0, 64, 72
1, 485005, Control_c, 0, 64, 89
1, 485024, Control_c, 0, 64, 127
1, 485205, Note_off_c, 0, 45, 36
1, 485248, Note_off_c, 0, 57, 37
1, 485940, Poly_aftertouch_c, 0, 58, 28
1, 485955, Note_on_c, 0, 58, 33
1, 485958, Poly_aftertouch_c, 0, 46, 28
1, 485969, Note_on_c, 0, 46, 36
1, 485997, Control_c, 0, 64, 109
1, 486015, Control_c, 0, 64, 83
1, 486035, Control_c, 0, 64, 68
1, 486052, Control_c, 0, 64, 61
1, 486090, Control_c, 0, 64, 63
1, 486108, Control_c, 0, 64, 67
1, 486127, Control_c, 0, 64, 74
1, 486146, Control_c, 0, 64, 83
1, 486166, Control_c, 0, 64, 99
1, 486183, Control_c, 0, 64, 127
1, 486205, Note_off_c, 0, 46, 44
1, 486252, Note_off_c, 0, 58, 43
1, 486773, Poly_aftertouch_c, 0, 48, 28
1, 486780, Note_on_c, 0, 48, 36
1, 486780, Control_c, 0, 64, 105
1, 486791, Poly_aftertouch_c, 0, 60, 28
1, 486802, Control_c, 0, 64, 86
1, 486804, Note_on_c, 0, 60, 10
1, 486820, Control_c, 0, 64, 70
1, 486839, Control_c, 0, 64, 57
1, 486857, Control_c, 0, 64, 45
1, 486876, Control_c, 0, 64, 37
1, 486970, Control_c, 0, 64, 42
1, 486989, Control_c, 0, 64, 56
1, 487007, Control_c, 0, 64, 70
1, 487027, Control_c, 0, 64, 88
1, 487044, Control_c, 0, 64, 127
1, 487146, Note_off_c, 0, 60, 35
1, 487181, Note_off_c, 0, 48, 40
1, 487941, Poly_aftertouch_c, 0, 58, 28
1, 487955, Poly_aftertouch_c, 0, 46, 28
1, 487957, Note_on_c, 0, 58, 26
1, 487966, Note_on_c, 0, 46, 29
1, 488131, Control_c, 0, 64, 118
1, 488149, Control_c, 0, 64, 104
1, 488167, Control_c, 0, 64, 93
1, 488186, Control_c, 0, 64, 85
1, 488205, Control_c, 0, 64, 78
1, 488224, Control_c, 0, 64, 71
1, 488242, Control_c, 0, 64, 66
1, 488260, Control_c, 0, 64, 62
1, 488280, Control_c, 0, 64, 60
1, 488299, Control_c, 0, 64, 58
1, 488317, Control_c, 0, 64, 56
1, 488335, Control_c, 0, 64, 54
1, 488373, Control_c, 0, 64, 51
1, 488429, Control_c, 0, 64, 49
1, 488468, Control_c, 0, 64, 47
1, 488542, Control_c, 0, 64, 45
1, 489122, Control_c, 0, 64, 48
1, 489140, Control_c, 0, 64, 50
1, 489160, Control_c, 0, 64, 52
1, 489197, Control_c, 0, 64, 55
1, 489235, Control_c, 0, 64, 57
1, 489272, Control_c, 0, 64, 59
1, 489292, Control_c, 0, 64, 60
1, 489310, Control_c, 0, 64, 61
1, 489329, Control_c, 0, 64, 62
1, 489347, Control_c, 0, 64, 64
1, 489384, Control_c, 0, 64, 65
1, 489422, Control_c, 0, 64, 67
1, 489459, Control_c, 0, 64, 69
1, 489496, Control_c, 0, 64, 71
1, 489515, Control_c, 0, 64, 73
1, 489535, Control_c, 0, 64, 76
1, 489553, Control_c, 0, 64, 78
1, 489554, Control_c, 0, 67, 122
1, 489572, Control_c, 0, 64, 82
1, 489591, Control_c, 0, 64, 85
1, 489609, Control_c, 0, 64, 88
1, 489610, Control_c, 0, 67, 118
1, 489647, Control_c, 0, 64, 92
1, 489648, Control_c, 0, 67, 113
1, 489684, Control_c, 0, 67, 106
1, 489702, Control_c, 0, 64, 97
1, 489721, Control_c, 0, 67, 98
1, 489740, Control_c, 0, 64, 103
1, 489741, Control_c, 0, 67, 94
1, 489759, Control_c, 0, 64, 107
1, 489778, Control_c, 0, 64, 114
1, 489778, Control_c, 0, 67, 87
1, 489797, Control_c, 0, 64, 127
1, 489815, Control_c, 0, 67, 80
1, 489854, Control_c, 0, 67, 74
1, 489890, Control_c, 0, 67, 68
1, 489927, Control_c, 0, 67, 60
1, 489965, Control_c, 0, 67, 54
1, 490002, Control_c, 0, 67, 48
1, 490040, Control_c, 0, 67, 42
1, 490076, Note_off_c, 0, 51, 36
1, 490076, Control_c, 0, 67, 35
1, 490114, Control_c, 0, 67, 29
1, 490151, Control_c, 0, 67, 23
1, 490170, Control_c, 0, 67, 19
1, 490189, Control_c, 0, 67, 15
1, 490207, Control_c, 0, 67, 11
1, 490274, Note_off_c, 0, 55, 38
1, 490334, Note_off_c, 0, 58, 43
1, 490357, Control_c, 0, 67, 0
1, 490415, Note_off_c, 0, 67, 46
1, 490448, Note_off_c, 0, 46, 36
1, 490502, Note_off_c, 0, 63, 47
1, 490655, Poly_aftertouch_c, 0, 45, 28
1, 490657, Note_on_c, 0, 45, 92
1, 490791, Poly_aftertouch_c, 0, 51, 28
1, 490792, Note_on_c, 0, 51, 87
1, 490953, Poly_aftertouch_c, 0, 75, 28
1, 490955, Poly_aftertouch_c, 0, 75, 0
1, 490966, Poly_aftertouch_c, 0, 79, 28
1, 490969, Note_on_c, 0, 79, 96
1, 490971, Poly_aftertouch_c, 0, 60, 28
1, 490974, Note_on_c, 0, 60, 86
1, 490974, Control_c, 0, 64, 111
1, 490995, Control_c, 0, 64, 73
1, 491013, Control_c, 0, 64, 46
1, 491032, Control_c, 0, 64, 28
1, 491050, Control_c, 0, 64, 21
1, 491107, Poly_aftertouch_c, 0, 75, 28
1, 491107, Control_c, 0, 64, 32
1, 491109, Note_on_c, 0, 75, 87
1, 491124, Control_c, 0, 64, 49
1, 491129, Note_off_c, 0, 79, 65
1, 491144, Control_c, 0, 64, 72
1, 491163, Control_c, 0, 64, 95
1, 491181, Control_c, 0, 64, 127
1, 491212, Note_off_c, 0, 75, 66
1, 491226, Note_on_c, 0, 72, 91
1, 491227, Poly_aftertouch_c, 0, 72, 28
1, 491251, Note_off_c, 0, 60, 58
1, 491321, Note_off_c, 0, 45, 62
1, 491326, Note_off_c, 0, 51, 61
1, 491328, Poly_aftertouch_c, 0, 70, 28
1, 491331, Note_on_c, 0, 70, 94
1, 491349, Note_off_c, 0, 72, 60
1, 491394, Note_off_c, 0, 70, 66
1, 491545, Poly_aftertouch_c, 0, 79, 28
1, 491547, Note_on_c, 0, 79, 96
1, 491550, Poly_aftertouch_c, 0, 75, 28
1, 491552, Note_on_c, 0, 75, 84
1, 491562, Poly_aftertouch_c, 0, 72, 28
1, 491566, Note_on_c, 0, 72, 75
1, 491569, Note_on_c, 0, 69, 82
1, 491569, Poly_aftertouch_c, 0, 69, 28
1, 491612, Control_c, 0, 64, 110
1, 491633, Control_c, 0, 64, 74
1, 491650, Control_c, 0, 64, 44
1, 491687, Control_c, 0, 64, 0
1, 491737, Poly_aftertouch_c, 0, 38, 28
1, 491743, Note_on_c, 0, 38, 72
1, 491798, Control_c, 0, 64, 9
1, 491818, Control_c, 0, 64, 20
1, 491836, Control_c, 0, 64, 35
1, 491855, Control_c, 0, 64, 56
1, 491874, Control_c, 0, 64, 72
1, 491893, Control_c, 0, 64, 84
1, 491896, Poly_aftertouch_c, 0, 45, 28
1, 491899, Note_on_c, 0, 45, 75
1, 491901, Note_off_c, 0, 38, 61
1, 491911, Control_c, 0, 64, 95
1, 491930, Control_c, 0, 64, 103
1, 491968, Control_c, 0, 64, 112
1, 491986, Control_c, 0, 64, 127
1, 492001, Note_off_c, 0, 45, 62
1, 492005, Poly_aftertouch_c, 0, 48, 28
1, 492010, Note_on_c, 0, 48, 78
1, 492045, Note_off_c, 0, 48, 68
1, 492127, Poly_aftertouch_c, 0, 50, 28
1, 492133, Note_on_c, 0, 50, 84
1, 492155, Note_off_c, 0, 79, 57
1, 492232, Poly_aftertouch_c, 0, 69, 24
1, 492240, Poly_aftertouch_c, 0, 57, 28
1, 492241, Note_on_c, 0, 57, 81
1, 492250, Note_off_c, 0, 50, 61
1, 492263, Poly_aftertouch_c, 0, 72, 24
1, 492265, Control_c, 0, 64, 82
1, 492276, Note_off_c, 0, 75, 56
1, 492284, Note_off_c, 0, 69, 37
1, 492284, Control_c, 0, 64, 58
1, 492289, Note_off_c, 0, 72, 49
1, 492305, Control_c, 0, 64, 38
1, 492322, Poly_aftertouch_c, 0, 78, 28
1, 492323, Control_c, 0, 64, 34
1, 492326, Note_on_c, 0, 78, 87
1, 492335, Note_off_c, 0, 57, 63
1, 492340, Poly_aftertouch_c, 0, 60, 28
1, 492340, Control_c, 0, 64, 40
1, 492341, Note_on_c, 0, 60, 80
1, 492361, Control_c, 0, 64, 54
1, 492379, Control_c, 0, 64, 70
1, 492398, Control_c, 0, 64, 89
1, 492416, Note_off_c, 0, 60, 56
1, 492416, Control_c, 0, 64, 107
1, 492424, Poly_aftertouch_c, 0, 72, 28
1, 492424, Poly_aftertouch_c, 0, 75, 28
1, 492429, Note_on_c, 0, 72, 72
1, 492430, Note_on_c, 0, 75, 71
1, 492431, Note_on_c, 0, 69, 71
1, 492432, Poly_aftertouch_c, 0, 69, 28
1, 492435, Control_c, 0, 64, 93
1, 492436, Poly_aftertouch_c, 0, 50, 28
1, 492439, Note_off_c, 0, 78, 63
1, 492441, Note_on_c, 0, 50, 83
1, 492454, Control_c, 0, 64, 74
1, 492473, Control_c, 0, 64, 58
1, 492476, Note_off_c, 0, 75, 62
1, 492484, Note_off_c, 0, 69, 54
1, 492485, Note_off_c, 0, 72, 61
1, 492492, Control_c, 0, 64, 53
1, 492510, Control_c, 0, 64, 57
1, 492529, Control_c, 0, 64, 65
1, 492538, Poly_aftertouch_c, 0, 58, 28
1, 492542, Note_off_c, 0, 50, 55
1, 492542, Note_on_c, 0, 58, 86
1, 492544, Poly_aftertouch_c, 0, 79, 28
1, 492548, Control_c, 0, 64, 78
1, 492549, Note_on_c, 0, 79, 95
1, 492567, Control_c, 0, 64, 121
1, 492586, Control_c, 0, 64, 127
1, 492625, Note_off_c, 0, 58, 63
1, 492637, Poly_aftertouch_c, 0, 74, 28
1, 492638, Note_off_c, 0, 79, 61
1, 492640, Note_on_c, 0, 74, 58
1, 492643, Poly_aftertouch_c, 0, 70, 28
1, 492647, Note_on_c, 0, 70, 79
1, 492648, Poly_aftertouch_c, 0, 50, 28
1, 492650, Poly_aftertouch_c, 0, 67, 28
1, 492655, Note_on_c, 0, 50, 87
1, 492657, Note_on_c, 0, 67, 67
1, 492681, Note_off_c, 0, 74, 62
1, 492700, Note_off_c, 0, 67, 56
1, 492707, Note_off_c, 0, 70, 61
1, 492735, Control_c, 0, 64, 105
1, 492737, Note_off_c, 0, 50, 62
1, 492754, Control_c, 0, 64, 71
1, 492768, Poly_aftertouch_c, 0, 54, 28
1, 492770, Poly_aftertouch_c, 0, 81, 28
1, 492772, Note_on_c, 0, 54, 86
1, 492772, Note_on_c, 0, 81, 99
1, 492772, Control_c, 0, 64, 47
1, 492791, Control_c, 0, 64, 36
1, 492828, Control_c, 0, 64, 49
1, 492848, Control_c, 0, 64, 65
1, 492865, Control_c, 0, 64, 82
1, 492867, Note_off_c, 0, 54, 65
1, 492867, Poly_aftertouch_c, 0, 50, 28
1, 492869, Note_off_c, 0, 81, 63
1, 492871, Note_on_c, 0, 50, 86
1, 492885, Control_c, 0, 64, 116
1, 492889, Note_on_c, 0, 72, 73
1, 492891, Poly_aftertouch_c, 0, 69, 28
1, 492892, Poly_aftertouch_c, 0, 72, 28
1, 492894, Note_on_c, 0, 69, 73
1, 492905, Control_c, 0, 64, 127
1, 492911, Note_off_c, 0, 72, 65
1, 492929, Note_off_c, 0, 69, 60
1, 492936, Note_off_c, 0, 50, 63
1, 493165, Control_c, 0, 64, 113
1, 493171, Poly_aftertouch_c, 0, 70, 28
1, 493178, Note_on_c, 0, 70, 93
1, 493184, Control_c, 0, 64, 75
1, 493203, Control_c, 0, 64, 47
1, 493221, Control_c, 0, 64, 21
1, 493241, Control_c, 0, 64, 13
1, 493278, Poly_aftertouch_c, 0, 67, 28
1, 493278, Control_c, 0, 64, 25
1, 493281, Note_on_c, 0, 67, 86
1, 493297, Control_c, 0, 64, 43
1, 493316, Control_c, 0, 64, 68
1, 493334, Control_c, 0, 64, 94
1, 493342, Note_off_c, 0, 70, 58
1, 493352, Control_c, 0, 64, 127
1, 493378, Poly_aftertouch_c, 0, 63, 28
1, 493381, Note_on_c, 0, 63, 90
1, 493388, Note_off_c, 0, 67, 65
1, 493474, Note_off_c, 0, 63, 46
1, 493474, Poly_aftertouch_c, 0, 62, 28
1, 493478, Note_on_c, 0, 62, 87
1, 493623, Poly_aftertouch_c, 0, 70, 28
1, 493628, Note_on_c, 0, 64, 88
1, 493629, Note_on_c, 0, 70, 93
1, 493629, Note_on_c, 0, 61, 89
1, 493631, Poly_aftertouch_c, 0, 61, 28
1, 493631, Poly_aftertouch_c, 0, 64, 28
1, 493633, Poly_aftertouch_c, 0, 67, 28
1, 493638, Note_on_c, 0, 67, 85
1, 493652, Control_c, 0, 64, 92
1, 493668, Note_off_c, 0, 62, 62
1, 493671, Control_c, 0, 64, 58
1, 493690, Control_c, 0, 64, 20
1, 493708, Control_c, 0, 64, 0
1, 493727, Poly_aftertouch_c, 0, 31, 28
1, 493734, Note_on_c, 0, 31, 69
1, 493765, Control_c, 0, 64, 15
1, 493784, Control_c, 0, 64, 29
1, 493802, Control_c, 0, 64, 46
1, 493820, Control_c, 0, 64, 65
1, 493840, Control_c, 0, 64, 79
1, 493858, Control_c, 0, 64, 96
1, 493867, Note_off_c, 0, 31, 62
1, 493876, Control_c, 0, 64, 117
1, 493896, Control_c, 0, 64, 127
1, 493898, Poly_aftertouch_c, 0, 43, 28
1, 493903, Note_on_c, 0, 43, 71
1, 493942, Note_off_c, 0, 43, 66
1, 493961, Note_off_c, 0, 64, 57
1, 493974, Note_off_c, 0, 61, 54
1, 493975, Note_off_c, 0, 67, 54
1, 494052, Poly_aftertouch_c, 0, 46, 28
1, 494060, Note_on_c, 0, 46, 71
1, 494142, Note_off_c, 0, 46, 62
1, 494166, Poly_aftertouch_c, 0, 52, 28
1, 494168, Note_on_c, 0, 52, 63
1, 494190, Note_on_c, 0, 53, 60
1, 494226, Note_off_c, 0, 53, 36
1, 494226, Poly_aftertouch_c, 0, 53, 28
1, 494268, Poly_aftertouch_c, 0, 55, 28
1, 494268, Control_c, 0, 64, 80
1, 494274, Note_on_c, 0, 55, 80
1, 494289, Control_c, 0, 64, 53
1, 494307, Control_c, 0, 64, 28
1, 494314, Note_off_c, 0, 52, 59
1, 494326, Control_c, 0, 64, 20
1, 494340, Note_off_c, 0, 70, 58
1, 494348, Poly_aftertouch_c, 0, 67, 28
1, 494351, Note_on_c, 0, 67, 78
1, 494363, Control_c, 0, 64, 31
1, 494367, Poly_aftertouch_c, 0, 58, 28
1, 494370, Note_on_c, 0, 58, 80
1, 494383, Control_c, 0, 64, 50
1, 494401, Control_c, 0, 64, 74
1, 494405, Note_off_c, 0, 55, 59
1, 494419, Control_c, 0, 64, 127
1, 494447, Note_off_c, 0, 58, 63
1, 494448, Poly_aftertouch_c, 0, 64, 28
1, 494449, Note_off_c, 0, 67, 61
1, 494452, Note_on_c, 0, 64, 71
1, 494461, Poly_aftertouch_c, 0, 50, 28
1, 494466, Note_on_c, 0, 50, 78
1, 494488, Note_off_c, 0, 64, 66
1, 494514, Control_c, 0, 64, 95
1, 494532, Control_c, 0, 64, 66
1, 494549, Note_off_c, 0, 50, 57
1, 494551, Control_c, 0, 64, 45
1, 494559, Poly_aftertouch_c, 0, 55, 28
1, 494562, Note_on_c, 0, 55, 80
1, 494569, Poly_aftertouch_c, 0, 73, 28
1, 494570, Control_c, 0, 64, 42
1, 494571, Note_on_c, 0, 73, 87
1, 494588, Control_c, 0, 64, 56
1, 494607, Control_c, 0, 64, 78
1, 494625, Control_c, 0, 64, 127
1, 494657, Poly_aftertouch_c, 0, 50, 28
1, 494663, Note_on_c, 0, 50, 81
1, 494664, Poly_aftertouch_c, 0, 70, 28
1, 494669, Note_off_c, 0, 55, 58
1, 494669, Poly_aftertouch_c, 0, 64, 28
1, 494673, Note_on_c, 0, 70, 72
1, 494676, Note_on_c, 0, 64, 61
1, 494677, Note_off_c, 0, 73, 62
1, 494719, Control_c, 0, 64, 89
1, 494723, Note_off_c, 0, 64, 63
1, 494738, Control_c, 0, 64, 63
1, 494748, Note_off_c, 0, 70, 63
1, 494756, Control_c, 0, 64, 51
1, 494758, Note_off_c, 0, 50, 47
1, 494769, Poly_aftertouch_c, 0, 54, 28
1, 494771, Poly_aftertouch_c, 0, 74, 28
1, 494773, Note_on_c, 0, 54, 85
1, 494774, Control_c, 0, 64, 55
1, 494776, Note_on_c, 0, 74, 88
1, 494794, Control_c, 0, 64, 66
1, 494812, Control_c, 0, 64, 81
1, 494832, Control_c, 0, 64, 127
1, 494866, Poly_aftertouch_c, 0, 50, 28
1, 494867, Note_off_c, 0, 54, 65
1, 494868, Note_on_c, 0, 50, 89
1, 494874, Poly_aftertouch_c, 0, 69, 28
1, 494876, Note_on_c, 0, 69, 78
1, 494880, Poly_aftertouch_c, 0, 62, 28
1, 494885, Note_on_c, 0, 62, 57
1, 494893, Note_off_c, 0, 74, 62
1, 494913, Note_off_c, 0, 62, 61
1, 494945, Note_off_c, 0, 50, 60
1, 494954, Note_off_c, 0, 69, 62
1, 495130, Poly_aftertouch_c, 0, 79, 28
1, 495131, Note_on_c, 0, 79, 97
1, 495149, Control_c, 0, 64, 81
1, 495168, Control_c, 0, 64, 50
1, 495188, Control_c, 0, 64, 19
1, 495206, Control_c, 0, 64, 9
1, 495237, Poly_aftertouch_c, 0, 75, 28
1, 495238, Note_off_c, 0, 79, 58
1, 495243, Control_c, 0, 64, 21
1, 495245, Note_on_c, 0, 75, 89
1, 495262, Control_c, 0, 64, 40
1, 495281, Control_c, 0, 64, 69
1, 495299, Control_c, 0, 64, 127
1, 495312, Note_off_c, 0, 75, 65
1, 495328, Poly_aftertouch_c, 0, 72, 28
1, 495330, Note_on_c, 0, 72, 87
1, 495412, Poly_aftertouch_c, 0, 70, 28
1, 495416, Note_on_c, 0, 70, 86
1, 495423, Note_off_c, 0, 72, 59
1, 495464, Note_off_c, 0, 70, 67
1, 495511, Poly_aftertouch_c, 0, 75, 28
1, 495517, Note_on_c, 0, 75, 89
1, 495518, Poly_aftertouch_c, 0, 79, 28
1, 495520, Note_on_c, 0, 79, 89
1, 495525, Poly_aftertouch_c, 0, 69, 28
1, 495526, Poly_aftertouch_c, 0, 72, 28
1, 495527, Note_on_c, 0, 69, 88
1, 495529, Note_on_c, 0, 72, 84
1, 495542, Control_c, 0, 64, 100
1, 495562, Control_c, 0, 64, 68
1, 495580, Control_c, 0, 64, 43
1, 495599, Control_c, 0, 64, 28
1, 495609, Poly_aftertouch_c, 0, 60, 28
1, 495612, Note_on_c, 0, 60, 88
1, 495674, Control_c, 0, 64, 41
1, 495682, Note_off_c, 0, 60, 63
1, 495692, Control_c, 0, 64, 53
1, 495711, Control_c, 0, 64, 62
1, 495712, Poly_aftertouch_c, 0, 57, 28
1, 495716, Note_on_c, 0, 57, 81
1, 495730, Control_c, 0, 64, 65
1, 495784, Note_off_c, 0, 57, 62
1, 495786, Control_c, 0, 64, 66
1, 495805, Control_c, 0, 64, 68
1, 495817, Poly_aftertouch_c, 0, 51, 28
1, 495820, Note_on_c, 0, 51, 79
1, 495822, Control_c, 0, 64, 70
1, 495842, Control_c, 0, 64, 73
1, 495862, Control_c, 0, 64, 77
1, 495879, Control_c, 0, 64, 82
1, 495882, Note_off_c, 0, 51, 62
1, 495899, Control_c, 0, 64, 90
1, 495905, Note_off_c, 0, 69, 55
1, 495917, Control_c, 0, 64, 101
1, 495931, Note_off_c, 0, 72, 58
1, 495934, Control_c, 0, 64, 127
1, 495956, Poly_aftertouch_c, 0, 48, 28
1, 495957, Note_off_c, 0, 79, 64
1, 495960, Note_on_c, 0, 48, 78
1, 495971, Note_off_c, 0, 75, 63
1, 496031, Note_off_c, 0, 48, 60
1, 496035, Poly_aftertouch_c, 0, 38, 28
1, 496041, Note_on_c, 0, 38, 81
1, 496087, Note_off_c, 0, 38, 62
1, 496088, Poly_aftertouch_c, 0, 47, 28
1, 496089, Poly_aftertouch_c, 0, 47, 0
1, 496217, Control_c, 0, 64, 98
1, 496237, Control_c, 0, 64, 68
1, 496241, Poly_aftertouch_c, 0, 84, 28
1, 496243, Note_on_c, 0, 84, 86
1, 496245, Poly_aftertouch_c, 0, 54, 28
1, 496250, Note_on_c, 0, 54, 67
1, 496256, Control_c, 0, 64, 46
1, 496272, Control_c, 0, 64, 40
1, 496292, Control_c, 0, 64, 43
1, 496307, Note_off_c, 0, 54, 54
1, 496310, Control_c, 0, 64, 52
1, 496313, Note_off_c, 0, 84, 57
1, 496329, Control_c, 0, 64, 63
1, 496339, Poly_aftertouch_c, 0, 50, 28
1, 496341, Poly_aftertouch_c, 0, 72, 28
1, 496342, Poly_aftertouch_c, 0, 75, 28
1, 496345, Note_on_c, 0, 72, 64
1, 496346, Note_on_c, 0, 50, 74
1, 496347, Note_on_c, 0, 75, 71
1, 496347, Control_c, 0, 64, 74
1, 496366, Control_c, 0, 64, 86
1, 496381, Note_off_c, 0, 72, 62
1, 496385, Control_c, 0, 64, 107
1, 496387, Note_off_c, 0, 75, 62
1, 496404, Control_c, 0, 64, 127
1, 496418, Note_off_c, 0, 50, 60
1, 496431, Poly_aftertouch_c, 0, 55, 28
1, 496432, Note_on_c, 0, 55, 82
1, 496442, Poly_aftertouch_c, 0, 81, 28
1, 496444, Note_on_c, 0, 81, 86
1, 496521, Note_off_c, 0, 81, 62
1, 496525, Poly_aftertouch_c, 0, 75, 28
1, 496529, Note_off_c, 0, 55, 61
1, 496533, Note_on_c, 0, 75, 77
1, 496538, Poly_aftertouch_c, 0, 50, 28
1, 496543, Note_on_c, 0, 50, 84
1, 496547, Note_on_c, 0, 69, 80
1, 496549, Poly_aftertouch_c, 0, 69, 28
1, 496563, Note_off_c, 0, 75, 72
1, 496585, Note_off_c, 0, 69, 60
1, 496603, Note_off_c, 0, 50, 59
1, 496623, Poly_aftertouch_c, 0, 57, 28
1, 496628, Note_on_c, 0, 57, 80
1, 496642, Poly_aftertouch_c, 0, 72, 28
1, 496648, Note_on_c, 0, 72, 94
1, 496698, Note_off_c, 0, 57, 66
1, 496706, Poly_aftertouch_c, 0, 50, 28
1, 496710, Note_on_c, 0, 50, 88
1, 496731, Poly_aftertouch_c, 0, 66, 28
1, 496735, Note_on_c, 0, 66, 82
1, 496736, Poly_aftertouch_c, 0, 60, 28
1, 496738, Note_on_c, 0, 60, 78
1, 496743, Note_off_c, 0, 72, 62
1, 496772, Note_off_c, 0, 50, 60
1, 496909, Control_c, 0, 64, 97
1, 496929, Control_c, 0, 64, 66
1, 496931, Note_off_c, 0, 66, 62
1, 496944, Note_off_c, 0, 60, 51
1, 496945, Poly_aftertouch_c, 0, 70, 28
1, 496945, Control_c, 0, 64, 37
1, 496952, Note_on_c, 0, 70, 90
1, 496965, Control_c, 0, 64, 17
1, 497021, Control_c, 0, 64, 28
1, 497040, Control_c, 0, 64, 45
1, 497052, Poly_aftertouch_c, 0, 67, 28
1, 497054, Note_on_c, 0, 67, 87
1, 497058, Control_c, 0, 64, 67
1, 497077, Control_c, 0, 64, 88
1, 497096, Control_c, 0, 64, 127
1, 497119, Note_off_c, 0, 70, 58
1, 497149, Poly_aftertouch_c, 0, 63, 28
1, 497153, Note_on_c, 0, 63, 91
1, 497160, Note_off_c, 0, 67, 62
1, 497233, Note_off_c, 0, 63, 56
1, 497241, Poly_aftertouch_c, 0, 62, 28
1, 497242, Note_on_c, 0, 62, 88
1, 497390, Poly_aftertouch_c, 0, 64, 28
1, 497391, Poly_aftertouch_c, 0, 70, 28
1, 497394, Note_on_c, 0, 64, 85
1, 497398, Note_on_c, 0, 70, 93
1, 497398, Note_on_c, 0, 61, 87
1, 497399, Poly_aftertouch_c, 0, 61, 28
1, 497400, Note_on_c, 0, 67, 80
1, 497401, Poly_aftertouch_c, 0, 67, 28
1, 497434, Control_c, 0, 64, 76
1, 497436, Note_off_c, 0, 62, 63
1, 497453, Control_c, 0, 64, 47
1, 497471, Control_c, 0, 64, 17
1, 497496, Poly_aftertouch_c, 0, 55, 28
1, 497499, Note_on_c, 0, 55, 85
1, 497529, Control_c, 0, 64, 8
1, 497545, Control_c, 0, 64, 17
1, 497559, Note_off_c, 0, 55, 64
1, 497564, Control_c, 0, 64, 29
1, 497584, Control_c, 0, 64, 43
1, 497602, Control_c, 0, 64, 61
1, 497604, Poly_aftertouch_c, 0, 52, 28
1, 497608, Note_on_c, 0, 52, 76
1, 497621, Control_c, 0, 64, 75
1, 497640, Control_c, 0, 64, 88
1, 497658, Control_c, 0, 64, 102
1, 497665, Note_off_c, 0, 52, 58
1, 497678, Control_c, 0, 64, 116
1, 497695, Control_c, 0, 64, 127
1, 497697, Poly_aftertouch_c, 0, 46, 28
1, 497702, Note_on_c, 0, 46, 80
1, 497744, Note_off_c, 0, 46, 65
1, 497816, Poly_aftertouch_c, 0, 43, 28
1, 497819, Note_on_c, 0, 43, 86
1, 497851, Note_off_c, 0, 70, 48
1, 497872, Note_off_c, 0, 67, 57
1, 497887, Note_off_c, 0, 43, 59
1, 497896, Note_off_c, 0, 64, 58
1, 497900, Poly_aftertouch_c, 0, 31, 28
1, 497902, Note_off_c, 0, 61, 57
1, 497902, Note_on_c, 0, 31, 72
1, 497939, Note_off_c, 0, 31, 61
1, 497996, Control_c, 0, 64, 96
1, 498013, Control_c, 0, 64, 64
1, 498032, Control_c, 0, 64, 37
1, 498034, Poly_aftertouch_c, 0, 69, 28
1, 498036, Note_on_c, 0, 69, 86
1, 498037, Poly_aftertouch_c, 0, 33, 28
1, 498038, Poly_aftertouch_c, 0, 33, 0
1, 498047, Poly_aftertouch_c, 0, 46, 28
1, 498050, Note_on_c, 0, 46, 73
1, 498050, Control_c, 0, 64, 29
1, 498088, Control_c, 0, 64, 45
1, 498107, Control_c, 0, 64, 66
1, 498115, Note_off_c, 0, 46, 59
1, 498126, Control_c, 0, 64, 93
1, 498130, Note_off_c, 0, 69, 56
1, 498134, Poly_aftertouch_c, 0, 61, 28
1, 498139, Poly_aftertouch_c, 0, 64, 28
1, 498142, Note_on_c, 0, 61, 55
1, 498145, Note_on_c, 0, 64, 55
1, 498145, Control_c, 0, 64, 127
1, 498154, Poly_aftertouch_c, 0, 38, 28
1, 498158, Note_on_c, 0, 38, 63
1, 498212, Note_off_c, 0, 61, 54
1, 498246, Note_off_c, 0, 64, 56
1, 498275, Control_c, 0, 64, 93
1, 498279, Note_off_c, 0, 38, 44
1, 498295, Control_c, 0, 64, 62
1, 498307, Poly_aftertouch_c, 0, 67, 28
1, 498310, Note_on_c, 0, 67, 77
1, 498311, Control_c, 0, 64, 37
1, 498316, Poly_aftertouch_c, 0, 49, 28
1, 498322, Note_on_c, 0, 49, 66
1, 498330, Control_c, 0, 64, 32
1, 498350, Control_c, 0, 64, 39
1, 498369, Control_c, 0, 64, 58
1, 498388, Control_c, 0, 64, 82
1, 498396, Note_off_c, 0, 49, 54
1, 498407, Control_c, 0, 64, 127
1, 498436, Poly_aftertouch_c, 0, 38, 28
1, 498443, Note_on_c, 0, 38, 61
1, 498444, Note_off_c, 0, 67, 59
1, 498449, Poly_aftertouch_c, 0, 64, 28
1, 498453, Note_on_c, 0, 64, 53
1, 498458, Poly_aftertouch_c, 0, 58, 28
1, 498466, Note_on_c, 0, 58, 50
1, 498519, Note_off_c, 0, 64, 60
1, 498524, Note_off_c, 0, 58, 60
1, 498555, Control_c, 0, 64, 104
1, 498562, Note_off_c, 0, 38, 56
1, 498576, Control_c, 0, 64, 70
1, 498594, Control_c, 0, 64, 45
1, 498599, Poly_aftertouch_c, 0, 66, 28
1, 498604, Note_on_c, 0, 66, 73
1, 498609, Poly_aftertouch_c, 0, 50, 28
1, 498612, Control_c, 0, 64, 36
1, 498615, Note_on_c, 0, 50, 59
1, 498651, Control_c, 0, 64, 50
1, 498670, Control_c, 0, 64, 67
1, 498687, Control_c, 0, 64, 86
1, 498707, Control_c, 0, 64, 127
1, 498720, Poly_aftertouch_c, 0, 57, 28
1, 498728, Note_on_c, 0, 57, 33
1, 498743, Poly_aftertouch_c, 0, 38, 28
1, 498744, Poly_aftertouch_c, 0, 62, 28
1, 498749, Note_on_c, 0, 38, 50
1, 498751, Note_on_c, 0, 62, 48
1, 498778, Note_off_c, 0, 57, 45
1, 498792, Note_off_c, 0, 62, 62
1, 498805, Note_off_c, 0, 38, 61
1, 498807, Note_off_c, 0, 66, 62
1, 498811, Note_off_c, 0, 50, 34
1, 499045, Poly_aftertouch_c, 0, 75, 28
1, 499051, Note_on_c, 0, 75, 67
1, 499053, Poly_aftertouch_c, 0, 36, 28
1, 499062, Note_on_c, 0, 36, 54
1, 499080, Control_c, 0, 64, 88
1, 499100, Control_c, 0, 64, 59
1, 499118, Control_c, 0, 64, 24
1, 499137, Control_c, 0, 64, 0
1, 499236, Note_off_c, 0, 36, 53
1, 499249, Control_c, 0, 64, 19
1, 499268, Control_c, 0, 64, 37
1, 499282, Poly_aftertouch_c, 0, 39, 28
1, 499287, Control_c, 0, 64, 61
1, 499288, Note_on_c, 0, 39, 43
1, 499288, Poly_aftertouch_c, 0, 72, 28
1, 499296, Note_on_c, 0, 72, 50
1, 499305, Control_c, 0, 64, 81
1, 499324, Control_c, 0, 64, 109
1, 499342, Control_c, 0, 64, 127
1, 499372, Note_off_c, 0, 39, 56
1, 499382, Note_off_c, 0, 75, 38
1, 499419, Note_off_c, 0, 72, 54
1, 499419, Poly_aftertouch_c, 0, 68, 28
1, 499423, Poly_aftertouch_c, 0, 44, 28
1, 499428, Note_on_c, 0, 68, 58
1, 499430, Note_on_c, 0, 44, 55
1, 499465, Note_off_c, 0, 44, 60
1, 499507, Poly_aftertouch_c, 0, 48, 28
1, 499508, Poly_aftertouch_c, 0, 67, 28
1, 499513, Note_on_c, 0, 48, 61
1, 499514, Note_on_c, 0, 67, 65
1, 499546, Note_off_c, 0, 68, 38
1, 499549, Note_off_c, 0, 48, 61
1, 499550, Note_off_c, 0, 67, 65
1, 499567, Control_c, 0, 64, 110
1, 499587, Control_c, 0, 64, 79
1, 499605, Control_c, 0, 64, 58
1, 499620, Poly_aftertouch_c, 0, 50, 28
1, 499622, Note_on_c, 0, 66, 75
1, 499622, Poly_aftertouch_c, 0, 66, 28
1, 499622, Control_c, 0, 64, 48
1, 499625, Note_on_c, 0, 50, 71
1, 499661, Control_c, 0, 64, 56
1, 499679, Control_c, 0, 64, 64
1, 499698, Control_c, 0, 64, 72
1, 499706, Note_off_c, 0, 50, 62
1, 499708, Note_off_c, 0, 66, 58
1, 499713, Note_on_c, 0, 54, 71
1, 499713, Poly_aftertouch_c, 0, 54, 28
1, 499715, Note_on_c, 0, 69, 76
1, 499716, Poly_aftertouch_c, 0, 69, 28
1, 499717, Control_c, 0, 64, 82
1, 499736, Control_c, 0, 64, 101
1, 499755, Control_c, 0, 64, 127
1, 499795, Poly_aftertouch_c, 0, 57, 28
1, 499801, Note_on_c, 0, 57, 65
1, 499815, Note_off_c, 0, 69, 57
1, 499816, Poly_aftertouch_c, 0, 73, 28
1, 499818, Note_on_c, 0, 73, 75
1, 499869, Note_off_c, 0, 57, 63
1, 499876, Note_off_c, 0, 54, 31
1, 499885, Poly_aftertouch_c, 0, 62, 28
1, 499890, Note_on_c, 0, 62, 74
1, 499906, Poly_aftertouch_c, 0, 74, 28
1, 499912, Note_on_c, 0, 74, 77
1, 499920, Note_off_c, 0, 62, 69
1, 499928, Note_off_c, 0, 73, 60
1, 499970, Note_off_c, 0, 74, 62
1, 500089, Poly_aftertouch_c, 0, 75, 28
1, 500091, Control_c, 0, 64, 96
1, 500092, Poly_aftertouch_c, 0, 36, 28
1, 500093, Note_on_c, 0, 36, 78
1, 500094, Note_on_c, 0, 75, 80
1, 500110, Control_c, 0, 64, 66
1, 500129, Control_c, 0, 64, 41
1, 500147, Control_c, 0, 64, 30
1, 500185, Control_c, 0, 64, 42
1, 500194, Note_off_c, 0, 36, 58
1, 500199, Poly_aftertouch_c, 0, 39, 28
1, 500203, Note_on_c, 0, 39, 66
1, 500203, Control_c, 0, 64, 59
1, 500207, Poly_aftertouch_c, 0, 72, 28
1, 500209, Note_on_c, 0, 72, 72
1, 500213, Note_off_c, 0, 75, 61
1, 500221, Control_c, 0, 64, 77
1, 500241, Control_c, 0, 64, 103
1, 500260, Control_c, 0, 64, 127
1, 500294, Poly_aftertouch_c, 0, 44, 28
1, 500300, Note_off_c, 0, 39, 61
1, 500300, Note_on_c, 0, 44, 73
1, 500303, Poly_aftertouch_c, 0, 68, 28
1, 500310, Note_on_c, 0, 68, 72
1, 500314, Note_off_c, 0, 72, 58
1, 500370, Note_off_c, 0, 44, 60
1, 500388, Poly_aftertouch_c, 0, 48, 28
1, 500392, Note_on_c, 0, 48, 76
1, 500395, Note_off_c, 0, 68, 62
1, 500395, Poly_aftertouch_c, 0, 67, 28
1, 500401, Note_on_c, 0, 67, 76
1, 500433, Note_off_c, 0, 48, 65
1, 500438, Note_off_c, 0, 67, 65
1, 500447, Control_c, 0, 64, 87
1, 500467, Control_c, 0, 64, 60
1, 500484, Control_c, 0, 64, 41
1, 500499, Poly_aftertouch_c, 0, 66, 28
1, 500502, Note_on_c, 0, 66, 86
1, 500504, Poly_aftertouch_c, 0, 50, 28
1, 500508, Note_on_c, 0, 50, 81
1, 500522, Control_c, 0, 64, 43
1, 500541, Control_c, 0, 64, 57
1, 500559, Control_c, 0, 64, 75
1, 500574, Note_off_c, 0, 66, 63
1, 500579, Control_c, 0, 64, 100
1, 500589, Poly_aftertouch_c, 0, 54, 28
1, 500590, Poly_aftertouch_c, 0, 69, 28
1, 500593, Note_on_c, 0, 54, 78
1, 500594, Note_on_c, 0, 69, 80
1, 500596, Note_off_c, 0, 50, 63
1, 500596, Control_c, 0, 64, 127
1, 500668, Poly_aftertouch_c, 0, 57, 28
1, 500673, Note_on_c, 0, 57, 80
1, 500684, Poly_aftertouch_c, 0, 73, 28
1, 500685, Note_on_c, 0, 73, 80
1, 500688, Poly_aftertouch_c, 0, 68, 28
1, 500689, Poly_aftertouch_c, 0, 68, 0
1, 500698, Note_off_c, 0, 69, 58
1, 500718, Note_off_c, 0, 54, 62
1, 500750, Note_off_c, 0, 57, 62
1, 500756, Poly_aftertouch_c, 0, 62, 28
1, 500762, Note_on_c, 0, 62, 76
1, 500775, Poly_aftertouch_c, 0, 74, 28
1, 500780, Note_on_c, 0, 74, 79
1, 500791, Note_off_c, 0, 62, 67
1, 500812, Note_off_c, 0, 73, 62
1, 500846, Note_off_c, 0, 74, 62
1, 500896, Control_c, 0, 64, 119
1, 500907, Poly_aftertouch_c, 0, 38, 28
1, 500908, Note_on_c, 0, 38, 88
1, 500915, Control_c, 0, 64, 75
1, 500919, Poly_aftertouch_c, 0, 77, 28
1, 500921, Note_on_c, 0, 77, 95
1, 500934, Control_c, 0, 64, 48
1, 500952, Control_c, 0, 64, 29
1, 501001, Poly_aftertouch_c, 0, 41, 28
1, 501002, Note_on_c, 0, 41, 79
1, 501005, Note_off_c, 0, 77, 54
1, 501009, Poly_aftertouch_c, 0, 74, 28
1, 501009, Control_c, 0, 64, 35
1, 501011, Note_on_c, 0, 74, 77
1, 501012, Note_off_c, 0, 38, 60
1, 501027, Control_c, 0, 64, 50
1, 501046, Control_c, 0, 64, 69
1, 501065, Control_c, 0, 64, 86
1, 501083, Control_c, 0, 64, 127
1, 501098, Poly_aftertouch_c, 0, 46, 28
1, 501099, Poly_aftertouch_c, 0, 70, 28
1, 501102, Note_on_c, 0, 46, 80
1, 501103, Note_on_c, 0, 70, 81
1, 501109, Note_off_c, 0, 41, 63
1, 501112, Note_off_c, 0, 74, 62
1, 501169, Note_off_c, 0, 46, 63
1, 501173, Poly_aftertouch_c, 0, 50, 28
1, 501178, Note_on_c, 0, 50, 82
1, 501181, Poly_aftertouch_c, 0, 69, 28
1, 501186, Note_on_c, 0, 69, 84
1, 501199, Note_off_c, 0, 70, 63
1, 501219, Note_off_c, 0, 69, 62
1, 501226, Note_off_c, 0, 50, 60
1, 501253, Control_c, 0, 64, 82
1, 501272, Control_c, 0, 64, 54
1, 501281, Poly_aftertouch_c, 0, 68, 28
1, 501286, Poly_aftertouch_c, 0, 52, 28
1, 501288, Note_on_c, 0, 68, 91
1, 501288, Note_on_c, 0, 52, 86
1, 501288, Control_c, 0, 64, 40
1, 501308, Control_c, 0, 64, 42
1, 501327, Control_c, 0, 64, 53
1, 501346, Control_c, 0, 64, 72
1, 501364, Control_c, 0, 64, 107
1, 501368, Poly_aftertouch_c, 0, 56, 28
1, 501370, Poly_aftertouch_c, 0, 71, 28
1, 501372, Note_on_c, 0, 56, 82
1, 501373, Note_on_c, 0, 71, 81
1, 501376, Note_off_c, 0, 68, 63
1, 501379, Note_off_c, 0, 52, 62
1, 501382, Control_c, 0, 64, 127
1, 501448, Poly_aftertouch_c, 0, 59, 28
1, 501449, Note_on_c, 0, 59, 81
1, 501464, Poly_aftertouch_c, 0, 75, 28
1, 501467, Note_on_c, 0, 75, 82
1, 501480, Note_off_c, 0, 56, 61
1, 501497, Note_off_c, 0, 71, 58
1, 501512, Note_off_c, 0, 59, 58
1, 501528, Poly_aftertouch_c, 0, 64, 28
1, 501530, Note_on_c, 0, 64, 80
1, 501549, Poly_aftertouch_c, 0, 76, 28
1, 501552, Note_on_c, 0, 76, 81
1, 501557, Note_off_c, 0, 64, 70
1, 501587, Note_off_c, 0, 75, 65
1, 501604, Note_off_c, 0, 76, 64
1, 501625, Control_c, 0, 64, 116
1, 501645, Control_c, 0, 64, 69
1, 501648, Poly_aftertouch_c, 0, 40, 28
1, 501652, Note_on_c, 0, 40, 93
1, 501655, Poly_aftertouch_c, 0, 79, 28
1, 501657, Note_on_c, 0, 79, 101
1, 501665, Control_c, 0, 64, 35
1, 501739, Control_c, 0, 64, 19
1, 501745, Poly_aftertouch_c, 0, 43, 28
1, 501752, Poly_aftertouch_c, 0, 76, 28
1, 501757, Note_on_c, 0, 76, 86
1, 501757, Control_c, 0, 64, 39
1, 501765, Note_on_c, 0, 43, 47
1, 501775, Control_c, 0, 64, 67
1, 501784, Note_off_c, 0, 79, 61
1, 501786, Note_off_c, 0, 40, 62
1, 501793, Control_c, 0, 64, 94
1, 501814, Control_c, 0, 64, 127
1, 501823, Poly_aftertouch_c, 0, 48, 28
1, 501826, Note_on_c, 0, 48, 78
1, 501847, Poly_aftertouch_c, 0, 72, 28
1, 501850, Note_on_c, 0, 72, 92
1, 501860, Note_off_c, 0, 43, 61
1, 501874, Note_off_c, 0, 76, 64
1, 501924, Note_off_c, 0, 72, 62
1, 501929, Note_off_c, 0, 48, 63
1, 501930, Poly_aftertouch_c, 0, 51, 28
1, 501931, Note_on_c, 0, 51, 90
1, 501948, Poly_aftertouch_c, 0, 71, 28
1, 501950, Note_on_c, 0, 71, 92
1, 501961, Note_off_c, 0, 51, 68
1, 502097, Poly_aftertouch_c, 0, 79, 28
1, 502102, Note_on_c, 0, 52, 101
1, 502103, Note_on_c, 0, 79, 107
1, 502104, Poly_aftertouch_c, 0, 52, 28
1, 502111, Control_c, 0, 64, 78
1, 502131, Control_c, 0, 64, 45
1, 502140, Note_off_c, 0, 71, 64
1, 502150, Control_c, 0, 64, 13
1, 502206, Control_c, 0, 64, 21
1, 502225, Control_c, 0, 64, 41
1, 502229, Poly_aftertouch_c, 0, 55, 28
1, 502231, Poly_aftertouch_c, 0, 76, 28
1, 502234, Note_on_c, 0, 76, 89
1, 502234, Note_on_c, 0, 55, 88
1, 502244, Control_c, 0, 64, 70
1, 502257, Note_off_c, 0, 52, 60
1, 502259, Note_off_c, 0, 79, 65
1, 502262, Control_c, 0, 64, 104
1, 502281, Control_c, 0, 64, 127
1, 502357, Note_off_c, 0, 55, 62
1, 502357, Poly_aftertouch_c, 0, 60, 28
1, 502361, Note_on_c, 0, 60, 89
1, 502365, Note_on_c, 0, 72, 96
1, 502365, Poly_aftertouch_c, 0, 72, 28
1, 502376, Note_off_c, 0, 76, 59
1, 502440, Note_off_c, 0, 72, 64
1, 502458, Note_off_c, 0, 60, 62
1, 502485, Poly_aftertouch_c, 0, 64, 28
1, 502488, Note_on_c, 0, 64, 86
1, 502491, Poly_aftertouch_c, 0, 70, 28
1, 502498, Note_on_c, 0, 70, 98
1, 502517, Note_off_c, 0, 64, 69
1, 502576, Note_off_c, 0, 70, 59
1, 502843, Poly_aftertouch_c, 0, 79, 28
1, 502843, Control_c, 0, 64, 98
1, 502847, Note_on_c, 0, 79, 102
1, 502848, Poly_aftertouch_c, 0, 69, 28
1, 502853, Poly_aftertouch_c, 0, 36, 28
1, 502854, Note_on_c, 0, 69, 98
1, 502855, Note_on_c, 0, 67, 96
1, 502858, Note_on_c, 0, 36, 106
1, 502859, Poly_aftertouch_c, 0, 67, 28
1, 502861, Control_c, 0, 64, 60
1, 502881, Control_c, 0, 64, 14
1, 502899, Control_c, 0, 64, 0
1, 502993, Control_c, 0, 64, 14
1, 503011, Control_c, 0, 64, 30
1, 503030, Control_c, 0, 64, 53
1, 503033, Note_off_c, 0, 36, 62
1, 503033, Poly_aftertouch_c, 0, 39, 28
1, 503035, Note_on_c, 0, 39, 85
1, 503049, Control_c, 0, 64, 75
1, 503070, Control_c, 0, 64, 104
1, 503079, Note_off_c, 0, 79, 53
1, 503086, Control_c, 0, 64, 127
1, 503113, Note_off_c, 0, 39, 64
1, 503145, Poly_aftertouch_c, 0, 45, 28
1, 503148, Note_on_c, 0, 45, 81
1, 503189, Note_off_c, 0, 45, 63
1, 503259, Note_off_c, 0, 69, 45
1, 503262, Note_off_c, 0, 67, 56
1, 503266, Poly_aftertouch_c, 0, 48, 28
1, 503270, Note_on_c, 0, 48, 85
1, 503278, Poly_aftertouch_c, 0, 75, 28
1, 503280, Note_on_c, 0, 75, 97
1, 503336, Note_off_c, 0, 75, 65
1, 503347, Poly_aftertouch_c, 0, 51, 28
1, 503349, Note_on_c, 0, 51, 83
1, 503352, Note_off_c, 0, 48, 60
1, 503398, Note_off_c, 0, 51, 67
1, 503418, Poly_aftertouch_c, 0, 57, 28
1, 503422, Note_on_c, 0, 57, 89
1, 503469, Note_off_c, 0, 57, 67
1, 503512, Poly_aftertouch_c, 0, 60, 28
1, 503513, Note_on_c, 0, 60, 85
1, 503570, Poly_aftertouch_c, 0, 63, 28
1, 503571, Poly_aftertouch_c, 0, 72, 28
1, 503574, Note_on_c, 0, 63, 100
1, 503575, Note_on_c, 0, 72, 100
1, 503592, Note_off_c, 0, 60, 65
1, 503616, Note_off_c, 0, 63, 63
1, 503622, Note_on_c, 0, 71, 29
1, 503623, Note_off_c, 0, 71, 127
1, 503645, Note_off_c, 0, 72, 65
1, 503911, Control_c, 0, 64, 92
1, 503919, Poly_aftertouch_c, 0, 79, 28
1, 503921, Poly_aftertouch_c, 0, 36, 28
1, 503923, Note_on_c, 0, 79, 100
1, 503927, Note_on_c, 0, 75, 98
1, 503928, Note_on_c, 0, 36, 103
1, 503930, Note_on_c, 0, 24, 99
1, 503931, Note_on_c, 0, 70, 100
1, 503931, Control_c, 0, 64, 55
1, 503933, Poly_aftertouch_c, 0, 70, 28
1, 503934, Poly_aftertouch_c, 0, 75, 28
1, 503938, Poly_aftertouch_c, 0, 24, 28
1, 503949, Control_c, 0, 64, 9
1, 503966, Control_c, 0, 64, 0
1, 503983, Note_off_c, 0, 24, 62
1, 504023, Control_c, 0, 64, 30
1, 504041, Control_c, 0, 64, 62
1, 504060, Control_c, 0, 64, 104
1, 504079, Control_c, 0, 64, 127
1, 504429, Note_off_c, 0, 36, 59
1, 504431, Note_off_c, 0, 70, 61
1, 504432, Control_c, 0, 64, 77
1, 504447, Note_off_c, 0, 79, 62
1, 504451, Control_c, 0, 64, 28
1, 504452, Poly_aftertouch_c, 0, 26, 28
1, 504455, Poly_aftertouch_c, 0, 69, 28
1, 504458, Note_on_c, 0, 69, 99
1, 504460, Note_on_c, 0, 26, 107
1, 504468, Note_off_c, 0, 75, 58
1, 504470, Control_c, 0, 64, 0
1, 504711, Note_off_c, 0, 26, 61
1, 504714, Control_c, 0, 64, 58
1, 504723, Poly_aftertouch_c, 0, 38, 28
1, 504729, Note_on_c, 0, 38, 99
1, 504732, Control_c, 0, 64, 127
1, 504772, Note_off_c, 0, 38, 66
1, 504980, Poly_aftertouch_c, 0, 78, 28
1, 504984, Note_on_c, 0, 78, 99
1, 504994, Poly_aftertouch_c, 0, 60, 28
1, 504995, Note_on_c, 0, 60, 85
1, 505009, Note_off_c, 0, 69, 40
1, 505121, Note_off_c, 0, 60, 53
1, 505140, Poly_aftertouch_c, 0, 50, 28
1, 505143, Poly_aftertouch_c, 0, 69, 28
1, 505144, Poly_aftertouch_c, 0, 72, 28
1, 505144, Poly_aftertouch_c, 0, 75, 28
1, 505147, Note_on_c, 0, 50, 88
1, 505148, Note_on_c, 0, 72, 76
1, 505149, Note_on_c, 0, 75, 77
1, 505149, Note_on_c, 0, 69, 80
1, 505163, Note_off_c, 0, 78, 60
1, 505212, Note_off_c, 0, 75, 64
1, 505216, Note_off_c, 0, 69, 57
1, 505221, Note_off_c, 0, 72, 61
1, 505273, Poly_aftertouch_c, 0, 58, 28
1, 505276, Note_on_c, 0, 58, 93
1, 505276, Control_c, 0, 64, 91
1, 505280, Poly_aftertouch_c, 0, 79, 28
1, 505282, Note_on_c, 0, 79, 97
1, 505295, Note_off_c, 0, 50, 59
1, 505295, Control_c, 0, 64, 55
1, 505314, Control_c, 0, 64, 17
1, 505331, Note_on_c, 0, 77, 30
1, 505332, Note_off_c, 0, 77, 127
1, 505332, Control_c, 0, 64, 8
1, 505352, Control_c, 0, 64, 15
1, 505370, Control_c, 0, 64, 33
1, 505383, Note_off_c, 0, 58, 52
1, 505388, Control_c, 0, 64, 62
1, 505400, Poly_aftertouch_c, 0, 50, 28
1, 505401, Poly_aftertouch_c, 0, 74, 28
1, 505407, Note_on_c, 0, 74, 77
1, 505408, Note_on_c, 0, 50, 94
1, 505408, Control_c, 0, 64, 100
1, 505411, Poly_aftertouch_c, 0, 67, 28
1, 505411, Poly_aftertouch_c, 0, 70, 28
1, 505412, Note_off_c, 0, 79, 62
1, 505414, Note_on_c, 0, 70, 79
1, 505415, Note_on_c, 0, 67, 77
1, 505427, Control_c, 0, 64, 127
1, 505467, Note_off_c, 0, 67, 52
1, 505471, Note_off_c, 0, 74, 60
1, 505483, Note_off_c, 0, 70, 61
1, 505594, Poly_aftertouch_c, 0, 81, 28
1, 505594, Control_c, 0, 64, 80
1, 505597, Note_on_c, 0, 81, 108
1, 505600, Poly_aftertouch_c, 0, 54, 28
1, 505601, Note_on_c, 0, 54, 95
1, 505614, Control_c, 0, 64, 56
1, 505617, Note_off_c, 0, 50, 65
1, 505632, Control_c, 0, 64, 52
1, 505651, Control_c, 0, 64, 59
1, 505670, Control_c, 0, 64, 69
1, 505689, Control_c, 0, 64, 84
1, 505707, Control_c, 0, 64, 127
1, 505739, Note_off_c, 0, 54, 60
1, 505743, Poly_aftertouch_c, 0, 50, 28
1, 505749, Note_on_c, 0, 50, 87
1, 505750, Poly_aftertouch_c, 0, 69, 28
1, 505751, Note_off_c, 0, 81, 55
1, 505753, Note_on_c, 0, 69, 89
1, 505757, Poly_aftertouch_c, 0, 72, 28
1, 505759, Note_on_c, 0, 72, 87
1, 505785, Note_off_c, 0, 72, 65
1, 505803, Note_off_c, 0, 50, 65
1, 505804, Note_off_c, 0, 69, 61
1, 506096, Poly_aftertouch_c, 0, 70, 28
1, 506100, Control_c, 0, 64, 79
1, 506102, Note_on_c, 0, 70, 95
1, 506119, Control_c, 0, 64, 42
1, 506138, Control_c, 0, 64, 0
1, 506195, Control_c, 0, 64, 19
1, 506212, Poly_aftertouch_c, 0, 67, 28
1, 506212, Control_c, 0, 64, 44
1, 506217, Note_on_c, 0, 67, 89
1, 506231, Control_c, 0, 64, 78
1, 506249, Control_c, 0, 64, 127
1, 506278, Note_off_c, 0, 70, 56
1, 506332, Poly_aftertouch_c, 0, 63, 28
1, 506334, Note_on_c, 0, 63, 96
1, 506350, Note_off_c, 0, 67, 64
1, 506408, Note_off_c, 0, 63, 58
1, 506437, Poly_aftertouch_c, 0, 62, 28
1, 506442, Note_on_c, 0, 62, 95
1, 506647, Poly_aftertouch_c, 0, 64, 28
1, 506653, Note_on_c, 0, 64, 89
1, 506654, Note_on_c, 0, 61, 94
1, 506655, Poly_aftertouch_c, 0, 61, 28
1, 506657, Note_on_c, 0, 70, 95
1, 506658, Note_on_c, 0, 67, 87
1, 506659, Poly_aftertouch_c, 0, 67, 28
1, 506659, Poly_aftertouch_c, 0, 70, 28
1, 506660, Control_c, 0, 64, 89
1, 506681, Control_c, 0, 64, 49
1, 506693, Note_off_c, 0, 62, 64
1, 506699, Control_c, 0, 64, 0
1, 506802, Poly_aftertouch_c, 0, 31, 28
1, 506808, Note_on_c, 0, 31, 73
1, 506811, Control_c, 0, 64, 18
1, 506831, Control_c, 0, 64, 41
1, 506848, Control_c, 0, 64, 67
1, 506869, Control_c, 0, 64, 95
1, 506886, Control_c, 0, 64, 127
1, 506962, Note_off_c, 0, 31, 61
1, 506977, Poly_aftertouch_c, 0, 43, 28
1, 506978, Note_on_c, 0, 43, 81
1, 507011, Note_off_c, 0, 43, 67
1, 507032, Note_off_c, 0, 64, 58
1, 507044, Note_off_c, 0, 61, 57
1, 507045, Note_off_c, 0, 67, 53
1, 507119, Poly_aftertouch_c, 0, 46, 28
1, 507124, Note_on_c, 0, 46, 83
1, 507224, Note_off_c, 0, 46, 62
1, 507224, Poly_aftertouch_c, 0, 52, 28
1, 507226, Note_on_c, 0, 52, 81
1, 507322, Poly_aftertouch_c, 0, 55, 28
1, 507328, Note_on_c, 0, 55, 81
1, 507355, Control_c, 0, 64, 98
1, 507365, Note_off_c, 0, 52, 59
1, 507373, Control_c, 0, 64, 64
1, 507392, Control_c, 0, 64, 32
1, 507401, Note_off_c, 0, 70, 60
1, 507409, Control_c, 0, 64, 20
1, 507429, Poly_aftertouch_c, 0, 58, 28
1, 507429, Control_c, 0, 64, 24
1, 507435, Note_on_c, 0, 58, 86
1, 507435, Poly_aftertouch_c, 0, 67, 28
1, 507437, Note_on_c, 0, 67, 81
1, 507447, Control_c, 0, 64, 40
1, 507461, Note_off_c, 0, 55, 61
1, 507466, Control_c, 0, 64, 64
1, 507486, Control_c, 0, 64, 99
1, 507493, Note_off_c, 0, 58, 67
1, 507504, Control_c, 0, 64, 127
1, 507516, Poly_aftertouch_c, 0, 50, 28
1, 507519, Note_on_c, 0, 50, 82
1, 507526, Poly_aftertouch_c, 0, 64, 28
1, 507530, Note_on_c, 0, 64, 79
1, 507533, Note_off_c, 0, 67, 62
1, 507570, Note_off_c, 0, 64, 61
1, 507577, Control_c, 0, 64, 110
1, 507594, Note_off_c, 0, 50, 62
1, 507597, Control_c, 0, 64, 78
1, 507616, Control_c, 0, 64, 63
1, 507620, Poly_aftertouch_c, 0, 55, 28
1, 507624, Note_on_c, 0, 55, 85
1, 507635, Control_c, 0, 64, 64
1, 507643, Poly_aftertouch_c, 0, 61, 28
1, 507644, Note_on_c, 0, 73, 89
1, 507644, Poly_aftertouch_c, 0, 61, 0
1, 507645, Poly_aftertouch_c, 0, 73, 28
1, 507653, Control_c, 0, 64, 76
1, 507673, Control_c, 0, 64, 127
1, 507723, Poly_aftertouch_c, 0, 70, 28
1, 507726, Poly_aftertouch_c, 0, 50, 28
1, 507727, Note_off_c, 0, 55, 59
1, 507729, Note_off_c, 0, 73, 65
1, 507731, Note_on_c, 0, 70, 73
1, 507732, Note_on_c, 0, 50, 86
1, 507746, Poly_aftertouch_c, 0, 64, 28
1, 507752, Note_on_c, 0, 64, 51
1, 507766, Control_c, 0, 64, 93
1, 507784, Control_c, 0, 64, 61
1, 507788, Note_off_c, 0, 64, 63
1, 507803, Control_c, 0, 64, 39
1, 507808, Note_off_c, 0, 50, 62
1, 507809, Note_off_c, 0, 70, 61
1, 507833, Poly_aftertouch_c, 0, 74, 28
1, 507838, Poly_aftertouch_c, 0, 54, 28
1, 507839, Note_on_c, 0, 74, 93
1, 507840, Control_c, 0, 64, 53
1, 507842, Note_on_c, 0, 54, 90
1, 507859, Control_c, 0, 64, 71
1, 507879, Control_c, 0, 64, 101
1, 507897, Control_c, 0, 64, 127
1, 507916, Poly_aftertouch_c, 0, 69, 28
1, 507918, Note_on_c, 0, 69, 82
1, 507926, Poly_aftertouch_c, 0, 62, 28
1, 507931, Note_on_c, 0, 62, 65
1, 507937, Poly_aftertouch_c, 0, 50, 28
1, 507941, Note_on_c, 0, 50, 90
1, 507955, Note_off_c, 0, 74, 60
1, 507962, Note_off_c, 0, 54, 63
1, 507963, Note_off_c, 0, 62, 63
1, 508000, Note_off_c, 0, 69, 60
1, 508013, Note_off_c, 0, 50, 63
1, 508175, Poly_aftertouch_c, 0, 79, 28
1, 508178, Note_on_c, 0, 79, 98
1, 508196, Control_c, 0, 64, 107
1, 508216, Control_c, 0, 64, 66
1, 508234, Control_c, 0, 64, 30
1, 508253, Control_c, 0, 64, 11
1, 508279, Poly_aftertouch_c, 0, 75, 28
1, 508283, Note_on_c, 0, 75, 89
1, 508285, Note_off_c, 0, 79, 62
1, 508289, Control_c, 0, 64, 28
1, 508309, Control_c, 0, 64, 53
1, 508329, Control_c, 0, 64, 91
1, 508346, Control_c, 0, 64, 127
1, 508361, Note_off_c, 0, 75, 64
1, 508369, Poly_aftertouch_c, 0, 72, 28
1, 508371, Note_on_c, 0, 72, 88
1, 508456, Poly_aftertouch_c, 0, 70, 28
1, 508460, Note_on_c, 0, 70, 87
1, 508470, Note_off_c, 0, 72, 59
1, 508518, Note_off_c, 0, 70, 66
1, 508556, Poly_aftertouch_c, 0, 75, 28
1, 508560, Note_on_c, 0, 75, 92
1, 508561, Note_on_c, 0, 79, 93
1, 508562, Note_on_c, 0, 69, 93
1, 508564, Poly_aftertouch_c, 0, 69, 28
1, 508565, Poly_aftertouch_c, 0, 79, 28
1, 508571, Poly_aftertouch_c, 0, 72, 28
1, 508574, Note_on_c, 0, 72, 82
1, 508591, Control_c, 0, 64, 79
1, 508608, Control_c, 0, 64, 48
1, 508627, Control_c, 0, 64, 17
1, 508649, Poly_aftertouch_c, 0, 60, 28
1, 508651, Note_on_c, 0, 60, 94
1, 508720, Control_c, 0, 64, 27
1, 508723, Note_off_c, 0, 60, 62
1, 508739, Control_c, 0, 64, 41
1, 508747, Poly_aftertouch_c, 0, 57, 28
1, 508753, Note_on_c, 0, 57, 88
1, 508759, Control_c, 0, 64, 58
1, 508776, Control_c, 0, 64, 70
1, 508795, Control_c, 0, 64, 76
1, 508835, Note_off_c, 0, 57, 57
1, 508852, Control_c, 0, 64, 79
1, 508853, Poly_aftertouch_c, 0, 51, 28
1, 508856, Note_on_c, 0, 51, 86
1, 508870, Control_c, 0, 64, 82
1, 508889, Control_c, 0, 64, 91
1, 508908, Control_c, 0, 64, 110
1, 508911, Note_off_c, 0, 51, 66
1, 508917, Note_off_c, 0, 69, 50
1, 508926, Control_c, 0, 64, 127
1, 508944, Note_off_c, 0, 72, 57
1, 508975, Note_off_c, 0, 79, 61
1, 508977, Poly_aftertouch_c, 0, 48, 28
1, 508982, Note_on_c, 0, 48, 89
1, 508988, Note_off_c, 0, 75, 63
1, 509073, Poly_aftertouch_c, 0, 38, 28
1, 509075, Note_on_c, 0, 38, 84
1, 509083, Note_off_c, 0, 48, 45
1, 509127, Note_off_c, 0, 38, 62
1, 509264, Control_c, 0, 64, 118
1, 509282, Control_c, 0, 64, 75
1, 509290, Poly_aftertouch_c, 0, 84, 28
1, 509294, Poly_aftertouch_c, 0, 54, 28
1, 509296, Note_on_c, 0, 84, 89
1, 509299, Control_c, 0, 64, 50
1, 509301, Note_on_c, 0, 54, 71
1, 509319, Control_c, 0, 64, 42
1, 509338, Control_c, 0, 64, 45
1, 509357, Control_c, 0, 64, 55
1, 509364, Note_off_c, 0, 54, 57
1, 509376, Control_c, 0, 64, 67
1, 509378, Note_off_c, 0, 84, 60
1, 509389, Poly_aftertouch_c, 0, 50, 28
1, 509393, Control_c, 0, 64, 80
1, 509396, Note_on_c, 0, 50, 75
1, 509401, Poly_aftertouch_c, 0, 72, 28
1, 509405, Note_on_c, 0, 72, 69
1, 509406, Poly_aftertouch_c, 0, 75, 28
1, 509412, Note_on_c, 0, 75, 71
1, 509412, Control_c, 0, 64, 104
1, 509432, Control_c, 0, 64, 127
1, 509454, Note_off_c, 0, 72, 58
1, 509463, Note_off_c, 0, 75, 60
1, 509473, Note_off_c, 0, 50, 61
1, 509481, Poly_aftertouch_c, 0, 55, 28
1, 509485, Note_on_c, 0, 55, 85
1, 509505, Poly_aftertouch_c, 0, 81, 28
1, 509507, Note_on_c, 0, 81, 85
1, 509589, Note_off_c, 0, 81, 63
1, 509589, Poly_aftertouch_c, 0, 75, 28
1, 509591, Note_on_c, 0, 75, 81
1, 509594, Note_off_c, 0, 55, 62
1, 509594, Poly_aftertouch_c, 0, 50, 28
1, 509597, Note_on_c, 0, 50, 85
1, 509615, Note_off_c, 0, 75, 71
1, 509620, Poly_aftertouch_c, 0, 67, 28
1, 509621, Poly_aftertouch_c, 0, 69, 28
1, 509624, Note_on_c, 0, 67, 67
1, 509624, Note_on_c, 0, 69, 51
1, 509649, Note_off_c, 0, 67, 63
1, 509657, Note_off_c, 0, 69, 59
1, 509661, Note_off_c, 0, 50, 62
1, 509677, Poly_aftertouch_c, 0, 57, 28
1, 509680, Note_on_c, 0, 57, 84
1, 509700, Note_on_c, 0, 72, 98
1, 509701, Poly_aftertouch_c, 0, 72, 28
1, 509756, Note_off_c, 0, 57, 65
1, 509768, Poly_aftertouch_c, 0, 50, 28
1, 509771, Note_on_c, 0, 50, 94
1, 509792, Note_on_c, 0, 60, 80
1, 509792, Poly_aftertouch_c, 0, 60, 28
1, 509793, Poly_aftertouch_c, 0, 66, 28
1, 509796, Note_on_c, 0, 66, 81
1, 509800, Note_off_c, 0, 72, 66
1, 509831, Note_off_c, 0, 50, 60
1, 510002, Note_off_c, 0, 66, 62
1, 510012, Control_c, 0, 64, 85
1, 510022, Poly_aftertouch_c, 0, 70, 28
1, 510026, Note_on_c, 0, 70, 92
1, 510031, Control_c, 0, 64, 52
1, 510050, Control_c, 0, 64, 13
1, 510059, Note_off_c, 0, 60, 45
1, 510068, Control_c, 0, 64, 0
1, 510106, Control_c, 0, 64, 8
1, 510123, Control_c, 0, 64, 24
1, 510125, Poly_aftertouch_c, 0, 67, 28
1, 510130, Note_on_c, 0, 67, 87
1, 510143, Control_c, 0, 64, 49
1, 510162, Control_c, 0, 64, 82
1, 510180, Control_c, 0, 64, 127
1, 510220, Note_off_c, 0, 70, 60
1, 510224, Poly_aftertouch_c, 0, 63, 28
1, 510226, Note_on_c, 0, 63, 95
1, 510238, Note_off_c, 0, 67, 63
1, 510315, Poly_aftertouch_c, 0, 62, 28
1, 510322, Note_on_c, 0, 62, 91
1, 510336, Note_off_c, 0, 63, 61
1, 510413, Poly_aftertouch_c, 0, 66, 28
1, 510419, Note_on_c, 0, 66, 50
1, 510453, Note_off_c, 0, 66, 59
1, 510499, Poly_aftertouch_c, 0, 64, 28
1, 510500, Poly_aftertouch_c, 0, 70, 28
1, 510502, Note_on_c, 0, 64, 84
1, 510506, Note_on_c, 0, 70, 97
1, 510507, Poly_aftertouch_c, 0, 67, 28
1, 510511, Note_on_c, 0, 61, 92
1, 510513, Note_on_c, 0, 67, 86
1, 510514, Poly_aftertouch_c, 0, 61, 28
1, 510547, Note_off_c, 0, 62, 61
1, 510554, Control_c, 0, 64, 81
1, 510575, Control_c, 0, 64, 43
1, 510592, Control_c, 0, 64, 0
1, 510626, Poly_aftertouch_c, 0, 55, 28
1, 510630, Note_on_c, 0, 55, 84
1, 510686, Control_c, 0, 64, 10
1, 510699, Note_off_c, 0, 55, 64
1, 510706, Control_c, 0, 64, 22
1, 510723, Control_c, 0, 64, 40
1, 510727, Poly_aftertouch_c, 0, 52, 28
1, 510733, Note_on_c, 0, 52, 82
1, 510742, Control_c, 0, 64, 62
1, 510761, Control_c, 0, 64, 80
1, 510780, Control_c, 0, 64, 103
1, 510795, Note_off_c, 0, 52, 61
1, 510798, Control_c, 0, 64, 127
1, 510825, Poly_aftertouch_c, 0, 46, 28
1, 510830, Note_on_c, 0, 46, 81
1, 510887, Note_off_c, 0, 46, 60
1, 510943, Poly_aftertouch_c, 0, 43, 28
1, 510961, Note_on_c, 0, 43, 50
1, 510980, Note_off_c, 0, 67, 53
1, 510984, Note_off_c, 0, 70, 36
1, 511019, Note_off_c, 0, 43, 58
1, 511025, Note_off_c, 0, 64, 59
1, 511028, Poly_aftertouch_c, 0, 31, 28
1, 511029, Note_off_c, 0, 61, 57
1, 511030, Note_on_c, 0, 31, 80
1, 511069, Note_off_c, 0, 31, 64
1, 511136, Control_c, 0, 64, 119
1, 511154, Control_c, 0, 64, 75
1, 511172, Poly_aftertouch_c, 0, 69, 28
1, 511173, Control_c, 0, 64, 45
1, 511175, Note_on_c, 0, 69, 83
1, 511183, Poly_aftertouch_c, 0, 46, 28
1, 511188, Note_on_c, 0, 46, 76
1, 511189, Control_c, 0, 64, 23
1, 511229, Control_c, 0, 64, 32
1, 511248, Control_c, 0, 64, 49
1, 511264, Note_off_c, 0, 46, 59
1, 511265, Control_c, 0, 64, 71
1, 511270, Note_off_c, 0, 69, 55
1, 511275, Poly_aftertouch_c, 0, 64, 28
1, 511278, Poly_aftertouch_c, 0, 61, 28
1, 511282, Note_on_c, 0, 64, 53
1, 511284, Note_on_c, 0, 61, 54
1, 511284, Control_c, 0, 64, 103
1, 511304, Control_c, 0, 64, 127
1, 511307, Poly_aftertouch_c, 0, 38, 28
1, 511310, Note_on_c, 0, 38, 66
1, 511352, Note_off_c, 0, 61, 53
1, 511391, Note_off_c, 0, 64, 56
1, 511436, Control_c, 0, 64, 78
1, 511438, Note_off_c, 0, 38, 53
1, 511453, Control_c, 0, 64, 49
1, 511454, Poly_aftertouch_c, 0, 67, 28
1, 511461, Note_on_c, 0, 67, 76
1, 511464, Poly_aftertouch_c, 0, 49, 28
1, 511467, Note_on_c, 0, 49, 70
1, 511472, Control_c, 0, 64, 24
1, 511491, Control_c, 0, 64, 20
1, 511510, Control_c, 0, 64, 28
1, 511528, Control_c, 0, 64, 46
1, 511547, Control_c, 0, 64, 69
1, 511566, Control_c, 0, 64, 102
1, 511573, Note_off_c, 0, 49, 54
1, 511574, Poly_aftertouch_c, 0, 64, 28
1, 511578, Note_on_c, 0, 64, 54
1, 511584, Control_c, 0, 64, 127
1, 511588, Note_off_c, 0, 67, 60
1, 511594, Poly_aftertouch_c, 0, 58, 28
1, 511597, Poly_aftertouch_c, 0, 38, 28
1, 511601, Note_on_c, 0, 58, 43
1, 511604, Note_on_c, 0, 38, 66
1, 511660, Note_off_c, 0, 64, 60
1, 511676, Note_off_c, 0, 58, 55
1, 511748, Note_off_c, 0, 38, 57
1, 511767, Poly_aftertouch_c, 0, 66, 28
1, 511770, Note_on_c, 0, 66, 74
1, 511772, Control_c, 0, 64, 75
1, 511776, Poly_aftertouch_c, 0, 50, 28
1, 511785, Note_on_c, 0, 50, 62
1, 511790, Control_c, 0, 64, 42
1, 511865, Control_c, 0, 64, 19
1, 511883, Control_c, 0, 64, 35
1, 511893, Poly_aftertouch_c, 0, 57, 28
1, 511901, Control_c, 0, 64, 58
1, 511907, Note_on_c, 0, 57, 21
1, 511920, Poly_aftertouch_c, 0, 62, 28
1, 511921, Control_c, 0, 64, 78
1, 511927, Note_on_c, 0, 62, 50
1, 511934, Poly_aftertouch_c, 0, 38, 28
1, 511939, Control_c, 0, 64, 113
1, 511942, Note_on_c, 0, 38, 49
1, 511959, Control_c, 0, 64, 127
1, 511969, Note_off_c, 0, 57, 49
1, 511984, Note_off_c, 0, 50, 37
1, 511996, Note_off_c, 0, 38, 62
1, 512031, Note_off_c, 0, 62, 58
1, 512106, Note_off_c, 0, 66, 59
1, 512261, Poly_aftertouch_c, 0, 74, 28
1, 512265, Note_on_c, 0, 74, 65
1, 512274, Poly_aftertouch_c, 0, 35, 28
1, 512280, Note_on_c, 0, 35, 49
1, 512295, Control_c, 0, 64, 109
1, 512315, Control_c, 0, 64, 71
1, 512333, Control_c, 0, 64, 40
1, 512352, Control_c, 0, 64, 8
1, 512371, Control_c, 0, 64, 0
1, 512427, Control_c, 0, 64, 12
1, 512445, Control_c, 0, 64, 24
1, 512464, Control_c, 0, 64, 39
1, 512477, Note_off_c, 0, 35, 40
1, 512482, Control_c, 0, 64, 59
1, 512487, Note_off_c, 0, 74, 52
1, 512503, Control_c, 0, 64, 76
1, 512506, Poly_aftertouch_c, 0, 38, 28
1, 512514, Note_on_c, 0, 38, 47
1, 512521, Control_c, 0, 64, 93
1, 512525, Poly_aftertouch_c, 0, 71, 28
1, 512533, Note_on_c, 0, 71, 45
1, 512540, Control_c, 0, 64, 127
1, 512598, Note_off_c, 0, 38, 59
1, 512637, Note_off_c, 0, 71, 48
1, 512642, Poly_aftertouch_c, 0, 67, 28
1, 512645, Note_on_c, 0, 67, 59
1, 512647, Poly_aftertouch_c, 0, 43, 28
1, 512652, Note_on_c, 0, 43, 47
1, 512692, Note_off_c, 0, 43, 63
1, 512717, Note_off_c, 0, 67, 58
1, 512741, Poly_aftertouch_c, 0, 66, 28
1, 512744, Note_on_c, 0, 66, 64
1, 512746, Note_on_c, 0, 47, 57
1, 512747, Poly_aftertouch_c, 0, 47, 28
1, 512780, Note_off_c, 0, 47, 56
1, 512788, Note_off_c, 0, 66, 61
1, 512819, Control_c, 0, 64, 101
1, 512841, Control_c, 0, 64, 69
1, 512850, Poly_aftertouch_c, 0, 65, 28
1, 512854, Note_on_c, 0, 65, 69
1, 512859, Control_c, 0, 64, 46
1, 512866, Note_on_c, 0, 49, 68
1, 512866, Poly_aftertouch_c, 0, 49, 28
1, 512876, Control_c, 0, 64, 35
1, 512914, Control_c, 0, 64, 45
1, 512925, Note_off_c, 0, 49, 55
1, 512931, Control_c, 0, 64, 58
1, 512932, Note_on_c, 0, 54, 40
1, 512935, Note_off_c, 0, 65, 57
1, 512940, Poly_aftertouch_c, 0, 68, 28
1, 512944, Note_on_c, 0, 68, 72
1, 512948, Poly_aftertouch_c, 0, 54, 28
1, 512949, Control_c, 0, 64, 69
1, 512958, Poly_aftertouch_c, 0, 53, 28
1, 512963, Note_on_c, 0, 53, 62
1, 512968, Control_c, 0, 64, 79
1, 512988, Control_c, 0, 64, 95
1, 513007, Control_c, 0, 64, 127
1, 513030, Note_off_c, 0, 68, 59
1, 513033, Poly_aftertouch_c, 0, 56, 28
1, 513038, Note_on_c, 0, 56, 73
1, 513046, Poly_aftertouch_c, 0, 72, 28
1, 513047, Note_on_c, 0, 72, 75
1, 513072, Note_off_c, 0, 53, 59
1, 513092, Note_off_c, 0, 54, 28
1, 513120, Note_off_c, 0, 56, 61
1, 513121, Poly_aftertouch_c, 0, 61, 28
1, 513126, Note_on_c, 0, 61, 63
1, 513135, Poly_aftertouch_c, 0, 73, 28
1, 513142, Note_on_c, 0, 73, 73
1, 513146, Note_off_c, 0, 72, 60
1, 513160, Note_off_c, 0, 61, 62
1, 513298, Note_off_c, 0, 73, 49
1, 513310, Note_on_c, 0, 35, 70
1, 513311, Poly_aftertouch_c, 0, 35, 28
1, 513326, Control_c, 0, 64, 78
1, 513332, Poly_aftertouch_c, 0, 74, 28
1, 513334, Note_on_c, 0, 74, 78
1, 513344, Control_c, 0, 64, 50
1, 513363, Control_c, 0, 64, 27
1, 513406, Note_off_c, 0, 35, 60
1, 513407, Poly_aftertouch_c, 0, 38, 28
1, 513411, Note_on_c, 0, 38, 73
1, 513414, Note_off_c, 0, 74, 56
1, 513420, Control_c, 0, 64, 38
1, 513424, Poly_aftertouch_c, 0, 71, 28
1, 513429, Note_on_c, 0, 71, 74
1, 513438, Control_c, 0, 64, 55
1, 513456, Control_c, 0, 64, 73
1, 513476, Control_c, 0, 64, 92
1, 513494, Control_c, 0, 64, 127
1, 513502, Note_off_c, 0, 38, 60
1, 513504, Poly_aftertouch_c, 0, 43, 28
1, 513506, Poly_aftertouch_c, 0, 67, 28
1, 513510, Note_on_c, 0, 43, 69
1, 513512, Note_on_c, 0, 67, 74
1, 513517, Note_off_c, 0, 71, 58
1, 513556, Note_off_c, 0, 43, 62
1, 513583, Note_off_c, 0, 67, 61
1, 513595, Poly_aftertouch_c, 0, 47, 28
1, 513599, Note_on_c, 0, 47, 72
1, 513605, Poly_aftertouch_c, 0, 66, 28
1, 513610, Note_on_c, 0, 66, 80
1, 513636, Note_off_c, 0, 47, 66
1, 513655, Note_off_c, 0, 66, 57
1, 513680, Control_c, 0, 64, 107
1, 513700, Control_c, 0, 64, 71
1, 513705, Poly_aftertouch_c, 0, 65, 28
1, 513707, Note_on_c, 0, 65, 84
1, 513719, Poly_aftertouch_c, 0, 49, 28
1, 513719, Control_c, 0, 64, 45
1, 513722, Note_on_c, 0, 49, 76
1, 513737, Control_c, 0, 64, 33
1, 513775, Control_c, 0, 64, 45
1, 513785, Poly_aftertouch_c, 0, 53, 28
1, 513790, Note_on_c, 0, 53, 68
1, 513792, Note_off_c, 0, 65, 54
1, 513792, Poly_aftertouch_c, 0, 68, 28
1, 513792, Control_c, 0, 64, 61
1, 513795, Note_off_c, 0, 49, 64
1, 513797, Note_on_c, 0, 68, 81
1, 513813, Control_c, 0, 64, 75
1, 513831, Control_c, 0, 64, 93
1, 513850, Control_c, 0, 64, 127
1, 513870, Poly_aftertouch_c, 0, 56, 28
1, 513876, Note_on_c, 0, 56, 80
1, 513885, Poly_aftertouch_c, 0, 72, 28
1, 513890, Note_on_c, 0, 72, 83
1, 513906, Note_off_c, 0, 68, 55
1, 513915, Note_off_c, 0, 53, 60
1, 513953, Poly_aftertouch_c, 0, 61, 28
1, 513956, Note_on_c, 0, 61, 79
1, 513958, Note_off_c, 0, 56, 62
1, 513979, Poly_aftertouch_c, 0, 73, 28
1, 513982, Note_on_c, 0, 73, 82
1, 513983, Note_off_c, 0, 61, 70
1, 514005, Note_off_c, 0, 72, 61
1, 514068, Note_off_c, 0, 73, 61
1, 514133, Poly_aftertouch_c, 0, 34, 28
1, 514138, Note_on_c, 0, 34, 79
1, 514145, Poly_aftertouch_c, 0, 73, 28
1, 514148, Note_on_c, 0, 73, 73
1, 514150, Control_c, 0, 64, 82
1, 514168, Control_c, 0, 64, 54
1, 514185, Note_on_c, 0, 74, 54
1, 514185, Poly_aftertouch_c, 0, 74, 28
1, 514187, Control_c, 0, 64, 31
1, 514205, Control_c, 0, 64, 27
1, 514217, Poly_aftertouch_c, 0, 37, 28
1, 514219, Note_off_c, 0, 74, 51
1, 514224, Note_on_c, 0, 37, 75
1, 514230, Note_off_c, 0, 73, 56
1, 514231, Note_off_c, 0, 34, 61
1, 514245, Control_c, 0, 64, 41
1, 514248, Note_on_c, 0, 70, 43
1, 514250, Poly_aftertouch_c, 0, 70, 28
1, 514261, Poly_aftertouch_c, 0, 71, 28
1, 514261, Control_c, 0, 64, 58
1, 514265, Note_on_c, 0, 71, 58
1, 514280, Control_c, 0, 64, 78
1, 514299, Control_c, 0, 64, 115
1, 514309, Poly_aftertouch_c, 0, 42, 28
1, 514315, Note_on_c, 0, 42, 79
1, 514316, Control_c, 0, 64, 127
1, 514317, Note_off_c, 0, 71, 53
1, 514328, Note_off_c, 0, 37, 62
1, 514340, Poly_aftertouch_c, 0, 67, 28
1, 514345, Note_on_c, 0, 67, 57
1, 514356, Note_off_c, 0, 70, 42
1, 514378, Note_on_c, 0, 68, 26
1, 514390, Poly_aftertouch_c, 0, 46, 28
1, 514394, Note_off_c, 0, 42, 61
1, 514394, Note_on_c, 0, 46, 85
1, 514401, Poly_aftertouch_c, 0, 65, 28
1, 514408, Note_on_c, 0, 65, 76
1, 514412, Note_off_c, 0, 67, 50
1, 514430, Note_off_c, 0, 46, 65
1, 514432, Note_off_c, 0, 68, 28
1, 514432, Poly_aftertouch_c, 0, 68, 28
1, 514439, Note_off_c, 0, 65, 68
1, 514467, Control_c, 0, 64, 101
1, 514486, Control_c, 0, 64, 66
1, 514495, Poly_aftertouch_c, 0, 64, 28
1, 514498, Note_on_c, 0, 64, 85
1, 514505, Control_c, 0, 64, 35
1, 514509, Poly_aftertouch_c, 0, 48, 28
1, 514512, Note_on_c, 0, 48, 84
1, 514524, Control_c, 0, 64, 18
1, 514561, Control_c, 0, 64, 28
1, 514567, Note_off_c, 0, 64, 56
1, 514571, Poly_aftertouch_c, 0, 67, 28
1, 514574, Note_on_c, 0, 67, 80
1, 514581, Poly_aftertouch_c, 0, 52, 28
1, 514581, Control_c, 0, 64, 43
1, 514584, Note_on_c, 0, 52, 79
1, 514598, Control_c, 0, 64, 67
1, 514616, Control_c, 0, 64, 93
1, 514617, Note_off_c, 0, 48, 59
1, 514636, Control_c, 0, 64, 127
1, 514642, Poly_aftertouch_c, 0, 55, 28
1, 514648, Note_on_c, 0, 55, 81
1, 514656, Note_off_c, 0, 67, 57
1, 514666, Poly_aftertouch_c, 0, 71, 28
1, 514669, Note_on_c, 0, 71, 86
1, 514693, Note_off_c, 0, 52, 60
1, 514719, Note_off_c, 0, 55, 58
1, 514729, Note_on_c, 0, 60, 72
1, 514729, Poly_aftertouch_c, 0, 60, 28
1, 514747, Poly_aftertouch_c, 0, 72, 28
1, 514751, Note_on_c, 0, 72, 83
1, 514760, Note_off_c, 0, 60, 64
1, 514766, Note_off_c, 0, 71, 61
1, 514810, Note_off_c, 0, 72, 59
1, 514842, Control_c, 0, 64, 103
1, 514860, Control_c, 0, 64, 67
1, 514865, Poly_aftertouch_c, 0, 33, 28
1, 514868, Note_on_c, 0, 33, 81
1, 514872, Poly_aftertouch_c, 0, 72, 28
1, 514877, Note_on_c, 0, 72, 88
1, 514878, Control_c, 0, 64, 36
1, 514897, Control_c, 0, 64, 11
1, 514937, Poly_aftertouch_c, 0, 36, 28
1, 514942, Note_on_c, 0, 36, 79
1, 514954, Control_c, 0, 64, 20
1, 514972, Control_c, 0, 64, 35
1, 514973, Poly_aftertouch_c, 0, 69, 28
1, 514975, Note_on_c, 0, 69, 83
1, 514977, Note_off_c, 0, 72, 62
1, 514980, Note_off_c, 0, 33, 61
1, 514991, Control_c, 0, 64, 60
1, 515010, Control_c, 0, 64, 88
1, 515018, Poly_aftertouch_c, 0, 41, 28
1, 515021, Note_on_c, 0, 41, 80
1, 515028, Control_c, 0, 64, 127
1, 515043, Note_off_c, 0, 36, 60
1, 515060, Poly_aftertouch_c, 0, 65, 28
1, 515061, Note_on_c, 0, 37, 44
1, 515063, Poly_aftertouch_c, 0, 37, 28
1, 515064, Note_on_c, 0, 65, 86
1, 515079, Note_off_c, 0, 69, 60
1, 515109, Note_on_c, 0, 44, 89
1, 515110, Poly_aftertouch_c, 0, 44, 28
1, 515113, Note_off_c, 0, 37, 52
1, 515114, Note_off_c, 0, 41, 62
1, 515139, Note_off_c, 0, 44, 70
1, 515149, Poly_aftertouch_c, 0, 64, 28
1, 515150, Note_off_c, 0, 65, 64
1, 515152, Note_on_c, 0, 64, 86
1, 515254, Control_c, 0, 64, 93
1, 515267, Poly_aftertouch_c, 0, 45, 28
1, 515268, Note_on_c, 0, 45, 88
1, 515270, Control_c, 0, 64, 59
1, 515278, Poly_aftertouch_c, 0, 72, 28
1, 515281, Note_on_c, 0, 72, 99
1, 515289, Control_c, 0, 64, 23
1, 515309, Control_c, 0, 64, 0
1, 515324, Note_off_c, 0, 64, 60
1, 515366, Control_c, 0, 64, 18
1, 515378, Poly_aftertouch_c, 0, 48, 28
1, 515383, Note_on_c, 0, 48, 78
1, 515384, Control_c, 0, 64, 35
1, 515390, Poly_aftertouch_c, 0, 69, 28
1, 515392, Note_on_c, 0, 69, 85
1, 515394, Note_off_c, 0, 45, 55
1, 515396, Note_off_c, 0, 72, 62
1, 515401, Control_c, 0, 64, 62
1, 515422, Control_c, 0, 64, 87
1, 515441, Control_c, 0, 64, 127
1, 515498, Poly_aftertouch_c, 0, 53, 28
1, 515500, Note_on_c, 0, 53, 79
1, 515501, Note_off_c, 0, 69, 60
1, 515501, Poly_aftertouch_c, 0, 65, 28
1, 515504, Note_on_c, 0, 65, 84
1, 515505, Note_off_c, 0, 48, 61
1, 515563, Note_off_c, 0, 65, 62
1, 515574, Note_off_c, 0, 53, 61
1, 515608, Poly_aftertouch_c, 0, 57, 28
1, 515608, Poly_aftertouch_c, 0, 63, 28
1, 515610, Note_on_c, 0, 63, 87
1, 515611, Note_on_c, 0, 57, 75
1, 515873, Note_off_c, 0, 63, 60
1, 515905, Poly_aftertouch_c, 0, 72, 28
1, 515908, Note_on_c, 0, 72, 69
1, 515908, Control_c, 0, 64, 91
1, 515909, Poly_aftertouch_c, 0, 50, 28
1, 515914, Note_on_c, 0, 50, 58
1, 515927, Control_c, 0, 64, 61
1, 515945, Note_off_c, 0, 57, 58
1, 515946, Control_c, 0, 64, 23
1, 515965, Control_c, 0, 64, 0
1, 516077, Control_c, 0, 64, 9
1, 516096, Control_c, 0, 64, 20
1, 516114, Control_c, 0, 64, 38
1, 516117, Poly_aftertouch_c, 0, 54, 28
1, 516118, Poly_aftertouch_c, 0, 69, 28
1, 516121, Note_on_c, 0, 54, 64
1, 516122, Note_on_c, 0, 69, 65
1, 516129, Note_off_c, 0, 72, 57
1, 516133, Control_c, 0, 64, 62
1, 516137, Note_off_c, 0, 50, 52
1, 516151, Control_c, 0, 64, 81
1, 516172, Control_c, 0, 64, 111
1, 516189, Control_c, 0, 64, 127
1, 516232, Poly_aftertouch_c, 0, 66, 28
1, 516233, Note_off_c, 0, 69, 57
1, 516236, Note_on_c, 0, 66, 65
1, 516237, Note_off_c, 0, 54, 62
1, 516237, Poly_aftertouch_c, 0, 57, 28
1, 516240, Note_on_c, 0, 57, 64
1, 516299, Note_off_c, 0, 57, 62
1, 516318, Poly_aftertouch_c, 0, 62, 28
1, 516323, Note_on_c, 0, 62, 71
1, 516324, Poly_aftertouch_c, 0, 60, 28
1, 516326, Note_off_c, 0, 66, 57
1, 516326, Note_on_c, 0, 60, 72
1, 516356, Note_off_c, 0, 62, 67
1, 516360, Note_off_c, 0, 60, 66
1, 516415, Control_c, 0, 64, 97
1, 516426, Poly_aftertouch_c, 0, 63, 28
1, 516430, Note_on_c, 0, 63, 80
1, 516433, Poly_aftertouch_c, 0, 61, 28
1, 516433, Control_c, 0, 64, 66
1, 516434, Note_on_c, 0, 61, 81
1, 516451, Control_c, 0, 64, 44
1, 516470, Control_c, 0, 64, 38
1, 516488, Control_c, 0, 64, 42
1, 516508, Control_c, 0, 64, 52
1, 516513, Note_off_c, 0, 61, 60
1, 516513, Poly_aftertouch_c, 0, 58, 28
1, 516518, Note_on_c, 0, 58, 72
1, 516525, Poly_aftertouch_c, 0, 67, 28
1, 516528, Note_on_c, 0, 67, 78
1, 516528, Control_c, 0, 64, 64
1, 516530, Note_off_c, 0, 63, 62
1, 516545, Control_c, 0, 64, 78
1, 516565, Control_c, 0, 64, 107
1, 516583, Control_c, 0, 64, 127
1, 516600, Poly_aftertouch_c, 0, 55, 28
1, 516604, Note_on_c, 0, 55, 69
1, 516605, Note_off_c, 0, 58, 63
1, 516612, Poly_aftertouch_c, 0, 70, 28
1, 516619, Note_on_c, 0, 70, 78
1, 516635, Note_off_c, 0, 67, 61
1, 516677, Poly_aftertouch_c, 0, 73, 28
1, 516681, Note_on_c, 0, 73, 81
1, 516696, Note_on_c, 0, 51, 70
1, 516697, Poly_aftertouch_c, 0, 51, 28
1, 516716, Note_off_c, 0, 70, 63
1, 516719, Note_off_c, 0, 51, 64
1, 516720, Note_off_c, 0, 55, 61
1, 516747, Note_off_c, 0, 73, 64
1, 516749, Control_c, 0, 64, 110
1, 516770, Control_c, 0, 64, 72
1, 516780, Poly_aftertouch_c, 0, 74, 28
1, 516782, Note_on_c, 0, 74, 91
1, 516788, Control_c, 0, 64, 42
1, 516790, Poly_aftertouch_c, 0, 50, 28
1, 516791, Note_on_c, 0, 50, 86
1, 516807, Control_c, 0, 64, 22
1, 516844, Control_c, 0, 64, 28
1, 516864, Control_c, 0, 64, 42
1, 516874, Poly_aftertouch_c, 0, 70, 28
1, 516878, Note_on_c, 0, 70, 83
1, 516879, Poly_aftertouch_c, 0, 55, 28
1, 516881, Control_c, 0, 64, 64
1, 516882, Note_on_c, 0, 55, 77
1, 516890, Note_off_c, 0, 50, 62
1, 516899, Note_off_c, 0, 74, 60
1, 516899, Control_c, 0, 64, 85
1, 516919, Control_c, 0, 64, 127
1, 516958, Poly_aftertouch_c, 0, 67, 28
1, 516960, Note_on_c, 0, 67, 80
1, 516978, Poly_aftertouch_c, 0, 58, 28
1, 516982, Note_on_c, 0, 58, 85
1, 516983, Note_off_c, 0, 55, 64
1, 516989, Poly_aftertouch_c, 0, 73, 28
1, 516990, Poly_aftertouch_c, 0, 73, 0
1, 516994, Note_off_c, 0, 70, 63
1, 517021, Poly_aftertouch_c, 0, 62, 28
1, 517025, Note_on_c, 0, 62, 78
1, 517056, Note_off_c, 0, 67, 60
1, 517056, Note_off_c, 0, 62, 68
1, 517060, Note_off_c, 0, 58, 65
1, 517107, Control_c, 0, 64, 111
1, 517125, Control_c, 0, 64, 71
1, 517127, Poly_aftertouch_c, 0, 61, 28
1, 517128, Poly_aftertouch_c, 0, 63, 28
1, 517129, Note_on_c, 0, 61, 97
1, 517132, Note_on_c, 0, 63, 93
1, 517145, Control_c, 0, 64, 44
1, 517162, Control_c, 0, 64, 35
1, 517182, Control_c, 0, 64, 40
1, 517200, Control_c, 0, 64, 54
1, 517204, Poly_aftertouch_c, 0, 58, 28
1, 517208, Note_on_c, 0, 58, 83
1, 517212, Note_on_c, 0, 67, 82
1, 517213, Poly_aftertouch_c, 0, 67, 28
1, 517216, Control_c, 0, 64, 72
1, 517222, Note_off_c, 0, 61, 60
1, 517238, Control_c, 0, 64, 103
1, 517242, Note_off_c, 0, 63, 61
1, 517256, Control_c, 0, 64, 127
1, 517290, Poly_aftertouch_c, 0, 55, 28
1, 517294, Note_on_c, 0, 55, 80
1, 517298, Poly_aftertouch_c, 0, 70, 28
1, 517301, Note_on_c, 0, 70, 80
1, 517311, Note_off_c, 0, 58, 62
1, 517341, Note_off_c, 0, 67, 58
1, 517365, Poly_aftertouch_c, 0, 49, 28
1, 517368, Note_on_c, 0, 49, 82
1, 517382, Poly_aftertouch_c, 0, 75, 28
1, 517386, Note_on_c, 0, 75, 84
1, 517405, Note_off_c, 0, 55, 62
1, 517409, Note_off_c, 0, 70, 64
1, 517428, Note_off_c, 0, 49, 59
1, 517445, Note_off_c, 0, 75, 64
1, 517463, Control_c, 0, 64, 103
1, 517480, Control_c, 0, 64, 65
1, 517484, Poly_aftertouch_c, 0, 48, 28
1, 517486, Note_on_c, 0, 48, 93
1, 517487, Poly_aftertouch_c, 0, 76, 28
1, 517491, Note_on_c, 0, 76, 102
1, 517499, Control_c, 0, 64, 30
1, 517555, Poly_aftertouch_c, 0, 55, 28
1, 517555, Control_c, 0, 64, 11
1, 517561, Note_on_c, 0, 55, 74
1, 517574, Control_c, 0, 64, 28
1, 517576, Poly_aftertouch_c, 0, 70, 28
1, 517579, Note_on_c, 0, 70, 88
1, 517584, Note_off_c, 0, 48, 61
1, 517592, Control_c, 0, 64, 53
1, 517610, Note_off_c, 0, 76, 61
1, 517611, Control_c, 0, 64, 80
1, 517631, Control_c, 0, 64, 127
1, 517658, Poly_aftertouch_c, 0, 58, 28
1, 517664, Note_on_c, 0, 58, 86
1, 517668, Note_off_c, 0, 55, 63
1, 517670, Poly_aftertouch_c, 0, 67, 28
1, 517675, Note_on_c, 0, 67, 88
1, 517706, Note_off_c, 0, 70, 64
1, 517729, Note_off_c, 0, 58, 68
1, 517752, Poly_aftertouch_c, 0, 60, 28
1, 517756, Note_on_c, 0, 60, 81
1, 517771, Poly_aftertouch_c, 0, 64, 28
1, 517774, Note_on_c, 0, 64, 90
1, 517777, Note_off_c, 0, 67, 62
1, 517791, Note_off_c, 0, 60, 66
1, 517831, Note_off_c, 0, 64, 64
1, 517941, Poly_aftertouch_c, 0, 65, 28
1, 517944, Note_on_c, 0, 65, 99
1, 517946, Note_on_c, 0, 63, 100
1, 517946, Poly_aftertouch_c, 0, 63, 28
1, 517949, Control_c, 0, 64, 91
1, 517968, Control_c, 0, 64, 56
1, 517986, Control_c, 0, 64, 20
1, 518023, Control_c, 0, 64, 8
1, 518043, Control_c, 0, 64, 17
1, 518063, Control_c, 0, 64, 32
1, 518074, Poly_aftertouch_c, 0, 60, 28
1, 518078, Note_on_c, 0, 60, 77
1, 518079, Control_c, 0, 64, 56
1, 518081, Poly_aftertouch_c, 0, 69, 28
1, 518086, Note_on_c, 0, 69, 92
1, 518092, Note_off_c, 0, 63, 59
1, 518098, Note_off_c, 0, 65, 64
1, 518098, Control_c, 0, 64, 82
1, 518118, Control_c, 0, 64, 127
1, 518214, Poly_aftertouch_c, 0, 57, 28
1, 518216, Poly_aftertouch_c, 0, 72, 28
1, 518220, Note_on_c, 0, 57, 84
1, 518221, Note_on_c, 0, 72, 92
1, 518253, Note_off_c, 0, 69, 58
1, 518269, Note_off_c, 0, 60, 56
1, 518363, Note_off_c, 0, 72, 62
1, 518364, Poly_aftertouch_c, 0, 77, 28
1, 518366, Note_on_c, 0, 77, 96
1, 518381, Poly_aftertouch_c, 0, 51, 28
1, 518382, Note_on_c, 0, 51, 89
1, 518430, Note_off_c, 0, 57, 56
1, 518443, Note_off_c, 0, 77, 61
1, 518472, Note_off_c, 0, 51, 61
1, 518624, Control_c, 0, 64, 112
1, 518626, Poly_aftertouch_c, 0, 57, 28
1, 518627, Poly_aftertouch_c, 0, 57, 0
1, 518640, Poly_aftertouch_c, 0, 78, 28
1, 518641, Control_c, 0, 64, 60
1, 518642, Note_on_c, 0, 78, 98
1, 518648, Poly_aftertouch_c, 0, 50, 28
1, 518651, Note_on_c, 0, 50, 101
1, 518659, Control_c, 0, 64, 0
1, 518898, Poly_aftertouch_c, 0, 72, 28
1, 518900, Note_on_c, 0, 72, 88
1, 518903, Poly_aftertouch_c, 0, 57, 28
1, 518906, Note_on_c, 0, 57, 92
1, 518911, Note_off_c, 0, 78, 65
1, 518922, Control_c, 0, 64, 44
1, 518929, Note_off_c, 0, 50, 60
1, 518941, Control_c, 0, 64, 127
1, 519036, Poly_aftertouch_c, 0, 68, 28
1, 519073, Poly_aftertouch_c, 0, 69, 28
1, 519076, Note_on_c, 0, 69, 90
1, 519079, Poly_aftertouch_c, 0, 60, 28
1, 519080, Note_on_c, 0, 60, 90
1, 519089, Poly_aftertouch_c, 0, 68, 127
1, 519090, Note_off_c, 0, 72, 56
1, 519107, Note_off_c, 0, 57, 60
1, 519195, Note_off_c, 0, 69, 64
1, 519207, Note_off_c, 0, 60, 63
1, 519216, Poly_aftertouch_c, 0, 66, 28
1, 519219, Note_on_c, 0, 66, 103
1, 519221, Poly_aftertouch_c, 0, 62, 28
1, 519223, Poly_aftertouch_c, 0, 68, 0
1, 519226, Note_on_c, 0, 62, 101
1, 519271, Note_off_c, 0, 62, 69
1, 519279, Note_off_c, 0, 66, 68
1, 520233, Control_c, 0, 64, 91
1, 520251, Control_c, 0, 64, 67
1, 520270, Control_c, 0, 64, 43
1, 520288, Control_c, 0, 64, 15
1, 520307, Control_c, 0, 64, 0
1, 520663, Poly_aftertouch_c, 0, 75, 28
1, 520663, Poly_aftertouch_c, 0, 79, 28
1, 520664, Poly_aftertouch_c, 0, 87, 28
1, 520667, Note_on_c, 0, 87, 102
1, 520668, Note_on_c, 0, 79, 101
1, 520668, Note_on_c, 0, 75, 103
1, 520669, Poly_aftertouch_c, 0, 24, 28
1, 520670, Poly_aftertouch_c, 0, 36, 28
1, 520673, Note_on_c, 0, 24, 93
1, 520677, Note_on_c, 0, 36, 96
1, 520681, Control_c, 0, 64, 10
1, 520700, Control_c, 0, 64, 93
1, 520715, Note_off_c, 0, 24, 67
1, 520718, Control_c, 0, 64, 127
1, 520733, Note_off_c, 0, 36, 63
1, 520760, Poly_aftertouch_c, 0, 84, 28
1, 520813, Poly_aftertouch_c, 0, 84, 127
1, 520826, Poly_aftertouch_c, 0, 83, 28
1, 520827, Poly_aftertouch_c, 0, 83, 0
1, 520831, Poly_aftertouch_c, 0, 84, 0
1, 520840, Note_off_c, 0, 87, 62
1, 521027, Note_off_c, 0, 75, 52
1, 521331, Poly_aftertouch_c, 0, 63, 28
1, 521333, Note_on_c, 0, 63, 85
1, 521333, Note_on_c, 0, 67, 87
1, 521334, Poly_aftertouch_c, 0, 67, 28
1, 521338, Note_on_c, 0, 55, 84
1, 521339, Poly_aftertouch_c, 0, 55, 28
1, 521375, Note_off_c, 0, 55, 57
1, 521395, Note_off_c, 0, 67, 63
1, 521403, Note_off_c, 0, 63, 62
1, 521468, Poly_aftertouch_c, 0, 79, 24
1, 521478, Note_off_c, 0, 79, 59
1, 521507, Poly_aftertouch_c, 0, 84, 28
1, 521511, Note_on_c, 0, 84, 105
1, 521513, Note_on_c, 0, 72, 99
1, 521515, Poly_aftertouch_c, 0, 72, 28
1, 521626, Note_off_c, 0, 72, 58
1, 521644, Poly_aftertouch_c, 0, 78, 28
1, 521646, Poly_aftertouch_c, 0, 78, 0
1, 521653, Note_off_c, 0, 84, 59
1, 521917, Control_c, 0, 64, 83
1, 521936, Control_c, 0, 64, 54
1, 521955, Control_c, 0, 64, 18
1, 521973, Control_c, 0, 64, 0
1, 522066, Poly_aftertouch_c, 0, 70, 28
1, 522067, Poly_aftertouch_c, 0, 79, 28
1, 522067, Poly_aftertouch_c, 0, 82, 28
1, 522070, Note_on_c, 0, 79, 89
1, 522071, Note_on_c, 0, 82, 100
1, 522072, Note_on_c, 0, 70, 99
1, 522073, Note_on_c, 0, 76, 89
1, 522080, Poly_aftertouch_c, 0, 76, 28
1, 522085, Poly_aftertouch_c, 0, 37, 28
1, 522087, Note_on_c, 0, 37, 105
1, 522100, Note_on_c, 0, 25, 80
1, 522104, Control_c, 0, 64, 30
1, 522106, Poly_aftertouch_c, 0, 25, 28
1, 522119, Note_off_c, 0, 37, 68
1, 522122, Control_c, 0, 64, 72
1, 522136, Note_off_c, 0, 25, 58
1, 522141, Control_c, 0, 64, 127
1, 522343, Note_off_c, 0, 82, 57
1, 522409, Note_off_c, 0, 70, 52
1, 522476, Poly_aftertouch_c, 0, 55, 28
1, 522477, Poly_aftertouch_c, 0, 64, 28
1, 522480, Note_on_c, 0, 64, 86
1, 522480, Note_on_c, 0, 55, 79
1, 522483, Poly_aftertouch_c, 0, 52, 28
1, 522489, Note_on_c, 0, 52, 76
1, 522567, Note_off_c, 0, 52, 52
1, 522582, Note_off_c, 0, 64, 58
1, 522618, Note_off_c, 0, 55, 55
1, 522650, Poly_aftertouch_c, 0, 81, 28
1, 522655, Note_on_c, 0, 81, 98
1, 522655, Poly_aftertouch_c, 0, 69, 28
1, 522658, Note_on_c, 0, 69, 102
1, 522682, Note_off_c, 0, 79, 56
1, 522698, Note_off_c, 0, 76, 62
1, 522713, Note_off_c, 0, 69, 65
1, 522714, Note_off_c, 0, 81, 68
1, 523246, Control_c, 0, 64, 119
1, 523265, Control_c, 0, 64, 99
1, 523284, Control_c, 0, 64, 83
1, 523302, Control_c, 0, 64, 67
1, 523322, Control_c, 0, 64, 52
1, 523340, Control_c, 0, 64, 38
1, 523358, Control_c, 0, 64, 21
1, 523395, Control_c, 0, 64, 0
1, 523591, Poly_aftertouch_c, 0, 50, 28
1, 523595, Note_on_c, 0, 50, 104
1, 523597, Poly_aftertouch_c, 0, 38, 28
1, 523602, Note_on_c, 0, 38, 98
1, 523603, Control_c, 0, 64, 14
1, 523621, Control_c, 0, 64, 47
1, 523639, Control_c, 0, 64, 76
1, 523658, Control_c, 0, 64, 127
1, 523782, Note_off_c, 0, 50, 49
1, 523819, Note_off_c, 0, 38, 50
1, 524232, Poly_aftertouch_c, 0, 62, 28
1, 524236, Note_on_c, 0, 62, 96
1, 524238, Poly_aftertouch_c, 0, 50, 28
1, 524238, Poly_aftertouch_c, 0, 54, 28
1, 524240, Note_on_c, 0, 54, 93
1, 524241, Note_on_c, 0, 50, 95
1, 524607, Note_off_c, 0, 50, 57
1, 524626, Poly_aftertouch_c, 0, 46, 28
1, 524630, Note_on_c, 0, 46, 106
1, 524630, Note_on_c, 0, 34, 104
1, 524630, Control_c, 0, 64, 84
1, 524632, Poly_aftertouch_c, 0, 34, 28
1, 524634, Note_off_c, 0, 54, 61
1, 524651, Control_c, 0, 64, 50
1, 524661, Note_off_c, 0, 62, 63
1, 524668, Control_c, 0, 64, 10
1, 524688, Control_c, 0, 64, 0
1, 524744, Control_c, 0, 64, 15
1, 524762, Control_c, 0, 64, 31
1, 524781, Control_c, 0, 64, 55
1, 524801, Control_c, 0, 64, 78
1, 524819, Control_c, 0, 64, 112
1, 524837, Control_c, 0, 64, 127
1, 525006, Note_off_c, 0, 34, 54
1, 525020, Poly_aftertouch_c, 0, 76, 28
1, 525024, Note_off_c, 0, 46, 56
1, 525025, Note_on_c, 0, 76, 97
1, 525026, Poly_aftertouch_c, 0, 73, 28
1, 525031, Note_on_c, 0, 64, 102
1, 525032, Note_on_c, 0, 67, 96
1, 525033, Note_on_c, 0, 73, 96
1, 525036, Poly_aftertouch_c, 0, 64, 28
1, 525039, Poly_aftertouch_c, 0, 67, 28
1, 525406, Note_off_c, 0, 64, 41
1, 525517, Note_off_c, 0, 76, 56
1, 525542, Note_off_c, 0, 67, 57
1, 525548, Control_c, 0, 64, 83
1, 525565, Note_off_c, 0, 73, 59
1, 525566, Control_c, 0, 64, 43
1, 525586, Control_c, 0, 64, 0
1, 525590, Poly_aftertouch_c, 0, 33, 28
1, 525591, Poly_aftertouch_c, 0, 45, 28
1, 525594, Note_on_c, 0, 45, 106
1, 525596, Note_on_c, 0, 33, 104
1, 525720, Note_off_c, 0, 33, 56
1, 525736, Control_c, 0, 64, 40
1, 525755, Control_c, 0, 64, 75
1, 525772, Control_c, 0, 64, 127
1, 525811, Note_off_c, 0, 45, 60
1, 526263, Poly_aftertouch_c, 0, 90, 28
1, 526268, Note_on_c, 0, 90, 105
1, 526270, Note_on_c, 0, 84, 99
1, 526271, Note_on_c, 0, 78, 103
1, 526273, Note_on_c, 0, 60, 91
1, 526274, Note_on_c, 0, 66, 98
1, 526275, Note_off_c, 0, 66, 127
1, 526275, Note_on_c, 0, 57, 91
1, 526278, Poly_aftertouch_c, 0, 66, 28
1, 526278, Poly_aftertouch_c, 0, 78, 28
1, 526279, Poly_aftertouch_c, 0, 84, 28
1, 526286, Poly_aftertouch_c, 0, 57, 28
1, 526287, Poly_aftertouch_c, 0, 60, 28
1, 526322, Poly_aftertouch_c, 0, 66, 0
1, 526326, Note_off_c, 0, 57, 66
1, 526339, Note_off_c, 0, 60, 64
1, 526378, Poly_aftertouch_c, 0, 58, 28
1, 526424, Poly_aftertouch_c, 0, 58, 0
1, 526424, Poly_aftertouch_c, 0, 61, 28
1, 526425, Poly_aftertouch_c, 0, 61, 0
1, 527377, Poly_aftertouch_c, 0, 31, 28
1, 527378, Poly_aftertouch_c, 0, 43, 28
1, 527382, Note_on_c, 0, 43, 109
1, 527387, Note_on_c, 0, 31, 106
1, 527391, Note_off_c, 0, 84, 58
1, 527402, Control_c, 0, 64, 78
1, 527421, Control_c, 0, 64, 31
1, 527423, Note_off_c, 0, 78, 53
1, 527438, Control_c, 0, 64, 0
1, 527453, Note_off_c, 0, 90, 62
1, 527608, Control_c, 0, 64, 8
1, 527616, Note_off_c, 0, 31, 55
1, 527626, Control_c, 0, 64, 15
1, 527645, Control_c, 0, 64, 29
1, 527664, Control_c, 0, 64, 54
1, 527683, Control_c, 0, 64, 80
1, 527701, Control_c, 0, 64, 127
1, 527804, Note_off_c, 0, 43, 54
1, 528309, Poly_aftertouch_c, 0, 50, 28
1, 528314, Note_on_c, 0, 50, 85
1, 528411, Poly_aftertouch_c, 0, 55, 28
1, 528412, Note_on_c, 0, 55, 81
1, 528424, Note_off_c, 0, 50, 64
1, 528521, Note_off_c, 0, 55, 63
1, 528522, Poly_aftertouch_c, 0, 58, 28
1, 528525, Note_on_c, 0, 58, 90
1, 528597, Note_off_c, 0, 58, 64
1, 528634, Poly_aftertouch_c, 0, 62, 28
1, 528639, Note_on_c, 0, 62, 86
1, 528902, Poly_aftertouch_c, 0, 82, 28
1, 528908, Note_on_c, 0, 82, 96
1, 528910, Note_on_c, 0, 79, 101
1, 528911, Note_on_c, 0, 86, 93
1, 528912, Note_on_c, 0, 91, 103
1, 528915, Note_off_c, 0, 62, 64
1, 528916, Note_on_c, 0, 67, 105
1, 528917, Note_off_c, 0, 67, 127
1, 528920, Poly_aftertouch_c, 0, 67, 28
1, 528920, Poly_aftertouch_c, 0, 79, 28
1, 528921, Poly_aftertouch_c, 0, 86, 28
1, 528922, Poly_aftertouch_c, 0, 91, 28
1, 528969, Poly_aftertouch_c, 0, 67, 127
1, 528972, Poly_aftertouch_c, 0, 85, 0
1, 532678, Poly_aftertouch_c, 0, 79, 24
1, 533123, Poly_aftertouch_c, 0, 91, 24
1, 533127, Poly_aftertouch_c, 0, 79, 22
1, 533249, Note_off_c, 0, 91, 28
1, 533290, Note_off_c, 0, 79, 19
1, 534140, Note_off_c, 0, 82, 43
1, 534186, Poly_aftertouch_c, 0, 67, 0
1, 534205, Note_off_c, 0, 86, 51
1, 534326, Control_c, 0, 64, 87
1, 534346, Control_c, 0, 64, 60
1, 534365, Control_c, 0, 64, 35
1, 534384, Control_c, 0, 64, 17
1, 534402, Control_c, 0, 64, 11
1, 544454, Control_c, 0, 64, 15
1, 544510, Control_c, 0, 64, 20
1, 544566, Control_c, 0, 64, 24
1, 544641, Control_c, 0, 64, 29
1, 544697, Control_c, 0, 64, 34
1, 544735, Control_c, 0, 64, 42
1, 544754, Control_c, 0, 64, 46
1, 544772, Control_c, 0, 64, 49
1, 544810, Control_c, 0, 64, 51
1, 544885, Control_c, 0, 64, 53
1, 544903, Control_c, 0, 64, 55
1, 544922, Control_c, 0, 64, 58
1, 544959, Control_c, 0, 64, 60
1, 545016, Control_c, 0, 64, 61
1, 545053, Control_c, 0, 64, 62
1, 545072, Control_c, 0, 64, 63
1, 545090, Control_c, 0, 64, 64
1, 545110, Control_c, 0, 64, 65
1, 545127, Control_c, 0, 64, 67
1, 545165, Control_c, 0, 64, 70
1, 545203, Control_c, 0, 64, 72
1, 545240, Control_c, 0, 64, 76
1, 545258, Control_c, 0, 64, 78
1, 545278, Control_c, 0, 64, 82
1, 545296, Control_c, 0, 64, 85
1, 545316, Control_c, 0, 64, 87
1, 545410, Control_c, 0, 64, 91
1, 545446, Control_c, 0, 64, 97
1, 545465, Control_c, 0, 64, 102
1, 545484, Control_c, 0, 64, 107
1, 545502, Control_c, 0, 64, 114
1, 545522, Control_c, 0, 64, 122
1, 545540, Control_c, 0, 64, 127
1, 550319, Poly_aftertouch_c, 0, 56, 28
1, 550319, Poly_aftertouch_c, 0, 59, 28
1, 550322, Note_on_c, 0, 59, 45
1, 550326, Note_on_c, 0, 56, 41
1, 550729, Poly_aftertouch_c, 0, 52, 28
1, 550734, Note_on_c, 0, 52, 57
1, 550817, Note_off_c, 0, 59, 57
1, 550817, Note_off_c, 0, 56, 50
1, 551001, Poly_aftertouch_c, 0, 56, 28
1, 551001, Poly_aftertouch_c, 0, 59, 28
1, 551003, Note_on_c, 0, 56, 54
1, 551004, Note_on_c, 0, 59, 59
1, 551435, Poly_aftertouch_c, 0, 60, 28
1, 551438, Note_on_c, 0, 60, 59
1, 551439, Poly_aftertouch_c, 0, 40, 28
1, 551446, Note_on_c, 0, 40, 49
1, 551585, Control_c, 0, 64, 105
1, 551605, Control_c, 0, 64, 89
1, 551615, Note_off_c, 0, 59, 46
1, 551623, Control_c, 0, 64, 76
1, 551642, Control_c, 0, 64, 65
1, 551662, Control_c, 0, 64, 57
1, 551679, Control_c, 0, 64, 51
1, 551699, Control_c, 0, 64, 48
1, 551717, Control_c, 0, 64, 45
1, 551736, Control_c, 0, 64, 40
1, 551754, Control_c, 0, 64, 33
1, 551774, Control_c, 0, 64, 27
1, 551792, Control_c, 0, 64, 21
1, 551829, Control_c, 0, 64, 17
1, 551886, Control_c, 0, 64, 11
1, 552036, Control_c, 0, 64, 0
1, 552625, Poly_aftertouch_c, 0, 61, 28
1, 552633, Note_on_c, 0, 61, 44
1, 552735, Note_off_c, 0, 60, 55
1, 552915, Control_c, 0, 64, 9
1, 552934, Control_c, 0, 64, 17
1, 552953, Control_c, 0, 64, 26
1, 552971, Control_c, 0, 64, 42
1, 552990, Control_c, 0, 64, 60
1, 553008, Control_c, 0, 64, 71
1, 553028, Control_c, 0, 64, 78
1, 553047, Control_c, 0, 64, 84
1, 553064, Control_c, 0, 64, 89
1, 553084, Control_c, 0, 64, 97
1, 553102, Control_c, 0, 64, 108
1, 553120, Control_c, 0, 64, 127
1, 553284, Note_off_c, 0, 40, 35
1, 554462, Poly_aftertouch_c, 0, 80, 28
1, 554469, Note_on_c, 0, 80, 66
1, 554872, Note_off_c, 0, 61, 51
1, 554980, Poly_aftertouch_c, 0, 52, 24
1, 555098, Note_off_c, 0, 52, 28
1, 555107, Note_off_c, 0, 56, 35
1, 555956, Poly_aftertouch_c, 0, 73, 28
1, 555963, Note_on_c, 0, 73, 49
1, 556164, Note_off_c, 0, 80, 39
1, 556171, Control_c, 0, 67, 10
1, 556209, Control_c, 0, 67, 15
1, 556227, Control_c, 0, 67, 20
1, 556247, Control_c, 0, 67, 29
1, 556264, Control_c, 0, 67, 41
1, 556284, Control_c, 0, 67, 56
1, 556303, Control_c, 0, 67, 70
1, 556322, Control_c, 0, 67, 84
1, 556340, Control_c, 0, 67, 95
1, 556358, Control_c, 0, 67, 105
1, 556378, Control_c, 0, 67, 115
1, 556396, Control_c, 0, 67, 125
1, 556559, Poly_aftertouch_c, 0, 52, 28
1, 556568, Note_on_c, 0, 52, 30
1, 556867, Poly_aftertouch_c, 0, 57, 28
1, 556875, Note_on_c, 0, 57, 37
1, 557182, Poly_aftertouch_c, 0, 66, 28
1, 557190, Note_on_c, 0, 66, 38
1, 557239, Control_c, 0, 64, 103
1, 557258, Control_c, 0, 64, 83
1, 557277, Control_c, 0, 64, 65
1, 557295, Control_c, 0, 64, 49
1, 557313, Control_c, 0, 64, 37
1, 557332, Control_c, 0, 64, 30
1, 557426, Control_c, 0, 64, 35
1, 557444, Control_c, 0, 64, 45
1, 557464, Control_c, 0, 64, 58
1, 557482, Control_c, 0, 64, 69
1, 557501, Control_c, 0, 64, 77
1, 557520, Control_c, 0, 64, 84
1, 557539, Control_c, 0, 64, 91
1, 557557, Control_c, 0, 64, 101
1, 557575, Control_c, 0, 64, 127
1, 558287, Control_c, 0, 67, 121
1, 558342, Control_c, 0, 67, 117
1, 558456, Control_c, 0, 67, 113
1, 558492, Control_c, 0, 67, 109
1, 558549, Control_c, 0, 67, 105
1, 558605, Control_c, 0, 67, 99
1, 558642, Control_c, 0, 67, 94
1, 558681, Control_c, 0, 67, 85
1, 558699, Control_c, 0, 67, 80
1, 558718, Control_c, 0, 67, 75
1, 558736, Control_c, 0, 67, 70
1, 558755, Control_c, 0, 67, 65
1, 558773, Control_c, 0, 67, 61
1, 558811, Control_c, 0, 67, 54
1, 558849, Control_c, 0, 67, 49
1, 558896, Poly_aftertouch_c, 0, 78, 28
1, 558902, Note_on_c, 0, 78, 67
1, 558983, Poly_aftertouch_c, 0, 66, 24
1, 559079, Note_off_c, 0, 66, 32
1, 559184, Poly_aftertouch_c, 0, 73, 22
1, 559204, Control_c, 0, 67, 45
1, 559212, Note_off_c, 0, 73, 34
1, 559237, Poly_aftertouch_c, 0, 60, 28
1, 559239, Poly_aftertouch_c, 0, 60, 0
1, 559357, Poly_aftertouch_c, 0, 52, 24
1, 559424, Note_off_c, 0, 52, 34
1, 559493, Poly_aftertouch_c, 0, 57, 24
1, 559748, Poly_aftertouch_c, 0, 57, 22
1, 560008, Poly_aftertouch_c, 0, 57, 20
1, 560057, Note_off_c, 0, 57, 19
1, 560161, Poly_aftertouch_c, 0, 69, 28
1, 560162, Note_on_c, 0, 69, 50
1, 560250, Note_off_c, 0, 78, 34
1, 560402, Control_c, 0, 67, 49
1, 560458, Control_c, 0, 67, 54
1, 560515, Control_c, 0, 67, 58
1, 560533, Control_c, 0, 67, 62
1, 560552, Control_c, 0, 67, 69
1, 560570, Control_c, 0, 67, 78
1, 560590, Control_c, 0, 67, 89
1, 560609, Control_c, 0, 67, 100
1, 560627, Control_c, 0, 67, 109
1, 560645, Control_c, 0, 67, 116
1, 560664, Control_c, 0, 67, 122
1, 560683, Control_c, 0, 67, 127
1, 560787, Poly_aftertouch_c, 0, 52, 28
1, 560796, Note_on_c, 0, 52, 24
1, 561116, Poly_aftertouch_c, 0, 54, 28
1, 561128, Note_on_c, 0, 54, 38
1, 561448, Poly_aftertouch_c, 0, 63, 28
1, 561457, Note_on_c, 0, 63, 39
1, 561563, Control_c, 0, 64, 95
1, 561582, Control_c, 0, 64, 76
1, 561600, Control_c, 0, 64, 60
1, 561619, Control_c, 0, 64, 45
1, 561637, Control_c, 0, 64, 35
1, 561658, Control_c, 0, 64, 30
1, 561768, Control_c, 0, 64, 38
1, 561788, Control_c, 0, 64, 48
1, 561806, Control_c, 0, 64, 61
1, 561826, Control_c, 0, 64, 69
1, 561843, Control_c, 0, 64, 76
1, 561863, Control_c, 0, 64, 83
1, 561881, Control_c, 0, 64, 91
1, 561900, Control_c, 0, 64, 102
1, 561919, Control_c, 0, 64, 127
1, 562125, Control_c, 0, 67, 122
1, 562162, Control_c, 0, 67, 117
1, 562200, Control_c, 0, 67, 110
1, 562237, Control_c, 0, 67, 103
1, 562274, Control_c, 0, 67, 98
1, 562387, Control_c, 0, 67, 94
1, 562667, Control_c, 0, 67, 90
1, 562686, Control_c, 0, 67, 83
1, 562704, Control_c, 0, 67, 77
1, 562724, Control_c, 0, 67, 70
1, 562742, Control_c, 0, 67, 65
1, 562761, Control_c, 0, 67, 61
1, 563138, Poly_aftertouch_c, 0, 73, 28
1, 563144, Note_on_c, 0, 73, 52
1, 563293, Note_off_c, 0, 69, 32
1, 563777, Poly_aftertouch_c, 0, 60, 28
1, 563778, Poly_aftertouch_c, 0, 60, 0
1, 563913, Note_off_c, 0, 63, 32
1, 564331, Poly_aftertouch_c, 0, 52, 24
1, 564504, Note_off_c, 0, 52, 25
1, 564587, Poly_aftertouch_c, 0, 71, 28
1, 564592, Note_on_c, 0, 71, 46
1, 564649, Poly_aftertouch_c, 0, 54, 24
1, 564712, Note_off_c, 0, 54, 36
1, 564822, Note_off_c, 0, 73, 31
1, 565382, Poly_aftertouch_c, 0, 69, 28
1, 565387, Note_on_c, 0, 69, 46
1, 565459, Note_off_c, 0, 71, 34
1, 565606, Control_c, 0, 67, 65
1, 565682, Control_c, 0, 67, 71
1, 565718, Control_c, 0, 67, 78
1, 565738, Control_c, 0, 67, 82
1, 565756, Control_c, 0, 67, 90
1, 565774, Control_c, 0, 67, 100
1, 565794, Control_c, 0, 67, 110
1, 565813, Control_c, 0, 67, 119
1, 565830, Control_c, 0, 67, 127
1, 566019, Poly_aftertouch_c, 0, 40, 28
1, 566027, Note_on_c, 0, 40, 27
1, 566373, Poly_aftertouch_c, 0, 47, 28
1, 566386, Note_on_c, 0, 47, 36
1, 566711, Poly_aftertouch_c, 0, 54, 28
1, 566723, Note_on_c, 0, 54, 37
1, 566748, Control_c, 0, 64, 102
1, 566766, Control_c, 0, 64, 84
1, 566788, Control_c, 0, 64, 68
1, 566804, Control_c, 0, 64, 55
1, 566823, Control_c, 0, 64, 48
1, 566880, Control_c, 0, 64, 53
1, 566897, Control_c, 0, 64, 59
1, 566916, Control_c, 0, 64, 64
1, 566935, Control_c, 0, 64, 71
1, 566954, Control_c, 0, 64, 80
1, 566955, Poly_aftertouch_c, 0, 40, 24
1, 566972, Control_c, 0, 64, 94
1, 566991, Control_c, 0, 64, 127
1, 567034, Note_off_c, 0, 40, 33
1, 567132, Note_off_c, 0, 47, 39
1, 567277, Note_off_c, 0, 54, 41
1, 568182, Poly_aftertouch_c, 0, 69, 24
1, 568500, Poly_aftertouch_c, 0, 68, 28
1, 568515, Note_on_c, 0, 68, 35
1, 568526, Poly_aftertouch_c, 0, 59, 28
1, 568529, Note_on_c, 0, 59, 31
1, 568536, Poly_aftertouch_c, 0, 56, 28
1, 568544, Note_on_c, 0, 56, 37
1, 568556, Poly_aftertouch_c, 0, 69, 22
1, 568581, Note_off_c, 0, 69, 19
1, 568582, Control_c, 0, 64, 103
1, 568601, Control_c, 0, 64, 83
1, 568621, Control_c, 0, 64, 66
1, 568638, Control_c, 0, 64, 52
1, 568658, Control_c, 0, 64, 44
1, 568676, Control_c, 0, 64, 42
1, 568732, Control_c, 0, 64, 46
1, 568751, Control_c, 0, 64, 53
1, 568771, Control_c, 0, 64, 62
1, 568788, Control_c, 0, 64, 71
1, 568808, Control_c, 0, 64, 82
1, 568826, Control_c, 0, 64, 97
1, 568844, Control_c, 0, 64, 127
1, 569032, Poly_aftertouch_c, 0, 52, 28
1, 569033, Note_off_c, 0, 68, 42
1, 569037, Note_on_c, 0, 52, 49
1, 569151, Note_off_c, 0, 59, 44
1, 569164, Note_off_c, 0, 56, 40
1, 569366, Poly_aftertouch_c, 0, 59, 28
1, 569370, Note_on_c, 0, 59, 59
1, 569371, Poly_aftertouch_c, 0, 56, 28
1, 569380, Note_on_c, 0, 56, 53
1, 569863, Poly_aftertouch_c, 0, 60, 28
1, 569866, Note_on_c, 0, 60, 66
1, 569910, Poly_aftertouch_c, 0, 40, 28
1, 569917, Note_on_c, 0, 40, 44
1, 569986, Control_c, 0, 64, 107
1, 570005, Control_c, 0, 64, 97
1, 570024, Control_c, 0, 64, 88
1, 570042, Control_c, 0, 64, 81
1, 570054, Note_off_c, 0, 59, 53
1, 570061, Control_c, 0, 64, 74
1, 570080, Control_c, 0, 64, 68
1, 570098, Control_c, 0, 64, 63
1, 570118, Control_c, 0, 64, 59
1, 570135, Control_c, 0, 64, 56
1, 570155, Control_c, 0, 64, 54
1, 570173, Control_c, 0, 64, 51
1, 570192, Control_c, 0, 64, 48
1, 570211, Control_c, 0, 64, 44
1, 570231, Control_c, 0, 64, 41
1, 570248, Control_c, 0, 64, 37
1, 570286, Control_c, 0, 64, 32
1, 570323, Control_c, 0, 64, 28
1, 570360, Control_c, 0, 64, 24
1, 570361, Control_c, 0, 67, 123
1, 570397, Control_c, 0, 64, 20
1, 570454, Control_c, 0, 67, 118
1, 570473, Control_c, 0, 64, 16
1, 570510, Control_c, 0, 67, 114
1, 570548, Control_c, 0, 64, 12
1, 570567, Control_c, 0, 67, 109
1, 570603, Control_c, 0, 67, 104
1, 570661, Control_c, 0, 67, 100
1, 570790, Control_c, 0, 64, 0
1, 571036, Poly_aftertouch_c, 0, 61, 28
1, 571044, Note_on_c, 0, 61, 44
1, 571166, Note_off_c, 0, 60, 53
1, 571521, Control_c, 0, 64, 9
1, 571540, Control_c, 0, 64, 14
1, 571559, Control_c, 0, 64, 20
1, 571577, Control_c, 0, 64, 26
1, 571596, Control_c, 0, 64, 36
1, 571614, Control_c, 0, 64, 51
1, 571634, Control_c, 0, 64, 63
1, 571652, Control_c, 0, 64, 71
1, 571671, Control_c, 0, 64, 76
1, 571689, Control_c, 0, 64, 82
1, 571709, Control_c, 0, 64, 90
1, 571727, Control_c, 0, 64, 101
1, 571745, Control_c, 0, 64, 127
1, 571785, Note_off_c, 0, 40, 47
1, 572158, Control_c, 0, 67, 93
1, 572177, Control_c, 0, 67, 88
1, 572194, Control_c, 0, 67, 82
1, 572214, Control_c, 0, 67, 77
1, 572232, Control_c, 0, 67, 72
1, 572269, Control_c, 0, 67, 68
1, 572476, Control_c, 0, 67, 62
1, 572494, Control_c, 0, 67, 56
1, 572513, Control_c, 0, 67, 50
1, 572533, Control_c, 0, 67, 45
1, 572550, Control_c, 0, 67, 40
1, 572570, Control_c, 0, 67, 36
1, 572607, Control_c, 0, 67, 29
1, 572645, Control_c, 0, 67, 22
1, 572681, Control_c, 0, 67, 18
1, 573041, Poly_aftertouch_c, 0, 80, 28
1, 573049, Note_on_c, 0, 80, 63
1, 573736, Poly_aftertouch_c, 0, 61, 24
1, 573852, Note_off_c, 0, 61, 19
1, 574063, Poly_aftertouch_c, 0, 52, 24
1, 574085, Control_c, 0, 67, 22
1, 574161, Poly_aftertouch_c, 0, 56, 24
1, 574197, Note_off_c, 0, 52, 29
1, 574292, Poly_aftertouch_c, 0, 70, 28
1, 574302, Note_on_c, 0, 70, 48
1, 574347, Control_c, 0, 67, 26
1, 574354, Note_off_c, 0, 56, 19
1, 574420, Note_off_c, 0, 80, 46
1, 574479, Control_c, 0, 67, 30
1, 574517, Control_c, 0, 67, 36
1, 574554, Control_c, 0, 67, 45
1, 574572, Control_c, 0, 67, 53
1, 574591, Control_c, 0, 67, 63
1, 574609, Control_c, 0, 67, 73
1, 574628, Control_c, 0, 67, 83
1, 574647, Control_c, 0, 67, 93
1, 574666, Control_c, 0, 67, 104
1, 574684, Control_c, 0, 67, 114
1, 574703, Control_c, 0, 67, 125
1, 574849, Poly_aftertouch_c, 0, 52, 28
1, 574854, Note_on_c, 0, 52, 30
1, 575161, Poly_aftertouch_c, 0, 61, 28
1, 575168, Note_on_c, 0, 61, 38
1, 575480, Poly_aftertouch_c, 0, 66, 28
1, 575489, Note_on_c, 0, 66, 34
1, 575489, Control_c, 0, 64, 104
1, 575509, Control_c, 0, 64, 86
1, 575527, Control_c, 0, 64, 69
1, 575546, Control_c, 0, 64, 54
1, 575565, Control_c, 0, 64, 40
1, 575583, Control_c, 0, 64, 31
1, 575696, Control_c, 0, 64, 41
1, 575714, Control_c, 0, 64, 54
1, 575733, Control_c, 0, 64, 66
1, 575751, Control_c, 0, 64, 75
1, 575771, Control_c, 0, 64, 85
1, 575789, Control_c, 0, 64, 99
1, 575807, Control_c, 0, 64, 127
1, 577025, Poly_aftertouch_c, 0, 66, 24
1, 577030, Poly_aftertouch_c, 0, 78, 28
1, 577039, Note_on_c, 0, 78, 60
1, 577197, Note_off_c, 0, 70, 35
1, 577229, Note_off_c, 0, 66, 24
1, 577349, Note_off_c, 0, 61, 35
1, 577586, Control_c, 0, 67, 120
1, 577623, Control_c, 0, 67, 114
1, 577642, Control_c, 0, 67, 110
1, 577646, Poly_aftertouch_c, 0, 52, 24
1, 577661, Control_c, 0, 67, 106
1, 577679, Control_c, 0, 67, 102
1, 577719, Control_c, 0, 67, 96
1, 577735, Note_off_c, 0, 52, 30
1, 577755, Control_c, 0, 67, 91
1, 577792, Control_c, 0, 67, 86
1, 577849, Control_c, 0, 67, 80
1, 577904, Control_c, 0, 67, 76
1, 578466, Poly_aftertouch_c, 0, 71, 28
1, 578474, Note_on_c, 0, 71, 40
1, 578539, Note_off_c, 0, 78, 40
1, 578597, Control_c, 0, 67, 80
1, 578690, Control_c, 0, 67, 84
1, 578784, Control_c, 0, 67, 89
1, 578821, Control_c, 0, 67, 95
1, 578859, Control_c, 0, 67, 102
1, 578896, Control_c, 0, 67, 110
1, 578916, Control_c, 0, 67, 116
1, 578933, Control_c, 0, 67, 122
1, 578951, Control_c, 0, 67, 127
1, 579042, Poly_aftertouch_c, 0, 51, 28
1, 579050, Note_on_c, 0, 51, 34
1, 579416, Poly_aftertouch_c, 0, 54, 28
1, 579424, Note_on_c, 0, 54, 40
1, 579533, Control_c, 0, 64, 121
1, 579589, Control_c, 0, 64, 117
1, 579700, Control_c, 0, 64, 111
1, 579739, Control_c, 0, 64, 107
1, 579755, Poly_aftertouch_c, 0, 59, 28
1, 579759, Note_on_c, 0, 59, 38
1, 579777, Control_c, 0, 64, 97
1, 579795, Control_c, 0, 64, 89
1, 579813, Control_c, 0, 64, 78
1, 579831, Control_c, 0, 64, 67
1, 579851, Control_c, 0, 64, 56
1, 579869, Control_c, 0, 64, 47
1, 579888, Control_c, 0, 64, 39
1, 579906, Control_c, 0, 64, 34
1, 580094, Control_c, 0, 64, 40
1, 580113, Control_c, 0, 64, 45
1, 580132, Control_c, 0, 64, 50
1, 580150, Control_c, 0, 64, 55
1, 580169, Control_c, 0, 64, 59
1, 580188, Control_c, 0, 64, 60
1, 580226, Control_c, 0, 64, 62
1, 580244, Control_c, 0, 64, 65
1, 580264, Control_c, 0, 64, 68
1, 580281, Control_c, 0, 64, 71
1, 580300, Control_c, 0, 64, 75
1, 580320, Control_c, 0, 64, 80
1, 580337, Control_c, 0, 64, 87
1, 580356, Control_c, 0, 64, 95
1, 580357, Control_c, 0, 67, 122
1, 580377, Control_c, 0, 64, 105
1, 580394, Control_c, 0, 64, 127
1, 580411, Control_c, 0, 67, 118
1, 580451, Control_c, 0, 67, 114
1, 580506, Control_c, 0, 67, 109
1, 580542, Control_c, 0, 67, 103
1, 580580, Control_c, 0, 67, 95
1, 580600, Control_c, 0, 67, 91
1, 580617, Control_c, 0, 67, 87
1, 580637, Control_c, 0, 67, 83
1, 580674, Control_c, 0, 67, 75
1, 580692, Control_c, 0, 67, 71
1, 580731, Control_c, 0, 67, 65
1, 580768, Control_c, 0, 67, 61
1, 580843, Control_c, 0, 67, 57
1, 581092, Poly_aftertouch_c, 0, 59, 24
1, 581249, Note_off_c, 0, 59, 24
1, 581491, Poly_aftertouch_c, 0, 73, 28
1, 581498, Note_on_c, 0, 73, 48
1, 581508, Poly_aftertouch_c, 0, 51, 20
1, 581513, Note_off_c, 0, 51, 26
1, 581554, Poly_aftertouch_c, 0, 71, 24
1, 581586, Poly_aftertouch_c, 0, 54, 24
1, 581618, Note_off_c, 0, 71, 35
1, 581644, Note_off_c, 0, 54, 35
1, 582067, Note_off_c, 0, 73, 34
1, 582437, Poly_aftertouch_c, 0, 75, 28
1, 582443, Note_on_c, 0, 75, 66
1, 582933, Poly_aftertouch_c, 0, 49, 28
1, 582938, Note_on_c, 0, 49, 35
1, 582939, Control_c, 0, 67, 61
1, 583033, Control_c, 0, 64, 114
1, 583051, Control_c, 0, 64, 97
1, 583062, Poly_aftertouch_c, 0, 76, 28
1, 583066, Note_on_c, 0, 76, 69
1, 583071, Control_c, 0, 64, 80
1, 583089, Control_c, 0, 64, 64
1, 583107, Control_c, 0, 64, 49
1, 583127, Control_c, 0, 64, 36
1, 583135, Note_off_c, 0, 75, 57
1, 583146, Control_c, 0, 64, 29
1, 583258, Control_c, 0, 64, 42
1, 583276, Control_c, 0, 64, 55
1, 583295, Control_c, 0, 64, 67
1, 583314, Control_c, 0, 64, 76
1, 583333, Control_c, 0, 64, 85
1, 583351, Control_c, 0, 64, 96
1, 583371, Control_c, 0, 64, 107
1, 583389, Control_c, 0, 64, 127
1, 583394, Poly_aftertouch_c, 0, 55, 28
1, 583404, Note_on_c, 0, 55, 34
1, 583524, Poly_aftertouch_c, 0, 78, 28
1, 583530, Note_on_c, 0, 78, 78
1, 583583, Note_off_c, 0, 76, 56
1, 583657, Poly_aftertouch_c, 0, 55, 20
1, 583661, Note_off_c, 0, 55, 40
1, 583723, Note_off_c, 0, 49, 24
1, 583728, Poly_aftertouch_c, 0, 59, 28
1, 583730, Note_on_c, 0, 59, 38
1, 583771, Note_off_c, 0, 59, 54
1, 584251, Control_c, 0, 64, 110
1, 584262, Poly_aftertouch_c, 0, 42, 28
1, 584269, Control_c, 0, 64, 98
1, 584272, Note_on_c, 0, 42, 31
1, 584287, Control_c, 0, 64, 86
1, 584306, Control_c, 0, 64, 73
1, 584323, Poly_aftertouch_c, 0, 79, 28
1, 584323, Control_c, 0, 64, 60
1, 584327, Note_on_c, 0, 79, 65
1, 584344, Control_c, 0, 64, 47
1, 584359, Note_off_c, 0, 78, 60
1, 584360, Control_c, 0, 64, 34
1, 584380, Control_c, 0, 64, 21
1, 584400, Control_c, 0, 64, 13
1, 584511, Control_c, 0, 67, 65
1, 584531, Control_c, 0, 64, 27
1, 584549, Control_c, 0, 64, 41
1, 584568, Control_c, 0, 64, 62
1, 584586, Control_c, 0, 64, 79
1, 584606, Control_c, 0, 64, 101
1, 584608, Control_c, 0, 67, 71
1, 584625, Control_c, 0, 64, 127
1, 584626, Control_c, 0, 67, 75
1, 584642, Control_c, 0, 67, 79
1, 584656, Note_off_c, 0, 42, 37
1, 584661, Control_c, 0, 67, 84
1, 584680, Control_c, 0, 67, 91
1, 584698, Control_c, 0, 67, 99
1, 584717, Control_c, 0, 67, 106
1, 584736, Control_c, 0, 67, 112
1, 584754, Control_c, 0, 67, 116
1, 584792, Control_c, 0, 67, 121
1, 584955, Poly_aftertouch_c, 0, 52, 28
1, 584961, Note_on_c, 0, 52, 35
1, 584999, Control_c, 0, 67, 117
1, 585164, Note_off_c, 0, 52, 22
1, 585166, Poly_aftertouch_c, 0, 76, 28
1, 585173, Note_on_c, 0, 76, 55
1, 585237, Note_off_c, 0, 79, 46
1, 585344, Poly_aftertouch_c, 0, 58, 28
1, 585354, Note_on_c, 0, 58, 42
1, 585415, Note_off_c, 0, 58, 59
1, 585654, Poly_aftertouch_c, 0, 54, 28
1, 585661, Note_on_c, 0, 54, 41
1, 585661, Poly_aftertouch_c, 0, 73, 28
1, 585664, Note_on_c, 0, 73, 51
1, 585711, Note_off_c, 0, 76, 36
1, 585903, Note_off_c, 0, 54, 31
1, 585988, Poly_aftertouch_c, 0, 61, 28
1, 585996, Note_on_c, 0, 61, 36
1, 586097, Note_off_c, 0, 61, 39
1, 586198, Poly_aftertouch_c, 0, 70, 28
1, 586208, Note_on_c, 0, 70, 52
1, 586210, Note_off_c, 0, 73, 45
1, 586428, Poly_aftertouch_c, 0, 64, 28
1, 586434, Note_on_c, 0, 64, 36
1, 586516, Note_off_c, 0, 64, 61
1, 586571, Control_c, 0, 67, 113
1, 587126, Poly_aftertouch_c, 0, 73, 28
1, 587135, Note_on_c, 0, 73, 53
1, 587138, Poly_aftertouch_c, 0, 35, 28
1, 587144, Note_on_c, 0, 35, 43
1, 587159, Note_off_c, 0, 70, 52
1, 587169, Control_c, 0, 64, 107
1, 587189, Control_c, 0, 64, 95
1, 587207, Control_c, 0, 64, 82
1, 587226, Control_c, 0, 64, 69
1, 587245, Control_c, 0, 64, 57
1, 587263, Control_c, 0, 64, 46
1, 587284, Control_c, 0, 64, 35
1, 587300, Control_c, 0, 64, 27
1, 587320, Control_c, 0, 64, 22
1, 587450, Control_c, 0, 64, 26
1, 587470, Control_c, 0, 64, 32
1, 587488, Control_c, 0, 64, 40
1, 587507, Control_c, 0, 64, 50
1, 587525, Control_c, 0, 64, 62
1, 587545, Control_c, 0, 64, 69
1, 587562, Control_c, 0, 64, 72
1, 587581, Control_c, 0, 64, 75
1, 587600, Control_c, 0, 64, 79
1, 587619, Control_c, 0, 64, 86
1, 587638, Control_c, 0, 64, 97
1, 587656, Control_c, 0, 64, 112
1, 587676, Control_c, 0, 64, 127
1, 587906, Poly_aftertouch_c, 0, 35, 24
1, 588007, Note_off_c, 0, 35, 22
1, 588225, Poly_aftertouch_c, 0, 42, 28
1, 588234, Note_on_c, 0, 42, 33
1, 588644, Poly_aftertouch_c, 0, 42, 24
1, 588754, Note_off_c, 0, 42, 29
1, 588827, Poly_aftertouch_c, 0, 51, 28
1, 588835, Note_on_c, 0, 51, 26
1, 589090, Poly_aftertouch_c, 0, 51, 20
1, 589094, Note_off_c, 0, 51, 38
1, 589338, Poly_aftertouch_c, 0, 54, 28
1, 589350, Note_on_c, 0, 54, 31
1, 589774, Poly_aftertouch_c, 0, 54, 24
1, 589834, Note_off_c, 0, 54, 36
1, 589941, Control_c, 0, 67, 117
1, 590092, Poly_aftertouch_c, 0, 73, 24
1, 590159, Note_off_c, 0, 73, 35
1, 590172, Poly_aftertouch_c, 0, 63, 28
1, 590173, Poly_aftertouch_c, 0, 71, 28
1, 590180, Note_on_c, 0, 71, 36
1, 590183, Note_on_c, 0, 63, 32
1, 590414, Note_off_c, 0, 63, 42
1, 591072, Poly_aftertouch_c, 0, 66, 28
1, 591081, Note_on_c, 0, 66, 31
1, 591274, Note_off_c, 0, 66, 35
1, 592806, Poly_aftertouch_c, 0, 75, 28
1, 592819, Note_on_c, 0, 75, 32
1, 594733, Control_c, 0, 64, 117
1, 594751, Control_c, 0, 64, 108
1, 594769, Control_c, 0, 64, 102
1, 594789, Control_c, 0, 64, 97
1, 594806, Control_c, 0, 64, 92
1, 594826, Control_c, 0, 64, 87
1, 594845, Control_c, 0, 64, 82
1, 594863, Control_c, 0, 64, 76
1, 594882, Control_c, 0, 64, 71
1, 594900, Control_c, 0, 64, 67
1, 594919, Control_c, 0, 64, 64
1, 594938, Control_c, 0, 64, 62
1, 594957, Control_c, 0, 64, 60
1, 594976, Control_c, 0, 64, 57
1, 594994, Control_c, 0, 64, 53
1, 595013, Control_c, 0, 64, 49
1, 595031, Control_c, 0, 64, 45
1, 595050, Control_c, 0, 64, 40
1, 595068, Control_c, 0, 64, 36
1, 595106, Control_c, 0, 64, 31
1, 595294, Control_c, 0, 64, 37
1, 595312, Control_c, 0, 64, 44
1, 595331, Control_c, 0, 64, 52
1, 595349, Control_c, 0, 64, 60
1, 595369, Control_c, 0, 64, 65
1, 595387, Control_c, 0, 64, 67
1, 595424, Control_c, 0, 64, 71
1, 595444, Control_c, 0, 64, 75
1, 595462, Control_c, 0, 64, 82
1, 595481, Control_c, 0, 64, 94
1, 595500, Control_c, 0, 64, 116
1, 595518, Control_c, 0, 64, 127
1, 595575, Control_c, 0, 67, 121
1, 595594, Note_off_c, 0, 75, 45
1, 595687, Control_c, 0, 67, 126
1, 596110, Poly_aftertouch_c, 0, 83, 28
1, 596114, Note_on_c, 0, 83, 42
1, 596118, Poly_aftertouch_c, 0, 71, 24
1, 596218, Note_off_c, 0, 71, 31
1, 596382, Note_off_c, 0, 83, 48
1, 596410, Poly_aftertouch_c, 0, 81, 28
1, 596415, Note_on_c, 0, 81, 44
1, 596586, Note_off_c, 0, 81, 55
1, 596689, Poly_aftertouch_c, 0, 72, 28
1, 596697, Note_on_c, 0, 72, 37
1, 596708, Poly_aftertouch_c, 0, 76, 28
1, 596714, Note_on_c, 0, 76, 35
1, 596716, Note_on_c, 0, 69, 31
1, 596716, Poly_aftertouch_c, 0, 69, 28
1, 596754, Control_c, 0, 64, 115
1, 596772, Control_c, 0, 64, 94
1, 596791, Control_c, 0, 64, 77
1, 596809, Control_c, 0, 64, 63
1, 596828, Control_c, 0, 64, 52
1, 596848, Control_c, 0, 64, 49
1, 596885, Control_c, 0, 64, 51
1, 596903, Control_c, 0, 64, 55
1, 596922, Control_c, 0, 64, 60
1, 596940, Control_c, 0, 64, 64
1, 596960, Control_c, 0, 64, 68
1, 596963, Poly_aftertouch_c, 0, 69, 24
1, 596964, Poly_aftertouch_c, 0, 79, 28
1, 596968, Note_on_c, 0, 79, 47
1, 596980, Control_c, 0, 64, 72
1, 596986, Poly_aftertouch_c, 0, 76, 24
1, 596996, Note_off_c, 0, 69, 38
1, 596996, Control_c, 0, 64, 78
1, 597002, Note_off_c, 0, 76, 50
1, 597016, Control_c, 0, 64, 85
1, 597033, Note_off_c, 0, 72, 54
1, 597033, Control_c, 0, 64, 96
1, 597053, Control_c, 0, 64, 112
1, 597072, Control_c, 0, 64, 127
1, 597243, Poly_aftertouch_c, 0, 78, 28
1, 597255, Note_on_c, 0, 78, 38
1, 597269, Note_off_c, 0, 79, 34
1, 597611, Poly_aftertouch_c, 0, 75, 28
1, 597620, Poly_aftertouch_c, 0, 71, 28
1, 597625, Note_on_c, 0, 75, 35
1, 597629, Note_on_c, 0, 71, 34
1, 597670, Control_c, 0, 64, 119
1, 597691, Control_c, 0, 64, 107
1, 597708, Control_c, 0, 64, 99
1, 597714, Note_off_c, 0, 78, 45
1, 597727, Control_c, 0, 64, 92
1, 597745, Control_c, 0, 64, 86
1, 597765, Control_c, 0, 64, 79
1, 597783, Control_c, 0, 64, 73
1, 597802, Control_c, 0, 64, 66
1, 597821, Control_c, 0, 64, 60
1, 597839, Control_c, 0, 64, 55
1, 597858, Control_c, 0, 64, 50
1, 597876, Control_c, 0, 64, 46
1, 597896, Control_c, 0, 64, 41
1, 597914, Control_c, 0, 64, 36
1, 597933, Control_c, 0, 64, 32
1, 597971, Control_c, 0, 64, 28
1, 598121, Control_c, 0, 64, 32
1, 598158, Control_c, 0, 64, 40
1, 598176, Control_c, 0, 64, 44
1, 598195, Control_c, 0, 64, 50
1, 598196, Control_c, 0, 67, 122
1, 598213, Control_c, 0, 64, 56
1, 598233, Control_c, 0, 64, 60
1, 598251, Control_c, 0, 64, 61
1, 598253, Control_c, 0, 67, 117
1, 598269, Control_c, 0, 64, 62
1, 598288, Control_c, 0, 67, 111
1, 598307, Control_c, 0, 64, 63
1, 598308, Control_c, 0, 67, 107
1, 598326, Control_c, 0, 64, 64
1, 598327, Control_c, 0, 67, 102
1, 598345, Control_c, 0, 64, 67
1, 598346, Control_c, 0, 67, 96
1, 598363, Control_c, 0, 64, 69
1, 598364, Control_c, 0, 67, 90
1, 598383, Control_c, 0, 67, 84
1, 598400, Control_c, 0, 64, 72
1, 598401, Control_c, 0, 67, 78
1, 598419, Control_c, 0, 67, 73
1, 598439, Control_c, 0, 64, 76
1, 598440, Control_c, 0, 67, 69
1, 598457, Control_c, 0, 64, 78
1, 598476, Control_c, 0, 64, 81
1, 598477, Control_c, 0, 67, 63
1, 598496, Control_c, 0, 64, 86
1, 598498, Control_c, 0, 67, 59
1, 598514, Control_c, 0, 64, 91
1, 598515, Control_c, 0, 67, 55
1, 598531, Control_c, 0, 64, 96
1, 598532, Control_c, 0, 67, 51
1, 598550, Control_c, 0, 64, 103
1, 598570, Control_c, 0, 64, 112
1, 598571, Control_c, 0, 67, 44
1, 598588, Control_c, 0, 64, 127
1, 598606, Control_c, 0, 67, 38
1, 598644, Control_c, 0, 67, 31
1, 598663, Control_c, 0, 67, 27
1, 598680, Control_c, 0, 67, 23
1, 598700, Control_c, 0, 67, 19
1, 598737, Control_c, 0, 67, 12
1, 598868, Control_c, 0, 67, 0
1, 598897, Note_off_c, 0, 75, 43
1, 599053, Poly_aftertouch_c, 0, 71, 24
1, 599131, Control_c, 0, 67, 8
1, 599220, Note_off_c, 0, 71, 33
1, 599262, Control_c, 0, 67, 12
1, 599318, Control_c, 0, 67, 17
1, 599374, Control_c, 0, 67, 21
1, 599430, Control_c, 0, 67, 25
1, 599467, Control_c, 0, 67, 31
1, 599505, Control_c, 0, 67, 36
1, 599542, Control_c, 0, 67, 40
1, 599559, Poly_aftertouch_c, 0, 83, 28
1, 599565, Note_on_c, 0, 83, 46
1, 599599, Control_c, 0, 67, 45
1, 599637, Control_c, 0, 67, 50
1, 599674, Control_c, 0, 67, 54
1, 599730, Control_c, 0, 67, 58
1, 600115, Poly_aftertouch_c, 0, 81, 28
1, 600116, Note_off_c, 0, 83, 56
1, 600119, Note_on_c, 0, 81, 58
1, 600510, Poly_aftertouch_c, 0, 76, 28
1, 600511, Note_off_c, 0, 81, 55
1, 600516, Note_on_c, 0, 76, 45
1, 600530, Poly_aftertouch_c, 0, 69, 28
1, 600530, Poly_aftertouch_c, 0, 72, 28
1, 600535, Note_on_c, 0, 69, 42
1, 600535, Note_on_c, 0, 72, 45
1, 600572, Control_c, 0, 64, 105
1, 600591, Control_c, 0, 64, 83
1, 600609, Control_c, 0, 64, 67
1, 600629, Control_c, 0, 64, 55
1, 600647, Control_c, 0, 64, 50
1, 600703, Control_c, 0, 64, 53
1, 600722, Control_c, 0, 64, 58
1, 600740, Control_c, 0, 64, 63
1, 600759, Control_c, 0, 64, 68
1, 600778, Control_c, 0, 64, 74
1, 600798, Control_c, 0, 64, 81
1, 600816, Control_c, 0, 64, 91
1, 600834, Control_c, 0, 64, 104
1, 600853, Control_c, 0, 64, 127
1, 600946, Poly_aftertouch_c, 0, 79, 28
1, 600951, Note_on_c, 0, 79, 58
1, 600988, Note_off_c, 0, 76, 37
1, 601025, Note_off_c, 0, 72, 37
1, 601048, Note_off_c, 0, 69, 34
1, 601269, Poly_aftertouch_c, 0, 78, 28
1, 601278, Note_on_c, 0, 78, 61
1, 601336, Note_off_c, 0, 79, 36
1, 601571, Note_off_c, 0, 78, 62
1, 601574, Poly_aftertouch_c, 0, 66, 28
1, 601575, Poly_aftertouch_c, 0, 69, 28
1, 601580, Note_on_c, 0, 69, 61
1, 601583, Note_on_c, 0, 66, 46
1, 601714, Control_c, 0, 64, 105
1, 601733, Control_c, 0, 64, 85
1, 601751, Control_c, 0, 64, 69
1, 601771, Control_c, 0, 64, 57
1, 601789, Control_c, 0, 64, 50
1, 601864, Control_c, 0, 64, 54
1, 601882, Control_c, 0, 64, 59
1, 601900, Poly_aftertouch_c, 0, 76, 28
1, 601901, Control_c, 0, 64, 64
1, 601903, Note_on_c, 0, 76, 62
1, 601921, Control_c, 0, 64, 69
1, 601939, Control_c, 0, 64, 73
1, 601939, Control_c, 0, 67, 54
1, 601957, Control_c, 0, 64, 79
1, 601976, Control_c, 0, 64, 87
1, 601995, Control_c, 0, 64, 100
1, 602013, Control_c, 0, 64, 127
1, 602112, Note_off_c, 0, 66, 36
1, 602156, Poly_aftertouch_c, 0, 74, 28
1, 602160, Note_on_c, 0, 74, 67
1, 602173, Note_off_c, 0, 69, 52
1, 602232, Note_off_c, 0, 76, 54
1, 602407, Poly_aftertouch_c, 0, 66, 28
1, 602415, Note_on_c, 0, 66, 68
1, 602416, Poly_aftertouch_c, 0, 63, 28
1, 602419, Note_off_c, 0, 74, 60
1, 602419, Note_on_c, 0, 63, 60
1, 602444, Control_c, 0, 64, 114
1, 602463, Control_c, 0, 64, 85
1, 602482, Control_c, 0, 64, 66
1, 602501, Control_c, 0, 64, 54
1, 602519, Control_c, 0, 64, 49
1, 602575, Control_c, 0, 64, 55
1, 602594, Control_c, 0, 64, 61
1, 602612, Control_c, 0, 64, 66
1, 602631, Control_c, 0, 64, 72
1, 602650, Control_c, 0, 64, 80
1, 602665, Poly_aftertouch_c, 0, 72, 28
1, 602669, Note_on_c, 0, 72, 66
1, 602669, Control_c, 0, 64, 91
1, 602687, Control_c, 0, 64, 108
1, 602706, Control_c, 0, 64, 127
1, 602770, Note_off_c, 0, 66, 60
1, 602798, Note_off_c, 0, 63, 62
1, 602897, Poly_aftertouch_c, 0, 71, 28
1, 602901, Note_on_c, 0, 71, 73
1, 602975, Note_off_c, 0, 72, 43
1, 603138, Poly_aftertouch_c, 0, 60, 28
1, 603138, Poly_aftertouch_c, 0, 64, 28
1, 603140, Note_on_c, 0, 60, 62
1, 603143, Note_on_c, 0, 64, 75
1, 603156, Control_c, 0, 64, 99
1, 603174, Control_c, 0, 64, 72
1, 603193, Control_c, 0, 64, 54
1, 603212, Control_c, 0, 64, 44
1, 603262, Note_off_c, 0, 71, 56
1, 603267, Control_c, 0, 64, 48
1, 603287, Control_c, 0, 64, 56
1, 603305, Control_c, 0, 64, 65
1, 603326, Control_c, 0, 64, 75
1, 603343, Control_c, 0, 64, 86
1, 603361, Control_c, 0, 64, 102
1, 603379, Control_c, 0, 64, 127
1, 603417, Poly_aftertouch_c, 0, 69, 28
1, 603422, Note_on_c, 0, 69, 73
1, 603631, Note_off_c, 0, 64, 46
1, 603686, Poly_aftertouch_c, 0, 67, 28
1, 603690, Note_on_c, 0, 67, 70
1, 603695, Note_off_c, 0, 60, 33
1, 603740, Note_off_c, 0, 69, 52
1, 603967, Poly_aftertouch_c, 0, 60, 28
1, 603972, Note_on_c, 0, 60, 63
1, 603972, Poly_aftertouch_c, 0, 57, 28
1, 603975, Note_on_c, 0, 57, 58
1, 604022, Note_off_c, 0, 67, 59
1, 604035, Control_c, 0, 64, 99
1, 604054, Control_c, 0, 64, 73
1, 604072, Control_c, 0, 64, 55
1, 604091, Control_c, 0, 64, 45
1, 604109, Control_c, 0, 64, 43
1, 604166, Control_c, 0, 64, 52
1, 604185, Control_c, 0, 64, 62
1, 604204, Control_c, 0, 64, 72
1, 604222, Control_c, 0, 64, 83
1, 604241, Control_c, 0, 64, 100
1, 604259, Control_c, 0, 64, 127
1, 604290, Poly_aftertouch_c, 0, 66, 28
1, 604295, Note_on_c, 0, 66, 64
1, 604372, Note_off_c, 0, 60, 58
1, 604473, Note_off_c, 0, 57, 54
1, 604601, Poly_aftertouch_c, 0, 64, 28
1, 604606, Note_on_c, 0, 64, 60
1, 604607, Note_off_c, 0, 66, 59
1, 604928, Poly_aftertouch_c, 0, 54, 28
1, 604933, Poly_aftertouch_c, 0, 57, 28
1, 604936, Note_on_c, 0, 54, 42
1, 604939, Note_on_c, 0, 57, 49
1, 605009, Control_c, 0, 64, 99
1, 605027, Control_c, 0, 64, 79
1, 605045, Control_c, 0, 64, 66
1, 605065, Control_c, 0, 64, 56
1, 605083, Control_c, 0, 64, 50
1, 605102, Control_c, 0, 64, 46
1, 605122, Control_c, 0, 64, 43
1, 605140, Control_c, 0, 64, 41
1, 605290, Control_c, 0, 64, 37
1, 605303, Poly_aftertouch_c, 0, 62, 28
1, 605307, Note_on_c, 0, 62, 55
1, 605341, Note_off_c, 0, 64, 53
1, 605589, Control_c, 0, 64, 40
1, 605608, Control_c, 0, 64, 45
1, 605625, Control_c, 0, 64, 51
1, 605645, Control_c, 0, 64, 58
1, 605663, Control_c, 0, 64, 62
1, 605683, Control_c, 0, 64, 64
1, 605700, Control_c, 0, 64, 65
1, 605738, Control_c, 0, 64, 67
1, 605749, Note_off_c, 0, 62, 61
1, 605755, Poly_aftertouch_c, 0, 60, 28
1, 605758, Note_on_c, 0, 60, 50
1, 605776, Control_c, 0, 64, 71
1, 605795, Control_c, 0, 64, 75
1, 605814, Control_c, 0, 64, 79
1, 605832, Control_c, 0, 64, 85
1, 605851, Control_c, 0, 64, 90
1, 605869, Control_c, 0, 64, 94
1, 605946, Note_off_c, 0, 54, 50
1, 606301, Poly_aftertouch_c, 0, 54, 28
1, 606315, Note_on_c, 0, 54, 34
1, 606318, Control_c, 0, 64, 89
1, 606338, Control_c, 0, 64, 86
1, 606344, Poly_aftertouch_c, 0, 51, 28
1, 606351, Note_on_c, 0, 51, 29
1, 606356, Control_c, 0, 64, 82
1, 606376, Control_c, 0, 64, 78
1, 606394, Control_c, 0, 64, 75
1, 606412, Control_c, 0, 64, 70
1, 606431, Control_c, 0, 64, 66
1, 606450, Control_c, 0, 64, 61
1, 606469, Control_c, 0, 64, 57
1, 606487, Control_c, 0, 64, 54
1, 606524, Control_c, 0, 64, 51
1, 606547, Note_off_c, 0, 57, 42
1, 606562, Control_c, 0, 64, 47
1, 606580, Control_c, 0, 64, 45
1, 606600, Control_c, 0, 64, 42
1, 606618, Control_c, 0, 64, 40
1, 606693, Control_c, 0, 64, 36
1, 606787, Control_c, 0, 64, 31
1, 607151, Poly_aftertouch_c, 0, 59, 28
1, 607156, Note_on_c, 0, 59, 35
1, 607242, Note_off_c, 0, 60, 50
1, 608384, Poly_aftertouch_c, 0, 55, 28
1, 608397, Note_on_c, 0, 55, 19
1, 608521, Note_off_c, 0, 54, 43
1, 609744, Control_c, 0, 64, 36
1, 609782, Control_c, 0, 64, 41
1, 609801, Control_c, 0, 64, 44
1, 609819, Control_c, 0, 64, 48
1, 609838, Control_c, 0, 64, 54
1, 609856, Control_c, 0, 64, 58
1, 609876, Control_c, 0, 64, 60
1, 609894, Control_c, 0, 64, 61
1, 609913, Control_c, 0, 64, 62
1, 609931, Control_c, 0, 64, 64
1, 609951, Control_c, 0, 64, 67
1, 609968, Control_c, 0, 64, 69
1, 609988, Control_c, 0, 64, 73
1, 610007, Control_c, 0, 64, 77
1, 610026, Control_c, 0, 64, 83
1, 610043, Control_c, 0, 64, 89
1, 610062, Control_c, 0, 64, 96
1, 610082, Control_c, 0, 64, 103
1, 610100, Control_c, 0, 64, 112
1, 610119, Control_c, 0, 64, 127
1, 610530, Note_off_c, 0, 59, 35
1, 610622, Note_off_c, 0, 51, 36
1, 610638, Note_off_c, 0, 55, 38
1, 611561, Control_c, 0, 67, 58
1, 611767, Control_c, 0, 64, 116
1, 611767, Control_c, 0, 67, 63
1, 611785, Control_c, 0, 64, 110
1, 611786, Control_c, 0, 67, 70
1, 611803, Control_c, 0, 64, 104
1, 611804, Control_c, 0, 67, 79
1, 611811, Poly_aftertouch_c, 0, 59, 28
1, 611814, Note_on_c, 0, 59, 33
1, 611822, Control_c, 0, 64, 98
1, 611823, Control_c, 0, 67, 84
1, 611840, Poly_aftertouch_c, 0, 56, 28
1, 611840, Control_c, 0, 64, 91
1, 611847, Note_on_c, 0, 56, 30
1, 611860, Control_c, 0, 64, 82
1, 611862, Control_c, 0, 67, 90
1, 611879, Control_c, 0, 64, 73
1, 611898, Control_c, 0, 64, 64
1, 611915, Control_c, 0, 64, 55
1, 611935, Control_c, 0, 64, 50
1, 611953, Control_c, 0, 64, 48
1, 611957, Note_off_c, 0, 56, 0
1, 611957, Poly_aftertouch_c, 0, 56, 28
1, 612028, Control_c, 0, 64, 54
1, 612047, Control_c, 0, 64, 59
1, 612065, Control_c, 0, 64, 64
1, 612085, Control_c, 0, 64, 69
1, 612103, Control_c, 0, 64, 76
1, 612122, Control_c, 0, 64, 84
1, 612140, Control_c, 0, 64, 95
1, 612161, Control_c, 0, 64, 113
1, 612177, Control_c, 0, 64, 127
1, 612215, Control_c, 0, 67, 86
1, 612240, Poly_aftertouch_c, 0, 52, 28
1, 612244, Note_on_c, 0, 52, 52
1, 612318, Poly_aftertouch_c, 0, 56, 24
1, 612348, Note_off_c, 0, 59, 59
1, 612352, Poly_aftertouch_c, 0, 56, 0
1, 612557, Poly_aftertouch_c, 0, 59, 28
1, 612560, Note_on_c, 0, 59, 60
1, 612561, Poly_aftertouch_c, 0, 56, 28
1, 612568, Note_on_c, 0, 56, 51
1, 613061, Poly_aftertouch_c, 0, 60, 28
1, 613067, Note_on_c, 0, 60, 64
1, 613069, Poly_aftertouch_c, 0, 40, 28
1, 613074, Note_on_c, 0, 40, 44
1, 613132, Control_c, 0, 64, 112
1, 613151, Control_c, 0, 64, 98
1, 613171, Control_c, 0, 64, 87
1, 613189, Control_c, 0, 64, 77
1, 613208, Control_c, 0, 64, 69
1, 613226, Control_c, 0, 64, 62
1, 613229, Note_off_c, 0, 59, 39
1, 613244, Control_c, 0, 64, 57
1, 613263, Control_c, 0, 64, 55
1, 613282, Control_c, 0, 64, 53
1, 613301, Control_c, 0, 64, 51
1, 613319, Control_c, 0, 64, 48
1, 613337, Control_c, 0, 64, 44
1, 613357, Control_c, 0, 64, 41
1, 613394, Control_c, 0, 64, 36
1, 613432, Control_c, 0, 64, 32
1, 613488, Control_c, 0, 64, 26
1, 613525, Control_c, 0, 64, 22
1, 613581, Control_c, 0, 64, 18
1, 613656, Control_c, 0, 64, 14
1, 613731, Control_c, 0, 64, 10
1, 614012, Control_c, 0, 64, 0
1, 614260, Poly_aftertouch_c, 0, 61, 28
1, 614268, Note_on_c, 0, 61, 43
1, 614375, Note_off_c, 0, 60, 55
1, 614705, Control_c, 0, 64, 8
1, 614723, Control_c, 0, 64, 15
1, 614743, Control_c, 0, 64, 23
1, 614761, Control_c, 0, 64, 34
1, 614780, Control_c, 0, 64, 51
1, 614798, Control_c, 0, 64, 64
1, 614816, Control_c, 0, 64, 69
1, 614836, Control_c, 0, 64, 71
1, 614873, Control_c, 0, 64, 74
1, 614891, Control_c, 0, 64, 78
1, 614911, Control_c, 0, 64, 87
1, 614929, Control_c, 0, 64, 102
1, 614948, Control_c, 0, 64, 127
1, 615023, Control_c, 0, 67, 82
1, 615094, Note_off_c, 0, 40, 40
1, 615547, Control_c, 0, 67, 78
1, 615603, Control_c, 0, 67, 74
1, 616525, Poly_aftertouch_c, 0, 80, 28
1, 616534, Note_on_c, 0, 80, 68
1, 616827, Note_off_c, 0, 61, 36
1, 616870, Poly_aftertouch_c, 0, 52, 24
1, 616965, Note_off_c, 0, 52, 30
1, 616969, Note_off_c, 0, 56, 40
1, 617007, Control_c, 0, 67, 69
1, 617026, Control_c, 0, 67, 63
1, 617045, Control_c, 0, 67, 58
1, 617081, Control_c, 0, 67, 52
1, 617280, Poly_aftertouch_c, 0, 76, 28
1, 617287, Note_on_c, 0, 76, 56
1, 617494, Control_c, 0, 67, 56
1, 617730, Poly_aftertouch_c, 0, 73, 28
1, 617737, Note_on_c, 0, 73, 58
1, 618025, Poly_aftertouch_c, 0, 52, 28
1, 618030, Note_on_c, 0, 52, 28
1, 618101, Poly_aftertouch_c, 0, 71, 28
1, 618107, Note_on_c, 0, 71, 54
1, 618111, Note_off_c, 0, 52, 0
1, 618111, Poly_aftertouch_c, 0, 52, 28
1, 618113, Note_off_c, 0, 76, 51
1, 618147, Note_off_c, 0, 73, 38
1, 618261, Note_off_c, 0, 71, 59
1, 618269, Poly_aftertouch_c, 0, 57, 28
1, 618276, Note_on_c, 0, 57, 37
1, 618637, Poly_aftertouch_c, 0, 73, 28
1, 618642, Note_on_c, 0, 73, 48
1, 618653, Poly_aftertouch_c, 0, 66, 28
1, 618654, Poly_aftertouch_c, 0, 69, 28
1, 618658, Note_on_c, 0, 69, 43
1, 618662, Note_on_c, 0, 66, 40
1, 618691, Control_c, 0, 64, 118
1, 618711, Control_c, 0, 64, 95
1, 618729, Control_c, 0, 64, 76
1, 618747, Control_c, 0, 64, 60
1, 618767, Control_c, 0, 64, 46
1, 618785, Control_c, 0, 64, 35
1, 618805, Control_c, 0, 64, 30
1, 618916, Control_c, 0, 64, 36
1, 618935, Control_c, 0, 64, 45
1, 618953, Control_c, 0, 64, 58
1, 618973, Control_c, 0, 64, 68
1, 618991, Control_c, 0, 64, 76
1, 619010, Control_c, 0, 64, 82
1, 619028, Control_c, 0, 64, 91
1, 619047, Control_c, 0, 64, 106
1, 619066, Control_c, 0, 64, 127
1, 619197, Poly_aftertouch_c, 0, 52, 24
1, 619216, Note_off_c, 0, 80, 49
1, 619310, Control_c, 0, 67, 52
1, 619328, Poly_aftertouch_c, 0, 52, 0
1, 619440, Note_off_c, 0, 66, 34
1, 619674, Note_off_c, 0, 57, 30
1, 619868, Poly_aftertouch_c, 0, 78, 28
1, 619875, Note_on_c, 0, 78, 67
1, 620101, Note_off_c, 0, 73, 55
1, 620373, Poly_aftertouch_c, 0, 73, 28
1, 620376, Note_on_c, 0, 73, 70
1, 620499, Note_off_c, 0, 69, 40
1, 620726, Poly_aftertouch_c, 0, 69, 28
1, 620730, Note_on_c, 0, 69, 74
1, 620881, Note_off_c, 0, 73, 51
1, 620932, Poly_aftertouch_c, 0, 52, 28
1, 620937, Note_on_c, 0, 52, 44
1, 621044, Poly_aftertouch_c, 0, 68, 28
1, 621052, Note_on_c, 0, 68, 75
1, 621080, Note_off_c, 0, 69, 55
1, 621165, Poly_aftertouch_c, 0, 54, 28
1, 621172, Note_off_c, 0, 68, 51
1, 621172, Note_on_c, 0, 54, 52
1, 621571, Poly_aftertouch_c, 0, 69, 28
1, 621575, Note_on_c, 0, 69, 66
1, 621592, Poly_aftertouch_c, 0, 66, 28
1, 621596, Note_on_c, 0, 66, 53
1, 621597, Poly_aftertouch_c, 0, 63, 28
1, 621606, Note_on_c, 0, 63, 42
1, 621610, Control_c, 0, 64, 111
1, 621631, Control_c, 0, 64, 95
1, 621649, Control_c, 0, 64, 79
1, 621668, Control_c, 0, 64, 65
1, 621687, Control_c, 0, 64, 52
1, 621705, Control_c, 0, 64, 40
1, 621726, Control_c, 0, 64, 27
1, 621742, Control_c, 0, 64, 19
1, 621762, Control_c, 0, 64, 14
1, 621800, Control_c, 0, 64, 9
1, 621930, Control_c, 0, 64, 18
1, 621949, Control_c, 0, 64, 27
1, 621967, Control_c, 0, 64, 39
1, 621987, Control_c, 0, 64, 56
1, 622005, Note_off_c, 0, 78, 59
1, 622005, Control_c, 0, 64, 71
1, 622024, Control_c, 0, 64, 82
1, 622042, Control_c, 0, 64, 90
1, 622061, Control_c, 0, 64, 94
1, 622099, Control_c, 0, 64, 103
1, 622117, Control_c, 0, 64, 119
1, 622136, Control_c, 0, 64, 127
1, 622212, Control_c, 0, 67, 47
1, 622229, Control_c, 0, 67, 38
1, 622249, Control_c, 0, 67, 31
1, 622267, Control_c, 0, 67, 25
1, 622286, Control_c, 0, 67, 21
1, 622360, Control_c, 0, 67, 17
1, 622422, Poly_aftertouch_c, 0, 59, 28
1, 622423, Poly_aftertouch_c, 0, 59, 0
1, 622489, Note_off_c, 0, 63, 30
1, 622746, Poly_aftertouch_c, 0, 73, 28
1, 622754, Note_on_c, 0, 73, 64
1, 622935, Note_off_c, 0, 69, 57
1, 623154, Note_off_c, 0, 52, 34
1, 623210, Poly_aftertouch_c, 0, 71, 28
1, 623217, Note_on_c, 0, 71, 71
1, 623307, Note_off_c, 0, 73, 39
1, 623310, Note_off_c, 0, 54, 53
1, 623398, Note_off_c, 0, 71, 61
1, 623864, Poly_aftertouch_c, 0, 69, 28
1, 623870, Note_on_c, 0, 69, 66
1, 623951, Control_c, 0, 67, 21
1, 624082, Control_c, 0, 67, 25
1, 624157, Control_c, 0, 67, 29
1, 624214, Control_c, 0, 67, 35
1, 624252, Control_c, 0, 67, 42
1, 624270, Control_c, 0, 67, 47
1, 624289, Control_c, 0, 67, 56
1, 624307, Control_c, 0, 67, 67
1, 624326, Control_c, 0, 67, 76
1, 624345, Control_c, 0, 67, 84
1, 624363, Control_c, 0, 67, 90
1, 624382, Control_c, 0, 67, 96
1, 624390, Poly_aftertouch_c, 0, 40, 28
1, 624399, Note_on_c, 0, 40, 35
1, 624401, Control_c, 0, 67, 102
1, 624419, Control_c, 0, 64, 119
1, 624420, Control_c, 0, 67, 108
1, 624439, Control_c, 0, 64, 95
1, 624440, Control_c, 0, 67, 114
1, 624458, Control_c, 0, 64, 76
1, 624461, Control_c, 0, 67, 120
1, 624476, Control_c, 0, 64, 61
1, 624477, Control_c, 0, 67, 125
1, 624494, Control_c, 0, 64, 52
1, 624513, Control_c, 0, 64, 50
1, 624551, Control_c, 0, 64, 52
1, 624569, Control_c, 0, 64, 57
1, 624571, Poly_aftertouch_c, 0, 64, 28
1, 624579, Note_on_c, 0, 64, 45
1, 624587, Control_c, 0, 64, 62
1, 624608, Control_c, 0, 64, 68
1, 624624, Control_c, 0, 64, 74
1, 624644, Control_c, 0, 64, 82
1, 624663, Control_c, 0, 64, 92
1, 624665, Note_off_c, 0, 66, 38
1, 624682, Control_c, 0, 64, 103
1, 624700, Control_c, 0, 64, 122
1, 624719, Control_c, 0, 64, 127
1, 624762, Poly_aftertouch_c, 0, 47, 28
1, 624772, Note_on_c, 0, 47, 39
1, 624981, Control_c, 0, 64, 114
1, 625001, Control_c, 0, 64, 93
1, 625011, Note_off_c, 0, 64, 55
1, 625017, Poly_aftertouch_c, 0, 63, 28
1, 625018, Control_c, 0, 64, 76
1, 625021, Note_on_c, 0, 63, 50
1, 625035, Poly_aftertouch_c, 0, 54, 28
1, 625037, Control_c, 0, 64, 62
1, 625046, Note_on_c, 0, 54, 34
1, 625054, Control_c, 0, 64, 51
1, 625075, Control_c, 0, 64, 44
1, 625093, Control_c, 0, 64, 42
1, 625149, Control_c, 0, 64, 47
1, 625169, Control_c, 0, 64, 57
1, 625171, Poly_aftertouch_c, 0, 40, 24
1, 625187, Control_c, 0, 64, 68
1, 625206, Control_c, 0, 64, 80
1, 625221, Note_off_c, 0, 40, 37
1, 625224, Control_c, 0, 64, 99
1, 625243, Control_c, 0, 64, 127
1, 625260, Poly_aftertouch_c, 0, 47, 24
1, 625306, Note_off_c, 0, 47, 39
1, 625399, Poly_aftertouch_c, 0, 61, 28
1, 625400, Note_off_c, 0, 63, 54
1, 625403, Note_on_c, 0, 61, 50
1, 625422, Note_off_c, 0, 54, 42
1, 626048, Poly_aftertouch_c, 0, 59, 28
1, 626050, Note_on_c, 0, 59, 52
1, 626058, Poly_aftertouch_c, 0, 68, 28
1, 626067, Note_on_c, 0, 68, 46
1, 626067, Control_c, 0, 64, 118
1, 626085, Control_c, 0, 64, 95
1, 626104, Control_c, 0, 64, 74
1, 626123, Control_c, 0, 64, 56
1, 626128, Note_off_c, 0, 69, 30
1, 626142, Control_c, 0, 64, 40
1, 626146, Note_off_c, 0, 61, 34
1, 626160, Control_c, 0, 64, 32
1, 626234, Control_c, 0, 64, 38
1, 626254, Control_c, 0, 64, 50
1, 626272, Control_c, 0, 64, 65
1, 626291, Control_c, 0, 64, 78
1, 626310, Control_c, 0, 64, 92
1, 626330, Control_c, 0, 64, 110
1, 626348, Control_c, 0, 64, 127
1, 626404, Poly_aftertouch_c, 0, 52, 28
1, 626408, Note_on_c, 0, 52, 53
1, 626469, Note_off_c, 0, 68, 55
1, 626484, Note_off_c, 0, 59, 54
1, 626641, Poly_aftertouch_c, 0, 59, 28
1, 626642, Note_on_c, 0, 59, 67
1, 626654, Poly_aftertouch_c, 0, 56, 28
1, 626661, Note_on_c, 0, 56, 58
1, 627037, Poly_aftertouch_c, 0, 60, 28
1, 627043, Note_on_c, 0, 60, 66
1, 627068, Poly_aftertouch_c, 0, 40, 28
1, 627076, Note_on_c, 0, 40, 44
1, 627115, Control_c, 0, 64, 112
1, 627134, Control_c, 0, 64, 100
1, 627153, Control_c, 0, 64, 90
1, 627155, Control_c, 0, 67, 121
1, 627171, Control_c, 0, 64, 81
1, 627191, Control_c, 0, 64, 73
1, 627209, Control_c, 0, 64, 67
1, 627220, Note_off_c, 0, 59, 52
1, 627226, Control_c, 0, 64, 62
1, 627245, Control_c, 0, 64, 58
1, 627265, Control_c, 0, 64, 55
1, 627283, Control_c, 0, 64, 52
1, 627302, Control_c, 0, 64, 49
1, 627320, Control_c, 0, 64, 46
1, 627321, Control_c, 0, 67, 117
1, 627340, Control_c, 0, 64, 43
1, 627358, Control_c, 0, 64, 40
1, 627377, Control_c, 0, 67, 111
1, 627396, Control_c, 0, 64, 34
1, 627415, Control_c, 0, 67, 106
1, 627452, Control_c, 0, 64, 30
1, 627454, Control_c, 0, 67, 99
1, 627472, Control_c, 0, 67, 95
1, 627490, Control_c, 0, 64, 25
1, 627491, Control_c, 0, 67, 91
1, 627508, Control_c, 0, 67, 86
1, 627529, Control_c, 0, 64, 18
1, 627531, Control_c, 0, 67, 82
1, 627564, Control_c, 0, 64, 10
1, 627565, Control_c, 0, 67, 77
1, 627638, Control_c, 0, 64, 0
1, 628151, Poly_aftertouch_c, 0, 61, 28
1, 628159, Note_on_c, 0, 61, 47
1, 628275, Note_off_c, 0, 60, 52
1, 628576, Control_c, 0, 64, 9
1, 628594, Control_c, 0, 64, 13
1, 628613, Control_c, 0, 64, 19
1, 628632, Control_c, 0, 64, 30
1, 628650, Control_c, 0, 64, 47
1, 628669, Control_c, 0, 64, 64
1, 628688, Control_c, 0, 64, 72
1, 628706, Control_c, 0, 64, 78
1, 628725, Control_c, 0, 64, 85
1, 628743, Control_c, 0, 64, 94
1, 628762, Control_c, 0, 64, 105
1, 628780, Control_c, 0, 64, 127
1, 628819, Note_off_c, 0, 40, 36
1, 628855, Control_c, 0, 67, 72
1, 628893, Control_c, 0, 67, 65
1, 628931, Control_c, 0, 67, 60
1, 628987, Control_c, 0, 67, 56
1, 629062, Control_c, 0, 67, 52
1, 629118, Control_c, 0, 67, 47
1, 629174, Control_c, 0, 67, 42
1, 629687, Poly_aftertouch_c, 0, 52, 22
1, 629711, Note_off_c, 0, 52, 26
1, 629965, Poly_aftertouch_c, 0, 80, 28
1, 629973, Note_on_c, 0, 80, 65
1, 629994, Note_off_c, 0, 61, 32
1, 629997, Control_c, 0, 67, 46
1, 630014, Note_off_c, 0, 56, 29
1, 630335, Control_c, 0, 67, 50
1, 630502, Control_c, 0, 67, 55
1, 630540, Control_c, 0, 67, 60
1, 630578, Control_c, 0, 67, 64
1, 630615, Control_c, 0, 67, 71
1, 630634, Control_c, 0, 67, 77
1, 630652, Control_c, 0, 67, 84
1, 630672, Control_c, 0, 67, 92
1, 630690, Control_c, 0, 67, 100
1, 630709, Control_c, 0, 67, 108
1, 630727, Control_c, 0, 67, 117
1, 630747, Control_c, 0, 67, 126
1, 630898, Poly_aftertouch_c, 0, 76, 28
1, 630907, Note_on_c, 0, 76, 35
1, 631277, Poly_aftertouch_c, 0, 73, 28
1, 631283, Note_on_c, 0, 73, 46
1, 631318, Poly_aftertouch_c, 0, 76, 24
1, 631406, Note_off_c, 0, 76, 31
1, 631465, Poly_aftertouch_c, 0, 49, 28
1, 631469, Note_on_c, 0, 49, 37
1, 631584, Poly_aftertouch_c, 0, 71, 28
1, 631588, Note_on_c, 0, 71, 44
1, 631593, Note_off_c, 0, 73, 39
1, 631732, Poly_aftertouch_c, 0, 56, 28
1, 631740, Note_on_c, 0, 56, 34
1, 632017, Poly_aftertouch_c, 0, 64, 28
1, 632025, Note_on_c, 0, 64, 29
1, 632060, Poly_aftertouch_c, 0, 71, 24
1, 632076, Control_c, 0, 64, 114
1, 632094, Control_c, 0, 64, 97
1, 632107, Poly_aftertouch_c, 0, 70, 28
1, 632112, Control_c, 0, 64, 79
1, 632121, Note_on_c, 0, 70, 41
1, 632126, Note_off_c, 0, 71, 35
1, 632131, Control_c, 0, 64, 62
1, 632151, Control_c, 0, 64, 47
1, 632169, Control_c, 0, 64, 34
1, 632188, Control_c, 0, 64, 27
1, 632301, Control_c, 0, 64, 34
1, 632318, Control_c, 0, 64, 44
1, 632338, Control_c, 0, 64, 58
1, 632356, Control_c, 0, 64, 69
1, 632374, Control_c, 0, 64, 77
1, 632395, Control_c, 0, 64, 86
1, 632412, Control_c, 0, 64, 100
1, 632432, Control_c, 0, 64, 127
1, 632719, Poly_aftertouch_c, 0, 78, 28
1, 632727, Note_on_c, 0, 78, 57
1, 632814, Note_off_c, 0, 80, 42
1, 632919, Note_off_c, 0, 78, 54
1, 633031, Control_c, 0, 67, 122
1, 633067, Control_c, 0, 67, 117
1, 633105, Control_c, 0, 67, 113
1, 633466, Poly_aftertouch_c, 0, 76, 28
1, 633471, Note_on_c, 0, 76, 57
1, 633517, Control_c, 0, 64, 118
1, 633535, Control_c, 0, 64, 95
1, 633555, Control_c, 0, 64, 76
1, 633573, Control_c, 0, 64, 60
1, 633592, Control_c, 0, 64, 48
1, 633610, Control_c, 0, 64, 42
1, 633667, Control_c, 0, 64, 44
1, 633685, Control_c, 0, 64, 52
1, 633705, Control_c, 0, 64, 61
1, 633722, Control_c, 0, 64, 70
1, 633742, Control_c, 0, 64, 80
1, 633760, Control_c, 0, 64, 98
1, 633778, Control_c, 0, 64, 127
1, 633818, Poly_aftertouch_c, 0, 64, 24
1, 633844, Poly_aftertouch_c, 0, 49, 24
1, 633898, Note_off_c, 0, 49, 36
1, 633908, Note_off_c, 0, 64, 32
1, 633912, Note_off_c, 0, 70, 36
1, 633985, Note_off_c, 0, 56, 39
1, 634123, Poly_aftertouch_c, 0, 73, 28
1, 634132, Note_on_c, 0, 73, 37
1, 634485, Poly_aftertouch_c, 0, 70, 28
1, 634495, Note_on_c, 0, 70, 37
1, 634685, Poly_aftertouch_c, 0, 51, 28
1, 634693, Note_on_c, 0, 51, 35
1, 634811, Poly_aftertouch_c, 0, 73, 24
1, 634819, Poly_aftertouch_c, 0, 68, 28
1, 634831, Note_on_c, 0, 68, 38
1, 634875, Note_off_c, 0, 73, 33
1, 634900, Note_off_c, 0, 70, 42
1, 634940, Poly_aftertouch_c, 0, 58, 28
1, 634953, Note_on_c, 0, 58, 36
1, 635425, Poly_aftertouch_c, 0, 67, 28
1, 635426, Control_c, 0, 64, 111
1, 635431, Note_on_c, 0, 67, 42
1, 635434, Poly_aftertouch_c, 0, 61, 28
1, 635445, Note_on_c, 0, 61, 33
1, 635445, Control_c, 0, 64, 101
1, 635463, Control_c, 0, 64, 91
1, 635483, Control_c, 0, 64, 78
1, 635502, Control_c, 0, 64, 66
1, 635519, Control_c, 0, 64, 53
1, 635534, Note_off_c, 0, 68, 43
1, 635538, Control_c, 0, 64, 40
1, 635557, Control_c, 0, 64, 29
1, 635577, Control_c, 0, 64, 24
1, 635727, Control_c, 0, 64, 31
1, 635744, Control_c, 0, 64, 38
1, 635764, Control_c, 0, 64, 49
1, 635782, Control_c, 0, 64, 61
1, 635801, Control_c, 0, 64, 68
1, 635819, Control_c, 0, 64, 71
1, 635838, Control_c, 0, 64, 74
1, 635856, Control_c, 0, 64, 78
1, 635875, Control_c, 0, 64, 83
1, 635895, Control_c, 0, 64, 90
1, 635913, Control_c, 0, 64, 100
1, 635931, Control_c, 0, 64, 116
1, 635950, Control_c, 0, 64, 127
1, 636228, Poly_aftertouch_c, 0, 75, 28
1, 636231, Control_c, 0, 64, 116
1, 636239, Note_on_c, 0, 75, 44
1, 636250, Control_c, 0, 64, 104
1, 636268, Control_c, 0, 64, 93
1, 636287, Control_c, 0, 64, 80
1, 636306, Control_c, 0, 64, 67
1, 636318, Note_off_c, 0, 76, 46
1, 636324, Control_c, 0, 64, 54
1, 636343, Control_c, 0, 64, 45
1, 636362, Control_c, 0, 64, 40
1, 636439, Control_c, 0, 64, 42
1, 636455, Control_c, 0, 64, 49
1, 636473, Control_c, 0, 64, 58
1, 636493, Control_c, 0, 64, 66
1, 636511, Control_c, 0, 64, 72
1, 636530, Control_c, 0, 64, 80
1, 636549, Control_c, 0, 64, 91
1, 636568, Control_c, 0, 64, 107
1, 636586, Control_c, 0, 64, 127
1, 636699, Control_c, 0, 67, 109
1, 636734, Note_off_c, 0, 67, 33
1, 636736, Control_c, 0, 67, 103
1, 636755, Control_c, 0, 67, 94
1, 636774, Control_c, 0, 67, 84
1, 636792, Control_c, 0, 67, 74
1, 636810, Control_c, 0, 67, 65
1, 636830, Control_c, 0, 67, 59
1, 636849, Control_c, 0, 67, 54
1, 636893, Note_off_c, 0, 75, 38
1, 637039, Note_off_c, 0, 61, 34
1, 637250, Note_off_c, 0, 51, 26
1, 637377, Poly_aftertouch_c, 0, 73, 28
1, 637382, Poly_aftertouch_c, 0, 70, 28
1, 637391, Note_on_c, 0, 70, 59
1, 637395, Note_on_c, 0, 73, 15
1, 637557, Note_off_c, 0, 58, 39
1, 637652, Poly_aftertouch_c, 0, 73, 24
1, 637698, Note_off_c, 0, 73, 34
1, 637833, Note_off_c, 0, 70, 57
1, 638172, Poly_aftertouch_c, 0, 71, 28
1, 638177, Note_on_c, 0, 71, 70
1, 638209, Poly_aftertouch_c, 0, 68, 28
1, 638219, Note_on_c, 0, 68, 41
1, 638284, Note_off_c, 0, 68, 46
1, 638543, Note_off_c, 0, 71, 55
1, 638619, Poly_aftertouch_c, 0, 34, 28
1, 638626, Note_on_c, 0, 34, 39
1, 638721, Control_c, 0, 64, 88
1, 638722, Poly_aftertouch_c, 0, 73, 28
1, 638724, Note_on_c, 0, 73, 81
1, 638740, Control_c, 0, 64, 65
1, 638757, Control_c, 0, 64, 48
1, 638760, Poly_aftertouch_c, 0, 64, 28
1, 638764, Note_on_c, 0, 64, 52
1, 638778, Control_c, 0, 64, 39
1, 638833, Control_c, 0, 64, 47
1, 638852, Control_c, 0, 64, 57
1, 638870, Control_c, 0, 64, 67
1, 638888, Note_off_c, 0, 64, 60
1, 638888, Control_c, 0, 64, 77
1, 638908, Control_c, 0, 64, 92
1, 638926, Control_c, 0, 64, 127
1, 638979, Note_off_c, 0, 34, 53
1, 638997, Poly_aftertouch_c, 0, 44, 28
1, 639002, Note_on_c, 0, 44, 41
1, 639116, Poly_aftertouch_c, 0, 75, 28
1, 639118, Note_on_c, 0, 75, 83
1, 639133, Poly_aftertouch_c, 0, 63, 28
1, 639139, Note_off_c, 0, 44, 46
1, 639139, Note_on_c, 0, 63, 57
1, 639174, Note_off_c, 0, 63, 57
1, 639178, Note_off_c, 0, 73, 55
1, 639283, Poly_aftertouch_c, 0, 52, 28
1, 639292, Note_on_c, 0, 52, 33
1, 639368, Note_off_c, 0, 52, 37
1, 639555, Poly_aftertouch_c, 0, 46, 28
1, 639563, Note_on_c, 0, 46, 44
1, 639732, Poly_aftertouch_c, 0, 76, 28
1, 639736, Note_on_c, 0, 76, 72
1, 639767, Poly_aftertouch_c, 0, 61, 28
1, 639768, Control_c, 0, 64, 92
1, 639773, Note_on_c, 0, 61, 49
1, 639774, Note_off_c, 0, 75, 63
1, 639788, Control_c, 0, 64, 68
1, 639805, Control_c, 0, 64, 45
1, 639825, Control_c, 0, 64, 21
1, 639844, Control_c, 0, 64, 8
1, 639956, Control_c, 0, 64, 20
1, 639976, Control_c, 0, 64, 32
1, 639994, Control_c, 0, 64, 50
1, 640011, Control_c, 0, 64, 70
1, 640031, Control_c, 0, 64, 85
1, 640050, Control_c, 0, 64, 108
1, 640067, Control_c, 0, 64, 127
1, 640097, Note_off_c, 0, 61, 54
1, 640194, Poly_aftertouch_c, 0, 56, 28
1, 640201, Note_on_c, 0, 56, 35
1, 640227, Note_off_c, 0, 46, 37
1, 640277, Note_off_c, 0, 56, 53
1, 640324, Poly_aftertouch_c, 0, 71, 28
1, 640330, Note_on_c, 0, 71, 58
1, 640447, Note_off_c, 0, 76, 50
1, 640491, Poly_aftertouch_c, 0, 64, 28
1, 640494, Note_on_c, 0, 64, 45
1, 640663, Poly_aftertouch_c, 0, 70, 28
1, 640671, Note_off_c, 0, 71, 59
1, 640671, Note_on_c, 0, 70, 71
1, 640686, Poly_aftertouch_c, 0, 61, 28
1, 640692, Note_on_c, 0, 61, 53
1, 640728, Note_off_c, 0, 64, 32
1, 640778, Note_off_c, 0, 61, 52
1, 640964, Poly_aftertouch_c, 0, 73, 28
1, 640966, Note_on_c, 0, 73, 85
1, 640981, Note_off_c, 0, 70, 62
1, 640981, Poly_aftertouch_c, 0, 68, 28
1, 640989, Note_on_c, 0, 68, 57
1, 641269, Poly_aftertouch_c, 0, 68, 24
1, 641293, Note_off_c, 0, 68, 42
1, 641310, Poly_aftertouch_c, 0, 37, 28
1, 641323, Note_on_c, 0, 37, 46
1, 641416, Control_c, 0, 64, 97
1, 641417, Control_c, 0, 67, 58
1, 641435, Control_c, 0, 64, 77
1, 641454, Control_c, 0, 64, 58
1, 641458, Poly_aftertouch_c, 0, 71, 28
1, 641464, Note_on_c, 0, 71, 71
1, 641472, Control_c, 0, 64, 37
1, 641491, Control_c, 0, 64, 19
1, 641509, Control_c, 0, 64, 11
1, 641537, Note_off_c, 0, 73, 47
1, 641547, Control_c, 0, 67, 63
1, 641584, Control_c, 0, 67, 69
1, 641603, Control_c, 0, 67, 73
1, 641621, Control_c, 0, 67, 78
1, 641641, Control_c, 0, 64, 17
1, 641642, Control_c, 0, 67, 83
1, 641660, Control_c, 0, 64, 23
1, 641661, Control_c, 0, 67, 90
1, 641677, Control_c, 0, 64, 29
1, 641678, Control_c, 0, 67, 97
1, 641697, Control_c, 0, 64, 36
1, 641698, Control_c, 0, 67, 105
1, 641716, Control_c, 0, 64, 45
1, 641717, Control_c, 0, 67, 112
1, 641734, Control_c, 0, 64, 57
1, 641734, Control_c, 0, 67, 117
1, 641740, Poly_aftertouch_c, 0, 44, 28
1, 641747, Note_on_c, 0, 44, 34
1, 641752, Control_c, 0, 64, 64
1, 641773, Control_c, 0, 64, 68
1, 641774, Control_c, 0, 67, 122
1, 641809, Control_c, 0, 64, 72
1, 641828, Control_c, 0, 64, 78
1, 641847, Control_c, 0, 64, 93
1, 641860, Poly_aftertouch_c, 0, 70, 28
1, 641865, Note_off_c, 0, 71, 56
1, 641865, Control_c, 0, 64, 127
1, 641868, Note_on_c, 0, 70, 63
1, 641869, Note_off_c, 0, 37, 47
1, 641876, Poly_aftertouch_c, 0, 68, 28
1, 641884, Note_on_c, 0, 68, 44
1, 641966, Note_off_c, 0, 44, 40
1, 641968, Note_off_c, 0, 70, 62
1, 642014, Poly_aftertouch_c, 0, 52, 28
1, 642019, Note_on_c, 0, 52, 45
1, 642085, Note_off_c, 0, 52, 57
1, 642127, Control_c, 0, 67, 118
1, 642229, Poly_aftertouch_c, 0, 66, 28
1, 642237, Note_on_c, 0, 66, 55
1, 642281, Note_off_c, 0, 68, 40
1, 642417, Poly_aftertouch_c, 0, 49, 28
1, 642422, Note_on_c, 0, 49, 40
1, 642464, Control_c, 0, 64, 93
1, 642483, Control_c, 0, 64, 70
1, 642502, Control_c, 0, 64, 53
1, 642520, Control_c, 0, 64, 41
1, 642576, Control_c, 0, 64, 43
1, 642582, Note_off_c, 0, 66, 61
1, 642590, Poly_aftertouch_c, 0, 64, 28
1, 642594, Note_on_c, 0, 64, 69
1, 642595, Control_c, 0, 64, 52
1, 642609, Poly_aftertouch_c, 0, 73, 28
1, 642612, Control_c, 0, 64, 62
1, 642615, Note_on_c, 0, 73, 48
1, 642633, Control_c, 0, 64, 70
1, 642651, Control_c, 0, 64, 78
1, 642670, Control_c, 0, 64, 88
1, 642689, Control_c, 0, 64, 99
1, 642708, Control_c, 0, 64, 111
1, 642728, Control_c, 0, 64, 127
1, 642770, Poly_aftertouch_c, 0, 56, 28
1, 642777, Note_on_c, 0, 56, 45
1, 643044, Control_c, 0, 64, 109
1, 643063, Control_c, 0, 64, 83
1, 643081, Control_c, 0, 64, 64
1, 643090, Poly_aftertouch_c, 0, 61, 28
1, 643092, Poly_aftertouch_c, 0, 71, 28
1, 643098, Note_on_c, 0, 71, 50
1, 643100, Note_on_c, 0, 61, 40
1, 643100, Control_c, 0, 64, 49
1, 643108, Note_off_c, 0, 73, 48
1, 643120, Control_c, 0, 64, 44
1, 643157, Control_c, 0, 64, 50
1, 643175, Control_c, 0, 64, 59
1, 643195, Control_c, 0, 64, 67
1, 643212, Control_c, 0, 64, 76
1, 643215, Note_off_c, 0, 64, 50
1, 643232, Control_c, 0, 64, 89
1, 643252, Control_c, 0, 64, 108
1, 643270, Control_c, 0, 64, 127
1, 643343, Note_off_c, 0, 61, 45
1, 643456, Note_off_c, 0, 56, 51
1, 643568, Control_c, 0, 67, 114
1, 643581, Note_off_c, 0, 49, 42
1, 643738, Poly_aftertouch_c, 0, 64, 28
1, 643741, Note_on_c, 0, 64, 72
1, 643744, Poly_aftertouch_c, 0, 70, 28
1, 643755, Note_on_c, 0, 70, 45
1, 643853, Note_off_c, 0, 71, 26
1, 643925, Note_off_c, 0, 70, 52
1, 644222, Poly_aftertouch_c, 0, 39, 28
1, 644231, Note_on_c, 0, 39, 39
1, 644355, Control_c, 0, 64, 109
1, 644368, Poly_aftertouch_c, 0, 63, 28
1, 644373, Note_on_c, 0, 63, 70
1, 644374, Control_c, 0, 64, 91
1, 644393, Control_c, 0, 64, 72
1, 644411, Control_c, 0, 64, 54
1, 644429, Control_c, 0, 64, 36
1, 644439, Note_off_c, 0, 64, 49
1, 644447, Control_c, 0, 64, 23
1, 644467, Control_c, 0, 64, 19
1, 644560, Control_c, 0, 64, 30
1, 644580, Control_c, 0, 64, 44
1, 644598, Control_c, 0, 64, 64
1, 644616, Control_c, 0, 64, 79
1, 644635, Control_c, 0, 64, 101
1, 644654, Control_c, 0, 64, 127
1, 644775, Note_off_c, 0, 63, 59
1, 644900, Poly_aftertouch_c, 0, 46, 28
1, 644914, Note_on_c, 0, 46, 31
1, 644944, Note_off_c, 0, 39, 41
1, 645095, Poly_aftertouch_c, 0, 61, 28
1, 645098, Note_on_c, 0, 61, 66
1, 645206, Note_off_c, 0, 61, 61
1, 645290, Poly_aftertouch_c, 0, 76, 28
1, 645294, Note_off_c, 0, 46, 38
1, 645295, Note_on_c, 0, 76, 72
1, 645462, Poly_aftertouch_c, 0, 55, 28
1, 645469, Note_on_c, 0, 55, 44
1, 645535, Note_off_c, 0, 55, 42
1, 645686, Poly_aftertouch_c, 0, 51, 28
1, 645692, Note_on_c, 0, 51, 50
1, 645758, Control_c, 0, 64, 113
1, 645776, Poly_aftertouch_c, 0, 75, 28
1, 645776, Control_c, 0, 64, 82
1, 645785, Note_on_c, 0, 75, 74
1, 645791, Poly_aftertouch_c, 0, 63, 28
1, 645794, Note_on_c, 0, 63, 60
1, 645795, Control_c, 0, 64, 61
1, 645815, Control_c, 0, 64, 44
1, 645834, Control_c, 0, 64, 40
1, 645856, Note_off_c, 0, 76, 60
1, 645872, Control_c, 0, 64, 47
1, 645889, Control_c, 0, 64, 58
1, 645909, Control_c, 0, 64, 69
1, 645927, Control_c, 0, 64, 81
1, 645946, Control_c, 0, 64, 101
1, 645964, Control_c, 0, 64, 127
1, 646032, Note_off_c, 0, 63, 46
1, 646036, Poly_aftertouch_c, 0, 58, 28
1, 646042, Note_on_c, 0, 58, 55
1, 646058, Note_off_c, 0, 51, 58
1, 646151, Control_c, 0, 64, 108
1, 646155, Poly_aftertouch_c, 0, 73, 28
1, 646160, Poly_aftertouch_c, 0, 64, 28
1, 646161, Note_on_c, 0, 73, 81
1, 646164, Note_on_c, 0, 64, 79
1, 646170, Control_c, 0, 64, 81
1, 646177, Note_off_c, 0, 75, 58
1, 646190, Control_c, 0, 64, 65
1, 646208, Control_c, 0, 64, 62
1, 646226, Control_c, 0, 64, 65
1, 646245, Control_c, 0, 64, 72
1, 646264, Control_c, 0, 64, 83
1, 646283, Control_c, 0, 64, 109
1, 646301, Control_c, 0, 64, 127
1, 646331, Note_off_c, 0, 73, 61
1, 646366, Poly_aftertouch_c, 0, 67, 28
1, 646372, Note_on_c, 0, 67, 48
1, 646561, Note_off_c, 0, 67, 55
1, 646685, Poly_aftertouch_c, 0, 70, 28
1, 646689, Note_on_c, 0, 70, 73
1, 646691, Poly_aftertouch_c, 0, 63, 28
1, 646694, Note_on_c, 0, 63, 70
1, 646702, Note_off_c, 0, 64, 61
1, 646702, Poly_aftertouch_c, 0, 61, 28
1, 646705, Note_on_c, 0, 61, 62
1, 646713, Control_c, 0, 64, 82
1, 646733, Control_c, 0, 64, 57
1, 646752, Control_c, 0, 64, 28
1, 646769, Control_c, 0, 64, 9
1, 646845, Control_c, 0, 64, 13
1, 646863, Control_c, 0, 64, 26
1, 646882, Control_c, 0, 64, 47
1, 646900, Control_c, 0, 64, 75
1, 646920, Control_c, 0, 64, 111
1, 646937, Control_c, 0, 64, 127
1, 646994, Control_c, 0, 67, 110
1, 646996, Note_off_c, 0, 70, 52
1, 647072, Note_off_c, 0, 58, 47
1, 647137, Note_off_c, 0, 61, 35
1, 647306, Note_off_c, 0, 63, 63
1, 647311, Poly_aftertouch_c, 0, 67, 28
1, 647317, Note_on_c, 0, 67, 71
1, 647317, Poly_aftertouch_c, 0, 58, 28
1, 647323, Note_on_c, 0, 58, 66
1, 647331, Control_c, 0, 64, 122
1, 647350, Control_c, 0, 64, 82
1, 647368, Control_c, 0, 64, 60
1, 647387, Control_c, 0, 64, 50
1, 647407, Control_c, 0, 64, 52
1, 647424, Control_c, 0, 64, 60
1, 647443, Control_c, 0, 64, 70
1, 647462, Control_c, 0, 64, 87
1, 647481, Control_c, 0, 64, 127
1, 648309, Note_off_c, 0, 58, 45
1, 648315, Poly_aftertouch_c, 0, 70, 28
1, 648323, Note_on_c, 0, 70, 72
1, 648351, Poly_aftertouch_c, 0, 61, 28
1, 648354, Poly_aftertouch_c, 0, 32, 28
1, 648358, Note_on_c, 0, 61, 52
1, 648365, Note_on_c, 0, 32, 38
1, 648368, Note_off_c, 0, 67, 60
1, 648416, Control_c, 0, 64, 102
1, 648435, Control_c, 0, 64, 88
1, 648454, Control_c, 0, 64, 77
1, 648473, Control_c, 0, 64, 68
1, 648491, Control_c, 0, 64, 60
1, 648511, Control_c, 0, 64, 55
1, 648529, Control_c, 0, 64, 52
1, 648547, Control_c, 0, 64, 48
1, 648566, Control_c, 0, 64, 42
1, 648584, Control_c, 0, 64, 34
1, 648604, Control_c, 0, 64, 27
1, 648622, Control_c, 0, 64, 21
1, 648661, Control_c, 0, 64, 15
1, 648867, Control_c, 0, 64, 20
1, 648885, Control_c, 0, 64, 25
1, 648903, Control_c, 0, 64, 31
1, 648904, Control_c, 0, 67, 114
1, 648922, Control_c, 0, 64, 39
1, 648941, Control_c, 0, 64, 51
1, 648960, Control_c, 0, 64, 64
1, 648978, Control_c, 0, 64, 71
1, 648998, Control_c, 0, 64, 76
1, 649016, Control_c, 0, 64, 79
1, 649035, Control_c, 0, 64, 83
1, 649037, Control_c, 0, 67, 118
1, 649053, Control_c, 0, 64, 88
1, 649072, Control_c, 0, 64, 96
1, 649091, Control_c, 0, 64, 109
1, 649109, Control_c, 0, 64, 127
1, 649110, Control_c, 0, 67, 123
1, 649147, Control_c, 0, 67, 127
1, 649334, Poly_aftertouch_c, 0, 39, 28
1, 649339, Note_off_c, 0, 32, 34
1, 649346, Note_on_c, 0, 39, 38
1, 649397, Note_off_c, 0, 61, 30
1, 649797, Poly_aftertouch_c, 0, 39, 22
1, 649818, Note_off_c, 0, 39, 35
1, 649975, Poly_aftertouch_c, 0, 47, 28
1, 649986, Note_on_c, 0, 47, 37
1, 650440, Note_off_c, 0, 47, 40
1, 650476, Poly_aftertouch_c, 0, 51, 28
1, 650480, Note_on_c, 0, 51, 41
1, 651232, Poly_aftertouch_c, 0, 68, 28
1, 651240, Note_on_c, 0, 68, 42
1, 651243, Poly_aftertouch_c, 0, 59, 28
1, 651249, Note_on_c, 0, 59, 36
1, 651318, Control_c, 0, 64, 92
1, 651337, Control_c, 0, 64, 70
1, 651341, Note_off_c, 0, 70, 56
1, 651356, Control_c, 0, 64, 52
1, 651374, Control_c, 0, 64, 38
1, 651395, Control_c, 0, 64, 33
1, 651468, Control_c, 0, 64, 44
1, 651486, Control_c, 0, 64, 58
1, 651505, Control_c, 0, 64, 74
1, 651523, Control_c, 0, 64, 94
1, 651543, Control_c, 0, 64, 127
1, 651686, Note_off_c, 0, 51, 54
1, 652147, Poly_aftertouch_c, 0, 63, 28
1, 652157, Note_on_c, 0, 63, 37
1, 652231, Note_off_c, 0, 59, 27
1, 652567, Note_off_c, 0, 63, 40
1, 653631, Poly_aftertouch_c, 0, 71, 28
1, 653639, Note_on_c, 0, 71, 32
1, 654688, Control_c, 0, 64, 117
1, 654706, Control_c, 0, 64, 99
1, 654724, Control_c, 0, 64, 86
1, 654744, Control_c, 0, 64, 75
1, 654762, Control_c, 0, 64, 67
1, 654781, Control_c, 0, 64, 62
1, 654799, Control_c, 0, 64, 58
1, 654819, Control_c, 0, 64, 56
1, 654838, Control_c, 0, 64, 53
1, 654856, Control_c, 0, 64, 50
1, 654874, Control_c, 0, 64, 46
1, 654895, Control_c, 0, 64, 41
1, 654912, Control_c, 0, 64, 37
1, 654949, Control_c, 0, 64, 31
1, 655024, Control_c, 0, 64, 27
1, 655062, Control_c, 0, 64, 22
1, 655100, Control_c, 0, 64, 18
1, 655155, Control_c, 0, 64, 14
1, 655362, Control_c, 0, 64, 21
1, 655379, Control_c, 0, 64, 28
1, 655399, Control_c, 0, 64, 35
1, 655418, Control_c, 0, 64, 46
1, 655437, Control_c, 0, 64, 60
1, 655455, Control_c, 0, 64, 69
1, 655473, Control_c, 0, 64, 75
1, 655494, Control_c, 0, 64, 78
1, 655511, Control_c, 0, 64, 81
1, 655530, Control_c, 0, 64, 86
1, 655550, Control_c, 0, 64, 96
1, 655567, Control_c, 0, 64, 121
1, 655586, Control_c, 0, 64, 127
1, 655740, Note_off_c, 0, 71, 40
1, 656137, Note_off_c, 0, 68, 37
1, 657024, Poly_aftertouch_c, 0, 80, 28
1, 657035, Note_on_c, 0, 80, 46
1, 657557, Poly_aftertouch_c, 0, 78, 28
1, 657568, Note_on_c, 0, 78, 46
1, 657586, Note_off_c, 0, 80, 47
1, 657922, Poly_aftertouch_c, 0, 73, 28
1, 657926, Poly_aftertouch_c, 0, 66, 28
1, 657926, Poly_aftertouch_c, 0, 69, 28
1, 657931, Note_on_c, 0, 73, 31
1, 657932, Note_on_c, 0, 69, 40
1, 657939, Note_on_c, 0, 66, 30
1, 657982, Control_c, 0, 64, 104
1, 658000, Control_c, 0, 64, 81
1, 658019, Control_c, 0, 64, 64
1, 658038, Control_c, 0, 64, 51
1, 658057, Control_c, 0, 64, 47
1, 658114, Control_c, 0, 64, 50
1, 658131, Control_c, 0, 64, 56
1, 658150, Control_c, 0, 64, 62
1, 658170, Control_c, 0, 64, 67
1, 658187, Control_c, 0, 64, 74
1, 658206, Control_c, 0, 64, 83
1, 658225, Control_c, 0, 64, 96
1, 658240, Poly_aftertouch_c, 0, 76, 28
1, 658244, Control_c, 0, 64, 119
1, 658246, Note_on_c, 0, 76, 43
1, 658261, Note_off_c, 0, 69, 43
1, 658261, Control_c, 0, 64, 127
1, 658270, Note_off_c, 0, 66, 40
1, 658271, Note_off_c, 0, 78, 40
1, 658345, Note_off_c, 0, 73, 36
1, 658524, Poly_aftertouch_c, 0, 76, 24
1, 658556, Poly_aftertouch_c, 0, 75, 28
1, 658564, Note_on_c, 0, 75, 45
1, 658565, Note_off_c, 0, 76, 40
1, 658952, Poly_aftertouch_c, 0, 72, 28
1, 658961, Note_on_c, 0, 72, 35
1, 658962, Poly_aftertouch_c, 0, 68, 28
1, 658975, Note_on_c, 0, 68, 31
1, 659011, Control_c, 0, 64, 111
1, 659031, Control_c, 0, 64, 99
1, 659049, Control_c, 0, 64, 89
1, 659068, Control_c, 0, 64, 80
1, 659075, Note_off_c, 0, 75, 44
1, 659086, Control_c, 0, 64, 72
1, 659105, Control_c, 0, 64, 65
1, 659123, Control_c, 0, 64, 60
1, 659142, Control_c, 0, 64, 57
1, 659161, Control_c, 0, 64, 54
1, 659180, Control_c, 0, 64, 51
1, 659198, Control_c, 0, 64, 48
1, 659217, Control_c, 0, 64, 45
1, 659237, Control_c, 0, 64, 41
1, 659274, Control_c, 0, 64, 34
1, 659311, Control_c, 0, 64, 29
1, 659348, Control_c, 0, 64, 22
1, 659386, Control_c, 0, 64, 17
1, 659423, Control_c, 0, 64, 13
1, 659497, Control_c, 0, 64, 8
1, 659835, Control_c, 0, 64, 14
1, 659855, Control_c, 0, 64, 19
1, 659872, Control_c, 0, 64, 23
1, 659890, Control_c, 0, 64, 29
1, 659910, Control_c, 0, 64, 38
1, 659928, Control_c, 0, 64, 54
1, 659947, Control_c, 0, 64, 67
1, 659966, Control_c, 0, 64, 74
1, 659985, Control_c, 0, 64, 78
1, 660041, Control_c, 0, 64, 82
1, 660060, Control_c, 0, 64, 86
1, 660078, Control_c, 0, 64, 95
1, 660097, Control_c, 0, 64, 110
1, 660116, Control_c, 0, 64, 127
1, 660367, Note_off_c, 0, 72, 38
1, 660411, Note_off_c, 0, 68, 39
1, 661008, Poly_aftertouch_c, 0, 80, 28
1, 661022, Note_on_c, 0, 80, 47
1, 661451, Poly_aftertouch_c, 0, 78, 28
1, 661461, Note_on_c, 0, 78, 58
1, 661510, Note_off_c, 0, 80, 43
1, 661809, Poly_aftertouch_c, 0, 69, 28
1, 661810, Poly_aftertouch_c, 0, 73, 28
1, 661815, Note_on_c, 0, 69, 43
1, 661815, Poly_aftertouch_c, 0, 66, 28
1, 661819, Note_on_c, 0, 73, 40
1, 661823, Note_on_c, 0, 66, 38
1, 661856, Control_c, 0, 64, 110
1, 661875, Control_c, 0, 64, 99
1, 661893, Control_c, 0, 64, 88
1, 661913, Control_c, 0, 64, 78
1, 661932, Control_c, 0, 64, 69
1, 661950, Control_c, 0, 64, 62
1, 661969, Control_c, 0, 64, 58
1, 661988, Control_c, 0, 64, 56
1, 662025, Control_c, 0, 64, 52
1, 662044, Control_c, 0, 64, 49
1, 662063, Control_c, 0, 64, 45
1, 662081, Control_c, 0, 64, 41
1, 662119, Control_c, 0, 64, 37
1, 662194, Control_c, 0, 64, 32
1, 662248, Poly_aftertouch_c, 0, 76, 28
1, 662252, Note_on_c, 0, 76, 59
1, 662268, Control_c, 0, 64, 28
1, 662356, Note_off_c, 0, 78, 35
1, 662531, Control_c, 0, 64, 24
1, 662785, Note_off_c, 0, 76, 58
1, 662794, Poly_aftertouch_c, 0, 75, 28
1, 662806, Note_on_c, 0, 75, 47
1, 663393, Control_c, 0, 64, 29
1, 663409, Control_c, 0, 64, 33
1, 663429, Control_c, 0, 64, 38
1, 663448, Control_c, 0, 64, 45
1, 663467, Control_c, 0, 64, 55
1, 663485, Control_c, 0, 64, 63
1, 663504, Control_c, 0, 64, 68
1, 663523, Control_c, 0, 64, 70
1, 663541, Control_c, 0, 64, 73
1, 663560, Control_c, 0, 64, 76
1, 663578, Control_c, 0, 64, 81
1, 663598, Control_c, 0, 64, 91
1, 663616, Control_c, 0, 64, 104
1, 663634, Control_c, 0, 64, 127
1, 663700, Poly_aftertouch_c, 0, 85, 28
1, 663708, Note_on_c, 0, 85, 58
1, 663824, Note_off_c, 0, 85, 51
1, 664488, Poly_aftertouch_c, 0, 83, 28
1, 664494, Note_on_c, 0, 83, 55
1, 664637, Note_off_c, 0, 83, 49
1, 665050, Note_off_c, 0, 69, 33
1, 665051, Poly_aftertouch_c, 0, 81, 28
1, 665054, Note_on_c, 0, 81, 57
1, 665084, Note_off_c, 0, 73, 46
1, 665151, Note_off_c, 0, 81, 59
1, 665773, Poly_aftertouch_c, 0, 80, 28
1, 665785, Note_on_c, 0, 80, 55
1, 665797, Poly_aftertouch_c, 0, 68, 28
1, 665797, Poly_aftertouch_c, 0, 72, 28
1, 665803, Note_on_c, 0, 72, 34
1, 665812, Note_on_c, 0, 68, 33
1, 665844, Control_c, 0, 64, 122
1, 665862, Control_c, 0, 64, 101
1, 665882, Control_c, 0, 64, 87
1, 665900, Control_c, 0, 64, 73
1, 665918, Control_c, 0, 64, 61
1, 665939, Control_c, 0, 64, 51
1, 665955, Control_c, 0, 64, 45
1, 665975, Control_c, 0, 64, 40
1, 666012, Control_c, 0, 64, 36
1, 666056, Note_off_c, 0, 66, 34
1, 666106, Control_c, 0, 64, 45
1, 666124, Control_c, 0, 64, 54
1, 666144, Control_c, 0, 64, 64
1, 666161, Control_c, 0, 64, 72
1, 666181, Control_c, 0, 64, 79
1, 666200, Control_c, 0, 64, 87
1, 666217, Control_c, 0, 64, 97
1, 666237, Control_c, 0, 64, 109
1, 666256, Control_c, 0, 64, 127
1, 666404, Note_off_c, 0, 75, 36
1, 666539, Poly_aftertouch_c, 0, 66, 28
1, 666549, Note_on_c, 0, 66, 46
1, 666565, Note_off_c, 0, 68, 42
1, 666932, Poly_aftertouch_c, 0, 72, 22
1, 666951, Note_off_c, 0, 72, 33
1, 666972, Poly_aftertouch_c, 0, 78, 28
1, 666980, Note_on_c, 0, 78, 61
1, 666992, Poly_aftertouch_c, 0, 68, 28
1, 667002, Note_on_c, 0, 68, 40
1, 667027, Note_off_c, 0, 80, 36
1, 667119, Note_off_c, 0, 66, 29
1, 667465, Poly_aftertouch_c, 0, 76, 28
1, 667471, Note_on_c, 0, 76, 62
1, 667490, Poly_aftertouch_c, 0, 73, 28
1, 667500, Note_on_c, 0, 73, 40
1, 667508, Control_c, 0, 64, 109
1, 667513, Poly_aftertouch_c, 0, 69, 28
1, 667517, Note_on_c, 0, 69, 38
1, 667529, Control_c, 0, 64, 93
1, 667547, Control_c, 0, 64, 78
1, 667558, Note_off_c, 0, 78, 36
1, 667565, Control_c, 0, 64, 65
1, 667584, Control_c, 0, 64, 54
1, 667598, Note_off_c, 0, 68, 45
1, 667602, Control_c, 0, 64, 44
1, 667622, Control_c, 0, 64, 38
1, 667772, Control_c, 0, 64, 46
1, 667790, Control_c, 0, 64, 54
1, 667810, Control_c, 0, 64, 61
1, 667827, Control_c, 0, 64, 65
1, 667847, Control_c, 0, 64, 67
1, 667903, Control_c, 0, 64, 69
1, 667921, Control_c, 0, 64, 72
1, 667934, Poly_aftertouch_c, 0, 64, 28
1, 667939, Control_c, 0, 64, 76
1, 667943, Note_on_c, 0, 64, 39
1, 667958, Control_c, 0, 64, 82
1, 667978, Control_c, 0, 64, 91
1, 667996, Control_c, 0, 64, 100
1, 668016, Control_c, 0, 64, 109
1, 668033, Control_c, 0, 64, 122
1, 668053, Control_c, 0, 64, 127
1, 668222, Note_off_c, 0, 69, 32
1, 668247, Note_off_c, 0, 73, 41
1, 668257, Poly_aftertouch_c, 0, 81, 28
1, 668260, Note_on_c, 0, 81, 63
1, 668271, Note_off_c, 0, 76, 57
1, 668279, Poly_aftertouch_c, 0, 66, 28
1, 668285, Note_on_c, 0, 66, 45
1, 668383, Note_off_c, 0, 66, 48
1, 668387, Note_off_c, 0, 64, 38
1, 668688, Control_c, 0, 64, 114
1, 668691, Poly_aftertouch_c, 0, 80, 28
1, 668702, Note_on_c, 0, 80, 66
1, 668702, Poly_aftertouch_c, 0, 75, 28
1, 668706, Control_c, 0, 64, 97
1, 668710, Note_on_c, 0, 75, 49
1, 668717, Poly_aftertouch_c, 0, 68, 28
1, 668725, Control_c, 0, 64, 81
1, 668732, Note_on_c, 0, 68, 29
1, 668732, Poly_aftertouch_c, 0, 72, 28
1, 668737, Note_on_c, 0, 72, 32
1, 668744, Control_c, 0, 64, 68
1, 668751, Note_off_c, 0, 81, 51
1, 668764, Control_c, 0, 64, 57
1, 668782, Control_c, 0, 64, 50
1, 668801, Control_c, 0, 64, 45
1, 668838, Control_c, 0, 64, 43
1, 668895, Control_c, 0, 64, 45
1, 668913, Control_c, 0, 64, 49
1, 668934, Control_c, 0, 64, 56
1, 668951, Control_c, 0, 64, 61
1, 668970, Control_c, 0, 64, 64
1, 668988, Control_c, 0, 64, 68
1, 669007, Control_c, 0, 64, 71
1, 669025, Control_c, 0, 64, 74
1, 669044, Control_c, 0, 64, 78
1, 669064, Control_c, 0, 64, 84
1, 669082, Control_c, 0, 64, 92
1, 669101, Control_c, 0, 64, 101
1, 669103, Poly_aftertouch_c, 0, 81, 28
1, 669106, Note_on_c, 0, 81, 70
1, 669119, Control_c, 0, 64, 111
1, 669129, Poly_aftertouch_c, 0, 66, 28
1, 669136, Note_on_c, 0, 66, 46
1, 669138, Control_c, 0, 64, 127
1, 669149, Note_off_c, 0, 80, 57
1, 669154, Note_off_c, 0, 68, 43
1, 669195, Note_off_c, 0, 75, 57
1, 669364, Poly_aftertouch_c, 0, 72, 22
1, 669380, Note_off_c, 0, 72, 36
1, 669412, Poly_aftertouch_c, 0, 78, 28
1, 669417, Note_on_c, 0, 78, 76
1, 669422, Poly_aftertouch_c, 0, 68, 28
1, 669428, Note_off_c, 0, 81, 62
1, 669434, Note_on_c, 0, 68, 42
1, 669498, Note_off_c, 0, 66, 30
1, 669737, Control_c, 0, 64, 107
1, 669741, Poly_aftertouch_c, 0, 76, 28
1, 669745, Note_on_c, 0, 76, 73
1, 669756, Control_c, 0, 64, 87
1, 669758, Note_off_c, 0, 78, 64
1, 669764, Poly_aftertouch_c, 0, 73, 28
1, 669768, Note_on_c, 0, 73, 57
1, 669772, Poly_aftertouch_c, 0, 69, 28
1, 669773, Control_c, 0, 64, 68
1, 669777, Note_on_c, 0, 69, 41
1, 669794, Control_c, 0, 64, 51
1, 669813, Control_c, 0, 64, 36
1, 669830, Control_c, 0, 64, 26
1, 669837, Note_off_c, 0, 68, 46
1, 669868, Control_c, 0, 64, 22
1, 669943, Control_c, 0, 64, 28
1, 669961, Control_c, 0, 64, 38
1, 669981, Control_c, 0, 64, 53
1, 669999, Control_c, 0, 64, 69
1, 670019, Control_c, 0, 64, 81
1, 670036, Control_c, 0, 64, 96
1, 670055, Control_c, 0, 64, 114
1, 670074, Control_c, 0, 64, 127
1, 670193, Note_off_c, 0, 73, 35
1, 670201, Poly_aftertouch_c, 0, 85, 28
1, 670209, Note_on_c, 0, 85, 63
1, 670249, Poly_aftertouch_c, 0, 64, 28
1, 670255, Note_on_c, 0, 64, 35
1, 670264, Note_off_c, 0, 76, 56
1, 670368, Poly_aftertouch_c, 0, 69, 24
1, 670453, Note_off_c, 0, 69, 31
1, 670711, Poly_aftertouch_c, 0, 81, 28
1, 670714, Note_on_c, 0, 81, 54
1, 670726, Poly_aftertouch_c, 0, 66, 28
1, 670732, Note_off_c, 0, 85, 44
1, 670736, Note_on_c, 0, 66, 37
1, 670821, Note_off_c, 0, 64, 38
1, 671046, Control_c, 0, 64, 104
1, 671049, Note_off_c, 0, 81, 49
1, 671049, Poly_aftertouch_c, 0, 75, 28
1, 671057, Note_on_c, 0, 75, 60
1, 671065, Control_c, 0, 64, 80
1, 671072, Poly_aftertouch_c, 0, 68, 28
1, 671085, Note_on_c, 0, 68, 32
1, 671085, Control_c, 0, 64, 61
1, 671088, Poly_aftertouch_c, 0, 71, 28
1, 671098, Note_on_c, 0, 71, 32
1, 671101, Control_c, 0, 64, 46
1, 671105, Note_off_c, 0, 66, 45
1, 671122, Control_c, 0, 64, 38
1, 671216, Control_c, 0, 64, 41
1, 671235, Control_c, 0, 64, 51
1, 671253, Control_c, 0, 64, 63
1, 671271, Control_c, 0, 64, 72
1, 671291, Control_c, 0, 64, 81
1, 671310, Control_c, 0, 64, 91
1, 671328, Control_c, 0, 64, 102
1, 671347, Control_c, 0, 64, 124
1, 671536, Poly_aftertouch_c, 0, 83, 28
1, 671541, Note_on_c, 0, 83, 53
1, 671554, Poly_aftertouch_c, 0, 63, 28
1, 671562, Note_on_c, 0, 63, 39
1, 671619, Note_off_c, 0, 75, 44
1, 671690, Note_off_c, 0, 68, 40
1, 671726, Note_off_c, 0, 71, 35
1, 671905, Poly_aftertouch_c, 0, 80, 28
1, 671913, Note_off_c, 0, 83, 49
1, 671916, Note_on_c, 0, 80, 59
1, 671935, Poly_aftertouch_c, 0, 64, 28
1, 671940, Note_on_c, 0, 64, 35
1, 671956, Note_off_c, 0, 63, 31
1, 672401, Poly_aftertouch_c, 0, 66, 28
1, 672409, Note_on_c, 0, 66, 44
1, 672520, Poly_aftertouch_c, 0, 70, 28
1, 672525, Poly_aftertouch_c, 0, 73, 28
1, 672525, Control_c, 0, 64, 105
1, 672531, Note_on_c, 0, 70, 64
1, 672535, Note_on_c, 0, 73, 51
1, 672541, Note_off_c, 0, 64, 37
1, 672544, Control_c, 0, 64, 89
1, 672564, Control_c, 0, 64, 70
1, 672574, Note_off_c, 0, 80, 47
1, 672581, Control_c, 0, 64, 53
1, 672601, Control_c, 0, 64, 41
1, 672620, Control_c, 0, 64, 35
1, 672695, Control_c, 0, 64, 41
1, 672713, Control_c, 0, 64, 52
1, 672731, Control_c, 0, 64, 67
1, 672751, Control_c, 0, 64, 80
1, 672770, Control_c, 0, 64, 100
1, 672788, Control_c, 0, 64, 127
1, 673056, Poly_aftertouch_c, 0, 75, 28
1, 673065, Note_on_c, 0, 75, 52
1, 673105, Note_off_c, 0, 73, 38
1, 673140, Note_off_c, 0, 70, 54
1, 673402, Poly_aftertouch_c, 0, 78, 28
1, 673411, Poly_aftertouch_c, 0, 61, 28
1, 673412, Note_on_c, 0, 78, 50
1, 673412, Poly_aftertouch_c, 0, 68, 28
1, 673417, Note_on_c, 0, 61, 43
1, 673423, Note_on_c, 0, 68, 50
1, 673429, Note_off_c, 0, 75, 51
1, 673440, Note_off_c, 0, 66, 38
1, 673442, Control_c, 0, 64, 89
1, 673462, Control_c, 0, 64, 68
1, 673481, Control_c, 0, 64, 51
1, 673500, Control_c, 0, 64, 41
1, 673593, Control_c, 0, 64, 49
1, 673613, Control_c, 0, 64, 59
1, 673631, Control_c, 0, 64, 67
1, 673650, Control_c, 0, 64, 76
1, 673668, Control_c, 0, 64, 85
1, 673687, Control_c, 0, 64, 96
1, 673705, Control_c, 0, 64, 112
1, 673724, Control_c, 0, 64, 127
1, 673749, Poly_aftertouch_c, 0, 76, 28
1, 673755, Note_on_c, 0, 76, 56
1, 673816, Note_off_c, 0, 78, 38
1, 673881, Note_off_c, 0, 68, 37
1, 674030, Poly_aftertouch_c, 0, 67, 28
1, 674034, Poly_aftertouch_c, 0, 63, 28
1, 674037, Note_on_c, 0, 67, 66
1, 674041, Note_on_c, 0, 63, 56
1, 674061, Control_c, 0, 64, 99
1, 674080, Control_c, 0, 64, 75
1, 674099, Control_c, 0, 64, 57
1, 674117, Control_c, 0, 64, 45
1, 674136, Control_c, 0, 64, 40
1, 674177, Note_off_c, 0, 61, 52
1, 674192, Control_c, 0, 64, 46
1, 674211, Control_c, 0, 64, 56
1, 674230, Control_c, 0, 64, 65
1, 674248, Control_c, 0, 64, 74
1, 674267, Control_c, 0, 64, 84
1, 674286, Control_c, 0, 64, 96
1, 674304, Control_c, 0, 64, 108
1, 674323, Control_c, 0, 64, 127
1, 674354, Poly_aftertouch_c, 0, 73, 28
1, 674363, Note_on_c, 0, 73, 60
1, 674371, Note_off_c, 0, 67, 56
1, 674415, Note_off_c, 0, 76, 33
1, 674772, Control_c, 0, 64, 104
1, 674777, Poly_aftertouch_c, 0, 68, 28
1, 674778, Note_off_c, 0, 73, 61
1, 674783, Note_on_c, 0, 68, 71
1, 674790, Control_c, 0, 64, 86
1, 674793, Poly_aftertouch_c, 0, 71, 28
1, 674799, Note_on_c, 0, 71, 54
1, 674810, Control_c, 0, 64, 69
1, 674813, Poly_aftertouch_c, 0, 64, 28
1, 674816, Note_on_c, 0, 64, 44
1, 674829, Control_c, 0, 64, 52
1, 674846, Control_c, 0, 64, 38
1, 674866, Control_c, 0, 64, 30
1, 674908, Note_off_c, 0, 63, 45
1, 674977, Control_c, 0, 64, 37
1, 674997, Control_c, 0, 64, 51
1, 675015, Control_c, 0, 64, 67
1, 675035, Control_c, 0, 64, 82
1, 675052, Control_c, 0, 64, 103
1, 675071, Control_c, 0, 64, 127
1, 675183, Poly_aftertouch_c, 0, 73, 28
1, 675191, Note_on_c, 0, 73, 54
1, 675229, Note_off_c, 0, 71, 50
1, 675270, Note_off_c, 0, 68, 55
1, 675477, Poly_aftertouch_c, 0, 59, 28
1, 675480, Note_on_c, 0, 59, 48
1, 675480, Poly_aftertouch_c, 0, 66, 28
1, 675485, Note_on_c, 0, 66, 65
1, 675497, Note_off_c, 0, 73, 54
1, 675498, Poly_aftertouch_c, 0, 76, 28
1, 675501, Note_on_c, 0, 76, 48
1, 675521, Control_c, 0, 64, 92
1, 675540, Control_c, 0, 64, 70
1, 675558, Control_c, 0, 64, 52
1, 675577, Control_c, 0, 64, 37
1, 675585, Note_off_c, 0, 64, 35
1, 675595, Control_c, 0, 64, 30
1, 675690, Control_c, 0, 64, 38
1, 675709, Control_c, 0, 64, 49
1, 675727, Control_c, 0, 64, 64
1, 675746, Control_c, 0, 64, 76
1, 675762, Note_off_c, 0, 76, 59
1, 675763, Control_c, 0, 64, 89
1, 675783, Control_c, 0, 64, 102
1, 675796, Poly_aftertouch_c, 0, 75, 28
1, 675802, Control_c, 0, 64, 127
1, 675806, Note_on_c, 0, 75, 50
1, 675878, Note_off_c, 0, 66, 52
1, 676108, Poly_aftertouch_c, 0, 65, 28
1, 676117, Note_on_c, 0, 65, 55
1, 676122, Poly_aftertouch_c, 0, 61, 28
1, 676129, Note_on_c, 0, 61, 47
1, 676137, Control_c, 0, 64, 121
1, 676159, Control_c, 0, 64, 93
1, 676161, Poly_aftertouch_c, 0, 59, 24
1, 676177, Control_c, 0, 64, 74
1, 676179, Note_off_c, 0, 59, 50
1, 676194, Control_c, 0, 64, 58
1, 676213, Control_c, 0, 64, 44
1, 676233, Control_c, 0, 64, 35
1, 676269, Control_c, 0, 64, 31
1, 676345, Control_c, 0, 64, 35
1, 676364, Control_c, 0, 64, 42
1, 676381, Control_c, 0, 64, 51
1, 676401, Control_c, 0, 64, 60
1, 676419, Control_c, 0, 64, 66
1, 676439, Control_c, 0, 64, 70
1, 676456, Control_c, 0, 64, 72
1, 676475, Poly_aftertouch_c, 0, 71, 28
1, 676476, Control_c, 0, 64, 76
1, 676479, Note_on_c, 0, 71, 50
1, 676495, Control_c, 0, 64, 81
1, 676513, Control_c, 0, 64, 89
1, 676532, Control_c, 0, 64, 100
1, 676544, Note_off_c, 0, 65, 52
1, 676551, Control_c, 0, 64, 116
1, 676569, Control_c, 0, 64, 127
1, 676601, Note_off_c, 0, 75, 31
1, 676944, Control_c, 0, 64, 119
1, 676962, Poly_aftertouch_c, 0, 63, 28
1, 676963, Control_c, 0, 64, 105
1, 676969, Note_on_c, 0, 63, 52
1, 676981, Poly_aftertouch_c, 0, 67, 28
1, 676981, Control_c, 0, 64, 93
1, 676987, Poly_aftertouch_c, 0, 70, 28
1, 676992, Note_on_c, 0, 67, 32
1, 676998, Note_off_c, 0, 71, 41
1, 676998, Note_on_c, 0, 70, 49
1, 676999, Control_c, 0, 64, 83
1, 677019, Control_c, 0, 64, 73
1, 677037, Control_c, 0, 64, 64
1, 677056, Control_c, 0, 64, 54
1, 677074, Control_c, 0, 64, 47
1, 677094, Control_c, 0, 64, 40
1, 677113, Control_c, 0, 64, 36
1, 677142, Note_off_c, 0, 61, 38
1, 677261, Control_c, 0, 64, 40
1, 677282, Control_c, 0, 64, 47
1, 677300, Control_c, 0, 64, 56
1, 677317, Control_c, 0, 64, 63
1, 677337, Control_c, 0, 64, 67
1, 677374, Control_c, 0, 64, 70
1, 677411, Control_c, 0, 64, 73
1, 677431, Control_c, 0, 64, 76
1, 677449, Control_c, 0, 64, 80
1, 677468, Control_c, 0, 64, 84
1, 677472, Poly_aftertouch_c, 0, 71, 28
1, 677476, Note_on_c, 0, 71, 54
1, 677486, Control_c, 0, 64, 89
1, 677506, Control_c, 0, 64, 93
1, 677509, Note_off_c, 0, 70, 42
1, 677599, Control_c, 0, 64, 97
1, 677771, Poly_aftertouch_c, 0, 64, 28
1, 677776, Note_on_c, 0, 64, 59
1, 677785, Control_c, 0, 64, 93
1, 677802, Poly_aftertouch_c, 0, 68, 28
1, 677804, Control_c, 0, 64, 86
1, 677815, Note_on_c, 0, 68, 44
1, 677823, Control_c, 0, 64, 77
1, 677843, Control_c, 0, 64, 68
1, 677858, Note_off_c, 0, 67, 46
1, 677859, Control_c, 0, 64, 58
1, 677880, Control_c, 0, 64, 49
1, 677881, Control_c, 0, 67, 123
1, 677899, Control_c, 0, 64, 42
1, 677917, Control_c, 0, 64, 38
1, 677992, Control_c, 0, 67, 118
1, 678010, Control_c, 0, 64, 41
1, 678018, Note_off_c, 0, 63, 46
1, 678032, Control_c, 0, 64, 48
1, 678033, Control_c, 0, 67, 113
1, 678049, Control_c, 0, 64, 58
1, 678067, Control_c, 0, 64, 65
1, 678068, Control_c, 0, 67, 107
1, 678086, Control_c, 0, 64, 69
1, 678101, Poly_aftertouch_c, 0, 70, 28
1, 678103, Control_c, 0, 64, 72
1, 678104, Control_c, 0, 67, 103
1, 678109, Note_off_c, 0, 71, 50
1, 678113, Note_on_c, 0, 70, 57
1, 678142, Control_c, 0, 64, 75
1, 678143, Control_c, 0, 67, 98
1, 678161, Control_c, 0, 64, 78
1, 678179, Control_c, 0, 64, 83
1, 678198, Control_c, 0, 64, 91
1, 678201, Control_c, 0, 67, 93
1, 678216, Control_c, 0, 64, 98
1, 678235, Control_c, 0, 64, 103
1, 678403, Control_c, 0, 64, 96
1, 678423, Control_c, 0, 64, 90
1, 678437, Poly_aftertouch_c, 0, 63, 28
1, 678441, Control_c, 0, 64, 82
1, 678443, Note_on_c, 0, 63, 72
1, 678443, Poly_aftertouch_c, 0, 67, 28
1, 678450, Note_on_c, 0, 67, 48
1, 678460, Control_c, 0, 64, 75
1, 678478, Control_c, 0, 64, 68
1, 678499, Control_c, 0, 64, 62
1, 678516, Control_c, 0, 64, 55
1, 678524, Note_off_c, 0, 68, 37
1, 678534, Control_c, 0, 64, 50
1, 678554, Control_c, 0, 64, 43
1, 678572, Control_c, 0, 64, 35
1, 678591, Control_c, 0, 64, 29
1, 678609, Control_c, 0, 64, 25
1, 678618, Note_off_c, 0, 64, 53
1, 678796, Control_c, 0, 64, 31
1, 678816, Control_c, 0, 64, 39
1, 678834, Control_c, 0, 64, 50
1, 678853, Control_c, 0, 64, 63
1, 678854, Control_c, 0, 67, 89
1, 678872, Control_c, 0, 64, 71
1, 678874, Control_c, 0, 67, 83
1, 678876, Poly_aftertouch_c, 0, 71, 28
1, 678882, Note_on_c, 0, 71, 60
1, 678884, Note_off_c, 0, 70, 57
1, 678892, Control_c, 0, 64, 76
1, 678893, Control_c, 0, 67, 76
1, 678909, Control_c, 0, 64, 79
1, 678910, Control_c, 0, 67, 68
1, 678928, Control_c, 0, 67, 62
1, 678946, Control_c, 0, 64, 83
1, 678947, Control_c, 0, 67, 56
1, 678966, Control_c, 0, 64, 85
1, 678968, Control_c, 0, 67, 51
1, 678985, Control_c, 0, 64, 87
1, 679002, Control_c, 0, 67, 46
1, 679021, Control_c, 0, 64, 93
1, 679041, Control_c, 0, 67, 42
1, 679135, Control_c, 0, 67, 37
1, 679208, Control_c, 0, 64, 97
1, 679431, Poly_aftertouch_c, 0, 68, 28
1, 679433, Control_c, 0, 64, 92
1, 679443, Note_on_c, 0, 68, 52
1, 679444, Poly_aftertouch_c, 0, 64, 28
1, 679446, Note_on_c, 0, 64, 67
1, 679450, Control_c, 0, 64, 88
1, 679470, Control_c, 0, 64, 83
1, 679490, Control_c, 0, 64, 78
1, 679508, Control_c, 0, 64, 72
1, 679511, Note_off_c, 0, 67, 36
1, 679526, Control_c, 0, 64, 67
1, 679546, Control_c, 0, 64, 62
1, 679564, Control_c, 0, 64, 57
1, 679584, Control_c, 0, 64, 52
1, 679593, Note_off_c, 0, 63, 44
1, 679600, Control_c, 0, 64, 46
1, 679620, Control_c, 0, 64, 40
1, 679622, Poly_aftertouch_c, 0, 59, 28
1, 679623, Poly_aftertouch_c, 0, 59, 0
1, 679640, Control_c, 0, 64, 35
1, 679676, Control_c, 0, 64, 29
1, 679714, Control_c, 0, 64, 23
1, 679845, Control_c, 0, 64, 19
1, 679938, Control_c, 0, 67, 41
1, 679990, Poly_aftertouch_c, 0, 70, 28
1, 679994, Note_off_c, 0, 71, 53
1, 680000, Note_on_c, 0, 70, 44
1, 680069, Control_c, 0, 64, 26
1, 680089, Control_c, 0, 64, 34
1, 680107, Control_c, 0, 64, 45
1, 680126, Control_c, 0, 64, 62
1, 680144, Control_c, 0, 64, 73
1, 680164, Control_c, 0, 64, 82
1, 680183, Control_c, 0, 64, 89
1, 680200, Control_c, 0, 64, 93
1, 680238, Control_c, 0, 64, 98
1, 680594, Control_c, 0, 64, 92
1, 680608, Poly_aftertouch_c, 0, 67, 28
1, 680612, Poly_aftertouch_c, 0, 63, 28
1, 680612, Control_c, 0, 64, 88
1, 680615, Note_on_c, 0, 67, 44
1, 680619, Note_on_c, 0, 63, 43
1, 680632, Control_c, 0, 64, 83
1, 680634, Control_c, 0, 67, 45
1, 680650, Control_c, 0, 64, 77
1, 680666, Note_off_c, 0, 68, 53
1, 680667, Control_c, 0, 64, 70
1, 680687, Control_c, 0, 64, 63
1, 680706, Control_c, 0, 64, 57
1, 680726, Control_c, 0, 64, 52
1, 680743, Control_c, 0, 64, 48
1, 680763, Control_c, 0, 64, 45
1, 680768, Note_off_c, 0, 64, 44
1, 680781, Control_c, 0, 64, 41
1, 680799, Control_c, 0, 64, 36
1, 680818, Control_c, 0, 64, 32
1, 680856, Control_c, 0, 64, 27
1, 680912, Control_c, 0, 64, 22
1, 680949, Control_c, 0, 64, 18
1, 681024, Control_c, 0, 64, 14
1, 681231, Control_c, 0, 67, 49
1, 681267, Control_c, 0, 67, 54
1, 681362, Control_c, 0, 67, 58
1, 681399, Control_c, 0, 67, 63
1, 681417, Control_c, 0, 64, 10
1, 681437, Control_c, 0, 67, 69
1, 681474, Control_c, 0, 67, 75
1, 681512, Control_c, 0, 67, 80
1, 681549, Control_c, 0, 67, 85
1, 681605, Control_c, 0, 67, 90
1, 681661, Control_c, 0, 67, 95
1, 681698, Control_c, 0, 67, 101
1, 681717, Control_c, 0, 67, 105
1, 681754, Control_c, 0, 67, 112
1, 681792, Control_c, 0, 67, 118
1, 681829, Control_c, 0, 67, 123
1, 681866, Control_c, 0, 67, 127
1, 682524, Poly_aftertouch_c, 0, 61, 28
1, 682534, Note_on_c, 0, 61, 27
1, 682695, Note_off_c, 0, 63, 38
1, 682802, Control_c, 0, 64, 16
1, 682821, Control_c, 0, 64, 22
1, 682840, Control_c, 0, 64, 30
1, 682859, Control_c, 0, 64, 42
1, 682877, Control_c, 0, 64, 58
1, 682896, Control_c, 0, 64, 68
1, 682916, Control_c, 0, 64, 73
1, 682933, Control_c, 0, 64, 76
1, 682972, Control_c, 0, 64, 80
1, 682990, Control_c, 0, 64, 84
1, 683008, Control_c, 0, 64, 92
1, 683028, Control_c, 0, 64, 104
1, 683046, Control_c, 0, 64, 127
1, 683371, Note_off_c, 0, 67, 36
1, 683390, Note_off_c, 0, 61, 36
1, 683684, Note_off_c, 0, 70, 37
1, 685029, Control_c, 0, 64, 116
1, 685038, Poly_aftertouch_c, 0, 44, 28
1, 685045, Note_on_c, 0, 44, 39
1, 685047, Control_c, 0, 64, 107
1, 685061, Poly_aftertouch_c, 0, 59, 28
1, 685064, Note_on_c, 0, 59, 45
1, 685067, Control_c, 0, 64, 98
1, 685080, Poly_aftertouch_c, 0, 56, 28
1, 685085, Control_c, 0, 64, 86
1, 685088, Note_on_c, 0, 56, 33
1, 685105, Control_c, 0, 64, 72
1, 685124, Control_c, 0, 64, 59
1, 685142, Control_c, 0, 64, 45
1, 685161, Control_c, 0, 64, 36
1, 685179, Control_c, 0, 64, 32
1, 685273, Control_c, 0, 64, 36
1, 685292, Control_c, 0, 64, 43
1, 685310, Control_c, 0, 64, 55
1, 685330, Control_c, 0, 64, 66
1, 685349, Control_c, 0, 64, 74
1, 685367, Control_c, 0, 64, 83
1, 685385, Control_c, 0, 64, 92
1, 685404, Control_c, 0, 64, 104
1, 685423, Control_c, 0, 64, 127
1, 685566, Poly_aftertouch_c, 0, 51, 28
1, 685571, Note_on_c, 0, 51, 55
1, 685699, Note_off_c, 0, 59, 56
1, 685728, Note_off_c, 0, 56, 41
1, 685906, Poly_aftertouch_c, 0, 56, 28
1, 685911, Note_on_c, 0, 56, 57
1, 685912, Note_on_c, 0, 59, 69
1, 685913, Poly_aftertouch_c, 0, 59, 28
1, 686472, Poly_aftertouch_c, 0, 37, 28
1, 686479, Note_on_c, 0, 37, 66
1, 686479, Poly_aftertouch_c, 0, 60, 28
1, 686481, Note_on_c, 0, 60, 68
1, 686489, Poly_aftertouch_c, 0, 54, 28
1, 686496, Note_on_c, 0, 54, 56
1, 686529, Control_c, 0, 64, 117
1, 686544, Note_off_c, 0, 44, 55
1, 686546, Control_c, 0, 64, 97
1, 686565, Control_c, 0, 64, 83
1, 686583, Note_off_c, 0, 59, 55
1, 686583, Control_c, 0, 64, 70
1, 686603, Control_c, 0, 64, 60
1, 686621, Control_c, 0, 64, 50
1, 686640, Control_c, 0, 64, 43
1, 686659, Control_c, 0, 64, 34
1, 686677, Control_c, 0, 64, 26
1, 686696, Control_c, 0, 64, 17
1, 686714, Control_c, 0, 64, 9
1, 686958, Control_c, 0, 64, 20
1, 686976, Control_c, 0, 64, 29
1, 686996, Control_c, 0, 64, 42
1, 687014, Control_c, 0, 64, 59
1, 687032, Control_c, 0, 64, 70
1, 687052, Control_c, 0, 64, 77
1, 687070, Control_c, 0, 64, 81
1, 687089, Control_c, 0, 64, 83
1, 687127, Control_c, 0, 64, 88
1, 687128, Control_c, 0, 67, 123
1, 687145, Control_c, 0, 64, 96
1, 687156, Note_off_c, 0, 51, 51
1, 687162, Control_c, 0, 64, 108
1, 687183, Control_c, 0, 64, 127
1, 687221, Control_c, 0, 67, 118
1, 687277, Control_c, 0, 67, 113
1, 687332, Control_c, 0, 67, 109
1, 687369, Control_c, 0, 67, 105
1, 687407, Control_c, 0, 67, 98
1, 687445, Control_c, 0, 67, 93
1, 687501, Control_c, 0, 67, 89
1, 687727, Poly_aftertouch_c, 0, 61, 28
1, 687729, Note_on_c, 0, 61, 69
1, 687732, Poly_aftertouch_c, 0, 52, 28
1, 687737, Note_on_c, 0, 52, 59
1, 687763, Control_c, 0, 64, 109
1, 687781, Control_c, 0, 64, 93
1, 687798, Note_off_c, 0, 54, 59
1, 687799, Control_c, 0, 64, 79
1, 687818, Control_c, 0, 64, 67
1, 687838, Control_c, 0, 64, 56
1, 687845, Note_off_c, 0, 60, 50
1, 687858, Control_c, 0, 64, 47
1, 687875, Control_c, 0, 64, 39
1, 687894, Control_c, 0, 64, 31
1, 687913, Control_c, 0, 64, 25
1, 687932, Control_c, 0, 64, 19
1, 687969, Control_c, 0, 64, 14
1, 688155, Control_c, 0, 67, 85
1, 688175, Control_c, 0, 64, 20
1, 688193, Control_c, 0, 67, 79
1, 688213, Control_c, 0, 64, 27
1, 688213, Control_c, 0, 67, 71
1, 688231, Control_c, 0, 64, 32
1, 688232, Control_c, 0, 67, 64
1, 688249, Control_c, 0, 64, 39
1, 688250, Control_c, 0, 67, 57
1, 688269, Control_c, 0, 64, 49
1, 688270, Control_c, 0, 67, 52
1, 688287, Control_c, 0, 64, 59
1, 688306, Control_c, 0, 64, 63
1, 688308, Control_c, 0, 67, 46
1, 688325, Control_c, 0, 64, 64
1, 688344, Control_c, 0, 64, 65
1, 688362, Control_c, 0, 64, 67
1, 688381, Control_c, 0, 64, 69
1, 688401, Control_c, 0, 64, 72
1, 688418, Control_c, 0, 64, 76
1, 688437, Control_c, 0, 64, 82
1, 688457, Control_c, 0, 64, 88
1, 688475, Control_c, 0, 64, 93
1, 688531, Control_c, 0, 64, 98
1, 688587, Control_c, 0, 64, 102
1, 688625, Control_c, 0, 64, 108
1, 688662, Control_c, 0, 64, 102
1, 688672, Poly_aftertouch_c, 0, 59, 28
1, 688675, Note_on_c, 0, 59, 75
1, 688679, Control_c, 0, 64, 89
1, 688698, Control_c, 0, 64, 73
1, 688717, Control_c, 0, 64, 59
1, 688737, Control_c, 0, 64, 49
1, 688754, Control_c, 0, 64, 46
1, 688811, Control_c, 0, 64, 54
1, 688830, Control_c, 0, 64, 63
1, 688848, Control_c, 0, 64, 73
1, 688868, Control_c, 0, 64, 87
1, 688886, Control_c, 0, 64, 111
1, 688887, Control_c, 0, 67, 42
1, 688904, Control_c, 0, 64, 127
1, 688942, Control_c, 0, 67, 36
1, 688944, Note_off_c, 0, 61, 58
1, 688961, Control_c, 0, 67, 28
1, 688979, Control_c, 0, 67, 20
1, 688999, Control_c, 0, 67, 12
1, 689054, Control_c, 0, 67, 0
1, 689557, Poly_aftertouch_c, 0, 39, 28
1, 689559, Poly_aftertouch_c, 0, 58, 28
1, 689561, Note_on_c, 0, 39, 72
1, 689564, Note_on_c, 0, 58, 70
1, 689597, Control_c, 0, 64, 106
1, 689617, Control_c, 0, 64, 89
1, 689634, Control_c, 0, 64, 76
1, 689639, Note_off_c, 0, 37, 57
1, 689654, Control_c, 0, 64, 65
1, 689672, Control_c, 0, 64, 54
1, 689691, Control_c, 0, 64, 43
1, 689696, Note_off_c, 0, 59, 47
1, 689710, Control_c, 0, 64, 32
1, 689728, Control_c, 0, 64, 24
1, 689748, Control_c, 0, 64, 19
1, 689785, Control_c, 0, 64, 15
1, 689915, Control_c, 0, 64, 24
1, 689935, Control_c, 0, 64, 34
1, 689953, Control_c, 0, 64, 51
1, 689972, Control_c, 0, 64, 70
1, 689991, Control_c, 0, 64, 88
1, 690009, Control_c, 0, 64, 111
1, 690029, Control_c, 0, 64, 127
1, 690224, Note_off_c, 0, 52, 29
1, 690341, Note_off_c, 0, 56, 29
1, 690712, Poly_aftertouch_c, 0, 55, 28
1, 690718, Note_on_c, 0, 55, 69
1, 690718, Poly_aftertouch_c, 0, 51, 28
1, 690724, Note_on_c, 0, 51, 71
1, 690777, Control_c, 0, 64, 116
1, 690795, Control_c, 0, 64, 94
1, 690816, Control_c, 0, 64, 78
1, 690832, Control_c, 0, 64, 65
1, 690851, Control_c, 0, 64, 54
1, 690870, Control_c, 0, 64, 45
1, 690889, Control_c, 0, 64, 37
1, 690908, Control_c, 0, 64, 30
1, 690926, Control_c, 0, 64, 24
1, 690946, Control_c, 0, 64, 19
1, 690982, Control_c, 0, 64, 14
1, 691414, Control_c, 0, 64, 18
1, 691525, Control_c, 0, 64, 22
1, 691637, Control_c, 0, 64, 27
1, 691731, Control_c, 0, 64, 31
1, 691773, Poly_aftertouch_c, 0, 59, 28
1, 691777, Note_on_c, 0, 59, 79
1, 691788, Control_c, 0, 64, 35
1, 691806, Control_c, 0, 64, 40
1, 691825, Control_c, 0, 64, 50
1, 691843, Control_c, 0, 64, 61
1, 691862, Control_c, 0, 64, 69
1, 691881, Control_c, 0, 64, 75
1, 691899, Control_c, 0, 64, 81
1, 691919, Control_c, 0, 64, 89
1, 691937, Control_c, 0, 64, 101
1, 691956, Control_c, 0, 64, 127
1, 691973, Note_off_c, 0, 58, 40
1, 692113, Note_off_c, 0, 51, 58
1, 693520, Poly_aftertouch_c, 0, 32, 28
1, 693524, Note_on_c, 0, 32, 67
1, 693527, Poly_aftertouch_c, 0, 49, 28
1, 693533, Note_on_c, 0, 49, 52
1, 693534, Poly_aftertouch_c, 0, 58, 28
1, 693537, Note_on_c, 0, 58, 59
1, 693548, Note_off_c, 0, 39, 62
1, 693584, Control_c, 0, 64, 103
1, 693603, Control_c, 0, 64, 82
1, 693623, Control_c, 0, 64, 64
1, 693640, Control_c, 0, 64, 47
1, 693659, Control_c, 0, 64, 32
1, 693661, Note_off_c, 0, 59, 51
1, 693678, Control_c, 0, 64, 21
1, 693697, Control_c, 0, 64, 13
1, 693715, Control_c, 0, 64, 8
1, 693922, Control_c, 0, 64, 14
1, 693940, Control_c, 0, 64, 23
1, 693958, Control_c, 0, 64, 33
1, 693977, Control_c, 0, 64, 46
1, 693996, Control_c, 0, 64, 61
1, 694015, Control_c, 0, 64, 69
1, 694034, Control_c, 0, 64, 73
1, 694052, Control_c, 0, 64, 77
1, 694072, Control_c, 0, 64, 82
1, 694090, Control_c, 0, 64, 90
1, 694108, Control_c, 0, 64, 105
1, 694126, Control_c, 0, 64, 127
1, 694255, Note_off_c, 0, 55, 60
1, 694333, Note_off_c, 0, 49, 38
1, 694370, Control_c, 0, 67, 8
1, 694380, Note_off_c, 0, 58, 47
1, 694464, Control_c, 0, 67, 12
1, 694539, Control_c, 0, 67, 16
1, 694614, Control_c, 0, 67, 20
1, 694670, Control_c, 0, 67, 29
1, 694688, Control_c, 0, 67, 39
1, 694707, Control_c, 0, 67, 50
1, 694726, Control_c, 0, 67, 57
1, 694745, Control_c, 0, 67, 63
1, 694782, Control_c, 0, 67, 70
1, 694820, Control_c, 0, 67, 77
1, 694857, Control_c, 0, 67, 84
1, 694895, Control_c, 0, 67, 90
1, 694933, Control_c, 0, 67, 95
1, 694970, Control_c, 0, 67, 99
1, 695207, Poly_aftertouch_c, 0, 56, 28
1, 695213, Poly_aftertouch_c, 0, 47, 28
1, 695214, Note_on_c, 0, 56, 46
1, 695222, Note_on_c, 0, 47, 39
1, 695269, Control_c, 0, 64, 108
1, 695288, Control_c, 0, 64, 88
1, 695306, Control_c, 0, 64, 71
1, 695326, Control_c, 0, 64, 56
1, 695344, Control_c, 0, 64, 42
1, 695362, Control_c, 0, 64, 29
1, 695381, Control_c, 0, 64, 19
1, 695419, Control_c, 0, 64, 15
1, 695494, Control_c, 0, 64, 20
1, 695512, Control_c, 0, 64, 28
1, 695532, Control_c, 0, 64, 41
1, 695550, Control_c, 0, 64, 59
1, 695569, Control_c, 0, 64, 74
1, 695587, Control_c, 0, 64, 88
1, 695606, Control_c, 0, 64, 103
1, 695626, Control_c, 0, 64, 118
1, 695644, Control_c, 0, 64, 127
1, 695967, Note_off_c, 0, 32, 30
1, 696398, Poly_aftertouch_c, 0, 32, 28
1, 696407, Note_on_c, 0, 32, 30
1, 696470, Note_off_c, 0, 47, 37
1, 696475, Note_off_c, 0, 56, 42
1, 697310, Control_c, 0, 67, 103
1, 697347, Control_c, 0, 67, 110
1, 697366, Control_c, 0, 67, 121
1, 697384, Control_c, 0, 67, 127
1, 698166, Poly_aftertouch_c, 0, 51, 28
1, 698173, Note_on_c, 0, 51, 34
1, 698173, Poly_aftertouch_c, 0, 44, 28
1, 698173, Poly_aftertouch_c, 0, 47, 28
1, 698173, Poly_aftertouch_c, 0, 56, 28
1, 698179, Note_on_c, 0, 56, 34
1, 698182, Note_on_c, 0, 44, 22
1, 698182, Note_on_c, 0, 47, 33
1, 700109, Note_off_c, 0, 32, 38
1, 700640, Note_off_c, 0, 56, 37
1, 700868, Note_off_c, 0, 47, 26
1, 701148, Poly_aftertouch_c, 0, 51, 24
1, 701250, Note_off_c, 0, 51, 26
1, 701266, Note_off_c, 0, 44, 36
1, 702286, Poly_aftertouch_c, 0, 87, 28
1, 702294, Note_on_c, 0, 87, 60
1, 702296, Poly_aftertouch_c, 0, 75, 28
1, 702307, Control_c, 0, 64, 99
1, 702308, Note_on_c, 0, 75, 41
1, 702310, Poly_aftertouch_c, 0, 83, 28
1, 702316, Note_on_c, 0, 83, 46
1, 702325, Control_c, 0, 64, 83
1, 702345, Control_c, 0, 64, 70
1, 702363, Control_c, 0, 64, 58
1, 702383, Control_c, 0, 64, 44
1, 702401, Control_c, 0, 64, 25
1, 702420, Control_c, 0, 64, 8
1, 702475, Control_c, 0, 64, 0
1, 702588, Control_c, 0, 64, 15
1, 702606, Control_c, 0, 64, 26
1, 702627, Control_c, 0, 64, 42
1, 702644, Control_c, 0, 64, 64
1, 702663, Control_c, 0, 64, 80
1, 702664, Control_c, 0, 67, 123
1, 702681, Control_c, 0, 64, 99
1, 702700, Control_c, 0, 64, 127
1, 702701, Control_c, 0, 67, 119
1, 702737, Control_c, 0, 67, 114
1, 702775, Control_c, 0, 67, 107
1, 702784, Note_off_c, 0, 83, 58
1, 702793, Control_c, 0, 67, 103
1, 702812, Control_c, 0, 67, 97
1, 702832, Control_c, 0, 67, 90
1, 702850, Note_off_c, 0, 75, 41
1, 702850, Control_c, 0, 67, 83
1, 702869, Control_c, 0, 67, 76
1, 702888, Control_c, 0, 67, 70
1, 702907, Control_c, 0, 67, 66
1, 703037, Control_c, 0, 67, 70
1, 703112, Control_c, 0, 67, 74
1, 703168, Control_c, 0, 67, 79
1, 703205, Control_c, 0, 67, 84
1, 703337, Control_c, 0, 67, 88
1, 703375, Control_c, 0, 67, 94
1, 703412, Control_c, 0, 67, 98
1, 703467, Control_c, 0, 67, 103
1, 703505, Control_c, 0, 67, 110
1, 703524, Control_c, 0, 67, 116
1, 703542, Control_c, 0, 67, 123
1, 703562, Control_c, 0, 67, 127
1, 703701, Poly_aftertouch_c, 0, 85, 28
1, 703709, Note_on_c, 0, 85, 63
1, 703724, Poly_aftertouch_c, 0, 73, 28
1, 703729, Poly_aftertouch_c, 0, 81, 28
1, 703736, Note_on_c, 0, 81, 47
1, 703747, Poly_aftertouch_c, 0, 35, 28
1, 703754, Note_on_c, 0, 35, 35
1, 703760, Note_off_c, 0, 87, 49
1, 703774, Poly_aftertouch_c, 0, 73, 127
1, 703786, Control_c, 0, 64, 98
1, 703804, Control_c, 0, 64, 78
1, 703824, Control_c, 0, 64, 61
1, 703843, Control_c, 0, 64, 48
1, 703861, Control_c, 0, 64, 39
1, 703954, Control_c, 0, 64, 42
1, 703973, Control_c, 0, 64, 52
1, 703992, Control_c, 0, 64, 64
1, 704010, Control_c, 0, 64, 74
1, 704029, Control_c, 0, 64, 85
1, 704048, Control_c, 0, 64, 101
1, 704066, Control_c, 0, 64, 127
1, 704275, Poly_aftertouch_c, 0, 35, 20
1, 704299, Note_off_c, 0, 35, 22
1, 704360, Poly_aftertouch_c, 0, 42, 28
1, 704368, Note_on_c, 0, 42, 34
1, 704536, Note_off_c, 0, 42, 25
1, 704543, Note_off_c, 0, 81, 35
1, 704597, Note_off_c, 0, 85, 38
1, 704700, Poly_aftertouch_c, 0, 47, 28
1, 704710, Note_on_c, 0, 47, 30
1, 704754, Poly_aftertouch_c, 0, 73, 0
1, 704770, Note_off_c, 0, 47, 48
1, 704950, Poly_aftertouch_c, 0, 51, 28
1, 704956, Note_on_c, 0, 51, 45
1, 705115, Note_off_c, 0, 51, 46
1, 705148, Poly_aftertouch_c, 0, 54, 28
1, 705155, Note_on_c, 0, 54, 45
1, 705321, Note_off_c, 0, 54, 37
1, 705334, Poly_aftertouch_c, 0, 57, 28
1, 705339, Note_on_c, 0, 57, 47
1, 705446, Note_off_c, 0, 57, 54
1, 705527, Poly_aftertouch_c, 0, 83, 28
1, 705529, Note_on_c, 0, 83, 70
1, 705550, Poly_aftertouch_c, 0, 71, 28
1, 705554, Note_on_c, 0, 71, 54
1, 705560, Poly_aftertouch_c, 0, 59, 28
1, 705562, Poly_aftertouch_c, 0, 80, 28
1, 705566, Note_on_c, 0, 59, 40
1, 705574, Note_on_c, 0, 80, 44
1, 705611, Note_off_c, 0, 59, 47
1, 705733, Poly_aftertouch_c, 0, 63, 28
1, 705741, Note_on_c, 0, 63, 50
1, 705807, Note_off_c, 0, 80, 50
1, 706040, Poly_aftertouch_c, 0, 66, 28
1, 706048, Note_on_c, 0, 66, 50
1, 706055, Poly_aftertouch_c, 0, 75, 28
1, 706061, Note_on_c, 0, 75, 68
1, 706065, Poly_aftertouch_c, 0, 71, 24
1, 706103, Note_off_c, 0, 71, 40
1, 706119, Note_off_c, 0, 63, 33
1, 706275, Note_off_c, 0, 83, 35
1, 706279, Note_off_c, 0, 66, 54
1, 706519, Poly_aftertouch_c, 0, 81, 28
1, 706522, Note_on_c, 0, 81, 73
1, 706535, Note_off_c, 0, 75, 54
1, 706536, Poly_aftertouch_c, 0, 78, 28
1, 706546, Note_on_c, 0, 78, 58
1, 706555, Poly_aftertouch_c, 0, 69, 28
1, 706557, Note_on_c, 0, 69, 39
1, 706659, Note_off_c, 0, 69, 54
1, 706676, Note_off_c, 0, 81, 62
1, 706692, Note_off_c, 0, 78, 63
1, 707137, Poly_aftertouch_c, 0, 80, 28
1, 707140, Poly_aftertouch_c, 0, 35, 28
1, 707143, Note_on_c, 0, 35, 36
1, 707145, Note_on_c, 0, 80, 74
1, 707166, Poly_aftertouch_c, 0, 76, 28
1, 707172, Note_on_c, 0, 76, 53
1, 707187, Poly_aftertouch_c, 0, 68, 28
1, 707192, Control_c, 0, 64, 92
1, 707200, Note_on_c, 0, 68, 40
1, 707211, Control_c, 0, 64, 67
1, 707229, Control_c, 0, 64, 48
1, 707249, Control_c, 0, 64, 34
1, 707267, Control_c, 0, 64, 30
1, 707324, Control_c, 0, 64, 36
1, 707343, Control_c, 0, 64, 47
1, 707361, Control_c, 0, 64, 64
1, 707380, Control_c, 0, 64, 79
1, 707393, Poly_aftertouch_c, 0, 35, 24
1, 707397, Control_c, 0, 64, 104
1, 707417, Control_c, 0, 64, 127
1, 707501, Note_off_c, 0, 35, 28
1, 707538, Poly_aftertouch_c, 0, 45, 28
1, 707545, Note_on_c, 0, 45, 40
1, 707715, Note_off_c, 0, 45, 31
1, 707780, Poly_aftertouch_c, 0, 47, 28
1, 707787, Note_on_c, 0, 47, 39
1, 707834, Note_off_c, 0, 47, 51
1, 707982, Poly_aftertouch_c, 0, 51, 28
1, 707986, Note_on_c, 0, 51, 51
1, 708053, Note_off_c, 0, 80, 48
1, 708069, Note_off_c, 0, 76, 35
1, 708124, Note_off_c, 0, 68, 47
1, 708127, Note_off_c, 0, 51, 45
1, 708162, Poly_aftertouch_c, 0, 54, 28
1, 708171, Note_on_c, 0, 54, 55
1, 708293, Note_off_c, 0, 54, 52
1, 708347, Poly_aftertouch_c, 0, 57, 28
1, 708352, Note_on_c, 0, 57, 43
1, 708436, Note_off_c, 0, 57, 57
1, 708513, Poly_aftertouch_c, 0, 78, 28
1, 708520, Note_on_c, 0, 78, 73
1, 708528, Poly_aftertouch_c, 0, 75, 28
1, 708537, Note_on_c, 0, 75, 59
1, 708540, Poly_aftertouch_c, 0, 59, 28
1, 708542, Note_on_c, 0, 59, 36
1, 708551, Poly_aftertouch_c, 0, 66, 28
1, 708557, Note_on_c, 0, 66, 39
1, 708617, Note_off_c, 0, 66, 45
1, 708657, Note_off_c, 0, 59, 34
1, 708717, Poly_aftertouch_c, 0, 63, 28
1, 708722, Note_on_c, 0, 63, 47
1, 708942, Note_on_c, 0, 69, 72
1, 708942, Poly_aftertouch_c, 0, 69, 28
1, 708952, Poly_aftertouch_c, 0, 66, 28
1, 708957, Note_on_c, 0, 66, 47
1, 708961, Note_off_c, 0, 75, 50
1, 708962, Note_off_c, 0, 78, 53
1, 708994, Note_off_c, 0, 63, 36
1, 709059, Note_off_c, 0, 66, 57
1, 709306, Poly_aftertouch_c, 0, 76, 28
1, 709308, Note_on_c, 0, 76, 78
1, 709311, Note_off_c, 0, 69, 60
1, 709317, Poly_aftertouch_c, 0, 73, 28
1, 709322, Note_on_c, 0, 73, 67
1, 709336, Poly_aftertouch_c, 0, 64, 28
1, 709343, Note_on_c, 0, 64, 43
1, 709442, Note_off_c, 0, 64, 32
1, 709454, Note_off_c, 0, 76, 62
1, 709473, Note_off_c, 0, 73, 60
1, 709713, Poly_aftertouch_c, 0, 35, 28
1, 709715, Note_on_c, 0, 35, 43
1, 709807, Poly_aftertouch_c, 0, 75, 28
1, 709813, Control_c, 0, 64, 97
1, 709814, Note_on_c, 0, 75, 72
1, 709831, Control_c, 0, 64, 71
1, 709835, Poly_aftertouch_c, 0, 71, 28
1, 709840, Poly_aftertouch_c, 0, 63, 28
1, 709843, Note_on_c, 0, 71, 54
1, 709848, Note_on_c, 0, 63, 33
1, 709849, Control_c, 0, 64, 51
1, 709870, Control_c, 0, 64, 34
1, 709888, Control_c, 0, 64, 28
1, 709945, Control_c, 0, 64, 33
1, 709962, Control_c, 0, 64, 42
1, 709982, Control_c, 0, 64, 59
1, 710000, Control_c, 0, 64, 74
1, 710020, Control_c, 0, 64, 91
1, 710029, Note_off_c, 0, 35, 34
1, 710038, Control_c, 0, 64, 118
1, 710057, Control_c, 0, 64, 127
1, 710070, Poly_aftertouch_c, 0, 45, 28
1, 710075, Note_on_c, 0, 45, 43
1, 710200, Note_off_c, 0, 45, 43
1, 710238, Note_off_c, 0, 75, 46
1, 710255, Poly_aftertouch_c, 0, 66, 28
1, 710256, Note_off_c, 0, 71, 47
1, 710259, Poly_aftertouch_c, 0, 47, 28
1, 710262, Note_on_c, 0, 66, 68
1, 710268, Note_on_c, 0, 47, 47
1, 710308, Note_off_c, 0, 47, 54
1, 710312, Note_off_c, 0, 63, 41
1, 710433, Poly_aftertouch_c, 0, 51, 28
1, 710439, Note_on_c, 0, 51, 57
1, 710513, Note_off_c, 0, 51, 43
1, 710600, Control_c, 0, 64, 109
1, 710616, Poly_aftertouch_c, 0, 73, 28
1, 710618, Control_c, 0, 64, 83
1, 710620, Note_on_c, 0, 73, 76
1, 710622, Note_off_c, 0, 66, 60
1, 710628, Poly_aftertouch_c, 0, 69, 28
1, 710632, Note_on_c, 0, 69, 56
1, 710633, Poly_aftertouch_c, 0, 47, 28
1, 710636, Control_c, 0, 64, 61
1, 710637, Note_on_c, 0, 47, 47
1, 710644, Poly_aftertouch_c, 0, 61, 28
1, 710649, Note_on_c, 0, 61, 41
1, 710654, Control_c, 0, 64, 40
1, 710675, Control_c, 0, 64, 25
1, 710750, Control_c, 0, 64, 30
1, 710767, Control_c, 0, 64, 41
1, 710787, Control_c, 0, 64, 60
1, 710805, Control_c, 0, 64, 76
1, 710824, Control_c, 0, 64, 92
1, 710843, Poly_aftertouch_c, 0, 52, 28
1, 710843, Control_c, 0, 64, 113
1, 710850, Note_on_c, 0, 52, 41
1, 710861, Control_c, 0, 64, 127
1, 711002, Note_off_c, 0, 61, 34
1, 711029, Note_off_c, 0, 73, 50
1, 711033, Note_off_c, 0, 52, 34
1, 711039, Poly_aftertouch_c, 0, 64, 28
1, 711041, Note_on_c, 0, 64, 62
1, 711055, Note_off_c, 0, 69, 33
1, 711058, Note_off_c, 0, 47, 33
1, 711063, Poly_aftertouch_c, 0, 57, 28
1, 711072, Note_on_c, 0, 57, 34
1, 711234, Poly_aftertouch_c, 0, 52, 28
1, 711241, Note_on_c, 0, 52, 36
1, 711330, Poly_aftertouch_c, 0, 57, 24
1, 711456, Note_off_c, 0, 64, 59
1, 711460, Poly_aftertouch_c, 0, 47, 28
1, 711460, Control_c, 0, 64, 114
1, 711473, Note_on_c, 0, 47, 26
1, 711478, Control_c, 0, 64, 98
1, 711489, Poly_aftertouch_c, 0, 68, 28
1, 711496, Control_c, 0, 64, 80
1, 711501, Note_on_c, 0, 68, 45
1, 711501, Poly_aftertouch_c, 0, 71, 28
1, 711505, Note_off_c, 0, 52, 31
1, 711508, Note_on_c, 0, 71, 58
1, 711516, Poly_aftertouch_c, 0, 59, 28
1, 711516, Control_c, 0, 64, 61
1, 711523, Note_on_c, 0, 59, 28
1, 711537, Control_c, 0, 64, 42
1, 711550, Note_off_c, 0, 57, 19
1, 711554, Control_c, 0, 64, 27
1, 711573, Control_c, 0, 64, 22
1, 711648, Control_c, 0, 64, 29
1, 711666, Control_c, 0, 64, 40
1, 711686, Control_c, 0, 64, 58
1, 711703, Control_c, 0, 64, 74
1, 711723, Control_c, 0, 64, 91
1, 711741, Control_c, 0, 64, 113
1, 711753, Poly_aftertouch_c, 0, 51, 28
1, 711760, Control_c, 0, 64, 127
1, 711763, Note_on_c, 0, 51, 39
1, 711817, Note_off_c, 0, 47, 37
1, 711968, Note_off_c, 0, 51, 40
1, 712008, Poly_aftertouch_c, 0, 63, 28
1, 712013, Poly_aftertouch_c, 0, 56, 28
1, 712014, Note_off_c, 0, 71, 35
1, 712019, Note_on_c, 0, 63, 49
1, 712023, Note_on_c, 0, 56, 34
1, 712039, Note_off_c, 0, 68, 41
1, 712057, Note_off_c, 0, 59, 41
1, 712215, Note_off_c, 0, 56, 42
1, 712287, Poly_aftertouch_c, 0, 51, 28
1, 712295, Note_on_c, 0, 51, 40
1, 712343, Note_off_c, 0, 51, 48
1, 712735, Note_off_c, 0, 63, 58
1, 712768, Poly_aftertouch_c, 0, 69, 28
1, 712771, Note_on_c, 0, 69, 48
1, 712783, Poly_aftertouch_c, 0, 66, 28
1, 712790, Control_c, 0, 64, 109
1, 712793, Note_on_c, 0, 66, 42
1, 712793, Poly_aftertouch_c, 0, 35, 28
1, 712794, Poly_aftertouch_c, 0, 57, 28
1, 712800, Note_on_c, 0, 35, 38
1, 712803, Note_on_c, 0, 57, 33
1, 712808, Control_c, 0, 64, 99
1, 712827, Control_c, 0, 64, 88
1, 712845, Control_c, 0, 64, 74
1, 712864, Control_c, 0, 64, 60
1, 712883, Control_c, 0, 64, 45
1, 712901, Control_c, 0, 64, 31
1, 712921, Control_c, 0, 64, 23
1, 713033, Control_c, 0, 64, 31
1, 713051, Control_c, 0, 64, 41
1, 713070, Control_c, 0, 64, 57
1, 713089, Control_c, 0, 64, 69
1, 713107, Control_c, 0, 64, 78
1, 713127, Control_c, 0, 64, 85
1, 713145, Control_c, 0, 64, 90
1, 713164, Control_c, 0, 64, 95
1, 713183, Control_c, 0, 64, 102
1, 713201, Control_c, 0, 64, 114
1, 713220, Control_c, 0, 64, 127
1, 713232, Note_off_c, 0, 35, 29
1, 713270, Poly_aftertouch_c, 0, 42, 28
1, 713277, Note_on_c, 0, 42, 40
1, 713388, Note_off_c, 0, 42, 41
1, 713543, Poly_aftertouch_c, 0, 47, 28
1, 713549, Note_on_c, 0, 47, 39
1, 713604, Note_off_c, 0, 47, 47
1, 713761, Poly_aftertouch_c, 0, 49, 28
1, 713765, Note_on_c, 0, 49, 42
1, 713879, Note_off_c, 0, 57, 31
1, 713951, Note_off_c, 0, 49, 31
1, 713979, Poly_aftertouch_c, 0, 51, 28
1, 713983, Note_on_c, 0, 51, 41
1, 714088, Note_off_c, 0, 66, 35
1, 714171, Poly_aftertouch_c, 0, 54, 28
1, 714178, Note_on_c, 0, 54, 46
1, 714180, Note_off_c, 0, 51, 39
1, 714279, Note_off_c, 0, 69, 35
1, 714378, Note_off_c, 0, 54, 34
1, 714449, Poly_aftertouch_c, 0, 59, 28
1, 714452, Note_on_c, 0, 59, 37
1, 714514, Note_off_c, 0, 59, 40
1, 714783, Poly_aftertouch_c, 0, 63, 28
1, 714793, Note_on_c, 0, 63, 41
1, 714871, Note_off_c, 0, 63, 57
1, 715271, Poly_aftertouch_c, 0, 56, 28
1, 715281, Note_on_c, 0, 56, 35
1, 715334, Poly_aftertouch_c, 0, 59, 28
1, 715340, Note_on_c, 0, 59, 30
1, 715365, Poly_aftertouch_c, 0, 64, 28
1, 715372, Note_on_c, 0, 64, 40
1, 715435, Poly_aftertouch_c, 0, 68, 28
1, 715449, Note_on_c, 0, 68, 39
1, 715577, Poly_aftertouch_c, 0, 90, 28
1, 715577, Control_c, 0, 64, 107
1, 715580, Note_on_c, 0, 90, 74
1, 715592, Poly_aftertouch_c, 0, 78, 28
1, 715597, Control_c, 0, 64, 81
1, 715601, Note_on_c, 0, 78, 43
1, 715613, Poly_aftertouch_c, 0, 86, 28
1, 715615, Note_on_c, 0, 86, 48
1, 715616, Control_c, 0, 64, 60
1, 715635, Control_c, 0, 64, 40
1, 715653, Control_c, 0, 64, 25
1, 715673, Control_c, 0, 64, 19
1, 715747, Control_c, 0, 64, 26
1, 715767, Control_c, 0, 64, 38
1, 715784, Control_c, 0, 64, 58
1, 715803, Control_c, 0, 64, 79
1, 715822, Control_c, 0, 64, 114
1, 715840, Control_c, 0, 64, 127
1, 715866, Note_off_c, 0, 68, 46
1, 715913, Note_off_c, 0, 59, 33
1, 715914, Note_off_c, 0, 64, 34
1, 715934, Control_c, 0, 67, 123
1, 715953, Control_c, 0, 67, 118
1, 715972, Control_c, 0, 67, 111
1, 715990, Control_c, 0, 67, 104
1, 716010, Control_c, 0, 67, 97
1, 716017, Note_off_c, 0, 56, 40
1, 716028, Control_c, 0, 67, 89
1, 716045, Control_c, 0, 67, 81
1, 716060, Note_off_c, 0, 86, 35
1, 716063, Control_c, 0, 67, 74
1, 716084, Control_c, 0, 67, 68
1, 716086, Note_off_c, 0, 90, 64
1, 716102, Control_c, 0, 67, 61
1, 716122, Control_c, 0, 67, 53
1, 716140, Control_c, 0, 67, 46
1, 716159, Control_c, 0, 67, 41
1, 716177, Control_c, 0, 67, 36
1, 716210, Note_off_c, 0, 78, 45
1, 716216, Control_c, 0, 67, 32
1, 716327, Control_c, 0, 67, 36
1, 716401, Control_c, 0, 67, 40
1, 716477, Control_c, 0, 67, 45
1, 716497, Control_c, 0, 67, 49
1, 716514, Control_c, 0, 67, 54
1, 716533, Control_c, 0, 67, 59
1, 716552, Control_c, 0, 67, 64
1, 716571, Control_c, 0, 67, 68
1, 716589, Control_c, 0, 67, 74
1, 716608, Control_c, 0, 67, 80
1, 716626, Control_c, 0, 67, 86
1, 716645, Control_c, 0, 67, 93
1, 716663, Control_c, 0, 67, 99
1, 716683, Control_c, 0, 67, 104
1, 716701, Control_c, 0, 67, 110
1, 716720, Control_c, 0, 67, 115
1, 716739, Control_c, 0, 67, 119
1, 716758, Control_c, 0, 67, 124
1, 717010, Poly_aftertouch_c, 0, 88, 28
1, 717017, Note_on_c, 0, 88, 68
1, 717030, Poly_aftertouch_c, 0, 28, 28
1, 717034, Poly_aftertouch_c, 0, 85, 28
1, 717042, Note_on_c, 0, 28, 41
1, 717042, Note_on_c, 0, 85, 53
1, 717049, Poly_aftertouch_c, 0, 76, 28
1, 717054, Note_on_c, 0, 76, 40
1, 717056, Control_c, 0, 64, 99
1, 717077, Control_c, 0, 64, 72
1, 717097, Control_c, 0, 64, 52
1, 717113, Control_c, 0, 64, 38
1, 717188, Control_c, 0, 64, 49
1, 717207, Control_c, 0, 64, 64
1, 717226, Control_c, 0, 64, 79
1, 717244, Control_c, 0, 64, 106
1, 717263, Control_c, 0, 64, 127
1, 717280, Note_off_c, 0, 28, 34
1, 717518, Poly_aftertouch_c, 0, 40, 28
1, 717522, Note_on_c, 0, 40, 28
1, 717574, Note_off_c, 0, 40, 42
1, 717827, Poly_aftertouch_c, 0, 44, 28
1, 717835, Note_on_c, 0, 44, 42
1, 717851, Note_off_c, 0, 85, 42
1, 717869, Note_off_c, 0, 88, 42
1, 717922, Note_off_c, 0, 76, 53
1, 718006, Note_off_c, 0, 44, 37
1, 718041, Poly_aftertouch_c, 0, 47, 28
1, 718049, Note_on_c, 0, 47, 41
1, 718127, Note_off_c, 0, 47, 47
1, 718244, Poly_aftertouch_c, 0, 52, 28
1, 718251, Note_on_c, 0, 52, 36
1, 718312, Note_off_c, 0, 52, 42
1, 718395, Poly_aftertouch_c, 0, 54, 28
1, 718403, Note_on_c, 0, 54, 47
1, 718541, Note_off_c, 0, 54, 48
1, 718576, Poly_aftertouch_c, 0, 86, 28
1, 718581, Note_on_c, 0, 86, 60
1, 718587, Poly_aftertouch_c, 0, 56, 28
1, 718595, Note_on_c, 0, 56, 45
1, 718595, Poly_aftertouch_c, 0, 83, 28
1, 718601, Note_on_c, 0, 83, 41
1, 718601, Poly_aftertouch_c, 0, 74, 28
1, 718605, Note_on_c, 0, 74, 34
1, 718684, Note_off_c, 0, 74, 0
1, 718684, Poly_aftertouch_c, 0, 74, 28
1, 718729, Note_off_c, 0, 83, 40
1, 718732, Note_off_c, 0, 56, 56
1, 718753, Poly_aftertouch_c, 0, 59, 28
1, 718760, Note_on_c, 0, 59, 37
1, 718851, Poly_aftertouch_c, 0, 74, 0
1, 718951, Note_off_c, 0, 59, 36
1, 718992, Poly_aftertouch_c, 0, 78, 28
1, 719000, Note_on_c, 0, 78, 65
1, 719007, Note_off_c, 0, 86, 63
1, 719014, Poly_aftertouch_c, 0, 62, 28
1, 719022, Note_on_c, 0, 62, 33
1, 719141, Note_off_c, 0, 62, 47
1, 719344, Note_off_c, 0, 78, 59
1, 719357, Poly_aftertouch_c, 0, 85, 28
1, 719363, Note_on_c, 0, 85, 73
1, 719364, Poly_aftertouch_c, 0, 81, 28
1, 719366, Note_on_c, 0, 81, 53
1, 719369, Poly_aftertouch_c, 0, 73, 28
1, 719376, Note_on_c, 0, 73, 42
1, 719480, Note_off_c, 0, 81, 53
1, 719554, Note_off_c, 0, 73, 45
1, 719557, Note_off_c, 0, 85, 64
1, 719743, Poly_aftertouch_c, 0, 28, 28
1, 719752, Note_on_c, 0, 28, 40
1, 719864, Control_c, 0, 64, 93
1, 719872, Poly_aftertouch_c, 0, 83, 28
1, 719877, Note_on_c, 0, 83, 74
1, 719884, Control_c, 0, 64, 69
1, 719891, Poly_aftertouch_c, 0, 80, 28
1, 719902, Note_on_c, 0, 80, 59
1, 719903, Control_c, 0, 64, 52
1, 719917, Poly_aftertouch_c, 0, 71, 28
1, 719921, Control_c, 0, 64, 46
1, 719927, Note_on_c, 0, 71, 31
1, 719960, Control_c, 0, 64, 50
1, 719978, Control_c, 0, 64, 58
1, 719996, Control_c, 0, 64, 67
1, 720015, Control_c, 0, 64, 76
1, 720034, Control_c, 0, 64, 92
1, 720052, Control_c, 0, 64, 127
1, 720092, Note_off_c, 0, 28, 39
1, 720154, Poly_aftertouch_c, 0, 40, 28
1, 720159, Note_on_c, 0, 40, 40
1, 720209, Note_off_c, 0, 40, 49
1, 720376, Poly_aftertouch_c, 0, 44, 28
1, 720383, Note_on_c, 0, 44, 50
1, 720561, Poly_aftertouch_c, 0, 47, 28
1, 720565, Note_off_c, 0, 44, 33
1, 720569, Note_on_c, 0, 47, 55
1, 720590, Note_off_c, 0, 80, 42
1, 720653, Note_off_c, 0, 83, 48
1, 720683, Note_off_c, 0, 47, 52
1, 720739, Note_off_c, 0, 71, 46
1, 720742, Poly_aftertouch_c, 0, 50, 28
1, 720748, Note_on_c, 0, 50, 55
1, 720801, Note_off_c, 0, 50, 58
1, 720900, Poly_aftertouch_c, 0, 52, 28
1, 720906, Note_on_c, 0, 52, 57
1, 721049, Note_off_c, 0, 52, 51
1, 721090, Poly_aftertouch_c, 0, 81, 28
1, 721092, Note_on_c, 0, 81, 76
1, 721094, Poly_aftertouch_c, 0, 54, 28
1, 721103, Note_on_c, 0, 54, 55
1, 721106, Poly_aftertouch_c, 0, 78, 28
1, 721116, Note_on_c, 0, 78, 56
1, 721132, Note_on_c, 0, 69, 35
1, 721132, Poly_aftertouch_c, 0, 69, 28
1, 721266, Note_off_c, 0, 69, 27
1, 721269, Poly_aftertouch_c, 0, 57, 28
1, 721277, Note_on_c, 0, 57, 57
1, 721302, Note_off_c, 0, 78, 61
1, 721337, Note_off_c, 0, 54, 35
1, 721565, Poly_aftertouch_c, 0, 74, 28
1, 721570, Note_on_c, 0, 74, 76
1, 721571, Note_off_c, 0, 57, 52
1, 721579, Poly_aftertouch_c, 0, 59, 28
1, 721582, Note_on_c, 0, 59, 50
1, 721586, Control_c, 0, 67, 120
1, 721646, Note_off_c, 0, 81, 46
1, 721756, Control_c, 0, 67, 116
1, 721867, Note_off_c, 0, 59, 53
1, 721952, Poly_aftertouch_c, 0, 80, 28
1, 721956, Note_on_c, 0, 80, 80
1, 721961, Note_off_c, 0, 74, 61
1, 721975, Poly_aftertouch_c, 0, 76, 28
1, 721979, Note_on_c, 0, 76, 62
1, 721984, Poly_aftertouch_c, 0, 68, 28
1, 721996, Note_on_c, 0, 68, 37
1, 722066, Note_off_c, 0, 76, 61
1, 722143, Note_off_c, 0, 80, 64
1, 722269, Note_off_c, 0, 68, 51
1, 722406, Poly_aftertouch_c, 0, 40, 28
1, 722413, Note_on_c, 0, 40, 47
1, 722505, Poly_aftertouch_c, 0, 78, 28
1, 722505, Control_c, 0, 64, 85
1, 722509, Note_on_c, 0, 78, 79
1, 722524, Control_c, 0, 64, 60
1, 722533, Poly_aftertouch_c, 0, 66, 28
1, 722539, Note_on_c, 0, 66, 39
1, 722539, Control_c, 0, 64, 41
1, 722544, Poly_aftertouch_c, 0, 74, 28
1, 722549, Note_on_c, 0, 74, 51
1, 722560, Control_c, 0, 64, 34
1, 722617, Control_c, 0, 64, 42
1, 722635, Control_c, 0, 64, 56
1, 722655, Control_c, 0, 64, 73
1, 722658, Note_off_c, 0, 40, 61
1, 722672, Control_c, 0, 64, 94
1, 722691, Control_c, 0, 64, 127
1, 722856, Poly_aftertouch_c, 0, 50, 28
1, 722871, Note_on_c, 0, 50, 30
1, 723036, Note_off_c, 0, 50, 41
1, 723038, Poly_aftertouch_c, 0, 69, 28
1, 723039, Note_off_c, 0, 78, 58
1, 723042, Note_on_c, 0, 69, 67
1, 723049, Poly_aftertouch_c, 0, 54, 28
1, 723055, Note_off_c, 0, 74, 38
1, 723055, Note_on_c, 0, 54, 48
1, 723066, Note_off_c, 0, 66, 30
1, 723167, Note_off_c, 0, 54, 54
1, 723217, Poly_aftertouch_c, 0, 57, 28
1, 723224, Note_on_c, 0, 57, 45
1, 723261, Note_off_c, 0, 57, 55
1, 723375, Poly_aftertouch_c, 0, 40, 28
1, 723381, Note_on_c, 0, 40, 62
1, 723382, Note_off_c, 0, 69, 57
1, 723384, Control_c, 0, 64, 97
1, 723402, Poly_aftertouch_c, 0, 76, 28
1, 723402, Control_c, 0, 64, 68
1, 723405, Note_on_c, 0, 76, 81
1, 723416, Poly_aftertouch_c, 0, 73, 28
1, 723421, Control_c, 0, 64, 46
1, 723423, Note_on_c, 0, 73, 68
1, 723440, Note_on_c, 0, 64, 53
1, 723440, Poly_aftertouch_c, 0, 64, 28
1, 723440, Control_c, 0, 64, 35
1, 723496, Control_c, 0, 64, 48
1, 723499, Note_off_c, 0, 40, 62
1, 723516, Control_c, 0, 64, 65
1, 723534, Control_c, 0, 64, 83
1, 723553, Control_c, 0, 64, 127
1, 723649, Poly_aftertouch_c, 0, 49, 28
1, 723651, Note_on_c, 0, 49, 48
1, 723789, Note_off_c, 0, 49, 46
1, 723828, Poly_aftertouch_c, 0, 68, 28
1, 723835, Note_off_c, 0, 76, 55
1, 723835, Note_on_c, 0, 68, 71
1, 723843, Poly_aftertouch_c, 0, 52, 28
1, 723848, Note_on_c, 0, 52, 48
1, 723870, Note_off_c, 0, 64, 52
1, 723881, Note_off_c, 0, 73, 44
1, 723975, Note_off_c, 0, 52, 56
1, 724010, Poly_aftertouch_c, 0, 56, 28
1, 724016, Note_on_c, 0, 56, 57
1, 724055, Note_off_c, 0, 56, 64
1, 724248, Poly_aftertouch_c, 0, 40, 28
1, 724253, Note_on_c, 0, 40, 57
1, 724302, Poly_aftertouch_c, 0, 74, 28
1, 724307, Note_on_c, 0, 74, 85
1, 724312, Note_off_c, 0, 68, 62
1, 724318, Poly_aftertouch_c, 0, 71, 28
1, 724320, Control_c, 0, 64, 96
1, 724322, Note_on_c, 0, 71, 73
1, 724333, Poly_aftertouch_c, 0, 62, 28
1, 724337, Note_on_c, 0, 62, 64
1, 724338, Control_c, 0, 64, 69
1, 724358, Control_c, 0, 64, 46
1, 724377, Control_c, 0, 64, 29
1, 724395, Control_c, 0, 64, 24
1, 724451, Control_c, 0, 64, 32
1, 724470, Control_c, 0, 64, 46
1, 724488, Control_c, 0, 64, 67
1, 724509, Control_c, 0, 64, 87
1, 724524, Note_off_c, 0, 40, 52
1, 724526, Control_c, 0, 64, 127
1, 724538, Note_off_c, 0, 71, 61
1, 724561, Poly_aftertouch_c, 0, 47, 28
1, 724570, Note_on_c, 0, 47, 39
1, 724799, Poly_aftertouch_c, 0, 66, 28
1, 724805, Note_on_c, 0, 66, 78
1, 724813, Poly_aftertouch_c, 0, 50, 28
1, 724820, Note_on_c, 0, 50, 55
1, 724823, Note_off_c, 0, 47, 39
1, 724855, Note_off_c, 0, 74, 61
1, 724859, Note_off_c, 0, 62, 55
1, 725032, Control_c, 0, 67, 112
1, 725042, Note_off_c, 0, 50, 33
1, 725051, Control_c, 0, 67, 106
1, 725065, Poly_aftertouch_c, 0, 54, 28
1, 725069, Control_c, 0, 67, 102
1, 725071, Note_on_c, 0, 54, 57
1, 725106, Control_c, 0, 67, 97
1, 725162, Control_c, 0, 67, 93
1, 725179, Note_off_c, 0, 54, 55
1, 725561, Poly_aftertouch_c, 0, 73, 28
1, 725563, Note_on_c, 0, 73, 84
1, 725566, Poly_aftertouch_c, 0, 69, 28
1, 725570, Note_on_c, 0, 69, 68
1, 725580, Poly_aftertouch_c, 0, 61, 28
1, 725585, Note_on_c, 0, 61, 58
1, 725586, Note_off_c, 0, 66, 58
1, 725668, Control_c, 0, 64, 96
1, 725687, Control_c, 0, 64, 75
1, 725705, Control_c, 0, 64, 57
1, 725725, Control_c, 0, 64, 41
1, 725742, Control_c, 0, 64, 28
1, 725763, Control_c, 0, 64, 22
1, 725873, Control_c, 0, 64, 28
1, 725892, Control_c, 0, 64, 35
1, 725911, Control_c, 0, 64, 45
1, 725931, Control_c, 0, 64, 59
1, 725933, Poly_aftertouch_c, 0, 40, 28
1, 725941, Note_on_c, 0, 40, 47
1, 725946, Control_c, 0, 64, 70
1, 725968, Control_c, 0, 64, 76
1, 725987, Control_c, 0, 64, 80
1, 726005, Control_c, 0, 64, 82
1, 726025, Control_c, 0, 64, 84
1, 726042, Control_c, 0, 64, 87
1, 726062, Control_c, 0, 64, 94
1, 726079, Control_c, 0, 64, 103
1, 726099, Control_c, 0, 64, 116
1, 726117, Control_c, 0, 64, 127
1, 726218, Poly_aftertouch_c, 0, 45, 28
1, 726222, Note_on_c, 0, 45, 53
1, 726253, Note_off_c, 0, 40, 37
1, 726407, Note_off_c, 0, 45, 55
1, 726411, Poly_aftertouch_c, 0, 49, 28
1, 726416, Note_on_c, 0, 49, 57
1, 726553, Note_off_c, 0, 49, 56
1, 726590, Poly_aftertouch_c, 0, 52, 28
1, 726595, Note_on_c, 0, 52, 57
1, 726641, Note_off_c, 0, 52, 62
1, 726673, Note_off_c, 0, 61, 36
1, 726768, Poly_aftertouch_c, 0, 57, 28
1, 726773, Note_on_c, 0, 57, 60
1, 726887, Note_off_c, 0, 69, 35
1, 726936, Note_off_c, 0, 57, 56
1, 726949, Poly_aftertouch_c, 0, 61, 28
1, 726954, Note_on_c, 0, 61, 51
1, 726971, Note_off_c, 0, 73, 60
1, 727109, Note_off_c, 0, 61, 47
1, 727147, Poly_aftertouch_c, 0, 64, 28
1, 727152, Note_on_c, 0, 64, 48
1, 727188, Note_off_c, 0, 64, 60
1, 727387, Poly_aftertouch_c, 0, 60, 28
1, 727390, Note_on_c, 0, 60, 61
1, 727440, Poly_aftertouch_c, 0, 69, 28
1, 727445, Note_on_c, 0, 69, 57
1, 727590, Note_on_c, 0, 72, 81
1, 727591, Poly_aftertouch_c, 0, 72, 28
1, 727593, Poly_aftertouch_c, 0, 90, 28
1, 727596, Control_c, 0, 64, 117
1, 727597, Note_on_c, 0, 90, 77
1, 727614, Control_c, 0, 64, 85
1, 727632, Poly_aftertouch_c, 0, 78, 28
1, 727632, Control_c, 0, 64, 62
1, 727645, Note_on_c, 0, 78, 25
1, 727650, Control_c, 0, 64, 41
1, 727670, Poly_aftertouch_c, 0, 81, 28
1, 727670, Control_c, 0, 64, 24
1, 727690, Control_c, 0, 64, 16
1, 727722, Poly_aftertouch_c, 0, 81, 127
1, 727784, Control_c, 0, 64, 22
1, 727802, Control_c, 0, 64, 34
1, 727821, Control_c, 0, 64, 54
1, 727839, Control_c, 0, 64, 76
1, 727859, Control_c, 0, 64, 108
1, 727877, Control_c, 0, 64, 127
1, 727927, Note_off_c, 0, 90, 65
1, 727990, Poly_aftertouch_c, 0, 81, 0
1, 728007, Note_off_c, 0, 72, 56
1, 728042, Note_off_c, 0, 78, 55
1, 728098, Note_off_c, 0, 69, 49
1, 728150, Poly_aftertouch_c, 0, 60, 24
1, 728199, Note_off_c, 0, 60, 38
1, 728725, Poly_aftertouch_c, 0, 71, 28
1, 728732, Note_on_c, 0, 71, 65
1, 728747, Poly_aftertouch_c, 0, 68, 28
1, 728756, Poly_aftertouch_c, 0, 59, 28
1, 728757, Note_on_c, 0, 68, 45
1, 728761, Note_on_c, 0, 59, 35
1, 728794, Control_c, 0, 64, 122
1, 728813, Control_c, 0, 64, 93
1, 728832, Control_c, 0, 64, 73
1, 728850, Control_c, 0, 64, 57
1, 728869, Control_c, 0, 64, 42
1, 728888, Control_c, 0, 64, 31
1, 728906, Control_c, 0, 64, 25
1, 729037, Control_c, 0, 64, 35
1, 729049, Poly_aftertouch_c, 0, 40, 28
1, 729057, Note_on_c, 0, 40, 39
1, 729057, Control_c, 0, 64, 47
1, 729075, Control_c, 0, 64, 64
1, 729093, Control_c, 0, 64, 77
1, 729113, Control_c, 0, 64, 90
1, 729131, Control_c, 0, 64, 103
1, 729149, Control_c, 0, 64, 116
1, 729167, Control_c, 0, 64, 127
1, 729314, Poly_aftertouch_c, 0, 44, 28
1, 729318, Note_on_c, 0, 44, 51
1, 729383, Note_off_c, 0, 40, 32
1, 729392, Note_off_c, 0, 59, 35
1, 729462, Note_off_c, 0, 44, 50
1, 729496, Poly_aftertouch_c, 0, 47, 28
1, 729501, Note_on_c, 0, 47, 54
1, 729603, Note_off_c, 0, 47, 59
1, 729672, Poly_aftertouch_c, 0, 52, 28
1, 729677, Note_on_c, 0, 52, 60
1, 729690, Note_off_c, 0, 68, 37
1, 729727, Note_off_c, 0, 52, 61
1, 729799, Note_off_c, 0, 71, 56
1, 729844, Poly_aftertouch_c, 0, 56, 28
1, 729850, Note_on_c, 0, 56, 60
1, 730002, Note_off_c, 0, 56, 54
1, 730016, Poly_aftertouch_c, 0, 59, 28
1, 730022, Note_on_c, 0, 59, 59
1, 730135, Note_off_c, 0, 59, 59
1, 730188, Poly_aftertouch_c, 0, 64, 28
1, 730192, Note_on_c, 0, 64, 51
1, 730238, Note_off_c, 0, 64, 56
1, 730350, Poly_aftertouch_c, 0, 60, 28
1, 730354, Note_on_c, 0, 60, 56
1, 730397, Poly_aftertouch_c, 0, 68, 28
1, 730405, Note_on_c, 0, 68, 63
1, 730507, Poly_aftertouch_c, 0, 88, 28
1, 730514, Note_on_c, 0, 88, 70
1, 730515, Control_c, 0, 64, 98
1, 730521, Note_on_c, 0, 72, 81
1, 730523, Poly_aftertouch_c, 0, 72, 28
1, 730528, Poly_aftertouch_c, 0, 80, 28
1, 730534, Control_c, 0, 64, 74
1, 730535, Poly_aftertouch_c, 0, 76, 28
1, 730538, Note_on_c, 0, 80, 52
1, 730538, Note_on_c, 0, 76, 42
1, 730553, Control_c, 0, 64, 54
1, 730573, Control_c, 0, 64, 35
1, 730591, Control_c, 0, 64, 22
1, 730610, Control_c, 0, 64, 18
1, 730685, Control_c, 0, 64, 23
1, 730703, Control_c, 0, 64, 36
1, 730722, Control_c, 0, 64, 57
1, 730741, Control_c, 0, 64, 81
1, 730759, Control_c, 0, 64, 127
1, 730783, Note_off_c, 0, 88, 57
1, 730848, Note_off_c, 0, 72, 54
1, 730865, Note_off_c, 0, 80, 57
1, 730897, Note_off_c, 0, 76, 63
1, 730962, Note_off_c, 0, 68, 48
1, 730983, Poly_aftertouch_c, 0, 60, 24
1, 731037, Note_off_c, 0, 60, 37
1, 731746, Poly_aftertouch_c, 0, 73, 28
1, 731799, Poly_aftertouch_c, 0, 73, 127
1, 731804, Poly_aftertouch_c, 0, 61, 28
1, 731807, Note_on_c, 0, 61, 75
1, 731825, Poly_aftertouch_c, 0, 69, 28
1, 731828, Note_on_c, 0, 69, 41
1, 731845, Control_c, 0, 67, 97
1, 731901, Control_c, 0, 64, 119
1, 731920, Control_c, 0, 64, 96
1, 731940, Control_c, 0, 64, 77
1, 731957, Control_c, 0, 64, 61
1, 731976, Control_c, 0, 64, 45
1, 731996, Control_c, 0, 64, 32
1, 732014, Control_c, 0, 64, 22
1, 732032, Control_c, 0, 64, 18
1, 732033, Control_c, 0, 67, 101
1, 732127, Control_c, 0, 67, 107
1, 732165, Control_c, 0, 64, 27
1, 732166, Control_c, 0, 67, 113
1, 732182, Control_c, 0, 64, 33
1, 732183, Control_c, 0, 67, 117
1, 732201, Control_c, 0, 64, 42
1, 732204, Control_c, 0, 67, 122
1, 732219, Control_c, 0, 64, 56
1, 732220, Control_c, 0, 67, 126
1, 732238, Control_c, 0, 64, 68
1, 732251, Poly_aftertouch_c, 0, 40, 28
1, 732255, Control_c, 0, 64, 76
1, 732260, Note_on_c, 0, 40, 35
1, 732275, Control_c, 0, 64, 82
1, 732294, Control_c, 0, 64, 86
1, 732313, Control_c, 0, 64, 92
1, 732331, Control_c, 0, 64, 101
1, 732351, Control_c, 0, 64, 127
1, 732500, Poly_aftertouch_c, 0, 45, 28
1, 732506, Note_on_c, 0, 45, 43
1, 732510, Poly_aftertouch_c, 0, 40, 20
1, 732518, Note_off_c, 0, 40, 33
1, 732688, Note_off_c, 0, 61, 53
1, 732703, Note_off_c, 0, 45, 33
1, 732707, Poly_aftertouch_c, 0, 49, 28
1, 732713, Note_on_c, 0, 49, 43
1, 732769, Poly_aftertouch_c, 0, 69, 24
1, 732838, Note_off_c, 0, 49, 55
1, 732854, Note_off_c, 0, 69, 32
1, 732886, Poly_aftertouch_c, 0, 52, 28
1, 732891, Note_on_c, 0, 52, 42
1, 732931, Note_off_c, 0, 52, 52
1, 732965, Poly_aftertouch_c, 0, 73, 0
1, 733056, Poly_aftertouch_c, 0, 57, 28
1, 733060, Note_on_c, 0, 57, 54
1, 733237, Poly_aftertouch_c, 0, 61, 28
1, 733241, Note_on_c, 0, 61, 54
1, 733265, Note_off_c, 0, 57, 34
1, 733401, Note_off_c, 0, 61, 51
1, 733429, Poly_aftertouch_c, 0, 64, 28
1, 733434, Note_on_c, 0, 64, 45
1, 733468, Note_off_c, 0, 64, 54
1, 733709, Poly_aftertouch_c, 0, 60, 28
1, 733712, Note_on_c, 0, 60, 65
1, 733793, Control_c, 0, 64, 102
1, 733806, Note_on_c, 0, 69, 48
1, 733806, Poly_aftertouch_c, 0, 69, 28
1, 733811, Control_c, 0, 64, 76
1, 733829, Control_c, 0, 64, 57
1, 733833, Poly_aftertouch_c, 0, 90, 28
1, 733840, Note_on_c, 0, 90, 56
1, 733844, Poly_aftertouch_c, 0, 78, 28
1, 733845, Control_c, 0, 64, 41
1, 733858, Note_on_c, 0, 78, 41
1, 733859, Note_on_c, 0, 72, 53
1, 733859, Poly_aftertouch_c, 0, 72, 28
1, 733866, Control_c, 0, 64, 33
1, 733870, Poly_aftertouch_c, 0, 81, 28
1, 733874, Note_on_c, 0, 81, 39
1, 733942, Control_c, 0, 64, 38
1, 733960, Control_c, 0, 64, 49
1, 733980, Control_c, 0, 64, 65
1, 733997, Control_c, 0, 64, 81
1, 734017, Control_c, 0, 64, 106
1, 734035, Control_c, 0, 64, 127
1, 734037, Note_off_c, 0, 72, 33
1, 734046, Note_off_c, 0, 90, 64
1, 734092, Note_off_c, 0, 69, 40
1, 734100, Note_off_c, 0, 81, 57
1, 734158, Note_off_c, 0, 78, 60
1, 734245, Note_off_c, 0, 60, 49
1, 734937, Note_on_c, 0, 59, 57
1, 734937, Poly_aftertouch_c, 0, 59, 28
1, 734938, Poly_aftertouch_c, 0, 68, 28
1, 734950, Poly_aftertouch_c, 0, 71, 28
1, 734952, Note_on_c, 0, 68, 36
1, 734958, Note_on_c, 0, 71, 33
1, 735010, Control_c, 0, 64, 119
1, 735027, Control_c, 0, 64, 97
1, 735046, Control_c, 0, 64, 79
1, 735065, Control_c, 0, 64, 64
1, 735083, Control_c, 0, 64, 48
1, 735102, Control_c, 0, 64, 36
1, 735120, Control_c, 0, 64, 29
1, 735230, Poly_aftertouch_c, 0, 40, 28
1, 735237, Note_on_c, 0, 40, 34
1, 735251, Control_c, 0, 64, 40
1, 735271, Control_c, 0, 64, 53
1, 735289, Control_c, 0, 64, 69
1, 735308, Control_c, 0, 64, 81
1, 735326, Control_c, 0, 64, 97
1, 735346, Control_c, 0, 64, 118
1, 735364, Control_c, 0, 64, 127
1, 735453, Poly_aftertouch_c, 0, 44, 28
1, 735462, Note_on_c, 0, 44, 48
1, 735485, Note_off_c, 0, 40, 33
1, 735585, Note_off_c, 0, 44, 48
1, 735633, Poly_aftertouch_c, 0, 47, 28
1, 735641, Note_on_c, 0, 47, 47
1, 735706, Note_off_c, 0, 59, 34
1, 735758, Note_off_c, 0, 47, 44
1, 735830, Note_on_c, 0, 52, 50
1, 735830, Poly_aftertouch_c, 0, 52, 28
1, 735883, Note_off_c, 0, 52, 60
1, 735926, Note_off_c, 0, 68, 41
1, 735952, Note_off_c, 0, 71, 49
1, 736001, Poly_aftertouch_c, 0, 56, 28
1, 736008, Note_on_c, 0, 56, 50
1, 736167, Note_off_c, 0, 56, 53
1, 736191, Poly_aftertouch_c, 0, 59, 28
1, 736196, Note_on_c, 0, 59, 47
1, 736311, Note_off_c, 0, 59, 52
1, 736408, Poly_aftertouch_c, 0, 64, 28
1, 736416, Note_on_c, 0, 64, 40
1, 736454, Note_off_c, 0, 64, 48
1, 736711, Poly_aftertouch_c, 0, 60, 28
1, 736716, Note_on_c, 0, 60, 50
1, 736788, Poly_aftertouch_c, 0, 68, 28
1, 736797, Note_on_c, 0, 68, 53
1, 736804, Control_c, 0, 64, 108
1, 736824, Control_c, 0, 64, 81
1, 736828, Poly_aftertouch_c, 0, 88, 28
1, 736834, Note_on_c, 0, 88, 50
1, 736842, Control_c, 0, 64, 61
1, 736847, Poly_aftertouch_c, 0, 72, 28
1, 736851, Note_on_c, 0, 72, 48
1, 736854, Poly_aftertouch_c, 0, 76, 28
1, 736855, Poly_aftertouch_c, 0, 80, 28
1, 736858, Note_on_c, 0, 76, 38
1, 736861, Control_c, 0, 64, 44
1, 736867, Note_on_c, 0, 80, 40
1, 736881, Control_c, 0, 64, 34
1, 736974, Control_c, 0, 64, 44
1, 736994, Control_c, 0, 64, 60
1, 737011, Control_c, 0, 64, 76
1, 737030, Control_c, 0, 64, 99
1, 737050, Control_c, 0, 64, 127
1, 737061, Note_off_c, 0, 88, 56
1, 737076, Note_off_c, 0, 72, 35
1, 737138, Note_off_c, 0, 68, 37
1, 737154, Note_off_c, 0, 80, 55
1, 737172, Note_off_c, 0, 76, 54
1, 737204, Note_off_c, 0, 60, 53
1, 737274, Control_c, 0, 67, 122
1, 737385, Control_c, 0, 67, 118
1, 738254, Poly_aftertouch_c, 0, 73, 28
1, 738262, Note_on_c, 0, 73, 64
1, 738284, Control_c, 0, 64, 95
1, 738291, Poly_aftertouch_c, 0, 61, 28
1, 738300, Note_on_c, 0, 61, 36
1, 738301, Control_c, 0, 64, 74
1, 738303, Poly_aftertouch_c, 0, 28, 28
1, 738315, Note_on_c, 0, 28, 27
1, 738319, Control_c, 0, 64, 55
1, 738324, Poly_aftertouch_c, 0, 69, 28
1, 738330, Note_on_c, 0, 69, 28
1, 738341, Control_c, 0, 64, 40
1, 738359, Control_c, 0, 64, 33
1, 738434, Control_c, 0, 64, 39
1, 738453, Control_c, 0, 64, 50
1, 738471, Control_c, 0, 64, 66
1, 738492, Control_c, 0, 64, 82
1, 738509, Control_c, 0, 64, 117
1, 738527, Control_c, 0, 64, 127
1, 738553, Note_off_c, 0, 28, 53
1, 738771, Control_c, 0, 67, 122
1, 738920, Control_c, 0, 67, 127
1, 738922, Poly_aftertouch_c, 0, 40, 28
1, 738929, Note_on_c, 0, 40, 33
1, 739054, Poly_aftertouch_c, 0, 69, 24
1, 739073, Note_off_c, 0, 61, 37
1, 739137, Note_off_c, 0, 69, 30
1, 739143, Note_off_c, 0, 40, 21
1, 739285, Poly_aftertouch_c, 0, 45, 28
1, 739294, Note_on_c, 0, 45, 42
1, 739413, Note_off_c, 0, 45, 55
1, 739612, Poly_aftertouch_c, 0, 49, 28
1, 739618, Note_on_c, 0, 49, 39
1, 739806, Note_off_c, 0, 49, 33
1, 739900, Note_off_c, 0, 73, 29
1, 739915, Poly_aftertouch_c, 0, 52, 28
1, 739920, Note_on_c, 0, 52, 39
1, 740061, Note_off_c, 0, 52, 35
1, 740219, Poly_aftertouch_c, 0, 57, 28
1, 740226, Note_on_c, 0, 57, 37
1, 740335, Note_off_c, 0, 57, 51
1, 740536, Poly_aftertouch_c, 0, 61, 28
1, 740542, Note_on_c, 0, 61, 37
1, 740854, Note_off_c, 0, 61, 35
1, 740866, Poly_aftertouch_c, 0, 64, 28
1, 740874, Note_on_c, 0, 64, 34
1, 741182, Poly_aftertouch_c, 0, 69, 28
1, 741186, Poly_aftertouch_c, 0, 64, 24
1, 741187, Note_on_c, 0, 69, 40
1, 741233, Note_off_c, 0, 64, 37
1, 741533, Poly_aftertouch_c, 0, 73, 28
1, 741544, Note_on_c, 0, 73, 45
1, 741570, Poly_aftertouch_c, 0, 69, 24
1, 741672, Note_off_c, 0, 69, 28
1, 741965, Poly_aftertouch_c, 0, 76, 28
1, 741973, Note_on_c, 0, 76, 49
1, 741975, Note_off_c, 0, 73, 29
1, 742203, Note_off_c, 0, 76, 29
1, 742515, Poly_aftertouch_c, 0, 81, 28
1, 742522, Note_on_c, 0, 81, 42
1, 742665, Note_off_c, 0, 81, 51
1, 743397, Poly_aftertouch_c, 0, 85, 28
1, 743406, Note_on_c, 0, 85, 45
1, 743587, Note_off_c, 0, 85, 37
1, 743993, Control_c, 0, 67, 122
1, 744031, Control_c, 0, 67, 118
1, 744049, Control_c, 0, 67, 114
1, 744067, Control_c, 0, 67, 110
1, 744106, Control_c, 0, 67, 103
1, 744143, Control_c, 0, 67, 96
1, 744161, Control_c, 0, 67, 92
1, 744181, Control_c, 0, 67, 87
1, 744198, Control_c, 0, 67, 82
1, 744218, Control_c, 0, 67, 76
1, 744236, Control_c, 0, 67, 68
1, 744256, Control_c, 0, 67, 60
1, 744275, Control_c, 0, 67, 53
1, 744292, Control_c, 0, 67, 45
1, 744312, Control_c, 0, 67, 38
1, 744330, Control_c, 0, 67, 31
1, 744349, Control_c, 0, 67, 23
1, 744367, Control_c, 0, 67, 16
1, 744387, Control_c, 0, 67, 9
1, 744424, Control_c, 0, 67, 0
1, 745359, Control_c, 0, 64, 122
1, 745379, Control_c, 0, 64, 111
1, 745397, Control_c, 0, 64, 104
1, 745416, Control_c, 0, 64, 99
1, 745435, Control_c, 0, 64, 94
1, 745471, Control_c, 0, 64, 89
1, 745509, Control_c, 0, 64, 86
1, 745546, Control_c, 0, 64, 83
1, 745566, Control_c, 0, 64, 81
1, 745584, Control_c, 0, 64, 78
1, 745603, Control_c, 0, 64, 75
1, 745621, Control_c, 0, 64, 70
1, 745641, Control_c, 0, 64, 65
1, 745661, Control_c, 0, 64, 61
1, 745678, Control_c, 0, 64, 57
1, 745697, Control_c, 0, 64, 55
1, 745717, Control_c, 0, 64, 52
1, 745734, Control_c, 0, 64, 48
1, 745752, Control_c, 0, 64, 44
1, 745772, Control_c, 0, 64, 40
1, 745808, Poly_aftertouch_c, 0, 59, 28
1, 745808, Control_c, 0, 64, 34
1, 745812, Note_on_c, 0, 59, 52
1, 745821, Poly_aftertouch_c, 0, 40, 28
1, 745822, Poly_aftertouch_c, 0, 56, 28
1, 745828, Note_on_c, 0, 40, 32
1, 745831, Note_on_c, 0, 56, 49
1, 745847, Control_c, 0, 64, 28
1, 745883, Control_c, 0, 64, 22
1, 745923, Control_c, 0, 64, 18
1, 746221, Control_c, 0, 64, 24
1, 746246, Poly_aftertouch_c, 0, 52, 28
1, 746249, Note_on_c, 0, 52, 67
1, 746258, Control_c, 0, 64, 31
1, 746277, Control_c, 0, 64, 36
1, 746295, Control_c, 0, 64, 45
1, 746315, Control_c, 0, 64, 60
1, 746333, Control_c, 0, 64, 71
1, 746352, Control_c, 0, 64, 80
1, 746370, Control_c, 0, 64, 93
1, 746390, Control_c, 0, 64, 114
1, 746407, Control_c, 0, 64, 127
1, 746420, Note_off_c, 0, 59, 57
1, 746435, Note_off_c, 0, 56, 60
1, 746554, Note_on_c, 0, 59, 79
1, 746557, Poly_aftertouch_c, 0, 56, 28
1, 746557, Poly_aftertouch_c, 0, 59, 28
1, 746559, Note_on_c, 0, 56, 80
1, 746652, Note_off_c, 0, 52, 52
1, 746711, Note_off_c, 0, 59, 57
1, 747022, Poly_aftertouch_c, 0, 50, 28
1, 747023, Poly_aftertouch_c, 0, 60, 28
1, 747029, Note_on_c, 0, 60, 72
1, 747031, Note_on_c, 0, 50, 55
1, 747031, Poly_aftertouch_c, 0, 54, 28
1, 747039, Note_on_c, 0, 54, 62
1, 747043, Poly_aftertouch_c, 0, 38, 28
1, 747045, Note_on_c, 0, 59, 71
1, 747048, Note_on_c, 0, 38, 55
1, 747048, Poly_aftertouch_c, 0, 59, 28
1, 747063, Control_c, 0, 64, 104
1, 747076, Note_off_c, 0, 59, 46
1, 747082, Control_c, 0, 64, 89
1, 747101, Control_c, 0, 64, 76
1, 747119, Control_c, 0, 64, 68
1, 747138, Control_c, 0, 64, 62
1, 747156, Control_c, 0, 64, 57
1, 747175, Control_c, 0, 64, 50
1, 747194, Control_c, 0, 64, 38
1, 747212, Control_c, 0, 64, 20
1, 747242, Note_off_c, 0, 40, 39
1, 747250, Control_c, 0, 64, 0
1, 747475, Control_c, 0, 64, 9
1, 747494, Control_c, 0, 64, 16
1, 747512, Control_c, 0, 64, 24
1, 747532, Control_c, 0, 64, 35
1, 747549, Control_c, 0, 64, 52
1, 747568, Control_c, 0, 64, 67
1, 747587, Control_c, 0, 64, 79
1, 747606, Control_c, 0, 64, 93
1, 747625, Control_c, 0, 64, 112
1, 747643, Control_c, 0, 64, 127
1, 747664, Note_off_c, 0, 60, 60
1, 747730, Note_off_c, 0, 50, 61
1, 747774, Note_off_c, 0, 54, 61
1, 748133, Poly_aftertouch_c, 0, 53, 28
1, 748134, Poly_aftertouch_c, 0, 61, 28
1, 748136, Note_on_c, 0, 53, 61
1, 748138, Note_on_c, 0, 61, 78
1, 748142, Note_on_c, 0, 49, 60
1, 748142, Poly_aftertouch_c, 0, 49, 28
1, 748147, Poly_aftertouch_c, 0, 37, 28
1, 748151, Note_on_c, 0, 37, 68
1, 748205, Control_c, 0, 64, 95
1, 748225, Control_c, 0, 64, 72
1, 748243, Control_c, 0, 64, 53
1, 748261, Control_c, 0, 64, 38
1, 748281, Control_c, 0, 64, 25
1, 748298, Control_c, 0, 64, 17
1, 748318, Control_c, 0, 64, 12
1, 748327, Note_off_c, 0, 38, 52
1, 748355, Control_c, 0, 64, 8
1, 748467, Control_c, 0, 64, 13
1, 748486, Control_c, 0, 64, 20
1, 748504, Control_c, 0, 64, 29
1, 748524, Control_c, 0, 64, 38
1, 748542, Control_c, 0, 64, 49
1, 748561, Control_c, 0, 64, 59
1, 748579, Control_c, 0, 64, 64
1, 748599, Control_c, 0, 64, 65
1, 748616, Control_c, 0, 64, 67
1, 748654, Control_c, 0, 64, 71
1, 748674, Control_c, 0, 64, 76
1, 748691, Control_c, 0, 64, 85
1, 748710, Control_c, 0, 64, 98
1, 748729, Control_c, 0, 64, 127
1, 749080, Poly_aftertouch_c, 0, 32, 28
1, 749085, Note_on_c, 0, 32, 83
1, 749122, Control_c, 0, 64, 84
1, 749142, Control_c, 0, 64, 57
1, 749159, Control_c, 0, 64, 29
1, 749197, Control_c, 0, 64, 0
1, 749290, Control_c, 0, 64, 12
1, 749292, Note_off_c, 0, 37, 60
1, 749309, Control_c, 0, 64, 29
1, 749329, Control_c, 0, 64, 52
1, 749347, Control_c, 0, 64, 76
1, 749366, Control_c, 0, 64, 127
1, 749419, Note_off_c, 0, 49, 38
1, 749448, Note_off_c, 0, 61, 47
1, 749467, Note_off_c, 0, 53, 57
1, 749540, Note_off_c, 0, 56, 59
1, 750469, Poly_aftertouch_c, 0, 61, 28
1, 750473, Note_on_c, 0, 61, 86
1, 750475, Poly_aftertouch_c, 0, 51, 28
1, 750475, Poly_aftertouch_c, 0, 56, 28
1, 750478, Note_on_c, 0, 51, 79
1, 750479, Note_on_c, 0, 56, 76
1, 750526, Control_c, 0, 64, 118
1, 750546, Control_c, 0, 64, 77
1, 750563, Control_c, 0, 64, 52
1, 750583, Control_c, 0, 64, 28
1, 750601, Control_c, 0, 64, 11
1, 750658, Control_c, 0, 64, 0
1, 750900, Control_c, 0, 64, 8
1, 750919, Control_c, 0, 64, 19
1, 750938, Control_c, 0, 64, 32
1, 750956, Control_c, 0, 64, 48
1, 750976, Control_c, 0, 64, 62
1, 750994, Control_c, 0, 64, 68
1, 751014, Control_c, 0, 64, 71
1, 751031, Control_c, 0, 64, 73
1, 751051, Control_c, 0, 64, 77
1, 751069, Control_c, 0, 64, 86
1, 751087, Control_c, 0, 64, 105
1, 751105, Control_c, 0, 64, 127
1, 751500, Note_off_c, 0, 32, 54
1, 751813, Poly_aftertouch_c, 0, 32, 28
1, 751817, Note_on_c, 0, 32, 77
1, 751874, Control_c, 0, 64, 111
1, 751892, Control_c, 0, 64, 81
1, 751912, Control_c, 0, 64, 60
1, 751930, Control_c, 0, 64, 40
1, 751950, Control_c, 0, 64, 22
1, 751967, Control_c, 0, 64, 11
1, 752023, Control_c, 0, 64, 0
1, 752098, Control_c, 0, 64, 8
1, 752116, Control_c, 0, 64, 18
1, 752136, Control_c, 0, 64, 30
1, 752155, Control_c, 0, 64, 45
1, 752173, Control_c, 0, 64, 61
1, 752191, Control_c, 0, 64, 73
1, 752211, Control_c, 0, 64, 83
1, 752229, Control_c, 0, 64, 96
1, 752248, Control_c, 0, 64, 115
1, 752267, Control_c, 0, 64, 127
1, 752520, Note_off_c, 0, 61, 49
1, 752553, Note_off_c, 0, 56, 36
1, 752561, Note_off_c, 0, 51, 37
1, 753345, Poly_aftertouch_c, 0, 56, 28
1, 753345, Poly_aftertouch_c, 0, 60, 28
1, 753350, Note_on_c, 0, 60, 64
1, 753354, Note_on_c, 0, 56, 51
1, 753358, Poly_aftertouch_c, 0, 51, 28
1, 753367, Note_on_c, 0, 51, 44
1, 753390, Control_c, 0, 64, 100
1, 753409, Control_c, 0, 64, 74
1, 753428, Control_c, 0, 64, 54
1, 753446, Control_c, 0, 64, 36
1, 753466, Control_c, 0, 64, 24
1, 753596, Control_c, 0, 64, 35
1, 753615, Control_c, 0, 64, 45
1, 753634, Control_c, 0, 64, 55
1, 753652, Control_c, 0, 64, 63
1, 753670, Control_c, 0, 64, 67
1, 753690, Control_c, 0, 64, 69
1, 753727, Control_c, 0, 64, 73
1, 753746, Control_c, 0, 64, 76
1, 753764, Control_c, 0, 64, 84
1, 753782, Control_c, 0, 64, 95
1, 753802, Control_c, 0, 64, 118
1, 753821, Control_c, 0, 64, 127
1, 754038, Note_off_c, 0, 60, 33
1, 754301, Note_off_c, 0, 56, 39
1, 754755, Poly_aftertouch_c, 0, 51, 24
1, 754838, Note_off_c, 0, 51, 34
1, 755946, Poly_aftertouch_c, 0, 61, 28
1, 755952, Note_on_c, 0, 61, 62
1, 755967, Poly_aftertouch_c, 0, 25, 28
1, 755969, Poly_aftertouch_c, 0, 49, 28
1, 755970, Poly_aftertouch_c, 0, 56, 28
1, 755973, Note_on_c, 0, 49, 40
1, 755974, Note_on_c, 0, 25, 44
1, 755974, Note_on_c, 0, 56, 52
1, 755996, Poly_aftertouch_c, 0, 53, 28
1, 756003, Note_on_c, 0, 53, 40
1, 756066, Control_c, 0, 64, 122
1, 756086, Control_c, 0, 64, 103
1, 756103, Control_c, 0, 64, 90
1, 756124, Control_c, 0, 64, 78
1, 756142, Control_c, 0, 64, 69
1, 756160, Control_c, 0, 64, 61
1, 756179, Control_c, 0, 64, 55
1, 756197, Control_c, 0, 64, 50
1, 756217, Control_c, 0, 64, 45
1, 756221, Note_off_c, 0, 32, 50
1, 756235, Control_c, 0, 64, 39
1, 756254, Control_c, 0, 64, 33
1, 756273, Control_c, 0, 64, 27
1, 756291, Control_c, 0, 64, 23
1, 756347, Control_c, 0, 64, 18
1, 756404, Control_c, 0, 64, 14
1, 756816, Control_c, 0, 64, 18
1, 756852, Control_c, 0, 64, 22
1, 756890, Control_c, 0, 64, 27
1, 756928, Control_c, 0, 64, 34
1, 756948, Control_c, 0, 64, 39
1, 756965, Control_c, 0, 64, 47
1, 756983, Control_c, 0, 64, 56
1, 757002, Control_c, 0, 64, 62
1, 757022, Control_c, 0, 64, 64
1, 757078, Control_c, 0, 64, 65
1, 757096, Control_c, 0, 64, 67
1, 757114, Control_c, 0, 64, 70
1, 757133, Control_c, 0, 64, 74
1, 757152, Control_c, 0, 64, 77
1, 757171, Control_c, 0, 64, 82
1, 757189, Control_c, 0, 64, 87
1, 757209, Control_c, 0, 64, 92
1, 757228, Control_c, 0, 64, 97
1, 757246, Control_c, 0, 64, 103
1, 757265, Control_c, 0, 64, 109
1, 757284, Control_c, 0, 64, 119
1, 757303, Control_c, 0, 64, 127
1, 758051, Note_off_c, 0, 49, 32
1, 758230, Note_off_c, 0, 25, 33
1, 758554, Note_off_c, 0, 53, 29
1, 758766, Note_off_c, 0, 61, 35
1, 758822, Note_off_c, 0, 56, 33
1, 760836, Poly_aftertouch_c, 0, 80, 28
1, 760844, Note_on_c, 0, 80, 64
1, 761083, Control_c, 0, 64, 106
1, 761103, Control_c, 0, 64, 86
1, 761120, Control_c, 0, 64, 71
1, 761139, Control_c, 0, 64, 58
1, 761159, Control_c, 0, 64, 46
1, 761177, Control_c, 0, 64, 34
1, 761196, Control_c, 0, 64, 25
1, 761214, Control_c, 0, 64, 18
1, 761234, Control_c, 0, 64, 14
1, 761327, Control_c, 0, 67, 8
1, 761364, Control_c, 0, 64, 24
1, 761383, Control_c, 0, 64, 35
1, 761401, Control_c, 0, 64, 52
1, 761420, Control_c, 0, 64, 70
1, 761440, Control_c, 0, 64, 86
1, 761442, Control_c, 0, 67, 12
1, 761458, Control_c, 0, 64, 109
1, 761476, Control_c, 0, 64, 127
1, 761571, Control_c, 0, 67, 17
1, 761645, Control_c, 0, 67, 22
1, 761700, Control_c, 0, 67, 28
1, 761730, Poly_aftertouch_c, 0, 77, 28
1, 761733, Note_on_c, 0, 77, 56
1, 762225, Poly_aftertouch_c, 0, 73, 28
1, 762231, Note_on_c, 0, 73, 56
1, 762478, Poly_aftertouch_c, 0, 33, 28
1, 762486, Note_on_c, 0, 33, 36
1, 762584, Poly_aftertouch_c, 0, 71, 28
1, 762590, Note_on_c, 0, 71, 58
1, 762621, Note_off_c, 0, 73, 36
1, 762634, Note_off_c, 0, 77, 41
1, 762692, Note_off_c, 0, 33, 36
1, 762726, Poly_aftertouch_c, 0, 45, 28
1, 762733, Note_on_c, 0, 45, 51
1, 762778, Note_off_c, 0, 45, 62
1, 762984, Poly_aftertouch_c, 0, 73, 28
1, 762989, Note_off_c, 0, 71, 56
1, 762992, Note_on_c, 0, 73, 65
1, 762994, Poly_aftertouch_c, 0, 69, 28
1, 762998, Note_on_c, 0, 69, 48
1, 763008, Poly_aftertouch_c, 0, 49, 28
1, 763014, Note_on_c, 0, 49, 48
1, 763050, Control_c, 0, 64, 89
1, 763067, Control_c, 0, 64, 69
1, 763086, Control_c, 0, 64, 56
1, 763106, Control_c, 0, 64, 53
1, 763142, Control_c, 0, 64, 59
1, 763161, Control_c, 0, 64, 64
1, 763180, Control_c, 0, 64, 69
1, 763198, Control_c, 0, 64, 76
1, 763210, Note_off_c, 0, 73, 61
1, 763217, Control_c, 0, 64, 86
1, 763226, Poly_aftertouch_c, 0, 54, 28
1, 763236, Note_on_c, 0, 54, 51
1, 763236, Control_c, 0, 64, 104
1, 763255, Control_c, 0, 64, 127
1, 763333, Poly_aftertouch_c, 0, 78, 28
1, 763342, Note_on_c, 0, 78, 79
1, 763397, Note_off_c, 0, 80, 61
1, 763500, Poly_aftertouch_c, 0, 57, 28
1, 763505, Note_on_c, 0, 57, 50
1, 763533, Note_off_c, 0, 78, 63
1, 763924, Poly_aftertouch_c, 0, 76, 28
1, 763927, Note_on_c, 0, 76, 77
1, 763946, Poly_aftertouch_c, 0, 61, 28
1, 763952, Note_on_c, 0, 61, 54
1, 763985, Control_c, 0, 64, 107
1, 764003, Control_c, 0, 64, 77
1, 764023, Control_c, 0, 64, 54
1, 764041, Control_c, 0, 64, 36
1, 764059, Control_c, 0, 64, 29
1, 764116, Control_c, 0, 64, 37
1, 764135, Control_c, 0, 64, 50
1, 764153, Control_c, 0, 64, 66
1, 764173, Control_c, 0, 64, 81
1, 764191, Control_c, 0, 64, 108
1, 764200, Note_off_c, 0, 69, 57
1, 764209, Control_c, 0, 64, 127
1, 764227, Control_c, 0, 67, 24
1, 764249, Note_off_c, 0, 61, 55
1, 764349, Note_off_c, 0, 57, 35
1, 764428, Poly_aftertouch_c, 0, 73, 28
1, 764435, Note_on_c, 0, 73, 72
1, 764457, Note_off_c, 0, 54, 31
1, 764474, Note_off_c, 0, 49, 56
1, 764778, Poly_aftertouch_c, 0, 69, 28
1, 764781, Note_on_c, 0, 69, 72
1, 764862, Note_off_c, 0, 76, 47
1, 764968, Poly_aftertouch_c, 0, 35, 28
1, 764972, Note_on_c, 0, 35, 55
1, 765011, Note_off_c, 0, 73, 35
1, 765069, Poly_aftertouch_c, 0, 68, 28
1, 765073, Note_off_c, 0, 69, 60
1, 765077, Note_on_c, 0, 68, 75
1, 765181, Poly_aftertouch_c, 0, 45, 28
1, 765182, Note_on_c, 0, 45, 56
1, 765220, Note_off_c, 0, 35, 32
1, 765351, Control_c, 0, 64, 94
1, 765361, Note_off_c, 0, 45, 59
1, 765371, Control_c, 0, 64, 78
1, 765381, Poly_aftertouch_c, 0, 47, 28
1, 765386, Note_on_c, 0, 47, 62
1, 765388, Control_c, 0, 64, 74
1, 765390, Note_on_c, 0, 69, 80
1, 765391, Poly_aftertouch_c, 0, 69, 28
1, 765397, Note_on_c, 0, 66, 58
1, 765397, Poly_aftertouch_c, 0, 66, 28
1, 765406, Control_c, 0, 64, 76
1, 765417, Note_off_c, 0, 68, 56
1, 765426, Control_c, 0, 64, 83
1, 765428, Note_off_c, 0, 47, 62
1, 765445, Control_c, 0, 64, 94
1, 765464, Control_c, 0, 64, 121
1, 765482, Control_c, 0, 64, 127
1, 765524, Note_off_c, 0, 66, 54
1, 765560, Note_off_c, 0, 69, 60
1, 765585, Poly_aftertouch_c, 0, 54, 28
1, 765593, Note_on_c, 0, 54, 65
1, 765690, Poly_aftertouch_c, 0, 76, 28
1, 765694, Note_on_c, 0, 76, 87
1, 765809, Poly_aftertouch_c, 0, 57, 28
1, 765815, Note_on_c, 0, 57, 64
1, 766120, Control_c, 0, 64, 89
1, 766126, Poly_aftertouch_c, 0, 59, 28
1, 766128, Note_on_c, 0, 59, 71
1, 766129, Poly_aftertouch_c, 0, 75, 28
1, 766131, Note_on_c, 0, 75, 81
1, 766138, Control_c, 0, 64, 64
1, 766156, Control_c, 0, 64, 43
1, 766174, Control_c, 0, 64, 33
1, 766179, Note_off_c, 0, 76, 61
1, 766231, Control_c, 0, 64, 47
1, 766249, Control_c, 0, 64, 62
1, 766268, Control_c, 0, 64, 76
1, 766269, Control_c, 0, 67, 20
1, 766287, Control_c, 0, 64, 94
1, 766305, Control_c, 0, 64, 127
1, 766325, Control_c, 0, 67, 12
1, 766379, Note_off_c, 0, 59, 58
1, 766381, Control_c, 0, 67, 0
1, 766410, Note_off_c, 0, 57, 56
1, 766477, Note_off_c, 0, 54, 52
1, 766560, Poly_aftertouch_c, 0, 64, 28
1, 766562, Poly_aftertouch_c, 0, 73, 28
1, 766564, Note_on_c, 0, 64, 82
1, 766568, Note_on_c, 0, 73, 76
1, 766618, Note_off_c, 0, 75, 59
1, 766675, Note_off_c, 0, 73, 61
1, 766999, Poly_aftertouch_c, 0, 28, 28
1, 767006, Note_on_c, 0, 28, 55
1, 767111, Control_c, 0, 64, 103
1, 767123, Poly_aftertouch_c, 0, 63, 28
1, 767128, Note_on_c, 0, 63, 83
1, 767129, Control_c, 0, 64, 72
1, 767135, Poly_aftertouch_c, 0, 71, 28
1, 767139, Note_on_c, 0, 71, 72
1, 767147, Control_c, 0, 64, 50
1, 767167, Control_c, 0, 64, 32
1, 767177, Note_off_c, 0, 64, 56
1, 767186, Control_c, 0, 64, 28
1, 767223, Control_c, 0, 64, 33
1, 767242, Control_c, 0, 64, 46
1, 767261, Control_c, 0, 64, 62
1, 767279, Control_c, 0, 64, 75
1, 767298, Control_c, 0, 64, 90
1, 767317, Control_c, 0, 64, 127
1, 767334, Note_off_c, 0, 71, 53
1, 767530, Poly_aftertouch_c, 0, 40, 28
1, 767536, Note_on_c, 0, 40, 57
1, 767540, Note_off_c, 0, 63, 59
1, 767555, Note_off_c, 0, 28, 33
1, 767584, Note_off_c, 0, 40, 60
1, 767614, Poly_aftertouch_c, 0, 61, 28
1, 767618, Note_on_c, 0, 61, 82
1, 767622, Note_on_c, 0, 69, 76
1, 767622, Poly_aftertouch_c, 0, 69, 28
1, 767759, Poly_aftertouch_c, 0, 47, 28
1, 767763, Note_on_c, 0, 47, 62
1, 767897, Control_c, 0, 64, 111
1, 767902, Note_off_c, 0, 61, 58
1, 767915, Control_c, 0, 64, 75
1, 767935, Control_c, 0, 64, 49
1, 767943, Note_off_c, 0, 47, 57
1, 767951, Poly_aftertouch_c, 0, 40, 28
1, 767953, Control_c, 0, 64, 31
1, 767958, Note_on_c, 0, 40, 57
1, 767964, Poly_aftertouch_c, 0, 66, 28
1, 767966, Note_on_c, 0, 66, 80
1, 767969, Poly_aftertouch_c, 0, 60, 28
1, 767970, Note_on_c, 0, 60, 80
1, 767971, Note_off_c, 0, 69, 60
1, 768009, Control_c, 0, 64, 36
1, 768027, Control_c, 0, 64, 50
1, 768047, Control_c, 0, 64, 68
1, 768066, Control_c, 0, 64, 86
1, 768083, Control_c, 0, 64, 127
1, 768148, Note_off_c, 0, 60, 53
1, 768188, Poly_aftertouch_c, 0, 45, 28
1, 768193, Note_on_c, 0, 45, 62
1, 768198, Note_off_c, 0, 66, 60
1, 768260, Note_off_c, 0, 40, 35
1, 768286, Note_off_c, 0, 45, 61
1, 768302, Poly_aftertouch_c, 0, 76, 28
1, 768306, Note_on_c, 0, 76, 90
1, 768430, Poly_aftertouch_c, 0, 57, 28
1, 768435, Note_on_c, 0, 57, 80
1, 768757, Control_c, 0, 64, 86
1, 768777, Control_c, 0, 64, 64
1, 768783, Poly_aftertouch_c, 0, 74, 28
1, 768785, Note_on_c, 0, 74, 81
1, 768788, Poly_aftertouch_c, 0, 54, 28
1, 768796, Note_on_c, 0, 54, 76
1, 768796, Control_c, 0, 64, 57
1, 768813, Control_c, 0, 64, 59
1, 768833, Control_c, 0, 64, 64
1, 768852, Control_c, 0, 64, 74
1, 768857, Note_off_c, 0, 76, 55
1, 768860, Note_off_c, 0, 57, 55
1, 768871, Control_c, 0, 64, 91
1, 768888, Control_c, 0, 64, 127
1, 768906, Note_off_c, 0, 54, 64
1, 769034, Poly_aftertouch_c, 0, 40, 28
1, 769039, Note_on_c, 0, 40, 72
1, 769135, Poly_aftertouch_c, 0, 64, 28
1, 769139, Note_on_c, 0, 64, 85
1, 769143, Poly_aftertouch_c, 0, 72, 28
1, 769145, Note_on_c, 0, 72, 79
1, 769179, Note_off_c, 0, 74, 59
1, 769226, Note_off_c, 0, 72, 57
1, 769266, Poly_aftertouch_c, 0, 45, 28
1, 769270, Note_on_c, 0, 45, 73
1, 769286, Note_off_c, 0, 40, 48
1, 769470, Control_c, 0, 64, 89
1, 769472, Poly_aftertouch_c, 0, 40, 28
1, 769473, Note_on_c, 0, 62, 84
1, 769475, Poly_aftertouch_c, 0, 62, 28
1, 769477, Note_on_c, 0, 40, 71
1, 769477, Note_on_c, 0, 71, 81
1, 769478, Poly_aftertouch_c, 0, 71, 28
1, 769488, Control_c, 0, 64, 62
1, 769496, Note_off_c, 0, 64, 64
1, 769507, Control_c, 0, 64, 42
1, 769523, Note_off_c, 0, 45, 51
1, 769562, Control_c, 0, 64, 50
1, 769583, Control_c, 0, 64, 64
1, 769601, Control_c, 0, 64, 76
1, 769619, Control_c, 0, 64, 93
1, 769638, Control_c, 0, 64, 127
1, 769676, Note_off_c, 0, 71, 59
1, 769691, Poly_aftertouch_c, 0, 48, 28
1, 769695, Note_on_c, 0, 48, 78
1, 769703, Note_off_c, 0, 40, 62
1, 769781, Poly_aftertouch_c, 0, 60, 28
1, 769787, Note_on_c, 0, 60, 88
1, 769789, Poly_aftertouch_c, 0, 69, 28
1, 769791, Note_on_c, 0, 69, 85
1, 769804, Note_off_c, 0, 62, 59
1, 769887, Note_off_c, 0, 69, 57
1, 769918, Poly_aftertouch_c, 0, 40, 28
1, 769921, Note_off_c, 0, 48, 51
1, 769921, Note_on_c, 0, 40, 76
1, 769983, Note_off_c, 0, 60, 59
1, 770229, Poly_aftertouch_c, 0, 57, 28
1, 770234, Note_on_c, 0, 57, 89
1, 770236, Note_on_c, 0, 51, 79
1, 770237, Poly_aftertouch_c, 0, 51, 28
1, 770238, Poly_aftertouch_c, 0, 66, 28
1, 770240, Note_on_c, 0, 66, 86
1, 770256, Control_c, 0, 64, 89
1, 770275, Control_c, 0, 64, 57
1, 770292, Control_c, 0, 64, 21
1, 770311, Control_c, 0, 64, 0
1, 770322, Note_off_c, 0, 40, 58
1, 770367, Control_c, 0, 64, 15
1, 770387, Control_c, 0, 64, 29
1, 770405, Control_c, 0, 64, 46
1, 770423, Control_c, 0, 64, 65
1, 770444, Control_c, 0, 64, 81
1, 770462, Control_c, 0, 64, 103
1, 770480, Control_c, 0, 64, 127
1, 770540, Poly_aftertouch_c, 0, 40, 28
1, 770546, Note_on_c, 0, 40, 75
1, 770563, Note_off_c, 0, 51, 61
1, 770729, Poly_aftertouch_c, 0, 60, 28
1, 770732, Note_on_c, 0, 60, 89
1, 770734, Note_off_c, 0, 57, 64
1, 770787, Note_off_c, 0, 66, 55
1, 770892, Note_off_c, 0, 40, 34
1, 770931, Poly_aftertouch_c, 0, 54, 28
1, 770936, Note_on_c, 0, 54, 89
1, 771032, Note_off_c, 0, 54, 61
1, 771138, Note_off_c, 0, 60, 57
1, 771621, Poly_aftertouch_c, 0, 59, 28
1, 771625, Note_on_c, 0, 59, 83
1, 771640, Poly_aftertouch_c, 0, 56, 28
1, 771640, Control_c, 0, 64, 107
1, 771644, Note_on_c, 0, 56, 70
1, 771661, Control_c, 0, 64, 73
1, 771679, Control_c, 0, 64, 48
1, 771696, Control_c, 0, 64, 24
1, 771752, Control_c, 0, 64, 0
1, 771827, Control_c, 0, 64, 15
1, 771846, Control_c, 0, 64, 31
1, 771865, Control_c, 0, 64, 52
1, 771884, Control_c, 0, 64, 74
1, 771902, Control_c, 0, 64, 98
1, 771922, Control_c, 0, 64, 127
1, 771957, Poly_aftertouch_c, 0, 52, 28
1, 771961, Note_on_c, 0, 52, 88
1, 772030, Note_off_c, 0, 59, 60
1, 772037, Note_off_c, 0, 56, 58
1, 772220, Poly_aftertouch_c, 0, 59, 28
1, 772224, Note_on_c, 0, 59, 90
1, 772227, Poly_aftertouch_c, 0, 56, 28
1, 772228, Note_on_c, 0, 56, 80
1, 772675, Poly_aftertouch_c, 0, 60, 28
1, 772679, Note_on_c, 0, 60, 90
1, 772681, Poly_aftertouch_c, 0, 40, 28
1, 772682, Note_on_c, 0, 40, 86
1, 772707, Control_c, 0, 64, 93
1, 772726, Note_off_c, 0, 59, 62
1, 772727, Control_c, 0, 64, 67
1, 772745, Control_c, 0, 64, 46
1, 772764, Control_c, 0, 64, 27
1, 772782, Control_c, 0, 64, 13
1, 772820, Control_c, 0, 64, 0
1, 773832, Poly_aftertouch_c, 0, 61, 28
1, 773834, Note_on_c, 0, 61, 76
1, 773903, Note_off_c, 0, 60, 55
1, 774205, Control_c, 0, 64, 9
1, 774224, Control_c, 0, 64, 15
1, 774242, Control_c, 0, 64, 22
1, 774262, Control_c, 0, 64, 30
1, 774280, Control_c, 0, 64, 38
1, 774299, Control_c, 0, 64, 49
1, 774317, Control_c, 0, 64, 58
1, 774337, Control_c, 0, 64, 62
1, 774355, Control_c, 0, 64, 64
1, 774373, Control_c, 0, 64, 65
1, 774392, Control_c, 0, 64, 67
1, 774411, Control_c, 0, 64, 71
1, 774429, Control_c, 0, 64, 76
1, 774449, Control_c, 0, 64, 87
1, 774466, Control_c, 0, 64, 103
1, 774486, Control_c, 0, 64, 127
1, 774574, Note_off_c, 0, 40, 52
1, 774590, Note_off_c, 0, 61, 50
1, 774678, Poly_aftertouch_c, 0, 52, 24
1, 774687, Note_off_c, 0, 56, 54
1, 774704, Note_off_c, 0, 52, 48
1, 775121, Control_c, 0, 67, 8
1, 775234, Control_c, 0, 67, 12
1, 775311, Control_c, 0, 67, 17
1, 775422, Control_c, 0, 67, 22
1, 775459, Control_c, 0, 67, 27
1, 775496, Control_c, 0, 67, 33
1, 775534, Control_c, 0, 67, 37
1, 775589, Control_c, 0, 67, 41
1, 776395, Control_c, 0, 67, 37
1, 776480, Poly_aftertouch_c, 0, 74, 28
1, 776486, Note_on_c, 0, 74, 64
1, 776488, Control_c, 0, 64, 118
1, 776505, Poly_aftertouch_c, 0, 28, 28
1, 776506, Control_c, 0, 64, 95
1, 776515, Note_on_c, 0, 28, 33
1, 776529, Control_c, 0, 64, 77
1, 776533, Poly_aftertouch_c, 0, 68, 28
1, 776542, Note_on_c, 0, 68, 33
1, 776544, Control_c, 0, 64, 61
1, 776550, Poly_aftertouch_c, 0, 62, 28
1, 776563, Note_on_c, 0, 62, 24
1, 776563, Control_c, 0, 64, 43
1, 776581, Control_c, 0, 64, 21
1, 776619, Control_c, 0, 64, 0
1, 776826, Control_c, 0, 64, 17
1, 776844, Control_c, 0, 64, 30
1, 776862, Control_c, 0, 64, 48
1, 776882, Control_c, 0, 64, 66
1, 776900, Control_c, 0, 64, 77
1, 776919, Control_c, 0, 64, 89
1, 776938, Control_c, 0, 64, 101
1, 776957, Control_c, 0, 64, 121
1, 776975, Control_c, 0, 64, 127
1, 777034, Note_off_c, 0, 62, 43
1, 777035, Note_off_c, 0, 68, 38
1, 777471, Poly_aftertouch_c, 0, 73, 28
1, 777480, Note_on_c, 0, 73, 51
1, 777493, Poly_aftertouch_c, 0, 61, 28
1, 777502, Note_on_c, 0, 61, 25
1, 777513, Poly_aftertouch_c, 0, 69, 28
1, 777517, Note_on_c, 0, 69, 36
1, 777517, Control_c, 0, 64, 108
1, 777537, Control_c, 0, 64, 89
1, 777545, Note_off_c, 0, 74, 35
1, 777555, Control_c, 0, 64, 70
1, 777574, Control_c, 0, 64, 52
1, 777593, Control_c, 0, 64, 33
1, 777612, Control_c, 0, 64, 15
1, 777631, Control_c, 0, 64, 8
1, 777724, Control_c, 0, 64, 13
1, 777742, Control_c, 0, 64, 21
1, 777763, Control_c, 0, 64, 32
1, 777779, Control_c, 0, 64, 47
1, 777799, Control_c, 0, 64, 62
1, 777817, Control_c, 0, 64, 71
1, 777836, Control_c, 0, 64, 78
1, 777854, Control_c, 0, 64, 83
1, 777874, Control_c, 0, 64, 88
1, 777893, Control_c, 0, 64, 96
1, 777911, Control_c, 0, 64, 111
1, 777930, Control_c, 0, 64, 127
1, 778049, Note_off_c, 0, 28, 38
1, 778056, Note_off_c, 0, 73, 35
1, 778091, Note_off_c, 0, 69, 32
1, 778191, Note_off_c, 0, 61, 34
1, 778454, Control_c, 0, 67, 33
1, 778585, Control_c, 0, 67, 29
1, 778623, Control_c, 0, 67, 23
1, 778660, Control_c, 0, 67, 19
1, 778772, Control_c, 0, 67, 24
1, 778846, Control_c, 0, 67, 28
1, 778922, Control_c, 0, 67, 34
1, 778960, Control_c, 0, 67, 38
1, 778997, Control_c, 0, 67, 43
1, 779035, Control_c, 0, 67, 52
1, 779052, Control_c, 0, 67, 59
1, 779072, Control_c, 0, 67, 65
1, 779090, Control_c, 0, 67, 71
1, 779109, Control_c, 0, 67, 76
1, 779128, Control_c, 0, 67, 81
1, 779147, Control_c, 0, 67, 85
1, 779166, Control_c, 0, 67, 89
1, 779183, Control_c, 0, 67, 94
1, 779203, Control_c, 0, 67, 100
1, 779221, Control_c, 0, 67, 106
1, 779241, Control_c, 0, 67, 112
1, 779258, Control_c, 0, 67, 119
1, 779278, Control_c, 0, 67, 126
1, 780393, Poly_aftertouch_c, 0, 52, 28
1, 780393, Poly_aftertouch_c, 0, 62, 28
1, 780399, Note_on_c, 0, 62, 37
1, 780403, Note_on_c, 0, 52, 26
1, 780403, Poly_aftertouch_c, 0, 40, 28
1, 780405, Poly_aftertouch_c, 0, 59, 28
1, 780409, Note_on_c, 0, 59, 32
1, 780411, Note_on_c, 0, 40, 23
1, 780418, Control_c, 0, 64, 103
1, 780439, Control_c, 0, 64, 87
1, 780457, Control_c, 0, 64, 72
1, 780475, Control_c, 0, 64, 59
1, 780495, Control_c, 0, 64, 48
1, 780514, Control_c, 0, 64, 37
1, 780532, Control_c, 0, 64, 27
1, 780550, Control_c, 0, 64, 20
1, 780569, Control_c, 0, 64, 14
1, 780607, Control_c, 0, 64, 9
1, 780775, Control_c, 0, 64, 17
1, 780794, Control_c, 0, 64, 22
1, 780812, Control_c, 0, 64, 27
1, 780832, Control_c, 0, 64, 34
1, 780850, Control_c, 0, 64, 43
1, 780869, Control_c, 0, 64, 56
1, 780888, Control_c, 0, 64, 65
1, 780906, Control_c, 0, 64, 69
1, 780925, Control_c, 0, 64, 71
1, 780944, Control_c, 0, 64, 74
1, 780963, Control_c, 0, 64, 77
1, 780981, Control_c, 0, 64, 83
1, 781001, Control_c, 0, 64, 93
1, 781018, Control_c, 0, 64, 111
1, 781037, Control_c, 0, 64, 127
1, 781737, Poly_aftertouch_c, 0, 63, 28
1, 781747, Note_on_c, 0, 63, 38
1, 781752, Poly_aftertouch_c, 0, 60, 28
1, 781760, Note_on_c, 0, 60, 32
1, 781775, Poly_aftertouch_c, 0, 59, 24
1, 781781, Note_off_c, 0, 62, 40
1, 781785, Control_c, 0, 64, 109
1, 781804, Control_c, 0, 64, 96
1, 781818, Note_off_c, 0, 59, 39
1, 781822, Control_c, 0, 64, 83
1, 781843, Control_c, 0, 64, 69
1, 781860, Control_c, 0, 64, 55
1, 781881, Control_c, 0, 64, 41
1, 781898, Control_c, 0, 64, 27
1, 781917, Control_c, 0, 64, 19
1, 782067, Control_c, 0, 64, 27
1, 782086, Control_c, 0, 64, 33
1, 782104, Control_c, 0, 64, 41
1, 782123, Control_c, 0, 64, 53
1, 782141, Control_c, 0, 64, 64
1, 782161, Control_c, 0, 64, 69
1, 782179, Control_c, 0, 64, 71
1, 782198, Control_c, 0, 64, 73
1, 782216, Control_c, 0, 64, 76
1, 782236, Control_c, 0, 64, 80
1, 782253, Control_c, 0, 64, 89
1, 782273, Control_c, 0, 64, 104
1, 782291, Control_c, 0, 64, 127
1, 782491, Note_off_c, 0, 60, 33
1, 782508, Note_off_c, 0, 52, 31
1, 782614, Note_off_c, 0, 40, 38
1, 782619, Note_off_c, 0, 63, 36
1, 785113, Poly_aftertouch_c, 0, 93, 28
1, 785120, Note_on_c, 0, 93, 65
1, 785141, Poly_aftertouch_c, 0, 28, 28
1, 785151, Note_on_c, 0, 28, 34
1, 785154, Control_c, 0, 64, 90
1, 785161, Poly_aftertouch_c, 0, 81, 28
1, 785168, Note_on_c, 0, 81, 20
1, 785168, Poly_aftertouch_c, 0, 87, 28
1, 785173, Control_c, 0, 64, 70
1, 785177, Note_on_c, 0, 87, 22
1, 785191, Poly_aftertouch_c, 0, 84, 28
1, 785192, Control_c, 0, 64, 55
1, 785200, Note_on_c, 0, 84, 32
1, 785212, Control_c, 0, 64, 48
1, 785249, Control_c, 0, 64, 54
1, 785267, Control_c, 0, 64, 62
1, 785286, Control_c, 0, 64, 71
1, 785305, Control_c, 0, 64, 84
1, 785324, Control_c, 0, 64, 122
1, 785342, Control_c, 0, 64, 127
1, 785403, Note_off_c, 0, 28, 41
1, 785553, Poly_aftertouch_c, 0, 84, 24
1, 785561, Note_off_c, 0, 93, 36
1, 785579, Note_off_c, 0, 84, 45
1, 785601, Poly_aftertouch_c, 0, 81, 24
1, 785620, Note_off_c, 0, 81, 48
1, 785625, Poly_aftertouch_c, 0, 87, 24
1, 785661, Note_off_c, 0, 87, 42
1, 785865, Poly_aftertouch_c, 0, 40, 28
1, 785871, Note_on_c, 0, 40, 37
1, 786084, Note_off_c, 0, 40, 21
1, 786320, Poly_aftertouch_c, 0, 45, 28
1, 786326, Note_on_c, 0, 45, 44
1, 786410, Note_off_c, 0, 45, 59
1, 786751, Poly_aftertouch_c, 0, 92, 28
1, 786756, Note_on_c, 0, 92, 74
1, 786770, Poly_aftertouch_c, 0, 87, 28
1, 786777, Note_on_c, 0, 87, 50
1, 786778, Poly_aftertouch_c, 0, 52, 28
1, 786785, Note_on_c, 0, 52, 36
1, 786786, Poly_aftertouch_c, 0, 80, 28
1, 786801, Note_on_c, 0, 80, 32
1, 786809, Poly_aftertouch_c, 0, 83, 28
1, 786821, Note_on_c, 0, 83, 21
1, 786876, Note_off_c, 0, 52, 36
1, 787018, Note_off_c, 0, 83, 40
1, 787030, Note_off_c, 0, 92, 62
1, 787054, Poly_aftertouch_c, 0, 87, 22
1, 787070, Note_off_c, 0, 87, 44
1, 787097, Note_off_c, 0, 80, 44
1, 787152, Poly_aftertouch_c, 0, 57, 28
1, 787157, Note_on_c, 0, 57, 39
1, 787314, Note_off_c, 0, 57, 35
1, 787501, Poly_aftertouch_c, 0, 60, 28
1, 787508, Note_on_c, 0, 60, 40
1, 787577, Note_off_c, 0, 60, 57
1, 787948, Poly_aftertouch_c, 0, 90, 28
1, 787955, Note_on_c, 0, 90, 70
1, 787970, Poly_aftertouch_c, 0, 64, 28
1, 787976, Note_on_c, 0, 64, 45
1, 787986, Poly_aftertouch_c, 0, 87, 28
1, 787990, Note_on_c, 0, 87, 51
1, 787990, Poly_aftertouch_c, 0, 78, 28
1, 788011, Note_on_c, 0, 78, 19
1, 788019, Poly_aftertouch_c, 0, 81, 28
1, 788027, Note_on_c, 0, 81, 19
1, 788110, Note_off_c, 0, 81, 0
1, 788111, Note_off_c, 0, 87, 0
1, 788111, Poly_aftertouch_c, 0, 81, 28
1, 788112, Poly_aftertouch_c, 0, 87, 28
1, 788147, Note_off_c, 0, 64, 35
1, 788294, Poly_aftertouch_c, 0, 81, 22
1, 788321, Poly_aftertouch_c, 0, 81, 0
1, 788340, Note_off_c, 0, 90, 38
1, 788347, Poly_aftertouch_c, 0, 78, 24
1, 788480, Poly_aftertouch_c, 0, 69, 28
1, 788484, Note_on_c, 0, 69, 39
1, 788485, Note_off_c, 0, 78, 28
1, 788503, Poly_aftertouch_c, 0, 87, 24
1, 788566, Poly_aftertouch_c, 0, 87, 0
1, 788703, Note_off_c, 0, 69, 31
1, 788918, Control_c, 0, 67, 122
1, 789066, Poly_aftertouch_c, 0, 72, 28
1, 789073, Note_on_c, 0, 72, 39
1, 789681, Poly_aftertouch_c, 0, 72, 24
1, 789858, Note_off_c, 0, 72, 26
1, 790015, Poly_aftertouch_c, 0, 88, 28
1, 790021, Note_on_c, 0, 88, 64
1, 790041, Poly_aftertouch_c, 0, 76, 28
1, 790046, Poly_aftertouch_c, 0, 83, 28
1, 790049, Note_on_c, 0, 76, 36
1, 790050, Note_on_c, 0, 83, 50
1, 790086, Poly_aftertouch_c, 0, 80, 28
1, 790136, Poly_aftertouch_c, 0, 80, 127
1, 790190, Control_c, 0, 67, 126
1, 790284, Control_c, 0, 64, 117
1, 790303, Control_c, 0, 64, 89
1, 790323, Control_c, 0, 64, 71
1, 790341, Control_c, 0, 64, 55
1, 790358, Control_c, 0, 64, 41
1, 790378, Control_c, 0, 64, 30
1, 790396, Control_c, 0, 64, 25
1, 790509, Control_c, 0, 64, 32
1, 790527, Control_c, 0, 64, 41
1, 790546, Control_c, 0, 64, 54
1, 790564, Control_c, 0, 64, 67
1, 790584, Control_c, 0, 64, 76
1, 790589, Poly_aftertouch_c, 0, 71, 28
1, 790596, Note_on_c, 0, 71, 33
1, 790601, Control_c, 0, 64, 85
1, 790620, Control_c, 0, 64, 96
1, 790639, Control_c, 0, 64, 111
1, 790660, Control_c, 0, 64, 127
1, 790781, Note_off_c, 0, 71, 36
1, 790910, Poly_aftertouch_c, 0, 68, 28
1, 790921, Note_on_c, 0, 68, 40
1, 790973, Note_off_c, 0, 68, 49
1, 791173, Poly_aftertouch_c, 0, 64, 28
1, 791180, Note_on_c, 0, 64, 40
1, 791233, Note_off_c, 0, 64, 45
1, 791387, Note_off_c, 0, 88, 60
1, 791405, Poly_aftertouch_c, 0, 52, 28
1, 791411, Note_off_c, 0, 76, 56
1, 791411, Note_on_c, 0, 52, 40
1, 791423, Note_off_c, 0, 83, 35
1, 791427, Poly_aftertouch_c, 0, 80, 24
1, 791456, Poly_aftertouch_c, 0, 80, 0
1, 791546, Note_off_c, 0, 52, 29
1, 791616, Poly_aftertouch_c, 0, 64, 28
1, 791619, Note_on_c, 0, 64, 46
1, 791735, Note_off_c, 0, 64, 35
1, 791813, Poly_aftertouch_c, 0, 87, 28
1, 791816, Note_on_c, 0, 87, 69
1, 791827, Poly_aftertouch_c, 0, 68, 28
1, 791838, Note_on_c, 0, 68, 46
1, 791847, Poly_aftertouch_c, 0, 83, 28
1, 791852, Note_on_c, 0, 83, 43
1, 791852, Poly_aftertouch_c, 0, 75, 28
1, 791866, Note_on_c, 0, 75, 39
1, 791925, Note_off_c, 0, 75, 48
1, 791996, Note_off_c, 0, 83, 26
1, 792048, Poly_aftertouch_c, 0, 71, 28
1, 792056, Note_on_c, 0, 71, 37
1, 792105, Note_off_c, 0, 71, 49
1, 792117, Note_off_c, 0, 68, 34
1, 792315, Poly_aftertouch_c, 0, 78, 28
1, 792322, Note_on_c, 0, 78, 66
1, 792334, Poly_aftertouch_c, 0, 75, 28
1, 792344, Note_off_c, 0, 87, 63
1, 792346, Note_on_c, 0, 75, 42
1, 792406, Note_off_c, 0, 75, 55
1, 792543, Poly_aftertouch_c, 0, 69, 28
1, 792548, Note_on_c, 0, 69, 45
1, 792703, Note_off_c, 0, 69, 25
1, 792754, Poly_aftertouch_c, 0, 66, 28
1, 792755, Poly_aftertouch_c, 0, 85, 28
1, 792762, Note_on_c, 0, 66, 44
1, 792762, Note_on_c, 0, 85, 68
1, 792762, Poly_aftertouch_c, 0, 73, 28
1, 792769, Note_on_c, 0, 73, 46
1, 792774, Poly_aftertouch_c, 0, 81, 28
1, 792777, Note_on_c, 0, 81, 51
1, 792808, Note_off_c, 0, 78, 48
1, 792848, Note_off_c, 0, 81, 49
1, 792873, Note_off_c, 0, 73, 48
1, 792905, Note_off_c, 0, 85, 64
1, 792976, Note_off_c, 0, 66, 31
1, 792991, Poly_aftertouch_c, 0, 63, 28
1, 793000, Note_on_c, 0, 63, 42
1, 793069, Note_off_c, 0, 63, 53
1, 793368, Poly_aftertouch_c, 0, 83, 28
1, 793370, Note_on_c, 0, 83, 66
1, 793381, Poly_aftertouch_c, 0, 80, 28
1, 793390, Note_on_c, 0, 80, 55
1, 793390, Poly_aftertouch_c, 0, 71, 28
1, 793397, Note_on_c, 0, 71, 48
1, 793405, Poly_aftertouch_c, 0, 76, 28
1, 793412, Note_on_c, 0, 76, 40
1, 793541, Control_c, 0, 64, 121
1, 793560, Control_c, 0, 64, 87
1, 793579, Control_c, 0, 64, 65
1, 793597, Control_c, 0, 64, 47
1, 793617, Control_c, 0, 64, 34
1, 793634, Control_c, 0, 64, 28
1, 793710, Control_c, 0, 64, 33
1, 793719, Poly_aftertouch_c, 0, 68, 28
1, 793727, Note_on_c, 0, 68, 44
1, 793727, Control_c, 0, 64, 42
1, 793747, Control_c, 0, 64, 56
1, 793766, Control_c, 0, 64, 70
1, 793784, Control_c, 0, 64, 83
1, 793804, Control_c, 0, 64, 103
1, 793822, Control_c, 0, 64, 127
1, 793910, Note_off_c, 0, 68, 37
1, 793983, Poly_aftertouch_c, 0, 64, 28
1, 793990, Note_on_c, 0, 64, 39
1, 794097, Note_off_c, 0, 64, 42
1, 794191, Poly_aftertouch_c, 0, 59, 28
1, 794196, Note_on_c, 0, 59, 45
1, 794317, Note_off_c, 0, 59, 37
1, 794327, Note_off_c, 0, 83, 55
1, 794361, Note_off_c, 0, 80, 44
1, 794374, Note_off_c, 0, 76, 40
1, 794386, Poly_aftertouch_c, 0, 52, 28
1, 794391, Note_on_c, 0, 52, 47
1, 794419, Note_off_c, 0, 71, 52
1, 794504, Note_off_c, 0, 52, 42
1, 794594, Poly_aftertouch_c, 0, 59, 28
1, 794597, Note_on_c, 0, 59, 49
1, 794682, Note_off_c, 0, 59, 39
1, 794770, Poly_aftertouch_c, 0, 63, 28
1, 794774, Note_on_c, 0, 63, 51
1, 794775, Note_on_c, 0, 81, 69
1, 794778, Poly_aftertouch_c, 0, 81, 28
1, 794791, Poly_aftertouch_c, 0, 78, 28
1, 794801, Note_on_c, 0, 78, 54
1, 794806, Poly_aftertouch_c, 0, 69, 28
1, 794810, Note_on_c, 0, 69, 44
1, 794853, Note_off_c, 0, 69, 48
1, 794944, Note_off_c, 0, 63, 55
1, 794961, Note_off_c, 0, 78, 49
1, 794989, Poly_aftertouch_c, 0, 66, 28
1, 794994, Note_on_c, 0, 66, 47
1, 795059, Note_off_c, 0, 66, 57
1, 795228, Poly_aftertouch_c, 0, 75, 28
1, 795236, Note_on_c, 0, 75, 69
1, 795251, Poly_aftertouch_c, 0, 71, 28
1, 795257, Note_on_c, 0, 71, 50
1, 795277, Note_off_c, 0, 81, 61
1, 795308, Note_off_c, 0, 71, 52
1, 795440, Poly_aftertouch_c, 0, 68, 28
1, 795448, Note_on_c, 0, 68, 51
1, 795563, Note_off_c, 0, 68, 38
1, 795576, Note_off_c, 0, 75, 30
1, 795657, Poly_aftertouch_c, 0, 80, 28
1, 795662, Note_on_c, 0, 80, 74
1, 795676, Poly_aftertouch_c, 0, 76, 28
1, 795680, Note_on_c, 0, 76, 64
1, 795687, Poly_aftertouch_c, 0, 68, 28
1, 795692, Poly_aftertouch_c, 0, 64, 28
1, 795694, Note_on_c, 0, 68, 49
1, 795697, Note_on_c, 0, 64, 44
1, 795793, Note_off_c, 0, 76, 58
1, 795828, Note_off_c, 0, 80, 64
1, 795899, Poly_aftertouch_c, 0, 61, 28
1, 795904, Note_on_c, 0, 61, 46
1, 795921, Note_off_c, 0, 68, 34
1, 795925, Note_off_c, 0, 64, 35
1, 795938, Note_off_c, 0, 61, 57
1, 796152, Poly_aftertouch_c, 0, 52, 28
1, 796160, Note_on_c, 0, 52, 43
1, 796252, Poly_aftertouch_c, 0, 78, 28
1, 796257, Note_on_c, 0, 78, 78
1, 796280, Poly_aftertouch_c, 0, 75, 28
1, 796285, Poly_aftertouch_c, 0, 66, 28
1, 796290, Note_on_c, 0, 75, 65
1, 796293, Note_on_c, 0, 66, 45
1, 796311, Control_c, 0, 64, 86
1, 796330, Control_c, 0, 64, 64
1, 796350, Control_c, 0, 64, 45
1, 796367, Control_c, 0, 64, 34
1, 796442, Control_c, 0, 64, 42
1, 796463, Control_c, 0, 64, 54
1, 796480, Control_c, 0, 64, 66
1, 796498, Control_c, 0, 64, 76
1, 796517, Control_c, 0, 64, 87
1, 796537, Control_c, 0, 64, 100
1, 796555, Control_c, 0, 64, 127
1, 796563, Poly_aftertouch_c, 0, 57, 28
1, 796571, Note_on_c, 0, 57, 50
1, 796747, Poly_aftertouch_c, 0, 52, 24
1, 796764, Note_off_c, 0, 57, 35
1, 796779, Note_off_c, 0, 78, 59
1, 796806, Note_off_c, 0, 66, 39
1, 796828, Poly_aftertouch_c, 0, 69, 28
1, 796834, Note_on_c, 0, 69, 63
1, 796852, Poly_aftertouch_c, 0, 63, 28
1, 796861, Note_on_c, 0, 63, 43
1, 796864, Note_off_c, 0, 52, 32
1, 796865, Note_off_c, 0, 75, 55
1, 796989, Note_off_c, 0, 63, 51
1, 797034, Note_on_c, 0, 59, 50
1, 797034, Poly_aftertouch_c, 0, 59, 28
1, 797223, Poly_aftertouch_c, 0, 76, 28
1, 797227, Note_on_c, 0, 76, 83
1, 797232, Note_off_c, 0, 69, 59
1, 797238, Poly_aftertouch_c, 0, 73, 28
1, 797244, Note_on_c, 0, 73, 75
1, 797247, Control_c, 0, 64, 92
1, 797248, Poly_aftertouch_c, 0, 52, 28
1, 797249, Note_off_c, 0, 59, 42
1, 797254, Note_on_c, 0, 52, 48
1, 797267, Control_c, 0, 64, 67
1, 797270, Poly_aftertouch_c, 0, 64, 28
1, 797273, Note_on_c, 0, 64, 48
1, 797286, Control_c, 0, 64, 47
1, 797303, Control_c, 0, 64, 34
1, 797379, Control_c, 0, 64, 44
1, 797398, Control_c, 0, 64, 57
1, 797416, Control_c, 0, 64, 69
1, 797432, Poly_aftertouch_c, 0, 56, 28
1, 797434, Control_c, 0, 64, 81
1, 797437, Note_on_c, 0, 56, 52
1, 797453, Control_c, 0, 64, 95
1, 797473, Control_c, 0, 64, 112
1, 797491, Control_c, 0, 64, 127
1, 797668, Poly_aftertouch_c, 0, 68, 28
1, 797677, Note_on_c, 0, 68, 70
1, 797679, Poly_aftertouch_c, 0, 61, 28
1, 797683, Note_on_c, 0, 61, 55
1, 797696, Note_off_c, 0, 76, 59
1, 797710, Note_off_c, 0, 64, 49
1, 797724, Note_off_c, 0, 73, 60
1, 797747, Note_off_c, 0, 56, 33
1, 797783, Note_off_c, 0, 52, 34
1, 797833, Note_off_c, 0, 61, 49
1, 797876, Poly_aftertouch_c, 0, 57, 28
1, 797885, Note_on_c, 0, 57, 50
1, 798086, Poly_aftertouch_c, 0, 52, 28
1, 798092, Note_on_c, 0, 52, 51
1, 798179, Note_off_c, 0, 68, 62
1, 798194, Poly_aftertouch_c, 0, 71, 28
1, 798195, Poly_aftertouch_c, 0, 75, 28
1, 798197, Note_on_c, 0, 75, 82
1, 798199, Note_on_c, 0, 71, 64
1, 798202, Control_c, 0, 64, 118
1, 798210, Poly_aftertouch_c, 0, 63, 28
1, 798216, Note_on_c, 0, 63, 49
1, 798221, Control_c, 0, 64, 92
1, 798230, Note_off_c, 0, 57, 36
1, 798239, Control_c, 0, 64, 70
1, 798259, Control_c, 0, 64, 51
1, 798277, Control_c, 0, 64, 33
1, 798296, Control_c, 0, 64, 19
1, 798314, Control_c, 0, 64, 14
1, 798408, Control_c, 0, 64, 20
1, 798427, Control_c, 0, 64, 28
1, 798445, Control_c, 0, 64, 38
1, 798456, Poly_aftertouch_c, 0, 54, 28
1, 798463, Control_c, 0, 64, 54
1, 798467, Note_on_c, 0, 54, 45
1, 798483, Control_c, 0, 64, 69
1, 798502, Control_c, 0, 64, 78
1, 798520, Control_c, 0, 64, 88
1, 798540, Control_c, 0, 64, 97
1, 798558, Control_c, 0, 64, 107
1, 798575, Control_c, 0, 64, 127
1, 798772, Poly_aftertouch_c, 0, 66, 28
1, 798776, Note_on_c, 0, 66, 69
1, 798778, Poly_aftertouch_c, 0, 59, 28
1, 798780, Note_on_c, 0, 59, 50
1, 798830, Note_off_c, 0, 75, 38
1, 798838, Control_c, 0, 67, 122
1, 798872, Note_off_c, 0, 63, 35
1, 798913, Control_c, 0, 67, 118
1, 798923, Note_off_c, 0, 71, 49
1, 798951, Control_c, 0, 67, 114
1, 798988, Control_c, 0, 67, 109
1, 799026, Control_c, 0, 67, 104
1, 799063, Control_c, 0, 67, 99
1, 799089, Poly_aftertouch_c, 0, 56, 28
1, 799096, Note_on_c, 0, 56, 56
1, 799100, Control_c, 0, 67, 94
1, 799138, Control_c, 0, 67, 90
1, 799139, Note_off_c, 0, 54, 36
1, 799176, Control_c, 0, 67, 85
1, 799213, Control_c, 0, 67, 79
1, 799229, Note_off_c, 0, 59, 27
1, 799250, Control_c, 0, 67, 75
1, 799324, Control_c, 0, 67, 71
1, 799392, Note_off_c, 0, 56, 35
1, 799438, Note_off_c, 0, 52, 31
1, 799726, Poly_aftertouch_c, 0, 73, 28
1, 799729, Note_on_c, 0, 73, 81
1, 799731, Poly_aftertouch_c, 0, 69, 28
1, 799734, Note_on_c, 0, 69, 60
1, 799743, Poly_aftertouch_c, 0, 61, 28
1, 799752, Note_on_c, 0, 61, 50
1, 799769, Note_off_c, 0, 66, 56
1, 799888, Control_c, 0, 64, 119
1, 799906, Control_c, 0, 64, 102
1, 799924, Control_c, 0, 64, 87
1, 799943, Control_c, 0, 64, 72
1, 799961, Control_c, 0, 64, 57
1, 799980, Control_c, 0, 64, 39
1, 799998, Control_c, 0, 64, 18
1, 800186, Control_c, 0, 64, 11
1, 800192, Poly_aftertouch_c, 0, 40, 28
1, 800197, Note_on_c, 0, 40, 39
1, 800205, Control_c, 0, 64, 16
1, 800224, Control_c, 0, 64, 21
1, 800242, Control_c, 0, 64, 26
1, 800261, Control_c, 0, 64, 32
1, 800280, Control_c, 0, 64, 43
1, 800299, Control_c, 0, 64, 57
1, 800317, Control_c, 0, 64, 66
1, 800336, Control_c, 0, 64, 71
1, 800354, Control_c, 0, 64, 74
1, 800374, Control_c, 0, 64, 76
1, 800411, Control_c, 0, 64, 79
1, 800412, Control_c, 0, 67, 75
1, 800429, Control_c, 0, 64, 82
1, 800448, Control_c, 0, 64, 87
1, 800468, Control_c, 0, 64, 94
1, 800486, Control_c, 0, 64, 104
1, 800489, Poly_aftertouch_c, 0, 45, 28
1, 800493, Note_on_c, 0, 45, 47
1, 800504, Control_c, 0, 64, 127
1, 800568, Note_off_c, 0, 40, 29
1, 800652, Note_off_c, 0, 61, 52
1, 800705, Note_off_c, 0, 45, 52
1, 800715, Note_on_c, 0, 49, 48
1, 800715, Poly_aftertouch_c, 0, 49, 28
1, 800866, Note_off_c, 0, 49, 57
1, 800907, Poly_aftertouch_c, 0, 52, 28
1, 800912, Note_on_c, 0, 52, 50
1, 800957, Note_off_c, 0, 52, 59
1, 801092, Poly_aftertouch_c, 0, 57, 28
1, 801100, Note_on_c, 0, 57, 46
1, 801157, Note_off_c, 0, 69, 32
1, 801225, Note_off_c, 0, 73, 50
1, 801285, Note_off_c, 0, 57, 48
1, 801309, Poly_aftertouch_c, 0, 61, 28
1, 801314, Note_on_c, 0, 61, 41
1, 801347, Control_c, 0, 67, 79
1, 801544, Note_off_c, 0, 61, 35
1, 801549, Poly_aftertouch_c, 0, 64, 28
1, 801554, Note_on_c, 0, 64, 40
1, 801598, Note_off_c, 0, 64, 50
1, 801860, Poly_aftertouch_c, 0, 60, 28
1, 801866, Note_on_c, 0, 60, 44
1, 801942, Poly_aftertouch_c, 0, 69, 28
1, 801947, Note_on_c, 0, 69, 47
1, 802013, Poly_aftertouch_c, 0, 90, 28
1, 802022, Note_on_c, 0, 90, 66
1, 802038, Poly_aftertouch_c, 0, 72, 28
1, 802039, Poly_aftertouch_c, 0, 78, 28
1, 802043, Note_on_c, 0, 72, 52
1, 802047, Note_on_c, 0, 78, 48
1, 802058, Control_c, 0, 64, 90
1, 802061, Poly_aftertouch_c, 0, 81, 28
1, 802067, Note_on_c, 0, 81, 42
1, 802077, Control_c, 0, 64, 65
1, 802095, Control_c, 0, 64, 43
1, 802114, Control_c, 0, 64, 24
1, 802132, Control_c, 0, 64, 15
1, 802227, Control_c, 0, 64, 26
1, 802246, Control_c, 0, 64, 38
1, 802264, Control_c, 0, 64, 57
1, 802283, Control_c, 0, 64, 73
1, 802303, Control_c, 0, 64, 91
1, 802319, Control_c, 0, 64, 127
1, 802372, Note_off_c, 0, 90, 59
1, 802453, Note_off_c, 0, 81, 46
1, 802458, Note_off_c, 0, 72, 37
1, 802510, Note_off_c, 0, 78, 56
1, 802514, Note_off_c, 0, 69, 31
1, 802613, Poly_aftertouch_c, 0, 60, 24
1, 802658, Note_off_c, 0, 60, 39
1, 803107, Control_c, 0, 67, 84
1, 803144, Control_c, 0, 67, 90
1, 803200, Control_c, 0, 67, 94
1, 803256, Control_c, 0, 67, 98
1, 803312, Control_c, 0, 67, 102
1, 803368, Control_c, 0, 67, 106
1, 803406, Control_c, 0, 67, 113
1, 803425, Control_c, 0, 67, 118
1, 803443, Control_c, 0, 67, 122
1, 803444, Poly_aftertouch_c, 0, 71, 28
1, 803449, Note_on_c, 0, 71, 47
1, 803457, Poly_aftertouch_c, 0, 59, 28
1, 803462, Note_on_c, 0, 59, 34
1, 803468, Poly_aftertouch_c, 0, 68, 28
1, 803480, Control_c, 0, 67, 127
1, 803482, Note_on_c, 0, 68, 36
1, 803519, Control_c, 0, 64, 101
1, 803537, Control_c, 0, 64, 85
1, 803556, Control_c, 0, 64, 70
1, 803575, Control_c, 0, 64, 58
1, 803592, Control_c, 0, 64, 47
1, 803612, Control_c, 0, 64, 36
1, 803630, Control_c, 0, 64, 28
1, 803650, Control_c, 0, 64, 24
1, 803774, Poly_aftertouch_c, 0, 40, 28
1, 803781, Control_c, 0, 64, 29
1, 803784, Note_on_c, 0, 40, 33
1, 803799, Control_c, 0, 64, 35
1, 803818, Control_c, 0, 64, 43
1, 803838, Control_c, 0, 64, 55
1, 803855, Control_c, 0, 64, 66
1, 803874, Control_c, 0, 64, 71
1, 803892, Control_c, 0, 64, 75
1, 803912, Control_c, 0, 64, 78
1, 803929, Control_c, 0, 64, 85
1, 803949, Control_c, 0, 64, 94
1, 803968, Control_c, 0, 64, 112
1, 803986, Control_c, 0, 64, 127
1, 804011, Poly_aftertouch_c, 0, 44, 28
1, 804015, Note_on_c, 0, 44, 48
1, 804058, Note_off_c, 0, 40, 30
1, 804158, Note_off_c, 0, 44, 48
1, 804201, Poly_aftertouch_c, 0, 47, 28
1, 804202, Note_off_c, 0, 59, 33
1, 804208, Note_on_c, 0, 47, 48
1, 804369, Note_off_c, 0, 47, 34
1, 804422, Poly_aftertouch_c, 0, 52, 28
1, 804425, Note_on_c, 0, 52, 49
1, 804467, Note_off_c, 0, 52, 54
1, 804550, Note_off_c, 0, 68, 39
1, 804626, Poly_aftertouch_c, 0, 56, 28
1, 804631, Note_on_c, 0, 56, 48
1, 804662, Note_off_c, 0, 71, 36
1, 804838, Note_off_c, 0, 56, 38
1, 804850, Poly_aftertouch_c, 0, 59, 28
1, 804856, Note_on_c, 0, 59, 38
1, 805025, Note_off_c, 0, 59, 25
1, 805098, Poly_aftertouch_c, 0, 64, 28
1, 805102, Note_on_c, 0, 64, 46
1, 805142, Note_off_c, 0, 64, 54
1, 805465, Poly_aftertouch_c, 0, 58, 28
1, 805475, Note_on_c, 0, 58, 56
1, 805604, Poly_aftertouch_c, 0, 67, 28
1, 805610, Note_on_c, 0, 67, 49
1, 805690, Control_c, 0, 64, 119
1, 805704, Poly_aftertouch_c, 0, 70, 28
1, 805709, Control_c, 0, 64, 90
1, 805716, Note_on_c, 0, 70, 39
1, 805719, Poly_aftertouch_c, 0, 88, 28
1, 805724, Note_on_c, 0, 88, 59
1, 805728, Control_c, 0, 64, 69
1, 805739, Poly_aftertouch_c, 0, 76, 28
1, 805743, Note_on_c, 0, 76, 31
1, 805746, Control_c, 0, 64, 50
1, 805754, Poly_aftertouch_c, 0, 79, 28
1, 805761, Note_on_c, 0, 79, 32
1, 805764, Control_c, 0, 64, 34
1, 805783, Control_c, 0, 64, 25
1, 805876, Control_c, 0, 64, 32
1, 805895, Control_c, 0, 64, 42
1, 805915, Control_c, 0, 64, 59
1, 805932, Control_c, 0, 64, 72
1, 805941, Note_off_c, 0, 70, 49
1, 805952, Control_c, 0, 64, 84
1, 805955, Note_off_c, 0, 67, 47
1, 805972, Control_c, 0, 64, 103
1, 805989, Control_c, 0, 64, 127
1, 806071, Note_off_c, 0, 88, 52
1, 806117, Note_off_c, 0, 58, 61
1, 806149, Poly_aftertouch_c, 0, 76, 24
1, 806184, Note_off_c, 0, 76, 43
1, 806215, Note_off_c, 0, 79, 41
1, 806966, Poly_aftertouch_c, 0, 28, 28
1, 806977, Note_on_c, 0, 28, 34
1, 807056, Control_c, 0, 64, 96
1, 807076, Control_c, 0, 64, 76
1, 807093, Control_c, 0, 64, 58
1, 807113, Control_c, 0, 64, 40
1, 807119, Poly_aftertouch_c, 0, 66, 28
1, 807127, Note_on_c, 0, 66, 50
1, 807129, Poly_aftertouch_c, 0, 63, 28
1, 807131, Control_c, 0, 64, 26
1, 807139, Note_on_c, 0, 63, 47
1, 807149, Control_c, 0, 64, 20
1, 807152, Poly_aftertouch_c, 0, 57, 28
1, 807153, Poly_aftertouch_c, 0, 59, 28
1, 807160, Note_on_c, 0, 59, 28
1, 807160, Note_on_c, 0, 57, 38
1, 807243, Control_c, 0, 64, 28
1, 807262, Control_c, 0, 64, 38
1, 807282, Control_c, 0, 64, 53
1, 807299, Control_c, 0, 64, 68
1, 807318, Control_c, 0, 64, 78
1, 807337, Control_c, 0, 64, 89
1, 807355, Control_c, 0, 64, 102
1, 807374, Control_c, 0, 64, 127
1, 807504, Note_off_c, 0, 28, 27
1, 807582, Poly_aftertouch_c, 0, 35, 28
1, 807589, Note_on_c, 0, 35, 31
1, 807650, Note_off_c, 0, 35, 46
1, 807960, Poly_aftertouch_c, 0, 40, 28
1, 807966, Note_on_c, 0, 40, 32
1, 808022, Note_off_c, 0, 40, 50
1, 808343, Poly_aftertouch_c, 0, 57, 24
1, 808432, Note_off_c, 0, 57, 31
1, 808435, Poly_aftertouch_c, 0, 47, 28
1, 808447, Note_on_c, 0, 47, 38
1, 808539, Note_off_c, 0, 59, 34
1, 808677, Note_off_c, 0, 47, 22
1, 808750, Note_off_c, 0, 63, 35
1, 808793, Note_off_c, 0, 66, 31
1, 808953, Poly_aftertouch_c, 0, 51, 28
1, 808962, Note_on_c, 0, 51, 40
1, 809093, Note_off_c, 0, 51, 37
1, 809150, Poly_aftertouch_c, 0, 69, 28
1, 809153, Note_on_c, 0, 69, 57
1, 809369, Poly_aftertouch_c, 0, 54, 28
1, 809376, Note_on_c, 0, 54, 42
1, 809471, Note_off_c, 0, 69, 41
1, 809968, Poly_aftertouch_c, 0, 54, 24
1, 809997, Poly_aftertouch_c, 0, 68, 28
1, 810005, Note_on_c, 0, 68, 48
1, 810022, Note_off_c, 0, 54, 38
1, 810027, Poly_aftertouch_c, 0, 57, 28
1, 810036, Note_on_c, 0, 57, 32
1, 810231, Note_off_c, 0, 57, 27
1, 810463, Control_c, 0, 67, 123
1, 810516, Note_off_c, 0, 68, 35
1, 810538, Control_c, 0, 67, 118
1, 810612, Control_c, 0, 67, 114
1, 810688, Poly_aftertouch_c, 0, 59, 28
1, 810694, Note_on_c, 0, 59, 33
1, 810874, Note_off_c, 0, 59, 37
1, 811037, Poly_aftertouch_c, 0, 66, 28
1, 811045, Note_on_c, 0, 66, 40
1, 811555, Poly_aftertouch_c, 0, 63, 28
1, 811562, Note_on_c, 0, 63, 36
1, 811725, Note_off_c, 0, 63, 48
1, 811998, Control_c, 0, 67, 118
1, 812260, Control_c, 0, 67, 122
1, 812334, Control_c, 0, 67, 127
1, 812736, Poly_aftertouch_c, 0, 56, 28
1, 812745, Note_on_c, 0, 56, 33
1, 812749, Poly_aftertouch_c, 0, 52, 28
1, 812799, Poly_aftertouch_c, 0, 52, 127
1, 812805, Poly_aftertouch_c, 0, 59, 28
1, 812810, Note_on_c, 0, 59, 40
1, 812880, Note_off_c, 0, 59, 40
1, 813047, Poly_aftertouch_c, 0, 59, 28
1, 813088, Poly_aftertouch_c, 0, 64, 28
1, 813095, Note_on_c, 0, 64, 40
1, 813098, Poly_aftertouch_c, 0, 59, 127
1, 813108, Note_off_c, 0, 66, 39
1, 813159, Control_c, 0, 64, 117
1, 813177, Control_c, 0, 64, 95
1, 813196, Control_c, 0, 64, 78
1, 813215, Control_c, 0, 64, 62
1, 813233, Control_c, 0, 64, 47
1, 813252, Control_c, 0, 64, 36
1, 813271, Control_c, 0, 64, 29
1, 813383, Control_c, 0, 64, 40
1, 813402, Control_c, 0, 64, 52
1, 813420, Control_c, 0, 64, 66
1, 813439, Control_c, 0, 64, 76
1, 813457, Control_c, 0, 64, 90
1, 813477, Control_c, 0, 64, 112
1, 813495, Control_c, 0, 64, 127
1, 813684, Poly_aftertouch_c, 0, 59, 0
1, 813792, Note_off_c, 0, 56, 40
1, 813876, Poly_aftertouch_c, 0, 52, 0
1, 815520, Poly_aftertouch_c, 0, 28, 28
1, 815528, Note_on_c, 0, 28, 38
1, 815598, Note_off_c, 0, 28, 57
1, 816359, Control_c, 0, 67, 123
1, 816415, Control_c, 0, 67, 118
1, 816453, Control_c, 0, 67, 113
1, 816491, Control_c, 0, 67, 108
1, 816528, Control_c, 0, 67, 101
1, 816546, Control_c, 0, 67, 97
1, 816583, Control_c, 0, 67, 91
1, 816621, Control_c, 0, 67, 85
1, 816677, Control_c, 0, 67, 81
1, 817015, Control_c, 0, 67, 85
1, 817333, Poly_aftertouch_c, 0, 76, 28
1, 817338, Note_on_c, 0, 76, 63
1, 817537, Note_off_c, 0, 64, 37
1, 817875, Control_c, 0, 67, 89
1, 818025, Control_c, 0, 67, 93
1, 818062, Control_c, 0, 67, 98
1, 818100, Control_c, 0, 67, 102
1, 818156, Control_c, 0, 67, 107
1, 818212, Control_c, 0, 67, 112
1, 818222, Poly_aftertouch_c, 0, 75, 28
1, 818231, Note_on_c, 0, 75, 54
1, 818250, Control_c, 0, 67, 117
1, 818253, Note_off_c, 0, 76, 47
1, 818288, Control_c, 0, 67, 124
1, 818417, Poly_aftertouch_c, 0, 52, 28
1, 818423, Note_on_c, 0, 52, 25
1, 818495, Poly_aftertouch_c, 0, 57, 28
1, 818506, Note_on_c, 0, 57, 31
1, 818642, Poly_aftertouch_c, 0, 63, 28
1, 818652, Note_on_c, 0, 63, 24
1, 818735, Poly_aftertouch_c, 0, 66, 28
1, 818743, Note_on_c, 0, 66, 41
1, 818756, Control_c, 0, 64, 105
1, 818773, Control_c, 0, 64, 80
1, 818793, Control_c, 0, 64, 61
1, 818812, Control_c, 0, 64, 46
1, 818830, Control_c, 0, 64, 38
1, 818886, Control_c, 0, 64, 40
1, 818905, Control_c, 0, 64, 48
1, 818923, Control_c, 0, 64, 59
1, 818942, Control_c, 0, 64, 70
1, 818961, Control_c, 0, 64, 82
1, 818980, Control_c, 0, 64, 102
1, 818998, Control_c, 0, 64, 127
1, 819187, Note_off_c, 0, 75, 51
1, 819215, Poly_aftertouch_c, 0, 52, 24
1, 819341, Note_off_c, 0, 52, 26
1, 819390, Note_off_c, 0, 63, 32
1, 819436, Note_off_c, 0, 57, 27
1, 819589, Poly_aftertouch_c, 0, 73, 28
1, 819596, Note_on_c, 0, 73, 55
1, 819843, Note_off_c, 0, 66, 33
1, 820074, Poly_aftertouch_c, 0, 71, 28
1, 820082, Note_on_c, 0, 71, 56
1, 820160, Note_off_c, 0, 73, 37
1, 820223, Poly_aftertouch_c, 0, 52, 28
1, 820232, Note_on_c, 0, 52, 20
1, 820284, Poly_aftertouch_c, 0, 57, 28
1, 820294, Note_on_c, 0, 57, 32
1, 820396, Poly_aftertouch_c, 0, 61, 28
1, 820404, Note_on_c, 0, 61, 35
1, 820515, Control_c, 0, 64, 107
1, 820516, Poly_aftertouch_c, 0, 64, 28
1, 820525, Note_on_c, 0, 64, 41
1, 820533, Control_c, 0, 64, 83
1, 820553, Control_c, 0, 64, 63
1, 820571, Control_c, 0, 64, 45
1, 820589, Control_c, 0, 64, 33
1, 820608, Control_c, 0, 64, 28
1, 820703, Control_c, 0, 64, 38
1, 820720, Control_c, 0, 64, 49
1, 820740, Control_c, 0, 64, 64
1, 820758, Control_c, 0, 64, 76
1, 820777, Control_c, 0, 64, 91
1, 820795, Control_c, 0, 64, 127
1, 820932, Note_off_c, 0, 71, 53
1, 820964, Note_off_c, 0, 61, 39
1, 820983, Note_off_c, 0, 57, 39
1, 821034, Poly_aftertouch_c, 0, 52, 24
1, 821102, Note_off_c, 0, 52, 34
1, 822348, Poly_aftertouch_c, 0, 28, 28
1, 822356, Note_on_c, 0, 28, 36
1, 822441, Note_off_c, 0, 28, 44
1, 823160, Poly_aftertouch_c, 0, 69, 28
1, 823165, Note_on_c, 0, 69, 60
1, 823306, Note_off_c, 0, 64, 52
1, 823877, Poly_aftertouch_c, 0, 68, 28
1, 823885, Note_on_c, 0, 68, 58
1, 823950, Note_off_c, 0, 69, 46
1, 824052, Poly_aftertouch_c, 0, 52, 28
1, 824057, Note_on_c, 0, 52, 34
1, 824213, Poly_aftertouch_c, 0, 57, 28
1, 824222, Note_on_c, 0, 57, 35
1, 824259, Control_c, 0, 64, 99
1, 824268, Poly_aftertouch_c, 0, 61, 28
1, 824275, Note_on_c, 0, 61, 42
1, 824278, Control_c, 0, 64, 74
1, 824297, Control_c, 0, 64, 55
1, 824314, Control_c, 0, 64, 41
1, 824333, Control_c, 0, 64, 34
1, 824389, Control_c, 0, 64, 40
1, 824408, Control_c, 0, 64, 50
1, 824426, Control_c, 0, 64, 64
1, 824446, Control_c, 0, 64, 77
1, 824463, Control_c, 0, 64, 98
1, 824483, Control_c, 0, 64, 127
1, 824547, Note_off_c, 0, 68, 61
1, 824689, Note_off_c, 0, 52, 39
1, 824721, Note_off_c, 0, 57, 39
1, 824822, Poly_aftertouch_c, 0, 66, 28
1, 824829, Note_on_c, 0, 66, 62
1, 825044, Note_off_c, 0, 61, 36
1, 825274, Poly_aftertouch_c, 0, 64, 28
1, 825282, Note_on_c, 0, 64, 64
1, 825385, Note_off_c, 0, 66, 49
1, 825416, Poly_aftertouch_c, 0, 40, 28
1, 825427, Note_on_c, 0, 40, 33
1, 825581, Poly_aftertouch_c, 0, 54, 28
1, 825593, Note_on_c, 0, 54, 37
1, 825717, Poly_aftertouch_c, 0, 57, 28
1, 825721, Note_on_c, 0, 57, 48
1, 825736, Control_c, 0, 64, 105
1, 825756, Control_c, 0, 64, 86
1, 825775, Control_c, 0, 64, 69
1, 825793, Control_c, 0, 64, 53
1, 825812, Control_c, 0, 64, 38
1, 825830, Control_c, 0, 64, 29
1, 825943, Control_c, 0, 64, 38
1, 825962, Control_c, 0, 64, 49
1, 825981, Control_c, 0, 64, 64
1, 825999, Control_c, 0, 64, 76
1, 826018, Control_c, 0, 64, 91
1, 826038, Control_c, 0, 64, 121
1, 826055, Control_c, 0, 64, 127
1, 826153, Note_off_c, 0, 54, 41
1, 826173, Note_off_c, 0, 64, 59
1, 826376, Poly_aftertouch_c, 0, 40, 24
1, 826434, Note_off_c, 0, 40, 37
1, 827783, Poly_aftertouch_c, 0, 28, 28
1, 827796, Note_on_c, 0, 28, 33
1, 827884, Note_off_c, 0, 28, 46
1, 828710, Poly_aftertouch_c, 0, 63, 28
1, 828718, Note_on_c, 0, 63, 58
1, 828897, Note_off_c, 0, 57, 35
1, 829700, Poly_aftertouch_c, 0, 61, 28
1, 829709, Note_on_c, 0, 61, 56
1, 829742, Note_off_c, 0, 63, 58
1, 829857, Poly_aftertouch_c, 0, 40, 28
1, 829864, Note_on_c, 0, 40, 34
1, 830077, Poly_aftertouch_c, 0, 51, 28
1, 830083, Note_on_c, 0, 51, 32
1, 830209, Poly_aftertouch_c, 0, 54, 28
1, 830217, Note_on_c, 0, 54, 42
1, 830268, Control_c, 0, 64, 97
1, 830285, Control_c, 0, 64, 77
1, 830305, Control_c, 0, 64, 60
1, 830323, Control_c, 0, 64, 44
1, 830342, Control_c, 0, 64, 34
1, 830454, Control_c, 0, 64, 38
1, 830473, Control_c, 0, 64, 47
1, 830491, Control_c, 0, 64, 60
1, 830510, Control_c, 0, 64, 70
1, 830529, Control_c, 0, 64, 78
1, 830548, Control_c, 0, 64, 89
1, 830567, Control_c, 0, 64, 103
1, 830585, Control_c, 0, 64, 127
1, 830968, Poly_aftertouch_c, 0, 59, 28
1, 830974, Note_on_c, 0, 59, 59
1, 831035, Control_c, 0, 64, 110
1, 831043, Note_off_c, 0, 61, 36
1, 831054, Control_c, 0, 64, 87
1, 831072, Control_c, 0, 64, 67
1, 831091, Control_c, 0, 64, 50
1, 831110, Control_c, 0, 64, 36
1, 831128, Control_c, 0, 64, 30
1, 831204, Control_c, 0, 64, 38
1, 831221, Control_c, 0, 64, 50
1, 831241, Control_c, 0, 64, 66
1, 831259, Control_c, 0, 64, 80
1, 831278, Control_c, 0, 64, 99
1, 831297, Control_c, 0, 64, 127
1, 831505, Note_off_c, 0, 40, 33
1, 831634, Note_off_c, 0, 54, 36
1, 831680, Note_off_c, 0, 51, 34
1, 831704, Poly_aftertouch_c, 0, 57, 28
1, 831709, Note_on_c, 0, 57, 64
1, 831828, Note_off_c, 0, 59, 55
1, 831995, Poly_aftertouch_c, 0, 40, 28
1, 832002, Note_on_c, 0, 40, 37
1, 832980, Poly_aftertouch_c, 0, 64, 28
1, 832988, Note_on_c, 0, 64, 38
1, 833017, Poly_aftertouch_c, 0, 47, 28
1, 833028, Note_on_c, 0, 47, 33
1, 833076, Control_c, 0, 64, 112
1, 833093, Control_c, 0, 64, 94
1, 833113, Control_c, 0, 64, 79
1, 833131, Control_c, 0, 64, 67
1, 833149, Control_c, 0, 64, 57
1, 833168, Control_c, 0, 64, 48
1, 833187, Control_c, 0, 64, 41
1, 833206, Control_c, 0, 64, 32
1, 833224, Control_c, 0, 64, 21
1, 833243, Control_c, 0, 64, 10
1, 833281, Control_c, 0, 64, 0
1, 834451, Poly_aftertouch_c, 0, 56, 28
1, 834460, Note_on_c, 0, 56, 36
1, 834535, Note_off_c, 0, 57, 51
1, 834723, Control_c, 0, 64, 10
1, 834741, Control_c, 0, 64, 15
1, 834760, Control_c, 0, 64, 20
1, 834778, Control_c, 0, 64, 25
1, 834797, Control_c, 0, 64, 32
1, 834815, Control_c, 0, 64, 42
1, 834834, Control_c, 0, 64, 54
1, 834852, Control_c, 0, 64, 62
1, 834872, Control_c, 0, 64, 66
1, 834890, Control_c, 0, 64, 68
1, 834909, Control_c, 0, 64, 70
1, 834928, Control_c, 0, 64, 74
1, 834947, Control_c, 0, 64, 81
1, 834965, Control_c, 0, 64, 95
1, 834983, Control_c, 0, 64, 127
1, 835083, Poly_aftertouch_c, 0, 40, 24
1, 835179, Note_off_c, 0, 40, 31
1, 835251, Note_off_c, 0, 56, 34
1, 835266, Note_off_c, 0, 47, 34
1, 835353, Note_off_c, 0, 64, 37
1, 836545, Poly_aftertouch_c, 0, 40, 28
1, 836553, Note_on_c, 0, 40, 35
1, 836755, Poly_aftertouch_c, 0, 47, 28
1, 836767, Note_on_c, 0, 47, 36
1, 837189, Poly_aftertouch_c, 0, 83, 28
1, 837198, Note_on_c, 0, 83, 42
1, 837210, Poly_aftertouch_c, 0, 75, 28
1, 837213, Poly_aftertouch_c, 0, 54, 28
1, 837221, Note_on_c, 0, 54, 38
1, 837223, Note_on_c, 0, 75, 37
1, 837249, Control_c, 0, 64, 99
1, 837250, Poly_aftertouch_c, 0, 71, 28
1, 837255, Poly_aftertouch_c, 0, 69, 28
1, 837260, Note_on_c, 0, 69, 28
1, 837262, Note_on_c, 0, 71, 26
1, 837266, Control_c, 0, 64, 81
1, 837287, Control_c, 0, 64, 66
1, 837305, Control_c, 0, 64, 53
1, 837323, Control_c, 0, 64, 42
1, 837343, Control_c, 0, 64, 32
1, 837361, Control_c, 0, 64, 25
1, 837398, Control_c, 0, 64, 20
1, 837530, Control_c, 0, 64, 25
1, 837536, Poly_aftertouch_c, 0, 40, 24
1, 837549, Control_c, 0, 64, 29
1, 837567, Control_c, 0, 64, 35
1, 837586, Control_c, 0, 64, 42
1, 837605, Control_c, 0, 64, 52
1, 837624, Control_c, 0, 64, 61
1, 837641, Control_c, 0, 64, 65
1, 837662, Control_c, 0, 64, 68
1, 837698, Control_c, 0, 64, 73
1, 837717, Control_c, 0, 64, 78
1, 837736, Control_c, 0, 64, 87
1, 837755, Control_c, 0, 64, 101
1, 837772, Control_c, 0, 64, 127
1, 837790, Poly_aftertouch_c, 0, 40, 22
1, 837850, Note_off_c, 0, 40, 19
1, 837946, Poly_aftertouch_c, 0, 69, 24
1, 837975, Note_off_c, 0, 47, 39
1, 837990, Note_off_c, 0, 83, 39
1, 837994, Poly_aftertouch_c, 0, 71, 24
1, 838078, Note_off_c, 0, 71, 32
1, 838082, Note_off_c, 0, 69, 25
1, 838166, Note_off_c, 0, 75, 41
1, 838255, Note_off_c, 0, 54, 40
1, 840737, Poly_aftertouch_c, 0, 52, 28
1, 840743, Note_on_c, 0, 52, 39
1, 840900, Control_c, 0, 64, 106
1, 840918, Control_c, 0, 64, 91
1, 840937, Control_c, 0, 64, 78
1, 840956, Control_c, 0, 64, 67
1, 840974, Control_c, 0, 64, 57
1, 840993, Control_c, 0, 64, 48
1, 841011, Control_c, 0, 64, 39
1, 841031, Control_c, 0, 64, 31
1, 841048, Control_c, 0, 64, 24
1, 841067, Control_c, 0, 64, 20
1, 841218, Control_c, 0, 64, 27
1, 841236, Control_c, 0, 64, 33
1, 841254, Control_c, 0, 64, 40
1, 841275, Control_c, 0, 64, 52
1, 841292, Control_c, 0, 64, 62
1, 841310, Control_c, 0, 64, 68
1, 841329, Control_c, 0, 64, 70
1, 841367, Control_c, 0, 64, 72
1, 841385, Control_c, 0, 64, 74
1, 841404, Control_c, 0, 64, 79
1, 841424, Control_c, 0, 64, 88
1, 841442, Control_c, 0, 64, 101
1, 841460, Control_c, 0, 64, 127
1, 842338, Poly_aftertouch_c, 0, 56, 28
1, 842347, Note_on_c, 0, 56, 35
1, 842670, Poly_aftertouch_c, 0, 52, 24
1, 842889, Note_off_c, 0, 52, 19
1, 843117, Poly_aftertouch_c, 0, 56, 24
1, 843303, Note_off_c, 0, 56, 21
1, 843315, Poly_aftertouch_c, 0, 59, 28
1, 843321, Note_on_c, 0, 59, 40
1, 844005, Poly_aftertouch_c, 0, 59, 24
1, 844043, Poly_aftertouch_c, 0, 64, 28
1, 844049, Note_on_c, 0, 64, 33
1, 844066, Note_off_c, 0, 59, 36
1, 844142, Note_off_c, 0, 64, 0
1, 844143, Poly_aftertouch_c, 0, 64, 28
1, 844635, Poly_aftertouch_c, 0, 68, 28
1, 844648, Note_on_c, 0, 68, 36
1, 844689, Poly_aftertouch_c, 0, 64, 24
1, 844787, Poly_aftertouch_c, 0, 64, 0
1, 845388, Poly_aftertouch_c, 0, 71, 28
1, 845396, Note_on_c, 0, 71, 37
1, 845495, Note_off_c, 0, 68, 41
1, 846303, Poly_aftertouch_c, 0, 71, 24
1, 846383, Poly_aftertouch_c, 0, 76, 28
1, 846390, Note_on_c, 0, 76, 40
1, 846411, Note_off_c, 0, 71, 28
1, 847416, Poly_aftertouch_c, 0, 80, 28
1, 847430, Note_on_c, 0, 80, 41
1, 847496, Poly_aftertouch_c, 0, 76, 24
1, 847640, Note_off_c, 0, 76, 23
1, 848946, Poly_aftertouch_c, 0, 83, 28
1, 848954, Note_on_c, 0, 83, 40
1, 849077, Note_off_c, 0, 80, 44
1, 851848, Poly_aftertouch_c, 0, 88, 28
1, 851853, Note_on_c, 0, 88, 41
1, 851971, Note_off_c, 0, 83, 35
1, 856199, Poly_aftertouch_c, 0, 28, 28
1, 856215, Note_on_c, 0, 28, 23
1, 871579, Control_c, 0, 67, 120
1, 871653, Control_c, 0, 64, 114
1, 871654, Control_c, 0, 67, 115
1, 871672, Control_c, 0, 64, 107
1, 871692, Control_c, 0, 64, 103
1, 871710, Control_c, 0, 64, 99
1, 871711, Control_c, 0, 67, 111
1, 871729, Control_c, 0, 64, 94
1, 871766, Control_c, 0, 64, 87
1, 871786, Control_c, 0, 64, 83
1, 871804, Control_c, 0, 64, 81
1, 871841, Control_c, 0, 64, 78
1, 871878, Control_c, 0, 64, 74
1, 871898, Control_c, 0, 64, 72
1, 871916, Control_c, 0, 64, 69
1, 871935, Control_c, 0, 64, 67
1, 871953, Control_c, 0, 64, 65
1, 871972, Control_c, 0, 64, 63
1, 871991, Control_c, 0, 64, 62
1, 871997, Note_off_c, 0, 88, 39
1, 872009, Control_c, 0, 64, 61
1, 872027, Control_c, 0, 64, 60
1, 872067, Control_c, 0, 64, 57
1, 872084, Control_c, 0, 64, 54
1, 872102, Control_c, 0, 64, 52
1, 872122, Control_c, 0, 64, 50
1, 872140, Control_c, 0, 64, 48
1, 872155, Note_off_c, 0, 28, 37
1, 872157, Control_c, 0, 64, 46
1, 872178, Control_c, 0, 64, 43
1, 872197, Control_c, 0, 64, 41
1, 872234, Control_c, 0, 64, 37
1, 872289, Control_c, 0, 64, 32
1, 872365, Control_c, 0, 64, 27
1, 872421, Control_c, 0, 64, 23
1, 872553, Control_c, 0, 64, 19
1, 874236, Control_c, 0, 67, 115
1, 885636, Control_c, 0, 64, 15
1, 885748, Control_c, 0, 64, 11
1, 885861, Control_c, 0, 64, 0
1, 885935, Control_c, 0, 67, 111
1, 886142, Control_c, 0, 67, 107
1, 886217, Control_c, 0, 67, 101
1, 886235, Control_c, 0, 67, 90
1, 886253, Control_c, 0, 67, 78
1, 886272, Control_c, 0, 67, 67
1, 886291, Control_c, 0, 67, 60
1, 886311, Control_c, 0, 67, 54
1, 886329, Control_c, 0, 67, 49
1, 886348, Control_c, 0, 67, 45
1, 886366, Control_c, 0, 67, 40
1, 886386, Control_c, 0, 67, 36
1, 886403, Control_c, 0, 67, 31
1, 886441, Control_c, 0, 67, 25
1, 887059, Control_c, 0, 67, 16
1, 887077, Control_c, 0, 67, 11
1, 887208, Control_c, 0, 67, 0
1, 888108, Control_c, 0, 67, 8
1, 888164, Control_c, 0, 67, 12
1, 888183, Control_c, 0, 64, 8
1, 888239, Control_c, 0, 67, 17
1, 888257, Control_c, 0, 64, 12
1, 888294, Control_c, 0, 67, 21
1, 888331, Control_c, 0, 64, 16
1, 888332, Control_c, 0, 67, 29
1, 888351, Control_c, 0, 67, 34
1, 888370, Control_c, 0, 67, 39
1, 888388, Control_c, 0, 67, 44
1, 888407, Control_c, 0, 64, 21
1, 888425, Control_c, 0, 67, 51
1, 888445, Control_c, 0, 64, 25
1, 888462, Control_c, 0, 64, 30
1, 888465, Control_c, 0, 67, 56
1, 888481, Control_c, 0, 64, 35
1, 888501, Control_c, 0, 64, 42
1, 888502, Control_c, 0, 67, 61
1, 888519, Control_c, 0, 64, 50
1, 888538, Control_c, 0, 64, 55
1, 888539, Control_c, 0, 67, 69
1, 888557, Control_c, 0, 67, 73
1, 888594, Control_c, 0, 67, 79
1, 888631, Control_c, 0, 64, 57
1, 888651, Control_c, 0, 67, 83
1, 888688, Control_c, 0, 64, 60
1, 888706, Control_c, 0, 64, 61
1, 888707, Control_c, 0, 67, 90
1, 888725, Control_c, 0, 64, 62
1, 888744, Control_c, 0, 64, 63
1, 888745, Control_c, 0, 67, 96
1, 888762, Control_c, 0, 64, 64
1, 888781, Control_c, 0, 64, 66
1, 888782, Control_c, 0, 67, 102
1, 888800, Control_c, 0, 64, 67
1, 888818, Control_c, 0, 67, 109
1, 888838, Control_c, 0, 64, 70
1, 888839, Control_c, 0, 67, 113
1, 888857, Control_c, 0, 67, 118
1, 888874, Control_c, 0, 64, 73
1, 888875, Control_c, 0, 67, 122
1, 888894, Control_c, 0, 67, 127
1, 888912, Control_c, 0, 64, 76
1, 888968, Control_c, 0, 64, 79
1, 889005, Control_c, 0, 64, 82
1, 889043, Control_c, 0, 64, 84
1, 889081, Control_c, 0, 64, 87
1, 889137, Control_c, 0, 64, 91
1, 889378, Poly_aftertouch_c, 0, 55, 28
1, 889381, Poly_aftertouch_c, 0, 67, 28
1, 889385, Poly_aftertouch_c, 0, 59, 28
1, 889391, Note_on_c, 0, 67, 36
1, 889391, Note_on_c, 0, 55, 30
1, 889392, Note_on_c, 0, 59, 32
1, 889393, Poly_aftertouch_c, 0, 52, 28
1, 889394, Poly_aftertouch_c, 0, 64, 28
1, 889396, Poly_aftertouch_c, 0, 71, 28
1, 889399, Note_on_c, 0, 71, 43
1, 889401, Note_on_c, 0, 52, 34
1, 889403, Note_on_c, 0, 64, 28
1, 889661, Control_c, 0, 64, 95
1, 889756, Poly_aftertouch_c, 0, 72, 28
1, 889763, Note_on_c, 0, 72, 45
1, 889784, Poly_aftertouch_c, 0, 51, 28
1, 889790, Note_on_c, 0, 51, 36
1, 889791, Control_c, 0, 64, 90
1, 889810, Control_c, 0, 64, 86
1, 889830, Control_c, 0, 64, 81
1, 889836, Note_off_c, 0, 52, 29
1, 889848, Control_c, 0, 64, 76
1, 889864, Note_off_c, 0, 71, 35
1, 889866, Control_c, 0, 64, 69
1, 889872, Note_off_c, 0, 55, 48
1, 889881, Note_off_c, 0, 64, 47
1, 889885, Control_c, 0, 64, 62
1, 889892, Note_off_c, 0, 59, 25
1, 889906, Control_c, 0, 64, 54
1, 889913, Note_off_c, 0, 67, 36
1, 889923, Control_c, 0, 64, 48
1, 889927, Note_off_c, 0, 72, 60
1, 889931, Note_off_c, 0, 51, 48
1, 889941, Control_c, 0, 64, 42
1, 889961, Control_c, 0, 64, 36
1, 889979, Control_c, 0, 64, 31
1, 889998, Control_c, 0, 64, 26
1, 890016, Control_c, 0, 64, 21
1, 890054, Control_c, 0, 64, 15
1, 890091, Control_c, 0, 64, 11
1, 890429, Poly_aftertouch_c, 0, 79, 28
1, 890438, Note_on_c, 0, 79, 52
1, 890440, Poly_aftertouch_c, 0, 43, 28
1, 890440, Poly_aftertouch_c, 0, 47, 28
1, 890442, Note_on_c, 0, 43, 36
1, 890444, Note_on_c, 0, 76, 43
1, 890444, Poly_aftertouch_c, 0, 76, 28
1, 890449, Note_on_c, 0, 47, 38
1, 890450, Poly_aftertouch_c, 0, 71, 28
1, 890457, Note_on_c, 0, 71, 41
1, 890460, Poly_aftertouch_c, 0, 52, 28
1, 890464, Note_on_c, 0, 52, 37
1, 890522, Control_c, 0, 64, 16
1, 890542, Control_c, 0, 64, 21
1, 890559, Control_c, 0, 64, 27
1, 890579, Control_c, 0, 64, 38
1, 890597, Control_c, 0, 64, 53
1, 890615, Control_c, 0, 64, 64
1, 890634, Control_c, 0, 64, 69
1, 890671, Control_c, 0, 64, 71
1, 890761, Note_off_c, 0, 43, 36
1, 890790, Poly_aftertouch_c, 0, 70, 28
1, 890801, Note_on_c, 0, 70, 44
1, 890803, Poly_aftertouch_c, 0, 54, 28
1, 890809, Note_on_c, 0, 54, 45
1, 890821, Control_c, 0, 64, 68
1, 890833, Note_off_c, 0, 47, 38
1, 890835, Note_off_c, 0, 79, 36
1, 890839, Control_c, 0, 64, 66
1, 890860, Control_c, 0, 64, 63
1, 890878, Control_c, 0, 64, 60
1, 890882, Note_off_c, 0, 52, 46
1, 890896, Control_c, 0, 64, 57
1, 890915, Control_c, 0, 64, 52
1, 890925, Note_off_c, 0, 76, 40
1, 890933, Note_off_c, 0, 71, 58
1, 890933, Control_c, 0, 64, 47
1, 890945, Note_off_c, 0, 70, 54
1, 890951, Control_c, 0, 64, 40
1, 890964, Note_off_c, 0, 54, 53
1, 890971, Control_c, 0, 64, 30
1, 890990, Control_c, 0, 64, 23
1, 891008, Control_c, 0, 64, 18
1, 891046, Control_c, 0, 64, 14
1, 891121, Control_c, 0, 64, 10
1, 891348, Poly_aftertouch_c, 0, 71, 28
1, 891353, Poly_aftertouch_c, 0, 59, 28
1, 891356, Note_on_c, 0, 59, 46
1, 891356, Note_on_c, 0, 71, 64
1, 891357, Poly_aftertouch_c, 0, 67, 28
1, 891361, Note_on_c, 0, 67, 52
1, 891362, Poly_aftertouch_c, 0, 55, 28
1, 891364, Note_on_c, 0, 55, 47
1, 891369, Poly_aftertouch_c, 0, 64, 28
1, 891373, Note_on_c, 0, 64, 43
1, 891385, Poly_aftertouch_c, 0, 52, 28
1, 891388, Note_on_c, 0, 52, 40
1, 891476, Control_c, 0, 64, 20
1, 891495, Control_c, 0, 64, 28
1, 891514, Control_c, 0, 64, 41
1, 891533, Control_c, 0, 64, 57
1, 891551, Control_c, 0, 64, 66
1, 891571, Control_c, 0, 64, 69
1, 891665, Control_c, 0, 64, 67
1, 891675, Poly_aftertouch_c, 0, 72, 28
1, 891680, Note_on_c, 0, 72, 58
1, 891681, Control_c, 0, 64, 64
1, 891695, Note_off_c, 0, 52, 51
1, 891695, Poly_aftertouch_c, 0, 51, 28
1, 891702, Note_on_c, 0, 51, 52
1, 891702, Control_c, 0, 64, 62
1, 891717, Note_off_c, 0, 64, 32
1, 891717, Note_off_c, 0, 59, 33
1, 891721, Control_c, 0, 64, 58
1, 891726, Note_off_c, 0, 71, 58
1, 891738, Control_c, 0, 64, 54
1, 891744, Note_off_c, 0, 55, 43
1, 891757, Control_c, 0, 64, 49
1, 891762, Note_off_c, 0, 67, 58
1, 891777, Control_c, 0, 64, 42
1, 891795, Control_c, 0, 64, 34
1, 891800, Note_off_c, 0, 51, 59
1, 891813, Control_c, 0, 64, 26
1, 891826, Note_off_c, 0, 72, 60
1, 891831, Control_c, 0, 64, 21
1, 891870, Control_c, 0, 64, 17
1, 891944, Control_c, 0, 64, 13
1, 892263, Poly_aftertouch_c, 0, 79, 28
1, 892269, Note_on_c, 0, 79, 47
1, 892269, Poly_aftertouch_c, 0, 76, 28
1, 892272, Note_on_c, 0, 76, 45
1, 892278, Poly_aftertouch_c, 0, 43, 28
1, 892279, Poly_aftertouch_c, 0, 47, 28
1, 892287, Note_on_c, 0, 43, 32
1, 892287, Note_on_c, 0, 47, 33
1, 892294, Poly_aftertouch_c, 0, 71, 28
1, 892298, Note_on_c, 0, 71, 41
1, 892298, Poly_aftertouch_c, 0, 52, 28
1, 892302, Note_on_c, 0, 52, 35
1, 892375, Control_c, 0, 64, 22
1, 892395, Control_c, 0, 64, 31
1, 892402, Note_off_c, 0, 79, 45
1, 892412, Control_c, 0, 64, 47
1, 892431, Control_c, 0, 64, 62
1, 892450, Control_c, 0, 64, 70
1, 892469, Control_c, 0, 64, 73
1, 892486, Note_off_c, 0, 76, 57
1, 892525, Note_off_c, 0, 43, 35
1, 892564, Note_off_c, 0, 71, 55
1, 892586, Note_off_c, 0, 47, 37
1, 892616, Poly_aftertouch_c, 0, 64, 28
1, 892621, Poly_aftertouch_c, 0, 55, 28
1, 892623, Note_on_c, 0, 64, 42
1, 892630, Note_on_c, 0, 55, 41
1, 892631, Note_off_c, 0, 52, 40
1, 892637, Control_c, 0, 64, 71
1, 892656, Control_c, 0, 64, 69
1, 892675, Control_c, 0, 64, 66
1, 892693, Control_c, 0, 64, 62
1, 892713, Control_c, 0, 64, 59
1, 892731, Control_c, 0, 64, 56
1, 892748, Control_c, 0, 64, 52
1, 892750, Note_off_c, 0, 64, 59
1, 892753, Note_off_c, 0, 55, 57
1, 892768, Control_c, 0, 64, 48
1, 892787, Control_c, 0, 64, 43
1, 892805, Control_c, 0, 64, 36
1, 892824, Control_c, 0, 64, 29
1, 892842, Control_c, 0, 64, 24
1, 892880, Control_c, 0, 64, 18
1, 892918, Control_c, 0, 64, 14
1, 892955, Control_c, 0, 67, 122
1, 892993, Control_c, 0, 67, 115
1, 893247, Poly_aftertouch_c, 0, 66, 28
1, 893248, Poly_aftertouch_c, 0, 72, 28
1, 893252, Note_on_c, 0, 72, 54
1, 893253, Poly_aftertouch_c, 0, 54, 28
1, 893259, Note_on_c, 0, 66, 39
1, 893261, Poly_aftertouch_c, 0, 57, 28
1, 893261, Poly_aftertouch_c, 0, 60, 28
1, 893266, Note_on_c, 0, 54, 33
1, 893266, Note_on_c, 0, 57, 39
1, 893267, Note_on_c, 0, 60, 37
1, 893267, Poly_aftertouch_c, 0, 69, 28
1, 893268, Note_on_c, 0, 69, 43
1, 893348, Control_c, 0, 64, 21
1, 893367, Control_c, 0, 64, 29
1, 893386, Control_c, 0, 64, 43
1, 893397, Note_off_c, 0, 66, 53
1, 893405, Control_c, 0, 64, 62
1, 893423, Control_c, 0, 64, 72
1, 893441, Control_c, 0, 64, 77
1, 893461, Control_c, 0, 64, 79
1, 893486, Note_off_c, 0, 54, 52
1, 893536, Control_c, 0, 64, 76
1, 893553, Note_off_c, 0, 60, 32
1, 893553, Control_c, 0, 64, 73
1, 893559, Poly_aftertouch_c, 0, 53, 28
1, 893562, Note_on_c, 0, 53, 47
1, 893562, Poly_aftertouch_c, 0, 74, 28
1, 893566, Note_on_c, 0, 74, 62
1, 893572, Control_c, 0, 64, 70
1, 893590, Note_off_c, 0, 72, 54
1, 893592, Control_c, 0, 64, 65
1, 893610, Control_c, 0, 64, 60
1, 893629, Control_c, 0, 64, 55
1, 893636, Note_off_c, 0, 69, 46
1, 893643, Note_off_c, 0, 57, 36
1, 893648, Control_c, 0, 64, 49
1, 893667, Control_c, 0, 64, 42
1, 893680, Note_off_c, 0, 53, 56
1, 893686, Control_c, 0, 64, 35
1, 893695, Note_off_c, 0, 74, 61
1, 893703, Control_c, 0, 64, 29
1, 893723, Control_c, 0, 64, 25
1, 893725, Control_c, 0, 67, 108
1, 893741, Control_c, 0, 67, 103
1, 893760, Control_c, 0, 64, 20
1, 893762, Control_c, 0, 67, 97
1, 893779, Control_c, 0, 67, 91
1, 893798, Control_c, 0, 67, 85
1, 893816, Control_c, 0, 64, 16
1, 893835, Control_c, 0, 67, 80
1, 894099, Poly_aftertouch_c, 0, 78, 28
1, 894100, Poly_aftertouch_c, 0, 81, 28
1, 894103, Note_on_c, 0, 81, 64
1, 894106, Note_on_c, 0, 78, 61
1, 894107, Poly_aftertouch_c, 0, 54, 28
1, 894113, Poly_aftertouch_c, 0, 45, 28
1, 894113, Poly_aftertouch_c, 0, 48, 28
1, 894118, Note_on_c, 0, 45, 43
1, 894119, Note_on_c, 0, 54, 45
1, 894119, Note_on_c, 0, 72, 51
1, 894119, Poly_aftertouch_c, 0, 72, 28
1, 894123, Note_on_c, 0, 48, 40
1, 894248, Control_c, 0, 64, 22
1, 894267, Control_c, 0, 64, 29
1, 894283, Control_c, 0, 64, 38
1, 894303, Control_c, 0, 64, 53
1, 894322, Control_c, 0, 64, 64
1, 894341, Control_c, 0, 64, 69
1, 894382, Note_off_c, 0, 45, 34
1, 894382, Note_off_c, 0, 48, 37
1, 894399, Note_off_c, 0, 81, 54
1, 894417, Poly_aftertouch_c, 0, 71, 28
1, 894420, Note_on_c, 0, 71, 65
1, 894421, Poly_aftertouch_c, 0, 55, 28
1, 894429, Note_on_c, 0, 55, 56
1, 894442, Note_off_c, 0, 54, 57
1, 894490, Control_c, 0, 64, 65
1, 894506, Note_off_c, 0, 78, 60
1, 894509, Control_c, 0, 64, 62
1, 894514, Note_off_c, 0, 72, 55
1, 894517, Note_off_c, 0, 55, 59
1, 894528, Control_c, 0, 64, 57
1, 894530, Note_off_c, 0, 71, 56
1, 894546, Control_c, 0, 64, 53
1, 894565, Control_c, 0, 64, 48
1, 894584, Control_c, 0, 64, 41
1, 894603, Control_c, 0, 64, 34
1, 894621, Control_c, 0, 64, 28
1, 894640, Control_c, 0, 64, 23
1, 894658, Control_c, 0, 67, 84
1, 894678, Control_c, 0, 64, 17
1, 894752, Control_c, 0, 64, 13
1, 894958, Poly_aftertouch_c, 0, 66, 28
1, 894958, Poly_aftertouch_c, 0, 69, 28
1, 894959, Poly_aftertouch_c, 0, 72, 28
1, 894963, Note_on_c, 0, 72, 72
1, 894964, Note_on_c, 0, 69, 63
1, 894965, Note_on_c, 0, 66, 58
1, 894968, Note_on_c, 0, 57, 46
1, 894969, Poly_aftertouch_c, 0, 54, 28
1, 894969, Poly_aftertouch_c, 0, 57, 28
1, 894970, Poly_aftertouch_c, 0, 60, 28
1, 894972, Note_on_c, 0, 60, 45
1, 894973, Note_on_c, 0, 54, 43
1, 895052, Control_c, 0, 64, 20
1, 895071, Control_c, 0, 64, 29
1, 895089, Control_c, 0, 64, 41
1, 895108, Control_c, 0, 64, 60
1, 895124, Note_off_c, 0, 66, 35
1, 895128, Control_c, 0, 64, 73
1, 895146, Control_c, 0, 64, 82
1, 895164, Control_c, 0, 64, 89
1, 895213, Note_off_c, 0, 54, 35
1, 895261, Note_off_c, 0, 60, 30
1, 895267, Poly_aftertouch_c, 0, 74, 28
1, 895274, Note_on_c, 0, 74, 65
1, 895276, Control_c, 0, 64, 86
1, 895277, Note_on_c, 0, 53, 51
1, 895277, Poly_aftertouch_c, 0, 53, 28
1, 895295, Control_c, 0, 64, 79
1, 895308, Note_off_c, 0, 72, 58
1, 895313, Control_c, 0, 64, 71
1, 895333, Control_c, 0, 64, 62
1, 895339, Note_off_c, 0, 69, 53
1, 895351, Control_c, 0, 64, 54
1, 895358, Note_off_c, 0, 53, 52
1, 895358, Note_off_c, 0, 57, 37
1, 895370, Control_c, 0, 64, 46
1, 895389, Control_c, 0, 64, 40
1, 895397, Note_off_c, 0, 74, 60
1, 895407, Control_c, 0, 64, 34
1, 895426, Control_c, 0, 64, 29
1, 895444, Control_c, 0, 64, 25
1, 895482, Control_c, 0, 64, 19
1, 895521, Control_c, 0, 64, 15
1, 895578, Control_c, 0, 64, 10
1, 895595, Control_c, 0, 67, 88
1, 895651, Control_c, 0, 64, 0
1, 895669, Control_c, 0, 67, 93
1, 895706, Control_c, 0, 67, 99
1, 895826, Poly_aftertouch_c, 0, 78, 28
1, 895827, Poly_aftertouch_c, 0, 81, 28
1, 895830, Note_on_c, 0, 81, 51
1, 895838, Note_on_c, 0, 78, 52
1, 895839, Poly_aftertouch_c, 0, 72, 28
1, 895844, Note_on_c, 0, 72, 43
1, 895850, Poly_aftertouch_c, 0, 45, 28
1, 895850, Poly_aftertouch_c, 0, 54, 28
1, 895858, Note_on_c, 0, 45, 33
1, 895858, Poly_aftertouch_c, 0, 48, 28
1, 895860, Note_on_c, 0, 54, 34
1, 895868, Note_on_c, 0, 48, 30
1, 895915, Control_c, 0, 64, 14
1, 895932, Control_c, 0, 64, 22
1, 895951, Control_c, 0, 64, 35
1, 895964, Note_off_c, 0, 81, 49
1, 895969, Control_c, 0, 64, 55
1, 895988, Control_c, 0, 64, 69
1, 896007, Control_c, 0, 64, 76
1, 896025, Control_c, 0, 64, 82
1, 896044, Control_c, 0, 64, 85
1, 896075, Note_off_c, 0, 45, 39
1, 896081, Control_c, 0, 64, 87
1, 896092, Note_off_c, 0, 48, 36
1, 896164, Poly_aftertouch_c, 0, 66, 28
1, 896172, Note_on_c, 0, 66, 42
1, 896173, Poly_aftertouch_c, 0, 57, 28
1, 896180, Note_on_c, 0, 57, 38
1, 896193, Control_c, 0, 64, 85
1, 896200, Note_off_c, 0, 78, 38
1, 896204, Note_off_c, 0, 54, 40
1, 896212, Control_c, 0, 64, 83
1, 896231, Control_c, 0, 64, 80
1, 896250, Control_c, 0, 64, 76
1, 896251, Note_off_c, 0, 66, 51
1, 896265, Note_off_c, 0, 57, 49
1, 896268, Control_c, 0, 64, 71
1, 896272, Note_off_c, 0, 72, 36
1, 896287, Control_c, 0, 64, 66
1, 896305, Control_c, 0, 64, 61
1, 896325, Control_c, 0, 64, 55
1, 896344, Control_c, 0, 64, 51
1, 896362, Control_c, 0, 64, 46
1, 896380, Control_c, 0, 64, 41
1, 896401, Control_c, 0, 64, 34
1, 896418, Control_c, 0, 64, 28
1, 896437, Control_c, 0, 64, 24
1, 896475, Control_c, 0, 64, 18
1, 896512, Control_c, 0, 64, 14
1, 896642, Control_c, 0, 67, 95
1, 896784, Poly_aftertouch_c, 0, 74, 28
1, 896793, Note_on_c, 0, 74, 67
1, 896798, Poly_aftertouch_c, 0, 71, 28
1, 896800, Note_on_c, 0, 71, 51
1, 896802, Poly_aftertouch_c, 0, 59, 28
1, 896806, Note_on_c, 0, 59, 36
1, 896806, Poly_aftertouch_c, 0, 67, 28
1, 896811, Note_on_c, 0, 67, 47
1, 896811, Poly_aftertouch_c, 0, 62, 28
1, 896813, Note_on_c, 0, 62, 42
1, 896816, Poly_aftertouch_c, 0, 55, 28
1, 896827, Note_on_c, 0, 55, 31
1, 896868, Control_c, 0, 64, 20
1, 896886, Control_c, 0, 64, 28
1, 896904, Control_c, 0, 64, 39
1, 896924, Control_c, 0, 64, 56
1, 896943, Control_c, 0, 64, 69
1, 896960, Control_c, 0, 64, 76
1, 896980, Control_c, 0, 64, 81
1, 897000, Control_c, 0, 64, 85
1, 897017, Control_c, 0, 64, 88
1, 897112, Poly_aftertouch_c, 0, 76, 28
1, 897116, Note_on_c, 0, 76, 71
1, 897118, Poly_aftertouch_c, 0, 54, 28
1, 897120, Note_off_c, 0, 67, 35
1, 897125, Note_on_c, 0, 54, 57
1, 897129, Note_off_c, 0, 55, 49
1, 897129, Control_c, 0, 64, 83
1, 897148, Control_c, 0, 64, 78
1, 897159, Note_off_c, 0, 74, 53
1, 897166, Note_off_c, 0, 62, 37
1, 897167, Control_c, 0, 64, 71
1, 897176, Note_off_c, 0, 59, 33
1, 897185, Note_off_c, 0, 71, 58
1, 897185, Control_c, 0, 64, 64
1, 897205, Control_c, 0, 64, 57
1, 897222, Control_c, 0, 64, 51
1, 897228, Note_off_c, 0, 54, 58
1, 897241, Note_off_c, 0, 76, 57
1, 897241, Control_c, 0, 64, 45
1, 897260, Control_c, 0, 64, 40
1, 897280, Control_c, 0, 64, 33
1, 897298, Control_c, 0, 64, 27
1, 897317, Control_c, 0, 64, 23
1, 897319, Control_c, 0, 67, 91
1, 897354, Control_c, 0, 64, 18
1, 897392, Control_c, 0, 67, 84
1, 897411, Control_c, 0, 64, 13
1, 897429, Control_c, 0, 67, 78
1, 897467, Control_c, 0, 67, 72
1, 897504, Control_c, 0, 67, 67
1, 897653, Poly_aftertouch_c, 0, 80, 28
1, 897653, Poly_aftertouch_c, 0, 83, 28
1, 897657, Note_on_c, 0, 83, 65
1, 897661, Note_on_c, 0, 80, 60
1, 897665, Poly_aftertouch_c, 0, 47, 28
1, 897668, Note_on_c, 0, 74, 57
1, 897670, Poly_aftertouch_c, 0, 74, 28
1, 897675, Note_on_c, 0, 47, 44
1, 897676, Poly_aftertouch_c, 0, 50, 28
1, 897676, Poly_aftertouch_c, 0, 56, 28
1, 897679, Note_on_c, 0, 56, 46
1, 897682, Note_on_c, 0, 50, 42
1, 897710, Control_c, 0, 64, 17
1, 897728, Control_c, 0, 64, 24
1, 897748, Control_c, 0, 64, 32
1, 897765, Control_c, 0, 64, 45
1, 897785, Control_c, 0, 64, 61
1, 897805, Control_c, 0, 64, 70
1, 897812, Note_off_c, 0, 47, 35
1, 897822, Control_c, 0, 64, 76
1, 897841, Control_c, 0, 64, 81
1, 897859, Control_c, 0, 64, 84
1, 897885, Note_off_c, 0, 83, 37
1, 897888, Note_off_c, 0, 50, 37
1, 897956, Poly_aftertouch_c, 0, 68, 28
1, 897963, Note_on_c, 0, 68, 64
1, 897967, Poly_aftertouch_c, 0, 62, 28
1, 897971, Note_on_c, 0, 62, 52
1, 897991, Control_c, 0, 64, 79
1, 898011, Control_c, 0, 64, 75
1, 898014, Note_off_c, 0, 80, 60
1, 898027, Control_c, 0, 64, 69
1, 898037, Note_off_c, 0, 62, 55
1, 898041, Note_off_c, 0, 56, 59
1, 898046, Note_off_c, 0, 74, 50
1, 898046, Control_c, 0, 64, 62
1, 898066, Control_c, 0, 64, 57
1, 898067, Control_c, 0, 67, 61
1, 898068, Note_off_c, 0, 68, 56
1, 898085, Control_c, 0, 64, 53
1, 898085, Control_c, 0, 67, 57
1, 898103, Control_c, 0, 64, 49
1, 898122, Control_c, 0, 64, 44
1, 898123, Control_c, 0, 67, 49
1, 898140, Control_c, 0, 64, 38
1, 898159, Control_c, 0, 64, 31
1, 898161, Control_c, 0, 67, 43
1, 898178, Control_c, 0, 64, 26
1, 898196, Control_c, 0, 67, 37
1, 898216, Control_c, 0, 64, 21
1, 898233, Control_c, 0, 67, 33
1, 898271, Control_c, 0, 64, 17
1, 898481, Poly_aftertouch_c, 0, 72, 28
1, 898481, Poly_aftertouch_c, 0, 76, 28
1, 898483, Note_on_c, 0, 76, 78
1, 898487, Poly_aftertouch_c, 0, 60, 28
1, 898488, Poly_aftertouch_c, 0, 64, 28
1, 898491, Note_on_c, 0, 72, 69
1, 898493, Note_on_c, 0, 64, 51
1, 898494, Note_on_c, 0, 60, 52
1, 898498, Poly_aftertouch_c, 0, 69, 28
1, 898502, Note_on_c, 0, 69, 59
1, 898509, Poly_aftertouch_c, 0, 57, 28
1, 898517, Note_on_c, 0, 57, 46
1, 898589, Control_c, 0, 64, 21
1, 898609, Control_c, 0, 64, 29
1, 898626, Control_c, 0, 64, 41
1, 898646, Control_c, 0, 64, 59
1, 898647, Control_c, 0, 67, 37
1, 898666, Control_c, 0, 64, 71
1, 898684, Control_c, 0, 64, 80
1, 898702, Control_c, 0, 64, 88
1, 898721, Control_c, 0, 64, 93
1, 898758, Note_off_c, 0, 69, 49
1, 898804, Note_off_c, 0, 64, 33
1, 898806, Poly_aftertouch_c, 0, 77, 28
1, 898809, Note_on_c, 0, 77, 76
1, 898812, Note_off_c, 0, 57, 56
1, 898812, Poly_aftertouch_c, 0, 56, 28
1, 898814, Control_c, 0, 64, 88
1, 898817, Note_on_c, 0, 56, 60
1, 898833, Control_c, 0, 64, 83
1, 898847, Note_off_c, 0, 76, 60
1, 898851, Control_c, 0, 64, 76
1, 898871, Control_c, 0, 64, 67
1, 898886, Note_off_c, 0, 60, 36
1, 898887, Note_off_c, 0, 72, 47
1, 898890, Control_c, 0, 64, 60
1, 898907, Control_c, 0, 64, 54
1, 898927, Control_c, 0, 64, 48
1, 898942, Note_off_c, 0, 56, 51
1, 898943, Note_off_c, 0, 77, 56
1, 898945, Control_c, 0, 64, 43
1, 898963, Control_c, 0, 64, 38
1, 898983, Control_c, 0, 64, 31
1, 898984, Control_c, 0, 67, 33
1, 899003, Control_c, 0, 64, 25
1, 899020, Control_c, 0, 64, 21
1, 899059, Control_c, 0, 64, 17
1, 899060, Control_c, 0, 67, 28
1, 899077, Control_c, 0, 67, 21
1, 899094, Control_c, 0, 67, 14
1, 899114, Control_c, 0, 64, 13
1, 899152, Control_c, 0, 67, 0
1, 899356, Poly_aftertouch_c, 0, 82, 28
1, 899356, Poly_aftertouch_c, 0, 85, 28
1, 899358, Note_on_c, 0, 85, 80
1, 899360, Note_on_c, 0, 82, 77
1, 899363, Note_on_c, 0, 49, 51
1, 899363, Poly_aftertouch_c, 0, 49, 28
1, 899366, Poly_aftertouch_c, 0, 76, 28
1, 899369, Note_on_c, 0, 76, 67
1, 899372, Poly_aftertouch_c, 0, 58, 28
1, 899374, Note_on_c, 0, 58, 54
1, 899384, Poly_aftertouch_c, 0, 52, 28
1, 899389, Note_on_c, 0, 52, 50
1, 899414, Control_c, 0, 64, 17
1, 899431, Control_c, 0, 64, 21
1, 899450, Control_c, 0, 64, 29
1, 899469, Control_c, 0, 64, 39
1, 899489, Control_c, 0, 64, 55
1, 899506, Control_c, 0, 64, 67
1, 899526, Control_c, 0, 64, 75
1, 899530, Note_off_c, 0, 49, 63
1, 899544, Control_c, 0, 64, 81
1, 899563, Control_c, 0, 64, 86
1, 899601, Control_c, 0, 64, 91
1, 899610, Note_off_c, 0, 52, 45
1, 899630, Note_off_c, 0, 85, 64
1, 899665, Poly_aftertouch_c, 0, 70, 28
1, 899673, Note_on_c, 0, 70, 76
1, 899675, Control_c, 0, 64, 88
1, 899680, Poly_aftertouch_c, 0, 64, 28
1, 899685, Note_on_c, 0, 64, 63
1, 899694, Control_c, 0, 64, 85
1, 899712, Control_c, 0, 64, 82
1, 899733, Control_c, 0, 64, 78
1, 899747, Note_off_c, 0, 82, 63
1, 899750, Control_c, 0, 64, 74
1, 899759, Note_off_c, 0, 58, 59
1, 899760, Note_off_c, 0, 76, 51
1, 899765, Note_off_c, 0, 64, 56
1, 899768, Control_c, 0, 64, 70
1, 899787, Control_c, 0, 64, 66
1, 899807, Control_c, 0, 64, 63
1, 899812, Note_off_c, 0, 70, 54
1, 899825, Control_c, 0, 64, 60
1, 899843, Control_c, 0, 64, 58
1, 899862, Control_c, 0, 64, 55
1, 899882, Control_c, 0, 64, 51
1, 899899, Control_c, 0, 64, 47
1, 899918, Control_c, 0, 64, 42
1, 899939, Control_c, 0, 64, 33
1, 899956, Control_c, 0, 64, 23
1, 899975, Control_c, 0, 64, 9
1, 900012, Control_c, 0, 64, 0
1, 900212, Poly_aftertouch_c, 0, 77, 28
1, 900214, Note_on_c, 0, 77, 81
1, 900222, Poly_aftertouch_c, 0, 62, 28
1, 900223, Note_on_c, 0, 74, 71
1, 900225, Poly_aftertouch_c, 0, 74, 28
1, 900229, Note_on_c, 0, 62, 47
1, 900233, Poly_aftertouch_c, 0, 65, 28
1, 900233, Poly_aftertouch_c, 0, 71, 28
1, 900236, Note_on_c, 0, 65, 49
1, 900239, Note_on_c, 0, 71, 56
1, 900241, Poly_aftertouch_c, 0, 59, 28
1, 900248, Note_on_c, 0, 59, 46
1, 900294, Control_c, 0, 64, 11
1, 900311, Control_c, 0, 64, 18
1, 900331, Control_c, 0, 64, 27
1, 900349, Control_c, 0, 64, 42
1, 900351, Note_off_c, 0, 65, 58
1, 900367, Control_c, 0, 64, 63
1, 900386, Control_c, 0, 64, 77
1, 900388, Note_off_c, 0, 62, 61
1, 900405, Control_c, 0, 64, 91
1, 900425, Control_c, 0, 64, 107
1, 900440, Note_off_c, 0, 59, 55
1, 900442, Control_c, 0, 64, 127
1, 900576, Poly_aftertouch_c, 0, 79, 28
1, 900577, Poly_aftertouch_c, 0, 81, 28
1, 900580, Note_on_c, 0, 79, 62
1, 900581, Note_on_c, 0, 81, 68
1, 900588, Note_off_c, 0, 71, 32
1, 900593, Poly_aftertouch_c, 0, 50, 28
1, 900594, Note_off_c, 0, 77, 52
1, 900601, Note_on_c, 0, 50, 38
1, 900625, Note_off_c, 0, 74, 44
1, 900643, Note_off_c, 0, 81, 58
1, 900661, Note_off_c, 0, 79, 61
1, 900674, Note_off_c, 0, 50, 43
1, 900687, Control_c, 0, 64, 119
1, 900705, Control_c, 0, 64, 112
1, 900723, Control_c, 0, 64, 106
1, 900742, Control_c, 0, 64, 101
1, 900761, Control_c, 0, 64, 95
1, 900780, Control_c, 0, 64, 88
1, 900798, Control_c, 0, 64, 80
1, 900818, Control_c, 0, 64, 72
1, 900835, Control_c, 0, 64, 64
1, 900855, Control_c, 0, 64, 58
1, 900873, Control_c, 0, 64, 52
1, 900892, Control_c, 0, 64, 46
1, 900910, Control_c, 0, 64, 37
1, 900929, Control_c, 0, 64, 24
1, 900948, Control_c, 0, 64, 9
1, 900985, Control_c, 0, 64, 0
1, 901083, Poly_aftertouch_c, 0, 55, 28
1, 901088, Poly_aftertouch_c, 0, 61, 28
1, 901094, Note_on_c, 0, 55, 39
1, 901095, Note_on_c, 0, 61, 46
1, 901095, Poly_aftertouch_c, 0, 52, 28
1, 901104, Note_on_c, 0, 52, 30
1, 901118, Control_c, 0, 64, 13
1, 901135, Control_c, 0, 64, 22
1, 901155, Control_c, 0, 64, 35
1, 901160, Poly_aftertouch_c, 0, 85, 28
1, 901162, Note_on_c, 0, 85, 85
1, 901174, Control_c, 0, 64, 55
1, 901183, Poly_aftertouch_c, 0, 78, 28
1, 901192, Note_on_c, 0, 78, 60
1, 901192, Control_c, 0, 64, 73
1, 901210, Control_c, 0, 64, 89
1, 901229, Control_c, 0, 64, 127
1, 901237, Note_off_c, 0, 55, 58
1, 901274, Note_off_c, 0, 52, 35
1, 901292, Note_off_c, 0, 85, 66
1, 901326, Note_off_c, 0, 61, 54
1, 901434, Control_c, 0, 67, 8
1, 901505, Note_off_c, 0, 78, 48
1, 901519, Poly_aftertouch_c, 0, 66, 28
1, 901519, Poly_aftertouch_c, 0, 67, 28
1, 901522, Note_on_c, 0, 67, 61
1, 901529, Note_on_c, 0, 66, 51
1, 901578, Note_off_c, 0, 67, 53
1, 901578, Note_off_c, 0, 66, 61
1, 901773, Control_c, 0, 64, 113
1, 901790, Control_c, 0, 64, 105
1, 901792, Control_c, 0, 67, 13
1, 901810, Control_c, 0, 64, 98
1, 901829, Control_c, 0, 64, 91
1, 901846, Control_c, 0, 64, 85
1, 901866, Control_c, 0, 64, 78
1, 901868, Control_c, 0, 67, 17
1, 901884, Control_c, 0, 64, 71
1, 901902, Control_c, 0, 64, 66
1, 901921, Control_c, 0, 64, 62
1, 901922, Control_c, 0, 67, 21
1, 901940, Control_c, 0, 64, 58
1, 901960, Control_c, 0, 64, 52
1, 901961, Control_c, 0, 67, 25
1, 901977, Control_c, 0, 64, 40
1, 901997, Control_c, 0, 64, 21
1, 901998, Control_c, 0, 67, 33
1, 902016, Control_c, 0, 67, 37
1, 902034, Control_c, 0, 64, 0
1, 902034, Control_c, 0, 67, 41
1, 902052, Poly_aftertouch_c, 0, 83, 28
1, 902052, Control_c, 0, 67, 46
1, 902056, Note_on_c, 0, 83, 68
1, 902071, Control_c, 0, 67, 51
1, 902075, Poly_aftertouch_c, 0, 76, 28
1, 902078, Note_on_c, 0, 76, 52
1, 902084, Poly_aftertouch_c, 0, 59, 28
1, 902090, Note_on_c, 0, 59, 42
1, 902090, Control_c, 0, 67, 58
1, 902093, Poly_aftertouch_c, 0, 54, 28
1, 902103, Note_on_c, 0, 54, 36
1, 902107, Control_c, 0, 67, 66
1, 902127, Control_c, 0, 67, 74
1, 902146, Control_c, 0, 67, 80
1, 902165, Control_c, 0, 67, 86
1, 902184, Control_c, 0, 64, 15
1, 902185, Control_c, 0, 67, 91
1, 902202, Control_c, 0, 64, 26
1, 902203, Control_c, 0, 67, 95
1, 902205, Note_off_c, 0, 83, 58
1, 902221, Control_c, 0, 64, 42
1, 902221, Control_c, 0, 67, 99
1, 902240, Control_c, 0, 64, 64
1, 902259, Control_c, 0, 64, 76
1, 902260, Control_c, 0, 67, 105
1, 902277, Control_c, 0, 64, 87
1, 902297, Control_c, 0, 64, 96
1, 902314, Control_c, 0, 64, 106
1, 902333, Control_c, 0, 64, 117
1, 902352, Control_c, 0, 64, 127
1, 902429, Note_off_c, 0, 54, 39
1, 902450, Poly_aftertouch_c, 0, 66, 28
1, 902456, Note_on_c, 0, 66, 56
1, 902465, Poly_aftertouch_c, 0, 64, 28
1, 902473, Note_on_c, 0, 64, 40
1, 902517, Note_off_c, 0, 59, 29
1, 902520, Control_c, 0, 64, 119
1, 902525, Note_off_c, 0, 66, 50
1, 902548, Note_off_c, 0, 64, 44
1, 902576, Control_c, 0, 64, 114
1, 902633, Control_c, 0, 64, 110
1, 902689, Control_c, 0, 64, 106
1, 902730, Note_off_c, 0, 76, 40
1, 902764, Control_c, 0, 64, 102
1, 902932, Control_c, 0, 64, 98
1, 903063, Control_c, 0, 64, 94
1, 903102, Control_c, 0, 64, 86
1, 903119, Control_c, 0, 64, 76
1, 903134, Poly_aftertouch_c, 0, 82, 28
1, 903137, Control_c, 0, 64, 62
1, 903142, Note_on_c, 0, 82, 51
1, 903145, Poly_aftertouch_c, 0, 74, 28
1, 903148, Note_on_c, 0, 74, 53
1, 903157, Control_c, 0, 64, 45
1, 903160, Poly_aftertouch_c, 0, 58, 28
1, 903168, Poly_aftertouch_c, 0, 54, 28
1, 903172, Note_on_c, 0, 58, 39
1, 903174, Control_c, 0, 64, 25
1, 903180, Note_on_c, 0, 54, 29
1, 903194, Control_c, 0, 64, 12
1, 903306, Control_c, 0, 64, 17
1, 903325, Control_c, 0, 64, 25
1, 903343, Control_c, 0, 64, 36
1, 903363, Control_c, 0, 64, 54
1, 903382, Control_c, 0, 64, 69
1, 903400, Control_c, 0, 64, 78
1, 903420, Control_c, 0, 64, 86
1, 903438, Control_c, 0, 64, 93
1, 903456, Control_c, 0, 64, 99
1, 903473, Note_off_c, 0, 54, 40
1, 903474, Control_c, 0, 64, 103
1, 903563, Note_off_c, 0, 58, 33
1, 903644, Poly_aftertouch_c, 0, 66, 28
1, 903651, Note_on_c, 0, 66, 46
1, 903881, Note_off_c, 0, 66, 30
1, 903925, Poly_aftertouch_c, 0, 73, 28
1, 903932, Note_on_c, 0, 73, 52
1, 903935, Poly_aftertouch_c, 0, 64, 28
1, 903939, Note_on_c, 0, 64, 46
1, 903972, Note_off_c, 0, 64, 56
1, 903974, Note_off_c, 0, 73, 57
1, 903982, Note_off_c, 0, 74, 33
1, 903983, Note_off_c, 0, 82, 32
1, 904111, Control_c, 0, 64, 99
1, 904130, Control_c, 0, 64, 94
1, 904149, Control_c, 0, 64, 83
1, 904168, Control_c, 0, 64, 67
1, 904186, Control_c, 0, 64, 48
1, 904205, Control_c, 0, 64, 31
1, 904213, Poly_aftertouch_c, 0, 78, 28
1, 904217, Poly_aftertouch_c, 0, 62, 28
1, 904223, Note_on_c, 0, 78, 61
1, 904223, Control_c, 0, 64, 21
1, 904225, Note_on_c, 0, 62, 46
1, 904227, Poly_aftertouch_c, 0, 66, 28
1, 904234, Note_on_c, 0, 66, 42
1, 904235, Note_on_c, 0, 74, 45
1, 904235, Poly_aftertouch_c, 0, 71, 28
1, 904235, Poly_aftertouch_c, 0, 74, 28
1, 904240, Note_on_c, 0, 71, 42
1, 904241, Note_on_c, 0, 59, 39
1, 904241, Poly_aftertouch_c, 0, 59, 28
1, 904280, Note_off_c, 0, 66, 63
1, 904299, Control_c, 0, 64, 29
1, 904317, Control_c, 0, 64, 40
1, 904322, Note_off_c, 0, 62, 60
1, 904336, Control_c, 0, 64, 55
1, 904355, Control_c, 0, 64, 68
1, 904366, Note_off_c, 0, 59, 46
1, 904373, Control_c, 0, 64, 76
1, 904392, Control_c, 0, 64, 82
1, 904412, Control_c, 0, 64, 88
1, 904448, Control_c, 0, 64, 94
1, 904504, Note_off_c, 0, 71, 33
1, 904589, Poly_aftertouch_c, 0, 83, 28
1, 904593, Note_off_c, 0, 74, 35
1, 904596, Note_on_c, 0, 83, 57
1, 904607, Poly_aftertouch_c, 0, 50, 28
1, 904622, Note_on_c, 0, 50, 39
1, 904661, Note_off_c, 0, 78, 49
1, 904680, Note_off_c, 0, 50, 60
1, 904697, Note_off_c, 0, 83, 54
1, 904748, Control_c, 0, 64, 89
1, 904784, Control_c, 0, 64, 86
1, 904804, Control_c, 0, 64, 84
1, 904823, Control_c, 0, 64, 82
1, 904842, Control_c, 0, 64, 78
1, 904860, Control_c, 0, 64, 73
1, 904879, Control_c, 0, 64, 66
1, 904898, Control_c, 0, 64, 59
1, 904916, Control_c, 0, 64, 51
1, 904935, Control_c, 0, 64, 44
1, 904953, Control_c, 0, 64, 35
1, 904973, Control_c, 0, 64, 29
1, 904990, Control_c, 0, 64, 24
1, 905178, Control_c, 0, 64, 28
1, 905197, Control_c, 0, 64, 34
1, 905217, Control_c, 0, 64, 40
1, 905220, Poly_aftertouch_c, 0, 88, 28
1, 905226, Note_on_c, 0, 88, 67
1, 905230, Poly_aftertouch_c, 0, 85, 28
1, 905236, Control_c, 0, 64, 50
1, 905240, Note_on_c, 0, 85, 55
1, 905241, Poly_aftertouch_c, 0, 57, 28
1, 905242, Poly_aftertouch_c, 0, 61, 28
1, 905248, Note_on_c, 0, 57, 42
1, 905249, Note_on_c, 0, 61, 42
1, 905249, Poly_aftertouch_c, 0, 52, 28
1, 905255, Note_on_c, 0, 52, 30
1, 905255, Control_c, 0, 64, 60
1, 905272, Control_c, 0, 64, 67
1, 905280, Poly_aftertouch_c, 0, 81, 28
1, 905288, Note_on_c, 0, 81, 28
1, 905291, Control_c, 0, 64, 72
1, 905310, Control_c, 0, 64, 80
1, 905327, Note_off_c, 0, 52, 39
1, 905327, Control_c, 0, 64, 92
1, 905341, Note_off_c, 0, 57, 53
1, 905347, Control_c, 0, 64, 112
1, 905366, Control_c, 0, 64, 127
1, 905416, Note_off_c, 0, 61, 58
1, 905431, Note_off_c, 0, 88, 46
1, 905574, Poly_aftertouch_c, 0, 73, 28
1, 905583, Note_on_c, 0, 73, 56
1, 905613, Poly_aftertouch_c, 0, 69, 28
1, 905617, Note_on_c, 0, 69, 45
1, 905646, Note_off_c, 0, 81, 33
1, 905658, Note_off_c, 0, 69, 50
1, 905661, Note_off_c, 0, 73, 48
1, 905675, Note_off_c, 0, 85, 46
1, 905705, Control_c, 0, 64, 116
1, 905721, Control_c, 0, 64, 107
1, 905740, Control_c, 0, 64, 99
1, 905759, Control_c, 0, 64, 90
1, 905777, Control_c, 0, 64, 81
1, 905796, Control_c, 0, 64, 71
1, 905815, Control_c, 0, 64, 63
1, 905834, Control_c, 0, 64, 55
1, 905852, Control_c, 0, 64, 49
1, 905872, Control_c, 0, 64, 43
1, 905890, Control_c, 0, 64, 37
1, 905910, Control_c, 0, 64, 32
1, 905927, Control_c, 0, 64, 28
1, 905965, Control_c, 0, 64, 23
1, 906134, Poly_aftertouch_c, 0, 86, 28
1, 906139, Note_on_c, 0, 86, 58
1, 906143, Poly_aftertouch_c, 0, 54, 28
1, 906149, Poly_aftertouch_c, 0, 62, 28
1, 906155, Note_on_c, 0, 54, 32
1, 906158, Note_on_c, 0, 62, 37
1, 906158, Poly_aftertouch_c, 0, 83, 28
1, 906160, Note_on_c, 0, 83, 52
1, 906167, Poly_aftertouch_c, 0, 59, 28
1, 906171, Control_c, 0, 64, 29
1, 906173, Note_on_c, 0, 59, 38
1, 906175, Poly_aftertouch_c, 0, 79, 28
1, 906182, Note_on_c, 0, 79, 39
1, 906188, Control_c, 0, 64, 36
1, 906208, Control_c, 0, 64, 47
1, 906227, Control_c, 0, 64, 62
1, 906246, Control_c, 0, 64, 72
1, 906265, Control_c, 0, 64, 82
1, 906284, Control_c, 0, 64, 96
1, 906301, Control_c, 0, 64, 122
1, 906319, Note_off_c, 0, 86, 44
1, 906319, Control_c, 0, 64, 127
1, 906356, Note_off_c, 0, 54, 40
1, 906392, Note_off_c, 0, 83, 60
1, 906395, Note_off_c, 0, 59, 40
1, 906423, Note_off_c, 0, 79, 47
1, 906439, Note_off_c, 0, 62, 50
1, 906519, Poly_aftertouch_c, 0, 71, 28
1, 906526, Note_on_c, 0, 71, 50
1, 906539, Poly_aftertouch_c, 0, 67, 28
1, 906552, Note_on_c, 0, 67, 35
1, 906603, Note_off_c, 0, 67, 48
1, 906608, Note_off_c, 0, 71, 55
1, 906657, Control_c, 0, 64, 117
1, 906675, Control_c, 0, 64, 111
1, 906695, Control_c, 0, 64, 106
1, 906713, Control_c, 0, 64, 102
1, 906732, Control_c, 0, 64, 98
1, 906750, Control_c, 0, 64, 93
1, 906770, Control_c, 0, 64, 87
1, 906788, Control_c, 0, 64, 80
1, 906807, Control_c, 0, 64, 73
1, 906826, Control_c, 0, 64, 67
1, 906845, Control_c, 0, 64, 61
1, 906863, Control_c, 0, 64, 57
1, 906882, Control_c, 0, 64, 54
1, 906901, Control_c, 0, 64, 50
1, 906919, Control_c, 0, 64, 45
1, 906937, Control_c, 0, 64, 40
1, 906957, Control_c, 0, 64, 34
1, 906976, Control_c, 0, 64, 30
1, 907013, Control_c, 0, 64, 25
1, 907032, Control_c, 0, 67, 110
1, 907050, Control_c, 0, 67, 116
1, 907069, Control_c, 0, 67, 124
1, 907127, Poly_aftertouch_c, 0, 85, 28
1, 907137, Note_on_c, 0, 85, 50
1, 907144, Poly_aftertouch_c, 0, 78, 28
1, 907151, Poly_aftertouch_c, 0, 82, 28
1, 907155, Note_on_c, 0, 78, 40
1, 907162, Poly_aftertouch_c, 0, 64, 28
1, 907165, Note_on_c, 0, 82, 37
1, 907169, Note_on_c, 0, 64, 41
1, 907169, Poly_aftertouch_c, 0, 54, 28
1, 907169, Poly_aftertouch_c, 0, 61, 28
1, 907178, Note_on_c, 0, 54, 30
1, 907178, Note_on_c, 0, 61, 34
1, 907218, Control_c, 0, 64, 30
1, 907238, Control_c, 0, 64, 34
1, 907255, Control_c, 0, 64, 40
1, 907275, Control_c, 0, 64, 47
1, 907295, Control_c, 0, 64, 57
1, 907313, Control_c, 0, 64, 64
1, 907330, Control_c, 0, 64, 69
1, 907349, Control_c, 0, 64, 72
1, 907362, Note_off_c, 0, 85, 61
1, 907368, Control_c, 0, 64, 78
1, 907383, Note_off_c, 0, 54, 45
1, 907388, Control_c, 0, 64, 86
1, 907406, Control_c, 0, 64, 97
1, 907425, Control_c, 0, 64, 115
1, 907444, Control_c, 0, 64, 127
1, 907551, Note_off_c, 0, 61, 30
1, 907585, Note_off_c, 0, 82, 44
1, 907601, Note_off_c, 0, 64, 37
1, 907602, Note_off_c, 0, 78, 36
1, 907616, Poly_aftertouch_c, 0, 66, 28
1, 907616, Poly_aftertouch_c, 0, 70, 28
1, 907623, Note_on_c, 0, 66, 49
1, 907627, Note_on_c, 0, 70, 44
1, 907697, Note_off_c, 0, 66, 47
1, 908042, Poly_aftertouch_c, 0, 76, 28
1, 908047, Note_on_c, 0, 76, 46
1, 908100, Note_off_c, 0, 76, 52
1, 908162, Note_off_c, 0, 70, 44
1, 908450, Poly_aftertouch_c, 0, 35, 28
1, 908456, Note_on_c, 0, 35, 40
1, 908474, Control_c, 0, 64, 121
1, 908493, Control_c, 0, 64, 94
1, 908511, Control_c, 0, 64, 74
1, 908528, Control_c, 0, 64, 59
1, 908549, Control_c, 0, 64, 55
1, 908570, Poly_aftertouch_c, 0, 70, 28
1, 908576, Note_on_c, 0, 70, 62
1, 908578, Poly_aftertouch_c, 0, 64, 28
1, 908582, Note_on_c, 0, 64, 48
1, 908586, Control_c, 0, 64, 60
1, 908604, Control_c, 0, 64, 65
1, 908622, Control_c, 0, 64, 70
1, 908642, Control_c, 0, 64, 76
1, 908660, Control_c, 0, 64, 85
1, 908679, Control_c, 0, 64, 98
1, 908698, Control_c, 0, 64, 114
1, 908716, Control_c, 0, 64, 127
1, 908927, Poly_aftertouch_c, 0, 47, 28
1, 908937, Note_on_c, 0, 47, 49
1, 908959, Control_c, 0, 64, 104
1, 908980, Control_c, 0, 64, 83
1, 908996, Control_c, 0, 64, 63
1, 909016, Control_c, 0, 64, 43
1, 909028, Poly_aftertouch_c, 0, 73, 28
1, 909031, Note_on_c, 0, 73, 66
1, 909034, Control_c, 0, 64, 30
1, 909053, Control_c, 0, 64, 26
1, 909066, Note_off_c, 0, 35, 51
1, 909110, Control_c, 0, 64, 34
1, 909128, Control_c, 0, 64, 47
1, 909147, Control_c, 0, 64, 62
1, 909165, Control_c, 0, 64, 73
1, 909185, Control_c, 0, 64, 84
1, 909202, Control_c, 0, 64, 95
1, 909222, Control_c, 0, 64, 104
1, 909240, Control_c, 0, 64, 108
1, 909671, Control_c, 0, 64, 103
1, 909674, Poly_aftertouch_c, 0, 52, 28
1, 909676, Note_on_c, 0, 52, 49
1, 909727, Control_c, 0, 64, 99
1, 910027, Control_c, 0, 64, 94
1, 910042, Poly_aftertouch_c, 0, 55, 28
1, 910045, Control_c, 0, 64, 89
1, 910049, Note_on_c, 0, 55, 53
1, 910063, Control_c, 0, 64, 80
1, 910084, Control_c, 0, 64, 67
1, 910088, Note_off_c, 0, 52, 55
1, 910102, Control_c, 0, 64, 52
1, 910120, Control_c, 0, 64, 38
1, 910139, Control_c, 0, 64, 30
1, 910233, Control_c, 0, 64, 40
1, 910251, Control_c, 0, 64, 52
1, 910270, Control_c, 0, 64, 64
1, 910288, Control_c, 0, 64, 72
1, 910308, Control_c, 0, 64, 78
1, 910326, Control_c, 0, 64, 85
1, 910345, Control_c, 0, 64, 91
1, 910363, Control_c, 0, 64, 98
1, 910382, Control_c, 0, 64, 103
1, 910405, Note_off_c, 0, 64, 57
1, 910419, Control_c, 0, 64, 108
1, 910812, Control_c, 0, 64, 104
1, 910925, Poly_aftertouch_c, 0, 70, 24
1, 910925, Control_c, 0, 64, 99
1, 910943, Control_c, 0, 64, 94
1, 910951, Poly_aftertouch_c, 0, 54, 28
1, 910952, Poly_aftertouch_c, 0, 63, 28
1, 910962, Note_on_c, 0, 63, 39
1, 910962, Note_on_c, 0, 54, 42
1, 910962, Control_c, 0, 64, 87
1, 910963, Note_off_c, 0, 70, 41
1, 910982, Control_c, 0, 64, 76
1, 910998, Note_off_c, 0, 55, 41
1, 910999, Control_c, 0, 64, 62
1, 911018, Control_c, 0, 64, 48
1, 911037, Control_c, 0, 64, 38
1, 911114, Control_c, 0, 64, 43
1, 911131, Control_c, 0, 64, 53
1, 911149, Control_c, 0, 64, 63
1, 911168, Control_c, 0, 64, 71
1, 911187, Control_c, 0, 64, 78
1, 911206, Control_c, 0, 64, 88
1, 911225, Control_c, 0, 64, 97
1, 911243, Control_c, 0, 64, 105
1, 911262, Control_c, 0, 64, 114
1, 911280, Control_c, 0, 64, 122
1, 911299, Control_c, 0, 64, 127
1, 911355, Control_c, 0, 64, 122
1, 911375, Control_c, 0, 64, 116
1, 911393, Control_c, 0, 64, 108
1, 911412, Control_c, 0, 64, 99
1, 911420, Poly_aftertouch_c, 0, 72, 28
1, 911423, Note_on_c, 0, 72, 47
1, 911425, Poly_aftertouch_c, 0, 66, 28
1, 911432, Note_on_c, 0, 66, 39
1, 911432, Control_c, 0, 64, 89
1, 911436, Poly_aftertouch_c, 0, 57, 28
1, 911444, Note_on_c, 0, 57, 38
1, 911448, Note_off_c, 0, 73, 37
1, 911450, Control_c, 0, 64, 78
1, 911467, Control_c, 0, 64, 69
1, 911487, Control_c, 0, 64, 61
1, 911505, Control_c, 0, 64, 53
1, 911507, Note_off_c, 0, 54, 46
1, 911524, Control_c, 0, 64, 46
1, 911543, Control_c, 0, 64, 39
1, 911561, Control_c, 0, 64, 32
1, 911581, Control_c, 0, 64, 24
1, 911599, Control_c, 0, 64, 17
1, 911618, Control_c, 0, 64, 11
1, 911693, Control_c, 0, 64, 0
1, 912104, Control_c, 0, 67, 118
1, 912141, Control_c, 0, 67, 113
1, 912179, Control_c, 0, 67, 106
1, 912199, Control_c, 0, 67, 102
1, 912216, Control_c, 0, 67, 97
1, 912236, Control_c, 0, 67, 93
1, 912272, Control_c, 0, 67, 87
1, 912311, Control_c, 0, 64, 9
1, 912312, Control_c, 0, 67, 81
1, 912348, Control_c, 0, 64, 15
1, 912349, Control_c, 0, 67, 76
1, 912386, Control_c, 0, 64, 23
1, 912387, Control_c, 0, 67, 69
1, 912403, Control_c, 0, 64, 28
1, 912423, Control_c, 0, 64, 34
1, 912424, Control_c, 0, 67, 63
1, 912442, Control_c, 0, 64, 44
1, 912460, Control_c, 0, 64, 55
1, 912462, Control_c, 0, 67, 58
1, 912479, Control_c, 0, 64, 61
1, 912497, Control_c, 0, 64, 63
1, 912499, Control_c, 0, 67, 54
1, 912516, Control_c, 0, 64, 64
1, 912553, Control_c, 0, 64, 65
1, 912555, Control_c, 0, 67, 50
1, 912573, Control_c, 0, 64, 67
1, 912591, Control_c, 0, 64, 71
1, 912609, Control_c, 0, 64, 76
1, 912630, Control_c, 0, 64, 82
1, 912648, Control_c, 0, 64, 92
1, 912650, Control_c, 0, 67, 45
1, 912666, Control_c, 0, 64, 105
1, 912685, Control_c, 0, 64, 127
1, 912903, Poly_aftertouch_c, 0, 72, 20
1, 912908, Control_c, 0, 67, 49
1, 912911, Note_off_c, 0, 72, 28
1, 912941, Note_off_c, 0, 47, 37
1, 913007, Note_off_c, 0, 63, 33
1, 913040, Control_c, 0, 67, 53
1, 913166, Poly_aftertouch_c, 0, 66, 24
1, 913170, Control_c, 0, 67, 57
1, 913216, Note_off_c, 0, 66, 30
1, 913227, Control_c, 0, 67, 62
1, 913254, Note_off_c, 0, 57, 28
1, 913283, Control_c, 0, 67, 67
1, 913339, Control_c, 0, 67, 72
1, 913396, Control_c, 0, 67, 77
1, 913434, Control_c, 0, 67, 82
1, 913471, Control_c, 0, 67, 87
1, 913508, Control_c, 0, 67, 92
1, 913545, Control_c, 0, 67, 98
1, 913583, Control_c, 0, 67, 105
1, 913621, Control_c, 0, 67, 111
1, 913658, Control_c, 0, 67, 116
1, 913695, Control_c, 0, 67, 123
1, 913714, Control_c, 0, 67, 127
1, 913920, Control_c, 0, 64, 119
1, 913939, Control_c, 0, 64, 103
1, 913958, Control_c, 0, 64, 93
1, 913976, Control_c, 0, 64, 86
1, 913995, Control_c, 0, 64, 79
1, 914014, Control_c, 0, 64, 72
1, 914032, Control_c, 0, 64, 66
1, 914051, Control_c, 0, 64, 60
1, 914070, Control_c, 0, 64, 55
1, 914088, Control_c, 0, 64, 51
1, 914107, Control_c, 0, 64, 47
1, 914125, Poly_aftertouch_c, 0, 55, 28
1, 914126, Control_c, 0, 64, 41
1, 914132, Poly_aftertouch_c, 0, 71, 28
1, 914137, Note_on_c, 0, 55, 26
1, 914139, Note_on_c, 0, 71, 40
1, 914141, Note_on_c, 0, 59, 24
1, 914141, Poly_aftertouch_c, 0, 52, 28
1, 914141, Poly_aftertouch_c, 0, 59, 28
1, 914143, Poly_aftertouch_c, 0, 67, 28
1, 914145, Note_on_c, 0, 52, 24
1, 914145, Control_c, 0, 64, 34
1, 914146, Poly_aftertouch_c, 0, 64, 28
1, 914154, Note_on_c, 0, 67, 28
1, 914156, Note_on_c, 0, 64, 16
1, 914163, Control_c, 0, 64, 27
1, 914183, Control_c, 0, 64, 21
1, 914201, Control_c, 0, 64, 16
1, 914238, Control_c, 0, 64, 10
1, 914369, Control_c, 0, 64, 0
1, 914494, Poly_aftertouch_c, 0, 72, 28
1, 914500, Note_on_c, 0, 72, 41
1, 914512, Poly_aftertouch_c, 0, 51, 28
1, 914519, Note_on_c, 0, 51, 42
1, 914604, Note_off_c, 0, 52, 41
1, 914605, Note_off_c, 0, 71, 33
1, 914627, Note_off_c, 0, 55, 36
1, 914628, Note_off_c, 0, 67, 43
1, 914633, Note_off_c, 0, 64, 56
1, 914650, Note_off_c, 0, 59, 57
1, 914652, Note_off_c, 0, 72, 60
1, 914671, Note_off_c, 0, 51, 61
1, 915171, Poly_aftertouch_c, 0, 79, 28
1, 915179, Note_on_c, 0, 79, 48
1, 915182, Poly_aftertouch_c, 0, 76, 28
1, 915186, Note_on_c, 0, 76, 38
1, 915191, Poly_aftertouch_c, 0, 43, 28
1, 915197, Poly_aftertouch_c, 0, 52, 28
1, 915199, Poly_aftertouch_c, 0, 71, 28
1, 915207, Note_on_c, 0, 52, 36
1, 915211, Note_on_c, 0, 71, 30
1, 915211, Poly_aftertouch_c, 0, 47, 28
1, 915226, Note_on_c, 0, 47, 15
1, 915246, Poly_aftertouch_c, 0, 43, 127
1, 915494, Poly_aftertouch_c, 0, 70, 28
1, 915500, Poly_aftertouch_c, 0, 54, 28
1, 915505, Note_on_c, 0, 54, 46
1, 915505, Note_on_c, 0, 70, 52
1, 915580, Poly_aftertouch_c, 0, 43, 0
1, 915584, Poly_aftertouch_c, 0, 47, 24
1, 915599, Note_off_c, 0, 52, 43
1, 915605, Note_off_c, 0, 79, 36
1, 915609, Note_off_c, 0, 76, 58
1, 915620, Note_off_c, 0, 71, 56
1, 915627, Note_off_c, 0, 47, 41
1, 915641, Note_off_c, 0, 54, 57
1, 915647, Note_off_c, 0, 70, 61
1, 916058, Poly_aftertouch_c, 0, 55, 28
1, 916060, Poly_aftertouch_c, 0, 71, 28
1, 916064, Note_on_c, 0, 71, 60
1, 916067, Note_on_c, 0, 59, 41
1, 916067, Poly_aftertouch_c, 0, 59, 28
1, 916067, Poly_aftertouch_c, 0, 64, 28
1, 916071, Note_on_c, 0, 55, 38
1, 916071, Poly_aftertouch_c, 0, 67, 28
1, 916075, Note_on_c, 0, 64, 46
1, 916077, Note_on_c, 0, 67, 47
1, 916082, Poly_aftertouch_c, 0, 52, 28
1, 916088, Note_on_c, 0, 52, 42
1, 916380, Poly_aftertouch_c, 0, 72, 28
1, 916387, Note_on_c, 0, 72, 61
1, 916389, Poly_aftertouch_c, 0, 51, 28
1, 916392, Note_on_c, 0, 51, 55
1, 916428, Note_off_c, 0, 64, 30
1, 916441, Note_off_c, 0, 52, 37
1, 916446, Note_off_c, 0, 59, 31
1, 916452, Note_off_c, 0, 71, 53
1, 916485, Note_off_c, 0, 67, 58
1, 916498, Note_off_c, 0, 55, 36
1, 916538, Note_off_c, 0, 72, 61
1, 916556, Note_off_c, 0, 51, 61
1, 916987, Poly_aftertouch_c, 0, 43, 28
1, 916996, Note_on_c, 0, 43, 31
1, 917000, Poly_aftertouch_c, 0, 76, 28
1, 917001, Poly_aftertouch_c, 0, 79, 28
1, 917004, Poly_aftertouch_c, 0, 47, 28
1, 917009, Note_on_c, 0, 79, 37
1, 917009, Note_on_c, 0, 76, 38
1, 917016, Note_on_c, 0, 47, 33
1, 917018, Poly_aftertouch_c, 0, 52, 28
1, 917024, Note_on_c, 0, 52, 30
1, 917026, Poly_aftertouch_c, 0, 71, 28
1, 917031, Note_on_c, 0, 71, 34
1, 917170, Note_off_c, 0, 79, 36
1, 917215, Control_c, 0, 64, 13
1, 917232, Control_c, 0, 64, 25
1, 917252, Control_c, 0, 64, 47
1, 917259, Note_off_c, 0, 76, 57
1, 917271, Control_c, 0, 64, 68
1, 917289, Control_c, 0, 64, 79
1, 917308, Control_c, 0, 64, 88
1, 917333, Note_off_c, 0, 71, 51
1, 917341, Note_off_c, 0, 43, 33
1, 917381, Poly_aftertouch_c, 0, 64, 28
1, 917387, Note_on_c, 0, 64, 39
1, 917387, Poly_aftertouch_c, 0, 55, 28
1, 917390, Note_on_c, 0, 55, 41
1, 917401, Control_c, 0, 64, 84
1, 917405, Note_off_c, 0, 47, 32
1, 917410, Note_off_c, 0, 52, 39
1, 917420, Control_c, 0, 64, 81
1, 917439, Control_c, 0, 64, 77
1, 917459, Control_c, 0, 64, 74
1, 917477, Control_c, 0, 64, 70
1, 917495, Control_c, 0, 64, 66
1, 917515, Control_c, 0, 64, 62
1, 917533, Control_c, 0, 64, 59
1, 917551, Control_c, 0, 64, 57
1, 917589, Control_c, 0, 64, 55
1, 917595, Note_off_c, 0, 55, 58
1, 917606, Note_off_c, 0, 64, 60
1, 917626, Control_c, 0, 64, 52
1, 917645, Control_c, 0, 64, 49
1, 917664, Control_c, 0, 64, 46
1, 917683, Control_c, 0, 64, 42
1, 917720, Control_c, 0, 64, 34
1, 917758, Control_c, 0, 64, 28
1, 917796, Control_c, 0, 64, 24
1, 917870, Control_c, 0, 64, 19
1, 917907, Control_c, 0, 64, 10
1, 917963, Control_c, 0, 64, 0
1, 918049, Poly_aftertouch_c, 0, 72, 28
1, 918055, Poly_aftertouch_c, 0, 57, 28
1, 918057, Note_on_c, 0, 72, 48
1, 918059, Note_on_c, 0, 57, 40
1, 918059, Poly_aftertouch_c, 0, 66, 28
1, 918063, Poly_aftertouch_c, 0, 54, 28
1, 918065, Note_on_c, 0, 66, 35
1, 918065, Poly_aftertouch_c, 0, 60, 28
1, 918065, Poly_aftertouch_c, 0, 69, 28
1, 918070, Note_on_c, 0, 60, 40
1, 918071, Note_on_c, 0, 69, 38
1, 918074, Note_on_c, 0, 54, 30
1, 918207, Control_c, 0, 64, 9
1, 918225, Control_c, 0, 64, 16
1, 918244, Control_c, 0, 64, 22
1, 918263, Control_c, 0, 64, 28
1, 918281, Note_off_c, 0, 66, 36
1, 918281, Control_c, 0, 64, 37
1, 918299, Control_c, 0, 64, 47
1, 918308, Note_off_c, 0, 54, 55
1, 918320, Control_c, 0, 64, 54
1, 918337, Control_c, 0, 67, 122
1, 918351, Poly_aftertouch_c, 0, 53, 28
1, 918356, Note_on_c, 0, 53, 49
1, 918371, Poly_aftertouch_c, 0, 74, 28
1, 918378, Note_on_c, 0, 74, 59
1, 918394, Control_c, 0, 64, 52
1, 918400, Note_off_c, 0, 60, 34
1, 918421, Note_off_c, 0, 72, 52
1, 918432, Control_c, 0, 64, 48
1, 918434, Control_c, 0, 67, 118
1, 918450, Control_c, 0, 64, 45
1, 918469, Control_c, 0, 64, 42
1, 918470, Control_c, 0, 67, 114
1, 918477, Note_off_c, 0, 57, 40
1, 918490, Note_off_c, 0, 69, 32
1, 918506, Control_c, 0, 64, 36
1, 918507, Control_c, 0, 67, 110
1, 918511, Note_off_c, 0, 53, 59
1, 918525, Control_c, 0, 64, 32
1, 918528, Note_off_c, 0, 74, 61
1, 918543, Control_c, 0, 67, 105
1, 918562, Control_c, 0, 64, 25
1, 918580, Control_c, 0, 67, 101
1, 918637, Control_c, 0, 64, 21
1, 918638, Control_c, 0, 67, 97
1, 918893, Poly_aftertouch_c, 0, 78, 28
1, 918897, Poly_aftertouch_c, 0, 45, 28
1, 918898, Poly_aftertouch_c, 0, 48, 28
1, 918903, Note_on_c, 0, 45, 43
1, 918904, Note_on_c, 0, 48, 41
1, 918904, Note_on_c, 0, 78, 59
1, 918904, Note_on_c, 0, 81, 61
1, 918904, Poly_aftertouch_c, 0, 72, 28
1, 918905, Poly_aftertouch_c, 0, 81, 28
1, 918908, Note_on_c, 0, 72, 59
1, 918911, Poly_aftertouch_c, 0, 54, 28
1, 918913, Note_on_c, 0, 54, 44
1, 919087, Control_c, 0, 64, 26
1, 919204, Poly_aftertouch_c, 0, 71, 28
1, 919208, Note_on_c, 0, 71, 68
1, 919209, Poly_aftertouch_c, 0, 55, 28
1, 919212, Note_off_c, 0, 81, 55
1, 919212, Note_on_c, 0, 55, 58
1, 919228, Note_off_c, 0, 45, 34
1, 919229, Note_off_c, 0, 54, 58
1, 919274, Control_c, 0, 64, 22
1, 919279, Note_off_c, 0, 48, 29
1, 919312, Note_off_c, 0, 78, 59
1, 919332, Note_off_c, 0, 72, 54
1, 919359, Note_off_c, 0, 55, 56
1, 919360, Note_off_c, 0, 71, 61
1, 919367, Control_c, 0, 64, 18
1, 919740, Poly_aftertouch_c, 0, 57, 28
1, 919744, Poly_aftertouch_c, 0, 66, 28
1, 919744, Poly_aftertouch_c, 0, 72, 28
1, 919748, Note_on_c, 0, 57, 44
1, 919748, Note_on_c, 0, 66, 59
1, 919749, Note_on_c, 0, 72, 73
1, 919752, Note_on_c, 0, 69, 59
1, 919752, Poly_aftertouch_c, 0, 54, 28
1, 919753, Poly_aftertouch_c, 0, 60, 28
1, 919756, Poly_aftertouch_c, 0, 69, 28
1, 919757, Note_on_c, 0, 54, 42
1, 919760, Note_on_c, 0, 60, 41
1, 919836, Control_c, 0, 64, 24
1, 919854, Control_c, 0, 64, 32
1, 919873, Control_c, 0, 64, 43
1, 919891, Control_c, 0, 64, 57
1, 919910, Control_c, 0, 64, 67
1, 919929, Control_c, 0, 64, 72
1, 919947, Control_c, 0, 64, 75
1, 919968, Note_off_c, 0, 54, 51
1, 919969, Note_off_c, 0, 66, 37
1, 920028, Note_off_c, 0, 60, 34
1, 920046, Poly_aftertouch_c, 0, 53, 28
1, 920049, Note_on_c, 0, 53, 55
1, 920049, Poly_aftertouch_c, 0, 74, 28
1, 920052, Note_on_c, 0, 74, 68
1, 920058, Control_c, 0, 64, 71
1, 920078, Control_c, 0, 64, 67
1, 920094, Note_off_c, 0, 72, 61
1, 920096, Control_c, 0, 64, 63
1, 920115, Control_c, 0, 64, 58
1, 920135, Control_c, 0, 64, 54
1, 920140, Note_off_c, 0, 69, 49
1, 920147, Note_off_c, 0, 57, 35
1, 920154, Control_c, 0, 64, 49
1, 920172, Control_c, 0, 64, 44
1, 920191, Control_c, 0, 64, 38
1, 920193, Note_off_c, 0, 53, 57
1, 920210, Control_c, 0, 64, 31
1, 920228, Control_c, 0, 64, 24
1, 920244, Note_off_c, 0, 74, 61
1, 920246, Control_c, 0, 64, 20
1, 920285, Control_c, 0, 64, 15
1, 920322, Control_c, 0, 64, 9
1, 920602, Poly_aftertouch_c, 0, 78, 28
1, 920603, Poly_aftertouch_c, 0, 81, 28
1, 920606, Note_on_c, 0, 81, 56
1, 920613, Note_on_c, 0, 78, 48
1, 920620, Poly_aftertouch_c, 0, 45, 28
1, 920627, Poly_aftertouch_c, 0, 48, 28
1, 920627, Poly_aftertouch_c, 0, 54, 28
1, 920629, Note_on_c, 0, 45, 29
1, 920629, Poly_aftertouch_c, 0, 72, 28
1, 920632, Note_on_c, 0, 72, 43
1, 920636, Note_on_c, 0, 48, 33
1, 920636, Note_on_c, 0, 54, 42
1, 920753, Control_c, 0, 64, 19
1, 920772, Control_c, 0, 64, 28
1, 920790, Control_c, 0, 64, 43
1, 920803, Note_off_c, 0, 81, 38
1, 920807, Control_c, 0, 64, 61
1, 920827, Control_c, 0, 64, 69
1, 920846, Control_c, 0, 64, 72
1, 920875, Note_off_c, 0, 45, 36
1, 920882, Control_c, 0, 64, 74
1, 920908, Poly_aftertouch_c, 0, 66, 28
1, 920916, Note_on_c, 0, 66, 53
1, 920928, Note_off_c, 0, 48, 36
1, 920929, Poly_aftertouch_c, 0, 57, 28
1, 920931, Note_on_c, 0, 57, 42
1, 920981, Note_off_c, 0, 78, 59
1, 921013, Note_off_c, 0, 54, 36
1, 921034, Control_c, 0, 64, 72
1, 921051, Control_c, 0, 64, 70
1, 921053, Note_off_c, 0, 72, 41
1, 921061, Note_off_c, 0, 66, 53
1, 921069, Control_c, 0, 64, 68
1, 921088, Note_off_c, 0, 57, 54
1, 921088, Control_c, 0, 64, 65
1, 921108, Control_c, 0, 64, 62
1, 921127, Control_c, 0, 64, 58
1, 921145, Control_c, 0, 64, 54
1, 921164, Control_c, 0, 64, 51
1, 921165, Control_c, 0, 67, 88
1, 921183, Control_c, 0, 64, 46
1, 921184, Control_c, 0, 67, 80
1, 921202, Control_c, 0, 64, 40
1, 921203, Control_c, 0, 67, 72
1, 921221, Control_c, 0, 64, 34
1, 921222, Control_c, 0, 67, 64
1, 921239, Control_c, 0, 64, 28
1, 921240, Control_c, 0, 67, 56
1, 921259, Control_c, 0, 64, 23
1, 921260, Control_c, 0, 67, 50
1, 921276, Control_c, 0, 67, 45
1, 921296, Control_c, 0, 64, 17
1, 921313, Control_c, 0, 67, 38
1, 921369, Control_c, 0, 64, 13
1, 921370, Control_c, 0, 67, 34
1, 921483, Poly_aftertouch_c, 0, 71, 28
1, 921483, Poly_aftertouch_c, 0, 74, 28
1, 921485, Note_on_c, 0, 74, 76
1, 921488, Note_on_c, 0, 71, 63
1, 921490, Poly_aftertouch_c, 0, 59, 28
1, 921491, Poly_aftertouch_c, 0, 62, 28
1, 921494, Note_on_c, 0, 59, 42
1, 921495, Note_on_c, 0, 67, 51
1, 921495, Poly_aftertouch_c, 0, 67, 28
1, 921500, Note_on_c, 0, 62, 46
1, 921500, Poly_aftertouch_c, 0, 55, 28
1, 921502, Note_on_c, 0, 55, 46
1, 921613, Control_c, 0, 64, 21
1, 921632, Control_c, 0, 64, 30
1, 921650, Control_c, 0, 64, 41
1, 921670, Control_c, 0, 64, 57
1, 921688, Control_c, 0, 64, 68
1, 921707, Control_c, 0, 64, 73
1, 921725, Control_c, 0, 64, 76
1, 921787, Poly_aftertouch_c, 0, 54, 28
1, 921795, Note_on_c, 0, 54, 68
1, 921795, Note_on_c, 0, 76, 80
1, 921796, Poly_aftertouch_c, 0, 76, 28
1, 921828, Note_off_c, 0, 55, 57
1, 921849, Note_off_c, 0, 67, 31
1, 921857, Control_c, 0, 64, 71
1, 921858, Note_off_c, 0, 74, 55
1, 921862, Note_off_c, 0, 59, 55
1, 921866, Note_off_c, 0, 62, 34
1, 921876, Control_c, 0, 64, 67
1, 921877, Control_c, 0, 67, 38
1, 921887, Note_off_c, 0, 71, 53
1, 921894, Control_c, 0, 64, 62
1, 921913, Control_c, 0, 64, 58
1, 921931, Control_c, 0, 64, 54
1, 921942, Note_off_c, 0, 54, 60
1, 921951, Control_c, 0, 64, 50
1, 921969, Control_c, 0, 64, 46
1, 921973, Note_off_c, 0, 76, 61
1, 921987, Control_c, 0, 64, 41
1, 922007, Control_c, 0, 64, 35
1, 922026, Control_c, 0, 64, 29
1, 922044, Control_c, 0, 64, 24
1, 922063, Control_c, 0, 64, 19
1, 922081, Control_c, 0, 64, 14
1, 922119, Control_c, 0, 64, 8
1, 922312, Poly_aftertouch_c, 0, 80, 28
1, 922312, Poly_aftertouch_c, 0, 83, 28
1, 922316, Note_on_c, 0, 83, 69
1, 922318, Poly_aftertouch_c, 0, 50, 28
1, 922319, Poly_aftertouch_c, 0, 74, 28
1, 922324, Note_on_c, 0, 80, 62
1, 922324, Note_on_c, 0, 74, 60
1, 922327, Poly_aftertouch_c, 0, 47, 28
1, 922327, Poly_aftertouch_c, 0, 56, 28
1, 922331, Note_on_c, 0, 50, 44
1, 922334, Note_on_c, 0, 56, 50
1, 922339, Note_on_c, 0, 47, 43
1, 922381, Control_c, 0, 64, 16
1, 922399, Control_c, 0, 64, 22
1, 922419, Control_c, 0, 64, 30
1, 922436, Control_c, 0, 64, 45
1, 922456, Control_c, 0, 64, 63
1, 922474, Control_c, 0, 64, 75
1, 922494, Control_c, 0, 64, 85
1, 922500, Note_off_c, 0, 47, 35
1, 922512, Control_c, 0, 64, 97
1, 922523, Note_off_c, 0, 83, 36
1, 922530, Control_c, 0, 64, 112
1, 922534, Note_off_c, 0, 50, 50
1, 922549, Control_c, 0, 64, 127
1, 922568, Control_c, 0, 67, 34
1, 922597, Poly_aftertouch_c, 0, 68, 28
1, 922601, Note_on_c, 0, 68, 73
1, 922611, Poly_aftertouch_c, 0, 62, 28
1, 922615, Note_on_c, 0, 62, 64
1, 922661, Control_c, 0, 67, 24
1, 922665, Note_off_c, 0, 80, 64
1, 922680, Control_c, 0, 67, 17
1, 922696, Note_off_c, 0, 56, 60
1, 922698, Control_c, 0, 67, 9
1, 922704, Note_off_c, 0, 62, 57
1, 922709, Note_off_c, 0, 74, 52
1, 922725, Note_off_c, 0, 68, 56
1, 922737, Control_c, 0, 67, 0
1, 922773, Control_c, 0, 64, 114
1, 922792, Control_c, 0, 64, 105
1, 922811, Control_c, 0, 64, 96
1, 922830, Control_c, 0, 64, 86
1, 922849, Control_c, 0, 64, 73
1, 922867, Control_c, 0, 64, 61
1, 922887, Control_c, 0, 64, 51
1, 922904, Control_c, 0, 64, 45
1, 922924, Control_c, 0, 64, 39
1, 922943, Control_c, 0, 64, 33
1, 922961, Control_c, 0, 64, 27
1, 922980, Control_c, 0, 64, 22
1, 923017, Control_c, 0, 64, 17
1, 923123, Poly_aftertouch_c, 0, 72, 28
1, 923123, Poly_aftertouch_c, 0, 76, 28
1, 923124, Note_on_c, 0, 76, 85
1, 923128, Note_on_c, 0, 72, 79
1, 923130, Note_on_c, 0, 69, 61
1, 923131, Note_on_c, 0, 60, 58
1, 923132, Poly_aftertouch_c, 0, 60, 28
1, 923133, Poly_aftertouch_c, 0, 64, 28
1, 923134, Poly_aftertouch_c, 0, 69, 28
1, 923138, Note_on_c, 0, 64, 64
1, 923141, Poly_aftertouch_c, 0, 57, 28
1, 923148, Note_on_c, 0, 57, 58
1, 923242, Control_c, 0, 64, 24
1, 923260, Control_c, 0, 64, 36
1, 923280, Control_c, 0, 64, 54
1, 923298, Control_c, 0, 64, 71
1, 923317, Control_c, 0, 64, 86
1, 923336, Control_c, 0, 64, 109
1, 923355, Control_c, 0, 64, 127
1, 923390, Note_off_c, 0, 64, 56
1, 923434, Note_off_c, 0, 69, 37
1, 923440, Poly_aftertouch_c, 0, 77, 28
1, 923443, Note_on_c, 0, 77, 85
1, 923445, Note_on_c, 0, 56, 71
1, 923445, Poly_aftertouch_c, 0, 56, 28
1, 923446, Note_off_c, 0, 57, 63
1, 923482, Note_off_c, 0, 76, 58
1, 923494, Note_off_c, 0, 60, 54
1, 923495, Note_off_c, 0, 72, 53
1, 923503, Control_c, 0, 64, 109
1, 923522, Control_c, 0, 64, 101
1, 923542, Control_c, 0, 64, 93
1, 923561, Control_c, 0, 64, 85
1, 923570, Note_off_c, 0, 56, 52
1, 923575, Note_off_c, 0, 77, 59
1, 923577, Control_c, 0, 64, 79
1, 923598, Control_c, 0, 64, 75
1, 923616, Control_c, 0, 64, 72
1, 923635, Control_c, 0, 64, 69
1, 923653, Control_c, 0, 64, 64
1, 923673, Control_c, 0, 64, 59
1, 923691, Control_c, 0, 64, 53
1, 923710, Control_c, 0, 64, 47
1, 923728, Control_c, 0, 64, 40
1, 923747, Control_c, 0, 64, 31
1, 923766, Control_c, 0, 64, 22
1, 923784, Control_c, 0, 64, 13
1, 923840, Control_c, 0, 64, 0
1, 924001, Poly_aftertouch_c, 0, 82, 28
1, 924001, Poly_aftertouch_c, 0, 85, 28
1, 924005, Note_on_c, 0, 85, 82
1, 924007, Poly_aftertouch_c, 0, 49, 28
1, 924009, Note_on_c, 0, 49, 61
1, 924010, Note_on_c, 0, 82, 77
1, 924012, Poly_aftertouch_c, 0, 76, 28
1, 924016, Note_on_c, 0, 76, 72
1, 924018, Poly_aftertouch_c, 0, 58, 28
1, 924020, Note_on_c, 0, 58, 62
1, 924025, Poly_aftertouch_c, 0, 52, 28
1, 924028, Note_on_c, 0, 52, 57
1, 924047, Control_c, 0, 64, 9
1, 924065, Control_c, 0, 64, 15
1, 924085, Control_c, 0, 64, 23
1, 924103, Control_c, 0, 64, 34
1, 924121, Control_c, 0, 64, 51
1, 924141, Control_c, 0, 64, 69
1, 924159, Control_c, 0, 64, 85
1, 924170, Note_off_c, 0, 49, 59
1, 924177, Control_c, 0, 64, 112
1, 924197, Control_c, 0, 64, 127
1, 924263, Note_off_c, 0, 52, 52
1, 924309, Poly_aftertouch_c, 0, 70, 28
1, 924317, Note_on_c, 0, 70, 85
1, 924324, Poly_aftertouch_c, 0, 64, 28
1, 924327, Note_off_c, 0, 85, 64
1, 924330, Note_on_c, 0, 64, 70
1, 924402, Note_off_c, 0, 64, 59
1, 924407, Note_off_c, 0, 58, 59
1, 924417, Note_off_c, 0, 76, 58
1, 924417, Note_off_c, 0, 82, 60
1, 924451, Note_off_c, 0, 70, 57
1, 924553, Control_c, 0, 64, 101
1, 924571, Control_c, 0, 64, 85
1, 924590, Control_c, 0, 64, 72
1, 924608, Control_c, 0, 64, 61
1, 924627, Control_c, 0, 64, 53
1, 924646, Control_c, 0, 64, 47
1, 924664, Control_c, 0, 64, 39
1, 924684, Control_c, 0, 64, 29
1, 924702, Control_c, 0, 64, 19
1, 924721, Control_c, 0, 64, 11
1, 924795, Control_c, 0, 64, 0
1, 924881, Note_on_c, 0, 77, 88
1, 924883, Poly_aftertouch_c, 0, 77, 28
1, 924890, Note_on_c, 0, 74, 80
1, 924891, Poly_aftertouch_c, 0, 74, 28
1, 924896, Poly_aftertouch_c, 0, 62, 28
1, 924898, Note_on_c, 0, 71, 65
1, 924901, Note_on_c, 0, 62, 52
1, 924901, Poly_aftertouch_c, 0, 65, 28
1, 924901, Poly_aftertouch_c, 0, 71, 28
1, 924904, Note_on_c, 0, 59, 53
1, 924905, Note_on_c, 0, 65, 55
1, 924907, Poly_aftertouch_c, 0, 59, 28
1, 924945, Control_c, 0, 64, 14
1, 924965, Control_c, 0, 64, 23
1, 924982, Control_c, 0, 64, 36
1, 925002, Control_c, 0, 64, 58
1, 925013, Note_off_c, 0, 65, 60
1, 925019, Control_c, 0, 64, 76
1, 925039, Control_c, 0, 64, 91
1, 925058, Control_c, 0, 64, 113
1, 925059, Note_off_c, 0, 62, 61
1, 925076, Control_c, 0, 64, 127
1, 925106, Note_off_c, 0, 59, 59
1, 925241, Poly_aftertouch_c, 0, 79, 28
1, 925244, Poly_aftertouch_c, 0, 50, 28
1, 925245, Note_on_c, 0, 79, 86
1, 925253, Note_on_c, 0, 50, 61
1, 925284, Note_off_c, 0, 74, 56
1, 925288, Note_off_c, 0, 77, 60
1, 925317, Note_off_c, 0, 71, 28
1, 925347, Note_off_c, 0, 50, 61
1, 925348, Note_off_c, 0, 79, 63
1, 925525, Control_c, 0, 64, 112
1, 925544, Control_c, 0, 64, 100
1, 925563, Control_c, 0, 64, 91
1, 925581, Control_c, 0, 64, 83
1, 925600, Control_c, 0, 64, 76
1, 925619, Control_c, 0, 64, 69
1, 925638, Control_c, 0, 64, 63
1, 925656, Control_c, 0, 64, 60
1, 925694, Control_c, 0, 64, 56
1, 925712, Control_c, 0, 64, 51
1, 925731, Control_c, 0, 64, 44
1, 925750, Control_c, 0, 64, 36
1, 925769, Control_c, 0, 64, 27
1, 925788, Control_c, 0, 64, 18
1, 925806, Control_c, 0, 64, 10
1, 925870, Poly_aftertouch_c, 0, 55, 28
1, 925875, Poly_aftertouch_c, 0, 61, 28
1, 925880, Note_on_c, 0, 61, 52
1, 925881, Note_on_c, 0, 55, 41
1, 925882, Poly_aftertouch_c, 0, 52, 28
1, 925887, Note_on_c, 0, 52, 38
1, 925956, Control_c, 0, 64, 26
1, 925959, Poly_aftertouch_c, 0, 85, 28
1, 925961, Note_on_c, 0, 85, 95
1, 925975, Control_c, 0, 64, 50
1, 925991, Poly_aftertouch_c, 0, 78, 28
1, 925992, Control_c, 0, 64, 77
1, 925999, Note_on_c, 0, 78, 64
1, 926012, Control_c, 0, 64, 127
1, 926075, Note_off_c, 0, 55, 57
1, 926101, Note_off_c, 0, 52, 41
1, 926172, Note_off_c, 0, 85, 65
1, 926237, Control_c, 0, 67, 8
1, 926314, Note_off_c, 0, 61, 36
1, 926390, Note_off_c, 0, 78, 49
1, 926399, Poly_aftertouch_c, 0, 67, 28
1, 926403, Note_on_c, 0, 67, 61
1, 926413, Poly_aftertouch_c, 0, 66, 28
1, 926417, Note_on_c, 0, 66, 46
1, 926499, Note_off_c, 0, 67, 53
1, 926521, Note_off_c, 0, 66, 52
1, 926892, Control_c, 0, 64, 96
1, 926912, Control_c, 0, 64, 67
1, 926929, Control_c, 0, 64, 41
1, 926933, Poly_aftertouch_c, 0, 83, 28
1, 926937, Note_on_c, 0, 83, 82
1, 926939, Poly_aftertouch_c, 0, 76, 28
1, 926943, Note_on_c, 0, 76, 53
1, 926948, Control_c, 0, 64, 16
1, 926954, Poly_aftertouch_c, 0, 54, 28
1, 926961, Note_on_c, 0, 54, 43
1, 926970, Poly_aftertouch_c, 0, 59, 28
1, 926975, Note_on_c, 0, 59, 42
1, 926985, Control_c, 0, 67, 14
1, 927023, Control_c, 0, 67, 19
1, 927043, Control_c, 0, 67, 26
1, 927060, Control_c, 0, 64, 25
1, 927062, Control_c, 0, 67, 34
1, 927080, Control_c, 0, 64, 43
1, 927081, Control_c, 0, 67, 43
1, 927098, Control_c, 0, 64, 68
1, 927099, Control_c, 0, 67, 50
1, 927116, Control_c, 0, 64, 89
1, 927118, Control_c, 0, 67, 57
1, 927120, Note_off_c, 0, 83, 57
1, 927135, Control_c, 0, 64, 127
1, 927136, Control_c, 0, 67, 64
1, 927154, Control_c, 0, 67, 71
1, 927172, Control_c, 0, 67, 76
1, 927191, Control_c, 0, 67, 81
1, 927209, Control_c, 0, 67, 85
1, 927229, Control_c, 0, 67, 89
1, 927247, Control_c, 0, 67, 93
1, 927342, Control_c, 0, 67, 97
1, 927356, Note_off_c, 0, 59, 32
1, 927358, Poly_aftertouch_c, 0, 66, 28
1, 927362, Note_off_c, 0, 54, 36
1, 927365, Note_on_c, 0, 66, 54
1, 927377, Poly_aftertouch_c, 0, 64, 28
1, 927382, Note_on_c, 0, 64, 40
1, 927416, Control_c, 0, 67, 102
1, 927492, Control_c, 0, 67, 107
1, 927499, Note_off_c, 0, 66, 50
1, 927547, Control_c, 0, 67, 112
1, 927553, Note_off_c, 0, 64, 27
1, 927584, Control_c, 0, 67, 119
1, 927603, Control_c, 0, 67, 123
1, 927623, Control_c, 0, 67, 127
1, 928045, Poly_aftertouch_c, 0, 54, 28
1, 928054, Poly_aftertouch_c, 0, 58, 28
1, 928058, Note_on_c, 0, 54, 33
1, 928067, Note_on_c, 0, 58, 43
1, 928090, Control_c, 0, 64, 107
1, 928109, Control_c, 0, 64, 85
1, 928129, Control_c, 0, 64, 64
1, 928132, Note_off_c, 0, 76, 61
1, 928146, Control_c, 0, 64, 41
1, 928152, Poly_aftertouch_c, 0, 82, 28
1, 928159, Note_on_c, 0, 82, 59
1, 928165, Control_c, 0, 64, 22
1, 928181, Poly_aftertouch_c, 0, 74, 28
1, 928183, Control_c, 0, 64, 13
1, 928185, Note_on_c, 0, 74, 49
1, 928277, Control_c, 0, 64, 19
1, 928296, Control_c, 0, 64, 28
1, 928315, Control_c, 0, 64, 42
1, 928335, Control_c, 0, 64, 62
1, 928352, Control_c, 0, 64, 77
1, 928372, Control_c, 0, 64, 93
1, 928389, Control_c, 0, 64, 124
1, 928467, Note_off_c, 0, 54, 42
1, 928495, Note_off_c, 0, 58, 47
1, 928709, Poly_aftertouch_c, 0, 66, 28
1, 928719, Note_on_c, 0, 66, 28
1, 928771, Poly_aftertouch_c, 0, 74, 24
1, 928967, Note_off_c, 0, 66, 31
1, 928989, Poly_aftertouch_c, 0, 64, 28
1, 928996, Note_on_c, 0, 64, 41
1, 928996, Poly_aftertouch_c, 0, 73, 28
1, 929003, Note_on_c, 0, 73, 45
1, 929027, Poly_aftertouch_c, 0, 74, 20
1, 929031, Note_off_c, 0, 74, 19
1, 929044, Note_off_c, 0, 64, 63
1, 929060, Note_off_c, 0, 73, 49
1, 929274, Note_off_c, 0, 82, 40
1, 929288, Control_c, 0, 64, 88
1, 929307, Control_c, 0, 64, 61
1, 929325, Control_c, 0, 64, 36
1, 929331, Poly_aftertouch_c, 0, 62, 28
1, 929333, Poly_aftertouch_c, 0, 78, 28
1, 929338, Poly_aftertouch_c, 0, 66, 28
1, 929342, Note_on_c, 0, 62, 33
1, 929344, Note_on_c, 0, 78, 56
1, 929344, Control_c, 0, 64, 24
1, 929347, Note_on_c, 0, 66, 38
1, 929351, Poly_aftertouch_c, 0, 59, 28
1, 929353, Poly_aftertouch_c, 0, 74, 28
1, 929357, Note_on_c, 0, 59, 40
1, 929360, Note_on_c, 0, 74, 40
1, 929384, Poly_aftertouch_c, 0, 71, 28
1, 929390, Note_on_c, 0, 71, 35
1, 929400, Control_c, 0, 64, 30
1, 929408, Note_off_c, 0, 66, 57
1, 929419, Control_c, 0, 64, 43
1, 929438, Control_c, 0, 64, 61
1, 929455, Note_off_c, 0, 62, 59
1, 929455, Control_c, 0, 64, 75
1, 929476, Control_c, 0, 64, 89
1, 929487, Note_off_c, 0, 59, 62
1, 929494, Control_c, 0, 64, 114
1, 929512, Control_c, 0, 64, 127
1, 929617, Note_off_c, 0, 71, 34
1, 929669, Note_off_c, 0, 74, 36
1, 929692, Poly_aftertouch_c, 0, 83, 28
1, 929700, Note_on_c, 0, 83, 54
1, 929718, Poly_aftertouch_c, 0, 50, 28
1, 929728, Note_on_c, 0, 50, 44
1, 929758, Note_off_c, 0, 78, 55
1, 929773, Note_off_c, 0, 50, 53
1, 929778, Note_off_c, 0, 83, 54
1, 929999, Control_c, 0, 64, 113
1, 930019, Control_c, 0, 64, 104
1, 930037, Control_c, 0, 64, 97
1, 930055, Control_c, 0, 64, 89
1, 930075, Control_c, 0, 64, 82
1, 930093, Control_c, 0, 64, 75
1, 930111, Control_c, 0, 64, 67
1, 930130, Control_c, 0, 64, 61
1, 930148, Control_c, 0, 64, 55
1, 930168, Control_c, 0, 64, 50
1, 930186, Control_c, 0, 64, 44
1, 930205, Control_c, 0, 64, 38
1, 930223, Control_c, 0, 64, 34
1, 930323, Poly_aftertouch_c, 0, 57, 28
1, 930328, Poly_aftertouch_c, 0, 52, 28
1, 930334, Note_on_c, 0, 52, 31
1, 930335, Note_on_c, 0, 57, 33
1, 930335, Poly_aftertouch_c, 0, 61, 28
1, 930340, Note_on_c, 0, 61, 39
1, 930355, Control_c, 0, 64, 42
1, 930373, Control_c, 0, 64, 52
1, 930392, Control_c, 0, 64, 64
1, 930400, Poly_aftertouch_c, 0, 85, 28
1, 930401, Poly_aftertouch_c, 0, 88, 28
1, 930403, Note_on_c, 0, 88, 64
1, 930408, Note_on_c, 0, 85, 53
1, 930409, Control_c, 0, 64, 74
1, 930430, Control_c, 0, 64, 85
1, 930449, Control_c, 0, 64, 104
1, 930467, Control_c, 0, 64, 127
1, 930490, Poly_aftertouch_c, 0, 81, 28
1, 930495, Note_off_c, 0, 52, 34
1, 930495, Note_off_c, 0, 57, 47
1, 930495, Note_on_c, 0, 81, 25
1, 930523, Note_off_c, 0, 61, 60
1, 930540, Note_off_c, 0, 88, 57
1, 930667, Note_off_c, 0, 81, 37
1, 930690, Note_off_c, 0, 85, 45
1, 930746, Poly_aftertouch_c, 0, 73, 28
1, 930750, Note_on_c, 0, 73, 52
1, 930756, Poly_aftertouch_c, 0, 69, 28
1, 930761, Note_on_c, 0, 69, 45
1, 930812, Note_off_c, 0, 69, 54
1, 930823, Note_off_c, 0, 73, 54
1, 930954, Control_c, 0, 64, 116
1, 930972, Control_c, 0, 64, 96
1, 930992, Control_c, 0, 64, 82
1, 931012, Control_c, 0, 64, 70
1, 931029, Control_c, 0, 64, 61
1, 931048, Control_c, 0, 64, 53
1, 931067, Control_c, 0, 64, 49
1, 931085, Control_c, 0, 64, 46
1, 931103, Control_c, 0, 64, 42
1, 931123, Control_c, 0, 64, 38
1, 931140, Control_c, 0, 64, 34
1, 931141, Control_c, 0, 67, 123
1, 931178, Control_c, 0, 64, 29
1, 931197, Control_c, 0, 67, 119
1, 931235, Control_c, 0, 67, 113
1, 931272, Control_c, 0, 67, 108
1, 931284, Poly_aftertouch_c, 0, 86, 28
1, 931290, Note_on_c, 0, 86, 57
1, 931299, Poly_aftertouch_c, 0, 54, 28
1, 931309, Control_c, 0, 67, 104
1, 931312, Note_on_c, 0, 54, 28
1, 931312, Poly_aftertouch_c, 0, 62, 28
1, 931314, Note_on_c, 0, 83, 51
1, 931314, Poly_aftertouch_c, 0, 83, 28
1, 931315, Note_on_c, 0, 62, 37
1, 931319, Poly_aftertouch_c, 0, 59, 28
1, 931320, Poly_aftertouch_c, 0, 79, 28
1, 931325, Note_on_c, 0, 59, 36
1, 931328, Note_on_c, 0, 79, 38
1, 931346, Control_c, 0, 67, 100
1, 931367, Control_c, 0, 64, 37
1, 931385, Control_c, 0, 64, 47
1, 931403, Control_c, 0, 64, 61
1, 931405, Control_c, 0, 67, 95
1, 931423, Control_c, 0, 64, 71
1, 931436, Note_off_c, 0, 86, 52
1, 931440, Control_c, 0, 64, 82
1, 931460, Control_c, 0, 64, 98
1, 931478, Control_c, 0, 64, 127
1, 931532, Note_off_c, 0, 54, 41
1, 931545, Note_off_c, 0, 59, 36
1, 931563, Note_off_c, 0, 83, 36
1, 931575, Note_off_c, 0, 79, 45
1, 931632, Note_off_c, 0, 62, 34
1, 931695, Poly_aftertouch_c, 0, 71, 28
1, 931703, Note_on_c, 0, 71, 43
1, 931709, Poly_aftertouch_c, 0, 67, 28
1, 931715, Note_on_c, 0, 67, 42
1, 931785, Note_off_c, 0, 71, 50
1, 931821, Note_off_c, 0, 67, 33
1, 931909, Control_c, 0, 67, 99
1, 932021, Control_c, 0, 67, 103
1, 932095, Control_c, 0, 67, 110
1, 932115, Control_c, 0, 64, 122
1, 932133, Control_c, 0, 64, 113
1, 932133, Control_c, 0, 67, 117
1, 932152, Control_c, 0, 64, 107
1, 932171, Control_c, 0, 64, 100
1, 932172, Control_c, 0, 67, 125
1, 932189, Control_c, 0, 64, 92
1, 932208, Control_c, 0, 64, 83
1, 932227, Control_c, 0, 64, 72
1, 932246, Control_c, 0, 64, 61
1, 932264, Control_c, 0, 64, 50
1, 932282, Control_c, 0, 64, 41
1, 932301, Control_c, 0, 64, 31
1, 932320, Control_c, 0, 64, 24
1, 932339, Control_c, 0, 64, 20
1, 932368, Poly_aftertouch_c, 0, 85, 28
1, 932376, Note_on_c, 0, 85, 48
1, 932381, Poly_aftertouch_c, 0, 82, 28
1, 932384, Poly_aftertouch_c, 0, 54, 28
1, 932386, Poly_aftertouch_c, 0, 78, 28
1, 932392, Poly_aftertouch_c, 0, 64, 28
1, 932395, Note_on_c, 0, 82, 41
1, 932399, Note_on_c, 0, 54, 34
1, 932399, Note_on_c, 0, 78, 37
1, 932402, Note_on_c, 0, 64, 33
1, 932403, Note_on_c, 0, 61, 33
1, 932403, Poly_aftertouch_c, 0, 61, 28
1, 932471, Control_c, 0, 64, 27
1, 932488, Control_c, 0, 64, 36
1, 932508, Control_c, 0, 64, 50
1, 932526, Control_c, 0, 64, 67
1, 932545, Control_c, 0, 64, 79
1, 932564, Control_c, 0, 64, 93
1, 932582, Control_c, 0, 64, 112
1, 932594, Note_off_c, 0, 85, 56
1, 932601, Control_c, 0, 64, 127
1, 932623, Note_off_c, 0, 54, 43
1, 932861, Note_off_c, 0, 61, 25
1, 932868, Note_off_c, 0, 64, 31
1, 932871, Note_off_c, 0, 82, 40
1, 932883, Poly_aftertouch_c, 0, 70, 28
1, 932896, Note_on_c, 0, 70, 43
1, 932897, Poly_aftertouch_c, 0, 66, 28
1, 932904, Note_on_c, 0, 66, 41
1, 932925, Note_off_c, 0, 78, 43
1, 933052, Note_off_c, 0, 66, 43
1, 933445, Poly_aftertouch_c, 0, 76, 28
1, 933452, Note_on_c, 0, 76, 30
1, 933551, Note_off_c, 0, 76, 37
1, 933637, Note_off_c, 0, 70, 42
1, 934011, Poly_aftertouch_c, 0, 35, 28
1, 934019, Note_on_c, 0, 35, 34
1, 934023, Control_c, 0, 64, 102
1, 934042, Control_c, 0, 64, 80
1, 934062, Control_c, 0, 64, 63
1, 934079, Control_c, 0, 64, 54
1, 934119, Control_c, 0, 64, 56
1, 934129, Poly_aftertouch_c, 0, 70, 28
1, 934136, Control_c, 0, 64, 60
1, 934139, Note_on_c, 0, 70, 50
1, 934155, Control_c, 0, 64, 64
1, 934156, Poly_aftertouch_c, 0, 64, 28
1, 934165, Note_on_c, 0, 64, 46
1, 934172, Control_c, 0, 64, 69
1, 934192, Control_c, 0, 64, 75
1, 934211, Control_c, 0, 64, 83
1, 934229, Control_c, 0, 64, 96
1, 934249, Control_c, 0, 64, 118
1, 934268, Control_c, 0, 64, 127
1, 934455, Poly_aftertouch_c, 0, 42, 28
1, 934463, Note_on_c, 0, 42, 33
1, 934491, Control_c, 0, 64, 114
1, 934511, Control_c, 0, 64, 87
1, 934529, Control_c, 0, 64, 65
1, 934547, Control_c, 0, 64, 49
1, 934558, Poly_aftertouch_c, 0, 73, 28
1, 934566, Note_on_c, 0, 73, 59
1, 934566, Control_c, 0, 64, 42
1, 934604, Control_c, 0, 64, 44
1, 934620, Poly_aftertouch_c, 0, 35, 24
1, 934623, Control_c, 0, 64, 54
1, 934642, Control_c, 0, 64, 66
1, 934660, Control_c, 0, 64, 79
1, 934678, Note_off_c, 0, 35, 35
1, 934678, Control_c, 0, 64, 100
1, 934679, Note_off_c, 0, 64, 36
1, 934698, Control_c, 0, 64, 127
1, 934743, Note_off_c, 0, 70, 34
1, 935391, Poly_aftertouch_c, 0, 47, 28
1, 935391, Control_c, 0, 64, 104
1, 935396, Poly_aftertouch_c, 0, 63, 28
1, 935400, Note_on_c, 0, 47, 38
1, 935403, Note_on_c, 0, 63, 37
1, 935409, Control_c, 0, 64, 79
1, 935427, Control_c, 0, 64, 63
1, 935446, Control_c, 0, 64, 58
1, 935483, Control_c, 0, 64, 62
1, 935503, Control_c, 0, 64, 67
1, 935521, Control_c, 0, 64, 74
1, 935540, Control_c, 0, 64, 83
1, 935558, Control_c, 0, 64, 97
1, 935577, Control_c, 0, 64, 124
1, 935652, Control_c, 0, 64, 110
1, 935671, Control_c, 0, 64, 89
1, 935690, Control_c, 0, 64, 71
1, 935705, Poly_aftertouch_c, 0, 66, 28
1, 935708, Control_c, 0, 64, 58
1, 935709, Poly_aftertouch_c, 0, 51, 28
1, 935713, Note_on_c, 0, 66, 37
1, 935718, Note_on_c, 0, 51, 27
1, 935727, Control_c, 0, 64, 53
1, 935764, Control_c, 0, 64, 57
1, 935784, Control_c, 0, 64, 63
1, 935797, Note_off_c, 0, 47, 42
1, 935802, Control_c, 0, 64, 70
1, 935820, Control_c, 0, 64, 78
1, 935840, Control_c, 0, 64, 93
1, 935858, Control_c, 0, 64, 127
1, 935895, Note_off_c, 0, 66, 52
1, 935924, Note_off_c, 0, 51, 41
1, 935932, Note_off_c, 0, 42, 48
1, 936252, Poly_aftertouch_c, 0, 35, 28
1, 936257, Note_on_c, 0, 35, 44
1, 936257, Poly_aftertouch_c, 0, 71, 28
1, 936258, Note_on_c, 0, 71, 73
1, 936265, Note_off_c, 0, 73, 55
1, 936316, Note_off_c, 0, 35, 56
1, 936529, Poly_aftertouch_c, 0, 44, 28
1, 936536, Note_on_c, 0, 44, 46
1, 936566, Poly_aftertouch_c, 0, 75, 28
1, 936572, Note_on_c, 0, 75, 71
1, 936589, Control_c, 0, 64, 112
1, 936607, Control_c, 0, 64, 83
1, 936625, Control_c, 0, 64, 61
1, 936646, Control_c, 0, 64, 45
1, 936663, Control_c, 0, 64, 38
1, 936700, Control_c, 0, 64, 41
1, 936720, Control_c, 0, 64, 50
1, 936738, Control_c, 0, 64, 62
1, 936756, Control_c, 0, 64, 73
1, 936775, Control_c, 0, 64, 86
1, 936794, Control_c, 0, 64, 115
1, 936813, Control_c, 0, 64, 127
1, 936922, Note_off_c, 0, 63, 36
1, 937169, Poly_aftertouch_c, 0, 64, 28
1, 937172, Note_on_c, 0, 64, 47
1, 937175, Poly_aftertouch_c, 0, 47, 28
1, 937181, Note_on_c, 0, 47, 42
1, 937500, Poly_aftertouch_c, 0, 68, 28
1, 937510, Note_on_c, 0, 68, 53
1, 937529, Poly_aftertouch_c, 0, 52, 28
1, 937538, Note_on_c, 0, 52, 35
1, 937552, Note_off_c, 0, 47, 39
1, 937569, Poly_aftertouch_c, 0, 44, 24
1, 937614, Note_off_c, 0, 75, 33
1, 937625, Note_off_c, 0, 44, 35
1, 937668, Note_off_c, 0, 71, 38
1, 937700, Note_off_c, 0, 52, 35
1, 937731, Note_off_c, 0, 68, 53
1, 937971, Note_off_c, 0, 64, 0
1, 937971, Poly_aftertouch_c, 0, 64, 28
1, 938071, Poly_aftertouch_c, 0, 64, 22
1, 938092, Poly_aftertouch_c, 0, 64, 0
1, 938118, Poly_aftertouch_c, 0, 60, 28
1, 938119, Note_on_c, 0, 60, 77
1, 938150, Poly_aftertouch_c, 0, 35, 28
1, 938155, Note_on_c, 0, 35, 47
1, 938181, Control_c, 0, 64, 105
1, 938198, Control_c, 0, 64, 87
1, 938217, Control_c, 0, 64, 79
1, 938255, Control_c, 0, 64, 85
1, 938273, Control_c, 0, 64, 93
1, 938291, Control_c, 0, 64, 108
1, 938309, Control_c, 0, 64, 127
1, 938397, Poly_aftertouch_c, 0, 63, 28
1, 938400, Note_on_c, 0, 63, 81
1, 938422, Control_c, 0, 64, 115
1, 938436, Poly_aftertouch_c, 0, 41, 28
1, 938442, Control_c, 0, 64, 90
1, 938448, Note_on_c, 0, 41, 23
1, 938461, Control_c, 0, 64, 72
1, 938476, Note_off_c, 0, 60, 55
1, 938480, Control_c, 0, 64, 56
1, 938498, Control_c, 0, 64, 40
1, 938516, Control_c, 0, 64, 28
1, 938535, Control_c, 0, 64, 22
1, 938540, Note_off_c, 0, 41, 0
1, 938540, Poly_aftertouch_c, 0, 41, 28
1, 938628, Control_c, 0, 64, 30
1, 938648, Control_c, 0, 64, 42
1, 938666, Control_c, 0, 64, 62
1, 938685, Control_c, 0, 64, 79
1, 938703, Control_c, 0, 64, 105
1, 938722, Control_c, 0, 64, 127
1, 938987, Poly_aftertouch_c, 0, 53, 28
1, 938991, Note_on_c, 0, 53, 46
1, 938993, Poly_aftertouch_c, 0, 44, 28
1, 939000, Note_on_c, 0, 44, 39
1, 939282, Poly_aftertouch_c, 0, 56, 28
1, 939284, Control_c, 0, 64, 87
1, 939287, Note_on_c, 0, 56, 46
1, 939302, Control_c, 0, 64, 70
1, 939305, Poly_aftertouch_c, 0, 41, 24
1, 939306, Poly_aftertouch_c, 0, 47, 28
1, 939319, Note_on_c, 0, 47, 28
1, 939320, Control_c, 0, 64, 60
1, 939340, Control_c, 0, 64, 58
1, 939342, Poly_aftertouch_c, 0, 35, 24
1, 939358, Control_c, 0, 64, 60
1, 939377, Control_c, 0, 64, 64
1, 939396, Control_c, 0, 64, 70
1, 939415, Control_c, 0, 64, 77
1, 939432, Poly_aftertouch_c, 0, 41, 0
1, 939432, Control_c, 0, 64, 87
1, 939452, Control_c, 0, 64, 99
1, 939467, Note_off_c, 0, 53, 49
1, 939470, Control_c, 0, 64, 113
1, 939471, Note_off_c, 0, 44, 33
1, 939490, Control_c, 0, 64, 127
1, 939528, Note_off_c, 0, 35, 20
1, 939957, Control_c, 0, 64, 117
1, 939963, Note_off_c, 0, 63, 60
1, 939977, Control_c, 0, 64, 101
1, 939981, Poly_aftertouch_c, 0, 61, 28
1, 939986, Note_on_c, 0, 61, 56
1, 939995, Control_c, 0, 64, 84
1, 940003, Poly_aftertouch_c, 0, 47, 24
1, 940012, Poly_aftertouch_c, 0, 35, 28
1, 940016, Note_on_c, 0, 35, 36
1, 940016, Control_c, 0, 64, 67
1, 940033, Control_c, 0, 64, 51
1, 940051, Control_c, 0, 64, 41
1, 940107, Control_c, 0, 64, 44
1, 940126, Control_c, 0, 64, 54
1, 940146, Control_c, 0, 64, 65
1, 940163, Control_c, 0, 64, 74
1, 940183, Control_c, 0, 64, 83
1, 940201, Control_c, 0, 64, 95
1, 940220, Control_c, 0, 64, 104
1, 940238, Control_c, 0, 64, 110
1, 940339, Poly_aftertouch_c, 0, 47, 22
1, 940388, Control_c, 0, 64, 98
1, 940400, Note_off_c, 0, 47, 19
1, 940401, Note_off_c, 0, 61, 53
1, 940406, Poly_aftertouch_c, 0, 59, 28
1, 940406, Control_c, 0, 64, 86
1, 940411, Note_on_c, 0, 59, 54
1, 940425, Control_c, 0, 64, 70
1, 940431, Poly_aftertouch_c, 0, 40, 28
1, 940437, Note_on_c, 0, 40, 32
1, 940444, Control_c, 0, 64, 54
1, 940460, Note_off_c, 0, 35, 35
1, 940462, Control_c, 0, 64, 35
1, 940482, Control_c, 0, 64, 16
1, 940595, Control_c, 0, 67, 117
1, 940613, Control_c, 0, 67, 112
1, 940632, Control_c, 0, 67, 107
1, 940650, Control_c, 0, 64, 10
1, 940652, Control_c, 0, 67, 101
1, 940669, Control_c, 0, 64, 17
1, 940671, Control_c, 0, 67, 95
1, 940688, Control_c, 0, 64, 23
1, 940689, Control_c, 0, 67, 88
1, 940706, Control_c, 0, 64, 31
1, 940708, Control_c, 0, 67, 83
1, 940725, Control_c, 0, 64, 42
1, 940726, Control_c, 0, 67, 79
1, 940743, Control_c, 0, 64, 59
1, 940763, Control_c, 0, 64, 70
1, 940780, Control_c, 0, 64, 78
1, 940800, Control_c, 0, 64, 84
1, 940819, Control_c, 0, 64, 89
1, 940836, Control_c, 0, 64, 95
1, 940856, Control_c, 0, 64, 104
1, 940874, Control_c, 0, 64, 127
1, 941027, Note_off_c, 0, 40, 30
1, 941162, Poly_aftertouch_c, 0, 43, 28
1, 941168, Poly_aftertouch_c, 0, 54, 28
1, 941170, Note_on_c, 0, 43, 31
1, 941178, Note_on_c, 0, 54, 38
1, 941199, Note_off_c, 0, 56, 54
1, 941220, Note_off_c, 0, 43, 50
1, 941398, Control_c, 0, 67, 83
1, 941760, Poly_aftertouch_c, 0, 52, 28
1, 941768, Note_on_c, 0, 52, 40
1, 941773, Control_c, 0, 64, 113
1, 941774, Poly_aftertouch_c, 0, 47, 28
1, 941784, Poly_aftertouch_c, 0, 49, 28
1, 941788, Note_on_c, 0, 49, 27
1, 941790, Note_on_c, 0, 47, 18
1, 941790, Control_c, 0, 64, 91
1, 941803, Note_off_c, 0, 54, 43
1, 941810, Control_c, 0, 64, 69
1, 941829, Control_c, 0, 64, 49
1, 941849, Control_c, 0, 64, 30
1, 941867, Control_c, 0, 64, 12
1, 942018, Control_c, 0, 64, 26
1, 942035, Control_c, 0, 64, 41
1, 942050, Note_off_c, 0, 59, 41
1, 942054, Control_c, 0, 64, 62
1, 942073, Control_c, 0, 64, 77
1, 942092, Control_c, 0, 64, 91
1, 942110, Control_c, 0, 64, 109
1, 942129, Control_c, 0, 64, 127
1, 942233, Note_off_c, 0, 47, 37
1, 942374, Note_off_c, 0, 49, 37
1, 942414, Poly_aftertouch_c, 0, 58, 28
1, 942428, Note_on_c, 0, 58, 37
1, 942710, Poly_aftertouch_c, 0, 70, 28
1, 942718, Note_on_c, 0, 70, 63
1, 942719, Note_off_c, 0, 52, 38
1, 942742, Note_off_c, 0, 58, 42
1, 943001, Poly_aftertouch_c, 0, 47, 28
1, 943012, Note_on_c, 0, 47, 35
1, 943106, Note_off_c, 0, 70, 63
1, 943116, Poly_aftertouch_c, 0, 73, 28
1, 943118, Note_on_c, 0, 73, 65
1, 943120, Control_c, 0, 64, 98
1, 943140, Control_c, 0, 64, 76
1, 943158, Control_c, 0, 64, 52
1, 943177, Control_c, 0, 64, 17
1, 943195, Control_c, 0, 64, 0
1, 943327, Control_c, 0, 64, 11
1, 943346, Control_c, 0, 64, 24
1, 943365, Control_c, 0, 64, 44
1, 943365, Control_c, 0, 67, 78
1, 943383, Control_c, 0, 64, 68
1, 943402, Control_c, 0, 64, 88
1, 943420, Control_c, 0, 64, 127
1, 943467, Note_off_c, 0, 47, 38
1, 943496, Poly_aftertouch_c, 0, 51, 28
1, 943504, Note_on_c, 0, 51, 39
1, 943665, Note_off_c, 0, 73, 43
1, 943779, Poly_aftertouch_c, 0, 63, 28
1, 943786, Note_on_c, 0, 63, 38
1, 943886, Note_off_c, 0, 63, 54
1, 943995, Note_off_c, 0, 51, 49
1, 944047, Poly_aftertouch_c, 0, 66, 28
1, 944054, Note_on_c, 0, 66, 43
1, 944345, Poly_aftertouch_c, 0, 59, 28
1, 944349, Note_on_c, 0, 59, 38
1, 944358, Poly_aftertouch_c, 0, 66, 22
1, 944375, Note_off_c, 0, 66, 35
1, 944438, Note_off_c, 0, 59, 50
1, 944499, Poly_aftertouch_c, 0, 35, 28
1, 944507, Note_on_c, 0, 35, 35
1, 944556, Note_off_c, 0, 35, 56
1, 944593, Poly_aftertouch_c, 0, 71, 28
1, 944600, Note_on_c, 0, 71, 61
1, 944895, Poly_aftertouch_c, 0, 47, 28
1, 944897, Poly_aftertouch_c, 0, 75, 28
1, 944902, Note_on_c, 0, 47, 44
1, 944905, Note_on_c, 0, 75, 72
1, 944919, Control_c, 0, 64, 91
1, 944925, Note_off_c, 0, 71, 57
1, 944937, Control_c, 0, 64, 64
1, 944956, Control_c, 0, 64, 41
1, 944974, Control_c, 0, 64, 26
1, 945031, Control_c, 0, 64, 30
1, 945048, Control_c, 0, 64, 43
1, 945068, Control_c, 0, 64, 61
1, 945086, Control_c, 0, 64, 75
1, 945105, Control_c, 0, 64, 88
1, 945123, Control_c, 0, 64, 105
1, 945143, Control_c, 0, 64, 127
1, 945175, Note_off_c, 0, 47, 33
1, 945210, Poly_aftertouch_c, 0, 52, 28
1, 945217, Note_on_c, 0, 52, 39
1, 945462, Poly_aftertouch_c, 0, 64, 28
1, 945471, Note_on_c, 0, 64, 41
1, 945580, Note_off_c, 0, 64, 53
1, 945700, Note_off_c, 0, 75, 50
1, 945742, Poly_aftertouch_c, 0, 68, 28
1, 945749, Note_off_c, 0, 52, 49
1, 945753, Note_on_c, 0, 68, 41
1, 945998, Poly_aftertouch_c, 0, 60, 28
1, 946005, Note_on_c, 0, 60, 37
1, 946012, Note_off_c, 0, 68, 35
1, 946214, Poly_aftertouch_c, 0, 35, 28
1, 946216, Note_on_c, 0, 35, 47
1, 946228, Poly_aftertouch_c, 0, 72, 28
1, 946232, Note_on_c, 0, 72, 76
1, 946246, Note_off_c, 0, 60, 33
1, 946261, Note_off_c, 0, 35, 59
1, 946551, Poly_aftertouch_c, 0, 75, 28
1, 946556, Note_on_c, 0, 75, 87
1, 946565, Poly_aftertouch_c, 0, 47, 28
1, 946565, Control_c, 0, 64, 112
1, 946573, Note_on_c, 0, 47, 56
1, 946583, Control_c, 0, 64, 85
1, 946597, Note_off_c, 0, 72, 62
1, 946602, Control_c, 0, 64, 61
1, 946622, Control_c, 0, 64, 41
1, 946640, Control_c, 0, 64, 28
1, 946715, Control_c, 0, 64, 36
1, 946733, Control_c, 0, 64, 50
1, 946753, Control_c, 0, 64, 65
1, 946771, Control_c, 0, 64, 75
1, 946790, Control_c, 0, 64, 85
1, 946809, Control_c, 0, 64, 98
1, 946827, Control_c, 0, 64, 117
1, 946832, Note_off_c, 0, 47, 34
1, 946846, Control_c, 0, 64, 127
1, 946860, Poly_aftertouch_c, 0, 53, 28
1, 946865, Note_on_c, 0, 53, 51
1, 946916, Note_off_c, 0, 53, 58
1, 947100, Poly_aftertouch_c, 0, 65, 28
1, 947106, Note_on_c, 0, 65, 53
1, 947201, Note_off_c, 0, 65, 50
1, 947365, Poly_aftertouch_c, 0, 68, 28
1, 947375, Note_on_c, 0, 68, 49
1, 947656, Poly_aftertouch_c, 0, 61, 28
1, 947661, Note_on_c, 0, 61, 55
1, 947715, Note_off_c, 0, 68, 42
1, 947761, Note_off_c, 0, 61, 56
1, 947777, Note_off_c, 0, 75, 38
1, 947907, Poly_aftertouch_c, 0, 73, 28
1, 947911, Note_on_c, 0, 73, 83
1, 947920, Poly_aftertouch_c, 0, 35, 28
1, 947921, Note_on_c, 0, 35, 47
1, 947959, Note_off_c, 0, 35, 55
1, 948367, Poly_aftertouch_c, 0, 80, 28
1, 948370, Note_on_c, 0, 80, 90
1, 948380, Poly_aftertouch_c, 0, 47, 28
1, 948388, Note_on_c, 0, 47, 52
1, 948396, Note_off_c, 0, 73, 56
1, 948399, Control_c, 0, 64, 101
1, 948419, Control_c, 0, 64, 72
1, 948437, Control_c, 0, 64, 49
1, 948456, Control_c, 0, 64, 30
1, 948474, Control_c, 0, 64, 19
1, 948531, Control_c, 0, 64, 24
1, 948549, Control_c, 0, 64, 37
1, 948569, Control_c, 0, 64, 57
1, 948586, Control_c, 0, 64, 76
1, 948606, Control_c, 0, 64, 98
1, 948624, Control_c, 0, 64, 127
1, 948733, Note_off_c, 0, 47, 34
1, 948771, Poly_aftertouch_c, 0, 52, 28
1, 948776, Note_on_c, 0, 52, 38
1, 949007, Poly_aftertouch_c, 0, 64, 28
1, 949012, Note_on_c, 0, 64, 46
1, 949106, Note_off_c, 0, 64, 54
1, 949215, Poly_aftertouch_c, 0, 52, 24
1, 949244, Poly_aftertouch_c, 0, 70, 28
1, 949255, Note_on_c, 0, 70, 44
1, 949265, Note_off_c, 0, 52, 36
1, 949394, Note_off_c, 0, 80, 37
1, 949470, Note_off_c, 0, 70, 58
1, 949497, Poly_aftertouch_c, 0, 66, 28
1, 949503, Note_on_c, 0, 66, 44
1, 949699, Poly_aftertouch_c, 0, 35, 28
1, 949704, Note_on_c, 0, 35, 47
1, 949723, Poly_aftertouch_c, 0, 78, 28
1, 949726, Note_on_c, 0, 78, 80
1, 949744, Note_off_c, 0, 35, 52
1, 949930, Note_off_c, 0, 78, 62
1, 950015, Poly_aftertouch_c, 0, 47, 28
1, 950024, Note_on_c, 0, 47, 42
1, 950060, Note_off_c, 0, 66, 49
1, 950065, Control_c, 0, 64, 119
1, 950069, Poly_aftertouch_c, 0, 76, 28
1, 950072, Note_on_c, 0, 76, 85
1, 950085, Control_c, 0, 64, 80
1, 950103, Control_c, 0, 64, 54
1, 950121, Control_c, 0, 64, 33
1, 950141, Control_c, 0, 64, 24
1, 950197, Control_c, 0, 64, 33
1, 950215, Control_c, 0, 64, 50
1, 950235, Control_c, 0, 64, 70
1, 950253, Control_c, 0, 64, 89
1, 950271, Control_c, 0, 64, 127
1, 950341, Note_off_c, 0, 47, 33
1, 950346, Poly_aftertouch_c, 0, 54, 28
1, 950353, Note_on_c, 0, 54, 55
1, 950398, Note_off_c, 0, 54, 63
1, 950577, Poly_aftertouch_c, 0, 66, 28
1, 950585, Note_on_c, 0, 66, 57
1, 950618, Note_off_c, 0, 66, 63
1, 950849, Poly_aftertouch_c, 0, 69, 28
1, 950852, Control_c, 0, 64, 91
1, 950854, Note_on_c, 0, 69, 57
1, 950870, Control_c, 0, 64, 64
1, 950871, Poly_aftertouch_c, 0, 35, 28
1, 950873, Note_on_c, 0, 35, 48
1, 950889, Control_c, 0, 64, 45
1, 950908, Control_c, 0, 64, 41
1, 950945, Control_c, 0, 64, 47
1, 950964, Control_c, 0, 64, 59
1, 950983, Control_c, 0, 64, 71
1, 951002, Control_c, 0, 64, 84
1, 951020, Control_c, 0, 64, 106
1, 951028, Note_off_c, 0, 35, 59
1, 951040, Control_c, 0, 64, 127
1, 951082, Poly_aftertouch_c, 0, 63, 28
1, 951085, Note_off_c, 0, 69, 55
1, 951085, Note_on_c, 0, 63, 59
1, 951226, Note_off_c, 0, 76, 61
1, 951292, Poly_aftertouch_c, 0, 75, 28
1, 951295, Note_on_c, 0, 75, 79
1, 951467, Note_off_c, 0, 75, 63
1, 951527, Poly_aftertouch_c, 0, 47, 28
1, 951535, Note_on_c, 0, 47, 50
1, 951562, Note_off_c, 0, 63, 51
1, 951600, Control_c, 0, 64, 116
1, 951604, Poly_aftertouch_c, 0, 72, 28
1, 951608, Note_on_c, 0, 72, 81
1, 951620, Control_c, 0, 64, 78
1, 951638, Control_c, 0, 64, 53
1, 951657, Control_c, 0, 64, 32
1, 951676, Control_c, 0, 64, 25
1, 951733, Control_c, 0, 64, 39
1, 951750, Control_c, 0, 64, 57
1, 951770, Control_c, 0, 64, 73
1, 951788, Control_c, 0, 64, 89
1, 951806, Control_c, 0, 64, 127
1, 951861, Poly_aftertouch_c, 0, 54, 28
1, 951865, Note_off_c, 0, 47, 35
1, 951869, Note_on_c, 0, 54, 52
1, 951947, Note_off_c, 0, 54, 50
1, 952100, Poly_aftertouch_c, 0, 64, 28
1, 952106, Note_on_c, 0, 64, 48
1, 952142, Note_off_c, 0, 64, 57
1, 952311, Control_c, 0, 64, 106
1, 952330, Control_c, 0, 64, 76
1, 952341, Poly_aftertouch_c, 0, 63, 28
1, 952345, Note_on_c, 0, 63, 58
1, 952349, Control_c, 0, 64, 57
1, 952362, Poly_aftertouch_c, 0, 35, 28
1, 952366, Note_on_c, 0, 35, 32
1, 952367, Control_c, 0, 64, 52
1, 952386, Control_c, 0, 64, 54
1, 952405, Control_c, 0, 64, 59
1, 952423, Control_c, 0, 64, 66
1, 952443, Control_c, 0, 64, 76
1, 952462, Control_c, 0, 64, 89
1, 952465, Note_off_c, 0, 72, 52
1, 952481, Control_c, 0, 64, 110
1, 952499, Control_c, 0, 64, 127
1, 952544, Note_off_c, 0, 35, 49
1, 952579, Poly_aftertouch_c, 0, 57, 28
1, 952584, Note_on_c, 0, 57, 55
1, 952782, Note_off_c, 0, 57, 47
1, 952796, Poly_aftertouch_c, 0, 69, 28
1, 952798, Note_on_c, 0, 69, 79
1, 952840, Note_off_c, 0, 63, 45
1, 953088, Poly_aftertouch_c, 0, 48, 28
1, 953096, Note_on_c, 0, 48, 50
1, 953173, Control_c, 0, 64, 98
1, 953184, Poly_aftertouch_c, 0, 66, 28
1, 953187, Note_on_c, 0, 66, 80
1, 953192, Control_c, 0, 64, 72
1, 953206, Note_off_c, 0, 69, 51
1, 953208, Control_c, 0, 64, 50
1, 953231, Control_c, 0, 64, 30
1, 953248, Control_c, 0, 64, 20
1, 953322, Control_c, 0, 64, 32
1, 953341, Control_c, 0, 64, 46
1, 953359, Control_c, 0, 64, 64
1, 953379, Control_c, 0, 64, 78
1, 953398, Control_c, 0, 64, 96
1, 953415, Control_c, 0, 64, 127
1, 953476, Note_off_c, 0, 48, 36
1, 953508, Poly_aftertouch_c, 0, 57, 28
1, 953514, Note_on_c, 0, 57, 41
1, 953713, Poly_aftertouch_c, 0, 64, 28
1, 953720, Note_on_c, 0, 64, 56
1, 953762, Note_off_c, 0, 64, 64
1, 953781, Note_off_c, 0, 57, 62
1, 953922, Control_c, 0, 64, 110
1, 953924, Poly_aftertouch_c, 0, 47, 28
1, 953924, Poly_aftertouch_c, 0, 63, 28
1, 953929, Note_on_c, 0, 63, 67
1, 953930, Note_on_c, 0, 47, 71
1, 953940, Control_c, 0, 64, 77
1, 953958, Control_c, 0, 64, 54
1, 953978, Control_c, 0, 64, 38
1, 954036, Control_c, 0, 64, 41
1, 954053, Control_c, 0, 64, 53
1, 954070, Control_c, 0, 64, 65
1, 954090, Control_c, 0, 64, 74
1, 954110, Control_c, 0, 64, 84
1, 954128, Control_c, 0, 64, 99
1, 954146, Control_c, 0, 64, 127
1, 954166, Poly_aftertouch_c, 0, 57, 28
1, 954172, Note_on_c, 0, 57, 58
1, 954204, Note_off_c, 0, 47, 61
1, 954298, Note_off_c, 0, 57, 61
1, 954357, Poly_aftertouch_c, 0, 69, 28
1, 954359, Note_on_c, 0, 69, 81
1, 954401, Note_off_c, 0, 66, 61
1, 954405, Note_off_c, 0, 63, 50
1, 954544, Poly_aftertouch_c, 0, 45, 28
1, 954549, Note_on_c, 0, 45, 70
1, 954614, Control_c, 0, 64, 119
1, 954633, Control_c, 0, 64, 81
1, 954637, Poly_aftertouch_c, 0, 72, 28
1, 954640, Note_on_c, 0, 72, 96
1, 954653, Control_c, 0, 64, 56
1, 954670, Control_c, 0, 64, 32
1, 954672, Note_off_c, 0, 69, 58
1, 954689, Control_c, 0, 64, 18
1, 954764, Control_c, 0, 64, 27
1, 954783, Control_c, 0, 64, 40
1, 954785, Control_c, 0, 67, 74
1, 954802, Control_c, 0, 64, 61
1, 954822, Control_c, 0, 64, 79
1, 954823, Control_c, 0, 67, 67
1, 954839, Control_c, 0, 64, 108
1, 954841, Control_c, 0, 67, 60
1, 954858, Control_c, 0, 64, 127
1, 954859, Control_c, 0, 67, 53
1, 954876, Control_c, 0, 67, 49
1, 954892, Note_off_c, 0, 45, 37
1, 954893, Poly_aftertouch_c, 0, 54, 28
1, 954899, Note_on_c, 0, 54, 61
1, 954961, Note_off_c, 0, 54, 54
1, 955108, Poly_aftertouch_c, 0, 64, 28
1, 955111, Note_on_c, 0, 64, 63
1, 955156, Note_off_c, 0, 64, 63
1, 955303, Poly_aftertouch_c, 0, 47, 28
1, 955306, Control_c, 0, 64, 96
1, 955310, Note_on_c, 0, 47, 79
1, 955311, Poly_aftertouch_c, 0, 63, 28
1, 955313, Note_on_c, 0, 63, 72
1, 955326, Control_c, 0, 64, 67
1, 955344, Control_c, 0, 64, 46
1, 955363, Control_c, 0, 64, 40
1, 955400, Note_off_c, 0, 72, 49
1, 955400, Control_c, 0, 64, 45
1, 955420, Control_c, 0, 64, 58
1, 955437, Control_c, 0, 64, 71
1, 955457, Control_c, 0, 64, 85
1, 955475, Control_c, 0, 64, 109
1, 955493, Control_c, 0, 64, 127
1, 955519, Note_off_c, 0, 47, 59
1, 955524, Poly_aftertouch_c, 0, 57, 28
1, 955530, Note_on_c, 0, 57, 76
1, 955568, Control_c, 0, 67, 45
1, 955624, Control_c, 0, 67, 40
1, 955644, Control_c, 0, 67, 36
1, 955662, Control_c, 0, 67, 31
1, 955680, Control_c, 0, 67, 27
1, 955693, Note_off_c, 0, 57, 58
1, 955713, Poly_aftertouch_c, 0, 69, 28
1, 955717, Note_on_c, 0, 69, 84
1, 955717, Control_c, 0, 67, 20
1, 955752, Note_off_c, 0, 63, 57
1, 955755, Control_c, 0, 67, 15
1, 955793, Control_c, 0, 67, 8
1, 955893, Poly_aftertouch_c, 0, 48, 28
1, 955898, Note_on_c, 0, 48, 75
1, 955981, Control_c, 0, 64, 91
1, 955989, Poly_aftertouch_c, 0, 66, 28
1, 955994, Note_on_c, 0, 66, 93
1, 955998, Control_c, 0, 64, 62
1, 956018, Control_c, 0, 64, 32
1, 956046, Note_off_c, 0, 69, 55
1, 956131, Control_c, 0, 64, 12
1, 956148, Control_c, 0, 64, 25
1, 956168, Control_c, 0, 64, 42
1, 956187, Control_c, 0, 64, 64
1, 956206, Control_c, 0, 64, 82
1, 956225, Control_c, 0, 64, 113
1, 956242, Control_c, 0, 64, 127
1, 956253, Poly_aftertouch_c, 0, 57, 28
1, 956257, Note_on_c, 0, 57, 68
1, 956280, Control_c, 0, 67, 0
1, 956291, Note_off_c, 0, 48, 38
1, 956468, Poly_aftertouch_c, 0, 64, 28
1, 956469, Note_on_c, 0, 64, 74
1, 956533, Note_off_c, 0, 64, 61
1, 956559, Note_off_c, 0, 57, 61
1, 956735, Poly_aftertouch_c, 0, 47, 28
1, 956739, Note_on_c, 0, 47, 86
1, 956741, Poly_aftertouch_c, 0, 63, 28
1, 956745, Note_on_c, 0, 63, 84
1, 956747, Control_c, 0, 64, 114
1, 956766, Control_c, 0, 64, 73
1, 956786, Control_c, 0, 64, 45
1, 956805, Control_c, 0, 64, 22
1, 956822, Control_c, 0, 64, 15
1, 956879, Control_c, 0, 64, 30
1, 956898, Control_c, 0, 64, 48
1, 956916, Control_c, 0, 64, 67
1, 956937, Control_c, 0, 64, 83
1, 956954, Control_c, 0, 64, 105
1, 956972, Control_c, 0, 64, 127
1, 957006, Note_off_c, 0, 47, 56
1, 957033, Poly_aftertouch_c, 0, 57, 28
1, 957038, Note_on_c, 0, 57, 80
1, 957270, Note_off_c, 0, 57, 58
1, 957282, Note_off_c, 0, 63, 60
1, 957283, Note_off_c, 0, 66, 58
1, 957322, Poly_aftertouch_c, 0, 69, 28
1, 957327, Note_on_c, 0, 69, 91
1, 957727, Poly_aftertouch_c, 0, 45, 28
1, 957732, Note_on_c, 0, 45, 66
1, 957889, Poly_aftertouch_c, 0, 72, 28
1, 957890, Control_c, 0, 64, 95
1, 957891, Note_on_c, 0, 72, 97
1, 957906, Note_off_c, 0, 69, 55
1, 957907, Control_c, 0, 64, 68
1, 957928, Control_c, 0, 64, 43
1, 957946, Control_c, 0, 64, 10
1, 957965, Control_c, 0, 64, 0
1, 958245, Control_c, 0, 64, 8
1, 958264, Control_c, 0, 64, 15
1, 958283, Control_c, 0, 64, 28
1, 958301, Control_c, 0, 64, 48
1, 958321, Control_c, 0, 64, 64
1, 958340, Control_c, 0, 64, 71
1, 958357, Control_c, 0, 64, 73
1, 958378, Control_c, 0, 64, 77
1, 958395, Control_c, 0, 64, 88
1, 958414, Control_c, 0, 64, 114
1, 958433, Control_c, 0, 64, 127
1, 958512, Poly_aftertouch_c, 0, 54, 28
1, 958518, Note_on_c, 0, 54, 52
1, 958832, Note_off_c, 0, 54, 58
1, 958839, Note_off_c, 0, 45, 36
1, 958872, Poly_aftertouch_c, 0, 64, 28
1, 958878, Note_on_c, 0, 64, 51
1, 959163, Control_c, 0, 64, 82
1, 959182, Control_c, 0, 64, 56
1, 959186, Poly_aftertouch_c, 0, 42, 28
1, 959190, Note_on_c, 0, 42, 41
1, 959201, Control_c, 0, 64, 33
1, 959219, Control_c, 0, 64, 21
1, 959294, Control_c, 0, 64, 30
1, 959312, Control_c, 0, 64, 48
1, 959332, Control_c, 0, 64, 67
1, 959350, Control_c, 0, 64, 85
1, 959369, Control_c, 0, 64, 117
1, 959387, Control_c, 0, 64, 127
1, 959492, Note_off_c, 0, 64, 36
1, 959552, Note_off_c, 0, 42, 40
1, 959619, Poly_aftertouch_c, 0, 57, 28
1, 959628, Note_on_c, 0, 57, 40
1, 959919, Note_off_c, 0, 57, 34
1, 960260, Poly_aftertouch_c, 0, 64, 28
1, 960274, Note_on_c, 0, 64, 21
1, 961149, Control_c, 0, 64, 114
1, 961152, Poly_aftertouch_c, 0, 47, 28
1, 961160, Note_on_c, 0, 47, 33
1, 961165, Control_c, 0, 64, 94
1, 961185, Control_c, 0, 64, 78
1, 961203, Control_c, 0, 64, 63
1, 961222, Control_c, 0, 64, 48
1, 961241, Control_c, 0, 64, 34
1, 961259, Control_c, 0, 64, 24
1, 961279, Control_c, 0, 64, 19
1, 961372, Control_c, 0, 64, 24
1, 961390, Control_c, 0, 64, 33
1, 961410, Control_c, 0, 64, 44
1, 961411, Control_c, 0, 67, 8
1, 961427, Control_c, 0, 64, 59
1, 961428, Control_c, 0, 67, 14
1, 961446, Control_c, 0, 64, 69
1, 961448, Control_c, 0, 67, 22
1, 961467, Control_c, 0, 64, 77
1, 961468, Control_c, 0, 67, 34
1, 961485, Control_c, 0, 64, 84
1, 961486, Control_c, 0, 67, 47
1, 961503, Control_c, 0, 64, 91
1, 961504, Control_c, 0, 67, 61
1, 961521, Control_c, 0, 64, 100
1, 961523, Control_c, 0, 67, 73
1, 961540, Control_c, 0, 64, 114
1, 961541, Control_c, 0, 67, 84
1, 961558, Control_c, 0, 64, 127
1, 961559, Control_c, 0, 67, 94
1, 961577, Control_c, 0, 67, 103
1, 961596, Control_c, 0, 67, 111
1, 961615, Control_c, 0, 67, 120
1, 961633, Control_c, 0, 67, 127
1, 961731, Poly_aftertouch_c, 0, 72, 24
1, 961793, Note_off_c, 0, 64, 39
1, 961824, Note_off_c, 0, 72, 28
1, 962056, Poly_aftertouch_c, 0, 57, 28
1, 962067, Note_on_c, 0, 57, 31
1, 962472, Poly_aftertouch_c, 0, 63, 28
1, 962473, Poly_aftertouch_c, 0, 71, 28
1, 962480, Note_on_c, 0, 71, 44
1, 962481, Note_on_c, 0, 63, 33
1, 962496, Control_c, 0, 64, 96
1, 962504, Poly_aftertouch_c, 0, 69, 28
1, 962509, Note_on_c, 0, 69, 31
1, 962515, Control_c, 0, 64, 74
1, 962532, Control_c, 0, 64, 56
1, 962552, Control_c, 0, 64, 40
1, 962569, Control_c, 0, 64, 30
1, 962663, Control_c, 0, 64, 41
1, 962682, Control_c, 0, 64, 53
1, 962700, Control_c, 0, 64, 64
1, 962718, Control_c, 0, 64, 71
1, 962738, Control_c, 0, 64, 78
1, 962758, Control_c, 0, 64, 87
1, 962775, Control_c, 0, 64, 98
1, 962794, Control_c, 0, 64, 113
1, 962814, Control_c, 0, 64, 127
1, 962815, Note_off_c, 0, 47, 38
1, 962991, Poly_aftertouch_c, 0, 66, 28
1, 962992, Poly_aftertouch_c, 0, 69, 24
1, 963000, Note_on_c, 0, 66, 37
1, 963047, Note_off_c, 0, 69, 36
1, 963124, Note_off_c, 0, 71, 37
1, 963191, Note_off_c, 0, 66, 41
1, 963210, Note_off_c, 0, 63, 37
1, 963283, Poly_aftertouch_c, 0, 57, 20
1, 963290, Note_off_c, 0, 57, 37
1, 963299, Poly_aftertouch_c, 0, 59, 28
1, 963306, Note_on_c, 0, 59, 44
1, 963378, Note_off_c, 0, 59, 50
1, 963556, Poly_aftertouch_c, 0, 71, 28
1, 963563, Note_on_c, 0, 71, 58
1, 963578, Poly_aftertouch_c, 0, 64, 28
1, 963584, Note_on_c, 0, 64, 37
1, 963592, Poly_aftertouch_c, 0, 69, 28
1, 963597, Note_on_c, 0, 69, 37
1, 963598, Control_c, 0, 64, 97
1, 963620, Control_c, 0, 64, 74
1, 963636, Control_c, 0, 64, 56
1, 963654, Control_c, 0, 64, 44
1, 963674, Control_c, 0, 64, 38
1, 963711, Control_c, 0, 64, 40
1, 963730, Control_c, 0, 64, 47
1, 963749, Control_c, 0, 64, 56
1, 963767, Control_c, 0, 64, 63
1, 963786, Control_c, 0, 64, 68
1, 963804, Control_c, 0, 64, 72
1, 963825, Control_c, 0, 64, 77
1, 963841, Control_c, 0, 64, 83
1, 963859, Poly_aftertouch_c, 0, 69, 24
1, 963862, Control_c, 0, 64, 92
1, 963880, Control_c, 0, 64, 103
1, 963899, Control_c, 0, 64, 127
1, 963903, Poly_aftertouch_c, 0, 72, 28
1, 963907, Note_on_c, 0, 72, 53
1, 964012, Note_off_c, 0, 72, 51
1, 964025, Note_off_c, 0, 64, 40
1, 964043, Note_off_c, 0, 71, 28
1, 964046, Note_off_c, 0, 69, 19
1, 964177, Poly_aftertouch_c, 0, 47, 28
1, 964182, Poly_aftertouch_c, 0, 57, 28
1, 964190, Note_on_c, 0, 47, 33
1, 964191, Note_on_c, 0, 57, 31
1, 964367, Control_c, 0, 64, 94
1, 964385, Control_c, 0, 64, 71
1, 964404, Control_c, 0, 64, 52
1, 964415, Poly_aftertouch_c, 0, 71, 28
1, 964419, Poly_aftertouch_c, 0, 63, 28
1, 964422, Control_c, 0, 64, 36
1, 964424, Note_on_c, 0, 71, 59
1, 964430, Note_on_c, 0, 63, 34
1, 964437, Poly_aftertouch_c, 0, 69, 28
1, 964440, Note_on_c, 0, 69, 38
1, 964440, Control_c, 0, 64, 29
1, 964515, Control_c, 0, 64, 40
1, 964535, Control_c, 0, 64, 52
1, 964552, Note_off_c, 0, 47, 48
1, 964552, Control_c, 0, 64, 64
1, 964572, Control_c, 0, 64, 73
1, 964591, Control_c, 0, 64, 80
1, 964611, Control_c, 0, 64, 88
1, 964629, Control_c, 0, 64, 97
1, 964646, Control_c, 0, 64, 108
1, 964666, Control_c, 0, 64, 127
1, 964689, Poly_aftertouch_c, 0, 66, 28
1, 964698, Note_on_c, 0, 66, 54
1, 964726, Note_off_c, 0, 63, 52
1, 964767, Note_off_c, 0, 57, 35
1, 964807, Note_off_c, 0, 69, 37
1, 964812, Note_off_c, 0, 66, 49
1, 964813, Note_off_c, 0, 71, 56
1, 964929, Poly_aftertouch_c, 0, 59, 28
1, 964934, Note_on_c, 0, 59, 47
1, 964986, Note_off_c, 0, 59, 59
1, 965179, Poly_aftertouch_c, 0, 75, 28
1, 965187, Note_on_c, 0, 75, 62
1, 965189, Control_c, 0, 64, 117
1, 965204, Poly_aftertouch_c, 0, 67, 28
1, 965209, Control_c, 0, 64, 85
1, 965215, Note_on_c, 0, 67, 47
1, 965219, Poly_aftertouch_c, 0, 72, 28
1, 965225, Note_on_c, 0, 72, 39
1, 965227, Control_c, 0, 64, 63
1, 965246, Control_c, 0, 64, 45
1, 965264, Control_c, 0, 64, 34
1, 965284, Control_c, 0, 64, 30
1, 965396, Control_c, 0, 64, 39
1, 965415, Control_c, 0, 64, 47
1, 965433, Control_c, 0, 64, 56
1, 965452, Control_c, 0, 64, 63
1, 965470, Poly_aftertouch_c, 0, 76, 28
1, 965470, Control_c, 0, 64, 67
1, 965477, Note_on_c, 0, 76, 52
1, 965490, Control_c, 0, 64, 70
1, 965508, Control_c, 0, 64, 73
1, 965527, Control_c, 0, 64, 79
1, 965546, Control_c, 0, 64, 90
1, 965563, Poly_aftertouch_c, 0, 72, 24
1, 965564, Control_c, 0, 64, 108
1, 965580, Note_off_c, 0, 76, 57
1, 965581, Control_c, 0, 64, 127
1, 965582, Note_off_c, 0, 67, 48
1, 965620, Note_off_c, 0, 72, 37
1, 965654, Note_off_c, 0, 75, 39
1, 965717, Poly_aftertouch_c, 0, 57, 28
1, 965721, Poly_aftertouch_c, 0, 47, 28
1, 965727, Note_on_c, 0, 57, 37
1, 965730, Note_on_c, 0, 47, 34
1, 965958, Control_c, 0, 64, 92
1, 965974, Poly_aftertouch_c, 0, 75, 28
1, 965975, Control_c, 0, 64, 67
1, 965982, Note_on_c, 0, 75, 51
1, 965988, Poly_aftertouch_c, 0, 66, 28
1, 965993, Control_c, 0, 64, 46
1, 965998, Note_on_c, 0, 66, 41
1, 966004, Poly_aftertouch_c, 0, 72, 28
1, 966011, Note_on_c, 0, 72, 42
1, 966012, Control_c, 0, 64, 31
1, 966032, Control_c, 0, 64, 25
1, 966055, Note_off_c, 0, 47, 50
1, 966089, Control_c, 0, 64, 34
1, 966090, Note_off_c, 0, 57, 51
1, 966107, Control_c, 0, 64, 48
1, 966126, Control_c, 0, 64, 64
1, 966144, Control_c, 0, 64, 76
1, 966164, Control_c, 0, 64, 88
1, 966181, Control_c, 0, 64, 104
1, 966201, Control_c, 0, 64, 127
1, 966282, Note_on_c, 0, 69, 48
1, 966282, Poly_aftertouch_c, 0, 69, 28
1, 966366, Note_off_c, 0, 66, 34
1, 966391, Note_off_c, 0, 69, 53
1, 966392, Note_off_c, 0, 72, 32
1, 966429, Note_off_c, 0, 75, 37
1, 966541, Poly_aftertouch_c, 0, 59, 28
1, 966545, Note_on_c, 0, 59, 40
1, 966617, Note_off_c, 0, 59, 52
1, 966782, Poly_aftertouch_c, 0, 75, 28
1, 966793, Note_on_c, 0, 75, 51
1, 966795, Poly_aftertouch_c, 0, 67, 28
1, 966802, Note_on_c, 0, 67, 44
1, 966811, Poly_aftertouch_c, 0, 72, 28
1, 966817, Note_on_c, 0, 72, 40
1, 966817, Control_c, 0, 64, 105
1, 966837, Control_c, 0, 64, 80
1, 966856, Control_c, 0, 64, 61
1, 966875, Control_c, 0, 64, 45
1, 966894, Control_c, 0, 64, 37
1, 966949, Control_c, 0, 64, 42
1, 966969, Control_c, 0, 64, 51
1, 966987, Control_c, 0, 64, 62
1, 967006, Control_c, 0, 64, 69
1, 967024, Control_c, 0, 64, 76
1, 967044, Control_c, 0, 64, 83
1, 967061, Control_c, 0, 64, 92
1, 967081, Control_c, 0, 64, 103
1, 967100, Control_c, 0, 64, 127
1, 967106, Poly_aftertouch_c, 0, 76, 28
1, 967113, Note_on_c, 0, 76, 47
1, 967210, Note_off_c, 0, 76, 55
1, 967219, Poly_aftertouch_c, 0, 72, 24
1, 967244, Note_off_c, 0, 67, 37
1, 967261, Note_off_c, 0, 72, 41
1, 967282, Note_off_c, 0, 75, 43
1, 967440, Poly_aftertouch_c, 0, 47, 28
1, 967445, Poly_aftertouch_c, 0, 57, 28
1, 967453, Note_on_c, 0, 47, 29
1, 967453, Note_on_c, 0, 57, 32
1, 967568, Control_c, 0, 64, 121
1, 967586, Control_c, 0, 64, 105
1, 967605, Control_c, 0, 64, 91
1, 967625, Control_c, 0, 64, 75
1, 967642, Control_c, 0, 64, 61
1, 967661, Control_c, 0, 64, 55
1, 967699, Control_c, 0, 64, 57
1, 967716, Control_c, 0, 64, 61
1, 967736, Control_c, 0, 64, 64
1, 967754, Control_c, 0, 64, 68
1, 967774, Control_c, 0, 64, 71
1, 967796, Poly_aftertouch_c, 0, 75, 28
1, 967805, Note_on_c, 0, 75, 41
1, 967805, Poly_aftertouch_c, 0, 66, 28
1, 967818, Note_on_c, 0, 66, 31
1, 967833, Poly_aftertouch_c, 0, 72, 28
1, 967842, Note_on_c, 0, 72, 34
1, 967847, Control_c, 0, 64, 67
1, 967867, Control_c, 0, 64, 58
1, 967885, Control_c, 0, 64, 48
1, 967905, Control_c, 0, 64, 39
1, 967923, Control_c, 0, 64, 34
1, 967980, Control_c, 0, 64, 41
1, 967997, Control_c, 0, 64, 54
1, 968017, Control_c, 0, 64, 69
1, 968035, Control_c, 0, 64, 83
1, 968054, Control_c, 0, 64, 111
1, 968056, Note_off_c, 0, 47, 52
1, 968073, Control_c, 0, 64, 127
1, 968121, Note_off_c, 0, 57, 40
1, 968296, Poly_aftertouch_c, 0, 69, 28
1, 968300, Note_on_c, 0, 69, 34
1, 968412, Note_off_c, 0, 66, 35
1, 968512, Note_off_c, 0, 75, 38
1, 968523, Poly_aftertouch_c, 0, 72, 22
1, 968539, Note_off_c, 0, 72, 35
1, 968551, Note_off_c, 0, 69, 34
1, 968880, Poly_aftertouch_c, 0, 59, 28
1, 968886, Note_on_c, 0, 59, 28
1, 968998, Note_off_c, 0, 59, 49
1, 969701, Poly_aftertouch_c, 0, 76, 28
1, 969702, Control_c, 0, 64, 112
1, 969706, Note_on_c, 0, 76, 50
1, 969714, Note_on_c, 0, 69, 38
1, 969714, Poly_aftertouch_c, 0, 69, 28
1, 969719, Poly_aftertouch_c, 0, 72, 28
1, 969720, Control_c, 0, 64, 96
1, 969724, Note_on_c, 0, 72, 38
1, 969724, Poly_aftertouch_c, 0, 64, 28
1, 969730, Poly_aftertouch_c, 0, 57, 28
1, 969736, Note_on_c, 0, 64, 26
1, 969736, Poly_aftertouch_c, 0, 60, 28
1, 969739, Note_on_c, 0, 60, 33
1, 969739, Control_c, 0, 64, 81
1, 969743, Note_on_c, 0, 57, 33
1, 969758, Control_c, 0, 64, 69
1, 969776, Control_c, 0, 64, 59
1, 969794, Control_c, 0, 64, 50
1, 969813, Control_c, 0, 64, 44
1, 969832, Control_c, 0, 64, 39
1, 969964, Control_c, 0, 64, 46
1, 969982, Control_c, 0, 64, 54
1, 970001, Control_c, 0, 64, 61
1, 970020, Control_c, 0, 64, 65
1, 970039, Control_c, 0, 64, 69
1, 970057, Control_c, 0, 64, 71
1, 970075, Control_c, 0, 64, 74
1, 970101, Note_on_c, 0, 77, 47
1, 970101, Poly_aftertouch_c, 0, 77, 28
1, 970104, Poly_aftertouch_c, 0, 56, 28
1, 970111, Note_on_c, 0, 56, 35
1, 970113, Control_c, 0, 64, 76
1, 970129, Note_off_c, 0, 57, 37
1, 970157, Note_off_c, 0, 76, 50
1, 970184, Note_off_c, 0, 72, 50
1, 970197, Note_off_c, 0, 69, 39
1, 970210, Note_off_c, 0, 60, 37
1, 970231, Note_off_c, 0, 64, 33
1, 970262, Note_off_c, 0, 56, 52
1, 970263, Note_off_c, 0, 77, 60
1, 970282, Control_c, 0, 64, 73
1, 970300, Control_c, 0, 64, 70
1, 970319, Control_c, 0, 64, 67
1, 970337, Control_c, 0, 64, 62
1, 970356, Control_c, 0, 64, 58
1, 970375, Control_c, 0, 64, 54
1, 970393, Control_c, 0, 64, 50
1, 970412, Control_c, 0, 64, 47
1, 970432, Control_c, 0, 64, 43
1, 970450, Control_c, 0, 64, 39
1, 970489, Control_c, 0, 64, 33
1, 970839, Poly_aftertouch_c, 0, 84, 28
1, 970847, Note_on_c, 0, 84, 58
1, 970855, Poly_aftertouch_c, 0, 81, 28
1, 970859, Note_on_c, 0, 81, 51
1, 970860, Poly_aftertouch_c, 0, 48, 28
1, 970870, Note_on_c, 0, 48, 33
1, 970871, Poly_aftertouch_c, 0, 52, 28
1, 970876, Note_on_c, 0, 52, 35
1, 970877, Poly_aftertouch_c, 0, 57, 28
1, 970883, Poly_aftertouch_c, 0, 76, 28
1, 970888, Note_on_c, 0, 57, 37
1, 970889, Note_on_c, 0, 76, 42
1, 970955, Control_c, 0, 64, 42
1, 970975, Control_c, 0, 64, 51
1, 970992, Control_c, 0, 64, 60
1, 971012, Control_c, 0, 64, 68
1, 971030, Control_c, 0, 64, 72
1, 971050, Control_c, 0, 64, 77
1, 971067, Control_c, 0, 64, 82
1, 971087, Control_c, 0, 64, 88
1, 971105, Control_c, 0, 64, 93
1, 971188, Poly_aftertouch_c, 0, 75, 28
1, 971197, Note_on_c, 0, 75, 49
1, 971202, Poly_aftertouch_c, 0, 59, 28
1, 971205, Note_on_c, 0, 59, 45
1, 971217, Control_c, 0, 64, 89
1, 971219, Note_off_c, 0, 57, 37
1, 971237, Control_c, 0, 64, 82
1, 971255, Control_c, 0, 64, 75
1, 971262, Note_off_c, 0, 84, 34
1, 971269, Note_off_c, 0, 52, 27
1, 971273, Control_c, 0, 64, 68
1, 971290, Note_off_c, 0, 48, 32
1, 971291, Control_c, 0, 64, 62
1, 971297, Note_off_c, 0, 81, 53
1, 971312, Control_c, 0, 64, 58
1, 971317, Note_off_c, 0, 76, 59
1, 971322, Note_off_c, 0, 75, 59
1, 971330, Control_c, 0, 64, 53
1, 971348, Control_c, 0, 64, 49
1, 971368, Control_c, 0, 64, 46
1, 971374, Note_off_c, 0, 59, 56
1, 971386, Control_c, 0, 64, 43
1, 971404, Control_c, 0, 64, 40
1, 971442, Control_c, 0, 64, 35
1, 971536, Control_c, 0, 64, 31
1, 971767, Poly_aftertouch_c, 0, 76, 28
1, 971770, Note_on_c, 0, 76, 72
1, 971777, Poly_aftertouch_c, 0, 69, 28
1, 971778, Poly_aftertouch_c, 0, 72, 28
1, 971782, Note_on_c, 0, 72, 59
1, 971783, Note_on_c, 0, 69, 45
1, 971784, Poly_aftertouch_c, 0, 57, 28
1, 971785, Poly_aftertouch_c, 0, 60, 28
1, 971788, Note_on_c, 0, 60, 41
1, 971792, Poly_aftertouch_c, 0, 64, 28
1, 971795, Note_on_c, 0, 57, 37
1, 971799, Note_on_c, 0, 64, 43
1, 971891, Control_c, 0, 64, 38
1, 971910, Control_c, 0, 64, 47
1, 971928, Control_c, 0, 64, 58
1, 971947, Control_c, 0, 64, 67
1, 971967, Control_c, 0, 64, 73
1, 971985, Control_c, 0, 64, 78
1, 972003, Control_c, 0, 64, 85
1, 972023, Control_c, 0, 64, 91
1, 972041, Control_c, 0, 64, 96
1, 972067, Note_off_c, 0, 69, 36
1, 972092, Note_on_c, 0, 77, 74
1, 972092, Poly_aftertouch_c, 0, 77, 28
1, 972106, Poly_aftertouch_c, 0, 56, 28
1, 972112, Note_on_c, 0, 56, 51
1, 972118, Note_off_c, 0, 57, 52
1, 972128, Note_off_c, 0, 76, 59
1, 972135, Control_c, 0, 64, 91
1, 972141, Note_off_c, 0, 72, 55
1, 972153, Control_c, 0, 64, 85
1, 972158, Note_off_c, 0, 64, 37
1, 972166, Note_off_c, 0, 60, 31
1, 972172, Control_c, 0, 64, 78
1, 972191, Control_c, 0, 64, 71
1, 972209, Control_c, 0, 64, 64
1, 972228, Control_c, 0, 64, 60
1, 972230, Note_off_c, 0, 56, 60
1, 972247, Control_c, 0, 64, 56
1, 972266, Control_c, 0, 64, 52
1, 972270, Note_off_c, 0, 77, 60
1, 972284, Control_c, 0, 64, 48
1, 972303, Control_c, 0, 64, 44
1, 972322, Control_c, 0, 64, 40
1, 972340, Control_c, 0, 64, 36
1, 972359, Control_c, 0, 64, 32
1, 972396, Control_c, 0, 64, 24
1, 972435, Control_c, 0, 64, 18
1, 972799, Poly_aftertouch_c, 0, 84, 28
1, 972805, Poly_aftertouch_c, 0, 75, 28
1, 972809, Note_on_c, 0, 84, 45
1, 972811, Poly_aftertouch_c, 0, 81, 28
1, 972815, Note_on_c, 0, 75, 39
1, 972816, Note_on_c, 0, 81, 46
1, 972827, Poly_aftertouch_c, 0, 48, 28
1, 972827, Control_c, 0, 64, 23
1, 972835, Note_on_c, 0, 48, 31
1, 972839, Poly_aftertouch_c, 0, 54, 28
1, 972840, Poly_aftertouch_c, 0, 57, 28
1, 972846, Control_c, 0, 64, 29
1, 972849, Note_on_c, 0, 57, 26
1, 972849, Note_on_c, 0, 54, 33
1, 972864, Control_c, 0, 64, 38
1, 972884, Control_c, 0, 64, 51
1, 972902, Control_c, 0, 64, 64
1, 972922, Control_c, 0, 64, 73
1, 972939, Control_c, 0, 64, 81
1, 972959, Control_c, 0, 64, 91
1, 972967, Note_off_c, 0, 84, 41
1, 972978, Control_c, 0, 64, 102
1, 972990, Note_off_c, 0, 48, 37
1, 972995, Control_c, 0, 64, 121
1, 973014, Control_c, 0, 64, 127
1, 973142, Note_off_c, 0, 54, 42
1, 973156, Note_off_c, 0, 81, 38
1, 973336, Note_off_c, 0, 57, 34
1, 973347, Poly_aftertouch_c, 0, 69, 28
1, 973351, Note_on_c, 0, 69, 45
1, 973356, Poly_aftertouch_c, 0, 63, 28
1, 973367, Note_on_c, 0, 63, 32
1, 973396, Note_off_c, 0, 75, 40
1, 973468, Note_off_c, 0, 69, 51
1, 973536, Note_off_c, 0, 63, 41
1, 973613, Control_c, 0, 64, 118
1, 973632, Control_c, 0, 64, 111
1, 973653, Control_c, 0, 64, 105
1, 973669, Control_c, 0, 64, 100
1, 973689, Control_c, 0, 64, 94
1, 973707, Control_c, 0, 64, 89
1, 973727, Control_c, 0, 64, 83
1, 973744, Control_c, 0, 64, 78
1, 973763, Control_c, 0, 64, 73
1, 973782, Control_c, 0, 64, 67
1, 973800, Control_c, 0, 64, 62
1, 973820, Control_c, 0, 64, 57
1, 973838, Control_c, 0, 64, 54
1, 973856, Control_c, 0, 64, 50
1, 973875, Control_c, 0, 64, 47
1, 973894, Control_c, 0, 64, 42
1, 973932, Control_c, 0, 64, 35
1, 974044, Control_c, 0, 64, 31
1, 974133, Poly_aftertouch_c, 0, 74, 28
1, 974138, Note_on_c, 0, 74, 57
1, 974145, Poly_aftertouch_c, 0, 62, 28
1, 974146, Poly_aftertouch_c, 0, 67, 28
1, 974151, Note_on_c, 0, 59, 34
1, 974153, Note_on_c, 0, 62, 34
1, 974154, Note_on_c, 0, 67, 35
1, 974154, Poly_aftertouch_c, 0, 55, 28
1, 974154, Poly_aftertouch_c, 0, 59, 28
1, 974155, Poly_aftertouch_c, 0, 71, 28
1, 974159, Note_on_c, 0, 71, 49
1, 974160, Note_on_c, 0, 55, 32
1, 974212, Control_c, 0, 64, 36
1, 974231, Control_c, 0, 64, 41
1, 974250, Control_c, 0, 64, 50
1, 974268, Control_c, 0, 64, 61
1, 974287, Control_c, 0, 64, 69
1, 974307, Control_c, 0, 64, 74
1, 974325, Control_c, 0, 64, 80
1, 974343, Control_c, 0, 64, 86
1, 974362, Control_c, 0, 64, 93
1, 974381, Control_c, 0, 64, 99
1, 974400, Control_c, 0, 64, 104
1, 974437, Note_off_c, 0, 55, 40
1, 974443, Poly_aftertouch_c, 0, 75, 28
1, 974448, Note_on_c, 0, 75, 63
1, 974458, Poly_aftertouch_c, 0, 54, 28
1, 974466, Note_on_c, 0, 54, 51
1, 974484, Note_off_c, 0, 62, 38
1, 974490, Note_off_c, 0, 74, 51
1, 974492, Control_c, 0, 64, 97
1, 974512, Control_c, 0, 64, 89
1, 974520, Note_off_c, 0, 59, 38
1, 974521, Note_off_c, 0, 67, 34
1, 974531, Control_c, 0, 64, 79
1, 974534, Note_off_c, 0, 71, 55
1, 974549, Control_c, 0, 64, 70
1, 974568, Control_c, 0, 64, 62
1, 974579, Note_off_c, 0, 54, 60
1, 974586, Control_c, 0, 64, 56
1, 974591, Note_off_c, 0, 75, 59
1, 974605, Control_c, 0, 64, 52
1, 974624, Control_c, 0, 64, 49
1, 974643, Control_c, 0, 64, 46
1, 974663, Control_c, 0, 64, 43
1, 974680, Control_c, 0, 64, 40
1, 974699, Control_c, 0, 67, 123
1, 974720, Control_c, 0, 67, 119
1, 974736, Control_c, 0, 67, 115
1, 974756, Control_c, 0, 67, 111
1, 974794, Control_c, 0, 67, 105
1, 974995, Poly_aftertouch_c, 0, 83, 28
1, 974998, Note_on_c, 0, 83, 71
1, 975001, Note_on_c, 0, 74, 63
1, 975001, Poly_aftertouch_c, 0, 50, 28
1, 975002, Poly_aftertouch_c, 0, 55, 28
1, 975004, Note_on_c, 0, 79, 67
1, 975005, Poly_aftertouch_c, 0, 74, 28
1, 975006, Poly_aftertouch_c, 0, 79, 28
1, 975011, Note_on_c, 0, 50, 46
1, 975011, Note_on_c, 0, 55, 48
1, 975014, Note_on_c, 0, 47, 43
1, 975014, Poly_aftertouch_c, 0, 47, 28
1, 975111, Control_c, 0, 64, 46
1, 975130, Control_c, 0, 64, 53
1, 975148, Control_c, 0, 64, 61
1, 975167, Control_c, 0, 64, 66
1, 975186, Control_c, 0, 64, 71
1, 975204, Control_c, 0, 64, 75
1, 975222, Control_c, 0, 64, 79
1, 975242, Control_c, 0, 64, 82
1, 975264, Note_off_c, 0, 47, 34
1, 975275, Note_off_c, 0, 83, 54
1, 975279, Poly_aftertouch_c, 0, 73, 28
1, 975286, Note_on_c, 0, 73, 74
1, 975290, Poly_aftertouch_c, 0, 57, 28
1, 975295, Note_on_c, 0, 57, 57
1, 975296, Control_c, 0, 64, 80
1, 975316, Control_c, 0, 64, 76
1, 975323, Note_off_c, 0, 50, 35
1, 975336, Control_c, 0, 64, 72
1, 975346, Note_off_c, 0, 55, 50
1, 975354, Control_c, 0, 64, 67
1, 975372, Control_c, 0, 64, 63
1, 975380, Note_off_c, 0, 79, 49
1, 975392, Control_c, 0, 64, 59
1, 975404, Note_off_c, 0, 57, 57
1, 975406, Note_off_c, 0, 74, 50
1, 975410, Control_c, 0, 64, 55
1, 975422, Note_off_c, 0, 73, 57
1, 975429, Control_c, 0, 64, 50
1, 975448, Control_c, 0, 64, 46
1, 975468, Control_c, 0, 64, 42
1, 975485, Control_c, 0, 64, 38
1, 975504, Control_c, 0, 64, 34
1, 975616, Control_c, 0, 64, 30
1, 975807, Poly_aftertouch_c, 0, 74, 28
1, 975814, Note_on_c, 0, 74, 75
1, 975815, Poly_aftertouch_c, 0, 71, 28
1, 975822, Note_on_c, 0, 71, 62
1, 975824, Note_on_c, 0, 67, 62
1, 975824, Poly_aftertouch_c, 0, 67, 28
1, 975828, Note_on_c, 0, 59, 45
1, 975830, Poly_aftertouch_c, 0, 59, 28
1, 975830, Poly_aftertouch_c, 0, 62, 28
1, 975836, Note_on_c, 0, 62, 49
1, 975837, Poly_aftertouch_c, 0, 55, 28
1, 975844, Note_on_c, 0, 55, 43
1, 975877, Control_c, 0, 64, 39
1, 975897, Control_c, 0, 64, 47
1, 975916, Control_c, 0, 64, 59
1, 975934, Control_c, 0, 64, 67
1, 975953, Control_c, 0, 64, 74
1, 975971, Control_c, 0, 64, 81
1, 975992, Control_c, 0, 64, 90
1, 976009, Control_c, 0, 64, 99
1, 976028, Control_c, 0, 64, 106
1, 976103, Control_c, 0, 64, 95
1, 976111, Note_off_c, 0, 67, 37
1, 976115, Note_off_c, 0, 55, 57
1, 976122, Control_c, 0, 64, 87
1, 976126, Poly_aftertouch_c, 0, 75, 28
1, 976131, Note_off_c, 0, 62, 31
1, 976134, Note_on_c, 0, 75, 72
1, 976138, Poly_aftertouch_c, 0, 54, 28
1, 976140, Note_on_c, 0, 54, 54
1, 976140, Control_c, 0, 64, 78
1, 976159, Control_c, 0, 64, 69
1, 976165, Note_off_c, 0, 74, 55
1, 976169, Note_off_c, 0, 59, 35
1, 976173, Note_off_c, 0, 71, 50
1, 976178, Control_c, 0, 64, 61
1, 976197, Control_c, 0, 64, 55
1, 976215, Control_c, 0, 64, 50
1, 976234, Control_c, 0, 64, 46
1, 976235, Control_c, 0, 67, 109
1, 976252, Control_c, 0, 64, 43
1, 976267, Note_off_c, 0, 54, 60
1, 976289, Control_c, 0, 64, 35
1, 976302, Note_off_c, 0, 75, 62
1, 976308, Control_c, 0, 64, 31
1, 976329, Control_c, 0, 64, 27
1, 976364, Control_c, 0, 64, 20
1, 976402, Control_c, 0, 64, 13
1, 976421, Control_c, 0, 67, 113
1, 976439, Control_c, 0, 64, 9
1, 976476, Control_c, 0, 67, 119
1, 976515, Control_c, 0, 67, 127
1, 976745, Poly_aftertouch_c, 0, 79, 28
1, 976745, Poly_aftertouch_c, 0, 82, 28
1, 976753, Note_on_c, 0, 79, 48
1, 976756, Note_on_c, 0, 82, 56
1, 976756, Poly_aftertouch_c, 0, 46, 28
1, 976762, Poly_aftertouch_c, 0, 55, 28
1, 976765, Poly_aftertouch_c, 0, 73, 28
1, 976766, Note_on_c, 0, 46, 38
1, 976769, Note_on_c, 0, 55, 41
1, 976773, Note_on_c, 0, 73, 48
1, 976782, Poly_aftertouch_c, 0, 52, 28
1, 976785, Note_on_c, 0, 52, 42
1, 976814, Control_c, 0, 64, 14
1, 976833, Control_c, 0, 64, 20
1, 976852, Control_c, 0, 64, 27
1, 976871, Control_c, 0, 64, 38
1, 976889, Control_c, 0, 64, 57
1, 976908, Control_c, 0, 64, 73
1, 976927, Control_c, 0, 64, 89
1, 976945, Control_c, 0, 64, 114
1, 976959, Note_off_c, 0, 46, 56
1, 976962, Control_c, 0, 64, 127
1, 977004, Note_off_c, 0, 82, 38
1, 977091, Note_off_c, 0, 79, 35
1, 977144, Poly_aftertouch_c, 0, 67, 28
1, 977149, Note_on_c, 0, 67, 48
1, 977152, Note_off_c, 0, 52, 25
1, 977159, Poly_aftertouch_c, 0, 61, 28
1, 977163, Note_on_c, 0, 61, 46
1, 977207, Note_off_c, 0, 55, 37
1, 977225, Control_c, 0, 64, 119
1, 977245, Control_c, 0, 64, 113
1, 977263, Control_c, 0, 64, 109
1, 977268, Note_off_c, 0, 67, 51
1, 977292, Note_off_c, 0, 61, 45
1, 977293, Note_off_c, 0, 73, 42
1, 977300, Control_c, 0, 64, 102
1, 977339, Control_c, 0, 64, 96
1, 977376, Control_c, 0, 64, 92
1, 977412, Control_c, 0, 64, 88
1, 977432, Control_c, 0, 64, 86
1, 977450, Control_c, 0, 64, 83
1, 977470, Control_c, 0, 64, 80
1, 977488, Control_c, 0, 64, 76
1, 977508, Control_c, 0, 64, 72
1, 977526, Control_c, 0, 64, 68
1, 977545, Control_c, 0, 64, 64
1, 977563, Control_c, 0, 64, 60
1, 977582, Control_c, 0, 64, 57
1, 977601, Control_c, 0, 64, 53
1, 977619, Control_c, 0, 64, 49
1, 977638, Control_c, 0, 64, 45
1, 977657, Control_c, 0, 64, 40
1, 977676, Control_c, 0, 64, 36
1, 977713, Control_c, 0, 64, 29
1, 977784, Poly_aftertouch_c, 0, 72, 28
1, 977789, Note_on_c, 0, 72, 60
1, 977790, Poly_aftertouch_c, 0, 57, 28
1, 977792, Poly_aftertouch_c, 0, 65, 28
1, 977796, Note_on_c, 0, 57, 38
1, 977797, Poly_aftertouch_c, 0, 60, 28
1, 977803, Note_on_c, 0, 65, 32
1, 977804, Note_on_c, 0, 60, 38
1, 977806, Poly_aftertouch_c, 0, 69, 28
1, 977809, Note_on_c, 0, 69, 41
1, 977810, Poly_aftertouch_c, 0, 53, 28
1, 977817, Note_on_c, 0, 53, 38
1, 977938, Control_c, 0, 64, 40
1, 977957, Control_c, 0, 64, 51
1, 977974, Note_off_c, 0, 60, 55
1, 977974, Control_c, 0, 64, 63
1, 977994, Control_c, 0, 64, 71
1, 978012, Control_c, 0, 64, 76
1, 978031, Control_c, 0, 64, 80
1, 978049, Control_c, 0, 64, 82
1, 978067, Note_off_c, 0, 65, 39
1, 978110, Poly_aftertouch_c, 0, 73, 28
1, 978113, Note_on_c, 0, 73, 63
1, 978114, Poly_aftertouch_c, 0, 52, 28
1, 978115, Note_off_c, 0, 53, 43
1, 978118, Note_on_c, 0, 52, 47
1, 978124, Control_c, 0, 67, 123
1, 978131, Note_off_c, 0, 72, 58
1, 978144, Note_off_c, 0, 57, 33
1, 978182, Control_c, 0, 67, 119
1, 978202, Note_off_c, 0, 69, 35
1, 978221, Control_c, 0, 64, 79
1, 978222, Control_c, 0, 67, 114
1, 978228, Note_off_c, 0, 52, 46
1, 978237, Control_c, 0, 64, 76
1, 978256, Control_c, 0, 64, 73
1, 978275, Control_c, 0, 64, 69
1, 978276, Control_c, 0, 67, 109
1, 978279, Note_off_c, 0, 73, 52
1, 978293, Control_c, 0, 64, 65
1, 978313, Control_c, 0, 64, 61
1, 978331, Control_c, 0, 64, 58
1, 978332, Control_c, 0, 67, 105
1, 978349, Control_c, 0, 64, 54
1, 978370, Control_c, 0, 64, 50
1, 978387, Control_c, 0, 64, 45
1, 978405, Control_c, 0, 64, 41
1, 978442, Control_c, 0, 64, 35
1, 978536, Control_c, 0, 64, 31
1, 978649, Poly_aftertouch_c, 0, 57, 28
1, 978651, Poly_aftertouch_c, 0, 72, 28
1, 978654, Note_on_c, 0, 72, 73
1, 978658, Note_on_c, 0, 57, 44
1, 978658, Poly_aftertouch_c, 0, 60, 28
1, 978665, Note_on_c, 0, 60, 42
1, 978666, Note_on_c, 0, 69, 63
1, 978668, Note_on_c, 0, 53, 46
1, 978670, Note_on_c, 0, 65, 51
1, 978670, Poly_aftertouch_c, 0, 53, 28
1, 978670, Poly_aftertouch_c, 0, 65, 28
1, 978670, Poly_aftertouch_c, 0, 69, 28
1, 978799, Control_c, 0, 64, 38
1, 978816, Control_c, 0, 64, 48
1, 978836, Control_c, 0, 64, 62
1, 978854, Control_c, 0, 64, 73
1, 978865, Note_off_c, 0, 60, 49
1, 978874, Control_c, 0, 64, 84
1, 978892, Control_c, 0, 64, 93
1, 978902, Note_off_c, 0, 65, 58
1, 978909, Control_c, 0, 64, 98
1, 978963, Poly_aftertouch_c, 0, 52, 28
1, 978965, Poly_aftertouch_c, 0, 74, 28
1, 978969, Note_on_c, 0, 74, 75
1, 978971, Note_on_c, 0, 52, 56
1, 978976, Note_off_c, 0, 53, 54
1, 978999, Note_off_c, 0, 72, 54
1, 979004, Control_c, 0, 64, 91
1, 979023, Control_c, 0, 64, 85
1, 979025, Control_c, 0, 67, 101
1, 979040, Note_off_c, 0, 69, 51
1, 979040, Control_c, 0, 64, 79
1, 979062, Note_off_c, 0, 57, 33
1, 979062, Control_c, 0, 64, 73
1, 979062, Control_c, 0, 67, 97
1, 979080, Control_c, 0, 64, 69
1, 979085, Note_off_c, 0, 52, 59
1, 979098, Control_c, 0, 64, 65
1, 979116, Control_c, 0, 64, 62
1, 979117, Control_c, 0, 67, 93
1, 979118, Note_off_c, 0, 74, 56
1, 979136, Control_c, 0, 64, 59
1, 979155, Control_c, 0, 64, 56
1, 979173, Control_c, 0, 64, 53
1, 979192, Control_c, 0, 64, 50
1, 979210, Control_c, 0, 64, 47
1, 979229, Control_c, 0, 64, 44
1, 979247, Control_c, 0, 64, 41
1, 979284, Control_c, 0, 64, 37
1, 979342, Control_c, 0, 64, 33
1, 979343, Control_c, 0, 67, 88
1, 979379, Control_c, 0, 67, 81
1, 979416, Control_c, 0, 67, 77
1, 979483, Poly_aftertouch_c, 0, 77, 28
1, 979484, Poly_aftertouch_c, 0, 81, 28
1, 979487, Note_on_c, 0, 77, 73
1, 979487, Note_on_c, 0, 81, 78
1, 979489, Poly_aftertouch_c, 0, 45, 28
1, 979490, Poly_aftertouch_c, 0, 48, 28
1, 979491, Control_c, 0, 64, 29
1, 979495, Note_on_c, 0, 48, 45
1, 979495, Poly_aftertouch_c, 0, 72, 28
1, 979497, Note_on_c, 0, 45, 42
1, 979500, Poly_aftertouch_c, 0, 53, 28
1, 979502, Note_on_c, 0, 72, 65
1, 979503, Note_on_c, 0, 53, 51
1, 979621, Control_c, 0, 64, 37
1, 979641, Control_c, 0, 64, 46
1, 979659, Control_c, 0, 64, 60
1, 979678, Control_c, 0, 64, 70
1, 979696, Control_c, 0, 64, 79
1, 979715, Control_c, 0, 64, 88
1, 979735, Control_c, 0, 64, 95
1, 979752, Control_c, 0, 64, 99
1, 979799, Note_off_c, 0, 48, 34
1, 979803, Note_off_c, 0, 45, 32
1, 979814, Poly_aftertouch_c, 0, 71, 28
1, 979817, Note_on_c, 0, 71, 77
1, 979821, Note_off_c, 0, 81, 51
1, 979825, Poly_aftertouch_c, 0, 56, 28
1, 979829, Note_on_c, 0, 56, 63
1, 979837, Note_off_c, 0, 53, 60
1, 979884, Note_off_c, 0, 72, 49
1, 979888, Note_off_c, 0, 77, 55
1, 979940, Control_c, 0, 64, 91
1, 979941, Note_off_c, 0, 71, 54
1, 979959, Control_c, 0, 64, 86
1, 979975, Note_off_c, 0, 56, 51
1, 979977, Control_c, 0, 64, 80
1, 979996, Control_c, 0, 64, 73
1, 980016, Control_c, 0, 64, 67
1, 980033, Control_c, 0, 64, 61
1, 980053, Control_c, 0, 64, 57
1, 980071, Control_c, 0, 64, 54
1, 980090, Control_c, 0, 64, 51
1, 980109, Control_c, 0, 64, 47
1, 980127, Control_c, 0, 64, 42
1, 980147, Control_c, 0, 64, 38
1, 980184, Control_c, 0, 64, 33
1, 980278, Control_c, 0, 64, 28
1, 980334, Control_c, 0, 64, 24
1, 980365, Poly_aftertouch_c, 0, 72, 28
1, 980365, Poly_aftertouch_c, 0, 77, 28
1, 980367, Note_on_c, 0, 77, 80
1, 980369, Note_on_c, 0, 72, 78
1, 980372, Poly_aftertouch_c, 0, 53, 28
1, 980373, Poly_aftertouch_c, 0, 57, 28
1, 980373, Control_c, 0, 64, 18
1, 980375, Note_on_c, 0, 69, 74
1, 980377, Note_on_c, 0, 53, 57
1, 980378, Note_on_c, 0, 57, 56
1, 980378, Poly_aftertouch_c, 0, 69, 28
1, 980393, Poly_aftertouch_c, 0, 48, 28
1, 980399, Note_on_c, 0, 48, 44
1, 980408, Control_c, 0, 64, 12
1, 980501, Control_c, 0, 64, 0
1, 980709, Poly_aftertouch_c, 0, 67, 28
1, 980713, Note_on_c, 0, 67, 80
1, 980721, Note_on_c, 0, 59, 70
1, 980722, Poly_aftertouch_c, 0, 59, 28
1, 980729, Note_off_c, 0, 77, 59
1, 980746, Control_c, 0, 64, 8
1, 980747, Note_off_c, 0, 48, 37
1, 980748, Note_off_c, 0, 69, 52
1, 980763, Control_c, 0, 64, 20
1, 980783, Control_c, 0, 64, 36
1, 980802, Control_c, 0, 64, 62
1, 980805, Note_off_c, 0, 57, 48
1, 980810, Note_off_c, 0, 53, 52
1, 980820, Control_c, 0, 64, 85
1, 980822, Note_off_c, 0, 72, 50
1, 980838, Control_c, 0, 64, 127
1, 980854, Note_off_c, 0, 67, 59
1, 980871, Note_off_c, 0, 59, 55
1, 981213, Control_c, 0, 67, 73
1, 981250, Control_c, 0, 67, 66
1, 981381, Control_c, 0, 64, 122
1, 981400, Control_c, 0, 64, 111
1, 981420, Control_c, 0, 64, 102
1, 981428, Poly_aftertouch_c, 0, 65, 28
1, 981430, Note_on_c, 0, 65, 81
1, 981437, Control_c, 0, 64, 91
1, 981439, Poly_aftertouch_c, 0, 53, 28
1, 981440, Poly_aftertouch_c, 0, 57, 28
1, 981440, Poly_aftertouch_c, 0, 60, 28
1, 981443, Note_on_c, 0, 60, 66
1, 981446, Note_on_c, 0, 53, 42
1, 981446, Note_on_c, 0, 72, 73
1, 981447, Note_on_c, 0, 69, 78
1, 981449, Note_on_c, 0, 57, 56
1, 981449, Poly_aftertouch_c, 0, 69, 28
1, 981449, Poly_aftertouch_c, 0, 72, 28
1, 981455, Control_c, 0, 64, 80
1, 981476, Control_c, 0, 64, 69
1, 981493, Control_c, 0, 64, 60
1, 981513, Control_c, 0, 64, 53
1, 981531, Control_c, 0, 64, 48
1, 981551, Control_c, 0, 64, 43
1, 981568, Control_c, 0, 64, 38
1, 981588, Control_c, 0, 64, 32
1, 981606, Control_c, 0, 64, 26
1, 981624, Control_c, 0, 64, 22
1, 981719, Control_c, 0, 64, 17
1, 981869, Control_c, 0, 64, 13
1, 981942, Poly_aftertouch_c, 0, 64, 28
1, 981942, Control_c, 0, 64, 9
1, 981945, Note_on_c, 0, 64, 89
1, 982022, Note_off_c, 0, 65, 61
1, 982042, Poly_aftertouch_c, 0, 71, 28
1, 982043, Poly_aftertouch_c, 0, 71, 0
1, 982055, Control_c, 0, 64, 0
1, 982599, Control_c, 0, 67, 70
1, 982766, Control_c, 0, 67, 75
1, 982823, Control_c, 0, 67, 79
1, 982860, Control_c, 0, 67, 83
1, 982916, Control_c, 0, 67, 89
1, 982954, Control_c, 0, 67, 94
1, 982991, Control_c, 0, 67, 100
1, 983048, Control_c, 0, 67, 104
1, 983133, Poly_aftertouch_c, 0, 63, 28
1, 983138, Note_on_c, 0, 63, 64
1, 983149, Poly_aftertouch_c, 0, 54, 28
1, 983156, Note_on_c, 0, 54, 48
1, 983160, Control_c, 0, 67, 108
1, 983207, Note_off_c, 0, 53, 58
1, 983403, Control_c, 0, 64, 14
1, 983409, Note_off_c, 0, 63, 19
1, 983422, Control_c, 0, 64, 26
1, 983440, Control_c, 0, 64, 43
1, 983459, Control_c, 0, 64, 63
1, 983478, Control_c, 0, 64, 76
1, 983496, Control_c, 0, 64, 89
1, 983516, Control_c, 0, 64, 103
1, 983534, Control_c, 0, 64, 127
1, 983590, Note_off_c, 0, 64, 29
1, 983644, Note_off_c, 0, 72, 53
1, 983651, Note_off_c, 0, 57, 60
1, 984002, Control_c, 0, 67, 114
1, 984021, Control_c, 0, 67, 119
1, 984038, Control_c, 0, 67, 124
1, 984171, Control_c, 0, 64, 105
1, 984176, Poly_aftertouch_c, 0, 72, 28
1, 984179, Note_on_c, 0, 72, 52
1, 984181, Poly_aftertouch_c, 0, 57, 28
1, 984187, Note_on_c, 0, 57, 44
1, 984188, Control_c, 0, 64, 74
1, 984189, Poly_aftertouch_c, 0, 69, 24
1, 984208, Note_off_c, 0, 69, 52
1, 984208, Control_c, 0, 64, 51
1, 984227, Control_c, 0, 64, 37
1, 984238, Note_off_c, 0, 60, 48
1, 984264, Control_c, 0, 64, 44
1, 984283, Control_c, 0, 64, 57
1, 984301, Control_c, 0, 64, 70
1, 984320, Control_c, 0, 64, 88
1, 984339, Control_c, 0, 64, 127
1, 984523, Poly_aftertouch_c, 0, 71, 28
1, 984527, Note_on_c, 0, 71, 56
1, 984529, Poly_aftertouch_c, 0, 59, 28
1, 984535, Note_on_c, 0, 59, 46
1, 984545, Control_c, 0, 64, 82
1, 984562, Note_off_c, 0, 72, 50
1, 984563, Control_c, 0, 64, 58
1, 984583, Control_c, 0, 64, 35
1, 984601, Control_c, 0, 64, 22
1, 984663, Note_off_c, 0, 57, 36
1, 984676, Control_c, 0, 64, 32
1, 984696, Control_c, 0, 64, 48
1, 984713, Control_c, 0, 64, 67
1, 984733, Control_c, 0, 64, 84
1, 984751, Control_c, 0, 64, 108
1, 984769, Control_c, 0, 64, 127
1, 985481, Poly_aftertouch_c, 0, 71, 24
1, 985529, Note_off_c, 0, 71, 37
1, 986157, Poly_aftertouch_c, 0, 70, 28
1, 986169, Note_on_c, 0, 70, 34
1, 986170, Poly_aftertouch_c, 0, 61, 28
1, 986173, Control_c, 0, 64, 107
1, 986175, Note_on_c, 0, 61, 39
1, 986180, Poly_aftertouch_c, 0, 64, 28
1, 986187, Note_on_c, 0, 64, 32
1, 986190, Control_c, 0, 64, 91
1, 986211, Control_c, 0, 64, 75
1, 986217, Poly_aftertouch_c, 0, 59, 24
1, 986230, Control_c, 0, 64, 58
1, 986241, Note_off_c, 0, 59, 45
1, 986247, Control_c, 0, 64, 41
1, 986267, Control_c, 0, 64, 24
1, 986286, Control_c, 0, 64, 13
1, 986305, Control_c, 0, 64, 9
1, 986436, Control_c, 0, 64, 13
1, 986454, Control_c, 0, 64, 21
1, 986473, Control_c, 0, 64, 32
1, 986492, Control_c, 0, 64, 48
1, 986510, Control_c, 0, 64, 66
1, 986531, Control_c, 0, 64, 78
1, 986548, Control_c, 0, 64, 90
1, 986566, Control_c, 0, 64, 100
1, 986585, Control_c, 0, 64, 110
1, 986604, Control_c, 0, 64, 127
1, 986667, Note_off_c, 0, 61, 34
1, 986740, Note_off_c, 0, 54, 50
1, 986808, Note_off_c, 0, 70, 37
1, 986967, Note_off_c, 0, 64, 39
1, 987516, Poly_aftertouch_c, 0, 35, 28
1, 987523, Note_on_c, 0, 35, 33
1, 987615, Control_c, 0, 64, 111
1, 987635, Control_c, 0, 64, 84
1, 987648, Poly_aftertouch_c, 0, 64, 28
1, 987650, Note_on_c, 0, 64, 60
1, 987652, Control_c, 0, 64, 63
1, 987655, Poly_aftertouch_c, 0, 70, 28
1, 987663, Note_on_c, 0, 70, 45
1, 987669, Control_c, 0, 64, 44
1, 987690, Control_c, 0, 64, 30
1, 987784, Control_c, 0, 64, 39
1, 987802, Control_c, 0, 64, 55
1, 987821, Control_c, 0, 64, 72
1, 987840, Control_c, 0, 64, 89
1, 987857, Control_c, 0, 64, 127
1, 987943, Note_off_c, 0, 70, 48
1, 988125, Poly_aftertouch_c, 0, 35, 24
1, 988195, Poly_aftertouch_c, 0, 42, 28
1, 988203, Note_off_c, 0, 35, 27
1, 988203, Note_on_c, 0, 42, 29
1, 988318, Poly_aftertouch_c, 0, 73, 28
1, 988326, Note_on_c, 0, 73, 34
1, 988485, Note_off_c, 0, 64, 36
1, 989121, Poly_aftertouch_c, 0, 47, 28
1, 989129, Note_on_c, 0, 47, 36
1, 989206, Control_c, 0, 64, 87
1, 989226, Control_c, 0, 64, 67
1, 989236, Poly_aftertouch_c, 0, 63, 28
1, 989244, Note_on_c, 0, 63, 56
1, 989244, Control_c, 0, 64, 54
1, 989280, Control_c, 0, 64, 56
1, 989300, Control_c, 0, 64, 61
1, 989317, Control_c, 0, 64, 67
1, 989337, Control_c, 0, 64, 74
1, 989355, Control_c, 0, 64, 85
1, 989375, Control_c, 0, 64, 104
1, 989393, Control_c, 0, 64, 127
1, 989569, Poly_aftertouch_c, 0, 51, 28
1, 989577, Note_on_c, 0, 51, 34
1, 989599, Control_c, 0, 64, 98
1, 989614, Poly_aftertouch_c, 0, 66, 28
1, 989617, Control_c, 0, 64, 71
1, 989620, Note_on_c, 0, 66, 68
1, 989637, Control_c, 0, 64, 49
1, 989643, Note_off_c, 0, 73, 50
1, 989655, Control_c, 0, 64, 31
1, 989674, Control_c, 0, 64, 22
1, 989730, Control_c, 0, 64, 27
1, 989749, Control_c, 0, 64, 39
1, 989768, Control_c, 0, 64, 59
1, 989781, Note_off_c, 0, 47, 41
1, 989785, Control_c, 0, 64, 81
1, 989804, Control_c, 0, 64, 127
1, 989857, Poly_aftertouch_c, 0, 51, 24
1, 989871, Note_off_c, 0, 66, 59
1, 989897, Note_off_c, 0, 42, 50
1, 989898, Note_off_c, 0, 51, 42
1, 990274, Poly_aftertouch_c, 0, 35, 28
1, 990282, Note_on_c, 0, 35, 33
1, 990293, Poly_aftertouch_c, 0, 71, 28
1, 990300, Note_on_c, 0, 71, 45
1, 990326, Note_off_c, 0, 35, 52
1, 990615, Poly_aftertouch_c, 0, 44, 28
1, 990616, Poly_aftertouch_c, 0, 75, 28
1, 990623, Note_on_c, 0, 44, 34
1, 990629, Note_on_c, 0, 75, 46
1, 990873, Note_off_c, 0, 63, 50
1, 991134, Poly_aftertouch_c, 0, 47, 28
1, 991135, Poly_aftertouch_c, 0, 64, 28
1, 991140, Note_on_c, 0, 64, 65
1, 991143, Note_on_c, 0, 47, 38
1, 991171, Control_c, 0, 64, 84
1, 991190, Control_c, 0, 64, 58
1, 991209, Control_c, 0, 64, 39
1, 991228, Control_c, 0, 64, 34
1, 991266, Control_c, 0, 64, 41
1, 991283, Control_c, 0, 64, 53
1, 991303, Control_c, 0, 64, 68
1, 991321, Control_c, 0, 64, 83
1, 991340, Control_c, 0, 64, 114
1, 991358, Control_c, 0, 64, 127
1, 991445, Poly_aftertouch_c, 0, 68, 28
1, 991452, Note_on_c, 0, 68, 74
1, 991474, Poly_aftertouch_c, 0, 52, 28
1, 991480, Note_on_c, 0, 52, 39
1, 991490, Note_off_c, 0, 71, 40
1, 991522, Note_off_c, 0, 75, 34
1, 991562, Note_off_c, 0, 47, 39
1, 991570, Poly_aftertouch_c, 0, 44, 24
1, 991623, Note_off_c, 0, 44, 37
1, 991663, Note_off_c, 0, 68, 58
1, 991709, Note_off_c, 0, 52, 39
1, 991768, Note_off_c, 0, 64, 59
1, 992076, Poly_aftertouch_c, 0, 35, 28
1, 992081, Note_on_c, 0, 35, 37
1, 992103, Poly_aftertouch_c, 0, 60, 28
1, 992109, Note_on_c, 0, 60, 49
1, 992418, Poly_aftertouch_c, 0, 63, 28
1, 992426, Note_on_c, 0, 63, 50
1, 992441, Poly_aftertouch_c, 0, 41, 28
1, 992444, Control_c, 0, 64, 104
1, 992446, Note_on_c, 0, 41, 34
1, 992463, Control_c, 0, 64, 76
1, 992481, Control_c, 0, 64, 57
1, 992501, Control_c, 0, 64, 52
1, 992538, Control_c, 0, 64, 59
1, 992556, Control_c, 0, 64, 65
1, 992576, Control_c, 0, 64, 73
1, 992593, Control_c, 0, 64, 84
1, 992613, Control_c, 0, 64, 106
1, 992631, Control_c, 0, 64, 127
1, 992942, Note_off_c, 0, 60, 52
1, 992955, Poly_aftertouch_c, 0, 44, 28
1, 992961, Note_on_c, 0, 44, 38
1, 993024, Control_c, 0, 64, 92
1, 993044, Control_c, 0, 64, 68
1, 993053, Poly_aftertouch_c, 0, 53, 28
1, 993059, Note_on_c, 0, 53, 60
1, 993061, Control_c, 0, 64, 50
1, 993080, Control_c, 0, 64, 44
1, 993118, Control_c, 0, 64, 50
1, 993137, Control_c, 0, 64, 60
1, 993155, Control_c, 0, 64, 70
1, 993175, Control_c, 0, 64, 84
1, 993193, Control_c, 0, 64, 108
1, 993211, Control_c, 0, 64, 127
1, 993442, Poly_aftertouch_c, 0, 47, 28
1, 993455, Control_c, 0, 64, 122
1, 993476, Control_c, 0, 64, 88
1, 993478, Poly_aftertouch_c, 0, 56, 28
1, 993483, Note_off_c, 0, 53, 58
1, 993485, Note_on_c, 0, 56, 59
1, 993491, Poly_aftertouch_c, 0, 47, 127
1, 993491, Control_c, 0, 64, 65
1, 993511, Control_c, 0, 64, 46
1, 993530, Control_c, 0, 64, 33
1, 993532, Note_off_c, 0, 44, 39
1, 993624, Control_c, 0, 64, 47
1, 993642, Control_c, 0, 64, 64
1, 993652, Poly_aftertouch_c, 0, 41, 24
1, 993661, Control_c, 0, 64, 83
1, 993680, Control_c, 0, 64, 127
1, 993700, Poly_aftertouch_c, 0, 35, 24
1, 993708, Note_off_c, 0, 41, 36
1, 993743, Note_off_c, 0, 63, 57
1, 993782, Note_off_c, 0, 35, 26
1, 994092, Poly_aftertouch_c, 0, 35, 28
1, 994099, Note_on_c, 0, 35, 30
1, 994130, Control_c, 0, 64, 89
1, 994148, Control_c, 0, 64, 66
1, 994152, Poly_aftertouch_c, 0, 61, 28
1, 994159, Note_on_c, 0, 61, 40
1, 994167, Control_c, 0, 64, 51
1, 994186, Control_c, 0, 64, 47
1, 994204, Control_c, 0, 64, 49
1, 994220, Poly_aftertouch_c, 0, 47, 0
1, 994222, Control_c, 0, 64, 55
1, 994242, Control_c, 0, 64, 63
1, 994260, Control_c, 0, 64, 72
1, 994279, Control_c, 0, 64, 84
1, 994298, Control_c, 0, 64, 108
1, 994316, Control_c, 0, 64, 127
1, 994451, Note_off_c, 0, 61, 53
1, 994474, Poly_aftertouch_c, 0, 59, 28
1, 994478, Note_on_c, 0, 59, 43
1, 994479, Poly_aftertouch_c, 0, 40, 28
1, 994484, Control_c, 0, 64, 96
1, 994486, Note_on_c, 0, 40, 36
1, 994504, Control_c, 0, 64, 70
1, 994523, Control_c, 0, 64, 50
1, 994540, Control_c, 0, 64, 35
1, 994561, Control_c, 0, 64, 30
1, 994634, Control_c, 0, 64, 34
1, 994654, Control_c, 0, 64, 45
1, 994671, Control_c, 0, 64, 61
1, 994677, Note_off_c, 0, 35, 39
1, 994691, Control_c, 0, 64, 76
1, 994710, Control_c, 0, 64, 93
1, 994728, Control_c, 0, 64, 127
1, 995158, Control_c, 0, 64, 99
1, 995178, Control_c, 0, 64, 73
1, 995189, Poly_aftertouch_c, 0, 54, 28
1, 995195, Control_c, 0, 64, 55
1, 995197, Note_on_c, 0, 54, 42
1, 995198, Poly_aftertouch_c, 0, 40, 24
1, 995203, Poly_aftertouch_c, 0, 43, 28
1, 995212, Note_on_c, 0, 43, 24
1, 995213, Control_c, 0, 64, 47
1, 995226, Note_off_c, 0, 40, 44
1, 995235, Note_off_c, 0, 56, 56
1, 995253, Control_c, 0, 64, 51
1, 995270, Control_c, 0, 64, 59
1, 995289, Control_c, 0, 64, 69
1, 995308, Control_c, 0, 64, 80
1, 995328, Control_c, 0, 64, 101
1, 995345, Control_c, 0, 64, 127
1, 995383, Note_off_c, 0, 43, 53
1, 995788, Poly_aftertouch_c, 0, 52, 28
1, 995794, Note_on_c, 0, 52, 44
1, 995809, Poly_aftertouch_c, 0, 49, 28
1, 995812, Poly_aftertouch_c, 0, 47, 28
1, 995812, Control_c, 0, 64, 114
1, 995817, Note_on_c, 0, 49, 32
1, 995828, Note_on_c, 0, 47, 29
1, 995831, Control_c, 0, 64, 85
1, 995853, Control_c, 0, 64, 64
1, 995869, Control_c, 0, 64, 46
1, 995888, Control_c, 0, 64, 31
1, 995907, Control_c, 0, 64, 20
1, 995926, Control_c, 0, 64, 13
1, 995964, Control_c, 0, 64, 9
1, 996032, Note_off_c, 0, 54, 40
1, 996058, Control_c, 0, 64, 18
1, 996059, Poly_aftertouch_c, 0, 59, 24
1, 996073, Note_off_c, 0, 59, 54
1, 996074, Control_c, 0, 64, 28
1, 996094, Control_c, 0, 64, 41
1, 996113, Control_c, 0, 64, 61
1, 996132, Control_c, 0, 64, 77
1, 996151, Control_c, 0, 64, 95
1, 996169, Control_c, 0, 64, 127
1, 996265, Poly_aftertouch_c, 0, 47, 24
1, 996319, Note_off_c, 0, 47, 37
1, 996416, Poly_aftertouch_c, 0, 58, 28
1, 996428, Note_on_c, 0, 58, 37
1, 996474, Note_off_c, 0, 49, 41
1, 996569, Note_off_c, 0, 52, 48
1, 996714, Poly_aftertouch_c, 0, 70, 28
1, 996718, Note_off_c, 0, 58, 36
1, 996726, Note_on_c, 0, 70, 42
1, 997115, Poly_aftertouch_c, 0, 47, 28
1, 997122, Note_on_c, 0, 47, 47
1, 997199, Control_c, 0, 64, 112
1, 997215, Poly_aftertouch_c, 0, 73, 28
1, 997216, Control_c, 0, 64, 81
1, 997222, Note_on_c, 0, 73, 65
1, 997236, Control_c, 0, 64, 57
1, 997245, Note_off_c, 0, 70, 37
1, 997255, Control_c, 0, 64, 33
1, 997273, Control_c, 0, 64, 18
1, 997386, Control_c, 0, 64, 34
1, 997405, Control_c, 0, 64, 55
1, 997423, Control_c, 0, 64, 78
1, 997443, Control_c, 0, 64, 109
1, 997461, Control_c, 0, 64, 127
1, 997650, Note_off_c, 0, 47, 37
1, 997744, Poly_aftertouch_c, 0, 51, 28
1, 997753, Note_on_c, 0, 51, 23
1, 997852, Note_off_c, 0, 73, 46
1, 998010, Poly_aftertouch_c, 0, 63, 28
1, 998018, Note_on_c, 0, 63, 41
1, 998099, Note_off_c, 0, 63, 56
1, 998185, Poly_aftertouch_c, 0, 51, 24
1, 998224, Note_off_c, 0, 51, 43
1, 998272, Poly_aftertouch_c, 0, 66, 28
1, 998278, Note_on_c, 0, 66, 53
1, 998563, Poly_aftertouch_c, 0, 59, 28
1, 998568, Note_on_c, 0, 59, 32
1, 998605, Note_off_c, 0, 66, 35
1, 998628, Note_off_c, 0, 59, 51
1, 998677, Poly_aftertouch_c, 0, 35, 28
1, 998685, Note_on_c, 0, 35, 44
1, 998729, Note_off_c, 0, 35, 60
1, 998815, Poly_aftertouch_c, 0, 71, 28
1, 998818, Note_on_c, 0, 71, 66
1, 999057, Poly_aftertouch_c, 0, 47, 28
1, 999067, Note_on_c, 0, 47, 41
1, 999108, Control_c, 0, 64, 93
1, 999127, Poly_aftertouch_c, 0, 75, 28
1, 999127, Control_c, 0, 64, 64
1, 999131, Note_on_c, 0, 75, 78
1, 999137, Note_off_c, 0, 71, 64
1, 999145, Control_c, 0, 64, 39
1, 999166, Control_c, 0, 64, 27
1, 999219, Control_c, 0, 64, 35
1, 999239, Control_c, 0, 64, 50
1, 999257, Control_c, 0, 64, 70
1, 999277, Control_c, 0, 64, 93
1, 999295, Control_c, 0, 64, 127
1, 999396, Note_off_c, 0, 47, 39
1, 999409, Poly_aftertouch_c, 0, 52, 28
1, 999415, Note_on_c, 0, 52, 49
1, 999557, Control_c, 0, 67, 116
1, 999576, Control_c, 0, 67, 112
1, 999594, Control_c, 0, 67, 107
1, 999613, Control_c, 0, 67, 102
1, 999631, Control_c, 0, 67, 97
1, 999655, Poly_aftertouch_c, 0, 64, 28
1, 999660, Note_on_c, 0, 64, 46
1, 999669, Control_c, 0, 67, 91
1, 999706, Control_c, 0, 67, 86
1, 999737, Note_off_c, 0, 64, 51
1, 999743, Control_c, 0, 67, 80
1, 999781, Control_c, 0, 67, 76
1, 999838, Control_c, 0, 67, 72
1, 999866, Note_off_c, 0, 52, 50
1, 999895, Poly_aftertouch_c, 0, 68, 28
1, 999904, Note_on_c, 0, 68, 66
1, 999986, Note_off_c, 0, 75, 46
1, 1000158, Poly_aftertouch_c, 0, 60, 28
1, 1000164, Note_on_c, 0, 60, 44
1, 1000254, Note_off_c, 0, 68, 35
1, 1000282, Poly_aftertouch_c, 0, 35, 28
1, 1000286, Note_on_c, 0, 35, 52
1, 1000334, Note_off_c, 0, 35, 60
1, 1000336, Note_off_c, 0, 60, 32
1, 1000385, Poly_aftertouch_c, 0, 72, 28
1, 1000389, Note_on_c, 0, 72, 79
1, 1000646, Poly_aftertouch_c, 0, 47, 28
1, 1000652, Note_on_c, 0, 47, 59
1, 1000717, Poly_aftertouch_c, 0, 75, 28
1, 1000717, Control_c, 0, 64, 77
1, 1000724, Note_on_c, 0, 75, 82
1, 1000737, Control_c, 0, 64, 50
1, 1000743, Note_off_c, 0, 72, 62
1, 1000755, Control_c, 0, 64, 28
1, 1000774, Control_c, 0, 64, 20
1, 1000830, Control_c, 0, 64, 26
1, 1000849, Control_c, 0, 64, 38
1, 1000868, Control_c, 0, 64, 61
1, 1000886, Control_c, 0, 64, 86
1, 1000905, Control_c, 0, 64, 127
1, 1001021, Note_off_c, 0, 47, 38
1, 1001047, Poly_aftertouch_c, 0, 53, 28
1, 1001053, Note_on_c, 0, 53, 46
1, 1001087, Note_off_c, 0, 53, 54
1, 1001271, Poly_aftertouch_c, 0, 65, 28
1, 1001276, Note_on_c, 0, 65, 58
1, 1001368, Note_off_c, 0, 65, 57
1, 1001522, Poly_aftertouch_c, 0, 68, 28
1, 1001529, Note_on_c, 0, 68, 68
1, 1001772, Poly_aftertouch_c, 0, 61, 28
1, 1001777, Note_on_c, 0, 61, 58
1, 1001899, Note_off_c, 0, 68, 30
1, 1001924, Note_off_c, 0, 61, 54
1, 1002023, Note_off_c, 0, 75, 52
1, 1002026, Poly_aftertouch_c, 0, 35, 28
1, 1002032, Note_on_c, 0, 35, 54
1, 1002080, Note_off_c, 0, 35, 61
1, 1002119, Poly_aftertouch_c, 0, 73, 28
1, 1002121, Note_on_c, 0, 73, 90
1, 1002609, Control_c, 0, 67, 76
1, 1002703, Poly_aftertouch_c, 0, 80, 28
1, 1002710, Note_on_c, 0, 80, 86
1, 1002725, Poly_aftertouch_c, 0, 47, 28
1, 1002731, Note_on_c, 0, 47, 49
1, 1002758, Note_off_c, 0, 73, 61
1, 1002758, Control_c, 0, 64, 92
1, 1002777, Control_c, 0, 64, 64
1, 1002795, Control_c, 0, 64, 38
1, 1002815, Control_c, 0, 64, 15
1, 1002945, Control_c, 0, 64, 33
1, 1002964, Control_c, 0, 64, 61
1, 1002983, Control_c, 0, 64, 91
1, 1003001, Control_c, 0, 64, 127
1, 1003166, Note_off_c, 0, 47, 32
1, 1003190, Poly_aftertouch_c, 0, 52, 28
1, 1003195, Note_on_c, 0, 52, 50
1, 1003435, Poly_aftertouch_c, 0, 64, 28
1, 1003438, Note_on_c, 0, 64, 57
1, 1003563, Note_off_c, 0, 64, 57
1, 1003650, Poly_aftertouch_c, 0, 52, 24
1, 1003670, Poly_aftertouch_c, 0, 70, 28
1, 1003679, Note_off_c, 0, 52, 44
1, 1003680, Note_on_c, 0, 70, 60
1, 1003827, Note_off_c, 0, 80, 58
1, 1003881, Poly_aftertouch_c, 0, 78, 28
1, 1003883, Poly_aftertouch_c, 0, 78, 0
1, 1003906, Poly_aftertouch_c, 0, 66, 28
1, 1003907, Note_off_c, 0, 70, 60
1, 1003910, Note_on_c, 0, 66, 64
1, 1004072, Poly_aftertouch_c, 0, 35, 28
1, 1004073, Note_on_c, 0, 35, 50
1, 1004115, Note_off_c, 0, 35, 57
1, 1004158, Poly_aftertouch_c, 0, 78, 28
1, 1004162, Note_on_c, 0, 78, 85
1, 1004355, Note_off_c, 0, 78, 62
1, 1004400, Poly_aftertouch_c, 0, 47, 28
1, 1004407, Note_on_c, 0, 47, 51
1, 1004461, Control_c, 0, 64, 101
1, 1004476, Poly_aftertouch_c, 0, 76, 28
1, 1004479, Note_on_c, 0, 76, 88
1, 1004481, Control_c, 0, 64, 65
1, 1004489, Note_off_c, 0, 66, 56
1, 1004498, Control_c, 0, 64, 32
1, 1004573, Control_c, 0, 64, 8
1, 1004593, Control_c, 0, 64, 19
1, 1004612, Control_c, 0, 64, 37
1, 1004630, Control_c, 0, 64, 66
1, 1004649, Control_c, 0, 64, 100
1, 1004667, Control_c, 0, 64, 127
1, 1004734, Note_off_c, 0, 47, 34
1, 1004758, Poly_aftertouch_c, 0, 54, 28
1, 1004766, Note_on_c, 0, 54, 51
1, 1004809, Note_off_c, 0, 54, 58
1, 1004991, Poly_aftertouch_c, 0, 66, 28
1, 1004995, Note_on_c, 0, 66, 62
1, 1005027, Note_off_c, 0, 66, 64
1, 1005295, Poly_aftertouch_c, 0, 69, 28
1, 1005301, Note_on_c, 0, 69, 65
1, 1005303, Poly_aftertouch_c, 0, 35, 28
1, 1005303, Control_c, 0, 64, 102
1, 1005309, Note_on_c, 0, 35, 59
1, 1005323, Control_c, 0, 64, 68
1, 1005342, Control_c, 0, 64, 41
1, 1005361, Control_c, 0, 64, 23
1, 1005417, Control_c, 0, 64, 30
1, 1005434, Control_c, 0, 64, 46
1, 1005454, Control_c, 0, 64, 68
1, 1005473, Control_c, 0, 64, 91
1, 1005491, Control_c, 0, 64, 127
1, 1005495, Note_off_c, 0, 35, 59
1, 1005558, Poly_aftertouch_c, 0, 63, 28
1, 1005563, Note_on_c, 0, 63, 58
1, 1005588, Note_off_c, 0, 69, 52
1, 1005660, Note_off_c, 0, 76, 59
1, 1005756, Poly_aftertouch_c, 0, 75, 28
1, 1005761, Note_on_c, 0, 75, 83
1, 1005946, Note_off_c, 0, 75, 62
1, 1005975, Poly_aftertouch_c, 0, 47, 28
1, 1005983, Note_on_c, 0, 47, 54
1, 1006071, Control_c, 0, 64, 89
1, 1006078, Poly_aftertouch_c, 0, 72, 28
1, 1006081, Note_on_c, 0, 72, 88
1, 1006091, Control_c, 0, 64, 58
1, 1006108, Control_c, 0, 64, 29
1, 1006127, Control_c, 0, 64, 11
1, 1006144, Note_off_c, 0, 63, 55
1, 1006202, Control_c, 0, 64, 24
1, 1006221, Control_c, 0, 64, 42
1, 1006239, Control_c, 0, 64, 70
1, 1006259, Control_c, 0, 64, 107
1, 1006277, Control_c, 0, 64, 127
1, 1006318, Note_off_c, 0, 47, 38
1, 1006322, Poly_aftertouch_c, 0, 54, 28
1, 1006327, Note_on_c, 0, 54, 59
1, 1006530, Poly_aftertouch_c, 0, 64, 28
1, 1006533, Note_on_c, 0, 64, 62
1, 1006568, Note_off_c, 0, 64, 64
1, 1006594, Note_off_c, 0, 54, 61
1, 1006756, Poly_aftertouch_c, 0, 63, 28
1, 1006762, Note_on_c, 0, 63, 72
1, 1006765, Poly_aftertouch_c, 0, 35, 28
1, 1006772, Note_on_c, 0, 35, 65
1, 1006783, Control_c, 0, 64, 94
1, 1006801, Control_c, 0, 64, 72
1, 1006821, Control_c, 0, 64, 61
1, 1006822, Note_off_c, 0, 72, 49
1, 1006858, Control_c, 0, 64, 66
1, 1006876, Control_c, 0, 64, 75
1, 1006896, Control_c, 0, 64, 91
1, 1006914, Control_c, 0, 64, 127
1, 1006957, Note_off_c, 0, 35, 60
1, 1006964, Poly_aftertouch_c, 0, 66, 28
1, 1006966, Poly_aftertouch_c, 0, 66, 0
1, 1006970, Control_c, 0, 67, 71
1, 1006984, Poly_aftertouch_c, 0, 57, 28
1, 1006985, Note_on_c, 0, 57, 68
1, 1007044, Control_c, 0, 67, 65
1, 1007063, Control_c, 0, 67, 58
1, 1007082, Control_c, 0, 67, 51
1, 1007101, Control_c, 0, 67, 44
1, 1007119, Control_c, 0, 67, 39
1, 1007138, Control_c, 0, 67, 35
1, 1007175, Control_c, 0, 67, 30
1, 1007187, Poly_aftertouch_c, 0, 69, 28
1, 1007189, Note_on_c, 0, 69, 80
1, 1007216, Note_off_c, 0, 57, 36
1, 1007349, Note_off_c, 0, 63, 37
1, 1007476, Poly_aftertouch_c, 0, 48, 28
1, 1007482, Note_on_c, 0, 48, 85
1, 1007551, Control_c, 0, 64, 100
1, 1007569, Control_c, 0, 64, 68
1, 1007574, Poly_aftertouch_c, 0, 66, 28
1, 1007580, Note_on_c, 0, 66, 78
1, 1007586, Control_c, 0, 64, 36
1, 1007607, Control_c, 0, 64, 0
1, 1007622, Note_off_c, 0, 69, 54
1, 1007756, Control_c, 0, 64, 17
1, 1007774, Control_c, 0, 64, 36
1, 1007793, Control_c, 0, 64, 61
1, 1007812, Control_c, 0, 64, 79
1, 1007831, Control_c, 0, 64, 106
1, 1007851, Control_c, 0, 64, 127
1, 1007854, Poly_aftertouch_c, 0, 57, 28
1, 1007861, Note_on_c, 0, 57, 51
1, 1007897, Note_off_c, 0, 48, 37
1, 1007962, Control_c, 0, 67, 25
1, 1007999, Control_c, 0, 67, 17
1, 1008018, Control_c, 0, 67, 10
1, 1008049, Poly_aftertouch_c, 0, 64, 28
1, 1008054, Note_on_c, 0, 64, 60
1, 1008055, Control_c, 0, 67, 0
1, 1008098, Note_off_c, 0, 64, 63
1, 1008136, Note_off_c, 0, 57, 61
1, 1008257, Poly_aftertouch_c, 0, 47, 28
1, 1008262, Note_on_c, 0, 47, 85
1, 1008277, Poly_aftertouch_c, 0, 63, 28
1, 1008282, Note_on_c, 0, 63, 64
1, 1008299, Control_c, 0, 64, 82
1, 1008317, Control_c, 0, 64, 56
1, 1008337, Control_c, 0, 64, 31
1, 1008355, Control_c, 0, 64, 16
1, 1008411, Control_c, 0, 64, 20
1, 1008430, Control_c, 0, 64, 30
1, 1008449, Control_c, 0, 64, 45
1, 1008467, Control_c, 0, 64, 63
1, 1008487, Control_c, 0, 64, 77
1, 1008499, Poly_aftertouch_c, 0, 57, 28
1, 1008505, Note_on_c, 0, 57, 63
1, 1008505, Control_c, 0, 64, 97
1, 1008523, Control_c, 0, 64, 127
1, 1008578, Note_off_c, 0, 47, 60
1, 1008645, Note_off_c, 0, 57, 55
1, 1008690, Poly_aftertouch_c, 0, 69, 28
1, 1008694, Note_on_c, 0, 69, 81
1, 1008742, Note_off_c, 0, 66, 58
1, 1008746, Note_off_c, 0, 63, 57
1, 1008853, Poly_aftertouch_c, 0, 45, 28
1, 1008857, Note_on_c, 0, 45, 81
1, 1008916, Control_c, 0, 64, 102
1, 1008935, Control_c, 0, 64, 71
1, 1008951, Poly_aftertouch_c, 0, 72, 28
1, 1008953, Note_on_c, 0, 72, 87
1, 1008953, Control_c, 0, 64, 42
1, 1008964, Note_off_c, 0, 69, 60
1, 1008972, Control_c, 0, 64, 10
1, 1008991, Control_c, 0, 64, 0
1, 1009066, Control_c, 0, 64, 11
1, 1009086, Control_c, 0, 64, 26
1, 1009104, Control_c, 0, 64, 46
1, 1009122, Control_c, 0, 64, 69
1, 1009141, Control_c, 0, 64, 89
1, 1009161, Control_c, 0, 64, 127
1, 1009189, Poly_aftertouch_c, 0, 54, 28
1, 1009193, Poly_aftertouch_c, 0, 47, 28
1, 1009196, Note_on_c, 0, 54, 64
1, 1009199, Note_off_c, 0, 45, 55
1, 1009246, Poly_aftertouch_c, 0, 47, 127
1, 1009248, Note_off_c, 0, 54, 59
1, 1009265, Poly_aftertouch_c, 0, 47, 0
1, 1009388, Poly_aftertouch_c, 0, 64, 28
1, 1009393, Note_on_c, 0, 64, 64
1, 1009427, Note_off_c, 0, 64, 65
1, 1009557, Poly_aftertouch_c, 0, 47, 28
1, 1009562, Note_on_c, 0, 47, 86
1, 1009563, Poly_aftertouch_c, 0, 63, 28
1, 1009565, Note_on_c, 0, 63, 75
1, 1009572, Control_c, 0, 64, 86
1, 1009590, Note_off_c, 0, 72, 50
1, 1009590, Control_c, 0, 64, 58
1, 1009609, Control_c, 0, 64, 31
1, 1009628, Control_c, 0, 64, 15
1, 1009684, Control_c, 0, 64, 28
1, 1009703, Control_c, 0, 64, 44
1, 1009720, Control_c, 0, 64, 64
1, 1009740, Control_c, 0, 64, 79
1, 1009760, Control_c, 0, 64, 105
1, 1009771, Poly_aftertouch_c, 0, 57, 28
1, 1009778, Note_on_c, 0, 57, 69
1, 1009778, Control_c, 0, 64, 127
1, 1009839, Note_off_c, 0, 47, 59
1, 1009928, Note_off_c, 0, 57, 56
1, 1009958, Poly_aftertouch_c, 0, 69, 28
1, 1009963, Note_on_c, 0, 69, 82
1, 1010053, Note_off_c, 0, 63, 36
1, 1010208, Control_c, 0, 64, 105
1, 1010224, Poly_aftertouch_c, 0, 48, 28
1, 1010226, Poly_aftertouch_c, 0, 66, 28
1, 1010227, Control_c, 0, 64, 74
1, 1010228, Note_on_c, 0, 66, 88
1, 1010229, Note_on_c, 0, 48, 81
1, 1010246, Control_c, 0, 64, 49
1, 1010264, Control_c, 0, 64, 23
1, 1010299, Note_off_c, 0, 69, 54
1, 1010302, Control_c, 0, 64, 0
1, 1010394, Control_c, 0, 64, 10
1, 1010415, Control_c, 0, 64, 28
1, 1010433, Control_c, 0, 64, 52
1, 1010451, Control_c, 0, 64, 76
1, 1010470, Control_c, 0, 64, 110
1, 1010489, Control_c, 0, 64, 127
1, 1010496, Poly_aftertouch_c, 0, 57, 28
1, 1010499, Note_on_c, 0, 57, 78
1, 1010569, Note_off_c, 0, 48, 35
1, 1010709, Poly_aftertouch_c, 0, 64, 28
1, 1010714, Note_on_c, 0, 64, 76
1, 1010767, Note_off_c, 0, 64, 60
1, 1010792, Note_off_c, 0, 57, 62
1, 1011001, Poly_aftertouch_c, 0, 47, 28
1, 1011007, Poly_aftertouch_c, 0, 63, 28
1, 1011009, Note_on_c, 0, 47, 92
1, 1011010, Note_on_c, 0, 63, 80
1, 1011013, Control_c, 0, 64, 97
1, 1011033, Control_c, 0, 64, 66
1, 1011050, Control_c, 0, 64, 35
1, 1011070, Control_c, 0, 64, 8
1, 1011162, Control_c, 0, 64, 16
1, 1011182, Control_c, 0, 64, 30
1, 1011199, Control_c, 0, 64, 49
1, 1011219, Control_c, 0, 64, 69
1, 1011238, Control_c, 0, 64, 83
1, 1011256, Control_c, 0, 64, 103
1, 1011275, Control_c, 0, 64, 127
1, 1011294, Poly_aftertouch_c, 0, 57, 28
1, 1011299, Note_on_c, 0, 57, 79
1, 1011315, Note_off_c, 0, 47, 58
1, 1011460, Note_off_c, 0, 63, 46
1, 1011533, Note_off_c, 0, 66, 59
1, 1011565, Note_off_c, 0, 57, 57
1, 1011592, Note_on_c, 0, 69, 94
1, 1011592, Poly_aftertouch_c, 0, 69, 28
1, 1012030, Poly_aftertouch_c, 0, 45, 28
1, 1012034, Note_on_c, 0, 45, 76
1, 1012135, Control_c, 0, 64, 86
1, 1012147, Poly_aftertouch_c, 0, 72, 28
1, 1012149, Note_on_c, 0, 72, 98
1, 1012152, Note_off_c, 0, 69, 60
1, 1012155, Control_c, 0, 64, 58
1, 1012174, Control_c, 0, 64, 25
1, 1012192, Control_c, 0, 64, 0
1, 1012379, Control_c, 0, 64, 9
1, 1012398, Control_c, 0, 64, 14
1, 1012417, Control_c, 0, 64, 23
1, 1012436, Control_c, 0, 64, 34
1, 1012454, Control_c, 0, 64, 52
1, 1012473, Control_c, 0, 64, 67
1, 1012492, Control_c, 0, 64, 78
1, 1012511, Control_c, 0, 64, 93
1, 1012529, Control_c, 0, 64, 127
1, 1012732, Poly_aftertouch_c, 0, 54, 28
1, 1012739, Note_on_c, 0, 54, 55
1, 1012865, Note_off_c, 0, 45, 36
1, 1012957, Note_off_c, 0, 54, 52
1, 1013080, Poly_aftertouch_c, 0, 64, 28
1, 1013084, Note_on_c, 0, 64, 69
1, 1013353, Control_c, 0, 64, 86
1, 1013371, Control_c, 0, 64, 59
1, 1013383, Poly_aftertouch_c, 0, 42, 28
1, 1013390, Note_on_c, 0, 42, 49
1, 1013390, Control_c, 0, 64, 33
1, 1013409, Control_c, 0, 64, 16
1, 1013447, Control_c, 0, 67, 8
1, 1013484, Control_c, 0, 64, 27
1, 1013504, Control_c, 0, 64, 43
1, 1013505, Control_c, 0, 67, 12
1, 1013522, Control_c, 0, 64, 63
1, 1013540, Control_c, 0, 64, 78
1, 1013559, Control_c, 0, 64, 96
1, 1013562, Control_c, 0, 67, 20
1, 1013578, Control_c, 0, 64, 127
1, 1013580, Control_c, 0, 67, 24
1, 1013597, Control_c, 0, 67, 31
1, 1013615, Control_c, 0, 67, 38
1, 1013634, Control_c, 0, 67, 45
1, 1013653, Control_c, 0, 67, 53
1, 1013671, Control_c, 0, 67, 61
1, 1013689, Control_c, 0, 67, 67
1, 1013708, Control_c, 0, 67, 73
1, 1013727, Control_c, 0, 67, 78
1, 1013762, Note_off_c, 0, 64, 38
1, 1013763, Control_c, 0, 67, 84
1, 1013801, Control_c, 0, 67, 89
1, 1013839, Note_off_c, 0, 42, 31
1, 1013839, Control_c, 0, 67, 93
1, 1013847, Poly_aftertouch_c, 0, 57, 28
1, 1013855, Note_on_c, 0, 57, 37
1, 1014113, Note_off_c, 0, 57, 37
1, 1014477, Poly_aftertouch_c, 0, 64, 28
1, 1014485, Note_on_c, 0, 64, 34
1, 1014906, Control_c, 0, 67, 101
1, 1014926, Control_c, 0, 67, 106
1, 1014963, Control_c, 0, 67, 112
1, 1014981, Control_c, 0, 67, 116
1, 1015000, Control_c, 0, 67, 120
1, 1015039, Control_c, 0, 67, 127
1, 1015280, Control_c, 0, 64, 121
1, 1015300, Control_c, 0, 64, 114
1, 1015319, Control_c, 0, 64, 109
1, 1015337, Control_c, 0, 64, 104
1, 1015356, Control_c, 0, 64, 100
1, 1015375, Control_c, 0, 64, 95
1, 1015377, Poly_aftertouch_c, 0, 47, 28
1, 1015385, Note_on_c, 0, 47, 38
1, 1015392, Control_c, 0, 64, 87
1, 1015411, Control_c, 0, 64, 77
1, 1015430, Control_c, 0, 64, 64
1, 1015450, Control_c, 0, 64, 51
1, 1015468, Control_c, 0, 64, 37
1, 1015487, Control_c, 0, 64, 22
1, 1015505, Control_c, 0, 64, 13
1, 1015655, Control_c, 0, 64, 21
1, 1015674, Control_c, 0, 64, 28
1, 1015693, Control_c, 0, 64, 38
1, 1015712, Control_c, 0, 64, 53
1, 1015730, Control_c, 0, 64, 65
1, 1015750, Control_c, 0, 64, 72
1, 1015768, Control_c, 0, 64, 77
1, 1015787, Control_c, 0, 64, 83
1, 1015805, Control_c, 0, 64, 90
1, 1015823, Control_c, 0, 64, 98
1, 1015843, Control_c, 0, 64, 109
1, 1015861, Control_c, 0, 64, 127
1, 1015970, Note_off_c, 0, 72, 51
1, 1016008, Note_off_c, 0, 64, 45
1, 1016181, Poly_aftertouch_c, 0, 57, 28
1, 1016188, Note_on_c, 0, 57, 31
1, 1016517, Control_c, 0, 64, 114
1, 1016531, Poly_aftertouch_c, 0, 63, 28
1, 1016532, Poly_aftertouch_c, 0, 71, 28
1, 1016535, Control_c, 0, 64, 97
1, 1016538, Note_on_c, 0, 63, 35
1, 1016540, Note_on_c, 0, 71, 46
1, 1016554, Control_c, 0, 64, 77
1, 1016558, Poly_aftertouch_c, 0, 69, 28
1, 1016564, Note_on_c, 0, 69, 19
1, 1016573, Control_c, 0, 64, 59
1, 1016591, Control_c, 0, 64, 41
1, 1016609, Control_c, 0, 64, 28
1, 1016629, Control_c, 0, 64, 22
1, 1016722, Control_c, 0, 64, 34
1, 1016741, Control_c, 0, 64, 46
1, 1016759, Control_c, 0, 64, 61
1, 1016779, Control_c, 0, 64, 71
1, 1016797, Control_c, 0, 64, 79
1, 1016816, Control_c, 0, 64, 86
1, 1016835, Control_c, 0, 64, 93
1, 1016842, Note_off_c, 0, 47, 37
1, 1016854, Control_c, 0, 64, 99
1, 1016860, Poly_aftertouch_c, 0, 69, 24
1, 1016872, Control_c, 0, 64, 104
1, 1016891, Control_c, 0, 64, 113
1, 1016909, Control_c, 0, 64, 127
1, 1016976, Poly_aftertouch_c, 0, 66, 28
1, 1016985, Note_on_c, 0, 66, 41
1, 1017072, Note_off_c, 0, 69, 19
1, 1017157, Note_off_c, 0, 71, 37
1, 1017180, Note_off_c, 0, 63, 29
1, 1017228, Note_off_c, 0, 66, 36
1, 1017278, Note_off_c, 0, 57, 34
1, 1017292, Poly_aftertouch_c, 0, 59, 28
1, 1017297, Note_on_c, 0, 59, 35
1, 1017346, Note_off_c, 0, 59, 52
1, 1017528, Control_c, 0, 64, 119
1, 1017546, Control_c, 0, 64, 99
1, 1017550, Poly_aftertouch_c, 0, 71, 28
1, 1017554, Note_on_c, 0, 71, 57
1, 1017556, Poly_aftertouch_c, 0, 64, 28
1, 1017561, Note_on_c, 0, 64, 46
1, 1017565, Control_c, 0, 64, 79
1, 1017584, Control_c, 0, 64, 61
1, 1017587, Poly_aftertouch_c, 0, 69, 28
1, 1017594, Note_on_c, 0, 69, 30
1, 1017602, Control_c, 0, 64, 49
1, 1017621, Control_c, 0, 64, 44
1, 1017676, Control_c, 0, 64, 47
1, 1017696, Control_c, 0, 64, 53
1, 1017714, Control_c, 0, 64, 58
1, 1017734, Control_c, 0, 64, 62
1, 1017751, Control_c, 0, 64, 66
1, 1017771, Control_c, 0, 64, 69
1, 1017789, Control_c, 0, 64, 73
1, 1017808, Control_c, 0, 64, 77
1, 1017826, Control_c, 0, 64, 85
1, 1017845, Control_c, 0, 64, 95
1, 1017864, Control_c, 0, 64, 107
1, 1017882, Control_c, 0, 64, 127
1, 1017909, Poly_aftertouch_c, 0, 72, 28
1, 1017911, Note_on_c, 0, 72, 52
1, 1017950, Note_off_c, 0, 71, 47
1, 1017958, Note_off_c, 0, 69, 23
1, 1017997, Note_off_c, 0, 72, 59
1, 1018000, Note_off_c, 0, 64, 58
1, 1018199, Poly_aftertouch_c, 0, 47, 28
1, 1018200, Poly_aftertouch_c, 0, 57, 28
1, 1018207, Note_on_c, 0, 57, 29
1, 1018212, Note_on_c, 0, 47, 30
1, 1018388, Control_c, 0, 64, 104
1, 1018407, Control_c, 0, 64, 77
1, 1018425, Control_c, 0, 64, 54
1, 1018443, Poly_aftertouch_c, 0, 71, 28
1, 1018444, Control_c, 0, 64, 34
1, 1018449, Note_on_c, 0, 71, 48
1, 1018453, Poly_aftertouch_c, 0, 63, 28
1, 1018459, Note_on_c, 0, 63, 35
1, 1018463, Control_c, 0, 64, 25
1, 1018467, Poly_aftertouch_c, 0, 69, 28
1, 1018477, Note_on_c, 0, 69, 21
1, 1018520, Control_c, 0, 64, 30
1, 1018535, Note_off_c, 0, 47, 50
1, 1018537, Control_c, 0, 64, 41
1, 1018557, Control_c, 0, 64, 57
1, 1018575, Control_c, 0, 64, 70
1, 1018595, Control_c, 0, 64, 82
1, 1018612, Control_c, 0, 64, 99
1, 1018631, Control_c, 0, 64, 127
1, 1018634, Note_off_c, 0, 57, 39
1, 1018729, Poly_aftertouch_c, 0, 66, 28
1, 1018735, Note_on_c, 0, 66, 43
1, 1018743, Poly_aftertouch_c, 0, 69, 24
1, 1018804, Note_off_c, 0, 69, 19
1, 1018811, Note_off_c, 0, 63, 38
1, 1018820, Note_off_c, 0, 66, 49
1, 1018836, Note_off_c, 0, 71, 42
1, 1018992, Poly_aftertouch_c, 0, 59, 28
1, 1018996, Note_on_c, 0, 59, 33
1, 1019045, Note_off_c, 0, 59, 51
1, 1019236, Poly_aftertouch_c, 0, 75, 28
1, 1019244, Note_on_c, 0, 75, 48
1, 1019262, Poly_aftertouch_c, 0, 67, 28
1, 1019270, Note_on_c, 0, 67, 37
1, 1019282, Poly_aftertouch_c, 0, 72, 28
1, 1019289, Note_on_c, 0, 72, 35
1, 1019343, Control_c, 0, 64, 118
1, 1019361, Control_c, 0, 64, 106
1, 1019381, Control_c, 0, 64, 99
1, 1019399, Control_c, 0, 64, 93
1, 1019417, Control_c, 0, 64, 89
1, 1019436, Control_c, 0, 64, 86
1, 1019474, Control_c, 0, 64, 84
1, 1019493, Control_c, 0, 64, 81
1, 1019511, Control_c, 0, 64, 76
1, 1019530, Control_c, 0, 64, 64
1, 1019549, Control_c, 0, 64, 50
1, 1019553, Poly_aftertouch_c, 0, 76, 28
1, 1019557, Note_on_c, 0, 76, 54
1, 1019567, Control_c, 0, 64, 36
1, 1019587, Control_c, 0, 64, 30
1, 1019612, Note_off_c, 0, 75, 47
1, 1019643, Control_c, 0, 64, 35
1, 1019650, Poly_aftertouch_c, 0, 72, 24
1, 1019661, Control_c, 0, 64, 46
1, 1019679, Control_c, 0, 64, 62
1, 1019699, Control_c, 0, 64, 74
1, 1019718, Control_c, 0, 64, 88
1, 1019723, Note_off_c, 0, 72, 33
1, 1019736, Note_off_c, 0, 76, 58
1, 1019736, Control_c, 0, 64, 108
1, 1019749, Note_off_c, 0, 67, 54
1, 1019754, Control_c, 0, 64, 127
1, 1019815, Poly_aftertouch_c, 0, 47, 28
1, 1019824, Note_on_c, 0, 47, 35
1, 1019825, Poly_aftertouch_c, 0, 57, 28
1, 1019835, Note_on_c, 0, 57, 33
1, 1020024, Note_off_c, 0, 47, 36
1, 1020048, Note_off_c, 0, 57, 42
1, 1020073, Poly_aftertouch_c, 0, 75, 28
1, 1020081, Note_on_c, 0, 75, 48
1, 1020089, Poly_aftertouch_c, 0, 66, 28
1, 1020090, Control_c, 0, 64, 103
1, 1020100, Note_on_c, 0, 66, 33
1, 1020108, Control_c, 0, 64, 76
1, 1020120, Poly_aftertouch_c, 0, 72, 28
1, 1020125, Note_on_c, 0, 72, 33
1, 1020129, Control_c, 0, 64, 57
1, 1020147, Control_c, 0, 64, 47
1, 1020185, Control_c, 0, 64, 50
1, 1020204, Control_c, 0, 64, 58
1, 1020222, Control_c, 0, 64, 67
1, 1020241, Control_c, 0, 64, 76
1, 1020261, Control_c, 0, 64, 92
1, 1020279, Control_c, 0, 64, 127
1, 1020387, Poly_aftertouch_c, 0, 69, 28
1, 1020392, Note_on_c, 0, 69, 43
1, 1020490, Note_off_c, 0, 72, 34
1, 1020542, Note_off_c, 0, 66, 41
1, 1020543, Note_off_c, 0, 69, 36
1, 1020548, Note_off_c, 0, 75, 40
1, 1020670, Poly_aftertouch_c, 0, 59, 28
1, 1020675, Note_on_c, 0, 59, 31
1, 1020730, Note_off_c, 0, 59, 53
1, 1020979, Poly_aftertouch_c, 0, 75, 28
1, 1020990, Note_on_c, 0, 75, 35
1, 1021001, Poly_aftertouch_c, 0, 67, 28
1, 1021010, Note_on_c, 0, 67, 29
1, 1021013, Poly_aftertouch_c, 0, 72, 28
1, 1021022, Note_on_c, 0, 72, 29
1, 1021215, Control_c, 0, 64, 114
1, 1021233, Control_c, 0, 64, 109
1, 1021254, Control_c, 0, 64, 105
1, 1021271, Control_c, 0, 64, 101
1, 1021308, Control_c, 0, 64, 93
1, 1021346, Poly_aftertouch_c, 0, 76, 28
1, 1021347, Control_c, 0, 64, 85
1, 1021349, Note_on_c, 0, 76, 46
1, 1021365, Control_c, 0, 64, 78
1, 1021383, Control_c, 0, 64, 69
1, 1021403, Control_c, 0, 64, 58
1, 1021417, Poly_aftertouch_c, 0, 72, 24
1, 1021420, Control_c, 0, 64, 48
1, 1021439, Control_c, 0, 64, 42
1, 1021443, Note_off_c, 0, 75, 44
1, 1021477, Control_c, 0, 64, 38
1, 1021523, Note_off_c, 0, 72, 29
1, 1021532, Control_c, 0, 64, 41
1, 1021551, Control_c, 0, 64, 48
1, 1021571, Control_c, 0, 64, 58
1, 1021589, Control_c, 0, 64, 67
1, 1021609, Control_c, 0, 64, 74
1, 1021626, Control_c, 0, 64, 82
1, 1021646, Control_c, 0, 64, 94
1, 1021664, Control_c, 0, 64, 114
1, 1021676, Note_off_c, 0, 76, 52
1, 1021681, Control_c, 0, 64, 127
1, 1021693, Poly_aftertouch_c, 0, 47, 28
1, 1021703, Note_on_c, 0, 47, 34
1, 1021703, Poly_aftertouch_c, 0, 57, 28
1, 1021704, Note_off_c, 0, 67, 50
1, 1021711, Note_on_c, 0, 57, 31
1, 1022053, Note_off_c, 0, 47, 36
1, 1022073, Note_off_c, 0, 57, 38
1, 1022186, Poly_aftertouch_c, 0, 66, 28
1, 1022197, Poly_aftertouch_c, 0, 75, 28
1, 1022199, Note_on_c, 0, 66, 32
1, 1022211, Note_on_c, 0, 75, 35
1, 1022216, Poly_aftertouch_c, 0, 72, 28
1, 1022224, Note_on_c, 0, 72, 37
1, 1022244, Control_c, 0, 64, 95
1, 1022263, Control_c, 0, 64, 71
1, 1022283, Control_c, 0, 64, 56
1, 1022300, Control_c, 0, 64, 53
1, 1022339, Control_c, 0, 64, 59
1, 1022356, Control_c, 0, 64, 65
1, 1022375, Control_c, 0, 64, 74
1, 1022394, Control_c, 0, 64, 87
1, 1022413, Control_c, 0, 64, 116
1, 1022431, Control_c, 0, 64, 127
1, 1022762, Poly_aftertouch_c, 0, 69, 28
1, 1022768, Note_on_c, 0, 69, 35
1, 1023029, Poly_aftertouch_c, 0, 69, 24
1, 1023033, Note_off_c, 0, 66, 34
1, 1023113, Poly_aftertouch_c, 0, 72, 24
1, 1023124, Note_off_c, 0, 69, 31
1, 1023159, Note_off_c, 0, 72, 35
1, 1023192, Poly_aftertouch_c, 0, 75, 24
1, 1023237, Note_off_c, 0, 75, 39
1, 1023589, Poly_aftertouch_c, 0, 59, 28
1, 1023596, Note_on_c, 0, 59, 30
1, 1023668, Control_c, 0, 64, 114
1, 1023686, Control_c, 0, 64, 85
1, 1023705, Control_c, 0, 64, 66
1, 1023723, Control_c, 0, 64, 55
1, 1023778, Control_c, 0, 64, 60
1, 1023798, Control_c, 0, 64, 66
1, 1023816, Control_c, 0, 64, 73
1, 1023835, Control_c, 0, 64, 85
1, 1023854, Control_c, 0, 64, 108
1, 1023873, Control_c, 0, 64, 127
1, 1023929, Note_off_c, 0, 59, 50
1, 1024675, Poly_aftertouch_c, 0, 76, 28
1, 1024680, Note_on_c, 0, 76, 37
1, 1024684, Poly_aftertouch_c, 0, 60, 28
1, 1024691, Poly_aftertouch_c, 0, 69, 28
1, 1024693, Note_on_c, 0, 60, 28
1, 1024699, Note_on_c, 0, 69, 27
1, 1024702, Poly_aftertouch_c, 0, 64, 28
1, 1024711, Note_on_c, 0, 64, 32
1, 1024712, Poly_aftertouch_c, 0, 57, 28
1, 1024713, Control_c, 0, 64, 107
1, 1024715, Poly_aftertouch_c, 0, 72, 28
1, 1024720, Note_on_c, 0, 57, 33
1, 1024725, Note_on_c, 0, 72, 32
1, 1024733, Control_c, 0, 64, 88
1, 1024753, Control_c, 0, 64, 72
1, 1024771, Control_c, 0, 64, 61
1, 1024789, Control_c, 0, 64, 53
1, 1024809, Control_c, 0, 64, 50
1, 1024827, Control_c, 0, 64, 47
1, 1024865, Control_c, 0, 64, 45
1, 1024902, Control_c, 0, 64, 43
1, 1024977, Control_c, 0, 64, 41
1, 1025093, Poly_aftertouch_c, 0, 56, 28
1, 1025100, Note_on_c, 0, 56, 47
1, 1025117, Poly_aftertouch_c, 0, 77, 28
1, 1025118, Note_on_c, 0, 77, 41
1, 1025125, Note_off_c, 0, 57, 38
1, 1025168, Note_off_c, 0, 76, 37
1, 1025202, Control_c, 0, 64, 45
1, 1025210, Note_off_c, 0, 60, 24
1, 1025211, Note_off_c, 0, 72, 51
1, 1025220, Control_c, 0, 64, 53
1, 1025239, Control_c, 0, 64, 61
1, 1025241, Poly_aftertouch_c, 0, 64, 24
1, 1025250, Note_off_c, 0, 69, 49
1, 1025258, Control_c, 0, 64, 66
1, 1025274, Note_off_c, 0, 64, 34
1, 1025275, Note_off_c, 0, 77, 60
1, 1025276, Control_c, 0, 64, 69
1, 1025279, Note_off_c, 0, 56, 59
1, 1025351, Control_c, 0, 64, 67
1, 1025370, Control_c, 0, 64, 66
1, 1025388, Control_c, 0, 64, 64
1, 1025408, Control_c, 0, 64, 63
1, 1025427, Control_c, 0, 64, 61
1, 1025445, Control_c, 0, 64, 59
1, 1025463, Control_c, 0, 64, 56
1, 1025484, Control_c, 0, 64, 54
1, 1025501, Control_c, 0, 64, 51
1, 1025519, Control_c, 0, 64, 48
1, 1025539, Control_c, 0, 64, 44
1, 1025557, Control_c, 0, 64, 41
1, 1025595, Control_c, 0, 64, 35
1, 1025888, Poly_aftertouch_c, 0, 84, 28
1, 1025895, Note_on_c, 0, 84, 51
1, 1025902, Poly_aftertouch_c, 0, 48, 28
1, 1025903, Poly_aftertouch_c, 0, 52, 28
1, 1025903, Poly_aftertouch_c, 0, 57, 28
1, 1025908, Poly_aftertouch_c, 0, 76, 28
1, 1025909, Poly_aftertouch_c, 0, 81, 28
1, 1025910, Note_on_c, 0, 48, 32
1, 1025910, Note_on_c, 0, 52, 30
1, 1025911, Note_on_c, 0, 76, 43
1, 1025913, Note_on_c, 0, 81, 38
1, 1025914, Note_on_c, 0, 57, 36
1, 1026043, Control_c, 0, 64, 43
1, 1026063, Control_c, 0, 64, 54
1, 1026081, Control_c, 0, 64, 64
1, 1026100, Control_c, 0, 64, 70
1, 1026119, Control_c, 0, 64, 73
1, 1026219, Poly_aftertouch_c, 0, 75, 28
1, 1026228, Note_on_c, 0, 75, 47
1, 1026231, Control_c, 0, 64, 69
1, 1026249, Note_off_c, 0, 52, 37
1, 1026249, Control_c, 0, 64, 66
1, 1026255, Poly_aftertouch_c, 0, 59, 28
1, 1026261, Note_off_c, 0, 57, 36
1, 1026261, Note_on_c, 0, 59, 40
1, 1026268, Control_c, 0, 64, 63
1, 1026288, Control_c, 0, 64, 59
1, 1026306, Control_c, 0, 64, 55
1, 1026315, Note_off_c, 0, 48, 30
1, 1026325, Control_c, 0, 64, 52
1, 1026326, Note_off_c, 0, 84, 39
1, 1026332, Note_off_c, 0, 76, 58
1, 1026340, Note_off_c, 0, 81, 52
1, 1026344, Control_c, 0, 64, 48
1, 1026363, Control_c, 0, 64, 45
1, 1026380, Control_c, 0, 64, 42
1, 1026383, Note_off_c, 0, 75, 63
1, 1026400, Control_c, 0, 64, 40
1, 1026406, Note_off_c, 0, 59, 62
1, 1026455, Control_c, 0, 64, 35
1, 1026804, Poly_aftertouch_c, 0, 76, 28
1, 1026809, Note_on_c, 0, 76, 58
1, 1026831, Poly_aftertouch_c, 0, 60, 28
1, 1026831, Poly_aftertouch_c, 0, 64, 28
1, 1026832, Poly_aftertouch_c, 0, 69, 28
1, 1026833, Poly_aftertouch_c, 0, 72, 28
1, 1026839, Note_on_c, 0, 72, 40
1, 1026840, Note_on_c, 0, 69, 35
1, 1026841, Note_on_c, 0, 60, 38
1, 1026841, Poly_aftertouch_c, 0, 57, 28
1, 1026844, Note_on_c, 0, 64, 31
1, 1026845, Note_on_c, 0, 57, 38
1, 1027162, Poly_aftertouch_c, 0, 77, 28
1, 1027165, Note_on_c, 0, 77, 53
1, 1027167, Poly_aftertouch_c, 0, 56, 28
1, 1027174, Note_on_c, 0, 56, 43
1, 1027178, Note_off_c, 0, 57, 41
1, 1027187, Control_c, 0, 64, 40
1, 1027195, Note_off_c, 0, 76, 46
1, 1027226, Note_off_c, 0, 60, 33
1, 1027231, Note_off_c, 0, 72, 52
1, 1027281, Note_off_c, 0, 69, 32
1, 1027309, Note_off_c, 0, 64, 37
1, 1027316, Note_off_c, 0, 56, 59
1, 1027341, Note_off_c, 0, 77, 60
1, 1027392, Control_c, 0, 64, 35
1, 1027466, Control_c, 0, 64, 31
1, 1027879, Control_c, 0, 64, 37
1, 1027887, Poly_aftertouch_c, 0, 84, 28
1, 1027893, Poly_aftertouch_c, 0, 81, 28
1, 1027897, Note_on_c, 0, 84, 42
1, 1027897, Control_c, 0, 64, 42
1, 1027899, Note_on_c, 0, 81, 42
1, 1027900, Poly_aftertouch_c, 0, 75, 28
1, 1027904, Poly_aftertouch_c, 0, 48, 28
1, 1027905, Poly_aftertouch_c, 0, 57, 28
1, 1027911, Note_on_c, 0, 75, 27
1, 1027913, Note_on_c, 0, 48, 29
1, 1027913, Poly_aftertouch_c, 0, 54, 28
1, 1027914, Control_c, 0, 64, 48
1, 1027918, Note_on_c, 0, 57, 32
1, 1027919, Note_on_c, 0, 54, 32
1, 1027935, Control_c, 0, 64, 57
1, 1027953, Control_c, 0, 64, 64
1, 1027972, Control_c, 0, 64, 69
1, 1027990, Control_c, 0, 64, 74
1, 1028010, Control_c, 0, 64, 81
1, 1028029, Control_c, 0, 64, 91
1, 1028047, Control_c, 0, 64, 104
1, 1028059, Note_off_c, 0, 48, 35
1, 1028064, Control_c, 0, 64, 127
1, 1028070, Note_off_c, 0, 84, 36
1, 1028132, Note_off_c, 0, 81, 56
1, 1028191, Note_off_c, 0, 54, 40
1, 1028333, Note_off_c, 0, 57, 32
1, 1028395, Note_off_c, 0, 75, 44
1, 1028430, Poly_aftertouch_c, 0, 69, 28
1, 1028435, Note_on_c, 0, 69, 47
1, 1028442, Poly_aftertouch_c, 0, 63, 28
1, 1028451, Note_on_c, 0, 63, 28
1, 1028525, Note_off_c, 0, 69, 55
1, 1028525, Note_off_c, 0, 63, 41
1, 1028740, Control_c, 0, 64, 117
1, 1028758, Control_c, 0, 64, 111
1, 1028777, Control_c, 0, 64, 107
1, 1028795, Control_c, 0, 64, 103
1, 1028815, Control_c, 0, 64, 99
1, 1028833, Control_c, 0, 64, 93
1, 1028852, Control_c, 0, 64, 87
1, 1028871, Control_c, 0, 64, 81
1, 1028890, Control_c, 0, 64, 74
1, 1028908, Control_c, 0, 64, 67
1, 1028926, Control_c, 0, 64, 61
1, 1028946, Control_c, 0, 64, 56
1, 1028965, Control_c, 0, 64, 53
1, 1028982, Control_c, 0, 64, 50
1, 1029002, Control_c, 0, 64, 48
1, 1029020, Control_c, 0, 64, 44
1, 1029039, Control_c, 0, 64, 41
1, 1029076, Control_c, 0, 64, 35
1, 1029266, Poly_aftertouch_c, 0, 74, 28
1, 1029269, Note_on_c, 0, 74, 56
1, 1029284, Poly_aftertouch_c, 0, 67, 28
1, 1029289, Note_on_c, 0, 59, 33
1, 1029290, Poly_aftertouch_c, 0, 55, 28
1, 1029291, Poly_aftertouch_c, 0, 59, 28
1, 1029292, Note_on_c, 0, 67, 34
1, 1029292, Poly_aftertouch_c, 0, 62, 28
1, 1029300, Poly_aftertouch_c, 0, 71, 28
1, 1029301, Note_on_c, 0, 62, 32
1, 1029301, Note_on_c, 0, 55, 29
1, 1029303, Note_on_c, 0, 71, 42
1, 1029526, Control_c, 0, 64, 41
1, 1029544, Control_c, 0, 64, 44
1, 1029563, Control_c, 0, 64, 47
1, 1029581, Control_c, 0, 64, 52
1, 1029600, Control_c, 0, 64, 55
1, 1029611, Note_off_c, 0, 55, 43
1, 1029618, Poly_aftertouch_c, 0, 75, 28
1, 1029620, Control_c, 0, 64, 57
1, 1029623, Note_on_c, 0, 75, 58
1, 1029623, Poly_aftertouch_c, 0, 54, 28
1, 1029633, Note_on_c, 0, 54, 37
1, 1029669, Note_off_c, 0, 74, 53
1, 1029683, Note_off_c, 0, 59, 41
1, 1029696, Note_off_c, 0, 67, 41
1, 1029719, Note_off_c, 0, 62, 42
1, 1029724, Note_off_c, 0, 71, 58
1, 1029740, Note_off_c, 0, 54, 61
1, 1029751, Control_c, 0, 64, 54
1, 1029755, Note_off_c, 0, 75, 63
1, 1029769, Control_c, 0, 64, 51
1, 1029788, Control_c, 0, 64, 48
1, 1029806, Control_c, 0, 64, 46
1, 1029826, Control_c, 0, 64, 44
1, 1029844, Control_c, 0, 64, 42
1, 1029863, Control_c, 0, 64, 40
1, 1029918, Control_c, 0, 64, 36
1, 1030171, Poly_aftertouch_c, 0, 55, 28
1, 1030174, Poly_aftertouch_c, 0, 79, 28
1, 1030174, Poly_aftertouch_c, 0, 83, 28
1, 1030178, Note_on_c, 0, 79, 57
1, 1030180, Note_on_c, 0, 83, 68
1, 1030180, Note_on_c, 0, 55, 42
1, 1030180, Poly_aftertouch_c, 0, 50, 28
1, 1030187, Note_on_c, 0, 50, 42
1, 1030189, Poly_aftertouch_c, 0, 74, 28
1, 1030194, Poly_aftertouch_c, 0, 47, 28
1, 1030196, Note_on_c, 0, 74, 52
1, 1030201, Note_on_c, 0, 47, 35
1, 1030331, Control_c, 0, 64, 42
1, 1030349, Control_c, 0, 64, 51
1, 1030369, Control_c, 0, 64, 61
1, 1030386, Control_c, 0, 64, 67
1, 1030406, Control_c, 0, 64, 70
1, 1030463, Note_off_c, 0, 50, 37
1, 1030483, Note_off_c, 0, 47, 42
1, 1030484, Poly_aftertouch_c, 0, 73, 28
1, 1030490, Note_on_c, 0, 73, 71
1, 1030498, Note_off_c, 0, 55, 56
1, 1030501, Note_off_c, 0, 83, 52
1, 1030509, Poly_aftertouch_c, 0, 57, 28
1, 1030515, Note_on_c, 0, 57, 47
1, 1030537, Control_c, 0, 64, 68
1, 1030553, Note_off_c, 0, 74, 52
1, 1030554, Control_c, 0, 64, 65
1, 1030561, Note_off_c, 0, 79, 58
1, 1030574, Control_c, 0, 64, 62
1, 1030592, Control_c, 0, 64, 60
1, 1030611, Control_c, 0, 64, 58
1, 1030626, Note_off_c, 0, 57, 63
1, 1030629, Control_c, 0, 64, 55
1, 1030643, Note_off_c, 0, 73, 62
1, 1030648, Control_c, 0, 64, 51
1, 1030668, Control_c, 0, 64, 47
1, 1030687, Control_c, 0, 64, 44
1, 1030706, Control_c, 0, 64, 41
1, 1030744, Control_c, 0, 64, 37
1, 1030854, Control_c, 0, 64, 33
1, 1031043, Poly_aftertouch_c, 0, 74, 28
1, 1031049, Note_on_c, 0, 74, 62
1, 1031056, Note_on_c, 0, 59, 33
1, 1031056, Poly_aftertouch_c, 0, 59, 28
1, 1031063, Poly_aftertouch_c, 0, 71, 28
1, 1031066, Note_on_c, 0, 71, 47
1, 1031068, Poly_aftertouch_c, 0, 62, 28
1, 1031069, Poly_aftertouch_c, 0, 67, 28
1, 1031073, Note_on_c, 0, 62, 38
1, 1031073, Poly_aftertouch_c, 0, 55, 28
1, 1031080, Note_on_c, 0, 67, 40
1, 1031081, Note_on_c, 0, 55, 34
1, 1031379, Poly_aftertouch_c, 0, 75, 28
1, 1031386, Note_on_c, 0, 75, 56
1, 1031394, Poly_aftertouch_c, 0, 54, 28
1, 1031401, Note_off_c, 0, 55, 48
1, 1031402, Note_on_c, 0, 54, 46
1, 1031419, Note_off_c, 0, 59, 35
1, 1031440, Note_off_c, 0, 67, 36
1, 1031453, Note_off_c, 0, 62, 31
1, 1031479, Note_off_c, 0, 74, 37
1, 1031495, Note_off_c, 0, 71, 46
1, 1031564, Note_off_c, 0, 54, 61
1, 1031587, Note_off_c, 0, 75, 63
1, 1032059, Poly_aftertouch_c, 0, 79, 28
1, 1032060, Poly_aftertouch_c, 0, 82, 28
1, 1032067, Note_on_c, 0, 79, 41
1, 1032068, Poly_aftertouch_c, 0, 46, 28
1, 1032072, Note_on_c, 0, 82, 44
1, 1032081, Note_on_c, 0, 46, 34
1, 1032089, Poly_aftertouch_c, 0, 55, 28
1, 1032102, Note_on_c, 0, 55, 30
1, 1032102, Poly_aftertouch_c, 0, 52, 28
1, 1032103, Poly_aftertouch_c, 0, 73, 28
1, 1032111, Note_on_c, 0, 52, 32
1, 1032113, Note_on_c, 0, 73, 29
1, 1032127, Control_c, 0, 64, 40
1, 1032147, Control_c, 0, 64, 47
1, 1032165, Control_c, 0, 64, 59
1, 1032184, Control_c, 0, 64, 68
1, 1032202, Control_c, 0, 64, 75
1, 1032221, Control_c, 0, 64, 84
1, 1032240, Control_c, 0, 64, 96
1, 1032258, Control_c, 0, 64, 110
1, 1032277, Control_c, 0, 64, 127
1, 1032301, Note_off_c, 0, 46, 36
1, 1032319, Note_off_c, 0, 82, 38
1, 1032364, Poly_aftertouch_c, 0, 52, 24
1, 1032416, Note_off_c, 0, 79, 42
1, 1032486, Note_off_c, 0, 52, 25
1, 1032497, Poly_aftertouch_c, 0, 67, 28
1, 1032503, Poly_aftertouch_c, 0, 61, 28
1, 1032507, Note_on_c, 0, 67, 43
1, 1032508, Note_on_c, 0, 61, 43
1, 1032520, Control_c, 0, 64, 118
1, 1032539, Control_c, 0, 64, 114
1, 1032558, Note_off_c, 0, 55, 37
1, 1032577, Control_c, 0, 64, 109
1, 1032627, Note_off_c, 0, 73, 41
1, 1032632, Control_c, 0, 64, 104
1, 1032666, Note_off_c, 0, 67, 49
1, 1032690, Control_c, 0, 64, 99
1, 1032731, Note_off_c, 0, 61, 37
1, 1032745, Control_c, 0, 64, 94
1, 1032801, Control_c, 0, 64, 89
1, 1032839, Control_c, 0, 64, 86
1, 1032858, Control_c, 0, 64, 84
1, 1032876, Control_c, 0, 64, 81
1, 1032895, Control_c, 0, 64, 77
1, 1032914, Control_c, 0, 64, 72
1, 1032932, Control_c, 0, 64, 67
1, 1032952, Control_c, 0, 64, 64
1, 1032970, Control_c, 0, 64, 61
1, 1032989, Control_c, 0, 64, 58
1, 1033008, Control_c, 0, 64, 56
1, 1033027, Control_c, 0, 64, 54
1, 1033045, Control_c, 0, 64, 51
1, 1033082, Control_c, 0, 64, 47
1, 1033120, Control_c, 0, 64, 44
1, 1033157, Control_c, 0, 64, 42
1, 1033213, Poly_aftertouch_c, 0, 72, 28
1, 1033213, Control_c, 0, 64, 40
1, 1033218, Note_on_c, 0, 72, 61
1, 1033224, Poly_aftertouch_c, 0, 65, 28
1, 1033229, Poly_aftertouch_c, 0, 57, 28
1, 1033231, Poly_aftertouch_c, 0, 69, 28
1, 1033237, Note_on_c, 0, 65, 32
1, 1033237, Note_on_c, 0, 69, 44
1, 1033239, Note_on_c, 0, 57, 32
1, 1033243, Poly_aftertouch_c, 0, 60, 28
1, 1033250, Poly_aftertouch_c, 0, 53, 28
1, 1033251, Note_on_c, 0, 60, 32
1, 1033254, Note_on_c, 0, 53, 33
1, 1033401, Control_c, 0, 64, 43
1, 1033419, Control_c, 0, 64, 49
1, 1033439, Control_c, 0, 64, 55
1, 1033457, Control_c, 0, 64, 61
1, 1033476, Control_c, 0, 64, 66
1, 1033494, Control_c, 0, 64, 68
1, 1033571, Poly_aftertouch_c, 0, 73, 28
1, 1033575, Note_on_c, 0, 73, 65
1, 1033577, Note_off_c, 0, 53, 39
1, 1033577, Note_on_c, 0, 52, 44
1, 1033577, Poly_aftertouch_c, 0, 52, 28
1, 1033587, Note_off_c, 0, 65, 35
1, 1033602, Note_off_c, 0, 72, 55
1, 1033605, Control_c, 0, 64, 70
1, 1033628, Note_off_c, 0, 60, 30
1, 1033656, Note_off_c, 0, 57, 30
1, 1033665, Note_off_c, 0, 69, 49
1, 1033715, Note_off_c, 0, 52, 35
1, 1033756, Control_c, 0, 64, 67
1, 1033762, Note_off_c, 0, 73, 50
1, 1033776, Control_c, 0, 64, 65
1, 1033793, Control_c, 0, 64, 64
1, 1033813, Control_c, 0, 64, 61
1, 1033831, Control_c, 0, 64, 58
1, 1033849, Control_c, 0, 64, 56
1, 1033868, Control_c, 0, 64, 54
1, 1033888, Control_c, 0, 64, 51
1, 1033906, Control_c, 0, 64, 49
1, 1033924, Control_c, 0, 64, 47
1, 1033944, Control_c, 0, 64, 45
1, 1033981, Control_c, 0, 64, 42
1, 1034056, Control_c, 0, 64, 40
1, 1034104, Poly_aftertouch_c, 0, 72, 28
1, 1034110, Note_on_c, 0, 72, 77
1, 1034117, Poly_aftertouch_c, 0, 69, 28
1, 1034121, Note_on_c, 0, 69, 63
1, 1034125, Note_on_c, 0, 57, 40
1, 1034125, Poly_aftertouch_c, 0, 57, 28
1, 1034126, Poly_aftertouch_c, 0, 65, 28
1, 1034130, Note_on_c, 0, 65, 45
1, 1034130, Control_c, 0, 64, 35
1, 1034132, Note_on_c, 0, 53, 41
1, 1034133, Poly_aftertouch_c, 0, 53, 28
1, 1034133, Poly_aftertouch_c, 0, 60, 28
1, 1034137, Note_on_c, 0, 60, 37
1, 1034354, Note_off_c, 0, 65, 59
1, 1034354, Control_c, 0, 64, 44
1, 1034374, Control_c, 0, 64, 53
1, 1034392, Control_c, 0, 64, 62
1, 1034409, Note_off_c, 0, 60, 36
1, 1034411, Control_c, 0, 64, 69
1, 1034428, Note_off_c, 0, 53, 50
1, 1034430, Note_on_c, 0, 74, 80
1, 1034430, Control_c, 0, 64, 72
1, 1034431, Poly_aftertouch_c, 0, 74, 28
1, 1034435, Poly_aftertouch_c, 0, 52, 28
1, 1034441, Note_on_c, 0, 52, 50
1, 1034447, Note_off_c, 0, 72, 54
1, 1034449, Control_c, 0, 64, 75
1, 1034467, Control_c, 0, 64, 78
1, 1034486, Control_c, 0, 64, 80
1, 1034499, Note_off_c, 0, 69, 51
1, 1034504, Control_c, 0, 64, 82
1, 1034535, Note_off_c, 0, 57, 34
1, 1034539, Note_off_c, 0, 52, 59
1, 1034575, Note_off_c, 0, 74, 55
1, 1034655, Control_c, 0, 64, 80
1, 1034673, Control_c, 0, 64, 78
1, 1034711, Control_c, 0, 64, 74
1, 1034729, Control_c, 0, 64, 71
1, 1034748, Control_c, 0, 64, 69
1, 1034767, Control_c, 0, 64, 66
1, 1034786, Control_c, 0, 64, 63
1, 1034803, Control_c, 0, 64, 60
1, 1034824, Control_c, 0, 64, 57
1, 1034841, Control_c, 0, 64, 55
1, 1034880, Control_c, 0, 64, 53
1, 1034917, Control_c, 0, 64, 50
1, 1034935, Control_c, 0, 64, 48
1, 1034954, Control_c, 0, 64, 43
1, 1034973, Control_c, 0, 64, 36
1, 1034991, Control_c, 0, 64, 26
1, 1035010, Control_c, 0, 64, 13
1, 1035014, Poly_aftertouch_c, 0, 77, 28
1, 1035015, Poly_aftertouch_c, 0, 81, 28
1, 1035017, Note_on_c, 0, 81, 80
1, 1035019, Note_on_c, 0, 77, 72
1, 1035021, Poly_aftertouch_c, 0, 48, 28
1, 1035029, Note_on_c, 0, 48, 46
1, 1035031, Note_on_c, 0, 72, 66
1, 1035031, Poly_aftertouch_c, 0, 72, 28
1, 1035036, Poly_aftertouch_c, 0, 45, 28
1, 1035037, Note_on_c, 0, 45, 39
1, 1035037, Poly_aftertouch_c, 0, 53, 28
1, 1035039, Note_on_c, 0, 53, 51
1, 1035066, Control_c, 0, 64, 0
1, 1035067, Control_c, 0, 67, 123
1, 1035216, Control_c, 0, 64, 9
1, 1035235, Control_c, 0, 64, 17
1, 1035254, Control_c, 0, 64, 26
1, 1035272, Control_c, 0, 64, 41
1, 1035291, Control_c, 0, 64, 60
1, 1035309, Note_off_c, 0, 45, 37
1, 1035310, Control_c, 0, 64, 72
1, 1035329, Control_c, 0, 64, 81
1, 1035340, Note_off_c, 0, 81, 55
1, 1035343, Note_off_c, 0, 48, 35
1, 1035347, Control_c, 0, 64, 89
1, 1035350, Poly_aftertouch_c, 0, 71, 28
1, 1035353, Note_on_c, 0, 71, 79
1, 1035360, Poly_aftertouch_c, 0, 56, 28
1, 1035363, Note_on_c, 0, 56, 61
1, 1035366, Control_c, 0, 64, 95
1, 1035367, Note_off_c, 0, 53, 56
1, 1035401, Note_off_c, 0, 72, 56
1, 1035409, Note_off_c, 0, 77, 52
1, 1035442, Control_c, 0, 64, 99
1, 1035450, Note_off_c, 0, 71, 57
1, 1035460, Control_c, 0, 67, 119
1, 1035504, Note_off_c, 0, 56, 53
1, 1035534, Control_c, 0, 67, 115
1, 1035591, Control_c, 0, 67, 110
1, 1035609, Control_c, 0, 64, 92
1, 1035628, Control_c, 0, 64, 85
1, 1035647, Control_c, 0, 64, 78
1, 1035650, Control_c, 0, 67, 106
1, 1035665, Control_c, 0, 64, 70
1, 1035684, Control_c, 0, 64, 63
1, 1035703, Control_c, 0, 64, 57
1, 1035705, Control_c, 0, 67, 100
1, 1035721, Control_c, 0, 64, 53
1, 1035740, Control_c, 0, 64, 50
1, 1035741, Control_c, 0, 67, 94
1, 1035759, Control_c, 0, 64, 48
1, 1035778, Control_c, 0, 64, 45
1, 1035779, Control_c, 0, 67, 89
1, 1035796, Control_c, 0, 64, 42
1, 1035815, Control_c, 0, 67, 82
1, 1035835, Control_c, 0, 64, 35
1, 1035835, Control_c, 0, 67, 78
1, 1035852, Control_c, 0, 67, 74
1, 1035871, Control_c, 0, 64, 28
1, 1035892, Control_c, 0, 64, 24
1, 1035893, Control_c, 0, 67, 68
1, 1035918, Note_on_c, 0, 77, 81
1, 1035919, Poly_aftertouch_c, 0, 72, 28
1, 1035920, Poly_aftertouch_c, 0, 77, 28
1, 1035923, Note_on_c, 0, 72, 76
1, 1035927, Note_on_c, 0, 48, 42
1, 1035927, Note_on_c, 0, 53, 52
1, 1035927, Control_c, 0, 64, 16
1, 1035928, Note_on_c, 0, 57, 53
1, 1035929, Poly_aftertouch_c, 0, 48, 28
1, 1035929, Poly_aftertouch_c, 0, 53, 28
1, 1035930, Poly_aftertouch_c, 0, 57, 28
1, 1035932, Note_on_c, 0, 69, 72
1, 1035932, Poly_aftertouch_c, 0, 69, 28
1, 1035952, Control_c, 0, 64, 12
1, 1036002, Control_c, 0, 67, 64
1, 1036020, Control_c, 0, 64, 0
1, 1036077, Control_c, 0, 67, 60
1, 1036272, Poly_aftertouch_c, 0, 67, 28
1, 1036275, Note_on_c, 0, 67, 82
1, 1036282, Poly_aftertouch_c, 0, 59, 28
1, 1036285, Note_on_c, 0, 59, 66
1, 1036294, Note_off_c, 0, 77, 60
1, 1036339, Control_c, 0, 64, 13
1, 1036345, Note_off_c, 0, 69, 39
1, 1036348, Note_off_c, 0, 48, 34
1, 1036359, Control_c, 0, 64, 26
1, 1036362, Note_off_c, 0, 72, 52
1, 1036365, Note_off_c, 0, 57, 55
1, 1036378, Control_c, 0, 64, 47
1, 1036396, Control_c, 0, 64, 69
1, 1036410, Note_off_c, 0, 67, 56
1, 1036414, Control_c, 0, 64, 87
1, 1036433, Control_c, 0, 64, 124
1, 1036440, Note_off_c, 0, 53, 35
1, 1036448, Note_off_c, 0, 59, 54
1, 1036809, Control_c, 0, 67, 53
1, 1036826, Control_c, 0, 67, 49
1, 1036881, Control_c, 0, 67, 45
1, 1037084, Poly_aftertouch_c, 0, 65, 28
1, 1037085, Poly_aftertouch_c, 0, 72, 28
1, 1037088, Note_on_c, 0, 72, 80
1, 1037090, Note_on_c, 0, 65, 78
1, 1037092, Note_on_c, 0, 69, 71
1, 1037094, Note_on_c, 0, 57, 54
1, 1037097, Note_on_c, 0, 53, 49
1, 1037097, Poly_aftertouch_c, 0, 53, 28
1, 1037097, Poly_aftertouch_c, 0, 57, 28
1, 1037098, Poly_aftertouch_c, 0, 60, 28
1, 1037099, Note_on_c, 0, 60, 57
1, 1037100, Poly_aftertouch_c, 0, 69, 28
1, 1037106, Control_c, 0, 64, 103
1, 1037126, Control_c, 0, 64, 88
1, 1037144, Control_c, 0, 64, 73
1, 1037162, Control_c, 0, 64, 61
1, 1037182, Control_c, 0, 64, 50
1, 1037200, Control_c, 0, 64, 44
1, 1037219, Control_c, 0, 64, 38
1, 1037239, Control_c, 0, 64, 34
1, 1037257, Control_c, 0, 64, 30
1, 1037274, Control_c, 0, 64, 26
1, 1037312, Control_c, 0, 64, 21
1, 1037574, Control_c, 0, 67, 39
1, 1037611, Note_on_c, 0, 64, 84
1, 1037611, Poly_aftertouch_c, 0, 64, 28
1, 1037611, Control_c, 0, 67, 32
1, 1037649, Control_c, 0, 67, 28
1, 1037670, Note_off_c, 0, 65, 60
1, 1037726, Control_c, 0, 64, 17
1, 1037780, Control_c, 0, 64, 12
1, 1037893, Control_c, 0, 64, 0
1, 1038492, Control_c, 0, 64, 9
1, 1038493, Control_c, 0, 67, 32
1, 1038530, Control_c, 0, 64, 13
1, 1038567, Control_c, 0, 64, 19
1, 1038604, Control_c, 0, 64, 27
1, 1038622, Control_c, 0, 64, 35
1, 1038642, Control_c, 0, 64, 46
1, 1038660, Control_c, 0, 64, 57
1, 1038679, Control_c, 0, 64, 61
1, 1038697, Control_c, 0, 64, 62
1, 1038735, Control_c, 0, 64, 64
1, 1038754, Control_c, 0, 64, 65
1, 1038772, Control_c, 0, 64, 67
1, 1038792, Control_c, 0, 64, 71
1, 1038809, Control_c, 0, 64, 76
1, 1038829, Control_c, 0, 64, 82
1, 1038848, Control_c, 0, 64, 90
1, 1038867, Control_c, 0, 64, 102
1, 1038885, Control_c, 0, 64, 127
1, 1039222, Control_c, 0, 67, 36
1, 1039338, Poly_aftertouch_c, 0, 60, 24
1, 1039397, Note_off_c, 0, 57, 33
1, 1039402, Note_off_c, 0, 60, 34
1, 1039430, Note_off_c, 0, 53, 46
1, 1039480, Note_off_c, 0, 72, 50
1, 1039577, Control_c, 0, 67, 40
1, 1039597, Note_off_c, 0, 64, 51
1, 1039609, Note_off_c, 0, 69, 34
1, 1039672, Control_c, 0, 67, 44
1, 1039765, Control_c, 0, 67, 48
1, 1039839, Control_c, 0, 67, 52
1, 1039895, Control_c, 0, 67, 56
1, 1039933, Control_c, 0, 67, 60
1, 1039970, Control_c, 0, 67, 66
1, 1040008, Control_c, 0, 67, 71
1, 1040045, Control_c, 0, 67, 76
1, 1040101, Control_c, 0, 67, 81
1, 1040176, Control_c, 0, 67, 86
1, 1040251, Control_c, 0, 67, 91
1, 1040308, Control_c, 0, 67, 96
1, 1040383, Control_c, 0, 67, 100
1, 1040458, Control_c, 0, 67, 105
1, 1041412, Control_c, 0, 67, 101
1, 1041423, Poly_aftertouch_c, 0, 71, 28
1, 1041426, Note_on_c, 0, 71, 71
1, 1041437, Poly_aftertouch_c, 0, 54, 28
1, 1041443, Poly_aftertouch_c, 0, 47, 28
1, 1041444, Poly_aftertouch_c, 0, 57, 28
1, 1041451, Note_on_c, 0, 54, 33
1, 1041452, Note_on_c, 0, 47, 34
1, 1041453, Poly_aftertouch_c, 0, 63, 28
1, 1041456, Note_on_c, 0, 57, 47
1, 1041458, Note_on_c, 0, 63, 49
1, 1041462, Poly_aftertouch_c, 0, 42, 28
1, 1041471, Note_on_c, 0, 42, 26
1, 1041486, Control_c, 0, 64, 117
1, 1041506, Control_c, 0, 64, 96
1, 1041524, Control_c, 0, 64, 81
1, 1041544, Control_c, 0, 64, 67
1, 1041561, Control_c, 0, 64, 55
1, 1041580, Control_c, 0, 64, 45
1, 1041599, Control_c, 0, 64, 36
1, 1041617, Control_c, 0, 64, 27
1, 1041637, Control_c, 0, 64, 18
1, 1041655, Control_c, 0, 64, 10
1, 1041692, Control_c, 0, 64, 0
1, 1041993, Control_c, 0, 64, 8
1, 1042030, Control_c, 0, 64, 13
1, 1042048, Control_c, 0, 64, 17
1, 1042068, Control_c, 0, 64, 22
1, 1042086, Control_c, 0, 64, 27
1, 1042104, Control_c, 0, 64, 34
1, 1042123, Control_c, 0, 64, 47
1, 1042142, Control_c, 0, 64, 59
1, 1042160, Control_c, 0, 64, 66
1, 1042179, Control_c, 0, 64, 69
1, 1042199, Control_c, 0, 64, 71
1, 1042217, Control_c, 0, 64, 73
1, 1042236, Control_c, 0, 64, 76
1, 1042254, Control_c, 0, 64, 81
1, 1042274, Control_c, 0, 64, 89
1, 1042291, Control_c, 0, 64, 99
1, 1042310, Control_c, 0, 64, 111
1, 1042330, Control_c, 0, 64, 127
1, 1042826, Poly_aftertouch_c, 0, 69, 28
1, 1042829, Note_on_c, 0, 69, 63
1, 1043007, Note_off_c, 0, 54, 42
1, 1043067, Note_off_c, 0, 47, 41
1, 1043068, Note_off_c, 0, 63, 35
1, 1043081, Note_off_c, 0, 57, 38
1, 1043166, Note_off_c, 0, 71, 47
1, 1043172, Note_off_c, 0, 42, 32
1, 1043721, Note_off_c, 0, 69, 51
1, 1043888, Poly_aftertouch_c, 0, 71, 28
1, 1043891, Note_on_c, 0, 71, 60
1, 1043911, Poly_aftertouch_c, 0, 68, 28
1, 1043921, Note_on_c, 0, 68, 52
1, 1043932, Note_on_c, 0, 59, 33
1, 1043932, Poly_aftertouch_c, 0, 59, 28
1, 1043937, Poly_aftertouch_c, 0, 35, 28
1, 1043939, Note_on_c, 0, 35, 26
1, 1043939, Poly_aftertouch_c, 0, 47, 28
1, 1043939, Control_c, 0, 64, 116
1, 1043948, Note_on_c, 0, 47, 29
1, 1043956, Control_c, 0, 64, 97
1, 1043976, Control_c, 0, 64, 82
1, 1043996, Control_c, 0, 64, 67
1, 1044014, Control_c, 0, 64, 53
1, 1044018, Note_off_c, 0, 35, 0
1, 1044018, Poly_aftertouch_c, 0, 35, 28
1, 1044033, Control_c, 0, 64, 39
1, 1044038, Note_off_c, 0, 59, 0
1, 1044038, Poly_aftertouch_c, 0, 59, 28
1, 1044051, Control_c, 0, 64, 23
1, 1044071, Control_c, 0, 64, 12
1, 1044107, Control_c, 0, 64, 8
1, 1044220, Control_c, 0, 64, 17
1, 1044238, Control_c, 0, 64, 25
1, 1044259, Control_c, 0, 64, 35
1, 1044276, Control_c, 0, 64, 50
1, 1044294, Control_c, 0, 64, 65
1, 1044313, Control_c, 0, 64, 74
1, 1044332, Control_c, 0, 64, 83
1, 1044352, Control_c, 0, 64, 95
1, 1044369, Control_c, 0, 64, 114
1, 1044388, Control_c, 0, 64, 127
1, 1044628, Note_off_c, 0, 68, 36
1, 1044653, Poly_aftertouch_c, 0, 59, 0
1, 1045273, Poly_aftertouch_c, 0, 66, 28
1, 1045284, Note_on_c, 0, 66, 44
1, 1045305, Poly_aftertouch_c, 0, 57, 28
1, 1045305, Control_c, 0, 64, 121
1, 1045311, Poly_aftertouch_c, 0, 63, 28
1, 1045317, Note_on_c, 0, 63, 34
1, 1045319, Note_on_c, 0, 57, 21
1, 1045324, Control_c, 0, 64, 93
1, 1045345, Control_c, 0, 64, 73
1, 1045361, Control_c, 0, 64, 56
1, 1045381, Control_c, 0, 64, 42
1, 1045399, Control_c, 0, 64, 32
1, 1045419, Control_c, 0, 64, 28
1, 1045493, Control_c, 0, 64, 35
1, 1045511, Control_c, 0, 64, 45
1, 1045530, Control_c, 0, 64, 58
1, 1045549, Control_c, 0, 64, 67
1, 1045568, Control_c, 0, 64, 73
1, 1045586, Control_c, 0, 64, 80
1, 1045606, Control_c, 0, 64, 89
1, 1045624, Control_c, 0, 64, 100
1, 1045642, Control_c, 0, 64, 116
1, 1045661, Control_c, 0, 64, 127
1, 1045682, Note_off_c, 0, 47, 34
1, 1046050, Poly_aftertouch_c, 0, 35, 0
1, 1046915, Control_c, 0, 67, 105
1, 1047028, Control_c, 0, 67, 112
1, 1047046, Control_c, 0, 67, 122
1, 1047065, Control_c, 0, 67, 127
1, 1047474, Poly_aftertouch_c, 0, 28, 28
1, 1047484, Note_on_c, 0, 28, 35
1, 1047531, Poly_aftertouch_c, 0, 40, 28
1, 1047544, Note_on_c, 0, 40, 14
1, 1047550, Control_c, 0, 64, 121
1, 1047570, Control_c, 0, 64, 105
1, 1047589, Control_c, 0, 64, 93
1, 1047609, Control_c, 0, 64, 82
1, 1047627, Control_c, 0, 64, 70
1, 1047645, Control_c, 0, 64, 60
1, 1047666, Control_c, 0, 64, 50
1, 1047668, Note_off_c, 0, 40, 0
1, 1047668, Poly_aftertouch_c, 0, 40, 28
1, 1047682, Control_c, 0, 64, 40
1, 1047701, Control_c, 0, 64, 30
1, 1047720, Control_c, 0, 64, 24
1, 1047851, Control_c, 0, 64, 31
1, 1047870, Control_c, 0, 64, 40
1, 1047889, Control_c, 0, 64, 52
1, 1047907, Control_c, 0, 64, 64
1, 1047926, Control_c, 0, 64, 72
1, 1047945, Control_c, 0, 64, 78
1, 1047964, Control_c, 0, 64, 87
1, 1047982, Control_c, 0, 64, 98
1, 1048001, Control_c, 0, 64, 116
1, 1048020, Control_c, 0, 64, 127
1, 1048121, Note_off_c, 0, 57, 39
1, 1048155, Note_off_c, 0, 63, 37
1, 1048437, Note_off_c, 0, 66, 42
1, 1050142, Poly_aftertouch_c, 0, 64, 28
1, 1050146, Poly_aftertouch_c, 0, 56, 28
1, 1050150, Note_on_c, 0, 64, 36
1, 1050157, Note_on_c, 0, 56, 30
1, 1050434, Control_c, 0, 64, 112
1, 1050453, Control_c, 0, 64, 103
1, 1050471, Control_c, 0, 64, 93
1, 1050491, Control_c, 0, 64, 80
1, 1050509, Control_c, 0, 64, 68
1, 1050528, Control_c, 0, 64, 57
1, 1050547, Control_c, 0, 64, 49
1, 1050566, Control_c, 0, 64, 43
1, 1050584, Control_c, 0, 64, 41
1, 1050677, Control_c, 0, 64, 47
1, 1050696, Control_c, 0, 64, 52
1, 1050714, Control_c, 0, 64, 57
1, 1050733, Control_c, 0, 64, 60
1, 1050753, Control_c, 0, 64, 62
1, 1050771, Control_c, 0, 64, 64
1, 1050790, Control_c, 0, 64, 66
1, 1050809, Control_c, 0, 64, 68
1, 1050828, Control_c, 0, 64, 70
1, 1050846, Control_c, 0, 64, 73
1, 1050866, Control_c, 0, 64, 76
1, 1050883, Control_c, 0, 64, 79
1, 1050903, Control_c, 0, 64, 84
1, 1050921, Control_c, 0, 64, 88
1, 1050959, Control_c, 0, 64, 93
1, 1051090, Control_c, 0, 64, 97
1, 1051221, Control_c, 0, 64, 101
1, 1051295, Control_c, 0, 64, 105
1, 1051821, Poly_aftertouch_c, 0, 40, 24
1, 1051856, Control_c, 0, 64, 109
1, 1051969, Control_c, 0, 64, 113
1, 1052030, Poly_aftertouch_c, 0, 56, 24
1, 1052137, Note_off_c, 0, 71, 34
1, 1052216, Note_off_c, 0, 56, 20
1, 1052270, Poly_aftertouch_c, 0, 64, 24
1, 1052499, Poly_aftertouch_c, 0, 28, 24
1, 1052568, Poly_aftertouch_c, 0, 40, 22
1, 1052607, Poly_aftertouch_c, 0, 64, 22
1, 1052642, Note_off_c, 0, 28, 29
1, 1052659, Note_off_c, 0, 64, 19
1, 1052668, Poly_aftertouch_c, 0, 40, 0
1, 1052755, Control_c, 0, 64, 105
1, 1052775, Control_c, 0, 64, 97
1, 1052793, Control_c, 0, 64, 87
1, 1052812, Control_c, 0, 64, 77
1, 1052830, Control_c, 0, 64, 67
1, 1052849, Control_c, 0, 64, 59
1, 1052867, Control_c, 0, 64, 53
1, 1052886, Control_c, 0, 64, 48
1, 1052906, Control_c, 0, 64, 45
1, 1052923, Control_c, 0, 64, 42
1, 1052962, Control_c, 0, 64, 34
1, 1052980, Control_c, 0, 64, 30
1, 1053017, Control_c, 0, 64, 26
1, 1053074, Control_c, 0, 64, 22
1, 1053186, Control_c, 0, 64, 18
1, 1053804, Control_c, 0, 67, 122
1, 1053878, Control_c, 0, 67, 117
1, 1053916, Control_c, 0, 67, 112
1, 1053972, Control_c, 0, 67, 106
1, 1054009, Control_c, 0, 67, 102
1, 1054047, Control_c, 0, 67, 98
1, 1054084, Control_c, 0, 67, 93
1, 1054122, Control_c, 0, 67, 89
1, 1054160, Control_c, 0, 67, 84
1, 1054197, Control_c, 0, 67, 77
1, 1054215, Control_c, 0, 67, 72
1, 1054235, Control_c, 0, 67, 66
1, 1054253, Control_c, 0, 67, 60
1, 1054272, Control_c, 0, 67, 54
1, 1054291, Control_c, 0, 67, 48
1, 1054309, Control_c, 0, 67, 42
1, 1054328, Control_c, 0, 67, 35
1, 1054347, Control_c, 0, 67, 28
1, 1054366, Control_c, 0, 67, 22
1, 1054384, Control_c, 0, 67, 15
1, 1054404, Control_c, 0, 67, 9
1, 1054477, Control_c, 0, 67, 0
1, 1055881, Control_c, 0, 64, 22
1, 1055937, Control_c, 0, 64, 27
1, 1055975, Control_c, 0, 64, 31
1, 1056013, Control_c, 0, 64, 36
1, 1056050, Control_c, 0, 64, 44
1, 1056068, Control_c, 0, 64, 50
1, 1056088, Control_c, 0, 64, 54
1, 1056089, Control_c, 0, 67, 9
1, 1056106, Control_c, 0, 64, 56
1, 1056143, Control_c, 0, 67, 14
1, 1056182, Control_c, 0, 64, 59
1, 1056184, Control_c, 0, 67, 20
1, 1056199, Control_c, 0, 64, 60
1, 1056218, Control_c, 0, 64, 62
1, 1056219, Control_c, 0, 67, 26
1, 1056237, Control_c, 0, 64, 63
1, 1056256, Control_c, 0, 67, 31
1, 1056274, Control_c, 0, 64, 65
1, 1056294, Control_c, 0, 64, 66
1, 1056295, Control_c, 0, 67, 38
1, 1056312, Control_c, 0, 64, 68
1, 1056313, Control_c, 0, 67, 43
1, 1056330, Control_c, 0, 67, 48
1, 1056350, Control_c, 0, 64, 70
1, 1056351, Control_c, 0, 67, 53
1, 1056368, Control_c, 0, 64, 72
1, 1056369, Control_c, 0, 67, 59
1, 1056387, Control_c, 0, 64, 74
1, 1056389, Control_c, 0, 67, 65
1, 1056405, Control_c, 0, 64, 77
1, 1056406, Control_c, 0, 67, 71
1, 1056425, Control_c, 0, 64, 80
1, 1056426, Control_c, 0, 67, 77
1, 1056444, Control_c, 0, 64, 84
1, 1056446, Control_c, 0, 67, 84
1, 1056462, Control_c, 0, 64, 88
1, 1056463, Control_c, 0, 67, 92
1, 1056480, Control_c, 0, 67, 100
1, 1056499, Control_c, 0, 64, 95
1, 1056500, Control_c, 0, 67, 108
1, 1056518, Control_c, 0, 64, 100
1, 1056518, Control_c, 0, 67, 117
1, 1056537, Control_c, 0, 64, 106
1, 1056538, Control_c, 0, 67, 126
1, 1056556, Control_c, 0, 64, 114
1, 1056574, Control_c, 0, 64, 127
1, 1056892, Poly_aftertouch_c, 0, 59, 28
1, 1056896, Note_on_c, 0, 59, 57
1, 1056911, Poly_aftertouch_c, 0, 28, 28
1, 1056920, Poly_aftertouch_c, 0, 40, 28
1, 1056923, Note_on_c, 0, 28, 30
1, 1056929, Note_on_c, 0, 40, 27
1, 1056930, Poly_aftertouch_c, 0, 68, 28
1, 1056940, Poly_aftertouch_c, 0, 71, 28
1, 1056941, Note_on_c, 0, 68, 40
1, 1056946, Note_on_c, 0, 71, 35
1, 1057163, Note_off_c, 0, 28, 38
1, 1057176, Poly_aftertouch_c, 0, 40, 24
1, 1057230, Note_off_c, 0, 40, 38
1, 1057267, Poly_aftertouch_c, 0, 71, 22
1, 1057299, Note_off_c, 0, 71, 28
1, 1057310, Note_off_c, 0, 59, 53
1, 1057345, Note_off_c, 0, 68, 30
1, 1057621, Poly_aftertouch_c, 0, 60, 28
1, 1057621, Control_c, 0, 64, 121
1, 1057625, Note_on_c, 0, 60, 62
1, 1057641, Control_c, 0, 64, 90
1, 1057642, Poly_aftertouch_c, 0, 68, 28
1, 1057643, Poly_aftertouch_c, 0, 71, 28
1, 1057649, Note_on_c, 0, 71, 42
1, 1057652, Poly_aftertouch_c, 0, 45, 28
1, 1057657, Note_on_c, 0, 68, 39
1, 1057660, Control_c, 0, 64, 70
1, 1057661, Note_on_c, 0, 45, 33
1, 1057661, Poly_aftertouch_c, 0, 33, 28
1, 1057678, Control_c, 0, 64, 57
1, 1057697, Control_c, 0, 64, 52
1, 1057710, Poly_aftertouch_c, 0, 33, 127
1, 1057735, Control_c, 0, 64, 54
1, 1057753, Control_c, 0, 64, 59
1, 1057772, Control_c, 0, 64, 64
1, 1057791, Control_c, 0, 64, 72
1, 1057808, Control_c, 0, 64, 82
1, 1057828, Control_c, 0, 64, 103
1, 1057847, Control_c, 0, 64, 127
1, 1057952, Note_off_c, 0, 71, 55
1, 1057959, Note_off_c, 0, 45, 41
1, 1057964, Note_off_c, 0, 60, 59
1, 1057979, Poly_aftertouch_c, 0, 33, 0
1, 1058012, Note_off_c, 0, 68, 42
1, 1058246, Poly_aftertouch_c, 0, 61, 28
1, 1058252, Note_on_c, 0, 61, 65
1, 1058257, Poly_aftertouch_c, 0, 42, 28
1, 1058260, Control_c, 0, 64, 93
1, 1058265, Note_on_c, 0, 42, 36
1, 1058266, Poly_aftertouch_c, 0, 66, 28
1, 1058268, Poly_aftertouch_c, 0, 30, 28
1, 1058273, Note_on_c, 0, 66, 47
1, 1058276, Note_on_c, 0, 30, 36
1, 1058278, Control_c, 0, 64, 69
1, 1058288, Poly_aftertouch_c, 0, 69, 28
1, 1058290, Note_on_c, 0, 69, 43
1, 1058296, Control_c, 0, 64, 55
1, 1058316, Control_c, 0, 64, 49
1, 1058353, Control_c, 0, 64, 52
1, 1058371, Control_c, 0, 64, 59
1, 1058391, Control_c, 0, 64, 66
1, 1058408, Control_c, 0, 64, 75
1, 1058418, Note_off_c, 0, 69, 56
1, 1058426, Control_c, 0, 64, 89
1, 1058445, Control_c, 0, 64, 127
1, 1058454, Note_off_c, 0, 30, 49
1, 1058481, Note_off_c, 0, 66, 59
1, 1058523, Note_off_c, 0, 42, 48
1, 1058732, Note_off_c, 0, 61, 37
1, 1058812, Poly_aftertouch_c, 0, 69, 28
1, 1058816, Note_on_c, 0, 69, 58
1, 1058817, Poly_aftertouch_c, 0, 62, 28
1, 1058819, Note_on_c, 0, 62, 64
1, 1058820, Control_c, 0, 64, 83
1, 1058823, Poly_aftertouch_c, 0, 47, 28
1, 1058831, Note_on_c, 0, 47, 45
1, 1058836, Poly_aftertouch_c, 0, 66, 28
1, 1058840, Control_c, 0, 64, 63
1, 1058841, Note_on_c, 0, 66, 49
1, 1058841, Poly_aftertouch_c, 0, 35, 28
1, 1058846, Note_on_c, 0, 35, 32
1, 1058858, Control_c, 0, 64, 50
1, 1058876, Control_c, 0, 64, 47
1, 1058914, Control_c, 0, 64, 52
1, 1058932, Control_c, 0, 64, 60
1, 1058951, Control_c, 0, 64, 67
1, 1058969, Control_c, 0, 64, 75
1, 1058989, Control_c, 0, 64, 86
1, 1059000, Note_off_c, 0, 47, 60
1, 1059007, Control_c, 0, 64, 105
1, 1059025, Control_c, 0, 64, 127
1, 1059044, Note_off_c, 0, 35, 52
1, 1059078, Note_off_c, 0, 69, 53
1, 1059099, Note_off_c, 0, 66, 57
1, 1059103, Poly_aftertouch_c, 0, 63, 28
1, 1059108, Note_on_c, 0, 63, 68
1, 1059137, Note_off_c, 0, 62, 58
1, 1059382, Control_c, 0, 64, 87
1, 1059401, Control_c, 0, 64, 62
1, 1059416, Poly_aftertouch_c, 0, 69, 28
1, 1059418, Control_c, 0, 64, 38
1, 1059420, Note_on_c, 0, 69, 61
1, 1059420, Poly_aftertouch_c, 0, 40, 28
1, 1059422, Note_off_c, 0, 63, 63
1, 1059423, Poly_aftertouch_c, 0, 66, 28
1, 1059429, Note_on_c, 0, 66, 57
1, 1059431, Note_on_c, 0, 40, 33
1, 1059438, Poly_aftertouch_c, 0, 28, 28
1, 1059438, Control_c, 0, 64, 21
1, 1059450, Note_on_c, 0, 28, 23
1, 1059455, Control_c, 0, 64, 16
1, 1059533, Control_c, 0, 64, 24
1, 1059550, Control_c, 0, 64, 38
1, 1059569, Control_c, 0, 64, 59
1, 1059588, Note_off_c, 0, 28, 58
1, 1059588, Control_c, 0, 64, 78
1, 1059606, Control_c, 0, 64, 105
1, 1059625, Control_c, 0, 64, 127
1, 1059637, Note_off_c, 0, 40, 50
1, 1059663, Control_c, 0, 67, 122
1, 1059700, Control_c, 0, 67, 118
1, 1059701, Note_off_c, 0, 69, 59
1, 1059709, Note_off_c, 0, 66, 52
1, 1059717, Poly_aftertouch_c, 0, 64, 28
1, 1059723, Note_on_c, 0, 64, 56
1, 1059943, Control_c, 0, 64, 90
1, 1059962, Control_c, 0, 64, 67
1, 1059980, Control_c, 0, 64, 52
1, 1059990, Poly_aftertouch_c, 0, 52, 28
1, 1059993, Poly_aftertouch_c, 0, 68, 28
1, 1059997, Note_on_c, 0, 52, 37
1, 1059998, Note_on_c, 0, 59, 40
1, 1060000, Note_on_c, 0, 68, 51
1, 1060000, Poly_aftertouch_c, 0, 40, 28
1, 1060000, Poly_aftertouch_c, 0, 59, 28
1, 1060000, Control_c, 0, 64, 50
1, 1060001, Note_off_c, 0, 64, 60
1, 1060009, Note_on_c, 0, 40, 24
1, 1060017, Control_c, 0, 64, 52
1, 1060038, Control_c, 0, 64, 58
1, 1060056, Control_c, 0, 64, 65
1, 1060074, Control_c, 0, 64, 72
1, 1060093, Control_c, 0, 64, 81
1, 1060100, Note_off_c, 0, 68, 60
1, 1060113, Control_c, 0, 64, 94
1, 1060131, Control_c, 0, 64, 115
1, 1060149, Control_c, 0, 64, 127
1, 1060239, Note_off_c, 0, 52, 38
1, 1060260, Poly_aftertouch_c, 0, 56, 28
1, 1060267, Note_on_c, 0, 56, 58
1, 1060274, Note_off_c, 0, 40, 38
1, 1060310, Note_off_c, 0, 59, 51
1, 1060323, Note_off_c, 0, 56, 59
1, 1060672, Poly_aftertouch_c, 0, 47, 28
1, 1060672, Control_c, 0, 64, 108
1, 1060674, Poly_aftertouch_c, 0, 68, 28
1, 1060680, Note_on_c, 0, 68, 71
1, 1060683, Note_on_c, 0, 47, 36
1, 1060689, Poly_aftertouch_c, 0, 35, 28
1, 1060691, Control_c, 0, 64, 86
1, 1060692, Note_on_c, 0, 35, 36
1, 1060701, Poly_aftertouch_c, 0, 56, 28
1, 1060709, Note_on_c, 0, 56, 18
1, 1060709, Control_c, 0, 64, 68
1, 1060710, Poly_aftertouch_c, 0, 64, 28
1, 1060715, Note_on_c, 0, 64, 42
1, 1060729, Control_c, 0, 64, 51
1, 1060748, Control_c, 0, 64, 37
1, 1060766, Control_c, 0, 64, 28
1, 1060842, Control_c, 0, 64, 32
1, 1060861, Control_c, 0, 64, 43
1, 1060879, Control_c, 0, 64, 60
1, 1060898, Control_c, 0, 64, 76
1, 1060918, Control_c, 0, 64, 98
1, 1060935, Control_c, 0, 64, 127
1, 1060948, Note_off_c, 0, 35, 37
1, 1060954, Control_c, 0, 67, 113
1, 1060972, Control_c, 0, 67, 107
1, 1060993, Control_c, 0, 67, 100
1, 1061010, Control_c, 0, 67, 95
1, 1061028, Note_off_c, 0, 47, 41
1, 1061029, Control_c, 0, 67, 91
1, 1061067, Control_c, 0, 67, 87
1, 1061084, Note_off_c, 0, 68, 57
1, 1061088, Note_off_c, 0, 56, 41
1, 1061130, Note_off_c, 0, 64, 35
1, 1061313, Poly_aftertouch_c, 0, 68, 28
1, 1061321, Note_on_c, 0, 68, 76
1, 1061335, Poly_aftertouch_c, 0, 57, 28
1, 1061340, Poly_aftertouch_c, 0, 36, 28
1, 1061343, Poly_aftertouch_c, 0, 64, 28
1, 1061346, Note_on_c, 0, 36, 36
1, 1061347, Note_on_c, 0, 64, 52
1, 1061347, Note_on_c, 0, 57, 38
1, 1061347, Control_c, 0, 64, 91
1, 1061349, Poly_aftertouch_c, 0, 48, 28
1, 1061355, Note_on_c, 0, 48, 34
1, 1061366, Control_c, 0, 64, 69
1, 1061385, Control_c, 0, 64, 53
1, 1061404, Control_c, 0, 64, 41
1, 1061421, Control_c, 0, 64, 35
1, 1061498, Control_c, 0, 64, 44
1, 1061515, Control_c, 0, 64, 57
1, 1061535, Control_c, 0, 64, 71
1, 1061555, Control_c, 0, 64, 86
1, 1061565, Note_off_c, 0, 48, 52
1, 1061571, Control_c, 0, 64, 116
1, 1061584, Note_off_c, 0, 64, 55
1, 1061590, Control_c, 0, 64, 127
1, 1061600, Note_off_c, 0, 57, 52
1, 1061858, Note_off_c, 0, 36, 39
1, 1061873, Control_c, 0, 64, 84
1, 1061887, Poly_aftertouch_c, 0, 37, 28
1, 1061890, Control_c, 0, 64, 62
1, 1061893, Poly_aftertouch_c, 0, 64, 28
1, 1061894, Poly_aftertouch_c, 0, 66, 28
1, 1061899, Note_on_c, 0, 64, 57
1, 1061900, Note_on_c, 0, 66, 68
1, 1061902, Note_on_c, 0, 37, 32
1, 1061902, Poly_aftertouch_c, 0, 49, 28
1, 1061907, Note_on_c, 0, 49, 41
1, 1061908, Control_c, 0, 64, 44
1, 1061914, Poly_aftertouch_c, 0, 58, 28
1, 1061922, Note_on_c, 0, 58, 41
1, 1061927, Control_c, 0, 64, 34
1, 1061983, Control_c, 0, 64, 40
1, 1061996, Note_off_c, 0, 68, 50
1, 1062003, Control_c, 0, 64, 52
1, 1062020, Control_c, 0, 64, 67
1, 1062041, Control_c, 0, 64, 84
1, 1062059, Control_c, 0, 64, 127
1, 1062067, Note_off_c, 0, 64, 58
1, 1062094, Note_off_c, 0, 49, 50
1, 1062170, Note_off_c, 0, 58, 53
1, 1062182, Note_off_c, 0, 37, 41
1, 1062471, Control_c, 0, 64, 96
1, 1062473, Note_off_c, 0, 66, 63
1, 1062483, Poly_aftertouch_c, 0, 65, 28
1, 1062487, Note_on_c, 0, 65, 66
1, 1062487, Poly_aftertouch_c, 0, 58, 28
1, 1062488, Control_c, 0, 64, 69
1, 1062492, Poly_aftertouch_c, 0, 30, 28
1, 1062494, Poly_aftertouch_c, 0, 64, 28
1, 1062498, Note_on_c, 0, 58, 44
1, 1062499, Note_on_c, 0, 64, 54
1, 1062502, Note_on_c, 0, 30, 35
1, 1062506, Poly_aftertouch_c, 0, 42, 28
1, 1062507, Control_c, 0, 64, 49
1, 1062517, Note_on_c, 0, 42, 31
1, 1062525, Control_c, 0, 64, 41
1, 1062563, Control_c, 0, 64, 45
1, 1062583, Control_c, 0, 64, 56
1, 1062601, Control_c, 0, 64, 68
1, 1062619, Control_c, 0, 64, 81
1, 1062639, Control_c, 0, 64, 105
1, 1062647, Note_off_c, 0, 30, 54
1, 1062657, Control_c, 0, 64, 127
1, 1062763, Note_off_c, 0, 64, 34
1, 1062777, Poly_aftertouch_c, 0, 66, 28
1, 1062784, Note_on_c, 0, 66, 72
1, 1062794, Note_off_c, 0, 58, 56
1, 1062820, Note_off_c, 0, 65, 60
1, 1062835, Note_off_c, 0, 42, 41
1, 1063087, Control_c, 0, 64, 103
1, 1063107, Control_c, 0, 64, 72
1, 1063116, Poly_aftertouch_c, 0, 69, 28
1, 1063121, Note_on_c, 0, 69, 61
1, 1063124, Control_c, 0, 64, 49
1, 1063128, Note_off_c, 0, 66, 54
1, 1063132, Poly_aftertouch_c, 0, 63, 28
1, 1063138, Poly_aftertouch_c, 0, 57, 28
1, 1063143, Control_c, 0, 64, 30
1, 1063144, Note_on_c, 0, 63, 40
1, 1063144, Note_on_c, 0, 57, 37
1, 1063145, Poly_aftertouch_c, 0, 35, 28
1, 1063147, Note_on_c, 0, 35, 35
1, 1063163, Control_c, 0, 64, 19
1, 1063257, Control_c, 0, 64, 29
1, 1063275, Control_c, 0, 64, 45
1, 1063295, Control_c, 0, 64, 68
1, 1063313, Control_c, 0, 64, 89
1, 1063327, Note_off_c, 0, 35, 53
1, 1063329, Control_c, 0, 64, 127
1, 1063428, Poly_aftertouch_c, 0, 66, 28
1, 1063434, Note_on_c, 0, 66, 63
1, 1063438, Note_off_c, 0, 69, 52
1, 1063441, Note_off_c, 0, 63, 51
1, 1063480, Note_off_c, 0, 57, 39
1, 1063687, Control_c, 0, 64, 113
1, 1063705, Control_c, 0, 64, 80
1, 1063707, Poly_aftertouch_c, 0, 64, 28
1, 1063713, Note_on_c, 0, 64, 52
1, 1063713, Poly_aftertouch_c, 0, 47, 28
1, 1063720, Note_on_c, 0, 47, 34
1, 1063720, Poly_aftertouch_c, 0, 54, 28
1, 1063720, Poly_aftertouch_c, 0, 57, 28
1, 1063724, Control_c, 0, 64, 61
1, 1063726, Note_on_c, 0, 57, 35
1, 1063728, Note_off_c, 0, 66, 48
1, 1063728, Note_on_c, 0, 54, 33
1, 1063743, Control_c, 0, 64, 48
1, 1063800, Control_c, 0, 64, 55
1, 1063818, Control_c, 0, 64, 64
1, 1063837, Control_c, 0, 64, 71
1, 1063856, Control_c, 0, 64, 80
1, 1063875, Control_c, 0, 64, 96
1, 1063893, Control_c, 0, 64, 127
1, 1063925, Note_off_c, 0, 54, 50
1, 1063994, Poly_aftertouch_c, 0, 63, 28
1, 1063995, Note_off_c, 0, 64, 54
1, 1064004, Note_on_c, 0, 63, 55
1, 1064006, Note_off_c, 0, 47, 40
1, 1064042, Note_off_c, 0, 57, 38
1, 1064085, Note_off_c, 0, 63, 62
1, 1064403, Poly_aftertouch_c, 0, 61, 28
1, 1064406, Note_on_c, 0, 61, 65
1, 1064415, Control_c, 0, 64, 97
1, 1064417, Poly_aftertouch_c, 0, 30, 28
1, 1064424, Poly_aftertouch_c, 0, 42, 28
1, 1064426, Note_on_c, 0, 30, 40
1, 1064434, Note_on_c, 0, 42, 35
1, 1064434, Control_c, 0, 64, 75
1, 1064436, Poly_aftertouch_c, 0, 69, 28
1, 1064441, Note_on_c, 0, 69, 41
1, 1064442, Poly_aftertouch_c, 0, 73, 28
1, 1064449, Note_on_c, 0, 73, 40
1, 1064453, Control_c, 0, 64, 57
1, 1064474, Control_c, 0, 64, 44
1, 1064491, Control_c, 0, 64, 38
1, 1064548, Control_c, 0, 64, 44
1, 1064567, Control_c, 0, 64, 55
1, 1064585, Control_c, 0, 64, 67
1, 1064605, Control_c, 0, 64, 79
1, 1064606, Control_c, 0, 67, 83
1, 1064623, Control_c, 0, 64, 101
1, 1064641, Control_c, 0, 64, 127
1, 1064662, Note_off_c, 0, 30, 46
1, 1064679, Control_c, 0, 67, 74
1, 1064697, Control_c, 0, 67, 68
1, 1064716, Control_c, 0, 67, 63
1, 1064734, Note_off_c, 0, 42, 48
1, 1064736, Control_c, 0, 67, 59
1, 1064756, Note_off_c, 0, 69, 34
1, 1064905, Note_off_c, 0, 73, 35
1, 1065001, Note_off_c, 0, 61, 35
1, 1065087, Poly_aftertouch_c, 0, 62, 28
1, 1065089, Note_on_c, 0, 62, 70
1, 1065092, Poly_aftertouch_c, 0, 47, 28
1, 1065101, Note_on_c, 0, 47, 44
1, 1065101, Poly_aftertouch_c, 0, 73, 28
1, 1065104, Poly_aftertouch_c, 0, 35, 28
1, 1065108, Note_on_c, 0, 73, 59
1, 1065108, Poly_aftertouch_c, 0, 69, 28
1, 1065110, Note_on_c, 0, 35, 38
1, 1065112, Note_on_c, 0, 69, 55
1, 1065128, Control_c, 0, 64, 102
1, 1065148, Control_c, 0, 64, 73
1, 1065166, Control_c, 0, 64, 53
1, 1065185, Control_c, 0, 64, 37
1, 1065204, Control_c, 0, 64, 32
1, 1065259, Control_c, 0, 64, 42
1, 1065278, Control_c, 0, 64, 57
1, 1065296, Control_c, 0, 64, 74
1, 1065316, Control_c, 0, 64, 100
1, 1065319, Control_c, 0, 67, 55
1, 1065334, Control_c, 0, 64, 127
1, 1065381, Note_off_c, 0, 69, 41
1, 1065435, Note_off_c, 0, 47, 36
1, 1065455, Note_off_c, 0, 35, 39
1, 1065464, Note_off_c, 0, 62, 59
1, 1065484, Control_c, 0, 67, 50
1, 1065504, Control_c, 0, 67, 45
1, 1065540, Control_c, 0, 67, 41
1, 1065638, Poly_aftertouch_c, 0, 63, 28
1, 1065642, Note_on_c, 0, 63, 80
1, 1065654, Poly_aftertouch_c, 0, 71, 28
1, 1065659, Poly_aftertouch_c, 0, 44, 28
1, 1065661, Note_on_c, 0, 71, 64
1, 1065663, Note_on_c, 0, 44, 55
1, 1065663, Note_on_c, 0, 69, 62
1, 1065663, Poly_aftertouch_c, 0, 69, 28
1, 1065666, Poly_aftertouch_c, 0, 32, 28
1, 1065670, Control_c, 0, 64, 82
1, 1065672, Note_on_c, 0, 32, 48
1, 1065690, Control_c, 0, 64, 59
1, 1065709, Control_c, 0, 64, 40
1, 1065728, Control_c, 0, 64, 32
1, 1065746, Note_off_c, 0, 73, 36
1, 1065785, Control_c, 0, 64, 40
1, 1065802, Control_c, 0, 64, 55
1, 1065822, Control_c, 0, 64, 74
1, 1065827, Note_off_c, 0, 69, 58
1, 1065839, Control_c, 0, 64, 103
1, 1065858, Control_c, 0, 64, 127
1, 1065868, Note_off_c, 0, 32, 50
1, 1065888, Note_off_c, 0, 71, 55
1, 1065939, Note_off_c, 0, 44, 60
1, 1066087, Note_off_c, 0, 63, 60
1, 1066166, Poly_aftertouch_c, 0, 71, 28
1, 1066172, Note_on_c, 0, 64, 76
1, 1066173, Poly_aftertouch_c, 0, 64, 28
1, 1066174, Note_on_c, 0, 71, 66
1, 1066176, Control_c, 0, 64, 82
1, 1066178, Poly_aftertouch_c, 0, 37, 28
1, 1066181, Note_on_c, 0, 49, 51
1, 1066181, Poly_aftertouch_c, 0, 49, 28
1, 1066183, Poly_aftertouch_c, 0, 68, 28
1, 1066187, Note_on_c, 0, 68, 63
1, 1066187, Note_on_c, 0, 37, 45
1, 1066195, Control_c, 0, 64, 58
1, 1066214, Control_c, 0, 64, 40
1, 1066232, Control_c, 0, 64, 34
1, 1066271, Control_c, 0, 64, 39
1, 1066289, Control_c, 0, 64, 50
1, 1066307, Control_c, 0, 64, 66
1, 1066326, Control_c, 0, 64, 82
1, 1066345, Control_c, 0, 64, 112
1, 1066363, Control_c, 0, 64, 127
1, 1066393, Note_off_c, 0, 49, 61
1, 1066455, Note_off_c, 0, 71, 60
1, 1066455, Poly_aftertouch_c, 0, 65, 28
1, 1066458, Note_on_c, 0, 65, 79
1, 1066466, Note_off_c, 0, 68, 57
1, 1066469, Note_off_c, 0, 37, 50
1, 1066500, Note_off_c, 0, 64, 59
1, 1066776, Control_c, 0, 64, 106
1, 1066777, Control_c, 0, 67, 45
1, 1066792, Poly_aftertouch_c, 0, 71, 28
1, 1066795, Control_c, 0, 64, 76
1, 1066796, Note_on_c, 0, 71, 71
1, 1066801, Poly_aftertouch_c, 0, 30, 28
1, 1066801, Poly_aftertouch_c, 0, 42, 28
1, 1066808, Note_on_c, 0, 30, 39
1, 1066809, Note_on_c, 0, 42, 39
1, 1066810, Note_on_c, 0, 68, 66
1, 1066810, Poly_aftertouch_c, 0, 68, 28
1, 1066812, Control_c, 0, 64, 51
1, 1066823, Note_off_c, 0, 65, 59
1, 1066831, Control_c, 0, 64, 30
1, 1066850, Control_c, 0, 64, 20
1, 1066926, Control_c, 0, 64, 24
1, 1066944, Control_c, 0, 64, 37
1, 1066963, Control_c, 0, 64, 59
1, 1066981, Control_c, 0, 64, 83
1, 1067001, Control_c, 0, 64, 127
1, 1067018, Note_off_c, 0, 30, 51
1, 1067076, Note_off_c, 0, 42, 59
1, 1067101, Poly_aftertouch_c, 0, 66, 28
1, 1067107, Note_off_c, 0, 71, 56
1, 1067109, Note_on_c, 0, 66, 72
1, 1067168, Note_off_c, 0, 68, 53
1, 1067379, Poly_aftertouch_c, 0, 54, 28
1, 1067380, Poly_aftertouch_c, 0, 61, 28
1, 1067385, Note_on_c, 0, 61, 61
1, 1067387, Note_on_c, 0, 54, 47
1, 1067387, Poly_aftertouch_c, 0, 42, 28
1, 1067390, Poly_aftertouch_c, 0, 69, 28
1, 1067392, Note_on_c, 0, 42, 45
1, 1067392, Control_c, 0, 64, 87
1, 1067393, Note_on_c, 0, 69, 63
1, 1067413, Control_c, 0, 64, 64
1, 1067431, Control_c, 0, 64, 47
1, 1067449, Control_c, 0, 64, 44
1, 1067476, Note_off_c, 0, 66, 56
1, 1067487, Control_c, 0, 64, 52
1, 1067505, Control_c, 0, 64, 63
1, 1067524, Control_c, 0, 64, 73
1, 1067543, Control_c, 0, 64, 88
1, 1067562, Control_c, 0, 64, 127
1, 1067613, Note_off_c, 0, 54, 59
1, 1067621, Note_off_c, 0, 42, 59
1, 1067654, Control_c, 0, 67, 41
1, 1067688, Poly_aftertouch_c, 0, 57, 28
1, 1067694, Note_on_c, 0, 57, 65
1, 1067715, Note_off_c, 0, 69, 36
1, 1067795, Note_off_c, 0, 61, 38
1, 1067824, Poly_aftertouch_c, 0, 69, 28
1, 1067825, Poly_aftertouch_c, 0, 69, 0
1, 1067882, Note_off_c, 0, 57, 60
1, 1068158, Poly_aftertouch_c, 0, 69, 28
1, 1068160, Note_on_c, 0, 69, 87
1, 1068183, Poly_aftertouch_c, 0, 38, 28
1, 1068184, Poly_aftertouch_c, 0, 50, 28
1, 1068185, Poly_aftertouch_c, 0, 60, 28
1, 1068188, Note_on_c, 0, 60, 63
1, 1068191, Note_on_c, 0, 38, 45
1, 1068194, Note_on_c, 0, 50, 49
1, 1068196, Note_on_c, 0, 66, 61
1, 1068196, Poly_aftertouch_c, 0, 66, 28
1, 1068216, Control_c, 0, 64, 104
1, 1068235, Control_c, 0, 64, 75
1, 1068254, Control_c, 0, 64, 48
1, 1068275, Control_c, 0, 64, 14
1, 1068292, Control_c, 0, 64, 0
1, 1068424, Control_c, 0, 64, 17
1, 1068442, Control_c, 0, 64, 30
1, 1068460, Control_c, 0, 64, 49
1, 1068461, Control_c, 0, 67, 37
1, 1068480, Control_c, 0, 64, 69
1, 1068481, Control_c, 0, 67, 32
1, 1068498, Control_c, 0, 64, 83
1, 1068498, Control_c, 0, 67, 26
1, 1068517, Control_c, 0, 64, 105
1, 1068519, Control_c, 0, 67, 21
1, 1068535, Control_c, 0, 64, 127
1, 1068536, Control_c, 0, 67, 17
1, 1068546, Note_off_c, 0, 50, 58
1, 1068592, Control_c, 0, 67, 13
1, 1068615, Note_off_c, 0, 66, 45
1, 1068693, Note_off_c, 0, 60, 36
1, 1068816, Note_off_c, 0, 69, 54
1, 1068934, Poly_aftertouch_c, 0, 69, 28
1, 1068937, Note_on_c, 0, 69, 94
1, 1068943, Poly_aftertouch_c, 0, 39, 28
1, 1068951, Note_on_c, 0, 39, 54
1, 1068951, Poly_aftertouch_c, 0, 51, 28
1, 1068955, Note_on_c, 0, 51, 53
1, 1068960, Note_on_c, 0, 66, 68
1, 1068960, Poly_aftertouch_c, 0, 66, 28
1, 1068964, Poly_aftertouch_c, 0, 59, 28
1, 1068966, Note_on_c, 0, 59, 65
1, 1068984, Control_c, 0, 64, 89
1, 1069003, Control_c, 0, 64, 64
1, 1069022, Control_c, 0, 64, 39
1, 1069039, Note_off_c, 0, 38, 36
1, 1069040, Control_c, 0, 64, 17
1, 1069059, Control_c, 0, 64, 11
1, 1069115, Control_c, 0, 64, 22
1, 1069134, Control_c, 0, 64, 36
1, 1069153, Control_c, 0, 64, 57
1, 1069154, Control_c, 0, 67, 8
1, 1069171, Control_c, 0, 64, 78
1, 1069191, Control_c, 0, 64, 116
1, 1069194, Control_c, 0, 67, 0
1, 1069209, Control_c, 0, 64, 127
1, 1069245, Note_off_c, 0, 66, 57
1, 1069288, Note_off_c, 0, 51, 50
1, 1069398, Note_off_c, 0, 39, 31
1, 1069476, Note_off_c, 0, 69, 55
1, 1069486, Note_off_c, 0, 59, 57
1, 1069606, Poly_aftertouch_c, 0, 68, 28
1, 1069610, Note_on_c, 0, 68, 95
1, 1069622, Note_on_c, 0, 52, 69
1, 1069623, Poly_aftertouch_c, 0, 52, 28
1, 1069625, Poly_aftertouch_c, 0, 66, 28
1, 1069627, Note_on_c, 0, 66, 81
1, 1069630, Note_on_c, 0, 40, 65
1, 1069631, Poly_aftertouch_c, 0, 40, 28
1, 1069632, Note_on_c, 0, 60, 76
1, 1069634, Poly_aftertouch_c, 0, 60, 28
1, 1069639, Control_c, 0, 64, 114
1, 1069658, Control_c, 0, 64, 76
1, 1069677, Control_c, 0, 64, 48
1, 1069698, Control_c, 0, 64, 21
1, 1069714, Control_c, 0, 64, 9
1, 1069771, Control_c, 0, 64, 13
1, 1069789, Control_c, 0, 64, 26
1, 1069809, Control_c, 0, 64, 43
1, 1069827, Control_c, 0, 64, 67
1, 1069845, Control_c, 0, 64, 90
1, 1069864, Control_c, 0, 64, 127
1, 1069951, Note_off_c, 0, 60, 55
1, 1069968, Note_off_c, 0, 52, 37
1, 1070060, Note_off_c, 0, 40, 57
1, 1070064, Note_off_c, 0, 68, 62
1, 1070105, Note_off_c, 0, 66, 59
1, 1070444, Control_c, 0, 64, 118
1, 1070447, Poly_aftertouch_c, 0, 68, 28
1, 1070452, Note_on_c, 0, 68, 96
1, 1070460, Poly_aftertouch_c, 0, 37, 28
1, 1070462, Poly_aftertouch_c, 0, 61, 28
1, 1070462, Control_c, 0, 64, 72
1, 1070468, Note_on_c, 0, 49, 65
1, 1070469, Note_on_c, 0, 61, 79
1, 1070470, Note_on_c, 0, 37, 64
1, 1070473, Note_on_c, 0, 64, 73
1, 1070473, Poly_aftertouch_c, 0, 49, 28
1, 1070473, Poly_aftertouch_c, 0, 64, 28
1, 1070481, Control_c, 0, 64, 34
1, 1070501, Control_c, 0, 64, 0
1, 1070634, Control_c, 0, 64, 16
1, 1070650, Control_c, 0, 64, 34
1, 1070669, Control_c, 0, 64, 55
1, 1070688, Control_c, 0, 64, 72
1, 1070707, Control_c, 0, 64, 92
1, 1070724, Control_c, 0, 64, 127
1, 1070792, Note_off_c, 0, 49, 48
1, 1070846, Note_off_c, 0, 64, 58
1, 1070885, Note_off_c, 0, 61, 57
1, 1070922, Note_off_c, 0, 37, 59
1, 1071541, Poly_aftertouch_c, 0, 63, 28
1, 1071549, Note_on_c, 0, 63, 50
1, 1071549, Control_c, 0, 64, 104
1, 1071551, Poly_aftertouch_c, 0, 32, 28
1, 1071553, Poly_aftertouch_c, 0, 44, 28
1, 1071559, Note_on_c, 0, 44, 35
1, 1071560, Poly_aftertouch_c, 0, 56, 28
1, 1071562, Note_on_c, 0, 32, 38
1, 1071566, Control_c, 0, 64, 71
1, 1071568, Note_on_c, 0, 56, 36
1, 1071582, Poly_aftertouch_c, 0, 60, 28
1, 1071585, Control_c, 0, 64, 41
1, 1071588, Note_on_c, 0, 60, 33
1, 1071624, Control_c, 0, 64, 0
1, 1071868, Control_c, 0, 64, 13
1, 1071886, Control_c, 0, 64, 30
1, 1071905, Control_c, 0, 64, 50
1, 1071925, Control_c, 0, 64, 66
1, 1071942, Control_c, 0, 64, 78
1, 1071961, Control_c, 0, 64, 92
1, 1071979, Control_c, 0, 64, 110
1, 1071998, Control_c, 0, 64, 127
1, 1072051, Note_off_c, 0, 44, 40
1, 1072105, Note_off_c, 0, 60, 37
1, 1072148, Note_off_c, 0, 68, 51
1, 1072152, Note_off_c, 0, 56, 41
1, 1072156, Note_off_c, 0, 63, 52
1, 1072335, Note_off_c, 0, 32, 41
1, 1073083, Poly_aftertouch_c, 0, 68, 28
1, 1073091, Note_on_c, 0, 68, 44
1, 1073095, Poly_aftertouch_c, 0, 25, 28
1, 1073105, Note_on_c, 0, 25, 31
1, 1073107, Poly_aftertouch_c, 0, 56, 28
1, 1073119, Poly_aftertouch_c, 0, 37, 28
1, 1073122, Note_on_c, 0, 56, 17
1, 1073122, Poly_aftertouch_c, 0, 65, 28
1, 1073132, Note_on_c, 0, 65, 27
1, 1073133, Note_on_c, 0, 37, 29
1, 1073135, Poly_aftertouch_c, 0, 61, 28
1, 1073147, Note_on_c, 0, 61, 27
1, 1073216, Control_c, 0, 64, 107
1, 1073233, Control_c, 0, 64, 86
1, 1073252, Control_c, 0, 64, 71
1, 1073271, Control_c, 0, 64, 61
1, 1073290, Control_c, 0, 64, 55
1, 1073309, Control_c, 0, 64, 52
1, 1073326, Control_c, 0, 64, 49
1, 1073346, Control_c, 0, 64, 44
1, 1073364, Control_c, 0, 64, 36
1, 1073383, Control_c, 0, 64, 29
1, 1073401, Control_c, 0, 64, 24
1, 1073439, Control_c, 0, 64, 20
1, 1073795, Control_c, 0, 64, 24
1, 1073833, Control_c, 0, 64, 31
1, 1073870, Control_c, 0, 64, 39
1, 1073889, Control_c, 0, 64, 45
1, 1073908, Control_c, 0, 64, 51
1, 1073926, Control_c, 0, 64, 56
1, 1073945, Control_c, 0, 64, 59
1, 1073963, Control_c, 0, 64, 61
1, 1073983, Control_c, 0, 64, 63
1, 1074000, Control_c, 0, 64, 64
1, 1074020, Control_c, 0, 64, 66
1, 1074039, Control_c, 0, 64, 69
1, 1074057, Control_c, 0, 64, 71
1, 1074076, Control_c, 0, 64, 75
1, 1074094, Control_c, 0, 64, 78
1, 1074114, Control_c, 0, 64, 83
1, 1074132, Control_c, 0, 64, 87
1, 1074151, Control_c, 0, 64, 91
1, 1074169, Control_c, 0, 64, 96
1, 1074188, Control_c, 0, 64, 100
1, 1074204, Poly_aftertouch_c, 0, 36, 28
1, 1074205, Poly_aftertouch_c, 0, 36, 0
1, 1074225, Control_c, 0, 64, 106
1, 1074264, Poly_aftertouch_c, 0, 35, 28
1, 1074264, Control_c, 0, 64, 112
1, 1074266, Poly_aftertouch_c, 0, 35, 0
1, 1074282, Control_c, 0, 64, 116
1, 1074302, Control_c, 0, 64, 122
1, 1074319, Control_c, 0, 64, 127
1, 1074570, Note_off_c, 0, 56, 37
1, 1074685, Note_off_c, 0, 25, 38
1, 1074812, Note_off_c, 0, 37, 36
1, 1074969, Note_off_c, 0, 61, 31
1, 1074997, Note_off_c, 0, 68, 33
1, 1075075, Note_off_c, 0, 65, 39
1, 1076397, Control_c, 0, 67, 8
1, 1076435, Control_c, 0, 67, 12
1, 1076473, Control_c, 0, 67, 20
1, 1076490, Control_c, 0, 67, 25
1, 1076510, Control_c, 0, 67, 31
1, 1076528, Control_c, 0, 67, 36
1, 1076547, Control_c, 0, 67, 41
1, 1076564, Poly_aftertouch_c, 0, 80, 28
1, 1076565, Control_c, 0, 67, 47
1, 1076577, Note_on_c, 0, 80, 47
1, 1076582, Poly_aftertouch_c, 0, 73, 28
1, 1076582, Control_c, 0, 67, 52
1, 1076588, Note_on_c, 0, 73, 64
1, 1076593, Poly_aftertouch_c, 0, 68, 28
1, 1076598, Poly_aftertouch_c, 0, 61, 28
1, 1076601, Control_c, 0, 67, 58
1, 1076605, Note_on_c, 0, 68, 42
1, 1076606, Note_on_c, 0, 61, 41
1, 1076615, Poly_aftertouch_c, 0, 65, 28
1, 1076619, Control_c, 0, 67, 63
1, 1076627, Note_on_c, 0, 65, 27
1, 1076641, Control_c, 0, 64, 107
1, 1076642, Control_c, 0, 67, 67
1, 1076659, Control_c, 0, 64, 81
1, 1076679, Control_c, 0, 64, 62
1, 1076682, Control_c, 0, 67, 73
1, 1076696, Control_c, 0, 64, 47
1, 1076716, Control_c, 0, 64, 41
1, 1076753, Control_c, 0, 64, 46
1, 1076771, Control_c, 0, 64, 54
1, 1076791, Control_c, 0, 64, 64
1, 1076808, Control_c, 0, 64, 73
1, 1076828, Control_c, 0, 64, 89
1, 1076846, Control_c, 0, 64, 127
1, 1076866, Note_off_c, 0, 65, 40
1, 1077014, Note_off_c, 0, 73, 60
1, 1077022, Note_off_c, 0, 61, 31
1, 1077384, Poly_aftertouch_c, 0, 75, 28
1, 1077389, Note_on_c, 0, 75, 75
1, 1077420, Poly_aftertouch_c, 0, 56, 28
1, 1077425, Control_c, 0, 64, 108
1, 1077427, Note_on_c, 0, 56, 42
1, 1077427, Poly_aftertouch_c, 0, 63, 28
1, 1077428, Poly_aftertouch_c, 0, 72, 28
1, 1077433, Note_on_c, 0, 72, 48
1, 1077435, Note_on_c, 0, 63, 38
1, 1077444, Control_c, 0, 64, 79
1, 1077464, Control_c, 0, 64, 58
1, 1077483, Control_c, 0, 64, 41
1, 1077501, Control_c, 0, 64, 34
1, 1077539, Control_c, 0, 64, 38
1, 1077558, Control_c, 0, 64, 48
1, 1077576, Control_c, 0, 64, 62
1, 1077596, Control_c, 0, 64, 75
1, 1077611, Note_off_c, 0, 72, 59
1, 1077613, Control_c, 0, 64, 95
1, 1077632, Control_c, 0, 64, 127
1, 1077640, Note_off_c, 0, 63, 46
1, 1077664, Note_off_c, 0, 56, 56
1, 1077734, Note_off_c, 0, 80, 45
1, 1077761, Note_off_c, 0, 75, 62
1, 1077881, Note_off_c, 0, 68, 22
1, 1078019, Note_on_c, 0, 77, 80
1, 1078021, Poly_aftertouch_c, 0, 77, 28
1, 1078030, Poly_aftertouch_c, 0, 49, 28
1, 1078031, Poly_aftertouch_c, 0, 61, 28
1, 1078033, Poly_aftertouch_c, 0, 80, 28
1, 1078036, Note_on_c, 0, 49, 40
1, 1078038, Note_on_c, 0, 61, 36
1, 1078043, Note_on_c, 0, 80, 61
1, 1078043, Control_c, 0, 64, 121
1, 1078063, Control_c, 0, 64, 83
1, 1078065, Poly_aftertouch_c, 0, 68, 28
1, 1078066, Poly_aftertouch_c, 0, 73, 28
1, 1078075, Note_on_c, 0, 73, 41
1, 1078081, Control_c, 0, 64, 61
1, 1078100, Control_c, 0, 64, 42
1, 1078121, Control_c, 0, 64, 32
1, 1078124, Poly_aftertouch_c, 0, 68, 127
1, 1078175, Control_c, 0, 64, 41
1, 1078195, Control_c, 0, 64, 53
1, 1078213, Control_c, 0, 64, 68
1, 1078232, Control_c, 0, 64, 83
1, 1078250, Control_c, 0, 64, 121
1, 1078268, Control_c, 0, 64, 127
1, 1078292, Note_off_c, 0, 61, 47
1, 1078318, Note_off_c, 0, 49, 53
1, 1078324, Note_off_c, 0, 80, 49
1, 1078401, Poly_aftertouch_c, 0, 68, 0
1, 1078499, Note_off_c, 0, 77, 33
1, 1078717, Poly_aftertouch_c, 0, 42, 28
1, 1078726, Note_on_c, 0, 42, 35
1, 1078775, Control_c, 0, 64, 98
1, 1078793, Control_c, 0, 64, 70
1, 1078812, Control_c, 0, 64, 48
1, 1078830, Control_c, 0, 64, 32
1, 1078831, Poly_aftertouch_c, 0, 78, 28
1, 1078838, Note_on_c, 0, 78, 72
1, 1078841, Poly_aftertouch_c, 0, 82, 28
1, 1078848, Note_on_c, 0, 82, 61
1, 1078852, Note_off_c, 0, 73, 56
1, 1078869, Poly_aftertouch_c, 0, 70, 28
1, 1078881, Note_on_c, 0, 70, 38
1, 1078905, Control_c, 0, 64, 45
1, 1078924, Control_c, 0, 64, 63
1, 1078942, Control_c, 0, 64, 81
1, 1078961, Control_c, 0, 64, 127
1, 1078995, Note_off_c, 0, 42, 53
1, 1079169, Poly_aftertouch_c, 0, 54, 28
1, 1079176, Note_on_c, 0, 54, 54
1, 1079181, Poly_aftertouch_c, 0, 70, 24
1, 1079221, Note_off_c, 0, 70, 42
1, 1079222, Note_off_c, 0, 82, 37
1, 1079257, Poly_aftertouch_c, 0, 73, 28
1, 1079261, Note_on_c, 0, 73, 80
1, 1079263, Note_off_c, 0, 78, 63
1, 1079387, Poly_aftertouch_c, 0, 58, 28
1, 1079397, Note_on_c, 0, 58, 45
1, 1079399, Note_off_c, 0, 54, 35
1, 1079541, Control_c, 0, 64, 111
1, 1079561, Control_c, 0, 64, 75
1, 1079570, Note_off_c, 0, 58, 54
1, 1079579, Control_c, 0, 64, 49
1, 1079598, Control_c, 0, 64, 29
1, 1079601, Poly_aftertouch_c, 0, 44, 28
1, 1079607, Note_on_c, 0, 44, 49
1, 1079608, Poly_aftertouch_c, 0, 80, 28
1, 1079614, Poly_aftertouch_c, 0, 77, 28
1, 1079614, Control_c, 0, 64, 25
1, 1079618, Note_on_c, 0, 80, 74
1, 1079619, Note_on_c, 0, 77, 70
1, 1079627, Poly_aftertouch_c, 0, 68, 28
1, 1079633, Note_off_c, 0, 73, 60
1, 1079634, Note_on_c, 0, 68, 42
1, 1079655, Control_c, 0, 64, 32
1, 1079672, Control_c, 0, 64, 46
1, 1079679, Note_off_c, 0, 44, 61
1, 1079691, Control_c, 0, 64, 65
1, 1079710, Control_c, 0, 64, 83
1, 1079729, Control_c, 0, 64, 127
1, 1079858, Poly_aftertouch_c, 0, 56, 28
1, 1079862, Note_on_c, 0, 56, 59
1, 1079934, Poly_aftertouch_c, 0, 73, 28
1, 1079937, Note_on_c, 0, 73, 72
1, 1079961, Note_off_c, 0, 80, 51
1, 1080006, Note_off_c, 0, 77, 51
1, 1080019, Note_off_c, 0, 56, 35
1, 1080024, Poly_aftertouch_c, 0, 65, 28
1, 1080030, Note_on_c, 0, 65, 59
1, 1080038, Note_off_c, 0, 73, 59
1, 1080080, Note_off_c, 0, 65, 64
1, 1080080, Note_off_c, 0, 68, 38
1, 1080220, Poly_aftertouch_c, 0, 80, 28
1, 1080228, Note_on_c, 0, 80, 78
1, 1080234, Control_c, 0, 64, 118
1, 1080241, Poly_aftertouch_c, 0, 68, 28
1, 1080241, Poly_aftertouch_c, 0, 72, 28
1, 1080245, Note_on_c, 0, 72, 66
1, 1080247, Poly_aftertouch_c, 0, 66, 28
1, 1080251, Note_on_c, 0, 66, 53
1, 1080253, Note_on_c, 0, 68, 45
1, 1080253, Control_c, 0, 64, 80
1, 1080263, Poly_aftertouch_c, 0, 56, 28
1, 1080270, Note_on_c, 0, 56, 36
1, 1080272, Control_c, 0, 64, 57
1, 1080290, Control_c, 0, 64, 34
1, 1080309, Control_c, 0, 64, 22
1, 1080403, Control_c, 0, 64, 35
1, 1080421, Control_c, 0, 64, 52
1, 1080436, Note_off_c, 0, 56, 48
1, 1080436, Poly_aftertouch_c, 0, 63, 28
1, 1080439, Control_c, 0, 64, 71
1, 1080442, Note_on_c, 0, 63, 51
1, 1080460, Control_c, 0, 64, 88
1, 1080467, Note_off_c, 0, 66, 46
1, 1080476, Control_c, 0, 64, 127
1, 1080502, Note_off_c, 0, 72, 60
1, 1080502, Poly_aftertouch_c, 0, 75, 28
1, 1080507, Note_on_c, 0, 75, 74
1, 1080517, Note_off_c, 0, 80, 64
1, 1080568, Note_off_c, 0, 68, 42
1, 1080596, Poly_aftertouch_c, 0, 56, 28
1, 1080604, Note_on_c, 0, 56, 55
1, 1080618, Note_off_c, 0, 63, 48
1, 1080685, Note_off_c, 0, 56, 0
1, 1080686, Poly_aftertouch_c, 0, 56, 28
1, 1080824, Poly_aftertouch_c, 0, 56, 0
1, 1080843, Poly_aftertouch_c, 0, 61, 28
1, 1080851, Note_on_c, 0, 61, 48
1, 1080855, Poly_aftertouch_c, 0, 65, 28
1, 1080861, Note_on_c, 0, 65, 50
1, 1080927, Control_c, 0, 64, 89
1, 1080936, Poly_aftertouch_c, 0, 80, 28
1, 1080943, Note_on_c, 0, 80, 86
1, 1080944, Control_c, 0, 64, 66
1, 1080961, Poly_aftertouch_c, 0, 73, 28
1, 1080962, Note_off_c, 0, 75, 63
1, 1080965, Control_c, 0, 64, 42
1, 1080967, Poly_aftertouch_c, 0, 68, 28
1, 1080970, Note_on_c, 0, 73, 65
1, 1080974, Note_on_c, 0, 68, 54
1, 1080983, Control_c, 0, 64, 20
1, 1081002, Control_c, 0, 64, 10
1, 1081095, Control_c, 0, 64, 24
1, 1081114, Control_c, 0, 64, 42
1, 1081133, Control_c, 0, 64, 67
1, 1081151, Control_c, 0, 64, 93
1, 1081171, Control_c, 0, 64, 127
1, 1081223, Note_off_c, 0, 73, 58
1, 1081601, Control_c, 0, 64, 114
1, 1081606, Poly_aftertouch_c, 0, 56, 28
1, 1081607, Poly_aftertouch_c, 0, 75, 28
1, 1081612, Note_on_c, 0, 56, 41
1, 1081613, Note_on_c, 0, 75, 66
1, 1081616, Note_on_c, 0, 63, 54
1, 1081616, Poly_aftertouch_c, 0, 63, 28
1, 1081617, Poly_aftertouch_c, 0, 72, 28
1, 1081618, Control_c, 0, 64, 77
1, 1081623, Note_on_c, 0, 72, 55
1, 1081638, Control_c, 0, 64, 53
1, 1081639, Note_off_c, 0, 61, 38
1, 1081657, Control_c, 0, 64, 35
1, 1081683, Note_off_c, 0, 65, 35
1, 1081714, Control_c, 0, 64, 43
1, 1081732, Control_c, 0, 64, 60
1, 1081749, Control_c, 0, 64, 77
1, 1081763, Note_off_c, 0, 72, 55
1, 1081768, Control_c, 0, 64, 107
1, 1081772, Control_c, 0, 67, 69
1, 1081788, Control_c, 0, 64, 127
1, 1081821, Note_off_c, 0, 63, 60
1, 1081864, Note_off_c, 0, 80, 60
1, 1081871, Note_off_c, 0, 56, 53
1, 1081873, Note_off_c, 0, 68, 50
1, 1081949, Note_off_c, 0, 75, 53
1, 1082179, Poly_aftertouch_c, 0, 80, 28
1, 1082187, Note_on_c, 0, 80, 87
1, 1082201, Control_c, 0, 64, 101
1, 1082203, Poly_aftertouch_c, 0, 61, 28
1, 1082212, Note_on_c, 0, 61, 46
1, 1082212, Poly_aftertouch_c, 0, 77, 28
1, 1082215, Note_on_c, 0, 77, 58
1, 1082217, Note_on_c, 0, 49, 46
1, 1082217, Poly_aftertouch_c, 0, 49, 28
1, 1082218, Control_c, 0, 64, 71
1, 1082219, Poly_aftertouch_c, 0, 68, 28
1, 1082227, Note_on_c, 0, 68, 49
1, 1082227, Note_on_c, 0, 71, 47
1, 1082227, Poly_aftertouch_c, 0, 71, 28
1, 1082237, Control_c, 0, 64, 48
1, 1082256, Control_c, 0, 64, 34
1, 1082275, Control_c, 0, 67, 65
1, 1082313, Control_c, 0, 64, 44
1, 1082331, Control_c, 0, 64, 61
1, 1082350, Control_c, 0, 64, 79
1, 1082368, Control_c, 0, 64, 118
1, 1082386, Control_c, 0, 64, 127
1, 1082416, Note_off_c, 0, 61, 58
1, 1082436, Note_off_c, 0, 71, 38
1, 1082466, Note_off_c, 0, 49, 63
1, 1082483, Note_off_c, 0, 77, 61
1, 1082530, Note_off_c, 0, 80, 64
1, 1082597, Note_off_c, 0, 68, 37
1, 1082753, Poly_aftertouch_c, 0, 42, 28
1, 1082759, Note_on_c, 0, 42, 56
1, 1082817, Control_c, 0, 64, 89
1, 1082837, Control_c, 0, 64, 62
1, 1082855, Control_c, 0, 64, 41
1, 1082865, Poly_aftertouch_c, 0, 81, 28
1, 1082869, Note_on_c, 0, 81, 80
1, 1082872, Control_c, 0, 64, 34
1, 1082880, Poly_aftertouch_c, 0, 78, 28
1, 1082886, Note_on_c, 0, 78, 72
1, 1082890, Poly_aftertouch_c, 0, 69, 28
1, 1082895, Note_on_c, 0, 69, 63
1, 1082911, Control_c, 0, 64, 40
1, 1082930, Control_c, 0, 64, 54
1, 1082949, Control_c, 0, 64, 72
1, 1082970, Control_c, 0, 64, 97
1, 1082986, Control_c, 0, 64, 127
1, 1082993, Note_off_c, 0, 42, 59
1, 1083059, Note_off_c, 0, 69, 52
1, 1083090, Note_off_c, 0, 81, 62
1, 1083153, Poly_aftertouch_c, 0, 54, 28
1, 1083159, Note_on_c, 0, 54, 59
1, 1083259, Poly_aftertouch_c, 0, 83, 28
1, 1083262, Note_on_c, 0, 83, 90
1, 1083270, Poly_aftertouch_c, 0, 75, 28
1, 1083276, Note_on_c, 0, 75, 67
1, 1083276, Poly_aftertouch_c, 0, 71, 28
1, 1083279, Note_on_c, 0, 71, 74
1, 1083287, Note_off_c, 0, 78, 60
1, 1083325, Note_off_c, 0, 71, 60
1, 1083335, Note_off_c, 0, 54, 58
1, 1083364, Note_off_c, 0, 75, 39
1, 1083380, Poly_aftertouch_c, 0, 57, 28
1, 1083387, Note_on_c, 0, 57, 56
1, 1083403, Note_off_c, 0, 83, 62
1, 1083429, Note_off_c, 0, 57, 64
1, 1083585, Poly_aftertouch_c, 0, 40, 28
1, 1083591, Note_on_c, 0, 40, 66
1, 1083641, Control_c, 0, 64, 98
1, 1083661, Control_c, 0, 64, 64
1, 1083679, Control_c, 0, 64, 34
1, 1083697, Control_c, 0, 64, 19
1, 1083701, Poly_aftertouch_c, 0, 85, 28
1, 1083703, Note_on_c, 0, 85, 87
1, 1083706, Poly_aftertouch_c, 0, 76, 28
1, 1083712, Note_on_c, 0, 76, 66
1, 1083725, Poly_aftertouch_c, 0, 73, 28
1, 1083728, Note_on_c, 0, 73, 71
1, 1083735, Control_c, 0, 64, 23
1, 1083753, Control_c, 0, 64, 35
1, 1083754, Note_off_c, 0, 40, 61
1, 1083772, Control_c, 0, 64, 58
1, 1083791, Control_c, 0, 64, 85
1, 1083810, Control_c, 0, 64, 127
1, 1083875, Note_off_c, 0, 73, 37
1, 1083891, Note_off_c, 0, 85, 65
1, 1083947, Note_off_c, 0, 76, 59
1, 1083984, Poly_aftertouch_c, 0, 52, 28
1, 1083986, Note_on_c, 0, 52, 53
1, 1084047, Poly_aftertouch_c, 0, 81, 28
1, 1084052, Note_on_c, 0, 81, 86
1, 1084058, Poly_aftertouch_c, 0, 69, 28
1, 1084062, Note_on_c, 0, 69, 73
1, 1084098, Note_off_c, 0, 69, 59
1, 1084124, Note_off_c, 0, 52, 26
1, 1084152, Poly_aftertouch_c, 0, 61, 28
1, 1084156, Note_on_c, 0, 61, 59
1, 1084298, Note_off_c, 0, 61, 55
1, 1084315, Control_c, 0, 64, 87
1, 1084334, Control_c, 0, 64, 60
1, 1084336, Poly_aftertouch_c, 0, 80, 28
1, 1084342, Poly_aftertouch_c, 0, 74, 28
1, 1084344, Note_on_c, 0, 80, 82
1, 1084347, Note_on_c, 0, 74, 74
1, 1084351, Poly_aftertouch_c, 0, 68, 28
1, 1084354, Note_on_c, 0, 68, 69
1, 1084354, Control_c, 0, 64, 41
1, 1084356, Poly_aftertouch_c, 0, 52, 28
1, 1084358, Note_on_c, 0, 52, 63
1, 1084371, Note_off_c, 0, 81, 61
1, 1084389, Control_c, 0, 64, 43
1, 1084409, Control_c, 0, 64, 55
1, 1084428, Control_c, 0, 64, 70
1, 1084439, Note_off_c, 0, 68, 61
1, 1084445, Control_c, 0, 64, 91
1, 1084465, Control_c, 0, 64, 127
1, 1084529, Note_off_c, 0, 74, 59
1, 1084534, Note_on_c, 0, 59, 56
1, 1084534, Poly_aftertouch_c, 0, 59, 28
1, 1084559, Note_off_c, 0, 80, 63
1, 1084615, Poly_aftertouch_c, 0, 83, 28
1, 1084617, Note_on_c, 0, 83, 90
1, 1084619, Note_off_c, 0, 52, 37
1, 1084626, Note_on_c, 0, 71, 80
1, 1084627, Poly_aftertouch_c, 0, 71, 28
1, 1084686, Note_off_c, 0, 59, 60
1, 1084700, Note_off_c, 0, 71, 59
1, 1084705, Note_off_c, 0, 83, 59
1, 1084709, Poly_aftertouch_c, 0, 62, 28
1, 1084714, Note_on_c, 0, 62, 64
1, 1084801, Control_c, 0, 67, 60
1, 1084838, Control_c, 0, 67, 55
1, 1084895, Control_c, 0, 67, 50
1, 1084994, Note_off_c, 0, 62, 57
1, 1085003, Poly_aftertouch_c, 0, 82, 28
1, 1085007, Control_c, 0, 64, 113
1, 1085008, Poly_aftertouch_c, 0, 61, 28
1, 1085009, Note_on_c, 0, 82, 90
1, 1085010, Poly_aftertouch_c, 0, 79, 28
1, 1085013, Note_on_c, 0, 79, 81
1, 1085014, Note_on_c, 0, 61, 67
1, 1085016, Note_on_c, 0, 70, 80
1, 1085019, Note_on_c, 0, 73, 79
1, 1085021, Poly_aftertouch_c, 0, 55, 28
1, 1085025, Note_on_c, 0, 55, 58
1, 1085025, Poly_aftertouch_c, 0, 70, 28
1, 1085025, Poly_aftertouch_c, 0, 73, 28
1, 1085025, Control_c, 0, 64, 71
1, 1085030, Note_on_c, 0, 52, 54
1, 1085031, Poly_aftertouch_c, 0, 52, 28
1, 1085047, Control_c, 0, 64, 37
1, 1085064, Control_c, 0, 64, 0
1, 1085066, Control_c, 0, 67, 46
1, 1085158, Control_c, 0, 64, 11
1, 1085160, Control_c, 0, 67, 42
1, 1085176, Control_c, 0, 64, 26
1, 1085195, Control_c, 0, 64, 51
1, 1085196, Control_c, 0, 67, 34
1, 1085208, Note_off_c, 0, 70, 59
1, 1085213, Control_c, 0, 64, 79
1, 1085214, Control_c, 0, 67, 30
1, 1085232, Control_c, 0, 64, 127
1, 1085242, Note_off_c, 0, 73, 55
1, 1085249, Control_c, 0, 67, 24
1, 1085308, Note_off_c, 0, 79, 60
1, 1085312, Note_off_c, 0, 52, 43
1, 1085322, Note_off_c, 0, 82, 63
1, 1085372, Note_off_c, 0, 55, 37
1, 1085382, Control_c, 0, 67, 19
1, 1085670, Poly_aftertouch_c, 0, 84, 28
1, 1085672, Note_on_c, 0, 84, 93
1, 1085680, Note_on_c, 0, 79, 80
1, 1085681, Poly_aftertouch_c, 0, 79, 28
1, 1085687, Note_on_c, 0, 60, 61
1, 1085687, Note_on_c, 0, 72, 78
1, 1085689, Note_on_c, 0, 55, 54
1, 1085690, Poly_aftertouch_c, 0, 55, 28
1, 1085690, Poly_aftertouch_c, 0, 60, 28
1, 1085693, Poly_aftertouch_c, 0, 72, 28
1, 1085698, Note_on_c, 0, 52, 51
1, 1085698, Poly_aftertouch_c, 0, 52, 28
1, 1085699, Control_c, 0, 64, 89
1, 1085719, Control_c, 0, 64, 62
1, 1085738, Control_c, 0, 64, 35
1, 1085756, Control_c, 0, 64, 11
1, 1085757, Note_off_c, 0, 61, 55
1, 1085849, Control_c, 0, 64, 19
1, 1085869, Control_c, 0, 64, 32
1, 1085887, Control_c, 0, 64, 53
1, 1085906, Control_c, 0, 64, 72
1, 1085927, Control_c, 0, 64, 89
1, 1085944, Control_c, 0, 64, 122
1, 1085962, Control_c, 0, 64, 127
1, 1086014, Note_off_c, 0, 55, 54
1, 1086045, Note_off_c, 0, 52, 34
1, 1086078, Note_off_c, 0, 79, 58
1, 1086087, Note_off_c, 0, 72, 58
1, 1086111, Control_c, 0, 67, 23
1, 1086397, Poly_aftertouch_c, 0, 85, 28
1, 1086401, Note_on_c, 0, 85, 77
1, 1086403, Note_off_c, 0, 84, 62
1, 1086407, Note_off_c, 0, 60, 53
1, 1086411, Control_c, 0, 64, 98
1, 1086414, Poly_aftertouch_c, 0, 58, 28
1, 1086415, Poly_aftertouch_c, 0, 79, 28
1, 1086419, Note_on_c, 0, 79, 58
1, 1086424, Note_on_c, 0, 58, 48
1, 1086424, Poly_aftertouch_c, 0, 73, 28
1, 1086427, Note_on_c, 0, 73, 52
1, 1086429, Poly_aftertouch_c, 0, 55, 28
1, 1086429, Control_c, 0, 64, 68
1, 1086432, Note_on_c, 0, 55, 38
1, 1086435, Poly_aftertouch_c, 0, 52, 28
1, 1086439, Note_on_c, 0, 52, 38
1, 1086449, Control_c, 0, 64, 39
1, 1086486, Control_c, 0, 64, 0
1, 1086542, Control_c, 0, 67, 27
1, 1086579, Control_c, 0, 64, 13
1, 1086600, Control_c, 0, 64, 28
1, 1086617, Control_c, 0, 64, 51
1, 1086636, Control_c, 0, 64, 76
1, 1086654, Note_off_c, 0, 85, 64
1, 1086654, Control_c, 0, 64, 106
1, 1086663, Note_off_c, 0, 79, 58
1, 1086671, Control_c, 0, 64, 127
1, 1086700, Note_off_c, 0, 55, 44
1, 1086705, Note_off_c, 0, 58, 51
1, 1086753, Note_off_c, 0, 73, 56
1, 1086804, Control_c, 0, 67, 31
1, 1086813, Note_off_c, 0, 52, 39
1, 1086897, Control_c, 0, 67, 36
1, 1086974, Control_c, 0, 67, 41
1, 1087028, Control_c, 0, 67, 45
1, 1087085, Control_c, 0, 67, 51
1, 1087123, Control_c, 0, 67, 58
1, 1087142, Control_c, 0, 67, 64
1, 1087160, Control_c, 0, 67, 70
1, 1087178, Control_c, 0, 67, 76
1, 1087197, Control_c, 0, 67, 82
1, 1087217, Control_c, 0, 67, 87
1, 1087234, Control_c, 0, 67, 93
1, 1087254, Control_c, 0, 67, 98
1, 1087273, Control_c, 0, 67, 103
1, 1087292, Control_c, 0, 67, 109
1, 1087310, Control_c, 0, 64, 118
1, 1087312, Control_c, 0, 67, 115
1, 1087328, Control_c, 0, 64, 90
1, 1087329, Control_c, 0, 67, 121
1, 1087333, Poly_aftertouch_c, 0, 70, 28
1, 1087344, Note_on_c, 0, 70, 46
1, 1087350, Note_on_c, 0, 49, 56
1, 1087350, Poly_aftertouch_c, 0, 49, 28
1, 1087350, Control_c, 0, 64, 68
1, 1087350, Control_c, 0, 67, 127
1, 1087365, Control_c, 0, 64, 47
1, 1087377, Poly_aftertouch_c, 0, 67, 28
1, 1087385, Poly_aftertouch_c, 0, 64, 28
1, 1087385, Control_c, 0, 64, 25
1, 1087392, Note_on_c, 0, 67, 7
1, 1087394, Note_on_c, 0, 64, 28
1, 1087422, Control_c, 0, 64, 0
1, 1087571, Control_c, 0, 64, 11
1, 1087591, Control_c, 0, 64, 18
1, 1087609, Control_c, 0, 64, 27
1, 1087628, Control_c, 0, 64, 40
1, 1087646, Control_c, 0, 64, 59
1, 1087657, Poly_aftertouch_c, 0, 55, 28
1, 1087658, Poly_aftertouch_c, 0, 55, 0
1, 1087665, Control_c, 0, 64, 71
1, 1087666, Poly_aftertouch_c, 0, 67, 24
1, 1087685, Control_c, 0, 64, 80
1, 1087702, Control_c, 0, 64, 91
1, 1087711, Note_off_c, 0, 67, 40
1, 1087721, Control_c, 0, 64, 105
1, 1087741, Control_c, 0, 64, 127
1, 1087748, Note_off_c, 0, 64, 40
1, 1088236, Note_off_c, 0, 49, 54
1, 1088251, Poly_aftertouch_c, 0, 72, 28
1, 1088254, Note_on_c, 0, 72, 50
1, 1088256, Poly_aftertouch_c, 0, 48, 28
1, 1088257, Note_on_c, 0, 48, 45
1, 1088263, Control_c, 0, 64, 108
1, 1088284, Control_c, 0, 64, 89
1, 1088292, Poly_aftertouch_c, 0, 52, 28
1, 1088292, Poly_aftertouch_c, 0, 64, 28
1, 1088300, Note_on_c, 0, 52, 33
1, 1088300, Poly_aftertouch_c, 0, 55, 28
1, 1088301, Note_off_c, 0, 70, 35
1, 1088301, Note_on_c, 0, 64, 13
1, 1088301, Poly_aftertouch_c, 0, 67, 28
1, 1088301, Control_c, 0, 64, 70
1, 1088310, Note_on_c, 0, 55, 23
1, 1088315, Note_on_c, 0, 67, 20
1, 1088320, Control_c, 0, 64, 52
1, 1088340, Control_c, 0, 64, 32
1, 1088358, Control_c, 0, 64, 10
1, 1088489, Control_c, 0, 64, 15
1, 1088508, Control_c, 0, 64, 25
1, 1088526, Control_c, 0, 64, 38
1, 1088546, Control_c, 0, 64, 58
1, 1088564, Control_c, 0, 64, 72
1, 1088583, Control_c, 0, 64, 85
1, 1088601, Control_c, 0, 64, 101
1, 1088621, Note_off_c, 0, 52, 34
1, 1088621, Control_c, 0, 64, 127
1, 1088685, Poly_aftertouch_c, 0, 55, 24
1, 1088734, Poly_aftertouch_c, 0, 67, 24
1, 1088742, Note_off_c, 0, 55, 37
1, 1088795, Poly_aftertouch_c, 0, 64, 24
1, 1088803, Note_off_c, 0, 67, 34
1, 1088847, Note_off_c, 0, 72, 59
1, 1088878, Note_off_c, 0, 64, 31
1, 1089752, Poly_aftertouch_c, 0, 73, 28
1, 1089759, Note_on_c, 0, 73, 47
1, 1089762, Poly_aftertouch_c, 0, 46, 28
1, 1089763, Poly_aftertouch_c, 0, 64, 28
1, 1089764, Poly_aftertouch_c, 0, 67, 28
1, 1089768, Poly_aftertouch_c, 0, 52, 28
1, 1089774, Note_on_c, 0, 64, 29
1, 1089776, Note_on_c, 0, 67, 31
1, 1089776, Note_on_c, 0, 46, 37
1, 1089795, Poly_aftertouch_c, 0, 55, 28
1, 1089806, Note_on_c, 0, 55, 31
1, 1089821, Poly_aftertouch_c, 0, 52, 127
1, 1089836, Control_c, 0, 64, 104
1, 1089855, Control_c, 0, 64, 86
1, 1089875, Control_c, 0, 64, 71
1, 1089879, Note_off_c, 0, 48, 37
1, 1089893, Control_c, 0, 64, 58
1, 1089912, Control_c, 0, 64, 46
1, 1089930, Control_c, 0, 64, 37
1, 1089949, Control_c, 0, 64, 30
1, 1089969, Control_c, 0, 64, 25
1, 1090005, Control_c, 0, 64, 19
1, 1090510, Control_c, 0, 64, 24
1, 1090623, Control_c, 0, 64, 28
1, 1090680, Control_c, 0, 64, 33
1, 1090716, Control_c, 0, 64, 38
1, 1090735, Control_c, 0, 64, 43
1, 1090756, Control_c, 0, 64, 50
1, 1090772, Control_c, 0, 64, 56
1, 1090792, Control_c, 0, 64, 59
1, 1090810, Control_c, 0, 64, 60
1, 1090829, Control_c, 0, 64, 61
1, 1090847, Control_c, 0, 64, 63
1, 1090866, Control_c, 0, 64, 65
1, 1090885, Control_c, 0, 64, 68
1, 1090904, Control_c, 0, 64, 73
1, 1090922, Control_c, 0, 64, 79
1, 1090941, Control_c, 0, 64, 90
1, 1090960, Control_c, 0, 64, 105
1, 1090978, Control_c, 0, 64, 127
1, 1091145, Note_off_c, 0, 55, 37
1, 1091197, Poly_aftertouch_c, 0, 52, 0
1, 1091226, Note_off_c, 0, 64, 37
1, 1091231, Note_off_c, 0, 73, 50
1, 1091239, Note_off_c, 0, 46, 56
1, 1091326, Note_off_c, 0, 67, 49
1, 1092004, Poly_aftertouch_c, 0, 68, 28
1, 1092015, Note_on_c, 0, 68, 54
1, 1092032, Poly_aftertouch_c, 0, 35, 28
1, 1092038, Note_on_c, 0, 35, 34
1, 1092038, Poly_aftertouch_c, 0, 56, 28
1, 1092045, Poly_aftertouch_c, 0, 47, 28
1, 1092045, Poly_aftertouch_c, 0, 64, 28
1, 1092049, Note_on_c, 0, 64, 41
1, 1092050, Note_on_c, 0, 56, 34
1, 1092054, Note_on_c, 0, 47, 25
1, 1092064, Control_c, 0, 64, 103
1, 1092083, Control_c, 0, 64, 82
1, 1092102, Control_c, 0, 64, 64
1, 1092121, Control_c, 0, 64, 47
1, 1092139, Control_c, 0, 64, 34
1, 1092159, Control_c, 0, 64, 30
1, 1092233, Control_c, 0, 64, 40
1, 1092250, Control_c, 0, 64, 54
1, 1092270, Control_c, 0, 64, 69
1, 1092289, Control_c, 0, 64, 86
1, 1092308, Control_c, 0, 64, 127
1, 1092391, Note_off_c, 0, 35, 39
1, 1092416, Note_off_c, 0, 47, 41
1, 1092449, Note_off_c, 0, 68, 56
1, 1092477, Note_off_c, 0, 64, 34
1, 1092503, Note_off_c, 0, 56, 39
1, 1092712, Poly_aftertouch_c, 0, 68, 28
1, 1092720, Note_on_c, 0, 68, 70
1, 1092739, Control_c, 0, 64, 112
1, 1092746, Poly_aftertouch_c, 0, 64, 28
1, 1092749, Poly_aftertouch_c, 0, 57, 28
1, 1092753, Note_on_c, 0, 64, 51
1, 1092755, Poly_aftertouch_c, 0, 36, 28
1, 1092757, Note_on_c, 0, 57, 48
1, 1092759, Control_c, 0, 64, 82
1, 1092763, Note_on_c, 0, 36, 36
1, 1092775, Poly_aftertouch_c, 0, 48, 28
1, 1092775, Control_c, 0, 64, 61
1, 1092786, Note_on_c, 0, 48, 27
1, 1092792, Control_c, 0, 64, 41
1, 1092813, Control_c, 0, 64, 27
1, 1092907, Control_c, 0, 64, 41
1, 1092925, Control_c, 0, 64, 58
1, 1092944, Control_c, 0, 64, 75
1, 1092964, Control_c, 0, 64, 98
1, 1092981, Control_c, 0, 64, 127
1, 1093019, Control_c, 0, 67, 123
1, 1093043, Note_off_c, 0, 48, 39
1, 1093059, Note_off_c, 0, 57, 59
1, 1093064, Note_off_c, 0, 64, 53
1, 1093318, Control_c, 0, 64, 100
1, 1093329, Note_off_c, 0, 36, 46
1, 1093332, Poly_aftertouch_c, 0, 66, 28
1, 1093337, Control_c, 0, 64, 71
1, 1093338, Note_on_c, 0, 66, 69
1, 1093346, Poly_aftertouch_c, 0, 64, 28
1, 1093347, Note_on_c, 0, 64, 57
1, 1093349, Poly_aftertouch_c, 0, 37, 28
1, 1093351, Poly_aftertouch_c, 0, 58, 28
1, 1093355, Control_c, 0, 64, 47
1, 1093359, Note_on_c, 0, 37, 40
1, 1093359, Note_on_c, 0, 58, 45
1, 1093361, Note_on_c, 0, 49, 44
1, 1093361, Poly_aftertouch_c, 0, 49, 28
1, 1093375, Control_c, 0, 64, 27
1, 1093393, Control_c, 0, 64, 18
1, 1093406, Note_off_c, 0, 68, 54
1, 1093468, Control_c, 0, 64, 29
1, 1093487, Control_c, 0, 64, 45
1, 1093506, Control_c, 0, 64, 68
1, 1093525, Control_c, 0, 64, 93
1, 1093540, Note_off_c, 0, 64, 59
1, 1093541, Control_c, 0, 64, 127
1, 1093565, Note_off_c, 0, 49, 58
1, 1093628, Note_off_c, 0, 37, 52
1, 1093629, Note_off_c, 0, 58, 56
1, 1093913, Note_off_c, 0, 66, 62
1, 1093917, Control_c, 0, 64, 94
1, 1093930, Poly_aftertouch_c, 0, 65, 28
1, 1093936, Note_on_c, 0, 65, 65
1, 1093936, Control_c, 0, 64, 68
1, 1093946, Poly_aftertouch_c, 0, 58, 28
1, 1093950, Poly_aftertouch_c, 0, 30, 28
1, 1093952, Poly_aftertouch_c, 0, 64, 28
1, 1093955, Control_c, 0, 64, 47
1, 1093957, Note_on_c, 0, 64, 49
1, 1093958, Note_on_c, 0, 58, 44
1, 1093961, Note_on_c, 0, 30, 40
1, 1093961, Poly_aftertouch_c, 0, 42, 28
1, 1093966, Note_on_c, 0, 42, 34
1, 1093973, Control_c, 0, 64, 33
1, 1094049, Control_c, 0, 64, 44
1, 1094067, Control_c, 0, 64, 59
1, 1094087, Control_c, 0, 64, 73
1, 1094103, Note_off_c, 0, 30, 55
1, 1094104, Control_c, 0, 64, 92
1, 1094122, Control_c, 0, 64, 127
1, 1094143, Control_c, 0, 67, 115
1, 1094161, Control_c, 0, 67, 109
1, 1094179, Control_c, 0, 67, 105
1, 1094217, Control_c, 0, 67, 99
1, 1094224, Note_off_c, 0, 64, 32
1, 1094237, Poly_aftertouch_c, 0, 66, 28
1, 1094240, Note_off_c, 0, 58, 61
1, 1094244, Note_on_c, 0, 66, 72
1, 1094270, Note_off_c, 0, 65, 52
1, 1094412, Note_off_c, 0, 42, 38
1, 1094574, Control_c, 0, 64, 87
1, 1094585, Note_off_c, 0, 66, 58
1, 1094592, Control_c, 0, 64, 64
1, 1094594, Poly_aftertouch_c, 0, 69, 28
1, 1094597, Note_on_c, 0, 69, 57
1, 1094611, Control_c, 0, 64, 41
1, 1094614, Poly_aftertouch_c, 0, 57, 28
1, 1094615, Poly_aftertouch_c, 0, 63, 28
1, 1094619, Note_on_c, 0, 57, 40
1, 1094621, Poly_aftertouch_c, 0, 35, 28
1, 1094623, Note_on_c, 0, 35, 35
1, 1094623, Note_on_c, 0, 63, 40
1, 1094629, Control_c, 0, 64, 21
1, 1094648, Control_c, 0, 64, 14
1, 1094722, Control_c, 0, 64, 22
1, 1094740, Control_c, 0, 64, 34
1, 1094760, Control_c, 0, 64, 53
1, 1094778, Control_c, 0, 64, 73
1, 1094797, Control_c, 0, 64, 93
1, 1094809, Note_off_c, 0, 35, 54
1, 1094815, Control_c, 0, 64, 127
1, 1094901, Note_off_c, 0, 63, 51
1, 1094919, Poly_aftertouch_c, 0, 66, 28
1, 1094924, Note_on_c, 0, 66, 62
1, 1094938, Note_off_c, 0, 69, 53
1, 1094996, Note_off_c, 0, 57, 35
1, 1095188, Poly_aftertouch_c, 0, 64, 28
1, 1095192, Note_on_c, 0, 64, 60
1, 1095197, Poly_aftertouch_c, 0, 47, 28
1, 1095204, Poly_aftertouch_c, 0, 57, 28
1, 1095207, Note_on_c, 0, 47, 36
1, 1095211, Note_on_c, 0, 57, 41
1, 1095211, Poly_aftertouch_c, 0, 54, 28
1, 1095219, Note_on_c, 0, 54, 41
1, 1095260, Note_off_c, 0, 66, 35
1, 1095361, Note_off_c, 0, 54, 48
1, 1095418, Note_off_c, 0, 47, 41
1, 1095438, Poly_aftertouch_c, 0, 42, 28
1, 1095472, Poly_aftertouch_c, 0, 63, 28
1, 1095477, Note_off_c, 0, 64, 55
1, 1095480, Note_on_c, 0, 63, 62
1, 1095490, Poly_aftertouch_c, 0, 42, 127
1, 1095511, Note_off_c, 0, 57, 34
1, 1095520, Poly_aftertouch_c, 0, 42, 0
1, 1095546, Control_c, 0, 67, 92
1, 1095551, Note_off_c, 0, 63, 61
1, 1095564, Control_c, 0, 67, 88
1, 1095601, Control_c, 0, 67, 82
1, 1095677, Control_c, 0, 67, 78
1, 1095752, Control_c, 0, 67, 74
1, 1095827, Control_c, 0, 67, 69
1, 1095898, Poly_aftertouch_c, 0, 61, 28
1, 1095900, Note_on_c, 0, 61, 73
1, 1095903, Poly_aftertouch_c, 0, 42, 28
1, 1095908, Note_on_c, 0, 42, 42
1, 1095909, Poly_aftertouch_c, 0, 30, 28
1, 1095915, Note_on_c, 0, 30, 43
1, 1095931, Poly_aftertouch_c, 0, 69, 28
1, 1095935, Note_on_c, 0, 69, 46
1, 1095936, Poly_aftertouch_c, 0, 73, 28
1, 1095939, Control_c, 0, 64, 85
1, 1095944, Note_on_c, 0, 73, 50
1, 1095958, Control_c, 0, 64, 61
1, 1095977, Control_c, 0, 64, 40
1, 1095994, Control_c, 0, 64, 26
1, 1096070, Control_c, 0, 64, 39
1, 1096088, Control_c, 0, 64, 57
1, 1096108, Control_c, 0, 64, 76
1, 1096109, Control_c, 0, 67, 61
1, 1096127, Control_c, 0, 64, 100
1, 1096129, Control_c, 0, 67, 53
1, 1096145, Note_off_c, 0, 30, 46
1, 1096145, Control_c, 0, 64, 127
1, 1096146, Control_c, 0, 67, 44
1, 1096163, Control_c, 0, 67, 34
1, 1096183, Control_c, 0, 67, 23
1, 1096200, Control_c, 0, 67, 10
1, 1096208, Note_off_c, 0, 69, 35
1, 1096218, Note_off_c, 0, 42, 59
1, 1096220, Control_c, 0, 67, 0
1, 1096267, Note_off_c, 0, 73, 43
1, 1096400, Note_off_c, 0, 61, 54
1, 1096555, Poly_aftertouch_c, 0, 62, 28
1, 1096561, Note_on_c, 0, 62, 79
1, 1096568, Poly_aftertouch_c, 0, 73, 28
1, 1096573, Poly_aftertouch_c, 0, 47, 28
1, 1096575, Note_on_c, 0, 73, 62
1, 1096578, Note_on_c, 0, 47, 54
1, 1096578, Note_on_c, 0, 69, 57
1, 1096578, Poly_aftertouch_c, 0, 69, 28
1, 1096580, Poly_aftertouch_c, 0, 35, 28
1, 1096584, Note_on_c, 0, 35, 47
1, 1096595, Control_c, 0, 64, 100
1, 1096613, Control_c, 0, 64, 69
1, 1096631, Control_c, 0, 64, 45
1, 1096651, Control_c, 0, 64, 30
1, 1096725, Control_c, 0, 64, 40
1, 1096744, Control_c, 0, 64, 59
1, 1096763, Control_c, 0, 64, 79
1, 1096781, Control_c, 0, 64, 127
1, 1096844, Note_off_c, 0, 69, 48
1, 1096884, Note_off_c, 0, 47, 37
1, 1096904, Note_off_c, 0, 62, 56
1, 1097118, Poly_aftertouch_c, 0, 63, 28
1, 1097122, Note_on_c, 0, 63, 81
1, 1097131, Note_on_c, 0, 69, 62
1, 1097132, Poly_aftertouch_c, 0, 69, 28
1, 1097133, Poly_aftertouch_c, 0, 71, 28
1, 1097136, Poly_aftertouch_c, 0, 32, 28
1, 1097139, Note_on_c, 0, 71, 63
1, 1097141, Note_on_c, 0, 44, 59
1, 1097141, Poly_aftertouch_c, 0, 44, 28
1, 1097143, Note_on_c, 0, 32, 51
1, 1097146, Note_off_c, 0, 35, 42
1, 1097154, Control_c, 0, 64, 96
1, 1097167, Note_off_c, 0, 73, 40
1, 1097174, Control_c, 0, 64, 66
1, 1097193, Control_c, 0, 64, 43
1, 1097211, Control_c, 0, 64, 33
1, 1097262, Note_off_c, 0, 69, 56
1, 1097267, Control_c, 0, 64, 45
1, 1097286, Control_c, 0, 64, 65
1, 1097306, Control_c, 0, 64, 89
1, 1097325, Control_c, 0, 64, 127
1, 1097331, Note_off_c, 0, 71, 55
1, 1097343, Note_off_c, 0, 32, 62
1, 1097412, Note_off_c, 0, 44, 59
1, 1097518, Note_off_c, 0, 63, 51
1, 1097643, Poly_aftertouch_c, 0, 64, 28
1, 1097650, Note_on_c, 0, 64, 69
1, 1097651, Poly_aftertouch_c, 0, 71, 28
1, 1097654, Note_on_c, 0, 71, 69
1, 1097656, Poly_aftertouch_c, 0, 37, 28
1, 1097660, Poly_aftertouch_c, 0, 68, 28
1, 1097661, Control_c, 0, 64, 103
1, 1097663, Note_on_c, 0, 68, 64
1, 1097666, Note_on_c, 0, 37, 49
1, 1097666, Note_on_c, 0, 49, 54
1, 1097667, Poly_aftertouch_c, 0, 49, 28
1, 1097680, Control_c, 0, 64, 70
1, 1097699, Control_c, 0, 64, 48
1, 1097718, Control_c, 0, 64, 35
1, 1097774, Control_c, 0, 64, 43
1, 1097792, Control_c, 0, 64, 59
1, 1097811, Control_c, 0, 64, 74
1, 1097830, Control_c, 0, 64, 96
1, 1097848, Control_c, 0, 64, 127
1, 1097856, Note_off_c, 0, 49, 60
1, 1097919, Note_off_c, 0, 37, 61
1, 1097929, Poly_aftertouch_c, 0, 65, 28
1, 1097936, Note_on_c, 0, 65, 79
1, 1097940, Note_off_c, 0, 71, 60
1, 1097955, Note_off_c, 0, 68, 43
1, 1097978, Note_off_c, 0, 64, 61
1, 1098242, Control_c, 0, 64, 88
1, 1098250, Poly_aftertouch_c, 0, 71, 28
1, 1098255, Note_on_c, 0, 71, 77
1, 1098261, Poly_aftertouch_c, 0, 42, 28
1, 1098261, Control_c, 0, 64, 59
1, 1098264, Poly_aftertouch_c, 0, 68, 28
1, 1098265, Note_on_c, 0, 42, 52
1, 1098268, Note_on_c, 0, 68, 70
1, 1098269, Poly_aftertouch_c, 0, 30, 28
1, 1098272, Note_on_c, 0, 30, 44
1, 1098275, Note_off_c, 0, 65, 61
1, 1098280, Control_c, 0, 64, 34
1, 1098298, Control_c, 0, 64, 18
1, 1098372, Control_c, 0, 64, 31
1, 1098392, Control_c, 0, 64, 48
1, 1098409, Control_c, 0, 64, 72
1, 1098429, Control_c, 0, 64, 99
1, 1098448, Control_c, 0, 64, 127
1, 1098468, Note_off_c, 0, 30, 52
1, 1098518, Note_off_c, 0, 42, 59
1, 1098554, Poly_aftertouch_c, 0, 66, 28
1, 1098558, Note_on_c, 0, 66, 74
1, 1098572, Note_off_c, 0, 71, 55
1, 1098783, Note_off_c, 0, 68, 22
1, 1098803, Control_c, 0, 64, 96
1, 1098804, Poly_aftertouch_c, 0, 42, 28
1, 1098808, Note_on_c, 0, 69, 75
1, 1098808, Poly_aftertouch_c, 0, 69, 28
1, 1098813, Note_on_c, 0, 42, 53
1, 1098815, Poly_aftertouch_c, 0, 54, 28
1, 1098816, Poly_aftertouch_c, 0, 61, 28
1, 1098817, Note_on_c, 0, 61, 70
1, 1098819, Note_on_c, 0, 54, 56
1, 1098821, Control_c, 0, 64, 69
1, 1098840, Control_c, 0, 64, 49
1, 1098842, Note_off_c, 0, 66, 59
1, 1098859, Control_c, 0, 64, 40
1, 1098896, Control_c, 0, 64, 45
1, 1098915, Control_c, 0, 64, 57
1, 1098933, Control_c, 0, 64, 69
1, 1098952, Control_c, 0, 64, 81
1, 1098971, Control_c, 0, 64, 104
1, 1098978, Note_off_c, 0, 54, 62
1, 1098990, Control_c, 0, 64, 127
1, 1099036, Note_off_c, 0, 42, 59
1, 1099103, Poly_aftertouch_c, 0, 57, 28
1, 1099107, Note_on_c, 0, 57, 78
1, 1099194, Note_off_c, 0, 57, 60
1, 1099233, Note_off_c, 0, 61, 34
1, 1099249, Note_off_c, 0, 69, 57
1, 1099553, Poly_aftertouch_c, 0, 74, 28
1, 1099555, Note_on_c, 0, 74, 95
1, 1099565, Poly_aftertouch_c, 0, 68, 28
1, 1099569, Poly_aftertouch_c, 0, 28, 28
1, 1099570, Poly_aftertouch_c, 0, 40, 28
1, 1099570, Control_c, 0, 64, 100
1, 1099573, Note_on_c, 0, 40, 59
1, 1099575, Note_on_c, 0, 68, 72
1, 1099576, Note_on_c, 0, 28, 59
1, 1099576, Poly_aftertouch_c, 0, 62, 28
1, 1099577, Note_on_c, 0, 62, 71
1, 1099590, Control_c, 0, 64, 65
1, 1099607, Control_c, 0, 64, 29
1, 1099627, Control_c, 0, 64, 0
1, 1099738, Control_c, 0, 64, 16
1, 1099757, Control_c, 0, 64, 40
1, 1099776, Control_c, 0, 64, 71
1, 1099796, Control_c, 0, 64, 118
1, 1099811, Note_off_c, 0, 28, 51
1, 1099813, Control_c, 0, 64, 127
1, 1099876, Note_off_c, 0, 40, 54
1, 1099911, Note_off_c, 0, 62, 54
1, 1099932, Note_off_c, 0, 74, 53
1, 1099945, Note_off_c, 0, 68, 58
1, 1100226, Control_c, 0, 64, 94
1, 1100234, Poly_aftertouch_c, 0, 74, 28
1, 1100235, Note_on_c, 0, 74, 97
1, 1100237, Poly_aftertouch_c, 0, 41, 28
1, 1100239, Note_on_c, 0, 41, 73
1, 1100242, Poly_aftertouch_c, 0, 63, 28
1, 1100243, Note_on_c, 0, 69, 81
1, 1100245, Poly_aftertouch_c, 0, 69, 28
1, 1100245, Control_c, 0, 64, 61
1, 1100247, Note_on_c, 0, 63, 82
1, 1100250, Note_on_c, 0, 29, 64
1, 1100250, Poly_aftertouch_c, 0, 29, 28
1, 1100264, Control_c, 0, 64, 23
1, 1100281, Control_c, 0, 64, 0
1, 1100357, Control_c, 0, 64, 26
1, 1100375, Control_c, 0, 64, 51
1, 1100395, Control_c, 0, 64, 78
1, 1100404, Note_off_c, 0, 29, 60
1, 1100412, Control_c, 0, 64, 127
1, 1100468, Note_off_c, 0, 41, 59
1, 1100493, Note_off_c, 0, 63, 60
1, 1100509, Note_off_c, 0, 69, 57
1, 1100805, Control_c, 0, 64, 89
1, 1100808, Poly_aftertouch_c, 0, 63, 28
1, 1100811, Note_on_c, 0, 63, 88
1, 1100812, Note_on_c, 0, 72, 87
1, 1100814, Poly_aftertouch_c, 0, 69, 28
1, 1100814, Poly_aftertouch_c, 0, 72, 28
1, 1100817, Note_on_c, 0, 53, 77
1, 1100819, Note_on_c, 0, 41, 71
1, 1100819, Note_on_c, 0, 69, 83
1, 1100820, Poly_aftertouch_c, 0, 41, 28
1, 1100821, Poly_aftertouch_c, 0, 53, 28
1, 1100824, Control_c, 0, 64, 59
1, 1100843, Control_c, 0, 64, 38
1, 1100881, Control_c, 0, 64, 41
1, 1100894, Note_off_c, 0, 74, 54
1, 1100899, Control_c, 0, 64, 55
1, 1100918, Control_c, 0, 64, 71
1, 1100938, Control_c, 0, 64, 93
1, 1100942, Note_off_c, 0, 53, 57
1, 1100956, Control_c, 0, 64, 127
1, 1100966, Note_off_c, 0, 63, 59
1, 1100973, Note_off_c, 0, 41, 58
1, 1101006, Note_off_c, 0, 69, 56
1, 1101021, Note_off_c, 0, 72, 60
1, 1101363, Poly_aftertouch_c, 0, 75, 28
1, 1101367, Control_c, 0, 64, 72
1, 1101368, Note_on_c, 0, 75, 86
1, 1101369, Poly_aftertouch_c, 0, 69, 28
1, 1101371, Note_on_c, 0, 69, 86
1, 1101375, Poly_aftertouch_c, 0, 60, 28
1, 1101378, Note_on_c, 0, 60, 90
1, 1101381, Poly_aftertouch_c, 0, 42, 28
1, 1101384, Note_on_c, 0, 42, 86
1, 1101385, Control_c, 0, 64, 32
1, 1101389, Poly_aftertouch_c, 0, 30, 28
1, 1101390, Note_on_c, 0, 30, 80
1, 1101405, Control_c, 0, 64, 0
1, 1101480, Control_c, 0, 64, 9
1, 1101498, Control_c, 0, 64, 30
1, 1101518, Control_c, 0, 64, 58
1, 1101528, Note_off_c, 0, 30, 61
1, 1101535, Control_c, 0, 64, 88
1, 1101554, Control_c, 0, 64, 127
1, 1101592, Note_off_c, 0, 42, 57
1, 1101632, Note_off_c, 0, 60, 49
1, 1101689, Note_off_c, 0, 69, 49
1, 1101715, Note_off_c, 0, 75, 56
1, 1102027, Poly_aftertouch_c, 0, 74, 28
1, 1102029, Note_on_c, 0, 74, 95
1, 1102034, Note_on_c, 0, 62, 90
1, 1102035, Note_on_c, 0, 69, 86
1, 1102037, Poly_aftertouch_c, 0, 54, 28
1, 1102037, Poly_aftertouch_c, 0, 62, 28
1, 1102039, Note_on_c, 0, 54, 85
1, 1102041, Poly_aftertouch_c, 0, 69, 28
1, 1102041, Control_c, 0, 64, 83
1, 1102043, Note_on_c, 0, 42, 82
1, 1102045, Poly_aftertouch_c, 0, 42, 28
1, 1102061, Control_c, 0, 64, 48
1, 1102096, Control_c, 0, 64, 0
1, 1102172, Control_c, 0, 64, 16
1, 1102192, Control_c, 0, 64, 39
1, 1102209, Control_c, 0, 64, 68
1, 1102224, Note_off_c, 0, 54, 61
1, 1102228, Control_c, 0, 64, 104
1, 1102247, Control_c, 0, 64, 127
1, 1102327, Note_off_c, 0, 42, 59
1, 1102385, Note_off_c, 0, 62, 60
1, 1102386, Note_off_c, 0, 69, 57
1, 1102684, Poly_aftertouch_c, 0, 63, 28
1, 1102685, Note_on_c, 0, 63, 87
1, 1102686, Note_on_c, 0, 69, 86
1, 1102687, Note_on_c, 0, 72, 86
1, 1102688, Note_on_c, 0, 41, 80
1, 1102689, Poly_aftertouch_c, 0, 69, 28
1, 1102689, Poly_aftertouch_c, 0, 72, 28
1, 1102692, Note_on_c, 0, 29, 78
1, 1102694, Poly_aftertouch_c, 0, 29, 28
1, 1102695, Poly_aftertouch_c, 0, 41, 28
1, 1102695, Control_c, 0, 64, 80
1, 1102715, Control_c, 0, 64, 44
1, 1102726, Note_off_c, 0, 74, 60
1, 1102734, Control_c, 0, 64, 0
1, 1102841, Note_off_c, 0, 29, 57
1, 1102846, Control_c, 0, 64, 25
1, 1102865, Control_c, 0, 64, 51
1, 1102883, Control_c, 0, 64, 75
1, 1102902, Control_c, 0, 64, 105
1, 1102912, Note_off_c, 0, 72, 58
1, 1102921, Control_c, 0, 64, 127
1, 1102943, Note_off_c, 0, 69, 54
1, 1102972, Note_off_c, 0, 41, 59
1, 1102988, Note_off_c, 0, 63, 60
1, 1103672, Poly_aftertouch_c, 0, 63, 28
1, 1103675, Note_on_c, 0, 63, 92
1, 1103682, Poly_aftertouch_c, 0, 41, 28
1, 1103684, Poly_aftertouch_c, 0, 57, 28
1, 1103687, Control_c, 0, 64, 79
1, 1103689, Note_on_c, 0, 41, 70
1, 1103689, Note_on_c, 0, 57, 81
1, 1103692, Poly_aftertouch_c, 0, 48, 28
1, 1103693, Poly_aftertouch_c, 0, 51, 28
1, 1103694, Note_on_c, 0, 51, 77
1, 1103696, Note_on_c, 0, 48, 67
1, 1103708, Control_c, 0, 64, 50
1, 1103726, Control_c, 0, 64, 11
1, 1103745, Control_c, 0, 64, 0
1, 1104044, Control_c, 0, 64, 17
1, 1104064, Control_c, 0, 64, 26
1, 1104081, Control_c, 0, 64, 38
1, 1104101, Control_c, 0, 64, 52
1, 1104119, Control_c, 0, 64, 63
1, 1104137, Control_c, 0, 64, 69
1, 1104156, Control_c, 0, 64, 71
1, 1104194, Control_c, 0, 64, 73
1, 1104231, Control_c, 0, 64, 78
1, 1104251, Control_c, 0, 64, 84
1, 1104269, Control_c, 0, 64, 91
1, 1104287, Control_c, 0, 64, 99
1, 1104305, Control_c, 0, 64, 108
1, 1104325, Control_c, 0, 64, 118
1, 1104343, Control_c, 0, 64, 127
1, 1104546, Note_off_c, 0, 51, 51
1, 1104627, Poly_aftertouch_c, 0, 62, 28
1, 1104630, Note_on_c, 0, 62, 81
1, 1104642, Poly_aftertouch_c, 0, 50, 28
1, 1104647, Note_on_c, 0, 50, 66
1, 1104657, Poly_aftertouch_c, 0, 42, 28
1, 1104661, Control_c, 0, 64, 101
1, 1104665, Note_on_c, 0, 42, 50
1, 1104681, Control_c, 0, 64, 74
1, 1104690, Note_off_c, 0, 63, 50
1, 1104699, Control_c, 0, 64, 48
1, 1104718, Control_c, 0, 64, 15
1, 1104729, Note_off_c, 0, 41, 52
1, 1104736, Control_c, 0, 64, 0
1, 1104830, Control_c, 0, 64, 17
1, 1104850, Control_c, 0, 64, 34
1, 1104868, Control_c, 0, 64, 54
1, 1104887, Control_c, 0, 64, 71
1, 1104905, Control_c, 0, 64, 86
1, 1104924, Control_c, 0, 64, 107
1, 1104943, Control_c, 0, 64, 127
1, 1105026, Note_off_c, 0, 48, 48
1, 1105027, Note_off_c, 0, 50, 60
1, 1105062, Note_off_c, 0, 62, 58
1, 1105066, Note_off_c, 0, 57, 48
1, 1105354, Poly_aftertouch_c, 0, 63, 28
1, 1105354, Control_c, 0, 64, 97
1, 1105359, Note_on_c, 0, 63, 80
1, 1105374, Control_c, 0, 64, 73
1, 1105378, Poly_aftertouch_c, 0, 57, 28
1, 1105383, Note_on_c, 0, 57, 59
1, 1105390, Poly_aftertouch_c, 0, 43, 28
1, 1105391, Poly_aftertouch_c, 0, 47, 28
1, 1105391, Poly_aftertouch_c, 0, 51, 28
1, 1105393, Control_c, 0, 64, 51
1, 1105397, Note_on_c, 0, 51, 51
1, 1105400, Note_on_c, 0, 43, 31
1, 1105400, Note_on_c, 0, 47, 40
1, 1105403, Note_off_c, 0, 42, 37
1, 1105411, Control_c, 0, 64, 25
1, 1105448, Control_c, 0, 64, 0
1, 1105523, Control_c, 0, 64, 11
1, 1105542, Control_c, 0, 64, 24
1, 1105560, Control_c, 0, 64, 40
1, 1105579, Control_c, 0, 64, 59
1, 1105598, Control_c, 0, 64, 74
1, 1105617, Control_c, 0, 64, 87
1, 1105635, Control_c, 0, 64, 103
1, 1105653, Control_c, 0, 64, 121
1, 1105658, Note_off_c, 0, 57, 60
1, 1105673, Control_c, 0, 64, 127
1, 1105849, Note_off_c, 0, 51, 34
1, 1106119, Note_off_c, 0, 63, 45
1, 1106125, Poly_aftertouch_c, 0, 64, 28
1, 1106126, Note_on_c, 0, 64, 79
1, 1106140, Control_c, 0, 64, 98
1, 1106141, Poly_aftertouch_c, 0, 55, 28
1, 1106146, Poly_aftertouch_c, 0, 40, 28
1, 1106148, Note_on_c, 0, 55, 55
1, 1106154, Note_on_c, 0, 40, 39
1, 1106154, Poly_aftertouch_c, 0, 52, 28
1, 1106158, Note_on_c, 0, 52, 47
1, 1106158, Control_c, 0, 64, 76
1, 1106178, Control_c, 0, 64, 56
1, 1106197, Control_c, 0, 64, 32
1, 1106217, Control_c, 0, 64, 8
1, 1106255, Note_off_c, 0, 43, 41
1, 1106309, Control_c, 0, 64, 18
1, 1106329, Control_c, 0, 64, 32
1, 1106347, Control_c, 0, 64, 52
1, 1106365, Control_c, 0, 64, 73
1, 1106378, Note_off_c, 0, 47, 39
1, 1106383, Control_c, 0, 64, 93
1, 1106403, Control_c, 0, 64, 127
1, 1106482, Note_off_c, 0, 55, 56
1, 1106558, Note_off_c, 0, 52, 33
1, 1106612, Note_off_c, 0, 64, 58
1, 1106702, Control_c, 0, 67, 8
1, 1106740, Control_c, 0, 67, 13
1, 1106776, Control_c, 0, 67, 19
1, 1106993, Poly_aftertouch_c, 0, 66, 28
1, 1106997, Note_on_c, 0, 66, 82
1, 1107001, Control_c, 0, 64, 98
1, 1107014, Poly_aftertouch_c, 0, 35, 28
1, 1107017, Poly_aftertouch_c, 0, 47, 28
1, 1107018, Poly_aftertouch_c, 0, 63, 28
1, 1107019, Note_on_c, 0, 35, 42
1, 1107021, Control_c, 0, 64, 72
1, 1107024, Note_on_c, 0, 63, 55
1, 1107027, Note_on_c, 0, 47, 32
1, 1107029, Note_off_c, 0, 40, 38
1, 1107030, Poly_aftertouch_c, 0, 54, 28
1, 1107038, Note_on_c, 0, 54, 46
1, 1107039, Control_c, 0, 64, 47
1, 1107059, Control_c, 0, 64, 20
1, 1107151, Control_c, 0, 64, 8
1, 1107170, Control_c, 0, 64, 20
1, 1107189, Control_c, 0, 64, 35
1, 1107208, Control_c, 0, 64, 57
1, 1107226, Control_c, 0, 64, 77
1, 1107245, Control_c, 0, 64, 102
1, 1107265, Control_c, 0, 64, 127
1, 1107307, Note_off_c, 0, 47, 42
1, 1107359, Note_off_c, 0, 35, 39
1, 1107434, Note_off_c, 0, 54, 34
1, 1107506, Note_off_c, 0, 66, 56
1, 1107550, Note_off_c, 0, 63, 48
1, 1107692, Poly_aftertouch_c, 0, 28, 28
1, 1107703, Note_on_c, 0, 28, 43
1, 1107803, Note_off_c, 0, 28, 58
1, 1107864, Poly_aftertouch_c, 0, 40, 28
1, 1107871, Note_on_c, 0, 40, 41
1, 1108163, Poly_aftertouch_c, 0, 68, 28
1, 1108169, Note_on_c, 0, 68, 78
1, 1108184, Poly_aftertouch_c, 0, 64, 28
1, 1108187, Note_on_c, 0, 64, 56
1, 1108191, Poly_aftertouch_c, 0, 47, 28
1, 1108191, Poly_aftertouch_c, 0, 56, 28
1, 1108194, Note_on_c, 0, 56, 45
1, 1108201, Note_on_c, 0, 47, 34
1, 1108203, Note_on_c, 0, 59, 46
1, 1108205, Poly_aftertouch_c, 0, 59, 28
1, 1108256, Control_c, 0, 64, 101
1, 1108274, Control_c, 0, 64, 80
1, 1108294, Control_c, 0, 64, 61
1, 1108312, Control_c, 0, 64, 37
1, 1108350, Control_c, 0, 64, 0
1, 1108498, Control_c, 0, 64, 14
1, 1108518, Control_c, 0, 64, 23
1, 1108537, Control_c, 0, 64, 34
1, 1108556, Control_c, 0, 64, 50
1, 1108574, Control_c, 0, 64, 65
1, 1108593, Control_c, 0, 64, 74
1, 1108612, Control_c, 0, 64, 83
1, 1108631, Control_c, 0, 64, 92
1, 1108649, Control_c, 0, 64, 103
1, 1108668, Control_c, 0, 64, 122
1, 1108688, Control_c, 0, 64, 127
1, 1108854, Note_off_c, 0, 40, 41
1, 1109093, Note_off_c, 0, 56, 31
1, 1109111, Note_off_c, 0, 68, 43
1, 1109119, Note_off_c, 0, 47, 39
1, 1109180, Note_off_c, 0, 59, 33
1, 1109940, Control_c, 0, 67, 23
1, 1109978, Control_c, 0, 67, 29
1, 1109997, Control_c, 0, 67, 35
1, 1110015, Control_c, 0, 67, 44
1, 1110019, Poly_aftertouch_c, 0, 64, 24
1, 1110034, Control_c, 0, 67, 50
1, 1110049, Note_off_c, 0, 64, 39
1, 1110052, Control_c, 0, 67, 54
1, 1112067, Poly_aftertouch_c, 0, 68, 28
1, 1112077, Note_on_c, 0, 68, 43
1, 1112089, Poly_aftertouch_c, 0, 56, 28
1, 1112101, Poly_aftertouch_c, 0, 59, 28
1, 1112103, Note_on_c, 0, 56, 24
1, 1112109, Note_on_c, 0, 59, 36
1, 1112111, Poly_aftertouch_c, 0, 51, 28
1, 1112115, Poly_aftertouch_c, 0, 47, 28
1, 1112125, Note_on_c, 0, 51, 21
1, 1112131, Note_on_c, 0, 47, 25
1, 1112140, Poly_aftertouch_c, 0, 39, 28
1, 1112157, Note_on_c, 0, 39, 14
1, 1112243, Control_c, 0, 64, 105
1, 1112262, Control_c, 0, 64, 92
1, 1112280, Control_c, 0, 64, 80
1, 1112301, Control_c, 0, 64, 68
1, 1112318, Control_c, 0, 64, 59
1, 1112336, Control_c, 0, 64, 52
1, 1112356, Control_c, 0, 64, 47
1, 1112374, Control_c, 0, 64, 43
1, 1112393, Control_c, 0, 64, 38
1, 1112411, Control_c, 0, 64, 32
1, 1112431, Control_c, 0, 64, 27
1, 1112448, Control_c, 0, 64, 23
1, 1112542, Control_c, 0, 64, 19
1, 1112916, Control_c, 0, 64, 24
1, 1112954, Control_c, 0, 64, 30
1, 1112992, Control_c, 0, 64, 36
1, 1113010, Control_c, 0, 64, 40
1, 1113030, Control_c, 0, 64, 44
1, 1113048, Control_c, 0, 64, 50
1, 1113066, Control_c, 0, 64, 56
1, 1113086, Control_c, 0, 64, 58
1, 1113160, Control_c, 0, 64, 60
1, 1113179, Control_c, 0, 64, 62
1, 1113197, Control_c, 0, 64, 64
1, 1113217, Control_c, 0, 64, 67
1, 1113236, Control_c, 0, 64, 69
1, 1113254, Control_c, 0, 64, 71
1, 1113272, Control_c, 0, 64, 74
1, 1113291, Control_c, 0, 64, 78
1, 1113310, Control_c, 0, 64, 82
1, 1113328, Control_c, 0, 64, 88
1, 1113348, Control_c, 0, 64, 95
1, 1113366, Control_c, 0, 64, 103
1, 1113384, Control_c, 0, 64, 112
1, 1113403, Control_c, 0, 64, 127
1, 1113962, Note_off_c, 0, 56, 33
1, 1114037, Note_off_c, 0, 59, 32
1, 1114077, Poly_aftertouch_c, 0, 47, 24
1, 1114097, Poly_aftertouch_c, 0, 39, 20
1, 1114109, Note_off_c, 0, 39, 30
1, 1114114, Note_off_c, 0, 47, 32
1, 1114134, Poly_aftertouch_c, 0, 51, 24
1, 1114240, Note_off_c, 0, 51, 27
1, 1114342, Note_off_c, 0, 68, 40
1, 1115406, Control_c, 0, 67, 49
1, 1115481, Control_c, 0, 67, 45
1, 1115518, Control_c, 0, 67, 37
1, 1115538, Control_c, 0, 67, 32
1, 1115556, Control_c, 0, 67, 27
1, 1116785, Poly_aftertouch_c, 0, 75, 28
1, 1116792, Note_on_c, 0, 75, 64
1, 1116885, Control_c, 0, 67, 31
1, 1116941, Control_c, 0, 64, 121
1, 1116960, Control_c, 0, 64, 89
1, 1116980, Control_c, 0, 64, 67
1, 1116997, Control_c, 0, 64, 46
1, 1117016, Control_c, 0, 64, 26
1, 1117035, Control_c, 0, 64, 16
1, 1117110, Control_c, 0, 64, 28
1, 1117110, Control_c, 0, 67, 35
1, 1117127, Control_c, 0, 64, 44
1, 1117147, Control_c, 0, 64, 66
1, 1117167, Control_c, 0, 64, 86
1, 1117185, Control_c, 0, 64, 127
1, 1117223, Control_c, 0, 67, 39
1, 1117259, Control_c, 0, 67, 46
1, 1117278, Control_c, 0, 67, 53
1, 1117297, Control_c, 0, 67, 59
1, 1117316, Control_c, 0, 67, 64
1, 1117353, Control_c, 0, 67, 69
1, 1117390, Control_c, 0, 67, 74
1, 1117427, Control_c, 0, 67, 81
1, 1117431, Poly_aftertouch_c, 0, 71, 28
1, 1117441, Note_on_c, 0, 71, 27
1, 1117446, Control_c, 0, 67, 86
1, 1117465, Control_c, 0, 67, 90
1, 1117503, Control_c, 0, 67, 96
1, 1117559, Control_c, 0, 67, 100
1, 1117698, Poly_aftertouch_c, 0, 68, 28
1, 1117711, Note_on_c, 0, 68, 38
1, 1117767, Poly_aftertouch_c, 0, 71, 24
1, 1117818, Note_off_c, 0, 71, 38
1, 1117888, Poly_aftertouch_c, 0, 63, 28
1, 1117897, Note_on_c, 0, 63, 40
1, 1117984, Poly_aftertouch_c, 0, 68, 22
1, 1117999, Note_off_c, 0, 68, 42
1, 1118026, Poly_aftertouch_c, 0, 73, 28
1, 1118031, Note_off_c, 0, 75, 60
1, 1118034, Note_on_c, 0, 73, 57
1, 1118091, Note_off_c, 0, 63, 28
1, 1118344, Poly_aftertouch_c, 0, 59, 28
1, 1118351, Note_on_c, 0, 59, 30
1, 1118357, Note_off_c, 0, 73, 56
1, 1118524, Note_off_c, 0, 59, 24
1, 1118529, Poly_aftertouch_c, 0, 56, 28
1, 1118537, Note_on_c, 0, 56, 34
1, 1118709, Poly_aftertouch_c, 0, 71, 28
1, 1118715, Note_on_c, 0, 71, 66
1, 1118738, Control_c, 0, 64, 84
1, 1118756, Control_c, 0, 64, 61
1, 1118776, Control_c, 0, 64, 46
1, 1118813, Control_c, 0, 64, 48
1, 1118814, Control_c, 0, 67, 96
1, 1118832, Control_c, 0, 64, 57
1, 1118851, Control_c, 0, 64, 67
1, 1118869, Control_c, 0, 64, 78
1, 1118889, Control_c, 0, 64, 99
1, 1118906, Control_c, 0, 64, 127
1, 1118928, Note_off_c, 0, 56, 53
1, 1118976, Poly_aftertouch_c, 0, 68, 28
1, 1118989, Note_on_c, 0, 68, 35
1, 1119173, Poly_aftertouch_c, 0, 64, 28
1, 1119178, Note_off_c, 0, 68, 41
1, 1119181, Note_on_c, 0, 64, 31
1, 1119293, Poly_aftertouch_c, 0, 59, 28
1, 1119298, Note_on_c, 0, 59, 32
1, 1119320, Control_c, 0, 64, 100
1, 1119337, Control_c, 0, 64, 74
1, 1119350, Poly_aftertouch_c, 0, 70, 28
1, 1119351, Note_off_c, 0, 71, 59
1, 1119355, Control_c, 0, 64, 56
1, 1119360, Note_on_c, 0, 70, 67
1, 1119376, Control_c, 0, 64, 48
1, 1119412, Control_c, 0, 64, 57
1, 1119431, Control_c, 0, 64, 65
1, 1119450, Control_c, 0, 64, 76
1, 1119468, Control_c, 0, 64, 93
1, 1119487, Control_c, 0, 64, 127
1, 1119508, Poly_aftertouch_c, 0, 64, 24
1, 1119533, Poly_aftertouch_c, 0, 56, 28
1, 1119541, Note_on_c, 0, 56, 38
1, 1119542, Note_off_c, 0, 59, 39
1, 1119560, Note_off_c, 0, 64, 37
1, 1119608, Note_off_c, 0, 70, 62
1, 1119769, Poly_aftertouch_c, 0, 52, 28
1, 1119774, Note_on_c, 0, 52, 36
1, 1119823, Note_off_c, 0, 56, 34
1, 1119935, Control_c, 0, 64, 103
1, 1119937, Poly_aftertouch_c, 0, 68, 28
1, 1119946, Note_on_c, 0, 68, 66
1, 1119953, Control_c, 0, 64, 73
1, 1119974, Control_c, 0, 64, 52
1, 1119993, Control_c, 0, 64, 41
1, 1120030, Control_c, 0, 64, 44
1, 1120049, Control_c, 0, 64, 56
1, 1120067, Control_c, 0, 64, 68
1, 1120086, Control_c, 0, 64, 81
1, 1120106, Control_c, 0, 64, 103
1, 1120124, Control_c, 0, 64, 127
1, 1120180, Note_off_c, 0, 52, 51
1, 1120193, Poly_aftertouch_c, 0, 64, 28
1, 1120198, Note_on_c, 0, 64, 38
1, 1120428, Poly_aftertouch_c, 0, 61, 28
1, 1120436, Note_on_c, 0, 61, 35
1, 1120637, Poly_aftertouch_c, 0, 56, 28
1, 1120637, Poly_aftertouch_c, 0, 64, 24
1, 1120646, Note_on_c, 0, 56, 34
1, 1120768, Note_off_c, 0, 64, 21
1, 1120816, Control_c, 0, 64, 90
1, 1120836, Control_c, 0, 64, 65
1, 1120838, Poly_aftertouch_c, 0, 71, 28
1, 1120843, Note_on_c, 0, 71, 55
1, 1120854, Control_c, 0, 64, 44
1, 1120868, Note_off_c, 0, 68, 35
1, 1120872, Control_c, 0, 64, 30
1, 1120929, Control_c, 0, 64, 34
1, 1120947, Control_c, 0, 64, 46
1, 1120966, Control_c, 0, 64, 64
1, 1120984, Control_c, 0, 64, 79
1, 1121003, Control_c, 0, 64, 103
1, 1121022, Control_c, 0, 64, 127
1, 1121105, Note_off_c, 0, 71, 59
1, 1121151, Note_off_c, 0, 61, 38
1, 1121205, Poly_aftertouch_c, 0, 52, 28
1, 1121213, Note_on_c, 0, 52, 21
1, 1121331, Note_off_c, 0, 52, 0
1, 1121331, Poly_aftertouch_c, 0, 52, 28
1, 1121346, Poly_aftertouch_c, 0, 70, 28
1, 1121354, Note_on_c, 0, 70, 55
1, 1121373, Note_off_c, 0, 56, 27
1, 1121476, Poly_aftertouch_c, 0, 52, 22
1, 1121500, Poly_aftertouch_c, 0, 49, 28
1, 1121508, Note_on_c, 0, 49, 34
1, 1121514, Poly_aftertouch_c, 0, 52, 0
1, 1121715, Poly_aftertouch_c, 0, 68, 28
1, 1121715, Control_c, 0, 64, 101
1, 1121724, Note_off_c, 0, 70, 45
1, 1121724, Note_on_c, 0, 68, 57
1, 1121732, Control_c, 0, 64, 76
1, 1121752, Control_c, 0, 64, 54
1, 1121771, Control_c, 0, 64, 35
1, 1121790, Control_c, 0, 64, 26
1, 1121845, Control_c, 0, 64, 31
1, 1121866, Control_c, 0, 64, 41
1, 1121882, Control_c, 0, 64, 57
1, 1121902, Control_c, 0, 64, 73
1, 1121921, Control_c, 0, 64, 90
1, 1121939, Control_c, 0, 64, 127
1, 1121947, Poly_aftertouch_c, 0, 49, 24
1, 1121980, Poly_aftertouch_c, 0, 64, 28
1, 1121987, Note_on_c, 0, 64, 38
1, 1121999, Note_off_c, 0, 49, 38
1, 1122154, Poly_aftertouch_c, 0, 61, 28
1, 1122163, Note_on_c, 0, 61, 40
1, 1122273, Poly_aftertouch_c, 0, 56, 28
1, 1122281, Note_on_c, 0, 56, 34
1, 1122294, Poly_aftertouch_c, 0, 64, 24
1, 1122339, Note_off_c, 0, 64, 31
1, 1122380, Note_off_c, 0, 56, 0
1, 1122380, Poly_aftertouch_c, 0, 56, 28
1, 1122381, Poly_aftertouch_c, 0, 71, 28
1, 1122384, Note_on_c, 0, 71, 74
1, 1122386, Note_off_c, 0, 61, 31
1, 1122425, Control_c, 0, 64, 114
1, 1122482, Control_c, 0, 64, 127
1, 1122563, Poly_aftertouch_c, 0, 56, 24
1, 1122565, Poly_aftertouch_c, 0, 68, 20
1, 1122573, Note_off_c, 0, 68, 40
1, 1122581, Note_off_c, 0, 71, 55
1, 1122611, Poly_aftertouch_c, 0, 52, 28
1, 1122616, Note_on_c, 0, 52, 37
1, 1122632, Poly_aftertouch_c, 0, 56, 0
1, 1122711, Poly_aftertouch_c, 0, 70, 28
1, 1122718, Note_on_c, 0, 70, 70
1, 1122861, Poly_aftertouch_c, 0, 49, 28
1, 1122862, Note_off_c, 0, 52, 19
1, 1122867, Note_on_c, 0, 49, 45
1, 1122988, Control_c, 0, 64, 93
1, 1123006, Control_c, 0, 64, 71
1, 1123024, Control_c, 0, 64, 53
1, 1123030, Poly_aftertouch_c, 0, 68, 28
1, 1123037, Note_on_c, 0, 68, 73
1, 1123039, Note_off_c, 0, 70, 51
1, 1123043, Control_c, 0, 64, 40
1, 1123119, Control_c, 0, 64, 44
1, 1123137, Control_c, 0, 64, 55
1, 1123156, Control_c, 0, 64, 67
1, 1123157, Control_c, 0, 67, 92
1, 1123174, Control_c, 0, 64, 78
1, 1123194, Control_c, 0, 64, 95
1, 1123211, Control_c, 0, 64, 127
1, 1123235, Note_off_c, 0, 49, 60
1, 1123275, Poly_aftertouch_c, 0, 64, 28
1, 1123282, Note_on_c, 0, 64, 49
1, 1123449, Note_off_c, 0, 64, 51
1, 1123461, Poly_aftertouch_c, 0, 61, 28
1, 1123467, Note_on_c, 0, 61, 52
1, 1123543, Poly_aftertouch_c, 0, 58, 28
1, 1123553, Note_on_c, 0, 58, 45
1, 1123621, Note_off_c, 0, 68, 51
1, 1123624, Control_c, 0, 64, 117
1, 1123642, Control_c, 0, 64, 82
1, 1123662, Control_c, 0, 64, 60
1, 1123679, Poly_aftertouch_c, 0, 73, 28
1, 1123679, Control_c, 0, 64, 42
1, 1123682, Note_on_c, 0, 73, 78
1, 1123698, Control_c, 0, 64, 34
1, 1123754, Control_c, 0, 64, 44
1, 1123774, Control_c, 0, 64, 56
1, 1123792, Control_c, 0, 64, 69
1, 1123811, Control_c, 0, 64, 82
1, 1123832, Control_c, 0, 64, 102
1, 1123841, Note_off_c, 0, 61, 56
1, 1123848, Control_c, 0, 64, 127
1, 1123899, Note_off_c, 0, 58, 55
1, 1123903, Poly_aftertouch_c, 0, 55, 28
1, 1123910, Note_on_c, 0, 55, 47
1, 1124043, Poly_aftertouch_c, 0, 71, 28
1, 1124047, Note_on_c, 0, 71, 79
1, 1124069, Note_off_c, 0, 73, 55
1, 1124177, Note_off_c, 0, 55, 32
1, 1124192, Poly_aftertouch_c, 0, 51, 28
1, 1124198, Note_on_c, 0, 51, 52
1, 1124410, Control_c, 0, 64, 114
1, 1124412, Poly_aftertouch_c, 0, 70, 28
1, 1124417, Note_on_c, 0, 70, 80
1, 1124429, Control_c, 0, 64, 87
1, 1124448, Control_c, 0, 64, 65
1, 1124454, Note_off_c, 0, 71, 60
1, 1124467, Control_c, 0, 64, 44
1, 1124485, Control_c, 0, 64, 23
1, 1124636, Control_c, 0, 64, 14
1, 1124653, Control_c, 0, 64, 27
1, 1124673, Control_c, 0, 64, 44
1, 1124692, Control_c, 0, 64, 66
1, 1124710, Control_c, 0, 64, 84
1, 1124729, Control_c, 0, 64, 118
1, 1124739, Poly_aftertouch_c, 0, 67, 28
1, 1124745, Note_on_c, 0, 67, 56
1, 1124746, Control_c, 0, 64, 127
1, 1124767, Note_off_c, 0, 51, 59
1, 1124980, Note_off_c, 0, 70, 35
1, 1125010, Poly_aftertouch_c, 0, 63, 28
1, 1125018, Note_on_c, 0, 63, 56
1, 1125033, Note_off_c, 0, 67, 59
1, 1125084, Control_c, 0, 67, 96
1, 1125196, Control_c, 0, 67, 100
1, 1125234, Control_c, 0, 67, 105
1, 1125252, Control_c, 0, 67, 110
1, 1125271, Control_c, 0, 67, 118
1, 1125289, Control_c, 0, 67, 126
1, 1125659, Note_off_c, 0, 63, 35
1, 1125678, Poly_aftertouch_c, 0, 61, 28
1, 1125684, Note_on_c, 0, 61, 36
1, 1125823, Poly_aftertouch_c, 0, 76, 28
1, 1125827, Note_on_c, 0, 76, 55
1, 1125870, Control_c, 0, 64, 97
1, 1125889, Control_c, 0, 64, 78
1, 1125907, Control_c, 0, 64, 63
1, 1125926, Control_c, 0, 64, 49
1, 1125945, Control_c, 0, 64, 36
1, 1125963, Control_c, 0, 64, 24
1, 1125982, Control_c, 0, 64, 14
1, 1126001, Control_c, 0, 64, 8
1, 1126245, Control_c, 0, 64, 13
1, 1126263, Control_c, 0, 64, 19
1, 1126283, Control_c, 0, 64, 25
1, 1126300, Control_c, 0, 64, 33
1, 1126320, Control_c, 0, 64, 45
1, 1126339, Control_c, 0, 64, 59
1, 1126357, Control_c, 0, 64, 69
1, 1126375, Control_c, 0, 64, 74
1, 1126396, Control_c, 0, 64, 77
1, 1126413, Control_c, 0, 64, 80
1, 1126424, Poly_aftertouch_c, 0, 58, 28
1, 1126430, Control_c, 0, 64, 83
1, 1126441, Note_on_c, 0, 58, 28
1, 1126449, Control_c, 0, 64, 89
1, 1126470, Control_c, 0, 64, 100
1, 1126487, Control_c, 0, 64, 127
1, 1126509, Note_off_c, 0, 61, 37
1, 1126719, Poly_aftertouch_c, 0, 55, 28
1, 1126727, Note_on_c, 0, 55, 41
1, 1126745, Note_off_c, 0, 58, 41
1, 1126985, Note_off_c, 0, 55, 38
1, 1126989, Poly_aftertouch_c, 0, 51, 28
1, 1126997, Note_on_c, 0, 51, 40
1, 1127062, Poly_aftertouch_c, 0, 75, 28
1, 1127070, Note_on_c, 0, 75, 55
1, 1127088, Control_c, 0, 64, 95
1, 1127105, Control_c, 0, 64, 74
1, 1127120, Note_off_c, 0, 76, 38
1, 1127124, Control_c, 0, 64, 56
1, 1127143, Control_c, 0, 64, 40
1, 1127161, Control_c, 0, 64, 28
1, 1127255, Control_c, 0, 64, 34
1, 1127274, Control_c, 0, 64, 46
1, 1127292, Control_c, 0, 64, 63
1, 1127312, Control_c, 0, 64, 76
1, 1127330, Control_c, 0, 64, 92
1, 1127350, Control_c, 0, 64, 124
1, 1127393, Poly_aftertouch_c, 0, 70, 28
1, 1127396, Note_off_c, 0, 51, 47
1, 1127407, Note_on_c, 0, 70, 40
1, 1127603, Note_off_c, 0, 70, 55
1, 1127617, Poly_aftertouch_c, 0, 67, 28
1, 1127625, Note_on_c, 0, 67, 36
1, 1127779, Poly_aftertouch_c, 0, 63, 28
1, 1127788, Note_on_c, 0, 63, 38
1, 1127835, Control_c, 0, 64, 100
1, 1127855, Control_c, 0, 64, 75
1, 1127861, Note_off_c, 0, 67, 38
1, 1127873, Control_c, 0, 64, 55
1, 1127874, Poly_aftertouch_c, 0, 73, 28
1, 1127877, Note_on_c, 0, 73, 55
1, 1127891, Note_off_c, 0, 75, 49
1, 1127891, Control_c, 0, 64, 39
1, 1127910, Control_c, 0, 64, 31
1, 1128004, Control_c, 0, 64, 44
1, 1128023, Control_c, 0, 64, 60
1, 1128041, Control_c, 0, 64, 74
1, 1128061, Control_c, 0, 64, 89
1, 1128079, Control_c, 0, 64, 114
1, 1128085, Note_off_c, 0, 63, 36
1, 1128089, Poly_aftertouch_c, 0, 59, 28
1, 1128095, Note_on_c, 0, 59, 35
1, 1128097, Control_c, 0, 64, 127
1, 1128137, Note_off_c, 0, 73, 60
1, 1128298, Poly_aftertouch_c, 0, 56, 28
1, 1128304, Note_on_c, 0, 56, 38
1, 1128315, Note_off_c, 0, 59, 40
1, 1128434, Control_c, 0, 64, 111
1, 1128453, Control_c, 0, 64, 79
1, 1128457, Poly_aftertouch_c, 0, 71, 28
1, 1128460, Note_on_c, 0, 71, 60
1, 1128473, Control_c, 0, 64, 58
1, 1128491, Control_c, 0, 64, 44
1, 1128509, Control_c, 0, 64, 41
1, 1128529, Control_c, 0, 64, 43
1, 1128547, Control_c, 0, 64, 52
1, 1128565, Control_c, 0, 64, 63
1, 1128584, Control_c, 0, 64, 76
1, 1128604, Control_c, 0, 64, 94
1, 1128622, Control_c, 0, 64, 127
1, 1128623, Note_off_c, 0, 56, 61
1, 1128677, Poly_aftertouch_c, 0, 68, 28
1, 1128685, Note_on_c, 0, 68, 42
1, 1128811, Note_off_c, 0, 68, 52
1, 1128835, Poly_aftertouch_c, 0, 64, 28
1, 1128842, Note_on_c, 0, 64, 44
1, 1128977, Control_c, 0, 64, 85
1, 1128997, Control_c, 0, 64, 62
1, 1129000, Poly_aftertouch_c, 0, 70, 28
1, 1129008, Note_on_c, 0, 70, 57
1, 1129013, Note_on_c, 0, 59, 37
1, 1129013, Poly_aftertouch_c, 0, 59, 28
1, 1129014, Control_c, 0, 64, 44
1, 1129033, Control_c, 0, 64, 37
1, 1129042, Note_off_c, 0, 71, 36
1, 1129071, Control_c, 0, 64, 42
1, 1129090, Control_c, 0, 64, 52
1, 1129095, Note_off_c, 0, 64, 33
1, 1129110, Control_c, 0, 64, 65
1, 1129127, Control_c, 0, 64, 77
1, 1129146, Control_c, 0, 64, 95
1, 1129164, Note_off_c, 0, 59, 52
1, 1129164, Control_c, 0, 64, 127
1, 1129195, Poly_aftertouch_c, 0, 56, 28
1, 1129202, Note_on_c, 0, 56, 46
1, 1129244, Note_off_c, 0, 70, 62
1, 1129368, Note_off_c, 0, 56, 48
1, 1129376, Poly_aftertouch_c, 0, 52, 28
1, 1129383, Note_on_c, 0, 52, 42
1, 1129521, Control_c, 0, 64, 87
1, 1129539, Control_c, 0, 64, 64
1, 1129545, Poly_aftertouch_c, 0, 68, 28
1, 1129551, Note_on_c, 0, 68, 64
1, 1129558, Control_c, 0, 64, 44
1, 1129577, Control_c, 0, 64, 36
1, 1129614, Control_c, 0, 64, 40
1, 1129633, Control_c, 0, 64, 51
1, 1129651, Control_c, 0, 64, 65
1, 1129671, Control_c, 0, 64, 79
1, 1129689, Control_c, 0, 64, 101
1, 1129706, Control_c, 0, 64, 127
1, 1129723, Note_off_c, 0, 52, 53
1, 1129760, Poly_aftertouch_c, 0, 64, 28
1, 1129768, Note_on_c, 0, 64, 46
1, 1129962, Poly_aftertouch_c, 0, 61, 28
1, 1129968, Note_on_c, 0, 61, 45
1, 1130026, Control_c, 0, 67, 122
1, 1130063, Control_c, 0, 67, 116
1, 1130100, Control_c, 0, 67, 111
1, 1130125, Poly_aftertouch_c, 0, 56, 28
1, 1130135, Note_on_c, 0, 56, 42
1, 1130170, Note_off_c, 0, 61, 30
1, 1130249, Control_c, 0, 64, 116
1, 1130269, Control_c, 0, 64, 83
1, 1130289, Control_c, 0, 64, 61
1, 1130294, Poly_aftertouch_c, 0, 71, 28
1, 1130298, Poly_aftertouch_c, 0, 64, 24
1, 1130301, Note_on_c, 0, 71, 63
1, 1130306, Control_c, 0, 64, 43
1, 1130325, Control_c, 0, 64, 37
1, 1130363, Control_c, 0, 64, 41
1, 1130380, Control_c, 0, 64, 50
1, 1130400, Control_c, 0, 64, 64
1, 1130419, Control_c, 0, 64, 76
1, 1130437, Control_c, 0, 64, 95
1, 1130456, Control_c, 0, 64, 127
1, 1130459, Note_off_c, 0, 64, 21
1, 1130491, Note_off_c, 0, 68, 36
1, 1130534, Poly_aftertouch_c, 0, 52, 28
1, 1130535, Note_off_c, 0, 71, 59
1, 1130540, Note_on_c, 0, 52, 41
1, 1130544, Note_off_c, 0, 56, 36
1, 1130625, Poly_aftertouch_c, 0, 70, 28
1, 1130633, Note_on_c, 0, 70, 69
1, 1130703, Note_off_c, 0, 70, 59
1, 1130789, Poly_aftertouch_c, 0, 49, 28
1, 1130794, Note_on_c, 0, 49, 41
1, 1130842, Note_off_c, 0, 52, 29
1, 1130962, Control_c, 0, 64, 91
1, 1130964, Poly_aftertouch_c, 0, 64, 28
1, 1130970, Note_on_c, 0, 64, 65
1, 1130980, Control_c, 0, 64, 66
1, 1131001, Control_c, 0, 64, 47
1, 1131018, Control_c, 0, 64, 39
1, 1131055, Control_c, 0, 64, 43
1, 1131075, Control_c, 0, 64, 54
1, 1131093, Control_c, 0, 64, 65
1, 1131111, Control_c, 0, 64, 76
1, 1131130, Control_c, 0, 64, 92
1, 1131149, Control_c, 0, 64, 127
1, 1131161, Note_off_c, 0, 49, 60
1, 1131167, Control_c, 0, 67, 107
1, 1131171, Poly_aftertouch_c, 0, 61, 28
1, 1131178, Note_on_c, 0, 61, 57
1, 1131205, Control_c, 0, 67, 103
1, 1131241, Control_c, 0, 67, 99
1, 1131335, Poly_aftertouch_c, 0, 58, 28
1, 1131342, Note_on_c, 0, 58, 59
1, 1131496, Poly_aftertouch_c, 0, 52, 28
1, 1131499, Note_on_c, 0, 52, 45
1, 1131504, Control_c, 0, 64, 110
1, 1131517, Poly_aftertouch_c, 0, 68, 28
1, 1131521, Note_on_c, 0, 68, 72
1, 1131523, Control_c, 0, 64, 77
1, 1131542, Control_c, 0, 64, 55
1, 1131561, Control_c, 0, 64, 38
1, 1131579, Control_c, 0, 64, 34
1, 1131617, Control_c, 0, 64, 40
1, 1131629, Note_off_c, 0, 64, 54
1, 1131629, Note_off_c, 0, 58, 51
1, 1131634, Note_off_c, 0, 61, 45
1, 1131635, Control_c, 0, 64, 52
1, 1131654, Control_c, 0, 64, 67
1, 1131673, Control_c, 0, 64, 81
1, 1131691, Poly_aftertouch_c, 0, 49, 28
1, 1131691, Control_c, 0, 64, 105
1, 1131694, Note_on_c, 0, 49, 52
1, 1131710, Control_c, 0, 64, 127
1, 1131767, Note_off_c, 0, 52, 28
1, 1131810, Poly_aftertouch_c, 0, 66, 28
1, 1131813, Note_on_c, 0, 66, 78
1, 1131841, Note_off_c, 0, 68, 61
1, 1131892, Poly_aftertouch_c, 0, 46, 28
1, 1131902, Note_on_c, 0, 46, 51
1, 1131953, Note_off_c, 0, 49, 32
1, 1131957, Note_off_c, 0, 66, 58
1, 1132106, Poly_aftertouch_c, 0, 61, 28
1, 1132110, Note_on_c, 0, 61, 79
1, 1132122, Control_c, 0, 64, 86
1, 1132141, Control_c, 0, 64, 61
1, 1132160, Control_c, 0, 64, 41
1, 1132178, Control_c, 0, 64, 35
1, 1132216, Control_c, 0, 64, 42
1, 1132235, Control_c, 0, 64, 55
1, 1132254, Control_c, 0, 64, 71
1, 1132272, Control_c, 0, 64, 89
1, 1132290, Control_c, 0, 64, 127
1, 1132340, Note_off_c, 0, 46, 59
1, 1132352, Poly_aftertouch_c, 0, 58, 28
1, 1132362, Note_on_c, 0, 58, 58
1, 1132533, Poly_aftertouch_c, 0, 54, 28
1, 1132539, Note_on_c, 0, 54, 62
1, 1132674, Poly_aftertouch_c, 0, 49, 28
1, 1132679, Note_on_c, 0, 49, 54
1, 1132777, Control_c, 0, 64, 107
1, 1132780, Poly_aftertouch_c, 0, 63, 28
1, 1132786, Note_on_c, 0, 63, 82
1, 1132796, Control_c, 0, 64, 74
1, 1132810, Note_off_c, 0, 58, 52
1, 1132814, Control_c, 0, 64, 50
1, 1132834, Control_c, 0, 64, 31
1, 1132852, Control_c, 0, 64, 22
1, 1132875, Note_off_c, 0, 61, 52
1, 1132914, Note_off_c, 0, 54, 38
1, 1132927, Control_c, 0, 64, 27
1, 1132945, Control_c, 0, 64, 39
1, 1132965, Control_c, 0, 64, 59
1, 1132983, Control_c, 0, 64, 79
1, 1133002, Control_c, 0, 64, 107
1, 1133021, Control_c, 0, 64, 127
1, 1133029, Poly_aftertouch_c, 0, 46, 28
1, 1133037, Note_on_c, 0, 46, 52
1, 1133057, Control_c, 0, 67, 90
1, 1133076, Control_c, 0, 67, 84
1, 1133095, Control_c, 0, 67, 78
1, 1133114, Control_c, 0, 67, 73
1, 1133133, Control_c, 0, 67, 69
1, 1133170, Control_c, 0, 67, 65
1, 1133204, Note_off_c, 0, 49, 30
1, 1133250, Note_off_c, 0, 63, 58
1, 1133305, Poly_aftertouch_c, 0, 42, 28
1, 1133311, Note_on_c, 0, 42, 52
1, 1133499, Note_off_c, 0, 46, 35
1, 1133899, Poly_aftertouch_c, 0, 64, 28
1, 1133902, Note_on_c, 0, 64, 73
1, 1133957, Control_c, 0, 64, 109
1, 1133976, Control_c, 0, 64, 77
1, 1133979, Control_c, 0, 67, 69
1, 1133994, Control_c, 0, 64, 55
1, 1134013, Control_c, 0, 64, 35
1, 1134031, Control_c, 0, 64, 21
1, 1134050, Control_c, 0, 64, 14
1, 1134157, Note_off_c, 0, 42, 52
1, 1134162, Control_c, 0, 64, 23
1, 1134181, Control_c, 0, 64, 37
1, 1134200, Control_c, 0, 64, 58
1, 1134219, Control_c, 0, 64, 78
1, 1134238, Control_c, 0, 64, 101
1, 1134256, Control_c, 0, 64, 127
1, 1134477, Poly_aftertouch_c, 0, 61, 28
1, 1134482, Note_on_c, 0, 61, 46
1, 1134517, Control_c, 0, 67, 73
1, 1134555, Control_c, 0, 67, 78
1, 1134592, Control_c, 0, 67, 85
1, 1134612, Control_c, 0, 67, 91
1, 1134630, Control_c, 0, 67, 97
1, 1134649, Control_c, 0, 67, 101
1, 1134686, Control_c, 0, 67, 109
1, 1134706, Control_c, 0, 67, 114
1, 1134725, Control_c, 0, 67, 120
1, 1134742, Control_c, 0, 67, 125
1, 1134787, Poly_aftertouch_c, 0, 58, 28
1, 1134797, Note_on_c, 0, 58, 45
1, 1135069, Poly_aftertouch_c, 0, 49, 28
1, 1135073, Note_on_c, 0, 49, 36
1, 1135164, Note_off_c, 0, 49, 0
1, 1135165, Poly_aftertouch_c, 0, 49, 28
1, 1135219, Note_off_c, 0, 64, 34
1, 1135305, Note_off_c, 0, 58, 41
1, 1135374, Poly_aftertouch_c, 0, 49, 24
1, 1135377, Poly_aftertouch_c, 0, 46, 28
1, 1135389, Note_on_c, 0, 46, 35
1, 1135435, Note_off_c, 0, 61, 35
1, 1135457, Poly_aftertouch_c, 0, 49, 0
1, 1135808, Poly_aftertouch_c, 0, 43, 28
1, 1135816, Note_on_c, 0, 43, 27
1, 1135922, Note_off_c, 0, 46, 38
1, 1136338, Poly_aftertouch_c, 0, 39, 28
1, 1136345, Note_on_c, 0, 39, 35
1, 1136432, Poly_aftertouch_c, 0, 63, 28
1, 1136438, Note_on_c, 0, 63, 52
1, 1136465, Control_c, 0, 64, 114
1, 1136473, Note_off_c, 0, 43, 33
1, 1136484, Control_c, 0, 64, 91
1, 1136503, Control_c, 0, 64, 74
1, 1136520, Control_c, 0, 64, 59
1, 1136539, Control_c, 0, 64, 47
1, 1136558, Control_c, 0, 64, 38
1, 1136577, Control_c, 0, 64, 34
1, 1136670, Control_c, 0, 64, 41
1, 1136690, Control_c, 0, 64, 53
1, 1136708, Control_c, 0, 64, 66
1, 1136727, Control_c, 0, 64, 77
1, 1136745, Control_c, 0, 64, 90
1, 1136764, Control_c, 0, 64, 107
1, 1136783, Control_c, 0, 64, 127
1, 1136877, Note_off_c, 0, 39, 41
1, 1136909, Poly_aftertouch_c, 0, 67, 28
1, 1136925, Note_on_c, 0, 67, 22
1, 1137176, Poly_aftertouch_c, 0, 67, 22
1, 1137180, Poly_aftertouch_c, 0, 70, 28
1, 1137189, Note_off_c, 0, 67, 35
1, 1137195, Note_on_c, 0, 70, 35
1, 1137430, Poly_aftertouch_c, 0, 44, 28
1, 1137439, Note_on_c, 0, 44, 35
1, 1137555, Poly_aftertouch_c, 0, 61, 28
1, 1137559, Note_on_c, 0, 61, 54
1, 1137569, Control_c, 0, 64, 94
1, 1137588, Control_c, 0, 64, 74
1, 1137606, Control_c, 0, 64, 56
1, 1137617, Note_off_c, 0, 63, 47
1, 1137624, Control_c, 0, 64, 41
1, 1137639, Note_off_c, 0, 70, 41
1, 1137644, Control_c, 0, 64, 31
1, 1137681, Control_c, 0, 64, 27
1, 1137756, Control_c, 0, 64, 32
1, 1137776, Control_c, 0, 64, 41
1, 1137793, Control_c, 0, 64, 52
1, 1137813, Control_c, 0, 64, 64
1, 1137831, Control_c, 0, 64, 72
1, 1137851, Control_c, 0, 64, 77
1, 1137868, Control_c, 0, 64, 80
1, 1137888, Control_c, 0, 64, 85
1, 1137906, Control_c, 0, 64, 90
1, 1137924, Control_c, 0, 64, 98
1, 1137937, Poly_aftertouch_c, 0, 51, 28
1, 1137943, Control_c, 0, 64, 110
1, 1137946, Note_on_c, 0, 51, 34
1, 1137962, Control_c, 0, 64, 127
1, 1138160, Poly_aftertouch_c, 0, 56, 28
1, 1138169, Note_on_c, 0, 56, 34
1, 1138319, Control_c, 0, 64, 110
1, 1138336, Control_c, 0, 64, 82
1, 1138355, Control_c, 0, 64, 62
1, 1138371, Poly_aftertouch_c, 0, 59, 28
1, 1138374, Note_on_c, 0, 59, 62
1, 1138374, Control_c, 0, 64, 48
1, 1138377, Note_off_c, 0, 61, 56
1, 1138392, Control_c, 0, 64, 45
1, 1138430, Control_c, 0, 64, 51
1, 1138450, Control_c, 0, 64, 59
1, 1138467, Control_c, 0, 64, 68
1, 1138487, Control_c, 0, 64, 78
1, 1138505, Control_c, 0, 64, 94
1, 1138524, Control_c, 0, 64, 127
1, 1138547, Poly_aftertouch_c, 0, 56, 24
1, 1138586, Note_off_c, 0, 56, 41
1, 1138591, Note_off_c, 0, 51, 41
1, 1138600, Poly_aftertouch_c, 0, 63, 28
1, 1138606, Note_on_c, 0, 63, 44
1, 1138612, Note_off_c, 0, 44, 41
1, 1138764, Poly_aftertouch_c, 0, 68, 28
1, 1138772, Note_on_c, 0, 68, 42
1, 1138791, Note_off_c, 0, 63, 50
1, 1138931, Poly_aftertouch_c, 0, 40, 28
1, 1138938, Note_on_c, 0, 40, 39
1, 1138955, Control_c, 0, 64, 104
1, 1138965, Poly_aftertouch_c, 0, 58, 28
1, 1138972, Control_c, 0, 64, 75
1, 1138974, Note_on_c, 0, 58, 63
1, 1138992, Control_c, 0, 64, 52
1, 1139010, Control_c, 0, 64, 33
1, 1139029, Control_c, 0, 64, 24
1, 1139037, Note_off_c, 0, 68, 36
1, 1139057, Note_off_c, 0, 59, 34
1, 1139105, Control_c, 0, 64, 34
1, 1139123, Control_c, 0, 64, 47
1, 1139141, Control_c, 0, 64, 65
1, 1139162, Control_c, 0, 64, 80
1, 1139179, Control_c, 0, 64, 99
1, 1139185, Poly_aftertouch_c, 0, 47, 28
1, 1139193, Note_on_c, 0, 47, 39
1, 1139195, Control_c, 0, 64, 127
1, 1139371, Poly_aftertouch_c, 0, 52, 28
1, 1139377, Note_on_c, 0, 52, 42
1, 1139480, Control_c, 0, 64, 100
1, 1139497, Control_c, 0, 64, 72
1, 1139516, Control_c, 0, 64, 52
1, 1139522, Note_off_c, 0, 58, 61
1, 1139522, Poly_aftertouch_c, 0, 56, 28
1, 1139525, Note_on_c, 0, 56, 64
1, 1139534, Control_c, 0, 64, 41
1, 1139572, Control_c, 0, 64, 43
1, 1139591, Control_c, 0, 64, 52
1, 1139609, Control_c, 0, 64, 64
1, 1139630, Control_c, 0, 64, 76
1, 1139647, Control_c, 0, 64, 91
1, 1139665, Control_c, 0, 64, 127
1, 1139674, Poly_aftertouch_c, 0, 40, 24
1, 1139705, Note_off_c, 0, 47, 51
1, 1139714, Note_off_c, 0, 40, 39
1, 1139752, Poly_aftertouch_c, 0, 59, 28
1, 1139755, Note_on_c, 0, 59, 42
1, 1139936, Note_off_c, 0, 52, 30
1, 1139946, Poly_aftertouch_c, 0, 64, 28
1, 1139953, Note_on_c, 0, 64, 51
1, 1139966, Control_c, 0, 67, 119
1, 1140002, Control_c, 0, 67, 114
1, 1140011, Poly_aftertouch_c, 0, 59, 22
1, 1140035, Note_off_c, 0, 59, 35
1, 1140039, Control_c, 0, 67, 108
1, 1140060, Note_off_c, 0, 56, 36
1, 1140078, Control_c, 0, 67, 103
1, 1140116, Poly_aftertouch_c, 0, 37, 28
1, 1140126, Note_on_c, 0, 37, 46
1, 1140210, Control_c, 0, 64, 101
1, 1140227, Control_c, 0, 64, 78
1, 1140245, Control_c, 0, 64, 57
1, 1140264, Control_c, 0, 64, 39
1, 1140282, Control_c, 0, 64, 28
1, 1140284, Poly_aftertouch_c, 0, 59, 28
1, 1140287, Note_on_c, 0, 59, 60
1, 1140315, Note_off_c, 0, 64, 54
1, 1140377, Control_c, 0, 64, 36
1, 1140396, Control_c, 0, 64, 49
1, 1140414, Control_c, 0, 64, 65
1, 1140433, Control_c, 0, 64, 78
1, 1140452, Control_c, 0, 64, 91
1, 1140471, Control_c, 0, 64, 102
1, 1140490, Control_c, 0, 64, 112
1, 1140508, Control_c, 0, 64, 124
1, 1140569, Poly_aftertouch_c, 0, 44, 28
1, 1140574, Note_on_c, 0, 44, 45
1, 1140649, Poly_aftertouch_c, 0, 58, 28
1, 1140654, Note_on_c, 0, 58, 67
1, 1140656, Note_off_c, 0, 59, 54
1, 1140800, Poly_aftertouch_c, 0, 52, 28
1, 1140806, Note_on_c, 0, 52, 48
1, 1140900, Control_c, 0, 64, 106
1, 1140920, Control_c, 0, 64, 82
1, 1140939, Note_off_c, 0, 58, 60
1, 1140941, Control_c, 0, 64, 62
1, 1140954, Poly_aftertouch_c, 0, 56, 28
1, 1140957, Control_c, 0, 64, 47
1, 1140961, Note_on_c, 0, 56, 58
1, 1140976, Control_c, 0, 64, 42
1, 1141013, Control_c, 0, 64, 46
1, 1141033, Control_c, 0, 64, 54
1, 1141052, Control_c, 0, 64, 64
1, 1141069, Control_c, 0, 64, 74
1, 1141088, Control_c, 0, 64, 87
1, 1141107, Control_c, 0, 64, 113
1, 1141116, Note_off_c, 0, 37, 58
1, 1141126, Control_c, 0, 64, 127
1, 1141151, Poly_aftertouch_c, 0, 61, 28
1, 1141159, Note_on_c, 0, 61, 51
1, 1141306, Poly_aftertouch_c, 0, 64, 28
1, 1141309, Note_on_c, 0, 64, 53
1, 1141334, Note_off_c, 0, 61, 36
1, 1141343, Note_off_c, 0, 44, 26
1, 1141383, Poly_aftertouch_c, 0, 37, 28
1, 1141390, Note_off_c, 0, 56, 39
1, 1141390, Note_on_c, 0, 37, 51
1, 1141417, Poly_aftertouch_c, 0, 52, 20
1, 1141420, Note_off_c, 0, 52, 22
1, 1141463, Control_c, 0, 64, 99
1, 1141481, Control_c, 0, 64, 71
1, 1141500, Control_c, 0, 64, 50
1, 1141510, Poly_aftertouch_c, 0, 59, 28
1, 1141513, Note_on_c, 0, 59, 74
1, 1141518, Control_c, 0, 64, 36
1, 1141525, Note_off_c, 0, 64, 56
1, 1141537, Control_c, 0, 64, 31
1, 1141612, Control_c, 0, 64, 41
1, 1141632, Control_c, 0, 64, 54
1, 1141650, Control_c, 0, 64, 69
1, 1141669, Control_c, 0, 64, 80
1, 1141687, Control_c, 0, 64, 94
1, 1141705, Control_c, 0, 64, 107
1, 1141708, Poly_aftertouch_c, 0, 44, 28
1, 1141713, Note_on_c, 0, 44, 53
1, 1141724, Control_c, 0, 64, 127
1, 1141808, Poly_aftertouch_c, 0, 58, 28
1, 1141814, Note_off_c, 0, 59, 61
1, 1141815, Note_on_c, 0, 58, 79
1, 1141857, Control_c, 0, 67, 98
1, 1141874, Control_c, 0, 67, 94
1, 1141912, Control_c, 0, 67, 87
1, 1141921, Poly_aftertouch_c, 0, 52, 28
1, 1141924, Note_on_c, 0, 52, 56
1, 1142043, Control_c, 0, 64, 84
1, 1142045, Control_c, 0, 67, 83
1, 1142062, Control_c, 0, 64, 63
1, 1142078, Note_off_c, 0, 58, 65
1, 1142080, Control_c, 0, 64, 49
1, 1142088, Poly_aftertouch_c, 0, 56, 28
1, 1142089, Note_on_c, 0, 56, 77
1, 1142099, Control_c, 0, 64, 46
1, 1142136, Control_c, 0, 64, 53
1, 1142154, Control_c, 0, 64, 62
1, 1142174, Control_c, 0, 64, 72
1, 1142193, Control_c, 0, 64, 85
1, 1142212, Control_c, 0, 64, 118
1, 1142213, Control_c, 0, 67, 79
1, 1142222, Note_off_c, 0, 37, 61
1, 1142229, Control_c, 0, 64, 127
1, 1142262, Note_off_c, 0, 44, 61
1, 1142273, Poly_aftertouch_c, 0, 59, 28
1, 1142278, Note_on_c, 0, 59, 63
1, 1142334, Note_off_c, 0, 56, 50
1, 1142417, Poly_aftertouch_c, 0, 64, 28
1, 1142426, Note_on_c, 0, 64, 60
1, 1142463, Note_off_c, 0, 59, 53
1, 1142510, Poly_aftertouch_c, 0, 39, 28
1, 1142518, Note_on_c, 0, 39, 61
1, 1142567, Control_c, 0, 64, 122
1, 1142585, Control_c, 0, 64, 81
1, 1142591, Note_off_c, 0, 52, 30
1, 1142604, Control_c, 0, 64, 58
1, 1142623, Control_c, 0, 64, 40
1, 1142635, Poly_aftertouch_c, 0, 61, 28
1, 1142636, Note_on_c, 0, 61, 78
1, 1142640, Control_c, 0, 64, 30
1, 1142661, Control_c, 0, 64, 26
1, 1142666, Note_off_c, 0, 64, 60
1, 1142736, Control_c, 0, 64, 32
1, 1142753, Control_c, 0, 64, 47
1, 1142773, Control_c, 0, 64, 67
1, 1142793, Control_c, 0, 64, 87
1, 1142795, Control_c, 0, 67, 74
1, 1142810, Control_c, 0, 64, 127
1, 1142811, Control_c, 0, 67, 70
1, 1142829, Control_c, 0, 67, 66
1, 1142848, Control_c, 0, 67, 62
1, 1142855, Poly_aftertouch_c, 0, 46, 28
1, 1142863, Note_on_c, 0, 46, 62
1, 1142867, Control_c, 0, 67, 57
1, 1142885, Control_c, 0, 67, 53
1, 1142902, Note_off_c, 0, 39, 61
1, 1142923, Control_c, 0, 67, 47
1, 1142960, Control_c, 0, 67, 43
1, 1142983, Poly_aftertouch_c, 0, 59, 28
1, 1142985, Note_on_c, 0, 59, 76
1, 1142998, Control_c, 0, 67, 37
1, 1143035, Control_c, 0, 67, 33
1, 1143043, Note_off_c, 0, 61, 54
1, 1143105, Poly_aftertouch_c, 0, 55, 28
1, 1143109, Control_c, 0, 67, 29
1, 1143111, Note_on_c, 0, 55, 71
1, 1143221, Control_c, 0, 64, 111
1, 1143241, Control_c, 0, 64, 74
1, 1143259, Control_c, 0, 64, 51
1, 1143278, Control_c, 0, 64, 39
1, 1143295, Note_off_c, 0, 59, 61
1, 1143316, Control_c, 0, 64, 41
1, 1143335, Control_c, 0, 64, 51
1, 1143342, Poly_aftertouch_c, 0, 58, 28
1, 1143346, Note_on_c, 0, 58, 77
1, 1143353, Control_c, 0, 64, 67
1, 1143372, Control_c, 0, 64, 90
1, 1143392, Control_c, 0, 64, 127
1, 1143504, Control_c, 0, 64, 99
1, 1143522, Control_c, 0, 64, 66
1, 1143540, Control_c, 0, 64, 43
1, 1143559, Control_c, 0, 64, 35
1, 1143597, Control_c, 0, 64, 42
1, 1143604, Poly_aftertouch_c, 0, 63, 28
1, 1143609, Note_on_c, 0, 63, 75
1, 1143615, Control_c, 0, 64, 58
1, 1143634, Control_c, 0, 64, 79
1, 1143652, Control_c, 0, 64, 127
1, 1143653, Note_off_c, 0, 58, 58
1, 1143654, Control_c, 0, 67, 33
1, 1143708, Note_off_c, 0, 46, 57
1, 1143739, Note_off_c, 0, 55, 55
1, 1143897, Poly_aftertouch_c, 0, 67, 28
1, 1143902, Note_on_c, 0, 67, 79
1, 1143950, Note_off_c, 0, 63, 62
1, 1143971, Control_c, 0, 67, 37
1, 1144102, Note_off_c, 0, 67, 51
1, 1144177, Control_c, 0, 67, 41
1, 1144289, Control_c, 0, 67, 45
1, 1144327, Control_c, 0, 67, 52
1, 1144364, Control_c, 0, 67, 58
1, 1144403, Control_c, 0, 67, 63
1, 1144427, Poly_aftertouch_c, 0, 61, 28
1, 1144432, Note_on_c, 0, 61, 44
1, 1144684, Poly_aftertouch_c, 0, 76, 28
1, 1144690, Note_on_c, 0, 76, 64
1, 1144756, Control_c, 0, 64, 97
1, 1144776, Control_c, 0, 64, 72
1, 1144794, Control_c, 0, 64, 52
1, 1144813, Control_c, 0, 64, 34
1, 1144831, Control_c, 0, 64, 18
1, 1144906, Control_c, 0, 64, 0
1, 1145001, Control_c, 0, 64, 15
1, 1145018, Control_c, 0, 64, 26
1, 1145038, Control_c, 0, 64, 39
1, 1145057, Control_c, 0, 64, 58
1, 1145058, Control_c, 0, 67, 67
1, 1145075, Control_c, 0, 64, 72
1, 1145094, Control_c, 0, 64, 83
1, 1145112, Control_c, 0, 64, 95
1, 1145131, Control_c, 0, 64, 110
1, 1145149, Control_c, 0, 64, 127
1, 1145187, Control_c, 0, 67, 72
1, 1145303, Poly_aftertouch_c, 0, 58, 28
1, 1145316, Note_on_c, 0, 58, 31
1, 1145451, Control_c, 0, 67, 76
1, 1145487, Control_c, 0, 67, 83
1, 1145525, Control_c, 0, 67, 87
1, 1145564, Poly_aftertouch_c, 0, 61, 22
1, 1145573, Poly_aftertouch_c, 0, 55, 28
1, 1145584, Note_on_c, 0, 55, 32
1, 1145586, Note_off_c, 0, 61, 30
1, 1145617, Control_c, 0, 67, 91
1, 1145656, Note_off_c, 0, 58, 40
1, 1145778, Poly_aftertouch_c, 0, 51, 28
1, 1145784, Note_on_c, 0, 51, 42
1, 1145850, Note_off_c, 0, 55, 34
1, 1145861, Control_c, 0, 64, 100
1, 1145866, Poly_aftertouch_c, 0, 75, 28
1, 1145873, Note_on_c, 0, 75, 61
1, 1145880, Control_c, 0, 64, 76
1, 1145899, Control_c, 0, 64, 55
1, 1145910, Note_off_c, 0, 76, 52
1, 1145916, Control_c, 0, 64, 37
1, 1145937, Control_c, 0, 64, 24
1, 1145954, Control_c, 0, 64, 18
1, 1146030, Control_c, 0, 64, 23
1, 1146049, Control_c, 0, 64, 35
1, 1146068, Control_c, 0, 64, 56
1, 1146086, Control_c, 0, 64, 76
1, 1146106, Control_c, 0, 64, 101
1, 1146123, Control_c, 0, 64, 127
1, 1146212, Poly_aftertouch_c, 0, 70, 28
1, 1146223, Note_on_c, 0, 70, 39
1, 1146414, Note_off_c, 0, 70, 49
1, 1146414, Poly_aftertouch_c, 0, 67, 28
1, 1146422, Note_on_c, 0, 67, 37
1, 1146461, Control_c, 0, 67, 87
1, 1146568, Poly_aftertouch_c, 0, 63, 28
1, 1146578, Note_on_c, 0, 63, 41
1, 1146592, Control_c, 0, 64, 101
1, 1146610, Control_c, 0, 64, 73
1, 1146628, Poly_aftertouch_c, 0, 73, 28
1, 1146628, Control_c, 0, 64, 50
1, 1146633, Note_off_c, 0, 67, 53
1, 1146636, Note_on_c, 0, 73, 66
1, 1146642, Note_off_c, 0, 75, 56
1, 1146647, Control_c, 0, 64, 32
1, 1146667, Control_c, 0, 64, 23
1, 1146741, Control_c, 0, 64, 30
1, 1146760, Control_c, 0, 64, 44
1, 1146778, Control_c, 0, 64, 65
1, 1146798, Control_c, 0, 64, 86
1, 1146817, Control_c, 0, 64, 127
1, 1146822, Poly_aftertouch_c, 0, 59, 28
1, 1146827, Note_on_c, 0, 59, 44
1, 1146841, Note_off_c, 0, 51, 36
1, 1146889, Note_off_c, 0, 63, 38
1, 1146930, Note_off_c, 0, 73, 59
1, 1147003, Note_off_c, 0, 59, 51
1, 1147006, Poly_aftertouch_c, 0, 56, 28
1, 1147012, Note_on_c, 0, 56, 44
1, 1147153, Control_c, 0, 64, 115
1, 1147172, Control_c, 0, 64, 76
1, 1147177, Poly_aftertouch_c, 0, 71, 28
1, 1147182, Note_on_c, 0, 71, 61
1, 1147191, Control_c, 0, 64, 53
1, 1147210, Control_c, 0, 64, 39
1, 1147265, Control_c, 0, 64, 46
1, 1147284, Control_c, 0, 64, 61
1, 1147302, Control_c, 0, 64, 76
1, 1147322, Control_c, 0, 64, 99
1, 1147340, Note_off_c, 0, 56, 60
1, 1147342, Control_c, 0, 64, 127
1, 1147385, Poly_aftertouch_c, 0, 68, 28
1, 1147397, Note_on_c, 0, 68, 47
1, 1147506, Note_off_c, 0, 68, 56
1, 1147548, Poly_aftertouch_c, 0, 64, 28
1, 1147555, Note_on_c, 0, 64, 39
1, 1147659, Control_c, 0, 64, 114
1, 1147678, Control_c, 0, 64, 76
1, 1147696, Control_c, 0, 64, 52
1, 1147700, Poly_aftertouch_c, 0, 59, 28
1, 1147705, Note_on_c, 0, 59, 38
1, 1147707, Poly_aftertouch_c, 0, 70, 28
1, 1147714, Note_on_c, 0, 70, 60
1, 1147715, Control_c, 0, 64, 35
1, 1147717, Note_off_c, 0, 71, 52
1, 1147750, Note_off_c, 0, 64, 49
1, 1147790, Control_c, 0, 64, 53
1, 1147809, Control_c, 0, 64, 70
1, 1147827, Control_c, 0, 64, 88
1, 1147846, Control_c, 0, 64, 127
1, 1147879, Note_off_c, 0, 59, 50
1, 1147900, Poly_aftertouch_c, 0, 56, 28
1, 1147908, Note_on_c, 0, 56, 45
1, 1147928, Note_off_c, 0, 70, 63
1, 1148103, Note_off_c, 0, 56, 60
1, 1148144, Poly_aftertouch_c, 0, 52, 28
1, 1148150, Note_on_c, 0, 52, 36
1, 1148277, Control_c, 0, 64, 94
1, 1148294, Control_c, 0, 64, 65
1, 1148299, Poly_aftertouch_c, 0, 68, 28
1, 1148310, Note_on_c, 0, 68, 47
1, 1148313, Control_c, 0, 64, 42
1, 1148333, Control_c, 0, 64, 31
1, 1148389, Control_c, 0, 64, 41
1, 1148408, Control_c, 0, 64, 58
1, 1148425, Control_c, 0, 64, 76
1, 1148446, Control_c, 0, 64, 103
1, 1148463, Control_c, 0, 64, 127
1, 1148482, Control_c, 0, 67, 83
1, 1148555, Note_off_c, 0, 52, 49
1, 1148595, Poly_aftertouch_c, 0, 64, 28
1, 1148605, Note_on_c, 0, 64, 31
1, 1148798, Poly_aftertouch_c, 0, 61, 28
1, 1148809, Note_on_c, 0, 61, 38
1, 1148878, Note_off_c, 0, 68, 38
1, 1149052, Poly_aftertouch_c, 0, 37, 28
1, 1149054, Note_off_c, 0, 64, 28
1, 1149062, Note_on_c, 0, 37, 38
1, 1149174, Control_c, 0, 64, 93
1, 1149194, Control_c, 0, 64, 68
1, 1149213, Control_c, 0, 64, 50
1, 1149220, Poly_aftertouch_c, 0, 58, 28
1, 1149229, Note_on_c, 0, 58, 60
1, 1149230, Control_c, 0, 64, 41
1, 1149234, Note_off_c, 0, 61, 54
1, 1149288, Control_c, 0, 64, 49
1, 1149306, Control_c, 0, 64, 60
1, 1149324, Control_c, 0, 64, 70
1, 1149343, Control_c, 0, 64, 83
1, 1149361, Control_c, 0, 64, 105
1, 1149381, Control_c, 0, 64, 127
1, 1149495, Poly_aftertouch_c, 0, 44, 28
1, 1149500, Note_on_c, 0, 44, 49
1, 1149568, Poly_aftertouch_c, 0, 59, 28
1, 1149572, Note_on_c, 0, 59, 68
1, 1149606, Control_c, 0, 67, 79
1, 1149701, Poly_aftertouch_c, 0, 52, 28
1, 1149708, Note_off_c, 0, 58, 23
1, 1149708, Note_on_c, 0, 52, 51
1, 1149744, Note_off_c, 0, 59, 62
1, 1149924, Control_c, 0, 64, 85
1, 1149934, Poly_aftertouch_c, 0, 61, 28
1, 1149939, Note_on_c, 0, 61, 73
1, 1149943, Control_c, 0, 64, 58
1, 1149961, Control_c, 0, 64, 36
1, 1149979, Control_c, 0, 64, 26
1, 1150035, Control_c, 0, 64, 34
1, 1150054, Control_c, 0, 64, 48
1, 1150070, Note_off_c, 0, 37, 50
1, 1150073, Control_c, 0, 64, 69
1, 1150091, Note_off_c, 0, 44, 57
1, 1150091, Control_c, 0, 64, 90
1, 1150110, Control_c, 0, 64, 127
1, 1150160, Note_off_c, 0, 52, 56
1, 1150179, Poly_aftertouch_c, 0, 64, 28
1, 1150184, Note_on_c, 0, 64, 49
1, 1150349, Poly_aftertouch_c, 0, 68, 28
1, 1150361, Note_on_c, 0, 68, 46
1, 1150488, Poly_aftertouch_c, 0, 56, 28
1, 1150497, Note_on_c, 0, 56, 42
1, 1150541, Control_c, 0, 64, 121
1, 1150560, Control_c, 0, 64, 80
1, 1150578, Control_c, 0, 64, 57
1, 1150594, Poly_aftertouch_c, 0, 71, 28
1, 1150597, Control_c, 0, 64, 37
1, 1150598, Note_off_c, 0, 61, 32
1, 1150600, Note_on_c, 0, 71, 54
1, 1150616, Control_c, 0, 64, 28
1, 1150639, Note_off_c, 0, 64, 31
1, 1150640, Note_off_c, 0, 68, 35
1, 1150673, Control_c, 0, 64, 38
1, 1150692, Control_c, 0, 64, 54
1, 1150709, Control_c, 0, 64, 72
1, 1150730, Control_c, 0, 64, 94
1, 1150748, Control_c, 0, 64, 127
1, 1150788, Note_off_c, 0, 56, 51
1, 1150833, Poly_aftertouch_c, 0, 52, 28
1, 1150839, Note_on_c, 0, 52, 30
1, 1150883, Note_off_c, 0, 71, 55
1, 1150888, Poly_aftertouch_c, 0, 70, 28
1, 1150897, Note_on_c, 0, 70, 58
1, 1150941, Note_off_c, 0, 70, 63
1, 1150998, Poly_aftertouch_c, 0, 49, 28
1, 1151003, Note_on_c, 0, 49, 42
1, 1151044, Note_off_c, 0, 52, 35
1, 1151216, Poly_aftertouch_c, 0, 68, 28
1, 1151216, Control_c, 0, 64, 114
1, 1151224, Note_on_c, 0, 68, 55
1, 1151234, Control_c, 0, 64, 79
1, 1151252, Control_c, 0, 64, 57
1, 1151271, Control_c, 0, 64, 44
1, 1151309, Control_c, 0, 64, 47
1, 1151327, Control_c, 0, 64, 55
1, 1151346, Control_c, 0, 64, 65
1, 1151366, Control_c, 0, 64, 76
1, 1151383, Control_c, 0, 64, 91
1, 1151403, Control_c, 0, 64, 124
1, 1151423, Note_off_c, 0, 49, 61
1, 1151485, Poly_aftertouch_c, 0, 64, 28
1, 1151491, Note_on_c, 0, 64, 41
1, 1151665, Note_off_c, 0, 68, 36
1, 1151677, Poly_aftertouch_c, 0, 61, 28
1, 1151686, Note_on_c, 0, 61, 56
1, 1151751, Note_off_c, 0, 64, 48
1, 1151848, Poly_aftertouch_c, 0, 38, 28
1, 1151856, Note_on_c, 0, 38, 53
1, 1151945, Control_c, 0, 64, 95
1, 1151964, Control_c, 0, 64, 70
1, 1151983, Control_c, 0, 64, 48
1, 1151984, Poly_aftertouch_c, 0, 56, 28
1, 1151989, Note_on_c, 0, 56, 74
1, 1151991, Note_off_c, 0, 61, 60
1, 1152001, Control_c, 0, 64, 32
1, 1152020, Control_c, 0, 64, 25
1, 1152076, Control_c, 0, 64, 29
1, 1152094, Control_c, 0, 64, 38
1, 1152114, Control_c, 0, 64, 55
1, 1152131, Control_c, 0, 64, 73
1, 1152151, Control_c, 0, 64, 92
1, 1152169, Control_c, 0, 64, 127
1, 1152202, Poly_aftertouch_c, 0, 44, 28
1, 1152209, Note_on_c, 0, 44, 66
1, 1152263, Control_c, 0, 67, 73
1, 1152267, Note_off_c, 0, 38, 32
1, 1152333, Poly_aftertouch_c, 0, 58, 28
1, 1152335, Note_on_c, 0, 58, 83
1, 1152358, Control_c, 0, 67, 69
1, 1152377, Note_off_c, 0, 56, 58
1, 1152480, Poly_aftertouch_c, 0, 53, 28
1, 1152486, Note_on_c, 0, 53, 66
1, 1152513, Note_off_c, 0, 58, 62
1, 1152867, Poly_aftertouch_c, 0, 59, 28
1, 1152871, Note_on_c, 0, 59, 79
1, 1152900, Control_c, 0, 64, 85
1, 1152918, Control_c, 0, 64, 60
1, 1152938, Control_c, 0, 64, 36
1, 1152956, Control_c, 0, 64, 17
1, 1152974, Control_c, 0, 64, 10
1, 1153087, Control_c, 0, 64, 20
1, 1153105, Control_c, 0, 64, 36
1, 1153124, Control_c, 0, 64, 61
1, 1153143, Control_c, 0, 64, 87
1, 1153162, Control_c, 0, 64, 127
1, 1153167, Note_off_c, 0, 44, 56
1, 1153199, Note_off_c, 0, 53, 37
1, 1153212, Poly_aftertouch_c, 0, 65, 28
1, 1153217, Note_on_c, 0, 65, 55
1, 1153407, Poly_aftertouch_c, 0, 68, 28
1, 1153415, Note_on_c, 0, 68, 57
1, 1153486, Note_off_c, 0, 65, 36
1, 1153499, Control_c, 0, 67, 73
1, 1153573, Poly_aftertouch_c, 0, 56, 28
1, 1153581, Note_on_c, 0, 56, 43
1, 1153667, Control_c, 0, 64, 106
1, 1153686, Control_c, 0, 64, 77
1, 1153705, Control_c, 0, 64, 57
1, 1153723, Control_c, 0, 64, 41
1, 1153736, Poly_aftertouch_c, 0, 71, 28
1, 1153742, Note_on_c, 0, 71, 64
1, 1153742, Control_c, 0, 64, 30
1, 1153821, Note_off_c, 0, 68, 50
1, 1153836, Control_c, 0, 64, 41
1, 1153855, Control_c, 0, 64, 59
1, 1153873, Control_c, 0, 64, 79
1, 1153893, Control_c, 0, 64, 111
1, 1153910, Control_c, 0, 64, 127
1, 1153993, Poly_aftertouch_c, 0, 53, 28
1, 1153997, Note_on_c, 0, 53, 45
1, 1154031, Note_off_c, 0, 56, 45
1, 1154059, Note_off_c, 0, 71, 60
1, 1154067, Poly_aftertouch_c, 0, 70, 28
1, 1154078, Note_on_c, 0, 70, 70
1, 1154195, Note_off_c, 0, 70, 61
1, 1154282, Poly_aftertouch_c, 0, 50, 28
1, 1154287, Poly_aftertouch_c, 0, 53, 24
1, 1154290, Note_on_c, 0, 50, 50
1, 1154391, Note_off_c, 0, 53, 29
1, 1154697, Poly_aftertouch_c, 0, 68, 28
1, 1154704, Note_on_c, 0, 68, 63
1, 1154734, Control_c, 0, 64, 105
1, 1154755, Control_c, 0, 64, 76
1, 1154772, Control_c, 0, 64, 54
1, 1154790, Control_c, 0, 64, 34
1, 1154809, Control_c, 0, 64, 22
1, 1154903, Control_c, 0, 64, 29
1, 1154921, Control_c, 0, 64, 43
1, 1154940, Control_c, 0, 64, 65
1, 1154959, Control_c, 0, 64, 86
1, 1154977, Control_c, 0, 64, 127
1, 1155133, Note_off_c, 0, 50, 36
1, 1155162, Poly_aftertouch_c, 0, 65, 28
1, 1155170, Note_on_c, 0, 65, 44
1, 1155230, Note_off_c, 0, 59, 43
1, 1155521, Note_off_c, 0, 65, 57
1, 1155537, Poly_aftertouch_c, 0, 59, 28
1, 1155540, Note_on_c, 0, 59, 52
1, 1155950, Control_c, 0, 67, 77
1, 1156231, Poly_aftertouch_c, 0, 39, 28
1, 1156242, Note_on_c, 0, 39, 35
1, 1156250, Control_c, 0, 64, 111
1, 1156269, Control_c, 0, 64, 94
1, 1156287, Control_c, 0, 64, 76
1, 1156307, Control_c, 0, 64, 62
1, 1156325, Control_c, 0, 64, 48
1, 1156326, Control_c, 0, 67, 81
1, 1156346, Control_c, 0, 64, 35
1, 1156363, Control_c, 0, 64, 25
1, 1156382, Control_c, 0, 64, 20
1, 1156383, Control_c, 0, 67, 87
1, 1156418, Control_c, 0, 67, 93
1, 1156438, Control_c, 0, 67, 99
1, 1156456, Control_c, 0, 67, 104
1, 1156475, Control_c, 0, 67, 109
1, 1156495, Control_c, 0, 64, 26
1, 1156496, Control_c, 0, 67, 113
1, 1156513, Control_c, 0, 64, 34
1, 1156513, Control_c, 0, 67, 117
1, 1156531, Control_c, 0, 64, 44
1, 1156533, Control_c, 0, 67, 121
1, 1156550, Control_c, 0, 64, 59
1, 1156551, Control_c, 0, 67, 125
1, 1156569, Control_c, 0, 64, 70
1, 1156587, Control_c, 0, 64, 79
1, 1156607, Control_c, 0, 64, 87
1, 1156625, Control_c, 0, 64, 94
1, 1156643, Control_c, 0, 64, 103
1, 1156661, Control_c, 0, 64, 127
1, 1156754, Poly_aftertouch_c, 0, 47, 28
1, 1156759, Note_off_c, 0, 59, 57
1, 1156765, Note_on_c, 0, 47, 37
1, 1157031, Poly_aftertouch_c, 0, 51, 28
1, 1157039, Note_on_c, 0, 51, 38
1, 1157261, Control_c, 0, 64, 109
1, 1157280, Control_c, 0, 64, 85
1, 1157299, Control_c, 0, 64, 65
1, 1157304, Poly_aftertouch_c, 0, 63, 28
1, 1157311, Note_on_c, 0, 63, 36
1, 1157317, Control_c, 0, 64, 50
1, 1157336, Control_c, 0, 64, 42
1, 1157392, Control_c, 0, 64, 46
1, 1157411, Control_c, 0, 64, 55
1, 1157430, Control_c, 0, 64, 65
1, 1157449, Control_c, 0, 64, 76
1, 1157466, Control_c, 0, 64, 91
1, 1157486, Control_c, 0, 64, 127
1, 1157551, Note_off_c, 0, 39, 41
1, 1157567, Note_off_c, 0, 47, 40
1, 1157576, Poly_aftertouch_c, 0, 59, 28
1, 1157581, Note_on_c, 0, 59, 29
1, 1157615, Note_off_c, 0, 51, 37
1, 1157814, Poly_aftertouch_c, 0, 56, 28
1, 1157823, Note_on_c, 0, 56, 36
1, 1158092, Poly_aftertouch_c, 0, 39, 28
1, 1158100, Note_on_c, 0, 39, 44
1, 1158122, Control_c, 0, 64, 118
1, 1158141, Control_c, 0, 64, 97
1, 1158160, Control_c, 0, 64, 76
1, 1158179, Control_c, 0, 64, 58
1, 1158196, Control_c, 0, 64, 42
1, 1158216, Control_c, 0, 64, 32
1, 1158253, Control_c, 0, 64, 28
1, 1158309, Control_c, 0, 64, 34
1, 1158328, Control_c, 0, 64, 45
1, 1158346, Control_c, 0, 64, 61
1, 1158366, Control_c, 0, 64, 75
1, 1158374, Poly_aftertouch_c, 0, 59, 24
1, 1158383, Note_off_c, 0, 56, 33
1, 1158385, Control_c, 0, 64, 88
1, 1158402, Control_c, 0, 64, 101
1, 1158414, Note_off_c, 0, 59, 39
1, 1158418, Note_off_c, 0, 63, 39
1, 1158422, Control_c, 0, 64, 109
1, 1158427, Poly_aftertouch_c, 0, 49, 28
1, 1158430, Note_on_c, 0, 49, 41
1, 1158442, Control_c, 0, 64, 113
1, 1158795, Control_c, 0, 64, 109
1, 1158800, Poly_aftertouch_c, 0, 51, 28
1, 1158806, Note_on_c, 0, 51, 39
1, 1159207, Control_c, 0, 64, 103
1, 1159245, Control_c, 0, 64, 97
1, 1159264, Control_c, 0, 64, 92
1, 1159282, Control_c, 0, 64, 84
1, 1159295, Poly_aftertouch_c, 0, 61, 28
1, 1159300, Control_c, 0, 64, 73
1, 1159306, Note_on_c, 0, 61, 22
1, 1159321, Control_c, 0, 64, 60
1, 1159339, Control_c, 0, 64, 45
1, 1159357, Control_c, 0, 64, 33
1, 1159377, Control_c, 0, 64, 26
1, 1159489, Control_c, 0, 64, 34
1, 1159507, Control_c, 0, 64, 46
1, 1159526, Control_c, 0, 64, 63
1, 1159544, Control_c, 0, 64, 77
1, 1159564, Control_c, 0, 64, 94
1, 1159583, Control_c, 0, 64, 127
1, 1159661, Poly_aftertouch_c, 0, 51, 24
1, 1159741, Note_off_c, 0, 51, 34
1, 1159752, Note_off_c, 0, 49, 30
1, 1159818, Poly_aftertouch_c, 0, 58, 28
1, 1159831, Note_on_c, 0, 58, 33
1, 1160074, Note_off_c, 0, 39, 41
1, 1160341, Note_off_c, 0, 61, 31
1, 1160585, Poly_aftertouch_c, 0, 56, 28
1, 1160593, Note_on_c, 0, 56, 31
1, 1160693, Note_off_c, 0, 58, 42
1, 1161371, Poly_aftertouch_c, 0, 32, 28
1, 1161381, Note_on_c, 0, 32, 34
1, 1161670, Poly_aftertouch_c, 0, 44, 28
1, 1161680, Note_on_c, 0, 44, 36
1, 1161773, Control_c, 0, 64, 109
1, 1161791, Control_c, 0, 64, 92
1, 1161810, Control_c, 0, 64, 77
1, 1161828, Control_c, 0, 64, 66
1, 1161847, Control_c, 0, 64, 58
1, 1161866, Control_c, 0, 64, 53
1, 1161884, Control_c, 0, 64, 50
1, 1161903, Control_c, 0, 64, 47
1, 1161922, Control_c, 0, 64, 43
1, 1161940, Control_c, 0, 64, 39
1, 1161960, Control_c, 0, 64, 35
1, 1161978, Control_c, 0, 64, 31
1, 1162016, Control_c, 0, 64, 25
1, 1162053, Control_c, 0, 64, 21
1, 1162090, Control_c, 0, 64, 17
1, 1162146, Control_c, 0, 64, 12
1, 1162240, Control_c, 0, 64, 0
1, 1162839, Control_c, 0, 67, 118
1, 1162876, Control_c, 0, 67, 111
1, 1162914, Control_c, 0, 64, 8
1, 1162915, Control_c, 0, 67, 104
1, 1162951, Control_c, 0, 67, 98
1, 1163045, Control_c, 0, 64, 12
1, 1163157, Control_c, 0, 64, 17
1, 1163214, Control_c, 0, 64, 22
1, 1163232, Control_c, 0, 64, 27
1, 1163251, Control_c, 0, 64, 32
1, 1163270, Control_c, 0, 64, 40
1, 1163288, Control_c, 0, 64, 48
1, 1163307, Control_c, 0, 64, 55
1, 1163326, Control_c, 0, 64, 57
1, 1163533, Control_c, 0, 64, 59
1, 1163570, Control_c, 0, 64, 61
1, 1163588, Control_c, 0, 64, 62
1, 1163625, Control_c, 0, 64, 63
1, 1163644, Control_c, 0, 64, 64
1, 1163680, Control_c, 0, 64, 65
1, 1163700, Control_c, 0, 64, 66
1, 1163719, Control_c, 0, 64, 67
1, 1163757, Control_c, 0, 64, 70
1, 1163775, Control_c, 0, 64, 73
1, 1163793, Control_c, 0, 64, 76
1, 1163812, Control_c, 0, 64, 80
1, 1163831, Control_c, 0, 64, 86
1, 1163851, Control_c, 0, 64, 92
1, 1163869, Control_c, 0, 64, 100
1, 1163887, Control_c, 0, 64, 110
1, 1163906, Control_c, 0, 64, 127
1, 1164202, Note_off_c, 0, 56, 37
1, 1164214, Note_off_c, 0, 44, 35
1, 1164338, Note_off_c, 0, 32, 35
1, 1164355, Note_off_c, 0, 68, 34
1, 1164375, Control_c, 0, 67, 102
1, 1164691, Control_c, 0, 67, 106
1, 1164823, Control_c, 0, 67, 110
1, 1164898, Control_c, 0, 67, 114
1, 1164973, Control_c, 0, 67, 119
1, 1165010, Control_c, 0, 67, 123
1, 1165048, Control_c, 0, 67, 127
1, 1165461, Control_c, 0, 64, 122
1, 1165479, Control_c, 0, 64, 114
1, 1165497, Control_c, 0, 64, 108
1, 1165515, Control_c, 0, 64, 104
1, 1165553, Control_c, 0, 64, 98
1, 1165592, Control_c, 0, 64, 92
1, 1165628, Control_c, 0, 64, 85
1, 1165647, Control_c, 0, 64, 81
1, 1165667, Control_c, 0, 64, 75
1, 1165684, Control_c, 0, 64, 67
1, 1165702, Control_c, 0, 64, 60
1, 1165722, Control_c, 0, 64, 53
1, 1165740, Control_c, 0, 64, 46
1, 1165759, Control_c, 0, 64, 35
1, 1165777, Poly_aftertouch_c, 0, 59, 28
1, 1165777, Control_c, 0, 64, 20
1, 1165781, Note_on_c, 0, 59, 49
1, 1165796, Control_c, 0, 64, 9
1, 1165808, Poly_aftertouch_c, 0, 68, 28
1, 1165808, Poly_aftertouch_c, 0, 71, 28
1, 1165812, Poly_aftertouch_c, 0, 28, 28
1, 1165815, Note_on_c, 0, 71, 36
1, 1165819, Poly_aftertouch_c, 0, 40, 28
1, 1165820, Note_on_c, 0, 68, 34
1, 1165828, Note_on_c, 0, 28, 23
1, 1165830, Note_on_c, 0, 40, 19
1, 1165928, Control_c, 0, 64, 16
1, 1165947, Control_c, 0, 64, 24
1, 1165965, Control_c, 0, 64, 37
1, 1165984, Control_c, 0, 64, 57
1, 1166003, Control_c, 0, 64, 75
1, 1166021, Control_c, 0, 64, 93
1, 1166031, Note_off_c, 0, 28, 48
1, 1166040, Control_c, 0, 64, 127
1, 1166104, Note_off_c, 0, 40, 38
1, 1166163, Note_off_c, 0, 59, 49
1, 1166230, Note_off_c, 0, 71, 33
1, 1166248, Note_off_c, 0, 68, 36
1, 1166514, Poly_aftertouch_c, 0, 60, 28
1, 1166519, Note_on_c, 0, 60, 57
1, 1166525, Poly_aftertouch_c, 0, 71, 28
1, 1166526, Control_c, 0, 64, 107
1, 1166531, Poly_aftertouch_c, 0, 68, 28
1, 1166535, Note_on_c, 0, 71, 43
1, 1166541, Note_on_c, 0, 68, 45
1, 1166545, Control_c, 0, 64, 81
1, 1166546, Poly_aftertouch_c, 0, 45, 28
1, 1166551, Note_on_c, 0, 45, 34
1, 1166558, Poly_aftertouch_c, 0, 33, 28
1, 1166565, Note_on_c, 0, 33, 12
1, 1166565, Control_c, 0, 64, 61
1, 1166584, Control_c, 0, 64, 45
1, 1166602, Control_c, 0, 64, 34
1, 1166677, Control_c, 0, 64, 38
1, 1166694, Note_off_c, 0, 33, 0
1, 1166694, Poly_aftertouch_c, 0, 33, 28
1, 1166694, Control_c, 0, 64, 47
1, 1166714, Control_c, 0, 64, 61
1, 1166733, Control_c, 0, 64, 73
1, 1166751, Control_c, 0, 64, 86
1, 1166770, Control_c, 0, 64, 110
1, 1166790, Control_c, 0, 64, 127
1, 1166820, Note_off_c, 0, 45, 40
1, 1166822, Note_off_c, 0, 68, 37
1, 1166824, Poly_aftertouch_c, 0, 33, 20
1, 1166825, Note_off_c, 0, 60, 60
1, 1166834, Poly_aftertouch_c, 0, 33, 0
1, 1167131, Poly_aftertouch_c, 0, 61, 28
1, 1167132, Note_off_c, 0, 71, 61
1, 1167137, Note_on_c, 0, 61, 60
1, 1167144, Control_c, 0, 64, 108
1, 1167149, Poly_aftertouch_c, 0, 66, 28
1, 1167150, Poly_aftertouch_c, 0, 69, 28
1, 1167154, Note_on_c, 0, 69, 49
1, 1167156, Note_on_c, 0, 66, 50
1, 1167156, Poly_aftertouch_c, 0, 30, 28
1, 1167157, Poly_aftertouch_c, 0, 42, 28
1, 1167161, Note_on_c, 0, 42, 32
1, 1167161, Control_c, 0, 64, 81
1, 1167164, Note_on_c, 0, 30, 33
1, 1167182, Control_c, 0, 64, 60
1, 1167201, Control_c, 0, 64, 42
1, 1167220, Control_c, 0, 64, 31
1, 1167293, Control_c, 0, 64, 43
1, 1167313, Control_c, 0, 64, 58
1, 1167332, Control_c, 0, 64, 73
1, 1167344, Note_off_c, 0, 69, 56
1, 1167350, Control_c, 0, 64, 91
1, 1167355, Note_off_c, 0, 30, 54
1, 1167369, Control_c, 0, 64, 127
1, 1167400, Note_off_c, 0, 66, 58
1, 1167423, Note_off_c, 0, 42, 41
1, 1167520, Note_off_c, 0, 61, 50
1, 1167697, Poly_aftertouch_c, 0, 62, 28
1, 1167701, Note_on_c, 0, 62, 65
1, 1167705, Control_c, 0, 64, 86
1, 1167719, Note_on_c, 0, 69, 53
1, 1167719, Poly_aftertouch_c, 0, 47, 28
1, 1167724, Note_on_c, 0, 47, 43
1, 1167724, Note_on_c, 0, 66, 49
1, 1167724, Poly_aftertouch_c, 0, 66, 28
1, 1167724, Poly_aftertouch_c, 0, 69, 28
1, 1167724, Control_c, 0, 64, 64
1, 1167726, Poly_aftertouch_c, 0, 35, 28
1, 1167732, Note_on_c, 0, 35, 34
1, 1167743, Control_c, 0, 64, 45
1, 1167762, Control_c, 0, 64, 34
1, 1167780, Control_c, 0, 67, 123
1, 1167818, Control_c, 0, 64, 40
1, 1167837, Control_c, 0, 64, 50
1, 1167838, Control_c, 0, 67, 118
1, 1167857, Control_c, 0, 64, 62
1, 1167875, Control_c, 0, 64, 72
1, 1167877, Control_c, 0, 67, 114
1, 1167886, Note_off_c, 0, 47, 54
1, 1167892, Control_c, 0, 64, 84
1, 1167913, Control_c, 0, 64, 101
1, 1167927, Note_off_c, 0, 35, 53
1, 1167931, Control_c, 0, 64, 127
1, 1167932, Control_c, 0, 67, 110
1, 1167964, Note_off_c, 0, 69, 58
1, 1167976, Poly_aftertouch_c, 0, 63, 28
1, 1167983, Note_on_c, 0, 63, 74
1, 1167987, Note_off_c, 0, 66, 59
1, 1168016, Note_off_c, 0, 62, 60
1, 1168267, Control_c, 0, 64, 95
1, 1168286, Control_c, 0, 64, 68
1, 1168301, Poly_aftertouch_c, 0, 69, 28
1, 1168303, Control_c, 0, 64, 44
1, 1168305, Note_on_c, 0, 69, 62
1, 1168307, Poly_aftertouch_c, 0, 40, 28
1, 1168308, Note_off_c, 0, 63, 60
1, 1168309, Poly_aftertouch_c, 0, 66, 28
1, 1168314, Note_on_c, 0, 66, 58
1, 1168315, Note_on_c, 0, 40, 37
1, 1168317, Poly_aftertouch_c, 0, 28, 28
1, 1168322, Control_c, 0, 64, 24
1, 1168335, Note_on_c, 0, 28, 22
1, 1168342, Control_c, 0, 64, 15
1, 1168418, Control_c, 0, 64, 25
1, 1168435, Control_c, 0, 64, 39
1, 1168455, Control_c, 0, 64, 59
1, 1168475, Control_c, 0, 64, 78
1, 1168483, Note_off_c, 0, 28, 55
1, 1168492, Control_c, 0, 64, 102
1, 1168511, Control_c, 0, 64, 127
1, 1168522, Note_off_c, 0, 40, 50
1, 1168588, Note_off_c, 0, 69, 57
1, 1168599, Note_off_c, 0, 66, 52
1, 1168603, Poly_aftertouch_c, 0, 64, 28
1, 1168607, Note_on_c, 0, 64, 62
1, 1168848, Control_c, 0, 64, 91
1, 1168866, Control_c, 0, 64, 67
1, 1168871, Note_off_c, 0, 64, 61
1, 1168878, Poly_aftertouch_c, 0, 68, 28
1, 1168885, Control_c, 0, 64, 48
1, 1168887, Note_on_c, 0, 68, 53
1, 1168889, Poly_aftertouch_c, 0, 59, 28
1, 1168893, Note_on_c, 0, 59, 48
1, 1168894, Poly_aftertouch_c, 0, 40, 28
1, 1168895, Poly_aftertouch_c, 0, 52, 28
1, 1168901, Note_on_c, 0, 52, 35
1, 1168903, Note_on_c, 0, 40, 29
1, 1168903, Control_c, 0, 64, 37
1, 1168960, Control_c, 0, 64, 46
1, 1168979, Control_c, 0, 64, 58
1, 1168988, Note_off_c, 0, 68, 61
1, 1168997, Control_c, 0, 64, 69
1, 1169017, Control_c, 0, 64, 79
1, 1169034, Control_c, 0, 64, 93
1, 1169053, Control_c, 0, 64, 114
1, 1169072, Control_c, 0, 64, 127
1, 1169141, Note_off_c, 0, 52, 39
1, 1169165, Poly_aftertouch_c, 0, 56, 28
1, 1169172, Note_on_c, 0, 56, 57
1, 1169186, Note_off_c, 0, 40, 39
1, 1169208, Note_off_c, 0, 59, 48
1, 1169232, Note_off_c, 0, 56, 60
1, 1169565, Poly_aftertouch_c, 0, 68, 28
1, 1169569, Poly_aftertouch_c, 0, 56, 28
1, 1169572, Note_on_c, 0, 68, 71
1, 1169578, Note_on_c, 0, 56, 38
1, 1169587, Poly_aftertouch_c, 0, 47, 28
1, 1169588, Poly_aftertouch_c, 0, 64, 28
1, 1169593, Note_on_c, 0, 64, 49
1, 1169594, Poly_aftertouch_c, 0, 35, 28
1, 1169596, Note_on_c, 0, 35, 36
1, 1169596, Control_c, 0, 64, 96
1, 1169599, Note_on_c, 0, 47, 36
1, 1169616, Control_c, 0, 64, 77
1, 1169635, Control_c, 0, 64, 60
1, 1169652, Control_c, 0, 64, 41
1, 1169672, Control_c, 0, 64, 26
1, 1169690, Control_c, 0, 64, 18
1, 1169765, Control_c, 0, 64, 22
1, 1169784, Control_c, 0, 64, 32
1, 1169802, Control_c, 0, 64, 49
1, 1169822, Control_c, 0, 64, 70
1, 1169829, Note_off_c, 0, 35, 39
1, 1169839, Control_c, 0, 64, 88
1, 1169858, Control_c, 0, 64, 127
1, 1169903, Note_off_c, 0, 47, 41
1, 1169985, Note_off_c, 0, 64, 43
1, 1169994, Note_off_c, 0, 68, 57
1, 1170006, Note_off_c, 0, 56, 40
1, 1170243, Poly_aftertouch_c, 0, 68, 28
1, 1170250, Note_on_c, 0, 68, 77
1, 1170264, Poly_aftertouch_c, 0, 57, 28
1, 1170265, Poly_aftertouch_c, 0, 64, 28
1, 1170268, Note_on_c, 0, 64, 56
1, 1170270, Note_on_c, 0, 57, 41
1, 1170270, Control_c, 0, 64, 105
1, 1170275, Poly_aftertouch_c, 0, 36, 28
1, 1170283, Poly_aftertouch_c, 0, 48, 28
1, 1170286, Note_on_c, 0, 36, 35
1, 1170288, Note_on_c, 0, 48, 37
1, 1170289, Control_c, 0, 64, 82
1, 1170309, Control_c, 0, 64, 62
1, 1170327, Control_c, 0, 64, 44
1, 1170345, Control_c, 0, 64, 28
1, 1170364, Control_c, 0, 64, 21
1, 1170438, Control_c, 0, 64, 28
1, 1170458, Control_c, 0, 64, 38
1, 1170476, Control_c, 0, 64, 55
1, 1170495, Control_c, 0, 64, 72
1, 1170513, Note_off_c, 0, 48, 52
1, 1170513, Control_c, 0, 64, 86
1, 1170532, Control_c, 0, 64, 104
1, 1170536, Note_off_c, 0, 57, 61
1, 1170551, Control_c, 0, 64, 127
1, 1170556, Note_off_c, 0, 64, 53
1, 1170663, Control_c, 0, 67, 104
1, 1170683, Control_c, 0, 67, 99
1, 1170700, Control_c, 0, 67, 95
1, 1170838, Poly_aftertouch_c, 0, 37, 28
1, 1170841, Poly_aftertouch_c, 0, 66, 28
1, 1170845, Note_off_c, 0, 36, 42
1, 1170845, Note_on_c, 0, 66, 73
1, 1170851, Note_on_c, 0, 37, 43
1, 1170851, Control_c, 0, 64, 97
1, 1170853, Poly_aftertouch_c, 0, 58, 28
1, 1170854, Poly_aftertouch_c, 0, 64, 28
1, 1170857, Note_on_c, 0, 64, 62
1, 1170862, Note_on_c, 0, 58, 51
1, 1170863, Note_on_c, 0, 49, 45
1, 1170863, Poly_aftertouch_c, 0, 49, 28
1, 1170869, Control_c, 0, 64, 75
1, 1170889, Control_c, 0, 64, 57
1, 1170906, Control_c, 0, 64, 39
1, 1170926, Control_c, 0, 64, 26
1, 1170979, Note_off_c, 0, 68, 37
1, 1171001, Control_c, 0, 64, 34
1, 1171018, Note_off_c, 0, 64, 58
1, 1171020, Control_c, 0, 64, 47
1, 1171038, Control_c, 0, 64, 66
1, 1171056, Control_c, 0, 64, 81
1, 1171061, Note_off_c, 0, 49, 55
1, 1171076, Control_c, 0, 64, 107
1, 1171094, Control_c, 0, 64, 127
1, 1171135, Note_off_c, 0, 37, 49
1, 1171152, Note_off_c, 0, 58, 49
1, 1171376, Note_off_c, 0, 66, 63
1, 1171387, Poly_aftertouch_c, 0, 65, 28
1, 1171389, Note_on_c, 0, 65, 74
1, 1171390, Poly_aftertouch_c, 0, 30, 28
1, 1171392, Poly_aftertouch_c, 0, 64, 28
1, 1171392, Control_c, 0, 64, 101
1, 1171394, Note_on_c, 0, 64, 62
1, 1171400, Note_on_c, 0, 30, 45
1, 1171404, Poly_aftertouch_c, 0, 58, 28
1, 1171411, Control_c, 0, 64, 73
1, 1171413, Note_on_c, 0, 58, 46
1, 1171415, Poly_aftertouch_c, 0, 42, 28
1, 1171419, Note_on_c, 0, 42, 38
1, 1171431, Control_c, 0, 64, 51
1, 1171449, Control_c, 0, 64, 32
1, 1171469, Control_c, 0, 64, 26
1, 1171506, Control_c, 0, 64, 30
1, 1171524, Control_c, 0, 64, 40
1, 1171544, Control_c, 0, 64, 56
1, 1171546, Note_off_c, 0, 30, 56
1, 1171562, Control_c, 0, 64, 72
1, 1171581, Control_c, 0, 64, 92
1, 1171600, Control_c, 0, 64, 127
1, 1171662, Note_off_c, 0, 64, 35
1, 1171676, Poly_aftertouch_c, 0, 66, 28
1, 1171680, Note_on_c, 0, 66, 80
1, 1171711, Note_off_c, 0, 58, 59
1, 1171712, Note_off_c, 0, 65, 61
1, 1171763, Note_off_c, 0, 42, 41
1, 1171974, Control_c, 0, 64, 114
1, 1171992, Control_c, 0, 64, 84
1, 1172012, Control_c, 0, 64, 61
1, 1172030, Control_c, 0, 64, 35
1, 1172032, Poly_aftertouch_c, 0, 69, 28
1, 1172036, Note_on_c, 0, 69, 69
1, 1172039, Note_off_c, 0, 66, 53
1, 1172044, Poly_aftertouch_c, 0, 57, 28
1, 1172044, Poly_aftertouch_c, 0, 63, 28
1, 1172047, Note_on_c, 0, 63, 50
1, 1172048, Control_c, 0, 64, 10
1, 1172049, Poly_aftertouch_c, 0, 35, 28
1, 1172052, Note_on_c, 0, 35, 41
1, 1172053, Note_on_c, 0, 57, 39
1, 1172161, Control_c, 0, 64, 17
1, 1172180, Control_c, 0, 64, 33
1, 1172198, Control_c, 0, 64, 55
1, 1172217, Control_c, 0, 64, 77
1, 1172235, Control_c, 0, 64, 103
1, 1172238, Note_off_c, 0, 35, 54
1, 1172254, Control_c, 0, 64, 127
1, 1172353, Note_off_c, 0, 63, 59
1, 1172354, Poly_aftertouch_c, 0, 66, 28
1, 1172360, Note_on_c, 0, 66, 65
1, 1172377, Note_off_c, 0, 69, 54
1, 1172381, Note_off_c, 0, 57, 36
1, 1172624, Poly_aftertouch_c, 0, 64, 28
1, 1172628, Note_on_c, 0, 64, 60
1, 1172628, Control_c, 0, 64, 97
1, 1172635, Poly_aftertouch_c, 0, 54, 28
1, 1172641, Poly_aftertouch_c, 0, 47, 28
1, 1172645, Note_on_c, 0, 54, 40
1, 1172647, Control_c, 0, 64, 71
1, 1172648, Note_on_c, 0, 47, 38
1, 1172648, Poly_aftertouch_c, 0, 57, 28
1, 1172653, Note_on_c, 0, 57, 35
1, 1172666, Note_off_c, 0, 66, 41
1, 1172667, Control_c, 0, 64, 50
1, 1172685, Control_c, 0, 64, 33
1, 1172704, Control_c, 0, 64, 26
1, 1172761, Control_c, 0, 64, 36
1, 1172779, Control_c, 0, 64, 48
1, 1172798, Control_c, 0, 64, 63
1, 1172816, Control_c, 0, 64, 75
1, 1172836, Control_c, 0, 64, 89
1, 1172854, Control_c, 0, 64, 109
1, 1172872, Control_c, 0, 64, 127
1, 1172874, Note_off_c, 0, 54, 50
1, 1172894, Poly_aftertouch_c, 0, 63, 28
1, 1172899, Note_off_c, 0, 64, 55
1, 1172903, Note_on_c, 0, 63, 57
1, 1172945, Note_off_c, 0, 47, 45
1, 1172961, Note_off_c, 0, 57, 41
1, 1173003, Note_off_c, 0, 63, 62
1, 1173317, Poly_aftertouch_c, 0, 61, 28
1, 1173321, Control_c, 0, 64, 122
1, 1173324, Note_on_c, 0, 61, 68
1, 1173328, Poly_aftertouch_c, 0, 30, 28
1, 1173331, Poly_aftertouch_c, 0, 69, 28
1, 1173334, Note_on_c, 0, 69, 45
1, 1173338, Note_on_c, 0, 30, 39
1, 1173340, Control_c, 0, 64, 94
1, 1173341, Poly_aftertouch_c, 0, 42, 28
1, 1173343, Poly_aftertouch_c, 0, 73, 28
1, 1173350, Note_on_c, 0, 42, 38
1, 1173351, Note_on_c, 0, 73, 49
1, 1173359, Control_c, 0, 64, 73
1, 1173378, Control_c, 0, 64, 53
1, 1173396, Control_c, 0, 64, 33
1, 1173415, Control_c, 0, 64, 19
1, 1173454, Control_c, 0, 67, 91
1, 1173508, Control_c, 0, 64, 34
1, 1173527, Control_c, 0, 64, 51
1, 1173528, Control_c, 0, 67, 87
1, 1173546, Control_c, 0, 64, 70
1, 1173548, Control_c, 0, 67, 79
1, 1173566, Control_c, 0, 64, 87
1, 1173569, Control_c, 0, 67, 69
1, 1173584, Control_c, 0, 64, 127
1, 1173585, Control_c, 0, 67, 59
1, 1173603, Control_c, 0, 67, 49
1, 1173613, Note_off_c, 0, 30, 38
1, 1173621, Control_c, 0, 67, 39
1, 1173639, Control_c, 0, 67, 30
1, 1173654, Note_off_c, 0, 42, 51
1, 1173658, Control_c, 0, 67, 21
1, 1173673, Note_off_c, 0, 73, 37
1, 1173676, Control_c, 0, 67, 14
1, 1173682, Note_off_c, 0, 69, 35
1, 1173695, Control_c, 0, 67, 8
1, 1173752, Control_c, 0, 67, 0
1, 1173888, Note_off_c, 0, 61, 38
1, 1174036, Poly_aftertouch_c, 0, 62, 28
1, 1174038, Poly_aftertouch_c, 0, 73, 28
1, 1174042, Note_on_c, 0, 62, 71
1, 1174043, Note_on_c, 0, 73, 62
1, 1174049, Poly_aftertouch_c, 0, 47, 28
1, 1174053, Note_on_c, 0, 69, 59
1, 1174054, Poly_aftertouch_c, 0, 69, 28
1, 1174058, Note_on_c, 0, 47, 47
1, 1174059, Poly_aftertouch_c, 0, 35, 28
1, 1174061, Note_on_c, 0, 35, 42
1, 1174071, Control_c, 0, 64, 84
1, 1174089, Control_c, 0, 64, 61
1, 1174107, Control_c, 0, 64, 38
1, 1174126, Control_c, 0, 64, 20
1, 1174145, Control_c, 0, 64, 16
1, 1174201, Control_c, 0, 64, 21
1, 1174219, Control_c, 0, 64, 32
1, 1174239, Control_c, 0, 64, 48
1, 1174258, Control_c, 0, 64, 69
1, 1174276, Control_c, 0, 64, 88
1, 1174295, Control_c, 0, 64, 127
1, 1174320, Note_off_c, 0, 69, 50
1, 1174389, Note_off_c, 0, 62, 58
1, 1174400, Note_off_c, 0, 47, 35
1, 1174600, Note_off_c, 0, 35, 40
1, 1174613, Poly_aftertouch_c, 0, 63, 28
1, 1174617, Note_on_c, 0, 63, 81
1, 1174625, Poly_aftertouch_c, 0, 44, 28
1, 1174627, Poly_aftertouch_c, 0, 69, 28
1, 1174627, Poly_aftertouch_c, 0, 71, 28
1, 1174632, Note_on_c, 0, 69, 65
1, 1174632, Note_on_c, 0, 44, 67
1, 1174632, Control_c, 0, 64, 101
1, 1174633, Note_on_c, 0, 71, 65
1, 1174650, Poly_aftertouch_c, 0, 32, 28
1, 1174651, Control_c, 0, 64, 73
1, 1174654, Note_on_c, 0, 32, 49
1, 1174666, Note_off_c, 0, 73, 39
1, 1174669, Control_c, 0, 64, 49
1, 1174688, Control_c, 0, 64, 25
1, 1174707, Control_c, 0, 64, 11
1, 1174783, Control_c, 0, 64, 20
1, 1174789, Note_off_c, 0, 69, 52
1, 1174800, Control_c, 0, 64, 35
1, 1174820, Control_c, 0, 64, 59
1, 1174838, Control_c, 0, 64, 85
1, 1174840, Note_off_c, 0, 71, 59
1, 1174847, Note_off_c, 0, 32, 55
1, 1174856, Control_c, 0, 64, 127
1, 1174921, Note_off_c, 0, 44, 58
1, 1175023, Note_off_c, 0, 63, 54
1, 1175148, Poly_aftertouch_c, 0, 71, 28
1, 1175155, Note_on_c, 0, 71, 73
1, 1175156, Note_on_c, 0, 64, 76
1, 1175156, Control_c, 0, 64, 84
1, 1175157, Note_on_c, 0, 49, 64
1, 1175158, Poly_aftertouch_c, 0, 49, 28
1, 1175159, Poly_aftertouch_c, 0, 64, 28
1, 1175159, Poly_aftertouch_c, 0, 68, 28
1, 1175162, Note_on_c, 0, 68, 70
1, 1175163, Poly_aftertouch_c, 0, 37, 28
1, 1175172, Note_on_c, 0, 37, 51
1, 1175175, Control_c, 0, 64, 58
1, 1175194, Control_c, 0, 64, 34
1, 1175212, Control_c, 0, 64, 19
1, 1175287, Control_c, 0, 64, 32
1, 1175306, Control_c, 0, 64, 50
1, 1175325, Control_c, 0, 64, 73
1, 1175344, Control_c, 0, 64, 101
1, 1175356, Note_off_c, 0, 49, 60
1, 1175360, Control_c, 0, 64, 127
1, 1175420, Note_off_c, 0, 37, 63
1, 1175440, Poly_aftertouch_c, 0, 65, 28
1, 1175441, Note_off_c, 0, 71, 60
1, 1175443, Note_on_c, 0, 65, 83
1, 1175451, Note_off_c, 0, 68, 63
1, 1175481, Note_off_c, 0, 64, 62
1, 1175773, Poly_aftertouch_c, 0, 42, 28
1, 1175774, Control_c, 0, 64, 89
1, 1175775, Poly_aftertouch_c, 0, 71, 28
1, 1175780, Note_on_c, 0, 42, 53
1, 1175781, Note_on_c, 0, 71, 73
1, 1175785, Poly_aftertouch_c, 0, 30, 28
1, 1175791, Control_c, 0, 64, 63
1, 1175794, Poly_aftertouch_c, 0, 68, 28
1, 1175795, Note_on_c, 0, 30, 41
1, 1175797, Note_on_c, 0, 68, 70
1, 1175813, Control_c, 0, 64, 37
1, 1175821, Note_off_c, 0, 65, 57
1, 1175829, Control_c, 0, 64, 15
1, 1175943, Control_c, 0, 64, 27
1, 1175961, Control_c, 0, 64, 48
1, 1175980, Control_c, 0, 64, 76
1, 1175998, Control_c, 0, 64, 118
1, 1176009, Note_off_c, 0, 30, 53
1, 1176016, Control_c, 0, 64, 127
1, 1176062, Note_off_c, 0, 42, 61
1, 1176090, Note_off_c, 0, 71, 57
1, 1176095, Poly_aftertouch_c, 0, 66, 28
1, 1176100, Note_on_c, 0, 66, 75
1, 1176170, Note_off_c, 0, 68, 50
1, 1176354, Control_c, 0, 64, 104
1, 1176357, Poly_aftertouch_c, 0, 42, 28
1, 1176359, Poly_aftertouch_c, 0, 54, 28
1, 1176364, Note_on_c, 0, 42, 56
1, 1176366, Note_on_c, 0, 54, 59
1, 1176367, Note_on_c, 0, 69, 72
1, 1176368, Poly_aftertouch_c, 0, 69, 28
1, 1176372, Poly_aftertouch_c, 0, 61, 28
1, 1176373, Control_c, 0, 64, 72
1, 1176379, Note_on_c, 0, 61, 65
1, 1176393, Control_c, 0, 64, 50
1, 1176410, Control_c, 0, 64, 36
1, 1176427, Note_off_c, 0, 66, 60
1, 1176466, Control_c, 0, 64, 47
1, 1176485, Control_c, 0, 64, 62
1, 1176505, Control_c, 0, 64, 76
1, 1176522, Control_c, 0, 64, 99
1, 1176541, Control_c, 0, 64, 127
1, 1176545, Note_off_c, 0, 54, 61
1, 1176621, Note_off_c, 0, 42, 60
1, 1176679, Poly_aftertouch_c, 0, 57, 28
1, 1176683, Note_on_c, 0, 57, 69
1, 1176768, Note_off_c, 0, 57, 61
1, 1176795, Note_off_c, 0, 61, 58
1, 1176796, Note_off_c, 0, 69, 35
1, 1177140, Control_c, 0, 64, 99
1, 1177145, Poly_aftertouch_c, 0, 74, 28
1, 1177148, Note_on_c, 0, 74, 97
1, 1177158, Poly_aftertouch_c, 0, 68, 28
1, 1177159, Control_c, 0, 64, 65
1, 1177163, Note_on_c, 0, 40, 60
1, 1177163, Poly_aftertouch_c, 0, 28, 28
1, 1177164, Poly_aftertouch_c, 0, 40, 28
1, 1177165, Note_on_c, 0, 68, 69
1, 1177168, Note_on_c, 0, 28, 56
1, 1177168, Poly_aftertouch_c, 0, 62, 28
1, 1177169, Note_on_c, 0, 62, 71
1, 1177178, Control_c, 0, 64, 30
1, 1177196, Control_c, 0, 64, 0
1, 1177310, Control_c, 0, 64, 10
1, 1177328, Control_c, 0, 64, 28
1, 1177346, Control_c, 0, 64, 57
1, 1177365, Control_c, 0, 64, 86
1, 1177384, Control_c, 0, 64, 127
1, 1177456, Note_off_c, 0, 28, 34
1, 1177529, Note_off_c, 0, 62, 53
1, 1177550, Note_off_c, 0, 40, 35
1, 1177556, Note_off_c, 0, 74, 54
1, 1177586, Note_off_c, 0, 68, 57
1, 1177885, Poly_aftertouch_c, 0, 74, 28
1, 1177888, Control_c, 0, 64, 84
1, 1177889, Note_on_c, 0, 74, 95
1, 1177895, Poly_aftertouch_c, 0, 41, 28
1, 1177897, Note_on_c, 0, 41, 68
1, 1177899, Poly_aftertouch_c, 0, 69, 28
1, 1177902, Note_on_c, 0, 69, 78
1, 1177905, Note_on_c, 0, 63, 77
1, 1177908, Poly_aftertouch_c, 0, 63, 28
1, 1177908, Control_c, 0, 64, 48
1, 1177912, Poly_aftertouch_c, 0, 29, 28
1, 1177916, Note_on_c, 0, 29, 64
1, 1177945, Control_c, 0, 64, 0
1, 1178001, Control_c, 0, 64, 13
1, 1178020, Control_c, 0, 64, 34
1, 1178034, Note_off_c, 0, 29, 61
1, 1178040, Control_c, 0, 64, 62
1, 1178057, Control_c, 0, 64, 95
1, 1178077, Control_c, 0, 64, 127
1, 1178102, Note_off_c, 0, 41, 58
1, 1178179, Note_off_c, 0, 63, 52
1, 1178184, Note_off_c, 0, 69, 54
1, 1178455, Poly_aftertouch_c, 0, 72, 28
1, 1178457, Note_on_c, 0, 72, 86
1, 1178461, Poly_aftertouch_c, 0, 63, 28
1, 1178464, Poly_aftertouch_c, 0, 69, 28
1, 1178465, Note_on_c, 0, 63, 81
1, 1178467, Note_on_c, 0, 69, 80
1, 1178468, Control_c, 0, 64, 96
1, 1178470, Poly_aftertouch_c, 0, 41, 28
1, 1178471, Note_on_c, 0, 53, 75
1, 1178473, Note_on_c, 0, 41, 68
1, 1178473, Poly_aftertouch_c, 0, 53, 28
1, 1178490, Control_c, 0, 64, 70
1, 1178507, Control_c, 0, 64, 62
1, 1178514, Note_off_c, 0, 74, 54
1, 1178525, Control_c, 0, 64, 66
1, 1178543, Control_c, 0, 64, 77
1, 1178563, Control_c, 0, 64, 108
1, 1178581, Control_c, 0, 64, 127
1, 1178616, Note_off_c, 0, 69, 55
1, 1178637, Note_off_c, 0, 53, 56
1, 1178697, Note_off_c, 0, 63, 50
1, 1178709, Note_off_c, 0, 41, 61
1, 1179050, Control_c, 0, 64, 95
1, 1179068, Control_c, 0, 64, 64
1, 1179080, Poly_aftertouch_c, 0, 71, 28
1, 1179083, Note_on_c, 0, 71, 84
1, 1179086, Poly_aftertouch_c, 0, 41, 28
1, 1179086, Control_c, 0, 64, 41
1, 1179087, Poly_aftertouch_c, 0, 62, 28
1, 1179091, Note_on_c, 0, 41, 71
1, 1179091, Note_on_c, 0, 62, 77
1, 1179092, Note_on_c, 0, 68, 80
1, 1179094, Poly_aftertouch_c, 0, 68, 28
1, 1179098, Note_on_c, 0, 29, 67
1, 1179098, Poly_aftertouch_c, 0, 29, 28
1, 1179105, Control_c, 0, 64, 29
1, 1179129, Note_off_c, 0, 72, 57
1, 1179162, Control_c, 0, 64, 36
1, 1179181, Control_c, 0, 64, 52
1, 1179199, Control_c, 0, 64, 73
1, 1179216, Note_off_c, 0, 29, 61
1, 1179217, Control_c, 0, 64, 111
1, 1179237, Control_c, 0, 64, 127
1, 1179303, Note_off_c, 0, 41, 59
1, 1179331, Note_off_c, 0, 62, 56
1, 1179438, Note_off_c, 0, 68, 56
1, 1179455, Poly_aftertouch_c, 0, 72, 28
1, 1179458, Note_on_c, 0, 72, 93
1, 1179487, Note_off_c, 0, 71, 63
1, 1179918, Poly_aftertouch_c, 0, 75, 28
1, 1179921, Note_on_c, 0, 75, 86
1, 1179929, Poly_aftertouch_c, 0, 60, 28
1, 1179931, Note_on_c, 0, 60, 64
1, 1179935, Poly_aftertouch_c, 0, 53, 28
1, 1179940, Note_on_c, 0, 53, 58
1, 1179943, Poly_aftertouch_c, 0, 69, 28
1, 1179945, Note_on_c, 0, 69, 71
1, 1179958, Note_off_c, 0, 72, 57
1, 1179986, Control_c, 0, 64, 91
1, 1180004, Control_c, 0, 64, 62
1, 1180023, Control_c, 0, 64, 32
1, 1180060, Control_c, 0, 64, 0
1, 1180154, Control_c, 0, 64, 20
1, 1180173, Control_c, 0, 64, 38
1, 1180191, Control_c, 0, 64, 61
1, 1180210, Control_c, 0, 64, 79
1, 1180229, Control_c, 0, 64, 104
1, 1180248, Control_c, 0, 64, 127
1, 1180350, Poly_aftertouch_c, 0, 72, 28
1, 1180352, Note_on_c, 0, 72, 80
1, 1180359, Poly_aftertouch_c, 0, 57, 28
1, 1180362, Note_on_c, 0, 57, 69
1, 1180440, Note_off_c, 0, 69, 55
1, 1180448, Note_off_c, 0, 60, 51
1, 1180654, Poly_aftertouch_c, 0, 70, 28
1, 1180660, Note_on_c, 0, 70, 81
1, 1180663, Poly_aftertouch_c, 0, 55, 28
1, 1180669, Note_on_c, 0, 55, 74
1, 1180676, Control_c, 0, 64, 88
1, 1180696, Control_c, 0, 64, 66
1, 1180716, Control_c, 0, 64, 56
1, 1180725, Note_off_c, 0, 53, 57
1, 1180747, Note_off_c, 0, 57, 54
1, 1180752, Control_c, 0, 64, 61
1, 1180771, Control_c, 0, 64, 67
1, 1180789, Note_off_c, 0, 75, 52
1, 1180791, Control_c, 0, 64, 73
1, 1180792, Note_off_c, 0, 72, 56
1, 1180809, Control_c, 0, 64, 81
1, 1180827, Control_c, 0, 64, 93
1, 1180847, Control_c, 0, 64, 115
1, 1180866, Control_c, 0, 64, 127
1, 1180934, Poly_aftertouch_c, 0, 69, 28
1, 1180936, Note_on_c, 0, 69, 82
1, 1180938, Poly_aftertouch_c, 0, 53, 28
1, 1180943, Note_on_c, 0, 53, 79
1, 1180949, Note_off_c, 0, 55, 60
1, 1180964, Note_off_c, 0, 70, 62
1, 1181005, Note_off_c, 0, 69, 58
1, 1181015, Note_off_c, 0, 53, 60
1, 1181352, Control_c, 0, 64, 116
1, 1181360, Poly_aftertouch_c, 0, 69, 28
1, 1181360, Poly_aftertouch_c, 0, 75, 28
1, 1181362, Note_on_c, 0, 69, 82
1, 1181363, Note_on_c, 0, 75, 91
1, 1181366, Poly_aftertouch_c, 0, 60, 28
1, 1181370, Note_on_c, 0, 60, 88
1, 1181372, Poly_aftertouch_c, 0, 29, 28
1, 1181372, Control_c, 0, 64, 71
1, 1181373, Poly_aftertouch_c, 0, 41, 28
1, 1181376, Note_on_c, 0, 41, 82
1, 1181376, Note_on_c, 0, 29, 80
1, 1181390, Control_c, 0, 64, 35
1, 1181407, Control_c, 0, 64, 0
1, 1181483, Control_c, 0, 64, 21
1, 1181501, Control_c, 0, 64, 41
1, 1181521, Control_c, 0, 64, 66
1, 1181538, Control_c, 0, 64, 93
1, 1181557, Control_c, 0, 64, 127
1, 1181595, Note_off_c, 0, 29, 35
1, 1181645, Note_off_c, 0, 69, 48
1, 1181649, Note_off_c, 0, 60, 35
1, 1181674, Note_off_c, 0, 75, 55
1, 1181683, Note_off_c, 0, 41, 44
1, 1181961, Poly_aftertouch_c, 0, 74, 28
1, 1181965, Note_on_c, 0, 74, 95
1, 1181967, Poly_aftertouch_c, 0, 62, 28
1, 1181969, Note_on_c, 0, 62, 88
1, 1181969, Control_c, 0, 64, 82
1, 1181970, Note_on_c, 0, 69, 87
1, 1181972, Poly_aftertouch_c, 0, 69, 28
1, 1181974, Note_on_c, 0, 42, 93
1, 1181976, Note_on_c, 0, 30, 84
1, 1181977, Note_off_c, 0, 30, 127
1, 1181978, Poly_aftertouch_c, 0, 30, 28
1, 1181979, Poly_aftertouch_c, 0, 42, 28
1, 1181994, Control_c, 0, 64, 45
1, 1182007, Control_c, 0, 64, 0
1, 1182032, Poly_aftertouch_c, 0, 30, 127
1, 1182081, Control_c, 0, 64, 17
1, 1182085, Poly_aftertouch_c, 0, 30, 0
1, 1182101, Control_c, 0, 64, 41
1, 1182119, Control_c, 0, 64, 72
1, 1182138, Control_c, 0, 64, 127
1, 1182148, Note_off_c, 0, 42, 59
1, 1182238, Note_off_c, 0, 62, 57
1, 1182256, Note_off_c, 0, 69, 59
1, 1182597, Poly_aftertouch_c, 0, 72, 28
1, 1182602, Note_on_c, 0, 72, 89
1, 1182604, Note_on_c, 0, 63, 90
1, 1182604, Poly_aftertouch_c, 0, 63, 28
1, 1182605, Note_on_c, 0, 69, 89
1, 1182605, Control_c, 0, 64, 108
1, 1182606, Poly_aftertouch_c, 0, 69, 28
1, 1182611, Poly_aftertouch_c, 0, 54, 28
1, 1182613, Note_on_c, 0, 54, 98
1, 1182619, Poly_aftertouch_c, 0, 42, 28
1, 1182621, Note_on_c, 0, 42, 86
1, 1182625, Control_c, 0, 64, 66
1, 1182644, Control_c, 0, 64, 29
1, 1182650, Note_off_c, 0, 74, 59
1, 1182663, Control_c, 0, 64, 0
1, 1182719, Control_c, 0, 64, 10
1, 1182737, Control_c, 0, 64, 29
1, 1182756, Control_c, 0, 64, 57
1, 1182775, Control_c, 0, 64, 91
1, 1182793, Control_c, 0, 64, 127
1, 1182799, Note_off_c, 0, 54, 60
1, 1182824, Note_off_c, 0, 63, 56
1, 1182874, Note_off_c, 0, 42, 56
1, 1182916, Note_off_c, 0, 69, 51
1, 1183323, Note_off_c, 0, 72, 61
1, 1183358, Poly_aftertouch_c, 0, 68, 28
1, 1183359, Poly_aftertouch_c, 0, 71, 28
1, 1183362, Note_on_c, 0, 71, 92
1, 1183365, Note_on_c, 0, 68, 91
1, 1183365, Poly_aftertouch_c, 0, 29, 28
1, 1183365, Poly_aftertouch_c, 0, 41, 28
1, 1183366, Note_on_c, 0, 62, 90
1, 1183367, Note_on_c, 0, 41, 88
1, 1183370, Poly_aftertouch_c, 0, 62, 28
1, 1183372, Note_on_c, 0, 29, 86
1, 1183374, Control_c, 0, 64, 84
1, 1183393, Control_c, 0, 64, 49
1, 1183411, Control_c, 0, 64, 0
1, 1183438, Poly_aftertouch_c, 0, 72, 28
1, 1183438, Poly_aftertouch_c, 0, 72, 0
1, 1183523, Control_c, 0, 64, 18
1, 1183531, Note_off_c, 0, 29, 62
1, 1183543, Control_c, 0, 64, 44
1, 1183560, Control_c, 0, 64, 72
1, 1183580, Control_c, 0, 64, 111
1, 1183598, Control_c, 0, 64, 127
1, 1183670, Note_off_c, 0, 41, 60
1, 1183701, Note_off_c, 0, 62, 43
1, 1183781, Note_off_c, 0, 68, 51
1, 1183871, Note_on_c, 0, 72, 101
1, 1183872, Poly_aftertouch_c, 0, 72, 28
1, 1183889, Note_off_c, 0, 71, 50
1, 1183978, Note_off_c, 0, 72, 56
1, 1184618, Poly_aftertouch_c, 0, 79, 28
1, 1184620, Note_on_c, 0, 79, 96
1, 1184628, Poly_aftertouch_c, 0, 63, 28
1, 1184629, Poly_aftertouch_c, 0, 69, 28
1, 1184632, Note_on_c, 0, 69, 82
1, 1184635, Note_on_c, 0, 63, 74
1, 1184636, Poly_aftertouch_c, 0, 53, 28
1, 1184642, Note_on_c, 0, 53, 70
1, 1184666, Control_c, 0, 64, 81
1, 1184683, Control_c, 0, 64, 50
1, 1184702, Control_c, 0, 64, 10
1, 1184721, Control_c, 0, 64, 0
1, 1184908, Control_c, 0, 64, 14
1, 1184928, Control_c, 0, 64, 25
1, 1184945, Control_c, 0, 64, 41
1, 1184965, Control_c, 0, 64, 61
1, 1184983, Control_c, 0, 64, 73
1, 1185002, Control_c, 0, 64, 83
1, 1185022, Control_c, 0, 64, 95
1, 1185039, Control_c, 0, 64, 114
1, 1185059, Control_c, 0, 64, 127
1, 1185325, Poly_aftertouch_c, 0, 75, 28
1, 1185329, Note_on_c, 0, 75, 83
1, 1185335, Poly_aftertouch_c, 0, 60, 28
1, 1185339, Note_on_c, 0, 60, 67
1, 1185454, Note_off_c, 0, 63, 61
1, 1185802, Poly_aftertouch_c, 0, 74, 28
1, 1185804, Note_on_c, 0, 74, 83
1, 1185807, Poly_aftertouch_c, 0, 58, 28
1, 1185808, Note_on_c, 0, 58, 72
1, 1185825, Control_c, 0, 64, 90
1, 1185844, Control_c, 0, 64, 68
1, 1185863, Control_c, 0, 64, 49
1, 1185881, Control_c, 0, 64, 38
1, 1185919, Control_c, 0, 64, 43
1, 1185920, Note_off_c, 0, 69, 48
1, 1185938, Control_c, 0, 64, 54
1, 1185956, Control_c, 0, 64, 64
1, 1185957, Note_off_c, 0, 60, 45
1, 1185975, Control_c, 0, 64, 74
1, 1185996, Control_c, 0, 64, 87
1, 1186012, Control_c, 0, 64, 119
1, 1186030, Control_c, 0, 64, 127
1, 1186161, Poly_aftertouch_c, 0, 72, 28
1, 1186163, Note_on_c, 0, 72, 84
1, 1186168, Note_on_c, 0, 57, 72
1, 1186168, Poly_aftertouch_c, 0, 57, 28
1, 1186181, Control_c, 0, 64, 95
1, 1186201, Control_c, 0, 64, 72
1, 1186218, Control_c, 0, 64, 56
1, 1186227, Note_off_c, 0, 58, 54
1, 1186237, Control_c, 0, 64, 53
1, 1186256, Control_c, 0, 64, 58
1, 1186275, Control_c, 0, 64, 65
1, 1186294, Control_c, 0, 64, 75
1, 1186314, Control_c, 0, 64, 91
1, 1186331, Control_c, 0, 64, 127
1, 1186435, Poly_aftertouch_c, 0, 75, 24
1, 1186442, Control_c, 0, 64, 87
1, 1186456, Note_off_c, 0, 75, 0
1, 1186456, Poly_aftertouch_c, 0, 75, 28
1, 1186462, Poly_aftertouch_c, 0, 71, 28
1, 1186463, Control_c, 0, 64, 64
1, 1186464, Note_on_c, 0, 71, 87
1, 1186466, Poly_aftertouch_c, 0, 56, 28
1, 1186473, Note_on_c, 0, 56, 72
1, 1186480, Note_off_c, 0, 72, 52
1, 1186480, Control_c, 0, 64, 41
1, 1186499, Control_c, 0, 64, 23
1, 1186508, Note_off_c, 0, 74, 53
1, 1186517, Poly_aftertouch_c, 0, 79, 24
1, 1186543, Note_off_c, 0, 57, 58
1, 1186555, Control_c, 0, 64, 28
1, 1186559, Note_off_c, 0, 79, 42
1, 1186574, Control_c, 0, 64, 40
1, 1186584, Poly_aftertouch_c, 0, 75, 0
1, 1186591, Control_c, 0, 64, 57
1, 1186612, Control_c, 0, 64, 72
1, 1186630, Control_c, 0, 64, 84
1, 1186650, Control_c, 0, 64, 98
1, 1186669, Control_c, 0, 64, 106
1, 1186725, Control_c, 0, 64, 110
1, 1186739, Poly_aftertouch_c, 0, 72, 28
1, 1186743, Note_on_c, 0, 72, 90
1, 1186748, Poly_aftertouch_c, 0, 57, 28
1, 1186752, Note_on_c, 0, 57, 77
1, 1186769, Note_off_c, 0, 56, 50
1, 1186778, Note_off_c, 0, 71, 62
1, 1186780, Control_c, 0, 64, 118
1, 1186799, Control_c, 0, 64, 127
1, 1187136, Control_c, 0, 64, 108
1, 1187152, Note_on_c, 0, 77, 82
1, 1187153, Poly_aftertouch_c, 0, 77, 28
1, 1187153, Control_c, 0, 64, 82
1, 1187156, Poly_aftertouch_c, 0, 60, 28
1, 1187158, Poly_aftertouch_c, 0, 75, 28
1, 1187163, Note_on_c, 0, 60, 61
1, 1187165, Note_on_c, 0, 75, 80
1, 1187171, Control_c, 0, 64, 60
1, 1187192, Control_c, 0, 64, 35
1, 1187207, Note_off_c, 0, 72, 56
1, 1187211, Control_c, 0, 64, 11
1, 1187230, Note_off_c, 0, 57, 58
1, 1187323, Control_c, 0, 64, 19
1, 1187343, Control_c, 0, 64, 35
1, 1187360, Control_c, 0, 64, 59
1, 1187379, Control_c, 0, 64, 78
1, 1187398, Control_c, 0, 64, 97
1, 1187417, Control_c, 0, 64, 127
1, 1187551, Poly_aftertouch_c, 0, 72, 28
1, 1187555, Note_on_c, 0, 72, 80
1, 1187566, Control_c, 0, 64, 87
1, 1187567, Poly_aftertouch_c, 0, 57, 28
1, 1187574, Note_on_c, 0, 57, 65
1, 1187585, Control_c, 0, 64, 66
1, 1187604, Control_c, 0, 64, 52
1, 1187641, Control_c, 0, 64, 57
1, 1187649, Note_off_c, 0, 60, 53
1, 1187650, Note_off_c, 0, 77, 49
1, 1187659, Control_c, 0, 64, 64
1, 1187679, Control_c, 0, 64, 75
1, 1187698, Control_c, 0, 64, 95
1, 1187716, Control_c, 0, 64, 127
1, 1187866, Control_c, 0, 64, 86
1, 1187874, Poly_aftertouch_c, 0, 70, 28
1, 1187883, Note_on_c, 0, 70, 79
1, 1187885, Control_c, 0, 64, 62
1, 1187888, Poly_aftertouch_c, 0, 55, 28
1, 1187894, Note_on_c, 0, 55, 68
1, 1187896, Note_off_c, 0, 53, 59
1, 1187903, Control_c, 0, 64, 42
1, 1187922, Control_c, 0, 64, 37
1, 1187937, Note_off_c, 0, 57, 59
1, 1187938, Note_off_c, 0, 72, 58
1, 1187939, Note_off_c, 0, 75, 37
1, 1187939, Control_c, 0, 64, 40
1, 1187959, Control_c, 0, 64, 52
1, 1187977, Control_c, 0, 64, 67
1, 1187997, Control_c, 0, 64, 82
1, 1188016, Control_c, 0, 64, 121
1, 1188034, Control_c, 0, 64, 127
1, 1188072, Control_c, 0, 64, 121
1, 1188089, Control_c, 0, 64, 84
1, 1188109, Control_c, 0, 64, 62
1, 1188128, Control_c, 0, 64, 46
1, 1188147, Control_c, 0, 64, 42
1, 1188165, Control_c, 0, 64, 48
1, 1188171, Poly_aftertouch_c, 0, 69, 28
1, 1188175, Note_on_c, 0, 69, 79
1, 1188176, Poly_aftertouch_c, 0, 53, 28
1, 1188177, Note_off_c, 0, 70, 62
1, 1188181, Note_on_c, 0, 53, 62
1, 1188182, Note_off_c, 0, 55, 57
1, 1188184, Control_c, 0, 64, 62
1, 1188203, Control_c, 0, 64, 78
1, 1188221, Control_c, 0, 64, 121
1, 1188241, Control_c, 0, 64, 127
1, 1188287, Note_off_c, 0, 53, 61
1, 1188486, Note_off_c, 0, 69, 38
1, 1188502, Control_c, 0, 64, 102
1, 1188508, Poly_aftertouch_c, 0, 67, 28
1, 1188515, Note_on_c, 0, 67, 70
1, 1188516, Poly_aftertouch_c, 0, 51, 28
1, 1188519, Note_on_c, 0, 51, 60
1, 1188521, Control_c, 0, 64, 72
1, 1188540, Control_c, 0, 64, 50
1, 1188558, Control_c, 0, 64, 34
1, 1188577, Control_c, 0, 64, 29
1, 1188671, Control_c, 0, 64, 33
1, 1188846, Poly_aftertouch_c, 0, 50, 28
1, 1188852, Poly_aftertouch_c, 0, 65, 28
1, 1188856, Note_on_c, 0, 50, 64
1, 1188857, Note_on_c, 0, 65, 70
1, 1188901, Note_off_c, 0, 51, 51
1, 1188925, Note_off_c, 0, 67, 56
1, 1189214, Control_c, 0, 64, 29
1, 1189258, Poly_aftertouch_c, 0, 48, 28
1, 1189259, Poly_aftertouch_c, 0, 63, 28
1, 1189261, Note_on_c, 0, 48, 58
1, 1189261, Note_on_c, 0, 63, 67
1, 1189337, Note_off_c, 0, 50, 51
1, 1189349, Note_off_c, 0, 65, 50
1, 1189420, Control_c, 0, 64, 24
1, 1189513, Control_c, 0, 64, 19
1, 1189551, Control_c, 0, 64, 11
1, 1189625, Control_c, 0, 64, 0
1, 1189733, Poly_aftertouch_c, 0, 60, 28
1, 1189735, Note_on_c, 0, 60, 66
1, 1189738, Poly_aftertouch_c, 0, 45, 28
1, 1189741, Note_on_c, 0, 45, 56
1, 1189848, Note_off_c, 0, 48, 36
1, 1189849, Note_off_c, 0, 63, 37
1, 1190357, Poly_aftertouch_c, 0, 58, 28
1, 1190366, Note_on_c, 0, 58, 61
1, 1190368, Poly_aftertouch_c, 0, 43, 28
1, 1190370, Note_on_c, 0, 43, 43
1, 1190377, Note_off_c, 0, 60, 61
1, 1190429, Note_off_c, 0, 45, 51
1, 1190692, Control_c, 0, 64, 9
1, 1190710, Control_c, 0, 64, 14
1, 1190730, Control_c, 0, 64, 23
1, 1190749, Control_c, 0, 64, 37
1, 1190766, Control_c, 0, 64, 55
1, 1190786, Control_c, 0, 64, 66
1, 1190804, Control_c, 0, 64, 72
1, 1190824, Control_c, 0, 64, 75
1, 1190841, Control_c, 0, 64, 79
1, 1190861, Control_c, 0, 64, 85
1, 1190881, Control_c, 0, 64, 92
1, 1190898, Control_c, 0, 64, 101
1, 1190917, Control_c, 0, 64, 117
1, 1190935, Control_c, 0, 64, 127
1, 1190946, Note_off_c, 0, 43, 60
1, 1191178, Note_off_c, 0, 58, 37
1, 1191920, Poly_aftertouch_c, 0, 63, 28
1, 1191924, Note_on_c, 0, 63, 77
1, 1191933, Poly_aftertouch_c, 0, 41, 28
1, 1191941, Note_on_c, 0, 41, 36
1, 1191946, Control_c, 0, 64, 116
1, 1191949, Poly_aftertouch_c, 0, 57, 28
1, 1191953, Note_on_c, 0, 57, 54
1, 1191963, Poly_aftertouch_c, 0, 48, 28
1, 1191964, Control_c, 0, 64, 103
1, 1191971, Note_on_c, 0, 48, 30
1, 1191984, Control_c, 0, 64, 91
1, 1192003, Control_c, 0, 64, 78
1, 1192023, Control_c, 0, 64, 65
1, 1192039, Control_c, 0, 64, 54
1, 1192059, Control_c, 0, 64, 45
1, 1192077, Control_c, 0, 64, 37
1, 1192096, Control_c, 0, 64, 31
1, 1192114, Control_c, 0, 64, 26
1, 1192134, Control_c, 0, 64, 21
1, 1192171, Control_c, 0, 64, 15
1, 1192886, Poly_aftertouch_c, 0, 62, 28
1, 1192888, Note_on_c, 0, 62, 73
1, 1192891, Poly_aftertouch_c, 0, 42, 28
1, 1192899, Note_on_c, 0, 42, 51
1, 1192926, Note_off_c, 0, 63, 64
1, 1192964, Note_off_c, 0, 41, 60
1, 1193089, Control_c, 0, 64, 23
1, 1193107, Control_c, 0, 64, 30
1, 1193126, Control_c, 0, 64, 45
1, 1193145, Control_c, 0, 64, 62
1, 1193164, Control_c, 0, 64, 74
1, 1193182, Control_c, 0, 64, 87
1, 1193200, Control_c, 0, 64, 105
1, 1193221, Control_c, 0, 64, 127
1, 1193252, Note_off_c, 0, 57, 38
1, 1193259, Note_off_c, 0, 48, 41
1, 1193341, Note_off_c, 0, 62, 57
1, 1193655, Poly_aftertouch_c, 0, 63, 28
1, 1193659, Note_on_c, 0, 63, 78
1, 1193667, Control_c, 0, 64, 114
1, 1193684, Poly_aftertouch_c, 0, 57, 28
1, 1193687, Control_c, 0, 64, 86
1, 1193690, Note_on_c, 0, 57, 56
1, 1193690, Poly_aftertouch_c, 0, 43, 28
1, 1193690, Poly_aftertouch_c, 0, 47, 28
1, 1193697, Note_on_c, 0, 47, 41
1, 1193698, Note_on_c, 0, 43, 37
1, 1193705, Control_c, 0, 64, 65
1, 1193725, Control_c, 0, 64, 43
1, 1193744, Control_c, 0, 64, 20
1, 1193780, Note_off_c, 0, 42, 37
1, 1193875, Control_c, 0, 64, 12
1, 1193894, Control_c, 0, 64, 21
1, 1193912, Control_c, 0, 64, 32
1, 1193931, Control_c, 0, 64, 52
1, 1193949, Control_c, 0, 64, 69
1, 1193968, Control_c, 0, 64, 82
1, 1193987, Control_c, 0, 64, 98
1, 1194005, Control_c, 0, 64, 127
1, 1194426, Poly_aftertouch_c, 0, 64, 28
1, 1194427, Note_on_c, 0, 64, 82
1, 1194436, Control_c, 0, 64, 97
1, 1194441, Poly_aftertouch_c, 0, 40, 28
1, 1194443, Poly_aftertouch_c, 0, 55, 28
1, 1194448, Note_on_c, 0, 40, 48
1, 1194449, Note_on_c, 0, 55, 69
1, 1194451, Note_off_c, 0, 57, 62
1, 1194455, Control_c, 0, 64, 74
1, 1194456, Note_off_c, 0, 63, 54
1, 1194474, Control_c, 0, 64, 53
1, 1194493, Control_c, 0, 64, 29
1, 1194511, Control_c, 0, 64, 10
1, 1194518, Note_off_c, 0, 43, 39
1, 1194623, Control_c, 0, 64, 23
1, 1194642, Control_c, 0, 64, 38
1, 1194660, Control_c, 0, 64, 61
1, 1194680, Control_c, 0, 64, 77
1, 1194698, Control_c, 0, 64, 96
1, 1194716, Control_c, 0, 64, 127
1, 1194732, Note_off_c, 0, 47, 37
1, 1194795, Note_off_c, 0, 55, 54
1, 1194896, Note_off_c, 0, 64, 58
1, 1195390, Control_c, 0, 64, 113
1, 1195406, Note_on_c, 0, 66, 82
1, 1195408, Poly_aftertouch_c, 0, 66, 28
1, 1195410, Control_c, 0, 64, 88
1, 1195416, Poly_aftertouch_c, 0, 47, 28
1, 1195420, Poly_aftertouch_c, 0, 35, 28
1, 1195426, Note_on_c, 0, 35, 40
1, 1195427, Note_on_c, 0, 47, 39
1, 1195429, Control_c, 0, 64, 66
1, 1195433, Note_off_c, 0, 40, 40
1, 1195435, Poly_aftertouch_c, 0, 63, 28
1, 1195441, Note_on_c, 0, 63, 54
1, 1195441, Poly_aftertouch_c, 0, 54, 28
1, 1195445, Note_on_c, 0, 54, 53
1, 1195446, Control_c, 0, 64, 41
1, 1195465, Control_c, 0, 64, 9
1, 1195485, Control_c, 0, 64, 0
1, 1195597, Control_c, 0, 64, 14
1, 1195615, Control_c, 0, 64, 31
1, 1195635, Control_c, 0, 64, 54
1, 1195652, Control_c, 0, 64, 76
1, 1195672, Control_c, 0, 64, 98
1, 1195691, Control_c, 0, 64, 127
1, 1195753, Note_off_c, 0, 47, 35
1, 1195776, Note_off_c, 0, 35, 49
1, 1195932, Note_off_c, 0, 54, 48
1, 1196062, Note_off_c, 0, 66, 49
1, 1196141, Poly_aftertouch_c, 0, 28, 28
1, 1196149, Note_on_c, 0, 28, 46
1, 1196164, Note_off_c, 0, 63, 36
1, 1196282, Note_off_c, 0, 28, 45
1, 1196340, Poly_aftertouch_c, 0, 40, 28
1, 1196344, Note_on_c, 0, 40, 46
1, 1196787, Poly_aftertouch_c, 0, 68, 28
1, 1196791, Note_on_c, 0, 68, 79
1, 1196810, Poly_aftertouch_c, 0, 64, 28
1, 1196815, Note_on_c, 0, 64, 56
1, 1196816, Poly_aftertouch_c, 0, 56, 28
1, 1196822, Note_on_c, 0, 56, 41
1, 1196832, Poly_aftertouch_c, 0, 59, 28
1, 1196832, Control_c, 0, 64, 99
1, 1196835, Note_on_c, 0, 59, 39
1, 1196843, Poly_aftertouch_c, 0, 47, 28
1, 1196849, Control_c, 0, 64, 79
1, 1196852, Note_on_c, 0, 47, 38
1, 1196869, Control_c, 0, 64, 62
1, 1196888, Control_c, 0, 64, 45
1, 1196907, Control_c, 0, 64, 26
1, 1196925, Control_c, 0, 64, 8
1, 1197094, Control_c, 0, 64, 15
1, 1197113, Control_c, 0, 64, 23
1, 1197131, Control_c, 0, 64, 31
1, 1197150, Control_c, 0, 64, 41
1, 1197170, Control_c, 0, 64, 56
1, 1197188, Control_c, 0, 64, 67
1, 1197206, Control_c, 0, 64, 72
1, 1197227, Control_c, 0, 64, 76
1, 1197244, Control_c, 0, 64, 81
1, 1197263, Control_c, 0, 64, 86
1, 1197282, Control_c, 0, 64, 93
1, 1197300, Control_c, 0, 64, 107
1, 1197318, Control_c, 0, 64, 127
1, 1197389, Note_off_c, 0, 40, 40
1, 1197740, Note_off_c, 0, 56, 34
1, 1197749, Note_off_c, 0, 47, 34
1, 1197757, Note_off_c, 0, 59, 30
1, 1197907, Note_off_c, 0, 68, 36
1, 1197992, Note_off_c, 0, 64, 34
1, 1199305, Poly_aftertouch_c, 0, 71, 28
1, 1199311, Note_on_c, 0, 71, 64
1, 1199326, Poly_aftertouch_c, 0, 51, 28
1, 1199335, Note_on_c, 0, 51, 33
1, 1199346, Poly_aftertouch_c, 0, 59, 28
1, 1199351, Note_on_c, 0, 59, 39
1, 1199351, Poly_aftertouch_c, 0, 39, 28
1, 1199354, Poly_aftertouch_c, 0, 68, 28
1, 1199361, Note_on_c, 0, 68, 48
1, 1199363, Note_on_c, 0, 39, 32
1, 1199396, Control_c, 0, 64, 116
1, 1199415, Control_c, 0, 64, 95
1, 1199434, Control_c, 0, 64, 80
1, 1199453, Control_c, 0, 64, 67
1, 1199471, Control_c, 0, 64, 57
1, 1199491, Control_c, 0, 64, 49
1, 1199509, Control_c, 0, 64, 41
1, 1199528, Control_c, 0, 64, 33
1, 1199546, Control_c, 0, 64, 25
1, 1199566, Control_c, 0, 64, 19
1, 1199584, Control_c, 0, 64, 15
1, 1199621, Control_c, 0, 64, 10
1, 1199789, Control_c, 0, 64, 14
1, 1199827, Control_c, 0, 64, 22
1, 1199846, Control_c, 0, 64, 27
1, 1199864, Control_c, 0, 64, 32
1, 1199883, Control_c, 0, 64, 37
1, 1199902, Control_c, 0, 64, 44
1, 1199921, Control_c, 0, 64, 54
1, 1199939, Control_c, 0, 64, 61
1, 1199958, Control_c, 0, 64, 63
1, 1199977, Control_c, 0, 64, 64
1, 1199995, Control_c, 0, 64, 66
1, 1200013, Control_c, 0, 64, 68
1, 1200034, Control_c, 0, 64, 71
1, 1200052, Control_c, 0, 64, 77
1, 1200070, Control_c, 0, 64, 85
1, 1200089, Control_c, 0, 64, 96
1, 1200108, Control_c, 0, 64, 112
1, 1200126, Control_c, 0, 64, 127
1, 1200373, Note_off_c, 0, 59, 33
1, 1200541, Note_off_c, 0, 68, 37
1, 1200640, Poly_aftertouch_c, 0, 46, 28
1, 1200641, Poly_aftertouch_c, 0, 46, 0
1, 1200753, Note_off_c, 0, 51, 34
1, 1200894, Control_c, 0, 67, 8
1, 1200931, Control_c, 0, 67, 12
1, 1200987, Control_c, 0, 67, 17
1, 1200990, Note_off_c, 0, 71, 52
1, 1201024, Control_c, 0, 67, 23
1, 1201044, Control_c, 0, 67, 27
1, 1201061, Control_c, 0, 67, 33
1, 1201081, Control_c, 0, 67, 38
1, 1201099, Control_c, 0, 67, 44
1, 1201119, Control_c, 0, 67, 49
1, 1201156, Control_c, 0, 67, 56
1, 1201193, Control_c, 0, 67, 62
1, 1201231, Control_c, 0, 67, 66
1, 1201381, Control_c, 0, 67, 70
1, 1201885, Control_c, 0, 67, 66
1, 1202629, Poly_aftertouch_c, 0, 76, 28
1, 1202633, Note_on_c, 0, 76, 68
1, 1202634, Control_c, 0, 64, 116
1, 1202655, Control_c, 0, 64, 89
1, 1202659, Poly_aftertouch_c, 0, 37, 28
1, 1202668, Note_on_c, 0, 37, 39
1, 1202670, Control_c, 0, 64, 67
1, 1202677, Note_off_c, 0, 39, 42
1, 1202691, Control_c, 0, 64, 45
1, 1202709, Control_c, 0, 64, 23
1, 1202729, Control_c, 0, 64, 11
1, 1202802, Control_c, 0, 64, 19
1, 1202822, Control_c, 0, 64, 33
1, 1202841, Control_c, 0, 64, 54
1, 1202859, Control_c, 0, 64, 78
1, 1202878, Control_c, 0, 64, 113
1, 1202896, Control_c, 0, 64, 127
1, 1202946, Note_off_c, 0, 37, 50
1, 1203372, Poly_aftertouch_c, 0, 69, 28
1, 1203376, Note_on_c, 0, 69, 39
1, 1203398, Poly_aftertouch_c, 0, 52, 28
1, 1203405, Note_on_c, 0, 52, 31
1, 1203513, Note_off_c, 0, 52, 0
1, 1203513, Poly_aftertouch_c, 0, 52, 28
1, 1203621, Note_off_c, 0, 76, 50
1, 1203658, Poly_aftertouch_c, 0, 57, 28
1, 1203664, Poly_aftertouch_c, 0, 52, 20
1, 1203667, Note_on_c, 0, 57, 41
1, 1203670, Poly_aftertouch_c, 0, 52, 0
1, 1203694, Poly_aftertouch_c, 0, 69, 24
1, 1203698, Poly_aftertouch_c, 0, 64, 28
1, 1203706, Note_on_c, 0, 64, 40
1, 1203754, Note_off_c, 0, 69, 34
1, 1203927, Poly_aftertouch_c, 0, 53, 28
1, 1203930, Note_on_c, 0, 53, 35
1, 1203933, Poly_aftertouch_c, 0, 49, 28
1, 1203935, Note_on_c, 0, 49, 37
1, 1204001, Control_c, 0, 64, 114
1, 1204019, Control_c, 0, 64, 80
1, 1204029, Note_off_c, 0, 64, 50
1, 1204030, Poly_aftertouch_c, 0, 75, 28
1, 1204034, Note_on_c, 0, 75, 78
1, 1204039, Control_c, 0, 64, 57
1, 1204058, Control_c, 0, 64, 36
1, 1204075, Control_c, 0, 64, 24
1, 1204133, Control_c, 0, 64, 31
1, 1204150, Control_c, 0, 64, 42
1, 1204170, Control_c, 0, 64, 59
1, 1204188, Control_c, 0, 64, 74
1, 1204207, Control_c, 0, 64, 91
1, 1204226, Control_c, 0, 64, 127
1, 1204252, Poly_aftertouch_c, 0, 53, 24
1, 1204278, Note_off_c, 0, 57, 40
1, 1204297, Note_off_c, 0, 53, 39
1, 1204318, Note_off_c, 0, 49, 55
1, 1204389, Poly_aftertouch_c, 0, 69, 28
1, 1204395, Note_on_c, 0, 69, 39
1, 1204548, Note_off_c, 0, 75, 57
1, 1204608, Poly_aftertouch_c, 0, 65, 28
1, 1204616, Note_on_c, 0, 65, 35
1, 1204625, Note_off_c, 0, 69, 44
1, 1204738, Poly_aftertouch_c, 0, 33, 28
1, 1204743, Note_on_c, 0, 33, 45
1, 1204768, Control_c, 0, 64, 118
1, 1204788, Control_c, 0, 64, 81
1, 1204807, Control_c, 0, 64, 58
1, 1204824, Control_c, 0, 64, 40
1, 1204844, Control_c, 0, 64, 34
1, 1204852, Note_off_c, 0, 65, 59
1, 1204853, Poly_aftertouch_c, 0, 73, 28
1, 1204854, Note_on_c, 0, 73, 83
1, 1204881, Control_c, 0, 64, 39
1, 1204901, Control_c, 0, 64, 51
1, 1204918, Control_c, 0, 64, 64
1, 1204937, Control_c, 0, 64, 76
1, 1204940, Note_off_c, 0, 33, 60
1, 1204957, Control_c, 0, 64, 91
1, 1204975, Control_c, 0, 64, 121
1, 1204994, Control_c, 0, 64, 127
1, 1205171, Poly_aftertouch_c, 0, 49, 28
1, 1205175, Note_on_c, 0, 49, 41
1, 1205183, Poly_aftertouch_c, 0, 69, 28
1, 1205186, Note_on_c, 0, 69, 43
1, 1205259, Note_off_c, 0, 49, 47
1, 1205339, Note_off_c, 0, 69, 59
1, 1205367, Poly_aftertouch_c, 0, 66, 28
1, 1205372, Note_on_c, 0, 66, 51
1, 1205372, Poly_aftertouch_c, 0, 54, 28
1, 1205383, Note_on_c, 0, 54, 34
1, 1205530, Poly_aftertouch_c, 0, 50, 28
1, 1205542, Note_on_c, 0, 50, 47
1, 1205550, Poly_aftertouch_c, 0, 45, 28
1, 1205556, Note_on_c, 0, 45, 39
1, 1205593, Control_c, 0, 64, 105
1, 1205597, Poly_aftertouch_c, 0, 71, 28
1, 1205599, Note_on_c, 0, 71, 80
1, 1205602, Note_off_c, 0, 66, 57
1, 1205611, Control_c, 0, 64, 78
1, 1205621, Note_off_c, 0, 73, 56
1, 1205630, Control_c, 0, 64, 55
1, 1205649, Control_c, 0, 64, 33
1, 1205668, Control_c, 0, 64, 20
1, 1205728, Note_off_c, 0, 54, 41
1, 1205742, Control_c, 0, 64, 32
1, 1205762, Control_c, 0, 64, 46
1, 1205780, Control_c, 0, 64, 65
1, 1205798, Control_c, 0, 64, 82
1, 1205817, Control_c, 0, 64, 113
1, 1205835, Control_c, 0, 64, 127
1, 1205855, Note_off_c, 0, 50, 59
1, 1205862, Poly_aftertouch_c, 0, 68, 28
1, 1205871, Note_on_c, 0, 68, 49
1, 1205883, Note_off_c, 0, 45, 59
1, 1205979, Note_off_c, 0, 71, 38
1, 1206060, Note_off_c, 0, 68, 60
1, 1206100, Poly_aftertouch_c, 0, 65, 28
1, 1206108, Note_on_c, 0, 65, 51
1, 1206431, Poly_aftertouch_c, 0, 35, 28
1, 1206437, Note_on_c, 0, 35, 41
1, 1206565, Control_c, 0, 64, 118
1, 1206584, Control_c, 0, 64, 91
1, 1206590, Note_off_c, 0, 65, 38
1, 1206595, Poly_aftertouch_c, 0, 69, 28
1, 1206599, Note_on_c, 0, 69, 68
1, 1206601, Poly_aftertouch_c, 0, 66, 28
1, 1206603, Control_c, 0, 64, 67
1, 1206604, Note_on_c, 0, 66, 71
1, 1206623, Control_c, 0, 64, 42
1, 1206640, Control_c, 0, 64, 14
1, 1206752, Control_c, 0, 64, 30
1, 1206771, Control_c, 0, 64, 53
1, 1206792, Control_c, 0, 64, 79
1, 1206806, Note_off_c, 0, 35, 54
1, 1206809, Control_c, 0, 64, 127
1, 1206872, Note_off_c, 0, 69, 54
1, 1207131, Poly_aftertouch_c, 0, 51, 28
1, 1207136, Note_on_c, 0, 51, 46
1, 1207234, Note_off_c, 0, 66, 51
1, 1207247, Poly_aftertouch_c, 0, 64, 28
1, 1207249, Note_on_c, 0, 64, 79
1, 1207413, Poly_aftertouch_c, 0, 54, 28
1, 1207421, Note_on_c, 0, 54, 42
1, 1207573, Note_off_c, 0, 64, 24
1, 1207619, Poly_aftertouch_c, 0, 47, 28
1, 1207630, Note_on_c, 0, 47, 30
1, 1207651, Poly_aftertouch_c, 0, 57, 28
1, 1207659, Note_on_c, 0, 57, 43
1, 1207693, Note_off_c, 0, 51, 34
1, 1207723, Poly_aftertouch_c, 0, 63, 28
1, 1207724, Note_on_c, 0, 63, 78
1, 1207726, Control_c, 0, 64, 97
1, 1207730, Poly_aftertouch_c, 0, 73, 28
1, 1207737, Note_on_c, 0, 73, 60
1, 1207745, Control_c, 0, 64, 68
1, 1207763, Control_c, 0, 64, 42
1, 1207782, Note_off_c, 0, 54, 37
1, 1207782, Control_c, 0, 64, 19
1, 1207802, Control_c, 0, 64, 12
1, 1207858, Control_c, 0, 64, 21
1, 1207876, Control_c, 0, 64, 34
1, 1207895, Control_c, 0, 64, 53
1, 1207913, Control_c, 0, 64, 76
1, 1207933, Control_c, 0, 64, 103
1, 1207950, Control_c, 0, 64, 127
1, 1207956, Note_off_c, 0, 57, 59
1, 1207980, Note_off_c, 0, 47, 52
1, 1208052, Note_off_c, 0, 73, 56
1, 1208089, Poly_aftertouch_c, 0, 71, 28
1, 1208096, Note_on_c, 0, 71, 62
1, 1208149, Note_off_c, 0, 71, 58
1, 1208273, Note_off_c, 0, 63, 47
1, 1208368, Poly_aftertouch_c, 0, 35, 28
1, 1208374, Note_on_c, 0, 35, 45
1, 1208475, Control_c, 0, 64, 93
1, 1208493, Control_c, 0, 64, 65
1, 1208505, Poly_aftertouch_c, 0, 61, 28
1, 1208507, Note_on_c, 0, 61, 74
1, 1208512, Control_c, 0, 64, 41
1, 1208523, Poly_aftertouch_c, 0, 64, 28
1, 1208525, Note_on_c, 0, 64, 67
1, 1208530, Control_c, 0, 64, 26
1, 1208588, Control_c, 0, 64, 39
1, 1208598, Note_off_c, 0, 35, 61
1, 1208606, Control_c, 0, 64, 56
1, 1208625, Control_c, 0, 64, 73
1, 1208644, Control_c, 0, 64, 93
1, 1208662, Control_c, 0, 64, 127
1, 1208819, Poly_aftertouch_c, 0, 49, 28
1, 1208823, Note_on_c, 0, 49, 52
1, 1208895, Note_off_c, 0, 64, 43
1, 1208914, Poly_aftertouch_c, 0, 59, 28
1, 1208915, Note_on_c, 0, 59, 79
1, 1208935, Note_off_c, 0, 61, 56
1, 1208977, Note_off_c, 0, 49, 47
1, 1208986, Note_off_c, 0, 59, 60
1, 1209049, Poly_aftertouch_c, 0, 52, 28
1, 1209054, Note_on_c, 0, 52, 47
1, 1209164, Note_off_c, 0, 52, 50
1, 1209175, Poly_aftertouch_c, 0, 47, 28
1, 1209186, Note_on_c, 0, 47, 41
1, 1209391, Poly_aftertouch_c, 0, 61, 28
1, 1209398, Note_on_c, 0, 61, 48
1, 1209398, Note_on_c, 0, 57, 79
1, 1209398, Poly_aftertouch_c, 0, 57, 28
1, 1209410, Poly_aftertouch_c, 0, 69, 28
1, 1209412, Note_on_c, 0, 69, 59
1, 1209429, Control_c, 0, 64, 94
1, 1209450, Control_c, 0, 64, 67
1, 1209467, Control_c, 0, 64, 41
1, 1209485, Control_c, 0, 64, 19
1, 1209505, Control_c, 0, 64, 13
1, 1209561, Control_c, 0, 64, 22
1, 1209579, Control_c, 0, 64, 35
1, 1209599, Control_c, 0, 64, 55
1, 1209617, Control_c, 0, 64, 76
1, 1209636, Control_c, 0, 64, 102
1, 1209638, Note_off_c, 0, 61, 59
1, 1209655, Control_c, 0, 64, 127
1, 1209767, Note_off_c, 0, 47, 49
1, 1209815, Note_off_c, 0, 69, 50
1, 1209855, Poly_aftertouch_c, 0, 68, 28
1, 1209864, Note_on_c, 0, 68, 52
1, 1209932, Note_off_c, 0, 68, 58
1, 1210331, Poly_aftertouch_c, 0, 35, 28
1, 1210333, Note_on_c, 0, 35, 44
1, 1210404, Control_c, 0, 64, 97
1, 1210421, Control_c, 0, 64, 71
1, 1210440, Control_c, 0, 64, 48
1, 1210444, Poly_aftertouch_c, 0, 56, 28
1, 1210446, Note_on_c, 0, 56, 67
1, 1210453, Note_off_c, 0, 57, 63
1, 1210459, Poly_aftertouch_c, 0, 61, 28
1, 1210459, Control_c, 0, 64, 25
1, 1210465, Note_on_c, 0, 61, 48
1, 1210478, Control_c, 0, 64, 13
1, 1210553, Control_c, 0, 64, 20
1, 1210572, Control_c, 0, 64, 32
1, 1210590, Control_c, 0, 64, 52
1, 1210610, Control_c, 0, 64, 75
1, 1210614, Note_off_c, 0, 35, 55
1, 1210627, Control_c, 0, 64, 103
1, 1210646, Control_c, 0, 64, 127
1, 1210924, Poly_aftertouch_c, 0, 45, 28
1, 1210933, Note_on_c, 0, 45, 40
1, 1211081, Poly_aftertouch_c, 0, 54, 28
1, 1211087, Note_off_c, 0, 56, 60
1, 1211089, Note_on_c, 0, 54, 73
1, 1211095, Control_c, 0, 64, 88
1, 1211114, Control_c, 0, 64, 64
1, 1211133, Control_c, 0, 64, 46
1, 1211153, Control_c, 0, 64, 42
1, 1211170, Control_c, 0, 64, 44
1, 1211189, Control_c, 0, 64, 53
1, 1211210, Control_c, 0, 64, 64
1, 1211226, Control_c, 0, 64, 75
1, 1211246, Control_c, 0, 64, 92
1, 1211266, Control_c, 0, 64, 127
1, 1211331, Poly_aftertouch_c, 0, 49, 28
1, 1211338, Note_on_c, 0, 49, 38
1, 1211353, Note_off_c, 0, 45, 35
1, 1211378, Note_off_c, 0, 61, 56
1, 1211468, Note_off_c, 0, 49, 54
1, 1212238, Poly_aftertouch_c, 0, 68, 28
1, 1212245, Note_on_c, 0, 68, 62
1, 1212248, Note_off_c, 0, 54, 56
1, 1212262, Poly_aftertouch_c, 0, 52, 28
1, 1212264, Note_on_c, 0, 52, 60
1, 1212295, Poly_aftertouch_c, 0, 47, 28
1, 1212303, Note_on_c, 0, 47, 47
1, 1212349, Control_c, 0, 64, 102
1, 1212368, Control_c, 0, 64, 84
1, 1212387, Control_c, 0, 64, 69
1, 1212406, Control_c, 0, 64, 54
1, 1212425, Control_c, 0, 64, 41
1, 1212444, Control_c, 0, 64, 31
1, 1212462, Control_c, 0, 64, 22
1, 1212482, Control_c, 0, 64, 16
1, 1212499, Control_c, 0, 64, 11
1, 1213287, Poly_aftertouch_c, 0, 57, 28
1, 1213295, Note_on_c, 0, 57, 36
1, 1213961, Poly_aftertouch_c, 0, 61, 28
1, 1213970, Note_on_c, 0, 61, 38
1, 1214259, Control_c, 0, 64, 16
1, 1214297, Control_c, 0, 64, 20
1, 1214334, Control_c, 0, 64, 25
1, 1214371, Control_c, 0, 64, 32
1, 1214390, Control_c, 0, 64, 39
1, 1214411, Control_c, 0, 64, 50
1, 1214428, Control_c, 0, 64, 61
1, 1214446, Control_c, 0, 64, 65
1, 1214465, Control_c, 0, 64, 67
1, 1214502, Control_c, 0, 64, 70
1, 1214522, Control_c, 0, 64, 73
1, 1214540, Control_c, 0, 64, 77
1, 1214560, Control_c, 0, 64, 84
1, 1214577, Control_c, 0, 64, 92
1, 1214596, Control_c, 0, 64, 101
1, 1214614, Control_c, 0, 64, 111
1, 1214634, Control_c, 0, 64, 127
1, 1215824, Poly_aftertouch_c, 0, 51, 28
1, 1215824, Poly_aftertouch_c, 0, 59, 28
1, 1215828, Note_on_c, 0, 59, 34
1, 1215832, Note_on_c, 0, 51, 42
1, 1215870, Control_c, 0, 64, 119
1, 1215888, Control_c, 0, 64, 110
1, 1215906, Control_c, 0, 64, 102
1, 1215907, Note_off_c, 0, 61, 33
1, 1215924, Control_c, 0, 64, 95
1, 1215944, Control_c, 0, 64, 87
1, 1215962, Control_c, 0, 64, 78
1, 1215981, Control_c, 0, 64, 71
1, 1215987, Note_off_c, 0, 52, 32
1, 1216001, Control_c, 0, 64, 64
1, 1216018, Control_c, 0, 64, 59
1, 1216038, Control_c, 0, 64, 53
1, 1216055, Control_c, 0, 64, 48
1, 1216075, Control_c, 0, 64, 43
1, 1216093, Control_c, 0, 64, 37
1, 1216112, Control_c, 0, 64, 32
1, 1216130, Control_c, 0, 64, 27
1, 1216150, Control_c, 0, 64, 23
1, 1216187, Control_c, 0, 64, 18
1, 1216467, Control_c, 0, 64, 24
1, 1216506, Control_c, 0, 64, 32
1, 1216543, Control_c, 0, 64, 40
1, 1216562, Control_c, 0, 64, 47
1, 1216580, Control_c, 0, 64, 56
1, 1216599, Control_c, 0, 64, 62
1, 1216618, Control_c, 0, 64, 64
1, 1216637, Control_c, 0, 64, 66
1, 1216654, Control_c, 0, 64, 68
1, 1216674, Control_c, 0, 64, 71
1, 1216692, Control_c, 0, 64, 76
1, 1216711, Control_c, 0, 64, 84
1, 1216730, Control_c, 0, 64, 96
1, 1216748, Control_c, 0, 64, 115
1, 1216768, Control_c, 0, 64, 127
1, 1217307, Poly_aftertouch_c, 0, 57, 24
1, 1217367, Poly_aftertouch_c, 0, 66, 28
1, 1217373, Note_on_c, 0, 66, 45
1, 1217387, Note_off_c, 0, 68, 42
1, 1217407, Note_off_c, 0, 57, 24
1, 1217628, Poly_aftertouch_c, 0, 47, 24
1, 1217646, Note_off_c, 0, 51, 34
1, 1217686, Note_off_c, 0, 47, 38
1, 1218696, Control_c, 0, 67, 70
1, 1218919, Control_c, 0, 67, 77
1, 1218939, Control_c, 0, 67, 82
1, 1218957, Control_c, 0, 67, 88
1, 1218977, Control_c, 0, 67, 93
1, 1218995, Control_c, 0, 67, 101
1, 1219014, Control_c, 0, 67, 107
1, 1219032, Control_c, 0, 67, 111
1, 1219069, Control_c, 0, 67, 118
1, 1219107, Control_c, 0, 67, 124
1, 1220124, Poly_aftertouch_c, 0, 57, 28
1, 1220131, Note_on_c, 0, 57, 44
1, 1220146, Poly_aftertouch_c, 0, 28, 28
1, 1220155, Note_on_c, 0, 28, 39
1, 1220175, Control_c, 0, 64, 112
1, 1220192, Control_c, 0, 64, 92
1, 1220212, Control_c, 0, 64, 72
1, 1220231, Control_c, 0, 64, 55
1, 1220249, Control_c, 0, 64, 42
1, 1220269, Control_c, 0, 64, 36
1, 1220342, Control_c, 0, 64, 43
1, 1220362, Control_c, 0, 64, 54
1, 1220380, Control_c, 0, 64, 66
1, 1220399, Control_c, 0, 64, 77
1, 1220417, Control_c, 0, 64, 93
1, 1220436, Control_c, 0, 64, 127
1, 1220444, Poly_aftertouch_c, 0, 28, 22
1, 1220469, Note_off_c, 0, 28, 35
1, 1220924, Poly_aftertouch_c, 0, 66, 24
1, 1221178, Poly_aftertouch_c, 0, 66, 22
1, 1221274, Note_off_c, 0, 66, 19
1, 1221802, Poly_aftertouch_c, 0, 40, 28
1, 1221811, Note_on_c, 0, 40, 32
1, 1222356, Poly_aftertouch_c, 0, 59, 24
1, 1222499, Note_off_c, 0, 57, 27
1, 1222548, Note_off_c, 0, 59, 19
1, 1222917, Poly_aftertouch_c, 0, 47, 28
1, 1222929, Note_on_c, 0, 47, 34
1, 1223711, Poly_aftertouch_c, 0, 52, 28
1, 1223716, Note_on_c, 0, 52, 29
1, 1224922, Poly_aftertouch_c, 0, 56, 28
1, 1224931, Note_on_c, 0, 56, 33
1, 1225041, Control_c, 0, 64, 102
1, 1225060, Control_c, 0, 64, 81
1, 1225078, Control_c, 0, 64, 64
1, 1225097, Control_c, 0, 64, 52
1, 1225116, Control_c, 0, 64, 47
1, 1225172, Control_c, 0, 64, 49
1, 1225191, Control_c, 0, 64, 55
1, 1225209, Control_c, 0, 64, 62
1, 1225228, Control_c, 0, 64, 69
1, 1225248, Control_c, 0, 64, 78
1, 1225266, Control_c, 0, 64, 92
1, 1225284, Control_c, 0, 64, 122
1, 1225302, Control_c, 0, 64, 127
1, 1225838, Poly_aftertouch_c, 0, 56, 24
1, 1225910, Note_off_c, 0, 56, 28
1, 1225937, Note_off_c, 0, 52, 36
1, 1226254, Poly_aftertouch_c, 0, 59, 28
1, 1226259, Note_on_c, 0, 59, 28
1, 1226544, Note_off_c, 0, 59, 40
1, 1227046, Poly_aftertouch_c, 0, 64, 28
1, 1227052, Note_on_c, 0, 64, 33
1, 1227077, Poly_aftertouch_c, 0, 52, 28
1, 1227082, Note_on_c, 0, 52, 27
1, 1227253, Note_off_c, 0, 52, 34
1, 1227285, Note_off_c, 0, 64, 52
1, 1227744, Poly_aftertouch_c, 0, 68, 28
1, 1227756, Note_on_c, 0, 68, 38
1, 1227899, Poly_aftertouch_c, 0, 47, 24
1, 1227963, Note_off_c, 0, 47, 36
1, 1228025, Note_off_c, 0, 68, 37
1, 1228156, Poly_aftertouch_c, 0, 40, 24
1, 1228220, Note_off_c, 0, 40, 35
1, 1228517, Poly_aftertouch_c, 0, 71, 28
1, 1228525, Note_on_c, 0, 71, 39
1, 1228797, Note_off_c, 0, 71, 36
1, 1229415, Poly_aftertouch_c, 0, 76, 28
1, 1229420, Note_on_c, 0, 76, 38
1, 1229897, Poly_aftertouch_c, 0, 76, 24
1, 1229952, Note_off_c, 0, 76, 27
1, 1230506, Poly_aftertouch_c, 0, 80, 28
1, 1230517, Note_on_c, 0, 80, 47
1, 1230530, Poly_aftertouch_c, 0, 28, 28
1, 1230541, Note_on_c, 0, 28, 28
1, 1230721, Note_off_c, 0, 80, 54
1, 1230723, Note_off_c, 0, 28, 34
1, 1231769, Poly_aftertouch_c, 0, 83, 28
1, 1231776, Note_on_c, 0, 83, 42
1, 1232009, Note_off_c, 0, 83, 36
1, 1232077, Poly_aftertouch_c, 0, 40, 28
1, 1232085, Note_on_c, 0, 40, 28
1, 1232251, Note_off_c, 0, 40, 26
1, 1232382, Poly_aftertouch_c, 0, 47, 28
1, 1232394, Note_on_c, 0, 47, 29
1, 1232573, Poly_aftertouch_c, 0, 56, 28
1, 1232583, Note_on_c, 0, 56, 37
1, 1232651, Poly_aftertouch_c, 0, 47, 24
1, 1232681, Note_off_c, 0, 47, 36
1, 1232729, Poly_aftertouch_c, 0, 71, 28
1, 1232737, Note_on_c, 0, 71, 37
1, 1232749, Note_off_c, 0, 56, 36
1, 1232874, Poly_aftertouch_c, 0, 76, 28
1, 1232881, Note_on_c, 0, 76, 35
1, 1232894, Note_off_c, 0, 71, 36
1, 1233037, Poly_aftertouch_c, 0, 80, 28
1, 1233041, Note_off_c, 0, 76, 41
1, 1233053, Note_on_c, 0, 80, 39
1, 1233281, Poly_aftertouch_c, 0, 83, 28
1, 1233287, Note_on_c, 0, 83, 36
1, 1233295, Note_off_c, 0, 80, 47
1, 1234095, Poly_aftertouch_c, 0, 83, 24
1, 1234166, Note_off_c, 0, 83, 34
1, 1234189, Poly_aftertouch_c, 0, 88, 28
1, 1234197, Note_on_c, 0, 88, 46
1, 1235884, Poly_aftertouch_c, 0, 88, 24
1, 1236118, Note_off_c, 0, 88, 19
1, 1238724, Control_c, 0, 67, 120
1, 1238781, Control_c, 0, 67, 115
1, 1238817, Control_c, 0, 67, 109
1, 1238854, Control_c, 0, 67, 105
1, 1238911, Control_c, 0, 67, 100
1, 1238968, Control_c, 0, 67, 95
1, 1239024, Control_c, 0, 67, 90
1, 1239062, Control_c, 0, 67, 86
1, 1239099, Control_c, 0, 67, 82
1, 1239136, Control_c, 0, 67, 78
1, 1239174, Control_c, 0, 67, 71
1, 1239211, Control_c, 0, 67, 64
1, 1239248, Control_c, 0, 67, 57
1, 1239286, Control_c, 0, 67, 51
1, 1239322, Control_c, 0, 67, 47
1, 1239847, Control_c, 0, 64, 103
1, 1239866, Control_c, 0, 64, 80
1, 1239885, Control_c, 0, 64, 64
1, 1239903, Control_c, 0, 64, 54
1, 1239922, Control_c, 0, 64, 49
1, 1239940, Control_c, 0, 64, 46
1, 1239960, Control_c, 0, 64, 43
1, 1239978, Control_c, 0, 64, 38
1, 1239997, Control_c, 0, 64, 32
1, 1240015, Control_c, 0, 64, 24
1, 1240035, Control_c, 0, 64, 18
1, 1240072, Control_c, 0, 64, 13
1, 1240110, Control_c, 0, 64, 9
1, 1240259, Control_c, 0, 64, 0
1, 1240634, Control_c, 0, 67, 43
1, 1240671, Control_c, 0, 67, 34
1, 1240689, Control_c, 0, 67, 29
1, 1240709, Control_c, 0, 67, 23
1, 1240726, Control_c, 0, 67, 19
1, 1240764, Control_c, 0, 67, 13
1, 1240896, Control_c, 0, 67, 0
1, 1241635, Poly_aftertouch_c, 0, 77, 28
1, 1241637, Note_on_c, 0, 77, 91
1, 1241639, Poly_aftertouch_c, 0, 38, 28
1, 1241642, Note_on_c, 0, 38, 91
1, 1241643, Control_c, 0, 64, 10
1, 1241662, Control_c, 0, 64, 30
1, 1241682, Note_off_c, 0, 38, 65
1, 1241682, Control_c, 0, 64, 61
1, 1241700, Control_c, 0, 64, 91
1, 1241719, Control_c, 0, 64, 127
1, 1241757, Poly_aftertouch_c, 0, 74, 28
1, 1241759, Note_on_c, 0, 74, 76
1, 1241798, Note_off_c, 0, 77, 59
1, 1241866, Poly_aftertouch_c, 0, 71, 28
1, 1241871, Note_on_c, 0, 71, 62
1, 1241906, Note_off_c, 0, 74, 54
1, 1241949, Note_off_c, 0, 71, 62
1, 1241949, Poly_aftertouch_c, 0, 68, 28
1, 1241954, Note_on_c, 0, 68, 74
1, 1242026, Note_off_c, 0, 68, 55
1, 1242037, Control_c, 0, 64, 99
1, 1242050, Poly_aftertouch_c, 0, 49, 28
1, 1242053, Note_on_c, 0, 49, 80
1, 1242055, Poly_aftertouch_c, 0, 76, 28
1, 1242056, Note_on_c, 0, 76, 87
1, 1242056, Control_c, 0, 64, 66
1, 1242060, Note_on_c, 0, 67, 82
1, 1242061, Poly_aftertouch_c, 0, 67, 28
1, 1242062, Poly_aftertouch_c, 0, 70, 28
1, 1242064, Note_on_c, 0, 70, 82
1, 1242075, Control_c, 0, 64, 35
1, 1242093, Control_c, 0, 64, 9
1, 1242100, Note_off_c, 0, 67, 65
1, 1242105, Note_off_c, 0, 70, 62
1, 1242113, Poly_aftertouch_c, 0, 52, 28
1, 1242114, Note_off_c, 0, 76, 61
1, 1242118, Note_on_c, 0, 52, 55
1, 1242159, Note_off_c, 0, 49, 60
1, 1242187, Control_c, 0, 64, 0
1, 1242224, Poly_aftertouch_c, 0, 55, 28
1, 1242231, Note_on_c, 0, 55, 67
1, 1242234, Note_off_c, 0, 52, 61
1, 1242322, Note_off_c, 0, 55, 55
1, 1242335, Poly_aftertouch_c, 0, 58, 28
1, 1242342, Note_on_c, 0, 58, 65
1, 1242378, Note_off_c, 0, 58, 66
1, 1242394, Poly_aftertouch_c, 0, 50, 28
1, 1242400, Poly_aftertouch_c, 0, 53, 28
1, 1242401, Poly_aftertouch_c, 0, 59, 28
1, 1242406, Note_on_c, 0, 53, 68
1, 1242407, Note_on_c, 0, 59, 73
1, 1242408, Poly_aftertouch_c, 0, 56, 28
1, 1242411, Note_on_c, 0, 56, 76
1, 1242414, Note_on_c, 0, 50, 44
1, 1242419, Poly_aftertouch_c, 0, 74, 28
1, 1242421, Note_on_c, 0, 74, 92
1, 1242448, Note_off_c, 0, 59, 65
1, 1242452, Note_off_c, 0, 53, 63
1, 1242462, Note_off_c, 0, 56, 63
1, 1242465, Note_off_c, 0, 50, 65
1, 1242487, Control_c, 0, 64, 13
1, 1242495, Poly_aftertouch_c, 0, 71, 28
1, 1242497, Note_on_c, 0, 71, 74
1, 1242504, Control_c, 0, 64, 36
1, 1242516, Note_off_c, 0, 74, 61
1, 1242524, Control_c, 0, 64, 67
1, 1242543, Control_c, 0, 64, 96
1, 1242561, Control_c, 0, 64, 127
1, 1242588, Poly_aftertouch_c, 0, 68, 28
1, 1242596, Note_on_c, 0, 68, 68
1, 1242597, Note_off_c, 0, 71, 61
1, 1242641, Note_off_c, 0, 68, 59
1, 1242673, Poly_aftertouch_c, 0, 65, 28
1, 1242677, Note_on_c, 0, 65, 75
1, 1242716, Note_off_c, 0, 65, 61
1, 1242730, Control_c, 0, 64, 91
1, 1242749, Control_c, 0, 64, 64
1, 1242768, Control_c, 0, 64, 37
1, 1242776, Poly_aftertouch_c, 0, 45, 28
1, 1242777, Poly_aftertouch_c, 0, 61, 28
1, 1242777, Poly_aftertouch_c, 0, 64, 28
1, 1242778, Note_on_c, 0, 64, 80
1, 1242779, Note_on_c, 0, 45, 78
1, 1242781, Note_on_c, 0, 69, 80
1, 1242781, Note_on_c, 0, 61, 81
1, 1242783, Poly_aftertouch_c, 0, 69, 28
1, 1242786, Control_c, 0, 64, 11
1, 1242822, Note_off_c, 0, 64, 63
1, 1242822, Note_off_c, 0, 61, 65
1, 1242851, Note_off_c, 0, 69, 60
1, 1242859, Note_off_c, 0, 45, 62
1, 1242864, Poly_aftertouch_c, 0, 49, 28
1, 1242868, Note_on_c, 0, 49, 71
1, 1242958, Note_off_c, 0, 49, 63
1, 1242962, Poly_aftertouch_c, 0, 52, 28
1, 1242967, Note_on_c, 0, 52, 66
1, 1243031, Note_off_c, 0, 52, 59
1, 1243036, Poly_aftertouch_c, 0, 57, 28
1, 1243040, Note_on_c, 0, 57, 70
1, 1243066, Control_c, 0, 64, 0
1, 1243076, Note_off_c, 0, 57, 67
1, 1243136, Poly_aftertouch_c, 0, 77, 28
1, 1243139, Note_on_c, 0, 50, 81
1, 1243139, Note_on_c, 0, 77, 87
1, 1243140, Note_on_c, 0, 56, 80
1, 1243142, Poly_aftertouch_c, 0, 50, 28
1, 1243143, Poly_aftertouch_c, 0, 56, 28
1, 1243143, Poly_aftertouch_c, 0, 59, 28
1, 1243145, Note_on_c, 0, 59, 78
1, 1243161, Control_c, 0, 64, 15
1, 1243178, Note_off_c, 0, 50, 67
1, 1243179, Note_off_c, 0, 59, 62
1, 1243179, Control_c, 0, 64, 36
1, 1243182, Note_off_c, 0, 56, 63
1, 1243198, Control_c, 0, 64, 66
1, 1243207, Poly_aftertouch_c, 0, 74, 28
1, 1243213, Note_on_c, 0, 74, 68
1, 1243215, Control_c, 0, 64, 94
1, 1243235, Control_c, 0, 64, 127
1, 1243252, Note_off_c, 0, 77, 58
1, 1243304, Poly_aftertouch_c, 0, 71, 28
1, 1243308, Note_on_c, 0, 71, 67
1, 1243326, Note_off_c, 0, 74, 60
1, 1243363, Note_off_c, 0, 71, 56
1, 1243393, Poly_aftertouch_c, 0, 68, 28
1, 1243400, Note_on_c, 0, 68, 74
1, 1243441, Control_c, 0, 64, 93
1, 1243452, Note_off_c, 0, 68, 54
1, 1243459, Control_c, 0, 64, 61
1, 1243479, Control_c, 0, 64, 24
1, 1243485, Poly_aftertouch_c, 0, 76, 28
1, 1243489, Note_on_c, 0, 76, 84
1, 1243491, Poly_aftertouch_c, 0, 67, 28
1, 1243491, Poly_aftertouch_c, 0, 70, 28
1, 1243494, Note_on_c, 0, 70, 87
1, 1243495, Note_on_c, 0, 67, 81
1, 1243498, Poly_aftertouch_c, 0, 49, 28
1, 1243498, Control_c, 0, 64, 0
1, 1243499, Note_on_c, 0, 49, 81
1, 1243526, Note_off_c, 0, 67, 64
1, 1243531, Note_off_c, 0, 76, 61
1, 1243538, Note_off_c, 0, 70, 62
1, 1243577, Poly_aftertouch_c, 0, 52, 28
1, 1243581, Note_off_c, 0, 49, 62
1, 1243581, Note_on_c, 0, 52, 61
1, 1243657, Poly_aftertouch_c, 0, 55, 28
1, 1243662, Note_on_c, 0, 55, 75
1, 1243666, Note_off_c, 0, 52, 59
1, 1243750, Poly_aftertouch_c, 0, 58, 28
1, 1243754, Note_off_c, 0, 55, 61
1, 1243757, Note_on_c, 0, 58, 72
1, 1243798, Note_off_c, 0, 58, 68
1, 1243822, Poly_aftertouch_c, 0, 53, 28
1, 1243822, Poly_aftertouch_c, 0, 56, 28
1, 1243826, Note_on_c, 0, 53, 78
1, 1243828, Note_on_c, 0, 59, 73
1, 1243828, Note_on_c, 0, 56, 81
1, 1243830, Poly_aftertouch_c, 0, 50, 28
1, 1243831, Poly_aftertouch_c, 0, 59, 28
1, 1243836, Note_on_c, 0, 50, 75
1, 1243840, Poly_aftertouch_c, 0, 74, 28
1, 1243842, Note_on_c, 0, 74, 93
1, 1243853, Control_c, 0, 64, 11
1, 1243861, Note_off_c, 0, 59, 68
1, 1243869, Note_off_c, 0, 53, 63
1, 1243871, Control_c, 0, 64, 40
1, 1243884, Note_off_c, 0, 56, 63
1, 1243890, Control_c, 0, 64, 68
1, 1243903, Note_off_c, 0, 50, 60
1, 1243909, Control_c, 0, 64, 96
1, 1243913, Poly_aftertouch_c, 0, 71, 28
1, 1243918, Note_on_c, 0, 71, 69
1, 1243927, Note_off_c, 0, 74, 60
1, 1243928, Control_c, 0, 64, 127
1, 1243962, Note_on_c, 0, 69, 38
1, 1243963, Note_off_c, 0, 69, 127
1, 1244004, Poly_aftertouch_c, 0, 68, 28
1, 1244004, Poly_aftertouch_c, 0, 69, 28
1, 1244006, Note_off_c, 0, 71, 62
1, 1244006, Poly_aftertouch_c, 0, 69, 0
1, 1244008, Note_on_c, 0, 68, 71
1, 1244069, Note_off_c, 0, 68, 61
1, 1244077, Poly_aftertouch_c, 0, 65, 28
1, 1244085, Note_on_c, 0, 65, 73
1, 1244122, Note_off_c, 0, 65, 63
1, 1244134, Control_c, 0, 64, 111
1, 1244153, Control_c, 0, 64, 74
1, 1244171, Control_c, 0, 64, 40
1, 1244186, Poly_aftertouch_c, 0, 69, 28
1, 1244190, Note_on_c, 0, 69, 79
1, 1244190, Control_c, 0, 64, 0
1, 1244191, Note_on_c, 0, 45, 80
1, 1244194, Note_on_c, 0, 64, 74
1, 1244194, Note_on_c, 0, 61, 82
1, 1244194, Poly_aftertouch_c, 0, 45, 28
1, 1244195, Poly_aftertouch_c, 0, 61, 28
1, 1244196, Poly_aftertouch_c, 0, 64, 28
1, 1244236, Note_off_c, 0, 61, 64
1, 1244241, Note_off_c, 0, 64, 62
1, 1244264, Note_off_c, 0, 69, 60
1, 1244268, Poly_aftertouch_c, 0, 49, 28
1, 1244273, Note_on_c, 0, 49, 76
1, 1244278, Note_off_c, 0, 45, 62
1, 1244302, Control_c, 0, 64, 15
1, 1244321, Control_c, 0, 64, 37
1, 1244339, Control_c, 0, 64, 67
1, 1244361, Control_c, 0, 64, 95
1, 1244362, Note_off_c, 0, 49, 63
1, 1244362, Poly_aftertouch_c, 0, 52, 28
1, 1244365, Note_on_c, 0, 52, 75
1, 1244378, Control_c, 0, 64, 127
1, 1244414, Poly_aftertouch_c, 0, 57, 28
1, 1244419, Note_on_c, 0, 57, 75
1, 1244420, Note_off_c, 0, 52, 58
1, 1244450, Note_off_c, 0, 57, 68
1, 1244527, Control_c, 0, 64, 87
1, 1244546, Control_c, 0, 64, 50
1, 1244564, Control_c, 0, 64, 0
1, 1244572, Poly_aftertouch_c, 0, 54, 28
1, 1244573, Poly_aftertouch_c, 0, 63, 28
1, 1244575, Note_on_c, 0, 63, 95
1, 1244577, Poly_aftertouch_c, 0, 81, 28
1, 1244579, Note_on_c, 0, 54, 94
1, 1244580, Note_on_c, 0, 81, 98
1, 1244584, Poly_aftertouch_c, 0, 60, 28
1, 1244586, Note_on_c, 0, 60, 83
1, 1244609, Note_off_c, 0, 63, 68
1, 1244613, Note_off_c, 0, 60, 71
1, 1244635, Note_off_c, 0, 54, 64
1, 1244638, Control_c, 0, 64, 11
1, 1244658, Control_c, 0, 64, 39
1, 1244661, Poly_aftertouch_c, 0, 75, 28
1, 1244663, Note_on_c, 0, 75, 79
1, 1244677, Control_c, 0, 64, 73
1, 1244688, Note_off_c, 0, 81, 57
1, 1244694, Control_c, 0, 64, 127
1, 1244744, Poly_aftertouch_c, 0, 72, 28
1, 1244747, Note_on_c, 0, 72, 78
1, 1244797, Note_off_c, 0, 75, 61
1, 1244828, Poly_aftertouch_c, 0, 69, 28
1, 1244831, Note_on_c, 0, 69, 80
1, 1244849, Note_off_c, 0, 72, 59
1, 1244864, Control_c, 0, 64, 111
1, 1244876, Note_off_c, 0, 69, 58
1, 1244881, Control_c, 0, 64, 67
1, 1244901, Control_c, 0, 64, 22
1, 1244920, Poly_aftertouch_c, 0, 43, 28
1, 1244920, Control_c, 0, 64, 0
1, 1244928, Note_on_c, 0, 74, 89
1, 1244929, Note_on_c, 0, 67, 89
1, 1244930, Poly_aftertouch_c, 0, 67, 28
1, 1244931, Poly_aftertouch_c, 0, 71, 28
1, 1244931, Poly_aftertouch_c, 0, 74, 28
1, 1244933, Note_on_c, 0, 71, 88
1, 1244936, Note_on_c, 0, 43, 53
1, 1244984, Note_off_c, 0, 67, 58
1, 1244993, Note_off_c, 0, 71, 58
1, 1244995, Control_c, 0, 64, 18
1, 1245005, Poly_aftertouch_c, 0, 47, 28
1, 1245010, Note_off_c, 0, 43, 64
1, 1245010, Note_on_c, 0, 47, 75
1, 1245012, Control_c, 0, 64, 45
1, 1245016, Note_off_c, 0, 74, 59
1, 1245032, Control_c, 0, 64, 73
1, 1245052, Control_c, 0, 64, 103
1, 1245070, Control_c, 0, 64, 127
1, 1245083, Poly_aftertouch_c, 0, 50, 28
1, 1245089, Note_on_c, 0, 50, 80
1, 1245105, Note_off_c, 0, 47, 62
1, 1245146, Note_off_c, 0, 50, 60
1, 1245151, Poly_aftertouch_c, 0, 55, 28
1, 1245156, Note_on_c, 0, 55, 80
1, 1245205, Note_off_c, 0, 55, 59
1, 1245257, Control_c, 0, 64, 114
1, 1245276, Control_c, 0, 64, 67
1, 1245294, Control_c, 0, 64, 20
1, 1245303, Poly_aftertouch_c, 0, 79, 28
1, 1245307, Poly_aftertouch_c, 0, 61, 28
1, 1245308, Note_on_c, 0, 79, 99
1, 1245312, Note_on_c, 0, 61, 98
1, 1245312, Control_c, 0, 64, 0
1, 1245315, Note_on_c, 0, 58, 89
1, 1245317, Poly_aftertouch_c, 0, 52, 28
1, 1245317, Poly_aftertouch_c, 0, 58, 28
1, 1245318, Note_on_c, 0, 52, 86
1, 1245336, Note_off_c, 0, 61, 67
1, 1245344, Note_off_c, 0, 58, 72
1, 1245356, Note_off_c, 0, 52, 60
1, 1245369, Control_c, 0, 64, 19
1, 1245388, Control_c, 0, 64, 52
1, 1245391, Poly_aftertouch_c, 0, 73, 28
1, 1245396, Note_on_c, 0, 73, 82
1, 1245406, Control_c, 0, 64, 89
1, 1245420, Note_off_c, 0, 79, 57
1, 1245425, Control_c, 0, 64, 127
1, 1245469, Poly_aftertouch_c, 0, 70, 28
1, 1245472, Note_on_c, 0, 70, 84
1, 1245532, Note_off_c, 0, 73, 58
1, 1245548, Poly_aftertouch_c, 0, 67, 28
1, 1245551, Note_on_c, 0, 67, 78
1, 1245588, Note_off_c, 0, 70, 61
1, 1245607, Note_off_c, 0, 67, 57
1, 1245633, Control_c, 0, 64, 82
1, 1245641, Poly_aftertouch_c, 0, 72, 28
1, 1245645, Poly_aftertouch_c, 0, 41, 28
1, 1245647, Note_on_c, 0, 72, 92
1, 1245648, Note_on_c, 0, 41, 92
1, 1245650, Note_on_c, 0, 69, 91
1, 1245650, Control_c, 0, 64, 41
1, 1245651, Note_on_c, 0, 65, 89
1, 1245652, Poly_aftertouch_c, 0, 65, 28
1, 1245653, Poly_aftertouch_c, 0, 69, 28
1, 1245668, Control_c, 0, 64, 0
1, 1245725, Control_c, 0, 64, 10
1, 1245743, Poly_aftertouch_c, 0, 45, 28
1, 1245744, Control_c, 0, 64, 40
1, 1245747, Note_on_c, 0, 45, 78
1, 1245748, Note_off_c, 0, 41, 63
1, 1245763, Control_c, 0, 64, 77
1, 1245777, Note_off_c, 0, 65, 49
1, 1245780, Control_c, 0, 64, 127
1, 1245822, Poly_aftertouch_c, 0, 48, 28
1, 1245826, Note_on_c, 0, 48, 82
1, 1245844, Note_off_c, 0, 45, 62
1, 1245850, Note_off_c, 0, 69, 51
1, 1245888, Note_off_c, 0, 48, 61
1, 1245901, Poly_aftertouch_c, 0, 53, 28
1, 1245902, Note_on_c, 0, 53, 81
1, 1245947, Note_off_c, 0, 53, 59
1, 1246080, Control_c, 0, 64, 75
1, 1246100, Control_c, 0, 64, 36
1, 1246106, Note_off_c, 0, 72, 59
1, 1246114, Poly_aftertouch_c, 0, 77, 28
1, 1246116, Note_on_c, 0, 77, 99
1, 1246117, Poly_aftertouch_c, 0, 38, 28
1, 1246117, Control_c, 0, 64, 0
1, 1246122, Note_on_c, 0, 38, 105
1, 1246211, Control_c, 0, 64, 15
1, 1246230, Control_c, 0, 64, 33
1, 1246243, Note_off_c, 0, 38, 62
1, 1246248, Control_c, 0, 64, 58
1, 1246268, Control_c, 0, 64, 77
1, 1246286, Control_c, 0, 64, 98
1, 1246305, Control_c, 0, 64, 127
1, 1246306, Note_off_c, 0, 77, 59
1, 1246306, Poly_aftertouch_c, 0, 72, 28
1, 1246311, Note_on_c, 0, 72, 76
1, 1246398, Note_off_c, 0, 72, 56
1, 1246402, Note_on_c, 0, 69, 80
1, 1246403, Poly_aftertouch_c, 0, 69, 28
1, 1246472, Note_off_c, 0, 69, 59
1, 1246490, Poly_aftertouch_c, 0, 65, 28
1, 1246494, Note_on_c, 0, 65, 73
1, 1246502, Poly_aftertouch_c, 0, 50, 28
1, 1246508, Note_on_c, 0, 50, 89
1, 1246549, Note_off_c, 0, 65, 55
1, 1246597, Poly_aftertouch_c, 0, 53, 28
1, 1246604, Note_on_c, 0, 53, 72
1, 1246606, Note_off_c, 0, 50, 64
1, 1246679, Poly_aftertouch_c, 0, 57, 28
1, 1246682, Note_on_c, 0, 57, 75
1, 1246685, Note_off_c, 0, 53, 60
1, 1246724, Note_off_c, 0, 57, 67
1, 1246746, Poly_aftertouch_c, 0, 60, 28
1, 1246751, Note_on_c, 0, 60, 79
1, 1246809, Note_off_c, 0, 60, 61
1, 1246809, Poly_aftertouch_c, 0, 71, 28
1, 1246809, Control_c, 0, 64, 104
1, 1246813, Note_on_c, 0, 71, 80
1, 1246828, Poly_aftertouch_c, 0, 59, 28
1, 1246828, Control_c, 0, 64, 67
1, 1246831, Note_on_c, 0, 59, 80
1, 1246848, Control_c, 0, 64, 30
1, 1246867, Control_c, 0, 64, 0
1, 1246873, Note_off_c, 0, 59, 55
1, 1246875, Note_off_c, 0, 71, 60
1, 1246897, Poly_aftertouch_c, 0, 48, 28
1, 1246898, Note_on_c, 0, 76, 86
1, 1246899, Poly_aftertouch_c, 0, 76, 28
1, 1246901, Note_on_c, 0, 48, 83
1, 1246922, Control_c, 0, 64, 9
1, 1246941, Control_c, 0, 64, 30
1, 1246960, Control_c, 0, 64, 61
1, 1246971, Poly_aftertouch_c, 0, 71, 28
1, 1246976, Note_on_c, 0, 71, 81
1, 1246978, Note_off_c, 0, 76, 65
1, 1246979, Control_c, 0, 64, 90
1, 1246982, Poly_aftertouch_c, 0, 56, 28
1, 1246985, Note_on_c, 0, 56, 80
1, 1246987, Note_off_c, 0, 48, 62
1, 1246998, Control_c, 0, 64, 127
1, 1247028, Note_off_c, 0, 71, 60
1, 1247052, Note_off_c, 0, 56, 62
1, 1247057, Poly_aftertouch_c, 0, 59, 28
1, 1247060, Note_on_c, 0, 59, 75
1, 1247071, Poly_aftertouch_c, 0, 68, 28
1, 1247072, Note_on_c, 0, 68, 82
1, 1247130, Note_off_c, 0, 59, 63
1, 1247135, Poly_aftertouch_c, 0, 69, 28
1, 1247141, Note_on_c, 0, 69, 80
1, 1247145, Poly_aftertouch_c, 0, 57, 28
1, 1247146, Note_on_c, 0, 57, 82
1, 1247167, Control_c, 0, 64, 112
1, 1247168, Note_off_c, 0, 68, 0
1, 1247169, Note_on_c, 0, 68, 26
1, 1247185, Control_c, 0, 64, 67
1, 1247197, Note_off_c, 0, 57, 60
1, 1247203, Control_c, 0, 64, 29
1, 1247215, Poly_aftertouch_c, 0, 74, 28
1, 1247219, Note_on_c, 0, 74, 94
1, 1247221, Control_c, 0, 64, 0
1, 1247224, Poly_aftertouch_c, 0, 47, 28
1, 1247228, Note_on_c, 0, 47, 90
1, 1247233, Note_off_c, 0, 69, 62
1, 1247245, Note_off_c, 0, 68, 34
1, 1247278, Control_c, 0, 64, 20
1, 1247293, Poly_aftertouch_c, 0, 69, 28
1, 1247298, Control_c, 0, 64, 51
1, 1247301, Note_on_c, 0, 69, 86
1, 1247308, Note_off_c, 0, 74, 63
1, 1247313, Poly_aftertouch_c, 0, 54, 28
1, 1247317, Control_c, 0, 64, 85
1, 1247319, Note_on_c, 0, 54, 87
1, 1247330, Note_off_c, 0, 47, 64
1, 1247336, Control_c, 0, 64, 127
1, 1247353, Note_off_c, 0, 69, 62
1, 1247379, Note_off_c, 0, 54, 65
1, 1247383, Poly_aftertouch_c, 0, 57, 28
1, 1247387, Note_on_c, 0, 57, 81
1, 1247407, Poly_aftertouch_c, 0, 66, 28
1, 1247411, Note_on_c, 0, 66, 85
1, 1247462, Poly_aftertouch_c, 0, 56, 28
1, 1247465, Note_on_c, 0, 56, 80
1, 1247475, Note_off_c, 0, 57, 65
1, 1247491, Note_off_c, 0, 56, 66
1, 1247493, Poly_aftertouch_c, 0, 68, 28
1, 1247496, Note_on_c, 0, 68, 86
1, 1247502, Note_off_c, 0, 66, 52
1, 1247634, Poly_aftertouch_c, 0, 56, 28
1, 1247636, Poly_aftertouch_c, 0, 56, 0
1, 1247640, Note_off_c, 0, 68, 55
1, 1247652, Control_c, 0, 64, 102
1, 1247672, Control_c, 0, 64, 59
1, 1247685, Poly_aftertouch_c, 0, 69, 28
1, 1247685, Poly_aftertouch_c, 0, 74, 28
1, 1247687, Note_on_c, 0, 74, 98
1, 1247688, Note_on_c, 0, 69, 86
1, 1247689, Note_on_c, 0, 45, 104
1, 1247692, Note_on_c, 0, 62, 91
1, 1247693, Note_off_c, 0, 62, 127
1, 1247694, Note_on_c, 0, 64, 95
1, 1247695, Note_off_c, 0, 64, 127
1, 1247695, Note_on_c, 0, 33, 100
1, 1247696, Note_off_c, 0, 33, 127
1, 1247698, Poly_aftertouch_c, 0, 33, 28
1, 1247700, Poly_aftertouch_c, 0, 45, 28
1, 1247701, Poly_aftertouch_c, 0, 62, 28
1, 1247701, Poly_aftertouch_c, 0, 64, 28
1, 1247708, Control_c, 0, 64, 0
1, 1247730, Poly_aftertouch_c, 0, 33, 0
1, 1247744, Note_off_c, 0, 45, 63
1, 1247753, Poly_aftertouch_c, 0, 62, 127
1, 1247753, Poly_aftertouch_c, 0, 64, 127
1, 1247803, Control_c, 0, 64, 27
1, 1247821, Control_c, 0, 64, 54
1, 1247826, Poly_aftertouch_c, 0, 62, 0
1, 1247831, Poly_aftertouch_c, 0, 64, 0
1, 1247838, Poly_aftertouch_c, 0, 68, 28
1, 1247839, Poly_aftertouch_c, 0, 68, 0
1, 1247840, Control_c, 0, 64, 77
1, 1247859, Control_c, 0, 64, 100
1, 1247862, Note_off_c, 0, 74, 54
1, 1247870, Note_off_c, 0, 69, 61
1, 1247877, Control_c, 0, 64, 127
1, 1248071, Note_on_c, 0, 59, 69
1, 1248072, Poly_aftertouch_c, 0, 59, 28
1, 1248139, Poly_aftertouch_c, 0, 71, 28
1, 1248143, Note_on_c, 0, 71, 73
1, 1248155, Note_off_c, 0, 59, 58
1, 1248215, Note_off_c, 0, 71, 61
1, 1248245, Poly_aftertouch_c, 0, 61, 28
1, 1248249, Note_on_c, 0, 61, 85
1, 1248323, Poly_aftertouch_c, 0, 73, 28
1, 1248325, Note_on_c, 0, 73, 78
1, 1248359, Note_off_c, 0, 61, 51
1, 1248393, Note_off_c, 0, 73, 63
1, 1248401, Control_c, 0, 64, 108
1, 1248404, Poly_aftertouch_c, 0, 64, 28
1, 1248407, Note_on_c, 0, 64, 90
1, 1248420, Control_c, 0, 64, 73
1, 1248439, Control_c, 0, 64, 50
1, 1248459, Control_c, 0, 64, 46
1, 1248477, Control_c, 0, 64, 54
1, 1248481, Poly_aftertouch_c, 0, 76, 28
1, 1248482, Note_on_c, 0, 76, 82
1, 1248495, Control_c, 0, 64, 70
1, 1248515, Control_c, 0, 64, 100
1, 1248533, Control_c, 0, 64, 127
1, 1248537, Note_off_c, 0, 64, 64
1, 1248559, Poly_aftertouch_c, 0, 67, 28
1, 1248564, Note_on_c, 0, 67, 92
1, 1248572, Control_c, 0, 64, 109
1, 1248587, Note_off_c, 0, 76, 59
1, 1248587, Control_c, 0, 64, 69
1, 1248608, Control_c, 0, 64, 35
1, 1248626, Control_c, 0, 64, 14
1, 1248645, Control_c, 0, 64, 20
1, 1248653, Poly_aftertouch_c, 0, 79, 28
1, 1248656, Note_on_c, 0, 79, 91
1, 1248663, Control_c, 0, 64, 44
1, 1248683, Control_c, 0, 64, 85
1, 1248701, Control_c, 0, 64, 127
1, 1248729, Poly_aftertouch_c, 0, 70, 28
1, 1248736, Note_on_c, 0, 70, 97
1, 1248746, Note_off_c, 0, 79, 62
1, 1248750, Note_off_c, 0, 67, 58
1, 1248814, Poly_aftertouch_c, 0, 82, 28
1, 1248816, Note_on_c, 0, 82, 92
1, 1248887, Note_off_c, 0, 70, 64
1, 1248903, Poly_aftertouch_c, 0, 69, 28
1, 1248905, Note_on_c, 0, 69, 95
1, 1248922, Note_off_c, 0, 82, 66
1, 1248925, Control_c, 0, 64, 72
1, 1248944, Control_c, 0, 64, 32
1, 1248963, Control_c, 0, 64, 0
1, 1248997, Poly_aftertouch_c, 0, 81, 28
1, 1249001, Note_on_c, 0, 81, 88
1, 1249019, Control_c, 0, 64, 17
1, 1249032, Note_off_c, 0, 69, 53
1, 1249037, Control_c, 0, 64, 44
1, 1249057, Control_c, 0, 64, 77
1, 1249076, Control_c, 0, 64, 127
1, 1249078, Poly_aftertouch_c, 0, 64, 28
1, 1249079, Note_on_c, 0, 64, 91
1, 1249099, Note_off_c, 0, 81, 60
1, 1249129, Note_off_c, 0, 64, 65
1, 1249180, Poly_aftertouch_c, 0, 76, 28
1, 1249182, Note_on_c, 0, 76, 81
1, 1249231, Note_off_c, 0, 76, 62
1, 1249376, Control_c, 0, 64, 104
1, 1249395, Control_c, 0, 64, 66
1, 1249412, Control_c, 0, 64, 28
1, 1249432, Control_c, 0, 64, 0
1, 1249444, Poly_aftertouch_c, 0, 38, 28
1, 1249448, Note_on_c, 0, 38, 99
1, 1249497, Note_off_c, 0, 38, 58
1, 1249525, Control_c, 0, 64, 32
1, 1249527, Poly_aftertouch_c, 0, 77, 28
1, 1249529, Note_on_c, 0, 77, 80
1, 1249544, Control_c, 0, 64, 69
1, 1249563, Control_c, 0, 64, 118
1, 1249580, Control_c, 0, 64, 127
1, 1249618, Control_c, 0, 64, 110
1, 1249620, Note_off_c, 0, 77, 62
1, 1249625, Poly_aftertouch_c, 0, 71, 28
1, 1249627, Note_on_c, 0, 71, 77
1, 1249637, Control_c, 0, 64, 80
1, 1249655, Control_c, 0, 64, 56
1, 1249675, Control_c, 0, 64, 32
1, 1249693, Control_c, 0, 64, 9
1, 1249703, Note_off_c, 0, 71, 63
1, 1249713, Control_c, 0, 64, 0
1, 1249719, Poly_aftertouch_c, 0, 68, 28
1, 1249722, Note_on_c, 0, 68, 77
1, 1249800, Note_off_c, 0, 68, 65
1, 1249801, Poly_aftertouch_c, 0, 76, 28
1, 1249805, Note_on_c, 0, 76, 81
1, 1249807, Note_on_c, 0, 67, 80
1, 1249807, Poly_aftertouch_c, 0, 67, 28
1, 1249808, Poly_aftertouch_c, 0, 70, 28
1, 1249812, Note_on_c, 0, 70, 79
1, 1249834, Note_off_c, 0, 67, 72
1, 1249835, Note_off_c, 0, 76, 65
1, 1249841, Note_off_c, 0, 70, 70
1, 1249876, Poly_aftertouch_c, 0, 49, 28
1, 1249877, Note_on_c, 0, 49, 81
1, 1249968, Poly_aftertouch_c, 0, 55, 28
1, 1249970, Note_on_c, 0, 55, 78
1, 1249977, Note_off_c, 0, 49, 60
1, 1250052, Poly_aftertouch_c, 0, 58, 28
1, 1250056, Note_on_c, 0, 58, 82
1, 1250073, Note_off_c, 0, 55, 61
1, 1250109, Note_off_c, 0, 58, 63
1, 1250144, Poly_aftertouch_c, 0, 50, 28
1, 1250144, Poly_aftertouch_c, 0, 53, 28
1, 1250148, Note_on_c, 0, 53, 71
1, 1250149, Note_on_c, 0, 50, 80
1, 1250152, Poly_aftertouch_c, 0, 56, 28
1, 1250152, Poly_aftertouch_c, 0, 59, 28
1, 1250154, Note_on_c, 0, 59, 83
1, 1250158, Note_on_c, 0, 56, 85
1, 1250191, Note_off_c, 0, 59, 64
1, 1250198, Control_c, 0, 64, 40
1, 1250216, Note_off_c, 0, 53, 62
1, 1250217, Poly_aftertouch_c, 0, 74, 28
1, 1250217, Control_c, 0, 64, 70
1, 1250222, Note_on_c, 0, 74, 87
1, 1250227, Note_off_c, 0, 56, 61
1, 1250227, Note_off_c, 0, 50, 62
1, 1250237, Control_c, 0, 64, 102
1, 1250255, Control_c, 0, 64, 127
1, 1250284, Poly_aftertouch_c, 0, 54, 28
1, 1250285, Poly_aftertouch_c, 0, 54, 0
1, 1250310, Poly_aftertouch_c, 0, 68, 28
1, 1250314, Note_on_c, 0, 68, 80
1, 1250316, Note_off_c, 0, 74, 61
1, 1250379, Note_off_c, 0, 68, 65
1, 1250398, Poly_aftertouch_c, 0, 65, 28
1, 1250405, Note_on_c, 0, 65, 78
1, 1250435, Note_off_c, 0, 65, 68
1, 1250441, Control_c, 0, 64, 75
1, 1250461, Control_c, 0, 64, 40
1, 1250479, Control_c, 0, 64, 0
1, 1250490, Poly_aftertouch_c, 0, 61, 28
1, 1250495, Note_on_c, 0, 61, 90
1, 1250496, Note_on_c, 0, 69, 81
1, 1250499, Poly_aftertouch_c, 0, 69, 28
1, 1250504, Note_on_c, 0, 64, 80
1, 1250504, Poly_aftertouch_c, 0, 64, 28
1, 1250557, Note_off_c, 0, 61, 64
1, 1250570, Note_off_c, 0, 64, 61
1, 1250574, Control_c, 0, 64, 13
1, 1250575, Note_on_c, 0, 45, 83
1, 1250576, Poly_aftertouch_c, 0, 45, 28
1, 1250584, Note_off_c, 0, 69, 58
1, 1250591, Control_c, 0, 64, 35
1, 1250611, Control_c, 0, 64, 67
1, 1250631, Control_c, 0, 64, 101
1, 1250647, Control_c, 0, 64, 127
1, 1250666, Poly_aftertouch_c, 0, 52, 28
1, 1250667, Note_on_c, 0, 52, 80
1, 1250683, Note_off_c, 0, 45, 60
1, 1250745, Note_off_c, 0, 52, 59
1, 1250745, Poly_aftertouch_c, 0, 57, 28
1, 1250749, Note_on_c, 0, 57, 78
1, 1250787, Note_off_c, 0, 57, 64
1, 1250872, Control_c, 0, 64, 112
1, 1250892, Control_c, 0, 64, 82
1, 1250909, Control_c, 0, 64, 58
1, 1250929, Control_c, 0, 64, 24
1, 1250931, Poly_aftertouch_c, 0, 50, 28
1, 1250932, Poly_aftertouch_c, 0, 59, 28
1, 1250936, Note_on_c, 0, 59, 95
1, 1250936, Note_on_c, 0, 50, 94
1, 1250937, Note_on_c, 0, 56, 91
1, 1250940, Poly_aftertouch_c, 0, 56, 28
1, 1250947, Control_c, 0, 64, 0
1, 1251006, Note_on_c, 0, 77, 85
1, 1251007, Poly_aftertouch_c, 0, 77, 28
1, 1251028, Note_off_c, 0, 59, 46
1, 1251032, Note_off_c, 0, 50, 62
1, 1251039, Control_c, 0, 64, 9
1, 1251045, Note_off_c, 0, 56, 60
1, 1251054, Note_on_c, 0, 76, 37
1, 1251055, Note_off_c, 0, 76, 127
1, 1251058, Control_c, 0, 64, 31
1, 1251079, Control_c, 0, 64, 67
1, 1251085, Poly_aftertouch_c, 0, 76, 28
1, 1251086, Poly_aftertouch_c, 0, 76, 0
1, 1251094, Note_off_c, 0, 77, 63
1, 1251096, Control_c, 0, 64, 127
1, 1251103, Poly_aftertouch_c, 0, 71, 28
1, 1251108, Note_on_c, 0, 71, 69
1, 1251177, Note_off_c, 0, 71, 62
1, 1251182, Poly_aftertouch_c, 0, 68, 28
1, 1251185, Note_on_c, 0, 68, 83
1, 1251229, Control_c, 0, 64, 87
1, 1251239, Note_off_c, 0, 68, 56
1, 1251245, Control_c, 0, 64, 58
1, 1251265, Control_c, 0, 64, 27
1, 1251277, Poly_aftertouch_c, 0, 67, 28
1, 1251277, Poly_aftertouch_c, 0, 70, 28
1, 1251278, Poly_aftertouch_c, 0, 76, 28
1, 1251281, Note_on_c, 0, 76, 86
1, 1251282, Note_on_c, 0, 70, 90
1, 1251283, Note_on_c, 0, 67, 87
1, 1251303, Control_c, 0, 64, 0
1, 1251328, Note_off_c, 0, 67, 62
1, 1251332, Note_off_c, 0, 76, 61
1, 1251341, Note_off_c, 0, 70, 63
1, 1251351, Note_on_c, 0, 49, 85
1, 1251352, Poly_aftertouch_c, 0, 49, 28
1, 1251441, Poly_aftertouch_c, 0, 55, 28
1, 1251444, Note_on_c, 0, 55, 80
1, 1251454, Note_off_c, 0, 49, 61
1, 1251529, Poly_aftertouch_c, 0, 58, 28
1, 1251533, Note_on_c, 0, 58, 82
1, 1251547, Note_off_c, 0, 55, 59
1, 1251570, Note_off_c, 0, 58, 65
1, 1251604, Poly_aftertouch_c, 0, 53, 28
1, 1251614, Note_on_c, 0, 53, 58
1, 1251618, Poly_aftertouch_c, 0, 59, 28
1, 1251621, Note_on_c, 0, 59, 85
1, 1251622, Poly_aftertouch_c, 0, 50, 28
1, 1251623, Poly_aftertouch_c, 0, 56, 28
1, 1251629, Note_on_c, 0, 50, 80
1, 1251629, Note_on_c, 0, 56, 87
1, 1251678, Control_c, 0, 64, 23
1, 1251692, Note_off_c, 0, 59, 62
1, 1251696, Control_c, 0, 64, 50
1, 1251697, Poly_aftertouch_c, 0, 74, 28
1, 1251700, Note_on_c, 0, 74, 88
1, 1251714, Control_c, 0, 64, 77
1, 1251723, Note_off_c, 0, 53, 62
1, 1251731, Note_off_c, 0, 56, 62
1, 1251731, Note_off_c, 0, 50, 60
1, 1251733, Control_c, 0, 64, 127
1, 1251786, Poly_aftertouch_c, 0, 68, 28
1, 1251791, Note_on_c, 0, 68, 77
1, 1251796, Note_off_c, 0, 74, 62
1, 1251856, Note_off_c, 0, 68, 64
1, 1251861, Poly_aftertouch_c, 0, 65, 28
1, 1251863, Note_on_c, 0, 65, 80
1, 1251900, Note_off_c, 0, 65, 65
1, 1251941, Control_c, 0, 64, 80
1, 1251958, Control_c, 0, 64, 47
1, 1251960, Poly_aftertouch_c, 0, 61, 28
1, 1251961, Note_on_c, 0, 69, 87
1, 1251963, Poly_aftertouch_c, 0, 69, 28
1, 1251965, Note_on_c, 0, 61, 90
1, 1251968, Note_on_c, 0, 64, 85
1, 1251969, Poly_aftertouch_c, 0, 64, 28
1, 1251976, Control_c, 0, 64, 0
1, 1252026, Note_off_c, 0, 61, 62
1, 1252030, Poly_aftertouch_c, 0, 45, 28
1, 1252035, Note_on_c, 0, 45, 86
1, 1252073, Note_off_c, 0, 64, 62
1, 1252085, Note_off_c, 0, 69, 60
1, 1252089, Control_c, 0, 64, 21
1, 1252108, Control_c, 0, 64, 47
1, 1252118, Poly_aftertouch_c, 0, 52, 28
1, 1252122, Note_on_c, 0, 52, 81
1, 1252126, Control_c, 0, 64, 77
1, 1252145, Control_c, 0, 64, 127
1, 1252148, Note_off_c, 0, 45, 60
1, 1252196, Poly_aftertouch_c, 0, 57, 28
1, 1252202, Note_on_c, 0, 57, 80
1, 1252206, Note_off_c, 0, 52, 61
1, 1252244, Note_off_c, 0, 57, 64
1, 1252369, Control_c, 0, 64, 69
1, 1252381, Poly_aftertouch_c, 0, 63, 28
1, 1252385, Note_on_c, 0, 63, 101
1, 1252387, Note_on_c, 0, 60, 86
1, 1252388, Note_on_c, 0, 54, 92
1, 1252388, Control_c, 0, 64, 21
1, 1252389, Poly_aftertouch_c, 0, 54, 28
1, 1252390, Poly_aftertouch_c, 0, 60, 28
1, 1252408, Control_c, 0, 64, 0
1, 1252442, Note_off_c, 0, 63, 65
1, 1252460, Poly_aftertouch_c, 0, 81, 28
1, 1252463, Note_on_c, 0, 81, 92
1, 1252469, Note_off_c, 0, 60, 63
1, 1252483, Control_c, 0, 64, 13
1, 1252497, Note_off_c, 0, 54, 66
1, 1252500, Control_c, 0, 64, 41
1, 1252520, Control_c, 0, 64, 77
1, 1252539, Control_c, 0, 64, 127
1, 1252548, Poly_aftertouch_c, 0, 72, 28
1, 1252550, Note_on_c, 0, 72, 84
1, 1252561, Note_off_c, 0, 81, 60
1, 1252610, Poly_aftertouch_c, 0, 69, 28
1, 1252613, Note_on_c, 0, 69, 84
1, 1252643, Note_off_c, 0, 72, 61
1, 1252669, Note_off_c, 0, 69, 60
1, 1252688, Control_c, 0, 64, 93
1, 1252707, Control_c, 0, 64, 54
1, 1252714, Poly_aftertouch_c, 0, 74, 28
1, 1252717, Note_on_c, 0, 74, 92
1, 1252719, Note_on_c, 0, 71, 93
1, 1252720, Poly_aftertouch_c, 0, 67, 28
1, 1252721, Poly_aftertouch_c, 0, 71, 28
1, 1252723, Note_on_c, 0, 67, 92
1, 1252725, Control_c, 0, 64, 0
1, 1252783, Poly_aftertouch_c, 0, 43, 28
1, 1252787, Note_on_c, 0, 43, 96
1, 1252801, Note_off_c, 0, 67, 58
1, 1252820, Control_c, 0, 64, 20
1, 1252834, Note_off_c, 0, 71, 62
1, 1252836, Control_c, 0, 64, 48
1, 1252856, Note_off_c, 0, 74, 61
1, 1252856, Control_c, 0, 64, 80
1, 1252876, Poly_aftertouch_c, 0, 50, 28
1, 1252877, Control_c, 0, 64, 127
1, 1252879, Note_on_c, 0, 50, 88
1, 1252911, Note_off_c, 0, 43, 60
1, 1252955, Poly_aftertouch_c, 0, 55, 28
1, 1252957, Note_on_c, 0, 55, 83
1, 1252961, Note_off_c, 0, 50, 62
1, 1253013, Note_off_c, 0, 55, 60
1, 1253099, Control_c, 0, 64, 113
1, 1253119, Control_c, 0, 64, 67
1, 1253136, Poly_aftertouch_c, 0, 61, 28
1, 1253136, Control_c, 0, 64, 22
1, 1253139, Note_on_c, 0, 61, 101
1, 1253142, Poly_aftertouch_c, 0, 52, 28
1, 1253143, Poly_aftertouch_c, 0, 58, 28
1, 1253144, Note_on_c, 0, 58, 91
1, 1253145, Note_on_c, 0, 52, 91
1, 1253156, Control_c, 0, 64, 0
1, 1253203, Note_off_c, 0, 61, 61
1, 1253220, Poly_aftertouch_c, 0, 79, 28
1, 1253222, Note_on_c, 0, 79, 97
1, 1253239, Note_off_c, 0, 58, 63
1, 1253249, Control_c, 0, 64, 32
1, 1253258, Note_off_c, 0, 52, 62
1, 1253269, Control_c, 0, 64, 66
1, 1253288, Control_c, 0, 64, 127
1, 1253309, Poly_aftertouch_c, 0, 70, 28
1, 1253310, Note_off_c, 0, 79, 59
1, 1253312, Note_on_c, 0, 70, 86
1, 1253373, Poly_aftertouch_c, 0, 67, 28
1, 1253376, Note_on_c, 0, 67, 83
1, 1253409, Note_off_c, 0, 70, 64
1, 1253435, Note_off_c, 0, 67, 63
1, 1253474, Control_c, 0, 64, 97
1, 1253480, Poly_aftertouch_c, 0, 72, 28
1, 1253485, Note_on_c, 0, 72, 96
1, 1253485, Note_on_c, 0, 69, 97
1, 1253488, Poly_aftertouch_c, 0, 65, 28
1, 1253488, Poly_aftertouch_c, 0, 69, 28
1, 1253491, Note_on_c, 0, 65, 93
1, 1253493, Control_c, 0, 64, 61
1, 1253511, Control_c, 0, 64, 14
1, 1253531, Control_c, 0, 64, 0
1, 1253576, Poly_aftertouch_c, 0, 41, 28
1, 1253577, Note_on_c, 0, 41, 89
1, 1253624, Control_c, 0, 64, 21
1, 1253642, Control_c, 0, 64, 51
1, 1253652, Note_off_c, 0, 65, 55
1, 1253661, Control_c, 0, 64, 85
1, 1253670, Poly_aftertouch_c, 0, 48, 28
1, 1253675, Note_off_c, 0, 41, 58
1, 1253675, Note_on_c, 0, 48, 82
1, 1253679, Control_c, 0, 64, 127
1, 1253705, Note_off_c, 0, 69, 53
1, 1253728, Note_off_c, 0, 72, 56
1, 1253747, Note_off_c, 0, 48, 63
1, 1253787, Poly_aftertouch_c, 0, 53, 28
1, 1253791, Note_on_c, 0, 53, 74
1, 1253918, Note_off_c, 0, 53, 48
1, 1253961, Control_c, 0, 64, 95
1, 1253975, Poly_aftertouch_c, 0, 50, 28
1, 1253980, Note_on_c, 0, 50, 66
1, 1253980, Control_c, 0, 64, 73
1, 1253999, Control_c, 0, 64, 52
1, 1254017, Control_c, 0, 64, 28
1, 1254055, Control_c, 0, 64, 0
1, 1254154, Note_on_c, 0, 77, 56
1, 1254155, Poly_aftertouch_c, 0, 77, 28
1, 1254185, Control_c, 0, 64, 12
1, 1254197, Poly_aftertouch_c, 0, 57, 28
1, 1254205, Control_c, 0, 64, 23
1, 1254206, Note_on_c, 0, 57, 46
1, 1254224, Control_c, 0, 64, 37
1, 1254241, Control_c, 0, 64, 58
1, 1254254, Note_off_c, 0, 57, 64
1, 1254260, Control_c, 0, 64, 73
1, 1254279, Control_c, 0, 64, 86
1, 1254294, Note_off_c, 0, 50, 57
1, 1254295, Poly_aftertouch_c, 0, 60, 28
1, 1254297, Note_on_c, 0, 69, 58
1, 1254297, Control_c, 0, 64, 106
1, 1254299, Note_on_c, 0, 60, 45
1, 1254299, Poly_aftertouch_c, 0, 69, 28
1, 1254303, Note_off_c, 0, 77, 54
1, 1254316, Control_c, 0, 64, 127
1, 1254340, Note_off_c, 0, 60, 54
1, 1254370, Note_off_c, 0, 69, 52
1, 1254381, Poly_aftertouch_c, 0, 71, 28
1, 1254385, Note_on_c, 0, 71, 57
1, 1254390, Note_on_c, 0, 59, 55
1, 1254391, Poly_aftertouch_c, 0, 59, 28
1, 1254428, Note_off_c, 0, 71, 63
1, 1254440, Note_off_c, 0, 59, 60
1, 1254448, Poly_aftertouch_c, 0, 50, 28
1, 1254452, Note_on_c, 0, 50, 78
1, 1254467, Control_c, 0, 64, 93
1, 1254485, Control_c, 0, 64, 65
1, 1254503, Control_c, 0, 64, 37
1, 1254523, Control_c, 0, 64, 13
1, 1254533, Poly_aftertouch_c, 0, 57, 28
1, 1254538, Note_on_c, 0, 57, 75
1, 1254550, Note_on_c, 0, 77, 83
1, 1254552, Poly_aftertouch_c, 0, 77, 28
1, 1254570, Note_off_c, 0, 50, 61
1, 1254578, Control_c, 0, 64, 28
1, 1254598, Control_c, 0, 64, 48
1, 1254608, Poly_aftertouch_c, 0, 60, 28
1, 1254613, Note_on_c, 0, 60, 68
1, 1254614, Note_off_c, 0, 57, 62
1, 1254615, Control_c, 0, 64, 71
1, 1254619, Note_off_c, 0, 77, 62
1, 1254634, Control_c, 0, 64, 98
1, 1254640, Poly_aftertouch_c, 0, 69, 28
1, 1254644, Note_on_c, 0, 69, 77
1, 1254654, Control_c, 0, 64, 127
1, 1254683, Note_off_c, 0, 60, 60
1, 1254704, Poly_aftertouch_c, 0, 59, 28
1, 1254708, Note_on_c, 0, 59, 79
1, 1254715, Note_off_c, 0, 69, 60
1, 1254716, Poly_aftertouch_c, 0, 71, 28
1, 1254720, Note_on_c, 0, 71, 77
1, 1254753, Note_off_c, 0, 59, 56
1, 1254754, Note_off_c, 0, 71, 63
1, 1254786, Poly_aftertouch_c, 0, 48, 28
1, 1254789, Note_on_c, 0, 48, 91
1, 1254822, Control_c, 0, 64, 79
1, 1254841, Control_c, 0, 64, 49
1, 1254859, Control_c, 0, 64, 15
1, 1254872, Poly_aftertouch_c, 0, 56, 28
1, 1254876, Note_on_c, 0, 56, 87
1, 1254878, Control_c, 0, 64, 0
1, 1254879, Note_on_c, 0, 76, 92
1, 1254880, Poly_aftertouch_c, 0, 76, 28
1, 1254908, Note_off_c, 0, 48, 64
1, 1254935, Control_c, 0, 64, 21
1, 1254943, Note_off_c, 0, 76, 64
1, 1254952, Control_c, 0, 64, 44
1, 1254955, Note_off_c, 0, 56, 62
1, 1254955, Note_on_c, 0, 59, 83
1, 1254955, Poly_aftertouch_c, 0, 59, 28
1, 1254972, Control_c, 0, 64, 71
1, 1254975, Poly_aftertouch_c, 0, 68, 28
1, 1254981, Note_on_c, 0, 68, 85
1, 1254990, Control_c, 0, 64, 100
1, 1255009, Control_c, 0, 64, 127
1, 1255030, Note_off_c, 0, 59, 64
1, 1255047, Poly_aftertouch_c, 0, 57, 28
1, 1255048, Note_on_c, 0, 57, 91
1, 1255049, Poly_aftertouch_c, 0, 69, 28
1, 1255054, Note_on_c, 0, 69, 81
1, 1255111, Note_off_c, 0, 57, 60
1, 1255136, Note_off_c, 0, 68, 54
1, 1255137, Note_off_c, 0, 69, 60
1, 1255146, Poly_aftertouch_c, 0, 47, 28
1, 1255153, Note_on_c, 0, 47, 96
1, 1255177, Control_c, 0, 64, 76
1, 1255196, Control_c, 0, 64, 44
1, 1255234, Control_c, 0, 64, 0
1, 1255248, Note_on_c, 0, 74, 93
1, 1255248, Poly_aftertouch_c, 0, 54, 28
1, 1255250, Poly_aftertouch_c, 0, 74, 28
1, 1255252, Note_on_c, 0, 54, 90
1, 1255275, Poly_aftertouch_c, 0, 51, 28
1, 1255277, Note_on_c, 0, 51, 54
1, 1255280, Note_off_c, 0, 47, 64
1, 1255289, Control_c, 0, 64, 19
1, 1255309, Control_c, 0, 64, 39
1, 1255310, Note_off_c, 0, 51, 58
1, 1255329, Control_c, 0, 64, 67
1, 1255332, Note_off_c, 0, 74, 60
1, 1255346, Control_c, 0, 64, 91
1, 1255348, Note_off_c, 0, 54, 60
1, 1255356, Poly_aftertouch_c, 0, 57, 28
1, 1255362, Note_on_c, 0, 57, 92
1, 1255364, Control_c, 0, 64, 127
1, 1255367, Poly_aftertouch_c, 0, 66, 28
1, 1255370, Note_on_c, 0, 66, 96
1, 1255438, Note_off_c, 0, 66, 62
1, 1255466, Poly_aftertouch_c, 0, 56, 28
1, 1255469, Note_on_c, 0, 56, 90
1, 1255484, Note_off_c, 0, 57, 63
1, 1255485, Poly_aftertouch_c, 0, 68, 28
1, 1255487, Note_on_c, 0, 68, 90
1, 1255506, Note_off_c, 0, 56, 64
1, 1255573, Note_off_c, 0, 68, 61
1, 1255701, Control_c, 0, 64, 93
1, 1255721, Control_c, 0, 64, 62
1, 1255728, Poly_aftertouch_c, 0, 45, 28
1, 1255732, Note_on_c, 0, 45, 99
1, 1255733, Note_on_c, 0, 33, 97
1, 1255734, Poly_aftertouch_c, 0, 33, 28
1, 1255741, Control_c, 0, 64, 28
1, 1255758, Control_c, 0, 64, 0
1, 1255905, Note_off_c, 0, 33, 62
1, 1255906, Control_c, 0, 64, 13
1, 1255926, Control_c, 0, 64, 32
1, 1255945, Control_c, 0, 64, 61
1, 1255949, Poly_aftertouch_c, 0, 74, 28
1, 1255951, Note_on_c, 0, 74, 90
1, 1255953, Poly_aftertouch_c, 0, 62, 28
1, 1255955, Poly_aftertouch_c, 0, 69, 28
1, 1255959, Note_on_c, 0, 69, 85
1, 1255960, Note_on_c, 0, 62, 80
1, 1255963, Note_on_c, 0, 64, 86
1, 1255964, Note_off_c, 0, 45, 62
1, 1255964, Poly_aftertouch_c, 0, 64, 28
1, 1255964, Control_c, 0, 64, 92
1, 1255982, Control_c, 0, 64, 127
1, 1256071, Note_off_c, 0, 64, 54
1, 1256075, Note_off_c, 0, 62, 58
1, 1256095, Note_off_c, 0, 74, 55
1, 1256132, Note_off_c, 0, 69, 54
1, 1256161, Note_on_c, 0, 59, 93
1, 1256163, Poly_aftertouch_c, 0, 59, 28
1, 1256308, Poly_aftertouch_c, 0, 71, 28
1, 1256311, Note_on_c, 0, 71, 86
1, 1256413, Control_c, 0, 64, 107
1, 1256432, Control_c, 0, 64, 96
1, 1256450, Poly_aftertouch_c, 0, 60, 28
1, 1256450, Control_c, 0, 64, 84
1, 1256451, Note_on_c, 0, 60, 89
1, 1256468, Note_off_c, 0, 59, 57
1, 1256469, Control_c, 0, 64, 70
1, 1256489, Control_c, 0, 64, 56
1, 1256506, Control_c, 0, 64, 42
1, 1256525, Control_c, 0, 64, 29
1, 1256545, Control_c, 0, 64, 19
1, 1256557, Note_off_c, 0, 71, 62
1, 1256557, Poly_aftertouch_c, 0, 72, 28
1, 1256560, Note_on_c, 0, 72, 80
1, 1256582, Control_c, 0, 64, 14
1, 1256652, Poly_aftertouch_c, 0, 57, 28
1, 1256655, Note_on_c, 0, 57, 86
1, 1256675, Note_off_c, 0, 60, 56
1, 1256694, Control_c, 0, 64, 9
1, 1256740, Note_off_c, 0, 72, 61
1, 1256745, Poly_aftertouch_c, 0, 69, 28
1, 1256747, Note_on_c, 0, 69, 78
1, 1256807, Control_c, 0, 64, 0
1, 1256834, Poly_aftertouch_c, 0, 54, 28
1, 1256839, Note_on_c, 0, 54, 81
1, 1256848, Note_off_c, 0, 57, 61
1, 1256926, Note_off_c, 0, 69, 57
1, 1256930, Poly_aftertouch_c, 0, 66, 28
1, 1256934, Note_on_c, 0, 66, 72
1, 1256974, Control_c, 0, 64, 10
1, 1256993, Control_c, 0, 64, 22
1, 1257012, Control_c, 0, 64, 39
1, 1257031, Control_c, 0, 64, 63
1, 1257035, Poly_aftertouch_c, 0, 51, 28
1, 1257041, Note_on_c, 0, 51, 70
1, 1257045, Note_off_c, 0, 54, 59
1, 1257048, Control_c, 0, 64, 81
1, 1257068, Control_c, 0, 64, 105
1, 1257087, Control_c, 0, 64, 127
1, 1257091, Note_off_c, 0, 51, 61
1, 1257148, Poly_aftertouch_c, 0, 63, 28
1, 1257156, Note_on_c, 0, 63, 70
1, 1257195, Note_off_c, 0, 66, 38
1, 1257271, Note_off_c, 0, 63, 62
1, 1257323, Poly_aftertouch_c, 0, 52, 28
1, 1257327, Note_on_c, 0, 52, 61
1, 1257328, Poly_aftertouch_c, 0, 40, 28
1, 1257335, Note_on_c, 0, 40, 48
1, 1257349, Control_c, 0, 64, 114
1, 1257368, Control_c, 0, 64, 93
1, 1257386, Control_c, 0, 64, 78
1, 1257405, Control_c, 0, 64, 64
1, 1257424, Control_c, 0, 64, 50
1, 1257443, Control_c, 0, 64, 33
1, 1257461, Control_c, 0, 64, 9
1, 1257480, Control_c, 0, 64, 0
1, 1257484, Poly_aftertouch_c, 0, 64, 28
1, 1257488, Note_on_c, 0, 64, 59
1, 1257501, Poly_aftertouch_c, 0, 56, 28
1, 1257505, Note_on_c, 0, 56, 46
1, 1257648, Control_c, 0, 64, 9
1, 1257667, Control_c, 0, 64, 19
1, 1257686, Control_c, 0, 64, 35
1, 1257693, Poly_aftertouch_c, 0, 47, 28
1, 1257702, Note_on_c, 0, 47, 48
1, 1257704, Control_c, 0, 64, 59
1, 1257719, Note_off_c, 0, 52, 52
1, 1257722, Control_c, 0, 64, 76
1, 1257724, Note_off_c, 0, 56, 53
1, 1257742, Control_c, 0, 64, 96
1, 1257761, Control_c, 0, 64, 127
1, 1257827, Note_off_c, 0, 47, 60
1, 1257899, Note_off_c, 0, 40, 37
1, 1257947, Note_off_c, 0, 64, 44
1, 1257952, Poly_aftertouch_c, 0, 59, 28
1, 1257955, Note_on_c, 0, 59, 52
1, 1258140, Note_off_c, 0, 59, 51
1, 1258154, Control_c, 0, 67, 8
1, 1258192, Control_c, 0, 67, 13
1, 1258229, Control_c, 0, 67, 19
1, 1258265, Control_c, 0, 67, 28
1, 1258285, Control_c, 0, 67, 35
1, 1258304, Control_c, 0, 67, 43
1, 1258322, Control_c, 0, 67, 51
1, 1258341, Control_c, 0, 67, 59
1, 1258362, Control_c, 0, 67, 66
1, 1258378, Control_c, 0, 64, 118
1, 1258380, Control_c, 0, 67, 73
1, 1258398, Control_c, 0, 67, 78
1, 1258419, Control_c, 0, 64, 111
1, 1258420, Control_c, 0, 67, 82
1, 1258435, Control_c, 0, 64, 107
1, 1258454, Control_c, 0, 64, 102
1, 1258455, Control_c, 0, 67, 89
1, 1258469, Poly_aftertouch_c, 0, 33, 28
1, 1258472, Control_c, 0, 64, 93
1, 1258473, Control_c, 0, 67, 93
1, 1258476, Note_on_c, 0, 33, 48
1, 1258491, Control_c, 0, 64, 82
1, 1258492, Control_c, 0, 67, 97
1, 1258510, Control_c, 0, 64, 67
1, 1258512, Control_c, 0, 67, 102
1, 1258528, Control_c, 0, 64, 52
1, 1258530, Control_c, 0, 67, 107
1, 1258547, Control_c, 0, 64, 32
1, 1258548, Control_c, 0, 67, 112
1, 1258566, Control_c, 0, 67, 118
1, 1258584, Control_c, 0, 64, 0
1, 1258585, Control_c, 0, 67, 124
1, 1258734, Control_c, 0, 64, 13
1, 1258753, Control_c, 0, 64, 23
1, 1258772, Control_c, 0, 64, 38
1, 1258791, Control_c, 0, 64, 58
1, 1258809, Control_c, 0, 64, 70
1, 1258827, Control_c, 0, 64, 79
1, 1258846, Control_c, 0, 64, 87
1, 1258865, Control_c, 0, 64, 98
1, 1258884, Control_c, 0, 64, 117
1, 1258903, Control_c, 0, 64, 127
1, 1258937, Note_off_c, 0, 33, 29
1, 1258943, Poly_aftertouch_c, 0, 40, 28
1, 1258949, Note_on_c, 0, 40, 37
1, 1259016, Poly_aftertouch_c, 0, 60, 28
1, 1259019, Note_on_c, 0, 60, 77
1, 1259111, Note_off_c, 0, 40, 27
1, 1259226, Poly_aftertouch_c, 0, 45, 28
1, 1259234, Note_on_c, 0, 45, 41
1, 1259283, Note_off_c, 0, 45, 50
1, 1259445, Poly_aftertouch_c, 0, 48, 28
1, 1259451, Note_on_c, 0, 48, 44
1, 1259525, Poly_aftertouch_c, 0, 59, 28
1, 1259526, Note_off_c, 0, 60, 60
1, 1259527, Note_on_c, 0, 59, 78
1, 1259609, Note_off_c, 0, 59, 62
1, 1259665, Note_off_c, 0, 48, 50
1, 1259699, Poly_aftertouch_c, 0, 52, 28
1, 1259705, Note_on_c, 0, 52, 50
1, 1259745, Note_off_c, 0, 52, 60
1, 1259857, Poly_aftertouch_c, 0, 57, 28
1, 1259860, Note_on_c, 0, 57, 78
1, 1260016, Poly_aftertouch_c, 0, 86, 28
1, 1260020, Note_on_c, 0, 86, 62
1, 1260063, Control_c, 0, 64, 81
1, 1260083, Control_c, 0, 64, 53
1, 1260101, Control_c, 0, 64, 32
1, 1260118, Control_c, 0, 64, 27
1, 1260134, Poly_aftertouch_c, 0, 56, 28
1, 1260136, Note_off_c, 0, 86, 58
1, 1260139, Note_on_c, 0, 56, 84
1, 1260157, Control_c, 0, 64, 36
1, 1260160, Note_off_c, 0, 57, 65
1, 1260162, Poly_aftertouch_c, 0, 83, 28
1, 1260165, Note_on_c, 0, 83, 58
1, 1260177, Control_c, 0, 64, 50
1, 1260194, Control_c, 0, 64, 67
1, 1260213, Control_c, 0, 64, 82
1, 1260234, Control_c, 0, 64, 127
1, 1260242, Note_off_c, 0, 83, 62
1, 1260288, Control_c, 0, 67, 120
1, 1260303, Poly_aftertouch_c, 0, 77, 28
1, 1260307, Note_on_c, 0, 77, 50
1, 1260396, Note_off_c, 0, 77, 58
1, 1260475, Control_c, 0, 64, 88
1, 1260494, Control_c, 0, 64, 55
1, 1260509, Poly_aftertouch_c, 0, 65, 28
1, 1260510, Poly_aftertouch_c, 0, 74, 28
1, 1260512, Note_on_c, 0, 65, 79
1, 1260513, Note_on_c, 0, 74, 53
1, 1260513, Control_c, 0, 64, 21
1, 1260551, Control_c, 0, 67, 116
1, 1260571, Note_off_c, 0, 56, 58
1, 1260607, Control_c, 0, 64, 36
1, 1260625, Control_c, 0, 64, 59
1, 1260644, Control_c, 0, 64, 79
1, 1260645, Control_c, 0, 67, 111
1, 1260655, Note_off_c, 0, 65, 62
1, 1260661, Control_c, 0, 64, 106
1, 1260668, Poly_aftertouch_c, 0, 71, 28
1, 1260673, Note_on_c, 0, 71, 53
1, 1260680, Control_c, 0, 64, 127
1, 1260718, Note_off_c, 0, 74, 50
1, 1260757, Note_off_c, 0, 71, 57
1, 1260871, Poly_aftertouch_c, 0, 63, 28
1, 1260875, Note_on_c, 0, 63, 78
1, 1261008, Poly_aftertouch_c, 0, 36, 28
1, 1261016, Note_on_c, 0, 36, 56
1, 1261117, Note_off_c, 0, 63, 35
1, 1261167, Poly_aftertouch_c, 0, 45, 28
1, 1261167, Control_c, 0, 64, 84
1, 1261171, Note_on_c, 0, 45, 52
1, 1261186, Control_c, 0, 64, 56
1, 1261205, Control_c, 0, 64, 31
1, 1261224, Control_c, 0, 64, 23
1, 1261233, Poly_aftertouch_c, 0, 64, 28
1, 1261239, Note_on_c, 0, 64, 82
1, 1261260, Control_c, 0, 64, 31
1, 1261273, Note_off_c, 0, 36, 49
1, 1261279, Control_c, 0, 64, 47
1, 1261299, Control_c, 0, 64, 68
1, 1261317, Control_c, 0, 64, 86
1, 1261336, Control_c, 0, 64, 127
1, 1261340, Note_off_c, 0, 45, 61
1, 1261353, Poly_aftertouch_c, 0, 48, 28
1, 1261360, Note_on_c, 0, 48, 59
1, 1261405, Note_off_c, 0, 48, 62
1, 1261518, Poly_aftertouch_c, 0, 52, 28
1, 1261519, Poly_aftertouch_c, 0, 62, 28
1, 1261520, Note_on_c, 0, 62, 89
1, 1261522, Note_on_c, 0, 52, 64
1, 1261555, Note_off_c, 0, 64, 50
1, 1261600, Note_off_c, 0, 62, 62
1, 1261614, Note_off_c, 0, 52, 52
1, 1261616, Control_c, 0, 67, 107
1, 1261645, Poly_aftertouch_c, 0, 57, 28
1, 1261652, Note_on_c, 0, 57, 74
1, 1261654, Control_c, 0, 67, 103
1, 1261715, Note_off_c, 0, 57, 59
1, 1261765, Poly_aftertouch_c, 0, 60, 28
1, 1261769, Note_on_c, 0, 60, 89
1, 1261910, Poly_aftertouch_c, 0, 90, 28
1, 1261917, Note_on_c, 0, 90, 68
1, 1261917, Control_c, 0, 64, 97
1, 1261935, Control_c, 0, 64, 67
1, 1261955, Control_c, 0, 64, 49
1, 1261991, Control_c, 0, 64, 55
1, 1261992, Control_c, 0, 67, 98
1, 1262010, Control_c, 0, 64, 64
1, 1262012, Control_c, 0, 67, 94
1, 1262025, Note_on_c, 0, 59, 90
1, 1262026, Poly_aftertouch_c, 0, 59, 28
1, 1262030, Control_c, 0, 64, 78
1, 1262032, Control_c, 0, 67, 89
1, 1262035, Note_off_c, 0, 60, 61
1, 1262037, Poly_aftertouch_c, 0, 87, 28
1, 1262042, Note_on_c, 0, 87, 66
1, 1262044, Note_off_c, 0, 90, 62
1, 1262049, Control_c, 0, 64, 108
1, 1262051, Control_c, 0, 67, 82
1, 1262066, Control_c, 0, 64, 127
1, 1262067, Control_c, 0, 67, 76
1, 1262085, Control_c, 0, 67, 70
1, 1262104, Control_c, 0, 67, 64
1, 1262122, Note_off_c, 0, 87, 64
1, 1262122, Control_c, 0, 67, 57
1, 1262142, Control_c, 0, 64, 82
1, 1262143, Control_c, 0, 67, 52
1, 1262160, Control_c, 0, 64, 51
1, 1262161, Control_c, 0, 67, 48
1, 1262165, Poly_aftertouch_c, 0, 81, 28
1, 1262168, Note_on_c, 0, 81, 58
1, 1262180, Control_c, 0, 64, 20
1, 1262197, Control_c, 0, 67, 44
1, 1262224, Note_off_c, 0, 81, 61
1, 1262235, Control_c, 0, 64, 14
1, 1262253, Control_c, 0, 64, 26
1, 1262272, Control_c, 0, 64, 45
1, 1262291, Control_c, 0, 64, 70
1, 1262306, Poly_aftertouch_c, 0, 69, 28
1, 1262306, Poly_aftertouch_c, 0, 78, 28
1, 1262309, Note_on_c, 0, 69, 88
1, 1262311, Note_on_c, 0, 78, 76
1, 1262311, Control_c, 0, 64, 95
1, 1262328, Control_c, 0, 64, 127
1, 1262410, Note_off_c, 0, 69, 58
1, 1262422, Control_c, 0, 67, 40
1, 1262445, Poly_aftertouch_c, 0, 75, 28
1, 1262449, Note_off_c, 0, 59, 63
1, 1262451, Note_on_c, 0, 75, 68
1, 1262494, Note_off_c, 0, 78, 62
1, 1262515, Control_c, 0, 67, 35
1, 1262525, Note_off_c, 0, 75, 65
1, 1262582, Poly_aftertouch_c, 0, 66, 28
1, 1262586, Note_on_c, 0, 66, 91
1, 1262713, Poly_aftertouch_c, 0, 40, 28
1, 1262719, Note_on_c, 0, 40, 62
1, 1262815, Control_c, 0, 64, 85
1, 1262834, Control_c, 0, 64, 53
1, 1262853, Control_c, 0, 64, 20
1, 1262854, Poly_aftertouch_c, 0, 47, 28
1, 1262863, Note_on_c, 0, 47, 52
1, 1262868, Control_c, 0, 64, 11
1, 1262886, Poly_aftertouch_c, 0, 69, 28
1, 1262888, Note_on_c, 0, 69, 96
1, 1262909, Control_c, 0, 64, 24
1, 1262919, Note_off_c, 0, 66, 61
1, 1262925, Control_c, 0, 64, 40
1, 1262938, Note_off_c, 0, 40, 55
1, 1262946, Control_c, 0, 64, 64
1, 1262965, Control_c, 0, 64, 86
1, 1262984, Control_c, 0, 64, 127
1, 1262991, Note_off_c, 0, 47, 59
1, 1263040, Poly_aftertouch_c, 0, 52, 28
1, 1263044, Note_on_c, 0, 52, 57
1, 1263087, Note_off_c, 0, 52, 60
1, 1263219, Poly_aftertouch_c, 0, 53, 28
1, 1263223, Note_on_c, 0, 53, 63
1, 1263264, Control_c, 0, 64, 92
1, 1263283, Control_c, 0, 64, 61
1, 1263289, Poly_aftertouch_c, 0, 68, 28
1, 1263294, Note_on_c, 0, 68, 91
1, 1263302, Control_c, 0, 64, 27
1, 1263308, Note_off_c, 0, 69, 49
1, 1263377, Control_c, 0, 64, 13
1, 1263394, Control_c, 0, 64, 29
1, 1263414, Control_c, 0, 64, 53
1, 1263423, Note_off_c, 0, 53, 60
1, 1263431, Control_c, 0, 64, 81
1, 1263437, Note_off_c, 0, 68, 58
1, 1263440, Poly_aftertouch_c, 0, 59, 28
1, 1263444, Note_on_c, 0, 59, 58
1, 1263450, Control_c, 0, 64, 127
1, 1263509, Note_off_c, 0, 59, 56
1, 1263564, Poly_aftertouch_c, 0, 62, 28
1, 1263568, Note_on_c, 0, 62, 84
1, 1263619, Control_c, 0, 64, 114
1, 1263639, Control_c, 0, 64, 76
1, 1263657, Control_c, 0, 64, 51
1, 1263675, Control_c, 0, 64, 43
1, 1263695, Control_c, 0, 64, 48
1, 1263703, Poly_aftertouch_c, 0, 83, 28
1, 1263709, Note_on_c, 0, 83, 66
1, 1263714, Control_c, 0, 64, 60
1, 1263732, Control_c, 0, 64, 74
1, 1263751, Control_c, 0, 64, 102
1, 1263769, Control_c, 0, 64, 127
1, 1263807, Control_c, 0, 64, 118
1, 1263810, Note_off_c, 0, 83, 59
1, 1263818, Poly_aftertouch_c, 0, 65, 28
1, 1263820, Note_on_c, 0, 65, 84
1, 1263825, Control_c, 0, 64, 74
1, 1263837, Poly_aftertouch_c, 0, 80, 28
1, 1263843, Note_on_c, 0, 80, 61
1, 1263844, Control_c, 0, 64, 42
1, 1263847, Note_off_c, 0, 62, 62
1, 1263863, Control_c, 0, 64, 11
1, 1263907, Note_off_c, 0, 80, 60
1, 1263920, Control_c, 0, 64, 26
1, 1263938, Control_c, 0, 64, 52
1, 1263957, Control_c, 0, 64, 84
1, 1263958, Poly_aftertouch_c, 0, 74, 28
1, 1263961, Note_on_c, 0, 74, 60
1, 1263975, Control_c, 0, 64, 127
1, 1264033, Control_c, 0, 64, 103
1, 1264037, Note_off_c, 0, 74, 56
1, 1264051, Control_c, 0, 64, 69
1, 1264069, Control_c, 0, 64, 32
1, 1264087, Poly_aftertouch_c, 0, 64, 28
1, 1264087, Control_c, 0, 64, 0
1, 1264092, Note_on_c, 0, 64, 76
1, 1264094, Poly_aftertouch_c, 0, 72, 28
1, 1264098, Note_on_c, 0, 72, 68
1, 1264125, Note_off_c, 0, 65, 48
1, 1264163, Control_c, 0, 64, 24
1, 1264181, Control_c, 0, 64, 48
1, 1264200, Control_c, 0, 64, 73
1, 1264206, Note_off_c, 0, 64, 62
1, 1264218, Control_c, 0, 64, 100
1, 1264222, Poly_aftertouch_c, 0, 69, 28
1, 1264225, Note_on_c, 0, 69, 61
1, 1264230, Note_off_c, 0, 72, 60
1, 1264237, Control_c, 0, 64, 127
1, 1264265, Note_off_c, 0, 69, 63
1, 1264355, Poly_aftertouch_c, 0, 60, 28
1, 1264359, Note_on_c, 0, 60, 67
1, 1264451, Poly_aftertouch_c, 0, 33, 28
1, 1264456, Note_on_c, 0, 33, 59
1, 1264481, Control_c, 0, 64, 85
1, 1264500, Control_c, 0, 64, 55
1, 1264519, Control_c, 0, 64, 26
1, 1264538, Control_c, 0, 64, 14
1, 1264574, Control_c, 0, 64, 27
1, 1264592, Note_off_c, 0, 33, 57
1, 1264592, Control_c, 0, 64, 45
1, 1264606, Note_off_c, 0, 60, 60
1, 1264610, Poly_aftertouch_c, 0, 64, 28
1, 1264611, Control_c, 0, 64, 69
1, 1264615, Note_on_c, 0, 64, 70
1, 1264616, Poly_aftertouch_c, 0, 42, 28
1, 1264623, Note_on_c, 0, 42, 59
1, 1264630, Control_c, 0, 64, 92
1, 1264650, Control_c, 0, 64, 127
1, 1264706, Note_off_c, 0, 42, 59
1, 1264745, Poly_aftertouch_c, 0, 45, 28
1, 1264751, Note_on_c, 0, 45, 57
1, 1264793, Note_off_c, 0, 45, 63
1, 1264837, Control_c, 0, 64, 85
1, 1264855, Control_c, 0, 64, 56
1, 1264874, Control_c, 0, 64, 29
1, 1264891, Poly_aftertouch_c, 0, 63, 28
1, 1264892, Note_off_c, 0, 64, 62
1, 1264893, Control_c, 0, 64, 13
1, 1264898, Note_on_c, 0, 63, 71
1, 1264905, Poly_aftertouch_c, 0, 48, 28
1, 1264912, Note_on_c, 0, 48, 63
1, 1264930, Control_c, 0, 64, 17
1, 1264949, Control_c, 0, 64, 30
1, 1264967, Control_c, 0, 64, 48
1, 1264979, Note_off_c, 0, 48, 58
1, 1264986, Control_c, 0, 64, 68
1, 1265005, Control_c, 0, 64, 85
1, 1265011, Note_off_c, 0, 63, 61
1, 1265023, Control_c, 0, 64, 127
1, 1265030, Poly_aftertouch_c, 0, 54, 28
1, 1265038, Note_on_c, 0, 54, 52
1, 1265138, Note_off_c, 0, 54, 55
1, 1265143, Poly_aftertouch_c, 0, 57, 28
1, 1265149, Note_on_c, 0, 57, 63
1, 1265192, Control_c, 0, 64, 96
1, 1265211, Control_c, 0, 64, 64
1, 1265231, Control_c, 0, 64, 36
1, 1265249, Control_c, 0, 64, 19
1, 1265279, Poly_aftertouch_c, 0, 78, 28
1, 1265285, Control_c, 0, 64, 25
1, 1265289, Note_on_c, 0, 78, 55
1, 1265305, Control_c, 0, 64, 40
1, 1265323, Control_c, 0, 64, 62
1, 1265342, Control_c, 0, 64, 81
1, 1265360, Control_c, 0, 64, 119
1, 1265380, Control_c, 0, 64, 127
1, 1265417, Control_c, 0, 64, 106
1, 1265418, Note_off_c, 0, 78, 58
1, 1265423, Poly_aftertouch_c, 0, 60, 28
1, 1265425, Poly_aftertouch_c, 0, 75, 28
1, 1265427, Note_on_c, 0, 60, 61
1, 1265434, Note_on_c, 0, 75, 52
1, 1265436, Control_c, 0, 64, 75
1, 1265446, Note_off_c, 0, 57, 63
1, 1265454, Control_c, 0, 64, 51
1, 1265473, Control_c, 0, 64, 30
1, 1265492, Control_c, 0, 64, 26
1, 1265500, Note_off_c, 0, 75, 60
1, 1265530, Control_c, 0, 64, 39
1, 1265548, Control_c, 0, 64, 56
1, 1265566, Control_c, 0, 64, 72
1, 1265571, Poly_aftertouch_c, 0, 69, 28
1, 1265576, Note_on_c, 0, 69, 41
1, 1265585, Control_c, 0, 64, 90
1, 1265604, Control_c, 0, 64, 127
1, 1265679, Control_c, 0, 67, 39
1, 1265734, Control_c, 0, 64, 82
1, 1265738, Note_off_c, 0, 69, 50
1, 1265754, Control_c, 0, 64, 56
1, 1265761, Poly_aftertouch_c, 0, 68, 28
1, 1265768, Note_on_c, 0, 68, 50
1, 1265772, Note_on_c, 0, 59, 46
1, 1265772, Poly_aftertouch_c, 0, 59, 28
1, 1265773, Control_c, 0, 64, 26
1, 1265776, Note_off_c, 0, 60, 53
1, 1265848, Control_c, 0, 64, 11
1, 1265849, Control_c, 0, 67, 44
1, 1265866, Control_c, 0, 64, 24
1, 1265884, Control_c, 0, 64, 41
1, 1265904, Control_c, 0, 64, 63
1, 1265923, Control_c, 0, 64, 81
1, 1265941, Control_c, 0, 64, 106
1, 1265960, Control_c, 0, 64, 127
1, 1265961, Control_c, 0, 67, 49
1, 1265995, Poly_aftertouch_c, 0, 64, 28
1, 1266001, Note_on_c, 0, 64, 38
1, 1266056, Note_off_c, 0, 59, 37
1, 1266060, Note_off_c, 0, 68, 33
1, 1266149, Poly_aftertouch_c, 0, 52, 28
1, 1266158, Note_on_c, 0, 52, 28
1, 1266180, Note_off_c, 0, 64, 48
1, 1266209, Note_off_c, 0, 52, 45
1, 1266209, Poly_aftertouch_c, 0, 62, 28
1, 1266217, Note_on_c, 0, 62, 49
1, 1266433, Note_off_c, 0, 62, 48
1, 1266531, Poly_aftertouch_c, 0, 33, 28
1, 1266538, Note_on_c, 0, 33, 47
1, 1266559, Control_c, 0, 64, 113
1, 1266578, Control_c, 0, 64, 76
1, 1266596, Control_c, 0, 64, 46
1, 1266615, Control_c, 0, 64, 18
1, 1266633, Control_c, 0, 64, 9
1, 1266671, Control_c, 0, 64, 14
1, 1266690, Control_c, 0, 64, 24
1, 1266708, Control_c, 0, 64, 38
1, 1266728, Control_c, 0, 64, 58
1, 1266745, Control_c, 0, 64, 75
1, 1266764, Poly_aftertouch_c, 0, 40, 28
1, 1266765, Control_c, 0, 64, 92
1, 1266772, Note_on_c, 0, 40, 39
1, 1266784, Control_c, 0, 64, 127
1, 1266800, Note_off_c, 0, 33, 35
1, 1266824, Poly_aftertouch_c, 0, 60, 28
1, 1266829, Note_on_c, 0, 60, 54
1, 1266846, Note_off_c, 0, 40, 53
1, 1266913, Poly_aftertouch_c, 0, 45, 28
1, 1266919, Note_on_c, 0, 45, 46
1, 1266961, Note_off_c, 0, 45, 52
1, 1267069, Poly_aftertouch_c, 0, 48, 28
1, 1267069, Poly_aftertouch_c, 0, 59, 28
1, 1267070, Note_off_c, 0, 60, 54
1, 1267073, Note_on_c, 0, 59, 54
1, 1267076, Note_on_c, 0, 48, 42
1, 1267116, Note_off_c, 0, 59, 63
1, 1267151, Note_off_c, 0, 48, 51
1, 1267199, Poly_aftertouch_c, 0, 52, 28
1, 1267204, Note_on_c, 0, 52, 53
1, 1267241, Note_off_c, 0, 52, 52
1, 1267326, Poly_aftertouch_c, 0, 57, 28
1, 1267331, Note_on_c, 0, 57, 60
1, 1267439, Control_c, 0, 64, 83
1, 1267457, Control_c, 0, 64, 49
1, 1267476, Control_c, 0, 64, 9
1, 1267486, Poly_aftertouch_c, 0, 86, 28
1, 1267490, Note_on_c, 0, 86, 75
1, 1267493, Control_c, 0, 64, 0
1, 1267550, Control_c, 0, 64, 12
1, 1267570, Control_c, 0, 64, 26
1, 1267581, Note_off_c, 0, 57, 52
1, 1267587, Control_c, 0, 64, 48
1, 1267607, Note_off_c, 0, 86, 62
1, 1267607, Control_c, 0, 64, 71
1, 1267615, Poly_aftertouch_c, 0, 56, 28
1, 1267618, Note_on_c, 0, 56, 55
1, 1267625, Control_c, 0, 64, 89
1, 1267626, Poly_aftertouch_c, 0, 83, 28
1, 1267629, Note_on_c, 0, 83, 61
1, 1267645, Control_c, 0, 64, 127
1, 1267685, Note_off_c, 0, 83, 58
1, 1267738, Poly_aftertouch_c, 0, 77, 28
1, 1267742, Note_on_c, 0, 77, 58
1, 1267778, Note_off_c, 0, 77, 63
1, 1267844, Poly_aftertouch_c, 0, 65, 28
1, 1267851, Note_on_c, 0, 65, 63
1, 1267855, Poly_aftertouch_c, 0, 74, 28
1, 1267862, Note_on_c, 0, 74, 67
1, 1267890, Note_off_c, 0, 65, 67
1, 1267924, Note_off_c, 0, 56, 60
1, 1267967, Poly_aftertouch_c, 0, 71, 28
1, 1267968, Note_off_c, 0, 74, 59
1, 1267972, Note_on_c, 0, 71, 60
1, 1268010, Note_off_c, 0, 71, 66
1, 1268017, Control_c, 0, 67, 45
1, 1268103, Poly_aftertouch_c, 0, 63, 28
1, 1268110, Note_on_c, 0, 63, 67
1, 1268217, Poly_aftertouch_c, 0, 36, 28
1, 1268221, Note_on_c, 0, 36, 56
1, 1268225, Control_c, 0, 64, 80
1, 1268244, Control_c, 0, 64, 53
1, 1268264, Control_c, 0, 64, 28
1, 1268271, Note_off_c, 0, 63, 61
1, 1268280, Control_c, 0, 64, 18
1, 1268318, Control_c, 0, 64, 24
1, 1268337, Control_c, 0, 64, 35
1, 1268348, Poly_aftertouch_c, 0, 45, 28
1, 1268351, Note_off_c, 0, 36, 50
1, 1268353, Note_on_c, 0, 45, 51
1, 1268354, Control_c, 0, 64, 51
1, 1268367, Poly_aftertouch_c, 0, 64, 28
1, 1268373, Note_on_c, 0, 64, 64
1, 1268375, Control_c, 0, 64, 68
1, 1268394, Control_c, 0, 64, 81
1, 1268414, Control_c, 0, 64, 98
1, 1268423, Note_off_c, 0, 45, 61
1, 1268429, Control_c, 0, 64, 116
1, 1268450, Control_c, 0, 64, 124
1, 1268455, Poly_aftertouch_c, 0, 48, 28
1, 1268459, Note_on_c, 0, 48, 55
1, 1268502, Note_off_c, 0, 48, 63
1, 1268586, Poly_aftertouch_c, 0, 52, 28
1, 1268589, Note_on_c, 0, 52, 61
1, 1268593, Poly_aftertouch_c, 0, 62, 28
1, 1268597, Note_on_c, 0, 62, 70
1, 1268608, Note_off_c, 0, 64, 58
1, 1268644, Note_off_c, 0, 62, 59
1, 1268647, Note_off_c, 0, 52, 55
1, 1268692, Poly_aftertouch_c, 0, 57, 28
1, 1268697, Note_on_c, 0, 57, 68
1, 1268739, Note_off_c, 0, 57, 64
1, 1268797, Poly_aftertouch_c, 0, 60, 28
1, 1268801, Note_on_c, 0, 60, 78
1, 1268898, Control_c, 0, 64, 111
1, 1268917, Control_c, 0, 64, 69
1, 1268937, Control_c, 0, 64, 34
1, 1268955, Poly_aftertouch_c, 0, 90, 28
1, 1268957, Note_on_c, 0, 90, 91
1, 1268974, Control_c, 0, 64, 0
1, 1269010, Control_c, 0, 64, 8
1, 1269029, Control_c, 0, 64, 20
1, 1269035, Note_off_c, 0, 60, 59
1, 1269049, Control_c, 0, 64, 38
1, 1269067, Control_c, 0, 64, 65
1, 1269073, Poly_aftertouch_c, 0, 87, 28
1, 1269078, Note_off_c, 0, 90, 64
1, 1269080, Note_on_c, 0, 87, 77
1, 1269086, Control_c, 0, 64, 92
1, 1269087, Poly_aftertouch_c, 0, 59, 28
1, 1269090, Note_on_c, 0, 59, 67
1, 1269104, Control_c, 0, 64, 127
1, 1269157, Note_off_c, 0, 87, 65
1, 1269186, Poly_aftertouch_c, 0, 81, 28
1, 1269188, Note_on_c, 0, 81, 70
1, 1269232, Note_off_c, 0, 81, 59
1, 1269255, Control_c, 0, 64, 80
1, 1269273, Control_c, 0, 64, 55
1, 1269291, Control_c, 0, 64, 42
1, 1269308, Note_on_c, 0, 69, 68
1, 1269308, Poly_aftertouch_c, 0, 69, 28
1, 1269309, Poly_aftertouch_c, 0, 78, 28
1, 1269316, Note_on_c, 0, 78, 76
1, 1269330, Control_c, 0, 64, 49
1, 1269348, Control_c, 0, 64, 59
1, 1269361, Note_off_c, 0, 69, 60
1, 1269368, Control_c, 0, 64, 71
1, 1269385, Control_c, 0, 64, 86
1, 1269400, Note_off_c, 0, 59, 62
1, 1269402, Control_c, 0, 64, 127
1, 1269421, Poly_aftertouch_c, 0, 75, 28
1, 1269428, Note_on_c, 0, 75, 67
1, 1269448, Note_off_c, 0, 78, 61
1, 1269460, Control_c, 0, 67, 41
1, 1269494, Note_off_c, 0, 75, 60
1, 1269556, Poly_aftertouch_c, 0, 66, 28
1, 1269563, Note_on_c, 0, 66, 72
1, 1269647, Control_c, 0, 64, 110
1, 1269665, Poly_aftertouch_c, 0, 40, 28
1, 1269665, Control_c, 0, 64, 72
1, 1269672, Note_on_c, 0, 40, 52
1, 1269684, Control_c, 0, 64, 43
1, 1269704, Control_c, 0, 64, 16
1, 1269722, Control_c, 0, 64, 9
1, 1269760, Control_c, 0, 64, 16
1, 1269770, Note_off_c, 0, 40, 52
1, 1269774, Poly_aftertouch_c, 0, 47, 28
1, 1269777, Control_c, 0, 64, 30
1, 1269783, Note_on_c, 0, 47, 47
1, 1269797, Control_c, 0, 64, 49
1, 1269799, Note_off_c, 0, 66, 59
1, 1269800, Poly_aftertouch_c, 0, 69, 28
1, 1269803, Note_on_c, 0, 69, 69
1, 1269815, Control_c, 0, 64, 73
1, 1269833, Note_off_c, 0, 47, 61
1, 1269835, Control_c, 0, 64, 104
1, 1269853, Control_c, 0, 64, 127
1, 1269874, Poly_aftertouch_c, 0, 52, 28
1, 1269880, Note_on_c, 0, 52, 60
1, 1269937, Note_off_c, 0, 52, 58
1, 1269946, Control_c, 0, 64, 110
1, 1269967, Control_c, 0, 64, 73
1, 1269984, Control_c, 0, 64, 45
1, 1270003, Control_c, 0, 64, 24
1, 1270018, Poly_aftertouch_c, 0, 68, 28
1, 1270022, Poly_aftertouch_c, 0, 53, 28
1, 1270022, Control_c, 0, 64, 19
1, 1270026, Note_on_c, 0, 53, 55
1, 1270027, Note_on_c, 0, 68, 63
1, 1270029, Note_off_c, 0, 69, 60
1, 1270059, Control_c, 0, 64, 33
1, 1270078, Control_c, 0, 64, 51
1, 1270089, Note_off_c, 0, 53, 59
1, 1270094, Control_c, 0, 64, 72
1, 1270105, Note_off_c, 0, 68, 61
1, 1270115, Control_c, 0, 64, 96
1, 1270135, Control_c, 0, 64, 127
1, 1270147, Poly_aftertouch_c, 0, 59, 28
1, 1270149, Note_on_c, 0, 59, 56
1, 1270190, Note_off_c, 0, 59, 63
1, 1270253, Poly_aftertouch_c, 0, 62, 28
1, 1270255, Note_on_c, 0, 62, 62
1, 1270321, Control_c, 0, 64, 81
1, 1270340, Control_c, 0, 64, 50
1, 1270358, Control_c, 0, 64, 18
1, 1270377, Poly_aftertouch_c, 0, 83, 28
1, 1270379, Note_on_c, 0, 83, 81
1, 1270414, Control_c, 0, 64, 12
1, 1270433, Control_c, 0, 64, 25
1, 1270452, Control_c, 0, 64, 42
1, 1270471, Control_c, 0, 64, 64
1, 1270487, Note_off_c, 0, 62, 55
1, 1270488, Control_c, 0, 64, 81
1, 1270504, Poly_aftertouch_c, 0, 65, 28
1, 1270505, Note_off_c, 0, 83, 61
1, 1270508, Control_c, 0, 64, 107
1, 1270512, Note_on_c, 0, 65, 52
1, 1270519, Poly_aftertouch_c, 0, 80, 28
1, 1270527, Control_c, 0, 64, 127
1, 1270531, Note_on_c, 0, 80, 59
1, 1270617, Note_off_c, 0, 80, 63
1, 1270657, Poly_aftertouch_c, 0, 74, 28
1, 1270659, Note_on_c, 0, 74, 56
1, 1270729, Note_off_c, 0, 74, 60
1, 1270793, Poly_aftertouch_c, 0, 64, 28
1, 1270800, Note_on_c, 0, 64, 51
1, 1270812, Note_off_c, 0, 65, 49
1, 1270864, Control_c, 0, 64, 100
1, 1270883, Control_c, 0, 64, 67
1, 1270899, Poly_aftertouch_c, 0, 72, 28
1, 1270900, Control_c, 0, 64, 35
1, 1270904, Note_on_c, 0, 72, 74
1, 1270996, Control_c, 0, 64, 17
1, 1271014, Control_c, 0, 64, 33
1, 1271033, Control_c, 0, 64, 58
1, 1271044, Note_off_c, 0, 64, 60
1, 1271051, Control_c, 0, 64, 82
1, 1271070, Control_c, 0, 64, 127
1, 1271113, Note_off_c, 0, 72, 58
1, 1271116, Poly_aftertouch_c, 0, 69, 28
1, 1271120, Note_on_c, 0, 69, 53
1, 1271160, Note_off_c, 0, 69, 61
1, 1271296, Poly_aftertouch_c, 0, 60, 28
1, 1271302, Note_on_c, 0, 60, 42
1, 1271368, Poly_aftertouch_c, 0, 33, 28
1, 1271373, Note_on_c, 0, 33, 41
1, 1271464, Control_c, 0, 64, 114
1, 1271472, Note_off_c, 0, 60, 47
1, 1271482, Control_c, 0, 64, 80
1, 1271490, Note_off_c, 0, 33, 53
1, 1271500, Control_c, 0, 64, 61
1, 1271504, Poly_aftertouch_c, 0, 42, 28
1, 1271511, Note_on_c, 0, 42, 46
1, 1271511, Poly_aftertouch_c, 0, 64, 28
1, 1271517, Note_on_c, 0, 64, 51
1, 1271519, Control_c, 0, 64, 56
1, 1271538, Control_c, 0, 64, 60
1, 1271557, Control_c, 0, 64, 66
1, 1271566, Note_off_c, 0, 42, 59
1, 1271574, Control_c, 0, 64, 75
1, 1271594, Control_c, 0, 64, 89
1, 1271613, Poly_aftertouch_c, 0, 45, 28
1, 1271613, Control_c, 0, 64, 127
1, 1271622, Note_on_c, 0, 45, 41
1, 1271664, Note_off_c, 0, 45, 50
1, 1271706, Control_c, 0, 64, 99
1, 1271725, Control_c, 0, 64, 72
1, 1271745, Note_off_c, 0, 64, 59
1, 1271745, Poly_aftertouch_c, 0, 63, 28
1, 1271745, Control_c, 0, 64, 55
1, 1271751, Note_on_c, 0, 63, 55
1, 1271763, Poly_aftertouch_c, 0, 48, 28
1, 1271763, Control_c, 0, 64, 50
1, 1271768, Note_on_c, 0, 48, 43
1, 1271781, Control_c, 0, 64, 54
1, 1271800, Control_c, 0, 64, 62
1, 1271806, Note_off_c, 0, 48, 55
1, 1271818, Control_c, 0, 64, 70
1, 1271837, Control_c, 0, 64, 79
1, 1271851, Note_off_c, 0, 63, 57
1, 1271855, Control_c, 0, 64, 93
1, 1271862, Poly_aftertouch_c, 0, 54, 28
1, 1271872, Note_on_c, 0, 54, 52
1, 1271873, Control_c, 0, 64, 122
1, 1271893, Control_c, 0, 64, 127
1, 1271943, Note_off_c, 0, 54, 58
1, 1272009, Poly_aftertouch_c, 0, 57, 28
1, 1272013, Note_on_c, 0, 57, 49
1, 1272118, Control_c, 0, 64, 95
1, 1272138, Control_c, 0, 64, 68
1, 1272155, Control_c, 0, 64, 44
1, 1272156, Poly_aftertouch_c, 0, 78, 28
1, 1272164, Note_on_c, 0, 78, 72
1, 1272175, Control_c, 0, 64, 24
1, 1272194, Control_c, 0, 64, 19
1, 1272232, Control_c, 0, 64, 25
1, 1272233, Control_c, 0, 67, 45
1, 1272249, Control_c, 0, 64, 37
1, 1272267, Control_c, 0, 64, 57
1, 1272286, Control_c, 0, 64, 75
1, 1272305, Control_c, 0, 64, 97
1, 1272323, Control_c, 0, 64, 127
1, 1272342, Poly_aftertouch_c, 0, 75, 28
1, 1272352, Note_off_c, 0, 78, 49
1, 1272352, Note_on_c, 0, 75, 48
1, 1272385, Poly_aftertouch_c, 0, 60, 28
1, 1272391, Note_on_c, 0, 60, 38
1, 1272394, Note_off_c, 0, 57, 32
1, 1272436, Control_c, 0, 67, 49
1, 1272465, Note_off_c, 0, 75, 59
1, 1272506, Poly_aftertouch_c, 0, 69, 28
1, 1272510, Note_on_c, 0, 69, 41
1, 1272586, Control_c, 0, 67, 54
1, 1272623, Control_c, 0, 67, 59
1, 1272666, Note_off_c, 0, 69, 33
1, 1272680, Control_c, 0, 67, 63
1, 1272705, Note_on_c, 0, 59, 36
1, 1272705, Poly_aftertouch_c, 0, 59, 28
1, 1272754, Control_c, 0, 67, 68
1, 1272786, Note_off_c, 0, 60, 34
1, 1272811, Control_c, 0, 67, 73
1, 1272818, Poly_aftertouch_c, 0, 68, 28
1, 1272826, Note_on_c, 0, 68, 63
1, 1272847, Control_c, 0, 64, 107
1, 1272867, Control_c, 0, 64, 82
1, 1272868, Control_c, 0, 67, 79
1, 1272886, Control_c, 0, 64, 61
1, 1272905, Control_c, 0, 64, 39
1, 1272906, Control_c, 0, 67, 87
1, 1272923, Control_c, 0, 64, 21
1, 1272924, Control_c, 0, 67, 93
1, 1272942, Control_c, 0, 64, 14
1, 1272944, Control_c, 0, 67, 99
1, 1272961, Control_c, 0, 67, 105
1, 1272979, Control_c, 0, 67, 110
1, 1272998, Control_c, 0, 67, 114
1, 1273017, Control_c, 0, 64, 22
1, 1273035, Control_c, 0, 64, 33
1, 1273035, Control_c, 0, 67, 119
1, 1273054, Control_c, 0, 64, 52
1, 1273073, Control_c, 0, 64, 73
1, 1273092, Control_c, 0, 64, 94
1, 1273094, Control_c, 0, 67, 125
1, 1273109, Control_c, 0, 64, 127
1, 1273136, Poly_aftertouch_c, 0, 64, 28
1, 1273142, Note_on_c, 0, 64, 38
1, 1273223, Note_off_c, 0, 59, 37
1, 1273248, Poly_aftertouch_c, 0, 52, 28
1, 1273254, Note_on_c, 0, 52, 36
1, 1273367, Note_off_c, 0, 52, 49
1, 1273450, Poly_aftertouch_c, 0, 62, 28
1, 1273456, Note_on_c, 0, 62, 40
1, 1273487, Note_off_c, 0, 64, 37
1, 1273652, Note_off_c, 0, 62, 33
1, 1273778, Note_off_c, 0, 68, 39
1, 1273858, Poly_aftertouch_c, 0, 40, 28
1, 1273866, Note_on_c, 0, 40, 46
1, 1274188, Poly_aftertouch_c, 0, 45, 28
1, 1274194, Note_on_c, 0, 45, 40
1, 1274215, Control_c, 0, 64, 85
1, 1274233, Control_c, 0, 64, 57
1, 1274251, Control_c, 0, 64, 34
1, 1274268, Poly_aftertouch_c, 0, 72, 28
1, 1274271, Note_on_c, 0, 72, 82
1, 1274271, Control_c, 0, 64, 25
1, 1274300, Poly_aftertouch_c, 0, 69, 28
1, 1274305, Note_on_c, 0, 69, 45
1, 1274314, Poly_aftertouch_c, 0, 60, 28
1, 1274319, Note_on_c, 0, 60, 34
1, 1274326, Control_c, 0, 64, 36
1, 1274346, Control_c, 0, 64, 50
1, 1274355, Note_off_c, 0, 40, 45
1, 1274363, Control_c, 0, 64, 67
1, 1274383, Control_c, 0, 64, 85
1, 1274385, Control_c, 0, 67, 120
1, 1274402, Control_c, 0, 64, 127
1, 1274434, Note_off_c, 0, 45, 56
1, 1274439, Control_c, 0, 67, 115
1, 1274447, Note_off_c, 0, 69, 55
1, 1274458, Poly_aftertouch_c, 0, 48, 28
1, 1274464, Note_on_c, 0, 48, 47
1, 1274477, Control_c, 0, 67, 110
1, 1274488, Note_off_c, 0, 60, 39
1, 1274506, Note_off_c, 0, 48, 56
1, 1274636, Poly_aftertouch_c, 0, 52, 28
1, 1274641, Note_on_c, 0, 52, 54
1, 1274664, Control_c, 0, 64, 86
1, 1274683, Control_c, 0, 64, 60
1, 1274693, Poly_aftertouch_c, 0, 71, 28
1, 1274697, Note_on_c, 0, 71, 71
1, 1274699, Control_c, 0, 64, 38
1, 1274704, Poly_aftertouch_c, 0, 68, 28
1, 1274714, Note_on_c, 0, 68, 55
1, 1274715, Note_off_c, 0, 72, 48
1, 1274720, Note_on_c, 0, 59, 37
1, 1274720, Poly_aftertouch_c, 0, 59, 28
1, 1274720, Control_c, 0, 64, 31
1, 1274758, Note_off_c, 0, 59, 56
1, 1274758, Control_c, 0, 64, 40
1, 1274775, Control_c, 0, 64, 55
1, 1274786, Note_off_c, 0, 52, 55
1, 1274794, Control_c, 0, 64, 71
1, 1274814, Control_c, 0, 64, 89
1, 1274816, Control_c, 0, 67, 105
1, 1274831, Control_c, 0, 64, 127
1, 1274833, Poly_aftertouch_c, 0, 56, 28
1, 1274842, Note_on_c, 0, 56, 51
1, 1274845, Note_off_c, 0, 68, 55
1, 1274869, Control_c, 0, 67, 100
1, 1274880, Note_off_c, 0, 71, 62
1, 1274945, Note_off_c, 0, 56, 47
1, 1274969, Poly_aftertouch_c, 0, 64, 28
1, 1274972, Note_on_c, 0, 64, 70
1, 1274980, Control_c, 0, 67, 96
1, 1274995, Poly_aftertouch_c, 0, 52, 28
1, 1275001, Note_on_c, 0, 52, 42
1, 1275019, Control_c, 0, 67, 91
1, 1275054, Note_off_c, 0, 52, 46
1, 1275055, Control_c, 0, 67, 86
1, 1275070, Note_off_c, 0, 64, 60
1, 1275081, Poly_aftertouch_c, 0, 86, 28
1, 1275086, Note_on_c, 0, 86, 62
1, 1275112, Control_c, 0, 67, 81
1, 1275183, Poly_aftertouch_c, 0, 65, 28
1, 1275189, Note_on_c, 0, 65, 80
1, 1275189, Control_c, 0, 64, 108
1, 1275190, Note_off_c, 0, 86, 60
1, 1275207, Control_c, 0, 64, 76
1, 1275209, Poly_aftertouch_c, 0, 53, 28
1, 1275211, Note_on_c, 0, 53, 63
1, 1275211, Poly_aftertouch_c, 0, 83, 28
1, 1275211, Control_c, 0, 67, 76
1, 1275215, Note_on_c, 0, 83, 62
1, 1275226, Control_c, 0, 64, 56
1, 1275244, Control_c, 0, 64, 48
1, 1275245, Control_c, 0, 67, 71
1, 1275264, Control_c, 0, 64, 51
1, 1275265, Control_c, 0, 67, 66
1, 1275282, Control_c, 0, 64, 59
1, 1275283, Control_c, 0, 67, 61
1, 1275300, Control_c, 0, 64, 69
1, 1275302, Control_c, 0, 67, 53
1, 1275317, Note_off_c, 0, 65, 56
1, 1275318, Control_c, 0, 64, 84
1, 1275320, Control_c, 0, 67, 46
1, 1275327, Poly_aftertouch_c, 0, 80, 28
1, 1275335, Note_on_c, 0, 80, 60
1, 1275336, Note_off_c, 0, 83, 53
1, 1275336, Control_c, 0, 64, 127
1, 1275337, Control_c, 0, 67, 39
1, 1275357, Control_c, 0, 67, 32
1, 1275374, Control_c, 0, 67, 25
1, 1275394, Control_c, 0, 67, 19
1, 1275413, Control_c, 0, 67, 14
1, 1275438, Note_off_c, 0, 80, 63
1, 1275449, Control_c, 0, 67, 9
1, 1275470, Control_c, 0, 64, 82
1, 1275471, Note_off_c, 0, 53, 59
1, 1275475, Poly_aftertouch_c, 0, 64, 28
1, 1275481, Note_on_c, 0, 64, 73
1, 1275487, Poly_aftertouch_c, 0, 74, 28
1, 1275489, Control_c, 0, 64, 56
1, 1275492, Poly_aftertouch_c, 0, 52, 28
1, 1275494, Note_on_c, 0, 52, 59
1, 1275495, Note_on_c, 0, 74, 53
1, 1275508, Control_c, 0, 64, 40
1, 1275509, Control_c, 0, 67, 0
1, 1275544, Control_c, 0, 64, 45
1, 1275562, Control_c, 0, 64, 58
1, 1275581, Control_c, 0, 64, 72
1, 1275583, Note_off_c, 0, 52, 60
1, 1275600, Control_c, 0, 64, 92
1, 1275618, Control_c, 0, 64, 127
1, 1275632, Note_off_c, 0, 64, 61
1, 1275656, Note_off_c, 0, 74, 54
1, 1275673, Poly_aftertouch_c, 0, 71, 28
1, 1275681, Note_on_c, 0, 71, 34
1, 1275770, Note_off_c, 0, 71, 56
1, 1275829, Poly_aftertouch_c, 0, 65, 28
1, 1275833, Poly_aftertouch_c, 0, 62, 28
1, 1275836, Note_on_c, 0, 65, 61
1, 1275840, Note_on_c, 0, 62, 57
1, 1275859, Poly_aftertouch_c, 0, 53, 28
1, 1275865, Note_on_c, 0, 53, 43
1, 1275873, Note_off_c, 0, 65, 65
1, 1275877, Note_off_c, 0, 62, 64
1, 1275903, Note_off_c, 0, 53, 59
1, 1276079, Poly_aftertouch_c, 0, 42, 28
1, 1276088, Note_on_c, 0, 42, 57
1, 1276162, Control_c, 0, 64, 83
1, 1276180, Control_c, 0, 64, 48
1, 1276198, Control_c, 0, 64, 14
1, 1276218, Control_c, 0, 64, 8
1, 1276285, Poly_aftertouch_c, 0, 74, 28
1, 1276289, Poly_aftertouch_c, 0, 47, 28
1, 1276290, Note_on_c, 0, 74, 81
1, 1276291, Control_c, 0, 64, 17
1, 1276296, Note_on_c, 0, 47, 51
1, 1276299, Note_off_c, 0, 42, 59
1, 1276310, Control_c, 0, 64, 26
1, 1276312, Poly_aftertouch_c, 0, 62, 28
1, 1276313, Poly_aftertouch_c, 0, 71, 28
1, 1276317, Note_on_c, 0, 71, 62
1, 1276318, Note_on_c, 0, 62, 58
1, 1276330, Control_c, 0, 64, 40
1, 1276348, Control_c, 0, 64, 58
1, 1276367, Control_c, 0, 64, 73
1, 1276385, Control_c, 0, 64, 87
1, 1276405, Note_off_c, 0, 62, 48
1, 1276405, Control_c, 0, 64, 110
1, 1276423, Control_c, 0, 64, 127
1, 1276429, Note_off_c, 0, 47, 59
1, 1276445, Note_off_c, 0, 71, 59
1, 1276462, Poly_aftertouch_c, 0, 50, 28
1, 1276470, Note_on_c, 0, 50, 62
1, 1276513, Note_off_c, 0, 50, 64
1, 1276647, Control_c, 0, 64, 89
1, 1276666, Poly_aftertouch_c, 0, 73, 28
1, 1276667, Control_c, 0, 64, 63
1, 1276672, Note_on_c, 0, 73, 83
1, 1276676, Poly_aftertouch_c, 0, 54, 28
1, 1276679, Note_on_c, 0, 54, 62
1, 1276684, Note_on_c, 0, 61, 63
1, 1276685, Poly_aftertouch_c, 0, 61, 28
1, 1276685, Control_c, 0, 64, 44
1, 1276686, Poly_aftertouch_c, 0, 70, 28
1, 1276694, Note_on_c, 0, 70, 68
1, 1276703, Control_c, 0, 64, 39
1, 1276712, Note_off_c, 0, 74, 63
1, 1276719, Note_off_c, 0, 61, 63
1, 1276723, Control_c, 0, 64, 41
1, 1276741, Control_c, 0, 64, 50
1, 1276760, Control_c, 0, 64, 64
1, 1276779, Control_c, 0, 64, 81
1, 1276797, Control_c, 0, 64, 127
1, 1276801, Note_off_c, 0, 70, 58
1, 1276808, Note_off_c, 0, 54, 61
1, 1276809, Poly_aftertouch_c, 0, 58, 28
1, 1276816, Note_on_c, 0, 58, 71
1, 1276833, Note_off_c, 0, 73, 64
1, 1276937, Poly_aftertouch_c, 0, 66, 28
1, 1276941, Note_on_c, 0, 66, 79
1, 1276947, Note_off_c, 0, 58, 60
1, 1276947, Poly_aftertouch_c, 0, 54, 28
1, 1276952, Note_on_c, 0, 54, 73
1, 1277037, Note_off_c, 0, 54, 61
1, 1277043, Poly_aftertouch_c, 0, 88, 28
1, 1277045, Note_on_c, 0, 88, 82
1, 1277047, Note_off_c, 0, 66, 54
1, 1277169, Poly_aftertouch_c, 0, 85, 28
1, 1277172, Control_c, 0, 64, 102
1, 1277175, Note_on_c, 0, 85, 80
1, 1277180, Note_on_c, 0, 67, 87
1, 1277182, Poly_aftertouch_c, 0, 67, 28
1, 1277183, Note_off_c, 0, 88, 64
1, 1277186, Note_on_c, 0, 55, 81
1, 1277186, Poly_aftertouch_c, 0, 55, 28
1, 1277192, Control_c, 0, 64, 68
1, 1277210, Control_c, 0, 64, 41
1, 1277229, Control_c, 0, 64, 26
1, 1277265, Control_c, 0, 64, 32
1, 1277285, Control_c, 0, 64, 47
1, 1277301, Note_off_c, 0, 55, 62
1, 1277302, Control_c, 0, 64, 69
1, 1277306, Poly_aftertouch_c, 0, 82, 28
1, 1277311, Note_on_c, 0, 82, 76
1, 1277312, Note_off_c, 0, 67, 57
1, 1277320, Control_c, 0, 64, 94
1, 1277340, Control_c, 0, 64, 127
1, 1277367, Note_off_c, 0, 85, 62
1, 1277427, Note_off_c, 0, 82, 65
1, 1277458, Poly_aftertouch_c, 0, 66, 28
1, 1277460, Note_on_c, 0, 66, 93
1, 1277463, Note_on_c, 0, 76, 81
1, 1277464, Poly_aftertouch_c, 0, 54, 28
1, 1277465, Note_on_c, 0, 54, 87
1, 1277467, Poly_aftertouch_c, 0, 76, 28
1, 1277534, Note_off_c, 0, 54, 59
1, 1277551, Note_off_c, 0, 66, 43
1, 1277659, Poly_aftertouch_c, 0, 74, 28
1, 1277662, Note_on_c, 0, 74, 71
1, 1277683, Note_off_c, 0, 76, 52
1, 1277786, Note_off_c, 0, 74, 53
1, 1277825, Poly_aftertouch_c, 0, 55, 28
1, 1277826, Poly_aftertouch_c, 0, 64, 28
1, 1277827, Poly_aftertouch_c, 0, 67, 28
1, 1277829, Note_on_c, 0, 64, 80
1, 1277830, Note_on_c, 0, 55, 84
1, 1277832, Note_on_c, 0, 67, 76
1, 1277858, Note_off_c, 0, 64, 70
1, 1277866, Note_off_c, 0, 67, 65
1, 1277890, Note_off_c, 0, 55, 66
1, 1278110, Poly_aftertouch_c, 0, 28, 28
1, 1278113, Note_on_c, 0, 28, 94
1, 1278146, Control_c, 0, 64, 88
1, 1278165, Control_c, 0, 64, 57
1, 1278183, Control_c, 0, 64, 28
1, 1278202, Control_c, 0, 64, 19
1, 1278239, Control_c, 0, 64, 28
1, 1278258, Control_c, 0, 64, 41
1, 1278276, Control_c, 0, 64, 61
1, 1278295, Control_c, 0, 64, 80
1, 1278314, Control_c, 0, 64, 112
1, 1278317, Note_off_c, 0, 28, 62
1, 1278333, Control_c, 0, 64, 127
1, 1278347, Poly_aftertouch_c, 0, 40, 28
1, 1278351, Poly_aftertouch_c, 0, 68, 28
1, 1278352, Note_on_c, 0, 40, 68
1, 1278356, Note_on_c, 0, 68, 84
1, 1278361, Poly_aftertouch_c, 0, 56, 28
1, 1278362, Poly_aftertouch_c, 0, 64, 28
1, 1278365, Note_on_c, 0, 64, 74
1, 1278369, Note_on_c, 0, 56, 76
1, 1278370, Note_on_c, 0, 61, 74
1, 1278372, Poly_aftertouch_c, 0, 61, 28
1, 1278387, Note_off_c, 0, 40, 64
1, 1278457, Note_off_c, 0, 64, 59
1, 1278464, Note_off_c, 0, 61, 52
1, 1278468, Note_off_c, 0, 56, 54
1, 1278531, Poly_aftertouch_c, 0, 44, 28
1, 1278534, Note_on_c, 0, 44, 77
1, 1278567, Note_off_c, 0, 68, 28
1, 1278671, Poly_aftertouch_c, 0, 67, 28
1, 1278677, Poly_aftertouch_c, 0, 49, 28
1, 1278677, Poly_aftertouch_c, 0, 55, 28
1, 1278678, Poly_aftertouch_c, 0, 61, 28
1, 1278678, Poly_aftertouch_c, 0, 63, 28
1, 1278679, Note_on_c, 0, 67, 88
1, 1278681, Note_on_c, 0, 55, 83
1, 1278682, Note_on_c, 0, 49, 80
1, 1278683, Note_on_c, 0, 61, 81
1, 1278684, Note_on_c, 0, 63, 84
1, 1278690, Note_off_c, 0, 44, 59
1, 1278707, Note_off_c, 0, 55, 70
1, 1278744, Note_off_c, 0, 61, 62
1, 1278750, Note_off_c, 0, 63, 64
1, 1278754, Note_off_c, 0, 67, 64
1, 1278780, Note_off_c, 0, 49, 62
1, 1278793, Poly_aftertouch_c, 0, 52, 28
1, 1278795, Note_on_c, 0, 52, 65
1, 1278824, Note_off_c, 0, 52, 59
1, 1278958, Poly_aftertouch_c, 0, 64, 28
1, 1278960, Poly_aftertouch_c, 0, 68, 28
1, 1278963, Note_on_c, 0, 64, 81
1, 1278964, Note_on_c, 0, 61, 81
1, 1278966, Note_on_c, 0, 68, 90
1, 1278967, Poly_aftertouch_c, 0, 61, 28
1, 1278973, Note_on_c, 0, 56, 69
1, 1278974, Poly_aftertouch_c, 0, 56, 28
1, 1278998, Note_off_c, 0, 61, 62
1, 1279006, Note_off_c, 0, 56, 69
1, 1279014, Note_off_c, 0, 64, 56
1, 1279015, Note_off_c, 0, 68, 52
1, 1279086, Poly_aftertouch_c, 0, 80, 28
1, 1279087, Poly_aftertouch_c, 0, 92, 28
1, 1279088, Note_on_c, 0, 80, 83
1, 1279090, Note_on_c, 0, 92, 89
1, 1279166, Note_off_c, 0, 80, 64
1, 1279175, Control_c, 0, 64, 99
1, 1279193, Control_c, 0, 64, 61
1, 1279206, Poly_aftertouch_c, 0, 68, 28
1, 1279211, Control_c, 0, 64, 21
1, 1279212, Note_on_c, 0, 68, 90
1, 1279214, Poly_aftertouch_c, 0, 71, 28
1, 1279216, Note_on_c, 0, 71, 90
1, 1279218, Note_on_c, 0, 62, 80
1, 1279219, Note_on_c, 0, 59, 81
1, 1279221, Poly_aftertouch_c, 0, 59, 28
1, 1279222, Poly_aftertouch_c, 0, 62, 28
1, 1279224, Poly_aftertouch_c, 0, 86, 28
1, 1279229, Note_on_c, 0, 86, 93
1, 1279229, Control_c, 0, 64, 0
1, 1279253, Note_off_c, 0, 92, 64
1, 1279270, Control_c, 0, 64, 13
1, 1279287, Control_c, 0, 64, 32
1, 1279290, Note_off_c, 0, 71, 56
1, 1279292, Note_off_c, 0, 59, 60
1, 1279297, Note_off_c, 0, 68, 64
1, 1279305, Note_off_c, 0, 62, 59
1, 1279305, Control_c, 0, 64, 62
1, 1279324, Control_c, 0, 64, 97
1, 1279343, Control_c, 0, 64, 127
1, 1279374, Poly_aftertouch_c, 0, 83, 28
1, 1279377, Note_on_c, 0, 83, 90
1, 1279399, Note_off_c, 0, 86, 60
1, 1279538, Note_off_c, 0, 83, 62
1, 1279541, Poly_aftertouch_c, 0, 80, 28
1, 1279546, Poly_aftertouch_c, 0, 68, 28
1, 1279546, Poly_aftertouch_c, 0, 70, 28
1, 1279550, Note_on_c, 0, 80, 102
1, 1279553, Note_on_c, 0, 70, 97
1, 1279553, Note_on_c, 0, 68, 96
1, 1279555, Note_on_c, 0, 58, 86
1, 1279555, Note_on_c, 0, 62, 81
1, 1279558, Poly_aftertouch_c, 0, 58, 28
1, 1279559, Poly_aftertouch_c, 0, 62, 28
1, 1279586, Note_off_c, 0, 58, 70
1, 1279587, Note_off_c, 0, 62, 68
1, 1279600, Note_off_c, 0, 68, 66
1, 1279609, Note_off_c, 0, 80, 67
1, 1279615, Note_off_c, 0, 70, 62
1, 1279755, Poly_aftertouch_c, 0, 76, 28
1, 1279757, Note_on_c, 0, 76, 77
1, 1279765, Note_on_c, 0, 74, 80
1, 1279766, Poly_aftertouch_c, 0, 74, 28
1, 1279779, Note_off_c, 0, 74, 69
1, 1279784, Note_off_c, 0, 76, 70
1, 1279955, Poly_aftertouch_c, 0, 74, 28
1, 1279957, Poly_aftertouch_c, 0, 74, 0
1, 1280007, Poly_aftertouch_c, 0, 71, 28
1, 1280011, Note_on_c, 0, 71, 95
1, 1280013, Poly_aftertouch_c, 0, 59, 28
1, 1280013, Poly_aftertouch_c, 0, 62, 28
1, 1280015, Note_on_c, 0, 62, 87
1, 1280016, Note_on_c, 0, 59, 91
1, 1280017, Note_on_c, 0, 68, 88
1, 1280018, Poly_aftertouch_c, 0, 68, 28
1, 1280169, Note_off_c, 0, 59, 55
1, 1280202, Note_off_c, 0, 62, 54
1, 1280260, Note_off_c, 0, 71, 63
1, 1280275, Note_off_c, 0, 68, 65
1, 1280295, Poly_aftertouch_c, 0, 26, 28
1, 1280301, Note_on_c, 0, 26, 104
1, 1280337, Control_c, 0, 64, 89
1, 1280354, Control_c, 0, 64, 51
1, 1280373, Control_c, 0, 64, 0
1, 1280447, Control_c, 0, 64, 21
1, 1280466, Control_c, 0, 64, 43
1, 1280484, Control_c, 0, 64, 73
1, 1280504, Control_c, 0, 64, 127
1, 1280582, Poly_aftertouch_c, 0, 38, 28
1, 1280586, Note_on_c, 0, 38, 84
1, 1280587, Note_off_c, 0, 26, 61
1, 1280648, Note_off_c, 0, 38, 63
1, 1280680, Poly_aftertouch_c, 0, 89, 28
1, 1280683, Note_on_c, 0, 89, 103
1, 1280685, Poly_aftertouch_c, 0, 83, 28
1, 1280687, Note_on_c, 0, 83, 88
1, 1280693, Note_on_c, 0, 77, 90
1, 1280695, Note_on_c, 0, 80, 81
1, 1280696, Poly_aftertouch_c, 0, 77, 28
1, 1280696, Poly_aftertouch_c, 0, 80, 28
1, 1280846, Note_off_c, 0, 89, 56
1, 1280872, Note_off_c, 0, 83, 54
1, 1280877, Note_off_c, 0, 77, 62
1, 1280894, Poly_aftertouch_c, 0, 44, 28
1, 1280896, Note_on_c, 0, 44, 80
1, 1280924, Note_off_c, 0, 80, 35
1, 1281026, Note_off_c, 0, 44, 58
1, 1281054, Poly_aftertouch_c, 0, 88, 28
1, 1281058, Note_on_c, 0, 88, 90
1, 1281060, Poly_aftertouch_c, 0, 76, 28
1, 1281064, Note_on_c, 0, 76, 84
1, 1281067, Poly_aftertouch_c, 0, 80, 28
1, 1281068, Poly_aftertouch_c, 0, 83, 28
1, 1281070, Note_on_c, 0, 83, 82
1, 1281072, Note_on_c, 0, 80, 78
1, 1281075, Poly_aftertouch_c, 0, 47, 28
1, 1281079, Note_on_c, 0, 47, 78
1, 1281135, Note_off_c, 0, 76, 62
1, 1281152, Note_off_c, 0, 88, 64
1, 1281181, Note_off_c, 0, 83, 56
1, 1281189, Note_off_c, 0, 47, 58
1, 1281203, Poly_aftertouch_c, 0, 50, 28
1, 1281211, Note_on_c, 0, 50, 80
1, 1281229, Note_off_c, 0, 80, 33
1, 1281327, Poly_aftertouch_c, 0, 80, 28
1, 1281332, Poly_aftertouch_c, 0, 56, 28
1, 1281333, Note_on_c, 0, 56, 82
1, 1281334, Note_on_c, 0, 80, 82
1, 1281335, Note_on_c, 0, 87, 84
1, 1281337, Poly_aftertouch_c, 0, 75, 28
1, 1281338, Poly_aftertouch_c, 0, 83, 28
1, 1281338, Poly_aftertouch_c, 0, 87, 28
1, 1281340, Note_on_c, 0, 75, 81
1, 1281344, Note_on_c, 0, 83, 68
1, 1281364, Note_off_c, 0, 50, 61
1, 1281374, Note_off_c, 0, 83, 69
1, 1281391, Note_off_c, 0, 80, 66
1, 1281392, Note_off_c, 0, 87, 63
1, 1281408, Note_off_c, 0, 75, 65
1, 1281429, Note_off_c, 0, 56, 58
1, 1281464, Poly_aftertouch_c, 0, 59, 28
1, 1281467, Note_on_c, 0, 59, 77
1, 1281511, Note_off_c, 0, 59, 62
1, 1281638, Poly_aftertouch_c, 0, 74, 28
1, 1281642, Note_on_c, 0, 74, 58
1, 1281643, Poly_aftertouch_c, 0, 62, 28
1, 1281646, Control_c, 0, 64, 69
1, 1281651, Note_on_c, 0, 62, 70
1, 1281652, Poly_aftertouch_c, 0, 64, 28
1, 1281654, Note_on_c, 0, 64, 70
1, 1281656, Note_on_c, 0, 76, 64
1, 1281656, Poly_aftertouch_c, 0, 76, 28
1, 1281661, Note_on_c, 0, 52, 56
1, 1281661, Poly_aftertouch_c, 0, 52, 28
1, 1281664, Control_c, 0, 64, 26
1, 1281683, Control_c, 0, 64, 0
1, 1281777, Control_c, 0, 64, 25
1, 1281795, Control_c, 0, 64, 53
1, 1281813, Note_off_c, 0, 76, 58
1, 1281814, Control_c, 0, 64, 83
1, 1281816, Note_off_c, 0, 52, 56
1, 1281830, Poly_aftertouch_c, 0, 68, 28
1, 1281831, Note_off_c, 0, 74, 59
1, 1281836, Note_on_c, 0, 68, 64
1, 1281836, Control_c, 0, 64, 127
1, 1282058, Control_c, 0, 64, 115
1, 1282061, Note_off_c, 0, 64, 53
1, 1282062, Poly_aftertouch_c, 0, 72, 28
1, 1282067, Note_on_c, 0, 72, 64
1, 1282068, Note_off_c, 0, 62, 52
1, 1282068, Poly_aftertouch_c, 0, 60, 28
1, 1282070, Note_on_c, 0, 60, 56
1, 1282078, Control_c, 0, 64, 71
1, 1282079, Poly_aftertouch_c, 0, 52, 28
1, 1282085, Note_on_c, 0, 52, 39
1, 1282096, Control_c, 0, 64, 34
1, 1282114, Control_c, 0, 64, 0
1, 1282134, Note_off_c, 0, 68, 56
1, 1282209, Control_c, 0, 64, 26
1, 1282214, Note_off_c, 0, 52, 53
1, 1282226, Control_c, 0, 64, 50
1, 1282244, Control_c, 0, 64, 74
1, 1282266, Control_c, 0, 64, 99
1, 1282282, Control_c, 0, 64, 127
1, 1282301, Note_off_c, 0, 72, 61
1, 1282302, Poly_aftertouch_c, 0, 76, 28
1, 1282304, Note_on_c, 0, 76, 61
1, 1282455, Poly_aftertouch_c, 0, 52, 28
1, 1282460, Note_on_c, 0, 52, 47
1, 1282656, Control_c, 0, 64, 84
1, 1282674, Note_off_c, 0, 76, 58
1, 1282674, Control_c, 0, 64, 58
1, 1282691, Note_off_c, 0, 60, 54
1, 1282694, Control_c, 0, 64, 27
1, 1282697, Poly_aftertouch_c, 0, 59, 28
1, 1282700, Note_on_c, 0, 59, 39
1, 1282700, Poly_aftertouch_c, 0, 80, 28
1, 1282706, Note_on_c, 0, 80, 53
1, 1282706, Poly_aftertouch_c, 0, 74, 28
1, 1282711, Poly_aftertouch_c, 0, 68, 28
1, 1282713, Control_c, 0, 64, 0
1, 1282714, Note_on_c, 0, 74, 44
1, 1282722, Note_on_c, 0, 68, 34
1, 1282825, Control_c, 0, 64, 22
1, 1282845, Control_c, 0, 64, 43
1, 1282862, Control_c, 0, 64, 68
1, 1282882, Control_c, 0, 64, 89
1, 1282894, Note_off_c, 0, 59, 60
1, 1282900, Control_c, 0, 64, 127
1, 1282922, Note_off_c, 0, 52, 58
1, 1282998, Note_off_c, 0, 80, 54
1, 1283012, Control_c, 0, 67, 9
1, 1283050, Note_off_c, 0, 68, 40
1, 1283050, Control_c, 0, 67, 14
1, 1283059, Note_off_c, 0, 74, 52
1, 1283087, Control_c, 0, 67, 21
1, 1283105, Control_c, 0, 67, 28
1, 1283124, Control_c, 0, 67, 37
1, 1283142, Control_c, 0, 67, 45
1, 1283162, Control_c, 0, 67, 52
1, 1283180, Control_c, 0, 67, 58
1, 1283199, Control_c, 0, 67, 63
1, 1283218, Control_c, 0, 67, 67
1, 1283234, Poly_aftertouch_c, 0, 33, 28
1, 1283238, Note_on_c, 0, 33, 48
1, 1283256, Control_c, 0, 67, 74
1, 1283312, Control_c, 0, 67, 78
1, 1283508, Poly_aftertouch_c, 0, 40, 28
1, 1283516, Note_on_c, 0, 40, 43
1, 1283555, Control_c, 0, 64, 94
1, 1283574, Control_c, 0, 64, 69
1, 1283594, Control_c, 0, 64, 48
1, 1283611, Control_c, 0, 64, 36
1, 1283621, Poly_aftertouch_c, 0, 60, 28
1, 1283628, Note_on_c, 0, 60, 66
1, 1283668, Control_c, 0, 64, 49
1, 1283686, Control_c, 0, 64, 61
1, 1283706, Control_c, 0, 64, 70
1, 1283721, Note_off_c, 0, 33, 35
1, 1283724, Control_c, 0, 64, 79
1, 1283732, Note_off_c, 0, 40, 53
1, 1283742, Control_c, 0, 64, 91
1, 1283760, Control_c, 0, 64, 108
1, 1283780, Control_c, 0, 64, 127
1, 1283788, Poly_aftertouch_c, 0, 45, 28
1, 1283793, Note_on_c, 0, 45, 49
1, 1283834, Note_off_c, 0, 45, 61
1, 1283952, Poly_aftertouch_c, 0, 59, 28
1, 1283954, Note_on_c, 0, 59, 76
1, 1283965, Note_off_c, 0, 60, 57
1, 1283986, Poly_aftertouch_c, 0, 51, 28
1, 1283986, Control_c, 0, 67, 74
1, 1283992, Note_on_c, 0, 51, 61
1, 1284020, Note_off_c, 0, 59, 61
1, 1284103, Note_off_c, 0, 51, 56
1, 1284103, Poly_aftertouch_c, 0, 54, 28
1, 1284110, Note_on_c, 0, 54, 65
1, 1284202, Poly_aftertouch_c, 0, 57, 28
1, 1284206, Note_on_c, 0, 57, 80
1, 1284211, Note_off_c, 0, 54, 55
1, 1284265, Control_c, 0, 64, 96
1, 1284285, Control_c, 0, 64, 67
1, 1284304, Control_c, 0, 64, 44
1, 1284323, Control_c, 0, 64, 35
1, 1284331, Poly_aftertouch_c, 0, 84, 28
1, 1284337, Note_on_c, 0, 84, 65
1, 1284360, Control_c, 0, 64, 45
1, 1284379, Control_c, 0, 64, 59
1, 1284396, Control_c, 0, 64, 73
1, 1284416, Control_c, 0, 64, 92
1, 1284435, Control_c, 0, 64, 127
1, 1284448, Note_off_c, 0, 84, 60
1, 1284452, Poly_aftertouch_c, 0, 54, 28
1, 1284455, Note_on_c, 0, 54, 78
1, 1284467, Poly_aftertouch_c, 0, 81, 28
1, 1284470, Note_off_c, 0, 57, 61
1, 1284470, Note_on_c, 0, 81, 62
1, 1284470, Control_c, 0, 64, 116
1, 1284491, Control_c, 0, 64, 75
1, 1284510, Control_c, 0, 64, 49
1, 1284528, Control_c, 0, 64, 31
1, 1284537, Note_off_c, 0, 81, 58
1, 1284577, Poly_aftertouch_c, 0, 76, 28
1, 1284583, Note_on_c, 0, 76, 56
1, 1284585, Control_c, 0, 64, 45
1, 1284603, Control_c, 0, 64, 63
1, 1284622, Control_c, 0, 64, 80
1, 1284642, Control_c, 0, 64, 112
1, 1284658, Note_off_c, 0, 76, 62
1, 1284659, Control_c, 0, 64, 127
1, 1284721, Poly_aftertouch_c, 0, 64, 28
1, 1284725, Note_on_c, 0, 64, 71
1, 1284732, Poly_aftertouch_c, 0, 72, 28
1, 1284733, Control_c, 0, 67, 69
1, 1284736, Note_on_c, 0, 72, 69
1, 1284809, Control_c, 0, 67, 65
1, 1284823, Note_off_c, 0, 64, 61
1, 1284847, Control_c, 0, 67, 60
1, 1284873, Note_off_c, 0, 72, 57
1, 1284883, Poly_aftertouch_c, 0, 69, 28
1, 1284883, Control_c, 0, 67, 52
1, 1284887, Note_off_c, 0, 54, 63
1, 1284887, Note_on_c, 0, 69, 56
1, 1284931, Note_off_c, 0, 69, 63
1, 1285039, Poly_aftertouch_c, 0, 63, 28
1, 1285040, Note_on_c, 0, 63, 74
1, 1285172, Poly_aftertouch_c, 0, 36, 28
1, 1285178, Note_on_c, 0, 36, 62
1, 1285277, Control_c, 0, 64, 86
1, 1285286, Note_off_c, 0, 63, 36
1, 1285298, Control_c, 0, 64, 61
1, 1285307, Poly_aftertouch_c, 0, 45, 28
1, 1285311, Note_on_c, 0, 45, 59
1, 1285314, Control_c, 0, 64, 48
1, 1285335, Poly_aftertouch_c, 0, 64, 28
1, 1285336, Note_on_c, 0, 64, 81
1, 1285347, Note_off_c, 0, 36, 54
1, 1285351, Control_c, 0, 64, 56
1, 1285371, Control_c, 0, 64, 63
1, 1285390, Control_c, 0, 64, 72
1, 1285408, Control_c, 0, 64, 86
1, 1285410, Note_off_c, 0, 45, 62
1, 1285422, Poly_aftertouch_c, 0, 48, 28
1, 1285426, Control_c, 0, 64, 116
1, 1285427, Note_on_c, 0, 48, 67
1, 1285446, Control_c, 0, 64, 127
1, 1285470, Note_off_c, 0, 48, 62
1, 1285566, Poly_aftertouch_c, 0, 52, 28
1, 1285567, Poly_aftertouch_c, 0, 62, 28
1, 1285568, Note_on_c, 0, 52, 77
1, 1285572, Note_on_c, 0, 62, 84
1, 1285593, Note_off_c, 0, 64, 57
1, 1285637, Note_off_c, 0, 62, 62
1, 1285648, Note_off_c, 0, 52, 55
1, 1285656, Poly_aftertouch_c, 0, 57, 28
1, 1285662, Note_on_c, 0, 57, 80
1, 1285713, Note_off_c, 0, 57, 61
1, 1285771, Poly_aftertouch_c, 0, 60, 28
1, 1285776, Note_on_c, 0, 60, 88
1, 1285894, Control_c, 0, 64, 86
1, 1285914, Control_c, 0, 64, 67
1, 1285919, Poly_aftertouch_c, 0, 89, 28
1, 1285923, Note_on_c, 0, 89, 63
1, 1285932, Control_c, 0, 64, 65
1, 1285940, Note_on_c, 0, 91, 48
1, 1285951, Control_c, 0, 64, 70
1, 1285970, Note_off_c, 0, 91, 38
1, 1285970, Poly_aftertouch_c, 0, 91, 28
1, 1285970, Control_c, 0, 64, 79
1, 1285989, Control_c, 0, 64, 101
1, 1285990, Note_off_c, 0, 60, 59
1, 1286002, Poly_aftertouch_c, 0, 59, 28
1, 1286005, Note_on_c, 0, 59, 89
1, 1286006, Control_c, 0, 64, 127
1, 1286021, Poly_aftertouch_c, 0, 86, 28
1, 1286022, Note_off_c, 0, 89, 60
1, 1286023, Note_on_c, 0, 86, 78
1, 1286063, Control_c, 0, 64, 104
1, 1286083, Control_c, 0, 64, 71
1, 1286086, Control_c, 0, 67, 48
1, 1286101, Control_c, 0, 64, 45
1, 1286110, Note_off_c, 0, 86, 63
1, 1286118, Control_c, 0, 64, 35
1, 1286138, Control_c, 0, 67, 44
1, 1286142, Poly_aftertouch_c, 0, 81, 28
1, 1286145, Note_on_c, 0, 81, 68
1, 1286157, Control_c, 0, 64, 47
1, 1286158, Control_c, 0, 67, 40
1, 1286176, Control_c, 0, 64, 64
1, 1286177, Control_c, 0, 67, 34
1, 1286195, Control_c, 0, 64, 83
1, 1286197, Control_c, 0, 67, 23
1, 1286210, Note_off_c, 0, 81, 63
1, 1286212, Control_c, 0, 64, 127
1, 1286214, Control_c, 0, 67, 13
1, 1286250, Control_c, 0, 67, 0
1, 1286253, Poly_aftertouch_c, 0, 69, 28
1, 1286257, Note_on_c, 0, 69, 90
1, 1286276, Poly_aftertouch_c, 0, 77, 28
1, 1286280, Note_on_c, 0, 77, 75
1, 1286292, Note_on_c, 0, 79, 46
1, 1286292, Poly_aftertouch_c, 0, 79, 28
1, 1286330, Note_off_c, 0, 79, 55
1, 1286334, Note_off_c, 0, 69, 61
1, 1286377, Note_off_c, 0, 59, 64
1, 1286400, Poly_aftertouch_c, 0, 74, 28
1, 1286405, Note_on_c, 0, 74, 74
1, 1286427, Note_off_c, 0, 77, 59
1, 1286465, Note_off_c, 0, 74, 63
1, 1286504, Poly_aftertouch_c, 0, 65, 28
1, 1286506, Note_on_c, 0, 65, 86
1, 1286618, Poly_aftertouch_c, 0, 38, 28
1, 1286621, Note_on_c, 0, 38, 81
1, 1286663, Control_c, 0, 64, 81
1, 1286681, Control_c, 0, 64, 51
1, 1286700, Control_c, 0, 64, 31
1, 1286737, Control_c, 0, 64, 44
1, 1286756, Control_c, 0, 64, 64
1, 1286775, Control_c, 0, 64, 88
1, 1286779, Poly_aftertouch_c, 0, 45, 28
1, 1286783, Note_on_c, 0, 45, 69
1, 1286794, Control_c, 0, 64, 127
1, 1286845, Note_off_c, 0, 38, 57
1, 1286871, Poly_aftertouch_c, 0, 72, 28
1, 1286873, Note_on_c, 0, 72, 96
1, 1286904, Note_off_c, 0, 65, 56
1, 1286911, Note_off_c, 0, 45, 60
1, 1286932, Poly_aftertouch_c, 0, 50, 28
1, 1286941, Note_on_c, 0, 50, 62
1, 1286983, Note_off_c, 0, 50, 65
1, 1287090, Poly_aftertouch_c, 0, 53, 28
1, 1287094, Note_on_c, 0, 53, 68
1, 1287117, Note_off_c, 0, 72, 62
1, 1287126, Poly_aftertouch_c, 0, 71, 28
1, 1287129, Note_on_c, 0, 71, 91
1, 1287135, Poly_aftertouch_c, 0, 52, 28
1, 1287154, Note_off_c, 0, 53, 54
1, 1287187, Poly_aftertouch_c, 0, 57, 28
1, 1287189, Note_off_c, 0, 71, 63
1, 1287189, Poly_aftertouch_c, 0, 52, 127
1, 1287190, Note_on_c, 0, 57, 80
1, 1287223, Poly_aftertouch_c, 0, 52, 0
1, 1287240, Note_off_c, 0, 57, 63
1, 1287307, Poly_aftertouch_c, 0, 65, 28
1, 1287312, Note_on_c, 0, 65, 93
1, 1287404, Note_off_c, 0, 65, 64
1, 1287434, Poly_aftertouch_c, 0, 89, 28
1, 1287435, Note_on_c, 0, 89, 89
1, 1287564, Poly_aftertouch_c, 0, 72, 28
1, 1287566, Note_on_c, 0, 72, 102
1, 1287570, Poly_aftertouch_c, 0, 86, 28
1, 1287573, Note_on_c, 0, 86, 87
1, 1287593, Note_off_c, 0, 89, 62
1, 1287683, Note_off_c, 0, 86, 62
1, 1287706, Poly_aftertouch_c, 0, 81, 28
1, 1287709, Note_on_c, 0, 81, 80
1, 1287771, Note_off_c, 0, 81, 63
1, 1287862, Note_on_c, 0, 77, 98
1, 1287862, Poly_aftertouch_c, 0, 71, 28
1, 1287862, Poly_aftertouch_c, 0, 77, 28
1, 1287864, Note_on_c, 0, 71, 89
1, 1287874, Note_off_c, 0, 72, 62
1, 1287918, Note_off_c, 0, 71, 66
1, 1288032, Poly_aftertouch_c, 0, 74, 28
1, 1288037, Note_on_c, 0, 74, 90
1, 1288042, Note_off_c, 0, 77, 61
1, 1288213, Note_off_c, 0, 74, 64
1, 1288222, Poly_aftertouch_c, 0, 81, 28
1, 1288226, Note_on_c, 0, 81, 103
1, 1288236, Poly_aftertouch_c, 0, 72, 28
1, 1288239, Note_on_c, 0, 72, 85
1, 1288403, Control_c, 0, 64, 92
1, 1288422, Control_c, 0, 64, 51
1, 1288429, Poly_aftertouch_c, 0, 28, 28
1, 1288435, Note_on_c, 0, 28, 91
1, 1288441, Control_c, 0, 64, 0
1, 1288491, Note_off_c, 0, 81, 63
1, 1288516, Control_c, 0, 64, 17
1, 1288534, Control_c, 0, 64, 43
1, 1288553, Control_c, 0, 64, 77
1, 1288571, Control_c, 0, 64, 127
1, 1288657, Poly_aftertouch_c, 0, 40, 28
1, 1288658, Note_on_c, 0, 40, 80
1, 1288672, Note_off_c, 0, 28, 63
1, 1288685, Note_off_c, 0, 72, 54
1, 1288736, Poly_aftertouch_c, 0, 80, 28
1, 1288739, Note_on_c, 0, 80, 95
1, 1288747, Note_off_c, 0, 40, 63
1, 1288758, Poly_aftertouch_c, 0, 71, 28
1, 1288766, Note_on_c, 0, 71, 59
1, 1288882, Note_off_c, 0, 80, 63
1, 1288900, Poly_aftertouch_c, 0, 44, 28
1, 1288904, Note_on_c, 0, 44, 74
1, 1289033, Note_off_c, 0, 44, 54
1, 1289055, Note_off_c, 0, 71, 58
1, 1289081, Poly_aftertouch_c, 0, 74, 28
1, 1289084, Note_on_c, 0, 74, 86
1, 1289096, Poly_aftertouch_c, 0, 47, 28
1, 1289099, Poly_aftertouch_c, 0, 65, 28
1, 1289102, Note_on_c, 0, 65, 77
1, 1289104, Note_on_c, 0, 47, 72
1, 1289147, Note_off_c, 0, 74, 64
1, 1289255, Poly_aftertouch_c, 0, 50, 28
1, 1289261, Note_on_c, 0, 50, 71
1, 1289268, Note_off_c, 0, 47, 57
1, 1289391, Note_off_c, 0, 50, 62
1, 1289422, Poly_aftertouch_c, 0, 53, 28
1, 1289427, Note_on_c, 0, 53, 71
1, 1289488, Note_off_c, 0, 53, 59
1, 1289535, Poly_aftertouch_c, 0, 71, 28
1, 1289540, Note_on_c, 0, 71, 83
1, 1289548, Note_off_c, 0, 65, 34
1, 1289553, Poly_aftertouch_c, 0, 62, 28
1, 1289558, Note_on_c, 0, 62, 71
1, 1289741, Poly_aftertouch_c, 0, 33, 28
1, 1289745, Note_on_c, 0, 33, 68
1, 1289788, Control_c, 0, 64, 114
1, 1289807, Control_c, 0, 64, 69
1, 1289818, Note_off_c, 0, 62, 59
1, 1289822, Note_off_c, 0, 71, 59
1, 1289824, Control_c, 0, 64, 32
1, 1289839, Poly_aftertouch_c, 0, 68, 28
1, 1289843, Note_on_c, 0, 68, 78
1, 1289844, Control_c, 0, 64, 0
1, 1289853, Note_on_c, 0, 59, 64
1, 1289853, Poly_aftertouch_c, 0, 59, 28
1, 1289917, Note_off_c, 0, 33, 60
1, 1289918, Control_c, 0, 64, 11
1, 1289939, Control_c, 0, 64, 28
1, 1289956, Control_c, 0, 64, 52
1, 1289975, Control_c, 0, 64, 75
1, 1289995, Control_c, 0, 64, 99
1, 1290012, Control_c, 0, 64, 127
1, 1290108, Poly_aftertouch_c, 0, 45, 28
1, 1290112, Note_on_c, 0, 45, 62
1, 1290259, Poly_aftertouch_c, 0, 52, 28
1, 1290264, Note_on_c, 0, 52, 57
1, 1290387, Note_off_c, 0, 59, 54
1, 1290387, Control_c, 0, 64, 112
1, 1290407, Control_c, 0, 64, 79
1, 1290421, Note_off_c, 0, 68, 50
1, 1290424, Control_c, 0, 64, 53
1, 1290427, Note_on_c, 0, 69, 60
1, 1290427, Poly_aftertouch_c, 0, 69, 28
1, 1290436, Poly_aftertouch_c, 0, 60, 28
1, 1290442, Note_on_c, 0, 60, 46
1, 1290444, Control_c, 0, 64, 21
1, 1290462, Control_c, 0, 64, 0
1, 1290556, Control_c, 0, 64, 8
1, 1290574, Control_c, 0, 64, 19
1, 1290593, Note_off_c, 0, 52, 54
1, 1290593, Control_c, 0, 64, 34
1, 1290601, Poly_aftertouch_c, 0, 51, 28
1, 1290603, Note_on_c, 0, 51, 47
1, 1290611, Control_c, 0, 64, 52
1, 1290630, Control_c, 0, 64, 68
1, 1290650, Control_c, 0, 64, 77
1, 1290670, Control_c, 0, 64, 85
1, 1290686, Control_c, 0, 64, 92
1, 1290706, Control_c, 0, 64, 101
1, 1290724, Control_c, 0, 64, 122
1, 1290743, Control_c, 0, 64, 127
1, 1290766, Note_off_c, 0, 51, 57
1, 1290841, Poly_aftertouch_c, 0, 54, 28
1, 1290851, Note_on_c, 0, 54, 41
1, 1290898, Note_off_c, 0, 45, 50
1, 1290922, Note_off_c, 0, 54, 44
1, 1291034, Note_off_c, 0, 60, 33
1, 1291050, Note_off_c, 0, 69, 32
1, 1291284, Poly_aftertouch_c, 0, 40, 28
1, 1291292, Note_on_c, 0, 40, 40
1, 1291324, Control_c, 0, 64, 121
1, 1291343, Control_c, 0, 64, 84
1, 1291343, Control_c, 0, 67, 8
1, 1291360, Control_c, 0, 64, 62
1, 1291380, Control_c, 0, 64, 43
1, 1291381, Control_c, 0, 67, 14
1, 1291399, Control_c, 0, 64, 32
1, 1291400, Control_c, 0, 67, 18
1, 1291416, Control_c, 0, 67, 23
1, 1291435, Control_c, 0, 67, 30
1, 1291455, Control_c, 0, 64, 37
1, 1291456, Control_c, 0, 67, 37
1, 1291473, Control_c, 0, 64, 47
1, 1291475, Control_c, 0, 67, 44
1, 1291492, Control_c, 0, 64, 57
1, 1291494, Control_c, 0, 67, 50
1, 1291511, Control_c, 0, 64, 64
1, 1291512, Control_c, 0, 67, 55
1, 1291529, Control_c, 0, 64, 70
1, 1291531, Control_c, 0, 67, 59
1, 1291548, Control_c, 0, 64, 76
1, 1291548, Control_c, 0, 67, 63
1, 1291551, Poly_aftertouch_c, 0, 45, 28
1, 1291555, Note_on_c, 0, 45, 52
1, 1291559, Poly_aftertouch_c, 0, 72, 28
1, 1291562, Note_off_c, 0, 40, 39
1, 1291564, Note_on_c, 0, 72, 58
1, 1291565, Control_c, 0, 64, 83
1, 1291577, Note_on_c, 0, 69, 47
1, 1291577, Poly_aftertouch_c, 0, 69, 28
1, 1291585, Control_c, 0, 64, 93
1, 1291586, Poly_aftertouch_c, 0, 60, 28
1, 1291586, Control_c, 0, 67, 70
1, 1291592, Note_on_c, 0, 60, 38
1, 1291604, Control_c, 0, 64, 108
1, 1291622, Control_c, 0, 64, 127
1, 1291623, Control_c, 0, 67, 76
1, 1291666, Note_off_c, 0, 45, 59
1, 1291683, Note_off_c, 0, 60, 51
1, 1291685, Note_off_c, 0, 69, 51
1, 1291712, Poly_aftertouch_c, 0, 48, 28
1, 1291720, Note_on_c, 0, 48, 56
1, 1291757, Note_off_c, 0, 48, 64
1, 1291829, Control_c, 0, 64, 114
1, 1291848, Control_c, 0, 64, 83
1, 1291855, Note_off_c, 0, 72, 56
1, 1291866, Control_c, 0, 64, 64
1, 1291873, Poly_aftertouch_c, 0, 68, 28
1, 1291874, Poly_aftertouch_c, 0, 71, 28
1, 1291877, Note_on_c, 0, 71, 68
1, 1291879, Note_on_c, 0, 52, 55
1, 1291880, Poly_aftertouch_c, 0, 52, 28
1, 1291881, Poly_aftertouch_c, 0, 59, 28
1, 1291883, Note_on_c, 0, 68, 59
1, 1291884, Note_on_c, 0, 59, 57
1, 1291884, Control_c, 0, 64, 52
1, 1291922, Control_c, 0, 64, 56
1, 1291923, Note_off_c, 0, 59, 63
1, 1291943, Control_c, 0, 64, 62
1, 1291959, Control_c, 0, 64, 68
1, 1291979, Control_c, 0, 64, 75
1, 1291982, Note_off_c, 0, 52, 58
1, 1291989, Poly_aftertouch_c, 0, 56, 28
1, 1291993, Note_on_c, 0, 56, 65
1, 1291996, Control_c, 0, 64, 82
1, 1291999, Note_off_c, 0, 68, 61
1, 1292016, Control_c, 0, 64, 95
1, 1292025, Note_off_c, 0, 71, 63
1, 1292034, Control_c, 0, 64, 124
1, 1292125, Note_off_c, 0, 56, 54
1, 1292126, Poly_aftertouch_c, 0, 64, 28
1, 1292130, Note_on_c, 0, 64, 75
1, 1292130, Control_c, 0, 64, 106
1, 1292139, Poly_aftertouch_c, 0, 52, 28
1, 1292142, Note_on_c, 0, 52, 59
1, 1292147, Control_c, 0, 64, 79
1, 1292166, Control_c, 0, 64, 62
1, 1292184, Control_c, 0, 64, 55
1, 1292203, Control_c, 0, 64, 58
1, 1292223, Control_c, 0, 64, 65
1, 1292232, Poly_aftertouch_c, 0, 86, 28
1, 1292235, Note_on_c, 0, 86, 62
1, 1292238, Note_off_c, 0, 52, 59
1, 1292239, Control_c, 0, 64, 76
1, 1292261, Note_off_c, 0, 64, 58
1, 1292261, Control_c, 0, 64, 102
1, 1292278, Control_c, 0, 64, 127
1, 1292363, Poly_aftertouch_c, 0, 65, 28
1, 1292368, Note_on_c, 0, 65, 77
1, 1292370, Note_on_c, 0, 83, 69
1, 1292370, Poly_aftertouch_c, 0, 83, 28
1, 1292371, Note_off_c, 0, 86, 59
1, 1292380, Poly_aftertouch_c, 0, 53, 28
1, 1292382, Note_on_c, 0, 53, 64
1, 1292410, Control_c, 0, 64, 95
1, 1292428, Control_c, 0, 64, 68
1, 1292447, Control_c, 0, 64, 49
1, 1292465, Control_c, 0, 64, 46
1, 1292484, Control_c, 0, 64, 52
1, 1292493, Note_off_c, 0, 65, 56
1, 1292494, Poly_aftertouch_c, 0, 80, 28
1, 1292499, Note_off_c, 0, 83, 58
1, 1292499, Note_on_c, 0, 80, 68
1, 1292501, Control_c, 0, 64, 63
1, 1292521, Control_c, 0, 64, 76
1, 1292541, Control_c, 0, 64, 96
1, 1292560, Control_c, 0, 64, 127
1, 1292561, Control_c, 0, 67, 71
1, 1292599, Note_off_c, 0, 80, 64
1, 1292602, Note_off_c, 0, 53, 47
1, 1292623, Poly_aftertouch_c, 0, 52, 28
1, 1292626, Poly_aftertouch_c, 0, 74, 28
1, 1292629, Note_on_c, 0, 52, 71
1, 1292630, Poly_aftertouch_c, 0, 64, 28
1, 1292632, Note_on_c, 0, 74, 71
1, 1292634, Note_on_c, 0, 64, 76
1, 1292653, Control_c, 0, 67, 67
1, 1292689, Control_c, 0, 67, 62
1, 1292695, Note_off_c, 0, 52, 60
1, 1292709, Control_c, 0, 67, 56
1, 1292716, Note_off_c, 0, 64, 60
1, 1292727, Control_c, 0, 67, 48
1, 1292746, Control_c, 0, 67, 38
1, 1292760, Note_off_c, 0, 74, 61
1, 1292762, Control_c, 0, 67, 28
1, 1292768, Poly_aftertouch_c, 0, 71, 28
1, 1292772, Note_on_c, 0, 71, 71
1, 1292783, Control_c, 0, 67, 18
1, 1292803, Control_c, 0, 67, 8
1, 1292820, Control_c, 0, 67, 0
1, 1292884, Note_off_c, 0, 71, 58
1, 1292929, Poly_aftertouch_c, 0, 65, 28
1, 1292935, Note_on_c, 0, 65, 69
1, 1292938, Poly_aftertouch_c, 0, 62, 28
1, 1292943, Note_on_c, 0, 62, 70
1, 1292945, Poly_aftertouch_c, 0, 53, 28
1, 1292951, Note_on_c, 0, 53, 67
1, 1292965, Note_off_c, 0, 65, 68
1, 1292978, Note_off_c, 0, 62, 66
1, 1293016, Note_off_c, 0, 53, 62
1, 1293206, Poly_aftertouch_c, 0, 42, 28
1, 1293212, Note_on_c, 0, 42, 68
1, 1293289, Control_c, 0, 64, 113
1, 1293307, Control_c, 0, 64, 80
1, 1293327, Control_c, 0, 64, 57
1, 1293345, Control_c, 0, 64, 38
1, 1293363, Control_c, 0, 64, 29
1, 1293420, Control_c, 0, 64, 36
1, 1293428, Note_on_c, 0, 74, 73
1, 1293429, Poly_aftertouch_c, 0, 74, 28
1, 1293432, Poly_aftertouch_c, 0, 47, 28
1, 1293439, Control_c, 0, 64, 45
1, 1293441, Note_on_c, 0, 47, 57
1, 1293441, Poly_aftertouch_c, 0, 71, 28
1, 1293445, Note_on_c, 0, 71, 64
1, 1293446, Note_off_c, 0, 42, 58
1, 1293448, Poly_aftertouch_c, 0, 62, 28
1, 1293449, Note_on_c, 0, 62, 55
1, 1293458, Control_c, 0, 64, 58
1, 1293476, Control_c, 0, 64, 69
1, 1293495, Control_c, 0, 64, 79
1, 1293513, Control_c, 0, 64, 91
1, 1293532, Control_c, 0, 64, 105
1, 1293549, Note_off_c, 0, 47, 59
1, 1293551, Control_c, 0, 64, 127
1, 1293557, Note_off_c, 0, 62, 59
1, 1293578, Note_off_c, 0, 71, 60
1, 1293585, Poly_aftertouch_c, 0, 50, 28
1, 1293594, Note_on_c, 0, 50, 68
1, 1293633, Note_off_c, 0, 50, 66
1, 1293749, Poly_aftertouch_c, 0, 73, 28
1, 1293753, Note_on_c, 0, 73, 80
1, 1293755, Poly_aftertouch_c, 0, 54, 28
1, 1293759, Note_on_c, 0, 54, 78
1, 1293762, Note_on_c, 0, 61, 70
1, 1293763, Poly_aftertouch_c, 0, 61, 28
1, 1293764, Poly_aftertouch_c, 0, 70, 28
1, 1293771, Note_off_c, 0, 74, 61
1, 1293774, Note_on_c, 0, 70, 71
1, 1293795, Note_off_c, 0, 61, 66
1, 1293850, Note_off_c, 0, 70, 63
1, 1293861, Note_off_c, 0, 54, 61
1, 1293866, Note_off_c, 0, 73, 63
1, 1293873, Poly_aftertouch_c, 0, 58, 28
1, 1293879, Note_on_c, 0, 58, 80
1, 1294006, Poly_aftertouch_c, 0, 66, 28
1, 1294009, Note_on_c, 0, 66, 86
1, 1294011, Poly_aftertouch_c, 0, 54, 28
1, 1294015, Note_on_c, 0, 54, 79
1, 1294032, Note_off_c, 0, 58, 59
1, 1294123, Poly_aftertouch_c, 0, 88, 28
1, 1294127, Note_on_c, 0, 88, 82
1, 1294148, Note_off_c, 0, 54, 60
1, 1294152, Note_off_c, 0, 66, 55
1, 1294245, Control_c, 0, 64, 84
1, 1294253, Poly_aftertouch_c, 0, 67, 28
1, 1294254, Poly_aftertouch_c, 0, 85, 28
1, 1294259, Poly_aftertouch_c, 0, 55, 28
1, 1294260, Note_on_c, 0, 67, 89
1, 1294261, Note_on_c, 0, 85, 83
1, 1294264, Control_c, 0, 64, 54
1, 1294265, Note_on_c, 0, 55, 84
1, 1294272, Note_off_c, 0, 88, 63
1, 1294280, Control_c, 0, 64, 29
1, 1294299, Control_c, 0, 64, 24
1, 1294337, Control_c, 0, 64, 34
1, 1294355, Control_c, 0, 64, 52
1, 1294374, Control_c, 0, 64, 74
1, 1294384, Poly_aftertouch_c, 0, 82, 28
1, 1294386, Note_on_c, 0, 82, 83
1, 1294387, Note_off_c, 0, 55, 62
1, 1294393, Note_off_c, 0, 67, 59
1, 1294393, Control_c, 0, 64, 106
1, 1294412, Control_c, 0, 64, 127
1, 1294443, Note_off_c, 0, 85, 61
1, 1294487, Note_off_c, 0, 82, 65
1, 1294498, Poly_aftertouch_c, 0, 56, 28
1, 1294499, Poly_aftertouch_c, 0, 56, 0
1, 1294500, Poly_aftertouch_c, 0, 66, 28
1, 1294502, Note_on_c, 0, 66, 96
1, 1294504, Poly_aftertouch_c, 0, 54, 28
1, 1294507, Poly_aftertouch_c, 0, 76, 28
1, 1294510, Note_on_c, 0, 76, 85
1, 1294510, Note_on_c, 0, 54, 93
1, 1294574, Note_off_c, 0, 66, 58
1, 1294585, Note_off_c, 0, 54, 61
1, 1294661, Poly_aftertouch_c, 0, 73, 28
1, 1294663, Note_on_c, 0, 73, 86
1, 1294700, Note_off_c, 0, 76, 62
1, 1294860, Poly_aftertouch_c, 0, 55, 28
1, 1294863, Poly_aftertouch_c, 0, 67, 28
1, 1294866, Note_on_c, 0, 55, 90
1, 1294867, Note_on_c, 0, 67, 89
1, 1294868, Note_on_c, 0, 64, 89
1, 1294869, Poly_aftertouch_c, 0, 64, 28
1, 1294894, Note_off_c, 0, 73, 61
1, 1294897, Note_off_c, 0, 67, 63
1, 1294917, Note_off_c, 0, 64, 66
1, 1294948, Note_off_c, 0, 55, 65
1, 1295191, Poly_aftertouch_c, 0, 28, 28
1, 1295193, Note_on_c, 0, 28, 97
1, 1295292, Control_c, 0, 64, 87
1, 1295310, Control_c, 0, 64, 51
1, 1295330, Control_c, 0, 64, 18
1, 1295348, Control_c, 0, 64, 9
1, 1295423, Control_c, 0, 64, 20
1, 1295441, Control_c, 0, 64, 34
1, 1295452, Poly_aftertouch_c, 0, 68, 28
1, 1295453, Note_on_c, 0, 68, 89
1, 1295454, Note_off_c, 0, 28, 64
1, 1295457, Poly_aftertouch_c, 0, 64, 28
1, 1295459, Control_c, 0, 64, 59
1, 1295462, Note_on_c, 0, 56, 85
1, 1295463, Note_on_c, 0, 64, 81
1, 1295465, Note_on_c, 0, 61, 81
1, 1295467, Poly_aftertouch_c, 0, 56, 28
1, 1295467, Poly_aftertouch_c, 0, 61, 28
1, 1295470, Note_on_c, 0, 40, 82
1, 1295472, Poly_aftertouch_c, 0, 40, 28
1, 1295479, Control_c, 0, 64, 85
1, 1295497, Control_c, 0, 64, 127
1, 1295529, Note_off_c, 0, 40, 62
1, 1295586, Note_off_c, 0, 68, 56
1, 1295586, Note_off_c, 0, 64, 61
1, 1295590, Note_off_c, 0, 56, 59
1, 1295609, Note_off_c, 0, 61, 57
1, 1295664, Poly_aftertouch_c, 0, 44, 28
1, 1295668, Note_on_c, 0, 44, 85
1, 1295833, Note_off_c, 0, 44, 53
1, 1295834, Poly_aftertouch_c, 0, 55, 28
1, 1295834, Poly_aftertouch_c, 0, 61, 28
1, 1295835, Poly_aftertouch_c, 0, 63, 28
1, 1295836, Note_on_c, 0, 55, 86
1, 1295837, Note_on_c, 0, 67, 88
1, 1295838, Note_on_c, 0, 61, 85
1, 1295839, Poly_aftertouch_c, 0, 67, 28
1, 1295841, Note_on_c, 0, 63, 85
1, 1295845, Poly_aftertouch_c, 0, 49, 28
1, 1295847, Note_on_c, 0, 49, 86
1, 1295863, Note_off_c, 0, 55, 64
1, 1295902, Note_off_c, 0, 61, 62
1, 1295918, Note_off_c, 0, 63, 65
1, 1295922, Note_off_c, 0, 67, 65
1, 1295972, Poly_aftertouch_c, 0, 52, 28
1, 1295973, Note_on_c, 0, 52, 86
1, 1295994, Note_off_c, 0, 49, 41
1, 1296008, Note_off_c, 0, 52, 62
1, 1296148, Note_on_c, 0, 68, 97
1, 1296149, Note_on_c, 0, 64, 87
1, 1296150, Note_on_c, 0, 61, 89
1, 1296151, Poly_aftertouch_c, 0, 61, 28
1, 1296151, Poly_aftertouch_c, 0, 64, 28
1, 1296153, Poly_aftertouch_c, 0, 68, 28
1, 1296157, Poly_aftertouch_c, 0, 56, 28
1, 1296159, Note_on_c, 0, 56, 78
1, 1296198, Note_off_c, 0, 61, 58
1, 1296198, Note_off_c, 0, 56, 64
1, 1296213, Note_off_c, 0, 64, 62
1, 1296221, Note_off_c, 0, 68, 60
1, 1296272, Poly_aftertouch_c, 0, 80, 28
1, 1296272, Poly_aftertouch_c, 0, 92, 28
1, 1296275, Note_on_c, 0, 80, 83
1, 1296279, Note_on_c, 0, 92, 90
1, 1296349, Note_off_c, 0, 80, 64
1, 1296397, Control_c, 0, 64, 76
1, 1296414, Poly_aftertouch_c, 0, 68, 28
1, 1296415, Control_c, 0, 64, 34
1, 1296418, Note_on_c, 0, 68, 95
1, 1296420, Note_on_c, 0, 71, 96
1, 1296421, Note_on_c, 0, 62, 85
1, 1296424, Poly_aftertouch_c, 0, 59, 28
1, 1296424, Poly_aftertouch_c, 0, 62, 28
1, 1296426, Note_on_c, 0, 86, 94
1, 1296427, Note_on_c, 0, 59, 82
1, 1296429, Poly_aftertouch_c, 0, 71, 28
1, 1296430, Poly_aftertouch_c, 0, 86, 28
1, 1296433, Control_c, 0, 64, 0
1, 1296442, Note_off_c, 0, 92, 65
1, 1296490, Control_c, 0, 64, 16
1, 1296498, Note_off_c, 0, 59, 61
1, 1296506, Control_c, 0, 64, 39
1, 1296512, Note_off_c, 0, 68, 65
1, 1296520, Note_off_c, 0, 71, 60
1, 1296525, Control_c, 0, 64, 72
1, 1296527, Note_off_c, 0, 62, 59
1, 1296547, Control_c, 0, 64, 114
1, 1296564, Control_c, 0, 64, 127
1, 1296570, Poly_aftertouch_c, 0, 83, 28
1, 1296577, Note_on_c, 0, 83, 92
1, 1296593, Note_off_c, 0, 86, 55
1, 1296757, Note_off_c, 0, 83, 66
1, 1296765, Poly_aftertouch_c, 0, 80, 28
1, 1296767, Note_on_c, 0, 80, 105
1, 1296770, Poly_aftertouch_c, 0, 58, 28
1, 1296772, Note_on_c, 0, 70, 102
1, 1296773, Note_on_c, 0, 68, 100
1, 1296774, Note_on_c, 0, 58, 88
1, 1296776, Poly_aftertouch_c, 0, 68, 28
1, 1296777, Poly_aftertouch_c, 0, 70, 28
1, 1296780, Note_on_c, 0, 62, 84
1, 1296784, Poly_aftertouch_c, 0, 62, 28
1, 1296804, Note_off_c, 0, 62, 73
1, 1296808, Note_off_c, 0, 58, 65
1, 1296823, Note_off_c, 0, 68, 70
1, 1296828, Note_off_c, 0, 80, 69
1, 1296832, Note_off_c, 0, 70, 63
1, 1296902, Poly_aftertouch_c, 0, 79, 28
1, 1296904, Poly_aftertouch_c, 0, 79, 0
1, 1296978, Poly_aftertouch_c, 0, 74, 28
1, 1296982, Note_on_c, 0, 74, 93
1, 1297032, Note_off_c, 0, 74, 68
1, 1297287, Poly_aftertouch_c, 0, 59, 28
1, 1297287, Poly_aftertouch_c, 0, 62, 28
1, 1297290, Note_on_c, 0, 71, 97
1, 1297291, Note_on_c, 0, 62, 94
1, 1297292, Note_on_c, 0, 59, 98
1, 1297293, Poly_aftertouch_c, 0, 68, 28
1, 1297293, Poly_aftertouch_c, 0, 71, 28
1, 1297295, Note_on_c, 0, 68, 91
1, 1297492, Note_off_c, 0, 59, 53
1, 1297523, Note_off_c, 0, 62, 55
1, 1297569, Note_off_c, 0, 71, 62
1, 1297574, Poly_aftertouch_c, 0, 26, 28
1, 1297584, Note_on_c, 0, 26, 108
1, 1297587, Note_off_c, 0, 68, 63
1, 1297613, Control_c, 0, 64, 72
1, 1297632, Control_c, 0, 64, 13
1, 1297649, Control_c, 0, 64, 0
1, 1297895, Control_c, 0, 64, 91
1, 1297907, Note_off_c, 0, 26, 60
1, 1297912, Control_c, 0, 64, 127
1, 1297915, Poly_aftertouch_c, 0, 38, 28
1, 1297919, Note_on_c, 0, 38, 96
1, 1297966, Note_off_c, 0, 38, 64
1, 1297977, Poly_aftertouch_c, 0, 83, 28
1, 1297977, Poly_aftertouch_c, 0, 89, 28
1, 1297982, Note_on_c, 0, 83, 86
1, 1297983, Note_on_c, 0, 89, 102
1, 1297986, Note_on_c, 0, 80, 92
1, 1297986, Note_on_c, 0, 77, 101
1, 1297987, Note_off_c, 0, 77, 127
1, 1297989, Poly_aftertouch_c, 0, 77, 28
1, 1297990, Poly_aftertouch_c, 0, 80, 28
1, 1298044, Poly_aftertouch_c, 0, 77, 127
1, 1298193, Note_off_c, 0, 89, 55
1, 1298248, Note_off_c, 0, 80, 59
1, 1298258, Poly_aftertouch_c, 0, 77, 0
1, 1298261, Note_on_c, 0, 44, 86
1, 1298261, Poly_aftertouch_c, 0, 44, 28
1, 1298262, Note_off_c, 0, 83, 49
1, 1298385, Note_off_c, 0, 44, 58
1, 1298442, Poly_aftertouch_c, 0, 88, 28
1, 1298447, Poly_aftertouch_c, 0, 76, 28
1, 1298448, Poly_aftertouch_c, 0, 80, 28
1, 1298448, Poly_aftertouch_c, 0, 83, 28
1, 1298451, Note_on_c, 0, 88, 95
1, 1298452, Note_on_c, 0, 76, 93
1, 1298453, Note_on_c, 0, 83, 83
1, 1298453, Note_on_c, 0, 80, 90
1, 1298459, Poly_aftertouch_c, 0, 47, 28
1, 1298461, Note_on_c, 0, 47, 83
1, 1298549, Note_off_c, 0, 88, 65
1, 1298556, Note_off_c, 0, 76, 63
1, 1298597, Note_off_c, 0, 47, 59
1, 1298598, Note_off_c, 0, 80, 60
1, 1298602, Note_off_c, 0, 83, 56
1, 1298606, Poly_aftertouch_c, 0, 50, 28
1, 1298610, Note_on_c, 0, 50, 78
1, 1298736, Poly_aftertouch_c, 0, 83, 28
1, 1298743, Note_on_c, 0, 83, 65
1, 1298745, Poly_aftertouch_c, 0, 56, 28
1, 1298749, Poly_aftertouch_c, 0, 75, 28
1, 1298749, Poly_aftertouch_c, 0, 80, 28
1, 1298750, Poly_aftertouch_c, 0, 87, 28
1, 1298752, Note_on_c, 0, 56, 84
1, 1298753, Note_on_c, 0, 75, 87
1, 1298754, Note_on_c, 0, 87, 88
1, 1298754, Note_on_c, 0, 80, 86
1, 1298780, Note_off_c, 0, 50, 55
1, 1298802, Note_off_c, 0, 83, 64
1, 1298808, Note_off_c, 0, 87, 66
1, 1298824, Note_off_c, 0, 80, 63
1, 1298836, Note_off_c, 0, 75, 64
1, 1298846, Note_off_c, 0, 56, 60
1, 1298887, Poly_aftertouch_c, 0, 59, 28
1, 1298890, Note_on_c, 0, 59, 83
1, 1298931, Note_off_c, 0, 59, 60
1, 1299045, Poly_aftertouch_c, 0, 62, 28
1, 1299049, Note_on_c, 0, 62, 77
1, 1299052, Control_c, 0, 64, 94
1, 1299054, Note_on_c, 0, 74, 75
1, 1299055, Note_on_c, 0, 76, 86
1, 1299058, Note_on_c, 0, 52, 76
1, 1299058, Poly_aftertouch_c, 0, 74, 28
1, 1299059, Poly_aftertouch_c, 0, 76, 28
1, 1299061, Note_on_c, 0, 64, 88
1, 1299064, Poly_aftertouch_c, 0, 52, 28
1, 1299065, Poly_aftertouch_c, 0, 64, 28
1, 1299072, Control_c, 0, 64, 55
1, 1299111, Control_c, 0, 64, 0
1, 1299184, Control_c, 0, 64, 23
1, 1299204, Control_c, 0, 64, 55
1, 1299222, Control_c, 0, 64, 90
1, 1299234, Note_off_c, 0, 52, 53
1, 1299236, Poly_aftertouch_c, 0, 68, 28
1, 1299239, Control_c, 0, 64, 127
1, 1299241, Note_on_c, 0, 68, 86
1, 1299272, Note_off_c, 0, 74, 58
1, 1299277, Note_off_c, 0, 76, 56
1, 1299481, Poly_aftertouch_c, 0, 60, 28
1, 1299485, Note_on_c, 0, 60, 64
1, 1299498, Note_on_c, 0, 52, 58
1, 1299498, Poly_aftertouch_c, 0, 52, 28
1, 1299503, Control_c, 0, 64, 109
1, 1299504, Note_off_c, 0, 62, 52
1, 1299523, Control_c, 0, 64, 69
1, 1299527, Note_off_c, 0, 64, 52
1, 1299541, Control_c, 0, 64, 34
1, 1299544, Poly_aftertouch_c, 0, 72, 28
1, 1299548, Note_on_c, 0, 72, 80
1, 1299561, Control_c, 0, 64, 0
1, 1299613, Note_off_c, 0, 68, 61
1, 1299673, Control_c, 0, 64, 26
1, 1299681, Note_off_c, 0, 52, 58
1, 1299690, Control_c, 0, 64, 52
1, 1299709, Control_c, 0, 64, 79
1, 1299728, Control_c, 0, 64, 119
1, 1299746, Control_c, 0, 64, 127
1, 1299829, Note_off_c, 0, 72, 62
1, 1299849, Poly_aftertouch_c, 0, 76, 28
1, 1299853, Note_on_c, 0, 76, 62
1, 1299971, Control_c, 0, 67, 9
1, 1299973, Poly_aftertouch_c, 0, 52, 28
1, 1299980, Note_on_c, 0, 52, 51
1, 1300028, Control_c, 0, 67, 14
1, 1300083, Control_c, 0, 67, 18
1, 1300192, Note_off_c, 0, 76, 61
1, 1300195, Control_c, 0, 64, 116
1, 1300206, Poly_aftertouch_c, 0, 80, 28
1, 1300210, Note_off_c, 0, 60, 52
1, 1300213, Note_on_c, 0, 80, 59
1, 1300214, Poly_aftertouch_c, 0, 74, 28
1, 1300215, Control_c, 0, 64, 75
1, 1300220, Note_on_c, 0, 74, 49
1, 1300220, Poly_aftertouch_c, 0, 68, 28
1, 1300226, Note_on_c, 0, 59, 46
1, 1300226, Poly_aftertouch_c, 0, 59, 28
1, 1300229, Note_on_c, 0, 68, 43
1, 1300234, Control_c, 0, 64, 42
1, 1300235, Control_c, 0, 67, 23
1, 1300252, Control_c, 0, 64, 0
1, 1300290, Control_c, 0, 67, 27
1, 1300326, Control_c, 0, 67, 35
1, 1300346, Control_c, 0, 64, 12
1, 1300347, Control_c, 0, 67, 39
1, 1300365, Control_c, 0, 64, 28
1, 1300367, Control_c, 0, 67, 43
1, 1300382, Control_c, 0, 64, 51
1, 1300396, Note_off_c, 0, 59, 61
1, 1300402, Control_c, 0, 64, 75
1, 1300403, Control_c, 0, 67, 49
1, 1300421, Control_c, 0, 64, 101
1, 1300424, Note_off_c, 0, 52, 60
1, 1300440, Control_c, 0, 64, 127
1, 1300441, Control_c, 0, 67, 55
1, 1300476, Control_c, 0, 67, 62
1, 1300513, Control_c, 0, 67, 69
1, 1300518, Note_off_c, 0, 80, 54
1, 1300532, Control_c, 0, 67, 73
1, 1300570, Control_c, 0, 67, 80
1, 1300599, Note_off_c, 0, 74, 49
1, 1300607, Control_c, 0, 67, 87
1, 1300615, Note_off_c, 0, 68, 36
1, 1300645, Control_c, 0, 67, 94
1, 1300663, Control_c, 0, 67, 98
1, 1300701, Control_c, 0, 67, 105
1, 1300738, Control_c, 0, 67, 111
1, 1300744, Poly_aftertouch_c, 0, 33, 28
1, 1300752, Note_on_c, 0, 33, 47
1, 1300776, Control_c, 0, 67, 116
1, 1300813, Control_c, 0, 67, 120
1, 1300870, Control_c, 0, 67, 124
1, 1301054, Poly_aftertouch_c, 0, 40, 28
1, 1301061, Note_on_c, 0, 40, 39
1, 1301113, Control_c, 0, 64, 101
1, 1301132, Control_c, 0, 64, 75
1, 1301136, Poly_aftertouch_c, 0, 60, 28
1, 1301141, Note_on_c, 0, 60, 63
1, 1301150, Control_c, 0, 64, 54
1, 1301170, Control_c, 0, 64, 43
1, 1301207, Control_c, 0, 64, 50
1, 1301225, Control_c, 0, 64, 58
1, 1301230, Note_off_c, 0, 33, 35
1, 1301244, Control_c, 0, 64, 67
1, 1301251, Note_off_c, 0, 40, 50
1, 1301263, Control_c, 0, 64, 75
1, 1301282, Control_c, 0, 64, 85
1, 1301301, Control_c, 0, 64, 100
1, 1301305, Poly_aftertouch_c, 0, 45, 28
1, 1301314, Note_on_c, 0, 45, 43
1, 1301319, Control_c, 0, 64, 127
1, 1301337, Control_c, 0, 67, 120
1, 1301354, Note_off_c, 0, 45, 53
1, 1301448, Poly_aftertouch_c, 0, 59, 28
1, 1301449, Note_on_c, 0, 59, 76
1, 1301457, Note_off_c, 0, 60, 59
1, 1301476, Poly_aftertouch_c, 0, 51, 28
1, 1301480, Note_on_c, 0, 51, 54
1, 1301507, Note_off_c, 0, 59, 59
1, 1301570, Note_off_c, 0, 51, 56
1, 1301605, Poly_aftertouch_c, 0, 54, 28
1, 1301610, Note_on_c, 0, 54, 64
1, 1301709, Note_off_c, 0, 54, 50
1, 1301722, Poly_aftertouch_c, 0, 57, 28
1, 1301727, Note_on_c, 0, 57, 80
1, 1301768, Control_c, 0, 64, 102
1, 1301788, Control_c, 0, 64, 73
1, 1301805, Control_c, 0, 64, 50
1, 1301825, Control_c, 0, 64, 39
1, 1301841, Poly_aftertouch_c, 0, 84, 28
1, 1301845, Note_on_c, 0, 84, 64
1, 1301862, Control_c, 0, 64, 49
1, 1301881, Control_c, 0, 64, 62
1, 1301899, Control_c, 0, 64, 74
1, 1301918, Control_c, 0, 64, 92
1, 1301936, Control_c, 0, 64, 127
1, 1301960, Note_off_c, 0, 84, 58
1, 1301963, Poly_aftertouch_c, 0, 54, 28
1, 1301967, Note_on_c, 0, 54, 83
1, 1301971, Poly_aftertouch_c, 0, 81, 28
1, 1301973, Control_c, 0, 64, 97
1, 1301974, Control_c, 0, 67, 116
1, 1301976, Note_on_c, 0, 81, 62
1, 1301980, Note_off_c, 0, 57, 63
1, 1301993, Control_c, 0, 64, 69
1, 1302011, Control_c, 0, 64, 50
1, 1302030, Control_c, 0, 64, 45
1, 1302049, Control_c, 0, 64, 52
1, 1302052, Note_off_c, 0, 81, 61
1, 1302067, Control_c, 0, 64, 62
1, 1302088, Control_c, 0, 64, 74
1, 1302098, Poly_aftertouch_c, 0, 76, 28
1, 1302103, Note_on_c, 0, 76, 54
1, 1302105, Control_c, 0, 64, 97
1, 1302123, Control_c, 0, 64, 127
1, 1302186, Note_off_c, 0, 76, 58
1, 1302273, Control_c, 0, 64, 108
1, 1302291, Poly_aftertouch_c, 0, 64, 28
1, 1302292, Control_c, 0, 64, 76
1, 1302294, Note_on_c, 0, 64, 78
1, 1302297, Poly_aftertouch_c, 0, 72, 28
1, 1302300, Note_on_c, 0, 72, 63
1, 1302312, Control_c, 0, 64, 55
1, 1302330, Control_c, 0, 64, 47
1, 1302331, Control_c, 0, 67, 112
1, 1302348, Control_c, 0, 64, 50
1, 1302368, Control_c, 0, 64, 59
1, 1302385, Control_c, 0, 64, 69
1, 1302405, Control_c, 0, 64, 83
1, 1302414, Note_off_c, 0, 64, 61
1, 1302422, Control_c, 0, 64, 110
1, 1302442, Control_c, 0, 64, 127
1, 1302448, Poly_aftertouch_c, 0, 69, 28
1, 1302451, Note_on_c, 0, 69, 56
1, 1302453, Note_off_c, 0, 54, 64
1, 1302469, Note_off_c, 0, 72, 56
1, 1302491, Note_off_c, 0, 69, 62
1, 1302575, Poly_aftertouch_c, 0, 63, 28
1, 1302581, Note_on_c, 0, 63, 81
1, 1302678, Poly_aftertouch_c, 0, 36, 28
1, 1302684, Note_on_c, 0, 36, 65
1, 1302782, Note_off_c, 0, 63, 56
1, 1302816, Control_c, 0, 64, 80
1, 1302835, Control_c, 0, 64, 57
1, 1302844, Poly_aftertouch_c, 0, 64, 28
1, 1302845, Note_on_c, 0, 64, 86
1, 1302849, Poly_aftertouch_c, 0, 45, 28
1, 1302852, Note_on_c, 0, 45, 62
1, 1302853, Control_c, 0, 64, 49
1, 1302872, Control_c, 0, 64, 52
1, 1302876, Note_off_c, 0, 36, 53
1, 1302893, Control_c, 0, 64, 60
1, 1302910, Control_c, 0, 64, 69
1, 1302929, Control_c, 0, 64, 82
1, 1302939, Note_off_c, 0, 45, 62
1, 1302946, Control_c, 0, 64, 116
1, 1302948, Poly_aftertouch_c, 0, 48, 28
1, 1302955, Note_on_c, 0, 48, 66
1, 1302967, Control_c, 0, 64, 127
1, 1302999, Note_off_c, 0, 48, 65
1, 1303095, Note_on_c, 0, 52, 77
1, 1303096, Poly_aftertouch_c, 0, 52, 28
1, 1303096, Poly_aftertouch_c, 0, 62, 28
1, 1303100, Note_on_c, 0, 62, 87
1, 1303129, Note_off_c, 0, 64, 48
1, 1303171, Note_off_c, 0, 62, 62
1, 1303182, Note_off_c, 0, 52, 59
1, 1303212, Poly_aftertouch_c, 0, 57, 28
1, 1303216, Note_on_c, 0, 57, 80
1, 1303277, Note_off_c, 0, 57, 61
1, 1303324, Poly_aftertouch_c, 0, 60, 28
1, 1303327, Note_on_c, 0, 60, 89
1, 1303465, Poly_aftertouch_c, 0, 89, 28
1, 1303469, Note_on_c, 0, 89, 72
1, 1303552, Note_off_c, 0, 60, 55
1, 1303564, Poly_aftertouch_c, 0, 59, 28
1, 1303567, Note_on_c, 0, 59, 93
1, 1303576, Poly_aftertouch_c, 0, 86, 28
1, 1303577, Note_off_c, 0, 89, 59
1, 1303580, Note_on_c, 0, 86, 74
1, 1303603, Control_c, 0, 64, 89
1, 1303604, Control_c, 0, 67, 108
1, 1303621, Control_c, 0, 64, 56
1, 1303640, Control_c, 0, 64, 24
1, 1303658, Control_c, 0, 64, 11
1, 1303663, Note_off_c, 0, 86, 62
1, 1303677, Control_c, 0, 67, 101
1, 1303694, Poly_aftertouch_c, 0, 81, 28
1, 1303696, Control_c, 0, 64, 18
1, 1303697, Control_c, 0, 67, 97
1, 1303699, Note_on_c, 0, 81, 68
1, 1303716, Control_c, 0, 64, 31
1, 1303733, Control_c, 0, 64, 51
1, 1303734, Control_c, 0, 67, 89
1, 1303753, Control_c, 0, 64, 74
1, 1303754, Control_c, 0, 67, 83
1, 1303768, Note_off_c, 0, 81, 63
1, 1303771, Control_c, 0, 64, 100
1, 1303773, Control_c, 0, 67, 78
1, 1303790, Control_c, 0, 64, 127
1, 1303791, Control_c, 0, 67, 73
1, 1303806, Poly_aftertouch_c, 0, 69, 28
1, 1303807, Control_c, 0, 67, 69
1, 1303809, Note_on_c, 0, 69, 91
1, 1303821, Poly_aftertouch_c, 0, 77, 28
1, 1303824, Note_on_c, 0, 77, 80
1, 1303846, Control_c, 0, 67, 65
1, 1303890, Note_off_c, 0, 69, 62
1, 1303902, Control_c, 0, 67, 60
1, 1303927, Note_off_c, 0, 59, 64
1, 1303950, Poly_aftertouch_c, 0, 74, 28
1, 1303952, Note_on_c, 0, 74, 76
1, 1303983, Note_off_c, 0, 77, 61
1, 1304027, Note_off_c, 0, 74, 61
1, 1304071, Poly_aftertouch_c, 0, 65, 28
1, 1304073, Note_on_c, 0, 65, 90
1, 1304202, Poly_aftertouch_c, 0, 38, 28
1, 1304203, Note_on_c, 0, 38, 78
1, 1304276, Control_c, 0, 64, 104
1, 1304296, Control_c, 0, 64, 67
1, 1304315, Control_c, 0, 64, 36
1, 1304332, Control_c, 0, 64, 19
1, 1304346, Poly_aftertouch_c, 0, 45, 28
1, 1304351, Note_on_c, 0, 45, 72
1, 1304370, Control_c, 0, 64, 30
1, 1304389, Control_c, 0, 64, 46
1, 1304407, Control_c, 0, 64, 69
1, 1304427, Control_c, 0, 64, 95
1, 1304446, Control_c, 0, 64, 127
1, 1304451, Poly_aftertouch_c, 0, 72, 28
1, 1304455, Note_on_c, 0, 72, 99
1, 1304476, Note_off_c, 0, 38, 47
1, 1304489, Note_off_c, 0, 65, 59
1, 1304538, Note_off_c, 0, 45, 59
1, 1304562, Poly_aftertouch_c, 0, 50, 28
1, 1304567, Note_on_c, 0, 50, 68
1, 1304608, Note_off_c, 0, 50, 65
1, 1304722, Poly_aftertouch_c, 0, 53, 28
1, 1304726, Note_on_c, 0, 53, 79
1, 1304738, Note_off_c, 0, 72, 58
1, 1304746, Note_on_c, 0, 71, 97
1, 1304746, Poly_aftertouch_c, 0, 71, 28
1, 1304818, Note_off_c, 0, 53, 57
1, 1304824, Note_off_c, 0, 71, 62
1, 1304854, Poly_aftertouch_c, 0, 57, 28
1, 1304857, Note_on_c, 0, 57, 77
1, 1304892, Note_off_c, 0, 57, 65
1, 1304973, Poly_aftertouch_c, 0, 65, 28
1, 1304975, Note_on_c, 0, 65, 94
1, 1305065, Note_off_c, 0, 65, 64
1, 1305100, Control_c, 0, 67, 56
1, 1305101, Poly_aftertouch_c, 0, 89, 28
1, 1305104, Note_on_c, 0, 89, 93
1, 1305137, Control_c, 0, 67, 48
1, 1305156, Control_c, 0, 67, 42
1, 1305175, Control_c, 0, 67, 34
1, 1305194, Control_c, 0, 67, 23
1, 1305212, Control_c, 0, 67, 11
1, 1305251, Control_c, 0, 67, 0
1, 1305264, Poly_aftertouch_c, 0, 72, 28
1, 1305270, Note_on_c, 0, 72, 102
1, 1305271, Poly_aftertouch_c, 0, 86, 28
1, 1305273, Note_on_c, 0, 86, 89
1, 1305291, Note_off_c, 0, 89, 64
1, 1305415, Note_off_c, 0, 86, 65
1, 1305439, Poly_aftertouch_c, 0, 81, 28
1, 1305441, Note_on_c, 0, 81, 87
1, 1305523, Note_off_c, 0, 81, 63
1, 1305627, Poly_aftertouch_c, 0, 77, 28
1, 1305629, Note_on_c, 0, 77, 98
1, 1305633, Poly_aftertouch_c, 0, 71, 28
1, 1305636, Note_on_c, 0, 71, 92
1, 1305649, Note_off_c, 0, 72, 61
1, 1305738, Note_off_c, 0, 71, 62
1, 1305882, Poly_aftertouch_c, 0, 74, 28
1, 1305884, Note_on_c, 0, 74, 93
1, 1305897, Note_off_c, 0, 77, 62
1, 1305953, Note_off_c, 0, 74, 63
1, 1306451, Poly_aftertouch_c, 0, 81, 28
1, 1306456, Note_on_c, 0, 81, 103
1, 1306474, Poly_aftertouch_c, 0, 72, 28
1, 1306477, Note_on_c, 0, 72, 75
1, 1306778, Poly_aftertouch_c, 0, 28, 28
1, 1306783, Note_on_c, 0, 28, 90
1, 1306803, Control_c, 0, 64, 82
1, 1306824, Control_c, 0, 64, 49
1, 1306860, Control_c, 0, 64, 0
1, 1306953, Control_c, 0, 64, 13
1, 1306972, Control_c, 0, 64, 40
1, 1306987, Note_off_c, 0, 81, 64
1, 1306991, Control_c, 0, 64, 76
1, 1307009, Control_c, 0, 64, 127
1, 1307063, Note_off_c, 0, 72, 55
1, 1307099, Poly_aftertouch_c, 0, 40, 28
1, 1307104, Note_on_c, 0, 40, 78
1, 1307154, Note_off_c, 0, 28, 56
1, 1307256, Poly_aftertouch_c, 0, 80, 28
1, 1307263, Note_on_c, 0, 80, 99
1, 1307264, Note_off_c, 0, 40, 60
1, 1307278, Poly_aftertouch_c, 0, 71, 28
1, 1307282, Note_on_c, 0, 71, 63
1, 1307430, Note_off_c, 0, 71, 23
1, 1307504, Poly_aftertouch_c, 0, 44, 28
1, 1307509, Note_on_c, 0, 44, 70
1, 1307768, Note_off_c, 0, 44, 36
1, 1307800, Poly_aftertouch_c, 0, 47, 28
1, 1307809, Note_on_c, 0, 47, 57
1, 1307836, Poly_aftertouch_c, 0, 77, 28
1, 1307838, Note_on_c, 0, 77, 86
1, 1307847, Poly_aftertouch_c, 0, 68, 28
1, 1307850, Note_on_c, 0, 68, 75
1, 1307885, Note_off_c, 0, 68, 62
1, 1307890, Note_off_c, 0, 80, 60
1, 1308019, Note_off_c, 0, 47, 37
1, 1308028, Poly_aftertouch_c, 0, 50, 28
1, 1308035, Note_on_c, 0, 50, 62
1, 1308162, Poly_aftertouch_c, 0, 76, 28
1, 1308162, Poly_aftertouch_c, 0, 76, 0
1, 1308181, Note_off_c, 0, 77, 51
1, 1308190, Poly_aftertouch_c, 0, 74, 28
1, 1308191, Note_on_c, 0, 74, 80
1, 1308199, Note_off_c, 0, 50, 37
1, 1308200, Poly_aftertouch_c, 0, 56, 28
1, 1308201, Poly_aftertouch_c, 0, 65, 28
1, 1308205, Note_on_c, 0, 56, 61
1, 1308207, Note_on_c, 0, 65, 68
1, 1308278, Note_off_c, 0, 74, 61
1, 1308300, Note_off_c, 0, 56, 59
1, 1308355, Poly_aftertouch_c, 0, 59, 28
1, 1308359, Note_on_c, 0, 59, 61
1, 1308507, Control_c, 0, 64, 103
1, 1308514, Poly_aftertouch_c, 0, 71, 28
1, 1308516, Note_on_c, 0, 71, 76
1, 1308527, Control_c, 0, 64, 73
1, 1308528, Poly_aftertouch_c, 0, 56, 28
1, 1308534, Note_on_c, 0, 56, 57
1, 1308540, Poly_aftertouch_c, 0, 62, 28
1, 1308544, Note_on_c, 0, 62, 40
1, 1308545, Control_c, 0, 64, 54
1, 1308549, Note_off_c, 0, 65, 61
1, 1308563, Control_c, 0, 64, 50
1, 1308582, Control_c, 0, 64, 55
1, 1308585, Note_off_c, 0, 59, 46
1, 1308594, Note_on_c, 0, 64, 20
1, 1308599, Control_c, 0, 64, 62
1, 1308619, Control_c, 0, 64, 72
1, 1308638, Control_c, 0, 64, 87
1, 1308657, Control_c, 0, 64, 127
1, 1308658, Note_off_c, 0, 64, 29
1, 1308658, Poly_aftertouch_c, 0, 64, 28
1, 1308685, Note_off_c, 0, 56, 56
1, 1308703, Poly_aftertouch_c, 0, 53, 28
1, 1308707, Note_on_c, 0, 53, 49
1, 1308900, Control_c, 0, 64, 102
1, 1308903, Note_off_c, 0, 71, 59
1, 1308908, Poly_aftertouch_c, 0, 68, 28
1, 1308913, Note_off_c, 0, 53, 33
1, 1308914, Poly_aftertouch_c, 0, 59, 28
1, 1308916, Note_on_c, 0, 59, 59
1, 1308917, Note_on_c, 0, 68, 67
1, 1308919, Control_c, 0, 64, 71
1, 1308921, Poly_aftertouch_c, 0, 50, 28
1, 1308925, Note_on_c, 0, 50, 51
1, 1308927, Note_off_c, 0, 62, 40
1, 1308937, Control_c, 0, 64, 47
1, 1308956, Control_c, 0, 64, 34
1, 1308994, Control_c, 0, 64, 43
1, 1309012, Control_c, 0, 64, 59
1, 1309031, Control_c, 0, 64, 77
1, 1309050, Control_c, 0, 64, 107
1, 1309069, Control_c, 0, 64, 127
1, 1309121, Note_off_c, 0, 50, 61
1, 1309137, Poly_aftertouch_c, 0, 47, 28
1, 1309145, Note_on_c, 0, 47, 49
1, 1309191, Note_off_c, 0, 47, 57
1, 1309421, Poly_aftertouch_c, 0, 65, 28
1, 1309429, Note_on_c, 0, 65, 61
1, 1309431, Note_off_c, 0, 59, 58
1, 1309439, Poly_aftertouch_c, 0, 44, 28
1, 1309440, Poly_aftertouch_c, 0, 62, 28
1, 1309441, Control_c, 0, 64, 104
1, 1309445, Note_on_c, 0, 44, 51
1, 1309448, Note_on_c, 0, 62, 48
1, 1309462, Control_c, 0, 64, 72
1, 1309478, Note_off_c, 0, 68, 50
1, 1309478, Control_c, 0, 64, 47
1, 1309498, Control_c, 0, 64, 26
1, 1309518, Control_c, 0, 64, 20
1, 1309555, Control_c, 0, 64, 28
1, 1309573, Control_c, 0, 64, 42
1, 1309593, Control_c, 0, 64, 64
1, 1309611, Control_c, 0, 64, 87
1, 1309630, Control_c, 0, 64, 127
1, 1309806, Poly_aftertouch_c, 0, 33, 28
1, 1309808, Note_off_c, 0, 44, 35
1, 1309811, Note_on_c, 0, 33, 44
1, 1309837, Control_c, 0, 64, 99
1, 1309856, Control_c, 0, 64, 70
1, 1309873, Control_c, 0, 64, 51
1, 1309891, Control_c, 0, 64, 49
1, 1309911, Control_c, 0, 64, 55
1, 1309930, Control_c, 0, 64, 65
1, 1309949, Control_c, 0, 64, 81
1, 1309967, Control_c, 0, 64, 127
1, 1310022, Note_off_c, 0, 65, 56
1, 1310219, Poly_aftertouch_c, 0, 45, 28
1, 1310227, Note_on_c, 0, 45, 40
1, 1310379, Control_c, 0, 64, 80
1, 1310398, Control_c, 0, 64, 54
1, 1310416, Control_c, 0, 64, 31
1, 1310436, Poly_aftertouch_c, 0, 64, 28
1, 1310436, Control_c, 0, 64, 19
1, 1310439, Note_on_c, 0, 64, 82
1, 1310473, Poly_aftertouch_c, 0, 61, 28
1, 1310477, Note_on_c, 0, 61, 57
1, 1310479, Note_off_c, 0, 62, 61
1, 1310491, Control_c, 0, 64, 30
1, 1310510, Control_c, 0, 64, 47
1, 1310523, Note_off_c, 0, 33, 32
1, 1310528, Control_c, 0, 64, 70
1, 1310547, Control_c, 0, 64, 99
1, 1310565, Control_c, 0, 64, 127
1, 1310716, Note_off_c, 0, 45, 56
1, 1311048, Note_off_c, 0, 61, 58
1, 1311102, Poly_aftertouch_c, 0, 49, 28
1, 1311111, Note_on_c, 0, 49, 31
1, 1311260, Control_c, 0, 67, 8
1, 1311352, Control_c, 0, 67, 12
1, 1311446, Control_c, 0, 67, 16
1, 1311502, Control_c, 0, 67, 22
1, 1311540, Control_c, 0, 67, 28
1, 1311576, Control_c, 0, 67, 32
1, 1311591, Poly_aftertouch_c, 0, 62, 28
1, 1311598, Note_on_c, 0, 62, 68
1, 1311624, Poly_aftertouch_c, 0, 59, 28
1, 1311627, Note_on_c, 0, 59, 45
1, 1311629, Poly_aftertouch_c, 0, 49, 24
1, 1311629, Poly_aftertouch_c, 0, 53, 28
1, 1311632, Control_c, 0, 64, 100
1, 1311632, Control_c, 0, 67, 37
1, 1311638, Note_on_c, 0, 53, 33
1, 1311640, Poly_aftertouch_c, 0, 45, 28
1, 1311647, Note_on_c, 0, 45, 36
1, 1311650, Control_c, 0, 64, 75
1, 1311670, Control_c, 0, 64, 55
1, 1311671, Control_c, 0, 67, 42
1, 1311689, Control_c, 0, 64, 35
1, 1311695, Note_off_c, 0, 49, 37
1, 1311708, Control_c, 0, 64, 15
1, 1311709, Control_c, 0, 67, 47
1, 1311745, Control_c, 0, 64, 0
1, 1311746, Control_c, 0, 67, 54
1, 1311763, Control_c, 0, 67, 58
1, 1311769, Note_off_c, 0, 64, 27
1, 1311783, Control_c, 0, 67, 63
1, 1311802, Control_c, 0, 67, 68
1, 1311819, Control_c, 0, 67, 72
1, 1311857, Control_c, 0, 67, 77
1, 1312025, Control_c, 0, 64, 9
1, 1312045, Control_c, 0, 64, 13
1, 1312064, Control_c, 0, 64, 18
1, 1312082, Control_c, 0, 64, 22
1, 1312100, Control_c, 0, 64, 27
1, 1312120, Control_c, 0, 64, 34
1, 1312139, Control_c, 0, 64, 45
1, 1312156, Control_c, 0, 64, 57
1, 1312176, Control_c, 0, 64, 63
1, 1312194, Control_c, 0, 64, 64
1, 1312250, Control_c, 0, 64, 65
1, 1312270, Control_c, 0, 64, 67
1, 1312307, Control_c, 0, 64, 70
1, 1312325, Control_c, 0, 64, 73
1, 1312345, Control_c, 0, 64, 76
1, 1312362, Control_c, 0, 64, 79
1, 1312382, Control_c, 0, 64, 83
1, 1312401, Control_c, 0, 64, 87
1, 1312418, Control_c, 0, 64, 93
1, 1312426, Poly_aftertouch_c, 0, 56, 28
1, 1312435, Note_on_c, 0, 56, 33
1, 1312437, Control_c, 0, 64, 99
1, 1312457, Control_c, 0, 64, 108
1, 1312475, Control_c, 0, 64, 127
1, 1312563, Note_off_c, 0, 53, 40
1, 1312757, Note_off_c, 0, 62, 35
1, 1313036, Control_c, 0, 67, 85
1, 1313055, Control_c, 0, 67, 89
1, 1313074, Control_c, 0, 67, 93
1, 1313092, Control_c, 0, 67, 98
1, 1313130, Control_c, 0, 67, 102
1, 1313261, Control_c, 0, 67, 106
1, 1313774, Poly_aftertouch_c, 0, 61, 28
1, 1313779, Note_on_c, 0, 61, 37
1, 1313783, Poly_aftertouch_c, 0, 52, 28
1, 1313783, Poly_aftertouch_c, 0, 57, 28
1, 1313791, Note_on_c, 0, 52, 33
1, 1313797, Note_on_c, 0, 57, 22
1, 1313843, Note_off_c, 0, 59, 48
1, 1313861, Control_c, 0, 64, 105
1, 1313880, Control_c, 0, 64, 93
1, 1313898, Control_c, 0, 64, 81
1, 1313916, Control_c, 0, 64, 70
1, 1313937, Control_c, 0, 64, 62
1, 1313953, Control_c, 0, 64, 55
1, 1313973, Control_c, 0, 64, 48
1, 1313976, Note_off_c, 0, 56, 37
1, 1313992, Control_c, 0, 64, 43
1, 1314010, Control_c, 0, 64, 38
1, 1314029, Control_c, 0, 64, 33
1, 1314047, Control_c, 0, 64, 29
1, 1314085, Control_c, 0, 64, 23
1, 1314123, Control_c, 0, 67, 102
1, 1314141, Control_c, 0, 64, 19
1, 1315470, Control_c, 0, 64, 23
1, 1315507, Control_c, 0, 64, 32
1, 1315526, Control_c, 0, 64, 38
1, 1315546, Control_c, 0, 64, 47
1, 1315563, Control_c, 0, 64, 56
1, 1315582, Control_c, 0, 64, 62
1, 1315601, Control_c, 0, 64, 64
1, 1315638, Control_c, 0, 64, 65
1, 1315658, Control_c, 0, 64, 67
1, 1315676, Control_c, 0, 64, 70
1, 1315694, Poly_aftertouch_c, 0, 45, 24
1, 1315694, Control_c, 0, 64, 75
1, 1315713, Control_c, 0, 64, 82
1, 1315733, Control_c, 0, 64, 92
1, 1315751, Control_c, 0, 64, 107
1, 1315770, Control_c, 0, 64, 127
1, 1315938, Note_off_c, 0, 45, 19
1, 1316089, Note_off_c, 0, 52, 29
1, 1316203, Note_off_c, 0, 61, 52
1, 1316249, Note_off_c, 0, 57, 38
1, 1316688, Control_c, 0, 64, 99
1, 1316705, Control_c, 0, 64, 78
1, 1316724, Control_c, 0, 64, 63
1, 1316743, Control_c, 0, 64, 51
1, 1316762, Control_c, 0, 64, 42
1, 1316780, Control_c, 0, 64, 33
1, 1316791, Poly_aftertouch_c, 0, 58, 28
1, 1316795, Note_on_c, 0, 58, 59
1, 1316798, Control_c, 0, 64, 24
1, 1316818, Control_c, 0, 64, 17
1, 1316836, Control_c, 0, 64, 11
1, 1316847, Note_off_c, 0, 58, 65
1, 1316878, Poly_aftertouch_c, 0, 55, 28
1, 1316885, Note_on_c, 0, 55, 56
1, 1316937, Note_off_c, 0, 55, 63
1, 1316960, Poly_aftertouch_c, 0, 52, 28
1, 1316965, Note_on_c, 0, 52, 57
1, 1317029, Poly_aftertouch_c, 0, 49, 28
1, 1317030, Note_off_c, 0, 52, 60
1, 1317032, Note_on_c, 0, 49, 60
1, 1317062, Note_off_c, 0, 49, 62
1, 1317103, Poly_aftertouch_c, 0, 52, 28
1, 1317109, Note_on_c, 0, 52, 57
1, 1317157, Note_off_c, 0, 52, 63
1, 1317192, Poly_aftertouch_c, 0, 55, 28
1, 1317198, Note_on_c, 0, 55, 64
1, 1317251, Note_off_c, 0, 55, 62
1, 1317287, Poly_aftertouch_c, 0, 60, 28
1, 1317292, Note_on_c, 0, 60, 50
1, 1317352, Note_off_c, 0, 60, 58
1, 1317352, Poly_aftertouch_c, 0, 58, 28
1, 1317361, Note_on_c, 0, 58, 54
1, 1317410, Note_off_c, 0, 58, 63
1, 1317455, Poly_aftertouch_c, 0, 65, 28
1, 1317461, Note_on_c, 0, 65, 60
1, 1317499, Note_off_c, 0, 65, 65
1, 1317518, Poly_aftertouch_c, 0, 61, 28
1, 1317522, Note_on_c, 0, 61, 66
1, 1317587, Note_off_c, 0, 61, 51
1, 1317604, Poly_aftertouch_c, 0, 57, 28
1, 1317612, Note_on_c, 0, 57, 41
1, 1317677, Poly_aftertouch_c, 0, 58, 28
1, 1317686, Note_off_c, 0, 57, 58
1, 1317686, Note_on_c, 0, 58, 55
1, 1317698, Control_c, 0, 67, 97
1, 1317736, Note_off_c, 0, 58, 65
1, 1317770, Poly_aftertouch_c, 0, 64, 28
1, 1317772, Control_c, 0, 67, 93
1, 1317774, Note_on_c, 0, 64, 57
1, 1317811, Control_c, 0, 67, 86
1, 1317819, Note_off_c, 0, 64, 63
1, 1317828, Control_c, 0, 67, 80
1, 1317846, Poly_aftertouch_c, 0, 61, 28
1, 1317846, Control_c, 0, 67, 74
1, 1317852, Note_on_c, 0, 61, 52
1, 1317867, Control_c, 0, 67, 65
1, 1317885, Control_c, 0, 67, 57
1, 1317903, Control_c, 0, 67, 50
1, 1317909, Note_off_c, 0, 61, 59
1, 1317922, Control_c, 0, 67, 46
1, 1317923, Poly_aftertouch_c, 0, 57, 28
1, 1317928, Note_on_c, 0, 57, 54
1, 1317982, Note_off_c, 0, 57, 65
1, 1318005, Poly_aftertouch_c, 0, 55, 28
1, 1318012, Note_on_c, 0, 55, 49
1, 1318048, Note_off_c, 0, 55, 62
1, 1318074, Control_c, 0, 67, 42
1, 1318094, Poly_aftertouch_c, 0, 58, 28
1, 1318099, Note_on_c, 0, 58, 61
1, 1318109, Control_c, 0, 67, 38
1, 1318128, Control_c, 0, 67, 32
1, 1318139, Note_off_c, 0, 58, 65
1, 1318146, Control_c, 0, 67, 24
1, 1318151, Poly_aftertouch_c, 0, 55, 28
1, 1318159, Note_on_c, 0, 55, 61
1, 1318165, Control_c, 0, 67, 15
1, 1318203, Control_c, 0, 67, 0
1, 1318220, Note_off_c, 0, 55, 60
1, 1318253, Poly_aftertouch_c, 0, 52, 28
1, 1318258, Note_on_c, 0, 52, 54
1, 1318312, Note_off_c, 0, 52, 62
1, 1318317, Poly_aftertouch_c, 0, 49, 28
1, 1318321, Note_on_c, 0, 49, 68
1, 1318352, Note_off_c, 0, 49, 64
1, 1318422, Poly_aftertouch_c, 0, 52, 28
1, 1318427, Note_on_c, 0, 52, 66
1, 1318461, Note_off_c, 0, 52, 62
1, 1318499, Poly_aftertouch_c, 0, 55, 28
1, 1318503, Note_on_c, 0, 55, 71
1, 1318556, Note_off_c, 0, 55, 60
1, 1318586, Poly_aftertouch_c, 0, 60, 28
1, 1318592, Note_on_c, 0, 60, 53
1, 1318660, Poly_aftertouch_c, 0, 58, 28
1, 1318667, Note_on_c, 0, 58, 61
1, 1318673, Note_off_c, 0, 60, 58
1, 1318719, Note_off_c, 0, 58, 65
1, 1318760, Poly_aftertouch_c, 0, 69, 28
1, 1318762, Note_on_c, 0, 69, 76
1, 1318810, Note_off_c, 0, 69, 54
1, 1318834, Poly_aftertouch_c, 0, 64, 28
1, 1318838, Note_on_c, 0, 64, 72
1, 1318924, Note_off_c, 0, 64, 58
1, 1318932, Poly_aftertouch_c, 0, 60, 28
1, 1318934, Note_on_c, 0, 60, 63
1, 1319009, Note_off_c, 0, 60, 62
1, 1319014, Poly_aftertouch_c, 0, 61, 28
1, 1319018, Note_on_c, 0, 61, 61
1, 1319053, Note_off_c, 0, 61, 62
1, 1319095, Poly_aftertouch_c, 0, 67, 28
1, 1319098, Note_on_c, 0, 67, 61
1, 1319130, Note_off_c, 0, 67, 53
1, 1319162, Note_on_c, 0, 64, 51
1, 1319165, Poly_aftertouch_c, 0, 64, 28
1, 1319228, Note_off_c, 0, 64, 41
1, 1319253, Poly_aftertouch_c, 0, 57, 28
1, 1319256, Note_on_c, 0, 57, 62
1, 1319284, Poly_aftertouch_c, 0, 62, 28
1, 1319286, Poly_aftertouch_c, 0, 62, 0
1, 1319309, Note_off_c, 0, 57, 60
1, 1319336, Poly_aftertouch_c, 0, 55, 28
1, 1319343, Note_on_c, 0, 55, 54
1, 1319377, Note_off_c, 0, 55, 61
1, 1319414, Poly_aftertouch_c, 0, 58, 28
1, 1319418, Note_on_c, 0, 58, 71
1, 1319465, Note_off_c, 0, 58, 65
1, 1319481, Poly_aftertouch_c, 0, 55, 28
1, 1319487, Note_on_c, 0, 55, 64
1, 1319564, Note_off_c, 0, 55, 62
1, 1319572, Poly_aftertouch_c, 0, 52, 28
1, 1319577, Note_on_c, 0, 52, 67
1, 1319649, Note_off_c, 0, 52, 60
1, 1319649, Poly_aftertouch_c, 0, 49, 28
1, 1319654, Note_on_c, 0, 49, 70
1, 1319685, Note_off_c, 0, 49, 66
1, 1319722, Poly_aftertouch_c, 0, 55, 28
1, 1319727, Note_on_c, 0, 55, 73
1, 1319784, Note_off_c, 0, 55, 55
1, 1319805, Poly_aftertouch_c, 0, 58, 28
1, 1319814, Note_on_c, 0, 58, 75
1, 1319891, Poly_aftertouch_c, 0, 65, 28
1, 1319896, Note_off_c, 0, 58, 61
1, 1319896, Note_on_c, 0, 65, 62
1, 1319979, Poly_aftertouch_c, 0, 64, 28
1, 1319984, Note_on_c, 0, 64, 65
1, 1320006, Note_off_c, 0, 65, 60
1, 1320063, Poly_aftertouch_c, 0, 70, 28
1, 1320066, Note_on_c, 0, 70, 86
1, 1320081, Note_off_c, 0, 64, 59
1, 1320126, Note_off_c, 0, 70, 63
1, 1320139, Poly_aftertouch_c, 0, 64, 28
1, 1320145, Note_on_c, 0, 64, 58
1, 1320242, Note_off_c, 0, 64, 62
1, 1320242, Poly_aftertouch_c, 0, 61, 28
1, 1320244, Note_on_c, 0, 61, 71
1, 1320273, Note_off_c, 0, 61, 67
1, 1320318, Poly_aftertouch_c, 0, 69, 28
1, 1320322, Note_on_c, 0, 69, 79
1, 1320364, Note_off_c, 0, 69, 55
1, 1320393, Poly_aftertouch_c, 0, 62, 28
1, 1320394, Note_on_c, 0, 62, 80
1, 1320474, Note_off_c, 0, 62, 57
1, 1320479, Poly_aftertouch_c, 0, 65, 28
1, 1320483, Note_on_c, 0, 65, 78
1, 1320564, Poly_aftertouch_c, 0, 72, 28
1, 1320567, Note_on_c, 0, 72, 66
1, 1320573, Note_off_c, 0, 65, 60
1, 1320579, Control_c, 0, 64, 0
1, 1320629, Poly_aftertouch_c, 0, 70, 28
1, 1320637, Note_on_c, 0, 70, 73
1, 1320666, Note_off_c, 0, 72, 60
1, 1320704, Note_off_c, 0, 70, 61
1, 1320739, Poly_aftertouch_c, 0, 74, 28
1, 1320740, Note_on_c, 0, 74, 88
1, 1320793, Poly_aftertouch_c, 0, 67, 28
1, 1320799, Note_on_c, 0, 67, 51
1, 1320806, Note_off_c, 0, 74, 56
1, 1320899, Poly_aftertouch_c, 0, 64, 28
1, 1320900, Note_on_c, 0, 64, 73
1, 1320904, Note_off_c, 0, 67, 62
1, 1320968, Note_off_c, 0, 64, 61
1, 1320994, Poly_aftertouch_c, 0, 73, 28
1, 1320997, Note_on_c, 0, 73, 81
1, 1321055, Note_off_c, 0, 73, 60
1, 1321072, Poly_aftertouch_c, 0, 65, 28
1, 1321075, Note_on_c, 0, 65, 81
1, 1321143, Note_off_c, 0, 65, 60
1, 1321171, Note_on_c, 0, 69, 79
1, 1321172, Poly_aftertouch_c, 0, 69, 28
1, 1321218, Poly_aftertouch_c, 0, 76, 28
1, 1321222, Note_on_c, 0, 76, 67
1, 1321254, Note_off_c, 0, 69, 57
1, 1321304, Poly_aftertouch_c, 0, 74, 28
1, 1321306, Note_on_c, 0, 74, 72
1, 1321332, Note_off_c, 0, 76, 62
1, 1321384, Note_off_c, 0, 74, 62
1, 1321405, Control_c, 0, 64, 20
1, 1321412, Note_on_c, 0, 77, 80
1, 1321413, Poly_aftertouch_c, 0, 77, 28
1, 1321422, Control_c, 0, 64, 41
1, 1321442, Control_c, 0, 64, 64
1, 1321460, Control_c, 0, 64, 76
1, 1321478, Poly_aftertouch_c, 0, 70, 28
1, 1321479, Note_off_c, 0, 77, 59
1, 1321479, Control_c, 0, 64, 83
1, 1321485, Note_on_c, 0, 70, 71
1, 1321498, Control_c, 0, 64, 85
1, 1321553, Control_c, 0, 64, 87
1, 1321558, Poly_aftertouch_c, 0, 67, 28
1, 1321563, Note_on_c, 0, 67, 73
1, 1321588, Note_off_c, 0, 70, 60
1, 1321610, Control_c, 0, 64, 92
1, 1321621, Note_off_c, 0, 67, 60
1, 1321641, Poly_aftertouch_c, 0, 76, 28
1, 1321643, Note_on_c, 0, 76, 82
1, 1321647, Control_c, 0, 64, 100
1, 1321666, Control_c, 0, 64, 105
1, 1321685, Control_c, 0, 64, 114
1, 1321704, Control_c, 0, 64, 127
1, 1321726, Poly_aftertouch_c, 0, 77, 28
1, 1321728, Note_on_c, 0, 77, 86
1, 1321731, Note_off_c, 0, 76, 51
1, 1321807, Poly_aftertouch_c, 0, 82, 28
1, 1321809, Note_on_c, 0, 82, 90
1, 1321816, Note_off_c, 0, 77, 63
1, 1321887, Poly_aftertouch_c, 0, 86, 28
1, 1321889, Note_on_c, 0, 86, 77
1, 1321916, Note_off_c, 0, 82, 65
1, 1321953, Poly_aftertouch_c, 0, 76, 28
1, 1321955, Note_on_c, 0, 76, 82
1, 1321982, Note_off_c, 0, 86, 63
1, 1321983, Control_c, 0, 64, 114
1, 1321985, Note_off_c, 0, 76, 67
1, 1322002, Control_c, 0, 64, 74
1, 1322021, Control_c, 0, 64, 43
1, 1322041, Control_c, 0, 64, 12
1, 1322047, Poly_aftertouch_c, 0, 77, 28
1, 1322048, Note_on_c, 0, 77, 88
1, 1322110, Note_off_c, 0, 77, 62
1, 1322114, Poly_aftertouch_c, 0, 71, 28
1, 1322114, Control_c, 0, 64, 19
1, 1322122, Note_on_c, 0, 71, 74
1, 1322134, Control_c, 0, 64, 39
1, 1322153, Control_c, 0, 64, 64
1, 1322172, Control_c, 0, 64, 82
1, 1322190, Control_c, 0, 64, 104
1, 1322202, Poly_aftertouch_c, 0, 68, 28
1, 1322206, Note_on_c, 0, 68, 81
1, 1322208, Control_c, 0, 64, 127
1, 1322234, Note_off_c, 0, 71, 60
1, 1322286, Poly_aftertouch_c, 0, 76, 28
1, 1322290, Note_on_c, 0, 76, 87
1, 1322307, Note_off_c, 0, 68, 64
1, 1322351, Note_off_c, 0, 76, 60
1, 1322366, Poly_aftertouch_c, 0, 77, 28
1, 1322370, Note_on_c, 0, 77, 89
1, 1322445, Poly_aftertouch_c, 0, 83, 28
1, 1322448, Note_on_c, 0, 83, 85
1, 1322450, Note_off_c, 0, 77, 60
1, 1322520, Poly_aftertouch_c, 0, 86, 28
1, 1322526, Note_on_c, 0, 86, 86
1, 1322553, Note_off_c, 0, 83, 63
1, 1322595, Poly_aftertouch_c, 0, 76, 28
1, 1322597, Note_on_c, 0, 76, 82
1, 1322628, Note_off_c, 0, 86, 64
1, 1322639, Control_c, 0, 64, 111
1, 1322647, Note_off_c, 0, 76, 60
1, 1322658, Control_c, 0, 64, 72
1, 1322678, Control_c, 0, 64, 42
1, 1322685, Poly_aftertouch_c, 0, 77, 28
1, 1322688, Note_on_c, 0, 77, 90
1, 1322697, Control_c, 0, 64, 19
1, 1322733, Note_off_c, 0, 77, 64
1, 1322757, Poly_aftertouch_c, 0, 74, 28
1, 1322760, Note_on_c, 0, 74, 80
1, 1322771, Control_c, 0, 64, 34
1, 1322789, Control_c, 0, 64, 53
1, 1322808, Control_c, 0, 64, 69
1, 1322826, Control_c, 0, 64, 80
1, 1322839, Note_on_c, 0, 69, 85
1, 1322840, Poly_aftertouch_c, 0, 69, 28
1, 1322846, Control_c, 0, 64, 90
1, 1322855, Note_off_c, 0, 74, 60
1, 1322862, Control_c, 0, 64, 101
1, 1322883, Control_c, 0, 64, 119
1, 1322902, Control_c, 0, 64, 127
1, 1322909, Note_off_c, 0, 69, 61
1, 1322927, Poly_aftertouch_c, 0, 76, 28
1, 1322929, Note_on_c, 0, 76, 82
1, 1322994, Poly_aftertouch_c, 0, 81, 28
1, 1322998, Note_on_c, 0, 81, 93
1, 1323001, Poly_aftertouch_c, 0, 77, 28
1, 1323002, Poly_aftertouch_c, 0, 86, 28
1, 1323004, Note_on_c, 0, 86, 85
1, 1323005, Note_on_c, 0, 77, 88
1, 1323018, Note_off_c, 0, 76, 59
1, 1323069, Poly_aftertouch_c, 0, 76, 28
1, 1323078, Note_on_c, 0, 76, 72
1, 1323084, Note_off_c, 0, 81, 63
1, 1323085, Note_off_c, 0, 86, 63
1, 1323089, Note_off_c, 0, 77, 62
1, 1323130, Note_off_c, 0, 76, 64
1, 1323185, Note_on_c, 0, 77, 80
1, 1323186, Poly_aftertouch_c, 0, 77, 28
1, 1323196, Poly_aftertouch_c, 0, 69, 28
1, 1323198, Note_on_c, 0, 69, 60
1, 1323211, Poly_aftertouch_c, 0, 74, 28
1, 1323215, Note_on_c, 0, 74, 54
1, 1323216, Note_off_c, 0, 77, 59
1, 1323223, Note_on_c, 0, 72, 58
1, 1323223, Poly_aftertouch_c, 0, 72, 28
1, 1323273, Poly_aftertouch_c, 0, 76, 28
1, 1323275, Note_on_c, 0, 76, 84
1, 1323290, Note_off_c, 0, 72, 47
1, 1323307, Note_off_c, 0, 74, 60
1, 1323327, Note_off_c, 0, 69, 61
1, 1323330, Note_off_c, 0, 76, 65
1, 1323335, Poly_aftertouch_c, 0, 82, 28
1, 1323337, Note_on_c, 0, 82, 98
1, 1323343, Poly_aftertouch_c, 0, 77, 28
1, 1323344, Poly_aftertouch_c, 0, 86, 28
1, 1323346, Note_on_c, 0, 86, 93
1, 1323346, Note_on_c, 0, 77, 97
1, 1323409, Poly_aftertouch_c, 0, 76, 28
1, 1323412, Note_on_c, 0, 76, 85
1, 1323424, Note_off_c, 0, 77, 64
1, 1323425, Note_off_c, 0, 86, 60
1, 1323429, Note_off_c, 0, 82, 66
1, 1323470, Note_off_c, 0, 76, 67
1, 1323496, Poly_aftertouch_c, 0, 70, 28
1, 1323502, Note_on_c, 0, 70, 79
1, 1323511, Poly_aftertouch_c, 0, 77, 28
1, 1323514, Note_on_c, 0, 77, 72
1, 1323527, Poly_aftertouch_c, 0, 74, 28
1, 1323529, Note_on_c, 0, 74, 70
1, 1323592, Note_off_c, 0, 77, 58
1, 1323608, Poly_aftertouch_c, 0, 76, 28
1, 1323609, Note_on_c, 0, 76, 81
1, 1323617, Note_off_c, 0, 74, 63
1, 1323622, Note_off_c, 0, 70, 64
1, 1323662, Note_off_c, 0, 76, 58
1, 1323663, Poly_aftertouch_c, 0, 86, 28
1, 1323664, Note_on_c, 0, 86, 96
1, 1323668, Poly_aftertouch_c, 0, 77, 28
1, 1323671, Note_on_c, 0, 77, 91
1, 1323675, Note_on_c, 0, 83, 86
1, 1323676, Poly_aftertouch_c, 0, 83, 28
1, 1323736, Poly_aftertouch_c, 0, 76, 28
1, 1323738, Note_on_c, 0, 76, 80
1, 1323742, Note_off_c, 0, 77, 63
1, 1323758, Note_off_c, 0, 83, 64
1, 1323762, Note_off_c, 0, 86, 61
1, 1323794, Note_off_c, 0, 76, 64
1, 1323834, Note_on_c, 0, 77, 79
1, 1323837, Poly_aftertouch_c, 0, 71, 28
1, 1323837, Poly_aftertouch_c, 0, 77, 28
1, 1323840, Note_on_c, 0, 71, 69
1, 1323848, Poly_aftertouch_c, 0, 74, 28
1, 1323853, Note_on_c, 0, 74, 72
1, 1323875, Control_c, 0, 64, 104
1, 1323894, Control_c, 0, 64, 67
1, 1323906, Note_off_c, 0, 77, 56
1, 1323910, Control_c, 0, 64, 36
1, 1323924, Poly_aftertouch_c, 0, 76, 28
1, 1323926, Note_on_c, 0, 76, 84
1, 1323930, Control_c, 0, 64, 11
1, 1323962, Note_off_c, 0, 74, 61
1, 1323974, Note_off_c, 0, 71, 60
1, 1323983, Note_off_c, 0, 76, 63
1, 1323987, Control_c, 0, 64, 25
1, 1323995, Poly_aftertouch_c, 0, 86, 28
1, 1323999, Note_on_c, 0, 86, 101
1, 1324003, Note_on_c, 0, 83, 97
1, 1324003, Note_on_c, 0, 77, 99
1, 1324005, Poly_aftertouch_c, 0, 77, 28
1, 1324005, Poly_aftertouch_c, 0, 83, 28
1, 1324006, Control_c, 0, 64, 48
1, 1324025, Control_c, 0, 64, 77
1, 1324044, Control_c, 0, 64, 121
1, 1324045, Note_off_c, 0, 83, 64
1, 1324045, Note_off_c, 0, 77, 64
1, 1324051, Note_off_c, 0, 86, 64
1, 1324061, Control_c, 0, 64, 127
1, 1324087, Poly_aftertouch_c, 0, 74, 28
1, 1324089, Note_on_c, 0, 74, 80
1, 1324135, Poly_aftertouch_c, 0, 71, 28
1, 1324140, Note_on_c, 0, 71, 80
1, 1324146, Note_off_c, 0, 74, 60
1, 1324227, Note_off_c, 0, 71, 62
1, 1324232, Poly_aftertouch_c, 0, 68, 28
1, 1324235, Note_on_c, 0, 68, 78
1, 1324267, Note_off_c, 0, 68, 68
1, 1324314, Poly_aftertouch_c, 0, 65, 28
1, 1324321, Note_on_c, 0, 65, 97
1, 1324322, Note_on_c, 0, 74, 90
1, 1324323, Poly_aftertouch_c, 0, 71, 28
1, 1324323, Poly_aftertouch_c, 0, 74, 28
1, 1324326, Note_on_c, 0, 71, 87
1, 1324330, Note_on_c, 0, 76, 69
1, 1324333, Poly_aftertouch_c, 0, 76, 28
1, 1324351, Note_off_c, 0, 71, 73
1, 1324351, Note_on_c, 0, 72, 52
1, 1324352, Note_off_c, 0, 76, 67
1, 1324355, Note_off_c, 0, 65, 64
1, 1324360, Note_off_c, 0, 74, 65
1, 1324381, Note_off_c, 0, 72, 41
1, 1324381, Poly_aftertouch_c, 0, 72, 28
1, 1324401, Poly_aftertouch_c, 0, 62, 28
1, 1324406, Note_on_c, 0, 62, 70
1, 1324461, Note_off_c, 0, 62, 58
1, 1324472, Poly_aftertouch_c, 0, 59, 28
1, 1324475, Note_on_c, 0, 59, 83
1, 1324554, Poly_aftertouch_c, 0, 56, 28
1, 1324559, Note_on_c, 0, 56, 87
1, 1324568, Note_off_c, 0, 59, 63
1, 1324601, Note_off_c, 0, 56, 65
1, 1324664, Poly_aftertouch_c, 0, 62, 28
1, 1324667, Note_on_c, 0, 62, 98
1, 1324670, Poly_aftertouch_c, 0, 53, 28
1, 1324671, Poly_aftertouch_c, 0, 59, 28
1, 1324672, Note_on_c, 0, 53, 97
1, 1324673, Note_on_c, 0, 59, 95
1, 1324700, Note_off_c, 0, 59, 66
1, 1324707, Note_off_c, 0, 53, 61
1, 1324718, Note_off_c, 0, 62, 64
1, 1324749, Poly_aftertouch_c, 0, 50, 28
1, 1324754, Note_on_c, 0, 50, 83
1, 1324760, Poly_aftertouch_c, 0, 52, 28
1, 1324761, Note_on_c, 0, 52, 81
1, 1324786, Note_off_c, 0, 52, 62
1, 1324824, Note_off_c, 0, 50, 57
1, 1324845, Poly_aftertouch_c, 0, 47, 28
1, 1324852, Note_on_c, 0, 47, 91
1, 1324939, Poly_aftertouch_c, 0, 44, 28
1, 1324943, Note_on_c, 0, 44, 93
1, 1324952, Note_off_c, 0, 47, 65
1, 1324995, Note_off_c, 0, 44, 60
1, 1325166, Control_c, 0, 64, 79
1, 1325186, Control_c, 0, 64, 39
1, 1325200, Poly_aftertouch_c, 0, 31, 28
1, 1325200, Poly_aftertouch_c, 0, 43, 28
1, 1325203, Control_c, 0, 64, 0
1, 1325206, Note_on_c, 0, 43, 108
1, 1325207, Note_on_c, 0, 31, 106
1, 1325259, Note_off_c, 0, 31, 65
1, 1325298, Control_c, 0, 64, 11
1, 1325304, Note_off_c, 0, 43, 39
1, 1325317, Control_c, 0, 64, 31
1, 1325335, Control_c, 0, 64, 58
1, 1325354, Control_c, 0, 64, 79
1, 1325372, Control_c, 0, 64, 101
1, 1325384, Poly_aftertouch_c, 0, 46, 28
1, 1325389, Note_on_c, 0, 46, 74
1, 1325390, Control_c, 0, 64, 127
1, 1325392, Poly_aftertouch_c, 0, 34, 28
1, 1325400, Note_on_c, 0, 34, 65
1, 1325448, Note_off_c, 0, 46, 60
1, 1325455, Note_off_c, 0, 34, 60
1, 1325480, Poly_aftertouch_c, 0, 37, 28
1, 1325482, Note_on_c, 0, 37, 80
1, 1325500, Poly_aftertouch_c, 0, 49, 28
1, 1325502, Note_on_c, 0, 49, 75
1, 1325550, Note_off_c, 0, 37, 63
1, 1325569, Note_off_c, 0, 49, 58
1, 1325581, Poly_aftertouch_c, 0, 52, 28
1, 1325587, Note_on_c, 0, 52, 74
1, 1325595, Poly_aftertouch_c, 0, 40, 28
1, 1325598, Note_on_c, 0, 40, 64
1, 1325624, Note_off_c, 0, 52, 64
1, 1325632, Note_off_c, 0, 40, 57
1, 1325658, Poly_aftertouch_c, 0, 43, 28
1, 1325671, Note_on_c, 0, 43, 61
1, 1325680, Poly_aftertouch_c, 0, 55, 28
1, 1325683, Note_on_c, 0, 55, 82
1, 1325709, Note_off_c, 0, 43, 59
1, 1325750, Note_off_c, 0, 55, 60
1, 1325750, Poly_aftertouch_c, 0, 46, 28
1, 1325754, Note_on_c, 0, 46, 81
1, 1325756, Poly_aftertouch_c, 0, 58, 28
1, 1325763, Note_on_c, 0, 58, 79
1, 1325826, Poly_aftertouch_c, 0, 61, 28
1, 1325829, Note_on_c, 0, 61, 83
1, 1325836, Poly_aftertouch_c, 0, 49, 28
1, 1325839, Note_on_c, 0, 49, 85
1, 1325842, Note_off_c, 0, 58, 65
1, 1325846, Note_off_c, 0, 46, 64
1, 1325916, Poly_aftertouch_c, 0, 52, 28
1, 1325917, Poly_aftertouch_c, 0, 64, 28
1, 1325919, Note_on_c, 0, 64, 67
1, 1325919, Note_on_c, 0, 52, 83
1, 1325923, Note_off_c, 0, 49, 66
1, 1325924, Note_off_c, 0, 61, 61
1, 1325953, Note_off_c, 0, 64, 67
1, 1325957, Note_off_c, 0, 52, 62
1, 1325980, Poly_aftertouch_c, 0, 62, 28
1, 1325988, Poly_aftertouch_c, 0, 55, 28
1, 1325994, Note_on_c, 0, 55, 82
1, 1326008, Poly_aftertouch_c, 0, 67, 28
1, 1326011, Note_on_c, 0, 67, 89
1, 1326034, Poly_aftertouch_c, 0, 62, 127
1, 1326048, Poly_aftertouch_c, 0, 62, 0
1, 1326058, Note_off_c, 0, 55, 63
1, 1326075, Note_off_c, 0, 67, 54
1, 1326080, Poly_aftertouch_c, 0, 70, 28
1, 1326085, Poly_aftertouch_c, 0, 58, 28
1, 1326086, Note_on_c, 0, 70, 90
1, 1326088, Note_on_c, 0, 58, 81
1, 1326163, Poly_aftertouch_c, 0, 73, 28
1, 1326167, Note_on_c, 0, 73, 87
1, 1326172, Poly_aftertouch_c, 0, 61, 28
1, 1326178, Note_on_c, 0, 61, 84
1, 1326192, Note_off_c, 0, 58, 64
1, 1326193, Note_off_c, 0, 70, 62
1, 1326254, Poly_aftertouch_c, 0, 64, 28
1, 1326256, Poly_aftertouch_c, 0, 76, 28
1, 1326258, Note_on_c, 0, 64, 91
1, 1326259, Note_on_c, 0, 76, 86
1, 1326261, Note_off_c, 0, 61, 64
1, 1326284, Note_off_c, 0, 73, 62
1, 1326311, Note_off_c, 0, 76, 65
1, 1326314, Note_off_c, 0, 64, 63
1, 1326356, Poly_aftertouch_c, 0, 67, 28
1, 1326357, Note_on_c, 0, 67, 84
1, 1326370, Poly_aftertouch_c, 0, 79, 28
1, 1326373, Note_on_c, 0, 79, 93
1, 1326435, Note_off_c, 0, 67, 60
1, 1326449, Note_off_c, 0, 79, 53
1, 1326467, Poly_aftertouch_c, 0, 70, 28
1, 1326468, Poly_aftertouch_c, 0, 82, 28
1, 1326470, Note_on_c, 0, 70, 91
1, 1326471, Note_on_c, 0, 82, 97
1, 1326577, Poly_aftertouch_c, 0, 85, 28
1, 1326581, Note_on_c, 0, 85, 91
1, 1326584, Poly_aftertouch_c, 0, 73, 28
1, 1326586, Note_on_c, 0, 73, 91
1, 1326612, Note_off_c, 0, 82, 65
1, 1326619, Note_off_c, 0, 70, 60
1, 1326741, Poly_aftertouch_c, 0, 88, 28
1, 1326744, Note_on_c, 0, 88, 106
1, 1326747, Note_on_c, 0, 76, 99
1, 1326748, Poly_aftertouch_c, 0, 76, 28
1, 1326754, Note_off_c, 0, 73, 67
1, 1326763, Note_off_c, 0, 85, 69
1, 1326784, Note_off_c, 0, 76, 71
1, 1326785, Note_off_c, 0, 88, 72
1, 1327412, Control_c, 0, 64, 104
1, 1327432, Control_c, 0, 64, 78
1, 1327450, Control_c, 0, 64, 57
1, 1327468, Control_c, 0, 64, 34
1, 1327506, Control_c, 0, 64, 0
1, 1328084, Poly_aftertouch_c, 0, 77, 28
1, 1328088, Poly_aftertouch_c, 0, 38, 28
1, 1328089, Note_on_c, 0, 77, 98
1, 1328096, Note_on_c, 0, 38, 107
1, 1328099, Poly_aftertouch_c, 0, 26, 28
1, 1328102, Note_on_c, 0, 26, 99
1, 1328105, Control_c, 0, 64, 33
1, 1328124, Control_c, 0, 64, 81
1, 1328142, Control_c, 0, 64, 127
1, 1328223, Note_off_c, 0, 26, 60
1, 1328286, Note_off_c, 0, 38, 61
1, 1328336, Poly_aftertouch_c, 0, 74, 28
1, 1328340, Note_on_c, 0, 74, 79
1, 1328342, Note_off_c, 0, 77, 61
1, 1328485, Poly_aftertouch_c, 0, 71, 28
1, 1328487, Note_on_c, 0, 71, 76
1, 1328563, Note_off_c, 0, 74, 34
1, 1328595, Note_off_c, 0, 71, 60
1, 1328609, Poly_aftertouch_c, 0, 68, 28
1, 1328617, Note_on_c, 0, 68, 70
1, 1328619, Poly_aftertouch_c, 0, 74, 28
1, 1328669, Poly_aftertouch_c, 0, 74, 127
1, 1328674, Poly_aftertouch_c, 0, 74, 0
1, 1328705, Control_c, 0, 64, 76
1, 1328709, Poly_aftertouch_c, 0, 67, 28
1, 1328710, Poly_aftertouch_c, 0, 76, 28
1, 1328711, Note_on_c, 0, 67, 92
1, 1328712, Note_on_c, 0, 76, 95
1, 1328713, Note_on_c, 0, 49, 86
1, 1328716, Note_on_c, 0, 70, 92
1, 1328717, Poly_aftertouch_c, 0, 49, 28
1, 1328719, Poly_aftertouch_c, 0, 70, 28
1, 1328723, Control_c, 0, 64, 33
1, 1328741, Control_c, 0, 64, 0
1, 1328764, Note_off_c, 0, 68, 60
1, 1328768, Note_off_c, 0, 67, 64
1, 1328784, Note_off_c, 0, 76, 61
1, 1328813, Poly_aftertouch_c, 0, 52, 28
1, 1328815, Note_on_c, 0, 52, 68
1, 1328821, Note_off_c, 0, 70, 60
1, 1328840, Note_off_c, 0, 49, 59
1, 1328916, Poly_aftertouch_c, 0, 55, 28
1, 1328920, Note_on_c, 0, 55, 78
1, 1328938, Note_off_c, 0, 52, 60
1, 1328987, Poly_aftertouch_c, 0, 58, 28
1, 1328990, Note_on_c, 0, 58, 79
1, 1329005, Note_off_c, 0, 55, 61
1, 1329061, Note_off_c, 0, 58, 65
1, 1329076, Poly_aftertouch_c, 0, 53, 28
1, 1329082, Note_on_c, 0, 53, 71
1, 1329089, Note_on_c, 0, 56, 78
1, 1329091, Note_on_c, 0, 50, 78
1, 1329091, Poly_aftertouch_c, 0, 50, 28
1, 1329091, Poly_aftertouch_c, 0, 56, 28
1, 1329092, Poly_aftertouch_c, 0, 59, 28
1, 1329094, Poly_aftertouch_c, 0, 74, 28
1, 1329098, Note_on_c, 0, 59, 71
1, 1329098, Note_on_c, 0, 74, 91
1, 1329117, Control_c, 0, 64, 38
1, 1329127, Note_off_c, 0, 59, 66
1, 1329134, Control_c, 0, 64, 76
1, 1329139, Note_off_c, 0, 56, 63
1, 1329144, Note_off_c, 0, 53, 59
1, 1329152, Control_c, 0, 64, 124
1, 1329156, Note_off_c, 0, 50, 60
1, 1329166, Poly_aftertouch_c, 0, 71, 28
1, 1329169, Note_on_c, 0, 71, 77
1, 1329188, Note_off_c, 0, 74, 60
1, 1329270, Poly_aftertouch_c, 0, 68, 28
1, 1329275, Note_on_c, 0, 68, 74
1, 1329276, Note_off_c, 0, 71, 62
1, 1329334, Note_off_c, 0, 68, 61
1, 1329346, Poly_aftertouch_c, 0, 65, 28
1, 1329349, Note_on_c, 0, 65, 74
1, 1329388, Note_off_c, 0, 65, 63
1, 1329416, Control_c, 0, 64, 69
1, 1329434, Control_c, 0, 64, 13
1, 1329448, Poly_aftertouch_c, 0, 45, 28
1, 1329450, Note_on_c, 0, 45, 83
1, 1329451, Poly_aftertouch_c, 0, 69, 28
1, 1329453, Control_c, 0, 64, 0
1, 1329454, Note_on_c, 0, 69, 83
1, 1329456, Note_on_c, 0, 61, 85
1, 1329457, Poly_aftertouch_c, 0, 61, 28
1, 1329458, Poly_aftertouch_c, 0, 64, 28
1, 1329459, Note_on_c, 0, 64, 81
1, 1329510, Note_off_c, 0, 61, 61
1, 1329528, Note_off_c, 0, 64, 61
1, 1329536, Note_on_c, 0, 49, 75
1, 1329536, Poly_aftertouch_c, 0, 49, 28
1, 1329541, Note_off_c, 0, 69, 63
1, 1329545, Note_off_c, 0, 45, 63
1, 1329565, Control_c, 0, 64, 38
1, 1329584, Control_c, 0, 64, 67
1, 1329602, Control_c, 0, 64, 95
1, 1329614, Poly_aftertouch_c, 0, 52, 28
1, 1329617, Note_on_c, 0, 52, 75
1, 1329621, Control_c, 0, 64, 127
1, 1329637, Note_off_c, 0, 49, 62
1, 1329690, Note_off_c, 0, 52, 61
1, 1329695, Poly_aftertouch_c, 0, 57, 28
1, 1329701, Note_on_c, 0, 57, 75
1, 1329736, Note_off_c, 0, 57, 68
1, 1329790, Control_c, 0, 64, 75
1, 1329808, Control_c, 0, 64, 29
1, 1329827, Control_c, 0, 64, 0
1, 1329845, Poly_aftertouch_c, 0, 50, 28
1, 1329846, Poly_aftertouch_c, 0, 56, 28
1, 1329849, Note_on_c, 0, 77, 95
1, 1329850, Note_on_c, 0, 50, 95
1, 1329851, Note_on_c, 0, 56, 89
1, 1329851, Note_on_c, 0, 59, 88
1, 1329852, Poly_aftertouch_c, 0, 77, 28
1, 1329857, Poly_aftertouch_c, 0, 59, 28
1, 1329889, Note_off_c, 0, 59, 61
1, 1329893, Note_off_c, 0, 50, 66
1, 1329894, Note_off_c, 0, 56, 65
1, 1329908, Poly_aftertouch_c, 0, 75, 28
1, 1329915, Note_on_c, 0, 75, 69
1, 1329921, Control_c, 0, 64, 26
1, 1329939, Poly_aftertouch_c, 0, 74, 28
1, 1329939, Control_c, 0, 64, 55
1, 1329942, Note_on_c, 0, 74, 80
1, 1329948, Note_off_c, 0, 75, 47
1, 1329959, Control_c, 0, 64, 79
1, 1329968, Note_off_c, 0, 77, 55
1, 1329977, Control_c, 0, 64, 106
1, 1329996, Control_c, 0, 64, 127
1, 1330026, Poly_aftertouch_c, 0, 71, 28
1, 1330034, Note_on_c, 0, 71, 74
1, 1330045, Note_off_c, 0, 74, 60
1, 1330100, Note_off_c, 0, 71, 61
1, 1330114, Poly_aftertouch_c, 0, 68, 28
1, 1330121, Note_on_c, 0, 68, 71
1, 1330146, Control_c, 0, 64, 98
1, 1330164, Control_c, 0, 64, 58
1, 1330168, Note_off_c, 0, 68, 53
1, 1330184, Control_c, 0, 64, 0
1, 1330205, Poly_aftertouch_c, 0, 67, 28
1, 1330206, Poly_aftertouch_c, 0, 76, 28
1, 1330209, Note_on_c, 0, 76, 91
1, 1330210, Note_on_c, 0, 67, 89
1, 1330211, Note_on_c, 0, 49, 87
1, 1330213, Note_on_c, 0, 70, 88
1, 1330214, Poly_aftertouch_c, 0, 49, 28
1, 1330216, Poly_aftertouch_c, 0, 70, 28
1, 1330244, Note_off_c, 0, 67, 63
1, 1330257, Note_off_c, 0, 76, 62
1, 1330261, Note_off_c, 0, 70, 62
1, 1330277, Control_c, 0, 64, 12
1, 1330295, Control_c, 0, 64, 36
1, 1330300, Poly_aftertouch_c, 0, 52, 28
1, 1330306, Note_on_c, 0, 52, 67
1, 1330309, Note_off_c, 0, 49, 63
1, 1330314, Control_c, 0, 64, 66
1, 1330334, Control_c, 0, 64, 91
1, 1330351, Control_c, 0, 64, 127
1, 1330376, Note_on_c, 0, 56, 68
1, 1330391, Poly_aftertouch_c, 0, 56, 28
1, 1330396, Note_off_c, 0, 52, 59
1, 1330396, Poly_aftertouch_c, 0, 55, 28
1, 1330398, Note_on_c, 0, 55, 80
1, 1330402, Note_off_c, 0, 56, 60
1, 1330469, Poly_aftertouch_c, 0, 58, 28
1, 1330474, Note_on_c, 0, 58, 75
1, 1330492, Note_off_c, 0, 55, 62
1, 1330500, Control_c, 0, 64, 116
1, 1330520, Control_c, 0, 64, 69
1, 1330530, Note_off_c, 0, 58, 63
1, 1330538, Control_c, 0, 64, 23
1, 1330549, Poly_aftertouch_c, 0, 56, 28
1, 1330553, Note_on_c, 0, 56, 87
1, 1330554, Poly_aftertouch_c, 0, 59, 28
1, 1330556, Note_on_c, 0, 59, 79
1, 1330556, Control_c, 0, 64, 0
1, 1330562, Poly_aftertouch_c, 0, 50, 28
1, 1330563, Poly_aftertouch_c, 0, 53, 28
1, 1330565, Note_on_c, 0, 50, 77
1, 1330567, Poly_aftertouch_c, 0, 74, 28
1, 1330568, Note_on_c, 0, 53, 79
1, 1330570, Note_on_c, 0, 74, 93
1, 1330595, Note_off_c, 0, 59, 67
1, 1330597, Note_off_c, 0, 53, 67
1, 1330612, Note_off_c, 0, 56, 64
1, 1330613, Control_c, 0, 64, 13
1, 1330632, Control_c, 0, 64, 44
1, 1330636, Note_off_c, 0, 50, 64
1, 1330644, Poly_aftertouch_c, 0, 71, 28
1, 1330646, Note_on_c, 0, 71, 80
1, 1330649, Control_c, 0, 64, 82
1, 1330654, Note_off_c, 0, 74, 62
1, 1330670, Control_c, 0, 64, 127
1, 1330734, Poly_aftertouch_c, 0, 68, 28
1, 1330739, Note_on_c, 0, 68, 74
1, 1330740, Note_off_c, 0, 71, 62
1, 1330803, Note_off_c, 0, 68, 62
1, 1330812, Poly_aftertouch_c, 0, 65, 28
1, 1330815, Note_on_c, 0, 65, 78
1, 1330838, Control_c, 0, 64, 119
1, 1330847, Note_off_c, 0, 65, 65
1, 1330856, Control_c, 0, 64, 71
1, 1330876, Control_c, 0, 64, 30
1, 1330893, Control_c, 0, 64, 0
1, 1330899, Poly_aftertouch_c, 0, 63, 28
1, 1330904, Note_on_c, 0, 63, 86
1, 1330906, Poly_aftertouch_c, 0, 45, 28
1, 1330908, Note_on_c, 0, 45, 85
1, 1330909, Note_on_c, 0, 69, 76
1, 1330910, Poly_aftertouch_c, 0, 69, 28
1, 1330914, Note_on_c, 0, 61, 83
1, 1330916, Poly_aftertouch_c, 0, 61, 28
1, 1330933, Poly_aftertouch_c, 0, 64, 28
1, 1330939, Note_on_c, 0, 64, 65
1, 1330968, Note_off_c, 0, 63, 59
1, 1330968, Note_off_c, 0, 61, 60
1, 1330968, Control_c, 0, 64, 18
1, 1330985, Note_off_c, 0, 64, 64
1, 1330988, Control_c, 0, 64, 46
1, 1330994, Poly_aftertouch_c, 0, 49, 28
1, 1330996, Note_on_c, 0, 49, 80
1, 1331004, Note_off_c, 0, 45, 63
1, 1331006, Note_off_c, 0, 69, 62
1, 1331006, Control_c, 0, 64, 76
1, 1331025, Control_c, 0, 64, 109
1, 1331044, Control_c, 0, 64, 127
1, 1331082, Poly_aftertouch_c, 0, 52, 28
1, 1331087, Note_on_c, 0, 52, 71
1, 1331093, Poly_aftertouch_c, 0, 53, 28
1, 1331097, Note_on_c, 0, 53, 74
1, 1331099, Note_off_c, 0, 49, 63
1, 1331127, Note_off_c, 0, 53, 62
1, 1331147, Poly_aftertouch_c, 0, 57, 28
1, 1331152, Note_off_c, 0, 52, 61
1, 1331152, Note_on_c, 0, 57, 75
1, 1331181, Note_off_c, 0, 57, 67
1, 1331231, Control_c, 0, 64, 101
1, 1331251, Control_c, 0, 64, 60
1, 1331269, Control_c, 0, 64, 17
1, 1331278, Poly_aftertouch_c, 0, 81, 28
1, 1331283, Note_on_c, 0, 54, 95
1, 1331284, Note_on_c, 0, 81, 98
1, 1331284, Note_on_c, 0, 63, 97
1, 1331285, Poly_aftertouch_c, 0, 54, 28
1, 1331285, Control_c, 0, 64, 0
1, 1331286, Poly_aftertouch_c, 0, 63, 28
1, 1331291, Note_on_c, 0, 60, 77
1, 1331295, Poly_aftertouch_c, 0, 60, 28
1, 1331325, Control_c, 0, 64, 16
1, 1331328, Note_off_c, 0, 63, 61
1, 1331333, Note_on_c, 0, 61, 37
1, 1331334, Note_off_c, 0, 60, 66
1, 1331334, Note_off_c, 0, 61, 127
1, 1331344, Control_c, 0, 64, 43
1, 1331360, Note_off_c, 0, 54, 63
1, 1331361, Control_c, 0, 64, 79
1, 1331362, Poly_aftertouch_c, 0, 75, 28
1, 1331365, Note_on_c, 0, 75, 80
1, 1331382, Control_c, 0, 64, 127
1, 1331411, Note_off_c, 0, 81, 61
1, 1331439, Poly_aftertouch_c, 0, 72, 28
1, 1331444, Note_on_c, 0, 72, 80
1, 1331499, Note_off_c, 0, 75, 60
1, 1331522, Poly_aftertouch_c, 0, 69, 28
1, 1331526, Note_on_c, 0, 69, 84
1, 1331560, Note_off_c, 0, 72, 61
1, 1331567, Control_c, 0, 64, 75
1, 1331581, Note_off_c, 0, 69, 62
1, 1331585, Control_c, 0, 64, 28
1, 1331605, Control_c, 0, 64, 0
1, 1331622, Poly_aftertouch_c, 0, 43, 28
1, 1331625, Note_on_c, 0, 43, 95
1, 1331629, Poly_aftertouch_c, 0, 67, 28
1, 1331630, Poly_aftertouch_c, 0, 71, 28
1, 1331631, Poly_aftertouch_c, 0, 74, 28
1, 1331634, Note_on_c, 0, 74, 91
1, 1331635, Note_on_c, 0, 67, 94
1, 1331635, Note_on_c, 0, 71, 91
1, 1331680, Control_c, 0, 64, 37
1, 1331699, Note_off_c, 0, 67, 62
1, 1331699, Control_c, 0, 64, 72
1, 1331711, Note_off_c, 0, 43, 63
1, 1331712, Poly_aftertouch_c, 0, 47, 28
1, 1331716, Note_on_c, 0, 47, 68
1, 1331718, Control_c, 0, 64, 127
1, 1331731, Note_off_c, 0, 71, 62
1, 1331753, Note_off_c, 0, 74, 61
1, 1331780, Poly_aftertouch_c, 0, 50, 28
1, 1331785, Note_on_c, 0, 50, 81
1, 1331813, Note_off_c, 0, 47, 63
1, 1331849, Poly_aftertouch_c, 0, 55, 28
1, 1331854, Note_off_c, 0, 50, 63
1, 1331855, Note_on_c, 0, 55, 74
1, 1331889, Note_off_c, 0, 55, 68
1, 1331998, Control_c, 0, 64, 76
1, 1332012, Poly_aftertouch_c, 0, 61, 28
1, 1332014, Note_on_c, 0, 61, 99
1, 1332017, Control_c, 0, 64, 33
1, 1332019, Note_on_c, 0, 58, 91
1, 1332020, Note_on_c, 0, 52, 88
1, 1332020, Note_on_c, 0, 79, 99
1, 1332022, Poly_aftertouch_c, 0, 52, 28
1, 1332022, Poly_aftertouch_c, 0, 58, 28
1, 1332024, Poly_aftertouch_c, 0, 79, 28
1, 1332036, Control_c, 0, 64, 0
1, 1332053, Note_off_c, 0, 58, 68
1, 1332054, Note_off_c, 0, 61, 62
1, 1332061, Note_off_c, 0, 52, 61
1, 1332091, Control_c, 0, 64, 24
1, 1332103, Poly_aftertouch_c, 0, 73, 28
1, 1332108, Note_on_c, 0, 73, 82
1, 1332110, Control_c, 0, 64, 59
1, 1332130, Control_c, 0, 64, 101
1, 1332145, Note_off_c, 0, 79, 60
1, 1332148, Control_c, 0, 64, 127
1, 1332178, Poly_aftertouch_c, 0, 70, 28
1, 1332180, Note_on_c, 0, 70, 79
1, 1332252, Note_off_c, 0, 73, 52
1, 1332256, Poly_aftertouch_c, 0, 67, 28
1, 1332259, Note_on_c, 0, 67, 80
1, 1332313, Note_off_c, 0, 70, 62
1, 1332323, Note_off_c, 0, 67, 62
1, 1332354, Control_c, 0, 64, 93
1, 1332360, Poly_aftertouch_c, 0, 41, 28
1, 1332366, Note_on_c, 0, 41, 91
1, 1332368, Note_on_c, 0, 72, 95
1, 1332369, Note_on_c, 0, 69, 94
1, 1332370, Poly_aftertouch_c, 0, 65, 28
1, 1332371, Poly_aftertouch_c, 0, 69, 28
1, 1332373, Poly_aftertouch_c, 0, 72, 28
1, 1332373, Control_c, 0, 64, 54
1, 1332375, Note_on_c, 0, 65, 93
1, 1332392, Control_c, 0, 64, 0
1, 1332469, Poly_aftertouch_c, 0, 45, 28
1, 1332473, Note_on_c, 0, 45, 80
1, 1332474, Note_off_c, 0, 41, 62
1, 1332485, Control_c, 0, 64, 23
1, 1332504, Control_c, 0, 64, 52
1, 1332515, Note_off_c, 0, 65, 56
1, 1332522, Control_c, 0, 64, 77
1, 1332542, Control_c, 0, 64, 102
1, 1332560, Control_c, 0, 64, 127
1, 1332567, Poly_aftertouch_c, 0, 48, 28
1, 1332571, Note_on_c, 0, 48, 80
1, 1332580, Note_off_c, 0, 45, 61
1, 1332603, Note_off_c, 0, 69, 50
1, 1332643, Note_off_c, 0, 48, 61
1, 1332676, Poly_aftertouch_c, 0, 53, 28
1, 1332682, Note_on_c, 0, 53, 78
1, 1332851, Note_off_c, 0, 53, 57
1, 1332875, Note_off_c, 0, 72, 55
1, 1332877, Control_c, 0, 64, 77
1, 1332879, Note_on_c, 0, 77, 84
1, 1332880, Poly_aftertouch_c, 0, 77, 28
1, 1332889, Poly_aftertouch_c, 0, 50, 28
1, 1332895, Note_on_c, 0, 50, 61
1, 1332895, Control_c, 0, 64, 45
1, 1332936, Control_c, 0, 64, 0
1, 1333009, Control_c, 0, 64, 11
1, 1333028, Control_c, 0, 64, 24
1, 1333046, Control_c, 0, 64, 45
1, 1333055, Note_off_c, 0, 77, 55
1, 1333065, Control_c, 0, 64, 69
1, 1333084, Poly_aftertouch_c, 0, 57, 28
1, 1333084, Control_c, 0, 64, 88
1, 1333085, Poly_aftertouch_c, 0, 72, 28
1, 1333089, Note_on_c, 0, 72, 65
1, 1333090, Note_on_c, 0, 57, 58
1, 1333103, Control_c, 0, 64, 127
1, 1333131, Note_off_c, 0, 50, 37
1, 1333140, Note_off_c, 0, 57, 63
1, 1333151, Note_off_c, 0, 72, 56
1, 1333178, Poly_aftertouch_c, 0, 69, 28
1, 1333183, Note_on_c, 0, 69, 67
1, 1333192, Poly_aftertouch_c, 0, 60, 28
1, 1333194, Note_on_c, 0, 60, 54
1, 1333225, Note_off_c, 0, 60, 60
1, 1333230, Note_off_c, 0, 69, 55
1, 1333246, Poly_aftertouch_c, 0, 71, 28
1, 1333253, Note_on_c, 0, 71, 69
1, 1333272, Poly_aftertouch_c, 0, 59, 28
1, 1333275, Note_on_c, 0, 59, 63
1, 1333289, Control_c, 0, 64, 86
1, 1333309, Control_c, 0, 64, 57
1, 1333313, Note_off_c, 0, 59, 62
1, 1333317, Note_off_c, 0, 71, 61
1, 1333321, Poly_aftertouch_c, 0, 50, 28
1, 1333329, Note_on_c, 0, 50, 72
1, 1333329, Control_c, 0, 64, 35
1, 1333337, Note_on_c, 0, 77, 91
1, 1333338, Poly_aftertouch_c, 0, 77, 28
1, 1333384, Control_c, 0, 64, 52
1, 1333403, Control_c, 0, 64, 71
1, 1333407, Poly_aftertouch_c, 0, 57, 28
1, 1333408, Poly_aftertouch_c, 0, 72, 28
1, 1333409, Note_off_c, 0, 77, 62
1, 1333413, Note_on_c, 0, 57, 74
1, 1333413, Note_on_c, 0, 72, 78
1, 1333415, Note_off_c, 0, 50, 63
1, 1333422, Control_c, 0, 64, 92
1, 1333439, Control_c, 0, 64, 127
1, 1333465, Note_off_c, 0, 57, 58
1, 1333486, Note_off_c, 0, 72, 61
1, 1333493, Poly_aftertouch_c, 0, 60, 28
1, 1333497, Note_on_c, 0, 60, 61
1, 1333512, Poly_aftertouch_c, 0, 69, 28
1, 1333516, Note_on_c, 0, 69, 73
1, 1333560, Note_off_c, 0, 60, 60
1, 1333570, Poly_aftertouch_c, 0, 71, 28
1, 1333575, Note_on_c, 0, 71, 77
1, 1333585, Poly_aftertouch_c, 0, 59, 28
1, 1333588, Note_on_c, 0, 59, 71
1, 1333592, Note_off_c, 0, 69, 53
1, 1333609, Control_c, 0, 64, 114
1, 1333624, Note_off_c, 0, 59, 59
1, 1333627, Control_c, 0, 64, 73
1, 1333647, Control_c, 0, 64, 44
1, 1333653, Poly_aftertouch_c, 0, 48, 28
1, 1333654, Note_on_c, 0, 48, 84
1, 1333660, Note_on_c, 0, 76, 95
1, 1333661, Poly_aftertouch_c, 0, 76, 28
1, 1333667, Note_off_c, 0, 71, 63
1, 1333667, Control_c, 0, 64, 27
1, 1333702, Control_c, 0, 64, 40
1, 1333721, Control_c, 0, 64, 63
1, 1333735, Poly_aftertouch_c, 0, 71, 28
1, 1333737, Note_on_c, 0, 71, 80
1, 1333739, Control_c, 0, 64, 86
1, 1333741, Poly_aftertouch_c, 0, 56, 28
1, 1333742, Note_off_c, 0, 76, 65
1, 1333743, Note_on_c, 0, 56, 81
1, 1333746, Note_off_c, 0, 48, 63
1, 1333757, Control_c, 0, 64, 127
1, 1333799, Note_off_c, 0, 71, 63
1, 1333817, Note_off_c, 0, 56, 61
1, 1333834, Poly_aftertouch_c, 0, 59, 28
1, 1333836, Poly_aftertouch_c, 0, 68, 28
1, 1333838, Note_on_c, 0, 68, 84
1, 1333839, Note_on_c, 0, 59, 78
1, 1333912, Note_off_c, 0, 68, 62
1, 1333922, Note_on_c, 0, 70, 65
1, 1333922, Poly_aftertouch_c, 0, 70, 28
1, 1333926, Note_off_c, 0, 59, 61
1, 1333926, Poly_aftertouch_c, 0, 57, 28
1, 1333929, Poly_aftertouch_c, 0, 69, 28
1, 1333931, Note_on_c, 0, 57, 84
1, 1333932, Note_on_c, 0, 69, 88
1, 1333975, Note_off_c, 0, 70, 50
1, 1333997, Note_off_c, 0, 57, 62
1, 1334052, Poly_aftertouch_c, 0, 47, 28
1, 1334054, Note_off_c, 0, 69, 58
1, 1334055, Poly_aftertouch_c, 0, 74, 28
1, 1334058, Note_on_c, 0, 47, 100
1, 1334058, Control_c, 0, 64, 78
1, 1334059, Note_on_c, 0, 74, 99
1, 1334077, Control_c, 0, 64, 38
1, 1334095, Control_c, 0, 64, 0
1, 1334170, Control_c, 0, 64, 20
1, 1334172, Poly_aftertouch_c, 0, 54, 28
1, 1334174, Poly_aftertouch_c, 0, 69, 28
1, 1334175, Note_off_c, 0, 74, 63
1, 1334177, Note_on_c, 0, 54, 86
1, 1334177, Note_on_c, 0, 69, 87
1, 1334183, Note_off_c, 0, 47, 65
1, 1334190, Control_c, 0, 64, 45
1, 1334197, Note_on_c, 0, 67, 69
1, 1334208, Control_c, 0, 64, 71
1, 1334227, Control_c, 0, 64, 93
1, 1334229, Note_off_c, 0, 67, 43
1, 1334229, Poly_aftertouch_c, 0, 67, 28
1, 1334243, Note_off_c, 0, 69, 62
1, 1334244, Control_c, 0, 64, 127
1, 1334258, Note_off_c, 0, 54, 62
1, 1334291, Poly_aftertouch_c, 0, 57, 28
1, 1334295, Note_on_c, 0, 57, 86
1, 1334310, Poly_aftertouch_c, 0, 66, 28
1, 1334314, Note_on_c, 0, 66, 90
1, 1334396, Poly_aftertouch_c, 0, 56, 28
1, 1334398, Note_on_c, 0, 56, 86
1, 1334409, Note_off_c, 0, 57, 62
1, 1334414, Note_off_c, 0, 66, 46
1, 1334423, Poly_aftertouch_c, 0, 68, 28
1, 1334428, Note_off_c, 0, 56, 72
1, 1334429, Note_on_c, 0, 68, 87
1, 1334637, Control_c, 0, 64, 108
1, 1334642, Note_off_c, 0, 68, 60
1, 1334657, Control_c, 0, 64, 59
1, 1334676, Control_c, 0, 64, 0
1, 1334698, Poly_aftertouch_c, 0, 74, 28
1, 1334702, Note_on_c, 0, 74, 94
1, 1334704, Note_on_c, 0, 45, 102
1, 1334705, Note_on_c, 0, 69, 91
1, 1334705, Note_on_c, 0, 62, 86
1, 1334707, Note_on_c, 0, 64, 93
1, 1334708, Note_on_c, 0, 33, 95
1, 1334709, Note_off_c, 0, 33, 127
1, 1334711, Poly_aftertouch_c, 0, 33, 28
1, 1334714, Poly_aftertouch_c, 0, 45, 28
1, 1334715, Poly_aftertouch_c, 0, 62, 28
1, 1334716, Poly_aftertouch_c, 0, 64, 28
1, 1334718, Poly_aftertouch_c, 0, 69, 28
1, 1334763, Poly_aftertouch_c, 0, 33, 127
1, 1334823, Poly_aftertouch_c, 0, 33, 0
1, 1334862, Control_c, 0, 64, 11
1, 1334864, Note_off_c, 0, 45, 61
1, 1334881, Control_c, 0, 64, 26
1, 1334893, Note_off_c, 0, 64, 55
1, 1334893, Note_off_c, 0, 62, 59
1, 1334900, Control_c, 0, 64, 49
1, 1334918, Control_c, 0, 64, 72
1, 1334924, Note_off_c, 0, 69, 62
1, 1334938, Control_c, 0, 64, 92
1, 1334951, Note_off_c, 0, 74, 63
1, 1334955, Control_c, 0, 64, 127
1, 1335160, Note_on_c, 0, 59, 79
1, 1335161, Poly_aftertouch_c, 0, 59, 28
1, 1335223, Note_off_c, 0, 59, 47
1, 1335263, Poly_aftertouch_c, 0, 71, 28
1, 1335271, Note_on_c, 0, 71, 66
1, 1335328, Note_off_c, 0, 71, 57
1, 1335332, Poly_aftertouch_c, 0, 61, 28
1, 1335336, Note_on_c, 0, 61, 87
1, 1335396, Note_off_c, 0, 61, 62
1, 1335418, Poly_aftertouch_c, 0, 73, 28
1, 1335421, Note_on_c, 0, 73, 76
1, 1335494, Note_on_c, 0, 64, 91
1, 1335494, Poly_aftertouch_c, 0, 64, 28
1, 1335495, Note_off_c, 0, 73, 63
1, 1335555, Note_off_c, 0, 64, 64
1, 1335568, Poly_aftertouch_c, 0, 76, 28
1, 1335571, Note_on_c, 0, 76, 82
1, 1335640, Poly_aftertouch_c, 0, 67, 28
1, 1335645, Note_on_c, 0, 67, 94
1, 1335646, Note_off_c, 0, 76, 62
1, 1335714, Note_off_c, 0, 67, 63
1, 1335730, Poly_aftertouch_c, 0, 79, 28
1, 1335734, Note_on_c, 0, 79, 86
1, 1335799, Note_off_c, 0, 79, 62
1, 1335803, Poly_aftertouch_c, 0, 70, 28
1, 1335806, Note_on_c, 0, 70, 90
1, 1335861, Note_off_c, 0, 70, 62
1, 1335879, Poly_aftertouch_c, 0, 82, 28
1, 1335886, Note_on_c, 0, 82, 86
1, 1335929, Control_c, 0, 64, 90
1, 1335949, Control_c, 0, 64, 55
1, 1335954, Poly_aftertouch_c, 0, 69, 28
1, 1335957, Note_on_c, 0, 69, 97
1, 1335959, Poly_aftertouch_c, 0, 57, 28
1, 1335961, Note_on_c, 0, 57, 89
1, 1335967, Control_c, 0, 64, 11
1, 1335976, Note_off_c, 0, 82, 66
1, 1335986, Control_c, 0, 64, 0
1, 1336019, Note_off_c, 0, 57, 60
1, 1336023, Note_off_c, 0, 69, 57
1, 1336023, Control_c, 0, 64, 10
1, 1336041, Control_c, 0, 64, 30
1, 1336047, Poly_aftertouch_c, 0, 81, 28
1, 1336050, Note_on_c, 0, 81, 87
1, 1336062, Control_c, 0, 64, 62
1, 1336080, Control_c, 0, 64, 89
1, 1336097, Control_c, 0, 64, 127
1, 1336122, Poly_aftertouch_c, 0, 64, 28
1, 1336127, Note_on_c, 0, 64, 91
1, 1336136, Note_off_c, 0, 81, 62
1, 1336198, Poly_aftertouch_c, 0, 76, 28
1, 1336200, Note_on_c, 0, 76, 85
1, 1336202, Note_off_c, 0, 64, 60
1, 1336288, Note_off_c, 0, 76, 63
1, 1336292, Poly_aftertouch_c, 0, 67, 28
1, 1336297, Note_on_c, 0, 67, 97
1, 1336299, Poly_aftertouch_c, 0, 58, 28
1, 1336300, Note_on_c, 0, 58, 93
1, 1336354, Note_off_c, 0, 58, 64
1, 1336359, Note_off_c, 0, 67, 64
1, 1336386, Poly_aftertouch_c, 0, 79, 28
1, 1336389, Note_on_c, 0, 79, 78
1, 1336445, Poly_aftertouch_c, 0, 62, 28
1, 1336447, Note_on_c, 0, 62, 90
1, 1336482, Note_off_c, 0, 79, 61
1, 1336497, Note_off_c, 0, 62, 63
1, 1336545, Poly_aftertouch_c, 0, 74, 28
1, 1336549, Note_on_c, 0, 74, 86
1, 1336599, Note_off_c, 0, 74, 64
1, 1336698, Control_c, 0, 64, 112
1, 1336715, Control_c, 0, 64, 69
1, 1336716, Poly_aftertouch_c, 0, 57, 28
1, 1336721, Note_on_c, 0, 57, 102
1, 1336721, Note_on_c, 0, 45, 99
1, 1336723, Poly_aftertouch_c, 0, 45, 28
1, 1336735, Control_c, 0, 64, 33
1, 1336753, Control_c, 0, 64, 0
1, 1336794, Note_off_c, 0, 57, 49
1, 1336808, Poly_aftertouch_c, 0, 60, 28
1, 1336809, Control_c, 0, 64, 20
1, 1336812, Note_on_c, 0, 60, 88
1, 1336815, Poly_aftertouch_c, 0, 69, 28
1, 1336816, Poly_aftertouch_c, 0, 72, 28
1, 1336821, Note_on_c, 0, 69, 77
1, 1336822, Note_off_c, 0, 45, 57
1, 1336822, Note_on_c, 0, 72, 75
1, 1336827, Control_c, 0, 64, 45
1, 1336847, Control_c, 0, 64, 76
1, 1336866, Control_c, 0, 64, 107
1, 1336872, Note_off_c, 0, 72, 58
1, 1336881, Note_off_c, 0, 69, 55
1, 1336885, Control_c, 0, 64, 127
1, 1336909, Note_off_c, 0, 60, 58
1, 1336915, Poly_aftertouch_c, 0, 48, 28
1, 1336915, Poly_aftertouch_c, 0, 52, 28
1, 1336916, Note_on_c, 0, 52, 90
1, 1336920, Note_on_c, 0, 48, 83
1, 1336969, Note_off_c, 0, 52, 63
1, 1336969, Note_off_c, 0, 48, 56
1, 1336996, Poly_aftertouch_c, 0, 64, 28
1, 1336998, Note_on_c, 0, 64, 88
1, 1337075, Note_off_c, 0, 64, 61
1, 1337091, Control_c, 0, 64, 106
1, 1337102, Poly_aftertouch_c, 0, 43, 28
1, 1337103, Poly_aftertouch_c, 0, 55, 28
1, 1337104, Note_on_c, 0, 43, 102
1, 1337104, Note_on_c, 0, 55, 102
1, 1337108, Control_c, 0, 64, 66
1, 1337127, Control_c, 0, 64, 28
1, 1337146, Control_c, 0, 64, 0
1, 1337204, Poly_aftertouch_c, 0, 58, 28
1, 1337204, Control_c, 0, 64, 20
1, 1337205, Poly_aftertouch_c, 0, 70, 28
1, 1337208, Note_on_c, 0, 58, 91
1, 1337211, Note_off_c, 0, 55, 53
1, 1337212, Note_on_c, 0, 70, 83
1, 1337214, Note_on_c, 0, 67, 79
1, 1337214, Poly_aftertouch_c, 0, 67, 28
1, 1337222, Control_c, 0, 64, 50
1, 1337224, Note_off_c, 0, 43, 60
1, 1337240, Control_c, 0, 64, 85
1, 1337259, Control_c, 0, 64, 127
1, 1337291, Note_off_c, 0, 58, 61
1, 1337314, Note_off_c, 0, 70, 60
1, 1337325, Poly_aftertouch_c, 0, 50, 28
1, 1337327, Note_off_c, 0, 67, 58
1, 1337330, Note_on_c, 0, 50, 95
1, 1337332, Poly_aftertouch_c, 0, 46, 28
1, 1337337, Note_on_c, 0, 46, 90
1, 1337397, Note_off_c, 0, 50, 63
1, 1337400, Note_off_c, 0, 46, 65
1, 1337457, Poly_aftertouch_c, 0, 62, 28
1, 1337460, Note_on_c, 0, 62, 97
1, 1337595, Control_c, 0, 64, 112
1, 1337615, Control_c, 0, 64, 67
1, 1337625, Poly_aftertouch_c, 0, 53, 28
1, 1337630, Note_on_c, 0, 53, 105
1, 1337631, Note_on_c, 0, 45, 103
1, 1337632, Poly_aftertouch_c, 0, 45, 28
1, 1337632, Control_c, 0, 64, 21
1, 1337652, Control_c, 0, 64, 0
1, 1337726, Note_off_c, 0, 62, 59
1, 1337745, Control_c, 0, 64, 15
1, 1337751, Poly_aftertouch_c, 0, 46, 28
1, 1337752, Poly_aftertouch_c, 0, 46, 0
1, 1337765, Control_c, 0, 64, 44
1, 1337782, Control_c, 0, 64, 80
1, 1337787, Poly_aftertouch_c, 0, 57, 28
1, 1337790, Poly_aftertouch_c, 0, 69, 28
1, 1337792, Note_on_c, 0, 57, 91
1, 1337793, Note_on_c, 0, 69, 89
1, 1337801, Control_c, 0, 64, 127
1, 1337803, Poly_aftertouch_c, 0, 65, 28
1, 1337804, Note_on_c, 0, 65, 80
1, 1337827, Note_off_c, 0, 53, 48
1, 1337836, Note_off_c, 0, 45, 57
1, 1337873, Note_off_c, 0, 57, 55
1, 1337953, Poly_aftertouch_c, 0, 52, 28
1, 1337958, Note_on_c, 0, 52, 103
1, 1338010, Note_off_c, 0, 52, 66
1, 1338051, Note_off_c, 0, 69, 31
1, 1338077, Note_off_c, 0, 65, 60
1, 1338129, Note_on_c, 0, 64, 102
1, 1338129, Poly_aftertouch_c, 0, 64, 28
1, 1338181, Note_off_c, 0, 64, 66
1, 1338400, Control_c, 0, 64, 95
1, 1338419, Control_c, 0, 64, 57
1, 1338456, Control_c, 0, 64, 0
1, 1338464, Poly_aftertouch_c, 0, 45, 28
1, 1338466, Poly_aftertouch_c, 0, 21, 28
1, 1338467, Poly_aftertouch_c, 0, 33, 28
1, 1338471, Note_on_c, 0, 45, 112
1, 1338473, Note_on_c, 0, 21, 101
1, 1338473, Note_on_c, 0, 33, 103
1, 1338522, Note_off_c, 0, 21, 65
1, 1338532, Control_c, 0, 64, 13
1, 1338535, Note_off_c, 0, 45, 64
1, 1338550, Control_c, 0, 64, 40
1, 1338569, Control_c, 0, 64, 65
1, 1338578, Note_off_c, 0, 33, 61
1, 1338588, Control_c, 0, 64, 86
1, 1338606, Control_c, 0, 64, 127
1, 1339408, Poly_aftertouch_c, 0, 85, 28
1, 1339461, Poly_aftertouch_c, 0, 85, 127
1, 1339528, Poly_aftertouch_c, 0, 85, 28
1, 1339538, Poly_aftertouch_c, 0, 89, 28
1, 1339544, Note_on_c, 0, 89, 95
1, 1339546, Note_on_c, 0, 77, 102
1, 1339548, Note_on_c, 0, 65, 92
1, 1339550, Note_on_c, 0, 69, 103
1, 1339551, Note_on_c, 0, 57, 95
1, 1339553, Note_on_c, 0, 61, 88
1, 1339555, Poly_aftertouch_c, 0, 65, 28
1, 1339556, Poly_aftertouch_c, 0, 69, 28
1, 1339556, Poly_aftertouch_c, 0, 77, 28
1, 1339562, Poly_aftertouch_c, 0, 57, 28
1, 1339562, Poly_aftertouch_c, 0, 61, 28
1, 1340171, Poly_aftertouch_c, 0, 57, 24
1, 1340414, Note_off_c, 0, 57, 19
1, 1340532, Note_off_c, 0, 89, 33
1, 1340655, Note_off_c, 0, 65, 30
1, 1340674, Note_off_c, 0, 61, 0
1, 1340674, Poly_aftertouch_c, 0, 61, 28
1, 1340767, Poly_aftertouch_c, 0, 77, 24
1, 1340806, Poly_aftertouch_c, 0, 61, 24
1, 1340811, Note_off_c, 0, 77, 36
1, 1340875, Poly_aftertouch_c, 0, 61, 0
1, 1341327, Poly_aftertouch_c, 0, 69, 24
1, 1341347, Note_off_c, 0, 69, 51
1, 1341367, Poly_aftertouch_c, 0, 88, 28
1, 1341370, Note_on_c, 0, 88, 94
1, 1341371, Poly_aftertouch_c, 0, 64, 28
1, 1341373, Poly_aftertouch_c, 0, 76, 28
1, 1341376, Note_on_c, 0, 64, 94
1, 1341376, Note_on_c, 0, 76, 98
1, 1341382, Poly_aftertouch_c, 0, 85, 0
1, 1341423, Note_off_c, 0, 64, 68
1, 1341429, Note_off_c, 0, 88, 70
1, 1341432, Note_off_c, 0, 76, 66
1, 1342762, Control_c, 0, 64, 100
1, 1342781, Control_c, 0, 64, 60
1, 1342800, Poly_aftertouch_c, 0, 38, 28
1, 1342805, Poly_aftertouch_c, 0, 26, 28
1, 1342807, Note_on_c, 0, 38, 108
1, 1342810, Note_on_c, 0, 26, 107
1, 1342816, Control_c, 0, 64, 0
1, 1342838, Control_c, 0, 67, 8
1, 1342874, Control_c, 0, 67, 12
1, 1342930, Control_c, 0, 64, 14
1, 1342943, Note_off_c, 0, 26, 62
1, 1342949, Control_c, 0, 64, 44
1, 1342959, Note_off_c, 0, 38, 61
1, 1342967, Control_c, 0, 64, 76
1, 1342986, Control_c, 0, 64, 127
1, 1343136, Control_c, 0, 67, 8
1, 1343248, Control_c, 0, 67, 0
1, 1343482, Poly_aftertouch_c, 0, 65, 28
1, 1343482, Poly_aftertouch_c, 0, 71, 28
1, 1343483, Poly_aftertouch_c, 0, 77, 28
1, 1343487, Note_on_c, 0, 77, 89
1, 1343487, Note_on_c, 0, 65, 95
1, 1343489, Note_on_c, 0, 71, 88
1, 1343489, Note_on_c, 0, 68, 86
1, 1343495, Poly_aftertouch_c, 0, 68, 28
1, 1343496, Poly_aftertouch_c, 0, 74, 28
1, 1343497, Note_on_c, 0, 74, 81
1, 1343525, Note_off_c, 0, 65, 61
1, 1343526, Note_off_c, 0, 74, 65
1, 1343526, Note_off_c, 0, 68, 64
1, 1343530, Note_off_c, 0, 77, 64
1, 1343535, Note_off_c, 0, 71, 65
1, 1343909, Poly_aftertouch_c, 0, 50, 28
1, 1343910, Poly_aftertouch_c, 0, 64, 28
1, 1343914, Poly_aftertouch_c, 0, 70, 28
1, 1343914, Poly_aftertouch_c, 0, 73, 28
1, 1343915, Poly_aftertouch_c, 0, 76, 28
1, 1343918, Note_on_c, 0, 76, 92
1, 1343918, Note_on_c, 0, 50, 85
1, 1343920, Note_on_c, 0, 64, 97
1, 1343921, Note_on_c, 0, 73, 88
1, 1343923, Note_on_c, 0, 70, 84
1, 1343925, Note_on_c, 0, 58, 85
1, 1343926, Note_on_c, 0, 61, 85
1, 1343927, Note_off_c, 0, 61, 127
1, 1343927, Note_on_c, 0, 67, 82
1, 1343931, Note_on_c, 0, 55, 74
1, 1343932, Note_off_c, 0, 55, 127
1, 1343937, Poly_aftertouch_c, 0, 55, 28
1, 1343937, Poly_aftertouch_c, 0, 58, 28
1, 1343938, Poly_aftertouch_c, 0, 61, 28
1, 1343940, Poly_aftertouch_c, 0, 67, 28
1, 1343940, Control_c, 0, 64, 88
1, 1343964, Poly_aftertouch_c, 0, 61, 0
1, 1343969, Control_c, 0, 64, 55
1, 1343980, Note_off_c, 0, 58, 62
1, 1343986, Note_off_c, 0, 50, 64
1, 1343987, Note_off_c, 0, 64, 62
1, 1343987, Control_c, 0, 64, 17
1, 1343988, Note_off_c, 0, 76, 65
1, 1343996, Note_off_c, 0, 67, 64
1, 1344000, Note_off_c, 0, 73, 63
1, 1344000, Control_c, 0, 64, 0
1, 1344006, Note_off_c, 0, 70, 64
1, 1344266, Poly_aftertouch_c, 0, 26, 28
1, 1344266, Poly_aftertouch_c, 0, 38, 28
1, 1344271, Control_c, 0, 64, 18
1, 1344272, Note_on_c, 0, 38, 101
1, 1344272, Note_on_c, 0, 26, 97
1, 1344291, Control_c, 0, 64, 77
1, 1344302, Note_off_c, 0, 26, 70
1, 1344309, Control_c, 0, 64, 127
1, 1344314, Note_off_c, 0, 38, 64
1, 1344495, Poly_aftertouch_c, 0, 26, 28
1, 1344496, Poly_aftertouch_c, 0, 26, 0
1, 1344560, Poly_aftertouch_c, 0, 68, 28
1, 1344561, Poly_aftertouch_c, 0, 74, 28
1, 1344564, Note_on_c, 0, 68, 89
1, 1344566, Note_on_c, 0, 74, 86
1, 1344568, Note_on_c, 0, 62, 88
1, 1344569, Poly_aftertouch_c, 0, 62, 28
1, 1344571, Poly_aftertouch_c, 0, 65, 28
1, 1344573, Note_on_c, 0, 65, 80
1, 1344608, Note_off_c, 0, 74, 64
1, 1344612, Note_off_c, 0, 65, 62
1, 1344627, Note_off_c, 0, 68, 65
1, 1344627, Note_on_c, 0, 72, 19
1, 1344628, Note_off_c, 0, 72, 127
1, 1344634, Note_off_c, 0, 62, 63
1, 1344809, Poly_aftertouch_c, 0, 63, 28
1, 1344816, Note_on_c, 0, 63, 64
1, 1344828, Note_on_c, 0, 52, 85
1, 1344830, Note_on_c, 0, 57, 88
1, 1344831, Note_on_c, 0, 45, 80
1, 1344831, Note_on_c, 0, 69, 86
1, 1344833, Note_on_c, 0, 49, 80
1, 1344834, Note_off_c, 0, 49, 127
1, 1344835, Note_on_c, 0, 61, 79
1, 1344836, Note_off_c, 0, 61, 127
1, 1344836, Poly_aftertouch_c, 0, 45, 28
1, 1344837, Poly_aftertouch_c, 0, 49, 28
1, 1344837, Poly_aftertouch_c, 0, 52, 28
1, 1344838, Poly_aftertouch_c, 0, 57, 28
1, 1344838, Poly_aftertouch_c, 0, 61, 28
1, 1344839, Poly_aftertouch_c, 0, 64, 28
1, 1344840, Note_on_c, 0, 64, 81
1, 1344843, Poly_aftertouch_c, 0, 69, 28
1, 1344874, Note_off_c, 0, 52, 66
1, 1344880, Poly_aftertouch_c, 0, 49, 0
1, 1344888, Note_off_c, 0, 57, 63
1, 1344889, Note_off_c, 0, 63, 60
1, 1344897, Note_off_c, 0, 45, 61
1, 1344900, Control_c, 0, 64, 111
1, 1344905, Poly_aftertouch_c, 0, 61, 127
1, 1344906, Note_off_c, 0, 64, 58
1, 1344910, Poly_aftertouch_c, 0, 61, 0
1, 1344919, Control_c, 0, 64, 71
1, 1344922, Note_off_c, 0, 69, 62
1, 1344927, Control_c, 0, 64, 37
1, 1344945, Control_c, 0, 64, 0
1, 1345091, Poly_aftertouch_c, 0, 38, 28
1, 1345094, Control_c, 0, 64, 29
1, 1345095, Poly_aftertouch_c, 0, 26, 28
1, 1345097, Note_on_c, 0, 38, 99
1, 1345100, Note_on_c, 0, 26, 94
1, 1345114, Control_c, 0, 64, 59
1, 1345133, Control_c, 0, 64, 89
1, 1345135, Note_off_c, 0, 26, 68
1, 1345146, Note_off_c, 0, 38, 63
1, 1345151, Control_c, 0, 64, 127
1, 1345333, Poly_aftertouch_c, 0, 26, 28
1, 1345333, Poly_aftertouch_c, 0, 26, 0
1, 1345337, Poly_aftertouch_c, 0, 65, 28
1, 1345338, Poly_aftertouch_c, 0, 68, 28
1, 1345338, Poly_aftertouch_c, 0, 71, 28
1, 1345339, Poly_aftertouch_c, 0, 77, 28
1, 1345341, Note_on_c, 0, 77, 91
1, 1345343, Note_on_c, 0, 65, 97
1, 1345343, Note_on_c, 0, 68, 88
1, 1345345, Note_on_c, 0, 71, 89
1, 1345348, Note_on_c, 0, 74, 84
1, 1345351, Poly_aftertouch_c, 0, 74, 28
1, 1345394, Note_off_c, 0, 68, 62
1, 1345395, Note_off_c, 0, 71, 64
1, 1345399, Note_off_c, 0, 77, 58
1, 1345403, Note_off_c, 0, 74, 57
1, 1345435, Note_off_c, 0, 65, 65
1, 1345580, Poly_aftertouch_c, 0, 70, 28
1, 1345587, Note_on_c, 0, 70, 83
1, 1345588, Note_on_c, 0, 64, 86
1, 1345589, Note_on_c, 0, 67, 82
1, 1345591, Note_on_c, 0, 58, 80
1, 1345592, Note_on_c, 0, 73, 80
1, 1345593, Note_on_c, 0, 61, 80
1, 1345594, Note_on_c, 0, 55, 77
1, 1345596, Note_on_c, 0, 50, 78
1, 1345598, Note_on_c, 0, 76, 78
1, 1345599, Note_off_c, 0, 76, 127
1, 1345605, Poly_aftertouch_c, 0, 50, 28
1, 1345606, Poly_aftertouch_c, 0, 55, 28
1, 1345606, Poly_aftertouch_c, 0, 58, 28
1, 1345607, Poly_aftertouch_c, 0, 61, 28
1, 1345607, Poly_aftertouch_c, 0, 64, 28
1, 1345610, Poly_aftertouch_c, 0, 67, 28
1, 1345611, Poly_aftertouch_c, 0, 73, 28
1, 1345611, Poly_aftertouch_c, 0, 76, 28
1, 1345619, Note_off_c, 0, 58, 64
1, 1345619, Note_off_c, 0, 61, 70
1, 1345625, Note_off_c, 0, 55, 64
1, 1345641, Note_off_c, 0, 64, 55
1, 1345645, Control_c, 0, 64, 85
1, 1345646, Note_off_c, 0, 67, 58
1, 1345652, Note_off_c, 0, 70, 64
1, 1345654, Poly_aftertouch_c, 0, 76, 0
1, 1345655, Note_off_c, 0, 50, 61
1, 1345664, Note_off_c, 0, 73, 63
1, 1345665, Control_c, 0, 64, 53
1, 1345676, Control_c, 0, 64, 15
1, 1345695, Control_c, 0, 64, 0
1, 1345807, Control_c, 0, 64, 29
1, 1345817, Poly_aftertouch_c, 0, 38, 28
1, 1345823, Note_on_c, 0, 38, 96
1, 1345824, Control_c, 0, 64, 59
1, 1345827, Poly_aftertouch_c, 0, 26, 28
1, 1345828, Note_on_c, 0, 26, 87
1, 1345845, Control_c, 0, 64, 87
1, 1345856, Note_on_c, 0, 28, 45
1, 1345860, Note_off_c, 0, 26, 64
1, 1345862, Control_c, 0, 64, 127
1, 1345863, Poly_aftertouch_c, 0, 28, 28
1, 1345868, Note_off_c, 0, 38, 59
1, 1345907, Note_off_c, 0, 28, 51
1, 1346041, Poly_aftertouch_c, 0, 68, 28
1, 1346041, Poly_aftertouch_c, 0, 74, 28
1, 1346044, Note_on_c, 0, 68, 91
1, 1346046, Note_on_c, 0, 74, 84
1, 1346049, Note_on_c, 0, 65, 84
1, 1346050, Note_on_c, 0, 62, 90
1, 1346051, Poly_aftertouch_c, 0, 62, 28
1, 1346052, Poly_aftertouch_c, 0, 65, 28
1, 1346093, Note_off_c, 0, 74, 60
1, 1346109, Note_off_c, 0, 65, 64
1, 1346113, Note_off_c, 0, 62, 63
1, 1346114, Note_off_c, 0, 68, 64
1, 1346261, Note_on_c, 0, 57, 86
1, 1346262, Poly_aftertouch_c, 0, 45, 28
1, 1346263, Poly_aftertouch_c, 0, 57, 28
1, 1346264, Poly_aftertouch_c, 0, 61, 28
1, 1346264, Poly_aftertouch_c, 0, 64, 28
1, 1346265, Note_on_c, 0, 69, 84
1, 1346268, Note_on_c, 0, 61, 80
1, 1346269, Note_on_c, 0, 64, 78
1, 1346269, Note_on_c, 0, 45, 78
1, 1346271, Note_on_c, 0, 49, 81
1, 1346274, Note_on_c, 0, 52, 75
1, 1346275, Poly_aftertouch_c, 0, 69, 28
1, 1346280, Poly_aftertouch_c, 0, 49, 28
1, 1346280, Poly_aftertouch_c, 0, 52, 28
1, 1346300, Note_off_c, 0, 57, 67
1, 1346305, Note_off_c, 0, 49, 64
1, 1346313, Note_off_c, 0, 52, 66
1, 1346322, Note_off_c, 0, 45, 60
1, 1346323, Note_off_c, 0, 64, 56
1, 1346328, Note_off_c, 0, 61, 57
1, 1346341, Note_off_c, 0, 69, 62
1, 1346369, Control_c, 0, 64, 104
1, 1346387, Control_c, 0, 64, 65
1, 1346406, Control_c, 0, 64, 22
1, 1346426, Control_c, 0, 64, 0
1, 1346468, Poly_aftertouch_c, 0, 26, 28
1, 1346473, Note_on_c, 0, 26, 95
1, 1346474, Poly_aftertouch_c, 0, 38, 28
1, 1346475, Note_on_c, 0, 38, 95
1, 1346500, Control_c, 0, 64, 23
1, 1346505, Note_off_c, 0, 26, 69
1, 1346518, Note_off_c, 0, 38, 64
1, 1346518, Control_c, 0, 64, 53
1, 1346537, Control_c, 0, 64, 84
1, 1346556, Control_c, 0, 64, 127
1, 1346684, Poly_aftertouch_c, 0, 72, 28
1, 1346685, Poly_aftertouch_c, 0, 78, 28
1, 1346686, Poly_aftertouch_c, 0, 81, 28
1, 1346690, Note_on_c, 0, 72, 89
1, 1346692, Note_on_c, 0, 81, 91
1, 1346692, Note_on_c, 0, 69, 94
1, 1346693, Note_on_c, 0, 78, 88
1, 1346693, Note_on_c, 0, 75, 84
1, 1346699, Poly_aftertouch_c, 0, 69, 28
1, 1346700, Poly_aftertouch_c, 0, 75, 28
1, 1346712, Poly_aftertouch_c, 0, 26, 28
1, 1346714, Poly_aftertouch_c, 0, 26, 0
1, 1346738, Note_off_c, 0, 81, 59
1, 1346753, Note_off_c, 0, 72, 58
1, 1346794, Note_off_c, 0, 69, 55
1, 1346801, Note_off_c, 0, 75, 60
1, 1346810, Note_off_c, 0, 78, 64
1, 1346901, Poly_aftertouch_c, 0, 71, 28
1, 1346908, Note_on_c, 0, 71, 82
1, 1346909, Note_on_c, 0, 67, 86
1, 1346910, Note_on_c, 0, 74, 88
1, 1346910, Note_on_c, 0, 59, 83
1, 1346912, Note_on_c, 0, 62, 81
1, 1346912, Note_on_c, 0, 55, 82
1, 1346913, Poly_aftertouch_c, 0, 55, 28
1, 1346914, Poly_aftertouch_c, 0, 59, 28
1, 1346914, Poly_aftertouch_c, 0, 62, 28
1, 1346916, Poly_aftertouch_c, 0, 67, 28
1, 1346917, Poly_aftertouch_c, 0, 74, 28
1, 1346939, Note_off_c, 0, 59, 69
1, 1346939, Note_off_c, 0, 62, 70
1, 1346959, Note_off_c, 0, 67, 59
1, 1346967, Note_off_c, 0, 55, 62
1, 1346972, Note_off_c, 0, 71, 63
1, 1346991, Note_off_c, 0, 74, 60
1, 1347060, Control_c, 0, 64, 107
1, 1347080, Control_c, 0, 64, 65
1, 1347098, Control_c, 0, 64, 15
1, 1347117, Control_c, 0, 64, 0
1, 1347139, Poly_aftertouch_c, 0, 38, 28
1, 1347146, Note_on_c, 0, 38, 102
1, 1347149, Poly_aftertouch_c, 0, 26, 28
1, 1347151, Note_on_c, 0, 26, 101
1, 1347182, Note_off_c, 0, 26, 67
1, 1347191, Control_c, 0, 64, 12
1, 1347202, Note_off_c, 0, 38, 64
1, 1347210, Control_c, 0, 64, 42
1, 1347229, Control_c, 0, 64, 69
1, 1347249, Control_c, 0, 64, 104
1, 1347267, Control_c, 0, 64, 127
1, 1347381, Poly_aftertouch_c, 0, 26, 28
1, 1347381, Poly_aftertouch_c, 0, 26, 0
1, 1347401, Poly_aftertouch_c, 0, 80, 28
1, 1347408, Note_on_c, 0, 80, 96
1, 1347412, Note_on_c, 0, 71, 99
1, 1347412, Note_on_c, 0, 77, 89
1, 1347413, Note_on_c, 0, 74, 89
1, 1347414, Note_on_c, 0, 83, 95
1, 1347419, Poly_aftertouch_c, 0, 71, 28
1, 1347420, Poly_aftertouch_c, 0, 74, 28
1, 1347420, Poly_aftertouch_c, 0, 77, 28
1, 1347421, Poly_aftertouch_c, 0, 83, 28
1, 1347471, Note_off_c, 0, 83, 59
1, 1347479, Note_off_c, 0, 74, 59
1, 1347523, Note_off_c, 0, 77, 56
1, 1347526, Note_off_c, 0, 71, 56
1, 1347604, Note_off_c, 0, 80, 38
1, 1347675, Poly_aftertouch_c, 0, 69, 28
1, 1347676, Poly_aftertouch_c, 0, 73, 28
1, 1347680, Note_on_c, 0, 69, 83
1, 1347682, Note_on_c, 0, 73, 81
1, 1347684, Note_on_c, 0, 57, 79
1, 1347685, Note_on_c, 0, 76, 86
1, 1347687, Note_on_c, 0, 64, 76
1, 1347687, Note_on_c, 0, 61, 79
1, 1347688, Note_off_c, 0, 61, 127
1, 1347689, Poly_aftertouch_c, 0, 57, 28
1, 1347690, Poly_aftertouch_c, 0, 61, 28
1, 1347691, Poly_aftertouch_c, 0, 64, 28
1, 1347693, Poly_aftertouch_c, 0, 76, 28
1, 1347717, Note_off_c, 0, 64, 68
1, 1347717, Note_off_c, 0, 69, 60
1, 1347722, Poly_aftertouch_c, 0, 61, 0
1, 1347738, Note_off_c, 0, 57, 63
1, 1347739, Note_off_c, 0, 73, 65
1, 1347750, Note_off_c, 0, 76, 63
1, 1348054, Control_c, 0, 64, 107
1, 1348072, Control_c, 0, 64, 57
1, 1348077, Poly_aftertouch_c, 0, 82, 28
1, 1348083, Note_on_c, 0, 82, 102
1, 1348084, Note_on_c, 0, 73, 99
1, 1348085, Note_on_c, 0, 85, 96
1, 1348086, Poly_aftertouch_c, 0, 73, 28
1, 1348087, Poly_aftertouch_c, 0, 85, 28
1, 1348090, Control_c, 0, 64, 0
1, 1348091, Note_on_c, 0, 26, 90
1, 1348093, Note_on_c, 0, 38, 92
1, 1348095, Poly_aftertouch_c, 0, 26, 28
1, 1348095, Poly_aftertouch_c, 0, 38, 28
1, 1348147, Note_off_c, 0, 26, 64
1, 1348166, Control_c, 0, 64, 11
1, 1348185, Control_c, 0, 64, 41
1, 1348202, Control_c, 0, 64, 78
1, 1348212, Note_off_c, 0, 38, 61
1, 1348222, Control_c, 0, 64, 127
1, 1348228, Note_off_c, 0, 73, 56
1, 1348228, Note_off_c, 0, 85, 55
1, 1348550, Note_off_c, 0, 82, 52
1, 1348739, Poly_aftertouch_c, 0, 61, 28
1, 1348741, Note_on_c, 0, 81, 86
1, 1348742, Note_on_c, 0, 73, 91
1, 1348743, Note_on_c, 0, 61, 67
1, 1348743, Note_on_c, 0, 85, 88
1, 1348744, Note_on_c, 0, 69, 81
1, 1348745, Note_on_c, 0, 65, 77
1, 1348747, Poly_aftertouch_c, 0, 65, 28
1, 1348747, Poly_aftertouch_c, 0, 69, 28
1, 1348748, Poly_aftertouch_c, 0, 73, 28
1, 1348749, Poly_aftertouch_c, 0, 81, 28
1, 1348749, Poly_aftertouch_c, 0, 85, 28
1, 1348816, Note_off_c, 0, 69, 56
1, 1348858, Note_off_c, 0, 65, 51
1, 1348867, Note_off_c, 0, 61, 54
1, 1348957, Poly_aftertouch_c, 0, 64, 28
1, 1348959, Poly_aftertouch_c, 0, 79, 28
1, 1348961, Note_on_c, 0, 79, 81
1, 1348962, Note_on_c, 0, 64, 71
1, 1348971, Poly_aftertouch_c, 0, 67, 28
1, 1348975, Note_on_c, 0, 67, 70
1, 1348992, Note_off_c, 0, 81, 35
1, 1348997, Note_off_c, 0, 85, 63
1, 1349001, Note_off_c, 0, 64, 63
1, 1349023, Note_off_c, 0, 79, 64
1, 1349023, Note_off_c, 0, 67, 59
1, 1349027, Note_off_c, 0, 73, 59
1, 1349140, Poly_aftertouch_c, 0, 85, 28
1, 1349142, Note_on_c, 0, 85, 96
1, 1349146, Note_on_c, 0, 73, 91
1, 1349147, Poly_aftertouch_c, 0, 61, 28
1, 1349149, Poly_aftertouch_c, 0, 65, 28
1, 1349150, Poly_aftertouch_c, 0, 73, 28
1, 1349152, Note_on_c, 0, 61, 84
1, 1349154, Note_on_c, 0, 65, 81
1, 1349155, Note_on_c, 0, 77, 82
1, 1349156, Note_on_c, 0, 57, 79
1, 1349159, Poly_aftertouch_c, 0, 57, 28
1, 1349162, Poly_aftertouch_c, 0, 77, 28
1, 1349191, Note_off_c, 0, 65, 61
1, 1349223, Note_off_c, 0, 77, 57
1, 1349230, Note_off_c, 0, 57, 55
1, 1349235, Note_off_c, 0, 61, 51
1, 1349268, Note_off_c, 0, 73, 61
1, 1349289, Note_off_c, 0, 85, 64
1, 1349341, Poly_aftertouch_c, 0, 55, 28
1, 1349342, Note_on_c, 0, 76, 85
1, 1349343, Note_on_c, 0, 55, 83
1, 1349344, Poly_aftertouch_c, 0, 76, 28
1, 1349349, Note_on_c, 0, 64, 68
1, 1349349, Poly_aftertouch_c, 0, 64, 28
1, 1349374, Note_off_c, 0, 64, 65
1, 1349377, Note_on_c, 0, 53, 43
1, 1349378, Note_off_c, 0, 53, 127
1, 1349392, Note_off_c, 0, 55, 62
1, 1349400, Note_off_c, 0, 76, 63
1, 1349421, Poly_aftertouch_c, 0, 53, 28
1, 1349422, Poly_aftertouch_c, 0, 53, 0
1, 1349645, Control_c, 0, 64, 73
1, 1349663, Control_c, 0, 64, 22
1, 1349665, Poly_aftertouch_c, 0, 84, 28
1, 1349668, Note_on_c, 0, 84, 108
1, 1349674, Poly_aftertouch_c, 0, 38, 28
1, 1349677, Note_on_c, 0, 86, 97
1, 1349679, Poly_aftertouch_c, 0, 74, 28
1, 1349680, Poly_aftertouch_c, 0, 86, 28
1, 1349682, Note_on_c, 0, 26, 95
1, 1349682, Control_c, 0, 64, 0
1, 1349683, Note_on_c, 0, 38, 97
1, 1349685, Note_on_c, 0, 74, 94
1, 1349686, Note_on_c, 0, 72, 95
1, 1349687, Poly_aftertouch_c, 0, 26, 28
1, 1349692, Poly_aftertouch_c, 0, 72, 28
1, 1349717, Note_off_c, 0, 26, 67
1, 1349757, Note_off_c, 0, 38, 64
1, 1349757, Control_c, 0, 64, 33
1, 1349765, Note_off_c, 0, 72, 55
1, 1349766, Note_off_c, 0, 74, 49
1, 1349775, Control_c, 0, 64, 68
1, 1349794, Control_c, 0, 64, 112
1, 1349812, Control_c, 0, 64, 127
1, 1349839, Note_off_c, 0, 86, 56
1, 1350048, Note_off_c, 0, 84, 57
1, 1350111, Poly_aftertouch_c, 0, 70, 28
1, 1350112, Poly_aftertouch_c, 0, 82, 28
1, 1350116, Note_on_c, 0, 82, 97
1, 1350118, Note_on_c, 0, 62, 74
1, 1350118, Note_on_c, 0, 70, 86
1, 1350122, Note_on_c, 0, 74, 95
1, 1350123, Note_off_c, 0, 74, 127
1, 1350123, Note_on_c, 0, 67, 79
1, 1350124, Note_on_c, 0, 86, 93
1, 1350127, Poly_aftertouch_c, 0, 62, 28
1, 1350130, Poly_aftertouch_c, 0, 67, 28
1, 1350130, Poly_aftertouch_c, 0, 74, 28
1, 1350131, Poly_aftertouch_c, 0, 86, 28
1, 1350181, Poly_aftertouch_c, 0, 74, 127
1, 1350184, Note_off_c, 0, 67, 61
1, 1350198, Note_off_c, 0, 70, 61
1, 1350272, Note_off_c, 0, 62, 39
1, 1350281, Note_off_c, 0, 82, 63
1, 1350297, Note_off_c, 0, 86, 58
1, 1350333, Poly_aftertouch_c, 0, 81, 28
1, 1350338, Note_on_c, 0, 81, 82
1, 1350340, Poly_aftertouch_c, 0, 65, 28
1, 1350344, Note_on_c, 0, 65, 74
1, 1350348, Note_on_c, 0, 69, 70
1, 1350348, Poly_aftertouch_c, 0, 69, 28
1, 1350379, Poly_aftertouch_c, 0, 74, 0
1, 1350382, Note_off_c, 0, 69, 65
1, 1350394, Note_off_c, 0, 65, 59
1, 1350398, Note_off_c, 0, 81, 62
1, 1350559, Poly_aftertouch_c, 0, 58, 28
1, 1350559, Poly_aftertouch_c, 0, 62, 28
1, 1350562, Note_on_c, 0, 62, 79
1, 1350563, Note_on_c, 0, 79, 100
1, 1350564, Note_on_c, 0, 58, 81
1, 1350565, Note_on_c, 0, 86, 95
1, 1350565, Note_on_c, 0, 74, 95
1, 1350566, Note_on_c, 0, 67, 81
1, 1350569, Poly_aftertouch_c, 0, 67, 28
1, 1350569, Poly_aftertouch_c, 0, 74, 28
1, 1350569, Poly_aftertouch_c, 0, 79, 28
1, 1350570, Poly_aftertouch_c, 0, 86, 28
1, 1350635, Note_off_c, 0, 67, 59
1, 1350691, Note_off_c, 0, 58, 60
1, 1350728, Note_off_c, 0, 62, 53
1, 1350759, Note_off_c, 0, 79, 61
1, 1350767, Note_off_c, 0, 86, 49
1, 1350774, Poly_aftertouch_c, 0, 57, 28
1, 1350779, Note_on_c, 0, 57, 84
1, 1350781, Poly_aftertouch_c, 0, 65, 28
1, 1350788, Note_on_c, 0, 65, 73
1, 1350788, Poly_aftertouch_c, 0, 77, 28
1, 1350791, Note_on_c, 0, 77, 86
1, 1350799, Note_off_c, 0, 74, 58
1, 1350819, Note_off_c, 0, 65, 69
1, 1350822, Note_off_c, 0, 57, 66
1, 1350840, Note_off_c, 0, 77, 63
1, 1351238, Poly_aftertouch_c, 0, 86, 28
1, 1351243, Note_on_c, 0, 86, 117
1, 1351247, Poly_aftertouch_c, 0, 38, 28
1, 1351252, Poly_aftertouch_c, 0, 76, 28
1, 1351254, Poly_aftertouch_c, 0, 88, 28
1, 1351255, Note_on_c, 0, 38, 94
1, 1351256, Note_on_c, 0, 88, 105
1, 1351257, Note_on_c, 0, 26, 92
1, 1351257, Note_on_c, 0, 76, 104
1, 1351259, Poly_aftertouch_c, 0, 26, 28
1, 1351260, Poly_aftertouch_c, 0, 30, 28
1, 1351261, Poly_aftertouch_c, 0, 30, 0
1, 1351266, Note_on_c, 0, 74, 90
1, 1351267, Note_off_c, 0, 74, 127
1, 1351270, Poly_aftertouch_c, 0, 74, 28
1, 1351271, Control_c, 0, 64, 106
1, 1351273, Note_on_c, 0, 77, 73
1, 1351291, Control_c, 0, 64, 63
1, 1351294, Note_off_c, 0, 76, 62
1, 1351294, Note_off_c, 0, 77, 127
1, 1351294, Poly_aftertouch_c, 0, 74, 0
1, 1351310, Control_c, 0, 64, 10
1, 1351329, Control_c, 0, 64, 0
1, 1351337, Poly_aftertouch_c, 0, 76, 28
1, 1351342, Poly_aftertouch_c, 0, 74, 28
1, 1351346, Note_on_c, 0, 76, 40
1, 1351353, Note_on_c, 0, 74, 33
1, 1351381, Note_off_c, 0, 26, 60
1, 1351403, Control_c, 0, 64, 14
1, 1351422, Note_off_c, 0, 88, 59
1, 1351422, Control_c, 0, 64, 41
1, 1351441, Control_c, 0, 64, 75
1, 1351461, Control_c, 0, 64, 127
1, 1351470, Note_off_c, 0, 38, 57
1, 1351681, Note_off_c, 0, 74, 38
1, 1351699, Note_off_c, 0, 76, 36
1, 1351773, Note_off_c, 0, 86, 56
1, 1352069, Poly_aftertouch_c, 0, 88, 28
1, 1352074, Poly_aftertouch_c, 0, 69, 28
1, 1352075, Poly_aftertouch_c, 0, 76, 28
1, 1352075, Poly_aftertouch_c, 0, 84, 28
1, 1352077, Note_on_c, 0, 88, 93
1, 1352079, Note_on_c, 0, 84, 92
1, 1352080, Note_on_c, 0, 69, 81
1, 1352081, Note_on_c, 0, 76, 94
1, 1352084, Note_on_c, 0, 72, 90
1, 1352089, Note_on_c, 0, 64, 80
1, 1352090, Note_off_c, 0, 64, 127
1, 1352091, Poly_aftertouch_c, 0, 64, 28
1, 1352092, Poly_aftertouch_c, 0, 72, 28
1, 1352141, Poly_aftertouch_c, 0, 64, 127
1, 1352163, Note_off_c, 0, 72, 56
1, 1352163, Note_off_c, 0, 69, 59
1, 1352387, Poly_aftertouch_c, 0, 67, 28
1, 1352393, Note_on_c, 0, 67, 73
1, 1352396, Poly_aftertouch_c, 0, 70, 28
1, 1352396, Poly_aftertouch_c, 0, 82, 28
1, 1352397, Note_on_c, 0, 70, 88
1, 1352398, Note_on_c, 0, 82, 90
1, 1352404, Poly_aftertouch_c, 0, 64, 0
1, 1352410, Note_off_c, 0, 88, 56
1, 1352439, Note_off_c, 0, 67, 64
1, 1352440, Note_off_c, 0, 84, 61
1, 1352456, Note_off_c, 0, 76, 60
1, 1352468, Note_off_c, 0, 70, 60
1, 1352481, Note_off_c, 0, 82, 65
1, 1352595, Poly_aftertouch_c, 0, 64, 28
1, 1352596, Note_on_c, 0, 64, 81
1, 1352600, Poly_aftertouch_c, 0, 69, 28
1, 1352600, Poly_aftertouch_c, 0, 76, 28
1, 1352601, Poly_aftertouch_c, 0, 81, 28
1, 1352602, Note_on_c, 0, 81, 91
1, 1352602, Poly_aftertouch_c, 0, 88, 28
1, 1352604, Note_on_c, 0, 76, 91
1, 1352604, Note_on_c, 0, 69, 84
1, 1352606, Note_on_c, 0, 88, 77
1, 1352610, Poly_aftertouch_c, 0, 60, 28
1, 1352617, Note_on_c, 0, 60, 72
1, 1352668, Note_off_c, 0, 69, 58
1, 1352669, Poly_aftertouch_c, 0, 86, 28
1, 1352670, Poly_aftertouch_c, 0, 86, 0
1, 1352713, Note_off_c, 0, 60, 58
1, 1352749, Note_off_c, 0, 64, 52
1, 1352755, Note_off_c, 0, 81, 56
1, 1352763, Poly_aftertouch_c, 0, 58, 28
1, 1352766, Note_on_c, 0, 58, 84
1, 1352781, Poly_aftertouch_c, 0, 79, 28
1, 1352784, Note_on_c, 0, 79, 86
1, 1352789, Note_on_c, 0, 67, 67
1, 1352789, Poly_aftertouch_c, 0, 67, 28
1, 1352790, Note_off_c, 0, 88, 35
1, 1352798, Note_off_c, 0, 76, 60
1, 1352810, Note_off_c, 0, 67, 65
1, 1352830, Note_off_c, 0, 58, 65
1, 1352838, Note_off_c, 0, 79, 64
1, 1352920, Poly_aftertouch_c, 0, 88, 28
1, 1352924, Note_on_c, 0, 88, 88
1, 1352927, Poly_aftertouch_c, 0, 57, 28
1, 1352927, Poly_aftertouch_c, 0, 60, 28
1, 1352928, Poly_aftertouch_c, 0, 64, 28
1, 1352929, Note_on_c, 0, 76, 95
1, 1352930, Note_off_c, 0, 76, 127
1, 1352931, Note_on_c, 0, 57, 79
1, 1352933, Note_on_c, 0, 60, 75
1, 1352934, Note_on_c, 0, 64, 73
1, 1352935, Note_on_c, 0, 84, 87
1, 1352936, Note_off_c, 0, 84, 127
1, 1352938, Poly_aftertouch_c, 0, 76, 28
1, 1352938, Poly_aftertouch_c, 0, 84, 28
1, 1352977, Note_off_c, 0, 64, 52
1, 1352993, Poly_aftertouch_c, 0, 76, 127
1, 1352993, Poly_aftertouch_c, 0, 84, 127
1, 1353017, Note_off_c, 0, 57, 61
1, 1353027, Note_off_c, 0, 60, 0
1, 1353027, Poly_aftertouch_c, 0, 60, 28
1, 1353065, Poly_aftertouch_c, 0, 55, 28
1, 1353069, Note_on_c, 0, 55, 83
1, 1353072, Poly_aftertouch_c, 0, 58, 28
1, 1353076, Poly_aftertouch_c, 0, 82, 28
1, 1353078, Note_on_c, 0, 58, 81
1, 1353079, Note_on_c, 0, 82, 90
1, 1353093, Note_off_c, 0, 88, 58
1, 1353107, Poly_aftertouch_c, 0, 60, 0
1, 1353111, Note_off_c, 0, 58, 68
1, 1353113, Poly_aftertouch_c, 0, 76, 0
1, 1353114, Poly_aftertouch_c, 0, 84, 0
1, 1353124, Note_off_c, 0, 55, 61
1, 1353142, Poly_aftertouch_c, 0, 60, 28
1, 1353143, Poly_aftertouch_c, 0, 60, 0
1, 1353151, Note_off_c, 0, 82, 66
1, 1353240, Poly_aftertouch_c, 0, 57, 28
1, 1353245, Note_on_c, 0, 57, 90
1, 1353245, Poly_aftertouch_c, 0, 52, 28
1, 1353248, Note_on_c, 0, 52, 89
1, 1353253, Note_on_c, 0, 48, 83
1, 1353257, Note_on_c, 0, 88, 85
1, 1353257, Note_on_c, 0, 81, 90
1, 1353258, Note_on_c, 0, 76, 90
1, 1353260, Poly_aftertouch_c, 0, 48, 28
1, 1353261, Poly_aftertouch_c, 0, 76, 28
1, 1353262, Poly_aftertouch_c, 0, 81, 28
1, 1353263, Poly_aftertouch_c, 0, 88, 28
1, 1353276, Note_on_c, 0, 83, 74
1, 1353292, Note_off_c, 0, 83, 42
1, 1353292, Poly_aftertouch_c, 0, 83, 28
1, 1353319, Poly_aftertouch_c, 0, 77, 0
1, 1353378, Note_off_c, 0, 57, 56
1, 1353400, Note_off_c, 0, 48, 57
1, 1353406, Note_off_c, 0, 88, 55
1, 1353429, Poly_aftertouch_c, 0, 46, 28
1, 1353436, Note_on_c, 0, 46, 89
1, 1353436, Poly_aftertouch_c, 0, 79, 28
1, 1353442, Note_on_c, 0, 79, 95
1, 1353465, Note_off_c, 0, 81, 62
1, 1353468, Note_off_c, 0, 52, 61
1, 1353474, Note_off_c, 0, 76, 60
1, 1353494, Note_off_c, 0, 46, 67
1, 1353499, Note_off_c, 0, 79, 64
1, 1353697, Poly_aftertouch_c, 0, 45, 28
1, 1353697, Poly_aftertouch_c, 0, 48, 28
1, 1353698, Poly_aftertouch_c, 0, 52, 28
1, 1353699, Note_on_c, 0, 48, 95
1, 1353701, Note_on_c, 0, 52, 95
1, 1353702, Note_on_c, 0, 45, 90
1, 1353703, Note_on_c, 0, 76, 104
1, 1353704, Note_on_c, 0, 84, 97
1, 1353705, Control_c, 0, 64, 76
1, 1353707, Note_on_c, 0, 88, 99
1, 1353709, Poly_aftertouch_c, 0, 76, 28
1, 1353710, Poly_aftertouch_c, 0, 84, 28
1, 1353711, Poly_aftertouch_c, 0, 88, 28
1, 1353733, Control_c, 0, 64, 35
1, 1353743, Control_c, 0, 64, 0
1, 1353799, Control_c, 0, 64, 10
1, 1353818, Control_c, 0, 64, 30
1, 1353836, Control_c, 0, 64, 58
1, 1353853, Note_off_c, 0, 88, 60
1, 1353855, Control_c, 0, 64, 82
1, 1353874, Control_c, 0, 64, 127
1, 1353892, Note_off_c, 0, 45, 53
1, 1353951, Note_off_c, 0, 84, 60
1, 1353982, Poly_aftertouch_c, 0, 43, 28
1, 1353984, Poly_aftertouch_c, 0, 82, 28
1, 1353987, Note_on_c, 0, 43, 80
1, 1353988, Note_on_c, 0, 82, 97
1, 1353991, Note_on_c, 0, 46, 85
1, 1353992, Poly_aftertouch_c, 0, 46, 28
1, 1354017, Note_off_c, 0, 52, 60
1, 1354027, Note_off_c, 0, 76, 64
1, 1354063, Note_off_c, 0, 43, 62
1, 1354067, Note_off_c, 0, 46, 63
1, 1354073, Note_off_c, 0, 82, 67
1, 1354076, Note_off_c, 0, 48, 21
1, 1354261, Poly_aftertouch_c, 0, 46, 28
1, 1354262, Poly_aftertouch_c, 0, 46, 0
1, 1354457, Note_on_c, 0, 81, 98
1, 1354458, Note_on_c, 0, 78, 102
1, 1354459, Poly_aftertouch_c, 0, 78, 28
1, 1354459, Poly_aftertouch_c, 0, 81, 28
1, 1354460, Poly_aftertouch_c, 0, 90, 28
1, 1354461, Note_on_c, 0, 90, 102
1, 1354466, Note_on_c, 0, 45, 89
1, 1354467, Note_off_c, 0, 45, 127
1, 1354467, Note_on_c, 0, 50, 101
1, 1354469, Note_on_c, 0, 38, 89
1, 1354470, Note_off_c, 0, 38, 127
1, 1354472, Poly_aftertouch_c, 0, 38, 28
1, 1354473, Poly_aftertouch_c, 0, 45, 28
1, 1354473, Control_c, 0, 64, 91
1, 1354474, Poly_aftertouch_c, 0, 50, 28
1, 1354496, Control_c, 0, 64, 50
1, 1354503, Note_on_c, 0, 46, 52
1, 1354504, Note_off_c, 0, 46, 127
1, 1354505, Poly_aftertouch_c, 0, 85, 28
1, 1354510, Note_on_c, 0, 85, 61
1, 1354515, Control_c, 0, 64, 0
1, 1354526, Poly_aftertouch_c, 0, 38, 127
1, 1354527, Poly_aftertouch_c, 0, 45, 127
1, 1354663, Note_off_c, 0, 85, 29
1, 1354679, Control_c, 0, 64, 8
1, 1354692, Note_off_c, 0, 90, 60
1, 1354697, Control_c, 0, 64, 19
1, 1354717, Control_c, 0, 64, 39
1, 1354735, Control_c, 0, 64, 66
1, 1354754, Control_c, 0, 64, 97
1, 1354757, Note_off_c, 0, 78, 58
1, 1354773, Control_c, 0, 64, 127
1, 1354781, Note_off_c, 0, 81, 55
1, 1354792, Poly_aftertouch_c, 0, 38, 0
1, 1354898, Poly_aftertouch_c, 0, 45, 0
1, 1354961, Note_off_c, 0, 50, 60
1, 1355660, Poly_aftertouch_c, 0, 54, 28
1, 1355666, Note_on_c, 0, 54, 79
1, 1355734, Poly_aftertouch_c, 0, 57, 28
1, 1355743, Note_on_c, 0, 57, 63
1, 1355767, Poly_aftertouch_c, 0, 62, 28
1, 1355770, Note_on_c, 0, 62, 82
1, 1355783, Poly_aftertouch_c, 0, 81, 28
1, 1355784, Poly_aftertouch_c, 0, 86, 28
1, 1355789, Note_on_c, 0, 86, 101
1, 1355790, Note_on_c, 0, 81, 95
1, 1355790, Note_on_c, 0, 74, 100
1, 1355791, Note_on_c, 0, 66, 106
1, 1355798, Poly_aftertouch_c, 0, 66, 28
1, 1355799, Poly_aftertouch_c, 0, 74, 28
1, 1355820, Note_off_c, 0, 54, 64
1, 1355841, Note_off_c, 0, 57, 63
1, 1355842, Note_off_c, 0, 66, 69
1, 1355847, Note_off_c, 0, 62, 63
1, 1355904, Note_off_c, 0, 86, 58
1, 1355916, Note_off_c, 0, 74, 60
1, 1355960, Note_off_c, 0, 81, 63
1, 1356437, Poly_aftertouch_c, 0, 38, 28
1, 1356441, Note_on_c, 0, 38, 78
1, 1356540, Poly_aftertouch_c, 0, 45, 28
1, 1356544, Note_on_c, 0, 45, 78
1, 1356577, Note_off_c, 0, 38, 58
1, 1356663, Poly_aftertouch_c, 0, 74, 28
1, 1356663, Poly_aftertouch_c, 0, 81, 28
1, 1356664, Poly_aftertouch_c, 0, 86, 28
1, 1356667, Note_on_c, 0, 74, 103
1, 1356668, Note_on_c, 0, 81, 98
1, 1356669, Note_on_c, 0, 86, 101
1, 1356672, Note_on_c, 0, 54, 107
1, 1356675, Poly_aftertouch_c, 0, 54, 28
1, 1356706, Note_on_c, 0, 46, 61
1, 1356709, Note_on_c, 0, 80, 50
1, 1356710, Note_off_c, 0, 80, 127
1, 1356723, Note_off_c, 0, 45, 58
1, 1356737, Note_off_c, 0, 54, 71
1, 1356741, Note_off_c, 0, 46, 38
1, 1356741, Poly_aftertouch_c, 0, 46, 28
1, 1356770, Note_off_c, 0, 86, 65
1, 1356811, Note_off_c, 0, 74, 55
1, 1356812, Note_off_c, 0, 81, 62
1, 1358254, Poly_aftertouch_c, 0, 57, 28
1, 1358255, Poly_aftertouch_c, 0, 62, 28
1, 1358257, Note_on_c, 0, 62, 97
1, 1358261, Note_on_c, 0, 57, 89
1, 1358263, Note_on_c, 0, 50, 93
1, 1358263, Note_on_c, 0, 38, 103
1, 1358264, Note_on_c, 0, 54, 88
1, 1358265, Note_on_c, 0, 26, 106
1, 1358266, Note_off_c, 0, 26, 127
1, 1358268, Poly_aftertouch_c, 0, 26, 28
1, 1358268, Poly_aftertouch_c, 0, 38, 28
1, 1358270, Poly_aftertouch_c, 0, 50, 28
1, 1358271, Poly_aftertouch_c, 0, 54, 28
1, 1358310, Control_c, 0, 64, 111
1, 1358319, Poly_aftertouch_c, 0, 26, 127
1, 1358330, Control_c, 0, 64, 69
1, 1358349, Control_c, 0, 64, 37
1, 1358366, Control_c, 0, 64, 0
1, 1358648, Control_c, 0, 64, 8
1, 1358686, Control_c, 0, 64, 16
1, 1358703, Control_c, 0, 64, 23
1, 1358723, Control_c, 0, 64, 34
1, 1358741, Control_c, 0, 64, 48
1, 1358760, Control_c, 0, 64, 61
1, 1358778, Control_c, 0, 64, 69
1, 1358798, Control_c, 0, 64, 73
1, 1358816, Control_c, 0, 64, 76
1, 1358835, Control_c, 0, 64, 79
1, 1358854, Control_c, 0, 64, 83
1, 1358873, Control_c, 0, 64, 90
1, 1358892, Control_c, 0, 64, 99
1, 1358909, Control_c, 0, 64, 117
1, 1358928, Control_c, 0, 64, 127
1, 1363219, Note_off_c, 0, 50, 32
1, 1364094, Poly_aftertouch_c, 0, 26, 0
1, 1364262, Note_off_c, 0, 54, 56
1, 1364356, Note_off_c, 0, 38, 48
1, 1364505, Poly_aftertouch_c, 0, 56, 28
1, 1364507, Poly_aftertouch_c, 0, 56, 0
1, 1364597, Note_off_c, 0, 57, 55
1, 1364647, Note_off_c, 0, 62, 57
1, 1364713, Control_c, 0, 64, 91
1, 1364731, Control_c, 0, 64, 63
1, 1364750, Control_c, 0, 64, 34
1, 1364768, Control_c, 0, 64, 0
1, 1364768, End_track
0, 0, End_of_file
