0, 0, Header, 1, 5, 480
1, 0, Start_track
1, 0, Title_t, "brahms hungarian dance no05 in fsharpminor 4hands"
1, 0, Copyright_t, "Segundo G. Yogore,  dody@info.com.ph \012__________________________________________________________\012Kunst der Fuge comment: this is the Contributor's property.\012Can *not* be used for commercial purposes without authorization!\012Copyright by Contributor - Kunst der Fuge, © 2002-05\012http://www.kunstderfuge.com/thanks.htm -> Contributors' list\012http://www.kunstderfuge.com/notes.htm -> Terms & conditions"
1, 0, Text_t, "sequenced by Segundo G. Yogore,  2004\012"
1, 0, Time_signature, 2, 2, 24, 8
1, 0, Key_signature, 3, "major"
1, 0, Tempo, 400000
1, 38640, Tempo, 422535
1, 38880, Tempo, 447761
1, 39120, Tempo, 476190
1, 39360, Tempo, 508475
1, 39600, Tempo, 545455
1, 39840, Tempo, 588235
1, 40080, Tempo, 638298
1, 40320, Tempo, 697674
1, 42240, Tempo, 400000
1, 54000, Tempo, 422535
1, 54240, Tempo, 447761
1, 54480, Tempo, 476190
1, 54720, Tempo, 508475
1, 54960, Tempo, 545455
1, 55200, Tempo, 588235
1, 55440, Tempo, 638298
1, 55680, Tempo, 697674
1, 57600, Tempo, 400000
1, 61440, Key_signature, 6, "major"
1, 61440, Tempo, 333333
1, 72000, Time_signature, 3, 2, 24, 8
1, 73440, Time_signature, 2, 2, 24, 8
1, 73440, Tempo, 600000
1, 74400, Tempo, 750000
1, 75360, Tempo, 333333
1, 77280, Tempo, 600000
1, 78240, Tempo, 750000
1, 79200, Tempo, 333333
1, 81120, Tempo, 600000
1, 82080, Tempo, 750000
1, 83040, Tempo, 333333
1, 84960, Tempo, 600000
1, 85920, Tempo, 750000
1, 86880, Tempo, 333333
1, 87840, Time_signature, 4, 2, 24, 8
1, 89760, Time_signature, 2, 2, 24, 8
1, 89760, Key_signature, 3, "major"
1, 89760, Tempo, 400000
1, 113040, Tempo, 422535
1, 113280, Tempo, 447761
1, 113520, Tempo, 476190
1, 113760, Tempo, 508475
1, 114000, Tempo, 545455
1, 114240, Tempo, 588235
1, 114480, Tempo, 638298
1, 114720, Tempo, 697674
1, 116640, Tempo, 400000
1, 120480, Tempo, 333333
1, 121440, Time_signature, 6, 2, 24, 8
1, 121440, End_track
2, 0, Start_track
2, 0, Title_t, "Grand Piano"
2, 0, Program_c, 0, 0
2, 0, Control_c, 0, 7, 110
2, 0, Control_c, 0, 10, 97
2, 3840, Note_on_c, 0, 62, 88
2, 4560, Note_on_c, 0, 62, 0
2, 4560, Note_on_c, 0, 64, 88
2, 4680, Note_on_c, 0, 64, 0
2, 4680, Note_on_c, 0, 66, 88
2, 4800, Note_on_c, 0, 66, 0
2, 4800, Note_on_c, 0, 61, 88
2, 5760, Note_on_c, 0, 61, 0
2, 7680, Note_on_c, 0, 73, 88
2, 8400, Note_on_c, 0, 73, 0
2, 8400, Note_on_c, 0, 78, 101
2, 8520, Note_on_c, 0, 78, 0
2, 8520, Note_on_c, 0, 81, 101
2, 8640, Note_on_c, 0, 81, 0
2, 8640, Note_on_c, 0, 85, 101
2, 9360, Note_on_c, 0, 85, 0
2, 9360, Note_on_c, 0, 81, 101
2, 9600, Note_on_c, 0, 81, 0
2, 9600, Note_on_c, 0, 74, 101
2, 9600, Note_on_c, 0, 77, 101
2, 9600, Note_on_c, 0, 80, 101
2, 10320, Note_on_c, 0, 80, 0
2, 10320, Note_on_c, 0, 77, 0
2, 10320, Note_on_c, 0, 74, 0
2, 10320, Note_on_c, 0, 81, 101
2, 10440, Note_on_c, 0, 81, 0
2, 10440, Note_on_c, 0, 83, 101
2, 10560, Note_on_c, 0, 83, 0
2, 10560, Note_on_c, 0, 73, 101
2, 10560, Note_on_c, 0, 78, 101
2, 10560, Note_on_c, 0, 81, 101
2, 11520, Note_on_c, 0, 81, 0
2, 11520, Note_on_c, 0, 78, 0
2, 11520, Note_on_c, 0, 73, 0
2, 11520, Note_on_c, 0, 74, 62
2, 11640, Note_on_c, 0, 74, 0
2, 11640, Note_on_c, 0, 76, 62
2, 11760, Note_on_c, 0, 76, 0
2, 11760, Note_on_c, 0, 78, 62
2, 11880, Note_on_c, 0, 78, 0
2, 11880, Note_on_c, 0, 74, 62
2, 12000, Note_on_c, 0, 74, 0
2, 12000, Note_on_c, 0, 73, 62
2, 12120, Note_on_c, 0, 73, 0
2, 12120, Note_on_c, 0, 74, 62
2, 12240, Note_on_c, 0, 74, 0
2, 12240, Note_on_c, 0, 76, 62
2, 12360, Note_on_c, 0, 76, 0
2, 12360, Note_on_c, 0, 73, 62
2, 12480, Note_on_c, 0, 73, 0
2, 12480, Note_on_c, 0, 71, 62
2, 12600, Note_on_c, 0, 71, 0
2, 12600, Note_on_c, 0, 73, 62
2, 12720, Note_on_c, 0, 73, 0
2, 12720, Note_on_c, 0, 74, 62
2, 12840, Note_on_c, 0, 74, 0
2, 12840, Note_on_c, 0, 71, 62
2, 12960, Note_on_c, 0, 71, 0
2, 12960, Note_on_c, 0, 69, 62
2, 13080, Note_on_c, 0, 69, 0
2, 13080, Note_on_c, 0, 71, 62
2, 13200, Note_on_c, 0, 71, 0
2, 13200, Note_on_c, 0, 73, 62
2, 13320, Note_on_c, 0, 73, 0
2, 13320, Note_on_c, 0, 69, 62
2, 13440, Note_on_c, 0, 69, 0
2, 13440, Note_on_c, 0, 71, 88
2, 13560, Note_on_c, 0, 71, 0
2, 13560, Note_on_c, 0, 69, 62
2, 13680, Note_on_c, 0, 69, 0
2, 13680, Note_on_c, 0, 69, 88
2, 13800, Note_on_c, 0, 69, 0
2, 13800, Note_on_c, 0, 68, 62
2, 13920, Note_on_c, 0, 68, 0
2, 13920, Note_on_c, 0, 68, 88
2, 14280, Note_on_c, 0, 68, 0
2, 14280, Note_on_c, 0, 73, 62
2, 14400, Note_on_c, 0, 73, 0
2, 14400, Note_on_c, 0, 66, 62
2, 14880, Note_on_c, 0, 66, 0
2, 14880, Note_on_c, 0, 69, 114
2, 14880, Note_on_c, 0, 73, 114
2, 14880, Note_on_c, 0, 78, 114
2, 14903, Note_on_c, 0, 78, 0
2, 14903, Note_on_c, 0, 73, 0
2, 14903, Note_on_c, 0, 69, 0
2, 15360, Note_on_c, 0, 73, 88
2, 16080, Note_on_c, 0, 73, 0
2, 16080, Note_on_c, 0, 78, 88
2, 16320, Note_on_c, 0, 78, 0
2, 16320, Note_on_c, 0, 81, 88
2, 17040, Note_on_c, 0, 81, 0
2, 17040, Note_on_c, 0, 78, 88
2, 17280, Note_on_c, 0, 78, 0
2, 17280, Note_on_c, 0, 77, 88
2, 18000, Note_on_c, 0, 77, 0
2, 18000, Note_on_c, 0, 78, 88
2, 18120, Note_on_c, 0, 78, 0
2, 18120, Note_on_c, 0, 80, 88
2, 18240, Note_on_c, 0, 80, 0
2, 18240, Note_on_c, 0, 78, 88
2, 19200, Note_on_c, 0, 78, 0
2, 19200, Note_on_c, 0, 74, 88
2, 19920, Note_on_c, 0, 74, 0
2, 19920, Note_on_c, 0, 76, 88
2, 20040, Note_on_c, 0, 76, 0
2, 20040, Note_on_c, 0, 78, 88
2, 20160, Note_on_c, 0, 78, 0
2, 20160, Note_on_c, 0, 73, 88
2, 21120, Note_on_c, 0, 73, 0
2, 21120, Note_on_c, 0, 71, 114
2, 21240, Note_on_c, 0, 71, 0
2, 21240, Note_on_c, 0, 69, 88
2, 21360, Note_on_c, 0, 69, 0
2, 21360, Note_on_c, 0, 69, 114
2, 21480, Note_on_c, 0, 69, 0
2, 21480, Note_on_c, 0, 68, 88
2, 21600, Note_on_c, 0, 68, 0
2, 21600, Note_on_c, 0, 68, 114
2, 21960, Note_on_c, 0, 68, 0
2, 21960, Note_on_c, 0, 73, 88
2, 22080, Note_on_c, 0, 73, 0
2, 22080, Note_on_c, 0, 66, 88
2, 23040, Note_on_c, 0, 66, 0
2, 23040, Note_on_c, 0, 73, 75
2, 23400, Note_on_c, 0, 73, 0
2, 23400, Note_on_c, 0, 78, 75
2, 23520, Note_on_c, 0, 78, 0
2, 23520, Note_on_c, 0, 81, 75
2, 23640, Note_on_c, 0, 81, 0
2, 23640, Note_on_c, 0, 85, 75
2, 23760, Note_on_c, 0, 85, 0
2, 23760, Note_on_c, 0, 90, 88
2, 23880, Note_on_c, 0, 90, 0
2, 23880, Note_on_c, 0, 93, 88
2, 24000, Note_on_c, 0, 93, 0
2, 24000, Note_on_c, 0, 97, 88
2, 24720, Note_on_c, 0, 97, 0
2, 24720, Note_on_c, 0, 93, 88
2, 24960, Note_on_c, 0, 93, 0
2, 24960, Note_on_c, 0, 86, 88
2, 24960, Note_on_c, 0, 89, 88
2, 24960, Note_on_c, 0, 92, 88
2, 25680, Note_on_c, 0, 92, 0
2, 25680, Note_on_c, 0, 89, 0
2, 25680, Note_on_c, 0, 86, 0
2, 25680, Note_on_c, 0, 93, 88
2, 25800, Note_on_c, 0, 93, 0
2, 25800, Note_on_c, 0, 95, 88
2, 25920, Note_on_c, 0, 95, 0
2, 25920, Note_on_c, 0, 85, 88
2, 25920, Note_on_c, 0, 90, 88
2, 25920, Note_on_c, 0, 93, 88
2, 26880, Note_on_c, 0, 93, 0
2, 26880, Note_on_c, 0, 90, 0
2, 26880, Note_on_c, 0, 85, 0
2, 26880, Note_on_c, 0, 98, 62
2, 27000, Note_on_c, 0, 98, 0
2, 27000, Note_on_c, 0, 100, 62
2, 27120, Note_on_c, 0, 100, 0
2, 27120, Note_on_c, 0, 102, 62
2, 27240, Note_on_c, 0, 102, 0
2, 27240, Note_on_c, 0, 98, 62
2, 27360, Note_on_c, 0, 98, 0
2, 27360, Note_on_c, 0, 97, 62
2, 27480, Note_on_c, 0, 97, 0
2, 27480, Note_on_c, 0, 98, 62
2, 27600, Note_on_c, 0, 98, 0
2, 27600, Note_on_c, 0, 100, 62
2, 27720, Note_on_c, 0, 100, 0
2, 27720, Note_on_c, 0, 97, 62
2, 27840, Note_on_c, 0, 97, 0
2, 27840, Note_on_c, 0, 95, 62
2, 27960, Note_on_c, 0, 95, 0
2, 27960, Note_on_c, 0, 97, 62
2, 28080, Note_on_c, 0, 97, 0
2, 28080, Note_on_c, 0, 98, 62
2, 28200, Note_on_c, 0, 98, 0
2, 28200, Note_on_c, 0, 95, 62
2, 28320, Note_on_c, 0, 95, 0
2, 28320, Note_on_c, 0, 93, 62
2, 28440, Note_on_c, 0, 93, 0
2, 28440, Note_on_c, 0, 95, 62
2, 28560, Note_on_c, 0, 95, 0
2, 28560, Note_on_c, 0, 97, 62
2, 28680, Note_on_c, 0, 97, 0
2, 28680, Note_on_c, 0, 93, 62
2, 28800, Note_on_c, 0, 93, 0
2, 28800, Note_on_c, 0, 95, 88
2, 28920, Note_on_c, 0, 95, 0
2, 28920, Note_on_c, 0, 93, 62
2, 29040, Note_on_c, 0, 93, 0
2, 29040, Note_on_c, 0, 93, 88
2, 29160, Note_on_c, 0, 93, 0
2, 29160, Note_on_c, 0, 92, 62
2, 29280, Note_on_c, 0, 92, 0
2, 29280, Note_on_c, 0, 92, 88
2, 29640, Note_on_c, 0, 92, 0
2, 29640, Note_on_c, 0, 97, 62
2, 29760, Note_on_c, 0, 97, 0
2, 29760, Note_on_c, 0, 90, 62
2, 30160, Note_on_c, 0, 93, 114
2, 30175, Note_on_c, 0, 93, 0
2, 30200, Note_on_c, 0, 97, 114
2, 30215, Note_on_c, 0, 97, 0
2, 30240, Note_on_c, 0, 90, 0
2, 30240, Note_on_c, 0, 102, 114
2, 30255, Note_on_c, 0, 102, 0
2, 30720, Note_on_c, 0, 85, 88
2, 30767, Note_on_c, 0, 85, 0
2, 31200, Note_on_c, 0, 85, 88
2, 31247, Note_on_c, 0, 85, 0
2, 31680, Note_on_c, 0, 86, 114
2, 32400, Note_on_c, 0, 86, 0
2, 32400, Note_on_c, 0, 85, 88
2, 32640, Note_on_c, 0, 85, 0
2, 32880, Note_on_c, 0, 83, 88
2, 33360, Note_on_c, 0, 83, 0
2, 33360, Note_on_c, 0, 82, 88
2, 33480, Note_on_c, 0, 82, 0
2, 33480, Note_on_c, 0, 83, 88
2, 33600, Note_on_c, 0, 83, 0
2, 33600, Note_on_c, 0, 85, 88
2, 33720, Note_on_c, 0, 85, 0
2, 33720, Note_on_c, 0, 83, 88
2, 33840, Note_on_c, 0, 83, 0
2, 33840, Note_on_c, 0, 82, 88
2, 33960, Note_on_c, 0, 82, 0
2, 33960, Note_on_c, 0, 85, 88
2, 34080, Note_on_c, 0, 85, 0
2, 34080, Note_on_c, 0, 83, 88
2, 34320, Note_on_c, 0, 83, 0
2, 34560, Note_on_c, 0, 83, 88
2, 34607, Note_on_c, 0, 83, 0
2, 35040, Note_on_c, 0, 83, 88
2, 35087, Note_on_c, 0, 83, 0
2, 35520, Note_on_c, 0, 85, 114
2, 36240, Note_on_c, 0, 85, 0
2, 36240, Note_on_c, 0, 83, 88
2, 36480, Note_on_c, 0, 83, 0
2, 36720, Note_on_c, 0, 81, 88
2, 37200, Note_on_c, 0, 81, 0
2, 37200, Note_on_c, 0, 80, 88
2, 37320, Note_on_c, 0, 80, 0
2, 37320, Note_on_c, 0, 81, 88
2, 37440, Note_on_c, 0, 81, 0
2, 37440, Note_on_c, 0, 83, 88
2, 37560, Note_on_c, 0, 83, 0
2, 37560, Note_on_c, 0, 81, 88
2, 37680, Note_on_c, 0, 81, 0
2, 37680, Note_on_c, 0, 80, 88
2, 37800, Note_on_c, 0, 80, 0
2, 37800, Note_on_c, 0, 83, 88
2, 37920, Note_on_c, 0, 83, 0
2, 37920, Note_on_c, 0, 81, 88
2, 38160, Note_on_c, 0, 81, 0
2, 38400, Note_on_c, 0, 80, 62
2, 38880, Note_on_c, 0, 80, 0
2, 38880, Note_on_c, 0, 80, 62
2, 39360, Note_on_c, 0, 80, 0
2, 39360, Note_on_c, 0, 83, 62
2, 39383, Note_on_c, 0, 83, 0
2, 39600, Note_on_c, 0, 81, 62
2, 40080, Note_on_c, 0, 81, 0
2, 40080, Note_on_c, 0, 80, 62
2, 40560, Note_on_c, 0, 80, 0
2, 40560, Note_on_c, 0, 78, 62
2, 41040, Note_on_c, 0, 78, 0
2, 41040, Control_c, 0, 64, 127
2, 41040, Note_on_c, 0, 77, 62
2, 41160, Note_on_c, 0, 77, 0
2, 41160, Note_on_c, 0, 78, 62
2, 41280, Note_on_c, 0, 78, 0
2, 41280, Note_on_c, 0, 80, 62
2, 41400, Note_on_c, 0, 80, 0
2, 41400, Note_on_c, 0, 78, 62
2, 41520, Note_on_c, 0, 78, 0
2, 41520, Note_on_c, 0, 77, 62
2, 41640, Note_on_c, 0, 77, 0
2, 41640, Note_on_c, 0, 80, 62
2, 41760, Note_on_c, 0, 80, 0
2, 41760, Control_c, 0, 64, 0
2, 41760, Note_on_c, 0, 78, 62
2, 42000, Note_on_c, 0, 78, 0
2, 42240, Note_on_c, 0, 89, 114
2, 42240, Note_on_c, 0, 92, 114
2, 42240, Note_on_c, 0, 97, 114
2, 42263, Note_on_c, 0, 97, 0
2, 42263, Note_on_c, 0, 92, 0
2, 42263, Note_on_c, 0, 89, 0
2, 43080, Note_on_c, 0, 85, 88
2, 43095, Note_on_c, 0, 85, 0
2, 43200, Note_on_c, 0, 87, 88
2, 43223, Note_on_c, 0, 87, 0
2, 43680, Note_on_c, 0, 89, 88
2, 43703, Note_on_c, 0, 89, 0
2, 44100, Note_on_c, 0, 92, 88
2, 44160, Note_on_c, 0, 92, 0
2, 44160, Note_on_c, 0, 90, 88
2, 44183, Note_on_c, 0, 90, 0
2, 44400, Note_on_c, 0, 90, 114
2, 44880, Note_on_c, 0, 90, 0
2, 44880, Note_on_c, 0, 89, 88
2, 45000, Note_on_c, 0, 89, 0
2, 45000, Note_on_c, 0, 90, 88
2, 45120, Note_on_c, 0, 90, 0
2, 45120, Control_c, 0, 64, 127
2, 45120, Note_on_c, 0, 92, 88
2, 45240, Note_on_c, 0, 92, 0
2, 45240, Note_on_c, 0, 90, 88
2, 45360, Note_on_c, 0, 90, 0
2, 45360, Note_on_c, 0, 89, 88
2, 45440, Note_on_c, 0, 89, 0
2, 45440, Note_on_c, 0, 90, 88
2, 45519, Note_on_c, 0, 90, 0
2, 45519, Note_on_c, 0, 92, 88
2, 45600, Note_on_c, 0, 92, 0
2, 45600, Control_c, 0, 64, 0
2, 45600, Note_on_c, 0, 90, 88
2, 45623, Note_on_c, 0, 90, 0
2, 46080, Note_on_c, 0, 85, 88
2, 46127, Note_on_c, 0, 85, 0
2, 46560, Note_on_c, 0, 85, 88
2, 46607, Note_on_c, 0, 85, 0
2, 47040, Note_on_c, 0, 86, 114
2, 47760, Note_on_c, 0, 86, 0
2, 47760, Note_on_c, 0, 85, 88
2, 48000, Note_on_c, 0, 85, 0
2, 48240, Note_on_c, 0, 83, 88
2, 48720, Note_on_c, 0, 83, 0
2, 48720, Note_on_c, 0, 82, 88
2, 48840, Note_on_c, 0, 82, 0
2, 48840, Note_on_c, 0, 83, 88
2, 48960, Note_on_c, 0, 83, 0
2, 48960, Note_on_c, 0, 85, 88
2, 49080, Note_on_c, 0, 85, 0
2, 49080, Note_on_c, 0, 83, 88
2, 49200, Note_on_c, 0, 83, 0
2, 49200, Note_on_c, 0, 82, 88
2, 49320, Note_on_c, 0, 82, 0
2, 49320, Note_on_c, 0, 85, 88
2, 49440, Note_on_c, 0, 85, 0
2, 49440, Note_on_c, 0, 83, 88
2, 49680, Note_on_c, 0, 83, 0
2, 49920, Note_on_c, 0, 83, 88
2, 49967, Note_on_c, 0, 83, 0
2, 50400, Note_on_c, 0, 83, 88
2, 50447, Note_on_c, 0, 83, 0
2, 50880, Note_on_c, 0, 85, 114
2, 51600, Note_on_c, 0, 85, 0
2, 51600, Note_on_c, 0, 83, 88
2, 51840, Note_on_c, 0, 83, 0
2, 52080, Note_on_c, 0, 81, 88
2, 52560, Note_on_c, 0, 81, 0
2, 52560, Note_on_c, 0, 80, 88
2, 52680, Note_on_c, 0, 80, 0
2, 52680, Note_on_c, 0, 81, 88
2, 52800, Note_on_c, 0, 81, 0
2, 52800, Note_on_c, 0, 83, 88
2, 52920, Note_on_c, 0, 83, 0
2, 52920, Note_on_c, 0, 81, 88
2, 53040, Note_on_c, 0, 81, 0
2, 53040, Note_on_c, 0, 80, 88
2, 53160, Note_on_c, 0, 80, 0
2, 53160, Note_on_c, 0, 83, 88
2, 53280, Note_on_c, 0, 83, 0
2, 53280, Note_on_c, 0, 81, 88
2, 53520, Note_on_c, 0, 81, 0
2, 53760, Note_on_c, 0, 80, 62
2, 54240, Note_on_c, 0, 80, 0
2, 54240, Note_on_c, 0, 80, 62
2, 54720, Note_on_c, 0, 80, 0
2, 54720, Note_on_c, 0, 83, 62
2, 54743, Note_on_c, 0, 83, 0
2, 54960, Note_on_c, 0, 81, 62
2, 55440, Note_on_c, 0, 81, 0
2, 55440, Note_on_c, 0, 80, 62
2, 55920, Note_on_c, 0, 80, 0
2, 55920, Note_on_c, 0, 78, 62
2, 56400, Note_on_c, 0, 78, 0
2, 56400, Control_c, 0, 64, 127
2, 56400, Note_on_c, 0, 77, 62
2, 56520, Note_on_c, 0, 77, 0
2, 56520, Note_on_c, 0, 78, 62
2, 56640, Note_on_c, 0, 78, 0
2, 56640, Note_on_c, 0, 80, 62
2, 56760, Note_on_c, 0, 80, 0
2, 56760, Note_on_c, 0, 78, 62
2, 56880, Note_on_c, 0, 78, 0
2, 56880, Note_on_c, 0, 77, 62
2, 57000, Note_on_c, 0, 77, 0
2, 57000, Note_on_c, 0, 80, 62
2, 57120, Note_on_c, 0, 80, 0
2, 57120, Control_c, 0, 64, 0
2, 57120, Note_on_c, 0, 78, 62
2, 57360, Note_on_c, 0, 78, 0
2, 57600, Note_on_c, 0, 89, 114
2, 57600, Note_on_c, 0, 92, 114
2, 57600, Note_on_c, 0, 97, 114
2, 57623, Note_on_c, 0, 97, 0
2, 57623, Note_on_c, 0, 92, 0
2, 57623, Note_on_c, 0, 89, 0
2, 58440, Note_on_c, 0, 85, 88
2, 58455, Note_on_c, 0, 85, 0
2, 58560, Note_on_c, 0, 87, 88
2, 58583, Note_on_c, 0, 87, 0
2, 59040, Note_on_c, 0, 89, 88
2, 59063, Note_on_c, 0, 89, 0
2, 59460, Note_on_c, 0, 92, 88
2, 59520, Note_on_c, 0, 92, 0
2, 59520, Note_on_c, 0, 90, 88
2, 59543, Note_on_c, 0, 90, 0
2, 59760, Note_on_c, 0, 90, 114
2, 60240, Note_on_c, 0, 90, 0
2, 60240, Note_on_c, 0, 89, 88
2, 60360, Note_on_c, 0, 89, 0
2, 60360, Note_on_c, 0, 90, 88
2, 60480, Note_on_c, 0, 90, 0
2, 60480, Control_c, 0, 64, 127
2, 60480, Note_on_c, 0, 92, 88
2, 60600, Note_on_c, 0, 92, 0
2, 60600, Note_on_c, 0, 90, 88
2, 60720, Note_on_c, 0, 90, 0
2, 60720, Note_on_c, 0, 89, 88
2, 60800, Note_on_c, 0, 89, 0
2, 60800, Note_on_c, 0, 90, 88
2, 60879, Note_on_c, 0, 90, 0
2, 60879, Note_on_c, 0, 92, 88
2, 60960, Note_on_c, 0, 92, 0
2, 60960, Control_c, 0, 64, 0
2, 60960, Note_on_c, 0, 90, 88
2, 60983, Note_on_c, 0, 90, 0
2, 61440, Note_on_c, 0, 70, 127
2, 61440, Note_on_c, 0, 78, 127
2, 61680, Note_on_c, 0, 78, 0
2, 61680, Note_on_c, 0, 70, 0
2, 61680, Note_on_c, 0, 70, 101
2, 61680, Note_on_c, 0, 73, 101
2, 61920, Note_on_c, 0, 73, 0
2, 61920, Note_on_c, 0, 70, 0
2, 61920, Note_on_c, 0, 70, 101
2, 61920, Note_on_c, 0, 73, 101
2, 61943, Note_on_c, 0, 73, 0
2, 61943, Note_on_c, 0, 70, 0
2, 62160, Note_on_c, 0, 70, 101
2, 62160, Note_on_c, 0, 73, 101
2, 62183, Note_on_c, 0, 73, 0
2, 62183, Note_on_c, 0, 70, 0
2, 62400, Note_on_c, 0, 70, 101
2, 62400, Note_on_c, 0, 73, 101
2, 62640, Note_on_c, 0, 73, 0
2, 62640, Note_on_c, 0, 70, 0
2, 62640, Note_on_c, 0, 68, 101
2, 62640, Note_on_c, 0, 71, 101
2, 62880, Note_on_c, 0, 71, 0
2, 62880, Note_on_c, 0, 68, 0
2, 62880, Note_on_c, 0, 66, 101
2, 62880, Note_on_c, 0, 70, 101
2, 63120, Note_on_c, 0, 70, 0
2, 63120, Note_on_c, 0, 66, 0
2, 63120, Note_on_c, 0, 68, 101
2, 63120, Note_on_c, 0, 71, 101
2, 63360, Note_on_c, 0, 71, 0
2, 63360, Note_on_c, 0, 68, 0
2, 63360, Note_on_c, 0, 70, 101
2, 63360, Note_on_c, 0, 73, 101
2, 63840, Note_on_c, 0, 73, 0
2, 63840, Note_on_c, 0, 70, 0
2, 63840, Note_on_c, 0, 70, 101
2, 63840, Note_on_c, 0, 73, 101
2, 64320, Note_on_c, 0, 73, 0
2, 64320, Note_on_c, 0, 70, 0
2, 64320, Note_on_c, 0, 70, 127
2, 64320, Note_on_c, 0, 78, 127
2, 64560, Note_on_c, 0, 78, 0
2, 64560, Note_on_c, 0, 70, 0
2, 64560, Note_on_c, 0, 70, 101
2, 64560, Note_on_c, 0, 73, 101
2, 64800, Note_on_c, 0, 73, 0
2, 64800, Note_on_c, 0, 70, 0
2, 64800, Note_on_c, 0, 70, 101
2, 64800, Note_on_c, 0, 73, 101
2, 64823, Note_on_c, 0, 73, 0
2, 64823, Note_on_c, 0, 70, 0
2, 65040, Note_on_c, 0, 70, 101
2, 65040, Note_on_c, 0, 73, 101
2, 65063, Note_on_c, 0, 73, 0
2, 65063, Note_on_c, 0, 70, 0
2, 65280, Note_on_c, 0, 70, 101
2, 65280, Note_on_c, 0, 73, 101
2, 65520, Note_on_c, 0, 73, 0
2, 65520, Note_on_c, 0, 70, 0
2, 65520, Note_on_c, 0, 68, 101
2, 65520, Note_on_c, 0, 71, 101
2, 65760, Note_on_c, 0, 71, 0
2, 65760, Note_on_c, 0, 68, 0
2, 65760, Note_on_c, 0, 66, 101
2, 65760, Note_on_c, 0, 70, 101
2, 66000, Note_on_c, 0, 70, 0
2, 66000, Note_on_c, 0, 66, 0
2, 66000, Note_on_c, 0, 65, 101
2, 66000, Note_on_c, 0, 68, 101
2, 66240, Note_on_c, 0, 68, 0
2, 66240, Note_on_c, 0, 65, 0
2, 66240, Note_on_c, 0, 66, 101
2, 66720, Note_on_c, 0, 66, 0
2, 66720, Note_on_c, 0, 66, 101
2, 67200, Note_on_c, 0, 66, 0
2, 67200, Note_on_c, 0, 78, 127
2, 67200, Note_on_c, 0, 90, 127
2, 67440, Note_on_c, 0, 90, 0
2, 67440, Note_on_c, 0, 78, 0
2, 67440, Note_on_c, 0, 82, 101
2, 67440, Note_on_c, 0, 85, 101
2, 67680, Note_on_c, 0, 85, 0
2, 67680, Note_on_c, 0, 82, 0
2, 67680, Note_on_c, 0, 82, 101
2, 67680, Note_on_c, 0, 85, 101
2, 67920, Note_on_c, 0, 85, 0
2, 67920, Note_on_c, 0, 82, 0
2, 67920, Note_on_c, 0, 82, 101
2, 67920, Note_on_c, 0, 85, 101
2, 68160, Note_on_c, 0, 85, 0
2, 68160, Note_on_c, 0, 82, 0
2, 68160, Note_on_c, 0, 82, 101
2, 68160, Note_on_c, 0, 85, 101
2, 68400, Note_on_c, 0, 85, 0
2, 68400, Note_on_c, 0, 82, 0
2, 68400, Note_on_c, 0, 80, 101
2, 68400, Note_on_c, 0, 83, 101
2, 68640, Note_on_c, 0, 83, 0
2, 68640, Note_on_c, 0, 80, 0
2, 68640, Note_on_c, 0, 78, 101
2, 68640, Note_on_c, 0, 82, 101
2, 68880, Note_on_c, 0, 82, 0
2, 68880, Note_on_c, 0, 78, 0
2, 68880, Note_on_c, 0, 80, 101
2, 68880, Note_on_c, 0, 83, 101
2, 69120, Note_on_c, 0, 83, 0
2, 69120, Note_on_c, 0, 80, 0
2, 69120, Note_on_c, 0, 78, 101
2, 69120, Note_on_c, 0, 82, 101
2, 69120, Note_on_c, 0, 85, 101
2, 69600, Note_on_c, 0, 85, 0
2, 69600, Note_on_c, 0, 82, 0
2, 69600, Note_on_c, 0, 78, 0
2, 69600, Note_on_c, 0, 78, 101
2, 69600, Note_on_c, 0, 82, 101
2, 69600, Note_on_c, 0, 85, 101
2, 70080, Note_on_c, 0, 85, 0
2, 70080, Note_on_c, 0, 82, 0
2, 70080, Note_on_c, 0, 78, 0
2, 70080, Note_on_c, 0, 78, 127
2, 70080, Note_on_c, 0, 90, 127
2, 70320, Note_on_c, 0, 90, 0
2, 70320, Note_on_c, 0, 78, 0
2, 70320, Note_on_c, 0, 82, 101
2, 70320, Note_on_c, 0, 85, 101
2, 70560, Note_on_c, 0, 85, 0
2, 70560, Note_on_c, 0, 82, 0
2, 70560, Note_on_c, 0, 82, 101
2, 70560, Note_on_c, 0, 85, 101
2, 70800, Note_on_c, 0, 85, 0
2, 70800, Note_on_c, 0, 82, 0
2, 70800, Note_on_c, 0, 82, 101
2, 70800, Note_on_c, 0, 85, 101
2, 71040, Note_on_c, 0, 85, 0
2, 71040, Note_on_c, 0, 82, 0
2, 71040, Note_on_c, 0, 82, 101
2, 71040, Note_on_c, 0, 85, 101
2, 71280, Note_on_c, 0, 85, 0
2, 71280, Note_on_c, 0, 82, 0
2, 71280, Note_on_c, 0, 80, 101
2, 71280, Note_on_c, 0, 83, 101
2, 71520, Note_on_c, 0, 83, 0
2, 71520, Note_on_c, 0, 80, 0
2, 71520, Note_on_c, 0, 78, 101
2, 71520, Note_on_c, 0, 82, 101
2, 71760, Note_on_c, 0, 82, 0
2, 71760, Note_on_c, 0, 78, 0
2, 71760, Note_on_c, 0, 77, 101
2, 71760, Note_on_c, 0, 80, 101
2, 72000, Note_on_c, 0, 80, 0
2, 72000, Note_on_c, 0, 77, 0
2, 72000, Note_on_c, 0, 78, 101
2, 72480, Note_on_c, 0, 78, 0
2, 72480, Note_on_c, 0, 78, 101
2, 72960, Note_on_c, 0, 78, 0
2, 73440, Note_on_c, 0, 70, 88
2, 73920, Note_on_c, 0, 70, 0
2, 73920, Note_on_c, 0, 71, 62
2, 74400, Note_on_c, 0, 71, 0
2, 74400, Note_on_c, 0, 70, 62
2, 74880, Note_on_c, 0, 70, 0
2, 74880, Note_on_c, 0, 68, 62
2, 75360, Note_on_c, 0, 68, 0
2, 75360, Note_on_c, 0, 78, 62
2, 75360, Note_on_c, 0, 82, 62
2, 75383, Note_on_c, 0, 82, 0
2, 75383, Note_on_c, 0, 78, 0
2, 75600, Note_on_c, 0, 78, 62
2, 75600, Note_on_c, 0, 82, 62
2, 75623, Note_on_c, 0, 82, 0
2, 75623, Note_on_c, 0, 78, 0
2, 75840, Note_on_c, 0, 80, 62
2, 75840, Note_on_c, 0, 83, 62
2, 75863, Note_on_c, 0, 83, 0
2, 75863, Note_on_c, 0, 80, 0
2, 76080, Note_on_c, 0, 80, 62
2, 76080, Note_on_c, 0, 83, 62
2, 76103, Note_on_c, 0, 83, 0
2, 76103, Note_on_c, 0, 80, 0
2, 76320, Note_on_c, 0, 82, 62
2, 76320, Note_on_c, 0, 85, 62
2, 76560, Note_on_c, 0, 85, 0
2, 76560, Note_on_c, 0, 82, 0
2, 76560, Note_on_c, 0, 82, 62
2, 76560, Note_on_c, 0, 90, 62
2, 76800, Note_on_c, 0, 90, 0
2, 76800, Note_on_c, 0, 82, 0
2, 76800, Note_on_c, 0, 82, 62
2, 76800, Note_on_c, 0, 85, 62
2, 77280, Note_on_c, 0, 85, 0
2, 77280, Note_on_c, 0, 82, 0
2, 77280, Note_on_c, 0, 70, 62
2, 77760, Note_on_c, 0, 70, 0
2, 77760, Note_on_c, 0, 71, 62
2, 78240, Note_on_c, 0, 71, 0
2, 78240, Note_on_c, 0, 68, 62
2, 78240, Note_on_c, 0, 71, 62
2, 78240, Note_on_c, 0, 73, 62
2, 78720, Note_on_c, 0, 73, 0
2, 78720, Note_on_c, 0, 71, 0
2, 78720, Note_on_c, 0, 68, 0
2, 78720, Note_on_c, 0, 70, 62
2, 78720, Note_on_c, 0, 73, 62
2, 79200, Note_on_c, 0, 73, 0
2, 79200, Note_on_c, 0, 70, 0
2, 79200, Note_on_c, 0, 82, 62
2, 79200, Note_on_c, 0, 85, 62
2, 79223, Note_on_c, 0, 85, 0
2, 79223, Note_on_c, 0, 82, 0
2, 79440, Note_on_c, 0, 80, 62
2, 79440, Note_on_c, 0, 83, 62
2, 79463, Note_on_c, 0, 83, 0
2, 79463, Note_on_c, 0, 80, 0
2, 79680, Note_on_c, 0, 78, 62
2, 79680, Note_on_c, 0, 82, 62
2, 79703, Note_on_c, 0, 82, 0
2, 79703, Note_on_c, 0, 78, 0
2, 79920, Note_on_c, 0, 77, 62
2, 79920, Note_on_c, 0, 80, 62
2, 79943, Note_on_c, 0, 80, 0
2, 79943, Note_on_c, 0, 77, 0
2, 80160, Note_on_c, 0, 78, 62
2, 80320, Note_on_c, 0, 82, 62
2, 80360, Note_on_c, 0, 85, 62
2, 80400, Note_on_c, 0, 78, 0
2, 80400, Note_on_c, 0, 90, 62
2, 80640, Note_on_c, 0, 90, 0
2, 80640, Note_on_c, 0, 85, 0
2, 80640, Note_on_c, 0, 82, 0
2, 80640, Note_on_c, 0, 78, 62
2, 80880, Note_on_c, 0, 78, 0
2, 81120, Note_on_c, 0, 73, 62
2, 81120, Note_on_c, 0, 78, 62
2, 81120, Note_on_c, 0, 82, 62
2, 81600, Note_on_c, 0, 82, 0
2, 81600, Note_on_c, 0, 78, 0
2, 81600, Note_on_c, 0, 73, 0
2, 81600, Note_on_c, 0, 75, 62
2, 81600, Note_on_c, 0, 78, 62
2, 81600, Note_on_c, 0, 83, 62
2, 82080, Note_on_c, 0, 83, 0
2, 82080, Note_on_c, 0, 78, 0
2, 82080, Note_on_c, 0, 75, 0
2, 82080, Note_on_c, 0, 73, 62
2, 82080, Note_on_c, 0, 78, 62
2, 82080, Note_on_c, 0, 82, 62
2, 82560, Note_on_c, 0, 82, 0
2, 82560, Note_on_c, 0, 78, 0
2, 82560, Note_on_c, 0, 73, 0
2, 82560, Note_on_c, 0, 71, 62
2, 82560, Note_on_c, 0, 73, 62
2, 82560, Note_on_c, 0, 77, 62
2, 82560, Note_on_c, 0, 80, 62
2, 83040, Note_on_c, 0, 80, 0
2, 83040, Note_on_c, 0, 71, 0
2, 83040, Note_on_c, 0, 73, 0
2, 83040, Note_on_c, 0, 77, 0
2, 83040, Note_on_c, 0, 82, 62
2, 83040, Note_on_c, 0, 94, 62
2, 83280, Note_on_c, 0, 94, 0
2, 83280, Note_on_c, 0, 82, 0
2, 83280, Note_on_c, 0, 82, 62
2, 83280, Note_on_c, 0, 94, 62
2, 83520, Note_on_c, 0, 94, 0
2, 83520, Note_on_c, 0, 82, 0
2, 83520, Note_on_c, 0, 83, 62
2, 83520, Note_on_c, 0, 95, 62
2, 83760, Note_on_c, 0, 95, 0
2, 83760, Note_on_c, 0, 83, 0
2, 83760, Note_on_c, 0, 83, 62
2, 83760, Note_on_c, 0, 95, 62
2, 84000, Note_on_c, 0, 95, 0
2, 84000, Note_on_c, 0, 83, 0
2, 84000, Note_on_c, 0, 85, 62
2, 84000, Note_on_c, 0, 97, 62
2, 84240, Note_on_c, 0, 97, 0
2, 84240, Note_on_c, 0, 85, 0
2, 84240, Note_on_c, 0, 90, 62
2, 84240, Note_on_c, 0, 102, 62
2, 84263, Note_on_c, 0, 102, 0
2, 84263, Note_on_c, 0, 90, 0
2, 84480, Note_on_c, 0, 85, 62
2, 84480, Note_on_c, 0, 97, 62
2, 84960, Note_on_c, 0, 97, 0
2, 84960, Note_on_c, 0, 85, 0
2, 84960, Note_on_c, 0, 73, 62
2, 84960, Note_on_c, 0, 78, 62
2, 84960, Note_on_c, 0, 82, 62
2, 85440, Note_on_c, 0, 82, 0
2, 85440, Note_on_c, 0, 78, 0
2, 85440, Note_on_c, 0, 73, 0
2, 85440, Note_on_c, 0, 75, 62
2, 85440, Note_on_c, 0, 78, 62
2, 85440, Note_on_c, 0, 83, 62
2, 85920, Note_on_c, 0, 83, 0
2, 85920, Note_on_c, 0, 78, 0
2, 85920, Note_on_c, 0, 75, 0
2, 85920, Note_on_c, 0, 77, 62
2, 85920, Note_on_c, 0, 80, 62
2, 85920, Note_on_c, 0, 83, 62
2, 85920, Note_on_c, 0, 85, 62
2, 86400, Note_on_c, 0, 85, 0
2, 86400, Note_on_c, 0, 77, 0
2, 86400, Note_on_c, 0, 80, 0
2, 86400, Note_on_c, 0, 83, 0
2, 86400, Note_on_c, 0, 78, 62
2, 86400, Note_on_c, 0, 82, 62
2, 86400, Note_on_c, 0, 85, 62
2, 86880, Note_on_c, 0, 85, 0
2, 86880, Note_on_c, 0, 82, 0
2, 86880, Note_on_c, 0, 78, 0
2, 86880, Note_on_c, 0, 85, 62
2, 86880, Note_on_c, 0, 97, 62
2, 86903, Note_on_c, 0, 97, 0
2, 86903, Note_on_c, 0, 85, 0
2, 87120, Note_on_c, 0, 83, 62
2, 87120, Note_on_c, 0, 95, 62
2, 87143, Note_on_c, 0, 95, 0
2, 87143, Note_on_c, 0, 83, 0
2, 87360, Note_on_c, 0, 82, 62
2, 87360, Note_on_c, 0, 94, 62
2, 87383, Note_on_c, 0, 94, 0
2, 87383, Note_on_c, 0, 82, 0
2, 87600, Note_on_c, 0, 80, 62
2, 87600, Note_on_c, 0, 92, 62
2, 87623, Note_on_c, 0, 92, 0
2, 87623, Note_on_c, 0, 80, 0
2, 87840, Note_on_c, 0, 78, 62
2, 88080, Note_on_c, 0, 78, 0
2, 88080, Note_on_c, 0, 82, 62
2, 88080, Note_on_c, 0, 85, 62
2, 88080, Note_on_c, 0, 90, 62
2, 88103, Note_on_c, 0, 90, 0
2, 88103, Note_on_c, 0, 85, 0
2, 88103, Note_on_c, 0, 82, 0
2, 88320, Note_on_c, 0, 78, 62
2, 88343, Note_on_c, 0, 78, 0
2, 93600, Note_on_c, 0, 62, 88
2, 94320, Note_on_c, 0, 62, 0
2, 94320, Note_on_c, 0, 64, 88
2, 94440, Note_on_c, 0, 64, 0
2, 94440, Note_on_c, 0, 66, 88
2, 94560, Note_on_c, 0, 66, 0
2, 94560, Note_on_c, 0, 61, 88
2, 95520, Note_on_c, 0, 61, 0
2, 97440, Note_on_c, 0, 73, 88
2, 97800, Note_on_c, 0, 73, 0
2, 97800, Note_on_c, 0, 78, 101
2, 97920, Note_on_c, 0, 78, 0
2, 97920, Note_on_c, 0, 81, 101
2, 98040, Note_on_c, 0, 81, 0
2, 98040, Note_on_c, 0, 85, 101
2, 98160, Note_on_c, 0, 85, 0
2, 98160, Note_on_c, 0, 90, 101
2, 98280, Note_on_c, 0, 90, 0
2, 98280, Note_on_c, 0, 93, 101
2, 98400, Note_on_c, 0, 93, 0
2, 98400, Note_on_c, 0, 97, 101
2, 99120, Note_on_c, 0, 97, 0
2, 99120, Note_on_c, 0, 93, 101
2, 99360, Note_on_c, 0, 93, 0
2, 99360, Note_on_c, 0, 86, 101
2, 99360, Note_on_c, 0, 89, 101
2, 99360, Note_on_c, 0, 92, 101
2, 100080, Note_on_c, 0, 92, 0
2, 100080, Note_on_c, 0, 89, 0
2, 100080, Note_on_c, 0, 86, 0
2, 100080, Note_on_c, 0, 93, 101
2, 100200, Note_on_c, 0, 93, 0
2, 100200, Note_on_c, 0, 95, 101
2, 100320, Note_on_c, 0, 95, 0
2, 100320, Note_on_c, 0, 85, 101
2, 100320, Note_on_c, 0, 90, 101
2, 100320, Note_on_c, 0, 93, 101
2, 101280, Note_on_c, 0, 93, 0
2, 101280, Note_on_c, 0, 90, 0
2, 101280, Note_on_c, 0, 85, 0
2, 101280, Note_on_c, 0, 98, 62
2, 101400, Note_on_c, 0, 98, 0
2, 101400, Note_on_c, 0, 100, 62
2, 101520, Note_on_c, 0, 100, 0
2, 101520, Note_on_c, 0, 102, 62
2, 101640, Note_on_c, 0, 102, 0
2, 101640, Note_on_c, 0, 98, 62
2, 101760, Note_on_c, 0, 98, 0
2, 101760, Note_on_c, 0, 97, 62
2, 101880, Note_on_c, 0, 97, 0
2, 101880, Note_on_c, 0, 98, 62
2, 102000, Note_on_c, 0, 98, 0
2, 102000, Note_on_c, 0, 100, 62
2, 102120, Note_on_c, 0, 100, 0
2, 102120, Note_on_c, 0, 97, 62
2, 102240, Note_on_c, 0, 97, 0
2, 102240, Note_on_c, 0, 95, 62
2, 102360, Note_on_c, 0, 95, 0
2, 102360, Note_on_c, 0, 97, 62
2, 102480, Note_on_c, 0, 97, 0
2, 102480, Note_on_c, 0, 98, 62
2, 102600, Note_on_c, 0, 98, 0
2, 102600, Note_on_c, 0, 95, 62
2, 102720, Note_on_c, 0, 95, 0
2, 102720, Note_on_c, 0, 93, 62
2, 102840, Note_on_c, 0, 93, 0
2, 102840, Note_on_c, 0, 95, 62
2, 102960, Note_on_c, 0, 95, 0
2, 102960, Note_on_c, 0, 97, 62
2, 103080, Note_on_c, 0, 97, 0
2, 103080, Note_on_c, 0, 93, 62
2, 103200, Note_on_c, 0, 93, 0
2, 103200, Note_on_c, 0, 95, 88
2, 103320, Note_on_c, 0, 95, 0
2, 103320, Note_on_c, 0, 93, 62
2, 103440, Note_on_c, 0, 93, 0
2, 103440, Note_on_c, 0, 93, 88
2, 103560, Note_on_c, 0, 93, 0
2, 103560, Note_on_c, 0, 92, 62
2, 103680, Note_on_c, 0, 92, 0
2, 103680, Note_on_c, 0, 92, 88
2, 104040, Note_on_c, 0, 92, 0
2, 104040, Note_on_c, 0, 97, 62
2, 104160, Note_on_c, 0, 97, 0
2, 104160, Note_on_c, 0, 90, 62
2, 104640, Note_on_c, 0, 90, 0
2, 104640, Note_on_c, 0, 93, 114
2, 104640, Note_on_c, 0, 97, 114
2, 104640, Note_on_c, 0, 102, 114
2, 104663, Note_on_c, 0, 102, 0
2, 104663, Note_on_c, 0, 97, 0
2, 104663, Note_on_c, 0, 93, 0
2, 105120, Note_on_c, 0, 85, 88
2, 105167, Note_on_c, 0, 85, 0
2, 105600, Note_on_c, 0, 85, 88
2, 105647, Note_on_c, 0, 85, 0
2, 106080, Note_on_c, 0, 86, 114
2, 106800, Note_on_c, 0, 86, 0
2, 106800, Note_on_c, 0, 85, 88
2, 107040, Note_on_c, 0, 85, 0
2, 107280, Note_on_c, 0, 83, 88
2, 107760, Note_on_c, 0, 83, 0
2, 107760, Note_on_c, 0, 82, 88
2, 107880, Note_on_c, 0, 82, 0
2, 107880, Note_on_c, 0, 83, 88
2, 108000, Note_on_c, 0, 83, 0
2, 108000, Note_on_c, 0, 85, 88
2, 108120, Note_on_c, 0, 85, 0
2, 108120, Note_on_c, 0, 83, 88
2, 108240, Note_on_c, 0, 83, 0
2, 108240, Note_on_c, 0, 82, 88
2, 108360, Note_on_c, 0, 82, 0
2, 108360, Note_on_c, 0, 85, 88
2, 108480, Note_on_c, 0, 85, 0
2, 108480, Note_on_c, 0, 83, 88
2, 108720, Note_on_c, 0, 83, 0
2, 108960, Note_on_c, 0, 83, 88
2, 109007, Note_on_c, 0, 83, 0
2, 109440, Note_on_c, 0, 83, 88
2, 109487, Note_on_c, 0, 83, 0
2, 109920, Note_on_c, 0, 85, 114
2, 110640, Note_on_c, 0, 85, 0
2, 110640, Note_on_c, 0, 83, 88
2, 110880, Note_on_c, 0, 83, 0
2, 111120, Note_on_c, 0, 81, 88
2, 111600, Note_on_c, 0, 81, 0
2, 111600, Note_on_c, 0, 80, 88
2, 111720, Note_on_c, 0, 80, 0
2, 111720, Note_on_c, 0, 81, 88
2, 111840, Note_on_c, 0, 81, 0
2, 111840, Note_on_c, 0, 83, 88
2, 111960, Note_on_c, 0, 83, 0
2, 111960, Note_on_c, 0, 81, 88
2, 112080, Note_on_c, 0, 81, 0
2, 112080, Note_on_c, 0, 80, 88
2, 112200, Note_on_c, 0, 80, 0
2, 112200, Note_on_c, 0, 83, 88
2, 112320, Note_on_c, 0, 83, 0
2, 112320, Note_on_c, 0, 81, 88
2, 112560, Note_on_c, 0, 81, 0
2, 112800, Note_on_c, 0, 80, 62
2, 113280, Note_on_c, 0, 80, 0
2, 113280, Note_on_c, 0, 80, 62
2, 113760, Note_on_c, 0, 80, 0
2, 113760, Note_on_c, 0, 83, 62
2, 113783, Note_on_c, 0, 83, 0
2, 114000, Note_on_c, 0, 81, 62
2, 114480, Note_on_c, 0, 81, 0
2, 114480, Note_on_c, 0, 80, 62
2, 114960, Note_on_c, 0, 80, 0
2, 114960, Note_on_c, 0, 78, 62
2, 115440, Note_on_c, 0, 78, 0
2, 115440, Control_c, 0, 64, 127
2, 115440, Note_on_c, 0, 77, 62
2, 115560, Note_on_c, 0, 77, 0
2, 115560, Note_on_c, 0, 78, 62
2, 115680, Note_on_c, 0, 78, 0
2, 115680, Note_on_c, 0, 80, 62
2, 115800, Note_on_c, 0, 80, 0
2, 115800, Note_on_c, 0, 78, 62
2, 115920, Note_on_c, 0, 78, 0
2, 115920, Note_on_c, 0, 77, 62
2, 116040, Note_on_c, 0, 77, 0
2, 116040, Note_on_c, 0, 80, 62
2, 116160, Note_on_c, 0, 80, 0
2, 116160, Control_c, 0, 64, 0
2, 116160, Note_on_c, 0, 78, 62
2, 116400, Note_on_c, 0, 78, 0
2, 116640, Note_on_c, 0, 89, 114
2, 116640, Note_on_c, 0, 92, 114
2, 116640, Note_on_c, 0, 97, 114
2, 116663, Note_on_c, 0, 97, 0
2, 116663, Note_on_c, 0, 92, 0
2, 116663, Note_on_c, 0, 89, 0
2, 117480, Note_on_c, 0, 85, 88
2, 117495, Note_on_c, 0, 85, 0
2, 117600, Note_on_c, 0, 87, 88
2, 117623, Note_on_c, 0, 87, 0
2, 118080, Note_on_c, 0, 89, 88
2, 118103, Note_on_c, 0, 89, 0
2, 118500, Note_on_c, 0, 92, 88
2, 118560, Note_on_c, 0, 92, 0
2, 118560, Note_on_c, 0, 90, 88
2, 118583, Note_on_c, 0, 90, 0
2, 118800, Note_on_c, 0, 90, 114
2, 119280, Note_on_c, 0, 90, 0
2, 119280, Note_on_c, 0, 89, 88
2, 119400, Note_on_c, 0, 89, 0
2, 119400, Note_on_c, 0, 90, 88
2, 119520, Note_on_c, 0, 90, 0
2, 119520, Control_c, 0, 64, 127
2, 119520, Note_on_c, 0, 92, 88
2, 119640, Note_on_c, 0, 92, 0
2, 119640, Note_on_c, 0, 90, 88
2, 119760, Note_on_c, 0, 90, 0
2, 119760, Note_on_c, 0, 89, 88
2, 119840, Note_on_c, 0, 89, 0
2, 119840, Note_on_c, 0, 90, 88
2, 119919, Note_on_c, 0, 90, 0
2, 119919, Note_on_c, 0, 92, 88
2, 120000, Note_on_c, 0, 92, 0
2, 120000, Control_c, 0, 64, 0
2, 120000, Note_on_c, 0, 90, 88
2, 120023, Note_on_c, 0, 90, 0
2, 120480, Note_on_c, 0, 90, 114
2, 120480, Note_on_c, 0, 102, 114
2, 120527, Note_on_c, 0, 102, 0
2, 120527, Note_on_c, 0, 90, 0
2, 120960, Note_on_c, 0, 85, 114
2, 120960, Note_on_c, 0, 97, 114
2, 121007, Note_on_c, 0, 97, 0
2, 121007, Note_on_c, 0, 85, 0
2, 121440, Note_on_c, 0, 81, 114
2, 121440, Note_on_c, 0, 85, 114
2, 121440, Note_on_c, 0, 90, 114
2, 124320, Note_on_c, 0, 90, 0
2, 124320, Note_on_c, 0, 85, 0
2, 124320, Note_on_c, 0, 81, 0
2, 124320, End_track
3, 0, Start_track
3, 0, Title_t, "Instrument17"
3, 0, Program_c, 0, 0
3, 0, Control_c, 0, 7, 110
3, 0, Control_c, 0, 10, 97
3, 0, Note_on_c, 0, 61, 88
3, 720, Note_on_c, 0, 61, 0
3, 720, Note_on_c, 0, 66, 88
3, 960, Note_on_c, 0, 66, 0
3, 960, Note_on_c, 0, 69, 88
3, 1680, Note_on_c, 0, 69, 0
3, 1680, Note_on_c, 0, 66, 88
3, 1920, Note_on_c, 0, 66, 0
3, 1920, Note_on_c, 0, 65, 88
3, 2640, Note_on_c, 0, 65, 0
3, 2640, Note_on_c, 0, 66, 88
3, 2760, Note_on_c, 0, 66, 0
3, 2760, Note_on_c, 0, 68, 88
3, 2880, Note_on_c, 0, 68, 0
3, 2880, Note_on_c, 0, 66, 88
3, 3840, Note_on_c, 0, 66, 0
3, 3840, Note_on_c, 0, 59, 75
3, 4560, Note_on_c, 0, 59, 0
3, 4560, Note_on_c, 0, 61, 75
3, 4680, Note_on_c, 0, 61, 0
3, 4680, Note_on_c, 0, 62, 75
3, 4800, Note_on_c, 0, 62, 0
3, 4800, Note_on_c, 0, 57, 75
3, 5760, Note_on_c, 0, 57, 0
3, 5760, Note_on_c, 0, 59, 114
3, 5880, Note_on_c, 0, 59, 0
3, 5880, Note_on_c, 0, 57, 88
3, 6000, Note_on_c, 0, 57, 0
3, 6000, Note_on_c, 0, 57, 114
3, 6120, Note_on_c, 0, 57, 0
3, 6120, Note_on_c, 0, 56, 88
3, 6240, Note_on_c, 0, 56, 0
3, 6240, Note_on_c, 0, 56, 114
3, 6600, Note_on_c, 0, 56, 0
3, 6600, Note_on_c, 0, 61, 88
3, 6720, Note_on_c, 0, 61, 0
3, 6720, Note_on_c, 0, 54, 88
3, 7680, Note_on_c, 0, 54, 0
3, 7680, Note_on_c, 0, 61, 88
3, 8400, Note_on_c, 0, 61, 0
3, 8400, Note_on_c, 0, 66, 101
3, 8520, Note_on_c, 0, 66, 0
3, 8520, Note_on_c, 0, 69, 101
3, 8640, Note_on_c, 0, 69, 0
3, 8640, Note_on_c, 0, 73, 101
3, 9360, Note_on_c, 0, 73, 0
3, 9360, Note_on_c, 0, 69, 101
3, 9600, Note_on_c, 0, 69, 0
3, 9600, Note_on_c, 0, 62, 101
3, 9600, Note_on_c, 0, 65, 101
3, 9600, Note_on_c, 0, 68, 101
3, 10320, Note_on_c, 0, 68, 0
3, 10320, Note_on_c, 0, 65, 0
3, 10320, Note_on_c, 0, 62, 0
3, 10320, Note_on_c, 0, 69, 101
3, 10440, Note_on_c, 0, 69, 0
3, 10440, Note_on_c, 0, 71, 101
3, 10560, Note_on_c, 0, 71, 0
3, 10560, Note_on_c, 0, 61, 101
3, 10560, Note_on_c, 0, 66, 101
3, 10560, Note_on_c, 0, 69, 101
3, 11520, Note_on_c, 0, 69, 0
3, 11520, Note_on_c, 0, 66, 0
3, 11520, Note_on_c, 0, 61, 0
3, 15360, Note_on_c, 0, 61, 88
3, 16080, Note_on_c, 0, 61, 0
3, 16080, Note_on_c, 0, 66, 88
3, 16320, Note_on_c, 0, 66, 0
3, 16320, Note_on_c, 0, 69, 88
3, 17040, Note_on_c, 0, 69, 0
3, 17040, Note_on_c, 0, 66, 88
3, 17280, Note_on_c, 0, 66, 0
3, 17280, Note_on_c, 0, 65, 88
3, 18000, Note_on_c, 0, 65, 0
3, 18000, Note_on_c, 0, 66, 88
3, 18120, Note_on_c, 0, 66, 0
3, 18120, Note_on_c, 0, 68, 88
3, 18240, Note_on_c, 0, 68, 0
3, 18240, Note_on_c, 0, 66, 88
3, 19200, Note_on_c, 0, 66, 0
3, 19200, Note_on_c, 0, 71, 75
3, 19920, Note_on_c, 0, 71, 0
3, 19920, Note_on_c, 0, 73, 75
3, 20040, Note_on_c, 0, 73, 0
3, 20040, Note_on_c, 0, 74, 75
3, 20160, Note_on_c, 0, 74, 0
3, 20160, Note_on_c, 0, 69, 75
3, 21120, Note_on_c, 0, 69, 0
3, 23040, Note_on_c, 0, 61, 75
3, 23400, Note_on_c, 0, 61, 0
3, 23400, Note_on_c, 0, 66, 75
3, 23520, Note_on_c, 0, 66, 0
3, 23520, Note_on_c, 0, 69, 75
3, 23640, Note_on_c, 0, 69, 0
3, 23640, Note_on_c, 0, 73, 75
3, 23760, Note_on_c, 0, 73, 0
3, 23760, Note_on_c, 0, 78, 88
3, 23880, Note_on_c, 0, 78, 0
3, 23880, Note_on_c, 0, 81, 88
3, 24000, Note_on_c, 0, 81, 0
3, 24000, Note_on_c, 0, 85, 88
3, 24720, Note_on_c, 0, 85, 0
3, 24720, Note_on_c, 0, 81, 88
3, 24960, Note_on_c, 0, 81, 0
3, 24960, Note_on_c, 0, 74, 88
3, 24960, Note_on_c, 0, 77, 88
3, 24960, Note_on_c, 0, 80, 88
3, 25680, Note_on_c, 0, 80, 0
3, 25680, Note_on_c, 0, 77, 0
3, 25680, Note_on_c, 0, 74, 0
3, 25680, Note_on_c, 0, 81, 88
3, 25800, Note_on_c, 0, 81, 0
3, 25800, Note_on_c, 0, 83, 88
3, 25920, Note_on_c, 0, 83, 0
3, 25920, Note_on_c, 0, 73, 88
3, 25920, Note_on_c, 0, 78, 88
3, 25920, Note_on_c, 0, 81, 88
3, 26880, Note_on_c, 0, 81, 0
3, 26880, Note_on_c, 0, 78, 0
3, 26880, Note_on_c, 0, 73, 0
3, 26880, Note_on_c, 0, 86, 62
3, 26903, Note_on_c, 0, 86, 0
3, 27120, Note_on_c, 0, 90, 62
3, 27143, Note_on_c, 0, 90, 0
3, 27360, Note_on_c, 0, 85, 62
3, 27383, Note_on_c, 0, 85, 0
3, 27600, Note_on_c, 0, 88, 62
3, 27623, Note_on_c, 0, 88, 0
3, 27840, Note_on_c, 0, 83, 62
3, 27863, Note_on_c, 0, 83, 0
3, 28080, Note_on_c, 0, 86, 62
3, 28103, Note_on_c, 0, 86, 0
3, 28320, Note_on_c, 0, 81, 62
3, 28343, Note_on_c, 0, 81, 0
3, 28560, Note_on_c, 0, 85, 62
3, 28583, Note_on_c, 0, 85, 0
3, 28800, Note_on_c, 0, 83, 62
3, 28823, Note_on_c, 0, 83, 0
3, 29040, Note_on_c, 0, 81, 62
3, 29063, Note_on_c, 0, 81, 0
3, 29280, Note_on_c, 0, 80, 62
3, 29303, Note_on_c, 0, 80, 0
3, 29520, Note_on_c, 0, 85, 62
3, 29543, Note_on_c, 0, 85, 0
3, 29760, Note_on_c, 0, 78, 62
3, 30150, Note_on_c, 0, 78, 88
3, 30180, Note_on_c, 0, 81, 88
3, 30210, Note_on_c, 0, 85, 88
3, 30240, Note_on_c, 0, 78, 0
3, 30240, Note_on_c, 0, 90, 88
3, 30263, Note_on_c, 0, 90, 0
3, 30263, Note_on_c, 0, 85, 0
3, 30263, Note_on_c, 0, 81, 0
3, 30263, Note_on_c, 0, 78, 0
3, 30720, Note_on_c, 0, 73, 88
3, 30720, Note_on_c, 0, 76, 88
3, 30767, Note_on_c, 0, 76, 0
3, 30767, Note_on_c, 0, 73, 0
3, 31200, Note_on_c, 0, 73, 88
3, 31200, Note_on_c, 0, 76, 88
3, 31247, Note_on_c, 0, 76, 0
3, 31247, Note_on_c, 0, 73, 0
3, 31680, Note_on_c, 0, 74, 114
3, 31680, Note_on_c, 0, 78, 114
3, 32400, Note_on_c, 0, 78, 0
3, 32400, Note_on_c, 0, 74, 0
3, 32400, Note_on_c, 0, 73, 88
3, 32400, Note_on_c, 0, 76, 88
3, 32640, Note_on_c, 0, 76, 0
3, 32640, Note_on_c, 0, 73, 0
3, 32880, Note_on_c, 0, 71, 88
3, 32880, Note_on_c, 0, 74, 88
3, 33360, Note_on_c, 0, 74, 0
3, 33360, Note_on_c, 0, 71, 0
3, 33360, Note_on_c, 0, 70, 88
3, 33480, Note_on_c, 0, 70, 0
3, 33480, Note_on_c, 0, 71, 88
3, 33600, Note_on_c, 0, 71, 0
3, 33600, Note_on_c, 0, 73, 88
3, 33720, Note_on_c, 0, 73, 0
3, 33720, Note_on_c, 0, 71, 88
3, 33840, Note_on_c, 0, 71, 0
3, 33840, Note_on_c, 0, 70, 88
3, 33960, Note_on_c, 0, 70, 0
3, 33960, Note_on_c, 0, 73, 88
3, 34080, Note_on_c, 0, 73, 0
3, 34080, Note_on_c, 0, 71, 88
3, 34320, Note_on_c, 0, 71, 0
3, 34560, Note_on_c, 0, 71, 88
3, 34560, Note_on_c, 0, 74, 88
3, 34607, Note_on_c, 0, 74, 0
3, 34607, Note_on_c, 0, 71, 0
3, 35040, Note_on_c, 0, 71, 88
3, 35040, Note_on_c, 0, 74, 88
3, 35087, Note_on_c, 0, 74, 0
3, 35087, Note_on_c, 0, 71, 0
3, 35520, Note_on_c, 0, 73, 114
3, 35520, Note_on_c, 0, 76, 114
3, 36240, Note_on_c, 0, 76, 0
3, 36240, Note_on_c, 0, 73, 0
3, 36240, Note_on_c, 0, 71, 88
3, 36240, Note_on_c, 0, 74, 88
3, 36480, Note_on_c, 0, 74, 0
3, 36480, Note_on_c, 0, 71, 0
3, 36720, Note_on_c, 0, 69, 88
3, 36720, Note_on_c, 0, 73, 88
3, 37200, Note_on_c, 0, 73, 0
3, 37200, Note_on_c, 0, 69, 0
3, 37200, Note_on_c, 0, 68, 88
3, 37320, Note_on_c, 0, 68, 0
3, 37320, Note_on_c, 0, 69, 88
3, 37440, Note_on_c, 0, 69, 0
3, 37440, Note_on_c, 0, 71, 88
3, 37560, Note_on_c, 0, 71, 0
3, 37560, Note_on_c, 0, 69, 88
3, 37680, Note_on_c, 0, 69, 0
3, 37680, Note_on_c, 0, 68, 88
3, 37800, Note_on_c, 0, 68, 0
3, 37800, Note_on_c, 0, 71, 88
3, 37920, Note_on_c, 0, 71, 0
3, 37920, Note_on_c, 0, 69, 88
3, 38160, Note_on_c, 0, 69, 0
3, 38400, Note_on_c, 0, 71, 49
3, 38880, Note_on_c, 0, 71, 0
3, 38880, Note_on_c, 0, 71, 49
3, 39360, Note_on_c, 0, 71, 0
3, 39360, Note_on_c, 0, 74, 49
3, 39383, Note_on_c, 0, 74, 0
3, 39600, Note_on_c, 0, 73, 49
3, 40080, Note_on_c, 0, 73, 0
3, 40080, Note_on_c, 0, 71, 49
3, 40560, Note_on_c, 0, 71, 0
3, 40560, Note_on_c, 0, 69, 49
3, 41040, Note_on_c, 0, 69, 0
3, 41040, Control_c, 0, 64, 127
3, 41040, Note_on_c, 0, 68, 49
3, 41160, Note_on_c, 0, 68, 0
3, 41160, Note_on_c, 0, 69, 49
3, 41280, Note_on_c, 0, 69, 0
3, 41280, Note_on_c, 0, 71, 49
3, 41400, Note_on_c, 0, 71, 0
3, 41400, Note_on_c, 0, 69, 49
3, 41520, Note_on_c, 0, 69, 0
3, 41520, Note_on_c, 0, 68, 49
3, 41640, Note_on_c, 0, 68, 0
3, 41640, Note_on_c, 0, 71, 49
3, 41760, Note_on_c, 0, 71, 0
3, 41760, Control_c, 0, 64, 0
3, 41760, Note_on_c, 0, 69, 49
3, 42000, Note_on_c, 0, 69, 0
3, 42150, Note_on_c, 0, 73, 49
3, 42180, Note_on_c, 0, 77, 49
3, 42210, Note_on_c, 0, 80, 49
3, 42240, Note_on_c, 0, 85, 88
3, 42263, Note_on_c, 0, 85, 0
3, 42263, Note_on_c, 0, 73, 0
3, 42263, Note_on_c, 0, 77, 0
3, 42263, Note_on_c, 0, 80, 0
3, 43080, Note_on_c, 0, 73, 88
3, 43095, Note_on_c, 0, 73, 0
3, 43200, Note_on_c, 0, 75, 88
3, 43223, Note_on_c, 0, 75, 0
3, 43680, Note_on_c, 0, 77, 88
3, 43703, Note_on_c, 0, 77, 0
3, 44100, Note_on_c, 0, 80, 88
3, 44160, Note_on_c, 0, 80, 0
3, 44160, Note_on_c, 0, 78, 88
3, 44183, Note_on_c, 0, 78, 0
3, 44400, Note_on_c, 0, 78, 114
3, 44880, Note_on_c, 0, 78, 0
3, 44880, Note_on_c, 0, 77, 88
3, 45000, Note_on_c, 0, 77, 0
3, 45000, Note_on_c, 0, 78, 88
3, 45120, Note_on_c, 0, 78, 0
3, 45120, Control_c, 0, 64, 127
3, 45120, Note_on_c, 0, 80, 88
3, 45240, Note_on_c, 0, 80, 0
3, 45240, Note_on_c, 0, 78, 88
3, 45360, Note_on_c, 0, 78, 0
3, 45360, Note_on_c, 0, 77, 88
3, 45440, Note_on_c, 0, 77, 0
3, 45440, Note_on_c, 0, 78, 88
3, 45519, Note_on_c, 0, 78, 0
3, 45519, Note_on_c, 0, 80, 88
3, 45600, Note_on_c, 0, 80, 0
3, 45600, Control_c, 0, 64, 0
3, 45600, Note_on_c, 0, 78, 88
3, 45623, Note_on_c, 0, 78, 0
3, 46080, Note_on_c, 0, 73, 88
3, 46080, Note_on_c, 0, 76, 88
3, 46127, Note_on_c, 0, 76, 0
3, 46127, Note_on_c, 0, 73, 0
3, 46560, Note_on_c, 0, 73, 88
3, 46560, Note_on_c, 0, 76, 88
3, 46607, Note_on_c, 0, 76, 0
3, 46607, Note_on_c, 0, 73, 0
3, 47040, Note_on_c, 0, 74, 114
3, 47040, Note_on_c, 0, 78, 114
3, 47760, Note_on_c, 0, 78, 0
3, 47760, Note_on_c, 0, 74, 0
3, 47760, Note_on_c, 0, 73, 88
3, 47760, Note_on_c, 0, 76, 88
3, 48000, Note_on_c, 0, 76, 0
3, 48000, Note_on_c, 0, 73, 0
3, 48240, Note_on_c, 0, 71, 88
3, 48240, Note_on_c, 0, 74, 88
3, 48720, Note_on_c, 0, 74, 0
3, 48720, Note_on_c, 0, 71, 0
3, 48720, Note_on_c, 0, 70, 88
3, 48840, Note_on_c, 0, 70, 0
3, 48840, Note_on_c, 0, 71, 88
3, 48960, Note_on_c, 0, 71, 0
3, 48960, Note_on_c, 0, 73, 88
3, 49080, Note_on_c, 0, 73, 0
3, 49080, Note_on_c, 0, 71, 88
3, 49200, Note_on_c, 0, 71, 0
3, 49200, Note_on_c, 0, 70, 88
3, 49320, Note_on_c, 0, 70, 0
3, 49320, Note_on_c, 0, 73, 88
3, 49440, Note_on_c, 0, 73, 0
3, 49440, Note_on_c, 0, 71, 88
3, 49680, Note_on_c, 0, 71, 0
3, 49920, Note_on_c, 0, 71, 88
3, 49920, Note_on_c, 0, 74, 88
3, 49967, Note_on_c, 0, 74, 0
3, 49967, Note_on_c, 0, 71, 0
3, 50400, Note_on_c, 0, 71, 88
3, 50400, Note_on_c, 0, 74, 88
3, 50447, Note_on_c, 0, 74, 0
3, 50447, Note_on_c, 0, 71, 0
3, 50880, Note_on_c, 0, 73, 114
3, 50880, Note_on_c, 0, 76, 114
3, 51600, Note_on_c, 0, 76, 0
3, 51600, Note_on_c, 0, 73, 0
3, 51600, Note_on_c, 0, 71, 88
3, 51600, Note_on_c, 0, 74, 88
3, 51840, Note_on_c, 0, 74, 0
3, 51840, Note_on_c, 0, 71, 0
3, 52080, Note_on_c, 0, 69, 88
3, 52080, Note_on_c, 0, 73, 88
3, 52560, Note_on_c, 0, 73, 0
3, 52560, Note_on_c, 0, 69, 0
3, 52560, Note_on_c, 0, 68, 88
3, 52680, Note_on_c, 0, 68, 0
3, 52680, Note_on_c, 0, 69, 88
3, 52800, Note_on_c, 0, 69, 0
3, 52800, Note_on_c, 0, 71, 88
3, 52920, Note_on_c, 0, 71, 0
3, 52920, Note_on_c, 0, 69, 88
3, 53040, Note_on_c, 0, 69, 0
3, 53040, Note_on_c, 0, 68, 88
3, 53160, Note_on_c, 0, 68, 0
3, 53160, Note_on_c, 0, 71, 88
3, 53280, Note_on_c, 0, 71, 0
3, 53280, Note_on_c, 0, 69, 88
3, 53520, Note_on_c, 0, 69, 0
3, 53760, Note_on_c, 0, 71, 49
3, 54240, Note_on_c, 0, 71, 0
3, 54240, Note_on_c, 0, 71, 49
3, 54720, Note_on_c, 0, 71, 0
3, 54720, Note_on_c, 0, 74, 49
3, 54743, Note_on_c, 0, 74, 0
3, 54960, Note_on_c, 0, 73, 49
3, 55440, Note_on_c, 0, 73, 0
3, 55440, Note_on_c, 0, 71, 49
3, 55920, Note_on_c, 0, 71, 0
3, 55920, Note_on_c, 0, 69, 49
3, 56400, Note_on_c, 0, 69, 0
3, 56400, Control_c, 0, 64, 127
3, 56400, Note_on_c, 0, 68, 49
3, 56520, Note_on_c, 0, 68, 0
3, 56520, Note_on_c, 0, 69, 49
3, 56640, Note_on_c, 0, 69, 0
3, 56640, Note_on_c, 0, 71, 49
3, 56760, Note_on_c, 0, 71, 0
3, 56760, Note_on_c, 0, 69, 49
3, 56880, Note_on_c, 0, 69, 0
3, 56880, Note_on_c, 0, 68, 49
3, 57000, Note_on_c, 0, 68, 0
3, 57000, Note_on_c, 0, 71, 49
3, 57120, Note_on_c, 0, 71, 0
3, 57120, Control_c, 0, 64, 0
3, 57120, Note_on_c, 0, 69, 49
3, 57360, Note_on_c, 0, 69, 0
3, 57510, Note_on_c, 0, 73, 49
3, 57540, Note_on_c, 0, 77, 49
3, 57570, Note_on_c, 0, 80, 49
3, 57600, Note_on_c, 0, 85, 88
3, 57623, Note_on_c, 0, 85, 0
3, 57623, Note_on_c, 0, 73, 0
3, 57623, Note_on_c, 0, 77, 0
3, 57623, Note_on_c, 0, 80, 0
3, 58440, Note_on_c, 0, 73, 88
3, 58455, Note_on_c, 0, 73, 0
3, 58560, Note_on_c, 0, 75, 88
3, 58583, Note_on_c, 0, 75, 0
3, 59040, Note_on_c, 0, 77, 88
3, 59063, Note_on_c, 0, 77, 0
3, 59460, Note_on_c, 0, 80, 88
3, 59520, Note_on_c, 0, 80, 0
3, 59520, Note_on_c, 0, 78, 88
3, 59543, Note_on_c, 0, 78, 0
3, 59760, Note_on_c, 0, 78, 114
3, 60240, Note_on_c, 0, 78, 0
3, 60240, Note_on_c, 0, 77, 88
3, 60360, Note_on_c, 0, 77, 0
3, 60360, Note_on_c, 0, 78, 88
3, 60480, Note_on_c, 0, 78, 0
3, 60480, Control_c, 0, 64, 127
3, 60480, Note_on_c, 0, 80, 88
3, 60600, Note_on_c, 0, 80, 0
3, 60600, Note_on_c, 0, 78, 88
3, 60720, Note_on_c, 0, 78, 0
3, 60720, Note_on_c, 0, 77, 88
3, 60800, Note_on_c, 0, 77, 0
3, 60800, Note_on_c, 0, 78, 88
3, 60879, Note_on_c, 0, 78, 0
3, 60879, Note_on_c, 0, 80, 88
3, 60960, Note_on_c, 0, 80, 0
3, 60960, Control_c, 0, 64, 0
3, 60960, Note_on_c, 0, 78, 88
3, 60983, Note_on_c, 0, 78, 0
3, 61680, Note_on_c, 0, 58, 88
3, 61680, Note_on_c, 0, 61, 88
3, 61920, Note_on_c, 0, 61, 0
3, 61920, Note_on_c, 0, 58, 0
3, 61920, Note_on_c, 0, 58, 88
3, 61920, Note_on_c, 0, 61, 88
3, 61943, Note_on_c, 0, 61, 0
3, 61943, Note_on_c, 0, 58, 0
3, 62160, Note_on_c, 0, 58, 88
3, 62160, Note_on_c, 0, 61, 88
3, 62183, Note_on_c, 0, 61, 0
3, 62183, Note_on_c, 0, 58, 0
3, 62400, Note_on_c, 0, 58, 88
3, 62400, Note_on_c, 0, 61, 88
3, 62640, Note_on_c, 0, 61, 0
3, 62640, Note_on_c, 0, 58, 0
3, 62640, Note_on_c, 0, 56, 88
3, 62640, Note_on_c, 0, 59, 88
3, 62880, Note_on_c, 0, 59, 0
3, 62880, Note_on_c, 0, 56, 0
3, 62880, Note_on_c, 0, 54, 88
3, 62880, Note_on_c, 0, 58, 88
3, 63120, Note_on_c, 0, 58, 0
3, 63120, Note_on_c, 0, 54, 0
3, 63120, Note_on_c, 0, 56, 88
3, 63120, Note_on_c, 0, 59, 88
3, 63360, Note_on_c, 0, 59, 0
3, 63360, Note_on_c, 0, 56, 0
3, 63510, Note_on_c, 0, 54, 114
3, 63540, Note_on_c, 0, 58, 114
3, 63570, Note_on_c, 0, 61, 114
3, 63600, Note_on_c, 0, 66, 114
3, 63840, Note_on_c, 0, 66, 0
3, 63840, Note_on_c, 0, 54, 0
3, 63840, Note_on_c, 0, 58, 0
3, 63840, Note_on_c, 0, 61, 0
3, 63990, Note_on_c, 0, 54, 114
3, 64020, Note_on_c, 0, 58, 114
3, 64050, Note_on_c, 0, 61, 114
3, 64080, Note_on_c, 0, 66, 114
3, 64320, Note_on_c, 0, 66, 0
3, 64320, Note_on_c, 0, 54, 0
3, 64320, Note_on_c, 0, 58, 0
3, 64320, Note_on_c, 0, 61, 0
3, 64560, Note_on_c, 0, 58, 88
3, 64560, Note_on_c, 0, 61, 88
3, 64800, Note_on_c, 0, 61, 0
3, 64800, Note_on_c, 0, 58, 0
3, 64800, Note_on_c, 0, 58, 88
3, 64800, Note_on_c, 0, 61, 88
3, 64823, Note_on_c, 0, 61, 0
3, 64823, Note_on_c, 0, 58, 0
3, 65040, Note_on_c, 0, 58, 88
3, 65040, Note_on_c, 0, 61, 88
3, 65063, Note_on_c, 0, 61, 0
3, 65063, Note_on_c, 0, 58, 0
3, 65280, Note_on_c, 0, 58, 88
3, 65280, Note_on_c, 0, 61, 88
3, 65520, Note_on_c, 0, 61, 0
3, 65520, Note_on_c, 0, 58, 0
3, 65520, Note_on_c, 0, 56, 88
3, 65520, Note_on_c, 0, 59, 88
3, 65760, Note_on_c, 0, 59, 0
3, 65760, Note_on_c, 0, 56, 0
3, 65760, Note_on_c, 0, 54, 88
3, 65760, Note_on_c, 0, 58, 88
3, 66000, Note_on_c, 0, 58, 0
3, 66000, Note_on_c, 0, 54, 0
3, 66000, Note_on_c, 0, 53, 88
3, 66000, Note_on_c, 0, 56, 88
3, 66240, Note_on_c, 0, 56, 0
3, 66240, Note_on_c, 0, 53, 0
3, 66400, Note_on_c, 0, 54, 114
3, 66440, Note_on_c, 0, 58, 114
3, 66480, Note_on_c, 0, 61, 114
3, 66720, Note_on_c, 0, 61, 0
3, 66720, Note_on_c, 0, 58, 0
3, 66720, Note_on_c, 0, 54, 0
3, 66880, Note_on_c, 0, 54, 114
3, 66920, Note_on_c, 0, 58, 114
3, 66960, Note_on_c, 0, 61, 114
3, 67200, Note_on_c, 0, 61, 0
3, 67200, Note_on_c, 0, 58, 0
3, 67200, Note_on_c, 0, 54, 0
3, 67440, Note_on_c, 0, 70, 88
3, 67440, Note_on_c, 0, 73, 88
3, 67680, Note_on_c, 0, 73, 0
3, 67680, Note_on_c, 0, 70, 0
3, 67680, Note_on_c, 0, 70, 88
3, 67680, Note_on_c, 0, 73, 88
3, 67920, Note_on_c, 0, 73, 0
3, 67920, Note_on_c, 0, 70, 0
3, 67920, Note_on_c, 0, 70, 88
3, 67920, Note_on_c, 0, 73, 88
3, 68160, Note_on_c, 0, 73, 0
3, 68160, Note_on_c, 0, 70, 0
3, 68160, Note_on_c, 0, 70, 88
3, 68160, Note_on_c, 0, 73, 88
3, 68400, Note_on_c, 0, 73, 0
3, 68400, Note_on_c, 0, 70, 0
3, 68400, Note_on_c, 0, 68, 88
3, 68400, Note_on_c, 0, 71, 88
3, 68640, Note_on_c, 0, 71, 0
3, 68640, Note_on_c, 0, 68, 0
3, 68640, Note_on_c, 0, 66, 88
3, 68640, Note_on_c, 0, 70, 88
3, 68880, Note_on_c, 0, 70, 0
3, 68880, Note_on_c, 0, 66, 0
3, 68880, Note_on_c, 0, 68, 88
3, 68880, Note_on_c, 0, 71, 88
3, 69120, Note_on_c, 0, 71, 0
3, 69120, Note_on_c, 0, 68, 0
3, 69270, Note_on_c, 0, 61, 114
3, 69300, Note_on_c, 0, 66, 114
3, 69330, Note_on_c, 0, 70, 114
3, 69360, Note_on_c, 0, 73, 114
3, 69600, Note_on_c, 0, 73, 0
3, 69600, Note_on_c, 0, 61, 0
3, 69600, Note_on_c, 0, 66, 0
3, 69600, Note_on_c, 0, 70, 0
3, 69750, Note_on_c, 0, 61, 114
3, 69780, Note_on_c, 0, 66, 114
3, 69810, Note_on_c, 0, 70, 114
3, 69840, Note_on_c, 0, 73, 114
3, 70080, Note_on_c, 0, 73, 0
3, 70080, Note_on_c, 0, 61, 0
3, 70080, Note_on_c, 0, 66, 0
3, 70080, Note_on_c, 0, 70, 0
3, 70320, Note_on_c, 0, 70, 88
3, 70320, Note_on_c, 0, 73, 88
3, 70560, Note_on_c, 0, 73, 0
3, 70560, Note_on_c, 0, 70, 0
3, 70560, Note_on_c, 0, 70, 88
3, 70560, Note_on_c, 0, 73, 88
3, 70800, Note_on_c, 0, 73, 0
3, 70800, Note_on_c, 0, 70, 0
3, 70800, Note_on_c, 0, 70, 88
3, 70800, Note_on_c, 0, 73, 88
3, 71040, Note_on_c, 0, 73, 0
3, 71040, Note_on_c, 0, 70, 0
3, 71040, Note_on_c, 0, 70, 88
3, 71040, Note_on_c, 0, 73, 88
3, 71280, Note_on_c, 0, 73, 0
3, 71280, Note_on_c, 0, 70, 0
3, 71280, Note_on_c, 0, 68, 88
3, 71280, Note_on_c, 0, 71, 88
3, 71520, Note_on_c, 0, 71, 0
3, 71520, Note_on_c, 0, 68, 0
3, 71520, Note_on_c, 0, 66, 88
3, 71520, Note_on_c, 0, 70, 88
3, 71760, Note_on_c, 0, 70, 0
3, 71760, Note_on_c, 0, 66, 0
3, 71760, Note_on_c, 0, 65, 88
3, 71760, Note_on_c, 0, 68, 88
3, 72000, Note_on_c, 0, 68, 0
3, 72000, Note_on_c, 0, 65, 0
3, 72150, Note_on_c, 0, 58, 114
3, 72180, Note_on_c, 0, 61, 114
3, 72210, Note_on_c, 0, 66, 114
3, 72240, Note_on_c, 0, 70, 114
3, 72480, Note_on_c, 0, 70, 0
3, 72480, Note_on_c, 0, 58, 0
3, 72480, Note_on_c, 0, 61, 0
3, 72480, Note_on_c, 0, 66, 0
3, 72630, Note_on_c, 0, 58, 114
3, 72660, Note_on_c, 0, 61, 114
3, 72690, Note_on_c, 0, 66, 114
3, 72720, Note_on_c, 0, 70, 114
3, 72960, Note_on_c, 0, 70, 0
3, 72960, Note_on_c, 0, 58, 0
3, 72960, Note_on_c, 0, 61, 0
3, 72960, Note_on_c, 0, 66, 0
3, 73590, Note_on_c, 0, 54, 62
3, 73620, Note_on_c, 0, 58, 62
3, 73650, Note_on_c, 0, 61, 62
3, 73680, Note_on_c, 0, 66, 62
3, 73920, Note_on_c, 0, 66, 0
3, 73920, Note_on_c, 0, 54, 0
3, 73920, Note_on_c, 0, 58, 0
3, 73920, Note_on_c, 0, 61, 0
3, 74070, Note_on_c, 0, 54, 62
3, 74100, Note_on_c, 0, 59, 62
3, 74130, Note_on_c, 0, 63, 62
3, 74160, Note_on_c, 0, 66, 62
3, 74400, Note_on_c, 0, 66, 0
3, 74400, Note_on_c, 0, 54, 0
3, 74400, Note_on_c, 0, 59, 0
3, 74400, Note_on_c, 0, 63, 0
3, 74550, Note_on_c, 0, 54, 62
3, 74580, Note_on_c, 0, 58, 62
3, 74610, Note_on_c, 0, 61, 62
3, 74640, Note_on_c, 0, 66, 62
3, 74880, Note_on_c, 0, 66, 0
3, 74880, Note_on_c, 0, 54, 0
3, 74880, Note_on_c, 0, 58, 0
3, 74880, Note_on_c, 0, 61, 0
3, 75030, Note_on_c, 0, 54, 62
3, 75060, Note_on_c, 0, 59, 62
3, 75090, Note_on_c, 0, 61, 62
3, 75120, Note_on_c, 0, 65, 62
3, 75360, Note_on_c, 0, 65, 0
3, 75360, Note_on_c, 0, 54, 0
3, 75360, Note_on_c, 0, 59, 0
3, 75360, Note_on_c, 0, 61, 0
3, 75360, Note_on_c, 0, 66, 62
3, 75360, Note_on_c, 0, 70, 62
3, 75383, Note_on_c, 0, 70, 0
3, 75383, Note_on_c, 0, 66, 0
3, 75600, Note_on_c, 0, 66, 62
3, 75600, Note_on_c, 0, 70, 62
3, 75623, Note_on_c, 0, 70, 0
3, 75623, Note_on_c, 0, 66, 0
3, 75840, Note_on_c, 0, 68, 62
3, 75840, Note_on_c, 0, 71, 62
3, 75863, Note_on_c, 0, 71, 0
3, 75863, Note_on_c, 0, 68, 0
3, 76080, Note_on_c, 0, 68, 62
3, 76080, Note_on_c, 0, 71, 62
3, 76103, Note_on_c, 0, 71, 0
3, 76103, Note_on_c, 0, 68, 0
3, 76320, Note_on_c, 0, 70, 62
3, 76320, Note_on_c, 0, 73, 62
3, 76560, Note_on_c, 0, 73, 0
3, 76560, Note_on_c, 0, 70, 0
3, 76560, Note_on_c, 0, 70, 62
3, 76560, Note_on_c, 0, 78, 62
3, 76800, Note_on_c, 0, 78, 0
3, 76800, Note_on_c, 0, 70, 0
3, 76800, Note_on_c, 0, 70, 62
3, 76800, Note_on_c, 0, 73, 62
3, 77280, Note_on_c, 0, 73, 0
3, 77280, Note_on_c, 0, 70, 0
3, 77430, Note_on_c, 0, 54, 62
3, 77460, Note_on_c, 0, 58, 62
3, 77490, Note_on_c, 0, 61, 62
3, 77520, Note_on_c, 0, 66, 62
3, 77760, Note_on_c, 0, 66, 0
3, 77760, Note_on_c, 0, 54, 0
3, 77760, Note_on_c, 0, 58, 0
3, 77760, Note_on_c, 0, 61, 0
3, 77910, Note_on_c, 0, 54, 62
3, 77940, Note_on_c, 0, 59, 62
3, 77970, Note_on_c, 0, 63, 62
3, 78000, Note_on_c, 0, 66, 62
3, 78240, Note_on_c, 0, 66, 0
3, 78240, Note_on_c, 0, 54, 0
3, 78240, Note_on_c, 0, 59, 0
3, 78240, Note_on_c, 0, 63, 0
3, 78390, Note_on_c, 0, 54, 62
3, 78420, Note_on_c, 0, 59, 62
3, 78450, Note_on_c, 0, 61, 62
3, 78480, Note_on_c, 0, 65, 62
3, 78720, Note_on_c, 0, 65, 0
3, 78720, Note_on_c, 0, 54, 0
3, 78720, Note_on_c, 0, 59, 0
3, 78720, Note_on_c, 0, 61, 0
3, 78870, Note_on_c, 0, 54, 62
3, 78900, Note_on_c, 0, 58, 62
3, 78930, Note_on_c, 0, 61, 62
3, 78960, Note_on_c, 0, 66, 62
3, 79200, Note_on_c, 0, 66, 0
3, 79200, Note_on_c, 0, 54, 0
3, 79200, Note_on_c, 0, 58, 0
3, 79200, Note_on_c, 0, 61, 0
3, 79200, Note_on_c, 0, 70, 62
3, 79200, Note_on_c, 0, 73, 62
3, 79223, Note_on_c, 0, 73, 0
3, 79223, Note_on_c, 0, 70, 0
3, 79440, Note_on_c, 0, 68, 62
3, 79440, Note_on_c, 0, 71, 62
3, 79463, Note_on_c, 0, 71, 0
3, 79463, Note_on_c, 0, 68, 0
3, 79680, Note_on_c, 0, 66, 62
3, 79680, Note_on_c, 0, 70, 62
3, 79703, Note_on_c, 0, 70, 0
3, 79703, Note_on_c, 0, 66, 0
3, 79920, Note_on_c, 0, 65, 62
3, 79920, Note_on_c, 0, 68, 62
3, 79943, Note_on_c, 0, 68, 0
3, 79943, Note_on_c, 0, 65, 0
3, 80160, Note_on_c, 0, 66, 62
3, 80320, Note_on_c, 0, 70, 62
3, 80360, Note_on_c, 0, 73, 62
3, 80400, Note_on_c, 0, 66, 0
3, 80400, Note_on_c, 0, 78, 62
3, 80640, Note_on_c, 0, 78, 0
3, 80640, Note_on_c, 0, 73, 0
3, 80640, Note_on_c, 0, 70, 0
3, 80640, Note_on_c, 0, 66, 62
3, 80880, Note_on_c, 0, 66, 0
3, 81270, Note_on_c, 0, 54, 62
3, 81300, Note_on_c, 0, 58, 62
3, 81330, Note_on_c, 0, 61, 62
3, 81360, Note_on_c, 0, 66, 62
3, 81600, Note_on_c, 0, 66, 0
3, 81600, Note_on_c, 0, 54, 0
3, 81600, Note_on_c, 0, 58, 0
3, 81600, Note_on_c, 0, 61, 0
3, 81750, Note_on_c, 0, 54, 62
3, 81780, Note_on_c, 0, 59, 62
3, 81810, Note_on_c, 0, 63, 62
3, 81840, Note_on_c, 0, 66, 62
3, 82080, Note_on_c, 0, 66, 0
3, 82080, Note_on_c, 0, 54, 0
3, 82080, Note_on_c, 0, 59, 0
3, 82080, Note_on_c, 0, 63, 0
3, 82230, Note_on_c, 0, 54, 62
3, 82260, Note_on_c, 0, 58, 62
3, 82290, Note_on_c, 0, 61, 62
3, 82320, Note_on_c, 0, 66, 62
3, 82560, Note_on_c, 0, 66, 0
3, 82560, Note_on_c, 0, 54, 0
3, 82560, Note_on_c, 0, 58, 0
3, 82560, Note_on_c, 0, 61, 0
3, 82710, Note_on_c, 0, 54, 62
3, 82740, Note_on_c, 0, 59, 62
3, 82770, Note_on_c, 0, 61, 62
3, 82800, Note_on_c, 0, 65, 62
3, 83040, Note_on_c, 0, 65, 0
3, 83040, Note_on_c, 0, 54, 0
3, 83040, Note_on_c, 0, 59, 0
3, 83040, Note_on_c, 0, 61, 0
3, 83040, Note_on_c, 0, 66, 62
3, 83040, Note_on_c, 0, 70, 62
3, 83063, Note_on_c, 0, 70, 0
3, 83063, Note_on_c, 0, 66, 0
3, 83280, Note_on_c, 0, 66, 62
3, 83280, Note_on_c, 0, 70, 62
3, 83303, Note_on_c, 0, 70, 0
3, 83303, Note_on_c, 0, 66, 0
3, 83520, Note_on_c, 0, 68, 62
3, 83520, Note_on_c, 0, 71, 62
3, 83543, Note_on_c, 0, 71, 0
3, 83543, Note_on_c, 0, 68, 0
3, 83760, Note_on_c, 0, 68, 62
3, 83760, Note_on_c, 0, 71, 62
3, 83783, Note_on_c, 0, 71, 0
3, 83783, Note_on_c, 0, 68, 0
3, 84000, Note_on_c, 0, 70, 62
3, 84000, Note_on_c, 0, 73, 62
3, 84240, Note_on_c, 0, 73, 0
3, 84240, Note_on_c, 0, 70, 0
3, 84240, Note_on_c, 0, 70, 62
3, 84240, Note_on_c, 0, 78, 62
3, 84263, Note_on_c, 0, 78, 0
3, 84263, Note_on_c, 0, 70, 0
3, 84480, Note_on_c, 0, 70, 62
3, 84480, Note_on_c, 0, 73, 62
3, 84960, Note_on_c, 0, 73, 0
3, 84960, Note_on_c, 0, 70, 0
3, 85110, Note_on_c, 0, 54, 62
3, 85140, Note_on_c, 0, 58, 62
3, 85170, Note_on_c, 0, 61, 62
3, 85200, Note_on_c, 0, 66, 62
3, 85440, Note_on_c, 0, 66, 0
3, 85440, Note_on_c, 0, 54, 0
3, 85440, Note_on_c, 0, 58, 0
3, 85440, Note_on_c, 0, 61, 0
3, 85590, Note_on_c, 0, 54, 62
3, 85620, Note_on_c, 0, 59, 62
3, 85650, Note_on_c, 0, 63, 62
3, 85680, Note_on_c, 0, 66, 62
3, 85920, Note_on_c, 0, 66, 0
3, 85920, Note_on_c, 0, 54, 0
3, 85920, Note_on_c, 0, 59, 0
3, 85920, Note_on_c, 0, 63, 0
3, 86070, Note_on_c, 0, 54, 62
3, 86100, Note_on_c, 0, 59, 62
3, 86130, Note_on_c, 0, 61, 62
3, 86160, Note_on_c, 0, 65, 62
3, 86400, Note_on_c, 0, 65, 0
3, 86400, Note_on_c, 0, 54, 0
3, 86400, Note_on_c, 0, 59, 0
3, 86400, Note_on_c, 0, 61, 0
3, 86550, Note_on_c, 0, 54, 62
3, 86580, Note_on_c, 0, 58, 62
3, 86610, Note_on_c, 0, 61, 62
3, 86640, Note_on_c, 0, 66, 62
3, 86880, Note_on_c, 0, 66, 0
3, 86880, Note_on_c, 0, 54, 0
3, 86880, Note_on_c, 0, 58, 0
3, 86880, Note_on_c, 0, 61, 0
3, 86880, Note_on_c, 0, 70, 62
3, 86880, Note_on_c, 0, 73, 62
3, 86903, Note_on_c, 0, 73, 0
3, 86903, Note_on_c, 0, 70, 0
3, 87120, Note_on_c, 0, 68, 62
3, 87120, Note_on_c, 0, 71, 62
3, 87143, Note_on_c, 0, 71, 0
3, 87143, Note_on_c, 0, 68, 0
3, 87360, Note_on_c, 0, 66, 62
3, 87360, Note_on_c, 0, 70, 62
3, 87383, Note_on_c, 0, 70, 0
3, 87383, Note_on_c, 0, 66, 0
3, 87600, Note_on_c, 0, 65, 62
3, 87600, Note_on_c, 0, 68, 62
3, 87623, Note_on_c, 0, 68, 0
3, 87623, Note_on_c, 0, 65, 0
3, 87840, Note_on_c, 0, 66, 62
3, 88080, Note_on_c, 0, 66, 0
3, 88080, Note_on_c, 0, 70, 62
3, 88080, Note_on_c, 0, 73, 62
3, 88080, Note_on_c, 0, 78, 62
3, 88103, Note_on_c, 0, 78, 0
3, 88103, Note_on_c, 0, 73, 0
3, 88103, Note_on_c, 0, 70, 0
3, 88320, Note_on_c, 0, 66, 62
3, 88343, Note_on_c, 0, 66, 0
3, 89760, Note_on_c, 0, 61, 88
3, 90480, Note_on_c, 0, 61, 0
3, 90480, Note_on_c, 0, 66, 88
3, 90720, Note_on_c, 0, 66, 0
3, 90720, Note_on_c, 0, 69, 88
3, 91440, Note_on_c, 0, 69, 0
3, 91440, Note_on_c, 0, 66, 88
3, 91680, Note_on_c, 0, 66, 0
3, 91680, Note_on_c, 0, 65, 88
3, 92400, Note_on_c, 0, 65, 0
3, 92400, Note_on_c, 0, 66, 88
3, 92520, Note_on_c, 0, 66, 0
3, 92520, Note_on_c, 0, 68, 88
3, 92640, Note_on_c, 0, 68, 0
3, 92640, Note_on_c, 0, 66, 88
3, 93600, Note_on_c, 0, 66, 0
3, 93600, Note_on_c, 0, 59, 75
3, 94320, Note_on_c, 0, 59, 0
3, 94320, Note_on_c, 0, 61, 75
3, 94440, Note_on_c, 0, 61, 0
3, 94440, Note_on_c, 0, 62, 75
3, 94560, Note_on_c, 0, 62, 0
3, 94560, Note_on_c, 0, 57, 75
3, 95520, Note_on_c, 0, 57, 0
3, 95520, Note_on_c, 0, 59, 114
3, 95640, Note_on_c, 0, 59, 0
3, 95640, Note_on_c, 0, 57, 88
3, 95760, Note_on_c, 0, 57, 0
3, 95760, Note_on_c, 0, 57, 114
3, 95880, Note_on_c, 0, 57, 0
3, 95880, Note_on_c, 0, 56, 88
3, 96000, Note_on_c, 0, 56, 0
3, 96000, Note_on_c, 0, 56, 114
3, 96360, Note_on_c, 0, 56, 0
3, 96360, Note_on_c, 0, 61, 88
3, 96480, Note_on_c, 0, 61, 0
3, 96480, Note_on_c, 0, 54, 88
3, 97440, Note_on_c, 0, 54, 0
3, 97440, Note_on_c, 0, 61, 88
3, 97800, Note_on_c, 0, 61, 0
3, 97800, Note_on_c, 0, 66, 101
3, 97920, Note_on_c, 0, 66, 0
3, 97920, Note_on_c, 0, 69, 101
3, 98040, Note_on_c, 0, 69, 0
3, 98040, Note_on_c, 0, 73, 101
3, 98160, Note_on_c, 0, 73, 0
3, 98160, Note_on_c, 0, 78, 101
3, 98280, Note_on_c, 0, 78, 0
3, 98280, Note_on_c, 0, 81, 101
3, 98400, Note_on_c, 0, 81, 0
3, 98400, Note_on_c, 0, 85, 101
3, 99120, Note_on_c, 0, 85, 0
3, 99120, Note_on_c, 0, 81, 101
3, 99360, Note_on_c, 0, 81, 0
3, 99360, Note_on_c, 0, 74, 101
3, 99360, Note_on_c, 0, 77, 101
3, 99360, Note_on_c, 0, 80, 101
3, 100080, Note_on_c, 0, 80, 0
3, 100080, Note_on_c, 0, 77, 0
3, 100080, Note_on_c, 0, 74, 0
3, 100080, Note_on_c, 0, 81, 101
3, 100200, Note_on_c, 0, 81, 0
3, 100200, Note_on_c, 0, 83, 101
3, 100320, Note_on_c, 0, 83, 0
3, 100320, Note_on_c, 0, 73, 101
3, 100320, Note_on_c, 0, 78, 101
3, 100320, Note_on_c, 0, 81, 101
3, 101280, Note_on_c, 0, 81, 0
3, 101280, Note_on_c, 0, 78, 0
3, 101280, Note_on_c, 0, 73, 0
3, 101280, Note_on_c, 0, 86, 101
3, 101303, Note_on_c, 0, 86, 0
3, 101520, Note_on_c, 0, 90, 101
3, 101543, Note_on_c, 0, 90, 0
3, 101760, Note_on_c, 0, 85, 101
3, 101783, Note_on_c, 0, 85, 0
3, 102000, Note_on_c, 0, 88, 101
3, 102023, Note_on_c, 0, 88, 0
3, 102240, Note_on_c, 0, 83, 101
3, 102263, Note_on_c, 0, 83, 0
3, 102480, Note_on_c, 0, 86, 101
3, 102503, Note_on_c, 0, 86, 0
3, 102720, Note_on_c, 0, 81, 101
3, 102743, Note_on_c, 0, 81, 0
3, 102960, Note_on_c, 0, 85, 101
3, 102983, Note_on_c, 0, 85, 0
3, 103200, Note_on_c, 0, 83, 101
3, 103223, Note_on_c, 0, 83, 0
3, 103440, Note_on_c, 0, 81, 101
3, 103463, Note_on_c, 0, 81, 0
3, 103680, Note_on_c, 0, 80, 101
3, 103703, Note_on_c, 0, 80, 0
3, 103920, Note_on_c, 0, 85, 101
3, 103943, Note_on_c, 0, 85, 0
3, 104160, Note_on_c, 0, 78, 101
3, 104550, Note_on_c, 0, 78, 127
3, 104580, Note_on_c, 0, 81, 127
3, 104610, Note_on_c, 0, 85, 127
3, 104640, Note_on_c, 0, 78, 0
3, 104640, Note_on_c, 0, 90, 114
3, 104663, Note_on_c, 0, 90, 0
3, 104663, Note_on_c, 0, 85, 0
3, 104663, Note_on_c, 0, 81, 0
3, 104663, Note_on_c, 0, 78, 0
3, 105120, Note_on_c, 0, 73, 88
3, 105120, Note_on_c, 0, 76, 88
3, 105167, Note_on_c, 0, 76, 0
3, 105167, Note_on_c, 0, 73, 0
3, 105600, Note_on_c, 0, 73, 88
3, 105600, Note_on_c, 0, 76, 88
3, 105647, Note_on_c, 0, 76, 0
3, 105647, Note_on_c, 0, 73, 0
3, 106080, Note_on_c, 0, 74, 114
3, 106080, Note_on_c, 0, 78, 114
3, 106800, Note_on_c, 0, 78, 0
3, 106800, Note_on_c, 0, 74, 0
3, 106800, Note_on_c, 0, 73, 88
3, 106800, Note_on_c, 0, 76, 88
3, 107040, Note_on_c, 0, 76, 0
3, 107040, Note_on_c, 0, 73, 0
3, 107280, Note_on_c, 0, 71, 88
3, 107280, Note_on_c, 0, 74, 88
3, 107760, Note_on_c, 0, 74, 0
3, 107760, Note_on_c, 0, 71, 0
3, 107760, Note_on_c, 0, 70, 88
3, 107880, Note_on_c, 0, 70, 0
3, 107880, Note_on_c, 0, 71, 88
3, 108000, Note_on_c, 0, 71, 0
3, 108000, Note_on_c, 0, 73, 88
3, 108120, Note_on_c, 0, 73, 0
3, 108120, Note_on_c, 0, 71, 88
3, 108240, Note_on_c, 0, 71, 0
3, 108240, Note_on_c, 0, 70, 88
3, 108360, Note_on_c, 0, 70, 0
3, 108360, Note_on_c, 0, 73, 88
3, 108480, Note_on_c, 0, 73, 0
3, 108480, Note_on_c, 0, 71, 88
3, 108720, Note_on_c, 0, 71, 0
3, 108960, Note_on_c, 0, 71, 88
3, 108960, Note_on_c, 0, 74, 88
3, 109007, Note_on_c, 0, 74, 0
3, 109007, Note_on_c, 0, 71, 0
3, 109440, Note_on_c, 0, 71, 88
3, 109440, Note_on_c, 0, 74, 88
3, 109487, Note_on_c, 0, 74, 0
3, 109487, Note_on_c, 0, 71, 0
3, 109920, Note_on_c, 0, 73, 114
3, 109920, Note_on_c, 0, 76, 114
3, 110640, Note_on_c, 0, 76, 0
3, 110640, Note_on_c, 0, 73, 0
3, 110640, Note_on_c, 0, 71, 88
3, 110640, Note_on_c, 0, 74, 88
3, 110880, Note_on_c, 0, 74, 0
3, 110880, Note_on_c, 0, 71, 0
3, 111120, Note_on_c, 0, 69, 88
3, 111120, Note_on_c, 0, 73, 88
3, 111600, Note_on_c, 0, 73, 0
3, 111600, Note_on_c, 0, 69, 0
3, 111600, Note_on_c, 0, 68, 88
3, 111720, Note_on_c, 0, 68, 0
3, 111720, Note_on_c, 0, 69, 88
3, 111840, Note_on_c, 0, 69, 0
3, 111840, Note_on_c, 0, 71, 88
3, 111960, Note_on_c, 0, 71, 0
3, 111960, Note_on_c, 0, 69, 88
3, 112080, Note_on_c, 0, 69, 0
3, 112080, Note_on_c, 0, 68, 88
3, 112200, Note_on_c, 0, 68, 0
3, 112200, Note_on_c, 0, 71, 88
3, 112320, Note_on_c, 0, 71, 0
3, 112320, Note_on_c, 0, 69, 88
3, 112560, Note_on_c, 0, 69, 0
3, 112800, Note_on_c, 0, 71, 49
3, 113280, Note_on_c, 0, 71, 0
3, 113280, Note_on_c, 0, 71, 49
3, 113760, Note_on_c, 0, 71, 0
3, 113760, Note_on_c, 0, 74, 49
3, 113783, Note_on_c, 0, 74, 0
3, 114000, Note_on_c, 0, 73, 49
3, 114480, Note_on_c, 0, 73, 0
3, 114480, Note_on_c, 0, 71, 49
3, 114960, Note_on_c, 0, 71, 0
3, 114960, Note_on_c, 0, 69, 49
3, 115440, Note_on_c, 0, 69, 0
3, 115440, Control_c, 0, 64, 127
3, 115440, Note_on_c, 0, 68, 49
3, 115560, Note_on_c, 0, 68, 0
3, 115560, Note_on_c, 0, 69, 49
3, 115680, Note_on_c, 0, 69, 0
3, 115680, Note_on_c, 0, 71, 49
3, 115800, Note_on_c, 0, 71, 0
3, 115800, Note_on_c, 0, 69, 49
3, 115920, Note_on_c, 0, 69, 0
3, 115920, Note_on_c, 0, 68, 49
3, 116040, Note_on_c, 0, 68, 0
3, 116040, Note_on_c, 0, 71, 49
3, 116160, Note_on_c, 0, 71, 0
3, 116160, Control_c, 0, 64, 0
3, 116160, Note_on_c, 0, 69, 49
3, 116400, Note_on_c, 0, 69, 0
3, 116550, Note_on_c, 0, 73, 49
3, 116580, Note_on_c, 0, 77, 49
3, 116610, Note_on_c, 0, 80, 49
3, 116640, Note_on_c, 0, 85, 88
3, 116663, Note_on_c, 0, 85, 0
3, 116663, Note_on_c, 0, 73, 0
3, 116663, Note_on_c, 0, 77, 0
3, 116663, Note_on_c, 0, 80, 0
3, 117480, Note_on_c, 0, 73, 88
3, 117495, Note_on_c, 0, 73, 0
3, 117600, Note_on_c, 0, 75, 88
3, 117623, Note_on_c, 0, 75, 0
3, 118080, Note_on_c, 0, 77, 88
3, 118103, Note_on_c, 0, 77, 0
3, 118500, Note_on_c, 0, 80, 88
3, 118560, Note_on_c, 0, 80, 0
3, 118560, Note_on_c, 0, 78, 88
3, 118583, Note_on_c, 0, 78, 0
3, 118800, Note_on_c, 0, 78, 114
3, 119280, Note_on_c, 0, 78, 0
3, 119280, Note_on_c, 0, 77, 88
3, 119400, Note_on_c, 0, 77, 0
3, 119400, Note_on_c, 0, 78, 88
3, 119520, Note_on_c, 0, 78, 0
3, 119520, Control_c, 0, 64, 127
3, 119520, Note_on_c, 0, 80, 88
3, 119640, Note_on_c, 0, 80, 0
3, 119640, Note_on_c, 0, 78, 88
3, 119760, Note_on_c, 0, 78, 0
3, 119760, Note_on_c, 0, 77, 88
3, 119840, Note_on_c, 0, 77, 0
3, 119840, Note_on_c, 0, 78, 88
3, 119919, Note_on_c, 0, 78, 0
3, 119919, Note_on_c, 0, 80, 88
3, 120000, Note_on_c, 0, 80, 0
3, 120000, Control_c, 0, 64, 0
3, 120000, Note_on_c, 0, 78, 88
3, 120023, Note_on_c, 0, 78, 0
3, 120390, Note_on_c, 0, 71, 88
3, 120420, Note_on_c, 0, 74, 88
3, 120450, Note_on_c, 0, 78, 88
3, 120480, Note_on_c, 0, 80, 88
3, 120527, Note_on_c, 0, 80, 0
3, 120527, Note_on_c, 0, 71, 0
3, 120527, Note_on_c, 0, 74, 0
3, 120527, Note_on_c, 0, 78, 0
3, 120870, Note_on_c, 0, 71, 88
3, 120900, Note_on_c, 0, 73, 88
3, 120930, Note_on_c, 0, 77, 88
3, 120960, Note_on_c, 0, 80, 88
3, 121007, Note_on_c, 0, 80, 0
3, 121007, Note_on_c, 0, 71, 0
3, 121007, Note_on_c, 0, 73, 0
3, 121007, Note_on_c, 0, 77, 0
3, 121440, Note_on_c, 0, 69, 88
3, 121440, Note_on_c, 0, 73, 88
3, 121440, Note_on_c, 0, 78, 88
3, 124320, Note_on_c, 0, 78, 0
3, 124320, Note_on_c, 0, 73, 0
3, 124320, Note_on_c, 0, 69, 0
3, 124320, End_track
4, 0, Start_track
4, 0, Title_t, "Instrument18"
4, 0, Program_c, 0, 0
4, 0, Control_c, 0, 7, 110
4, 0, Control_c, 0, 10, 30
4, 240, Note_on_c, 0, 49, 75
4, 240, Note_on_c, 0, 54, 75
4, 240, Note_on_c, 0, 57, 75
4, 263, Note_on_c, 0, 57, 0
4, 263, Note_on_c, 0, 54, 0
4, 263, Note_on_c, 0, 49, 0
4, 720, Note_on_c, 0, 49, 75
4, 720, Note_on_c, 0, 54, 75
4, 720, Note_on_c, 0, 57, 75
4, 743, Note_on_c, 0, 57, 0
4, 743, Note_on_c, 0, 54, 0
4, 743, Note_on_c, 0, 49, 0
4, 1200, Note_on_c, 0, 49, 75
4, 1200, Note_on_c, 0, 54, 75
4, 1200, Note_on_c, 0, 57, 75
4, 1223, Note_on_c, 0, 57, 0
4, 1223, Note_on_c, 0, 54, 0
4, 1223, Note_on_c, 0, 49, 0
4, 1680, Note_on_c, 0, 49, 75
4, 1680, Note_on_c, 0, 54, 75
4, 1680, Note_on_c, 0, 57, 75
4, 1703, Note_on_c, 0, 57, 0
4, 1703, Note_on_c, 0, 54, 0
4, 1703, Note_on_c, 0, 49, 0
4, 2160, Note_on_c, 0, 50, 101
4, 2160, Note_on_c, 0, 54, 101
4, 2160, Note_on_c, 0, 59, 101
4, 2640, Note_on_c, 0, 59, 0
4, 2640, Note_on_c, 0, 54, 0
4, 2640, Note_on_c, 0, 50, 0
4, 2640, Note_on_c, 0, 50, 75
4, 2640, Note_on_c, 0, 54, 75
4, 2640, Note_on_c, 0, 59, 75
4, 2880, Note_on_c, 0, 59, 0
4, 2880, Note_on_c, 0, 54, 0
4, 2880, Note_on_c, 0, 50, 0
4, 3120, Note_on_c, 0, 49, 75
4, 3120, Note_on_c, 0, 54, 75
4, 3120, Note_on_c, 0, 57, 75
4, 3360, Note_on_c, 0, 57, 0
4, 3360, Note_on_c, 0, 54, 0
4, 3360, Note_on_c, 0, 49, 0
4, 3600, Note_on_c, 0, 49, 75
4, 3600, Note_on_c, 0, 54, 75
4, 3600, Note_on_c, 0, 57, 75
4, 3840, Note_on_c, 0, 57, 0
4, 3840, Note_on_c, 0, 54, 0
4, 3840, Note_on_c, 0, 49, 0
4, 4080, Note_on_c, 0, 47, 101
4, 4080, Note_on_c, 0, 50, 101
4, 4080, Note_on_c, 0, 54, 101
4, 4560, Note_on_c, 0, 54, 0
4, 4560, Note_on_c, 0, 50, 0
4, 4560, Note_on_c, 0, 47, 0
4, 4560, Note_on_c, 0, 47, 75
4, 4560, Note_on_c, 0, 50, 75
4, 4800, Note_on_c, 0, 50, 0
4, 4800, Note_on_c, 0, 47, 0
4, 5040, Note_on_c, 0, 45, 75
4, 5040, Note_on_c, 0, 49, 75
4, 5280, Note_on_c, 0, 49, 0
4, 5280, Note_on_c, 0, 45, 0
4, 5520, Note_on_c, 0, 45, 75
4, 5520, Note_on_c, 0, 49, 75
4, 5760, Note_on_c, 0, 49, 0
4, 5760, Note_on_c, 0, 45, 0
4, 6000, Note_on_c, 0, 49, 75
4, 6000, Note_on_c, 0, 53, 75
4, 6240, Note_on_c, 0, 53, 0
4, 6240, Note_on_c, 0, 49, 0
4, 6480, Note_on_c, 0, 49, 75
4, 6720, Note_on_c, 0, 49, 0
4, 6960, Note_on_c, 0, 45, 75
4, 6960, Note_on_c, 0, 49, 75
4, 7200, Note_on_c, 0, 49, 0
4, 7200, Note_on_c, 0, 45, 0
4, 7440, Note_on_c, 0, 45, 75
4, 7440, Note_on_c, 0, 49, 75
4, 7680, Note_on_c, 0, 49, 0
4, 7680, Note_on_c, 0, 45, 0
4, 7920, Note_on_c, 0, 49, 75
4, 7920, Note_on_c, 0, 54, 75
4, 7920, Note_on_c, 0, 57, 75
4, 8160, Note_on_c, 0, 57, 0
4, 8160, Note_on_c, 0, 54, 0
4, 8160, Note_on_c, 0, 49, 0
4, 8400, Note_on_c, 0, 49, 75
4, 8400, Note_on_c, 0, 54, 75
4, 8400, Note_on_c, 0, 57, 75
4, 8640, Note_on_c, 0, 57, 0
4, 8640, Note_on_c, 0, 54, 0
4, 8640, Note_on_c, 0, 49, 0
4, 8880, Note_on_c, 0, 49, 75
4, 8880, Note_on_c, 0, 54, 75
4, 8880, Note_on_c, 0, 57, 75
4, 9120, Note_on_c, 0, 57, 0
4, 9120, Note_on_c, 0, 54, 0
4, 9120, Note_on_c, 0, 49, 0
4, 9360, Note_on_c, 0, 49, 75
4, 9360, Note_on_c, 0, 54, 75
4, 9360, Note_on_c, 0, 57, 75
4, 9600, Note_on_c, 0, 57, 0
4, 9600, Note_on_c, 0, 54, 0
4, 9600, Note_on_c, 0, 49, 0
4, 9840, Note_on_c, 0, 47, 101
4, 9840, Note_on_c, 0, 50, 101
4, 9840, Note_on_c, 0, 54, 101
4, 9840, Note_on_c, 0, 59, 101
4, 10320, Note_on_c, 0, 59, 0
4, 10320, Note_on_c, 0, 47, 0
4, 10320, Note_on_c, 0, 50, 0
4, 10320, Note_on_c, 0, 54, 0
4, 10320, Note_on_c, 0, 47, 75
4, 10320, Note_on_c, 0, 50, 75
4, 10320, Note_on_c, 0, 54, 75
4, 10320, Note_on_c, 0, 59, 75
4, 10560, Note_on_c, 0, 59, 0
4, 10560, Note_on_c, 0, 47, 0
4, 10560, Note_on_c, 0, 50, 0
4, 10560, Note_on_c, 0, 54, 0
4, 10800, Note_on_c, 0, 49, 49
4, 10800, Note_on_c, 0, 54, 49
4, 10800, Note_on_c, 0, 57, 49
4, 11040, Note_on_c, 0, 57, 0
4, 11040, Note_on_c, 0, 54, 0
4, 11040, Note_on_c, 0, 49, 0
4, 11280, Note_on_c, 0, 54, 49
4, 11280, Note_on_c, 0, 57, 49
4, 11520, Note_on_c, 0, 57, 0
4, 11520, Note_on_c, 0, 54, 0
4, 11760, Note_on_c, 0, 57, 49
4, 11783, Note_on_c, 0, 57, 0
4, 12240, Note_on_c, 0, 56, 49
4, 12240, Note_on_c, 0, 61, 49
4, 12263, Note_on_c, 0, 61, 0
4, 12263, Note_on_c, 0, 56, 0
4, 12720, Note_on_c, 0, 54, 49
4, 12720, Note_on_c, 0, 59, 49
4, 12720, Note_on_c, 0, 62, 49
4, 12743, Note_on_c, 0, 62, 0
4, 12743, Note_on_c, 0, 59, 0
4, 12743, Note_on_c, 0, 54, 0
4, 13200, Note_on_c, 0, 57, 49
4, 13200, Note_on_c, 0, 61, 49
4, 13200, Note_on_c, 0, 64, 49
4, 13223, Note_on_c, 0, 64, 0
4, 13223, Note_on_c, 0, 61, 0
4, 13223, Note_on_c, 0, 57, 0
4, 13680, Note_on_c, 0, 56, 49
4, 13680, Note_on_c, 0, 61, 49
4, 13680, Note_on_c, 0, 65, 49
4, 13920, Note_on_c, 0, 65, 0
4, 13920, Note_on_c, 0, 61, 0
4, 13920, Note_on_c, 0, 56, 0
4, 14160, Note_on_c, 0, 53, 49
4, 14160, Note_on_c, 0, 56, 49
4, 14160, Note_on_c, 0, 59, 49
4, 14160, Note_on_c, 0, 61, 49
4, 14400, Note_on_c, 0, 61, 0
4, 14400, Note_on_c, 0, 53, 0
4, 14400, Note_on_c, 0, 56, 0
4, 14400, Note_on_c, 0, 59, 0
4, 14640, Note_on_c, 0, 49, 49
4, 14640, Note_on_c, 0, 54, 49
4, 14640, Note_on_c, 0, 57, 49
4, 14640, Note_on_c, 0, 61, 49
4, 15120, Note_on_c, 0, 61, 0
4, 15120, Note_on_c, 0, 49, 0
4, 15120, Note_on_c, 0, 54, 0
4, 15120, Note_on_c, 0, 57, 0
4, 15600, Note_on_c, 0, 49, 75
4, 15600, Note_on_c, 0, 54, 75
4, 15600, Note_on_c, 0, 57, 75
4, 15623, Note_on_c, 0, 57, 0
4, 15623, Note_on_c, 0, 54, 0
4, 15623, Note_on_c, 0, 49, 0
4, 16080, Note_on_c, 0, 49, 75
4, 16080, Note_on_c, 0, 54, 75
4, 16080, Note_on_c, 0, 57, 75
4, 16103, Note_on_c, 0, 57, 0
4, 16103, Note_on_c, 0, 54, 0
4, 16103, Note_on_c, 0, 49, 0
4, 16560, Note_on_c, 0, 49, 75
4, 16560, Note_on_c, 0, 54, 75
4, 16560, Note_on_c, 0, 57, 75
4, 16583, Note_on_c, 0, 57, 0
4, 16583, Note_on_c, 0, 54, 0
4, 16583, Note_on_c, 0, 49, 0
4, 17040, Note_on_c, 0, 49, 75
4, 17040, Note_on_c, 0, 54, 75
4, 17040, Note_on_c, 0, 57, 75
4, 17063, Note_on_c, 0, 57, 0
4, 17063, Note_on_c, 0, 54, 0
4, 17063, Note_on_c, 0, 49, 0
4, 17520, Note_on_c, 0, 47, 101
4, 17520, Note_on_c, 0, 50, 101
4, 17520, Note_on_c, 0, 54, 101
4, 17520, Note_on_c, 0, 59, 101
4, 18000, Note_on_c, 0, 59, 0
4, 18000, Note_on_c, 0, 47, 0
4, 18000, Note_on_c, 0, 50, 0
4, 18000, Note_on_c, 0, 54, 0
4, 18000, Note_on_c, 0, 47, 75
4, 18000, Note_on_c, 0, 50, 75
4, 18000, Note_on_c, 0, 54, 75
4, 18000, Note_on_c, 0, 59, 75
4, 18240, Note_on_c, 0, 59, 0
4, 18240, Note_on_c, 0, 47, 0
4, 18240, Note_on_c, 0, 50, 0
4, 18240, Note_on_c, 0, 54, 0
4, 18480, Note_on_c, 0, 49, 75
4, 18480, Note_on_c, 0, 54, 75
4, 18480, Note_on_c, 0, 57, 75
4, 18720, Note_on_c, 0, 57, 0
4, 18720, Note_on_c, 0, 54, 0
4, 18720, Note_on_c, 0, 49, 0
4, 18960, Note_on_c, 0, 49, 75
4, 18960, Note_on_c, 0, 54, 75
4, 18960, Note_on_c, 0, 57, 75
4, 19200, Note_on_c, 0, 57, 0
4, 19200, Note_on_c, 0, 54, 0
4, 19200, Note_on_c, 0, 49, 0
4, 19440, Note_on_c, 0, 47, 101
4, 19440, Note_on_c, 0, 50, 101
4, 19440, Note_on_c, 0, 54, 101
4, 19440, Note_on_c, 0, 59, 101
4, 19920, Note_on_c, 0, 59, 0
4, 19920, Note_on_c, 0, 47, 0
4, 19920, Note_on_c, 0, 50, 0
4, 19920, Note_on_c, 0, 54, 0
4, 19920, Note_on_c, 0, 47, 75
4, 19920, Note_on_c, 0, 50, 75
4, 19920, Note_on_c, 0, 54, 75
4, 19920, Note_on_c, 0, 59, 75
4, 20160, Note_on_c, 0, 59, 0
4, 20160, Note_on_c, 0, 47, 0
4, 20160, Note_on_c, 0, 50, 0
4, 20160, Note_on_c, 0, 54, 0
4, 20400, Note_on_c, 0, 49, 75
4, 20400, Note_on_c, 0, 54, 75
4, 20400, Note_on_c, 0, 57, 75
4, 20640, Note_on_c, 0, 57, 0
4, 20640, Note_on_c, 0, 54, 0
4, 20640, Note_on_c, 0, 49, 0
4, 20880, Note_on_c, 0, 49, 75
4, 20880, Note_on_c, 0, 54, 75
4, 20880, Note_on_c, 0, 57, 75
4, 21120, Note_on_c, 0, 57, 0
4, 21120, Note_on_c, 0, 54, 0
4, 21120, Note_on_c, 0, 49, 0
4, 21360, Note_on_c, 0, 49, 75
4, 21360, Note_on_c, 0, 53, 75
4, 21360, Note_on_c, 0, 61, 75
4, 21600, Note_on_c, 0, 61, 0
4, 21600, Note_on_c, 0, 53, 0
4, 21600, Note_on_c, 0, 49, 0
4, 21840, Note_on_c, 0, 49, 75
4, 21840, Note_on_c, 0, 53, 75
4, 21840, Note_on_c, 0, 59, 75
4, 22080, Note_on_c, 0, 59, 0
4, 22080, Note_on_c, 0, 53, 0
4, 22080, Note_on_c, 0, 49, 0
4, 22320, Note_on_c, 0, 49, 75
4, 22320, Note_on_c, 0, 54, 75
4, 22320, Note_on_c, 0, 57, 75
4, 22560, Note_on_c, 0, 57, 0
4, 22560, Note_on_c, 0, 54, 0
4, 22560, Note_on_c, 0, 49, 0
4, 22800, Note_on_c, 0, 49, 75
4, 22800, Note_on_c, 0, 54, 75
4, 22800, Note_on_c, 0, 57, 75
4, 23040, Note_on_c, 0, 57, 0
4, 23040, Note_on_c, 0, 54, 0
4, 23040, Note_on_c, 0, 49, 0
4, 23280, Note_on_c, 0, 49, 75
4, 23280, Note_on_c, 0, 54, 75
4, 23280, Note_on_c, 0, 57, 75
4, 23520, Note_on_c, 0, 57, 0
4, 23520, Note_on_c, 0, 54, 0
4, 23520, Note_on_c, 0, 49, 0
4, 23760, Note_on_c, 0, 57, 75
4, 23760, Note_on_c, 0, 61, 75
4, 24000, Note_on_c, 0, 61, 0
4, 24000, Note_on_c, 0, 57, 0
4, 24240, Note_on_c, 0, 57, 75
4, 24240, Note_on_c, 0, 61, 75
4, 24240, Note_on_c, 0, 69, 75
4, 24480, Note_on_c, 0, 69, 0
4, 24480, Note_on_c, 0, 61, 0
4, 24480, Note_on_c, 0, 57, 0
4, 24720, Note_on_c, 0, 57, 75
4, 24720, Note_on_c, 0, 61, 75
4, 24720, Note_on_c, 0, 66, 75
4, 24960, Note_on_c, 0, 66, 0
4, 24960, Note_on_c, 0, 61, 0
4, 24960, Note_on_c, 0, 57, 0
4, 25200, Note_on_c, 0, 56, 101
4, 25200, Note_on_c, 0, 59, 101
4, 25200, Note_on_c, 0, 62, 101
4, 25200, Note_on_c, 0, 65, 101
4, 25680, Note_on_c, 0, 65, 0
4, 25680, Note_on_c, 0, 56, 0
4, 25680, Note_on_c, 0, 59, 0
4, 25680, Note_on_c, 0, 62, 0
4, 25680, Note_on_c, 0, 56, 75
4, 25680, Note_on_c, 0, 59, 75
4, 25680, Note_on_c, 0, 62, 75
4, 25680, Note_on_c, 0, 65, 75
4, 25920, Note_on_c, 0, 65, 0
4, 25920, Note_on_c, 0, 56, 0
4, 25920, Note_on_c, 0, 59, 0
4, 25920, Note_on_c, 0, 62, 0
4, 26160, Note_on_c, 0, 57, 75
4, 26160, Note_on_c, 0, 61, 75
4, 26160, Note_on_c, 0, 66, 75
4, 26400, Note_on_c, 0, 66, 0
4, 26400, Note_on_c, 0, 61, 0
4, 26400, Note_on_c, 0, 57, 0
4, 26640, Note_on_c, 0, 57, 75
4, 26640, Note_on_c, 0, 61, 75
4, 26640, Note_on_c, 0, 66, 75
4, 26880, Note_on_c, 0, 66, 0
4, 26880, Note_on_c, 0, 61, 0
4, 26880, Note_on_c, 0, 57, 0
4, 27120, Note_on_c, 0, 57, 49
4, 27120, Note_on_c, 0, 62, 49
4, 27360, Note_on_c, 0, 62, 0
4, 27360, Note_on_c, 0, 57, 0
4, 27600, Note_on_c, 0, 57, 49
4, 27600, Note_on_c, 0, 61, 49
4, 27600, Note_on_c, 0, 64, 49
4, 27840, Note_on_c, 0, 64, 0
4, 27840, Note_on_c, 0, 61, 0
4, 27840, Note_on_c, 0, 57, 0
4, 28080, Note_on_c, 0, 54, 49
4, 28080, Note_on_c, 0, 59, 49
4, 28080, Note_on_c, 0, 62, 49
4, 28080, Note_on_c, 0, 66, 49
4, 28320, Note_on_c, 0, 66, 0
4, 28320, Note_on_c, 0, 54, 0
4, 28320, Note_on_c, 0, 59, 0
4, 28320, Note_on_c, 0, 62, 0
4, 28560, Note_on_c, 0, 57, 49
4, 28560, Note_on_c, 0, 61, 49
4, 28560, Note_on_c, 0, 64, 49
4, 28560, Note_on_c, 0, 69, 49
4, 28800, Note_on_c, 0, 69, 0
4, 28800, Note_on_c, 0, 57, 0
4, 28800, Note_on_c, 0, 61, 0
4, 28800, Note_on_c, 0, 64, 0
4, 29040, Note_on_c, 0, 61, 49
4, 29040, Note_on_c, 0, 65, 49
4, 29040, Note_on_c, 0, 73, 49
4, 29280, Note_on_c, 0, 73, 0
4, 29280, Note_on_c, 0, 65, 0
4, 29280, Note_on_c, 0, 61, 0
4, 29520, Note_on_c, 0, 59, 49
4, 29520, Note_on_c, 0, 61, 49
4, 29520, Note_on_c, 0, 65, 49
4, 29760, Note_on_c, 0, 65, 0
4, 29760, Note_on_c, 0, 61, 0
4, 29760, Note_on_c, 0, 59, 0
4, 30000, Note_on_c, 0, 57, 49
4, 30000, Note_on_c, 0, 61, 49
4, 30000, Note_on_c, 0, 66, 49
4, 30480, Note_on_c, 0, 66, 0
4, 30480, Note_on_c, 0, 61, 0
4, 30480, Note_on_c, 0, 57, 0
4, 30960, Note_on_c, 0, 54, 75
4, 30960, Note_on_c, 0, 61, 75
4, 30960, Note_on_c, 0, 64, 75
4, 31200, Note_on_c, 0, 64, 0
4, 31200, Note_on_c, 0, 61, 0
4, 31200, Note_on_c, 0, 54, 0
4, 31440, Note_on_c, 0, 54, 75
4, 31440, Note_on_c, 0, 61, 75
4, 31440, Note_on_c, 0, 64, 75
4, 31680, Note_on_c, 0, 64, 0
4, 31680, Note_on_c, 0, 61, 0
4, 31680, Note_on_c, 0, 54, 0
4, 31920, Note_on_c, 0, 54, 75
4, 31920, Note_on_c, 0, 62, 75
4, 31920, Note_on_c, 0, 66, 75
4, 32160, Note_on_c, 0, 66, 0
4, 32160, Note_on_c, 0, 62, 0
4, 32160, Note_on_c, 0, 54, 0
4, 32400, Note_on_c, 0, 54, 75
4, 32400, Note_on_c, 0, 61, 75
4, 32400, Note_on_c, 0, 64, 75
4, 32640, Note_on_c, 0, 64, 0
4, 32640, Note_on_c, 0, 61, 0
4, 32640, Note_on_c, 0, 54, 0
4, 32880, Note_on_c, 0, 54, 75
4, 32880, Note_on_c, 0, 59, 75
4, 32880, Note_on_c, 0, 62, 75
4, 33120, Note_on_c, 0, 62, 0
4, 33120, Note_on_c, 0, 59, 0
4, 33120, Note_on_c, 0, 54, 0
4, 33360, Note_on_c, 0, 54, 75
4, 33360, Note_on_c, 0, 59, 75
4, 33360, Note_on_c, 0, 62, 75
4, 33600, Note_on_c, 0, 62, 0
4, 33600, Note_on_c, 0, 59, 0
4, 33600, Note_on_c, 0, 54, 0
4, 33840, Note_on_c, 0, 54, 75
4, 33840, Note_on_c, 0, 59, 75
4, 33840, Note_on_c, 0, 62, 75
4, 34080, Note_on_c, 0, 62, 0
4, 34080, Note_on_c, 0, 59, 0
4, 34080, Note_on_c, 0, 54, 0
4, 34320, Note_on_c, 0, 54, 75
4, 34320, Note_on_c, 0, 59, 75
4, 34320, Note_on_c, 0, 62, 75
4, 34560, Note_on_c, 0, 62, 0
4, 34560, Note_on_c, 0, 59, 0
4, 34560, Note_on_c, 0, 54, 0
4, 34800, Note_on_c, 0, 52, 75
4, 34800, Note_on_c, 0, 59, 75
4, 34800, Note_on_c, 0, 62, 75
4, 35040, Note_on_c, 0, 62, 0
4, 35040, Note_on_c, 0, 59, 0
4, 35040, Note_on_c, 0, 52, 0
4, 35280, Note_on_c, 0, 52, 75
4, 35280, Note_on_c, 0, 59, 75
4, 35280, Note_on_c, 0, 62, 75
4, 35520, Note_on_c, 0, 62, 0
4, 35520, Note_on_c, 0, 59, 0
4, 35520, Note_on_c, 0, 52, 0
4, 35760, Note_on_c, 0, 52, 75
4, 35760, Note_on_c, 0, 61, 75
4, 35760, Note_on_c, 0, 64, 75
4, 36000, Note_on_c, 0, 64, 0
4, 36000, Note_on_c, 0, 61, 0
4, 36000, Note_on_c, 0, 52, 0
4, 36240, Note_on_c, 0, 52, 75
4, 36240, Note_on_c, 0, 59, 75
4, 36240, Note_on_c, 0, 62, 75
4, 36480, Note_on_c, 0, 62, 0
4, 36480, Note_on_c, 0, 59, 0
4, 36480, Note_on_c, 0, 52, 0
4, 36720, Note_on_c, 0, 52, 75
4, 36720, Note_on_c, 0, 57, 75
4, 36720, Note_on_c, 0, 61, 75
4, 36960, Note_on_c, 0, 61, 0
4, 36960, Note_on_c, 0, 57, 0
4, 36960, Note_on_c, 0, 52, 0
4, 37200, Note_on_c, 0, 52, 75
4, 37200, Note_on_c, 0, 57, 75
4, 37200, Note_on_c, 0, 61, 75
4, 37440, Note_on_c, 0, 61, 0
4, 37440, Note_on_c, 0, 57, 0
4, 37440, Note_on_c, 0, 52, 0
4, 37680, Note_on_c, 0, 52, 75
4, 37680, Note_on_c, 0, 57, 75
4, 37680, Note_on_c, 0, 61, 75
4, 37920, Note_on_c, 0, 61, 0
4, 37920, Note_on_c, 0, 57, 0
4, 37920, Note_on_c, 0, 52, 0
4, 38160, Note_on_c, 0, 52, 75
4, 38160, Note_on_c, 0, 57, 75
4, 38160, Note_on_c, 0, 61, 75
4, 38400, Note_on_c, 0, 61, 0
4, 38400, Note_on_c, 0, 57, 0
4, 38400, Note_on_c, 0, 52, 0
4, 38640, Note_on_c, 0, 49, 49
4, 38640, Note_on_c, 0, 59, 49
4, 38880, Note_on_c, 0, 59, 0
4, 38880, Note_on_c, 0, 49, 0
4, 39120, Note_on_c, 0, 49, 49
4, 39120, Note_on_c, 0, 59, 49
4, 39360, Note_on_c, 0, 59, 0
4, 39360, Note_on_c, 0, 49, 0
4, 39600, Note_on_c, 0, 49, 49
4, 39600, Note_on_c, 0, 61, 49
4, 39840, Note_on_c, 0, 61, 0
4, 39840, Note_on_c, 0, 49, 0
4, 40080, Note_on_c, 0, 49, 49
4, 40080, Note_on_c, 0, 59, 49
4, 40320, Note_on_c, 0, 59, 0
4, 40320, Note_on_c, 0, 49, 0
4, 40560, Note_on_c, 0, 50, 49
4, 40560, Note_on_c, 0, 57, 49
4, 40800, Note_on_c, 0, 57, 0
4, 40800, Note_on_c, 0, 50, 0
4, 41040, Note_on_c, 0, 50, 49
4, 41040, Note_on_c, 0, 56, 49
4, 41280, Note_on_c, 0, 56, 0
4, 41280, Note_on_c, 0, 50, 0
4, 41520, Note_on_c, 0, 50, 49
4, 41520, Note_on_c, 0, 53, 49
4, 41520, Note_on_c, 0, 59, 49
4, 41760, Note_on_c, 0, 59, 0
4, 41760, Note_on_c, 0, 53, 0
4, 41760, Note_on_c, 0, 50, 0
4, 42000, Note_on_c, 0, 49, 49
4, 42000, Note_on_c, 0, 54, 49
4, 42000, Note_on_c, 0, 57, 49
4, 42240, Note_on_c, 0, 57, 0
4, 42240, Note_on_c, 0, 54, 0
4, 42240, Note_on_c, 0, 49, 0
4, 42240, Note_on_c, 0, 53, 101
4, 42240, Note_on_c, 0, 56, 101
4, 42240, Note_on_c, 0, 61, 101
4, 42240, Note_on_c, 0, 65, 101
4, 42263, Note_on_c, 0, 65, 0
4, 42263, Note_on_c, 0, 53, 0
4, 42263, Note_on_c, 0, 56, 0
4, 42263, Note_on_c, 0, 61, 0
4, 43080, Note_on_c, 0, 49, 75
4, 43080, Note_on_c, 0, 61, 75
4, 43095, Note_on_c, 0, 61, 0
4, 43095, Note_on_c, 0, 49, 0
4, 43200, Note_on_c, 0, 51, 75
4, 43200, Note_on_c, 0, 63, 75
4, 43223, Note_on_c, 0, 63, 0
4, 43223, Note_on_c, 0, 51, 0
4, 43680, Note_on_c, 0, 53, 75
4, 43680, Note_on_c, 0, 65, 75
4, 43703, Note_on_c, 0, 65, 0
4, 43703, Note_on_c, 0, 53, 0
4, 44160, Note_on_c, 0, 54, 75
4, 44160, Note_on_c, 0, 57, 75
4, 44160, Note_on_c, 0, 61, 75
4, 44160, Note_on_c, 0, 66, 75
4, 44183, Note_on_c, 0, 66, 0
4, 44183, Note_on_c, 0, 54, 0
4, 44183, Note_on_c, 0, 57, 0
4, 44183, Note_on_c, 0, 61, 0
4, 44400, Note_on_c, 0, 54, 101
4, 44400, Note_on_c, 0, 57, 101
4, 44400, Note_on_c, 0, 61, 101
4, 44400, Note_on_c, 0, 66, 101
4, 44880, Note_on_c, 0, 66, 0
4, 44880, Note_on_c, 0, 54, 0
4, 44880, Note_on_c, 0, 57, 0
4, 44880, Note_on_c, 0, 61, 0
4, 44880, Note_on_c, 0, 57, 75
4, 44880, Note_on_c, 0, 61, 75
4, 45120, Note_on_c, 0, 61, 0
4, 45120, Note_on_c, 0, 57, 0
4, 45120, Note_on_c, 0, 56, 101
4, 45120, Note_on_c, 0, 59, 101
4, 45120, Note_on_c, 0, 62, 101
4, 45120, Note_on_c, 0, 65, 101
4, 45600, Note_on_c, 0, 65, 0
4, 45600, Note_on_c, 0, 56, 0
4, 45600, Note_on_c, 0, 59, 0
4, 45600, Note_on_c, 0, 62, 0
4, 45600, Note_on_c, 0, 57, 75
4, 45600, Note_on_c, 0, 61, 75
4, 45600, Note_on_c, 0, 66, 75
4, 45623, Note_on_c, 0, 66, 0
4, 45623, Note_on_c, 0, 61, 0
4, 45623, Note_on_c, 0, 57, 0
4, 46320, Note_on_c, 0, 54, 75
4, 46320, Note_on_c, 0, 61, 75
4, 46320, Note_on_c, 0, 64, 75
4, 46560, Note_on_c, 0, 64, 0
4, 46560, Note_on_c, 0, 61, 0
4, 46560, Note_on_c, 0, 54, 0
4, 46800, Note_on_c, 0, 54, 75
4, 46800, Note_on_c, 0, 61, 75
4, 46800, Note_on_c, 0, 64, 75
4, 47040, Note_on_c, 0, 64, 0
4, 47040, Note_on_c, 0, 61, 0
4, 47040, Note_on_c, 0, 54, 0
4, 47280, Note_on_c, 0, 54, 75
4, 47280, Note_on_c, 0, 62, 75
4, 47280, Note_on_c, 0, 66, 75
4, 47520, Note_on_c, 0, 66, 0
4, 47520, Note_on_c, 0, 62, 0
4, 47520, Note_on_c, 0, 54, 0
4, 47760, Note_on_c, 0, 54, 75
4, 47760, Note_on_c, 0, 61, 75
4, 47760, Note_on_c, 0, 64, 75
4, 48000, Note_on_c, 0, 64, 0
4, 48000, Note_on_c, 0, 61, 0
4, 48000, Note_on_c, 0, 54, 0
4, 48240, Note_on_c, 0, 54, 75
4, 48240, Note_on_c, 0, 59, 75
4, 48240, Note_on_c, 0, 62, 75
4, 48480, Note_on_c, 0, 62, 0
4, 48480, Note_on_c, 0, 59, 0
4, 48480, Note_on_c, 0, 54, 0
4, 48720, Note_on_c, 0, 54, 75
4, 48720, Note_on_c, 0, 59, 75
4, 48720, Note_on_c, 0, 62, 75
4, 48960, Note_on_c, 0, 62, 0
4, 48960, Note_on_c, 0, 59, 0
4, 48960, Note_on_c, 0, 54, 0
4, 49200, Note_on_c, 0, 54, 75
4, 49200, Note_on_c, 0, 59, 75
4, 49200, Note_on_c, 0, 62, 75
4, 49440, Note_on_c, 0, 62, 0
4, 49440, Note_on_c, 0, 59, 0
4, 49440, Note_on_c, 0, 54, 0
4, 49680, Note_on_c, 0, 54, 75
4, 49680, Note_on_c, 0, 59, 75
4, 49680, Note_on_c, 0, 62, 75
4, 49920, Note_on_c, 0, 62, 0
4, 49920, Note_on_c, 0, 59, 0
4, 49920, Note_on_c, 0, 54, 0
4, 50160, Note_on_c, 0, 52, 75
4, 50160, Note_on_c, 0, 59, 75
4, 50160, Note_on_c, 0, 62, 75
4, 50400, Note_on_c, 0, 62, 0
4, 50400, Note_on_c, 0, 59, 0
4, 50400, Note_on_c, 0, 52, 0
4, 50640, Note_on_c, 0, 52, 75
4, 50640, Note_on_c, 0, 59, 75
4, 50640, Note_on_c, 0, 62, 75
4, 50880, Note_on_c, 0, 62, 0
4, 50880, Note_on_c, 0, 59, 0
4, 50880, Note_on_c, 0, 52, 0
4, 51120, Note_on_c, 0, 52, 75
4, 51120, Note_on_c, 0, 61, 75
4, 51120, Note_on_c, 0, 64, 75
4, 51360, Note_on_c, 0, 64, 0
4, 51360, Note_on_c, 0, 61, 0
4, 51360, Note_on_c, 0, 52, 0
4, 51600, Note_on_c, 0, 52, 75
4, 51600, Note_on_c, 0, 59, 75
4, 51600, Note_on_c, 0, 62, 75
4, 51840, Note_on_c, 0, 62, 0
4, 51840, Note_on_c, 0, 59, 0
4, 51840, Note_on_c, 0, 52, 0
4, 52080, Note_on_c, 0, 52, 75
4, 52080, Note_on_c, 0, 57, 75
4, 52080, Note_on_c, 0, 61, 75
4, 52320, Note_on_c, 0, 61, 0
4, 52320, Note_on_c, 0, 57, 0
4, 52320, Note_on_c, 0, 52, 0
4, 52560, Note_on_c, 0, 52, 75
4, 52560, Note_on_c, 0, 57, 75
4, 52560, Note_on_c, 0, 61, 75
4, 52800, Note_on_c, 0, 61, 0
4, 52800, Note_on_c, 0, 57, 0
4, 52800, Note_on_c, 0, 52, 0
4, 53040, Note_on_c, 0, 52, 75
4, 53040, Note_on_c, 0, 57, 75
4, 53040, Note_on_c, 0, 61, 75
4, 53280, Note_on_c, 0, 61, 0
4, 53280, Note_on_c, 0, 57, 0
4, 53280, Note_on_c, 0, 52, 0
4, 53520, Note_on_c, 0, 52, 75
4, 53520, Note_on_c, 0, 57, 75
4, 53520, Note_on_c, 0, 61, 75
4, 53760, Note_on_c, 0, 61, 0
4, 53760, Note_on_c, 0, 57, 0
4, 53760, Note_on_c, 0, 52, 0
4, 54000, Note_on_c, 0, 49, 49
4, 54000, Note_on_c, 0, 59, 49
4, 54240, Note_on_c, 0, 59, 0
4, 54240, Note_on_c, 0, 49, 0
4, 54480, Note_on_c, 0, 49, 49
4, 54480, Note_on_c, 0, 59, 49
4, 54720, Note_on_c, 0, 59, 0
4, 54720, Note_on_c, 0, 49, 0
4, 54960, Note_on_c, 0, 49, 49
4, 54960, Note_on_c, 0, 61, 49
4, 55200, Note_on_c, 0, 61, 0
4, 55200, Note_on_c, 0, 49, 0
4, 55440, Note_on_c, 0, 49, 49
4, 55440, Note_on_c, 0, 59, 49
4, 55680, Note_on_c, 0, 59, 0
4, 55680, Note_on_c, 0, 49, 0
4, 55920, Note_on_c, 0, 50, 49
4, 55920, Note_on_c, 0, 57, 49
4, 56160, Note_on_c, 0, 57, 0
4, 56160, Note_on_c, 0, 50, 0
4, 56400, Note_on_c, 0, 50, 49
4, 56400, Note_on_c, 0, 56, 49
4, 56640, Note_on_c, 0, 56, 0
4, 56640, Note_on_c, 0, 50, 0
4, 56880, Note_on_c, 0, 50, 49
4, 56880, Note_on_c, 0, 53, 49
4, 56880, Note_on_c, 0, 59, 49
4, 57120, Note_on_c, 0, 59, 0
4, 57120, Note_on_c, 0, 53, 0
4, 57120, Note_on_c, 0, 50, 0
4, 57360, Note_on_c, 0, 49, 49
4, 57360, Note_on_c, 0, 54, 49
4, 57360, Note_on_c, 0, 57, 49
4, 57600, Note_on_c, 0, 57, 0
4, 57600, Note_on_c, 0, 54, 0
4, 57600, Note_on_c, 0, 49, 0
4, 57600, Note_on_c, 0, 53, 101
4, 57600, Note_on_c, 0, 56, 101
4, 57600, Note_on_c, 0, 61, 101
4, 57600, Note_on_c, 0, 65, 101
4, 57623, Note_on_c, 0, 65, 0
4, 57623, Note_on_c, 0, 53, 0
4, 57623, Note_on_c, 0, 56, 0
4, 57623, Note_on_c, 0, 61, 0
4, 58440, Note_on_c, 0, 49, 75
4, 58440, Note_on_c, 0, 61, 75
4, 58455, Note_on_c, 0, 61, 0
4, 58455, Note_on_c, 0, 49, 0
4, 58560, Note_on_c, 0, 51, 75
4, 58560, Note_on_c, 0, 63, 75
4, 58583, Note_on_c, 0, 63, 0
4, 58583, Note_on_c, 0, 51, 0
4, 59040, Note_on_c, 0, 53, 75
4, 59040, Note_on_c, 0, 65, 75
4, 59063, Note_on_c, 0, 65, 0
4, 59063, Note_on_c, 0, 53, 0
4, 59520, Note_on_c, 0, 54, 75
4, 59520, Note_on_c, 0, 57, 75
4, 59520, Note_on_c, 0, 61, 75
4, 59520, Note_on_c, 0, 66, 75
4, 59543, Note_on_c, 0, 66, 0
4, 59543, Note_on_c, 0, 54, 0
4, 59543, Note_on_c, 0, 57, 0
4, 59543, Note_on_c, 0, 61, 0
4, 59760, Note_on_c, 0, 54, 101
4, 59760, Note_on_c, 0, 57, 101
4, 59760, Note_on_c, 0, 61, 101
4, 59760, Note_on_c, 0, 66, 101
4, 60240, Note_on_c, 0, 66, 0
4, 60240, Note_on_c, 0, 54, 0
4, 60240, Note_on_c, 0, 57, 0
4, 60240, Note_on_c, 0, 61, 0
4, 60240, Note_on_c, 0, 57, 75
4, 60240, Note_on_c, 0, 61, 75
4, 60480, Note_on_c, 0, 61, 0
4, 60480, Note_on_c, 0, 57, 0
4, 60480, Note_on_c, 0, 56, 101
4, 60480, Note_on_c, 0, 59, 101
4, 60480, Note_on_c, 0, 62, 101
4, 60480, Note_on_c, 0, 65, 101
4, 60960, Note_on_c, 0, 65, 0
4, 60960, Note_on_c, 0, 56, 0
4, 60960, Note_on_c, 0, 59, 0
4, 60960, Note_on_c, 0, 62, 0
4, 60960, Note_on_c, 0, 57, 75
4, 60960, Note_on_c, 0, 61, 75
4, 60960, Note_on_c, 0, 66, 75
4, 60983, Note_on_c, 0, 66, 0
4, 60983, Note_on_c, 0, 61, 0
4, 60983, Note_on_c, 0, 57, 0
4, 61680, Note_on_c, 0, 49, 75
4, 61680, Note_on_c, 0, 54, 75
4, 61920, Note_on_c, 0, 54, 0
4, 61920, Note_on_c, 0, 49, 0
4, 62160, Note_on_c, 0, 49, 75
4, 62160, Note_on_c, 0, 54, 75
4, 62400, Note_on_c, 0, 54, 0
4, 62400, Note_on_c, 0, 49, 0
4, 62640, Note_on_c, 0, 49, 75
4, 62640, Note_on_c, 0, 54, 75
4, 62880, Note_on_c, 0, 54, 0
4, 62880, Note_on_c, 0, 49, 0
4, 63120, Note_on_c, 0, 49, 75
4, 63120, Note_on_c, 0, 54, 75
4, 63360, Note_on_c, 0, 54, 0
4, 63360, Note_on_c, 0, 49, 0
4, 63600, Note_on_c, 0, 49, 75
4, 63840, Note_on_c, 0, 49, 0
4, 64080, Note_on_c, 0, 49, 75
4, 64320, Note_on_c, 0, 49, 0
4, 64560, Note_on_c, 0, 49, 75
4, 64560, Note_on_c, 0, 54, 75
4, 64800, Note_on_c, 0, 54, 0
4, 64800, Note_on_c, 0, 49, 0
4, 65040, Note_on_c, 0, 49, 75
4, 65040, Note_on_c, 0, 54, 75
4, 65280, Note_on_c, 0, 54, 0
4, 65280, Note_on_c, 0, 49, 0
4, 65520, Note_on_c, 0, 49, 75
4, 65760, Note_on_c, 0, 49, 0
4, 66000, Note_on_c, 0, 49, 75
4, 66240, Note_on_c, 0, 49, 0
4, 66480, Note_on_c, 0, 49, 75
4, 66720, Note_on_c, 0, 49, 0
4, 66960, Note_on_c, 0, 49, 75
4, 67200, Note_on_c, 0, 49, 0
4, 67440, Note_on_c, 0, 49, 75
4, 67440, Note_on_c, 0, 61, 75
4, 67680, Note_on_c, 0, 61, 0
4, 67680, Note_on_c, 0, 49, 0
4, 67920, Note_on_c, 0, 49, 75
4, 67920, Note_on_c, 0, 61, 75
4, 68160, Note_on_c, 0, 61, 0
4, 68160, Note_on_c, 0, 49, 0
4, 68400, Note_on_c, 0, 49, 75
4, 68400, Note_on_c, 0, 61, 75
4, 68640, Note_on_c, 0, 61, 0
4, 68640, Note_on_c, 0, 49, 0
4, 68880, Note_on_c, 0, 49, 75
4, 68880, Note_on_c, 0, 61, 75
4, 69120, Note_on_c, 0, 61, 0
4, 69120, Note_on_c, 0, 49, 0
4, 69360, Note_on_c, 0, 49, 75
4, 69360, Note_on_c, 0, 54, 75
4, 69360, Note_on_c, 0, 58, 75
4, 69600, Note_on_c, 0, 58, 0
4, 69600, Note_on_c, 0, 54, 0
4, 69600, Note_on_c, 0, 49, 0
4, 69840, Note_on_c, 0, 49, 75
4, 69840, Note_on_c, 0, 54, 75
4, 69840, Note_on_c, 0, 58, 75
4, 70080, Note_on_c, 0, 58, 0
4, 70080, Note_on_c, 0, 54, 0
4, 70080, Note_on_c, 0, 49, 0
4, 70320, Note_on_c, 0, 49, 75
4, 70320, Note_on_c, 0, 61, 75
4, 70560, Note_on_c, 0, 61, 0
4, 70560, Note_on_c, 0, 49, 0
4, 70800, Note_on_c, 0, 49, 75
4, 70800, Note_on_c, 0, 61, 75
4, 71040, Note_on_c, 0, 61, 0
4, 71040, Note_on_c, 0, 49, 0
4, 71280, Note_on_c, 0, 49, 75
4, 71280, Note_on_c, 0, 61, 75
4, 71520, Note_on_c, 0, 61, 0
4, 71520, Note_on_c, 0, 49, 0
4, 71760, Note_on_c, 0, 49, 75
4, 71760, Note_on_c, 0, 61, 75
4, 72000, Note_on_c, 0, 61, 0
4, 72000, Note_on_c, 0, 49, 0
4, 72240, Note_on_c, 0, 49, 75
4, 72240, Note_on_c, 0, 54, 75
4, 72480, Note_on_c, 0, 54, 0
4, 72480, Note_on_c, 0, 49, 0
4, 72720, Note_on_c, 0, 49, 75
4, 72720, Note_on_c, 0, 54, 75
4, 72960, Note_on_c, 0, 54, 0
4, 72960, Note_on_c, 0, 49, 0
4, 73680, Note_on_c, 0, 49, 49
4, 73920, Note_on_c, 0, 49, 0
4, 74160, Note_on_c, 0, 49, 49
4, 74400, Note_on_c, 0, 49, 0
4, 74640, Note_on_c, 0, 49, 49
4, 74880, Note_on_c, 0, 49, 0
4, 75120, Note_on_c, 0, 49, 49
4, 75360, Note_on_c, 0, 49, 0
4, 75600, Note_on_c, 0, 54, 62
4, 75623, Note_on_c, 0, 54, 0
4, 75840, Note_on_c, 0, 63, 62
4, 75863, Note_on_c, 0, 63, 0
4, 76080, Note_on_c, 0, 59, 62
4, 76103, Note_on_c, 0, 59, 0
4, 76560, Note_on_c, 0, 54, 62
4, 76560, Note_on_c, 0, 66, 62
4, 76583, Note_on_c, 0, 66, 0
4, 76583, Note_on_c, 0, 54, 0
4, 77520, Note_on_c, 0, 49, 49
4, 77760, Note_on_c, 0, 49, 0
4, 78000, Note_on_c, 0, 49, 49
4, 78240, Note_on_c, 0, 49, 0
4, 78480, Note_on_c, 0, 49, 49
4, 78720, Note_on_c, 0, 49, 0
4, 78960, Note_on_c, 0, 49, 49
4, 79200, Note_on_c, 0, 49, 0
4, 79440, Note_on_c, 0, 59, 62
4, 79463, Note_on_c, 0, 59, 0
4, 79680, Note_on_c, 0, 61, 62
4, 79703, Note_on_c, 0, 61, 0
4, 79920, Note_on_c, 0, 49, 62
4, 79943, Note_on_c, 0, 49, 0
4, 80400, Note_on_c, 0, 54, 62
4, 80400, Note_on_c, 0, 58, 62
4, 80423, Note_on_c, 0, 58, 0
4, 80423, Note_on_c, 0, 54, 0
4, 81360, Note_on_c, 0, 49, 49
4, 81600, Note_on_c, 0, 49, 0
4, 81840, Note_on_c, 0, 49, 49
4, 82080, Note_on_c, 0, 49, 0
4, 82320, Note_on_c, 0, 49, 49
4, 82560, Note_on_c, 0, 49, 0
4, 82800, Note_on_c, 0, 49, 49
4, 83040, Note_on_c, 0, 49, 0
4, 83280, Note_on_c, 0, 54, 62
4, 83303, Note_on_c, 0, 54, 0
4, 83520, Note_on_c, 0, 63, 62
4, 83543, Note_on_c, 0, 63, 0
4, 83760, Note_on_c, 0, 59, 62
4, 83783, Note_on_c, 0, 59, 0
4, 84240, Note_on_c, 0, 54, 62
4, 84240, Note_on_c, 0, 66, 62
4, 84263, Note_on_c, 0, 66, 0
4, 84263, Note_on_c, 0, 54, 0
4, 85200, Note_on_c, 0, 49, 49
4, 85440, Note_on_c, 0, 49, 0
4, 85680, Note_on_c, 0, 49, 49
4, 85920, Note_on_c, 0, 49, 0
4, 86160, Note_on_c, 0, 49, 49
4, 86400, Note_on_c, 0, 49, 0
4, 86640, Note_on_c, 0, 49, 49
4, 86880, Note_on_c, 0, 49, 0
4, 87120, Note_on_c, 0, 59, 62
4, 87143, Note_on_c, 0, 59, 0
4, 87360, Note_on_c, 0, 61, 62
4, 87383, Note_on_c, 0, 61, 0
4, 87600, Note_on_c, 0, 49, 62
4, 87623, Note_on_c, 0, 49, 0
4, 88080, Note_on_c, 0, 54, 62
4, 88080, Note_on_c, 0, 58, 62
4, 88103, Note_on_c, 0, 58, 0
4, 88103, Note_on_c, 0, 54, 0
4, 90000, Note_on_c, 0, 49, 75
4, 90000, Note_on_c, 0, 54, 75
4, 90000, Note_on_c, 0, 57, 75
4, 90023, Note_on_c, 0, 57, 0
4, 90023, Note_on_c, 0, 54, 0
4, 90023, Note_on_c, 0, 49, 0
4, 90480, Note_on_c, 0, 49, 75
4, 90480, Note_on_c, 0, 54, 75
4, 90480, Note_on_c, 0, 57, 75
4, 90503, Note_on_c, 0, 57, 0
4, 90503, Note_on_c, 0, 54, 0
4, 90503, Note_on_c, 0, 49, 0
4, 90960, Note_on_c, 0, 49, 75
4, 90960, Note_on_c, 0, 54, 75
4, 90960, Note_on_c, 0, 57, 75
4, 90983, Note_on_c, 0, 57, 0
4, 90983, Note_on_c, 0, 54, 0
4, 90983, Note_on_c, 0, 49, 0
4, 91440, Note_on_c, 0, 49, 75
4, 91440, Note_on_c, 0, 54, 75
4, 91440, Note_on_c, 0, 57, 75
4, 91463, Note_on_c, 0, 57, 0
4, 91463, Note_on_c, 0, 54, 0
4, 91463, Note_on_c, 0, 49, 0
4, 91920, Note_on_c, 0, 50, 101
4, 91920, Note_on_c, 0, 54, 101
4, 91920, Note_on_c, 0, 59, 101
4, 92400, Note_on_c, 0, 59, 0
4, 92400, Note_on_c, 0, 54, 0
4, 92400, Note_on_c, 0, 50, 0
4, 92400, Note_on_c, 0, 50, 75
4, 92400, Note_on_c, 0, 54, 75
4, 92400, Note_on_c, 0, 59, 75
4, 92640, Note_on_c, 0, 59, 0
4, 92640, Note_on_c, 0, 54, 0
4, 92640, Note_on_c, 0, 50, 0
4, 92880, Note_on_c, 0, 49, 75
4, 92880, Note_on_c, 0, 54, 75
4, 92880, Note_on_c, 0, 57, 75
4, 93120, Note_on_c, 0, 57, 0
4, 93120, Note_on_c, 0, 54, 0
4, 93120, Note_on_c, 0, 49, 0
4, 93360, Note_on_c, 0, 49, 75
4, 93360, Note_on_c, 0, 54, 75
4, 93360, Note_on_c, 0, 57, 75
4, 93600, Note_on_c, 0, 57, 0
4, 93600, Note_on_c, 0, 54, 0
4, 93600, Note_on_c, 0, 49, 0
4, 93840, Note_on_c, 0, 47, 101
4, 93840, Note_on_c, 0, 50, 101
4, 93840, Note_on_c, 0, 54, 101
4, 94320, Note_on_c, 0, 54, 0
4, 94320, Note_on_c, 0, 50, 0
4, 94320, Note_on_c, 0, 47, 0
4, 94320, Note_on_c, 0, 47, 75
4, 94320, Note_on_c, 0, 50, 75
4, 94560, Note_on_c, 0, 50, 0
4, 94560, Note_on_c, 0, 47, 0
4, 94800, Note_on_c, 0, 45, 75
4, 94800, Note_on_c, 0, 49, 75
4, 95040, Note_on_c, 0, 49, 0
4, 95040, Note_on_c, 0, 45, 0
4, 95280, Note_on_c, 0, 45, 75
4, 95280, Note_on_c, 0, 49, 75
4, 95520, Note_on_c, 0, 49, 0
4, 95520, Note_on_c, 0, 45, 0
4, 95760, Note_on_c, 0, 49, 75
4, 95760, Note_on_c, 0, 53, 75
4, 96000, Note_on_c, 0, 53, 0
4, 96000, Note_on_c, 0, 49, 0
4, 96240, Note_on_c, 0, 49, 75
4, 96480, Note_on_c, 0, 49, 0
4, 96720, Note_on_c, 0, 45, 75
4, 96720, Note_on_c, 0, 49, 75
4, 96960, Note_on_c, 0, 49, 0
4, 96960, Note_on_c, 0, 45, 0
4, 97200, Note_on_c, 0, 45, 75
4, 97200, Note_on_c, 0, 49, 75
4, 97440, Note_on_c, 0, 49, 0
4, 97440, Note_on_c, 0, 45, 0
4, 97680, Note_on_c, 0, 49, 75
4, 97680, Note_on_c, 0, 54, 75
4, 97680, Note_on_c, 0, 57, 75
4, 97920, Note_on_c, 0, 57, 0
4, 97920, Note_on_c, 0, 54, 0
4, 97920, Note_on_c, 0, 49, 0
4, 98160, Note_on_c, 0, 57, 75
4, 98160, Note_on_c, 0, 61, 75
4, 98400, Note_on_c, 0, 61, 0
4, 98400, Note_on_c, 0, 57, 0
4, 98640, Note_on_c, 0, 57, 75
4, 98640, Note_on_c, 0, 61, 75
4, 98640, Note_on_c, 0, 69, 75
4, 98880, Note_on_c, 0, 69, 0
4, 98880, Note_on_c, 0, 61, 0
4, 98880, Note_on_c, 0, 57, 0
4, 99120, Note_on_c, 0, 57, 75
4, 99120, Note_on_c, 0, 61, 75
4, 99120, Note_on_c, 0, 66, 75
4, 99360, Note_on_c, 0, 66, 0
4, 99360, Note_on_c, 0, 61, 0
4, 99360, Note_on_c, 0, 57, 0
4, 99600, Note_on_c, 0, 56, 101
4, 99600, Note_on_c, 0, 59, 101
4, 99600, Note_on_c, 0, 62, 101
4, 99600, Note_on_c, 0, 65, 101
4, 100080, Note_on_c, 0, 65, 0
4, 100080, Note_on_c, 0, 56, 0
4, 100080, Note_on_c, 0, 59, 0
4, 100080, Note_on_c, 0, 62, 0
4, 100080, Note_on_c, 0, 56, 75
4, 100080, Note_on_c, 0, 59, 75
4, 100080, Note_on_c, 0, 62, 75
4, 100080, Note_on_c, 0, 65, 75
4, 100320, Note_on_c, 0, 65, 0
4, 100320, Note_on_c, 0, 56, 0
4, 100320, Note_on_c, 0, 59, 0
4, 100320, Note_on_c, 0, 62, 0
4, 100560, Note_on_c, 0, 57, 75
4, 100560, Note_on_c, 0, 61, 75
4, 100560, Note_on_c, 0, 66, 75
4, 100800, Note_on_c, 0, 66, 0
4, 100800, Note_on_c, 0, 61, 0
4, 100800, Note_on_c, 0, 57, 0
4, 101040, Note_on_c, 0, 57, 75
4, 101040, Note_on_c, 0, 61, 75
4, 101040, Note_on_c, 0, 66, 75
4, 101280, Note_on_c, 0, 66, 0
4, 101280, Note_on_c, 0, 61, 0
4, 101280, Note_on_c, 0, 57, 0
4, 101520, Note_on_c, 0, 57, 49
4, 101520, Note_on_c, 0, 62, 49
4, 101760, Note_on_c, 0, 62, 0
4, 101760, Note_on_c, 0, 57, 0
4, 102000, Note_on_c, 0, 57, 49
4, 102000, Note_on_c, 0, 61, 49
4, 102000, Note_on_c, 0, 64, 49
4, 102240, Note_on_c, 0, 64, 0
4, 102240, Note_on_c, 0, 61, 0
4, 102240, Note_on_c, 0, 57, 0
4, 102480, Note_on_c, 0, 54, 49
4, 102480, Note_on_c, 0, 59, 49
4, 102480, Note_on_c, 0, 62, 49
4, 102480, Note_on_c, 0, 66, 49
4, 102720, Note_on_c, 0, 66, 0
4, 102720, Note_on_c, 0, 54, 0
4, 102720, Note_on_c, 0, 59, 0
4, 102720, Note_on_c, 0, 62, 0
4, 102960, Note_on_c, 0, 57, 49
4, 102960, Note_on_c, 0, 61, 49
4, 102960, Note_on_c, 0, 64, 49
4, 102960, Note_on_c, 0, 69, 49
4, 103200, Note_on_c, 0, 69, 0
4, 103200, Note_on_c, 0, 57, 0
4, 103200, Note_on_c, 0, 61, 0
4, 103200, Note_on_c, 0, 64, 0
4, 103440, Note_on_c, 0, 61, 49
4, 103440, Note_on_c, 0, 65, 49
4, 103440, Note_on_c, 0, 73, 49
4, 103680, Note_on_c, 0, 73, 0
4, 103680, Note_on_c, 0, 65, 0
4, 103680, Note_on_c, 0, 61, 0
4, 103920, Note_on_c, 0, 59, 49
4, 103920, Note_on_c, 0, 61, 49
4, 103920, Note_on_c, 0, 65, 49
4, 104160, Note_on_c, 0, 65, 0
4, 104160, Note_on_c, 0, 61, 0
4, 104160, Note_on_c, 0, 59, 0
4, 104400, Note_on_c, 0, 57, 49
4, 104400, Note_on_c, 0, 61, 49
4, 104400, Note_on_c, 0, 66, 49
4, 104880, Note_on_c, 0, 66, 0
4, 104880, Note_on_c, 0, 61, 0
4, 104880, Note_on_c, 0, 57, 0
4, 105360, Note_on_c, 0, 54, 75
4, 105360, Note_on_c, 0, 61, 75
4, 105360, Note_on_c, 0, 64, 75
4, 105600, Note_on_c, 0, 64, 0
4, 105600, Note_on_c, 0, 61, 0
4, 105600, Note_on_c, 0, 54, 0
4, 105840, Note_on_c, 0, 54, 75
4, 105840, Note_on_c, 0, 61, 75
4, 105840, Note_on_c, 0, 64, 75
4, 106080, Note_on_c, 0, 64, 0
4, 106080, Note_on_c, 0, 61, 0
4, 106080, Note_on_c, 0, 54, 0
4, 106320, Note_on_c, 0, 54, 75
4, 106320, Note_on_c, 0, 62, 75
4, 106320, Note_on_c, 0, 66, 75
4, 106560, Note_on_c, 0, 66, 0
4, 106560, Note_on_c, 0, 62, 0
4, 106560, Note_on_c, 0, 54, 0
4, 106800, Note_on_c, 0, 54, 75
4, 106800, Note_on_c, 0, 61, 75
4, 106800, Note_on_c, 0, 64, 75
4, 107040, Note_on_c, 0, 64, 0
4, 107040, Note_on_c, 0, 61, 0
4, 107040, Note_on_c, 0, 54, 0
4, 107280, Note_on_c, 0, 54, 75
4, 107280, Note_on_c, 0, 59, 75
4, 107280, Note_on_c, 0, 62, 75
4, 107520, Note_on_c, 0, 62, 0
4, 107520, Note_on_c, 0, 59, 0
4, 107520, Note_on_c, 0, 54, 0
4, 107760, Note_on_c, 0, 54, 75
4, 107760, Note_on_c, 0, 59, 75
4, 107760, Note_on_c, 0, 62, 75
4, 108000, Note_on_c, 0, 62, 0
4, 108000, Note_on_c, 0, 59, 0
4, 108000, Note_on_c, 0, 54, 0
4, 108240, Note_on_c, 0, 54, 75
4, 108240, Note_on_c, 0, 59, 75
4, 108240, Note_on_c, 0, 62, 75
4, 108480, Note_on_c, 0, 62, 0
4, 108480, Note_on_c, 0, 59, 0
4, 108480, Note_on_c, 0, 54, 0
4, 108720, Note_on_c, 0, 54, 75
4, 108720, Note_on_c, 0, 59, 75
4, 108720, Note_on_c, 0, 62, 75
4, 108960, Note_on_c, 0, 62, 0
4, 108960, Note_on_c, 0, 59, 0
4, 108960, Note_on_c, 0, 54, 0
4, 109200, Note_on_c, 0, 52, 75
4, 109200, Note_on_c, 0, 59, 75
4, 109200, Note_on_c, 0, 62, 75
4, 109440, Note_on_c, 0, 62, 0
4, 109440, Note_on_c, 0, 59, 0
4, 109440, Note_on_c, 0, 52, 0
4, 109680, Note_on_c, 0, 52, 75
4, 109680, Note_on_c, 0, 59, 75
4, 109680, Note_on_c, 0, 62, 75
4, 109920, Note_on_c, 0, 62, 0
4, 109920, Note_on_c, 0, 59, 0
4, 109920, Note_on_c, 0, 52, 0
4, 110160, Note_on_c, 0, 52, 75
4, 110160, Note_on_c, 0, 61, 75
4, 110160, Note_on_c, 0, 64, 75
4, 110400, Note_on_c, 0, 64, 0
4, 110400, Note_on_c, 0, 61, 0
4, 110400, Note_on_c, 0, 52, 0
4, 110640, Note_on_c, 0, 52, 75
4, 110640, Note_on_c, 0, 59, 75
4, 110640, Note_on_c, 0, 62, 75
4, 110880, Note_on_c, 0, 62, 0
4, 110880, Note_on_c, 0, 59, 0
4, 110880, Note_on_c, 0, 52, 0
4, 111120, Note_on_c, 0, 52, 75
4, 111120, Note_on_c, 0, 57, 75
4, 111120, Note_on_c, 0, 61, 75
4, 111360, Note_on_c, 0, 61, 0
4, 111360, Note_on_c, 0, 57, 0
4, 111360, Note_on_c, 0, 52, 0
4, 111600, Note_on_c, 0, 52, 75
4, 111600, Note_on_c, 0, 57, 75
4, 111600, Note_on_c, 0, 61, 75
4, 111840, Note_on_c, 0, 61, 0
4, 111840, Note_on_c, 0, 57, 0
4, 111840, Note_on_c, 0, 52, 0
4, 112080, Note_on_c, 0, 52, 75
4, 112080, Note_on_c, 0, 57, 75
4, 112080, Note_on_c, 0, 61, 75
4, 112320, Note_on_c, 0, 61, 0
4, 112320, Note_on_c, 0, 57, 0
4, 112320, Note_on_c, 0, 52, 0
4, 112560, Note_on_c, 0, 52, 75
4, 112560, Note_on_c, 0, 57, 75
4, 112560, Note_on_c, 0, 61, 75
4, 112800, Note_on_c, 0, 61, 0
4, 112800, Note_on_c, 0, 57, 0
4, 112800, Note_on_c, 0, 52, 0
4, 113040, Note_on_c, 0, 49, 49
4, 113040, Note_on_c, 0, 59, 49
4, 113280, Note_on_c, 0, 59, 0
4, 113280, Note_on_c, 0, 49, 0
4, 113520, Note_on_c, 0, 49, 49
4, 113520, Note_on_c, 0, 59, 49
4, 113760, Note_on_c, 0, 59, 0
4, 113760, Note_on_c, 0, 49, 0
4, 114000, Note_on_c, 0, 49, 49
4, 114000, Note_on_c, 0, 61, 49
4, 114240, Note_on_c, 0, 61, 0
4, 114240, Note_on_c, 0, 49, 0
4, 114480, Note_on_c, 0, 49, 49
4, 114480, Note_on_c, 0, 59, 49
4, 114720, Note_on_c, 0, 59, 0
4, 114720, Note_on_c, 0, 49, 0
4, 114960, Note_on_c, 0, 50, 49
4, 114960, Note_on_c, 0, 57, 49
4, 115200, Note_on_c, 0, 57, 0
4, 115200, Note_on_c, 0, 50, 0
4, 115440, Note_on_c, 0, 50, 49
4, 115440, Note_on_c, 0, 56, 49
4, 115680, Note_on_c, 0, 56, 0
4, 115680, Note_on_c, 0, 50, 0
4, 115920, Note_on_c, 0, 50, 49
4, 115920, Note_on_c, 0, 53, 49
4, 115920, Note_on_c, 0, 59, 49
4, 116160, Note_on_c, 0, 59, 0
4, 116160, Note_on_c, 0, 53, 0
4, 116160, Note_on_c, 0, 50, 0
4, 116400, Note_on_c, 0, 49, 49
4, 116400, Note_on_c, 0, 54, 49
4, 116400, Note_on_c, 0, 57, 49
4, 116640, Note_on_c, 0, 57, 0
4, 116640, Note_on_c, 0, 54, 0
4, 116640, Note_on_c, 0, 49, 0
4, 116640, Note_on_c, 0, 53, 101
4, 116640, Note_on_c, 0, 56, 101
4, 116640, Note_on_c, 0, 61, 101
4, 116640, Note_on_c, 0, 65, 101
4, 116663, Note_on_c, 0, 65, 0
4, 116663, Note_on_c, 0, 53, 0
4, 116663, Note_on_c, 0, 56, 0
4, 116663, Note_on_c, 0, 61, 0
4, 117480, Note_on_c, 0, 49, 75
4, 117480, Note_on_c, 0, 61, 75
4, 117495, Note_on_c, 0, 61, 0
4, 117495, Note_on_c, 0, 49, 0
4, 117600, Note_on_c, 0, 51, 75
4, 117600, Note_on_c, 0, 63, 75
4, 117623, Note_on_c, 0, 63, 0
4, 117623, Note_on_c, 0, 51, 0
4, 118080, Note_on_c, 0, 53, 75
4, 118080, Note_on_c, 0, 65, 75
4, 118103, Note_on_c, 0, 65, 0
4, 118103, Note_on_c, 0, 53, 0
4, 118560, Note_on_c, 0, 54, 75
4, 118560, Note_on_c, 0, 57, 75
4, 118560, Note_on_c, 0, 61, 75
4, 118560, Note_on_c, 0, 66, 75
4, 118583, Note_on_c, 0, 66, 0
4, 118583, Note_on_c, 0, 54, 0
4, 118583, Note_on_c, 0, 57, 0
4, 118583, Note_on_c, 0, 61, 0
4, 118800, Note_on_c, 0, 54, 101
4, 118800, Note_on_c, 0, 57, 101
4, 118800, Note_on_c, 0, 61, 101
4, 118800, Note_on_c, 0, 66, 101
4, 119280, Note_on_c, 0, 66, 0
4, 119280, Note_on_c, 0, 54, 0
4, 119280, Note_on_c, 0, 57, 0
4, 119280, Note_on_c, 0, 61, 0
4, 119280, Note_on_c, 0, 57, 75
4, 119280, Note_on_c, 0, 61, 75
4, 119520, Note_on_c, 0, 61, 0
4, 119520, Note_on_c, 0, 57, 0
4, 119520, Note_on_c, 0, 56, 101
4, 119520, Note_on_c, 0, 59, 101
4, 119520, Note_on_c, 0, 62, 101
4, 119520, Note_on_c, 0, 65, 101
4, 120000, Note_on_c, 0, 65, 0
4, 120000, Note_on_c, 0, 56, 0
4, 120000, Note_on_c, 0, 59, 0
4, 120000, Note_on_c, 0, 62, 0
4, 120000, Note_on_c, 0, 57, 75
4, 120000, Note_on_c, 0, 61, 75
4, 120000, Note_on_c, 0, 66, 75
4, 120023, Note_on_c, 0, 66, 0
4, 120023, Note_on_c, 0, 61, 0
4, 120023, Note_on_c, 0, 57, 0
4, 120480, Note_on_c, 0, 56, 101
4, 120480, Note_on_c, 0, 62, 101
4, 120480, Note_on_c, 0, 66, 101
4, 120527, Note_on_c, 0, 66, 0
4, 120527, Note_on_c, 0, 62, 0
4, 120527, Note_on_c, 0, 56, 0
4, 120960, Note_on_c, 0, 56, 101
4, 120960, Note_on_c, 0, 59, 101
4, 120960, Note_on_c, 0, 61, 101
4, 120960, Note_on_c, 0, 65, 101
4, 121007, Note_on_c, 0, 65, 0
4, 121007, Note_on_c, 0, 56, 0
4, 121007, Note_on_c, 0, 59, 0
4, 121007, Note_on_c, 0, 61, 0
4, 121440, Note_on_c, 0, 54, 101
4, 121440, Note_on_c, 0, 57, 101
4, 121440, Note_on_c, 0, 61, 101
4, 121440, Note_on_c, 0, 66, 101
4, 124320, Note_on_c, 0, 66, 0
4, 124320, Note_on_c, 0, 54, 0
4, 124320, Note_on_c, 0, 57, 0
4, 124320, Note_on_c, 0, 61, 0
4, 124320, End_track
5, 0, Start_track
5, 0, Title_t, "Instrument19"
5, 0, Program_c, 0, 0
5, 0, Control_c, 0, 7, 110
5, 0, Control_c, 0, 10, 30
5, 0, Note_on_c, 0, 42, 88
5, 47, Note_on_c, 0, 42, 0
5, 480, Note_on_c, 0, 37, 88
5, 527, Note_on_c, 0, 37, 0
5, 960, Note_on_c, 0, 42, 88
5, 1007, Note_on_c, 0, 42, 0
5, 1440, Note_on_c, 0, 37, 88
5, 1487, Note_on_c, 0, 37, 0
5, 1920, Note_on_c, 0, 42, 88
5, 1967, Note_on_c, 0, 42, 0
5, 2400, Note_on_c, 0, 35, 88
5, 2447, Note_on_c, 0, 35, 0
5, 2880, Note_on_c, 0, 42, 88
5, 2927, Note_on_c, 0, 42, 0
5, 3360, Note_on_c, 0, 37, 88
5, 3407, Note_on_c, 0, 37, 0
5, 3840, Note_on_c, 0, 42, 88
5, 3887, Note_on_c, 0, 42, 0
5, 4320, Note_on_c, 0, 35, 88
5, 4367, Note_on_c, 0, 35, 0
5, 4800, Note_on_c, 0, 42, 88
5, 4847, Note_on_c, 0, 42, 0
5, 5280, Note_on_c, 0, 37, 88
5, 5327, Note_on_c, 0, 37, 0
5, 5760, Note_on_c, 0, 41, 88
5, 5807, Note_on_c, 0, 41, 0
5, 6240, Note_on_c, 0, 37, 88
5, 6287, Note_on_c, 0, 37, 0
5, 6720, Note_on_c, 0, 42, 88
5, 6767, Note_on_c, 0, 42, 0
5, 7200, Note_on_c, 0, 37, 88
5, 7247, Note_on_c, 0, 37, 0
5, 7680, Note_on_c, 0, 42, 88
5, 7727, Note_on_c, 0, 42, 0
5, 8160, Note_on_c, 0, 37, 88
5, 8207, Note_on_c, 0, 37, 0
5, 8640, Note_on_c, 0, 42, 88
5, 8687, Note_on_c, 0, 42, 0
5, 9120, Note_on_c, 0, 37, 88
5, 9167, Note_on_c, 0, 37, 0
5, 9600, Note_on_c, 0, 42, 88
5, 9647, Note_on_c, 0, 42, 0
5, 10080, Note_on_c, 0, 35, 88
5, 10127, Note_on_c, 0, 35, 0
5, 10560, Note_on_c, 0, 42, 62
5, 10607, Note_on_c, 0, 42, 0
5, 11040, Note_on_c, 0, 30, 62
5, 11087, Note_on_c, 0, 30, 0
5, 11520, Note_on_c, 0, 54, 62
5, 11567, Note_on_c, 0, 54, 0
5, 12000, Note_on_c, 0, 52, 62
5, 12047, Note_on_c, 0, 52, 0
5, 12480, Note_on_c, 0, 50, 62
5, 12527, Note_on_c, 0, 50, 0
5, 12960, Note_on_c, 0, 49, 62
5, 13007, Note_on_c, 0, 49, 0
5, 13440, Note_on_c, 0, 37, 62
5, 13487, Note_on_c, 0, 37, 0
5, 13920, Note_on_c, 0, 49, 62
5, 13967, Note_on_c, 0, 49, 0
5, 14400, Note_on_c, 0, 42, 62
5, 14447, Note_on_c, 0, 42, 0
5, 14880, Note_on_c, 0, 30, 114
5, 14880, Note_on_c, 0, 42, 114
5, 14903, Note_on_c, 0, 42, 0
5, 14903, Note_on_c, 0, 30, 0
5, 15360, Note_on_c, 0, 42, 88
5, 15407, Note_on_c, 0, 42, 0
5, 15840, Note_on_c, 0, 37, 88
5, 15887, Note_on_c, 0, 37, 0
5, 16320, Note_on_c, 0, 42, 88
5, 16367, Note_on_c, 0, 42, 0
5, 16800, Note_on_c, 0, 37, 88
5, 16847, Note_on_c, 0, 37, 0
5, 17280, Note_on_c, 0, 42, 88
5, 17327, Note_on_c, 0, 42, 0
5, 17760, Note_on_c, 0, 35, 88
5, 17807, Note_on_c, 0, 35, 0
5, 18240, Note_on_c, 0, 42, 88
5, 18287, Note_on_c, 0, 42, 0
5, 18720, Note_on_c, 0, 37, 88
5, 18767, Note_on_c, 0, 37, 0
5, 19200, Note_on_c, 0, 42, 88
5, 19247, Note_on_c, 0, 42, 0
5, 19680, Note_on_c, 0, 35, 88
5, 19727, Note_on_c, 0, 35, 0
5, 20160, Note_on_c, 0, 42, 88
5, 20207, Note_on_c, 0, 42, 0
5, 20640, Note_on_c, 0, 37, 88
5, 20687, Note_on_c, 0, 37, 0
5, 21120, Note_on_c, 0, 41, 88
5, 21167, Note_on_c, 0, 41, 0
5, 21600, Note_on_c, 0, 37, 88
5, 21647, Note_on_c, 0, 37, 0
5, 22080, Note_on_c, 0, 42, 88
5, 22127, Note_on_c, 0, 42, 0
5, 22560, Note_on_c, 0, 37, 88
5, 22607, Note_on_c, 0, 37, 0
5, 23040, Note_on_c, 0, 42, 88
5, 23087, Note_on_c, 0, 42, 0
5, 23520, Note_on_c, 0, 37, 88
5, 23520, Note_on_c, 0, 49, 88
5, 23567, Note_on_c, 0, 49, 0
5, 23567, Note_on_c, 0, 37, 0
5, 24000, Note_on_c, 0, 42, 88
5, 24000, Note_on_c, 0, 54, 88
5, 24047, Note_on_c, 0, 54, 0
5, 24047, Note_on_c, 0, 42, 0
5, 24480, Note_on_c, 0, 37, 88
5, 24480, Note_on_c, 0, 49, 88
5, 24527, Note_on_c, 0, 49, 0
5, 24527, Note_on_c, 0, 37, 0
5, 24960, Note_on_c, 0, 42, 88
5, 24960, Note_on_c, 0, 54, 88
5, 25007, Note_on_c, 0, 54, 0
5, 25007, Note_on_c, 0, 42, 0
5, 25440, Note_on_c, 0, 35, 88
5, 25440, Note_on_c, 0, 47, 88
5, 25487, Note_on_c, 0, 47, 0
5, 25487, Note_on_c, 0, 35, 0
5, 25920, Note_on_c, 0, 42, 88
5, 25920, Note_on_c, 0, 54, 88
5, 25967, Note_on_c, 0, 54, 0
5, 25967, Note_on_c, 0, 42, 0
5, 26400, Note_on_c, 0, 42, 88
5, 26447, Note_on_c, 0, 42, 0
5, 26880, Note_on_c, 0, 54, 62
5, 26927, Note_on_c, 0, 54, 0
5, 27360, Note_on_c, 0, 52, 62
5, 27407, Note_on_c, 0, 52, 0
5, 27840, Note_on_c, 0, 50, 62
5, 27887, Note_on_c, 0, 50, 0
5, 28320, Note_on_c, 0, 49, 62
5, 28367, Note_on_c, 0, 49, 0
5, 28800, Note_on_c, 0, 37, 62
5, 28847, Note_on_c, 0, 37, 0
5, 29280, Note_on_c, 0, 49, 62
5, 29327, Note_on_c, 0, 49, 0
5, 29760, Note_on_c, 0, 42, 62
5, 29807, Note_on_c, 0, 42, 0
5, 30240, Note_on_c, 0, 30, 88
5, 30240, Note_on_c, 0, 42, 88
5, 30263, Note_on_c, 0, 42, 0
5, 30263, Note_on_c, 0, 30, 0
5, 30720, Note_on_c, 0, 34, 88
5, 30720, Note_on_c, 0, 46, 88
5, 30767, Note_on_c, 0, 46, 0
5, 30767, Note_on_c, 0, 34, 0
5, 31200, Note_on_c, 0, 30, 88
5, 31200, Note_on_c, 0, 42, 88
5, 31247, Note_on_c, 0, 42, 0
5, 31247, Note_on_c, 0, 30, 0
5, 31680, Note_on_c, 0, 34, 88
5, 31680, Note_on_c, 0, 46, 88
5, 31727, Note_on_c, 0, 46, 0
5, 31727, Note_on_c, 0, 34, 0
5, 32160, Note_on_c, 0, 30, 88
5, 32160, Note_on_c, 0, 42, 88
5, 32207, Note_on_c, 0, 42, 0
5, 32207, Note_on_c, 0, 30, 0
5, 32640, Note_on_c, 0, 35, 88
5, 32640, Note_on_c, 0, 47, 88
5, 32687, Note_on_c, 0, 47, 0
5, 32687, Note_on_c, 0, 35, 0
5, 33120, Note_on_c, 0, 30, 88
5, 33120, Note_on_c, 0, 42, 88
5, 33167, Note_on_c, 0, 42, 0
5, 33167, Note_on_c, 0, 30, 0
5, 33600, Note_on_c, 0, 35, 88
5, 33600, Note_on_c, 0, 47, 88
5, 33647, Note_on_c, 0, 47, 0
5, 33647, Note_on_c, 0, 35, 0
5, 34080, Note_on_c, 0, 33, 88
5, 34080, Note_on_c, 0, 45, 88
5, 34127, Note_on_c, 0, 45, 0
5, 34127, Note_on_c, 0, 33, 0
5, 34560, Note_on_c, 0, 32, 88
5, 34560, Note_on_c, 0, 44, 88
5, 34607, Note_on_c, 0, 44, 0
5, 34607, Note_on_c, 0, 32, 0
5, 35040, Note_on_c, 0, 28, 88
5, 35040, Note_on_c, 0, 40, 88
5, 35087, Note_on_c, 0, 40, 0
5, 35087, Note_on_c, 0, 28, 0
5, 35520, Note_on_c, 0, 32, 88
5, 35520, Note_on_c, 0, 44, 88
5, 35567, Note_on_c, 0, 44, 0
5, 35567, Note_on_c, 0, 32, 0
5, 36000, Note_on_c, 0, 28, 88
5, 36000, Note_on_c, 0, 40, 88
5, 36047, Note_on_c, 0, 40, 0
5, 36047, Note_on_c, 0, 28, 0
5, 36480, Note_on_c, 0, 33, 88
5, 36480, Note_on_c, 0, 45, 88
5, 36527, Note_on_c, 0, 45, 0
5, 36527, Note_on_c, 0, 33, 0
5, 36960, Note_on_c, 0, 28, 88
5, 36960, Note_on_c, 0, 40, 88
5, 37007, Note_on_c, 0, 40, 0
5, 37007, Note_on_c, 0, 28, 0
5, 37440, Note_on_c, 0, 33, 88
5, 37440, Note_on_c, 0, 45, 88
5, 37487, Note_on_c, 0, 45, 0
5, 37487, Note_on_c, 0, 33, 0
5, 37920, Note_on_c, 0, 37, 88
5, 37920, Note_on_c, 0, 49, 88
5, 37967, Note_on_c, 0, 49, 0
5, 37967, Note_on_c, 0, 37, 0
5, 38400, Note_on_c, 0, 41, 62
5, 38447, Note_on_c, 0, 41, 0
5, 38880, Note_on_c, 0, 37, 62
5, 38927, Note_on_c, 0, 37, 0
5, 39360, Note_on_c, 0, 41, 62
5, 39407, Note_on_c, 0, 41, 0
5, 39840, Note_on_c, 0, 37, 62
5, 39887, Note_on_c, 0, 37, 0
5, 40320, Note_on_c, 0, 38, 62
5, 40367, Note_on_c, 0, 38, 0
5, 40800, Note_on_c, 0, 33, 62
5, 40847, Note_on_c, 0, 33, 0
5, 41280, Note_on_c, 0, 38, 62
5, 41327, Note_on_c, 0, 38, 0
5, 41760, Note_on_c, 0, 33, 62
5, 41807, Note_on_c, 0, 33, 0
5, 42240, Note_on_c, 0, 25, 88
5, 42240, Note_on_c, 0, 37, 88
5, 42480, Note_on_c, 0, 37, 0
5, 42480, Note_on_c, 0, 25, 0
5, 43080, Note_on_c, 0, 37, 88
5, 43095, Note_on_c, 0, 37, 0
5, 43200, Note_on_c, 0, 39, 88
5, 43223, Note_on_c, 0, 39, 0
5, 43680, Note_on_c, 0, 41, 88
5, 43703, Note_on_c, 0, 41, 0
5, 44160, Note_on_c, 0, 30, 88
5, 44160, Note_on_c, 0, 42, 88
5, 44183, Note_on_c, 0, 42, 0
5, 44183, Note_on_c, 0, 30, 0
5, 45120, Note_on_c, 0, 30, 114
5, 45120, Note_on_c, 0, 42, 114
5, 45600, Note_on_c, 0, 42, 0
5, 45600, Note_on_c, 0, 30, 0
5, 45600, Note_on_c, 0, 42, 88
5, 45623, Note_on_c, 0, 42, 0
5, 46080, Note_on_c, 0, 34, 88
5, 46080, Note_on_c, 0, 46, 88
5, 46127, Note_on_c, 0, 46, 0
5, 46127, Note_on_c, 0, 34, 0
5, 46560, Note_on_c, 0, 30, 88
5, 46560, Note_on_c, 0, 42, 88
5, 46607, Note_on_c, 0, 42, 0
5, 46607, Note_on_c, 0, 30, 0
5, 47040, Note_on_c, 0, 34, 88
5, 47040, Note_on_c, 0, 46, 88
5, 47087, Note_on_c, 0, 46, 0
5, 47087, Note_on_c, 0, 34, 0
5, 47520, Note_on_c, 0, 30, 88
5, 47520, Note_on_c, 0, 42, 88
5, 47567, Note_on_c, 0, 42, 0
5, 47567, Note_on_c, 0, 30, 0
5, 48000, Note_on_c, 0, 35, 88
5, 48000, Note_on_c, 0, 47, 88
5, 48047, Note_on_c, 0, 47, 0
5, 48047, Note_on_c, 0, 35, 0
5, 48480, Note_on_c, 0, 30, 88
5, 48480, Note_on_c, 0, 42, 88
5, 48527, Note_on_c, 0, 42, 0
5, 48527, Note_on_c, 0, 30, 0
5, 48960, Note_on_c, 0, 35, 88
5, 48960, Note_on_c, 0, 47, 88
5, 49007, Note_on_c, 0, 47, 0
5, 49007, Note_on_c, 0, 35, 0
5, 49440, Note_on_c, 0, 33, 88
5, 49440, Note_on_c, 0, 45, 88
5, 49487, Note_on_c, 0, 45, 0
5, 49487, Note_on_c, 0, 33, 0
5, 49920, Note_on_c, 0, 32, 88
5, 49920, Note_on_c, 0, 44, 88
5, 49967, Note_on_c, 0, 44, 0
5, 49967, Note_on_c, 0, 32, 0
5, 50400, Note_on_c, 0, 28, 88
5, 50400, Note_on_c, 0, 40, 88
5, 50447, Note_on_c, 0, 40, 0
5, 50447, Note_on_c, 0, 28, 0
5, 50880, Note_on_c, 0, 32, 88
5, 50880, Note_on_c, 0, 44, 88
5, 50927, Note_on_c, 0, 44, 0
5, 50927, Note_on_c, 0, 32, 0
5, 51360, Note_on_c, 0, 28, 88
5, 51360, Note_on_c, 0, 40, 88
5, 51407, Note_on_c, 0, 40, 0
5, 51407, Note_on_c, 0, 28, 0
5, 51840, Note_on_c, 0, 33, 88
5, 51840, Note_on_c, 0, 45, 88
5, 51887, Note_on_c, 0, 45, 0
5, 51887, Note_on_c, 0, 33, 0
5, 52320, Note_on_c, 0, 28, 88
5, 52320, Note_on_c, 0, 40, 88
5, 52367, Note_on_c, 0, 40, 0
5, 52367, Note_on_c, 0, 28, 0
5, 52800, Note_on_c, 0, 33, 88
5, 52800, Note_on_c, 0, 45, 88
5, 52847, Note_on_c, 0, 45, 0
5, 52847, Note_on_c, 0, 33, 0
5, 53280, Note_on_c, 0, 37, 88
5, 53280, Note_on_c, 0, 49, 88
5, 53327, Note_on_c, 0, 49, 0
5, 53327, Note_on_c, 0, 37, 0
5, 53760, Note_on_c, 0, 41, 62
5, 53807, Note_on_c, 0, 41, 0
5, 54240, Note_on_c, 0, 37, 62
5, 54287, Note_on_c, 0, 37, 0
5, 54720, Note_on_c, 0, 41, 62
5, 54767, Note_on_c, 0, 41, 0
5, 55200, Note_on_c, 0, 37, 62
5, 55247, Note_on_c, 0, 37, 0
5, 55680, Note_on_c, 0, 38, 62
5, 55727, Note_on_c, 0, 38, 0
5, 56160, Note_on_c, 0, 33, 62
5, 56207, Note_on_c, 0, 33, 0
5, 56640, Note_on_c, 0, 38, 62
5, 56687, Note_on_c, 0, 38, 0
5, 57120, Note_on_c, 0, 33, 62
5, 57167, Note_on_c, 0, 33, 0
5, 57600, Note_on_c, 0, 25, 88
5, 57600, Note_on_c, 0, 37, 88
5, 57840, Note_on_c, 0, 37, 0
5, 57840, Note_on_c, 0, 25, 0
5, 58440, Note_on_c, 0, 37, 88
5, 58455, Note_on_c, 0, 37, 0
5, 58560, Note_on_c, 0, 39, 88
5, 58583, Note_on_c, 0, 39, 0
5, 59040, Note_on_c, 0, 41, 88
5, 59063, Note_on_c, 0, 41, 0
5, 59520, Note_on_c, 0, 30, 88
5, 59520, Note_on_c, 0, 42, 88
5, 59543, Note_on_c, 0, 42, 0
5, 59543, Note_on_c, 0, 30, 0
5, 60480, Note_on_c, 0, 30, 114
5, 60480, Note_on_c, 0, 42, 114
5, 60960, Note_on_c, 0, 42, 0
5, 60960, Note_on_c, 0, 30, 0
5, 60960, Note_on_c, 0, 42, 88
5, 60983, Note_on_c, 0, 42, 0
5, 61440, Note_on_c, 0, 30, 114
5, 61620, Note_on_c, 0, 37, 88
5, 61680, Note_on_c, 0, 30, 0
5, 61680, Note_on_c, 0, 42, 88
5, 61920, Note_on_c, 0, 42, 0
5, 61920, Note_on_c, 0, 37, 0
5, 61920, Note_on_c, 0, 30, 114
5, 62100, Note_on_c, 0, 37, 88
5, 62160, Note_on_c, 0, 30, 0
5, 62160, Note_on_c, 0, 42, 88
5, 62400, Note_on_c, 0, 42, 0
5, 62400, Note_on_c, 0, 37, 0
5, 62400, Note_on_c, 0, 30, 114
5, 62580, Note_on_c, 0, 37, 88
5, 62640, Note_on_c, 0, 30, 0
5, 62640, Note_on_c, 0, 42, 88
5, 62880, Note_on_c, 0, 42, 0
5, 62880, Note_on_c, 0, 37, 0
5, 62880, Note_on_c, 0, 30, 114
5, 63060, Note_on_c, 0, 37, 88
5, 63120, Note_on_c, 0, 30, 0
5, 63120, Note_on_c, 0, 42, 88
5, 63360, Note_on_c, 0, 42, 0
5, 63360, Note_on_c, 0, 37, 0
5, 63360, Note_on_c, 0, 30, 114
5, 63540, Note_on_c, 0, 37, 88
5, 63600, Note_on_c, 0, 30, 0
5, 63600, Note_on_c, 0, 42, 88
5, 63840, Note_on_c, 0, 42, 0
5, 63840, Note_on_c, 0, 37, 0
5, 63840, Note_on_c, 0, 30, 114
5, 64020, Note_on_c, 0, 37, 88
5, 64080, Note_on_c, 0, 30, 0
5, 64080, Note_on_c, 0, 42, 88
5, 64320, Note_on_c, 0, 42, 0
5, 64320, Note_on_c, 0, 37, 0
5, 64320, Note_on_c, 0, 30, 114
5, 64500, Note_on_c, 0, 37, 88
5, 64560, Note_on_c, 0, 30, 0
5, 64560, Note_on_c, 0, 42, 88
5, 64800, Note_on_c, 0, 42, 0
5, 64800, Note_on_c, 0, 37, 0
5, 64800, Note_on_c, 0, 30, 114
5, 64980, Note_on_c, 0, 37, 88
5, 65040, Note_on_c, 0, 30, 0
5, 65040, Note_on_c, 0, 42, 88
5, 65280, Note_on_c, 0, 42, 0
5, 65280, Note_on_c, 0, 37, 0
5, 65280, Note_on_c, 0, 30, 114
5, 65460, Note_on_c, 0, 37, 88
5, 65520, Note_on_c, 0, 30, 0
5, 65520, Note_on_c, 0, 42, 88
5, 65760, Note_on_c, 0, 42, 0
5, 65760, Note_on_c, 0, 37, 0
5, 65760, Note_on_c, 0, 30, 114
5, 65940, Note_on_c, 0, 37, 88
5, 66000, Note_on_c, 0, 30, 0
5, 66000, Note_on_c, 0, 42, 88
5, 66240, Note_on_c, 0, 42, 0
5, 66240, Note_on_c, 0, 37, 0
5, 66240, Note_on_c, 0, 30, 114
5, 66420, Note_on_c, 0, 37, 88
5, 66480, Note_on_c, 0, 30, 0
5, 66480, Note_on_c, 0, 42, 88
5, 66720, Note_on_c, 0, 42, 0
5, 66720, Note_on_c, 0, 37, 0
5, 66720, Note_on_c, 0, 30, 114
5, 66900, Note_on_c, 0, 37, 88
5, 66960, Note_on_c, 0, 30, 0
5, 66960, Note_on_c, 0, 42, 88
5, 67200, Note_on_c, 0, 42, 0
5, 67200, Note_on_c, 0, 37, 0
5, 67200, Note_on_c, 0, 30, 114
5, 67380, Note_on_c, 0, 37, 88
5, 67440, Note_on_c, 0, 30, 0
5, 67440, Note_on_c, 0, 42, 88
5, 67680, Note_on_c, 0, 42, 0
5, 67680, Note_on_c, 0, 37, 0
5, 67680, Note_on_c, 0, 30, 114
5, 67860, Note_on_c, 0, 37, 88
5, 67920, Note_on_c, 0, 30, 0
5, 67920, Note_on_c, 0, 42, 88
5, 68160, Note_on_c, 0, 42, 0
5, 68160, Note_on_c, 0, 37, 0
5, 68160, Note_on_c, 0, 30, 114
5, 68340, Note_on_c, 0, 37, 88
5, 68400, Note_on_c, 0, 30, 0
5, 68400, Note_on_c, 0, 42, 88
5, 68640, Note_on_c, 0, 42, 0
5, 68640, Note_on_c, 0, 37, 0
5, 68640, Note_on_c, 0, 30, 114
5, 68820, Note_on_c, 0, 37, 88
5, 68880, Note_on_c, 0, 30, 0
5, 68880, Note_on_c, 0, 42, 88
5, 69120, Note_on_c, 0, 42, 0
5, 69120, Note_on_c, 0, 37, 0
5, 69120, Note_on_c, 0, 30, 114
5, 69300, Note_on_c, 0, 37, 88
5, 69360, Note_on_c, 0, 30, 0
5, 69360, Note_on_c, 0, 42, 88
5, 69600, Note_on_c, 0, 42, 0
5, 69600, Note_on_c, 0, 37, 0
5, 69600, Note_on_c, 0, 30, 114
5, 69780, Note_on_c, 0, 37, 88
5, 69840, Note_on_c, 0, 30, 0
5, 69840, Note_on_c, 0, 42, 88
5, 70080, Note_on_c, 0, 42, 0
5, 70080, Note_on_c, 0, 37, 0
5, 70080, Note_on_c, 0, 30, 114
5, 70260, Note_on_c, 0, 37, 88
5, 70320, Note_on_c, 0, 30, 0
5, 70320, Note_on_c, 0, 42, 88
5, 70560, Note_on_c, 0, 42, 0
5, 70560, Note_on_c, 0, 37, 0
5, 70560, Note_on_c, 0, 30, 114
5, 70740, Note_on_c, 0, 37, 88
5, 70800, Note_on_c, 0, 30, 0
5, 70800, Note_on_c, 0, 42, 88
5, 71040, Note_on_c, 0, 42, 0
5, 71040, Note_on_c, 0, 37, 0
5, 71040, Note_on_c, 0, 30, 114
5, 71220, Note_on_c, 0, 37, 88
5, 71280, Note_on_c, 0, 30, 0
5, 71280, Note_on_c, 0, 42, 88
5, 71520, Note_on_c, 0, 42, 0
5, 71520, Note_on_c, 0, 37, 0
5, 71520, Note_on_c, 0, 30, 114
5, 71700, Note_on_c, 0, 37, 88
5, 71760, Note_on_c, 0, 30, 0
5, 71760, Note_on_c, 0, 42, 88
5, 72000, Note_on_c, 0, 42, 0
5, 72000, Note_on_c, 0, 37, 0
5, 72000, Note_on_c, 0, 30, 114
5, 72180, Note_on_c, 0, 37, 88
5, 72240, Note_on_c, 0, 30, 0
5, 72240, Note_on_c, 0, 42, 88
5, 72480, Note_on_c, 0, 42, 0
5, 72480, Note_on_c, 0, 37, 0
5, 72480, Note_on_c, 0, 30, 114
5, 72660, Note_on_c, 0, 37, 88
5, 72720, Note_on_c, 0, 30, 0
5, 72720, Note_on_c, 0, 42, 88
5, 72960, Note_on_c, 0, 42, 0
5, 72960, Note_on_c, 0, 37, 0
5, 73440, Note_on_c, 0, 30, 75
5, 73620, Note_on_c, 0, 37, 49
5, 73680, Note_on_c, 0, 30, 0
5, 73680, Note_on_c, 0, 42, 49
5, 73920, Note_on_c, 0, 42, 0
5, 73920, Note_on_c, 0, 37, 0
5, 73920, Note_on_c, 0, 30, 75
5, 74100, Note_on_c, 0, 37, 49
5, 74160, Note_on_c, 0, 30, 0
5, 74160, Note_on_c, 0, 42, 49
5, 74400, Note_on_c, 0, 42, 0
5, 74400, Note_on_c, 0, 37, 0
5, 74400, Note_on_c, 0, 30, 75
5, 74580, Note_on_c, 0, 37, 49
5, 74640, Note_on_c, 0, 30, 0
5, 74640, Note_on_c, 0, 42, 49
5, 74880, Note_on_c, 0, 42, 0
5, 74880, Note_on_c, 0, 37, 0
5, 74880, Note_on_c, 0, 30, 75
5, 75060, Note_on_c, 0, 37, 49
5, 75120, Note_on_c, 0, 30, 0
5, 75120, Note_on_c, 0, 42, 49
5, 75360, Note_on_c, 0, 42, 0
5, 75360, Note_on_c, 0, 37, 0
5, 75360, Note_on_c, 0, 30, 62
5, 75383, Note_on_c, 0, 30, 0
5, 75600, Note_on_c, 0, 42, 62
5, 75623, Note_on_c, 0, 42, 0
5, 75840, Note_on_c, 0, 39, 62
5, 75863, Note_on_c, 0, 39, 0
5, 76080, Note_on_c, 0, 35, 62
5, 76103, Note_on_c, 0, 35, 0
5, 76320, Note_on_c, 0, 30, 62
5, 76343, Note_on_c, 0, 30, 0
5, 76800, Note_on_c, 0, 42, 49
5, 77280, Note_on_c, 0, 42, 0
5, 77280, Note_on_c, 0, 30, 75
5, 77460, Note_on_c, 0, 37, 49
5, 77520, Note_on_c, 0, 30, 0
5, 77520, Note_on_c, 0, 42, 49
5, 77760, Note_on_c, 0, 42, 0
5, 77760, Note_on_c, 0, 37, 0
5, 77760, Note_on_c, 0, 30, 75
5, 77940, Note_on_c, 0, 37, 49
5, 78000, Note_on_c, 0, 30, 0
5, 78000, Note_on_c, 0, 42, 49
5, 78240, Note_on_c, 0, 42, 0
5, 78240, Note_on_c, 0, 37, 0
5, 78240, Note_on_c, 0, 30, 75
5, 78420, Note_on_c, 0, 37, 49
5, 78480, Note_on_c, 0, 30, 0
5, 78480, Note_on_c, 0, 42, 49
5, 78720, Note_on_c, 0, 42, 0
5, 78720, Note_on_c, 0, 37, 0
5, 78720, Note_on_c, 0, 30, 75
5, 78900, Note_on_c, 0, 37, 49
5, 78960, Note_on_c, 0, 30, 0
5, 78960, Note_on_c, 0, 42, 49
5, 79200, Note_on_c, 0, 42, 0
5, 79200, Note_on_c, 0, 37, 0
5, 79200, Note_on_c, 0, 30, 49
5, 79223, Note_on_c, 0, 30, 0
5, 79440, Note_on_c, 0, 35, 49
5, 79463, Note_on_c, 0, 35, 0
5, 79680, Note_on_c, 0, 37, 49
5, 79703, Note_on_c, 0, 37, 0
5, 79920, Note_on_c, 0, 25, 49
5, 79943, Note_on_c, 0, 25, 0
5, 80160, Note_on_c, 0, 30, 49
5, 80183, Note_on_c, 0, 30, 0
5, 80640, Note_on_c, 0, 42, 49
5, 81120, Note_on_c, 0, 42, 0
5, 81120, Note_on_c, 0, 30, 75
5, 81300, Note_on_c, 0, 37, 49
5, 81360, Note_on_c, 0, 30, 0
5, 81360, Note_on_c, 0, 42, 49
5, 81600, Note_on_c, 0, 42, 0
5, 81600, Note_on_c, 0, 37, 0
5, 81600, Note_on_c, 0, 30, 75
5, 81780, Note_on_c, 0, 37, 49
5, 81840, Note_on_c, 0, 30, 0
5, 81840, Note_on_c, 0, 42, 49
5, 82080, Note_on_c, 0, 42, 0
5, 82080, Note_on_c, 0, 37, 0
5, 82080, Note_on_c, 0, 30, 75
5, 82260, Note_on_c, 0, 37, 49
5, 82320, Note_on_c, 0, 30, 0
5, 82320, Note_on_c, 0, 42, 49
5, 82560, Note_on_c, 0, 42, 0
5, 82560, Note_on_c, 0, 37, 0
5, 82560, Note_on_c, 0, 30, 75
5, 82740, Note_on_c, 0, 37, 49
5, 82800, Note_on_c, 0, 30, 0
5, 82800, Note_on_c, 0, 42, 49
5, 83040, Note_on_c, 0, 42, 0
5, 83040, Note_on_c, 0, 37, 0
5, 83040, Note_on_c, 0, 30, 62
5, 83063, Note_on_c, 0, 30, 0
5, 83280, Note_on_c, 0, 42, 62
5, 83303, Note_on_c, 0, 42, 0
5, 83520, Note_on_c, 0, 39, 62
5, 83543, Note_on_c, 0, 39, 0
5, 83760, Note_on_c, 0, 35, 62
5, 83783, Note_on_c, 0, 35, 0
5, 84000, Note_on_c, 0, 30, 62
5, 84023, Note_on_c, 0, 30, 0
5, 84480, Note_on_c, 0, 42, 49
5, 84960, Note_on_c, 0, 42, 0
5, 84960, Note_on_c, 0, 30, 75
5, 85140, Note_on_c, 0, 37, 49
5, 85200, Note_on_c, 0, 30, 0
5, 85200, Note_on_c, 0, 42, 49
5, 85440, Note_on_c, 0, 42, 0
5, 85440, Note_on_c, 0, 37, 0
5, 85440, Note_on_c, 0, 30, 75
5, 85620, Note_on_c, 0, 37, 49
5, 85680, Note_on_c, 0, 30, 0
5, 85680, Note_on_c, 0, 42, 49
5, 85920, Note_on_c, 0, 42, 0
5, 85920, Note_on_c, 0, 37, 0
5, 85920, Note_on_c, 0, 30, 75
5, 86100, Note_on_c, 0, 37, 49
5, 86160, Note_on_c, 0, 30, 0
5, 86160, Note_on_c, 0, 42, 49
5, 86400, Note_on_c, 0, 42, 0
5, 86400, Note_on_c, 0, 37, 0
5, 86400, Note_on_c, 0, 30, 75
5, 86580, Note_on_c, 0, 37, 49
5, 86640, Note_on_c, 0, 30, 0
5, 86640, Note_on_c, 0, 42, 49
5, 86880, Note_on_c, 0, 42, 0
5, 86880, Note_on_c, 0, 37, 0
5, 86880, Note_on_c, 0, 30, 49
5, 86903, Note_on_c, 0, 30, 0
5, 87120, Note_on_c, 0, 35, 49
5, 87143, Note_on_c, 0, 35, 0
5, 87360, Note_on_c, 0, 37, 49
5, 87383, Note_on_c, 0, 37, 0
5, 87600, Note_on_c, 0, 25, 49
5, 87623, Note_on_c, 0, 25, 0
5, 87840, Note_on_c, 0, 30, 49
5, 87863, Note_on_c, 0, 30, 0
5, 88320, Note_on_c, 0, 42, 49
5, 88800, Note_on_c, 0, 42, 0
5, 89760, Note_on_c, 0, 42, 88
5, 89807, Note_on_c, 0, 42, 0
5, 90240, Note_on_c, 0, 37, 88
5, 90287, Note_on_c, 0, 37, 0
5, 90720, Note_on_c, 0, 42, 88
5, 90767, Note_on_c, 0, 42, 0
5, 91200, Note_on_c, 0, 37, 88
5, 91247, Note_on_c, 0, 37, 0
5, 91680, Note_on_c, 0, 42, 88
5, 91727, Note_on_c, 0, 42, 0
5, 92160, Note_on_c, 0, 35, 88
5, 92207, Note_on_c, 0, 35, 0
5, 92640, Note_on_c, 0, 42, 88
5, 92687, Note_on_c, 0, 42, 0
5, 93120, Note_on_c, 0, 37, 88
5, 93167, Note_on_c, 0, 37, 0
5, 93600, Note_on_c, 0, 42, 88
5, 93647, Note_on_c, 0, 42, 0
5, 94080, Note_on_c, 0, 35, 88
5, 94127, Note_on_c, 0, 35, 0
5, 94560, Note_on_c, 0, 42, 88
5, 94607, Note_on_c, 0, 42, 0
5, 95040, Note_on_c, 0, 37, 88
5, 95087, Note_on_c, 0, 37, 0
5, 95520, Note_on_c, 0, 41, 88
5, 95567, Note_on_c, 0, 41, 0
5, 96000, Note_on_c, 0, 37, 88
5, 96047, Note_on_c, 0, 37, 0
5, 96480, Note_on_c, 0, 42, 88
5, 96527, Note_on_c, 0, 42, 0
5, 96960, Note_on_c, 0, 37, 88
5, 97007, Note_on_c, 0, 37, 0
5, 97440, Note_on_c, 0, 42, 88
5, 97487, Note_on_c, 0, 42, 0
5, 97920, Note_on_c, 0, 37, 88
5, 97920, Note_on_c, 0, 49, 88
5, 97967, Note_on_c, 0, 49, 0
5, 97967, Note_on_c, 0, 37, 0
5, 98400, Note_on_c, 0, 42, 88
5, 98400, Note_on_c, 0, 54, 88
5, 98447, Note_on_c, 0, 54, 0
5, 98447, Note_on_c, 0, 42, 0
5, 98880, Note_on_c, 0, 37, 88
5, 98880, Note_on_c, 0, 49, 88
5, 98927, Note_on_c, 0, 49, 0
5, 98927, Note_on_c, 0, 37, 0
5, 99360, Note_on_c, 0, 42, 88
5, 99360, Note_on_c, 0, 54, 88
5, 99407, Note_on_c, 0, 54, 0
5, 99407, Note_on_c, 0, 42, 0
5, 99840, Note_on_c, 0, 35, 88
5, 99840, Note_on_c, 0, 47, 88
5, 99887, Note_on_c, 0, 47, 0
5, 99887, Note_on_c, 0, 35, 0
5, 100320, Note_on_c, 0, 42, 88
5, 100320, Note_on_c, 0, 54, 88
5, 100367, Note_on_c, 0, 54, 0
5, 100367, Note_on_c, 0, 42, 0
5, 100800, Note_on_c, 0, 42, 88
5, 100847, Note_on_c, 0, 42, 0
5, 101280, Note_on_c, 0, 54, 62
5, 101327, Note_on_c, 0, 54, 0
5, 101760, Note_on_c, 0, 52, 62
5, 101807, Note_on_c, 0, 52, 0
5, 102240, Note_on_c, 0, 50, 62
5, 102287, Note_on_c, 0, 50, 0
5, 102720, Note_on_c, 0, 49, 62
5, 102767, Note_on_c, 0, 49, 0
5, 103200, Note_on_c, 0, 37, 62
5, 103247, Note_on_c, 0, 37, 0
5, 103680, Note_on_c, 0, 49, 62
5, 103727, Note_on_c, 0, 49, 0
5, 104160, Note_on_c, 0, 42, 62
5, 104207, Note_on_c, 0, 42, 0
5, 104640, Note_on_c, 0, 30, 88
5, 104640, Note_on_c, 0, 42, 88
5, 104663, Note_on_c, 0, 42, 0
5, 104663, Note_on_c, 0, 30, 0
5, 105120, Note_on_c, 0, 34, 88
5, 105120, Note_on_c, 0, 46, 88
5, 105167, Note_on_c, 0, 46, 0
5, 105167, Note_on_c, 0, 34, 0
5, 105600, Note_on_c, 0, 30, 88
5, 105600, Note_on_c, 0, 42, 88
5, 105647, Note_on_c, 0, 42, 0
5, 105647, Note_on_c, 0, 30, 0
5, 106080, Note_on_c, 0, 34, 88
5, 106080, Note_on_c, 0, 46, 88
5, 106127, Note_on_c, 0, 46, 0
5, 106127, Note_on_c, 0, 34, 0
5, 106560, Note_on_c, 0, 30, 88
5, 106560, Note_on_c, 0, 42, 88
5, 106607, Note_on_c, 0, 42, 0
5, 106607, Note_on_c, 0, 30, 0
5, 107040, Note_on_c, 0, 35, 88
5, 107040, Note_on_c, 0, 47, 88
5, 107087, Note_on_c, 0, 47, 0
5, 107087, Note_on_c, 0, 35, 0
5, 107520, Note_on_c, 0, 30, 88
5, 107520, Note_on_c, 0, 42, 88
5, 107567, Note_on_c, 0, 42, 0
5, 107567, Note_on_c, 0, 30, 0
5, 108000, Note_on_c, 0, 35, 88
5, 108000, Note_on_c, 0, 47, 88
5, 108047, Note_on_c, 0, 47, 0
5, 108047, Note_on_c, 0, 35, 0
5, 108480, Note_on_c, 0, 33, 88
5, 108480, Note_on_c, 0, 45, 88
5, 108527, Note_on_c, 0, 45, 0
5, 108527, Note_on_c, 0, 33, 0
5, 108960, Note_on_c, 0, 32, 88
5, 108960, Note_on_c, 0, 44, 88
5, 109007, Note_on_c, 0, 44, 0
5, 109007, Note_on_c, 0, 32, 0
5, 109440, Note_on_c, 0, 28, 88
5, 109440, Note_on_c, 0, 40, 88
5, 109487, Note_on_c, 0, 40, 0
5, 109487, Note_on_c, 0, 28, 0
5, 109920, Note_on_c, 0, 32, 88
5, 109920, Note_on_c, 0, 44, 88
5, 109967, Note_on_c, 0, 44, 0
5, 109967, Note_on_c, 0, 32, 0
5, 110400, Note_on_c, 0, 28, 88
5, 110400, Note_on_c, 0, 40, 88
5, 110447, Note_on_c, 0, 40, 0
5, 110447, Note_on_c, 0, 28, 0
5, 110880, Note_on_c, 0, 33, 88
5, 110880, Note_on_c, 0, 45, 88
5, 110927, Note_on_c, 0, 45, 0
5, 110927, Note_on_c, 0, 33, 0
5, 111360, Note_on_c, 0, 28, 88
5, 111360, Note_on_c, 0, 40, 88
5, 111407, Note_on_c, 0, 40, 0
5, 111407, Note_on_c, 0, 28, 0
5, 111840, Note_on_c, 0, 33, 88
5, 111840, Note_on_c, 0, 45, 88
5, 111887, Note_on_c, 0, 45, 0
5, 111887, Note_on_c, 0, 33, 0
5, 112320, Note_on_c, 0, 37, 88
5, 112320, Note_on_c, 0, 49, 88
5, 112367, Note_on_c, 0, 49, 0
5, 112367, Note_on_c, 0, 37, 0
5, 112800, Note_on_c, 0, 41, 62
5, 112847, Note_on_c, 0, 41, 0
5, 113280, Note_on_c, 0, 37, 62
5, 113327, Note_on_c, 0, 37, 0
5, 113760, Note_on_c, 0, 41, 62
5, 113807, Note_on_c, 0, 41, 0
5, 114240, Note_on_c, 0, 37, 62
5, 114287, Note_on_c, 0, 37, 0
5, 114720, Note_on_c, 0, 38, 62
5, 114767, Note_on_c, 0, 38, 0
5, 115200, Note_on_c, 0, 33, 62
5, 115247, Note_on_c, 0, 33, 0
5, 115680, Note_on_c, 0, 38, 62
5, 115727, Note_on_c, 0, 38, 0
5, 116160, Note_on_c, 0, 33, 62
5, 116207, Note_on_c, 0, 33, 0
5, 116640, Note_on_c, 0, 25, 88
5, 116640, Note_on_c, 0, 37, 88
5, 116880, Note_on_c, 0, 37, 0
5, 116880, Note_on_c, 0, 25, 0
5, 117480, Note_on_c, 0, 37, 88
5, 117495, Note_on_c, 0, 37, 0
5, 117600, Note_on_c, 0, 39, 88
5, 117623, Note_on_c, 0, 39, 0
5, 118080, Note_on_c, 0, 41, 88
5, 118103, Note_on_c, 0, 41, 0
5, 118560, Note_on_c, 0, 30, 88
5, 118560, Note_on_c, 0, 42, 88
5, 118583, Note_on_c, 0, 42, 0
5, 118583, Note_on_c, 0, 30, 0
5, 119520, Note_on_c, 0, 30, 114
5, 119520, Note_on_c, 0, 42, 114
5, 120000, Note_on_c, 0, 42, 0
5, 120000, Note_on_c, 0, 30, 0
5, 120000, Note_on_c, 0, 42, 88
5, 120023, Note_on_c, 0, 42, 0
5, 120480, Note_on_c, 0, 35, 114
5, 120480, Note_on_c, 0, 47, 114
5, 120527, Note_on_c, 0, 47, 0
5, 120527, Note_on_c, 0, 35, 0
5, 120960, Note_on_c, 0, 37, 114
5, 120960, Note_on_c, 0, 49, 114
5, 121007, Note_on_c, 0, 49, 0
5, 121007, Note_on_c, 0, 37, 0
5, 121440, Note_on_c, 0, 30, 88
5, 121440, Note_on_c, 0, 42, 88
5, 124320, Note_on_c, 0, 42, 0
5, 124320, Note_on_c, 0, 30, 0
5, 124320, End_track
0, 0, End_of_file
