0, 0, Header, 1, 5, 480
1, 0, Start_track
1, 0, Title_t, "brahms hungarian dance no12 in dmin 4hands"
1, 0, Copyright_t, "Segundo G. Yogore,  dody@info.com.ph \012__________________________________________________________\012Kunst der Fuge comment: this is the Contributor's property.\012Can *not* be used for commercial purposes without authorization!\012Copyright by Contributor - Kunst der Fuge, © 2002-05\012http://www.kunstderfuge.com/thanks.htm -> Contributors' list\012http://www.kunstderfuge.com/notes.htm -> Terms & conditions"
1, 0, Text_t, "sequenced by Segundo G. Yogore,  2004\012"
1, 0, Time_signature, 2, 2, 24, 8
1, 0, Key_signature, -1, "major"
1, 0, Tempo, 400000
1, 54960, Tempo, 422535
1, 55200, Tempo, 447761
1, 55440, Tempo, 476190
1, 55680, Tempo, 508475
1, 55920, Tempo, 545455
1, 56160, Tempo, 588235
1, 56400, Tempo, 638298
1, 56640, Tempo, 697674
1, 57600, Key_signature, 2, "major"
1, 57600, Tempo, 500000
1, 72960, Key_signature, -1, "major"
1, 72960, Tempo, 400000
1, 80640, Tempo, 400000
1, 87360, Tempo, 500000
1, 88320, Key_signature, 2, "major"
1, 94320, Tempo, 535714
1, 94560, Tempo, 576923
1, 94800, Tempo, 625000
1, 95040, Tempo, 681818
1, 95280, Tempo, 750000
1, 95520, Tempo, 833333
1, 95760, Tempo, 937500
1, 96000, Key_signature, -1, "major"
1, 96000, Tempo, 422535
1, 137520, Tempo, 447761
1, 137760, Tempo, 476190
1, 138000, Tempo, 508475
1, 138240, Tempo, 545455
1, 138480, Tempo, 588235
1, 138720, Tempo, 638298
1, 138960, Tempo, 697674
1, 139200, Tempo, 769231
1, 140160, Time_signature, 6, 2, 24, 8
1, 140160, End_track
2, 0, Start_track
2, 0, Title_t, "Grand Piano"
2, 0, Program_c, 0, 0
2, 0, Control_c, 0, 7, 110
2, 0, Control_c, 0, 10, 97
2, 3960, Note_on_c, 0, 88, 49
2, 4080, Note_on_c, 0, 88, 0
2, 4080, Note_on_c, 0, 85, 49
2, 4200, Note_on_c, 0, 85, 0
2, 4200, Note_on_c, 0, 86, 49
2, 4320, Note_on_c, 0, 86, 0
2, 4440, Note_on_c, 0, 84, 49
2, 4560, Note_on_c, 0, 84, 0
2, 4560, Note_on_c, 0, 81, 49
2, 4680, Note_on_c, 0, 81, 0
2, 4680, Note_on_c, 0, 82, 49
2, 4800, Note_on_c, 0, 82, 0
2, 4920, Control_c, 0, 64, 127
2, 4920, Note_on_c, 0, 82, 49
2, 5040, Note_on_c, 0, 82, 0
2, 5040, Note_on_c, 0, 80, 49
2, 5160, Note_on_c, 0, 80, 0
2, 5160, Note_on_c, 0, 81, 49
2, 5280, Note_on_c, 0, 81, 0
2, 5280, Note_on_c, 0, 80, 49
2, 5400, Note_on_c, 0, 80, 0
2, 5400, Note_on_c, 0, 81, 49
2, 5520, Note_on_c, 0, 81, 0
2, 5520, Note_on_c, 0, 77, 49
2, 5640, Note_on_c, 0, 77, 0
2, 5640, Control_c, 0, 64, 0
2, 5640, Note_on_c, 0, 69, 49
2, 5760, Note_on_c, 0, 69, 0
2, 9720, Control_c, 0, 64, 127
2, 9720, Note_on_c, 0, 81, 49
2, 9840, Note_on_c, 0, 81, 0
2, 9840, Note_on_c, 0, 78, 49
2, 9960, Note_on_c, 0, 78, 0
2, 9960, Note_on_c, 0, 79, 49
2, 10080, Note_on_c, 0, 79, 0
2, 10080, Note_on_c, 0, 78, 49
2, 10200, Note_on_c, 0, 78, 0
2, 10200, Note_on_c, 0, 79, 49
2, 10320, Note_on_c, 0, 79, 0
2, 10320, Note_on_c, 0, 84, 49
2, 10440, Note_on_c, 0, 84, 0
2, 10440, Control_c, 0, 64, 0
2, 10440, Note_on_c, 0, 82, 49
2, 10560, Note_on_c, 0, 82, 0
2, 10680, Note_on_c, 0, 82, 49
2, 10800, Note_on_c, 0, 82, 0
2, 10800, Note_on_c, 0, 80, 49
2, 10920, Note_on_c, 0, 80, 0
2, 10920, Note_on_c, 0, 81, 49
2, 11040, Note_on_c, 0, 81, 0
2, 11160, Note_on_c, 0, 81, 49
2, 11280, Note_on_c, 0, 81, 0
2, 11280, Note_on_c, 0, 78, 49
2, 11400, Note_on_c, 0, 78, 0
2, 11400, Note_on_c, 0, 79, 49
2, 11520, Note_on_c, 0, 79, 0
2, 11640, Note_on_c, 0, 79, 49
2, 11760, Note_on_c, 0, 79, 0
2, 11760, Note_on_c, 0, 76, 49
2, 11880, Note_on_c, 0, 76, 0
2, 11880, Note_on_c, 0, 77, 49
2, 12000, Note_on_c, 0, 77, 0
2, 12120, Note_on_c, 0, 77, 49
2, 12240, Note_on_c, 0, 77, 0
2, 12240, Note_on_c, 0, 75, 49
2, 12360, Note_on_c, 0, 75, 0
2, 12360, Note_on_c, 0, 76, 49
2, 12480, Note_on_c, 0, 76, 0
2, 12600, Control_c, 0, 64, 127
2, 12600, Note_on_c, 0, 76, 49
2, 12720, Note_on_c, 0, 76, 0
2, 12720, Note_on_c, 0, 73, 49
2, 12840, Note_on_c, 0, 73, 0
2, 12840, Note_on_c, 0, 74, 49
2, 12960, Note_on_c, 0, 74, 0
2, 12960, Note_on_c, 0, 73, 49
2, 13080, Note_on_c, 0, 73, 0
2, 13080, Note_on_c, 0, 74, 49
2, 13200, Note_on_c, 0, 74, 0
2, 13200, Note_on_c, 0, 69, 49
2, 13320, Note_on_c, 0, 69, 0
2, 13320, Control_c, 0, 64, 0
2, 13320, Note_on_c, 0, 65, 49
2, 13440, Note_on_c, 0, 65, 0
2, 13560, Note_on_c, 0, 64, 49
2, 13680, Note_on_c, 0, 64, 0
2, 13680, Note_on_c, 0, 61, 49
2, 13800, Note_on_c, 0, 61, 0
2, 13800, Note_on_c, 0, 62, 49
2, 13920, Note_on_c, 0, 62, 0
2, 14040, Note_on_c, 0, 65, 49
2, 14160, Note_on_c, 0, 65, 0
2, 14160, Note_on_c, 0, 63, 49
2, 14280, Note_on_c, 0, 63, 0
2, 14280, Note_on_c, 0, 64, 49
2, 14400, Note_on_c, 0, 64, 0
2, 14520, Note_on_c, 0, 67, 49
2, 14640, Note_on_c, 0, 67, 0
2, 14640, Note_on_c, 0, 64, 49
2, 14760, Note_on_c, 0, 64, 0
2, 14760, Note_on_c, 0, 65, 49
2, 14880, Note_on_c, 0, 65, 0
2, 15000, Note_on_c, 0, 64, 49
2, 15120, Note_on_c, 0, 64, 0
2, 15120, Note_on_c, 0, 61, 49
2, 15240, Note_on_c, 0, 61, 0
2, 15240, Note_on_c, 0, 62, 49
2, 15360, Note_on_c, 0, 62, 0
2, 15480, Note_on_c, 0, 76, 49
2, 15600, Note_on_c, 0, 76, 0
2, 15600, Note_on_c, 0, 73, 49
2, 15720, Note_on_c, 0, 73, 0
2, 15720, Note_on_c, 0, 74, 49
2, 15840, Note_on_c, 0, 74, 0
2, 15960, Note_on_c, 0, 72, 49
2, 16080, Note_on_c, 0, 72, 0
2, 16080, Note_on_c, 0, 69, 49
2, 16200, Note_on_c, 0, 69, 0
2, 16200, Note_on_c, 0, 70, 49
2, 16320, Note_on_c, 0, 70, 0
2, 16440, Control_c, 0, 64, 127
2, 16440, Note_on_c, 0, 70, 49
2, 16560, Note_on_c, 0, 70, 0
2, 16560, Note_on_c, 0, 68, 49
2, 16680, Note_on_c, 0, 68, 0
2, 16680, Note_on_c, 0, 69, 49
2, 16800, Note_on_c, 0, 69, 0
2, 16800, Note_on_c, 0, 72, 49
2, 16920, Note_on_c, 0, 72, 0
2, 16920, Note_on_c, 0, 77, 49
2, 17040, Note_on_c, 0, 77, 0
2, 17040, Note_on_c, 0, 81, 49
2, 17160, Note_on_c, 0, 81, 0
2, 17160, Control_c, 0, 64, 0
2, 17160, Note_on_c, 0, 84, 49
2, 17280, Note_on_c, 0, 84, 0
2, 17520, Note_on_c, 0, 86, 62
2, 17520, Note_on_c, 0, 94, 62
2, 17520, Note_on_c, 0, 98, 62
2, 17543, Note_on_c, 0, 98, 0
2, 17543, Note_on_c, 0, 94, 0
2, 17543, Note_on_c, 0, 86, 0
2, 18000, Note_on_c, 0, 82, 62
2, 18000, Note_on_c, 0, 91, 62
2, 18000, Note_on_c, 0, 94, 62
2, 18023, Note_on_c, 0, 94, 0
2, 18023, Note_on_c, 0, 91, 0
2, 18023, Note_on_c, 0, 82, 0
2, 18480, Note_on_c, 0, 81, 62
2, 18480, Note_on_c, 0, 89, 62
2, 18480, Note_on_c, 0, 93, 62
2, 18503, Note_on_c, 0, 93, 0
2, 18503, Note_on_c, 0, 89, 0
2, 18503, Note_on_c, 0, 81, 0
2, 19320, Control_c, 0, 64, 127
2, 19320, Note_on_c, 0, 81, 49
2, 19440, Note_on_c, 0, 81, 0
2, 19440, Note_on_c, 0, 78, 49
2, 19560, Note_on_c, 0, 78, 0
2, 19560, Note_on_c, 0, 79, 49
2, 19680, Note_on_c, 0, 79, 0
2, 19680, Note_on_c, 0, 78, 49
2, 19800, Note_on_c, 0, 78, 0
2, 19800, Note_on_c, 0, 79, 49
2, 19920, Note_on_c, 0, 79, 0
2, 19920, Note_on_c, 0, 84, 49
2, 20040, Note_on_c, 0, 84, 0
2, 20040, Control_c, 0, 64, 0
2, 20040, Note_on_c, 0, 82, 49
2, 20160, Note_on_c, 0, 82, 0
2, 20280, Note_on_c, 0, 82, 49
2, 20400, Note_on_c, 0, 82, 0
2, 20400, Note_on_c, 0, 80, 49
2, 20520, Note_on_c, 0, 80, 0
2, 20520, Note_on_c, 0, 81, 49
2, 20640, Note_on_c, 0, 81, 0
2, 20760, Note_on_c, 0, 81, 49
2, 20880, Note_on_c, 0, 81, 0
2, 20880, Note_on_c, 0, 78, 49
2, 21000, Note_on_c, 0, 78, 0
2, 21000, Note_on_c, 0, 79, 49
2, 21120, Note_on_c, 0, 79, 0
2, 21240, Note_on_c, 0, 79, 49
2, 21360, Note_on_c, 0, 79, 0
2, 21360, Note_on_c, 0, 76, 49
2, 21480, Note_on_c, 0, 76, 0
2, 21480, Note_on_c, 0, 77, 49
2, 21600, Note_on_c, 0, 77, 0
2, 21720, Note_on_c, 0, 77, 49
2, 21840, Note_on_c, 0, 77, 0
2, 21840, Note_on_c, 0, 75, 49
2, 21960, Note_on_c, 0, 75, 0
2, 21960, Note_on_c, 0, 76, 49
2, 22080, Note_on_c, 0, 76, 0
2, 22200, Control_c, 0, 64, 127
2, 22200, Note_on_c, 0, 76, 49
2, 22320, Note_on_c, 0, 76, 0
2, 22320, Note_on_c, 0, 73, 49
2, 22440, Note_on_c, 0, 73, 0
2, 22440, Note_on_c, 0, 74, 49
2, 22560, Note_on_c, 0, 74, 0
2, 22560, Note_on_c, 0, 77, 49
2, 22680, Note_on_c, 0, 77, 0
2, 22680, Note_on_c, 0, 81, 49
2, 22800, Note_on_c, 0, 81, 0
2, 22800, Note_on_c, 0, 86, 49
2, 22920, Note_on_c, 0, 86, 0
2, 22920, Control_c, 0, 64, 0
2, 22920, Note_on_c, 0, 89, 49
2, 23040, Note_on_c, 0, 89, 0
2, 23280, Note_on_c, 0, 79, 62
2, 23280, Note_on_c, 0, 86, 62
2, 23280, Note_on_c, 0, 91, 62
2, 23303, Note_on_c, 0, 91, 0
2, 23303, Note_on_c, 0, 86, 0
2, 23303, Note_on_c, 0, 79, 0
2, 23760, Note_on_c, 0, 82, 62
2, 23760, Note_on_c, 0, 91, 62
2, 23760, Note_on_c, 0, 94, 62
2, 23783, Note_on_c, 0, 94, 0
2, 23783, Note_on_c, 0, 91, 0
2, 23783, Note_on_c, 0, 82, 0
2, 24240, Note_on_c, 0, 81, 62
2, 24240, Note_on_c, 0, 89, 62
2, 24240, Note_on_c, 0, 93, 62
2, 24263, Note_on_c, 0, 93, 0
2, 24263, Note_on_c, 0, 89, 0
2, 24263, Note_on_c, 0, 81, 0
2, 24720, Note_on_c, 0, 79, 62
2, 24720, Note_on_c, 0, 88, 62
2, 24720, Note_on_c, 0, 91, 62
2, 24743, Note_on_c, 0, 91, 0
2, 24743, Note_on_c, 0, 88, 0
2, 24743, Note_on_c, 0, 79, 0
2, 25200, Note_on_c, 0, 77, 62
2, 25200, Note_on_c, 0, 86, 62
2, 25200, Note_on_c, 0, 89, 62
2, 25223, Note_on_c, 0, 89, 0
2, 25223, Note_on_c, 0, 86, 0
2, 25223, Note_on_c, 0, 77, 0
2, 25680, Note_on_c, 0, 76, 62
2, 25680, Note_on_c, 0, 81, 62
2, 25680, Note_on_c, 0, 88, 62
2, 25703, Note_on_c, 0, 88, 0
2, 25703, Note_on_c, 0, 81, 0
2, 25703, Note_on_c, 0, 76, 0
2, 26160, Note_on_c, 0, 74, 62
2, 26160, Note_on_c, 0, 86, 62
2, 26183, Note_on_c, 0, 86, 0
2, 26183, Note_on_c, 0, 74, 0
2, 26880, Note_on_c, 0, 74, 88
2, 27600, Note_on_c, 0, 74, 0
2, 27600, Note_on_c, 0, 74, 88
2, 27840, Note_on_c, 0, 74, 0
2, 27840, Note_on_c, 0, 89, 88
2, 27840, Note_on_c, 0, 94, 88
2, 27840, Note_on_c, 0, 98, 88
2, 28560, Note_on_c, 0, 98, 0
2, 28560, Note_on_c, 0, 94, 0
2, 28560, Note_on_c, 0, 89, 0
2, 28560, Note_on_c, 0, 89, 88
2, 28560, Note_on_c, 0, 94, 88
2, 28560, Note_on_c, 0, 98, 88
2, 28800, Note_on_c, 0, 98, 0
2, 28800, Note_on_c, 0, 94, 0
2, 28800, Note_on_c, 0, 89, 0
2, 28920, Note_on_c, 0, 93, 88
2, 28920, Note_on_c, 0, 96, 88
2, 29040, Note_on_c, 0, 96, 0
2, 29040, Note_on_c, 0, 93, 0
2, 29040, Note_on_c, 0, 84, 88
2, 29160, Note_on_c, 0, 84, 0
2, 29160, Note_on_c, 0, 93, 88
2, 29160, Note_on_c, 0, 96, 88
2, 29280, Note_on_c, 0, 96, 0
2, 29280, Note_on_c, 0, 93, 0
2, 29400, Note_on_c, 0, 91, 88
2, 29400, Note_on_c, 0, 94, 88
2, 29520, Note_on_c, 0, 94, 0
2, 29520, Note_on_c, 0, 91, 0
2, 29520, Note_on_c, 0, 82, 88
2, 29640, Note_on_c, 0, 82, 0
2, 29640, Note_on_c, 0, 91, 88
2, 29640, Note_on_c, 0, 94, 88
2, 29760, Note_on_c, 0, 94, 0
2, 29760, Note_on_c, 0, 91, 0
2, 29880, Control_c, 0, 64, 127
2, 29880, Note_on_c, 0, 89, 88
2, 29880, Note_on_c, 0, 93, 88
2, 30000, Note_on_c, 0, 93, 0
2, 30000, Note_on_c, 0, 89, 0
2, 30000, Note_on_c, 0, 81, 88
2, 30120, Note_on_c, 0, 81, 0
2, 30120, Note_on_c, 0, 89, 88
2, 30240, Note_on_c, 0, 89, 0
2, 30240, Note_on_c, 0, 81, 88
2, 30360, Note_on_c, 0, 81, 0
2, 30360, Note_on_c, 0, 89, 88
2, 30480, Note_on_c, 0, 89, 0
2, 30480, Note_on_c, 0, 81, 88
2, 30600, Note_on_c, 0, 81, 0
2, 30600, Control_c, 0, 64, 0
2, 30600, Note_on_c, 0, 89, 88
2, 30720, Note_on_c, 0, 89, 0
2, 30720, Note_on_c, 0, 70, 88
2, 30720, Note_on_c, 0, 74, 88
2, 31440, Note_on_c, 0, 74, 0
2, 31440, Note_on_c, 0, 70, 0
2, 31440, Note_on_c, 0, 70, 88
2, 31440, Note_on_c, 0, 74, 88
2, 31680, Note_on_c, 0, 74, 0
2, 31680, Note_on_c, 0, 70, 0
2, 31680, Note_on_c, 0, 89, 88
2, 31680, Note_on_c, 0, 94, 88
2, 31680, Note_on_c, 0, 98, 88
2, 32400, Note_on_c, 0, 98, 0
2, 32400, Note_on_c, 0, 94, 0
2, 32400, Note_on_c, 0, 89, 0
2, 32400, Note_on_c, 0, 89, 88
2, 32400, Note_on_c, 0, 94, 88
2, 32400, Note_on_c, 0, 98, 88
2, 32640, Note_on_c, 0, 98, 0
2, 32640, Note_on_c, 0, 94, 0
2, 32640, Note_on_c, 0, 89, 0
2, 32760, Note_on_c, 0, 93, 88
2, 32760, Note_on_c, 0, 96, 88
2, 32880, Note_on_c, 0, 96, 0
2, 32880, Note_on_c, 0, 93, 0
2, 32880, Note_on_c, 0, 84, 88
2, 33000, Note_on_c, 0, 84, 0
2, 33000, Note_on_c, 0, 93, 88
2, 33000, Note_on_c, 0, 96, 88
2, 33120, Note_on_c, 0, 96, 0
2, 33120, Note_on_c, 0, 93, 0
2, 33240, Note_on_c, 0, 91, 88
2, 33240, Note_on_c, 0, 94, 88
2, 33360, Note_on_c, 0, 94, 0
2, 33360, Note_on_c, 0, 91, 0
2, 33360, Note_on_c, 0, 82, 88
2, 33480, Note_on_c, 0, 82, 0
2, 33480, Note_on_c, 0, 91, 88
2, 33480, Note_on_c, 0, 94, 88
2, 33600, Note_on_c, 0, 94, 0
2, 33600, Note_on_c, 0, 91, 0
2, 33720, Control_c, 0, 64, 127
2, 33720, Note_on_c, 0, 89, 88
2, 33720, Note_on_c, 0, 93, 88
2, 33840, Note_on_c, 0, 93, 0
2, 33840, Note_on_c, 0, 89, 0
2, 33840, Note_on_c, 0, 81, 88
2, 33960, Note_on_c, 0, 81, 0
2, 33960, Note_on_c, 0, 89, 88
2, 34080, Note_on_c, 0, 89, 0
2, 34080, Control_c, 0, 64, 0
2, 34080, Note_on_c, 0, 81, 88
2, 34560, Note_on_c, 0, 81, 0
2, 34560, Note_on_c, 0, 67, 114
2, 35280, Note_on_c, 0, 67, 0
2, 35280, Note_on_c, 0, 70, 62
2, 35303, Note_on_c, 0, 70, 0
2, 35520, Note_on_c, 0, 69, 62
2, 35543, Note_on_c, 0, 69, 0
2, 36000, Note_on_c, 0, 67, 62
2, 36023, Note_on_c, 0, 67, 0
2, 36480, Note_on_c, 0, 65, 62
2, 36503, Note_on_c, 0, 65, 0
2, 36960, Note_on_c, 0, 64, 62
2, 36983, Note_on_c, 0, 64, 0
2, 37440, Note_on_c, 0, 62, 62
2, 37920, Note_on_c, 0, 62, 0
2, 38520, Control_c, 0, 64, 127
2, 38520, Note_on_c, 0, 81, 49
2, 38640, Note_on_c, 0, 81, 0
2, 38640, Note_on_c, 0, 78, 49
2, 38760, Note_on_c, 0, 78, 0
2, 38760, Note_on_c, 0, 79, 49
2, 38880, Note_on_c, 0, 79, 0
2, 38880, Note_on_c, 0, 78, 49
2, 39000, Note_on_c, 0, 78, 0
2, 39000, Note_on_c, 0, 79, 49
2, 39120, Note_on_c, 0, 79, 0
2, 39120, Note_on_c, 0, 84, 49
2, 39240, Note_on_c, 0, 84, 0
2, 39240, Control_c, 0, 64, 0
2, 39240, Note_on_c, 0, 82, 49
2, 39360, Note_on_c, 0, 82, 0
2, 39480, Note_on_c, 0, 82, 49
2, 39600, Note_on_c, 0, 82, 0
2, 39600, Note_on_c, 0, 77, 49
2, 39720, Note_on_c, 0, 77, 0
2, 39720, Note_on_c, 0, 81, 49
2, 39840, Note_on_c, 0, 81, 0
2, 39960, Note_on_c, 0, 81, 49
2, 40080, Note_on_c, 0, 81, 0
2, 40080, Note_on_c, 0, 76, 49
2, 40200, Note_on_c, 0, 76, 0
2, 40200, Note_on_c, 0, 79, 49
2, 40320, Note_on_c, 0, 79, 0
2, 40440, Note_on_c, 0, 79, 49
2, 40560, Note_on_c, 0, 79, 0
2, 40560, Note_on_c, 0, 74, 49
2, 40680, Note_on_c, 0, 74, 0
2, 40680, Note_on_c, 0, 77, 49
2, 40800, Note_on_c, 0, 77, 0
2, 40920, Note_on_c, 0, 77, 49
2, 41040, Note_on_c, 0, 77, 0
2, 41040, Note_on_c, 0, 73, 49
2, 41160, Note_on_c, 0, 73, 0
2, 41160, Note_on_c, 0, 76, 49
2, 41280, Note_on_c, 0, 76, 0
2, 41400, Control_c, 0, 64, 127
2, 41400, Note_on_c, 0, 76, 49
2, 41520, Note_on_c, 0, 76, 0
2, 41520, Note_on_c, 0, 73, 49
2, 41640, Note_on_c, 0, 73, 0
2, 41640, Note_on_c, 0, 74, 49
2, 41760, Note_on_c, 0, 74, 0
2, 41760, Note_on_c, 0, 73, 62
2, 41880, Note_on_c, 0, 73, 0
2, 41880, Note_on_c, 0, 74, 62
2, 42000, Note_on_c, 0, 74, 0
2, 42000, Note_on_c, 0, 69, 62
2, 42120, Note_on_c, 0, 69, 0
2, 42120, Control_c, 0, 64, 0
2, 42120, Note_on_c, 0, 65, 62
2, 42240, Note_on_c, 0, 65, 0
2, 42240, Control_c, 0, 64, 127
2, 42240, Note_on_c, 0, 74, 88
2, 42480, Note_on_c, 0, 74, 0
2, 42480, Note_on_c, 0, 73, 88
2, 42600, Note_on_c, 0, 73, 0
2, 42600, Note_on_c, 0, 74, 88
2, 42720, Note_on_c, 0, 74, 0
2, 42720, Note_on_c, 0, 73, 88
2, 42840, Note_on_c, 0, 73, 0
2, 42840, Note_on_c, 0, 74, 88
2, 42960, Note_on_c, 0, 74, 0
2, 42960, Note_on_c, 0, 73, 88
2, 43080, Note_on_c, 0, 73, 0
2, 43080, Control_c, 0, 64, 0
2, 43080, Note_on_c, 0, 74, 88
2, 43200, Note_on_c, 0, 74, 0
2, 43200, Control_c, 0, 64, 127
2, 43200, Note_on_c, 0, 82, 101
2, 43200, Note_on_c, 0, 86, 101
2, 43440, Note_on_c, 0, 86, 0
2, 43440, Note_on_c, 0, 82, 0
2, 43440, Note_on_c, 0, 81, 101
2, 43440, Note_on_c, 0, 85, 101
2, 43560, Note_on_c, 0, 85, 0
2, 43560, Note_on_c, 0, 81, 0
2, 43560, Note_on_c, 0, 82, 101
2, 43560, Note_on_c, 0, 86, 101
2, 43680, Note_on_c, 0, 86, 0
2, 43680, Note_on_c, 0, 82, 0
2, 43680, Note_on_c, 0, 81, 101
2, 43680, Note_on_c, 0, 85, 101
2, 43800, Note_on_c, 0, 85, 0
2, 43800, Note_on_c, 0, 81, 0
2, 43800, Note_on_c, 0, 82, 101
2, 43800, Note_on_c, 0, 86, 101
2, 43920, Note_on_c, 0, 86, 0
2, 43920, Note_on_c, 0, 82, 0
2, 43920, Note_on_c, 0, 81, 101
2, 43920, Note_on_c, 0, 85, 101
2, 44040, Note_on_c, 0, 85, 0
2, 44040, Note_on_c, 0, 81, 0
2, 44040, Control_c, 0, 64, 0
2, 44040, Note_on_c, 0, 82, 101
2, 44040, Note_on_c, 0, 86, 101
2, 44160, Note_on_c, 0, 86, 0
2, 44160, Note_on_c, 0, 82, 0
2, 44280, Note_on_c, 0, 93, 88
2, 44280, Note_on_c, 0, 96, 88
2, 44400, Note_on_c, 0, 96, 0
2, 44400, Note_on_c, 0, 93, 0
2, 44400, Note_on_c, 0, 84, 88
2, 44520, Note_on_c, 0, 84, 0
2, 44520, Note_on_c, 0, 93, 88
2, 44520, Note_on_c, 0, 96, 88
2, 44640, Note_on_c, 0, 96, 0
2, 44640, Note_on_c, 0, 93, 0
2, 44760, Note_on_c, 0, 91, 88
2, 44760, Note_on_c, 0, 94, 88
2, 44880, Note_on_c, 0, 94, 0
2, 44880, Note_on_c, 0, 91, 0
2, 44880, Note_on_c, 0, 82, 88
2, 45000, Note_on_c, 0, 82, 0
2, 45000, Note_on_c, 0, 91, 88
2, 45000, Note_on_c, 0, 94, 88
2, 45120, Note_on_c, 0, 94, 0
2, 45120, Note_on_c, 0, 91, 0
2, 45240, Control_c, 0, 64, 127
2, 45240, Note_on_c, 0, 89, 88
2, 45240, Note_on_c, 0, 93, 88
2, 45360, Note_on_c, 0, 93, 0
2, 45360, Note_on_c, 0, 89, 0
2, 45360, Note_on_c, 0, 81, 88
2, 45480, Note_on_c, 0, 81, 0
2, 45480, Note_on_c, 0, 89, 88
2, 45600, Note_on_c, 0, 89, 0
2, 45600, Note_on_c, 0, 81, 88
2, 45720, Note_on_c, 0, 81, 0
2, 45720, Note_on_c, 0, 89, 88
2, 45840, Note_on_c, 0, 89, 0
2, 45840, Note_on_c, 0, 81, 88
2, 45960, Note_on_c, 0, 81, 0
2, 45960, Control_c, 0, 64, 0
2, 45960, Note_on_c, 0, 89, 88
2, 46080, Note_on_c, 0, 89, 0
2, 46080, Control_c, 0, 64, 127
2, 46080, Note_on_c, 0, 74, 88
2, 46320, Note_on_c, 0, 74, 0
2, 46320, Note_on_c, 0, 73, 88
2, 46440, Note_on_c, 0, 73, 0
2, 46440, Note_on_c, 0, 74, 88
2, 46560, Note_on_c, 0, 74, 0
2, 46560, Note_on_c, 0, 73, 88
2, 46680, Note_on_c, 0, 73, 0
2, 46680, Note_on_c, 0, 74, 88
2, 46800, Note_on_c, 0, 74, 0
2, 46800, Note_on_c, 0, 73, 88
2, 46920, Note_on_c, 0, 73, 0
2, 46920, Control_c, 0, 64, 0
2, 46920, Note_on_c, 0, 74, 88
2, 47040, Note_on_c, 0, 74, 0
2, 47040, Control_c, 0, 64, 127
2, 47040, Note_on_c, 0, 82, 101
2, 47040, Note_on_c, 0, 86, 101
2, 47280, Note_on_c, 0, 86, 0
2, 47280, Note_on_c, 0, 82, 0
2, 47280, Note_on_c, 0, 81, 101
2, 47280, Note_on_c, 0, 85, 101
2, 47400, Note_on_c, 0, 85, 0
2, 47400, Note_on_c, 0, 81, 0
2, 47400, Note_on_c, 0, 82, 101
2, 47400, Note_on_c, 0, 86, 101
2, 47520, Note_on_c, 0, 86, 0
2, 47520, Note_on_c, 0, 82, 0
2, 47520, Note_on_c, 0, 81, 101
2, 47520, Note_on_c, 0, 85, 101
2, 47640, Note_on_c, 0, 85, 0
2, 47640, Note_on_c, 0, 81, 0
2, 47640, Note_on_c, 0, 82, 101
2, 47640, Note_on_c, 0, 86, 101
2, 47760, Note_on_c, 0, 86, 0
2, 47760, Note_on_c, 0, 82, 0
2, 47760, Note_on_c, 0, 91, 127
2, 47880, Note_on_c, 0, 91, 0
2, 47880, Control_c, 0, 64, 0
2, 47880, Note_on_c, 0, 82, 101
2, 47880, Note_on_c, 0, 86, 101
2, 48000, Note_on_c, 0, 86, 0
2, 48000, Note_on_c, 0, 82, 0
2, 48120, Note_on_c, 0, 93, 88
2, 48120, Note_on_c, 0, 96, 88
2, 48240, Note_on_c, 0, 96, 0
2, 48240, Note_on_c, 0, 93, 0
2, 48240, Note_on_c, 0, 84, 88
2, 48360, Note_on_c, 0, 84, 0
2, 48360, Note_on_c, 0, 93, 88
2, 48360, Note_on_c, 0, 96, 88
2, 48480, Note_on_c, 0, 96, 0
2, 48480, Note_on_c, 0, 93, 0
2, 48600, Note_on_c, 0, 91, 88
2, 48600, Note_on_c, 0, 94, 88
2, 48720, Note_on_c, 0, 94, 0
2, 48720, Note_on_c, 0, 91, 0
2, 48720, Note_on_c, 0, 82, 88
2, 48840, Note_on_c, 0, 82, 0
2, 48840, Note_on_c, 0, 91, 88
2, 48840, Note_on_c, 0, 94, 88
2, 48960, Note_on_c, 0, 94, 0
2, 48960, Note_on_c, 0, 91, 0
2, 49080, Control_c, 0, 64, 127
2, 49080, Note_on_c, 0, 89, 88
2, 49080, Note_on_c, 0, 93, 88
2, 49200, Note_on_c, 0, 93, 0
2, 49200, Note_on_c, 0, 89, 0
2, 49200, Note_on_c, 0, 81, 88
2, 49320, Note_on_c, 0, 81, 0
2, 49320, Note_on_c, 0, 89, 88
2, 49440, Note_on_c, 0, 89, 0
2, 49440, Control_c, 0, 64, 0
2, 49440, Note_on_c, 0, 81, 88
2, 49920, Note_on_c, 0, 81, 0
2, 49920, Note_on_c, 0, 67, 114
2, 50640, Note_on_c, 0, 67, 0
2, 50640, Note_on_c, 0, 70, 62
2, 50663, Note_on_c, 0, 70, 0
2, 50880, Note_on_c, 0, 69, 62
2, 50903, Note_on_c, 0, 69, 0
2, 51360, Note_on_c, 0, 67, 62
2, 51383, Note_on_c, 0, 67, 0
2, 51840, Note_on_c, 0, 65, 62
2, 51863, Note_on_c, 0, 65, 0
2, 52320, Note_on_c, 0, 64, 62
2, 52343, Note_on_c, 0, 64, 0
2, 52800, Note_on_c, 0, 62, 62
2, 53280, Note_on_c, 0, 62, 0
2, 57600, Control_c, 0, 64, 127
2, 57600, Note_on_c, 0, 81, 49
2, 57720, Note_on_c, 0, 81, 0
2, 57720, Note_on_c, 0, 78, 49
2, 57840, Note_on_c, 0, 78, 0
2, 57840, Note_on_c, 0, 79, 49
2, 57960, Note_on_c, 0, 79, 0
2, 57960, Note_on_c, 0, 76, 49
2, 58080, Note_on_c, 0, 76, 0
2, 58080, Note_on_c, 0, 78, 49
2, 58200, Note_on_c, 0, 78, 0
2, 58200, Note_on_c, 0, 74, 49
2, 58320, Note_on_c, 0, 74, 0
2, 58320, Note_on_c, 0, 79, 49
2, 58440, Note_on_c, 0, 79, 0
2, 58440, Note_on_c, 0, 76, 49
2, 58560, Note_on_c, 0, 76, 0
2, 58560, Note_on_c, 0, 81, 49
2, 58680, Note_on_c, 0, 81, 0
2, 58680, Note_on_c, 0, 78, 49
2, 58800, Note_on_c, 0, 78, 0
2, 58800, Note_on_c, 0, 83, 49
2, 58920, Note_on_c, 0, 83, 0
2, 58920, Note_on_c, 0, 78, 49
2, 59040, Note_on_c, 0, 78, 0
2, 59040, Note_on_c, 0, 81, 49
2, 59160, Note_on_c, 0, 81, 0
2, 59160, Note_on_c, 0, 78, 49
2, 59280, Note_on_c, 0, 78, 0
2, 59280, Note_on_c, 0, 86, 49
2, 59400, Note_on_c, 0, 86, 0
2, 59400, Control_c, 0, 64, 0
2, 59400, Note_on_c, 0, 81, 49
2, 59520, Note_on_c, 0, 81, 0
2, 59520, Control_c, 0, 64, 127
2, 59520, Note_on_c, 0, 90, 49
2, 59640, Note_on_c, 0, 90, 0
2, 59640, Note_on_c, 0, 81, 49
2, 59760, Note_on_c, 0, 81, 0
2, 59760, Note_on_c, 0, 93, 49
2, 59880, Note_on_c, 0, 93, 0
2, 59880, Note_on_c, 0, 81, 49
2, 60000, Note_on_c, 0, 81, 0
2, 60000, Note_on_c, 0, 88, 49
2, 60120, Note_on_c, 0, 88, 0
2, 60120, Note_on_c, 0, 81, 49
2, 60240, Note_on_c, 0, 81, 0
2, 60240, Note_on_c, 0, 93, 49
2, 60360, Note_on_c, 0, 93, 0
2, 60360, Note_on_c, 0, 81, 49
2, 60480, Note_on_c, 0, 81, 0
2, 60480, Note_on_c, 0, 86, 49
2, 60600, Note_on_c, 0, 86, 0
2, 60600, Note_on_c, 0, 81, 49
2, 60720, Note_on_c, 0, 81, 0
2, 60720, Note_on_c, 0, 93, 49
2, 60840, Note_on_c, 0, 93, 0
2, 60840, Note_on_c, 0, 90, 49
2, 60960, Note_on_c, 0, 90, 0
2, 60960, Note_on_c, 0, 86, 49
2, 61080, Note_on_c, 0, 86, 0
2, 61080, Note_on_c, 0, 81, 49
2, 61200, Note_on_c, 0, 81, 0
2, 61200, Note_on_c, 0, 83, 49
2, 61320, Note_on_c, 0, 83, 0
2, 61320, Control_c, 0, 64, 0
2, 61320, Note_on_c, 0, 78, 49
2, 61440, Note_on_c, 0, 78, 0
2, 61440, Control_c, 0, 64, 127
2, 61440, Note_on_c, 0, 81, 49
2, 61560, Note_on_c, 0, 81, 0
2, 61560, Note_on_c, 0, 78, 49
2, 61680, Note_on_c, 0, 78, 0
2, 61680, Note_on_c, 0, 79, 49
2, 61800, Note_on_c, 0, 79, 0
2, 61800, Note_on_c, 0, 76, 49
2, 61920, Note_on_c, 0, 76, 0
2, 61920, Note_on_c, 0, 78, 49
2, 62040, Note_on_c, 0, 78, 0
2, 62040, Note_on_c, 0, 74, 49
2, 62160, Note_on_c, 0, 74, 0
2, 62160, Note_on_c, 0, 79, 49
2, 62280, Note_on_c, 0, 79, 0
2, 62280, Note_on_c, 0, 76, 49
2, 62400, Note_on_c, 0, 76, 0
2, 62400, Note_on_c, 0, 81, 49
2, 62520, Note_on_c, 0, 81, 0
2, 62520, Note_on_c, 0, 78, 49
2, 62640, Note_on_c, 0, 78, 0
2, 62640, Note_on_c, 0, 83, 49
2, 62760, Note_on_c, 0, 83, 0
2, 62760, Note_on_c, 0, 78, 49
2, 62880, Note_on_c, 0, 78, 0
2, 62880, Note_on_c, 0, 81, 49
2, 63000, Note_on_c, 0, 81, 0
2, 63000, Note_on_c, 0, 78, 49
2, 63120, Note_on_c, 0, 78, 0
2, 63120, Note_on_c, 0, 86, 49
2, 63240, Note_on_c, 0, 86, 0
2, 63240, Control_c, 0, 64, 0
2, 63240, Note_on_c, 0, 81, 49
2, 63360, Note_on_c, 0, 81, 0
2, 63360, Control_c, 0, 64, 127
2, 63360, Note_on_c, 0, 90, 49
2, 63480, Note_on_c, 0, 90, 0
2, 63480, Note_on_c, 0, 81, 49
2, 63600, Note_on_c, 0, 81, 0
2, 63600, Note_on_c, 0, 93, 49
2, 63720, Note_on_c, 0, 93, 0
2, 63720, Note_on_c, 0, 81, 49
2, 63840, Note_on_c, 0, 81, 0
2, 63840, Note_on_c, 0, 88, 49
2, 63960, Note_on_c, 0, 88, 0
2, 63960, Note_on_c, 0, 81, 49
2, 64080, Note_on_c, 0, 81, 0
2, 64080, Note_on_c, 0, 93, 49
2, 64200, Note_on_c, 0, 93, 0
2, 64200, Note_on_c, 0, 81, 49
2, 64320, Note_on_c, 0, 81, 0
2, 64320, Note_on_c, 0, 86, 49
2, 64440, Note_on_c, 0, 86, 0
2, 64440, Note_on_c, 0, 81, 49
2, 64560, Note_on_c, 0, 81, 0
2, 64560, Note_on_c, 0, 93, 49
2, 64680, Note_on_c, 0, 93, 0
2, 64680, Note_on_c, 0, 90, 49
2, 64800, Note_on_c, 0, 90, 0
2, 64800, Control_c, 0, 64, 0
2, 64800, Note_on_c, 0, 86, 49
2, 65040, Note_on_c, 0, 86, 0
2, 65040, Note_on_c, 0, 78, 49
2, 65040, Note_on_c, 0, 81, 49
2, 65280, Control_c, 0, 64, 127
2, 65400, Note_on_c, 0, 79, 62
2, 65460, Note_on_c, 0, 79, 0
2, 65460, Note_on_c, 0, 81, 62
2, 65520, Note_on_c, 0, 81, 0
2, 65520, Note_on_c, 0, 81, 0
2, 65520, Note_on_c, 0, 78, 0
2, 65520, Note_on_c, 0, 76, 62
2, 65520, Note_on_c, 0, 79, 62
2, 65760, Note_on_c, 0, 79, 0
2, 65760, Note_on_c, 0, 76, 0
2, 65760, Note_on_c, 0, 74, 62
2, 65760, Note_on_c, 0, 78, 62
2, 66000, Note_on_c, 0, 78, 0
2, 66000, Note_on_c, 0, 74, 0
2, 66000, Note_on_c, 0, 76, 62
2, 66000, Note_on_c, 0, 79, 62
2, 66240, Note_on_c, 0, 79, 0
2, 66240, Note_on_c, 0, 76, 0
2, 66240, Control_c, 0, 64, 0
2, 66240, Note_on_c, 0, 78, 62
2, 66240, Note_on_c, 0, 81, 62
2, 66480, Note_on_c, 0, 81, 0
2, 66480, Note_on_c, 0, 78, 0
2, 66480, Note_on_c, 0, 78, 62
2, 66480, Note_on_c, 0, 81, 62
2, 66960, Note_on_c, 0, 81, 0
2, 66960, Note_on_c, 0, 78, 0
2, 66960, Control_c, 0, 64, 127
2, 66960, Note_on_c, 0, 78, 62
2, 66960, Note_on_c, 0, 86, 62
2, 67200, Note_on_c, 0, 86, 0
2, 67200, Note_on_c, 0, 78, 0
2, 67200, Note_on_c, 0, 81, 62
2, 67200, Note_on_c, 0, 90, 62
2, 67680, Note_on_c, 0, 90, 0
2, 67680, Note_on_c, 0, 81, 0
2, 67680, Note_on_c, 0, 81, 62
2, 67680, Note_on_c, 0, 88, 62
2, 68160, Note_on_c, 0, 88, 0
2, 68160, Note_on_c, 0, 81, 0
2, 68160, Control_c, 0, 64, 127
2, 68160, Note_on_c, 0, 86, 62
2, 68280, Note_on_c, 0, 86, 0
2, 68280, Note_on_c, 0, 81, 62
2, 68400, Note_on_c, 0, 81, 0
2, 68400, Note_on_c, 0, 93, 62
2, 68520, Note_on_c, 0, 93, 0
2, 68520, Note_on_c, 0, 90, 62
2, 68640, Note_on_c, 0, 90, 0
2, 68640, Note_on_c, 0, 86, 62
2, 68760, Note_on_c, 0, 86, 0
2, 68760, Note_on_c, 0, 81, 62
2, 68880, Note_on_c, 0, 81, 0
2, 68880, Note_on_c, 0, 83, 62
2, 69000, Note_on_c, 0, 83, 0
2, 69000, Control_c, 0, 64, 0
2, 69000, Note_on_c, 0, 78, 62
2, 69120, Note_on_c, 0, 78, 0
2, 69120, Control_c, 0, 64, 127
2, 69120, Note_on_c, 0, 78, 62
2, 69120, Note_on_c, 0, 81, 62
2, 69240, Note_on_c, 0, 79, 62
2, 69300, Note_on_c, 0, 79, 0
2, 69300, Note_on_c, 0, 81, 62
2, 69360, Note_on_c, 0, 81, 0
2, 69360, Note_on_c, 0, 81, 0
2, 69360, Note_on_c, 0, 78, 0
2, 69360, Note_on_c, 0, 76, 62
2, 69360, Note_on_c, 0, 79, 62
2, 69600, Note_on_c, 0, 79, 0
2, 69600, Note_on_c, 0, 76, 0
2, 69600, Note_on_c, 0, 74, 62
2, 69600, Note_on_c, 0, 78, 62
2, 69840, Note_on_c, 0, 78, 0
2, 69840, Note_on_c, 0, 74, 0
2, 69840, Note_on_c, 0, 76, 62
2, 69840, Note_on_c, 0, 79, 62
2, 70080, Note_on_c, 0, 79, 0
2, 70080, Note_on_c, 0, 76, 0
2, 70080, Control_c, 0, 64, 0
2, 70080, Note_on_c, 0, 78, 62
2, 70080, Note_on_c, 0, 81, 62
2, 70320, Note_on_c, 0, 81, 0
2, 70320, Note_on_c, 0, 78, 0
2, 70320, Note_on_c, 0, 78, 62
2, 70320, Note_on_c, 0, 81, 62
2, 70800, Note_on_c, 0, 81, 0
2, 70800, Note_on_c, 0, 78, 0
2, 70800, Control_c, 0, 64, 127
2, 70800, Note_on_c, 0, 78, 62
2, 70800, Note_on_c, 0, 86, 62
2, 71040, Note_on_c, 0, 86, 0
2, 71040, Note_on_c, 0, 78, 0
2, 71040, Note_on_c, 0, 81, 62
2, 71040, Note_on_c, 0, 90, 62
2, 71520, Note_on_c, 0, 90, 0
2, 71520, Note_on_c, 0, 81, 0
2, 71520, Control_c, 0, 64, 0
2, 71520, Note_on_c, 0, 81, 62
2, 71520, Note_on_c, 0, 88, 62
2, 72000, Note_on_c, 0, 88, 0
2, 72000, Note_on_c, 0, 81, 0
2, 72000, Control_c, 0, 64, 127
2, 72000, Note_on_c, 0, 86, 62
2, 72120, Note_on_c, 0, 86, 0
2, 72120, Note_on_c, 0, 81, 62
2, 72240, Note_on_c, 0, 81, 0
2, 72240, Note_on_c, 0, 93, 62
2, 72360, Note_on_c, 0, 93, 0
2, 72360, Note_on_c, 0, 90, 62
2, 72480, Note_on_c, 0, 90, 0
2, 72480, Control_c, 0, 64, 0
2, 72480, Note_on_c, 0, 86, 62
2, 72720, Note_on_c, 0, 86, 0
2, 72720, Note_on_c, 0, 81, 88
2, 72743, Note_on_c, 0, 81, 0
2, 72960, Note_on_c, 0, 84, 88
2, 72960, Note_on_c, 0, 89, 88
2, 72960, Note_on_c, 0, 93, 88
2, 73680, Note_on_c, 0, 93, 0
2, 73680, Note_on_c, 0, 89, 0
2, 73680, Note_on_c, 0, 84, 0
2, 73680, Note_on_c, 0, 93, 88
2, 73920, Note_on_c, 0, 93, 0
2, 73920, Control_c, 0, 64, 127
2, 73920, Note_on_c, 0, 94, 88
2, 74040, Note_on_c, 0, 94, 0
2, 74040, Note_on_c, 0, 93, 88
2, 74160, Note_on_c, 0, 93, 0
2, 74160, Note_on_c, 0, 92, 88
2, 74280, Note_on_c, 0, 92, 0
2, 74280, Control_c, 0, 64, 0
2, 74280, Note_on_c, 0, 93, 88
2, 74400, Note_on_c, 0, 93, 0
2, 74400, Control_c, 0, 64, 127
2, 74400, Note_on_c, 0, 94, 88
2, 74520, Note_on_c, 0, 94, 0
2, 74520, Note_on_c, 0, 93, 88
2, 74640, Note_on_c, 0, 93, 0
2, 74640, Note_on_c, 0, 92, 88
2, 74760, Note_on_c, 0, 92, 0
2, 74760, Control_c, 0, 64, 0
2, 74760, Note_on_c, 0, 93, 88
2, 74880, Note_on_c, 0, 93, 0
2, 74880, Note_on_c, 0, 84, 88
2, 74880, Note_on_c, 0, 91, 88
2, 74880, Note_on_c, 0, 96, 88
2, 75360, Note_on_c, 0, 96, 0
2, 75360, Note_on_c, 0, 91, 0
2, 75360, Note_on_c, 0, 84, 0
2, 75360, Note_on_c, 0, 82, 88
2, 75360, Note_on_c, 0, 94, 88
2, 75720, Note_on_c, 0, 94, 0
2, 75720, Note_on_c, 0, 82, 0
2, 75720, Note_on_c, 0, 81, 88
2, 75720, Note_on_c, 0, 93, 88
2, 75840, Note_on_c, 0, 93, 0
2, 75840, Note_on_c, 0, 81, 0
2, 75840, Note_on_c, 0, 79, 88
2, 75840, Note_on_c, 0, 91, 88
2, 75863, Note_on_c, 0, 91, 0
2, 75863, Note_on_c, 0, 79, 0
2, 76080, Note_on_c, 0, 79, 114
2, 76080, Note_on_c, 0, 91, 114
2, 76560, Note_on_c, 0, 91, 0
2, 76560, Note_on_c, 0, 79, 0
2, 76560, Note_on_c, 0, 80, 88
2, 76560, Note_on_c, 0, 92, 88
2, 76583, Note_on_c, 0, 92, 0
2, 76583, Note_on_c, 0, 80, 0
2, 76740, Note_on_c, 0, 92, 88
2, 76800, Note_on_c, 0, 92, 0
2, 76800, Note_on_c, 0, 82, 114
2, 76800, Note_on_c, 0, 94, 114
2, 76823, Note_on_c, 0, 94, 0
2, 76823, Note_on_c, 0, 82, 0
2, 77280, Note_on_c, 0, 81, 114
2, 77280, Note_on_c, 0, 93, 114
2, 77880, Note_on_c, 0, 89, 88
2, 77940, Note_on_c, 0, 89, 0
2, 77940, Note_on_c, 0, 91, 88
2, 78000, Note_on_c, 0, 91, 0
2, 78000, Note_on_c, 0, 93, 0
2, 78000, Note_on_c, 0, 81, 0
2, 78000, Note_on_c, 0, 89, 88
2, 78240, Note_on_c, 0, 89, 0
2, 78240, Note_on_c, 0, 88, 88
2, 78480, Note_on_c, 0, 88, 0
2, 78480, Note_on_c, 0, 86, 88
2, 78503, Note_on_c, 0, 86, 0
2, 78660, Note_on_c, 0, 92, 88
2, 78720, Note_on_c, 0, 92, 0
2, 78720, Note_on_c, 0, 81, 114
2, 78720, Note_on_c, 0, 93, 114
2, 78743, Note_on_c, 0, 93, 0
2, 78743, Note_on_c, 0, 81, 0
2, 79200, Note_on_c, 0, 88, 88
2, 79200, Note_on_c, 0, 93, 88
2, 79200, Note_on_c, 0, 97, 88
2, 79680, Note_on_c, 0, 97, 0
2, 79680, Note_on_c, 0, 93, 0
2, 79680, Note_on_c, 0, 88, 0
2, 79680, Note_on_c, 0, 89, 88
2, 79680, Note_on_c, 0, 93, 88
2, 79680, Note_on_c, 0, 98, 88
2, 80160, Note_on_c, 0, 98, 0
2, 80160, Note_on_c, 0, 93, 0
2, 80160, Note_on_c, 0, 89, 0
2, 80400, Note_on_c, 0, 93, 88
2, 80423, Note_on_c, 0, 93, 0
2, 80640, Note_on_c, 0, 84, 88
2, 80640, Note_on_c, 0, 89, 88
2, 80640, Note_on_c, 0, 93, 88
2, 81360, Note_on_c, 0, 93, 0
2, 81360, Note_on_c, 0, 89, 0
2, 81360, Note_on_c, 0, 84, 0
2, 81360, Note_on_c, 0, 93, 88
2, 81600, Note_on_c, 0, 93, 0
2, 81600, Control_c, 0, 64, 127
2, 81600, Note_on_c, 0, 94, 88
2, 81720, Note_on_c, 0, 94, 0
2, 81720, Note_on_c, 0, 93, 88
2, 81840, Note_on_c, 0, 93, 0
2, 81840, Note_on_c, 0, 92, 88
2, 81960, Note_on_c, 0, 92, 0
2, 81960, Control_c, 0, 64, 0
2, 81960, Note_on_c, 0, 93, 88
2, 82080, Note_on_c, 0, 93, 0
2, 82080, Control_c, 0, 64, 127
2, 82080, Note_on_c, 0, 94, 88
2, 82200, Note_on_c, 0, 94, 0
2, 82200, Note_on_c, 0, 93, 88
2, 82320, Note_on_c, 0, 93, 0
2, 82320, Note_on_c, 0, 92, 88
2, 82440, Note_on_c, 0, 92, 0
2, 82440, Control_c, 0, 64, 0
2, 82440, Note_on_c, 0, 93, 88
2, 82560, Note_on_c, 0, 93, 0
2, 82560, Note_on_c, 0, 84, 88
2, 82560, Note_on_c, 0, 91, 88
2, 82560, Note_on_c, 0, 96, 88
2, 83040, Note_on_c, 0, 96, 0
2, 83040, Note_on_c, 0, 91, 0
2, 83040, Note_on_c, 0, 84, 0
2, 83040, Note_on_c, 0, 82, 88
2, 83040, Note_on_c, 0, 94, 88
2, 83400, Note_on_c, 0, 94, 0
2, 83400, Note_on_c, 0, 82, 0
2, 83400, Note_on_c, 0, 81, 88
2, 83400, Note_on_c, 0, 93, 88
2, 83520, Note_on_c, 0, 93, 0
2, 83520, Note_on_c, 0, 81, 0
2, 83520, Note_on_c, 0, 79, 88
2, 83520, Note_on_c, 0, 91, 88
2, 83543, Note_on_c, 0, 91, 0
2, 83543, Note_on_c, 0, 79, 0
2, 83760, Note_on_c, 0, 79, 114
2, 83760, Note_on_c, 0, 91, 114
2, 84240, Note_on_c, 0, 91, 0
2, 84240, Note_on_c, 0, 79, 0
2, 84240, Note_on_c, 0, 80, 88
2, 84240, Note_on_c, 0, 92, 88
2, 84263, Note_on_c, 0, 92, 0
2, 84263, Note_on_c, 0, 80, 0
2, 84420, Note_on_c, 0, 92, 88
2, 84480, Note_on_c, 0, 92, 0
2, 84480, Note_on_c, 0, 82, 114
2, 84480, Note_on_c, 0, 94, 114
2, 84503, Note_on_c, 0, 94, 0
2, 84503, Note_on_c, 0, 82, 0
2, 84960, Note_on_c, 0, 81, 114
2, 84960, Note_on_c, 0, 93, 114
2, 85560, Note_on_c, 0, 89, 88
2, 85620, Note_on_c, 0, 89, 0
2, 85620, Note_on_c, 0, 91, 88
2, 85680, Note_on_c, 0, 91, 0
2, 85680, Note_on_c, 0, 93, 0
2, 85680, Note_on_c, 0, 81, 0
2, 85680, Note_on_c, 0, 89, 88
2, 85920, Note_on_c, 0, 89, 0
2, 85920, Note_on_c, 0, 88, 88
2, 86160, Note_on_c, 0, 88, 0
2, 86160, Note_on_c, 0, 86, 88
2, 86183, Note_on_c, 0, 86, 0
2, 86340, Note_on_c, 0, 92, 88
2, 86400, Note_on_c, 0, 92, 0
2, 86400, Note_on_c, 0, 81, 114
2, 86400, Note_on_c, 0, 93, 114
2, 86423, Note_on_c, 0, 93, 0
2, 86423, Note_on_c, 0, 81, 0
2, 86880, Note_on_c, 0, 88, 88
2, 86880, Note_on_c, 0, 93, 88
2, 86880, Note_on_c, 0, 97, 88
2, 87360, Note_on_c, 0, 97, 0
2, 87360, Note_on_c, 0, 93, 0
2, 87360, Note_on_c, 0, 88, 0
2, 87360, Note_on_c, 0, 89, 88
2, 87360, Note_on_c, 0, 93, 88
2, 87360, Note_on_c, 0, 98, 88
2, 87840, Note_on_c, 0, 98, 0
2, 87840, Note_on_c, 0, 93, 0
2, 87840, Note_on_c, 0, 89, 0
2, 88080, Control_c, 0, 64, 127
2, 88080, Note_on_c, 0, 93, 62
2, 88260, Note_on_c, 0, 93, 0
2, 88260, Note_on_c, 0, 94, 62
2, 88320, Note_on_c, 0, 94, 0
2, 88320, Note_on_c, 0, 93, 49
2, 88440, Note_on_c, 0, 93, 0
2, 88440, Note_on_c, 0, 90, 49
2, 88560, Note_on_c, 0, 90, 0
2, 88560, Note_on_c, 0, 91, 49
2, 88680, Note_on_c, 0, 91, 0
2, 88680, Note_on_c, 0, 88, 49
2, 88800, Note_on_c, 0, 88, 0
2, 88800, Note_on_c, 0, 90, 49
2, 88920, Note_on_c, 0, 90, 0
2, 88920, Note_on_c, 0, 86, 49
2, 89040, Note_on_c, 0, 86, 0
2, 89040, Note_on_c, 0, 91, 49
2, 89160, Note_on_c, 0, 91, 0
2, 89160, Note_on_c, 0, 88, 49
2, 89280, Note_on_c, 0, 88, 0
2, 89280, Note_on_c, 0, 93, 49
2, 89400, Note_on_c, 0, 93, 0
2, 89400, Note_on_c, 0, 90, 49
2, 89520, Note_on_c, 0, 90, 0
2, 89520, Note_on_c, 0, 95, 49
2, 89640, Note_on_c, 0, 95, 0
2, 89640, Note_on_c, 0, 90, 49
2, 89760, Note_on_c, 0, 90, 0
2, 89760, Note_on_c, 0, 93, 49
2, 89880, Note_on_c, 0, 93, 0
2, 89880, Note_on_c, 0, 90, 49
2, 90000, Note_on_c, 0, 90, 0
2, 90000, Note_on_c, 0, 98, 49
2, 90120, Note_on_c, 0, 98, 0
2, 90120, Control_c, 0, 64, 0
2, 90120, Note_on_c, 0, 93, 49
2, 90240, Note_on_c, 0, 93, 0
2, 90240, Control_c, 0, 64, 127
2, 90240, Note_on_c, 0, 102, 49
2, 90360, Note_on_c, 0, 102, 0
2, 90360, Note_on_c, 0, 93, 49
2, 90480, Note_on_c, 0, 93, 0
2, 90480, Note_on_c, 0, 105, 49
2, 90600, Note_on_c, 0, 105, 0
2, 90600, Note_on_c, 0, 93, 49
2, 90720, Note_on_c, 0, 93, 0
2, 90720, Note_on_c, 0, 100, 49
2, 90840, Note_on_c, 0, 100, 0
2, 90840, Note_on_c, 0, 93, 49
2, 90960, Note_on_c, 0, 93, 0
2, 90960, Note_on_c, 0, 105, 49
2, 91080, Note_on_c, 0, 105, 0
2, 91080, Note_on_c, 0, 93, 49
2, 91200, Note_on_c, 0, 93, 0
2, 91200, Note_on_c, 0, 98, 49
2, 91320, Note_on_c, 0, 98, 0
2, 91320, Note_on_c, 0, 93, 49
2, 91440, Note_on_c, 0, 93, 0
2, 91440, Note_on_c, 0, 105, 49
2, 91560, Note_on_c, 0, 105, 0
2, 91560, Note_on_c, 0, 102, 49
2, 91680, Note_on_c, 0, 102, 0
2, 91680, Note_on_c, 0, 98, 49
2, 91800, Note_on_c, 0, 98, 0
2, 91800, Note_on_c, 0, 93, 49
2, 91920, Note_on_c, 0, 93, 0
2, 91920, Note_on_c, 0, 95, 49
2, 92040, Note_on_c, 0, 95, 0
2, 92040, Control_c, 0, 64, 0
2, 92040, Note_on_c, 0, 90, 49
2, 92160, Note_on_c, 0, 90, 0
2, 92160, Control_c, 0, 64, 127
2, 92160, Note_on_c, 0, 93, 49
2, 92280, Note_on_c, 0, 93, 0
2, 92280, Note_on_c, 0, 90, 49
2, 92400, Note_on_c, 0, 90, 0
2, 92400, Note_on_c, 0, 91, 49
2, 92520, Note_on_c, 0, 91, 0
2, 92520, Note_on_c, 0, 88, 49
2, 92640, Note_on_c, 0, 88, 0
2, 92640, Note_on_c, 0, 90, 49
2, 92760, Note_on_c, 0, 90, 0
2, 92760, Note_on_c, 0, 86, 49
2, 92880, Note_on_c, 0, 86, 0
2, 92880, Note_on_c, 0, 91, 49
2, 93000, Note_on_c, 0, 91, 0
2, 93000, Control_c, 0, 64, 0
2, 93000, Note_on_c, 0, 88, 49
2, 93120, Note_on_c, 0, 88, 0
2, 93120, Control_c, 0, 64, 127
2, 93120, Note_on_c, 0, 93, 49
2, 93240, Note_on_c, 0, 93, 0
2, 93240, Note_on_c, 0, 90, 49
2, 93360, Note_on_c, 0, 90, 0
2, 93360, Note_on_c, 0, 95, 49
2, 93480, Note_on_c, 0, 95, 0
2, 93480, Note_on_c, 0, 90, 49
2, 93600, Note_on_c, 0, 90, 0
2, 93600, Note_on_c, 0, 93, 49
2, 93720, Note_on_c, 0, 93, 0
2, 93720, Note_on_c, 0, 90, 49
2, 93840, Note_on_c, 0, 90, 0
2, 93840, Note_on_c, 0, 98, 49
2, 93960, Note_on_c, 0, 98, 0
2, 93960, Control_c, 0, 64, 0
2, 93960, Note_on_c, 0, 93, 49
2, 94080, Note_on_c, 0, 93, 0
2, 94080, Control_c, 0, 64, 127
2, 94080, Note_on_c, 0, 102, 49
2, 94200, Note_on_c, 0, 102, 0
2, 94200, Note_on_c, 0, 93, 49
2, 94320, Note_on_c, 0, 93, 0
2, 94320, Note_on_c, 0, 105, 49
2, 94440, Note_on_c, 0, 105, 0
2, 94440, Note_on_c, 0, 93, 49
2, 94560, Note_on_c, 0, 93, 0
2, 94560, Note_on_c, 0, 100, 49
2, 94680, Note_on_c, 0, 100, 0
2, 94680, Note_on_c, 0, 93, 49
2, 94800, Note_on_c, 0, 93, 0
2, 94800, Note_on_c, 0, 105, 49
2, 94920, Note_on_c, 0, 105, 0
2, 94920, Note_on_c, 0, 93, 49
2, 95040, Note_on_c, 0, 93, 0
2, 95040, Note_on_c, 0, 98, 49
2, 95160, Note_on_c, 0, 98, 0
2, 95160, Note_on_c, 0, 93, 49
2, 95280, Note_on_c, 0, 93, 0
2, 95280, Note_on_c, 0, 105, 49
2, 95400, Note_on_c, 0, 105, 0
2, 95400, Note_on_c, 0, 102, 49
2, 96000, Note_on_c, 0, 102, 0
2, 96000, Note_on_c, 0, 74, 62
2, 96120, Note_on_c, 0, 74, 0
2, 96120, Note_on_c, 0, 73, 62
2, 96240, Note_on_c, 0, 73, 0
2, 96240, Note_on_c, 0, 74, 62
2, 96360, Note_on_c, 0, 74, 0
2, 96480, Note_on_c, 0, 76, 62
2, 96600, Note_on_c, 0, 76, 0
2, 96600, Note_on_c, 0, 75, 62
2, 96720, Note_on_c, 0, 75, 0
2, 96720, Note_on_c, 0, 76, 62
2, 96840, Note_on_c, 0, 76, 0
2, 96960, Note_on_c, 0, 77, 62
2, 97080, Note_on_c, 0, 77, 0
2, 97080, Note_on_c, 0, 76, 62
2, 97200, Note_on_c, 0, 76, 0
2, 97200, Note_on_c, 0, 77, 62
2, 97320, Note_on_c, 0, 77, 0
2, 97440, Note_on_c, 0, 74, 62
2, 97560, Note_on_c, 0, 74, 0
2, 97560, Note_on_c, 0, 73, 62
2, 97680, Note_on_c, 0, 73, 0
2, 97680, Note_on_c, 0, 74, 62
2, 97800, Note_on_c, 0, 74, 0
2, 97920, Note_on_c, 0, 86, 62
2, 98040, Note_on_c, 0, 86, 0
2, 98040, Note_on_c, 0, 85, 62
2, 98160, Note_on_c, 0, 85, 0
2, 98160, Note_on_c, 0, 86, 62
2, 98280, Note_on_c, 0, 86, 0
2, 98400, Note_on_c, 0, 82, 62
2, 98520, Note_on_c, 0, 82, 0
2, 98520, Note_on_c, 0, 81, 62
2, 98640, Note_on_c, 0, 81, 0
2, 98640, Note_on_c, 0, 82, 62
2, 98760, Note_on_c, 0, 82, 0
2, 98880, Note_on_c, 0, 81, 62
2, 99000, Note_on_c, 0, 81, 0
2, 99000, Note_on_c, 0, 80, 62
2, 99120, Note_on_c, 0, 80, 0
2, 99120, Note_on_c, 0, 81, 62
2, 99600, Note_on_c, 0, 81, 0
2, 99840, Note_on_c, 0, 98, 62
2, 99960, Note_on_c, 0, 98, 0
2, 99960, Note_on_c, 0, 97, 62
2, 100080, Note_on_c, 0, 97, 0
2, 100080, Note_on_c, 0, 98, 62
2, 100200, Note_on_c, 0, 98, 0
2, 100320, Note_on_c, 0, 94, 62
2, 100440, Note_on_c, 0, 94, 0
2, 100440, Note_on_c, 0, 93, 62
2, 100560, Note_on_c, 0, 93, 0
2, 100560, Note_on_c, 0, 94, 62
2, 100680, Note_on_c, 0, 94, 0
2, 100800, Note_on_c, 0, 93, 62
2, 100920, Note_on_c, 0, 93, 0
2, 100920, Note_on_c, 0, 92, 62
2, 101040, Note_on_c, 0, 92, 0
2, 101040, Note_on_c, 0, 93, 62
2, 101520, Note_on_c, 0, 93, 0
2, 101760, Note_on_c, 0, 79, 62
2, 101880, Note_on_c, 0, 79, 0
2, 101880, Note_on_c, 0, 78, 62
2, 102000, Note_on_c, 0, 78, 0
2, 102000, Note_on_c, 0, 79, 62
2, 102480, Note_on_c, 0, 79, 0
2, 102480, Note_on_c, 0, 82, 62
2, 102503, Note_on_c, 0, 82, 0
2, 102720, Note_on_c, 0, 81, 62
2, 102840, Note_on_c, 0, 81, 0
2, 102840, Note_on_c, 0, 80, 62
2, 102960, Note_on_c, 0, 80, 0
2, 102960, Note_on_c, 0, 81, 62
2, 103080, Note_on_c, 0, 81, 0
2, 103200, Note_on_c, 0, 79, 62
2, 103320, Note_on_c, 0, 79, 0
2, 103320, Note_on_c, 0, 78, 62
2, 103440, Note_on_c, 0, 78, 0
2, 103440, Note_on_c, 0, 79, 62
2, 103560, Note_on_c, 0, 79, 0
2, 103680, Note_on_c, 0, 77, 62
2, 103800, Note_on_c, 0, 77, 0
2, 103800, Note_on_c, 0, 76, 62
2, 103920, Note_on_c, 0, 76, 0
2, 103920, Note_on_c, 0, 77, 62
2, 104040, Note_on_c, 0, 77, 0
2, 104160, Note_on_c, 0, 76, 62
2, 104280, Note_on_c, 0, 76, 0
2, 104280, Note_on_c, 0, 75, 62
2, 104400, Note_on_c, 0, 75, 0
2, 104400, Note_on_c, 0, 76, 62
2, 104520, Note_on_c, 0, 76, 0
2, 104640, Note_on_c, 0, 74, 62
2, 104760, Note_on_c, 0, 74, 0
2, 104760, Note_on_c, 0, 73, 62
2, 104880, Note_on_c, 0, 73, 0
2, 104880, Note_on_c, 0, 74, 62
2, 105120, Note_on_c, 0, 74, 0
2, 105600, Control_c, 0, 64, 127
2, 105600, Note_on_c, 0, 91, 88
2, 105720, Note_on_c, 0, 91, 0
2, 105720, Note_on_c, 0, 90, 62
2, 105840, Note_on_c, 0, 90, 0
2, 105840, Note_on_c, 0, 91, 62
2, 106200, Note_on_c, 0, 91, 0
2, 106200, Note_on_c, 0, 93, 62
2, 106320, Note_on_c, 0, 93, 0
2, 106320, Note_on_c, 0, 96, 62
2, 106440, Note_on_c, 0, 96, 0
2, 106440, Control_c, 0, 64, 0
2, 106440, Note_on_c, 0, 94, 62
2, 106560, Note_on_c, 0, 94, 0
2, 106560, Note_on_c, 0, 93, 62
2, 106680, Note_on_c, 0, 93, 0
2, 106680, Note_on_c, 0, 92, 62
2, 106800, Note_on_c, 0, 92, 0
2, 106800, Note_on_c, 0, 93, 62
2, 106920, Note_on_c, 0, 93, 0
2, 107040, Note_on_c, 0, 91, 62
2, 107160, Note_on_c, 0, 91, 0
2, 107160, Note_on_c, 0, 90, 62
2, 107280, Note_on_c, 0, 90, 0
2, 107280, Note_on_c, 0, 91, 62
2, 107400, Note_on_c, 0, 91, 0
2, 107520, Note_on_c, 0, 89, 62
2, 107640, Note_on_c, 0, 89, 0
2, 107640, Note_on_c, 0, 88, 62
2, 107760, Note_on_c, 0, 88, 0
2, 107760, Note_on_c, 0, 89, 62
2, 107880, Note_on_c, 0, 89, 0
2, 108000, Note_on_c, 0, 88, 62
2, 108120, Note_on_c, 0, 88, 0
2, 108120, Note_on_c, 0, 87, 62
2, 108240, Note_on_c, 0, 87, 0
2, 108240, Note_on_c, 0, 88, 62
2, 108360, Note_on_c, 0, 88, 0
2, 108480, Control_c, 0, 64, 127
2, 108480, Note_on_c, 0, 86, 62
2, 108600, Note_on_c, 0, 86, 0
2, 108600, Note_on_c, 0, 85, 62
2, 108720, Note_on_c, 0, 85, 0
2, 108720, Note_on_c, 0, 86, 62
2, 109080, Note_on_c, 0, 86, 0
2, 109080, Note_on_c, 0, 81, 62
2, 109200, Note_on_c, 0, 81, 0
2, 109200, Note_on_c, 0, 77, 62
2, 109320, Note_on_c, 0, 77, 0
2, 109320, Control_c, 0, 64, 0
2, 109320, Note_on_c, 0, 76, 62
2, 109440, Note_on_c, 0, 76, 0
2, 110400, Note_on_c, 0, 89, 88
2, 110400, Note_on_c, 0, 94, 88
2, 110400, Note_on_c, 0, 98, 88
2, 111120, Note_on_c, 0, 98, 0
2, 111120, Note_on_c, 0, 94, 0
2, 111120, Note_on_c, 0, 89, 0
2, 111120, Note_on_c, 0, 89, 88
2, 111120, Note_on_c, 0, 94, 88
2, 111120, Note_on_c, 0, 98, 88
2, 111360, Note_on_c, 0, 98, 0
2, 111360, Note_on_c, 0, 94, 0
2, 111360, Note_on_c, 0, 89, 0
2, 111480, Note_on_c, 0, 93, 88
2, 111480, Note_on_c, 0, 96, 88
2, 111600, Note_on_c, 0, 96, 0
2, 111600, Note_on_c, 0, 93, 0
2, 111600, Note_on_c, 0, 84, 88
2, 111720, Note_on_c, 0, 84, 0
2, 111720, Note_on_c, 0, 93, 88
2, 111720, Note_on_c, 0, 96, 88
2, 111840, Note_on_c, 0, 96, 0
2, 111840, Note_on_c, 0, 93, 0
2, 111960, Note_on_c, 0, 91, 88
2, 111960, Note_on_c, 0, 94, 88
2, 112080, Note_on_c, 0, 94, 0
2, 112080, Note_on_c, 0, 91, 0
2, 112080, Note_on_c, 0, 82, 88
2, 112200, Note_on_c, 0, 82, 0
2, 112200, Note_on_c, 0, 91, 88
2, 112200, Note_on_c, 0, 94, 88
2, 112320, Note_on_c, 0, 94, 0
2, 112320, Note_on_c, 0, 91, 0
2, 112440, Control_c, 0, 64, 127
2, 112440, Note_on_c, 0, 89, 88
2, 112440, Note_on_c, 0, 93, 88
2, 112560, Note_on_c, 0, 93, 0
2, 112560, Note_on_c, 0, 89, 0
2, 112560, Note_on_c, 0, 81, 88
2, 112680, Note_on_c, 0, 81, 0
2, 112680, Note_on_c, 0, 89, 88
2, 112800, Note_on_c, 0, 89, 0
2, 112800, Note_on_c, 0, 81, 88
2, 112920, Note_on_c, 0, 81, 0
2, 112920, Note_on_c, 0, 89, 88
2, 113040, Note_on_c, 0, 89, 0
2, 113040, Note_on_c, 0, 81, 88
2, 113160, Note_on_c, 0, 81, 0
2, 113160, Control_c, 0, 64, 0
2, 113160, Note_on_c, 0, 89, 88
2, 113280, Note_on_c, 0, 89, 0
2, 113280, Note_on_c, 0, 70, 88
2, 113280, Note_on_c, 0, 74, 88
2, 114000, Note_on_c, 0, 74, 0
2, 114000, Note_on_c, 0, 70, 0
2, 114000, Note_on_c, 0, 70, 88
2, 114000, Note_on_c, 0, 74, 88
2, 114240, Note_on_c, 0, 74, 0
2, 114240, Note_on_c, 0, 70, 0
2, 114240, Note_on_c, 0, 89, 88
2, 114240, Note_on_c, 0, 94, 88
2, 114240, Note_on_c, 0, 98, 88
2, 114960, Note_on_c, 0, 98, 0
2, 114960, Note_on_c, 0, 94, 0
2, 114960, Note_on_c, 0, 89, 0
2, 114960, Note_on_c, 0, 89, 88
2, 114960, Note_on_c, 0, 94, 88
2, 114960, Note_on_c, 0, 98, 88
2, 115200, Note_on_c, 0, 98, 0
2, 115200, Note_on_c, 0, 94, 0
2, 115200, Note_on_c, 0, 89, 0
2, 115320, Note_on_c, 0, 93, 88
2, 115320, Note_on_c, 0, 96, 88
2, 115440, Note_on_c, 0, 96, 0
2, 115440, Note_on_c, 0, 93, 0
2, 115440, Note_on_c, 0, 84, 88
2, 115560, Note_on_c, 0, 84, 0
2, 115560, Note_on_c, 0, 93, 88
2, 115560, Note_on_c, 0, 96, 88
2, 115680, Note_on_c, 0, 96, 0
2, 115680, Note_on_c, 0, 93, 0
2, 115800, Note_on_c, 0, 91, 88
2, 115800, Note_on_c, 0, 94, 88
2, 115920, Note_on_c, 0, 94, 0
2, 115920, Note_on_c, 0, 91, 0
2, 115920, Note_on_c, 0, 82, 88
2, 116040, Note_on_c, 0, 82, 0
2, 116040, Note_on_c, 0, 91, 88
2, 116040, Note_on_c, 0, 94, 88
2, 116160, Note_on_c, 0, 94, 0
2, 116160, Note_on_c, 0, 91, 0
2, 116280, Control_c, 0, 64, 127
2, 116280, Note_on_c, 0, 89, 88
2, 116280, Note_on_c, 0, 93, 88
2, 116400, Note_on_c, 0, 93, 0
2, 116400, Note_on_c, 0, 89, 0
2, 116400, Note_on_c, 0, 81, 88
2, 116520, Note_on_c, 0, 81, 0
2, 116520, Note_on_c, 0, 89, 88
2, 116640, Note_on_c, 0, 89, 0
2, 116640, Control_c, 0, 64, 0
2, 116640, Note_on_c, 0, 81, 88
2, 117120, Note_on_c, 0, 81, 0
2, 117120, Note_on_c, 0, 67, 114
2, 117840, Note_on_c, 0, 67, 0
2, 117840, Note_on_c, 0, 70, 62
2, 117863, Note_on_c, 0, 70, 0
2, 118080, Note_on_c, 0, 69, 62
2, 118103, Note_on_c, 0, 69, 0
2, 118560, Note_on_c, 0, 67, 62
2, 118583, Note_on_c, 0, 67, 0
2, 119040, Note_on_c, 0, 65, 62
2, 119063, Note_on_c, 0, 65, 0
2, 119520, Note_on_c, 0, 64, 62
2, 119543, Note_on_c, 0, 64, 0
2, 120000, Note_on_c, 0, 62, 62
2, 120480, Note_on_c, 0, 62, 0
2, 121080, Control_c, 0, 64, 127
2, 121080, Note_on_c, 0, 81, 49
2, 121200, Note_on_c, 0, 81, 0
2, 121200, Note_on_c, 0, 78, 49
2, 121320, Note_on_c, 0, 78, 0
2, 121320, Note_on_c, 0, 79, 49
2, 121440, Note_on_c, 0, 79, 0
2, 121440, Note_on_c, 0, 78, 49
2, 121560, Note_on_c, 0, 78, 0
2, 121560, Note_on_c, 0, 79, 49
2, 121680, Note_on_c, 0, 79, 0
2, 121680, Note_on_c, 0, 84, 49
2, 121800, Note_on_c, 0, 84, 0
2, 121800, Control_c, 0, 64, 0
2, 121800, Note_on_c, 0, 82, 49
2, 121920, Note_on_c, 0, 82, 0
2, 122040, Note_on_c, 0, 82, 49
2, 122160, Note_on_c, 0, 82, 0
2, 122160, Note_on_c, 0, 77, 49
2, 122280, Note_on_c, 0, 77, 0
2, 122280, Note_on_c, 0, 81, 49
2, 122400, Note_on_c, 0, 81, 0
2, 122520, Note_on_c, 0, 81, 49
2, 122640, Note_on_c, 0, 81, 0
2, 122640, Note_on_c, 0, 76, 49
2, 122760, Note_on_c, 0, 76, 0
2, 122760, Note_on_c, 0, 79, 49
2, 122880, Note_on_c, 0, 79, 0
2, 123000, Note_on_c, 0, 79, 49
2, 123120, Note_on_c, 0, 79, 0
2, 123120, Note_on_c, 0, 74, 49
2, 123240, Note_on_c, 0, 74, 0
2, 123240, Note_on_c, 0, 77, 49
2, 123360, Note_on_c, 0, 77, 0
2, 123480, Note_on_c, 0, 77, 49
2, 123600, Note_on_c, 0, 77, 0
2, 123600, Note_on_c, 0, 73, 49
2, 123720, Note_on_c, 0, 73, 0
2, 123720, Note_on_c, 0, 76, 49
2, 123840, Note_on_c, 0, 76, 0
2, 123960, Control_c, 0, 64, 127
2, 123960, Note_on_c, 0, 76, 49
2, 124080, Note_on_c, 0, 76, 0
2, 124080, Note_on_c, 0, 73, 49
2, 124200, Note_on_c, 0, 73, 0
2, 124200, Note_on_c, 0, 74, 49
2, 124320, Note_on_c, 0, 74, 0
2, 124320, Note_on_c, 0, 73, 62
2, 124440, Note_on_c, 0, 73, 0
2, 124440, Note_on_c, 0, 74, 62
2, 124560, Note_on_c, 0, 74, 0
2, 124560, Note_on_c, 0, 69, 62
2, 124680, Note_on_c, 0, 69, 0
2, 124680, Control_c, 0, 64, 0
2, 124680, Note_on_c, 0, 65, 62
2, 124800, Note_on_c, 0, 65, 0
2, 124800, Control_c, 0, 64, 127
2, 124800, Note_on_c, 0, 74, 88
2, 125040, Note_on_c, 0, 74, 0
2, 125040, Note_on_c, 0, 73, 88
2, 125160, Note_on_c, 0, 73, 0
2, 125160, Note_on_c, 0, 74, 88
2, 125280, Note_on_c, 0, 74, 0
2, 125280, Note_on_c, 0, 73, 88
2, 125400, Note_on_c, 0, 73, 0
2, 125400, Note_on_c, 0, 74, 88
2, 125520, Note_on_c, 0, 74, 0
2, 125520, Note_on_c, 0, 73, 88
2, 125640, Note_on_c, 0, 73, 0
2, 125640, Control_c, 0, 64, 0
2, 125640, Note_on_c, 0, 74, 88
2, 125760, Note_on_c, 0, 74, 0
2, 125760, Control_c, 0, 64, 127
2, 125760, Note_on_c, 0, 82, 101
2, 125760, Note_on_c, 0, 86, 101
2, 126000, Note_on_c, 0, 86, 0
2, 126000, Note_on_c, 0, 82, 0
2, 126000, Note_on_c, 0, 81, 101
2, 126000, Note_on_c, 0, 85, 101
2, 126120, Note_on_c, 0, 85, 0
2, 126120, Note_on_c, 0, 81, 0
2, 126120, Note_on_c, 0, 82, 101
2, 126120, Note_on_c, 0, 86, 101
2, 126240, Note_on_c, 0, 86, 0
2, 126240, Note_on_c, 0, 82, 0
2, 126240, Note_on_c, 0, 81, 101
2, 126240, Note_on_c, 0, 85, 101
2, 126360, Note_on_c, 0, 85, 0
2, 126360, Note_on_c, 0, 81, 0
2, 126360, Note_on_c, 0, 82, 101
2, 126360, Note_on_c, 0, 86, 101
2, 126480, Note_on_c, 0, 86, 0
2, 126480, Note_on_c, 0, 82, 0
2, 126480, Note_on_c, 0, 81, 101
2, 126480, Note_on_c, 0, 85, 101
2, 126600, Note_on_c, 0, 85, 0
2, 126600, Note_on_c, 0, 81, 0
2, 126600, Control_c, 0, 64, 0
2, 126600, Note_on_c, 0, 82, 101
2, 126600, Note_on_c, 0, 86, 101
2, 126720, Note_on_c, 0, 86, 0
2, 126720, Note_on_c, 0, 82, 0
2, 126840, Note_on_c, 0, 93, 88
2, 126840, Note_on_c, 0, 96, 88
2, 126960, Note_on_c, 0, 96, 0
2, 126960, Note_on_c, 0, 93, 0
2, 126960, Note_on_c, 0, 84, 88
2, 127080, Note_on_c, 0, 84, 0
2, 127080, Note_on_c, 0, 93, 88
2, 127080, Note_on_c, 0, 96, 88
2, 127200, Note_on_c, 0, 96, 0
2, 127200, Note_on_c, 0, 93, 0
2, 127320, Note_on_c, 0, 91, 88
2, 127320, Note_on_c, 0, 94, 88
2, 127440, Note_on_c, 0, 94, 0
2, 127440, Note_on_c, 0, 91, 0
2, 127440, Note_on_c, 0, 82, 88
2, 127560, Note_on_c, 0, 82, 0
2, 127560, Note_on_c, 0, 91, 88
2, 127560, Note_on_c, 0, 94, 88
2, 127680, Note_on_c, 0, 94, 0
2, 127680, Note_on_c, 0, 91, 0
2, 127800, Control_c, 0, 64, 127
2, 127800, Note_on_c, 0, 89, 88
2, 127800, Note_on_c, 0, 93, 88
2, 127920, Note_on_c, 0, 93, 0
2, 127920, Note_on_c, 0, 89, 0
2, 127920, Note_on_c, 0, 81, 88
2, 128040, Note_on_c, 0, 81, 0
2, 128040, Note_on_c, 0, 89, 88
2, 128160, Note_on_c, 0, 89, 0
2, 128160, Note_on_c, 0, 81, 88
2, 128280, Note_on_c, 0, 81, 0
2, 128280, Note_on_c, 0, 89, 88
2, 128400, Note_on_c, 0, 89, 0
2, 128400, Note_on_c, 0, 81, 88
2, 128520, Note_on_c, 0, 81, 0
2, 128520, Control_c, 0, 64, 0
2, 128520, Note_on_c, 0, 89, 88
2, 128640, Note_on_c, 0, 89, 0
2, 128640, Control_c, 0, 64, 127
2, 128640, Note_on_c, 0, 74, 88
2, 128880, Note_on_c, 0, 74, 0
2, 128880, Note_on_c, 0, 73, 88
2, 129000, Note_on_c, 0, 73, 0
2, 129000, Note_on_c, 0, 74, 88
2, 129120, Note_on_c, 0, 74, 0
2, 129120, Note_on_c, 0, 73, 88
2, 129240, Note_on_c, 0, 73, 0
2, 129240, Note_on_c, 0, 74, 88
2, 129360, Note_on_c, 0, 74, 0
2, 129360, Note_on_c, 0, 73, 88
2, 129480, Note_on_c, 0, 73, 0
2, 129480, Control_c, 0, 64, 0
2, 129480, Note_on_c, 0, 74, 88
2, 129600, Note_on_c, 0, 74, 0
2, 129600, Control_c, 0, 64, 127
2, 129600, Note_on_c, 0, 82, 101
2, 129600, Note_on_c, 0, 86, 101
2, 129840, Note_on_c, 0, 86, 0
2, 129840, Note_on_c, 0, 82, 0
2, 129840, Note_on_c, 0, 81, 101
2, 129840, Note_on_c, 0, 85, 101
2, 129960, Note_on_c, 0, 85, 0
2, 129960, Note_on_c, 0, 81, 0
2, 129960, Note_on_c, 0, 82, 101
2, 129960, Note_on_c, 0, 86, 101
2, 130080, Note_on_c, 0, 86, 0
2, 130080, Note_on_c, 0, 82, 0
2, 130080, Note_on_c, 0, 81, 101
2, 130080, Note_on_c, 0, 85, 101
2, 130200, Note_on_c, 0, 85, 0
2, 130200, Note_on_c, 0, 81, 0
2, 130200, Note_on_c, 0, 82, 101
2, 130200, Note_on_c, 0, 86, 101
2, 130320, Note_on_c, 0, 86, 0
2, 130320, Note_on_c, 0, 82, 0
2, 130320, Note_on_c, 0, 91, 127
2, 130440, Note_on_c, 0, 91, 0
2, 130440, Control_c, 0, 64, 0
2, 130440, Note_on_c, 0, 82, 101
2, 130440, Note_on_c, 0, 86, 101
2, 130560, Note_on_c, 0, 86, 0
2, 130560, Note_on_c, 0, 82, 0
2, 130680, Note_on_c, 0, 93, 88
2, 130680, Note_on_c, 0, 96, 88
2, 130800, Note_on_c, 0, 96, 0
2, 130800, Note_on_c, 0, 93, 0
2, 130800, Note_on_c, 0, 84, 88
2, 130920, Note_on_c, 0, 84, 0
2, 130920, Note_on_c, 0, 93, 88
2, 130920, Note_on_c, 0, 96, 88
2, 131040, Note_on_c, 0, 96, 0
2, 131040, Note_on_c, 0, 93, 0
2, 131160, Note_on_c, 0, 91, 88
2, 131160, Note_on_c, 0, 94, 88
2, 131280, Note_on_c, 0, 94, 0
2, 131280, Note_on_c, 0, 91, 0
2, 131280, Note_on_c, 0, 82, 88
2, 131400, Note_on_c, 0, 82, 0
2, 131400, Note_on_c, 0, 91, 88
2, 131400, Note_on_c, 0, 94, 88
2, 131520, Note_on_c, 0, 94, 0
2, 131520, Note_on_c, 0, 91, 0
2, 131640, Control_c, 0, 64, 127
2, 131640, Note_on_c, 0, 89, 88
2, 131640, Note_on_c, 0, 93, 88
2, 131760, Note_on_c, 0, 93, 0
2, 131760, Note_on_c, 0, 89, 0
2, 131760, Note_on_c, 0, 81, 88
2, 131880, Note_on_c, 0, 81, 0
2, 131880, Note_on_c, 0, 89, 88
2, 132000, Note_on_c, 0, 89, 0
2, 132000, Control_c, 0, 64, 0
2, 132000, Note_on_c, 0, 81, 88
2, 132480, Note_on_c, 0, 81, 0
2, 132480, Note_on_c, 0, 67, 114
2, 133200, Note_on_c, 0, 67, 0
2, 133200, Note_on_c, 0, 70, 62
2, 133223, Note_on_c, 0, 70, 0
2, 133440, Note_on_c, 0, 69, 62
2, 133463, Note_on_c, 0, 69, 0
2, 133920, Note_on_c, 0, 67, 62
2, 133943, Note_on_c, 0, 67, 0
2, 134400, Note_on_c, 0, 65, 62
2, 134423, Note_on_c, 0, 65, 0
2, 134880, Note_on_c, 0, 64, 62
2, 134903, Note_on_c, 0, 64, 0
2, 135360, Note_on_c, 0, 62, 62
2, 135840, Note_on_c, 0, 62, 0
2, 140160, Note_on_c, 0, 86, 127
2, 140160, Note_on_c, 0, 89, 127
2, 140160, Note_on_c, 0, 93, 127
2, 140160, Note_on_c, 0, 98, 127
2, 140207, Note_on_c, 0, 98, 0
2, 140207, Note_on_c, 0, 86, 0
2, 140207, Note_on_c, 0, 89, 0
2, 140207, Note_on_c, 0, 93, 0
2, 140640, Control_c, 0, 64, 127
2, 142560, Control_c, 0, 64, 0
2, 142560, End_track
3, 0, Start_track
3, 0, Title_t, "Instrument17"
3, 0, Program_c, 0, 0
3, 0, Control_c, 0, 7, 110
3, 0, Control_c, 0, 10, 97
3, 0, Note_on_c, 0, 62, 88
3, 720, Note_on_c, 0, 62, 0
3, 720, Note_on_c, 0, 64, 62
3, 743, Note_on_c, 0, 64, 0
3, 960, Note_on_c, 0, 65, 62
3, 983, Note_on_c, 0, 65, 0
3, 1440, Note_on_c, 0, 62, 62
3, 1463, Note_on_c, 0, 62, 0
3, 1920, Note_on_c, 0, 70, 62
3, 1920, Note_on_c, 0, 74, 62
3, 1943, Note_on_c, 0, 74, 0
3, 1943, Note_on_c, 0, 70, 0
3, 2400, Note_on_c, 0, 67, 62
3, 2400, Note_on_c, 0, 70, 62
3, 2423, Note_on_c, 0, 70, 0
3, 2423, Note_on_c, 0, 67, 0
3, 2880, Note_on_c, 0, 65, 62
3, 2880, Note_on_c, 0, 69, 62
3, 3360, Note_on_c, 0, 69, 0
3, 3360, Note_on_c, 0, 65, 0
3, 3780, Note_on_c, 0, 70, 62
3, 3840, Note_on_c, 0, 74, 62
3, 3863, Note_on_c, 0, 74, 0
3, 3863, Note_on_c, 0, 70, 0
3, 4320, Note_on_c, 0, 70, 75
3, 4343, Note_on_c, 0, 70, 0
3, 4800, Note_on_c, 0, 69, 75
3, 5280, Note_on_c, 0, 69, 0
3, 5760, Note_on_c, 0, 67, 88
3, 6420, Note_on_c, 0, 62, 62
3, 6480, Note_on_c, 0, 67, 0
3, 6480, Note_on_c, 0, 70, 62
3, 6503, Note_on_c, 0, 70, 0
3, 6503, Note_on_c, 0, 62, 0
3, 6720, Note_on_c, 0, 69, 62
3, 6743, Note_on_c, 0, 69, 0
3, 7200, Note_on_c, 0, 64, 62
3, 7200, Note_on_c, 0, 67, 62
3, 7223, Note_on_c, 0, 67, 0
3, 7223, Note_on_c, 0, 64, 0
3, 7680, Note_on_c, 0, 62, 62
3, 7680, Note_on_c, 0, 65, 62
3, 7703, Note_on_c, 0, 65, 0
3, 7703, Note_on_c, 0, 62, 0
3, 8160, Note_on_c, 0, 61, 62
3, 8160, Note_on_c, 0, 64, 62
3, 8183, Note_on_c, 0, 64, 0
3, 8183, Note_on_c, 0, 61, 0
3, 8640, Note_on_c, 0, 62, 62
3, 9120, Note_on_c, 0, 62, 0
3, 9600, Note_on_c, 0, 67, 88
3, 10320, Note_on_c, 0, 67, 0
3, 10320, Note_on_c, 0, 70, 75
3, 10343, Note_on_c, 0, 70, 0
3, 10560, Note_on_c, 0, 69, 75
3, 10583, Note_on_c, 0, 69, 0
3, 11040, Note_on_c, 0, 67, 75
3, 11063, Note_on_c, 0, 67, 0
3, 11520, Note_on_c, 0, 65, 75
3, 11543, Note_on_c, 0, 65, 0
3, 12000, Note_on_c, 0, 64, 75
3, 12023, Note_on_c, 0, 64, 0
3, 12480, Note_on_c, 0, 62, 75
3, 12960, Note_on_c, 0, 62, 0
3, 13440, Note_on_c, 0, 50, 75
3, 13463, Note_on_c, 0, 50, 0
3, 13920, Note_on_c, 0, 64, 75
3, 13943, Note_on_c, 0, 64, 0
3, 14400, Note_on_c, 0, 65, 75
3, 14423, Note_on_c, 0, 65, 0
3, 14880, Note_on_c, 0, 62, 75
3, 14903, Note_on_c, 0, 62, 0
3, 15360, Note_on_c, 0, 74, 75
3, 15383, Note_on_c, 0, 74, 0
3, 15840, Note_on_c, 0, 70, 75
3, 15863, Note_on_c, 0, 70, 0
3, 16320, Note_on_c, 0, 69, 75
3, 16343, Note_on_c, 0, 69, 0
3, 17280, Note_on_c, 0, 70, 75
3, 17280, Note_on_c, 0, 74, 75
3, 17303, Note_on_c, 0, 74, 0
3, 17303, Note_on_c, 0, 70, 0
3, 17760, Note_on_c, 0, 67, 75
3, 17760, Note_on_c, 0, 70, 75
3, 17760, Note_on_c, 0, 76, 75
3, 17783, Note_on_c, 0, 76, 0
3, 17783, Note_on_c, 0, 70, 0
3, 17783, Note_on_c, 0, 67, 0
3, 18240, Note_on_c, 0, 69, 75
3, 18240, Note_on_c, 0, 72, 75
3, 18240, Note_on_c, 0, 77, 75
3, 18263, Note_on_c, 0, 77, 0
3, 18263, Note_on_c, 0, 72, 0
3, 18263, Note_on_c, 0, 69, 0
3, 19200, Note_on_c, 0, 62, 101
3, 19200, Note_on_c, 0, 67, 101
3, 19920, Note_on_c, 0, 67, 0
3, 19920, Note_on_c, 0, 62, 0
3, 19920, Note_on_c, 0, 70, 75
3, 19943, Note_on_c, 0, 70, 0
3, 20160, Note_on_c, 0, 62, 75
3, 20160, Note_on_c, 0, 65, 75
3, 20160, Note_on_c, 0, 69, 75
3, 20183, Note_on_c, 0, 69, 0
3, 20183, Note_on_c, 0, 65, 0
3, 20183, Note_on_c, 0, 62, 0
3, 20640, Note_on_c, 0, 58, 75
3, 20640, Note_on_c, 0, 64, 75
3, 20640, Note_on_c, 0, 67, 75
3, 20663, Note_on_c, 0, 67, 0
3, 20663, Note_on_c, 0, 64, 0
3, 20663, Note_on_c, 0, 58, 0
3, 21120, Note_on_c, 0, 57, 75
3, 21120, Note_on_c, 0, 62, 75
3, 21120, Note_on_c, 0, 65, 75
3, 21135, Note_on_c, 0, 65, 0
3, 21135, Note_on_c, 0, 62, 0
3, 21135, Note_on_c, 0, 57, 0
3, 21600, Note_on_c, 0, 57, 75
3, 21600, Note_on_c, 0, 61, 75
3, 21600, Note_on_c, 0, 64, 75
3, 21615, Note_on_c, 0, 64, 0
3, 21615, Note_on_c, 0, 61, 0
3, 21615, Note_on_c, 0, 57, 0
3, 22080, Note_on_c, 0, 57, 75
3, 22080, Note_on_c, 0, 62, 75
3, 22103, Note_on_c, 0, 62, 0
3, 22103, Note_on_c, 0, 57, 0
3, 23040, Note_on_c, 0, 62, 75
3, 23040, Note_on_c, 0, 67, 75
3, 23063, Note_on_c, 0, 67, 0
3, 23063, Note_on_c, 0, 62, 0
3, 23760, Note_on_c, 0, 62, 75
3, 23760, Note_on_c, 0, 67, 75
3, 23760, Note_on_c, 0, 70, 75
3, 23783, Note_on_c, 0, 70, 0
3, 23783, Note_on_c, 0, 67, 0
3, 23783, Note_on_c, 0, 62, 0
3, 24000, Note_on_c, 0, 62, 62
3, 24000, Note_on_c, 0, 65, 62
3, 24000, Note_on_c, 0, 69, 62
3, 24023, Note_on_c, 0, 69, 0
3, 24023, Note_on_c, 0, 65, 0
3, 24023, Note_on_c, 0, 62, 0
3, 24480, Note_on_c, 0, 67, 62
3, 24480, Note_on_c, 0, 70, 62
3, 24480, Note_on_c, 0, 76, 62
3, 24503, Note_on_c, 0, 76, 0
3, 24503, Note_on_c, 0, 70, 0
3, 24503, Note_on_c, 0, 67, 0
3, 24960, Note_on_c, 0, 65, 62
3, 24960, Note_on_c, 0, 69, 62
3, 24960, Note_on_c, 0, 74, 62
3, 24983, Note_on_c, 0, 74, 0
3, 24983, Note_on_c, 0, 69, 0
3, 24983, Note_on_c, 0, 65, 0
3, 25440, Note_on_c, 0, 64, 62
3, 25440, Note_on_c, 0, 69, 62
3, 25463, Note_on_c, 0, 69, 0
3, 25463, Note_on_c, 0, 64, 0
3, 25920, Note_on_c, 0, 62, 62
3, 25943, Note_on_c, 0, 62, 0
3, 26880, Note_on_c, 0, 62, 88
3, 27600, Note_on_c, 0, 62, 0
3, 27600, Note_on_c, 0, 62, 88
3, 27840, Note_on_c, 0, 62, 0
3, 27840, Note_on_c, 0, 77, 88
3, 27840, Note_on_c, 0, 82, 88
3, 27840, Note_on_c, 0, 86, 88
3, 28560, Note_on_c, 0, 86, 0
3, 28560, Note_on_c, 0, 82, 0
3, 28560, Note_on_c, 0, 77, 0
3, 28560, Note_on_c, 0, 77, 88
3, 28560, Note_on_c, 0, 82, 88
3, 28560, Note_on_c, 0, 86, 88
3, 28800, Note_on_c, 0, 86, 0
3, 28800, Note_on_c, 0, 82, 0
3, 28800, Note_on_c, 0, 77, 0
3, 28800, Note_on_c, 0, 72, 88
3, 28800, Note_on_c, 0, 77, 88
3, 28800, Note_on_c, 0, 81, 88
3, 28823, Note_on_c, 0, 81, 0
3, 28823, Note_on_c, 0, 77, 0
3, 28823, Note_on_c, 0, 72, 0
3, 29280, Note_on_c, 0, 70, 88
3, 29280, Note_on_c, 0, 76, 88
3, 29280, Note_on_c, 0, 79, 88
3, 29303, Note_on_c, 0, 79, 0
3, 29303, Note_on_c, 0, 76, 0
3, 29303, Note_on_c, 0, 70, 0
3, 29760, Note_on_c, 0, 69, 88
3, 29760, Note_on_c, 0, 72, 88
3, 29760, Note_on_c, 0, 77, 88
3, 30480, Note_on_c, 0, 77, 0
3, 30480, Note_on_c, 0, 72, 0
3, 30480, Note_on_c, 0, 69, 0
3, 30480, Note_on_c, 0, 69, 88
3, 30480, Note_on_c, 0, 72, 88
3, 30480, Note_on_c, 0, 77, 88
3, 30720, Note_on_c, 0, 77, 0
3, 30720, Note_on_c, 0, 72, 0
3, 30720, Note_on_c, 0, 69, 0
3, 30720, Note_on_c, 0, 62, 88
3, 31440, Note_on_c, 0, 62, 0
3, 31440, Note_on_c, 0, 62, 88
3, 31680, Note_on_c, 0, 62, 0
3, 31680, Note_on_c, 0, 77, 88
3, 31680, Note_on_c, 0, 82, 88
3, 31680, Note_on_c, 0, 86, 88
3, 32400, Note_on_c, 0, 86, 0
3, 32400, Note_on_c, 0, 82, 0
3, 32400, Note_on_c, 0, 77, 0
3, 32400, Note_on_c, 0, 77, 88
3, 32400, Note_on_c, 0, 82, 88
3, 32400, Note_on_c, 0, 86, 88
3, 32640, Note_on_c, 0, 86, 0
3, 32640, Note_on_c, 0, 82, 0
3, 32640, Note_on_c, 0, 77, 0
3, 32640, Note_on_c, 0, 72, 88
3, 32640, Note_on_c, 0, 77, 88
3, 32640, Note_on_c, 0, 81, 88
3, 32663, Note_on_c, 0, 81, 0
3, 32663, Note_on_c, 0, 77, 0
3, 32663, Note_on_c, 0, 72, 0
3, 33120, Note_on_c, 0, 70, 88
3, 33120, Note_on_c, 0, 76, 88
3, 33120, Note_on_c, 0, 79, 88
3, 33143, Note_on_c, 0, 79, 0
3, 33143, Note_on_c, 0, 76, 0
3, 33143, Note_on_c, 0, 70, 0
3, 33600, Note_on_c, 0, 69, 88
3, 33600, Note_on_c, 0, 72, 88
3, 33600, Note_on_c, 0, 77, 88
3, 34320, Note_on_c, 0, 77, 0
3, 34320, Note_on_c, 0, 72, 0
3, 34320, Note_on_c, 0, 69, 0
3, 34320, Note_on_c, 0, 69, 88
3, 34320, Note_on_c, 0, 72, 88
3, 34320, Note_on_c, 0, 77, 88
3, 34560, Note_on_c, 0, 77, 0
3, 34560, Note_on_c, 0, 72, 0
3, 34560, Note_on_c, 0, 69, 0
3, 34560, Note_on_c, 0, 62, 75
3, 35520, Note_on_c, 0, 62, 0
3, 35520, Note_on_c, 0, 62, 49
3, 35543, Note_on_c, 0, 62, 0
3, 36000, Note_on_c, 0, 58, 49
3, 36000, Note_on_c, 0, 62, 49
3, 36023, Note_on_c, 0, 62, 0
3, 36023, Note_on_c, 0, 58, 0
3, 36480, Note_on_c, 0, 62, 49
3, 36503, Note_on_c, 0, 62, 0
3, 36960, Note_on_c, 0, 55, 49
3, 36960, Note_on_c, 0, 61, 49
3, 36983, Note_on_c, 0, 61, 0
3, 36983, Note_on_c, 0, 55, 0
3, 37440, Note_on_c, 0, 53, 49
3, 37440, Note_on_c, 0, 57, 49
3, 37560, Note_on_c, 0, 57, 0
3, 37560, Note_on_c, 0, 53, 0
3, 38400, Note_on_c, 0, 67, 88
3, 39120, Note_on_c, 0, 67, 0
3, 39120, Note_on_c, 0, 70, 88
3, 39143, Note_on_c, 0, 70, 0
3, 39360, Note_on_c, 0, 69, 88
3, 39383, Note_on_c, 0, 69, 0
3, 39840, Note_on_c, 0, 67, 88
3, 39863, Note_on_c, 0, 67, 0
3, 40320, Note_on_c, 0, 65, 88
3, 40343, Note_on_c, 0, 65, 0
3, 40800, Note_on_c, 0, 64, 88
3, 40823, Note_on_c, 0, 64, 0
3, 41280, Note_on_c, 0, 62, 88
3, 41760, Note_on_c, 0, 62, 0
3, 42240, Note_on_c, 0, 70, 75
3, 42480, Note_on_c, 0, 70, 0
3, 42480, Note_on_c, 0, 69, 75
3, 42600, Note_on_c, 0, 69, 0
3, 42600, Note_on_c, 0, 70, 75
3, 42720, Note_on_c, 0, 70, 0
3, 42720, Note_on_c, 0, 69, 75
3, 42840, Note_on_c, 0, 69, 0
3, 42840, Note_on_c, 0, 70, 75
3, 42960, Note_on_c, 0, 70, 0
3, 42960, Note_on_c, 0, 69, 75
3, 43080, Note_on_c, 0, 69, 0
3, 43080, Note_on_c, 0, 70, 75
3, 43200, Note_on_c, 0, 70, 0
3, 43200, Note_on_c, 0, 74, 88
3, 43440, Note_on_c, 0, 74, 0
3, 43440, Note_on_c, 0, 73, 88
3, 43560, Note_on_c, 0, 73, 0
3, 43560, Note_on_c, 0, 74, 88
3, 43680, Note_on_c, 0, 74, 0
3, 43680, Note_on_c, 0, 73, 88
3, 43800, Note_on_c, 0, 73, 0
3, 43800, Note_on_c, 0, 74, 88
3, 43920, Note_on_c, 0, 74, 0
3, 43920, Note_on_c, 0, 73, 88
3, 44040, Note_on_c, 0, 73, 0
3, 44040, Note_on_c, 0, 74, 88
3, 44160, Note_on_c, 0, 74, 0
3, 44160, Note_on_c, 0, 72, 88
3, 44160, Note_on_c, 0, 81, 88
3, 44183, Note_on_c, 0, 81, 0
3, 44183, Note_on_c, 0, 72, 0
3, 44640, Note_on_c, 0, 70, 88
3, 44640, Note_on_c, 0, 79, 88
3, 44663, Note_on_c, 0, 79, 0
3, 44663, Note_on_c, 0, 70, 0
3, 45120, Note_on_c, 0, 69, 88
3, 45120, Note_on_c, 0, 77, 88
3, 45143, Note_on_c, 0, 77, 0
3, 45143, Note_on_c, 0, 69, 0
3, 46080, Note_on_c, 0, 70, 75
3, 46320, Note_on_c, 0, 70, 0
3, 46320, Note_on_c, 0, 69, 75
3, 46440, Note_on_c, 0, 69, 0
3, 46440, Note_on_c, 0, 70, 75
3, 46560, Note_on_c, 0, 70, 0
3, 46560, Note_on_c, 0, 69, 75
3, 46680, Note_on_c, 0, 69, 0
3, 46680, Note_on_c, 0, 70, 75
3, 46800, Note_on_c, 0, 70, 0
3, 46800, Note_on_c, 0, 69, 75
3, 46920, Note_on_c, 0, 69, 0
3, 46920, Note_on_c, 0, 70, 75
3, 47040, Note_on_c, 0, 70, 0
3, 47040, Note_on_c, 0, 74, 88
3, 47280, Note_on_c, 0, 74, 0
3, 47280, Note_on_c, 0, 73, 88
3, 47400, Note_on_c, 0, 73, 0
3, 47400, Note_on_c, 0, 74, 88
3, 47520, Note_on_c, 0, 74, 0
3, 47520, Note_on_c, 0, 73, 88
3, 47640, Note_on_c, 0, 73, 0
3, 47640, Note_on_c, 0, 74, 88
3, 47760, Note_on_c, 0, 74, 0
3, 47760, Note_on_c, 0, 79, 114
3, 47880, Note_on_c, 0, 79, 0
3, 47880, Note_on_c, 0, 74, 88
3, 48000, Note_on_c, 0, 74, 0
3, 48000, Note_on_c, 0, 72, 88
3, 48000, Note_on_c, 0, 81, 88
3, 48023, Note_on_c, 0, 81, 0
3, 48023, Note_on_c, 0, 72, 0
3, 48480, Note_on_c, 0, 70, 88
3, 48480, Note_on_c, 0, 79, 88
3, 48503, Note_on_c, 0, 79, 0
3, 48503, Note_on_c, 0, 70, 0
3, 48960, Note_on_c, 0, 69, 88
3, 48960, Note_on_c, 0, 77, 88
3, 48983, Note_on_c, 0, 77, 0
3, 48983, Note_on_c, 0, 69, 0
3, 49920, Note_on_c, 0, 62, 88
3, 50880, Note_on_c, 0, 62, 0
3, 50880, Note_on_c, 0, 62, 49
3, 50903, Note_on_c, 0, 62, 0
3, 51360, Note_on_c, 0, 58, 49
3, 51360, Note_on_c, 0, 62, 49
3, 51383, Note_on_c, 0, 62, 0
3, 51383, Note_on_c, 0, 58, 0
3, 51840, Note_on_c, 0, 62, 49
3, 51863, Note_on_c, 0, 62, 0
3, 52320, Note_on_c, 0, 55, 49
3, 52320, Note_on_c, 0, 61, 49
3, 52343, Note_on_c, 0, 61, 0
3, 52343, Note_on_c, 0, 55, 0
3, 52800, Note_on_c, 0, 53, 49
3, 52800, Note_on_c, 0, 57, 49
3, 53280, Note_on_c, 0, 57, 0
3, 53280, Note_on_c, 0, 53, 0
3, 53760, Note_on_c, 0, 50, 49
3, 53760, Note_on_c, 0, 55, 49
3, 54480, Note_on_c, 0, 55, 0
3, 54480, Note_on_c, 0, 50, 0
3, 54480, Note_on_c, 0, 58, 49
3, 54503, Note_on_c, 0, 58, 0
3, 54720, Note_on_c, 0, 50, 49
3, 54720, Note_on_c, 0, 57, 49
3, 54743, Note_on_c, 0, 57, 0
3, 54743, Note_on_c, 0, 50, 0
3, 55200, Note_on_c, 0, 52, 49
3, 55200, Note_on_c, 0, 55, 49
3, 55223, Note_on_c, 0, 55, 0
3, 55223, Note_on_c, 0, 52, 0
3, 55680, Note_on_c, 0, 50, 49
3, 55680, Note_on_c, 0, 53, 49
3, 55703, Note_on_c, 0, 53, 0
3, 55703, Note_on_c, 0, 50, 0
3, 56160, Note_on_c, 0, 49, 49
3, 56160, Note_on_c, 0, 52, 49
3, 56183, Note_on_c, 0, 52, 0
3, 56183, Note_on_c, 0, 49, 0
3, 56640, Note_on_c, 0, 50, 49
3, 57120, Note_on_c, 0, 50, 0
3, 57600, Control_c, 0, 64, 127
3, 57600, Note_on_c, 0, 50, 49
3, 57840, Note_on_c, 0, 50, 0
3, 57840, Note_on_c, 0, 57, 49
3, 58320, Note_on_c, 0, 57, 0
3, 58320, Control_c, 0, 64, 0
3, 58320, Note_on_c, 0, 57, 49
3, 58560, Note_on_c, 0, 57, 0
3, 58560, Control_c, 0, 64, 127
3, 58560, Note_on_c, 0, 50, 49
3, 58800, Note_on_c, 0, 50, 0
3, 58800, Note_on_c, 0, 57, 49
3, 59280, Note_on_c, 0, 57, 0
3, 59280, Control_c, 0, 64, 0
3, 59280, Note_on_c, 0, 57, 49
3, 59520, Note_on_c, 0, 57, 0
3, 59520, Note_on_c, 0, 62, 49
3, 59760, Note_on_c, 0, 62, 0
3, 59760, Note_on_c, 0, 54, 49
3, 59760, Note_on_c, 0, 57, 49
3, 60000, Note_on_c, 0, 57, 0
3, 60000, Note_on_c, 0, 54, 0
3, 60000, Note_on_c, 0, 61, 49
3, 60240, Note_on_c, 0, 61, 0
3, 60240, Note_on_c, 0, 55, 49
3, 60240, Note_on_c, 0, 57, 49
3, 60480, Note_on_c, 0, 57, 0
3, 60480, Note_on_c, 0, 55, 0
3, 60480, Note_on_c, 0, 62, 49
3, 60720, Note_on_c, 0, 62, 0
3, 60720, Note_on_c, 0, 54, 49
3, 60720, Note_on_c, 0, 57, 49
3, 60960, Note_on_c, 0, 57, 0
3, 60960, Note_on_c, 0, 54, 0
3, 60960, Note_on_c, 0, 57, 49
3, 61200, Note_on_c, 0, 57, 0
3, 61200, Note_on_c, 0, 50, 49
3, 61200, Note_on_c, 0, 54, 49
3, 61440, Note_on_c, 0, 54, 0
3, 61440, Note_on_c, 0, 50, 0
3, 61440, Control_c, 0, 64, 127
3, 61440, Note_on_c, 0, 50, 49
3, 61680, Note_on_c, 0, 50, 0
3, 61680, Note_on_c, 0, 57, 49
3, 62160, Note_on_c, 0, 57, 0
3, 62160, Control_c, 0, 64, 0
3, 62160, Note_on_c, 0, 57, 49
3, 62400, Note_on_c, 0, 57, 0
3, 62400, Control_c, 0, 64, 127
3, 62400, Note_on_c, 0, 50, 49
3, 62640, Note_on_c, 0, 50, 0
3, 62640, Note_on_c, 0, 57, 49
3, 63120, Note_on_c, 0, 57, 0
3, 63120, Control_c, 0, 64, 0
3, 63120, Note_on_c, 0, 57, 49
3, 63360, Note_on_c, 0, 57, 0
3, 63360, Note_on_c, 0, 62, 49
3, 63600, Note_on_c, 0, 62, 0
3, 63600, Note_on_c, 0, 54, 49
3, 63600, Note_on_c, 0, 57, 49
3, 63840, Note_on_c, 0, 57, 0
3, 63840, Note_on_c, 0, 54, 0
3, 63840, Note_on_c, 0, 61, 49
3, 64080, Note_on_c, 0, 61, 0
3, 64080, Note_on_c, 0, 55, 49
3, 64080, Note_on_c, 0, 57, 49
3, 64320, Note_on_c, 0, 57, 0
3, 64320, Note_on_c, 0, 55, 0
3, 64320, Note_on_c, 0, 62, 49
3, 64560, Note_on_c, 0, 62, 0
3, 64560, Note_on_c, 0, 54, 49
3, 64560, Note_on_c, 0, 57, 49
3, 64800, Note_on_c, 0, 57, 0
3, 64800, Note_on_c, 0, 54, 0
3, 65280, Control_c, 0, 64, 127
3, 65280, Note_on_c, 0, 50, 49
3, 65520, Note_on_c, 0, 50, 0
3, 65520, Note_on_c, 0, 57, 49
3, 66000, Note_on_c, 0, 57, 0
3, 66000, Note_on_c, 0, 57, 49
3, 66240, Note_on_c, 0, 50, 49
3, 66360, Note_on_c, 0, 50, 0
3, 66360, Note_on_c, 0, 57, 0
3, 66360, Note_on_c, 0, 57, 49
3, 66480, Note_on_c, 0, 57, 0
3, 66480, Note_on_c, 0, 59, 49
3, 66600, Note_on_c, 0, 59, 0
3, 66600, Note_on_c, 0, 54, 49
3, 66720, Note_on_c, 0, 54, 0
3, 66720, Control_c, 0, 64, 0
3, 66720, Note_on_c, 0, 57, 49
3, 67200, Note_on_c, 0, 57, 0
3, 67200, Control_c, 0, 64, 127
3, 67200, Note_on_c, 0, 62, 49
3, 67320, Note_on_c, 0, 62, 0
3, 67320, Note_on_c, 0, 57, 49
3, 67440, Note_on_c, 0, 57, 0
3, 67440, Note_on_c, 0, 59, 49
3, 67560, Note_on_c, 0, 59, 0
3, 67560, Note_on_c, 0, 54, 49
3, 67680, Note_on_c, 0, 54, 0
3, 67680, Note_on_c, 0, 57, 49
3, 67680, Note_on_c, 0, 61, 49
3, 67740, Note_on_c, 0, 61, 0
3, 67740, Note_on_c, 0, 57, 0
3, 67740, Note_on_c, 0, 62, 49
3, 67800, Note_on_c, 0, 62, 0
3, 67800, Note_on_c, 0, 61, 49
3, 67860, Note_on_c, 0, 61, 0
3, 67860, Note_on_c, 0, 62, 49
3, 67920, Note_on_c, 0, 62, 0
3, 67920, Note_on_c, 0, 61, 49
3, 67980, Note_on_c, 0, 61, 0
3, 67980, Note_on_c, 0, 62, 49
3, 68040, Note_on_c, 0, 62, 0
3, 68040, Note_on_c, 0, 61, 49
3, 68100, Note_on_c, 0, 61, 0
3, 68100, Control_c, 0, 64, 0
3, 68100, Note_on_c, 0, 62, 49
3, 68160, Note_on_c, 0, 62, 0
3, 68160, Note_on_c, 0, 62, 49
3, 68640, Note_on_c, 0, 62, 0
3, 68640, Note_on_c, 0, 54, 49
3, 68640, Note_on_c, 0, 57, 49
3, 69120, Note_on_c, 0, 57, 0
3, 69120, Note_on_c, 0, 54, 0
3, 69120, Control_c, 0, 64, 127
3, 69120, Note_on_c, 0, 50, 49
3, 69360, Note_on_c, 0, 50, 0
3, 69360, Note_on_c, 0, 57, 49
3, 69840, Note_on_c, 0, 57, 0
3, 69840, Note_on_c, 0, 57, 49
3, 70080, Note_on_c, 0, 50, 49
3, 70200, Note_on_c, 0, 50, 0
3, 70200, Note_on_c, 0, 57, 0
3, 70200, Note_on_c, 0, 57, 49
3, 70320, Note_on_c, 0, 57, 0
3, 70320, Note_on_c, 0, 59, 49
3, 70440, Note_on_c, 0, 59, 0
3, 70440, Note_on_c, 0, 54, 49
3, 70560, Note_on_c, 0, 54, 0
3, 70560, Control_c, 0, 64, 0
3, 70560, Note_on_c, 0, 57, 49
3, 71040, Note_on_c, 0, 57, 0
3, 71040, Control_c, 0, 64, 127
3, 71040, Note_on_c, 0, 62, 49
3, 71160, Note_on_c, 0, 62, 0
3, 71160, Note_on_c, 0, 57, 49
3, 71280, Note_on_c, 0, 57, 0
3, 71280, Note_on_c, 0, 59, 49
3, 71400, Note_on_c, 0, 59, 0
3, 71400, Note_on_c, 0, 54, 49
3, 71520, Note_on_c, 0, 54, 0
3, 71520, Note_on_c, 0, 57, 49
3, 71520, Note_on_c, 0, 61, 49
3, 71580, Note_on_c, 0, 61, 0
3, 71580, Note_on_c, 0, 57, 0
3, 71580, Note_on_c, 0, 62, 49
3, 71640, Note_on_c, 0, 62, 0
3, 71640, Note_on_c, 0, 61, 49
3, 71700, Note_on_c, 0, 61, 0
3, 71700, Note_on_c, 0, 62, 49
3, 71760, Note_on_c, 0, 62, 0
3, 71760, Note_on_c, 0, 61, 49
3, 71820, Note_on_c, 0, 61, 0
3, 71820, Note_on_c, 0, 62, 49
3, 71880, Note_on_c, 0, 62, 0
3, 71880, Note_on_c, 0, 61, 49
3, 71940, Note_on_c, 0, 61, 0
3, 71940, Control_c, 0, 64, 0
3, 71940, Note_on_c, 0, 62, 49
3, 72000, Note_on_c, 0, 62, 0
3, 72000, Note_on_c, 0, 62, 49
3, 72480, Note_on_c, 0, 62, 0
3, 72720, Note_on_c, 0, 69, 49
3, 72960, Note_on_c, 0, 69, 0
3, 72960, Note_on_c, 0, 72, 88
3, 72960, Note_on_c, 0, 77, 88
3, 72960, Note_on_c, 0, 81, 88
3, 73680, Note_on_c, 0, 81, 0
3, 73680, Note_on_c, 0, 77, 0
3, 73680, Note_on_c, 0, 72, 0
3, 73680, Note_on_c, 0, 81, 88
3, 73920, Note_on_c, 0, 81, 0
3, 73920, Control_c, 0, 64, 127
3, 73920, Note_on_c, 0, 82, 88
3, 74040, Note_on_c, 0, 82, 0
3, 74040, Note_on_c, 0, 81, 88
3, 74160, Note_on_c, 0, 81, 0
3, 74160, Note_on_c, 0, 80, 88
3, 74280, Note_on_c, 0, 80, 0
3, 74280, Control_c, 0, 64, 0
3, 74280, Note_on_c, 0, 81, 88
3, 74400, Note_on_c, 0, 81, 0
3, 74400, Control_c, 0, 64, 127
3, 74400, Note_on_c, 0, 82, 88
3, 74520, Note_on_c, 0, 82, 0
3, 74520, Note_on_c, 0, 81, 88
3, 74640, Note_on_c, 0, 81, 0
3, 74640, Note_on_c, 0, 80, 88
3, 74760, Note_on_c, 0, 80, 0
3, 74760, Control_c, 0, 64, 0
3, 74760, Note_on_c, 0, 81, 88
3, 74880, Note_on_c, 0, 81, 0
3, 74880, Note_on_c, 0, 72, 88
3, 75360, Note_on_c, 0, 72, 0
3, 75360, Note_on_c, 0, 70, 88
3, 75720, Note_on_c, 0, 70, 0
3, 75720, Note_on_c, 0, 69, 88
3, 75840, Note_on_c, 0, 69, 0
3, 75840, Note_on_c, 0, 67, 88
3, 75863, Note_on_c, 0, 67, 0
3, 76080, Note_on_c, 0, 67, 114
3, 76560, Note_on_c, 0, 67, 0
3, 76560, Note_on_c, 0, 68, 88
3, 76583, Note_on_c, 0, 68, 0
3, 76740, Note_on_c, 0, 68, 88
3, 76800, Note_on_c, 0, 68, 0
3, 76800, Note_on_c, 0, 70, 114
3, 76823, Note_on_c, 0, 70, 0
3, 77280, Note_on_c, 0, 69, 114
3, 77880, Note_on_c, 0, 65, 88
3, 77940, Note_on_c, 0, 65, 0
3, 77940, Note_on_c, 0, 67, 88
3, 78000, Note_on_c, 0, 67, 0
3, 78000, Note_on_c, 0, 69, 0
3, 78000, Note_on_c, 0, 65, 88
3, 78240, Note_on_c, 0, 65, 0
3, 78240, Note_on_c, 0, 64, 88
3, 78480, Note_on_c, 0, 64, 0
3, 78480, Note_on_c, 0, 62, 88
3, 78503, Note_on_c, 0, 62, 0
3, 78660, Note_on_c, 0, 68, 88
3, 78720, Note_on_c, 0, 68, 0
3, 78720, Note_on_c, 0, 69, 114
3, 78743, Note_on_c, 0, 69, 0
3, 79200, Note_on_c, 0, 64, 88
3, 79200, Note_on_c, 0, 69, 88
3, 79200, Note_on_c, 0, 73, 88
3, 79680, Note_on_c, 0, 73, 0
3, 79680, Note_on_c, 0, 69, 0
3, 79680, Note_on_c, 0, 64, 0
3, 80640, Note_on_c, 0, 72, 88
3, 80640, Note_on_c, 0, 77, 88
3, 80640, Note_on_c, 0, 81, 88
3, 81360, Note_on_c, 0, 81, 0
3, 81360, Note_on_c, 0, 77, 0
3, 81360, Note_on_c, 0, 72, 0
3, 81360, Note_on_c, 0, 81, 88
3, 81600, Note_on_c, 0, 81, 0
3, 81600, Control_c, 0, 64, 127
3, 81600, Note_on_c, 0, 82, 88
3, 81720, Note_on_c, 0, 82, 0
3, 81720, Note_on_c, 0, 81, 88
3, 81840, Note_on_c, 0, 81, 0
3, 81840, Note_on_c, 0, 80, 88
3, 81960, Note_on_c, 0, 80, 0
3, 81960, Control_c, 0, 64, 0
3, 81960, Note_on_c, 0, 81, 88
3, 82080, Note_on_c, 0, 81, 0
3, 82080, Control_c, 0, 64, 127
3, 82080, Note_on_c, 0, 82, 88
3, 82200, Note_on_c, 0, 82, 0
3, 82200, Note_on_c, 0, 81, 88
3, 82320, Note_on_c, 0, 81, 0
3, 82320, Note_on_c, 0, 80, 88
3, 82440, Note_on_c, 0, 80, 0
3, 82440, Control_c, 0, 64, 0
3, 82440, Note_on_c, 0, 81, 88
3, 82560, Note_on_c, 0, 81, 0
3, 82560, Note_on_c, 0, 72, 88
3, 83040, Note_on_c, 0, 72, 0
3, 83040, Note_on_c, 0, 70, 88
3, 83400, Note_on_c, 0, 70, 0
3, 83400, Note_on_c, 0, 69, 88
3, 83520, Note_on_c, 0, 69, 0
3, 83520, Note_on_c, 0, 67, 88
3, 83543, Note_on_c, 0, 67, 0
3, 83760, Note_on_c, 0, 67, 114
3, 84240, Note_on_c, 0, 67, 0
3, 84240, Note_on_c, 0, 68, 88
3, 84263, Note_on_c, 0, 68, 0
3, 84420, Note_on_c, 0, 68, 88
3, 84480, Note_on_c, 0, 68, 0
3, 84480, Note_on_c, 0, 70, 114
3, 84503, Note_on_c, 0, 70, 0
3, 84960, Note_on_c, 0, 69, 114
3, 85560, Note_on_c, 0, 65, 88
3, 85620, Note_on_c, 0, 65, 0
3, 85620, Note_on_c, 0, 67, 88
3, 85680, Note_on_c, 0, 67, 0
3, 85680, Note_on_c, 0, 69, 0
3, 85680, Note_on_c, 0, 65, 88
3, 85920, Note_on_c, 0, 65, 0
3, 85920, Note_on_c, 0, 64, 88
3, 86160, Note_on_c, 0, 64, 0
3, 86160, Note_on_c, 0, 62, 88
3, 86183, Note_on_c, 0, 62, 0
3, 86340, Note_on_c, 0, 68, 88
3, 86400, Note_on_c, 0, 68, 0
3, 86400, Note_on_c, 0, 69, 114
3, 86423, Note_on_c, 0, 69, 0
3, 86880, Note_on_c, 0, 64, 88
3, 86880, Note_on_c, 0, 69, 88
3, 86880, Note_on_c, 0, 73, 88
3, 87360, Note_on_c, 0, 73, 0
3, 87360, Note_on_c, 0, 69, 0
3, 87360, Note_on_c, 0, 64, 0
3, 88320, Control_c, 0, 64, 127
3, 88320, Note_on_c, 0, 50, 49
3, 88560, Note_on_c, 0, 50, 0
3, 88560, Note_on_c, 0, 57, 49
3, 89040, Note_on_c, 0, 57, 0
3, 89040, Control_c, 0, 64, 0
3, 89040, Note_on_c, 0, 57, 49
3, 89280, Note_on_c, 0, 57, 0
3, 89280, Control_c, 0, 64, 127
3, 89280, Note_on_c, 0, 50, 49
3, 89520, Note_on_c, 0, 50, 0
3, 89520, Note_on_c, 0, 57, 49
3, 90000, Note_on_c, 0, 57, 0
3, 90000, Control_c, 0, 64, 0
3, 90000, Note_on_c, 0, 57, 49
3, 90240, Note_on_c, 0, 57, 0
3, 90240, Note_on_c, 0, 62, 49
3, 90480, Note_on_c, 0, 62, 0
3, 90480, Note_on_c, 0, 54, 49
3, 90480, Note_on_c, 0, 57, 49
3, 90720, Note_on_c, 0, 57, 0
3, 90720, Note_on_c, 0, 54, 0
3, 90720, Note_on_c, 0, 61, 49
3, 90960, Note_on_c, 0, 61, 0
3, 90960, Note_on_c, 0, 55, 49
3, 90960, Note_on_c, 0, 57, 49
3, 91200, Note_on_c, 0, 57, 0
3, 91200, Note_on_c, 0, 55, 0
3, 91200, Note_on_c, 0, 62, 49
3, 91440, Note_on_c, 0, 62, 0
3, 91440, Note_on_c, 0, 54, 49
3, 91440, Note_on_c, 0, 57, 49
3, 91680, Note_on_c, 0, 57, 0
3, 91680, Note_on_c, 0, 54, 0
3, 91680, Note_on_c, 0, 57, 49
3, 91920, Note_on_c, 0, 57, 0
3, 91920, Note_on_c, 0, 50, 49
3, 91920, Note_on_c, 0, 54, 49
3, 92160, Note_on_c, 0, 54, 0
3, 92160, Note_on_c, 0, 50, 0
3, 92160, Control_c, 0, 64, 127
3, 92160, Note_on_c, 0, 50, 49
3, 92400, Note_on_c, 0, 50, 0
3, 92400, Note_on_c, 0, 57, 49
3, 92880, Note_on_c, 0, 57, 0
3, 92880, Control_c, 0, 64, 0
3, 92880, Note_on_c, 0, 57, 49
3, 93120, Note_on_c, 0, 57, 0
3, 93120, Control_c, 0, 64, 127
3, 93120, Note_on_c, 0, 50, 49
3, 93360, Note_on_c, 0, 50, 0
3, 93360, Note_on_c, 0, 57, 49
3, 93840, Note_on_c, 0, 57, 0
3, 93840, Control_c, 0, 64, 0
3, 93840, Note_on_c, 0, 57, 49
3, 94080, Note_on_c, 0, 57, 0
3, 94080, Note_on_c, 0, 62, 49
3, 94320, Note_on_c, 0, 62, 0
3, 94320, Note_on_c, 0, 54, 49
3, 94320, Note_on_c, 0, 57, 49
3, 94560, Note_on_c, 0, 57, 0
3, 94560, Note_on_c, 0, 54, 0
3, 94560, Note_on_c, 0, 61, 49
3, 94800, Note_on_c, 0, 61, 0
3, 94800, Note_on_c, 0, 55, 49
3, 94800, Note_on_c, 0, 57, 49
3, 95040, Note_on_c, 0, 57, 0
3, 95040, Note_on_c, 0, 55, 0
3, 95040, Note_on_c, 0, 62, 49
3, 95280, Note_on_c, 0, 62, 0
3, 95280, Note_on_c, 0, 54, 49
3, 95280, Note_on_c, 0, 57, 49
3, 96000, Note_on_c, 0, 57, 0
3, 96000, Note_on_c, 0, 54, 0
3, 96000, Note_on_c, 0, 53, 62
3, 96120, Note_on_c, 0, 53, 0
3, 96120, Note_on_c, 0, 57, 62
3, 96240, Note_on_c, 0, 57, 0
3, 96240, Note_on_c, 0, 53, 62
3, 96360, Note_on_c, 0, 53, 0
3, 96480, Note_on_c, 0, 55, 62
3, 96600, Note_on_c, 0, 55, 0
3, 96600, Note_on_c, 0, 58, 62
3, 96720, Note_on_c, 0, 58, 0
3, 96720, Note_on_c, 0, 55, 62
3, 96840, Note_on_c, 0, 55, 0
3, 96960, Note_on_c, 0, 57, 62
3, 97080, Note_on_c, 0, 57, 0
3, 97080, Note_on_c, 0, 62, 62
3, 97200, Note_on_c, 0, 62, 0
3, 97200, Note_on_c, 0, 57, 62
3, 97320, Note_on_c, 0, 57, 0
3, 97440, Note_on_c, 0, 53, 62
3, 97560, Note_on_c, 0, 53, 0
3, 97560, Note_on_c, 0, 57, 62
3, 97680, Note_on_c, 0, 57, 0
3, 97680, Note_on_c, 0, 53, 62
3, 97800, Note_on_c, 0, 53, 0
3, 97920, Note_on_c, 0, 62, 62
3, 98040, Note_on_c, 0, 62, 0
3, 98040, Note_on_c, 0, 65, 62
3, 98160, Note_on_c, 0, 65, 0
3, 98160, Note_on_c, 0, 62, 62
3, 98280, Note_on_c, 0, 62, 0
3, 98400, Note_on_c, 0, 64, 62
3, 98520, Note_on_c, 0, 64, 0
3, 98520, Note_on_c, 0, 67, 62
3, 98640, Note_on_c, 0, 67, 0
3, 98640, Note_on_c, 0, 64, 62
3, 98760, Note_on_c, 0, 64, 0
3, 98880, Note_on_c, 0, 60, 62
3, 99000, Note_on_c, 0, 60, 0
3, 99000, Note_on_c, 0, 65, 62
3, 99120, Note_on_c, 0, 65, 0
3, 99120, Note_on_c, 0, 60, 62
3, 99600, Note_on_c, 0, 60, 0
3, 99840, Note_on_c, 0, 74, 62
3, 99840, Note_on_c, 0, 77, 62
3, 99863, Note_on_c, 0, 77, 0
3, 99863, Note_on_c, 0, 74, 0
3, 100080, Note_on_c, 0, 74, 62
3, 100080, Note_on_c, 0, 77, 62
3, 100103, Note_on_c, 0, 77, 0
3, 100103, Note_on_c, 0, 74, 0
3, 100320, Note_on_c, 0, 72, 62
3, 100320, Note_on_c, 0, 76, 62
3, 100343, Note_on_c, 0, 76, 0
3, 100343, Note_on_c, 0, 72, 0
3, 100560, Note_on_c, 0, 72, 62
3, 100560, Note_on_c, 0, 76, 62
3, 100583, Note_on_c, 0, 76, 0
3, 100583, Note_on_c, 0, 72, 0
3, 100800, Note_on_c, 0, 72, 62
3, 100800, Note_on_c, 0, 77, 62
3, 100823, Note_on_c, 0, 77, 0
3, 100823, Note_on_c, 0, 72, 0
3, 101040, Note_on_c, 0, 72, 62
3, 101040, Note_on_c, 0, 77, 62
3, 101520, Note_on_c, 0, 77, 0
3, 101520, Note_on_c, 0, 72, 0
3, 101760, Note_on_c, 0, 62, 88
3, 102480, Note_on_c, 0, 62, 0
3, 102480, Note_on_c, 0, 62, 62
3, 102503, Note_on_c, 0, 62, 0
3, 102720, Note_on_c, 0, 62, 62
3, 102743, Note_on_c, 0, 62, 0
3, 103200, Note_on_c, 0, 58, 62
3, 103200, Note_on_c, 0, 62, 62
3, 103223, Note_on_c, 0, 62, 0
3, 103223, Note_on_c, 0, 58, 0
3, 103680, Note_on_c, 0, 62, 62
3, 103703, Note_on_c, 0, 62, 0
3, 104160, Note_on_c, 0, 55, 62
3, 104160, Note_on_c, 0, 61, 62
3, 104183, Note_on_c, 0, 61, 0
3, 104183, Note_on_c, 0, 55, 0
3, 104640, Note_on_c, 0, 53, 62
3, 104640, Note_on_c, 0, 57, 62
3, 104663, Note_on_c, 0, 57, 0
3, 104663, Note_on_c, 0, 53, 0
3, 105600, Note_on_c, 0, 67, 88
3, 105600, Note_on_c, 0, 74, 88
3, 106080, Note_on_c, 0, 74, 0
3, 106080, Note_on_c, 0, 67, 0
3, 106080, Note_on_c, 0, 70, 62
3, 106103, Note_on_c, 0, 70, 0
3, 106560, Note_on_c, 0, 69, 62
3, 106680, Note_on_c, 0, 69, 0
3, 106680, Note_on_c, 0, 74, 62
3, 106800, Note_on_c, 0, 74, 0
3, 106800, Note_on_c, 0, 69, 62
3, 106920, Note_on_c, 0, 69, 0
3, 107040, Note_on_c, 0, 70, 62
3, 107160, Note_on_c, 0, 70, 0
3, 107160, Note_on_c, 0, 76, 62
3, 107280, Note_on_c, 0, 76, 0
3, 107280, Note_on_c, 0, 70, 62
3, 107400, Note_on_c, 0, 70, 0
3, 107520, Note_on_c, 0, 69, 62
3, 107640, Note_on_c, 0, 69, 0
3, 107640, Note_on_c, 0, 74, 62
3, 107760, Note_on_c, 0, 74, 0
3, 107760, Note_on_c, 0, 69, 62
3, 107880, Note_on_c, 0, 69, 0
3, 108000, Note_on_c, 0, 67, 62
3, 108120, Note_on_c, 0, 67, 0
3, 108120, Note_on_c, 0, 73, 62
3, 108240, Note_on_c, 0, 73, 0
3, 108240, Note_on_c, 0, 67, 62
3, 108360, Note_on_c, 0, 67, 0
3, 108480, Note_on_c, 0, 65, 62
3, 108480, Note_on_c, 0, 69, 62
3, 108503, Note_on_c, 0, 69, 0
3, 108503, Note_on_c, 0, 65, 0
3, 109440, Note_on_c, 0, 62, 88
3, 110160, Note_on_c, 0, 62, 0
3, 110160, Note_on_c, 0, 62, 88
3, 110400, Note_on_c, 0, 62, 0
3, 110400, Note_on_c, 0, 77, 88
3, 110400, Note_on_c, 0, 82, 88
3, 110400, Note_on_c, 0, 86, 88
3, 111120, Note_on_c, 0, 86, 0
3, 111120, Note_on_c, 0, 82, 0
3, 111120, Note_on_c, 0, 77, 0
3, 111120, Note_on_c, 0, 77, 88
3, 111120, Note_on_c, 0, 82, 88
3, 111120, Note_on_c, 0, 86, 88
3, 111360, Note_on_c, 0, 86, 0
3, 111360, Note_on_c, 0, 82, 0
3, 111360, Note_on_c, 0, 77, 0
3, 111360, Note_on_c, 0, 72, 88
3, 111360, Note_on_c, 0, 77, 88
3, 111360, Note_on_c, 0, 81, 88
3, 111383, Note_on_c, 0, 81, 0
3, 111383, Note_on_c, 0, 77, 0
3, 111383, Note_on_c, 0, 72, 0
3, 111840, Note_on_c, 0, 70, 88
3, 111840, Note_on_c, 0, 76, 88
3, 111840, Note_on_c, 0, 79, 88
3, 111863, Note_on_c, 0, 79, 0
3, 111863, Note_on_c, 0, 76, 0
3, 111863, Note_on_c, 0, 70, 0
3, 112320, Note_on_c, 0, 69, 88
3, 112320, Note_on_c, 0, 72, 88
3, 112320, Note_on_c, 0, 77, 88
3, 113040, Note_on_c, 0, 77, 0
3, 113040, Note_on_c, 0, 72, 0
3, 113040, Note_on_c, 0, 69, 0
3, 113040, Note_on_c, 0, 69, 88
3, 113040, Note_on_c, 0, 72, 88
3, 113040, Note_on_c, 0, 77, 88
3, 113280, Note_on_c, 0, 77, 0
3, 113280, Note_on_c, 0, 72, 0
3, 113280, Note_on_c, 0, 69, 0
3, 113280, Note_on_c, 0, 62, 88
3, 114000, Note_on_c, 0, 62, 0
3, 114000, Note_on_c, 0, 62, 88
3, 114240, Note_on_c, 0, 62, 0
3, 114240, Note_on_c, 0, 77, 88
3, 114240, Note_on_c, 0, 82, 88
3, 114240, Note_on_c, 0, 86, 88
3, 114960, Note_on_c, 0, 86, 0
3, 114960, Note_on_c, 0, 82, 0
3, 114960, Note_on_c, 0, 77, 0
3, 114960, Note_on_c, 0, 77, 88
3, 114960, Note_on_c, 0, 82, 88
3, 114960, Note_on_c, 0, 86, 88
3, 115200, Note_on_c, 0, 86, 0
3, 115200, Note_on_c, 0, 82, 0
3, 115200, Note_on_c, 0, 77, 0
3, 115200, Note_on_c, 0, 72, 88
3, 115200, Note_on_c, 0, 77, 88
3, 115200, Note_on_c, 0, 81, 88
3, 115223, Note_on_c, 0, 81, 0
3, 115223, Note_on_c, 0, 77, 0
3, 115223, Note_on_c, 0, 72, 0
3, 115680, Note_on_c, 0, 70, 88
3, 115680, Note_on_c, 0, 76, 88
3, 115680, Note_on_c, 0, 79, 88
3, 115703, Note_on_c, 0, 79, 0
3, 115703, Note_on_c, 0, 76, 0
3, 115703, Note_on_c, 0, 70, 0
3, 116160, Note_on_c, 0, 69, 88
3, 116160, Note_on_c, 0, 72, 88
3, 116160, Note_on_c, 0, 77, 88
3, 116880, Note_on_c, 0, 77, 0
3, 116880, Note_on_c, 0, 72, 0
3, 116880, Note_on_c, 0, 69, 0
3, 116880, Note_on_c, 0, 69, 88
3, 116880, Note_on_c, 0, 72, 88
3, 116880, Note_on_c, 0, 77, 88
3, 117120, Note_on_c, 0, 77, 0
3, 117120, Note_on_c, 0, 72, 0
3, 117120, Note_on_c, 0, 69, 0
3, 117120, Note_on_c, 0, 62, 75
3, 118080, Note_on_c, 0, 62, 0
3, 118080, Note_on_c, 0, 62, 49
3, 118103, Note_on_c, 0, 62, 0
3, 118560, Note_on_c, 0, 58, 49
3, 118560, Note_on_c, 0, 62, 49
3, 118583, Note_on_c, 0, 62, 0
3, 118583, Note_on_c, 0, 58, 0
3, 119040, Note_on_c, 0, 62, 49
3, 119063, Note_on_c, 0, 62, 0
3, 119520, Note_on_c, 0, 55, 49
3, 119520, Note_on_c, 0, 61, 49
3, 119543, Note_on_c, 0, 61, 0
3, 119543, Note_on_c, 0, 55, 0
3, 120000, Note_on_c, 0, 53, 49
3, 120000, Note_on_c, 0, 57, 49
3, 120120, Note_on_c, 0, 57, 0
3, 120120, Note_on_c, 0, 53, 0
3, 120960, Note_on_c, 0, 67, 88
3, 121680, Note_on_c, 0, 67, 0
3, 121680, Note_on_c, 0, 70, 88
3, 121703, Note_on_c, 0, 70, 0
3, 121920, Note_on_c, 0, 69, 88
3, 121943, Note_on_c, 0, 69, 0
3, 122400, Note_on_c, 0, 67, 88
3, 122423, Note_on_c, 0, 67, 0
3, 122880, Note_on_c, 0, 65, 88
3, 122903, Note_on_c, 0, 65, 0
3, 123360, Note_on_c, 0, 64, 88
3, 123383, Note_on_c, 0, 64, 0
3, 123840, Note_on_c, 0, 62, 88
3, 124320, Note_on_c, 0, 62, 0
3, 124800, Note_on_c, 0, 70, 75
3, 125040, Note_on_c, 0, 70, 0
3, 125040, Note_on_c, 0, 69, 75
3, 125160, Note_on_c, 0, 69, 0
3, 125160, Note_on_c, 0, 70, 75
3, 125280, Note_on_c, 0, 70, 0
3, 125280, Note_on_c, 0, 69, 75
3, 125400, Note_on_c, 0, 69, 0
3, 125400, Note_on_c, 0, 70, 75
3, 125520, Note_on_c, 0, 70, 0
3, 125520, Note_on_c, 0, 69, 75
3, 125640, Note_on_c, 0, 69, 0
3, 125640, Note_on_c, 0, 70, 75
3, 125760, Note_on_c, 0, 70, 0
3, 125760, Note_on_c, 0, 74, 88
3, 126000, Note_on_c, 0, 74, 0
3, 126000, Note_on_c, 0, 73, 88
3, 126120, Note_on_c, 0, 73, 0
3, 126120, Note_on_c, 0, 74, 88
3, 126240, Note_on_c, 0, 74, 0
3, 126240, Note_on_c, 0, 73, 88
3, 126360, Note_on_c, 0, 73, 0
3, 126360, Note_on_c, 0, 74, 88
3, 126480, Note_on_c, 0, 74, 0
3, 126480, Note_on_c, 0, 73, 88
3, 126600, Note_on_c, 0, 73, 0
3, 126600, Note_on_c, 0, 74, 88
3, 126720, Note_on_c, 0, 74, 0
3, 126720, Note_on_c, 0, 72, 88
3, 126720, Note_on_c, 0, 81, 88
3, 126743, Note_on_c, 0, 81, 0
3, 126743, Note_on_c, 0, 72, 0
3, 127200, Note_on_c, 0, 70, 88
3, 127200, Note_on_c, 0, 79, 88
3, 127223, Note_on_c, 0, 79, 0
3, 127223, Note_on_c, 0, 70, 0
3, 127680, Note_on_c, 0, 69, 88
3, 127680, Note_on_c, 0, 77, 88
3, 127703, Note_on_c, 0, 77, 0
3, 127703, Note_on_c, 0, 69, 0
3, 128640, Note_on_c, 0, 70, 75
3, 128880, Note_on_c, 0, 70, 0
3, 128880, Note_on_c, 0, 69, 75
3, 129000, Note_on_c, 0, 69, 0
3, 129000, Note_on_c, 0, 70, 75
3, 129120, Note_on_c, 0, 70, 0
3, 129120, Note_on_c, 0, 69, 75
3, 129240, Note_on_c, 0, 69, 0
3, 129240, Note_on_c, 0, 70, 75
3, 129360, Note_on_c, 0, 70, 0
3, 129360, Note_on_c, 0, 69, 75
3, 129480, Note_on_c, 0, 69, 0
3, 129480, Note_on_c, 0, 70, 75
3, 129600, Note_on_c, 0, 70, 0
3, 129600, Note_on_c, 0, 74, 88
3, 129840, Note_on_c, 0, 74, 0
3, 129840, Note_on_c, 0, 73, 88
3, 129960, Note_on_c, 0, 73, 0
3, 129960, Note_on_c, 0, 74, 88
3, 130080, Note_on_c, 0, 74, 0
3, 130080, Note_on_c, 0, 73, 88
3, 130200, Note_on_c, 0, 73, 0
3, 130200, Note_on_c, 0, 74, 88
3, 130320, Note_on_c, 0, 74, 0
3, 130320, Note_on_c, 0, 79, 114
3, 130440, Note_on_c, 0, 79, 0
3, 130440, Note_on_c, 0, 74, 88
3, 130560, Note_on_c, 0, 74, 0
3, 130560, Note_on_c, 0, 72, 88
3, 130560, Note_on_c, 0, 81, 88
3, 130583, Note_on_c, 0, 81, 0
3, 130583, Note_on_c, 0, 72, 0
3, 131040, Note_on_c, 0, 70, 88
3, 131040, Note_on_c, 0, 79, 88
3, 131063, Note_on_c, 0, 79, 0
3, 131063, Note_on_c, 0, 70, 0
3, 131520, Note_on_c, 0, 69, 88
3, 131520, Note_on_c, 0, 77, 88
3, 131543, Note_on_c, 0, 77, 0
3, 131543, Note_on_c, 0, 69, 0
3, 132480, Note_on_c, 0, 62, 88
3, 133440, Note_on_c, 0, 62, 0
3, 133440, Note_on_c, 0, 62, 49
3, 133463, Note_on_c, 0, 62, 0
3, 133920, Note_on_c, 0, 58, 49
3, 133920, Note_on_c, 0, 62, 49
3, 133943, Note_on_c, 0, 62, 0
3, 133943, Note_on_c, 0, 58, 0
3, 134400, Note_on_c, 0, 62, 49
3, 134423, Note_on_c, 0, 62, 0
3, 134880, Note_on_c, 0, 55, 49
3, 134880, Note_on_c, 0, 61, 49
3, 134903, Note_on_c, 0, 61, 0
3, 134903, Note_on_c, 0, 55, 0
3, 135360, Note_on_c, 0, 53, 49
3, 135360, Note_on_c, 0, 57, 49
3, 135840, Note_on_c, 0, 57, 0
3, 135840, Note_on_c, 0, 53, 0
3, 136320, Note_on_c, 0, 50, 49
3, 136320, Note_on_c, 0, 55, 49
3, 137040, Note_on_c, 0, 55, 0
3, 137040, Note_on_c, 0, 50, 0
3, 137040, Note_on_c, 0, 58, 49
3, 137063, Note_on_c, 0, 58, 0
3, 137280, Note_on_c, 0, 50, 49
3, 137280, Note_on_c, 0, 57, 49
3, 137303, Note_on_c, 0, 57, 0
3, 137303, Note_on_c, 0, 50, 0
3, 137760, Note_on_c, 0, 52, 49
3, 137760, Note_on_c, 0, 55, 49
3, 137783, Note_on_c, 0, 55, 0
3, 137783, Note_on_c, 0, 52, 0
3, 138240, Note_on_c, 0, 50, 49
3, 138240, Note_on_c, 0, 53, 49
3, 138263, Note_on_c, 0, 53, 0
3, 138263, Note_on_c, 0, 50, 0
3, 138720, Note_on_c, 0, 49, 49
3, 138720, Note_on_c, 0, 52, 49
3, 138743, Note_on_c, 0, 52, 0
3, 138743, Note_on_c, 0, 49, 0
3, 139200, Note_on_c, 0, 50, 49
3, 139680, Note_on_c, 0, 50, 0
3, 140070, Note_on_c, 0, 69, 75
3, 140100, Note_on_c, 0, 74, 75
3, 140130, Note_on_c, 0, 77, 75
3, 140160, Note_on_c, 0, 81, 127
3, 140207, Note_on_c, 0, 81, 0
3, 140207, Note_on_c, 0, 69, 0
3, 140207, Note_on_c, 0, 74, 0
3, 140207, Note_on_c, 0, 77, 0
3, 140207, End_track
4, 0, Start_track
4, 0, Title_t, "Instrument18"
4, 0, Program_c, 0, 0
4, 0, Control_c, 0, 7, 110
4, 0, Control_c, 0, 10, 30
4, 120, Control_c, 0, 64, 127
4, 120, Note_on_c, 0, 52, 49
4, 240, Note_on_c, 0, 52, 0
4, 240, Note_on_c, 0, 49, 49
4, 360, Note_on_c, 0, 49, 0
4, 360, Note_on_c, 0, 50, 49
4, 480, Note_on_c, 0, 50, 0
4, 480, Note_on_c, 0, 49, 49
4, 600, Note_on_c, 0, 49, 0
4, 600, Note_on_c, 0, 50, 49
4, 720, Note_on_c, 0, 50, 0
4, 720, Note_on_c, 0, 51, 49
4, 840, Note_on_c, 0, 51, 0
4, 840, Control_c, 0, 64, 0
4, 840, Note_on_c, 0, 52, 49
4, 960, Note_on_c, 0, 52, 0
4, 1080, Note_on_c, 0, 55, 49
4, 1200, Note_on_c, 0, 55, 0
4, 1200, Note_on_c, 0, 52, 49
4, 1320, Note_on_c, 0, 52, 0
4, 1320, Note_on_c, 0, 53, 49
4, 1440, Note_on_c, 0, 53, 0
4, 1560, Note_on_c, 0, 52, 49
4, 1680, Note_on_c, 0, 52, 0
4, 1680, Note_on_c, 0, 49, 49
4, 1800, Note_on_c, 0, 49, 0
4, 1800, Note_on_c, 0, 50, 49
4, 1920, Note_on_c, 0, 50, 0
4, 2040, Note_on_c, 0, 64, 49
4, 2160, Note_on_c, 0, 64, 0
4, 2160, Note_on_c, 0, 61, 49
4, 2280, Note_on_c, 0, 61, 0
4, 2280, Note_on_c, 0, 62, 49
4, 2400, Note_on_c, 0, 62, 0
4, 2520, Note_on_c, 0, 60, 49
4, 2640, Note_on_c, 0, 60, 0
4, 2640, Note_on_c, 0, 57, 49
4, 2760, Note_on_c, 0, 57, 0
4, 2760, Note_on_c, 0, 58, 49
4, 2880, Note_on_c, 0, 58, 0
4, 3000, Control_c, 0, 64, 127
4, 3000, Note_on_c, 0, 58, 49
4, 3120, Note_on_c, 0, 58, 0
4, 3120, Note_on_c, 0, 56, 49
4, 3240, Note_on_c, 0, 56, 0
4, 3240, Note_on_c, 0, 57, 49
4, 3360, Note_on_c, 0, 57, 0
4, 3360, Note_on_c, 0, 56, 49
4, 3480, Note_on_c, 0, 56, 0
4, 3480, Note_on_c, 0, 57, 49
4, 3600, Note_on_c, 0, 57, 0
4, 3600, Note_on_c, 0, 60, 49
4, 3720, Note_on_c, 0, 60, 0
4, 3720, Control_c, 0, 64, 0
4, 3720, Note_on_c, 0, 69, 49
4, 3780, Note_on_c, 0, 62, 49
4, 3840, Note_on_c, 0, 69, 0
4, 3840, Note_on_c, 0, 65, 62
4, 3863, Note_on_c, 0, 65, 0
4, 3863, Note_on_c, 0, 62, 0
4, 4260, Note_on_c, 0, 64, 62
4, 4320, Note_on_c, 0, 67, 62
4, 4343, Note_on_c, 0, 67, 0
4, 4343, Note_on_c, 0, 64, 0
4, 4800, Note_on_c, 0, 65, 62
4, 5280, Note_on_c, 0, 65, 0
4, 5880, Control_c, 0, 64, 127
4, 5880, Note_on_c, 0, 57, 49
4, 6000, Note_on_c, 0, 57, 0
4, 6000, Note_on_c, 0, 54, 49
4, 6120, Note_on_c, 0, 54, 0
4, 6120, Note_on_c, 0, 55, 49
4, 6240, Note_on_c, 0, 55, 0
4, 6240, Note_on_c, 0, 54, 49
4, 6360, Note_on_c, 0, 54, 0
4, 6360, Note_on_c, 0, 55, 49
4, 6480, Note_on_c, 0, 55, 0
4, 6480, Note_on_c, 0, 57, 49
4, 6600, Note_on_c, 0, 57, 0
4, 6600, Control_c, 0, 64, 0
4, 6600, Note_on_c, 0, 58, 49
4, 6720, Note_on_c, 0, 58, 0
4, 6840, Note_on_c, 0, 58, 49
4, 6960, Note_on_c, 0, 58, 0
4, 6960, Note_on_c, 0, 56, 49
4, 7080, Note_on_c, 0, 56, 0
4, 7080, Note_on_c, 0, 57, 49
4, 7200, Note_on_c, 0, 57, 0
4, 7320, Note_on_c, 0, 57, 49
4, 7440, Note_on_c, 0, 57, 0
4, 7440, Note_on_c, 0, 54, 49
4, 7560, Note_on_c, 0, 54, 0
4, 7560, Note_on_c, 0, 55, 49
4, 7680, Note_on_c, 0, 55, 0
4, 7800, Note_on_c, 0, 55, 49
4, 7920, Note_on_c, 0, 55, 0
4, 7920, Note_on_c, 0, 52, 49
4, 8040, Note_on_c, 0, 52, 0
4, 8040, Note_on_c, 0, 53, 49
4, 8160, Note_on_c, 0, 53, 0
4, 8280, Note_on_c, 0, 53, 49
4, 8400, Note_on_c, 0, 53, 0
4, 8400, Note_on_c, 0, 51, 49
4, 8520, Note_on_c, 0, 51, 0
4, 8520, Note_on_c, 0, 52, 49
4, 8640, Note_on_c, 0, 52, 0
4, 8760, Control_c, 0, 64, 127
4, 8760, Note_on_c, 0, 52, 49
4, 8880, Note_on_c, 0, 52, 0
4, 8880, Note_on_c, 0, 49, 49
4, 9000, Note_on_c, 0, 49, 0
4, 9000, Note_on_c, 0, 50, 49
4, 9120, Note_on_c, 0, 50, 0
4, 9120, Note_on_c, 0, 53, 49
4, 9240, Note_on_c, 0, 53, 0
4, 9240, Note_on_c, 0, 57, 49
4, 9360, Note_on_c, 0, 57, 0
4, 9360, Note_on_c, 0, 62, 49
4, 9480, Note_on_c, 0, 62, 0
4, 9480, Control_c, 0, 64, 0
4, 9480, Note_on_c, 0, 65, 49
4, 9600, Note_on_c, 0, 65, 0
4, 9600, Note_on_c, 0, 55, 62
4, 9600, Note_on_c, 0, 62, 62
4, 10560, Note_on_c, 0, 62, 0
4, 10560, Note_on_c, 0, 55, 0
4, 10560, Note_on_c, 0, 57, 62
4, 10560, Note_on_c, 0, 62, 62
4, 10583, Note_on_c, 0, 62, 0
4, 10583, Note_on_c, 0, 57, 0
4, 11040, Note_on_c, 0, 55, 62
4, 11040, Note_on_c, 0, 58, 62
4, 11040, Note_on_c, 0, 64, 62
4, 11063, Note_on_c, 0, 64, 0
4, 11063, Note_on_c, 0, 58, 0
4, 11063, Note_on_c, 0, 55, 0
4, 11520, Note_on_c, 0, 53, 62
4, 11520, Note_on_c, 0, 57, 62
4, 11520, Note_on_c, 0, 62, 62
4, 11543, Note_on_c, 0, 62, 0
4, 11543, Note_on_c, 0, 57, 0
4, 11543, Note_on_c, 0, 53, 0
4, 12000, Note_on_c, 0, 52, 62
4, 12000, Note_on_c, 0, 55, 62
4, 12000, Note_on_c, 0, 61, 62
4, 12023, Note_on_c, 0, 61, 0
4, 12023, Note_on_c, 0, 55, 0
4, 12023, Note_on_c, 0, 52, 0
4, 12480, Note_on_c, 0, 53, 62
4, 12480, Note_on_c, 0, 57, 62
4, 12960, Note_on_c, 0, 57, 0
4, 12960, Note_on_c, 0, 53, 0
4, 13680, Note_on_c, 0, 38, 49
4, 13703, Note_on_c, 0, 38, 0
4, 14160, Note_on_c, 0, 52, 49
4, 14183, Note_on_c, 0, 52, 0
4, 14640, Note_on_c, 0, 53, 49
4, 14663, Note_on_c, 0, 53, 0
4, 15120, Note_on_c, 0, 50, 49
4, 15143, Note_on_c, 0, 50, 0
4, 15600, Note_on_c, 0, 53, 49
4, 15600, Note_on_c, 0, 58, 49
4, 15600, Note_on_c, 0, 62, 49
4, 15623, Note_on_c, 0, 62, 0
4, 15623, Note_on_c, 0, 58, 0
4, 15623, Note_on_c, 0, 53, 0
4, 16080, Note_on_c, 0, 52, 49
4, 16080, Note_on_c, 0, 55, 49
4, 16080, Note_on_c, 0, 58, 49
4, 16103, Note_on_c, 0, 58, 0
4, 16103, Note_on_c, 0, 55, 0
4, 16103, Note_on_c, 0, 52, 0
4, 16560, Note_on_c, 0, 53, 49
4, 16560, Note_on_c, 0, 57, 49
4, 16583, Note_on_c, 0, 57, 0
4, 16583, Note_on_c, 0, 53, 0
4, 16800, Note_on_c, 0, 57, 49
4, 16800, Note_on_c, 0, 60, 49
4, 16823, Note_on_c, 0, 60, 0
4, 16823, Note_on_c, 0, 57, 0
4, 17040, Note_on_c, 0, 60, 49
4, 17040, Note_on_c, 0, 65, 49
4, 17063, Note_on_c, 0, 65, 0
4, 17063, Note_on_c, 0, 60, 0
4, 17400, Note_on_c, 0, 64, 49
4, 17520, Note_on_c, 0, 64, 0
4, 17520, Note_on_c, 0, 61, 49
4, 17640, Note_on_c, 0, 61, 0
4, 17640, Note_on_c, 0, 62, 49
4, 17760, Note_on_c, 0, 62, 0
4, 17880, Note_on_c, 0, 65, 49
4, 18000, Note_on_c, 0, 65, 0
4, 18000, Note_on_c, 0, 63, 49
4, 18120, Note_on_c, 0, 63, 0
4, 18120, Note_on_c, 0, 64, 49
4, 18240, Note_on_c, 0, 64, 0
4, 18360, Control_c, 0, 64, 127
4, 18360, Note_on_c, 0, 67, 49
4, 18480, Note_on_c, 0, 67, 0
4, 18480, Note_on_c, 0, 64, 49
4, 18600, Note_on_c, 0, 64, 0
4, 18600, Note_on_c, 0, 65, 49
4, 18720, Note_on_c, 0, 65, 0
4, 18720, Note_on_c, 0, 60, 49
4, 18840, Note_on_c, 0, 60, 0
4, 18840, Note_on_c, 0, 57, 49
4, 18960, Note_on_c, 0, 57, 0
4, 18960, Note_on_c, 0, 53, 49
4, 19080, Note_on_c, 0, 53, 0
4, 19080, Control_c, 0, 64, 0
4, 19080, Note_on_c, 0, 48, 49
4, 19200, Note_on_c, 0, 48, 0
4, 19440, Note_on_c, 0, 50, 49
4, 19440, Note_on_c, 0, 55, 49
4, 19463, Note_on_c, 0, 55, 0
4, 19463, Note_on_c, 0, 50, 0
4, 19920, Note_on_c, 0, 50, 49
4, 19920, Note_on_c, 0, 55, 49
4, 19920, Note_on_c, 0, 58, 49
4, 19943, Note_on_c, 0, 58, 0
4, 19943, Note_on_c, 0, 55, 0
4, 19943, Note_on_c, 0, 50, 0
4, 20400, Note_on_c, 0, 50, 49
4, 20400, Note_on_c, 0, 57, 49
4, 20423, Note_on_c, 0, 57, 0
4, 20423, Note_on_c, 0, 50, 0
4, 20880, Note_on_c, 0, 52, 49
4, 20880, Note_on_c, 0, 55, 49
4, 20903, Note_on_c, 0, 55, 0
4, 20903, Note_on_c, 0, 52, 0
4, 21360, Note_on_c, 0, 50, 49
4, 21360, Note_on_c, 0, 53, 49
4, 21383, Note_on_c, 0, 53, 0
4, 21383, Note_on_c, 0, 50, 0
4, 21840, Note_on_c, 0, 49, 49
4, 21840, Note_on_c, 0, 52, 49
4, 21863, Note_on_c, 0, 52, 0
4, 21863, Note_on_c, 0, 49, 0
4, 22320, Note_on_c, 0, 50, 49
4, 22320, Note_on_c, 0, 53, 49
4, 22343, Note_on_c, 0, 53, 0
4, 22343, Note_on_c, 0, 50, 0
4, 23160, Control_c, 0, 64, 127
4, 23160, Note_on_c, 0, 60, 49
4, 23280, Note_on_c, 0, 60, 0
4, 23280, Note_on_c, 0, 57, 49
4, 23400, Note_on_c, 0, 57, 0
4, 23400, Note_on_c, 0, 58, 49
4, 23520, Note_on_c, 0, 58, 0
4, 23520, Note_on_c, 0, 57, 49
4, 23640, Note_on_c, 0, 57, 0
4, 23640, Note_on_c, 0, 58, 49
4, 23760, Note_on_c, 0, 58, 0
4, 23760, Note_on_c, 0, 55, 49
4, 23880, Note_on_c, 0, 55, 0
4, 23880, Control_c, 0, 64, 0
4, 23880, Note_on_c, 0, 52, 49
4, 24000, Note_on_c, 0, 52, 0
4, 24120, Note_on_c, 0, 55, 49
4, 24240, Note_on_c, 0, 55, 0
4, 24240, Note_on_c, 0, 52, 49
4, 24360, Note_on_c, 0, 52, 0
4, 24360, Note_on_c, 0, 53, 49
4, 24480, Note_on_c, 0, 53, 0
4, 24600, Note_on_c, 0, 57, 49
4, 24720, Note_on_c, 0, 57, 0
4, 24720, Note_on_c, 0, 54, 49
4, 24840, Note_on_c, 0, 54, 0
4, 24840, Note_on_c, 0, 55, 49
4, 24960, Note_on_c, 0, 55, 0
4, 25080, Note_on_c, 0, 58, 49
4, 25200, Note_on_c, 0, 58, 0
4, 25200, Note_on_c, 0, 56, 49
4, 25320, Note_on_c, 0, 56, 0
4, 25320, Note_on_c, 0, 57, 49
4, 25440, Note_on_c, 0, 57, 0
4, 25560, Note_on_c, 0, 46, 49
4, 25680, Note_on_c, 0, 46, 0
4, 25680, Note_on_c, 0, 44, 49
4, 25800, Note_on_c, 0, 44, 0
4, 25800, Note_on_c, 0, 45, 49
4, 25920, Note_on_c, 0, 45, 0
4, 26040, Control_c, 0, 64, 127
4, 26040, Note_on_c, 0, 52, 49
4, 26160, Note_on_c, 0, 52, 0
4, 26160, Note_on_c, 0, 49, 49
4, 26280, Note_on_c, 0, 49, 0
4, 26280, Note_on_c, 0, 50, 49
4, 26400, Note_on_c, 0, 50, 0
4, 26400, Note_on_c, 0, 49, 49
4, 26520, Note_on_c, 0, 49, 0
4, 26520, Note_on_c, 0, 50, 49
4, 26640, Note_on_c, 0, 50, 0
4, 26640, Note_on_c, 0, 53, 49
4, 26760, Note_on_c, 0, 53, 0
4, 26760, Control_c, 0, 64, 0
4, 26760, Note_on_c, 0, 57, 49
4, 26880, Note_on_c, 0, 57, 0
4, 26880, Control_c, 0, 64, 127
4, 26880, Note_on_c, 0, 58, 88
4, 27120, Note_on_c, 0, 58, 0
4, 27120, Note_on_c, 0, 57, 88
4, 27240, Note_on_c, 0, 57, 0
4, 27240, Note_on_c, 0, 58, 88
4, 27360, Note_on_c, 0, 58, 0
4, 27360, Note_on_c, 0, 57, 88
4, 27480, Note_on_c, 0, 57, 0
4, 27480, Note_on_c, 0, 58, 88
4, 27600, Note_on_c, 0, 58, 0
4, 27600, Control_c, 0, 64, 0
4, 27600, Note_on_c, 0, 50, 88
4, 27600, Note_on_c, 0, 53, 88
4, 27840, Note_on_c, 0, 53, 0
4, 27840, Note_on_c, 0, 50, 0
4, 27840, Control_c, 0, 64, 127
4, 27840, Note_on_c, 0, 70, 88
4, 28080, Note_on_c, 0, 70, 0
4, 28080, Note_on_c, 0, 69, 88
4, 28200, Note_on_c, 0, 69, 0
4, 28200, Note_on_c, 0, 70, 88
4, 28320, Note_on_c, 0, 70, 0
4, 28320, Note_on_c, 0, 69, 88
4, 28440, Note_on_c, 0, 69, 0
4, 28440, Note_on_c, 0, 70, 88
4, 28560, Note_on_c, 0, 70, 0
4, 28560, Control_c, 0, 64, 0
4, 28560, Note_on_c, 0, 62, 88
4, 28560, Note_on_c, 0, 65, 88
4, 28800, Note_on_c, 0, 65, 0
4, 28800, Note_on_c, 0, 62, 0
4, 28920, Note_on_c, 0, 65, 88
4, 28920, Note_on_c, 0, 69, 88
4, 29040, Note_on_c, 0, 69, 0
4, 29040, Note_on_c, 0, 65, 0
4, 29040, Note_on_c, 0, 60, 88
4, 29280, Note_on_c, 0, 60, 0
4, 29400, Note_on_c, 0, 64, 88
4, 29400, Note_on_c, 0, 67, 88
4, 29520, Note_on_c, 0, 67, 0
4, 29520, Note_on_c, 0, 64, 0
4, 29520, Note_on_c, 0, 58, 88
4, 29760, Note_on_c, 0, 58, 0
4, 29880, Note_on_c, 0, 57, 88
4, 29880, Note_on_c, 0, 60, 88
4, 30000, Note_on_c, 0, 53, 88
4, 30480, Note_on_c, 0, 53, 0
4, 30480, Note_on_c, 0, 60, 0
4, 30480, Note_on_c, 0, 57, 0
4, 30480, Note_on_c, 0, 53, 88
4, 30480, Note_on_c, 0, 57, 88
4, 30480, Note_on_c, 0, 60, 88
4, 30503, Note_on_c, 0, 60, 0
4, 30503, Note_on_c, 0, 57, 0
4, 30503, Note_on_c, 0, 53, 0
4, 30720, Control_c, 0, 64, 127
4, 30720, Note_on_c, 0, 58, 88
4, 30960, Note_on_c, 0, 58, 0
4, 30960, Note_on_c, 0, 57, 88
4, 31080, Note_on_c, 0, 57, 0
4, 31080, Note_on_c, 0, 58, 88
4, 31200, Note_on_c, 0, 58, 0
4, 31200, Note_on_c, 0, 57, 88
4, 31320, Note_on_c, 0, 57, 0
4, 31320, Note_on_c, 0, 58, 88
4, 31440, Note_on_c, 0, 58, 0
4, 31440, Control_c, 0, 64, 0
4, 31440, Note_on_c, 0, 50, 88
4, 31440, Note_on_c, 0, 53, 88
4, 31680, Note_on_c, 0, 53, 0
4, 31680, Note_on_c, 0, 50, 0
4, 31680, Control_c, 0, 64, 127
4, 31680, Note_on_c, 0, 70, 88
4, 31920, Note_on_c, 0, 70, 0
4, 31920, Note_on_c, 0, 69, 88
4, 32040, Note_on_c, 0, 69, 0
4, 32040, Note_on_c, 0, 70, 88
4, 32160, Note_on_c, 0, 70, 0
4, 32160, Note_on_c, 0, 69, 88
4, 32280, Note_on_c, 0, 69, 0
4, 32280, Note_on_c, 0, 70, 88
4, 32400, Note_on_c, 0, 70, 0
4, 32400, Control_c, 0, 64, 0
4, 32400, Note_on_c, 0, 62, 88
4, 32400, Note_on_c, 0, 65, 88
4, 32640, Note_on_c, 0, 65, 0
4, 32640, Note_on_c, 0, 62, 0
4, 32760, Note_on_c, 0, 65, 88
4, 32760, Note_on_c, 0, 69, 88
4, 32880, Note_on_c, 0, 69, 0
4, 32880, Note_on_c, 0, 65, 0
4, 32880, Note_on_c, 0, 60, 88
4, 33120, Note_on_c, 0, 60, 0
4, 33240, Note_on_c, 0, 64, 88
4, 33240, Note_on_c, 0, 67, 88
4, 33360, Note_on_c, 0, 67, 0
4, 33360, Note_on_c, 0, 64, 0
4, 33360, Note_on_c, 0, 58, 88
4, 33600, Note_on_c, 0, 58, 0
4, 33720, Note_on_c, 0, 57, 88
4, 33720, Note_on_c, 0, 60, 88
4, 33840, Note_on_c, 0, 53, 88
4, 34320, Note_on_c, 0, 53, 0
4, 34320, Note_on_c, 0, 60, 0
4, 34320, Note_on_c, 0, 57, 0
4, 34320, Note_on_c, 0, 53, 88
4, 34320, Note_on_c, 0, 57, 88
4, 34320, Note_on_c, 0, 60, 88
4, 34343, Note_on_c, 0, 60, 0
4, 34343, Note_on_c, 0, 57, 0
4, 34343, Note_on_c, 0, 53, 0
4, 34560, Control_c, 0, 64, 127
4, 34560, Note_on_c, 0, 58, 75
4, 34680, Note_on_c, 0, 58, 0
4, 34680, Note_on_c, 0, 55, 49
4, 34800, Note_on_c, 0, 55, 0
4, 34800, Note_on_c, 0, 50, 49
4, 34920, Note_on_c, 0, 50, 0
4, 34920, Note_on_c, 0, 46, 49
4, 35040, Note_on_c, 0, 46, 0
4, 35040, Note_on_c, 0, 43, 49
4, 35160, Note_on_c, 0, 43, 0
4, 35160, Note_on_c, 0, 41, 49
4, 35280, Note_on_c, 0, 41, 0
4, 35280, Control_c, 0, 64, 0
4, 35280, Note_on_c, 0, 40, 49
4, 35280, Note_on_c, 0, 50, 49
4, 35280, Note_on_c, 0, 55, 49
4, 35303, Note_on_c, 0, 55, 0
4, 35303, Note_on_c, 0, 50, 0
4, 35303, Note_on_c, 0, 40, 0
4, 35640, Note_on_c, 0, 55, 49
4, 35760, Note_on_c, 0, 55, 0
4, 35760, Note_on_c, 0, 52, 49
4, 35880, Note_on_c, 0, 52, 0
4, 35880, Note_on_c, 0, 53, 49
4, 36000, Note_on_c, 0, 53, 0
4, 36120, Note_on_c, 0, 57, 49
4, 36240, Note_on_c, 0, 57, 0
4, 36240, Note_on_c, 0, 54, 49
4, 36360, Note_on_c, 0, 54, 0
4, 36360, Note_on_c, 0, 55, 49
4, 36480, Note_on_c, 0, 55, 0
4, 36600, Note_on_c, 0, 58, 49
4, 36720, Note_on_c, 0, 58, 0
4, 36720, Note_on_c, 0, 56, 49
4, 36840, Note_on_c, 0, 56, 0
4, 36840, Note_on_c, 0, 57, 49
4, 36960, Note_on_c, 0, 57, 0
4, 37080, Note_on_c, 0, 46, 49
4, 37200, Note_on_c, 0, 46, 0
4, 37200, Note_on_c, 0, 44, 49
4, 37320, Note_on_c, 0, 44, 0
4, 37320, Note_on_c, 0, 45, 49
4, 37440, Note_on_c, 0, 45, 0
4, 37560, Control_c, 0, 64, 127
4, 37560, Note_on_c, 0, 52, 49
4, 37680, Note_on_c, 0, 52, 0
4, 37680, Note_on_c, 0, 49, 49
4, 37800, Note_on_c, 0, 49, 0
4, 37800, Note_on_c, 0, 50, 49
4, 37920, Note_on_c, 0, 50, 0
4, 37920, Note_on_c, 0, 52, 49
4, 38040, Note_on_c, 0, 52, 0
4, 38040, Note_on_c, 0, 57, 49
4, 38160, Note_on_c, 0, 57, 0
4, 38160, Note_on_c, 0, 62, 49
4, 38280, Note_on_c, 0, 62, 0
4, 38280, Control_c, 0, 64, 0
4, 38280, Note_on_c, 0, 65, 49
4, 38400, Note_on_c, 0, 65, 0
4, 38400, Note_on_c, 0, 55, 49
4, 38400, Note_on_c, 0, 62, 49
4, 39360, Note_on_c, 0, 62, 0
4, 39360, Note_on_c, 0, 55, 0
4, 39360, Note_on_c, 0, 57, 49
4, 39360, Note_on_c, 0, 62, 49
4, 39383, Note_on_c, 0, 62, 0
4, 39383, Note_on_c, 0, 57, 0
4, 39840, Note_on_c, 0, 55, 49
4, 39840, Note_on_c, 0, 58, 49
4, 39840, Note_on_c, 0, 64, 49
4, 39863, Note_on_c, 0, 64, 0
4, 39863, Note_on_c, 0, 58, 0
4, 39863, Note_on_c, 0, 55, 0
4, 40320, Note_on_c, 0, 53, 49
4, 40320, Note_on_c, 0, 57, 49
4, 40320, Note_on_c, 0, 62, 49
4, 40343, Note_on_c, 0, 62, 0
4, 40343, Note_on_c, 0, 57, 0
4, 40343, Note_on_c, 0, 53, 0
4, 40800, Note_on_c, 0, 52, 49
4, 40800, Note_on_c, 0, 55, 49
4, 40800, Note_on_c, 0, 61, 49
4, 40823, Note_on_c, 0, 61, 0
4, 40823, Note_on_c, 0, 55, 0
4, 40823, Note_on_c, 0, 52, 0
4, 41280, Note_on_c, 0, 53, 49
4, 41280, Note_on_c, 0, 57, 49
4, 41760, Note_on_c, 0, 57, 0
4, 41760, Note_on_c, 0, 53, 0
4, 42240, Control_c, 0, 64, 127
4, 42240, Note_on_c, 0, 58, 88
4, 42240, Note_on_c, 0, 62, 88
4, 42480, Note_on_c, 0, 62, 0
4, 42480, Note_on_c, 0, 58, 0
4, 42480, Note_on_c, 0, 57, 88
4, 42480, Note_on_c, 0, 61, 88
4, 42600, Note_on_c, 0, 61, 0
4, 42600, Note_on_c, 0, 57, 0
4, 42600, Note_on_c, 0, 58, 88
4, 42600, Note_on_c, 0, 62, 88
4, 42720, Note_on_c, 0, 62, 0
4, 42720, Note_on_c, 0, 58, 0
4, 42720, Note_on_c, 0, 57, 88
4, 42720, Note_on_c, 0, 61, 88
4, 42840, Note_on_c, 0, 61, 0
4, 42840, Note_on_c, 0, 57, 0
4, 42840, Note_on_c, 0, 58, 88
4, 42840, Note_on_c, 0, 62, 88
4, 42960, Note_on_c, 0, 62, 0
4, 42960, Note_on_c, 0, 58, 0
4, 42960, Note_on_c, 0, 57, 88
4, 42960, Note_on_c, 0, 61, 88
4, 43080, Note_on_c, 0, 61, 0
4, 43080, Note_on_c, 0, 57, 0
4, 43080, Control_c, 0, 64, 0
4, 43080, Note_on_c, 0, 58, 88
4, 43080, Note_on_c, 0, 62, 88
4, 43200, Note_on_c, 0, 62, 0
4, 43200, Note_on_c, 0, 58, 0
4, 43440, Note_on_c, 0, 62, 114
4, 43440, Note_on_c, 0, 67, 114
4, 43440, Note_on_c, 0, 70, 114
4, 43920, Note_on_c, 0, 70, 0
4, 43920, Note_on_c, 0, 67, 0
4, 43920, Note_on_c, 0, 62, 0
4, 43920, Note_on_c, 0, 58, 88
4, 43920, Note_on_c, 0, 62, 88
4, 43920, Note_on_c, 0, 67, 88
4, 44160, Note_on_c, 0, 67, 0
4, 44160, Note_on_c, 0, 62, 0
4, 44160, Note_on_c, 0, 58, 0
4, 44280, Note_on_c, 0, 60, 88
4, 44280, Note_on_c, 0, 65, 88
4, 44400, Note_on_c, 0, 65, 0
4, 44400, Note_on_c, 0, 60, 0
4, 44400, Note_on_c, 0, 57, 88
4, 44520, Note_on_c, 0, 57, 0
4, 44520, Note_on_c, 0, 60, 88
4, 44520, Note_on_c, 0, 65, 88
4, 44640, Note_on_c, 0, 65, 0
4, 44640, Note_on_c, 0, 60, 0
4, 44760, Note_on_c, 0, 64, 88
4, 44760, Note_on_c, 0, 67, 88
4, 44880, Note_on_c, 0, 67, 0
4, 44880, Note_on_c, 0, 64, 0
4, 44880, Note_on_c, 0, 58, 88
4, 45000, Note_on_c, 0, 58, 0
4, 45000, Note_on_c, 0, 64, 88
4, 45000, Note_on_c, 0, 67, 88
4, 45120, Note_on_c, 0, 67, 0
4, 45120, Note_on_c, 0, 64, 0
4, 45240, Note_on_c, 0, 57, 88
4, 45240, Note_on_c, 0, 60, 88
4, 45360, Note_on_c, 0, 53, 88
4, 45840, Note_on_c, 0, 53, 0
4, 45840, Note_on_c, 0, 60, 0
4, 45840, Note_on_c, 0, 57, 0
4, 45840, Note_on_c, 0, 53, 88
4, 45840, Note_on_c, 0, 57, 88
4, 45840, Note_on_c, 0, 60, 88
4, 45863, Note_on_c, 0, 60, 0
4, 45863, Note_on_c, 0, 57, 0
4, 45863, Note_on_c, 0, 53, 0
4, 46080, Control_c, 0, 64, 127
4, 46080, Note_on_c, 0, 58, 88
4, 46080, Note_on_c, 0, 62, 88
4, 46320, Note_on_c, 0, 62, 0
4, 46320, Note_on_c, 0, 58, 0
4, 46320, Note_on_c, 0, 57, 88
4, 46320, Note_on_c, 0, 61, 88
4, 46440, Note_on_c, 0, 61, 0
4, 46440, Note_on_c, 0, 57, 0
4, 46440, Note_on_c, 0, 58, 88
4, 46440, Note_on_c, 0, 62, 88
4, 46560, Note_on_c, 0, 62, 0
4, 46560, Note_on_c, 0, 58, 0
4, 46560, Note_on_c, 0, 57, 88
4, 46560, Note_on_c, 0, 61, 88
4, 46680, Note_on_c, 0, 61, 0
4, 46680, Note_on_c, 0, 57, 0
4, 46680, Note_on_c, 0, 58, 88
4, 46680, Note_on_c, 0, 62, 88
4, 46800, Note_on_c, 0, 62, 0
4, 46800, Note_on_c, 0, 58, 0
4, 46800, Note_on_c, 0, 57, 88
4, 46800, Note_on_c, 0, 61, 88
4, 46920, Note_on_c, 0, 61, 0
4, 46920, Note_on_c, 0, 57, 0
4, 46920, Control_c, 0, 64, 0
4, 46920, Note_on_c, 0, 58, 88
4, 46920, Note_on_c, 0, 62, 88
4, 47040, Note_on_c, 0, 62, 0
4, 47040, Note_on_c, 0, 58, 0
4, 47280, Note_on_c, 0, 62, 114
4, 47280, Note_on_c, 0, 67, 114
4, 47280, Note_on_c, 0, 70, 114
4, 47760, Note_on_c, 0, 70, 0
4, 47760, Note_on_c, 0, 67, 0
4, 47760, Note_on_c, 0, 62, 0
4, 47760, Note_on_c, 0, 58, 88
4, 47760, Note_on_c, 0, 62, 88
4, 47760, Note_on_c, 0, 67, 88
4, 48000, Note_on_c, 0, 67, 0
4, 48000, Note_on_c, 0, 62, 0
4, 48000, Note_on_c, 0, 58, 0
4, 48120, Note_on_c, 0, 65, 88
4, 48120, Note_on_c, 0, 69, 88
4, 48240, Note_on_c, 0, 69, 0
4, 48240, Note_on_c, 0, 65, 0
4, 48240, Note_on_c, 0, 57, 88
4, 48360, Note_on_c, 0, 57, 0
4, 48360, Note_on_c, 0, 65, 88
4, 48360, Note_on_c, 0, 69, 88
4, 48480, Note_on_c, 0, 69, 0
4, 48480, Note_on_c, 0, 65, 0
4, 48600, Note_on_c, 0, 64, 88
4, 48600, Note_on_c, 0, 67, 88
4, 48720, Note_on_c, 0, 67, 0
4, 48720, Note_on_c, 0, 64, 0
4, 48720, Note_on_c, 0, 58, 88
4, 48840, Note_on_c, 0, 58, 0
4, 48840, Note_on_c, 0, 64, 88
4, 48840, Note_on_c, 0, 67, 88
4, 48960, Note_on_c, 0, 67, 0
4, 48960, Note_on_c, 0, 64, 0
4, 49080, Note_on_c, 0, 57, 88
4, 49080, Note_on_c, 0, 60, 88
4, 49200, Note_on_c, 0, 53, 88
4, 49680, Note_on_c, 0, 53, 0
4, 49680, Note_on_c, 0, 60, 0
4, 49680, Note_on_c, 0, 57, 0
4, 49680, Note_on_c, 0, 53, 88
4, 49680, Note_on_c, 0, 57, 88
4, 49680, Note_on_c, 0, 60, 88
4, 49703, Note_on_c, 0, 60, 0
4, 49703, Note_on_c, 0, 57, 0
4, 49703, Note_on_c, 0, 53, 0
4, 49920, Control_c, 0, 64, 127
4, 49920, Note_on_c, 0, 58, 75
4, 50040, Note_on_c, 0, 58, 0
4, 50040, Note_on_c, 0, 55, 49
4, 50160, Note_on_c, 0, 55, 0
4, 50160, Note_on_c, 0, 50, 49
4, 50280, Note_on_c, 0, 50, 0
4, 50280, Note_on_c, 0, 46, 49
4, 50400, Note_on_c, 0, 46, 0
4, 50400, Note_on_c, 0, 43, 49
4, 50520, Note_on_c, 0, 43, 0
4, 50520, Note_on_c, 0, 41, 49
4, 50640, Note_on_c, 0, 41, 0
4, 50640, Control_c, 0, 64, 0
4, 50640, Note_on_c, 0, 40, 49
4, 50640, Note_on_c, 0, 50, 49
4, 50640, Note_on_c, 0, 55, 49
4, 50663, Note_on_c, 0, 55, 0
4, 50663, Note_on_c, 0, 50, 0
4, 50663, Note_on_c, 0, 40, 0
4, 51000, Note_on_c, 0, 55, 49
4, 51120, Note_on_c, 0, 55, 0
4, 51120, Note_on_c, 0, 52, 49
4, 51240, Note_on_c, 0, 52, 0
4, 51240, Note_on_c, 0, 53, 49
4, 51360, Note_on_c, 0, 53, 0
4, 51480, Note_on_c, 0, 57, 49
4, 51600, Note_on_c, 0, 57, 0
4, 51600, Note_on_c, 0, 54, 49
4, 51720, Note_on_c, 0, 54, 0
4, 51720, Note_on_c, 0, 55, 49
4, 51840, Note_on_c, 0, 55, 0
4, 51960, Note_on_c, 0, 58, 49
4, 52080, Note_on_c, 0, 58, 0
4, 52080, Note_on_c, 0, 56, 49
4, 52200, Note_on_c, 0, 56, 0
4, 52200, Note_on_c, 0, 57, 49
4, 52320, Note_on_c, 0, 57, 0
4, 52440, Note_on_c, 0, 46, 49
4, 52560, Note_on_c, 0, 46, 0
4, 52560, Note_on_c, 0, 44, 49
4, 52680, Note_on_c, 0, 44, 0
4, 52680, Note_on_c, 0, 45, 49
4, 52800, Note_on_c, 0, 45, 0
4, 53040, Note_on_c, 0, 50, 49
4, 53063, Note_on_c, 0, 50, 0
4, 53520, Note_on_c, 0, 48, 49
4, 53543, Note_on_c, 0, 48, 0
4, 54000, Note_on_c, 0, 46, 49
4, 54023, Note_on_c, 0, 46, 0
4, 54480, Note_on_c, 0, 40, 49
4, 54503, Note_on_c, 0, 40, 0
4, 54960, Note_on_c, 0, 41, 49
4, 54983, Note_on_c, 0, 41, 0
4, 55440, Note_on_c, 0, 43, 49
4, 55463, Note_on_c, 0, 43, 0
4, 56160, Note_on_c, 0, 45, 49
4, 56183, Note_on_c, 0, 45, 0
4, 57120, Note_on_c, 0, 38, 49
4, 57143, Note_on_c, 0, 38, 0
4, 57600, Control_c, 0, 64, 127
4, 57600, Note_on_c, 0, 66, 62
4, 57600, Note_on_c, 0, 69, 62
4, 57720, Note_on_c, 0, 67, 62
4, 57780, Note_on_c, 0, 67, 0
4, 57780, Note_on_c, 0, 69, 62
4, 57840, Note_on_c, 0, 69, 0
4, 57840, Note_on_c, 0, 69, 0
4, 57840, Note_on_c, 0, 66, 0
4, 57840, Note_on_c, 0, 64, 62
4, 57840, Note_on_c, 0, 67, 62
4, 58080, Note_on_c, 0, 67, 0
4, 58080, Note_on_c, 0, 64, 0
4, 58080, Note_on_c, 0, 62, 62
4, 58080, Note_on_c, 0, 66, 62
4, 58320, Note_on_c, 0, 66, 0
4, 58320, Note_on_c, 0, 62, 0
4, 58320, Note_on_c, 0, 64, 62
4, 58320, Note_on_c, 0, 67, 62
4, 58560, Note_on_c, 0, 67, 0
4, 58560, Note_on_c, 0, 64, 0
4, 58560, Control_c, 0, 64, 0
4, 58560, Note_on_c, 0, 66, 62
4, 58560, Note_on_c, 0, 69, 62
4, 58800, Note_on_c, 0, 69, 0
4, 58800, Note_on_c, 0, 66, 0
4, 58800, Note_on_c, 0, 66, 62
4, 58800, Note_on_c, 0, 69, 62
4, 59280, Note_on_c, 0, 69, 0
4, 59280, Note_on_c, 0, 66, 0
4, 59280, Control_c, 0, 64, 127
4, 59280, Note_on_c, 0, 66, 62
4, 59280, Note_on_c, 0, 74, 62
4, 59520, Note_on_c, 0, 74, 0
4, 59520, Note_on_c, 0, 66, 0
4, 59520, Note_on_c, 0, 69, 62
4, 59520, Note_on_c, 0, 78, 62
4, 60000, Note_on_c, 0, 78, 0
4, 60000, Note_on_c, 0, 69, 0
4, 60000, Note_on_c, 0, 67, 62
4, 60000, Note_on_c, 0, 76, 62
4, 60480, Note_on_c, 0, 76, 0
4, 60480, Note_on_c, 0, 67, 0
4, 60480, Note_on_c, 0, 66, 62
4, 60480, Note_on_c, 0, 74, 62
4, 61200, Note_on_c, 0, 74, 0
4, 61200, Note_on_c, 0, 66, 0
4, 61200, Control_c, 0, 64, 0
4, 61200, Note_on_c, 0, 66, 62
4, 61200, Note_on_c, 0, 69, 62
4, 61440, Note_on_c, 0, 69, 0
4, 61440, Note_on_c, 0, 66, 0
4, 61440, Control_c, 0, 64, 127
4, 61440, Note_on_c, 0, 66, 62
4, 61440, Note_on_c, 0, 69, 62
4, 61560, Note_on_c, 0, 67, 62
4, 61620, Note_on_c, 0, 67, 0
4, 61620, Note_on_c, 0, 69, 62
4, 61680, Note_on_c, 0, 69, 0
4, 61680, Note_on_c, 0, 69, 0
4, 61680, Note_on_c, 0, 66, 0
4, 61680, Note_on_c, 0, 64, 62
4, 61680, Note_on_c, 0, 67, 62
4, 61920, Note_on_c, 0, 67, 0
4, 61920, Note_on_c, 0, 64, 0
4, 61920, Note_on_c, 0, 62, 62
4, 61920, Note_on_c, 0, 66, 62
4, 62160, Note_on_c, 0, 66, 0
4, 62160, Note_on_c, 0, 62, 0
4, 62160, Note_on_c, 0, 64, 62
4, 62160, Note_on_c, 0, 67, 62
4, 62400, Note_on_c, 0, 67, 0
4, 62400, Note_on_c, 0, 64, 0
4, 62400, Control_c, 0, 64, 0
4, 62400, Note_on_c, 0, 66, 62
4, 62400, Note_on_c, 0, 69, 62
4, 62640, Note_on_c, 0, 69, 0
4, 62640, Note_on_c, 0, 66, 0
4, 62640, Note_on_c, 0, 66, 62
4, 62640, Note_on_c, 0, 69, 62
4, 63120, Note_on_c, 0, 69, 0
4, 63120, Note_on_c, 0, 66, 0
4, 63120, Control_c, 0, 64, 127
4, 63120, Note_on_c, 0, 66, 62
4, 63120, Note_on_c, 0, 74, 62
4, 63360, Note_on_c, 0, 74, 0
4, 63360, Note_on_c, 0, 66, 0
4, 63360, Note_on_c, 0, 69, 62
4, 63360, Note_on_c, 0, 78, 62
4, 63840, Note_on_c, 0, 78, 0
4, 63840, Note_on_c, 0, 69, 0
4, 63840, Note_on_c, 0, 67, 62
4, 63840, Note_on_c, 0, 76, 62
4, 64320, Note_on_c, 0, 76, 0
4, 64320, Note_on_c, 0, 67, 0
4, 64320, Control_c, 0, 64, 0
4, 64320, Note_on_c, 0, 66, 62
4, 64320, Note_on_c, 0, 74, 62
4, 64800, Note_on_c, 0, 74, 0
4, 64800, Note_on_c, 0, 66, 0
4, 64920, Note_on_c, 0, 69, 49
4, 65040, Note_on_c, 0, 69, 0
4, 65040, Note_on_c, 0, 71, 49
4, 65160, Note_on_c, 0, 71, 0
4, 65160, Note_on_c, 0, 66, 49
4, 65280, Note_on_c, 0, 66, 0
4, 65280, Control_c, 0, 64, 127
4, 65280, Note_on_c, 0, 69, 49
4, 65400, Note_on_c, 0, 69, 0
4, 65400, Note_on_c, 0, 66, 49
4, 65520, Note_on_c, 0, 66, 0
4, 65520, Note_on_c, 0, 67, 49
4, 65640, Note_on_c, 0, 67, 0
4, 65640, Note_on_c, 0, 64, 49
4, 65760, Note_on_c, 0, 64, 0
4, 65760, Note_on_c, 0, 66, 49
4, 65880, Note_on_c, 0, 66, 0
4, 65880, Note_on_c, 0, 62, 49
4, 66000, Note_on_c, 0, 62, 0
4, 66000, Note_on_c, 0, 67, 49
4, 66120, Note_on_c, 0, 67, 0
4, 66120, Note_on_c, 0, 64, 49
4, 66240, Note_on_c, 0, 64, 0
4, 66240, Control_c, 0, 64, 0
4, 66240, Note_on_c, 0, 66, 49
4, 66240, Note_on_c, 0, 69, 49
4, 66480, Note_on_c, 0, 69, 0
4, 66480, Note_on_c, 0, 66, 0
4, 66480, Note_on_c, 0, 66, 49
4, 66480, Note_on_c, 0, 69, 49
4, 66840, Note_on_c, 0, 69, 0
4, 66840, Note_on_c, 0, 66, 0
4, 66840, Note_on_c, 0, 69, 49
4, 66960, Note_on_c, 0, 69, 0
4, 66960, Note_on_c, 0, 71, 49
4, 66960, Note_on_c, 0, 74, 49
4, 67080, Note_on_c, 0, 74, 0
4, 67080, Note_on_c, 0, 71, 0
4, 67080, Note_on_c, 0, 66, 49
4, 67200, Note_on_c, 0, 66, 0
4, 67200, Note_on_c, 0, 69, 49
4, 67200, Note_on_c, 0, 78, 49
4, 67680, Note_on_c, 0, 78, 0
4, 67680, Note_on_c, 0, 69, 0
4, 67680, Note_on_c, 0, 67, 49
4, 67680, Note_on_c, 0, 76, 49
4, 68160, Note_on_c, 0, 76, 0
4, 68160, Note_on_c, 0, 67, 0
4, 68160, Note_on_c, 0, 66, 49
4, 68160, Note_on_c, 0, 74, 49
4, 68640, Note_on_c, 0, 74, 0
4, 68640, Note_on_c, 0, 66, 0
4, 68640, Note_on_c, 0, 66, 49
4, 68640, Note_on_c, 0, 69, 49
4, 68880, Note_on_c, 0, 69, 0
4, 68880, Note_on_c, 0, 66, 0
4, 69120, Control_c, 0, 64, 127
4, 69120, Note_on_c, 0, 69, 49
4, 69240, Note_on_c, 0, 69, 0
4, 69240, Note_on_c, 0, 66, 49
4, 69360, Note_on_c, 0, 66, 0
4, 69360, Note_on_c, 0, 67, 49
4, 69480, Note_on_c, 0, 67, 0
4, 69480, Note_on_c, 0, 64, 49
4, 69600, Note_on_c, 0, 64, 0
4, 69600, Note_on_c, 0, 66, 49
4, 69720, Note_on_c, 0, 66, 0
4, 69720, Note_on_c, 0, 62, 49
4, 69840, Note_on_c, 0, 62, 0
4, 69840, Note_on_c, 0, 67, 49
4, 69960, Note_on_c, 0, 67, 0
4, 69960, Note_on_c, 0, 64, 49
4, 70080, Note_on_c, 0, 64, 0
4, 70080, Control_c, 0, 64, 0
4, 70080, Note_on_c, 0, 66, 49
4, 70080, Note_on_c, 0, 69, 49
4, 70320, Note_on_c, 0, 69, 0
4, 70320, Note_on_c, 0, 66, 0
4, 70320, Note_on_c, 0, 66, 49
4, 70320, Note_on_c, 0, 69, 49
4, 70680, Note_on_c, 0, 69, 0
4, 70680, Note_on_c, 0, 66, 0
4, 70680, Note_on_c, 0, 69, 49
4, 70800, Note_on_c, 0, 69, 0
4, 70800, Note_on_c, 0, 71, 49
4, 70800, Note_on_c, 0, 74, 49
4, 70920, Note_on_c, 0, 74, 0
4, 70920, Note_on_c, 0, 71, 0
4, 70920, Note_on_c, 0, 66, 49
4, 71040, Note_on_c, 0, 66, 0
4, 71040, Note_on_c, 0, 69, 49
4, 71040, Note_on_c, 0, 78, 49
4, 71520, Note_on_c, 0, 78, 0
4, 71520, Note_on_c, 0, 69, 0
4, 71520, Note_on_c, 0, 67, 49
4, 71520, Note_on_c, 0, 76, 49
4, 72000, Note_on_c, 0, 76, 0
4, 72000, Note_on_c, 0, 67, 0
4, 72000, Note_on_c, 0, 66, 49
4, 72000, Note_on_c, 0, 74, 49
4, 72480, Note_on_c, 0, 74, 0
4, 72480, Note_on_c, 0, 66, 0
4, 73200, Control_c, 0, 64, 127
4, 73200, Note_on_c, 0, 57, 75
4, 73320, Note_on_c, 0, 57, 0
4, 73320, Note_on_c, 0, 60, 75
4, 73320, Note_on_c, 0, 65, 75
4, 73320, Note_on_c, 0, 69, 75
4, 73680, Note_on_c, 0, 69, 0
4, 73680, Note_on_c, 0, 65, 0
4, 73680, Note_on_c, 0, 60, 0
4, 73680, Control_c, 0, 64, 0
4, 73680, Note_on_c, 0, 57, 75
4, 73680, Note_on_c, 0, 60, 75
4, 73703, Note_on_c, 0, 60, 0
4, 73703, Note_on_c, 0, 57, 0
4, 74160, Control_c, 0, 64, 127
4, 74160, Note_on_c, 0, 57, 75
4, 74280, Note_on_c, 0, 57, 0
4, 74280, Note_on_c, 0, 60, 75
4, 74280, Note_on_c, 0, 65, 75
4, 74280, Note_on_c, 0, 69, 75
4, 74640, Note_on_c, 0, 69, 0
4, 74640, Note_on_c, 0, 65, 0
4, 74640, Note_on_c, 0, 60, 0
4, 74640, Control_c, 0, 64, 0
4, 74640, Note_on_c, 0, 53, 75
4, 74640, Note_on_c, 0, 60, 75
4, 74663, Note_on_c, 0, 60, 0
4, 74663, Note_on_c, 0, 53, 0
4, 75120, Control_c, 0, 64, 127
4, 75120, Note_on_c, 0, 55, 75
4, 75240, Note_on_c, 0, 55, 0
4, 75240, Note_on_c, 0, 60, 75
4, 75240, Note_on_c, 0, 67, 75
4, 75600, Note_on_c, 0, 67, 0
4, 75600, Note_on_c, 0, 60, 0
4, 75600, Control_c, 0, 64, 0
4, 75600, Note_on_c, 0, 55, 75
4, 75600, Note_on_c, 0, 60, 75
4, 75600, Note_on_c, 0, 64, 75
4, 75623, Note_on_c, 0, 64, 0
4, 75623, Note_on_c, 0, 60, 0
4, 75623, Note_on_c, 0, 55, 0
4, 76080, Control_c, 0, 64, 127
4, 76080, Note_on_c, 0, 55, 75
4, 76200, Note_on_c, 0, 55, 0
4, 76200, Note_on_c, 0, 58, 75
4, 76200, Note_on_c, 0, 60, 75
4, 76560, Note_on_c, 0, 60, 0
4, 76560, Note_on_c, 0, 58, 0
4, 76560, Control_c, 0, 64, 0
4, 76560, Note_on_c, 0, 52, 75
4, 76560, Note_on_c, 0, 58, 75
4, 76560, Note_on_c, 0, 64, 75
4, 76583, Note_on_c, 0, 64, 0
4, 76583, Note_on_c, 0, 58, 0
4, 76583, Note_on_c, 0, 52, 0
4, 77040, Control_c, 0, 64, 127
4, 77040, Note_on_c, 0, 55, 75
4, 77160, Note_on_c, 0, 55, 0
4, 77160, Note_on_c, 0, 55, 75
4, 77160, Note_on_c, 0, 64, 75
4, 77160, Note_on_c, 0, 67, 75
4, 77520, Note_on_c, 0, 67, 0
4, 77520, Note_on_c, 0, 64, 0
4, 77520, Note_on_c, 0, 55, 0
4, 77520, Control_c, 0, 64, 0
4, 77520, Note_on_c, 0, 53, 75
4, 77520, Note_on_c, 0, 62, 75
4, 77520, Note_on_c, 0, 65, 75
4, 77543, Note_on_c, 0, 65, 0
4, 77543, Note_on_c, 0, 62, 0
4, 77543, Note_on_c, 0, 53, 0
4, 78000, Control_c, 0, 64, 127
4, 78000, Note_on_c, 0, 50, 75
4, 78120, Note_on_c, 0, 50, 0
4, 78120, Note_on_c, 0, 50, 75
4, 78120, Note_on_c, 0, 57, 75
4, 78120, Note_on_c, 0, 62, 75
4, 78480, Note_on_c, 0, 62, 0
4, 78480, Note_on_c, 0, 57, 0
4, 78480, Note_on_c, 0, 50, 0
4, 78480, Control_c, 0, 64, 0
4, 78480, Note_on_c, 0, 53, 75
4, 78480, Note_on_c, 0, 58, 75
4, 78503, Note_on_c, 0, 58, 0
4, 78503, Note_on_c, 0, 53, 0
4, 78960, Note_on_c, 0, 57, 75
4, 78960, Note_on_c, 0, 62, 75
4, 79080, Note_on_c, 0, 62, 0
4, 79080, Note_on_c, 0, 57, 0
4, 79080, Note_on_c, 0, 53, 75
4, 79200, Note_on_c, 0, 53, 0
4, 79440, Note_on_c, 0, 57, 75
4, 79440, Note_on_c, 0, 61, 75
4, 79560, Note_on_c, 0, 61, 0
4, 79560, Note_on_c, 0, 57, 0
4, 79560, Note_on_c, 0, 52, 75
4, 79680, Note_on_c, 0, 52, 0
4, 79920, Note_on_c, 0, 57, 75
4, 79920, Note_on_c, 0, 62, 75
4, 80040, Note_on_c, 0, 62, 0
4, 80040, Note_on_c, 0, 57, 0
4, 80040, Note_on_c, 0, 53, 75
4, 80160, Note_on_c, 0, 53, 0
4, 80880, Control_c, 0, 64, 127
4, 80880, Note_on_c, 0, 57, 75
4, 81000, Note_on_c, 0, 57, 0
4, 81000, Note_on_c, 0, 60, 75
4, 81000, Note_on_c, 0, 65, 75
4, 81000, Note_on_c, 0, 69, 75
4, 81360, Note_on_c, 0, 69, 0
4, 81360, Note_on_c, 0, 65, 0
4, 81360, Note_on_c, 0, 60, 0
4, 81360, Control_c, 0, 64, 0
4, 81360, Note_on_c, 0, 57, 75
4, 81360, Note_on_c, 0, 60, 75
4, 81383, Note_on_c, 0, 60, 0
4, 81383, Note_on_c, 0, 57, 0
4, 81840, Control_c, 0, 64, 127
4, 81840, Note_on_c, 0, 57, 75
4, 81960, Note_on_c, 0, 57, 0
4, 81960, Note_on_c, 0, 60, 75
4, 81960, Note_on_c, 0, 65, 75
4, 81960, Note_on_c, 0, 69, 75
4, 82320, Note_on_c, 0, 69, 0
4, 82320, Note_on_c, 0, 65, 0
4, 82320, Note_on_c, 0, 60, 0
4, 82320, Control_c, 0, 64, 0
4, 82320, Note_on_c, 0, 53, 75
4, 82320, Note_on_c, 0, 60, 75
4, 82343, Note_on_c, 0, 60, 0
4, 82343, Note_on_c, 0, 53, 0
4, 82800, Control_c, 0, 64, 127
4, 82800, Note_on_c, 0, 55, 75
4, 82920, Note_on_c, 0, 55, 0
4, 82920, Note_on_c, 0, 60, 75
4, 82920, Note_on_c, 0, 67, 75
4, 83280, Note_on_c, 0, 67, 0
4, 83280, Note_on_c, 0, 60, 0
4, 83280, Control_c, 0, 64, 0
4, 83280, Note_on_c, 0, 55, 75
4, 83280, Note_on_c, 0, 60, 75
4, 83280, Note_on_c, 0, 64, 75
4, 83303, Note_on_c, 0, 64, 0
4, 83303, Note_on_c, 0, 60, 0
4, 83303, Note_on_c, 0, 55, 0
4, 83760, Control_c, 0, 64, 127
4, 83760, Note_on_c, 0, 55, 75
4, 83880, Note_on_c, 0, 55, 0
4, 83880, Note_on_c, 0, 58, 75
4, 83880, Note_on_c, 0, 60, 75
4, 84240, Note_on_c, 0, 60, 0
4, 84240, Note_on_c, 0, 58, 0
4, 84240, Control_c, 0, 64, 0
4, 84240, Note_on_c, 0, 52, 75
4, 84240, Note_on_c, 0, 58, 75
4, 84240, Note_on_c, 0, 64, 75
4, 84263, Note_on_c, 0, 64, 0
4, 84263, Note_on_c, 0, 58, 0
4, 84263, Note_on_c, 0, 52, 0
4, 84720, Control_c, 0, 64, 127
4, 84720, Note_on_c, 0, 55, 75
4, 84840, Note_on_c, 0, 55, 0
4, 84840, Note_on_c, 0, 55, 75
4, 84840, Note_on_c, 0, 64, 75
4, 84840, Note_on_c, 0, 67, 75
4, 85200, Note_on_c, 0, 67, 0
4, 85200, Note_on_c, 0, 64, 0
4, 85200, Note_on_c, 0, 55, 0
4, 85200, Control_c, 0, 64, 0
4, 85200, Note_on_c, 0, 53, 75
4, 85200, Note_on_c, 0, 62, 75
4, 85200, Note_on_c, 0, 65, 75
4, 85223, Note_on_c, 0, 65, 0
4, 85223, Note_on_c, 0, 62, 0
4, 85223, Note_on_c, 0, 53, 0
4, 85680, Control_c, 0, 64, 127
4, 85680, Note_on_c, 0, 50, 75
4, 85800, Note_on_c, 0, 50, 0
4, 85800, Note_on_c, 0, 50, 75
4, 85800, Note_on_c, 0, 57, 75
4, 85800, Note_on_c, 0, 62, 75
4, 86160, Note_on_c, 0, 62, 0
4, 86160, Note_on_c, 0, 57, 0
4, 86160, Note_on_c, 0, 50, 0
4, 86160, Control_c, 0, 64, 0
4, 86160, Note_on_c, 0, 53, 75
4, 86160, Note_on_c, 0, 58, 75
4, 86183, Note_on_c, 0, 58, 0
4, 86183, Note_on_c, 0, 53, 0
4, 86640, Note_on_c, 0, 57, 75
4, 86640, Note_on_c, 0, 62, 75
4, 86760, Note_on_c, 0, 62, 0
4, 86760, Note_on_c, 0, 57, 0
4, 86760, Note_on_c, 0, 53, 75
4, 86880, Note_on_c, 0, 53, 0
4, 87120, Note_on_c, 0, 57, 75
4, 87120, Note_on_c, 0, 61, 75
4, 87240, Note_on_c, 0, 61, 0
4, 87240, Note_on_c, 0, 57, 0
4, 87240, Note_on_c, 0, 52, 75
4, 87360, Note_on_c, 0, 52, 0
4, 87600, Note_on_c, 0, 57, 75
4, 87600, Note_on_c, 0, 62, 75
4, 87720, Note_on_c, 0, 62, 0
4, 87720, Note_on_c, 0, 57, 0
4, 87720, Note_on_c, 0, 53, 75
4, 87840, Note_on_c, 0, 53, 0
4, 88080, Note_on_c, 0, 69, 62
4, 88260, Note_on_c, 0, 69, 0
4, 88260, Note_on_c, 0, 71, 62
4, 88320, Note_on_c, 0, 71, 0
4, 88320, Control_c, 0, 64, 127
4, 88320, Note_on_c, 0, 66, 62
4, 88320, Note_on_c, 0, 69, 62
4, 88440, Note_on_c, 0, 67, 62
4, 88500, Note_on_c, 0, 67, 0
4, 88500, Note_on_c, 0, 69, 62
4, 88560, Note_on_c, 0, 69, 0
4, 88560, Note_on_c, 0, 69, 0
4, 88560, Note_on_c, 0, 66, 0
4, 88560, Note_on_c, 0, 64, 62
4, 88560, Note_on_c, 0, 67, 62
4, 88800, Note_on_c, 0, 67, 0
4, 88800, Note_on_c, 0, 64, 0
4, 88800, Note_on_c, 0, 62, 62
4, 88800, Note_on_c, 0, 66, 62
4, 89040, Note_on_c, 0, 66, 0
4, 89040, Note_on_c, 0, 62, 0
4, 89040, Note_on_c, 0, 64, 62
4, 89040, Note_on_c, 0, 67, 62
4, 89280, Note_on_c, 0, 67, 0
4, 89280, Note_on_c, 0, 64, 0
4, 89280, Control_c, 0, 64, 0
4, 89280, Note_on_c, 0, 66, 62
4, 89280, Note_on_c, 0, 69, 62
4, 89520, Note_on_c, 0, 69, 0
4, 89520, Note_on_c, 0, 66, 0
4, 89520, Note_on_c, 0, 66, 62
4, 89520, Note_on_c, 0, 69, 62
4, 90000, Note_on_c, 0, 69, 0
4, 90000, Note_on_c, 0, 66, 0
4, 90000, Control_c, 0, 64, 127
4, 90000, Note_on_c, 0, 66, 62
4, 90000, Note_on_c, 0, 74, 62
4, 90240, Note_on_c, 0, 74, 0
4, 90240, Note_on_c, 0, 66, 0
4, 90240, Note_on_c, 0, 69, 62
4, 90240, Note_on_c, 0, 78, 62
4, 90720, Note_on_c, 0, 78, 0
4, 90720, Note_on_c, 0, 69, 0
4, 90720, Note_on_c, 0, 67, 62
4, 90720, Note_on_c, 0, 76, 62
4, 91200, Note_on_c, 0, 76, 0
4, 91200, Note_on_c, 0, 67, 0
4, 91200, Note_on_c, 0, 66, 62
4, 91200, Note_on_c, 0, 74, 62
4, 91920, Note_on_c, 0, 74, 0
4, 91920, Note_on_c, 0, 66, 0
4, 91920, Control_c, 0, 64, 0
4, 91920, Note_on_c, 0, 66, 62
4, 91920, Note_on_c, 0, 69, 62
4, 92160, Note_on_c, 0, 69, 0
4, 92160, Note_on_c, 0, 66, 0
4, 92160, Control_c, 0, 64, 127
4, 92160, Note_on_c, 0, 66, 62
4, 92160, Note_on_c, 0, 69, 62
4, 92280, Note_on_c, 0, 67, 62
4, 92340, Note_on_c, 0, 67, 0
4, 92340, Note_on_c, 0, 69, 62
4, 92400, Note_on_c, 0, 69, 0
4, 92400, Note_on_c, 0, 69, 0
4, 92400, Note_on_c, 0, 66, 0
4, 92400, Note_on_c, 0, 64, 62
4, 92400, Note_on_c, 0, 67, 62
4, 92640, Note_on_c, 0, 67, 0
4, 92640, Note_on_c, 0, 64, 0
4, 92640, Note_on_c, 0, 62, 62
4, 92640, Note_on_c, 0, 66, 62
4, 92880, Note_on_c, 0, 66, 0
4, 92880, Note_on_c, 0, 62, 0
4, 92880, Note_on_c, 0, 64, 62
4, 92880, Note_on_c, 0, 67, 62
4, 93120, Note_on_c, 0, 67, 0
4, 93120, Note_on_c, 0, 64, 0
4, 93120, Control_c, 0, 64, 0
4, 93120, Note_on_c, 0, 66, 62
4, 93120, Note_on_c, 0, 69, 62
4, 93360, Note_on_c, 0, 69, 0
4, 93360, Note_on_c, 0, 66, 0
4, 93360, Note_on_c, 0, 66, 62
4, 93360, Note_on_c, 0, 69, 62
4, 93840, Note_on_c, 0, 69, 0
4, 93840, Note_on_c, 0, 66, 0
4, 93840, Control_c, 0, 64, 127
4, 93840, Note_on_c, 0, 66, 62
4, 93840, Note_on_c, 0, 74, 62
4, 94080, Note_on_c, 0, 74, 0
4, 94080, Note_on_c, 0, 66, 0
4, 94080, Note_on_c, 0, 69, 62
4, 94080, Note_on_c, 0, 78, 62
4, 94560, Note_on_c, 0, 78, 0
4, 94560, Note_on_c, 0, 69, 0
4, 94560, Note_on_c, 0, 67, 62
4, 94560, Note_on_c, 0, 76, 62
4, 95040, Note_on_c, 0, 76, 0
4, 95040, Note_on_c, 0, 67, 0
4, 95040, Control_c, 0, 64, 0
4, 95040, Note_on_c, 0, 66, 62
4, 95040, Note_on_c, 0, 74, 62
4, 95520, Note_on_c, 0, 74, 0
4, 95520, Note_on_c, 0, 66, 0
4, 96000, Note_on_c, 0, 45, 49
4, 96120, Note_on_c, 0, 45, 0
4, 96120, Note_on_c, 0, 50, 49
4, 96240, Note_on_c, 0, 50, 0
4, 96240, Note_on_c, 0, 45, 49
4, 96360, Note_on_c, 0, 45, 0
4, 96480, Note_on_c, 0, 46, 49
4, 96600, Note_on_c, 0, 46, 0
4, 96600, Note_on_c, 0, 49, 49
4, 96720, Note_on_c, 0, 49, 0
4, 96720, Note_on_c, 0, 46, 49
4, 96840, Note_on_c, 0, 46, 0
4, 96960, Note_on_c, 0, 50, 49
4, 97080, Note_on_c, 0, 50, 0
4, 97080, Note_on_c, 0, 45, 49
4, 97200, Note_on_c, 0, 45, 0
4, 97200, Note_on_c, 0, 50, 49
4, 97320, Note_on_c, 0, 50, 0
4, 97440, Note_on_c, 0, 45, 49
4, 97560, Note_on_c, 0, 45, 0
4, 97560, Note_on_c, 0, 50, 49
4, 97680, Note_on_c, 0, 50, 0
4, 97680, Note_on_c, 0, 45, 49
4, 97800, Note_on_c, 0, 45, 0
4, 97920, Note_on_c, 0, 53, 49
4, 98040, Note_on_c, 0, 53, 0
4, 98040, Note_on_c, 0, 50, 49
4, 98160, Note_on_c, 0, 50, 0
4, 98160, Note_on_c, 0, 53, 49
4, 98280, Note_on_c, 0, 53, 0
4, 98400, Note_on_c, 0, 60, 49
4, 98520, Note_on_c, 0, 60, 0
4, 98520, Note_on_c, 0, 55, 49
4, 98640, Note_on_c, 0, 55, 0
4, 98640, Note_on_c, 0, 60, 49
4, 98760, Note_on_c, 0, 60, 0
4, 98880, Note_on_c, 0, 53, 49
4, 98903, Note_on_c, 0, 53, 0
4, 99120, Note_on_c, 0, 48, 49
4, 99143, Note_on_c, 0, 48, 0
4, 99360, Note_on_c, 0, 53, 49
4, 99383, Note_on_c, 0, 53, 0
4, 99600, Note_on_c, 0, 57, 49
4, 99623, Note_on_c, 0, 57, 0
4, 99840, Note_on_c, 0, 62, 49
4, 99960, Note_on_c, 0, 62, 0
4, 99960, Note_on_c, 0, 58, 49
4, 100080, Note_on_c, 0, 58, 0
4, 100080, Note_on_c, 0, 62, 49
4, 100200, Note_on_c, 0, 62, 0
4, 100320, Note_on_c, 0, 55, 49
4, 100440, Note_on_c, 0, 55, 0
4, 100440, Note_on_c, 0, 64, 49
4, 100560, Note_on_c, 0, 64, 0
4, 100560, Note_on_c, 0, 55, 49
4, 100680, Note_on_c, 0, 55, 0
4, 100800, Note_on_c, 0, 65, 49
4, 100823, Note_on_c, 0, 65, 0
4, 101040, Note_on_c, 0, 60, 49
4, 101063, Note_on_c, 0, 60, 0
4, 101280, Note_on_c, 0, 57, 49
4, 101303, Note_on_c, 0, 57, 0
4, 101520, Note_on_c, 0, 53, 49
4, 101543, Note_on_c, 0, 53, 0
4, 101760, Control_c, 0, 64, 127
4, 101760, Note_on_c, 0, 58, 75
4, 101880, Note_on_c, 0, 58, 0
4, 101880, Note_on_c, 0, 55, 49
4, 102000, Note_on_c, 0, 55, 0
4, 102000, Note_on_c, 0, 50, 49
4, 102120, Note_on_c, 0, 50, 0
4, 102120, Note_on_c, 0, 46, 49
4, 102240, Note_on_c, 0, 46, 0
4, 102240, Note_on_c, 0, 43, 49
4, 102360, Note_on_c, 0, 43, 0
4, 102360, Note_on_c, 0, 41, 49
4, 102480, Note_on_c, 0, 41, 0
4, 102480, Control_c, 0, 64, 0
4, 102480, Note_on_c, 0, 40, 49
4, 102480, Note_on_c, 0, 50, 49
4, 102480, Note_on_c, 0, 55, 49
4, 102503, Note_on_c, 0, 55, 0
4, 102503, Note_on_c, 0, 50, 0
4, 102503, Note_on_c, 0, 40, 0
4, 102720, Note_on_c, 0, 50, 49
4, 102840, Note_on_c, 0, 50, 0
4, 102840, Note_on_c, 0, 53, 49
4, 102960, Note_on_c, 0, 53, 0
4, 102960, Note_on_c, 0, 50, 49
4, 103080, Note_on_c, 0, 50, 0
4, 103200, Note_on_c, 0, 52, 49
4, 103320, Note_on_c, 0, 52, 0
4, 103320, Note_on_c, 0, 55, 49
4, 103440, Note_on_c, 0, 55, 0
4, 103440, Note_on_c, 0, 52, 49
4, 103560, Note_on_c, 0, 52, 0
4, 103680, Note_on_c, 0, 53, 49
4, 103800, Note_on_c, 0, 53, 0
4, 103800, Note_on_c, 0, 57, 49
4, 103920, Note_on_c, 0, 57, 0
4, 103920, Note_on_c, 0, 53, 49
4, 104040, Note_on_c, 0, 53, 0
4, 104160, Note_on_c, 0, 45, 49
4, 104280, Note_on_c, 0, 45, 0
4, 104280, Note_on_c, 0, 52, 49
4, 104400, Note_on_c, 0, 52, 0
4, 104400, Note_on_c, 0, 45, 49
4, 104520, Note_on_c, 0, 45, 0
4, 104760, Control_c, 0, 64, 127
4, 104760, Note_on_c, 0, 45, 49
4, 104880, Note_on_c, 0, 45, 0
4, 104880, Note_on_c, 0, 41, 49
4, 105000, Note_on_c, 0, 41, 0
4, 105000, Note_on_c, 0, 45, 49
4, 105120, Note_on_c, 0, 45, 0
4, 105120, Note_on_c, 0, 50, 49
4, 105240, Note_on_c, 0, 50, 0
4, 105240, Note_on_c, 0, 53, 49
4, 105360, Note_on_c, 0, 53, 0
4, 105360, Note_on_c, 0, 57, 49
4, 105480, Note_on_c, 0, 57, 0
4, 105480, Control_c, 0, 64, 0
4, 105480, Note_on_c, 0, 62, 49
4, 105600, Note_on_c, 0, 62, 0
4, 105600, Control_c, 0, 64, 127
4, 105600, Note_on_c, 0, 58, 75
4, 105720, Note_on_c, 0, 58, 0
4, 105720, Note_on_c, 0, 55, 49
4, 105840, Note_on_c, 0, 55, 0
4, 105840, Note_on_c, 0, 50, 49
4, 105960, Note_on_c, 0, 50, 0
4, 105960, Control_c, 0, 64, 0
4, 105960, Note_on_c, 0, 46, 49
4, 106080, Note_on_c, 0, 46, 0
4, 106320, Note_on_c, 0, 55, 49
4, 106320, Note_on_c, 0, 62, 49
4, 106343, Note_on_c, 0, 62, 0
4, 106343, Note_on_c, 0, 55, 0
4, 106560, Note_on_c, 0, 53, 49
4, 106680, Note_on_c, 0, 53, 0
4, 106680, Note_on_c, 0, 57, 49
4, 106680, Note_on_c, 0, 62, 49
4, 106800, Note_on_c, 0, 62, 0
4, 106800, Note_on_c, 0, 57, 0
4, 106800, Note_on_c, 0, 53, 49
4, 106920, Note_on_c, 0, 53, 0
4, 107040, Note_on_c, 0, 55, 49
4, 107160, Note_on_c, 0, 55, 0
4, 107160, Note_on_c, 0, 58, 49
4, 107160, Note_on_c, 0, 64, 49
4, 107280, Note_on_c, 0, 64, 0
4, 107280, Note_on_c, 0, 58, 0
4, 107280, Note_on_c, 0, 55, 49
4, 107400, Note_on_c, 0, 55, 0
4, 107520, Note_on_c, 0, 57, 49
4, 107640, Note_on_c, 0, 57, 0
4, 107640, Note_on_c, 0, 62, 49
4, 107640, Note_on_c, 0, 65, 49
4, 107760, Note_on_c, 0, 65, 0
4, 107760, Note_on_c, 0, 62, 0
4, 107760, Note_on_c, 0, 57, 49
4, 107880, Note_on_c, 0, 57, 0
4, 108000, Note_on_c, 0, 52, 49
4, 108120, Note_on_c, 0, 52, 0
4, 108120, Note_on_c, 0, 55, 49
4, 108120, Note_on_c, 0, 61, 49
4, 108240, Note_on_c, 0, 61, 0
4, 108240, Note_on_c, 0, 55, 0
4, 108240, Note_on_c, 0, 52, 49
4, 108360, Note_on_c, 0, 52, 0
4, 108480, Note_on_c, 0, 53, 49
4, 108600, Note_on_c, 0, 53, 0
4, 108600, Note_on_c, 0, 57, 49
4, 108600, Note_on_c, 0, 62, 49
4, 108720, Note_on_c, 0, 62, 0
4, 108720, Note_on_c, 0, 57, 0
4, 108720, Note_on_c, 0, 53, 49
4, 108840, Note_on_c, 0, 53, 0
4, 109440, Control_c, 0, 64, 127
4, 109440, Note_on_c, 0, 58, 88
4, 109680, Note_on_c, 0, 58, 0
4, 109680, Note_on_c, 0, 57, 88
4, 109800, Note_on_c, 0, 57, 0
4, 109800, Note_on_c, 0, 58, 88
4, 109920, Note_on_c, 0, 58, 0
4, 109920, Note_on_c, 0, 57, 88
4, 110040, Note_on_c, 0, 57, 0
4, 110040, Note_on_c, 0, 58, 88
4, 110160, Note_on_c, 0, 58, 0
4, 110160, Control_c, 0, 64, 0
4, 110160, Note_on_c, 0, 50, 88
4, 110160, Note_on_c, 0, 53, 88
4, 110400, Note_on_c, 0, 53, 0
4, 110400, Note_on_c, 0, 50, 0
4, 110400, Control_c, 0, 64, 127
4, 110400, Note_on_c, 0, 70, 88
4, 110640, Note_on_c, 0, 70, 0
4, 110640, Note_on_c, 0, 69, 88
4, 110760, Note_on_c, 0, 69, 0
4, 110760, Note_on_c, 0, 70, 88
4, 110880, Note_on_c, 0, 70, 0
4, 110880, Note_on_c, 0, 69, 88
4, 111000, Note_on_c, 0, 69, 0
4, 111000, Note_on_c, 0, 70, 88
4, 111120, Note_on_c, 0, 70, 0
4, 111120, Control_c, 0, 64, 0
4, 111120, Note_on_c, 0, 62, 88
4, 111120, Note_on_c, 0, 65, 88
4, 111360, Note_on_c, 0, 65, 0
4, 111360, Note_on_c, 0, 62, 0
4, 111480, Note_on_c, 0, 65, 88
4, 111480, Note_on_c, 0, 69, 88
4, 111600, Note_on_c, 0, 69, 0
4, 111600, Note_on_c, 0, 65, 0
4, 111600, Note_on_c, 0, 60, 88
4, 111840, Note_on_c, 0, 60, 0
4, 111960, Note_on_c, 0, 64, 88
4, 111960, Note_on_c, 0, 67, 88
4, 112080, Note_on_c, 0, 67, 0
4, 112080, Note_on_c, 0, 64, 0
4, 112080, Note_on_c, 0, 58, 88
4, 112320, Note_on_c, 0, 58, 0
4, 112440, Note_on_c, 0, 57, 88
4, 112440, Note_on_c, 0, 60, 88
4, 112560, Note_on_c, 0, 53, 88
4, 113040, Note_on_c, 0, 53, 0
4, 113040, Note_on_c, 0, 60, 0
4, 113040, Note_on_c, 0, 57, 0
4, 113040, Note_on_c, 0, 53, 88
4, 113040, Note_on_c, 0, 57, 88
4, 113040, Note_on_c, 0, 60, 88
4, 113063, Note_on_c, 0, 60, 0
4, 113063, Note_on_c, 0, 57, 0
4, 113063, Note_on_c, 0, 53, 0
4, 113280, Control_c, 0, 64, 127
4, 113280, Note_on_c, 0, 58, 88
4, 113520, Note_on_c, 0, 58, 0
4, 113520, Note_on_c, 0, 57, 88
4, 113640, Note_on_c, 0, 57, 0
4, 113640, Note_on_c, 0, 58, 88
4, 113760, Note_on_c, 0, 58, 0
4, 113760, Note_on_c, 0, 57, 88
4, 113880, Note_on_c, 0, 57, 0
4, 113880, Note_on_c, 0, 58, 88
4, 114000, Note_on_c, 0, 58, 0
4, 114000, Control_c, 0, 64, 0
4, 114000, Note_on_c, 0, 50, 88
4, 114000, Note_on_c, 0, 53, 88
4, 114240, Note_on_c, 0, 53, 0
4, 114240, Note_on_c, 0, 50, 0
4, 114240, Control_c, 0, 64, 127
4, 114240, Note_on_c, 0, 70, 88
4, 114480, Note_on_c, 0, 70, 0
4, 114480, Note_on_c, 0, 69, 88
4, 114600, Note_on_c, 0, 69, 0
4, 114600, Note_on_c, 0, 70, 88
4, 114720, Note_on_c, 0, 70, 0
4, 114720, Note_on_c, 0, 69, 88
4, 114840, Note_on_c, 0, 69, 0
4, 114840, Note_on_c, 0, 70, 88
4, 114960, Note_on_c, 0, 70, 0
4, 114960, Control_c, 0, 64, 0
4, 114960, Note_on_c, 0, 62, 88
4, 114960, Note_on_c, 0, 65, 88
4, 115200, Note_on_c, 0, 65, 0
4, 115200, Note_on_c, 0, 62, 0
4, 115320, Note_on_c, 0, 65, 88
4, 115320, Note_on_c, 0, 69, 88
4, 115440, Note_on_c, 0, 69, 0
4, 115440, Note_on_c, 0, 65, 0
4, 115440, Note_on_c, 0, 60, 88
4, 115680, Note_on_c, 0, 60, 0
4, 115800, Note_on_c, 0, 64, 88
4, 115800, Note_on_c, 0, 67, 88
4, 115920, Note_on_c, 0, 67, 0
4, 115920, Note_on_c, 0, 64, 0
4, 115920, Note_on_c, 0, 58, 88
4, 116160, Note_on_c, 0, 58, 0
4, 116280, Note_on_c, 0, 57, 88
4, 116280, Note_on_c, 0, 60, 88
4, 116400, Note_on_c, 0, 53, 88
4, 116880, Note_on_c, 0, 53, 0
4, 116880, Note_on_c, 0, 60, 0
4, 116880, Note_on_c, 0, 57, 0
4, 116880, Note_on_c, 0, 53, 88
4, 116880, Note_on_c, 0, 57, 88
4, 116880, Note_on_c, 0, 60, 88
4, 116903, Note_on_c, 0, 60, 0
4, 116903, Note_on_c, 0, 57, 0
4, 116903, Note_on_c, 0, 53, 0
4, 117120, Control_c, 0, 64, 127
4, 117120, Note_on_c, 0, 58, 75
4, 117240, Note_on_c, 0, 58, 0
4, 117240, Note_on_c, 0, 55, 49
4, 117360, Note_on_c, 0, 55, 0
4, 117360, Note_on_c, 0, 50, 49
4, 117480, Note_on_c, 0, 50, 0
4, 117480, Note_on_c, 0, 46, 49
4, 117600, Note_on_c, 0, 46, 0
4, 117600, Note_on_c, 0, 43, 49
4, 117720, Note_on_c, 0, 43, 0
4, 117720, Note_on_c, 0, 41, 49
4, 117840, Note_on_c, 0, 41, 0
4, 117840, Control_c, 0, 64, 0
4, 117840, Note_on_c, 0, 40, 49
4, 117840, Note_on_c, 0, 50, 49
4, 117840, Note_on_c, 0, 55, 49
4, 117863, Note_on_c, 0, 55, 0
4, 117863, Note_on_c, 0, 50, 0
4, 117863, Note_on_c, 0, 40, 0
4, 118200, Note_on_c, 0, 55, 49
4, 118320, Note_on_c, 0, 55, 0
4, 118320, Note_on_c, 0, 52, 49
4, 118440, Note_on_c, 0, 52, 0
4, 118440, Note_on_c, 0, 53, 49
4, 118560, Note_on_c, 0, 53, 0
4, 118680, Note_on_c, 0, 57, 49
4, 118800, Note_on_c, 0, 57, 0
4, 118800, Note_on_c, 0, 54, 49
4, 118920, Note_on_c, 0, 54, 0
4, 118920, Note_on_c, 0, 55, 49
4, 119040, Note_on_c, 0, 55, 0
4, 119160, Note_on_c, 0, 58, 49
4, 119280, Note_on_c, 0, 58, 0
4, 119280, Note_on_c, 0, 56, 49
4, 119400, Note_on_c, 0, 56, 0
4, 119400, Note_on_c, 0, 57, 49
4, 119520, Note_on_c, 0, 57, 0
4, 119640, Note_on_c, 0, 46, 49
4, 119760, Note_on_c, 0, 46, 0
4, 119760, Note_on_c, 0, 44, 49
4, 119880, Note_on_c, 0, 44, 0
4, 119880, Note_on_c, 0, 45, 49
4, 120000, Note_on_c, 0, 45, 0
4, 120120, Control_c, 0, 64, 127
4, 120120, Note_on_c, 0, 52, 49
4, 120240, Note_on_c, 0, 52, 0
4, 120240, Note_on_c, 0, 49, 49
4, 120360, Note_on_c, 0, 49, 0
4, 120360, Note_on_c, 0, 50, 49
4, 120480, Note_on_c, 0, 50, 0
4, 120480, Note_on_c, 0, 52, 49
4, 120600, Note_on_c, 0, 52, 0
4, 120600, Note_on_c, 0, 57, 49
4, 120720, Note_on_c, 0, 57, 0
4, 120720, Note_on_c, 0, 62, 49
4, 120840, Note_on_c, 0, 62, 0
4, 120840, Control_c, 0, 64, 0
4, 120840, Note_on_c, 0, 65, 49
4, 120960, Note_on_c, 0, 65, 0
4, 120960, Note_on_c, 0, 55, 49
4, 120960, Note_on_c, 0, 62, 49
4, 121920, Note_on_c, 0, 62, 0
4, 121920, Note_on_c, 0, 55, 0
4, 121920, Note_on_c, 0, 57, 49
4, 121920, Note_on_c, 0, 62, 49
4, 121943, Note_on_c, 0, 62, 0
4, 121943, Note_on_c, 0, 57, 0
4, 122400, Note_on_c, 0, 55, 49
4, 122400, Note_on_c, 0, 58, 49
4, 122400, Note_on_c, 0, 64, 49
4, 122423, Note_on_c, 0, 64, 0
4, 122423, Note_on_c, 0, 58, 0
4, 122423, Note_on_c, 0, 55, 0
4, 122880, Note_on_c, 0, 53, 49
4, 122880, Note_on_c, 0, 57, 49
4, 122880, Note_on_c, 0, 62, 49
4, 122903, Note_on_c, 0, 62, 0
4, 122903, Note_on_c, 0, 57, 0
4, 122903, Note_on_c, 0, 53, 0
4, 123360, Note_on_c, 0, 52, 49
4, 123360, Note_on_c, 0, 55, 49
4, 123360, Note_on_c, 0, 61, 49
4, 123383, Note_on_c, 0, 61, 0
4, 123383, Note_on_c, 0, 55, 0
4, 123383, Note_on_c, 0, 52, 0
4, 123840, Note_on_c, 0, 53, 49
4, 123840, Note_on_c, 0, 57, 49
4, 124320, Note_on_c, 0, 57, 0
4, 124320, Note_on_c, 0, 53, 0
4, 124800, Control_c, 0, 64, 127
4, 124800, Note_on_c, 0, 58, 88
4, 124800, Note_on_c, 0, 62, 88
4, 125040, Note_on_c, 0, 62, 0
4, 125040, Note_on_c, 0, 58, 0
4, 125040, Note_on_c, 0, 57, 88
4, 125040, Note_on_c, 0, 61, 88
4, 125160, Note_on_c, 0, 61, 0
4, 125160, Note_on_c, 0, 57, 0
4, 125160, Note_on_c, 0, 58, 88
4, 125160, Note_on_c, 0, 62, 88
4, 125280, Note_on_c, 0, 62, 0
4, 125280, Note_on_c, 0, 58, 0
4, 125280, Note_on_c, 0, 57, 88
4, 125280, Note_on_c, 0, 61, 88
4, 125400, Note_on_c, 0, 61, 0
4, 125400, Note_on_c, 0, 57, 0
4, 125400, Note_on_c, 0, 58, 88
4, 125400, Note_on_c, 0, 62, 88
4, 125520, Note_on_c, 0, 62, 0
4, 125520, Note_on_c, 0, 58, 0
4, 125520, Note_on_c, 0, 57, 88
4, 125520, Note_on_c, 0, 61, 88
4, 125640, Note_on_c, 0, 61, 0
4, 125640, Note_on_c, 0, 57, 0
4, 125640, Control_c, 0, 64, 0
4, 125640, Note_on_c, 0, 58, 88
4, 125640, Note_on_c, 0, 62, 88
4, 125760, Note_on_c, 0, 62, 0
4, 125760, Note_on_c, 0, 58, 0
4, 126000, Note_on_c, 0, 62, 114
4, 126000, Note_on_c, 0, 67, 114
4, 126000, Note_on_c, 0, 70, 114
4, 126480, Note_on_c, 0, 70, 0
4, 126480, Note_on_c, 0, 67, 0
4, 126480, Note_on_c, 0, 62, 0
4, 126480, Note_on_c, 0, 58, 88
4, 126480, Note_on_c, 0, 62, 88
4, 126480, Note_on_c, 0, 67, 88
4, 126720, Note_on_c, 0, 67, 0
4, 126720, Note_on_c, 0, 62, 0
4, 126720, Note_on_c, 0, 58, 0
4, 126840, Note_on_c, 0, 60, 88
4, 126840, Note_on_c, 0, 65, 88
4, 126960, Note_on_c, 0, 65, 0
4, 126960, Note_on_c, 0, 60, 0
4, 126960, Note_on_c, 0, 57, 88
4, 127080, Note_on_c, 0, 57, 0
4, 127080, Note_on_c, 0, 60, 88
4, 127080, Note_on_c, 0, 65, 88
4, 127200, Note_on_c, 0, 65, 0
4, 127200, Note_on_c, 0, 60, 0
4, 127320, Note_on_c, 0, 64, 88
4, 127320, Note_on_c, 0, 67, 88
4, 127440, Note_on_c, 0, 67, 0
4, 127440, Note_on_c, 0, 64, 0
4, 127440, Note_on_c, 0, 58, 88
4, 127560, Note_on_c, 0, 58, 0
4, 127560, Note_on_c, 0, 64, 88
4, 127560, Note_on_c, 0, 67, 88
4, 127680, Note_on_c, 0, 67, 0
4, 127680, Note_on_c, 0, 64, 0
4, 127800, Note_on_c, 0, 57, 88
4, 127800, Note_on_c, 0, 60, 88
4, 127920, Note_on_c, 0, 53, 88
4, 128400, Note_on_c, 0, 53, 0
4, 128400, Note_on_c, 0, 60, 0
4, 128400, Note_on_c, 0, 57, 0
4, 128400, Note_on_c, 0, 53, 88
4, 128400, Note_on_c, 0, 57, 88
4, 128400, Note_on_c, 0, 60, 88
4, 128423, Note_on_c, 0, 60, 0
4, 128423, Note_on_c, 0, 57, 0
4, 128423, Note_on_c, 0, 53, 0
4, 128640, Control_c, 0, 64, 127
4, 128640, Note_on_c, 0, 58, 88
4, 128640, Note_on_c, 0, 62, 88
4, 128880, Note_on_c, 0, 62, 0
4, 128880, Note_on_c, 0, 58, 0
4, 128880, Note_on_c, 0, 57, 88
4, 128880, Note_on_c, 0, 61, 88
4, 129000, Note_on_c, 0, 61, 0
4, 129000, Note_on_c, 0, 57, 0
4, 129000, Note_on_c, 0, 58, 88
4, 129000, Note_on_c, 0, 62, 88
4, 129120, Note_on_c, 0, 62, 0
4, 129120, Note_on_c, 0, 58, 0
4, 129120, Note_on_c, 0, 57, 88
4, 129120, Note_on_c, 0, 61, 88
4, 129240, Note_on_c, 0, 61, 0
4, 129240, Note_on_c, 0, 57, 0
4, 129240, Note_on_c, 0, 58, 88
4, 129240, Note_on_c, 0, 62, 88
4, 129360, Note_on_c, 0, 62, 0
4, 129360, Note_on_c, 0, 58, 0
4, 129360, Note_on_c, 0, 57, 88
4, 129360, Note_on_c, 0, 61, 88
4, 129480, Note_on_c, 0, 61, 0
4, 129480, Note_on_c, 0, 57, 0
4, 129480, Control_c, 0, 64, 0
4, 129480, Note_on_c, 0, 58, 88
4, 129480, Note_on_c, 0, 62, 88
4, 129600, Note_on_c, 0, 62, 0
4, 129600, Note_on_c, 0, 58, 0
4, 129840, Note_on_c, 0, 62, 114
4, 129840, Note_on_c, 0, 67, 114
4, 129840, Note_on_c, 0, 70, 114
4, 130320, Note_on_c, 0, 70, 0
4, 130320, Note_on_c, 0, 67, 0
4, 130320, Note_on_c, 0, 62, 0
4, 130320, Note_on_c, 0, 58, 88
4, 130320, Note_on_c, 0, 62, 88
4, 130320, Note_on_c, 0, 67, 88
4, 130560, Note_on_c, 0, 67, 0
4, 130560, Note_on_c, 0, 62, 0
4, 130560, Note_on_c, 0, 58, 0
4, 130680, Note_on_c, 0, 65, 88
4, 130680, Note_on_c, 0, 69, 88
4, 130800, Note_on_c, 0, 69, 0
4, 130800, Note_on_c, 0, 65, 0
4, 130800, Note_on_c, 0, 57, 88
4, 130920, Note_on_c, 0, 57, 0
4, 130920, Note_on_c, 0, 65, 88
4, 130920, Note_on_c, 0, 69, 88
4, 131040, Note_on_c, 0, 69, 0
4, 131040, Note_on_c, 0, 65, 0
4, 131160, Note_on_c, 0, 64, 88
4, 131160, Note_on_c, 0, 67, 88
4, 131280, Note_on_c, 0, 67, 0
4, 131280, Note_on_c, 0, 64, 0
4, 131280, Note_on_c, 0, 58, 88
4, 131400, Note_on_c, 0, 58, 0
4, 131400, Note_on_c, 0, 64, 88
4, 131400, Note_on_c, 0, 67, 88
4, 131520, Note_on_c, 0, 67, 0
4, 131520, Note_on_c, 0, 64, 0
4, 131640, Note_on_c, 0, 57, 88
4, 131640, Note_on_c, 0, 60, 88
4, 131760, Note_on_c, 0, 53, 88
4, 132240, Note_on_c, 0, 53, 0
4, 132240, Note_on_c, 0, 60, 0
4, 132240, Note_on_c, 0, 57, 0
4, 132240, Note_on_c, 0, 53, 88
4, 132240, Note_on_c, 0, 57, 88
4, 132240, Note_on_c, 0, 60, 88
4, 132263, Note_on_c, 0, 60, 0
4, 132263, Note_on_c, 0, 57, 0
4, 132263, Note_on_c, 0, 53, 0
4, 132480, Control_c, 0, 64, 127
4, 132480, Note_on_c, 0, 58, 75
4, 132600, Note_on_c, 0, 58, 0
4, 132600, Note_on_c, 0, 55, 49
4, 132720, Note_on_c, 0, 55, 0
4, 132720, Note_on_c, 0, 50, 49
4, 132840, Note_on_c, 0, 50, 0
4, 132840, Note_on_c, 0, 46, 49
4, 132960, Note_on_c, 0, 46, 0
4, 132960, Note_on_c, 0, 43, 49
4, 133080, Note_on_c, 0, 43, 0
4, 133080, Note_on_c, 0, 41, 49
4, 133200, Note_on_c, 0, 41, 0
4, 133200, Control_c, 0, 64, 0
4, 133200, Note_on_c, 0, 40, 49
4, 133200, Note_on_c, 0, 50, 49
4, 133200, Note_on_c, 0, 55, 49
4, 133223, Note_on_c, 0, 55, 0
4, 133223, Note_on_c, 0, 50, 0
4, 133223, Note_on_c, 0, 40, 0
4, 133560, Note_on_c, 0, 55, 49
4, 133680, Note_on_c, 0, 55, 0
4, 133680, Note_on_c, 0, 52, 49
4, 133800, Note_on_c, 0, 52, 0
4, 133800, Note_on_c, 0, 53, 49
4, 133920, Note_on_c, 0, 53, 0
4, 134040, Note_on_c, 0, 57, 49
4, 134160, Note_on_c, 0, 57, 0
4, 134160, Note_on_c, 0, 54, 49
4, 134280, Note_on_c, 0, 54, 0
4, 134280, Note_on_c, 0, 55, 49
4, 134400, Note_on_c, 0, 55, 0
4, 134520, Note_on_c, 0, 58, 49
4, 134640, Note_on_c, 0, 58, 0
4, 134640, Note_on_c, 0, 56, 49
4, 134760, Note_on_c, 0, 56, 0
4, 134760, Note_on_c, 0, 57, 49
4, 134880, Note_on_c, 0, 57, 0
4, 135000, Note_on_c, 0, 46, 49
4, 135120, Note_on_c, 0, 46, 0
4, 135120, Note_on_c, 0, 44, 49
4, 135240, Note_on_c, 0, 44, 0
4, 135240, Note_on_c, 0, 45, 49
4, 135360, Note_on_c, 0, 45, 0
4, 135600, Note_on_c, 0, 50, 49
4, 135623, Note_on_c, 0, 50, 0
4, 136080, Note_on_c, 0, 48, 49
4, 136103, Note_on_c, 0, 48, 0
4, 136560, Note_on_c, 0, 46, 49
4, 136583, Note_on_c, 0, 46, 0
4, 137040, Note_on_c, 0, 40, 49
4, 137063, Note_on_c, 0, 40, 0
4, 137520, Note_on_c, 0, 41, 49
4, 137543, Note_on_c, 0, 41, 0
4, 138000, Note_on_c, 0, 43, 49
4, 138023, Note_on_c, 0, 43, 0
4, 138720, Note_on_c, 0, 45, 49
4, 138743, Note_on_c, 0, 45, 0
4, 139680, Note_on_c, 0, 38, 49
4, 139703, Note_on_c, 0, 38, 0
4, 140160, Note_on_c, 0, 53, 127
4, 140160, Note_on_c, 0, 57, 127
4, 140160, Note_on_c, 0, 62, 127
4, 140160, Note_on_c, 0, 65, 127
4, 140207, Note_on_c, 0, 65, 0
4, 140207, Note_on_c, 0, 53, 0
4, 140207, Note_on_c, 0, 57, 0
4, 140207, Note_on_c, 0, 62, 0
4, 140207, End_track
5, 0, Start_track
5, 0, Title_t, "Instrument19"
5, 0, Program_c, 0, 0
5, 0, Control_c, 0, 7, 110
5, 0, Control_c, 0, 10, 30
5, 0, Note_on_c, 0, 38, 88
5, 720, Note_on_c, 0, 38, 0
5, 720, Note_on_c, 0, 40, 62
5, 743, Note_on_c, 0, 40, 0
5, 960, Note_on_c, 0, 41, 62
5, 983, Note_on_c, 0, 41, 0
5, 1440, Note_on_c, 0, 38, 62
5, 1463, Note_on_c, 0, 38, 0
5, 1840, Note_on_c, 0, 50, 62
5, 1880, Note_on_c, 0, 53, 62
5, 1920, Note_on_c, 0, 58, 62
5, 1943, Note_on_c, 0, 58, 0
5, 1943, Note_on_c, 0, 53, 0
5, 1943, Note_on_c, 0, 50, 0
5, 2400, Note_on_c, 0, 52, 62
5, 2400, Note_on_c, 0, 55, 62
5, 2423, Note_on_c, 0, 55, 0
5, 2423, Note_on_c, 0, 52, 0
5, 2880, Note_on_c, 0, 53, 62
5, 3360, Note_on_c, 0, 53, 0
5, 5760, Note_on_c, 0, 46, 88
5, 5760, Note_on_c, 0, 50, 88
5, 6480, Note_on_c, 0, 50, 0
5, 6480, Note_on_c, 0, 46, 0
5, 6480, Note_on_c, 0, 40, 62
5, 6503, Note_on_c, 0, 40, 0
5, 6720, Note_on_c, 0, 41, 62
5, 6720, Note_on_c, 0, 50, 62
5, 6743, Note_on_c, 0, 50, 0
5, 6743, Note_on_c, 0, 41, 0
5, 7200, Note_on_c, 0, 43, 62
5, 7200, Note_on_c, 0, 46, 62
5, 7223, Note_on_c, 0, 46, 0
5, 7223, Note_on_c, 0, 43, 0
5, 7680, Note_on_c, 0, 45, 62
5, 7703, Note_on_c, 0, 45, 0
5, 8160, Note_on_c, 0, 33, 62
5, 8183, Note_on_c, 0, 33, 0
5, 8640, Note_on_c, 0, 38, 62
5, 9120, Note_on_c, 0, 38, 0
5, 9600, Note_on_c, 0, 46, 88
5, 9600, Note_on_c, 0, 50, 88
5, 10320, Note_on_c, 0, 50, 0
5, 10320, Note_on_c, 0, 46, 0
5, 10320, Note_on_c, 0, 40, 62
5, 10343, Note_on_c, 0, 40, 0
5, 10560, Note_on_c, 0, 41, 62
5, 10583, Note_on_c, 0, 41, 0
5, 11040, Note_on_c, 0, 43, 62
5, 11063, Note_on_c, 0, 43, 0
5, 11520, Note_on_c, 0, 45, 62
5, 11543, Note_on_c, 0, 45, 0
5, 12000, Note_on_c, 0, 33, 62
5, 12023, Note_on_c, 0, 33, 0
5, 12480, Note_on_c, 0, 38, 62
5, 12960, Note_on_c, 0, 38, 0
5, 13440, Note_on_c, 0, 26, 49
5, 13680, Note_on_c, 0, 26, 0
5, 13920, Note_on_c, 0, 40, 49
5, 14160, Note_on_c, 0, 40, 0
5, 14400, Note_on_c, 0, 41, 49
5, 14640, Note_on_c, 0, 41, 0
5, 14880, Note_on_c, 0, 38, 49
5, 15120, Note_on_c, 0, 38, 0
5, 15360, Note_on_c, 0, 34, 49
5, 15360, Note_on_c, 0, 46, 49
5, 15600, Note_on_c, 0, 46, 0
5, 15600, Note_on_c, 0, 34, 0
5, 15840, Note_on_c, 0, 36, 49
5, 15840, Note_on_c, 0, 48, 49
5, 16080, Note_on_c, 0, 48, 0
5, 16080, Note_on_c, 0, 36, 0
5, 16320, Note_on_c, 0, 41, 49
5, 16320, Note_on_c, 0, 48, 49
5, 16343, Note_on_c, 0, 48, 0
5, 16343, Note_on_c, 0, 41, 0
5, 17280, Note_on_c, 0, 46, 49
5, 17280, Note_on_c, 0, 53, 49
5, 17303, Note_on_c, 0, 53, 0
5, 17303, Note_on_c, 0, 46, 0
5, 17760, Note_on_c, 0, 36, 49
5, 17760, Note_on_c, 0, 48, 49
5, 17783, Note_on_c, 0, 48, 0
5, 17783, Note_on_c, 0, 36, 0
5, 18240, Note_on_c, 0, 41, 49
5, 18240, Note_on_c, 0, 48, 49
5, 18263, Note_on_c, 0, 48, 0
5, 18263, Note_on_c, 0, 41, 0
5, 19200, Note_on_c, 0, 34, 49
5, 19200, Note_on_c, 0, 46, 49
5, 19223, Note_on_c, 0, 46, 0
5, 19223, Note_on_c, 0, 34, 0
5, 19920, Note_on_c, 0, 28, 49
5, 19920, Note_on_c, 0, 40, 49
5, 19943, Note_on_c, 0, 40, 0
5, 19943, Note_on_c, 0, 28, 0
5, 20160, Note_on_c, 0, 29, 49
5, 20160, Note_on_c, 0, 41, 49
5, 20183, Note_on_c, 0, 41, 0
5, 20183, Note_on_c, 0, 29, 0
5, 20640, Note_on_c, 0, 31, 49
5, 20640, Note_on_c, 0, 43, 49
5, 20663, Note_on_c, 0, 43, 0
5, 20663, Note_on_c, 0, 31, 0
5, 21120, Note_on_c, 0, 33, 49
5, 21120, Note_on_c, 0, 45, 49
5, 21143, Note_on_c, 0, 45, 0
5, 21143, Note_on_c, 0, 33, 0
5, 21600, Note_on_c, 0, 45, 49
5, 21623, Note_on_c, 0, 45, 0
5, 22080, Note_on_c, 0, 38, 49
5, 22103, Note_on_c, 0, 38, 0
5, 23040, Note_on_c, 0, 46, 49
5, 23040, Note_on_c, 0, 50, 49
5, 23760, Note_on_c, 0, 50, 0
5, 23760, Note_on_c, 0, 46, 0
5, 23760, Note_on_c, 0, 40, 49
5, 23783, Note_on_c, 0, 40, 0
5, 24000, Note_on_c, 0, 41, 49
5, 24023, Note_on_c, 0, 41, 0
5, 24480, Note_on_c, 0, 43, 49
5, 24503, Note_on_c, 0, 43, 0
5, 24960, Note_on_c, 0, 45, 49
5, 24983, Note_on_c, 0, 45, 0
5, 25440, Note_on_c, 0, 33, 49
5, 25463, Note_on_c, 0, 33, 0
5, 25920, Note_on_c, 0, 38, 49
5, 25943, Note_on_c, 0, 38, 0
5, 26880, Note_on_c, 0, 34, 88
5, 26880, Note_on_c, 0, 46, 88
5, 26880, Note_on_c, 0, 50, 88
5, 27600, Note_on_c, 0, 50, 0
5, 27600, Note_on_c, 0, 46, 0
5, 27600, Note_on_c, 0, 34, 0
5, 27600, Note_on_c, 0, 34, 88
5, 27600, Note_on_c, 0, 46, 88
5, 27840, Note_on_c, 0, 46, 0
5, 27840, Note_on_c, 0, 34, 0
5, 27840, Note_on_c, 0, 46, 88
5, 27840, Note_on_c, 0, 53, 88
5, 27840, Note_on_c, 0, 62, 88
5, 28560, Note_on_c, 0, 62, 0
5, 28560, Note_on_c, 0, 53, 0
5, 28560, Note_on_c, 0, 46, 0
5, 28560, Note_on_c, 0, 46, 88
5, 28560, Note_on_c, 0, 53, 88
5, 28800, Note_on_c, 0, 53, 0
5, 28800, Note_on_c, 0, 46, 0
5, 28800, Note_on_c, 0, 48, 88
5, 28800, Note_on_c, 0, 53, 88
5, 28823, Note_on_c, 0, 53, 0
5, 28823, Note_on_c, 0, 48, 0
5, 29280, Note_on_c, 0, 36, 88
5, 29280, Note_on_c, 0, 48, 88
5, 29303, Note_on_c, 0, 48, 0
5, 29303, Note_on_c, 0, 36, 0
5, 29760, Note_on_c, 0, 41, 88
5, 29760, Note_on_c, 0, 48, 88
5, 30480, Note_on_c, 0, 48, 0
5, 30480, Note_on_c, 0, 41, 0
5, 30480, Note_on_c, 0, 41, 88
5, 30480, Note_on_c, 0, 48, 88
5, 30503, Note_on_c, 0, 48, 0
5, 30503, Note_on_c, 0, 41, 0
5, 30720, Note_on_c, 0, 34, 88
5, 30720, Note_on_c, 0, 46, 88
5, 30720, Note_on_c, 0, 50, 88
5, 31440, Note_on_c, 0, 50, 0
5, 31440, Note_on_c, 0, 46, 0
5, 31440, Note_on_c, 0, 34, 0
5, 31440, Note_on_c, 0, 34, 88
5, 31440, Note_on_c, 0, 46, 88
5, 31680, Note_on_c, 0, 46, 0
5, 31680, Note_on_c, 0, 34, 0
5, 31680, Note_on_c, 0, 46, 88
5, 31680, Note_on_c, 0, 53, 88
5, 31680, Note_on_c, 0, 62, 88
5, 32400, Note_on_c, 0, 62, 0
5, 32400, Note_on_c, 0, 53, 0
5, 32400, Note_on_c, 0, 46, 0
5, 32400, Note_on_c, 0, 46, 88
5, 32400, Note_on_c, 0, 53, 88
5, 32640, Note_on_c, 0, 53, 0
5, 32640, Note_on_c, 0, 46, 0
5, 32640, Note_on_c, 0, 48, 88
5, 32640, Note_on_c, 0, 53, 88
5, 32663, Note_on_c, 0, 53, 0
5, 32663, Note_on_c, 0, 48, 0
5, 33120, Note_on_c, 0, 36, 88
5, 33120, Note_on_c, 0, 48, 88
5, 33143, Note_on_c, 0, 48, 0
5, 33143, Note_on_c, 0, 36, 0
5, 33600, Note_on_c, 0, 41, 88
5, 33600, Note_on_c, 0, 48, 88
5, 34320, Note_on_c, 0, 48, 0
5, 34320, Note_on_c, 0, 41, 0
5, 34320, Note_on_c, 0, 41, 88
5, 34320, Note_on_c, 0, 48, 88
5, 34343, Note_on_c, 0, 48, 0
5, 34343, Note_on_c, 0, 41, 0
5, 35520, Note_on_c, 0, 41, 49
5, 35543, Note_on_c, 0, 41, 0
5, 36000, Note_on_c, 0, 43, 49
5, 36023, Note_on_c, 0, 43, 0
5, 36480, Note_on_c, 0, 45, 49
5, 36503, Note_on_c, 0, 45, 0
5, 36960, Note_on_c, 0, 36, 49
5, 36983, Note_on_c, 0, 36, 0
5, 37440, Note_on_c, 0, 38, 49
5, 37920, Note_on_c, 0, 38, 0
5, 38400, Note_on_c, 0, 46, 49
5, 38400, Note_on_c, 0, 50, 49
5, 39120, Note_on_c, 0, 50, 0
5, 39120, Note_on_c, 0, 46, 0
5, 39120, Note_on_c, 0, 40, 49
5, 39143, Note_on_c, 0, 40, 0
5, 39360, Note_on_c, 0, 41, 49
5, 39383, Note_on_c, 0, 41, 0
5, 39840, Note_on_c, 0, 43, 49
5, 39863, Note_on_c, 0, 43, 0
5, 40320, Note_on_c, 0, 45, 49
5, 40343, Note_on_c, 0, 45, 0
5, 40800, Note_on_c, 0, 33, 49
5, 40823, Note_on_c, 0, 33, 0
5, 41280, Note_on_c, 0, 38, 49
5, 41760, Note_on_c, 0, 38, 0
5, 42240, Note_on_c, 0, 34, 88
5, 42240, Note_on_c, 0, 46, 88
5, 42480, Note_on_c, 0, 46, 0
5, 42480, Note_on_c, 0, 34, 0
5, 42480, Note_on_c, 0, 46, 114
5, 42480, Note_on_c, 0, 53, 114
5, 42960, Note_on_c, 0, 53, 0
5, 42960, Note_on_c, 0, 46, 0
5, 42960, Note_on_c, 0, 46, 88
5, 42960, Note_on_c, 0, 53, 88
5, 43200, Note_on_c, 0, 53, 0
5, 43200, Note_on_c, 0, 46, 0
5, 43200, Note_on_c, 0, 31, 88
5, 43200, Note_on_c, 0, 43, 88
5, 44160, Note_on_c, 0, 43, 0
5, 44160, Note_on_c, 0, 31, 0
5, 44160, Note_on_c, 0, 33, 88
5, 44160, Note_on_c, 0, 45, 88
5, 44183, Note_on_c, 0, 45, 0
5, 44183, Note_on_c, 0, 33, 0
5, 44640, Note_on_c, 0, 36, 88
5, 44640, Note_on_c, 0, 48, 88
5, 44663, Note_on_c, 0, 48, 0
5, 44663, Note_on_c, 0, 36, 0
5, 45120, Note_on_c, 0, 41, 88
5, 45120, Note_on_c, 0, 48, 88
5, 45840, Note_on_c, 0, 48, 0
5, 45840, Note_on_c, 0, 41, 0
5, 45840, Note_on_c, 0, 41, 88
5, 45840, Note_on_c, 0, 48, 88
5, 45863, Note_on_c, 0, 48, 0
5, 45863, Note_on_c, 0, 41, 0
5, 46080, Note_on_c, 0, 34, 88
5, 46080, Note_on_c, 0, 46, 88
5, 46103, Note_on_c, 0, 46, 0
5, 46103, Note_on_c, 0, 34, 0
5, 46320, Note_on_c, 0, 46, 114
5, 46320, Note_on_c, 0, 53, 114
5, 46800, Note_on_c, 0, 53, 0
5, 46800, Note_on_c, 0, 46, 0
5, 46800, Note_on_c, 0, 46, 88
5, 46800, Note_on_c, 0, 53, 88
5, 46823, Note_on_c, 0, 53, 0
5, 46823, Note_on_c, 0, 46, 0
5, 47040, Note_on_c, 0, 28, 88
5, 47040, Note_on_c, 0, 40, 88
5, 48000, Note_on_c, 0, 40, 0
5, 48000, Note_on_c, 0, 28, 0
5, 48000, Note_on_c, 0, 29, 88
5, 48000, Note_on_c, 0, 41, 88
5, 48023, Note_on_c, 0, 41, 0
5, 48023, Note_on_c, 0, 29, 0
5, 48480, Note_on_c, 0, 36, 88
5, 48480, Note_on_c, 0, 48, 88
5, 48503, Note_on_c, 0, 48, 0
5, 48503, Note_on_c, 0, 36, 0
5, 48960, Note_on_c, 0, 41, 88
5, 48960, Note_on_c, 0, 48, 88
5, 49680, Note_on_c, 0, 48, 0
5, 49680, Note_on_c, 0, 41, 0
5, 49680, Note_on_c, 0, 41, 88
5, 49680, Note_on_c, 0, 48, 88
5, 49703, Note_on_c, 0, 48, 0
5, 49703, Note_on_c, 0, 41, 0
5, 50880, Note_on_c, 0, 41, 49
5, 50903, Note_on_c, 0, 41, 0
5, 51360, Note_on_c, 0, 43, 49
5, 51383, Note_on_c, 0, 43, 0
5, 51840, Note_on_c, 0, 45, 49
5, 51863, Note_on_c, 0, 45, 0
5, 52320, Note_on_c, 0, 36, 49
5, 52343, Note_on_c, 0, 36, 0
5, 52800, Note_on_c, 0, 38, 49
5, 52823, Note_on_c, 0, 38, 0
5, 53280, Note_on_c, 0, 36, 49
5, 53303, Note_on_c, 0, 36, 0
5, 53760, Note_on_c, 0, 34, 49
5, 53783, Note_on_c, 0, 34, 0
5, 54240, Note_on_c, 0, 28, 49
5, 54263, Note_on_c, 0, 28, 0
5, 54720, Note_on_c, 0, 29, 49
5, 54743, Note_on_c, 0, 29, 0
5, 55200, Note_on_c, 0, 31, 49
5, 55223, Note_on_c, 0, 31, 0
5, 55680, Note_on_c, 0, 33, 49
5, 55703, Note_on_c, 0, 33, 0
5, 57120, Note_on_c, 0, 26, 49
5, 57143, Note_on_c, 0, 26, 0
5, 57600, Control_c, 0, 64, 127
5, 57600, Note_on_c, 0, 38, 49
5, 57840, Note_on_c, 0, 38, 0
5, 57840, Note_on_c, 0, 45, 49
5, 58320, Note_on_c, 0, 45, 0
5, 58320, Control_c, 0, 64, 0
5, 58320, Note_on_c, 0, 45, 49
5, 58560, Note_on_c, 0, 45, 0
5, 58560, Control_c, 0, 64, 127
5, 58560, Note_on_c, 0, 38, 49
5, 58800, Note_on_c, 0, 38, 0
5, 58800, Note_on_c, 0, 45, 49
5, 59280, Note_on_c, 0, 45, 0
5, 59280, Control_c, 0, 64, 0
5, 59280, Note_on_c, 0, 45, 49
5, 59520, Note_on_c, 0, 45, 0
5, 59520, Note_on_c, 0, 33, 49
5, 59760, Note_on_c, 0, 33, 0
5, 59760, Note_on_c, 0, 45, 49
5, 60240, Note_on_c, 0, 45, 0
5, 60240, Note_on_c, 0, 45, 49
5, 60480, Note_on_c, 0, 45, 0
5, 60480, Control_c, 0, 64, 127
5, 60480, Note_on_c, 0, 38, 49
5, 60720, Note_on_c, 0, 38, 0
5, 60720, Note_on_c, 0, 45, 49
5, 61200, Note_on_c, 0, 45, 0
5, 61200, Control_c, 0, 64, 0
5, 61200, Note_on_c, 0, 45, 49
5, 61440, Note_on_c, 0, 45, 0
5, 61440, Control_c, 0, 64, 127
5, 61440, Note_on_c, 0, 38, 49
5, 61680, Note_on_c, 0, 38, 0
5, 61680, Note_on_c, 0, 45, 49
5, 62160, Note_on_c, 0, 45, 0
5, 62160, Control_c, 0, 64, 0
5, 62160, Note_on_c, 0, 45, 49
5, 62400, Note_on_c, 0, 45, 0
5, 62400, Control_c, 0, 64, 127
5, 62400, Note_on_c, 0, 38, 49
5, 62640, Note_on_c, 0, 38, 0
5, 62640, Note_on_c, 0, 45, 49
5, 63120, Note_on_c, 0, 45, 0
5, 63120, Control_c, 0, 64, 0
5, 63120, Note_on_c, 0, 45, 49
5, 63360, Note_on_c, 0, 45, 0
5, 63360, Note_on_c, 0, 33, 49
5, 63600, Note_on_c, 0, 33, 0
5, 63600, Note_on_c, 0, 45, 49
5, 64080, Note_on_c, 0, 45, 0
5, 64080, Note_on_c, 0, 45, 49
5, 64320, Note_on_c, 0, 45, 0
5, 64320, Control_c, 0, 64, 127
5, 64320, Note_on_c, 0, 38, 49
5, 64560, Note_on_c, 0, 38, 0
5, 64560, Note_on_c, 0, 45, 49
5, 65040, Note_on_c, 0, 45, 0
5, 65280, Control_c, 0, 64, 127
5, 65280, Note_on_c, 0, 38, 49
5, 65520, Note_on_c, 0, 38, 0
5, 65520, Note_on_c, 0, 45, 49
5, 66000, Note_on_c, 0, 45, 0
5, 66000, Control_c, 0, 64, 0
5, 66000, Note_on_c, 0, 45, 49
5, 66240, Note_on_c, 0, 45, 0
5, 66240, Control_c, 0, 64, 127
5, 66240, Note_on_c, 0, 38, 49
5, 66480, Note_on_c, 0, 38, 0
5, 66480, Note_on_c, 0, 45, 49
5, 66960, Note_on_c, 0, 45, 0
5, 66960, Control_c, 0, 64, 0
5, 66960, Note_on_c, 0, 45, 49
5, 67200, Note_on_c, 0, 45, 0
5, 67200, Control_c, 0, 64, 127
5, 67200, Note_on_c, 0, 33, 49
5, 67440, Note_on_c, 0, 33, 0
5, 67440, Note_on_c, 0, 45, 49
5, 67920, Note_on_c, 0, 45, 0
5, 67920, Control_c, 0, 64, 0
5, 67920, Note_on_c, 0, 45, 49
5, 68160, Note_on_c, 0, 45, 0
5, 68160, Control_c, 0, 64, 127
5, 68160, Note_on_c, 0, 38, 49
5, 68400, Note_on_c, 0, 38, 0
5, 68400, Note_on_c, 0, 45, 49
5, 68880, Note_on_c, 0, 45, 0
5, 68880, Control_c, 0, 64, 0
5, 68880, Note_on_c, 0, 45, 49
5, 69120, Note_on_c, 0, 45, 0
5, 69120, Control_c, 0, 64, 127
5, 69120, Note_on_c, 0, 38, 49
5, 69360, Note_on_c, 0, 38, 0
5, 69360, Note_on_c, 0, 45, 49
5, 69840, Note_on_c, 0, 45, 0
5, 69840, Control_c, 0, 64, 0
5, 69840, Note_on_c, 0, 45, 49
5, 70080, Note_on_c, 0, 45, 0
5, 70080, Control_c, 0, 64, 127
5, 70080, Note_on_c, 0, 38, 49
5, 70320, Note_on_c, 0, 38, 0
5, 70320, Note_on_c, 0, 45, 49
5, 70800, Note_on_c, 0, 45, 0
5, 70800, Control_c, 0, 64, 0
5, 70800, Note_on_c, 0, 45, 49
5, 71040, Note_on_c, 0, 45, 0
5, 71040, Control_c, 0, 64, 127
5, 71040, Note_on_c, 0, 33, 49
5, 71280, Note_on_c, 0, 33, 0
5, 71280, Note_on_c, 0, 45, 49
5, 71760, Note_on_c, 0, 45, 0
5, 71760, Control_c, 0, 64, 0
5, 71760, Note_on_c, 0, 45, 49
5, 72000, Note_on_c, 0, 45, 0
5, 72000, Note_on_c, 0, 38, 49
5, 72240, Note_on_c, 0, 38, 0
5, 72240, Note_on_c, 0, 45, 49
5, 72720, Note_on_c, 0, 45, 0
5, 72960, Note_on_c, 0, 29, 88
5, 73080, Note_on_c, 0, 29, 0
5, 73080, Note_on_c, 0, 41, 88
5, 73200, Note_on_c, 0, 41, 0
5, 73440, Note_on_c, 0, 41, 88
5, 73440, Note_on_c, 0, 53, 88
5, 73463, Note_on_c, 0, 53, 0
5, 73463, Note_on_c, 0, 41, 0
5, 73920, Note_on_c, 0, 36, 88
5, 74040, Note_on_c, 0, 36, 0
5, 74040, Note_on_c, 0, 48, 88
5, 74160, Note_on_c, 0, 48, 0
5, 74400, Note_on_c, 0, 33, 88
5, 74400, Note_on_c, 0, 45, 88
5, 74423, Note_on_c, 0, 45, 0
5, 74423, Note_on_c, 0, 33, 0
5, 74880, Note_on_c, 0, 40, 88
5, 75000, Note_on_c, 0, 40, 0
5, 75000, Note_on_c, 0, 52, 88
5, 75120, Note_on_c, 0, 52, 0
5, 75360, Note_on_c, 0, 36, 88
5, 75360, Note_on_c, 0, 48, 88
5, 75383, Note_on_c, 0, 48, 0
5, 75383, Note_on_c, 0, 36, 0
5, 75840, Note_on_c, 0, 40, 88
5, 75960, Note_on_c, 0, 40, 0
5, 75960, Note_on_c, 0, 52, 88
5, 76080, Note_on_c, 0, 52, 0
5, 76320, Note_on_c, 0, 36, 88
5, 76320, Note_on_c, 0, 48, 88
5, 76343, Note_on_c, 0, 48, 0
5, 76343, Note_on_c, 0, 36, 0
5, 76800, Note_on_c, 0, 37, 88
5, 76920, Note_on_c, 0, 37, 0
5, 76920, Note_on_c, 0, 49, 88
5, 77040, Note_on_c, 0, 49, 0
5, 77280, Note_on_c, 0, 38, 88
5, 77280, Note_on_c, 0, 50, 88
5, 77303, Note_on_c, 0, 50, 0
5, 77303, Note_on_c, 0, 38, 0
5, 77760, Note_on_c, 0, 29, 88
5, 77880, Note_on_c, 0, 29, 0
5, 77880, Note_on_c, 0, 41, 88
5, 78000, Note_on_c, 0, 41, 0
5, 78240, Note_on_c, 0, 31, 88
5, 78240, Note_on_c, 0, 43, 88
5, 78263, Note_on_c, 0, 43, 0
5, 78263, Note_on_c, 0, 31, 0
5, 78720, Note_on_c, 0, 33, 88
5, 78840, Note_on_c, 0, 33, 0
5, 78840, Note_on_c, 0, 45, 88
5, 78960, Note_on_c, 0, 45, 0
5, 79200, Note_on_c, 0, 45, 88
5, 79320, Note_on_c, 0, 45, 0
5, 79320, Note_on_c, 0, 57, 88
5, 79440, Note_on_c, 0, 57, 0
5, 79680, Note_on_c, 0, 38, 88
5, 79800, Note_on_c, 0, 38, 0
5, 79800, Note_on_c, 0, 50, 88
5, 79920, Note_on_c, 0, 50, 0
5, 80160, Note_on_c, 0, 26, 88
5, 80160, Note_on_c, 0, 38, 88
5, 80183, Note_on_c, 0, 38, 0
5, 80183, Note_on_c, 0, 26, 0
5, 80640, Note_on_c, 0, 29, 88
5, 80760, Note_on_c, 0, 29, 0
5, 80760, Note_on_c, 0, 41, 88
5, 80880, Note_on_c, 0, 41, 0
5, 81120, Note_on_c, 0, 41, 88
5, 81120, Note_on_c, 0, 53, 88
5, 81143, Note_on_c, 0, 53, 0
5, 81143, Note_on_c, 0, 41, 0
5, 81600, Note_on_c, 0, 36, 88
5, 81720, Note_on_c, 0, 36, 0
5, 81720, Note_on_c, 0, 48, 88
5, 81840, Note_on_c, 0, 48, 0
5, 82080, Note_on_c, 0, 33, 88
5, 82080, Note_on_c, 0, 45, 88
5, 82103, Note_on_c, 0, 45, 0
5, 82103, Note_on_c, 0, 33, 0
5, 82560, Note_on_c, 0, 40, 88
5, 82680, Note_on_c, 0, 40, 0
5, 82680, Note_on_c, 0, 52, 88
5, 82800, Note_on_c, 0, 52, 0
5, 83040, Note_on_c, 0, 36, 88
5, 83040, Note_on_c, 0, 48, 88
5, 83063, Note_on_c, 0, 48, 0
5, 83063, Note_on_c, 0, 36, 0
5, 83520, Note_on_c, 0, 40, 88
5, 83640, Note_on_c, 0, 40, 0
5, 83640, Note_on_c, 0, 52, 88
5, 83760, Note_on_c, 0, 52, 0
5, 84000, Note_on_c, 0, 36, 88
5, 84000, Note_on_c, 0, 48, 88
5, 84023, Note_on_c, 0, 48, 0
5, 84023, Note_on_c, 0, 36, 0
5, 84480, Note_on_c, 0, 37, 88
5, 84600, Note_on_c, 0, 37, 0
5, 84600, Note_on_c, 0, 49, 88
5, 84720, Note_on_c, 0, 49, 0
5, 84960, Note_on_c, 0, 38, 88
5, 84960, Note_on_c, 0, 50, 88
5, 84983, Note_on_c, 0, 50, 0
5, 84983, Note_on_c, 0, 38, 0
5, 85440, Note_on_c, 0, 29, 88
5, 85560, Note_on_c, 0, 29, 0
5, 85560, Note_on_c, 0, 41, 88
5, 85680, Note_on_c, 0, 41, 0
5, 85920, Note_on_c, 0, 31, 88
5, 85920, Note_on_c, 0, 43, 88
5, 85943, Note_on_c, 0, 43, 0
5, 85943, Note_on_c, 0, 31, 0
5, 86400, Note_on_c, 0, 33, 88
5, 86520, Note_on_c, 0, 33, 0
5, 86520, Note_on_c, 0, 45, 88
5, 86640, Note_on_c, 0, 45, 0
5, 86880, Note_on_c, 0, 45, 88
5, 87000, Note_on_c, 0, 45, 0
5, 87000, Note_on_c, 0, 57, 88
5, 87120, Note_on_c, 0, 57, 0
5, 87360, Note_on_c, 0, 38, 88
5, 87480, Note_on_c, 0, 38, 0
5, 87480, Note_on_c, 0, 50, 88
5, 87600, Note_on_c, 0, 50, 0
5, 87840, Note_on_c, 0, 26, 88
5, 87840, Note_on_c, 0, 38, 88
5, 87863, Note_on_c, 0, 38, 0
5, 87863, Note_on_c, 0, 26, 0
5, 88320, Control_c, 0, 64, 127
5, 88320, Note_on_c, 0, 38, 49
5, 88560, Note_on_c, 0, 38, 0
5, 88560, Note_on_c, 0, 45, 49
5, 89040, Note_on_c, 0, 45, 0
5, 89040, Control_c, 0, 64, 0
5, 89040, Note_on_c, 0, 45, 49
5, 89280, Note_on_c, 0, 45, 0
5, 89280, Control_c, 0, 64, 127
5, 89280, Note_on_c, 0, 38, 49
5, 89520, Note_on_c, 0, 38, 0
5, 89520, Note_on_c, 0, 45, 49
5, 90000, Note_on_c, 0, 45, 0
5, 90000, Control_c, 0, 64, 0
5, 90000, Note_on_c, 0, 45, 49
5, 90240, Note_on_c, 0, 45, 0
5, 90240, Note_on_c, 0, 33, 49
5, 90480, Note_on_c, 0, 33, 0
5, 90480, Note_on_c, 0, 45, 49
5, 90960, Note_on_c, 0, 45, 0
5, 90960, Note_on_c, 0, 45, 49
5, 91200, Note_on_c, 0, 45, 0
5, 91200, Control_c, 0, 64, 127
5, 91200, Note_on_c, 0, 38, 49
5, 91440, Note_on_c, 0, 38, 0
5, 91440, Note_on_c, 0, 45, 49
5, 91920, Note_on_c, 0, 45, 0
5, 91920, Control_c, 0, 64, 0
5, 91920, Note_on_c, 0, 45, 49
5, 92160, Note_on_c, 0, 45, 0
5, 92160, Control_c, 0, 64, 127
5, 92160, Note_on_c, 0, 38, 49
5, 92400, Note_on_c, 0, 38, 0
5, 92400, Note_on_c, 0, 45, 49
5, 92880, Note_on_c, 0, 45, 0
5, 92880, Control_c, 0, 64, 0
5, 92880, Note_on_c, 0, 45, 49
5, 93120, Note_on_c, 0, 45, 0
5, 93120, Control_c, 0, 64, 127
5, 93120, Note_on_c, 0, 38, 49
5, 93360, Note_on_c, 0, 38, 0
5, 93360, Note_on_c, 0, 45, 49
5, 93840, Note_on_c, 0, 45, 0
5, 93840, Control_c, 0, 64, 0
5, 93840, Note_on_c, 0, 45, 49
5, 94080, Note_on_c, 0, 45, 0
5, 94080, Note_on_c, 0, 33, 49
5, 94320, Note_on_c, 0, 33, 0
5, 94320, Note_on_c, 0, 45, 49
5, 94800, Note_on_c, 0, 45, 0
5, 94800, Note_on_c, 0, 45, 49
5, 95040, Note_on_c, 0, 45, 0
5, 95040, Control_c, 0, 64, 127
5, 95040, Note_on_c, 0, 38, 49
5, 95280, Note_on_c, 0, 38, 0
5, 95280, Note_on_c, 0, 45, 49
5, 95520, Note_on_c, 0, 45, 0
5, 95520, Control_c, 0, 64, 0
5, 96000, Note_on_c, 0, 38, 49
5, 96023, Note_on_c, 0, 38, 0
5, 96480, Note_on_c, 0, 37, 49
5, 96503, Note_on_c, 0, 37, 0
5, 96960, Note_on_c, 0, 38, 49
5, 96983, Note_on_c, 0, 38, 0
5, 97440, Note_on_c, 0, 29, 49
5, 97440, Note_on_c, 0, 41, 49
5, 97463, Note_on_c, 0, 41, 0
5, 97463, Note_on_c, 0, 29, 0
5, 97920, Note_on_c, 0, 34, 49
5, 97920, Note_on_c, 0, 46, 49
5, 97943, Note_on_c, 0, 46, 0
5, 97943, Note_on_c, 0, 34, 0
5, 98400, Note_on_c, 0, 36, 49
5, 98400, Note_on_c, 0, 48, 49
5, 98423, Note_on_c, 0, 48, 0
5, 98423, Note_on_c, 0, 36, 0
5, 98880, Note_on_c, 0, 41, 49
5, 98903, Note_on_c, 0, 41, 0
5, 99840, Note_on_c, 0, 46, 49
5, 99863, Note_on_c, 0, 46, 0
5, 100080, Note_on_c, 0, 46, 49
5, 100103, Note_on_c, 0, 46, 0
5, 100320, Note_on_c, 0, 48, 49
5, 100343, Note_on_c, 0, 48, 0
5, 100560, Note_on_c, 0, 48, 49
5, 100583, Note_on_c, 0, 48, 0
5, 100800, Note_on_c, 0, 53, 49
5, 100823, Note_on_c, 0, 53, 0
5, 102720, Note_on_c, 0, 41, 49
5, 102743, Note_on_c, 0, 41, 0
5, 102960, Note_on_c, 0, 29, 49
5, 102983, Note_on_c, 0, 29, 0
5, 103200, Note_on_c, 0, 43, 49
5, 103223, Note_on_c, 0, 43, 0
5, 103440, Note_on_c, 0, 31, 49
5, 103463, Note_on_c, 0, 31, 0
5, 103680, Note_on_c, 0, 45, 49
5, 103703, Note_on_c, 0, 45, 0
5, 103920, Note_on_c, 0, 33, 49
5, 103943, Note_on_c, 0, 33, 0
5, 104160, Note_on_c, 0, 33, 49
5, 104183, Note_on_c, 0, 33, 0
5, 104640, Note_on_c, 0, 38, 49
5, 105120, Note_on_c, 0, 38, 0
5, 106080, Note_on_c, 0, 43, 49
5, 106103, Note_on_c, 0, 43, 0
5, 106320, Note_on_c, 0, 40, 49
5, 106343, Note_on_c, 0, 40, 0
5, 106560, Note_on_c, 0, 41, 49
5, 106583, Note_on_c, 0, 41, 0
5, 107040, Note_on_c, 0, 43, 49
5, 107063, Note_on_c, 0, 43, 0
5, 107520, Note_on_c, 0, 45, 49
5, 107543, Note_on_c, 0, 45, 0
5, 108000, Note_on_c, 0, 33, 49
5, 108023, Note_on_c, 0, 33, 0
5, 108480, Note_on_c, 0, 38, 49
5, 108960, Note_on_c, 0, 38, 0
5, 109440, Note_on_c, 0, 34, 88
5, 109440, Note_on_c, 0, 46, 88
5, 109440, Note_on_c, 0, 50, 88
5, 110160, Note_on_c, 0, 50, 0
5, 110160, Note_on_c, 0, 46, 0
5, 110160, Note_on_c, 0, 34, 0
5, 110160, Note_on_c, 0, 34, 88
5, 110160, Note_on_c, 0, 46, 88
5, 110400, Note_on_c, 0, 46, 0
5, 110400, Note_on_c, 0, 34, 0
5, 110400, Note_on_c, 0, 46, 88
5, 110400, Note_on_c, 0, 53, 88
5, 110400, Note_on_c, 0, 62, 88
5, 111120, Note_on_c, 0, 62, 0
5, 111120, Note_on_c, 0, 53, 0
5, 111120, Note_on_c, 0, 46, 0
5, 111120, Note_on_c, 0, 46, 88
5, 111120, Note_on_c, 0, 53, 88
5, 111360, Note_on_c, 0, 53, 0
5, 111360, Note_on_c, 0, 46, 0
5, 111360, Note_on_c, 0, 48, 88
5, 111360, Note_on_c, 0, 53, 88
5, 111383, Note_on_c, 0, 53, 0
5, 111383, Note_on_c, 0, 48, 0
5, 111840, Note_on_c, 0, 36, 88
5, 111840, Note_on_c, 0, 48, 88
5, 111863, Note_on_c, 0, 48, 0
5, 111863, Note_on_c, 0, 36, 0
5, 112320, Note_on_c, 0, 41, 88
5, 112320, Note_on_c, 0, 48, 88
5, 113040, Note_on_c, 0, 48, 0
5, 113040, Note_on_c, 0, 41, 0
5, 113040, Note_on_c, 0, 41, 88
5, 113040, Note_on_c, 0, 48, 88
5, 113063, Note_on_c, 0, 48, 0
5, 113063, Note_on_c, 0, 41, 0
5, 113280, Note_on_c, 0, 34, 88
5, 113280, Note_on_c, 0, 46, 88
5, 113280, Note_on_c, 0, 50, 88
5, 114000, Note_on_c, 0, 50, 0
5, 114000, Note_on_c, 0, 46, 0
5, 114000, Note_on_c, 0, 34, 0
5, 114000, Note_on_c, 0, 34, 88
5, 114000, Note_on_c, 0, 46, 88
5, 114240, Note_on_c, 0, 46, 0
5, 114240, Note_on_c, 0, 34, 0
5, 114240, Note_on_c, 0, 46, 88
5, 114240, Note_on_c, 0, 53, 88
5, 114240, Note_on_c, 0, 62, 88
5, 114960, Note_on_c, 0, 62, 0
5, 114960, Note_on_c, 0, 53, 0
5, 114960, Note_on_c, 0, 46, 0
5, 114960, Note_on_c, 0, 46, 88
5, 114960, Note_on_c, 0, 53, 88
5, 115200, Note_on_c, 0, 53, 0
5, 115200, Note_on_c, 0, 46, 0
5, 115200, Note_on_c, 0, 48, 88
5, 115200, Note_on_c, 0, 53, 88
5, 115223, Note_on_c, 0, 53, 0
5, 115223, Note_on_c, 0, 48, 0
5, 115680, Note_on_c, 0, 36, 88
5, 115680, Note_on_c, 0, 48, 88
5, 115703, Note_on_c, 0, 48, 0
5, 115703, Note_on_c, 0, 36, 0
5, 116160, Note_on_c, 0, 41, 88
5, 116160, Note_on_c, 0, 48, 88
5, 116880, Note_on_c, 0, 48, 0
5, 116880, Note_on_c, 0, 41, 0
5, 116880, Note_on_c, 0, 41, 88
5, 116880, Note_on_c, 0, 48, 88
5, 116903, Note_on_c, 0, 48, 0
5, 116903, Note_on_c, 0, 41, 0
5, 118080, Note_on_c, 0, 41, 49
5, 118103, Note_on_c, 0, 41, 0
5, 118560, Note_on_c, 0, 43, 49
5, 118583, Note_on_c, 0, 43, 0
5, 119040, Note_on_c, 0, 45, 49
5, 119063, Note_on_c, 0, 45, 0
5, 119520, Note_on_c, 0, 36, 49
5, 119543, Note_on_c, 0, 36, 0
5, 120000, Note_on_c, 0, 38, 49
5, 120480, Note_on_c, 0, 38, 0
5, 120960, Note_on_c, 0, 46, 49
5, 120960, Note_on_c, 0, 50, 49
5, 121680, Note_on_c, 0, 50, 0
5, 121680, Note_on_c, 0, 46, 0
5, 121680, Note_on_c, 0, 40, 49
5, 121703, Note_on_c, 0, 40, 0
5, 121920, Note_on_c, 0, 41, 49
5, 121943, Note_on_c, 0, 41, 0
5, 122400, Note_on_c, 0, 43, 49
5, 122423, Note_on_c, 0, 43, 0
5, 122880, Note_on_c, 0, 45, 49
5, 122903, Note_on_c, 0, 45, 0
5, 123360, Note_on_c, 0, 33, 49
5, 123383, Note_on_c, 0, 33, 0
5, 123840, Note_on_c, 0, 38, 49
5, 124320, Note_on_c, 0, 38, 0
5, 124800, Note_on_c, 0, 34, 88
5, 124800, Note_on_c, 0, 46, 88
5, 125040, Note_on_c, 0, 46, 0
5, 125040, Note_on_c, 0, 34, 0
5, 125040, Note_on_c, 0, 46, 114
5, 125040, Note_on_c, 0, 53, 114
5, 125520, Note_on_c, 0, 53, 0
5, 125520, Note_on_c, 0, 46, 0
5, 125520, Note_on_c, 0, 46, 88
5, 125520, Note_on_c, 0, 53, 88
5, 125760, Note_on_c, 0, 53, 0
5, 125760, Note_on_c, 0, 46, 0
5, 125760, Note_on_c, 0, 31, 88
5, 125760, Note_on_c, 0, 43, 88
5, 126720, Note_on_c, 0, 43, 0
5, 126720, Note_on_c, 0, 31, 0
5, 126720, Note_on_c, 0, 33, 88
5, 126720, Note_on_c, 0, 45, 88
5, 126743, Note_on_c, 0, 45, 0
5, 126743, Note_on_c, 0, 33, 0
5, 127200, Note_on_c, 0, 36, 88
5, 127200, Note_on_c, 0, 48, 88
5, 127223, Note_on_c, 0, 48, 0
5, 127223, Note_on_c, 0, 36, 0
5, 127680, Note_on_c, 0, 41, 88
5, 127680, Note_on_c, 0, 48, 88
5, 128400, Note_on_c, 0, 48, 0
5, 128400, Note_on_c, 0, 41, 0
5, 128400, Note_on_c, 0, 41, 88
5, 128400, Note_on_c, 0, 48, 88
5, 128423, Note_on_c, 0, 48, 0
5, 128423, Note_on_c, 0, 41, 0
5, 128640, Note_on_c, 0, 34, 88
5, 128640, Note_on_c, 0, 46, 88
5, 128663, Note_on_c, 0, 46, 0
5, 128663, Note_on_c, 0, 34, 0
5, 128880, Note_on_c, 0, 46, 114
5, 128880, Note_on_c, 0, 53, 114
5, 129360, Note_on_c, 0, 53, 0
5, 129360, Note_on_c, 0, 46, 0
5, 129360, Note_on_c, 0, 46, 88
5, 129360, Note_on_c, 0, 53, 88
5, 129383, Note_on_c, 0, 53, 0
5, 129383, Note_on_c, 0, 46, 0
5, 129600, Note_on_c, 0, 28, 88
5, 129600, Note_on_c, 0, 40, 88
5, 130560, Note_on_c, 0, 40, 0
5, 130560, Note_on_c, 0, 28, 0
5, 130560, Note_on_c, 0, 29, 88
5, 130560, Note_on_c, 0, 41, 88
5, 130583, Note_on_c, 0, 41, 0
5, 130583, Note_on_c, 0, 29, 0
5, 131040, Note_on_c, 0, 36, 88
5, 131040, Note_on_c, 0, 48, 88
5, 131063, Note_on_c, 0, 48, 0
5, 131063, Note_on_c, 0, 36, 0
5, 131520, Note_on_c, 0, 41, 88
5, 131520, Note_on_c, 0, 48, 88
5, 132240, Note_on_c, 0, 48, 0
5, 132240, Note_on_c, 0, 41, 0
5, 132240, Note_on_c, 0, 41, 88
5, 132240, Note_on_c, 0, 48, 88
5, 132263, Note_on_c, 0, 48, 0
5, 132263, Note_on_c, 0, 41, 0
5, 133440, Note_on_c, 0, 41, 49
5, 133463, Note_on_c, 0, 41, 0
5, 133920, Note_on_c, 0, 43, 49
5, 133943, Note_on_c, 0, 43, 0
5, 134400, Note_on_c, 0, 45, 49
5, 134423, Note_on_c, 0, 45, 0
5, 134880, Note_on_c, 0, 36, 49
5, 134903, Note_on_c, 0, 36, 0
5, 135360, Note_on_c, 0, 38, 49
5, 135383, Note_on_c, 0, 38, 0
5, 135840, Note_on_c, 0, 36, 49
5, 135863, Note_on_c, 0, 36, 0
5, 136320, Note_on_c, 0, 34, 49
5, 136343, Note_on_c, 0, 34, 0
5, 136800, Note_on_c, 0, 28, 49
5, 136823, Note_on_c, 0, 28, 0
5, 137280, Note_on_c, 0, 29, 49
5, 137303, Note_on_c, 0, 29, 0
5, 137760, Note_on_c, 0, 31, 49
5, 137783, Note_on_c, 0, 31, 0
5, 138240, Note_on_c, 0, 33, 49
5, 138263, Note_on_c, 0, 33, 0
5, 139680, Note_on_c, 0, 26, 49
5, 139703, Note_on_c, 0, 26, 0
5, 140160, Note_on_c, 0, 38, 127
5, 140160, Note_on_c, 0, 45, 127
5, 140160, Note_on_c, 0, 50, 127
5, 140207, Note_on_c, 0, 50, 0
5, 140207, Note_on_c, 0, 45, 0
5, 140207, Note_on_c, 0, 38, 0
5, 140207, End_track
0, 0, End_of_file
