0, 0, Header, 1, 5, 480
1, 0, Start_track
1, 0, Title_t, "brahms hungarian dance no18 in d major, 4hands"
1, 0, Copyright_t, "Segundo G. Yogore,  dody@info.com.ph \012__________________________________________________________\012Kunst der Fuge comment: this is the Contributor's property.\012Can *not* be used for commercial purposes without authorization!\012Copyright by Contributor - Kunst der Fuge, © 2002-05\012http://www.kunstderfuge.com/thanks.htm -> Contributors' list\012http://www.kunstderfuge.com/notes.htm -> Terms & conditions"
1, 0, Text_t, "sequenced by Segundo G. Yogore,  2004\012"
1, 0, Time_signature, 2, 2, 24, 8
1, 0, Key_signature, 2, "major"
1, 0, Tempo, 428571
1, 7680, Tempo, 428571
1, 57840, Tempo, 454545
1, 58080, Tempo, 483871
1, 58320, Tempo, 517241
1, 58560, Tempo, 555556
1, 58800, Tempo, 600000
1, 59040, Tempo, 652174
1, 59280, Tempo, 714286
1, 59520, Tempo, 454545
1, 60480, Tempo, 428571
1, 83520, Time_signature, 6, 2, 24, 8
1, 83520, End_track
2, 0, Start_track
2, 0, Title_t, "Grand Piano"
2, 0, Program_c, 0, 0
2, 0, Control_c, 0, 7, 110
2, 0, Control_c, 0, 10, 97
2, 0, Note_on_c, 0, 74, 75
2, 0, Note_on_c, 0, 86, 75
2, 23, Note_on_c, 0, 86, 0
2, 23, Note_on_c, 0, 74, 0
2, 240, Note_on_c, 0, 74, 75
2, 240, Note_on_c, 0, 86, 75
2, 360, Note_on_c, 0, 86, 0
2, 360, Note_on_c, 0, 74, 0
2, 360, Note_on_c, 0, 81, 75
2, 480, Note_on_c, 0, 81, 0
2, 480, Note_on_c, 0, 74, 75
2, 480, Note_on_c, 0, 86, 75
2, 503, Note_on_c, 0, 86, 0
2, 503, Note_on_c, 0, 74, 0
2, 720, Control_c, 0, 64, 127
2, 720, Note_on_c, 0, 74, 75
2, 720, Note_on_c, 0, 86, 75
2, 840, Note_on_c, 0, 86, 0
2, 840, Note_on_c, 0, 74, 0
2, 840, Note_on_c, 0, 79, 75
2, 960, Note_on_c, 0, 79, 0
2, 960, Note_on_c, 0, 86, 75
2, 1080, Note_on_c, 0, 86, 0
2, 1080, Note_on_c, 0, 81, 75
2, 1200, Note_on_c, 0, 81, 0
2, 1200, Note_on_c, 0, 86, 75
2, 1320, Note_on_c, 0, 86, 0
2, 1320, Note_on_c, 0, 90, 75
2, 1440, Note_on_c, 0, 90, 0
2, 1440, Control_c, 0, 64, 0
2, 1440, Note_on_c, 0, 86, 75
2, 1463, Note_on_c, 0, 86, 0
2, 1680, Note_on_c, 0, 74, 75
2, 1680, Note_on_c, 0, 86, 75
2, 1800, Note_on_c, 0, 86, 0
2, 1800, Note_on_c, 0, 74, 0
2, 1800, Note_on_c, 0, 81, 75
2, 1920, Note_on_c, 0, 81, 0
2, 1920, Note_on_c, 0, 74, 75
2, 1920, Note_on_c, 0, 86, 75
2, 1943, Note_on_c, 0, 86, 0
2, 1943, Note_on_c, 0, 74, 0
2, 2160, Note_on_c, 0, 74, 75
2, 2160, Note_on_c, 0, 86, 75
2, 2280, Note_on_c, 0, 86, 0
2, 2280, Note_on_c, 0, 74, 0
2, 2280, Note_on_c, 0, 81, 75
2, 2400, Note_on_c, 0, 81, 0
2, 2400, Note_on_c, 0, 74, 75
2, 2400, Note_on_c, 0, 86, 75
2, 2423, Note_on_c, 0, 86, 0
2, 2423, Note_on_c, 0, 74, 0
2, 2640, Control_c, 0, 64, 127
2, 2640, Note_on_c, 0, 74, 75
2, 2640, Note_on_c, 0, 86, 75
2, 2760, Note_on_c, 0, 86, 0
2, 2760, Note_on_c, 0, 74, 0
2, 2760, Note_on_c, 0, 79, 75
2, 2880, Note_on_c, 0, 79, 0
2, 2880, Note_on_c, 0, 86, 75
2, 3000, Note_on_c, 0, 86, 0
2, 3000, Note_on_c, 0, 81, 75
2, 3120, Note_on_c, 0, 81, 0
2, 3120, Note_on_c, 0, 86, 75
2, 3240, Note_on_c, 0, 86, 0
2, 3240, Control_c, 0, 64, 0
2, 3240, Note_on_c, 0, 90, 75
2, 3360, Note_on_c, 0, 90, 0
2, 3360, Control_c, 0, 64, 127
2, 3360, Note_on_c, 0, 86, 75
2, 3480, Note_on_c, 0, 86, 0
2, 3480, Note_on_c, 0, 81, 75
2, 3600, Note_on_c, 0, 81, 0
2, 3600, Note_on_c, 0, 86, 75
2, 3720, Note_on_c, 0, 86, 0
2, 3720, Control_c, 0, 64, 0
2, 3720, Note_on_c, 0, 90, 75
2, 3840, Note_on_c, 0, 90, 0
2, 3840, Note_on_c, 0, 93, 75
2, 3960, Note_on_c, 0, 93, 0
2, 3960, Note_on_c, 0, 81, 75
2, 4080, Note_on_c, 0, 81, 0
2, 4080, Note_on_c, 0, 93, 75
2, 4200, Note_on_c, 0, 93, 0
2, 4200, Note_on_c, 0, 81, 75
2, 4320, Note_on_c, 0, 81, 0
2, 4320, Note_on_c, 0, 90, 75
2, 4440, Note_on_c, 0, 90, 0
2, 4440, Note_on_c, 0, 81, 75
2, 4560, Note_on_c, 0, 81, 0
2, 4560, Note_on_c, 0, 86, 75
2, 4680, Note_on_c, 0, 86, 0
2, 4680, Note_on_c, 0, 81, 75
2, 4800, Note_on_c, 0, 81, 0
2, 4800, Note_on_c, 0, 93, 75
2, 4920, Note_on_c, 0, 93, 0
2, 4920, Note_on_c, 0, 81, 75
2, 5040, Note_on_c, 0, 81, 0
2, 5040, Note_on_c, 0, 93, 75
2, 5160, Note_on_c, 0, 93, 0
2, 5160, Note_on_c, 0, 81, 75
2, 5280, Note_on_c, 0, 81, 0
2, 5280, Note_on_c, 0, 90, 75
2, 5400, Note_on_c, 0, 90, 0
2, 5400, Note_on_c, 0, 81, 75
2, 5520, Note_on_c, 0, 81, 0
2, 5520, Note_on_c, 0, 86, 75
2, 5640, Note_on_c, 0, 86, 0
2, 5640, Note_on_c, 0, 81, 75
2, 5760, Note_on_c, 0, 81, 0
2, 5760, Note_on_c, 0, 98, 75
2, 5880, Note_on_c, 0, 98, 0
2, 5880, Note_on_c, 0, 86, 75
2, 6000, Note_on_c, 0, 86, 0
2, 6000, Note_on_c, 0, 98, 75
2, 6120, Note_on_c, 0, 98, 0
2, 6120, Note_on_c, 0, 86, 75
2, 6240, Note_on_c, 0, 86, 0
2, 6240, Note_on_c, 0, 93, 75
2, 6360, Note_on_c, 0, 93, 0
2, 6360, Note_on_c, 0, 81, 75
2, 6480, Note_on_c, 0, 81, 0
2, 6480, Note_on_c, 0, 90, 75
2, 6600, Note_on_c, 0, 90, 0
2, 6600, Note_on_c, 0, 81, 75
2, 6720, Note_on_c, 0, 81, 0
2, 6720, Note_on_c, 0, 98, 75
2, 6840, Note_on_c, 0, 98, 0
2, 6840, Note_on_c, 0, 86, 75
2, 6960, Note_on_c, 0, 86, 0
2, 6960, Note_on_c, 0, 98, 75
2, 7080, Note_on_c, 0, 98, 0
2, 7080, Note_on_c, 0, 86, 75
2, 7200, Note_on_c, 0, 86, 0
2, 7200, Note_on_c, 0, 93, 75
2, 7320, Note_on_c, 0, 93, 0
2, 7320, Note_on_c, 0, 81, 75
2, 7440, Note_on_c, 0, 81, 0
2, 7440, Note_on_c, 0, 90, 75
2, 7560, Note_on_c, 0, 90, 0
2, 7560, Note_on_c, 0, 78, 75
2, 7680, Note_on_c, 0, 78, 0
2, 7680, Note_on_c, 0, 74, 75
2, 7680, Note_on_c, 0, 86, 75
2, 7703, Note_on_c, 0, 86, 0
2, 7703, Note_on_c, 0, 74, 0
2, 7920, Note_on_c, 0, 74, 75
2, 7920, Note_on_c, 0, 86, 75
2, 8040, Note_on_c, 0, 86, 0
2, 8040, Note_on_c, 0, 74, 0
2, 8040, Note_on_c, 0, 81, 75
2, 8160, Note_on_c, 0, 81, 0
2, 8160, Note_on_c, 0, 74, 75
2, 8160, Note_on_c, 0, 86, 75
2, 8183, Note_on_c, 0, 86, 0
2, 8183, Note_on_c, 0, 74, 0
2, 8400, Control_c, 0, 64, 127
2, 8400, Note_on_c, 0, 74, 75
2, 8400, Note_on_c, 0, 86, 75
2, 8520, Note_on_c, 0, 86, 0
2, 8520, Note_on_c, 0, 74, 0
2, 8520, Note_on_c, 0, 79, 75
2, 8640, Note_on_c, 0, 79, 0
2, 8640, Note_on_c, 0, 86, 75
2, 8760, Note_on_c, 0, 86, 0
2, 8760, Note_on_c, 0, 81, 75
2, 8880, Note_on_c, 0, 81, 0
2, 8880, Note_on_c, 0, 86, 75
2, 9000, Note_on_c, 0, 86, 0
2, 9000, Note_on_c, 0, 90, 75
2, 9120, Note_on_c, 0, 90, 0
2, 9120, Control_c, 0, 64, 0
2, 9120, Note_on_c, 0, 86, 75
2, 9143, Note_on_c, 0, 86, 0
2, 9360, Note_on_c, 0, 74, 75
2, 9360, Note_on_c, 0, 86, 75
2, 9480, Note_on_c, 0, 86, 0
2, 9480, Note_on_c, 0, 74, 0
2, 9480, Note_on_c, 0, 81, 75
2, 9600, Note_on_c, 0, 81, 0
2, 9600, Note_on_c, 0, 74, 75
2, 9600, Note_on_c, 0, 86, 75
2, 9623, Note_on_c, 0, 86, 0
2, 9623, Note_on_c, 0, 74, 0
2, 9840, Note_on_c, 0, 74, 75
2, 9840, Note_on_c, 0, 86, 75
2, 9960, Note_on_c, 0, 86, 0
2, 9960, Note_on_c, 0, 74, 0
2, 9960, Note_on_c, 0, 81, 75
2, 10080, Note_on_c, 0, 81, 0
2, 10080, Note_on_c, 0, 74, 75
2, 10080, Note_on_c, 0, 86, 75
2, 10103, Note_on_c, 0, 86, 0
2, 10103, Note_on_c, 0, 74, 0
2, 10320, Control_c, 0, 64, 127
2, 10320, Note_on_c, 0, 74, 75
2, 10320, Note_on_c, 0, 86, 75
2, 10440, Note_on_c, 0, 86, 0
2, 10440, Note_on_c, 0, 74, 0
2, 10440, Note_on_c, 0, 79, 75
2, 10560, Note_on_c, 0, 79, 0
2, 10560, Note_on_c, 0, 86, 75
2, 10680, Note_on_c, 0, 86, 0
2, 10680, Note_on_c, 0, 81, 75
2, 10800, Note_on_c, 0, 81, 0
2, 10800, Note_on_c, 0, 86, 75
2, 10920, Note_on_c, 0, 86, 0
2, 10920, Control_c, 0, 64, 0
2, 10920, Note_on_c, 0, 90, 75
2, 11040, Note_on_c, 0, 90, 0
2, 11040, Control_c, 0, 64, 127
2, 11040, Note_on_c, 0, 86, 75
2, 11160, Note_on_c, 0, 86, 0
2, 11160, Note_on_c, 0, 81, 75
2, 11280, Note_on_c, 0, 81, 0
2, 11280, Note_on_c, 0, 86, 75
2, 11400, Note_on_c, 0, 86, 0
2, 11400, Control_c, 0, 64, 0
2, 11400, Note_on_c, 0, 90, 75
2, 11520, Note_on_c, 0, 90, 0
2, 11520, Note_on_c, 0, 93, 75
2, 11640, Note_on_c, 0, 93, 0
2, 11640, Note_on_c, 0, 81, 75
2, 11760, Note_on_c, 0, 81, 0
2, 11760, Note_on_c, 0, 93, 75
2, 11880, Note_on_c, 0, 93, 0
2, 11880, Note_on_c, 0, 81, 75
2, 12000, Note_on_c, 0, 81, 0
2, 12000, Note_on_c, 0, 90, 75
2, 12120, Note_on_c, 0, 90, 0
2, 12120, Note_on_c, 0, 81, 75
2, 12240, Note_on_c, 0, 81, 0
2, 12240, Note_on_c, 0, 86, 75
2, 12360, Note_on_c, 0, 86, 0
2, 12360, Note_on_c, 0, 81, 75
2, 12480, Note_on_c, 0, 81, 0
2, 12480, Note_on_c, 0, 93, 75
2, 12600, Note_on_c, 0, 93, 0
2, 12600, Note_on_c, 0, 81, 75
2, 12720, Note_on_c, 0, 81, 0
2, 12720, Note_on_c, 0, 93, 75
2, 12840, Note_on_c, 0, 93, 0
2, 12840, Note_on_c, 0, 81, 75
2, 12960, Note_on_c, 0, 81, 0
2, 12960, Note_on_c, 0, 90, 75
2, 13080, Note_on_c, 0, 90, 0
2, 13080, Note_on_c, 0, 81, 75
2, 13200, Note_on_c, 0, 81, 0
2, 13200, Note_on_c, 0, 86, 75
2, 13320, Note_on_c, 0, 86, 0
2, 13320, Note_on_c, 0, 81, 75
2, 13440, Note_on_c, 0, 81, 0
2, 13440, Note_on_c, 0, 98, 75
2, 13560, Note_on_c, 0, 98, 0
2, 13560, Note_on_c, 0, 86, 75
2, 13680, Note_on_c, 0, 86, 0
2, 13680, Note_on_c, 0, 98, 75
2, 13800, Note_on_c, 0, 98, 0
2, 13800, Note_on_c, 0, 86, 75
2, 13920, Note_on_c, 0, 86, 0
2, 13920, Note_on_c, 0, 93, 75
2, 14040, Note_on_c, 0, 93, 0
2, 14040, Note_on_c, 0, 81, 75
2, 14160, Note_on_c, 0, 81, 0
2, 14160, Note_on_c, 0, 90, 75
2, 14280, Note_on_c, 0, 90, 0
2, 14280, Note_on_c, 0, 81, 75
2, 14400, Note_on_c, 0, 81, 0
2, 14400, Note_on_c, 0, 98, 75
2, 14520, Note_on_c, 0, 98, 0
2, 14520, Note_on_c, 0, 86, 75
2, 14640, Note_on_c, 0, 86, 0
2, 14640, Note_on_c, 0, 98, 75
2, 14760, Note_on_c, 0, 98, 0
2, 14760, Note_on_c, 0, 86, 75
2, 14880, Note_on_c, 0, 86, 0
2, 14880, Note_on_c, 0, 93, 75
2, 15000, Note_on_c, 0, 93, 0
2, 15000, Note_on_c, 0, 81, 75
2, 15120, Note_on_c, 0, 81, 0
2, 15120, Note_on_c, 0, 90, 75
2, 15240, Note_on_c, 0, 90, 0
2, 15240, Note_on_c, 0, 78, 75
2, 15360, Note_on_c, 0, 78, 0
2, 15360, Note_on_c, 0, 74, 75
2, 15360, Note_on_c, 0, 86, 75
2, 15383, Note_on_c, 0, 86, 0
2, 15383, Note_on_c, 0, 74, 0
2, 15600, Note_on_c, 0, 74, 75
2, 15600, Note_on_c, 0, 86, 75
2, 15720, Note_on_c, 0, 86, 0
2, 15720, Note_on_c, 0, 74, 0
2, 15720, Note_on_c, 0, 81, 75
2, 15840, Note_on_c, 0, 81, 0
2, 15840, Note_on_c, 0, 73, 75
2, 15840, Note_on_c, 0, 85, 75
2, 15863, Note_on_c, 0, 85, 0
2, 15863, Note_on_c, 0, 73, 0
2, 16080, Note_on_c, 0, 73, 75
2, 16080, Note_on_c, 0, 85, 75
2, 16200, Note_on_c, 0, 85, 0
2, 16200, Note_on_c, 0, 73, 0
2, 16200, Note_on_c, 0, 78, 75
2, 16320, Note_on_c, 0, 78, 0
2, 16320, Note_on_c, 0, 71, 75
2, 16320, Note_on_c, 0, 83, 75
2, 16343, Note_on_c, 0, 83, 0
2, 16343, Note_on_c, 0, 71, 0
2, 16560, Note_on_c, 0, 71, 75
2, 16560, Note_on_c, 0, 83, 75
2, 16680, Note_on_c, 0, 83, 0
2, 16680, Note_on_c, 0, 71, 0
2, 16680, Note_on_c, 0, 79, 75
2, 16800, Note_on_c, 0, 79, 0
2, 16800, Note_on_c, 0, 79, 75
2, 16800, Note_on_c, 0, 91, 75
2, 16823, Note_on_c, 0, 91, 0
2, 16823, Note_on_c, 0, 79, 0
2, 17040, Note_on_c, 0, 79, 75
2, 17040, Note_on_c, 0, 91, 75
2, 17160, Note_on_c, 0, 91, 0
2, 17160, Note_on_c, 0, 79, 0
2, 17160, Note_on_c, 0, 83, 75
2, 17280, Note_on_c, 0, 83, 0
2, 17280, Note_on_c, 0, 76, 75
2, 17280, Note_on_c, 0, 88, 75
2, 17303, Note_on_c, 0, 88, 0
2, 17303, Note_on_c, 0, 76, 0
2, 17520, Note_on_c, 0, 76, 75
2, 17520, Note_on_c, 0, 88, 75
2, 17640, Note_on_c, 0, 88, 0
2, 17640, Note_on_c, 0, 76, 0
2, 17640, Note_on_c, 0, 83, 75
2, 17760, Note_on_c, 0, 83, 0
2, 17760, Note_on_c, 0, 74, 75
2, 17760, Note_on_c, 0, 86, 75
2, 17783, Note_on_c, 0, 86, 0
2, 17783, Note_on_c, 0, 74, 0
2, 18000, Note_on_c, 0, 74, 75
2, 18000, Note_on_c, 0, 86, 75
2, 18120, Note_on_c, 0, 86, 0
2, 18120, Note_on_c, 0, 74, 0
2, 18120, Note_on_c, 0, 79, 75
2, 18240, Note_on_c, 0, 79, 0
2, 18240, Note_on_c, 0, 73, 75
2, 18240, Note_on_c, 0, 85, 75
2, 18263, Note_on_c, 0, 85, 0
2, 18263, Note_on_c, 0, 73, 0
2, 18480, Note_on_c, 0, 73, 75
2, 18480, Note_on_c, 0, 85, 75
2, 18600, Note_on_c, 0, 85, 0
2, 18600, Note_on_c, 0, 73, 0
2, 18600, Note_on_c, 0, 81, 75
2, 18720, Note_on_c, 0, 81, 0
2, 18720, Note_on_c, 0, 81, 75
2, 18720, Note_on_c, 0, 93, 75
2, 18743, Note_on_c, 0, 93, 0
2, 18743, Note_on_c, 0, 81, 0
2, 18960, Note_on_c, 0, 93, 75
2, 19080, Note_on_c, 0, 93, 0
2, 19080, Note_on_c, 0, 81, 75
2, 19200, Note_on_c, 0, 81, 0
2, 19200, Note_on_c, 0, 90, 88
2, 19223, Note_on_c, 0, 90, 0
2, 19440, Note_on_c, 0, 90, 88
2, 19560, Note_on_c, 0, 90, 0
2, 19560, Note_on_c, 0, 81, 88
2, 19680, Note_on_c, 0, 81, 0
2, 19680, Note_on_c, 0, 87, 88
2, 19703, Note_on_c, 0, 87, 0
2, 19920, Note_on_c, 0, 87, 88
2, 20040, Note_on_c, 0, 87, 0
2, 20040, Note_on_c, 0, 81, 88
2, 20160, Note_on_c, 0, 81, 0
2, 20160, Note_on_c, 0, 88, 88
2, 20400, Note_on_c, 0, 88, 0
2, 20520, Control_c, 0, 64, 127
2, 20520, Note_on_c, 0, 86, 88
2, 20640, Note_on_c, 0, 86, 0
2, 20640, Note_on_c, 0, 85, 88
2, 20760, Note_on_c, 0, 85, 0
2, 20760, Note_on_c, 0, 83, 88
2, 20880, Note_on_c, 0, 83, 0
2, 20880, Note_on_c, 0, 81, 88
2, 21000, Note_on_c, 0, 81, 0
2, 21000, Control_c, 0, 64, 0
2, 21000, Note_on_c, 0, 88, 88
2, 21120, Note_on_c, 0, 88, 0
2, 21120, Note_on_c, 0, 86, 88
2, 21143, Note_on_c, 0, 86, 0
2, 21360, Note_on_c, 0, 86, 88
2, 21480, Note_on_c, 0, 86, 0
2, 21480, Note_on_c, 0, 81, 88
2, 21600, Note_on_c, 0, 81, 0
2, 21600, Note_on_c, 0, 86, 88
2, 21623, Note_on_c, 0, 86, 0
2, 21840, Note_on_c, 0, 74, 62
2, 21840, Note_on_c, 0, 86, 62
2, 21960, Note_on_c, 0, 86, 0
2, 21960, Note_on_c, 0, 74, 0
2, 21960, Note_on_c, 0, 81, 62
2, 22080, Note_on_c, 0, 81, 0
2, 22080, Note_on_c, 0, 74, 75
2, 22080, Note_on_c, 0, 86, 75
2, 22103, Note_on_c, 0, 86, 0
2, 22103, Note_on_c, 0, 74, 0
2, 22320, Note_on_c, 0, 74, 75
2, 22320, Note_on_c, 0, 86, 75
2, 22440, Note_on_c, 0, 86, 0
2, 22440, Note_on_c, 0, 74, 0
2, 22440, Note_on_c, 0, 81, 75
2, 22560, Note_on_c, 0, 81, 0
2, 22560, Note_on_c, 0, 73, 75
2, 22560, Note_on_c, 0, 85, 75
2, 22583, Note_on_c, 0, 85, 0
2, 22583, Note_on_c, 0, 73, 0
2, 22800, Note_on_c, 0, 73, 75
2, 22800, Note_on_c, 0, 85, 75
2, 22920, Note_on_c, 0, 85, 0
2, 22920, Note_on_c, 0, 73, 0
2, 22920, Note_on_c, 0, 78, 75
2, 23040, Note_on_c, 0, 78, 0
2, 23040, Note_on_c, 0, 71, 75
2, 23040, Note_on_c, 0, 83, 75
2, 23063, Note_on_c, 0, 83, 0
2, 23063, Note_on_c, 0, 71, 0
2, 23280, Note_on_c, 0, 71, 75
2, 23280, Note_on_c, 0, 83, 75
2, 23400, Note_on_c, 0, 83, 0
2, 23400, Note_on_c, 0, 71, 0
2, 23400, Note_on_c, 0, 79, 75
2, 23520, Note_on_c, 0, 79, 0
2, 23520, Note_on_c, 0, 79, 75
2, 23520, Note_on_c, 0, 91, 75
2, 23543, Note_on_c, 0, 91, 0
2, 23543, Note_on_c, 0, 79, 0
2, 23760, Note_on_c, 0, 79, 75
2, 23760, Note_on_c, 0, 91, 75
2, 23880, Note_on_c, 0, 91, 0
2, 23880, Note_on_c, 0, 79, 0
2, 23880, Note_on_c, 0, 83, 75
2, 24000, Note_on_c, 0, 83, 0
2, 24000, Note_on_c, 0, 76, 75
2, 24000, Note_on_c, 0, 88, 75
2, 24023, Note_on_c, 0, 88, 0
2, 24023, Note_on_c, 0, 76, 0
2, 24240, Note_on_c, 0, 76, 75
2, 24240, Note_on_c, 0, 88, 75
2, 24360, Note_on_c, 0, 88, 0
2, 24360, Note_on_c, 0, 76, 0
2, 24360, Note_on_c, 0, 83, 75
2, 24480, Note_on_c, 0, 83, 0
2, 24480, Note_on_c, 0, 74, 75
2, 24480, Note_on_c, 0, 86, 75
2, 24503, Note_on_c, 0, 86, 0
2, 24503, Note_on_c, 0, 74, 0
2, 24720, Note_on_c, 0, 74, 75
2, 24720, Note_on_c, 0, 86, 75
2, 24840, Note_on_c, 0, 86, 0
2, 24840, Note_on_c, 0, 74, 0
2, 24840, Note_on_c, 0, 79, 75
2, 24960, Note_on_c, 0, 79, 0
2, 24960, Note_on_c, 0, 73, 75
2, 24960, Note_on_c, 0, 85, 75
2, 24983, Note_on_c, 0, 85, 0
2, 24983, Note_on_c, 0, 73, 0
2, 25200, Note_on_c, 0, 73, 75
2, 25200, Note_on_c, 0, 85, 75
2, 25320, Note_on_c, 0, 85, 0
2, 25320, Note_on_c, 0, 73, 0
2, 25320, Note_on_c, 0, 81, 75
2, 25440, Note_on_c, 0, 81, 0
2, 25440, Note_on_c, 0, 81, 75
2, 25440, Note_on_c, 0, 93, 75
2, 25463, Note_on_c, 0, 93, 0
2, 25463, Note_on_c, 0, 81, 0
2, 25680, Note_on_c, 0, 93, 75
2, 25800, Note_on_c, 0, 93, 0
2, 25800, Note_on_c, 0, 81, 75
2, 25920, Note_on_c, 0, 81, 0
2, 25920, Note_on_c, 0, 90, 88
2, 25943, Note_on_c, 0, 90, 0
2, 26160, Note_on_c, 0, 90, 88
2, 26280, Note_on_c, 0, 90, 0
2, 26280, Note_on_c, 0, 81, 88
2, 26400, Note_on_c, 0, 81, 0
2, 26400, Note_on_c, 0, 87, 88
2, 26423, Note_on_c, 0, 87, 0
2, 26640, Note_on_c, 0, 87, 88
2, 26760, Note_on_c, 0, 87, 0
2, 26760, Note_on_c, 0, 81, 88
2, 26880, Note_on_c, 0, 81, 0
2, 26880, Note_on_c, 0, 88, 88
2, 27120, Note_on_c, 0, 88, 0
2, 27240, Control_c, 0, 64, 127
2, 27240, Note_on_c, 0, 86, 88
2, 27360, Note_on_c, 0, 86, 0
2, 27360, Note_on_c, 0, 85, 88
2, 27480, Note_on_c, 0, 85, 0
2, 27480, Note_on_c, 0, 83, 88
2, 27600, Note_on_c, 0, 83, 0
2, 27600, Note_on_c, 0, 81, 88
2, 27720, Note_on_c, 0, 81, 0
2, 27720, Control_c, 0, 64, 0
2, 27720, Note_on_c, 0, 88, 88
2, 27840, Note_on_c, 0, 88, 0
2, 27840, Note_on_c, 0, 86, 88
2, 27863, Note_on_c, 0, 86, 0
2, 28080, Note_on_c, 0, 86, 88
2, 28200, Note_on_c, 0, 86, 0
2, 28200, Note_on_c, 0, 81, 88
2, 28320, Note_on_c, 0, 81, 0
2, 28320, Note_on_c, 0, 86, 88
2, 28343, Note_on_c, 0, 86, 0
2, 28800, Note_on_c, 0, 78, 88
2, 28800, Note_on_c, 0, 83, 88
2, 28800, Note_on_c, 0, 86, 88
2, 28800, Note_on_c, 0, 90, 88
2, 29520, Note_on_c, 0, 90, 0
2, 29520, Note_on_c, 0, 78, 0
2, 29520, Note_on_c, 0, 83, 0
2, 29520, Note_on_c, 0, 86, 0
2, 29520, Note_on_c, 0, 83, 88
2, 29760, Note_on_c, 0, 83, 0
2, 29760, Note_on_c, 0, 83, 114
2, 29760, Note_on_c, 0, 85, 114
2, 30240, Note_on_c, 0, 85, 0
2, 30240, Note_on_c, 0, 83, 0
2, 30240, Note_on_c, 0, 82, 114
2, 30240, Note_on_c, 0, 86, 114
2, 30480, Note_on_c, 0, 86, 0
2, 30480, Note_on_c, 0, 82, 0
2, 30480, Note_on_c, 0, 88, 88
2, 30600, Note_on_c, 0, 88, 0
2, 30600, Note_on_c, 0, 90, 88
2, 30720, Note_on_c, 0, 90, 0
2, 30720, Note_on_c, 0, 83, 114
2, 30720, Note_on_c, 0, 88, 114
2, 30960, Note_on_c, 0, 88, 0
2, 30960, Note_on_c, 0, 83, 0
2, 30960, Note_on_c, 0, 86, 88
2, 31080, Note_on_c, 0, 86, 88
2, 31140, Note_on_c, 0, 86, 0
2, 31140, Note_on_c, 0, 88, 88
2, 31200, Note_on_c, 0, 88, 0
2, 31200, Note_on_c, 0, 86, 0
2, 31200, Note_on_c, 0, 86, 127
2, 31440, Note_on_c, 0, 86, 0
2, 31440, Note_on_c, 0, 85, 101
2, 31560, Note_on_c, 0, 85, 101
2, 31620, Note_on_c, 0, 85, 0
2, 31620, Note_on_c, 0, 86, 101
2, 31680, Note_on_c, 0, 86, 0
2, 31680, Note_on_c, 0, 85, 0
2, 31680, Note_on_c, 0, 85, 127
2, 31920, Note_on_c, 0, 85, 0
2, 31920, Note_on_c, 0, 83, 101
2, 32160, Note_on_c, 0, 83, 0
2, 32160, Note_on_c, 0, 83, 127
2, 32400, Note_on_c, 0, 83, 0
2, 32400, Note_on_c, 0, 95, 101
2, 32640, Note_on_c, 0, 95, 0
2, 32640, Note_on_c, 0, 83, 88
2, 32640, Note_on_c, 0, 88, 88
2, 32640, Note_on_c, 0, 91, 88
2, 32640, Note_on_c, 0, 95, 88
2, 33360, Note_on_c, 0, 95, 0
2, 33360, Note_on_c, 0, 83, 0
2, 33360, Note_on_c, 0, 88, 0
2, 33360, Note_on_c, 0, 91, 0
2, 33360, Note_on_c, 0, 88, 88
2, 33600, Note_on_c, 0, 88, 0
2, 33600, Note_on_c, 0, 88, 114
2, 33600, Note_on_c, 0, 90, 114
2, 34080, Note_on_c, 0, 90, 0
2, 34080, Note_on_c, 0, 88, 0
2, 34080, Note_on_c, 0, 87, 114
2, 34080, Note_on_c, 0, 91, 114
2, 34320, Note_on_c, 0, 91, 0
2, 34320, Note_on_c, 0, 87, 0
2, 34320, Note_on_c, 0, 93, 88
2, 34440, Note_on_c, 0, 93, 0
2, 34440, Note_on_c, 0, 95, 88
2, 34560, Note_on_c, 0, 95, 0
2, 34560, Note_on_c, 0, 88, 114
2, 34560, Note_on_c, 0, 93, 114
2, 34800, Note_on_c, 0, 93, 0
2, 34800, Note_on_c, 0, 88, 0
2, 34800, Note_on_c, 0, 91, 88
2, 34920, Note_on_c, 0, 91, 88
2, 34980, Note_on_c, 0, 91, 0
2, 34980, Note_on_c, 0, 93, 88
2, 35040, Note_on_c, 0, 93, 0
2, 35040, Note_on_c, 0, 91, 0
2, 35040, Note_on_c, 0, 91, 114
2, 35280, Note_on_c, 0, 91, 0
2, 35280, Note_on_c, 0, 90, 88
2, 35400, Note_on_c, 0, 90, 88
2, 35460, Note_on_c, 0, 90, 0
2, 35460, Note_on_c, 0, 91, 88
2, 35520, Note_on_c, 0, 91, 0
2, 35520, Note_on_c, 0, 90, 0
2, 35520, Note_on_c, 0, 90, 114
2, 35760, Note_on_c, 0, 90, 0
2, 35760, Note_on_c, 0, 88, 88
2, 36000, Note_on_c, 0, 88, 0
2, 36000, Note_on_c, 0, 88, 114
2, 36240, Note_on_c, 0, 88, 0
2, 36240, Note_on_c, 0, 89, 88
2, 36480, Note_on_c, 0, 89, 0
2, 36480, Note_on_c, 0, 78, 88
2, 36480, Note_on_c, 0, 82, 88
2, 36480, Note_on_c, 0, 85, 88
2, 36480, Note_on_c, 0, 90, 88
2, 37200, Note_on_c, 0, 90, 0
2, 37200, Note_on_c, 0, 78, 0
2, 37200, Note_on_c, 0, 82, 0
2, 37200, Note_on_c, 0, 85, 0
2, 37200, Note_on_c, 0, 85, 88
2, 37440, Note_on_c, 0, 85, 0
2, 37440, Note_on_c, 0, 90, 114
2, 37680, Note_on_c, 0, 90, 0
2, 37680, Note_on_c, 0, 88, 88
2, 37920, Note_on_c, 0, 88, 0
2, 37920, Note_on_c, 0, 88, 114
2, 38160, Note_on_c, 0, 88, 0
2, 38160, Note_on_c, 0, 90, 88
2, 38400, Note_on_c, 0, 90, 0
2, 38400, Note_on_c, 0, 88, 114
2, 38640, Note_on_c, 0, 88, 0
2, 38640, Note_on_c, 0, 86, 88
2, 38760, Note_on_c, 0, 86, 88
2, 38820, Note_on_c, 0, 86, 0
2, 38820, Note_on_c, 0, 88, 88
2, 38880, Note_on_c, 0, 88, 0
2, 38880, Note_on_c, 0, 86, 0
2, 38880, Note_on_c, 0, 86, 114
2, 39120, Note_on_c, 0, 86, 0
2, 39120, Note_on_c, 0, 85, 88
2, 39240, Note_on_c, 0, 85, 88
2, 39300, Note_on_c, 0, 85, 0
2, 39300, Note_on_c, 0, 86, 88
2, 39360, Note_on_c, 0, 86, 0
2, 39360, Note_on_c, 0, 85, 0
2, 39360, Note_on_c, 0, 85, 114
2, 39600, Note_on_c, 0, 85, 0
2, 39600, Note_on_c, 0, 82, 88
2, 39840, Note_on_c, 0, 82, 0
2, 39840, Note_on_c, 0, 85, 114
2, 40080, Note_on_c, 0, 85, 0
2, 40080, Note_on_c, 0, 83, 88
2, 40320, Note_on_c, 0, 83, 0
2, 40320, Note_on_c, 0, 81, 114
2, 41040, Note_on_c, 0, 81, 0
2, 41040, Note_on_c, 0, 83, 88
2, 41280, Note_on_c, 0, 83, 0
2, 41280, Note_on_c, 0, 85, 114
2, 41880, Note_on_c, 0, 85, 0
2, 41880, Note_on_c, 0, 86, 88
2, 42000, Note_on_c, 0, 86, 0
2, 42000, Note_on_c, 0, 86, 114
2, 42120, Note_on_c, 0, 86, 0
2, 42120, Note_on_c, 0, 87, 88
2, 42240, Note_on_c, 0, 87, 0
2, 42240, Note_on_c, 0, 88, 114
2, 42480, Note_on_c, 0, 88, 0
2, 42480, Note_on_c, 0, 93, 88
2, 42600, Note_on_c, 0, 91, 88
2, 42660, Note_on_c, 0, 91, 0
2, 42660, Note_on_c, 0, 93, 88
2, 42720, Note_on_c, 0, 93, 0
2, 42720, Note_on_c, 0, 93, 0
2, 42720, Note_on_c, 0, 91, 114
2, 43080, Note_on_c, 0, 91, 0
2, 43080, Note_on_c, 0, 90, 88
2, 43200, Note_on_c, 0, 90, 0
2, 43200, Note_on_c, 0, 90, 114
2, 43920, Note_on_c, 0, 90, 0
2, 43920, Note_on_c, 0, 78, 88
2, 44160, Note_on_c, 0, 78, 0
2, 44160, Note_on_c, 0, 78, 88
2, 44160, Note_on_c, 0, 82, 88
2, 44160, Note_on_c, 0, 85, 88
2, 44160, Note_on_c, 0, 90, 88
2, 44880, Note_on_c, 0, 90, 0
2, 44880, Note_on_c, 0, 78, 0
2, 44880, Note_on_c, 0, 82, 0
2, 44880, Note_on_c, 0, 85, 0
2, 44880, Note_on_c, 0, 85, 88
2, 45120, Note_on_c, 0, 85, 0
2, 45120, Note_on_c, 0, 90, 114
2, 45360, Note_on_c, 0, 90, 0
2, 45360, Note_on_c, 0, 88, 88
2, 45600, Note_on_c, 0, 88, 0
2, 45600, Note_on_c, 0, 88, 114
2, 45840, Note_on_c, 0, 88, 0
2, 45840, Note_on_c, 0, 90, 88
2, 46080, Note_on_c, 0, 90, 0
2, 46080, Note_on_c, 0, 88, 114
2, 46320, Note_on_c, 0, 88, 0
2, 46320, Note_on_c, 0, 86, 88
2, 46440, Note_on_c, 0, 86, 88
2, 46500, Note_on_c, 0, 86, 0
2, 46500, Note_on_c, 0, 88, 88
2, 46560, Note_on_c, 0, 88, 0
2, 46560, Note_on_c, 0, 86, 0
2, 46560, Note_on_c, 0, 86, 114
2, 46800, Note_on_c, 0, 86, 0
2, 46800, Note_on_c, 0, 85, 88
2, 46920, Note_on_c, 0, 85, 88
2, 46980, Note_on_c, 0, 85, 0
2, 46980, Note_on_c, 0, 86, 88
2, 47040, Note_on_c, 0, 86, 0
2, 47040, Note_on_c, 0, 85, 0
2, 47040, Note_on_c, 0, 85, 114
2, 47280, Note_on_c, 0, 85, 0
2, 47280, Note_on_c, 0, 82, 88
2, 47520, Note_on_c, 0, 82, 0
2, 47520, Note_on_c, 0, 83, 114
2, 47760, Note_on_c, 0, 83, 0
2, 47760, Note_on_c, 0, 77, 88
2, 48000, Note_on_c, 0, 77, 0
2, 48000, Note_on_c, 0, 78, 88
2, 48600, Note_on_c, 0, 78, 0
2, 48600, Note_on_c, 0, 88, 88
2, 48600, Note_on_c, 0, 91, 88
2, 48720, Note_on_c, 0, 91, 0
2, 48720, Note_on_c, 0, 88, 0
2, 48720, Note_on_c, 0, 88, 114
2, 48720, Note_on_c, 0, 91, 114
2, 48840, Note_on_c, 0, 91, 0
2, 48840, Note_on_c, 0, 88, 0
2, 48840, Note_on_c, 0, 86, 88
2, 48840, Note_on_c, 0, 90, 88
2, 48960, Note_on_c, 0, 90, 0
2, 48960, Note_on_c, 0, 86, 0
2, 48960, Note_on_c, 0, 86, 114
2, 48960, Note_on_c, 0, 90, 114
2, 49080, Note_on_c, 0, 90, 0
2, 49080, Note_on_c, 0, 86, 0
2, 49080, Note_on_c, 0, 85, 88
2, 49080, Note_on_c, 0, 88, 88
2, 49200, Note_on_c, 0, 88, 0
2, 49200, Note_on_c, 0, 85, 0
2, 49200, Note_on_c, 0, 85, 114
2, 49200, Note_on_c, 0, 88, 114
2, 49320, Note_on_c, 0, 88, 0
2, 49320, Note_on_c, 0, 85, 0
2, 49320, Note_on_c, 0, 83, 88
2, 49320, Note_on_c, 0, 86, 88
2, 49440, Note_on_c, 0, 86, 0
2, 49440, Note_on_c, 0, 83, 0
2, 49440, Note_on_c, 0, 83, 114
2, 49440, Note_on_c, 0, 86, 114
2, 49560, Note_on_c, 0, 86, 0
2, 49560, Note_on_c, 0, 83, 0
2, 49560, Note_on_c, 0, 82, 88
2, 49560, Note_on_c, 0, 85, 88
2, 49680, Note_on_c, 0, 85, 0
2, 49680, Note_on_c, 0, 82, 0
2, 49680, Note_on_c, 0, 82, 114
2, 49680, Note_on_c, 0, 85, 114
2, 49800, Note_on_c, 0, 85, 0
2, 49800, Note_on_c, 0, 82, 0
2, 49800, Note_on_c, 0, 85, 88
2, 49800, Note_on_c, 0, 88, 88
2, 49920, Note_on_c, 0, 88, 0
2, 49920, Note_on_c, 0, 85, 0
2, 49920, Note_on_c, 0, 83, 88
2, 49920, Note_on_c, 0, 86, 88
2, 49943, Note_on_c, 0, 86, 0
2, 49943, Note_on_c, 0, 83, 0
2, 50160, Note_on_c, 0, 78, 88
2, 50160, Note_on_c, 0, 83, 88
2, 50160, Note_on_c, 0, 86, 88
2, 50183, Note_on_c, 0, 86, 0
2, 50183, Note_on_c, 0, 83, 0
2, 50183, Note_on_c, 0, 78, 0
2, 50400, Note_on_c, 0, 76, 114
2, 50400, Note_on_c, 0, 78, 114
2, 50400, Note_on_c, 0, 82, 114
2, 50400, Note_on_c, 0, 85, 114
2, 50880, Note_on_c, 0, 85, 0
2, 50880, Note_on_c, 0, 76, 0
2, 50880, Note_on_c, 0, 78, 0
2, 50880, Note_on_c, 0, 82, 0
2, 50880, Note_on_c, 0, 74, 88
2, 50880, Note_on_c, 0, 78, 88
2, 50880, Note_on_c, 0, 83, 88
2, 51480, Note_on_c, 0, 83, 0
2, 51480, Note_on_c, 0, 78, 0
2, 51480, Note_on_c, 0, 74, 0
2, 51480, Note_on_c, 0, 82, 88
2, 51600, Note_on_c, 0, 82, 0
2, 51600, Note_on_c, 0, 83, 88
2, 51720, Note_on_c, 0, 83, 0
2, 51720, Note_on_c, 0, 85, 88
2, 51840, Note_on_c, 0, 85, 0
2, 51840, Note_on_c, 0, 86, 62
2, 51960, Note_on_c, 0, 86, 0
2, 51960, Note_on_c, 0, 81, 62
2, 52080, Note_on_c, 0, 81, 0
2, 52080, Note_on_c, 0, 74, 62
2, 52200, Note_on_c, 0, 74, 0
2, 52200, Note_on_c, 0, 69, 62
2, 52320, Note_on_c, 0, 69, 0
2, 52320, Note_on_c, 0, 86, 62
2, 52440, Note_on_c, 0, 86, 0
2, 52440, Note_on_c, 0, 79, 62
2, 52560, Note_on_c, 0, 79, 0
2, 52560, Note_on_c, 0, 74, 62
2, 52680, Note_on_c, 0, 74, 0
2, 52680, Note_on_c, 0, 67, 62
2, 52800, Note_on_c, 0, 67, 0
2, 52800, Note_on_c, 0, 86, 62
2, 52920, Note_on_c, 0, 86, 0
2, 52920, Note_on_c, 0, 81, 62
2, 53040, Note_on_c, 0, 81, 0
2, 53040, Note_on_c, 0, 74, 62
2, 53160, Note_on_c, 0, 74, 0
2, 53160, Note_on_c, 0, 69, 62
2, 53280, Note_on_c, 0, 69, 0
2, 53280, Note_on_c, 0, 90, 62
2, 53400, Note_on_c, 0, 90, 0
2, 53400, Note_on_c, 0, 86, 62
2, 53520, Note_on_c, 0, 86, 0
2, 53520, Note_on_c, 0, 81, 62
2, 53640, Note_on_c, 0, 81, 0
2, 53640, Note_on_c, 0, 78, 62
2, 53760, Note_on_c, 0, 78, 0
2, 53760, Note_on_c, 0, 86, 62
2, 53880, Note_on_c, 0, 86, 0
2, 53880, Note_on_c, 0, 81, 62
2, 54000, Note_on_c, 0, 81, 0
2, 54000, Note_on_c, 0, 74, 62
2, 54120, Note_on_c, 0, 74, 0
2, 54120, Note_on_c, 0, 69, 62
2, 54240, Note_on_c, 0, 69, 0
2, 54240, Note_on_c, 0, 86, 62
2, 54360, Note_on_c, 0, 86, 0
2, 54360, Note_on_c, 0, 79, 62
2, 54480, Note_on_c, 0, 79, 0
2, 54480, Note_on_c, 0, 74, 62
2, 54600, Note_on_c, 0, 74, 0
2, 54600, Note_on_c, 0, 67, 62
2, 54720, Note_on_c, 0, 67, 0
2, 54720, Note_on_c, 0, 86, 62
2, 54840, Note_on_c, 0, 86, 0
2, 54840, Note_on_c, 0, 81, 62
2, 54960, Note_on_c, 0, 81, 0
2, 54960, Note_on_c, 0, 74, 62
2, 55080, Note_on_c, 0, 74, 0
2, 55080, Note_on_c, 0, 69, 62
2, 55200, Note_on_c, 0, 69, 0
2, 55200, Note_on_c, 0, 93, 62
2, 55320, Note_on_c, 0, 93, 0
2, 55320, Note_on_c, 0, 90, 62
2, 55440, Note_on_c, 0, 90, 0
2, 55440, Note_on_c, 0, 81, 62
2, 55560, Note_on_c, 0, 81, 0
2, 55560, Note_on_c, 0, 78, 62
2, 55680, Note_on_c, 0, 78, 0
2, 55680, Note_on_c, 0, 86, 62
2, 55680, Note_on_c, 0, 90, 62
2, 55703, Note_on_c, 0, 90, 0
2, 55703, Note_on_c, 0, 86, 0
2, 55920, Note_on_c, 0, 86, 62
2, 55920, Note_on_c, 0, 90, 62
2, 55943, Note_on_c, 0, 90, 0
2, 55943, Note_on_c, 0, 86, 0
2, 56160, Note_on_c, 0, 90, 62
2, 56160, Note_on_c, 0, 93, 62
2, 56400, Note_on_c, 0, 93, 0
2, 56400, Note_on_c, 0, 90, 0
2, 56400, Note_on_c, 0, 88, 62
2, 56400, Note_on_c, 0, 91, 62
2, 56520, Note_on_c, 0, 91, 0
2, 56520, Note_on_c, 0, 88, 0
2, 56520, Note_on_c, 0, 86, 62
2, 56520, Note_on_c, 0, 90, 62
2, 56640, Note_on_c, 0, 90, 0
2, 56640, Note_on_c, 0, 86, 0
2, 56640, Note_on_c, 0, 85, 62
2, 56640, Note_on_c, 0, 88, 62
2, 56663, Note_on_c, 0, 88, 0
2, 56663, Note_on_c, 0, 85, 0
2, 56880, Note_on_c, 0, 85, 62
2, 56880, Note_on_c, 0, 88, 62
2, 56903, Note_on_c, 0, 88, 0
2, 56903, Note_on_c, 0, 85, 0
2, 57120, Note_on_c, 0, 86, 62
2, 57600, Note_on_c, 0, 86, 0
2, 57600, Note_on_c, 0, 90, 62
2, 57600, Note_on_c, 0, 93, 62
2, 57840, Note_on_c, 0, 93, 0
2, 57840, Note_on_c, 0, 90, 0
2, 57840, Note_on_c, 0, 88, 62
2, 57840, Note_on_c, 0, 91, 62
2, 57960, Note_on_c, 0, 91, 0
2, 57960, Note_on_c, 0, 88, 0
2, 57960, Note_on_c, 0, 86, 62
2, 57960, Note_on_c, 0, 90, 62
2, 58080, Note_on_c, 0, 90, 0
2, 58080, Note_on_c, 0, 86, 0
2, 58080, Note_on_c, 0, 85, 62
2, 58080, Note_on_c, 0, 88, 62
2, 58103, Note_on_c, 0, 88, 0
2, 58103, Note_on_c, 0, 85, 0
2, 58320, Note_on_c, 0, 85, 62
2, 58320, Note_on_c, 0, 90, 62
2, 58343, Note_on_c, 0, 90, 0
2, 58343, Note_on_c, 0, 85, 0
2, 58560, Note_on_c, 0, 86, 62
2, 58583, Note_on_c, 0, 86, 0
2, 58800, Note_on_c, 0, 74, 62
2, 58800, Note_on_c, 0, 86, 62
2, 58920, Note_on_c, 0, 86, 0
2, 58920, Note_on_c, 0, 74, 0
2, 58920, Note_on_c, 0, 81, 62
2, 59040, Note_on_c, 0, 81, 0
2, 59040, Note_on_c, 0, 74, 62
2, 59040, Note_on_c, 0, 86, 62
2, 59063, Note_on_c, 0, 86, 0
2, 59063, Note_on_c, 0, 74, 0
2, 59280, Note_on_c, 0, 74, 62
2, 59280, Note_on_c, 0, 86, 62
2, 59400, Note_on_c, 0, 86, 0
2, 59400, Note_on_c, 0, 74, 0
2, 59400, Note_on_c, 0, 81, 62
2, 59520, Note_on_c, 0, 81, 0
2, 59520, Note_on_c, 0, 74, 75
2, 59520, Note_on_c, 0, 86, 75
2, 59543, Note_on_c, 0, 86, 0
2, 59543, Note_on_c, 0, 74, 0
2, 59760, Note_on_c, 0, 74, 75
2, 59760, Note_on_c, 0, 86, 75
2, 59880, Note_on_c, 0, 86, 0
2, 59880, Note_on_c, 0, 74, 0
2, 59880, Note_on_c, 0, 81, 75
2, 60000, Note_on_c, 0, 81, 0
2, 60000, Note_on_c, 0, 74, 75
2, 60000, Note_on_c, 0, 86, 75
2, 60023, Note_on_c, 0, 86, 0
2, 60023, Note_on_c, 0, 74, 0
2, 60240, Control_c, 0, 64, 127
2, 60240, Note_on_c, 0, 74, 75
2, 60240, Note_on_c, 0, 86, 75
2, 60360, Note_on_c, 0, 86, 0
2, 60360, Note_on_c, 0, 74, 0
2, 60360, Note_on_c, 0, 79, 75
2, 60480, Note_on_c, 0, 79, 0
2, 60480, Note_on_c, 0, 86, 75
2, 60600, Note_on_c, 0, 86, 0
2, 60600, Note_on_c, 0, 81, 75
2, 60720, Note_on_c, 0, 81, 0
2, 60720, Note_on_c, 0, 86, 75
2, 60840, Note_on_c, 0, 86, 0
2, 60840, Note_on_c, 0, 90, 75
2, 60960, Note_on_c, 0, 90, 0
2, 60960, Control_c, 0, 64, 0
2, 60960, Note_on_c, 0, 86, 75
2, 60983, Note_on_c, 0, 86, 0
2, 61200, Note_on_c, 0, 74, 75
2, 61200, Note_on_c, 0, 86, 75
2, 61320, Note_on_c, 0, 86, 0
2, 61320, Note_on_c, 0, 74, 0
2, 61320, Note_on_c, 0, 81, 75
2, 61440, Note_on_c, 0, 81, 0
2, 61440, Note_on_c, 0, 74, 75
2, 61440, Note_on_c, 0, 86, 75
2, 61463, Note_on_c, 0, 86, 0
2, 61463, Note_on_c, 0, 74, 0
2, 61680, Note_on_c, 0, 74, 75
2, 61680, Note_on_c, 0, 86, 75
2, 61800, Note_on_c, 0, 86, 0
2, 61800, Note_on_c, 0, 74, 0
2, 61800, Note_on_c, 0, 81, 75
2, 61920, Note_on_c, 0, 81, 0
2, 61920, Note_on_c, 0, 74, 75
2, 61920, Note_on_c, 0, 86, 75
2, 61943, Note_on_c, 0, 86, 0
2, 61943, Note_on_c, 0, 74, 0
2, 62160, Control_c, 0, 64, 127
2, 62160, Note_on_c, 0, 74, 75
2, 62160, Note_on_c, 0, 86, 75
2, 62280, Note_on_c, 0, 86, 0
2, 62280, Note_on_c, 0, 74, 0
2, 62280, Note_on_c, 0, 79, 75
2, 62400, Note_on_c, 0, 79, 0
2, 62400, Note_on_c, 0, 86, 75
2, 62520, Note_on_c, 0, 86, 0
2, 62520, Note_on_c, 0, 81, 75
2, 62640, Note_on_c, 0, 81, 0
2, 62640, Note_on_c, 0, 86, 75
2, 62760, Note_on_c, 0, 86, 0
2, 62760, Control_c, 0, 64, 0
2, 62760, Note_on_c, 0, 90, 75
2, 62880, Note_on_c, 0, 90, 0
2, 62880, Control_c, 0, 64, 127
2, 62880, Note_on_c, 0, 86, 75
2, 63000, Note_on_c, 0, 86, 0
2, 63000, Note_on_c, 0, 81, 75
2, 63120, Note_on_c, 0, 81, 0
2, 63120, Note_on_c, 0, 86, 75
2, 63240, Note_on_c, 0, 86, 0
2, 63240, Control_c, 0, 64, 0
2, 63240, Note_on_c, 0, 90, 75
2, 63360, Note_on_c, 0, 90, 0
2, 63360, Note_on_c, 0, 93, 75
2, 63480, Note_on_c, 0, 93, 0
2, 63480, Note_on_c, 0, 81, 75
2, 63600, Note_on_c, 0, 81, 0
2, 63600, Note_on_c, 0, 93, 75
2, 63720, Note_on_c, 0, 93, 0
2, 63720, Note_on_c, 0, 81, 75
2, 63840, Note_on_c, 0, 81, 0
2, 63840, Note_on_c, 0, 90, 75
2, 63960, Note_on_c, 0, 90, 0
2, 63960, Note_on_c, 0, 81, 75
2, 64080, Note_on_c, 0, 81, 0
2, 64080, Note_on_c, 0, 86, 75
2, 64200, Note_on_c, 0, 86, 0
2, 64200, Note_on_c, 0, 81, 75
2, 64320, Note_on_c, 0, 81, 0
2, 64320, Note_on_c, 0, 93, 75
2, 64440, Note_on_c, 0, 93, 0
2, 64440, Note_on_c, 0, 81, 75
2, 64560, Note_on_c, 0, 81, 0
2, 64560, Note_on_c, 0, 93, 75
2, 64680, Note_on_c, 0, 93, 0
2, 64680, Note_on_c, 0, 81, 75
2, 64800, Note_on_c, 0, 81, 0
2, 64800, Note_on_c, 0, 90, 75
2, 64920, Note_on_c, 0, 90, 0
2, 64920, Note_on_c, 0, 81, 75
2, 65040, Note_on_c, 0, 81, 0
2, 65040, Note_on_c, 0, 86, 75
2, 65160, Note_on_c, 0, 86, 0
2, 65160, Note_on_c, 0, 81, 75
2, 65280, Note_on_c, 0, 81, 0
2, 65280, Note_on_c, 0, 98, 75
2, 65400, Note_on_c, 0, 98, 0
2, 65400, Note_on_c, 0, 86, 75
2, 65520, Note_on_c, 0, 86, 0
2, 65520, Note_on_c, 0, 98, 75
2, 65640, Note_on_c, 0, 98, 0
2, 65640, Note_on_c, 0, 86, 75
2, 65760, Note_on_c, 0, 86, 0
2, 65760, Note_on_c, 0, 93, 75
2, 65880, Note_on_c, 0, 93, 0
2, 65880, Note_on_c, 0, 81, 75
2, 66000, Note_on_c, 0, 81, 0
2, 66000, Note_on_c, 0, 90, 75
2, 66120, Note_on_c, 0, 90, 0
2, 66120, Note_on_c, 0, 81, 75
2, 66240, Note_on_c, 0, 81, 0
2, 66240, Note_on_c, 0, 98, 75
2, 66360, Note_on_c, 0, 98, 0
2, 66360, Note_on_c, 0, 86, 75
2, 66480, Note_on_c, 0, 86, 0
2, 66480, Note_on_c, 0, 98, 75
2, 66600, Note_on_c, 0, 98, 0
2, 66600, Note_on_c, 0, 86, 75
2, 66720, Note_on_c, 0, 86, 0
2, 66720, Note_on_c, 0, 93, 75
2, 66840, Note_on_c, 0, 93, 0
2, 66840, Note_on_c, 0, 81, 75
2, 66960, Note_on_c, 0, 81, 0
2, 66960, Note_on_c, 0, 90, 75
2, 67080, Note_on_c, 0, 90, 0
2, 67080, Note_on_c, 0, 78, 75
2, 67200, Note_on_c, 0, 78, 0
2, 67200, Note_on_c, 0, 74, 62
2, 67200, Note_on_c, 0, 86, 62
2, 67223, Note_on_c, 0, 86, 0
2, 67223, Note_on_c, 0, 74, 0
2, 67440, Note_on_c, 0, 74, 62
2, 67440, Note_on_c, 0, 86, 62
2, 67560, Note_on_c, 0, 86, 0
2, 67560, Note_on_c, 0, 74, 0
2, 67560, Note_on_c, 0, 81, 62
2, 67680, Note_on_c, 0, 81, 0
2, 67680, Note_on_c, 0, 73, 62
2, 67680, Note_on_c, 0, 85, 62
2, 67703, Note_on_c, 0, 85, 0
2, 67703, Note_on_c, 0, 73, 0
2, 67920, Note_on_c, 0, 73, 62
2, 67920, Note_on_c, 0, 85, 62
2, 68040, Note_on_c, 0, 85, 0
2, 68040, Note_on_c, 0, 73, 0
2, 68040, Note_on_c, 0, 78, 62
2, 68160, Note_on_c, 0, 78, 0
2, 68160, Note_on_c, 0, 71, 62
2, 68160, Note_on_c, 0, 83, 62
2, 68183, Note_on_c, 0, 83, 0
2, 68183, Note_on_c, 0, 71, 0
2, 68400, Note_on_c, 0, 71, 62
2, 68400, Note_on_c, 0, 83, 62
2, 68520, Note_on_c, 0, 83, 0
2, 68520, Note_on_c, 0, 71, 0
2, 68520, Note_on_c, 0, 79, 62
2, 68640, Note_on_c, 0, 79, 0
2, 68640, Note_on_c, 0, 79, 62
2, 68640, Note_on_c, 0, 91, 62
2, 68663, Note_on_c, 0, 91, 0
2, 68663, Note_on_c, 0, 79, 0
2, 68880, Note_on_c, 0, 79, 62
2, 68880, Note_on_c, 0, 91, 62
2, 69000, Note_on_c, 0, 91, 0
2, 69000, Note_on_c, 0, 79, 0
2, 69000, Note_on_c, 0, 83, 62
2, 69120, Note_on_c, 0, 83, 0
2, 69120, Note_on_c, 0, 76, 62
2, 69120, Note_on_c, 0, 88, 62
2, 69143, Note_on_c, 0, 88, 0
2, 69143, Note_on_c, 0, 76, 0
2, 69360, Note_on_c, 0, 76, 62
2, 69360, Note_on_c, 0, 88, 62
2, 69480, Note_on_c, 0, 88, 0
2, 69480, Note_on_c, 0, 76, 0
2, 69480, Note_on_c, 0, 83, 62
2, 69600, Note_on_c, 0, 83, 0
2, 69600, Note_on_c, 0, 74, 62
2, 69600, Note_on_c, 0, 86, 62
2, 69623, Note_on_c, 0, 86, 0
2, 69623, Note_on_c, 0, 74, 0
2, 69840, Note_on_c, 0, 74, 62
2, 69840, Note_on_c, 0, 86, 62
2, 69960, Note_on_c, 0, 86, 0
2, 69960, Note_on_c, 0, 74, 0
2, 69960, Note_on_c, 0, 79, 62
2, 70080, Note_on_c, 0, 79, 0
2, 70080, Note_on_c, 0, 73, 62
2, 70080, Note_on_c, 0, 85, 62
2, 70103, Note_on_c, 0, 85, 0
2, 70103, Note_on_c, 0, 73, 0
2, 70320, Note_on_c, 0, 73, 62
2, 70320, Note_on_c, 0, 85, 62
2, 70440, Note_on_c, 0, 85, 0
2, 70440, Note_on_c, 0, 73, 0
2, 70440, Note_on_c, 0, 81, 62
2, 70560, Note_on_c, 0, 81, 0
2, 70560, Note_on_c, 0, 81, 62
2, 70560, Note_on_c, 0, 93, 62
2, 70583, Note_on_c, 0, 93, 0
2, 70583, Note_on_c, 0, 81, 0
2, 70800, Note_on_c, 0, 93, 62
2, 70920, Note_on_c, 0, 93, 0
2, 70920, Note_on_c, 0, 81, 62
2, 71040, Note_on_c, 0, 81, 0
2, 71040, Note_on_c, 0, 90, 88
2, 71063, Note_on_c, 0, 90, 0
2, 71280, Note_on_c, 0, 90, 88
2, 71400, Note_on_c, 0, 90, 0
2, 71400, Note_on_c, 0, 81, 88
2, 71520, Note_on_c, 0, 81, 0
2, 71520, Note_on_c, 0, 87, 88
2, 71543, Note_on_c, 0, 87, 0
2, 71760, Note_on_c, 0, 87, 88
2, 71880, Note_on_c, 0, 87, 0
2, 71880, Note_on_c, 0, 81, 88
2, 72000, Note_on_c, 0, 81, 0
2, 72000, Note_on_c, 0, 88, 88
2, 72240, Note_on_c, 0, 88, 0
2, 72360, Control_c, 0, 64, 127
2, 72360, Note_on_c, 0, 86, 88
2, 72480, Note_on_c, 0, 86, 0
2, 72480, Note_on_c, 0, 85, 88
2, 72600, Note_on_c, 0, 85, 0
2, 72600, Note_on_c, 0, 83, 88
2, 72720, Note_on_c, 0, 83, 0
2, 72720, Note_on_c, 0, 81, 88
2, 72840, Note_on_c, 0, 81, 0
2, 72840, Control_c, 0, 64, 0
2, 72840, Note_on_c, 0, 88, 88
2, 72960, Note_on_c, 0, 88, 0
2, 72960, Note_on_c, 0, 86, 88
2, 72983, Note_on_c, 0, 86, 0
2, 73200, Note_on_c, 0, 86, 88
2, 73320, Note_on_c, 0, 86, 0
2, 73320, Note_on_c, 0, 81, 88
2, 73440, Note_on_c, 0, 81, 0
2, 73440, Note_on_c, 0, 86, 88
2, 73463, Note_on_c, 0, 86, 0
2, 73920, Control_c, 0, 64, 127
2, 73920, Note_on_c, 0, 90, 62
2, 74040, Note_on_c, 0, 90, 0
2, 74040, Note_on_c, 0, 88, 62
2, 74160, Note_on_c, 0, 88, 0
2, 74160, Note_on_c, 0, 90, 62
2, 74280, Note_on_c, 0, 90, 0
2, 74280, Control_c, 0, 64, 0
2, 74280, Note_on_c, 0, 91, 62
2, 74400, Note_on_c, 0, 91, 0
2, 74400, Note_on_c, 0, 81, 62
2, 74400, Note_on_c, 0, 90, 62
2, 74400, Note_on_c, 0, 93, 62
2, 74880, Note_on_c, 0, 93, 0
2, 74880, Note_on_c, 0, 90, 0
2, 74880, Note_on_c, 0, 81, 0
2, 74880, Note_on_c, 0, 93, 88
2, 75000, Note_on_c, 0, 93, 0
2, 75000, Note_on_c, 0, 91, 62
2, 75120, Note_on_c, 0, 91, 0
2, 75120, Note_on_c, 0, 91, 88
2, 75240, Note_on_c, 0, 91, 0
2, 75240, Note_on_c, 0, 90, 62
2, 75360, Note_on_c, 0, 90, 0
2, 75360, Note_on_c, 0, 88, 62
2, 75840, Note_on_c, 0, 88, 0
2, 75840, Control_c, 0, 64, 127
2, 75840, Note_on_c, 0, 91, 62
2, 75960, Note_on_c, 0, 91, 0
2, 75960, Note_on_c, 0, 90, 62
2, 76080, Note_on_c, 0, 90, 0
2, 76080, Note_on_c, 0, 91, 62
2, 76200, Note_on_c, 0, 91, 0
2, 76200, Control_c, 0, 64, 0
2, 76200, Note_on_c, 0, 93, 62
2, 76320, Note_on_c, 0, 93, 0
2, 76320, Note_on_c, 0, 83, 62
2, 76320, Note_on_c, 0, 92, 62
2, 76320, Note_on_c, 0, 95, 62
2, 76800, Note_on_c, 0, 95, 0
2, 76800, Note_on_c, 0, 92, 0
2, 76800, Note_on_c, 0, 83, 0
2, 76800, Note_on_c, 0, 95, 88
2, 76920, Note_on_c, 0, 95, 0
2, 76920, Note_on_c, 0, 93, 62
2, 77040, Note_on_c, 0, 93, 0
2, 77040, Note_on_c, 0, 93, 88
2, 77160, Note_on_c, 0, 93, 0
2, 77160, Note_on_c, 0, 91, 62
2, 77280, Note_on_c, 0, 91, 0
2, 77280, Note_on_c, 0, 90, 62
2, 77760, Note_on_c, 0, 90, 0
2, 77760, Note_on_c, 0, 74, 114
2, 77760, Note_on_c, 0, 78, 114
2, 77760, Note_on_c, 0, 81, 114
2, 78240, Note_on_c, 0, 81, 0
2, 78240, Note_on_c, 0, 78, 0
2, 78240, Note_on_c, 0, 74, 0
2, 78240, Note_on_c, 0, 81, 114
2, 78240, Note_on_c, 0, 87, 114
2, 78240, Note_on_c, 0, 90, 114
2, 78720, Note_on_c, 0, 90, 0
2, 78720, Note_on_c, 0, 87, 0
2, 78720, Note_on_c, 0, 81, 0
2, 78720, Note_on_c, 0, 79, 88
2, 78720, Note_on_c, 0, 88, 88
2, 78720, Note_on_c, 0, 91, 88
2, 78743, Note_on_c, 0, 91, 0
2, 78743, Note_on_c, 0, 88, 0
2, 78743, Note_on_c, 0, 79, 0
2, 79080, Note_on_c, 0, 83, 88
2, 79200, Note_on_c, 0, 83, 0
2, 79200, Note_on_c, 0, 79, 88
2, 79200, Note_on_c, 0, 81, 88
2, 79440, Note_on_c, 0, 81, 0
2, 79440, Note_on_c, 0, 79, 0
2, 79440, Note_on_c, 0, 85, 88
2, 79680, Note_on_c, 0, 85, 0
2, 79680, Note_on_c, 0, 78, 88
2, 79680, Note_on_c, 0, 86, 88
2, 79800, Note_on_c, 0, 86, 0
2, 79800, Note_on_c, 0, 78, 0
2, 79800, Note_on_c, 0, 85, 88
2, 79920, Note_on_c, 0, 85, 0
2, 79920, Note_on_c, 0, 86, 88
2, 80040, Note_on_c, 0, 86, 0
2, 80040, Note_on_c, 0, 88, 88
2, 80160, Note_on_c, 0, 88, 0
2, 80160, Note_on_c, 0, 90, 88
2, 80280, Note_on_c, 0, 90, 0
2, 80280, Note_on_c, 0, 88, 88
2, 80400, Note_on_c, 0, 88, 0
2, 80400, Note_on_c, 0, 90, 88
2, 80520, Note_on_c, 0, 90, 0
2, 80520, Note_on_c, 0, 93, 88
2, 80640, Note_on_c, 0, 93, 0
2, 80640, Note_on_c, 0, 91, 88
2, 80760, Note_on_c, 0, 91, 0
2, 80760, Note_on_c, 0, 90, 88
2, 80880, Note_on_c, 0, 90, 0
2, 80880, Note_on_c, 0, 88, 88
2, 81000, Note_on_c, 0, 88, 0
2, 81000, Note_on_c, 0, 86, 88
2, 81120, Note_on_c, 0, 86, 0
2, 81120, Note_on_c, 0, 85, 88
2, 81240, Note_on_c, 0, 85, 0
2, 81240, Note_on_c, 0, 83, 88
2, 81360, Note_on_c, 0, 83, 0
2, 81360, Note_on_c, 0, 81, 88
2, 81480, Note_on_c, 0, 81, 0
2, 81480, Note_on_c, 0, 88, 88
2, 81600, Note_on_c, 0, 88, 0
2, 81600, Note_on_c, 0, 86, 88
2, 81840, Note_on_c, 0, 86, 0
2, 82080, Note_on_c, 0, 81, 114
2, 82080, Note_on_c, 0, 86, 114
2, 82080, Note_on_c, 0, 90, 114
2, 82127, Note_on_c, 0, 90, 0
2, 82127, Note_on_c, 0, 86, 0
2, 82127, Note_on_c, 0, 81, 0
2, 83040, Note_on_c, 0, 81, 114
2, 83040, Note_on_c, 0, 86, 114
2, 83040, Note_on_c, 0, 90, 114
2, 83087, Note_on_c, 0, 90, 0
2, 83087, Note_on_c, 0, 86, 0
2, 83087, Note_on_c, 0, 81, 0
2, 83520, Note_on_c, 0, 74, 114
2, 86400, Note_on_c, 0, 74, 0
2, 86400, End_track
3, 0, Start_track
3, 0, Title_t, "Instrument17"
3, 0, Program_c, 0, 0
3, 0, Control_c, 0, 7, 110
3, 0, Control_c, 0, 10, 97
3, 0, Note_on_c, 0, 50, 49
3, 0, Note_on_c, 0, 54, 49
3, 23, Note_on_c, 0, 54, 0
3, 23, Note_on_c, 0, 50, 0
3, 240, Note_on_c, 0, 50, 49
3, 240, Note_on_c, 0, 54, 49
3, 263, Note_on_c, 0, 54, 0
3, 263, Note_on_c, 0, 50, 0
3, 480, Note_on_c, 0, 52, 49
3, 480, Note_on_c, 0, 55, 49
3, 503, Note_on_c, 0, 55, 0
3, 503, Note_on_c, 0, 52, 0
3, 720, Note_on_c, 0, 52, 49
3, 720, Note_on_c, 0, 55, 49
3, 743, Note_on_c, 0, 55, 0
3, 743, Note_on_c, 0, 52, 0
3, 960, Note_on_c, 0, 54, 49
3, 960, Note_on_c, 0, 57, 49
3, 983, Note_on_c, 0, 57, 0
3, 983, Note_on_c, 0, 54, 0
3, 1200, Note_on_c, 0, 54, 49
3, 1200, Note_on_c, 0, 57, 49
3, 1223, Note_on_c, 0, 57, 0
3, 1223, Note_on_c, 0, 54, 0
3, 1440, Note_on_c, 0, 54, 49
3, 1440, Note_on_c, 0, 57, 49
3, 1920, Note_on_c, 0, 57, 0
3, 1920, Note_on_c, 0, 54, 0
3, 1920, Note_on_c, 0, 50, 49
3, 1920, Note_on_c, 0, 54, 49
3, 1943, Note_on_c, 0, 54, 0
3, 1943, Note_on_c, 0, 50, 0
3, 2160, Note_on_c, 0, 50, 49
3, 2160, Note_on_c, 0, 54, 49
3, 2183, Note_on_c, 0, 54, 0
3, 2183, Note_on_c, 0, 50, 0
3, 2400, Note_on_c, 0, 52, 49
3, 2400, Note_on_c, 0, 55, 49
3, 2423, Note_on_c, 0, 55, 0
3, 2423, Note_on_c, 0, 52, 0
3, 2640, Note_on_c, 0, 52, 49
3, 2640, Note_on_c, 0, 55, 49
3, 2663, Note_on_c, 0, 55, 0
3, 2663, Note_on_c, 0, 52, 0
3, 2880, Note_on_c, 0, 54, 49
3, 2880, Note_on_c, 0, 57, 49
3, 2903, Note_on_c, 0, 57, 0
3, 2903, Note_on_c, 0, 54, 0
3, 3120, Note_on_c, 0, 54, 49
3, 3120, Note_on_c, 0, 57, 49
3, 3143, Note_on_c, 0, 57, 0
3, 3143, Note_on_c, 0, 54, 0
3, 3360, Note_on_c, 0, 54, 49
3, 3360, Note_on_c, 0, 57, 49
3, 3840, Note_on_c, 0, 57, 0
3, 3840, Note_on_c, 0, 54, 0
3, 3840, Note_on_c, 0, 50, 49
3, 3840, Note_on_c, 0, 54, 49
3, 3863, Note_on_c, 0, 54, 0
3, 3863, Note_on_c, 0, 50, 0
3, 4080, Note_on_c, 0, 50, 49
3, 4080, Note_on_c, 0, 54, 49
3, 4103, Note_on_c, 0, 54, 0
3, 4103, Note_on_c, 0, 50, 0
3, 4320, Note_on_c, 0, 54, 49
3, 4320, Note_on_c, 0, 57, 49
3, 4800, Note_on_c, 0, 57, 0
3, 4800, Note_on_c, 0, 54, 0
3, 4800, Note_on_c, 0, 45, 49
3, 4800, Note_on_c, 0, 52, 49
3, 5040, Note_on_c, 0, 52, 0
3, 5040, Note_on_c, 0, 45, 0
3, 5040, Note_on_c, 0, 45, 49
3, 5040, Note_on_c, 0, 52, 49
3, 5280, Note_on_c, 0, 52, 0
3, 5280, Note_on_c, 0, 45, 0
3, 5280, Note_on_c, 0, 50, 49
3, 5280, Note_on_c, 0, 54, 49
3, 5760, Note_on_c, 0, 54, 0
3, 5760, Note_on_c, 0, 50, 0
3, 5760, Note_on_c, 0, 50, 49
3, 5760, Note_on_c, 0, 54, 49
3, 5783, Note_on_c, 0, 54, 0
3, 5783, Note_on_c, 0, 50, 0
3, 6000, Note_on_c, 0, 50, 49
3, 6000, Note_on_c, 0, 54, 49
3, 6023, Note_on_c, 0, 54, 0
3, 6023, Note_on_c, 0, 50, 0
3, 6240, Note_on_c, 0, 45, 49
3, 6240, Note_on_c, 0, 57, 49
3, 6720, Note_on_c, 0, 57, 0
3, 6720, Note_on_c, 0, 45, 0
3, 6720, Note_on_c, 0, 50, 49
3, 6720, Note_on_c, 0, 54, 49
3, 6743, Note_on_c, 0, 54, 0
3, 6743, Note_on_c, 0, 50, 0
3, 6960, Note_on_c, 0, 50, 49
3, 6960, Note_on_c, 0, 54, 49
3, 6983, Note_on_c, 0, 54, 0
3, 6983, Note_on_c, 0, 50, 0
3, 7200, Note_on_c, 0, 50, 49
3, 7200, Note_on_c, 0, 54, 49
3, 7680, Note_on_c, 0, 54, 0
3, 7680, Note_on_c, 0, 50, 0
3, 7680, Note_on_c, 0, 50, 49
3, 7680, Note_on_c, 0, 54, 49
3, 7703, Note_on_c, 0, 54, 0
3, 7703, Note_on_c, 0, 50, 0
3, 7920, Note_on_c, 0, 50, 49
3, 7920, Note_on_c, 0, 54, 49
3, 7943, Note_on_c, 0, 54, 0
3, 7943, Note_on_c, 0, 50, 0
3, 8160, Note_on_c, 0, 52, 49
3, 8160, Note_on_c, 0, 55, 49
3, 8183, Note_on_c, 0, 55, 0
3, 8183, Note_on_c, 0, 52, 0
3, 8400, Note_on_c, 0, 52, 49
3, 8400, Note_on_c, 0, 55, 49
3, 8423, Note_on_c, 0, 55, 0
3, 8423, Note_on_c, 0, 52, 0
3, 8640, Note_on_c, 0, 54, 49
3, 8640, Note_on_c, 0, 57, 49
3, 8663, Note_on_c, 0, 57, 0
3, 8663, Note_on_c, 0, 54, 0
3, 8880, Note_on_c, 0, 54, 49
3, 8880, Note_on_c, 0, 57, 49
3, 8903, Note_on_c, 0, 57, 0
3, 8903, Note_on_c, 0, 54, 0
3, 9120, Note_on_c, 0, 54, 49
3, 9120, Note_on_c, 0, 57, 49
3, 9600, Note_on_c, 0, 57, 0
3, 9600, Note_on_c, 0, 54, 0
3, 9600, Note_on_c, 0, 50, 49
3, 9600, Note_on_c, 0, 54, 49
3, 9623, Note_on_c, 0, 54, 0
3, 9623, Note_on_c, 0, 50, 0
3, 9840, Note_on_c, 0, 50, 49
3, 9840, Note_on_c, 0, 54, 49
3, 9863, Note_on_c, 0, 54, 0
3, 9863, Note_on_c, 0, 50, 0
3, 10080, Note_on_c, 0, 52, 49
3, 10080, Note_on_c, 0, 55, 49
3, 10103, Note_on_c, 0, 55, 0
3, 10103, Note_on_c, 0, 52, 0
3, 10320, Note_on_c, 0, 52, 49
3, 10320, Note_on_c, 0, 55, 49
3, 10343, Note_on_c, 0, 55, 0
3, 10343, Note_on_c, 0, 52, 0
3, 10560, Note_on_c, 0, 54, 49
3, 10560, Note_on_c, 0, 57, 49
3, 10583, Note_on_c, 0, 57, 0
3, 10583, Note_on_c, 0, 54, 0
3, 10800, Note_on_c, 0, 54, 49
3, 10800, Note_on_c, 0, 57, 49
3, 10823, Note_on_c, 0, 57, 0
3, 10823, Note_on_c, 0, 54, 0
3, 11040, Note_on_c, 0, 54, 49
3, 11040, Note_on_c, 0, 57, 49
3, 11520, Note_on_c, 0, 57, 0
3, 11520, Note_on_c, 0, 54, 0
3, 11520, Note_on_c, 0, 50, 49
3, 11520, Note_on_c, 0, 54, 49
3, 11543, Note_on_c, 0, 54, 0
3, 11543, Note_on_c, 0, 50, 0
3, 11760, Note_on_c, 0, 50, 49
3, 11760, Note_on_c, 0, 54, 49
3, 11783, Note_on_c, 0, 54, 0
3, 11783, Note_on_c, 0, 50, 0
3, 12000, Note_on_c, 0, 54, 49
3, 12000, Note_on_c, 0, 57, 49
3, 12480, Note_on_c, 0, 57, 0
3, 12480, Note_on_c, 0, 54, 0
3, 12480, Note_on_c, 0, 45, 49
3, 12480, Note_on_c, 0, 52, 49
3, 12720, Note_on_c, 0, 52, 0
3, 12720, Note_on_c, 0, 45, 0
3, 12720, Note_on_c, 0, 45, 49
3, 12720, Note_on_c, 0, 52, 49
3, 12960, Note_on_c, 0, 52, 0
3, 12960, Note_on_c, 0, 45, 0
3, 12960, Note_on_c, 0, 50, 49
3, 12960, Note_on_c, 0, 54, 49
3, 13440, Note_on_c, 0, 54, 0
3, 13440, Note_on_c, 0, 50, 0
3, 13440, Note_on_c, 0, 50, 49
3, 13440, Note_on_c, 0, 54, 49
3, 13463, Note_on_c, 0, 54, 0
3, 13463, Note_on_c, 0, 50, 0
3, 13680, Note_on_c, 0, 50, 49
3, 13680, Note_on_c, 0, 54, 49
3, 13703, Note_on_c, 0, 54, 0
3, 13703, Note_on_c, 0, 50, 0
3, 13920, Note_on_c, 0, 45, 49
3, 13920, Note_on_c, 0, 57, 49
3, 14400, Note_on_c, 0, 57, 0
3, 14400, Note_on_c, 0, 45, 0
3, 14400, Note_on_c, 0, 50, 49
3, 14400, Note_on_c, 0, 54, 49
3, 14423, Note_on_c, 0, 54, 0
3, 14423, Note_on_c, 0, 50, 0
3, 14640, Note_on_c, 0, 50, 49
3, 14640, Note_on_c, 0, 54, 49
3, 14663, Note_on_c, 0, 54, 0
3, 14663, Note_on_c, 0, 50, 0
3, 14880, Note_on_c, 0, 50, 49
3, 14880, Note_on_c, 0, 54, 49
3, 15360, Note_on_c, 0, 54, 0
3, 15360, Note_on_c, 0, 50, 0
3, 15360, Note_on_c, 0, 50, 49
3, 15360, Note_on_c, 0, 54, 49
3, 15840, Note_on_c, 0, 54, 0
3, 15840, Note_on_c, 0, 50, 0
3, 15840, Note_on_c, 0, 54, 49
3, 15840, Note_on_c, 0, 57, 49
3, 16320, Note_on_c, 0, 57, 0
3, 16320, Note_on_c, 0, 54, 0
3, 16320, Note_on_c, 0, 50, 49
3, 16320, Note_on_c, 0, 55, 49
3, 16343, Note_on_c, 0, 55, 0
3, 16343, Note_on_c, 0, 50, 0
3, 16560, Note_on_c, 0, 54, 49
3, 16583, Note_on_c, 0, 54, 0
3, 16800, Note_on_c, 0, 50, 49
3, 16800, Note_on_c, 0, 52, 49
3, 17280, Note_on_c, 0, 52, 0
3, 17280, Note_on_c, 0, 50, 0
3, 17280, Note_on_c, 0, 50, 49
3, 17280, Note_on_c, 0, 55, 49
3, 17760, Note_on_c, 0, 55, 0
3, 17760, Note_on_c, 0, 50, 0
3, 17760, Note_on_c, 0, 50, 49
3, 17760, Note_on_c, 0, 59, 49
3, 18240, Note_on_c, 0, 59, 0
3, 18240, Note_on_c, 0, 50, 0
3, 18240, Note_on_c, 0, 50, 49
3, 18240, Note_on_c, 0, 57, 49
3, 18263, Note_on_c, 0, 57, 0
3, 18263, Note_on_c, 0, 50, 0
3, 18480, Note_on_c, 0, 55, 49
3, 18503, Note_on_c, 0, 55, 0
3, 18720, Note_on_c, 0, 50, 49
3, 18720, Note_on_c, 0, 54, 49
3, 19200, Note_on_c, 0, 54, 0
3, 19200, Note_on_c, 0, 50, 0
3, 19200, Note_on_c, 0, 62, 101
3, 19200, Note_on_c, 0, 66, 101
3, 19200, Note_on_c, 0, 69, 101
3, 19680, Note_on_c, 0, 69, 0
3, 19680, Note_on_c, 0, 66, 0
3, 19680, Note_on_c, 0, 62, 0
3, 19680, Note_on_c, 0, 69, 101
3, 19680, Note_on_c, 0, 75, 101
3, 19680, Note_on_c, 0, 78, 101
3, 20160, Note_on_c, 0, 78, 0
3, 20160, Note_on_c, 0, 75, 0
3, 20160, Note_on_c, 0, 69, 0
3, 20160, Note_on_c, 0, 71, 75
3, 20160, Note_on_c, 0, 76, 75
3, 20160, Note_on_c, 0, 79, 75
3, 20400, Note_on_c, 0, 79, 0
3, 20400, Note_on_c, 0, 76, 0
3, 20400, Note_on_c, 0, 71, 0
3, 20520, Note_on_c, 0, 71, 75
3, 20640, Note_on_c, 0, 71, 0
3, 20640, Note_on_c, 0, 69, 75
3, 20880, Note_on_c, 0, 69, 0
3, 20880, Note_on_c, 0, 73, 75
3, 21120, Note_on_c, 0, 73, 0
3, 21120, Note_on_c, 0, 66, 75
3, 21120, Note_on_c, 0, 74, 75
3, 21143, Note_on_c, 0, 74, 0
3, 21143, Note_on_c, 0, 66, 0
3, 21360, Note_on_c, 0, 66, 75
3, 21360, Note_on_c, 0, 74, 75
3, 21383, Note_on_c, 0, 74, 0
3, 21383, Note_on_c, 0, 66, 0
3, 21600, Note_on_c, 0, 66, 75
3, 21600, Note_on_c, 0, 74, 75
3, 21623, Note_on_c, 0, 74, 0
3, 21623, Note_on_c, 0, 66, 0
3, 22080, Note_on_c, 0, 50, 49
3, 22080, Note_on_c, 0, 54, 49
3, 22560, Note_on_c, 0, 54, 0
3, 22560, Note_on_c, 0, 50, 0
3, 22560, Note_on_c, 0, 54, 49
3, 22560, Note_on_c, 0, 57, 49
3, 23040, Note_on_c, 0, 57, 0
3, 23040, Note_on_c, 0, 54, 0
3, 23040, Note_on_c, 0, 50, 49
3, 23040, Note_on_c, 0, 55, 49
3, 23063, Note_on_c, 0, 55, 0
3, 23063, Note_on_c, 0, 50, 0
3, 23280, Note_on_c, 0, 54, 49
3, 23303, Note_on_c, 0, 54, 0
3, 23520, Note_on_c, 0, 50, 49
3, 23520, Note_on_c, 0, 52, 49
3, 24000, Note_on_c, 0, 52, 0
3, 24000, Note_on_c, 0, 50, 0
3, 24000, Note_on_c, 0, 50, 49
3, 24000, Note_on_c, 0, 55, 49
3, 24480, Note_on_c, 0, 55, 0
3, 24480, Note_on_c, 0, 50, 0
3, 24480, Note_on_c, 0, 50, 49
3, 24480, Note_on_c, 0, 59, 49
3, 24960, Note_on_c, 0, 59, 0
3, 24960, Note_on_c, 0, 50, 0
3, 24960, Note_on_c, 0, 50, 49
3, 24960, Note_on_c, 0, 57, 49
3, 24983, Note_on_c, 0, 57, 0
3, 24983, Note_on_c, 0, 50, 0
3, 25200, Note_on_c, 0, 55, 49
3, 25223, Note_on_c, 0, 55, 0
3, 25440, Note_on_c, 0, 50, 49
3, 25440, Note_on_c, 0, 54, 49
3, 25920, Note_on_c, 0, 54, 0
3, 25920, Note_on_c, 0, 50, 0
3, 25920, Note_on_c, 0, 62, 101
3, 25920, Note_on_c, 0, 66, 101
3, 25920, Note_on_c, 0, 69, 101
3, 26400, Note_on_c, 0, 69, 0
3, 26400, Note_on_c, 0, 66, 0
3, 26400, Note_on_c, 0, 62, 0
3, 26400, Note_on_c, 0, 69, 101
3, 26400, Note_on_c, 0, 75, 101
3, 26400, Note_on_c, 0, 78, 101
3, 26880, Note_on_c, 0, 78, 0
3, 26880, Note_on_c, 0, 75, 0
3, 26880, Note_on_c, 0, 69, 0
3, 26880, Note_on_c, 0, 71, 75
3, 26880, Note_on_c, 0, 76, 75
3, 26880, Note_on_c, 0, 79, 75
3, 27120, Note_on_c, 0, 79, 0
3, 27120, Note_on_c, 0, 76, 0
3, 27120, Note_on_c, 0, 71, 0
3, 27240, Note_on_c, 0, 71, 75
3, 27360, Note_on_c, 0, 71, 0
3, 27360, Note_on_c, 0, 69, 75
3, 27600, Note_on_c, 0, 69, 0
3, 27600, Note_on_c, 0, 73, 75
3, 27840, Note_on_c, 0, 73, 0
3, 27840, Note_on_c, 0, 66, 75
3, 27840, Note_on_c, 0, 74, 75
3, 27863, Note_on_c, 0, 74, 0
3, 27863, Note_on_c, 0, 66, 0
3, 28080, Note_on_c, 0, 66, 75
3, 28080, Note_on_c, 0, 74, 75
3, 28103, Note_on_c, 0, 74, 0
3, 28103, Note_on_c, 0, 66, 0
3, 28320, Note_on_c, 0, 66, 75
3, 28320, Note_on_c, 0, 74, 75
3, 28343, Note_on_c, 0, 74, 0
3, 28343, Note_on_c, 0, 66, 0
3, 28800, Note_on_c, 0, 66, 88
3, 28800, Note_on_c, 0, 71, 88
3, 28800, Note_on_c, 0, 74, 88
3, 29520, Note_on_c, 0, 74, 0
3, 29520, Note_on_c, 0, 71, 0
3, 29520, Note_on_c, 0, 66, 0
3, 29520, Note_on_c, 0, 71, 88
3, 29760, Note_on_c, 0, 71, 0
3, 29760, Note_on_c, 0, 71, 114
3, 29760, Note_on_c, 0, 73, 114
3, 30240, Note_on_c, 0, 73, 0
3, 30240, Note_on_c, 0, 71, 0
3, 30240, Note_on_c, 0, 70, 114
3, 30240, Note_on_c, 0, 74, 114
3, 30480, Note_on_c, 0, 74, 0
3, 30480, Note_on_c, 0, 70, 0
3, 30480, Note_on_c, 0, 76, 88
3, 30600, Note_on_c, 0, 76, 0
3, 30600, Note_on_c, 0, 78, 88
3, 30720, Note_on_c, 0, 78, 0
3, 30720, Note_on_c, 0, 71, 114
3, 30720, Note_on_c, 0, 76, 114
3, 30960, Note_on_c, 0, 76, 0
3, 30960, Note_on_c, 0, 71, 0
3, 30960, Note_on_c, 0, 74, 88
3, 31080, Note_on_c, 0, 74, 88
3, 31140, Note_on_c, 0, 74, 0
3, 31140, Note_on_c, 0, 76, 88
3, 31200, Note_on_c, 0, 76, 0
3, 31200, Note_on_c, 0, 74, 0
3, 31200, Note_on_c, 0, 74, 127
3, 31440, Note_on_c, 0, 74, 0
3, 31440, Note_on_c, 0, 73, 101
3, 31560, Note_on_c, 0, 73, 101
3, 31620, Note_on_c, 0, 73, 0
3, 31620, Note_on_c, 0, 74, 101
3, 31680, Note_on_c, 0, 74, 0
3, 31680, Note_on_c, 0, 73, 0
3, 31680, Note_on_c, 0, 73, 127
3, 31920, Note_on_c, 0, 73, 0
3, 31920, Note_on_c, 0, 71, 101
3, 32160, Note_on_c, 0, 71, 0
3, 32160, Note_on_c, 0, 71, 127
3, 32400, Note_on_c, 0, 71, 0
3, 32400, Note_on_c, 0, 83, 101
3, 32640, Note_on_c, 0, 83, 0
3, 32640, Note_on_c, 0, 71, 88
3, 32640, Note_on_c, 0, 76, 88
3, 32640, Note_on_c, 0, 79, 88
3, 33360, Note_on_c, 0, 79, 0
3, 33360, Note_on_c, 0, 76, 0
3, 33360, Note_on_c, 0, 71, 0
3, 33360, Note_on_c, 0, 76, 88
3, 33600, Note_on_c, 0, 76, 0
3, 33600, Note_on_c, 0, 76, 114
3, 33600, Note_on_c, 0, 78, 114
3, 34080, Note_on_c, 0, 78, 0
3, 34080, Note_on_c, 0, 76, 0
3, 34080, Note_on_c, 0, 75, 114
3, 34080, Note_on_c, 0, 79, 114
3, 34320, Note_on_c, 0, 79, 0
3, 34320, Note_on_c, 0, 75, 0
3, 34320, Note_on_c, 0, 81, 88
3, 34440, Note_on_c, 0, 81, 0
3, 34440, Note_on_c, 0, 83, 88
3, 34560, Note_on_c, 0, 83, 0
3, 34560, Note_on_c, 0, 76, 114
3, 34560, Note_on_c, 0, 81, 114
3, 34800, Note_on_c, 0, 81, 0
3, 34800, Note_on_c, 0, 76, 0
3, 34800, Note_on_c, 0, 79, 88
3, 34920, Note_on_c, 0, 79, 88
3, 34980, Note_on_c, 0, 79, 0
3, 34980, Note_on_c, 0, 81, 88
3, 35040, Note_on_c, 0, 81, 0
3, 35040, Note_on_c, 0, 79, 0
3, 35040, Note_on_c, 0, 79, 114
3, 35280, Note_on_c, 0, 79, 0
3, 35280, Note_on_c, 0, 78, 88
3, 35400, Note_on_c, 0, 78, 88
3, 35460, Note_on_c, 0, 78, 0
3, 35460, Note_on_c, 0, 79, 88
3, 35520, Note_on_c, 0, 79, 0
3, 35520, Note_on_c, 0, 78, 0
3, 35520, Note_on_c, 0, 78, 114
3, 35760, Note_on_c, 0, 78, 0
3, 35760, Note_on_c, 0, 76, 88
3, 36000, Note_on_c, 0, 76, 0
3, 36000, Note_on_c, 0, 76, 114
3, 36240, Note_on_c, 0, 76, 0
3, 36240, Note_on_c, 0, 77, 88
3, 36480, Note_on_c, 0, 77, 0
3, 36480, Note_on_c, 0, 66, 88
3, 36480, Note_on_c, 0, 70, 88
3, 36480, Note_on_c, 0, 73, 88
3, 37200, Note_on_c, 0, 73, 0
3, 37200, Note_on_c, 0, 70, 0
3, 37200, Note_on_c, 0, 66, 0
3, 37200, Note_on_c, 0, 73, 88
3, 37440, Note_on_c, 0, 73, 0
3, 37440, Note_on_c, 0, 78, 114
3, 37680, Note_on_c, 0, 78, 0
3, 37680, Note_on_c, 0, 76, 88
3, 37920, Note_on_c, 0, 76, 0
3, 37920, Note_on_c, 0, 76, 114
3, 38160, Note_on_c, 0, 76, 0
3, 38160, Note_on_c, 0, 78, 88
3, 38400, Note_on_c, 0, 78, 0
3, 38400, Note_on_c, 0, 76, 114
3, 38640, Note_on_c, 0, 76, 0
3, 38640, Note_on_c, 0, 74, 88
3, 38760, Note_on_c, 0, 74, 88
3, 38820, Note_on_c, 0, 74, 0
3, 38820, Note_on_c, 0, 76, 88
3, 38880, Note_on_c, 0, 76, 0
3, 38880, Note_on_c, 0, 74, 0
3, 38880, Note_on_c, 0, 74, 114
3, 39120, Note_on_c, 0, 74, 0
3, 39120, Note_on_c, 0, 73, 88
3, 39240, Note_on_c, 0, 73, 88
3, 39300, Note_on_c, 0, 73, 0
3, 39300, Note_on_c, 0, 74, 88
3, 39360, Note_on_c, 0, 74, 0
3, 39360, Note_on_c, 0, 73, 0
3, 39360, Note_on_c, 0, 73, 114
3, 39600, Note_on_c, 0, 73, 0
3, 39600, Note_on_c, 0, 70, 88
3, 39840, Note_on_c, 0, 70, 0
3, 39840, Note_on_c, 0, 73, 114
3, 40080, Note_on_c, 0, 73, 0
3, 40080, Note_on_c, 0, 71, 88
3, 40320, Note_on_c, 0, 71, 0
3, 40320, Note_on_c, 0, 69, 114
3, 41040, Note_on_c, 0, 69, 0
3, 41040, Note_on_c, 0, 71, 88
3, 41280, Note_on_c, 0, 71, 0
3, 41280, Note_on_c, 0, 73, 114
3, 41880, Note_on_c, 0, 73, 0
3, 41880, Note_on_c, 0, 74, 88
3, 42000, Note_on_c, 0, 74, 0
3, 42000, Note_on_c, 0, 74, 114
3, 42120, Note_on_c, 0, 74, 0
3, 42120, Note_on_c, 0, 75, 88
3, 42240, Note_on_c, 0, 75, 0
3, 42240, Note_on_c, 0, 76, 114
3, 42480, Note_on_c, 0, 76, 0
3, 42480, Note_on_c, 0, 81, 88
3, 42600, Note_on_c, 0, 79, 88
3, 42660, Note_on_c, 0, 79, 0
3, 42660, Note_on_c, 0, 81, 88
3, 42720, Note_on_c, 0, 81, 0
3, 42720, Note_on_c, 0, 81, 0
3, 42720, Note_on_c, 0, 79, 114
3, 43080, Note_on_c, 0, 79, 0
3, 43080, Note_on_c, 0, 78, 88
3, 43200, Note_on_c, 0, 78, 0
3, 43200, Note_on_c, 0, 78, 114
3, 43920, Note_on_c, 0, 78, 0
3, 43920, Note_on_c, 0, 66, 88
3, 44160, Note_on_c, 0, 66, 0
3, 44160, Note_on_c, 0, 66, 88
3, 44160, Note_on_c, 0, 70, 88
3, 44160, Note_on_c, 0, 73, 88
3, 44880, Note_on_c, 0, 73, 0
3, 44880, Note_on_c, 0, 70, 0
3, 44880, Note_on_c, 0, 66, 0
3, 44880, Note_on_c, 0, 73, 88
3, 45120, Note_on_c, 0, 73, 0
3, 45120, Note_on_c, 0, 78, 114
3, 45360, Note_on_c, 0, 78, 0
3, 45360, Note_on_c, 0, 76, 88
3, 45600, Note_on_c, 0, 76, 0
3, 45600, Note_on_c, 0, 76, 114
3, 45840, Note_on_c, 0, 76, 0
3, 45840, Note_on_c, 0, 78, 88
3, 46080, Note_on_c, 0, 78, 0
3, 46080, Note_on_c, 0, 76, 114
3, 46320, Note_on_c, 0, 76, 0
3, 46320, Note_on_c, 0, 74, 88
3, 46440, Note_on_c, 0, 74, 88
3, 46500, Note_on_c, 0, 74, 0
3, 46500, Note_on_c, 0, 76, 88
3, 46560, Note_on_c, 0, 76, 0
3, 46560, Note_on_c, 0, 74, 0
3, 46560, Note_on_c, 0, 74, 114
3, 46800, Note_on_c, 0, 74, 0
3, 46800, Note_on_c, 0, 73, 88
3, 46920, Note_on_c, 0, 73, 88
3, 46980, Note_on_c, 0, 73, 0
3, 46980, Note_on_c, 0, 74, 88
3, 47040, Note_on_c, 0, 74, 0
3, 47040, Note_on_c, 0, 73, 0
3, 47040, Note_on_c, 0, 73, 114
3, 47280, Note_on_c, 0, 73, 0
3, 47280, Note_on_c, 0, 70, 88
3, 47520, Note_on_c, 0, 70, 0
3, 47520, Note_on_c, 0, 71, 114
3, 47760, Note_on_c, 0, 71, 0
3, 47760, Note_on_c, 0, 65, 88
3, 48000, Note_on_c, 0, 65, 0
3, 48000, Note_on_c, 0, 66, 88
3, 48600, Note_on_c, 0, 66, 0
3, 48600, Note_on_c, 0, 76, 88
3, 48600, Note_on_c, 0, 79, 88
3, 48720, Note_on_c, 0, 79, 0
3, 48720, Note_on_c, 0, 76, 0
3, 48720, Note_on_c, 0, 76, 114
3, 48720, Note_on_c, 0, 79, 114
3, 48840, Note_on_c, 0, 79, 0
3, 48840, Note_on_c, 0, 76, 0
3, 48840, Note_on_c, 0, 74, 88
3, 48840, Note_on_c, 0, 78, 88
3, 48960, Note_on_c, 0, 78, 0
3, 48960, Note_on_c, 0, 74, 0
3, 48960, Note_on_c, 0, 74, 114
3, 48960, Note_on_c, 0, 78, 114
3, 49080, Note_on_c, 0, 78, 0
3, 49080, Note_on_c, 0, 74, 0
3, 49080, Note_on_c, 0, 73, 88
3, 49080, Note_on_c, 0, 76, 88
3, 49200, Note_on_c, 0, 76, 0
3, 49200, Note_on_c, 0, 73, 0
3, 49200, Note_on_c, 0, 73, 114
3, 49200, Note_on_c, 0, 76, 114
3, 49320, Note_on_c, 0, 76, 0
3, 49320, Note_on_c, 0, 73, 0
3, 49320, Note_on_c, 0, 71, 88
3, 49320, Note_on_c, 0, 74, 88
3, 49440, Note_on_c, 0, 74, 0
3, 49440, Note_on_c, 0, 71, 0
3, 49440, Note_on_c, 0, 71, 114
3, 49440, Note_on_c, 0, 74, 114
3, 49560, Note_on_c, 0, 74, 0
3, 49560, Note_on_c, 0, 71, 0
3, 49560, Note_on_c, 0, 70, 88
3, 49560, Note_on_c, 0, 73, 88
3, 49680, Note_on_c, 0, 73, 0
3, 49680, Note_on_c, 0, 70, 0
3, 49680, Note_on_c, 0, 70, 114
3, 49680, Note_on_c, 0, 73, 114
3, 49800, Note_on_c, 0, 73, 0
3, 49800, Note_on_c, 0, 70, 0
3, 49800, Note_on_c, 0, 73, 88
3, 49800, Note_on_c, 0, 76, 88
3, 49920, Note_on_c, 0, 76, 0
3, 49920, Note_on_c, 0, 73, 0
3, 49920, Note_on_c, 0, 71, 88
3, 49920, Note_on_c, 0, 74, 88
3, 49943, Note_on_c, 0, 74, 0
3, 49943, Note_on_c, 0, 71, 0
3, 50160, Note_on_c, 0, 66, 88
3, 50160, Note_on_c, 0, 71, 88
3, 50160, Note_on_c, 0, 74, 88
3, 50183, Note_on_c, 0, 74, 0
3, 50183, Note_on_c, 0, 71, 0
3, 50183, Note_on_c, 0, 66, 0
3, 50400, Note_on_c, 0, 64, 114
3, 50400, Note_on_c, 0, 66, 114
3, 50400, Note_on_c, 0, 70, 114
3, 50400, Note_on_c, 0, 73, 114
3, 50880, Note_on_c, 0, 73, 0
3, 50880, Note_on_c, 0, 64, 0
3, 50880, Note_on_c, 0, 66, 0
3, 50880, Note_on_c, 0, 70, 0
3, 50880, Note_on_c, 0, 62, 88
3, 50880, Note_on_c, 0, 66, 88
3, 50880, Note_on_c, 0, 71, 88
3, 51480, Note_on_c, 0, 71, 0
3, 51480, Note_on_c, 0, 66, 0
3, 51480, Note_on_c, 0, 62, 0
3, 51480, Note_on_c, 0, 70, 88
3, 51600, Note_on_c, 0, 70, 0
3, 51600, Note_on_c, 0, 71, 88
3, 51720, Note_on_c, 0, 71, 0
3, 51720, Note_on_c, 0, 73, 88
3, 51840, Note_on_c, 0, 73, 0
3, 55680, Note_on_c, 0, 74, 88
3, 55680, Note_on_c, 0, 78, 88
3, 55703, Note_on_c, 0, 78, 0
3, 55703, Note_on_c, 0, 74, 0
3, 55920, Note_on_c, 0, 74, 88
3, 55920, Note_on_c, 0, 78, 88
3, 55943, Note_on_c, 0, 78, 0
3, 55943, Note_on_c, 0, 74, 0
3, 56160, Note_on_c, 0, 78, 88
3, 56160, Note_on_c, 0, 81, 88
3, 56400, Note_on_c, 0, 81, 0
3, 56400, Note_on_c, 0, 78, 0
3, 56400, Note_on_c, 0, 76, 88
3, 56400, Note_on_c, 0, 79, 88
3, 56520, Note_on_c, 0, 79, 0
3, 56520, Note_on_c, 0, 76, 0
3, 56520, Note_on_c, 0, 74, 88
3, 56520, Note_on_c, 0, 78, 88
3, 56640, Note_on_c, 0, 78, 0
3, 56640, Note_on_c, 0, 74, 0
3, 56640, Note_on_c, 0, 73, 88
3, 56640, Note_on_c, 0, 76, 88
3, 56663, Note_on_c, 0, 76, 0
3, 56663, Note_on_c, 0, 73, 0
3, 56880, Note_on_c, 0, 73, 88
3, 56880, Note_on_c, 0, 76, 88
3, 56903, Note_on_c, 0, 76, 0
3, 56903, Note_on_c, 0, 73, 0
3, 57120, Note_on_c, 0, 74, 88
3, 57600, Note_on_c, 0, 74, 0
3, 57600, Note_on_c, 0, 78, 88
3, 57600, Note_on_c, 0, 81, 88
3, 57840, Note_on_c, 0, 81, 0
3, 57840, Note_on_c, 0, 78, 0
3, 57840, Note_on_c, 0, 76, 88
3, 57840, Note_on_c, 0, 79, 88
3, 57960, Note_on_c, 0, 79, 0
3, 57960, Note_on_c, 0, 76, 0
3, 57960, Note_on_c, 0, 74, 88
3, 57960, Note_on_c, 0, 78, 88
3, 58080, Note_on_c, 0, 78, 0
3, 58080, Note_on_c, 0, 74, 0
3, 58080, Note_on_c, 0, 73, 88
3, 58080, Note_on_c, 0, 76, 88
3, 58103, Note_on_c, 0, 76, 0
3, 58103, Note_on_c, 0, 73, 0
3, 58320, Note_on_c, 0, 73, 88
3, 58320, Note_on_c, 0, 78, 88
3, 58343, Note_on_c, 0, 78, 0
3, 58343, Note_on_c, 0, 73, 0
3, 58560, Note_on_c, 0, 74, 88
3, 58583, Note_on_c, 0, 74, 0
3, 59520, Note_on_c, 0, 50, 49
3, 59520, Note_on_c, 0, 54, 49
3, 59543, Note_on_c, 0, 54, 0
3, 59543, Note_on_c, 0, 50, 0
3, 59760, Note_on_c, 0, 50, 49
3, 59760, Note_on_c, 0, 54, 49
3, 59783, Note_on_c, 0, 54, 0
3, 59783, Note_on_c, 0, 50, 0
3, 60000, Note_on_c, 0, 52, 49
3, 60000, Note_on_c, 0, 55, 49
3, 60023, Note_on_c, 0, 55, 0
3, 60023, Note_on_c, 0, 52, 0
3, 60240, Note_on_c, 0, 52, 49
3, 60240, Note_on_c, 0, 55, 49
3, 60263, Note_on_c, 0, 55, 0
3, 60263, Note_on_c, 0, 52, 0
3, 60480, Note_on_c, 0, 54, 49
3, 60480, Note_on_c, 0, 57, 49
3, 60503, Note_on_c, 0, 57, 0
3, 60503, Note_on_c, 0, 54, 0
3, 60720, Note_on_c, 0, 54, 49
3, 60720, Note_on_c, 0, 57, 49
3, 60743, Note_on_c, 0, 57, 0
3, 60743, Note_on_c, 0, 54, 0
3, 60960, Note_on_c, 0, 54, 49
3, 60960, Note_on_c, 0, 57, 49
3, 61440, Note_on_c, 0, 57, 0
3, 61440, Note_on_c, 0, 54, 0
3, 61440, Note_on_c, 0, 50, 49
3, 61440, Note_on_c, 0, 54, 49
3, 61463, Note_on_c, 0, 54, 0
3, 61463, Note_on_c, 0, 50, 0
3, 61680, Note_on_c, 0, 50, 49
3, 61680, Note_on_c, 0, 54, 49
3, 61703, Note_on_c, 0, 54, 0
3, 61703, Note_on_c, 0, 50, 0
3, 61920, Note_on_c, 0, 52, 49
3, 61920, Note_on_c, 0, 55, 49
3, 61943, Note_on_c, 0, 55, 0
3, 61943, Note_on_c, 0, 52, 0
3, 62160, Note_on_c, 0, 52, 49
3, 62160, Note_on_c, 0, 55, 49
3, 62183, Note_on_c, 0, 55, 0
3, 62183, Note_on_c, 0, 52, 0
3, 62400, Note_on_c, 0, 54, 49
3, 62400, Note_on_c, 0, 57, 49
3, 62423, Note_on_c, 0, 57, 0
3, 62423, Note_on_c, 0, 54, 0
3, 62640, Note_on_c, 0, 54, 49
3, 62640, Note_on_c, 0, 57, 49
3, 62663, Note_on_c, 0, 57, 0
3, 62663, Note_on_c, 0, 54, 0
3, 62880, Note_on_c, 0, 54, 49
3, 62880, Note_on_c, 0, 57, 49
3, 63360, Note_on_c, 0, 57, 0
3, 63360, Note_on_c, 0, 54, 0
3, 63360, Note_on_c, 0, 50, 49
3, 63360, Note_on_c, 0, 54, 49
3, 63383, Note_on_c, 0, 54, 0
3, 63383, Note_on_c, 0, 50, 0
3, 63600, Note_on_c, 0, 50, 49
3, 63600, Note_on_c, 0, 54, 49
3, 63623, Note_on_c, 0, 54, 0
3, 63623, Note_on_c, 0, 50, 0
3, 63840, Note_on_c, 0, 54, 49
3, 63840, Note_on_c, 0, 57, 49
3, 64320, Note_on_c, 0, 57, 0
3, 64320, Note_on_c, 0, 54, 0
3, 64320, Note_on_c, 0, 45, 49
3, 64320, Note_on_c, 0, 52, 49
3, 64343, Note_on_c, 0, 52, 0
3, 64343, Note_on_c, 0, 45, 0
3, 64560, Note_on_c, 0, 45, 49
3, 64560, Note_on_c, 0, 52, 49
3, 64583, Note_on_c, 0, 52, 0
3, 64583, Note_on_c, 0, 45, 0
3, 64800, Note_on_c, 0, 50, 49
3, 64800, Note_on_c, 0, 54, 49
3, 65280, Note_on_c, 0, 54, 0
3, 65280, Note_on_c, 0, 50, 0
3, 65280, Note_on_c, 0, 50, 49
3, 65280, Note_on_c, 0, 54, 49
3, 65303, Note_on_c, 0, 54, 0
3, 65303, Note_on_c, 0, 50, 0
3, 65520, Note_on_c, 0, 50, 49
3, 65520, Note_on_c, 0, 54, 49
3, 65543, Note_on_c, 0, 54, 0
3, 65543, Note_on_c, 0, 50, 0
3, 65760, Note_on_c, 0, 45, 49
3, 65760, Note_on_c, 0, 57, 49
3, 66240, Note_on_c, 0, 57, 0
3, 66240, Note_on_c, 0, 45, 0
3, 66240, Note_on_c, 0, 50, 49
3, 66240, Note_on_c, 0, 54, 49
3, 66263, Note_on_c, 0, 54, 0
3, 66263, Note_on_c, 0, 50, 0
3, 66480, Note_on_c, 0, 50, 49
3, 66480, Note_on_c, 0, 54, 49
3, 66503, Note_on_c, 0, 54, 0
3, 66503, Note_on_c, 0, 50, 0
3, 66720, Note_on_c, 0, 50, 49
3, 66720, Note_on_c, 0, 54, 49
3, 67200, Note_on_c, 0, 54, 0
3, 67200, Note_on_c, 0, 50, 0
3, 67200, Note_on_c, 0, 50, 49
3, 67200, Note_on_c, 0, 54, 49
3, 67680, Note_on_c, 0, 54, 0
3, 67680, Note_on_c, 0, 50, 0
3, 67680, Note_on_c, 0, 54, 49
3, 67680, Note_on_c, 0, 57, 49
3, 68160, Note_on_c, 0, 57, 0
3, 68160, Note_on_c, 0, 54, 0
3, 68160, Note_on_c, 0, 50, 49
3, 68160, Note_on_c, 0, 55, 49
3, 68183, Note_on_c, 0, 55, 0
3, 68183, Note_on_c, 0, 50, 0
3, 68400, Note_on_c, 0, 54, 49
3, 68423, Note_on_c, 0, 54, 0
3, 68640, Note_on_c, 0, 50, 49
3, 68640, Note_on_c, 0, 52, 49
3, 69120, Note_on_c, 0, 52, 0
3, 69120, Note_on_c, 0, 50, 0
3, 69120, Note_on_c, 0, 50, 49
3, 69120, Note_on_c, 0, 55, 49
3, 69600, Note_on_c, 0, 55, 0
3, 69600, Note_on_c, 0, 50, 0
3, 69600, Note_on_c, 0, 50, 49
3, 69600, Note_on_c, 0, 59, 49
3, 70080, Note_on_c, 0, 59, 0
3, 70080, Note_on_c, 0, 50, 0
3, 70080, Note_on_c, 0, 50, 49
3, 70080, Note_on_c, 0, 57, 49
3, 70103, Note_on_c, 0, 57, 0
3, 70103, Note_on_c, 0, 50, 0
3, 70320, Note_on_c, 0, 55, 49
3, 70343, Note_on_c, 0, 55, 0
3, 70560, Note_on_c, 0, 50, 49
3, 70560, Note_on_c, 0, 54, 49
3, 71040, Note_on_c, 0, 54, 0
3, 71040, Note_on_c, 0, 50, 0
3, 71040, Note_on_c, 0, 62, 101
3, 71040, Note_on_c, 0, 66, 101
3, 71040, Note_on_c, 0, 69, 101
3, 71520, Note_on_c, 0, 69, 0
3, 71520, Note_on_c, 0, 66, 0
3, 71520, Note_on_c, 0, 62, 0
3, 71520, Note_on_c, 0, 69, 101
3, 71520, Note_on_c, 0, 75, 101
3, 71520, Note_on_c, 0, 78, 101
3, 72000, Note_on_c, 0, 78, 0
3, 72000, Note_on_c, 0, 75, 0
3, 72000, Note_on_c, 0, 69, 0
3, 72000, Note_on_c, 0, 71, 75
3, 72000, Note_on_c, 0, 76, 75
3, 72000, Note_on_c, 0, 79, 75
3, 72240, Note_on_c, 0, 79, 0
3, 72240, Note_on_c, 0, 76, 0
3, 72240, Note_on_c, 0, 71, 0
3, 72360, Note_on_c, 0, 71, 75
3, 72480, Note_on_c, 0, 71, 0
3, 72480, Note_on_c, 0, 69, 75
3, 72720, Note_on_c, 0, 69, 0
3, 72720, Note_on_c, 0, 73, 75
3, 72960, Note_on_c, 0, 73, 0
3, 72960, Note_on_c, 0, 66, 75
3, 72960, Note_on_c, 0, 74, 75
3, 72983, Note_on_c, 0, 74, 0
3, 72983, Note_on_c, 0, 66, 0
3, 73200, Note_on_c, 0, 66, 75
3, 73200, Note_on_c, 0, 74, 75
3, 73223, Note_on_c, 0, 74, 0
3, 73223, Note_on_c, 0, 66, 0
3, 73440, Note_on_c, 0, 66, 75
3, 73440, Note_on_c, 0, 74, 75
3, 73463, Note_on_c, 0, 74, 0
3, 73463, Note_on_c, 0, 66, 0
3, 73920, Note_on_c, 0, 66, 62
3, 74400, Note_on_c, 0, 66, 0
3, 74400, Note_on_c, 0, 69, 62
3, 74880, Note_on_c, 0, 69, 0
3, 74880, Note_on_c, 0, 81, 88
3, 75000, Note_on_c, 0, 81, 0
3, 75000, Note_on_c, 0, 79, 62
3, 75120, Note_on_c, 0, 79, 0
3, 75120, Note_on_c, 0, 79, 88
3, 75240, Note_on_c, 0, 79, 0
3, 75240, Note_on_c, 0, 78, 62
3, 75360, Note_on_c, 0, 78, 0
3, 75360, Note_on_c, 0, 76, 62
3, 75840, Note_on_c, 0, 76, 0
3, 75840, Note_on_c, 0, 67, 62
3, 76320, Note_on_c, 0, 67, 0
3, 76320, Note_on_c, 0, 68, 62
3, 76320, Note_on_c, 0, 71, 62
3, 76800, Note_on_c, 0, 71, 0
3, 76800, Note_on_c, 0, 68, 0
3, 76800, Note_on_c, 0, 83, 88
3, 76920, Note_on_c, 0, 83, 0
3, 76920, Note_on_c, 0, 81, 62
3, 77040, Note_on_c, 0, 81, 0
3, 77040, Note_on_c, 0, 81, 88
3, 77160, Note_on_c, 0, 81, 0
3, 77160, Note_on_c, 0, 79, 62
3, 77280, Note_on_c, 0, 79, 0
3, 77280, Note_on_c, 0, 78, 62
3, 77760, Note_on_c, 0, 78, 0
3, 77760, Note_on_c, 0, 69, 114
3, 78240, Note_on_c, 0, 69, 0
3, 78240, Note_on_c, 0, 69, 114
3, 78240, Note_on_c, 0, 75, 114
3, 78240, Note_on_c, 0, 78, 114
3, 78720, Note_on_c, 0, 78, 0
3, 78720, Note_on_c, 0, 75, 0
3, 78720, Note_on_c, 0, 69, 0
3, 78720, Note_on_c, 0, 67, 88
3, 78720, Note_on_c, 0, 71, 88
3, 78720, Note_on_c, 0, 76, 88
3, 78743, Note_on_c, 0, 76, 0
3, 78743, Note_on_c, 0, 71, 0
3, 78743, Note_on_c, 0, 67, 0
3, 79080, Note_on_c, 0, 71, 88
3, 79200, Note_on_c, 0, 71, 0
3, 79200, Note_on_c, 0, 67, 88
3, 79200, Note_on_c, 0, 69, 88
3, 79440, Note_on_c, 0, 69, 0
3, 79440, Note_on_c, 0, 67, 0
3, 79440, Note_on_c, 0, 73, 88
3, 79680, Note_on_c, 0, 73, 0
3, 79680, Note_on_c, 0, 66, 88
3, 79680, Note_on_c, 0, 74, 88
3, 79800, Note_on_c, 0, 74, 0
3, 79800, Note_on_c, 0, 66, 0
3, 79800, Note_on_c, 0, 73, 88
3, 79920, Note_on_c, 0, 73, 0
3, 79920, Note_on_c, 0, 74, 88
3, 80040, Note_on_c, 0, 74, 0
3, 80040, Note_on_c, 0, 76, 88
3, 80160, Note_on_c, 0, 76, 0
3, 80160, Note_on_c, 0, 78, 88
3, 80280, Note_on_c, 0, 78, 0
3, 80280, Note_on_c, 0, 76, 88
3, 80400, Note_on_c, 0, 76, 0
3, 80400, Note_on_c, 0, 78, 88
3, 80520, Note_on_c, 0, 78, 0
3, 80520, Note_on_c, 0, 81, 88
3, 80640, Note_on_c, 0, 81, 0
3, 80640, Note_on_c, 0, 79, 88
3, 80760, Note_on_c, 0, 79, 0
3, 80760, Note_on_c, 0, 78, 88
3, 80880, Note_on_c, 0, 78, 0
3, 80880, Note_on_c, 0, 76, 88
3, 81000, Note_on_c, 0, 76, 0
3, 81000, Note_on_c, 0, 74, 88
3, 81120, Note_on_c, 0, 74, 0
3, 81120, Note_on_c, 0, 73, 88
3, 81240, Note_on_c, 0, 73, 0
3, 81240, Note_on_c, 0, 71, 88
3, 81360, Note_on_c, 0, 71, 0
3, 81360, Note_on_c, 0, 69, 88
3, 81480, Note_on_c, 0, 69, 0
3, 81480, Note_on_c, 0, 76, 88
3, 81600, Note_on_c, 0, 76, 0
3, 81600, Note_on_c, 0, 74, 88
3, 81840, Note_on_c, 0, 74, 0
3, 82080, Note_on_c, 0, 69, 114
3, 82080, Note_on_c, 0, 74, 114
3, 82080, Note_on_c, 0, 78, 114
3, 82127, Note_on_c, 0, 78, 0
3, 82127, Note_on_c, 0, 74, 0
3, 82127, Note_on_c, 0, 69, 0
3, 83040, Note_on_c, 0, 69, 114
3, 83040, Note_on_c, 0, 74, 114
3, 83040, Note_on_c, 0, 78, 114
3, 83087, Note_on_c, 0, 78, 0
3, 83087, Note_on_c, 0, 74, 0
3, 83087, Note_on_c, 0, 69, 0
3, 83520, Note_on_c, 0, 66, 114
3, 83520, Note_on_c, 0, 69, 114
3, 86400, Note_on_c, 0, 69, 0
3, 86400, Note_on_c, 0, 66, 0
3, 86400, End_track
4, 0, Start_track
4, 0, Title_t, "Instrument18"
4, 0, Program_c, 0, 0
4, 0, Control_c, 0, 7, 110
4, 0, Control_c, 0, 10, 30
4, 0, Note_on_c, 0, 66, 70
4, 120, Note_on_c, 0, 66, 0
4, 120, Note_on_c, 0, 62, 70
4, 240, Note_on_c, 0, 62, 0
4, 240, Note_on_c, 0, 66, 70
4, 263, Note_on_c, 0, 66, 0
4, 480, Note_on_c, 0, 67, 70
4, 600, Note_on_c, 0, 67, 0
4, 600, Note_on_c, 0, 64, 70
4, 720, Note_on_c, 0, 64, 0
4, 720, Note_on_c, 0, 67, 70
4, 743, Note_on_c, 0, 67, 0
4, 960, Note_on_c, 0, 69, 70
4, 1080, Note_on_c, 0, 69, 0
4, 1080, Note_on_c, 0, 66, 70
4, 1200, Note_on_c, 0, 66, 0
4, 1200, Note_on_c, 0, 69, 70
4, 1223, Note_on_c, 0, 69, 0
4, 1440, Note_on_c, 0, 66, 70
4, 1440, Note_on_c, 0, 69, 70
4, 1920, Note_on_c, 0, 69, 0
4, 1920, Note_on_c, 0, 66, 0
4, 1920, Note_on_c, 0, 66, 70
4, 2040, Note_on_c, 0, 66, 0
4, 2040, Note_on_c, 0, 62, 70
4, 2160, Note_on_c, 0, 62, 0
4, 2160, Note_on_c, 0, 66, 70
4, 2183, Note_on_c, 0, 66, 0
4, 2400, Note_on_c, 0, 67, 70
4, 2520, Note_on_c, 0, 67, 0
4, 2520, Note_on_c, 0, 64, 70
4, 2640, Note_on_c, 0, 64, 0
4, 2640, Note_on_c, 0, 67, 70
4, 2663, Note_on_c, 0, 67, 0
4, 2880, Note_on_c, 0, 69, 70
4, 3000, Note_on_c, 0, 69, 0
4, 3000, Note_on_c, 0, 66, 70
4, 3120, Note_on_c, 0, 66, 0
4, 3120, Note_on_c, 0, 69, 70
4, 3143, Note_on_c, 0, 69, 0
4, 3360, Note_on_c, 0, 66, 70
4, 3360, Note_on_c, 0, 69, 70
4, 3840, Note_on_c, 0, 69, 0
4, 3840, Note_on_c, 0, 66, 0
4, 3840, Note_on_c, 0, 62, 70
4, 3840, Note_on_c, 0, 66, 70
4, 3863, Note_on_c, 0, 66, 0
4, 3863, Note_on_c, 0, 62, 0
4, 4080, Note_on_c, 0, 62, 70
4, 4080, Note_on_c, 0, 66, 70
4, 4103, Note_on_c, 0, 66, 0
4, 4103, Note_on_c, 0, 62, 0
4, 4320, Note_on_c, 0, 66, 70
4, 4320, Note_on_c, 0, 69, 70
4, 4560, Note_on_c, 0, 69, 0
4, 4560, Note_on_c, 0, 66, 0
4, 4560, Note_on_c, 0, 64, 70
4, 4560, Note_on_c, 0, 67, 70
4, 4680, Note_on_c, 0, 67, 0
4, 4680, Note_on_c, 0, 64, 0
4, 4680, Note_on_c, 0, 62, 70
4, 4680, Note_on_c, 0, 66, 70
4, 4800, Note_on_c, 0, 66, 0
4, 4800, Note_on_c, 0, 62, 0
4, 4800, Note_on_c, 0, 61, 70
4, 4800, Note_on_c, 0, 64, 70
4, 4823, Note_on_c, 0, 64, 0
4, 4823, Note_on_c, 0, 61, 0
4, 5040, Note_on_c, 0, 61, 70
4, 5040, Note_on_c, 0, 64, 70
4, 5063, Note_on_c, 0, 64, 0
4, 5063, Note_on_c, 0, 61, 0
4, 5280, Note_on_c, 0, 62, 70
4, 5760, Note_on_c, 0, 62, 0
4, 5760, Note_on_c, 0, 66, 70
4, 5760, Note_on_c, 0, 69, 70
4, 6000, Note_on_c, 0, 69, 0
4, 6000, Note_on_c, 0, 66, 0
4, 6000, Note_on_c, 0, 64, 70
4, 6000, Note_on_c, 0, 67, 70
4, 6120, Note_on_c, 0, 67, 0
4, 6120, Note_on_c, 0, 64, 0
4, 6120, Note_on_c, 0, 62, 70
4, 6120, Note_on_c, 0, 66, 70
4, 6240, Note_on_c, 0, 66, 0
4, 6240, Note_on_c, 0, 62, 0
4, 6240, Note_on_c, 0, 61, 70
4, 6240, Note_on_c, 0, 64, 70
4, 6263, Note_on_c, 0, 64, 0
4, 6263, Note_on_c, 0, 61, 0
4, 6480, Note_on_c, 0, 61, 70
4, 6480, Note_on_c, 0, 66, 70
4, 6503, Note_on_c, 0, 66, 0
4, 6503, Note_on_c, 0, 61, 0
4, 6720, Note_on_c, 0, 57, 70
4, 6720, Note_on_c, 0, 62, 70
4, 6743, Note_on_c, 0, 62, 0
4, 6743, Note_on_c, 0, 57, 0
4, 6960, Note_on_c, 0, 57, 70
4, 6960, Note_on_c, 0, 62, 70
4, 6983, Note_on_c, 0, 62, 0
4, 6983, Note_on_c, 0, 57, 0
4, 7200, Note_on_c, 0, 57, 70
4, 7200, Note_on_c, 0, 62, 70
4, 7680, Note_on_c, 0, 62, 0
4, 7680, Note_on_c, 0, 57, 0
4, 7680, Note_on_c, 0, 66, 70
4, 7800, Note_on_c, 0, 66, 0
4, 7800, Note_on_c, 0, 62, 70
4, 7920, Note_on_c, 0, 62, 0
4, 7920, Note_on_c, 0, 66, 70
4, 7943, Note_on_c, 0, 66, 0
4, 8160, Note_on_c, 0, 67, 70
4, 8280, Note_on_c, 0, 67, 0
4, 8280, Note_on_c, 0, 64, 70
4, 8400, Note_on_c, 0, 64, 0
4, 8400, Note_on_c, 0, 67, 70
4, 8423, Note_on_c, 0, 67, 0
4, 8640, Note_on_c, 0, 69, 70
4, 8760, Note_on_c, 0, 69, 0
4, 8760, Note_on_c, 0, 66, 70
4, 8880, Note_on_c, 0, 66, 0
4, 8880, Note_on_c, 0, 69, 70
4, 8903, Note_on_c, 0, 69, 0
4, 9120, Note_on_c, 0, 66, 70
4, 9120, Note_on_c, 0, 69, 70
4, 9600, Note_on_c, 0, 69, 0
4, 9600, Note_on_c, 0, 66, 0
4, 9600, Note_on_c, 0, 66, 70
4, 9720, Note_on_c, 0, 66, 0
4, 9720, Note_on_c, 0, 62, 70
4, 9840, Note_on_c, 0, 62, 0
4, 9840, Note_on_c, 0, 66, 70
4, 9863, Note_on_c, 0, 66, 0
4, 10080, Note_on_c, 0, 67, 70
4, 10200, Note_on_c, 0, 67, 0
4, 10200, Note_on_c, 0, 64, 70
4, 10320, Note_on_c, 0, 64, 0
4, 10320, Note_on_c, 0, 67, 70
4, 10343, Note_on_c, 0, 67, 0
4, 10560, Note_on_c, 0, 69, 70
4, 10680, Note_on_c, 0, 69, 0
4, 10680, Note_on_c, 0, 66, 70
4, 10800, Note_on_c, 0, 66, 0
4, 10800, Note_on_c, 0, 69, 70
4, 10823, Note_on_c, 0, 69, 0
4, 11040, Note_on_c, 0, 66, 70
4, 11040, Note_on_c, 0, 69, 70
4, 11520, Note_on_c, 0, 69, 0
4, 11520, Note_on_c, 0, 66, 0
4, 11520, Note_on_c, 0, 62, 70
4, 11520, Note_on_c, 0, 66, 70
4, 11543, Note_on_c, 0, 66, 0
4, 11543, Note_on_c, 0, 62, 0
4, 11760, Note_on_c, 0, 62, 70
4, 11760, Note_on_c, 0, 66, 70
4, 11783, Note_on_c, 0, 66, 0
4, 11783, Note_on_c, 0, 62, 0
4, 12000, Note_on_c, 0, 66, 70
4, 12000, Note_on_c, 0, 69, 70
4, 12240, Note_on_c, 0, 69, 0
4, 12240, Note_on_c, 0, 66, 0
4, 12240, Note_on_c, 0, 64, 70
4, 12240, Note_on_c, 0, 67, 70
4, 12360, Note_on_c, 0, 67, 0
4, 12360, Note_on_c, 0, 64, 0
4, 12360, Note_on_c, 0, 62, 70
4, 12360, Note_on_c, 0, 66, 70
4, 12480, Note_on_c, 0, 66, 0
4, 12480, Note_on_c, 0, 62, 0
4, 12480, Note_on_c, 0, 61, 70
4, 12480, Note_on_c, 0, 64, 70
4, 12503, Note_on_c, 0, 64, 0
4, 12503, Note_on_c, 0, 61, 0
4, 12720, Note_on_c, 0, 61, 70
4, 12720, Note_on_c, 0, 64, 70
4, 12743, Note_on_c, 0, 64, 0
4, 12743, Note_on_c, 0, 61, 0
4, 12960, Note_on_c, 0, 62, 70
4, 13440, Note_on_c, 0, 62, 0
4, 13440, Note_on_c, 0, 66, 70
4, 13440, Note_on_c, 0, 69, 70
4, 13680, Note_on_c, 0, 69, 0
4, 13680, Note_on_c, 0, 66, 0
4, 13680, Note_on_c, 0, 64, 70
4, 13680, Note_on_c, 0, 67, 70
4, 13800, Note_on_c, 0, 67, 0
4, 13800, Note_on_c, 0, 64, 0
4, 13800, Note_on_c, 0, 62, 70
4, 13800, Note_on_c, 0, 66, 70
4, 13920, Note_on_c, 0, 66, 0
4, 13920, Note_on_c, 0, 62, 0
4, 13920, Note_on_c, 0, 61, 70
4, 13920, Note_on_c, 0, 64, 70
4, 13943, Note_on_c, 0, 64, 0
4, 13943, Note_on_c, 0, 61, 0
4, 14160, Note_on_c, 0, 61, 70
4, 14160, Note_on_c, 0, 66, 70
4, 14183, Note_on_c, 0, 66, 0
4, 14183, Note_on_c, 0, 61, 0
4, 14400, Note_on_c, 0, 57, 70
4, 14400, Note_on_c, 0, 62, 70
4, 14423, Note_on_c, 0, 62, 0
4, 14423, Note_on_c, 0, 57, 0
4, 14640, Note_on_c, 0, 57, 70
4, 14640, Note_on_c, 0, 62, 70
4, 14663, Note_on_c, 0, 62, 0
4, 14663, Note_on_c, 0, 57, 0
4, 14880, Note_on_c, 0, 57, 70
4, 14880, Note_on_c, 0, 62, 70
4, 15360, Note_on_c, 0, 62, 0
4, 15360, Note_on_c, 0, 57, 0
4, 15360, Note_on_c, 0, 62, 70
4, 15360, Note_on_c, 0, 66, 70
4, 15480, Note_on_c, 0, 66, 0
4, 15480, Note_on_c, 0, 62, 0
4, 15480, Note_on_c, 0, 64, 70
4, 15600, Note_on_c, 0, 64, 0
4, 15600, Note_on_c, 0, 66, 70
4, 15720, Note_on_c, 0, 66, 0
4, 15720, Note_on_c, 0, 67, 70
4, 15840, Note_on_c, 0, 67, 0
4, 15840, Note_on_c, 0, 66, 70
4, 15840, Note_on_c, 0, 69, 70
4, 16320, Note_on_c, 0, 69, 0
4, 16320, Note_on_c, 0, 66, 0
4, 16320, Note_on_c, 0, 62, 70
4, 16320, Note_on_c, 0, 69, 70
4, 16440, Note_on_c, 0, 69, 0
4, 16440, Note_on_c, 0, 62, 0
4, 16440, Note_on_c, 0, 67, 70
4, 16560, Note_on_c, 0, 67, 0
4, 16560, Note_on_c, 0, 67, 70
4, 16680, Note_on_c, 0, 67, 0
4, 16680, Note_on_c, 0, 66, 70
4, 16800, Note_on_c, 0, 66, 0
4, 16800, Note_on_c, 0, 62, 70
4, 16800, Note_on_c, 0, 64, 70
4, 17280, Note_on_c, 0, 64, 0
4, 17280, Note_on_c, 0, 62, 0
4, 17280, Note_on_c, 0, 62, 70
4, 17280, Note_on_c, 0, 67, 70
4, 17400, Note_on_c, 0, 67, 0
4, 17400, Note_on_c, 0, 62, 0
4, 17400, Note_on_c, 0, 66, 70
4, 17520, Note_on_c, 0, 66, 0
4, 17520, Note_on_c, 0, 67, 70
4, 17640, Note_on_c, 0, 67, 0
4, 17640, Note_on_c, 0, 66, 70
4, 17640, Note_on_c, 0, 69, 70
4, 17760, Note_on_c, 0, 69, 0
4, 17760, Note_on_c, 0, 66, 0
4, 17760, Note_on_c, 0, 67, 70
4, 17760, Note_on_c, 0, 71, 70
4, 17783, Note_on_c, 0, 71, 0
4, 17783, Note_on_c, 0, 67, 0
4, 18000, Note_on_c, 0, 67, 70
4, 18000, Note_on_c, 0, 71, 70
4, 18023, Note_on_c, 0, 71, 0
4, 18023, Note_on_c, 0, 67, 0
4, 18240, Note_on_c, 0, 64, 96
4, 18240, Note_on_c, 0, 71, 96
4, 18360, Note_on_c, 0, 71, 0
4, 18360, Note_on_c, 0, 64, 0
4, 18360, Note_on_c, 0, 69, 70
4, 18480, Note_on_c, 0, 69, 0
4, 18480, Note_on_c, 0, 69, 96
4, 18600, Note_on_c, 0, 69, 0
4, 18600, Note_on_c, 0, 67, 70
4, 18720, Note_on_c, 0, 67, 0
4, 18720, Note_on_c, 0, 62, 70
4, 18720, Note_on_c, 0, 66, 70
4, 19200, Note_on_c, 0, 66, 0
4, 19200, Note_on_c, 0, 62, 0
4, 19200, Note_on_c, 0, 50, 109
4, 19200, Note_on_c, 0, 54, 109
4, 19200, Note_on_c, 0, 57, 109
4, 19680, Note_on_c, 0, 57, 0
4, 19680, Note_on_c, 0, 54, 0
4, 19680, Note_on_c, 0, 50, 0
4, 19680, Note_on_c, 0, 57, 109
4, 19680, Note_on_c, 0, 63, 109
4, 19680, Note_on_c, 0, 66, 109
4, 20160, Note_on_c, 0, 66, 0
4, 20160, Note_on_c, 0, 63, 0
4, 20160, Note_on_c, 0, 57, 0
4, 20160, Note_on_c, 0, 55, 83
4, 20160, Note_on_c, 0, 64, 83
4, 20160, Note_on_c, 0, 67, 83
4, 20183, Note_on_c, 0, 67, 0
4, 20183, Note_on_c, 0, 64, 0
4, 20183, Note_on_c, 0, 55, 0
4, 20520, Note_on_c, 0, 59, 83
4, 20640, Note_on_c, 0, 59, 0
4, 20640, Note_on_c, 0, 55, 83
4, 20640, Note_on_c, 0, 57, 83
4, 20880, Note_on_c, 0, 57, 0
4, 20880, Note_on_c, 0, 55, 0
4, 20880, Note_on_c, 0, 61, 83
4, 21120, Note_on_c, 0, 61, 0
4, 21120, Note_on_c, 0, 54, 83
4, 21120, Note_on_c, 0, 62, 83
4, 21143, Note_on_c, 0, 62, 0
4, 21143, Note_on_c, 0, 54, 0
4, 21360, Note_on_c, 0, 54, 83
4, 21360, Note_on_c, 0, 62, 83
4, 21383, Note_on_c, 0, 62, 0
4, 21383, Note_on_c, 0, 54, 0
4, 21600, Note_on_c, 0, 54, 83
4, 21600, Note_on_c, 0, 62, 83
4, 21623, Note_on_c, 0, 62, 0
4, 21623, Note_on_c, 0, 54, 0
4, 22080, Note_on_c, 0, 62, 70
4, 22080, Note_on_c, 0, 66, 70
4, 22200, Note_on_c, 0, 66, 0
4, 22200, Note_on_c, 0, 62, 0
4, 22200, Note_on_c, 0, 64, 70
4, 22320, Note_on_c, 0, 64, 0
4, 22320, Note_on_c, 0, 66, 70
4, 22440, Note_on_c, 0, 66, 0
4, 22440, Note_on_c, 0, 67, 70
4, 22560, Note_on_c, 0, 67, 0
4, 22560, Note_on_c, 0, 66, 70
4, 22560, Note_on_c, 0, 69, 70
4, 23040, Note_on_c, 0, 69, 0
4, 23040, Note_on_c, 0, 66, 0
4, 23040, Note_on_c, 0, 62, 70
4, 23040, Note_on_c, 0, 69, 70
4, 23160, Note_on_c, 0, 69, 0
4, 23160, Note_on_c, 0, 62, 0
4, 23160, Note_on_c, 0, 67, 70
4, 23280, Note_on_c, 0, 67, 0
4, 23280, Note_on_c, 0, 67, 70
4, 23400, Note_on_c, 0, 67, 0
4, 23400, Note_on_c, 0, 66, 70
4, 23520, Note_on_c, 0, 66, 0
4, 23520, Note_on_c, 0, 62, 70
4, 23520, Note_on_c, 0, 64, 70
4, 24000, Note_on_c, 0, 64, 0
4, 24000, Note_on_c, 0, 62, 0
4, 24000, Note_on_c, 0, 62, 70
4, 24000, Note_on_c, 0, 67, 70
4, 24120, Note_on_c, 0, 67, 0
4, 24120, Note_on_c, 0, 62, 0
4, 24120, Note_on_c, 0, 66, 70
4, 24240, Note_on_c, 0, 66, 0
4, 24240, Note_on_c, 0, 67, 70
4, 24360, Note_on_c, 0, 67, 0
4, 24360, Note_on_c, 0, 66, 70
4, 24360, Note_on_c, 0, 69, 70
4, 24480, Note_on_c, 0, 69, 0
4, 24480, Note_on_c, 0, 66, 0
4, 24480, Note_on_c, 0, 67, 70
4, 24480, Note_on_c, 0, 71, 70
4, 24503, Note_on_c, 0, 71, 0
4, 24503, Note_on_c, 0, 67, 0
4, 24720, Note_on_c, 0, 67, 70
4, 24720, Note_on_c, 0, 71, 70
4, 24743, Note_on_c, 0, 71, 0
4, 24743, Note_on_c, 0, 67, 0
4, 24960, Note_on_c, 0, 64, 96
4, 24960, Note_on_c, 0, 71, 96
4, 25080, Note_on_c, 0, 71, 0
4, 25080, Note_on_c, 0, 64, 0
4, 25080, Note_on_c, 0, 69, 70
4, 25200, Note_on_c, 0, 69, 0
4, 25200, Note_on_c, 0, 69, 96
4, 25320, Note_on_c, 0, 69, 0
4, 25320, Note_on_c, 0, 67, 70
4, 25440, Note_on_c, 0, 67, 0
4, 25440, Note_on_c, 0, 62, 70
4, 25440, Note_on_c, 0, 66, 70
4, 25920, Note_on_c, 0, 66, 0
4, 25920, Note_on_c, 0, 62, 0
4, 25920, Note_on_c, 0, 50, 109
4, 25920, Note_on_c, 0, 54, 109
4, 25920, Note_on_c, 0, 57, 109
4, 26400, Note_on_c, 0, 57, 0
4, 26400, Note_on_c, 0, 54, 0
4, 26400, Note_on_c, 0, 50, 0
4, 26400, Note_on_c, 0, 57, 109
4, 26400, Note_on_c, 0, 63, 109
4, 26400, Note_on_c, 0, 66, 109
4, 26880, Note_on_c, 0, 66, 0
4, 26880, Note_on_c, 0, 63, 0
4, 26880, Note_on_c, 0, 57, 0
4, 26880, Note_on_c, 0, 55, 83
4, 26880, Note_on_c, 0, 64, 83
4, 26880, Note_on_c, 0, 67, 83
4, 26903, Note_on_c, 0, 67, 0
4, 26903, Note_on_c, 0, 64, 0
4, 26903, Note_on_c, 0, 55, 0
4, 27240, Note_on_c, 0, 59, 83
4, 27360, Note_on_c, 0, 59, 0
4, 27360, Note_on_c, 0, 55, 83
4, 27360, Note_on_c, 0, 57, 83
4, 27600, Note_on_c, 0, 57, 0
4, 27600, Note_on_c, 0, 55, 0
4, 27600, Note_on_c, 0, 61, 83
4, 27840, Note_on_c, 0, 61, 0
4, 27840, Note_on_c, 0, 54, 83
4, 27840, Note_on_c, 0, 62, 83
4, 27863, Note_on_c, 0, 62, 0
4, 27863, Note_on_c, 0, 54, 0
4, 28080, Note_on_c, 0, 54, 83
4, 28080, Note_on_c, 0, 62, 83
4, 28103, Note_on_c, 0, 62, 0
4, 28103, Note_on_c, 0, 54, 0
4, 28320, Note_on_c, 0, 54, 83
4, 28320, Note_on_c, 0, 62, 83
4, 28343, Note_on_c, 0, 62, 0
4, 28343, Note_on_c, 0, 54, 0
4, 28800, Control_c, 0, 64, 127
4, 28800, Note_on_c, 0, 62, 83
4, 28920, Note_on_c, 0, 62, 0
4, 28920, Note_on_c, 0, 59, 83
4, 29040, Note_on_c, 0, 59, 0
4, 29040, Note_on_c, 0, 54, 83
4, 29160, Note_on_c, 0, 54, 0
4, 29160, Note_on_c, 0, 50, 83
4, 29280, Note_on_c, 0, 50, 0
4, 29280, Note_on_c, 0, 47, 83
4, 29400, Note_on_c, 0, 47, 0
4, 29400, Note_on_c, 0, 42, 83
4, 29520, Note_on_c, 0, 42, 0
4, 29520, Note_on_c, 0, 38, 83
4, 29640, Note_on_c, 0, 38, 0
4, 29640, Control_c, 0, 64, 0
4, 29640, Note_on_c, 0, 35, 83
4, 29760, Note_on_c, 0, 35, 0
4, 29760, Note_on_c, 0, 67, 83
4, 29880, Note_on_c, 0, 67, 0
4, 29880, Note_on_c, 0, 64, 83
4, 30000, Note_on_c, 0, 64, 0
4, 30000, Note_on_c, 0, 59, 83
4, 30120, Note_on_c, 0, 59, 0
4, 30120, Note_on_c, 0, 55, 83
4, 30240, Note_on_c, 0, 55, 0
4, 30240, Note_on_c, 0, 66, 83
4, 30360, Note_on_c, 0, 66, 0
4, 30360, Note_on_c, 0, 62, 83
4, 30480, Note_on_c, 0, 62, 0
4, 30480, Note_on_c, 0, 58, 83
4, 30600, Note_on_c, 0, 58, 0
4, 30600, Note_on_c, 0, 54, 83
4, 30720, Note_on_c, 0, 54, 0
4, 30720, Note_on_c, 0, 66, 83
4, 30840, Note_on_c, 0, 66, 0
4, 30840, Note_on_c, 0, 62, 83
4, 30960, Note_on_c, 0, 62, 0
4, 30960, Note_on_c, 0, 59, 83
4, 31080, Note_on_c, 0, 59, 0
4, 31080, Note_on_c, 0, 54, 83
4, 31200, Note_on_c, 0, 54, 0
4, 31200, Note_on_c, 0, 66, 83
4, 31320, Note_on_c, 0, 66, 0
4, 31320, Note_on_c, 0, 64, 83
4, 31440, Note_on_c, 0, 64, 0
4, 31440, Note_on_c, 0, 58, 83
4, 31560, Note_on_c, 0, 58, 0
4, 31560, Note_on_c, 0, 54, 83
4, 31680, Note_on_c, 0, 54, 0
4, 31680, Note_on_c, 0, 66, 96
4, 31800, Note_on_c, 0, 66, 0
4, 31800, Note_on_c, 0, 62, 96
4, 31920, Note_on_c, 0, 62, 0
4, 31920, Note_on_c, 0, 59, 96
4, 32040, Note_on_c, 0, 59, 0
4, 32040, Note_on_c, 0, 54, 96
4, 32160, Note_on_c, 0, 54, 0
4, 32160, Note_on_c, 0, 69, 96
4, 32280, Note_on_c, 0, 69, 0
4, 32280, Note_on_c, 0, 66, 96
4, 32400, Note_on_c, 0, 66, 0
4, 32400, Note_on_c, 0, 63, 96
4, 32520, Note_on_c, 0, 63, 0
4, 32520, Note_on_c, 0, 57, 96
4, 32640, Note_on_c, 0, 57, 0
4, 32640, Control_c, 0, 64, 127
4, 32640, Note_on_c, 0, 67, 83
4, 32760, Note_on_c, 0, 67, 0
4, 32760, Note_on_c, 0, 64, 83
4, 32880, Note_on_c, 0, 64, 0
4, 32880, Note_on_c, 0, 59, 83
4, 33000, Note_on_c, 0, 59, 0
4, 33000, Note_on_c, 0, 55, 83
4, 33120, Note_on_c, 0, 55, 0
4, 33120, Note_on_c, 0, 52, 83
4, 33240, Note_on_c, 0, 52, 0
4, 33240, Note_on_c, 0, 47, 83
4, 33360, Note_on_c, 0, 47, 0
4, 33360, Note_on_c, 0, 43, 83
4, 33480, Note_on_c, 0, 43, 0
4, 33480, Control_c, 0, 64, 0
4, 33480, Note_on_c, 0, 40, 83
4, 33600, Note_on_c, 0, 40, 0
4, 33600, Note_on_c, 0, 60, 83
4, 33720, Note_on_c, 0, 60, 0
4, 33720, Note_on_c, 0, 57, 83
4, 33840, Note_on_c, 0, 57, 0
4, 33840, Note_on_c, 0, 54, 83
4, 33960, Note_on_c, 0, 54, 0
4, 33960, Note_on_c, 0, 66, 83
4, 34080, Note_on_c, 0, 66, 0
4, 34080, Note_on_c, 0, 63, 83
4, 34200, Note_on_c, 0, 63, 0
4, 34200, Note_on_c, 0, 59, 83
4, 34320, Note_on_c, 0, 59, 0
4, 34320, Note_on_c, 0, 55, 83
4, 34440, Note_on_c, 0, 55, 0
4, 34440, Note_on_c, 0, 67, 83
4, 34560, Note_on_c, 0, 67, 0
4, 34560, Note_on_c, 0, 64, 83
4, 34680, Note_on_c, 0, 64, 0
4, 34680, Note_on_c, 0, 60, 83
4, 34800, Note_on_c, 0, 60, 0
4, 34800, Note_on_c, 0, 55, 83
4, 34920, Note_on_c, 0, 55, 0
4, 34920, Note_on_c, 0, 67, 83
4, 35040, Note_on_c, 0, 67, 0
4, 35040, Note_on_c, 0, 72, 83
4, 35160, Note_on_c, 0, 72, 0
4, 35160, Note_on_c, 0, 69, 83
4, 35280, Note_on_c, 0, 69, 0
4, 35280, Note_on_c, 0, 66, 83
4, 35400, Note_on_c, 0, 66, 0
4, 35400, Note_on_c, 0, 60, 83
4, 35520, Note_on_c, 0, 60, 0
4, 35520, Note_on_c, 0, 71, 83
4, 35640, Note_on_c, 0, 71, 0
4, 35640, Note_on_c, 0, 67, 83
4, 35760, Note_on_c, 0, 67, 0
4, 35760, Note_on_c, 0, 64, 83
4, 35880, Note_on_c, 0, 64, 0
4, 35880, Note_on_c, 0, 59, 83
4, 36000, Note_on_c, 0, 59, 0
4, 36000, Note_on_c, 0, 59, 83
4, 36120, Note_on_c, 0, 59, 0
4, 36120, Note_on_c, 0, 55, 83
4, 36240, Note_on_c, 0, 55, 0
4, 36240, Note_on_c, 0, 50, 83
4, 36360, Note_on_c, 0, 50, 0
4, 36360, Note_on_c, 0, 47, 83
4, 36480, Note_on_c, 0, 47, 0
4, 36480, Control_c, 0, 64, 127
4, 36480, Note_on_c, 0, 30, 83
4, 36600, Note_on_c, 0, 30, 0
4, 36600, Note_on_c, 0, 34, 83
4, 36720, Note_on_c, 0, 34, 0
4, 36720, Note_on_c, 0, 37, 83
4, 36840, Note_on_c, 0, 37, 0
4, 36840, Note_on_c, 0, 42, 83
4, 36960, Note_on_c, 0, 42, 0
4, 36960, Note_on_c, 0, 46, 83
4, 37080, Note_on_c, 0, 46, 0
4, 37080, Note_on_c, 0, 49, 83
4, 37200, Note_on_c, 0, 49, 0
4, 37200, Note_on_c, 0, 54, 83
4, 37320, Note_on_c, 0, 54, 0
4, 37320, Control_c, 0, 64, 0
4, 37320, Note_on_c, 0, 58, 83
4, 37440, Note_on_c, 0, 58, 0
4, 37560, Note_on_c, 0, 47, 83
4, 37680, Note_on_c, 0, 47, 0
4, 37680, Note_on_c, 0, 54, 83
4, 37800, Note_on_c, 0, 54, 0
4, 37800, Note_on_c, 0, 59, 83
4, 37920, Note_on_c, 0, 59, 0
4, 38040, Note_on_c, 0, 49, 83
4, 38160, Note_on_c, 0, 49, 0
4, 38160, Note_on_c, 0, 54, 83
4, 38280, Note_on_c, 0, 54, 0
4, 38280, Note_on_c, 0, 61, 83
4, 38400, Note_on_c, 0, 61, 0
4, 38520, Note_on_c, 0, 50, 83
4, 38640, Note_on_c, 0, 50, 0
4, 38640, Note_on_c, 0, 54, 83
4, 38760, Note_on_c, 0, 54, 0
4, 38760, Note_on_c, 0, 59, 83
4, 38880, Note_on_c, 0, 59, 0
4, 39000, Note_on_c, 0, 52, 83
4, 39120, Note_on_c, 0, 52, 0
4, 39120, Note_on_c, 0, 58, 83
4, 39240, Note_on_c, 0, 58, 0
4, 39240, Note_on_c, 0, 64, 83
4, 39360, Note_on_c, 0, 64, 0
4, 39480, Note_on_c, 0, 54, 83
4, 39600, Note_on_c, 0, 54, 0
4, 39600, Note_on_c, 0, 58, 83
4, 39720, Note_on_c, 0, 58, 0
4, 39720, Note_on_c, 0, 61, 83
4, 39840, Note_on_c, 0, 61, 0
4, 39840, Note_on_c, 0, 50, 83
4, 39960, Note_on_c, 0, 50, 0
4, 39960, Note_on_c, 0, 53, 83
4, 40080, Note_on_c, 0, 53, 0
4, 40080, Note_on_c, 0, 59, 83
4, 40200, Note_on_c, 0, 59, 0
4, 40200, Note_on_c, 0, 62, 83
4, 40320, Note_on_c, 0, 62, 0
4, 40440, Note_on_c, 0, 49, 83
4, 40560, Note_on_c, 0, 49, 0
4, 40560, Note_on_c, 0, 52, 83
4, 40680, Note_on_c, 0, 52, 0
4, 40680, Note_on_c, 0, 57, 83
4, 40800, Note_on_c, 0, 57, 0
4, 40800, Note_on_c, 0, 61, 83
4, 40920, Note_on_c, 0, 61, 0
4, 40920, Note_on_c, 0, 52, 83
4, 41040, Note_on_c, 0, 52, 0
4, 41040, Note_on_c, 0, 62, 83
4, 41160, Note_on_c, 0, 62, 0
4, 41160, Note_on_c, 0, 53, 83
4, 41280, Note_on_c, 0, 53, 0
4, 41400, Note_on_c, 0, 52, 83
4, 41520, Note_on_c, 0, 52, 0
4, 41520, Note_on_c, 0, 57, 83
4, 41640, Note_on_c, 0, 57, 0
4, 41640, Note_on_c, 0, 61, 83
4, 41760, Note_on_c, 0, 61, 0
4, 41760, Note_on_c, 0, 64, 83
4, 41880, Note_on_c, 0, 64, 0
4, 41880, Note_on_c, 0, 57, 83
4, 42000, Note_on_c, 0, 57, 0
4, 42000, Note_on_c, 0, 69, 83
4, 42120, Note_on_c, 0, 69, 0
4, 42120, Note_on_c, 0, 57, 83
4, 42240, Note_on_c, 0, 57, 0
4, 42360, Note_on_c, 0, 67, 83
4, 42480, Note_on_c, 0, 67, 0
4, 42480, Note_on_c, 0, 64, 83
4, 42600, Note_on_c, 0, 64, 0
4, 42600, Note_on_c, 0, 55, 83
4, 42720, Note_on_c, 0, 55, 0
4, 42840, Note_on_c, 0, 64, 83
4, 42960, Note_on_c, 0, 64, 0
4, 42960, Note_on_c, 0, 61, 83
4, 43080, Note_on_c, 0, 61, 0
4, 43080, Note_on_c, 0, 55, 83
4, 43200, Note_on_c, 0, 55, 0
4, 43320, Control_c, 0, 64, 127
4, 43320, Note_on_c, 0, 66, 83
4, 43440, Note_on_c, 0, 66, 0
4, 43440, Note_on_c, 0, 62, 83
4, 43560, Note_on_c, 0, 62, 0
4, 43560, Note_on_c, 0, 57, 83
4, 43680, Note_on_c, 0, 57, 0
4, 43680, Note_on_c, 0, 54, 83
4, 43800, Note_on_c, 0, 54, 0
4, 43800, Note_on_c, 0, 50, 83
4, 43920, Note_on_c, 0, 50, 0
4, 43920, Note_on_c, 0, 45, 83
4, 44040, Note_on_c, 0, 45, 0
4, 44040, Control_c, 0, 64, 0
4, 44040, Note_on_c, 0, 42, 83
4, 44160, Note_on_c, 0, 42, 0
4, 44160, Control_c, 0, 64, 127
4, 44160, Note_on_c, 0, 30, 83
4, 44280, Note_on_c, 0, 30, 0
4, 44280, Note_on_c, 0, 34, 83
4, 44400, Note_on_c, 0, 34, 0
4, 44400, Note_on_c, 0, 37, 83
4, 44520, Note_on_c, 0, 37, 0
4, 44520, Note_on_c, 0, 42, 83
4, 44640, Note_on_c, 0, 42, 0
4, 44640, Note_on_c, 0, 46, 83
4, 44760, Note_on_c, 0, 46, 0
4, 44760, Note_on_c, 0, 49, 83
4, 44880, Note_on_c, 0, 49, 0
4, 44880, Note_on_c, 0, 54, 83
4, 45000, Note_on_c, 0, 54, 0
4, 45000, Control_c, 0, 64, 0
4, 45000, Note_on_c, 0, 58, 83
4, 45120, Note_on_c, 0, 58, 0
4, 45240, Note_on_c, 0, 47, 83
4, 45360, Note_on_c, 0, 47, 0
4, 45360, Note_on_c, 0, 54, 83
4, 45480, Note_on_c, 0, 54, 0
4, 45480, Note_on_c, 0, 59, 83
4, 45600, Note_on_c, 0, 59, 0
4, 45720, Note_on_c, 0, 49, 83
4, 45840, Note_on_c, 0, 49, 0
4, 45840, Note_on_c, 0, 54, 83
4, 45960, Note_on_c, 0, 54, 0
4, 45960, Note_on_c, 0, 61, 83
4, 46080, Note_on_c, 0, 61, 0
4, 46200, Note_on_c, 0, 50, 83
4, 46320, Note_on_c, 0, 50, 0
4, 46320, Note_on_c, 0, 54, 83
4, 46440, Note_on_c, 0, 54, 0
4, 46440, Note_on_c, 0, 59, 83
4, 46560, Note_on_c, 0, 59, 0
4, 46680, Note_on_c, 0, 52, 83
4, 46800, Note_on_c, 0, 52, 0
4, 46800, Note_on_c, 0, 58, 83
4, 46920, Note_on_c, 0, 58, 0
4, 46920, Note_on_c, 0, 64, 83
4, 47040, Note_on_c, 0, 64, 0
4, 47160, Note_on_c, 0, 54, 83
4, 47280, Note_on_c, 0, 54, 0
4, 47280, Note_on_c, 0, 58, 83
4, 47400, Note_on_c, 0, 58, 0
4, 47400, Note_on_c, 0, 61, 83
4, 47520, Note_on_c, 0, 61, 0
4, 47520, Note_on_c, 0, 50, 83
4, 47640, Note_on_c, 0, 50, 0
4, 47640, Note_on_c, 0, 53, 83
4, 47760, Note_on_c, 0, 53, 0
4, 47760, Note_on_c, 0, 59, 83
4, 47880, Note_on_c, 0, 59, 0
4, 47880, Note_on_c, 0, 62, 83
4, 48000, Note_on_c, 0, 62, 0
4, 48000, Note_on_c, 0, 54, 83
4, 48120, Note_on_c, 0, 54, 0
4, 48120, Note_on_c, 0, 58, 83
4, 48240, Note_on_c, 0, 58, 0
4, 48240, Note_on_c, 0, 61, 83
4, 48360, Note_on_c, 0, 61, 0
4, 48360, Note_on_c, 0, 64, 83
4, 48480, Note_on_c, 0, 64, 0
4, 48480, Note_on_c, 0, 62, 83
4, 48600, Note_on_c, 0, 62, 0
4, 48600, Note_on_c, 0, 59, 83
4, 48720, Note_on_c, 0, 59, 0
4, 48720, Note_on_c, 0, 55, 83
4, 48840, Note_on_c, 0, 55, 0
4, 48840, Note_on_c, 0, 50, 83
4, 48960, Note_on_c, 0, 50, 0
4, 48960, Note_on_c, 0, 54, 83
4, 48960, Note_on_c, 0, 58, 83
4, 49320, Note_on_c, 0, 58, 0
4, 49320, Note_on_c, 0, 54, 0
4, 49320, Note_on_c, 0, 59, 83
4, 49440, Note_on_c, 0, 59, 0
4, 49440, Note_on_c, 0, 54, 83
4, 49440, Note_on_c, 0, 61, 83
4, 49800, Note_on_c, 0, 61, 0
4, 49800, Note_on_c, 0, 54, 0
4, 49800, Note_on_c, 0, 58, 83
4, 49920, Note_on_c, 0, 58, 0
4, 49920, Note_on_c, 0, 54, 83
4, 49920, Note_on_c, 0, 66, 83
4, 49943, Note_on_c, 0, 66, 0
4, 49943, Note_on_c, 0, 54, 0
4, 50160, Note_on_c, 0, 50, 83
4, 50160, Note_on_c, 0, 62, 83
4, 50183, Note_on_c, 0, 62, 0
4, 50183, Note_on_c, 0, 50, 0
4, 50400, Note_on_c, 0, 54, 83
4, 50400, Note_on_c, 0, 58, 83
4, 50880, Note_on_c, 0, 58, 0
4, 50880, Note_on_c, 0, 54, 0
4, 50880, Note_on_c, 0, 50, 83
4, 50880, Note_on_c, 0, 54, 83
4, 50880, Note_on_c, 0, 59, 83
4, 51600, Note_on_c, 0, 59, 0
4, 51600, Note_on_c, 0, 54, 0
4, 51600, Note_on_c, 0, 50, 0
4, 51840, Note_on_c, 0, 50, 44
4, 51840, Note_on_c, 0, 54, 44
4, 51960, Note_on_c, 0, 54, 0
4, 51960, Note_on_c, 0, 50, 0
4, 51960, Note_on_c, 0, 49, 44
4, 52080, Note_on_c, 0, 49, 0
4, 52080, Note_on_c, 0, 50, 44
4, 52320, Note_on_c, 0, 50, 0
4, 52320, Note_on_c, 0, 50, 44
4, 52320, Note_on_c, 0, 55, 44
4, 52440, Note_on_c, 0, 55, 0
4, 52440, Note_on_c, 0, 50, 0
4, 52440, Note_on_c, 0, 49, 44
4, 52560, Note_on_c, 0, 49, 0
4, 52560, Note_on_c, 0, 50, 44
4, 52800, Note_on_c, 0, 50, 0
4, 52800, Note_on_c, 0, 50, 44
4, 52800, Note_on_c, 0, 57, 44
4, 52920, Note_on_c, 0, 57, 0
4, 52920, Note_on_c, 0, 50, 0
4, 52920, Note_on_c, 0, 49, 44
4, 53040, Note_on_c, 0, 49, 0
4, 53040, Note_on_c, 0, 50, 44
4, 53400, Note_on_c, 0, 50, 0
4, 53400, Note_on_c, 0, 62, 44
4, 53520, Note_on_c, 0, 62, 0
4, 53520, Note_on_c, 0, 66, 44
4, 53640, Note_on_c, 0, 66, 0
4, 53640, Note_on_c, 0, 62, 44
4, 53760, Note_on_c, 0, 62, 0
4, 53760, Note_on_c, 0, 50, 44
4, 53760, Note_on_c, 0, 54, 44
4, 53880, Note_on_c, 0, 54, 0
4, 53880, Note_on_c, 0, 50, 0
4, 53880, Note_on_c, 0, 49, 44
4, 54000, Note_on_c, 0, 49, 0
4, 54000, Note_on_c, 0, 50, 44
4, 54240, Note_on_c, 0, 55, 44
4, 54360, Note_on_c, 0, 55, 0
4, 54360, Note_on_c, 0, 50, 0
4, 54360, Note_on_c, 0, 49, 44
4, 54480, Note_on_c, 0, 49, 0
4, 54480, Note_on_c, 0, 50, 44
4, 54720, Note_on_c, 0, 50, 0
4, 54720, Note_on_c, 0, 50, 44
4, 54720, Note_on_c, 0, 57, 44
4, 54840, Note_on_c, 0, 57, 0
4, 54840, Note_on_c, 0, 50, 0
4, 54840, Note_on_c, 0, 49, 44
4, 54960, Note_on_c, 0, 49, 0
4, 54960, Note_on_c, 0, 50, 44
4, 55320, Note_on_c, 0, 50, 0
4, 55320, Note_on_c, 0, 62, 44
4, 55440, Note_on_c, 0, 62, 0
4, 55440, Note_on_c, 0, 66, 44
4, 55560, Note_on_c, 0, 66, 0
4, 55560, Note_on_c, 0, 62, 44
4, 55680, Note_on_c, 0, 62, 0
4, 55680, Note_on_c, 0, 69, 44
4, 55800, Note_on_c, 0, 69, 0
4, 55800, Note_on_c, 0, 57, 44
4, 55920, Note_on_c, 0, 57, 0
4, 55920, Note_on_c, 0, 69, 44
4, 56040, Note_on_c, 0, 69, 0
4, 56040, Note_on_c, 0, 57, 44
4, 56160, Note_on_c, 0, 57, 0
4, 56160, Note_on_c, 0, 66, 44
4, 56280, Note_on_c, 0, 66, 0
4, 56280, Note_on_c, 0, 57, 44
4, 56400, Note_on_c, 0, 57, 0
4, 56400, Note_on_c, 0, 62, 44
4, 56520, Note_on_c, 0, 62, 0
4, 56520, Note_on_c, 0, 57, 44
4, 56640, Note_on_c, 0, 57, 0
4, 56640, Note_on_c, 0, 69, 44
4, 56760, Note_on_c, 0, 69, 0
4, 56760, Note_on_c, 0, 57, 44
4, 56880, Note_on_c, 0, 57, 0
4, 56880, Note_on_c, 0, 69, 44
4, 57000, Note_on_c, 0, 69, 0
4, 57000, Note_on_c, 0, 57, 44
4, 57120, Note_on_c, 0, 57, 0
4, 57120, Note_on_c, 0, 66, 44
4, 57240, Note_on_c, 0, 66, 0
4, 57240, Note_on_c, 0, 57, 44
4, 57360, Note_on_c, 0, 57, 0
4, 57360, Note_on_c, 0, 62, 44
4, 57480, Note_on_c, 0, 62, 0
4, 57480, Note_on_c, 0, 57, 44
4, 57600, Note_on_c, 0, 57, 0
4, 57600, Note_on_c, 0, 74, 44
4, 57720, Note_on_c, 0, 74, 0
4, 57720, Note_on_c, 0, 62, 44
4, 57840, Note_on_c, 0, 62, 0
4, 57840, Note_on_c, 0, 69, 44
4, 57960, Note_on_c, 0, 69, 0
4, 57960, Note_on_c, 0, 57, 44
4, 58080, Note_on_c, 0, 57, 0
4, 58080, Note_on_c, 0, 69, 44
4, 58200, Note_on_c, 0, 69, 0
4, 58200, Note_on_c, 0, 57, 44
4, 58320, Note_on_c, 0, 57, 0
4, 58320, Note_on_c, 0, 66, 44
4, 58440, Note_on_c, 0, 66, 0
4, 58440, Note_on_c, 0, 57, 44
4, 58560, Note_on_c, 0, 57, 0
4, 58560, Note_on_c, 0, 69, 44
4, 58680, Note_on_c, 0, 69, 0
4, 58680, Note_on_c, 0, 57, 44
4, 58800, Note_on_c, 0, 57, 0
4, 58800, Note_on_c, 0, 66, 44
4, 58920, Note_on_c, 0, 66, 0
4, 58920, Note_on_c, 0, 57, 44
4, 59040, Note_on_c, 0, 57, 0
4, 59040, Note_on_c, 0, 66, 44
4, 59160, Note_on_c, 0, 66, 0
4, 59160, Note_on_c, 0, 57, 44
4, 59280, Note_on_c, 0, 57, 0
4, 59280, Note_on_c, 0, 62, 44
4, 59400, Note_on_c, 0, 62, 0
4, 59400, Note_on_c, 0, 57, 44
4, 59520, Note_on_c, 0, 57, 0
4, 59520, Note_on_c, 0, 66, 70
4, 59640, Note_on_c, 0, 66, 0
4, 59640, Note_on_c, 0, 62, 70
4, 59760, Note_on_c, 0, 62, 0
4, 59760, Note_on_c, 0, 66, 70
4, 59783, Note_on_c, 0, 66, 0
4, 60000, Note_on_c, 0, 67, 70
4, 60120, Note_on_c, 0, 67, 0
4, 60120, Note_on_c, 0, 64, 70
4, 60240, Note_on_c, 0, 64, 0
4, 60240, Note_on_c, 0, 67, 70
4, 60263, Note_on_c, 0, 67, 0
4, 60480, Note_on_c, 0, 69, 70
4, 60600, Note_on_c, 0, 69, 0
4, 60600, Note_on_c, 0, 66, 70
4, 60720, Note_on_c, 0, 66, 0
4, 60720, Note_on_c, 0, 69, 70
4, 60743, Note_on_c, 0, 69, 0
4, 60960, Note_on_c, 0, 66, 70
4, 60960, Note_on_c, 0, 69, 70
4, 61440, Note_on_c, 0, 69, 0
4, 61440, Note_on_c, 0, 66, 0
4, 61440, Note_on_c, 0, 66, 70
4, 61560, Note_on_c, 0, 66, 0
4, 61560, Note_on_c, 0, 62, 70
4, 61680, Note_on_c, 0, 62, 0
4, 61680, Note_on_c, 0, 66, 70
4, 61703, Note_on_c, 0, 66, 0
4, 61920, Note_on_c, 0, 67, 70
4, 62040, Note_on_c, 0, 67, 0
4, 62040, Note_on_c, 0, 64, 70
4, 62160, Note_on_c, 0, 64, 0
4, 62160, Note_on_c, 0, 67, 70
4, 62183, Note_on_c, 0, 67, 0
4, 62400, Note_on_c, 0, 69, 70
4, 62520, Note_on_c, 0, 69, 0
4, 62520, Note_on_c, 0, 66, 70
4, 62640, Note_on_c, 0, 66, 0
4, 62640, Note_on_c, 0, 69, 70
4, 62663, Note_on_c, 0, 69, 0
4, 62880, Note_on_c, 0, 66, 70
4, 62880, Note_on_c, 0, 69, 70
4, 63360, Note_on_c, 0, 69, 0
4, 63360, Note_on_c, 0, 66, 0
4, 63360, Note_on_c, 0, 62, 70
4, 63360, Note_on_c, 0, 66, 70
4, 63383, Note_on_c, 0, 66, 0
4, 63383, Note_on_c, 0, 62, 0
4, 63600, Note_on_c, 0, 62, 70
4, 63600, Note_on_c, 0, 66, 70
4, 63623, Note_on_c, 0, 66, 0
4, 63623, Note_on_c, 0, 62, 0
4, 63840, Note_on_c, 0, 66, 70
4, 63840, Note_on_c, 0, 69, 70
4, 64080, Note_on_c, 0, 69, 0
4, 64080, Note_on_c, 0, 66, 0
4, 64080, Note_on_c, 0, 64, 70
4, 64080, Note_on_c, 0, 67, 70
4, 64200, Note_on_c, 0, 67, 0
4, 64200, Note_on_c, 0, 64, 0
4, 64200, Note_on_c, 0, 62, 70
4, 64200, Note_on_c, 0, 66, 70
4, 64320, Note_on_c, 0, 66, 0
4, 64320, Note_on_c, 0, 62, 0
4, 64320, Note_on_c, 0, 61, 70
4, 64320, Note_on_c, 0, 64, 70
4, 64343, Note_on_c, 0, 64, 0
4, 64343, Note_on_c, 0, 61, 0
4, 64560, Note_on_c, 0, 61, 70
4, 64560, Note_on_c, 0, 64, 70
4, 64583, Note_on_c, 0, 64, 0
4, 64583, Note_on_c, 0, 61, 0
4, 64800, Note_on_c, 0, 62, 70
4, 65280, Note_on_c, 0, 62, 0
4, 65280, Note_on_c, 0, 66, 70
4, 65280, Note_on_c, 0, 69, 70
4, 65520, Note_on_c, 0, 69, 0
4, 65520, Note_on_c, 0, 66, 0
4, 65520, Note_on_c, 0, 64, 70
4, 65520, Note_on_c, 0, 67, 70
4, 65640, Note_on_c, 0, 67, 0
4, 65640, Note_on_c, 0, 64, 0
4, 65640, Note_on_c, 0, 62, 70
4, 65640, Note_on_c, 0, 66, 70
4, 65760, Note_on_c, 0, 66, 0
4, 65760, Note_on_c, 0, 62, 0
4, 65760, Note_on_c, 0, 61, 70
4, 65760, Note_on_c, 0, 64, 70
4, 65783, Note_on_c, 0, 64, 0
4, 65783, Note_on_c, 0, 61, 0
4, 66000, Note_on_c, 0, 61, 70
4, 66000, Note_on_c, 0, 66, 70
4, 66023, Note_on_c, 0, 66, 0
4, 66023, Note_on_c, 0, 61, 0
4, 66240, Note_on_c, 0, 57, 70
4, 66240, Note_on_c, 0, 62, 70
4, 66263, Note_on_c, 0, 62, 0
4, 66263, Note_on_c, 0, 57, 0
4, 66480, Note_on_c, 0, 57, 70
4, 66480, Note_on_c, 0, 62, 70
4, 66503, Note_on_c, 0, 62, 0
4, 66503, Note_on_c, 0, 57, 0
4, 66720, Note_on_c, 0, 57, 70
4, 66720, Note_on_c, 0, 62, 70
4, 67200, Note_on_c, 0, 62, 0
4, 67200, Note_on_c, 0, 57, 0
4, 67200, Note_on_c, 0, 62, 44
4, 67200, Note_on_c, 0, 66, 44
4, 67320, Note_on_c, 0, 66, 0
4, 67320, Note_on_c, 0, 62, 0
4, 67320, Note_on_c, 0, 64, 44
4, 67440, Note_on_c, 0, 64, 0
4, 67440, Note_on_c, 0, 66, 44
4, 67560, Note_on_c, 0, 66, 0
4, 67560, Note_on_c, 0, 67, 44
4, 67680, Note_on_c, 0, 67, 0
4, 67680, Note_on_c, 0, 66, 44
4, 67680, Note_on_c, 0, 69, 44
4, 68160, Note_on_c, 0, 69, 0
4, 68160, Note_on_c, 0, 66, 0
4, 68160, Note_on_c, 0, 62, 44
4, 68160, Note_on_c, 0, 69, 44
4, 68280, Note_on_c, 0, 69, 0
4, 68280, Note_on_c, 0, 62, 0
4, 68280, Note_on_c, 0, 67, 44
4, 68400, Note_on_c, 0, 67, 0
4, 68400, Note_on_c, 0, 67, 44
4, 68520, Note_on_c, 0, 67, 0
4, 68520, Note_on_c, 0, 66, 44
4, 68640, Note_on_c, 0, 66, 0
4, 68640, Note_on_c, 0, 62, 44
4, 68640, Note_on_c, 0, 64, 44
4, 69120, Note_on_c, 0, 64, 0
4, 69120, Note_on_c, 0, 62, 0
4, 69120, Note_on_c, 0, 62, 44
4, 69120, Note_on_c, 0, 67, 44
4, 69240, Note_on_c, 0, 67, 0
4, 69240, Note_on_c, 0, 62, 0
4, 69240, Note_on_c, 0, 66, 44
4, 69360, Note_on_c, 0, 66, 0
4, 69360, Note_on_c, 0, 67, 44
4, 69480, Note_on_c, 0, 67, 0
4, 69480, Note_on_c, 0, 66, 44
4, 69480, Note_on_c, 0, 69, 44
4, 69600, Note_on_c, 0, 69, 0
4, 69600, Note_on_c, 0, 66, 0
4, 69600, Note_on_c, 0, 67, 44
4, 69600, Note_on_c, 0, 71, 44
4, 69623, Note_on_c, 0, 71, 0
4, 69623, Note_on_c, 0, 67, 0
4, 69840, Note_on_c, 0, 67, 44
4, 69840, Note_on_c, 0, 71, 44
4, 69863, Note_on_c, 0, 71, 0
4, 69863, Note_on_c, 0, 67, 0
4, 70080, Note_on_c, 0, 64, 70
4, 70080, Note_on_c, 0, 71, 70
4, 70200, Note_on_c, 0, 71, 0
4, 70200, Note_on_c, 0, 64, 0
4, 70200, Note_on_c, 0, 69, 44
4, 70320, Note_on_c, 0, 69, 0
4, 70320, Note_on_c, 0, 69, 70
4, 70440, Note_on_c, 0, 69, 0
4, 70440, Note_on_c, 0, 67, 44
4, 70560, Note_on_c, 0, 67, 0
4, 70560, Note_on_c, 0, 62, 44
4, 70560, Note_on_c, 0, 66, 44
4, 71040, Note_on_c, 0, 66, 0
4, 71040, Note_on_c, 0, 62, 0
4, 71040, Note_on_c, 0, 50, 109
4, 71040, Note_on_c, 0, 54, 109
4, 71040, Note_on_c, 0, 57, 109
4, 71520, Note_on_c, 0, 57, 0
4, 71520, Note_on_c, 0, 54, 0
4, 71520, Note_on_c, 0, 50, 0
4, 71520, Note_on_c, 0, 57, 109
4, 71520, Note_on_c, 0, 63, 109
4, 71520, Note_on_c, 0, 66, 109
4, 72000, Note_on_c, 0, 66, 0
4, 72000, Note_on_c, 0, 63, 0
4, 72000, Note_on_c, 0, 57, 0
4, 72000, Note_on_c, 0, 55, 83
4, 72000, Note_on_c, 0, 64, 83
4, 72000, Note_on_c, 0, 67, 83
4, 72023, Note_on_c, 0, 67, 0
4, 72023, Note_on_c, 0, 64, 0
4, 72023, Note_on_c, 0, 55, 0
4, 72360, Note_on_c, 0, 59, 83
4, 72480, Note_on_c, 0, 59, 0
4, 72480, Note_on_c, 0, 55, 83
4, 72480, Note_on_c, 0, 57, 83
4, 72720, Note_on_c, 0, 57, 0
4, 72720, Note_on_c, 0, 55, 0
4, 72720, Note_on_c, 0, 61, 83
4, 72960, Note_on_c, 0, 61, 0
4, 72960, Note_on_c, 0, 54, 83
4, 72960, Note_on_c, 0, 62, 83
4, 72983, Note_on_c, 0, 62, 0
4, 72983, Note_on_c, 0, 54, 0
4, 73200, Note_on_c, 0, 54, 83
4, 73200, Note_on_c, 0, 62, 83
4, 73223, Note_on_c, 0, 62, 0
4, 73223, Note_on_c, 0, 54, 0
4, 73440, Note_on_c, 0, 54, 83
4, 73440, Note_on_c, 0, 62, 83
4, 73463, Note_on_c, 0, 62, 0
4, 73463, Note_on_c, 0, 54, 0
4, 73680, Note_on_c, 0, 62, 70
4, 73800, Note_on_c, 0, 62, 0
4, 73800, Note_on_c, 0, 57, 44
4, 73920, Note_on_c, 0, 57, 0
4, 73920, Note_on_c, 0, 62, 44
4, 73943, Note_on_c, 0, 62, 0
4, 74160, Note_on_c, 0, 62, 70
4, 74280, Note_on_c, 0, 62, 0
4, 74280, Note_on_c, 0, 57, 44
4, 74400, Note_on_c, 0, 57, 0
4, 74400, Note_on_c, 0, 60, 44
4, 74400, Note_on_c, 0, 63, 44
4, 74423, Note_on_c, 0, 63, 0
4, 74423, Note_on_c, 0, 60, 0
4, 74640, Note_on_c, 0, 60, 70
4, 74640, Note_on_c, 0, 63, 70
4, 74760, Note_on_c, 0, 63, 0
4, 74760, Note_on_c, 0, 60, 0
4, 74760, Note_on_c, 0, 57, 44
4, 74880, Note_on_c, 0, 57, 0
4, 74880, Note_on_c, 0, 59, 44
4, 74880, Note_on_c, 0, 64, 44
4, 74903, Note_on_c, 0, 64, 0
4, 74903, Note_on_c, 0, 59, 0
4, 75120, Note_on_c, 0, 59, 70
4, 75120, Note_on_c, 0, 64, 70
4, 75240, Note_on_c, 0, 64, 0
4, 75240, Note_on_c, 0, 59, 0
4, 75240, Note_on_c, 0, 55, 44
4, 75360, Note_on_c, 0, 55, 0
4, 75360, Note_on_c, 0, 58, 44
4, 75360, Note_on_c, 0, 62, 44
4, 75360, Note_on_c, 0, 67, 44
4, 75383, Note_on_c, 0, 67, 0
4, 75383, Note_on_c, 0, 62, 0
4, 75383, Note_on_c, 0, 58, 0
4, 75600, Note_on_c, 0, 58, 70
4, 75600, Note_on_c, 0, 62, 70
4, 75600, Note_on_c, 0, 67, 70
4, 75720, Note_on_c, 0, 67, 0
4, 75720, Note_on_c, 0, 62, 0
4, 75720, Note_on_c, 0, 58, 0
4, 75720, Note_on_c, 0, 55, 44
4, 75840, Note_on_c, 0, 55, 0
4, 75840, Note_on_c, 0, 64, 44
4, 75863, Note_on_c, 0, 64, 0
4, 76080, Note_on_c, 0, 64, 70
4, 76200, Note_on_c, 0, 64, 0
4, 76200, Note_on_c, 0, 60, 44
4, 76320, Note_on_c, 0, 60, 0
4, 76320, Note_on_c, 0, 62, 44
4, 76320, Note_on_c, 0, 65, 44
4, 76343, Note_on_c, 0, 65, 0
4, 76343, Note_on_c, 0, 62, 0
4, 76560, Note_on_c, 0, 62, 70
4, 76560, Note_on_c, 0, 65, 70
4, 76680, Note_on_c, 0, 65, 0
4, 76680, Note_on_c, 0, 62, 0
4, 76680, Note_on_c, 0, 60, 44
4, 76800, Note_on_c, 0, 60, 0
4, 76800, Note_on_c, 0, 61, 44
4, 76800, Note_on_c, 0, 66, 44
4, 76823, Note_on_c, 0, 66, 0
4, 76823, Note_on_c, 0, 61, 0
4, 77040, Note_on_c, 0, 61, 70
4, 77040, Note_on_c, 0, 66, 70
4, 77160, Note_on_c, 0, 66, 0
4, 77160, Note_on_c, 0, 61, 0
4, 77160, Note_on_c, 0, 57, 44
4, 77280, Note_on_c, 0, 57, 0
4, 77280, Note_on_c, 0, 62, 44
4, 77280, Note_on_c, 0, 66, 44
4, 77280, Note_on_c, 0, 69, 44
4, 77303, Note_on_c, 0, 69, 0
4, 77303, Note_on_c, 0, 66, 0
4, 77303, Note_on_c, 0, 62, 0
4, 77520, Note_on_c, 0, 62, 70
4, 77520, Note_on_c, 0, 66, 70
4, 77520, Note_on_c, 0, 69, 70
4, 77640, Note_on_c, 0, 69, 0
4, 77640, Note_on_c, 0, 66, 0
4, 77640, Note_on_c, 0, 62, 0
4, 77640, Note_on_c, 0, 57, 44
4, 77760, Note_on_c, 0, 57, 0
4, 77760, Note_on_c, 0, 62, 83
4, 77760, Note_on_c, 0, 66, 83
4, 77783, Note_on_c, 0, 66, 0
4, 77783, Note_on_c, 0, 62, 0
4, 78000, Note_on_c, 0, 62, 83
4, 78000, Note_on_c, 0, 66, 83
4, 78015, Note_on_c, 0, 66, 0
4, 78015, Note_on_c, 0, 62, 0
4, 78120, Note_on_c, 0, 57, 83
4, 78240, Note_on_c, 0, 57, 0
4, 78240, Note_on_c, 0, 57, 83
4, 78240, Note_on_c, 0, 63, 83
4, 78263, Note_on_c, 0, 63, 0
4, 78263, Note_on_c, 0, 57, 0
4, 78480, Note_on_c, 0, 57, 83
4, 78480, Note_on_c, 0, 63, 83
4, 78600, Note_on_c, 0, 63, 0
4, 78600, Note_on_c, 0, 57, 0
4, 78600, Note_on_c, 0, 54, 83
4, 78720, Note_on_c, 0, 54, 0
4, 78720, Note_on_c, 0, 55, 83
4, 78720, Note_on_c, 0, 59, 83
4, 78720, Note_on_c, 0, 64, 83
4, 79080, Note_on_c, 0, 64, 0
4, 79080, Note_on_c, 0, 59, 0
4, 79080, Note_on_c, 0, 55, 0
4, 79080, Note_on_c, 0, 62, 83
4, 79200, Note_on_c, 0, 62, 0
4, 79200, Note_on_c, 0, 61, 83
4, 79320, Note_on_c, 0, 61, 0
4, 79320, Note_on_c, 0, 59, 83
4, 79440, Note_on_c, 0, 59, 0
4, 79440, Note_on_c, 0, 57, 83
4, 79560, Note_on_c, 0, 57, 0
4, 79560, Note_on_c, 0, 64, 83
4, 79680, Note_on_c, 0, 64, 0
4, 79680, Note_on_c, 0, 54, 109
4, 79680, Note_on_c, 0, 57, 109
4, 80160, Note_on_c, 0, 57, 0
4, 80160, Note_on_c, 0, 54, 0
4, 80160, Note_on_c, 0, 57, 109
4, 80160, Note_on_c, 0, 63, 109
4, 80160, Note_on_c, 0, 66, 109
4, 80640, Note_on_c, 0, 66, 0
4, 80640, Note_on_c, 0, 63, 0
4, 80640, Note_on_c, 0, 57, 0
4, 80640, Note_on_c, 0, 55, 83
4, 80640, Note_on_c, 0, 64, 83
4, 80640, Note_on_c, 0, 67, 83
4, 80663, Note_on_c, 0, 67, 0
4, 80663, Note_on_c, 0, 64, 0
4, 80663, Note_on_c, 0, 55, 0
4, 81000, Note_on_c, 0, 59, 83
4, 81120, Note_on_c, 0, 59, 0
4, 81120, Note_on_c, 0, 55, 83
4, 81120, Note_on_c, 0, 57, 83
4, 81360, Note_on_c, 0, 57, 0
4, 81360, Note_on_c, 0, 55, 0
4, 81360, Note_on_c, 0, 61, 83
4, 81600, Note_on_c, 0, 61, 0
4, 81600, Note_on_c, 0, 54, 83
4, 81600, Note_on_c, 0, 62, 83
4, 81623, Note_on_c, 0, 62, 0
4, 81623, Note_on_c, 0, 54, 0
4, 81840, Note_on_c, 0, 50, 83
4, 81840, Note_on_c, 0, 62, 83
4, 81960, Note_on_c, 0, 62, 0
4, 81960, Note_on_c, 0, 50, 0
4, 81960, Note_on_c, 0, 57, 83
4, 82080, Note_on_c, 0, 57, 0
4, 82080, Note_on_c, 0, 50, 83
4, 82080, Note_on_c, 0, 62, 83
4, 82103, Note_on_c, 0, 62, 0
4, 82103, Note_on_c, 0, 50, 0
4, 82320, Note_on_c, 0, 50, 83
4, 82320, Note_on_c, 0, 62, 83
4, 82440, Note_on_c, 0, 62, 0
4, 82440, Note_on_c, 0, 50, 0
4, 82440, Note_on_c, 0, 57, 83
4, 82560, Note_on_c, 0, 57, 0
4, 82560, Note_on_c, 0, 50, 83
4, 82560, Note_on_c, 0, 62, 83
4, 82583, Note_on_c, 0, 62, 0
4, 82583, Note_on_c, 0, 50, 0
4, 82800, Note_on_c, 0, 50, 83
4, 82800, Note_on_c, 0, 62, 83
4, 82920, Note_on_c, 0, 62, 0
4, 82920, Note_on_c, 0, 50, 0
4, 82920, Note_on_c, 0, 57, 83
4, 83040, Note_on_c, 0, 57, 0
4, 83040, Note_on_c, 0, 50, 83
4, 83040, Note_on_c, 0, 62, 83
4, 83063, Note_on_c, 0, 62, 0
4, 83063, Note_on_c, 0, 50, 0
4, 83280, Note_on_c, 0, 50, 83
4, 83280, Note_on_c, 0, 62, 83
4, 83400, Note_on_c, 0, 62, 0
4, 83400, Note_on_c, 0, 50, 0
4, 83400, Note_on_c, 0, 57, 83
4, 83520, Note_on_c, 0, 57, 0
4, 83520, Note_on_c, 0, 50, 83
4, 83520, Note_on_c, 0, 54, 83
4, 83520, Note_on_c, 0, 57, 83
4, 83520, Note_on_c, 0, 62, 83
4, 86400, Note_on_c, 0, 62, 0
4, 86400, Note_on_c, 0, 50, 0
4, 86400, Note_on_c, 0, 54, 0
4, 86400, Note_on_c, 0, 57, 0
4, 86400, End_track
5, 0, Start_track
5, 0, Title_t, "Instrument19"
5, 0, Program_c, 0, 0
5, 0, Control_c, 0, 7, 110
5, 0, Control_c, 0, 10, 30
5, 240, Note_on_c, 0, 26, 49
5, 240, Note_on_c, 0, 38, 49
5, 263, Note_on_c, 0, 38, 0
5, 263, Note_on_c, 0, 26, 0
5, 720, Note_on_c, 0, 26, 49
5, 720, Note_on_c, 0, 38, 49
5, 743, Note_on_c, 0, 38, 0
5, 743, Note_on_c, 0, 26, 0
5, 1200, Note_on_c, 0, 26, 49
5, 1200, Note_on_c, 0, 38, 49
5, 1223, Note_on_c, 0, 38, 0
5, 1223, Note_on_c, 0, 26, 0
5, 1680, Note_on_c, 0, 26, 49
5, 1680, Note_on_c, 0, 38, 49
5, 1703, Note_on_c, 0, 38, 0
5, 1703, Note_on_c, 0, 26, 0
5, 2160, Note_on_c, 0, 26, 49
5, 2160, Note_on_c, 0, 38, 49
5, 2183, Note_on_c, 0, 38, 0
5, 2183, Note_on_c, 0, 26, 0
5, 2640, Note_on_c, 0, 26, 49
5, 2640, Note_on_c, 0, 38, 49
5, 2663, Note_on_c, 0, 38, 0
5, 2663, Note_on_c, 0, 26, 0
5, 3120, Note_on_c, 0, 26, 49
5, 3120, Note_on_c, 0, 38, 49
5, 3143, Note_on_c, 0, 38, 0
5, 3143, Note_on_c, 0, 26, 0
5, 3600, Note_on_c, 0, 26, 49
5, 3600, Note_on_c, 0, 38, 49
5, 3623, Note_on_c, 0, 38, 0
5, 3623, Note_on_c, 0, 26, 0
5, 4080, Note_on_c, 0, 26, 49
5, 4080, Note_on_c, 0, 38, 49
5, 4103, Note_on_c, 0, 38, 0
5, 4103, Note_on_c, 0, 26, 0
5, 4560, Note_on_c, 0, 26, 49
5, 4560, Note_on_c, 0, 38, 49
5, 4583, Note_on_c, 0, 38, 0
5, 4583, Note_on_c, 0, 26, 0
5, 5040, Note_on_c, 0, 26, 49
5, 5040, Note_on_c, 0, 38, 49
5, 5063, Note_on_c, 0, 38, 0
5, 5063, Note_on_c, 0, 26, 0
5, 5520, Note_on_c, 0, 26, 49
5, 5520, Note_on_c, 0, 38, 49
5, 5543, Note_on_c, 0, 38, 0
5, 5543, Note_on_c, 0, 26, 0
5, 6000, Note_on_c, 0, 26, 49
5, 6000, Note_on_c, 0, 38, 49
5, 6023, Note_on_c, 0, 38, 0
5, 6023, Note_on_c, 0, 26, 0
5, 6480, Note_on_c, 0, 26, 49
5, 6480, Note_on_c, 0, 38, 49
5, 6503, Note_on_c, 0, 38, 0
5, 6503, Note_on_c, 0, 26, 0
5, 6960, Note_on_c, 0, 26, 49
5, 6960, Note_on_c, 0, 38, 49
5, 6983, Note_on_c, 0, 38, 0
5, 6983, Note_on_c, 0, 26, 0
5, 7440, Note_on_c, 0, 26, 49
5, 7440, Note_on_c, 0, 38, 49
5, 7463, Note_on_c, 0, 38, 0
5, 7463, Note_on_c, 0, 26, 0
5, 7920, Note_on_c, 0, 26, 49
5, 7920, Note_on_c, 0, 38, 49
5, 7943, Note_on_c, 0, 38, 0
5, 7943, Note_on_c, 0, 26, 0
5, 8400, Note_on_c, 0, 26, 49
5, 8400, Note_on_c, 0, 38, 49
5, 8423, Note_on_c, 0, 38, 0
5, 8423, Note_on_c, 0, 26, 0
5, 8880, Note_on_c, 0, 26, 49
5, 8880, Note_on_c, 0, 38, 49
5, 8903, Note_on_c, 0, 38, 0
5, 8903, Note_on_c, 0, 26, 0
5, 9360, Note_on_c, 0, 26, 49
5, 9360, Note_on_c, 0, 38, 49
5, 9383, Note_on_c, 0, 38, 0
5, 9383, Note_on_c, 0, 26, 0
5, 9840, Note_on_c, 0, 26, 49
5, 9840, Note_on_c, 0, 38, 49
5, 9863, Note_on_c, 0, 38, 0
5, 9863, Note_on_c, 0, 26, 0
5, 10320, Note_on_c, 0, 26, 49
5, 10320, Note_on_c, 0, 38, 49
5, 10343, Note_on_c, 0, 38, 0
5, 10343, Note_on_c, 0, 26, 0
5, 10800, Note_on_c, 0, 26, 49
5, 10800, Note_on_c, 0, 38, 49
5, 10823, Note_on_c, 0, 38, 0
5, 10823, Note_on_c, 0, 26, 0
5, 11280, Note_on_c, 0, 26, 49
5, 11280, Note_on_c, 0, 38, 49
5, 11303, Note_on_c, 0, 38, 0
5, 11303, Note_on_c, 0, 26, 0
5, 11760, Note_on_c, 0, 26, 49
5, 11760, Note_on_c, 0, 38, 49
5, 11783, Note_on_c, 0, 38, 0
5, 11783, Note_on_c, 0, 26, 0
5, 12240, Note_on_c, 0, 26, 49
5, 12240, Note_on_c, 0, 38, 49
5, 12263, Note_on_c, 0, 38, 0
5, 12263, Note_on_c, 0, 26, 0
5, 12720, Note_on_c, 0, 26, 49
5, 12720, Note_on_c, 0, 38, 49
5, 12743, Note_on_c, 0, 38, 0
5, 12743, Note_on_c, 0, 26, 0
5, 13200, Note_on_c, 0, 26, 49
5, 13200, Note_on_c, 0, 38, 49
5, 13223, Note_on_c, 0, 38, 0
5, 13223, Note_on_c, 0, 26, 0
5, 13680, Note_on_c, 0, 26, 49
5, 13680, Note_on_c, 0, 38, 49
5, 13703, Note_on_c, 0, 38, 0
5, 13703, Note_on_c, 0, 26, 0
5, 14160, Note_on_c, 0, 26, 49
5, 14160, Note_on_c, 0, 38, 49
5, 14183, Note_on_c, 0, 38, 0
5, 14183, Note_on_c, 0, 26, 0
5, 14640, Note_on_c, 0, 26, 49
5, 14640, Note_on_c, 0, 38, 49
5, 14663, Note_on_c, 0, 38, 0
5, 14663, Note_on_c, 0, 26, 0
5, 15120, Note_on_c, 0, 26, 49
5, 15120, Note_on_c, 0, 38, 49
5, 15143, Note_on_c, 0, 38, 0
5, 15143, Note_on_c, 0, 26, 0
5, 15600, Note_on_c, 0, 26, 49
5, 15600, Note_on_c, 0, 38, 49
5, 15623, Note_on_c, 0, 38, 0
5, 15623, Note_on_c, 0, 26, 0
5, 16080, Note_on_c, 0, 26, 49
5, 16080, Note_on_c, 0, 38, 49
5, 16103, Note_on_c, 0, 38, 0
5, 16103, Note_on_c, 0, 26, 0
5, 16560, Note_on_c, 0, 26, 49
5, 16560, Note_on_c, 0, 38, 49
5, 16583, Note_on_c, 0, 38, 0
5, 16583, Note_on_c, 0, 26, 0
5, 17040, Note_on_c, 0, 26, 49
5, 17040, Note_on_c, 0, 38, 49
5, 17063, Note_on_c, 0, 38, 0
5, 17063, Note_on_c, 0, 26, 0
5, 17520, Note_on_c, 0, 26, 49
5, 17520, Note_on_c, 0, 38, 49
5, 17543, Note_on_c, 0, 38, 0
5, 17543, Note_on_c, 0, 26, 0
5, 18000, Note_on_c, 0, 26, 49
5, 18000, Note_on_c, 0, 38, 49
5, 18023, Note_on_c, 0, 38, 0
5, 18023, Note_on_c, 0, 26, 0
5, 18480, Note_on_c, 0, 26, 49
5, 18480, Note_on_c, 0, 38, 49
5, 18503, Note_on_c, 0, 38, 0
5, 18503, Note_on_c, 0, 26, 0
5, 18960, Note_on_c, 0, 26, 49
5, 18960, Note_on_c, 0, 38, 49
5, 18983, Note_on_c, 0, 38, 0
5, 18983, Note_on_c, 0, 26, 0
5, 19200, Note_on_c, 0, 36, 114
5, 19200, Note_on_c, 0, 48, 114
5, 19680, Note_on_c, 0, 48, 0
5, 19680, Note_on_c, 0, 36, 0
5, 19680, Note_on_c, 0, 35, 114
5, 19680, Note_on_c, 0, 47, 114
5, 20160, Note_on_c, 0, 47, 0
5, 20160, Note_on_c, 0, 35, 0
5, 20160, Note_on_c, 0, 28, 88
5, 20160, Note_on_c, 0, 40, 88
5, 20183, Note_on_c, 0, 40, 0
5, 20183, Note_on_c, 0, 28, 0
5, 20640, Note_on_c, 0, 33, 114
5, 20640, Note_on_c, 0, 45, 114
5, 21120, Note_on_c, 0, 45, 0
5, 21120, Note_on_c, 0, 33, 0
5, 21120, Note_on_c, 0, 38, 88
5, 21143, Note_on_c, 0, 38, 0
5, 21360, Note_on_c, 0, 26, 88
5, 21383, Note_on_c, 0, 26, 0
5, 21600, Note_on_c, 0, 38, 88
5, 21623, Note_on_c, 0, 38, 0
5, 22320, Note_on_c, 0, 26, 49
5, 22320, Note_on_c, 0, 38, 49
5, 22343, Note_on_c, 0, 38, 0
5, 22343, Note_on_c, 0, 26, 0
5, 22800, Note_on_c, 0, 26, 49
5, 22800, Note_on_c, 0, 38, 49
5, 22823, Note_on_c, 0, 38, 0
5, 22823, Note_on_c, 0, 26, 0
5, 23280, Note_on_c, 0, 26, 49
5, 23280, Note_on_c, 0, 38, 49
5, 23303, Note_on_c, 0, 38, 0
5, 23303, Note_on_c, 0, 26, 0
5, 23760, Note_on_c, 0, 26, 49
5, 23760, Note_on_c, 0, 38, 49
5, 23783, Note_on_c, 0, 38, 0
5, 23783, Note_on_c, 0, 26, 0
5, 24240, Note_on_c, 0, 26, 49
5, 24240, Note_on_c, 0, 38, 49
5, 24263, Note_on_c, 0, 38, 0
5, 24263, Note_on_c, 0, 26, 0
5, 24720, Note_on_c, 0, 26, 49
5, 24720, Note_on_c, 0, 38, 49
5, 24743, Note_on_c, 0, 38, 0
5, 24743, Note_on_c, 0, 26, 0
5, 25200, Note_on_c, 0, 26, 49
5, 25200, Note_on_c, 0, 38, 49
5, 25223, Note_on_c, 0, 38, 0
5, 25223, Note_on_c, 0, 26, 0
5, 25680, Note_on_c, 0, 26, 49
5, 25680, Note_on_c, 0, 38, 49
5, 25703, Note_on_c, 0, 38, 0
5, 25703, Note_on_c, 0, 26, 0
5, 25920, Note_on_c, 0, 36, 114
5, 25920, Note_on_c, 0, 48, 114
5, 26400, Note_on_c, 0, 48, 0
5, 26400, Note_on_c, 0, 36, 0
5, 26400, Note_on_c, 0, 35, 114
5, 26400, Note_on_c, 0, 47, 114
5, 26880, Note_on_c, 0, 47, 0
5, 26880, Note_on_c, 0, 35, 0
5, 26880, Note_on_c, 0, 28, 88
5, 26880, Note_on_c, 0, 40, 88
5, 26903, Note_on_c, 0, 40, 0
5, 26903, Note_on_c, 0, 28, 0
5, 27360, Note_on_c, 0, 33, 114
5, 27360, Note_on_c, 0, 45, 114
5, 27840, Note_on_c, 0, 45, 0
5, 27840, Note_on_c, 0, 33, 0
5, 27840, Note_on_c, 0, 38, 88
5, 27863, Note_on_c, 0, 38, 0
5, 28080, Note_on_c, 0, 26, 88
5, 28103, Note_on_c, 0, 26, 0
5, 28320, Note_on_c, 0, 38, 88
5, 28343, Note_on_c, 0, 38, 0
5, 28800, Note_on_c, 0, 35, 88
5, 29280, Note_on_c, 0, 35, 0
5, 29760, Note_on_c, 0, 40, 114
5, 29783, Note_on_c, 0, 40, 0
5, 30000, Note_on_c, 0, 28, 88
5, 30023, Note_on_c, 0, 28, 0
5, 30240, Note_on_c, 0, 42, 114
5, 30263, Note_on_c, 0, 42, 0
5, 30480, Note_on_c, 0, 30, 88
5, 30503, Note_on_c, 0, 30, 0
5, 30720, Note_on_c, 0, 47, 114
5, 30743, Note_on_c, 0, 47, 0
5, 30960, Note_on_c, 0, 35, 88
5, 30983, Note_on_c, 0, 35, 0
5, 31200, Note_on_c, 0, 49, 114
5, 31223, Note_on_c, 0, 49, 0
5, 31440, Note_on_c, 0, 37, 88
5, 31463, Note_on_c, 0, 37, 0
5, 31680, Note_on_c, 0, 50, 127
5, 31703, Note_on_c, 0, 50, 0
5, 31920, Note_on_c, 0, 38, 101
5, 31943, Note_on_c, 0, 38, 0
5, 32160, Note_on_c, 0, 39, 101
5, 32160, Note_on_c, 0, 51, 101
5, 32183, Note_on_c, 0, 51, 0
5, 32183, Note_on_c, 0, 39, 0
5, 32400, Note_on_c, 0, 35, 101
5, 32400, Note_on_c, 0, 47, 101
5, 32423, Note_on_c, 0, 47, 0
5, 32423, Note_on_c, 0, 35, 0
5, 32640, Note_on_c, 0, 28, 88
5, 32640, Note_on_c, 0, 40, 88
5, 33120, Note_on_c, 0, 40, 0
5, 33120, Note_on_c, 0, 28, 0
5, 33600, Note_on_c, 0, 45, 88
5, 33623, Note_on_c, 0, 45, 0
5, 33840, Note_on_c, 0, 33, 88
5, 33863, Note_on_c, 0, 33, 0
5, 34080, Note_on_c, 0, 47, 88
5, 34103, Note_on_c, 0, 47, 0
5, 34320, Note_on_c, 0, 35, 88
5, 34343, Note_on_c, 0, 35, 0
5, 34560, Note_on_c, 0, 48, 88
5, 34800, Note_on_c, 0, 48, 0
5, 34800, Note_on_c, 0, 36, 88
5, 35040, Note_on_c, 0, 36, 0
5, 35040, Note_on_c, 0, 39, 88
5, 35280, Note_on_c, 0, 39, 0
5, 35280, Note_on_c, 0, 27, 88
5, 35520, Note_on_c, 0, 27, 0
5, 35520, Note_on_c, 0, 43, 114
5, 35520, Note_on_c, 0, 55, 114
5, 36000, Note_on_c, 0, 55, 0
5, 36000, Note_on_c, 0, 43, 0
5, 36000, Note_on_c, 0, 31, 114
5, 36000, Note_on_c, 0, 43, 114
5, 36480, Note_on_c, 0, 43, 0
5, 36480, Note_on_c, 0, 31, 0
5, 37440, Note_on_c, 0, 32, 88
5, 37440, Note_on_c, 0, 44, 88
5, 37920, Note_on_c, 0, 44, 0
5, 37920, Note_on_c, 0, 32, 0
5, 37920, Note_on_c, 0, 34, 88
5, 37920, Note_on_c, 0, 46, 88
5, 38400, Note_on_c, 0, 46, 0
5, 38400, Note_on_c, 0, 34, 0
5, 38400, Note_on_c, 0, 35, 88
5, 38400, Note_on_c, 0, 47, 88
5, 38880, Note_on_c, 0, 47, 0
5, 38880, Note_on_c, 0, 35, 0
5, 38880, Note_on_c, 0, 37, 88
5, 38880, Note_on_c, 0, 49, 88
5, 39360, Note_on_c, 0, 49, 0
5, 39360, Note_on_c, 0, 37, 0
5, 39360, Note_on_c, 0, 38, 88
5, 39360, Note_on_c, 0, 50, 88
5, 39840, Note_on_c, 0, 50, 0
5, 39840, Note_on_c, 0, 38, 0
5, 39840, Note_on_c, 0, 32, 88
5, 39840, Note_on_c, 0, 44, 88
5, 40320, Note_on_c, 0, 44, 0
5, 40320, Note_on_c, 0, 32, 0
5, 40320, Note_on_c, 0, 45, 88
5, 41040, Note_on_c, 0, 45, 0
5, 41040, Note_on_c, 0, 44, 88
5, 41280, Note_on_c, 0, 44, 0
5, 41280, Note_on_c, 0, 43, 88
5, 42000, Note_on_c, 0, 43, 0
5, 42000, Note_on_c, 0, 42, 88
5, 42240, Note_on_c, 0, 42, 0
5, 42240, Note_on_c, 0, 37, 88
5, 42240, Note_on_c, 0, 49, 88
5, 42720, Note_on_c, 0, 49, 0
5, 42720, Note_on_c, 0, 37, 0
5, 42720, Note_on_c, 0, 33, 88
5, 42720, Note_on_c, 0, 45, 88
5, 43200, Note_on_c, 0, 45, 0
5, 43200, Note_on_c, 0, 33, 0
5, 43200, Note_on_c, 0, 38, 88
5, 43680, Note_on_c, 0, 38, 0
5, 45120, Note_on_c, 0, 32, 88
5, 45120, Note_on_c, 0, 44, 88
5, 45600, Note_on_c, 0, 44, 0
5, 45600, Note_on_c, 0, 32, 0
5, 45600, Note_on_c, 0, 34, 88
5, 45600, Note_on_c, 0, 46, 88
5, 46080, Note_on_c, 0, 46, 0
5, 46080, Note_on_c, 0, 34, 0
5, 46080, Note_on_c, 0, 35, 88
5, 46080, Note_on_c, 0, 47, 88
5, 46560, Note_on_c, 0, 47, 0
5, 46560, Note_on_c, 0, 35, 0
5, 46560, Note_on_c, 0, 37, 88
5, 46560, Note_on_c, 0, 49, 88
5, 47040, Note_on_c, 0, 49, 0
5, 47040, Note_on_c, 0, 37, 0
5, 47040, Note_on_c, 0, 38, 88
5, 47040, Note_on_c, 0, 50, 88
5, 47520, Note_on_c, 0, 50, 0
5, 47520, Note_on_c, 0, 38, 0
5, 47520, Note_on_c, 0, 32, 88
5, 47520, Note_on_c, 0, 44, 88
5, 48000, Note_on_c, 0, 44, 0
5, 48000, Note_on_c, 0, 32, 0
5, 48000, Note_on_c, 0, 38, 88
5, 48000, Note_on_c, 0, 50, 88
5, 48480, Note_on_c, 0, 50, 0
5, 48480, Note_on_c, 0, 38, 0
5, 48480, Note_on_c, 0, 31, 88
5, 48480, Note_on_c, 0, 43, 88
5, 48960, Note_on_c, 0, 43, 0
5, 48960, Note_on_c, 0, 31, 0
5, 48960, Note_on_c, 0, 30, 88
5, 48960, Note_on_c, 0, 42, 88
5, 49320, Note_on_c, 0, 42, 0
5, 49320, Note_on_c, 0, 30, 0
5, 49320, Note_on_c, 0, 32, 88
5, 49320, Note_on_c, 0, 44, 88
5, 49440, Note_on_c, 0, 44, 0
5, 49440, Note_on_c, 0, 32, 0
5, 49440, Note_on_c, 0, 34, 88
5, 49440, Note_on_c, 0, 46, 88
5, 49800, Note_on_c, 0, 46, 0
5, 49800, Note_on_c, 0, 34, 0
5, 49800, Note_on_c, 0, 42, 88
5, 49920, Note_on_c, 0, 42, 0
5, 49920, Note_on_c, 0, 38, 88
5, 49920, Note_on_c, 0, 50, 88
5, 49943, Note_on_c, 0, 50, 0
5, 49943, Note_on_c, 0, 38, 0
5, 50160, Note_on_c, 0, 35, 88
5, 50160, Note_on_c, 0, 47, 88
5, 50183, Note_on_c, 0, 47, 0
5, 50183, Note_on_c, 0, 35, 0
5, 50400, Note_on_c, 0, 30, 88
5, 50400, Note_on_c, 0, 42, 88
5, 50880, Note_on_c, 0, 42, 0
5, 50880, Note_on_c, 0, 30, 0
5, 50880, Note_on_c, 0, 35, 88
5, 50880, Note_on_c, 0, 47, 88
5, 51360, Note_on_c, 0, 47, 0
5, 51360, Note_on_c, 0, 35, 0
5, 51360, Note_on_c, 0, 23, 88
5, 51360, Note_on_c, 0, 35, 88
5, 51600, Note_on_c, 0, 35, 0
5, 51600, Note_on_c, 0, 23, 0
5, 51840, Note_on_c, 0, 38, 49
5, 51863, Note_on_c, 0, 38, 0
5, 52080, Note_on_c, 0, 45, 49
5, 52103, Note_on_c, 0, 45, 0
5, 52320, Note_on_c, 0, 35, 49
5, 52343, Note_on_c, 0, 35, 0
5, 52560, Note_on_c, 0, 47, 49
5, 52583, Note_on_c, 0, 47, 0
5, 52800, Note_on_c, 0, 30, 49
5, 52823, Note_on_c, 0, 30, 0
5, 53040, Note_on_c, 0, 42, 49
5, 53063, Note_on_c, 0, 42, 0
5, 53280, Note_on_c, 0, 26, 49
5, 53303, Note_on_c, 0, 26, 0
5, 53520, Note_on_c, 0, 38, 49
5, 53543, Note_on_c, 0, 38, 0
5, 53760, Note_on_c, 0, 38, 49
5, 53783, Note_on_c, 0, 38, 0
5, 54000, Note_on_c, 0, 45, 49
5, 54023, Note_on_c, 0, 45, 0
5, 54240, Note_on_c, 0, 35, 49
5, 54263, Note_on_c, 0, 35, 0
5, 54480, Note_on_c, 0, 47, 49
5, 54503, Note_on_c, 0, 47, 0
5, 54720, Note_on_c, 0, 30, 49
5, 54743, Note_on_c, 0, 30, 0
5, 54960, Note_on_c, 0, 42, 49
5, 54983, Note_on_c, 0, 42, 0
5, 55200, Note_on_c, 0, 26, 49
5, 55223, Note_on_c, 0, 26, 0
5, 55440, Note_on_c, 0, 38, 49
5, 55463, Note_on_c, 0, 38, 0
5, 55920, Note_on_c, 0, 38, 49
5, 55943, Note_on_c, 0, 38, 0
5, 56400, Note_on_c, 0, 38, 49
5, 56423, Note_on_c, 0, 38, 0
5, 56880, Note_on_c, 0, 38, 49
5, 56903, Note_on_c, 0, 38, 0
5, 57360, Note_on_c, 0, 38, 49
5, 57383, Note_on_c, 0, 38, 0
5, 57840, Note_on_c, 0, 38, 49
5, 57863, Note_on_c, 0, 38, 0
5, 58320, Note_on_c, 0, 38, 49
5, 58343, Note_on_c, 0, 38, 0
5, 58800, Note_on_c, 0, 38, 49
5, 58823, Note_on_c, 0, 38, 0
5, 59280, Note_on_c, 0, 38, 49
5, 59303, Note_on_c, 0, 38, 0
5, 59760, Note_on_c, 0, 26, 49
5, 59760, Note_on_c, 0, 38, 49
5, 59783, Note_on_c, 0, 38, 0
5, 59783, Note_on_c, 0, 26, 0
5, 60240, Note_on_c, 0, 26, 49
5, 60240, Note_on_c, 0, 38, 49
5, 60263, Note_on_c, 0, 38, 0
5, 60263, Note_on_c, 0, 26, 0
5, 60720, Note_on_c, 0, 26, 49
5, 60720, Note_on_c, 0, 38, 49
5, 60743, Note_on_c, 0, 38, 0
5, 60743, Note_on_c, 0, 26, 0
5, 61200, Note_on_c, 0, 26, 49
5, 61200, Note_on_c, 0, 38, 49
5, 61223, Note_on_c, 0, 38, 0
5, 61223, Note_on_c, 0, 26, 0
5, 61680, Note_on_c, 0, 26, 49
5, 61680, Note_on_c, 0, 38, 49
5, 61703, Note_on_c, 0, 38, 0
5, 61703, Note_on_c, 0, 26, 0
5, 62160, Note_on_c, 0, 26, 49
5, 62160, Note_on_c, 0, 38, 49
5, 62183, Note_on_c, 0, 38, 0
5, 62183, Note_on_c, 0, 26, 0
5, 62640, Note_on_c, 0, 26, 49
5, 62640, Note_on_c, 0, 38, 49
5, 62663, Note_on_c, 0, 38, 0
5, 62663, Note_on_c, 0, 26, 0
5, 63120, Note_on_c, 0, 26, 49
5, 63120, Note_on_c, 0, 38, 49
5, 63143, Note_on_c, 0, 38, 0
5, 63143, Note_on_c, 0, 26, 0
5, 63600, Note_on_c, 0, 26, 49
5, 63600, Note_on_c, 0, 38, 49
5, 63623, Note_on_c, 0, 38, 0
5, 63623, Note_on_c, 0, 26, 0
5, 64080, Note_on_c, 0, 26, 49
5, 64080, Note_on_c, 0, 38, 49
5, 64103, Note_on_c, 0, 38, 0
5, 64103, Note_on_c, 0, 26, 0
5, 64560, Note_on_c, 0, 26, 49
5, 64560, Note_on_c, 0, 38, 49
5, 64583, Note_on_c, 0, 38, 0
5, 64583, Note_on_c, 0, 26, 0
5, 65040, Note_on_c, 0, 26, 49
5, 65040, Note_on_c, 0, 38, 49
5, 65063, Note_on_c, 0, 38, 0
5, 65063, Note_on_c, 0, 26, 0
5, 65520, Note_on_c, 0, 26, 49
5, 65520, Note_on_c, 0, 38, 49
5, 65543, Note_on_c, 0, 38, 0
5, 65543, Note_on_c, 0, 26, 0
5, 66000, Note_on_c, 0, 26, 49
5, 66000, Note_on_c, 0, 38, 49
5, 66023, Note_on_c, 0, 38, 0
5, 66023, Note_on_c, 0, 26, 0
5, 66480, Note_on_c, 0, 26, 49
5, 66480, Note_on_c, 0, 38, 49
5, 66503, Note_on_c, 0, 38, 0
5, 66503, Note_on_c, 0, 26, 0
5, 66960, Note_on_c, 0, 26, 49
5, 66960, Note_on_c, 0, 38, 49
5, 66983, Note_on_c, 0, 38, 0
5, 66983, Note_on_c, 0, 26, 0
5, 67440, Note_on_c, 0, 26, 49
5, 67440, Note_on_c, 0, 38, 49
5, 67463, Note_on_c, 0, 38, 0
5, 67463, Note_on_c, 0, 26, 0
5, 67920, Note_on_c, 0, 26, 49
5, 67920, Note_on_c, 0, 38, 49
5, 67943, Note_on_c, 0, 38, 0
5, 67943, Note_on_c, 0, 26, 0
5, 68400, Note_on_c, 0, 26, 49
5, 68400, Note_on_c, 0, 38, 49
5, 68423, Note_on_c, 0, 38, 0
5, 68423, Note_on_c, 0, 26, 0
5, 68880, Note_on_c, 0, 26, 49
5, 68880, Note_on_c, 0, 38, 49
5, 68903, Note_on_c, 0, 38, 0
5, 68903, Note_on_c, 0, 26, 0
5, 69360, Note_on_c, 0, 26, 49
5, 69360, Note_on_c, 0, 38, 49
5, 69383, Note_on_c, 0, 38, 0
5, 69383, Note_on_c, 0, 26, 0
5, 69840, Note_on_c, 0, 26, 49
5, 69840, Note_on_c, 0, 38, 49
5, 69863, Note_on_c, 0, 38, 0
5, 69863, Note_on_c, 0, 26, 0
5, 70320, Note_on_c, 0, 26, 49
5, 70320, Note_on_c, 0, 38, 49
5, 70343, Note_on_c, 0, 38, 0
5, 70343, Note_on_c, 0, 26, 0
5, 70800, Note_on_c, 0, 26, 49
5, 70800, Note_on_c, 0, 38, 49
5, 70823, Note_on_c, 0, 38, 0
5, 70823, Note_on_c, 0, 26, 0
5, 71040, Note_on_c, 0, 36, 114
5, 71040, Note_on_c, 0, 48, 114
5, 71520, Note_on_c, 0, 48, 0
5, 71520, Note_on_c, 0, 36, 0
5, 71520, Note_on_c, 0, 35, 114
5, 71520, Note_on_c, 0, 47, 114
5, 72000, Note_on_c, 0, 47, 0
5, 72000, Note_on_c, 0, 35, 0
5, 72000, Note_on_c, 0, 28, 88
5, 72000, Note_on_c, 0, 40, 88
5, 72023, Note_on_c, 0, 40, 0
5, 72023, Note_on_c, 0, 28, 0
5, 72480, Note_on_c, 0, 33, 114
5, 72480, Note_on_c, 0, 45, 114
5, 72960, Note_on_c, 0, 45, 0
5, 72960, Note_on_c, 0, 33, 0
5, 72960, Note_on_c, 0, 38, 88
5, 72983, Note_on_c, 0, 38, 0
5, 73200, Note_on_c, 0, 26, 88
5, 73223, Note_on_c, 0, 26, 0
5, 73440, Note_on_c, 0, 38, 88
5, 73463, Note_on_c, 0, 38, 0
5, 74160, Note_on_c, 0, 38, 49
5, 74183, Note_on_c, 0, 38, 0
5, 74640, Note_on_c, 0, 38, 49
5, 74663, Note_on_c, 0, 38, 0
5, 75120, Note_on_c, 0, 38, 49
5, 75143, Note_on_c, 0, 38, 0
5, 75600, Note_on_c, 0, 38, 49
5, 75623, Note_on_c, 0, 38, 0
5, 76080, Note_on_c, 0, 38, 49
5, 76103, Note_on_c, 0, 38, 0
5, 76560, Note_on_c, 0, 38, 49
5, 76583, Note_on_c, 0, 38, 0
5, 77040, Note_on_c, 0, 38, 49
5, 77063, Note_on_c, 0, 38, 0
5, 77520, Note_on_c, 0, 38, 49
5, 77543, Note_on_c, 0, 38, 0
5, 77760, Note_on_c, 0, 36, 88
5, 77760, Note_on_c, 0, 48, 88
5, 78240, Note_on_c, 0, 48, 0
5, 78240, Note_on_c, 0, 36, 0
5, 78240, Note_on_c, 0, 35, 88
5, 78240, Note_on_c, 0, 47, 88
5, 78720, Note_on_c, 0, 47, 0
5, 78720, Note_on_c, 0, 35, 0
5, 78720, Note_on_c, 0, 28, 88
5, 78720, Note_on_c, 0, 40, 88
5, 79200, Note_on_c, 0, 40, 0
5, 79200, Note_on_c, 0, 28, 0
5, 79200, Note_on_c, 0, 33, 88
5, 79200, Note_on_c, 0, 45, 88
5, 79680, Note_on_c, 0, 45, 0
5, 79680, Note_on_c, 0, 33, 0
5, 79680, Note_on_c, 0, 38, 88
5, 79680, Note_on_c, 0, 50, 88
5, 79703, Note_on_c, 0, 50, 0
5, 79703, Note_on_c, 0, 38, 0
5, 79920, Note_on_c, 0, 36, 114
5, 79920, Note_on_c, 0, 48, 114
5, 80400, Note_on_c, 0, 48, 0
5, 80400, Note_on_c, 0, 36, 0
5, 80400, Note_on_c, 0, 35, 88
5, 80400, Note_on_c, 0, 47, 88
5, 80423, Note_on_c, 0, 47, 0
5, 80423, Note_on_c, 0, 35, 0
5, 80640, Note_on_c, 0, 28, 88
5, 80640, Note_on_c, 0, 40, 88
5, 80663, Note_on_c, 0, 40, 0
5, 80663, Note_on_c, 0, 28, 0
5, 81120, Note_on_c, 0, 33, 114
5, 81120, Note_on_c, 0, 45, 114
5, 81600, Note_on_c, 0, 45, 0
5, 81600, Note_on_c, 0, 33, 0
5, 81600, Note_on_c, 0, 26, 88
5, 81600, Note_on_c, 0, 38, 88
5, 81623, Note_on_c, 0, 38, 0
5, 81623, Note_on_c, 0, 26, 0
5, 82080, Note_on_c, 0, 26, 88
5, 82080, Note_on_c, 0, 38, 88
5, 82103, Note_on_c, 0, 38, 0
5, 82103, Note_on_c, 0, 26, 0
5, 83040, Note_on_c, 0, 26, 88
5, 83040, Note_on_c, 0, 38, 88
5, 83063, Note_on_c, 0, 38, 0
5, 83063, Note_on_c, 0, 26, 0
5, 83520, Note_on_c, 0, 26, 88
5, 83520, Note_on_c, 0, 38, 88
5, 86400, Note_on_c, 0, 38, 0
5, 86400, Note_on_c, 0, 26, 0
5, 86400, End_track
0, 0, End_of_file
