0, 0, Header, 1, 5, 480
1, 0, Start_track
1, 0, Title_t, "brahms hungarian dance no.20 in e minor, 4 hands"
1, 0, Copyright_t, "Segundo G. Yogore,  dody@info.com.ph \012__________________________________________________________\012Kunst der Fuge comment: this is the Contributor's property.\012Can *not* be used for commercial purposes without authorization!\012Copyright by Contributor - Kunst der Fuge, © 2002-05\012http://www.kunstderfuge.com/thanks.htm -> Contributors' list\012http://www.kunstderfuge.com/notes.htm -> Terms & conditions"
1, 0, Text_t, "sequenced by Segundo G. Yogore,  2004\012"
1, 0, Time_signature, 1, 2, 24, 8
1, 0, Key_signature, 1, "major"
1, 0, Tempo, 545455
1, 480, Time_signature, 2, 2, 24, 8
1, 22560, Time_signature, 3, 2, 24, 8
1, 24000, Time_signature, 2, 2, 24, 8
1, 24000, Key_signature, 4, "major"
1, 24000, Tempo, 400000
1, 46080, Time_signature, 5, 3, 12, 8
1, 47280, Time_signature, 3, 2, 24, 8
1, 50160, Time_signature, 2, 2, 24, 8
1, 50160, Key_signature, 1, "major"
1, 50160, Tempo, 545455
1, 70560, Tempo, 566038
1, 70800, Tempo, 588235
1, 71040, Tempo, 612245
1, 71280, Tempo, 638298
1, 71520, Tempo, 666667
1, 71760, Tempo, 697674
1, 72000, Tempo, 731707
1, 72240, Time_signature, 6, 2, 24, 8
1, 72240, End_track
2, 0, Start_track
2, 0, Title_t, "Grand Piano"
2, 0, Program_c, 0, 0
2, 0, Control_c, 0, 7, 110
2, 0, Control_c, 0, 10, 97
2, 240, Note_on_c, 0, 59, 62
2, 480, Note_on_c, 0, 59, 0
2, 480, Note_on_c, 0, 64, 62
2, 1200, Note_on_c, 0, 64, 0
2, 1200, Note_on_c, 0, 66, 62
2, 1440, Note_on_c, 0, 66, 0
2, 1440, Note_on_c, 0, 67, 62
2, 1920, Note_on_c, 0, 67, 0
2, 1920, Note_on_c, 0, 69, 75
2, 2160, Note_on_c, 0, 69, 0
2, 2160, Note_on_c, 0, 70, 75
2, 2340, Note_on_c, 0, 72, 75
2, 2400, Note_on_c, 0, 72, 0
2, 2400, Note_on_c, 0, 70, 0
2, 2400, Note_on_c, 0, 71, 75
2, 2520, Note_on_c, 0, 71, 0
2, 2520, Note_on_c, 0, 70, 75
2, 2640, Note_on_c, 0, 70, 0
2, 2640, Note_on_c, 0, 71, 88
2, 2880, Note_on_c, 0, 71, 0
2, 2880, Note_on_c, 0, 72, 88
2, 3240, Note_on_c, 0, 72, 0
2, 3240, Note_on_c, 0, 71, 75
2, 3360, Note_on_c, 0, 71, 0
2, 3360, Note_on_c, 0, 71, 62
2, 4080, Note_on_c, 0, 71, 0
2, 4080, Note_on_c, 0, 59, 62
2, 4320, Note_on_c, 0, 59, 0
2, 4320, Note_on_c, 0, 64, 62
2, 5040, Note_on_c, 0, 64, 0
2, 5040, Note_on_c, 0, 66, 62
2, 5280, Note_on_c, 0, 66, 0
2, 5280, Note_on_c, 0, 67, 62
2, 5760, Note_on_c, 0, 67, 0
2, 5760, Note_on_c, 0, 69, 75
2, 6000, Note_on_c, 0, 69, 0
2, 6000, Note_on_c, 0, 70, 75
2, 6180, Note_on_c, 0, 72, 75
2, 6240, Note_on_c, 0, 72, 0
2, 6240, Note_on_c, 0, 70, 0
2, 6240, Note_on_c, 0, 71, 75
2, 6360, Note_on_c, 0, 71, 0
2, 6360, Note_on_c, 0, 70, 75
2, 6480, Note_on_c, 0, 70, 0
2, 6480, Note_on_c, 0, 71, 88
2, 6720, Note_on_c, 0, 71, 0
2, 6720, Note_on_c, 0, 72, 88
2, 7080, Note_on_c, 0, 72, 0
2, 7080, Note_on_c, 0, 71, 75
2, 7200, Note_on_c, 0, 71, 0
2, 7200, Note_on_c, 0, 71, 62
2, 7920, Note_on_c, 0, 71, 0
2, 7920, Note_on_c, 0, 83, 75
2, 8160, Note_on_c, 0, 83, 0
2, 8160, Note_on_c, 0, 86, 75
2, 8880, Note_on_c, 0, 86, 0
2, 8880, Note_on_c, 0, 84, 75
2, 9120, Note_on_c, 0, 84, 0
2, 9120, Note_on_c, 0, 84, 75
2, 9480, Note_on_c, 0, 84, 0
2, 9480, Note_on_c, 0, 83, 75
2, 9600, Note_on_c, 0, 83, 0
2, 9600, Note_on_c, 0, 83, 75
2, 9960, Note_on_c, 0, 83, 0
2, 9960, Note_on_c, 0, 81, 75
2, 10020, Note_on_c, 0, 83, 75
2, 10080, Note_on_c, 0, 83, 0
2, 10080, Note_on_c, 0, 81, 0
2, 10080, Note_on_c, 0, 81, 75
2, 10200, Note_on_c, 0, 81, 0
2, 10200, Note_on_c, 0, 80, 75
2, 10320, Note_on_c, 0, 80, 0
2, 10320, Note_on_c, 0, 81, 75
2, 10560, Note_on_c, 0, 81, 0
2, 10560, Note_on_c, 0, 84, 75
2, 10920, Note_on_c, 0, 84, 0
2, 10920, Note_on_c, 0, 83, 75
2, 11040, Note_on_c, 0, 83, 0
2, 11040, Note_on_c, 0, 83, 75
2, 11520, Note_on_c, 0, 83, 0
2, 15600, Note_on_c, 0, 83, 75
2, 15840, Note_on_c, 0, 83, 0
2, 15840, Note_on_c, 0, 86, 75
2, 16479, Note_on_c, 0, 86, 0
2, 16479, Note_on_c, 0, 90, 75
2, 16640, Note_on_c, 0, 90, 0
2, 16640, Note_on_c, 0, 88, 75
2, 16800, Note_on_c, 0, 88, 0
2, 16800, Control_c, 0, 64, 127
2, 16800, Note_on_c, 0, 86, 75
2, 16920, Note_on_c, 0, 86, 0
2, 16920, Note_on_c, 0, 84, 75
2, 17040, Note_on_c, 0, 84, 0
2, 17040, Note_on_c, 0, 88, 75
2, 17160, Note_on_c, 0, 88, 0
2, 17160, Control_c, 0, 64, 0
2, 17160, Note_on_c, 0, 86, 75
2, 17280, Note_on_c, 0, 86, 0
2, 17280, Control_c, 0, 64, 127
2, 17280, Note_on_c, 0, 84, 75
2, 17400, Note_on_c, 0, 84, 0
2, 17400, Note_on_c, 0, 83, 75
2, 17520, Note_on_c, 0, 83, 0
2, 17520, Note_on_c, 0, 86, 75
2, 17640, Note_on_c, 0, 86, 0
2, 17640, Control_c, 0, 64, 0
2, 17640, Note_on_c, 0, 84, 75
2, 17760, Note_on_c, 0, 84, 0
2, 17760, Control_c, 0, 64, 127
2, 17760, Note_on_c, 0, 83, 75
2, 17856, Note_on_c, 0, 83, 0
2, 17856, Note_on_c, 0, 80, 75
2, 17952, Note_on_c, 0, 80, 0
2, 17952, Note_on_c, 0, 81, 88
2, 18047, Note_on_c, 0, 81, 0
2, 18047, Note_on_c, 0, 84, 88
2, 18143, Note_on_c, 0, 84, 0
2, 18143, Control_c, 0, 64, 0
2, 18143, Note_on_c, 0, 88, 88
2, 18240, Note_on_c, 0, 88, 0
2, 18240, Note_on_c, 0, 96, 88
2, 18255, Note_on_c, 0, 96, 0
2, 18360, Note_on_c, 0, 93, 88
2, 18375, Note_on_c, 0, 93, 0
2, 18480, Note_on_c, 0, 90, 75
2, 18495, Note_on_c, 0, 90, 0
2, 18600, Note_on_c, 0, 86, 75
2, 18615, Note_on_c, 0, 86, 0
2, 18720, Note_on_c, 0, 84, 75
2, 18960, Note_on_c, 0, 84, 0
2, 18960, Note_on_c, 0, 83, 75
2, 19440, Note_on_c, 0, 83, 0
2, 19440, Note_on_c, 0, 71, 62
2, 19680, Note_on_c, 0, 71, 0
2, 19680, Note_on_c, 0, 76, 62
2, 20400, Note_on_c, 0, 76, 0
2, 20400, Note_on_c, 0, 78, 62
2, 20640, Note_on_c, 0, 78, 0
2, 20640, Note_on_c, 0, 79, 62
2, 21120, Note_on_c, 0, 79, 0
2, 21120, Note_on_c, 0, 81, 75
2, 21360, Note_on_c, 0, 81, 0
2, 21360, Note_on_c, 0, 82, 75
2, 21540, Note_on_c, 0, 84, 75
2, 21600, Note_on_c, 0, 84, 0
2, 21600, Note_on_c, 0, 82, 0
2, 21600, Note_on_c, 0, 83, 75
2, 21615, Note_on_c, 0, 83, 0
2, 21720, Note_on_c, 0, 82, 88
2, 21735, Note_on_c, 0, 82, 0
2, 21840, Note_on_c, 0, 83, 88
2, 22080, Note_on_c, 0, 83, 0
2, 22080, Note_on_c, 0, 83, 88
2, 22440, Note_on_c, 0, 83, 0
2, 22440, Note_on_c, 0, 75, 75
2, 22560, Note_on_c, 0, 75, 0
2, 22560, Note_on_c, 0, 76, 62
2, 23040, Note_on_c, 0, 76, 0
2, 24480, Note_on_c, 0, 80, 88
2, 24600, Note_on_c, 0, 80, 0
2, 24600, Note_on_c, 0, 71, 62
2, 24720, Note_on_c, 0, 71, 0
2, 24720, Note_on_c, 0, 80, 88
2, 24840, Note_on_c, 0, 80, 0
2, 24840, Note_on_c, 0, 71, 62
2, 24960, Note_on_c, 0, 71, 0
2, 25440, Note_on_c, 0, 81, 88
2, 25560, Note_on_c, 0, 81, 0
2, 25560, Note_on_c, 0, 71, 62
2, 25680, Note_on_c, 0, 71, 0
2, 25680, Note_on_c, 0, 81, 88
2, 25800, Note_on_c, 0, 81, 0
2, 25800, Note_on_c, 0, 71, 62
2, 25920, Note_on_c, 0, 71, 0
2, 26400, Note_on_c, 0, 80, 88
2, 26520, Note_on_c, 0, 80, 0
2, 26520, Note_on_c, 0, 71, 62
2, 26640, Note_on_c, 0, 71, 0
2, 26640, Note_on_c, 0, 80, 88
2, 26760, Note_on_c, 0, 80, 0
2, 26760, Note_on_c, 0, 71, 62
2, 26880, Note_on_c, 0, 71, 0
2, 27360, Note_on_c, 0, 81, 88
2, 27480, Note_on_c, 0, 81, 0
2, 27480, Note_on_c, 0, 71, 62
2, 27600, Note_on_c, 0, 71, 0
2, 27600, Note_on_c, 0, 81, 88
2, 27720, Note_on_c, 0, 81, 0
2, 27720, Note_on_c, 0, 71, 62
2, 27840, Note_on_c, 0, 71, 0
2, 28080, Note_on_c, 0, 81, 62
2, 28200, Note_on_c, 0, 81, 0
2, 28200, Note_on_c, 0, 71, 62
2, 28320, Note_on_c, 0, 71, 0
2, 28560, Note_on_c, 0, 81, 62
2, 28680, Note_on_c, 0, 81, 0
2, 28680, Note_on_c, 0, 71, 62
2, 28800, Note_on_c, 0, 71, 0
2, 29040, Note_on_c, 0, 80, 62
2, 29160, Note_on_c, 0, 80, 0
2, 29160, Note_on_c, 0, 71, 62
2, 29280, Note_on_c, 0, 71, 0
2, 29520, Note_on_c, 0, 80, 62
2, 29640, Note_on_c, 0, 80, 0
2, 29640, Note_on_c, 0, 71, 62
2, 29760, Note_on_c, 0, 71, 0
2, 30000, Note_on_c, 0, 83, 62
2, 30120, Note_on_c, 0, 83, 0
2, 30120, Note_on_c, 0, 71, 62
2, 30135, Note_on_c, 0, 71, 0
2, 30240, Note_on_c, 0, 83, 62
2, 30360, Note_on_c, 0, 83, 0
2, 30360, Note_on_c, 0, 73, 62
2, 30375, Note_on_c, 0, 73, 0
2, 30480, Note_on_c, 0, 83, 62
2, 30600, Note_on_c, 0, 83, 0
2, 30600, Note_on_c, 0, 75, 62
2, 30615, Note_on_c, 0, 75, 0
2, 30960, Note_on_c, 0, 83, 75
2, 31080, Note_on_c, 0, 83, 0
2, 31080, Note_on_c, 0, 75, 75
2, 31200, Note_on_c, 0, 75, 0
2, 31200, Note_on_c, 0, 83, 75
2, 31320, Note_on_c, 0, 83, 0
2, 31320, Note_on_c, 0, 76, 75
2, 31440, Note_on_c, 0, 76, 0
2, 31440, Note_on_c, 0, 83, 75
2, 31560, Note_on_c, 0, 83, 0
2, 31560, Note_on_c, 0, 80, 75
2, 31680, Note_on_c, 0, 80, 0
2, 31920, Note_on_c, 0, 83, 75
2, 32040, Note_on_c, 0, 83, 0
2, 32040, Note_on_c, 0, 77, 75
2, 32160, Note_on_c, 0, 77, 0
2, 32160, Note_on_c, 0, 83, 75
2, 32280, Note_on_c, 0, 83, 0
2, 32280, Note_on_c, 0, 78, 75
2, 32400, Note_on_c, 0, 78, 0
2, 32400, Note_on_c, 0, 83, 75
2, 32520, Note_on_c, 0, 83, 0
2, 32520, Note_on_c, 0, 80, 75
2, 32640, Note_on_c, 0, 80, 0
2, 32880, Note_on_c, 0, 83, 75
2, 33000, Note_on_c, 0, 83, 0
2, 33000, Note_on_c, 0, 75, 75
2, 33120, Note_on_c, 0, 75, 0
2, 33120, Note_on_c, 0, 83, 75
2, 33240, Note_on_c, 0, 83, 0
2, 33240, Note_on_c, 0, 76, 75
2, 33360, Note_on_c, 0, 76, 0
2, 33360, Note_on_c, 0, 83, 75
2, 33480, Note_on_c, 0, 83, 0
2, 33480, Note_on_c, 0, 80, 75
2, 33600, Note_on_c, 0, 80, 0
2, 33840, Note_on_c, 0, 95, 88
2, 33863, Note_on_c, 0, 95, 0
2, 34080, Note_on_c, 0, 93, 88
2, 34103, Note_on_c, 0, 93, 0
2, 34320, Note_on_c, 0, 90, 88
2, 34343, Note_on_c, 0, 90, 0
2, 34560, Note_on_c, 0, 88, 114
2, 34560, Note_on_c, 0, 100, 114
2, 34583, Note_on_c, 0, 100, 0
2, 34583, Note_on_c, 0, 88, 0
2, 35040, Control_c, 0, 64, 127
2, 35040, Note_on_c, 0, 70, 114
2, 35160, Note_on_c, 0, 70, 0
2, 35160, Note_on_c, 0, 71, 88
2, 35280, Note_on_c, 0, 71, 0
2, 35280, Note_on_c, 0, 70, 88
2, 35340, Note_on_c, 0, 70, 0
2, 35340, Note_on_c, 0, 71, 88
2, 35400, Note_on_c, 0, 71, 0
2, 35400, Note_on_c, 0, 70, 88
2, 35460, Note_on_c, 0, 70, 0
2, 35460, Control_c, 0, 64, 0
2, 35460, Note_on_c, 0, 71, 88
2, 35520, Note_on_c, 0, 71, 0
2, 35520, Note_on_c, 0, 71, 114
2, 35880, Note_on_c, 0, 71, 0
2, 35880, Note_on_c, 0, 73, 88
2, 35895, Note_on_c, 0, 73, 0
2, 36000, Note_on_c, 0, 75, 88
2, 36023, Note_on_c, 0, 75, 0
2, 36240, Note_on_c, 0, 76, 88
2, 36263, Note_on_c, 0, 76, 0
2, 36360, Note_on_c, 0, 78, 88
2, 36420, Note_on_c, 0, 78, 0
2, 36420, Note_on_c, 0, 80, 88
2, 36480, Note_on_c, 0, 80, 0
2, 36480, Note_on_c, 0, 78, 114
2, 36840, Note_on_c, 0, 78, 0
2, 36840, Note_on_c, 0, 77, 88
2, 36855, Note_on_c, 0, 77, 0
2, 36960, Note_on_c, 0, 78, 88
2, 36983, Note_on_c, 0, 78, 0
2, 37140, Note_on_c, 0, 78, 88
2, 37200, Note_on_c, 0, 78, 0
2, 37200, Note_on_c, 0, 80, 88
2, 37223, Note_on_c, 0, 80, 0
2, 37320, Note_on_c, 0, 76, 88
2, 37380, Note_on_c, 0, 76, 0
2, 37380, Note_on_c, 0, 78, 88
2, 37440, Note_on_c, 0, 78, 0
2, 37440, Note_on_c, 0, 76, 114
2, 37800, Note_on_c, 0, 76, 0
2, 37800, Note_on_c, 0, 75, 88
2, 37815, Note_on_c, 0, 75, 0
2, 37920, Note_on_c, 0, 76, 88
2, 37943, Note_on_c, 0, 76, 0
2, 38160, Note_on_c, 0, 76, 88
2, 38280, Note_on_c, 0, 76, 0
2, 38280, Note_on_c, 0, 80, 88
2, 38295, Note_on_c, 0, 80, 0
2, 38400, Note_on_c, 0, 78, 88
2, 38460, Note_on_c, 0, 78, 0
2, 38460, Note_on_c, 0, 80, 88
2, 38520, Note_on_c, 0, 80, 0
2, 38520, Note_on_c, 0, 78, 114
2, 38760, Note_on_c, 0, 78, 0
2, 38760, Note_on_c, 0, 77, 88
2, 38775, Note_on_c, 0, 77, 0
2, 38880, Note_on_c, 0, 78, 88
2, 38895, Note_on_c, 0, 78, 0
2, 39120, Note_on_c, 0, 78, 114
2, 39600, Note_on_c, 0, 78, 0
2, 39600, Note_on_c, 0, 78, 101
2, 39720, Note_on_c, 0, 78, 0
2, 39720, Note_on_c, 0, 77, 101
2, 39735, Note_on_c, 0, 77, 0
2, 39840, Note_on_c, 0, 78, 101
2, 39863, Note_on_c, 0, 78, 0
2, 40080, Note_on_c, 0, 78, 101
2, 40200, Note_on_c, 0, 78, 0
2, 40200, Note_on_c, 0, 80, 101
2, 40215, Note_on_c, 0, 80, 0
2, 40320, Note_on_c, 0, 76, 101
2, 40380, Note_on_c, 0, 76, 0
2, 40380, Note_on_c, 0, 78, 101
2, 40440, Note_on_c, 0, 78, 0
2, 40440, Note_on_c, 0, 76, 127
2, 40680, Note_on_c, 0, 76, 0
2, 40680, Note_on_c, 0, 75, 101
2, 40695, Note_on_c, 0, 75, 0
2, 40800, Note_on_c, 0, 76, 101
2, 40823, Note_on_c, 0, 76, 0
2, 41040, Note_on_c, 0, 88, 88
2, 41160, Note_on_c, 0, 88, 0
2, 41160, Note_on_c, 0, 92, 88
2, 41175, Note_on_c, 0, 92, 0
2, 41280, Note_on_c, 0, 83, 114
2, 41520, Note_on_c, 0, 83, 0
2, 41520, Note_on_c, 0, 82, 88
2, 41535, Note_on_c, 0, 82, 0
2, 41640, Note_on_c, 0, 83, 88
2, 41655, Note_on_c, 0, 83, 0
2, 41760, Note_on_c, 0, 85, 88
2, 41783, Note_on_c, 0, 85, 0
2, 42000, Note_on_c, 0, 87, 88
2, 42023, Note_on_c, 0, 87, 0
2, 42120, Note_on_c, 0, 88, 88
2, 42180, Note_on_c, 0, 88, 0
2, 42180, Note_on_c, 0, 90, 88
2, 42240, Note_on_c, 0, 90, 0
2, 42240, Note_on_c, 0, 88, 114
2, 42600, Note_on_c, 0, 88, 0
2, 42600, Note_on_c, 0, 87, 88
2, 42615, Note_on_c, 0, 87, 0
2, 42720, Note_on_c, 0, 88, 88
2, 42743, Note_on_c, 0, 88, 0
2, 42960, Note_on_c, 0, 88, 88
2, 43080, Note_on_c, 0, 88, 0
2, 43080, Note_on_c, 0, 92, 88
2, 43095, Note_on_c, 0, 92, 0
2, 43200, Note_on_c, 0, 90, 88
2, 43223, Note_on_c, 0, 90, 0
2, 43440, Note_on_c, 0, 90, 88
2, 43560, Note_on_c, 0, 90, 0
2, 43560, Note_on_c, 0, 89, 88
2, 43575, Note_on_c, 0, 89, 0
2, 43680, Note_on_c, 0, 90, 88
2, 43703, Note_on_c, 0, 90, 0
2, 43920, Note_on_c, 0, 90, 88
2, 44040, Note_on_c, 0, 90, 0
2, 44040, Note_on_c, 0, 92, 88
2, 44040, Note_on_c, 0, 88, 88
2, 44055, Note_on_c, 0, 92, 0
2, 44100, Note_on_c, 0, 88, 0
2, 44100, Note_on_c, 0, 90, 88
2, 44160, Note_on_c, 0, 90, 0
2, 44160, Note_on_c, 0, 88, 114
2, 44520, Note_on_c, 0, 88, 0
2, 44520, Note_on_c, 0, 87, 88
2, 44535, Note_on_c, 0, 87, 0
2, 44640, Note_on_c, 0, 88, 88
2, 44663, Note_on_c, 0, 88, 0
2, 44880, Note_on_c, 0, 88, 88
2, 45000, Note_on_c, 0, 88, 0
2, 45000, Note_on_c, 0, 92, 88
2, 45015, Note_on_c, 0, 92, 0
2, 45120, Note_on_c, 0, 83, 88
2, 45180, Note_on_c, 0, 83, 0
2, 45180, Note_on_c, 0, 85, 88
2, 45240, Note_on_c, 0, 85, 0
2, 45240, Note_on_c, 0, 83, 88
2, 45360, Note_on_c, 0, 83, 0
2, 45360, Note_on_c, 0, 82, 88
2, 45375, Note_on_c, 0, 82, 0
2, 45480, Note_on_c, 0, 83, 88
2, 45495, Note_on_c, 0, 83, 0
2, 45600, Note_on_c, 0, 85, 88
2, 45623, Note_on_c, 0, 85, 0
2, 45840, Note_on_c, 0, 87, 88
2, 45863, Note_on_c, 0, 87, 0
2, 46080, Note_on_c, 0, 88, 88
2, 46080, Note_on_c, 0, 100, 88
2, 46320, Note_on_c, 0, 100, 0
2, 46320, Note_on_c, 0, 88, 0
2, 46560, Control_c, 0, 64, 127
2, 46560, Note_on_c, 0, 82, 88
2, 46680, Note_on_c, 0, 82, 0
2, 46680, Note_on_c, 0, 83, 88
2, 46800, Note_on_c, 0, 83, 0
2, 46800, Note_on_c, 0, 82, 88
2, 46860, Note_on_c, 0, 82, 0
2, 46860, Note_on_c, 0, 83, 88
2, 46920, Note_on_c, 0, 83, 0
2, 46920, Note_on_c, 0, 82, 88
2, 46980, Note_on_c, 0, 82, 0
2, 46980, Note_on_c, 0, 83, 88
2, 47040, Note_on_c, 0, 83, 0
2, 47040, Note_on_c, 0, 82, 88
2, 47160, Note_on_c, 0, 82, 0
2, 47160, Control_c, 0, 64, 0
2, 47160, Note_on_c, 0, 82, 88
2, 47280, Note_on_c, 0, 82, 0
2, 47280, Note_on_c, 0, 83, 88
2, 48720, Note_on_c, 0, 83, 0
2, 48720, Note_on_c, 0, 75, 62
2, 49920, Note_on_c, 0, 75, 0
2, 49920, Note_on_c, 0, 59, 75
2, 50160, Note_on_c, 0, 59, 0
2, 50160, Note_on_c, 0, 64, 75
2, 50880, Note_on_c, 0, 64, 0
2, 50880, Note_on_c, 0, 66, 75
2, 51120, Note_on_c, 0, 66, 0
2, 51120, Note_on_c, 0, 67, 75
2, 51600, Note_on_c, 0, 67, 0
2, 51600, Note_on_c, 0, 69, 75
2, 51840, Note_on_c, 0, 69, 0
2, 51840, Note_on_c, 0, 70, 75
2, 52020, Note_on_c, 0, 72, 75
2, 52080, Note_on_c, 0, 72, 0
2, 52080, Note_on_c, 0, 70, 0
2, 52080, Note_on_c, 0, 71, 75
2, 52200, Note_on_c, 0, 71, 0
2, 52200, Note_on_c, 0, 70, 75
2, 52320, Note_on_c, 0, 70, 0
2, 52320, Note_on_c, 0, 71, 88
2, 52560, Note_on_c, 0, 71, 0
2, 52560, Note_on_c, 0, 72, 88
2, 52920, Note_on_c, 0, 72, 0
2, 52920, Note_on_c, 0, 71, 75
2, 53040, Note_on_c, 0, 71, 0
2, 53040, Note_on_c, 0, 71, 62
2, 53760, Note_on_c, 0, 71, 0
2, 53760, Note_on_c, 0, 59, 62
2, 54000, Note_on_c, 0, 59, 0
2, 54000, Note_on_c, 0, 64, 62
2, 54720, Note_on_c, 0, 64, 0
2, 54720, Note_on_c, 0, 66, 62
2, 54960, Note_on_c, 0, 66, 0
2, 54960, Note_on_c, 0, 67, 62
2, 55440, Note_on_c, 0, 67, 0
2, 55440, Note_on_c, 0, 69, 75
2, 55680, Note_on_c, 0, 69, 0
2, 55680, Note_on_c, 0, 70, 75
2, 55860, Note_on_c, 0, 72, 75
2, 55920, Note_on_c, 0, 72, 0
2, 55920, Note_on_c, 0, 70, 0
2, 55920, Note_on_c, 0, 71, 75
2, 56040, Note_on_c, 0, 71, 0
2, 56040, Note_on_c, 0, 70, 75
2, 56160, Note_on_c, 0, 70, 0
2, 56160, Note_on_c, 0, 71, 88
2, 56400, Note_on_c, 0, 71, 0
2, 56400, Note_on_c, 0, 72, 88
2, 56760, Note_on_c, 0, 72, 0
2, 56760, Note_on_c, 0, 71, 75
2, 56880, Note_on_c, 0, 71, 0
2, 56880, Note_on_c, 0, 71, 62
2, 57600, Note_on_c, 0, 71, 0
2, 57600, Note_on_c, 0, 83, 75
2, 57840, Note_on_c, 0, 83, 0
2, 57840, Note_on_c, 0, 86, 75
2, 58560, Note_on_c, 0, 86, 0
2, 58560, Note_on_c, 0, 84, 75
2, 58800, Note_on_c, 0, 84, 0
2, 58800, Note_on_c, 0, 84, 75
2, 59160, Note_on_c, 0, 84, 0
2, 59160, Note_on_c, 0, 83, 75
2, 59280, Note_on_c, 0, 83, 0
2, 59280, Note_on_c, 0, 83, 75
2, 59640, Note_on_c, 0, 83, 0
2, 59640, Note_on_c, 0, 81, 75
2, 59700, Note_on_c, 0, 83, 75
2, 59760, Note_on_c, 0, 83, 0
2, 59760, Note_on_c, 0, 81, 0
2, 59760, Note_on_c, 0, 81, 75
2, 59880, Note_on_c, 0, 81, 0
2, 59880, Note_on_c, 0, 80, 75
2, 60000, Note_on_c, 0, 80, 0
2, 60000, Note_on_c, 0, 81, 75
2, 60240, Note_on_c, 0, 81, 0
2, 60240, Note_on_c, 0, 84, 75
2, 60600, Note_on_c, 0, 84, 0
2, 60600, Note_on_c, 0, 83, 75
2, 60720, Note_on_c, 0, 83, 0
2, 60720, Note_on_c, 0, 83, 75
2, 61200, Note_on_c, 0, 83, 0
2, 65280, Note_on_c, 0, 83, 75
2, 65520, Note_on_c, 0, 83, 0
2, 65520, Note_on_c, 0, 86, 75
2, 66159, Note_on_c, 0, 86, 0
2, 66159, Note_on_c, 0, 90, 75
2, 66320, Note_on_c, 0, 90, 0
2, 66320, Note_on_c, 0, 88, 75
2, 66480, Note_on_c, 0, 88, 0
2, 66480, Control_c, 0, 64, 127
2, 66480, Note_on_c, 0, 86, 75
2, 66600, Note_on_c, 0, 86, 0
2, 66600, Note_on_c, 0, 84, 75
2, 66720, Note_on_c, 0, 84, 0
2, 66720, Note_on_c, 0, 88, 75
2, 66840, Note_on_c, 0, 88, 0
2, 66840, Control_c, 0, 64, 0
2, 66840, Note_on_c, 0, 86, 75
2, 66960, Note_on_c, 0, 86, 0
2, 66960, Control_c, 0, 64, 127
2, 66960, Note_on_c, 0, 84, 75
2, 67080, Note_on_c, 0, 84, 0
2, 67080, Note_on_c, 0, 83, 75
2, 67200, Note_on_c, 0, 83, 0
2, 67200, Note_on_c, 0, 86, 75
2, 67320, Note_on_c, 0, 86, 0
2, 67320, Control_c, 0, 64, 0
2, 67320, Note_on_c, 0, 84, 75
2, 67440, Note_on_c, 0, 84, 0
2, 67440, Control_c, 0, 64, 127
2, 67440, Note_on_c, 0, 83, 75
2, 67536, Note_on_c, 0, 83, 0
2, 67536, Note_on_c, 0, 80, 75
2, 67632, Note_on_c, 0, 80, 0
2, 67632, Note_on_c, 0, 81, 88
2, 67727, Note_on_c, 0, 81, 0
2, 67727, Note_on_c, 0, 84, 88
2, 67823, Note_on_c, 0, 84, 0
2, 67823, Control_c, 0, 64, 0
2, 67823, Note_on_c, 0, 88, 88
2, 67920, Note_on_c, 0, 88, 0
2, 67920, Note_on_c, 0, 96, 88
2, 67935, Note_on_c, 0, 96, 0
2, 68040, Note_on_c, 0, 93, 88
2, 68055, Note_on_c, 0, 93, 0
2, 68160, Note_on_c, 0, 90, 75
2, 68175, Note_on_c, 0, 90, 0
2, 68280, Note_on_c, 0, 86, 75
2, 68295, Note_on_c, 0, 86, 0
2, 68400, Note_on_c, 0, 84, 75
2, 68640, Note_on_c, 0, 84, 0
2, 68640, Note_on_c, 0, 83, 75
2, 69120, Note_on_c, 0, 83, 0
2, 69120, Note_on_c, 0, 71, 62
2, 69360, Note_on_c, 0, 71, 0
2, 69360, Note_on_c, 0, 76, 62
2, 70080, Note_on_c, 0, 76, 0
2, 70080, Note_on_c, 0, 78, 62
2, 70320, Note_on_c, 0, 78, 0
2, 70320, Note_on_c, 0, 79, 62
2, 70800, Note_on_c, 0, 79, 0
2, 70800, Note_on_c, 0, 81, 75
2, 71040, Note_on_c, 0, 81, 0
2, 71040, Note_on_c, 0, 82, 75
2, 71220, Note_on_c, 0, 84, 75
2, 71280, Note_on_c, 0, 84, 0
2, 71280, Note_on_c, 0, 82, 0
2, 71280, Note_on_c, 0, 83, 75
2, 71295, Note_on_c, 0, 83, 0
2, 71400, Note_on_c, 0, 82, 88
2, 71415, Note_on_c, 0, 82, 0
2, 71520, Note_on_c, 0, 83, 88
2, 71760, Note_on_c, 0, 83, 0
2, 71760, Note_on_c, 0, 83, 88
2, 72120, Note_on_c, 0, 83, 0
2, 72120, Note_on_c, 0, 75, 75
2, 72240, Note_on_c, 0, 75, 0
2, 72240, Note_on_c, 0, 76, 75
2, 72720, Note_on_c, 0, 76, 0
2, 72720, Control_c, 0, 64, 127
2, 74640, Control_c, 0, 64, 0
2, 74640, End_track
3, 0, Start_track
3, 0, Title_t, "Instrument17"
3, 0, Program_c, 0, 0
3, 0, Control_c, 0, 7, 110
3, 0, Control_c, 0, 10, 97
3, 7920, Note_on_c, 0, 71, 75
3, 8160, Note_on_c, 0, 71, 0
3, 8160, Note_on_c, 0, 74, 75
3, 8880, Note_on_c, 0, 74, 0
3, 8880, Note_on_c, 0, 72, 75
3, 9120, Note_on_c, 0, 72, 0
3, 9120, Note_on_c, 0, 72, 75
3, 9480, Note_on_c, 0, 72, 0
3, 9480, Note_on_c, 0, 71, 75
3, 9600, Note_on_c, 0, 71, 0
3, 9600, Note_on_c, 0, 71, 75
3, 9960, Note_on_c, 0, 71, 0
3, 9960, Note_on_c, 0, 69, 75
3, 10020, Note_on_c, 0, 71, 75
3, 10080, Note_on_c, 0, 71, 0
3, 10080, Note_on_c, 0, 69, 0
3, 10080, Note_on_c, 0, 69, 75
3, 10200, Note_on_c, 0, 69, 0
3, 10200, Note_on_c, 0, 68, 75
3, 10320, Note_on_c, 0, 68, 0
3, 10320, Note_on_c, 0, 69, 75
3, 10560, Note_on_c, 0, 69, 0
3, 10560, Note_on_c, 0, 72, 75
3, 10920, Note_on_c, 0, 72, 0
3, 10920, Note_on_c, 0, 71, 75
3, 11040, Note_on_c, 0, 71, 0
3, 11040, Note_on_c, 0, 71, 75
3, 11520, Note_on_c, 0, 71, 0
3, 11760, Note_on_c, 0, 59, 62
3, 12000, Note_on_c, 0, 59, 0
3, 12000, Note_on_c, 0, 64, 62
3, 12720, Note_on_c, 0, 64, 0
3, 12720, Note_on_c, 0, 66, 62
3, 12960, Note_on_c, 0, 66, 0
3, 12960, Note_on_c, 0, 67, 62
3, 13440, Note_on_c, 0, 67, 0
3, 13440, Note_on_c, 0, 69, 75
3, 13463, Note_on_c, 0, 69, 0
3, 13680, Note_on_c, 0, 70, 75
3, 13703, Note_on_c, 0, 70, 0
3, 13860, Note_on_c, 0, 72, 75
3, 13920, Note_on_c, 0, 72, 0
3, 13920, Note_on_c, 0, 71, 75
3, 14040, Note_on_c, 0, 71, 0
3, 14040, Note_on_c, 0, 70, 88
3, 14160, Note_on_c, 0, 70, 0
3, 14160, Note_on_c, 0, 71, 88
3, 14400, Note_on_c, 0, 71, 0
3, 14400, Note_on_c, 0, 71, 88
3, 14760, Note_on_c, 0, 71, 0
3, 14760, Note_on_c, 0, 63, 75
3, 14880, Note_on_c, 0, 63, 0
3, 14880, Note_on_c, 0, 64, 62
3, 15360, Note_on_c, 0, 64, 0
3, 15600, Note_on_c, 0, 71, 75
3, 15840, Note_on_c, 0, 71, 0
3, 15840, Note_on_c, 0, 74, 75
3, 16479, Note_on_c, 0, 74, 0
3, 16479, Note_on_c, 0, 78, 75
3, 16640, Note_on_c, 0, 78, 0
3, 16640, Note_on_c, 0, 76, 75
3, 16800, Note_on_c, 0, 76, 0
3, 16800, Control_c, 0, 64, 127
3, 16800, Note_on_c, 0, 74, 75
3, 16920, Note_on_c, 0, 74, 0
3, 16920, Note_on_c, 0, 72, 75
3, 17040, Note_on_c, 0, 72, 0
3, 17040, Note_on_c, 0, 76, 75
3, 17160, Note_on_c, 0, 76, 0
3, 17160, Control_c, 0, 64, 0
3, 17160, Note_on_c, 0, 74, 75
3, 17280, Note_on_c, 0, 74, 0
3, 17280, Control_c, 0, 64, 127
3, 17280, Note_on_c, 0, 72, 75
3, 17400, Note_on_c, 0, 72, 0
3, 17400, Note_on_c, 0, 71, 75
3, 17520, Note_on_c, 0, 71, 0
3, 17520, Note_on_c, 0, 74, 75
3, 17640, Note_on_c, 0, 74, 0
3, 17640, Control_c, 0, 64, 0
3, 17640, Note_on_c, 0, 72, 75
3, 17760, Note_on_c, 0, 72, 0
3, 17760, Control_c, 0, 64, 127
3, 17760, Note_on_c, 0, 71, 75
3, 17856, Note_on_c, 0, 71, 0
3, 17856, Note_on_c, 0, 68, 75
3, 17952, Note_on_c, 0, 68, 0
3, 17952, Note_on_c, 0, 69, 88
3, 18047, Note_on_c, 0, 69, 0
3, 18047, Note_on_c, 0, 72, 88
3, 18143, Note_on_c, 0, 72, 0
3, 18143, Control_c, 0, 64, 0
3, 18143, Note_on_c, 0, 76, 88
3, 18240, Note_on_c, 0, 76, 0
3, 18240, Note_on_c, 0, 84, 88
3, 18255, Note_on_c, 0, 84, 0
3, 18360, Note_on_c, 0, 81, 88
3, 18375, Note_on_c, 0, 81, 0
3, 18480, Note_on_c, 0, 78, 75
3, 18495, Note_on_c, 0, 78, 0
3, 18600, Note_on_c, 0, 74, 75
3, 18615, Note_on_c, 0, 74, 0
3, 18720, Note_on_c, 0, 72, 75
3, 18960, Note_on_c, 0, 72, 0
3, 18960, Note_on_c, 0, 71, 75
3, 19440, Note_on_c, 0, 71, 0
3, 19440, Note_on_c, 0, 59, 62
3, 19680, Note_on_c, 0, 59, 0
3, 19680, Note_on_c, 0, 64, 62
3, 20400, Note_on_c, 0, 64, 0
3, 20400, Note_on_c, 0, 66, 62
3, 20640, Note_on_c, 0, 66, 0
3, 20640, Note_on_c, 0, 67, 62
3, 21120, Note_on_c, 0, 67, 0
3, 21120, Note_on_c, 0, 69, 75
3, 21360, Note_on_c, 0, 69, 0
3, 21360, Note_on_c, 0, 70, 75
3, 21540, Note_on_c, 0, 72, 75
3, 21600, Note_on_c, 0, 72, 0
3, 21600, Note_on_c, 0, 70, 0
3, 21600, Note_on_c, 0, 71, 75
3, 21615, Note_on_c, 0, 71, 0
3, 21720, Note_on_c, 0, 70, 88
3, 21735, Note_on_c, 0, 70, 0
3, 21840, Note_on_c, 0, 71, 88
3, 22080, Note_on_c, 0, 71, 0
3, 22080, Note_on_c, 0, 71, 88
3, 22440, Note_on_c, 0, 71, 0
3, 22440, Note_on_c, 0, 63, 75
3, 22560, Note_on_c, 0, 63, 0
3, 22560, Note_on_c, 0, 64, 62
3, 23040, Note_on_c, 0, 64, 0
3, 23280, Note_on_c, 0, 46, 62
3, 24000, Note_on_c, 0, 46, 0
3, 24000, Note_on_c, 0, 47, 75
3, 24120, Note_on_c, 0, 47, 0
3, 24120, Note_on_c, 0, 56, 49
3, 24240, Note_on_c, 0, 56, 0
3, 24240, Note_on_c, 0, 47, 75
3, 24360, Note_on_c, 0, 47, 0
3, 24360, Note_on_c, 0, 56, 49
3, 24480, Note_on_c, 0, 56, 0
3, 24960, Note_on_c, 0, 47, 75
3, 25080, Note_on_c, 0, 47, 0
3, 25080, Note_on_c, 0, 57, 49
3, 25200, Note_on_c, 0, 57, 0
3, 25200, Note_on_c, 0, 47, 75
3, 25320, Note_on_c, 0, 47, 0
3, 25320, Note_on_c, 0, 57, 49
3, 25440, Note_on_c, 0, 57, 0
3, 25920, Note_on_c, 0, 47, 75
3, 26040, Note_on_c, 0, 47, 0
3, 26040, Note_on_c, 0, 56, 49
3, 26160, Note_on_c, 0, 56, 0
3, 26160, Note_on_c, 0, 47, 75
3, 26280, Note_on_c, 0, 47, 0
3, 26280, Note_on_c, 0, 56, 49
3, 26400, Note_on_c, 0, 56, 0
3, 26880, Note_on_c, 0, 47, 75
3, 27000, Note_on_c, 0, 47, 0
3, 27000, Note_on_c, 0, 57, 49
3, 27120, Note_on_c, 0, 57, 0
3, 27120, Note_on_c, 0, 47, 75
3, 27240, Note_on_c, 0, 47, 0
3, 27240, Note_on_c, 0, 57, 49
3, 27360, Note_on_c, 0, 57, 0
3, 27840, Note_on_c, 0, 47, 49
3, 27960, Note_on_c, 0, 47, 0
3, 27960, Note_on_c, 0, 57, 49
3, 28080, Note_on_c, 0, 57, 0
3, 28320, Note_on_c, 0, 47, 49
3, 28440, Note_on_c, 0, 47, 0
3, 28440, Note_on_c, 0, 57, 49
3, 28560, Note_on_c, 0, 57, 0
3, 28800, Note_on_c, 0, 47, 49
3, 28920, Note_on_c, 0, 47, 0
3, 28920, Note_on_c, 0, 56, 49
3, 29040, Note_on_c, 0, 56, 0
3, 29280, Note_on_c, 0, 47, 49
3, 29400, Note_on_c, 0, 47, 0
3, 29400, Note_on_c, 0, 56, 49
3, 29520, Note_on_c, 0, 56, 0
3, 29760, Note_on_c, 0, 47, 49
3, 29880, Note_on_c, 0, 47, 0
3, 29880, Note_on_c, 0, 57, 49
3, 30000, Note_on_c, 0, 57, 0
3, 30240, Note_on_c, 0, 47, 49
3, 30360, Note_on_c, 0, 47, 0
3, 30360, Note_on_c, 0, 57, 49
3, 30480, Note_on_c, 0, 57, 0
3, 30720, Note_on_c, 0, 47, 62
3, 30840, Note_on_c, 0, 47, 0
3, 30840, Note_on_c, 0, 56, 62
3, 30960, Note_on_c, 0, 56, 0
3, 31200, Note_on_c, 0, 47, 62
3, 31320, Note_on_c, 0, 47, 0
3, 31320, Note_on_c, 0, 56, 62
3, 31440, Note_on_c, 0, 56, 0
3, 31680, Note_on_c, 0, 47, 62
3, 31800, Note_on_c, 0, 47, 0
3, 31800, Note_on_c, 0, 57, 62
3, 31920, Note_on_c, 0, 57, 0
3, 32160, Note_on_c, 0, 47, 62
3, 32280, Note_on_c, 0, 47, 0
3, 32280, Note_on_c, 0, 57, 62
3, 32400, Note_on_c, 0, 57, 0
3, 32640, Note_on_c, 0, 47, 62
3, 32760, Note_on_c, 0, 47, 0
3, 32760, Note_on_c, 0, 56, 62
3, 32880, Note_on_c, 0, 56, 0
3, 33120, Note_on_c, 0, 47, 62
3, 33240, Note_on_c, 0, 47, 0
3, 33240, Note_on_c, 0, 56, 62
3, 33360, Note_on_c, 0, 56, 0
3, 33840, Note_on_c, 0, 71, 88
3, 33840, Note_on_c, 0, 75, 88
3, 33960, Note_on_c, 0, 75, 0
3, 33960, Note_on_c, 0, 71, 0
3, 33960, Note_on_c, 0, 81, 88
3, 34080, Note_on_c, 0, 81, 0
3, 34080, Note_on_c, 0, 73, 88
3, 34080, Note_on_c, 0, 76, 88
3, 34200, Note_on_c, 0, 76, 0
3, 34200, Note_on_c, 0, 73, 0
3, 34200, Note_on_c, 0, 81, 88
3, 34320, Note_on_c, 0, 81, 0
3, 34320, Note_on_c, 0, 75, 88
3, 34320, Note_on_c, 0, 78, 88
3, 34440, Note_on_c, 0, 78, 0
3, 34440, Note_on_c, 0, 75, 0
3, 34440, Note_on_c, 0, 81, 88
3, 34560, Note_on_c, 0, 81, 0
3, 34560, Note_on_c, 0, 76, 88
3, 34560, Note_on_c, 0, 80, 88
3, 34583, Note_on_c, 0, 80, 0
3, 34583, Note_on_c, 0, 76, 0
3, 36000, Note_on_c, 0, 71, 75
3, 36023, Note_on_c, 0, 71, 0
3, 36240, Note_on_c, 0, 71, 75
3, 36263, Note_on_c, 0, 71, 0
3, 36960, Note_on_c, 0, 71, 75
3, 36983, Note_on_c, 0, 71, 0
3, 37200, Note_on_c, 0, 71, 75
3, 37223, Note_on_c, 0, 71, 0
3, 37920, Note_on_c, 0, 71, 75
3, 37943, Note_on_c, 0, 71, 0
3, 38160, Note_on_c, 0, 71, 75
3, 38183, Note_on_c, 0, 71, 0
3, 38880, Note_on_c, 0, 71, 75
3, 39120, Note_on_c, 0, 71, 0
3, 39120, Note_on_c, 0, 71, 75
3, 39600, Note_on_c, 0, 71, 0
3, 39600, Note_on_c, 0, 71, 88
3, 39623, Note_on_c, 0, 71, 0
3, 39840, Note_on_c, 0, 71, 88
3, 39863, Note_on_c, 0, 71, 0
3, 40080, Note_on_c, 0, 71, 88
3, 40103, Note_on_c, 0, 71, 0
3, 40320, Note_on_c, 0, 71, 88
3, 40343, Note_on_c, 0, 71, 0
3, 40560, Note_on_c, 0, 71, 88
3, 40583, Note_on_c, 0, 71, 0
3, 40800, Note_on_c, 0, 71, 88
3, 40823, Note_on_c, 0, 71, 0
3, 41040, Note_on_c, 0, 76, 88
3, 41160, Note_on_c, 0, 76, 0
3, 41160, Note_on_c, 0, 80, 88
3, 41175, Note_on_c, 0, 80, 0
3, 41280, Note_on_c, 0, 71, 75
3, 41303, Note_on_c, 0, 71, 0
3, 41520, Note_on_c, 0, 71, 75
3, 41543, Note_on_c, 0, 71, 0
3, 41760, Note_on_c, 0, 71, 75
3, 41760, Note_on_c, 0, 73, 75
3, 41783, Note_on_c, 0, 73, 0
3, 41783, Note_on_c, 0, 71, 0
3, 42000, Note_on_c, 0, 71, 75
3, 42000, Note_on_c, 0, 75, 75
3, 42023, Note_on_c, 0, 75, 0
3, 42023, Note_on_c, 0, 71, 0
3, 42240, Note_on_c, 0, 71, 75
3, 42360, Note_on_c, 0, 71, 0
3, 42360, Note_on_c, 0, 76, 75
3, 42480, Note_on_c, 0, 76, 0
3, 42480, Note_on_c, 0, 71, 75
3, 42600, Note_on_c, 0, 71, 0
3, 42600, Note_on_c, 0, 75, 75
3, 42720, Note_on_c, 0, 75, 0
3, 42720, Note_on_c, 0, 71, 75
3, 42840, Note_on_c, 0, 71, 0
3, 42840, Note_on_c, 0, 76, 75
3, 42960, Note_on_c, 0, 76, 0
3, 42960, Note_on_c, 0, 71, 75
3, 43080, Note_on_c, 0, 71, 0
3, 43080, Note_on_c, 0, 80, 75
3, 43200, Note_on_c, 0, 80, 0
3, 43200, Note_on_c, 0, 71, 75
3, 43320, Note_on_c, 0, 71, 0
3, 43320, Note_on_c, 0, 78, 75
3, 43440, Note_on_c, 0, 78, 0
3, 43440, Note_on_c, 0, 71, 75
3, 43560, Note_on_c, 0, 71, 0
3, 43560, Note_on_c, 0, 77, 75
3, 43680, Note_on_c, 0, 77, 0
3, 43680, Note_on_c, 0, 71, 75
3, 43800, Note_on_c, 0, 71, 0
3, 43800, Note_on_c, 0, 78, 75
3, 43920, Note_on_c, 0, 78, 0
3, 43920, Note_on_c, 0, 71, 75
3, 44040, Note_on_c, 0, 71, 0
3, 44040, Note_on_c, 0, 80, 75
3, 44160, Note_on_c, 0, 80, 0
3, 44160, Note_on_c, 0, 71, 75
3, 44280, Note_on_c, 0, 71, 0
3, 44280, Note_on_c, 0, 76, 75
3, 44400, Note_on_c, 0, 76, 0
3, 44400, Note_on_c, 0, 71, 75
3, 44520, Note_on_c, 0, 71, 0
3, 44520, Note_on_c, 0, 75, 75
3, 44640, Note_on_c, 0, 75, 0
3, 44640, Note_on_c, 0, 71, 75
3, 44760, Note_on_c, 0, 71, 0
3, 44760, Note_on_c, 0, 76, 75
3, 44880, Note_on_c, 0, 76, 0
3, 44880, Note_on_c, 0, 71, 75
3, 45000, Note_on_c, 0, 71, 0
3, 45000, Note_on_c, 0, 80, 75
3, 45120, Note_on_c, 0, 80, 0
3, 45120, Note_on_c, 0, 71, 75
3, 45240, Note_on_c, 0, 71, 0
3, 45240, Note_on_c, 0, 75, 75
3, 45360, Note_on_c, 0, 75, 0
3, 45360, Note_on_c, 0, 71, 75
3, 45480, Note_on_c, 0, 71, 0
3, 45480, Note_on_c, 0, 75, 75
3, 45600, Note_on_c, 0, 75, 0
3, 45600, Note_on_c, 0, 73, 75
3, 45600, Note_on_c, 0, 76, 75
3, 45623, Note_on_c, 0, 76, 0
3, 45623, Note_on_c, 0, 73, 0
3, 45840, Note_on_c, 0, 75, 75
3, 45840, Note_on_c, 0, 78, 75
3, 45863, Note_on_c, 0, 78, 0
3, 45863, Note_on_c, 0, 75, 0
3, 46080, Note_on_c, 0, 76, 75
3, 46080, Note_on_c, 0, 80, 75
3, 46103, Note_on_c, 0, 80, 0
3, 46103, Note_on_c, 0, 76, 0
3, 46560, Control_c, 0, 64, 127
3, 46560, Note_on_c, 0, 70, 88
3, 46680, Note_on_c, 0, 70, 0
3, 46680, Note_on_c, 0, 71, 88
3, 46800, Note_on_c, 0, 71, 0
3, 46800, Note_on_c, 0, 70, 88
3, 46860, Note_on_c, 0, 70, 0
3, 46860, Note_on_c, 0, 71, 88
3, 46920, Note_on_c, 0, 71, 0
3, 46920, Note_on_c, 0, 70, 88
3, 46980, Note_on_c, 0, 70, 0
3, 46980, Note_on_c, 0, 71, 88
3, 47040, Note_on_c, 0, 71, 0
3, 47040, Note_on_c, 0, 70, 88
3, 47160, Note_on_c, 0, 70, 0
3, 47160, Control_c, 0, 64, 0
3, 47160, Note_on_c, 0, 70, 88
3, 47280, Note_on_c, 0, 70, 0
3, 47280, Note_on_c, 0, 71, 88
3, 48720, Note_on_c, 0, 71, 0
3, 48720, Note_on_c, 0, 63, 62
3, 49920, Note_on_c, 0, 63, 0
3, 57600, Note_on_c, 0, 71, 75
3, 57840, Note_on_c, 0, 71, 0
3, 57840, Note_on_c, 0, 74, 75
3, 58560, Note_on_c, 0, 74, 0
3, 58560, Note_on_c, 0, 72, 75
3, 58800, Note_on_c, 0, 72, 0
3, 58800, Note_on_c, 0, 72, 75
3, 59160, Note_on_c, 0, 72, 0
3, 59160, Note_on_c, 0, 71, 75
3, 59640, Note_on_c, 0, 71, 0
3, 59640, Note_on_c, 0, 69, 75
3, 59700, Note_on_c, 0, 71, 75
3, 59760, Note_on_c, 0, 71, 0
3, 59760, Note_on_c, 0, 69, 0
3, 59760, Note_on_c, 0, 69, 75
3, 59880, Note_on_c, 0, 69, 0
3, 59880, Note_on_c, 0, 68, 75
3, 60000, Note_on_c, 0, 68, 0
3, 60000, Note_on_c, 0, 69, 75
3, 60240, Note_on_c, 0, 69, 0
3, 60240, Note_on_c, 0, 72, 75
3, 60600, Note_on_c, 0, 72, 0
3, 60600, Note_on_c, 0, 71, 75
3, 60720, Note_on_c, 0, 71, 0
3, 60720, Note_on_c, 0, 71, 75
3, 61200, Note_on_c, 0, 71, 0
3, 61440, Note_on_c, 0, 59, 62
3, 61680, Note_on_c, 0, 59, 0
3, 61680, Note_on_c, 0, 64, 62
3, 62400, Note_on_c, 0, 64, 0
3, 62400, Note_on_c, 0, 66, 62
3, 62640, Note_on_c, 0, 66, 0
3, 62640, Note_on_c, 0, 67, 62
3, 63120, Note_on_c, 0, 67, 0
3, 63120, Note_on_c, 0, 69, 75
3, 63143, Note_on_c, 0, 69, 0
3, 63360, Note_on_c, 0, 70, 75
3, 63383, Note_on_c, 0, 70, 0
3, 63540, Note_on_c, 0, 72, 75
3, 63600, Note_on_c, 0, 72, 0
3, 63600, Note_on_c, 0, 71, 75
3, 63720, Note_on_c, 0, 71, 0
3, 63720, Note_on_c, 0, 70, 88
3, 63840, Note_on_c, 0, 70, 0
3, 63840, Note_on_c, 0, 71, 88
3, 64080, Note_on_c, 0, 71, 0
3, 64080, Note_on_c, 0, 71, 88
3, 64440, Note_on_c, 0, 71, 0
3, 64440, Note_on_c, 0, 63, 75
3, 64560, Note_on_c, 0, 63, 0
3, 64560, Note_on_c, 0, 64, 62
3, 65040, Note_on_c, 0, 64, 0
3, 65280, Note_on_c, 0, 71, 75
3, 65520, Note_on_c, 0, 71, 0
3, 65520, Note_on_c, 0, 74, 75
3, 66159, Note_on_c, 0, 74, 0
3, 66159, Note_on_c, 0, 78, 75
3, 66320, Note_on_c, 0, 78, 0
3, 66320, Note_on_c, 0, 76, 75
3, 66480, Note_on_c, 0, 76, 0
3, 66480, Control_c, 0, 64, 127
3, 66480, Note_on_c, 0, 74, 75
3, 66600, Note_on_c, 0, 74, 0
3, 66600, Note_on_c, 0, 72, 75
3, 66720, Note_on_c, 0, 72, 0
3, 66720, Note_on_c, 0, 76, 75
3, 66840, Note_on_c, 0, 76, 0
3, 66840, Control_c, 0, 64, 0
3, 66840, Note_on_c, 0, 74, 75
3, 66960, Note_on_c, 0, 74, 0
3, 66960, Control_c, 0, 64, 127
3, 66960, Note_on_c, 0, 72, 75
3, 67080, Note_on_c, 0, 72, 0
3, 67080, Note_on_c, 0, 71, 75
3, 67200, Note_on_c, 0, 71, 0
3, 67200, Note_on_c, 0, 74, 75
3, 67320, Note_on_c, 0, 74, 0
3, 67320, Control_c, 0, 64, 0
3, 67320, Note_on_c, 0, 72, 75
3, 67440, Note_on_c, 0, 72, 0
3, 67440, Control_c, 0, 64, 127
3, 67440, Note_on_c, 0, 71, 75
3, 67536, Note_on_c, 0, 71, 0
3, 67536, Note_on_c, 0, 68, 75
3, 67632, Note_on_c, 0, 68, 0
3, 67632, Note_on_c, 0, 69, 88
3, 67727, Note_on_c, 0, 69, 0
3, 67727, Note_on_c, 0, 72, 88
3, 67823, Note_on_c, 0, 72, 0
3, 67823, Control_c, 0, 64, 0
3, 67823, Note_on_c, 0, 76, 88
3, 67920, Note_on_c, 0, 76, 0
3, 67920, Note_on_c, 0, 84, 88
3, 67935, Note_on_c, 0, 84, 0
3, 68040, Note_on_c, 0, 81, 88
3, 68055, Note_on_c, 0, 81, 0
3, 68160, Note_on_c, 0, 78, 75
3, 68175, Note_on_c, 0, 78, 0
3, 68280, Note_on_c, 0, 74, 75
3, 68295, Note_on_c, 0, 74, 0
3, 68400, Note_on_c, 0, 72, 75
3, 68640, Note_on_c, 0, 72, 0
3, 68640, Note_on_c, 0, 71, 75
3, 69120, Note_on_c, 0, 71, 0
3, 69120, Note_on_c, 0, 59, 62
3, 69360, Note_on_c, 0, 59, 0
3, 69360, Note_on_c, 0, 64, 62
3, 70080, Note_on_c, 0, 64, 0
3, 70080, Note_on_c, 0, 66, 62
3, 70320, Note_on_c, 0, 66, 0
3, 70320, Note_on_c, 0, 67, 62
3, 70800, Note_on_c, 0, 67, 0
3, 70800, Note_on_c, 0, 69, 75
3, 71040, Note_on_c, 0, 69, 0
3, 71040, Note_on_c, 0, 70, 75
3, 71220, Note_on_c, 0, 72, 75
3, 71280, Note_on_c, 0, 72, 0
3, 71280, Note_on_c, 0, 70, 0
3, 71280, Note_on_c, 0, 71, 75
3, 71295, Note_on_c, 0, 71, 0
3, 71400, Note_on_c, 0, 70, 88
3, 71415, Note_on_c, 0, 70, 0
3, 71520, Note_on_c, 0, 71, 88
3, 71760, Note_on_c, 0, 71, 0
3, 71760, Note_on_c, 0, 71, 88
3, 72120, Note_on_c, 0, 71, 0
3, 72120, Note_on_c, 0, 63, 75
3, 72240, Note_on_c, 0, 63, 0
3, 72240, Note_on_c, 0, 64, 75
3, 72720, Note_on_c, 0, 64, 0
3, 72720, End_track
4, 0, Start_track
4, 0, Title_t, "Instrument18"
4, 0, Program_c, 0, 0
4, 0, Control_c, 0, 7, 110
4, 0, Control_c, 0, 10, 30
4, 720, Note_on_c, 0, 52, 62
4, 743, Note_on_c, 0, 52, 0
4, 1200, Note_on_c, 0, 54, 62
4, 1223, Note_on_c, 0, 54, 0
4, 1680, Note_on_c, 0, 55, 75
4, 1703, Note_on_c, 0, 55, 0
4, 2160, Note_on_c, 0, 54, 75
4, 2160, Note_on_c, 0, 64, 75
4, 2183, Note_on_c, 0, 64, 0
4, 2183, Note_on_c, 0, 54, 0
4, 2400, Note_on_c, 0, 63, 62
4, 2640, Note_on_c, 0, 63, 0
4, 2640, Note_on_c, 0, 54, 62
4, 2880, Note_on_c, 0, 54, 0
4, 2880, Note_on_c, 0, 52, 62
4, 2880, Note_on_c, 0, 55, 62
4, 3120, Note_on_c, 0, 55, 0
4, 3120, Note_on_c, 0, 52, 0
4, 3120, Note_on_c, 0, 64, 62
4, 3360, Note_on_c, 0, 64, 0
4, 3360, Note_on_c, 0, 54, 62
4, 3360, Note_on_c, 0, 63, 62
4, 3600, Note_on_c, 0, 63, 0
4, 3600, Note_on_c, 0, 54, 0
4, 3600, Note_on_c, 0, 59, 62
4, 3840, Note_on_c, 0, 59, 0
4, 3840, Note_on_c, 0, 51, 62
4, 3840, Note_on_c, 0, 57, 62
4, 4080, Note_on_c, 0, 57, 0
4, 4080, Note_on_c, 0, 51, 0
4, 4080, Note_on_c, 0, 54, 62
4, 4320, Note_on_c, 0, 54, 0
4, 4560, Note_on_c, 0, 52, 62
4, 4560, Note_on_c, 0, 55, 62
4, 4560, Note_on_c, 0, 59, 62
4, 4800, Note_on_c, 0, 59, 0
4, 4800, Note_on_c, 0, 55, 0
4, 4800, Note_on_c, 0, 52, 0
4, 5040, Note_on_c, 0, 54, 62
4, 5040, Note_on_c, 0, 57, 62
4, 5040, Note_on_c, 0, 59, 62
4, 5280, Note_on_c, 0, 59, 0
4, 5280, Note_on_c, 0, 57, 0
4, 5280, Note_on_c, 0, 54, 0
4, 5520, Note_on_c, 0, 55, 62
4, 5520, Note_on_c, 0, 59, 62
4, 5760, Note_on_c, 0, 59, 0
4, 5760, Note_on_c, 0, 55, 0
4, 5760, Note_on_c, 0, 54, 62
4, 5760, Note_on_c, 0, 66, 62
4, 6000, Note_on_c, 0, 66, 0
4, 6000, Note_on_c, 0, 54, 0
4, 6000, Note_on_c, 0, 64, 62
4, 6240, Note_on_c, 0, 64, 0
4, 6240, Note_on_c, 0, 63, 62
4, 6480, Note_on_c, 0, 63, 0
4, 6480, Note_on_c, 0, 54, 62
4, 6720, Note_on_c, 0, 54, 0
4, 6960, Note_on_c, 0, 55, 62
4, 6960, Note_on_c, 0, 60, 62
4, 6960, Note_on_c, 0, 64, 62
4, 7200, Note_on_c, 0, 64, 0
4, 7200, Note_on_c, 0, 60, 0
4, 7200, Note_on_c, 0, 55, 0
4, 7200, Note_on_c, 0, 54, 62
4, 7200, Note_on_c, 0, 63, 62
4, 7440, Note_on_c, 0, 63, 0
4, 7440, Note_on_c, 0, 54, 0
4, 7440, Note_on_c, 0, 59, 62
4, 7680, Note_on_c, 0, 59, 0
4, 7680, Note_on_c, 0, 55, 62
4, 7680, Note_on_c, 0, 59, 62
4, 7920, Note_on_c, 0, 59, 0
4, 7920, Note_on_c, 0, 55, 0
4, 7920, Note_on_c, 0, 52, 62
4, 7920, Note_on_c, 0, 55, 62
4, 8160, Note_on_c, 0, 55, 0
4, 8160, Note_on_c, 0, 52, 0
4, 8160, Note_on_c, 0, 54, 62
4, 8400, Note_on_c, 0, 54, 0
4, 8400, Note_on_c, 0, 57, 62
4, 8640, Note_on_c, 0, 57, 0
4, 8640, Note_on_c, 0, 54, 62
4, 8640, Note_on_c, 0, 57, 62
4, 8880, Note_on_c, 0, 57, 0
4, 8880, Note_on_c, 0, 54, 0
4, 8880, Note_on_c, 0, 62, 62
4, 9120, Note_on_c, 0, 62, 0
4, 9120, Note_on_c, 0, 52, 62
4, 9120, Note_on_c, 0, 55, 62
4, 9360, Note_on_c, 0, 55, 0
4, 9360, Note_on_c, 0, 52, 0
4, 9360, Note_on_c, 0, 60, 62
4, 9600, Note_on_c, 0, 60, 0
4, 9600, Note_on_c, 0, 50, 62
4, 9600, Note_on_c, 0, 55, 62
4, 9840, Note_on_c, 0, 55, 0
4, 9840, Note_on_c, 0, 50, 0
4, 9840, Note_on_c, 0, 59, 62
4, 10080, Note_on_c, 0, 59, 0
4, 10080, Note_on_c, 0, 52, 62
4, 10320, Note_on_c, 0, 52, 0
4, 10320, Note_on_c, 0, 57, 62
4, 10560, Note_on_c, 0, 57, 0
4, 10560, Note_on_c, 0, 52, 62
4, 10560, Note_on_c, 0, 54, 62
4, 10800, Note_on_c, 0, 54, 0
4, 10800, Note_on_c, 0, 52, 0
4, 10800, Note_on_c, 0, 60, 62
4, 11040, Note_on_c, 0, 60, 0
4, 11040, Note_on_c, 0, 51, 49
4, 11040, Note_on_c, 0, 54, 49
4, 11280, Note_on_c, 0, 54, 0
4, 11280, Note_on_c, 0, 51, 0
4, 11280, Note_on_c, 0, 59, 49
4, 11520, Note_on_c, 0, 59, 0
4, 11520, Note_on_c, 0, 47, 49
4, 11520, Note_on_c, 0, 51, 49
4, 11760, Note_on_c, 0, 51, 0
4, 11760, Note_on_c, 0, 47, 0
4, 11760, Note_on_c, 0, 54, 49
4, 12000, Note_on_c, 0, 54, 0
4, 12240, Note_on_c, 0, 47, 49
4, 12240, Note_on_c, 0, 52, 49
4, 12480, Note_on_c, 0, 52, 0
4, 12480, Note_on_c, 0, 47, 0
4, 12720, Note_on_c, 0, 45, 49
4, 12720, Note_on_c, 0, 51, 49
4, 12720, Note_on_c, 0, 57, 49
4, 12960, Note_on_c, 0, 57, 0
4, 12960, Note_on_c, 0, 51, 0
4, 12960, Note_on_c, 0, 45, 0
4, 13200, Note_on_c, 0, 47, 62
4, 13200, Note_on_c, 0, 52, 62
4, 13200, Note_on_c, 0, 55, 62
4, 13440, Note_on_c, 0, 55, 0
4, 13440, Note_on_c, 0, 52, 0
4, 13440, Note_on_c, 0, 47, 0
4, 13440, Note_on_c, 0, 54, 62
4, 13680, Note_on_c, 0, 54, 0
4, 13680, Note_on_c, 0, 52, 62
4, 13920, Note_on_c, 0, 52, 0
4, 14160, Note_on_c, 0, 51, 62
4, 14160, Note_on_c, 0, 57, 62
4, 14400, Note_on_c, 0, 57, 0
4, 14400, Note_on_c, 0, 51, 0
4, 14400, Note_on_c, 0, 55, 49
4, 14640, Note_on_c, 0, 55, 0
4, 14640, Note_on_c, 0, 54, 49
4, 14880, Note_on_c, 0, 54, 0
4, 14880, Note_on_c, 0, 52, 49
4, 15120, Note_on_c, 0, 52, 0
4, 15120, Note_on_c, 0, 55, 49
4, 15360, Note_on_c, 0, 55, 0
4, 15360, Note_on_c, 0, 55, 62
4, 15360, Note_on_c, 0, 59, 62
4, 15600, Note_on_c, 0, 59, 0
4, 15600, Note_on_c, 0, 55, 0
4, 15600, Note_on_c, 0, 64, 62
4, 15840, Note_on_c, 0, 64, 0
4, 15840, Note_on_c, 0, 57, 62
4, 15840, Note_on_c, 0, 66, 62
4, 16080, Note_on_c, 0, 66, 0
4, 16080, Note_on_c, 0, 57, 0
4, 16080, Note_on_c, 0, 54, 62
4, 16080, Note_on_c, 0, 62, 62
4, 16320, Note_on_c, 0, 62, 0
4, 16320, Note_on_c, 0, 54, 0
4, 16320, Note_on_c, 0, 54, 62
4, 16320, Note_on_c, 0, 62, 62
4, 16560, Note_on_c, 0, 62, 0
4, 16560, Note_on_c, 0, 54, 0
4, 16560, Note_on_c, 0, 57, 62
4, 16560, Note_on_c, 0, 60, 62
4, 16800, Note_on_c, 0, 60, 0
4, 16800, Note_on_c, 0, 57, 0
4, 16800, Note_on_c, 0, 55, 62
4, 16800, Note_on_c, 0, 60, 62
4, 17040, Note_on_c, 0, 60, 0
4, 17040, Note_on_c, 0, 55, 0
4, 17040, Note_on_c, 0, 52, 62
4, 17040, Note_on_c, 0, 55, 62
4, 17280, Note_on_c, 0, 55, 0
4, 17280, Note_on_c, 0, 52, 0
4, 17280, Note_on_c, 0, 50, 62
4, 17280, Note_on_c, 0, 59, 62
4, 17520, Note_on_c, 0, 59, 0
4, 17520, Note_on_c, 0, 50, 0
4, 17520, Note_on_c, 0, 47, 62
4, 17520, Note_on_c, 0, 50, 62
4, 17760, Note_on_c, 0, 50, 0
4, 17760, Note_on_c, 0, 47, 0
4, 17760, Note_on_c, 0, 52, 62
4, 17760, Note_on_c, 0, 57, 62
4, 18000, Note_on_c, 0, 57, 0
4, 18000, Note_on_c, 0, 52, 0
4, 18000, Note_on_c, 0, 48, 62
4, 18000, Note_on_c, 0, 52, 62
4, 18240, Note_on_c, 0, 52, 0
4, 18240, Note_on_c, 0, 48, 0
4, 18240, Note_on_c, 0, 54, 62
4, 18240, Note_on_c, 0, 57, 62
4, 18480, Note_on_c, 0, 57, 0
4, 18480, Note_on_c, 0, 54, 0
4, 18480, Note_on_c, 0, 50, 62
4, 18480, Note_on_c, 0, 54, 62
4, 18720, Note_on_c, 0, 54, 0
4, 18720, Note_on_c, 0, 50, 0
4, 18720, Note_on_c, 0, 50, 62
4, 18720, Note_on_c, 0, 59, 62
4, 18960, Note_on_c, 0, 59, 0
4, 18960, Note_on_c, 0, 50, 0
4, 18960, Note_on_c, 0, 47, 62
4, 18960, Note_on_c, 0, 50, 62
4, 19200, Note_on_c, 0, 50, 0
4, 19200, Note_on_c, 0, 47, 0
4, 19200, Note_on_c, 0, 51, 62
4, 19200, Note_on_c, 0, 57, 62
4, 19440, Note_on_c, 0, 57, 0
4, 19440, Note_on_c, 0, 51, 0
4, 19440, Note_on_c, 0, 51, 62
4, 19680, Note_on_c, 0, 51, 0
4, 19920, Note_on_c, 0, 52, 49
4, 19920, Note_on_c, 0, 55, 49
4, 20160, Note_on_c, 0, 55, 0
4, 20160, Note_on_c, 0, 60, 49
4, 20400, Note_on_c, 0, 60, 0
4, 20400, Note_on_c, 0, 52, 0
4, 20400, Note_on_c, 0, 52, 49
4, 20400, Note_on_c, 0, 60, 49
4, 20640, Note_on_c, 0, 60, 0
4, 20640, Note_on_c, 0, 59, 49
4, 20880, Note_on_c, 0, 59, 0
4, 20880, Note_on_c, 0, 52, 0
4, 20880, Note_on_c, 0, 52, 62
4, 20880, Note_on_c, 0, 59, 62
4, 21120, Note_on_c, 0, 59, 0
4, 21120, Note_on_c, 0, 64, 62
4, 21360, Note_on_c, 0, 64, 0
4, 21360, Note_on_c, 0, 52, 0
4, 21360, Note_on_c, 0, 52, 62
4, 21360, Note_on_c, 0, 64, 62
4, 21600, Note_on_c, 0, 64, 0
4, 21600, Note_on_c, 0, 52, 0
4, 21840, Note_on_c, 0, 52, 62
4, 21840, Note_on_c, 0, 59, 62
4, 22080, Note_on_c, 0, 59, 0
4, 22080, Note_on_c, 0, 52, 0
4, 22320, Note_on_c, 0, 51, 49
4, 22320, Note_on_c, 0, 54, 49
4, 22320, Note_on_c, 0, 57, 49
4, 22560, Note_on_c, 0, 57, 0
4, 22560, Note_on_c, 0, 54, 0
4, 22560, Note_on_c, 0, 51, 0
4, 22800, Note_on_c, 0, 47, 49
4, 22800, Note_on_c, 0, 52, 49
4, 22800, Note_on_c, 0, 55, 49
4, 23280, Note_on_c, 0, 55, 0
4, 23280, Note_on_c, 0, 52, 0
4, 23280, Note_on_c, 0, 47, 0
4, 23280, Note_on_c, 0, 70, 49
4, 24000, Note_on_c, 0, 70, 0
4, 24000, Note_on_c, 0, 59, 88
4, 24360, Note_on_c, 0, 59, 0
4, 24360, Note_on_c, 0, 61, 62
4, 24375, Note_on_c, 0, 61, 0
4, 24480, Note_on_c, 0, 63, 62
4, 24503, Note_on_c, 0, 63, 0
4, 24720, Note_on_c, 0, 64, 62
4, 24743, Note_on_c, 0, 64, 0
4, 24840, Note_on_c, 0, 66, 62
4, 24900, Note_on_c, 0, 66, 0
4, 24900, Note_on_c, 0, 68, 62
4, 24960, Note_on_c, 0, 68, 0
4, 24960, Note_on_c, 0, 66, 88
4, 25320, Note_on_c, 0, 66, 0
4, 25320, Note_on_c, 0, 65, 62
4, 25335, Note_on_c, 0, 65, 0
4, 25440, Note_on_c, 0, 66, 62
4, 25463, Note_on_c, 0, 66, 0
4, 25620, Note_on_c, 0, 66, 62
4, 25680, Note_on_c, 0, 66, 0
4, 25680, Note_on_c, 0, 68, 62
4, 25703, Note_on_c, 0, 68, 0
4, 25800, Note_on_c, 0, 64, 62
4, 25860, Note_on_c, 0, 64, 0
4, 25860, Note_on_c, 0, 66, 62
4, 25920, Note_on_c, 0, 66, 0
4, 25920, Note_on_c, 0, 64, 88
4, 26280, Note_on_c, 0, 64, 0
4, 26280, Note_on_c, 0, 63, 62
4, 26295, Note_on_c, 0, 63, 0
4, 26400, Note_on_c, 0, 64, 62
4, 26423, Note_on_c, 0, 64, 0
4, 26640, Note_on_c, 0, 64, 62
4, 26760, Note_on_c, 0, 64, 0
4, 26760, Note_on_c, 0, 68, 62
4, 26775, Note_on_c, 0, 68, 0
4, 26880, Note_on_c, 0, 66, 62
4, 26940, Note_on_c, 0, 66, 0
4, 26940, Note_on_c, 0, 68, 62
4, 27000, Note_on_c, 0, 68, 0
4, 27000, Note_on_c, 0, 66, 88
4, 27240, Note_on_c, 0, 66, 0
4, 27240, Note_on_c, 0, 65, 62
4, 27255, Note_on_c, 0, 65, 0
4, 27360, Note_on_c, 0, 66, 62
4, 27375, Note_on_c, 0, 66, 0
4, 27600, Note_on_c, 0, 66, 88
4, 28080, Note_on_c, 0, 66, 0
4, 28080, Note_on_c, 0, 66, 62
4, 28200, Note_on_c, 0, 66, 0
4, 28200, Note_on_c, 0, 65, 62
4, 28215, Note_on_c, 0, 65, 0
4, 28320, Note_on_c, 0, 66, 62
4, 28343, Note_on_c, 0, 66, 0
4, 28560, Note_on_c, 0, 66, 62
4, 28680, Note_on_c, 0, 66, 0
4, 28680, Note_on_c, 0, 68, 62
4, 28695, Note_on_c, 0, 68, 0
4, 28800, Note_on_c, 0, 64, 62
4, 28860, Note_on_c, 0, 64, 0
4, 28860, Note_on_c, 0, 66, 62
4, 28920, Note_on_c, 0, 66, 0
4, 28920, Note_on_c, 0, 64, 88
4, 29160, Note_on_c, 0, 64, 0
4, 29160, Note_on_c, 0, 63, 62
4, 29175, Note_on_c, 0, 63, 0
4, 29280, Note_on_c, 0, 64, 62
4, 29303, Note_on_c, 0, 64, 0
4, 29520, Note_on_c, 0, 64, 62
4, 29640, Note_on_c, 0, 64, 0
4, 29640, Note_on_c, 0, 68, 62
4, 29655, Note_on_c, 0, 68, 0
4, 29760, Note_on_c, 0, 59, 62
4, 29820, Note_on_c, 0, 59, 0
4, 29820, Note_on_c, 0, 61, 62
4, 29880, Note_on_c, 0, 61, 0
4, 29880, Note_on_c, 0, 59, 88
4, 30000, Note_on_c, 0, 59, 0
4, 30000, Note_on_c, 0, 58, 62
4, 30015, Note_on_c, 0, 58, 0
4, 30120, Note_on_c, 0, 59, 62
4, 30135, Note_on_c, 0, 59, 0
4, 30240, Note_on_c, 0, 61, 62
4, 30263, Note_on_c, 0, 61, 0
4, 30480, Note_on_c, 0, 63, 62
4, 30503, Note_on_c, 0, 63, 0
4, 30600, Note_on_c, 0, 64, 62
4, 30660, Note_on_c, 0, 64, 0
4, 30660, Note_on_c, 0, 66, 62
4, 30720, Note_on_c, 0, 66, 0
4, 30720, Note_on_c, 0, 64, 88
4, 31080, Note_on_c, 0, 64, 0
4, 31080, Note_on_c, 0, 63, 75
4, 31095, Note_on_c, 0, 63, 0
4, 31200, Note_on_c, 0, 64, 75
4, 31223, Note_on_c, 0, 64, 0
4, 31440, Note_on_c, 0, 64, 75
4, 31560, Note_on_c, 0, 64, 0
4, 31560, Note_on_c, 0, 68, 75
4, 31575, Note_on_c, 0, 68, 0
4, 31680, Note_on_c, 0, 66, 75
4, 31703, Note_on_c, 0, 66, 0
4, 31920, Note_on_c, 0, 66, 75
4, 32040, Note_on_c, 0, 66, 0
4, 32040, Note_on_c, 0, 65, 75
4, 32055, Note_on_c, 0, 65, 0
4, 32160, Note_on_c, 0, 66, 75
4, 32183, Note_on_c, 0, 66, 0
4, 32400, Note_on_c, 0, 66, 75
4, 32520, Note_on_c, 0, 66, 0
4, 32520, Note_on_c, 0, 68, 75
4, 32535, Note_on_c, 0, 68, 0
4, 32640, Note_on_c, 0, 64, 75
4, 32700, Note_on_c, 0, 64, 0
4, 32700, Note_on_c, 0, 66, 75
4, 32760, Note_on_c, 0, 66, 0
4, 32760, Note_on_c, 0, 64, 101
4, 33000, Note_on_c, 0, 64, 0
4, 33000, Note_on_c, 0, 63, 75
4, 33015, Note_on_c, 0, 63, 0
4, 33120, Note_on_c, 0, 64, 75
4, 33143, Note_on_c, 0, 64, 0
4, 33360, Note_on_c, 0, 64, 75
4, 33480, Note_on_c, 0, 64, 0
4, 33480, Note_on_c, 0, 68, 75
4, 33495, Note_on_c, 0, 68, 0
4, 33600, Note_on_c, 0, 59, 88
4, 33660, Note_on_c, 0, 59, 0
4, 33660, Note_on_c, 0, 61, 88
4, 33720, Note_on_c, 0, 61, 0
4, 33720, Note_on_c, 0, 59, 114
4, 33840, Note_on_c, 0, 59, 0
4, 33840, Note_on_c, 0, 58, 88
4, 33855, Note_on_c, 0, 58, 0
4, 33960, Note_on_c, 0, 59, 88
4, 33975, Note_on_c, 0, 59, 0
4, 34080, Note_on_c, 0, 61, 88
4, 34103, Note_on_c, 0, 61, 0
4, 34320, Note_on_c, 0, 63, 88
4, 34343, Note_on_c, 0, 63, 0
4, 34560, Note_on_c, 0, 56, 88
4, 34560, Note_on_c, 0, 64, 88
4, 34583, Note_on_c, 0, 64, 0
4, 34583, Note_on_c, 0, 56, 0
4, 35040, Note_on_c, 0, 52, 88
4, 35040, Note_on_c, 0, 58, 88
4, 35040, Note_on_c, 0, 61, 88
4, 35040, Note_on_c, 0, 64, 88
4, 35520, Note_on_c, 0, 64, 0
4, 35520, Note_on_c, 0, 52, 0
4, 35520, Note_on_c, 0, 58, 0
4, 35520, Note_on_c, 0, 61, 0
4, 35520, Note_on_c, 0, 56, 75
4, 35520, Note_on_c, 0, 59, 75
4, 35640, Note_on_c, 0, 59, 0
4, 35640, Note_on_c, 0, 56, 0
4, 35640, Note_on_c, 0, 52, 75
4, 35760, Note_on_c, 0, 52, 0
4, 36000, Note_on_c, 0, 56, 75
4, 36000, Note_on_c, 0, 59, 75
4, 36120, Note_on_c, 0, 59, 0
4, 36120, Note_on_c, 0, 56, 0
4, 36120, Note_on_c, 0, 52, 75
4, 36240, Note_on_c, 0, 52, 0
4, 36240, Note_on_c, 0, 59, 75
4, 36240, Note_on_c, 0, 64, 75
4, 36263, Note_on_c, 0, 64, 0
4, 36263, Note_on_c, 0, 59, 0
4, 36480, Note_on_c, 0, 57, 75
4, 36480, Note_on_c, 0, 59, 75
4, 36600, Note_on_c, 0, 59, 0
4, 36600, Note_on_c, 0, 57, 0
4, 36600, Note_on_c, 0, 54, 75
4, 36720, Note_on_c, 0, 54, 0
4, 36960, Note_on_c, 0, 57, 75
4, 36960, Note_on_c, 0, 59, 75
4, 37080, Note_on_c, 0, 59, 0
4, 37080, Note_on_c, 0, 57, 0
4, 37080, Note_on_c, 0, 54, 75
4, 37200, Note_on_c, 0, 54, 0
4, 37200, Note_on_c, 0, 57, 75
4, 37200, Note_on_c, 0, 63, 75
4, 37223, Note_on_c, 0, 63, 0
4, 37223, Note_on_c, 0, 57, 0
4, 37440, Note_on_c, 0, 56, 75
4, 37440, Note_on_c, 0, 59, 75
4, 37560, Note_on_c, 0, 59, 0
4, 37560, Note_on_c, 0, 56, 0
4, 37560, Note_on_c, 0, 52, 75
4, 37680, Note_on_c, 0, 52, 0
4, 37920, Note_on_c, 0, 56, 75
4, 37920, Note_on_c, 0, 59, 75
4, 38040, Note_on_c, 0, 59, 0
4, 38040, Note_on_c, 0, 56, 0
4, 38040, Note_on_c, 0, 52, 75
4, 38160, Note_on_c, 0, 52, 0
4, 38160, Note_on_c, 0, 59, 75
4, 38160, Note_on_c, 0, 64, 75
4, 38183, Note_on_c, 0, 64, 0
4, 38183, Note_on_c, 0, 59, 0
4, 38400, Note_on_c, 0, 57, 75
4, 38400, Note_on_c, 0, 59, 75
4, 38520, Note_on_c, 0, 59, 0
4, 38520, Note_on_c, 0, 57, 0
4, 38520, Note_on_c, 0, 54, 75
4, 38640, Note_on_c, 0, 54, 0
4, 38880, Note_on_c, 0, 57, 75
4, 38880, Note_on_c, 0, 59, 75
4, 39000, Note_on_c, 0, 59, 0
4, 39000, Note_on_c, 0, 57, 0
4, 39000, Note_on_c, 0, 54, 75
4, 39120, Note_on_c, 0, 54, 0
4, 39120, Note_on_c, 0, 57, 75
4, 39120, Note_on_c, 0, 63, 75
4, 39143, Note_on_c, 0, 63, 0
4, 39143, Note_on_c, 0, 57, 0
4, 39360, Note_on_c, 0, 57, 75
4, 39360, Note_on_c, 0, 59, 75
4, 39480, Note_on_c, 0, 59, 0
4, 39480, Note_on_c, 0, 57, 0
4, 39480, Note_on_c, 0, 54, 75
4, 39600, Note_on_c, 0, 54, 0
4, 39600, Note_on_c, 0, 57, 75
4, 39600, Note_on_c, 0, 63, 75
4, 39623, Note_on_c, 0, 63, 0
4, 39623, Note_on_c, 0, 57, 0
4, 39840, Note_on_c, 0, 57, 75
4, 39840, Note_on_c, 0, 59, 75
4, 39960, Note_on_c, 0, 59, 0
4, 39960, Note_on_c, 0, 57, 0
4, 39960, Note_on_c, 0, 54, 75
4, 40080, Note_on_c, 0, 54, 0
4, 40080, Note_on_c, 0, 57, 75
4, 40080, Note_on_c, 0, 63, 75
4, 40103, Note_on_c, 0, 63, 0
4, 40103, Note_on_c, 0, 57, 0
4, 40320, Note_on_c, 0, 56, 75
4, 40320, Note_on_c, 0, 59, 75
4, 40440, Note_on_c, 0, 59, 0
4, 40440, Note_on_c, 0, 56, 0
4, 40440, Note_on_c, 0, 52, 75
4, 40560, Note_on_c, 0, 52, 0
4, 40560, Note_on_c, 0, 56, 75
4, 40560, Note_on_c, 0, 64, 75
4, 40583, Note_on_c, 0, 64, 0
4, 40583, Note_on_c, 0, 56, 0
4, 40800, Note_on_c, 0, 56, 75
4, 40800, Note_on_c, 0, 59, 75
4, 40920, Note_on_c, 0, 59, 0
4, 40920, Note_on_c, 0, 56, 0
4, 40920, Note_on_c, 0, 52, 75
4, 41040, Note_on_c, 0, 52, 0
4, 41040, Note_on_c, 0, 56, 75
4, 41040, Note_on_c, 0, 64, 75
4, 41063, Note_on_c, 0, 64, 0
4, 41063, Note_on_c, 0, 56, 0
4, 41280, Note_on_c, 0, 66, 75
4, 41280, Note_on_c, 0, 69, 75
4, 41400, Note_on_c, 0, 69, 0
4, 41400, Note_on_c, 0, 66, 0
4, 41400, Note_on_c, 0, 59, 75
4, 41520, Note_on_c, 0, 59, 0
4, 42240, Note_on_c, 0, 64, 75
4, 42240, Note_on_c, 0, 68, 75
4, 42360, Note_on_c, 0, 68, 0
4, 42360, Note_on_c, 0, 64, 0
4, 42360, Note_on_c, 0, 59, 75
4, 42480, Note_on_c, 0, 59, 0
4, 43200, Note_on_c, 0, 66, 75
4, 43200, Note_on_c, 0, 69, 75
4, 43320, Note_on_c, 0, 69, 0
4, 43320, Note_on_c, 0, 66, 0
4, 43320, Note_on_c, 0, 59, 75
4, 43440, Note_on_c, 0, 59, 0
4, 44160, Note_on_c, 0, 64, 75
4, 44160, Note_on_c, 0, 68, 75
4, 44280, Note_on_c, 0, 68, 0
4, 44280, Note_on_c, 0, 64, 0
4, 44280, Note_on_c, 0, 59, 75
4, 44400, Note_on_c, 0, 59, 0
4, 45120, Note_on_c, 0, 66, 75
4, 45120, Note_on_c, 0, 69, 75
4, 45240, Note_on_c, 0, 69, 0
4, 45240, Note_on_c, 0, 66, 0
4, 45240, Note_on_c, 0, 59, 75
4, 45360, Note_on_c, 0, 59, 0
4, 46080, Note_on_c, 0, 32, 75
4, 46080, Note_on_c, 0, 35, 75
4, 46103, Note_on_c, 0, 35, 0
4, 46103, Note_on_c, 0, 32, 0
4, 46560, Note_on_c, 0, 52, 75
4, 46560, Note_on_c, 0, 58, 75
4, 46560, Note_on_c, 0, 61, 75
4, 46560, Note_on_c, 0, 64, 75
4, 47040, Note_on_c, 0, 64, 0
4, 47040, Note_on_c, 0, 52, 0
4, 47040, Note_on_c, 0, 58, 0
4, 47040, Note_on_c, 0, 61, 0
4, 47280, Note_on_c, 0, 52, 75
4, 47280, Note_on_c, 0, 59, 75
4, 47280, Note_on_c, 0, 64, 75
4, 48720, Note_on_c, 0, 64, 0
4, 48720, Note_on_c, 0, 59, 0
4, 48720, Note_on_c, 0, 52, 0
4, 48720, Note_on_c, 0, 54, 49
4, 48720, Note_on_c, 0, 57, 49
4, 48720, Note_on_c, 0, 59, 49
4, 49680, Note_on_c, 0, 59, 0
4, 49680, Note_on_c, 0, 57, 0
4, 49680, Note_on_c, 0, 54, 0
4, 50400, Note_on_c, 0, 52, 62
4, 50423, Note_on_c, 0, 52, 0
4, 50880, Note_on_c, 0, 54, 62
4, 50903, Note_on_c, 0, 54, 0
4, 51360, Note_on_c, 0, 55, 75
4, 51383, Note_on_c, 0, 55, 0
4, 51840, Note_on_c, 0, 54, 75
4, 51840, Note_on_c, 0, 64, 75
4, 51863, Note_on_c, 0, 64, 0
4, 51863, Note_on_c, 0, 54, 0
4, 52080, Note_on_c, 0, 63, 62
4, 52320, Note_on_c, 0, 63, 0
4, 52320, Note_on_c, 0, 54, 62
4, 52560, Note_on_c, 0, 54, 0
4, 52560, Note_on_c, 0, 52, 62
4, 52560, Note_on_c, 0, 55, 62
4, 52800, Note_on_c, 0, 55, 0
4, 52800, Note_on_c, 0, 52, 0
4, 52800, Note_on_c, 0, 64, 62
4, 53040, Note_on_c, 0, 64, 0
4, 53040, Note_on_c, 0, 54, 62
4, 53040, Note_on_c, 0, 63, 62
4, 53280, Note_on_c, 0, 63, 0
4, 53280, Note_on_c, 0, 54, 0
4, 53280, Note_on_c, 0, 59, 62
4, 53520, Note_on_c, 0, 59, 0
4, 53520, Note_on_c, 0, 51, 62
4, 53520, Note_on_c, 0, 57, 62
4, 53760, Note_on_c, 0, 57, 0
4, 53760, Note_on_c, 0, 51, 0
4, 53760, Note_on_c, 0, 54, 62
4, 54000, Note_on_c, 0, 54, 0
4, 54240, Note_on_c, 0, 52, 62
4, 54240, Note_on_c, 0, 55, 62
4, 54240, Note_on_c, 0, 59, 62
4, 54480, Note_on_c, 0, 59, 0
4, 54480, Note_on_c, 0, 55, 0
4, 54480, Note_on_c, 0, 52, 0
4, 54720, Note_on_c, 0, 54, 62
4, 54720, Note_on_c, 0, 57, 62
4, 54720, Note_on_c, 0, 59, 62
4, 54960, Note_on_c, 0, 59, 0
4, 54960, Note_on_c, 0, 57, 0
4, 54960, Note_on_c, 0, 54, 0
4, 55200, Note_on_c, 0, 55, 62
4, 55200, Note_on_c, 0, 59, 62
4, 55440, Note_on_c, 0, 59, 0
4, 55440, Note_on_c, 0, 55, 0
4, 55440, Note_on_c, 0, 54, 62
4, 55440, Note_on_c, 0, 66, 62
4, 55680, Note_on_c, 0, 66, 0
4, 55680, Note_on_c, 0, 54, 0
4, 55680, Note_on_c, 0, 64, 62
4, 55920, Note_on_c, 0, 64, 0
4, 55920, Note_on_c, 0, 63, 62
4, 56160, Note_on_c, 0, 63, 0
4, 56160, Note_on_c, 0, 54, 62
4, 56400, Note_on_c, 0, 54, 0
4, 56640, Note_on_c, 0, 55, 62
4, 56640, Note_on_c, 0, 60, 62
4, 56640, Note_on_c, 0, 64, 62
4, 56880, Note_on_c, 0, 64, 0
4, 56880, Note_on_c, 0, 60, 0
4, 56880, Note_on_c, 0, 55, 0
4, 56880, Note_on_c, 0, 54, 62
4, 56880, Note_on_c, 0, 63, 62
4, 57120, Note_on_c, 0, 63, 0
4, 57120, Note_on_c, 0, 54, 0
4, 57120, Note_on_c, 0, 59, 62
4, 57360, Note_on_c, 0, 59, 0
4, 57360, Note_on_c, 0, 55, 62
4, 57360, Note_on_c, 0, 59, 62
4, 57600, Note_on_c, 0, 59, 0
4, 57600, Note_on_c, 0, 55, 0
4, 57600, Note_on_c, 0, 52, 62
4, 57600, Note_on_c, 0, 55, 62
4, 57840, Note_on_c, 0, 55, 0
4, 57840, Note_on_c, 0, 52, 0
4, 57840, Note_on_c, 0, 54, 62
4, 58080, Note_on_c, 0, 54, 0
4, 58080, Note_on_c, 0, 57, 62
4, 58320, Note_on_c, 0, 57, 0
4, 58320, Note_on_c, 0, 54, 62
4, 58320, Note_on_c, 0, 57, 62
4, 58560, Note_on_c, 0, 57, 0
4, 58560, Note_on_c, 0, 54, 0
4, 58560, Note_on_c, 0, 62, 62
4, 58800, Note_on_c, 0, 62, 0
4, 58800, Note_on_c, 0, 52, 62
4, 58800, Note_on_c, 0, 55, 62
4, 59040, Note_on_c, 0, 55, 0
4, 59040, Note_on_c, 0, 52, 0
4, 59040, Note_on_c, 0, 60, 62
4, 59280, Note_on_c, 0, 60, 0
4, 59280, Note_on_c, 0, 50, 62
4, 59280, Note_on_c, 0, 55, 62
4, 59520, Note_on_c, 0, 55, 0
4, 59520, Note_on_c, 0, 50, 0
4, 59520, Note_on_c, 0, 59, 62
4, 59760, Note_on_c, 0, 59, 0
4, 59760, Note_on_c, 0, 52, 62
4, 60000, Note_on_c, 0, 52, 0
4, 60000, Note_on_c, 0, 57, 62
4, 60240, Note_on_c, 0, 57, 0
4, 60240, Note_on_c, 0, 52, 62
4, 60240, Note_on_c, 0, 54, 62
4, 60480, Note_on_c, 0, 54, 0
4, 60480, Note_on_c, 0, 52, 0
4, 60480, Note_on_c, 0, 60, 62
4, 60720, Note_on_c, 0, 60, 0
4, 60720, Note_on_c, 0, 51, 49
4, 60720, Note_on_c, 0, 54, 49
4, 60960, Note_on_c, 0, 54, 0
4, 60960, Note_on_c, 0, 51, 0
4, 60960, Note_on_c, 0, 59, 49
4, 61200, Note_on_c, 0, 59, 0
4, 61200, Note_on_c, 0, 47, 49
4, 61200, Note_on_c, 0, 51, 49
4, 61440, Note_on_c, 0, 51, 0
4, 61440, Note_on_c, 0, 47, 0
4, 61440, Note_on_c, 0, 54, 49
4, 61680, Note_on_c, 0, 54, 0
4, 61920, Note_on_c, 0, 47, 49
4, 61920, Note_on_c, 0, 52, 49
4, 62160, Note_on_c, 0, 52, 0
4, 62160, Note_on_c, 0, 47, 0
4, 62400, Note_on_c, 0, 45, 49
4, 62400, Note_on_c, 0, 51, 49
4, 62400, Note_on_c, 0, 57, 49
4, 62640, Note_on_c, 0, 57, 0
4, 62640, Note_on_c, 0, 51, 0
4, 62640, Note_on_c, 0, 45, 0
4, 62880, Note_on_c, 0, 47, 62
4, 62880, Note_on_c, 0, 52, 62
4, 62880, Note_on_c, 0, 55, 62
4, 63120, Note_on_c, 0, 55, 0
4, 63120, Note_on_c, 0, 52, 0
4, 63120, Note_on_c, 0, 47, 0
4, 63120, Note_on_c, 0, 54, 62
4, 63360, Note_on_c, 0, 54, 0
4, 63360, Note_on_c, 0, 52, 62
4, 63600, Note_on_c, 0, 52, 0
4, 63840, Note_on_c, 0, 51, 62
4, 63840, Note_on_c, 0, 57, 62
4, 64080, Note_on_c, 0, 57, 0
4, 64080, Note_on_c, 0, 51, 0
4, 64080, Note_on_c, 0, 55, 49
4, 64320, Note_on_c, 0, 55, 0
4, 64320, Note_on_c, 0, 54, 49
4, 64560, Note_on_c, 0, 54, 0
4, 64560, Note_on_c, 0, 52, 49
4, 64800, Note_on_c, 0, 52, 0
4, 64800, Note_on_c, 0, 55, 49
4, 65040, Note_on_c, 0, 55, 0
4, 65040, Note_on_c, 0, 55, 62
4, 65040, Note_on_c, 0, 59, 62
4, 65280, Note_on_c, 0, 59, 0
4, 65280, Note_on_c, 0, 55, 0
4, 65280, Note_on_c, 0, 64, 62
4, 65520, Note_on_c, 0, 64, 0
4, 65520, Note_on_c, 0, 57, 62
4, 65520, Note_on_c, 0, 66, 62
4, 65760, Note_on_c, 0, 66, 0
4, 65760, Note_on_c, 0, 57, 0
4, 65760, Note_on_c, 0, 54, 62
4, 65760, Note_on_c, 0, 62, 62
4, 66000, Note_on_c, 0, 62, 0
4, 66000, Note_on_c, 0, 54, 0
4, 66000, Note_on_c, 0, 54, 62
4, 66000, Note_on_c, 0, 62, 62
4, 66240, Note_on_c, 0, 62, 0
4, 66240, Note_on_c, 0, 54, 0
4, 66240, Note_on_c, 0, 57, 62
4, 66240, Note_on_c, 0, 60, 62
4, 66480, Note_on_c, 0, 60, 0
4, 66480, Note_on_c, 0, 57, 0
4, 66480, Note_on_c, 0, 55, 62
4, 66480, Note_on_c, 0, 60, 62
4, 66720, Note_on_c, 0, 60, 0
4, 66720, Note_on_c, 0, 55, 0
4, 66720, Note_on_c, 0, 52, 62
4, 66720, Note_on_c, 0, 55, 62
4, 66960, Note_on_c, 0, 55, 0
4, 66960, Note_on_c, 0, 52, 0
4, 66960, Note_on_c, 0, 50, 62
4, 66960, Note_on_c, 0, 59, 62
4, 67200, Note_on_c, 0, 59, 0
4, 67200, Note_on_c, 0, 50, 0
4, 67200, Note_on_c, 0, 47, 62
4, 67200, Note_on_c, 0, 50, 62
4, 67440, Note_on_c, 0, 50, 0
4, 67440, Note_on_c, 0, 47, 0
4, 67440, Note_on_c, 0, 52, 62
4, 67440, Note_on_c, 0, 57, 62
4, 67680, Note_on_c, 0, 57, 0
4, 67680, Note_on_c, 0, 52, 0
4, 67680, Note_on_c, 0, 48, 62
4, 67680, Note_on_c, 0, 52, 62
4, 67920, Note_on_c, 0, 52, 0
4, 67920, Note_on_c, 0, 48, 0
4, 67920, Note_on_c, 0, 54, 62
4, 67920, Note_on_c, 0, 57, 62
4, 68160, Note_on_c, 0, 57, 0
4, 68160, Note_on_c, 0, 54, 0
4, 68160, Note_on_c, 0, 50, 62
4, 68160, Note_on_c, 0, 54, 62
4, 68400, Note_on_c, 0, 54, 0
4, 68400, Note_on_c, 0, 50, 0
4, 68400, Note_on_c, 0, 50, 62
4, 68400, Note_on_c, 0, 59, 62
4, 68640, Note_on_c, 0, 59, 0
4, 68640, Note_on_c, 0, 50, 0
4, 68640, Note_on_c, 0, 47, 62
4, 68640, Note_on_c, 0, 50, 62
4, 68880, Note_on_c, 0, 50, 0
4, 68880, Note_on_c, 0, 47, 0
4, 68880, Note_on_c, 0, 51, 62
4, 68880, Note_on_c, 0, 57, 62
4, 69120, Note_on_c, 0, 57, 0
4, 69120, Note_on_c, 0, 51, 0
4, 69120, Note_on_c, 0, 51, 62
4, 69360, Note_on_c, 0, 51, 0
4, 69600, Note_on_c, 0, 52, 49
4, 69600, Note_on_c, 0, 55, 49
4, 69840, Note_on_c, 0, 55, 0
4, 69840, Note_on_c, 0, 60, 49
4, 70080, Note_on_c, 0, 60, 0
4, 70080, Note_on_c, 0, 52, 0
4, 70080, Note_on_c, 0, 52, 49
4, 70080, Note_on_c, 0, 60, 49
4, 70320, Note_on_c, 0, 60, 0
4, 70320, Note_on_c, 0, 59, 49
4, 70560, Note_on_c, 0, 59, 0
4, 70560, Note_on_c, 0, 52, 0
4, 70560, Note_on_c, 0, 52, 62
4, 70560, Note_on_c, 0, 59, 62
4, 70800, Note_on_c, 0, 59, 0
4, 70800, Note_on_c, 0, 64, 62
4, 71040, Note_on_c, 0, 64, 0
4, 71040, Note_on_c, 0, 52, 0
4, 71040, Note_on_c, 0, 52, 62
4, 71040, Note_on_c, 0, 64, 62
4, 71280, Note_on_c, 0, 64, 0
4, 71280, Note_on_c, 0, 52, 0
4, 71520, Note_on_c, 0, 52, 62
4, 71520, Note_on_c, 0, 59, 62
4, 71760, Note_on_c, 0, 59, 0
4, 71760, Note_on_c, 0, 52, 0
4, 72000, Note_on_c, 0, 51, 49
4, 72000, Note_on_c, 0, 54, 49
4, 72000, Note_on_c, 0, 57, 49
4, 72240, Note_on_c, 0, 57, 0
4, 72240, Note_on_c, 0, 54, 0
4, 72240, Note_on_c, 0, 51, 0
4, 72480, Note_on_c, 0, 47, 49
4, 72480, Note_on_c, 0, 52, 49
4, 72480, Note_on_c, 0, 55, 49
4, 72960, Note_on_c, 0, 55, 0
4, 72960, Note_on_c, 0, 52, 0
4, 72960, Note_on_c, 0, 47, 0
4, 72960, End_track
5, 0, Start_track
5, 0, Title_t, "Instrument19"
5, 0, Program_c, 0, 0
5, 0, Control_c, 0, 7, 110
5, 0, Control_c, 0, 10, 30
5, 480, Note_on_c, 0, 40, 62
5, 503, Note_on_c, 0, 40, 0
5, 960, Note_on_c, 0, 42, 62
5, 983, Note_on_c, 0, 42, 0
5, 1440, Note_on_c, 0, 43, 62
5, 1463, Note_on_c, 0, 43, 0
5, 1920, Note_on_c, 0, 42, 75
5, 1943, Note_on_c, 0, 42, 0
5, 2400, Note_on_c, 0, 47, 75
5, 2423, Note_on_c, 0, 47, 0
5, 2880, Note_on_c, 0, 43, 75
5, 2903, Note_on_c, 0, 43, 0
5, 3360, Note_on_c, 0, 47, 75
5, 3383, Note_on_c, 0, 47, 0
5, 3840, Note_on_c, 0, 35, 75
5, 3863, Note_on_c, 0, 35, 0
5, 4320, Note_on_c, 0, 40, 75
5, 4343, Note_on_c, 0, 40, 0
5, 4800, Note_on_c, 0, 39, 75
5, 4823, Note_on_c, 0, 39, 0
5, 5280, Note_on_c, 0, 40, 62
5, 5520, Note_on_c, 0, 40, 0
5, 5520, Note_on_c, 0, 52, 62
5, 5760, Note_on_c, 0, 52, 0
5, 5760, Note_on_c, 0, 38, 62
5, 5760, Note_on_c, 0, 50, 62
5, 6000, Note_on_c, 0, 50, 0
5, 6000, Note_on_c, 0, 38, 0
5, 6000, Note_on_c, 0, 36, 62
5, 6000, Note_on_c, 0, 48, 62
5, 6240, Note_on_c, 0, 48, 0
5, 6240, Note_on_c, 0, 36, 0
5, 6240, Note_on_c, 0, 35, 62
5, 6240, Note_on_c, 0, 47, 62
5, 6480, Note_on_c, 0, 47, 0
5, 6480, Note_on_c, 0, 35, 0
5, 6720, Note_on_c, 0, 33, 62
5, 6720, Note_on_c, 0, 45, 62
5, 6960, Note_on_c, 0, 45, 0
5, 6960, Note_on_c, 0, 33, 0
5, 7200, Note_on_c, 0, 35, 62
5, 7200, Note_on_c, 0, 47, 62
5, 7440, Note_on_c, 0, 47, 0
5, 7440, Note_on_c, 0, 35, 0
5, 7680, Note_on_c, 0, 40, 62
5, 7920, Note_on_c, 0, 40, 0
5, 8160, Note_on_c, 0, 38, 62
5, 8640, Note_on_c, 0, 50, 62
5, 9120, Note_on_c, 0, 50, 0
5, 9120, Note_on_c, 0, 38, 0
5, 9120, Note_on_c, 0, 40, 62
5, 9600, Note_on_c, 0, 40, 0
5, 9600, Note_on_c, 0, 43, 62
5, 10080, Note_on_c, 0, 43, 0
5, 10080, Note_on_c, 0, 36, 62
5, 10080, Note_on_c, 0, 48, 62
5, 10560, Note_on_c, 0, 48, 0
5, 10560, Note_on_c, 0, 36, 0
5, 10560, Note_on_c, 0, 33, 62
5, 10560, Note_on_c, 0, 45, 62
5, 11040, Note_on_c, 0, 45, 0
5, 11040, Note_on_c, 0, 33, 0
5, 11040, Note_on_c, 0, 35, 49
5, 11040, Note_on_c, 0, 47, 49
5, 11520, Note_on_c, 0, 47, 0
5, 11520, Note_on_c, 0, 35, 0
5, 11520, Note_on_c, 0, 33, 49
5, 11520, Note_on_c, 0, 45, 49
5, 12000, Note_on_c, 0, 45, 0
5, 12000, Note_on_c, 0, 33, 0
5, 12000, Note_on_c, 0, 31, 49
5, 12000, Note_on_c, 0, 43, 49
5, 12240, Note_on_c, 0, 43, 0
5, 12240, Note_on_c, 0, 31, 0
5, 12480, Note_on_c, 0, 30, 49
5, 12480, Note_on_c, 0, 42, 49
5, 12720, Note_on_c, 0, 42, 0
5, 12720, Note_on_c, 0, 30, 0
5, 12960, Note_on_c, 0, 28, 62
5, 12960, Note_on_c, 0, 40, 62
5, 13200, Note_on_c, 0, 40, 0
5, 13200, Note_on_c, 0, 28, 0
5, 13440, Note_on_c, 0, 38, 62
5, 13680, Note_on_c, 0, 38, 0
5, 13680, Note_on_c, 0, 36, 62
5, 13920, Note_on_c, 0, 36, 0
5, 13920, Note_on_c, 0, 35, 62
5, 14160, Note_on_c, 0, 35, 0
5, 14400, Note_on_c, 0, 47, 49
5, 14640, Note_on_c, 0, 47, 0
5, 14880, Note_on_c, 0, 43, 49
5, 15120, Note_on_c, 0, 43, 0
5, 15360, Note_on_c, 0, 40, 62
5, 15600, Note_on_c, 0, 40, 0
5, 15840, Note_on_c, 0, 38, 62
5, 16320, Note_on_c, 0, 50, 62
5, 16800, Note_on_c, 0, 50, 0
5, 16800, Note_on_c, 0, 38, 0
5, 16800, Note_on_c, 0, 40, 62
5, 17280, Note_on_c, 0, 40, 0
5, 17280, Note_on_c, 0, 43, 62
5, 17760, Note_on_c, 0, 43, 0
5, 17760, Note_on_c, 0, 36, 62
5, 18240, Note_on_c, 0, 36, 0
5, 18240, Note_on_c, 0, 38, 62
5, 18720, Note_on_c, 0, 38, 0
5, 18720, Note_on_c, 0, 31, 62
5, 18720, Note_on_c, 0, 43, 62
5, 19200, Note_on_c, 0, 43, 0
5, 19200, Note_on_c, 0, 31, 0
5, 19200, Note_on_c, 0, 35, 62
5, 19200, Note_on_c, 0, 47, 62
5, 19680, Note_on_c, 0, 47, 0
5, 19680, Note_on_c, 0, 35, 0
5, 19680, Note_on_c, 0, 36, 49
5, 19680, Note_on_c, 0, 48, 49
5, 20160, Note_on_c, 0, 48, 0
5, 20160, Note_on_c, 0, 36, 0
5, 20160, Note_on_c, 0, 33, 49
5, 20160, Note_on_c, 0, 45, 49
5, 20640, Note_on_c, 0, 45, 0
5, 20640, Note_on_c, 0, 33, 0
5, 20640, Note_on_c, 0, 40, 62
5, 21120, Note_on_c, 0, 40, 0
5, 21120, Note_on_c, 0, 30, 62
5, 21120, Note_on_c, 0, 42, 62
5, 21600, Note_on_c, 0, 42, 0
5, 21600, Note_on_c, 0, 30, 0
5, 21600, Note_on_c, 0, 31, 62
5, 21600, Note_on_c, 0, 43, 62
5, 22080, Note_on_c, 0, 43, 0
5, 22080, Note_on_c, 0, 31, 0
5, 22080, Note_on_c, 0, 35, 49
5, 22560, Note_on_c, 0, 35, 0
5, 22560, Note_on_c, 0, 40, 49
5, 23040, Note_on_c, 0, 40, 0
5, 23040, Note_on_c, 0, 28, 49
5, 23280, Note_on_c, 0, 28, 0
5, 24000, Note_on_c, 0, 40, 49
5, 24023, Note_on_c, 0, 40, 0
5, 24240, Note_on_c, 0, 35, 49
5, 24263, Note_on_c, 0, 35, 0
5, 24720, Note_on_c, 0, 35, 49
5, 24743, Note_on_c, 0, 35, 0
5, 24960, Note_on_c, 0, 39, 49
5, 24983, Note_on_c, 0, 39, 0
5, 25200, Note_on_c, 0, 35, 49
5, 25223, Note_on_c, 0, 35, 0
5, 25680, Note_on_c, 0, 35, 49
5, 25703, Note_on_c, 0, 35, 0
5, 25920, Note_on_c, 0, 40, 49
5, 25943, Note_on_c, 0, 40, 0
5, 26160, Note_on_c, 0, 35, 49
5, 26183, Note_on_c, 0, 35, 0
5, 26640, Note_on_c, 0, 35, 49
5, 26663, Note_on_c, 0, 35, 0
5, 26880, Note_on_c, 0, 39, 49
5, 26903, Note_on_c, 0, 39, 0
5, 27120, Note_on_c, 0, 35, 49
5, 27143, Note_on_c, 0, 35, 0
5, 27600, Note_on_c, 0, 35, 49
5, 27623, Note_on_c, 0, 35, 0
5, 27840, Note_on_c, 0, 39, 49
5, 27863, Note_on_c, 0, 39, 0
5, 28080, Note_on_c, 0, 35, 49
5, 28103, Note_on_c, 0, 35, 0
5, 28320, Note_on_c, 0, 39, 49
5, 28343, Note_on_c, 0, 39, 0
5, 28560, Note_on_c, 0, 35, 49
5, 28583, Note_on_c, 0, 35, 0
5, 28800, Note_on_c, 0, 40, 49
5, 28823, Note_on_c, 0, 40, 0
5, 29040, Note_on_c, 0, 35, 49
5, 29063, Note_on_c, 0, 35, 0
5, 29280, Note_on_c, 0, 40, 49
5, 29303, Note_on_c, 0, 40, 0
5, 29520, Note_on_c, 0, 35, 49
5, 29543, Note_on_c, 0, 35, 0
5, 29760, Note_on_c, 0, 39, 49
5, 29783, Note_on_c, 0, 39, 0
5, 30000, Note_on_c, 0, 35, 49
5, 30023, Note_on_c, 0, 35, 0
5, 30480, Note_on_c, 0, 35, 49
5, 30503, Note_on_c, 0, 35, 0
5, 30720, Note_on_c, 0, 40, 49
5, 30743, Note_on_c, 0, 40, 0
5, 30960, Note_on_c, 0, 35, 49
5, 30983, Note_on_c, 0, 35, 0
5, 31440, Note_on_c, 0, 35, 62
5, 31463, Note_on_c, 0, 35, 0
5, 31680, Note_on_c, 0, 39, 62
5, 31703, Note_on_c, 0, 39, 0
5, 31920, Note_on_c, 0, 35, 62
5, 31943, Note_on_c, 0, 35, 0
5, 32160, Note_on_c, 0, 39, 62
5, 32183, Note_on_c, 0, 39, 0
5, 32400, Note_on_c, 0, 35, 62
5, 32423, Note_on_c, 0, 35, 0
5, 32640, Note_on_c, 0, 40, 62
5, 32663, Note_on_c, 0, 40, 0
5, 32880, Note_on_c, 0, 35, 62
5, 32903, Note_on_c, 0, 35, 0
5, 33120, Note_on_c, 0, 40, 62
5, 33143, Note_on_c, 0, 40, 0
5, 33360, Note_on_c, 0, 35, 62
5, 33383, Note_on_c, 0, 35, 0
5, 33600, Note_on_c, 0, 39, 75
5, 33623, Note_on_c, 0, 39, 0
5, 33840, Note_on_c, 0, 35, 75
5, 33863, Note_on_c, 0, 35, 0
5, 34080, Note_on_c, 0, 47, 75
5, 34103, Note_on_c, 0, 47, 0
5, 34320, Note_on_c, 0, 35, 75
5, 34343, Note_on_c, 0, 35, 0
5, 34560, Note_on_c, 0, 40, 75
5, 34583, Note_on_c, 0, 40, 0
5, 35040, Note_on_c, 0, 40, 75
5, 35040, Note_on_c, 0, 49, 75
5, 35520, Note_on_c, 0, 49, 0
5, 35520, Note_on_c, 0, 40, 0
5, 35520, Note_on_c, 0, 28, 75
5, 35520, Note_on_c, 0, 40, 75
5, 35543, Note_on_c, 0, 40, 0
5, 35543, Note_on_c, 0, 28, 0
5, 35760, Note_on_c, 0, 47, 75
5, 35880, Note_on_c, 0, 47, 0
5, 35880, Note_on_c, 0, 40, 75
5, 36000, Note_on_c, 0, 40, 0
5, 36240, Note_on_c, 0, 32, 75
5, 36240, Note_on_c, 0, 44, 75
5, 36263, Note_on_c, 0, 44, 0
5, 36263, Note_on_c, 0, 32, 0
5, 36480, Note_on_c, 0, 35, 75
5, 36503, Note_on_c, 0, 35, 0
5, 36720, Note_on_c, 0, 47, 75
5, 36840, Note_on_c, 0, 47, 0
5, 36840, Note_on_c, 0, 42, 75
5, 36960, Note_on_c, 0, 42, 0
5, 37200, Note_on_c, 0, 35, 75
5, 37223, Note_on_c, 0, 35, 0
5, 37440, Note_on_c, 0, 40, 75
5, 37463, Note_on_c, 0, 40, 0
5, 37680, Note_on_c, 0, 47, 75
5, 37800, Note_on_c, 0, 47, 0
5, 37800, Note_on_c, 0, 40, 75
5, 37920, Note_on_c, 0, 40, 0
5, 38160, Note_on_c, 0, 32, 75
5, 38160, Note_on_c, 0, 44, 75
5, 38183, Note_on_c, 0, 44, 0
5, 38183, Note_on_c, 0, 32, 0
5, 38400, Note_on_c, 0, 35, 75
5, 38423, Note_on_c, 0, 35, 0
5, 38640, Note_on_c, 0, 47, 75
5, 38760, Note_on_c, 0, 47, 0
5, 38760, Note_on_c, 0, 42, 75
5, 38880, Note_on_c, 0, 42, 0
5, 39120, Note_on_c, 0, 35, 75
5, 39143, Note_on_c, 0, 35, 0
5, 39360, Note_on_c, 0, 39, 75
5, 39383, Note_on_c, 0, 39, 0
5, 39600, Note_on_c, 0, 47, 75
5, 39720, Note_on_c, 0, 47, 0
5, 39720, Note_on_c, 0, 35, 75
5, 39840, Note_on_c, 0, 35, 0
5, 39840, Note_on_c, 0, 39, 75
5, 39863, Note_on_c, 0, 39, 0
5, 40080, Note_on_c, 0, 47, 75
5, 40200, Note_on_c, 0, 47, 0
5, 40200, Note_on_c, 0, 35, 75
5, 40320, Note_on_c, 0, 35, 0
5, 40320, Note_on_c, 0, 40, 75
5, 40343, Note_on_c, 0, 40, 0
5, 40560, Note_on_c, 0, 47, 75
5, 40680, Note_on_c, 0, 47, 0
5, 40680, Note_on_c, 0, 35, 75
5, 40800, Note_on_c, 0, 35, 0
5, 40800, Note_on_c, 0, 40, 75
5, 40823, Note_on_c, 0, 40, 0
5, 41040, Note_on_c, 0, 47, 75
5, 41160, Note_on_c, 0, 47, 0
5, 41160, Note_on_c, 0, 35, 75
5, 41280, Note_on_c, 0, 35, 0
5, 41520, Note_on_c, 0, 54, 75
5, 41640, Note_on_c, 0, 54, 0
5, 41640, Note_on_c, 0, 47, 75
5, 41760, Note_on_c, 0, 47, 0
5, 41760, Note_on_c, 0, 54, 75
5, 41760, Note_on_c, 0, 57, 75
5, 41880, Note_on_c, 0, 57, 0
5, 41880, Note_on_c, 0, 54, 0
5, 41880, Note_on_c, 0, 47, 75
5, 42000, Note_on_c, 0, 47, 0
5, 42000, Note_on_c, 0, 35, 75
5, 42023, Note_on_c, 0, 35, 0
5, 42240, Note_on_c, 0, 40, 75
5, 42263, Note_on_c, 0, 40, 0
5, 42480, Note_on_c, 0, 52, 75
5, 42600, Note_on_c, 0, 52, 0
5, 42600, Note_on_c, 0, 47, 75
5, 42720, Note_on_c, 0, 47, 0
5, 42720, Note_on_c, 0, 52, 75
5, 42720, Note_on_c, 0, 56, 75
5, 42840, Note_on_c, 0, 56, 0
5, 42840, Note_on_c, 0, 52, 0
5, 42840, Note_on_c, 0, 47, 75
5, 42960, Note_on_c, 0, 47, 0
5, 42960, Note_on_c, 0, 32, 75
5, 42960, Note_on_c, 0, 44, 75
5, 42983, Note_on_c, 0, 44, 0
5, 42983, Note_on_c, 0, 32, 0
5, 43200, Note_on_c, 0, 35, 75
5, 43200, Note_on_c, 0, 47, 75
5, 43223, Note_on_c, 0, 47, 0
5, 43223, Note_on_c, 0, 35, 0
5, 43440, Note_on_c, 0, 54, 75
5, 43560, Note_on_c, 0, 54, 0
5, 43560, Note_on_c, 0, 47, 75
5, 43680, Note_on_c, 0, 47, 0
5, 43680, Note_on_c, 0, 54, 75
5, 43680, Note_on_c, 0, 57, 75
5, 43800, Note_on_c, 0, 57, 0
5, 43800, Note_on_c, 0, 54, 0
5, 43800, Note_on_c, 0, 47, 75
5, 43920, Note_on_c, 0, 47, 0
5, 43920, Note_on_c, 0, 35, 75
5, 43943, Note_on_c, 0, 35, 0
5, 44160, Note_on_c, 0, 40, 75
5, 44183, Note_on_c, 0, 40, 0
5, 44400, Note_on_c, 0, 52, 75
5, 44520, Note_on_c, 0, 52, 0
5, 44520, Note_on_c, 0, 47, 75
5, 44640, Note_on_c, 0, 47, 0
5, 44640, Note_on_c, 0, 52, 75
5, 44640, Note_on_c, 0, 56, 75
5, 44760, Note_on_c, 0, 56, 0
5, 44760, Note_on_c, 0, 52, 0
5, 44760, Note_on_c, 0, 47, 75
5, 44880, Note_on_c, 0, 47, 0
5, 44880, Note_on_c, 0, 32, 75
5, 44880, Note_on_c, 0, 44, 75
5, 44903, Note_on_c, 0, 44, 0
5, 44903, Note_on_c, 0, 32, 0
5, 45120, Note_on_c, 0, 35, 75
5, 45120, Note_on_c, 0, 47, 75
5, 45143, Note_on_c, 0, 47, 0
5, 45143, Note_on_c, 0, 35, 0
5, 45360, Note_on_c, 0, 54, 75
5, 45480, Note_on_c, 0, 54, 0
5, 45480, Note_on_c, 0, 47, 75
5, 45600, Note_on_c, 0, 47, 0
5, 45600, Note_on_c, 0, 54, 75
5, 45600, Note_on_c, 0, 57, 75
5, 45720, Note_on_c, 0, 57, 0
5, 45720, Note_on_c, 0, 54, 0
5, 45720, Note_on_c, 0, 47, 75
5, 45840, Note_on_c, 0, 47, 0
5, 45840, Note_on_c, 0, 35, 75
5, 45863, Note_on_c, 0, 35, 0
5, 46080, Note_on_c, 0, 40, 75
5, 46080, Note_on_c, 0, 47, 75
5, 46103, Note_on_c, 0, 47, 0
5, 46103, Note_on_c, 0, 40, 0
5, 46560, Note_on_c, 0, 40, 75
5, 46560, Note_on_c, 0, 49, 75
5, 47040, Note_on_c, 0, 49, 0
5, 47040, Note_on_c, 0, 40, 0
5, 47280, Note_on_c, 0, 31, 75
5, 47280, Note_on_c, 0, 43, 75
5, 48720, Note_on_c, 0, 43, 0
5, 48720, Note_on_c, 0, 31, 0
5, 48720, Note_on_c, 0, 35, 49
5, 48720, Note_on_c, 0, 47, 49
5, 49680, Note_on_c, 0, 47, 0
5, 49680, Note_on_c, 0, 35, 0
5, 50160, Note_on_c, 0, 40, 62
5, 50183, Note_on_c, 0, 40, 0
5, 50640, Note_on_c, 0, 42, 62
5, 50663, Note_on_c, 0, 42, 0
5, 51120, Note_on_c, 0, 43, 62
5, 51143, Note_on_c, 0, 43, 0
5, 51600, Note_on_c, 0, 42, 75
5, 51623, Note_on_c, 0, 42, 0
5, 52080, Note_on_c, 0, 47, 75
5, 52103, Note_on_c, 0, 47, 0
5, 52560, Note_on_c, 0, 43, 75
5, 52583, Note_on_c, 0, 43, 0
5, 53040, Note_on_c, 0, 47, 75
5, 53063, Note_on_c, 0, 47, 0
5, 53520, Note_on_c, 0, 35, 75
5, 53543, Note_on_c, 0, 35, 0
5, 54000, Note_on_c, 0, 40, 75
5, 54023, Note_on_c, 0, 40, 0
5, 54480, Note_on_c, 0, 39, 75
5, 54503, Note_on_c, 0, 39, 0
5, 54960, Note_on_c, 0, 40, 62
5, 55200, Note_on_c, 0, 40, 0
5, 55200, Note_on_c, 0, 52, 62
5, 55440, Note_on_c, 0, 52, 0
5, 55440, Note_on_c, 0, 38, 62
5, 55440, Note_on_c, 0, 50, 62
5, 55680, Note_on_c, 0, 50, 0
5, 55680, Note_on_c, 0, 38, 0
5, 55680, Note_on_c, 0, 36, 62
5, 55680, Note_on_c, 0, 48, 62
5, 55920, Note_on_c, 0, 48, 0
5, 55920, Note_on_c, 0, 36, 0
5, 55920, Note_on_c, 0, 35, 62
5, 55920, Note_on_c, 0, 47, 62
5, 56160, Note_on_c, 0, 47, 0
5, 56160, Note_on_c, 0, 35, 0
5, 56400, Note_on_c, 0, 33, 62
5, 56400, Note_on_c, 0, 45, 62
5, 56640, Note_on_c, 0, 45, 0
5, 56640, Note_on_c, 0, 33, 0
5, 56880, Note_on_c, 0, 35, 62
5, 56880, Note_on_c, 0, 47, 62
5, 57120, Note_on_c, 0, 47, 0
5, 57120, Note_on_c, 0, 35, 0
5, 57360, Note_on_c, 0, 40, 62
5, 57600, Note_on_c, 0, 40, 0
5, 57840, Note_on_c, 0, 38, 62
5, 58320, Note_on_c, 0, 50, 62
5, 58800, Note_on_c, 0, 50, 0
5, 58800, Note_on_c, 0, 38, 0
5, 58800, Note_on_c, 0, 40, 62
5, 59280, Note_on_c, 0, 40, 0
5, 59280, Note_on_c, 0, 43, 62
5, 59760, Note_on_c, 0, 43, 0
5, 59760, Note_on_c, 0, 36, 62
5, 59760, Note_on_c, 0, 48, 62
5, 60240, Note_on_c, 0, 48, 0
5, 60240, Note_on_c, 0, 36, 0
5, 60240, Note_on_c, 0, 33, 62
5, 60240, Note_on_c, 0, 45, 62
5, 60720, Note_on_c, 0, 45, 0
5, 60720, Note_on_c, 0, 33, 0
5, 60720, Note_on_c, 0, 35, 49
5, 60720, Note_on_c, 0, 47, 49
5, 61200, Note_on_c, 0, 47, 0
5, 61200, Note_on_c, 0, 35, 0
5, 61200, Note_on_c, 0, 33, 49
5, 61200, Note_on_c, 0, 45, 49
5, 61680, Note_on_c, 0, 45, 0
5, 61680, Note_on_c, 0, 33, 0
5, 61680, Note_on_c, 0, 31, 49
5, 61680, Note_on_c, 0, 43, 49
5, 61920, Note_on_c, 0, 43, 0
5, 61920, Note_on_c, 0, 31, 0
5, 62160, Note_on_c, 0, 30, 49
5, 62160, Note_on_c, 0, 42, 49
5, 62400, Note_on_c, 0, 42, 0
5, 62400, Note_on_c, 0, 30, 0
5, 62640, Note_on_c, 0, 28, 62
5, 62640, Note_on_c, 0, 40, 62
5, 62880, Note_on_c, 0, 40, 0
5, 62880, Note_on_c, 0, 28, 0
5, 63120, Note_on_c, 0, 38, 62
5, 63360, Note_on_c, 0, 38, 0
5, 63360, Note_on_c, 0, 36, 62
5, 63600, Note_on_c, 0, 36, 0
5, 63600, Note_on_c, 0, 35, 62
5, 63840, Note_on_c, 0, 35, 0
5, 64080, Note_on_c, 0, 47, 49
5, 64320, Note_on_c, 0, 47, 0
5, 64560, Note_on_c, 0, 43, 49
5, 64800, Note_on_c, 0, 43, 0
5, 65040, Note_on_c, 0, 40, 62
5, 65280, Note_on_c, 0, 40, 0
5, 65520, Note_on_c, 0, 38, 62
5, 66000, Note_on_c, 0, 50, 62
5, 66480, Note_on_c, 0, 50, 0
5, 66480, Note_on_c, 0, 38, 0
5, 66480, Note_on_c, 0, 40, 62
5, 66960, Note_on_c, 0, 40, 0
5, 66960, Note_on_c, 0, 43, 62
5, 67440, Note_on_c, 0, 43, 0
5, 67440, Note_on_c, 0, 36, 62
5, 67920, Note_on_c, 0, 36, 0
5, 67920, Note_on_c, 0, 38, 62
5, 68400, Note_on_c, 0, 38, 0
5, 68400, Note_on_c, 0, 31, 62
5, 68400, Note_on_c, 0, 43, 62
5, 68880, Note_on_c, 0, 43, 0
5, 68880, Note_on_c, 0, 31, 0
5, 68880, Note_on_c, 0, 35, 62
5, 68880, Note_on_c, 0, 47, 62
5, 69360, Note_on_c, 0, 47, 0
5, 69360, Note_on_c, 0, 35, 0
5, 69360, Note_on_c, 0, 36, 49
5, 69360, Note_on_c, 0, 48, 49
5, 69840, Note_on_c, 0, 48, 0
5, 69840, Note_on_c, 0, 36, 0
5, 69840, Note_on_c, 0, 33, 49
5, 69840, Note_on_c, 0, 45, 49
5, 70320, Note_on_c, 0, 45, 0
5, 70320, Note_on_c, 0, 33, 0
5, 70320, Note_on_c, 0, 40, 62
5, 70800, Note_on_c, 0, 40, 0
5, 70800, Note_on_c, 0, 30, 62
5, 70800, Note_on_c, 0, 42, 62
5, 71280, Note_on_c, 0, 42, 0
5, 71280, Note_on_c, 0, 30, 0
5, 71280, Note_on_c, 0, 31, 62
5, 71280, Note_on_c, 0, 43, 62
5, 71760, Note_on_c, 0, 43, 0
5, 71760, Note_on_c, 0, 31, 0
5, 71760, Note_on_c, 0, 35, 49
5, 72240, Note_on_c, 0, 35, 0
5, 72240, Note_on_c, 0, 40, 49
5, 72720, Note_on_c, 0, 40, 0
5, 72720, Note_on_c, 0, 28, 49
5, 72960, Note_on_c, 0, 28, 0
5, 72960, End_track
0, 0, End_of_file
