0, 0, Header, 0, 1, 384
1, 0, Start_track
1, 0, Tempo, 512820
1, 0, Title_t, "Rhapsodie Nr. 4 in Es-Dur, Op. 1"
1, 0, Program_c, 0, 0
1, 0, Control_c, 0, 7, 100
1, 3, Control_c, 0, 10, 64
1, 3, Control_c, 0, 91, 127
1, 748, Note_on_c, 0, 67, 79
1, 748, Note_on_c, 0, 70, 79
1, 748, Note_on_c, 0, 75, 79
1, 751, Note_on_c, 0, 79, 88
1, 751, Control_c, 0, 91, 127
1, 751, Control_c, 0, 64, 0
1, 754, Program_c, 0, 0
1, 754, Control_c, 0, 7, 100
1, 754, Control_c, 0, 10, 64
1, 757, Note_on_c, 0, 39, 62
1, 757, Note_on_c, 0, 46, 62
1, 757, Note_on_c, 0, 51, 70
1, 760, Control_c, 0, 91, 127
1, 772, Control_c, 0, 64, 127
1, 1101, Control_c, 0, 64, 0
1, 1155, Note_on_c, 0, 79, 0
1, 1155, Note_on_c, 0, 67, 0
1, 1155, Note_on_c, 0, 70, 0
1, 1158, Note_on_c, 0, 75, 0
1, 1158, Note_on_c, 0, 65, 62
1, 1158, Note_on_c, 0, 70, 62
1, 1161, Note_on_c, 0, 74, 62
1, 1161, Note_on_c, 0, 77, 70
1, 1161, Note_on_c, 0, 51, 0
1, 1164, Note_on_c, 0, 46, 0
1, 1164, Note_on_c, 0, 39, 0
1, 1164, Note_on_c, 0, 34, 50
1, 1167, Note_on_c, 0, 46, 57
1, 1264, Note_on_c, 0, 77, 0
1, 1264, Note_on_c, 0, 65, 0
1, 1264, Note_on_c, 0, 70, 0
1, 1267, Note_on_c, 0, 74, 0
1, 1267, Note_on_c, 0, 46, 0
1, 1267, Note_on_c, 0, 34, 0
1, 1374, Note_on_c, 0, 75, 62
1, 1374, Note_on_c, 0, 67, 62
1, 1374, Note_on_c, 0, 70, 62
1, 1377, Note_on_c, 0, 79, 70
1, 1377, Note_on_c, 0, 39, 50
1, 1377, Note_on_c, 0, 51, 57
1, 1484, Note_on_c, 0, 79, 0
1, 1484, Note_on_c, 0, 75, 0
1, 1484, Note_on_c, 0, 67, 0
1, 1487, Note_on_c, 0, 70, 0
1, 1487, Note_on_c, 0, 51, 0
1, 1487, Note_on_c, 0, 39, 0
1, 1593, Note_on_c, 0, 68, 79
1, 1593, Note_on_c, 0, 72, 79
1, 1593, Note_on_c, 0, 80, 88
1, 1596, Note_on_c, 0, 75, 79
1, 1596, Note_on_c, 0, 32, 62
1, 1596, Note_on_c, 0, 44, 70
1, 1623, Control_c, 0, 64, 127
1, 1939, Control_c, 0, 64, 0
1, 1993, Note_on_c, 0, 75, 0
1, 1993, Note_on_c, 0, 68, 0
1, 1993, Note_on_c, 0, 72, 0
1, 1996, Note_on_c, 0, 80, 0
1, 1996, Note_on_c, 0, 75, 62
1, 1996, Note_on_c, 0, 70, 62
1, 1999, Note_on_c, 0, 67, 62
1, 1999, Note_on_c, 0, 79, 70
1, 1999, Note_on_c, 0, 44, 0
1, 2002, Note_on_c, 0, 32, 0
1, 2002, Note_on_c, 0, 39, 49
1, 2002, Note_on_c, 0, 51, 55
1, 2101, Note_on_c, 0, 79, 0
1, 2101, Note_on_c, 0, 75, 0
1, 2101, Note_on_c, 0, 70, 0
1, 2104, Note_on_c, 0, 67, 0
1, 2104, Note_on_c, 0, 51, 0
1, 2104, Note_on_c, 0, 39, 0
1, 2209, Note_on_c, 0, 65, 63
1, 2209, Note_on_c, 0, 72, 63
1, 2209, Note_on_c, 0, 77, 71
1, 2212, Note_on_c, 0, 75, 63
1, 2212, Note_on_c, 0, 32, 49
1, 2212, Note_on_c, 0, 44, 55
1, 2317, Note_on_c, 0, 75, 0
1, 2317, Note_on_c, 0, 65, 0
1, 2317, Note_on_c, 0, 72, 0
1, 2320, Note_on_c, 0, 77, 0
1, 2320, Note_on_c, 0, 44, 0
1, 2320, Note_on_c, 0, 32, 0
1, 2425, Note_on_c, 0, 70, 75
1, 2425, Note_on_c, 0, 67, 75
1, 2425, Note_on_c, 0, 75, 75
1, 2428, Note_on_c, 0, 79, 84
1, 2428, Note_on_c, 0, 39, 62
1, 2428, Note_on_c, 0, 46, 62
1, 2431, Note_on_c, 0, 51, 70
1, 2465, Control_c, 0, 64, 127
1, 2767, Control_c, 0, 64, 0
1, 2828, Note_on_c, 0, 79, 0
1, 2828, Note_on_c, 0, 70, 0
1, 2828, Note_on_c, 0, 67, 0
1, 2831, Note_on_c, 0, 75, 0
1, 2831, Note_on_c, 0, 65, 60
1, 2831, Note_on_c, 0, 77, 68
1, 2834, Note_on_c, 0, 68, 60
1, 2834, Note_on_c, 0, 74, 60
1, 2834, Note_on_c, 0, 51, 0
1, 2837, Note_on_c, 0, 46, 0
1, 2837, Note_on_c, 0, 39, 0
1, 2837, Note_on_c, 0, 34, 48
1, 2840, Note_on_c, 0, 46, 53
1, 2934, Note_on_c, 0, 74, 0
1, 2934, Note_on_c, 0, 65, 0
1, 2934, Note_on_c, 0, 77, 0
1, 2937, Note_on_c, 0, 68, 0
1, 2937, Note_on_c, 0, 46, 0
1, 2937, Note_on_c, 0, 34, 0
1, 3041, Note_on_c, 0, 67, 57
1, 3041, Note_on_c, 0, 63, 57
1, 3041, Note_on_c, 0, 70, 57
1, 3044, Note_on_c, 0, 75, 63
1, 3044, Note_on_c, 0, 27, 48
1, 3044, Note_on_c, 0, 39, 53
1, 3148, Note_on_c, 0, 75, 0
1, 3148, Note_on_c, 0, 67, 0
1, 3148, Note_on_c, 0, 63, 0
1, 3151, Note_on_c, 0, 70, 0
1, 3151, Note_on_c, 0, 39, 0
1, 3151, Note_on_c, 0, 27, 0
1, 3255, Note_on_c, 0, 65, 60
1, 3255, Note_on_c, 0, 74, 60
1, 3255, Note_on_c, 0, 77, 68
1, 3258, Note_on_c, 0, 34, 48
1, 3258, Note_on_c, 0, 46, 53
1, 3358, Note_on_c, 0, 77, 0
1, 3358, Note_on_c, 0, 74, 0
1, 3358, Note_on_c, 0, 65, 0
1, 3361, Note_on_c, 0, 46, 0
1, 3361, Note_on_c, 0, 34, 0
1, 3460, Note_on_c, 0, 70, 63
1, 3460, Note_on_c, 0, 58, 53
1, 3460, Note_on_c, 0, 46, 48
1, 3568, Note_on_c, 0, 70, 0
1, 3568, Note_on_c, 0, 46, 0
1, 3568, Note_on_c, 0, 58, 0
1, 3677, Note_on_c, 0, 63, 70
1, 3677, Note_on_c, 0, 72, 70
1, 3677, Note_on_c, 0, 75, 79
1, 3680, Control_c, 0, 64, 127
1, 3680, Note_on_c, 0, 39, 61
1, 3680, Note_on_c, 0, 51, 61
1, 4095, Note_on_c, 0, 75, 0
1, 4095, Note_on_c, 0, 72, 0
1, 4095, Note_on_c, 0, 63, 0
1, 4098, Note_on_c, 0, 63, 67
1, 4098, Note_on_c, 0, 75, 74
1, 4098, Note_on_c, 0, 70, 67
1, 4101, Note_on_c, 0, 74, 74
1, 4101, Note_on_c, 0, 51, 0
1, 4101, Note_on_c, 0, 39, 0
1, 4104, Control_c, 0, 64, 0
1, 4104, Note_on_c, 0, 62, 62
1, 4104, Note_on_c, 0, 58, 56
1, 4107, Note_on_c, 0, 51, 56
1, 4139, Control_c, 0, 64, 127
1, 4501, Note_on_c, 0, 74, 0
1, 4501, Note_on_c, 0, 63, 0
1, 4501, Note_on_c, 0, 75, 0
1, 4504, Note_on_c, 0, 70, 0
1, 4504, Note_on_c, 0, 68, 67
1, 4504, Note_on_c, 0, 63, 67
1, 4507, Note_on_c, 0, 72, 67
1, 4507, Note_on_c, 0, 75, 74
1, 4507, Note_on_c, 0, 51, 0
1, 4510, Note_on_c, 0, 58, 0
1, 4510, Note_on_c, 0, 62, 0
1, 4510, Note_on_c, 0, 51, 61
1, 4513, Note_on_c, 0, 56, 55
1, 4513, Note_on_c, 0, 60, 61
1, 4519, Control_c, 0, 64, 0
1, 4566, Control_c, 0, 64, 127
1, 4845, Control_c, 0, 64, 0
1, 4857, Note_on_c, 0, 75, 0
1, 4857, Note_on_c, 0, 68, 0
1, 4857, Note_on_c, 0, 63, 0
1, 4860, Note_on_c, 0, 72, 0
1, 4860, Note_on_c, 0, 60, 0
1, 4860, Note_on_c, 0, 56, 0
1, 4863, Note_on_c, 0, 51, 0
1, 4908, Note_on_c, 0, 63, 67
1, 4908, Note_on_c, 0, 75, 74
1, 4908, Note_on_c, 0, 67, 67
1, 4911, Note_on_c, 0, 70, 67
1, 4911, Note_on_c, 0, 39, 53
1, 4911, Note_on_c, 0, 46, 53
1, 4914, Note_on_c, 0, 51, 60
1, 4961, Control_c, 0, 64, 127
1, 5249, Control_c, 0, 64, 0
1, 5309, Note_on_c, 0, 70, 0
1, 5309, Note_on_c, 0, 63, 0
1, 5309, Note_on_c, 0, 75, 0
1, 5312, Note_on_c, 0, 67, 0
1, 5312, Note_on_c, 0, 62, 62
1, 5312, Note_on_c, 0, 65, 62
1, 5315, Note_on_c, 0, 70, 62
1, 5315, Note_on_c, 0, 74, 70
1, 5315, Note_on_c, 0, 51, 0
1, 5318, Note_on_c, 0, 46, 0
1, 5318, Note_on_c, 0, 39, 0
1, 5318, Note_on_c, 0, 34, 49
1, 5321, Note_on_c, 0, 46, 56
1, 5415, Note_on_c, 0, 74, 0
1, 5415, Note_on_c, 0, 62, 0
1, 5415, Note_on_c, 0, 65, 0
1, 5418, Note_on_c, 0, 70, 0
1, 5418, Note_on_c, 0, 46, 0
1, 5418, Note_on_c, 0, 34, 0
1, 5521, Note_on_c, 0, 75, 70
1, 5521, Note_on_c, 0, 70, 62
1, 5521, Note_on_c, 0, 63, 62
1, 5524, Note_on_c, 0, 67, 62
1, 5524, Note_on_c, 0, 39, 49
1, 5524, Note_on_c, 0, 51, 56
1, 5627, Note_on_c, 0, 67, 0
1, 5627, Note_on_c, 0, 75, 0
1, 5627, Note_on_c, 0, 70, 0
1, 5630, Note_on_c, 0, 63, 0
1, 5630, Note_on_c, 0, 51, 0
1, 5630, Note_on_c, 0, 39, 0
1, 5733, Note_on_c, 0, 72, 72
1, 5733, Note_on_c, 0, 75, 72
1, 5733, Note_on_c, 0, 79, 81
1, 5736, Note_on_c, 0, 67, 72
1, 5736, Note_on_c, 0, 36, 59
1, 5736, Note_on_c, 0, 48, 67
1, 5746, Control_c, 0, 64, 127
1, 6091, Control_c, 0, 64, 0
1, 6130, Note_on_c, 0, 67, 0
1, 6130, Note_on_c, 0, 72, 0
1, 6130, Note_on_c, 0, 75, 0
1, 6133, Note_on_c, 0, 79, 0
1, 6133, Note_on_c, 0, 77, 69
1, 6133, Note_on_c, 0, 65, 61
1, 6136, Note_on_c, 0, 68, 61
1, 6136, Note_on_c, 0, 72, 61
1, 6136, Note_on_c, 0, 48, 0
1, 6139, Note_on_c, 0, 36, 0
1, 6139, Note_on_c, 0, 41, 48
1, 6139, Note_on_c, 0, 53, 53
1, 6234, Note_on_c, 0, 72, 0
1, 6234, Note_on_c, 0, 77, 0
1, 6234, Note_on_c, 0, 65, 0
1, 6237, Note_on_c, 0, 68, 0
1, 6237, Note_on_c, 0, 53, 0
1, 6237, Note_on_c, 0, 41, 0
1, 6337, Note_on_c, 0, 63, 61
1, 6337, Note_on_c, 0, 67, 61
1, 6337, Note_on_c, 0, 72, 61
1, 6340, Note_on_c, 0, 75, 69
1, 6340, Note_on_c, 0, 36, 48
1, 6340, Note_on_c, 0, 48, 53
1, 6443, Note_on_c, 0, 75, 0
1, 6443, Note_on_c, 0, 63, 0
1, 6443, Note_on_c, 0, 67, 0
1, 6446, Note_on_c, 0, 72, 0
1, 6446, Note_on_c, 0, 48, 0
1, 6446, Note_on_c, 0, 36, 0
1, 6549, Note_on_c, 0, 70, 69
1, 6549, Note_on_c, 0, 74, 78
1, 6549, Note_on_c, 0, 62, 69
1, 6552, Note_on_c, 0, 67, 69
1, 6552, Note_on_c, 0, 43, 52
1, 6552, Note_on_c, 0, 46, 52
1, 6555, Note_on_c, 0, 50, 52
1, 6555, Note_on_c, 0, 55, 59
1, 6586, Control_c, 0, 64, 127
1, 6907, Control_c, 0, 64, 0
1, 6947, Note_on_c, 0, 67, 0
1, 6947, Note_on_c, 0, 70, 0
1, 6947, Note_on_c, 0, 74, 0
1, 6950, Note_on_c, 0, 62, 0
1, 6950, Note_on_c, 0, 60, 64
1, 6950, Note_on_c, 0, 63, 64
1, 6953, Note_on_c, 0, 67, 64
1, 6953, Note_on_c, 0, 72, 72
1, 6953, Note_on_c, 0, 55, 0
1, 6956, Note_on_c, 0, 43, 0
1, 6956, Note_on_c, 0, 46, 0
1, 6956, Note_on_c, 0, 50, 0
1, 6959, Note_on_c, 0, 36, 50
1, 6959, Note_on_c, 0, 48, 57
1, 7048, Note_on_c, 0, 72, 0
1, 7048, Note_on_c, 0, 60, 0
1, 7048, Note_on_c, 0, 63, 0
1, 7051, Note_on_c, 0, 67, 0
1, 7051, Note_on_c, 0, 48, 0
1, 7051, Note_on_c, 0, 36, 0
1, 7148, Note_on_c, 0, 70, 70
1, 7148, Note_on_c, 0, 58, 62
1, 7148, Note_on_c, 0, 62, 62
1, 7151, Note_on_c, 0, 67, 62
1, 7151, Note_on_c, 0, 31, 49
1, 7151, Note_on_c, 0, 43, 56
1, 7249, Note_on_c, 0, 67, 0
1, 7249, Note_on_c, 0, 70, 0
1, 7249, Note_on_c, 0, 58, 0
1, 7252, Note_on_c, 0, 62, 0
1, 7252, Note_on_c, 0, 43, 0
1, 7252, Note_on_c, 0, 31, 0
1, 7350, Note_on_c, 0, 57, 61
1, 7350, Note_on_c, 0, 66, 61
1, 7350, Note_on_c, 0, 69, 69
1, 7353, Note_on_c, 0, 26, 49
1, 7353, Note_on_c, 0, 38, 55
1, 7451, Note_on_c, 0, 69, 0
1, 7451, Note_on_c, 0, 66, 0
1, 7451, Note_on_c, 0, 57, 0
1, 7454, Note_on_c, 0, 38, 0
1, 7454, Note_on_c, 0, 26, 0
1, 7551, Note_on_c, 0, 62, 66
1, 7551, Note_on_c, 0, 50, 52
1, 7551, Note_on_c, 0, 38, 47
1, 7658, Note_on_c, 0, 62, 0
1, 7658, Note_on_c, 0, 38, 0
1, 7658, Note_on_c, 0, 50, 0
1, 7764, Note_on_c, 0, 55, 68
1, 7764, Note_on_c, 0, 67, 75
1, 7764, Control_c, 0, 64, 127
1, 7767, Note_on_c, 0, 31, 55
1, 7767, Note_on_c, 0, 43, 61
1, 8180, Note_on_c, 0, 67, 0
1, 8180, Note_on_c, 0, 55, 0
1, 8180, Note_on_c, 0, 55, 68
1, 8183, Note_on_c, 0, 66, 68
1, 8183, Note_on_c, 0, 67, 75
1, 8183, Note_on_c, 0, 43, 0
1, 8186, Note_on_c, 0, 31, 0
1, 8186, Control_c, 0, 64, 0
1, 8186, Note_on_c, 0, 54, 61
1, 8189, Note_on_c, 0, 43, 55
1, 8226, Control_c, 0, 64, 127
1, 8606, Note_on_c, 0, 67, 0
1, 8606, Note_on_c, 0, 66, 0
1, 8606, Note_on_c, 0, 55, 0
1, 8609, Note_on_c, 0, 55, 67
1, 8609, Note_on_c, 0, 65, 67
1, 8609, Note_on_c, 0, 67, 74
1, 8612, Note_on_c, 0, 43, 0
1, 8612, Note_on_c, 0, 54, 0
1, 8612, Note_on_c, 0, 43, 52
1, 8615, Note_on_c, 0, 53, 59
1, 8629, Control_c, 0, 64, 0
1, 8720, Control_c, 0, 64, 127
1, 8882, Control_c, 0, 64, 0
1, 8979, Note_on_c, 0, 67, 0
1, 8979, Note_on_c, 0, 65, 0
1, 8979, Note_on_c, 0, 55, 0
1, 8982, Note_on_c, 0, 53, 0
1, 8982, Note_on_c, 0, 43, 0
1, 9032, Note_on_c, 0, 67, 79
1, 9032, Note_on_c, 0, 79, 88
1, 9032, Note_on_c, 0, 70, 79
1, 9035, Note_on_c, 0, 75, 79
1, 9035, Control_c, 0, 91, 127
1, 9035, Note_on_c, 0, 39, 70
1, 9038, Note_on_c, 0, 46, 70
1, 9038, Note_on_c, 0, 51, 70
1, 9038, Control_c, 0, 91, 127
1, 9068, Control_c, 0, 64, 127
1, 9369, Control_c, 0, 64, 0
1, 9421, Note_on_c, 0, 75, 0
1, 9421, Note_on_c, 0, 67, 0
1, 9421, Note_on_c, 0, 79, 0
1, 9424, Note_on_c, 0, 70, 0
1, 9424, Note_on_c, 0, 77, 72
1, 9424, Note_on_c, 0, 74, 64
1, 9427, Note_on_c, 0, 65, 64
1, 9427, Note_on_c, 0, 70, 64
1, 9427, Note_on_c, 0, 51, 0
1, 9430, Note_on_c, 0, 46, 0
1, 9430, Note_on_c, 0, 39, 0
1, 9430, Note_on_c, 0, 34, 49
1, 9433, Note_on_c, 0, 46, 56
1, 9529, Note_on_c, 0, 70, 0
1, 9529, Note_on_c, 0, 77, 0
1, 9529, Note_on_c, 0, 74, 0
1, 9532, Note_on_c, 0, 65, 0
1, 9532, Note_on_c, 0, 46, 0
1, 9532, Note_on_c, 0, 34, 0
1, 9637, Note_on_c, 0, 67, 64
1, 9637, Note_on_c, 0, 70, 64
1, 9637, Note_on_c, 0, 75, 64
1, 9640, Note_on_c, 0, 79, 72
1, 9640, Note_on_c, 0, 39, 49
1, 9640, Note_on_c, 0, 51, 56
1, 9745, Note_on_c, 0, 79, 0
1, 9745, Note_on_c, 0, 67, 0
1, 9745, Note_on_c, 0, 70, 0
1, 9748, Note_on_c, 0, 75, 0
1, 9748, Note_on_c, 0, 51, 0
1, 9748, Note_on_c, 0, 39, 0
1, 9853, Note_on_c, 0, 80, 88
1, 9853, Note_on_c, 0, 68, 79
1, 9853, Note_on_c, 0, 72, 79
1, 9856, Note_on_c, 0, 75, 79
1, 9856, Note_on_c, 0, 32, 62
1, 9856, Note_on_c, 0, 44, 70
1, 9879, Control_c, 0, 64, 127
1, 10187, Control_c, 0, 64, 0
1, 10242, Note_on_c, 0, 75, 0
1, 10242, Note_on_c, 0, 80, 0
1, 10242, Note_on_c, 0, 68, 0
1, 10245, Note_on_c, 0, 72, 0
1, 10245, Note_on_c, 0, 67, 62
1, 10245, Note_on_c, 0, 70, 62
1, 10248, Note_on_c, 0, 75, 70
1, 10248, Note_on_c, 0, 79, 70
1, 10248, Note_on_c, 0, 44, 0
1, 10251, Note_on_c, 0, 32, 0
1, 10251, Note_on_c, 0, 39, 49
1, 10251, Note_on_c, 0, 51, 56
1, 10350, Note_on_c, 0, 79, 0
1, 10350, Note_on_c, 0, 67, 0
1, 10350, Note_on_c, 0, 70, 0
1, 10353, Note_on_c, 0, 75, 0
1, 10353, Note_on_c, 0, 51, 0
1, 10353, Note_on_c, 0, 39, 0
1, 10458, Note_on_c, 0, 75, 70
1, 10458, Note_on_c, 0, 72, 62
1, 10458, Note_on_c, 0, 77, 70
1, 10461, Note_on_c, 0, 65, 62
1, 10461, Note_on_c, 0, 32, 49
1, 10461, Note_on_c, 0, 44, 56
1, 10566, Note_on_c, 0, 65, 0
1, 10566, Note_on_c, 0, 75, 0
1, 10566, Note_on_c, 0, 72, 0
1, 10569, Note_on_c, 0, 77, 0
1, 10569, Note_on_c, 0, 44, 0
1, 10569, Note_on_c, 0, 32, 0
1, 10674, Note_on_c, 0, 67, 77
1, 10674, Note_on_c, 0, 70, 77
1, 10674, Note_on_c, 0, 75, 77
1, 10677, Note_on_c, 0, 79, 85
1, 10677, Note_on_c, 0, 39, 62
1, 10677, Note_on_c, 0, 46, 62
1, 10680, Note_on_c, 0, 51, 70
1, 10713, Control_c, 0, 64, 127
1, 11028, Control_c, 0, 64, 0
1, 11063, Note_on_c, 0, 79, 0
1, 11063, Note_on_c, 0, 67, 0
1, 11063, Note_on_c, 0, 70, 0
1, 11066, Note_on_c, 0, 75, 0
1, 11066, Note_on_c, 0, 77, 72
1, 11066, Note_on_c, 0, 65, 64
1, 11069, Note_on_c, 0, 68, 64
1, 11069, Note_on_c, 0, 74, 64
1, 11069, Note_on_c, 0, 51, 0
1, 11072, Note_on_c, 0, 46, 0
1, 11072, Note_on_c, 0, 39, 0
1, 11072, Note_on_c, 0, 34, 49
1, 11075, Note_on_c, 0, 46, 56
1, 11168, Note_on_c, 0, 74, 0
1, 11168, Note_on_c, 0, 77, 0
1, 11168, Note_on_c, 0, 65, 0
1, 11171, Note_on_c, 0, 68, 0
1, 11171, Note_on_c, 0, 46, 0
1, 11171, Note_on_c, 0, 34, 0
1, 11273, Note_on_c, 0, 63, 62
1, 11273, Note_on_c, 0, 67, 62
1, 11273, Note_on_c, 0, 70, 62
1, 11276, Note_on_c, 0, 75, 70
1, 11276, Note_on_c, 0, 27, 48
1, 11276, Note_on_c, 0, 39, 53
1, 11378, Note_on_c, 0, 75, 0
1, 11378, Note_on_c, 0, 63, 0
1, 11378, Note_on_c, 0, 67, 0
1, 11381, Note_on_c, 0, 70, 0
1, 11381, Note_on_c, 0, 39, 0
1, 11381, Note_on_c, 0, 27, 0
1, 11483, Note_on_c, 0, 77, 68
1, 11483, Note_on_c, 0, 74, 60
1, 11483, Note_on_c, 0, 65, 60
1, 11486, Note_on_c, 0, 34, 47
1, 11486, Note_on_c, 0, 46, 52
1, 11586, Note_on_c, 0, 65, 0
1, 11586, Note_on_c, 0, 74, 0
1, 11586, Note_on_c, 0, 77, 0
1, 11589, Note_on_c, 0, 46, 0
1, 11589, Note_on_c, 0, 34, 0
1, 11689, Note_on_c, 0, 70, 66
1, 11689, Note_on_c, 0, 58, 52
1, 11689, Note_on_c, 0, 46, 47
1, 11798, Note_on_c, 0, 70, 0
1, 11798, Note_on_c, 0, 46, 0
1, 11798, Note_on_c, 0, 58, 0
1, 11906, Note_on_c, 0, 63, 74
1, 11906, Note_on_c, 0, 75, 83
1, 11906, Control_c, 0, 64, 127
1, 11909, Note_on_c, 0, 39, 59
1, 11909, Note_on_c, 0, 51, 66
1, 12305, Note_on_c, 0, 75, 0
1, 12305, Note_on_c, 0, 63, 0
1, 12305, Note_on_c, 0, 73, 78
1, 12308, Note_on_c, 0, 63, 78
1, 12308, Note_on_c, 0, 75, 86
1, 12308, Note_on_c, 0, 51, 0
1, 12311, Note_on_c, 0, 39, 0
1, 12311, Control_c, 0, 64, 0
1, 12311, Note_on_c, 0, 39, 66
1, 12314, Note_on_c, 0, 37, 66
1, 12314, Note_on_c, 0, 49, 73
1, 12403, Control_c, 0, 64, 127
1, 12710, Note_on_c, 0, 75, 0
1, 12710, Note_on_c, 0, 63, 0
1, 12710, Note_on_c, 0, 73, 0
1, 12713, Note_on_c, 0, 71, 83
1, 12713, Note_on_c, 0, 63, 83
1, 12713, Note_on_c, 0, 75, 93
1, 12716, Note_on_c, 0, 49, 0
1, 12716, Note_on_c, 0, 37, 0
1, 12716, Note_on_c, 0, 39, 0
1, 12719, Note_on_c, 0, 35, 68
1, 12719, Note_on_c, 0, 39, 68
1, 12719, Note_on_c, 0, 47, 75
1, 12719, Control_c, 0, 64, 0
1, 12821, Control_c, 0, 64, 127
1, 13010, Control_c, 0, 64, 0
1, 13096, Note_on_c, 0, 75, 0
1, 13096, Note_on_c, 0, 63, 0
1, 13096, Note_on_c, 0, 71, 0
1, 13099, Note_on_c, 0, 47, 0
1, 13099, Note_on_c, 0, 39, 0
1, 13099, Note_on_c, 0, 35, 0
1, 13122, Note_on_c, 0, 87, 101
1, 13122, Note_on_c, 0, 82, 90
1, 13122, Note_on_c, 0, 75, 90
1, 13125, Note_on_c, 0, 78, 90
1, 13125, Note_on_c, 0, 34, 72
1, 13125, Note_on_c, 0, 39, 72
1, 13128, Note_on_c, 0, 42, 72
1, 13128, Note_on_c, 0, 46, 81
1, 13219, Control_c, 0, 64, 127
1, 13512, Control_c, 0, 64, 0
1, 13522, Note_on_c, 0, 78, 0
1, 13522, Note_on_c, 0, 87, 0
1, 13522, Note_on_c, 0, 82, 0
1, 13525, Note_on_c, 0, 75, 0
1, 13525, Note_on_c, 0, 78, 83
1, 13525, Note_on_c, 0, 82, 83
1, 13528, Note_on_c, 0, 86, 93
1, 13528, Note_on_c, 0, 74, 83
1, 13528, Note_on_c, 0, 46, 0
1, 13531, Note_on_c, 0, 34, 0
1, 13531, Note_on_c, 0, 39, 0
1, 13531, Note_on_c, 0, 42, 0
1, 13534, Note_on_c, 0, 42, 67
1, 13534, Note_on_c, 0, 54, 74
1, 13587, Control_c, 0, 64, 127
1, 13690, Control_c, 0, 64, 0
1, 13718, Note_on_c, 0, 74, 0
1, 13718, Note_on_c, 0, 78, 0
1, 13718, Note_on_c, 0, 82, 0
1, 13721, Note_on_c, 0, 86, 0
1, 13721, Note_on_c, 0, 87, 90
1, 13721, Note_on_c, 0, 82, 80
1, 13724, Note_on_c, 0, 78, 80
1, 13724, Note_on_c, 0, 75, 80
1, 13724, Note_on_c, 0, 54, 0
1, 13727, Note_on_c, 0, 42, 0
1, 13727, Note_on_c, 0, 39, 64
1, 13727, Note_on_c, 0, 51, 72
1, 13799, Control_c, 0, 64, 127
1, 13933, Note_on_c, 0, 75, 0
1, 13933, Note_on_c, 0, 87, 0
1, 13933, Note_on_c, 0, 82, 0
1, 13936, Note_on_c, 0, 78, 0
1, 13936, Note_on_c, 0, 78, 85
1, 13936, Note_on_c, 0, 83, 95
1, 13939, Note_on_c, 0, 75, 85
1, 13939, Note_on_c, 0, 71, 85
1, 13939, Note_on_c, 0, 51, 0
1, 13942, Note_on_c, 0, 39, 0
1, 13942, Control_c, 0, 64, 0
1, 13942, Note_on_c, 0, 47, 69
1, 13945, Note_on_c, 0, 51, 69
1, 13945, Note_on_c, 0, 54, 69
1, 13945, Note_on_c, 0, 59, 77
1, 14009, Control_c, 0, 64, 127
1, 14323, Control_c, 0, 64, 0
1, 14332, Note_on_c, 0, 71, 0
1, 14332, Note_on_c, 0, 78, 0
1, 14332, Note_on_c, 0, 83, 0
1, 14335, Note_on_c, 0, 75, 0
1, 14335, Note_on_c, 0, 82, 86
1, 14335, Note_on_c, 0, 70, 78
1, 14338, Note_on_c, 0, 78, 78
1, 14338, Note_on_c, 0, 75, 78
1, 14338, Note_on_c, 0, 59, 0
1, 14341, Note_on_c, 0, 47, 0
1, 14341, Note_on_c, 0, 51, 0
1, 14341, Note_on_c, 0, 54, 0
1, 14344, Note_on_c, 0, 39, 62
1, 14344, Note_on_c, 0, 51, 70
1, 14391, Control_c, 0, 64, 127
1, 14536, Note_on_c, 0, 75, 0
1, 14536, Note_on_c, 0, 82, 0
1, 14536, Note_on_c, 0, 70, 0
1, 14539, Note_on_c, 0, 78, 0
1, 14539, Note_on_c, 0, 78, 77
1, 14539, Note_on_c, 0, 83, 85
1, 14542, Note_on_c, 0, 75, 77
1, 14542, Note_on_c, 0, 71, 77
1, 14542, Note_on_c, 0, 51, 0
1, 14545, Note_on_c, 0, 39, 0
1, 14545, Note_on_c, 0, 35, 62
1, 14545, Note_on_c, 0, 47, 70
1, 14565, Control_c, 0, 64, 0
1, 14633, Control_c, 0, 64, 127
1, 14740, Note_on_c, 0, 71, 0
1, 14740, Note_on_c, 0, 78, 0
1, 14740, Note_on_c, 0, 83, 0
1, 14743, Note_on_c, 0, 75, 0
1, 14743, Note_on_c, 0, 80, 92
1, 14743, Note_on_c, 0, 68, 82
1, 14746, Note_on_c, 0, 75, 82
1, 14746, Note_on_c, 0, 71, 82
1, 14746, Note_on_c, 0, 47, 0
1, 14749, Note_on_c, 0, 35, 0
1, 14749, Control_c, 0, 64, 0
1, 14749, Note_on_c, 0, 56, 73
1, 14752, Note_on_c, 0, 51, 66
1, 14752, Note_on_c, 0, 47, 66
1, 14752, Note_on_c, 0, 44, 66
1, 14798, Control_c, 0, 64, 127
1, 15128, Control_c, 0, 64, 0
1, 15148, Note_on_c, 0, 71, 0
1, 15148, Note_on_c, 0, 80, 0
1, 15148, Note_on_c, 0, 68, 0
1, 15151, Note_on_c, 0, 75, 0
1, 15151, Note_on_c, 0, 79, 83
1, 15151, Note_on_c, 0, 75, 74
1, 15154, Note_on_c, 0, 71, 74
1, 15154, Note_on_c, 0, 67, 74
1, 15154, Note_on_c, 0, 44, 0
1, 15157, Note_on_c, 0, 56, 0
1, 15157, Note_on_c, 0, 51, 0
1, 15157, Note_on_c, 0, 47, 0
1, 15160, Note_on_c, 0, 35, 59
1, 15160, Note_on_c, 0, 47, 66
1, 15210, Control_c, 0, 64, 127
1, 15342, Control_c, 0, 64, 0
1, 15363, Note_on_c, 0, 67, 0
1, 15363, Note_on_c, 0, 79, 0
1, 15363, Note_on_c, 0, 75, 0
1, 15366, Note_on_c, 0, 71, 0
1, 15366, Note_on_c, 0, 68, 74
1, 15366, Note_on_c, 0, 71, 74
1, 15369, Note_on_c, 0, 80, 83
1, 15369, Note_on_c, 0, 75, 74
1, 15369, Note_on_c, 0, 47, 0
1, 15372, Note_on_c, 0, 35, 0
1, 15372, Note_on_c, 0, 32, 59
1, 15372, Note_on_c, 0, 44, 66
1, 15443, Control_c, 0, 64, 127
1, 15604, Note_on_c, 0, 75, 0
1, 15604, Note_on_c, 0, 68, 0
1, 15604, Note_on_c, 0, 71, 0
1, 15607, Note_on_c, 0, 80, 0
1, 15607, Note_on_c, 0, 66, 79
1, 15607, Note_on_c, 0, 69, 79
1, 15610, Note_on_c, 0, 72, 79
1, 15610, Note_on_c, 0, 78, 88
1, 15610, Note_on_c, 0, 44, 0
1, 15613, Note_on_c, 0, 32, 0
1, 15613, Control_c, 0, 64, 0
1, 15613, Note_on_c, 0, 39, 62
1, 15616, Note_on_c, 0, 45, 62
1, 15616, Note_on_c, 0, 48, 62
1, 15616, Note_on_c, 0, 51, 70
1, 15688, Control_c, 0, 64, 127
1, 15921, Control_c, 0, 64, 0
1, 16073, Control_c, 0, 64, 127
1, 16085, Note_on_c, 0, 78, 0
1, 16085, Note_on_c, 0, 66, 0
1, 16085, Note_on_c, 0, 69, 0
1, 16088, Note_on_c, 0, 72, 0
1, 16088, Note_on_c, 0, 77, 73
1, 16088, Note_on_c, 0, 51, 0
1, 16091, Note_on_c, 0, 39, 0
1, 16091, Note_on_c, 0, 45, 0
1, 16091, Note_on_c, 0, 48, 0
1, 16094, Note_on_c, 0, 22, 49
1, 16094, Note_on_c, 0, 34, 56
1, 16181, Note_on_c, 0, 77, 0
1, 16181, Note_on_c, 0, 74, 61
1, 16277, Note_on_c, 0, 74, 0
1, 16277, Note_on_c, 0, 70, 63
1, 16373, Note_on_c, 0, 70, 0
1, 16373, Note_on_c, 0, 69, 60
1, 16469, Note_on_c, 0, 69, 0
1, 16469, Note_on_c, 0, 74, 71
1, 16469, Note_on_c, 0, 34, 0
1, 16472, Note_on_c, 0, 22, 0
1, 16472, Note_on_c, 0, 22, 49
1, 16472, Note_on_c, 0, 34, 56
1, 16565, Note_on_c, 0, 74, 0
1, 16565, Note_on_c, 0, 70, 61
1, 16661, Note_on_c, 0, 70, 0
1, 16661, Note_on_c, 0, 65, 63
1, 16757, Note_on_c, 0, 65, 0
1, 16757, Note_on_c, 0, 64, 61
1, 16853, Note_on_c, 0, 64, 0
1, 16853, Note_on_c, 0, 70, 70
1, 16853, Note_on_c, 0, 34, 0
1, 16856, Note_on_c, 0, 22, 0
1, 16856, Note_on_c, 0, 22, 51
1, 16856, Note_on_c, 0, 34, 51
1, 16949, Note_on_c, 0, 70, 0
1, 16949, Note_on_c, 0, 65, 61
1, 17045, Note_on_c, 0, 65, 0
1, 17045, Note_on_c, 0, 62, 63
1, 17141, Note_on_c, 0, 62, 0
1, 17141, Note_on_c, 0, 60, 61
1, 17237, Note_on_c, 0, 60, 0
1, 17237, Note_on_c, 0, 34, 0
1, 17237, Note_on_c, 0, 22, 0
1, 17240, Control_c, 0, 64, 0
1, 17240, Note_on_c, 0, 46, 59
1, 17240, Note_on_c, 0, 58, 66
1, 17405, Control_c, 0, 64, 127
1, 17625, Note_on_c, 0, 58, 0
1, 17625, Note_on_c, 0, 46, 0
1, 17625, Note_on_c, 0, 45, 42
1, 17628, Note_on_c, 0, 46, 42
1, 17628, Note_on_c, 0, 58, 48
1, 17647, Control_c, 0, 64, 0
1, 17724, Control_c, 0, 64, 127
1, 18034, Note_on_c, 0, 58, 0
1, 18034, Note_on_c, 0, 46, 0
1, 18034, Note_on_c, 0, 45, 0
1, 18037, Control_c, 0, 64, 0
1, 18037, Note_on_c, 0, 43, 42
1, 18037, Note_on_c, 0, 46, 42
1, 18040, Note_on_c, 0, 58, 48
1, 18068, Control_c, 0, 64, 127
1, 18444, Note_on_c, 0, 58, 0
1, 18444, Note_on_c, 0, 46, 0
1, 18444, Note_on_c, 0, 43, 0
1, 18447, Control_c, 0, 64, 0
1, 18447, Note_on_c, 0, 41, 42
1, 18447, Note_on_c, 0, 46, 42
1, 18450, Note_on_c, 0, 57, 48
1, 18450, Note_on_c, 0, 58, 48
1, 18533, Control_c, 0, 64, 127
1, 18775, Control_c, 0, 64, 0
1, 18854, Note_on_c, 0, 58, 0
1, 18854, Note_on_c, 0, 41, 0
1, 18854, Note_on_c, 0, 46, 0
1, 18857, Note_on_c, 0, 57, 0
1, 18857, Note_on_c, 0, 39, 46
1, 18857, Note_on_c, 0, 46, 46
1, 18860, Note_on_c, 0, 55, 51
1, 18860, Note_on_c, 0, 58, 51
1, 18875, Control_c, 0, 64, 127
1, 19261, Control_c, 0, 64, 0
1, 19283, Note_on_c, 0, 58, 0
1, 19283, Note_on_c, 0, 39, 0
1, 19283, Note_on_c, 0, 46, 0
1, 19286, Note_on_c, 0, 55, 0
1, 19286, Note_on_c, 0, 36, 40
1, 19286, Note_on_c, 0, 46, 40
1, 19289, Note_on_c, 0, 51, 40
1, 19289, Note_on_c, 0, 57, 46
1, 19289, Note_on_c, 0, 60, 46
1, 19406, Control_c, 0, 64, 127
1, 19752, Note_on_c, 0, 60, 0
1, 19752, Note_on_c, 0, 51, 0
1, 19752, Note_on_c, 0, 36, 0
1, 19755, Note_on_c, 0, 46, 0
1, 19755, Note_on_c, 0, 57, 0
1, 19755, Note_on_c, 0, 34, 40
1, 19758, Note_on_c, 0, 46, 46
1, 19758, Note_on_c, 0, 53, 46
1, 19758, Note_on_c, 0, 58, 46
1, 19761, Note_on_c, 0, 62, 46
1, 19766, Control_c, 0, 64, 0
1, 19831, Control_c, 0, 64, 127
1, 20064, Control_c, 0, 64, 0
1, 20141, Note_on_c, 0, 89, 64
1, 20141, Control_c, 0, 64, 127
1, 20141, Note_on_c, 0, 22, 39
1, 20144, Note_on_c, 0, 34, 44
1, 20237, Note_on_c, 0, 89, 0
1, 20237, Note_on_c, 0, 86, 59
1, 20333, Note_on_c, 0, 86, 0
1, 20333, Note_on_c, 0, 82, 61
1, 20429, Note_on_c, 0, 82, 0
1, 20429, Note_on_c, 0, 81, 60
1, 20525, Note_on_c, 0, 81, 0
1, 20525, Note_on_c, 0, 86, 64
1, 20525, Note_on_c, 0, 34, 0
1, 20528, Note_on_c, 0, 22, 0
1, 20528, Note_on_c, 0, 34, 44
1, 20528, Note_on_c, 0, 22, 39
1, 20621, Note_on_c, 0, 86, 0
1, 20621, Note_on_c, 0, 82, 58
1, 20717, Note_on_c, 0, 82, 0
1, 20717, Note_on_c, 0, 77, 58
1, 20813, Note_on_c, 0, 77, 0
1, 20813, Note_on_c, 0, 76, 58
1, 20909, Note_on_c, 0, 76, 0
1, 20909, Note_on_c, 0, 82, 60
1, 20909, Note_on_c, 0, 22, 0
1, 20912, Note_on_c, 0, 34, 0
1, 20912, Note_on_c, 0, 22, 39
1, 20912, Note_on_c, 0, 34, 44
1, 21005, Note_on_c, 0, 82, 0
1, 21005, Note_on_c, 0, 77, 56
1, 21101, Note_on_c, 0, 77, 0
1, 21101, Note_on_c, 0, 74, 56
1, 21194, Control_c, 0, 64, 0
1, 21197, Note_on_c, 0, 74, 0
1, 21197, Note_on_c, 0, 72, 56
1, 21293, Note_on_c, 0, 72, 0
1, 21293, Note_on_c, 0, 70, 66
1, 21293, Note_on_c, 0, 34, 0
1, 21296, Note_on_c, 0, 62, 0
1, 21296, Note_on_c, 0, 46, 0
1, 21296, Note_on_c, 0, 53, 0
1, 21299, Note_on_c, 0, 34, 0
1, 21299, Note_on_c, 0, 22, 0
1, 21299, Note_on_c, 0, 58, 0
1, 21302, Note_on_c, 0, 58, 51
1, 21446, Control_c, 0, 64, 127
1, 21682, Note_on_c, 0, 70, 0
1, 21682, Note_on_c, 0, 70, 68
1, 21682, Note_on_c, 0, 67, 60
1, 21685, Note_on_c, 0, 58, 0
1, 21685, Note_on_c, 0, 55, 47
1, 21685, Note_on_c, 0, 58, 52
1, 22078, Note_on_c, 0, 67, 0
1, 22078, Note_on_c, 0, 70, 0
1, 22078, Note_on_c, 0, 63, 63
1, 22081, Note_on_c, 0, 67, 71
1, 22081, Note_on_c, 0, 70, 71
1, 22081, Note_on_c, 0, 58, 0
1, 22084, Note_on_c, 0, 55, 0
1, 22084, Control_c, 0, 64, 0
1, 22084, Note_on_c, 0, 51, 49
1, 22087, Note_on_c, 0, 55, 56
1, 22146, Control_c, 0, 64, 127
1, 22483, Note_on_c, 0, 70, 0
1, 22483, Note_on_c, 0, 67, 0
1, 22483, Note_on_c, 0, 63, 0
1, 22486, Note_on_c, 0, 72, 74
1, 22486, Note_on_c, 0, 60, 67
1, 22486, Note_on_c, 0, 63, 67
1, 22489, Note_on_c, 0, 67, 74
1, 22489, Note_on_c, 0, 55, 0
1, 22489, Note_on_c, 0, 51, 0
1, 22492, Note_on_c, 0, 48, 52
1, 22492, Note_on_c, 0, 51, 52
1, 22492, Note_on_c, 0, 55, 59
1, 22550, Control_c, 0, 64, 0
1, 22617, Control_c, 0, 64, 127
1, 22887, Note_on_c, 0, 67, 0
1, 22887, Note_on_c, 0, 72, 0
1, 22887, Note_on_c, 0, 60, 0
1, 22890, Note_on_c, 0, 63, 0
1, 22890, Note_on_c, 0, 60, 68
1, 22890, Note_on_c, 0, 63, 68
1, 22893, Note_on_c, 0, 68, 75
1, 22893, Note_on_c, 0, 72, 75
1, 22893, Note_on_c, 0, 55, 0
1, 22896, Note_on_c, 0, 51, 0
1, 22896, Note_on_c, 0, 48, 0
1, 22896, Control_c, 0, 64, 0
1, 22899, Note_on_c, 0, 44, 52
1, 22899, Note_on_c, 0, 48, 52
1, 22899, Note_on_c, 0, 51, 59
1, 22902, Note_on_c, 0, 56, 59
1, 22954, Control_c, 0, 64, 127
1, 23291, Note_on_c, 0, 72, 0
1, 23291, Note_on_c, 0, 60, 0
1, 23291, Note_on_c, 0, 63, 0
1, 23294, Note_on_c, 0, 68, 0
1, 23294, Note_on_c, 0, 72, 72
1, 23294, Note_on_c, 0, 77, 81
1, 23297, Note_on_c, 0, 65, 72
1, 23297, Note_on_c, 0, 68, 72
1, 23297, Note_on_c, 0, 56, 0
1, 23300, Note_on_c, 0, 44, 0
1, 23300, Note_on_c, 0, 48, 0
1, 23300, Note_on_c, 0, 51, 0
1, 23303, Note_on_c, 0, 41, 57
1, 23303, Note_on_c, 0, 44, 57
1, 23303, Note_on_c, 0, 48, 57
1, 23306, Note_on_c, 0, 53, 63
1, 23343, Control_c, 0, 64, 0
1, 23474, Control_c, 0, 64, 127
1, 23761, Note_on_c, 0, 68, 0
1, 23761, Note_on_c, 0, 72, 0
1, 23761, Note_on_c, 0, 77, 0
1, 23764, Note_on_c, 0, 65, 0
1, 23764, Note_on_c, 0, 62, 79
1, 23764, Note_on_c, 0, 67, 79
1, 23767, Note_on_c, 0, 71, 88
1, 23767, Note_on_c, 0, 74, 88
1, 23767, Note_on_c, 0, 53, 0
1, 23770, Note_on_c, 0, 41, 0
1, 23770, Note_on_c, 0, 44, 0
1, 23770, Note_on_c, 0, 48, 0
1, 23773, Control_c, 0, 64, 0
1, 23773, Note_on_c, 0, 43, 62
1, 23773, Note_on_c, 0, 47, 62
1, 23776, Note_on_c, 0, 50, 62
1, 23776, Note_on_c, 0, 55, 70
1, 23868, Control_c, 0, 64, 127
1, 24150, Note_on_c, 0, 86, 57
1, 24150, Note_on_c, 0, 31, 43
1, 24246, Note_on_c, 0, 86, 0
1, 24246, Note_on_c, 0, 83, 53
1, 24343, Note_on_c, 0, 83, 0
1, 24343, Note_on_c, 0, 79, 54
1, 24439, Note_on_c, 0, 79, 0
1, 24439, Note_on_c, 0, 78, 54
1, 24535, Note_on_c, 0, 78, 0
1, 24535, Note_on_c, 0, 83, 57
1, 24535, Note_on_c, 0, 31, 0
1, 24538, Note_on_c, 0, 31, 43
1, 24632, Note_on_c, 0, 83, 0
1, 24632, Note_on_c, 0, 79, 54
1, 24728, Note_on_c, 0, 79, 0
1, 24728, Note_on_c, 0, 74, 54
1, 24825, Note_on_c, 0, 74, 0
1, 24825, Note_on_c, 0, 73, 54
1, 24921, Note_on_c, 0, 73, 0
1, 24921, Note_on_c, 0, 79, 57
1, 24921, Note_on_c, 0, 31, 0
1, 24924, Note_on_c, 0, 31, 43
1, 25017, Note_on_c, 0, 79, 0
1, 25017, Note_on_c, 0, 74, 54
1, 25114, Note_on_c, 0, 74, 0
1, 25114, Note_on_c, 0, 71, 55
1, 25210, Note_on_c, 0, 71, 0
1, 25210, Note_on_c, 0, 69, 54
1, 25283, Control_c, 0, 64, 0
1, 25307, Note_on_c, 0, 69, 0
1, 25307, Note_on_c, 0, 74, 0
1, 25307, Note_on_c, 0, 62, 0
1, 25310, Note_on_c, 0, 67, 0
1, 25310, Note_on_c, 0, 71, 0
1, 25310, Note_on_c, 0, 67, 64
1, 25313, Note_on_c, 0, 31, 0
1, 25313, Note_on_c, 0, 50, 0
1, 25313, Note_on_c, 0, 43, 0
1, 25316, Note_on_c, 0, 47, 0
1, 25316, Note_on_c, 0, 55, 0
1, 25316, Note_on_c, 0, 55, 51
1, 25537, Control_c, 0, 64, 127
1, 25708, Note_on_c, 0, 67, 0
1, 25708, Note_on_c, 0, 65, 58
1, 25708, Note_on_c, 0, 67, 64
1, 25711, Note_on_c, 0, 55, 0
1, 25711, Control_c, 0, 64, 0
1, 25711, Note_on_c, 0, 53, 51
1, 25714, Note_on_c, 0, 55, 51
1, 25835, Control_c, 0, 64, 127
1, 26054, Control_c, 0, 64, 0
1, 26109, Note_on_c, 0, 67, 0
1, 26109, Note_on_c, 0, 65, 0
1, 26109, Note_on_c, 0, 63, 60
1, 26112, Note_on_c, 0, 67, 68
1, 26112, Note_on_c, 0, 55, 0
1, 26112, Note_on_c, 0, 53, 0
1, 26115, Note_on_c, 0, 51, 47
1, 26115, Note_on_c, 0, 55, 52
1, 26172, Control_c, 0, 64, 127
1, 26510, Note_on_c, 0, 67, 0
1, 26510, Note_on_c, 0, 63, 0
1, 26510, Note_on_c, 0, 65, 62
1, 26513, Note_on_c, 0, 62, 62
1, 26513, Note_on_c, 0, 67, 70
1, 26513, Note_on_c, 0, 55, 0
1, 26516, Note_on_c, 0, 51, 0
1, 26516, Note_on_c, 0, 50, 49
1, 26516, Note_on_c, 0, 53, 56
1, 26519, Note_on_c, 0, 55, 56
1, 26531, Control_c, 0, 64, 0
1, 26658, Control_c, 0, 64, 127
1, 26911, Note_on_c, 0, 67, 0
1, 26911, Note_on_c, 0, 62, 0
1, 26911, Note_on_c, 0, 65, 0
1, 26914, Note_on_c, 0, 60, 67
1, 26914, Note_on_c, 0, 63, 67
1, 26914, Note_on_c, 0, 67, 74
1, 26917, Note_on_c, 0, 55, 0
1, 26917, Note_on_c, 0, 53, 0
1, 26917, Note_on_c, 0, 50, 0
1, 26920, Note_on_c, 0, 48, 52
1, 26920, Note_on_c, 0, 51, 59
1, 26920, Note_on_c, 0, 55, 59
1, 26951, Control_c, 0, 64, 0
1, 27070, Control_c, 0, 64, 127
1, 27327, Note_on_c, 0, 67, 0
1, 27327, Note_on_c, 0, 63, 0
1, 27327, Note_on_c, 0, 60, 0
1, 27330, Note_on_c, 0, 69, 78
1, 27330, Note_on_c, 0, 63, 69
1, 27330, Note_on_c, 0, 60, 69
1, 27333, Note_on_c, 0, 55, 0
1, 27333, Note_on_c, 0, 51, 0
1, 27333, Note_on_c, 0, 48, 0
1, 27336, Control_c, 0, 64, 0
1, 27336, Note_on_c, 0, 41, 56
1, 27336, Note_on_c, 0, 48, 56
1, 27339, Note_on_c, 0, 53, 62
1, 27498, Control_c, 0, 64, 127
1, 27774, Note_on_c, 0, 60, 0
1, 27774, Note_on_c, 0, 63, 0
1, 27774, Note_on_c, 0, 69, 0
1, 27777, Note_on_c, 0, 58, 74
1, 27777, Note_on_c, 0, 62, 74
1, 27777, Note_on_c, 0, 70, 83
1, 27780, Note_on_c, 0, 53, 0
1, 27780, Note_on_c, 0, 48, 0
1, 27780, Note_on_c, 0, 41, 0
1, 27783, Control_c, 0, 64, 0
1, 27783, Note_on_c, 0, 46, 59
1, 27783, Note_on_c, 0, 50, 66
1, 27786, Note_on_c, 0, 53, 66
1, 27880, Control_c, 0, 64, 127
1, 28221, Note_on_c, 0, 89, 64
1, 28221, Note_on_c, 0, 22, 39
1, 28221, Note_on_c, 0, 34, 44
1, 28317, Note_on_c, 0, 89, 0
1, 28317, Note_on_c, 0, 86, 61
1, 28413, Note_on_c, 0, 86, 0
1, 28413, Note_on_c, 0, 82, 64
1, 28509, Note_on_c, 0, 82, 0
1, 28509, Note_on_c, 0, 81, 62
1, 28605, Note_on_c, 0, 81, 0
1, 28605, Note_on_c, 0, 86, 60
1, 28605, Note_on_c, 0, 34, 0
1, 28608, Note_on_c, 0, 22, 0
1, 28608, Note_on_c, 0, 22, 41
1, 28608, Note_on_c, 0, 34, 41
1, 28701, Note_on_c, 0, 86, 0
1, 28701, Note_on_c, 0, 82, 55
1, 28797, Note_on_c, 0, 82, 0
1, 28797, Note_on_c, 0, 77, 58
1, 28893, Note_on_c, 0, 77, 0
1, 28893, Note_on_c, 0, 76, 54
1, 28989, Note_on_c, 0, 76, 0
1, 28989, Note_on_c, 0, 82, 58
1, 28989, Note_on_c, 0, 34, 0
1, 28992, Note_on_c, 0, 22, 0
1, 28992, Note_on_c, 0, 22, 38
1, 28992, Note_on_c, 0, 34, 38
1, 29085, Note_on_c, 0, 82, 0
1, 29085, Note_on_c, 0, 77, 53
1, 29181, Note_on_c, 0, 77, 0
1, 29181, Note_on_c, 0, 74, 56
1, 29277, Note_on_c, 0, 74, 0
1, 29277, Note_on_c, 0, 72, 53
1, 29341, Control_c, 0, 64, 0
1, 29373, Note_on_c, 0, 72, 0
1, 29373, Note_on_c, 0, 70, 0
1, 29373, Note_on_c, 0, 62, 0
1, 29376, Note_on_c, 0, 58, 0
1, 29376, Note_on_c, 0, 70, 64
1, 29376, Note_on_c, 0, 34, 0
1, 29379, Note_on_c, 0, 53, 0
1, 29379, Note_on_c, 0, 46, 0
1, 29379, Note_on_c, 0, 50, 0
1, 29382, Note_on_c, 0, 22, 0
1, 29382, Note_on_c, 0, 58, 51
1, 29473, Control_c, 0, 64, 127
1, 29792, Note_on_c, 0, 70, 0
1, 29792, Note_on_c, 0, 66, 65
1, 29792, Note_on_c, 0, 70, 65
1, 29795, Note_on_c, 0, 58, 0
1, 29795, Note_on_c, 0, 54, 45
1, 29795, Note_on_c, 0, 58, 51
1, 30194, Note_on_c, 0, 70, 0
1, 30194, Note_on_c, 0, 66, 0
1, 30194, Note_on_c, 0, 66, 62
1, 30197, Note_on_c, 0, 63, 62
1, 30197, Note_on_c, 0, 70, 69
1, 30197, Note_on_c, 0, 58, 0
1, 30200, Note_on_c, 0, 54, 0
1, 30200, Note_on_c, 0, 51, 54
1, 30200, Note_on_c, 0, 54, 47
1, 30203, Note_on_c, 0, 58, 54
1, 30488, Control_c, 0, 64, 0
1, 30606, Note_on_c, 0, 70, 0
1, 30606, Note_on_c, 0, 63, 0
1, 30606, Note_on_c, 0, 66, 0
1, 30609, Note_on_c, 0, 66, 68
1, 30609, Note_on_c, 0, 63, 68
1, 30609, Note_on_c, 0, 71, 68
1, 30612, Note_on_c, 0, 75, 77
1, 30612, Note_on_c, 0, 58, 0
1, 30612, Note_on_c, 0, 54, 0
1, 30615, Note_on_c, 0, 51, 0
1, 30615, Note_on_c, 0, 47, 54
1, 30615, Note_on_c, 0, 51, 54
1, 30618, Note_on_c, 0, 54, 60
1, 30618, Note_on_c, 0, 59, 60
1, 30645, Control_c, 0, 64, 127
1, 31017, Note_on_c, 0, 75, 0
1, 31017, Note_on_c, 0, 66, 0
1, 31017, Note_on_c, 0, 63, 0
1, 31020, Note_on_c, 0, 71, 0
1, 31020, Note_on_c, 0, 63, 71
1, 31020, Note_on_c, 0, 75, 80
1, 31023, Note_on_c, 0, 68, 71
1, 31023, Note_on_c, 0, 71, 71
1, 31023, Note_on_c, 0, 59, 0
1, 31026, Note_on_c, 0, 47, 0
1, 31026, Note_on_c, 0, 51, 0
1, 31026, Note_on_c, 0, 54, 0
1, 31029, Note_on_c, 0, 44, 57
1, 31029, Note_on_c, 0, 47, 57
1, 31029, Note_on_c, 0, 51, 64
1, 31032, Note_on_c, 0, 56, 64
1, 31401, Control_c, 0, 64, 0
1, 31442, Note_on_c, 0, 71, 0
1, 31442, Note_on_c, 0, 63, 0
1, 31442, Note_on_c, 0, 75, 0
1, 31445, Note_on_c, 0, 68, 0
1, 31445, Note_on_c, 0, 71, 79
1, 31445, Note_on_c, 0, 68, 79
1, 31448, Note_on_c, 0, 76, 88
1, 31448, Note_on_c, 0, 80, 88
1, 31448, Note_on_c, 0, 56, 0
1, 31451, Note_on_c, 0, 44, 0
1, 31451, Note_on_c, 0, 47, 0
1, 31451, Note_on_c, 0, 51, 0
1, 31454, Note_on_c, 0, 40, 61
1, 31454, Note_on_c, 0, 44, 61
1, 31454, Note_on_c, 0, 47, 69
1, 31457, Note_on_c, 0, 52, 69
1, 31594, Control_c, 0, 64, 127
1, 31898, Note_on_c, 0, 80, 0
1, 31898, Note_on_c, 0, 71, 0
1, 31898, Note_on_c, 0, 68, 0
1, 31901, Note_on_c, 0, 76, 0
1, 31901, Note_on_c, 0, 66, 88
1, 31901, Note_on_c, 0, 78, 97
1, 31904, Note_on_c, 0, 71, 88
1, 31904, Note_on_c, 0, 75, 97
1, 31904, Note_on_c, 0, 52, 0
1, 31907, Note_on_c, 0, 40, 0
1, 31907, Note_on_c, 0, 44, 0
1, 31907, Note_on_c, 0, 47, 0
1, 31910, Control_c, 0, 64, 0
1, 31910, Note_on_c, 0, 47, 69
1, 31910, Note_on_c, 0, 51, 69
1, 31913, Note_on_c, 0, 54, 69
1, 31913, Note_on_c, 0, 59, 77
1, 31944, Control_c, 0, 64, 127
1, 32287, Note_on_c, 0, 83, 89
1, 32287, Note_on_c, 0, 87, 99
1, 32287, Note_on_c, 0, 75, 89
1, 32290, Note_on_c, 0, 27, 70
1, 32384, Note_on_c, 0, 30, 67
1, 32481, Note_on_c, 0, 30, 0
1, 32481, Note_on_c, 0, 35, 70
1, 32579, Note_on_c, 0, 35, 0
1, 32579, Note_on_c, 0, 39, 67
1, 32676, Note_on_c, 0, 75, 0
1, 32676, Note_on_c, 0, 83, 0
1, 32676, Note_on_c, 0, 78, 0
1, 32679, Note_on_c, 0, 71, 0
1, 32679, Note_on_c, 0, 66, 0
1, 32679, Note_on_c, 0, 87, 0
1, 32682, Note_on_c, 0, 75, 0
1, 32682, Note_on_c, 0, 82, 89
1, 32682, Note_on_c, 0, 75, 89
1, 32685, Note_on_c, 0, 87, 99
1, 32685, Note_on_c, 0, 39, 0
1, 32685, Note_on_c, 0, 51, 0
1, 32688, Note_on_c, 0, 54, 0
1, 32688, Note_on_c, 0, 47, 0
1, 32688, Note_on_c, 0, 27, 0
1, 32691, Note_on_c, 0, 59, 0
1, 32691, Control_c, 0, 64, 0
1, 32691, Note_on_c, 0, 42, 70
1, 32713, Control_c, 0, 64, 127
1, 32773, Note_on_c, 0, 47, 67
1, 32870, Note_on_c, 0, 47, 0
1, 32870, Note_on_c, 0, 51, 70
1, 32968, Note_on_c, 0, 51, 0
1, 32968, Note_on_c, 0, 54, 67
1, 33065, Note_on_c, 0, 87, 0
1, 33065, Note_on_c, 0, 75, 0
1, 33065, Note_on_c, 0, 82, 0
1, 33068, Note_on_c, 0, 75, 89
1, 33068, Note_on_c, 0, 87, 99
1, 33068, Note_on_c, 0, 81, 89
1, 33071, Note_on_c, 0, 54, 0
1, 33071, Note_on_c, 0, 42, 0
1, 33071, Note_on_c, 0, 59, 70
1, 33084, Control_c, 0, 64, 0
1, 33125, Control_c, 0, 64, 127
1, 33162, Note_on_c, 0, 63, 67
1, 33260, Note_on_c, 0, 63, 0
1, 33260, Note_on_c, 0, 66, 70
1, 33357, Note_on_c, 0, 66, 0
1, 33357, Note_on_c, 0, 71, 67
1, 33454, Note_on_c, 0, 81, 0
1, 33454, Note_on_c, 0, 87, 0
1, 33454, Note_on_c, 0, 75, 0
1, 33457, Control_c, 0, 91, 127
1, 33457, Note_on_c, 0, 87, 102
1, 33457, Note_on_c, 0, 82, 91
1, 33460, Note_on_c, 0, 79, 91
1, 33460, Note_on_c, 0, 75, 91
1, 33460, Note_on_c, 0, 71, 0
1, 33463, Note_on_c, 0, 59, 0
1, 33463, Note_on_c, 0, 58, 67
1, 33463, Note_on_c, 0, 63, 67
1, 33466, Note_on_c, 0, 67, 67
1, 33466, Note_on_c, 0, 70, 74
1, 33466, Control_c, 0, 91, 127
1, 33469, Control_c, 0, 64, 0
1, 33575, Control_c, 0, 64, 127
1, 33761, Note_on_c, 0, 75, 0
1, 33761, Note_on_c, 0, 87, 0
1, 33761, Note_on_c, 0, 82, 0
1, 33764, Note_on_c, 0, 79, 0
1, 33764, Note_on_c, 0, 70, 0
1, 33764, Note_on_c, 0, 58, 0
1, 33767, Note_on_c, 0, 63, 0
1, 33767, Note_on_c, 0, 67, 0
1, 33779, Control_c, 0, 64, 0
1, 33864, Note_on_c, 0, 70, 66
1, 33864, Note_on_c, 0, 65, 66
1, 33864, Note_on_c, 0, 74, 66
1, 33867, Note_on_c, 0, 77, 73
1, 33867, Note_on_c, 0, 58, 58
1, 33867, Note_on_c, 0, 46, 51
1, 33976, Note_on_c, 0, 77, 0
1, 33976, Note_on_c, 0, 70, 0
1, 33976, Note_on_c, 0, 65, 0
1, 33979, Note_on_c, 0, 74, 0
1, 33979, Note_on_c, 0, 46, 0
1, 33979, Note_on_c, 0, 58, 0
1, 34087, Note_on_c, 0, 67, 66
1, 34087, Note_on_c, 0, 79, 73
1, 34087, Note_on_c, 0, 70, 66
1, 34090, Note_on_c, 0, 75, 66
1, 34090, Note_on_c, 0, 39, 51
1, 34090, Note_on_c, 0, 51, 58
1, 34199, Note_on_c, 0, 75, 0
1, 34199, Note_on_c, 0, 67, 0
1, 34199, Note_on_c, 0, 79, 0
1, 34202, Note_on_c, 0, 70, 0
1, 34202, Note_on_c, 0, 51, 0
1, 34202, Note_on_c, 0, 39, 0
1, 34311, Note_on_c, 0, 72, 77
1, 34311, Note_on_c, 0, 68, 77
1, 34311, Note_on_c, 0, 75, 77
1, 34314, Note_on_c, 0, 80, 85
1, 34314, Note_on_c, 0, 63, 70
1, 34314, Note_on_c, 0, 60, 62
1, 34317, Note_on_c, 0, 56, 62
1, 34317, Note_on_c, 0, 51, 62
1, 34337, Control_c, 0, 64, 127
1, 34623, Control_c, 0, 64, 0
1, 34700, Note_on_c, 0, 80, 0
1, 34700, Note_on_c, 0, 72, 0
1, 34700, Note_on_c, 0, 68, 0
1, 34703, Note_on_c, 0, 75, 0
1, 34703, Note_on_c, 0, 67, 64
1, 34703, Note_on_c, 0, 79, 72
1, 34706, Note_on_c, 0, 70, 64
1, 34706, Note_on_c, 0, 75, 72
1, 34706, Note_on_c, 0, 51, 0
1, 34709, Note_on_c, 0, 63, 0
1, 34709, Note_on_c, 0, 60, 0
1, 34709, Note_on_c, 0, 56, 0
1, 34712, Note_on_c, 0, 39, 50
1, 34712, Note_on_c, 0, 51, 57
1, 34810, Note_on_c, 0, 75, 0
1, 34810, Note_on_c, 0, 67, 0
1, 34810, Note_on_c, 0, 79, 0
1, 34813, Note_on_c, 0, 70, 0
1, 34813, Note_on_c, 0, 51, 0
1, 34813, Note_on_c, 0, 39, 0
1, 34920, Note_on_c, 0, 65, 64
1, 34920, Note_on_c, 0, 72, 64
1, 34920, Note_on_c, 0, 77, 72
1, 34923, Note_on_c, 0, 75, 64
1, 34923, Note_on_c, 0, 32, 50
1, 34923, Note_on_c, 0, 44, 57
1, 35030, Note_on_c, 0, 75, 0
1, 35030, Note_on_c, 0, 65, 0
1, 35030, Note_on_c, 0, 72, 0
1, 35033, Note_on_c, 0, 77, 0
1, 35033, Note_on_c, 0, 44, 0
1, 35033, Note_on_c, 0, 32, 0
1, 35140, Note_on_c, 0, 79, 86
1, 35140, Note_on_c, 0, 75, 78
1, 35140, Note_on_c, 0, 67, 78
1, 35143, Note_on_c, 0, 70, 78
1, 35143, Note_on_c, 0, 39, 62
1, 35143, Note_on_c, 0, 46, 62
1, 35146, Note_on_c, 0, 51, 70
1, 35174, Control_c, 0, 64, 127
1, 35438, Control_c, 0, 64, 0
1, 35530, Note_on_c, 0, 70, 0
1, 35530, Note_on_c, 0, 79, 0
1, 35530, Note_on_c, 0, 75, 0
1, 35533, Note_on_c, 0, 67, 0
1, 35533, Note_on_c, 0, 65, 64
1, 35533, Note_on_c, 0, 68, 64
1, 35536, Note_on_c, 0, 74, 64
1, 35536, Note_on_c, 0, 77, 72
1, 35536, Note_on_c, 0, 51, 0
1, 35539, Note_on_c, 0, 46, 0
1, 35539, Note_on_c, 0, 39, 0
1, 35539, Note_on_c, 0, 34, 50
1, 35542, Note_on_c, 0, 46, 57
1, 35638, Note_on_c, 0, 77, 0
1, 35638, Note_on_c, 0, 65, 0
1, 35638, Note_on_c, 0, 68, 0
1, 35641, Note_on_c, 0, 74, 0
1, 35641, Note_on_c, 0, 46, 0
1, 35641, Note_on_c, 0, 34, 0
1, 35747, Note_on_c, 0, 75, 71
1, 35747, Note_on_c, 0, 63, 63
1, 35747, Note_on_c, 0, 67, 63
1, 35750, Note_on_c, 0, 70, 63
1, 35750, Note_on_c, 0, 27, 49
1, 35750, Note_on_c, 0, 39, 56
1, 35855, Note_on_c, 0, 70, 0
1, 35855, Note_on_c, 0, 75, 0
1, 35855, Note_on_c, 0, 63, 0
1, 35858, Note_on_c, 0, 67, 0
1, 35858, Note_on_c, 0, 39, 0
1, 35858, Note_on_c, 0, 27, 0
1, 35964, Note_on_c, 0, 65, 62
1, 35964, Note_on_c, 0, 74, 62
1, 35964, Note_on_c, 0, 77, 70
1, 35967, Note_on_c, 0, 34, 49
1, 35967, Note_on_c, 0, 46, 55
1, 36068, Note_on_c, 0, 77, 0
1, 36068, Note_on_c, 0, 74, 0
1, 36068, Note_on_c, 0, 65, 0
1, 36071, Note_on_c, 0, 46, 0
1, 36071, Note_on_c, 0, 34, 0
1, 36172, Note_on_c, 0, 70, 69
1, 36172, Note_on_c, 0, 58, 52
1, 36172, Note_on_c, 0, 46, 47
1, 36280, Note_on_c, 0, 70, 0
1, 36280, Note_on_c, 0, 46, 0
1, 36280, Note_on_c, 0, 58, 0
1, 36388, Note_on_c, 0, 75, 79
1, 36388, Note_on_c, 0, 72, 70
1, 36388, Note_on_c, 0, 63, 70
1, 36391, Control_c, 0, 64, 127
1, 36391, Note_on_c, 0, 39, 57
1, 36391, Note_on_c, 0, 51, 63
1, 36811, Note_on_c, 0, 63, 0
1, 36811, Note_on_c, 0, 72, 0
1, 36811, Note_on_c, 0, 75, 0
1, 36814, Note_on_c, 0, 63, 69
1, 36814, Note_on_c, 0, 70, 69
1, 36814, Note_on_c, 0, 74, 78
1, 36817, Note_on_c, 0, 75, 78
1, 36817, Note_on_c, 0, 51, 0
1, 36817, Note_on_c, 0, 39, 0
1, 36820, Control_c, 0, 64, 0
1, 36820, Note_on_c, 0, 62, 62
1, 36820, Note_on_c, 0, 58, 56
1, 36823, Note_on_c, 0, 51, 56
1, 36876, Control_c, 0, 64, 127
1, 37157, Control_c, 0, 64, 0
1, 37222, Note_on_c, 0, 75, 0
1, 37222, Note_on_c, 0, 63, 0
1, 37222, Note_on_c, 0, 70, 0
1, 37225, Note_on_c, 0, 74, 0
1, 37225, Note_on_c, 0, 75, 77
1, 37225, Note_on_c, 0, 63, 69
1, 37228, Note_on_c, 0, 68, 69
1, 37228, Note_on_c, 0, 72, 69
1, 37228, Note_on_c, 0, 51, 0
1, 37231, Note_on_c, 0, 58, 0
1, 37231, Note_on_c, 0, 62, 0
1, 37231, Note_on_c, 0, 51, 55
1, 37234, Note_on_c, 0, 56, 55
1, 37234, Note_on_c, 0, 60, 61
1, 37287, Control_c, 0, 64, 127
1, 37502, Control_c, 0, 64, 0
1, 37632, Note_on_c, 0, 72, 0
1, 37632, Note_on_c, 0, 75, 0
1, 37632, Note_on_c, 0, 63, 0
1, 37635, Note_on_c, 0, 68, 0
1, 37635, Note_on_c, 0, 63, 67
1, 37635, Note_on_c, 0, 67, 67
1, 37638, Note_on_c, 0, 70, 67
1, 37638, Note_on_c, 0, 75, 74
1, 37638, Note_on_c, 0, 60, 0
1, 37641, Note_on_c, 0, 56, 0
1, 37641, Note_on_c, 0, 51, 0
1, 37641, Note_on_c, 0, 39, 53
1, 37644, Note_on_c, 0, 46, 53
1, 37644, Note_on_c, 0, 51, 60
1, 37729, Control_c, 0, 64, 127
1, 37976, Control_c, 0, 64, 0
1, 38042, Note_on_c, 0, 75, 0
1, 38042, Note_on_c, 0, 63, 0
1, 38042, Note_on_c, 0, 67, 0
1, 38045, Note_on_c, 0, 70, 0
1, 38045, Note_on_c, 0, 74, 77
1, 38045, Note_on_c, 0, 65, 69
1, 38048, Note_on_c, 0, 70, 69
1, 38048, Note_on_c, 0, 62, 69
1, 38048, Note_on_c, 0, 51, 0
1, 38051, Note_on_c, 0, 46, 0
1, 38051, Note_on_c, 0, 39, 0
1, 38051, Note_on_c, 0, 34, 53
1, 38054, Note_on_c, 0, 46, 60
1, 38147, Note_on_c, 0, 62, 0
1, 38147, Note_on_c, 0, 74, 0
1, 38147, Note_on_c, 0, 65, 0
1, 38150, Note_on_c, 0, 70, 0
1, 38150, Note_on_c, 0, 46, 0
1, 38150, Note_on_c, 0, 34, 0
1, 38251, Note_on_c, 0, 63, 69
1, 38251, Note_on_c, 0, 67, 69
1, 38251, Note_on_c, 0, 70, 69
1, 38254, Note_on_c, 0, 75, 77
1, 38254, Note_on_c, 0, 39, 53
1, 38254, Note_on_c, 0, 51, 60
1, 38361, Note_on_c, 0, 75, 0
1, 38361, Note_on_c, 0, 63, 0
1, 38361, Note_on_c, 0, 67, 0
1, 38364, Note_on_c, 0, 70, 0
1, 38364, Note_on_c, 0, 51, 0
1, 38364, Note_on_c, 0, 39, 0
1, 38472, Note_on_c, 0, 67, 73
1, 38472, Note_on_c, 0, 72, 73
1, 38472, Note_on_c, 0, 75, 73
1, 38475, Note_on_c, 0, 79, 82
1, 38475, Note_on_c, 0, 36, 58
1, 38475, Note_on_c, 0, 48, 64
1, 38495, Control_c, 0, 64, 127
1, 38812, Control_c, 0, 64, 0
1, 38871, Note_on_c, 0, 79, 0
1, 38871, Note_on_c, 0, 67, 0
1, 38871, Note_on_c, 0, 72, 0
1, 38874, Note_on_c, 0, 75, 0
1, 38874, Note_on_c, 0, 65, 68
1, 38874, Note_on_c, 0, 68, 68
1, 38877, Note_on_c, 0, 72, 68
1, 38877, Note_on_c, 0, 77, 75
1, 38877, Note_on_c, 0, 48, 0
1, 38880, Note_on_c, 0, 36, 0
1, 38880, Note_on_c, 0, 41, 51
1, 38880, Note_on_c, 0, 53, 58
1, 38974, Note_on_c, 0, 77, 0
1, 38974, Note_on_c, 0, 65, 0
1, 38974, Note_on_c, 0, 68, 0
1, 38977, Note_on_c, 0, 72, 0
1, 38977, Note_on_c, 0, 53, 0
1, 38977, Note_on_c, 0, 41, 0
1, 39076, Note_on_c, 0, 72, 68
1, 39076, Note_on_c, 0, 75, 75
1, 39076, Note_on_c, 0, 63, 68
1, 39079, Note_on_c, 0, 67, 68
1, 39079, Note_on_c, 0, 36, 51
1, 39079, Note_on_c, 0, 48, 58
1, 39185, Note_on_c, 0, 67, 0
1, 39185, Note_on_c, 0, 72, 0
1, 39185, Note_on_c, 0, 75, 0
1, 39188, Note_on_c, 0, 63, 0
1, 39188, Note_on_c, 0, 48, 0
1, 39188, Note_on_c, 0, 36, 0
1, 39294, Note_on_c, 0, 62, 71
1, 39294, Note_on_c, 0, 67, 71
1, 39294, Note_on_c, 0, 70, 71
1, 39297, Note_on_c, 0, 74, 80
1, 39297, Note_on_c, 0, 43, 56
1, 39297, Note_on_c, 0, 50, 56
1, 39300, Note_on_c, 0, 55, 62
1, 39317, Control_c, 0, 64, 127
1, 39621, Control_c, 0, 64, 0
1, 39692, Note_on_c, 0, 74, 0
1, 39692, Note_on_c, 0, 62, 0
1, 39692, Note_on_c, 0, 67, 0
1, 39695, Note_on_c, 0, 70, 0
1, 39695, Note_on_c, 0, 67, 64
1, 39695, Note_on_c, 0, 60, 64
1, 39698, Note_on_c, 0, 63, 64
1, 39698, Note_on_c, 0, 72, 72
1, 39698, Note_on_c, 0, 55, 0
1, 39701, Note_on_c, 0, 50, 0
1, 39701, Note_on_c, 0, 43, 0
1, 39701, Note_on_c, 0, 36, 50
1, 39704, Note_on_c, 0, 48, 57
1, 39793, Note_on_c, 0, 72, 0
1, 39793, Note_on_c, 0, 67, 0
1, 39793, Note_on_c, 0, 60, 0
1, 39796, Note_on_c, 0, 63, 0
1, 39796, Note_on_c, 0, 48, 0
1, 39796, Note_on_c, 0, 36, 0
1, 39893, Note_on_c, 0, 58, 62
1, 39893, Note_on_c, 0, 62, 62
1, 39893, Note_on_c, 0, 70, 70
1, 39896, Note_on_c, 0, 67, 62
1, 39896, Note_on_c, 0, 31, 50
1, 39896, Note_on_c, 0, 43, 57
1, 39994, Note_on_c, 0, 67, 0
1, 39994, Note_on_c, 0, 58, 0
1, 39994, Note_on_c, 0, 62, 0
1, 39997, Note_on_c, 0, 70, 0
1, 39997, Note_on_c, 0, 43, 0
1, 39997, Note_on_c, 0, 31, 0
1, 40095, Note_on_c, 0, 69, 70
1, 40095, Note_on_c, 0, 66, 62
1, 40095, Note_on_c, 0, 57, 62
1, 40098, Note_on_c, 0, 26, 49
1, 40098, Note_on_c, 0, 38, 56
1, 40198, Note_on_c, 0, 57, 0
1, 40198, Note_on_c, 0, 66, 0
1, 40198, Note_on_c, 0, 69, 0
1, 40201, Note_on_c, 0, 38, 0
1, 40201, Note_on_c, 0, 26, 0
1, 40302, Note_on_c, 0, 62, 68
1, 40302, Note_on_c, 0, 50, 53
1, 40302, Note_on_c, 0, 38, 48
1, 40405, Note_on_c, 0, 62, 0
1, 40405, Note_on_c, 0, 38, 0
1, 40405, Note_on_c, 0, 50, 0
1, 40508, Note_on_c, 0, 55, 59
1, 40508, Note_on_c, 0, 67, 66
1, 40508, Control_c, 0, 64, 127
1, 40511, Note_on_c, 0, 31, 47
1, 40511, Note_on_c, 0, 43, 52
1, 40911, Note_on_c, 0, 67, 0
1, 40911, Note_on_c, 0, 55, 0
1, 40911, Note_on_c, 0, 67, 75
1, 40914, Note_on_c, 0, 55, 68
1, 40914, Note_on_c, 0, 66, 75
1, 40914, Note_on_c, 0, 43, 0
1, 40917, Note_on_c, 0, 31, 0
1, 40917, Control_c, 0, 64, 0
1, 40917, Note_on_c, 0, 54, 61
1, 40920, Note_on_c, 0, 43, 55
1, 41001, Control_c, 0, 64, 127
1, 41328, Note_on_c, 0, 66, 0
1, 41328, Note_on_c, 0, 55, 0
1, 41328, Note_on_c, 0, 67, 0
1, 41331, Note_on_c, 0, 55, 67
1, 41331, Note_on_c, 0, 65, 74
1, 41331, Note_on_c, 0, 67, 74
1, 41334, Note_on_c, 0, 43, 0
1, 41334, Note_on_c, 0, 54, 0
1, 41334, Note_on_c, 0, 43, 52
1, 41337, Note_on_c, 0, 53, 59
1, 41385, Control_c, 0, 64, 0
1, 41442, Control_c, 0, 64, 127
1, 41614, Control_c, 0, 64, 0
1, 41645, Note_on_c, 0, 67, 0
1, 41645, Note_on_c, 0, 65, 0
1, 41645, Note_on_c, 0, 55, 0
1, 41648, Note_on_c, 0, 53, 0
1, 41648, Note_on_c, 0, 43, 0
1, 41752, Control_c, 0, 91, 127
1, 41752, Note_on_c, 0, 79, 77
1, 41752, Note_on_c, 0, 75, 65
1, 41755, Note_on_c, 0, 67, 65
1, 41755, Note_on_c, 0, 70, 65
1, 41755, Note_on_c, 0, 39, 50
1, 41758, Note_on_c, 0, 46, 50
1, 41758, Note_on_c, 0, 51, 59
1, 41758, Control_c, 0, 91, 127
1, 41901, Control_c, 0, 64, 127
1, 42039, Control_c, 0, 64, 0
1, 42142, Note_on_c, 0, 70, 0
1, 42142, Note_on_c, 0, 79, 0
1, 42142, Note_on_c, 0, 75, 0
1, 42145, Note_on_c, 0, 67, 0
1, 42145, Note_on_c, 0, 65, 61
1, 42145, Note_on_c, 0, 70, 61
1, 42148, Note_on_c, 0, 74, 61
1, 42148, Note_on_c, 0, 77, 72
1, 42148, Note_on_c, 0, 51, 0
1, 42151, Note_on_c, 0, 46, 0
1, 42151, Note_on_c, 0, 39, 0
1, 42151, Note_on_c, 0, 34, 46
1, 42154, Note_on_c, 0, 46, 55
1, 42244, Note_on_c, 0, 77, 0
1, 42244, Note_on_c, 0, 65, 0
1, 42244, Note_on_c, 0, 70, 0
1, 42247, Note_on_c, 0, 74, 0
1, 42247, Note_on_c, 0, 46, 0
1, 42247, Note_on_c, 0, 34, 0
1, 42346, Note_on_c, 0, 79, 73
1, 42346, Note_on_c, 0, 67, 62
1, 42346, Note_on_c, 0, 70, 62
1, 42349, Note_on_c, 0, 75, 62
1, 42349, Note_on_c, 0, 39, 49
1, 42349, Note_on_c, 0, 51, 58
1, 42452, Note_on_c, 0, 75, 0
1, 42452, Note_on_c, 0, 79, 0
1, 42452, Note_on_c, 0, 67, 0
1, 42455, Note_on_c, 0, 70, 0
1, 42455, Note_on_c, 0, 51, 0
1, 42455, Note_on_c, 0, 39, 0
1, 42557, Note_on_c, 0, 68, 65
1, 42557, Note_on_c, 0, 72, 65
1, 42557, Note_on_c, 0, 75, 65
1, 42560, Note_on_c, 0, 80, 77
1, 42560, Note_on_c, 0, 32, 51
1, 42560, Note_on_c, 0, 44, 61
1, 42639, Control_c, 0, 64, 127
1, 42916, Control_c, 0, 64, 0
1, 42947, Note_on_c, 0, 80, 0
1, 42947, Note_on_c, 0, 68, 0
1, 42947, Note_on_c, 0, 72, 0
1, 42950, Note_on_c, 0, 75, 0
1, 42950, Note_on_c, 0, 75, 62
1, 42950, Note_on_c, 0, 79, 74
1, 42953, Note_on_c, 0, 67, 62
1, 42953, Note_on_c, 0, 70, 62
1, 42953, Note_on_c, 0, 44, 0
1, 42956, Note_on_c, 0, 32, 0
1, 42956, Note_on_c, 0, 39, 48
1, 42956, Note_on_c, 0, 51, 57
1, 43049, Note_on_c, 0, 70, 0
1, 43049, Note_on_c, 0, 75, 0
1, 43049, Note_on_c, 0, 79, 0
1, 43052, Note_on_c, 0, 67, 0
1, 43052, Note_on_c, 0, 51, 0
1, 43052, Note_on_c, 0, 39, 0
1, 43151, Note_on_c, 0, 65, 53
1, 43151, Note_on_c, 0, 72, 53
1, 43151, Note_on_c, 0, 77, 72
1, 43154, Note_on_c, 0, 75, 53
1, 43154, Note_on_c, 0, 32, 45
1, 43154, Note_on_c, 0, 44, 54
1, 43256, Note_on_c, 0, 75, 0
1, 43256, Note_on_c, 0, 65, 0
1, 43256, Note_on_c, 0, 72, 0
1, 43259, Note_on_c, 0, 77, 0
1, 43259, Note_on_c, 0, 44, 0
1, 43259, Note_on_c, 0, 32, 0
1, 43361, Note_on_c, 0, 75, 58
1, 43361, Note_on_c, 0, 67, 58
1, 43361, Note_on_c, 0, 70, 58
1, 43364, Note_on_c, 0, 79, 76
1, 43364, Note_on_c, 0, 39, 47
1, 43364, Note_on_c, 0, 46, 47
1, 43367, Note_on_c, 0, 51, 56
1, 43418, Control_c, 0, 64, 127
1, 43624, Control_c, 0, 64, 0
1, 43750, Note_on_c, 0, 79, 0
1, 43750, Note_on_c, 0, 75, 0
1, 43750, Note_on_c, 0, 67, 0
1, 43753, Note_on_c, 0, 70, 0
1, 43753, Note_on_c, 0, 65, 63
1, 43753, Note_on_c, 0, 68, 63
1, 43756, Note_on_c, 0, 77, 75
1, 43756, Note_on_c, 0, 74, 75
1, 43756, Note_on_c, 0, 51, 0
1, 43759, Note_on_c, 0, 46, 0
1, 43759, Note_on_c, 0, 39, 0
1, 43759, Note_on_c, 0, 34, 49
1, 43762, Note_on_c, 0, 46, 58
1, 43849, Note_on_c, 0, 74, 0
1, 43849, Note_on_c, 0, 65, 0
1, 43849, Note_on_c, 0, 68, 0
1, 43852, Note_on_c, 0, 77, 0
1, 43852, Note_on_c, 0, 46, 0
1, 43852, Note_on_c, 0, 34, 0
1, 43949, Note_on_c, 0, 70, 62
1, 43949, Note_on_c, 0, 67, 62
1, 43949, Note_on_c, 0, 63, 62
1, 43952, Note_on_c, 0, 75, 73
1, 43952, Note_on_c, 0, 51, 56
1, 43952, Note_on_c, 0, 39, 47
1, 44048, Note_on_c, 0, 75, 0
1, 44048, Note_on_c, 0, 70, 0
1, 44048, Note_on_c, 0, 67, 0
1, 44051, Note_on_c, 0, 63, 0
1, 44051, Note_on_c, 0, 39, 0
1, 44051, Note_on_c, 0, 51, 0
1, 44147, Note_on_c, 0, 65, 62
1, 44147, Note_on_c, 0, 74, 74
1, 44147, Note_on_c, 0, 77, 74
1, 44150, Note_on_c, 0, 34, 48
1, 44150, Note_on_c, 0, 46, 57
1, 44247, Note_on_c, 0, 77, 0
1, 44247, Note_on_c, 0, 74, 0
1, 44247, Note_on_c, 0, 65, 0
1, 44250, Note_on_c, 0, 46, 0
1, 44250, Note_on_c, 0, 34, 0
1, 44346, Note_on_c, 0, 70, 71
1, 44346, Note_on_c, 0, 58, 57
1, 44346, Note_on_c, 0, 46, 50
1, 44445, Note_on_c, 0, 70, 0
1, 44445, Note_on_c, 0, 46, 0
1, 44445, Note_on_c, 0, 58, 0
1, 44545, Note_on_c, 0, 75, 69
1, 44545, Note_on_c, 0, 63, 61
1, 44545, Control_c, 0, 64, 127
1, 44548, Note_on_c, 0, 39, 49
1, 44548, Note_on_c, 0, 51, 56
1, 44885, Control_c, 0, 64, 0
1, 44958, Note_on_c, 0, 63, 0
1, 44958, Note_on_c, 0, 75, 0
1, 44958, Note_on_c, 0, 74, 68
1, 44961, Note_on_c, 0, 63, 68
1, 44961, Note_on_c, 0, 75, 75
1, 44961, Note_on_c, 0, 51, 0
1, 44964, Note_on_c, 0, 39, 0
1, 44964, Note_on_c, 0, 39, 55
1, 44964, Note_on_c, 0, 38, 55
1, 44967, Note_on_c, 0, 50, 61
1, 45096, Control_c, 0, 64, 127
1, 45278, Control_c, 0, 64, 0
1, 45392, Note_on_c, 0, 75, 0
1, 45392, Note_on_c, 0, 63, 0
1, 45392, Note_on_c, 0, 74, 0
1, 45395, Note_on_c, 0, 75, 81
1, 45395, Note_on_c, 0, 63, 72
1, 45395, Note_on_c, 0, 72, 72
1, 45398, Note_on_c, 0, 50, 0
1, 45398, Note_on_c, 0, 38, 0
1, 45398, Note_on_c, 0, 39, 0
1, 45401, Note_on_c, 0, 36, 58
1, 45401, Note_on_c, 0, 39, 58
1, 45401, Note_on_c, 0, 48, 64
1, 45514, Control_c, 0, 64, 127
1, 45735, Control_c, 0, 64, 0
1, 45857, Note_on_c, 0, 72, 0
1, 45857, Note_on_c, 0, 63, 0
1, 45857, Note_on_c, 0, 75, 0
1, 45860, Note_on_c, 0, 87, 90
1, 45860, Note_on_c, 0, 91, 101
1, 45860, Note_on_c, 0, 84, 90
1, 45863, Note_on_c, 0, 79, 90
1, 45863, Note_on_c, 0, 48, 0
1, 45863, Note_on_c, 0, 39, 0
1, 45866, Note_on_c, 0, 36, 0
1, 45866, Note_on_c, 0, 31, 72
1, 45866, Note_on_c, 0, 36, 72
1, 45869, Note_on_c, 0, 39, 72
1, 45869, Note_on_c, 0, 43, 81
1, 45962, Control_c, 0, 64, 127
1, 46162, Control_c, 0, 64, 0
1, 46256, Note_on_c, 0, 79, 0
1, 46256, Note_on_c, 0, 87, 0
1, 46256, Note_on_c, 0, 91, 0
1, 46259, Note_on_c, 0, 84, 0
1, 46259, Note_on_c, 0, 86, 93
1, 46259, Note_on_c, 0, 83, 93
1, 46262, Note_on_c, 0, 74, 83
1, 46262, Note_on_c, 0, 43, 0
1, 46262, Note_on_c, 0, 31, 0
1, 46265, Note_on_c, 0, 36, 0
1, 46265, Note_on_c, 0, 39, 0
1, 46265, Note_on_c, 0, 39, 67
1, 46268, Note_on_c, 0, 51, 74
1, 46354, Note_on_c, 0, 74, 0
1, 46354, Note_on_c, 0, 83, 0
1, 46354, Note_on_c, 0, 86, 0
1, 46357, Note_on_c, 0, 51, 0
1, 46357, Note_on_c, 0, 39, 0
1, 46453, Note_on_c, 0, 84, 79
1, 46453, Note_on_c, 0, 87, 89
1, 46453, Note_on_c, 0, 75, 79
1, 46456, Note_on_c, 0, 48, 74
1, 46456, Note_on_c, 0, 36, 67
1, 46560, Note_on_c, 0, 75, 0
1, 46560, Note_on_c, 0, 87, 0
1, 46560, Note_on_c, 0, 84, 0
1, 46563, Note_on_c, 0, 36, 0
1, 46563, Note_on_c, 0, 48, 0
1, 46668, Note_on_c, 0, 83, 92
1, 46668, Note_on_c, 0, 80, 82
1, 46668, Note_on_c, 0, 71, 82
1, 46671, Note_on_c, 0, 75, 82
1, 46671, Note_on_c, 0, 44, 69
1, 46671, Note_on_c, 0, 51, 69
1, 46674, Note_on_c, 0, 56, 77
1, 46792, Control_c, 0, 64, 127
1, 47048, Control_c, 0, 64, 0
1, 47067, Note_on_c, 0, 75, 0
1, 47067, Note_on_c, 0, 83, 0
1, 47067, Note_on_c, 0, 80, 0
1, 47070, Note_on_c, 0, 71, 0
1, 47070, Note_on_c, 0, 75, 79
1, 47070, Note_on_c, 0, 80, 79
1, 47073, Note_on_c, 0, 84, 88
1, 47073, Note_on_c, 0, 72, 79
1, 47073, Note_on_c, 0, 56, 0
1, 47076, Note_on_c, 0, 51, 0
1, 47076, Note_on_c, 0, 44, 0
1, 47076, Note_on_c, 0, 36, 62
1, 47079, Note_on_c, 0, 48, 70
1, 47172, Note_on_c, 0, 72, 0
1, 47172, Note_on_c, 0, 75, 0
1, 47172, Note_on_c, 0, 80, 0
1, 47175, Note_on_c, 0, 84, 0
1, 47175, Note_on_c, 0, 48, 0
1, 47175, Note_on_c, 0, 36, 0
1, 47278, Note_on_c, 0, 79, 84
1, 47278, Note_on_c, 0, 76, 84
1, 47278, Note_on_c, 0, 67, 75
1, 47281, Note_on_c, 0, 32, 62
1, 47281, Note_on_c, 0, 44, 70
1, 47383, Note_on_c, 0, 67, 0
1, 47383, Note_on_c, 0, 76, 0
1, 47383, Note_on_c, 0, 79, 0
1, 47386, Note_on_c, 0, 44, 0
1, 47386, Note_on_c, 0, 32, 0
1, 47489, Note_on_c, 0, 72, 80
1, 47489, Note_on_c, 0, 80, 90
1, 47489, Note_on_c, 0, 77, 80
1, 47492, Note_on_c, 0, 68, 80
1, 47492, Note_on_c, 0, 53, 74
1, 47492, Note_on_c, 0, 48, 67
1, 47495, Note_on_c, 0, 44, 67
1, 47495, Note_on_c, 0, 41, 67
1, 47569, Control_c, 0, 64, 127
1, 47820, Control_c, 0, 64, 0
1, 47911, Note_on_c, 0, 68, 0
1, 47911, Note_on_c, 0, 72, 0
1, 47911, Note_on_c, 0, 80, 0
1, 47914, Note_on_c, 0, 77, 0
1, 47914, Note_on_c, 0, 76, 83
1, 47914, Note_on_c, 0, 73, 83
1, 47917, Note_on_c, 0, 63, 74
1, 47917, Note_on_c, 0, 41, 0
1, 47917, Note_on_c, 0, 53, 0
1, 47920, Note_on_c, 0, 48, 0
1, 47920, Note_on_c, 0, 44, 0
1, 47920, Note_on_c, 0, 32, 59
1, 47923, Note_on_c, 0, 44, 66
1, 48135, Note_on_c, 0, 63, 0
1, 48135, Note_on_c, 0, 73, 0
1, 48135, Note_on_c, 0, 76, 0
1, 48138, Note_on_c, 0, 74, 74
1, 48138, Note_on_c, 0, 77, 83
1, 48138, Note_on_c, 0, 65, 74
1, 48141, Note_on_c, 0, 44, 0
1, 48141, Note_on_c, 0, 32, 0
1, 48141, Note_on_c, 0, 29, 59
1, 48144, Note_on_c, 0, 41, 66
1, 48386, Note_on_c, 0, 65, 0
1, 48386, Note_on_c, 0, 77, 0
1, 48386, Note_on_c, 0, 74, 0
1, 48389, Note_on_c, 0, 69, 88
1, 48389, Note_on_c, 0, 66, 79
1, 48389, Note_on_c, 0, 63, 79
1, 48392, Note_on_c, 0, 75, 88
1, 48392, Note_on_c, 0, 41, 0
1, 48392, Note_on_c, 0, 29, 0
1, 48395, Note_on_c, 0, 48, 62
1, 48395, Note_on_c, 0, 51, 62
1, 48395, Note_on_c, 0, 54, 62
1, 48398, Note_on_c, 0, 57, 70
1, 48398, Note_on_c, 0, 60, 70
1, 48422, Control_c, 0, 64, 127
1, 48889, Note_on_c, 0, 60, 0
1, 48889, Note_on_c, 0, 54, 0
1, 48889, Note_on_c, 0, 48, 0
1, 48892, Note_on_c, 0, 51, 0
1, 48892, Note_on_c, 0, 57, 0
1, 48892, Note_on_c, 0, 31, 62
1, 48895, Note_on_c, 0, 43, 70
1, 48986, Note_on_c, 0, 75, 0
1, 48986, Note_on_c, 0, 74, 78
1, 49084, Note_on_c, 0, 74, 0
1, 49084, Note_on_c, 0, 72, 76
1, 49084, Note_on_c, 0, 43, 0
1, 49087, Note_on_c, 0, 31, 0
1, 49182, Note_on_c, 0, 72, 0
1, 49182, Note_on_c, 0, 71, 78
1, 49233, Control_c, 0, 64, 0
1, 49279, Note_on_c, 0, 71, 0
1, 49279, Note_on_c, 0, 63, 0
1, 49279, Note_on_c, 0, 66, 0
1, 49282, Note_on_c, 0, 69, 0
1, 49282, Note_on_c, 0, 66, 65
1, 49282, Note_on_c, 0, 60, 65
1, 49285, Note_on_c, 0, 63, 65
1, 49285, Note_on_c, 0, 72, 74
1, 49285, Note_on_c, 0, 31, 53
1, 49288, Note_on_c, 0, 43, 58
1, 49442, Note_on_c, 0, 72, 0
1, 49442, Note_on_c, 0, 66, 0
1, 49442, Note_on_c, 0, 60, 0
1, 49445, Note_on_c, 0, 63, 0
1, 49445, Note_on_c, 0, 43, 0
1, 49445, Note_on_c, 0, 31, 0
1, 49713, Note_on_c, 0, 59, 62
1, 49713, Note_on_c, 0, 62, 62
1, 49713, Note_on_c, 0, 67, 69
1, 49716, Note_on_c, 0, 31, 48
1, 49716, Note_on_c, 0, 43, 55
1, 49893, Note_on_c, 0, 67, 0
1, 49893, Note_on_c, 0, 62, 0
1, 49893, Note_on_c, 0, 59, 0
1, 49896, Note_on_c, 0, 43, 0
1, 49896, Note_on_c, 0, 31, 0
1, 50194, Note_on_c, 0, 60, 64
1, 50194, Note_on_c, 0, 48, 58
1, 50194, Control_c, 0, 64, 127
1, 50197, Note_on_c, 0, 32, 46
1, 50197, Note_on_c, 0, 36, 46
1, 50197, Note_on_c, 0, 44, 51
1, 51088, Control_c, 0, 64, 0
1, 51092, Note_on_c, 0, 48, 0
1, 51092, Note_on_c, 0, 50, 47
1, 51092, Note_on_c, 0, 62, 52
1, 51217, Control_c, 0, 64, 127
1, 51841, Control_c, 0, 64, 0
1, 51991, Note_on_c, 0, 62, 0
1, 51991, Note_on_c, 0, 50, 0
1, 51991, Note_on_c, 0, 60, 0
1, 51994, Note_on_c, 0, 63, 39
1, 51994, Note_on_c, 0, 72, 44
1, 51994, Note_on_c, 0, 75, 44
1, 51997, Note_on_c, 0, 44, 0
1, 51997, Note_on_c, 0, 36, 0
1, 51997, Note_on_c, 0, 32, 0
1, 52000, Note_on_c, 0, 60, 35
1, 52000, Note_on_c, 0, 56, 35
1, 52000, Note_on_c, 0, 51, 30
1, 52316, Control_c, 0, 64, 127
1, 53589, Control_c, 0, 64, 0
1, 53788, Note_on_c, 0, 75, 0
1, 53788, Note_on_c, 0, 72, 0
1, 53788, Note_on_c, 0, 63, 0
1, 53791, Note_on_c, 0, 60, 45
1, 53791, Control_c, 0, 91, 60
1, 53791, Note_on_c, 0, 51, 37
1, 53794, Note_on_c, 0, 51, 0
1, 53794, Note_on_c, 0, 56, 0
1, 53794, Note_on_c, 0, 60, 0
1, 53797, Control_c, 0, 64, 127
1, 53797, Note_on_c, 0, 36, 27
1, 53797, Note_on_c, 0, 48, 33
1, 53800, Control_c, 0, 91, 60
1, 53929, Note_on_c, 0, 51, 0
1, 53929, Note_on_c, 0, 60, 0
1, 53929, Note_on_c, 0, 55, 41
1, 53932, Note_on_c, 0, 48, 0
1, 53932, Note_on_c, 0, 43, 33
1, 54070, Note_on_c, 0, 55, 0
1, 54070, Note_on_c, 0, 51, 35
1, 54070, Note_on_c, 0, 60, 41
1, 54073, Note_on_c, 0, 43, 0
1, 54073, Note_on_c, 0, 48, 33
1, 54211, Note_on_c, 0, 60, 0
1, 54211, Note_on_c, 0, 51, 0
1, 54211, Note_on_c, 0, 50, 33
1, 54214, Note_on_c, 0, 62, 39
1, 54214, Note_on_c, 0, 55, 33
1, 54214, Note_on_c, 0, 48, 0
1, 54217, Note_on_c, 0, 36, 0
1, 54217, Note_on_c, 0, 36, 25
1, 54217, Note_on_c, 0, 43, 30
1, 54254, Control_c, 0, 64, 0
1, 54634, Note_on_c, 0, 55, 0
1, 54634, Note_on_c, 0, 62, 0
1, 54634, Note_on_c, 0, 50, 0
1, 54637, Note_on_c, 0, 51, 37
1, 54637, Note_on_c, 0, 63, 45
1, 54637, Note_on_c, 0, 43, 0
1, 54640, Note_on_c, 0, 36, 0
1, 54640, Note_on_c, 0, 36, 27
1, 54640, Note_on_c, 0, 48, 33
1, 54658, Control_c, 0, 64, 127
1, 54775, Note_on_c, 0, 63, 0
1, 54775, Note_on_c, 0, 51, 0
1, 54775, Note_on_c, 0, 55, 41
1, 54778, Note_on_c, 0, 48, 0
1, 54778, Note_on_c, 0, 43, 33
1, 54916, Note_on_c, 0, 55, 0
1, 54916, Note_on_c, 0, 51, 35
1, 54916, Note_on_c, 0, 63, 41
1, 54919, Note_on_c, 0, 43, 0
1, 54919, Note_on_c, 0, 48, 33
1, 55057, Note_on_c, 0, 63, 0
1, 55057, Note_on_c, 0, 51, 0
1, 55057, Note_on_c, 0, 50, 34
1, 55060, Note_on_c, 0, 55, 34
1, 55060, Note_on_c, 0, 62, 40
1, 55060, Note_on_c, 0, 48, 0
1, 55063, Note_on_c, 0, 36, 0
1, 55063, Note_on_c, 0, 36, 25
1, 55063, Note_on_c, 0, 43, 30
1, 55075, Control_c, 0, 64, 0
1, 55480, Note_on_c, 0, 62, 0
1, 55480, Note_on_c, 0, 55, 0
1, 55480, Note_on_c, 0, 50, 0
1, 55483, Note_on_c, 0, 55, 40
1, 55483, Note_on_c, 0, 67, 48
1, 55483, Note_on_c, 0, 43, 0
1, 55486, Note_on_c, 0, 36, 0
1, 55486, Note_on_c, 0, 36, 29
1, 55486, Note_on_c, 0, 51, 35
1, 55492, Control_c, 0, 64, 127
1, 55621, Note_on_c, 0, 67, 0
1, 55621, Note_on_c, 0, 55, 0
1, 55621, Note_on_c, 0, 63, 44
1, 55624, Note_on_c, 0, 51, 0
1, 55624, Note_on_c, 0, 43, 35
1, 55762, Note_on_c, 0, 63, 0
1, 55762, Note_on_c, 0, 53, 37
1, 55762, Note_on_c, 0, 65, 44
1, 55765, Note_on_c, 0, 43, 0
1, 55765, Note_on_c, 0, 50, 35
1, 55902, Note_on_c, 0, 65, 0
1, 55902, Note_on_c, 0, 53, 0
1, 55902, Note_on_c, 0, 62, 46
1, 55905, Note_on_c, 0, 50, 0
1, 55905, Note_on_c, 0, 36, 0
1, 55905, Note_on_c, 0, 36, 29
1, 55908, Note_on_c, 0, 43, 35
1, 55921, Control_c, 0, 64, 0
1, 56325, Note_on_c, 0, 62, 0
1, 56325, Note_on_c, 0, 60, 44
1, 56325, Note_on_c, 0, 51, 37
1, 56328, Note_on_c, 0, 43, 0
1, 56328, Note_on_c, 0, 36, 0
1, 56328, Control_c, 0, 64, 127
1, 56331, Note_on_c, 0, 36, 27
1, 56331, Note_on_c, 0, 48, 33
1, 56466, Note_on_c, 0, 51, 0
1, 56466, Note_on_c, 0, 60, 0
1, 56466, Note_on_c, 0, 55, 41
1, 56469, Note_on_c, 0, 48, 0
1, 56469, Note_on_c, 0, 43, 33
1, 56607, Note_on_c, 0, 55, 0
1, 56607, Note_on_c, 0, 49, 35
1, 56607, Note_on_c, 0, 61, 41
1, 56610, Note_on_c, 0, 43, 0
1, 56610, Note_on_c, 0, 46, 33
1, 56743, Control_c, 0, 64, 0
1, 56748, Note_on_c, 0, 61, 0
1, 56748, Note_on_c, 0, 49, 0
1, 56748, Note_on_c, 0, 58, 45
1, 56751, Note_on_c, 0, 46, 0
1, 56751, Note_on_c, 0, 36, 0
1, 56751, Note_on_c, 0, 43, 33
1, 56754, Note_on_c, 0, 36, 27
1, 57179, Note_on_c, 0, 58, 0
1, 57179, Note_on_c, 0, 60, 39
1, 57179, Note_on_c, 0, 72, 47
1, 57182, Note_on_c, 0, 36, 0
1, 57182, Note_on_c, 0, 43, 0
1, 57182, Note_on_c, 0, 36, 35
1, 57186, Note_on_c, 0, 44, 35
1, 57197, Control_c, 0, 64, 127
1, 57320, Note_on_c, 0, 72, 0
1, 57320, Note_on_c, 0, 60, 0
1, 57320, Note_on_c, 0, 68, 45
1, 57323, Note_on_c, 0, 48, 35
1, 57327, Note_on_c, 0, 44, 0
1, 57461, Note_on_c, 0, 68, 0
1, 57461, Note_on_c, 0, 58, 37
1, 57461, Note_on_c, 0, 70, 44
1, 57464, Note_on_c, 0, 48, 0
1, 57464, Note_on_c, 0, 36, 0
1, 57464, Note_on_c, 0, 43, 33
1, 57467, Note_on_c, 0, 36, 33
1, 57471, Control_c, 0, 64, 0
1, 57598, Note_on_c, 0, 67, 41
1, 57598, Note_on_c, 0, 46, 31
1, 57602, Note_on_c, 0, 70, 0
1, 57602, Note_on_c, 0, 58, 0
1, 57602, Note_on_c, 0, 43, 0
1, 58021, Note_on_c, 0, 67, 0
1, 58021, Note_on_c, 0, 46, 0
1, 58025, Note_on_c, 0, 60, 39
1, 58025, Note_on_c, 0, 72, 47
1, 58025, Note_on_c, 0, 36, 0
1, 58028, Control_c, 0, 64, 127
1, 58028, Note_on_c, 0, 36, 31
1, 58028, Note_on_c, 0, 44, 38
1, 58166, Note_on_c, 0, 72, 0
1, 58166, Note_on_c, 0, 60, 0
1, 58166, Note_on_c, 0, 68, 44
1, 58169, Note_on_c, 0, 44, 0
1, 58169, Note_on_c, 0, 48, 35
1, 58292, Control_c, 0, 64, 0
1, 58306, Note_on_c, 0, 68, 0
1, 58306, Note_on_c, 0, 58, 38
1, 58306, Note_on_c, 0, 70, 46
1, 58309, Note_on_c, 0, 48, 0
1, 58309, Note_on_c, 0, 36, 0
1, 58309, Note_on_c, 0, 36, 29
1, 58312, Note_on_c, 0, 43, 35
1, 58354, Control_c, 0, 64, 127
1, 58447, Note_on_c, 0, 70, 0
1, 58447, Note_on_c, 0, 58, 0
1, 58447, Note_on_c, 0, 67, 44
1, 58450, Note_on_c, 0, 43, 0
1, 58450, Note_on_c, 0, 46, 34
1, 58588, Note_on_c, 0, 67, 0
1, 58588, Note_on_c, 0, 56, 37
1, 58588, Note_on_c, 0, 68, 45
1, 58591, Note_on_c, 0, 46, 0
1, 58591, Note_on_c, 0, 36, 0
1, 58591, Note_on_c, 0, 36, 26
1, 58594, Note_on_c, 0, 41, 35
1, 58594, Control_c, 0, 64, 0
1, 58647, Control_c, 0, 64, 127
1, 58729, Note_on_c, 0, 68, 0
1, 58729, Note_on_c, 0, 56, 0
1, 58729, Note_on_c, 0, 65, 41
1, 58732, Note_on_c, 0, 41, 0
1, 58732, Note_on_c, 0, 44, 31
1, 58870, Note_on_c, 0, 65, 0
1, 58870, Note_on_c, 0, 54, 37
1, 58870, Note_on_c, 0, 66, 44
1, 58873, Note_on_c, 0, 44, 0
1, 58873, Note_on_c, 0, 36, 0
1, 58873, Control_c, 0, 64, 0
1, 58876, Note_on_c, 0, 36, 29
1, 58876, Note_on_c, 0, 39, 35
1, 58921, Control_c, 0, 64, 127
1, 59011, Note_on_c, 0, 66, 0
1, 59011, Note_on_c, 0, 54, 0
1, 59011, Note_on_c, 0, 63, 41
1, 59014, Note_on_c, 0, 44, 33
1, 59014, Note_on_c, 0, 39, 0
1, 59152, Note_on_c, 0, 63, 0
1, 59152, Note_on_c, 0, 66, 41
1, 59152, Note_on_c, 0, 54, 35
1, 59155, Note_on_c, 0, 44, 0
1, 59155, Note_on_c, 0, 39, 33
1, 59263, Control_c, 0, 64, 0
1, 59293, Note_on_c, 0, 54, 0
1, 59293, Note_on_c, 0, 66, 0
1, 59293, Note_on_c, 0, 55, 37
1, 59296, Note_on_c, 0, 62, 37
1, 59296, Note_on_c, 0, 67, 44
1, 59296, Note_on_c, 0, 36, 0
1, 59299, Note_on_c, 0, 31, 29
1, 59299, Note_on_c, 0, 43, 35
1, 59299, Note_on_c, 0, 39, 0
1, 59716, Note_on_c, 0, 67, 0
1, 59716, Note_on_c, 0, 62, 0
1, 59716, Note_on_c, 0, 55, 0
1, 59719, Note_on_c, 0, 69, 44
1, 59719, Note_on_c, 0, 43, 0
1, 59719, Note_on_c, 0, 31, 0
1, 59722, Note_on_c, 0, 36, 29
1, 59722, Note_on_c, 0, 39, 35
1, 59722, Note_on_c, 0, 57, 37
1, 59726, Control_c, 0, 64, 127
1, 59857, Note_on_c, 0, 69, 0
1, 59857, Note_on_c, 0, 63, 42
1, 59857, Note_on_c, 0, 39, 0
1, 59860, Note_on_c, 0, 45, 34
1, 59860, Note_on_c, 0, 57, 0
1, 59998, Note_on_c, 0, 63, 0
1, 59998, Note_on_c, 0, 69, 42
1, 59998, Note_on_c, 0, 45, 0
1, 60001, Note_on_c, 0, 39, 34
1, 60001, Note_on_c, 0, 57, 36
1, 60104, Control_c, 0, 64, 0
1, 60139, Note_on_c, 0, 69, 0
1, 60139, Note_on_c, 0, 55, 37
1, 60139, Note_on_c, 0, 62, 37
1, 60142, Note_on_c, 0, 67, 44
1, 60142, Note_on_c, 0, 39, 0
1, 60142, Note_on_c, 0, 36, 0
1, 60145, Note_on_c, 0, 31, 29
1, 60145, Note_on_c, 0, 43, 35
1, 60145, Note_on_c, 0, 57, 0
1, 60571, Note_on_c, 0, 55, 0
1, 60571, Note_on_c, 0, 62, 0
1, 60571, Note_on_c, 0, 67, 0
1, 60574, Note_on_c, 0, 60, 52
1, 60574, Note_on_c, 0, 72, 52
1, 60574, Note_on_c, 0, 43, 0
1, 60577, Note_on_c, 0, 31, 0
1, 60577, Note_on_c, 0, 52, 41
1, 60577, Note_on_c, 0, 36, 41
1, 60591, Control_c, 0, 64, 127
1, 60711, Note_on_c, 0, 72, 0
1, 60711, Note_on_c, 0, 60, 0
1, 60711, Note_on_c, 0, 67, 48
1, 60714, Note_on_c, 0, 52, 0
1, 60714, Note_on_c, 0, 43, 38
1, 60852, Note_on_c, 0, 67, 0
1, 60852, Note_on_c, 0, 60, 48
1, 60852, Note_on_c, 0, 72, 48
1, 60855, Note_on_c, 0, 43, 0
1, 60855, Note_on_c, 0, 52, 38
1, 60993, Note_on_c, 0, 72, 0
1, 60993, Note_on_c, 0, 60, 0
1, 60993, Note_on_c, 0, 62, 48
1, 60996, Note_on_c, 0, 67, 48
1, 60996, Note_on_c, 0, 74, 48
1, 60996, Note_on_c, 0, 52, 0
1, 60999, Note_on_c, 0, 36, 0
1, 60999, Note_on_c, 0, 50, 37
1, 60999, Note_on_c, 0, 55, 37
1, 61002, Note_on_c, 0, 43, 37
1, 61002, Note_on_c, 0, 48, 37
1, 61014, Control_c, 0, 64, 0
1, 61416, Note_on_c, 0, 74, 0
1, 61416, Note_on_c, 0, 67, 0
1, 61416, Note_on_c, 0, 62, 0
1, 61419, Note_on_c, 0, 76, 61
1, 61419, Note_on_c, 0, 64, 61
1, 61419, Note_on_c, 0, 48, 0
1, 61422, Note_on_c, 0, 50, 0
1, 61422, Note_on_c, 0, 55, 0
1, 61422, Note_on_c, 0, 43, 0
1, 61425, Control_c, 0, 64, 127
1, 61425, Note_on_c, 0, 36, 48
1, 61425, Note_on_c, 0, 48, 48
1, 61557, Note_on_c, 0, 64, 0
1, 61557, Note_on_c, 0, 76, 0
1, 61557, Note_on_c, 0, 67, 57
1, 61560, Note_on_c, 0, 48, 0
1, 61560, Note_on_c, 0, 43, 44
1, 61698, Note_on_c, 0, 67, 0
1, 61698, Note_on_c, 0, 64, 56
1, 61698, Note_on_c, 0, 76, 56
1, 61701, Note_on_c, 0, 43, 0
1, 61701, Note_on_c, 0, 48, 44
1, 61839, Note_on_c, 0, 76, 0
1, 61839, Note_on_c, 0, 64, 0
1, 61839, Note_on_c, 0, 74, 61
1, 61842, Note_on_c, 0, 67, 61
1, 61842, Note_on_c, 0, 62, 61
1, 61842, Note_on_c, 0, 48, 0
1, 61845, Note_on_c, 0, 36, 0
1, 61845, Note_on_c, 0, 55, 39
1, 61845, Note_on_c, 0, 50, 39
1, 61848, Note_on_c, 0, 48, 39
1, 61848, Note_on_c, 0, 43, 39
1, 61848, Control_c, 0, 64, 0
1, 62262, Note_on_c, 0, 62, 0
1, 62262, Note_on_c, 0, 67, 0
1, 62262, Note_on_c, 0, 74, 0
1, 62265, Note_on_c, 0, 79, 66
1, 62265, Note_on_c, 0, 67, 66
1, 62265, Note_on_c, 0, 43, 0
1, 62268, Note_on_c, 0, 55, 0
1, 62268, Note_on_c, 0, 50, 0
1, 62268, Note_on_c, 0, 48, 0
1, 62271, Control_c, 0, 64, 127
1, 62271, Note_on_c, 0, 36, 52
1, 62271, Note_on_c, 0, 52, 52
1, 62401, Note_on_c, 0, 67, 0
1, 62401, Note_on_c, 0, 79, 0
1, 62401, Note_on_c, 0, 76, 61
1, 62404, Note_on_c, 0, 52, 0
1, 62404, Note_on_c, 0, 43, 48
1, 62540, Note_on_c, 0, 76, 0
1, 62540, Note_on_c, 0, 65, 61
1, 62540, Note_on_c, 0, 77, 61
1, 62543, Note_on_c, 0, 43, 0
1, 62543, Note_on_c, 0, 50, 48
1, 62680, Note_on_c, 0, 77, 0
1, 62680, Note_on_c, 0, 65, 0
1, 62680, Note_on_c, 0, 62, 60
1, 62683, Note_on_c, 0, 74, 60
1, 62683, Note_on_c, 0, 67, 60
1, 62683, Note_on_c, 0, 50, 0
1, 62686, Note_on_c, 0, 36, 0
1, 62686, Note_on_c, 0, 43, 46
1, 62686, Note_on_c, 0, 48, 46
1, 62689, Note_on_c, 0, 50, 46
1, 62689, Note_on_c, 0, 55, 46
1, 62700, Control_c, 0, 64, 0
1, 63097, Note_on_c, 0, 67, 0
1, 63097, Note_on_c, 0, 74, 0
1, 63097, Note_on_c, 0, 62, 0
1, 63100, Note_on_c, 0, 64, 78
1, 63100, Note_on_c, 0, 76, 78
1, 63100, Note_on_c, 0, 55, 0
1, 63103, Note_on_c, 0, 43, 0
1, 63103, Note_on_c, 0, 48, 0
1, 63103, Note_on_c, 0, 50, 0
1, 63106, Note_on_c, 0, 36, 54
1, 63106, Control_c, 0, 64, 127
1, 63106, Note_on_c, 0, 48, 60
1, 63236, Note_on_c, 0, 76, 0
1, 63236, Note_on_c, 0, 64, 0
1, 63236, Note_on_c, 0, 72, 71
1, 63239, Note_on_c, 0, 48, 0
1, 63239, Note_on_c, 0, 43, 53
1, 63375, Note_on_c, 0, 72, 0
1, 63375, Note_on_c, 0, 62, 71
1, 63375, Note_on_c, 0, 74, 71
1, 63378, Note_on_c, 0, 43, 0
1, 63378, Note_on_c, 0, 46, 53
1, 63514, Note_on_c, 0, 74, 0
1, 63514, Note_on_c, 0, 62, 0
1, 63514, Note_on_c, 0, 70, 71
1, 63517, Note_on_c, 0, 64, 71
1, 63517, Note_on_c, 0, 58, 71
1, 63517, Note_on_c, 0, 46, 0
1, 63520, Note_on_c, 0, 36, 0
1, 63520, Note_on_c, 0, 55, 53
1, 63520, Note_on_c, 0, 48, 53
1, 63523, Note_on_c, 0, 43, 53
1, 63529, Control_c, 0, 64, 0
1, 63947, Note_on_c, 0, 58, 0
1, 63947, Note_on_c, 0, 64, 0
1, 63947, Note_on_c, 0, 70, 0
1, 63950, Note_on_c, 0, 84, 90
1, 63950, Note_on_c, 0, 72, 76
1, 63950, Note_on_c, 0, 43, 0
1, 63953, Note_on_c, 0, 48, 0
1, 63953, Note_on_c, 0, 55, 0
1, 63953, Control_c, 0, 64, 127
1, 63956, Note_on_c, 0, 36, 56
1, 63956, Note_on_c, 0, 41, 56
1, 63956, Note_on_c, 0, 45, 66
1, 64084, Note_on_c, 0, 72, 0
1, 64084, Note_on_c, 0, 84, 0
1, 64084, Note_on_c, 0, 77, 67
1, 64087, Note_on_c, 0, 81, 79
1, 64087, Note_on_c, 0, 45, 0
1, 64087, Note_on_c, 0, 41, 0
1, 64090, Note_on_c, 0, 36, 0
1, 64090, Note_on_c, 0, 48, 52
1, 64152, Note_on_c, 0, 81, 0
1, 64152, Note_on_c, 0, 77, 0
1, 64152, Note_on_c, 0, 48, 0
1, 64221, Note_on_c, 0, 72, 67
1, 64221, Note_on_c, 0, 84, 79
1, 64221, Note_on_c, 0, 55, 56
1, 64224, Note_on_c, 0, 48, 47
1, 64224, Note_on_c, 0, 52, 47
1, 64331, Note_on_c, 0, 84, 0
1, 64331, Note_on_c, 0, 72, 0
1, 64368, Note_on_c, 0, 76, 68
1, 64368, Note_on_c, 0, 79, 80
1, 64368, Note_on_c, 0, 60, 64
1, 64373, Control_c, 0, 64, 0
1, 64784, Note_on_c, 0, 79, 0
1, 64784, Note_on_c, 0, 76, 0
1, 64784, Note_on_c, 0, 69, 74
1, 64787, Note_on_c, 0, 81, 88
1, 64787, Note_on_c, 0, 60, 0
1, 64787, Note_on_c, 0, 55, 0
1, 64790, Note_on_c, 0, 48, 0
1, 64790, Note_on_c, 0, 52, 0
1, 64790, Control_c, 0, 64, 127
1, 64793, Note_on_c, 0, 38, 56
1, 64793, Note_on_c, 0, 41, 56
1, 64793, Note_on_c, 0, 45, 66
1, 64920, Note_on_c, 0, 81, 0
1, 64920, Note_on_c, 0, 69, 0
1, 64920, Note_on_c, 0, 74, 67
1, 64923, Note_on_c, 0, 77, 79
1, 64923, Note_on_c, 0, 45, 0
1, 64923, Note_on_c, 0, 41, 0
1, 64926, Note_on_c, 0, 38, 0
1, 64926, Note_on_c, 0, 50, 62
1, 64989, Note_on_c, 0, 77, 0
1, 64989, Note_on_c, 0, 74, 0
1, 64989, Note_on_c, 0, 50, 0
1, 65057, Note_on_c, 0, 69, 67
1, 65057, Note_on_c, 0, 81, 79
1, 65057, Note_on_c, 0, 45, 47
1, 65060, Note_on_c, 0, 48, 47
1, 65060, Note_on_c, 0, 52, 56
1, 65130, Note_on_c, 0, 81, 0
1, 65130, Note_on_c, 0, 69, 0
1, 65203, Note_on_c, 0, 72, 68
1, 65203, Note_on_c, 0, 76, 80
1, 65203, Control_c, 0, 64, 0
1, 65206, Note_on_c, 0, 57, 63
1, 65619, Note_on_c, 0, 76, 0
1, 65619, Note_on_c, 0, 72, 0
1, 65619, Note_on_c, 0, 79, 86
1, 65622, Note_on_c, 0, 67, 73
1, 65622, Note_on_c, 0, 57, 0
1, 65622, Note_on_c, 0, 45, 0
1, 65625, Note_on_c, 0, 48, 0
1, 65625, Note_on_c, 0, 52, 0
1, 65625, Note_on_c, 0, 31, 67
1, 65629, Control_c, 0, 64, 127
1, 65755, Note_on_c, 0, 67, 0
1, 65755, Note_on_c, 0, 79, 0
1, 65755, Note_on_c, 0, 72, 58
1, 65758, Note_on_c, 0, 76, 69
1, 65758, Note_on_c, 0, 31, 0
1, 65758, Note_on_c, 0, 43, 52
1, 65892, Note_on_c, 0, 76, 0
1, 65892, Note_on_c, 0, 72, 0
1, 65892, Note_on_c, 0, 67, 72
1, 65895, Note_on_c, 0, 79, 85
1, 65895, Note_on_c, 0, 43, 0
1, 65895, Note_on_c, 0, 52, 64
1, 65898, Note_on_c, 0, 48, 54
1, 65912, Control_c, 0, 64, 0
1, 65941, Control_c, 0, 64, 127
1, 66031, Note_on_c, 0, 79, 0
1, 66031, Note_on_c, 0, 67, 0
1, 66031, Note_on_c, 0, 77, 66
1, 66034, Note_on_c, 0, 74, 56
1, 66034, Note_on_c, 0, 48, 0
1, 66034, Note_on_c, 0, 52, 0
1, 66037, Note_on_c, 0, 43, 42
1, 66037, Note_on_c, 0, 55, 50
1, 66167, Note_on_c, 0, 74, 0
1, 66167, Note_on_c, 0, 77, 0
1, 66167, Note_on_c, 0, 79, 79
1, 66170, Note_on_c, 0, 67, 67
1, 66170, Note_on_c, 0, 55, 0
1, 66170, Note_on_c, 0, 43, 0
1, 66173, Note_on_c, 0, 50, 52
1, 66173, Note_on_c, 0, 53, 62
1, 66181, Control_c, 0, 64, 0
1, 66204, Control_c, 0, 64, 127
1, 66296, Note_on_c, 0, 67, 0
1, 66296, Note_on_c, 0, 79, 0
1, 66296, Note_on_c, 0, 72, 51
1, 66299, Note_on_c, 0, 76, 61
1, 66299, Note_on_c, 0, 53, 0
1, 66299, Note_on_c, 0, 50, 0
1, 66302, Note_on_c, 0, 43, 40
1, 66302, Note_on_c, 0, 55, 48
1, 66426, Note_on_c, 0, 76, 0
1, 66426, Note_on_c, 0, 72, 0
1, 66426, Note_on_c, 0, 67, 72
1, 66429, Note_on_c, 0, 79, 85
1, 66429, Note_on_c, 0, 55, 0
1, 66429, Note_on_c, 0, 43, 0
1, 66432, Control_c, 0, 64, 0
1, 66432, Note_on_c, 0, 48, 57
1, 66432, Note_on_c, 0, 52, 68
1, 66473, Control_c, 0, 64, 127
1, 66558, Note_on_c, 0, 79, 0
1, 66558, Note_on_c, 0, 67, 0
1, 66558, Note_on_c, 0, 69, 56
1, 66561, Note_on_c, 0, 72, 67
1, 66561, Note_on_c, 0, 52, 0
1, 66561, Note_on_c, 0, 48, 0
1, 66564, Note_on_c, 0, 43, 44
1, 66564, Note_on_c, 0, 55, 52
1, 66690, Note_on_c, 0, 72, 0
1, 66690, Note_on_c, 0, 69, 0
1, 66690, Note_on_c, 0, 67, 67
1, 66693, Note_on_c, 0, 79, 79
1, 66693, Note_on_c, 0, 55, 0
1, 66693, Note_on_c, 0, 43, 0
1, 66696, Note_on_c, 0, 45, 52
1, 66696, Note_on_c, 0, 48, 62
1, 66789, Control_c, 0, 64, 0
1, 66822, Note_on_c, 0, 79, 0
1, 66822, Note_on_c, 0, 67, 0
1, 66822, Note_on_c, 0, 67, 62
1, 66825, Note_on_c, 0, 71, 62
1, 66825, Note_on_c, 0, 79, 74
1, 66825, Note_on_c, 0, 74, 62
1, 66828, Note_on_c, 0, 48, 0
1, 66828, Note_on_c, 0, 45, 0
1, 66828, Note_on_c, 0, 43, 49
1, 66831, Note_on_c, 0, 47, 49
1, 66831, Note_on_c, 0, 50, 58
1, 66831, Note_on_c, 0, 55, 58
1, 67259, Note_on_c, 0, 74, 0
1, 67259, Note_on_c, 0, 67, 0
1, 67259, Note_on_c, 0, 71, 0
1, 67262, Note_on_c, 0, 79, 0
1, 67262, Note_on_c, 0, 72, 75
1, 67262, Note_on_c, 0, 84, 89
1, 67265, Note_on_c, 0, 55, 0
1, 67265, Note_on_c, 0, 43, 0
1, 67265, Note_on_c, 0, 47, 0
1, 67268, Note_on_c, 0, 50, 0
1, 67268, Note_on_c, 0, 36, 62
1, 67288, Control_c, 0, 64, 127
1, 67395, Note_on_c, 0, 84, 0
1, 67395, Note_on_c, 0, 72, 0
1, 67395, Note_on_c, 0, 79, 59
1, 67398, Note_on_c, 0, 83, 70
1, 67398, Note_on_c, 0, 36, 0
1, 67398, Note_on_c, 0, 48, 58
1, 67532, Note_on_c, 0, 83, 0
1, 67532, Note_on_c, 0, 79, 0
1, 67532, Note_on_c, 0, 72, 67
1, 67535, Note_on_c, 0, 84, 79
1, 67535, Note_on_c, 0, 48, 0
1, 67535, Note_on_c, 0, 57, 57
1, 67538, Note_on_c, 0, 53, 48
1, 67538, Control_c, 0, 64, 0
1, 67556, Control_c, 0, 64, 127
1, 67663, Note_on_c, 0, 84, 0
1, 67663, Note_on_c, 0, 72, 0
1, 67663, Note_on_c, 0, 77, 52
1, 67666, Note_on_c, 0, 81, 62
1, 67666, Note_on_c, 0, 48, 44
1, 67666, Note_on_c, 0, 60, 52
1, 67794, Note_on_c, 0, 81, 0
1, 67794, Note_on_c, 0, 77, 0
1, 67794, Note_on_c, 0, 84, 78
1, 67797, Note_on_c, 0, 72, 66
1, 67804, Control_c, 0, 64, 0
1, 67816, Control_c, 0, 64, 127
1, 67924, Note_on_c, 0, 72, 0
1, 67924, Note_on_c, 0, 84, 0
1, 67924, Note_on_c, 0, 76, 52
1, 67927, Note_on_c, 0, 79, 62
1, 67927, Note_on_c, 0, 53, 0
1, 67927, Note_on_c, 0, 57, 0
1, 67930, Note_on_c, 0, 52, 51
1, 67930, Note_on_c, 0, 55, 51
1, 68055, Note_on_c, 0, 79, 0
1, 68055, Note_on_c, 0, 76, 0
1, 68055, Note_on_c, 0, 69, 72
1, 68058, Note_on_c, 0, 81, 85
1, 68058, Note_on_c, 0, 55, 0
1, 68058, Note_on_c, 0, 60, 0
1, 68061, Note_on_c, 0, 48, 0
1, 68061, Note_on_c, 0, 52, 0
1, 68061, Control_c, 0, 64, 0
1, 68064, Note_on_c, 0, 33, 58
1, 68096, Control_c, 0, 64, 127
1, 68189, Note_on_c, 0, 81, 0
1, 68189, Note_on_c, 0, 69, 0
1, 68189, Note_on_c, 0, 79, 70
1, 68192, Note_on_c, 0, 76, 59
1, 68192, Note_on_c, 0, 33, 0
1, 68192, Note_on_c, 0, 45, 58
1, 68323, Note_on_c, 0, 76, 0
1, 68323, Note_on_c, 0, 79, 0
1, 68323, Note_on_c, 0, 81, 79
1, 68326, Note_on_c, 0, 69, 67
1, 68326, Note_on_c, 0, 45, 0
1, 68326, Note_on_c, 0, 53, 58
1, 68329, Note_on_c, 0, 50, 49
1, 68345, Control_c, 0, 64, 0
1, 68375, Control_c, 0, 64, 127
1, 68460, Note_on_c, 0, 69, 0
1, 68460, Note_on_c, 0, 81, 0
1, 68460, Note_on_c, 0, 74, 53
1, 68463, Note_on_c, 0, 77, 63
1, 68463, Note_on_c, 0, 45, 44
1, 68463, Note_on_c, 0, 57, 52
1, 68591, Note_on_c, 0, 77, 0
1, 68591, Note_on_c, 0, 74, 0
1, 68591, Note_on_c, 0, 69, 68
1, 68594, Note_on_c, 0, 81, 80
1, 68625, Control_c, 0, 64, 0
1, 68646, Control_c, 0, 64, 127
1, 68723, Note_on_c, 0, 81, 0
1, 68723, Note_on_c, 0, 69, 0
1, 68723, Note_on_c, 0, 76, 61
1, 68726, Note_on_c, 0, 72, 51
1, 68726, Note_on_c, 0, 50, 0
1, 68726, Note_on_c, 0, 53, 0
1, 68729, Note_on_c, 0, 48, 49
1, 68729, Note_on_c, 0, 52, 49
1, 68855, Note_on_c, 0, 72, 0
1, 68855, Note_on_c, 0, 76, 0
1, 68855, Note_on_c, 0, 67, 74
1, 68858, Note_on_c, 0, 79, 88
1, 68858, Note_on_c, 0, 52, 0
1, 68858, Note_on_c, 0, 57, 0
1, 68861, Note_on_c, 0, 45, 0
1, 68861, Note_on_c, 0, 48, 0
1, 68861, Control_c, 0, 64, 0
1, 68864, Note_on_c, 0, 31, 58
1, 68908, Control_c, 0, 64, 127
1, 68989, Note_on_c, 0, 79, 0
1, 68989, Note_on_c, 0, 67, 0
1, 68989, Note_on_c, 0, 74, 59
1, 68992, Note_on_c, 0, 77, 70
1, 68992, Note_on_c, 0, 31, 0
1, 68992, Note_on_c, 0, 43, 52
1, 69126, Note_on_c, 0, 77, 0
1, 69126, Note_on_c, 0, 74, 0
1, 69126, Note_on_c, 0, 79, 85
1, 69129, Note_on_c, 0, 67, 72
1, 69129, Note_on_c, 0, 43, 0
1, 69129, Note_on_c, 0, 52, 59
1, 69132, Note_on_c, 0, 48, 50
1, 69135, Control_c, 0, 64, 0
1, 69160, Control_c, 0, 64, 127
1, 69264, Note_on_c, 0, 67, 0
1, 69264, Note_on_c, 0, 79, 0
1, 69264, Note_on_c, 0, 72, 56
1, 69267, Note_on_c, 0, 76, 66
1, 69267, Note_on_c, 0, 48, 0
1, 69267, Note_on_c, 0, 52, 0
1, 69270, Note_on_c, 0, 43, 52
1, 69270, Note_on_c, 0, 55, 52
1, 69405, Note_on_c, 0, 76, 0
1, 69405, Note_on_c, 0, 72, 0
1, 69405, Note_on_c, 0, 67, 70
1, 69408, Note_on_c, 0, 79, 83
1, 69408, Note_on_c, 0, 55, 0
1, 69408, Note_on_c, 0, 43, 0
1, 69411, Note_on_c, 0, 45, 59
1, 69411, Note_on_c, 0, 48, 59
1, 69415, Control_c, 0, 64, 0
1, 69461, Control_c, 0, 64, 127
1, 69548, Note_on_c, 0, 79, 0
1, 69548, Note_on_c, 0, 67, 0
1, 69548, Note_on_c, 0, 69, 56
1, 69551, Note_on_c, 0, 72, 66
1, 69551, Note_on_c, 0, 48, 0
1, 69551, Note_on_c, 0, 45, 0
1, 69554, Note_on_c, 0, 43, 51
1, 69554, Note_on_c, 0, 55, 51
1, 69702, Note_on_c, 0, 72, 0
1, 69702, Note_on_c, 0, 69, 0
1, 69702, Note_on_c, 0, 79, 82
1, 69705, Note_on_c, 0, 67, 69
1, 69705, Note_on_c, 0, 71, 69
1, 69705, Note_on_c, 0, 74, 69
1, 69708, Note_on_c, 0, 55, 0
1, 69708, Note_on_c, 0, 43, 0
1, 69708, Control_c, 0, 64, 0
1, 69711, Note_on_c, 0, 31, 37
1, 69711, Note_on_c, 0, 35, 37
1, 69711, Note_on_c, 0, 38, 44
1, 69714, Note_on_c, 0, 43, 44
1, 70146, Note_on_c, 0, 74, 0
1, 70146, Note_on_c, 0, 79, 0
1, 70146, Note_on_c, 0, 67, 0
1, 70149, Note_on_c, 0, 71, 0
1, 70149, Note_on_c, 0, 60, 73
1, 70149, Note_on_c, 0, 72, 84
1, 70152, Note_on_c, 0, 43, 0
1, 70152, Note_on_c, 0, 31, 0
1, 70152, Note_on_c, 0, 35, 0
1, 70155, Note_on_c, 0, 38, 0
1, 70155, Note_on_c, 0, 36, 50
1, 70155, Note_on_c, 0, 48, 59
1, 70327, Note_on_c, 0, 48, 0
1, 70327, Note_on_c, 0, 36, 0
1, 70387, Note_on_c, 0, 72, 0
1, 70387, Note_on_c, 0, 60, 0
1, 70387, Note_on_c, 0, 34, 50
1, 70390, Note_on_c, 0, 46, 59
1, 70587, Note_on_c, 0, 46, 0
1, 70587, Note_on_c, 0, 34, 0
1, 70654, Note_on_c, 0, 48, 70
1, 70654, Note_on_c, 0, 60, 79
1, 70654, Control_c, 0, 64, 127
1, 70657, Note_on_c, 0, 32, 53
1, 70657, Note_on_c, 0, 36, 53
1, 70657, Note_on_c, 0, 44, 60
1, 71595, Note_on_c, 0, 48, 0
1, 71595, Note_on_c, 0, 62, 61
1, 71595, Note_on_c, 0, 50, 55
1, 71598, Control_c, 0, 64, 0
1, 71909, Control_c, 0, 64, 127
1, 72536, Note_on_c, 0, 50, 0
1, 72536, Note_on_c, 0, 62, 0
1, 72536, Note_on_c, 0, 60, 0
1, 72539, Note_on_c, 0, 72, 48
1, 72539, Note_on_c, 0, 63, 42
1, 72539, Note_on_c, 0, 75, 48
1, 72542, Note_on_c, 0, 44, 0
1, 72542, Note_on_c, 0, 36, 0
1, 72542, Note_on_c, 0, 32, 0
1, 72545, Control_c, 0, 64, 0
1, 72545, Note_on_c, 0, 51, 34
1, 72545, Note_on_c, 0, 56, 38
1, 72548, Note_on_c, 0, 60, 38
1, 72850, Control_c, 0, 64, 127
1, 74104, Control_c, 0, 64, 0
1, 74418, Note_on_c, 0, 75, 0
1, 74418, Note_on_c, 0, 63, 0
1, 74418, Note_on_c, 0, 72, 0
1, 74421, Note_on_c, 0, 48, 41
1, 74421, Note_on_c, 0, 60, 47
1, 74421, Note_on_c, 0, 60, 0
1, 74424, Note_on_c, 0, 56, 0
1, 74424, Note_on_c, 0, 51, 0
1, 74424, Note_on_c, 0, 32, 29
1, 74427, Note_on_c, 0, 36, 29
1, 74427, Note_on_c, 0, 44, 33
1, 74515, Control_c, 0, 64, 127
1, 74852, Note_on_c, 0, 48, 0
1, 74852, Note_on_c, 0, 62, 49
1, 74852, Note_on_c, 0, 50, 44
1, 74855, Control_c, 0, 64, 0
1, 75021, Control_c, 0, 64, 127
1, 75166, Control_c, 0, 64, 0
1, 75286, Note_on_c, 0, 50, 0
1, 75286, Note_on_c, 0, 62, 0
1, 75286, Note_on_c, 0, 60, 0
1, 75289, Note_on_c, 0, 77, 52
1, 75289, Note_on_c, 0, 65, 47
1, 75289, Note_on_c, 0, 72, 52
1, 75292, Note_on_c, 0, 44, 0
1, 75292, Note_on_c, 0, 36, 0
1, 75292, Note_on_c, 0, 32, 0
1, 75295, Note_on_c, 0, 48, 37
1, 75295, Note_on_c, 0, 44, 37
1, 75295, Note_on_c, 0, 53, 37
1, 75348, Control_c, 0, 64, 127
1, 75596, Control_c, 0, 64, 0
1, 75720, Note_on_c, 0, 65, 0
1, 75720, Note_on_c, 0, 77, 0
1, 75720, Note_on_c, 0, 64, 45
1, 75723, Note_on_c, 0, 76, 50
1, 75723, Note_on_c, 0, 53, 0
1, 75723, Note_on_c, 0, 52, 35
1, 75904, Control_c, 0, 64, 127
1, 76065, Control_c, 0, 64, 0
1, 76203, Note_on_c, 0, 76, 0
1, 76203, Note_on_c, 0, 64, 0
1, 76203, Note_on_c, 0, 72, 0
1, 76206, Note_on_c, 0, 75, 37
1, 76206, Note_on_c, 0, 87, 41
1, 76206, Note_on_c, 0, 84, 41
1, 76209, Note_on_c, 0, 52, 0
1, 76209, Note_on_c, 0, 44, 0
1, 76209, Note_on_c, 0, 48, 0
1, 76212, Note_on_c, 0, 63, 28
1, 76212, Note_on_c, 0, 60, 28
1, 76212, Note_on_c, 0, 56, 25
1, 76215, Note_on_c, 0, 51, 25
1, 76579, Control_c, 0, 64, 127
1, 77652, Control_c, 0, 64, 0
1, 78015, Note_on_c, 0, 60, 27
1, 78015, Note_on_c, 0, 32, 22
1, 78018, Control_c, 0, 64, 127
1, 78051, Note_on_c, 0, 63, 27
1, 78087, Note_on_c, 0, 68, 27
1, 78124, Note_on_c, 0, 84, 0
1, 78124, Note_on_c, 0, 75, 0
1, 78124, Note_on_c, 0, 87, 0
1, 78127, Control_c, 0, 91, 127
1, 78127, Note_on_c, 0, 72, 39
1, 78127, Note_on_c, 0, 51, 0
1, 78130, Note_on_c, 0, 56, 0
1, 78130, Note_on_c, 0, 63, 0
1, 78130, Note_on_c, 0, 60, 0
1, 78133, Note_on_c, 0, 44, 27
1, 78133, Control_c, 0, 91, 127
1, 78233, Note_on_c, 0, 44, 0
1, 78233, Note_on_c, 0, 32, 0
1, 78342, Note_on_c, 0, 72, 0
1, 78342, Note_on_c, 0, 68, 0
1, 78342, Note_on_c, 0, 63, 0
1, 78345, Note_on_c, 0, 60, 0
1, 78345, Note_on_c, 0, 73, 39
1, 78345, Note_on_c, 0, 48, 22
1, 78416, Control_c, 0, 64, 0
1, 78451, Note_on_c, 0, 73, 0
1, 78451, Note_on_c, 0, 60, 26
1, 78451, Note_on_c, 0, 48, 0
1, 78480, Note_on_c, 0, 63, 26
1, 78480, Control_c, 0, 64, 127
1, 78505, Note_on_c, 0, 44, 17
1, 78509, Note_on_c, 0, 68, 26
1, 78538, Note_on_c, 0, 72, 39
1, 78560, Note_on_c, 0, 56, 26
1, 78567, Note_on_c, 0, 74, 39
1, 78669, Note_on_c, 0, 56, 0
1, 78669, Note_on_c, 0, 44, 0
1, 78778, Note_on_c, 0, 74, 0
1, 78778, Note_on_c, 0, 68, 0
1, 78778, Note_on_c, 0, 60, 0
1, 78781, Note_on_c, 0, 63, 0
1, 78781, Note_on_c, 0, 72, 0
1, 78781, Note_on_c, 0, 75, 41
1, 78784, Note_on_c, 0, 60, 22
1, 78887, Note_on_c, 0, 75, 0
1, 78887, Note_on_c, 0, 68, 28
1, 78887, Note_on_c, 0, 60, 0
1, 78906, Control_c, 0, 64, 0
1, 78940, Note_on_c, 0, 80, 29
1, 78940, Note_on_c, 0, 56, 17
1, 78968, Control_c, 0, 64, 127
1, 78993, Note_on_c, 0, 84, 44
1, 78993, Note_on_c, 0, 68, 27
1, 79099, Note_on_c, 0, 84, 0
1, 79099, Note_on_c, 0, 68, 0
1, 79099, Note_on_c, 0, 68, 0
1, 79102, Note_on_c, 0, 56, 0
1, 79205, Note_on_c, 0, 80, 0
1, 79205, Note_on_c, 0, 79, 42
1, 79205, Note_on_c, 0, 60, 23
1, 79283, Control_c, 0, 64, 0
1, 79311, Note_on_c, 0, 79, 0
1, 79311, Note_on_c, 0, 68, 28
1, 79311, Note_on_c, 0, 60, 0
1, 79346, Note_on_c, 0, 80, 28
1, 79346, Control_c, 0, 64, 127
1, 79364, Note_on_c, 0, 44, 17
1, 79382, Note_on_c, 0, 77, 27
1, 79417, Note_on_c, 0, 84, 40
1, 79417, Note_on_c, 0, 56, 27
1, 79523, Note_on_c, 0, 84, 0
1, 79523, Note_on_c, 0, 68, 0
1, 79523, Note_on_c, 0, 80, 0
1, 79526, Note_on_c, 0, 56, 0
1, 79526, Note_on_c, 0, 44, 0
1, 79629, Note_on_c, 0, 77, 0
1, 79629, Note_on_c, 0, 76, 39
1, 79629, Note_on_c, 0, 48, 24
1, 79725, Control_c, 0, 64, 0
1, 79735, Note_on_c, 0, 76, 0
1, 79735, Note_on_c, 0, 68, 26
1, 79735, Note_on_c, 0, 48, 0
1, 79760, Control_c, 0, 64, 127
1, 79788, Note_on_c, 0, 80, 26
1, 79788, Note_on_c, 0, 32, 16
1, 79841, Note_on_c, 0, 84, 26
1, 79841, Note_on_c, 0, 75, 39
1, 79841, Note_on_c, 0, 44, 27
1, 79947, Note_on_c, 0, 84, 0
1, 79947, Note_on_c, 0, 68, 0
1, 79947, Note_on_c, 0, 80, 0
1, 79950, Note_on_c, 0, 44, 0
1, 79950, Note_on_c, 0, 32, 0
1, 80053, Note_on_c, 0, 48, 22
1, 80159, Note_on_c, 0, 68, 24
1, 80159, Note_on_c, 0, 48, 0
1, 80159, Control_c, 0, 64, 0
1, 80202, Control_c, 0, 64, 127
1, 80212, Note_on_c, 0, 80, 25
1, 80212, Note_on_c, 0, 44, 17
1, 80265, Note_on_c, 0, 84, 40
1, 80265, Note_on_c, 0, 56, 26
1, 80371, Note_on_c, 0, 84, 0
1, 80371, Note_on_c, 0, 80, 0
1, 80371, Note_on_c, 0, 68, 0
1, 80374, Note_on_c, 0, 56, 0
1, 80374, Note_on_c, 0, 44, 0
1, 80477, Note_on_c, 0, 60, 22
1, 80559, Control_c, 0, 64, 0
1, 80588, Note_on_c, 0, 82, 26
1, 80588, Note_on_c, 0, 60, 0
1, 80624, Control_c, 0, 64, 127
1, 80639, Note_on_c, 0, 79, 26
1, 80639, Note_on_c, 0, 56, 16
1, 80690, Note_on_c, 0, 75, 0
1, 80690, Note_on_c, 0, 73, 41
1, 80690, Note_on_c, 0, 63, 27
1, 80793, Note_on_c, 0, 63, 0
1, 80793, Note_on_c, 0, 56, 0
1, 80895, Note_on_c, 0, 73, 0
1, 80895, Note_on_c, 0, 79, 0
1, 80895, Note_on_c, 0, 82, 0
1, 80898, Note_on_c, 0, 72, 40
1, 80898, Note_on_c, 0, 67, 24
1, 80940, Control_c, 0, 64, 0
1, 80997, Note_on_c, 0, 72, 0
1, 80997, Note_on_c, 0, 79, 26
1, 80997, Note_on_c, 0, 67, 0
1, 81009, Control_c, 0, 64, 127
1, 81048, Note_on_c, 0, 75, 26
1, 81048, Note_on_c, 0, 56, 15
1, 81099, Note_on_c, 0, 70, 39
1, 81099, Note_on_c, 0, 61, 27
1, 81201, Note_on_c, 0, 61, 0
1, 81201, Note_on_c, 0, 56, 0
1, 81303, Note_on_c, 0, 70, 0
1, 81303, Note_on_c, 0, 75, 0
1, 81303, Note_on_c, 0, 79, 0
1, 81306, Note_on_c, 0, 72, 40
1, 81306, Note_on_c, 0, 63, 24
1, 81378, Control_c, 0, 64, 0
1, 81405, Note_on_c, 0, 72, 0
1, 81405, Note_on_c, 0, 80, 25
1, 81405, Note_on_c, 0, 63, 0
1, 81447, Control_c, 0, 64, 127
1, 81456, Note_on_c, 0, 77, 25
1, 81456, Note_on_c, 0, 56, 15
1, 81507, Note_on_c, 0, 73, 42
1, 81507, Note_on_c, 0, 65, 26
1, 81609, Note_on_c, 0, 65, 0
1, 81609, Note_on_c, 0, 56, 0
1, 81712, Note_on_c, 0, 73, 0
1, 81712, Note_on_c, 0, 77, 0
1, 81712, Note_on_c, 0, 80, 0
1, 81715, Note_on_c, 0, 72, 42
1, 81715, Note_on_c, 0, 68, 24
1, 81757, Control_c, 0, 64, 0
1, 81814, Note_on_c, 0, 72, 0
1, 81814, Note_on_c, 0, 77, 26
1, 81814, Note_on_c, 0, 68, 0
1, 81832, Control_c, 0, 64, 127
1, 81865, Note_on_c, 0, 73, 26
1, 81865, Note_on_c, 0, 56, 16
1, 81916, Note_on_c, 0, 70, 41
1, 81916, Note_on_c, 0, 61, 27
1, 82018, Note_on_c, 0, 61, 0
1, 82018, Note_on_c, 0, 56, 0
1, 82120, Note_on_c, 0, 70, 0
1, 82120, Note_on_c, 0, 73, 0
1, 82120, Note_on_c, 0, 77, 0
1, 82123, Note_on_c, 0, 68, 40
1, 82123, Note_on_c, 0, 65, 24
1, 82150, Control_c, 0, 64, 0
1, 82222, Note_on_c, 0, 68, 0
1, 82222, Note_on_c, 0, 75, 25
1, 82222, Note_on_c, 0, 65, 0
1, 82246, Control_c, 0, 64, 127
1, 82273, Note_on_c, 0, 70, 25
1, 82273, Note_on_c, 0, 44, 16
1, 82324, Note_on_c, 0, 67, 42
1, 82324, Note_on_c, 0, 49, 26
1, 82426, Note_on_c, 0, 49, 0
1, 82426, Note_on_c, 0, 44, 0
1, 82528, Note_on_c, 0, 67, 0
1, 82528, Note_on_c, 0, 70, 0
1, 82528, Note_on_c, 0, 75, 0
1, 82531, Note_on_c, 0, 65, 41
1, 82531, Note_on_c, 0, 51, 24
1, 82589, Control_c, 0, 64, 0
1, 82631, Note_on_c, 0, 65, 0
1, 82631, Note_on_c, 0, 73, 24
1, 82631, Note_on_c, 0, 51, 0
1, 82634, Note_on_c, 0, 44, 17
1, 82660, Control_c, 0, 64, 127
1, 82682, Note_on_c, 0, 70, 24
1, 82682, Note_on_c, 0, 51, 17
1, 82733, Note_on_c, 0, 63, 40
1, 82733, Note_on_c, 0, 55, 26
1, 82835, Note_on_c, 0, 55, 0
1, 82835, Note_on_c, 0, 51, 0
1, 82835, Note_on_c, 0, 44, 0
1, 82937, Note_on_c, 0, 63, 0
1, 82937, Note_on_c, 0, 70, 0
1, 82937, Note_on_c, 0, 73, 0
1, 82940, Note_on_c, 0, 65, 41
1, 82940, Note_on_c, 0, 56, 24
1, 82976, Control_c, 0, 64, 0
1, 83039, Note_on_c, 0, 65, 0
1, 83039, Note_on_c, 0, 75, 28
1, 83039, Note_on_c, 0, 56, 0
1, 83042, Note_on_c, 0, 44, 17
1, 83048, Control_c, 0, 64, 127
1, 83091, Note_on_c, 0, 73, 28
1, 83091, Note_on_c, 0, 51, 17
1, 83142, Note_on_c, 0, 67, 44
1, 83142, Note_on_c, 0, 58, 24
1, 83246, Note_on_c, 0, 58, 0
1, 83246, Note_on_c, 0, 51, 0
1, 83246, Note_on_c, 0, 44, 0
1, 83350, Note_on_c, 0, 67, 0
1, 83350, Note_on_c, 0, 73, 0
1, 83350, Note_on_c, 0, 75, 0
1, 83353, Note_on_c, 0, 70, 40
1, 83353, Note_on_c, 0, 61, 24
1, 83371, Control_c, 0, 64, 0
1, 83453, Note_on_c, 0, 70, 0
1, 83453, Note_on_c, 0, 75, 26
1, 83453, Note_on_c, 0, 61, 0
1, 83456, Control_c, 0, 64, 127
1, 83456, Note_on_c, 0, 44, 17
1, 83505, Note_on_c, 0, 73, 26
1, 83505, Note_on_c, 0, 51, 17
1, 83557, Note_on_c, 0, 65, 42
1, 83557, Note_on_c, 0, 56, 24
1, 83660, Note_on_c, 0, 56, 0
1, 83660, Note_on_c, 0, 51, 0
1, 83660, Note_on_c, 0, 44, 0
1, 83764, Note_on_c, 0, 65, 0
1, 83764, Note_on_c, 0, 73, 0
1, 83764, Note_on_c, 0, 75, 0
1, 83767, Note_on_c, 0, 68, 38
1, 83767, Note_on_c, 0, 60, 24
1, 83806, Control_c, 0, 64, 0
1, 83867, Note_on_c, 0, 68, 0
1, 83867, Note_on_c, 0, 75, 26
1, 83867, Note_on_c, 0, 60, 0
1, 83870, Note_on_c, 0, 44, 17
1, 83889, Control_c, 0, 64, 127
1, 83919, Note_on_c, 0, 72, 26
1, 83919, Note_on_c, 0, 51, 17
1, 83971, Note_on_c, 0, 63, 40
1, 83971, Note_on_c, 0, 55, 22
1, 84079, Note_on_c, 0, 55, 0
1, 84079, Note_on_c, 0, 51, 0
1, 84079, Note_on_c, 0, 44, 0
1, 84188, Note_on_c, 0, 63, 0
1, 84188, Note_on_c, 0, 72, 0
1, 84188, Note_on_c, 0, 75, 0
1, 84191, Note_on_c, 0, 67, 35
1, 84191, Note_on_c, 0, 58, 24
1, 84226, Control_c, 0, 64, 0
1, 84298, Note_on_c, 0, 67, 0
1, 84298, Note_on_c, 0, 75, 25
1, 84298, Note_on_c, 0, 58, 0
1, 84301, Note_on_c, 0, 44, 16
1, 84346, Control_c, 0, 64, 127
1, 84353, Note_on_c, 0, 70, 25
1, 84353, Note_on_c, 0, 51, 16
1, 84408, Note_on_c, 0, 61, 39
1, 84408, Note_on_c, 0, 56, 22
1, 84523, Note_on_c, 0, 56, 0
1, 84523, Note_on_c, 0, 51, 0
1, 84523, Note_on_c, 0, 44, 0
1, 84637, Note_on_c, 0, 61, 0
1, 84637, Note_on_c, 0, 70, 0
1, 84637, Note_on_c, 0, 75, 0
1, 84640, Note_on_c, 0, 65, 33
1, 84640, Note_on_c, 0, 55, 19
1, 84695, Control_c, 0, 64, 0
1, 84752, Note_on_c, 0, 65, 0
1, 84752, Note_on_c, 0, 55, 0
1, 84778, Control_c, 0, 64, 127
1, 84807, Note_on_c, 0, 44, 22
1, 84861, Control_c, 0, 91, 127
1, 84861, Note_on_c, 0, 60, 39
1, 84861, Note_on_c, 0, 56, 27
1, 84864, Control_c, 0, 91, 127
1, 84914, Note_on_c, 0, 68, 30
1, 84968, Note_on_c, 0, 72, 30
1, 84968, Note_on_c, 0, 56, 0
1, 84968, Note_on_c, 0, 44, 0
1, 85021, Note_on_c, 0, 68, 0
1, 85074, Note_on_c, 0, 72, 0
1, 85074, Note_on_c, 0, 60, 0
1, 85074, Note_on_c, 0, 61, 39
1, 85077, Note_on_c, 0, 48, 22
1, 85165, Control_c, 0, 64, 0
1, 85180, Note_on_c, 0, 48, 0
1, 85215, Control_c, 0, 64, 127
1, 85234, Note_on_c, 0, 32, 17
1, 85287, Note_on_c, 0, 61, 0
1, 85287, Note_on_c, 0, 62, 39
1, 85287, Note_on_c, 0, 44, 26
1, 85340, Note_on_c, 0, 68, 30
1, 85393, Note_on_c, 0, 72, 30
1, 85393, Note_on_c, 0, 44, 0
1, 85393, Note_on_c, 0, 32, 0
1, 85447, Note_on_c, 0, 68, 0
1, 85500, Note_on_c, 0, 72, 0
1, 85500, Note_on_c, 0, 62, 0
1, 85500, Note_on_c, 0, 63, 41
1, 85503, Note_on_c, 0, 48, 22
1, 85606, Note_on_c, 0, 48, 0
1, 85613, Control_c, 0, 64, 0
1, 85635, Control_c, 0, 64, 127
1, 85659, Note_on_c, 0, 60, 31
1, 85659, Note_on_c, 0, 44, 17
1, 85712, Note_on_c, 0, 63, 0
1, 85712, Note_on_c, 0, 72, 44
1, 85712, Note_on_c, 0, 56, 27
1, 85765, Note_on_c, 0, 60, 0
1, 85765, Note_on_c, 0, 75, 33
1, 85818, Note_on_c, 0, 56, 0
1, 85818, Note_on_c, 0, 44, 0
1, 85871, Note_on_c, 0, 75, 0
1, 85924, Note_on_c, 0, 72, 0
1, 85924, Note_on_c, 0, 68, 42
1, 85924, Note_on_c, 0, 48, 23
1, 86012, Control_c, 0, 64, 0
1, 86030, Note_on_c, 0, 48, 0
1, 86052, Control_c, 0, 64, 127
1, 86083, Note_on_c, 0, 32, 17
1, 86136, Note_on_c, 0, 68, 0
1, 86136, Note_on_c, 0, 65, 40
1, 86136, Note_on_c, 0, 44, 27
1, 86191, Note_on_c, 0, 72, 33
1, 86246, Note_on_c, 0, 75, 33
1, 86246, Note_on_c, 0, 44, 0
1, 86246, Note_on_c, 0, 32, 0
1, 86301, Note_on_c, 0, 72, 0
1, 86355, Note_on_c, 0, 75, 0
1, 86355, Note_on_c, 0, 65, 0
1, 86355, Note_on_c, 0, 66, 39
1, 86358, Note_on_c, 0, 48, 24
1, 86452, Control_c, 0, 64, 0
1, 86465, Note_on_c, 0, 48, 0
1, 86507, Control_c, 0, 64, 127
1, 86520, Note_on_c, 0, 31, 16
1, 86574, Note_on_c, 0, 66, 0
1, 86574, Note_on_c, 0, 67, 39
1, 86574, Note_on_c, 0, 43, 27
1, 86630, Note_on_c, 0, 72, 31
1, 86685, Note_on_c, 0, 75, 31
1, 86685, Note_on_c, 0, 43, 0
1, 86685, Note_on_c, 0, 31, 0
1, 86740, Note_on_c, 0, 72, 0
1, 86795, Note_on_c, 0, 75, 0
1, 86795, Note_on_c, 0, 48, 22
1, 86895, Control_c, 0, 64, 0
1, 86905, Note_on_c, 0, 48, 0
1, 86950, Control_c, 0, 64, 127
1, 86960, Note_on_c, 0, 43, 17
1, 87015, Note_on_c, 0, 72, 31
1, 87015, Note_on_c, 0, 55, 26
1, 87070, Note_on_c, 0, 75, 31
1, 87125, Note_on_c, 0, 72, 0
1, 87125, Note_on_c, 0, 79, 31
1, 87125, Note_on_c, 0, 55, 0
1, 87128, Note_on_c, 0, 43, 0
1, 87180, Note_on_c, 0, 75, 0
1, 87235, Note_on_c, 0, 79, 0
1, 87235, Note_on_c, 0, 60, 22
1, 87352, Note_on_c, 0, 83, 26
1, 87352, Note_on_c, 0, 60, 0
1, 87364, Control_c, 0, 64, 0
1, 87404, Note_on_c, 0, 79, 26
1, 87404, Note_on_c, 0, 53, 16
1, 87404, Control_c, 0, 64, 127
1, 87456, Note_on_c, 0, 67, 0
1, 87456, Note_on_c, 0, 75, 41
1, 87456, Note_on_c, 0, 55, 27
1, 87561, Note_on_c, 0, 55, 0
1, 87561, Note_on_c, 0, 53, 0
1, 87665, Note_on_c, 0, 75, 0
1, 87665, Note_on_c, 0, 79, 0
1, 87665, Note_on_c, 0, 83, 0
1, 87668, Note_on_c, 0, 74, 40
1, 87668, Note_on_c, 0, 59, 24
1, 87721, Control_c, 0, 64, 0
1, 87770, Note_on_c, 0, 74, 0
1, 87770, Note_on_c, 0, 79, 26
1, 87770, Note_on_c, 0, 59, 0
1, 87822, Note_on_c, 0, 75, 26
1, 87822, Note_on_c, 0, 51, 15
1, 87834, Control_c, 0, 64, 127
1, 87874, Note_on_c, 0, 72, 39
1, 87874, Note_on_c, 0, 60, 27
1, 87978, Note_on_c, 0, 60, 0
1, 87978, Note_on_c, 0, 51, 0
1, 88083, Note_on_c, 0, 72, 0
1, 88083, Note_on_c, 0, 75, 0
1, 88083, Note_on_c, 0, 79, 0
1, 88086, Note_on_c, 0, 67, 40
1, 88086, Note_on_c, 0, 63, 24
1, 88154, Control_c, 0, 64, 0
1, 88187, Note_on_c, 0, 67, 0
1, 88187, Note_on_c, 0, 77, 25
1, 88187, Note_on_c, 0, 63, 0
1, 88227, Control_c, 0, 64, 127
1, 88239, Note_on_c, 0, 74, 25
1, 88239, Note_on_c, 0, 53, 15
1, 88290, Note_on_c, 0, 70, 42
1, 88290, Note_on_c, 0, 62, 26
1, 88392, Note_on_c, 0, 62, 0
1, 88392, Note_on_c, 0, 53, 0
1, 88494, Note_on_c, 0, 70, 0
1, 88494, Note_on_c, 0, 74, 0
1, 88494, Note_on_c, 0, 77, 0
1, 88497, Note_on_c, 0, 68, 42
1, 88497, Note_on_c, 0, 65, 24
1, 88564, Control_c, 0, 64, 0
1, 88596, Note_on_c, 0, 68, 0
1, 88596, Note_on_c, 0, 74, 26
1, 88596, Note_on_c, 0, 65, 0
1, 88635, Control_c, 0, 64, 127
1, 88647, Note_on_c, 0, 71, 26
1, 88647, Note_on_c, 0, 55, 16
1, 88698, Note_on_c, 0, 67, 41
1, 88698, Note_on_c, 0, 59, 27
1, 88800, Note_on_c, 0, 59, 0
1, 88800, Note_on_c, 0, 55, 0
1, 88902, Note_on_c, 0, 67, 0
1, 88902, Note_on_c, 0, 71, 0
1, 88902, Note_on_c, 0, 74, 0
1, 88905, Note_on_c, 0, 65, 40
1, 88905, Note_on_c, 0, 62, 24
1, 88939, Control_c, 0, 64, 0
1, 89004, Note_on_c, 0, 65, 0
1, 89004, Note_on_c, 0, 71, 25
1, 89004, Note_on_c, 0, 62, 0
1, 89033, Control_c, 0, 64, 127
1, 89055, Note_on_c, 0, 67, 25
1, 89055, Note_on_c, 0, 43, 16
1, 89106, Note_on_c, 0, 63, 42
1, 89106, Note_on_c, 0, 55, 26
1, 89209, Note_on_c, 0, 55, 0
1, 89209, Note_on_c, 0, 43, 0
1, 89311, Note_on_c, 0, 63, 0
1, 89311, Note_on_c, 0, 67, 0
1, 89311, Note_on_c, 0, 71, 0
1, 89314, Note_on_c, 0, 62, 41
1, 89314, Note_on_c, 0, 59, 24
1, 89329, Control_c, 0, 64, 0
1, 89413, Note_on_c, 0, 62, 0
1, 89413, Note_on_c, 0, 67, 24
1, 89413, Note_on_c, 0, 59, 0
1, 89454, Control_c, 0, 64, 127
1, 89464, Note_on_c, 0, 63, 24
1, 89464, Note_on_c, 0, 39, 17
1, 89515, Note_on_c, 0, 60, 40
1, 89515, Note_on_c, 0, 48, 26
1, 89617, Note_on_c, 0, 48, 0
1, 89617, Note_on_c, 0, 39, 0
1, 89719, Note_on_c, 0, 60, 0
1, 89719, Note_on_c, 0, 63, 0
1, 89719, Note_on_c, 0, 67, 0
1, 89722, Note_on_c, 0, 55, 41
1, 89722, Note_on_c, 0, 51, 24
1, 89740, Control_c, 0, 64, 0
1, 89821, Note_on_c, 0, 55, 0
1, 89821, Note_on_c, 0, 67, 28
1, 89821, Note_on_c, 0, 51, 0
1, 89873, Note_on_c, 0, 63, 28
1, 89873, Note_on_c, 0, 39, 17
1, 89879, Control_c, 0, 64, 127
1, 89925, Note_on_c, 0, 60, 44
1, 89925, Note_on_c, 0, 49, 24
1, 90028, Note_on_c, 0, 49, 0
1, 90028, Note_on_c, 0, 39, 0
1, 90132, Note_on_c, 0, 60, 0
1, 90132, Note_on_c, 0, 63, 0
1, 90132, Note_on_c, 0, 67, 0
1, 90135, Note_on_c, 0, 58, 40
1, 90135, Note_on_c, 0, 51, 24
1, 90174, Control_c, 0, 64, 0
1, 90235, Note_on_c, 0, 58, 0
1, 90235, Note_on_c, 0, 63, 26
1, 90235, Note_on_c, 0, 51, 0
1, 90269, Control_c, 0, 64, 127
1, 90287, Note_on_c, 0, 60, 26
1, 90287, Note_on_c, 0, 44, 17
1, 90339, Note_on_c, 0, 56, 42
1, 90339, Note_on_c, 0, 48, 24
1, 90442, Note_on_c, 0, 48, 0
1, 90442, Note_on_c, 0, 44, 0
1, 90482, Control_c, 0, 64, 0
1, 90546, Note_on_c, 0, 56, 0
1, 90546, Note_on_c, 0, 63, 0
1, 90546, Note_on_c, 0, 51, 24
1, 90649, Note_on_c, 0, 51, 0
1, 90701, Note_on_c, 0, 32, 28
1, 90753, Note_on_c, 0, 60, 0
1, 90753, Note_on_c, 0, 62, 39
1, 90753, Note_on_c, 0, 59, 39
1, 90756, Note_on_c, 0, 55, 39
1, 90756, Note_on_c, 0, 39, 35
1, 90861, Note_on_c, 0, 39, 0
1, 90861, Note_on_c, 0, 32, 0
1, 90970, Note_on_c, 0, 44, 30
1, 91080, Note_on_c, 0, 44, 0
1, 91190, Note_on_c, 0, 55, 0
1, 91190, Note_on_c, 0, 53, 38
1, 91642, Note_on_c, 0, 53, 0
1, 91642, Note_on_c, 0, 59, 0
1, 91642, Note_on_c, 0, 62, 0
1, 91645, Note_on_c, 0, 67, 30
1, 91645, Note_on_c, 0, 55, 30
1, 91645, Note_on_c, 0, 63, 30
1, 91648, Note_on_c, 0, 51, 38
1, 91748, Note_on_c, 0, 51, 0
1, 91853, Note_on_c, 0, 39, 33
1, 91959, Note_on_c, 0, 39, 0
1, 92064, Note_on_c, 0, 63, 0
1, 92064, Note_on_c, 0, 55, 0
1, 92064, Note_on_c, 0, 67, 0
1, 92067, Note_on_c, 0, 57, 36
1, 92067, Note_on_c, 0, 66, 36
1, 92067, Note_on_c, 0, 69, 36
1, 92070, Note_on_c, 0, 27, 40
1, 92170, Note_on_c, 0, 27, 0
1, 92275, Note_on_c, 0, 39, 33
1, 92384, Note_on_c, 0, 39, 0
1, 92492, Note_on_c, 0, 69, 0
1, 92492, Note_on_c, 0, 66, 0
1, 92492, Note_on_c, 0, 57, 0
1, 92495, Note_on_c, 0, 58, 39
1, 92495, Note_on_c, 0, 70, 39
1, 92495, Note_on_c, 0, 67, 39
1, 92498, Note_on_c, 0, 61, 27
1, 92498, Note_on_c, 0, 51, 27
1, 92633, Control_c, 0, 64, 127
1, 93078, Control_c, 0, 64, 0
1, 93336, Note_on_c, 0, 67, 0
1, 93336, Note_on_c, 0, 70, 0
1, 93336, Note_on_c, 0, 58, 0
1, 93339, Note_on_c, 0, 79, 30
1, 93339, Note_on_c, 0, 75, 30
1, 93339, Note_on_c, 0, 67, 30
1, 93342, Note_on_c, 0, 51, 0
1, 93342, Note_on_c, 0, 61, 0
1, 93342, Note_on_c, 0, 49, 36
1, 93447, Note_on_c, 0, 49, 0
1, 93557, Note_on_c, 0, 37, 30
1, 93668, Note_on_c, 0, 37, 0
1, 93779, Note_on_c, 0, 67, 0
1, 93779, Note_on_c, 0, 75, 0
1, 93779, Note_on_c, 0, 79, 0
1, 93782, Note_on_c, 0, 69, 34
1, 93782, Note_on_c, 0, 78, 34
1, 93782, Note_on_c, 0, 81, 34
1, 93785, Note_on_c, 0, 25, 36
1, 93899, Note_on_c, 0, 25, 0
1, 94020, Note_on_c, 0, 37, 29
1, 94142, Note_on_c, 0, 37, 0
1, 94264, Note_on_c, 0, 81, 0
1, 94264, Note_on_c, 0, 78, 0
1, 94264, Note_on_c, 0, 69, 0
1, 94267, Note_on_c, 0, 82, 30
1, 94267, Note_on_c, 0, 70, 30
1, 94267, Note_on_c, 0, 79, 30
1, 94270, Note_on_c, 0, 64, 23
1, 94270, Note_on_c, 0, 61, 23
1, 94270, Note_on_c, 0, 52, 23
1, 94413, Control_c, 0, 64, 127
1, 94860, Control_c, 0, 64, 0
1, 95158, Note_on_c, 0, 79, 0
1, 95158, Note_on_c, 0, 70, 0
1, 95158, Note_on_c, 0, 82, 0
1, 95161, Note_on_c, 0, 55, 30
1, 95161, Note_on_c, 0, 64, 30
1, 95161, Note_on_c, 0, 67, 30
1, 95164, Note_on_c, 0, 52, 0
1, 95164, Note_on_c, 0, 61, 0
1, 95164, Note_on_c, 0, 64, 0
1, 95167, Note_on_c, 0, 48, 28
1, 95268, Note_on_c, 0, 48, 0
1, 95379, Note_on_c, 0, 36, 29
1, 95489, Note_on_c, 0, 36, 0
1, 95599, Note_on_c, 0, 67, 0
1, 95599, Note_on_c, 0, 64, 0
1, 95599, Note_on_c, 0, 55, 0
1, 95602, Note_on_c, 0, 57, 33
1, 95602, Note_on_c, 0, 69, 33
1, 95602, Note_on_c, 0, 66, 33
1, 95605, Note_on_c, 0, 24, 30
1, 95709, Note_on_c, 0, 24, 0
1, 95819, Note_on_c, 0, 36, 31
1, 95929, Note_on_c, 0, 36, 0
1, 95984, Note_on_c, 0, 48, 22
1, 96039, Note_on_c, 0, 66, 0
1, 96039, Note_on_c, 0, 69, 0
1, 96039, Note_on_c, 0, 57, 0
1, 96042, Note_on_c, 0, 70, 36
1, 96042, Note_on_c, 0, 58, 36
1, 96042, Note_on_c, 0, 67, 36
1, 96045, Note_on_c, 0, 52, 34
1, 96094, Note_on_c, 0, 52, 0
1, 96094, Note_on_c, 0, 48, 0
1, 96258, Note_on_c, 0, 48, 35
1, 96366, Note_on_c, 0, 48, 0
1, 96474, Note_on_c, 0, 67, 0
1, 96474, Note_on_c, 0, 58, 0
1, 96474, Note_on_c, 0, 70, 0
1, 96477, Note_on_c, 0, 60, 39
1, 96477, Note_on_c, 0, 69, 39
1, 96477, Note_on_c, 0, 72, 39
1, 96480, Note_on_c, 0, 36, 35
1, 96582, Note_on_c, 0, 36, 0
1, 96689, Note_on_c, 0, 48, 37
1, 96796, Note_on_c, 0, 48, 0
1, 96849, Note_on_c, 0, 46, 26
1, 96902, Note_on_c, 0, 72, 0
1, 96902, Note_on_c, 0, 69, 0
1, 96902, Note_on_c, 0, 60, 0
1, 96905, Note_on_c, 0, 61, 44
1, 96905, Note_on_c, 0, 70, 44
1, 96905, Note_on_c, 0, 73, 44
1, 96908, Note_on_c, 0, 53, 38
1, 96955, Note_on_c, 0, 53, 0
1, 96955, Note_on_c, 0, 46, 0
1, 97113, Note_on_c, 0, 46, 39
1, 97218, Note_on_c, 0, 46, 0
1, 97322, Note_on_c, 0, 73, 0
1, 97322, Note_on_c, 0, 70, 0
1, 97322, Note_on_c, 0, 61, 0
1, 97325, Note_on_c, 0, 72, 48
1, 97325, Note_on_c, 0, 64, 48
1, 97325, Note_on_c, 0, 76, 48
1, 97328, Note_on_c, 0, 34, 40
1, 97426, Note_on_c, 0, 34, 0
1, 97530, Note_on_c, 0, 53, 42
1, 97633, Note_on_c, 0, 53, 0
1, 97684, Note_on_c, 0, 51, 27
1, 97735, Note_on_c, 0, 76, 0
1, 97735, Note_on_c, 0, 64, 0
1, 97735, Note_on_c, 0, 72, 0
1, 97738, Note_on_c, 0, 73, 51
1, 97738, Note_on_c, 0, 65, 51
1, 97738, Note_on_c, 0, 77, 51
1, 97741, Note_on_c, 0, 58, 44
1, 97788, Note_on_c, 0, 58, 0
1, 97788, Note_on_c, 0, 51, 0
1, 97948, Note_on_c, 0, 39, 44
1, 98055, Note_on_c, 0, 39, 0
1, 98162, Note_on_c, 0, 77, 0
1, 98162, Note_on_c, 0, 65, 0
1, 98162, Note_on_c, 0, 79, 55
1, 98165, Note_on_c, 0, 67, 55
1, 98165, Note_on_c, 0, 27, 46
1, 98270, Note_on_c, 0, 27, 0
1, 98377, Note_on_c, 0, 51, 47
1, 98471, Control_c, 0, 64, 127
1, 98499, Note_on_c, 0, 51, 0
1, 98552, Note_on_c, 0, 32, 22
1, 98604, Note_on_c, 0, 67, 0
1, 98604, Note_on_c, 0, 79, 0
1, 98604, Note_on_c, 0, 73, 0
1, 98607, Note_on_c, 0, 72, 45
1, 98607, Note_on_c, 0, 44, 27
1, 98657, Note_on_c, 0, 80, 30
1, 98709, Note_on_c, 0, 84, 34
1, 98709, Note_on_c, 0, 44, 0
1, 98709, Note_on_c, 0, 32, 0
1, 98762, Note_on_c, 0, 80, 0
1, 98814, Note_on_c, 0, 84, 0
1, 98814, Note_on_c, 0, 72, 0
1, 98814, Note_on_c, 0, 73, 46
1, 98817, Note_on_c, 0, 48, 22
1, 98913, Control_c, 0, 64, 0
1, 98919, Note_on_c, 0, 48, 0
1, 98944, Control_c, 0, 64, 127
1, 98972, Note_on_c, 0, 44, 17
1, 99024, Note_on_c, 0, 73, 0
1, 99024, Note_on_c, 0, 74, 48
1, 99024, Note_on_c, 0, 56, 26
1, 99077, Note_on_c, 0, 80, 35
1, 99129, Note_on_c, 0, 84, 35
1, 99129, Note_on_c, 0, 56, 0
1, 99129, Note_on_c, 0, 44, 0
1, 99234, Note_on_c, 0, 84, 0
1, 99234, Note_on_c, 0, 80, 0
1, 99234, Note_on_c, 0, 74, 0
1, 99237, Note_on_c, 0, 75, 49
1, 99237, Note_on_c, 0, 60, 22
1, 99342, Note_on_c, 0, 60, 0
1, 99355, Control_c, 0, 64, 0
1, 99377, Control_c, 0, 64, 127
1, 99396, Note_on_c, 0, 72, 35
1, 99396, Note_on_c, 0, 56, 17
1, 99450, Note_on_c, 0, 75, 0
1, 99450, Note_on_c, 0, 80, 53
1, 99450, Note_on_c, 0, 68, 27
1, 99502, Note_on_c, 0, 72, 0
1, 99502, Note_on_c, 0, 84, 38
1, 99553, Note_on_c, 0, 68, 0
1, 99553, Note_on_c, 0, 56, 0
1, 99605, Note_on_c, 0, 84, 0
1, 99656, Note_on_c, 0, 80, 0
1, 99656, Note_on_c, 0, 79, 49
1, 99656, Note_on_c, 0, 60, 23
1, 99741, Control_c, 0, 64, 0
1, 99759, Note_on_c, 0, 60, 0
1, 99783, Control_c, 0, 64, 127
1, 99811, Note_on_c, 0, 44, 17
1, 99862, Note_on_c, 0, 79, 0
1, 99862, Note_on_c, 0, 77, 49
1, 99862, Note_on_c, 0, 56, 27
1, 99918, Note_on_c, 0, 80, 35
1, 99974, Note_on_c, 0, 84, 35
1, 99974, Note_on_c, 0, 56, 0
1, 99974, Note_on_c, 0, 44, 0
1, 100029, Note_on_c, 0, 80, 0
1, 100085, Note_on_c, 0, 84, 0
1, 100085, Note_on_c, 0, 77, 0
1, 100085, Note_on_c, 0, 76, 48
1, 100088, Note_on_c, 0, 48, 24
1, 100170, Control_c, 0, 64, 0
1, 100196, Note_on_c, 0, 48, 0
1, 100233, Control_c, 0, 64, 127
1, 100249, Note_on_c, 0, 32, 16
1, 100301, Note_on_c, 0, 76, 0
1, 100301, Note_on_c, 0, 72, 31
1, 100301, Note_on_c, 0, 75, 47
1, 100304, Note_on_c, 0, 44, 27
1, 100355, Note_on_c, 0, 80, 31
1, 100408, Note_on_c, 0, 72, 0
1, 100408, Note_on_c, 0, 84, 31
1, 100408, Note_on_c, 0, 44, 0
1, 100411, Note_on_c, 0, 32, 0
1, 100461, Note_on_c, 0, 80, 0
1, 100514, Note_on_c, 0, 84, 0
1, 100514, Note_on_c, 0, 48, 22
1, 100621, Note_on_c, 0, 48, 0
1, 100621, Control_c, 0, 64, 0
1, 100668, Control_c, 0, 64, 127
1, 100674, Note_on_c, 0, 44, 17
1, 100727, Note_on_c, 0, 72, 31
1, 100727, Note_on_c, 0, 56, 26
1, 100781, Note_on_c, 0, 80, 31
1, 100834, Note_on_c, 0, 72, 0
1, 100834, Note_on_c, 0, 84, 31
1, 100834, Note_on_c, 0, 56, 0
1, 100837, Note_on_c, 0, 44, 0
1, 100887, Note_on_c, 0, 80, 0
1, 100930, Control_c, 0, 64, 0
1, 100940, Note_on_c, 0, 84, 0
1, 100940, Note_on_c, 0, 60, 22
1, 100998, Control_c, 0, 64, 127
1, 101057, Note_on_c, 0, 82, 26
1, 101057, Note_on_c, 0, 60, 0
1, 101108, Note_on_c, 0, 79, 26
1, 101108, Note_on_c, 0, 56, 16
1, 101159, Note_on_c, 0, 75, 0
1, 101159, Note_on_c, 0, 73, 41
1, 101159, Note_on_c, 0, 63, 27
1, 101261, Note_on_c, 0, 63, 0
1, 101261, Note_on_c, 0, 56, 0
1, 101363, Note_on_c, 0, 73, 0
1, 101363, Note_on_c, 0, 79, 0
1, 101363, Note_on_c, 0, 82, 0
1, 101366, Note_on_c, 0, 72, 40
1, 101366, Note_on_c, 0, 67, 24
1, 101399, Control_c, 0, 64, 0
1, 101465, Note_on_c, 0, 72, 0
1, 101465, Note_on_c, 0, 79, 26
1, 101465, Note_on_c, 0, 67, 0
1, 101480, Control_c, 0, 64, 127
1, 101516, Note_on_c, 0, 75, 26
1, 101516, Note_on_c, 0, 56, 15
1, 101567, Note_on_c, 0, 70, 39
1, 101567, Note_on_c, 0, 61, 27
1, 101669, Note_on_c, 0, 61, 0
1, 101669, Note_on_c, 0, 56, 0
1, 101771, Note_on_c, 0, 70, 0
1, 101771, Note_on_c, 0, 75, 0
1, 101771, Note_on_c, 0, 79, 0
1, 101774, Note_on_c, 0, 72, 40
1, 101774, Note_on_c, 0, 63, 24
1, 101813, Control_c, 0, 64, 0
1, 101873, Note_on_c, 0, 72, 0
1, 101873, Note_on_c, 0, 80, 25
1, 101873, Note_on_c, 0, 63, 0
1, 101901, Control_c, 0, 64, 127
1, 101925, Note_on_c, 0, 77, 25
1, 101925, Note_on_c, 0, 56, 15
1, 101976, Note_on_c, 0, 73, 42
1, 101976, Note_on_c, 0, 65, 26
1, 102078, Note_on_c, 0, 65, 0
1, 102078, Note_on_c, 0, 56, 0
1, 102180, Note_on_c, 0, 73, 0
1, 102180, Note_on_c, 0, 77, 0
1, 102180, Note_on_c, 0, 80, 0
1, 102183, Note_on_c, 0, 72, 42
1, 102183, Note_on_c, 0, 68, 24
1, 102207, Control_c, 0, 64, 0
1, 102282, Note_on_c, 0, 72, 0
1, 102282, Note_on_c, 0, 77, 26
1, 102282, Note_on_c, 0, 68, 0
1, 102291, Control_c, 0, 64, 127
1, 102333, Note_on_c, 0, 73, 26
1, 102333, Note_on_c, 0, 56, 16
1, 102384, Note_on_c, 0, 70, 41
1, 102384, Note_on_c, 0, 61, 27
1, 102486, Note_on_c, 0, 61, 0
1, 102486, Note_on_c, 0, 56, 0
1, 102588, Note_on_c, 0, 70, 0
1, 102588, Note_on_c, 0, 73, 0
1, 102588, Note_on_c, 0, 77, 0
1, 102591, Note_on_c, 0, 68, 40
1, 102591, Note_on_c, 0, 65, 24
1, 102594, Control_c, 0, 64, 0
1, 102643, Control_c, 0, 64, 127
1, 102690, Note_on_c, 0, 68, 0
1, 102690, Note_on_c, 0, 75, 25
1, 102690, Note_on_c, 0, 65, 0
1, 102741, Note_on_c, 0, 70, 25
1, 102741, Note_on_c, 0, 44, 16
1, 102792, Note_on_c, 0, 67, 42
1, 102792, Note_on_c, 0, 49, 26
1, 102895, Note_on_c, 0, 49, 0
1, 102895, Note_on_c, 0, 44, 0
1, 102987, Control_c, 0, 64, 0
1, 102997, Note_on_c, 0, 67, 0
1, 102997, Note_on_c, 0, 70, 0
1, 102997, Note_on_c, 0, 75, 0
1, 103000, Note_on_c, 0, 65, 41
1, 103000, Note_on_c, 0, 51, 24
1, 103018, Control_c, 0, 64, 127
1, 103099, Note_on_c, 0, 65, 0
1, 103099, Note_on_c, 0, 73, 24
1, 103099, Note_on_c, 0, 51, 0
1, 103102, Note_on_c, 0, 44, 17
1, 103150, Note_on_c, 0, 70, 24
1, 103150, Note_on_c, 0, 51, 17
1, 103201, Note_on_c, 0, 63, 40
1, 103201, Note_on_c, 0, 55, 26
1, 103303, Note_on_c, 0, 55, 0
1, 103303, Note_on_c, 0, 51, 0
1, 103303, Note_on_c, 0, 44, 0
1, 103405, Note_on_c, 0, 63, 0
1, 103405, Note_on_c, 0, 70, 0
1, 103405, Note_on_c, 0, 73, 0
1, 103408, Note_on_c, 0, 65, 41
1, 103408, Note_on_c, 0, 56, 24
1, 103441, Control_c, 0, 64, 0
1, 103507, Note_on_c, 0, 65, 0
1, 103507, Note_on_c, 0, 75, 28
1, 103507, Note_on_c, 0, 56, 0
1, 103510, Note_on_c, 0, 44, 17
1, 103537, Control_c, 0, 64, 127
1, 103559, Note_on_c, 0, 73, 28
1, 103559, Note_on_c, 0, 51, 17
1, 103611, Note_on_c, 0, 67, 44
1, 103611, Note_on_c, 0, 58, 24
1, 103714, Note_on_c, 0, 58, 0
1, 103714, Note_on_c, 0, 51, 0
1, 103714, Note_on_c, 0, 44, 0
1, 103818, Note_on_c, 0, 67, 0
1, 103818, Note_on_c, 0, 73, 0
1, 103818, Note_on_c, 0, 75, 0
1, 103821, Note_on_c, 0, 70, 40
1, 103821, Note_on_c, 0, 61, 24
1, 103864, Control_c, 0, 64, 0
1, 103921, Note_on_c, 0, 70, 0
1, 103921, Note_on_c, 0, 75, 26
1, 103921, Note_on_c, 0, 61, 0
1, 103924, Note_on_c, 0, 44, 17
1, 103939, Control_c, 0, 64, 127
1, 103973, Note_on_c, 0, 73, 26
1, 103973, Note_on_c, 0, 51, 17
1, 104025, Note_on_c, 0, 65, 42
1, 104025, Note_on_c, 0, 56, 24
1, 104128, Note_on_c, 0, 56, 0
1, 104128, Note_on_c, 0, 51, 0
1, 104128, Note_on_c, 0, 44, 0
1, 104232, Note_on_c, 0, 65, 0
1, 104232, Note_on_c, 0, 73, 0
1, 104232, Note_on_c, 0, 75, 0
1, 104235, Note_on_c, 0, 68, 38
1, 104235, Note_on_c, 0, 60, 24
1, 104247, Control_c, 0, 64, 0
1, 104335, Note_on_c, 0, 68, 0
1, 104335, Note_on_c, 0, 75, 26
1, 104335, Note_on_c, 0, 60, 0
1, 104338, Note_on_c, 0, 44, 17
1, 104351, Control_c, 0, 64, 127
1, 104387, Note_on_c, 0, 72, 26
1, 104387, Note_on_c, 0, 51, 17
1, 104439, Note_on_c, 0, 63, 40
1, 104439, Note_on_c, 0, 55, 22
1, 104547, Note_on_c, 0, 55, 0
1, 104547, Note_on_c, 0, 51, 0
1, 104547, Note_on_c, 0, 44, 0
1, 104656, Note_on_c, 0, 63, 0
1, 104656, Note_on_c, 0, 72, 0
1, 104656, Note_on_c, 0, 75, 0
1, 104659, Note_on_c, 0, 67, 35
1, 104659, Note_on_c, 0, 58, 24
1, 104679, Control_c, 0, 64, 0
1, 104766, Note_on_c, 0, 67, 0
1, 104766, Note_on_c, 0, 75, 25
1, 104766, Note_on_c, 0, 58, 0
1, 104769, Note_on_c, 0, 44, 16
1, 104792, Control_c, 0, 64, 127
1, 104821, Note_on_c, 0, 70, 25
1, 104821, Note_on_c, 0, 51, 16
1, 104876, Note_on_c, 0, 61, 39
1, 104876, Note_on_c, 0, 56, 22
1, 104989, Note_on_c, 0, 56, 0
1, 104989, Note_on_c, 0, 51, 0
1, 104989, Note_on_c, 0, 44, 0
1, 105101, Note_on_c, 0, 61, 0
1, 105101, Note_on_c, 0, 70, 0
1, 105101, Note_on_c, 0, 75, 0
1, 105104, Note_on_c, 0, 65, 33
1, 105104, Note_on_c, 0, 55, 19
1, 105147, Control_c, 0, 64, 0
1, 105213, Note_on_c, 0, 65, 0
1, 105213, Note_on_c, 0, 55, 0
1, 105245, Control_c, 0, 64, 127
1, 105268, Note_on_c, 0, 44, 22
1, 105322, Note_on_c, 0, 60, 39
1, 105322, Control_c, 0, 91, 127
1, 105322, Note_on_c, 0, 56, 27
1, 105325, Control_c, 0, 91, 127
1, 105376, Note_on_c, 0, 68, 30
1, 105429, Note_on_c, 0, 72, 30
1, 105429, Note_on_c, 0, 56, 0
1, 105429, Note_on_c, 0, 44, 0
1, 105482, Note_on_c, 0, 68, 0
1, 105535, Note_on_c, 0, 72, 0
1, 105535, Note_on_c, 0, 60, 0
1, 105535, Note_on_c, 0, 61, 39
1, 105538, Note_on_c, 0, 48, 22
1, 105629, Control_c, 0, 64, 0
1, 105642, Note_on_c, 0, 48, 0
1, 105667, Control_c, 0, 64, 127
1, 105695, Note_on_c, 0, 32, 17
1, 105748, Note_on_c, 0, 61, 0
1, 105748, Note_on_c, 0, 62, 39
1, 105748, Note_on_c, 0, 44, 26
1, 105802, Note_on_c, 0, 68, 30
1, 105855, Note_on_c, 0, 72, 30
1, 105855, Note_on_c, 0, 44, 0
1, 105855, Note_on_c, 0, 32, 0
1, 105908, Note_on_c, 0, 68, 0
1, 105961, Note_on_c, 0, 72, 0
1, 105961, Note_on_c, 0, 62, 0
1, 105961, Note_on_c, 0, 63, 41
1, 105964, Note_on_c, 0, 48, 22
1, 106055, Control_c, 0, 64, 0
1, 106068, Note_on_c, 0, 48, 0
1, 106099, Control_c, 0, 64, 127
1, 106121, Note_on_c, 0, 44, 22
1, 106174, Note_on_c, 0, 63, 0
1, 106174, Note_on_c, 0, 60, 39
1, 106174, Note_on_c, 0, 56, 27
1, 106227, Note_on_c, 0, 72, 44
1, 106280, Note_on_c, 0, 75, 33
1, 106280, Note_on_c, 0, 56, 0
1, 106280, Note_on_c, 0, 44, 0
1, 106333, Note_on_c, 0, 72, 0
1, 106386, Note_on_c, 0, 75, 0
1, 106386, Note_on_c, 0, 60, 0
1, 106386, Note_on_c, 0, 68, 42
1, 106389, Note_on_c, 0, 48, 23
1, 106470, Control_c, 0, 64, 0
1, 106492, Note_on_c, 0, 48, 0
1, 106517, Control_c, 0, 64, 127
1, 106545, Note_on_c, 0, 32, 17
1, 106598, Note_on_c, 0, 68, 0
1, 106598, Note_on_c, 0, 65, 40
1, 106598, Note_on_c, 0, 44, 27
1, 106652, Note_on_c, 0, 72, 33
1, 106706, Note_on_c, 0, 75, 33
1, 106706, Note_on_c, 0, 44, 0
1, 106706, Note_on_c, 0, 32, 0
1, 106759, Note_on_c, 0, 72, 0
1, 106813, Note_on_c, 0, 75, 0
1, 106813, Note_on_c, 0, 65, 0
1, 106813, Note_on_c, 0, 64, 39
1, 106816, Note_on_c, 0, 48, 29
1, 106914, Control_c, 0, 64, 0
1, 106920, Note_on_c, 0, 48, 0
1, 106958, Control_c, 0, 64, 127
1, 106974, Note_on_c, 0, 44, 26
1, 107028, Note_on_c, 0, 64, 0
1, 107028, Note_on_c, 0, 60, 42
1, 107028, Note_on_c, 0, 56, 34
1, 107083, Note_on_c, 0, 63, 35
1, 107137, Note_on_c, 0, 67, 35
1, 107137, Note_on_c, 0, 56, 0
1, 107137, Note_on_c, 0, 44, 0
1, 107192, Note_on_c, 0, 72, 35
1, 107246, Note_on_c, 0, 72, 0
1, 107246, Note_on_c, 0, 60, 0
1, 107246, Note_on_c, 0, 63, 0
1, 107249, Note_on_c, 0, 67, 0
1, 107249, Note_on_c, 0, 73, 42
1, 107249, Note_on_c, 0, 70, 42
1, 107252, Note_on_c, 0, 61, 42
1, 107252, Note_on_c, 0, 51, 30
1, 107304, Control_c, 0, 64, 0
1, 107355, Note_on_c, 0, 51, 0
1, 107355, Note_on_c, 0, 32, 26
1, 107361, Control_c, 0, 64, 127
1, 107464, Note_on_c, 0, 61, 0
1, 107464, Note_on_c, 0, 70, 0
1, 107464, Note_on_c, 0, 73, 0
1, 107467, Note_on_c, 0, 62, 49
1, 107467, Note_on_c, 0, 74, 49
1, 107467, Note_on_c, 0, 71, 49
1, 107470, Note_on_c, 0, 44, 35
1, 107573, Note_on_c, 0, 44, 0
1, 107573, Note_on_c, 0, 32, 0
1, 107657, Control_c, 0, 64, 0
1, 107682, Note_on_c, 0, 71, 0
1, 107682, Note_on_c, 0, 74, 0
1, 107682, Note_on_c, 0, 62, 0
1, 107685, Note_on_c, 0, 75, 53
1, 107685, Note_on_c, 0, 72, 53
1, 107685, Note_on_c, 0, 63, 53
1, 107688, Note_on_c, 0, 48, 40
1, 107695, Control_c, 0, 64, 127
1, 107791, Note_on_c, 0, 48, 0
1, 107791, Note_on_c, 0, 56, 37
1, 107856, Control_c, 0, 64, 0
1, 107900, Note_on_c, 0, 63, 0
1, 107900, Note_on_c, 0, 72, 0
1, 107900, Note_on_c, 0, 75, 0
1, 107903, Note_on_c, 0, 87, 63
1, 107903, Note_on_c, 0, 78, 63
1, 107903, Note_on_c, 0, 75, 63
1, 107906, Note_on_c, 0, 68, 46
1, 107948, Control_c, 0, 64, 127
1, 108018, Note_on_c, 0, 68, 0
1, 108018, Note_on_c, 0, 56, 0
1, 108101, Control_c, 0, 64, 0
1, 108136, Note_on_c, 0, 75, 0
1, 108136, Note_on_c, 0, 78, 0
1, 108136, Note_on_c, 0, 87, 0
1, 108139, Note_on_c, 0, 84, 50
1, 108139, Note_on_c, 0, 72, 50
1, 108139, Note_on_c, 0, 80, 50
1, 108142, Note_on_c, 0, 60, 37
1, 108184, Control_c, 0, 64, 127
1, 108253, Note_on_c, 0, 60, 0
1, 108253, Note_on_c, 0, 44, 32
1, 108371, Note_on_c, 0, 80, 0
1, 108371, Note_on_c, 0, 72, 0
1, 108371, Note_on_c, 0, 84, 0
1, 108374, Note_on_c, 0, 80, 46
1, 108374, Note_on_c, 0, 77, 46
1, 108374, Note_on_c, 0, 68, 46
1, 108377, Control_c, 0, 64, 0
1, 108377, Note_on_c, 0, 56, 40
1, 108450, Control_c, 0, 64, 127
1, 108483, Note_on_c, 0, 56, 0
1, 108483, Note_on_c, 0, 44, 0
1, 108582, Control_c, 0, 64, 0
1, 108595, Note_on_c, 0, 68, 0
1, 108595, Note_on_c, 0, 77, 0
1, 108595, Note_on_c, 0, 80, 0
1, 108598, Note_on_c, 0, 78, 42
1, 108598, Note_on_c, 0, 75, 42
1, 108598, Note_on_c, 0, 66, 42
1, 108601, Note_on_c, 0, 48, 28
1, 108641, Control_c, 0, 64, 127
1, 108708, Note_on_c, 0, 48, 0
1, 108708, Note_on_c, 0, 25, 28
1, 108781, Control_c, 0, 64, 0
1, 108820, Note_on_c, 0, 66, 0
1, 108820, Note_on_c, 0, 75, 0
1, 108820, Note_on_c, 0, 78, 0
1, 108823, Note_on_c, 0, 77, 41
1, 108823, Note_on_c, 0, 65, 41
1, 108823, Note_on_c, 0, 73, 41
1, 108826, Note_on_c, 0, 37, 35
1, 108931, Note_on_c, 0, 37, 0
1, 108931, Note_on_c, 0, 25, 0
1, 109041, Note_on_c, 0, 44, 35
1, 109152, Note_on_c, 0, 44, 0
1, 109207, Note_on_c, 0, 37, 26
1, 109263, Note_on_c, 0, 73, 0
1, 109263, Note_on_c, 0, 65, 0
1, 109263, Note_on_c, 0, 77, 0
1, 109266, Note_on_c, 0, 73, 39
1, 109266, Note_on_c, 0, 76, 39
1, 109266, Note_on_c, 0, 64, 39
1, 109269, Note_on_c, 0, 49, 33
1, 109373, Note_on_c, 0, 49, 0
1, 109373, Note_on_c, 0, 37, 0
1, 109484, Note_on_c, 0, 56, 29
1, 109595, Note_on_c, 0, 56, 0
1, 109705, Note_on_c, 0, 64, 0
1, 109705, Note_on_c, 0, 76, 0
1, 109705, Note_on_c, 0, 73, 0
1, 109708, Note_on_c, 0, 63, 35
1, 109708, Note_on_c, 0, 72, 35
1, 109708, Note_on_c, 0, 75, 35
1, 109711, Note_on_c, 0, 68, 35
1, 109711, Note_on_c, 0, 56, 35
1, 109711, Note_on_c, 0, 60, 35
1, 110480, Note_on_c, 0, 24, 27
1, 110535, Note_on_c, 0, 60, 0
1, 110535, Note_on_c, 0, 68, 0
1, 110535, Note_on_c, 0, 56, 0
1, 110591, Note_on_c, 0, 75, 0
1, 110591, Note_on_c, 0, 72, 0
1, 110591, Note_on_c, 0, 63, 0
1, 110594, Note_on_c, 0, 68, 31
1, 110594, Note_on_c, 0, 56, 31
1, 110594, Note_on_c, 0, 63, 31
1, 110597, Note_on_c, 0, 36, 34
1, 110712, Note_on_c, 0, 36, 0
1, 110712, Note_on_c, 0, 24, 0
1, 110834, Note_on_c, 0, 44, 28
1, 110955, Note_on_c, 0, 44, 0
1, 111016, Note_on_c, 0, 36, 23
1, 111076, Note_on_c, 0, 63, 0
1, 111076, Note_on_c, 0, 56, 0
1, 111076, Note_on_c, 0, 68, 0
1, 111079, Note_on_c, 0, 55, 30
1, 111079, Note_on_c, 0, 63, 30
1, 111079, Note_on_c, 0, 67, 30
1, 111082, Note_on_c, 0, 48, 30
1, 111214, Note_on_c, 0, 48, 0
1, 111214, Note_on_c, 0, 36, 0
1, 111352, Note_on_c, 0, 56, 23
1, 111490, Note_on_c, 0, 56, 0
1, 111628, Note_on_c, 0, 67, 0
1, 111628, Note_on_c, 0, 63, 0
1, 111628, Note_on_c, 0, 55, 0
1, 111631, Note_on_c, 0, 63, 25
1, 111631, Note_on_c, 0, 54, 25
1, 111631, Note_on_c, 0, 66, 25
1, 111634, Note_on_c, 0, 60, 26
1, 111634, Note_on_c, 0, 56, 26
1, 111634, Note_on_c, 0, 48, 26
1, 112730, Note_on_c, 0, 66, 0
1, 112730, Note_on_c, 0, 54, 0
1, 112730, Note_on_c, 0, 63, 0
1, 112733, Note_on_c, 0, 79, 35
1, 112733, Control_c, 0, 91, 127
1, 112733, Note_on_c, 0, 72, 35
1, 112736, Note_on_c, 0, 67, 35
1, 112736, Note_on_c, 0, 48, 0
1, 112736, Note_on_c, 0, 56, 0
1, 112739, Note_on_c, 0, 60, 0
1, 112739, Note_on_c, 0, 48, 30
1, 112739, Note_on_c, 0, 36, 25
1, 112742, Control_c, 0, 91, 127
1, 112749, Control_c, 0, 64, 127
1, 112876, Note_on_c, 0, 48, 0
1, 112876, Note_on_c, 0, 43, 28
1, 113022, Note_on_c, 0, 43, 0
1, 113022, Note_on_c, 0, 48, 28
1, 113135, Control_c, 0, 64, 0
1, 113175, Note_on_c, 0, 67, 0
1, 113175, Note_on_c, 0, 72, 0
1, 113175, Note_on_c, 0, 79, 0
1, 113178, Note_on_c, 0, 79, 31
1, 113178, Note_on_c, 0, 74, 31
1, 113178, Note_on_c, 0, 67, 31
1, 113181, Note_on_c, 0, 48, 0
1, 113181, Note_on_c, 0, 36, 0
1, 113181, Note_on_c, 0, 62, 18
1, 113184, Note_on_c, 0, 55, 18
1, 113184, Note_on_c, 0, 50, 18
1, 113618, Note_on_c, 0, 67, 0
1, 113618, Note_on_c, 0, 74, 0
1, 113618, Note_on_c, 0, 79, 0
1, 113621, Note_on_c, 0, 75, 35
1, 113621, Note_on_c, 0, 79, 35
1, 113621, Note_on_c, 0, 67, 35
1, 113624, Note_on_c, 0, 50, 0
1, 113624, Note_on_c, 0, 55, 0
1, 113624, Note_on_c, 0, 62, 0
1, 113627, Note_on_c, 0, 51, 30
1, 113627, Note_on_c, 0, 36, 25
1, 113631, Control_c, 0, 64, 127
1, 113763, Note_on_c, 0, 51, 0
1, 113763, Note_on_c, 0, 43, 27
1, 113909, Note_on_c, 0, 43, 0
1, 113909, Note_on_c, 0, 51, 27
1, 114059, Note_on_c, 0, 67, 0
1, 114059, Note_on_c, 0, 79, 0
1, 114059, Note_on_c, 0, 75, 0
1, 114062, Note_on_c, 0, 79, 33
1, 114062, Note_on_c, 0, 74, 33
1, 114062, Note_on_c, 0, 67, 33
1, 114065, Note_on_c, 0, 51, 0
1, 114065, Note_on_c, 0, 36, 0
1, 114065, Note_on_c, 0, 62, 19
1, 114068, Note_on_c, 0, 50, 19
1, 114068, Note_on_c, 0, 55, 19
1, 114068, Control_c, 0, 64, 0
1, 114508, Note_on_c, 0, 67, 0
1, 114508, Note_on_c, 0, 74, 0
1, 114508, Note_on_c, 0, 79, 0
1, 114511, Note_on_c, 0, 79, 39
1, 114511, Note_on_c, 0, 67, 39
1, 114511, Note_on_c, 0, 55, 0
1, 114514, Note_on_c, 0, 50, 0
1, 114514, Note_on_c, 0, 62, 0
1, 114514, Control_c, 0, 64, 127
1, 114517, Note_on_c, 0, 51, 27
1, 114517, Note_on_c, 0, 36, 23
1, 114655, Note_on_c, 0, 75, 35
1, 114655, Note_on_c, 0, 51, 0
1, 114655, Note_on_c, 0, 43, 24
1, 114802, Note_on_c, 0, 75, 0
1, 114802, Note_on_c, 0, 77, 35
1, 114802, Note_on_c, 0, 43, 0
1, 114805, Note_on_c, 0, 50, 24
1, 114949, Control_c, 0, 64, 0
1, 114956, Note_on_c, 0, 77, 0
1, 114956, Note_on_c, 0, 67, 0
1, 114956, Note_on_c, 0, 79, 0
1, 114959, Note_on_c, 0, 74, 36
1, 114959, Note_on_c, 0, 67, 36
1, 114959, Note_on_c, 0, 79, 36
1, 114962, Note_on_c, 0, 50, 0
1, 114962, Note_on_c, 0, 36, 0
1, 114962, Note_on_c, 0, 43, 20
1, 114965, Note_on_c, 0, 48, 20
1, 114965, Note_on_c, 0, 55, 20
1, 115401, Note_on_c, 0, 79, 0
1, 115401, Note_on_c, 0, 67, 0
1, 115401, Note_on_c, 0, 74, 0
1, 115404, Note_on_c, 0, 79, 37
1, 115404, Note_on_c, 0, 75, 37
1, 115404, Note_on_c, 0, 67, 37
1, 115407, Note_on_c, 0, 55, 0
1, 115407, Note_on_c, 0, 48, 0
1, 115407, Note_on_c, 0, 43, 0
1, 115410, Note_on_c, 0, 48, 27
1, 115410, Note_on_c, 0, 36, 23
1, 115438, Control_c, 0, 64, 127
1, 115552, Note_on_c, 0, 75, 0
1, 115552, Note_on_c, 0, 72, 34
1, 115552, Note_on_c, 0, 48, 0
1, 115555, Note_on_c, 0, 43, 26
1, 115703, Note_on_c, 0, 72, 0
1, 115703, Note_on_c, 0, 73, 34
1, 115703, Note_on_c, 0, 43, 0
1, 115706, Note_on_c, 0, 46, 26
1, 115827, Control_c, 0, 64, 0
1, 115854, Note_on_c, 0, 73, 0
1, 115854, Note_on_c, 0, 67, 0
1, 115854, Note_on_c, 0, 79, 0
1, 115857, Note_on_c, 0, 70, 36
1, 115857, Note_on_c, 0, 67, 36
1, 115857, Note_on_c, 0, 79, 36
1, 115860, Note_on_c, 0, 46, 0
1, 115860, Note_on_c, 0, 36, 0
1, 115860, Note_on_c, 0, 43, 22
1, 115863, Note_on_c, 0, 48, 22
1, 115863, Note_on_c, 0, 55, 22
1, 116343, Note_on_c, 0, 79, 0
1, 116343, Note_on_c, 0, 67, 0
1, 116343, Note_on_c, 0, 70, 0
1, 116346, Note_on_c, 0, 84, 52
1, 116346, Note_on_c, 0, 72, 52
1, 116346, Note_on_c, 0, 55, 0
1, 116349, Note_on_c, 0, 48, 0
1, 116349, Note_on_c, 0, 43, 0
1, 116349, Note_on_c, 0, 44, 41
1, 116352, Note_on_c, 0, 36, 41
1, 116381, Control_c, 0, 64, 127
1, 116490, Note_on_c, 0, 72, 0
1, 116490, Note_on_c, 0, 84, 0
1, 116490, Note_on_c, 0, 80, 48
1, 116493, Note_on_c, 0, 44, 0
1, 116493, Note_on_c, 0, 48, 35
1, 116636, Note_on_c, 0, 80, 0
1, 116636, Note_on_c, 0, 70, 48
1, 116636, Note_on_c, 0, 82, 48
1, 116639, Note_on_c, 0, 48, 0
1, 116639, Note_on_c, 0, 48, 35
1, 116639, Note_on_c, 0, 55, 35
1, 116757, Control_c, 0, 64, 0
1, 116783, Note_on_c, 0, 82, 0
1, 116783, Note_on_c, 0, 70, 0
1, 116783, Note_on_c, 0, 79, 53
1, 116786, Note_on_c, 0, 55, 0
1, 116786, Note_on_c, 0, 36, 0
1, 116786, Note_on_c, 0, 58, 35
1, 117224, Note_on_c, 0, 79, 0
1, 117224, Note_on_c, 0, 72, 50
1, 117224, Note_on_c, 0, 84, 50
1, 117227, Note_on_c, 0, 58, 0
1, 117227, Note_on_c, 0, 48, 0
1, 117227, Note_on_c, 0, 36, 36
1, 117230, Note_on_c, 0, 44, 36
1, 117268, Control_c, 0, 64, 127
1, 117368, Note_on_c, 0, 84, 0
1, 117368, Note_on_c, 0, 72, 0
1, 117368, Note_on_c, 0, 80, 44
1, 117371, Note_on_c, 0, 44, 0
1, 117371, Note_on_c, 0, 48, 30
1, 117513, Note_on_c, 0, 80, 0
1, 117513, Note_on_c, 0, 82, 48
1, 117513, Note_on_c, 0, 70, 48
1, 117516, Note_on_c, 0, 48, 0
1, 117516, Note_on_c, 0, 36, 0
1, 117516, Note_on_c, 0, 48, 35
1, 117519, Note_on_c, 0, 55, 35
1, 117530, Control_c, 0, 64, 0
1, 117594, Control_c, 0, 64, 127
1, 117658, Note_on_c, 0, 70, 0
1, 117658, Note_on_c, 0, 82, 0
1, 117658, Note_on_c, 0, 79, 40
1, 117661, Note_on_c, 0, 55, 0
1, 117661, Note_on_c, 0, 58, 29
1, 117802, Note_on_c, 0, 79, 0
1, 117802, Note_on_c, 0, 68, 44
1, 117802, Note_on_c, 0, 80, 44
1, 117805, Note_on_c, 0, 58, 0
1, 117805, Note_on_c, 0, 48, 0
1, 117805, Note_on_c, 0, 48, 31
1, 117808, Note_on_c, 0, 53, 31
1, 117849, Control_c, 0, 64, 0
1, 117894, Control_c, 0, 64, 127
1, 117947, Note_on_c, 0, 80, 0
1, 117947, Note_on_c, 0, 68, 0
1, 117947, Note_on_c, 0, 77, 42
1, 117950, Note_on_c, 0, 53, 0
1, 117950, Note_on_c, 0, 56, 30
1, 118092, Note_on_c, 0, 77, 0
1, 118092, Note_on_c, 0, 78, 45
1, 118092, Note_on_c, 0, 66, 45
1, 118095, Note_on_c, 0, 56, 0
1, 118095, Note_on_c, 0, 48, 0
1, 118095, Control_c, 0, 64, 0
1, 118098, Note_on_c, 0, 36, 35
1, 118098, Note_on_c, 0, 39, 35
1, 118123, Control_c, 0, 64, 127
1, 118239, Note_on_c, 0, 66, 0
1, 118239, Note_on_c, 0, 78, 0
1, 118239, Note_on_c, 0, 75, 45
1, 118242, Note_on_c, 0, 39, 0
1, 118242, Note_on_c, 0, 44, 35
1, 118385, Note_on_c, 0, 75, 0
1, 118385, Note_on_c, 0, 66, 45
1, 118385, Note_on_c, 0, 78, 45
1, 118388, Note_on_c, 0, 44, 0
1, 118388, Note_on_c, 0, 51, 35
1, 118532, Note_on_c, 0, 78, 0
1, 118532, Note_on_c, 0, 66, 0
1, 118532, Note_on_c, 0, 67, 41
1, 118535, Note_on_c, 0, 74, 41
1, 118535, Note_on_c, 0, 79, 41
1, 118535, Note_on_c, 0, 51, 0
1, 118538, Note_on_c, 0, 36, 0
1, 118538, Note_on_c, 0, 43, 25
1, 118538, Note_on_c, 0, 48, 25
1, 118541, Note_on_c, 0, 50, 25
1, 118541, Note_on_c, 0, 55, 25
1, 118574, Control_c, 0, 64, 0
1, 118989, Note_on_c, 0, 79, 0
1, 118989, Note_on_c, 0, 74, 0
1, 118989, Note_on_c, 0, 67, 0
1, 118992, Note_on_c, 0, 81, 48
1, 118992, Note_on_c, 0, 69, 48
1, 118992, Note_on_c, 0, 55, 0
1, 118995, Note_on_c, 0, 43, 0
1, 118995, Note_on_c, 0, 48, 0
1, 118995, Note_on_c, 0, 50, 0
1, 118998, Note_on_c, 0, 36, 38
1, 118998, Note_on_c, 0, 39, 38
1, 118998, Control_c, 0, 64, 127
1, 119135, Note_on_c, 0, 69, 0
1, 119135, Note_on_c, 0, 81, 0
1, 119135, Note_on_c, 0, 75, 48
1, 119138, Note_on_c, 0, 39, 0
1, 119138, Note_on_c, 0, 45, 38
1, 119281, Note_on_c, 0, 75, 0
1, 119281, Note_on_c, 0, 69, 48
1, 119281, Note_on_c, 0, 81, 48
1, 119284, Note_on_c, 0, 45, 0
1, 119284, Note_on_c, 0, 51, 38
1, 119412, Control_c, 0, 64, 0
1, 119427, Note_on_c, 0, 81, 0
1, 119427, Note_on_c, 0, 69, 0
1, 119427, Note_on_c, 0, 67, 45
1, 119430, Note_on_c, 0, 79, 45
1, 119430, Note_on_c, 0, 74, 45
1, 119430, Note_on_c, 0, 51, 0
1, 119433, Note_on_c, 0, 36, 0
1, 119433, Note_on_c, 0, 43, 30
1, 119433, Note_on_c, 0, 48, 30
1, 119436, Note_on_c, 0, 50, 30
1, 119436, Note_on_c, 0, 55, 30
1, 119883, Note_on_c, 0, 74, 0
1, 119883, Note_on_c, 0, 79, 0
1, 119883, Note_on_c, 0, 67, 0
1, 119886, Note_on_c, 0, 72, 61
1, 119886, Note_on_c, 0, 84, 61
1, 119886, Note_on_c, 0, 55, 0
1, 119889, Note_on_c, 0, 43, 0
1, 119889, Note_on_c, 0, 48, 0
1, 119889, Note_on_c, 0, 50, 0
1, 119892, Control_c, 0, 64, 127
1, 119892, Note_on_c, 0, 36, 46
1, 119892, Note_on_c, 0, 43, 46
1, 119895, Note_on_c, 0, 52, 46
1, 120030, Note_on_c, 0, 84, 0
1, 120030, Note_on_c, 0, 72, 0
1, 120030, Note_on_c, 0, 79, 59
1, 120176, Note_on_c, 0, 79, 0
1, 120176, Note_on_c, 0, 72, 59
1, 120176, Note_on_c, 0, 84, 59
1, 120322, Note_on_c, 0, 84, 0
1, 120322, Note_on_c, 0, 72, 0
1, 120322, Note_on_c, 0, 86, 58
1, 120325, Note_on_c, 0, 79, 58
1, 120325, Note_on_c, 0, 74, 58
1, 120325, Note_on_c, 0, 52, 0
1, 120328, Note_on_c, 0, 43, 0
1, 120328, Note_on_c, 0, 36, 0
1, 120328, Control_c, 0, 64, 0
1, 120331, Note_on_c, 0, 50, 39
1, 120331, Note_on_c, 0, 48, 39
1, 120331, Note_on_c, 0, 55, 39
1, 120385, Control_c, 0, 64, 127
1, 120468, Note_on_c, 0, 55, 0
1, 120468, Note_on_c, 0, 48, 0
1, 120468, Note_on_c, 0, 50, 0
1, 120471, Note_on_c, 0, 43, 48
1, 120614, Note_on_c, 0, 43, 0
1, 120614, Note_on_c, 0, 50, 38
1, 120614, Note_on_c, 0, 48, 38
1, 120617, Note_on_c, 0, 55, 38
1, 120653, Control_c, 0, 64, 0
1, 120768, Note_on_c, 0, 74, 0
1, 120768, Note_on_c, 0, 79, 0
1, 120768, Note_on_c, 0, 86, 0
1, 120771, Note_on_c, 0, 88, 69
1, 120771, Note_on_c, 0, 76, 69
1, 120771, Note_on_c, 0, 55, 0
1, 120774, Note_on_c, 0, 48, 0
1, 120774, Note_on_c, 0, 50, 0
1, 120774, Note_on_c, 0, 36, 48
1, 120777, Note_on_c, 0, 43, 48
1, 120777, Note_on_c, 0, 48, 48
1, 120777, Control_c, 0, 64, 127
1, 120914, Note_on_c, 0, 76, 0
1, 120914, Note_on_c, 0, 88, 0
1, 120914, Note_on_c, 0, 79, 66
1, 121061, Note_on_c, 0, 79, 0
1, 121061, Note_on_c, 0, 76, 66
1, 121061, Note_on_c, 0, 88, 66
1, 121180, Control_c, 0, 64, 0
1, 121207, Note_on_c, 0, 88, 0
1, 121207, Note_on_c, 0, 76, 0
1, 121207, Note_on_c, 0, 74, 69
1, 121210, Note_on_c, 0, 86, 69
1, 121210, Note_on_c, 0, 79, 69
1, 121210, Note_on_c, 0, 48, 0
1, 121213, Note_on_c, 0, 43, 0
1, 121213, Note_on_c, 0, 36, 0
1, 121213, Note_on_c, 0, 48, 39
1, 121216, Note_on_c, 0, 50, 39
1, 121216, Note_on_c, 0, 55, 39
1, 121249, Control_c, 0, 64, 127
1, 121353, Note_on_c, 0, 55, 0
1, 121353, Note_on_c, 0, 50, 0
1, 121353, Note_on_c, 0, 48, 0
1, 121356, Note_on_c, 0, 43, 49
1, 121499, Note_on_c, 0, 43, 0
1, 121499, Note_on_c, 0, 48, 39
1, 121499, Note_on_c, 0, 50, 39
1, 121502, Note_on_c, 0, 55, 39
1, 121577, Control_c, 0, 64, 0
1, 121655, Note_on_c, 0, 79, 0
1, 121655, Note_on_c, 0, 86, 0
1, 121655, Note_on_c, 0, 74, 0
1, 121658, Note_on_c, 0, 79, 80
1, 121658, Note_on_c, 0, 91, 80
1, 121658, Note_on_c, 0, 55, 0
1, 121661, Note_on_c, 0, 50, 0
1, 121661, Note_on_c, 0, 48, 0
1, 121661, Control_c, 0, 64, 127
1, 121664, Note_on_c, 0, 36, 55
1, 121664, Note_on_c, 0, 43, 55
1, 121664, Note_on_c, 0, 52, 55
1, 121801, Note_on_c, 0, 91, 0
1, 121801, Note_on_c, 0, 79, 0
1, 121801, Note_on_c, 0, 88, 77
1, 121874, Note_on_c, 0, 52, 0
1, 121874, Note_on_c, 0, 50, 49
1, 121947, Note_on_c, 0, 88, 0
1, 121947, Note_on_c, 0, 89, 77
1, 121947, Note_on_c, 0, 77, 65
1, 122093, Note_on_c, 0, 77, 0
1, 122093, Note_on_c, 0, 89, 0
1, 122093, Note_on_c, 0, 74, 70
1, 122096, Note_on_c, 0, 62, 70
1, 122096, Note_on_c, 0, 67, 70
1, 122096, Note_on_c, 0, 50, 0
1, 122099, Note_on_c, 0, 43, 0
1, 122099, Note_on_c, 0, 36, 0
1, 122099, Note_on_c, 0, 50, 45
1, 122102, Note_on_c, 0, 48, 45
1, 122102, Note_on_c, 0, 55, 45
1, 122109, Control_c, 0, 64, 0
1, 122148, Control_c, 0, 64, 127
1, 122239, Note_on_c, 0, 55, 0
1, 122239, Note_on_c, 0, 48, 0
1, 122239, Note_on_c, 0, 50, 0
1, 122242, Note_on_c, 0, 43, 57
1, 122385, Note_on_c, 0, 43, 0
1, 122385, Note_on_c, 0, 50, 47
1, 122385, Note_on_c, 0, 48, 47
1, 122388, Note_on_c, 0, 55, 47
1, 122482, Control_c, 0, 64, 0
1, 122546, Note_on_c, 0, 67, 0
1, 122546, Note_on_c, 0, 62, 0
1, 122546, Note_on_c, 0, 74, 0
1, 122549, Note_on_c, 0, 88, 88
1, 122549, Note_on_c, 0, 76, 74
1, 122549, Note_on_c, 0, 55, 0
1, 122552, Note_on_c, 0, 48, 0
1, 122552, Note_on_c, 0, 50, 0
1, 122552, Note_on_c, 0, 36, 62
1, 122555, Note_on_c, 0, 43, 62
1, 122555, Note_on_c, 0, 48, 62
1, 122577, Control_c, 0, 64, 127
1, 122692, Note_on_c, 0, 76, 0
1, 122692, Note_on_c, 0, 88, 0
1, 122692, Note_on_c, 0, 79, 84
1, 122765, Note_on_c, 0, 48, 0
1, 122765, Note_on_c, 0, 46, 61
1, 122838, Note_on_c, 0, 79, 0
1, 122838, Note_on_c, 0, 86, 84
1, 122838, Note_on_c, 0, 74, 71
1, 122974, Control_c, 0, 64, 0
1, 122984, Note_on_c, 0, 74, 0
1, 122984, Note_on_c, 0, 86, 0
1, 122984, Note_on_c, 0, 70, 79
1, 122987, Note_on_c, 0, 64, 79
1, 122987, Note_on_c, 0, 58, 67
1, 122987, Note_on_c, 0, 46, 0
1, 122990, Note_on_c, 0, 43, 0
1, 122990, Note_on_c, 0, 36, 0
1, 122990, Note_on_c, 0, 48, 53
1, 122993, Note_on_c, 0, 55, 53
1, 123020, Control_c, 0, 64, 127
1, 123130, Note_on_c, 0, 55, 0
1, 123130, Note_on_c, 0, 48, 0
1, 123130, Note_on_c, 0, 43, 62
1, 123276, Note_on_c, 0, 43, 0
1, 123276, Note_on_c, 0, 48, 52
1, 123276, Note_on_c, 0, 55, 52
1, 123349, Control_c, 0, 64, 0
1, 123422, Note_on_c, 0, 58, 0
1, 123422, Note_on_c, 0, 64, 0
1, 123422, Note_on_c, 0, 70, 0
1, 123425, Note_on_c, 0, 72, 78
1, 123425, Note_on_c, 0, 84, 92
1, 123425, Note_on_c, 0, 55, 0
1, 123428, Note_on_c, 0, 48, 0
1, 123428, Note_on_c, 0, 36, 52
1, 123428, Note_on_c, 0, 41, 52
1, 123431, Note_on_c, 0, 45, 62
1, 123431, Note_on_c, 0, 48, 62
1, 123562, Note_on_c, 0, 84, 0
1, 123562, Note_on_c, 0, 72, 0
1, 123562, Note_on_c, 0, 77, 74
1, 123565, Note_on_c, 0, 81, 88
1, 123632, Note_on_c, 0, 81, 0
1, 123632, Note_on_c, 0, 77, 0
1, 123702, Note_on_c, 0, 72, 74
1, 123702, Note_on_c, 0, 84, 88
1, 123813, Note_on_c, 0, 84, 0
1, 123813, Note_on_c, 0, 72, 0
1, 123850, Note_on_c, 0, 76, 92
1, 123850, Note_on_c, 0, 67, 78
1, 123850, Note_on_c, 0, 79, 92
1, 123853, Note_on_c, 0, 48, 0
1, 123853, Note_on_c, 0, 36, 0
1, 123853, Note_on_c, 0, 41, 0
1, 123856, Note_on_c, 0, 45, 0
1, 123856, Note_on_c, 0, 52, 51
1, 123856, Note_on_c, 0, 55, 51
1, 123859, Note_on_c, 0, 60, 60
1, 123859, Control_c, 0, 64, 127
1, 123997, Note_on_c, 0, 60, 0
1, 123997, Note_on_c, 0, 55, 0
1, 123997, Note_on_c, 0, 52, 0
1, 124000, Note_on_c, 0, 48, 62
1, 124143, Note_on_c, 0, 48, 0
1, 124143, Note_on_c, 0, 52, 48
1, 124143, Note_on_c, 0, 55, 48
1, 124146, Note_on_c, 0, 60, 57
1, 124265, Control_c, 0, 64, 0
1, 124289, Note_on_c, 0, 79, 0
1, 124289, Note_on_c, 0, 67, 0
1, 124289, Note_on_c, 0, 76, 0
1, 124292, Note_on_c, 0, 69, 77
1, 124292, Note_on_c, 0, 81, 91
1, 124292, Note_on_c, 0, 60, 0
1, 124295, Note_on_c, 0, 55, 0
1, 124295, Note_on_c, 0, 52, 0
1, 124295, Note_on_c, 0, 38, 52
1, 124298, Note_on_c, 0, 41, 52
1, 124298, Note_on_c, 0, 45, 52
1, 124298, Note_on_c, 0, 50, 62
1, 124429, Note_on_c, 0, 81, 0
1, 124429, Note_on_c, 0, 69, 0
1, 124429, Note_on_c, 0, 77, 86
1, 124432, Note_on_c, 0, 74, 73
1, 124500, Note_on_c, 0, 74, 0
1, 124500, Note_on_c, 0, 77, 0
1, 124570, Note_on_c, 0, 69, 73
1, 124570, Note_on_c, 0, 81, 86
1, 124683, Note_on_c, 0, 81, 0
1, 124683, Note_on_c, 0, 69, 0
1, 124721, Note_on_c, 0, 72, 92
1, 124721, Note_on_c, 0, 64, 78
1, 124721, Note_on_c, 0, 76, 92
1, 124724, Note_on_c, 0, 50, 0
1, 124724, Note_on_c, 0, 38, 0
1, 124724, Note_on_c, 0, 41, 0
1, 124727, Note_on_c, 0, 45, 0
1, 124727, Note_on_c, 0, 48, 45
1, 124727, Note_on_c, 0, 52, 45
1, 124730, Note_on_c, 0, 57, 53
1, 124740, Control_c, 0, 64, 127
1, 124867, Note_on_c, 0, 57, 0
1, 124867, Note_on_c, 0, 52, 0
1, 124867, Note_on_c, 0, 48, 0
1, 124870, Note_on_c, 0, 45, 60
1, 125013, Note_on_c, 0, 45, 0
1, 125013, Note_on_c, 0, 48, 46
1, 125013, Note_on_c, 0, 52, 46
1, 125016, Note_on_c, 0, 57, 55
1, 125114, Control_c, 0, 64, 0
1, 125159, Note_on_c, 0, 76, 0
1, 125159, Note_on_c, 0, 64, 0
1, 125159, Note_on_c, 0, 72, 0
1, 125162, Note_on_c, 0, 67, 78
1, 125162, Note_on_c, 0, 79, 92
1, 125162, Note_on_c, 0, 57, 0
1, 125165, Note_on_c, 0, 52, 0
1, 125165, Note_on_c, 0, 48, 0
1, 125165, Note_on_c, 0, 31, 59
1, 125168, Note_on_c, 0, 43, 70
1, 125186, Control_c, 0, 64, 127
1, 125308, Note_on_c, 0, 79, 0
1, 125308, Note_on_c, 0, 67, 0
1, 125308, Note_on_c, 0, 72, 70
1, 125311, Note_on_c, 0, 76, 83
1, 125431, Control_c, 0, 64, 0
1, 125458, Note_on_c, 0, 76, 0
1, 125458, Note_on_c, 0, 72, 0
1, 125458, Note_on_c, 0, 79, 92
1, 125461, Note_on_c, 0, 67, 78
1, 125461, Note_on_c, 0, 43, 0
1, 125461, Note_on_c, 0, 31, 0
1, 125464, Note_on_c, 0, 52, 63
1, 125464, Note_on_c, 0, 48, 53
1, 125474, Control_c, 0, 64, 127
1, 125598, Note_on_c, 0, 67, 0
1, 125598, Note_on_c, 0, 79, 0
1, 125598, Note_on_c, 0, 74, 70
1, 125601, Note_on_c, 0, 77, 83
1, 125601, Note_on_c, 0, 48, 0
1, 125601, Note_on_c, 0, 52, 0
1, 125604, Note_on_c, 0, 43, 59
1, 125604, Note_on_c, 0, 55, 70
1, 125729, Control_c, 0, 64, 0
1, 125734, Note_on_c, 0, 77, 0
1, 125734, Note_on_c, 0, 74, 0
1, 125734, Note_on_c, 0, 67, 78
1, 125737, Note_on_c, 0, 79, 92
1, 125737, Note_on_c, 0, 55, 0
1, 125737, Note_on_c, 0, 43, 0
1, 125740, Note_on_c, 0, 50, 56
1, 125740, Note_on_c, 0, 53, 67
1, 125762, Control_c, 0, 64, 127
1, 125867, Note_on_c, 0, 79, 0
1, 125867, Note_on_c, 0, 67, 0
1, 125867, Note_on_c, 0, 76, 83
1, 125870, Note_on_c, 0, 72, 70
1, 125870, Note_on_c, 0, 53, 0
1, 125870, Note_on_c, 0, 50, 0
1, 125873, Note_on_c, 0, 43, 56
1, 125873, Note_on_c, 0, 55, 67
1, 125999, Note_on_c, 0, 72, 0
1, 125999, Note_on_c, 0, 76, 0
1, 125999, Note_on_c, 0, 79, 92
1, 126002, Note_on_c, 0, 67, 78
1, 126002, Note_on_c, 0, 55, 0
1, 126002, Note_on_c, 0, 43, 0
1, 126005, Control_c, 0, 64, 0
1, 126005, Note_on_c, 0, 48, 59
1, 126005, Note_on_c, 0, 52, 70
1, 126048, Control_c, 0, 64, 127
1, 126137, Note_on_c, 0, 67, 0
1, 126137, Note_on_c, 0, 79, 0
1, 126137, Note_on_c, 0, 69, 73
1, 126140, Note_on_c, 0, 72, 86
1, 126140, Note_on_c, 0, 52, 0
1, 126140, Note_on_c, 0, 48, 0
1, 126143, Note_on_c, 0, 43, 56
1, 126143, Note_on_c, 0, 55, 66
1, 126275, Note_on_c, 0, 72, 0
1, 126275, Note_on_c, 0, 69, 0
1, 126275, Note_on_c, 0, 67, 73
1, 126278, Note_on_c, 0, 79, 86
1, 126278, Note_on_c, 0, 55, 0
1, 126278, Note_on_c, 0, 43, 0
1, 126281, Note_on_c, 0, 45, 56
1, 126281, Note_on_c, 0, 48, 66
1, 126383, Control_c, 0, 64, 0
1, 126413, Note_on_c, 0, 79, 0
1, 126413, Note_on_c, 0, 67, 0
1, 126413, Note_on_c, 0, 74, 77
1, 126416, Note_on_c, 0, 67, 69
1, 126416, Note_on_c, 0, 71, 76
1, 126416, Note_on_c, 0, 79, 92
1, 126419, Note_on_c, 0, 48, 0
1, 126419, Note_on_c, 0, 45, 0
1, 126419, Note_on_c, 0, 43, 56
1, 126422, Note_on_c, 0, 47, 56
1, 126422, Note_on_c, 0, 50, 56
1, 126422, Note_on_c, 0, 55, 73
1, 126442, Control_c, 0, 64, 127
1, 126767, Control_c, 0, 64, 0
1, 126848, Note_on_c, 0, 79, 0
1, 126848, Note_on_c, 0, 74, 0
1, 126848, Note_on_c, 0, 67, 0
1, 126851, Note_on_c, 0, 71, 0
1, 126851, Note_on_c, 0, 72, 75
1, 126851, Note_on_c, 0, 84, 89
1, 126854, Note_on_c, 0, 55, 0
1, 126854, Note_on_c, 0, 43, 0
1, 126854, Note_on_c, 0, 47, 0
1, 126857, Note_on_c, 0, 50, 0
1, 126857, Control_c, 0, 64, 127
1, 126857, Note_on_c, 0, 36, 62
1, 126994, Note_on_c, 0, 84, 0
1, 126994, Note_on_c, 0, 72, 0
1, 126994, Note_on_c, 0, 83, 70
1, 126997, Note_on_c, 0, 79, 59
1, 126997, Note_on_c, 0, 36, 0
1, 126997, Note_on_c, 0, 48, 58
1, 127133, Control_c, 0, 64, 0
1, 127141, Note_on_c, 0, 79, 0
1, 127141, Note_on_c, 0, 83, 0
1, 127141, Note_on_c, 0, 72, 67
1, 127144, Note_on_c, 0, 84, 79
1, 127144, Note_on_c, 0, 48, 0
1, 127144, Note_on_c, 0, 57, 57
1, 127147, Note_on_c, 0, 53, 48
1, 127147, Control_c, 0, 64, 127
1, 127277, Note_on_c, 0, 84, 0
1, 127277, Note_on_c, 0, 72, 0
1, 127277, Note_on_c, 0, 77, 52
1, 127280, Note_on_c, 0, 81, 62
1, 127280, Note_on_c, 0, 48, 44
1, 127280, Note_on_c, 0, 60, 52
1, 127414, Note_on_c, 0, 81, 0
1, 127414, Note_on_c, 0, 77, 0
1, 127414, Note_on_c, 0, 72, 66
1, 127417, Note_on_c, 0, 84, 78
1, 127421, Control_c, 0, 64, 0
1, 127446, Control_c, 0, 64, 127
1, 127550, Note_on_c, 0, 84, 0
1, 127550, Note_on_c, 0, 72, 0
1, 127550, Note_on_c, 0, 76, 52
1, 127553, Note_on_c, 0, 79, 62
1, 127553, Note_on_c, 0, 53, 0
1, 127553, Note_on_c, 0, 57, 0
1, 127556, Note_on_c, 0, 52, 51
1, 127556, Note_on_c, 0, 55, 51
1, 127686, Note_on_c, 0, 79, 0
1, 127686, Note_on_c, 0, 76, 0
1, 127686, Note_on_c, 0, 81, 85
1, 127689, Note_on_c, 0, 69, 72
1, 127689, Note_on_c, 0, 55, 0
1, 127689, Note_on_c, 0, 60, 0
1, 127692, Note_on_c, 0, 48, 0
1, 127692, Note_on_c, 0, 52, 0
1, 127692, Control_c, 0, 64, 0
1, 127695, Note_on_c, 0, 33, 58
1, 127721, Control_c, 0, 64, 127
1, 127828, Note_on_c, 0, 69, 0
1, 127828, Note_on_c, 0, 81, 0
1, 127828, Note_on_c, 0, 76, 59
1, 127831, Note_on_c, 0, 79, 70
1, 127831, Note_on_c, 0, 33, 0
1, 127831, Note_on_c, 0, 45, 58
1, 127970, Note_on_c, 0, 79, 0
1, 127970, Note_on_c, 0, 76, 0
1, 127970, Note_on_c, 0, 69, 67
1, 127973, Note_on_c, 0, 81, 79
1, 127973, Note_on_c, 0, 45, 0
1, 127973, Note_on_c, 0, 53, 58
1, 127976, Note_on_c, 0, 50, 58
1, 127980, Control_c, 0, 64, 0
1, 128013, Control_c, 0, 64, 127
1, 128104, Note_on_c, 0, 81, 0
1, 128104, Note_on_c, 0, 69, 0
1, 128104, Note_on_c, 0, 77, 63
1, 128107, Note_on_c, 0, 74, 53
1, 128107, Note_on_c, 0, 45, 44
1, 128107, Note_on_c, 0, 57, 52
1, 128238, Note_on_c, 0, 74, 0
1, 128238, Note_on_c, 0, 77, 0
1, 128238, Note_on_c, 0, 81, 80
1, 128241, Note_on_c, 0, 69, 68
1, 128258, Control_c, 0, 64, 0
1, 128272, Control_c, 0, 64, 127
1, 128371, Note_on_c, 0, 69, 0
1, 128371, Note_on_c, 0, 81, 0
1, 128371, Note_on_c, 0, 72, 51
1, 128374, Note_on_c, 0, 76, 61
1, 128374, Note_on_c, 0, 50, 0
1, 128374, Note_on_c, 0, 53, 0
1, 128377, Note_on_c, 0, 48, 49
1, 128377, Note_on_c, 0, 52, 49
1, 128488, Control_c, 0, 64, 0
1, 128505, Note_on_c, 0, 76, 0
1, 128505, Note_on_c, 0, 72, 0
1, 128505, Note_on_c, 0, 67, 74
1, 128508, Note_on_c, 0, 79, 88
1, 128508, Note_on_c, 0, 52, 0
1, 128508, Note_on_c, 0, 57, 0
1, 128511, Note_on_c, 0, 45, 0
1, 128511, Note_on_c, 0, 48, 0
1, 128511, Note_on_c, 0, 31, 58
1, 128543, Control_c, 0, 64, 127
1, 128639, Note_on_c, 0, 79, 0
1, 128639, Note_on_c, 0, 67, 0
1, 128639, Note_on_c, 0, 77, 70
1, 128642, Note_on_c, 0, 74, 59
1, 128642, Note_on_c, 0, 31, 0
1, 128642, Note_on_c, 0, 43, 52
1, 128765, Control_c, 0, 64, 0
1, 128775, Note_on_c, 0, 74, 0
1, 128775, Note_on_c, 0, 77, 0
1, 128775, Note_on_c, 0, 67, 72
1, 128778, Note_on_c, 0, 79, 85
1, 128778, Note_on_c, 0, 43, 0
1, 128778, Note_on_c, 0, 53, 59
1, 128781, Note_on_c, 0, 50, 50
1, 128800, Control_c, 0, 64, 127
1, 128913, Note_on_c, 0, 79, 0
1, 128913, Note_on_c, 0, 67, 0
1, 128913, Note_on_c, 0, 72, 56
1, 128916, Note_on_c, 0, 76, 66
1, 128916, Note_on_c, 0, 50, 0
1, 128916, Note_on_c, 0, 53, 0
1, 128919, Note_on_c, 0, 43, 44
1, 128919, Note_on_c, 0, 55, 52
1, 129053, Note_on_c, 0, 76, 0
1, 129053, Note_on_c, 0, 72, 0
1, 129053, Note_on_c, 0, 79, 83
1, 129056, Note_on_c, 0, 67, 70
1, 129056, Note_on_c, 0, 55, 0
1, 129056, Note_on_c, 0, 43, 0
1, 129059, Note_on_c, 0, 48, 50
1, 129059, Note_on_c, 0, 52, 59
1, 129079, Control_c, 0, 64, 0
1, 129098, Control_c, 0, 64, 127
1, 129196, Note_on_c, 0, 67, 0
1, 129196, Note_on_c, 0, 79, 0
1, 129196, Note_on_c, 0, 69, 56
1, 129199, Note_on_c, 0, 72, 66
1, 129199, Note_on_c, 0, 52, 0
1, 129199, Note_on_c, 0, 48, 0
1, 129202, Note_on_c, 0, 43, 43
1, 129202, Note_on_c, 0, 55, 51
1, 129300, Control_c, 0, 64, 0
1, 129349, Note_on_c, 0, 72, 0
1, 129349, Note_on_c, 0, 69, 0
1, 129349, Note_on_c, 0, 67, 66
1, 129352, Note_on_c, 0, 72, 66
1, 129352, Note_on_c, 0, 76, 92
1, 129352, Note_on_c, 0, 79, 92
1, 129355, Note_on_c, 0, 45, 66
1, 129355, Note_on_c, 0, 48, 66
1, 129355, Control_c, 0, 64, 127
1, 129655, Control_c, 0, 64, 0
1, 129655, Note_on_c, 0, 43, 42
1, 129704, Control_c, 0, 64, 127
1, 129716, Note_on_c, 0, 47, 46
1, 129777, Note_on_c, 0, 50, 48
1, 129838, Note_on_c, 0, 79, 0
1, 129838, Note_on_c, 0, 67, 0
1, 129838, Note_on_c, 0, 72, 0
1, 129841, Note_on_c, 0, 76, 0
1, 129841, Note_on_c, 0, 79, 89
1, 129841, Note_on_c, 0, 67, 62
1, 129844, Note_on_c, 0, 71, 70
1, 129844, Note_on_c, 0, 74, 79
1, 129844, Note_on_c, 0, 48, 0
1, 129847, Note_on_c, 0, 45, 0
1, 129847, Note_on_c, 0, 43, 0
1, 129847, Note_on_c, 0, 55, 0
1, 129850, Note_on_c, 0, 55, 52
1, 129946, Control_c, 0, 64, 0
1, 129969, Note_on_c, 0, 74, 0
1, 129969, Note_on_c, 0, 79, 0
1, 129969, Note_on_c, 0, 67, 0
1, 129972, Note_on_c, 0, 71, 0
1, 129972, Note_on_c, 0, 55, 0
1, 129972, Note_on_c, 0, 47, 0
1, 129975, Note_on_c, 0, 43, 0
1, 129975, Note_on_c, 0, 50, 0
1, 130360, Control_c, 0, 91, 127
1, 130360, Control_c, 0, 91, 127
1, 130360, Note_on_c, 0, 36, 39
1, 130469, Note_on_c, 0, 36, 0
1, 130578, Note_on_c, 0, 64, 37
1, 130578, Note_on_c, 0, 60, 37
1, 130578, Note_on_c, 0, 55, 37
1, 130687, Note_on_c, 0, 55, 0
1, 130687, Note_on_c, 0, 60, 0
1, 130687, Note_on_c, 0, 64, 0
1, 130796, Note_on_c, 0, 55, 37
1, 130796, Note_on_c, 0, 59, 37
1, 130796, Note_on_c, 0, 62, 37
1, 130799, Note_on_c, 0, 31, 29
1, 130905, Note_on_c, 0, 62, 0
1, 130905, Note_on_c, 0, 59, 0
1, 130905, Note_on_c, 0, 55, 0
1, 130908, Note_on_c, 0, 31, 0
1, 131014, Note_on_c, 0, 64, 35
1, 131014, Note_on_c, 0, 60, 35
1, 131014, Note_on_c, 0, 55, 35
1, 131017, Note_on_c, 0, 36, 29
1, 131123, Note_on_c, 0, 55, 0
1, 131123, Note_on_c, 0, 60, 0
1, 131123, Note_on_c, 0, 64, 0
1, 131126, Note_on_c, 0, 36, 0
1, 131232, Note_on_c, 0, 29, 30
1, 131338, Note_on_c, 0, 29, 0
1, 131445, Note_on_c, 0, 65, 37
1, 131445, Note_on_c, 0, 60, 37
1, 131445, Note_on_c, 0, 57, 37
1, 131551, Note_on_c, 0, 57, 0
1, 131551, Note_on_c, 0, 60, 0
1, 131551, Note_on_c, 0, 65, 0
1, 131658, Note_on_c, 0, 60, 37
1, 131658, Note_on_c, 0, 64, 37
1, 131658, Note_on_c, 0, 55, 37
1, 131661, Note_on_c, 0, 36, 29
1, 131764, Note_on_c, 0, 55, 0
1, 131764, Note_on_c, 0, 64, 0
1, 131764, Note_on_c, 0, 60, 0
1, 131767, Note_on_c, 0, 36, 0
1, 131871, Note_on_c, 0, 60, 35
1, 131871, Note_on_c, 0, 57, 35
1, 131871, Note_on_c, 0, 62, 35
1, 131874, Note_on_c, 0, 29, 29
1, 131977, Note_on_c, 0, 62, 0
1, 131977, Note_on_c, 0, 57, 0
1, 131977, Note_on_c, 0, 60, 0
1, 131980, Note_on_c, 0, 29, 0
1, 132084, Note_on_c, 0, 36, 33
1, 132189, Note_on_c, 0, 36, 0
1, 132294, Note_on_c, 0, 55, 37
1, 132294, Note_on_c, 0, 60, 37
1, 132294, Note_on_c, 0, 64, 37
1, 132399, Note_on_c, 0, 64, 0
1, 132399, Note_on_c, 0, 60, 0
1, 132399, Note_on_c, 0, 55, 0
1, 132504, Note_on_c, 0, 62, 37
1, 132504, Note_on_c, 0, 59, 37
1, 132504, Note_on_c, 0, 53, 37
1, 132507, Note_on_c, 0, 31, 29
1, 132608, Note_on_c, 0, 53, 0
1, 132608, Note_on_c, 0, 59, 0
1, 132608, Note_on_c, 0, 62, 0
1, 132611, Note_on_c, 0, 31, 0
1, 132713, Note_on_c, 0, 52, 35
1, 132713, Note_on_c, 0, 60, 35
1, 132713, Note_on_c, 0, 36, 29
1, 132818, Note_on_c, 0, 60, 0
1, 132818, Note_on_c, 0, 52, 0
1, 132818, Note_on_c, 0, 36, 0
1, 132923, Note_on_c, 0, 59, 37
1, 132923, Note_on_c, 0, 50, 37
1, 132923, Note_on_c, 0, 62, 37
1, 132926, Note_on_c, 0, 31, 29
1, 133028, Note_on_c, 0, 62, 0
1, 133028, Note_on_c, 0, 50, 0
1, 133028, Note_on_c, 0, 59, 0
1, 133031, Note_on_c, 0, 31, 0
1, 133133, Note_on_c, 0, 55, 37
1, 133133, Note_on_c, 0, 43, 29
1, 133238, Note_on_c, 0, 55, 0
1, 133238, Note_on_c, 0, 43, 0
1, 133343, Note_on_c, 0, 36, 30
1, 133448, Note_on_c, 0, 36, 0
1, 133553, Note_on_c, 0, 60, 37
1, 133553, Note_on_c, 0, 57, 37
1, 133553, Note_on_c, 0, 48, 37
1, 133658, Note_on_c, 0, 48, 0
1, 133658, Note_on_c, 0, 57, 0
1, 133658, Note_on_c, 0, 60, 0
1, 133763, Note_on_c, 0, 55, 29
1, 133763, Note_on_c, 0, 59, 29
1, 133763, Note_on_c, 0, 48, 29
1, 133866, Note_on_c, 0, 48, 0
1, 133866, Note_on_c, 0, 59, 0
1, 133866, Note_on_c, 0, 55, 0
1, 133968, Note_on_c, 0, 67, 37
1, 133968, Note_on_c, 0, 60, 37
1, 133968, Note_on_c, 0, 72, 37
1, 133971, Note_on_c, 0, 71, 37
1, 134071, Note_on_c, 0, 71, 0
1, 134071, Note_on_c, 0, 67, 0
1, 134071, Note_on_c, 0, 60, 0
1, 134074, Note_on_c, 0, 72, 0
1, 134173, Note_on_c, 0, 69, 29
1, 134173, Note_on_c, 0, 65, 29
1, 134173, Note_on_c, 0, 60, 29
1, 134276, Note_on_c, 0, 60, 0
1, 134276, Note_on_c, 0, 65, 0
1, 134276, Note_on_c, 0, 69, 0
1, 134379, Note_on_c, 0, 84, 37
1, 134379, Note_on_c, 0, 81, 37
1, 134379, Note_on_c, 0, 77, 37
1, 134382, Note_on_c, 0, 72, 37
1, 134481, Note_on_c, 0, 72, 0
1, 134481, Note_on_c, 0, 84, 0
1, 134481, Note_on_c, 0, 81, 0
1, 134484, Note_on_c, 0, 77, 0
1, 134584, Note_on_c, 0, 67, 33
1, 134584, Note_on_c, 0, 64, 33
1, 134584, Note_on_c, 0, 60, 33
1, 134686, Note_on_c, 0, 60, 0
1, 134686, Note_on_c, 0, 64, 0
1, 134686, Note_on_c, 0, 67, 0
1, 134789, Note_on_c, 0, 76, 36
1, 134789, Note_on_c, 0, 84, 36
1, 134789, Note_on_c, 0, 79, 36
1, 134892, Note_on_c, 0, 79, 0
1, 134892, Note_on_c, 0, 84, 0
1, 134892, Note_on_c, 0, 76, 0
1, 134994, Note_on_c, 0, 83, 37
1, 134994, Note_on_c, 0, 79, 37
1, 134994, Note_on_c, 0, 74, 37
1, 134997, Note_on_c, 0, 55, 29
1, 135097, Note_on_c, 0, 74, 0
1, 135097, Note_on_c, 0, 79, 0
1, 135097, Note_on_c, 0, 83, 0
1, 135100, Note_on_c, 0, 55, 0
1, 135199, Note_on_c, 0, 76, 35
1, 135199, Note_on_c, 0, 79, 35
1, 135199, Note_on_c, 0, 84, 35
1, 135202, Note_on_c, 0, 60, 29
1, 135302, Note_on_c, 0, 84, 0
1, 135302, Note_on_c, 0, 79, 0
1, 135302, Note_on_c, 0, 76, 0
1, 135305, Note_on_c, 0, 60, 0
1, 135404, Note_on_c, 0, 57, 29
1, 135507, Note_on_c, 0, 57, 0
1, 135610, Note_on_c, 0, 81, 35
1, 135610, Note_on_c, 0, 84, 35
1, 135610, Note_on_c, 0, 88, 35
1, 135712, Note_on_c, 0, 88, 0
1, 135712, Note_on_c, 0, 84, 0
1, 135712, Note_on_c, 0, 81, 0
1, 135815, Note_on_c, 0, 86, 37
1, 135815, Note_on_c, 0, 81, 37
1, 135815, Note_on_c, 0, 77, 37
1, 135818, Note_on_c, 0, 62, 29
1, 135917, Note_on_c, 0, 77, 0
1, 135917, Note_on_c, 0, 81, 0
1, 135917, Note_on_c, 0, 86, 0
1, 135920, Note_on_c, 0, 62, 0
1, 136020, Note_on_c, 0, 76, 35
1, 136020, Note_on_c, 0, 84, 35
1, 136020, Note_on_c, 0, 81, 35
1, 136023, Note_on_c, 0, 57, 29
1, 136122, Note_on_c, 0, 81, 0
1, 136122, Note_on_c, 0, 84, 0
1, 136122, Note_on_c, 0, 76, 0
1, 136125, Note_on_c, 0, 57, 0
1, 136225, Note_on_c, 0, 64, 30
1, 136328, Note_on_c, 0, 64, 0
1, 136430, Note_on_c, 0, 83, 35
1, 136430, Note_on_c, 0, 79, 35
1, 136430, Note_on_c, 0, 76, 35
1, 136533, Note_on_c, 0, 76, 0
1, 136533, Note_on_c, 0, 79, 0
1, 136533, Note_on_c, 0, 83, 0
1, 136635, Note_on_c, 0, 81, 37
1, 136635, Note_on_c, 0, 76, 37
1, 136635, Note_on_c, 0, 72, 37
1, 136638, Note_on_c, 0, 57, 29
1, 136738, Note_on_c, 0, 72, 0
1, 136738, Note_on_c, 0, 76, 0
1, 136738, Note_on_c, 0, 81, 0
1, 136741, Note_on_c, 0, 57, 0
1, 136840, Note_on_c, 0, 79, 35
1, 136840, Note_on_c, 0, 76, 35
1, 136840, Note_on_c, 0, 71, 35
1, 136843, Note_on_c, 0, 64, 29
1, 136943, Note_on_c, 0, 71, 0
1, 136943, Note_on_c, 0, 76, 0
1, 136943, Note_on_c, 0, 79, 0
1, 136946, Note_on_c, 0, 64, 0
1, 137046, Note_on_c, 0, 66, 39
1, 137046, Note_on_c, 0, 75, 39
1, 137046, Note_on_c, 0, 78, 39
1, 137049, Note_on_c, 0, 59, 29
1, 137150, Note_on_c, 0, 78, 0
1, 137150, Note_on_c, 0, 75, 0
1, 137150, Note_on_c, 0, 66, 0
1, 137153, Note_on_c, 0, 59, 0
1, 137254, Note_on_c, 0, 71, 37
1, 137358, Note_on_c, 0, 71, 0
1, 137462, Note_on_c, 0, 64, 29
1, 137566, Note_on_c, 0, 64, 0
1, 137670, Note_on_c, 0, 76, 37
1, 137774, Note_on_c, 0, 76, 0
1, 137878, Note_on_c, 0, 51, 27
1, 137878, Note_on_c, 0, 52, 27
1, 137878, Note_on_c, 0, 63, 27
1, 137984, Note_on_c, 0, 63, 0
1, 137984, Note_on_c, 0, 52, 0
1, 137984, Note_on_c, 0, 51, 0
1, 138090, Note_on_c, 0, 76, 28
1, 138090, Note_on_c, 0, 75, 28
1, 138090, Note_on_c, 0, 64, 28
1, 138195, Note_on_c, 0, 64, 0
1, 138195, Note_on_c, 0, 75, 0
1, 138195, Note_on_c, 0, 76, 0
1, 138301, Note_on_c, 0, 38, 24
1, 138301, Note_on_c, 0, 40, 24
1, 138301, Note_on_c, 0, 50, 24
1, 138410, Note_on_c, 0, 50, 0
1, 138410, Note_on_c, 0, 40, 0
1, 138410, Note_on_c, 0, 38, 0
1, 138518, Note_on_c, 0, 64, 27
1, 138518, Note_on_c, 0, 62, 27
1, 138518, Note_on_c, 0, 52, 27
1, 138627, Note_on_c, 0, 52, 0
1, 138627, Note_on_c, 0, 62, 0
1, 138627, Note_on_c, 0, 64, 0
1, 138736, Control_c, 0, 91, 127
1, 138736, Note_on_c, 0, 24, 27
1, 138736, Control_c, 0, 91, 127
1, 138739, Note_on_c, 0, 36, 29
1, 138839, Note_on_c, 0, 36, 0
1, 138839, Note_on_c, 0, 24, 0
1, 138942, Note_on_c, 0, 55, 28
1, 138942, Note_on_c, 0, 60, 28
1, 138942, Note_on_c, 0, 64, 28
1, 139045, Note_on_c, 0, 64, 0
1, 139045, Note_on_c, 0, 60, 0
1, 139045, Note_on_c, 0, 55, 0
1, 139148, Note_on_c, 0, 62, 29
1, 139148, Note_on_c, 0, 59, 29
1, 139148, Note_on_c, 0, 55, 29
1, 139151, Note_on_c, 0, 31, 24
1, 139251, Note_on_c, 0, 55, 0
1, 139251, Note_on_c, 0, 59, 0
1, 139251, Note_on_c, 0, 62, 0
1, 139254, Note_on_c, 0, 31, 0
1, 139354, Note_on_c, 0, 55, 27
1, 139354, Note_on_c, 0, 64, 27
1, 139354, Note_on_c, 0, 60, 27
1, 139357, Note_on_c, 0, 36, 23
1, 139457, Note_on_c, 0, 60, 0
1, 139457, Note_on_c, 0, 64, 0
1, 139457, Note_on_c, 0, 55, 0
1, 139460, Note_on_c, 0, 36, 0
1, 139560, Note_on_c, 0, 29, 29
1, 139663, Note_on_c, 0, 29, 0
1, 139766, Note_on_c, 0, 65, 35
1, 139766, Note_on_c, 0, 60, 35
1, 139766, Note_on_c, 0, 57, 35
1, 139869, Note_on_c, 0, 57, 0
1, 139869, Note_on_c, 0, 60, 0
1, 139869, Note_on_c, 0, 65, 0
1, 139972, Note_on_c, 0, 64, 35
1, 139972, Note_on_c, 0, 55, 35
1, 139972, Note_on_c, 0, 60, 35
1, 139975, Note_on_c, 0, 36, 27
1, 140075, Note_on_c, 0, 60, 0
1, 140075, Note_on_c, 0, 55, 0
1, 140075, Note_on_c, 0, 64, 0
1, 140078, Note_on_c, 0, 36, 0
1, 140178, Note_on_c, 0, 62, 33
1, 140178, Note_on_c, 0, 57, 33
1, 140178, Note_on_c, 0, 60, 33
1, 140181, Note_on_c, 0, 29, 27
1, 140281, Note_on_c, 0, 60, 0
1, 140281, Note_on_c, 0, 57, 0
1, 140281, Note_on_c, 0, 62, 0
1, 140284, Note_on_c, 0, 29, 0
1, 140384, Note_on_c, 0, 36, 29
1, 140485, Note_on_c, 0, 36, 0
1, 140587, Note_on_c, 0, 64, 33
1, 140587, Note_on_c, 0, 60, 33
1, 140587, Note_on_c, 0, 55, 33
1, 140688, Note_on_c, 0, 55, 0
1, 140688, Note_on_c, 0, 60, 0
1, 140688, Note_on_c, 0, 64, 0
1, 140789, Note_on_c, 0, 53, 33
1, 140789, Note_on_c, 0, 62, 33
1, 140789, Note_on_c, 0, 59, 33
1, 140792, Note_on_c, 0, 31, 26
1, 140890, Note_on_c, 0, 59, 0
1, 140890, Note_on_c, 0, 62, 0
1, 140890, Note_on_c, 0, 53, 0
1, 140893, Note_on_c, 0, 31, 0
1, 140991, Note_on_c, 0, 52, 31
1, 140991, Note_on_c, 0, 60, 31
1, 140991, Note_on_c, 0, 36, 25
1, 141093, Note_on_c, 0, 60, 0
1, 141093, Note_on_c, 0, 52, 0
1, 141093, Note_on_c, 0, 36, 0
1, 141194, Note_on_c, 0, 50, 31
1, 141194, Note_on_c, 0, 62, 31
1, 141194, Note_on_c, 0, 59, 31
1, 141197, Note_on_c, 0, 31, 25
1, 141298, Note_on_c, 0, 59, 0
1, 141298, Note_on_c, 0, 62, 0
1, 141298, Note_on_c, 0, 50, 0
1, 141301, Note_on_c, 0, 31, 0
1, 141403, Note_on_c, 0, 55, 30
1, 141403, Note_on_c, 0, 43, 24
1, 141507, Note_on_c, 0, 55, 0
1, 141507, Note_on_c, 0, 43, 0
1, 141612, Note_on_c, 0, 36, 26
1, 141716, Note_on_c, 0, 36, 0
1, 141821, Note_on_c, 0, 60, 30
1, 141821, Note_on_c, 0, 48, 30
1, 141925, Note_on_c, 0, 48, 0
1, 141925, Note_on_c, 0, 60, 0
1, 142030, Note_on_c, 0, 46, 22
1, 142030, Note_on_c, 0, 58, 22
1, 142030, Note_on_c, 0, 48, 22
1, 142138, Note_on_c, 0, 48, 0
1, 142138, Note_on_c, 0, 58, 0
1, 142138, Note_on_c, 0, 46, 0
1, 142247, Note_on_c, 0, 72, 26
1, 142247, Note_on_c, 0, 70, 26
1, 142247, Note_on_c, 0, 60, 26
1, 142355, Note_on_c, 0, 60, 0
1, 142355, Note_on_c, 0, 70, 0
1, 142355, Note_on_c, 0, 72, 0
1, 142464, Note_on_c, 0, 68, 19
1, 142464, Note_on_c, 0, 60, 19
1, 142464, Note_on_c, 0, 56, 19
1, 142578, Note_on_c, 0, 56, 0
1, 142578, Note_on_c, 0, 60, 0
1, 142578, Note_on_c, 0, 68, 0
1, 142692, Note_on_c, 0, 84, 24
1, 142692, Note_on_c, 0, 80, 24
1, 142692, Note_on_c, 0, 72, 24
1, 142806, Note_on_c, 0, 72, 0
1, 142806, Note_on_c, 0, 80, 0
1, 142806, Note_on_c, 0, 84, 0
1, 142920, Control_c, 0, 64, 127
1, 142920, Note_on_c, 0, 31, 27
1, 143148, Note_on_c, 0, 84, 29
1, 143148, Note_on_c, 0, 79, 29
1, 143148, Note_on_c, 0, 75, 29
1, 143357, Control_c, 0, 64, 0
1, 143367, Note_on_c, 0, 75, 0
1, 143367, Note_on_c, 0, 84, 0
1, 143367, Note_on_c, 0, 83, 29
1, 143370, Note_on_c, 0, 74, 29
1, 143370, Note_on_c, 0, 48, 18
1, 143419, Control_c, 0, 64, 127
1, 143586, Note_on_c, 0, 74, 0
1, 143586, Note_on_c, 0, 83, 0
1, 143586, Note_on_c, 0, 75, 28
1, 143589, Note_on_c, 0, 84, 28
1, 143659, Control_c, 0, 64, 0
1, 143805, Note_on_c, 0, 84, 0
1, 143805, Note_on_c, 0, 75, 0
1, 143805, Note_on_c, 0, 79, 0
1, 143808, Note_on_c, 0, 48, 0
1, 143808, Note_on_c, 0, 31, 0
1, 143808, Control_c, 0, 64, 127
1, 143811, Note_on_c, 0, 43, 24
1, 143811, Note_on_c, 0, 51, 24
1, 144025, Note_on_c, 0, 72, 26
1, 144025, Note_on_c, 0, 79, 26
1, 144025, Note_on_c, 0, 75, 26
1, 144230, Note_on_c, 0, 75, 0
1, 144230, Note_on_c, 0, 79, 0
1, 144230, Note_on_c, 0, 74, 26
1, 144233, Note_on_c, 0, 77, 26
1, 144233, Note_on_c, 0, 51, 0
1, 144233, Note_on_c, 0, 55, 19
1, 144254, Control_c, 0, 64, 0
1, 144314, Control_c, 0, 64, 127
1, 144435, Note_on_c, 0, 77, 0
1, 144435, Note_on_c, 0, 74, 0
1, 144435, Note_on_c, 0, 75, 25
1, 144438, Note_on_c, 0, 79, 25
1, 144543, Control_c, 0, 64, 0
1, 144640, Note_on_c, 0, 79, 0
1, 144640, Note_on_c, 0, 75, 0
1, 144640, Note_on_c, 0, 72, 0
1, 144643, Note_on_c, 0, 43, 0
1, 144643, Control_c, 0, 64, 127
1, 144643, Note_on_c, 0, 60, 22
1, 144845, Note_on_c, 0, 75, 26
1, 144845, Note_on_c, 0, 67, 26
1, 144845, Note_on_c, 0, 72, 26
1, 145027, Control_c, 0, 64, 0
1, 145046, Note_on_c, 0, 72, 0
1, 145046, Note_on_c, 0, 75, 0
1, 145046, Note_on_c, 0, 71, 26
1, 145049, Note_on_c, 0, 74, 26
1, 145049, Note_on_c, 0, 60, 0
1, 145049, Note_on_c, 0, 63, 20
1, 145093, Control_c, 0, 64, 127
1, 145246, Note_on_c, 0, 74, 0
1, 145246, Note_on_c, 0, 71, 0
1, 145246, Note_on_c, 0, 72, 26
1, 145249, Note_on_c, 0, 75, 26
1, 145332, Control_c, 0, 64, 0
1, 145447, Note_on_c, 0, 75, 0
1, 145447, Note_on_c, 0, 72, 0
1, 145447, Note_on_c, 0, 67, 0
1, 145450, Note_on_c, 0, 72, 29
1, 145450, Note_on_c, 0, 68, 29
1, 145450, Note_on_c, 0, 63, 0
1, 145453, Note_on_c, 0, 55, 0
1, 145453, Control_c, 0, 64, 127
1, 145453, Note_on_c, 0, 31, 22
1, 145859, Note_on_c, 0, 68, 0
1, 145859, Note_on_c, 0, 72, 0
1, 145859, Note_on_c, 0, 68, 27
1, 145862, Note_on_c, 0, 65, 27
1, 145862, Note_on_c, 0, 72, 27
1, 146271, Note_on_c, 0, 72, 0
1, 146271, Note_on_c, 0, 65, 0
1, 146271, Note_on_c, 0, 68, 0
1, 146274, Note_on_c, 0, 72, 26
1, 146274, Note_on_c, 0, 68, 26
1, 146274, Note_on_c, 0, 60, 26
1, 146277, Note_on_c, 0, 31, 0
1, 146277, Control_c, 0, 64, 0
1, 146277, Note_on_c, 0, 43, 18
1, 146334, Control_c, 0, 64, 127
1, 146645, Control_c, 0, 64, 0
1, 146707, Note_on_c, 0, 60, 0
1, 146707, Note_on_c, 0, 68, 0
1, 146707, Note_on_c, 0, 72, 0
1, 146710, Note_on_c, 0, 65, 25
1, 146710, Note_on_c, 0, 73, 25
1, 146710, Note_on_c, 0, 56, 17
1, 146853, Control_c, 0, 64, 127
1, 147019, Control_c, 0, 64, 0
1, 147144, Note_on_c, 0, 73, 0
1, 147144, Note_on_c, 0, 65, 0
1, 147144, Note_on_c, 0, 56, 0
1, 147147, Note_on_c, 0, 43, 0
1, 147147, Control_c, 0, 64, 127
1, 147147, Note_on_c, 0, 31, 24
1, 147368, Note_on_c, 0, 80, 29
1, 147368, Note_on_c, 0, 86, 29
1, 147368, Note_on_c, 0, 77, 29
1, 147555, Control_c, 0, 64, 0
1, 147579, Note_on_c, 0, 77, 0
1, 147579, Note_on_c, 0, 86, 0
1, 147579, Note_on_c, 0, 84, 29
1, 147582, Note_on_c, 0, 75, 29
1, 147582, Note_on_c, 0, 50, 18
1, 147666, Control_c, 0, 64, 127
1, 147790, Note_on_c, 0, 75, 0
1, 147790, Note_on_c, 0, 84, 0
1, 147790, Note_on_c, 0, 77, 27
1, 147793, Note_on_c, 0, 86, 27
1, 147877, Control_c, 0, 64, 0
1, 148001, Note_on_c, 0, 86, 0
1, 148001, Note_on_c, 0, 77, 0
1, 148001, Note_on_c, 0, 80, 0
1, 148004, Note_on_c, 0, 50, 0
1, 148004, Note_on_c, 0, 31, 0
1, 148004, Control_c, 0, 64, 127
1, 148007, Note_on_c, 0, 43, 19
1, 148007, Note_on_c, 0, 55, 19
1, 148212, Note_on_c, 0, 82, 26
1, 148212, Note_on_c, 0, 79, 26
1, 148212, Note_on_c, 0, 74, 26
1, 148344, Control_c, 0, 64, 0
1, 148417, Note_on_c, 0, 79, 0
1, 148417, Note_on_c, 0, 82, 0
1, 148417, Note_on_c, 0, 77, 26
1, 148420, Note_on_c, 0, 80, 26
1, 148420, Note_on_c, 0, 55, 0
1, 148420, Note_on_c, 0, 58, 19
1, 148441, Control_c, 0, 64, 127
1, 148622, Note_on_c, 0, 80, 0
1, 148622, Note_on_c, 0, 77, 0
1, 148622, Note_on_c, 0, 82, 26
1, 148625, Note_on_c, 0, 79, 26
1, 148719, Control_c, 0, 64, 0
1, 148827, Note_on_c, 0, 79, 0
1, 148827, Note_on_c, 0, 82, 0
1, 148827, Note_on_c, 0, 74, 0
1, 148830, Note_on_c, 0, 58, 0
1, 148830, Note_on_c, 0, 43, 0
1, 148830, Note_on_c, 0, 55, 20
1, 148833, Note_on_c, 0, 63, 20
1, 148875, Control_c, 0, 64, 127
1, 149033, Note_on_c, 0, 79, 26
1, 149033, Note_on_c, 0, 70, 26
1, 149033, Note_on_c, 0, 75, 26
1, 149198, Control_c, 0, 64, 0
1, 149233, Note_on_c, 0, 75, 0
1, 149233, Note_on_c, 0, 79, 0
1, 149233, Note_on_c, 0, 77, 26
1, 149236, Note_on_c, 0, 74, 26
1, 149236, Note_on_c, 0, 63, 0
1, 149236, Note_on_c, 0, 67, 20
1, 149280, Control_c, 0, 64, 127
1, 149434, Note_on_c, 0, 74, 0
1, 149434, Note_on_c, 0, 77, 0
1, 149434, Note_on_c, 0, 75, 26
1, 149437, Note_on_c, 0, 79, 26
1, 149575, Control_c, 0, 64, 0
1, 149634, Note_on_c, 0, 79, 0
1, 149634, Note_on_c, 0, 75, 0
1, 149634, Note_on_c, 0, 70, 0
1, 149637, Note_on_c, 0, 75, 29
1, 149637, Note_on_c, 0, 72, 29
1, 149637, Note_on_c, 0, 67, 0
1, 149640, Note_on_c, 0, 55, 0
1, 149640, Control_c, 0, 64, 127
1, 149640, Note_on_c, 0, 31, 22
1, 150046, Note_on_c, 0, 72, 0
1, 150046, Note_on_c, 0, 75, 0
1, 150046, Note_on_c, 0, 68, 27
1, 150049, Note_on_c, 0, 75, 27
1, 150049, Note_on_c, 0, 72, 27
1, 150321, Control_c, 0, 64, 0
1, 150459, Note_on_c, 0, 72, 0
1, 150459, Note_on_c, 0, 75, 0
1, 150459, Note_on_c, 0, 68, 0
1, 150462, Note_on_c, 0, 72, 26
1, 150462, Note_on_c, 0, 75, 26
1, 150462, Note_on_c, 0, 63, 26
1, 150465, Note_on_c, 0, 31, 0
1, 150465, Control_c, 0, 64, 127
1, 150465, Note_on_c, 0, 43, 18
1, 150861, Control_c, 0, 64, 0
1, 150885, Note_on_c, 0, 63, 0
1, 150885, Note_on_c, 0, 75, 0
1, 150885, Note_on_c, 0, 72, 0
1, 150888, Note_on_c, 0, 68, 25
1, 150888, Note_on_c, 0, 77, 25
1, 150888, Note_on_c, 0, 60, 17
1, 150979, Control_c, 0, 64, 127
1, 151192, Control_c, 0, 64, 0
1, 151310, Note_on_c, 0, 77, 0
1, 151310, Note_on_c, 0, 68, 0
1, 151310, Note_on_c, 0, 60, 0
1, 151313, Note_on_c, 0, 43, 0
1, 151313, Control_c, 0, 64, 127
1, 151313, Note_on_c, 0, 31, 22
1, 151530, Note_on_c, 0, 86, 29
1, 151530, Note_on_c, 0, 91, 29
1, 151530, Note_on_c, 0, 82, 29
1, 151738, Note_on_c, 0, 82, 0
1, 151738, Note_on_c, 0, 91, 0
1, 151738, Note_on_c, 0, 89, 29
1, 151741, Note_on_c, 0, 80, 29
1, 151741, Note_on_c, 0, 55, 18
1, 151774, Control_c, 0, 64, 0
1, 151823, Control_c, 0, 64, 127
1, 151946, Note_on_c, 0, 80, 0
1, 151946, Note_on_c, 0, 89, 0
1, 151946, Note_on_c, 0, 82, 27
1, 151949, Note_on_c, 0, 91, 27
1, 151949, Note_on_c, 0, 43, 20
1, 152031, Control_c, 0, 64, 0
1, 152154, Note_on_c, 0, 91, 0
1, 152154, Note_on_c, 0, 82, 0
1, 152154, Note_on_c, 0, 86, 0
1, 152157, Note_on_c, 0, 55, 0
1, 152157, Note_on_c, 0, 31, 0
1, 152157, Note_on_c, 0, 60, 20
1, 152178, Control_c, 0, 64, 127
1, 152362, Note_on_c, 0, 84, 26
1, 152362, Note_on_c, 0, 87, 26
1, 152362, Note_on_c, 0, 79, 26
1, 152470, Control_c, 0, 64, 0
1, 152567, Note_on_c, 0, 87, 0
1, 152567, Note_on_c, 0, 84, 0
1, 152567, Note_on_c, 0, 82, 26
1, 152570, Note_on_c, 0, 86, 26
1, 152570, Note_on_c, 0, 60, 0
1, 152570, Control_c, 0, 64, 127
1, 152573, Note_on_c, 0, 63, 19
1, 152772, Note_on_c, 0, 86, 0
1, 152772, Note_on_c, 0, 82, 0
1, 152772, Note_on_c, 0, 87, 26
1, 152775, Note_on_c, 0, 84, 26
1, 152892, Control_c, 0, 64, 0
1, 152977, Note_on_c, 0, 84, 0
1, 152977, Note_on_c, 0, 87, 0
1, 152977, Note_on_c, 0, 79, 0
1, 152980, Note_on_c, 0, 63, 0
1, 152980, Note_on_c, 0, 43, 0
1, 152980, Note_on_c, 0, 55, 18
1, 152983, Note_on_c, 0, 68, 18
1, 152989, Control_c, 0, 64, 127
1, 153182, Note_on_c, 0, 84, 26
1, 153182, Note_on_c, 0, 75, 26
1, 153182, Note_on_c, 0, 80, 26
1, 153348, Control_c, 0, 64, 0
1, 153383, Note_on_c, 0, 80, 0
1, 153383, Note_on_c, 0, 84, 0
1, 153383, Note_on_c, 0, 82, 26
1, 153386, Note_on_c, 0, 79, 26
1, 153386, Note_on_c, 0, 68, 0
1, 153386, Note_on_c, 0, 72, 20
1, 153442, Control_c, 0, 64, 127
1, 153583, Note_on_c, 0, 79, 0
1, 153583, Note_on_c, 0, 82, 0
1, 153583, Note_on_c, 0, 80, 26
1, 153586, Note_on_c, 0, 84, 26
1, 153689, Control_c, 0, 64, 0
1, 153784, Note_on_c, 0, 84, 0
1, 153784, Note_on_c, 0, 80, 0
1, 153784, Note_on_c, 0, 75, 0
1, 153787, Note_on_c, 0, 80, 30
1, 153787, Note_on_c, 0, 77, 30
1, 153787, Note_on_c, 0, 72, 0
1, 153790, Note_on_c, 0, 55, 0
1, 153790, Control_c, 0, 64, 127
1, 153790, Note_on_c, 0, 31, 22
1, 154196, Note_on_c, 0, 77, 0
1, 154196, Note_on_c, 0, 80, 0
1, 154196, Note_on_c, 0, 80, 30
1, 154199, Note_on_c, 0, 74, 30
1, 154199, Note_on_c, 0, 77, 30
1, 154402, Control_c, 0, 64, 0
1, 154608, Note_on_c, 0, 77, 0
1, 154608, Note_on_c, 0, 74, 0
1, 154608, Note_on_c, 0, 80, 0
1, 154611, Note_on_c, 0, 77, 30
1, 154611, Note_on_c, 0, 80, 30
1, 154611, Note_on_c, 0, 68, 30
1, 154614, Note_on_c, 0, 31, 0
1, 154614, Note_on_c, 0, 43, 22
1, 154654, Control_c, 0, 64, 127
1, 155020, Note_on_c, 0, 68, 0
1, 155020, Note_on_c, 0, 80, 0
1, 155020, Note_on_c, 0, 77, 0
1, 155023, Note_on_c, 0, 74, 30
1, 155023, Note_on_c, 0, 80, 30
1, 155023, Note_on_c, 0, 65, 22
1, 155044, Control_c, 0, 64, 0
1, 155181, Control_c, 0, 64, 127
1, 155419, Control_c, 0, 64, 0
1, 155433, Note_on_c, 0, 80, 0
1, 155433, Note_on_c, 0, 74, 0
1, 155433, Note_on_c, 0, 72, 29
1, 155436, Note_on_c, 0, 75, 29
1, 155436, Note_on_c, 0, 78, 29
1, 155436, Note_on_c, 0, 81, 29
1, 155439, Note_on_c, 0, 65, 0
1, 155439, Note_on_c, 0, 43, 0
1, 155439, Note_on_c, 0, 63, 22
1, 155442, Note_on_c, 0, 55, 22
1, 155589, Control_c, 0, 64, 127
1, 155845, Note_on_c, 0, 81, 0
1, 155845, Note_on_c, 0, 72, 0
1, 155845, Note_on_c, 0, 75, 0
1, 155848, Note_on_c, 0, 78, 0
1, 155848, Note_on_c, 0, 78, 28
1, 155848, Note_on_c, 0, 81, 28
1, 155851, Note_on_c, 0, 72, 28
1, 155851, Note_on_c, 0, 75, 28
1, 155851, Note_on_c, 0, 63, 0
1, 155854, Note_on_c, 0, 60, 22
1, 156257, Note_on_c, 0, 75, 0
1, 156257, Note_on_c, 0, 78, 0
1, 156257, Note_on_c, 0, 81, 0
1, 156260, Note_on_c, 0, 72, 0
1, 156260, Note_on_c, 0, 72, 30
1, 156260, Note_on_c, 0, 75, 30
1, 156263, Note_on_c, 0, 78, 30
1, 156263, Note_on_c, 0, 81, 30
1, 156263, Note_on_c, 0, 60, 0
1, 156266, Note_on_c, 0, 57, 22
1, 156669, Note_on_c, 0, 81, 0
1, 156669, Note_on_c, 0, 72, 0
1, 156669, Note_on_c, 0, 75, 0
1, 156672, Note_on_c, 0, 78, 0
1, 156672, Note_on_c, 0, 78, 30
1, 156672, Note_on_c, 0, 72, 30
1, 156675, Note_on_c, 0, 75, 30
1, 156675, Note_on_c, 0, 81, 30
1, 156675, Note_on_c, 0, 57, 0
1, 156678, Note_on_c, 0, 55, 0
1, 156678, Note_on_c, 0, 54, 22
1, 156896, Control_c, 0, 64, 0
1, 156978, Note_on_c, 0, 54, 0
1, 156978, Note_on_c, 0, 43, 17
1, 157030, Note_on_c, 0, 48, 17
1, 157081, Note_on_c, 0, 81, 0
1, 157081, Note_on_c, 0, 78, 0
1, 157081, Note_on_c, 0, 72, 0
1, 157084, Note_on_c, 0, 75, 0
1, 157084, Control_c, 0, 91, 127
1, 157084, Control_c, 0, 91, 127
1, 157087, Note_on_c, 0, 51, 28
1, 157179, Note_on_c, 0, 51, 0
1, 157179, Note_on_c, 0, 48, 0
1, 157179, Note_on_c, 0, 43, 0
1, 157374, Note_on_c, 0, 43, 24
1, 157423, Note_on_c, 0, 48, 24
1, 157472, Note_on_c, 0, 87, 31
1, 157472, Note_on_c, 0, 51, 29
1, 157481, Control_c, 0, 64, 127
1, 157570, Note_on_c, 0, 87, 0
1, 157570, Note_on_c, 0, 84, 30
1, 157570, Note_on_c, 0, 51, 0
1, 157573, Note_on_c, 0, 48, 0
1, 157573, Note_on_c, 0, 43, 0
1, 157667, Note_on_c, 0, 84, 0
1, 157667, Note_on_c, 0, 81, 34
1, 157765, Note_on_c, 0, 81, 0
1, 157765, Note_on_c, 0, 78, 34
1, 157765, Note_on_c, 0, 43, 26
1, 157814, Note_on_c, 0, 48, 26
1, 157863, Note_on_c, 0, 78, 0
1, 157863, Note_on_c, 0, 72, 37
1, 157863, Note_on_c, 0, 51, 29
1, 157960, Note_on_c, 0, 72, 0
1, 157960, Note_on_c, 0, 69, 36
1, 157960, Note_on_c, 0, 51, 0
1, 157963, Note_on_c, 0, 48, 0
1, 157963, Note_on_c, 0, 43, 0
1, 158058, Note_on_c, 0, 69, 0
1, 158058, Note_on_c, 0, 66, 39
1, 158156, Note_on_c, 0, 66, 0
1, 158156, Note_on_c, 0, 63, 38
1, 158156, Note_on_c, 0, 43, 26
1, 158205, Note_on_c, 0, 48, 26
1, 158253, Note_on_c, 0, 63, 0
1, 158253, Note_on_c, 0, 51, 30
1, 158253, Note_on_c, 0, 57, 30
1, 158351, Note_on_c, 0, 57, 0
1, 158351, Note_on_c, 0, 43, 0
1, 158351, Note_on_c, 0, 48, 0
1, 158354, Note_on_c, 0, 51, 0
1, 158354, Note_on_c, 0, 54, 35
1, 158449, Note_on_c, 0, 54, 0
1, 158449, Note_on_c, 0, 51, 37
1, 158546, Note_on_c, 0, 51, 0
1, 158546, Note_on_c, 0, 48, 39
1, 158590, Control_c, 0, 64, 0
1, 158644, Note_on_c, 0, 48, 0
1, 158644, Note_on_c, 0, 43, 41
1, 158644, Note_on_c, 0, 55, 41
1, 158778, Control_c, 0, 64, 127
1, 159021, Control_c, 0, 64, 0
1, 159066, Note_on_c, 0, 55, 0
1, 159066, Note_on_c, 0, 43, 0
1, 159066, Note_on_c, 0, 41, 27
1, 159069, Note_on_c, 0, 43, 27
1, 159069, Note_on_c, 0, 55, 27
1, 159199, Control_c, 0, 64, 127
1, 159377, Control_c, 0, 64, 0
1, 159488, Note_on_c, 0, 55, 0
1, 159488, Note_on_c, 0, 43, 0
1, 159488, Note_on_c, 0, 41, 0
1, 159491, Note_on_c, 0, 39, 27
1, 159491, Note_on_c, 0, 43, 27
1, 159491, Note_on_c, 0, 55, 27
1, 159577, Control_c, 0, 64, 127
1, 159843, Control_c, 0, 64, 0
1, 159910, Note_on_c, 0, 55, 0
1, 159910, Note_on_c, 0, 43, 0
1, 159910, Note_on_c, 0, 39, 0
1, 159913, Note_on_c, 0, 38, 27
1, 159913, Note_on_c, 0, 43, 27
1, 159913, Note_on_c, 0, 53, 27
1, 159916, Note_on_c, 0, 55, 27
1, 159994, Control_c, 0, 64, 127
1, 160142, Control_c, 0, 64, 0
1, 160311, Note_on_c, 0, 55, 0
1, 160311, Note_on_c, 0, 38, 0
1, 160311, Note_on_c, 0, 43, 0
1, 160314, Note_on_c, 0, 53, 0
1, 160314, Note_on_c, 0, 51, 27
1, 160314, Note_on_c, 0, 55, 27
1, 160317, Note_on_c, 0, 36, 27
1, 160317, Note_on_c, 0, 43, 27
1, 160444, Control_c, 0, 64, 127
1, 160654, Control_c, 0, 64, 0
1, 160712, Note_on_c, 0, 43, 0
1, 160712, Note_on_c, 0, 51, 0
1, 160712, Note_on_c, 0, 55, 0
1, 160715, Note_on_c, 0, 36, 0
1, 160715, Note_on_c, 0, 35, 26
1, 160715, Note_on_c, 0, 39, 26
1, 160718, Note_on_c, 0, 47, 26
1, 160718, Note_on_c, 0, 51, 26
1, 160718, Note_on_c, 0, 57, 26
1, 160790, Control_c, 0, 64, 127
1, 161109, Control_c, 0, 64, 0
1, 161126, Note_on_c, 0, 57, 0
1, 161126, Note_on_c, 0, 47, 0
1, 161126, Note_on_c, 0, 35, 0
1, 161129, Note_on_c, 0, 39, 0
1, 161129, Note_on_c, 0, 51, 0
1, 161129, Note_on_c, 0, 34, 26
1, 161132, Note_on_c, 0, 41, 26
1, 161132, Note_on_c, 0, 46, 26
1, 161132, Note_on_c, 0, 50, 26
1, 161135, Note_on_c, 0, 58, 26
1, 161215, Control_c, 0, 64, 127
1, 161517, Note_on_c, 0, 101, 45
1, 161517, Note_on_c, 0, 22, 25
1, 161517, Note_on_c, 0, 34, 25
1, 161614, Note_on_c, 0, 101, 0
1, 161614, Note_on_c, 0, 98, 41
1, 161712, Note_on_c, 0, 98, 0
1, 161712, Note_on_c, 0, 89, 35
1, 161712, Note_on_c, 0, 34, 0
1, 161715, Note_on_c, 0, 22, 0
1, 161810, Note_on_c, 0, 89, 0
1, 161810, Note_on_c, 0, 85, 33
1, 161907, Note_on_c, 0, 85, 0
1, 161907, Note_on_c, 0, 86, 35
1, 161907, Note_on_c, 0, 34, 0
1, 161910, Note_on_c, 0, 41, 0
1, 161910, Note_on_c, 0, 22, 25
1, 161910, Note_on_c, 0, 34, 25
1, 162005, Note_on_c, 0, 86, 0
1, 162005, Note_on_c, 0, 82, 33
1, 162103, Note_on_c, 0, 82, 0
1, 162103, Note_on_c, 0, 74, 35
1, 162103, Note_on_c, 0, 34, 0
1, 162106, Note_on_c, 0, 22, 0
1, 162200, Note_on_c, 0, 74, 0
1, 162200, Note_on_c, 0, 69, 35
1, 162298, Note_on_c, 0, 69, 0
1, 162298, Note_on_c, 0, 70, 35
1, 162298, Note_on_c, 0, 22, 25
1, 162301, Note_on_c, 0, 34, 25
1, 162396, Note_on_c, 0, 70, 0
1, 162396, Note_on_c, 0, 65, 33
1, 162493, Note_on_c, 0, 65, 0
1, 162493, Note_on_c, 0, 62, 35
1, 162493, Note_on_c, 0, 34, 0
1, 162496, Note_on_c, 0, 22, 0
1, 162591, Note_on_c, 0, 62, 0
1, 162591, Note_on_c, 0, 60, 33
1, 162656, Control_c, 0, 64, 0
1, 162689, Note_on_c, 0, 60, 0
1, 162689, Note_on_c, 0, 50, 0
1, 162689, Note_on_c, 0, 58, 0
1, 162692, Note_on_c, 0, 46, 0
1, 162692, Note_on_c, 0, 46, 25
1, 162692, Note_on_c, 0, 58, 25
1, 162767, Control_c, 0, 64, 127
1, 162983, Control_c, 0, 64, 0
1, 163101, Note_on_c, 0, 58, 0
1, 163101, Note_on_c, 0, 46, 0
1, 163101, Note_on_c, 0, 42, 25
1, 163104, Note_on_c, 0, 58, 25
1, 163219, Control_c, 0, 64, 127
1, 163395, Control_c, 0, 64, 0
1, 163513, Note_on_c, 0, 58, 0
1, 163513, Note_on_c, 0, 42, 0
1, 163513, Control_c, 0, 64, 127
1, 163516, Note_on_c, 0, 39, 25
1, 163516, Note_on_c, 0, 54, 25
1, 163516, Note_on_c, 0, 58, 25
1, 163793, Control_c, 0, 64, 0
1, 163933, Note_on_c, 0, 58, 0
1, 163933, Note_on_c, 0, 54, 0
1, 163933, Note_on_c, 0, 39, 0
1, 163936, Note_on_c, 0, 35, 22
1, 163936, Note_on_c, 0, 51, 22
1, 163936, Note_on_c, 0, 54, 22
1, 163939, Note_on_c, 0, 59, 22
1, 163973, Control_c, 0, 64, 127
1, 164353, Note_on_c, 0, 59, 0
1, 164353, Note_on_c, 0, 35, 0
1, 164353, Note_on_c, 0, 51, 0
1, 164356, Note_on_c, 0, 54, 0
1, 164356, Note_on_c, 0, 32, 22
1, 164356, Note_on_c, 0, 51, 22
1, 164359, Note_on_c, 0, 56, 22
1, 164359, Note_on_c, 0, 59, 22
1, 164724, Control_c, 0, 64, 0
1, 164763, Note_on_c, 0, 59, 0
1, 164763, Note_on_c, 0, 32, 0
1, 164763, Note_on_c, 0, 51, 0
1, 164766, Note_on_c, 0, 56, 0
1, 164800, Note_on_c, 0, 28, 18
1, 164800, Note_on_c, 0, 40, 18
1, 164800, Note_on_c, 0, 56, 18
1, 164803, Note_on_c, 0, 59, 18
1, 164803, Note_on_c, 0, 64, 18
1, 164828, Control_c, 0, 64, 127
1, 165241, Control_c, 0, 64, 0
1, 165280, Note_on_c, 0, 64, 0
1, 165280, Note_on_c, 0, 56, 0
1, 165280, Note_on_c, 0, 28, 0
1, 165283, Note_on_c, 0, 40, 0
1, 165283, Note_on_c, 0, 59, 0
1, 165283, Note_on_c, 0, 35, 18
1, 165286, Note_on_c, 0, 47, 18
1, 165286, Note_on_c, 0, 54, 18
1, 165286, Note_on_c, 0, 59, 18
1, 165289, Note_on_c, 0, 63, 18
1, 165359, Control_c, 0, 64, 127
1, 165671, Note_on_c, 0, 102, 48
1, 165671, Note_on_c, 0, 23, 25
1, 165671, Note_on_c, 0, 35, 25
1, 165769, Note_on_c, 0, 102, 0
1, 165769, Note_on_c, 0, 99, 35
1, 165866, Note_on_c, 0, 99, 0
1, 165866, Note_on_c, 0, 90, 35
1, 165866, Note_on_c, 0, 35, 0
1, 165869, Note_on_c, 0, 23, 0
1, 165964, Note_on_c, 0, 90, 0
1, 165964, Note_on_c, 0, 86, 31
1, 166062, Note_on_c, 0, 86, 0
1, 166062, Note_on_c, 0, 87, 35
1, 166062, Note_on_c, 0, 35, 0
1, 166065, Note_on_c, 0, 47, 0
1, 166065, Note_on_c, 0, 23, 25
1, 166065, Note_on_c, 0, 35, 25
1, 166159, Note_on_c, 0, 87, 0
1, 166159, Note_on_c, 0, 83, 33
1, 166257, Note_on_c, 0, 83, 0
1, 166257, Note_on_c, 0, 75, 35
1, 166257, Note_on_c, 0, 35, 0
1, 166260, Note_on_c, 0, 23, 0
1, 166355, Note_on_c, 0, 75, 0
1, 166355, Note_on_c, 0, 70, 35
1, 166452, Note_on_c, 0, 70, 0
1, 166452, Note_on_c, 0, 71, 35
1, 166452, Note_on_c, 0, 23, 25
1, 166455, Note_on_c, 0, 35, 25
1, 166550, Note_on_c, 0, 71, 0
1, 166550, Note_on_c, 0, 66, 33
1, 166648, Note_on_c, 0, 66, 0
1, 166648, Note_on_c, 0, 63, 35
1, 166648, Note_on_c, 0, 35, 0
1, 166651, Note_on_c, 0, 23, 0
1, 166745, Note_on_c, 0, 63, 0
1, 166745, Note_on_c, 0, 61, 33
1, 166778, Control_c, 0, 64, 0
1, 166843, Note_on_c, 0, 61, 0
1, 166843, Note_on_c, 0, 59, 0
1, 166843, Note_on_c, 0, 63, 0
1, 166846, Note_on_c, 0, 54, 0
1, 166846, Control_c, 0, 64, 127
1, 166846, Note_on_c, 0, 47, 27
1, 166849, Note_on_c, 0, 59, 27
1, 167114, Control_c, 0, 64, 0
1, 167244, Note_on_c, 0, 59, 0
1, 167244, Note_on_c, 0, 47, 0
1, 167244, Control_c, 0, 64, 127
1, 167247, Note_on_c, 0, 47, 27
1, 167247, Note_on_c, 0, 59, 27
1, 167247, Note_on_c, 0, 45, 27
1, 167660, Note_on_c, 0, 45, 0
1, 167660, Note_on_c, 0, 59, 0
1, 167660, Note_on_c, 0, 47, 0
1, 167663, Control_c, 0, 64, 0
1, 167663, Note_on_c, 0, 43, 27
1, 167663, Note_on_c, 0, 47, 27
1, 167666, Note_on_c, 0, 59, 27
1, 167705, Control_c, 0, 64, 127
1, 168054, Control_c, 0, 64, 0
1, 168076, Note_on_c, 0, 59, 0
1, 168076, Note_on_c, 0, 47, 0
1, 168076, Note_on_c, 0, 43, 0
1, 168079, Note_on_c, 0, 42, 30
1, 168079, Note_on_c, 0, 47, 30
1, 168079, Note_on_c, 0, 59, 30
1, 168082, Note_on_c, 0, 57, 30
1, 168189, Control_c, 0, 64, 127
1, 168402, Control_c, 0, 64, 0
1, 168492, Note_on_c, 0, 57, 0
1, 168492, Note_on_c, 0, 42, 0
1, 168492, Note_on_c, 0, 47, 0
1, 168495, Note_on_c, 0, 59, 0
1, 168495, Note_on_c, 0, 40, 30
1, 168495, Note_on_c, 0, 47, 30
1, 168498, Note_on_c, 0, 55, 30
1, 168498, Note_on_c, 0, 59, 30
1, 168554, Control_c, 0, 64, 127
1, 168799, Control_c, 0, 64, 0
1, 168922, Note_on_c, 0, 59, 0
1, 168922, Note_on_c, 0, 40, 0
1, 168922, Note_on_c, 0, 47, 0
1, 168925, Note_on_c, 0, 55, 0
1, 168925, Control_c, 0, 64, 127
1, 168925, Note_on_c, 0, 38, 29
1, 168928, Note_on_c, 0, 42, 29
1, 168928, Note_on_c, 0, 50, 29
1, 168928, Note_on_c, 0, 54, 29
1, 168931, Note_on_c, 0, 60, 29
1, 169378, Control_c, 0, 64, 0
1, 169383, Note_on_c, 0, 60, 0
1, 169383, Note_on_c, 0, 50, 0
1, 169383, Note_on_c, 0, 38, 0
1, 169386, Note_on_c, 0, 42, 0
1, 169386, Note_on_c, 0, 54, 0
1, 169386, Note_on_c, 0, 37, 27
1, 169389, Note_on_c, 0, 44, 27
1, 169389, Note_on_c, 0, 49, 27
1, 169389, Note_on_c, 0, 53, 27
1, 169392, Note_on_c, 0, 61, 27
1, 169448, Control_c, 0, 64, 127
1, 169774, Note_on_c, 0, 104, 52
1, 169774, Note_on_c, 0, 25, 25
1, 169774, Note_on_c, 0, 37, 25
1, 169871, Note_on_c, 0, 104, 0
1, 169871, Note_on_c, 0, 101, 35
1, 169969, Note_on_c, 0, 101, 0
1, 169969, Note_on_c, 0, 92, 35
1, 169969, Note_on_c, 0, 37, 0
1, 169972, Note_on_c, 0, 25, 0
1, 170067, Note_on_c, 0, 92, 0
1, 170067, Note_on_c, 0, 88, 34
1, 170164, Note_on_c, 0, 88, 0
1, 170164, Note_on_c, 0, 89, 35
1, 170164, Note_on_c, 0, 44, 0
1, 170167, Note_on_c, 0, 37, 0
1, 170167, Note_on_c, 0, 49, 0
1, 170167, Note_on_c, 0, 25, 25
1, 170170, Note_on_c, 0, 37, 25
1, 170262, Note_on_c, 0, 89, 0
1, 170262, Note_on_c, 0, 85, 34
1, 170360, Note_on_c, 0, 85, 0
1, 170360, Note_on_c, 0, 77, 35
1, 170360, Note_on_c, 0, 37, 0
1, 170363, Note_on_c, 0, 25, 0
1, 170457, Note_on_c, 0, 77, 0
1, 170457, Note_on_c, 0, 72, 33
1, 170555, Note_on_c, 0, 72, 0
1, 170555, Note_on_c, 0, 73, 35
1, 170555, Note_on_c, 0, 25, 25
1, 170558, Note_on_c, 0, 37, 25
1, 170653, Note_on_c, 0, 73, 0
1, 170653, Note_on_c, 0, 68, 34
1, 170750, Note_on_c, 0, 68, 0
1, 170750, Note_on_c, 0, 65, 35
1, 170750, Note_on_c, 0, 37, 0
1, 170753, Note_on_c, 0, 25, 0
1, 170848, Note_on_c, 0, 65, 0
1, 170848, Note_on_c, 0, 63, 34
1, 170885, Control_c, 0, 64, 0
1, 170946, Note_on_c, 0, 63, 0
1, 170946, Note_on_c, 0, 53, 0
1, 170946, Note_on_c, 0, 61, 0
1, 170949, Note_on_c, 0, 49, 30
1, 170949, Note_on_c, 0, 61, 30
1, 171057, Control_c, 0, 64, 127
1, 171332, Note_on_c, 0, 61, 0
1, 171336, Note_on_c, 0, 73, 41
1, 171336, Note_on_c, 0, 61, 41
1, 171336, Note_on_c, 0, 49, 0
1, 171339, Note_on_c, 0, 46, 30
1, 171339, Note_on_c, 0, 58, 30
1, 171356, Control_c, 0, 64, 0
1, 171450, Control_c, 0, 64, 127
1, 171622, Control_c, 0, 64, 0
1, 171736, Note_on_c, 0, 61, 0
1, 171736, Note_on_c, 0, 73, 0
1, 171736, Note_on_c, 0, 73, 41
1, 171739, Note_on_c, 0, 61, 41
1, 171739, Note_on_c, 0, 70, 41
1, 171739, Note_on_c, 0, 58, 0
1, 171742, Note_on_c, 0, 46, 0
1, 171742, Note_on_c, 0, 42, 30
1, 171742, Note_on_c, 0, 46, 30
1, 171745, Note_on_c, 0, 54, 30
1, 171774, Control_c, 0, 64, 127
1, 172097, Control_c, 0, 64, 0
1, 172135, Note_on_c, 0, 70, 0
1, 172135, Note_on_c, 0, 61, 0
1, 172135, Note_on_c, 0, 73, 0
1, 172138, Note_on_c, 0, 70, 52
1, 172138, Note_on_c, 0, 66, 52
1, 172138, Note_on_c, 0, 75, 52
1, 172141, Note_on_c, 0, 78, 52
1, 172141, Note_on_c, 0, 54, 0
1, 172141, Note_on_c, 0, 46, 0
1, 172144, Note_on_c, 0, 42, 0
1, 172144, Note_on_c, 0, 39, 40
1, 172144, Note_on_c, 0, 46, 40
1, 172147, Note_on_c, 0, 51, 40
1, 172211, Control_c, 0, 64, 127
1, 172509, Control_c, 0, 64, 0
1, 172535, Note_on_c, 0, 78, 0
1, 172535, Note_on_c, 0, 70, 0
1, 172535, Note_on_c, 0, 66, 0
1, 172538, Note_on_c, 0, 75, 0
1, 172538, Note_on_c, 0, 66, 57
1, 172538, Note_on_c, 0, 78, 57
1, 172541, Note_on_c, 0, 71, 57
1, 172541, Note_on_c, 0, 75, 57
1, 172541, Note_on_c, 0, 51, 0
1, 172544, Note_on_c, 0, 46, 0
1, 172544, Note_on_c, 0, 39, 0
1, 172544, Note_on_c, 0, 35, 44
1, 172547, Note_on_c, 0, 39, 44
1, 172547, Note_on_c, 0, 47, 44
1, 172554, Control_c, 0, 64, 127
1, 172883, Control_c, 0, 64, 0
1, 172941, Note_on_c, 0, 75, 0
1, 172941, Note_on_c, 0, 66, 0
1, 172941, Note_on_c, 0, 78, 0
1, 172944, Note_on_c, 0, 71, 0
1, 172944, Note_on_c, 0, 83, 63
1, 172944, Note_on_c, 0, 80, 63
1, 172947, Note_on_c, 0, 75, 63
1, 172947, Note_on_c, 0, 71, 63
1, 172947, Note_on_c, 0, 47, 0
1, 172950, Note_on_c, 0, 39, 0
1, 172950, Note_on_c, 0, 35, 0
1, 172950, Note_on_c, 0, 32, 50
1, 172953, Note_on_c, 0, 39, 50
1, 172953, Note_on_c, 0, 44, 50
1, 173080, Control_c, 0, 64, 127
1, 173259, Control_c, 0, 64, 0
1, 173357, Note_on_c, 0, 71, 0
1, 173357, Note_on_c, 0, 83, 0
1, 173357, Note_on_c, 0, 80, 0
1, 173360, Note_on_c, 0, 75, 0
1, 173360, Note_on_c, 0, 70, 63
1, 173360, Note_on_c, 0, 74, 63
1, 173363, Note_on_c, 0, 77, 63
1, 173363, Note_on_c, 0, 82, 63
1, 173363, Note_on_c, 0, 44, 0
1, 173366, Note_on_c, 0, 39, 0
1, 173366, Note_on_c, 0, 32, 0
1, 173366, Note_on_c, 0, 34, 51
1, 173369, Note_on_c, 0, 38, 51
1, 173369, Note_on_c, 0, 41, 51
1, 173369, Note_on_c, 0, 46, 51
1, 173466, Control_c, 0, 64, 127
1, 173748, Note_on_c, 0, 101, 70
1, 173748, Note_on_c, 0, 58, 41
1, 173748, Note_on_c, 0, 62, 41
1, 173751, Note_on_c, 0, 65, 41
1, 173751, Note_on_c, 0, 70, 41
1, 173846, Note_on_c, 0, 101, 0
1, 173846, Note_on_c, 0, 98, 56
1, 173943, Note_on_c, 0, 98, 0
1, 173943, Note_on_c, 0, 89, 56
1, 174041, Note_on_c, 0, 89, 0
1, 174041, Note_on_c, 0, 86, 53
1, 174139, Note_on_c, 0, 86, 0
1, 174139, Note_on_c, 0, 82, 0
1, 174139, Note_on_c, 0, 70, 0
1, 174142, Note_on_c, 0, 74, 0
1, 174142, Note_on_c, 0, 77, 0
1, 174142, Note_on_c, 0, 82, 56
1, 174145, Note_on_c, 0, 70, 0
1, 174145, Note_on_c, 0, 34, 0
1, 174145, Note_on_c, 0, 46, 0
1, 174148, Note_on_c, 0, 41, 0
1, 174148, Note_on_c, 0, 38, 0
1, 174236, Note_on_c, 0, 82, 0
1, 174236, Note_on_c, 0, 74, 53
1, 174334, Note_on_c, 0, 74, 0
1, 174334, Note_on_c, 0, 70, 56
1, 174443, Control_c, 0, 64, 0
1, 174538, Note_on_c, 0, 70, 0
1, 174538, Note_on_c, 0, 82, 62
1, 174538, Note_on_c, 0, 90, 62
1, 174541, Note_on_c, 0, 87, 62
1, 174541, Note_on_c, 0, 78, 62
1, 174541, Note_on_c, 0, 65, 0
1, 174544, Note_on_c, 0, 58, 0
1, 174544, Note_on_c, 0, 62, 0
1, 174544, Note_on_c, 0, 51, 48
1, 174547, Note_on_c, 0, 54, 48
1, 174547, Note_on_c, 0, 58, 48
1, 174547, Note_on_c, 0, 63, 48
1, 174659, Control_c, 0, 64, 127
1, 174921, Control_c, 0, 64, 0
1, 174929, Note_on_c, 0, 78, 0
1, 174929, Note_on_c, 0, 82, 0
1, 174929, Note_on_c, 0, 90, 0
1, 174932, Note_on_c, 0, 87, 0
1, 174932, Note_on_c, 0, 89, 62
1, 174932, Note_on_c, 0, 86, 62
1, 174935, Note_on_c, 0, 77, 62
1, 174935, Note_on_c, 0, 82, 62
1, 174935, Note_on_c, 0, 63, 0
1, 174938, Note_on_c, 0, 51, 0
1, 174938, Note_on_c, 0, 54, 0
1, 174938, Note_on_c, 0, 58, 0
1, 174941, Note_on_c, 0, 58, 48
1, 174941, Note_on_c, 0, 62, 48
1, 174941, Note_on_c, 0, 65, 48
1, 174944, Note_on_c, 0, 70, 48
1, 174992, Control_c, 0, 64, 127
1, 175320, Note_on_c, 0, 74, 57
1, 175320, Note_on_c, 0, 70, 57
1, 175320, Note_on_c, 0, 65, 57
1, 175323, Note_on_c, 0, 77, 57
1, 175323, Note_on_c, 0, 34, 45
1, 175417, Note_on_c, 0, 34, 0
1, 175417, Note_on_c, 0, 41, 44
1, 175515, Note_on_c, 0, 41, 0
1, 175515, Note_on_c, 0, 46, 45
1, 175613, Note_on_c, 0, 46, 0
1, 175613, Note_on_c, 0, 50, 44
1, 175710, Note_on_c, 0, 65, 0
1, 175710, Note_on_c, 0, 77, 0
1, 175710, Note_on_c, 0, 86, 0
1, 175713, Note_on_c, 0, 89, 0
1, 175713, Note_on_c, 0, 82, 0
1, 175713, Note_on_c, 0, 50, 0
1, 175716, Note_on_c, 0, 70, 0
1, 175716, Note_on_c, 0, 58, 0
1, 175716, Note_on_c, 0, 62, 0
1, 175719, Note_on_c, 0, 65, 0
1, 175719, Note_on_c, 0, 58, 45
1, 175808, Note_on_c, 0, 58, 0
1, 175808, Note_on_c, 0, 62, 44
1, 175906, Note_on_c, 0, 62, 0
1, 175906, Note_on_c, 0, 65, 45
1, 175977, Control_c, 0, 64, 0
1, 176110, Note_on_c, 0, 77, 0
1, 176110, Note_on_c, 0, 74, 0
1, 176110, Note_on_c, 0, 70, 0
1, 176113, Note_on_c, 0, 87, 67
1, 176113, Note_on_c, 0, 83, 67
1, 176113, Note_on_c, 0, 78, 67
1, 176116, Note_on_c, 0, 75, 67
1, 176116, Note_on_c, 0, 65, 0
1, 176116, Note_on_c, 0, 35, 52
1, 176119, Note_on_c, 0, 39, 52
1, 176119, Note_on_c, 0, 42, 52
1, 176119, Note_on_c, 0, 47, 52
1, 176144, Control_c, 0, 64, 127
1, 176455, Control_c, 0, 64, 0
1, 176501, Note_on_c, 0, 75, 0
1, 176501, Note_on_c, 0, 87, 0
1, 176501, Note_on_c, 0, 83, 0
1, 176504, Note_on_c, 0, 78, 0
1, 176504, Note_on_c, 0, 73, 67
1, 176504, Note_on_c, 0, 85, 67
1, 176507, Note_on_c, 0, 80, 67
1, 176507, Note_on_c, 0, 77, 67
1, 176507, Note_on_c, 0, 47, 0
1, 176510, Note_on_c, 0, 35, 0
1, 176510, Note_on_c, 0, 39, 0
1, 176510, Note_on_c, 0, 42, 0
1, 176513, Note_on_c, 0, 37, 52
1, 176513, Note_on_c, 0, 41, 52
1, 176513, Note_on_c, 0, 44, 52
1, 176516, Note_on_c, 0, 49, 52
1, 176516, Control_c, 0, 64, 127
1, 176891, Note_on_c, 0, 104, 72
1, 176891, Note_on_c, 0, 61, 53
1, 176891, Note_on_c, 0, 65, 53
1, 176894, Note_on_c, 0, 68, 53
1, 176894, Note_on_c, 0, 73, 53
1, 176989, Note_on_c, 0, 104, 0
1, 176989, Note_on_c, 0, 101, 68
1, 177087, Note_on_c, 0, 101, 0
1, 177087, Note_on_c, 0, 92, 68
1, 177184, Note_on_c, 0, 92, 0
1, 177184, Note_on_c, 0, 89, 66
1, 177282, Note_on_c, 0, 89, 0
1, 177282, Note_on_c, 0, 77, 0
1, 177282, Note_on_c, 0, 73, 0
1, 177285, Note_on_c, 0, 85, 0
1, 177285, Note_on_c, 0, 80, 0
1, 177285, Note_on_c, 0, 85, 68
1, 177288, Note_on_c, 0, 73, 0
1, 177288, Note_on_c, 0, 37, 0
1, 177288, Note_on_c, 0, 49, 0
1, 177291, Note_on_c, 0, 44, 0
1, 177291, Note_on_c, 0, 41, 0
1, 177380, Note_on_c, 0, 85, 0
1, 177380, Note_on_c, 0, 77, 67
1, 177477, Note_on_c, 0, 77, 0
1, 177477, Note_on_c, 0, 73, 68
1, 177584, Control_c, 0, 64, 0
1, 177673, Note_on_c, 0, 73, 0
1, 177673, Note_on_c, 0, 94, 76
1, 177673, Note_on_c, 0, 90, 76
1, 177676, Note_on_c, 0, 85, 69
1, 177676, Note_on_c, 0, 82, 69
1, 177676, Note_on_c, 0, 68, 0
1, 177679, Note_on_c, 0, 61, 0
1, 177679, Note_on_c, 0, 65, 0
1, 177679, Note_on_c, 0, 54, 52
1, 177682, Note_on_c, 0, 58, 52
1, 177682, Note_on_c, 0, 61, 52
1, 177682, Note_on_c, 0, 66, 59
1, 177696, Control_c, 0, 64, 127
1, 178064, Control_c, 0, 64, 0
1, 178068, Note_on_c, 0, 82, 0
1, 178068, Note_on_c, 0, 94, 0
1, 178068, Note_on_c, 0, 90, 0
1, 178071, Note_on_c, 0, 85, 0
1, 178071, Note_on_c, 0, 85, 69
1, 178071, Note_on_c, 0, 80, 69
1, 178074, Note_on_c, 0, 89, 76
1, 178074, Note_on_c, 0, 92, 76
1, 178074, Note_on_c, 0, 66, 0
1, 178077, Note_on_c, 0, 54, 0
1, 178077, Note_on_c, 0, 58, 0
1, 178077, Note_on_c, 0, 61, 0
1, 178080, Note_on_c, 0, 61, 52
1, 178080, Note_on_c, 0, 65, 52
1, 178080, Note_on_c, 0, 68, 59
1, 178083, Note_on_c, 0, 73, 59
1, 178158, Control_c, 0, 64, 127
1, 178464, Note_on_c, 0, 68, 73
1, 178464, Note_on_c, 0, 80, 73
1, 178464, Note_on_c, 0, 77, 73
1, 178467, Note_on_c, 0, 73, 73
1, 178467, Note_on_c, 0, 37, 55
1, 178562, Note_on_c, 0, 37, 0
1, 178562, Note_on_c, 0, 44, 52
1, 178660, Note_on_c, 0, 44, 0
1, 178660, Note_on_c, 0, 49, 55
1, 178757, Note_on_c, 0, 49, 0
1, 178757, Note_on_c, 0, 53, 52
1, 178855, Note_on_c, 0, 92, 0
1, 178855, Note_on_c, 0, 89, 0
1, 178855, Note_on_c, 0, 85, 0
1, 178858, Note_on_c, 0, 80, 0
1, 178858, Note_on_c, 0, 53, 0
1, 178858, Note_on_c, 0, 73, 0
1, 178861, Note_on_c, 0, 61, 0
1, 178861, Note_on_c, 0, 65, 0
1, 178861, Note_on_c, 0, 68, 0
1, 178864, Note_on_c, 0, 61, 55
1, 178953, Note_on_c, 0, 61, 0
1, 178953, Note_on_c, 0, 65, 52
1, 179050, Note_on_c, 0, 65, 0
1, 179050, Note_on_c, 0, 68, 55
1, 179161, Control_c, 0, 64, 0
1, 179246, Note_on_c, 0, 68, 0
1, 179246, Note_on_c, 0, 73, 0
1, 179246, Note_on_c, 0, 80, 0
1, 179249, Note_on_c, 0, 77, 0
1, 179249, Note_on_c, 0, 73, 66
1, 179249, Note_on_c, 0, 68, 66
1, 179252, Note_on_c, 0, 76, 66
1, 179252, Note_on_c, 0, 80, 66
1, 179252, Note_on_c, 0, 68, 0
1, 179255, Control_c, 0, 64, 127
1, 179255, Note_on_c, 0, 37, 49
1, 179345, Note_on_c, 0, 37, 0
1, 179345, Note_on_c, 0, 44, 48
1, 179444, Note_on_c, 0, 44, 0
1, 179444, Note_on_c, 0, 49, 50
1, 179544, Note_on_c, 0, 49, 0
1, 179544, Note_on_c, 0, 52, 48
1, 179643, Note_on_c, 0, 68, 0
1, 179643, Note_on_c, 0, 52, 0
1, 179643, Note_on_c, 0, 61, 50
1, 179743, Note_on_c, 0, 61, 0
1, 179743, Note_on_c, 0, 64, 48
1, 179842, Note_on_c, 0, 64, 0
1, 179842, Note_on_c, 0, 68, 50
1, 179951, Control_c, 0, 64, 0
1, 180041, Note_on_c, 0, 73, 0
1, 180041, Note_on_c, 0, 76, 0
1, 180041, Note_on_c, 0, 80, 0
1, 180044, Note_on_c, 0, 80, 79
1, 180044, Note_on_c, 0, 92, 88
1, 180044, Note_on_c, 0, 85, 79
1, 180047, Note_on_c, 0, 88, 79
1, 180047, Note_on_c, 0, 68, 0
1, 180047, Control_c, 0, 64, 127
1, 180050, Note_on_c, 0, 30, 49
1, 180140, Note_on_c, 0, 34, 50
1, 180240, Note_on_c, 0, 34, 0
1, 180240, Note_on_c, 0, 30, 0
1, 180240, Note_on_c, 0, 37, 51
1, 180339, Note_on_c, 0, 37, 0
1, 180339, Note_on_c, 0, 42, 52
1, 180438, Note_on_c, 0, 88, 0
1, 180438, Note_on_c, 0, 80, 0
1, 180438, Note_on_c, 0, 92, 0
1, 180441, Note_on_c, 0, 85, 0
1, 180441, Note_on_c, 0, 78, 79
1, 180441, Note_on_c, 0, 82, 79
1, 180444, Note_on_c, 0, 85, 79
1, 180444, Note_on_c, 0, 90, 88
1, 180444, Note_on_c, 0, 42, 0
1, 180447, Control_c, 0, 64, 0
1, 180447, Note_on_c, 0, 46, 52
1, 180467, Control_c, 0, 64, 127
1, 180538, Note_on_c, 0, 46, 0
1, 180538, Note_on_c, 0, 49, 52
1, 180637, Note_on_c, 0, 49, 0
1, 180637, Note_on_c, 0, 54, 53
1, 180737, Note_on_c, 0, 54, 0
1, 180737, Note_on_c, 0, 58, 55
1, 180836, Note_on_c, 0, 90, 0
1, 180836, Note_on_c, 0, 78, 0
1, 180836, Note_on_c, 0, 82, 0
1, 180839, Note_on_c, 0, 85, 0
1, 180839, Note_on_c, 0, 89, 88
1, 180839, Note_on_c, 0, 85, 79
1, 180842, Note_on_c, 0, 77, 79
1, 180842, Note_on_c, 0, 82, 79
1, 180842, Note_on_c, 0, 58, 0
1, 180845, Note_on_c, 0, 61, 56
1, 180877, Control_c, 0, 64, 0
1, 180886, Control_c, 0, 64, 127
1, 180935, Note_on_c, 0, 66, 56
1, 181035, Note_on_c, 0, 66, 0
1, 181035, Note_on_c, 0, 61, 0
1, 181035, Note_on_c, 0, 70, 57
1, 181134, Note_on_c, 0, 70, 0
1, 181134, Note_on_c, 0, 73, 59
1, 181151, Note_on_c, 0, 66, 51
1, 181185, Note_on_c, 0, 70, 51
1, 181218, Control_c, 0, 64, 0
1, 181218, Note_on_c, 0, 73, 51
1, 181236, Note_on_c, 0, 82, 0
1, 181236, Note_on_c, 0, 89, 0
1, 181236, Note_on_c, 0, 85, 0
1, 181239, Note_on_c, 0, 77, 0
1, 181239, Note_on_c, 0, 76, 82
1, 181239, Note_on_c, 0, 82, 82
1, 181242, Note_on_c, 0, 85, 82
1, 181242, Note_on_c, 0, 88, 92
1, 181242, Note_on_c, 0, 73, 0
1, 181245, Note_on_c, 0, 78, 59
1, 181275, Control_c, 0, 64, 127
1, 181338, Note_on_c, 0, 78, 0
1, 181338, Note_on_c, 0, 73, 0
1, 181338, Note_on_c, 0, 70, 0
1, 181341, Note_on_c, 0, 66, 0
1, 181611, Control_c, 0, 64, 0
1, 181645, Note_on_c, 0, 88, 0
1, 181645, Note_on_c, 0, 76, 0
1, 181645, Note_on_c, 0, 82, 0
1, 181648, Note_on_c, 0, 85, 0
1, 181648, Note_on_c, 0, 87, 94
1, 181648, Note_on_c, 0, 75, 84
1, 181651, Note_on_c, 0, 83, 84
1, 181651, Control_c, 0, 64, 127
1, 181651, Note_on_c, 0, 71, 59
1, 181747, Note_on_c, 0, 66, 60
1, 181849, Note_on_c, 0, 66, 0
1, 181849, Note_on_c, 0, 71, 0
1, 181849, Note_on_c, 0, 63, 61
1, 181951, Note_on_c, 0, 63, 0
1, 181951, Note_on_c, 0, 59, 61
1, 182053, Note_on_c, 0, 83, 0
1, 182053, Note_on_c, 0, 75, 0
1, 182053, Note_on_c, 0, 87, 0
1, 182056, Note_on_c, 0, 87, 97
1, 182056, Note_on_c, 0, 82, 88
1, 182056, Note_on_c, 0, 75, 88
1, 182059, Note_on_c, 0, 59, 0
1, 182059, Note_on_c, 0, 54, 62
1, 182071, Control_c, 0, 64, 0
1, 182090, Control_c, 0, 64, 127
1, 182158, Note_on_c, 0, 51, 62
1, 182262, Note_on_c, 0, 51, 0
1, 182262, Note_on_c, 0, 54, 0
1, 182262, Note_on_c, 0, 47, 64
1, 182367, Note_on_c, 0, 47, 0
1, 182367, Note_on_c, 0, 42, 66
1, 182436, Control_c, 0, 64, 0
1, 182471, Note_on_c, 0, 75, 0
1, 182471, Note_on_c, 0, 82, 0
1, 182471, Note_on_c, 0, 87, 0
1, 182474, Note_on_c, 0, 75, 89
1, 182474, Note_on_c, 0, 87, 100
1, 182474, Note_on_c, 0, 81, 89
1, 182477, Note_on_c, 0, 42, 0
1, 182477, Control_c, 0, 64, 127
1, 182477, Note_on_c, 0, 39, 66
1, 182576, Note_on_c, 0, 35, 66
1, 182680, Note_on_c, 0, 35, 0
1, 182680, Note_on_c, 0, 39, 0
1, 182680, Note_on_c, 0, 30, 67
1, 182792, Note_on_c, 0, 30, 0
1, 182792, Note_on_c, 0, 27, 68
1, 182866, Control_c, 0, 64, 0
1, 182904, Note_on_c, 0, 81, 0
1, 182904, Note_on_c, 0, 87, 0
1, 182904, Note_on_c, 0, 75, 0
1, 182907, Note_on_c, 0, 82, 91
1, 182907, Note_on_c, 0, 87, 102
1, 182907, Control_c, 0, 91, 127
1, 182910, Note_on_c, 0, 79, 91
1, 182910, Note_on_c, 0, 75, 91
1, 182910, Note_on_c, 0, 27, 0
1, 182913, Note_on_c, 0, 58, 69
1, 182913, Note_on_c, 0, 63, 69
1, 182913, Note_on_c, 0, 67, 69
1, 182916, Note_on_c, 0, 70, 78
1, 182916, Control_c, 0, 91, 127
1, 182982, Control_c, 0, 64, 127
1, 183181, Control_c, 0, 64, 0
1, 183211, Note_on_c, 0, 75, 0
1, 183211, Note_on_c, 0, 82, 0
1, 183211, Note_on_c, 0, 87, 0
1, 183214, Note_on_c, 0, 79, 0
1, 183214, Note_on_c, 0, 70, 0
1, 183214, Note_on_c, 0, 58, 0
1, 183217, Note_on_c, 0, 63, 0
1, 183217, Note_on_c, 0, 67, 0
1, 183313, Note_on_c, 0, 65, 75
1, 183313, Note_on_c, 0, 77, 84
1, 183313, Note_on_c, 0, 70, 75
1, 183316, Note_on_c, 0, 74, 75
1, 183316, Note_on_c, 0, 58, 67
1, 183316, Note_on_c, 0, 46, 59
1, 183425, Note_on_c, 0, 74, 0
1, 183425, Note_on_c, 0, 65, 0
1, 183425, Note_on_c, 0, 77, 0
1, 183428, Note_on_c, 0, 70, 0
1, 183428, Note_on_c, 0, 46, 0
1, 183428, Note_on_c, 0, 58, 0
1, 183537, Note_on_c, 0, 67, 74
1, 183537, Note_on_c, 0, 70, 74
1, 183537, Note_on_c, 0, 75, 83
1, 183540, Note_on_c, 0, 79, 83
1, 183540, Note_on_c, 0, 39, 57
1, 183540, Note_on_c, 0, 51, 63
1, 183648, Note_on_c, 0, 79, 0
1, 183648, Note_on_c, 0, 67, 0
1, 183648, Note_on_c, 0, 70, 0
1, 183651, Note_on_c, 0, 75, 0
1, 183651, Note_on_c, 0, 51, 0
1, 183651, Note_on_c, 0, 39, 0
1, 183760, Note_on_c, 0, 80, 95
1, 183760, Note_on_c, 0, 75, 85
1, 183760, Note_on_c, 0, 68, 85
1, 183763, Note_on_c, 0, 72, 85
1, 183763, Note_on_c, 0, 63, 77
1, 183763, Note_on_c, 0, 60, 69
1, 183766, Note_on_c, 0, 56, 69
1, 183766, Note_on_c, 0, 51, 69
1, 183780, Control_c, 0, 64, 127
1, 184108, Control_c, 0, 64, 0
1, 184149, Note_on_c, 0, 72, 0
1, 184149, Note_on_c, 0, 80, 0
1, 184149, Note_on_c, 0, 75, 0
1, 184152, Note_on_c, 0, 68, 0
1, 184152, Note_on_c, 0, 67, 74
1, 184152, Note_on_c, 0, 70, 74
1, 184155, Note_on_c, 0, 75, 74
1, 184155, Note_on_c, 0, 79, 83
1, 184155, Note_on_c, 0, 51, 0
1, 184158, Note_on_c, 0, 63, 0
1, 184158, Note_on_c, 0, 60, 0
1, 184158, Note_on_c, 0, 56, 0
1, 184161, Note_on_c, 0, 39, 59
1, 184161, Note_on_c, 0, 51, 66
1, 184259, Note_on_c, 0, 79, 0
1, 184259, Note_on_c, 0, 67, 0
1, 184259, Note_on_c, 0, 70, 0
1, 184262, Note_on_c, 0, 75, 0
1, 184262, Note_on_c, 0, 51, 0
1, 184262, Note_on_c, 0, 39, 0
1, 184370, Note_on_c, 0, 75, 73
1, 184370, Note_on_c, 0, 65, 73
1, 184370, Note_on_c, 0, 72, 73
1, 184373, Note_on_c, 0, 77, 82
1, 184373, Note_on_c, 0, 32, 57
1, 184373, Note_on_c, 0, 44, 63
1, 184480, Note_on_c, 0, 77, 0
1, 184480, Note_on_c, 0, 75, 0
1, 184480, Note_on_c, 0, 65, 0
1, 184483, Note_on_c, 0, 72, 0
1, 184483, Note_on_c, 0, 44, 0
1, 184483, Note_on_c, 0, 32, 0
1, 184590, Note_on_c, 0, 67, 85
1, 184590, Note_on_c, 0, 70, 85
1, 184590, Note_on_c, 0, 75, 85
1, 184593, Note_on_c, 0, 79, 95
1, 184593, Note_on_c, 0, 39, 69
1, 184593, Note_on_c, 0, 46, 69
1, 184596, Note_on_c, 0, 51, 77
1, 184635, Control_c, 0, 64, 127
1, 184945, Control_c, 0, 64, 0
1, 184979, Note_on_c, 0, 79, 0
1, 184979, Note_on_c, 0, 67, 0
1, 184979, Note_on_c, 0, 70, 0
1, 184982, Note_on_c, 0, 75, 0
1, 184982, Note_on_c, 0, 74, 88
1, 184982, Note_on_c, 0, 77, 88
1, 184985, Note_on_c, 0, 65, 79
1, 184985, Note_on_c, 0, 68, 79
1, 184985, Note_on_c, 0, 51, 0
1, 184988, Note_on_c, 0, 46, 0
1, 184988, Note_on_c, 0, 39, 0
1, 184988, Note_on_c, 0, 34, 62
1, 184991, Note_on_c, 0, 46, 70
1, 185087, Note_on_c, 0, 68, 0
1, 185087, Note_on_c, 0, 74, 0
1, 185087, Note_on_c, 0, 77, 0
1, 185090, Note_on_c, 0, 65, 0
1, 185090, Note_on_c, 0, 46, 0
1, 185090, Note_on_c, 0, 34, 0
1, 185196, Note_on_c, 0, 63, 74
1, 185196, Note_on_c, 0, 67, 74
1, 185196, Note_on_c, 0, 70, 74
1, 185199, Note_on_c, 0, 75, 83
1, 185199, Note_on_c, 0, 27, 59
1, 185199, Note_on_c, 0, 39, 66
1, 185305, Note_on_c, 0, 75, 0
1, 185305, Note_on_c, 0, 63, 0
1, 185305, Note_on_c, 0, 67, 0
1, 185308, Note_on_c, 0, 70, 0
1, 185308, Note_on_c, 0, 39, 0
1, 185308, Note_on_c, 0, 27, 0
1, 185413, Note_on_c, 0, 77, 82
1, 185413, Note_on_c, 0, 65, 73
1, 185413, Note_on_c, 0, 74, 73
1, 185416, Note_on_c, 0, 34, 59
1, 185416, Note_on_c, 0, 46, 66
1, 185516, Note_on_c, 0, 74, 0
1, 185516, Note_on_c, 0, 65, 0
1, 185516, Note_on_c, 0, 77, 0
1, 185519, Note_on_c, 0, 46, 0
1, 185519, Note_on_c, 0, 34, 0
1, 185618, Note_on_c, 0, 70, 79
1, 185618, Note_on_c, 0, 58, 62
1, 185618, Note_on_c, 0, 46, 62
1, 185729, Note_on_c, 0, 70, 0
1, 185729, Note_on_c, 0, 46, 0
1, 185729, Note_on_c, 0, 58, 0
1, 185840, Note_on_c, 0, 63, 83
1, 185840, Note_on_c, 0, 72, 93
1, 185840, Note_on_c, 0, 75, 93
1, 185843, Control_c, 0, 64, 127
1, 185843, Note_on_c, 0, 39, 66
1, 185843, Note_on_c, 0, 51, 73
1, 186276, Note_on_c, 0, 75, 0
1, 186276, Note_on_c, 0, 72, 0
1, 186276, Note_on_c, 0, 63, 0
1, 186279, Note_on_c, 0, 75, 86
1, 186279, Note_on_c, 0, 70, 78
1, 186279, Note_on_c, 0, 74, 86
1, 186282, Note_on_c, 0, 63, 78
1, 186282, Note_on_c, 0, 51, 0
1, 186282, Note_on_c, 0, 39, 0
1, 186285, Control_c, 0, 64, 0
1, 186285, Note_on_c, 0, 62, 72
1, 186285, Note_on_c, 0, 58, 64
1, 186288, Note_on_c, 0, 51, 64
1, 186320, Control_c, 0, 64, 127
1, 186708, Note_on_c, 0, 63, 0
1, 186708, Note_on_c, 0, 75, 0
1, 186708, Note_on_c, 0, 70, 0
1, 186711, Note_on_c, 0, 74, 0
1, 186711, Note_on_c, 0, 63, 77
1, 186711, Note_on_c, 0, 68, 77
1, 186714, Note_on_c, 0, 72, 85
1, 186714, Note_on_c, 0, 75, 85
1, 186714, Note_on_c, 0, 51, 0
1, 186717, Note_on_c, 0, 58, 0
1, 186717, Note_on_c, 0, 62, 0
1, 186717, Note_on_c, 0, 51, 62
1, 186720, Note_on_c, 0, 56, 62
1, 186720, Note_on_c, 0, 60, 70
1, 186720, Control_c, 0, 64, 0
1, 186753, Control_c, 0, 64, 127
1, 187068, Control_c, 0, 64, 0
1, 187080, Note_on_c, 0, 75, 0
1, 187080, Note_on_c, 0, 63, 0
1, 187080, Note_on_c, 0, 68, 0
1, 187083, Note_on_c, 0, 72, 0
1, 187134, Note_on_c, 0, 75, 88
1, 187134, Note_on_c, 0, 63, 79
1, 187134, Note_on_c, 0, 67, 79
1, 187137, Note_on_c, 0, 70, 88
1, 187137, Note_on_c, 0, 60, 0
1, 187137, Note_on_c, 0, 56, 0
1, 187140, Note_on_c, 0, 51, 0
1, 187140, Note_on_c, 0, 39, 62
1, 187140, Note_on_c, 0, 46, 62
1, 187143, Note_on_c, 0, 51, 70
1, 187170, Control_c, 0, 64, 127
1, 187515, Control_c, 0, 64, 0
1, 187552, Note_on_c, 0, 70, 0
1, 187552, Note_on_c, 0, 75, 0
1, 187552, Note_on_c, 0, 63, 0
1, 187555, Note_on_c, 0, 67, 0
1, 187555, Note_on_c, 0, 62, 82
1, 187555, Note_on_c, 0, 65, 82
1, 187558, Note_on_c, 0, 70, 82
1, 187558, Note_on_c, 0, 74, 92
1, 187558, Note_on_c, 0, 51, 0
1, 187561, Note_on_c, 0, 46, 0
1, 187561, Note_on_c, 0, 39, 0
1, 187561, Note_on_c, 0, 34, 64
1, 187564, Note_on_c, 0, 46, 72
1, 187659, Note_on_c, 0, 74, 0
1, 187659, Note_on_c, 0, 62, 0
1, 187659, Note_on_c, 0, 65, 0
1, 187662, Note_on_c, 0, 70, 0
1, 187662, Note_on_c, 0, 46, 0
1, 187662, Note_on_c, 0, 34, 0
1, 187766, Note_on_c, 0, 70, 79
1, 187766, Note_on_c, 0, 75, 88
1, 187766, Note_on_c, 0, 63, 79
1, 187769, Note_on_c, 0, 67, 79
1, 187769, Note_on_c, 0, 39, 68
1, 187769, Note_on_c, 0, 27, 60
1, 187876, Note_on_c, 0, 67, 0
1, 187876, Note_on_c, 0, 70, 0
1, 187876, Note_on_c, 0, 75, 0
1, 187879, Note_on_c, 0, 63, 0
1, 187879, Note_on_c, 0, 27, 0
1, 187879, Note_on_c, 0, 39, 0
1, 187986, Note_on_c, 0, 72, 86
1, 187986, Note_on_c, 0, 75, 86
1, 187986, Note_on_c, 0, 79, 96
1, 187989, Note_on_c, 0, 67, 86
1, 187989, Note_on_c, 0, 60, 77
1, 187989, Note_on_c, 0, 55, 69
1, 187992, Note_on_c, 0, 51, 69
1, 187992, Note_on_c, 0, 48, 69
1, 188039, Control_c, 0, 64, 127
1, 188356, Control_c, 0, 64, 0
1, 188385, Note_on_c, 0, 67, 0
1, 188385, Note_on_c, 0, 72, 0
1, 188385, Note_on_c, 0, 75, 0
1, 188388, Note_on_c, 0, 79, 0
1, 188388, Note_on_c, 0, 72, 81
1, 188388, Note_on_c, 0, 65, 81
1, 188391, Note_on_c, 0, 68, 81
1, 188391, Note_on_c, 0, 77, 91
1, 188391, Note_on_c, 0, 48, 0
1, 188394, Note_on_c, 0, 60, 0
1, 188394, Note_on_c, 0, 55, 0
1, 188394, Note_on_c, 0, 51, 0
1, 188397, Note_on_c, 0, 41, 62
1, 188397, Note_on_c, 0, 53, 70
1, 188491, Note_on_c, 0, 77, 0
1, 188491, Note_on_c, 0, 72, 0
1, 188491, Note_on_c, 0, 65, 0
1, 188494, Note_on_c, 0, 68, 0
1, 188494, Note_on_c, 0, 53, 0
1, 188494, Note_on_c, 0, 41, 0
1, 188597, Note_on_c, 0, 63, 80
1, 188597, Note_on_c, 0, 67, 80
1, 188597, Note_on_c, 0, 75, 90
1, 188600, Note_on_c, 0, 72, 80
1, 188600, Note_on_c, 0, 36, 62
1, 188600, Note_on_c, 0, 48, 70
1, 188706, Note_on_c, 0, 72, 0
1, 188706, Note_on_c, 0, 63, 0
1, 188706, Note_on_c, 0, 67, 0
1, 188709, Note_on_c, 0, 75, 0
1, 188709, Note_on_c, 0, 48, 0
1, 188709, Note_on_c, 0, 36, 0
1, 188815, Note_on_c, 0, 70, 84
1, 188815, Note_on_c, 0, 67, 84
1, 188815, Note_on_c, 0, 62, 84
1, 188818, Note_on_c, 0, 74, 94
1, 188818, Note_on_c, 0, 43, 67
1, 188818, Note_on_c, 0, 46, 67
1, 188821, Note_on_c, 0, 50, 67
1, 188821, Note_on_c, 0, 55, 74
1, 188844, Control_c, 0, 64, 127
1, 189160, Control_c, 0, 64, 0
1, 189213, Note_on_c, 0, 74, 0
1, 189213, Note_on_c, 0, 70, 0
1, 189213, Note_on_c, 0, 67, 0
1, 189216, Note_on_c, 0, 62, 0
1, 189216, Note_on_c, 0, 60, 75
1, 189216, Note_on_c, 0, 63, 75
1, 189219, Note_on_c, 0, 67, 75
1, 189219, Note_on_c, 0, 72, 84
1, 189219, Note_on_c, 0, 55, 0
1, 189222, Note_on_c, 0, 43, 0
1, 189222, Note_on_c, 0, 46, 0
1, 189222, Note_on_c, 0, 50, 0
1, 189225, Note_on_c, 0, 36, 59
1, 189225, Note_on_c, 0, 48, 66
1, 189314, Note_on_c, 0, 72, 0
1, 189314, Note_on_c, 0, 60, 0
1, 189314, Note_on_c, 0, 63, 0
1, 189317, Note_on_c, 0, 67, 0
1, 189317, Note_on_c, 0, 48, 0
1, 189317, Note_on_c, 0, 36, 0
1, 189415, Note_on_c, 0, 62, 72
1, 189415, Note_on_c, 0, 58, 72
1, 189415, Note_on_c, 0, 67, 81
1, 189418, Note_on_c, 0, 70, 81
1, 189418, Note_on_c, 0, 31, 56
1, 189418, Note_on_c, 0, 43, 62
1, 189515, Note_on_c, 0, 70, 0
1, 189515, Note_on_c, 0, 62, 0
1, 189515, Note_on_c, 0, 58, 0
1, 189518, Note_on_c, 0, 67, 0
1, 189518, Note_on_c, 0, 43, 0
1, 189518, Note_on_c, 0, 31, 0
1, 189616, Note_on_c, 0, 57, 75
1, 189616, Note_on_c, 0, 69, 84
1, 189616, Note_on_c, 0, 66, 84
1, 189619, Note_on_c, 0, 26, 59
1, 189619, Note_on_c, 0, 38, 67
1, 189721, Note_on_c, 0, 66, 0
1, 189721, Note_on_c, 0, 69, 0
1, 189721, Note_on_c, 0, 57, 0
1, 189724, Note_on_c, 0, 38, 0
1, 189724, Note_on_c, 0, 26, 0
1, 189826, Note_on_c, 0, 62, 80
1, 189826, Note_on_c, 0, 50, 61
1, 189826, Note_on_c, 0, 38, 55
1, 189931, Note_on_c, 0, 62, 0
1, 189931, Note_on_c, 0, 38, 0
1, 189931, Note_on_c, 0, 50, 0
1, 190036, Note_on_c, 0, 67, 90
1, 190036, Note_on_c, 0, 55, 80
1, 190036, Control_c, 0, 64, 127
1, 190039, Note_on_c, 0, 31, 63
1, 190039, Note_on_c, 0, 43, 71
1, 190439, Note_on_c, 0, 55, 0
1, 190439, Note_on_c, 0, 67, 0
1, 190439, Note_on_c, 0, 55, 79
1, 190442, Note_on_c, 0, 66, 88
1, 190442, Note_on_c, 0, 67, 88
1, 190442, Note_on_c, 0, 43, 0
1, 190445, Note_on_c, 0, 31, 0
1, 190445, Control_c, 0, 64, 0
1, 190445, Note_on_c, 0, 54, 70
1, 190448, Note_on_c, 0, 43, 62
1, 190496, Control_c, 0, 64, 127
1, 190855, Note_on_c, 0, 67, 0
1, 190855, Note_on_c, 0, 66, 0
1, 190855, Note_on_c, 0, 55, 0
1, 190858, Note_on_c, 0, 67, 82
1, 190858, Note_on_c, 0, 55, 73
1, 190858, Note_on_c, 0, 65, 82
1, 190861, Note_on_c, 0, 43, 0
1, 190861, Note_on_c, 0, 54, 0
1, 190861, Note_on_c, 0, 43, 58
1, 190864, Note_on_c, 0, 53, 64
1, 190889, Control_c, 0, 64, 0
1, 190905, Control_c, 0, 64, 127
1, 191175, Control_c, 0, 64, 0
1, 191226, Note_on_c, 0, 65, 0
1, 191226, Note_on_c, 0, 55, 0
1, 191226, Note_on_c, 0, 67, 0
1, 191229, Note_on_c, 0, 53, 0
1, 191229, Note_on_c, 0, 43, 0
1, 191279, Control_c, 0, 91, 127
1, 191279, Note_on_c, 0, 67, 67
1, 191279, Note_on_c, 0, 70, 67
1, 191282, Note_on_c, 0, 75, 67
1, 191282, Note_on_c, 0, 79, 74
1, 191282, Note_on_c, 0, 51, 52
1, 191285, Note_on_c, 0, 55, 52
1, 191285, Note_on_c, 0, 58, 52
1, 191285, Note_on_c, 0, 63, 59
1, 191288, Control_c, 0, 91, 127
1, 191416, Control_c, 0, 64, 127
1, 191646, Control_c, 0, 64, 0
1, 191668, Note_on_c, 0, 79, 0
1, 191668, Note_on_c, 0, 67, 0
1, 191668, Note_on_c, 0, 70, 0
1, 191671, Note_on_c, 0, 75, 0
1, 191671, Note_on_c, 0, 74, 59
1, 191671, Note_on_c, 0, 77, 67
1, 191674, Note_on_c, 0, 65, 59
1, 191674, Note_on_c, 0, 70, 59
1, 191674, Note_on_c, 0, 63, 0
1, 191677, Note_on_c, 0, 51, 0
1, 191677, Note_on_c, 0, 55, 0
1, 191677, Note_on_c, 0, 58, 0
1, 191680, Note_on_c, 0, 58, 53
1, 191680, Note_on_c, 0, 46, 48
1, 191737, Control_c, 0, 64, 127
1, 191863, Note_on_c, 0, 70, 0
1, 191863, Note_on_c, 0, 74, 0
1, 191863, Note_on_c, 0, 77, 0
1, 191866, Note_on_c, 0, 65, 0
1, 191866, Note_on_c, 0, 67, 64
1, 191866, Note_on_c, 0, 70, 64
1, 191869, Note_on_c, 0, 75, 64
1, 191869, Note_on_c, 0, 79, 72
1, 191869, Note_on_c, 0, 46, 0
1, 191872, Note_on_c, 0, 58, 0
1, 191872, Note_on_c, 0, 39, 53
1, 191872, Note_on_c, 0, 51, 60
1, 191887, Control_c, 0, 64, 0
1, 191950, Control_c, 0, 64, 127
1, 192074, Note_on_c, 0, 79, 0
1, 192074, Note_on_c, 0, 67, 0
1, 192074, Note_on_c, 0, 70, 0
1, 192077, Note_on_c, 0, 75, 0
1, 192077, Note_on_c, 0, 75, 70
1, 192077, Note_on_c, 0, 68, 70
1, 192080, Note_on_c, 0, 72, 70
1, 192080, Note_on_c, 0, 80, 79
1, 192080, Note_on_c, 0, 51, 0
1, 192083, Note_on_c, 0, 39, 0
1, 192083, Control_c, 0, 64, 0
1, 192083, Note_on_c, 0, 51, 59
1, 192086, Note_on_c, 0, 56, 66
1, 192086, Note_on_c, 0, 44, 59
1, 192156, Control_c, 0, 64, 127
1, 192452, Control_c, 0, 64, 0
1, 192463, Note_on_c, 0, 80, 0
1, 192463, Note_on_c, 0, 75, 0
1, 192463, Note_on_c, 0, 68, 0
1, 192466, Note_on_c, 0, 72, 0
1, 192466, Note_on_c, 0, 67, 60
1, 192466, Note_on_c, 0, 70, 60
1, 192469, Note_on_c, 0, 79, 68
1, 192469, Note_on_c, 0, 75, 60
1, 192469, Note_on_c, 0, 44, 0
1, 192472, Note_on_c, 0, 56, 0
1, 192472, Note_on_c, 0, 51, 0
1, 192472, Note_on_c, 0, 39, 48
1, 192475, Note_on_c, 0, 51, 53
1, 192494, Control_c, 0, 64, 127
1, 192658, Note_on_c, 0, 75, 0
1, 192658, Note_on_c, 0, 67, 0
1, 192658, Note_on_c, 0, 70, 0
1, 192661, Note_on_c, 0, 79, 0
1, 192661, Note_on_c, 0, 77, 70
1, 192661, Note_on_c, 0, 72, 62
1, 192664, Note_on_c, 0, 65, 62
1, 192664, Note_on_c, 0, 75, 62
1, 192664, Note_on_c, 0, 51, 0
1, 192667, Note_on_c, 0, 39, 0
1, 192667, Control_c, 0, 64, 0
1, 192667, Note_on_c, 0, 32, 49
1, 192670, Note_on_c, 0, 44, 56
1, 192746, Control_c, 0, 64, 127
1, 192867, Note_on_c, 0, 75, 0
1, 192867, Note_on_c, 0, 77, 0
1, 192867, Note_on_c, 0, 72, 0
1, 192870, Note_on_c, 0, 65, 0
1, 192870, Note_on_c, 0, 67, 67
1, 192870, Note_on_c, 0, 70, 67
1, 192873, Note_on_c, 0, 75, 67
1, 192873, Note_on_c, 0, 79, 74
1, 192873, Note_on_c, 0, 44, 0
1, 192876, Note_on_c, 0, 32, 0
1, 192876, Note_on_c, 0, 39, 50
1, 192876, Note_on_c, 0, 46, 50
1, 192879, Note_on_c, 0, 51, 57
1, 192913, Control_c, 0, 64, 0
1, 193017, Control_c, 0, 64, 127
1, 193245, Control_c, 0, 64, 0
1, 193257, Note_on_c, 0, 79, 0
1, 193257, Note_on_c, 0, 67, 0
1, 193257, Note_on_c, 0, 70, 0
1, 193260, Note_on_c, 0, 75, 0
1, 193260, Note_on_c, 0, 68, 66
1, 193260, Note_on_c, 0, 65, 66
1, 193263, Note_on_c, 0, 74, 66
1, 193263, Note_on_c, 0, 77, 73
1, 193263, Note_on_c, 0, 51, 0
1, 193266, Note_on_c, 0, 46, 0
1, 193266, Note_on_c, 0, 39, 0
1, 193266, Note_on_c, 0, 34, 52
1, 193269, Note_on_c, 0, 46, 59
1, 193315, Control_c, 0, 64, 127
1, 193455, Note_on_c, 0, 77, 0
1, 193455, Note_on_c, 0, 68, 0
1, 193455, Note_on_c, 0, 65, 0
1, 193458, Note_on_c, 0, 74, 0
1, 193458, Note_on_c, 0, 63, 63
1, 193458, Note_on_c, 0, 75, 71
1, 193461, Note_on_c, 0, 67, 63
1, 193461, Note_on_c, 0, 70, 63
1, 193461, Note_on_c, 0, 46, 0
1, 193464, Note_on_c, 0, 34, 0
1, 193464, Note_on_c, 0, 27, 50
1, 193464, Note_on_c, 0, 39, 57
1, 193479, Control_c, 0, 64, 0
1, 193526, Control_c, 0, 64, 127
1, 193654, Note_on_c, 0, 70, 0
1, 193654, Note_on_c, 0, 63, 0
1, 193654, Note_on_c, 0, 75, 0
1, 193657, Note_on_c, 0, 67, 0
1, 193657, Note_on_c, 0, 74, 72
1, 193657, Note_on_c, 0, 65, 64
1, 193660, Note_on_c, 0, 77, 72
1, 193660, Note_on_c, 0, 39, 0
1, 193660, Note_on_c, 0, 27, 0
1, 193663, Control_c, 0, 64, 0
1, 193663, Note_on_c, 0, 34, 50
1, 193663, Note_on_c, 0, 46, 57
1, 193761, Control_c, 0, 64, 127
1, 193856, Note_on_c, 0, 77, 0
1, 193856, Note_on_c, 0, 65, 0
1, 193856, Note_on_c, 0, 74, 0
1, 193859, Note_on_c, 0, 70, 70
1, 193859, Note_on_c, 0, 46, 0
1, 193859, Note_on_c, 0, 34, 0
1, 193862, Note_on_c, 0, 58, 56
1, 193862, Note_on_c, 0, 46, 49
1, 193939, Control_c, 0, 64, 0
1, 194057, Note_on_c, 0, 70, 0
1, 194057, Note_on_c, 0, 63, 80
1, 194057, Note_on_c, 0, 75, 80
1, 194060, Note_on_c, 0, 46, 0
1, 194060, Note_on_c, 0, 58, 0
1, 194060, Note_on_c, 0, 39, 58
1, 194063, Note_on_c, 0, 51, 64
1, 194130, Control_c, 0, 64, 127
1, 194470, Note_on_c, 0, 75, 0
1, 194470, Note_on_c, 0, 63, 0
1, 194470, Note_on_c, 0, 75, 83
1, 194473, Note_on_c, 0, 73, 83
1, 194473, Note_on_c, 0, 63, 74
1, 194473, Note_on_c, 0, 51, 0
1, 194476, Note_on_c, 0, 39, 0
1, 194476, Control_c, 0, 64, 0
1, 194476, Note_on_c, 0, 39, 59
1, 194479, Note_on_c, 0, 37, 59
1, 194479, Note_on_c, 0, 49, 66
1, 194600, Control_c, 0, 64, 127
1, 194822, Control_c, 0, 64, 0
1, 194905, Note_on_c, 0, 63, 0
1, 194905, Note_on_c, 0, 73, 0
1, 194905, Note_on_c, 0, 75, 0
1, 194908, Note_on_c, 0, 63, 79
1, 194908, Note_on_c, 0, 70, 89
1, 194908, Note_on_c, 0, 75, 89
1, 194911, Note_on_c, 0, 49, 0
1, 194911, Note_on_c, 0, 37, 0
1, 194911, Note_on_c, 0, 39, 0
1, 194914, Note_on_c, 0, 34, 62
1, 194914, Note_on_c, 0, 39, 62
1, 194914, Note_on_c, 0, 46, 70
1, 194930, Control_c, 0, 64, 127
1, 195256, Control_c, 0, 64, 0
1, 195311, Note_on_c, 0, 75, 0
1, 195311, Note_on_c, 0, 70, 0
1, 195311, Note_on_c, 0, 63, 0
1, 195314, Note_on_c, 0, 46, 0
1, 195314, Note_on_c, 0, 39, 0
1, 195314, Note_on_c, 0, 34, 0
1, 195369, Note_on_c, 0, 80, 90
1, 195369, Note_on_c, 0, 83, 90
1, 195369, Note_on_c, 0, 92, 101
1, 195372, Note_on_c, 0, 87, 90
1, 195372, Note_on_c, 0, 32, 72
1, 195372, Note_on_c, 0, 39, 72
1, 195375, Note_on_c, 0, 44, 81
1, 195398, Control_c, 0, 64, 127
1, 195693, Control_c, 0, 64, 0
1, 195769, Note_on_c, 0, 87, 0
1, 195769, Note_on_c, 0, 80, 0
1, 195769, Note_on_c, 0, 83, 0
1, 195772, Note_on_c, 0, 92, 0
1, 195772, Note_on_c, 0, 86, 93
1, 195772, Note_on_c, 0, 82, 93
1, 195775, Note_on_c, 0, 74, 83
1, 195775, Note_on_c, 0, 44, 0
1, 195775, Note_on_c, 0, 39, 0
1, 195778, Note_on_c, 0, 32, 0
1, 195778, Note_on_c, 0, 35, 67
1, 195778, Note_on_c, 0, 47, 74
1, 195871, Note_on_c, 0, 74, 0
1, 195871, Note_on_c, 0, 82, 0
1, 195871, Note_on_c, 0, 86, 0
1, 195874, Note_on_c, 0, 47, 0
1, 195874, Note_on_c, 0, 35, 0
1, 195974, Note_on_c, 0, 87, 90
1, 195974, Note_on_c, 0, 83, 90
1, 195974, Note_on_c, 0, 75, 80
1, 195977, Note_on_c, 0, 44, 72
1, 195977, Note_on_c, 0, 32, 64
1, 196081, Note_on_c, 0, 75, 0
1, 196081, Note_on_c, 0, 83, 0
1, 196081, Note_on_c, 0, 87, 0
1, 196084, Note_on_c, 0, 32, 0
1, 196084, Note_on_c, 0, 44, 0
1, 196189, Note_on_c, 0, 80, 89
1, 196189, Note_on_c, 0, 83, 100
1, 196189, Note_on_c, 0, 76, 89
1, 196192, Note_on_c, 0, 71, 89
1, 196192, Note_on_c, 0, 47, 70
1, 196192, Note_on_c, 0, 40, 70
1, 196195, Note_on_c, 0, 44, 70
1, 196195, Note_on_c, 0, 52, 79
1, 196218, Control_c, 0, 64, 127
1, 196523, Control_c, 0, 64, 0
1, 196588, Note_on_c, 0, 71, 0
1, 196588, Note_on_c, 0, 80, 0
1, 196588, Note_on_c, 0, 83, 0
1, 196591, Note_on_c, 0, 76, 0
1, 196591, Note_on_c, 0, 79, 88
1, 196591, Note_on_c, 0, 67, 79
1, 196594, Note_on_c, 0, 75, 79
1, 196594, Note_on_c, 0, 52, 0
1, 196594, Note_on_c, 0, 47, 0
1, 196597, Note_on_c, 0, 40, 0
1, 196597, Note_on_c, 0, 44, 0
1, 196597, Note_on_c, 0, 44, 62
1, 196600, Note_on_c, 0, 56, 70
1, 196696, Note_on_c, 0, 75, 0
1, 196696, Note_on_c, 0, 67, 0
1, 196696, Note_on_c, 0, 79, 0
1, 196699, Note_on_c, 0, 56, 0
1, 196699, Note_on_c, 0, 44, 0
1, 196803, Note_on_c, 0, 68, 77
1, 196803, Note_on_c, 0, 80, 85
1, 196803, Note_on_c, 0, 76, 77
1, 196806, Note_on_c, 0, 40, 60
1, 196806, Note_on_c, 0, 52, 68
1, 196911, Note_on_c, 0, 76, 0
1, 196911, Note_on_c, 0, 80, 0
1, 196911, Note_on_c, 0, 68, 0
1, 196914, Note_on_c, 0, 52, 0
1, 196914, Note_on_c, 0, 40, 0
1, 197018, Note_on_c, 0, 76, 96
1, 197018, Note_on_c, 0, 73, 86
1, 197018, Note_on_c, 0, 68, 86
1, 197021, Note_on_c, 0, 64, 86
1, 197021, Note_on_c, 0, 61, 77
1, 197021, Note_on_c, 0, 56, 69
1, 197024, Note_on_c, 0, 52, 69
1, 197024, Note_on_c, 0, 49, 69
1, 197032, Control_c, 0, 64, 127
1, 197383, Control_c, 0, 64, 0
1, 197426, Note_on_c, 0, 64, 0
1, 197426, Note_on_c, 0, 76, 0
1, 197426, Note_on_c, 0, 73, 0
1, 197429, Note_on_c, 0, 68, 0
1, 197429, Note_on_c, 0, 60, 74
1, 197429, Note_on_c, 0, 72, 83
1, 197432, Note_on_c, 0, 68, 74
1, 197432, Note_on_c, 0, 49, 0
1, 197432, Note_on_c, 0, 61, 0
1, 197435, Note_on_c, 0, 56, 0
1, 197435, Note_on_c, 0, 52, 0
1, 197435, Note_on_c, 0, 40, 59
1, 197438, Note_on_c, 0, 52, 66
1, 197533, Note_on_c, 0, 68, 0
1, 197533, Note_on_c, 0, 72, 0
1, 197533, Note_on_c, 0, 60, 0
1, 197536, Note_on_c, 0, 52, 0
1, 197536, Note_on_c, 0, 40, 0
1, 197639, Note_on_c, 0, 73, 83
1, 197639, Note_on_c, 0, 64, 74
1, 197639, Note_on_c, 0, 61, 74
1, 197642, Note_on_c, 0, 37, 59
1, 197642, Note_on_c, 0, 49, 66
1, 197746, Note_on_c, 0, 61, 0
1, 197746, Note_on_c, 0, 64, 0
1, 197746, Note_on_c, 0, 73, 0
1, 197749, Note_on_c, 0, 49, 0
1, 197749, Note_on_c, 0, 37, 0
1, 197852, Note_on_c, 0, 59, 81
1, 197852, Note_on_c, 0, 71, 91
1, 197852, Note_on_c, 0, 62, 81
1, 197855, Note_on_c, 0, 65, 81
1, 197855, Control_c, 0, 64, 127
1, 197855, Note_on_c, 0, 44, 64
1, 197858, Note_on_c, 0, 50, 64
1, 197858, Note_on_c, 0, 53, 64
1, 197858, Note_on_c, 0, 56, 72
1, 198173, Control_c, 0, 64, 0
1, 198280, Note_on_c, 0, 65, 0
1, 198280, Note_on_c, 0, 59, 0
1, 198280, Note_on_c, 0, 71, 0
1, 198283, Note_on_c, 0, 62, 0
1, 198283, Note_on_c, 0, 63, 83
1, 198283, Note_on_c, 0, 58, 83
1, 198286, Note_on_c, 0, 70, 93
1, 198286, Note_on_c, 0, 56, 0
1, 198286, Note_on_c, 0, 44, 0
1, 198289, Note_on_c, 0, 50, 0
1, 198289, Note_on_c, 0, 53, 0
1, 198289, Note_on_c, 0, 42, 67
1, 198292, Note_on_c, 0, 54, 74
1, 198394, Note_on_c, 0, 58, 0
1, 198394, Note_on_c, 0, 63, 0
1, 198394, Note_on_c, 0, 54, 0
1, 198397, Note_on_c, 0, 42, 0
1, 198507, Note_on_c, 0, 59, 82
1, 198507, Note_on_c, 0, 63, 82
1, 198507, Note_on_c, 0, 68, 92
1, 198510, Note_on_c, 0, 53, 71
1, 198510, Note_on_c, 0, 41, 63
1, 198621, Note_on_c, 0, 68, 0
1, 198621, Note_on_c, 0, 63, 0
1, 198621, Note_on_c, 0, 59, 0
1, 198624, Note_on_c, 0, 41, 0
1, 198624, Note_on_c, 0, 53, 0
1, 198734, Note_on_c, 0, 70, 0
1, 198734, Note_on_c, 0, 66, 93
1, 198734, Note_on_c, 0, 58, 83
1, 198737, Note_on_c, 0, 63, 83
1, 198737, Note_on_c, 0, 70, 93
1, 198737, Control_c, 0, 64, 127
1, 198740, Note_on_c, 0, 46, 67
1, 198740, Note_on_c, 0, 58, 74
1, 198912, Control_c, 0, 64, 0
1, 199083, Note_on_c, 0, 70, 0
1, 199083, Note_on_c, 0, 66, 0
1, 199083, Note_on_c, 0, 58, 0
1, 199086, Note_on_c, 0, 63, 0
1, 199086, Note_on_c, 0, 58, 0
1, 199086, Note_on_c, 0, 46, 0
1, 199200, Note_on_c, 0, 56, 83
1, 199200, Note_on_c, 0, 62, 83
1, 199200, Note_on_c, 0, 70, 93
1, 199203, Note_on_c, 0, 65, 83
1, 199203, Note_on_c, 0, 34, 67
1, 199203, Note_on_c, 0, 46, 74
1, 199302, Control_c, 0, 64, 127
1, 199453, Control_c, 0, 64, 0
1, 199549, Note_on_c, 0, 65, 0
1, 199549, Note_on_c, 0, 56, 0
1, 199549, Note_on_c, 0, 62, 0
1, 199552, Note_on_c, 0, 70, 0
1, 199552, Note_on_c, 0, 46, 0
1, 199552, Note_on_c, 0, 34, 0
1, 199665, Note_on_c, 0, 58, 83
1, 199665, Note_on_c, 0, 54, 83
1, 199665, Control_c, 0, 91, 127
1, 199668, Note_on_c, 0, 63, 93
1, 199668, Note_on_c, 0, 39, 55
1, 199668, Control_c, 0, 91, 127
1, 199693, Control_c, 0, 64, 127
1, 199763, Note_on_c, 0, 63, 0
1, 199763, Note_on_c, 0, 54, 0
1, 199763, Note_on_c, 0, 58, 0
1, 199766, Note_on_c, 0, 39, 0
1, 199766, Note_on_c, 0, 46, 52
1, 199861, Note_on_c, 0, 46, 0
1, 199861, Note_on_c, 0, 51, 55
1, 199958, Note_on_c, 0, 82, 79
1, 199958, Note_on_c, 0, 70, 67
1, 199958, Note_on_c, 0, 51, 0
1, 199961, Note_on_c, 0, 54, 52
1, 200009, Control_c, 0, 64, 0
1, 200056, Note_on_c, 0, 70, 0
1, 200056, Note_on_c, 0, 82, 0
1, 200056, Note_on_c, 0, 65, 72
1, 200059, Note_on_c, 0, 54, 0
1, 200059, Note_on_c, 0, 46, 40
1, 200059, Note_on_c, 0, 50, 40
1, 200062, Note_on_c, 0, 56, 48
1, 200154, Note_on_c, 0, 65, 0
1, 200210, Control_c, 0, 64, 127
1, 200349, Note_on_c, 0, 66, 67
1, 200349, Note_on_c, 0, 78, 79
1, 200377, Control_c, 0, 64, 0
1, 200447, Note_on_c, 0, 78, 0
1, 200447, Note_on_c, 0, 66, 0
1, 200447, Note_on_c, 0, 63, 72
1, 200450, Note_on_c, 0, 56, 0
1, 200450, Note_on_c, 0, 50, 0
1, 200450, Note_on_c, 0, 46, 0
1, 200453, Note_on_c, 0, 39, 53
1, 200544, Note_on_c, 0, 63, 0
1, 200544, Note_on_c, 0, 39, 0
1, 200544, Note_on_c, 0, 46, 52
1, 200595, Control_c, 0, 64, 127
1, 200642, Note_on_c, 0, 46, 0
1, 200642, Note_on_c, 0, 51, 53
1, 200740, Note_on_c, 0, 82, 81
1, 200740, Note_on_c, 0, 70, 69
1, 200740, Note_on_c, 0, 51, 0
1, 200743, Note_on_c, 0, 54, 53
1, 200743, Control_c, 0, 64, 0
1, 200837, Note_on_c, 0, 70, 0
1, 200837, Note_on_c, 0, 82, 0
1, 200837, Note_on_c, 0, 65, 74
1, 200840, Note_on_c, 0, 54, 0
1, 200840, Note_on_c, 0, 46, 40
1, 200840, Note_on_c, 0, 50, 40
1, 200843, Note_on_c, 0, 56, 48
1, 200935, Note_on_c, 0, 65, 0
1, 200972, Control_c, 0, 64, 127
1, 201130, Note_on_c, 0, 66, 69
1, 201130, Note_on_c, 0, 78, 81
1, 201149, Control_c, 0, 64, 0
1, 201228, Note_on_c, 0, 78, 0
1, 201228, Note_on_c, 0, 66, 0
1, 201228, Note_on_c, 0, 63, 74
1, 201231, Note_on_c, 0, 56, 0
1, 201231, Note_on_c, 0, 50, 0
1, 201231, Note_on_c, 0, 46, 0
1, 201234, Note_on_c, 0, 39, 52
1, 201326, Note_on_c, 0, 63, 0
1, 201326, Note_on_c, 0, 47, 50
1, 201344, Control_c, 0, 64, 127
1, 201423, Note_on_c, 0, 47, 0
1, 201423, Note_on_c, 0, 39, 0
1, 201423, Note_on_c, 0, 51, 52
1, 201521, Note_on_c, 0, 75, 73
1, 201521, Note_on_c, 0, 87, 86
1, 201521, Note_on_c, 0, 51, 0
1, 201524, Note_on_c, 0, 54, 50
1, 201540, Control_c, 0, 64, 0
1, 201619, Note_on_c, 0, 87, 0
1, 201619, Note_on_c, 0, 75, 0
1, 201619, Note_on_c, 0, 65, 74
1, 201622, Note_on_c, 0, 54, 0
1, 201622, Note_on_c, 0, 48, 40
1, 201622, Note_on_c, 0, 51, 40
1, 201625, Note_on_c, 0, 57, 48
1, 201716, Note_on_c, 0, 65, 0
1, 201749, Control_c, 0, 64, 127
1, 201912, Note_on_c, 0, 89, 82
1, 201912, Note_on_c, 0, 77, 69
1, 201944, Control_c, 0, 64, 0
1, 202009, Note_on_c, 0, 77, 0
1, 202009, Note_on_c, 0, 89, 0
1, 202009, Note_on_c, 0, 66, 74
1, 202012, Note_on_c, 0, 57, 0
1, 202012, Note_on_c, 0, 51, 0
1, 202012, Note_on_c, 0, 48, 0
1, 202015, Note_on_c, 0, 39, 52
1, 202107, Note_on_c, 0, 66, 0
1, 202107, Note_on_c, 0, 48, 51
1, 202158, Control_c, 0, 64, 127
1, 202205, Note_on_c, 0, 48, 0
1, 202205, Note_on_c, 0, 39, 0
1, 202205, Note_on_c, 0, 51, 52
1, 202302, Note_on_c, 0, 78, 69
1, 202302, Note_on_c, 0, 90, 82
1, 202302, Note_on_c, 0, 51, 0
1, 202305, Note_on_c, 0, 57, 50
1, 202372, Control_c, 0, 64, 0
1, 202400, Note_on_c, 0, 90, 0
1, 202400, Note_on_c, 0, 78, 0
1, 202400, Note_on_c, 0, 69, 74
1, 202403, Note_on_c, 0, 57, 0
1, 202403, Note_on_c, 0, 51, 41
1, 202403, Note_on_c, 0, 54, 41
1, 202406, Note_on_c, 0, 60, 49
1, 202498, Note_on_c, 0, 69, 0
1, 202525, Control_c, 0, 64, 127
1, 202651, Control_c, 0, 64, 0
1, 202693, Note_on_c, 0, 93, 93
1, 202693, Note_on_c, 0, 81, 79
1, 202796, Note_on_c, 0, 81, 0
1, 202796, Note_on_c, 0, 93, 0
1, 202796, Note_on_c, 0, 94, 83
1, 202799, Note_on_c, 0, 82, 74
1, 202799, Note_on_c, 0, 90, 74
1, 202799, Note_on_c, 0, 87, 74
1, 202802, Note_on_c, 0, 60, 0
1, 202802, Note_on_c, 0, 54, 0
1, 202802, Note_on_c, 0, 51, 0
1, 202805, Control_c, 0, 64, 127
1, 202805, Note_on_c, 0, 34, 49
1, 202805, Note_on_c, 0, 39, 49
1, 202808, Note_on_c, 0, 42, 56
1, 202808, Note_on_c, 0, 46, 56
1, 203014, Control_c, 0, 64, 0
1, 203212, Note_on_c, 0, 87, 0
1, 203212, Note_on_c, 0, 94, 0
1, 203212, Note_on_c, 0, 82, 0
1, 203215, Note_on_c, 0, 90, 0
1, 203215, Note_on_c, 0, 68, 79
1, 203215, Note_on_c, 0, 62, 79
1, 203218, Note_on_c, 0, 70, 79
1, 203218, Note_on_c, 0, 74, 88
1, 203218, Note_on_c, 0, 46, 0
1, 203221, Note_on_c, 0, 34, 0
1, 203221, Note_on_c, 0, 39, 0
1, 203221, Note_on_c, 0, 42, 0
1, 203224, Note_on_c, 0, 46, 49
1, 203224, Note_on_c, 0, 53, 49
1, 203224, Note_on_c, 0, 56, 56
1, 203227, Note_on_c, 0, 58, 56
1, 203232, Control_c, 0, 64, 127
1, 203489, Control_c, 0, 64, 0
1, 203628, Note_on_c, 0, 74, 0
1, 203628, Note_on_c, 0, 68, 0
1, 203628, Note_on_c, 0, 62, 0
1, 203631, Note_on_c, 0, 70, 0
1, 203631, Control_c, 0, 91, 127
1, 203631, Note_on_c, 0, 63, 70
1, 203634, Note_on_c, 0, 66, 70
1, 203634, Note_on_c, 0, 75, 79
1, 203634, Note_on_c, 0, 58, 0
1, 203637, Note_on_c, 0, 46, 0
1, 203637, Note_on_c, 0, 53, 0
1, 203637, Note_on_c, 0, 56, 0
1, 203640, Note_on_c, 0, 35, 46
1, 203640, Control_c, 0, 91, 127
1, 203726, Note_on_c, 0, 75, 0
1, 203726, Note_on_c, 0, 66, 0
1, 203726, Note_on_c, 0, 63, 0
1, 203729, Note_on_c, 0, 35, 0
1, 203729, Note_on_c, 0, 42, 45
1, 203782, Control_c, 0, 64, 127
1, 203823, Note_on_c, 0, 42, 0
1, 203823, Note_on_c, 0, 47, 46
1, 203921, Note_on_c, 0, 83, 71
1, 203921, Note_on_c, 0, 71, 59
1, 203921, Note_on_c, 0, 47, 0
1, 203924, Note_on_c, 0, 51, 45
1, 203986, Control_c, 0, 64, 0
1, 204019, Note_on_c, 0, 71, 0
1, 204019, Note_on_c, 0, 83, 0
1, 204019, Note_on_c, 0, 66, 66
1, 204022, Note_on_c, 0, 51, 0
1, 204022, Note_on_c, 0, 47, 34
1, 204022, Note_on_c, 0, 52, 34
1, 204025, Note_on_c, 0, 58, 40
1, 204116, Note_on_c, 0, 66, 0
1, 204154, Control_c, 0, 64, 127
1, 204312, Note_on_c, 0, 79, 73
1, 204312, Note_on_c, 0, 67, 73
1, 204368, Control_c, 0, 64, 0
1, 204409, Note_on_c, 0, 67, 0
1, 204409, Note_on_c, 0, 79, 0
1, 204409, Note_on_c, 0, 63, 66
1, 204412, Note_on_c, 0, 58, 0
1, 204412, Note_on_c, 0, 52, 0
1, 204412, Note_on_c, 0, 47, 0
1, 204415, Note_on_c, 0, 35, 46
1, 204507, Note_on_c, 0, 63, 0
1, 204507, Note_on_c, 0, 35, 0
1, 204507, Note_on_c, 0, 42, 45
1, 204526, Control_c, 0, 64, 127
1, 204605, Note_on_c, 0, 42, 0
1, 204605, Note_on_c, 0, 47, 46
1, 204702, Note_on_c, 0, 83, 77
1, 204702, Note_on_c, 0, 71, 65
1, 204702, Note_on_c, 0, 47, 0
1, 204705, Note_on_c, 0, 51, 45
1, 204772, Control_c, 0, 64, 0
1, 204800, Note_on_c, 0, 71, 0
1, 204800, Note_on_c, 0, 83, 0
1, 204800, Note_on_c, 0, 66, 66
1, 204803, Note_on_c, 0, 51, 0
1, 204803, Note_on_c, 0, 47, 33
1, 204803, Note_on_c, 0, 52, 33
1, 204806, Note_on_c, 0, 58, 39
1, 204898, Note_on_c, 0, 66, 0
1, 204977, Control_c, 0, 64, 127
1, 205093, Note_on_c, 0, 79, 74
1, 205093, Note_on_c, 0, 67, 62
1, 205107, Control_c, 0, 64, 0
1, 205191, Note_on_c, 0, 67, 0
1, 205191, Note_on_c, 0, 79, 0
1, 205191, Note_on_c, 0, 63, 66
1, 205194, Note_on_c, 0, 58, 0
1, 205194, Note_on_c, 0, 52, 0
1, 205194, Note_on_c, 0, 47, 0
1, 205197, Note_on_c, 0, 35, 41
1, 205288, Note_on_c, 0, 63, 0
1, 205288, Note_on_c, 0, 35, 0
1, 205288, Note_on_c, 0, 42, 39
1, 205335, Control_c, 0, 64, 127
1, 205386, Note_on_c, 0, 42, 0
1, 205386, Note_on_c, 0, 47, 41
1, 205484, Note_on_c, 0, 90, 77
1, 205484, Note_on_c, 0, 78, 57
1, 205484, Note_on_c, 0, 47, 0
1, 205487, Note_on_c, 0, 51, 39
1, 205544, Control_c, 0, 64, 0
1, 205581, Note_on_c, 0, 78, 0
1, 205581, Note_on_c, 0, 90, 0
1, 205581, Note_on_c, 0, 65, 72
1, 205584, Note_on_c, 0, 48, 33
1, 205584, Note_on_c, 0, 57, 39
1, 205679, Note_on_c, 0, 65, 0
1, 205739, Control_c, 0, 64, 127
1, 205865, Control_c, 0, 64, 0
1, 205874, Note_on_c, 0, 89, 80
1, 205874, Note_on_c, 0, 77, 60
1, 205972, Note_on_c, 0, 77, 0
1, 205972, Note_on_c, 0, 89, 0
1, 205972, Note_on_c, 0, 63, 71
1, 205975, Note_on_c, 0, 57, 0
1, 205975, Note_on_c, 0, 48, 0
1, 205975, Note_on_c, 0, 51, 0
1, 205978, Note_on_c, 0, 29, 41
1, 206070, Note_on_c, 0, 63, 0
1, 206070, Note_on_c, 0, 29, 0
1, 206070, Note_on_c, 0, 41, 40
1, 206093, Control_c, 0, 64, 127
1, 206167, Note_on_c, 0, 41, 0
1, 206167, Note_on_c, 0, 45, 41
1, 206265, Note_on_c, 0, 87, 80
1, 206265, Note_on_c, 0, 75, 60
1, 206265, Note_on_c, 0, 45, 0
1, 206268, Note_on_c, 0, 48, 40
1, 206311, Control_c, 0, 64, 0
1, 206363, Note_on_c, 0, 75, 0
1, 206363, Note_on_c, 0, 87, 0
1, 206363, Note_on_c, 0, 57, 69
1, 206366, Note_on_c, 0, 51, 38
1, 206366, Note_on_c, 0, 41, 32
1, 206460, Note_on_c, 0, 57, 0
1, 206469, Control_c, 0, 64, 127
1, 206656, Note_on_c, 0, 93, 86
1, 206656, Note_on_c, 0, 81, 78
1, 206705, Control_c, 0, 64, 0
1, 206759, Note_on_c, 0, 81, 0
1, 206759, Note_on_c, 0, 93, 0
1, 206759, Note_on_c, 0, 94, 82
1, 206762, Note_on_c, 0, 90, 73
1, 206762, Note_on_c, 0, 87, 73
1, 206762, Note_on_c, 0, 82, 73
1, 206765, Note_on_c, 0, 41, 0
1, 206765, Note_on_c, 0, 51, 0
1, 206765, Note_on_c, 0, 48, 0
1, 206768, Note_on_c, 0, 34, 57
1, 206768, Note_on_c, 0, 39, 57
1, 206768, Note_on_c, 0, 42, 57
1, 206771, Note_on_c, 0, 46, 64
1, 206816, Control_c, 0, 64, 127
1, 207158, Note_on_c, 0, 82, 0
1, 207158, Note_on_c, 0, 94, 0
1, 207158, Note_on_c, 0, 90, 0
1, 207161, Note_on_c, 0, 87, 0
1, 207161, Note_on_c, 0, 87, 78
1, 207161, Note_on_c, 0, 75, 71
1, 207164, Note_on_c, 0, 80, 71
1, 207164, Note_on_c, 0, 83, 78
1, 207164, Note_on_c, 0, 46, 0
1, 207167, Note_on_c, 0, 34, 0
1, 207167, Note_on_c, 0, 39, 0
1, 207167, Note_on_c, 0, 42, 0
1, 207170, Note_on_c, 0, 46, 54
1, 207170, Note_on_c, 0, 51, 54
1, 207170, Note_on_c, 0, 56, 54
1, 207173, Note_on_c, 0, 59, 61
1, 207267, Control_c, 0, 64, 0
1, 207291, Control_c, 0, 64, 127
1, 207557, Note_on_c, 0, 83, 0
1, 207557, Note_on_c, 0, 87, 0
1, 207557, Note_on_c, 0, 75, 0
1, 207560, Note_on_c, 0, 80, 0
1, 207560, Note_on_c, 0, 63, 66
1, 207560, Note_on_c, 0, 69, 66
1, 207563, Note_on_c, 0, 72, 66
1, 207563, Note_on_c, 0, 75, 74
1, 207563, Note_on_c, 0, 59, 0
1, 207566, Note_on_c, 0, 46, 0
1, 207566, Note_on_c, 0, 51, 0
1, 207566, Note_on_c, 0, 56, 0
1, 207569, Control_c, 0, 64, 0
1, 207569, Note_on_c, 0, 46, 52
1, 207569, Note_on_c, 0, 53, 52
1, 207572, Note_on_c, 0, 60, 59
1, 207629, Control_c, 0, 64, 127
1, 207938, Control_c, 0, 64, 0
1, 207957, Note_on_c, 0, 75, 0
1, 207957, Note_on_c, 0, 63, 0
1, 207957, Note_on_c, 0, 69, 0
1, 207960, Note_on_c, 0, 72, 0
1, 207960, Note_on_c, 0, 62, 63
1, 207960, Note_on_c, 0, 65, 63
1, 207963, Note_on_c, 0, 56, 63
1, 207963, Note_on_c, 0, 58, 63
1, 207963, Note_on_c, 0, 70, 71
1, 207966, Note_on_c, 0, 60, 0
1, 207966, Note_on_c, 0, 53, 0
1, 207966, Note_on_c, 0, 46, 0
1, 207969, Note_on_c, 0, 34, 55
1, 207969, Note_on_c, 0, 46, 55
1, 208004, Control_c, 0, 64, 127
1, 208299, Control_c, 0, 64, 0
1, 208306, Note_on_c, 0, 39, 27
1, 208323, Note_on_c, 0, 42, 27
1, 208340, Note_on_c, 0, 46, 26
1, 208356, Note_on_c, 0, 70, 0
1, 208356, Note_on_c, 0, 56, 0
1, 208356, Note_on_c, 0, 62, 0
1, 208359, Note_on_c, 0, 65, 0
1, 208359, Note_on_c, 0, 58, 0
1, 208359, Control_c, 0, 91, 127
1, 208362, Note_on_c, 0, 46, 0
1, 208362, Note_on_c, 0, 34, 0
1, 208362, Control_c, 0, 91, 127
1, 208365, Note_on_c, 0, 51, 52
1, 208418, Note_on_c, 0, 51, 0
1, 208418, Note_on_c, 0, 46, 0
1, 208418, Note_on_c, 0, 39, 0
1, 208421, Note_on_c, 0, 42, 0
1, 208480, Note_on_c, 0, 50, 37
1, 208542, Note_on_c, 0, 50, 0
1, 208604, Note_on_c, 0, 51, 36
1, 208666, Note_on_c, 0, 51, 0
1, 208681, Note_on_c, 0, 39, 26
1, 208697, Note_on_c, 0, 44, 26
1, 208712, Note_on_c, 0, 47, 26
1, 208727, Note_on_c, 0, 53, 36
1, 208789, Note_on_c, 0, 53, 0
1, 208789, Note_on_c, 0, 39, 0
1, 208789, Note_on_c, 0, 44, 0
1, 208792, Note_on_c, 0, 47, 0
1, 208851, Note_on_c, 0, 51, 35
1, 208912, Note_on_c, 0, 51, 0
1, 208974, Note_on_c, 0, 50, 35
1, 209035, Note_on_c, 0, 50, 0
1, 209066, Note_on_c, 0, 39, 28
1, 209081, Note_on_c, 0, 46, 28
1, 209097, Note_on_c, 0, 54, 38
1, 209158, Note_on_c, 0, 54, 0
1, 209158, Note_on_c, 0, 46, 0
1, 209158, Note_on_c, 0, 39, 0
1, 209219, Note_on_c, 0, 50, 37
1, 209219, Note_on_c, 0, 53, 37
1, 209281, Note_on_c, 0, 53, 0
1, 209281, Note_on_c, 0, 50, 0
1, 209342, Note_on_c, 0, 51, 37
1, 209342, Note_on_c, 0, 54, 37
1, 209403, Note_on_c, 0, 54, 0
1, 209403, Note_on_c, 0, 51, 0
1, 209433, Note_on_c, 0, 39, 28
1, 209449, Note_on_c, 0, 47, 28
1, 209464, Note_on_c, 0, 56, 37
1, 209525, Note_on_c, 0, 56, 0
1, 209525, Note_on_c, 0, 47, 0
1, 209525, Note_on_c, 0, 39, 0
1, 209586, Note_on_c, 0, 54, 36
1, 209586, Note_on_c, 0, 51, 36
1, 209647, Note_on_c, 0, 51, 0
1, 209647, Note_on_c, 0, 54, 0
1, 209708, Note_on_c, 0, 53, 36
1, 209708, Note_on_c, 0, 50, 36
1, 209769, Note_on_c, 0, 50, 0
1, 209769, Note_on_c, 0, 53, 0
1, 209784, Note_on_c, 0, 51, 30
1, 209799, Note_on_c, 0, 54, 30
1, 209814, Note_on_c, 0, 58, 30
1, 209829, Note_on_c, 0, 63, 53
1, 209890, Note_on_c, 0, 63, 0
1, 209890, Note_on_c, 0, 58, 0
1, 209890, Note_on_c, 0, 54, 0
1, 209893, Note_on_c, 0, 51, 0
1, 209951, Note_on_c, 0, 62, 51
1, 210011, Note_on_c, 0, 62, 0
1, 210072, Note_on_c, 0, 63, 53
1, 210132, Note_on_c, 0, 63, 0
1, 210147, Note_on_c, 0, 51, 31
1, 210162, Note_on_c, 0, 56, 31
1, 210178, Note_on_c, 0, 59, 31
1, 210193, Note_on_c, 0, 65, 53
1, 210253, Note_on_c, 0, 65, 0
1, 210253, Note_on_c, 0, 59, 0
1, 210253, Note_on_c, 0, 56, 0
1, 210256, Note_on_c, 0, 51, 0
1, 210313, Note_on_c, 0, 63, 51
1, 210374, Note_on_c, 0, 63, 0
1, 210434, Note_on_c, 0, 62, 53
1, 210494, Note_on_c, 0, 62, 0
1, 210524, Note_on_c, 0, 51, 35
1, 210539, Note_on_c, 0, 58, 37
1, 210554, Note_on_c, 0, 66, 56
1, 210614, Note_on_c, 0, 66, 0
1, 210614, Note_on_c, 0, 58, 0
1, 210614, Note_on_c, 0, 51, 0
1, 210674, Note_on_c, 0, 62, 53
1, 210674, Note_on_c, 0, 65, 53
1, 210734, Note_on_c, 0, 65, 0
1, 210734, Note_on_c, 0, 62, 0
1, 210794, Note_on_c, 0, 63, 56
1, 210794, Note_on_c, 0, 66, 56
1, 210854, Note_on_c, 0, 66, 0
1, 210854, Note_on_c, 0, 63, 0
1, 210884, Note_on_c, 0, 51, 35
1, 210899, Note_on_c, 0, 59, 35
1, 210914, Note_on_c, 0, 68, 56
1, 210973, Note_on_c, 0, 68, 0
1, 210973, Note_on_c, 0, 59, 0
1, 210973, Note_on_c, 0, 51, 0
1, 211033, Note_on_c, 0, 66, 52
1, 211033, Note_on_c, 0, 63, 52
1, 211093, Note_on_c, 0, 63, 0
1, 211093, Note_on_c, 0, 66, 0
1, 211152, Note_on_c, 0, 65, 56
1, 211152, Note_on_c, 0, 62, 56
1, 211212, Note_on_c, 0, 62, 0
1, 211212, Note_on_c, 0, 65, 0
1, 211227, Note_on_c, 0, 63, 40
1, 211242, Note_on_c, 0, 66, 40
1, 211256, Note_on_c, 0, 70, 40
1, 211271, Note_on_c, 0, 75, 66
1, 211331, Note_on_c, 0, 75, 0
1, 211331, Note_on_c, 0, 70, 0
1, 211331, Note_on_c, 0, 66, 0
1, 211334, Note_on_c, 0, 63, 0
1, 211390, Note_on_c, 0, 86, 63
1, 211390, Note_on_c, 0, 74, 63
1, 211450, Note_on_c, 0, 74, 0
1, 211450, Note_on_c, 0, 86, 0
1, 211509, Note_on_c, 0, 75, 66
1, 211509, Note_on_c, 0, 87, 66
1, 211568, Note_on_c, 0, 87, 0
1, 211568, Note_on_c, 0, 75, 0
1, 211583, Note_on_c, 0, 63, 41
1, 211597, Note_on_c, 0, 68, 44
1, 211612, Note_on_c, 0, 71, 41
1, 211627, Note_on_c, 0, 77, 66
1, 211686, Note_on_c, 0, 77, 0
1, 211686, Note_on_c, 0, 71, 0
1, 211686, Note_on_c, 0, 68, 0
1, 211689, Note_on_c, 0, 63, 0
1, 211745, Note_on_c, 0, 87, 63
1, 211745, Note_on_c, 0, 75, 63
1, 211804, Note_on_c, 0, 75, 0
1, 211804, Note_on_c, 0, 87, 0
1, 211863, Note_on_c, 0, 77, 66
1, 211863, Note_on_c, 0, 89, 66
1, 211922, Note_on_c, 0, 89, 0
1, 211922, Note_on_c, 0, 77, 0
1, 211952, Note_on_c, 0, 63, 48
1, 211966, Note_on_c, 0, 70, 48
1, 211981, Note_on_c, 0, 78, 77
1, 212040, Note_on_c, 0, 78, 0
1, 212040, Note_on_c, 0, 70, 0
1, 212040, Note_on_c, 0, 63, 0
1, 212099, Note_on_c, 0, 77, 74
1, 212099, Note_on_c, 0, 89, 74
1, 212157, Note_on_c, 0, 89, 0
1, 212157, Note_on_c, 0, 77, 0
1, 212216, Note_on_c, 0, 90, 77
1, 212216, Note_on_c, 0, 78, 77
1, 212275, Note_on_c, 0, 78, 0
1, 212275, Note_on_c, 0, 90, 0
1, 212304, Note_on_c, 0, 63, 52
1, 212319, Note_on_c, 0, 71, 53
1, 212333, Note_on_c, 0, 80, 85
1, 212392, Note_on_c, 0, 80, 0
1, 212392, Note_on_c, 0, 71, 0
1, 212392, Note_on_c, 0, 63, 0
1, 212451, Note_on_c, 0, 90, 83
1, 212451, Note_on_c, 0, 78, 83
1, 212510, Note_on_c, 0, 78, 0
1, 212510, Note_on_c, 0, 90, 0
1, 212568, Note_on_c, 0, 77, 85
1, 212568, Note_on_c, 0, 89, 85
1, 212627, Note_on_c, 0, 89, 0
1, 212627, Note_on_c, 0, 77, 0
1, 212686, Note_on_c, 0, 87, 78
1, 212686, Note_on_c, 0, 82, 78
1, 212686, Note_on_c, 0, 90, 86
1, 212689, Note_on_c, 0, 78, 78
1, 212689, Note_on_c, 0, 63, 42
1, 212689, Note_on_c, 0, 66, 42
1, 212692, Note_on_c, 0, 70, 42
1, 212692, Note_on_c, 0, 75, 48
1, 212692, Control_c, 0, 64, 127
1, 212749, Note_on_c, 0, 78, 0
1, 212749, Note_on_c, 0, 87, 0
1, 212749, Note_on_c, 0, 82, 0
1, 212752, Note_on_c, 0, 90, 0
1, 212780, Note_on_c, 0, 75, 0
1, 212780, Note_on_c, 0, 63, 0
1, 212780, Note_on_c, 0, 66, 0
1, 212783, Note_on_c, 0, 70, 0
1, 212812, Note_on_c, 0, 77, 84
1, 212812, Note_on_c, 0, 89, 84
1, 212875, Note_on_c, 0, 89, 0
1, 212875, Note_on_c, 0, 77, 0
1, 212875, Note_on_c, 0, 51, 52
1, 212878, Note_on_c, 0, 63, 52
1, 212938, Note_on_c, 0, 78, 86
1, 212938, Note_on_c, 0, 90, 86
1, 212969, Note_on_c, 0, 63, 0
1, 212969, Note_on_c, 0, 51, 0
1, 213000, Note_on_c, 0, 90, 0
1, 213000, Note_on_c, 0, 78, 0
1, 213005, Control_c, 0, 64, 0
1, 213063, Note_on_c, 0, 87, 78
1, 213063, Note_on_c, 0, 83, 78
1, 213063, Note_on_c, 0, 92, 86
1, 213066, Note_on_c, 0, 80, 78
1, 213066, Note_on_c, 0, 63, 42
1, 213066, Note_on_c, 0, 68, 42
1, 213069, Note_on_c, 0, 71, 42
1, 213069, Note_on_c, 0, 75, 48
1, 213072, Control_c, 0, 64, 127
1, 213126, Note_on_c, 0, 80, 0
1, 213126, Note_on_c, 0, 87, 0
1, 213126, Note_on_c, 0, 83, 0
1, 213129, Note_on_c, 0, 92, 0
1, 213158, Note_on_c, 0, 75, 0
1, 213158, Note_on_c, 0, 63, 0
1, 213158, Note_on_c, 0, 68, 0
1, 213161, Note_on_c, 0, 71, 0
1, 213189, Note_on_c, 0, 78, 83
1, 213189, Note_on_c, 0, 90, 83
1, 213252, Note_on_c, 0, 90, 0
1, 213252, Note_on_c, 0, 78, 0
1, 213252, Note_on_c, 0, 44, 49
1, 213255, Note_on_c, 0, 56, 49
1, 213315, Note_on_c, 0, 89, 86
1, 213315, Note_on_c, 0, 77, 86
1, 213347, Note_on_c, 0, 56, 0
1, 213347, Note_on_c, 0, 44, 0
1, 213378, Note_on_c, 0, 77, 0
1, 213378, Note_on_c, 0, 89, 0
1, 213409, Control_c, 0, 64, 0
1, 213441, Note_on_c, 0, 90, 88
1, 213441, Note_on_c, 0, 87, 79
1, 213441, Note_on_c, 0, 78, 79
1, 213444, Note_on_c, 0, 82, 79
1, 213444, Note_on_c, 0, 63, 48
1, 213444, Note_on_c, 0, 51, 42
1, 213447, Note_on_c, 0, 54, 42
1, 213447, Note_on_c, 0, 58, 42
1, 213452, Control_c, 0, 64, 127
1, 213504, Note_on_c, 0, 82, 0
1, 213504, Note_on_c, 0, 90, 0
1, 213504, Note_on_c, 0, 87, 0
1, 213507, Note_on_c, 0, 78, 0
1, 213535, Note_on_c, 0, 58, 0
1, 213535, Note_on_c, 0, 63, 0
1, 213535, Note_on_c, 0, 51, 0
1, 213538, Note_on_c, 0, 54, 0
1, 213567, Note_on_c, 0, 77, 85
1, 213567, Note_on_c, 0, 89, 85
1, 213630, Note_on_c, 0, 89, 0
1, 213630, Note_on_c, 0, 77, 0
1, 213630, Note_on_c, 0, 39, 52
1, 213633, Note_on_c, 0, 51, 52
1, 213693, Note_on_c, 0, 90, 88
1, 213693, Note_on_c, 0, 78, 88
1, 213724, Note_on_c, 0, 51, 0
1, 213724, Note_on_c, 0, 39, 0
1, 213756, Note_on_c, 0, 78, 0
1, 213756, Note_on_c, 0, 90, 0
1, 213756, Control_c, 0, 64, 0
1, 213818, Note_on_c, 0, 83, 79
1, 213818, Note_on_c, 0, 87, 79
1, 213818, Note_on_c, 0, 92, 88
1, 213821, Note_on_c, 0, 80, 79
1, 213821, Note_on_c, 0, 51, 42
1, 213821, Note_on_c, 0, 56, 42
1, 213824, Note_on_c, 0, 59, 42
1, 213824, Note_on_c, 0, 63, 48
1, 213832, Control_c, 0, 64, 127
1, 213881, Note_on_c, 0, 80, 0
1, 213881, Note_on_c, 0, 83, 0
1, 213881, Note_on_c, 0, 87, 0
1, 213884, Note_on_c, 0, 92, 0
1, 213913, Note_on_c, 0, 63, 0
1, 213913, Note_on_c, 0, 51, 0
1, 213913, Note_on_c, 0, 56, 0
1, 213916, Note_on_c, 0, 59, 0
1, 213944, Note_on_c, 0, 90, 85
1, 213944, Note_on_c, 0, 78, 85
1, 214007, Note_on_c, 0, 78, 0
1, 214007, Note_on_c, 0, 90, 0
1, 214007, Note_on_c, 0, 32, 53
1, 214010, Note_on_c, 0, 44, 53
1, 214070, Note_on_c, 0, 77, 88
1, 214070, Note_on_c, 0, 89, 88
1, 214102, Note_on_c, 0, 44, 0
1, 214102, Note_on_c, 0, 32, 0
1, 214133, Note_on_c, 0, 89, 0
1, 214133, Note_on_c, 0, 77, 0
1, 214156, Control_c, 0, 64, 0
1, 214196, Note_on_c, 0, 82, 79
1, 214196, Note_on_c, 0, 87, 79
1, 214196, Note_on_c, 0, 90, 88
1, 214199, Note_on_c, 0, 78, 79
1, 214199, Note_on_c, 0, 46, 48
1, 214199, Note_on_c, 0, 51, 48
1, 214202, Note_on_c, 0, 54, 48
1, 214202, Note_on_c, 0, 58, 53
1, 214205, Control_c, 0, 64, 127
1, 214263, Note_on_c, 0, 78, 0
1, 214263, Note_on_c, 0, 82, 0
1, 214263, Note_on_c, 0, 87, 0
1, 214266, Note_on_c, 0, 90, 0
1, 214296, Note_on_c, 0, 58, 0
1, 214296, Note_on_c, 0, 46, 0
1, 214296, Note_on_c, 0, 51, 0
1, 214299, Note_on_c, 0, 54, 0
1, 214329, Note_on_c, 0, 77, 85
1, 214329, Note_on_c, 0, 89, 85
1, 214396, Note_on_c, 0, 89, 0
1, 214396, Note_on_c, 0, 77, 0
1, 214396, Note_on_c, 0, 27, 58
1, 214399, Note_on_c, 0, 39, 58
1, 214462, Note_on_c, 0, 75, 88
1, 214462, Note_on_c, 0, 87, 88
1, 214496, Note_on_c, 0, 39, 0
1, 214496, Note_on_c, 0, 27, 0
1, 214529, Note_on_c, 0, 87, 0
1, 214529, Note_on_c, 0, 75, 0
1, 214567, Control_c, 0, 64, 0
1, 214595, Note_on_c, 0, 87, 79
1, 214595, Note_on_c, 0, 83, 79
1, 214595, Note_on_c, 0, 90, 88
1, 214598, Note_on_c, 0, 78, 79
1, 214598, Note_on_c, 0, 47, 47
1, 214598, Note_on_c, 0, 51, 47
1, 214601, Note_on_c, 0, 54, 47
1, 214601, Note_on_c, 0, 59, 52
1, 214620, Control_c, 0, 64, 127
1, 214662, Note_on_c, 0, 78, 0
1, 214662, Note_on_c, 0, 87, 0
1, 214662, Note_on_c, 0, 83, 0
1, 214665, Note_on_c, 0, 90, 0
1, 214695, Note_on_c, 0, 59, 0
1, 214695, Note_on_c, 0, 47, 0
1, 214695, Note_on_c, 0, 51, 0
1, 214698, Note_on_c, 0, 54, 0
1, 214729, Note_on_c, 0, 89, 85
1, 214729, Note_on_c, 0, 77, 85
1, 214795, Note_on_c, 0, 77, 0
1, 214795, Note_on_c, 0, 89, 0
1, 214795, Note_on_c, 0, 27, 57
1, 214798, Note_on_c, 0, 39, 57
1, 214862, Note_on_c, 0, 87, 88
1, 214862, Note_on_c, 0, 75, 88
1, 214895, Note_on_c, 0, 39, 0
1, 214895, Note_on_c, 0, 27, 0
1, 214928, Note_on_c, 0, 75, 0
1, 214928, Note_on_c, 0, 87, 0
1, 214964, Control_c, 0, 64, 0
1, 214995, Note_on_c, 0, 90, 89
1, 214995, Note_on_c, 0, 78, 79
1, 214995, Note_on_c, 0, 87, 79
1, 214998, Note_on_c, 0, 84, 79
1, 214998, Note_on_c, 0, 81, 79
1, 214998, Note_on_c, 0, 60, 52
1, 215001, Note_on_c, 0, 57, 52
1, 215001, Note_on_c, 0, 54, 47
1, 215001, Note_on_c, 0, 51, 47
1, 215004, Note_on_c, 0, 48, 47
1, 215004, Control_c, 0, 64, 127
1, 215066, Note_on_c, 0, 81, 0
1, 215066, Note_on_c, 0, 87, 0
1, 215066, Note_on_c, 0, 90, 0
1, 215069, Note_on_c, 0, 78, 0
1, 215069, Note_on_c, 0, 84, 0
1, 215138, Note_on_c, 0, 89, 85
1, 215138, Note_on_c, 0, 77, 85
1, 215210, Note_on_c, 0, 77, 0
1, 215210, Note_on_c, 0, 89, 0
1, 215281, Note_on_c, 0, 87, 89
1, 215281, Note_on_c, 0, 75, 89
1, 215346, Control_c, 0, 64, 0
1, 215353, Note_on_c, 0, 75, 0
1, 215353, Note_on_c, 0, 87, 0
1, 215371, Note_on_c, 0, 46, 55
1, 215389, Note_on_c, 0, 53, 55
1, 215407, Note_on_c, 0, 58, 61
1, 215425, Note_on_c, 0, 82, 79
1, 215425, Note_on_c, 0, 89, 89
1, 215425, Note_on_c, 0, 86, 79
1, 215428, Note_on_c, 0, 77, 79
1, 215428, Note_on_c, 0, 48, 0
1, 215428, Note_on_c, 0, 51, 0
1, 215431, Note_on_c, 0, 60, 0
1, 215431, Note_on_c, 0, 54, 0
1, 215431, Note_on_c, 0, 57, 0
1, 215434, Note_on_c, 0, 62, 61
1, 215498, Note_on_c, 0, 77, 0
1, 215498, Note_on_c, 0, 82, 0
1, 215498, Note_on_c, 0, 89, 0
1, 215501, Note_on_c, 0, 86, 0
1, 215535, Note_on_c, 0, 62, 0
1, 215535, Note_on_c, 0, 46, 0
1, 215535, Note_on_c, 0, 53, 0
1, 215538, Note_on_c, 0, 58, 0
1, 215646, Note_on_c, 0, 70, 92
1, 215646, Note_on_c, 0, 82, 92
1, 215646, Note_on_c, 0, 34, 70
1, 215649, Note_on_c, 0, 46, 70
1, 215729, Note_on_c, 0, 82, 0
1, 215729, Note_on_c, 0, 70, 0
1, 215771, Note_on_c, 0, 46, 0
1, 215771, Note_on_c, 0, 34, 0
1, 215896, Note_on_c, 0, 75, 101
1, 215896, Note_on_c, 0, 87, 101
1, 215896, Note_on_c, 0, 27, 74
1, 215899, Note_on_c, 0, 39, 74
1, 216068, Note_on_c, 0, 87, 0
1, 216068, Note_on_c, 0, 75, 0
1, 216068, Note_on_c, 0, 39, 0
1, 216071, Note_on_c, 0, 27, 0
1, 216412, Note_on_c, 0, 78, 86
1, 216412, Note_on_c, 0, 83, 86
1, 216412, Note_on_c, 0, 87, 96
1, 216415, Note_on_c, 0, 75, 86
1, 216415, Note_on_c, 0, 35, 63
1, 216415, Note_on_c, 0, 39, 63
1, 216418, Note_on_c, 0, 42, 63
1, 216418, Note_on_c, 0, 47, 71
1, 216429, Control_c, 0, 64, 127
1, 216826, Control_c, 0, 64, 0
1, 216866, Note_on_c, 0, 75, 0
1, 216866, Note_on_c, 0, 78, 0
1, 216866, Note_on_c, 0, 83, 0
1, 216869, Note_on_c, 0, 87, 0
1, 216869, Note_on_c, 0, 85, 96
1, 216869, Note_on_c, 0, 82, 86
1, 216872, Note_on_c, 0, 78, 86
1, 216872, Note_on_c, 0, 73, 86
1, 216872, Note_on_c, 0, 47, 0
1, 216875, Note_on_c, 0, 35, 0
1, 216875, Note_on_c, 0, 39, 0
1, 216875, Note_on_c, 0, 42, 0
1, 216878, Note_on_c, 0, 42, 63
1, 216878, Note_on_c, 0, 46, 63
1, 216878, Note_on_c, 0, 49, 63
1, 216881, Note_on_c, 0, 54, 71
1, 216900, Control_c, 0, 64, 127
1, 217234, Control_c, 0, 64, 0
1, 217320, Note_on_c, 0, 73, 0
1, 217320, Note_on_c, 0, 85, 0
1, 217320, Note_on_c, 0, 82, 0
1, 217323, Note_on_c, 0, 78, 0
1, 217323, Note_on_c, 0, 80, 82
1, 217323, Note_on_c, 0, 83, 92
1, 217326, Note_on_c, 0, 71, 82
1, 217326, Note_on_c, 0, 75, 82
1, 217326, Note_on_c, 0, 54, 0
1, 217329, Note_on_c, 0, 42, 0
1, 217329, Note_on_c, 0, 46, 0
1, 217329, Note_on_c, 0, 49, 0
1, 217332, Note_on_c, 0, 44, 62
1, 217332, Note_on_c, 0, 47, 62
1, 217332, Note_on_c, 0, 51, 62
1, 217335, Note_on_c, 0, 56, 70
1, 217406, Control_c, 0, 64, 127
1, 217773, Note_on_c, 0, 75, 0
1, 217773, Note_on_c, 0, 80, 0
1, 217773, Note_on_c, 0, 83, 0
1, 217776, Note_on_c, 0, 71, 0
1, 217776, Note_on_c, 0, 70, 86
1, 217776, Note_on_c, 0, 82, 96
1, 217779, Note_on_c, 0, 75, 86
1, 217779, Note_on_c, 0, 78, 86
1, 217779, Note_on_c, 0, 56, 0
1, 217782, Note_on_c, 0, 44, 0
1, 217782, Note_on_c, 0, 47, 0
1, 217782, Note_on_c, 0, 51, 0
1, 217785, Control_c, 0, 64, 0
1, 217785, Note_on_c, 0, 51, 63
1, 217785, Note_on_c, 0, 54, 63
1, 217788, Note_on_c, 0, 58, 63
1, 217788, Note_on_c, 0, 63, 71
1, 218076, Control_c, 0, 64, 127
1, 218681, Note_on_c, 0, 75, 0
1, 218681, Note_on_c, 0, 70, 0
1, 218681, Note_on_c, 0, 70, 90
1, 218684, Note_on_c, 0, 63, 80
1, 218684, Note_on_c, 0, 66, 80
1, 218684, Note_on_c, 0, 75, 90
1, 218687, Note_on_c, 0, 63, 0
1, 218687, Note_on_c, 0, 27, 62
1, 218687, Note_on_c, 0, 39, 70
1, 218924, Note_on_c, 0, 75, 0
1, 218924, Note_on_c, 0, 63, 0
1, 218924, Note_on_c, 0, 70, 0
1, 218927, Note_on_c, 0, 66, 0
1, 218927, Note_on_c, 0, 39, 0
1, 218927, Note_on_c, 0, 27, 0
1, 219167, Note_on_c, 0, 63, 80
1, 219167, Note_on_c, 0, 75, 90
1, 219167, Note_on_c, 0, 66, 80
1, 219170, Note_on_c, 0, 70, 80
1, 219170, Note_on_c, 0, 54, 0
1, 219170, Note_on_c, 0, 51, 0
1, 219173, Note_on_c, 0, 46, 62
1, 219173, Note_on_c, 0, 51, 62
1, 219173, Note_on_c, 0, 54, 62
1, 219176, Note_on_c, 0, 58, 70
1, 219439, Note_on_c, 0, 70, 0
1, 219439, Note_on_c, 0, 75, 0
1, 219439, Note_on_c, 0, 63, 0
1, 219442, Note_on_c, 0, 66, 0
1, 219442, Note_on_c, 0, 58, 0
1, 219442, Note_on_c, 0, 51, 0
1, 219445, Note_on_c, 0, 54, 0
1, 219445, Note_on_c, 0, 46, 0
1, 219711, Note_on_c, 0, 82, 0
1, 219711, Note_on_c, 0, 78, 0
1, 219711, Note_on_c, 0, 99, 90
1, 219714, Note_on_c, 0, 94, 80
1, 219714, Note_on_c, 0, 90, 76
1, 219714, Note_on_c, 0, 87, 75
1, 219717, Note_on_c, 0, 58, 0
1, 219717, Note_on_c, 0, 78, 69
1, 219717, Note_on_c, 0, 75, 61
1, 219720, Note_on_c, 0, 70, 58
1, 219720, Note_on_c, 0, 66, 58
1, 220801, Note_on_c, 0, 87, 0
1, 220801, Note_on_c, 0, 99, 0
1, 220801, Note_on_c, 0, 94, 0
1, 220804, Note_on_c, 0, 90, 0
1, 220804, Note_on_c, 0, 66, 0
1, 220804, Note_on_c, 0, 78, 0
1, 220807, Note_on_c, 0, 75, 0
1, 220807, Note_on_c, 0, 70, 0
1, 221496, Control_c, 0, 64, 0
1, 222994, End_track
0, 0, End_of_file
