0, 0, Header, 1, 9, 240
1, 0, Start_track
1, 0, Time_signature, 4, 2, 24, 8
1, 0, Tempo, 500000
1, 8, Marker_t, "Brahms: Rhapsody No. 1 in b minor, played by Ron Lubetsky, M.D. on July 7, 1999."
1, 42240, Tempo, 600000
1, 48960, Tempo, 500000
1, 90240, Tempo, 535714
1, 146880, Tempo, 500000
1, 167040, Tempo, 600000
1, 173760, Tempo, 545455
1, 174720, Tempo, 500000
1, 208320, Tempo, 535714
1, 219840, Tempo, 566038
1, 220800, Tempo, 600000
1, 220800, End_track
2, 0, Start_track
2, 0, Title_t, "Johannes Brahms"
2, 0, Program_c, 0, 0
2, 0, Control_c, 0, 7, 127
2, 66, Control_c, 0, 64, 127
2, 397, Note_on_c, 0, 78, 76
2, 400, Note_on_c, 0, 66, 78
2, 731, Note_off_c, 0, 78, 64
2, 763, Note_on_c, 0, 73, 66
2, 795, Note_on_c, 0, 74, 64
2, 810, Note_off_c, 0, 73, 64
2, 822, Note_on_c, 0, 76, 63
2, 844, Note_off_c, 0, 74, 64
2, 862, Control_c, 0, 64, 0
2, 869, Note_on_c, 0, 65, 48
2, 875, Note_on_c, 0, 74, 68
2, 905, Note_off_c, 0, 76, 64
2, 932, Note_off_c, 0, 66, 64
2, 960, Note_on_c, 0, 47, 47
2, 965, Note_on_c, 0, 59, 33
2, 984, Control_c, 0, 64, 127
2, 990, Note_off_c, 0, 74, 64
2, 1042, Note_on_c, 0, 56, 55
2, 1119, Note_on_c, 0, 71, 56
2, 1129, Note_on_c, 0, 53, 37
2, 1135, Note_off_c, 0, 47, 64
2, 1139, Note_off_c, 0, 65, 64
2, 1140, Note_off_c, 0, 59, 64
2, 1143, Note_off_c, 0, 56, 64
2, 1176, Note_off_c, 0, 53, 64
2, 1204, Note_on_c, 0, 70, 74
2, 1211, Note_off_c, 0, 71, 64
2, 1215, Note_on_c, 0, 64, 65
2, 1290, Note_on_c, 0, 54, 62
2, 1290, Control_c, 0, 64, 0
2, 1298, Note_on_c, 0, 42, 45
2, 1357, Note_on_c, 0, 49, 55
2, 1358, Control_c, 0, 64, 127
2, 1384, Note_off_c, 0, 54, 64
2, 1388, Note_off_c, 0, 42, 64
2, 1435, Note_on_c, 0, 46, 44
2, 1436, Note_off_c, 0, 49, 64
2, 1464, Note_on_c, 0, 73, 76
2, 1480, Note_off_c, 0, 64, 64
2, 1487, Note_off_c, 0, 70, 64
2, 1496, Note_off_c, 0, 46, 64
2, 1539, Note_on_c, 0, 66, 68
2, 1544, Note_on_c, 0, 62, 74
2, 1556, Note_off_c, 0, 73, 64
2, 1590, Control_c, 0, 64, 0
2, 1620, Note_on_c, 0, 47, 74
2, 1634, Note_on_c, 0, 35, 62
2, 1678, Control_c, 0, 64, 127
2, 1688, Note_on_c, 0, 42, 78
2, 1718, Note_off_c, 0, 35, 64
2, 1745, Note_off_c, 0, 47, 64
2, 1768, Note_off_c, 0, 62, 64
2, 1781, Note_on_c, 0, 68, 71
2, 1783, Note_on_c, 0, 38, 76
2, 1786, Note_off_c, 0, 42, 64
2, 1804, Note_off_c, 0, 66, 64
2, 1832, Note_off_c, 0, 38, 64
2, 1861, Note_on_c, 0, 70, 64
2, 1868, Note_on_c, 0, 61, 80
2, 1873, Note_off_c, 0, 68, 64
2, 1918, Control_c, 0, 64, 0
2, 1948, Note_on_c, 0, 42, 74
2, 1955, Note_on_c, 0, 30, 68
2, 2004, Control_c, 0, 64, 127
2, 2024, Note_off_c, 0, 61, 64
2, 2025, Note_on_c, 0, 37, 62
2, 2038, Note_off_c, 0, 30, 64
2, 2044, Note_off_c, 0, 42, 64
2, 2084, Note_on_c, 0, 34, 56
2, 2092, Note_on_c, 0, 66, 68
2, 2094, Note_off_c, 0, 37, 64
2, 2098, Note_off_c, 0, 70, 64
2, 2137, Note_off_c, 0, 34, 64
2, 2173, Note_off_c, 0, 66, 64
2, 2175, Note_on_c, 0, 73, 68
2, 2183, Note_on_c, 0, 76, 75
2, 2185, Note_on_c, 0, 64, 70
2, 2202, Control_c, 0, 64, 0
2, 2246, Note_on_c, 0, 47, 63
2, 2253, Note_on_c, 0, 66, 76
2, 2258, Note_off_c, 0, 76, 64
2, 2268, Note_off_c, 0, 73, 64
2, 2270, Note_on_c, 0, 35, 43
2, 2282, Note_off_c, 0, 64, 64
2, 2296, Control_c, 0, 64, 127
2, 2319, Note_on_c, 0, 42, 61
2, 2322, Note_off_c, 0, 35, 64
2, 2330, Note_off_c, 0, 66, 64
2, 2336, Note_on_c, 0, 62, 73
2, 2343, Note_on_c, 0, 71, 64
2, 2345, Note_on_c, 0, 74, 69
2, 2352, Note_off_c, 0, 47, 64
2, 2390, Note_off_c, 0, 42, 64
2, 2395, Note_on_c, 0, 38, 64
2, 2399, Note_off_c, 0, 62, 64
2, 2404, Note_off_c, 0, 74, 64
2, 2409, Note_on_c, 0, 66, 80
2, 2426, Note_off_c, 0, 71, 64
2, 2448, Note_off_c, 0, 38, 64
2, 2471, Note_off_c, 0, 66, 64
2, 2480, Note_on_c, 0, 73, 81
2, 2494, Note_on_c, 0, 70, 54
2, 2494, Note_on_c, 0, 61, 82
2, 2509, Control_c, 0, 64, 0
2, 2563, Note_on_c, 0, 54, 66
2, 2568, Note_on_c, 0, 42, 66
2, 2608, Control_c, 0, 64, 127
2, 2628, Note_off_c, 0, 61, 64
2, 2647, Note_on_c, 0, 49, 49
2, 2674, Note_off_c, 0, 54, 64
2, 2679, Note_off_c, 0, 42, 64
2, 2708, Note_off_c, 0, 70, 64
2, 2724, Note_on_c, 0, 46, 64
2, 2724, Note_on_c, 0, 66, 71
2, 2729, Note_off_c, 0, 49, 64
2, 2729, Note_off_c, 0, 73, 64
2, 2758, Note_off_c, 0, 66, 64
2, 2763, Note_off_c, 0, 46, 64
2, 2819, Note_on_c, 0, 79, 78
2, 2824, Note_on_c, 0, 76, 70
2, 2828, Note_on_c, 0, 67, 80
2, 2834, Control_c, 0, 64, 0
2, 2866, Note_off_c, 0, 67, 64
2, 2888, Note_on_c, 0, 52, 64
2, 2896, Note_on_c, 0, 71, 72
2, 2897, Note_off_c, 0, 79, 64
2, 2904, Note_on_c, 0, 40, 66
2, 2909, Control_c, 0, 64, 127
2, 2913, Note_off_c, 0, 76, 64
2, 2969, Note_on_c, 0, 47, 59
2, 2978, Note_on_c, 0, 74, 68
2, 2979, Note_on_c, 0, 78, 76
2, 2979, Note_on_c, 0, 66, 82
2, 2990, Note_off_c, 0, 71, 64
2, 3012, Note_off_c, 0, 52, 64
2, 3015, Note_off_c, 0, 40, 64
2, 3045, Note_on_c, 0, 43, 69
2, 3049, Note_off_c, 0, 78, 64
2, 3053, Note_off_c, 0, 66, 64
2, 3053, Note_on_c, 0, 71, 68
2, 3061, Note_off_c, 0, 74, 64
2, 3071, Note_off_c, 0, 47, 64
2, 3085, Note_off_c, 0, 43, 64
2, 3106, Note_off_c, 0, 71, 64
2, 3145, Control_c, 0, 64, 0
2, 3152, Note_on_c, 0, 73, 64
2, 3155, Note_on_c, 0, 64, 76
2, 3160, Note_on_c, 0, 76, 74
2, 3161, Note_on_c, 0, 57, 84
2, 3166, Note_on_c, 0, 45, 82
2, 3197, Note_off_c, 0, 64, 64
2, 3212, Control_c, 0, 64, 127
2, 3218, Note_off_c, 0, 73, 64
2, 3225, Note_off_c, 0, 76, 64
2, 3267, Note_off_c, 0, 45, 64
2, 3352, Note_on_c, 0, 69, 43
2, 3360, Note_on_c, 0, 73, 66
2, 3360, Note_on_c, 0, 76, 30
2, 3365, Note_on_c, 0, 81, 85
2, 3378, Note_off_c, 0, 57, 64
2, 3393, Note_on_c, 0, 52, 62
2, 3416, Note_on_c, 0, 53, 86
2, 3439, Note_on_c, 0, 55, 86
2, 3445, Note_off_c, 0, 52, 64
2, 3452, Note_off_c, 0, 53, 64
2, 3466, Note_off_c, 0, 55, 64
2, 3471, Note_off_c, 0, 73, 64
2, 3490, Note_off_c, 0, 76, 64
2, 3494, Control_c, 0, 64, 0
2, 3500, Note_on_c, 0, 53, 84
2, 3502, Note_on_c, 0, 41, 80
2, 3513, Note_off_c, 0, 69, 64
2, 3514, Note_off_c, 0, 81, 64
2, 3563, Control_c, 0, 64, 127
2, 3640, Note_on_c, 0, 81, 66
2, 3651, Note_off_c, 0, 41, 64
2, 3654, Note_off_c, 0, 53, 64
2, 3654, Note_on_c, 0, 77, 64
2, 3659, Note_on_c, 0, 69, 62
2, 3661, Note_on_c, 0, 74, 64
2, 3719, Note_off_c, 0, 77, 64
2, 3727, Note_off_c, 0, 74, 64
2, 3744, Note_on_c, 0, 38, 78
2, 3748, Note_on_c, 0, 50, 78
2, 3750, Note_off_c, 0, 69, 64
2, 3751, Note_off_c, 0, 81, 64
2, 3773, Note_off_c, 0, 38, 64
2, 3777, Note_off_c, 0, 50, 64
2, 3794, Control_c, 0, 64, 0
2, 3811, Note_on_c, 0, 37, 86
2, 3817, Note_on_c, 0, 49, 92
2, 3854, Control_c, 0, 64, 127
2, 3890, Note_on_c, 0, 76, 64
2, 3893, Note_on_c, 0, 67, 57
2, 3911, Note_off_c, 0, 49, 64
2, 3917, Note_off_c, 0, 37, 64
2, 3923, Note_off_c, 0, 67, 64
2, 3975, Note_on_c, 0, 77, 68
2, 3975, Note_on_c, 0, 69, 75
2, 4006, Note_off_c, 0, 76, 64
2, 4016, Note_off_c, 0, 69, 64
2, 4042, Note_on_c, 0, 57, 65
2, 4048, Note_on_c, 0, 49, 69
2, 4048, Note_on_c, 0, 52, 71
2, 4055, Note_on_c, 0, 79, 69
2, 4056, Note_off_c, 0, 77, 64
2, 4060, Note_on_c, 0, 70, 69
2, 4066, Note_off_c, 0, 57, 64
2, 4074, Note_off_c, 0, 70, 64
2, 4081, Note_off_c, 0, 52, 64
2, 4085, Note_off_c, 0, 79, 64
2, 4087, Note_off_c, 0, 49, 64
2, 4096, Control_c, 0, 64, 0
2, 4134, Note_on_c, 0, 38, 81
2, 4135, Note_on_c, 0, 50, 80
2, 4148, Control_c, 0, 64, 127
2, 4210, Note_on_c, 0, 77, 70
2, 4211, Note_on_c, 0, 69, 75
2, 4225, Note_off_c, 0, 38, 64
2, 4250, Note_off_c, 0, 50, 64
2, 4256, Note_off_c, 0, 77, 64
2, 4258, Note_off_c, 0, 69, 64
2, 4280, Note_on_c, 0, 73, 81
2, 4285, Note_on_c, 0, 64, 76
2, 4325, Note_off_c, 0, 64, 64
2, 4344, Note_on_c, 0, 59, 44
2, 4347, Note_on_c, 0, 56, 70
2, 4352, Note_on_c, 0, 74, 64
2, 4360, Note_on_c, 0, 50, 53
2, 4368, Note_on_c, 0, 65, 64
2, 4375, Note_off_c, 0, 73, 64
2, 4386, Note_off_c, 0, 56, 64
2, 4386, Note_off_c, 0, 59, 64
2, 4391, Note_off_c, 0, 65, 64
2, 4392, Note_off_c, 0, 50, 64
2, 4400, Note_off_c, 0, 74, 64
2, 4416, Control_c, 0, 64, 0
2, 4437, Note_on_c, 0, 45, 84
2, 4440, Note_on_c, 0, 33, 80
2, 4483, Control_c, 0, 64, 127
2, 4519, Note_on_c, 0, 73, 70
2, 4524, Note_on_c, 0, 76, 63
2, 4524, Note_on_c, 0, 64, 68
2, 4558, Note_off_c, 0, 64, 64
2, 4596, Note_on_c, 0, 68, 80
2, 4618, Note_off_c, 0, 76, 64
2, 4626, Note_off_c, 0, 73, 64
2, 4650, Note_on_c, 0, 37, 78
2, 4656, Note_off_c, 0, 68, 64
2, 4664, Note_off_c, 0, 33, 64
2, 4664, Note_off_c, 0, 45, 64
2, 4664, Note_on_c, 0, 69, 75
2, 4689, Note_off_c, 0, 37, 64
2, 4708, Note_off_c, 0, 69, 64
2, 4710, Control_c, 0, 64, 0
2, 4746, Note_on_c, 0, 38, 78
2, 4747, Note_on_c, 0, 50, 80
2, 4770, Control_c, 0, 64, 127
2, 4823, Note_on_c, 0, 67, 47
2, 4823, Note_on_c, 0, 79, 52
2, 4826, Note_on_c, 0, 76, 60
2, 4869, Note_off_c, 0, 76, 64
2, 4875, Note_off_c, 0, 79, 64
2, 4875, Note_off_c, 0, 67, 64
2, 4899, Note_on_c, 0, 69, 77
2, 4947, Note_off_c, 0, 38, 64
2, 4955, Note_off_c, 0, 50, 64
2, 4965, Note_on_c, 0, 44, 64
2, 4968, Note_on_c, 0, 77, 78
2, 4968, Note_on_c, 0, 74, 74
2, 4973, Note_on_c, 0, 65, 76
2, 4975, Note_off_c, 0, 69, 64
2, 4997, Note_off_c, 0, 77, 64
2, 5011, Note_off_c, 0, 74, 64
2, 5014, Note_off_c, 0, 44, 64
2, 5018, Note_off_c, 0, 65, 64
2, 5022, Control_c, 0, 64, 0
2, 5052, Note_on_c, 0, 57, 86
2, 5052, Note_on_c, 0, 45, 82
2, 5081, Control_c, 0, 64, 127
2, 5133, Note_on_c, 0, 73, 74
2, 5134, Note_on_c, 0, 64, 63
2, 5138, Note_on_c, 0, 76, 66
2, 5170, Note_off_c, 0, 64, 64
2, 5206, Note_on_c, 0, 68, 78
2, 5217, Note_off_c, 0, 76, 64
2, 5247, Note_off_c, 0, 73, 64
2, 5267, Note_off_c, 0, 68, 64
2, 5270, Note_off_c, 0, 45, 64
2, 5274, Note_on_c, 0, 49, 64
2, 5276, Note_on_c, 0, 69, 76
2, 5305, Note_off_c, 0, 57, 64
2, 5307, Control_c, 0, 64, 0
2, 5321, Note_off_c, 0, 69, 64
2, 5336, Note_off_c, 0, 49, 64
2, 5353, Note_on_c, 0, 43, 88
2, 5359, Note_on_c, 0, 50, 90
2, 5368, Control_c, 0, 64, 127
2, 5429, Note_off_c, 0, 50, 64
2, 5430, Note_off_c, 0, 43, 64
2, 5436, Note_on_c, 0, 82, 71
2, 5438, Note_on_c, 0, 70, 80
2, 5443, Note_on_c, 0, 79, 69
2, 5464, Note_on_c, 0, 62, 82
2, 5483, Note_off_c, 0, 70, 64
2, 5490, Note_off_c, 0, 79, 64
2, 5507, Note_off_c, 0, 82, 64
2, 5516, Note_on_c, 0, 74, 72
2, 5527, Note_on_c, 0, 58, 80
2, 5555, Note_off_c, 0, 62, 64
2, 5588, Note_on_c, 0, 69, 69
2, 5590, Note_off_c, 0, 74, 64
2, 5595, Note_on_c, 0, 77, 65
2, 5598, Note_on_c, 0, 81, 63
2, 5598, Note_on_c, 0, 55, 65
2, 5614, Note_off_c, 0, 58, 64
2, 5625, Note_off_c, 0, 77, 64
2, 5632, Note_off_c, 0, 81, 64
2, 5632, Note_off_c, 0, 69, 64
2, 5643, Note_off_c, 0, 55, 64
2, 5687, Control_c, 0, 64, 0
2, 5708, Note_on_c, 0, 48, 82
2, 5714, Note_on_c, 0, 60, 90
2, 5714, Note_on_c, 0, 67, 77
2, 5715, Note_on_c, 0, 76, 78
2, 5723, Note_on_c, 0, 79, 75
2, 5755, Note_off_c, 0, 67, 64
2, 5759, Control_c, 0, 64, 127
2, 5768, Note_off_c, 0, 79, 64
2, 5773, Note_off_c, 0, 76, 64
2, 5906, Note_on_c, 0, 79, 45
2, 5911, Note_off_c, 0, 60, 64
2, 5911, Note_on_c, 0, 72, 44
2, 5912, Note_on_c, 0, 76, 52
2, 5916, Note_on_c, 0, 84, 56
2, 5940, Note_on_c, 0, 55, 70
2, 5942, Note_off_c, 0, 48, 64
2, 5968, Note_on_c, 0, 56, 94
2, 5998, Note_on_c, 0, 58, 82
2, 6002, Note_off_c, 0, 55, 64
2, 6016, Note_off_c, 0, 56, 64
2, 6024, Note_off_c, 0, 76, 64
2, 6026, Note_off_c, 0, 79, 64
2, 6032, Note_off_c, 0, 58, 64
2, 6070, Note_on_c, 0, 44, 93
2, 6070, Control_c, 0, 64, 0
2, 6078, Note_on_c, 0, 56, 94
2, 6080, Note_off_c, 0, 84, 64
2, 6086, Note_off_c, 0, 72, 64
2, 6121, Control_c, 0, 64, 127
2, 6175, Note_off_c, 0, 56, 64
2, 6209, Note_off_c, 0, 44, 64
2, 6229, Note_on_c, 0, 72, 68
2, 6230, Note_on_c, 0, 80, 68
2, 6230, Note_on_c, 0, 77, 71
2, 6234, Note_on_c, 0, 84, 68
2, 6297, Note_on_c, 0, 53, 76
2, 6308, Note_on_c, 0, 41, 64
2, 6335, Note_off_c, 0, 53, 64
2, 6336, Note_off_c, 0, 41, 64
2, 6349, Note_off_c, 0, 72, 64
2, 6357, Note_off_c, 0, 84, 64
2, 6365, Note_off_c, 0, 80, 64
2, 6366, Note_off_c, 0, 77, 64
2, 6373, Control_c, 0, 64, 0
2, 6394, Note_on_c, 0, 37, 92
2, 6398, Note_on_c, 0, 49, 94
2, 6434, Control_c, 0, 64, 127
2, 6556, Note_on_c, 0, 77, 59
2, 6556, Note_on_c, 0, 80, 59
2, 6560, Note_on_c, 0, 83, 50
2, 6561, Note_on_c, 0, 85, 68
2, 6561, Note_on_c, 0, 73, 60
2, 6590, Note_off_c, 0, 49, 64
2, 6590, Note_off_c, 0, 37, 64
2, 6614, Note_on_c, 0, 44, 71
2, 6636, Note_on_c, 0, 45, 82
2, 6638, Note_off_c, 0, 80, 64
2, 6638, Note_off_c, 0, 77, 64
2, 6669, Note_on_c, 0, 47, 80
2, 6670, Note_off_c, 0, 44, 64
2, 6684, Note_off_c, 0, 45, 64
2, 6703, Note_off_c, 0, 47, 64
2, 6718, Note_off_c, 0, 73, 64
2, 6718, Note_off_c, 0, 83, 64
2, 6719, Control_c, 0, 64, 0
2, 6724, Note_off_c, 0, 85, 64
2, 6729, Note_on_c, 0, 45, 84
2, 6732, Note_on_c, 0, 33, 93
2, 6769, Control_c, 0, 64, 127
2, 6875, Note_off_c, 0, 33, 64
2, 6877, Note_off_c, 0, 45, 64
2, 6886, Note_on_c, 0, 85, 64
2, 6887, Note_on_c, 0, 73, 74
2, 6888, Note_on_c, 0, 78, 59
2, 6890, Note_on_c, 0, 81, 74
2, 6938, Note_off_c, 0, 73, 64
2, 6949, Note_off_c, 0, 81, 64
2, 6965, Note_on_c, 0, 42, 90
2, 6970, Note_off_c, 0, 78, 64
2, 6971, Note_on_c, 0, 30, 78
2, 6984, Note_off_c, 0, 85, 64
2, 6993, Note_off_c, 0, 30, 64
2, 6995, Note_off_c, 0, 42, 64
2, 7026, Control_c, 0, 64, 0
2, 7043, Note_on_c, 0, 26, 76
2, 7047, Note_on_c, 0, 38, 69
2, 7074, Control_c, 0, 64, 127
2, 7202, Note_on_c, 0, 90, 75
2, 7205, Note_on_c, 0, 78, 77
2, 7206, Note_on_c, 0, 85, 61
2, 7235, Note_off_c, 0, 26, 64
2, 7236, Note_off_c, 0, 85, 64
2, 7236, Note_off_c, 0, 90, 64
2, 7239, Note_off_c, 0, 38, 64
2, 7241, Note_off_c, 0, 78, 64
2, 7272, Note_on_c, 0, 54, 68
2, 7272, Note_on_c, 0, 57, 72
2, 7277, Note_on_c, 0, 50, 68
2, 7306, Note_off_c, 0, 50, 64
2, 7312, Note_off_c, 0, 57, 64
2, 7316, Note_off_c, 0, 54, 64
2, 7335, Control_c, 0, 64, 0
2, 7363, Note_on_c, 0, 32, 85
2, 7364, Note_on_c, 0, 74, 72
2, 7364, Note_on_c, 0, 86, 75
2, 7365, Note_on_c, 0, 44, 81
2, 7371, Note_on_c, 0, 78, 79
2, 7393, Control_c, 0, 64, 127
2, 7400, Note_off_c, 0, 74, 64
2, 7406, Note_off_c, 0, 78, 64
2, 7409, Note_off_c, 0, 86, 64
2, 7524, Note_on_c, 0, 74, 68
2, 7528, Note_on_c, 0, 83, 67
2, 7528, Note_on_c, 0, 71, 67
2, 7536, Note_off_c, 0, 44, 64
2, 7555, Note_off_c, 0, 32, 64
2, 7564, Note_off_c, 0, 71, 64
2, 7577, Note_off_c, 0, 83, 64
2, 7584, Note_off_c, 0, 74, 64
2, 7588, Note_on_c, 0, 54, 60
2, 7589, Note_on_c, 0, 50, 52
2, 7589, Note_on_c, 0, 56, 74
2, 7614, Note_off_c, 0, 50, 64
2, 7621, Note_off_c, 0, 56, 64
2, 7631, Note_off_c, 0, 54, 64
2, 7649, Control_c, 0, 64, 0
2, 7668, Note_on_c, 0, 73, 81
2, 7669, Note_on_c, 0, 85, 81
2, 7672, Note_on_c, 0, 80, 73
2, 7674, Note_on_c, 0, 29, 85
2, 7680, Note_on_c, 0, 41, 85
2, 7702, Note_off_c, 0, 80, 64
2, 7704, Control_c, 0, 64, 127
2, 7710, Note_off_c, 0, 73, 64
2, 7713, Note_off_c, 0, 85, 64
2, 7796, Note_off_c, 0, 29, 64
2, 7816, Note_off_c, 0, 41, 64
2, 7832, Note_on_c, 0, 73, 81
2, 7833, Note_on_c, 0, 81, 75
2, 7833, Note_on_c, 0, 69, 64
2, 7844, Control_c, 0, 64, 127
2, 7865, Note_off_c, 0, 69, 64
2, 7865, Note_off_c, 0, 73, 64
2, 7869, Note_off_c, 0, 81, 64
2, 7899, Note_on_c, 0, 57, 69
2, 7902, Note_on_c, 0, 53, 64
2, 7907, Note_on_c, 0, 49, 61
2, 7936, Note_off_c, 0, 49, 64
2, 7945, Note_off_c, 0, 53, 64
2, 7945, Note_off_c, 0, 57, 64
2, 7964, Control_c, 0, 64, 0
2, 7984, Note_on_c, 0, 73, 81
2, 7987, Note_on_c, 0, 77, 75
2, 7992, Note_on_c, 0, 65, 77
2, 7996, Note_on_c, 0, 33, 88
2, 7996, Note_on_c, 0, 45, 88
2, 8016, Control_c, 0, 64, 127
2, 8037, Note_off_c, 0, 65, 64
2, 8064, Note_off_c, 0, 77, 64
2, 8076, Note_off_c, 0, 73, 64
2, 8130, Note_off_c, 0, 45, 64
2, 8130, Note_off_c, 0, 33, 64
2, 8160, Note_on_c, 0, 73, 81
2, 8162, Note_on_c, 0, 78, 81
2, 8165, Note_on_c, 0, 66, 77
2, 8172, Control_c, 0, 64, 127
2, 8198, Note_off_c, 0, 78, 64
2, 8201, Note_off_c, 0, 66, 64
2, 8215, Note_off_c, 0, 73, 64
2, 8223, Note_on_c, 0, 49, 69
2, 8225, Note_on_c, 0, 54, 62
2, 8232, Note_on_c, 0, 57, 61
2, 8249, Note_off_c, 0, 57, 64
2, 8251, Note_off_c, 0, 54, 64
2, 8258, Note_off_c, 0, 49, 64
2, 8284, Control_c, 0, 64, 0
2, 8315, Note_on_c, 0, 50, 64
2, 8319, Note_on_c, 0, 38, 65
2, 8342, Control_c, 0, 64, 127
2, 8360, Note_off_c, 0, 50, 64
2, 8361, Note_off_c, 0, 38, 64
2, 8399, Note_on_c, 0, 62, 44
2, 8399, Note_on_c, 0, 74, 55
2, 8422, Note_off_c, 0, 62, 64
2, 8432, Note_off_c, 0, 74, 64
2, 8470, Note_on_c, 0, 37, 64
2, 8476, Note_on_c, 0, 49, 69
2, 8479, Note_on_c, 0, 61, 67
2, 8479, Note_on_c, 0, 73, 66
2, 8498, Note_off_c, 0, 61, 64
2, 8503, Note_off_c, 0, 73, 64
2, 8503, Note_off_c, 0, 37, 64
2, 8506, Note_off_c, 0, 49, 64
2, 8512, Control_c, 0, 64, 0
2, 8550, Note_on_c, 0, 36, 67
2, 8550, Note_on_c, 0, 60, 67
2, 8554, Note_on_c, 0, 48, 67
2, 8560, Note_on_c, 0, 72, 65
2, 8575, Note_off_c, 0, 72, 64
2, 8576, Note_off_c, 0, 60, 64
2, 8580, Note_off_c, 0, 48, 64
2, 8580, Note_off_c, 0, 36, 64
2, 8632, Note_on_c, 0, 37, 69
2, 8636, Note_on_c, 0, 49, 74
2, 8642, Control_c, 0, 64, 127
2, 8664, Note_off_c, 0, 37, 64
2, 8673, Note_off_c, 0, 49, 64
2, 8715, Note_on_c, 0, 61, 68
2, 8719, Note_on_c, 0, 73, 67
2, 8740, Note_off_c, 0, 61, 64
2, 8742, Note_off_c, 0, 73, 64
2, 8791, Note_on_c, 0, 39, 70
2, 8793, Note_on_c, 0, 51, 72
2, 8796, Note_on_c, 0, 63, 74
2, 8800, Note_on_c, 0, 75, 71
2, 8815, Note_off_c, 0, 63, 64
2, 8815, Note_off_c, 0, 39, 64
2, 8816, Note_off_c, 0, 51, 64
2, 8818, Note_off_c, 0, 75, 64
2, 8831, Control_c, 0, 64, 0
2, 8867, Note_on_c, 0, 65, 77
2, 8869, Note_on_c, 0, 41, 71
2, 8870, Note_on_c, 0, 77, 74
2, 8875, Note_on_c, 0, 53, 75
2, 8892, Note_off_c, 0, 65, 64
2, 8893, Note_off_c, 0, 77, 64
2, 8897, Note_off_c, 0, 53, 64
2, 8897, Note_off_c, 0, 41, 64
2, 8957, Control_c, 0, 64, 127
2, 8965, Note_on_c, 0, 54, 79
2, 8966, Note_on_c, 0, 42, 75
2, 8983, Note_off_c, 0, 42, 64
2, 8988, Note_off_c, 0, 54, 64
2, 9042, Note_on_c, 0, 66, 69
2, 9048, Note_on_c, 0, 78, 64
2, 9055, Note_off_c, 0, 66, 64
2, 9065, Note_off_c, 0, 78, 64
2, 9111, Note_on_c, 0, 56, 76
2, 9111, Note_on_c, 0, 44, 77
2, 9117, Note_on_c, 0, 80, 77
2, 9118, Note_on_c, 0, 68, 77
2, 9135, Note_off_c, 0, 68, 64
2, 9138, Note_off_c, 0, 44, 64
2, 9142, Note_off_c, 0, 80, 64
2, 9142, Note_off_c, 0, 56, 64
2, 9149, Control_c, 0, 64, 0
2, 9189, Note_on_c, 0, 45, 80
2, 9195, Note_on_c, 0, 69, 80
2, 9195, Note_on_c, 0, 57, 83
2, 9201, Note_on_c, 0, 81, 75
2, 9212, Note_off_c, 0, 69, 64
2, 9217, Note_off_c, 0, 81, 64
2, 9217, Note_off_c, 0, 45, 64
2, 9218, Note_off_c, 0, 57, 64
2, 9277, Note_on_c, 0, 59, 91
2, 9278, Note_on_c, 0, 47, 86
2, 9302, Control_c, 0, 64, 127
2, 9312, Note_off_c, 0, 47, 64
2, 9312, Note_off_c, 0, 59, 64
2, 9354, Note_on_c, 0, 71, 86
2, 9358, Note_on_c, 0, 83, 82
2, 9380, Note_off_c, 0, 71, 64
2, 9381, Note_off_c, 0, 83, 64
2, 9428, Note_on_c, 0, 61, 83
2, 9428, Note_on_c, 0, 49, 84
2, 9439, Note_on_c, 0, 73, 101
2, 9439, Note_on_c, 0, 85, 92
2, 9460, Note_off_c, 0, 85, 64
2, 9465, Note_off_c, 0, 73, 64
2, 9472, Note_off_c, 0, 49, 64
2, 9475, Note_off_c, 0, 61, 64
2, 9505, Note_on_c, 0, 50, 89
2, 9510, Note_on_c, 0, 62, 99
2, 9519, Note_on_c, 0, 74, 91
2, 9520, Note_on_c, 0, 86, 91
2, 9532, Control_c, 0, 64, 0
2, 9538, Note_off_c, 0, 86, 64
2, 9538, Note_off_c, 0, 62, 64
2, 9539, Note_off_c, 0, 74, 64
2, 9542, Note_off_c, 0, 50, 64
2, 9597, Note_on_c, 0, 41, 92
2, 9597, Note_on_c, 0, 53, 101
2, 9623, Note_off_c, 0, 41, 64
2, 9624, Note_off_c, 0, 53, 64
2, 9675, Note_on_c, 0, 77, 92
2, 9676, Note_on_c, 0, 65, 94
2, 9699, Note_off_c, 0, 65, 64
2, 9705, Note_off_c, 0, 77, 64
2, 9755, Note_on_c, 0, 54, 101
2, 9759, Note_on_c, 0, 42, 96
2, 9780, Note_off_c, 0, 54, 64
2, 9782, Note_off_c, 0, 42, 64
2, 9831, Note_on_c, 0, 66, 93
2, 9837, Note_on_c, 0, 78, 92
2, 9858, Note_off_c, 0, 66, 64
2, 9860, Note_off_c, 0, 78, 64
2, 9907, Note_on_c, 0, 48, 89
2, 9912, Note_on_c, 0, 36, 92
2, 9945, Note_off_c, 0, 48, 64
2, 9948, Note_off_c, 0, 36, 64
2, 9990, Note_on_c, 0, 60, 89
2, 9994, Note_on_c, 0, 72, 87
2, 10010, Note_off_c, 0, 60, 64
2, 10012, Note_off_c, 0, 72, 64
2, 10067, Note_on_c, 0, 49, 96
2, 10070, Note_on_c, 0, 37, 88
2, 10092, Note_off_c, 0, 37, 64
2, 10093, Note_off_c, 0, 49, 64
2, 10139, Note_on_c, 0, 73, 70
2, 10140, Note_on_c, 0, 61, 88
2, 10163, Note_off_c, 0, 73, 64
2, 10169, Note_off_c, 0, 61, 64
2, 10229, Note_on_c, 0, 30, 76
2, 10230, Note_on_c, 0, 42, 84
2, 10253, Control_c, 0, 64, 127
2, 10266, Note_off_c, 0, 30, 64
2, 10274, Note_off_c, 0, 42, 64
2, 10300, Note_on_c, 0, 54, 67
2, 10327, Note_off_c, 0, 54, 64
2, 10391, Note_on_c, 0, 56, 72
2, 10395, Note_on_c, 0, 53, 60
2, 10477, Note_on_c, 0, 54, 67
2, 10504, Note_off_c, 0, 54, 64
2, 10541, Control_c, 0, 64, 0
2, 10546, Note_off_c, 0, 53, 64
2, 10553, Note_off_c, 0, 56, 64
2, 10561, Note_on_c, 0, 57, 62
2, 10565, Note_on_c, 0, 49, 60
2, 10589, Control_c, 0, 64, 127
2, 10650, Note_on_c, 0, 54, 72
2, 10681, Note_off_c, 0, 54, 64
2, 10684, Note_off_c, 0, 49, 64
2, 10721, Note_on_c, 0, 53, 66
2, 10723, Note_on_c, 0, 56, 66
2, 10738, Note_off_c, 0, 57, 64
2, 10804, Note_on_c, 0, 54, 73
2, 10817, Note_off_c, 0, 53, 64
2, 10823, Note_off_c, 0, 56, 64
2, 10840, Note_off_c, 0, 54, 64
2, 10865, Control_c, 0, 64, 0
2, 10874, Note_on_c, 0, 42, 64
2, 10911, Control_c, 0, 64, 127
2, 10925, Note_off_c, 0, 42, 64
2, 10972, Note_on_c, 0, 54, 72
2, 11001, Note_off_c, 0, 54, 64
2, 11018, Control_c, 0, 64, 0
2, 11045, Note_on_c, 0, 56, 49
2, 11048, Note_on_c, 0, 53, 56
2, 11086, Control_c, 0, 64, 127
2, 11132, Note_on_c, 0, 54, 72
2, 11163, Note_off_c, 0, 54, 64
2, 11184, Control_c, 0, 64, 0
2, 11206, Note_off_c, 0, 53, 64
2, 11210, Note_on_c, 0, 50, 82
2, 11212, Note_on_c, 0, 59, 60
2, 11219, Note_off_c, 0, 56, 64
2, 11248, Control_c, 0, 64, 127
2, 11295, Note_on_c, 0, 54, 70
2, 11331, Note_off_c, 0, 54, 64
2, 11357, Note_off_c, 0, 50, 64
2, 11376, Note_off_c, 0, 59, 64
2, 11384, Note_on_c, 0, 56, 66
2, 11385, Note_on_c, 0, 53, 58
2, 11462, Note_on_c, 0, 54, 59
2, 11472, Note_off_c, 0, 53, 64
2, 11474, Note_off_c, 0, 56, 64
2, 11519, Note_off_c, 0, 54, 64
2, 11578, Note_on_c, 0, 42, 68
2, 11579, Control_c, 0, 64, 0
2, 11629, Note_off_c, 0, 42, 64
2, 11633, Control_c, 0, 64, 127
2, 11687, Note_on_c, 0, 54, 49
2, 11751, Note_off_c, 0, 54, 64
2, 11786, Control_c, 0, 64, 0
2, 11792, Note_on_c, 0, 66, 64
2, 11797, Note_on_c, 0, 62, 64
2, 11833, Control_c, 0, 64, 127
2, 11881, Note_on_c, 0, 54, 62
2, 11892, Note_off_c, 0, 66, 64
2, 11924, Note_off_c, 0, 62, 64
2, 11947, Note_off_c, 0, 54, 64
2, 11962, Control_c, 0, 64, 0
2, 11968, Note_on_c, 0, 61, 63
2, 11971, Note_on_c, 0, 65, 54
2, 12002, Control_c, 0, 64, 127
2, 12051, Note_on_c, 0, 54, 61
2, 12055, Note_off_c, 0, 65, 64
2, 12060, Note_off_c, 0, 61, 64
2, 12104, Note_off_c, 0, 54, 64
2, 12119, Control_c, 0, 64, 0
2, 12133, Note_on_c, 0, 60, 69
2, 12134, Note_on_c, 0, 64, 56
2, 12158, Control_c, 0, 64, 127
2, 12193, Note_off_c, 0, 60, 64
2, 12196, Note_off_c, 0, 64, 64
2, 12203, Note_on_c, 0, 54, 60
2, 12256, Note_off_c, 0, 54, 64
2, 12298, Note_on_c, 0, 63, 70
2, 12299, Control_c, 0, 64, 0
2, 12307, Note_on_c, 0, 59, 60
2, 12354, Control_c, 0, 64, 127
2, 12368, Note_on_c, 0, 54, 76
2, 12405, Note_off_c, 0, 59, 64
2, 12408, Note_off_c, 0, 63, 64
2, 12430, Note_off_c, 0, 54, 64
2, 12450, Note_on_c, 0, 53, 63
2, 12526, Note_on_c, 0, 54, 72
2, 12535, Note_off_c, 0, 53, 64
2, 12580, Note_off_c, 0, 54, 64
2, 12618, Note_on_c, 0, 62, 64
2, 12619, Control_c, 0, 64, 0
2, 12625, Note_on_c, 0, 56, 61
2, 12677, Control_c, 0, 64, 127
2, 12693, Note_on_c, 0, 54, 78
2, 12702, Note_off_c, 0, 56, 64
2, 12720, Note_off_c, 0, 62, 64
2, 12756, Note_off_c, 0, 54, 64
2, 12791, Note_on_c, 0, 53, 64
2, 12865, Note_on_c, 0, 54, 71
2, 12881, Note_off_c, 0, 53, 64
2, 12892, Note_off_c, 0, 54, 64
2, 12928, Control_c, 0, 64, 0
2, 12960, Note_on_c, 0, 61, 56
2, 12966, Note_on_c, 0, 58, 35
2, 12988, Control_c, 0, 64, 127
2, 12999, Note_off_c, 0, 61, 64
2, 13006, Note_off_c, 0, 58, 64
2, 13020, Note_on_c, 0, 54, 62
2, 13086, Note_off_c, 0, 54, 64
2, 13109, Control_c, 0, 64, 0
2, 13116, Note_on_c, 0, 62, 55
2, 13118, Note_on_c, 0, 66, 73
2, 13146, Control_c, 0, 64, 127
2, 13185, Note_on_c, 0, 54, 63
2, 13194, Note_off_c, 0, 62, 64
2, 13195, Note_off_c, 0, 66, 64
2, 13255, Note_off_c, 0, 54, 64
2, 13275, Control_c, 0, 64, 0
2, 13282, Note_on_c, 0, 68, 68
2, 13288, Note_on_c, 0, 61, 75
2, 13291, Note_on_c, 0, 65, 60
2, 13312, Control_c, 0, 64, 127
2, 13352, Note_on_c, 0, 54, 60
2, 13364, Note_off_c, 0, 68, 64
2, 13368, Note_off_c, 0, 65, 64
2, 13384, Note_off_c, 0, 61, 64
2, 13419, Note_off_c, 0, 54, 64
2, 13440, Control_c, 0, 64, 0
2, 13447, Note_on_c, 0, 70, 78
2, 13452, Note_on_c, 0, 60, 62
2, 13463, Note_on_c, 0, 64, 53
2, 13502, Control_c, 0, 64, 127
2, 13519, Note_off_c, 0, 60, 64
2, 13525, Note_off_c, 0, 64, 64
2, 13528, Note_on_c, 0, 54, 68
2, 13529, Note_off_c, 0, 70, 64
2, 13586, Note_off_c, 0, 54, 64
2, 13606, Control_c, 0, 64, 0
2, 13622, Note_on_c, 0, 71, 62
2, 13625, Note_on_c, 0, 59, 63
2, 13632, Note_on_c, 0, 63, 48
2, 13665, Control_c, 0, 64, 127
2, 13700, Note_on_c, 0, 54, 56
2, 13755, Note_off_c, 0, 63, 64
2, 13757, Note_off_c, 0, 54, 64
2, 13758, Note_off_c, 0, 59, 64
2, 13762, Note_off_c, 0, 71, 64
2, 13802, Note_on_c, 0, 53, 68
2, 13880, Note_on_c, 0, 54, 64
2, 13895, Note_off_c, 0, 53, 64
2, 13941, Note_off_c, 0, 54, 64
2, 13966, Control_c, 0, 64, 0
2, 13980, Note_on_c, 0, 62, 60
2, 13984, Note_on_c, 0, 59, 60
2, 13988, Note_on_c, 0, 56, 50
2, 14016, Control_c, 0, 64, 127
2, 14069, Note_on_c, 0, 54, 66
2, 14132, Control_c, 0, 64, 0
2, 14153, Note_on_c, 0, 53, 49
2, 14170, Control_c, 0, 64, 127
2, 14172, Note_off_c, 0, 54, 64
2, 14210, Note_off_c, 0, 56, 64
2, 14234, Note_on_c, 0, 54, 61
2, 14241, Note_off_c, 0, 62, 64
2, 14245, Note_off_c, 0, 59, 64
2, 14251, Note_off_c, 0, 53, 64
2, 14290, Note_off_c, 0, 54, 64
2, 14332, Note_on_c, 0, 58, 63
2, 14334, Note_on_c, 0, 61, 63
2, 14355, Note_off_c, 0, 58, 64
2, 14357, Note_off_c, 0, 61, 64
2, 14448, Note_on_c, 0, 54, 86
2, 14556, Note_on_c, 0, 66, 62
2, 14564, Note_on_c, 0, 38, 41
2, 14564, Note_on_c, 0, 57, 73
2, 14567, Note_on_c, 0, 26, 57
2, 14571, Note_on_c, 0, 62, 62
2, 14585, Note_off_c, 0, 54, 64
2, 14590, Control_c, 0, 64, 0
2, 14632, Control_c, 0, 64, 127
2, 14681, Note_on_c, 0, 54, 46
2, 14696, Note_off_c, 0, 57, 64
2, 14707, Note_off_c, 0, 62, 64
2, 14711, Note_off_c, 0, 66, 64
2, 14721, Note_off_c, 0, 26, 64
2, 14731, Note_off_c, 0, 38, 64
2, 14789, Note_on_c, 0, 66, 74
2, 14790, Note_on_c, 0, 57, 70
2, 14796, Note_on_c, 0, 62, 67
2, 14799, Control_c, 0, 64, 0
2, 14800, Note_on_c, 0, 38, 46
2, 14805, Note_on_c, 0, 26, 48
2, 14810, Note_off_c, 0, 54, 64
2, 14851, Control_c, 0, 64, 127
2, 14872, Note_on_c, 0, 54, 63
2, 14875, Note_off_c, 0, 38, 64
2, 14888, Note_off_c, 0, 57, 64
2, 14895, Note_off_c, 0, 62, 64
2, 14902, Note_off_c, 0, 66, 64
2, 14918, Note_off_c, 0, 26, 64
2, 14976, Note_on_c, 0, 26, 58
2, 14977, Note_on_c, 0, 66, 74
2, 14978, Note_on_c, 0, 57, 76
2, 14980, Note_on_c, 0, 38, 64
2, 14981, Control_c, 0, 64, 0
2, 14988, Note_on_c, 0, 62, 65
2, 14993, Note_off_c, 0, 54, 64
2, 14999, Control_c, 0, 64, 127
2, 15047, Note_on_c, 0, 54, 68
2, 15052, Note_off_c, 0, 62, 64
2, 15058, Note_off_c, 0, 38, 64
2, 15062, Note_off_c, 0, 66, 64
2, 15066, Note_off_c, 0, 57, 64
2, 15085, Note_off_c, 0, 26, 64
2, 15144, Control_c, 0, 64, 0
2, 15150, Note_on_c, 0, 66, 77
2, 15152, Note_on_c, 0, 38, 39
2, 15152, Note_on_c, 0, 57, 68
2, 15156, Note_off_c, 0, 54, 64
2, 15156, Note_on_c, 0, 62, 69
2, 15207, Control_c, 0, 64, 127
2, 15229, Note_on_c, 0, 54, 60
2, 15248, Note_off_c, 0, 66, 64
2, 15251, Note_off_c, 0, 62, 64
2, 15252, Note_off_c, 0, 57, 64
2, 15316, Note_off_c, 0, 54, 64
2, 15327, Note_on_c, 0, 45, 52
2, 15425, Note_off_c, 0, 45, 64
2, 15425, Note_on_c, 0, 54, 51
2, 15428, Note_on_c, 0, 61, 60
2, 15460, Note_on_c, 0, 62, 56
2, 15461, Note_off_c, 0, 38, 64
2, 15475, Note_off_c, 0, 61, 64
2, 15488, Note_on_c, 0, 64, 68
2, 15489, Note_off_c, 0, 62, 64
2, 15510, Note_off_c, 0, 54, 64
2, 15525, Note_on_c, 0, 62, 82
2, 15532, Note_on_c, 0, 38, 33
2, 15536, Note_on_c, 0, 46, 62
2, 15539, Control_c, 0, 64, 0
2, 15555, Note_off_c, 0, 64, 64
2, 15613, Control_c, 0, 64, 127
2, 15629, Note_on_c, 0, 55, 60
2, 15690, Control_c, 0, 64, 0
2, 15695, Note_off_c, 0, 46, 64
2, 15721, Note_on_c, 0, 43, 68
2, 15749, Control_c, 0, 64, 127
2, 15786, Note_on_c, 0, 58, 62
2, 15834, Note_off_c, 0, 62, 64
2, 15839, Note_off_c, 0, 55, 64
2, 15868, Note_off_c, 0, 38, 64
2, 15871, Note_on_c, 0, 57, 73
2, 15876, Note_off_c, 0, 43, 64
2, 15876, Note_on_c, 0, 38, 33
2, 15879, Note_on_c, 0, 45, 60
2, 15882, Control_c, 0, 64, 0
2, 15889, Note_off_c, 0, 58, 64
2, 15914, Control_c, 0, 64, 127
2, 15959, Note_on_c, 0, 54, 80
2, 15978, Note_off_c, 0, 57, 64
2, 16013, Note_off_c, 0, 38, 64
2, 16015, Control_c, 0, 64, 0
2, 16028, Note_on_c, 0, 38, 33
2, 16031, Note_on_c, 0, 42, 82
2, 16035, Note_on_c, 0, 66, 74
2, 16037, Note_off_c, 0, 54, 64
2, 16041, Note_on_c, 0, 62, 64
2, 16069, Note_off_c, 0, 45, 64
2, 16088, Control_c, 0, 64, 127
2, 16120, Note_on_c, 0, 54, 73
2, 16145, Note_off_c, 0, 62, 64
2, 16177, Control_c, 0, 64, 0
2, 16181, Note_off_c, 0, 66, 64
2, 16188, Note_on_c, 0, 43, 85
2, 16194, Control_c, 0, 64, 127
2, 16204, Note_off_c, 0, 54, 64
2, 16210, Note_off_c, 0, 42, 64
2, 16265, Note_on_c, 0, 54, 74
2, 16336, Note_off_c, 0, 38, 64
2, 16346, Note_on_c, 0, 66, 77
2, 16348, Note_on_c, 0, 38, 33
2, 16350, Note_on_c, 0, 62, 70
2, 16356, Control_c, 0, 64, 0
2, 16362, Note_on_c, 0, 44, 77
2, 16368, Note_off_c, 0, 54, 64
2, 16400, Control_c, 0, 64, 127
2, 16413, Note_on_c, 0, 54, 77
2, 16420, Note_off_c, 0, 43, 64
2, 16439, Note_off_c, 0, 62, 64
2, 16439, Note_off_c, 0, 66, 64
2, 16481, Control_c, 0, 64, 0
2, 16504, Note_on_c, 0, 66, 80
2, 16508, Note_on_c, 0, 45, 66
2, 16513, Note_on_c, 0, 62, 63
2, 16516, Note_off_c, 0, 44, 64
2, 16527, Note_off_c, 0, 54, 64
2, 16552, Control_c, 0, 64, 127
2, 16568, Note_on_c, 0, 54, 68
2, 16617, Note_off_c, 0, 62, 64
2, 16620, Note_off_c, 0, 66, 64
2, 16652, Control_c, 0, 64, 0
2, 16656, Note_off_c, 0, 38, 64
2, 16662, Note_off_c, 0, 45, 64
2, 16664, Note_on_c, 0, 42, 55
2, 16668, Note_on_c, 0, 30, 28
2, 16674, Note_on_c, 0, 66, 65
2, 16676, Note_on_c, 0, 57, 78
2, 16678, Note_on_c, 0, 62, 59
2, 16696, Note_off_c, 0, 54, 64
2, 16723, Control_c, 0, 64, 127
2, 16757, Note_on_c, 0, 54, 68
2, 16835, Control_c, 0, 64, 0
2, 16850, Note_on_c, 0, 43, 54
2, 16856, Note_on_c, 0, 58, 81
2, 16867, Note_off_c, 0, 42, 64
2, 16868, Note_on_c, 0, 31, 28
2, 16878, Note_off_c, 0, 54, 64
2, 16879, Control_c, 0, 64, 127
2, 16884, Control_c, 0, 64, 127
2, 16886, Note_off_c, 0, 30, 64
2, 16887, Note_off_c, 0, 57, 64
2, 16935, Note_on_c, 0, 54, 80
2, 16949, Note_off_c, 0, 62, 64
2, 16957, Note_off_c, 0, 66, 64
2, 17027, Note_on_c, 0, 44, 54
2, 17033, Control_c, 0, 64, 0
2, 17036, Note_on_c, 0, 59, 62
2, 17038, Note_on_c, 0, 66, 65
2, 17040, Note_on_c, 0, 32, 28
2, 17042, Note_on_c, 0, 62, 59
2, 17054, Note_off_c, 0, 54, 64
2, 17064, Note_off_c, 0, 43, 64
2, 17067, Note_off_c, 0, 31, 64
2, 17067, Note_off_c, 0, 58, 64
2, 17080, Control_c, 0, 64, 127
2, 17121, Note_on_c, 0, 54, 78
2, 17230, Control_c, 0, 64, 0
2, 17232, Note_on_c, 0, 45, 52
2, 17235, Note_off_c, 0, 44, 64
2, 17235, Note_on_c, 0, 60, 69
2, 17236, Note_on_c, 0, 33, 52
2, 17242, Note_off_c, 0, 54, 64
2, 17255, Note_off_c, 0, 32, 64
2, 17286, Note_off_c, 0, 59, 64
2, 17293, Control_c, 0, 64, 127
2, 17314, Note_on_c, 0, 54, 76
2, 17398, Note_off_c, 0, 54, 64
2, 17402, Note_off_c, 0, 60, 64
2, 17420, Note_on_c, 0, 58, 56
2, 17424, Note_on_c, 0, 48, 53
2, 17424, Note_on_c, 0, 36, 64
2, 17438, Note_off_c, 0, 45, 64
2, 17442, Note_off_c, 0, 33, 64
2, 17502, Note_on_c, 0, 61, 60
2, 17504, Note_on_c, 0, 54, 44
2, 17516, Note_off_c, 0, 62, 64
2, 17533, Note_off_c, 0, 66, 64
2, 17542, Note_on_c, 0, 62, 62
2, 17571, Note_off_c, 0, 61, 64
2, 17577, Note_on_c, 0, 64, 68
2, 17582, Note_off_c, 0, 54, 64
2, 17595, Note_off_c, 0, 62, 64
2, 17616, Note_on_c, 0, 47, 60
2, 17616, Note_on_c, 0, 59, 36
2, 17616, Control_c, 0, 64, 0
2, 17619, Note_on_c, 0, 62, 62
2, 17620, Note_on_c, 0, 55, 44
2, 17623, Control_c, 0, 64, 127
2, 17624, Note_on_c, 0, 35, 60
2, 17626, Note_off_c, 0, 58, 64
2, 17627, Control_c, 0, 64, 127
2, 17630, Note_off_c, 0, 36, 64
2, 17630, Note_off_c, 0, 48, 64
2, 17640, Note_off_c, 0, 64, 64
2, 17671, Control_c, 0, 64, 127
2, 17698, Note_off_c, 0, 55, 64
2, 17711, Note_off_c, 0, 59, 64
2, 17731, Note_on_c, 0, 38, 47
2, 17812, Control_c, 0, 64, 0
2, 17822, Note_on_c, 0, 55, 66
2, 17858, Note_off_c, 0, 38, 64
2, 17865, Control_c, 0, 64, 127
2, 17920, Note_on_c, 0, 38, 51
2, 17998, Note_off_c, 0, 55, 64
2, 18013, Note_off_c, 0, 47, 64
2, 18021, Note_off_c, 0, 35, 64
2, 18036, Note_on_c, 0, 34, 59
2, 18040, Note_on_c, 0, 55, 44
2, 18040, Note_on_c, 0, 46, 59
2, 18049, Control_c, 0, 64, 0
2, 18054, Note_off_c, 0, 38, 64
2, 18104, Control_c, 0, 64, 127
2, 18171, Note_on_c, 0, 38, 53
2, 18183, Note_off_c, 0, 62, 64
2, 18290, Note_off_c, 0, 55, 64
2, 18313, Note_off_c, 0, 38, 64
2, 18351, Note_off_c, 0, 34, 64
2, 18355, Note_off_c, 0, 46, 64
2, 18391, Note_on_c, 0, 61, 63
2, 18396, Note_on_c, 0, 38, 51
2, 18427, Note_on_c, 0, 62, 56
2, 18449, Note_off_c, 0, 61, 64
2, 18470, Note_on_c, 0, 64, 68
2, 18482, Note_off_c, 0, 62, 64
2, 18486, Control_c, 0, 64, 0
2, 18504, Note_on_c, 0, 62, 67
2, 18508, Note_on_c, 0, 52, 62
2, 18508, Note_on_c, 0, 43, 59
2, 18516, Note_on_c, 0, 31, 59
2, 18529, Control_c, 0, 64, 0
2, 18530, Note_off_c, 0, 38, 64
2, 18533, Note_off_c, 0, 64, 64
2, 18546, Control_c, 0, 64, 127
2, 18688, Note_on_c, 0, 38, 57
2, 18708, Note_off_c, 0, 43, 64
2, 18720, Note_off_c, 0, 31, 64
2, 18900, Note_off_c, 0, 38, 64
2, 18903, Note_off_c, 0, 52, 64
2, 18945, Note_on_c, 0, 58, 56
2, 18956, Note_on_c, 0, 38, 64
2, 18997, Note_off_c, 0, 62, 64
2, 19128, Note_off_c, 0, 38, 64
2, 19143, Note_on_c, 0, 38, 54
2, 19144, Note_on_c, 0, 26, 55
2, 19170, Control_c, 0, 64, 0
2, 19176, Note_off_c, 0, 58, 64
2, 19208, Control_c, 0, 64, 127
2, 19371, Control_c, 0, 64, 0
2, 19380, Note_on_c, 0, 50, 45
2, 19381, Note_on_c, 0, 54, 45
2, 19381, Note_on_c, 0, 57, 53
2, 19464, Control_c, 0, 64, 127
2, 19695, Note_off_c, 0, 57, 64
2, 19703, Note_off_c, 0, 50, 64
2, 19704, Note_off_c, 0, 54, 64
2, 19862, Note_on_c, 0, 57, 52
2, 19863, Note_on_c, 0, 54, 37
2, 19878, Note_on_c, 0, 50, 33
2, 19937, Note_off_c, 0, 26, 64
2, 19946, Note_off_c, 0, 38, 64
2, 20165, Note_on_c, 0, 26, 33
2, 20187, Control_c, 0, 64, 0
2, 20227, Note_off_c, 0, 54, 64
2, 20231, Note_off_c, 0, 50, 64
2, 20234, Note_off_c, 0, 57, 64
2, 20256, Control_c, 0, 64, 127
2, 20435, Note_on_c, 0, 54, 33
2, 20445, Note_on_c, 0, 50, 32
2, 20755, Note_off_c, 0, 50, 64
2, 20783, Note_off_c, 0, 54, 64
2, 20971, Note_on_c, 0, 54, 33
2, 20984, Note_on_c, 0, 50, 32
2, 21036, Note_off_c, 0, 50, 64
2, 21051, Note_off_c, 0, 54, 64
2, 21321, Note_off_c, 0, 26, 64
2, 21346, Note_on_c, 0, 78, 82
2, 21355, Note_on_c, 0, 66, 80
2, 21356, Control_c, 0, 64, 0
2, 21410, Control_c, 0, 64, 127
2, 21582, Note_off_c, 0, 78, 64
2, 21699, Note_off_c, 0, 66, 64
2, 21734, Note_on_c, 0, 73, 59
2, 21762, Note_on_c, 0, 74, 66
2, 21780, Note_off_c, 0, 73, 64
2, 21804, Note_on_c, 0, 76, 52
2, 21820, Note_off_c, 0, 74, 64
2, 21837, Note_on_c, 0, 65, 41
2, 21850, Note_on_c, 0, 74, 65
2, 21852, Control_c, 0, 64, 0
2, 21883, Note_off_c, 0, 76, 64
2, 21919, Control_c, 0, 64, 127
2, 21928, Note_on_c, 0, 47, 61
2, 21934, Note_on_c, 0, 59, 43
2, 21956, Note_off_c, 0, 74, 64
2, 22009, Note_on_c, 0, 56, 59
2, 22071, Note_off_c, 0, 59, 64
2, 22092, Note_on_c, 0, 71, 53
2, 22096, Note_off_c, 0, 47, 64
2, 22106, Note_on_c, 0, 53, 43
2, 22110, Note_off_c, 0, 65, 64
2, 22125, Note_off_c, 0, 56, 64
2, 22162, Note_off_c, 0, 53, 64
2, 22177, Note_on_c, 0, 70, 75
2, 22187, Note_on_c, 0, 64, 64
2, 22200, Note_off_c, 0, 71, 64
2, 22215, Control_c, 0, 64, 0
2, 22266, Note_on_c, 0, 54, 64
2, 22274, Note_on_c, 0, 42, 52
2, 22283, Control_c, 0, 64, 127
2, 22336, Note_off_c, 0, 42, 64
2, 22348, Note_on_c, 0, 49, 56
2, 22388, Note_off_c, 0, 54, 64
2, 22409, Note_off_c, 0, 49, 64
2, 22413, Note_on_c, 0, 46, 49
2, 22435, Note_on_c, 0, 73, 74
2, 22440, Note_off_c, 0, 70, 64
2, 22449, Note_off_c, 0, 64, 64
2, 22473, Note_off_c, 0, 46, 64
2, 22508, Note_on_c, 0, 66, 76
2, 22510, Note_off_c, 0, 73, 64
2, 22516, Note_on_c, 0, 62, 82
2, 22539, Control_c, 0, 64, 0
2, 22590, Note_on_c, 0, 47, 51
2, 22598, Note_on_c, 0, 35, 68
2, 22608, Control_c, 0, 64, 127
2, 22660, Note_on_c, 0, 42, 74
2, 22668, Note_off_c, 0, 35, 64
2, 22697, Note_off_c, 0, 62, 64
2, 22706, Note_off_c, 0, 47, 64
2, 22750, Note_on_c, 0, 38, 71
2, 22751, Note_off_c, 0, 42, 64
2, 22757, Note_on_c, 0, 68, 64
2, 22783, Note_off_c, 0, 66, 64
2, 22792, Note_off_c, 0, 38, 64
2, 22833, Note_on_c, 0, 70, 72
2, 22841, Note_off_c, 0, 68, 64
2, 22842, Note_on_c, 0, 61, 80
2, 22842, Control_c, 0, 64, 0
2, 22910, Note_on_c, 0, 30, 78
2, 22918, Note_on_c, 0, 42, 78
2, 22930, Control_c, 0, 64, 127
2, 22938, Control_c, 0, 64, 127
2, 22965, Note_off_c, 0, 61, 64
2, 23001, Note_on_c, 0, 37, 71
2, 23011, Note_off_c, 0, 30, 64
2, 23019, Note_off_c, 0, 42, 64
2, 23060, Note_off_c, 0, 70, 64
2, 23073, Note_on_c, 0, 34, 71
2, 23076, Note_off_c, 0, 37, 64
2, 23077, Note_on_c, 0, 66, 60
2, 23112, Note_off_c, 0, 34, 64
2, 23158, Note_on_c, 0, 73, 64
2, 23162, Note_on_c, 0, 64, 61
2, 23162, Note_on_c, 0, 76, 72
2, 23167, Control_c, 0, 64, 0
2, 23172, Note_off_c, 0, 66, 64
2, 23213, Control_c, 0, 64, 127
2, 23233, Note_off_c, 0, 76, 64
2, 23235, Note_on_c, 0, 66, 72
2, 23237, Note_off_c, 0, 73, 64
2, 23243, Note_on_c, 0, 47, 56
2, 23250, Note_on_c, 0, 35, 93
2, 23267, Note_off_c, 0, 64, 64
2, 23270, Control_c, 0, 64, 127
2, 23287, Note_on_c, 0, 42, 43
2, 23312, Note_off_c, 0, 66, 64
2, 23318, Note_on_c, 0, 62, 76
2, 23322, Note_on_c, 0, 71, 64
2, 23323, Note_on_c, 0, 74, 69
2, 23340, Note_off_c, 0, 47, 64
2, 23351, Note_off_c, 0, 35, 64
2, 23372, Note_off_c, 0, 62, 64
2, 23379, Note_off_c, 0, 74, 64
2, 23387, Note_on_c, 0, 66, 88
2, 23395, Note_off_c, 0, 71, 64
2, 23396, Note_off_c, 0, 42, 64
2, 23400, Note_on_c, 0, 38, 74
2, 23438, Note_off_c, 0, 38, 64
2, 23454, Note_off_c, 0, 66, 64
2, 23467, Note_on_c, 0, 73, 84
2, 23473, Note_on_c, 0, 61, 84
2, 23474, Note_on_c, 0, 70, 44
2, 23474, Control_c, 0, 64, 0
2, 23544, Note_on_c, 0, 42, 90
2, 23544, Note_on_c, 0, 54, 90
2, 23554, Control_c, 0, 64, 127
2, 23554, Control_c, 0, 64, 127
2, 23598, Note_off_c, 0, 61, 64
2, 23619, Note_on_c, 0, 49, 57
2, 23637, Note_off_c, 0, 54, 64
2, 23637, Note_off_c, 0, 42, 64
2, 23683, Note_on_c, 0, 46, 72
2, 23697, Note_off_c, 0, 49, 64
2, 23703, Note_on_c, 0, 66, 64
2, 23716, Note_off_c, 0, 70, 64
2, 23722, Note_off_c, 0, 73, 64
2, 23726, Note_off_c, 0, 46, 64
2, 23741, Note_off_c, 0, 66, 64
2, 23782, Control_c, 0, 64, 0
2, 23794, Note_on_c, 0, 79, 82
2, 23797, Note_on_c, 0, 76, 80
2, 23801, Note_on_c, 0, 67, 81
2, 23843, Control_c, 0, 64, 127
2, 23856, Note_on_c, 0, 40, 101
2, 23862, Note_on_c, 0, 52, 74
2, 23871, Note_on_c, 0, 71, 53
2, 23874, Control_c, 0, 64, 127
2, 23876, Note_off_c, 0, 67, 64
2, 23883, Note_off_c, 0, 79, 64
2, 23888, Note_off_c, 0, 76, 64
2, 23936, Note_on_c, 0, 47, 75
2, 23949, Note_off_c, 0, 40, 64
2, 23954, Note_off_c, 0, 71, 64
2, 23954, Note_on_c, 0, 74, 69
2, 23955, Note_on_c, 0, 78, 75
2, 23961, Note_on_c, 0, 66, 78
2, 24005, Note_on_c, 0, 43, 70
2, 24011, Note_off_c, 0, 52, 64
2, 24029, Note_on_c, 0, 71, 69
2, 24031, Note_off_c, 0, 47, 64
2, 24038, Note_off_c, 0, 78, 64
2, 24038, Note_off_c, 0, 66, 64
2, 24047, Note_off_c, 0, 74, 64
2, 24051, Note_off_c, 0, 43, 64
2, 24081, Control_c, 0, 64, 0
2, 24087, Note_off_c, 0, 71, 64
2, 24110, Note_on_c, 0, 57, 101
2, 24110, Note_on_c, 0, 73, 81
2, 24115, Note_on_c, 0, 64, 77
2, 24120, Note_on_c, 0, 45, 98
2, 24120, Note_on_c, 0, 76, 80
2, 24147, Control_c, 0, 64, 127
2, 24156, Note_off_c, 0, 64, 64
2, 24178, Note_off_c, 0, 73, 64
2, 24183, Note_off_c, 0, 76, 64
2, 24296, Note_on_c, 0, 69, 51
2, 24296, Note_on_c, 0, 81, 75
2, 24300, Note_on_c, 0, 76, 70
2, 24304, Note_on_c, 0, 73, 70
2, 24330, Note_off_c, 0, 45, 64
2, 24337, Note_off_c, 0, 57, 64
2, 24367, Note_on_c, 0, 52, 69
2, 24393, Note_on_c, 0, 53, 75
2, 24422, Note_on_c, 0, 55, 85
2, 24434, Note_off_c, 0, 52, 64
2, 24440, Note_off_c, 0, 53, 64
2, 24456, Note_off_c, 0, 55, 64
2, 24465, Control_c, 0, 64, 0
2, 24481, Note_on_c, 0, 53, 69
2, 24489, Note_on_c, 0, 41, 80
2, 24528, Control_c, 0, 64, 127
2, 24533, Note_off_c, 0, 81, 64
2, 24558, Note_off_c, 0, 69, 64
2, 24573, Note_off_c, 0, 76, 64
2, 24577, Note_off_c, 0, 73, 64
2, 24620, Note_off_c, 0, 53, 64
2, 24629, Note_off_c, 0, 41, 64
2, 24636, Note_on_c, 0, 77, 65
2, 24644, Note_on_c, 0, 74, 54
2, 24644, Note_on_c, 0, 69, 64
2, 24644, Note_on_c, 0, 81, 58
2, 24701, Note_on_c, 0, 50, 68
2, 24713, Note_on_c, 0, 38, 74
2, 24732, Note_off_c, 0, 50, 64
2, 24736, Note_off_c, 0, 38, 64
2, 24763, Control_c, 0, 64, 0
2, 24764, Note_off_c, 0, 74, 64
2, 24765, Note_off_c, 0, 77, 64
2, 24777, Note_off_c, 0, 69, 64
2, 24789, Note_on_c, 0, 37, 90
2, 24792, Note_on_c, 0, 49, 79
2, 24800, Note_off_c, 0, 81, 64
2, 24833, Control_c, 0, 64, 127
2, 24853, Note_on_c, 0, 67, 55
2, 24857, Note_on_c, 0, 76, 55
2, 24938, Note_on_c, 0, 77, 57
2, 24942, Note_on_c, 0, 69, 59
2, 24963, Note_off_c, 0, 49, 64
2, 24969, Note_off_c, 0, 37, 64
2, 24972, Note_off_c, 0, 67, 64
2, 24979, Note_off_c, 0, 76, 64
2, 25004, Note_on_c, 0, 52, 64
2, 25006, Note_on_c, 0, 57, 51
2, 25008, Note_on_c, 0, 49, 64
2, 25010, Note_on_c, 0, 79, 57
2, 25012, Note_on_c, 0, 70, 62
2, 25025, Note_off_c, 0, 77, 64
2, 25026, Note_off_c, 0, 69, 64
2, 25027, Control_c, 0, 64, 0
2, 25028, Note_off_c, 0, 57, 64
2, 25051, Control_c, 0, 64, 0
2, 25056, Note_off_c, 0, 52, 64
2, 25060, Note_off_c, 0, 49, 64
2, 25062, Note_off_c, 0, 70, 64
2, 25076, Note_off_c, 0, 79, 64
2, 25088, Note_on_c, 0, 38, 82
2, 25094, Note_on_c, 0, 50, 78
2, 25116, Control_c, 0, 64, 127
2, 25164, Note_on_c, 0, 69, 63
2, 25169, Note_on_c, 0, 77, 57
2, 25239, Note_off_c, 0, 77, 64
2, 25240, Note_on_c, 0, 73, 69
2, 25246, Note_on_c, 0, 64, 62
2, 25253, Note_off_c, 0, 50, 64
2, 25260, Note_off_c, 0, 69, 64
2, 25261, Note_off_c, 0, 38, 64
2, 25309, Note_off_c, 0, 64, 64
2, 25309, Note_on_c, 0, 74, 60
2, 25312, Note_on_c, 0, 65, 69
2, 25316, Note_on_c, 0, 56, 58
2, 25316, Note_on_c, 0, 59, 56
2, 25316, Note_on_c, 0, 50, 58
2, 25339, Note_off_c, 0, 73, 64
2, 25341, Note_off_c, 0, 65, 64
2, 25353, Note_off_c, 0, 50, 64
2, 25353, Note_off_c, 0, 56, 64
2, 25355, Note_off_c, 0, 59, 64
2, 25366, Control_c, 0, 64, 0
2, 25369, Note_off_c, 0, 74, 64
2, 25404, Note_on_c, 0, 33, 78
2, 25404, Note_on_c, 0, 45, 68
2, 25435, Control_c, 0, 64, 127
2, 25472, Note_on_c, 0, 73, 60
2, 25480, Note_on_c, 0, 64, 54
2, 25482, Note_on_c, 0, 76, 57
2, 25512, Note_off_c, 0, 64, 64
2, 25554, Note_on_c, 0, 68, 68
2, 25572, Note_off_c, 0, 76, 64
2, 25596, Note_off_c, 0, 73, 64
2, 25602, Note_on_c, 0, 49, 61
2, 25608, Note_off_c, 0, 45, 64
2, 25616, Note_off_c, 0, 33, 64
2, 25624, Note_off_c, 0, 68, 64
2, 25624, Note_on_c, 0, 69, 56
2, 25646, Note_off_c, 0, 49, 64
2, 25663, Control_c, 0, 64, 0
2, 25671, Note_off_c, 0, 69, 64
2, 25705, Note_on_c, 0, 50, 71
2, 25708, Note_on_c, 0, 38, 80
2, 25729, Control_c, 0, 64, 127
2, 25774, Note_on_c, 0, 67, 54
2, 25777, Note_on_c, 0, 79, 51
2, 25777, Note_on_c, 0, 76, 59
2, 25812, Note_off_c, 0, 79, 64
2, 25819, Note_off_c, 0, 76, 64
2, 25819, Note_off_c, 0, 67, 64
2, 25850, Note_on_c, 0, 69, 64
2, 25897, Note_on_c, 0, 44, 62
2, 25910, Note_off_c, 0, 38, 64
2, 25911, Note_on_c, 0, 74, 56
2, 25911, Note_on_c, 0, 65, 62
2, 25925, Note_off_c, 0, 50, 64
2, 25927, Note_off_c, 0, 69, 64
2, 25927, Note_on_c, 0, 77, 54
2, 25942, Note_off_c, 0, 44, 64
2, 25957, Note_off_c, 0, 77, 64
2, 25959, Note_off_c, 0, 74, 64
2, 25965, Note_off_c, 0, 65, 64
2, 25966, Control_c, 0, 64, 0
2, 25994, Note_on_c, 0, 57, 73
2, 25997, Note_on_c, 0, 45, 71
2, 26021, Control_c, 0, 64, 127
2, 26064, Note_on_c, 0, 64, 61
2, 26071, Note_on_c, 0, 76, 56
2, 26071, Note_on_c, 0, 73, 62
2, 26115, Note_off_c, 0, 64, 64
2, 26145, Note_on_c, 0, 68, 68
2, 26177, Note_off_c, 0, 76, 64
2, 26197, Note_off_c, 0, 73, 64
2, 26197, Note_on_c, 0, 49, 51
2, 26212, Note_off_c, 0, 68, 64
2, 26213, Note_on_c, 0, 69, 65
2, 26220, Note_off_c, 0, 45, 64
2, 26231, Control_c, 0, 64, 0
2, 26238, Note_off_c, 0, 57, 64
2, 26255, Note_off_c, 0, 69, 64
2, 26272, Note_off_c, 0, 49, 64
2, 26286, Note_on_c, 0, 50, 82
2, 26291, Note_on_c, 0, 43, 77
2, 26303, Control_c, 0, 64, 127
2, 26352, Note_off_c, 0, 43, 64
2, 26359, Note_off_c, 0, 50, 64
2, 26370, Note_on_c, 0, 82, 75
2, 26374, Note_on_c, 0, 70, 91
2, 26382, Note_on_c, 0, 79, 61
2, 26394, Note_on_c, 0, 62, 101
2, 26425, Note_off_c, 0, 70, 64
2, 26426, Note_off_c, 0, 79, 64
2, 26449, Note_off_c, 0, 82, 64
2, 26454, Note_on_c, 0, 74, 77
2, 26462, Note_on_c, 0, 58, 69
2, 26465, Note_off_c, 0, 62, 64
2, 26522, Note_on_c, 0, 55, 69
2, 26527, Note_on_c, 0, 69, 89
2, 26532, Note_on_c, 0, 77, 81
2, 26537, Note_off_c, 0, 74, 64
2, 26540, Note_off_c, 0, 58, 64
2, 26540, Note_on_c, 0, 81, 72
2, 26562, Note_off_c, 0, 81, 64
2, 26562, Note_off_c, 0, 77, 64
2, 26565, Note_off_c, 0, 69, 64
2, 26578, Note_off_c, 0, 55, 64
2, 26583, Control_c, 0, 64, 0
2, 26609, Note_on_c, 0, 48, 86
2, 26616, Note_on_c, 0, 79, 76
2, 26616, Note_on_c, 0, 60, 90
2, 26616, Note_on_c, 0, 76, 90
2, 26616, Note_on_c, 0, 67, 82
2, 26651, Note_off_c, 0, 79, 64
2, 26652, Control_c, 0, 64, 127
2, 26659, Note_off_c, 0, 67, 64
2, 26661, Note_off_c, 0, 76, 64
2, 26790, Note_off_c, 0, 60, 64
2, 26792, Note_on_c, 0, 72, 63
2, 26792, Note_on_c, 0, 79, 59
2, 26792, Note_on_c, 0, 76, 85
2, 26792, Note_on_c, 0, 84, 84
2, 26809, Note_off_c, 0, 48, 64
2, 26831, Note_on_c, 0, 55, 43
2, 26847, Note_on_c, 0, 56, 82
2, 26889, Note_off_c, 0, 55, 64
2, 26890, Note_on_c, 0, 58, 80
2, 26898, Note_off_c, 0, 76, 64
2, 26910, Note_off_c, 0, 56, 64
2, 26918, Note_off_c, 0, 79, 64
2, 26919, Note_off_c, 0, 84, 64
2, 26927, Note_off_c, 0, 58, 64
2, 26951, Control_c, 0, 64, 0
2, 26952, Note_off_c, 0, 72, 64
2, 26958, Note_on_c, 0, 44, 94
2, 26963, Note_on_c, 0, 56, 96
2, 27004, Control_c, 0, 64, 127
2, 27048, Note_off_c, 0, 56, 64
2, 27086, Note_off_c, 0, 44, 64
2, 27114, Note_on_c, 0, 77, 72
2, 27119, Note_on_c, 0, 84, 64
2, 27119, Note_on_c, 0, 80, 68
2, 27124, Note_on_c, 0, 72, 60
2, 27181, Note_on_c, 0, 53, 80
2, 27191, Note_on_c, 0, 41, 73
2, 27220, Note_off_c, 0, 41, 64
2, 27220, Note_off_c, 0, 53, 64
2, 27223, Note_off_c, 0, 77, 64
2, 27230, Note_off_c, 0, 80, 64
2, 27232, Note_off_c, 0, 72, 64
2, 27234, Note_off_c, 0, 84, 64
2, 27245, Control_c, 0, 64, 0
2, 27272, Note_on_c, 0, 37, 94
2, 27281, Note_on_c, 0, 49, 98
2, 27305, Control_c, 0, 64, 127
2, 27428, Note_on_c, 0, 83, 64
2, 27430, Note_on_c, 0, 77, 60
2, 27430, Note_on_c, 0, 73, 60
2, 27432, Note_on_c, 0, 80, 64
2, 27432, Note_on_c, 0, 85, 64
2, 27466, Note_off_c, 0, 49, 64
2, 27483, Note_on_c, 0, 44, 77
2, 27489, Note_off_c, 0, 37, 64
2, 27504, Note_on_c, 0, 45, 101
2, 27528, Note_on_c, 0, 47, 101
2, 27533, Note_off_c, 0, 44, 64
2, 27548, Note_off_c, 0, 45, 64
2, 27567, Note_off_c, 0, 47, 64
2, 27576, Control_c, 0, 64, 0
2, 27592, Note_off_c, 0, 73, 64
2, 27592, Note_off_c, 0, 77, 64
2, 27597, Note_on_c, 0, 33, 84
2, 27598, Note_on_c, 0, 45, 90
2, 27600, Note_off_c, 0, 83, 64
2, 27604, Note_off_c, 0, 85, 64
2, 27604, Note_off_c, 0, 80, 64
2, 27646, Control_c, 0, 64, 127
2, 27740, Note_off_c, 0, 33, 64
2, 27749, Note_on_c, 0, 85, 68
2, 27754, Note_off_c, 0, 45, 64
2, 27754, Note_on_c, 0, 73, 69
2, 27756, Note_on_c, 0, 78, 64
2, 27758, Note_on_c, 0, 81, 72
2, 27838, Note_on_c, 0, 42, 94
2, 27840, Note_on_c, 0, 30, 80
2, 27841, Note_off_c, 0, 73, 64
2, 27850, Note_off_c, 0, 78, 64
2, 27869, Note_off_c, 0, 85, 64
2, 27870, Note_off_c, 0, 30, 64
2, 27872, Note_off_c, 0, 42, 64
2, 27875, Note_off_c, 0, 81, 64
2, 27892, Control_c, 0, 64, 0
2, 27923, Note_on_c, 0, 26, 85
2, 27923, Note_on_c, 0, 38, 85
2, 27947, Control_c, 0, 64, 127
2, 28047, Note_off_c, 0, 26, 64
2, 28057, Note_off_c, 0, 38, 64
2, 28066, Note_on_c, 0, 78, 69
2, 28067, Note_on_c, 0, 90, 69
2, 28074, Note_on_c, 0, 85, 69
2, 28111, Note_off_c, 0, 85, 64
2, 28112, Note_off_c, 0, 90, 64
2, 28112, Note_off_c, 0, 78, 64
2, 28136, Note_on_c, 0, 57, 64
2, 28140, Note_on_c, 0, 54, 65
2, 28144, Note_on_c, 0, 50, 40
2, 28170, Note_off_c, 0, 50, 64
2, 28172, Note_off_c, 0, 57, 64
2, 28175, Note_off_c, 0, 54, 64
2, 28196, Control_c, 0, 64, 0
2, 28224, Note_on_c, 0, 86, 71
2, 28227, Note_on_c, 0, 74, 76
2, 28228, Note_on_c, 0, 44, 93
2, 28228, Note_on_c, 0, 32, 93
2, 28228, Note_on_c, 0, 78, 73
2, 28251, Control_c, 0, 64, 127
2, 28268, Note_off_c, 0, 78, 64
2, 28273, Note_off_c, 0, 74, 64
2, 28284, Note_off_c, 0, 86, 64
2, 28380, Note_off_c, 0, 32, 64
2, 28380, Note_off_c, 0, 44, 64
2, 28387, Note_on_c, 0, 71, 63
2, 28392, Note_on_c, 0, 74, 64
2, 28392, Note_on_c, 0, 83, 62
2, 28430, Note_off_c, 0, 71, 64
2, 28437, Note_off_c, 0, 83, 64
2, 28444, Note_on_c, 0, 54, 70
2, 28447, Note_on_c, 0, 56, 71
2, 28452, Note_on_c, 0, 50, 70
2, 28457, Note_off_c, 0, 74, 64
2, 28481, Note_off_c, 0, 54, 64
2, 28485, Note_off_c, 0, 56, 64
2, 28489, Note_off_c, 0, 50, 64
2, 28513, Control_c, 0, 64, 0
2, 28528, Note_on_c, 0, 85, 82
2, 28536, Note_on_c, 0, 29, 84
2, 28536, Note_on_c, 0, 73, 80
2, 28541, Note_on_c, 0, 80, 64
2, 28544, Note_on_c, 0, 41, 81
2, 28559, Control_c, 0, 64, 127
2, 28571, Note_off_c, 0, 73, 64
2, 28572, Note_off_c, 0, 80, 64
2, 28581, Note_off_c, 0, 85, 64
2, 28688, Note_off_c, 0, 29, 64
2, 28692, Note_on_c, 0, 73, 63
2, 28695, Note_on_c, 0, 69, 63
2, 28696, Note_on_c, 0, 81, 62
2, 28717, Note_off_c, 0, 41, 64
2, 28732, Note_off_c, 0, 73, 64
2, 28735, Note_off_c, 0, 81, 64
2, 28735, Note_off_c, 0, 69, 64
2, 28754, Note_on_c, 0, 57, 68
2, 28756, Note_on_c, 0, 49, 70
2, 28757, Note_on_c, 0, 53, 73
2, 28793, Note_off_c, 0, 49, 64
2, 28797, Note_off_c, 0, 57, 64
2, 28800, Note_off_c, 0, 53, 64
2, 28816, Control_c, 0, 64, 0
2, 28845, Note_on_c, 0, 77, 70
2, 28845, Note_on_c, 0, 77, 70
2, 28848, Note_on_c, 0, 45, 88
2, 28848, Note_on_c, 0, 73, 75
2, 28848, Note_on_c, 0, 65, 73
2, 28856, Note_on_c, 0, 33, 88
2, 28860, Note_off_c, 0, 77, 64
2, 28880, Control_c, 0, 64, 127
2, 28905, Note_off_c, 0, 65, 64
2, 28921, Note_off_c, 0, 77, 64
2, 28934, Note_off_c, 0, 73, 64
2, 28968, Note_off_c, 0, 33, 64
2, 28970, Note_off_c, 0, 45, 64
2, 29010, Note_on_c, 0, 78, 82
2, 29013, Note_on_c, 0, 66, 80
2, 29016, Note_on_c, 0, 73, 64
2, 29048, Note_off_c, 0, 66, 64
2, 29053, Note_off_c, 0, 78, 64
2, 29073, Note_off_c, 0, 73, 64
2, 29078, Note_on_c, 0, 49, 72
2, 29081, Note_on_c, 0, 54, 68
2, 29083, Note_on_c, 0, 57, 68
2, 29102, Note_off_c, 0, 57, 64
2, 29104, Note_off_c, 0, 54, 64
2, 29108, Note_off_c, 0, 49, 64
2, 29124, Control_c, 0, 64, 0
2, 29162, Note_on_c, 0, 50, 68
2, 29170, Note_on_c, 0, 38, 66
2, 29186, Control_c, 0, 64, 127
2, 29244, Note_on_c, 0, 74, 56
2, 29246, Note_on_c, 0, 62, 49
2, 29269, Note_off_c, 0, 62, 64
2, 29269, Note_off_c, 0, 38, 64
2, 29274, Note_off_c, 0, 50, 64
2, 29280, Note_off_c, 0, 74, 64
2, 29319, Note_on_c, 0, 61, 70
2, 29322, Note_on_c, 0, 73, 68
2, 29323, Note_on_c, 0, 37, 68
2, 29329, Note_on_c, 0, 49, 67
2, 29346, Note_off_c, 0, 73, 64
2, 29346, Note_off_c, 0, 61, 64
2, 29352, Note_off_c, 0, 49, 64
2, 29352, Note_off_c, 0, 37, 64
2, 29355, Control_c, 0, 64, 0
2, 29392, Note_on_c, 0, 60, 70
2, 29398, Note_on_c, 0, 72, 71
2, 29399, Note_on_c, 0, 48, 73
2, 29404, Note_on_c, 0, 36, 73
2, 29419, Note_off_c, 0, 60, 64
2, 29423, Note_off_c, 0, 72, 64
2, 29426, Note_off_c, 0, 36, 64
2, 29427, Note_off_c, 0, 48, 64
2, 29483, Note_on_c, 0, 37, 81
2, 29484, Note_on_c, 0, 49, 83
2, 29500, Control_c, 0, 64, 127
2, 29556, Note_on_c, 0, 61, 76
2, 29562, Note_on_c, 0, 73, 72
2, 29565, Note_off_c, 0, 37, 64
2, 29569, Note_off_c, 0, 49, 64
2, 29579, Note_off_c, 0, 61, 64
2, 29584, Note_off_c, 0, 73, 64
2, 29630, Note_on_c, 0, 39, 81
2, 29633, Note_on_c, 0, 51, 88
2, 29639, Note_on_c, 0, 63, 86
2, 29642, Note_on_c, 0, 75, 78
2, 29655, Note_off_c, 0, 51, 64
2, 29660, Note_off_c, 0, 39, 64
2, 29662, Note_off_c, 0, 63, 64
2, 29663, Note_off_c, 0, 75, 64
2, 29688, Control_c, 0, 64, 0
2, 29710, Note_on_c, 0, 65, 82
2, 29715, Note_on_c, 0, 41, 82
2, 29715, Note_on_c, 0, 53, 85
2, 29718, Note_on_c, 0, 77, 78
2, 29735, Note_off_c, 0, 65, 64
2, 29738, Note_off_c, 0, 77, 64
2, 29738, Note_off_c, 0, 53, 64
2, 29740, Note_off_c, 0, 41, 64
2, 29796, Note_on_c, 0, 54, 95
2, 29796, Note_on_c, 0, 42, 92
2, 29808, Control_c, 0, 64, 127
2, 29873, Note_on_c, 0, 66, 88
2, 29876, Note_on_c, 0, 78, 83
2, 29895, Note_off_c, 0, 42, 64
2, 29898, Note_off_c, 0, 66, 64
2, 29899, Note_off_c, 0, 78, 64
2, 29899, Note_off_c, 0, 54, 64
2, 29947, Note_on_c, 0, 56, 92
2, 29949, Note_on_c, 0, 44, 86
2, 29950, Note_on_c, 0, 80, 88
2, 29954, Note_on_c, 0, 68, 90
2, 29974, Note_off_c, 0, 68, 64
2, 29978, Note_off_c, 0, 44, 64
2, 29979, Note_off_c, 0, 80, 64
2, 29980, Note_off_c, 0, 56, 64
2, 29987, Control_c, 0, 64, 0
2, 30023, Note_on_c, 0, 45, 94
2, 30024, Note_on_c, 0, 57, 97
2, 30027, Note_on_c, 0, 69, 88
2, 30032, Note_on_c, 0, 81, 86
2, 30047, Note_off_c, 0, 69, 64
2, 30049, Note_off_c, 0, 81, 64
2, 30050, Note_off_c, 0, 57, 64
2, 30054, Note_off_c, 0, 45, 64
2, 30109, Note_on_c, 0, 47, 90
2, 30109, Note_on_c, 0, 59, 94
2, 30130, Control_c, 0, 64, 127
2, 30175, Note_on_c, 0, 71, 92
2, 30178, Note_on_c, 0, 83, 88
2, 30194, Note_off_c, 0, 59, 64
2, 30200, Note_off_c, 0, 47, 64
2, 30201, Note_off_c, 0, 71, 64
2, 30207, Note_off_c, 0, 83, 64
2, 30245, Note_on_c, 0, 61, 89
2, 30248, Note_on_c, 0, 49, 92
2, 30256, Note_on_c, 0, 73, 101
2, 30259, Note_on_c, 0, 85, 93
2, 30283, Note_off_c, 0, 73, 64
2, 30286, Note_off_c, 0, 85, 64
2, 30289, Note_off_c, 0, 49, 64
2, 30292, Note_off_c, 0, 61, 64
2, 30326, Note_on_c, 0, 50, 91
2, 30326, Note_on_c, 0, 62, 100
2, 30335, Note_on_c, 0, 74, 95
2, 30338, Note_on_c, 0, 86, 92
2, 30345, Control_c, 0, 64, 0
2, 30352, Note_off_c, 0, 62, 64
2, 30359, Note_off_c, 0, 86, 64
2, 30359, Note_off_c, 0, 74, 64
2, 30359, Note_off_c, 0, 50, 64
2, 30416, Note_on_c, 0, 41, 101
2, 30417, Note_on_c, 0, 53, 101
2, 30440, Note_off_c, 0, 41, 64
2, 30442, Note_off_c, 0, 53, 64
2, 30487, Note_on_c, 0, 65, 101
2, 30487, Note_on_c, 0, 77, 101
2, 30512, Note_off_c, 0, 65, 64
2, 30521, Note_off_c, 0, 77, 64
2, 30564, Note_on_c, 0, 54, 101
2, 30569, Note_on_c, 0, 42, 101
2, 30594, Note_off_c, 0, 54, 64
2, 30599, Note_off_c, 0, 42, 64
2, 30629, Note_on_c, 0, 66, 96
2, 30636, Note_on_c, 0, 78, 96
2, 30660, Note_off_c, 0, 66, 64
2, 30662, Note_off_c, 0, 78, 64
2, 30716, Note_on_c, 0, 36, 100
2, 30719, Note_on_c, 0, 48, 92
2, 30753, Note_off_c, 0, 48, 64
2, 30759, Note_off_c, 0, 36, 64
2, 30788, Note_on_c, 0, 72, 92
2, 30796, Note_on_c, 0, 60, 88
2, 30819, Note_off_c, 0, 60, 64
2, 30824, Note_off_c, 0, 72, 64
2, 30867, Note_on_c, 0, 37, 101
2, 30867, Note_on_c, 0, 49, 101
2, 30894, Note_off_c, 0, 37, 64
2, 30900, Note_off_c, 0, 49, 64
2, 30934, Note_on_c, 0, 61, 100
2, 30938, Note_on_c, 0, 73, 88
2, 30961, Note_off_c, 0, 73, 64
2, 30968, Note_off_c, 0, 61, 64
2, 31024, Note_on_c, 0, 30, 84
2, 31025, Note_on_c, 0, 42, 92
2, 31061, Note_off_c, 0, 30, 64
2, 31066, Control_c, 0, 64, 127
2, 31073, Note_off_c, 0, 42, 64
2, 31113, Note_on_c, 0, 54, 73
2, 31130, Note_off_c, 0, 54, 64
2, 31181, Note_on_c, 0, 53, 69
2, 31183, Note_on_c, 0, 56, 57
2, 31271, Note_on_c, 0, 54, 96
2, 31294, Note_off_c, 0, 54, 64
2, 31295, Note_off_c, 0, 56, 64
2, 31296, Note_off_c, 0, 53, 64
2, 31317, Control_c, 0, 64, 0
2, 31348, Note_on_c, 0, 49, 75
2, 31351, Note_on_c, 0, 57, 69
2, 31377, Control_c, 0, 64, 127
2, 31440, Note_on_c, 0, 54, 96
2, 31462, Note_off_c, 0, 54, 64
2, 31487, Control_c, 0, 64, 0
2, 31492, Note_off_c, 0, 57, 64
2, 31496, Note_off_c, 0, 49, 64
2, 31514, Note_on_c, 0, 56, 60
2, 31514, Note_on_c, 0, 53, 60
2, 31524, Control_c, 0, 64, 127
2, 31593, Note_off_c, 0, 56, 64
2, 31595, Note_off_c, 0, 53, 64
2, 31600, Note_on_c, 0, 54, 98
2, 31628, Note_off_c, 0, 54, 64
2, 31646, Control_c, 0, 64, 0
2, 31676, Note_on_c, 0, 42, 76
2, 31703, Control_c, 0, 64, 127
2, 31718, Note_off_c, 0, 42, 64
2, 31765, Note_on_c, 0, 54, 90
2, 31786, Note_off_c, 0, 54, 64
2, 31801, Control_c, 0, 64, 0
2, 31837, Note_on_c, 0, 56, 64
2, 31839, Note_on_c, 0, 53, 63
2, 31869, Control_c, 0, 64, 127
2, 31924, Note_on_c, 0, 54, 84
2, 31946, Note_off_c, 0, 54, 64
2, 31977, Control_c, 0, 64, 0
2, 31984, Note_off_c, 0, 53, 64
2, 32005, Note_off_c, 0, 56, 64
2, 32012, Note_on_c, 0, 59, 68
2, 32015, Note_on_c, 0, 50, 65
2, 32028, Control_c, 0, 64, 127
2, 32087, Note_on_c, 0, 54, 80
2, 32125, Note_off_c, 0, 54, 64
2, 32129, Note_off_c, 0, 59, 64
2, 32138, Note_off_c, 0, 50, 64
2, 32164, Note_on_c, 0, 56, 65
2, 32171, Note_on_c, 0, 53, 48
2, 32260, Note_on_c, 0, 54, 69
2, 32276, Note_off_c, 0, 53, 64
2, 32287, Note_off_c, 0, 56, 64
2, 32304, Note_off_c, 0, 54, 64
2, 32340, Control_c, 0, 64, 0
2, 32345, Note_on_c, 0, 42, 68
2, 32393, Note_off_c, 0, 42, 64
2, 32407, Control_c, 0, 64, 127
2, 32445, Note_on_c, 0, 54, 51
2, 32489, Note_off_c, 0, 54, 64
2, 32557, Note_on_c, 0, 66, 71
2, 32560, Note_on_c, 0, 62, 66
2, 32567, Control_c, 0, 64, 0
2, 32602, Control_c, 0, 64, 127
2, 32641, Note_on_c, 0, 54, 53
2, 32646, Note_off_c, 0, 66, 64
2, 32665, Note_off_c, 0, 62, 64
2, 32698, Note_off_c, 0, 54, 64
2, 32725, Note_on_c, 0, 65, 63
2, 32735, Note_on_c, 0, 61, 64
2, 32736, Control_c, 0, 64, 0
2, 32760, Control_c, 0, 64, 127
2, 32807, Note_off_c, 0, 61, 64
2, 32814, Note_on_c, 0, 54, 54
2, 32815, Note_off_c, 0, 65, 64
2, 32851, Note_off_c, 0, 54, 64
2, 32885, Control_c, 0, 64, 0
2, 32890, Note_on_c, 0, 64, 69
2, 32890, Note_on_c, 0, 60, 65
2, 32912, Control_c, 0, 64, 127
2, 32955, Note_off_c, 0, 60, 64
2, 32959, Note_off_c, 0, 64, 64
2, 32959, Note_on_c, 0, 54, 58
2, 33012, Note_off_c, 0, 54, 64
2, 33043, Control_c, 0, 64, 0
2, 33048, Note_on_c, 0, 63, 75
2, 33067, Note_on_c, 0, 59, 49
2, 33092, Control_c, 0, 64, 127
2, 33124, Note_on_c, 0, 54, 75
2, 33147, Note_off_c, 0, 63, 64
2, 33150, Note_off_c, 0, 59, 64
2, 33207, Note_off_c, 0, 54, 64
2, 33208, Note_on_c, 0, 53, 76
2, 33209, Control_c, 0, 64, 0
2, 33226, Control_c, 0, 64, 127
2, 33285, Note_on_c, 0, 54, 68
2, 33307, Note_off_c, 0, 53, 64
2, 33344, Note_off_c, 0, 54, 64
2, 33364, Control_c, 0, 64, 0
2, 33372, Note_on_c, 0, 62, 71
2, 33375, Note_on_c, 0, 56, 62
2, 33390, Note_on_c, 0, 59, 53
2, 33425, Control_c, 0, 64, 127
2, 33444, Note_on_c, 0, 54, 64
2, 33457, Note_off_c, 0, 56, 64
2, 33460, Note_off_c, 0, 59, 64
2, 33471, Note_off_c, 0, 62, 64
2, 33505, Note_off_c, 0, 54, 64
2, 33533, Note_on_c, 0, 53, 62
2, 33594, Note_on_c, 0, 54, 64
2, 33634, Note_off_c, 0, 53, 64
2, 33646, Note_off_c, 0, 54, 64
2, 33683, Control_c, 0, 64, 0
2, 33694, Note_on_c, 0, 61, 75
2, 33700, Note_on_c, 0, 58, 65
2, 33729, Note_off_c, 0, 58, 64
2, 33733, Control_c, 0, 64, 127
2, 33740, Note_off_c, 0, 61, 64
2, 33752, Note_on_c, 0, 54, 56
2, 33820, Note_off_c, 0, 54, 64
2, 33843, Control_c, 0, 64, 0
2, 33851, Note_on_c, 0, 66, 74
2, 33852, Note_on_c, 0, 62, 56
2, 33889, Control_c, 0, 64, 127
2, 33909, Note_on_c, 0, 54, 61
2, 33930, Note_off_c, 0, 66, 64
2, 33935, Note_off_c, 0, 62, 64
2, 33981, Note_off_c, 0, 54, 64
2, 34013, Control_c, 0, 64, 0
2, 34016, Note_on_c, 0, 61, 65
2, 34020, Note_on_c, 0, 68, 75
2, 34020, Note_on_c, 0, 65, 65
2, 34062, Control_c, 0, 64, 127
2, 34085, Note_on_c, 0, 54, 60
2, 34096, Note_off_c, 0, 61, 64
2, 34100, Note_off_c, 0, 65, 64
2, 34101, Note_off_c, 0, 68, 64
2, 34161, Note_off_c, 0, 54, 64
2, 34179, Note_on_c, 0, 70, 75
2, 34180, Control_c, 0, 64, 0
2, 34193, Note_on_c, 0, 60, 54
2, 34193, Note_on_c, 0, 64, 68
2, 34230, Control_c, 0, 64, 127
2, 34268, Note_off_c, 0, 64, 64
2, 34269, Note_off_c, 0, 60, 64
2, 34269, Note_on_c, 0, 54, 55
2, 34282, Note_off_c, 0, 70, 64
2, 34326, Note_off_c, 0, 54, 64
2, 34351, Control_c, 0, 64, 0
2, 34372, Note_on_c, 0, 71, 64
2, 34372, Note_on_c, 0, 59, 64
2, 34380, Note_on_c, 0, 63, 56
2, 34403, Control_c, 0, 64, 127
2, 34449, Note_on_c, 0, 54, 65
2, 34479, Note_off_c, 0, 71, 64
2, 34493, Note_off_c, 0, 63, 64
2, 34505, Note_off_c, 0, 59, 64
2, 34517, Note_off_c, 0, 54, 64
2, 34548, Note_on_c, 0, 53, 70
2, 34636, Note_on_c, 0, 54, 68
2, 34646, Note_off_c, 0, 53, 64
2, 34697, Note_off_c, 0, 54, 64
2, 34736, Note_on_c, 0, 56, 65
2, 34736, Note_on_c, 0, 59, 65
2, 34738, Note_on_c, 0, 62, 62
2, 34758, Control_c, 0, 64, 0
2, 34789, Control_c, 0, 64, 127
2, 34834, Note_on_c, 0, 54, 78
2, 34901, Note_off_c, 0, 54, 64
2, 34933, Note_on_c, 0, 53, 72
2, 35010, Note_off_c, 0, 59, 64
2, 35010, Note_off_c, 0, 56, 64
2, 35026, Note_off_c, 0, 53, 64
2, 35027, Note_on_c, 0, 54, 74
2, 35043, Note_off_c, 0, 62, 64
2, 35110, Note_off_c, 0, 54, 64
2, 35153, Note_on_c, 0, 61, 64
2, 35156, Note_on_c, 0, 58, 62
2, 35277, Note_off_c, 0, 61, 64
2, 35304, Note_off_c, 0, 58, 64
2, 35304, Note_on_c, 0, 54, 72
2, 35421, Note_on_c, 0, 66, 50
2, 35424, Note_on_c, 0, 57, 64
2, 35428, Note_on_c, 0, 62, 60
2, 35429, Control_c, 0, 64, 0
2, 35437, Note_on_c, 0, 26, 56
2, 35445, Note_on_c, 0, 38, 55
2, 35448, Note_on_c, 0, 50, 46
2, 35451, Note_off_c, 0, 54, 64
2, 35490, Control_c, 0, 64, 127
2, 35499, Note_off_c, 0, 62, 64
2, 35537, Note_off_c, 0, 50, 64
2, 35543, Note_on_c, 0, 54, 50
2, 35546, Note_off_c, 0, 26, 64
2, 35550, Note_off_c, 0, 57, 64
2, 35554, Note_off_c, 0, 66, 64
2, 35569, Note_off_c, 0, 38, 64
2, 35629, Note_on_c, 0, 57, 72
2, 35637, Note_on_c, 0, 66, 69
2, 35640, Note_on_c, 0, 62, 60
2, 35642, Note_off_c, 0, 54, 64
2, 35650, Note_on_c, 0, 26, 60
2, 35654, Note_on_c, 0, 38, 69
2, 35655, Control_c, 0, 64, 0
2, 35669, Control_c, 0, 64, 127
2, 35711, Note_off_c, 0, 62, 64
2, 35711, Note_on_c, 0, 54, 49
2, 35724, Note_off_c, 0, 57, 64
2, 35729, Note_off_c, 0, 26, 64
2, 35733, Note_off_c, 0, 66, 64
2, 35740, Note_off_c, 0, 38, 64
2, 35793, Control_c, 0, 64, 0
2, 35808, Note_on_c, 0, 66, 73
2, 35811, Note_on_c, 0, 57, 71
2, 35817, Note_on_c, 0, 26, 59
2, 35817, Note_on_c, 0, 62, 67
2, 35824, Note_off_c, 0, 54, 64
2, 35825, Note_on_c, 0, 38, 43
2, 35857, Control_c, 0, 64, 127
2, 35885, Note_on_c, 0, 54, 68
2, 35888, Note_off_c, 0, 62, 64
2, 35892, Note_off_c, 0, 26, 64
2, 35899, Note_off_c, 0, 66, 64
2, 35901, Note_off_c, 0, 57, 64
2, 35902, Note_off_c, 0, 38, 64
2, 35969, Control_c, 0, 64, 0
2, 35976, Note_on_c, 0, 38, 43
2, 35976, Note_on_c, 0, 66, 73
2, 35976, Note_on_c, 0, 57, 68
2, 35986, Note_on_c, 0, 62, 67
2, 35997, Note_off_c, 0, 54, 64
2, 36007, Control_c, 0, 64, 127
2, 36058, Note_off_c, 0, 62, 64
2, 36065, Note_off_c, 0, 66, 64
2, 36067, Note_off_c, 0, 57, 64
2, 36074, Note_on_c, 0, 54, 69
2, 36148, Note_off_c, 0, 54, 64
2, 36160, Note_on_c, 0, 45, 56
2, 36207, Note_off_c, 0, 38, 64
2, 36226, Note_on_c, 0, 54, 52
2, 36226, Note_on_c, 0, 61, 64
2, 36240, Note_off_c, 0, 45, 64
2, 36240, Note_on_c, 0, 62, 64
2, 36270, Note_off_c, 0, 61, 64
2, 36284, Note_on_c, 0, 64, 73
2, 36300, Note_off_c, 0, 62, 64
2, 36322, Note_off_c, 0, 54, 64
2, 36331, Note_on_c, 0, 62, 74
2, 36332, Note_on_c, 0, 38, 43
2, 36338, Note_on_c, 0, 46, 56
2, 36342, Control_c, 0, 64, 0
2, 36349, Note_off_c, 0, 64, 64
2, 36408, Control_c, 0, 64, 127
2, 36413, Note_on_c, 0, 52, 59
2, 36458, Note_off_c, 0, 46, 64
2, 36483, Control_c, 0, 64, 0
2, 36510, Note_on_c, 0, 43, 57
2, 36538, Control_c, 0, 64, 127
2, 36546, Note_off_c, 0, 52, 64
2, 36560, Note_on_c, 0, 58, 62
2, 36560, Note_on_c, 0, 52, 47
2, 36563, Note_off_c, 0, 38, 64
2, 36618, Note_off_c, 0, 52, 64
2, 36626, Note_off_c, 0, 62, 64
2, 36647, Control_c, 0, 64, 0
2, 36656, Note_on_c, 0, 38, 43
2, 36658, Note_off_c, 0, 58, 64
2, 36660, Note_on_c, 0, 45, 53
2, 36664, Note_on_c, 0, 57, 63
2, 36667, Note_off_c, 0, 43, 64
2, 36725, Control_c, 0, 64, 127
2, 36739, Note_on_c, 0, 54, 80
2, 36760, Note_off_c, 0, 57, 64
2, 36783, Note_off_c, 0, 38, 64
2, 36824, Note_off_c, 0, 54, 64
2, 36824, Note_on_c, 0, 66, 75
2, 36828, Note_on_c, 0, 62, 47
2, 36828, Note_on_c, 0, 42, 64
2, 36830, Control_c, 0, 64, 0
2, 36836, Note_on_c, 0, 38, 43
2, 36860, Note_off_c, 0, 45, 64
2, 36874, Control_c, 0, 64, 127
2, 36891, Note_on_c, 0, 54, 66
2, 36980, Note_off_c, 0, 54, 64
2, 36980, Note_on_c, 0, 43, 71
2, 36999, Note_off_c, 0, 42, 64
2, 37038, Note_on_c, 0, 54, 80
2, 37067, Note_off_c, 0, 38, 64
2, 37099, Note_off_c, 0, 62, 64
2, 37102, Note_off_c, 0, 66, 64
2, 37124, Note_on_c, 0, 66, 75
2, 37125, Note_on_c, 0, 62, 71
2, 37134, Note_on_c, 0, 44, 66
2, 37135, Control_c, 0, 64, 0
2, 37140, Note_off_c, 0, 54, 64
2, 37140, Note_on_c, 0, 38, 43
2, 37171, Note_off_c, 0, 43, 64
2, 37184, Control_c, 0, 64, 127
2, 37188, Note_on_c, 0, 54, 74
2, 37269, Note_off_c, 0, 44, 64
2, 37275, Control_c, 0, 64, 0
2, 37284, Note_on_c, 0, 45, 60
2, 37287, Note_off_c, 0, 54, 64
2, 37320, Control_c, 0, 64, 127
2, 37343, Note_on_c, 0, 54, 69
2, 37371, Note_off_c, 0, 38, 64
2, 37403, Note_off_c, 0, 62, 64
2, 37423, Note_off_c, 0, 66, 64
2, 37428, Note_on_c, 0, 30, 64
2, 37432, Note_on_c, 0, 42, 64
2, 37442, Note_on_c, 0, 57, 76
2, 37451, Note_off_c, 0, 45, 64
2, 37452, Note_on_c, 0, 62, 57
2, 37452, Control_c, 0, 64, 0
2, 37456, Note_on_c, 0, 66, 80
2, 37457, Control_c, 0, 64, 127
2, 37468, Note_off_c, 0, 54, 64
2, 37509, Control_c, 0, 64, 127
2, 37554, Note_on_c, 0, 54, 57
2, 37644, Note_off_c, 0, 57, 64
2, 37646, Note_on_c, 0, 58, 78
2, 37647, Control_c, 0, 64, 0
2, 37655, Note_off_c, 0, 30, 64
2, 37656, Note_on_c, 0, 31, 53
2, 37657, Control_c, 0, 64, 127
2, 37660, Note_on_c, 0, 43, 64
2, 37661, Note_off_c, 0, 42, 64
2, 37670, Note_off_c, 0, 54, 64
2, 37684, Control_c, 0, 64, 127
2, 37723, Note_off_c, 0, 62, 64
2, 37737, Note_on_c, 0, 54, 69
2, 37764, Note_off_c, 0, 66, 64
2, 37856, Note_off_c, 0, 58, 64
2, 37864, Note_on_c, 0, 32, 64
2, 37866, Note_on_c, 0, 59, 72
2, 37867, Note_off_c, 0, 54, 64
2, 37868, Note_on_c, 0, 66, 47
2, 37868, Note_on_c, 0, 62, 47
2, 37868, Note_on_c, 0, 44, 64
2, 37869, Control_c, 0, 64, 127
2, 37880, Control_c, 0, 64, 0
2, 37883, Note_off_c, 0, 43, 64
2, 37885, Note_off_c, 0, 31, 64
2, 37934, Control_c, 0, 64, 127
2, 37968, Note_on_c, 0, 54, 39
2, 38065, Note_off_c, 0, 59, 64
2, 38109, Note_on_c, 0, 60, 64
2, 38111, Note_on_c, 0, 45, 60
2, 38112, Note_on_c, 0, 33, 64
2, 38113, Control_c, 0, 64, 127
2, 38117, Note_off_c, 0, 54, 64
2, 38125, Control_c, 0, 64, 0
2, 38129, Note_off_c, 0, 32, 64
2, 38132, Note_off_c, 0, 44, 64
2, 38172, Control_c, 0, 64, 127
2, 38217, Note_on_c, 0, 54, 44
2, 38280, Note_off_c, 0, 60, 64
2, 38317, Control_c, 0, 64, 0
2, 38319, Note_off_c, 0, 33, 64
2, 38325, Note_off_c, 0, 45, 64
2, 38340, Note_on_c, 0, 58, 64
2, 38340, Note_on_c, 0, 36, 28
2, 38344, Note_on_c, 0, 48, 60
2, 38364, Control_c, 0, 64, 127
2, 38409, Note_off_c, 0, 54, 64
2, 38507, Note_off_c, 0, 66, 64
2, 38509, Note_off_c, 0, 62, 64
2, 38511, Note_off_c, 0, 58, 64
2, 38530, Note_on_c, 0, 61, 57
2, 38536, Note_on_c, 0, 54, 45
2, 38562, Note_on_c, 0, 62, 67
2, 38584, Note_off_c, 0, 61, 64
2, 38598, Note_on_c, 0, 64, 73
2, 38622, Note_off_c, 0, 62, 64
2, 38631, Control_c, 0, 64, 0
2, 38639, Note_off_c, 0, 48, 64
2, 38640, Note_on_c, 0, 47, 53
2, 38646, Note_off_c, 0, 54, 64
2, 38648, Note_on_c, 0, 35, 30
2, 38652, Note_on_c, 0, 55, 47
2, 38652, Note_on_c, 0, 59, 32
2, 38652, Note_on_c, 0, 62, 64
2, 38664, Note_off_c, 0, 36, 64
2, 38679, Note_off_c, 0, 64, 64
2, 38687, Control_c, 0, 64, 127
2, 38772, Note_on_c, 0, 38, 66
2, 38791, Note_off_c, 0, 55, 64
2, 38892, Note_off_c, 0, 38, 64
2, 38894, Note_on_c, 0, 55, 47
2, 39007, Note_on_c, 0, 38, 46
2, 39013, Note_off_c, 0, 35, 64
2, 39017, Note_off_c, 0, 59, 64
2, 39020, Note_off_c, 0, 47, 64
2, 39033, Note_off_c, 0, 55, 64
2, 39116, Note_on_c, 0, 34, 56
2, 39120, Note_on_c, 0, 55, 36
2, 39121, Note_off_c, 0, 38, 64
2, 39124, Note_on_c, 0, 46, 56
2, 39131, Control_c, 0, 64, 127
2, 39138, Control_c, 0, 64, 0
2, 39139, Control_c, 0, 64, 127
2, 39191, Control_c, 0, 64, 127
2, 39267, Note_off_c, 0, 62, 64
2, 39280, Note_on_c, 0, 38, 1
2, 39398, Note_off_c, 0, 38, 64
2, 39448, Note_off_c, 0, 55, 64
2, 39460, Note_on_c, 0, 38, 50
2, 39467, Note_on_c, 0, 61, 62
2, 39492, Note_on_c, 0, 62, 52
2, 39525, Note_off_c, 0, 61, 64
2, 39543, Note_on_c, 0, 64, 64
2, 39546, Note_off_c, 0, 34, 64
2, 39554, Note_off_c, 0, 46, 64
2, 39561, Note_off_c, 0, 62, 64
2, 39565, Control_c, 0, 64, 0
2, 39580, Note_on_c, 0, 31, 29
2, 39583, Note_on_c, 0, 62, 66
2, 39584, Note_on_c, 0, 52, 56
2, 39584, Note_on_c, 0, 43, 61
2, 39601, Note_off_c, 0, 64, 64
2, 39612, Note_off_c, 0, 38, 64
2, 39623, Control_c, 0, 64, 127
2, 39728, Note_on_c, 0, 38, 61
2, 39880, Note_off_c, 0, 62, 64
2, 39982, Note_off_c, 0, 38, 64
2, 40044, Note_on_c, 0, 38, 52
2, 40046, Note_on_c, 0, 58, 50
2, 40181, Note_off_c, 0, 31, 64
2, 40183, Note_off_c, 0, 38, 64
2, 40185, Note_off_c, 0, 52, 64
2, 40207, Note_off_c, 0, 43, 64
2, 40231, Note_on_c, 0, 26, 53
2, 40232, Note_on_c, 0, 38, 46
2, 40248, Control_c, 0, 64, 0
2, 40254, Note_off_c, 0, 58, 64
2, 40313, Control_c, 0, 64, 127
2, 40481, Note_on_c, 0, 54, 53
2, 40487, Note_on_c, 0, 57, 56
2, 40489, Note_on_c, 0, 50, 43
2, 40792, Note_off_c, 0, 54, 64
2, 40808, Note_off_c, 0, 50, 64
2, 40813, Note_off_c, 0, 57, 64
2, 40949, Note_off_c, 0, 38, 64
2, 40957, Note_on_c, 0, 54, 40
2, 40966, Note_on_c, 0, 57, 42
2, 40970, Note_on_c, 0, 50, 33
2, 41251, Note_on_c, 0, 38, 36
2, 41296, Control_c, 0, 64, 0
2, 41320, Control_c, 0, 64, 127
2, 41336, Note_off_c, 0, 50, 64
2, 41346, Note_off_c, 0, 54, 64
2, 41394, Note_off_c, 0, 57, 64
2, 41533, Note_on_c, 0, 54, 33
2, 41541, Note_on_c, 0, 50, 33
2, 41744, Note_off_c, 0, 50, 64
2, 41778, Note_off_c, 0, 54, 64
2, 42091, Note_off_c, 0, 26, 64
2, 42121, Note_on_c, 0, 54, 25
2, 42137, Note_on_c, 0, 50, 33
2, 42191, Note_off_c, 0, 38, 64
2, 42199, Note_off_c, 0, 50, 64
2, 42212, Note_off_c, 0, 54, 64
2, 42484, Note_on_c, 0, 38, 45
2, 42508, Note_on_c, 0, 69, 59
2, 42511, Control_c, 0, 64, 0
2, 42548, Control_c, 0, 64, 127
2, 42629, Note_on_c, 0, 65, 29
2, 42743, Note_off_c, 0, 38, 64
2, 42743, Note_on_c, 0, 62, 40
2, 42746, Note_on_c, 0, 74, 71
2, 42785, Note_off_c, 0, 69, 64
2, 42804, Note_off_c, 0, 65, 64
2, 42819, Note_on_c, 0, 57, 48
2, 42878, Note_off_c, 0, 62, 64
2, 42931, Note_on_c, 0, 50, 40
2, 42932, Note_on_c, 0, 76, 64
2, 42935, Note_on_c, 0, 55, 42
2, 42946, Note_off_c, 0, 74, 64
2, 42956, Control_c, 0, 64, 0
2, 42960, Note_off_c, 0, 57, 64
2, 43008, Control_c, 0, 64, 127
2, 43018, Note_on_c, 0, 58, 23
2, 43053, Note_off_c, 0, 55, 64
2, 43118, Note_on_c, 0, 61, 40
2, 43142, Note_off_c, 0, 58, 64
2, 43160, Note_off_c, 0, 50, 64
2, 43211, Note_on_c, 0, 64, 30
2, 43231, Note_off_c, 0, 61, 64
2, 43304, Note_on_c, 0, 69, 64
2, 43308, Note_on_c, 0, 38, 45
2, 43309, Control_c, 0, 64, 0
2, 43330, Note_off_c, 0, 76, 64
2, 43355, Note_off_c, 0, 64, 64
2, 43356, Control_c, 0, 64, 127
2, 43401, Note_on_c, 0, 65, 30
2, 43490, Note_on_c, 0, 74, 64
2, 43499, Note_on_c, 0, 62, 44
2, 43511, Note_off_c, 0, 69, 64
2, 43527, Note_off_c, 0, 65, 64
2, 43567, Note_off_c, 0, 38, 64
2, 43574, Note_on_c, 0, 57, 53
2, 43637, Note_off_c, 0, 62, 64
2, 43664, Note_on_c, 0, 55, 52
2, 43668, Note_on_c, 0, 76, 60
2, 43673, Note_on_c, 0, 50, 40
2, 43674, Control_c, 0, 64, 0
2, 43697, Note_off_c, 0, 74, 64
2, 43701, Note_off_c, 0, 57, 64
2, 43717, Control_c, 0, 64, 127
2, 43755, Note_on_c, 0, 58, 38
2, 43784, Note_off_c, 0, 55, 64
2, 43833, Note_on_c, 0, 61, 32
2, 43841, Note_off_c, 0, 58, 64
2, 43924, Note_on_c, 0, 64, 44
2, 43942, Note_off_c, 0, 61, 64
2, 43979, Note_off_c, 0, 50, 64
2, 44000, Control_c, 0, 64, 0
2, 44014, Note_on_c, 0, 69, 51
2, 44019, Note_on_c, 0, 38, 47
2, 44035, Note_off_c, 0, 76, 64
2, 44048, Control_c, 0, 64, 127
2, 44054, Note_off_c, 0, 64, 64
2, 44095, Note_on_c, 0, 65, 30
2, 44186, Note_on_c, 0, 62, 38
2, 44186, Note_on_c, 0, 74, 51
2, 44210, Note_off_c, 0, 69, 64
2, 44259, Note_on_c, 0, 57, 47
2, 44261, Note_off_c, 0, 38, 64
2, 44309, Note_off_c, 0, 65, 64
2, 44313, Note_off_c, 0, 62, 64
2, 44360, Note_on_c, 0, 55, 54
2, 44360, Note_on_c, 0, 76, 66
2, 44413, Note_off_c, 0, 57, 64
2, 44418, Note_off_c, 0, 74, 64
2, 44436, Note_on_c, 0, 50, 48
2, 44469, Note_off_c, 0, 55, 64
2, 44527, Note_on_c, 0, 46, 47
2, 44540, Note_on_c, 0, 77, 65
2, 44555, Note_off_c, 0, 76, 64
2, 44587, Note_off_c, 0, 50, 64
2, 44613, Note_on_c, 0, 43, 61
2, 44661, Note_off_c, 0, 46, 64
2, 44671, Control_c, 0, 64, 0
2, 44708, Note_on_c, 0, 79, 75
2, 44727, Note_on_c, 0, 40, 55
2, 44732, Note_off_c, 0, 77, 64
2, 44733, Control_c, 0, 64, 127
2, 44740, Note_off_c, 0, 43, 64
2, 44797, Note_on_c, 0, 52, 43
2, 44888, Note_on_c, 0, 77, 56
2, 44898, Note_on_c, 0, 58, 51
2, 44904, Note_off_c, 0, 52, 64
2, 44912, Note_off_c, 0, 79, 64
2, 44973, Note_on_c, 0, 79, 63
2, 44986, Note_on_c, 0, 62, 45
2, 44990, Note_off_c, 0, 77, 64
2, 45001, Note_off_c, 0, 58, 64
2, 45050, Control_c, 0, 64, 0
2, 45062, Note_on_c, 0, 77, 62
2, 45072, Note_on_c, 0, 45, 51
2, 45074, Note_off_c, 0, 79, 64
2, 45086, Note_off_c, 0, 40, 64
2, 45111, Control_c, 0, 64, 127
2, 45119, Note_off_c, 0, 62, 64
2, 45150, Note_on_c, 0, 57, 49
2, 45238, Note_off_c, 0, 45, 64
2, 45245, Note_on_c, 0, 61, 52
2, 45253, Note_on_c, 0, 76, 49
2, 45270, Note_off_c, 0, 57, 64
2, 45305, Note_off_c, 0, 77, 64
2, 45331, Note_off_c, 0, 76, 64
2, 45352, Note_on_c, 0, 69, 34
2, 45355, Note_off_c, 0, 61, 64
2, 45456, Note_off_c, 0, 69, 64
2, 45461, Control_c, 0, 64, 0
2, 45469, Note_on_c, 0, 38, 48
2, 45473, Note_on_c, 0, 74, 52
2, 45474, Note_on_c, 0, 70, 47
2, 45523, Control_c, 0, 64, 127
2, 45567, Note_on_c, 0, 67, 26
2, 45612, Note_off_c, 0, 70, 64
2, 45648, Note_off_c, 0, 74, 64
2, 45654, Note_on_c, 0, 64, 43
2, 45655, Note_on_c, 0, 79, 57
2, 45738, Note_on_c, 0, 61, 47
2, 45762, Note_off_c, 0, 64, 64
2, 45812, Note_on_c, 0, 50, 51
2, 45815, Control_c, 0, 64, 0
2, 45820, Note_on_c, 0, 81, 73
2, 45825, Note_on_c, 0, 60, 45
2, 45831, Note_off_c, 0, 38, 64
2, 45848, Note_off_c, 0, 67, 64
2, 45851, Note_off_c, 0, 61, 64
2, 45867, Control_c, 0, 64, 127
2, 45873, Note_off_c, 0, 79, 64
2, 45902, Note_off_c, 0, 60, 64
2, 45902, Note_on_c, 0, 63, 48
2, 45943, Note_off_c, 0, 50, 64
2, 45979, Note_on_c, 0, 66, 48
2, 46007, Note_off_c, 0, 63, 64
2, 46024, Note_off_c, 0, 81, 64
2, 46053, Note_on_c, 0, 69, 40
2, 46078, Note_off_c, 0, 66, 64
2, 46141, Note_on_c, 0, 74, 59
2, 46142, Control_c, 0, 64, 0
2, 46149, Note_on_c, 0, 70, 48
2, 46154, Note_on_c, 0, 38, 45
2, 46170, Note_off_c, 0, 69, 64
2, 46191, Control_c, 0, 64, 127
2, 46226, Note_on_c, 0, 67, 43
2, 46250, Note_off_c, 0, 70, 64
2, 46304, Note_on_c, 0, 64, 49
2, 46307, Note_on_c, 0, 79, 61
2, 46369, Note_off_c, 0, 74, 64
2, 46378, Note_on_c, 0, 61, 48
2, 46396, Note_off_c, 0, 64, 64
2, 46400, Note_off_c, 0, 67, 64
2, 46457, Note_off_c, 0, 38, 64
2, 46458, Note_on_c, 0, 50, 54
2, 46462, Note_on_c, 0, 60, 54
2, 46466, Note_on_c, 0, 81, 81
2, 46474, Control_c, 0, 64, 0
2, 46476, Note_off_c, 0, 61, 64
2, 46510, Control_c, 0, 64, 127
2, 46514, Note_off_c, 0, 79, 64
2, 46533, Note_off_c, 0, 60, 64
2, 46537, Note_on_c, 0, 63, 46
2, 46543, Note_off_c, 0, 50, 64
2, 46606, Note_on_c, 0, 66, 54
2, 46628, Note_off_c, 0, 63, 64
2, 46651, Note_off_c, 0, 81, 64
2, 46698, Note_on_c, 0, 69, 45
2, 46718, Note_off_c, 0, 66, 64
2, 46766, Control_c, 0, 64, 0
2, 46774, Note_on_c, 0, 74, 47
2, 46774, Note_on_c, 0, 70, 48
2, 46778, Note_on_c, 0, 38, 47
2, 46794, Note_off_c, 0, 69, 64
2, 46815, Control_c, 0, 64, 127
2, 46853, Note_on_c, 0, 67, 51
2, 46871, Note_off_c, 0, 70, 64
2, 46932, Note_on_c, 0, 64, 47
2, 46939, Note_on_c, 0, 79, 51
2, 46953, Note_off_c, 0, 67, 64
2, 46979, Note_off_c, 0, 74, 64
2, 47007, Note_on_c, 0, 61, 39
2, 47041, Note_off_c, 0, 64, 64
2, 47044, Note_off_c, 0, 38, 64
2, 47082, Note_on_c, 0, 58, 58
2, 47089, Note_on_c, 0, 81, 66
2, 47099, Note_off_c, 0, 61, 64
2, 47146, Note_off_c, 0, 79, 64
2, 47173, Note_on_c, 0, 55, 57
2, 47204, Note_off_c, 0, 58, 64
2, 47248, Note_on_c, 0, 52, 40
2, 47250, Note_on_c, 0, 82, 72
2, 47271, Note_off_c, 0, 55, 64
2, 47296, Note_off_c, 0, 81, 64
2, 47320, Note_on_c, 0, 49, 51
2, 47323, Note_off_c, 0, 52, 64
2, 47387, Control_c, 0, 64, 0
2, 47392, Note_on_c, 0, 84, 81
2, 47399, Note_on_c, 0, 45, 49
2, 47402, Note_on_c, 0, 38, 58
2, 47418, Note_off_c, 0, 82, 64
2, 47419, Note_off_c, 0, 49, 64
2, 47446, Control_c, 0, 64, 127
2, 47470, Note_on_c, 0, 50, 57
2, 47507, Note_off_c, 0, 45, 64
2, 47573, Note_on_c, 0, 82, 54
2, 47576, Note_on_c, 0, 54, 51
2, 47590, Note_off_c, 0, 84, 64
2, 47595, Note_off_c, 0, 38, 64
2, 47604, Note_off_c, 0, 50, 64
2, 47643, Note_on_c, 0, 60, 39
2, 47656, Note_on_c, 0, 81, 48
2, 47669, Note_off_c, 0, 54, 64
2, 47686, Note_off_c, 0, 82, 64
2, 47716, Control_c, 0, 64, 0
2, 47731, Note_off_c, 0, 60, 64
2, 47734, Note_on_c, 0, 79, 46
2, 47735, Note_on_c, 0, 50, 48
2, 47740, Note_on_c, 0, 58, 48
2, 47769, Control_c, 0, 64, 127
2, 47793, Note_off_c, 0, 81, 64
2, 47817, Note_on_c, 0, 62, 51
2, 47863, Note_off_c, 0, 58, 64
2, 47898, Note_on_c, 0, 76, 54
2, 47909, Note_on_c, 0, 67, 28
2, 47911, Note_off_c, 0, 79, 64
2, 47936, Note_off_c, 0, 62, 64
2, 47947, Note_off_c, 0, 50, 64
2, 47970, Note_on_c, 0, 70, 40
2, 47991, Note_off_c, 0, 67, 64
2, 48044, Control_c, 0, 64, 0
2, 48064, Note_on_c, 0, 72, 54
2, 48064, Note_on_c, 0, 69, 40
2, 48064, Note_on_c, 0, 74, 49
2, 48064, Note_on_c, 0, 66, 39
2, 48080, Note_off_c, 0, 76, 64
2, 48082, Note_off_c, 0, 70, 64
2, 48095, Control_c, 0, 64, 127
2, 48150, Note_on_c, 0, 62, 39
2, 48156, Note_off_c, 0, 66, 64
2, 48178, Note_off_c, 0, 69, 64
2, 48230, Note_on_c, 0, 60, 44
2, 48234, Note_on_c, 0, 70, 48
2, 48260, Note_off_c, 0, 62, 64
2, 48283, Note_off_c, 0, 74, 64
2, 48310, Note_off_c, 0, 72, 64
2, 48325, Note_on_c, 0, 69, 37
2, 48330, Note_on_c, 0, 50, 18
2, 48339, Note_off_c, 0, 60, 64
2, 48341, Note_off_c, 0, 70, 64
2, 48398, Note_on_c, 0, 58, 34
2, 48402, Note_off_c, 0, 50, 64
2, 48405, Control_c, 0, 64, 0
2, 48408, Note_on_c, 0, 74, 42
2, 48417, Note_on_c, 0, 67, 47
2, 48437, Note_off_c, 0, 69, 64
2, 48443, Control_c, 0, 64, 127
2, 48482, Note_on_c, 0, 50, 34
2, 48484, Note_off_c, 0, 58, 64
2, 48588, Note_on_c, 0, 49, 42
2, 48588, Note_on_c, 0, 64, 46
2, 48596, Note_off_c, 0, 50, 64
2, 48615, Note_off_c, 0, 67, 64
2, 48664, Note_on_c, 0, 38, 35
2, 48683, Note_off_c, 0, 49, 64
2, 48685, Note_off_c, 0, 74, 64
2, 48741, Control_c, 0, 64, 0
2, 48770, Note_on_c, 0, 62, 40
2, 48772, Note_on_c, 0, 74, 38
2, 48772, Note_on_c, 0, 50, 32
2, 48789, Note_off_c, 0, 38, 64
2, 48792, Note_off_c, 0, 64, 64
2, 48812, Control_c, 0, 64, 127
2, 48864, Note_off_c, 0, 50, 64
2, 48914, Note_off_c, 0, 74, 64
2, 48929, Note_off_c, 0, 62, 64
2, 49016, Note_on_c, 0, 86, 78
2, 49016, Note_on_c, 0, 74, 74
2, 49016, Note_on_c, 0, 82, 74
2, 49016, Note_on_c, 0, 77, 73
2, 49016, Note_on_c, 0, 46, 74
2, 49024, Note_on_c, 0, 34, 68
2, 49039, Control_c, 0, 64, 0
2, 49093, Note_off_c, 0, 46, 64
2, 49095, Note_off_c, 0, 82, 64
2, 49097, Control_c, 0, 64, 127
2, 49101, Note_off_c, 0, 74, 64
2, 49107, Note_off_c, 0, 77, 64
2, 49111, Note_off_c, 0, 86, 64
2, 49118, Note_off_c, 0, 34, 64
2, 49221, Note_on_c, 0, 86, 74
2, 49225, Note_on_c, 0, 74, 71
2, 49225, Note_on_c, 0, 77, 75
2, 49225, Note_on_c, 0, 82, 78
2, 49226, Note_on_c, 0, 50, 68
2, 49228, Note_on_c, 0, 38, 50
2, 49325, Note_off_c, 0, 77, 64
2, 49326, Note_off_c, 0, 38, 64
2, 49329, Note_off_c, 0, 82, 64
2, 49329, Note_off_c, 0, 86, 64
2, 49335, Note_off_c, 0, 74, 64
2, 49341, Note_off_c, 0, 50, 64
2, 49390, Note_on_c, 0, 53, 79
2, 49396, Note_on_c, 0, 41, 78
2, 49400, Note_on_c, 0, 86, 78
2, 49401, Note_on_c, 0, 74, 78
2, 49402, Note_on_c, 0, 77, 85
2, 49402, Note_on_c, 0, 82, 85
2, 49483, Note_off_c, 0, 41, 64
2, 49493, Note_off_c, 0, 53, 64
2, 49494, Note_off_c, 0, 82, 64
2, 49495, Note_off_c, 0, 77, 64
2, 49495, Note_off_c, 0, 86, 64
2, 49508, Note_off_c, 0, 74, 64
2, 49572, Control_c, 0, 64, 0
2, 49586, Note_on_c, 0, 86, 81
2, 49586, Note_on_c, 0, 82, 85
2, 49594, Note_on_c, 0, 77, 85
2, 49595, Note_on_c, 0, 74, 81
2, 49596, Note_on_c, 0, 58, 74
2, 49596, Note_on_c, 0, 46, 71
2, 49632, Control_c, 0, 64, 127
2, 49729, Note_off_c, 0, 86, 64
2, 49730, Note_off_c, 0, 46, 64
2, 49732, Note_off_c, 0, 77, 64
2, 49745, Note_off_c, 0, 82, 64
2, 49766, Note_off_c, 0, 74, 64
2, 49780, Note_on_c, 0, 34, 79
2, 49780, Note_on_c, 0, 46, 79
2, 49781, Note_off_c, 0, 58, 64
2, 49840, Note_on_c, 0, 81, 79
2, 49864, Note_on_c, 0, 82, 79
2, 49871, Note_off_c, 0, 81, 64
2, 49885, Note_on_c, 0, 84, 79
2, 49898, Note_off_c, 0, 82, 64
2, 49916, Note_off_c, 0, 46, 64
2, 49916, Note_off_c, 0, 34, 64
2, 49928, Note_off_c, 0, 84, 64
2, 49928, Control_c, 0, 64, 0
2, 49947, Note_on_c, 0, 39, 44
2, 49947, Note_on_c, 0, 51, 62
2, 49951, Note_on_c, 0, 70, 85
2, 49952, Note_on_c, 0, 78, 79
2, 49956, Note_on_c, 0, 82, 81
2, 49980, Control_c, 0, 64, 127
2, 50077, Note_off_c, 0, 82, 64
2, 50086, Note_off_c, 0, 78, 64
2, 50094, Note_off_c, 0, 51, 64
2, 50094, Note_off_c, 0, 39, 64
2, 50112, Note_off_c, 0, 70, 64
2, 50124, Note_on_c, 0, 39, 68
2, 50132, Note_on_c, 0, 27, 79
2, 50188, Note_on_c, 0, 75, 58
2, 50189, Note_on_c, 0, 78, 58
2, 50192, Note_on_c, 0, 66, 61
2, 50230, Note_off_c, 0, 66, 64
2, 50250, Note_off_c, 0, 75, 64
2, 50251, Note_off_c, 0, 78, 64
2, 50268, Note_off_c, 0, 27, 64
2, 50276, Note_off_c, 0, 39, 64
2, 50279, Control_c, 0, 64, 0
2, 50284, Note_on_c, 0, 77, 68
2, 50289, Note_on_c, 0, 74, 72
2, 50295, Note_on_c, 0, 65, 72
2, 50296, Note_on_c, 0, 46, 72
2, 50310, Note_on_c, 0, 34, 65
2, 50332, Control_c, 0, 64, 127
2, 50417, Note_off_c, 0, 77, 64
2, 50425, Note_off_c, 0, 34, 64
2, 50433, Note_off_c, 0, 65, 64
2, 50436, Note_off_c, 0, 46, 64
2, 50455, Note_off_c, 0, 74, 64
2, 50457, Note_on_c, 0, 22, 68
2, 50460, Note_on_c, 0, 34, 67
2, 50531, Note_on_c, 0, 82, 58
2, 50582, Note_off_c, 0, 82, 64
2, 50593, Note_off_c, 0, 22, 64
2, 50596, Note_off_c, 0, 34, 64
2, 50622, Note_on_c, 0, 78, 68
2, 50623, Note_on_c, 0, 69, 72
2, 50623, Control_c, 0, 64, 0
2, 50692, Note_on_c, 0, 51, 71
2, 50692, Control_c, 0, 64, 127
2, 50696, Note_on_c, 0, 63, 71
2, 50696, Control_c, 0, 64, 127
2, 50773, Note_on_c, 0, 60, 64
2, 50785, Note_off_c, 0, 51, 64
2, 50789, Note_off_c, 0, 63, 64
2, 50831, Note_off_c, 0, 78, 64
2, 50836, Note_on_c, 0, 57, 58
2, 50839, Note_on_c, 0, 75, 64
2, 50858, Note_off_c, 0, 60, 64
2, 50858, Note_off_c, 0, 69, 64
2, 50860, Note_off_c, 0, 57, 64
2, 50877, Note_off_c, 0, 75, 64
2, 50925, Note_on_c, 0, 65, 69
2, 50926, Control_c, 0, 64, 0
2, 50932, Note_on_c, 0, 74, 74
2, 50982, Control_c, 0, 64, 127
2, 50993, Note_on_c, 0, 58, 72
2, 51004, Note_on_c, 0, 46, 30
2, 51083, Note_on_c, 0, 53, 40
2, 51088, Note_off_c, 0, 58, 64
2, 51126, Note_off_c, 0, 46, 64
2, 51127, Note_off_c, 0, 74, 64
2, 51135, Note_off_c, 0, 65, 64
2, 51149, Note_on_c, 0, 70, 61
2, 51160, Note_on_c, 0, 50, 54
2, 51162, Note_off_c, 0, 53, 64
2, 51182, Note_off_c, 0, 70, 64
2, 51184, Note_off_c, 0, 50, 64
2, 51232, Control_c, 0, 64, 0
2, 51240, Note_on_c, 0, 66, 67
2, 51244, Note_on_c, 0, 57, 57
2, 51281, Control_c, 0, 64, 127
2, 51300, Note_on_c, 0, 51, 63
2, 51312, Note_on_c, 0, 39, 53
2, 51346, Note_off_c, 0, 66, 64
2, 51395, Note_on_c, 0, 48, 49
2, 51402, Note_off_c, 0, 51, 64
2, 51445, Note_off_c, 0, 39, 64
2, 51464, Note_on_c, 0, 60, 56
2, 51467, Note_on_c, 0, 63, 55
2, 51476, Note_on_c, 0, 45, 50
2, 51488, Note_off_c, 0, 48, 64
2, 51489, Note_off_c, 0, 57, 64
2, 51500, Note_off_c, 0, 45, 64
2, 51524, Note_off_c, 0, 60, 64
2, 51527, Note_off_c, 0, 63, 64
2, 51542, Control_c, 0, 64, 0
2, 51551, Note_on_c, 0, 34, 89
2, 51607, Control_c, 0, 64, 127
2, 51615, Note_off_c, 0, 34, 64
2, 51626, Note_on_c, 0, 58, 59
2, 51695, Control_c, 0, 64, 0
2, 51708, Note_off_c, 0, 58, 64
2, 51717, Note_on_c, 0, 70, 54
2, 51717, Note_on_c, 0, 66, 58
2, 51721, Note_on_c, 0, 61, 47
2, 51722, Note_on_c, 0, 54, 59
2, 51722, Note_on_c, 0, 46, 68
2, 51731, Note_on_c, 0, 49, 56
2, 51755, Control_c, 0, 64, 127
2, 51771, Note_off_c, 0, 46, 64
2, 51771, Note_off_c, 0, 54, 64
2, 51772, Note_off_c, 0, 49, 64
2, 51796, Note_off_c, 0, 66, 64
2, 51804, Note_off_c, 0, 70, 64
2, 51808, Note_off_c, 0, 61, 64
2, 51808, Note_on_c, 0, 58, 52
2, 51862, Control_c, 0, 64, 0
2, 51876, Control_c, 0, 64, 127
2, 51883, Note_on_c, 0, 54, 52
2, 51884, Note_on_c, 0, 61, 46
2, 51884, Note_on_c, 0, 46, 52
2, 51885, Note_on_c, 0, 70, 56
2, 51889, Note_on_c, 0, 49, 52
2, 51895, Note_on_c, 0, 66, 38
2, 51917, Note_off_c, 0, 58, 64
2, 51930, Note_off_c, 0, 49, 64
2, 51930, Note_off_c, 0, 46, 64
2, 51935, Note_off_c, 0, 54, 64
2, 51958, Note_off_c, 0, 66, 64
2, 51958, Note_off_c, 0, 70, 64
2, 51961, Note_off_c, 0, 61, 64
2, 51976, Note_on_c, 0, 58, 56
2, 52037, Note_on_c, 0, 54, 47
2, 52043, Note_on_c, 0, 46, 47
2, 52050, Note_on_c, 0, 61, 45
2, 52053, Note_on_c, 0, 49, 45
2, 52053, Note_on_c, 0, 70, 50
2, 52059, Note_on_c, 0, 66, 44
2, 52062, Note_off_c, 0, 58, 64
2, 52088, Note_off_c, 0, 49, 64
2, 52095, Note_off_c, 0, 46, 64
2, 52102, Note_off_c, 0, 54, 64
2, 52118, Note_off_c, 0, 61, 64
2, 52119, Note_off_c, 0, 70, 64
2, 52120, Note_off_c, 0, 66, 64
2, 52136, Note_on_c, 0, 58, 54
2, 52204, Note_on_c, 0, 54, 58
2, 52204, Note_on_c, 0, 66, 58
2, 52205, Note_on_c, 0, 70, 52
2, 52208, Note_on_c, 0, 49, 44
2, 52211, Note_on_c, 0, 46, 52
2, 52215, Note_on_c, 0, 61, 32
2, 52217, Note_off_c, 0, 58, 64
2, 52264, Note_off_c, 0, 66, 64
2, 52265, Note_off_c, 0, 70, 64
2, 52267, Note_off_c, 0, 49, 64
2, 52269, Note_off_c, 0, 54, 64
2, 52272, Note_off_c, 0, 46, 64
2, 52272, Note_on_c, 0, 58, 59
2, 52279, Note_off_c, 0, 61, 64
2, 52340, Note_on_c, 0, 30, 60
2, 52344, Note_on_c, 0, 42, 60
2, 52345, Note_on_c, 0, 34, 64
2, 52362, Note_off_c, 0, 58, 64
2, 52420, Note_off_c, 0, 34, 64
2, 52424, Note_on_c, 0, 58, 56
2, 52429, Note_off_c, 0, 30, 64
2, 52430, Note_on_c, 0, 46, 81
2, 52433, Note_off_c, 0, 42, 64
2, 52500, Note_on_c, 0, 30, 66
2, 52504, Note_on_c, 0, 34, 74
2, 52504, Note_on_c, 0, 42, 62
2, 52549, Note_off_c, 0, 46, 64
2, 52561, Note_off_c, 0, 58, 64
2, 52568, Note_off_c, 0, 42, 64
2, 52568, Note_on_c, 0, 58, 46
2, 52571, Note_on_c, 0, 59, 64
2, 52574, Note_on_c, 0, 47, 64
2, 52595, Note_off_c, 0, 34, 64
2, 52605, Note_off_c, 0, 30, 64
2, 52660, Note_on_c, 0, 30, 64
2, 52662, Note_on_c, 0, 34, 79
2, 52662, Note_on_c, 0, 42, 73
2, 52705, Note_off_c, 0, 58, 64
2, 52721, Note_off_c, 0, 47, 64
2, 52724, Note_on_c, 0, 58, 53
2, 52724, Note_on_c, 0, 60, 78
2, 52725, Note_on_c, 0, 48, 78
2, 52749, Note_off_c, 0, 30, 64
2, 52750, Note_off_c, 0, 34, 64
2, 52753, Note_off_c, 0, 42, 64
2, 52760, Note_off_c, 0, 59, 64
2, 52779, Control_c, 0, 64, 0
2, 52808, Note_on_c, 0, 30, 66
2, 52810, Note_on_c, 0, 34, 82
2, 52810, Note_on_c, 0, 42, 81
2, 52852, Note_off_c, 0, 48, 64
2, 52861, Note_off_c, 0, 58, 64
2, 52863, Control_c, 0, 64, 127
2, 52870, Note_on_c, 0, 61, 71
2, 52872, Note_on_c, 0, 49, 77
2, 52874, Note_on_c, 0, 58, 65
2, 52892, Note_off_c, 0, 60, 64
2, 52897, Note_off_c, 0, 30, 64
2, 52903, Note_off_c, 0, 42, 64
2, 52905, Note_off_c, 0, 34, 64
2, 52938, Control_c, 0, 64, 0
2, 52940, Note_off_c, 0, 49, 64
2, 52964, Note_on_c, 0, 46, 64
2, 52965, Note_on_c, 0, 49, 70
2, 52966, Note_on_c, 0, 54, 67
2, 52983, Note_off_c, 0, 58, 64
2, 52984, Control_c, 0, 64, 127
2, 52987, Note_off_c, 0, 61, 64
2, 53032, Note_on_c, 0, 58, 61
2, 53032, Note_on_c, 0, 66, 61
2, 53033, Note_on_c, 0, 70, 39
2, 53043, Note_off_c, 0, 49, 64
2, 53048, Note_off_c, 0, 46, 64
2, 53050, Note_off_c, 0, 54, 64
2, 53109, Control_c, 0, 64, 0
2, 53116, Note_on_c, 0, 54, 63
2, 53116, Note_on_c, 0, 49, 68
2, 53117, Note_on_c, 0, 46, 68
2, 53146, Note_off_c, 0, 70, 64
2, 53158, Control_c, 0, 64, 127
2, 53162, Note_off_c, 0, 66, 64
2, 53188, Note_on_c, 0, 70, 65
2, 53190, Note_on_c, 0, 59, 64
2, 53194, Note_on_c, 0, 66, 59
2, 53210, Note_off_c, 0, 46, 64
2, 53214, Note_off_c, 0, 49, 64
2, 53214, Note_off_c, 0, 58, 64
2, 53216, Note_off_c, 0, 54, 64
2, 53242, Control_c, 0, 64, 0
2, 53267, Note_on_c, 0, 54, 73
2, 53270, Note_on_c, 0, 46, 70
2, 53270, Note_on_c, 0, 49, 82
2, 53292, Control_c, 0, 64, 127
2, 53313, Note_off_c, 0, 66, 64
2, 53318, Note_off_c, 0, 70, 64
2, 53334, Note_off_c, 0, 49, 64
2, 53337, Note_on_c, 0, 60, 82
2, 53338, Note_off_c, 0, 46, 64
2, 53340, Note_on_c, 0, 70, 45
2, 53342, Note_off_c, 0, 54, 64
2, 53343, Note_on_c, 0, 66, 50
2, 53362, Note_off_c, 0, 59, 64
2, 53401, Control_c, 0, 64, 0
2, 53411, Note_on_c, 0, 54, 83
2, 53412, Note_on_c, 0, 49, 89
2, 53413, Note_on_c, 0, 46, 77
2, 53448, Control_c, 0, 64, 127
2, 53449, Note_off_c, 0, 70, 64
2, 53451, Note_off_c, 0, 66, 64
2, 53480, Note_on_c, 0, 61, 79
2, 53480, Note_on_c, 0, 66, 32
2, 53480, Note_on_c, 0, 70, 68
2, 53482, Note_off_c, 0, 54, 64
2, 53484, Note_off_c, 0, 46, 64
2, 53493, Note_off_c, 0, 49, 64
2, 53519, Note_off_c, 0, 60, 64
2, 53550, Control_c, 0, 64, 0
2, 53569, Note_off_c, 0, 66, 64
2, 53571, Note_on_c, 0, 34, 57
2, 53572, Note_on_c, 0, 42, 54
2, 53572, Note_on_c, 0, 30, 54
2, 53578, Note_off_c, 0, 70, 64
2, 53607, Note_off_c, 0, 61, 64
2, 53622, Control_c, 0, 64, 127
2, 53628, Note_on_c, 0, 60, 47
2, 53628, Note_on_c, 0, 58, 52
2, 53632, Note_on_c, 0, 48, 56
2, 53646, Note_off_c, 0, 30, 64
2, 53646, Note_off_c, 0, 42, 64
2, 53659, Note_off_c, 0, 34, 64
2, 53693, Control_c, 0, 64, 0
2, 53713, Note_on_c, 0, 30, 62
2, 53713, Note_on_c, 0, 34, 62
2, 53720, Note_on_c, 0, 42, 64
2, 53744, Control_c, 0, 64, 127
2, 53772, Note_off_c, 0, 58, 64
2, 53772, Note_off_c, 0, 60, 64
2, 53773, Note_off_c, 0, 42, 64
2, 53785, Note_off_c, 0, 34, 64
2, 53790, Note_off_c, 0, 30, 64
2, 53804, Note_on_c, 0, 49, 71
2, 53804, Note_on_c, 0, 58, 60
2, 53804, Note_on_c, 0, 61, 64
2, 53814, Note_off_c, 0, 48, 64
2, 53864, Note_on_c, 0, 34, 72
2, 53865, Note_on_c, 0, 30, 72
2, 53868, Note_on_c, 0, 42, 72
2, 53913, Note_off_c, 0, 58, 64
2, 53917, Note_off_c, 0, 61, 64
2, 53921, Note_off_c, 0, 42, 64
2, 53936, Note_off_c, 0, 34, 64
2, 53939, Note_off_c, 0, 30, 64
2, 53944, Note_on_c, 0, 50, 75
2, 53948, Note_on_c, 0, 62, 54
2, 53948, Note_on_c, 0, 58, 75
2, 53977, Note_off_c, 0, 49, 64
2, 53977, Control_c, 0, 64, 0
2, 54000, Note_on_c, 0, 34, 76
2, 54000, Note_on_c, 0, 30, 76
2, 54008, Note_on_c, 0, 42, 76
2, 54036, Note_off_c, 0, 58, 64
2, 54038, Control_c, 0, 64, 127
2, 54053, Note_off_c, 0, 62, 64
2, 54061, Note_off_c, 0, 42, 64
2, 54065, Note_off_c, 0, 30, 64
2, 54068, Note_off_c, 0, 34, 64
2, 54077, Note_on_c, 0, 63, 78
2, 54080, Note_on_c, 0, 51, 78
2, 54080, Note_on_c, 0, 58, 78
2, 54088, Note_off_c, 0, 50, 64
2, 54135, Control_c, 0, 64, 0
2, 54138, Note_off_c, 0, 58, 64
2, 54145, Note_off_c, 0, 63, 64
2, 54160, Note_on_c, 0, 46, 64
2, 54160, Note_on_c, 0, 58, 75
2, 54160, Note_on_c, 0, 54, 64
2, 54179, Note_off_c, 0, 51, 64
2, 54196, Control_c, 0, 64, 127
2, 54221, Note_on_c, 0, 62, 64
2, 54224, Note_on_c, 0, 66, 57
2, 54224, Note_on_c, 0, 70, 57
2, 54245, Note_off_c, 0, 58, 64
2, 54246, Note_off_c, 0, 46, 64
2, 54255, Note_off_c, 0, 54, 64
2, 54296, Note_on_c, 0, 58, 70
2, 54299, Note_on_c, 0, 54, 68
2, 54303, Note_on_c, 0, 46, 63
2, 54309, Note_off_c, 0, 70, 64
2, 54309, Note_off_c, 0, 66, 64
2, 54364, Note_on_c, 0, 70, 67
2, 54364, Note_on_c, 0, 66, 66
2, 54366, Note_on_c, 0, 63, 76
2, 54377, Note_off_c, 0, 62, 64
2, 54380, Note_off_c, 0, 58, 64
2, 54397, Note_off_c, 0, 54, 64
2, 54416, Note_off_c, 0, 46, 64
2, 54425, Control_c, 0, 64, 0
2, 54440, Note_on_c, 0, 34, 78
2, 54443, Note_on_c, 0, 30, 69
2, 54445, Note_off_c, 0, 70, 64
2, 54447, Note_on_c, 0, 42, 69
2, 54449, Note_off_c, 0, 66, 64
2, 54464, Note_off_c, 0, 63, 64
2, 54495, Control_c, 0, 64, 127
2, 54504, Note_off_c, 0, 34, 64
2, 54510, Note_off_c, 0, 30, 64
2, 54514, Note_off_c, 0, 42, 64
2, 54524, Note_on_c, 0, 63, 79
2, 54528, Note_on_c, 0, 51, 79
2, 54528, Note_on_c, 0, 58, 79
2, 54590, Note_on_c, 0, 34, 63
2, 54590, Note_on_c, 0, 30, 62
2, 54591, Note_on_c, 0, 42, 69
2, 54610, Note_off_c, 0, 58, 64
2, 54646, Note_off_c, 0, 34, 64
2, 54658, Note_off_c, 0, 42, 64
2, 54660, Note_on_c, 0, 52, 85
2, 54660, Note_on_c, 0, 64, 72
2, 54660, Note_on_c, 0, 58, 85
2, 54661, Note_off_c, 0, 30, 64
2, 54683, Note_off_c, 0, 63, 64
2, 54687, Note_off_c, 0, 51, 64
2, 54724, Note_off_c, 0, 58, 64
2, 54733, Note_on_c, 0, 58, 81
2, 54736, Note_on_c, 0, 46, 85
2, 54736, Note_on_c, 0, 54, 74
2, 54738, Note_off_c, 0, 64, 64
2, 54763, Note_off_c, 0, 52, 64
2, 54803, Note_off_c, 0, 54, 64
2, 54803, Note_on_c, 0, 63, 85
2, 54803, Note_on_c, 0, 70, 84
2, 54807, Note_off_c, 0, 58, 64
2, 54810, Note_off_c, 0, 46, 64
2, 54870, Note_on_c, 0, 58, 84
2, 54872, Note_on_c, 0, 46, 85
2, 54872, Note_on_c, 0, 54, 85
2, 54874, Note_off_c, 0, 70, 64
2, 54945, Note_off_c, 0, 58, 64
2, 54946, Note_off_c, 0, 46, 64
2, 54952, Note_on_c, 0, 70, 84
2, 54956, Note_on_c, 0, 64, 85
2, 54960, Note_off_c, 0, 54, 64
2, 54976, Note_off_c, 0, 63, 64
2, 55020, Note_off_c, 0, 70, 64
2, 55045, Note_off_c, 0, 64, 64
2, 55090, Control_c, 0, 64, 0
2, 55107, Note_on_c, 0, 42, 85
2, 55112, Note_on_c, 0, 52, 85
2, 55113, Note_on_c, 0, 70, 85
2, 55117, Note_on_c, 0, 82, 85
2, 55118, Note_on_c, 0, 46, 85
2, 55119, Note_on_c, 0, 76, 85
2, 55141, Control_c, 0, 64, 127
2, 55181, Note_off_c, 0, 42, 64
2, 55188, Note_off_c, 0, 70, 64
2, 55189, Note_off_c, 0, 76, 64
2, 55196, Note_off_c, 0, 46, 64
2, 55200, Note_off_c, 0, 52, 64
2, 55206, Note_off_c, 0, 82, 64
2, 55236, Note_on_c, 0, 37, 79
2, 55274, Note_on_c, 0, 46, 80
2, 55290, Control_c, 0, 64, 0
2, 55301, Note_on_c, 0, 94, 85
2, 55304, Note_on_c, 0, 82, 85
2, 55308, Note_on_c, 0, 89, 85
2, 55314, Note_off_c, 0, 37, 64
2, 55314, Note_on_c, 0, 53, 85
2, 55338, Control_c, 0, 64, 127
2, 55343, Note_off_c, 0, 46, 64
2, 55353, Note_off_c, 0, 53, 64
2, 55384, Note_off_c, 0, 89, 64
2, 55392, Note_off_c, 0, 94, 64
2, 55444, Note_off_c, 0, 82, 64
2, 55554, Note_on_c, 0, 88, 63
2, 55588, Note_on_c, 0, 89, 63
2, 55604, Note_off_c, 0, 88, 64
2, 55612, Note_on_c, 0, 90, 69
2, 55619, Note_off_c, 0, 89, 64
2, 55626, Control_c, 0, 64, 0
2, 55641, Note_on_c, 0, 65, 76
2, 55644, Note_on_c, 0, 81, 80
2, 55644, Note_on_c, 0, 89, 80
2, 55648, Note_on_c, 0, 84, 80
2, 55649, Note_on_c, 0, 77, 71
2, 55656, Control_c, 0, 64, 127
2, 55674, Note_off_c, 0, 90, 64
2, 55680, Control_c, 0, 64, 127
2, 55686, Note_off_c, 0, 89, 64
2, 55686, Note_off_c, 0, 81, 64
2, 55690, Note_off_c, 0, 84, 64
2, 55774, Note_off_c, 0, 65, 64
2, 55780, Note_off_c, 0, 77, 64
2, 55888, Note_on_c, 0, 72, 56
2, 55914, Note_on_c, 0, 73, 62
2, 55922, Note_off_c, 0, 72, 64
2, 55953, Note_on_c, 0, 75, 82
2, 55969, Note_off_c, 0, 73, 64
2, 55980, Control_c, 0, 64, 0
2, 55997, Note_on_c, 0, 61, 76
2, 55998, Note_on_c, 0, 73, 80
2, 56000, Note_on_c, 0, 70, 80
2, 56000, Note_on_c, 0, 58, 77
2, 56006, Note_off_c, 0, 75, 64
2, 56010, Control_c, 0, 64, 127
2, 56012, Control_c, 0, 64, 127
2, 56036, Note_off_c, 0, 73, 64
2, 56143, Note_off_c, 0, 61, 64
2, 56145, Note_off_c, 0, 70, 64
2, 56163, Note_off_c, 0, 58, 64
2, 56247, Note_on_c, 0, 64, 66
2, 56286, Note_on_c, 0, 65, 60
2, 56305, Note_off_c, 0, 64, 64
2, 56314, Note_on_c, 0, 66, 80
2, 56320, Control_c, 0, 64, 0
2, 56328, Note_off_c, 0, 65, 64
2, 56340, Note_on_c, 0, 41, 78
2, 56340, Note_on_c, 0, 53, 72
2, 56343, Note_on_c, 0, 57, 74
2, 56349, Note_on_c, 0, 65, 78
2, 56350, Note_on_c, 0, 60, 80
2, 56368, Note_off_c, 0, 66, 64
2, 56376, Note_off_c, 0, 57, 64
2, 56378, Control_c, 0, 64, 127
2, 56385, Note_off_c, 0, 60, 64
2, 56403, Note_off_c, 0, 65, 64
2, 56477, Note_off_c, 0, 41, 64
2, 56478, Note_off_c, 0, 53, 64
2, 56579, Note_on_c, 0, 48, 62
2, 56628, Note_on_c, 0, 49, 62
2, 56634, Note_off_c, 0, 48, 64
2, 56660, Note_on_c, 0, 51, 88
2, 56683, Note_off_c, 0, 49, 64
2, 56692, Note_off_c, 0, 51, 64
2, 56692, Control_c, 0, 64, 0
2, 56699, Note_on_c, 0, 97, 101
2, 56701, Note_on_c, 0, 85, 96
2, 56707, Note_on_c, 0, 89, 97
2, 56710, Note_on_c, 0, 49, 101
2, 56710, Note_on_c, 0, 37, 101
2, 56755, Control_c, 0, 64, 127
2, 56768, Note_off_c, 0, 49, 64
2, 56778, Note_off_c, 0, 37, 64
2, 56876, Note_off_c, 0, 97, 64
2, 56879, Note_off_c, 0, 89, 64
2, 56894, Note_off_c, 0, 85, 64
2, 56956, Note_on_c, 0, 91, 74
2, 56997, Note_on_c, 0, 92, 76
2, 57018, Note_off_c, 0, 91, 64
2, 57032, Note_on_c, 0, 93, 69
2, 57042, Control_c, 0, 64, 0
2, 57050, Note_off_c, 0, 92, 64
2, 57056, Note_on_c, 0, 80, 82
2, 57056, Note_on_c, 0, 68, 68
2, 57059, Note_on_c, 0, 84, 84
2, 57060, Note_on_c, 0, 87, 76
2, 57065, Note_on_c, 0, 92, 76
2, 57067, Note_off_c, 0, 93, 64
2, 57091, Control_c, 0, 64, 127
2, 57110, Note_off_c, 0, 84, 64
2, 57113, Note_off_c, 0, 87, 64
2, 57118, Note_off_c, 0, 92, 64
2, 57236, Note_off_c, 0, 80, 64
2, 57247, Note_off_c, 0, 68, 64
2, 57305, Note_on_c, 0, 75, 60
2, 57334, Note_on_c, 0, 77, 68
2, 57350, Note_off_c, 0, 75, 64
2, 57371, Note_on_c, 0, 78, 78
2, 57390, Note_off_c, 0, 77, 64
2, 57404, Control_c, 0, 64, 0
2, 57416, Note_on_c, 0, 73, 78
2, 57417, Note_on_c, 0, 77, 80
2, 57420, Note_on_c, 0, 65, 75
2, 57420, Note_on_c, 0, 61, 78
2, 57427, Note_off_c, 0, 78, 64
2, 57434, Control_c, 0, 64, 127
2, 57441, Note_off_c, 0, 77, 64
2, 57603, Note_off_c, 0, 65, 64
2, 57610, Note_off_c, 0, 73, 64
2, 57614, Note_off_c, 0, 61, 64
2, 57652, Note_on_c, 0, 67, 61
2, 57679, Note_on_c, 0, 68, 68
2, 57708, Note_off_c, 0, 67, 64
2, 57710, Note_on_c, 0, 69, 73
2, 57730, Note_off_c, 0, 68, 64
2, 57731, Control_c, 0, 64, 0
2, 57745, Note_on_c, 0, 44, 64
2, 57746, Note_on_c, 0, 56, 80
2, 57751, Note_on_c, 0, 63, 88
2, 57751, Note_on_c, 0, 68, 68
2, 57752, Note_on_c, 0, 60, 76
2, 57776, Note_off_c, 0, 69, 64
2, 57783, Control_c, 0, 64, 127
2, 57787, Note_off_c, 0, 60, 64
2, 57796, Note_off_c, 0, 63, 64
2, 57802, Note_off_c, 0, 68, 64
2, 57904, Note_off_c, 0, 56, 64
2, 57904, Note_off_c, 0, 44, 64
2, 57986, Note_on_c, 0, 51, 75
2, 58016, Note_on_c, 0, 53, 62
2, 58044, Note_on_c, 0, 54, 73
2, 58045, Note_off_c, 0, 51, 64
2, 58052, Control_c, 0, 64, 0
2, 58071, Note_off_c, 0, 53, 64
2, 58088, Note_on_c, 0, 53, 86
2, 58088, Note_on_c, 0, 77, 89
2, 58088, Note_on_c, 0, 89, 100
2, 58092, Note_on_c, 0, 41, 86
2, 58105, Note_off_c, 0, 54, 64
2, 58115, Control_c, 0, 64, 127
2, 58147, Note_off_c, 0, 89, 64
2, 58156, Note_off_c, 0, 53, 64
2, 58160, Note_off_c, 0, 41, 64
2, 58169, Note_off_c, 0, 77, 64
2, 58245, Note_on_c, 0, 41, 82
2, 58248, Note_on_c, 0, 29, 60
2, 58285, Note_off_c, 0, 41, 64
2, 58297, Note_off_c, 0, 29, 64
2, 58326, Note_on_c, 0, 64, 62
2, 58356, Note_on_c, 0, 65, 64
2, 58370, Note_off_c, 0, 64, 64
2, 58371, Note_on_c, 0, 66, 64
2, 58386, Note_off_c, 0, 65, 64
2, 58392, Control_c, 0, 64, 0
2, 58404, Note_on_c, 0, 53, 74
2, 58404, Note_on_c, 0, 30, 81
2, 58407, Note_on_c, 0, 65, 75
2, 58408, Note_on_c, 0, 42, 80
2, 58444, Note_off_c, 0, 42, 64
2, 58445, Note_off_c, 0, 66, 64
2, 58450, Control_c, 0, 64, 127
2, 58468, Note_off_c, 0, 30, 64
2, 58563, Note_on_c, 0, 54, 54
2, 58567, Note_on_c, 0, 42, 62
2, 58573, Note_off_c, 0, 53, 64
2, 58576, Note_off_c, 0, 65, 64
2, 58614, Note_off_c, 0, 42, 64
2, 58621, Note_off_c, 0, 54, 64
2, 58656, Note_on_c, 0, 77, 81
2, 58657, Note_on_c, 0, 89, 91
2, 58704, Control_c, 0, 64, 0
2, 58725, Note_on_c, 0, 43, 84
2, 58726, Note_on_c, 0, 55, 84
2, 58742, Control_c, 0, 64, 127
2, 58762, Note_off_c, 0, 89, 64
2, 58773, Note_off_c, 0, 43, 64
2, 58781, Note_off_c, 0, 55, 64
2, 58784, Note_off_c, 0, 77, 64
2, 58892, Note_on_c, 0, 43, 80
2, 58894, Note_on_c, 0, 31, 55
2, 58935, Note_off_c, 0, 43, 64
2, 58938, Note_off_c, 0, 31, 64
2, 58972, Note_on_c, 0, 64, 64
2, 58996, Note_on_c, 0, 65, 66
2, 59020, Note_on_c, 0, 66, 68
2, 59022, Control_c, 0, 64, 0
2, 59026, Note_off_c, 0, 64, 64
2, 59044, Note_off_c, 0, 65, 64
2, 59064, Note_on_c, 0, 53, 68
2, 59064, Note_on_c, 0, 65, 66
2, 59068, Note_on_c, 0, 44, 86
2, 59068, Note_on_c, 0, 32, 80
2, 59075, Control_c, 0, 64, 127
2, 59092, Note_off_c, 0, 66, 64
2, 59116, Note_off_c, 0, 44, 64
2, 59127, Note_off_c, 0, 32, 64
2, 59202, Note_on_c, 0, 44, 73
2, 59205, Note_on_c, 0, 56, 78
2, 59233, Note_off_c, 0, 65, 64
2, 59233, Note_off_c, 0, 53, 64
2, 59263, Note_off_c, 0, 44, 64
2, 59278, Note_off_c, 0, 56, 64
2, 59288, Note_on_c, 0, 85, 91
2, 59288, Note_on_c, 0, 89, 89
2, 59296, Note_on_c, 0, 77, 82
2, 59340, Control_c, 0, 64, 0
2, 59355, Note_on_c, 0, 57, 81
2, 59358, Note_on_c, 0, 49, 68
2, 59362, Note_on_c, 0, 45, 63
2, 59387, Control_c, 0, 64, 127
2, 59408, Note_off_c, 0, 45, 64
2, 59414, Note_off_c, 0, 57, 64
2, 59417, Note_off_c, 0, 49, 64
2, 59511, Note_off_c, 0, 85, 64
2, 59514, Note_off_c, 0, 89, 64
2, 59521, Note_on_c, 0, 33, 75
2, 59522, Note_on_c, 0, 37, 80
2, 59528, Note_off_c, 0, 77, 64
2, 59531, Note_on_c, 0, 45, 76
2, 59573, Note_off_c, 0, 45, 64
2, 59574, Note_off_c, 0, 33, 64
2, 59580, Note_off_c, 0, 37, 64
2, 59607, Note_on_c, 0, 90, 96
2, 59613, Note_on_c, 0, 85, 96
2, 59616, Note_on_c, 0, 78, 96
2, 59650, Control_c, 0, 64, 0
2, 59686, Note_on_c, 0, 58, 85
2, 59689, Note_on_c, 0, 49, 85
2, 59695, Note_on_c, 0, 46, 72
2, 59712, Control_c, 0, 64, 127
2, 59739, Note_off_c, 0, 46, 64
2, 59742, Note_off_c, 0, 58, 64
2, 59743, Note_off_c, 0, 49, 64
2, 59810, Note_off_c, 0, 78, 64
2, 59815, Note_off_c, 0, 85, 64
2, 59822, Note_off_c, 0, 90, 64
2, 59828, Note_on_c, 0, 46, 64
2, 59830, Note_on_c, 0, 34, 80
2, 59833, Note_on_c, 0, 37, 80
2, 59878, Note_off_c, 0, 46, 64
2, 59890, Note_off_c, 0, 37, 64
2, 59894, Note_off_c, 0, 34, 64
2, 59906, Note_on_c, 0, 90, 88
2, 59914, Note_on_c, 0, 86, 82
2, 59914, Note_on_c, 0, 78, 88
2, 59973, Control_c, 0, 64, 0
2, 59996, Note_on_c, 0, 47, 76
2, 59997, Note_on_c, 0, 50, 88
2, 59998, Note_on_c, 0, 59, 86
2, 60021, Control_c, 0, 64, 127
2, 60029, Note_off_c, 0, 90, 64
2, 60037, Note_off_c, 0, 86, 64
2, 60050, Note_off_c, 0, 47, 64
2, 60055, Note_off_c, 0, 59, 64
2, 60059, Note_off_c, 0, 50, 64
2, 60063, Note_off_c, 0, 78, 64
2, 60144, Note_on_c, 0, 35, 76
2, 60148, Note_on_c, 0, 47, 65
2, 60149, Note_on_c, 0, 39, 69
2, 60198, Note_off_c, 0, 35, 64
2, 60204, Note_off_c, 0, 39, 64
2, 60204, Note_on_c, 0, 65, 84
2, 60219, Note_off_c, 0, 47, 64
2, 60244, Note_on_c, 0, 66, 65
2, 60258, Note_off_c, 0, 65, 64
2, 60274, Control_c, 0, 64, 0
2, 60279, Note_on_c, 0, 68, 75
2, 60287, Note_off_c, 0, 66, 64
2, 60294, Note_on_c, 0, 36, 71
2, 60299, Note_on_c, 0, 48, 67
2, 60302, Note_on_c, 0, 39, 66
2, 60304, Note_on_c, 0, 54, 84
2, 60308, Note_on_c, 0, 66, 84
2, 60330, Note_off_c, 0, 68, 64
2, 60340, Control_c, 0, 64, 127
2, 60363, Note_off_c, 0, 48, 64
2, 60363, Note_off_c, 0, 36, 64
2, 60370, Note_off_c, 0, 39, 64
2, 60442, Note_off_c, 0, 54, 64
2, 60446, Note_off_c, 0, 66, 64
2, 60459, Note_on_c, 0, 60, 66
2, 60460, Note_on_c, 0, 48, 61
2, 60460, Note_on_c, 0, 51, 68
2, 60518, Note_off_c, 0, 60, 64
2, 60521, Note_off_c, 0, 51, 64
2, 60536, Note_off_c, 0, 48, 64
2, 60537, Note_on_c, 0, 78, 99
2, 60540, Note_on_c, 0, 90, 101
2, 60546, Note_on_c, 0, 88, 101
2, 60608, Control_c, 0, 64, 0
2, 60618, Note_on_c, 0, 52, 92
2, 60618, Note_on_c, 0, 61, 93
2, 60625, Note_on_c, 0, 49, 78
2, 60670, Control_c, 0, 64, 127
2, 60690, Note_off_c, 0, 61, 64
2, 60694, Note_off_c, 0, 90, 64
2, 60697, Note_off_c, 0, 52, 64
2, 60700, Note_off_c, 0, 49, 64
2, 60710, Note_off_c, 0, 88, 64
2, 60732, Note_off_c, 0, 78, 64
2, 60772, Note_on_c, 0, 49, 84
2, 60777, Note_on_c, 0, 37, 80
2, 60779, Note_on_c, 0, 40, 78
2, 60823, Note_off_c, 0, 49, 64
2, 60827, Note_off_c, 0, 37, 64
2, 60835, Note_off_c, 0, 40, 64
2, 60849, Note_on_c, 0, 65, 64
2, 60876, Note_on_c, 0, 66, 64
2, 60895, Note_off_c, 0, 65, 64
2, 60914, Note_on_c, 0, 68, 76
2, 60914, Control_c, 0, 64, 0
2, 60915, Note_off_c, 0, 66, 64
2, 60936, Note_on_c, 0, 54, 64
2, 60936, Note_on_c, 0, 38, 76
2, 60936, Note_on_c, 0, 41, 73
2, 60939, Note_on_c, 0, 50, 75
2, 60947, Note_on_c, 0, 66, 75
2, 60965, Control_c, 0, 64, 127
2, 60986, Note_off_c, 0, 68, 64
2, 60990, Note_off_c, 0, 50, 64
2, 60999, Note_off_c, 0, 38, 64
2, 61006, Note_off_c, 0, 41, 64
2, 61079, Note_on_c, 0, 53, 69
2, 61083, Note_off_c, 0, 54, 64
2, 61085, Note_off_c, 0, 66, 64
2, 61085, Note_on_c, 0, 50, 71
2, 61087, Note_on_c, 0, 62, 76
2, 61125, Note_off_c, 0, 50, 64
2, 61137, Note_off_c, 0, 62, 64
2, 61147, Note_off_c, 0, 53, 64
2, 61147, Note_on_c, 0, 90, 86
2, 61153, Note_on_c, 0, 78, 94
2, 61155, Note_on_c, 0, 83, 88
2, 61207, Control_c, 0, 64, 0
2, 61236, Note_on_c, 0, 59, 67
2, 61236, Note_on_c, 0, 63, 73
2, 61240, Note_on_c, 0, 51, 69
2, 61240, Note_on_c, 0, 54, 63
2, 61276, Control_c, 0, 64, 127
2, 61307, Note_off_c, 0, 63, 64
2, 61310, Note_off_c, 0, 54, 64
2, 61318, Note_off_c, 0, 83, 64
2, 61332, Note_off_c, 0, 51, 64
2, 61343, Note_off_c, 0, 59, 64
2, 61353, Note_off_c, 0, 78, 64
2, 61364, Note_off_c, 0, 90, 64
2, 61390, Note_on_c, 0, 39, 80
2, 61392, Note_on_c, 0, 51, 73
2, 61446, Note_off_c, 0, 51, 64
2, 61450, Note_off_c, 0, 39, 64
2, 61456, Note_on_c, 0, 82, 94
2, 61462, Note_on_c, 0, 79, 92
2, 61462, Note_on_c, 0, 88, 82
2, 61467, Note_on_c, 0, 91, 78
2, 61520, Control_c, 0, 64, 0
2, 61548, Control_c, 0, 64, 127
2, 61550, Note_on_c, 0, 61, 75
2, 61552, Note_on_c, 0, 49, 75
2, 61552, Note_on_c, 0, 52, 75
2, 61555, Note_on_c, 0, 58, 75
2, 61580, Control_c, 0, 64, 127
2, 61593, Note_off_c, 0, 61, 64
2, 61598, Note_off_c, 0, 58, 64
2, 61607, Note_off_c, 0, 52, 64
2, 61607, Note_off_c, 0, 49, 64
2, 61659, Note_off_c, 0, 88, 64
2, 61663, Note_off_c, 0, 82, 64
2, 61667, Note_off_c, 0, 91, 64
2, 61674, Note_off_c, 0, 79, 64
2, 61712, Note_on_c, 0, 39, 91
2, 61712, Control_c, 0, 64, 127
2, 61716, Note_on_c, 0, 49, 91
2, 61767, Note_off_c, 0, 39, 64
2, 61771, Note_off_c, 0, 49, 64
2, 61788, Note_on_c, 0, 84, 84
2, 61790, Note_on_c, 0, 81, 85
2, 61790, Note_on_c, 0, 93, 84
2, 61792, Note_on_c, 0, 89, 84
2, 61848, Control_c, 0, 64, 0
2, 61868, Note_on_c, 0, 53, 93
2, 61868, Note_on_c, 0, 57, 86
2, 61868, Control_c, 0, 64, 127
2, 61872, Note_on_c, 0, 60, 84
2, 61875, Note_on_c, 0, 48, 85
2, 61898, Control_c, 0, 64, 127
2, 61913, Note_off_c, 0, 60, 64
2, 61918, Note_off_c, 0, 57, 64
2, 61923, Note_off_c, 0, 53, 64
2, 61925, Note_off_c, 0, 48, 64
2, 62006, Note_off_c, 0, 81, 64
2, 62018, Note_off_c, 0, 84, 64
2, 62021, Note_on_c, 0, 48, 95
2, 62022, Note_off_c, 0, 89, 64
2, 62024, Note_off_c, 0, 93, 64
2, 62025, Note_on_c, 0, 36, 95
2, 62086, Note_off_c, 0, 48, 64
2, 62090, Note_off_c, 0, 36, 64
2, 62108, Note_on_c, 0, 96, 92
2, 62112, Note_on_c, 0, 89, 96
2, 62116, Note_on_c, 0, 84, 88
2, 62193, Note_on_c, 0, 57, 81
2, 62196, Note_on_c, 0, 45, 93
2, 62196, Note_on_c, 0, 53, 97
2, 62200, Note_on_c, 0, 48, 29
2, 62242, Note_off_c, 0, 53, 64
2, 62244, Note_off_c, 0, 57, 64
2, 62249, Note_off_c, 0, 45, 64
2, 62251, Note_off_c, 0, 48, 64
2, 62301, Note_off_c, 0, 89, 64
2, 62306, Note_off_c, 0, 96, 64
2, 62335, Note_on_c, 0, 33, 91
2, 62341, Note_on_c, 0, 45, 85
2, 62346, Note_off_c, 0, 84, 64
2, 62368, Note_off_c, 0, 45, 64
2, 62385, Note_off_c, 0, 33, 64
2, 62436, Note_on_c, 0, 93, 76
2, 62436, Note_on_c, 0, 101, 77
2, 62437, Note_on_c, 0, 89, 80
2, 62496, Control_c, 0, 64, 0
2, 62530, Note_on_c, 0, 29, 101
2, 62530, Note_on_c, 0, 41, 101
2, 62565, Control_c, 0, 64, 127
2, 62661, Note_off_c, 0, 93, 64
2, 62704, Note_off_c, 0, 101, 64
2, 62714, Note_off_c, 0, 89, 64
2, 62770, Note_off_c, 0, 29, 64
2, 62776, Note_off_c, 0, 41, 64
2, 62862, Note_on_c, 0, 96, 68
2, 62879, Note_on_c, 0, 97, 76
2, 62904, Note_off_c, 0, 96, 64
2, 62914, Note_on_c, 0, 99, 82
2, 62930, Note_off_c, 0, 97, 64
2, 62943, Note_off_c, 0, 99, 64
2, 62943, Control_c, 0, 64, 0
2, 62953, Note_on_c, 0, 88, 80
2, 62956, Note_on_c, 0, 82, 88
2, 62957, Note_on_c, 0, 97, 84
2, 62961, Note_on_c, 0, 70, 68
2, 62978, Control_c, 0, 64, 127
2, 63005, Note_off_c, 0, 97, 64
2, 63006, Note_off_c, 0, 88, 64
2, 63171, Note_off_c, 0, 82, 64
2, 63190, Note_off_c, 0, 70, 64
2, 63285, Note_on_c, 0, 76, 64
2, 63329, Note_on_c, 0, 77, 80
2, 63356, Note_on_c, 0, 79, 64
2, 63361, Control_c, 0, 64, 0
2, 63384, Note_off_c, 0, 77, 64
2, 63386, Note_on_c, 0, 65, 75
2, 63391, Note_on_c, 0, 53, 76
2, 63392, Note_on_c, 0, 57, 72
2, 63393, Note_on_c, 0, 77, 80
2, 63400, Note_off_c, 0, 76, 64
2, 63415, Note_off_c, 0, 79, 64
2, 63425, Control_c, 0, 64, 127
2, 63479, Note_off_c, 0, 77, 64
2, 63650, Note_off_c, 0, 65, 64
2, 63657, Note_off_c, 0, 57, 64
2, 63672, Note_off_c, 0, 53, 64
2, 63685, Note_on_c, 0, 60, 65
2, 63704, Note_on_c, 0, 61, 77
2, 63727, Note_off_c, 0, 60, 64
2, 63740, Note_on_c, 0, 63, 80
2, 63756, Note_off_c, 0, 61, 64
2, 63764, Control_c, 0, 64, 0
2, 63773, Note_on_c, 0, 46, 66
2, 63773, Note_on_c, 0, 34, 73
2, 63779, Note_on_c, 0, 52, 69
2, 63782, Note_on_c, 0, 61, 80
2, 63804, Control_c, 0, 64, 127
2, 63810, Note_off_c, 0, 63, 64
2, 63831, Note_off_c, 0, 52, 64
2, 63832, Note_off_c, 0, 61, 64
2, 64066, Note_on_c, 0, 40, 101
2, 64078, Note_off_c, 0, 34, 64
2, 64082, Note_off_c, 0, 46, 64
2, 64098, Note_on_c, 0, 41, 88
2, 64119, Note_off_c, 0, 40, 64
2, 64125, Note_on_c, 0, 43, 101
2, 64149, Note_off_c, 0, 41, 64
2, 64166, Control_c, 0, 64, 0
2, 64174, Control_c, 0, 64, 0
2, 64180, Note_on_c, 0, 41, 101
2, 64180, Note_on_c, 0, 29, 101
2, 64187, Note_off_c, 0, 43, 64
2, 64264, Control_c, 0, 64, 127
2, 64568, Note_on_c, 0, 31, 49
2, 64571, Note_on_c, 0, 43, 58
2, 64572, Note_off_c, 0, 29, 64
2, 64572, Note_off_c, 0, 41, 64
2, 64614, Note_on_c, 0, 33, 36
2, 64617, Note_on_c, 0, 45, 50
2, 64633, Note_off_c, 0, 31, 64
2, 64636, Note_off_c, 0, 43, 64
2, 64647, Note_on_c, 0, 46, 63
2, 64648, Note_on_c, 0, 34, 59
2, 64658, Note_off_c, 0, 33, 64
2, 64667, Note_off_c, 0, 45, 64
2, 64696, Note_on_c, 0, 36, 67
2, 64699, Note_on_c, 0, 48, 76
2, 64712, Note_off_c, 0, 46, 64
2, 64713, Note_off_c, 0, 34, 64
2, 64737, Note_on_c, 0, 38, 58
2, 64738, Note_on_c, 0, 50, 74
2, 64754, Note_off_c, 0, 36, 64
2, 64757, Note_off_c, 0, 48, 64
2, 64761, Control_c, 0, 64, 0
2, 64772, Note_on_c, 0, 40, 52
2, 64772, Note_on_c, 0, 52, 60
2, 64790, Note_off_c, 0, 50, 64
2, 64792, Note_off_c, 0, 38, 64
2, 64816, Note_on_c, 0, 41, 70
2, 64819, Note_on_c, 0, 53, 79
2, 64830, Note_off_c, 0, 52, 64
2, 64830, Note_off_c, 0, 40, 64
2, 64858, Note_on_c, 0, 43, 60
2, 64860, Note_on_c, 0, 55, 75
2, 64867, Note_off_c, 0, 41, 64
2, 64887, Note_off_c, 0, 53, 64
2, 64889, Note_on_c, 0, 57, 64
2, 64890, Note_on_c, 0, 45, 62
2, 64901, Note_off_c, 0, 43, 64
2, 64902, Control_c, 0, 64, 127
2, 64921, Note_off_c, 0, 55, 64
2, 64922, Note_on_c, 0, 46, 72
2, 64922, Note_on_c, 0, 58, 76
2, 64939, Note_off_c, 0, 45, 64
2, 64940, Note_off_c, 0, 57, 64
2, 64962, Note_on_c, 0, 48, 4
2, 64964, Note_on_c, 0, 60, 83
2, 64979, Note_off_c, 0, 58, 64
2, 64979, Note_off_c, 0, 46, 64
2, 65000, Note_on_c, 0, 50, 30
2, 65002, Note_on_c, 0, 62, 79
2, 65008, Note_off_c, 0, 48, 64
2, 65029, Note_off_c, 0, 60, 64
2, 65038, Note_on_c, 0, 64, 80
2, 65038, Note_on_c, 0, 52, 28
2, 65054, Note_off_c, 0, 50, 64
2, 65056, Note_off_c, 0, 62, 64
2, 65084, Note_on_c, 0, 65, 86
2, 65084, Note_on_c, 0, 53, 63
2, 65092, Note_off_c, 0, 52, 64
2, 65092, Note_off_c, 0, 64, 64
2, 65124, Note_on_c, 0, 55, 76
2, 65126, Note_on_c, 0, 67, 76
2, 65144, Note_off_c, 0, 53, 64
2, 65144, Note_off_c, 0, 65, 64
2, 65155, Note_on_c, 0, 57, 69
2, 65157, Note_on_c, 0, 69, 69
2, 65174, Note_off_c, 0, 55, 64
2, 65176, Note_off_c, 0, 67, 64
2, 65184, Note_on_c, 0, 70, 88
2, 65184, Note_on_c, 0, 58, 88
2, 65189, Note_off_c, 0, 57, 64
2, 65191, Note_off_c, 0, 69, 64
2, 65216, Note_on_c, 0, 72, 82
2, 65216, Note_on_c, 0, 60, 68
2, 65238, Note_off_c, 0, 58, 64
2, 65238, Note_off_c, 0, 70, 64
2, 65242, Note_on_c, 0, 62, 54
2, 65243, Note_on_c, 0, 74, 89
2, 65264, Note_off_c, 0, 60, 64
2, 65264, Note_off_c, 0, 72, 64
2, 65273, Note_on_c, 0, 76, 72
2, 65274, Note_on_c, 0, 64, 75
2, 65290, Note_off_c, 0, 62, 64
2, 65291, Note_off_c, 0, 74, 64
2, 65294, Note_on_c, 0, 65, 96
2, 65295, Note_on_c, 0, 77, 116
2, 65303, Note_off_c, 0, 76, 64
2, 65304, Note_off_c, 0, 64, 64
2, 65349, Note_off_c, 0, 77, 64
2, 65350, Note_off_c, 0, 65, 64
2, 65495, Control_c, 0, 64, 0
2, 65778, Note_on_c, 0, 54, 96
2, 65780, Note_on_c, 0, 37, 92
2, 65780, Note_on_c, 0, 46, 101
2, 65781, Note_on_c, 0, 42, 101
2, 65781, Note_on_c, 0, 49, 88
2, 65782, Note_on_c, 0, 34, 92
2, 65820, Control_c, 0, 64, 127
2, 66349, Note_off_c, 0, 46, 64
2, 66388, Note_off_c, 0, 42, 64
2, 66394, Note_on_c, 0, 44, 58
2, 66396, Note_on_c, 0, 56, 65
2, 66402, Note_off_c, 0, 54, 64
2, 66405, Note_off_c, 0, 49, 64
2, 66424, Note_off_c, 0, 37, 64
2, 66426, Note_off_c, 0, 34, 64
2, 66446, Note_on_c, 0, 58, 58
2, 66452, Note_off_c, 0, 44, 64
2, 66452, Note_on_c, 0, 46, 62
2, 66454, Note_off_c, 0, 56, 64
2, 66504, Note_off_c, 0, 58, 64
2, 66510, Note_off_c, 0, 46, 64
2, 66517, Note_on_c, 0, 59, 68
2, 66518, Note_on_c, 0, 47, 69
2, 66558, Note_on_c, 0, 49, 68
2, 66558, Note_on_c, 0, 61, 73
2, 66564, Note_off_c, 0, 59, 64
2, 66565, Note_off_c, 0, 47, 64
2, 66590, Note_on_c, 0, 51, 31
2, 66592, Note_on_c, 0, 63, 70
2, 66598, Note_off_c, 0, 49, 64
2, 66600, Control_c, 0, 64, 0
2, 66609, Note_off_c, 0, 61, 64
2, 66648, Note_off_c, 0, 51, 64
2, 66648, Note_on_c, 0, 53, 60
2, 66648, Note_on_c, 0, 65, 74
2, 66650, Note_off_c, 0, 63, 64
2, 66689, Note_on_c, 0, 54, 69
2, 66690, Note_on_c, 0, 66, 77
2, 66702, Note_off_c, 0, 65, 64
2, 66702, Note_off_c, 0, 53, 64
2, 66720, Note_on_c, 0, 56, 52
2, 66720, Note_on_c, 0, 68, 72
2, 66743, Note_off_c, 0, 66, 64
2, 66746, Note_off_c, 0, 54, 64
2, 66754, Note_on_c, 0, 58, 79
2, 66755, Note_on_c, 0, 70, 80
2, 66774, Note_off_c, 0, 56, 64
2, 66775, Note_off_c, 0, 68, 64
2, 66798, Note_on_c, 0, 59, 33
2, 66799, Note_on_c, 0, 71, 70
2, 66808, Note_off_c, 0, 58, 64
2, 66809, Note_off_c, 0, 70, 64
2, 66844, Note_on_c, 0, 73, 81
2, 66848, Note_on_c, 0, 61, 44
2, 66850, Note_off_c, 0, 59, 64
2, 66851, Note_off_c, 0, 71, 64
2, 66878, Note_on_c, 0, 75, 86
2, 66882, Note_on_c, 0, 63, 34
2, 66890, Control_c, 0, 64, 127
2, 66896, Note_off_c, 0, 73, 64
2, 66900, Note_off_c, 0, 61, 64
2, 66928, Note_on_c, 0, 65, 36
2, 66929, Note_on_c, 0, 77, 84
2, 66930, Note_off_c, 0, 75, 64
2, 66934, Note_off_c, 0, 63, 64
2, 66969, Note_on_c, 0, 78, 80
2, 66970, Note_on_c, 0, 66, 77
2, 66978, Note_off_c, 0, 65, 64
2, 66979, Note_off_c, 0, 77, 64
2, 67002, Note_on_c, 0, 80, 74
2, 67004, Note_on_c, 0, 68, 35
2, 67018, Note_off_c, 0, 78, 64
2, 67021, Note_off_c, 0, 66, 64
2, 67030, Note_on_c, 0, 82, 84
2, 67037, Note_on_c, 0, 70, 40
2, 67049, Note_off_c, 0, 80, 64
2, 67052, Note_off_c, 0, 68, 64
2, 67064, Note_on_c, 0, 71, 76
2, 67064, Note_on_c, 0, 83, 88
2, 67078, Note_off_c, 0, 82, 64
2, 67085, Note_off_c, 0, 70, 64
2, 67098, Note_on_c, 0, 72, 34
2, 67098, Note_on_c, 0, 85, 71
2, 67122, Note_off_c, 0, 83, 64
2, 67122, Note_off_c, 0, 71, 64
2, 67142, Note_on_c, 0, 75, 89
2, 67142, Note_on_c, 0, 87, 77
2, 67173, Note_off_c, 0, 85, 64
2, 67173, Note_off_c, 0, 72, 64
2, 67182, Note_on_c, 0, 77, 68
2, 67182, Note_on_c, 0, 89, 80
2, 67212, Note_off_c, 0, 87, 64
2, 67212, Note_off_c, 0, 75, 64
2, 67220, Note_on_c, 0, 78, 101
2, 67220, Note_on_c, 0, 90, 82
2, 67220, Note_on_c, 0, 66, 92
2, 67234, Note_off_c, 0, 89, 64
2, 67234, Note_off_c, 0, 77, 64
2, 67285, Note_off_c, 0, 66, 64
2, 67297, Control_c, 0, 64, 0
2, 67306, Note_off_c, 0, 90, 64
2, 67424, Control_c, 0, 64, 127
2, 68105, Note_on_c, 0, 73, 50
2, 68116, Note_off_c, 0, 78, 64
2, 68123, Control_c, 0, 64, 0
2, 68128, Note_on_c, 0, 74, 55
2, 68136, Note_off_c, 0, 73, 64
2, 68158, Note_on_c, 0, 76, 56
2, 68167, Note_off_c, 0, 74, 64
2, 68202, Note_on_c, 0, 65, 32
2, 68205, Note_on_c, 0, 74, 66
2, 68243, Note_off_c, 0, 76, 64
2, 68270, Control_c, 0, 64, 127
2, 68281, Note_on_c, 0, 59, 35
2, 68284, Note_on_c, 0, 47, 31
2, 68360, Note_on_c, 0, 56, 53
2, 68377, Note_off_c, 0, 74, 64
2, 68389, Note_off_c, 0, 47, 64
2, 68408, Note_off_c, 0, 59, 64
2, 68416, Note_on_c, 0, 71, 50
2, 68424, Note_on_c, 0, 53, 49
2, 68435, Note_off_c, 0, 65, 64
2, 68456, Note_off_c, 0, 53, 64
2, 68463, Note_off_c, 0, 56, 64
2, 68504, Note_on_c, 0, 64, 62
2, 68506, Note_on_c, 0, 70, 71
2, 68509, Note_off_c, 0, 71, 64
2, 68573, Control_c, 0, 64, 0
2, 68589, Note_on_c, 0, 54, 44
2, 68592, Note_on_c, 0, 42, 41
2, 68644, Control_c, 0, 64, 127
2, 68665, Note_on_c, 0, 49, 50
2, 68697, Note_off_c, 0, 42, 64
2, 68716, Note_off_c, 0, 54, 64
2, 68748, Note_on_c, 0, 46, 52
2, 68752, Note_on_c, 0, 73, 64
2, 68759, Note_off_c, 0, 49, 64
2, 68785, Note_off_c, 0, 70, 64
2, 68790, Note_off_c, 0, 64, 64
2, 68791, Note_off_c, 0, 46, 64
2, 68845, Note_off_c, 0, 73, 64
2, 68852, Note_on_c, 0, 66, 75
2, 68856, Note_on_c, 0, 62, 66
2, 68893, Control_c, 0, 64, 0
2, 68940, Note_on_c, 0, 35, 52
2, 68951, Note_on_c, 0, 47, 52
2, 68971, Control_c, 0, 64, 127
2, 69011, Note_on_c, 0, 42, 52
2, 69046, Note_off_c, 0, 35, 64
2, 69057, Note_off_c, 0, 47, 64
2, 69061, Note_off_c, 0, 62, 64
2, 69095, Note_on_c, 0, 68, 59
2, 69104, Note_on_c, 0, 38, 62
2, 69114, Note_off_c, 0, 42, 64
2, 69125, Note_off_c, 0, 66, 64
2, 69147, Note_off_c, 0, 38, 64
2, 69170, Note_off_c, 0, 68, 64
2, 69178, Note_on_c, 0, 70, 72
2, 69180, Note_on_c, 0, 61, 72
2, 69194, Control_c, 0, 64, 0
2, 69247, Note_on_c, 0, 30, 64
2, 69251, Note_on_c, 0, 42, 64
2, 69271, Control_c, 0, 64, 127
2, 69307, Note_off_c, 0, 61, 64
2, 69344, Note_on_c, 0, 37, 58
2, 69364, Note_off_c, 0, 30, 64
2, 69368, Note_off_c, 0, 42, 64
2, 69412, Note_off_c, 0, 70, 64
2, 69412, Note_on_c, 0, 34, 47
2, 69420, Note_off_c, 0, 37, 64
2, 69426, Note_on_c, 0, 66, 64
2, 69458, Note_off_c, 0, 34, 64
2, 69504, Note_on_c, 0, 73, 60
2, 69504, Note_on_c, 0, 64, 41
2, 69512, Note_off_c, 0, 66, 64
2, 69512, Note_on_c, 0, 76, 58
2, 69517, Control_c, 0, 64, 0
2, 69571, Control_c, 0, 64, 127
2, 69583, Note_on_c, 0, 66, 68
2, 69588, Note_on_c, 0, 47, 54
2, 69591, Note_off_c, 0, 76, 64
2, 69592, Note_on_c, 0, 35, 64
2, 69594, Note_off_c, 0, 73, 64
2, 69618, Note_off_c, 0, 64, 64
2, 69647, Note_on_c, 0, 42, 48
2, 69663, Note_off_c, 0, 66, 64
2, 69670, Note_on_c, 0, 71, 58
2, 69671, Note_on_c, 0, 74, 59
2, 69671, Note_on_c, 0, 62, 68
2, 69690, Note_off_c, 0, 47, 64
2, 69709, Note_off_c, 0, 35, 64
2, 69723, Note_off_c, 0, 62, 64
2, 69743, Note_off_c, 0, 74, 64
2, 69744, Note_on_c, 0, 66, 69
2, 69755, Note_off_c, 0, 71, 64
2, 69758, Note_off_c, 0, 42, 64
2, 69761, Note_on_c, 0, 38, 28
2, 69782, Note_off_c, 0, 38, 64
2, 69808, Note_off_c, 0, 66, 64
2, 69817, Control_c, 0, 64, 0
2, 69837, Note_on_c, 0, 70, 60
2, 69837, Note_on_c, 0, 73, 68
2, 69837, Note_on_c, 0, 61, 71
2, 69898, Control_c, 0, 64, 127
2, 69905, Note_on_c, 0, 42, 64
2, 69907, Note_on_c, 0, 54, 64
2, 69964, Note_off_c, 0, 61, 64
2, 69984, Note_on_c, 0, 49, 52
2, 70020, Note_off_c, 0, 42, 64
2, 70024, Note_off_c, 0, 54, 64
2, 70068, Note_on_c, 0, 46, 49
2, 70072, Note_off_c, 0, 49, 64
2, 70078, Note_on_c, 0, 66, 54
2, 70092, Note_off_c, 0, 73, 64
2, 70092, Note_off_c, 0, 70, 64
2, 70107, Note_off_c, 0, 46, 64
2, 70109, Note_off_c, 0, 66, 64
2, 70148, Control_c, 0, 64, 0
2, 70170, Note_on_c, 0, 79, 68
2, 70176, Note_on_c, 0, 67, 68
2, 70176, Note_on_c, 0, 76, 47
2, 70223, Control_c, 0, 64, 127
2, 70251, Note_on_c, 0, 71, 54
2, 70254, Note_on_c, 0, 52, 49
2, 70255, Note_on_c, 0, 40, 64
2, 70260, Note_off_c, 0, 76, 64
2, 70261, Note_off_c, 0, 79, 64
2, 70265, Note_off_c, 0, 67, 64
2, 70306, Note_off_c, 0, 71, 64
2, 70332, Note_on_c, 0, 47, 53
2, 70344, Note_on_c, 0, 76, 24
2, 70344, Note_on_c, 0, 64, 63
2, 70348, Note_on_c, 0, 73, 68
2, 70368, Note_off_c, 0, 52, 64
2, 70372, Note_off_c, 0, 40, 64
2, 70407, Note_on_c, 0, 43, 48
2, 70413, Note_on_c, 0, 71, 59
2, 70420, Note_off_c, 0, 47, 64
2, 70435, Note_off_c, 0, 64, 64
2, 70441, Note_off_c, 0, 43, 64
2, 70443, Note_off_c, 0, 73, 64
2, 70447, Note_off_c, 0, 71, 64
2, 70469, Note_off_c, 0, 76, 64
2, 70472, Control_c, 0, 64, 0
2, 70502, Note_on_c, 0, 42, 94
2, 70507, Note_on_c, 0, 54, 86
2, 70509, Note_on_c, 0, 70, 93
2, 70509, Note_on_c, 0, 73, 84
2, 70514, Note_on_c, 0, 61, 84
2, 70547, Control_c, 0, 64, 127
2, 70561, Note_off_c, 0, 70, 64
2, 70576, Note_off_c, 0, 73, 64
2, 70581, Note_off_c, 0, 61, 64
2, 70620, Note_off_c, 0, 54, 64
2, 70620, Note_off_c, 0, 42, 64
2, 70720, Note_on_c, 0, 66, 66
2, 70720, Note_on_c, 0, 70, 66
2, 70720, Note_on_c, 0, 78, 66
2, 70724, Note_on_c, 0, 73, 66
2, 70755, Note_on_c, 0, 49, 80
2, 70792, Note_on_c, 0, 50, 84
2, 70820, Note_off_c, 0, 70, 64
2, 70820, Note_on_c, 0, 52, 96
2, 70823, Note_off_c, 0, 49, 64
2, 70824, Note_off_c, 0, 73, 64
2, 70850, Note_off_c, 0, 66, 64
2, 70853, Note_off_c, 0, 50, 64
2, 70876, Control_c, 0, 64, 0
2, 70886, Note_off_c, 0, 78, 64
2, 70896, Note_on_c, 0, 50, 84
2, 70901, Note_on_c, 0, 38, 86
2, 70913, Note_off_c, 0, 52, 64
2, 70947, Control_c, 0, 64, 127
2, 71046, Note_on_c, 0, 66, 72
2, 71050, Note_on_c, 0, 78, 52
2, 71053, Note_on_c, 0, 71, 64
2, 71058, Note_on_c, 0, 74, 62
2, 71099, Note_off_c, 0, 74, 64
2, 71099, Note_off_c, 0, 71, 64
2, 71100, Note_off_c, 0, 78, 64
2, 71120, Note_off_c, 0, 50, 64
2, 71125, Note_off_c, 0, 38, 64
2, 71130, Note_on_c, 0, 35, 78
2, 71134, Note_on_c, 0, 47, 78
2, 71137, Note_off_c, 0, 66, 64
2, 71176, Control_c, 0, 64, 0
2, 71180, Control_c, 0, 64, 0
2, 71189, Note_off_c, 0, 35, 64
2, 71193, Note_off_c, 0, 47, 64
2, 71213, Note_on_c, 0, 34, 86
2, 71217, Note_on_c, 0, 46, 86
2, 71244, Control_c, 0, 64, 127
2, 71248, Control_c, 0, 64, 127
2, 71300, Note_on_c, 0, 64, 78
2, 71300, Note_on_c, 0, 73, 73
2, 71372, Note_on_c, 0, 66, 86
2, 71374, Note_on_c, 0, 74, 59
2, 71384, Note_off_c, 0, 73, 64
2, 71403, Note_off_c, 0, 64, 64
2, 71418, Note_off_c, 0, 34, 64
2, 71422, Note_off_c, 0, 46, 64
2, 71444, Note_on_c, 0, 46, 63
2, 71447, Note_off_c, 0, 66, 64
2, 71448, Note_on_c, 0, 49, 63
2, 71448, Note_on_c, 0, 54, 63
2, 71450, Note_on_c, 0, 76, 76
2, 71452, Note_on_c, 0, 67, 70
2, 71455, Note_off_c, 0, 74, 64
2, 71457, Control_c, 0, 64, 0
2, 71461, Control_c, 0, 64, 0
2, 71481, Control_c, 0, 64, 0
2, 71496, Note_off_c, 0, 46, 64
2, 71500, Note_off_c, 0, 54, 64
2, 71502, Note_off_c, 0, 49, 64
2, 71507, Note_off_c, 0, 76, 64
2, 71515, Note_off_c, 0, 67, 64
2, 71525, Note_on_c, 0, 35, 96
2, 71529, Note_on_c, 0, 47, 96
2, 71561, Control_c, 0, 64, 127
2, 71604, Note_on_c, 0, 66, 80
2, 71608, Note_on_c, 0, 74, 64
2, 71671, Note_off_c, 0, 66, 64
2, 71672, Note_on_c, 0, 61, 86
2, 71672, Note_on_c, 0, 70, 77
2, 71673, Note_off_c, 0, 74, 64
2, 71702, Note_off_c, 0, 35, 64
2, 71706, Note_off_c, 0, 47, 64
2, 71753, Note_on_c, 0, 47, 72
2, 71756, Note_off_c, 0, 61, 64
2, 71756, Note_on_c, 0, 53, 63
2, 71757, Note_on_c, 0, 71, 78
2, 71757, Note_on_c, 0, 62, 68
2, 71760, Note_on_c, 0, 56, 58
2, 71762, Note_off_c, 0, 70, 64
2, 71799, Note_off_c, 0, 62, 64
2, 71800, Note_off_c, 0, 56, 64
2, 71801, Note_off_c, 0, 53, 64
2, 71806, Note_off_c, 0, 47, 64
2, 71820, Note_off_c, 0, 71, 64
2, 71820, Control_c, 0, 64, 0
2, 71846, Note_on_c, 0, 30, 101
2, 71852, Note_on_c, 0, 42, 101
2, 71899, Control_c, 0, 64, 127
2, 71912, Note_on_c, 0, 70, 71
2, 71916, Note_on_c, 0, 61, 68
2, 71916, Note_on_c, 0, 73, 73
2, 71963, Note_off_c, 0, 70, 64
2, 71977, Note_off_c, 0, 73, 64
2, 71977, Note_off_c, 0, 61, 64
2, 72006, Note_on_c, 0, 65, 71
2, 72021, Note_off_c, 0, 30, 64
2, 72027, Note_off_c, 0, 42, 64
2, 72074, Note_on_c, 0, 66, 82
2, 72081, Note_on_c, 0, 34, 71
2, 72096, Note_off_c, 0, 65, 64
2, 72111, Note_off_c, 0, 66, 64
2, 72124, Control_c, 0, 64, 0
2, 72129, Note_off_c, 0, 34, 64
2, 72152, Note_on_c, 0, 47, 81
2, 72155, Note_on_c, 0, 35, 64
2, 72203, Control_c, 0, 64, 127
2, 72240, Note_on_c, 0, 67, 73
2, 72241, Note_on_c, 0, 79, 61
2, 72243, Note_on_c, 0, 74, 68
2, 72302, Note_off_c, 0, 35, 64
2, 72307, Note_off_c, 0, 67, 64
2, 72315, Note_off_c, 0, 74, 64
2, 72315, Note_off_c, 0, 79, 64
2, 72317, Note_on_c, 0, 71, 75
2, 72358, Note_off_c, 0, 47, 64
2, 72384, Note_on_c, 0, 78, 76
2, 72385, Note_on_c, 0, 74, 73
2, 72391, Note_on_c, 0, 38, 72
2, 72395, Note_off_c, 0, 71, 64
2, 72395, Note_on_c, 0, 66, 80
2, 72414, Note_off_c, 0, 74, 64
2, 72417, Note_off_c, 0, 78, 64
2, 72421, Note_off_c, 0, 66, 64
2, 72432, Note_off_c, 0, 38, 64
2, 72438, Control_c, 0, 64, 0
2, 72468, Note_on_c, 0, 42, 86
2, 72470, Note_on_c, 0, 54, 93
2, 72519, Control_c, 0, 64, 127
2, 72536, Note_on_c, 0, 61, 67
2, 72536, Note_on_c, 0, 70, 67
2, 72536, Note_on_c, 0, 73, 71
2, 72595, Note_off_c, 0, 70, 64
2, 72595, Note_off_c, 0, 61, 64
2, 72609, Note_off_c, 0, 73, 64
2, 72627, Note_on_c, 0, 65, 64
2, 72648, Note_off_c, 0, 54, 64
2, 72688, Note_off_c, 0, 42, 64
2, 72688, Note_on_c, 0, 46, 62
2, 72688, Note_on_c, 0, 66, 73
2, 72710, Note_off_c, 0, 65, 64
2, 72719, Control_c, 0, 64, 0
2, 72724, Note_off_c, 0, 66, 64
2, 72760, Note_off_c, 0, 46, 64
2, 72762, Note_on_c, 0, 40, 84
2, 72767, Note_on_c, 0, 47, 69
2, 72788, Control_c, 0, 64, 127
2, 72848, Note_on_c, 0, 59, 76
2, 72852, Note_on_c, 0, 79, 84
2, 72852, Note_on_c, 0, 83, 77
2, 72852, Note_on_c, 0, 71, 84
2, 72895, Note_off_c, 0, 40, 64
2, 72904, Note_off_c, 0, 47, 64
2, 72941, Note_off_c, 0, 59, 64
2, 72944, Note_on_c, 0, 55, 58
2, 72944, Note_on_c, 0, 73, 58
2, 72955, Note_off_c, 0, 71, 64
2, 72965, Note_off_c, 0, 79, 64
2, 72975, Note_off_c, 0, 83, 64
2, 72977, Note_off_c, 0, 73, 64
2, 73005, Note_on_c, 0, 52, 65
2, 73012, Note_on_c, 0, 67, 68
2, 73012, Note_on_c, 0, 76, 56
2, 73012, Note_on_c, 0, 79, 56
2, 73026, Note_off_c, 0, 55, 64
2, 73054, Note_off_c, 0, 52, 64
2, 73069, Note_off_c, 0, 67, 64
2, 73071, Note_off_c, 0, 79, 64
2, 73071, Note_off_c, 0, 76, 64
2, 73079, Control_c, 0, 64, 0
2, 73094, Note_on_c, 0, 45, 80
2, 73094, Note_on_c, 0, 57, 92
2, 73099, Note_on_c, 0, 64, 101
2, 73100, Note_on_c, 0, 76, 80
2, 73105, Note_on_c, 0, 73, 101
2, 73147, Control_c, 0, 64, 127
2, 73175, Note_off_c, 0, 73, 64
2, 73177, Note_off_c, 0, 64, 64
2, 73185, Note_off_c, 0, 76, 64
2, 73252, Note_on_c, 0, 73, 78
2, 73255, Note_on_c, 0, 69, 69
2, 73256, Note_on_c, 0, 81, 75
2, 73256, Note_on_c, 0, 76, 78
2, 73277, Note_on_c, 0, 52, 48
2, 73307, Note_off_c, 0, 57, 64
2, 73307, Note_off_c, 0, 45, 64
2, 73315, Note_on_c, 0, 54, 81
2, 73336, Note_on_c, 0, 55, 80
2, 73344, Note_off_c, 0, 52, 64
2, 73360, Note_off_c, 0, 54, 64
2, 73367, Note_off_c, 0, 55, 64
2, 73399, Note_off_c, 0, 69, 64
2, 73400, Control_c, 0, 64, 0
2, 73402, Note_off_c, 0, 73, 64
2, 73405, Note_off_c, 0, 81, 64
2, 73406, Note_off_c, 0, 76, 64
2, 73407, Note_on_c, 0, 54, 96
2, 73415, Note_on_c, 0, 42, 92
2, 73460, Control_c, 0, 64, 127
2, 73561, Note_on_c, 0, 70, 80
2, 73564, Note_on_c, 0, 82, 76
2, 73567, Note_on_c, 0, 73, 81
2, 73574, Note_on_c, 0, 78, 65
2, 73601, Note_off_c, 0, 42, 64
2, 73603, Note_off_c, 0, 54, 64
2, 73640, Note_on_c, 0, 40, 87
2, 73643, Note_on_c, 0, 52, 87
2, 73696, Note_off_c, 0, 40, 64
2, 73699, Note_off_c, 0, 52, 64
2, 73699, Control_c, 0, 64, 0
2, 73717, Note_on_c, 0, 38, 94
2, 73721, Note_off_c, 0, 78, 64
2, 73722, Note_on_c, 0, 50, 90
2, 73733, Note_off_c, 0, 82, 64
2, 73740, Note_off_c, 0, 73, 64
2, 73743, Note_off_c, 0, 70, 64
2, 73768, Control_c, 0, 64, 127
2, 73876, Note_on_c, 0, 78, 77
2, 73883, Note_on_c, 0, 71, 72
2, 73883, Note_on_c, 0, 83, 86
2, 73884, Note_on_c, 0, 74, 87
2, 73911, Note_on_c, 0, 46, 78
2, 73930, Note_off_c, 0, 38, 64
2, 73934, Note_on_c, 0, 47, 73
2, 73935, Note_off_c, 0, 50, 64
2, 73972, Note_on_c, 0, 49, 100
2, 73976, Note_off_c, 0, 46, 64
2, 73987, Note_off_c, 0, 47, 64
2, 74002, Note_off_c, 0, 49, 64
2, 74010, Control_c, 0, 64, 0
2, 74020, Note_off_c, 0, 78, 64
2, 74022, Note_off_c, 0, 74, 64
2, 74026, Note_on_c, 0, 35, 101
2, 74026, Note_on_c, 0, 47, 101
2, 74027, Note_off_c, 0, 71, 64
2, 74045, Note_off_c, 0, 83, 64
2, 74077, Control_c, 0, 64, 127
2, 74172, Note_on_c, 0, 83, 80
2, 74175, Note_on_c, 0, 78, 84
2, 74175, Note_on_c, 0, 74, 80
2, 74176, Note_on_c, 0, 86, 79
2, 74268, Note_off_c, 0, 47, 64
2, 74268, Note_off_c, 0, 35, 64
2, 74272, Note_on_c, 0, 33, 101
2, 74279, Note_on_c, 0, 45, 101
2, 74289, Control_c, 0, 64, 0
2, 74301, Control_c, 0, 64, 0
2, 74351, Control_c, 0, 64, 127
2, 74363, Control_c, 0, 64, 127
2, 74364, Note_on_c, 0, 31, 95
2, 74368, Note_on_c, 0, 43, 95
2, 74384, Note_off_c, 0, 33, 64
2, 74387, Note_off_c, 0, 74, 64
2, 74391, Note_off_c, 0, 45, 64
2, 74404, Note_off_c, 0, 86, 64
2, 74417, Note_off_c, 0, 78, 64
2, 74426, Note_off_c, 0, 83, 64
2, 74541, Note_on_c, 0, 83, 81
2, 74544, Note_on_c, 0, 90, 97
2, 74544, Note_on_c, 0, 95, 100
2, 74569, Note_off_c, 0, 31, 64
2, 74573, Note_off_c, 0, 43, 64
2, 74628, Note_off_c, 0, 95, 64
2, 74628, Note_on_c, 0, 54, 85
2, 74632, Note_on_c, 0, 50, 62
2, 74632, Note_on_c, 0, 59, 81
2, 74639, Note_off_c, 0, 90, 64
2, 74654, Note_off_c, 0, 83, 64
2, 74667, Note_off_c, 0, 59, 64
2, 74668, Note_off_c, 0, 50, 64
2, 74668, Note_off_c, 0, 54, 64
2, 74708, Note_on_c, 0, 91, 85
2, 74712, Note_on_c, 0, 79, 85
2, 74712, Note_on_c, 0, 83, 85
2, 74712, Note_on_c, 0, 49, 85
2, 74720, Note_on_c, 0, 37, 85
2, 74736, Control_c, 0, 64, 0
2, 74776, Note_off_c, 0, 79, 64
2, 74796, Note_off_c, 0, 83, 64
2, 74803, Control_c, 0, 64, 127
2, 74807, Note_off_c, 0, 91, 64
2, 74864, Note_off_c, 0, 49, 64
2, 74878, Note_off_c, 0, 37, 64
2, 74888, Note_on_c, 0, 88, 84
2, 74892, Note_on_c, 0, 79, 83
2, 74896, Note_on_c, 0, 76, 84
2, 74964, Note_on_c, 0, 55, 77
2, 74964, Note_on_c, 0, 52, 76
2, 74964, Note_on_c, 0, 59, 68
2, 74967, Note_off_c, 0, 76, 64
2, 74983, Note_off_c, 0, 79, 64
2, 74983, Note_off_c, 0, 88, 64
2, 74996, Note_off_c, 0, 59, 64
2, 75004, Note_off_c, 0, 55, 64
2, 75014, Note_off_c, 0, 52, 64
2, 75038, Control_c, 0, 64, 0
2, 75060, Control_c, 0, 64, 127
2, 75064, Note_on_c, 0, 34, 85
2, 75067, Note_on_c, 0, 78, 85
2, 75067, Note_on_c, 0, 90, 85
2, 75068, Note_on_c, 0, 46, 85
2, 75071, Note_on_c, 0, 85, 85
2, 75100, Control_c, 0, 64, 127
2, 75145, Note_off_c, 0, 78, 64
2, 75146, Note_off_c, 0, 85, 64
2, 75151, Note_off_c, 0, 90, 64
2, 75228, Note_on_c, 0, 74, 75
2, 75228, Note_on_c, 0, 86, 79
2, 75232, Note_on_c, 0, 78, 72
2, 75269, Note_off_c, 0, 34, 64
2, 75273, Note_off_c, 0, 46, 64
2, 75300, Note_on_c, 0, 58, 75
2, 75304, Note_on_c, 0, 50, 75
2, 75304, Note_on_c, 0, 54, 75
2, 75333, Note_off_c, 0, 86, 64
2, 75345, Note_off_c, 0, 74, 64
2, 75351, Note_off_c, 0, 78, 64
2, 75357, Control_c, 0, 64, 0
2, 75360, Note_off_c, 0, 54, 64
2, 75360, Note_off_c, 0, 50, 64
2, 75360, Note_off_c, 0, 58, 64
2, 75401, Note_on_c, 0, 82, 85
2, 75406, Note_on_c, 0, 38, 85
2, 75407, Note_on_c, 0, 78, 85
2, 75408, Note_on_c, 0, 70, 85
2, 75414, Note_on_c, 0, 50, 85
2, 75438, Control_c, 0, 64, 127
2, 75502, Note_off_c, 0, 78, 64
2, 75510, Note_off_c, 0, 82, 64
2, 75514, Note_off_c, 0, 70, 64
2, 75568, Note_on_c, 0, 71, 81
2, 75574, Note_on_c, 0, 78, 73
2, 75575, Note_off_c, 0, 38, 64
2, 75576, Note_on_c, 0, 83, 75
2, 75583, Note_off_c, 0, 50, 64
2, 75640, Note_on_c, 0, 50, 70
2, 75642, Note_on_c, 0, 54, 73
2, 75642, Note_on_c, 0, 59, 65
2, 75646, Note_off_c, 0, 83, 64
2, 75649, Note_off_c, 0, 71, 64
2, 75651, Note_off_c, 0, 78, 64
2, 75681, Note_off_c, 0, 59, 64
2, 75686, Note_off_c, 0, 50, 64
2, 75689, Note_off_c, 0, 54, 64
2, 75709, Control_c, 0, 64, 0
2, 75743, Note_on_c, 0, 43, 69
2, 75748, Note_on_c, 0, 55, 68
2, 75764, Control_c, 0, 64, 127
2, 75827, Note_on_c, 0, 79, 58
2, 75833, Note_on_c, 0, 67, 52
2, 75851, Note_off_c, 0, 55, 64
2, 75855, Note_off_c, 0, 67, 64
2, 75868, Note_off_c, 0, 79, 64
2, 75876, Note_off_c, 0, 43, 64
2, 75891, Note_on_c, 0, 42, 72
2, 75891, Note_on_c, 0, 54, 70
2, 75900, Note_on_c, 0, 66, 72
2, 75903, Note_on_c, 0, 78, 72
2, 75929, Note_off_c, 0, 66, 64
2, 75936, Note_off_c, 0, 54, 64
2, 75936, Note_off_c, 0, 42, 64
2, 75937, Note_off_c, 0, 78, 64
2, 75975, Control_c, 0, 64, 0
2, 75979, Note_on_c, 0, 65, 73
2, 75980, Note_on_c, 0, 41, 70
2, 75986, Note_on_c, 0, 53, 67
2, 75987, Note_on_c, 0, 77, 73
2, 76007, Note_off_c, 0, 65, 64
2, 76008, Note_off_c, 0, 77, 64
2, 76013, Note_off_c, 0, 53, 64
2, 76015, Note_off_c, 0, 41, 64
2, 76064, Note_on_c, 0, 42, 74
2, 76064, Note_on_c, 0, 54, 74
2, 76073, Control_c, 0, 64, 127
2, 76141, Note_on_c, 0, 66, 76
2, 76142, Note_on_c, 0, 78, 56
2, 76149, Note_off_c, 0, 42, 64
2, 76152, Note_off_c, 0, 54, 64
2, 76173, Note_off_c, 0, 66, 64
2, 76184, Note_off_c, 0, 78, 64
2, 76208, Note_on_c, 0, 44, 75
2, 76218, Note_on_c, 0, 56, 72
2, 76232, Note_on_c, 0, 68, 80
2, 76233, Note_on_c, 0, 80, 80
2, 76246, Note_off_c, 0, 56, 64
2, 76247, Note_off_c, 0, 44, 64
2, 76259, Note_off_c, 0, 80, 64
2, 76259, Note_off_c, 0, 68, 64
2, 76301, Note_on_c, 0, 46, 82
2, 76307, Note_on_c, 0, 70, 87
2, 76311, Note_on_c, 0, 58, 87
2, 76316, Note_on_c, 0, 82, 82
2, 76331, Control_c, 0, 64, 0
2, 76338, Note_off_c, 0, 70, 64
2, 76339, Note_off_c, 0, 46, 64
2, 76344, Note_off_c, 0, 82, 64
2, 76344, Note_off_c, 0, 58, 64
2, 76390, Note_on_c, 0, 59, 84
2, 76390, Note_on_c, 0, 47, 84
2, 76446, Control_c, 0, 64, 127
2, 76467, Note_on_c, 0, 71, 68
2, 76474, Note_on_c, 0, 83, 64
2, 76478, Note_off_c, 0, 59, 64
2, 76481, Note_off_c, 0, 47, 64
2, 76488, Note_off_c, 0, 71, 64
2, 76497, Note_off_c, 0, 83, 64
2, 76542, Note_on_c, 0, 49, 87
2, 76543, Note_on_c, 0, 61, 94
2, 76551, Note_on_c, 0, 73, 88
2, 76551, Note_on_c, 0, 85, 99
2, 76577, Note_off_c, 0, 73, 64
2, 76579, Note_off_c, 0, 49, 64
2, 76580, Note_off_c, 0, 61, 64
2, 76581, Note_off_c, 0, 85, 64
2, 76634, Note_on_c, 0, 74, 90
2, 76635, Note_on_c, 0, 62, 92
2, 76635, Note_on_c, 0, 86, 90
2, 76635, Note_on_c, 0, 50, 80
2, 76654, Control_c, 0, 64, 0
2, 76655, Note_off_c, 0, 74, 64
2, 76659, Note_off_c, 0, 86, 64
2, 76660, Note_off_c, 0, 50, 64
2, 76662, Note_off_c, 0, 62, 64
2, 76709, Note_on_c, 0, 52, 92
2, 76710, Note_on_c, 0, 64, 98
2, 76724, Control_c, 0, 64, 127
2, 76779, Note_on_c, 0, 76, 92
2, 76785, Note_on_c, 0, 88, 84
2, 76805, Note_off_c, 0, 76, 64
2, 76810, Note_off_c, 0, 88, 64
2, 76823, Note_off_c, 0, 64, 64
2, 76832, Note_off_c, 0, 52, 64
2, 76860, Note_on_c, 0, 66, 100
2, 76863, Note_on_c, 0, 54, 88
2, 76864, Note_on_c, 0, 78, 100
2, 76867, Note_on_c, 0, 90, 88
2, 76892, Note_off_c, 0, 54, 64
2, 76892, Note_off_c, 0, 66, 64
2, 76896, Note_off_c, 0, 90, 64
2, 76896, Note_off_c, 0, 78, 64
2, 76931, Note_on_c, 0, 55, 98
2, 76935, Note_on_c, 0, 79, 98
2, 76938, Note_on_c, 0, 67, 86
2, 76942, Note_on_c, 0, 91, 87
2, 76950, Note_off_c, 0, 91, 64
2, 76950, Note_off_c, 0, 67, 64
2, 76950, Note_off_c, 0, 79, 64
2, 76950, Note_off_c, 0, 55, 64
2, 76994, Note_on_c, 0, 48, 77
2, 77014, Control_c, 0, 64, 0
2, 77018, Control_c, 0, 64, 0
2, 77030, Note_on_c, 0, 54, 82
2, 77054, Note_on_c, 0, 57, 72
2, 77059, Note_off_c, 0, 48, 64
2, 77074, Control_c, 0, 64, 127
2, 77094, Note_on_c, 0, 63, 88
2, 77095, Note_off_c, 0, 54, 64
2, 77107, Note_off_c, 0, 57, 64
2, 77156, Note_on_c, 0, 81, 85
2, 77160, Note_on_c, 0, 69, 75
2, 77178, Note_off_c, 0, 69, 64
2, 77178, Note_off_c, 0, 81, 64
2, 77193, Note_off_c, 0, 63, 64
2, 77214, Note_on_c, 0, 62, 73
2, 77218, Note_on_c, 0, 59, 44
2, 77221, Note_on_c, 0, 79, 85
2, 77227, Note_on_c, 0, 67, 88
2, 77244, Note_off_c, 0, 67, 64
2, 77256, Note_off_c, 0, 79, 64
2, 77278, Note_off_c, 0, 59, 64
2, 77278, Note_on_c, 0, 57, 72
2, 77282, Note_on_c, 0, 60, 36
2, 77289, Note_off_c, 0, 62, 64
2, 77289, Note_on_c, 0, 66, 90
2, 77293, Note_on_c, 0, 78, 70
2, 77305, Note_on_c, 0, 47, 92
2, 77310, Note_off_c, 0, 57, 64
2, 77311, Note_off_c, 0, 60, 64
2, 77314, Note_off_c, 0, 66, 64
2, 77317, Note_off_c, 0, 78, 64
2, 77322, Control_c, 0, 64, 0
2, 77330, Note_on_c, 0, 50, 94
2, 77362, Note_on_c, 0, 55, 89
2, 77365, Note_off_c, 0, 47, 64
2, 77383, Control_c, 0, 64, 127
2, 77394, Note_on_c, 0, 62, 92
2, 77401, Note_off_c, 0, 50, 64
2, 77436, Note_on_c, 0, 67, 80
2, 77444, Note_off_c, 0, 55, 64
2, 77444, Note_on_c, 0, 79, 75
2, 77462, Note_off_c, 0, 67, 64
2, 77464, Note_off_c, 0, 79, 64
2, 77518, Note_on_c, 0, 57, 72
2, 77518, Note_on_c, 0, 69, 76
2, 77520, Note_on_c, 0, 81, 72
2, 77522, Note_on_c, 0, 60, 72
2, 77547, Note_off_c, 0, 69, 64
2, 77549, Note_off_c, 0, 81, 64
2, 77576, Note_off_c, 0, 62, 64
2, 77590, Note_on_c, 0, 55, 74
2, 77590, Note_on_c, 0, 59, 81
2, 77594, Note_on_c, 0, 71, 77
2, 77600, Note_on_c, 0, 83, 66
2, 77603, Note_off_c, 0, 57, 64
2, 77607, Note_off_c, 0, 60, 64
2, 77607, Control_c, 0, 64, 0
2, 77617, Note_off_c, 0, 71, 64
2, 77622, Note_off_c, 0, 83, 64
2, 77622, Note_on_c, 0, 51, 88
2, 77633, Note_off_c, 0, 59, 64
2, 77634, Note_off_c, 0, 55, 64
2, 77642, Note_on_c, 0, 55, 81
2, 77654, Note_on_c, 0, 60, 71
2, 77675, Control_c, 0, 64, 127
2, 77679, Note_off_c, 0, 51, 64
2, 77690, Note_on_c, 0, 67, 99
2, 77719, Note_off_c, 0, 55, 64
2, 77729, Note_on_c, 0, 72, 113
2, 77738, Note_off_c, 0, 60, 64
2, 77740, Note_on_c, 0, 84, 93
2, 77752, Note_off_c, 0, 84, 64
2, 77752, Note_off_c, 0, 72, 64
2, 77784, Note_off_c, 0, 67, 64
2, 77797, Note_on_c, 0, 62, 92
2, 77805, Note_on_c, 0, 65, 98
2, 77811, Note_on_c, 0, 86, 101
2, 77812, Note_on_c, 0, 74, 106
2, 77838, Note_off_c, 0, 74, 64
2, 77842, Note_off_c, 0, 86, 64
2, 77886, Note_off_c, 0, 62, 64
2, 77886, Note_on_c, 0, 63, 84
2, 77886, Note_on_c, 0, 60, 92
2, 77887, Note_off_c, 0, 65, 64
2, 77887, Note_on_c, 0, 87, 102
2, 77893, Note_on_c, 0, 75, 112
2, 77893, Control_c, 0, 64, 0
2, 77899, Note_on_c, 0, 56, 100
2, 77911, Note_off_c, 0, 75, 64
2, 77911, Note_off_c, 0, 63, 64
2, 77915, Note_off_c, 0, 60, 64
2, 77919, Note_off_c, 0, 87, 64
2, 77926, Note_on_c, 0, 60, 85
2, 77942, Note_on_c, 0, 65, 78
2, 77957, Control_c, 0, 64, 127
2, 77965, Note_on_c, 0, 72, 101
2, 77971, Note_off_c, 0, 56, 64
2, 78002, Note_off_c, 0, 60, 64
2, 78009, Note_on_c, 0, 77, 84
2, 78011, Note_off_c, 0, 65, 64
2, 78016, Note_on_c, 0, 89, 84
2, 78037, Note_off_c, 0, 77, 64
2, 78041, Note_off_c, 0, 89, 64
2, 78049, Note_off_c, 0, 72, 64
2, 78086, Note_on_c, 0, 70, 73
2, 78087, Note_on_c, 0, 67, 57
2, 78093, Note_on_c, 0, 91, 80
2, 78093, Note_on_c, 0, 79, 92
2, 78116, Note_off_c, 0, 79, 64
2, 78119, Note_off_c, 0, 91, 64
2, 78166, Note_on_c, 0, 65, 77
2, 78167, Note_on_c, 0, 92, 84
2, 78167, Note_on_c, 0, 80, 91
2, 78170, Note_on_c, 0, 68, 101
2, 78186, Note_off_c, 0, 92, 64
2, 78197, Note_off_c, 0, 80, 64
2, 78210, Note_off_c, 0, 67, 64
2, 78210, Note_off_c, 0, 70, 64
2, 78212, Note_off_c, 0, 68, 64
2, 78213, Note_off_c, 0, 65, 64
2, 78234, Control_c, 0, 64, 0
2, 78286, Note_on_c, 0, 48, 89
2, 78290, Note_on_c, 0, 36, 95
2, 78341, Control_c, 0, 64, 127
2, 78375, Note_off_c, 0, 48, 64
2, 78379, Note_off_c, 0, 36, 64
2, 78384, Note_on_c, 0, 60, 88
2, 78430, Note_off_c, 0, 60, 64
2, 78453, Control_c, 0, 64, 0
2, 78464, Note_on_c, 0, 37, 93
2, 78467, Note_on_c, 0, 49, 96
2, 78524, Control_c, 0, 64, 127
2, 78535, Note_off_c, 0, 37, 64
2, 78540, Note_on_c, 0, 61, 101
2, 78546, Note_off_c, 0, 49, 64
2, 78580, Note_off_c, 0, 61, 64
2, 78600, Note_on_c, 0, 57, 72
2, 78632, Note_on_c, 0, 61, 96
2, 78664, Note_off_c, 0, 57, 64
2, 78664, Note_on_c, 0, 66, 90
2, 78666, Control_c, 0, 64, 0
2, 78690, Note_off_c, 0, 61, 64
2, 78693, Control_c, 0, 64, 127
2, 78696, Note_on_c, 0, 73, 98
2, 78721, Note_off_c, 0, 66, 64
2, 78742, Note_on_c, 0, 78, 98
2, 78749, Note_on_c, 0, 90, 86
2, 78770, Note_off_c, 0, 90, 64
2, 78772, Note_off_c, 0, 78, 64
2, 78780, Note_off_c, 0, 73, 64
2, 78822, Note_on_c, 0, 71, 60
2, 78825, Note_on_c, 0, 92, 82
2, 78826, Note_on_c, 0, 68, 80
2, 78827, Note_on_c, 0, 80, 88
2, 78858, Note_off_c, 0, 80, 64
2, 78862, Note_off_c, 0, 92, 64
2, 78890, Note_on_c, 0, 66, 56
2, 78893, Note_off_c, 0, 68, 64
2, 78894, Note_on_c, 0, 69, 64
2, 78896, Note_off_c, 0, 71, 64
2, 78896, Note_on_c, 0, 81, 82
2, 78900, Note_on_c, 0, 93, 76
2, 78926, Note_off_c, 0, 93, 64
2, 78932, Note_off_c, 0, 81, 64
2, 78944, Control_c, 0, 64, 0
2, 78945, Note_off_c, 0, 66, 64
2, 78951, Note_off_c, 0, 69, 64
2, 78958, Note_on_c, 0, 37, 84
2, 78961, Note_on_c, 0, 49, 96
2, 79017, Control_c, 0, 64, 127
2, 79046, Note_off_c, 0, 49, 64
2, 79052, Note_on_c, 0, 61, 97
2, 79053, Note_off_c, 0, 37, 64
2, 79102, Note_off_c, 0, 61, 64
2, 79105, Control_c, 0, 64, 0
2, 79110, Note_on_c, 0, 38, 88
2, 79113, Note_on_c, 0, 50, 82
2, 79145, Control_c, 0, 64, 127
2, 79170, Note_off_c, 0, 50, 64
2, 79170, Note_off_c, 0, 38, 64
2, 79192, Note_on_c, 0, 62, 101
2, 79233, Note_off_c, 0, 62, 64
2, 79270, Note_on_c, 0, 58, 99
2, 79286, Note_on_c, 0, 62, 87
2, 79306, Note_on_c, 0, 67, 101
2, 79309, Control_c, 0, 64, 0
2, 79338, Note_on_c, 0, 74, 101
2, 79344, Note_off_c, 0, 58, 64
2, 79354, Control_c, 0, 64, 127
2, 79356, Note_off_c, 0, 62, 64
2, 79384, Note_off_c, 0, 67, 64
2, 79385, Note_on_c, 0, 79, 87
2, 79392, Note_on_c, 0, 91, 74
2, 79411, Note_off_c, 0, 79, 64
2, 79421, Note_off_c, 0, 91, 64
2, 79424, Note_off_c, 0, 74, 64
2, 79460, Note_on_c, 0, 93, 83
2, 79462, Note_on_c, 0, 72, 60
2, 79466, Note_on_c, 0, 69, 60
2, 79467, Note_on_c, 0, 81, 92
2, 79494, Note_off_c, 0, 81, 64
2, 79497, Note_off_c, 0, 93, 64
2, 79521, Note_off_c, 0, 72, 64
2, 79538, Note_on_c, 0, 70, 76
2, 79542, Note_off_c, 0, 69, 64
2, 79542, Note_on_c, 0, 67, 73
2, 79542, Note_on_c, 0, 82, 89
2, 79549, Note_on_c, 0, 94, 81
2, 79565, Note_off_c, 0, 94, 64
2, 79575, Note_off_c, 0, 82, 64
2, 79575, Note_off_c, 0, 70, 64
2, 79583, Note_off_c, 0, 67, 64
2, 79601, Control_c, 0, 64, 0
2, 79626, Note_on_c, 0, 39, 101
2, 79629, Note_on_c, 0, 51, 101
2, 79673, Control_c, 0, 64, 127
2, 79695, Note_on_c, 0, 63, 101
2, 79696, Note_off_c, 0, 39, 64
2, 79699, Note_off_c, 0, 51, 64
2, 79730, Note_off_c, 0, 63, 64
2, 79771, Note_on_c, 0, 61, 100
2, 79793, Note_on_c, 0, 70, 81
2, 79805, Note_on_c, 0, 73, 97
2, 79844, Note_off_c, 0, 70, 64
2, 79847, Note_off_c, 0, 61, 64
2, 79850, Note_off_c, 0, 73, 64
2, 79866, Note_on_c, 0, 91, 69
2, 79866, Note_on_c, 0, 79, 91
2, 79870, Note_on_c, 0, 85, 104
2, 79889, Note_off_c, 0, 79, 64
2, 79894, Note_off_c, 0, 91, 64
2, 79939, Note_on_c, 0, 81, 100
2, 79944, Note_on_c, 0, 93, 82
2, 79968, Note_off_c, 0, 81, 64
2, 79974, Note_off_c, 0, 93, 64
2, 80022, Note_on_c, 0, 94, 72
2, 80026, Note_on_c, 0, 82, 97
2, 80035, Note_off_c, 0, 94, 64
2, 80052, Note_off_c, 0, 82, 64
2, 80075, Control_c, 0, 64, 0
2, 80080, Note_off_c, 0, 85, 64
2, 80090, Note_on_c, 0, 52, 94
2, 80095, Note_on_c, 0, 40, 94
2, 80154, Note_off_c, 0, 52, 64
2, 80155, Control_c, 0, 64, 127
2, 80163, Note_off_c, 0, 40, 64
2, 80176, Note_on_c, 0, 64, 85
2, 80222, Note_off_c, 0, 64, 64
2, 80249, Note_on_c, 0, 67, 96
2, 80254, Note_on_c, 0, 61, 96
2, 80278, Note_on_c, 0, 73, 101
2, 80293, Note_off_c, 0, 61, 64
2, 80321, Note_off_c, 0, 67, 64
2, 80335, Note_off_c, 0, 73, 64
2, 80354, Note_on_c, 0, 85, 115
2, 80354, Note_on_c, 0, 79, 91
2, 80357, Note_on_c, 0, 91, 82
2, 80374, Note_off_c, 0, 91, 64
2, 80377, Note_off_c, 0, 79, 64
2, 80429, Note_on_c, 0, 81, 101
2, 80435, Note_on_c, 0, 93, 84
2, 80459, Note_off_c, 0, 93, 64
2, 80459, Note_off_c, 0, 81, 64
2, 80511, Note_on_c, 0, 82, 101
2, 80514, Note_on_c, 0, 94, 100
2, 80544, Note_off_c, 0, 82, 64
2, 80548, Note_off_c, 0, 94, 64
2, 80566, Note_off_c, 0, 85, 64
2, 80758, Note_on_c, 0, 38, 84
2, 80774, Note_on_c, 0, 42, 57
2, 80776, Control_c, 0, 64, 0
2, 80805, Note_on_c, 0, 47, 57
2, 80822, Note_on_c, 0, 50, 101
2, 80826, Note_on_c, 0, 83, 97
2, 80829, Note_on_c, 0, 90, 101
2, 80830, Note_on_c, 0, 95, 99
2, 80863, Note_off_c, 0, 38, 64
2, 80872, Control_c, 0, 64, 127
2, 80883, Note_off_c, 0, 42, 64
2, 80914, Note_off_c, 0, 47, 64
2, 80915, Note_off_c, 0, 83, 64
2, 80919, Note_off_c, 0, 95, 64
2, 80921, Note_off_c, 0, 50, 64
2, 80924, Note_off_c, 0, 90, 64
2, 80995, Note_on_c, 0, 65, 93
2, 81030, Note_off_c, 0, 65, 64
2, 81076, Note_on_c, 0, 89, 90
2, 81077, Note_on_c, 0, 77, 90
2, 81110, Note_on_c, 0, 51, 73
2, 81114, Note_off_c, 0, 77, 64
2, 81124, Note_off_c, 0, 89, 64
2, 81130, Note_on_c, 0, 54, 48
2, 81145, Control_c, 0, 64, 0
2, 81158, Note_on_c, 0, 57, 88
2, 81162, Note_on_c, 0, 59, 75
2, 81178, Note_on_c, 0, 66, 101
2, 81215, Control_c, 0, 64, 127
2, 81216, Note_off_c, 0, 54, 64
2, 81217, Note_off_c, 0, 51, 64
2, 81230, Note_on_c, 0, 83, 101
2, 81230, Note_on_c, 0, 78, 101
2, 81231, Note_on_c, 0, 90, 95
2, 81234, Note_off_c, 0, 57, 64
2, 81235, Note_off_c, 0, 59, 64
2, 81243, Note_off_c, 0, 66, 64
2, 81258, Note_off_c, 0, 83, 64
2, 81269, Note_off_c, 0, 78, 64
2, 81272, Note_off_c, 0, 90, 64
2, 81324, Note_on_c, 0, 59, 100
2, 81394, Note_on_c, 0, 83, 83
2, 81399, Note_off_c, 0, 59, 64
2, 81402, Note_on_c, 0, 71, 45
2, 81430, Note_on_c, 0, 52, 83
2, 81439, Note_off_c, 0, 71, 64
2, 81450, Note_on_c, 0, 55, 83
2, 81453, Note_off_c, 0, 83, 64
2, 81475, Note_on_c, 0, 60, 80
2, 81476, Control_c, 0, 64, 0
2, 81483, Note_on_c, 0, 64, 87
2, 81529, Note_off_c, 0, 52, 64
2, 81545, Control_c, 0, 64, 127
2, 81549, Note_off_c, 0, 55, 64
2, 81570, Note_on_c, 0, 72, 60
2, 81570, Note_on_c, 0, 84, 80
2, 81570, Note_on_c, 0, 79, 78
2, 81613, Note_off_c, 0, 79, 64
2, 81613, Note_off_c, 0, 72, 64
2, 81621, Note_off_c, 0, 84, 64
2, 81624, Note_off_c, 0, 64, 64
2, 81628, Note_off_c, 0, 60, 64
2, 81646, Note_on_c, 0, 58, 101
2, 81707, Note_off_c, 0, 58, 64
2, 81726, Note_on_c, 0, 70, 97
2, 81727, Note_on_c, 0, 82, 88
2, 81776, Note_off_c, 0, 70, 64
2, 81786, Note_off_c, 0, 82, 64
2, 81789, Note_on_c, 0, 44, 97
2, 81798, Note_on_c, 0, 50, 92
2, 81817, Control_c, 0, 64, 0
2, 81818, Note_on_c, 0, 53, 92
2, 81846, Note_on_c, 0, 59, 84
2, 81858, Control_c, 0, 64, 127
2, 81898, Note_on_c, 0, 71, 80
2, 81898, Note_on_c, 0, 83, 80
2, 81901, Note_on_c, 0, 74, 83
2, 81910, Note_off_c, 0, 50, 64
2, 81923, Note_off_c, 0, 44, 64
2, 81930, Note_off_c, 0, 53, 64
2, 81931, Note_off_c, 0, 59, 64
2, 81941, Note_off_c, 0, 74, 64
2, 81947, Note_off_c, 0, 83, 64
2, 81947, Note_off_c, 0, 71, 64
2, 81982, Note_on_c, 0, 41, 93
2, 82058, Note_on_c, 0, 53, 66
2, 82067, Note_on_c, 0, 65, 67
2, 82119, Note_on_c, 0, 30, 83
2, 82120, Note_off_c, 0, 53, 64
2, 82125, Note_off_c, 0, 41, 64
2, 82128, Note_off_c, 0, 65, 64
2, 82143, Note_on_c, 0, 34, 74
2, 82155, Control_c, 0, 64, 0
2, 82163, Control_c, 0, 64, 0
2, 82170, Note_on_c, 0, 37, 74
2, 82202, Note_on_c, 0, 42, 74
2, 82219, Control_c, 0, 64, 127
2, 82248, Note_off_c, 0, 34, 64
2, 82251, Note_on_c, 0, 58, 53
2, 82251, Note_on_c, 0, 54, 53
2, 82256, Note_on_c, 0, 61, 56
2, 82256, Note_on_c, 0, 66, 56
2, 82275, Note_off_c, 0, 37, 64
2, 82288, Note_off_c, 0, 42, 64
2, 82292, Note_off_c, 0, 30, 64
2, 82386, Note_on_c, 0, 23, 99
2, 82470, Note_on_c, 0, 35, 92
2, 82553, Note_off_c, 0, 66, 64
2, 82553, Note_off_c, 0, 61, 64
2, 82603, Control_c, 0, 64, 0
2, 82610, Note_off_c, 0, 54, 64
2, 82610, Note_off_c, 0, 58, 64
2, 82649, Control_c, 0, 64, 127
2, 83179, Note_off_c, 0, 23, 64
2, 83369, Note_off_c, 0, 35, 64
2, 83460, Note_on_c, 0, 42, 84
2, 83730, Note_on_c, 0, 47, 71
2, 83827, Note_off_c, 0, 42, 64
2, 83882, Note_on_c, 0, 24, 62
2, 84004, Note_on_c, 0, 35, 66
2, 84070, Note_on_c, 0, 42, 67
2, 84070, Note_on_c, 0, 49, 74
2, 84082, Note_off_c, 0, 47, 64
2, 84095, Control_c, 0, 64, 0
2, 84178, Control_c, 0, 64, 127
2, 84476, Note_off_c, 0, 49, 64
2, 84476, Note_off_c, 0, 42, 64
2, 84592, Note_off_c, 0, 24, 64
2, 84641, Note_off_c, 0, 35, 64
2, 85122, Note_on_c, 0, 35, 54
2, 85174, Note_on_c, 0, 42, 63
2, 85264, Control_c, 0, 64, 0
2, 85316, Control_c, 0, 64, 127
2, 85357, Note_on_c, 0, 54, 60
2, 85476, Note_on_c, 0, 47, 57
2, 85488, Control_c, 0, 64, 0
2, 85523, Control_c, 0, 64, 127
2, 85530, Note_off_c, 0, 42, 64
2, 85590, Note_on_c, 0, 59, 52
2, 85639, Note_off_c, 0, 54, 64
2, 85720, Note_on_c, 0, 49, 66
2, 85760, Note_off_c, 0, 47, 64
2, 85862, Note_on_c, 0, 61, 55
2, 85880, Note_off_c, 0, 35, 64
2, 85908, Note_off_c, 0, 59, 64
2, 85961, Note_on_c, 0, 50, 55
2, 85988, Note_off_c, 0, 49, 64
2, 86106, Note_on_c, 0, 62, 35
2, 86149, Note_off_c, 0, 61, 64
2, 86150, Note_on_c, 0, 23, 59
2, 86238, Note_off_c, 0, 50, 64
2, 86316, Note_on_c, 0, 35, 59
2, 86354, Control_c, 0, 64, 0
2, 86439, Control_c, 0, 64, 127
2, 86750, Note_off_c, 0, 62, 64
2, 86870, Note_on_c, 0, 42, 64
2, 87043, Note_on_c, 0, 54, 56
2, 87050, Note_on_c, 0, 66, 52
2, 87240, Note_on_c, 0, 47, 51
2, 87410, Note_off_c, 0, 23, 64
2, 87456, Note_on_c, 0, 59, 41
2, 87464, Note_on_c, 0, 71, 52
2, 87513, Note_off_c, 0, 54, 64
2, 87527, Note_off_c, 0, 42, 64
2, 87530, Note_off_c, 0, 66, 64
2, 87629, Note_off_c, 0, 35, 64
2, 87748, Note_off_c, 0, 47, 64
2, 87752, Note_on_c, 0, 35, 53
2, 87794, Note_off_c, 0, 59, 64
2, 87837, Note_on_c, 0, 42, 64
2, 87847, Note_off_c, 0, 71, 64
2, 87934, Note_on_c, 0, 49, 56
2, 87994, Control_c, 0, 64, 0
2, 88008, Note_on_c, 0, 61, 47
2, 88009, Note_on_c, 0, 73, 56
2, 88016, Note_on_c, 0, 66, 40
2, 88062, Control_c, 0, 64, 127
2, 89287, Note_off_c, 0, 35, 64
2, 89500, Note_off_c, 0, 42, 64
2, 89518, Note_off_c, 0, 49, 64
2, 89586, Note_off_c, 0, 73, 64
2, 89634, Note_off_c, 0, 61, 64
2, 89747, Note_off_c, 0, 66, 64
2, 90212, Control_c, 0, 64, 0
2, 90336, Control_c, 0, 64, 127
2, 90400, Note_on_c, 0, 78, 52
2, 90405, Note_on_c, 0, 66, 41
2, 90414, Note_on_c, 0, 47, 35
2, 90669, Note_on_c, 0, 59, 36
2, 90693, Note_off_c, 0, 47, 64
2, 90844, Note_on_c, 0, 63, 43
2, 90850, Note_on_c, 0, 71, 48
2, 90853, Note_off_c, 0, 59, 64
2, 90867, Note_off_c, 0, 66, 64
2, 91020, Note_on_c, 0, 59, 38
2, 91141, Note_on_c, 0, 73, 50
2, 91147, Note_off_c, 0, 63, 64
2, 91148, Note_on_c, 0, 64, 40
2, 91154, Note_off_c, 0, 59, 64
2, 91165, Note_off_c, 0, 71, 64
2, 91281, Note_on_c, 0, 59, 39
2, 91376, Note_off_c, 0, 78, 64
2, 91394, Note_on_c, 0, 66, 39
2, 91395, Note_on_c, 0, 75, 54
2, 91404, Note_off_c, 0, 59, 64
2, 91439, Note_off_c, 0, 64, 64
2, 91468, Note_off_c, 0, 73, 64
2, 91525, Note_on_c, 0, 59, 40
2, 91633, Note_on_c, 0, 78, 40
2, 91638, Note_on_c, 0, 76, 51
2, 91640, Note_off_c, 0, 59, 64
2, 91642, Note_on_c, 0, 68, 46
2, 91643, Note_off_c, 0, 75, 64
2, 91667, Control_c, 0, 64, 0
2, 91670, Note_off_c, 0, 66, 64
2, 91716, Control_c, 0, 64, 127
2, 91777, Note_on_c, 0, 59, 45
2, 91852, Note_off_c, 0, 68, 64
2, 91870, Note_off_c, 0, 76, 64
2, 91878, Note_on_c, 0, 75, 46
2, 91878, Note_on_c, 0, 66, 45
2, 91905, Note_off_c, 0, 59, 64
2, 91982, Note_on_c, 0, 68, 45
2, 91986, Note_on_c, 0, 76, 42
2, 92005, Note_off_c, 0, 66, 64
2, 92011, Note_off_c, 0, 75, 64
2, 92109, Note_off_c, 0, 68, 64
2, 92109, Note_on_c, 0, 75, 54
2, 92114, Note_on_c, 0, 66, 50
2, 92145, Note_off_c, 0, 76, 64
2, 92226, Note_on_c, 0, 59, 43
2, 92327, Note_off_c, 0, 59, 64
2, 92340, Note_on_c, 0, 64, 44
2, 92343, Note_on_c, 0, 73, 53
2, 92364, Note_off_c, 0, 75, 64
2, 92372, Note_off_c, 0, 66, 64
2, 92454, Note_on_c, 0, 59, 43
2, 92509, Note_off_c, 0, 78, 64
2, 92579, Note_on_c, 0, 63, 54
2, 92585, Note_on_c, 0, 78, 54
2, 92587, Note_off_c, 0, 59, 64
2, 92591, Note_on_c, 0, 71, 48
2, 92623, Note_off_c, 0, 73, 64
2, 92636, Note_off_c, 0, 64, 64
2, 92711, Control_c, 0, 64, 0
2, 92720, Note_on_c, 0, 59, 49
2, 92762, Control_c, 0, 64, 127
2, 92821, Note_on_c, 0, 70, 54
2, 92833, Note_on_c, 0, 61, 50
2, 92838, Note_off_c, 0, 71, 64
2, 92851, Note_off_c, 0, 63, 64
2, 92877, Note_off_c, 0, 59, 64
2, 92938, Note_on_c, 0, 71, 52
2, 92944, Note_on_c, 0, 63, 36
2, 92966, Note_off_c, 0, 70, 64
2, 92983, Note_off_c, 0, 61, 64
2, 93053, Note_on_c, 0, 61, 46
2, 93058, Note_on_c, 0, 70, 48
2, 93065, Note_off_c, 0, 63, 64
2, 93086, Note_off_c, 0, 71, 64
2, 93173, Note_on_c, 0, 47, 54
2, 93289, Note_on_c, 0, 68, 47
2, 93293, Note_on_c, 0, 59, 48
2, 93308, Note_off_c, 0, 47, 64
2, 93318, Note_off_c, 0, 61, 64
2, 93322, Note_off_c, 0, 70, 64
2, 93339, Note_off_c, 0, 78, 64
2, 93406, Note_on_c, 0, 47, 50
2, 93507, Control_c, 0, 64, 0
2, 93520, Note_off_c, 0, 47, 64
2, 93526, Note_on_c, 0, 66, 56
2, 93526, Note_on_c, 0, 58, 43
2, 93530, Note_on_c, 0, 78, 44
2, 93560, Note_off_c, 0, 59, 64
2, 93569, Control_c, 0, 64, 127
2, 93585, Note_off_c, 0, 68, 64
2, 93640, Note_on_c, 0, 47, 50
2, 93741, Note_on_c, 0, 64, 28
2, 93741, Note_on_c, 0, 68, 47
2, 93761, Note_off_c, 0, 58, 64
2, 93763, Note_off_c, 0, 47, 64
2, 93776, Note_off_c, 0, 66, 64
2, 93846, Note_on_c, 0, 59, 51
2, 93853, Note_on_c, 0, 70, 54
2, 93877, Note_off_c, 0, 68, 64
2, 93966, Note_off_c, 0, 59, 64
2, 93967, Note_on_c, 0, 63, 46
2, 93973, Note_on_c, 0, 71, 60
2, 93974, Control_c, 0, 64, 0
2, 93978, Note_off_c, 0, 70, 64
2, 94016, Note_off_c, 0, 64, 64
2, 94030, Control_c, 0, 64, 127
2, 94062, Note_on_c, 0, 59, 47
2, 94169, Note_off_c, 0, 59, 64
2, 94172, Note_on_c, 0, 73, 63
2, 94180, Note_on_c, 0, 69, 50
2, 94194, Note_off_c, 0, 71, 64
2, 94198, Note_off_c, 0, 63, 64
2, 94206, Note_off_c, 0, 78, 64
2, 94278, Note_on_c, 0, 75, 57
2, 94285, Note_on_c, 0, 59, 54
2, 94384, Note_off_c, 0, 73, 64
2, 94392, Note_on_c, 0, 68, 56
2, 94398, Note_on_c, 0, 76, 62
2, 94401, Note_on_c, 0, 71, 59
2, 94405, Note_off_c, 0, 75, 64
2, 94406, Note_off_c, 0, 69, 64
2, 94412, Note_off_c, 0, 59, 64
2, 94415, Control_c, 0, 64, 0
2, 94469, Control_c, 0, 64, 127
2, 94509, Note_on_c, 0, 59, 40
2, 94592, Note_off_c, 0, 68, 64
2, 94634, Note_on_c, 0, 80, 51
2, 94642, Note_on_c, 0, 64, 37
2, 94647, Note_off_c, 0, 59, 64
2, 94649, Control_c, 0, 64, 0
2, 94692, Control_c, 0, 64, 127
2, 94716, Note_off_c, 0, 76, 64
2, 94760, Note_on_c, 0, 59, 48
2, 94845, Note_off_c, 0, 71, 64
2, 94860, Note_off_c, 0, 64, 64
2, 94908, Note_on_c, 0, 73, 54
2, 94911, Note_on_c, 0, 70, 37
2, 94914, Note_on_c, 0, 66, 34
2, 94919, Note_off_c, 0, 59, 64
2, 94922, Note_off_c, 0, 80, 64
2, 94950, Control_c, 0, 64, 0
2, 95004, Control_c, 0, 64, 127
2, 95071, Note_on_c, 0, 59, 37
2, 95229, Note_on_c, 0, 64, 41
2, 95234, Note_off_c, 0, 59, 64
2, 95261, Note_off_c, 0, 66, 64
2, 95472, Note_on_c, 0, 59, 28
2, 95572, Note_off_c, 0, 64, 64
2, 95603, Note_off_c, 0, 70, 64
2, 95665, Note_off_c, 0, 59, 64
2, 95683, Note_on_c, 0, 47, 40
2, 95685, Note_on_c, 0, 78, 55
2, 95705, Note_off_c, 0, 73, 64
2, 95706, Note_on_c, 0, 66, 32
2, 95713, Control_c, 0, 64, 0
2, 95776, Control_c, 0, 64, 127
2, 95864, Note_on_c, 0, 59, 34
2, 95968, Note_off_c, 0, 59, 64
2, 95979, Note_on_c, 0, 63, 45
2, 95989, Note_on_c, 0, 71, 48
2, 96022, Note_off_c, 0, 66, 64
2, 96096, Note_on_c, 0, 59, 34
2, 96099, Note_off_c, 0, 47, 64
2, 96205, Note_on_c, 0, 73, 60
2, 96211, Note_on_c, 0, 64, 45
2, 96215, Note_off_c, 0, 59, 64
2, 96217, Note_off_c, 0, 71, 64
2, 96222, Note_off_c, 0, 63, 64
2, 96313, Note_on_c, 0, 59, 41
2, 96399, Note_on_c, 0, 66, 51
2, 96404, Note_off_c, 0, 59, 64
2, 96410, Note_on_c, 0, 75, 58
2, 96415, Note_off_c, 0, 64, 64
2, 96420, Note_off_c, 0, 73, 64
2, 96432, Note_off_c, 0, 78, 64
2, 96503, Note_on_c, 0, 59, 47
2, 96594, Note_off_c, 0, 59, 64
2, 96611, Note_off_c, 0, 66, 64
2, 96615, Note_on_c, 0, 78, 48
2, 96615, Note_on_c, 0, 68, 54
2, 96618, Note_on_c, 0, 76, 55
2, 96624, Note_off_c, 0, 75, 64
2, 96637, Control_c, 0, 64, 0
2, 96689, Control_c, 0, 64, 127
2, 96723, Note_on_c, 0, 59, 38
2, 96825, Note_on_c, 0, 66, 43
2, 96828, Note_off_c, 0, 68, 64
2, 96832, Note_on_c, 0, 75, 49
2, 96840, Note_off_c, 0, 76, 64
2, 96925, Note_off_c, 0, 75, 64
2, 96926, Note_off_c, 0, 59, 64
2, 96931, Note_on_c, 0, 73, 51
2, 96931, Note_on_c, 0, 64, 48
2, 96943, Note_off_c, 0, 66, 64
2, 97038, Note_on_c, 0, 68, 41
2, 97041, Note_on_c, 0, 76, 56
2, 97057, Note_off_c, 0, 64, 64
2, 97062, Control_c, 0, 64, 0
2, 97074, Note_off_c, 0, 73, 64
2, 97108, Control_c, 0, 64, 127
2, 97157, Note_on_c, 0, 59, 39
2, 97254, Note_off_c, 0, 59, 64
2, 97272, Note_on_c, 0, 75, 56
2, 97285, Note_on_c, 0, 66, 28
2, 97293, Note_off_c, 0, 76, 64
2, 97313, Note_off_c, 0, 68, 64
2, 97421, Note_on_c, 0, 59, 39
2, 97438, Note_off_c, 0, 75, 64
2, 97451, Note_off_c, 0, 66, 64
2, 97518, Note_off_c, 0, 59, 64
2, 97519, Note_off_c, 0, 78, 64
2, 97554, Control_c, 0, 64, 0
2, 97562, Note_on_c, 0, 85, 62
2, 97562, Note_on_c, 0, 49, 43
2, 97563, Note_on_c, 0, 73, 45
2, 97605, Control_c, 0, 64, 127
2, 97729, Note_on_c, 0, 65, 32
2, 97858, Note_off_c, 0, 49, 64
2, 97862, Note_on_c, 0, 68, 57
2, 97869, Note_on_c, 0, 77, 41
2, 97881, Note_off_c, 0, 73, 64
2, 97894, Note_off_c, 0, 65, 64
2, 98001, Note_on_c, 0, 61, 36
2, 98102, Note_on_c, 0, 78, 61
2, 98110, Note_on_c, 0, 70, 57
2, 98111, Note_off_c, 0, 68, 64
2, 98127, Note_off_c, 0, 77, 64
2, 98128, Note_off_c, 0, 61, 64
2, 98222, Note_on_c, 0, 61, 49
2, 98309, Note_on_c, 0, 80, 54
2, 98318, Note_on_c, 0, 71, 42
2, 98327, Note_off_c, 0, 70, 64
2, 98329, Note_off_c, 0, 61, 64
2, 98345, Note_off_c, 0, 78, 64
2, 98378, Note_off_c, 0, 85, 64
2, 98420, Note_on_c, 0, 61, 44
2, 98520, Note_on_c, 0, 85, 51
2, 98520, Note_on_c, 0, 83, 60
2, 98529, Note_on_c, 0, 75, 64
2, 98541, Note_off_c, 0, 61, 64
2, 98543, Control_c, 0, 64, 0
2, 98546, Note_off_c, 0, 71, 64
2, 98553, Note_off_c, 0, 80, 64
2, 98598, Control_c, 0, 64, 127
2, 98638, Note_on_c, 0, 61, 45
2, 98745, Note_on_c, 0, 82, 55
2, 98748, Note_on_c, 0, 73, 62
2, 98752, Note_off_c, 0, 75, 64
2, 98754, Note_off_c, 0, 61, 64
2, 98774, Note_off_c, 0, 83, 64
2, 98854, Note_on_c, 0, 75, 63
2, 98854, Note_on_c, 0, 83, 48
2, 98875, Note_off_c, 0, 73, 64
2, 98885, Note_off_c, 0, 82, 64
2, 98968, Note_on_c, 0, 73, 51
2, 98970, Note_on_c, 0, 82, 60
2, 98979, Note_off_c, 0, 75, 64
2, 99003, Note_off_c, 0, 83, 64
2, 99071, Note_on_c, 0, 61, 43
2, 99186, Note_off_c, 0, 61, 64
2, 99187, Note_on_c, 0, 71, 54
2, 99195, Note_on_c, 0, 80, 50
2, 99207, Note_off_c, 0, 82, 64
2, 99220, Note_off_c, 0, 73, 64
2, 99250, Note_off_c, 0, 85, 64
2, 99293, Note_on_c, 0, 61, 41
2, 99385, Control_c, 0, 64, 0
2, 99392, Note_on_c, 0, 78, 55
2, 99396, Note_on_c, 0, 85, 50
2, 99406, Note_on_c, 0, 70, 41
2, 99407, Note_off_c, 0, 61, 64
2, 99426, Note_off_c, 0, 80, 64
2, 99427, Note_off_c, 0, 71, 64
2, 99449, Control_c, 0, 64, 127
2, 99516, Note_on_c, 0, 61, 34
2, 99615, Note_on_c, 0, 75, 54
2, 99617, Note_off_c, 0, 61, 64
2, 99620, Note_off_c, 0, 78, 64
2, 99620, Note_on_c, 0, 66, 42
2, 99631, Note_off_c, 0, 70, 64
2, 99725, Note_on_c, 0, 61, 36
2, 99820, Note_off_c, 0, 61, 64
2, 99828, Note_on_c, 0, 73, 54
2, 99834, Note_on_c, 0, 65, 38
2, 99843, Note_off_c, 0, 75, 64
2, 99845, Note_off_c, 0, 66, 64
2, 99942, Note_on_c, 0, 61, 32
2, 100015, Note_off_c, 0, 61, 64
2, 100055, Note_off_c, 0, 65, 64
2, 100058, Note_on_c, 0, 71, 32
2, 100059, Note_on_c, 0, 63, 41
2, 100097, Note_off_c, 0, 85, 64
2, 100100, Note_off_c, 0, 73, 64
2, 100156, Note_on_c, 0, 49, 40
2, 100266, Note_off_c, 0, 63, 64
2, 100280, Note_on_c, 0, 61, 40
2, 100287, Control_c, 0, 64, 0
2, 100291, Note_on_c, 0, 78, 52
2, 100295, Note_on_c, 0, 70, 34
2, 100297, Note_off_c, 0, 71, 64
2, 100308, Note_off_c, 0, 49, 64
2, 100365, Control_c, 0, 64, 127
2, 100397, Note_on_c, 0, 54, 45
2, 100458, Note_off_c, 0, 61, 64
2, 100497, Note_off_c, 0, 54, 64
2, 100504, Note_on_c, 0, 66, 49
2, 100506, Note_on_c, 0, 64, 51
2, 100515, Note_off_c, 0, 70, 64
2, 100600, Note_on_c, 0, 54, 51
2, 100710, Control_c, 0, 64, 0
2, 100720, Note_on_c, 0, 63, 48
2, 100726, Note_off_c, 0, 54, 64
2, 100726, Note_on_c, 0, 71, 55
2, 100734, Note_off_c, 0, 78, 64
2, 100753, Note_off_c, 0, 66, 64
2, 100759, Note_off_c, 0, 64, 64
2, 100765, Control_c, 0, 64, 127
2, 100820, Note_on_c, 0, 54, 51
2, 100913, Note_off_c, 0, 54, 64
2, 100926, Note_on_c, 0, 59, 36
2, 100927, Note_off_c, 0, 63, 64
2, 100938, Note_on_c, 0, 73, 56
2, 100954, Note_off_c, 0, 71, 64
2, 101053, Note_on_c, 0, 47, 50
2, 101106, Note_off_c, 0, 59, 64
2, 101152, Note_off_c, 0, 47, 64
2, 101212, Note_off_c, 0, 73, 64
2, 101212, Note_on_c, 0, 78, 48
2, 101216, Note_on_c, 0, 68, 53
2, 101219, Note_on_c, 0, 76, 52
2, 101252, Control_c, 0, 64, 0
2, 101334, Control_c, 0, 64, 127
2, 101343, Note_on_c, 0, 59, 40
2, 101451, Note_on_c, 0, 75, 52
2, 101460, Note_on_c, 0, 66, 40
2, 101469, Note_off_c, 0, 76, 64
2, 101493, Note_off_c, 0, 59, 64
2, 101503, Note_off_c, 0, 68, 64
2, 101560, Note_on_c, 0, 68, 48
2, 101561, Note_off_c, 0, 66, 64
2, 101565, Note_on_c, 0, 76, 38
2, 101576, Note_off_c, 0, 75, 64
2, 101656, Note_on_c, 0, 75, 61
2, 101667, Note_on_c, 0, 66, 33
2, 101675, Control_c, 0, 64, 0
2, 101692, Note_off_c, 0, 76, 64
2, 101694, Note_off_c, 0, 68, 64
2, 101740, Control_c, 0, 64, 127
2, 101764, Note_on_c, 0, 59, 42
2, 101853, Note_off_c, 0, 59, 64
2, 101870, Note_on_c, 0, 64, 43
2, 101875, Note_on_c, 0, 73, 56
2, 101895, Note_off_c, 0, 75, 64
2, 101910, Note_off_c, 0, 66, 64
2, 101964, Note_off_c, 0, 78, 64
2, 101983, Note_on_c, 0, 59, 41
2, 102114, Note_on_c, 0, 78, 59
2, 102118, Note_on_c, 0, 63, 45
2, 102125, Note_off_c, 0, 59, 64
2, 102126, Note_on_c, 0, 71, 50
2, 102133, Note_off_c, 0, 73, 64
2, 102139, Control_c, 0, 64, 0
2, 102145, Note_off_c, 0, 64, 64
2, 102211, Control_c, 0, 64, 127
2, 102256, Note_on_c, 0, 59, 46
2, 102360, Note_on_c, 0, 70, 55
2, 102367, Note_on_c, 0, 61, 55
2, 102378, Note_off_c, 0, 59, 64
2, 102381, Note_off_c, 0, 71, 64
2, 102392, Note_off_c, 0, 63, 64
2, 102459, Note_on_c, 0, 63, 55
2, 102468, Note_on_c, 0, 71, 47
2, 102472, Note_off_c, 0, 70, 64
2, 102474, Note_off_c, 0, 61, 64
2, 102560, Note_on_c, 0, 61, 64
2, 102571, Note_on_c, 0, 70, 60
2, 102574, Note_off_c, 0, 63, 64
2, 102602, Note_off_c, 0, 71, 64
2, 102676, Note_on_c, 0, 47, 55
2, 102753, Note_off_c, 0, 47, 64
2, 102775, Note_on_c, 0, 59, 57
2, 102779, Note_on_c, 0, 68, 52
2, 102797, Note_off_c, 0, 61, 64
2, 102803, Note_off_c, 0, 70, 64
2, 102820, Note_off_c, 0, 78, 64
2, 102885, Note_on_c, 0, 47, 49
2, 102980, Control_c, 0, 64, 0
2, 102989, Note_on_c, 0, 58, 46
2, 102990, Note_off_c, 0, 47, 64
2, 102994, Note_on_c, 0, 66, 55
2, 102995, Note_off_c, 0, 59, 64
2, 102999, Note_on_c, 0, 78, 48
2, 103035, Note_off_c, 0, 68, 64
2, 103062, Control_c, 0, 64, 127
2, 103088, Note_on_c, 0, 47, 53
2, 103179, Note_off_c, 0, 47, 64
2, 103195, Note_on_c, 0, 68, 60
2, 103196, Note_off_c, 0, 66, 64
2, 103200, Note_on_c, 0, 64, 53
2, 103204, Note_off_c, 0, 58, 64
2, 103289, Note_on_c, 0, 70, 63
2, 103297, Note_off_c, 0, 68, 64
2, 103303, Note_on_c, 0, 59, 37
2, 103391, Note_on_c, 0, 63, 61
2, 103396, Control_c, 0, 64, 0
2, 103399, Note_on_c, 0, 71, 66
2, 103400, Note_off_c, 0, 70, 64
2, 103405, Note_off_c, 0, 59, 64
2, 103423, Note_off_c, 0, 64, 64
2, 103457, Control_c, 0, 64, 127
2, 103500, Note_on_c, 0, 59, 45
2, 103587, Note_on_c, 0, 73, 69
2, 103588, Note_off_c, 0, 63, 64
2, 103601, Note_on_c, 0, 69, 50
2, 103602, Note_off_c, 0, 71, 64
2, 103602, Note_off_c, 0, 78, 64
2, 103609, Note_off_c, 0, 59, 64
2, 103686, Note_on_c, 0, 75, 57
2, 103698, Note_on_c, 0, 59, 54
2, 103713, Note_off_c, 0, 73, 64
2, 103794, Note_on_c, 0, 68, 57
2, 103798, Note_on_c, 0, 76, 64
2, 103806, Note_off_c, 0, 59, 64
2, 103813, Note_off_c, 0, 75, 64
2, 103813, Control_c, 0, 64, 0
2, 103832, Note_off_c, 0, 69, 64
2, 103876, Control_c, 0, 64, 127
2, 103902, Note_on_c, 0, 59, 39
2, 104016, Note_on_c, 0, 64, 45
2, 104017, Note_off_c, 0, 59, 64
2, 104017, Note_on_c, 0, 80, 54
2, 104024, Note_off_c, 0, 76, 64
2, 104031, Note_off_c, 0, 68, 64
2, 104113, Note_on_c, 0, 59, 50
2, 104241, Note_on_c, 0, 73, 59
2, 104246, Note_on_c, 0, 70, 57
2, 104247, Note_off_c, 0, 64, 64
2, 104251, Note_on_c, 0, 66, 32
2, 104266, Note_off_c, 0, 80, 64
2, 104273, Note_off_c, 0, 59, 64
2, 104286, Control_c, 0, 64, 0
2, 104363, Note_on_c, 0, 59, 50
2, 104371, Control_c, 0, 64, 127
2, 104486, Note_off_c, 0, 66, 64
2, 104498, Note_on_c, 0, 64, 39
2, 104502, Note_off_c, 0, 59, 64
2, 104660, Note_on_c, 0, 59, 46
2, 104697, Note_off_c, 0, 70, 64
2, 104731, Note_off_c, 0, 59, 64
2, 104760, Note_off_c, 0, 64, 64
2, 104848, Note_on_c, 0, 78, 61
2, 104855, Note_on_c, 0, 47, 46
2, 104859, Note_off_c, 0, 73, 64
2, 104860, Note_on_c, 0, 66, 46
2, 104878, Control_c, 0, 64, 0
2, 104930, Control_c, 0, 64, 127
2, 105013, Note_on_c, 0, 59, 52
2, 105020, Note_off_c, 0, 47, 64
2, 105101, Note_off_c, 0, 59, 64
2, 105116, Note_on_c, 0, 71, 50
2, 105123, Note_off_c, 0, 66, 64
2, 105129, Note_on_c, 0, 63, 63
2, 105226, Note_on_c, 0, 59, 57
2, 105318, Note_on_c, 0, 73, 62
2, 105326, Note_on_c, 0, 64, 54
2, 105339, Note_off_c, 0, 63, 64
2, 105342, Note_off_c, 0, 59, 64
2, 105364, Note_off_c, 0, 71, 64
2, 105420, Note_on_c, 0, 59, 50
2, 105477, Note_off_c, 0, 64, 64
2, 105499, Note_on_c, 0, 66, 54
2, 105506, Note_off_c, 0, 59, 64
2, 105506, Note_on_c, 0, 75, 61
2, 105515, Note_off_c, 0, 73, 64
2, 105543, Note_off_c, 0, 78, 64
2, 105596, Note_on_c, 0, 59, 47
2, 105681, Note_off_c, 0, 59, 64
2, 105698, Note_on_c, 0, 78, 49
2, 105703, Note_on_c, 0, 76, 63
2, 105710, Note_off_c, 0, 66, 64
2, 105712, Note_on_c, 0, 68, 61
2, 105718, Control_c, 0, 64, 0
2, 105724, Note_off_c, 0, 75, 64
2, 105791, Control_c, 0, 64, 127
2, 105796, Note_on_c, 0, 59, 46
2, 105899, Note_on_c, 0, 75, 57
2, 105907, Note_on_c, 0, 66, 45
2, 105940, Note_off_c, 0, 68, 64
2, 105943, Note_off_c, 0, 76, 64
2, 105984, Note_off_c, 0, 59, 64
2, 105988, Note_off_c, 0, 75, 64
2, 105991, Note_on_c, 0, 73, 59
2, 105998, Note_on_c, 0, 64, 48
2, 106001, Note_off_c, 0, 66, 64
2, 106072, Note_off_c, 0, 78, 64
2, 106088, Note_on_c, 0, 68, 48
2, 106095, Note_on_c, 0, 76, 63
2, 106105, Control_c, 0, 64, 0
2, 106124, Note_off_c, 0, 64, 64
2, 106135, Note_off_c, 0, 73, 64
2, 106162, Control_c, 0, 64, 127
2, 106203, Note_on_c, 0, 59, 51
2, 106311, Note_on_c, 0, 66, 45
2, 106319, Note_on_c, 0, 75, 58
2, 106321, Note_off_c, 0, 68, 64
2, 106323, Note_off_c, 0, 59, 64
2, 106330, Note_off_c, 0, 76, 64
2, 106406, Note_off_c, 0, 75, 64
2, 106415, Note_on_c, 0, 59, 49
2, 106419, Note_off_c, 0, 66, 64
2, 106485, Note_off_c, 0, 59, 64
2, 106553, Control_c, 0, 64, 0
2, 106559, Note_on_c, 0, 49, 64
2, 106565, Note_on_c, 0, 85, 77
2, 106566, Note_on_c, 0, 73, 35
2, 106593, Control_c, 0, 64, 127
2, 106686, Note_on_c, 0, 65, 54
2, 106766, Note_off_c, 0, 73, 64
2, 106786, Note_on_c, 0, 77, 59
2, 106792, Note_on_c, 0, 68, 68
2, 106819, Note_off_c, 0, 65, 64
2, 106842, Note_off_c, 0, 49, 64
2, 106884, Note_on_c, 0, 61, 54
2, 106958, Note_off_c, 0, 61, 64
2, 106972, Note_on_c, 0, 70, 70
2, 106987, Note_on_c, 0, 78, 63
2, 106989, Note_off_c, 0, 68, 64
2, 106990, Control_c, 0, 64, 0
2, 107014, Note_off_c, 0, 77, 64
2, 107014, Control_c, 0, 64, 127
2, 107071, Note_on_c, 0, 61, 46
2, 107164, Note_off_c, 0, 61, 64
2, 107168, Note_on_c, 0, 71, 61
2, 107168, Note_on_c, 0, 80, 61
2, 107183, Note_off_c, 0, 70, 64
2, 107202, Note_off_c, 0, 78, 64
2, 107260, Note_on_c, 0, 61, 59
2, 107265, Note_off_c, 0, 85, 64
2, 107360, Note_off_c, 0, 61, 64
2, 107375, Note_on_c, 0, 75, 70
2, 107383, Note_on_c, 0, 85, 57
2, 107389, Note_on_c, 0, 83, 70
2, 107393, Control_c, 0, 64, 0
2, 107398, Note_off_c, 0, 80, 64
2, 107408, Note_off_c, 0, 71, 64
2, 107457, Control_c, 0, 64, 127
2, 107479, Note_on_c, 0, 61, 53
2, 107592, Note_on_c, 0, 82, 63
2, 107595, Note_on_c, 0, 73, 68
2, 107600, Note_off_c, 0, 61, 64
2, 107607, Note_off_c, 0, 75, 64
2, 107620, Note_off_c, 0, 83, 64
2, 107682, Note_on_c, 0, 75, 70
2, 107691, Note_off_c, 0, 73, 64
2, 107692, Note_on_c, 0, 83, 57
2, 107722, Note_off_c, 0, 82, 64
2, 107787, Note_on_c, 0, 82, 81
2, 107792, Note_on_c, 0, 73, 58
2, 107799, Note_off_c, 0, 83, 64
2, 107805, Note_off_c, 0, 75, 64
2, 107881, Note_on_c, 0, 61, 61
2, 107980, Note_off_c, 0, 61, 64
2, 107986, Note_on_c, 0, 80, 58
2, 107987, Note_off_c, 0, 73, 64
2, 107987, Control_c, 0, 64, 0
2, 107994, Note_on_c, 0, 71, 54
2, 108003, Note_off_c, 0, 82, 64
2, 108034, Control_c, 0, 64, 127
2, 108090, Note_on_c, 0, 61, 54
2, 108127, Note_off_c, 0, 85, 64
2, 108189, Note_on_c, 0, 85, 63
2, 108190, Note_on_c, 0, 78, 54
2, 108198, Note_on_c, 0, 70, 49
2, 108200, Control_c, 0, 64, 0
2, 108206, Note_off_c, 0, 80, 64
2, 108208, Note_off_c, 0, 61, 64
2, 108212, Note_off_c, 0, 71, 64
2, 108253, Control_c, 0, 64, 127
2, 108297, Note_on_c, 0, 61, 45
2, 108396, Note_off_c, 0, 70, 64
2, 108402, Note_on_c, 0, 75, 65
2, 108402, Note_on_c, 0, 66, 46
2, 108403, Note_off_c, 0, 61, 64
2, 108404, Note_off_c, 0, 78, 64
2, 108508, Note_on_c, 0, 61, 45
2, 108584, Note_off_c, 0, 66, 64
2, 108606, Control_c, 0, 64, 0
2, 108607, Note_off_c, 0, 75, 64
2, 108613, Note_on_c, 0, 73, 62
2, 108616, Note_on_c, 0, 65, 49
2, 108618, Note_off_c, 0, 61, 64
2, 108644, Control_c, 0, 64, 127
2, 108723, Note_on_c, 0, 61, 36
2, 108823, Note_off_c, 0, 61, 64
2, 108828, Note_on_c, 0, 71, 48
2, 108833, Note_on_c, 0, 63, 56
2, 108839, Note_off_c, 0, 65, 64
2, 108856, Note_off_c, 0, 73, 64
2, 108879, Note_off_c, 0, 85, 64
2, 108930, Note_on_c, 0, 49, 51
2, 109050, Control_c, 0, 64, 0
2, 109055, Note_on_c, 0, 78, 53
2, 109056, Note_on_c, 0, 61, 62
2, 109061, Note_on_c, 0, 70, 47
2, 109083, Note_off_c, 0, 49, 64
2, 109090, Note_off_c, 0, 71, 64
2, 109103, Note_off_c, 0, 63, 64
2, 109121, Control_c, 0, 64, 127
2, 109158, Note_on_c, 0, 54, 48
2, 109266, Note_on_c, 0, 66, 51
2, 109274, Note_off_c, 0, 61, 64
2, 109275, Note_off_c, 0, 54, 64
2, 109277, Note_on_c, 0, 58, 34
2, 109305, Note_off_c, 0, 70, 64
2, 109367, Note_on_c, 0, 54, 51
2, 109467, Note_off_c, 0, 54, 64
2, 109468, Control_c, 0, 64, 0
2, 109473, Note_on_c, 0, 59, 49
2, 109476, Note_on_c, 0, 68, 57
2, 109485, Note_off_c, 0, 66, 64
2, 109492, Note_off_c, 0, 58, 64
2, 109536, Control_c, 0, 64, 127
2, 109561, Note_on_c, 0, 54, 53
2, 109652, Note_off_c, 0, 54, 64
2, 109662, Note_on_c, 0, 61, 63
2, 109665, Note_on_c, 0, 70, 63
2, 109679, Note_off_c, 0, 78, 64
2, 109704, Note_off_c, 0, 68, 64
2, 109717, Note_off_c, 0, 59, 64
2, 109766, Note_on_c, 0, 54, 48
2, 109862, Control_c, 0, 64, 0
2, 109869, Note_off_c, 0, 54, 64
2, 109869, Note_on_c, 0, 62, 53
2, 109872, Note_on_c, 0, 78, 66
2, 109873, Note_on_c, 0, 71, 62
2, 109886, Note_off_c, 0, 70, 64
2, 109894, Note_off_c, 0, 61, 64
2, 109943, Control_c, 0, 64, 127
2, 109962, Note_on_c, 0, 54, 54
2, 110068, Note_on_c, 0, 61, 31
2, 110068, Note_on_c, 0, 70, 58
2, 110079, Note_off_c, 0, 62, 64
2, 110112, Note_off_c, 0, 71, 64
2, 110156, Note_on_c, 0, 68, 62
2, 110157, Note_off_c, 0, 54, 64
2, 110161, Note_on_c, 0, 59, 40
2, 110187, Note_off_c, 0, 70, 64
2, 110194, Note_off_c, 0, 61, 64
2, 110245, Note_on_c, 0, 62, 54
2, 110249, Note_on_c, 0, 71, 66
2, 110256, Note_off_c, 0, 68, 64
2, 110265, Note_off_c, 0, 59, 64
2, 110265, Control_c, 0, 64, 0
2, 110330, Control_c, 0, 64, 127
2, 110345, Note_on_c, 0, 54, 46
2, 110442, Note_off_c, 0, 62, 64
2, 110443, Note_on_c, 0, 70, 64
2, 110445, Note_on_c, 0, 61, 50
2, 110457, Note_off_c, 0, 71, 64
2, 110460, Note_off_c, 0, 54, 64
2, 110535, Note_on_c, 0, 54, 45
2, 110610, Note_off_c, 0, 54, 64
2, 110625, Note_off_c, 0, 78, 64
2, 110663, Note_off_c, 0, 61, 64
2, 110676, Note_off_c, 0, 70, 64
2, 110682, Note_on_c, 0, 42, 56
2, 110690, Note_on_c, 0, 78, 55
2, 110698, Control_c, 0, 64, 0
2, 110766, Control_c, 0, 64, 127
2, 110786, Note_on_c, 0, 54, 62
2, 110867, Note_off_c, 0, 54, 64
2, 110875, Note_on_c, 0, 59, 57
2, 110882, Note_on_c, 0, 68, 66
2, 110891, Control_c, 0, 64, 0
2, 110933, Control_c, 0, 64, 127
2, 110971, Note_on_c, 0, 54, 67
2, 110989, Note_off_c, 0, 42, 64
2, 111057, Note_on_c, 0, 61, 69
2, 111062, Note_off_c, 0, 54, 64
2, 111064, Control_c, 0, 64, 0
2, 111071, Note_on_c, 0, 70, 67
2, 111084, Note_off_c, 0, 59, 64
2, 111112, Control_c, 0, 64, 127
2, 111113, Note_off_c, 0, 68, 64
2, 111146, Note_on_c, 0, 54, 62
2, 111246, Note_off_c, 0, 54, 64
2, 111253, Note_on_c, 0, 62, 63
2, 111254, Note_on_c, 0, 71, 66
2, 111294, Note_off_c, 0, 61, 64
2, 111327, Note_off_c, 0, 70, 64
2, 111349, Note_on_c, 0, 54, 66
2, 111468, Note_off_c, 0, 78, 64
2, 111470, Note_off_c, 0, 54, 64
2, 111470, Note_off_c, 0, 62, 64
2, 111479, Note_on_c, 0, 74, 64
2, 111483, Note_on_c, 0, 66, 72
2, 111486, Note_on_c, 0, 83, 63
2, 111490, Control_c, 0, 64, 0
2, 111515, Note_off_c, 0, 71, 64
2, 111555, Control_c, 0, 64, 127
2, 111601, Note_on_c, 0, 54, 65
2, 111719, Note_on_c, 0, 64, 58
2, 111722, Note_on_c, 0, 73, 70
2, 111736, Note_off_c, 0, 66, 64
2, 111783, Note_off_c, 0, 74, 64
2, 111810, Note_on_c, 0, 71, 66
2, 111821, Note_on_c, 0, 62, 57
2, 111822, Note_off_c, 0, 54, 64
2, 111840, Note_off_c, 0, 73, 64
2, 111841, Note_off_c, 0, 64, 64
2, 111912, Note_on_c, 0, 66, 72
2, 111918, Note_on_c, 0, 74, 69
2, 111929, Note_off_c, 0, 71, 64
2, 111948, Note_off_c, 0, 62, 64
2, 112022, Note_on_c, 0, 54, 48
2, 112163, Note_on_c, 0, 73, 65
2, 112167, Note_off_c, 0, 54, 64
2, 112169, Note_off_c, 0, 66, 64
2, 112170, Note_on_c, 0, 64, 50
2, 112170, Note_on_c, 0, 81, 62
2, 112180, Note_off_c, 0, 74, 64
2, 112185, Control_c, 0, 64, 0
2, 112213, Note_off_c, 0, 83, 64
2, 112263, Control_c, 0, 64, 127
2, 112320, Note_on_c, 0, 57, 57
2, 112334, Note_off_c, 0, 64, 64
2, 112437, Note_off_c, 0, 57, 64
2, 112478, Note_on_c, 0, 45, 60
2, 112607, Note_on_c, 0, 57, 56
2, 112674, Note_off_c, 0, 57, 64
2, 112688, Note_off_c, 0, 81, 64
2, 112705, Note_on_c, 0, 61, 68
2, 112712, Note_on_c, 0, 81, 70
2, 112713, Note_off_c, 0, 73, 64
2, 112713, Note_on_c, 0, 69, 63
2, 112822, Note_on_c, 0, 57, 62
2, 112839, Note_off_c, 0, 45, 64
2, 112897, Note_on_c, 0, 66, 62
2, 112908, Note_on_c, 0, 74, 74
2, 112912, Note_off_c, 0, 57, 64
2, 112932, Note_off_c, 0, 61, 64
2, 112934, Note_off_c, 0, 69, 64
2, 112999, Note_on_c, 0, 57, 64
2, 113008, Note_off_c, 0, 81, 64
2, 113078, Note_off_c, 0, 57, 64
2, 113090, Control_c, 0, 64, 0
2, 113091, Note_off_c, 0, 74, 64
2, 113099, Note_on_c, 0, 67, 62
2, 113099, Note_on_c, 0, 76, 63
2, 113100, Note_on_c, 0, 81, 65
2, 113101, Note_off_c, 0, 66, 64
2, 113150, Control_c, 0, 64, 127
2, 113183, Note_on_c, 0, 57, 65
2, 113250, Note_off_c, 0, 67, 64
2, 113262, Note_off_c, 0, 76, 64
2, 113270, Note_off_c, 0, 57, 64
2, 113286, Note_on_c, 0, 71, 60
2, 113287, Note_on_c, 0, 79, 68
2, 113296, Control_c, 0, 64, 0
2, 113346, Control_c, 0, 64, 127
2, 113396, Note_on_c, 0, 57, 59
2, 113423, Note_off_c, 0, 81, 64
2, 113475, Note_on_c, 0, 78, 64
2, 113480, Note_off_c, 0, 57, 64
2, 113480, Note_on_c, 0, 81, 74
2, 113485, Note_on_c, 0, 69, 75
2, 113491, Note_off_c, 0, 79, 64
2, 113504, Note_off_c, 0, 71, 64
2, 113568, Note_on_c, 0, 71, 71
2, 113574, Note_on_c, 0, 79, 64
2, 113589, Note_off_c, 0, 69, 64
2, 113606, Note_off_c, 0, 78, 64
2, 113658, Note_off_c, 0, 71, 64
2, 113665, Note_on_c, 0, 78, 81
2, 113667, Note_on_c, 0, 69, 64
2, 113690, Note_off_c, 0, 79, 64
2, 113724, Note_off_c, 0, 81, 64
2, 113748, Note_on_c, 0, 57, 74
2, 113844, Note_on_c, 0, 76, 73
2, 113849, Control_c, 0, 64, 0
2, 113854, Note_on_c, 0, 67, 71
2, 113855, Note_on_c, 0, 81, 52
2, 113859, Note_off_c, 0, 78, 64
2, 113864, Note_off_c, 0, 57, 64
2, 113872, Note_off_c, 0, 69, 64
2, 113907, Control_c, 0, 64, 127
2, 113951, Note_on_c, 0, 57, 60
2, 114029, Note_on_c, 0, 66, 61
2, 114037, Note_on_c, 0, 74, 68
2, 114043, Note_off_c, 0, 76, 64
2, 114059, Note_off_c, 0, 67, 64
2, 114062, Note_off_c, 0, 57, 64
2, 114080, Note_off_c, 0, 81, 64
2, 114131, Note_on_c, 0, 57, 62
2, 114223, Note_on_c, 0, 73, 68
2, 114224, Note_on_c, 0, 64, 62
2, 114227, Note_on_c, 0, 81, 66
2, 114238, Control_c, 0, 64, 0
2, 114247, Note_off_c, 0, 66, 64
2, 114250, Note_off_c, 0, 74, 64
2, 114303, Control_c, 0, 64, 127
2, 114312, Note_on_c, 0, 66, 68
2, 114318, Note_on_c, 0, 74, 62
2, 114335, Note_off_c, 0, 57, 64
2, 114353, Note_off_c, 0, 73, 64
2, 114354, Note_off_c, 0, 64, 64
2, 114407, Note_on_c, 0, 64, 60
2, 114408, Note_on_c, 0, 73, 77
2, 114414, Note_off_c, 0, 81, 64
2, 114417, Note_off_c, 0, 66, 64
2, 114429, Note_off_c, 0, 74, 64
2, 114519, Note_on_c, 0, 57, 54
2, 114598, Note_on_c, 0, 62, 54
2, 114598, Control_c, 0, 64, 0
2, 114605, Note_on_c, 0, 71, 55
2, 114605, Note_on_c, 0, 81, 66
2, 114629, Note_off_c, 0, 73, 64
2, 114632, Note_off_c, 0, 57, 64
2, 114648, Note_off_c, 0, 64, 64
2, 114670, Control_c, 0, 64, 127
2, 114700, Note_on_c, 0, 57, 54
2, 114798, Note_on_c, 0, 69, 61
2, 114801, Note_on_c, 0, 61, 55
2, 114806, Note_off_c, 0, 71, 64
2, 114808, Note_off_c, 0, 57, 64
2, 114814, Control_c, 0, 64, 0
2, 114849, Control_c, 0, 64, 127
2, 114855, Note_off_c, 0, 62, 64
2, 114890, Note_off_c, 0, 81, 64
2, 114898, Note_on_c, 0, 57, 58
2, 114975, Note_off_c, 0, 61, 64
2, 114995, Note_on_c, 0, 71, 58
2, 114999, Note_on_c, 0, 67, 53
2, 115000, Control_c, 0, 64, 0
2, 115006, Note_on_c, 0, 81, 62
2, 115013, Note_off_c, 0, 57, 64
2, 115055, Note_off_c, 0, 69, 64
2, 115070, Control_c, 0, 64, 127
2, 115085, Note_on_c, 0, 73, 56
2, 115096, Note_off_c, 0, 71, 64
2, 115100, Note_on_c, 0, 57, 55
2, 115179, Note_off_c, 0, 57, 64
2, 115184, Control_c, 0, 64, 0
2, 115188, Note_on_c, 0, 66, 66
2, 115194, Note_on_c, 0, 74, 53
2, 115201, Control_c, 0, 64, 127
2, 115226, Note_off_c, 0, 67, 64
2, 115229, Note_off_c, 0, 73, 64
2, 115270, Note_off_c, 0, 81, 64
2, 115286, Note_on_c, 0, 57, 51
2, 115351, Note_off_c, 0, 66, 64
2, 115367, Note_off_c, 0, 57, 64
2, 115372, Note_off_c, 0, 74, 64
2, 115381, Note_on_c, 0, 76, 69
2, 115389, Note_on_c, 0, 74, 55
2, 115398, Note_on_c, 0, 60, 67
2, 115410, Control_c, 0, 64, 0
2, 115442, Control_c, 0, 64, 127
2, 115485, Note_on_c, 0, 78, 63
2, 115489, Note_on_c, 0, 50, 49
2, 115509, Note_off_c, 0, 76, 64
2, 115530, Note_off_c, 0, 60, 64
2, 115553, Note_off_c, 0, 74, 64
2, 115573, Note_off_c, 0, 50, 64
2, 115584, Note_on_c, 0, 59, 62
2, 115587, Note_on_c, 0, 79, 57
2, 115593, Note_on_c, 0, 74, 56
2, 115605, Control_c, 0, 64, 0
2, 115609, Note_off_c, 0, 78, 64
2, 115649, Control_c, 0, 64, 127
2, 115677, Note_on_c, 0, 43, 64
2, 115686, Note_off_c, 0, 59, 64
2, 115768, Note_off_c, 0, 43, 64
2, 115779, Note_off_c, 0, 74, 64
2, 115780, Note_on_c, 0, 55, 55
2, 115789, Note_on_c, 0, 83, 66
2, 115795, Note_on_c, 0, 74, 56
2, 115796, Control_c, 0, 64, 0
2, 115807, Note_off_c, 0, 79, 64
2, 115849, Control_c, 0, 64, 127
2, 115879, Note_on_c, 0, 43, 60
2, 115943, Note_off_c, 0, 55, 64
2, 115985, Note_on_c, 0, 57, 57
2, 115995, Note_on_c, 0, 73, 64
2, 115996, Note_off_c, 0, 43, 64
2, 116000, Note_on_c, 0, 76, 69
2, 116018, Note_off_c, 0, 74, 64
2, 116018, Control_c, 0, 64, 0
2, 116069, Control_c, 0, 64, 127
2, 116078, Note_off_c, 0, 83, 64
2, 116094, Note_on_c, 0, 45, 62
2, 116162, Note_off_c, 0, 57, 64
2, 116197, Note_off_c, 0, 45, 64
2, 116198, Note_on_c, 0, 55, 74
2, 116213, Control_c, 0, 64, 0
2, 116217, Note_on_c, 0, 71, 65
2, 116266, Control_c, 0, 64, 127
2, 116283, Note_off_c, 0, 73, 64
2, 116304, Note_on_c, 0, 43, 63
2, 116354, Note_off_c, 0, 55, 64
2, 116386, Note_off_c, 0, 43, 64
2, 116422, Note_on_c, 0, 78, 55
2, 116424, Note_on_c, 0, 54, 54
2, 116431, Note_on_c, 0, 70, 68
2, 116447, Note_off_c, 0, 71, 64
2, 116447, Control_c, 0, 64, 0
2, 116477, Note_off_c, 0, 76, 64
2, 116510, Control_c, 0, 64, 127
2, 116534, Note_off_c, 0, 54, 64
2, 116537, Note_on_c, 0, 42, 64
2, 116639, Note_on_c, 0, 66, 54
2, 116646, Note_off_c, 0, 42, 64
2, 116651, Note_on_c, 0, 52, 60
2, 116654, Note_off_c, 0, 70, 64
2, 116666, Control_c, 0, 64, 0
2, 116729, Control_c, 0, 64, 127
2, 116757, Note_on_c, 0, 42, 56
2, 116774, Note_off_c, 0, 52, 64
2, 116863, Note_on_c, 0, 51, 64
2, 116864, Note_on_c, 0, 71, 64
2, 116874, Control_c, 0, 64, 0
2, 116880, Note_off_c, 0, 42, 64
2, 116922, Control_c, 0, 64, 127
2, 116973, Note_on_c, 0, 42, 68
2, 116983, Note_off_c, 0, 51, 64
2, 117068, Note_off_c, 0, 66, 64
2, 117091, Note_off_c, 0, 42, 64
2, 117101, Note_on_c, 0, 73, 58
2, 117105, Note_off_c, 0, 71, 64
2, 117105, Note_on_c, 0, 54, 47
2, 117148, Note_off_c, 0, 78, 64
2, 117226, Note_on_c, 0, 42, 69
2, 117250, Note_off_c, 0, 54, 64
2, 117364, Note_off_c, 0, 42, 64
2, 117371, Note_on_c, 0, 61, 71
2, 117381, Note_on_c, 0, 78, 54
2, 117388, Note_on_c, 0, 76, 64
2, 117403, Note_off_c, 0, 73, 64
2, 117410, Control_c, 0, 64, 0
2, 117474, Control_c, 0, 64, 127
2, 117520, Note_on_c, 0, 47, 64
2, 117634, Note_off_c, 0, 61, 64
2, 117636, Note_on_c, 0, 59, 62
2, 117643, Note_on_c, 0, 75, 60
2, 117654, Note_off_c, 0, 47, 64
2, 117660, Note_off_c, 0, 76, 64
2, 117733, Note_on_c, 0, 58, 60
2, 117738, Note_on_c, 0, 73, 68
2, 117773, Note_off_c, 0, 75, 64
2, 117773, Note_off_c, 0, 59, 64
2, 117830, Note_on_c, 0, 61, 76
2, 117841, Note_on_c, 0, 76, 74
2, 117872, Note_off_c, 0, 58, 64
2, 117916, Note_off_c, 0, 73, 64
2, 117937, Note_on_c, 0, 47, 60
2, 118026, Note_off_c, 0, 47, 64
2, 118040, Note_on_c, 0, 75, 62
2, 118044, Note_on_c, 0, 59, 72
2, 118075, Note_off_c, 0, 61, 64
2, 118093, Note_off_c, 0, 76, 64
2, 118132, Note_on_c, 0, 47, 69
2, 118189, Note_off_c, 0, 47, 64
2, 118234, Note_off_c, 0, 59, 64
2, 118246, Note_on_c, 0, 83, 73
2, 118249, Note_off_c, 0, 78, 64
2, 118249, Note_on_c, 0, 35, 78
2, 118255, Control_c, 0, 64, 0
2, 118290, Control_c, 0, 64, 127
2, 118293, Note_off_c, 0, 75, 64
2, 118347, Note_on_c, 0, 47, 69
2, 118429, Note_off_c, 0, 47, 64
2, 118450, Note_on_c, 0, 75, 68
2, 118454, Note_on_c, 0, 59, 76
2, 118541, Note_off_c, 0, 35, 64
2, 118545, Note_on_c, 0, 47, 76
2, 118594, Note_off_c, 0, 47, 64
2, 118603, Note_off_c, 0, 83, 64
2, 118642, Note_on_c, 0, 61, 80
2, 118653, Note_on_c, 0, 76, 74
2, 118660, Note_off_c, 0, 59, 64
2, 118689, Note_off_c, 0, 75, 64
2, 118747, Note_on_c, 0, 47, 62
2, 118812, Control_c, 0, 64, 0
2, 118816, Note_off_c, 0, 47, 64
2, 118843, Note_on_c, 0, 78, 68
2, 118851, Note_on_c, 0, 63, 80
2, 118860, Note_off_c, 0, 61, 64
2, 118861, Control_c, 0, 64, 127
2, 118890, Note_off_c, 0, 76, 64
2, 118958, Note_on_c, 0, 59, 59
2, 119012, Note_off_c, 0, 59, 64
2, 119086, Note_on_c, 0, 68, 72
2, 119087, Note_on_c, 0, 83, 64
2, 119095, Note_on_c, 0, 71, 49
2, 119100, Control_c, 0, 64, 0
2, 119125, Note_off_c, 0, 78, 64
2, 119154, Control_c, 0, 64, 127
2, 119156, Note_off_c, 0, 63, 64
2, 119232, Note_on_c, 0, 59, 60
2, 119342, Note_on_c, 0, 82, 68
2, 119349, Note_on_c, 0, 66, 54
2, 119358, Note_off_c, 0, 59, 64
2, 119364, Note_off_c, 0, 83, 64
2, 119366, Note_off_c, 0, 68, 64
2, 119453, Note_on_c, 0, 83, 59
2, 119453, Note_on_c, 0, 68, 70
2, 119482, Note_off_c, 0, 66, 64
2, 119503, Note_off_c, 0, 82, 64
2, 119534, Control_c, 0, 64, 0
2, 119542, Note_on_c, 0, 82, 78
2, 119550, Note_on_c, 0, 66, 46
2, 119556, Note_off_c, 0, 68, 64
2, 119562, Note_off_c, 0, 83, 64
2, 119580, Control_c, 0, 64, 127
2, 119660, Note_on_c, 0, 59, 57
2, 119743, Note_off_c, 0, 59, 64
2, 119754, Note_off_c, 0, 71, 64
2, 119757, Note_on_c, 0, 80, 57
2, 119761, Note_on_c, 0, 64, 50
2, 119809, Note_off_c, 0, 82, 64
2, 119823, Note_off_c, 0, 66, 64
2, 119868, Note_on_c, 0, 59, 52
2, 119952, Note_off_c, 0, 59, 64
2, 119965, Control_c, 0, 64, 0
2, 119977, Note_on_c, 0, 78, 58
2, 119981, Note_on_c, 0, 63, 56
2, 119985, Note_on_c, 0, 71, 51
2, 120017, Note_off_c, 0, 80, 64
2, 120028, Note_off_c, 0, 64, 64
2, 120030, Control_c, 0, 64, 127
2, 120090, Note_on_c, 0, 54, 40
2, 120128, Note_off_c, 0, 63, 64
2, 120190, Note_on_c, 0, 75, 58
2, 120212, Note_on_c, 0, 59, 44
2, 120213, Note_off_c, 0, 78, 64
2, 120238, Note_off_c, 0, 54, 64
2, 120299, Note_on_c, 0, 42, 54
2, 120336, Note_off_c, 0, 59, 64
2, 120396, Note_on_c, 0, 74, 53
2, 120396, Control_c, 0, 64, 0
2, 120402, Note_on_c, 0, 59, 33
2, 120409, Note_off_c, 0, 42, 64
2, 120429, Note_off_c, 0, 75, 64
2, 120463, Control_c, 0, 64, 127
2, 120514, Note_on_c, 0, 54, 42
2, 120536, Note_off_c, 0, 59, 64
2, 120620, Note_on_c, 0, 59, 31
2, 120655, Note_off_c, 0, 54, 64
2, 120725, Note_on_c, 0, 42, 54
2, 120744, Note_off_c, 0, 59, 64
2, 120761, Note_off_c, 0, 71, 64
2, 120772, Control_c, 0, 64, 0
2, 120824, Note_off_c, 0, 42, 64
2, 120826, Note_on_c, 0, 75, 69
2, 120828, Note_on_c, 0, 59, 44
2, 120835, Note_on_c, 0, 71, 52
2, 120842, Control_c, 0, 64, 127
2, 120857, Note_off_c, 0, 74, 64
2, 120945, Note_on_c, 0, 54, 20
2, 120949, Note_off_c, 0, 59, 64
2, 120954, Note_on_c, 0, 78, 69
2, 120968, Note_off_c, 0, 75, 64
2, 121030, Note_on_c, 0, 59, 51
2, 121071, Note_off_c, 0, 54, 64
2, 121086, Note_on_c, 0, 75, 69
2, 121114, Note_on_c, 0, 42, 55
2, 121133, Note_off_c, 0, 59, 64
2, 121134, Note_off_c, 0, 78, 64
2, 121231, Note_off_c, 0, 42, 64
2, 121240, Note_on_c, 0, 74, 62
2, 121249, Note_on_c, 0, 59, 26
2, 121296, Control_c, 0, 64, 0
2, 121322, Note_off_c, 0, 75, 64
2, 121340, Control_c, 0, 64, 127
2, 121372, Note_on_c, 0, 54, 40
2, 121392, Note_off_c, 0, 59, 64
2, 121462, Note_off_c, 0, 71, 64
2, 121467, Note_on_c, 0, 59, 40
2, 121518, Note_off_c, 0, 54, 64
2, 121567, Note_on_c, 0, 42, 54
2, 121597, Note_off_c, 0, 59, 64
2, 121671, Note_on_c, 0, 75, 73
2, 121674, Note_on_c, 0, 66, 59
2, 121682, Control_c, 0, 64, 0
2, 121684, Note_off_c, 0, 74, 64
2, 121710, Note_on_c, 0, 59, 26
2, 121716, Note_off_c, 0, 42, 64
2, 121738, Control_c, 0, 64, 127
2, 121816, Note_off_c, 0, 59, 64
2, 121850, Note_on_c, 0, 54, 32
2, 121930, Note_on_c, 0, 59, 49
2, 121973, Note_off_c, 0, 54, 64
2, 121998, Note_on_c, 0, 78, 57
2, 122039, Note_off_c, 0, 75, 64
2, 122060, Note_off_c, 0, 59, 64
2, 122064, Note_on_c, 0, 42, 43
2, 122170, Note_on_c, 0, 59, 43
2, 122197, Note_off_c, 0, 42, 64
2, 122266, Note_on_c, 0, 74, 62
2, 122293, Note_on_c, 0, 54, 31
2, 122298, Note_off_c, 0, 59, 64
2, 122346, Note_off_c, 0, 78, 64
2, 122402, Note_on_c, 0, 59, 46
2, 122417, Note_off_c, 0, 54, 64
2, 122482, Note_on_c, 0, 42, 54
2, 122540, Note_off_c, 0, 66, 64
2, 122542, Note_off_c, 0, 59, 64
2, 122579, Control_c, 0, 64, 0
2, 122588, Note_on_c, 0, 73, 50
2, 122589, Note_on_c, 0, 66, 64
2, 122597, Note_on_c, 0, 59, 45
2, 122620, Note_off_c, 0, 42, 64
2, 122628, Note_off_c, 0, 74, 64
2, 122661, Control_c, 0, 64, 127
2, 122693, Note_on_c, 0, 54, 42
2, 122707, Note_off_c, 0, 59, 64
2, 122806, Note_on_c, 0, 59, 46
2, 122812, Note_off_c, 0, 54, 64
2, 122916, Note_on_c, 0, 42, 52
2, 122925, Note_off_c, 0, 59, 64
2, 123011, Control_c, 0, 64, 0
2, 123026, Note_off_c, 0, 42, 64
2, 123032, Note_on_c, 0, 58, 51
2, 123034, Note_on_c, 0, 75, 56
2, 123058, Note_off_c, 0, 73, 64
2, 123080, Control_c, 0, 64, 127
2, 123135, Note_off_c, 0, 58, 64
2, 123156, Note_on_c, 0, 54, 34
2, 123255, Note_off_c, 0, 54, 64
2, 123269, Note_on_c, 0, 58, 42
2, 123285, Note_on_c, 0, 76, 48
2, 123310, Note_off_c, 0, 75, 64
2, 123380, Note_on_c, 0, 42, 45
2, 123399, Note_off_c, 0, 58, 64
2, 123455, Note_off_c, 0, 66, 64
2, 123485, Note_off_c, 0, 42, 64
2, 123504, Note_on_c, 0, 75, 57
2, 123510, Note_on_c, 0, 59, 53
2, 123510, Control_c, 0, 64, 0
2, 123517, Note_on_c, 0, 66, 51
2, 123524, Note_off_c, 0, 76, 64
2, 123612, Note_on_c, 0, 54, 46
2, 123632, Control_c, 0, 64, 127
2, 123654, Note_off_c, 0, 59, 64
2, 123654, Control_c, 0, 64, 0
2, 123720, Note_on_c, 0, 59, 55
2, 123731, Note_off_c, 0, 54, 64
2, 123731, Control_c, 0, 64, 127
2, 123821, Note_on_c, 0, 47, 49
2, 123911, Note_off_c, 0, 59, 64
2, 123933, Note_on_c, 0, 54, 62
2, 123950, Note_off_c, 0, 47, 64
2, 124047, Note_on_c, 0, 42, 54
2, 124081, Note_off_c, 0, 54, 64
2, 124144, Note_on_c, 0, 47, 62
2, 124206, Note_off_c, 0, 42, 64
2, 124243, Note_on_c, 0, 35, 52
2, 124306, Note_off_c, 0, 47, 64
2, 124387, Control_c, 0, 64, 0
2, 124395, Note_on_c, 0, 30, 59
2, 124396, Note_on_c, 0, 78, 61
2, 124408, Note_off_c, 0, 35, 64
2, 124448, Control_c, 0, 64, 127
2, 124501, Note_off_c, 0, 75, 64
2, 124504, Note_off_c, 0, 66, 64
2, 124533, Note_off_c, 0, 30, 64
2, 124560, Note_on_c, 0, 42, 54
2, 124647, Control_c, 0, 64, 0
2, 124661, Note_on_c, 0, 66, 64
2, 124664, Note_on_c, 0, 58, 58
2, 124664, Control_c, 0, 64, 127
2, 124669, Note_off_c, 0, 42, 64
2, 124769, Note_on_c, 0, 54, 47
2, 124862, Note_off_c, 0, 54, 64
2, 124865, Note_on_c, 0, 59, 40
2, 124866, Control_c, 0, 64, 0
2, 124869, Note_off_c, 0, 58, 64
2, 124871, Note_on_c, 0, 68, 74
2, 124908, Note_off_c, 0, 66, 64
2, 124922, Control_c, 0, 64, 127
2, 124964, Note_on_c, 0, 54, 50
2, 125059, Control_c, 0, 64, 0
2, 125069, Note_on_c, 0, 61, 66
2, 125071, Note_off_c, 0, 54, 64
2, 125077, Note_on_c, 0, 70, 77
2, 125092, Note_off_c, 0, 59, 64
2, 125106, Note_off_c, 0, 78, 64
2, 125119, Control_c, 0, 64, 127
2, 125132, Note_off_c, 0, 68, 64
2, 125181, Note_on_c, 0, 54, 41
2, 125278, Note_off_c, 0, 54, 64
2, 125301, Note_on_c, 0, 62, 48
2, 125304, Control_c, 0, 64, 0
2, 125310, Note_on_c, 0, 78, 64
2, 125311, Note_on_c, 0, 71, 58
2, 125327, Note_off_c, 0, 61, 64
2, 125346, Note_off_c, 0, 70, 64
2, 125380, Control_c, 0, 64, 127
2, 125417, Note_on_c, 0, 54, 35
2, 125528, Note_on_c, 0, 61, 42
2, 125528, Note_on_c, 0, 70, 51
2, 125564, Note_off_c, 0, 71, 64
2, 125567, Note_off_c, 0, 62, 64
2, 125612, Note_off_c, 0, 54, 64
2, 125620, Note_on_c, 0, 68, 60
2, 125628, Note_on_c, 0, 59, 49
2, 125637, Note_off_c, 0, 70, 64
2, 125651, Note_off_c, 0, 61, 64
2, 125695, Note_off_c, 0, 78, 64
2, 125716, Note_on_c, 0, 71, 58
2, 125723, Note_on_c, 0, 62, 44
2, 125731, Note_off_c, 0, 68, 64
2, 125740, Note_off_c, 0, 59, 64
2, 125749, Control_c, 0, 64, 0
2, 125822, Control_c, 0, 64, 127
2, 125840, Note_on_c, 0, 54, 44
2, 125936, Note_on_c, 0, 70, 60
2, 125940, Note_on_c, 0, 61, 39
2, 125948, Note_off_c, 0, 62, 64
2, 125952, Note_off_c, 0, 71, 64
2, 125953, Note_off_c, 0, 54, 64
2, 126041, Note_on_c, 0, 54, 40
2, 126139, Control_c, 0, 64, 0
2, 126143, Note_on_c, 0, 78, 54
2, 126150, Note_on_c, 0, 42, 69
2, 126174, Note_off_c, 0, 54, 64
2, 126187, Note_off_c, 0, 70, 64
2, 126195, Note_off_c, 0, 61, 64
2, 126200, Control_c, 0, 64, 127
2, 126270, Note_on_c, 0, 54, 52
2, 126355, Note_off_c, 0, 42, 64
2, 126369, Control_c, 0, 64, 0
2, 126375, Note_on_c, 0, 59, 46
2, 126376, Note_on_c, 0, 68, 55
2, 126377, Note_off_c, 0, 54, 64
2, 126427, Control_c, 0, 64, 127
2, 126473, Note_on_c, 0, 54, 58
2, 126545, Control_c, 0, 64, 0
2, 126552, Note_off_c, 0, 54, 64
2, 126557, Note_on_c, 0, 61, 59
2, 126568, Note_on_c, 0, 70, 72
2, 126575, Control_c, 0, 64, 127
2, 126579, Note_off_c, 0, 68, 64
2, 126593, Note_off_c, 0, 59, 64
2, 126663, Note_on_c, 0, 54, 57
2, 126748, Note_off_c, 0, 78, 64
2, 126752, Note_off_c, 0, 54, 64
2, 126754, Note_on_c, 0, 62, 69
2, 126764, Note_on_c, 0, 71, 80
2, 126794, Note_off_c, 0, 70, 64
2, 126811, Note_off_c, 0, 61, 64
2, 126860, Note_on_c, 0, 54, 72
2, 126945, Note_off_c, 0, 54, 64
2, 126950, Control_c, 0, 64, 0
2, 126966, Note_on_c, 0, 66, 80
2, 126968, Note_on_c, 0, 74, 68
2, 126973, Note_on_c, 0, 83, 69
2, 126995, Note_off_c, 0, 62, 64
2, 127009, Control_c, 0, 64, 127
2, 127017, Note_off_c, 0, 71, 64
2, 127071, Note_on_c, 0, 54, 73
2, 127175, Note_on_c, 0, 73, 74
2, 127178, Note_on_c, 0, 64, 64
2, 127188, Note_off_c, 0, 54, 64
2, 127205, Note_off_c, 0, 74, 64
2, 127206, Note_off_c, 0, 66, 64
2, 127274, Note_on_c, 0, 71, 66
2, 127290, Note_on_c, 0, 62, 52
2, 127309, Note_off_c, 0, 64, 64
2, 127315, Note_off_c, 0, 73, 64
2, 127377, Note_on_c, 0, 66, 78
2, 127383, Note_on_c, 0, 74, 69
2, 127404, Note_off_c, 0, 71, 64
2, 127427, Note_off_c, 0, 62, 64
2, 127488, Note_on_c, 0, 54, 58
2, 127626, Control_c, 0, 64, 0
2, 127634, Note_on_c, 0, 81, 64
2, 127638, Note_off_c, 0, 54, 64
2, 127638, Note_on_c, 0, 64, 54
2, 127642, Note_on_c, 0, 73, 66
2, 127653, Note_off_c, 0, 66, 64
2, 127667, Note_off_c, 0, 74, 64
2, 127720, Control_c, 0, 64, 127
2, 127727, Note_off_c, 0, 83, 64
2, 127783, Note_on_c, 0, 57, 53
2, 127907, Note_off_c, 0, 57, 64
2, 127926, Note_off_c, 0, 64, 64
2, 127948, Note_on_c, 0, 45, 60
2, 127963, Note_off_c, 0, 73, 64
2, 128009, Note_off_c, 0, 81, 64
2, 128070, Note_on_c, 0, 57, 54
2, 128143, Note_off_c, 0, 45, 64
2, 128154, Note_off_c, 0, 57, 64
2, 128170, Note_on_c, 0, 61, 58
2, 128177, Note_on_c, 0, 69, 54
2, 128180, Note_on_c, 0, 81, 70
2, 128262, Note_on_c, 0, 57, 52
2, 128356, Control_c, 0, 64, 0
2, 128368, Note_on_c, 0, 66, 60
2, 128369, Note_on_c, 0, 74, 63
2, 128378, Note_off_c, 0, 57, 64
2, 128380, Note_off_c, 0, 61, 64
2, 128407, Control_c, 0, 64, 127
2, 128413, Note_off_c, 0, 69, 64
2, 128473, Note_on_c, 0, 57, 50
2, 128476, Note_off_c, 0, 81, 64
2, 128560, Note_on_c, 0, 81, 70
2, 128562, Note_off_c, 0, 57, 64
2, 128570, Note_on_c, 0, 76, 68
2, 128570, Note_on_c, 0, 67, 63
2, 128586, Control_c, 0, 64, 0
2, 128590, Note_off_c, 0, 74, 64
2, 128607, Note_off_c, 0, 66, 64
2, 128629, Control_c, 0, 64, 127
2, 128668, Note_on_c, 0, 57, 59
2, 128756, Note_off_c, 0, 57, 64
2, 128764, Note_on_c, 0, 79, 64
2, 128768, Note_off_c, 0, 76, 64
2, 128775, Note_on_c, 0, 71, 54
2, 128797, Note_off_c, 0, 67, 64
2, 128837, Note_off_c, 0, 81, 64
2, 128871, Note_on_c, 0, 57, 53
2, 128952, Control_c, 0, 64, 0
2, 128960, Note_off_c, 0, 57, 64
2, 128963, Note_on_c, 0, 78, 66
2, 128969, Note_on_c, 0, 81, 68
2, 128970, Note_on_c, 0, 69, 69
2, 128981, Note_off_c, 0, 71, 64
2, 128992, Note_off_c, 0, 79, 64
2, 129003, Control_c, 0, 64, 127
2, 129056, Note_on_c, 0, 79, 64
2, 129060, Note_off_c, 0, 78, 64
2, 129060, Note_on_c, 0, 71, 73
2, 129098, Note_off_c, 0, 69, 64
2, 129156, Note_on_c, 0, 78, 74
2, 129160, Note_on_c, 0, 69, 62
2, 129179, Note_off_c, 0, 71, 64
2, 129179, Note_off_c, 0, 79, 64
2, 129249, Note_on_c, 0, 57, 66
2, 129324, Note_off_c, 0, 81, 64
2, 129324, Control_c, 0, 64, 0
2, 129347, Note_on_c, 0, 76, 69
2, 129348, Note_on_c, 0, 81, 71
2, 129352, Note_on_c, 0, 67, 64
2, 129362, Note_off_c, 0, 57, 64
2, 129365, Note_off_c, 0, 78, 64
2, 129367, Note_off_c, 0, 69, 64
2, 129395, Control_c, 0, 64, 127
2, 129448, Note_on_c, 0, 57, 53
2, 129534, Control_c, 0, 64, 0
2, 129543, Note_on_c, 0, 66, 62
2, 129547, Note_off_c, 0, 67, 64
2, 129553, Note_on_c, 0, 74, 66
2, 129566, Note_off_c, 0, 57, 64
2, 129572, Note_off_c, 0, 76, 64
2, 129597, Note_off_c, 0, 81, 64
2, 129598, Control_c, 0, 64, 127
2, 129652, Note_on_c, 0, 57, 55
2, 129725, Note_off_c, 0, 66, 64
2, 129738, Note_on_c, 0, 73, 65
2, 129740, Note_on_c, 0, 81, 68
2, 129744, Note_on_c, 0, 64, 59
2, 129750, Control_c, 0, 64, 0
2, 129755, Note_off_c, 0, 74, 64
2, 129795, Control_c, 0, 64, 127
2, 129831, Note_on_c, 0, 66, 58
2, 129839, Note_on_c, 0, 74, 57
2, 129846, Note_off_c, 0, 73, 64
2, 129852, Note_off_c, 0, 64, 64
2, 129854, Note_off_c, 0, 57, 64
2, 129930, Note_on_c, 0, 73, 68
2, 129936, Note_on_c, 0, 64, 60
2, 129938, Note_off_c, 0, 66, 64
2, 129952, Note_off_c, 0, 74, 64
2, 130018, Note_off_c, 0, 81, 64
2, 130038, Note_on_c, 0, 57, 45
2, 130105, Control_c, 0, 64, 0
2, 130125, Note_on_c, 0, 62, 57
2, 130126, Note_on_c, 0, 81, 68
2, 130132, Note_on_c, 0, 71, 49
2, 130139, Note_off_c, 0, 57, 64
2, 130146, Note_off_c, 0, 73, 64
2, 130149, Note_off_c, 0, 64, 64
2, 130156, Control_c, 0, 64, 127
2, 130231, Note_on_c, 0, 57, 44
2, 130306, Control_c, 0, 64, 0
2, 130331, Note_on_c, 0, 69, 57
2, 130333, Note_on_c, 0, 61, 63
2, 130338, Note_off_c, 0, 57, 64
2, 130340, Note_off_c, 0, 62, 64
2, 130346, Note_off_c, 0, 71, 64
2, 130368, Control_c, 0, 64, 127
2, 130410, Note_off_c, 0, 81, 64
2, 130427, Note_on_c, 0, 57, 54
2, 130526, Control_c, 0, 64, 0
2, 130534, Note_on_c, 0, 81, 59
2, 130535, Note_on_c, 0, 67, 65
2, 130536, Note_on_c, 0, 71, 74
2, 130540, Note_off_c, 0, 57, 64
2, 130563, Note_off_c, 0, 69, 64
2, 130566, Control_c, 0, 64, 127
2, 130578, Note_off_c, 0, 61, 64
2, 130628, Note_on_c, 0, 73, 64
2, 130636, Note_on_c, 0, 57, 60
2, 130664, Note_off_c, 0, 71, 64
2, 130709, Control_c, 0, 64, 0
2, 130715, Note_off_c, 0, 57, 64
2, 130724, Note_on_c, 0, 66, 74
2, 130731, Note_on_c, 0, 74, 70
2, 130748, Note_off_c, 0, 73, 64
2, 130749, Control_c, 0, 64, 127
2, 130766, Note_off_c, 0, 67, 64
2, 130829, Note_on_c, 0, 57, 62
2, 130852, Note_off_c, 0, 81, 64
2, 130863, Note_off_c, 0, 74, 64
2, 130904, Note_off_c, 0, 57, 64
2, 130907, Note_off_c, 0, 66, 64
2, 130919, Note_on_c, 0, 76, 58
2, 130920, Control_c, 0, 64, 0
2, 130927, Note_on_c, 0, 60, 66
2, 130927, Note_on_c, 0, 74, 58
2, 130961, Control_c, 0, 64, 127
2, 131010, Note_on_c, 0, 50, 56
2, 131019, Note_on_c, 0, 78, 55
2, 131045, Note_off_c, 0, 60, 64
2, 131046, Note_off_c, 0, 76, 64
2, 131082, Note_off_c, 0, 74, 64
2, 131110, Note_off_c, 0, 50, 64
2, 131116, Control_c, 0, 64, 0
2, 131123, Note_on_c, 0, 59, 66
2, 131123, Note_on_c, 0, 79, 60
2, 131127, Note_on_c, 0, 74, 59
2, 131139, Note_off_c, 0, 78, 64
2, 131160, Control_c, 0, 64, 127
2, 131220, Note_on_c, 0, 43, 65
2, 131237, Note_off_c, 0, 59, 64
2, 131260, Note_off_c, 0, 74, 64
2, 131295, Note_off_c, 0, 43, 64
2, 131320, Note_on_c, 0, 83, 74
2, 131320, Control_c, 0, 64, 0
2, 131330, Note_on_c, 0, 74, 72
2, 131330, Note_on_c, 0, 55, 52
2, 131335, Note_off_c, 0, 79, 64
2, 131360, Control_c, 0, 64, 127
2, 131419, Note_off_c, 0, 55, 64
2, 131424, Note_on_c, 0, 43, 59
2, 131526, Note_on_c, 0, 57, 58
2, 131529, Note_on_c, 0, 73, 62
2, 131530, Note_on_c, 0, 76, 64
2, 131547, Control_c, 0, 64, 0
2, 131551, Note_off_c, 0, 43, 64
2, 131556, Note_off_c, 0, 74, 64
2, 131590, Control_c, 0, 64, 127
2, 131607, Note_off_c, 0, 83, 64
2, 131627, Note_on_c, 0, 45, 54
2, 131637, Note_off_c, 0, 57, 64
2, 131728, Note_off_c, 0, 45, 64
2, 131730, Note_on_c, 0, 55, 64
2, 131743, Note_on_c, 0, 71, 53
2, 131795, Note_off_c, 0, 73, 64
2, 131838, Note_off_c, 0, 55, 64
2, 131848, Note_on_c, 0, 43, 57
2, 131931, Note_off_c, 0, 43, 64
2, 131956, Control_c, 0, 64, 0
2, 131964, Note_on_c, 0, 54, 56
2, 131967, Note_on_c, 0, 78, 64
2, 131972, Note_on_c, 0, 70, 64
2, 131985, Note_off_c, 0, 76, 64
2, 132009, Note_off_c, 0, 71, 64
2, 132046, Control_c, 0, 64, 127
2, 132069, Note_on_c, 0, 42, 60
2, 132082, Note_off_c, 0, 54, 64
2, 132182, Note_off_c, 0, 42, 64
2, 132182, Note_on_c, 0, 66, 63
2, 132184, Note_on_c, 0, 52, 59
2, 132192, Control_c, 0, 64, 0
2, 132224, Control_c, 0, 64, 127
2, 132256, Note_off_c, 0, 70, 64
2, 132285, Note_on_c, 0, 42, 70
2, 132304, Note_off_c, 0, 52, 64
2, 132365, Control_c, 0, 64, 0
2, 132376, Note_on_c, 0, 51, 63
2, 132377, Note_on_c, 0, 71, 74
2, 132388, Note_off_c, 0, 42, 64
2, 132434, Control_c, 0, 64, 127
2, 132477, Note_on_c, 0, 42, 81
2, 132541, Note_off_c, 0, 51, 64
2, 132562, Control_c, 0, 64, 0
2, 132569, Note_off_c, 0, 42, 64
2, 132571, Note_off_c, 0, 66, 64
2, 132571, Note_on_c, 0, 73, 76
2, 132575, Note_on_c, 0, 54, 80
2, 132593, Note_off_c, 0, 78, 64
2, 132616, Note_off_c, 0, 71, 64
2, 132624, Control_c, 0, 64, 127
2, 132678, Note_on_c, 0, 42, 80
2, 132731, Note_off_c, 0, 42, 64
2, 132755, Note_off_c, 0, 54, 64
2, 132794, Note_on_c, 0, 78, 63
2, 132802, Note_on_c, 0, 76, 71
2, 132804, Note_on_c, 0, 61, 86
2, 132810, Control_c, 0, 64, 0
2, 132827, Note_off_c, 0, 73, 64
2, 132861, Control_c, 0, 64, 127
2, 132903, Note_on_c, 0, 47, 67
2, 133002, Note_off_c, 0, 47, 64
2, 133007, Note_on_c, 0, 75, 66
2, 133008, Note_on_c, 0, 59, 56
2, 133041, Note_off_c, 0, 61, 64
2, 133052, Note_off_c, 0, 76, 64
2, 133092, Note_on_c, 0, 58, 71
2, 133092, Note_on_c, 0, 73, 71
2, 133104, Note_off_c, 0, 59, 64
2, 133125, Note_off_c, 0, 75, 64
2, 133190, Note_on_c, 0, 61, 81
2, 133192, Note_off_c, 0, 78, 64
2, 133198, Note_on_c, 0, 76, 72
2, 133242, Note_off_c, 0, 73, 64
2, 133242, Note_off_c, 0, 58, 64
2, 133291, Note_on_c, 0, 47, 61
2, 133381, Note_off_c, 0, 47, 64
2, 133405, Note_on_c, 0, 59, 68
2, 133409, Note_on_c, 0, 75, 62
2, 133428, Note_off_c, 0, 76, 64
2, 133437, Note_off_c, 0, 61, 64
2, 133507, Note_on_c, 0, 47, 68
2, 133584, Note_off_c, 0, 47, 64
2, 133588, Note_off_c, 0, 75, 64
2, 133611, Note_off_c, 0, 59, 64
2, 133629, Control_c, 0, 64, 0
2, 133637, Note_on_c, 0, 83, 75
2, 133643, Note_on_c, 0, 35, 82
2, 133650, Note_on_c, 0, 71, 51
2, 133690, Control_c, 0, 64, 127
2, 133747, Note_on_c, 0, 47, 80
2, 133797, Note_off_c, 0, 35, 64
2, 133869, Note_on_c, 0, 59, 68
2, 133870, Note_on_c, 0, 75, 74
2, 133875, Note_off_c, 0, 47, 64
2, 133968, Note_on_c, 0, 47, 75
2, 134068, Note_off_c, 0, 47, 64
2, 134069, Note_on_c, 0, 61, 84
2, 134073, Note_on_c, 0, 76, 74
2, 134093, Note_off_c, 0, 75, 64
2, 134096, Note_off_c, 0, 59, 64
2, 134178, Note_on_c, 0, 47, 78
2, 134271, Control_c, 0, 64, 0
2, 134273, Note_off_c, 0, 47, 64
2, 134278, Note_on_c, 0, 78, 75
2, 134280, Note_on_c, 0, 63, 82
2, 134289, Note_off_c, 0, 76, 64
2, 134312, Note_off_c, 0, 61, 64
2, 134318, Control_c, 0, 64, 127
2, 134355, Note_off_c, 0, 71, 64
2, 134355, Note_off_c, 0, 83, 64
2, 134394, Note_on_c, 0, 59, 60
2, 134483, Note_off_c, 0, 59, 64
2, 134520, Note_on_c, 0, 83, 74
2, 134528, Note_on_c, 0, 68, 52
2, 134529, Note_on_c, 0, 71, 71
2, 134544, Control_c, 0, 64, 0
2, 134577, Note_off_c, 0, 63, 64
2, 134579, Note_off_c, 0, 78, 64
2, 134605, Control_c, 0, 64, 127
2, 134649, Note_on_c, 0, 59, 46
2, 134768, Note_on_c, 0, 66, 64
2, 134772, Note_on_c, 0, 82, 67
2, 134789, Note_off_c, 0, 68, 64
2, 134790, Note_off_c, 0, 59, 64
2, 134792, Note_off_c, 0, 83, 64
2, 134864, Note_on_c, 0, 68, 68
2, 134864, Note_on_c, 0, 83, 65
2, 134879, Note_off_c, 0, 66, 64
2, 134897, Note_off_c, 0, 82, 64
2, 134971, Note_on_c, 0, 82, 60
2, 134973, Note_on_c, 0, 66, 53
2, 134974, Note_off_c, 0, 68, 64
2, 134987, Note_off_c, 0, 83, 64
2, 135074, Note_on_c, 0, 59, 51
2, 135150, Note_off_c, 0, 59, 64
2, 135160, Note_on_c, 0, 64, 40
2, 135174, Note_on_c, 0, 80, 60
2, 135185, Note_off_c, 0, 66, 64
2, 135185, Note_off_c, 0, 82, 64
2, 135274, Note_off_c, 0, 71, 64
2, 135279, Note_on_c, 0, 59, 59
2, 135373, Control_c, 0, 64, 0
2, 135377, Note_off_c, 0, 59, 64
2, 135408, Note_on_c, 0, 63, 49
2, 135416, Note_on_c, 0, 71, 54
2, 135420, Note_on_c, 0, 78, 60
2, 135433, Note_off_c, 0, 80, 64
2, 135438, Note_off_c, 0, 64, 64
2, 135463, Control_c, 0, 64, 127
2, 135530, Note_on_c, 0, 54, 43
2, 135580, Note_off_c, 0, 63, 64
2, 135616, Note_on_c, 0, 59, 37
2, 135622, Note_on_c, 0, 75, 58
2, 135637, Note_off_c, 0, 78, 64
2, 135653, Note_off_c, 0, 54, 64
2, 135720, Note_on_c, 0, 42, 48
2, 135742, Note_off_c, 0, 59, 64
2, 135791, Control_c, 0, 64, 0
2, 135804, Note_off_c, 0, 42, 64
2, 135822, Note_on_c, 0, 74, 51
2, 135830, Note_on_c, 0, 59, 49
2, 135861, Note_off_c, 0, 75, 64
2, 135872, Control_c, 0, 64, 127
2, 135936, Note_on_c, 0, 54, 41
2, 135989, Note_off_c, 0, 59, 64
2, 136031, Note_off_c, 0, 54, 64
2, 136040, Note_on_c, 0, 59, 43
2, 136111, Note_off_c, 0, 71, 64
2, 136160, Note_on_c, 0, 42, 53
2, 136201, Note_off_c, 0, 59, 64
2, 136245, Note_off_c, 0, 42, 64
2, 136256, Note_on_c, 0, 75, 68
2, 136256, Note_on_c, 0, 59, 30
2, 136261, Control_c, 0, 64, 0
2, 136264, Note_on_c, 0, 66, 57
2, 136293, Note_off_c, 0, 74, 64
2, 136315, Control_c, 0, 64, 127
2, 136344, Note_on_c, 0, 54, 41
2, 136378, Note_off_c, 0, 59, 64
2, 136390, Note_on_c, 0, 78, 69
2, 136447, Note_off_c, 0, 75, 64
2, 136470, Note_on_c, 0, 59, 48
2, 136481, Note_off_c, 0, 54, 64
2, 136520, Note_on_c, 0, 75, 63
2, 136553, Note_off_c, 0, 78, 64
2, 136571, Note_on_c, 0, 42, 59
2, 136589, Note_off_c, 0, 59, 64
2, 136666, Note_off_c, 0, 42, 64
2, 136674, Note_on_c, 0, 74, 51
2, 136677, Note_on_c, 0, 59, 51
2, 136720, Note_off_c, 0, 75, 64
2, 136765, Control_c, 0, 64, 0
2, 136789, Note_on_c, 0, 54, 40
2, 136817, Note_off_c, 0, 59, 64
2, 136842, Control_c, 0, 64, 127
2, 136909, Note_off_c, 0, 54, 64
2, 136910, Note_on_c, 0, 59, 43
2, 137014, Note_on_c, 0, 42, 56
2, 137033, Note_off_c, 0, 59, 64
2, 137067, Note_off_c, 0, 66, 64
2, 137105, Note_off_c, 0, 42, 64
2, 137139, Note_on_c, 0, 75, 71
2, 137144, Note_on_c, 0, 66, 69
2, 137147, Note_on_c, 0, 59, 19
2, 137160, Control_c, 0, 64, 0
2, 137170, Note_off_c, 0, 74, 64
2, 137215, Control_c, 0, 64, 127
2, 137252, Note_on_c, 0, 54, 35
2, 137258, Note_off_c, 0, 59, 64
2, 137349, Note_on_c, 0, 59, 45
2, 137372, Note_off_c, 0, 54, 64
2, 137412, Note_on_c, 0, 78, 66
2, 137429, Note_off_c, 0, 75, 64
2, 137492, Note_on_c, 0, 42, 53
2, 137505, Note_off_c, 0, 59, 64
2, 137590, Note_off_c, 0, 42, 64
2, 137592, Note_on_c, 0, 59, 43
2, 137682, Note_on_c, 0, 74, 55
2, 137718, Note_off_c, 0, 59, 64
2, 137718, Note_on_c, 0, 54, 27
2, 137731, Note_off_c, 0, 78, 64
2, 137815, Note_on_c, 0, 59, 47
2, 137857, Note_off_c, 0, 54, 64
2, 137922, Note_on_c, 0, 42, 55
2, 137926, Note_off_c, 0, 66, 64
2, 137963, Note_off_c, 0, 59, 64
2, 138013, Note_off_c, 0, 42, 64
2, 138037, Note_on_c, 0, 59, 35
2, 138042, Note_on_c, 0, 73, 45
2, 138044, Note_on_c, 0, 66, 57
2, 138053, Control_c, 0, 64, 0
2, 138061, Note_off_c, 0, 74, 64
2, 138127, Control_c, 0, 64, 127
2, 138156, Note_on_c, 0, 54, 39
2, 138172, Note_off_c, 0, 59, 64
2, 138285, Note_on_c, 0, 59, 40
2, 138314, Note_off_c, 0, 54, 64
2, 138407, Note_on_c, 0, 42, 37
2, 138446, Note_off_c, 0, 59, 64
2, 138483, Control_c, 0, 64, 0
2, 138492, Note_off_c, 0, 42, 64
2, 138542, Note_on_c, 0, 75, 56
2, 138551, Note_on_c, 0, 58, 39
2, 138554, Note_off_c, 0, 73, 64
2, 138564, Control_c, 0, 64, 127
2, 138672, Note_on_c, 0, 54, 28
2, 138704, Note_off_c, 0, 58, 64
2, 138805, Note_on_c, 0, 76, 59
2, 138821, Note_on_c, 0, 58, 40
2, 138830, Note_off_c, 0, 54, 64
2, 138839, Note_off_c, 0, 75, 64
2, 138929, Note_on_c, 0, 42, 43
2, 138962, Note_off_c, 0, 58, 64
2, 139009, Note_off_c, 0, 66, 64
2, 139048, Note_off_c, 0, 42, 64
2, 139068, Control_c, 0, 64, 0
2, 139075, Note_on_c, 0, 75, 63
2, 139080, Note_on_c, 0, 66, 56
2, 139080, Note_on_c, 0, 59, 28
2, 139095, Note_off_c, 0, 76, 64
2, 139148, Control_c, 0, 64, 127
2, 139185, Note_on_c, 0, 54, 37
2, 139226, Note_off_c, 0, 59, 64
2, 139294, Note_on_c, 0, 59, 40
2, 139331, Note_off_c, 0, 54, 64
2, 139390, Note_on_c, 0, 47, 39
2, 139502, Note_on_c, 0, 54, 41
2, 139504, Note_on_c, 0, 68, 57
2, 139505, Note_off_c, 0, 59, 64
2, 139534, Note_off_c, 0, 47, 64
2, 139584, Note_off_c, 0, 66, 64
2, 139614, Note_on_c, 0, 42, 47
2, 139632, Note_off_c, 0, 54, 64
2, 139713, Note_on_c, 0, 69, 52
2, 139716, Note_on_c, 0, 47, 40
2, 139746, Note_off_c, 0, 68, 64
2, 139768, Note_off_c, 0, 42, 64
2, 139820, Note_on_c, 0, 35, 35
2, 139848, Note_off_c, 0, 47, 64
2, 139929, Note_off_c, 0, 35, 64
2, 139944, Note_on_c, 0, 73, 68
2, 139944, Note_on_c, 0, 68, 51
2, 139944, Note_on_c, 0, 59, 44
2, 139952, Note_off_c, 0, 69, 64
2, 139953, Control_c, 0, 64, 0
2, 139970, Control_c, 0, 64, 127
2, 140015, Note_off_c, 0, 75, 64
2, 140064, Note_on_c, 0, 52, 32
2, 140086, Control_c, 0, 64, 0
2, 140089, Note_off_c, 0, 59, 64
2, 140148, Control_c, 0, 64, 127
2, 140154, Note_on_c, 0, 59, 46
2, 140210, Note_off_c, 0, 52, 64
2, 140265, Note_on_c, 0, 47, 35
2, 140304, Note_off_c, 0, 59, 64
2, 140358, Note_on_c, 0, 75, 67
2, 140363, Note_on_c, 0, 67, 60
2, 140372, Note_on_c, 0, 52, 44
2, 140374, Note_off_c, 0, 68, 64
2, 140379, Note_off_c, 0, 73, 64
2, 140408, Note_off_c, 0, 47, 64
2, 140457, Note_on_c, 0, 40, 40
2, 140531, Note_off_c, 0, 52, 64
2, 140568, Note_on_c, 0, 76, 68
2, 140573, Note_on_c, 0, 47, 35
2, 140598, Note_off_c, 0, 75, 64
2, 140600, Note_off_c, 0, 40, 64
2, 140667, Note_on_c, 0, 35, 42
2, 140682, Note_off_c, 0, 47, 64
2, 140757, Control_c, 0, 64, 0
2, 140780, Note_on_c, 0, 75, 62
2, 140783, Note_on_c, 0, 66, 57
2, 140783, Note_on_c, 0, 59, 42
2, 140796, Control_c, 0, 64, 127
2, 140799, Note_off_c, 0, 76, 64
2, 140803, Note_off_c, 0, 67, 64
2, 140828, Note_off_c, 0, 35, 64
2, 140875, Note_on_c, 0, 54, 32
2, 140910, Note_off_c, 0, 59, 64
2, 140946, Control_c, 0, 64, 0
2, 140968, Control_c, 0, 64, 127
2, 140994, Note_on_c, 0, 59, 31
2, 141008, Note_off_c, 0, 54, 64
2, 141092, Note_on_c, 0, 47, 39
2, 141139, Note_off_c, 0, 59, 64
2, 141195, Note_on_c, 0, 74, 43
2, 141198, Note_on_c, 0, 68, 52
2, 141203, Note_on_c, 0, 54, 36
2, 141205, Note_off_c, 0, 75, 64
2, 141243, Note_off_c, 0, 47, 64
2, 141252, Note_off_c, 0, 66, 64
2, 141289, Note_on_c, 0, 42, 46
2, 141326, Note_off_c, 0, 54, 64
2, 141402, Note_on_c, 0, 69, 47
2, 141408, Note_on_c, 0, 47, 40
2, 141419, Note_off_c, 0, 42, 64
2, 141438, Note_off_c, 0, 68, 64
2, 141508, Note_on_c, 0, 35, 42
2, 141570, Note_off_c, 0, 47, 64
2, 141628, Control_c, 0, 64, 0
2, 141636, Note_on_c, 0, 68, 43
2, 141642, Note_on_c, 0, 73, 57
2, 141646, Note_on_c, 0, 59, 30
2, 141650, Note_off_c, 0, 69, 64
2, 141668, Note_off_c, 0, 74, 64
2, 141680, Note_off_c, 0, 35, 64
2, 141734, Control_c, 0, 64, 127
2, 141744, Note_on_c, 0, 53, 34
2, 141783, Note_off_c, 0, 59, 64
2, 141852, Note_on_c, 0, 59, 36
2, 141909, Note_off_c, 0, 53, 64
2, 141959, Note_on_c, 0, 47, 36
2, 141993, Note_off_c, 0, 59, 64
2, 142061, Control_c, 0, 64, 0
2, 142074, Note_on_c, 0, 52, 43
2, 142074, Note_on_c, 0, 75, 50
2, 142078, Note_on_c, 0, 67, 35
2, 142090, Control_c, 0, 64, 127
2, 142104, Note_off_c, 0, 73, 64
2, 142112, Note_off_c, 0, 68, 64
2, 142139, Note_off_c, 0, 47, 64
2, 142186, Note_on_c, 0, 40, 36
2, 142225, Note_off_c, 0, 52, 64
2, 142303, Note_on_c, 0, 47, 37
2, 142310, Note_on_c, 0, 76, 54
2, 142322, Note_off_c, 0, 75, 64
2, 142352, Note_off_c, 0, 40, 64
2, 142422, Note_on_c, 0, 40, 35
2, 142447, Note_off_c, 0, 47, 64
2, 142555, Note_off_c, 0, 40, 64
2, 142568, Note_on_c, 0, 66, 36
2, 142576, Note_on_c, 0, 75, 48
2, 142581, Note_on_c, 0, 59, 19
2, 142594, Control_c, 0, 64, 0
2, 142595, Note_off_c, 0, 67, 64
2, 142620, Note_off_c, 0, 76, 64
2, 142667, Control_c, 0, 64, 127
2, 142687, Note_on_c, 0, 54, 34
2, 142709, Note_off_c, 0, 59, 64
2, 142734, Control_c, 0, 64, 0
2, 142803, Note_on_c, 0, 59, 37
2, 142837, Note_off_c, 0, 54, 64
2, 142862, Control_c, 0, 64, 127
2, 142904, Note_on_c, 0, 47, 34
2, 143007, Note_on_c, 0, 54, 36
2, 143010, Note_off_c, 0, 59, 64
2, 143033, Note_off_c, 0, 47, 64
2, 143116, Note_on_c, 0, 42, 43
2, 143172, Note_off_c, 0, 54, 64
2, 143218, Note_on_c, 0, 47, 28
2, 143270, Note_off_c, 0, 42, 64
2, 143306, Note_off_c, 0, 75, 64
2, 143312, Note_on_c, 0, 35, 34
2, 143343, Note_off_c, 0, 66, 64
2, 143344, Note_off_c, 0, 47, 64
2, 143412, Control_c, 0, 64, 0
2, 143423, Note_on_c, 0, 66, 48
2, 143424, Note_on_c, 0, 75, 51
2, 143425, Note_on_c, 0, 78, 41
2, 143432, Note_on_c, 0, 59, 35
2, 143471, Note_off_c, 0, 35, 64
2, 143550, Control_c, 0, 64, 127
2, 143560, Note_on_c, 0, 54, 32
2, 143574, Control_c, 0, 64, 0
2, 143606, Note_off_c, 0, 59, 64
2, 143641, Control_c, 0, 64, 127
2, 143672, Note_on_c, 0, 59, 39
2, 143726, Note_off_c, 0, 54, 64
2, 143808, Note_on_c, 0, 47, 32
2, 143884, Note_off_c, 0, 59, 64
2, 143936, Note_off_c, 0, 47, 64
2, 143936, Note_on_c, 0, 54, 32
2, 144056, Note_on_c, 0, 42, 39
2, 144073, Note_off_c, 0, 54, 64
2, 144152, Note_off_c, 0, 75, 64
2, 144212, Note_off_c, 0, 78, 64
2, 144218, Note_off_c, 0, 42, 64
2, 144224, Note_off_c, 0, 66, 64
2, 144224, Note_on_c, 0, 47, 32
2, 144315, Control_c, 0, 64, 0
2, 144374, Note_off_c, 0, 47, 64
2, 144400, Note_on_c, 0, 35, 24
2, 144402, Control_c, 0, 64, 127
2, 144539, Note_off_c, 0, 35, 64
2, 144736, Note_on_c, 0, 78, 48
2, 144744, Note_on_c, 0, 66, 38
2, 144744, Note_on_c, 0, 74, 44
2, 146540, Note_off_c, 0, 78, 64
2, 146548, Note_off_c, 0, 74, 64
2, 146548, Note_off_c, 0, 66, 64
2, 147036, Note_on_c, 0, 78, 80
2, 147041, Note_on_c, 0, 66, 70
2, 147041, Control_c, 0, 64, 0
2, 147115, Control_c, 0, 64, 127
2, 147289, Note_off_c, 0, 66, 64
2, 147293, Note_off_c, 0, 78, 64
2, 147306, Note_on_c, 0, 73, 68
2, 147338, Note_on_c, 0, 74, 64
2, 147350, Note_off_c, 0, 73, 64
2, 147362, Note_on_c, 0, 76, 52
2, 147383, Note_off_c, 0, 74, 64
2, 147403, Control_c, 0, 64, 0
2, 147412, Note_on_c, 0, 74, 73
2, 147412, Note_on_c, 0, 65, 57
2, 147442, Note_off_c, 0, 76, 64
2, 147468, Note_on_c, 0, 47, 34
2, 147472, Note_on_c, 0, 59, 43
2, 147476, Control_c, 0, 64, 127
2, 147490, Note_off_c, 0, 74, 64
2, 147555, Note_on_c, 0, 56, 51
2, 147632, Note_off_c, 0, 59, 64
2, 147636, Note_on_c, 0, 71, 58
2, 147645, Note_on_c, 0, 53, 51
2, 147653, Note_off_c, 0, 47, 64
2, 147653, Note_off_c, 0, 65, 64
2, 147660, Note_off_c, 0, 56, 64
2, 147688, Note_off_c, 0, 53, 64
2, 147720, Note_on_c, 0, 70, 71
2, 147726, Note_on_c, 0, 64, 67
2, 147732, Note_off_c, 0, 71, 64
2, 147750, Control_c, 0, 64, 0
2, 147788, Note_on_c, 0, 54, 61
2, 147804, Note_on_c, 0, 42, 49
2, 147828, Control_c, 0, 64, 127
2, 147869, Note_on_c, 0, 49, 45
2, 147882, Note_off_c, 0, 42, 64
2, 147902, Note_off_c, 0, 54, 64
2, 147925, Note_off_c, 0, 70, 64
2, 147954, Note_on_c, 0, 46, 51
2, 147955, Note_off_c, 0, 49, 64
2, 147955, Note_on_c, 0, 73, 65
2, 147987, Note_off_c, 0, 64, 64
2, 148004, Note_off_c, 0, 46, 64
2, 148025, Note_off_c, 0, 73, 64
2, 148032, Note_on_c, 0, 66, 69
2, 148035, Note_on_c, 0, 62, 67
2, 148067, Control_c, 0, 64, 0
2, 148108, Note_on_c, 0, 35, 29
2, 148110, Note_on_c, 0, 47, 42
2, 148144, Control_c, 0, 64, 127
2, 148162, Note_off_c, 0, 35, 64
2, 148182, Note_on_c, 0, 42, 54
2, 148227, Note_off_c, 0, 47, 64
2, 148235, Note_off_c, 0, 62, 64
2, 148235, Note_off_c, 0, 66, 64
2, 148268, Note_on_c, 0, 68, 52
2, 148276, Note_on_c, 0, 38, 44
2, 148280, Note_off_c, 0, 42, 64
2, 148339, Note_off_c, 0, 68, 64
2, 148340, Note_off_c, 0, 38, 64
2, 148354, Note_on_c, 0, 70, 60
2, 148356, Note_on_c, 0, 61, 74
2, 148357, Control_c, 0, 64, 0
2, 148412, Note_on_c, 0, 30, 40
2, 148414, Note_on_c, 0, 42, 70
2, 148438, Control_c, 0, 64, 127
2, 148476, Note_off_c, 0, 61, 64
2, 148477, Note_off_c, 0, 30, 64
2, 148515, Note_on_c, 0, 37, 49
2, 148531, Note_off_c, 0, 42, 64
2, 148551, Note_off_c, 0, 70, 64
2, 148584, Note_on_c, 0, 34, 50
2, 148584, Note_on_c, 0, 66, 68
2, 148590, Note_off_c, 0, 37, 64
2, 148640, Note_off_c, 0, 34, 64
2, 148664, Note_on_c, 0, 76, 62
2, 148664, Note_on_c, 0, 64, 60
2, 148665, Note_off_c, 0, 66, 64
2, 148667, Note_on_c, 0, 73, 58
2, 148681, Control_c, 0, 64, 0
2, 148737, Control_c, 0, 64, 127
2, 148748, Note_on_c, 0, 66, 75
2, 148748, Note_on_c, 0, 47, 62
2, 148752, Note_on_c, 0, 35, 62
2, 148754, Note_off_c, 0, 73, 64
2, 148762, Note_off_c, 0, 76, 64
2, 148765, Control_c, 0, 64, 127
2, 148773, Note_off_c, 0, 64, 64
2, 148816, Note_on_c, 0, 42, 58
2, 148824, Note_off_c, 0, 66, 64
2, 148835, Note_on_c, 0, 74, 70
2, 148839, Note_on_c, 0, 71, 62
2, 148840, Note_on_c, 0, 62, 75
2, 148859, Note_off_c, 0, 47, 64
2, 148863, Note_off_c, 0, 35, 64
2, 148885, Note_off_c, 0, 62, 64
2, 148902, Note_off_c, 0, 74, 64
2, 148907, Note_on_c, 0, 66, 77
2, 148918, Note_off_c, 0, 71, 64
2, 148921, Note_off_c, 0, 42, 64
2, 148923, Note_on_c, 0, 38, 49
2, 148967, Note_off_c, 0, 38, 64
2, 148975, Control_c, 0, 64, 0
2, 148978, Note_off_c, 0, 66, 64
2, 148992, Note_on_c, 0, 61, 77
2, 148994, Note_on_c, 0, 70, 64
2, 148995, Note_on_c, 0, 73, 79
2, 149061, Note_on_c, 0, 42, 76
2, 149061, Control_c, 0, 64, 127
2, 149065, Note_on_c, 0, 54, 76
2, 149065, Control_c, 0, 64, 127
2, 149128, Note_on_c, 0, 49, 49
2, 149183, Note_off_c, 0, 42, 64
2, 149186, Note_on_c, 0, 46, 53
2, 149187, Note_off_c, 0, 54, 64
2, 149212, Note_off_c, 0, 49, 64
2, 149220, Note_off_c, 0, 61, 64
2, 149229, Note_off_c, 0, 46, 64
2, 149240, Note_on_c, 0, 66, 65
2, 149247, Note_off_c, 0, 73, 64
2, 149257, Note_off_c, 0, 70, 64
2, 149270, Note_off_c, 0, 66, 64
2, 149316, Control_c, 0, 64, 0
2, 149320, Note_on_c, 0, 76, 79
2, 149320, Note_on_c, 0, 79, 79
2, 149326, Note_on_c, 0, 67, 68
2, 149374, Note_off_c, 0, 67, 64
2, 149377, Control_c, 0, 64, 127
2, 149388, Note_off_c, 0, 79, 64
2, 149388, Note_off_c, 0, 76, 64
2, 149397, Note_on_c, 0, 71, 70
2, 149406, Note_on_c, 0, 52, 66
2, 149408, Note_on_c, 0, 40, 76
2, 149465, Note_on_c, 0, 78, 73
2, 149474, Note_on_c, 0, 66, 81
2, 149477, Note_on_c, 0, 74, 68
2, 149484, Note_on_c, 0, 47, 65
2, 149489, Note_off_c, 0, 71, 64
2, 149518, Note_off_c, 0, 52, 64
2, 149535, Note_off_c, 0, 78, 64
2, 149542, Note_off_c, 0, 66, 64
2, 149546, Note_off_c, 0, 40, 64
2, 149551, Note_off_c, 0, 74, 64
2, 149556, Note_on_c, 0, 71, 71
2, 149558, Note_on_c, 0, 43, 68
2, 149579, Note_off_c, 0, 47, 64
2, 149609, Note_off_c, 0, 43, 64
2, 149613, Note_off_c, 0, 71, 64
2, 149628, Control_c, 0, 64, 0
2, 149640, Note_on_c, 0, 76, 76
2, 149644, Note_on_c, 0, 73, 82
2, 149648, Note_on_c, 0, 45, 76
2, 149650, Note_on_c, 0, 57, 80
2, 149650, Note_on_c, 0, 64, 80
2, 149692, Note_off_c, 0, 64, 64
2, 149700, Note_off_c, 0, 76, 64
2, 149705, Control_c, 0, 64, 127
2, 149712, Note_off_c, 0, 73, 64
2, 149816, Note_on_c, 0, 73, 4
2, 149820, Note_on_c, 0, 81, 70
2, 149820, Note_on_c, 0, 69, 68
2, 149824, Note_on_c, 0, 76, 83
2, 149845, Note_off_c, 0, 45, 64
2, 149847, Note_off_c, 0, 57, 64
2, 149853, Note_on_c, 0, 52, 62
2, 149881, Note_on_c, 0, 53, 71
2, 149911, Note_on_c, 0, 55, 73
2, 149916, Note_off_c, 0, 52, 64
2, 149927, Note_off_c, 0, 53, 64
2, 149943, Note_off_c, 0, 55, 64
2, 149951, Control_c, 0, 64, 0
2, 149973, Note_on_c, 0, 53, 80
2, 149980, Note_on_c, 0, 41, 33
2, 149985, Note_off_c, 0, 76, 64
2, 149989, Note_off_c, 0, 69, 64
2, 150003, Note_off_c, 0, 73, 64
2, 150015, Note_off_c, 0, 81, 64
2, 150026, Control_c, 0, 64, 127
2, 150108, Note_off_c, 0, 53, 64
2, 150115, Note_off_c, 0, 41, 64
2, 150116, Note_on_c, 0, 81, 66
2, 150120, Note_on_c, 0, 77, 68
2, 150125, Note_on_c, 0, 69, 62
2, 150125, Note_on_c, 0, 74, 68
2, 150178, Note_on_c, 0, 50, 76
2, 150187, Note_on_c, 0, 38, 62
2, 150208, Note_off_c, 0, 38, 64
2, 150222, Note_off_c, 0, 50, 64
2, 150245, Note_off_c, 0, 74, 64
2, 150247, Note_off_c, 0, 77, 64
2, 150253, Note_off_c, 0, 81, 64
2, 150254, Control_c, 0, 64, 0
2, 150262, Note_off_c, 0, 69, 64
2, 150268, Note_on_c, 0, 37, 88
2, 150272, Note_on_c, 0, 49, 84
2, 150326, Control_c, 0, 64, 127
2, 150343, Note_on_c, 0, 67, 64
2, 150348, Note_on_c, 0, 76, 71
2, 150375, Note_off_c, 0, 67, 64
2, 150404, Note_off_c, 0, 76, 64
2, 150405, Note_off_c, 0, 37, 64
2, 150419, Note_off_c, 0, 49, 64
2, 150427, Note_on_c, 0, 77, 73
2, 150434, Note_on_c, 0, 69, 64
2, 150480, Note_off_c, 0, 69, 64
2, 150489, Note_on_c, 0, 57, 67
2, 150494, Note_on_c, 0, 49, 69
2, 150498, Note_on_c, 0, 52, 68
2, 150502, Note_on_c, 0, 79, 68
2, 150504, Note_on_c, 0, 70, 73
2, 150514, Note_off_c, 0, 77, 64
2, 150521, Note_off_c, 0, 57, 64
2, 150528, Note_off_c, 0, 52, 64
2, 150532, Control_c, 0, 64, 0
2, 150537, Note_off_c, 0, 70, 64
2, 150537, Note_off_c, 0, 49, 64
2, 150541, Note_off_c, 0, 79, 64
2, 150580, Note_on_c, 0, 50, 80
2, 150581, Note_on_c, 0, 38, 86
2, 150602, Control_c, 0, 64, 127
2, 150660, Note_on_c, 0, 77, 68
2, 150660, Note_on_c, 0, 69, 75
2, 150702, Note_off_c, 0, 77, 64
2, 150706, Note_off_c, 0, 69, 64
2, 150738, Note_off_c, 0, 50, 64
2, 150739, Note_on_c, 0, 73, 82
2, 150745, Note_on_c, 0, 64, 76
2, 150772, Note_off_c, 0, 38, 64
2, 150801, Note_on_c, 0, 50, 66
2, 150804, Note_on_c, 0, 56, 54
2, 150806, Note_on_c, 0, 59, 60
2, 150807, Note_on_c, 0, 74, 68
2, 150813, Note_on_c, 0, 65, 52
2, 150828, Note_off_c, 0, 73, 64
2, 150830, Note_off_c, 0, 64, 64
2, 150843, Note_off_c, 0, 65, 64
2, 150851, Note_off_c, 0, 50, 64
2, 150854, Note_off_c, 0, 56, 64
2, 150856, Note_off_c, 0, 59, 64
2, 150857, Note_off_c, 0, 74, 64
2, 150858, Control_c, 0, 64, 0
2, 150889, Note_on_c, 0, 45, 84
2, 150891, Note_on_c, 0, 33, 80
2, 150926, Control_c, 0, 64, 127
2, 150970, Note_on_c, 0, 73, 69
2, 150974, Note_on_c, 0, 76, 69
2, 150974, Note_on_c, 0, 64, 71
2, 151008, Note_off_c, 0, 64, 64
2, 151039, Note_off_c, 0, 73, 64
2, 151053, Note_on_c, 0, 68, 84
2, 151065, Note_off_c, 0, 76, 64
2, 151092, Note_off_c, 0, 33, 64
2, 151095, Note_on_c, 0, 37, 70
2, 151100, Note_off_c, 0, 45, 64
2, 151114, Note_off_c, 0, 68, 64
2, 151122, Note_on_c, 0, 69, 77
2, 151138, Note_off_c, 0, 37, 64
2, 151155, Control_c, 0, 64, 0
2, 151169, Note_off_c, 0, 69, 64
2, 151191, Note_on_c, 0, 38, 84
2, 151192, Note_on_c, 0, 50, 84
2, 151216, Control_c, 0, 64, 127
2, 151272, Note_on_c, 0, 76, 68
2, 151276, Note_on_c, 0, 67, 71
2, 151276, Note_on_c, 0, 79, 68
2, 151314, Note_off_c, 0, 79, 64
2, 151321, Note_off_c, 0, 67, 64
2, 151322, Note_off_c, 0, 76, 64
2, 151356, Note_on_c, 0, 69, 74
2, 151411, Note_on_c, 0, 44, 76
2, 151419, Note_on_c, 0, 74, 64
2, 151422, Note_on_c, 0, 65, 75
2, 151423, Note_off_c, 0, 38, 64
2, 151429, Note_off_c, 0, 50, 64
2, 151432, Note_off_c, 0, 69, 64
2, 151432, Note_on_c, 0, 77, 68
2, 151454, Note_off_c, 0, 44, 64
2, 151464, Note_off_c, 0, 74, 64
2, 151465, Note_off_c, 0, 65, 64
2, 151469, Note_off_c, 0, 77, 64
2, 151471, Control_c, 0, 64, 0
2, 151510, Note_on_c, 0, 45, 81
2, 151510, Note_on_c, 0, 57, 86
2, 151539, Control_c, 0, 64, 127
2, 151578, Note_on_c, 0, 73, 74
2, 151578, Note_on_c, 0, 64, 69
2, 151581, Note_on_c, 0, 76, 69
2, 151618, Note_off_c, 0, 64, 64
2, 151638, Note_off_c, 0, 73, 64
2, 151660, Note_on_c, 0, 68, 84
2, 151663, Note_off_c, 0, 76, 64
2, 151719, Note_on_c, 0, 49, 60
2, 151726, Note_off_c, 0, 68, 64
2, 151728, Note_on_c, 0, 69, 73
2, 151734, Note_off_c, 0, 45, 64
2, 151743, Control_c, 0, 64, 0
2, 151757, Note_off_c, 0, 57, 64
2, 151769, Note_off_c, 0, 69, 64
2, 151795, Note_off_c, 0, 49, 64
2, 151801, Note_on_c, 0, 50, 80
2, 151806, Note_on_c, 0, 43, 86
2, 151814, Control_c, 0, 64, 127
2, 151866, Note_off_c, 0, 50, 64
2, 151881, Note_off_c, 0, 43, 64
2, 151884, Note_on_c, 0, 62, 77
2, 151884, Note_on_c, 0, 79, 86
2, 151885, Note_on_c, 0, 82, 77
2, 151895, Note_on_c, 0, 70, 84
2, 151922, Note_off_c, 0, 79, 64
2, 151930, Note_off_c, 0, 70, 64
2, 151955, Note_off_c, 0, 82, 64
2, 151971, Note_on_c, 0, 74, 70
2, 151978, Note_on_c, 0, 58, 64
2, 151981, Note_off_c, 0, 62, 64
2, 152032, Note_off_c, 0, 74, 64
2, 152044, Note_on_c, 0, 55, 64
2, 152048, Note_on_c, 0, 69, 75
2, 152054, Note_on_c, 0, 81, 64
2, 152055, Note_off_c, 0, 58, 64
2, 152055, Note_on_c, 0, 77, 64
2, 152082, Note_off_c, 0, 69, 64
2, 152083, Note_off_c, 0, 77, 64
2, 152086, Note_off_c, 0, 81, 64
2, 152099, Note_off_c, 0, 55, 64
2, 152107, Control_c, 0, 64, 0
2, 152135, Note_on_c, 0, 48, 82
2, 152137, Note_on_c, 0, 60, 84
2, 152138, Note_on_c, 0, 76, 81
2, 152144, Note_on_c, 0, 67, 80
2, 152147, Note_on_c, 0, 79, 66
2, 152174, Control_c, 0, 64, 127
2, 152184, Note_off_c, 0, 67, 64
2, 152203, Note_off_c, 0, 79, 64
2, 152204, Note_off_c, 0, 76, 64
2, 152303, Note_off_c, 0, 60, 64
2, 152312, Note_on_c, 0, 72, 55
2, 152316, Note_on_c, 0, 84, 75
2, 152316, Note_on_c, 0, 76, 84
2, 152318, Note_on_c, 0, 79, 85
2, 152340, Note_on_c, 0, 55, 52
2, 152350, Note_off_c, 0, 48, 64
2, 152364, Note_on_c, 0, 56, 77
2, 152400, Note_on_c, 0, 58, 78
2, 152408, Note_off_c, 0, 55, 64
2, 152421, Note_off_c, 0, 76, 64
2, 152425, Note_off_c, 0, 79, 64
2, 152433, Note_off_c, 0, 84, 64
2, 152434, Note_off_c, 0, 56, 64
2, 152447, Note_off_c, 0, 72, 64
2, 152454, Control_c, 0, 64, 0
2, 152463, Note_on_c, 0, 44, 88
2, 152463, Note_on_c, 0, 56, 101
2, 152470, Note_off_c, 0, 58, 64
2, 152510, Control_c, 0, 64, 127
2, 152589, Note_off_c, 0, 56, 64
2, 152597, Note_off_c, 0, 44, 64
2, 152629, Note_on_c, 0, 72, 65
2, 152629, Note_on_c, 0, 77, 71
2, 152629, Note_on_c, 0, 80, 68
2, 152629, Note_on_c, 0, 84, 70
2, 152688, Note_on_c, 0, 53, 82
2, 152693, Note_on_c, 0, 41, 68
2, 152710, Note_off_c, 0, 72, 64
2, 152713, Note_off_c, 0, 77, 64
2, 152725, Note_off_c, 0, 41, 64
2, 152726, Note_off_c, 0, 53, 64
2, 152728, Note_off_c, 0, 84, 64
2, 152742, Note_off_c, 0, 80, 64
2, 152750, Control_c, 0, 64, 0
2, 152774, Note_on_c, 0, 37, 95
2, 152779, Note_on_c, 0, 49, 101
2, 152819, Control_c, 0, 64, 127
2, 152928, Note_off_c, 0, 37, 64
2, 152931, Note_off_c, 0, 49, 64
2, 152944, Note_on_c, 0, 73, 60
2, 152944, Note_on_c, 0, 83, 71
2, 152948, Note_on_c, 0, 77, 60
2, 152948, Note_on_c, 0, 80, 60
2, 152949, Note_on_c, 0, 85, 71
2, 152992, Note_on_c, 0, 44, 52
2, 153004, Note_on_c, 0, 45, 101
2, 153036, Note_off_c, 0, 44, 64
2, 153045, Note_on_c, 0, 47, 84
2, 153073, Control_c, 0, 64, 0
2, 153080, Note_off_c, 0, 45, 64
2, 153092, Note_on_c, 0, 45, 48
2, 153098, Note_on_c, 0, 33, 101
2, 153102, Note_off_c, 0, 73, 64
2, 153106, Note_off_c, 0, 47, 64
2, 153106, Note_off_c, 0, 80, 64
2, 153106, Note_off_c, 0, 77, 64
2, 153111, Note_off_c, 0, 83, 64
2, 153116, Note_off_c, 0, 85, 64
2, 153130, Control_c, 0, 64, 127
2, 153213, Note_off_c, 0, 45, 64
2, 153219, Note_off_c, 0, 33, 64
2, 153254, Note_on_c, 0, 81, 82
2, 153256, Note_on_c, 0, 78, 85
2, 153260, Note_on_c, 0, 73, 80
2, 153261, Note_on_c, 0, 85, 73
2, 153323, Note_on_c, 0, 42, 96
2, 153331, Note_on_c, 0, 30, 78
2, 153352, Note_off_c, 0, 30, 64
2, 153358, Note_off_c, 0, 42, 64
2, 153385, Control_c, 0, 64, 0
2, 153416, Note_on_c, 0, 38, 85
2, 153416, Note_on_c, 0, 26, 85
2, 153432, Note_off_c, 0, 73, 64
2, 153433, Control_c, 0, 64, 127
2, 153433, Control_c, 0, 64, 127
2, 153439, Note_off_c, 0, 78, 64
2, 153466, Note_off_c, 0, 81, 64
2, 153494, Note_off_c, 0, 85, 64
2, 153565, Note_on_c, 0, 90, 84
2, 153568, Note_on_c, 0, 78, 80
2, 153573, Note_on_c, 0, 85, 84
2, 153602, Note_off_c, 0, 90, 64
2, 153604, Note_off_c, 0, 78, 64
2, 153606, Note_off_c, 0, 85, 64
2, 153626, Note_on_c, 0, 57, 70
2, 153628, Note_off_c, 0, 26, 64
2, 153628, Note_off_c, 0, 38, 64
2, 153630, Note_on_c, 0, 50, 62
2, 153635, Note_on_c, 0, 54, 64
2, 153663, Note_off_c, 0, 50, 64
2, 153665, Note_off_c, 0, 57, 64
2, 153671, Note_off_c, 0, 54, 64
2, 153702, Control_c, 0, 64, 0
2, 153719, Note_on_c, 0, 86, 81
2, 153724, Note_on_c, 0, 32, 78
2, 153724, Note_on_c, 0, 78, 80
2, 153726, Note_on_c, 0, 44, 93
2, 153726, Note_on_c, 0, 74, 82
2, 153755, Control_c, 0, 64, 127
2, 153769, Note_off_c, 0, 74, 64
2, 153769, Note_off_c, 0, 78, 64
2, 153776, Note_off_c, 0, 86, 64
2, 153875, Note_off_c, 0, 32, 64
2, 153884, Note_on_c, 0, 74, 78
2, 153888, Note_on_c, 0, 71, 50
2, 153889, Note_on_c, 0, 83, 70
2, 153892, Note_off_c, 0, 44, 64
2, 153936, Note_on_c, 0, 56, 71
2, 153940, Note_off_c, 0, 83, 64
2, 153940, Note_on_c, 0, 50, 40
2, 153940, Note_on_c, 0, 54, 40
2, 153946, Note_off_c, 0, 74, 64
2, 153952, Note_off_c, 0, 71, 64
2, 153986, Note_off_c, 0, 56, 64
2, 153989, Note_off_c, 0, 54, 64
2, 153989, Note_off_c, 0, 50, 64
2, 153992, Control_c, 0, 64, 0
2, 154027, Note_on_c, 0, 85, 85
2, 154028, Note_on_c, 0, 29, 85
2, 154028, Note_on_c, 0, 41, 85
2, 154031, Note_on_c, 0, 73, 83
2, 154031, Note_on_c, 0, 80, 83
2, 154054, Control_c, 0, 64, 127
2, 154064, Note_off_c, 0, 73, 64
2, 154071, Note_off_c, 0, 80, 64
2, 154073, Note_off_c, 0, 85, 64
2, 154186, Note_on_c, 0, 81, 71
2, 154192, Note_on_c, 0, 73, 62
2, 154192, Note_on_c, 0, 69, 41
2, 154213, Note_off_c, 0, 69, 64
2, 154214, Note_off_c, 0, 41, 64
2, 154214, Note_off_c, 0, 29, 64
2, 154215, Note_off_c, 0, 73, 64
2, 154227, Note_off_c, 0, 81, 64
2, 154256, Note_on_c, 0, 57, 65
2, 154260, Note_on_c, 0, 53, 67
2, 154264, Note_on_c, 0, 49, 67
2, 154299, Control_c, 0, 64, 0
2, 154308, Note_off_c, 0, 57, 64
2, 154313, Note_off_c, 0, 53, 64
2, 154317, Note_off_c, 0, 49, 64
2, 154336, Note_on_c, 0, 33, 67
2, 154337, Note_on_c, 0, 45, 85
2, 154344, Note_on_c, 0, 77, 71
2, 154347, Note_on_c, 0, 73, 77
2, 154353, Note_on_c, 0, 65, 64
2, 154374, Control_c, 0, 64, 127
2, 154395, Note_off_c, 0, 65, 64
2, 154414, Note_off_c, 0, 77, 64
2, 154422, Note_off_c, 0, 73, 64
2, 154510, Note_on_c, 0, 78, 81
2, 154512, Note_on_c, 0, 73, 70
2, 154513, Note_on_c, 0, 66, 77
2, 154549, Note_off_c, 0, 66, 64
2, 154555, Note_off_c, 0, 73, 64
2, 154556, Note_off_c, 0, 33, 64
2, 154557, Note_off_c, 0, 78, 64
2, 154557, Note_off_c, 0, 45, 64
2, 154572, Note_on_c, 0, 54, 70
2, 154579, Note_on_c, 0, 49, 70
2, 154580, Note_on_c, 0, 57, 65
2, 154597, Note_off_c, 0, 57, 64
2, 154604, Note_off_c, 0, 54, 64
2, 154607, Note_off_c, 0, 49, 64
2, 154611, Control_c, 0, 64, 0
2, 154662, Note_on_c, 0, 50, 68
2, 154669, Note_on_c, 0, 38, 68
2, 154680, Control_c, 0, 64, 127
2, 154699, Note_off_c, 0, 38, 64
2, 154700, Note_off_c, 0, 50, 64
2, 154738, Note_on_c, 0, 74, 57
2, 154739, Note_on_c, 0, 62, 60
2, 154768, Note_off_c, 0, 62, 64
2, 154774, Note_off_c, 0, 74, 64
2, 154812, Note_on_c, 0, 37, 65
2, 154814, Note_on_c, 0, 49, 69
2, 154821, Note_on_c, 0, 61, 72
2, 154824, Note_on_c, 0, 73, 67
2, 154842, Note_off_c, 0, 37, 64
2, 154845, Note_off_c, 0, 61, 64
2, 154848, Note_off_c, 0, 49, 64
2, 154850, Note_off_c, 0, 73, 64
2, 154857, Control_c, 0, 64, 0
2, 154890, Note_on_c, 0, 36, 72
2, 154892, Note_on_c, 0, 60, 73
2, 154896, Note_on_c, 0, 48, 73
2, 154900, Note_on_c, 0, 72, 69
2, 154920, Note_off_c, 0, 60, 64
2, 154921, Note_off_c, 0, 48, 64
2, 154924, Note_off_c, 0, 36, 64
2, 154927, Note_off_c, 0, 72, 64
2, 154974, Note_on_c, 0, 37, 76
2, 154974, Note_on_c, 0, 49, 76
2, 154987, Control_c, 0, 64, 127
2, 155009, Note_off_c, 0, 37, 64
2, 155017, Note_off_c, 0, 49, 64
2, 155043, Note_on_c, 0, 61, 76
2, 155049, Note_on_c, 0, 73, 70
2, 155074, Note_off_c, 0, 61, 64
2, 155078, Note_off_c, 0, 73, 64
2, 155115, Note_on_c, 0, 39, 78
2, 155119, Note_on_c, 0, 51, 82
2, 155130, Note_on_c, 0, 63, 84
2, 155132, Note_on_c, 0, 75, 78
2, 155148, Note_off_c, 0, 39, 64
2, 155153, Note_off_c, 0, 63, 64
2, 155154, Note_off_c, 0, 51, 64
2, 155156, Note_off_c, 0, 75, 64
2, 155184, Control_c, 0, 64, 0
2, 155205, Note_on_c, 0, 53, 90
2, 155205, Note_on_c, 0, 41, 84
2, 155208, Note_on_c, 0, 65, 77
2, 155215, Note_on_c, 0, 77, 76
2, 155228, Note_off_c, 0, 65, 64
2, 155229, Note_off_c, 0, 77, 64
2, 155232, Note_off_c, 0, 53, 64
2, 155235, Note_off_c, 0, 41, 64
2, 155290, Note_on_c, 0, 42, 86
2, 155290, Note_on_c, 0, 54, 96
2, 155308, Control_c, 0, 64, 127
2, 155320, Note_off_c, 0, 54, 64
2, 155322, Note_off_c, 0, 42, 64
2, 155364, Note_on_c, 0, 66, 86
2, 155367, Note_on_c, 0, 78, 81
2, 155388, Note_off_c, 0, 66, 64
2, 155395, Note_off_c, 0, 78, 64
2, 155434, Note_on_c, 0, 44, 87
2, 155435, Note_on_c, 0, 56, 88
2, 155443, Note_on_c, 0, 68, 98
2, 155443, Note_on_c, 0, 80, 88
2, 155464, Note_off_c, 0, 44, 64
2, 155467, Note_off_c, 0, 68, 64
2, 155468, Note_off_c, 0, 56, 64
2, 155472, Note_off_c, 0, 80, 64
2, 155495, Control_c, 0, 64, 0
2, 155516, Note_on_c, 0, 45, 92
2, 155517, Note_on_c, 0, 57, 100
2, 155519, Note_on_c, 0, 69, 89
2, 155525, Note_on_c, 0, 81, 83
2, 155537, Note_off_c, 0, 69, 64
2, 155543, Note_off_c, 0, 81, 64
2, 155544, Note_off_c, 0, 57, 64
2, 155547, Note_off_c, 0, 45, 64
2, 155600, Note_on_c, 0, 47, 100
2, 155600, Note_on_c, 0, 59, 101
2, 155620, Control_c, 0, 64, 127
2, 155630, Note_off_c, 0, 59, 64
2, 155633, Note_off_c, 0, 47, 64
2, 155667, Note_on_c, 0, 71, 91
2, 155671, Note_on_c, 0, 83, 82
2, 155696, Note_off_c, 0, 71, 64
2, 155700, Note_off_c, 0, 83, 64
2, 155743, Note_on_c, 0, 61, 76
2, 155745, Note_on_c, 0, 49, 84
2, 155749, Note_on_c, 0, 73, 101
2, 155753, Note_on_c, 0, 85, 92
2, 155780, Note_off_c, 0, 85, 64
2, 155780, Note_off_c, 0, 73, 64
2, 155789, Note_off_c, 0, 49, 64
2, 155791, Note_off_c, 0, 61, 64
2, 155835, Note_on_c, 0, 62, 96
2, 155835, Note_on_c, 0, 50, 90
2, 155842, Note_on_c, 0, 86, 91
2, 155842, Note_on_c, 0, 74, 92
2, 155850, Control_c, 0, 64, 0
2, 155858, Note_off_c, 0, 74, 64
2, 155858, Note_off_c, 0, 62, 64
2, 155863, Note_off_c, 0, 86, 64
2, 155868, Note_off_c, 0, 50, 64
2, 155917, Note_on_c, 0, 41, 101
2, 155925, Note_on_c, 0, 53, 101
2, 155948, Note_off_c, 0, 53, 64
2, 155948, Note_off_c, 0, 41, 64
2, 155993, Note_on_c, 0, 65, 96
2, 155996, Note_on_c, 0, 77, 93
2, 156018, Note_off_c, 0, 65, 64
2, 156024, Note_off_c, 0, 77, 64
2, 156075, Note_on_c, 0, 42, 96
2, 156075, Note_on_c, 0, 54, 101
2, 156106, Note_off_c, 0, 54, 64
2, 156107, Note_off_c, 0, 42, 64
2, 156142, Note_on_c, 0, 66, 84
2, 156144, Note_on_c, 0, 78, 88
2, 156172, Note_off_c, 0, 66, 64
2, 156175, Note_off_c, 0, 78, 64
2, 156226, Note_on_c, 0, 36, 92
2, 156228, Note_on_c, 0, 48, 82
2, 156256, Note_off_c, 0, 48, 64
2, 156260, Note_off_c, 0, 36, 64
2, 156302, Note_on_c, 0, 60, 88
2, 156309, Note_on_c, 0, 72, 82
2, 156332, Note_off_c, 0, 60, 64
2, 156334, Note_off_c, 0, 72, 64
2, 156376, Note_on_c, 0, 49, 101
2, 156380, Note_on_c, 0, 37, 73
2, 156400, Note_off_c, 0, 37, 64
2, 156410, Note_off_c, 0, 49, 64
2, 156440, Note_on_c, 0, 61, 96
2, 156469, Note_off_c, 0, 61, 64
2, 156529, Note_on_c, 0, 30, 76
2, 156529, Note_on_c, 0, 42, 93
2, 156559, Control_c, 0, 64, 127
2, 156594, Note_off_c, 0, 30, 64
2, 156603, Note_off_c, 0, 42, 64
2, 156636, Note_on_c, 0, 54, 65
2, 156659, Note_off_c, 0, 54, 64
2, 156741, Note_on_c, 0, 56, 64
2, 156744, Note_on_c, 0, 53, 62
2, 156827, Note_on_c, 0, 54, 77
2, 156853, Note_off_c, 0, 56, 64
2, 156856, Note_off_c, 0, 53, 64
2, 156864, Note_off_c, 0, 54, 64
2, 156885, Control_c, 0, 64, 0
2, 156901, Note_on_c, 0, 49, 68
2, 156914, Note_on_c, 0, 57, 54
2, 156945, Control_c, 0, 64, 127
2, 156984, Note_on_c, 0, 54, 78
2, 157026, Note_off_c, 0, 54, 64
2, 157036, Note_off_c, 0, 57, 64
2, 157037, Note_off_c, 0, 49, 64
2, 157066, Note_on_c, 0, 56, 68
2, 157073, Note_on_c, 0, 53, 66
2, 157105, Note_off_c, 0, 53, 64
2, 157109, Note_off_c, 0, 56, 64
2, 157143, Note_on_c, 0, 54, 64
2, 157186, Note_off_c, 0, 54, 64
2, 157203, Control_c, 0, 64, 0
2, 157212, Note_on_c, 0, 42, 84
2, 157250, Control_c, 0, 64, 127
2, 157280, Note_off_c, 0, 42, 64
2, 157295, Note_on_c, 0, 54, 52
2, 157337, Note_off_c, 0, 54, 64
2, 157360, Control_c, 0, 64, 0
2, 157380, Note_on_c, 0, 53, 64
2, 157385, Note_on_c, 0, 56, 63
2, 157425, Control_c, 0, 64, 127
2, 157448, Note_on_c, 0, 54, 59
2, 157454, Note_off_c, 0, 53, 64
2, 157466, Note_off_c, 0, 56, 64
2, 157498, Note_off_c, 0, 54, 64
2, 157518, Control_c, 0, 64, 0
2, 157525, Note_on_c, 0, 50, 77
2, 157529, Note_on_c, 0, 59, 77
2, 157565, Control_c, 0, 64, 127
2, 157595, Note_on_c, 0, 54, 68
2, 157601, Note_off_c, 0, 50, 64
2, 157605, Note_off_c, 0, 59, 64
2, 157648, Note_off_c, 0, 54, 64
2, 157696, Note_on_c, 0, 53, 68
2, 157700, Note_on_c, 0, 56, 64
2, 157730, Note_off_c, 0, 56, 64
2, 157738, Note_off_c, 0, 53, 64
2, 157750, Note_on_c, 0, 54, 71
2, 157809, Note_off_c, 0, 54, 64
2, 157821, Control_c, 0, 64, 0
2, 157832, Note_on_c, 0, 42, 82
2, 157870, Note_off_c, 0, 42, 64
2, 157878, Control_c, 0, 64, 127
2, 157906, Note_on_c, 0, 54, 60
2, 157966, Note_off_c, 0, 54, 64
2, 158011, Control_c, 0, 64, 0
2, 158016, Note_on_c, 0, 66, 69
2, 158027, Note_on_c, 0, 62, 52
2, 158070, Control_c, 0, 64, 127
2, 158087, Note_on_c, 0, 54, 62
2, 158140, Note_off_c, 0, 66, 64
2, 158148, Note_off_c, 0, 54, 64
2, 158180, Note_off_c, 0, 62, 64
2, 158191, Note_on_c, 0, 61, 65
2, 158191, Control_c, 0, 64, 0
2, 158196, Note_on_c, 0, 65, 60
2, 158237, Control_c, 0, 64, 127
2, 158251, Note_on_c, 0, 54, 59
2, 158276, Note_off_c, 0, 65, 64
2, 158282, Note_off_c, 0, 61, 64
2, 158316, Note_off_c, 0, 54, 64
2, 158337, Control_c, 0, 64, 0
2, 158346, Note_on_c, 0, 64, 69
2, 158350, Note_on_c, 0, 60, 64
2, 158373, Control_c, 0, 64, 127
2, 158407, Note_on_c, 0, 54, 56
2, 158412, Note_off_c, 0, 60, 64
2, 158415, Note_off_c, 0, 64, 64
2, 158472, Note_off_c, 0, 54, 64
2, 158503, Control_c, 0, 64, 0
2, 158507, Note_on_c, 0, 63, 63
2, 158518, Note_on_c, 0, 59, 66
2, 158550, Control_c, 0, 64, 127
2, 158580, Note_on_c, 0, 54, 62
2, 158616, Note_off_c, 0, 63, 64
2, 158631, Note_off_c, 0, 59, 64
2, 158651, Note_off_c, 0, 54, 64
2, 158663, Note_on_c, 0, 53, 74
2, 158666, Control_c, 0, 64, 0
2, 158690, Control_c, 0, 64, 127
2, 158736, Note_on_c, 0, 54, 73
2, 158776, Note_off_c, 0, 53, 64
2, 158795, Note_off_c, 0, 54, 64
2, 158816, Control_c, 0, 64, 0
2, 158828, Note_on_c, 0, 62, 68
2, 158828, Note_on_c, 0, 56, 58
2, 158879, Control_c, 0, 64, 127
2, 158904, Note_on_c, 0, 54, 75
2, 158934, Note_off_c, 0, 56, 64
2, 158963, Note_off_c, 0, 62, 64
2, 158966, Note_off_c, 0, 54, 64
2, 158995, Note_on_c, 0, 53, 64
2, 159054, Note_on_c, 0, 54, 66
2, 159080, Note_off_c, 0, 53, 64
2, 159109, Note_off_c, 0, 54, 64
2, 159149, Note_on_c, 0, 61, 65
2, 159150, Control_c, 0, 64, 0
2, 159160, Note_on_c, 0, 58, 64
2, 159190, Note_off_c, 0, 58, 64
2, 159198, Control_c, 0, 64, 127
2, 159203, Note_off_c, 0, 61, 64
2, 159219, Note_on_c, 0, 54, 70
2, 159285, Note_off_c, 0, 54, 64
2, 159299, Control_c, 0, 64, 0
2, 159311, Note_on_c, 0, 66, 68
2, 159313, Note_on_c, 0, 62, 56
2, 159366, Control_c, 0, 64, 127
2, 159374, Note_on_c, 0, 54, 64
2, 159401, Note_off_c, 0, 62, 64
2, 159408, Note_off_c, 0, 66, 64
2, 159451, Note_off_c, 0, 54, 64
2, 159473, Control_c, 0, 64, 0
2, 159484, Note_on_c, 0, 65, 68
2, 159486, Note_on_c, 0, 61, 63
2, 159487, Note_on_c, 0, 68, 71
2, 159533, Control_c, 0, 64, 127
2, 159554, Note_off_c, 0, 61, 64
2, 159563, Note_on_c, 0, 54, 62
2, 159566, Note_off_c, 0, 68, 64
2, 159583, Note_off_c, 0, 65, 64
2, 159643, Note_off_c, 0, 54, 64
2, 159652, Note_on_c, 0, 70, 68
2, 159663, Note_on_c, 0, 64, 63
2, 159669, Note_on_c, 0, 60, 50
2, 159669, Control_c, 0, 64, 0
2, 159719, Control_c, 0, 64, 127
2, 159745, Note_off_c, 0, 60, 64
2, 159758, Note_on_c, 0, 54, 64
2, 159768, Note_off_c, 0, 64, 64
2, 159779, Note_off_c, 0, 70, 64
2, 159829, Note_off_c, 0, 54, 64
2, 159849, Control_c, 0, 64, 0
2, 159858, Note_on_c, 0, 71, 64
2, 159863, Note_on_c, 0, 59, 62
2, 159863, Note_on_c, 0, 63, 58
2, 159908, Control_c, 0, 64, 127
2, 159916, Note_off_c, 0, 71, 64
2, 159932, Note_off_c, 0, 63, 64
2, 159934, Note_off_c, 0, 59, 64
2, 159945, Note_on_c, 0, 54, 68
2, 160015, Note_off_c, 0, 54, 64
2, 160030, Note_on_c, 0, 53, 58
2, 160081, Note_off_c, 0, 53, 64
2, 160135, Note_on_c, 0, 54, 72
2, 160187, Note_off_c, 0, 54, 64
2, 160219, Note_on_c, 0, 62, 54
2, 160227, Note_on_c, 0, 59, 52
2, 160229, Note_on_c, 0, 56, 30
2, 160238, Control_c, 0, 64, 0
2, 160303, Control_c, 0, 64, 127
2, 160316, Note_on_c, 0, 54, 68
2, 160332, Note_off_c, 0, 59, 64
2, 160341, Note_off_c, 0, 56, 64
2, 160371, Note_off_c, 0, 62, 64
2, 160385, Note_off_c, 0, 54, 64
2, 160414, Note_on_c, 0, 53, 65
2, 160520, Note_on_c, 0, 54, 77
2, 160544, Note_off_c, 0, 53, 64
2, 160583, Note_off_c, 0, 54, 64
2, 160619, Note_on_c, 0, 61, 72
2, 160620, Note_on_c, 0, 58, 65
2, 160709, Note_off_c, 0, 58, 64
2, 160714, Note_off_c, 0, 61, 64
2, 160757, Note_on_c, 0, 54, 61
2, 160878, Note_on_c, 0, 66, 63
2, 160879, Note_on_c, 0, 57, 73
2, 160888, Note_on_c, 0, 38, 40
2, 160894, Note_on_c, 0, 62, 60
2, 160895, Note_on_c, 0, 26, 52
2, 160901, Control_c, 0, 64, 0
2, 160907, Note_off_c, 0, 54, 64
2, 160967, Control_c, 0, 64, 127
2, 160990, Note_on_c, 0, 54, 54
2, 161000, Note_off_c, 0, 62, 64
2, 161004, Note_off_c, 0, 38, 64
2, 161006, Note_off_c, 0, 57, 64
2, 161013, Note_off_c, 0, 26, 64
2, 161029, Note_off_c, 0, 66, 64
2, 161058, Control_c, 0, 64, 0
2, 161075, Note_on_c, 0, 66, 69
2, 161077, Note_on_c, 0, 57, 74
2, 161084, Note_on_c, 0, 26, 68
2, 161085, Note_on_c, 0, 38, 68
2, 161092, Note_on_c, 0, 62, 63
2, 161102, Note_off_c, 0, 54, 64
2, 161113, Control_c, 0, 64, 127
2, 161158, Note_on_c, 0, 54, 49
2, 161169, Note_off_c, 0, 62, 64
2, 161173, Note_off_c, 0, 26, 64
2, 161177, Note_off_c, 0, 57, 64
2, 161184, Note_off_c, 0, 38, 64
2, 161192, Note_off_c, 0, 66, 64
2, 161248, Note_off_c, 0, 54, 64
2, 161256, Note_on_c, 0, 26, 62
2, 161264, Note_on_c, 0, 38, 53
2, 161269, Note_on_c, 0, 57, 66
2, 161270, Note_on_c, 0, 66, 62
2, 161273, Note_on_c, 0, 62, 68
2, 161345, Note_on_c, 0, 54, 63
2, 161351, Note_off_c, 0, 26, 64
2, 161352, Note_off_c, 0, 38, 64
2, 161362, Note_off_c, 0, 62, 64
2, 161374, Note_off_c, 0, 57, 64
2, 161378, Note_off_c, 0, 66, 64
2, 161437, Note_off_c, 0, 54, 64
2, 161451, Note_on_c, 0, 38, 64
2, 161460, Note_on_c, 0, 66, 71
2, 161460, Note_on_c, 0, 57, 70
2, 161464, Note_on_c, 0, 62, 70
2, 161544, Note_on_c, 0, 54, 64
2, 161551, Note_off_c, 0, 57, 64
2, 161555, Note_off_c, 0, 62, 64
2, 161595, Note_off_c, 0, 66, 64
2, 161635, Note_off_c, 0, 38, 64
2, 161639, Note_on_c, 0, 45, 65
2, 161677, Note_off_c, 0, 54, 64
2, 161724, Note_on_c, 0, 54, 64
2, 161725, Note_on_c, 0, 61, 56
2, 161746, Note_on_c, 0, 62, 62
2, 161768, Note_off_c, 0, 61, 64
2, 161779, Note_off_c, 0, 54, 64
2, 161785, Note_on_c, 0, 64, 64
2, 161797, Note_off_c, 0, 62, 64
2, 161820, Note_off_c, 0, 64, 64
2, 161820, Note_off_c, 0, 45, 64
2, 161820, Note_on_c, 0, 62, 73
2, 161820, Note_on_c, 0, 46, 64
2, 161820, Note_on_c, 0, 38, 64
2, 161894, Control_c, 0, 64, 0
2, 161924, Note_on_c, 0, 55, 49
2, 161975, Control_c, 0, 64, 127
2, 161979, Note_off_c, 0, 46, 64
2, 162040, Note_on_c, 0, 43, 33
2, 162042, Note_off_c, 0, 38, 64
2, 162050, Control_c, 0, 64, 0
2, 162115, Note_off_c, 0, 62, 64
2, 162120, Note_on_c, 0, 58, 56
2, 162120, Note_on_c, 0, 52, 52
2, 162120, Control_c, 0, 64, 127
2, 162146, Note_off_c, 0, 55, 64
2, 162222, Control_c, 0, 64, 0
2, 162224, Note_on_c, 0, 38, 64
2, 162231, Note_on_c, 0, 57, 54
2, 162232, Note_on_c, 0, 45, 64
2, 162234, Note_off_c, 0, 52, 64
2, 162245, Note_off_c, 0, 58, 64
2, 162245, Note_off_c, 0, 43, 64
2, 162288, Control_c, 0, 64, 127
2, 162312, Note_on_c, 0, 54, 80
2, 162349, Note_off_c, 0, 57, 64
2, 162382, Note_off_c, 0, 38, 64
2, 162386, Control_c, 0, 64, 0
2, 162390, Note_off_c, 0, 45, 64
2, 162399, Note_on_c, 0, 66, 71
2, 162404, Note_on_c, 0, 62, 68
2, 162405, Note_on_c, 0, 42, 86
2, 162408, Note_on_c, 0, 38, 68
2, 162420, Note_off_c, 0, 54, 64
2, 162451, Control_c, 0, 64, 127
2, 162479, Note_on_c, 0, 54, 72
2, 162504, Note_off_c, 0, 42, 64
2, 162543, Control_c, 0, 64, 0
2, 162550, Note_on_c, 0, 43, 80
2, 162572, Note_off_c, 0, 54, 64
2, 162597, Note_off_c, 0, 62, 64
2, 162609, Note_off_c, 0, 66, 64
2, 162612, Control_c, 0, 64, 127
2, 162630, Note_on_c, 0, 54, 76
2, 162645, Note_off_c, 0, 38, 64
2, 162674, Note_off_c, 0, 43, 64
2, 162708, Control_c, 0, 64, 0
2, 162713, Note_on_c, 0, 44, 101
2, 162716, Note_on_c, 0, 38, 81
2, 162725, Note_on_c, 0, 66, 71
2, 162735, Note_on_c, 0, 62, 60
2, 162737, Note_off_c, 0, 54, 64
2, 162769, Control_c, 0, 64, 127
2, 162788, Note_on_c, 0, 54, 64
2, 162866, Control_c, 0, 64, 0
2, 162872, Note_off_c, 0, 44, 64
2, 162880, Note_off_c, 0, 54, 64
2, 162884, Note_on_c, 0, 45, 72
2, 162928, Control_c, 0, 64, 127
2, 162942, Note_on_c, 0, 54, 72
2, 162961, Note_off_c, 0, 66, 64
2, 162996, Note_off_c, 0, 62, 64
2, 163025, Note_off_c, 0, 38, 64
2, 163027, Note_off_c, 0, 54, 64
2, 163032, Note_off_c, 0, 45, 64
2, 163032, Control_c, 0, 64, 0
2, 163046, Note_on_c, 0, 57, 94
2, 163048, Note_on_c, 0, 66, 60
2, 163052, Note_on_c, 0, 42, 76
2, 163052, Note_on_c, 0, 62, 76
2, 163055, Note_on_c, 0, 30, 42
2, 163125, Note_on_c, 0, 54, 74
2, 163134, Control_c, 0, 64, 127
2, 163153, Note_off_c, 0, 66, 64
2, 163172, Note_off_c, 0, 62, 64
2, 163221, Note_on_c, 0, 43, 72
2, 163222, Control_c, 0, 64, 0
2, 163224, Note_on_c, 0, 31, 36
2, 163232, Note_on_c, 0, 58, 88
2, 163241, Note_off_c, 0, 30, 64
2, 163257, Note_off_c, 0, 42, 64
2, 163260, Note_off_c, 0, 54, 64
2, 163281, Note_off_c, 0, 57, 64
2, 163296, Control_c, 0, 64, 127
2, 163305, Note_on_c, 0, 54, 80
2, 163382, Control_c, 0, 64, 0
2, 163396, Note_on_c, 0, 66, 44
2, 163400, Note_on_c, 0, 62, 56
2, 163403, Note_on_c, 0, 44, 75
2, 163404, Note_on_c, 0, 32, 81
2, 163405, Note_on_c, 0, 59, 88
2, 163410, Note_off_c, 0, 54, 64
2, 163416, Note_off_c, 0, 43, 64
2, 163436, Note_off_c, 0, 31, 64
2, 163439, Note_off_c, 0, 58, 64
2, 163462, Control_c, 0, 64, 127
2, 163480, Note_on_c, 0, 54, 76
2, 163585, Note_off_c, 0, 54, 64
2, 163585, Control_c, 0, 64, 0
2, 163592, Note_off_c, 0, 66, 64
2, 163592, Note_on_c, 0, 45, 66
2, 163596, Note_on_c, 0, 33, 81
2, 163598, Note_on_c, 0, 60, 92
2, 163625, Note_off_c, 0, 32, 64
2, 163626, Note_off_c, 0, 59, 64
2, 163628, Note_off_c, 0, 62, 64
2, 163653, Note_off_c, 0, 44, 64
2, 163667, Control_c, 0, 64, 127
2, 163680, Note_on_c, 0, 54, 78
2, 163775, Note_off_c, 0, 60, 64
2, 163796, Note_on_c, 0, 38, 66
2, 163798, Note_on_c, 0, 48, 68
2, 163800, Note_on_c, 0, 58, 78
2, 163815, Note_off_c, 0, 54, 64
2, 163817, Note_off_c, 0, 33, 64
2, 163824, Note_off_c, 0, 45, 64
2, 163892, Note_on_c, 0, 54, 54
2, 163892, Note_on_c, 0, 61, 62
2, 163925, Note_on_c, 0, 62, 67
2, 163935, Note_off_c, 0, 58, 64
2, 163946, Note_off_c, 0, 61, 64
2, 163961, Note_on_c, 0, 64, 73
2, 163978, Note_off_c, 0, 38, 64
2, 163980, Note_off_c, 0, 62, 64
2, 163992, Control_c, 0, 64, 0
2, 164005, Note_on_c, 0, 47, 64
2, 164006, Note_off_c, 0, 48, 64
2, 164012, Note_on_c, 0, 35, 81
2, 164014, Note_on_c, 0, 62, 68
2, 164016, Note_on_c, 0, 59, 78
2, 164020, Note_on_c, 0, 55, 78
2, 164042, Note_off_c, 0, 54, 64
2, 164052, Note_off_c, 0, 64, 64
2, 164072, Control_c, 0, 64, 127
2, 164121, Note_on_c, 0, 38, 75
2, 164151, Note_off_c, 0, 59, 64
2, 164155, Note_off_c, 0, 55, 64
2, 164198, Note_off_c, 0, 38, 64
2, 164233, Note_on_c, 0, 55, 64
2, 164325, Note_on_c, 0, 38, 69
2, 164388, Note_off_c, 0, 55, 64
2, 164388, Note_off_c, 0, 47, 64
2, 164425, Note_off_c, 0, 38, 64
2, 164428, Note_on_c, 0, 46, 63
2, 164429, Control_c, 0, 64, 0
2, 164438, Note_on_c, 0, 55, 62
2, 164439, Note_on_c, 0, 34, 77
2, 164444, Note_off_c, 0, 35, 64
2, 164508, Control_c, 0, 64, 127
2, 164528, Note_on_c, 0, 38, 75
2, 164611, Note_off_c, 0, 62, 64
2, 164697, Note_off_c, 0, 38, 64
2, 164773, Note_on_c, 0, 61, 56
2, 164776, Note_on_c, 0, 38, 35
2, 164802, Note_on_c, 0, 62, 66
2, 164832, Note_off_c, 0, 61, 64
2, 164835, Note_off_c, 0, 55, 64
2, 164850, Note_on_c, 0, 64, 61
2, 164862, Note_off_c, 0, 46, 64
2, 164870, Note_off_c, 0, 62, 64
2, 164878, Control_c, 0, 64, 0
2, 164884, Note_on_c, 0, 52, 62
2, 164888, Note_on_c, 0, 31, 63
2, 164891, Note_on_c, 0, 43, 62
2, 164892, Note_off_c, 0, 34, 64
2, 164894, Note_on_c, 0, 62, 68
2, 164917, Note_off_c, 0, 64, 64
2, 164928, Note_off_c, 0, 38, 64
2, 164959, Control_c, 0, 64, 127
2, 165023, Note_on_c, 0, 38, 53
2, 165226, Note_off_c, 0, 43, 64
2, 165239, Note_off_c, 0, 38, 64
2, 165257, Note_off_c, 0, 52, 64
2, 165257, Note_off_c, 0, 31, 64
2, 165304, Note_on_c, 0, 38, 64
2, 165315, Note_on_c, 0, 58, 54
2, 165332, Note_off_c, 0, 62, 64
2, 165438, Control_c, 0, 64, 0
2, 165443, Note_off_c, 0, 38, 64
2, 165508, Note_on_c, 0, 38, 64
2, 165511, Control_c, 0, 64, 127
2, 165516, Note_off_c, 0, 58, 64
2, 165516, Note_on_c, 0, 26, 64
2, 165684, Control_c, 0, 64, 0
2, 165736, Note_on_c, 0, 57, 56
2, 165736, Note_on_c, 0, 54, 40
2, 165736, Note_on_c, 0, 50, 44
2, 165769, Control_c, 0, 64, 127
2, 166053, Note_off_c, 0, 38, 64
2, 166078, Note_off_c, 0, 50, 64
2, 166088, Note_off_c, 0, 54, 64
2, 166098, Note_off_c, 0, 57, 64
2, 166194, Note_on_c, 0, 54, 33
2, 166195, Note_on_c, 0, 57, 36
2, 166200, Note_on_c, 0, 50, 32
2, 166442, Control_c, 0, 64, 0
2, 166484, Note_on_c, 0, 38, 64
2, 166507, Control_c, 0, 64, 127
2, 166528, Note_off_c, 0, 50, 64
2, 166532, Note_off_c, 0, 54, 64
2, 166630, Note_off_c, 0, 57, 64
2, 166685, Note_on_c, 0, 54, 41
2, 166698, Note_on_c, 0, 50, 33
2, 167011, Note_off_c, 0, 26, 64
2, 167072, Note_off_c, 0, 38, 64
2, 167074, Note_off_c, 0, 54, 64
2, 167085, Note_off_c, 0, 50, 64
2, 167189, Note_on_c, 0, 54, 42
2, 167197, Note_on_c, 0, 50, 32
2, 167275, Note_off_c, 0, 50, 64
2, 167285, Note_off_c, 0, 54, 64
2, 167528, Note_on_c, 0, 69, 60
2, 167540, Note_on_c, 0, 38, 49
2, 167586, Control_c, 0, 64, 0
2, 167643, Control_c, 0, 64, 127
2, 167686, Note_on_c, 0, 65, 36
2, 167776, Note_on_c, 0, 74, 64
2, 167783, Note_on_c, 0, 62, 37
2, 167794, Note_off_c, 0, 65, 64
2, 167833, Note_off_c, 0, 69, 64
2, 167862, Note_on_c, 0, 57, 40
2, 167905, Note_off_c, 0, 62, 64
2, 167955, Note_on_c, 0, 55, 36
2, 167955, Note_on_c, 0, 50, 41
2, 167959, Note_on_c, 0, 76, 58
2, 167975, Note_off_c, 0, 57, 64
2, 167979, Note_off_c, 0, 74, 64
2, 167981, Control_c, 0, 64, 0
2, 168038, Control_c, 0, 64, 127
2, 168072, Note_on_c, 0, 58, 45
2, 168074, Note_off_c, 0, 38, 64
2, 168093, Note_off_c, 0, 55, 64
2, 168180, Note_off_c, 0, 76, 64
2, 168184, Note_on_c, 0, 61, 33
2, 168221, Note_off_c, 0, 58, 64
2, 168259, Note_on_c, 0, 64, 47
2, 168293, Note_off_c, 0, 61, 64
2, 168340, Note_off_c, 0, 50, 64
2, 168364, Note_on_c, 0, 69, 56
2, 168367, Note_on_c, 0, 38, 57
2, 168374, Control_c, 0, 64, 0
2, 168387, Note_off_c, 0, 64, 64
2, 168419, Control_c, 0, 64, 127
2, 168452, Note_on_c, 0, 65, 44
2, 168539, Note_off_c, 0, 69, 64
2, 168543, Note_on_c, 0, 74, 62
2, 168554, Note_on_c, 0, 62, 53
2, 168587, Note_off_c, 0, 65, 64
2, 168624, Note_on_c, 0, 57, 51
2, 168652, Note_off_c, 0, 38, 64
2, 168670, Note_off_c, 0, 62, 64
2, 168705, Control_c, 0, 64, 0
2, 168720, Note_off_c, 0, 57, 64
2, 168720, Note_on_c, 0, 76, 70
2, 168723, Note_on_c, 0, 50, 49
2, 168723, Note_on_c, 0, 55, 51
2, 168731, Note_off_c, 0, 74, 64
2, 168751, Control_c, 0, 64, 127
2, 168801, Note_on_c, 0, 58, 43
2, 168850, Note_off_c, 0, 55, 64
2, 168908, Note_on_c, 0, 61, 33
2, 168924, Note_off_c, 0, 58, 64
2, 168960, Note_off_c, 0, 76, 64
2, 169008, Note_on_c, 0, 64, 45
2, 169042, Note_off_c, 0, 50, 64
2, 169046, Note_off_c, 0, 61, 64
2, 169119, Control_c, 0, 64, 0
2, 169125, Note_off_c, 0, 64, 64
2, 169131, Note_on_c, 0, 69, 51
2, 169137, Note_on_c, 0, 38, 51
2, 169172, Control_c, 0, 64, 127
2, 169232, Note_on_c, 0, 65, 34
2, 169332, Note_on_c, 0, 74, 55
2, 169336, Note_on_c, 0, 62, 20
2, 169359, Note_off_c, 0, 65, 64
2, 169359, Note_off_c, 0, 69, 64
2, 169407, Note_on_c, 0, 57, 51
2, 169420, Note_off_c, 0, 38, 64
2, 169456, Note_off_c, 0, 62, 64
2, 169505, Note_on_c, 0, 55, 48
2, 169507, Note_on_c, 0, 76, 65
2, 169533, Note_off_c, 0, 74, 64
2, 169554, Note_off_c, 0, 57, 64
2, 169584, Note_on_c, 0, 50, 51
2, 169623, Note_off_c, 0, 55, 64
2, 169672, Note_on_c, 0, 77, 74
2, 169677, Note_on_c, 0, 46, 40
2, 169686, Note_off_c, 0, 50, 64
2, 169696, Note_off_c, 0, 76, 64
2, 169757, Note_on_c, 0, 43, 58
2, 169768, Note_off_c, 0, 46, 64
2, 169838, Control_c, 0, 64, 0
2, 169853, Note_on_c, 0, 79, 66
2, 169860, Note_off_c, 0, 77, 64
2, 169867, Note_on_c, 0, 40, 52
2, 169870, Note_off_c, 0, 43, 64
2, 169897, Control_c, 0, 64, 127
2, 169948, Note_on_c, 0, 52, 50
2, 170004, Note_off_c, 0, 40, 64
2, 170041, Note_on_c, 0, 77, 52
2, 170046, Note_on_c, 0, 58, 54
2, 170055, Note_off_c, 0, 52, 64
2, 170058, Note_off_c, 0, 79, 64
2, 170126, Note_on_c, 0, 62, 46
2, 170128, Note_on_c, 0, 79, 51
2, 170148, Note_off_c, 0, 77, 64
2, 170153, Note_off_c, 0, 58, 64
2, 170190, Control_c, 0, 64, 0
2, 170219, Note_on_c, 0, 77, 65
2, 170224, Note_on_c, 0, 45, 51
2, 170249, Note_off_c, 0, 79, 64
2, 170254, Control_c, 0, 64, 127
2, 170261, Note_off_c, 0, 62, 64
2, 170305, Note_on_c, 0, 57, 51
2, 170373, Note_off_c, 0, 45, 64
2, 170398, Note_on_c, 0, 61, 54
2, 170414, Note_on_c, 0, 76, 45
2, 170423, Note_off_c, 0, 57, 64
2, 170436, Note_off_c, 0, 77, 64
2, 170507, Note_on_c, 0, 69, 34
2, 170550, Note_off_c, 0, 61, 64
2, 170577, Note_off_c, 0, 76, 64
2, 170590, Control_c, 0, 64, 0
2, 170602, Note_off_c, 0, 69, 64
2, 170609, Note_on_c, 0, 74, 54
2, 170612, Note_on_c, 0, 38, 47
2, 170618, Note_on_c, 0, 70, 45
2, 170651, Control_c, 0, 64, 127
2, 170700, Note_on_c, 0, 67, 49
2, 170740, Note_off_c, 0, 70, 64
2, 170785, Note_on_c, 0, 64, 51
2, 170797, Note_on_c, 0, 79, 58
2, 170802, Note_off_c, 0, 74, 64
2, 170814, Note_off_c, 0, 67, 64
2, 170877, Note_on_c, 0, 61, 53
2, 170903, Note_off_c, 0, 64, 64
2, 170967, Note_on_c, 0, 60, 58
2, 170967, Note_on_c, 0, 50, 55
2, 170968, Note_off_c, 0, 61, 64
2, 170968, Note_on_c, 0, 81, 70
2, 170980, Control_c, 0, 64, 0
2, 170990, Note_off_c, 0, 79, 64
2, 171027, Control_c, 0, 64, 127
2, 171054, Note_on_c, 0, 63, 55
2, 171059, Note_off_c, 0, 60, 64
2, 171128, Note_off_c, 0, 38, 64
2, 171142, Note_on_c, 0, 66, 56
2, 171144, Note_off_c, 0, 50, 64
2, 171162, Note_off_c, 0, 63, 64
2, 171228, Note_on_c, 0, 69, 44
2, 171234, Note_off_c, 0, 81, 64
2, 171241, Note_off_c, 0, 66, 64
2, 171314, Note_on_c, 0, 70, 49
2, 171315, Note_on_c, 0, 74, 62
2, 171326, Note_on_c, 0, 38, 57
2, 171328, Control_c, 0, 64, 0
2, 171342, Note_off_c, 0, 69, 64
2, 171389, Control_c, 0, 64, 127
2, 171410, Note_on_c, 0, 67, 52
2, 171436, Note_off_c, 0, 70, 64
2, 171495, Note_on_c, 0, 64, 61
2, 171497, Note_on_c, 0, 79, 51
2, 171502, Note_off_c, 0, 67, 64
2, 171557, Note_off_c, 0, 74, 64
2, 171576, Note_on_c, 0, 61, 53
2, 171594, Note_off_c, 0, 64, 64
2, 171670, Note_on_c, 0, 50, 62
2, 171676, Note_on_c, 0, 81, 75
2, 171684, Note_on_c, 0, 60, 51
2, 171688, Control_c, 0, 64, 0
2, 171706, Note_off_c, 0, 61, 64
2, 171719, Note_off_c, 0, 79, 64
2, 171734, Control_c, 0, 64, 127
2, 171758, Note_on_c, 0, 63, 57
2, 171782, Note_off_c, 0, 60, 64
2, 171814, Note_off_c, 0, 50, 64
2, 171836, Note_on_c, 0, 66, 57
2, 171852, Note_off_c, 0, 38, 64
2, 171858, Note_off_c, 0, 63, 64
2, 171910, Note_off_c, 0, 81, 64
2, 171933, Note_on_c, 0, 69, 47
2, 171945, Note_off_c, 0, 66, 64
2, 172000, Control_c, 0, 64, 0
2, 172015, Note_on_c, 0, 70, 51
2, 172016, Note_on_c, 0, 74, 59
2, 172031, Note_on_c, 0, 38, 54
2, 172041, Note_off_c, 0, 69, 64
2, 172069, Control_c, 0, 64, 127
2, 172100, Note_on_c, 0, 67, 48
2, 172153, Note_off_c, 0, 70, 64
2, 172188, Note_on_c, 0, 64, 32
2, 172192, Note_on_c, 0, 79, 54
2, 172227, Note_off_c, 0, 74, 64
2, 172247, Note_off_c, 0, 67, 64
2, 172275, Note_on_c, 0, 61, 36
2, 172306, Note_off_c, 0, 64, 64
2, 172362, Note_on_c, 0, 58, 51
2, 172365, Note_on_c, 0, 81, 58
2, 172377, Note_off_c, 0, 61, 64
2, 172410, Note_off_c, 0, 79, 64
2, 172457, Note_on_c, 0, 55, 58
2, 172471, Note_off_c, 0, 58, 64
2, 172527, Note_on_c, 0, 52, 42
2, 172532, Note_on_c, 0, 82, 75
2, 172543, Note_off_c, 0, 38, 64
2, 172550, Note_off_c, 0, 55, 64
2, 172580, Note_off_c, 0, 81, 64
2, 172598, Note_on_c, 0, 49, 58
2, 172630, Note_off_c, 0, 52, 64
2, 172685, Control_c, 0, 64, 0
2, 172712, Note_on_c, 0, 38, 50
2, 172712, Note_on_c, 0, 45, 43
2, 172713, Note_on_c, 0, 84, 86
2, 172717, Note_off_c, 0, 49, 64
2, 172744, Control_c, 0, 64, 127
2, 172754, Note_off_c, 0, 82, 64
2, 172783, Note_on_c, 0, 50, 44
2, 172824, Note_off_c, 0, 45, 64
2, 172880, Note_on_c, 0, 54, 52
2, 172884, Note_on_c, 0, 82, 59
2, 172906, Note_off_c, 0, 50, 64
2, 172927, Note_off_c, 0, 84, 64
2, 172962, Note_on_c, 0, 60, 36
2, 172973, Note_off_c, 0, 54, 64
2, 172974, Note_on_c, 0, 81, 62
2, 172989, Note_off_c, 0, 82, 64
2, 173005, Note_off_c, 0, 38, 64
2, 173031, Control_c, 0, 64, 0
2, 173048, Note_on_c, 0, 50, 47
2, 173050, Note_off_c, 0, 60, 64
2, 173050, Note_on_c, 0, 58, 43
2, 173054, Note_on_c, 0, 79, 62
2, 173071, Note_off_c, 0, 81, 64
2, 173089, Control_c, 0, 64, 127
2, 173142, Note_on_c, 0, 62, 43
2, 173170, Note_off_c, 0, 58, 64
2, 173234, Note_off_c, 0, 50, 64
2, 173241, Note_off_c, 0, 62, 64
2, 173243, Note_on_c, 0, 67, 39
2, 173251, Note_on_c, 0, 76, 50
2, 173259, Note_off_c, 0, 79, 64
2, 173328, Note_on_c, 0, 70, 54
2, 173346, Note_off_c, 0, 67, 64
2, 173386, Control_c, 0, 64, 0
2, 173406, Note_on_c, 0, 74, 63
2, 173407, Note_off_c, 0, 76, 64
2, 173408, Note_on_c, 0, 72, 54
2, 173413, Note_on_c, 0, 69, 41
2, 173416, Note_on_c, 0, 66, 49
2, 173424, Note_off_c, 0, 70, 64
2, 173436, Control_c, 0, 64, 127
2, 173503, Note_off_c, 0, 69, 64
2, 173505, Note_on_c, 0, 62, 45
2, 173506, Note_off_c, 0, 66, 64
2, 173587, Note_on_c, 0, 70, 47
2, 173597, Note_on_c, 0, 60, 52
2, 173601, Note_off_c, 0, 72, 64
2, 173608, Note_off_c, 0, 62, 64
2, 173675, Note_on_c, 0, 69, 48
2, 173679, Note_on_c, 0, 50, 46
2, 173685, Note_off_c, 0, 60, 64
2, 173698, Note_off_c, 0, 70, 64
2, 173725, Note_off_c, 0, 74, 64
2, 173759, Control_c, 0, 64, 0
2, 173766, Note_off_c, 0, 69, 64
2, 173770, Note_on_c, 0, 58, 44
2, 173773, Note_on_c, 0, 67, 44
2, 173779, Note_off_c, 0, 50, 64
2, 173779, Note_on_c, 0, 74, 29
2, 173817, Control_c, 0, 64, 127
2, 173853, Note_on_c, 0, 50, 48
2, 173860, Note_off_c, 0, 58, 64
2, 173891, Note_off_c, 0, 74, 64
2, 173948, Note_on_c, 0, 64, 47
2, 173954, Note_on_c, 0, 49, 59
2, 173974, Note_off_c, 0, 67, 64
2, 173976, Note_off_c, 0, 50, 64
2, 174037, Note_on_c, 0, 38, 47
2, 174042, Note_off_c, 0, 49, 64
2, 174134, Control_c, 0, 64, 0
2, 174141, Note_on_c, 0, 50, 32
2, 174148, Note_on_c, 0, 62, 51
2, 174168, Note_off_c, 0, 38, 64
2, 174173, Note_off_c, 0, 64, 64
2, 174188, Control_c, 0, 64, 127
2, 174359, Note_off_c, 0, 50, 64
2, 174380, Note_off_c, 0, 62, 64
2, 174383, Control_c, 0, 64, 0
2, 174411, Control_c, 0, 64, 0
2, 174424, Note_on_c, 0, 46, 88
2, 174424, Note_on_c, 0, 74, 88
2, 174424, Note_on_c, 0, 82, 88
2, 174432, Note_on_c, 0, 34, 81
2, 174432, Note_on_c, 0, 77, 86
2, 174432, Note_on_c, 0, 86, 92
2, 174441, Control_c, 0, 64, 127
2, 174469, Control_c, 0, 64, 127
2, 174501, Note_off_c, 0, 46, 64
2, 174503, Note_off_c, 0, 82, 64
2, 174509, Note_off_c, 0, 74, 64
2, 174523, Note_off_c, 0, 77, 64
2, 174526, Note_off_c, 0, 34, 64
2, 174527, Note_off_c, 0, 86, 64
2, 174593, Note_on_c, 0, 86, 88
2, 174597, Note_on_c, 0, 74, 84
2, 174597, Note_on_c, 0, 77, 89
2, 174597, Note_on_c, 0, 82, 92
2, 174598, Note_on_c, 0, 50, 81
2, 174600, Note_on_c, 0, 38, 59
2, 174697, Note_off_c, 0, 77, 64
2, 174698, Note_off_c, 0, 38, 64
2, 174701, Note_off_c, 0, 82, 64
2, 174701, Note_off_c, 0, 86, 64
2, 174707, Note_off_c, 0, 74, 64
2, 174713, Note_off_c, 0, 50, 64
2, 174780, Note_on_c, 0, 53, 94
2, 174788, Note_on_c, 0, 86, 92
2, 174788, Note_on_c, 0, 82, 100
2, 174788, Note_on_c, 0, 77, 101
2, 174788, Note_on_c, 0, 74, 92
2, 174796, Note_on_c, 0, 41, 92
2, 174880, Note_off_c, 0, 82, 64
2, 174881, Note_off_c, 0, 77, 64
2, 174883, Note_off_c, 0, 41, 64
2, 174883, Note_off_c, 0, 86, 64
2, 174883, Note_off_c, 0, 53, 64
2, 174895, Note_off_c, 0, 74, 64
2, 174944, Control_c, 0, 64, 0
2, 174958, Note_on_c, 0, 86, 96
2, 174958, Note_on_c, 0, 82, 101
2, 174966, Note_on_c, 0, 77, 101
2, 174967, Note_on_c, 0, 74, 96
2, 174968, Note_on_c, 0, 58, 88
2, 174968, Note_on_c, 0, 46, 84
2, 175004, Control_c, 0, 64, 127
2, 175101, Note_off_c, 0, 86, 64
2, 175102, Note_off_c, 0, 46, 64
2, 175104, Note_off_c, 0, 77, 64
2, 175117, Note_off_c, 0, 82, 64
2, 175138, Note_off_c, 0, 74, 64
2, 175152, Note_on_c, 0, 34, 93
2, 175152, Note_on_c, 0, 46, 93
2, 175153, Note_off_c, 0, 58, 64
2, 175212, Note_on_c, 0, 81, 93
2, 175236, Note_on_c, 0, 82, 93
2, 175243, Note_off_c, 0, 81, 64
2, 175257, Note_on_c, 0, 84, 93
2, 175270, Note_off_c, 0, 82, 64
2, 175288, Note_off_c, 0, 46, 64
2, 175288, Note_off_c, 0, 34, 64
2, 175300, Note_off_c, 0, 84, 64
2, 175300, Control_c, 0, 64, 0
2, 175319, Note_on_c, 0, 39, 52
2, 175319, Note_on_c, 0, 51, 74
2, 175323, Note_on_c, 0, 70, 100
2, 175324, Note_on_c, 0, 78, 94
2, 175328, Note_on_c, 0, 82, 96
2, 175352, Control_c, 0, 64, 127
2, 175449, Note_off_c, 0, 82, 64
2, 175458, Note_off_c, 0, 78, 64
2, 175466, Note_off_c, 0, 51, 64
2, 175466, Note_off_c, 0, 39, 64
2, 175484, Note_off_c, 0, 70, 64
2, 175496, Note_on_c, 0, 39, 80
2, 175504, Note_on_c, 0, 27, 93
2, 175560, Note_on_c, 0, 75, 82
2, 175561, Note_on_c, 0, 78, 82
2, 175564, Note_on_c, 0, 66, 86
2, 175602, Note_off_c, 0, 66, 64
2, 175622, Note_off_c, 0, 75, 64
2, 175623, Note_off_c, 0, 78, 64
2, 175640, Note_off_c, 0, 27, 64
2, 175648, Note_off_c, 0, 39, 64
2, 175651, Control_c, 0, 64, 0
2, 175656, Note_on_c, 0, 77, 96
2, 175661, Note_on_c, 0, 74, 100
2, 175667, Note_on_c, 0, 65, 100
2, 175668, Note_on_c, 0, 46, 101
2, 175682, Note_on_c, 0, 34, 92
2, 175704, Control_c, 0, 64, 127
2, 175789, Note_off_c, 0, 77, 64
2, 175797, Note_off_c, 0, 34, 64
2, 175805, Note_off_c, 0, 65, 64
2, 175808, Note_off_c, 0, 46, 64
2, 175827, Note_off_c, 0, 74, 64
2, 175829, Note_on_c, 0, 22, 94
2, 175832, Note_on_c, 0, 34, 93
2, 175903, Note_on_c, 0, 82, 82
2, 175954, Note_off_c, 0, 82, 64
2, 175965, Note_off_c, 0, 22, 64
2, 175968, Note_off_c, 0, 34, 64
2, 175994, Note_on_c, 0, 78, 68
2, 175995, Note_on_c, 0, 69, 72
2, 175995, Control_c, 0, 64, 0
2, 176064, Note_on_c, 0, 51, 71
2, 176064, Control_c, 0, 64, 127
2, 176068, Note_on_c, 0, 63, 71
2, 176068, Control_c, 0, 64, 127
2, 176145, Note_on_c, 0, 60, 64
2, 176157, Note_off_c, 0, 51, 64
2, 176161, Note_off_c, 0, 63, 64
2, 176203, Note_off_c, 0, 78, 64
2, 176208, Note_on_c, 0, 57, 58
2, 176211, Note_on_c, 0, 75, 64
2, 176230, Note_off_c, 0, 60, 64
2, 176230, Note_off_c, 0, 69, 64
2, 176232, Note_off_c, 0, 57, 64
2, 176249, Note_off_c, 0, 75, 64
2, 176297, Note_on_c, 0, 65, 69
2, 176298, Control_c, 0, 64, 0
2, 176304, Note_on_c, 0, 74, 74
2, 176354, Control_c, 0, 64, 127
2, 176365, Note_on_c, 0, 58, 72
2, 176376, Note_on_c, 0, 46, 30
2, 176455, Note_on_c, 0, 53, 40
2, 176460, Note_off_c, 0, 58, 64
2, 176498, Note_off_c, 0, 46, 64
2, 176499, Note_off_c, 0, 74, 64
2, 176507, Note_off_c, 0, 65, 64
2, 176521, Note_on_c, 0, 70, 61
2, 176532, Note_on_c, 0, 50, 54
2, 176534, Note_off_c, 0, 53, 64
2, 176554, Note_off_c, 0, 70, 64
2, 176556, Note_off_c, 0, 50, 64
2, 176604, Control_c, 0, 64, 0
2, 176612, Note_on_c, 0, 66, 67
2, 176616, Note_on_c, 0, 57, 57
2, 176653, Control_c, 0, 64, 127
2, 176672, Note_on_c, 0, 51, 63
2, 176684, Note_on_c, 0, 39, 53
2, 176718, Note_off_c, 0, 66, 64
2, 176767, Note_on_c, 0, 48, 49
2, 176774, Note_off_c, 0, 51, 64
2, 176817, Note_off_c, 0, 39, 64
2, 176836, Note_on_c, 0, 60, 56
2, 176839, Note_on_c, 0, 63, 55
2, 176848, Note_on_c, 0, 45, 50
2, 176860, Note_off_c, 0, 48, 64
2, 176861, Note_off_c, 0, 57, 64
2, 176872, Note_off_c, 0, 45, 64
2, 176896, Note_off_c, 0, 60, 64
2, 176899, Note_off_c, 0, 63, 64
2, 176914, Control_c, 0, 64, 0
2, 176923, Note_on_c, 0, 34, 89
2, 176979, Control_c, 0, 64, 127
2, 176987, Note_off_c, 0, 34, 64
2, 176998, Note_on_c, 0, 58, 59
2, 177067, Control_c, 0, 64, 0
2, 177080, Note_off_c, 0, 58, 64
2, 177089, Note_on_c, 0, 70, 54
2, 177089, Note_on_c, 0, 66, 58
2, 177093, Note_on_c, 0, 61, 47
2, 177094, Note_on_c, 0, 54, 59
2, 177094, Note_on_c, 0, 46, 68
2, 177103, Note_on_c, 0, 49, 56
2, 177127, Control_c, 0, 64, 127
2, 177143, Note_off_c, 0, 46, 64
2, 177143, Note_off_c, 0, 54, 64
2, 177144, Note_off_c, 0, 49, 64
2, 177168, Note_off_c, 0, 66, 64
2, 177168, Note_on_c, 0, 58, 52
2, 177176, Note_off_c, 0, 70, 64
2, 177180, Note_off_c, 0, 61, 64
2, 177234, Control_c, 0, 64, 0
2, 177248, Control_c, 0, 64, 127
2, 177255, Note_on_c, 0, 54, 52
2, 177256, Note_on_c, 0, 61, 46
2, 177256, Note_on_c, 0, 46, 52
2, 177257, Note_on_c, 0, 70, 56
2, 177261, Note_on_c, 0, 49, 52
2, 177267, Note_on_c, 0, 66, 38
2, 177277, Note_off_c, 0, 58, 64
2, 177302, Note_off_c, 0, 49, 64
2, 177302, Note_off_c, 0, 46, 64
2, 177307, Note_off_c, 0, 54, 64
2, 177330, Note_off_c, 0, 66, 64
2, 177330, Note_off_c, 0, 70, 64
2, 177332, Note_on_c, 0, 58, 56
2, 177333, Note_off_c, 0, 61, 64
2, 177409, Note_on_c, 0, 54, 47
2, 177415, Note_on_c, 0, 46, 47
2, 177418, Note_off_c, 0, 58, 64
2, 177422, Note_on_c, 0, 61, 45
2, 177425, Note_on_c, 0, 49, 45
2, 177425, Note_on_c, 0, 70, 50
2, 177431, Note_on_c, 0, 66, 44
2, 177460, Note_off_c, 0, 49, 64
2, 177467, Note_off_c, 0, 46, 64
2, 177474, Note_off_c, 0, 54, 64
2, 177490, Note_off_c, 0, 61, 64
2, 177491, Note_off_c, 0, 70, 64
2, 177492, Note_off_c, 0, 66, 64
2, 177500, Note_on_c, 0, 58, 54
2, 177576, Note_on_c, 0, 66, 58
2, 177576, Note_on_c, 0, 54, 58
2, 177577, Note_on_c, 0, 70, 52
2, 177580, Note_on_c, 0, 49, 44
2, 177581, Note_off_c, 0, 58, 64
2, 177583, Note_on_c, 0, 46, 52
2, 177587, Note_on_c, 0, 61, 32
2, 177636, Note_off_c, 0, 66, 64
2, 177637, Note_off_c, 0, 70, 64
2, 177639, Note_off_c, 0, 49, 64
2, 177641, Note_off_c, 0, 54, 64
2, 177644, Note_off_c, 0, 46, 64
2, 177651, Note_off_c, 0, 61, 64
2, 177656, Note_on_c, 0, 58, 52
2, 177712, Note_on_c, 0, 30, 60
2, 177714, Note_off_c, 0, 58, 64
2, 177716, Note_on_c, 0, 42, 60
2, 177717, Note_on_c, 0, 34, 64
2, 177792, Note_off_c, 0, 34, 64
2, 177796, Note_on_c, 0, 58, 57
2, 177801, Note_off_c, 0, 30, 64
2, 177802, Note_on_c, 0, 46, 83
2, 177805, Note_off_c, 0, 42, 64
2, 177872, Note_on_c, 0, 30, 67
2, 177876, Note_on_c, 0, 34, 76
2, 177876, Note_on_c, 0, 42, 63
2, 177921, Note_off_c, 0, 46, 64
2, 177933, Note_off_c, 0, 58, 64
2, 177940, Note_off_c, 0, 42, 64
2, 177940, Note_on_c, 0, 58, 47
2, 177943, Note_on_c, 0, 59, 65
2, 177946, Note_on_c, 0, 47, 65
2, 177967, Note_off_c, 0, 34, 64
2, 177977, Note_off_c, 0, 30, 64
2, 178032, Note_on_c, 0, 30, 66
2, 178034, Note_on_c, 0, 34, 82
2, 178034, Note_on_c, 0, 42, 75
2, 178077, Note_off_c, 0, 58, 64
2, 178093, Note_off_c, 0, 47, 64
2, 178096, Note_on_c, 0, 58, 55
2, 178096, Note_on_c, 0, 60, 81
2, 178097, Note_on_c, 0, 48, 81
2, 178121, Note_off_c, 0, 30, 64
2, 178122, Note_off_c, 0, 34, 64
2, 178125, Note_off_c, 0, 42, 64
2, 178132, Note_off_c, 0, 59, 64
2, 178151, Control_c, 0, 64, 0
2, 178180, Note_on_c, 0, 30, 69
2, 178182, Note_on_c, 0, 34, 85
2, 178182, Note_on_c, 0, 42, 84
2, 178224, Note_off_c, 0, 48, 64
2, 178233, Note_off_c, 0, 58, 64
2, 178235, Control_c, 0, 64, 127
2, 178242, Note_on_c, 0, 61, 73
2, 178244, Note_on_c, 0, 49, 80
2, 178246, Note_on_c, 0, 58, 69
2, 178264, Note_off_c, 0, 60, 64
2, 178269, Note_off_c, 0, 30, 64
2, 178275, Note_off_c, 0, 42, 64
2, 178277, Note_off_c, 0, 34, 64
2, 178310, Control_c, 0, 64, 0
2, 178312, Note_off_c, 0, 49, 64
2, 178336, Note_on_c, 0, 46, 64
2, 178337, Note_on_c, 0, 49, 70
2, 178338, Note_on_c, 0, 54, 67
2, 178355, Note_off_c, 0, 58, 64
2, 178356, Control_c, 0, 64, 127
2, 178359, Note_off_c, 0, 61, 64
2, 178404, Note_on_c, 0, 58, 61
2, 178404, Note_on_c, 0, 66, 61
2, 178405, Note_on_c, 0, 70, 39
2, 178415, Note_off_c, 0, 49, 64
2, 178420, Note_off_c, 0, 46, 64
2, 178422, Note_off_c, 0, 54, 64
2, 178481, Control_c, 0, 64, 0
2, 178488, Note_on_c, 0, 49, 68
2, 178488, Note_on_c, 0, 54, 63
2, 178489, Note_on_c, 0, 46, 68
2, 178518, Note_off_c, 0, 70, 64
2, 178530, Control_c, 0, 64, 127
2, 178534, Note_off_c, 0, 66, 64
2, 178560, Note_on_c, 0, 70, 65
2, 178562, Note_on_c, 0, 59, 64
2, 178566, Note_on_c, 0, 66, 59
2, 178582, Note_off_c, 0, 46, 64
2, 178586, Note_off_c, 0, 58, 64
2, 178586, Note_off_c, 0, 49, 64
2, 178588, Note_off_c, 0, 54, 64
2, 178614, Control_c, 0, 64, 0
2, 178639, Note_on_c, 0, 54, 73
2, 178642, Note_on_c, 0, 49, 82
2, 178642, Note_on_c, 0, 46, 70
2, 178664, Control_c, 0, 64, 127
2, 178685, Note_off_c, 0, 66, 64
2, 178690, Note_off_c, 0, 70, 64
2, 178706, Note_off_c, 0, 49, 64
2, 178709, Note_on_c, 0, 60, 82
2, 178710, Note_off_c, 0, 46, 64
2, 178712, Note_on_c, 0, 70, 45
2, 178714, Note_off_c, 0, 54, 64
2, 178715, Note_on_c, 0, 66, 50
2, 178734, Note_off_c, 0, 59, 64
2, 178773, Control_c, 0, 64, 0
2, 178783, Note_on_c, 0, 54, 83
2, 178784, Note_on_c, 0, 49, 89
2, 178785, Note_on_c, 0, 46, 77
2, 178820, Control_c, 0, 64, 127
2, 178821, Note_off_c, 0, 70, 64
2, 178823, Note_off_c, 0, 66, 64
2, 178852, Note_on_c, 0, 70, 68
2, 178852, Note_on_c, 0, 66, 32
2, 178854, Note_off_c, 0, 54, 64
2, 178856, Note_off_c, 0, 46, 64
2, 178856, Note_on_c, 0, 61, 79
2, 178865, Note_off_c, 0, 49, 64
2, 178891, Note_off_c, 0, 60, 64
2, 178922, Control_c, 0, 64, 0
2, 178941, Note_off_c, 0, 66, 64
2, 178943, Note_on_c, 0, 34, 57
2, 178944, Note_on_c, 0, 42, 54
2, 178944, Note_on_c, 0, 30, 54
2, 178950, Note_off_c, 0, 70, 64
2, 178983, Note_off_c, 0, 61, 64
2, 178994, Control_c, 0, 64, 127
2, 179000, Note_on_c, 0, 60, 47
2, 179000, Note_on_c, 0, 58, 52
2, 179004, Note_on_c, 0, 48, 56
2, 179018, Note_off_c, 0, 30, 64
2, 179018, Note_off_c, 0, 42, 64
2, 179031, Note_off_c, 0, 34, 64
2, 179065, Control_c, 0, 64, 0
2, 179085, Note_on_c, 0, 30, 62
2, 179085, Note_on_c, 0, 34, 62
2, 179092, Note_on_c, 0, 42, 64
2, 179116, Control_c, 0, 64, 127
2, 179144, Note_off_c, 0, 58, 64
2, 179145, Note_off_c, 0, 42, 64
2, 179157, Note_off_c, 0, 34, 64
2, 179162, Note_off_c, 0, 30, 64
2, 179176, Note_on_c, 0, 49, 71
2, 179176, Note_on_c, 0, 61, 64
2, 179176, Note_on_c, 0, 58, 60
2, 179186, Note_off_c, 0, 48, 64
2, 179201, Note_off_c, 0, 60, 64
2, 179236, Note_on_c, 0, 34, 72
2, 179237, Note_on_c, 0, 30, 72
2, 179240, Note_on_c, 0, 42, 72
2, 179285, Note_off_c, 0, 58, 64
2, 179293, Note_off_c, 0, 42, 64
2, 179308, Note_off_c, 0, 34, 64
2, 179311, Note_off_c, 0, 30, 64
2, 179316, Note_on_c, 0, 50, 75
2, 179320, Note_on_c, 0, 62, 54
2, 179320, Note_on_c, 0, 58, 75
2, 179334, Note_off_c, 0, 61, 64
2, 179349, Note_off_c, 0, 49, 64
2, 179349, Control_c, 0, 64, 0
2, 179372, Note_on_c, 0, 34, 76
2, 179372, Note_on_c, 0, 30, 76
2, 179380, Note_on_c, 0, 42, 76
2, 179408, Note_off_c, 0, 58, 64
2, 179410, Control_c, 0, 64, 127
2, 179433, Note_off_c, 0, 42, 64
2, 179437, Note_off_c, 0, 30, 64
2, 179440, Note_off_c, 0, 34, 64
2, 179449, Note_on_c, 0, 63, 78
2, 179452, Note_on_c, 0, 51, 78
2, 179452, Note_on_c, 0, 58, 78
2, 179460, Note_off_c, 0, 50, 64
2, 179467, Note_off_c, 0, 62, 64
2, 179507, Control_c, 0, 64, 0
2, 179510, Note_off_c, 0, 58, 64
2, 179532, Note_on_c, 0, 46, 64
2, 179532, Note_on_c, 0, 58, 75
2, 179532, Note_on_c, 0, 54, 64
2, 179544, Note_off_c, 0, 63, 64
2, 179551, Note_off_c, 0, 51, 64
2, 179568, Control_c, 0, 64, 127
2, 179593, Note_on_c, 0, 62, 63
2, 179596, Note_on_c, 0, 70, 57
2, 179596, Note_on_c, 0, 66, 57
2, 179617, Note_off_c, 0, 58, 64
2, 179618, Note_off_c, 0, 46, 64
2, 179627, Note_off_c, 0, 54, 64
2, 179668, Note_on_c, 0, 58, 69
2, 179671, Note_on_c, 0, 54, 66
2, 179675, Note_on_c, 0, 46, 62
2, 179681, Note_off_c, 0, 66, 64
2, 179681, Note_off_c, 0, 70, 64
2, 179693, Note_off_c, 0, 62, 64
2, 179736, Note_on_c, 0, 66, 64
2, 179736, Note_on_c, 0, 70, 65
2, 179738, Note_on_c, 0, 63, 74
2, 179752, Note_off_c, 0, 58, 64
2, 179769, Note_off_c, 0, 54, 64
2, 179788, Note_off_c, 0, 46, 64
2, 179797, Control_c, 0, 64, 0
2, 179812, Note_on_c, 0, 34, 78
2, 179815, Note_on_c, 0, 30, 69
2, 179817, Note_off_c, 0, 70, 64
2, 179819, Note_on_c, 0, 42, 69
2, 179821, Note_off_c, 0, 66, 64
2, 179836, Note_off_c, 0, 63, 64
2, 179867, Control_c, 0, 64, 127
2, 179876, Note_off_c, 0, 34, 64
2, 179882, Note_off_c, 0, 30, 64
2, 179886, Note_off_c, 0, 42, 64
2, 179896, Note_on_c, 0, 63, 79
2, 179900, Note_on_c, 0, 51, 79
2, 179900, Note_on_c, 0, 58, 79
2, 179962, Note_on_c, 0, 34, 63
2, 179962, Note_on_c, 0, 30, 62
2, 179963, Note_on_c, 0, 42, 69
2, 179982, Note_off_c, 0, 58, 64
2, 180018, Note_off_c, 0, 34, 64
2, 180030, Note_off_c, 0, 42, 64
2, 180032, Note_on_c, 0, 52, 85
2, 180032, Note_on_c, 0, 64, 72
2, 180032, Note_on_c, 0, 58, 85
2, 180033, Note_off_c, 0, 30, 64
2, 180055, Note_off_c, 0, 63, 64
2, 180059, Note_off_c, 0, 51, 64
2, 180096, Note_off_c, 0, 58, 64
2, 180105, Note_on_c, 0, 58, 81
2, 180108, Note_on_c, 0, 46, 85
2, 180108, Note_on_c, 0, 54, 74
2, 180110, Note_off_c, 0, 64, 64
2, 180135, Note_off_c, 0, 52, 64
2, 180175, Note_off_c, 0, 54, 64
2, 180175, Note_on_c, 0, 63, 85
2, 180175, Note_on_c, 0, 70, 84
2, 180179, Note_off_c, 0, 58, 64
2, 180182, Note_off_c, 0, 46, 64
2, 180242, Note_on_c, 0, 58, 84
2, 180244, Note_on_c, 0, 54, 85
2, 180244, Note_on_c, 0, 46, 85
2, 180246, Note_off_c, 0, 70, 64
2, 180317, Note_off_c, 0, 58, 64
2, 180318, Note_off_c, 0, 46, 64
2, 180324, Note_on_c, 0, 70, 84
2, 180328, Note_on_c, 0, 64, 85
2, 180332, Note_off_c, 0, 54, 64
2, 180348, Note_off_c, 0, 63, 64
2, 180394, Note_off_c, 0, 70, 64
2, 180402, Control_c, 0, 64, 0
2, 180437, Note_off_c, 0, 64, 64
2, 180480, Note_on_c, 0, 42, 85
2, 180484, Note_on_c, 0, 52, 85
2, 180485, Note_on_c, 0, 70, 85
2, 180489, Note_on_c, 0, 82, 85
2, 180490, Note_on_c, 0, 46, 85
2, 180491, Note_on_c, 0, 76, 85
2, 180513, Control_c, 0, 64, 127
2, 180540, Note_off_c, 0, 76, 64
2, 180540, Note_off_c, 0, 46, 64
2, 180540, Note_off_c, 0, 82, 64
2, 180540, Note_off_c, 0, 70, 64
2, 180540, Note_off_c, 0, 52, 64
2, 180540, Note_off_c, 0, 42, 64
2, 180668, Note_on_c, 0, 37, 79
2, 180706, Note_on_c, 0, 46, 80
2, 180722, Control_c, 0, 64, 0
2, 180733, Note_on_c, 0, 94, 85
2, 180736, Note_on_c, 0, 82, 85
2, 180740, Note_on_c, 0, 89, 85
2, 180746, Note_off_c, 0, 37, 64
2, 180746, Note_on_c, 0, 53, 85
2, 180770, Control_c, 0, 64, 127
2, 180775, Note_off_c, 0, 46, 64
2, 180785, Note_off_c, 0, 53, 64
2, 180816, Note_off_c, 0, 89, 64
2, 180824, Note_off_c, 0, 94, 64
2, 180876, Note_off_c, 0, 82, 64
2, 180986, Note_on_c, 0, 88, 63
2, 181020, Note_on_c, 0, 89, 63
2, 181036, Note_off_c, 0, 88, 64
2, 181044, Note_on_c, 0, 90, 69
2, 181051, Note_off_c, 0, 89, 64
2, 181058, Control_c, 0, 64, 0
2, 181073, Note_on_c, 0, 65, 76
2, 181076, Note_on_c, 0, 81, 80
2, 181076, Note_on_c, 0, 89, 80
2, 181080, Note_on_c, 0, 84, 80
2, 181081, Note_on_c, 0, 77, 71
2, 181088, Control_c, 0, 64, 127
2, 181106, Note_off_c, 0, 90, 64
2, 181112, Control_c, 0, 64, 127
2, 181118, Note_off_c, 0, 89, 64
2, 181118, Note_off_c, 0, 81, 64
2, 181122, Note_off_c, 0, 84, 64
2, 181206, Note_off_c, 0, 65, 64
2, 181212, Note_off_c, 0, 77, 64
2, 181320, Note_on_c, 0, 72, 56
2, 181346, Note_on_c, 0, 73, 62
2, 181354, Note_off_c, 0, 72, 64
2, 181385, Note_on_c, 0, 75, 82
2, 181401, Note_off_c, 0, 73, 64
2, 181412, Control_c, 0, 64, 0
2, 181429, Note_on_c, 0, 61, 76
2, 181430, Note_on_c, 0, 73, 80
2, 181432, Note_on_c, 0, 70, 80
2, 181432, Note_on_c, 0, 58, 77
2, 181438, Note_off_c, 0, 75, 64
2, 181442, Control_c, 0, 64, 127
2, 181444, Control_c, 0, 64, 127
2, 181468, Note_off_c, 0, 73, 64
2, 181575, Note_off_c, 0, 61, 64
2, 181577, Note_off_c, 0, 70, 64
2, 181595, Note_off_c, 0, 58, 64
2, 181679, Note_on_c, 0, 64, 66
2, 181718, Note_on_c, 0, 65, 60
2, 181737, Note_off_c, 0, 64, 64
2, 181746, Note_on_c, 0, 66, 80
2, 181752, Control_c, 0, 64, 0
2, 181760, Note_off_c, 0, 65, 64
2, 181772, Note_on_c, 0, 41, 78
2, 181772, Note_on_c, 0, 53, 72
2, 181775, Note_on_c, 0, 57, 74
2, 181781, Note_on_c, 0, 65, 78
2, 181782, Note_on_c, 0, 60, 80
2, 181800, Note_off_c, 0, 66, 64
2, 181808, Note_off_c, 0, 57, 64
2, 181810, Control_c, 0, 64, 127
2, 181817, Note_off_c, 0, 60, 64
2, 181835, Note_off_c, 0, 65, 64
2, 181909, Note_off_c, 0, 41, 64
2, 181910, Note_off_c, 0, 53, 64
2, 182011, Note_on_c, 0, 48, 62
2, 182060, Note_on_c, 0, 49, 62
2, 182066, Note_off_c, 0, 48, 64
2, 182092, Note_on_c, 0, 51, 88
2, 182115, Note_off_c, 0, 49, 64
2, 182124, Note_off_c, 0, 51, 64
2, 182124, Control_c, 0, 64, 0
2, 182131, Note_on_c, 0, 97, 101
2, 182133, Note_on_c, 0, 85, 96
2, 182139, Note_on_c, 0, 89, 97
2, 182142, Note_on_c, 0, 49, 101
2, 182142, Note_on_c, 0, 37, 101
2, 182187, Control_c, 0, 64, 127
2, 182200, Note_off_c, 0, 49, 64
2, 182210, Note_off_c, 0, 37, 64
2, 182308, Note_off_c, 0, 97, 64
2, 182311, Note_off_c, 0, 89, 64
2, 182326, Note_off_c, 0, 85, 64
2, 182388, Note_on_c, 0, 91, 74
2, 182429, Note_on_c, 0, 92, 76
2, 182450, Note_off_c, 0, 91, 64
2, 182464, Note_on_c, 0, 93, 69
2, 182474, Control_c, 0, 64, 0
2, 182482, Note_off_c, 0, 92, 64
2, 182488, Note_on_c, 0, 80, 82
2, 182488, Note_on_c, 0, 68, 68
2, 182491, Note_on_c, 0, 84, 84
2, 182492, Note_on_c, 0, 87, 76
2, 182497, Note_on_c, 0, 92, 76
2, 182499, Note_off_c, 0, 93, 64
2, 182523, Control_c, 0, 64, 127
2, 182542, Note_off_c, 0, 84, 64
2, 182545, Note_off_c, 0, 87, 64
2, 182550, Note_off_c, 0, 92, 64
2, 182668, Note_off_c, 0, 80, 64
2, 182679, Note_off_c, 0, 68, 64
2, 182737, Note_on_c, 0, 75, 60
2, 182766, Note_on_c, 0, 77, 68
2, 182782, Note_off_c, 0, 75, 64
2, 182803, Note_on_c, 0, 78, 78
2, 182822, Note_off_c, 0, 77, 64
2, 182836, Control_c, 0, 64, 0
2, 182848, Note_on_c, 0, 73, 78
2, 182849, Note_on_c, 0, 77, 80
2, 182852, Note_on_c, 0, 65, 75
2, 182852, Note_on_c, 0, 61, 78
2, 182859, Note_off_c, 0, 78, 64
2, 182866, Control_c, 0, 64, 127
2, 182873, Note_off_c, 0, 77, 64
2, 183035, Note_off_c, 0, 65, 64
2, 183042, Note_off_c, 0, 73, 64
2, 183046, Note_off_c, 0, 61, 64
2, 183084, Note_on_c, 0, 67, 61
2, 183111, Note_on_c, 0, 68, 68
2, 183140, Note_off_c, 0, 67, 64
2, 183142, Note_on_c, 0, 69, 73
2, 183162, Note_off_c, 0, 68, 64
2, 183163, Control_c, 0, 64, 0
2, 183177, Note_on_c, 0, 44, 64
2, 183178, Note_on_c, 0, 56, 80
2, 183183, Note_on_c, 0, 63, 88
2, 183183, Note_on_c, 0, 68, 68
2, 183184, Note_on_c, 0, 60, 76
2, 183208, Note_off_c, 0, 69, 64
2, 183215, Control_c, 0, 64, 127
2, 183219, Note_off_c, 0, 60, 64
2, 183228, Note_off_c, 0, 63, 64
2, 183234, Note_off_c, 0, 68, 64
2, 183336, Note_off_c, 0, 56, 64
2, 183336, Note_off_c, 0, 44, 64
2, 183418, Note_on_c, 0, 51, 75
2, 183448, Note_on_c, 0, 53, 62
2, 183476, Note_on_c, 0, 54, 73
2, 183477, Note_off_c, 0, 51, 64
2, 183484, Control_c, 0, 64, 0
2, 183503, Note_off_c, 0, 53, 64
2, 183520, Note_on_c, 0, 89, 100
2, 183520, Note_on_c, 0, 77, 89
2, 183520, Note_on_c, 0, 53, 86
2, 183524, Note_on_c, 0, 41, 86
2, 183537, Note_off_c, 0, 54, 64
2, 183547, Control_c, 0, 64, 127
2, 183579, Note_off_c, 0, 89, 64
2, 183588, Note_off_c, 0, 53, 64
2, 183592, Note_off_c, 0, 41, 64
2, 183601, Note_off_c, 0, 77, 64
2, 183677, Note_on_c, 0, 41, 82
2, 183680, Note_on_c, 0, 29, 60
2, 183717, Note_off_c, 0, 41, 64
2, 183729, Note_off_c, 0, 29, 64
2, 183758, Note_on_c, 0, 64, 62
2, 183788, Note_on_c, 0, 65, 64
2, 183802, Note_off_c, 0, 64, 64
2, 183803, Note_on_c, 0, 66, 64
2, 183818, Note_off_c, 0, 65, 64
2, 183824, Control_c, 0, 64, 0
2, 183836, Note_on_c, 0, 53, 74
2, 183836, Note_on_c, 0, 30, 81
2, 183839, Note_on_c, 0, 65, 75
2, 183840, Note_on_c, 0, 42, 80
2, 183876, Note_off_c, 0, 42, 64
2, 183877, Note_off_c, 0, 66, 64
2, 183882, Control_c, 0, 64, 127
2, 183900, Note_off_c, 0, 30, 64
2, 183995, Note_on_c, 0, 54, 54
2, 183999, Note_on_c, 0, 42, 62
2, 184005, Note_off_c, 0, 53, 64
2, 184008, Note_off_c, 0, 65, 64
2, 184046, Note_off_c, 0, 42, 64
2, 184053, Note_off_c, 0, 54, 64
2, 184088, Note_on_c, 0, 77, 81
2, 184089, Note_on_c, 0, 89, 91
2, 184136, Control_c, 0, 64, 0
2, 184157, Note_on_c, 0, 43, 84
2, 184158, Note_on_c, 0, 55, 84
2, 184174, Control_c, 0, 64, 127
2, 184194, Note_off_c, 0, 89, 64
2, 184205, Note_off_c, 0, 43, 64
2, 184213, Note_off_c, 0, 55, 64
2, 184216, Note_off_c, 0, 77, 64
2, 184324, Note_on_c, 0, 43, 80
2, 184326, Note_on_c, 0, 31, 55
2, 184367, Note_off_c, 0, 43, 64
2, 184370, Note_off_c, 0, 31, 64
2, 184404, Note_on_c, 0, 64, 64
2, 184428, Note_on_c, 0, 65, 66
2, 184452, Note_on_c, 0, 66, 68
2, 184454, Control_c, 0, 64, 0
2, 184458, Note_off_c, 0, 64, 64
2, 184476, Note_off_c, 0, 65, 64
2, 184496, Note_on_c, 0, 65, 66
2, 184496, Note_on_c, 0, 53, 68
2, 184500, Note_on_c, 0, 44, 86
2, 184500, Note_on_c, 0, 32, 80
2, 184507, Control_c, 0, 64, 127
2, 184524, Note_off_c, 0, 66, 64
2, 184548, Note_off_c, 0, 44, 64
2, 184559, Note_off_c, 0, 32, 64
2, 184634, Note_on_c, 0, 44, 73
2, 184637, Note_on_c, 0, 56, 78
2, 184665, Note_off_c, 0, 53, 64
2, 184665, Note_off_c, 0, 65, 64
2, 184695, Note_off_c, 0, 44, 64
2, 184710, Note_off_c, 0, 56, 64
2, 184716, Note_on_c, 0, 77, 82
2, 184716, Note_on_c, 0, 85, 91
2, 184716, Note_on_c, 0, 89, 89
2, 184772, Control_c, 0, 64, 0
2, 184787, Note_on_c, 0, 57, 81
2, 184790, Note_on_c, 0, 49, 68
2, 184794, Note_on_c, 0, 45, 63
2, 184819, Control_c, 0, 64, 127
2, 184840, Note_off_c, 0, 45, 64
2, 184846, Note_off_c, 0, 57, 64
2, 184849, Note_off_c, 0, 49, 64
2, 184939, Note_off_c, 0, 85, 64
2, 184942, Note_off_c, 0, 89, 64
2, 184948, Note_off_c, 0, 77, 64
2, 184953, Note_on_c, 0, 33, 75
2, 184954, Note_on_c, 0, 37, 80
2, 184963, Note_on_c, 0, 45, 76
2, 185005, Note_off_c, 0, 45, 64
2, 185006, Note_off_c, 0, 33, 64
2, 185012, Note_off_c, 0, 37, 64
2, 185039, Note_on_c, 0, 90, 96
2, 185045, Note_on_c, 0, 85, 96
2, 185048, Note_on_c, 0, 78, 96
2, 185082, Control_c, 0, 64, 0
2, 185118, Note_on_c, 0, 58, 85
2, 185121, Note_on_c, 0, 49, 85
2, 185127, Note_on_c, 0, 46, 72
2, 185144, Control_c, 0, 64, 127
2, 185171, Note_off_c, 0, 46, 64
2, 185174, Note_off_c, 0, 58, 64
2, 185175, Note_off_c, 0, 49, 64
2, 185242, Note_off_c, 0, 78, 64
2, 185247, Note_off_c, 0, 85, 64
2, 185254, Note_off_c, 0, 90, 64
2, 185260, Note_on_c, 0, 46, 64
2, 185262, Note_on_c, 0, 34, 80
2, 185265, Note_on_c, 0, 37, 80
2, 185310, Note_off_c, 0, 46, 64
2, 185322, Note_off_c, 0, 37, 64
2, 185326, Note_off_c, 0, 34, 64
2, 185338, Note_on_c, 0, 90, 88
2, 185346, Note_on_c, 0, 86, 82
2, 185346, Note_on_c, 0, 78, 88
2, 185405, Control_c, 0, 64, 0
2, 185428, Note_on_c, 0, 47, 76
2, 185429, Note_on_c, 0, 50, 88
2, 185430, Note_on_c, 0, 59, 86
2, 185453, Control_c, 0, 64, 127
2, 185461, Note_off_c, 0, 90, 64
2, 185469, Note_off_c, 0, 86, 64
2, 185482, Note_off_c, 0, 47, 64
2, 185487, Note_off_c, 0, 59, 64
2, 185491, Note_off_c, 0, 50, 64
2, 185495, Note_off_c, 0, 78, 64
2, 185576, Note_on_c, 0, 35, 76
2, 185580, Note_on_c, 0, 47, 65
2, 185581, Note_on_c, 0, 39, 69
2, 185630, Note_off_c, 0, 35, 64
2, 185636, Note_off_c, 0, 39, 64
2, 185636, Note_on_c, 0, 65, 84
2, 185651, Note_off_c, 0, 47, 64
2, 185676, Note_on_c, 0, 66, 65
2, 185690, Note_off_c, 0, 65, 64
2, 185706, Control_c, 0, 64, 0
2, 185711, Note_on_c, 0, 68, 75
2, 185719, Note_off_c, 0, 66, 64
2, 185726, Note_on_c, 0, 36, 71
2, 185731, Note_on_c, 0, 48, 67
2, 185734, Note_on_c, 0, 39, 66
2, 185736, Note_on_c, 0, 54, 84
2, 185740, Note_on_c, 0, 66, 84
2, 185762, Note_off_c, 0, 68, 64
2, 185772, Control_c, 0, 64, 127
2, 185795, Note_off_c, 0, 48, 64
2, 185795, Note_off_c, 0, 36, 64
2, 185802, Note_off_c, 0, 39, 64
2, 185874, Note_off_c, 0, 54, 64
2, 185878, Note_off_c, 0, 66, 64
2, 185891, Note_on_c, 0, 60, 66
2, 185892, Note_on_c, 0, 48, 61
2, 185892, Note_on_c, 0, 51, 68
2, 185950, Note_off_c, 0, 60, 64
2, 185953, Note_off_c, 0, 51, 64
2, 185968, Note_off_c, 0, 48, 64
2, 185969, Note_on_c, 0, 78, 99
2, 185972, Note_on_c, 0, 90, 101
2, 185978, Note_on_c, 0, 88, 101
2, 186040, Control_c, 0, 64, 0
2, 186050, Note_on_c, 0, 52, 92
2, 186050, Note_on_c, 0, 61, 93
2, 186057, Note_on_c, 0, 49, 78
2, 186102, Control_c, 0, 64, 127
2, 186122, Note_off_c, 0, 61, 64
2, 186126, Note_off_c, 0, 90, 64
2, 186129, Note_off_c, 0, 52, 64
2, 186132, Note_off_c, 0, 49, 64
2, 186142, Note_off_c, 0, 88, 64
2, 186164, Note_off_c, 0, 78, 64
2, 186204, Note_on_c, 0, 49, 84
2, 186209, Note_on_c, 0, 37, 80
2, 186211, Note_on_c, 0, 40, 78
2, 186255, Note_off_c, 0, 49, 64
2, 186259, Note_off_c, 0, 37, 64
2, 186267, Note_off_c, 0, 40, 64
2, 186281, Note_on_c, 0, 65, 64
2, 186308, Note_on_c, 0, 66, 64
2, 186327, Note_off_c, 0, 65, 64
2, 186346, Note_on_c, 0, 68, 76
2, 186346, Control_c, 0, 64, 0
2, 186347, Note_off_c, 0, 66, 64
2, 186368, Note_on_c, 0, 41, 73
2, 186368, Note_on_c, 0, 38, 76
2, 186368, Note_on_c, 0, 54, 64
2, 186371, Note_on_c, 0, 50, 75
2, 186379, Note_on_c, 0, 66, 75
2, 186397, Control_c, 0, 64, 127
2, 186418, Note_off_c, 0, 68, 64
2, 186422, Note_off_c, 0, 50, 64
2, 186431, Note_off_c, 0, 38, 64
2, 186438, Note_off_c, 0, 41, 64
2, 186511, Note_on_c, 0, 53, 58
2, 186515, Note_off_c, 0, 54, 64
2, 186517, Note_off_c, 0, 66, 64
2, 186517, Note_on_c, 0, 50, 60
2, 186519, Note_on_c, 0, 62, 64
2, 186557, Note_off_c, 0, 50, 64
2, 186569, Note_off_c, 0, 62, 64
2, 186579, Note_off_c, 0, 53, 64
2, 186579, Note_on_c, 0, 90, 82
2, 186585, Note_on_c, 0, 78, 90
2, 186587, Note_on_c, 0, 83, 84
2, 186639, Control_c, 0, 64, 0
2, 186668, Note_on_c, 0, 59, 67
2, 186668, Note_on_c, 0, 63, 73
2, 186672, Note_on_c, 0, 51, 69
2, 186672, Note_on_c, 0, 54, 63
2, 186708, Control_c, 0, 64, 127
2, 186739, Note_off_c, 0, 63, 64
2, 186742, Note_off_c, 0, 54, 64
2, 186750, Note_off_c, 0, 83, 64
2, 186764, Note_off_c, 0, 51, 64
2, 186775, Note_off_c, 0, 59, 64
2, 186785, Note_off_c, 0, 78, 64
2, 186796, Note_off_c, 0, 90, 64
2, 186822, Note_on_c, 0, 39, 80
2, 186824, Note_on_c, 0, 51, 73
2, 186878, Note_off_c, 0, 51, 64
2, 186882, Note_off_c, 0, 39, 64
2, 186888, Note_on_c, 0, 82, 94
2, 186894, Note_on_c, 0, 79, 92
2, 186894, Note_on_c, 0, 88, 82
2, 186899, Note_on_c, 0, 91, 78
2, 186952, Control_c, 0, 64, 0
2, 186980, Control_c, 0, 64, 127
2, 186982, Note_on_c, 0, 61, 75
2, 186984, Note_on_c, 0, 49, 75
2, 186984, Note_on_c, 0, 52, 75
2, 186987, Note_on_c, 0, 58, 75
2, 187012, Control_c, 0, 64, 127
2, 187025, Note_off_c, 0, 61, 64
2, 187030, Note_off_c, 0, 58, 64
2, 187039, Note_off_c, 0, 52, 64
2, 187039, Note_off_c, 0, 49, 64
2, 187091, Note_off_c, 0, 88, 64
2, 187095, Note_off_c, 0, 82, 64
2, 187099, Note_off_c, 0, 91, 64
2, 187106, Note_off_c, 0, 79, 64
2, 187144, Note_on_c, 0, 39, 91
2, 187144, Control_c, 0, 64, 127
2, 187148, Note_on_c, 0, 49, 91
2, 187199, Note_off_c, 0, 39, 64
2, 187203, Note_off_c, 0, 49, 64
2, 187220, Note_on_c, 0, 84, 83
2, 187222, Note_on_c, 0, 81, 84
2, 187222, Note_on_c, 0, 93, 83
2, 187224, Note_on_c, 0, 89, 83
2, 187280, Control_c, 0, 64, 0
2, 187300, Note_on_c, 0, 57, 85
2, 187300, Note_on_c, 0, 53, 92
2, 187300, Control_c, 0, 64, 127
2, 187304, Note_on_c, 0, 60, 83
2, 187307, Note_on_c, 0, 48, 84
2, 187330, Control_c, 0, 64, 127
2, 187345, Note_off_c, 0, 60, 64
2, 187350, Note_off_c, 0, 57, 64
2, 187355, Note_off_c, 0, 53, 64
2, 187357, Note_off_c, 0, 48, 64
2, 187438, Note_off_c, 0, 81, 64
2, 187450, Note_off_c, 0, 84, 64
2, 187453, Note_on_c, 0, 48, 93
2, 187454, Note_off_c, 0, 89, 64
2, 187456, Note_off_c, 0, 93, 64
2, 187457, Note_on_c, 0, 36, 93
2, 187518, Note_off_c, 0, 48, 64
2, 187522, Note_off_c, 0, 36, 64
2, 187540, Note_on_c, 0, 96, 90
2, 187544, Note_on_c, 0, 89, 94
2, 187548, Note_on_c, 0, 84, 86
2, 187625, Note_on_c, 0, 57, 79
2, 187628, Note_on_c, 0, 45, 91
2, 187628, Note_on_c, 0, 53, 95
2, 187632, Note_on_c, 0, 48, 28
2, 187674, Note_off_c, 0, 53, 64
2, 187676, Note_off_c, 0, 57, 64
2, 187681, Note_off_c, 0, 45, 64
2, 187683, Note_off_c, 0, 48, 64
2, 187733, Note_off_c, 0, 89, 64
2, 187738, Note_off_c, 0, 96, 64
2, 187767, Note_on_c, 0, 33, 88
2, 187773, Note_on_c, 0, 45, 82
2, 187778, Note_off_c, 0, 84, 64
2, 187800, Note_off_c, 0, 45, 64
2, 187817, Note_off_c, 0, 33, 64
2, 187868, Note_on_c, 0, 93, 73
2, 187868, Note_on_c, 0, 101, 74
2, 187869, Note_on_c, 0, 89, 77
2, 187928, Control_c, 0, 64, 0
2, 187962, Note_on_c, 0, 41, 98
2, 187962, Note_on_c, 0, 29, 98
2, 187997, Control_c, 0, 64, 127
2, 188093, Note_off_c, 0, 93, 64
2, 188136, Note_off_c, 0, 101, 64
2, 188146, Note_off_c, 0, 89, 64
2, 188202, Note_off_c, 0, 29, 64
2, 188208, Note_off_c, 0, 41, 64
2, 188294, Note_on_c, 0, 96, 68
2, 188311, Note_on_c, 0, 97, 76
2, 188336, Note_off_c, 0, 96, 64
2, 188346, Note_on_c, 0, 99, 82
2, 188362, Note_off_c, 0, 97, 64
2, 188375, Note_off_c, 0, 99, 64
2, 188375, Control_c, 0, 64, 0
2, 188385, Note_on_c, 0, 88, 80
2, 188388, Note_on_c, 0, 82, 88
2, 188389, Note_on_c, 0, 97, 84
2, 188393, Note_on_c, 0, 70, 68
2, 188410, Control_c, 0, 64, 127
2, 188437, Note_off_c, 0, 97, 64
2, 188438, Note_off_c, 0, 88, 64
2, 188603, Note_off_c, 0, 82, 64
2, 188622, Note_off_c, 0, 70, 64
2, 188717, Note_on_c, 0, 76, 64
2, 188761, Note_on_c, 0, 77, 80
2, 188788, Note_on_c, 0, 79, 64
2, 188793, Control_c, 0, 64, 0
2, 188816, Note_off_c, 0, 77, 64
2, 188818, Note_on_c, 0, 65, 75
2, 188823, Note_on_c, 0, 53, 76
2, 188824, Note_on_c, 0, 57, 72
2, 188825, Note_on_c, 0, 77, 80
2, 188832, Note_off_c, 0, 76, 64
2, 188847, Note_off_c, 0, 79, 64
2, 188857, Control_c, 0, 64, 127
2, 188911, Note_off_c, 0, 77, 64
2, 189082, Note_off_c, 0, 65, 64
2, 189089, Note_off_c, 0, 57, 64
2, 189104, Note_off_c, 0, 53, 64
2, 189117, Note_on_c, 0, 60, 65
2, 189136, Note_on_c, 0, 61, 77
2, 189159, Note_off_c, 0, 60, 64
2, 189172, Note_on_c, 0, 63, 80
2, 189188, Note_off_c, 0, 61, 64
2, 189196, Control_c, 0, 64, 0
2, 189205, Note_on_c, 0, 46, 66
2, 189205, Note_on_c, 0, 34, 73
2, 189211, Note_on_c, 0, 52, 69
2, 189214, Note_on_c, 0, 61, 80
2, 189236, Control_c, 0, 64, 127
2, 189242, Note_off_c, 0, 63, 64
2, 189263, Note_off_c, 0, 52, 64
2, 189264, Note_off_c, 0, 61, 64
2, 189498, Note_on_c, 0, 40, 101
2, 189510, Note_off_c, 0, 34, 64
2, 189514, Note_off_c, 0, 46, 64
2, 189530, Note_on_c, 0, 41, 88
2, 189551, Note_off_c, 0, 40, 64
2, 189557, Note_on_c, 0, 43, 101
2, 189581, Note_off_c, 0, 41, 64
2, 189598, Control_c, 0, 64, 0
2, 189606, Control_c, 0, 64, 0
2, 189612, Note_on_c, 0, 41, 101
2, 189612, Note_on_c, 0, 29, 101
2, 189619, Note_off_c, 0, 43, 64
2, 189696, Control_c, 0, 64, 127
2, 190000, Note_on_c, 0, 31, 49
2, 190003, Note_on_c, 0, 43, 58
2, 190004, Note_off_c, 0, 29, 64
2, 190004, Note_off_c, 0, 41, 64
2, 190046, Note_on_c, 0, 33, 36
2, 190049, Note_on_c, 0, 45, 50
2, 190065, Note_off_c, 0, 31, 64
2, 190068, Note_off_c, 0, 43, 64
2, 190079, Note_on_c, 0, 46, 63
2, 190080, Note_on_c, 0, 34, 59
2, 190090, Note_off_c, 0, 33, 64
2, 190099, Note_off_c, 0, 45, 64
2, 190128, Note_on_c, 0, 36, 67
2, 190131, Note_on_c, 0, 48, 76
2, 190144, Note_off_c, 0, 46, 64
2, 190145, Note_off_c, 0, 34, 64
2, 190169, Note_on_c, 0, 38, 58
2, 190170, Note_on_c, 0, 50, 74
2, 190186, Note_off_c, 0, 36, 64
2, 190189, Note_off_c, 0, 48, 64
2, 190193, Control_c, 0, 64, 0
2, 190204, Note_on_c, 0, 52, 60
2, 190204, Note_on_c, 0, 40, 52
2, 190222, Note_off_c, 0, 50, 64
2, 190224, Note_off_c, 0, 38, 64
2, 190248, Note_on_c, 0, 41, 70
2, 190251, Note_on_c, 0, 53, 79
2, 190262, Note_off_c, 0, 40, 64
2, 190262, Note_off_c, 0, 52, 64
2, 190290, Note_on_c, 0, 43, 60
2, 190292, Note_on_c, 0, 55, 75
2, 190299, Note_off_c, 0, 41, 64
2, 190319, Note_off_c, 0, 53, 64
2, 190321, Note_on_c, 0, 57, 64
2, 190322, Note_on_c, 0, 45, 62
2, 190333, Note_off_c, 0, 43, 64
2, 190334, Control_c, 0, 64, 127
2, 190353, Note_off_c, 0, 55, 64
2, 190354, Note_on_c, 0, 46, 72
2, 190354, Note_on_c, 0, 58, 76
2, 190371, Note_off_c, 0, 45, 64
2, 190372, Note_off_c, 0, 57, 64
2, 190394, Note_on_c, 0, 48, 4
2, 190396, Note_on_c, 0, 60, 83
2, 190411, Note_off_c, 0, 58, 64
2, 190411, Note_off_c, 0, 46, 64
2, 190432, Note_on_c, 0, 50, 30
2, 190434, Note_on_c, 0, 62, 79
2, 190440, Note_off_c, 0, 48, 64
2, 190461, Note_off_c, 0, 60, 64
2, 190470, Note_on_c, 0, 64, 80
2, 190470, Note_on_c, 0, 52, 28
2, 190486, Note_off_c, 0, 50, 64
2, 190488, Note_off_c, 0, 62, 64
2, 190516, Note_on_c, 0, 65, 86
2, 190516, Note_on_c, 0, 53, 63
2, 190524, Note_off_c, 0, 52, 64
2, 190524, Note_off_c, 0, 64, 64
2, 190556, Note_on_c, 0, 55, 76
2, 190558, Note_on_c, 0, 67, 76
2, 190576, Note_off_c, 0, 53, 64
2, 190576, Note_off_c, 0, 65, 64
2, 190587, Note_on_c, 0, 57, 69
2, 190589, Note_on_c, 0, 69, 69
2, 190606, Note_off_c, 0, 55, 64
2, 190608, Note_off_c, 0, 67, 64
2, 190616, Note_on_c, 0, 70, 88
2, 190616, Note_on_c, 0, 58, 88
2, 190621, Note_off_c, 0, 57, 64
2, 190623, Note_off_c, 0, 69, 64
2, 190648, Note_on_c, 0, 72, 82
2, 190648, Note_on_c, 0, 60, 68
2, 190670, Note_off_c, 0, 58, 64
2, 190670, Note_off_c, 0, 70, 64
2, 190674, Note_on_c, 0, 62, 54
2, 190675, Note_on_c, 0, 74, 89
2, 190696, Note_off_c, 0, 60, 64
2, 190696, Note_off_c, 0, 72, 64
2, 190705, Note_on_c, 0, 76, 72
2, 190706, Note_on_c, 0, 64, 75
2, 190722, Note_off_c, 0, 62, 64
2, 190723, Note_off_c, 0, 74, 64
2, 190726, Note_on_c, 0, 65, 96
2, 190727, Note_on_c, 0, 77, 116
2, 190735, Note_off_c, 0, 76, 64
2, 190736, Note_off_c, 0, 64, 64
2, 190781, Note_off_c, 0, 77, 64
2, 190782, Note_off_c, 0, 65, 64
2, 190927, Control_c, 0, 64, 0
2, 191210, Note_on_c, 0, 54, 96
2, 191212, Note_on_c, 0, 46, 101
2, 191212, Note_on_c, 0, 37, 92
2, 191213, Note_on_c, 0, 49, 88
2, 191213, Note_on_c, 0, 42, 101
2, 191214, Note_on_c, 0, 34, 92
2, 191252, Control_c, 0, 64, 127
2, 191781, Note_off_c, 0, 46, 64
2, 191820, Note_off_c, 0, 42, 64
2, 191826, Note_on_c, 0, 44, 58
2, 191828, Note_on_c, 0, 56, 65
2, 191834, Note_off_c, 0, 54, 64
2, 191837, Note_off_c, 0, 49, 64
2, 191856, Note_off_c, 0, 37, 64
2, 191858, Note_off_c, 0, 34, 64
2, 191878, Note_on_c, 0, 58, 58
2, 191884, Note_off_c, 0, 44, 64
2, 191884, Note_on_c, 0, 46, 62
2, 191886, Note_off_c, 0, 56, 64
2, 191936, Note_off_c, 0, 58, 64
2, 191942, Note_off_c, 0, 46, 64
2, 191949, Note_on_c, 0, 59, 68
2, 191950, Note_on_c, 0, 47, 69
2, 191990, Note_on_c, 0, 49, 68
2, 191990, Note_on_c, 0, 61, 73
2, 191996, Note_off_c, 0, 59, 64
2, 191997, Note_off_c, 0, 47, 64
2, 192022, Note_on_c, 0, 51, 31
2, 192024, Note_on_c, 0, 63, 70
2, 192030, Note_off_c, 0, 49, 64
2, 192032, Control_c, 0, 64, 0
2, 192041, Note_off_c, 0, 61, 64
2, 192080, Note_off_c, 0, 51, 64
2, 192080, Note_on_c, 0, 65, 74
2, 192080, Note_on_c, 0, 53, 60
2, 192082, Note_off_c, 0, 63, 64
2, 192121, Note_on_c, 0, 54, 69
2, 192122, Note_on_c, 0, 66, 77
2, 192134, Note_off_c, 0, 53, 64
2, 192134, Note_off_c, 0, 65, 64
2, 192152, Note_on_c, 0, 68, 72
2, 192152, Note_on_c, 0, 56, 52
2, 192175, Note_off_c, 0, 66, 64
2, 192178, Note_off_c, 0, 54, 64
2, 192186, Note_on_c, 0, 58, 79
2, 192187, Note_on_c, 0, 70, 80
2, 192206, Note_off_c, 0, 56, 64
2, 192207, Note_off_c, 0, 68, 64
2, 192230, Note_on_c, 0, 59, 33
2, 192231, Note_on_c, 0, 71, 70
2, 192240, Note_off_c, 0, 58, 64
2, 192241, Note_off_c, 0, 70, 64
2, 192276, Note_on_c, 0, 73, 81
2, 192280, Note_on_c, 0, 61, 44
2, 192282, Note_off_c, 0, 59, 64
2, 192283, Note_off_c, 0, 71, 64
2, 192310, Note_on_c, 0, 75, 86
2, 192314, Note_on_c, 0, 63, 34
2, 192322, Control_c, 0, 64, 127
2, 192328, Note_off_c, 0, 73, 64
2, 192332, Note_off_c, 0, 61, 64
2, 192360, Note_on_c, 0, 65, 36
2, 192361, Note_on_c, 0, 77, 84
2, 192362, Note_off_c, 0, 75, 64
2, 192366, Note_off_c, 0, 63, 64
2, 192401, Note_on_c, 0, 78, 80
2, 192402, Note_on_c, 0, 66, 77
2, 192410, Note_off_c, 0, 65, 64
2, 192411, Note_off_c, 0, 77, 64
2, 192434, Note_on_c, 0, 80, 74
2, 192436, Note_on_c, 0, 68, 35
2, 192450, Note_off_c, 0, 78, 64
2, 192453, Note_off_c, 0, 66, 64
2, 192462, Note_on_c, 0, 82, 84
2, 192469, Note_on_c, 0, 70, 40
2, 192481, Note_off_c, 0, 80, 64
2, 192484, Note_off_c, 0, 68, 64
2, 192496, Note_on_c, 0, 71, 76
2, 192496, Note_on_c, 0, 83, 88
2, 192510, Note_off_c, 0, 82, 64
2, 192517, Note_off_c, 0, 70, 64
2, 192530, Note_on_c, 0, 72, 34
2, 192530, Note_on_c, 0, 85, 71
2, 192554, Note_off_c, 0, 83, 64
2, 192554, Note_off_c, 0, 71, 64
2, 192574, Note_on_c, 0, 75, 89
2, 192574, Note_on_c, 0, 87, 77
2, 192605, Note_off_c, 0, 85, 64
2, 192605, Note_off_c, 0, 72, 64
2, 192614, Note_on_c, 0, 77, 68
2, 192614, Note_on_c, 0, 89, 80
2, 192644, Note_off_c, 0, 87, 64
2, 192644, Note_off_c, 0, 75, 64
2, 192652, Note_on_c, 0, 78, 101
2, 192652, Note_on_c, 0, 90, 82
2, 192652, Note_on_c, 0, 66, 92
2, 192666, Note_off_c, 0, 89, 64
2, 192666, Note_off_c, 0, 77, 64
2, 192717, Note_off_c, 0, 66, 64
2, 192729, Control_c, 0, 64, 0
2, 192738, Note_off_c, 0, 90, 64
2, 192856, Control_c, 0, 64, 127
2, 193537, Note_on_c, 0, 73, 50
2, 193548, Note_off_c, 0, 78, 64
2, 193555, Control_c, 0, 64, 0
2, 193560, Note_on_c, 0, 74, 55
2, 193568, Note_off_c, 0, 73, 64
2, 193590, Note_on_c, 0, 76, 56
2, 193599, Note_off_c, 0, 74, 64
2, 193634, Note_on_c, 0, 65, 32
2, 193637, Note_on_c, 0, 74, 75
2, 193675, Note_off_c, 0, 76, 64
2, 193702, Control_c, 0, 64, 127
2, 193713, Note_on_c, 0, 59, 35
2, 193716, Note_on_c, 0, 47, 31
2, 193792, Note_on_c, 0, 56, 53
2, 193821, Note_off_c, 0, 47, 64
2, 193840, Note_off_c, 0, 59, 64
2, 193848, Note_on_c, 0, 71, 50
2, 193856, Note_on_c, 0, 53, 49
2, 193867, Note_off_c, 0, 65, 64
2, 193869, Note_off_c, 0, 74, 64
2, 193888, Note_off_c, 0, 53, 64
2, 193895, Note_off_c, 0, 56, 64
2, 193936, Note_on_c, 0, 64, 62
2, 193938, Note_on_c, 0, 70, 71
2, 193941, Note_off_c, 0, 71, 64
2, 194005, Control_c, 0, 64, 0
2, 194021, Note_on_c, 0, 54, 44
2, 194024, Note_on_c, 0, 42, 41
2, 194076, Control_c, 0, 64, 127
2, 194097, Note_on_c, 0, 49, 50
2, 194129, Note_off_c, 0, 42, 64
2, 194148, Note_off_c, 0, 54, 64
2, 194180, Note_on_c, 0, 46, 62
2, 194184, Note_on_c, 0, 73, 73
2, 194191, Note_off_c, 0, 49, 64
2, 194217, Note_off_c, 0, 70, 64
2, 194222, Note_off_c, 0, 64, 64
2, 194223, Note_off_c, 0, 46, 64
2, 194277, Note_off_c, 0, 73, 64
2, 194284, Note_on_c, 0, 66, 75
2, 194288, Note_on_c, 0, 62, 66
2, 194325, Control_c, 0, 64, 0
2, 194372, Note_on_c, 0, 35, 52
2, 194383, Note_on_c, 0, 47, 52
2, 194403, Control_c, 0, 64, 127
2, 194443, Note_on_c, 0, 42, 52
2, 194478, Note_off_c, 0, 35, 64
2, 194489, Note_off_c, 0, 47, 64
2, 194493, Note_off_c, 0, 62, 64
2, 194527, Note_on_c, 0, 68, 59
2, 194536, Note_on_c, 0, 38, 62
2, 194546, Note_off_c, 0, 42, 64
2, 194557, Note_off_c, 0, 66, 64
2, 194579, Note_off_c, 0, 38, 64
2, 194602, Note_off_c, 0, 68, 64
2, 194610, Note_on_c, 0, 70, 72
2, 194612, Note_on_c, 0, 61, 72
2, 194626, Control_c, 0, 64, 0
2, 194679, Note_on_c, 0, 30, 64
2, 194683, Note_on_c, 0, 42, 64
2, 194703, Control_c, 0, 64, 127
2, 194739, Note_off_c, 0, 61, 64
2, 194776, Note_on_c, 0, 37, 58
2, 194796, Note_off_c, 0, 30, 64
2, 194800, Note_off_c, 0, 42, 64
2, 194844, Note_off_c, 0, 70, 64
2, 194844, Note_on_c, 0, 34, 47
2, 194852, Note_off_c, 0, 37, 64
2, 194858, Note_on_c, 0, 66, 64
2, 194890, Note_off_c, 0, 34, 64
2, 194936, Note_on_c, 0, 64, 41
2, 194936, Note_on_c, 0, 73, 60
2, 194944, Note_off_c, 0, 66, 64
2, 194944, Note_on_c, 0, 76, 58
2, 194949, Control_c, 0, 64, 0
2, 195003, Control_c, 0, 64, 127
2, 195015, Note_on_c, 0, 66, 68
2, 195020, Note_on_c, 0, 47, 54
2, 195023, Note_off_c, 0, 76, 64
2, 195024, Note_on_c, 0, 35, 64
2, 195026, Note_off_c, 0, 73, 64
2, 195050, Note_off_c, 0, 64, 64
2, 195079, Note_on_c, 0, 42, 48
2, 195095, Note_off_c, 0, 66, 64
2, 195102, Note_on_c, 0, 71, 58
2, 195103, Note_on_c, 0, 74, 59
2, 195103, Note_on_c, 0, 62, 68
2, 195122, Note_off_c, 0, 47, 64
2, 195141, Note_off_c, 0, 35, 64
2, 195155, Note_off_c, 0, 62, 64
2, 195175, Note_off_c, 0, 74, 64
2, 195176, Note_on_c, 0, 66, 69
2, 195187, Note_off_c, 0, 71, 64
2, 195190, Note_off_c, 0, 42, 64
2, 195193, Note_on_c, 0, 38, 28
2, 195214, Note_off_c, 0, 38, 64
2, 195240, Note_off_c, 0, 66, 64
2, 195249, Control_c, 0, 64, 0
2, 195269, Note_on_c, 0, 70, 60
2, 195269, Note_on_c, 0, 73, 68
2, 195269, Note_on_c, 0, 61, 71
2, 195330, Control_c, 0, 64, 127
2, 195337, Note_on_c, 0, 42, 64
2, 195339, Note_on_c, 0, 54, 64
2, 195396, Note_off_c, 0, 61, 64
2, 195416, Note_on_c, 0, 49, 52
2, 195452, Note_off_c, 0, 42, 64
2, 195456, Note_off_c, 0, 54, 64
2, 195500, Note_on_c, 0, 46, 49
2, 195504, Note_off_c, 0, 49, 64
2, 195510, Note_on_c, 0, 66, 54
2, 195524, Note_off_c, 0, 73, 64
2, 195524, Note_off_c, 0, 70, 64
2, 195539, Note_off_c, 0, 46, 64
2, 195541, Note_off_c, 0, 66, 64
2, 195580, Control_c, 0, 64, 0
2, 195602, Note_on_c, 0, 79, 68
2, 195608, Note_on_c, 0, 67, 68
2, 195608, Note_on_c, 0, 76, 47
2, 195655, Control_c, 0, 64, 127
2, 195683, Note_on_c, 0, 71, 54
2, 195686, Note_on_c, 0, 52, 49
2, 195687, Note_on_c, 0, 40, 64
2, 195692, Note_off_c, 0, 76, 64
2, 195693, Note_off_c, 0, 79, 64
2, 195697, Note_off_c, 0, 67, 64
2, 195738, Note_off_c, 0, 71, 64
2, 195764, Note_on_c, 0, 47, 53
2, 195776, Note_on_c, 0, 64, 63
2, 195776, Note_on_c, 0, 76, 24
2, 195780, Note_on_c, 0, 73, 68
2, 195800, Note_off_c, 0, 52, 64
2, 195804, Note_off_c, 0, 40, 64
2, 195839, Note_on_c, 0, 43, 48
2, 195845, Note_on_c, 0, 71, 59
2, 195852, Note_off_c, 0, 47, 64
2, 195867, Note_off_c, 0, 64, 64
2, 195873, Note_off_c, 0, 43, 64
2, 195875, Note_off_c, 0, 73, 64
2, 195879, Note_off_c, 0, 71, 64
2, 195901, Note_off_c, 0, 76, 64
2, 195904, Control_c, 0, 64, 0
2, 195934, Note_on_c, 0, 42, 94
2, 195939, Note_on_c, 0, 54, 86
2, 195941, Note_on_c, 0, 73, 84
2, 195941, Note_on_c, 0, 70, 93
2, 195946, Note_on_c, 0, 61, 84
2, 195979, Control_c, 0, 64, 127
2, 195993, Note_off_c, 0, 70, 64
2, 196008, Note_off_c, 0, 73, 64
2, 196013, Note_off_c, 0, 61, 64
2, 196052, Note_off_c, 0, 54, 64
2, 196052, Note_off_c, 0, 42, 64
2, 196152, Note_on_c, 0, 66, 66
2, 196152, Note_on_c, 0, 70, 66
2, 196152, Note_on_c, 0, 78, 66
2, 196156, Note_on_c, 0, 73, 66
2, 196187, Note_on_c, 0, 49, 80
2, 196220, Note_on_c, 0, 50, 84
2, 196252, Note_off_c, 0, 70, 64
2, 196252, Note_on_c, 0, 52, 96
2, 196255, Note_off_c, 0, 49, 64
2, 196256, Note_off_c, 0, 73, 64
2, 196281, Note_off_c, 0, 50, 64
2, 196282, Note_off_c, 0, 66, 64
2, 196308, Control_c, 0, 64, 0
2, 196318, Note_off_c, 0, 78, 64
2, 196328, Note_on_c, 0, 50, 84
2, 196333, Note_on_c, 0, 38, 86
2, 196345, Note_off_c, 0, 52, 64
2, 196379, Control_c, 0, 64, 127
2, 196478, Note_on_c, 0, 66, 72
2, 196482, Note_on_c, 0, 78, 52
2, 196485, Note_on_c, 0, 71, 64
2, 196490, Note_on_c, 0, 74, 62
2, 196531, Note_off_c, 0, 74, 64
2, 196531, Note_off_c, 0, 71, 64
2, 196532, Note_off_c, 0, 78, 64
2, 196552, Note_off_c, 0, 50, 64
2, 196557, Note_off_c, 0, 38, 64
2, 196562, Note_on_c, 0, 35, 80
2, 196566, Note_on_c, 0, 47, 80
2, 196569, Note_off_c, 0, 66, 64
2, 196608, Control_c, 0, 64, 0
2, 196612, Control_c, 0, 64, 0
2, 196621, Note_off_c, 0, 35, 64
2, 196625, Note_off_c, 0, 47, 64
2, 196645, Note_on_c, 0, 34, 89
2, 196649, Note_on_c, 0, 46, 89
2, 196676, Control_c, 0, 64, 127
2, 196680, Control_c, 0, 64, 127
2, 196720, Note_on_c, 0, 64, 70
2, 196724, Note_on_c, 0, 73, 65
2, 196794, Note_on_c, 0, 74, 52
2, 196794, Note_on_c, 0, 66, 77
2, 196808, Note_off_c, 0, 73, 64
2, 196823, Note_off_c, 0, 64, 64
2, 196850, Note_off_c, 0, 34, 64
2, 196854, Note_off_c, 0, 46, 64
2, 196869, Note_off_c, 0, 66, 64
2, 196875, Note_off_c, 0, 74, 64
2, 196876, Note_on_c, 0, 46, 63
2, 196878, Note_on_c, 0, 67, 63
2, 196880, Note_on_c, 0, 54, 63
2, 196880, Note_on_c, 0, 49, 63
2, 196882, Note_on_c, 0, 76, 68
2, 196889, Control_c, 0, 64, 0
2, 196893, Control_c, 0, 64, 0
2, 196913, Control_c, 0, 64, 0
2, 196928, Note_off_c, 0, 46, 64
2, 196932, Note_off_c, 0, 54, 64
2, 196934, Note_off_c, 0, 49, 64
2, 196939, Note_off_c, 0, 76, 64
2, 196941, Note_off_c, 0, 67, 64
2, 196957, Note_on_c, 0, 35, 72
2, 196961, Note_on_c, 0, 47, 72
2, 196993, Control_c, 0, 64, 127
2, 197024, Note_on_c, 0, 74, 57
2, 197024, Note_on_c, 0, 66, 72
2, 197102, Note_on_c, 0, 61, 77
2, 197102, Note_on_c, 0, 70, 77
2, 197134, Note_off_c, 0, 35, 64
2, 197137, Note_off_c, 0, 66, 64
2, 197137, Note_off_c, 0, 74, 64
2, 197138, Note_off_c, 0, 47, 64
2, 197172, Note_off_c, 0, 61, 64
2, 197177, Note_off_c, 0, 70, 64
2, 197185, Note_on_c, 0, 47, 72
2, 197188, Note_on_c, 0, 53, 63
2, 197189, Note_on_c, 0, 71, 70
2, 197189, Note_on_c, 0, 62, 61
2, 197192, Note_on_c, 0, 56, 58
2, 197231, Note_off_c, 0, 62, 64
2, 197232, Note_off_c, 0, 56, 64
2, 197233, Note_off_c, 0, 53, 64
2, 197238, Note_off_c, 0, 47, 64
2, 197252, Note_off_c, 0, 71, 64
2, 197252, Control_c, 0, 64, 0
2, 197278, Note_on_c, 0, 30, 101
2, 197284, Note_on_c, 0, 42, 101
2, 197331, Control_c, 0, 64, 127
2, 197344, Note_on_c, 0, 70, 71
2, 197348, Note_on_c, 0, 61, 68
2, 197348, Note_on_c, 0, 73, 73
2, 197395, Note_off_c, 0, 70, 64
2, 197409, Note_off_c, 0, 73, 64
2, 197409, Note_off_c, 0, 61, 64
2, 197438, Note_on_c, 0, 65, 71
2, 197453, Note_off_c, 0, 30, 64
2, 197459, Note_off_c, 0, 42, 64
2, 197506, Note_on_c, 0, 66, 82
2, 197513, Note_on_c, 0, 34, 71
2, 197528, Note_off_c, 0, 65, 64
2, 197543, Note_off_c, 0, 66, 64
2, 197556, Control_c, 0, 64, 0
2, 197561, Note_off_c, 0, 34, 64
2, 197584, Note_on_c, 0, 47, 81
2, 197587, Note_on_c, 0, 35, 64
2, 197635, Control_c, 0, 64, 127
2, 197672, Note_on_c, 0, 67, 73
2, 197673, Note_on_c, 0, 79, 61
2, 197675, Note_on_c, 0, 74, 68
2, 197734, Note_off_c, 0, 35, 64
2, 197739, Note_off_c, 0, 67, 64
2, 197747, Note_off_c, 0, 74, 64
2, 197747, Note_off_c, 0, 79, 64
2, 197749, Note_on_c, 0, 71, 75
2, 197790, Note_off_c, 0, 47, 64
2, 197816, Note_on_c, 0, 78, 76
2, 197817, Note_on_c, 0, 74, 73
2, 197823, Note_on_c, 0, 38, 72
2, 197827, Note_off_c, 0, 71, 64
2, 197827, Note_on_c, 0, 66, 80
2, 197846, Note_off_c, 0, 74, 64
2, 197849, Note_off_c, 0, 78, 64
2, 197853, Note_off_c, 0, 66, 64
2, 197864, Note_off_c, 0, 38, 64
2, 197870, Control_c, 0, 64, 0
2, 197900, Note_on_c, 0, 42, 86
2, 197902, Note_on_c, 0, 54, 93
2, 197951, Control_c, 0, 64, 127
2, 197968, Note_on_c, 0, 61, 67
2, 197968, Note_on_c, 0, 70, 67
2, 197968, Note_on_c, 0, 73, 71
2, 198027, Note_off_c, 0, 70, 64
2, 198027, Note_off_c, 0, 61, 64
2, 198041, Note_off_c, 0, 73, 64
2, 198059, Note_on_c, 0, 65, 64
2, 198080, Note_off_c, 0, 54, 64
2, 198120, Note_off_c, 0, 42, 64
2, 198120, Note_on_c, 0, 46, 62
2, 198120, Note_on_c, 0, 66, 73
2, 198142, Note_off_c, 0, 65, 64
2, 198151, Control_c, 0, 64, 0
2, 198156, Note_off_c, 0, 66, 64
2, 198192, Note_off_c, 0, 46, 64
2, 198194, Note_on_c, 0, 40, 84
2, 198199, Note_on_c, 0, 47, 69
2, 198220, Control_c, 0, 64, 127
2, 198280, Note_on_c, 0, 59, 76
2, 198284, Note_on_c, 0, 79, 84
2, 198284, Note_on_c, 0, 83, 77
2, 198284, Note_on_c, 0, 71, 84
2, 198327, Note_off_c, 0, 40, 64
2, 198336, Note_off_c, 0, 47, 64
2, 198373, Note_off_c, 0, 59, 64
2, 198376, Note_on_c, 0, 55, 58
2, 198376, Note_on_c, 0, 73, 58
2, 198387, Note_off_c, 0, 71, 64
2, 198397, Note_off_c, 0, 79, 64
2, 198407, Note_off_c, 0, 83, 64
2, 198409, Note_off_c, 0, 73, 64
2, 198437, Note_on_c, 0, 52, 65
2, 198444, Note_on_c, 0, 67, 68
2, 198444, Note_on_c, 0, 76, 56
2, 198444, Note_on_c, 0, 79, 56
2, 198458, Note_off_c, 0, 55, 64
2, 198486, Note_off_c, 0, 52, 64
2, 198501, Note_off_c, 0, 67, 64
2, 198503, Note_off_c, 0, 79, 64
2, 198503, Note_off_c, 0, 76, 64
2, 198511, Control_c, 0, 64, 0
2, 198526, Note_on_c, 0, 57, 92
2, 198526, Note_on_c, 0, 45, 80
2, 198531, Note_on_c, 0, 64, 101
2, 198532, Note_on_c, 0, 76, 80
2, 198537, Note_on_c, 0, 73, 101
2, 198579, Control_c, 0, 64, 127
2, 198607, Note_off_c, 0, 73, 64
2, 198609, Note_off_c, 0, 64, 64
2, 198617, Note_off_c, 0, 76, 64
2, 198684, Note_on_c, 0, 73, 63
2, 198687, Note_on_c, 0, 69, 56
2, 198688, Note_on_c, 0, 76, 63
2, 198688, Note_on_c, 0, 81, 60
2, 198709, Note_on_c, 0, 52, 48
2, 198739, Note_off_c, 0, 45, 64
2, 198739, Note_off_c, 0, 57, 64
2, 198747, Note_on_c, 0, 54, 81
2, 198768, Note_on_c, 0, 55, 80
2, 198776, Note_off_c, 0, 52, 64
2, 198792, Note_off_c, 0, 54, 64
2, 198799, Note_off_c, 0, 55, 64
2, 198831, Note_off_c, 0, 69, 64
2, 198832, Control_c, 0, 64, 0
2, 198834, Note_off_c, 0, 73, 64
2, 198837, Note_off_c, 0, 81, 64
2, 198838, Note_off_c, 0, 76, 64
2, 198839, Note_on_c, 0, 54, 96
2, 198847, Note_on_c, 0, 42, 92
2, 198892, Control_c, 0, 64, 127
2, 198993, Note_on_c, 0, 70, 72
2, 198996, Note_on_c, 0, 82, 69
2, 198999, Note_on_c, 0, 73, 73
2, 199006, Note_on_c, 0, 78, 59
2, 199033, Note_off_c, 0, 42, 64
2, 199035, Note_off_c, 0, 54, 64
2, 199072, Note_on_c, 0, 40, 87
2, 199075, Note_on_c, 0, 52, 87
2, 199128, Note_off_c, 0, 40, 64
2, 199131, Note_off_c, 0, 52, 64
2, 199131, Control_c, 0, 64, 0
2, 199149, Note_on_c, 0, 38, 94
2, 199153, Note_off_c, 0, 78, 64
2, 199154, Note_on_c, 0, 50, 90
2, 199165, Note_off_c, 0, 82, 64
2, 199172, Note_off_c, 0, 73, 64
2, 199175, Note_off_c, 0, 70, 64
2, 199200, Control_c, 0, 64, 127
2, 199308, Note_on_c, 0, 78, 66
2, 199315, Note_on_c, 0, 71, 61
2, 199315, Note_on_c, 0, 83, 74
2, 199316, Note_on_c, 0, 74, 75
2, 199343, Note_on_c, 0, 46, 78
2, 199362, Note_off_c, 0, 38, 64
2, 199366, Note_on_c, 0, 47, 73
2, 199367, Note_off_c, 0, 50, 64
2, 199404, Note_on_c, 0, 49, 100
2, 199408, Note_off_c, 0, 46, 64
2, 199419, Note_off_c, 0, 47, 64
2, 199434, Note_off_c, 0, 49, 64
2, 199442, Control_c, 0, 64, 0
2, 199452, Note_off_c, 0, 78, 64
2, 199454, Note_off_c, 0, 74, 64
2, 199458, Note_on_c, 0, 47, 101
2, 199458, Note_on_c, 0, 35, 101
2, 199459, Note_off_c, 0, 71, 64
2, 199477, Note_off_c, 0, 83, 64
2, 199509, Control_c, 0, 64, 127
2, 199604, Note_on_c, 0, 83, 77
2, 199607, Note_on_c, 0, 78, 82
2, 199607, Note_on_c, 0, 74, 77
2, 199608, Note_on_c, 0, 86, 76
2, 199700, Note_off_c, 0, 35, 64
2, 199700, Note_off_c, 0, 47, 64
2, 199704, Note_on_c, 0, 33, 85
2, 199711, Note_on_c, 0, 45, 85
2, 199721, Control_c, 0, 64, 0
2, 199733, Control_c, 0, 64, 0
2, 199783, Control_c, 0, 64, 127
2, 199795, Control_c, 0, 64, 127
2, 199796, Note_on_c, 0, 31, 80
2, 199800, Note_on_c, 0, 43, 80
2, 199816, Note_off_c, 0, 33, 64
2, 199819, Note_off_c, 0, 74, 64
2, 199823, Note_off_c, 0, 45, 64
2, 199836, Note_off_c, 0, 86, 64
2, 199849, Note_off_c, 0, 78, 64
2, 199858, Note_off_c, 0, 83, 64
2, 199973, Note_on_c, 0, 83, 62
2, 199976, Note_on_c, 0, 95, 78
2, 199976, Note_on_c, 0, 90, 74
2, 200001, Note_off_c, 0, 31, 64
2, 200005, Note_off_c, 0, 43, 64
2, 200036, Note_off_c, 0, 95, 64
2, 200044, Note_off_c, 0, 90, 64
2, 200054, Note_off_c, 0, 83, 64
2, 200060, Note_on_c, 0, 54, 72
2, 200064, Note_on_c, 0, 50, 53
2, 200064, Note_on_c, 0, 59, 69
2, 200099, Note_off_c, 0, 59, 64
2, 200100, Note_off_c, 0, 50, 64
2, 200100, Note_off_c, 0, 54, 64
2, 200140, Note_on_c, 0, 91, 75
2, 200144, Note_on_c, 0, 79, 75
2, 200144, Note_on_c, 0, 83, 75
2, 200144, Note_on_c, 0, 49, 75
2, 200152, Note_on_c, 0, 37, 75
2, 200168, Control_c, 0, 64, 0
2, 200208, Note_off_c, 0, 79, 64
2, 200228, Note_off_c, 0, 83, 64
2, 200235, Control_c, 0, 64, 127
2, 200239, Note_off_c, 0, 91, 64
2, 200296, Note_off_c, 0, 49, 64
2, 200310, Note_off_c, 0, 37, 64
2, 200320, Note_on_c, 0, 88, 78
2, 200324, Note_on_c, 0, 79, 76
2, 200328, Note_on_c, 0, 76, 78
2, 200396, Note_on_c, 0, 59, 63
2, 200396, Note_on_c, 0, 55, 72
2, 200396, Note_on_c, 0, 52, 71
2, 200399, Note_off_c, 0, 76, 64
2, 200415, Note_off_c, 0, 79, 64
2, 200415, Note_off_c, 0, 88, 64
2, 200428, Note_off_c, 0, 59, 64
2, 200436, Note_off_c, 0, 55, 64
2, 200446, Note_off_c, 0, 52, 64
2, 200470, Control_c, 0, 64, 0
2, 200492, Control_c, 0, 64, 127
2, 200496, Note_on_c, 0, 34, 82
2, 200499, Note_on_c, 0, 78, 83
2, 200499, Note_on_c, 0, 90, 83
2, 200500, Note_on_c, 0, 46, 83
2, 200503, Note_on_c, 0, 85, 83
2, 200532, Control_c, 0, 64, 127
2, 200577, Note_off_c, 0, 78, 64
2, 200578, Note_off_c, 0, 85, 64
2, 200583, Note_off_c, 0, 90, 64
2, 200660, Note_on_c, 0, 74, 76
2, 200660, Note_on_c, 0, 86, 81
2, 200664, Note_on_c, 0, 78, 74
2, 200701, Note_off_c, 0, 34, 64
2, 200705, Note_off_c, 0, 46, 64
2, 200732, Note_on_c, 0, 58, 78
2, 200736, Note_on_c, 0, 54, 78
2, 200736, Note_on_c, 0, 50, 78
2, 200765, Note_off_c, 0, 86, 64
2, 200777, Note_off_c, 0, 74, 64
2, 200783, Note_off_c, 0, 78, 64
2, 200789, Control_c, 0, 64, 0
2, 200790, Note_off_c, 0, 50, 64
2, 200790, Note_off_c, 0, 54, 64
2, 200790, Note_off_c, 0, 58, 64
2, 200833, Note_on_c, 0, 82, 91
2, 200838, Note_on_c, 0, 38, 91
2, 200838, Note_on_c, 0, 50, 91
2, 200839, Note_on_c, 0, 78, 91
2, 200840, Note_on_c, 0, 70, 91
2, 200870, Control_c, 0, 64, 127
2, 200934, Note_off_c, 0, 78, 64
2, 200942, Note_off_c, 0, 82, 64
2, 200946, Note_off_c, 0, 70, 64
2, 201000, Note_on_c, 0, 71, 89
2, 201006, Note_on_c, 0, 78, 81
2, 201007, Note_off_c, 0, 50, 64
2, 201007, Note_off_c, 0, 38, 64
2, 201008, Note_on_c, 0, 83, 83
2, 201072, Note_on_c, 0, 50, 79
2, 201074, Note_on_c, 0, 59, 74
2, 201074, Note_on_c, 0, 54, 83
2, 201078, Note_off_c, 0, 83, 64
2, 201081, Note_off_c, 0, 71, 64
2, 201083, Note_off_c, 0, 78, 64
2, 201113, Note_off_c, 0, 59, 64
2, 201118, Note_off_c, 0, 50, 64
2, 201121, Note_off_c, 0, 54, 64
2, 201141, Control_c, 0, 64, 0
2, 201175, Note_on_c, 0, 43, 69
2, 201180, Note_on_c, 0, 55, 68
2, 201196, Control_c, 0, 64, 127
2, 201259, Note_on_c, 0, 79, 58
2, 201265, Note_on_c, 0, 67, 52
2, 201283, Note_off_c, 0, 55, 64
2, 201287, Note_off_c, 0, 67, 64
2, 201300, Note_off_c, 0, 79, 64
2, 201308, Note_off_c, 0, 43, 64
2, 201323, Note_on_c, 0, 54, 70
2, 201323, Note_on_c, 0, 42, 72
2, 201332, Note_on_c, 0, 66, 72
2, 201335, Note_on_c, 0, 78, 72
2, 201361, Note_off_c, 0, 66, 64
2, 201368, Note_off_c, 0, 42, 64
2, 201368, Note_off_c, 0, 54, 64
2, 201369, Note_off_c, 0, 78, 64
2, 201407, Control_c, 0, 64, 0
2, 201411, Note_on_c, 0, 65, 73
2, 201412, Note_on_c, 0, 41, 70
2, 201418, Note_on_c, 0, 53, 67
2, 201419, Note_on_c, 0, 77, 73
2, 201439, Note_off_c, 0, 65, 64
2, 201440, Note_off_c, 0, 77, 64
2, 201445, Note_off_c, 0, 53, 64
2, 201447, Note_off_c, 0, 41, 64
2, 201496, Note_on_c, 0, 54, 74
2, 201496, Note_on_c, 0, 42, 74
2, 201505, Control_c, 0, 64, 127
2, 201573, Note_on_c, 0, 66, 76
2, 201574, Note_on_c, 0, 78, 56
2, 201581, Note_off_c, 0, 42, 64
2, 201584, Note_off_c, 0, 54, 64
2, 201605, Note_off_c, 0, 66, 64
2, 201616, Note_off_c, 0, 78, 64
2, 201640, Note_on_c, 0, 44, 75
2, 201650, Note_on_c, 0, 56, 72
2, 201664, Note_on_c, 0, 68, 80
2, 201665, Note_on_c, 0, 80, 80
2, 201678, Note_off_c, 0, 56, 64
2, 201679, Note_off_c, 0, 44, 64
2, 201691, Note_off_c, 0, 80, 64
2, 201691, Note_off_c, 0, 68, 64
2, 201733, Note_on_c, 0, 46, 82
2, 201739, Note_on_c, 0, 70, 87
2, 201743, Note_on_c, 0, 58, 87
2, 201748, Note_on_c, 0, 82, 82
2, 201763, Control_c, 0, 64, 0
2, 201770, Note_off_c, 0, 70, 64
2, 201771, Note_off_c, 0, 46, 64
2, 201776, Note_off_c, 0, 82, 64
2, 201776, Note_off_c, 0, 58, 64
2, 201822, Note_on_c, 0, 59, 84
2, 201822, Note_on_c, 0, 47, 84
2, 201878, Control_c, 0, 64, 127
2, 201899, Note_on_c, 0, 71, 68
2, 201906, Note_on_c, 0, 83, 64
2, 201910, Note_off_c, 0, 59, 64
2, 201913, Note_off_c, 0, 47, 64
2, 201920, Note_off_c, 0, 71, 64
2, 201929, Note_off_c, 0, 83, 64
2, 201974, Note_on_c, 0, 49, 87
2, 201975, Note_on_c, 0, 61, 94
2, 201983, Note_on_c, 0, 73, 88
2, 201983, Note_on_c, 0, 85, 99
2, 202009, Note_off_c, 0, 73, 64
2, 202011, Note_off_c, 0, 49, 64
2, 202012, Note_off_c, 0, 61, 64
2, 202013, Note_off_c, 0, 85, 64
2, 202066, Note_on_c, 0, 74, 90
2, 202067, Note_on_c, 0, 62, 92
2, 202067, Note_on_c, 0, 86, 90
2, 202067, Note_on_c, 0, 50, 80
2, 202086, Control_c, 0, 64, 0
2, 202087, Note_off_c, 0, 74, 64
2, 202091, Note_off_c, 0, 86, 64
2, 202092, Note_off_c, 0, 50, 64
2, 202094, Note_off_c, 0, 62, 64
2, 202141, Note_on_c, 0, 52, 92
2, 202142, Note_on_c, 0, 64, 98
2, 202156, Control_c, 0, 64, 127
2, 202211, Note_on_c, 0, 76, 92
2, 202217, Note_on_c, 0, 88, 84
2, 202237, Note_off_c, 0, 76, 64
2, 202242, Note_off_c, 0, 88, 64
2, 202255, Note_off_c, 0, 64, 64
2, 202264, Note_off_c, 0, 52, 64
2, 202292, Note_on_c, 0, 66, 100
2, 202295, Note_on_c, 0, 54, 88
2, 202296, Note_on_c, 0, 78, 100
2, 202299, Note_on_c, 0, 90, 88
2, 202324, Note_off_c, 0, 54, 64
2, 202324, Note_off_c, 0, 66, 64
2, 202328, Note_off_c, 0, 90, 64
2, 202328, Note_off_c, 0, 78, 64
2, 202363, Note_on_c, 0, 55, 98
2, 202367, Note_on_c, 0, 79, 98
2, 202370, Note_on_c, 0, 67, 86
2, 202374, Note_on_c, 0, 91, 87
2, 202382, Note_off_c, 0, 91, 64
2, 202382, Note_off_c, 0, 67, 64
2, 202382, Note_off_c, 0, 79, 64
2, 202382, Note_off_c, 0, 55, 64
2, 202426, Note_on_c, 0, 48, 77
2, 202446, Control_c, 0, 64, 0
2, 202450, Control_c, 0, 64, 0
2, 202462, Note_on_c, 0, 54, 82
2, 202486, Note_on_c, 0, 57, 72
2, 202491, Note_off_c, 0, 48, 64
2, 202506, Control_c, 0, 64, 127
2, 202526, Note_on_c, 0, 63, 88
2, 202527, Note_off_c, 0, 54, 64
2, 202539, Note_off_c, 0, 57, 64
2, 202580, Note_on_c, 0, 69, 86
2, 202580, Note_on_c, 0, 81, 97
2, 202598, Note_off_c, 0, 69, 64
2, 202602, Note_off_c, 0, 81, 64
2, 202625, Note_off_c, 0, 63, 64
2, 202646, Note_on_c, 0, 62, 73
2, 202650, Note_on_c, 0, 59, 44
2, 202653, Note_on_c, 0, 79, 85
2, 202659, Note_on_c, 0, 67, 88
2, 202676, Note_off_c, 0, 67, 64
2, 202688, Note_off_c, 0, 79, 64
2, 202710, Note_off_c, 0, 59, 64
2, 202710, Note_on_c, 0, 57, 72
2, 202714, Note_on_c, 0, 60, 36
2, 202721, Note_off_c, 0, 62, 64
2, 202721, Note_on_c, 0, 66, 90
2, 202725, Note_on_c, 0, 78, 70
2, 202737, Note_on_c, 0, 47, 92
2, 202742, Note_off_c, 0, 57, 64
2, 202743, Note_off_c, 0, 60, 64
2, 202746, Note_off_c, 0, 66, 64
2, 202749, Note_off_c, 0, 78, 64
2, 202754, Control_c, 0, 64, 0
2, 202762, Note_on_c, 0, 50, 94
2, 202794, Note_on_c, 0, 55, 89
2, 202797, Note_off_c, 0, 47, 64
2, 202815, Control_c, 0, 64, 127
2, 202826, Note_on_c, 0, 62, 92
2, 202833, Note_off_c, 0, 50, 64
2, 202868, Note_on_c, 0, 67, 80
2, 202876, Note_off_c, 0, 55, 64
2, 202876, Note_on_c, 0, 79, 75
2, 202894, Note_off_c, 0, 67, 64
2, 202896, Note_off_c, 0, 79, 64
2, 202950, Note_on_c, 0, 57, 72
2, 202950, Note_on_c, 0, 69, 76
2, 202952, Note_on_c, 0, 81, 72
2, 202954, Note_on_c, 0, 60, 72
2, 202979, Note_off_c, 0, 69, 64
2, 202981, Note_off_c, 0, 81, 64
2, 203008, Note_off_c, 0, 62, 64
2, 203022, Note_on_c, 0, 55, 74
2, 203022, Note_on_c, 0, 59, 81
2, 203026, Note_on_c, 0, 71, 77
2, 203032, Note_on_c, 0, 83, 66
2, 203035, Note_off_c, 0, 57, 64
2, 203039, Note_off_c, 0, 60, 64
2, 203039, Control_c, 0, 64, 0
2, 203049, Note_off_c, 0, 71, 64
2, 203054, Note_off_c, 0, 83, 64
2, 203054, Note_on_c, 0, 51, 88
2, 203065, Note_off_c, 0, 59, 64
2, 203066, Note_off_c, 0, 55, 64
2, 203074, Note_on_c, 0, 55, 81
2, 203086, Note_on_c, 0, 60, 71
2, 203107, Control_c, 0, 64, 127
2, 203111, Note_off_c, 0, 51, 64
2, 203122, Note_on_c, 0, 67, 99
2, 203151, Note_off_c, 0, 55, 64
2, 203161, Note_on_c, 0, 72, 91
2, 203170, Note_off_c, 0, 60, 64
2, 203172, Note_on_c, 0, 84, 75
2, 203184, Note_off_c, 0, 84, 64
2, 203184, Note_off_c, 0, 72, 64
2, 203216, Note_off_c, 0, 67, 64
2, 203229, Note_on_c, 0, 62, 92
2, 203237, Note_on_c, 0, 65, 98
2, 203243, Note_on_c, 0, 86, 101
2, 203244, Note_on_c, 0, 74, 106
2, 203270, Note_off_c, 0, 74, 64
2, 203274, Note_off_c, 0, 86, 64
2, 203318, Note_off_c, 0, 62, 64
2, 203318, Note_on_c, 0, 63, 84
2, 203318, Note_on_c, 0, 60, 92
2, 203319, Note_off_c, 0, 65, 64
2, 203319, Note_on_c, 0, 87, 102
2, 203325, Note_on_c, 0, 75, 112
2, 203325, Control_c, 0, 64, 0
2, 203331, Note_on_c, 0, 56, 100
2, 203343, Note_off_c, 0, 75, 64
2, 203343, Note_off_c, 0, 63, 64
2, 203347, Note_off_c, 0, 60, 64
2, 203351, Note_off_c, 0, 87, 64
2, 203358, Note_on_c, 0, 60, 85
2, 203374, Note_on_c, 0, 65, 78
2, 203389, Control_c, 0, 64, 127
2, 203397, Note_on_c, 0, 72, 101
2, 203403, Note_off_c, 0, 56, 64
2, 203434, Note_off_c, 0, 60, 64
2, 203441, Note_on_c, 0, 77, 84
2, 203443, Note_off_c, 0, 65, 64
2, 203448, Note_on_c, 0, 89, 84
2, 203469, Note_off_c, 0, 77, 64
2, 203473, Note_off_c, 0, 89, 64
2, 203481, Note_off_c, 0, 72, 64
2, 203518, Note_on_c, 0, 70, 73
2, 203519, Note_on_c, 0, 67, 57
2, 203525, Note_on_c, 0, 91, 80
2, 203525, Note_on_c, 0, 79, 92
2, 203548, Note_off_c, 0, 79, 64
2, 203551, Note_off_c, 0, 91, 64
2, 203598, Note_on_c, 0, 65, 77
2, 203599, Note_on_c, 0, 92, 84
2, 203599, Note_on_c, 0, 80, 91
2, 203602, Note_on_c, 0, 68, 101
2, 203618, Note_off_c, 0, 92, 64
2, 203629, Note_off_c, 0, 80, 64
2, 203642, Note_off_c, 0, 70, 64
2, 203642, Note_off_c, 0, 67, 64
2, 203644, Note_off_c, 0, 68, 64
2, 203645, Note_off_c, 0, 65, 64
2, 203666, Control_c, 0, 64, 0
2, 203718, Note_on_c, 0, 48, 89
2, 203722, Note_on_c, 0, 36, 95
2, 203773, Control_c, 0, 64, 127
2, 203807, Note_off_c, 0, 48, 64
2, 203808, Note_on_c, 0, 60, 88
2, 203811, Note_off_c, 0, 36, 64
2, 203854, Note_off_c, 0, 60, 64
2, 203885, Control_c, 0, 64, 0
2, 203896, Note_on_c, 0, 37, 93
2, 203899, Note_on_c, 0, 49, 96
2, 203956, Control_c, 0, 64, 127
2, 203967, Note_off_c, 0, 37, 64
2, 203978, Note_off_c, 0, 49, 64
2, 203986, Note_on_c, 0, 61, 101
2, 204026, Note_off_c, 0, 61, 64
2, 204060, Note_on_c, 0, 57, 72
2, 204088, Note_on_c, 0, 61, 96
2, 204098, Control_c, 0, 64, 0
2, 204118, Note_on_c, 0, 66, 90
2, 204124, Note_off_c, 0, 57, 64
2, 204125, Control_c, 0, 64, 127
2, 204136, Note_on_c, 0, 73, 98
2, 204146, Note_off_c, 0, 61, 64
2, 204174, Note_on_c, 0, 78, 86
2, 204175, Note_off_c, 0, 66, 64
2, 204181, Note_on_c, 0, 90, 75
2, 204202, Note_off_c, 0, 90, 64
2, 204204, Note_off_c, 0, 78, 64
2, 204220, Note_off_c, 0, 73, 64
2, 204254, Note_on_c, 0, 71, 60
2, 204257, Note_on_c, 0, 92, 82
2, 204258, Note_on_c, 0, 68, 80
2, 204259, Note_on_c, 0, 80, 88
2, 204290, Note_off_c, 0, 80, 64
2, 204294, Note_off_c, 0, 92, 64
2, 204306, Note_off_c, 0, 68, 64
2, 204307, Note_off_c, 0, 71, 64
2, 204322, Note_on_c, 0, 66, 56
2, 204326, Note_on_c, 0, 69, 64
2, 204328, Note_on_c, 0, 81, 82
2, 204332, Note_on_c, 0, 93, 76
2, 204358, Note_off_c, 0, 93, 64
2, 204364, Note_off_c, 0, 81, 64
2, 204376, Control_c, 0, 64, 0
2, 204377, Note_off_c, 0, 66, 64
2, 204383, Note_off_c, 0, 69, 64
2, 204390, Note_on_c, 0, 37, 84
2, 204393, Note_on_c, 0, 49, 96
2, 204449, Control_c, 0, 64, 127
2, 204478, Note_off_c, 0, 49, 64
2, 204484, Note_on_c, 0, 61, 97
2, 204485, Note_off_c, 0, 37, 64
2, 204534, Note_off_c, 0, 61, 64
2, 204537, Control_c, 0, 64, 0
2, 204542, Note_on_c, 0, 38, 88
2, 204545, Note_on_c, 0, 50, 82
2, 204577, Control_c, 0, 64, 127
2, 204602, Note_off_c, 0, 50, 64
2, 204602, Note_off_c, 0, 38, 64
2, 204614, Note_on_c, 0, 62, 101
2, 204655, Note_off_c, 0, 62, 64
2, 204702, Note_on_c, 0, 58, 99
2, 204718, Note_on_c, 0, 62, 87
2, 204738, Note_on_c, 0, 67, 101
2, 204741, Control_c, 0, 64, 0
2, 204770, Note_on_c, 0, 74, 101
2, 204776, Note_off_c, 0, 58, 64
2, 204786, Control_c, 0, 64, 127
2, 204788, Note_off_c, 0, 62, 64
2, 204816, Note_off_c, 0, 67, 64
2, 204817, Note_on_c, 0, 79, 100
2, 204824, Note_on_c, 0, 91, 85
2, 204843, Note_off_c, 0, 79, 64
2, 204853, Note_off_c, 0, 91, 64
2, 204856, Note_off_c, 0, 74, 64
2, 204892, Note_on_c, 0, 93, 83
2, 204894, Note_on_c, 0, 72, 60
2, 204898, Note_on_c, 0, 69, 60
2, 204899, Note_on_c, 0, 81, 92
2, 204926, Note_off_c, 0, 81, 64
2, 204929, Note_off_c, 0, 93, 64
2, 204953, Note_off_c, 0, 72, 64
2, 204970, Note_on_c, 0, 70, 76
2, 204974, Note_off_c, 0, 69, 64
2, 204974, Note_on_c, 0, 67, 73
2, 204974, Note_on_c, 0, 82, 89
2, 204981, Note_on_c, 0, 94, 81
2, 204997, Note_off_c, 0, 94, 64
2, 205007, Note_off_c, 0, 82, 64
2, 205007, Note_off_c, 0, 70, 64
2, 205015, Note_off_c, 0, 67, 64
2, 205033, Control_c, 0, 64, 0
2, 205058, Note_on_c, 0, 39, 101
2, 205061, Note_on_c, 0, 51, 101
2, 205105, Control_c, 0, 64, 127
2, 205127, Note_on_c, 0, 63, 101
2, 205128, Note_off_c, 0, 39, 64
2, 205131, Note_off_c, 0, 51, 64
2, 205162, Note_off_c, 0, 63, 64
2, 205203, Note_on_c, 0, 61, 100
2, 205225, Note_on_c, 0, 70, 81
2, 205237, Note_on_c, 0, 73, 97
2, 205276, Note_off_c, 0, 70, 64
2, 205279, Note_off_c, 0, 61, 64
2, 205282, Note_off_c, 0, 73, 64
2, 205298, Note_on_c, 0, 91, 69
2, 205298, Note_on_c, 0, 79, 91
2, 205302, Note_on_c, 0, 85, 104
2, 205321, Note_off_c, 0, 79, 64
2, 205326, Note_off_c, 0, 91, 64
2, 205371, Note_on_c, 0, 81, 100
2, 205376, Note_on_c, 0, 93, 82
2, 205400, Note_off_c, 0, 81, 64
2, 205406, Note_off_c, 0, 93, 64
2, 205454, Note_on_c, 0, 94, 72
2, 205458, Note_on_c, 0, 82, 97
2, 205467, Note_off_c, 0, 94, 64
2, 205484, Note_off_c, 0, 82, 64
2, 205507, Control_c, 0, 64, 0
2, 205512, Note_off_c, 0, 85, 64
2, 205522, Note_on_c, 0, 52, 94
2, 205527, Note_on_c, 0, 40, 94
2, 205586, Note_off_c, 0, 52, 64
2, 205587, Control_c, 0, 64, 127
2, 205595, Note_off_c, 0, 40, 64
2, 205608, Note_on_c, 0, 64, 85
2, 205654, Note_off_c, 0, 64, 64
2, 205681, Note_on_c, 0, 67, 96
2, 205686, Note_on_c, 0, 61, 96
2, 205710, Note_on_c, 0, 73, 101
2, 205725, Note_off_c, 0, 61, 64
2, 205753, Note_off_c, 0, 67, 64
2, 205767, Note_off_c, 0, 73, 64
2, 205786, Note_on_c, 0, 85, 115
2, 205786, Note_on_c, 0, 79, 91
2, 205789, Note_on_c, 0, 91, 82
2, 205806, Note_off_c, 0, 91, 64
2, 205809, Note_off_c, 0, 79, 64
2, 205861, Note_on_c, 0, 81, 101
2, 205867, Note_on_c, 0, 93, 84
2, 205891, Note_off_c, 0, 93, 64
2, 205891, Note_off_c, 0, 81, 64
2, 205943, Note_on_c, 0, 82, 101
2, 205946, Note_on_c, 0, 94, 100
2, 205976, Note_off_c, 0, 82, 64
2, 205980, Note_off_c, 0, 94, 64
2, 205998, Note_off_c, 0, 85, 64
2, 206190, Note_on_c, 0, 38, 84
2, 206206, Note_on_c, 0, 42, 57
2, 206208, Control_c, 0, 64, 0
2, 206237, Note_on_c, 0, 47, 57
2, 206254, Note_on_c, 0, 50, 101
2, 206258, Note_on_c, 0, 83, 97
2, 206261, Note_on_c, 0, 90, 101
2, 206262, Note_on_c, 0, 95, 99
2, 206295, Note_off_c, 0, 38, 64
2, 206304, Control_c, 0, 64, 127
2, 206315, Note_off_c, 0, 42, 64
2, 206346, Note_off_c, 0, 47, 64
2, 206347, Note_off_c, 0, 83, 64
2, 206351, Note_off_c, 0, 95, 64
2, 206353, Note_off_c, 0, 50, 64
2, 206356, Note_off_c, 0, 90, 64
2, 206427, Note_on_c, 0, 65, 93
2, 206462, Note_off_c, 0, 65, 64
2, 206508, Note_on_c, 0, 89, 90
2, 206509, Note_on_c, 0, 77, 90
2, 206542, Note_on_c, 0, 51, 73
2, 206546, Note_off_c, 0, 77, 64
2, 206556, Note_off_c, 0, 89, 64
2, 206562, Note_on_c, 0, 54, 48
2, 206577, Control_c, 0, 64, 0
2, 206590, Note_on_c, 0, 57, 88
2, 206594, Note_on_c, 0, 59, 75
2, 206610, Note_on_c, 0, 66, 101
2, 206647, Control_c, 0, 64, 127
2, 206648, Note_off_c, 0, 54, 64
2, 206649, Note_off_c, 0, 51, 64
2, 206662, Note_on_c, 0, 83, 101
2, 206662, Note_on_c, 0, 78, 101
2, 206663, Note_on_c, 0, 90, 95
2, 206666, Note_off_c, 0, 57, 64
2, 206667, Note_off_c, 0, 59, 64
2, 206675, Note_off_c, 0, 66, 64
2, 206690, Note_off_c, 0, 83, 64
2, 206701, Note_off_c, 0, 78, 64
2, 206704, Note_off_c, 0, 90, 64
2, 206756, Note_on_c, 0, 59, 100
2, 206801, Control_c, 0, 64, 0
2, 206826, Note_on_c, 0, 83, 83
2, 206831, Note_off_c, 0, 59, 64
2, 206834, Note_on_c, 0, 71, 45
2, 206842, Control_c, 0, 64, 127
2, 206862, Note_on_c, 0, 52, 83
2, 206871, Note_off_c, 0, 71, 64
2, 206882, Note_on_c, 0, 55, 83
2, 206885, Note_off_c, 0, 83, 64
2, 206907, Note_on_c, 0, 60, 80
2, 206908, Control_c, 0, 64, 0
2, 206915, Note_on_c, 0, 64, 87
2, 206961, Note_off_c, 0, 52, 64
2, 206977, Control_c, 0, 64, 127
2, 206981, Note_off_c, 0, 55, 64
2, 207002, Note_on_c, 0, 79, 78
2, 207002, Note_on_c, 0, 84, 80
2, 207002, Note_on_c, 0, 72, 60
2, 207045, Note_off_c, 0, 72, 64
2, 207045, Note_off_c, 0, 79, 64
2, 207053, Note_off_c, 0, 84, 64
2, 207056, Note_off_c, 0, 64, 64
2, 207060, Note_off_c, 0, 60, 64
2, 207078, Note_on_c, 0, 58, 101
2, 207139, Note_off_c, 0, 58, 64
2, 207139, Control_c, 0, 64, 0
2, 207147, Control_c, 0, 64, 0
2, 207158, Note_on_c, 0, 70, 97
2, 207159, Note_on_c, 0, 82, 88
2, 207203, Control_c, 0, 64, 127
2, 207208, Note_off_c, 0, 70, 64
2, 207218, Note_off_c, 0, 82, 64
2, 207221, Note_on_c, 0, 44, 97
2, 207230, Note_on_c, 0, 50, 92
2, 207249, Control_c, 0, 64, 0
2, 207250, Note_on_c, 0, 53, 92
2, 207269, Control_c, 0, 64, 0
2, 207278, Note_on_c, 0, 59, 84
2, 207290, Control_c, 0, 64, 127
2, 207320, Control_c, 0, 64, 127
2, 207330, Note_on_c, 0, 83, 80
2, 207330, Note_on_c, 0, 71, 80
2, 207333, Note_on_c, 0, 74, 83
2, 207342, Note_off_c, 0, 50, 64
2, 207355, Note_off_c, 0, 44, 64
2, 207362, Note_off_c, 0, 53, 64
2, 207363, Note_off_c, 0, 59, 64
2, 207373, Note_off_c, 0, 74, 64
2, 207379, Note_off_c, 0, 71, 64
2, 207379, Note_off_c, 0, 83, 64
2, 207414, Note_on_c, 0, 41, 101
2, 207490, Note_on_c, 0, 53, 71
2, 207499, Note_on_c, 0, 65, 72
2, 207551, Note_on_c, 0, 30, 90
2, 207552, Note_off_c, 0, 53, 64
2, 207557, Note_off_c, 0, 41, 64
2, 207560, Note_off_c, 0, 65, 64
2, 207575, Note_on_c, 0, 34, 80
2, 207587, Control_c, 0, 64, 0
2, 207587, Control_c, 0, 64, 0
2, 207595, Control_c, 0, 64, 0
2, 207602, Note_on_c, 0, 37, 80
2, 207633, Control_c, 0, 64, 127
2, 207634, Note_on_c, 0, 42, 81
2, 207651, Control_c, 0, 64, 0
2, 207651, Control_c, 0, 64, 127
2, 207741, Note_off_c, 0, 34, 64
2, 207743, Note_on_c, 0, 58, 58
2, 207743, Note_on_c, 0, 54, 58
2, 207748, Note_on_c, 0, 61, 60
2, 207748, Note_on_c, 0, 66, 60
2, 207760, Note_off_c, 0, 37, 64
2, 207763, Note_off_c, 0, 30, 64
2, 207802, Note_off_c, 0, 42, 64
2, 207808, Control_c, 0, 64, 127
2, 207926, Note_on_c, 0, 35, 101
2, 207926, Note_on_c, 0, 23, 88
2, 208045, Note_off_c, 0, 66, 64
2, 208045, Note_off_c, 0, 61, 64
2, 208095, Control_c, 0, 64, 0
2, 208102, Note_off_c, 0, 54, 64
2, 208102, Note_off_c, 0, 58, 64
2, 208141, Control_c, 0, 64, 127
2, 208790, Note_on_c, 0, 42, 74
2, 209182, Note_on_c, 0, 47, 76
2, 209421, Note_off_c, 0, 23, 64
2, 209423, Note_off_c, 0, 35, 64
2, 209646, Note_on_c, 0, 35, 74
2, 209646, Note_on_c, 0, 49, 79
2, 209680, Note_off_c, 0, 47, 64
2, 209951, Control_c, 0, 64, 0
2, 210044, Control_c, 0, 64, 127
2, 210387, Note_on_c, 0, 50, 47
2, 210401, Control_c, 0, 64, 0
2, 210454, Control_c, 0, 64, 127
2, 210472, Note_off_c, 0, 49, 64
2, 210732, Note_off_c, 0, 35, 64
2, 210789, Note_off_c, 0, 42, 64
2, 211260, Note_on_c, 0, 35, 74
2, 211271, Note_off_c, 0, 50, 64
2, 211735, Note_on_c, 0, 42, 62
2, 211898, Note_on_c, 0, 49, 43
2, 211982, Note_on_c, 0, 54, 43
2, 211984, Note_off_c, 0, 35, 64
2, 211994, Note_off_c, 0, 49, 64
2, 212062, Note_on_c, 0, 47, 57
2, 212068, Note_off_c, 0, 42, 64
2, 212101, Note_off_c, 0, 54, 64
2, 212138, Note_on_c, 0, 50, 48
2, 212195, Note_on_c, 0, 59, 48
2, 212224, Note_off_c, 0, 50, 64
2, 212267, Control_c, 0, 64, 0
2, 212298, Note_on_c, 0, 35, 68
2, 212313, Note_on_c, 0, 49, 75
2, 212344, Note_off_c, 0, 59, 64
2, 212344, Control_c, 0, 64, 127
2, 212367, Note_off_c, 0, 47, 64
2, 212380, Note_on_c, 0, 54, 48
2, 212442, Note_on_c, 0, 61, 35
2, 212458, Note_off_c, 0, 54, 64
2, 212508, Note_on_c, 0, 50, 63
2, 212517, Note_off_c, 0, 61, 64
2, 212521, Note_off_c, 0, 49, 64
2, 212566, Note_on_c, 0, 59, 44
2, 212634, Note_on_c, 0, 62, 36
2, 212644, Note_off_c, 0, 59, 64
2, 212709, Note_off_c, 0, 62, 64
2, 212725, Note_on_c, 0, 54, 58
2, 212778, Note_off_c, 0, 50, 64
2, 212799, Note_on_c, 0, 61, 44
2, 212852, Note_on_c, 0, 66, 44
2, 212866, Note_off_c, 0, 61, 64
2, 212919, Note_on_c, 0, 59, 54
2, 212928, Note_off_c, 0, 35, 64
2, 212951, Note_off_c, 0, 66, 64
2, 212972, Note_off_c, 0, 54, 64
2, 212972, Note_on_c, 0, 62, 40
2, 213034, Note_on_c, 0, 71, 36
2, 213046, Note_off_c, 0, 62, 64
2, 213110, Note_on_c, 0, 35, 37
2, 213113, Note_on_c, 0, 42, 67
2, 213125, Note_off_c, 0, 71, 64
2, 213130, Note_on_c, 0, 73, 55
2, 213151, Note_off_c, 0, 59, 64
2, 213197, Note_on_c, 0, 64, 39
2, 213253, Note_on_c, 0, 70, 28
2, 213289, Note_off_c, 0, 64, 64
2, 213326, Note_off_c, 0, 70, 64
2, 213329, Note_on_c, 0, 74, 40
2, 213330, Note_on_c, 0, 47, 64
2, 213372, Note_off_c, 0, 73, 64
2, 213379, Note_on_c, 0, 62, 51
2, 213403, Note_off_c, 0, 42, 64
2, 213444, Note_on_c, 0, 66, 35
2, 213467, Note_off_c, 0, 35, 64
2, 213482, Note_on_c, 0, 35, 73
2, 213493, Note_off_c, 0, 62, 64
2, 213509, Control_c, 0, 64, 0
2, 213518, Note_off_c, 0, 66, 64
2, 213519, Note_on_c, 0, 49, 77
2, 213522, Note_on_c, 0, 70, 58
2, 213528, Note_off_c, 0, 47, 64
2, 213571, Note_off_c, 0, 74, 64
2, 213578, Control_c, 0, 64, 127
2, 213586, Note_on_c, 0, 64, 55
2, 213643, Note_on_c, 0, 67, 44
2, 213655, Note_off_c, 0, 70, 64
2, 213674, Note_off_c, 0, 64, 64
2, 213705, Note_on_c, 0, 70, 58
2, 213721, Note_off_c, 0, 67, 64
2, 213781, Note_on_c, 0, 76, 57
2, 213808, Note_off_c, 0, 70, 64
2, 213830, Note_off_c, 0, 35, 64
2, 213839, Note_on_c, 0, 79, 46
2, 213863, Note_off_c, 0, 49, 64
2, 213865, Note_off_c, 0, 76, 64
2, 213885, Control_c, 0, 64, 0
2, 213895, Note_on_c, 0, 85, 56
2, 213895, Note_on_c, 0, 42, 73
2, 213899, Note_on_c, 0, 35, 57
2, 213930, Note_off_c, 0, 79, 64
2, 213948, Control_c, 0, 64, 127
2, 213964, Note_on_c, 0, 76, 55
2, 214023, Note_on_c, 0, 82, 57
2, 214047, Note_off_c, 0, 76, 64
2, 214083, Note_on_c, 0, 47, 74
2, 214089, Note_on_c, 0, 86, 57
2, 214092, Note_off_c, 0, 82, 64
2, 214103, Note_off_c, 0, 85, 64
2, 214142, Note_on_c, 0, 74, 45
2, 214172, Note_off_c, 0, 42, 64
2, 214189, Note_on_c, 0, 78, 45
2, 214217, Note_off_c, 0, 35, 64
2, 214228, Note_off_c, 0, 74, 64
2, 214230, Note_on_c, 0, 35, 73
2, 214266, Control_c, 0, 64, 0
2, 214273, Note_off_c, 0, 78, 64
2, 214273, Note_on_c, 0, 82, 52
2, 214273, Note_on_c, 0, 49, 80
2, 214287, Note_off_c, 0, 86, 64
2, 214315, Note_off_c, 0, 47, 64
2, 214316, Control_c, 0, 64, 127
2, 214328, Note_on_c, 0, 79, 40
2, 214378, Note_on_c, 0, 76, 58
2, 214426, Note_off_c, 0, 79, 64
2, 214449, Note_on_c, 0, 70, 60
2, 214456, Note_off_c, 0, 76, 64
2, 214480, Note_off_c, 0, 82, 64
2, 214490, Note_on_c, 0, 67, 56
2, 214510, Note_off_c, 0, 35, 64
2, 214530, Note_off_c, 0, 49, 64
2, 214537, Note_off_c, 0, 70, 64
2, 214560, Note_on_c, 0, 64, 26
2, 214574, Note_off_c, 0, 67, 64
2, 214612, Control_c, 0, 64, 0
2, 214615, Note_on_c, 0, 42, 68
2, 214622, Note_on_c, 0, 35, 68
2, 214628, Note_on_c, 0, 73, 55
2, 214653, Note_off_c, 0, 64, 64
2, 214662, Control_c, 0, 64, 127
2, 214694, Note_on_c, 0, 64, 26
2, 214750, Note_on_c, 0, 70, 32
2, 214773, Note_off_c, 0, 64, 64
2, 214786, Control_c, 0, 64, 0
2, 214801, Note_on_c, 0, 47, 63
2, 214808, Note_on_c, 0, 74, 52
2, 214817, Note_off_c, 0, 70, 64
2, 214833, Note_off_c, 0, 73, 64
2, 214844, Control_c, 0, 64, 127
2, 214854, Note_on_c, 0, 62, 51
2, 214881, Note_off_c, 0, 42, 64
2, 214913, Note_on_c, 0, 66, 29
2, 214921, Note_off_c, 0, 35, 64
2, 214938, Note_on_c, 0, 35, 72
2, 214939, Note_off_c, 0, 62, 64
2, 214976, Control_c, 0, 64, 0
2, 214983, Note_off_c, 0, 66, 64
2, 214983, Note_on_c, 0, 70, 51
2, 214984, Note_on_c, 0, 49, 83
2, 215022, Control_c, 0, 64, 127
2, 215036, Note_off_c, 0, 74, 64
2, 215037, Note_on_c, 0, 64, 46
2, 215043, Note_off_c, 0, 47, 64
2, 215110, Note_on_c, 0, 67, 40
2, 215125, Note_off_c, 0, 64, 64
2, 215157, Note_on_c, 0, 50, 72
2, 215162, Note_on_c, 0, 71, 58
2, 215164, Note_off_c, 0, 49, 64
2, 215193, Note_off_c, 0, 67, 64
2, 215210, Note_on_c, 0, 62, 52
2, 215211, Note_off_c, 0, 70, 64
2, 215282, Note_on_c, 0, 66, 52
2, 215286, Note_off_c, 0, 62, 64
2, 215286, Note_off_c, 0, 35, 64
2, 215338, Note_on_c, 0, 52, 64
2, 215342, Note_on_c, 0, 47, 57
2, 215349, Note_off_c, 0, 71, 64
2, 215349, Note_on_c, 0, 67, 60
2, 215350, Control_c, 0, 64, 0
2, 215358, Note_off_c, 0, 66, 64
2, 215379, Note_off_c, 0, 50, 64
2, 215399, Note_on_c, 0, 59, 52
2, 215412, Control_c, 0, 64, 127
2, 215465, Note_on_c, 0, 61, 39
2, 215483, Note_off_c, 0, 67, 64
2, 215489, Note_off_c, 0, 59, 64
2, 215499, Control_c, 0, 64, 0
2, 215527, Note_on_c, 0, 50, 73
2, 215534, Note_off_c, 0, 61, 64
2, 215537, Note_on_c, 0, 67, 55
2, 215546, Note_off_c, 0, 52, 64
2, 215550, Control_c, 0, 64, 127
2, 215581, Note_on_c, 0, 59, 53
2, 215618, Note_on_c, 0, 52, 74
2, 215639, Note_on_c, 0, 61, 55
2, 215647, Note_off_c, 0, 50, 64
2, 215671, Note_off_c, 0, 59, 64
2, 215674, Note_off_c, 0, 47, 64
2, 215707, Note_on_c, 0, 50, 80
2, 215714, Note_on_c, 0, 47, 79
2, 215715, Control_c, 0, 64, 0
2, 215724, Note_off_c, 0, 52, 64
2, 215745, Note_off_c, 0, 61, 64
2, 215771, Control_c, 0, 64, 127
2, 215790, Note_on_c, 0, 59, 48
2, 215839, Note_on_c, 0, 61, 60
2, 215872, Note_off_c, 0, 59, 64
2, 215907, Control_c, 0, 64, 0
2, 215915, Note_on_c, 0, 49, 76
2, 215923, Note_on_c, 0, 66, 60
2, 215925, Note_off_c, 0, 61, 64
2, 215928, Note_off_c, 0, 47, 64
2, 215937, Control_c, 0, 64, 127
2, 215938, Note_off_c, 0, 67, 64
2, 215941, Note_off_c, 0, 50, 64
2, 215977, Note_on_c, 0, 58, 60
2, 216062, Note_on_c, 0, 64, 45
2, 216071, Note_off_c, 0, 58, 64
2, 216137, Note_off_c, 0, 49, 64
2, 216145, Note_off_c, 0, 66, 64
2, 216156, Control_c, 0, 64, 0
2, 216162, Note_on_c, 0, 47, 57
2, 216162, Note_on_c, 0, 66, 55
2, 216166, Note_on_c, 0, 35, 45
2, 216171, Note_off_c, 0, 64, 64
2, 216218, Control_c, 0, 64, 127
2, 216225, Note_on_c, 0, 57, 51
2, 216275, Note_on_c, 0, 63, 55
2, 216314, Note_off_c, 0, 57, 64
2, 216340, Control_c, 0, 64, 0
2, 216352, Note_on_c, 0, 67, 56
2, 216352, Note_on_c, 0, 52, 64
2, 216365, Note_off_c, 0, 63, 64
2, 216376, Control_c, 0, 64, 127
2, 216377, Note_off_c, 0, 66, 64
2, 216391, Note_off_c, 0, 35, 64
2, 216393, Note_off_c, 0, 47, 64
2, 216402, Note_on_c, 0, 55, 48
2, 216459, Note_on_c, 0, 59, 52
2, 216482, Note_on_c, 0, 47, 80
2, 216489, Note_off_c, 0, 55, 64
2, 216520, Control_c, 0, 64, 0
2, 216527, Note_on_c, 0, 54, 80
2, 216538, Note_on_c, 0, 61, 60
2, 216548, Note_off_c, 0, 52, 64
2, 216565, Note_off_c, 0, 59, 64
2, 216566, Note_off_c, 0, 67, 64
2, 216582, Control_c, 0, 64, 127
2, 216587, Note_on_c, 0, 52, 53
2, 216654, Note_on_c, 0, 58, 41
2, 216661, Note_off_c, 0, 52, 64
2, 216673, Note_off_c, 0, 61, 64
2, 216710, Note_on_c, 0, 61, 56
2, 216717, Note_off_c, 0, 58, 64
2, 216759, Note_on_c, 0, 64, 56
2, 216794, Note_off_c, 0, 61, 64
2, 216811, Note_off_c, 0, 54, 64
2, 216814, Note_on_c, 0, 70, 46
2, 216815, Note_off_c, 0, 47, 64
2, 216834, Note_off_c, 0, 64, 64
2, 216845, Control_c, 0, 64, 0
2, 216858, Note_on_c, 0, 47, 80
2, 216864, Note_on_c, 0, 35, 64
2, 216881, Note_off_c, 0, 70, 64
2, 216887, Note_on_c, 0, 75, 51
2, 216898, Control_c, 0, 64, 127
2, 216929, Note_on_c, 0, 69, 43
2, 216978, Note_on_c, 0, 72, 51
2, 217009, Note_off_c, 0, 69, 64
2, 217043, Note_on_c, 0, 52, 60
2, 217044, Note_on_c, 0, 76, 61
2, 217053, Note_off_c, 0, 75, 64
2, 217054, Note_off_c, 0, 72, 64
2, 217085, Note_off_c, 0, 35, 64
2, 217086, Note_off_c, 0, 47, 64
2, 217091, Note_on_c, 0, 67, 48
2, 217146, Note_on_c, 0, 71, 46
2, 217154, Note_on_c, 0, 47, 70
2, 217176, Note_off_c, 0, 67, 64
2, 217183, Control_c, 0, 64, 0
2, 217207, Note_on_c, 0, 70, 61
2, 217207, Note_on_c, 0, 54, 80
2, 217229, Note_off_c, 0, 71, 64
2, 217235, Note_off_c, 0, 76, 64
2, 217253, Note_off_c, 0, 52, 64
2, 217254, Control_c, 0, 64, 127
2, 217265, Note_on_c, 0, 64, 55
2, 217312, Note_on_c, 0, 67, 52
2, 217330, Note_off_c, 0, 70, 64
2, 217334, Note_off_c, 0, 64, 64
2, 217360, Note_on_c, 0, 70, 56
2, 217396, Note_off_c, 0, 67, 64
2, 217435, Note_on_c, 0, 76, 52
2, 217469, Note_off_c, 0, 70, 64
2, 217472, Note_on_c, 0, 79, 45
2, 217498, Note_off_c, 0, 76, 64
2, 217508, Note_off_c, 0, 54, 64
2, 217518, Note_off_c, 0, 47, 64
2, 217527, Control_c, 0, 64, 0
2, 217545, Control_c, 0, 64, 0
2, 217553, Note_off_c, 0, 79, 64
2, 217553, Note_on_c, 0, 83, 58
2, 217554, Note_on_c, 0, 35, 59
2, 217557, Note_on_c, 0, 47, 71
2, 217602, Note_on_c, 0, 75, 55
2, 217605, Control_c, 0, 64, 127
2, 217659, Note_on_c, 0, 81, 51
2, 217682, Note_off_c, 0, 75, 64
2, 217719, Note_on_c, 0, 84, 57
2, 217719, Note_on_c, 0, 52, 53
2, 217729, Note_off_c, 0, 83, 64
2, 217733, Control_c, 0, 64, 0
2, 217740, Note_off_c, 0, 81, 64
2, 217748, Control_c, 0, 64, 127
2, 217769, Note_off_c, 0, 47, 64
2, 217773, Note_on_c, 0, 76, 61
2, 217842, Note_off_c, 0, 35, 64
2, 217843, Note_on_c, 0, 79, 26
2, 217862, Note_off_c, 0, 76, 64
2, 217890, Note_off_c, 0, 52, 64
2, 217898, Note_on_c, 0, 54, 64
2, 217902, Note_on_c, 0, 47, 55
2, 217907, Control_c, 0, 64, 0
2, 217914, Note_on_c, 0, 81, 51
2, 217928, Note_off_c, 0, 79, 64
2, 217931, Control_c, 0, 64, 127
2, 217933, Note_off_c, 0, 84, 64
2, 217968, Note_on_c, 0, 72, 62
2, 218019, Note_on_c, 0, 75, 58
2, 218052, Note_off_c, 0, 72, 64
2, 218081, Note_on_c, 0, 55, 61
2, 218089, Note_on_c, 0, 79, 45
2, 218097, Note_off_c, 0, 54, 64
2, 218102, Note_off_c, 0, 81, 64
2, 218107, Note_off_c, 0, 75, 64
2, 218134, Note_on_c, 0, 71, 57
2, 218155, Note_off_c, 0, 47, 64
2, 218198, Note_on_c, 0, 76, 41
2, 218219, Note_off_c, 0, 71, 64
2, 218226, Note_on_c, 0, 47, 71
2, 218269, Note_on_c, 0, 75, 55
2, 218272, Control_c, 0, 64, 0
2, 218279, Note_on_c, 0, 57, 65
2, 218282, Note_off_c, 0, 79, 64
2, 218283, Note_off_c, 0, 76, 64
2, 218300, Note_off_c, 0, 55, 64
2, 218323, Control_c, 0, 64, 127
2, 218334, Note_on_c, 0, 66, 57
2, 218386, Note_on_c, 0, 72, 51
2, 218414, Note_off_c, 0, 66, 64
2, 218442, Note_on_c, 0, 76, 55
2, 218444, Note_on_c, 0, 55, 63
2, 218457, Control_c, 0, 64, 0
2, 218463, Note_off_c, 0, 57, 64
2, 218477, Note_off_c, 0, 72, 64
2, 218481, Note_off_c, 0, 75, 64
2, 218499, Control_c, 0, 64, 127
2, 218510, Note_on_c, 0, 64, 45
2, 218550, Note_on_c, 0, 54, 64
2, 218554, Note_off_c, 0, 47, 64
2, 218589, Note_off_c, 0, 55, 64
2, 218592, Note_off_c, 0, 64, 64
2, 218594, Note_on_c, 0, 71, 60
2, 218655, Note_off_c, 0, 76, 64
2, 218670, Note_off_c, 0, 71, 64
2, 218698, Note_on_c, 0, 52, 56
2, 218698, Note_on_c, 0, 72, 44
2, 218713, Note_off_c, 0, 54, 64
2, 218759, Control_c, 0, 64, 0
2, 218778, Note_on_c, 0, 64, 41
2, 218789, Control_c, 0, 64, 127
2, 218842, Note_on_c, 0, 67, 44
2, 218867, Note_off_c, 0, 64, 64
2, 218920, Note_off_c, 0, 52, 64
2, 218934, Note_on_c, 0, 48, 59
2, 218937, Note_off_c, 0, 72, 64
2, 218938, Note_on_c, 0, 70, 47
2, 218942, Note_off_c, 0, 67, 64
2, 219015, Control_c, 0, 64, 0
2, 219025, Control_c, 0, 64, 127
2, 219030, Note_on_c, 0, 64, 41
2, 219150, Note_on_c, 0, 66, 36
2, 219170, Note_off_c, 0, 64, 64
2, 219192, Control_c, 0, 64, 0
2, 219230, Note_on_c, 0, 47, 57
2, 219230, Note_on_c, 0, 45, 48
2, 219238, Note_on_c, 0, 71, 40
2, 219241, Control_c, 0, 64, 127
2, 219254, Note_off_c, 0, 48, 64
2, 219268, Note_off_c, 0, 70, 64
2, 219273, Note_off_c, 0, 66, 64
2, 219314, Note_on_c, 0, 59, 40
2, 219406, Note_on_c, 0, 63, 31
2, 219409, Note_off_c, 0, 59, 64
2, 219484, Note_on_c, 0, 43, 46
2, 219485, Note_on_c, 0, 64, 49
2, 219494, Note_off_c, 0, 63, 64
2, 219511, Note_off_c, 0, 71, 64
2, 219568, Note_off_c, 0, 45, 64
2, 219582, Note_on_c, 0, 52, 57
2, 219634, Note_on_c, 0, 42, 57
2, 219662, Note_off_c, 0, 43, 64
2, 219678, Note_on_c, 0, 59, 44
2, 219712, Note_off_c, 0, 52, 64
2, 219796, Note_off_c, 0, 47, 64
2, 219818, Note_on_c, 0, 60, 48
2, 219821, Note_off_c, 0, 64, 64
2, 219822, Note_off_c, 0, 59, 64
2, 219824, Note_on_c, 0, 40, 46
2, 219826, Note_on_c, 0, 47, 50
2, 219834, Note_off_c, 0, 42, 64
2, 219834, Control_c, 0, 64, 0
2, 219900, Control_c, 0, 64, 127
2, 219926, Note_on_c, 0, 52, 45
2, 220022, Note_on_c, 0, 55, 42
2, 220050, Note_off_c, 0, 60, 64
2, 220066, Note_off_c, 0, 52, 64
2, 220178, Note_off_c, 0, 55, 64
2, 220178, Note_on_c, 0, 58, 44
2, 220182, Control_c, 0, 64, 0
2, 220188, Note_on_c, 0, 36, 40
2, 220191, Note_off_c, 0, 40, 64
2, 220247, Control_c, 0, 64, 127
2, 220386, Note_on_c, 0, 52, 32
2, 220396, Note_off_c, 0, 58, 64
2, 220475, Note_off_c, 0, 47, 64
2, 220532, Note_on_c, 0, 54, 32
2, 220569, Note_off_c, 0, 52, 64
2, 220575, Note_off_c, 0, 36, 64
2, 220763, Note_off_c, 0, 54, 64
2, 220777, Control_c, 0, 64, 0
2, 220805, Note_on_c, 0, 35, 53
2, 220833, Note_on_c, 0, 78, 51
2, 220849, Control_c, 0, 64, 127
2, 220950, Note_on_c, 0, 51, 40
2, 221032, Note_on_c, 0, 54, 47
2, 221080, Note_off_c, 0, 51, 64
2, 221092, Control_c, 0, 64, 0
2, 221129, Note_on_c, 0, 83, 60
2, 221136, Note_on_c, 0, 59, 48
2, 221143, Note_off_c, 0, 54, 64
2, 221162, Control_c, 0, 64, 127
2, 221208, Note_off_c, 0, 78, 64
2, 221228, Note_on_c, 0, 51, 39
2, 221323, Note_off_c, 0, 59, 64
2, 221333, Note_off_c, 0, 35, 64
2, 221334, Note_on_c, 0, 54, 46
2, 221354, Note_off_c, 0, 51, 64
2, 221447, Note_off_c, 0, 54, 64
2, 221454, Note_on_c, 0, 40, 50
2, 221455, Note_on_c, 0, 47, 58
2, 221473, Control_c, 0, 64, 0
2, 221537, Control_c, 0, 64, 127
2, 221543, Note_off_c, 0, 83, 64
2, 221576, Note_on_c, 0, 55, 52
2, 221696, Note_on_c, 0, 60, 40
2, 221729, Note_off_c, 0, 55, 64
2, 221812, Note_on_c, 0, 36, 51
2, 221821, Control_c, 0, 64, 0
2, 221855, Control_c, 0, 64, 127
2, 221858, Note_off_c, 0, 40, 64
2, 221955, Note_on_c, 0, 52, 41
2, 222008, Note_off_c, 0, 60, 64
2, 222091, Note_on_c, 0, 58, 40
2, 222113, Note_off_c, 0, 47, 64
2, 222142, Note_off_c, 0, 52, 64
2, 222176, Note_off_c, 0, 36, 64
2, 222190, Note_off_c, 0, 58, 64
2, 222303, Control_c, 0, 64, 0
2, 222308, Note_on_c, 0, 35, 32
2, 222309, Note_on_c, 0, 78, 59
2, 222366, Control_c, 0, 64, 127
2, 222454, Note_on_c, 0, 51, 32
2, 222544, Note_on_c, 0, 54, 44
2, 222584, Note_off_c, 0, 51, 64
2, 222655, Note_on_c, 0, 83, 55
2, 222660, Note_on_c, 0, 59, 45
2, 222665, Note_off_c, 0, 54, 64
2, 222679, Note_off_c, 0, 78, 64
2, 222754, Note_on_c, 0, 51, 43
2, 222822, Note_off_c, 0, 59, 64
2, 222825, Note_off_c, 0, 35, 64
2, 222874, Note_on_c, 0, 54, 37
2, 222890, Note_off_c, 0, 51, 64
2, 222956, Note_off_c, 0, 83, 64
2, 222993, Note_off_c, 0, 54, 64
2, 223013, Note_on_c, 0, 47, 59
2, 223017, Note_on_c, 0, 40, 57
2, 223038, Control_c, 0, 64, 0
2, 223101, Control_c, 0, 64, 127
2, 223160, Note_on_c, 0, 55, 52
2, 223314, Note_on_c, 0, 60, 51
2, 223335, Note_off_c, 0, 55, 64
2, 223467, Note_on_c, 0, 36, 52
2, 223479, Control_c, 0, 64, 0
2, 223511, Note_off_c, 0, 40, 64
2, 223543, Control_c, 0, 64, 127
2, 223662, Note_on_c, 0, 52, 44
2, 223736, Note_off_c, 0, 60, 64
2, 223947, Note_on_c, 0, 58, 39
2, 223959, Note_off_c, 0, 52, 64
2, 224292, Note_off_c, 0, 58, 64
2, 224305, Note_off_c, 0, 36, 64
2, 224341, Control_c, 0, 64, 0
2, 224350, Note_on_c, 0, 35, 44
2, 224351, Note_on_c, 0, 78, 46
2, 224396, Control_c, 0, 64, 127
2, 224402, Note_off_c, 0, 47, 64
2, 224559, Note_on_c, 0, 51, 40
2, 224667, Note_on_c, 0, 54, 36
2, 224684, Note_off_c, 0, 51, 64
2, 224796, Note_on_c, 0, 83, 48
2, 224798, Note_on_c, 0, 59, 44
2, 224812, Note_off_c, 0, 54, 64
2, 224842, Note_off_c, 0, 78, 64
2, 224938, Note_on_c, 0, 51, 33
2, 225045, Note_on_c, 0, 54, 44
2, 225075, Note_off_c, 0, 51, 64
2, 225083, Note_off_c, 0, 59, 64
2, 225128, Note_off_c, 0, 35, 64
2, 225166, Note_off_c, 0, 54, 64
2, 225177, Control_c, 0, 64, 0
2, 225190, Note_on_c, 0, 35, 54
2, 225230, Control_c, 0, 64, 127
2, 225340, Note_on_c, 0, 51, 31
2, 225468, Note_on_c, 0, 54, 41
2, 225492, Note_off_c, 0, 51, 64
2, 225635, Note_on_c, 0, 59, 34
2, 225644, Note_off_c, 0, 54, 64
2, 225808, Note_on_c, 0, 51, 40
2, 226020, Note_on_c, 0, 54, 42
2, 226054, Note_off_c, 0, 51, 64
2, 226058, Note_off_c, 0, 59, 64
2, 226113, Note_off_c, 0, 83, 64
2, 226149, Note_off_c, 0, 35, 64
2, 226247, Note_off_c, 0, 54, 64
2, 226276, Note_on_c, 0, 78, 52
2, 226280, Note_on_c, 0, 35, 40
2, 226314, Control_c, 0, 64, 0
2, 226379, Control_c, 0, 64, 127
2, 226542, Note_on_c, 0, 51, 26
2, 226758, Note_on_c, 0, 54, 35
2, 226795, Note_off_c, 0, 51, 64
2, 227005, Note_on_c, 0, 83, 64
2, 227011, Note_on_c, 0, 59, 26
2, 227041, Note_off_c, 0, 54, 64
2, 227058, Note_off_c, 0, 78, 64
2, 227109, Note_off_c, 0, 35, 64
2, 227289, Note_on_c, 0, 51, 31
2, 227607, Note_on_c, 0, 54, 28
2, 227611, Note_off_c, 0, 51, 64
2, 227644, Note_off_c, 0, 59, 64
2, 228011, Note_off_c, 0, 54, 64
2, 228064, Note_on_c, 0, 11, 1
2, 228079, Note_on_c, 0, 23, 44
2, 228089, Note_on_c, 0, 35, 52
2, 228659, Control_c, 0, 64, 0
2, 228918, Control_c, 0, 64, 127
2, 229130, Control_c, 0, 64, 0
2, 229977, Note_off_c, 0, 23, 64
2, 229981, Note_off_c, 0, 83, 64
2, 230012, Note_off_c, 0, 35, 64
2, 233265, Note_off_c, 0, 11, 64
2, 233265, End_track
3, 0, Start_track
3, 0, Title_t, "Rhapsody, Op. 79 No. 1"
3, 0, End_track
4, 0, Start_track
4, 0, Title_t, "Realtime performance by"
4, 0, End_track
5, 0, Start_track
5, 0, Title_t, "Ron Lubetsky, M.D."
5, 0, End_track
6, 0, Start_track
6, 0, Title_t, "Copyright  1999"
6, 0, End_track
7, 0, Start_track
7, 0, Title_t, "All Rights Reserved"
7, 0, End_track
8, 0, Start_track
8, 0, Title_t, "Email: DrLubetsky@aol.com"
8, 0, End_track
9, 0, Start_track
9, 0, Title_t, "hometown.aol.com/drlubetsky"
9, 0, End_track
0, 0, End_of_file
