0, 0, Header, 0, 1, 480
1, 0, Start_track
1, 0, Title_t, "Sonata No. 3    Korchinskaya-Ko."
1, 0, Text_t, "Brahms Sonata No. 3 in F Minor performed on the Yamaha Disklavier by Victoria Korchinskaya-Kogan--06/08/02"
1, 0, SMPTE_offset, 96, 0, 0, 0, 0
1, 0, Time_signature, 4, 2, 24, 8
1, 0, Tempo, 512820
1, 0, System_exclusive, 5, 126, 127, 9, 1, 247
1, 1, System_exclusive, 8, 67, 16, 76, 0, 0, 126, 0, 247
1, 2, System_exclusive, 6, 67, 113, 126, 10, 0, 247
1, 5, Control_c, 0, 0, 0
1, 6, Control_c, 0, 32, 0
1, 7, Program_c, 0, 0
1, 8, Control_c, 0, 7, 100
1, 604, Control_c, 0, 64, 8
1, 1596, Control_c, 0, 64, 15
1, 1613, Control_c, 0, 64, 19
1, 1633, Control_c, 0, 64, 23
1, 1651, Control_c, 0, 64, 29
1, 1670, Control_c, 0, 64, 37
1, 1688, Control_c, 0, 64, 45
1, 1708, Control_c, 0, 64, 54
1, 1726, Control_c, 0, 64, 63
1, 1744, Control_c, 0, 64, 69
1, 1763, Control_c, 0, 64, 73
1, 1782, Control_c, 0, 64, 78
1, 1801, Control_c, 0, 64, 86
1, 1819, Control_c, 0, 64, 97
1, 1839, Control_c, 0, 64, 111
1, 1857, Control_c, 0, 64, 125
1, 3204, Control_c, 0, 64, 100
1, 3223, Control_c, 0, 64, 55
1, 3241, Control_c, 0, 64, 0
1, 3679, Note_on_c, 0, 53, 96
1, 3684, Note_on_c, 0, 41, 92
1, 3686, Note_on_c, 0, 29, 87
1, 3688, Control_c, 0, 64, 21
1, 3710, Control_c, 0, 64, 96
1, 3727, Control_c, 0, 64, 127
1, 3735, Note_off_c, 0, 53, 67
1, 3739, Note_off_c, 0, 29, 63
1, 3739, Note_off_c, 0, 41, 65
1, 4327, Note_on_c, 0, 80, 95
1, 4329, Note_on_c, 0, 68, 93
1, 4331, Note_on_c, 0, 72, 82
1, 4338, Note_on_c, 0, 65, 92
1, 4340, Note_on_c, 0, 53, 81
1, 4346, Note_on_c, 0, 60, 80
1, 4362, Control_c, 0, 64, 112
1, 4381, Control_c, 0, 64, 70
1, 4402, Control_c, 0, 64, 58
1, 4419, Control_c, 0, 64, 77
1, 4437, Note_off_c, 0, 72, 64
1, 4437, Control_c, 0, 64, 106
1, 4450, Note_off_c, 0, 68, 60
1, 4456, Control_c, 0, 64, 127
1, 4507, Note_off_c, 0, 60, 59
1, 4527, Note_off_c, 0, 65, 60
1, 4634, Note_off_c, 0, 53, 56
1, 4710, Note_on_c, 0, 55, 66
1, 4712, Note_off_c, 0, 80, 62
1, 4717, Note_on_c, 0, 79, 80
1, 4785, Note_on_c, 0, 56, 75
1, 4786, Note_on_c, 0, 77, 80
1, 4802, Note_off_c, 0, 55, 62
1, 4802, Poly_aftertouch_c, 0, 55, 0
1, 4803, Note_off_c, 0, 79, 61
1, 4826, Note_off_c, 0, 56, 62
1, 4849, Control_c, 0, 64, 78
1, 4868, Control_c, 0, 64, 40
1, 4876, Note_on_c, 0, 85, 95
1, 4882, Note_on_c, 0, 73, 101
1, 4885, Note_on_c, 0, 79, 83
1, 4887, Note_on_c, 0, 58, 93
1, 4887, Note_on_c, 0, 67, 101
1, 4887, Control_c, 0, 64, 69
1, 4892, Note_on_c, 0, 61, 89
1, 4907, Control_c, 0, 64, 125
1, 4934, Note_off_c, 0, 67, 60
1, 4960, Note_off_c, 0, 85, 67
1, 4961, Note_off_c, 0, 61, 55
1, 4966, Note_off_c, 0, 77, 59
1, 4968, Note_off_c, 0, 58, 60
1, 4971, Note_off_c, 0, 73, 60
1, 4981, Note_off_c, 0, 79, 61
1, 5428, Control_c, 0, 64, 121
1, 5444, Note_on_c, 0, 40, 98
1, 5446, Control_c, 0, 64, 57
1, 5450, Note_on_c, 0, 28, 88
1, 5452, Note_on_c, 0, 52, 102
1, 5466, Control_c, 0, 64, 0
1, 5486, Control_c, 0, 64, 32
1, 5487, Note_on_c, 0, 29, 46
1, 5488, Note_off_c, 0, 29, 127
1, 5497, Note_on_c, 0, 30, 41
1, 5503, Note_off_c, 0, 28, 64
1, 5503, Control_c, 0, 64, 73
1, 5510, Note_off_c, 0, 40, 64
1, 5518, Note_off_c, 0, 52, 67
1, 5521, Control_c, 0, 64, 120
1, 5540, Control_c, 0, 64, 127
1, 5549, Note_off_c, 0, 30, 35
1, 6044, Note_on_c, 0, 73, 102
1, 6044, Note_on_c, 0, 85, 102
1, 6046, Note_on_c, 0, 79, 87
1, 6047, Control_c, 0, 64, 113
1, 6049, Note_on_c, 0, 67, 98
1, 6051, Note_on_c, 0, 58, 91
1, 6053, Note_on_c, 0, 64, 86
1, 6076, Control_c, 0, 64, 58
1, 6083, Control_c, 0, 64, 14
1, 6101, Control_c, 0, 64, 60
1, 6121, Control_c, 0, 64, 89
1, 6139, Control_c, 0, 64, 127
1, 6145, Note_off_c, 0, 67, 56
1, 6160, Note_off_c, 0, 73, 57
1, 6163, Note_off_c, 0, 58, 65
1, 6164, Note_off_c, 0, 79, 60
1, 6174, Poly_aftertouch_c, 0, 65, 0
1, 6176, Note_off_c, 0, 64, 62
1, 6455, Note_on_c, 0, 84, 80
1, 6466, Note_on_c, 0, 60, 73
1, 6475, Note_off_c, 0, 85, 49
1, 6508, Note_on_c, 0, 61, 80
1, 6541, Note_on_c, 0, 82, 87
1, 6543, Note_off_c, 0, 60, 60
1, 6553, Note_off_c, 0, 84, 63
1, 6603, Note_off_c, 0, 61, 63
1, 6605, Control_c, 0, 64, 98
1, 6614, Note_on_c, 0, 66, 80
1, 6614, Note_on_c, 0, 90, 95
1, 6622, Note_on_c, 0, 78, 102
1, 6625, Note_on_c, 0, 69, 99
1, 6625, Control_c, 0, 64, 35
1, 6627, Note_on_c, 0, 84, 80
1, 6634, Note_on_c, 0, 60, 86
1, 6642, Control_c, 0, 64, 30
1, 6663, Control_c, 0, 64, 91
1, 6678, Note_off_c, 0, 69, 68
1, 6681, Control_c, 0, 64, 127
1, 6700, Note_off_c, 0, 82, 62
1, 6707, Note_off_c, 0, 60, 67
1, 6708, Note_off_c, 0, 90, 68
1, 6710, Note_off_c, 0, 66, 66
1, 6718, Note_off_c, 0, 84, 65
1, 6723, Note_off_c, 0, 78, 64
1, 6732, Poly_aftertouch_c, 0, 61, 0
1, 7205, Control_c, 0, 64, 70
1, 7218, Note_on_c, 0, 51, 106
1, 7225, Note_on_c, 0, 39, 110
1, 7225, Control_c, 0, 64, 0
1, 7229, Note_on_c, 0, 27, 100
1, 7243, Control_c, 0, 64, 32
1, 7260, Control_c, 0, 64, 73
1, 7261, Note_off_c, 0, 27, 70
1, 7271, Note_off_c, 0, 39, 65
1, 7279, Control_c, 0, 64, 127
1, 7284, Note_off_c, 0, 51, 65
1, 7332, Poly_aftertouch_c, 0, 30, 0
1, 7878, Control_c, 0, 64, 90
1, 7889, Note_on_c, 0, 90, 102
1, 7890, Note_on_c, 0, 78, 106
1, 7890, Note_on_c, 0, 84, 93
1, 7894, Note_on_c, 0, 72, 97
1, 7895, Note_on_c, 0, 63, 89
1, 7898, Control_c, 0, 64, 0
1, 7900, Note_on_c, 0, 69, 82
1, 7922, Control_c, 0, 64, 19
1, 7934, Control_c, 0, 64, 73
1, 7953, Control_c, 0, 64, 127
1, 8023, Note_off_c, 0, 72, 62
1, 8027, Note_off_c, 0, 63, 62
1, 8030, Note_off_c, 0, 84, 65
1, 8038, Note_off_c, 0, 69, 62
1, 8059, Note_off_c, 0, 78, 63
1, 8308, Note_off_c, 0, 90, 64
1, 8316, Note_on_c, 0, 89, 77
1, 8323, Note_on_c, 0, 65, 54
1, 8387, Note_on_c, 0, 66, 77
1, 8397, Note_on_c, 0, 87, 84
1, 8412, Note_off_c, 0, 89, 62
1, 8417, Note_off_c, 0, 65, 60
1, 8439, Control_c, 0, 64, 115
1, 8450, Note_off_c, 0, 66, 64
1, 8458, Control_c, 0, 64, 54
1, 8476, Note_on_c, 0, 70, 53
1, 8476, Note_on_c, 0, 94, 96
1, 8476, Control_c, 0, 64, 0
1, 8481, Note_on_c, 0, 82, 105
1, 8483, Note_on_c, 0, 89, 80
1, 8486, Note_on_c, 0, 77, 104
1, 8496, Control_c, 0, 64, 70
1, 8498, Note_on_c, 0, 65, 70
1, 8514, Control_c, 0, 64, 126
1, 8536, Note_on_c, 0, 66, 39
1, 8540, Note_off_c, 0, 77, 66
1, 8551, Note_on_c, 0, 64, 36
1, 8552, Note_off_c, 0, 64, 127
1, 8556, Note_off_c, 0, 87, 63
1, 8564, Note_off_c, 0, 94, 70
1, 8570, Note_off_c, 0, 65, 64
1, 8571, Note_off_c, 0, 89, 63
1, 8573, Note_off_c, 0, 70, 67
1, 8581, Note_off_c, 0, 66, 61
1, 8582, Note_off_c, 0, 82, 62
1, 9113, Control_c, 0, 64, 76
1, 9125, Note_on_c, 0, 50, 108
1, 9126, Note_on_c, 0, 38, 99
1, 9129, Note_on_c, 0, 26, 93
1, 9132, Control_c, 0, 64, 0
1, 9187, Control_c, 0, 64, 71
1, 9189, Note_off_c, 0, 26, 64
1, 9203, Note_off_c, 0, 38, 63
1, 9205, Control_c, 0, 64, 113
1, 9213, Note_off_c, 0, 50, 66
1, 9224, Control_c, 0, 64, 127
1, 9281, Poly_aftertouch_c, 0, 28, 0
1, 9650, Poly_aftertouch_c, 0, 66, 0
1, 9928, Note_on_c, 0, 101, 107
1, 9929, Note_on_c, 0, 89, 105
1, 9930, Note_on_c, 0, 94, 110
1, 9935, Note_on_c, 0, 77, 95
1, 9935, Note_on_c, 0, 65, 80
1, 9946, Note_on_c, 0, 70, 87
1, 9996, Note_off_c, 0, 77, 64
1, 10079, Note_off_c, 0, 65, 58
1, 10088, Note_off_c, 0, 70, 61
1, 10145, Note_off_c, 0, 101, 64
1, 10192, Note_off_c, 0, 94, 65
1, 10208, Note_off_c, 0, 89, 63
1, 10706, Note_on_c, 0, 49, 108
1, 10719, Note_on_c, 0, 37, 104
1, 10720, Control_c, 0, 64, 75
1, 10724, Note_on_c, 0, 25, 101
1, 10738, Control_c, 0, 64, 0
1, 10777, Control_c, 0, 64, 52
1, 10781, Note_on_c, 0, 27, 19
1, 10782, Note_off_c, 0, 27, 127
1, 10796, Control_c, 0, 64, 94
1, 10814, Control_c, 0, 64, 127
1, 10836, Poly_aftertouch_c, 0, 27, 0
1, 10886, Note_off_c, 0, 25, 59
1, 10890, Note_off_c, 0, 37, 38
1, 10952, Note_off_c, 0, 49, 57
1, 11057, Control_c, 0, 64, 112
1, 11069, Note_on_c, 0, 24, 95
1, 11076, Control_c, 0, 64, 40
1, 11093, Control_c, 0, 64, 0
1, 11113, Control_c, 0, 64, 39
1, 11131, Control_c, 0, 64, 82
1, 11150, Control_c, 0, 64, 127
1, 11223, Note_on_c, 0, 36, 95
1, 11249, Note_off_c, 0, 24, 63
1, 11284, Note_off_c, 0, 36, 65
1, 11689, Note_on_c, 0, 101, 103
1, 11690, Note_on_c, 0, 89, 102
1, 11692, Note_on_c, 0, 96, 90
1, 11692, Note_on_c, 0, 92, 100
1, 11712, Note_on_c, 0, 65, 89
1, 11713, Note_on_c, 0, 77, 105
1, 11717, Note_on_c, 0, 72, 88
1, 11720, Note_on_c, 0, 68, 83
1, 12542, Note_off_c, 0, 101, 39
1, 12616, Note_off_c, 0, 96, 61
1, 12624, Note_off_c, 0, 65, 56
1, 12641, Note_off_c, 0, 92, 61
1, 12670, Poly_aftertouch_c, 0, 77, 24
1, 12674, Note_off_c, 0, 68, 36
1, 12709, Note_off_c, 0, 89, 50
1, 12714, Note_off_c, 0, 77, 36
1, 12714, Poly_aftertouch_c, 0, 77, 0
1, 12843, Note_off_c, 0, 72, 29
1, 12946, Control_c, 0, 64, 108
1, 12952, Note_on_c, 0, 100, 97
1, 12959, Note_on_c, 0, 88, 97
1, 12959, Note_on_c, 0, 96, 88
1, 12960, Note_on_c, 0, 91, 82
1, 12961, Note_on_c, 0, 64, 77
1, 12961, Note_on_c, 0, 76, 88
1, 12965, Control_c, 0, 64, 71
1, 12973, Note_on_c, 0, 72, 54
1, 12977, Note_on_c, 0, 67, 64
1, 12983, Control_c, 0, 64, 65
1, 13001, Control_c, 0, 64, 83
1, 13013, Note_off_c, 0, 91, 65
1, 13019, Control_c, 0, 64, 102
1, 13039, Control_c, 0, 64, 127
1, 13048, Note_off_c, 0, 67, 63
1, 13063, Note_off_c, 0, 64, 64
1, 13066, Note_off_c, 0, 100, 64
1, 13097, Note_off_c, 0, 88, 57
1, 13107, Note_off_c, 0, 76, 61
1, 13161, Note_off_c, 0, 96, 52
1, 13224, Control_c, 0, 64, 96
1, 13233, Note_on_c, 0, 96, 84
1, 13235, Note_on_c, 0, 89, 73
1, 13236, Note_on_c, 0, 98, 98
1, 13238, Note_on_c, 0, 86, 105
1, 13244, Control_c, 0, 64, 56
1, 13245, Note_on_c, 0, 62, 77
1, 13245, Note_on_c, 0, 74, 93
1, 13251, Note_off_c, 0, 72, 64
1, 13251, Note_on_c, 0, 72, 37
1, 13252, Note_on_c, 0, 65, 72
1, 13282, Control_c, 0, 64, 80
1, 13301, Control_c, 0, 64, 108
1, 13304, Note_off_c, 0, 74, 61
1, 13310, Note_off_c, 0, 89, 63
1, 13319, Control_c, 0, 64, 127
1, 13329, Note_off_c, 0, 62, 61
1, 13329, Poly_aftertouch_c, 0, 62, 0
1, 13348, Note_off_c, 0, 86, 63
1, 13355, Note_off_c, 0, 65, 60
1, 13365, Note_off_c, 0, 98, 63
1, 13391, Note_off_c, 0, 72, 36
1, 13403, Note_off_c, 0, 96, 58
1, 13482, Note_on_c, 0, 60, 72
1, 13507, Note_on_c, 0, 64, 58
1, 13554, Note_on_c, 0, 67, 62
1, 13573, Note_off_c, 0, 60, 61
1, 13599, Control_c, 0, 64, 88
1, 13604, Note_on_c, 0, 72, 80
1, 13608, Note_off_c, 0, 64, 59
1, 13617, Note_on_c, 0, 100, 103
1, 13618, Note_on_c, 0, 96, 91
1, 13618, Note_on_c, 0, 88, 106
1, 13618, Control_c, 0, 64, 42
1, 13620, Note_on_c, 0, 91, 90
1, 13630, Note_on_c, 0, 76, 105
1, 13637, Control_c, 0, 64, 55
1, 13656, Control_c, 0, 64, 93
1, 13672, Note_off_c, 0, 76, 70
1, 13676, Control_c, 0, 64, 127
1, 13684, Note_off_c, 0, 72, 64
1, 13690, Note_off_c, 0, 100, 68
1, 13692, Note_off_c, 0, 88, 69
1, 13703, Note_off_c, 0, 67, 64
1, 13713, Note_off_c, 0, 96, 65
1, 13717, Note_off_c, 0, 91, 65
1, 13719, Poly_aftertouch_c, 0, 94, 0
1, 13752, Poly_aftertouch_c, 0, 94, 0
1, 13993, Control_c, 0, 64, 116
1, 14011, Control_c, 0, 64, 75
1, 14029, Control_c, 0, 64, 0
1, 14071, Note_on_c, 0, 60, 92
1, 14076, Note_on_c, 0, 48, 86
1, 14080, Note_on_c, 0, 55, 84
1, 14098, Note_on_c, 0, 59, 62
1, 14098, Poly_aftertouch_c, 0, 59, 0
1, 14099, Note_off_c, 0, 59, 127
1, 14124, Control_c, 0, 64, 16
1, 14141, Note_off_c, 0, 60, 65
1, 14142, Control_c, 0, 64, 70
1, 14144, Note_off_c, 0, 55, 63
1, 14144, Poly_aftertouch_c, 0, 55, 0
1, 14145, Note_off_c, 0, 48, 65
1, 14161, Control_c, 0, 64, 102
1, 14179, Control_c, 0, 64, 127
1, 14392, Note_on_c, 0, 84, 98
1, 14394, Note_on_c, 0, 72, 104
1, 14395, Note_on_c, 0, 76, 91
1, 14398, Note_on_c, 0, 79, 84
1, 14407, Note_on_c, 0, 64, 103
1, 14445, Note_off_c, 0, 72, 67
1, 14459, Note_off_c, 0, 84, 70
1, 14460, Note_off_c, 0, 64, 70
1, 14469, Note_off_c, 0, 79, 65
1, 14481, Note_off_c, 0, 76, 66
1, 15058, Control_c, 0, 64, 84
1, 15077, Control_c, 0, 64, 39
1, 15079, Control_c, 0, 67, 8
1, 15096, Control_c, 0, 64, 0
1, 15114, Control_c, 0, 67, 17
1, 15133, Control_c, 0, 67, 26
1, 15152, Control_c, 0, 67, 39
1, 15170, Control_c, 0, 67, 52
1, 15188, Control_c, 0, 67, 63
1, 15208, Control_c, 0, 67, 70
1, 15227, Control_c, 0, 67, 77
1, 15245, Control_c, 0, 67, 83
1, 15264, Control_c, 0, 67, 89
1, 15282, Control_c, 0, 67, 96
1, 15302, Control_c, 0, 67, 102
1, 15319, Control_c, 0, 67, 109
1, 15339, Control_c, 0, 67, 116
1, 15376, Control_c, 0, 67, 121
1, 15415, Control_c, 0, 67, 127
1, 15731, Control_c, 0, 64, 24
1, 15750, Control_c, 0, 64, 37
1, 15768, Control_c, 0, 64, 46
1, 15788, Control_c, 0, 64, 55
1, 15806, Control_c, 0, 64, 61
1, 15826, Control_c, 0, 64, 66
1, 15843, Control_c, 0, 64, 69
1, 15863, Control_c, 0, 64, 72
1, 15880, Note_on_c, 0, 63, 43
1, 15880, Control_c, 0, 64, 75
1, 15899, Control_c, 0, 64, 78
1, 15900, Note_on_c, 0, 60, 33
1, 15915, Note_on_c, 0, 55, 26
1, 15917, Control_c, 0, 64, 82
1, 15926, Note_on_c, 0, 36, 28
1, 15938, Control_c, 0, 64, 87
1, 15942, Note_on_c, 0, 43, 23
1, 15956, Control_c, 0, 64, 92
1, 15974, Control_c, 0, 64, 97
1, 15994, Control_c, 0, 64, 101
1, 16006, Note_off_c, 0, 36, 55
1, 16015, Note_off_c, 0, 43, 44
1, 16031, Control_c, 0, 64, 107
1, 16068, Control_c, 0, 64, 114
1, 16124, Control_c, 0, 64, 118
1, 16143, Note_on_c, 0, 43, 25
1, 16156, Note_on_c, 0, 36, 34
1, 16199, Control_c, 0, 64, 122
1, 16205, Note_off_c, 0, 43, 50
1, 16209, Note_off_c, 0, 36, 49
1, 16292, Note_off_c, 0, 60, 36
1, 16313, Note_off_c, 0, 55, 38
1, 16313, Poly_aftertouch_c, 0, 55, 0
1, 16345, Note_on_c, 0, 36, 44
1, 16383, Note_off_c, 0, 63, 37
1, 16388, Note_off_c, 0, 36, 53
1, 16404, Poly_aftertouch_c, 0, 43, 127
1, 16448, Poly_aftertouch_c, 0, 43, 0
1, 16548, Note_on_c, 0, 62, 47
1, 16550, Note_on_c, 0, 36, 38
1, 16558, Note_on_c, 0, 43, 37
1, 16561, Note_on_c, 0, 53, 41
1, 16594, Note_on_c, 0, 60, 36
1, 16631, Note_off_c, 0, 53, 56
1, 16642, Note_off_c, 0, 60, 50
1, 16725, Note_off_c, 0, 62, 38
1, 16725, Poly_aftertouch_c, 0, 62, 0
1, 16841, Note_on_c, 0, 60, 46
1, 16847, Note_on_c, 0, 51, 52
1, 16958, Note_off_c, 0, 60, 51
1, 16962, Note_off_c, 0, 51, 55
1, 16979, Note_off_c, 0, 43, 34
1, 16983, Note_off_c, 0, 36, 30
1, 17169, Note_on_c, 0, 62, 50
1, 17173, Note_on_c, 0, 60, 42
1, 17182, Note_on_c, 0, 53, 43
1, 17201, Note_on_c, 0, 36, 37
1, 17207, Control_c, 0, 64, 116
1, 17220, Note_on_c, 0, 43, 34
1, 17226, Control_c, 0, 64, 107
1, 17246, Control_c, 0, 64, 93
1, 17264, Control_c, 0, 64, 79
1, 17284, Control_c, 0, 64, 69
1, 17288, Note_off_c, 0, 36, 55
1, 17289, Note_off_c, 0, 43, 56
1, 17321, Control_c, 0, 64, 75
1, 17340, Control_c, 0, 64, 81
1, 17359, Control_c, 0, 64, 89
1, 17377, Control_c, 0, 64, 97
1, 17378, Control_c, 0, 67, 122
1, 17395, Control_c, 0, 64, 106
1, 17399, Note_on_c, 0, 36, 43
1, 17399, Note_on_c, 0, 43, 48
1, 17415, Control_c, 0, 64, 114
1, 17433, Control_c, 0, 64, 121
1, 17452, Control_c, 0, 64, 126
1, 17454, Note_off_c, 0, 43, 57
1, 17456, Note_off_c, 0, 36, 58
1, 17469, Control_c, 0, 67, 118
1, 17499, Note_off_c, 0, 53, 57
1, 17527, Note_off_c, 0, 60, 57
1, 17567, Note_off_c, 0, 62, 59
1, 17567, Poly_aftertouch_c, 0, 62, 0
1, 17589, Note_on_c, 0, 43, 42
1, 17594, Note_on_c, 0, 36, 47
1, 17640, Note_off_c, 0, 43, 50
1, 17653, Note_off_c, 0, 36, 57
1, 17816, Note_on_c, 0, 65, 54
1, 17837, Note_on_c, 0, 60, 37
1, 17854, Note_on_c, 0, 56, 39
1, 17863, Note_on_c, 0, 36, 27
1, 17872, Note_on_c, 0, 43, 34
1, 17939, Control_c, 0, 64, 116
1, 17956, Control_c, 0, 64, 107
1, 17976, Control_c, 0, 64, 93
1, 17994, Control_c, 0, 64, 76
1, 18012, Control_c, 0, 64, 60
1, 18032, Control_c, 0, 64, 55
1, 18050, Control_c, 0, 64, 59
1, 18069, Control_c, 0, 64, 69
1, 18087, Control_c, 0, 64, 80
1, 18088, Control_c, 0, 67, 113
1, 18106, Control_c, 0, 64, 92
1, 18125, Control_c, 0, 64, 109
1, 18143, Control_c, 0, 64, 127
1, 18181, Control_c, 0, 67, 109
1, 18199, Note_off_c, 0, 60, 32
1, 18235, Note_off_c, 0, 43, 50
1, 18236, Control_c, 0, 67, 105
1, 18238, Note_off_c, 0, 65, 56
1, 18246, Note_off_c, 0, 56, 48
1, 18271, Note_off_c, 0, 36, 39
1, 18273, Control_c, 0, 67, 100
1, 18330, Control_c, 0, 67, 95
1, 18369, Control_c, 0, 67, 91
1, 18423, Control_c, 0, 67, 86
1, 18430, Note_on_c, 0, 63, 54
1, 18453, Note_on_c, 0, 55, 38
1, 18455, Note_on_c, 0, 36, 40
1, 18457, Note_on_c, 0, 60, 42
1, 18460, Note_on_c, 0, 43, 35
1, 18480, Control_c, 0, 67, 81
1, 18518, Control_c, 0, 67, 77
1, 18534, Note_off_c, 0, 36, 53
1, 18537, Note_off_c, 0, 43, 55
1, 18544, Note_off_c, 0, 55, 50
1, 18544, Poly_aftertouch_c, 0, 55, 0
1, 18561, Note_off_c, 0, 60, 44
1, 18575, Control_c, 0, 67, 73
1, 18606, Note_off_c, 0, 63, 54
1, 18630, Control_c, 0, 67, 68
1, 18667, Note_on_c, 0, 43, 44
1, 18672, Note_on_c, 0, 36, 38
1, 18686, Control_c, 0, 67, 64
1, 18737, Note_off_c, 0, 43, 57
1, 18744, Note_off_c, 0, 36, 55
1, 18746, Note_on_c, 0, 62, 52
1, 18751, Note_on_c, 0, 53, 54
1, 18761, Control_c, 0, 67, 59
1, 18776, Note_on_c, 0, 60, 44
1, 18820, Note_off_c, 0, 60, 59
1, 18826, Note_off_c, 0, 53, 47
1, 18874, Note_on_c, 0, 43, 41
1, 18886, Note_on_c, 0, 36, 38
1, 18889, Control_c, 0, 67, 55
1, 18898, Note_off_c, 0, 62, 57
1, 18898, Poly_aftertouch_c, 0, 62, 0
1, 18921, Note_off_c, 0, 43, 51
1, 18936, Note_off_c, 0, 36, 54
1, 18948, Control_c, 0, 67, 51
1, 19022, Control_c, 0, 67, 47
1, 19078, Control_c, 0, 67, 43
1, 19095, Note_on_c, 0, 63, 50
1, 19117, Note_on_c, 0, 60, 35
1, 19124, Note_on_c, 0, 55, 41
1, 19125, Note_on_c, 0, 36, 32
1, 19134, Control_c, 0, 67, 38
1, 19138, Note_on_c, 0, 43, 36
1, 19172, Control_c, 0, 64, 122
1, 19191, Control_c, 0, 64, 118
1, 19209, Control_c, 0, 64, 113
1, 19228, Control_c, 0, 64, 105
1, 19247, Control_c, 0, 64, 92
1, 19249, Control_c, 0, 67, 33
1, 19265, Control_c, 0, 64, 72
1, 19284, Control_c, 0, 64, 52
1, 19303, Control_c, 0, 64, 34
1, 19304, Control_c, 0, 67, 28
1, 19340, Control_c, 0, 64, 46
1, 19341, Control_c, 0, 67, 19
1, 19360, Control_c, 0, 64, 66
1, 19361, Control_c, 0, 67, 12
1, 19378, Control_c, 0, 64, 86
1, 19397, Control_c, 0, 64, 111
1, 19415, Control_c, 0, 64, 127
1, 19422, Note_off_c, 0, 55, 52
1, 19422, Poly_aftertouch_c, 0, 55, 0
1, 19471, Control_c, 0, 67, 0
1, 19472, Note_off_c, 0, 60, 51
1, 19491, Note_off_c, 0, 43, 55
1, 19506, Note_off_c, 0, 63, 54
1, 19512, Note_off_c, 0, 36, 48
1, 19679, Note_on_c, 0, 67, 54
1, 19708, Note_on_c, 0, 36, 43
1, 19714, Note_on_c, 0, 58, 40
1, 19714, Note_on_c, 0, 43, 32
1, 19717, Note_on_c, 0, 60, 29
1, 19774, Note_off_c, 0, 36, 55
1, 19776, Note_off_c, 0, 43, 54
1, 19811, Note_off_c, 0, 58, 57
1, 19876, Note_off_c, 0, 67, 49
1, 19878, Note_off_c, 0, 60, 37
1, 19919, Note_on_c, 0, 43, 40
1, 19922, Note_on_c, 0, 36, 42
1, 19975, Note_on_c, 0, 65, 63
1, 19980, Note_off_c, 0, 43, 52
1, 19987, Note_on_c, 0, 60, 37
1, 19993, Note_on_c, 0, 56, 56
1, 19995, Note_off_c, 0, 36, 52
1, 20040, Note_off_c, 0, 56, 58
1, 20058, Note_off_c, 0, 60, 54
1, 20129, Note_on_c, 0, 43, 36
1, 20136, Note_on_c, 0, 36, 36
1, 20155, Note_off_c, 0, 65, 58
1, 20175, Note_off_c, 0, 43, 52
1, 20190, Note_off_c, 0, 36, 53
1, 20346, Note_on_c, 0, 68, 60
1, 20387, Note_on_c, 0, 60, 49
1, 20388, Control_c, 0, 64, 123
1, 20393, Note_on_c, 0, 36, 26
1, 20405, Control_c, 0, 64, 119
1, 20411, Note_on_c, 0, 43, 31
1, 20425, Control_c, 0, 64, 113
1, 20443, Control_c, 0, 64, 105
1, 20463, Control_c, 0, 64, 94
1, 20480, Control_c, 0, 64, 80
1, 20500, Control_c, 0, 64, 63
1, 20518, Control_c, 0, 64, 44
1, 20536, Control_c, 0, 64, 21
1, 20575, Control_c, 0, 64, 33
1, 20594, Control_c, 0, 64, 51
1, 20612, Control_c, 0, 64, 68
1, 20614, Control_c, 0, 67, 8
1, 20631, Control_c, 0, 64, 80
1, 20649, Control_c, 0, 64, 92
1, 20668, Control_c, 0, 64, 108
1, 20669, Control_c, 0, 67, 12
1, 20687, Control_c, 0, 64, 125
1, 20709, Note_off_c, 0, 60, 53
1, 20720, Note_off_c, 0, 43, 48
1, 20725, Control_c, 0, 67, 18
1, 20742, Control_c, 0, 67, 22
1, 20756, Note_off_c, 0, 68, 57
1, 20760, Control_c, 0, 67, 26
1, 20767, Note_off_c, 0, 36, 36
1, 20799, Control_c, 0, 67, 33
1, 20956, Note_on_c, 0, 67, 52
1, 20974, Note_on_c, 0, 36, 37
1, 20977, Note_on_c, 0, 60, 37
1, 20982, Note_on_c, 0, 43, 42
1, 20986, Control_c, 0, 64, 108
1, 20987, Control_c, 0, 67, 39
1, 20996, Note_on_c, 0, 58, 38
1, 21004, Control_c, 0, 64, 89
1, 21004, Control_c, 0, 67, 44
1, 21023, Control_c, 0, 64, 78
1, 21026, Control_c, 0, 67, 49
1, 21042, Control_c, 0, 64, 80
1, 21044, Control_c, 0, 67, 55
1, 21050, Note_off_c, 0, 43, 57
1, 21061, Control_c, 0, 64, 90
1, 21062, Note_off_c, 0, 36, 56
1, 21063, Note_off_c, 0, 58, 52
1, 21063, Control_c, 0, 67, 60
1, 21079, Control_c, 0, 64, 106
1, 21080, Control_c, 0, 67, 65
1, 21098, Control_c, 0, 64, 126
1, 21099, Control_c, 0, 67, 69
1, 21113, Note_off_c, 0, 60, 37
1, 21117, Control_c, 0, 67, 73
1, 21154, Control_c, 0, 67, 79
1, 21181, Note_on_c, 0, 43, 46
1, 21187, Note_on_c, 0, 36, 39
1, 21194, Note_off_c, 0, 67, 46
1, 21234, Note_off_c, 0, 43, 57
1, 21254, Note_on_c, 0, 65, 59
1, 21256, Note_off_c, 0, 36, 55
1, 21265, Note_on_c, 0, 56, 53
1, 21267, Note_on_c, 0, 60, 40
1, 21284, Control_c, 0, 67, 83
1, 21341, Note_off_c, 0, 60, 50
1, 21341, Control_c, 0, 67, 88
1, 21369, Note_on_c, 0, 43, 44
1, 21377, Note_off_c, 0, 65, 57
1, 21378, Control_c, 0, 67, 93
1, 21391, Note_on_c, 0, 36, 42
1, 21398, Note_off_c, 0, 56, 47
1, 21425, Note_off_c, 0, 43, 56
1, 21437, Note_off_c, 0, 36, 56
1, 21583, Note_on_c, 0, 63, 57
1, 21598, Note_on_c, 0, 55, 47
1, 21600, Control_c, 0, 64, 110
1, 21613, Note_on_c, 0, 36, 32
1, 21618, Note_on_c, 0, 60, 49
1, 21622, Note_on_c, 0, 43, 38
1, 21622, Control_c, 0, 64, 90
1, 21640, Control_c, 0, 64, 72
1, 21660, Control_c, 0, 64, 63
1, 21677, Control_c, 0, 64, 64
1, 21696, Control_c, 0, 64, 70
1, 21716, Control_c, 0, 64, 77
1, 21718, Note_off_c, 0, 55, 44
1, 21718, Poly_aftertouch_c, 0, 55, 0
1, 21734, Control_c, 0, 64, 87
1, 21753, Control_c, 0, 64, 101
1, 21754, Control_c, 0, 67, 97
1, 21771, Control_c, 0, 64, 117
1, 21789, Note_off_c, 0, 63, 61
1, 21789, Control_c, 0, 64, 127
1, 21790, Control_c, 0, 67, 102
1, 21866, Control_c, 0, 67, 106
1, 21878, Note_on_c, 0, 62, 63
1, 21904, Control_c, 0, 67, 110
1, 21907, Note_on_c, 0, 53, 53
1, 21945, Note_off_c, 0, 60, 53
1, 21977, Control_c, 0, 67, 114
1, 21983, Note_off_c, 0, 53, 56
1, 21983, Note_off_c, 0, 43, 37
1, 22000, Note_off_c, 0, 36, 32
1, 22070, Control_c, 0, 67, 118
1, 22107, Control_c, 0, 64, 121
1, 22145, Control_c, 0, 64, 115
1, 22183, Note_off_c, 0, 62, 37
1, 22183, Poly_aftertouch_c, 0, 62, 0
1, 22183, Control_c, 0, 64, 108
1, 22208, Note_on_c, 0, 60, 60
1, 22220, Control_c, 0, 64, 100
1, 22229, Note_on_c, 0, 51, 52
1, 22236, Note_on_c, 0, 43, 42
1, 22238, Note_on_c, 0, 36, 35
1, 22239, Control_c, 0, 64, 93
1, 22241, Control_c, 0, 67, 122
1, 22258, Control_c, 0, 64, 84
1, 22277, Control_c, 0, 64, 71
1, 22294, Control_c, 0, 64, 59
1, 22304, Note_off_c, 0, 43, 56
1, 22310, Note_off_c, 0, 36, 57
1, 22313, Control_c, 0, 64, 53
1, 22350, Control_c, 0, 64, 58
1, 22370, Control_c, 0, 64, 62
1, 22388, Control_c, 0, 64, 67
1, 22407, Control_c, 0, 64, 72
1, 22421, Note_on_c, 0, 36, 47
1, 22423, Note_on_c, 0, 43, 49
1, 22425, Control_c, 0, 64, 79
1, 22444, Control_c, 0, 64, 87
1, 22463, Control_c, 0, 64, 94
1, 22474, Note_off_c, 0, 43, 60
1, 22480, Note_off_c, 0, 36, 57
1, 22481, Control_c, 0, 64, 101
1, 22500, Control_c, 0, 64, 105
1, 22592, Note_on_c, 0, 43, 51
1, 22606, Note_on_c, 0, 36, 48
1, 22637, Note_off_c, 0, 43, 59
1, 22660, Note_off_c, 0, 36, 56
1, 22725, Control_c, 0, 64, 99
1, 22744, Control_c, 0, 64, 93
1, 22762, Control_c, 0, 64, 83
1, 22782, Control_c, 0, 64, 71
1, 22799, Control_c, 0, 64, 59
1, 22809, Note_on_c, 0, 43, 38
1, 22812, Note_on_c, 0, 36, 47
1, 22818, Control_c, 0, 64, 49
1, 22837, Control_c, 0, 64, 41
1, 22874, Control_c, 0, 64, 46
1, 22893, Control_c, 0, 64, 53
1, 22909, Note_off_c, 0, 51, 58
1, 22910, Control_c, 0, 64, 61
1, 22930, Control_c, 0, 64, 69
1, 22949, Control_c, 0, 64, 75
1, 22967, Control_c, 0, 64, 81
1, 22987, Control_c, 0, 64, 87
1, 23005, Control_c, 0, 64, 94
1, 23023, Control_c, 0, 64, 102
1, 23038, Note_off_c, 0, 36, 51
1, 23042, Control_c, 0, 64, 110
1, 23061, Control_c, 0, 64, 116
1, 23097, Note_on_c, 0, 62, 48
1, 23105, Note_on_c, 0, 50, 46
1, 23125, Note_off_c, 0, 43, 34
1, 23184, Note_off_c, 0, 60, 40
1, 23195, Note_off_c, 0, 50, 48
1, 23255, Note_off_c, 0, 62, 39
1, 23255, Poly_aftertouch_c, 0, 62, 0
1, 23344, Control_c, 0, 64, 112
1, 23380, Control_c, 0, 64, 107
1, 23417, Control_c, 0, 64, 102
1, 23435, Control_c, 0, 64, 97
1, 23442, Note_on_c, 0, 62, 44
1, 23453, Control_c, 0, 64, 92
1, 23458, Note_on_c, 0, 43, 48
1, 23464, Note_on_c, 0, 55, 37
1, 23465, Note_on_c, 0, 59, 43
1, 23465, Note_on_c, 0, 50, 39
1, 23468, Note_on_c, 0, 31, 46
1, 23472, Control_c, 0, 64, 86
1, 23491, Control_c, 0, 64, 79
1, 23510, Control_c, 0, 64, 72
1, 23518, Note_off_c, 0, 43, 58
1, 23525, Note_off_c, 0, 31, 59
1, 23527, Control_c, 0, 64, 66
1, 23548, Control_c, 0, 64, 63
1, 23566, Control_c, 0, 64, 60
1, 23585, Control_c, 0, 64, 56
1, 23604, Control_c, 0, 64, 52
1, 23622, Control_c, 0, 64, 48
1, 23642, Control_c, 0, 64, 43
1, 23646, Note_on_c, 0, 43, 48
1, 23659, Control_c, 0, 64, 39
1, 23664, Note_on_c, 0, 31, 49
1, 23678, Control_c, 0, 64, 34
1, 23697, Note_off_c, 0, 43, 58
1, 23714, Note_off_c, 0, 31, 61
1, 23771, Control_c, 0, 64, 30
1, 23827, Note_on_c, 0, 43, 48
1, 23848, Note_on_c, 0, 31, 47
1, 23889, Note_off_c, 0, 43, 55
1, 23897, Note_off_c, 0, 31, 59
1, 24075, Note_on_c, 0, 31, 33
1, 24080, Note_on_c, 0, 43, 39
1, 24089, Control_c, 0, 67, 118
1, 24277, Control_c, 0, 64, 36
1, 24313, Control_c, 0, 64, 42
1, 24333, Control_c, 0, 64, 45
1, 24351, Control_c, 0, 64, 47
1, 24461, Note_off_c, 0, 43, 57
1, 24482, Note_off_c, 0, 31, 42
1, 24631, Control_c, 0, 64, 45
1, 24725, Control_c, 0, 64, 43
1, 24748, Note_on_c, 0, 31, 35
1, 24758, Note_on_c, 0, 38, 36
1, 24819, Note_off_c, 0, 38, 58
1, 24836, Note_off_c, 0, 31, 56
1, 24836, Control_c, 0, 64, 46
1, 24856, Control_c, 0, 64, 49
1, 24875, Control_c, 0, 64, 54
1, 24895, Control_c, 0, 64, 60
1, 24895, Control_c, 0, 67, 113
1, 24912, Control_c, 0, 64, 66
1, 24931, Control_c, 0, 64, 70
1, 24947, Note_on_c, 0, 31, 34
1, 24948, Control_c, 0, 64, 74
1, 24963, Note_on_c, 0, 38, 41
1, 24969, Control_c, 0, 64, 78
1, 24970, Control_c, 0, 67, 109
1, 24987, Control_c, 0, 64, 82
1, 24997, Note_off_c, 0, 50, 53
1, 25006, Control_c, 0, 64, 87
1, 25009, Note_off_c, 0, 38, 58
1, 25013, Note_off_c, 0, 31, 57
1, 25025, Control_c, 0, 64, 94
1, 25026, Control_c, 0, 67, 104
1, 25031, Note_off_c, 0, 55, 60
1, 25031, Poly_aftertouch_c, 0, 55, 0
1, 25045, Control_c, 0, 64, 102
1, 25054, Note_off_c, 0, 59, 59
1, 25054, Poly_aftertouch_c, 0, 59, 0
1, 25062, Control_c, 0, 64, 108
1, 25081, Control_c, 0, 64, 113
1, 25083, Control_c, 0, 67, 98
1, 25086, Note_off_c, 0, 62, 62
1, 25086, Poly_aftertouch_c, 0, 62, 0
1, 25099, Control_c, 0, 64, 117
1, 25100, Control_c, 0, 67, 93
1, 25118, Control_c, 0, 64, 122
1, 25119, Control_c, 0, 67, 89
1, 25137, Control_c, 0, 64, 127
1, 25149, Note_on_c, 0, 38, 45
1, 25150, Note_on_c, 0, 31, 46
1, 25156, Control_c, 0, 67, 83
1, 25194, Control_c, 0, 67, 76
1, 25208, Note_off_c, 0, 38, 58
1, 25224, Note_off_c, 0, 31, 54
1, 25230, Control_c, 0, 67, 72
1, 25268, Control_c, 0, 67, 66
1, 25286, Control_c, 0, 67, 62
1, 25305, Control_c, 0, 67, 57
1, 25324, Control_c, 0, 67, 52
1, 25342, Control_c, 0, 67, 47
1, 25362, Control_c, 0, 67, 42
1, 25379, Control_c, 0, 67, 37
1, 25399, Control_c, 0, 67, 33
1, 25417, Control_c, 0, 67, 28
1, 25436, Control_c, 0, 67, 24
1, 25445, Note_on_c, 0, 74, 61
1, 25455, Control_c, 0, 67, 20
1, 25473, Control_c, 0, 67, 16
1, 25480, Note_on_c, 0, 70, 38
1, 25507, Note_on_c, 0, 31, 24
1, 25509, Control_c, 0, 67, 9
1, 25526, Note_on_c, 0, 38, 22
1, 25527, Note_on_c, 0, 62, 14
1, 25698, Control_c, 0, 67, 0
1, 25792, Note_off_c, 0, 70, 33
1, 25797, Note_off_c, 0, 62, 38
1, 25797, Poly_aftertouch_c, 0, 62, 0
1, 25897, Note_off_c, 0, 38, 36
1, 25931, Note_off_c, 0, 31, 31
1, 26096, Note_on_c, 0, 69, 44
1, 26119, Note_on_c, 0, 60, 33
1, 26130, Note_on_c, 0, 31, 37
1, 26138, Note_on_c, 0, 38, 24
1, 26209, Note_off_c, 0, 38, 55
1, 26210, Note_off_c, 0, 60, 42
1, 26222, Note_off_c, 0, 31, 50
1, 26272, Note_off_c, 0, 74, 37
1, 26328, Note_on_c, 0, 31, 28
1, 26347, Note_on_c, 0, 38, 38
1, 26407, Note_off_c, 0, 69, 33
1, 26411, Note_off_c, 0, 38, 56
1, 26430, Note_on_c, 0, 58, 47
1, 26431, Note_on_c, 0, 67, 49
1, 26460, Note_off_c, 0, 31, 38
1, 26536, Note_off_c, 0, 58, 59
1, 26558, Note_on_c, 0, 31, 31
1, 26567, Note_on_c, 0, 38, 42
1, 26619, Note_off_c, 0, 38, 56
1, 26620, Note_off_c, 0, 31, 55
1, 26795, Note_on_c, 0, 74, 62
1, 26805, Note_on_c, 0, 69, 47
1, 26821, Note_off_c, 0, 67, 34
1, 26824, Note_on_c, 0, 60, 38
1, 26843, Note_on_c, 0, 31, 34
1, 26871, Note_on_c, 0, 38, 26
1, 26932, Control_c, 0, 64, 123
1, 26951, Control_c, 0, 64, 103
1, 26970, Control_c, 0, 64, 82
1, 26988, Control_c, 0, 64, 63
1, 27007, Control_c, 0, 64, 60
1, 27025, Control_c, 0, 64, 70
1, 27044, Control_c, 0, 64, 84
1, 27062, Control_c, 0, 64, 103
1, 27081, Control_c, 0, 64, 127
1, 27099, Note_off_c, 0, 69, 59
1, 27122, Note_off_c, 0, 60, 35
1, 27236, Note_off_c, 0, 38, 40
1, 27247, Note_off_c, 0, 31, 40
1, 27392, Note_on_c, 0, 72, 59
1, 27422, Note_on_c, 0, 31, 46
1, 27428, Note_on_c, 0, 38, 37
1, 27431, Note_on_c, 0, 63, 36
1, 27496, Note_off_c, 0, 38, 55
1, 27502, Note_off_c, 0, 31, 54
1, 27622, Note_on_c, 0, 31, 42
1, 27632, Note_on_c, 0, 38, 46
1, 27679, Note_off_c, 0, 31, 59
1, 27684, Note_off_c, 0, 38, 60
1, 27810, Note_on_c, 0, 38, 54
1, 27820, Note_on_c, 0, 31, 48
1, 27832, Note_off_c, 0, 72, 55
1, 27836, Note_off_c, 0, 63, 58
1, 27862, Note_off_c, 0, 38, 58
1, 27873, Note_off_c, 0, 31, 59
1, 27877, Note_off_c, 0, 74, 53
1, 28018, Note_on_c, 0, 74, 71
1, 28036, Note_on_c, 0, 70, 55
1, 28044, Note_on_c, 0, 31, 43
1, 28046, Note_on_c, 0, 38, 37
1, 28069, Note_on_c, 0, 62, 46
1, 28091, Control_c, 0, 64, 123
1, 28111, Control_c, 0, 64, 99
1, 28128, Control_c, 0, 64, 80
1, 28132, Note_off_c, 0, 70, 54
1, 28148, Control_c, 0, 64, 71
1, 28150, Note_off_c, 0, 62, 54
1, 28150, Poly_aftertouch_c, 0, 62, 0
1, 28167, Control_c, 0, 64, 73
1, 28185, Control_c, 0, 64, 81
1, 28204, Control_c, 0, 64, 93
1, 28222, Control_c, 0, 64, 111
1, 28241, Control_c, 0, 64, 127
1, 28323, Note_on_c, 0, 69, 59
1, 28339, Note_on_c, 0, 60, 52
1, 28419, Note_off_c, 0, 60, 54
1, 28434, Note_off_c, 0, 69, 60
1, 28443, Note_off_c, 0, 38, 49
1, 28492, Note_off_c, 0, 31, 34
1, 28656, Note_on_c, 0, 70, 65
1, 28681, Note_on_c, 0, 62, 49
1, 28692, Note_on_c, 0, 31, 45
1, 28698, Note_on_c, 0, 38, 30
1, 28746, Control_c, 0, 64, 105
1, 28764, Control_c, 0, 64, 83
1, 28771, Note_off_c, 0, 38, 57
1, 28773, Note_off_c, 0, 31, 56
1, 28784, Control_c, 0, 64, 69
1, 28821, Control_c, 0, 64, 81
1, 28839, Control_c, 0, 64, 100
1, 28858, Control_c, 0, 64, 127
1, 28879, Note_on_c, 0, 31, 48
1, 28897, Note_on_c, 0, 38, 50
1, 28945, Note_off_c, 0, 38, 61
1, 28951, Note_off_c, 0, 31, 55
1, 29036, Note_off_c, 0, 62, 37
1, 29036, Poly_aftertouch_c, 0, 62, 0
1, 29060, Note_on_c, 0, 38, 60
1, 29063, Note_off_c, 0, 74, 48
1, 29067, Note_on_c, 0, 31, 46
1, 29091, Note_off_c, 0, 70, 53
1, 29107, Note_off_c, 0, 38, 60
1, 29119, Note_off_c, 0, 31, 60
1, 29268, Note_on_c, 0, 74, 76
1, 29289, Note_on_c, 0, 65, 59
1, 29304, Note_on_c, 0, 31, 39
1, 29313, Note_on_c, 0, 38, 40
1, 29343, Control_c, 0, 64, 99
1, 29363, Control_c, 0, 64, 78
1, 29383, Control_c, 0, 64, 75
1, 29399, Control_c, 0, 64, 82
1, 29419, Control_c, 0, 64, 95
1, 29435, Note_off_c, 0, 65, 61
1, 29437, Control_c, 0, 64, 120
1, 29456, Control_c, 0, 64, 127
1, 29563, Note_off_c, 0, 74, 61
1, 29574, Note_on_c, 0, 72, 80
1, 29593, Note_on_c, 0, 63, 70
1, 29658, Note_off_c, 0, 63, 48
1, 29716, Note_off_c, 0, 72, 60
1, 29744, Note_off_c, 0, 38, 50
1, 29750, Note_off_c, 0, 31, 37
1, 29958, Note_on_c, 0, 77, 80
1, 29991, Note_on_c, 0, 72, 58
1, 30010, Note_on_c, 0, 68, 43
1, 30016, Note_on_c, 0, 38, 33
1, 30020, Note_on_c, 0, 31, 43
1, 30073, Control_c, 0, 64, 109
1, 30085, Note_off_c, 0, 38, 55
1, 30088, Note_off_c, 0, 31, 54
1, 30090, Control_c, 0, 64, 84
1, 30111, Control_c, 0, 64, 61
1, 30129, Control_c, 0, 64, 49
1, 30166, Control_c, 0, 64, 67
1, 30187, Control_c, 0, 64, 88
1, 30203, Control_c, 0, 64, 120
1, 30211, Note_on_c, 0, 31, 47
1, 30223, Note_on_c, 0, 38, 46
1, 30223, Control_c, 0, 64, 127
1, 30274, Note_off_c, 0, 31, 58
1, 30274, Note_off_c, 0, 38, 60
1, 30355, Note_off_c, 0, 77, 59
1, 30355, Poly_aftertouch_c, 0, 77, 0
1, 30362, Note_off_c, 0, 68, 37
1, 30403, Note_off_c, 0, 72, 58
1, 30405, Note_on_c, 0, 38, 48
1, 30424, Note_on_c, 0, 31, 47
1, 30469, Note_off_c, 0, 38, 54
1, 30478, Note_off_c, 0, 31, 59
1, 30629, Note_on_c, 0, 75, 64
1, 30667, Note_on_c, 0, 31, 32
1, 30669, Note_on_c, 0, 72, 38
1, 30675, Note_on_c, 0, 38, 33
1, 30684, Note_on_c, 0, 67, 33
1, 30708, Control_c, 0, 64, 102
1, 30728, Control_c, 0, 64, 80
1, 30746, Control_c, 0, 64, 67
1, 30784, Control_c, 0, 64, 73
1, 30791, Note_off_c, 0, 67, 51
1, 30803, Control_c, 0, 64, 81
1, 30821, Control_c, 0, 64, 92
1, 30831, Note_off_c, 0, 72, 35
1, 30839, Control_c, 0, 64, 111
1, 30858, Control_c, 0, 64, 127
1, 30934, Control_c, 0, 67, 8
1, 30971, Note_on_c, 0, 74, 66
1, 31003, Note_on_c, 0, 72, 45
1, 31004, Note_on_c, 0, 65, 54
1, 31008, Control_c, 0, 67, 13
1, 31045, Control_c, 0, 67, 19
1, 31052, Note_off_c, 0, 72, 60
1, 31057, Note_off_c, 0, 75, 31
1, 31064, Control_c, 0, 67, 25
1, 31074, Note_off_c, 0, 74, 62
1, 31081, Control_c, 0, 67, 32
1, 31088, Note_off_c, 0, 65, 53
1, 31101, Control_c, 0, 67, 40
1, 31121, Control_c, 0, 67, 48
1, 31140, Control_c, 0, 67, 56
1, 31142, Note_off_c, 0, 31, 34
1, 31158, Control_c, 0, 67, 62
1, 31165, Note_off_c, 0, 38, 31
1, 31176, Control_c, 0, 67, 67
1, 31195, Control_c, 0, 67, 72
1, 31214, Control_c, 0, 67, 78
1, 31232, Control_c, 0, 67, 84
1, 31252, Control_c, 0, 67, 90
1, 31270, Control_c, 0, 67, 95
1, 31307, Control_c, 0, 67, 100
1, 31346, Control_c, 0, 67, 105
1, 31359, Note_on_c, 0, 72, 59
1, 31362, Control_c, 0, 67, 109
1, 31383, Control_c, 0, 64, 122
1, 31384, Control_c, 0, 67, 114
1, 31396, Note_on_c, 0, 63, 48
1, 31402, Control_c, 0, 64, 98
1, 31420, Control_c, 0, 64, 76
1, 31423, Control_c, 0, 67, 118
1, 31438, Note_on_c, 0, 38, 20
1, 31438, Control_c, 0, 64, 64
1, 31445, Note_on_c, 0, 31, 30
1, 31457, Control_c, 0, 64, 66
1, 31458, Control_c, 0, 67, 123
1, 31476, Control_c, 0, 64, 75
1, 31494, Control_c, 0, 64, 85
1, 31513, Control_c, 0, 64, 100
1, 31521, Note_off_c, 0, 38, 54
1, 31524, Note_off_c, 0, 31, 53
1, 31532, Control_c, 0, 64, 119
1, 31534, Note_off_c, 0, 63, 55
1, 31550, Control_c, 0, 64, 127
1, 31653, Note_off_c, 0, 72, 34
1, 31693, Note_on_c, 0, 38, 35
1, 31696, Note_on_c, 0, 31, 34
1, 31699, Control_c, 0, 64, 114
1, 31718, Control_c, 0, 64, 96
1, 31737, Control_c, 0, 64, 88
1, 31742, Note_on_c, 0, 74, 58
1, 31746, Note_off_c, 0, 38, 50
1, 31748, Note_off_c, 0, 31, 51
1, 31755, Control_c, 0, 64, 92
1, 31766, Note_on_c, 0, 65, 42
1, 31773, Control_c, 0, 64, 101
1, 31793, Control_c, 0, 64, 111
1, 31812, Control_c, 0, 64, 124
1, 31909, Note_on_c, 0, 38, 37
1, 31915, Note_on_c, 0, 31, 40
1, 31916, Note_off_c, 0, 74, 53
1, 31944, Note_off_c, 0, 65, 34
1, 31975, Note_off_c, 0, 38, 53
1, 31979, Note_off_c, 0, 31, 54
1, 32261, Control_c, 0, 64, 118
1, 32268, Note_on_c, 0, 71, 49
1, 32287, Note_on_c, 0, 65, 35
1, 32297, Control_c, 0, 64, 113
1, 32306, Note_on_c, 0, 62, 22
1, 32335, Control_c, 0, 64, 104
1, 32342, Note_on_c, 0, 31, 22
1, 32344, Note_on_c, 0, 38, 18
1, 32354, Control_c, 0, 64, 98
1, 32373, Control_c, 0, 64, 91
1, 32392, Control_c, 0, 64, 84
1, 32412, Control_c, 0, 64, 77
1, 32430, Control_c, 0, 64, 69
1, 32447, Control_c, 0, 64, 60
1, 32467, Control_c, 0, 64, 46
1, 32485, Control_c, 0, 64, 23
1, 32503, Control_c, 0, 64, 0
1, 32579, Control_c, 0, 64, 18
1, 32597, Control_c, 0, 64, 30
1, 32617, Control_c, 0, 64, 42
1, 32634, Control_c, 0, 64, 54
1, 32654, Control_c, 0, 64, 66
1, 32672, Control_c, 0, 64, 72
1, 32690, Control_c, 0, 64, 75
1, 32709, Control_c, 0, 64, 78
1, 32728, Control_c, 0, 64, 82
1, 32748, Control_c, 0, 64, 86
1, 32765, Control_c, 0, 64, 92
1, 32785, Control_c, 0, 64, 97
1, 32804, Control_c, 0, 64, 101
1, 32811, Note_off_c, 0, 38, 34
1, 32833, Note_off_c, 0, 31, 29
1, 33252, Control_c, 0, 64, 97
1, 33346, Control_c, 0, 64, 93
1, 33417, Note_on_c, 0, 24, 34
1, 33421, Control_c, 0, 64, 88
1, 33438, Control_c, 0, 64, 84
1, 33458, Control_c, 0, 64, 78
1, 33477, Control_c, 0, 64, 70
1, 33494, Control_c, 0, 64, 64
1, 33509, Poly_aftertouch_c, 0, 36, 127
1, 33513, Control_c, 0, 64, 62
1, 33533, Control_c, 0, 64, 66
1, 33552, Control_c, 0, 64, 71
1, 33567, Poly_aftertouch_c, 0, 36, 0
1, 33569, Control_c, 0, 64, 75
1, 33588, Control_c, 0, 64, 80
1, 33592, Note_off_c, 0, 65, 43
1, 33608, Control_c, 0, 64, 86
1, 33626, Control_c, 0, 64, 93
1, 33644, Control_c, 0, 64, 99
1, 33655, Note_off_c, 0, 24, 39
1, 33663, Control_c, 0, 64, 104
1, 33669, Note_off_c, 0, 62, 42
1, 33669, Poly_aftertouch_c, 0, 62, 0
1, 33701, Control_c, 0, 64, 108
1, 33822, Note_off_c, 0, 71, 38
1, 33847, Note_on_c, 0, 24, 35
1, 33886, Note_on_c, 0, 36, 22
1, 33956, Note_off_c, 0, 36, 45
1, 33977, Note_off_c, 0, 24, 35
1, 33984, Note_on_c, 0, 72, 44
1, 34005, Note_on_c, 0, 64, 34
1, 34026, Note_on_c, 0, 60, 24
1, 34174, Note_on_c, 0, 24, 41
1, 34199, Note_off_c, 0, 64, 27
1, 34201, Note_on_c, 0, 36, 23
1, 34229, Note_off_c, 0, 60, 26
1, 34267, Note_off_c, 0, 72, 30
1, 34290, Note_off_c, 0, 36, 42
1, 34299, Control_c, 0, 64, 104
1, 34306, Note_off_c, 0, 24, 35
1, 34654, Control_c, 0, 64, 100
1, 34713, Note_on_c, 0, 72, 34
1, 34717, Note_on_c, 0, 64, 30
1, 34736, Note_on_c, 0, 60, 23
1, 34765, Note_on_c, 0, 24, 24
1, 34767, Control_c, 0, 64, 96
1, 34799, Note_on_c, 0, 36, 7
1, 34841, Control_c, 0, 64, 90
1, 34860, Control_c, 0, 64, 87
1, 34879, Control_c, 0, 64, 84
1, 34898, Control_c, 0, 64, 81
1, 34916, Control_c, 0, 64, 79
1, 34935, Control_c, 0, 64, 76
1, 34955, Control_c, 0, 64, 73
1, 34972, Control_c, 0, 64, 69
1, 34991, Control_c, 0, 64, 63
1, 35011, Control_c, 0, 64, 59
1, 35029, Control_c, 0, 64, 55
1, 35046, Control_c, 0, 64, 51
1, 35066, Control_c, 0, 64, 44
1, 35084, Control_c, 0, 64, 35
1, 35103, Control_c, 0, 64, 21
1, 35121, Control_c, 0, 64, 8
1, 35159, Control_c, 0, 64, 0
1, 35327, Control_c, 0, 64, 16
1, 35346, Control_c, 0, 64, 23
1, 35366, Control_c, 0, 64, 31
1, 35384, Control_c, 0, 64, 38
1, 35403, Control_c, 0, 64, 45
1, 35421, Control_c, 0, 64, 52
1, 35439, Control_c, 0, 64, 59
1, 35458, Control_c, 0, 64, 65
1, 35477, Control_c, 0, 64, 69
1, 35497, Control_c, 0, 64, 71
1, 35498, Control_c, 0, 67, 119
1, 35534, Control_c, 0, 64, 74
1, 35552, Control_c, 0, 64, 78
1, 35571, Control_c, 0, 64, 81
1, 35589, Control_c, 0, 64, 86
1, 35608, Control_c, 0, 64, 90
1, 35627, Control_c, 0, 64, 95
1, 35645, Control_c, 0, 64, 101
1, 35663, Control_c, 0, 64, 107
1, 35683, Control_c, 0, 64, 111
1, 35703, Control_c, 0, 64, 115
1, 35738, Control_c, 0, 64, 122
1, 35776, Control_c, 0, 64, 127
1, 35795, Control_c, 0, 67, 114
1, 35907, Control_c, 0, 67, 110
1, 36057, Control_c, 0, 67, 106
1, 36076, Note_off_c, 0, 72, 37
1, 36129, Note_off_c, 0, 64, 41
1, 36132, Note_off_c, 0, 60, 36
1, 36138, Note_off_c, 0, 24, 33
1, 36170, Control_c, 0, 67, 102
1, 36212, Note_off_c, 0, 36, 33
1, 36356, Control_c, 0, 67, 97
1, 36411, Control_c, 0, 67, 93
1, 36450, Control_c, 0, 67, 88
1, 36524, Control_c, 0, 67, 84
1, 36618, Control_c, 0, 67, 79
1, 36655, Control_c, 0, 67, 75
1, 36694, Control_c, 0, 67, 70
1, 36729, Control_c, 0, 67, 61
1, 36750, Control_c, 0, 64, 123
1, 36751, Control_c, 0, 67, 55
1, 36768, Control_c, 0, 64, 102
1, 36769, Control_c, 0, 67, 47
1, 36786, Control_c, 0, 64, 75
1, 36789, Control_c, 0, 67, 37
1, 36805, Control_c, 0, 64, 45
1, 36807, Control_c, 0, 67, 25
1, 36823, Control_c, 0, 64, 0
1, 36824, Control_c, 0, 67, 11
1, 36898, Control_c, 0, 67, 0
1, 37100, Note_on_c, 0, 60, 70
1, 37105, Note_on_c, 0, 36, 68
1, 37109, Note_on_c, 0, 48, 62
1, 37141, Note_off_c, 0, 60, 64
1, 37143, Note_off_c, 0, 36, 64
1, 37148, Note_off_c, 0, 48, 65
1, 37218, Note_on_c, 0, 58, 80
1, 37221, Note_on_c, 0, 34, 88
1, 37280, Note_off_c, 0, 34, 60
1, 37288, Note_off_c, 0, 58, 64
1, 37340, Note_on_c, 0, 56, 84
1, 37353, Note_on_c, 0, 32, 88
1, 37401, Note_off_c, 0, 32, 58
1, 37412, Note_off_c, 0, 56, 64
1, 37472, Note_on_c, 0, 60, 83
1, 37474, Note_on_c, 0, 36, 87
1, 37474, Note_on_c, 0, 48, 82
1, 37522, Note_off_c, 0, 36, 62
1, 37529, Note_off_c, 0, 60, 62
1, 37534, Note_off_c, 0, 48, 61
1, 37596, Note_on_c, 0, 55, 82
1, 37596, Note_on_c, 0, 31, 90
1, 37655, Note_off_c, 0, 31, 61
1, 37695, Note_off_c, 0, 55, 60
1, 37695, Poly_aftertouch_c, 0, 55, 0
1, 37706, Note_on_c, 0, 36, 84
1, 37714, Note_on_c, 0, 48, 89
1, 37715, Note_on_c, 0, 60, 86
1, 37744, Note_off_c, 0, 36, 68
1, 37783, Note_off_c, 0, 48, 64
1, 37786, Note_off_c, 0, 60, 65
1, 37882, Note_on_c, 0, 53, 98
1, 37891, Note_on_c, 0, 41, 98
1, 37898, Note_on_c, 0, 29, 91
1, 37907, Control_c, 0, 64, 23
1, 37926, Control_c, 0, 64, 81
1, 37930, Note_off_c, 0, 29, 69
1, 37933, Note_off_c, 0, 41, 67
1, 37945, Note_on_c, 0, 28, 23
1, 37945, Control_c, 0, 64, 124
1, 37971, Note_off_c, 0, 53, 60
1, 38006, Note_off_c, 0, 28, 48
1, 38019, Poly_aftertouch_c, 0, 40, 0
1, 38107, Poly_aftertouch_c, 0, 29, 0
1, 38408, Note_on_c, 0, 65, 94
1, 38412, Control_c, 0, 64, 114
1, 38417, Note_on_c, 0, 56, 83
1, 38420, Note_on_c, 0, 60, 80
1, 38429, Note_on_c, 0, 59, 74
1, 38431, Control_c, 0, 64, 71
1, 38469, Control_c, 0, 64, 97
1, 38488, Control_c, 0, 64, 127
1, 38547, Note_off_c, 0, 59, 53
1, 38547, Poly_aftertouch_c, 0, 59, 0
1, 38613, Note_off_c, 0, 65, 59
1, 38649, Note_off_c, 0, 60, 59
1, 38686, Note_off_c, 0, 56, 58
1, 38781, Note_on_c, 0, 55, 71
1, 38837, Note_on_c, 0, 53, 87
1, 38862, Note_off_c, 0, 55, 60
1, 38862, Poly_aftertouch_c, 0, 55, 0
1, 38900, Control_c, 0, 64, 102
1, 38918, Control_c, 0, 64, 64
1, 38926, Note_off_c, 0, 53, 47
1, 38937, Control_c, 0, 64, 73
1, 38939, Note_on_c, 0, 70, 98
1, 38939, Note_on_c, 0, 82, 88
1, 38944, Note_on_c, 0, 67, 99
1, 38944, Note_on_c, 0, 61, 97
1, 38944, Note_on_c, 0, 79, 86
1, 38961, Control_c, 0, 64, 107
1, 38974, Control_c, 0, 64, 127
1, 39047, Note_off_c, 0, 67, 60
1, 39061, Note_off_c, 0, 70, 62
1, 39070, Note_off_c, 0, 79, 52
1, 39093, Note_off_c, 0, 61, 62
1, 39116, Note_off_c, 0, 82, 57
1, 39197, Note_on_c, 0, 84, 82
1, 39267, Note_on_c, 0, 73, 102
1, 39270, Note_on_c, 0, 85, 93
1, 39289, Note_off_c, 0, 84, 66
1, 39300, Note_off_c, 0, 85, 64
1, 39308, Note_off_c, 0, 73, 68
1, 39331, Poly_aftertouch_c, 0, 72, 0
1, 39554, Control_c, 0, 64, 84
1, 39569, Note_on_c, 0, 52, 110
1, 39573, Control_c, 0, 64, 41
1, 39577, Note_on_c, 0, 24, 87
1, 39578, Note_on_c, 0, 38, 83
1, 39578, Note_on_c, 0, 36, 86
1, 39580, Note_on_c, 0, 26, 77
1, 39597, Control_c, 0, 64, 50
1, 39609, Control_c, 0, 64, 73
1, 39623, Note_off_c, 0, 24, 63
1, 39623, Note_off_c, 0, 38, 62
1, 39628, Control_c, 0, 64, 94
1, 39635, Note_off_c, 0, 36, 62
1, 39635, Note_off_c, 0, 26, 64
1, 39647, Control_c, 0, 64, 127
1, 39666, Note_off_c, 0, 52, 57
1, 39688, Poly_aftertouch_c, 0, 28, 0
1, 40111, Note_on_c, 0, 67, 101
1, 40113, Control_c, 0, 64, 108
1, 40114, Note_on_c, 0, 61, 96
1, 40134, Control_c, 0, 64, 56
1, 40152, Control_c, 0, 64, 50
1, 40163, Note_on_c, 0, 63, 41
1, 40164, Note_off_c, 0, 63, 127
1, 40169, Control_c, 0, 64, 81
1, 40190, Control_c, 0, 64, 123
1, 40207, Control_c, 0, 64, 127
1, 40209, Poly_aftertouch_c, 0, 63, 0
1, 40242, Note_off_c, 0, 67, 59
1, 40270, Poly_aftertouch_c, 0, 60, 0
1, 40334, Note_off_c, 0, 61, 51
1, 40492, Note_on_c, 0, 60, 74
1, 40553, Note_on_c, 0, 58, 85
1, 40563, Note_off_c, 0, 60, 64
1, 40619, Control_c, 0, 64, 106
1, 40634, Note_on_c, 0, 84, 97
1, 40637, Note_on_c, 0, 78, 95
1, 40637, Control_c, 0, 64, 72
1, 40638, Note_on_c, 0, 72, 97
1, 40641, Note_on_c, 0, 69, 99
1, 40647, Note_on_c, 0, 66, 92
1, 40656, Control_c, 0, 64, 83
1, 40675, Control_c, 0, 64, 126
1, 40683, Note_off_c, 0, 58, 65
1, 40703, Note_off_c, 0, 72, 61
1, 40742, Note_off_c, 0, 84, 64
1, 40757, Note_off_c, 0, 78, 66
1, 40794, Note_off_c, 0, 69, 56
1, 40848, Note_off_c, 0, 66, 59
1, 40888, Note_on_c, 0, 85, 85
1, 40889, Note_on_c, 0, 73, 89
1, 40912, Note_off_c, 0, 85, 73
1, 40912, Note_off_c, 0, 73, 75
1, 40961, Note_on_c, 0, 75, 103
1, 40963, Note_on_c, 0, 87, 104
1, 40998, Note_off_c, 0, 75, 66
1, 40999, Note_off_c, 0, 87, 63
1, 41237, Control_c, 0, 64, 120
1, 41254, Control_c, 0, 64, 65
1, 41259, Note_on_c, 0, 51, 104
1, 41266, Note_on_c, 0, 39, 105
1, 41272, Note_on_c, 0, 27, 100
1, 41274, Control_c, 0, 64, 30
1, 41284, Note_on_c, 0, 52, 68
1, 41285, Note_off_c, 0, 52, 127
1, 41289, Note_on_c, 0, 30, 73
1, 41290, Control_c, 0, 64, 65
1, 41303, Note_off_c, 0, 51, 68
1, 41311, Control_c, 0, 64, 99
1, 41322, Note_off_c, 0, 30, 58
1, 41330, Control_c, 0, 64, 127
1, 41331, Note_off_c, 0, 39, 62
1, 41334, Note_off_c, 0, 27, 62
1, 41824, Note_on_c, 0, 72, 101
1, 41825, Note_on_c, 0, 69, 93
1, 41826, Note_on_c, 0, 66, 91
1, 41835, Control_c, 0, 64, 105
1, 41854, Control_c, 0, 64, 67
1, 41872, Control_c, 0, 64, 74
1, 41891, Control_c, 0, 64, 106
1, 41909, Control_c, 0, 64, 127
1, 41973, Note_off_c, 0, 72, 57
1, 42071, Note_off_c, 0, 69, 43
1, 42153, Note_off_c, 0, 66, 53
1, 42234, Note_on_c, 0, 65, 79
1, 42304, Note_on_c, 0, 64, 85
1, 42321, Note_off_c, 0, 65, 61
1, 42321, Control_c, 0, 64, 112
1, 42340, Control_c, 0, 64, 94
1, 42352, Note_on_c, 0, 89, 97
1, 42356, Note_on_c, 0, 77, 102
1, 42358, Control_c, 0, 64, 115
1, 42360, Note_on_c, 0, 82, 88
1, 42377, Note_on_c, 0, 75, 101
1, 42379, Control_c, 0, 64, 127
1, 42383, Note_on_c, 0, 70, 88
1, 42392, Note_on_c, 0, 87, 67
1, 42394, Note_on_c, 0, 66, 60
1, 42401, Note_off_c, 0, 64, 56
1, 42416, Note_off_c, 0, 66, 68
1, 42430, Note_off_c, 0, 87, 60
1, 42455, Note_off_c, 0, 77, 60
1, 42455, Poly_aftertouch_c, 0, 77, 0
1, 42458, Note_off_c, 0, 82, 62
1, 42481, Note_off_c, 0, 75, 62
1, 42523, Note_off_c, 0, 70, 63
1, 42566, Note_off_c, 0, 89, 57
1, 42618, Note_on_c, 0, 81, 88
1, 42620, Note_on_c, 0, 93, 90
1, 42647, Note_off_c, 0, 81, 65
1, 42696, Note_on_c, 0, 82, 103
1, 42700, Note_on_c, 0, 94, 98
1, 42726, Note_off_c, 0, 93, 66
1, 42739, Note_off_c, 0, 94, 69
1, 42743, Note_off_c, 0, 82, 66
1, 42956, Poly_aftertouch_c, 0, 27, 0
1, 42969, Poly_aftertouch_c, 0, 37, 0
1, 43030, Control_c, 0, 64, 92
1, 43044, Note_on_c, 0, 50, 109
1, 43047, Note_on_c, 0, 38, 99
1, 43049, Note_on_c, 0, 26, 90
1, 43051, Control_c, 0, 64, 11
1, 43069, Control_c, 0, 64, 21
1, 43088, Control_c, 0, 64, 62
1, 43105, Note_off_c, 0, 50, 65
1, 43105, Control_c, 0, 64, 86
1, 43109, Note_off_c, 0, 26, 65
1, 43122, Note_off_c, 0, 38, 64
1, 43124, Control_c, 0, 64, 121
1, 43143, Control_c, 0, 64, 127
1, 43184, Poly_aftertouch_c, 0, 29, 127
1, 43201, Poly_aftertouch_c, 0, 28, 0
1, 43205, Poly_aftertouch_c, 0, 29, 0
1, 43515, Note_on_c, 0, 65, 74
1, 43556, Note_on_c, 0, 70, 70
1, 43603, Note_on_c, 0, 74, 72
1, 43630, Poly_aftertouch_c, 0, 90, 0
1, 43672, Note_on_c, 0, 77, 93
1, 43688, Note_on_c, 0, 94, 101
1, 43693, Note_on_c, 0, 82, 101
1, 43700, Note_on_c, 0, 89, 87
1, 43798, Note_off_c, 0, 82, 62
1, 43854, Note_off_c, 0, 89, 60
1, 43894, Note_off_c, 0, 94, 65
1, 43907, Note_off_c, 0, 77, 57
1, 43907, Poly_aftertouch_c, 0, 77, 0
1, 43930, Note_off_c, 0, 65, 53
1, 44002, Note_off_c, 0, 74, 58
1, 44053, Note_off_c, 0, 70, 57
1, 44093, Note_on_c, 0, 98, 91
1, 44093, Note_on_c, 0, 86, 85
1, 44136, Note_off_c, 0, 86, 61
1, 44202, Note_on_c, 0, 89, 101
1, 44202, Note_on_c, 0, 101, 106
1, 44244, Note_off_c, 0, 98, 64
1, 44258, Note_on_c, 0, 97, 25
1, 44259, Note_off_c, 0, 97, 127
1, 44404, Note_off_c, 0, 101, 64
1, 44442, Note_off_c, 0, 89, 58
1, 44514, Note_on_c, 0, 49, 99
1, 44520, Note_on_c, 0, 37, 98
1, 44565, Control_c, 0, 64, 85
1, 44583, Control_c, 0, 64, 11
1, 44601, Control_c, 0, 64, 0
1, 44639, Control_c, 0, 64, 66
1, 44658, Control_c, 0, 64, 116
1, 44677, Control_c, 0, 64, 127
1, 44839, Note_off_c, 0, 49, 55
1, 44921, Note_off_c, 0, 37, 37
1, 45102, Note_on_c, 0, 48, 101
1, 45104, Note_on_c, 0, 36, 88
1, 45107, Control_c, 0, 64, 69
1, 45110, Note_on_c, 0, 68, 97
1, 45112, Note_on_c, 0, 65, 96
1, 45125, Control_c, 0, 64, 0
1, 45144, Control_c, 0, 64, 22
1, 45156, Note_off_c, 0, 48, 68
1, 45162, Note_off_c, 0, 36, 61
1, 45162, Control_c, 0, 64, 61
1, 45182, Control_c, 0, 64, 107
1, 45200, Control_c, 0, 64, 127
1, 45394, Note_off_c, 0, 68, 62
1, 45452, Note_on_c, 0, 72, 78
1, 45463, Note_off_c, 0, 65, 41
1, 45519, Note_on_c, 0, 48, 70
1, 45545, Note_on_c, 0, 77, 85
1, 45552, Note_off_c, 0, 72, 63
1, 45560, Note_on_c, 0, 56, 70
1, 45595, Note_off_c, 0, 77, 63
1, 45595, Poly_aftertouch_c, 0, 77, 0
1, 45618, Note_off_c, 0, 48, 62
1, 45621, Note_on_c, 0, 60, 73
1, 45636, Note_on_c, 0, 52, 6
1, 45700, Note_on_c, 0, 65, 101
1, 45710, Note_on_c, 0, 92, 106
1, 45714, Note_on_c, 0, 80, 111
1, 45719, Note_off_c, 0, 52, 34
1, 45750, Note_off_c, 0, 80, 70
1, 45765, Note_off_c, 0, 92, 64
1, 46022, Note_off_c, 0, 65, 57
1, 46056, Note_off_c, 0, 60, 63
1, 46076, Note_off_c, 0, 56, 58
1, 46086, Note_on_c, 0, 96, 98
1, 46098, Note_on_c, 0, 84, 78
1, 46124, Note_off_c, 0, 84, 67
1, 46129, Note_off_c, 0, 96, 66
1, 46208, Note_on_c, 0, 101, 102
1, 46212, Note_on_c, 0, 89, 98
1, 46233, Note_on_c, 0, 100, 67
1, 46238, Note_on_c, 0, 48, 73
1, 46262, Note_off_c, 0, 100, 42
1, 46300, Note_on_c, 0, 55, 67
1, 46338, Note_off_c, 0, 48, 63
1, 46340, Control_c, 0, 64, 90
1, 46354, Note_off_c, 0, 101, 40
1, 46362, Control_c, 0, 64, 67
1, 46367, Note_on_c, 0, 64, 98
1, 46368, Note_off_c, 0, 89, 58
1, 46372, Note_on_c, 0, 60, 73
1, 46379, Control_c, 0, 64, 93
1, 46397, Control_c, 0, 64, 127
1, 46494, Note_on_c, 0, 96, 89
1, 46496, Note_off_c, 0, 64, 59
1, 46496, Note_on_c, 0, 100, 96
1, 46498, Note_on_c, 0, 91, 56
1, 46501, Note_on_c, 0, 88, 101
1, 46525, Note_on_c, 0, 98, 58
1, 46538, Note_off_c, 0, 91, 67
1, 46546, Control_c, 0, 64, 96
1, 46561, Note_off_c, 0, 60, 61
1, 46566, Control_c, 0, 64, 28
1, 46584, Note_on_c, 0, 53, 45
1, 46601, Note_off_c, 0, 98, 64
1, 46601, Note_on_c, 0, 98, 40
1, 46602, Control_c, 0, 64, 79
1, 46604, Note_on_c, 0, 48, 81
1, 46620, Control_c, 0, 64, 127
1, 46637, Note_off_c, 0, 88, 53
1, 46640, Note_off_c, 0, 100, 63
1, 46642, Note_off_c, 0, 98, 54
1, 46679, Note_off_c, 0, 48, 63
1, 46691, Note_on_c, 0, 62, 106
1, 46693, Note_on_c, 0, 60, 69
1, 46694, Note_off_c, 0, 96, 53
1, 46731, Note_off_c, 0, 60, 59
1, 46738, Note_off_c, 0, 53, 57
1, 46753, Note_on_c, 0, 96, 81
1, 46758, Note_on_c, 0, 98, 97
1, 46760, Note_on_c, 0, 86, 105
1, 46764, Note_on_c, 0, 89, 41
1, 46788, Note_off_c, 0, 62, 62
1, 46788, Poly_aftertouch_c, 0, 62, 0
1, 46803, Poly_aftertouch_c, 0, 60, 0
1, 46837, Note_off_c, 0, 89, 62
1, 46867, Note_off_c, 0, 86, 58
1, 46899, Note_off_c, 0, 98, 62
1, 46915, Note_on_c, 0, 52, 58
1, 46915, Note_on_c, 0, 48, 74
1, 46955, Note_off_c, 0, 55, 64
1, 46955, Note_on_c, 0, 55, 24
1, 46968, Note_off_c, 0, 96, 57
1, 46984, Note_off_c, 0, 48, 64
1, 46995, Control_c, 0, 64, 116
1, 47011, Note_on_c, 0, 60, 75
1, 47013, Control_c, 0, 64, 55
1, 47021, Note_off_c, 0, 52, 62
1, 47033, Control_c, 0, 64, 0
1, 47043, Note_on_c, 0, 100, 105
1, 47044, Note_on_c, 0, 88, 108
1, 47046, Note_on_c, 0, 91, 90
1, 47047, Note_on_c, 0, 64, 105
1, 47048, Note_on_c, 0, 96, 88
1, 47071, Control_c, 0, 64, 77
1, 47081, Note_off_c, 0, 64, 70
1, 47089, Control_c, 0, 64, 127
1, 47107, Note_off_c, 0, 60, 66
1, 47112, Note_off_c, 0, 88, 66
1, 47119, Note_off_c, 0, 100, 70
1, 47134, Note_off_c, 0, 55, 59
1, 47134, Poly_aftertouch_c, 0, 55, 0
1, 47137, Note_off_c, 0, 96, 65
1, 47146, Note_off_c, 0, 91, 65
1, 47167, Poly_aftertouch_c, 0, 54, 0
1, 47445, Control_c, 0, 64, 101
1, 47462, Control_c, 0, 64, 0
1, 47480, Note_on_c, 0, 43, 87
1, 47480, Note_on_c, 0, 48, 99
1, 47483, Note_on_c, 0, 36, 90
1, 47557, Note_off_c, 0, 43, 60
1, 47557, Note_off_c, 0, 36, 63
1, 47564, Note_off_c, 0, 48, 61
1, 47573, Control_c, 0, 64, 81
1, 47595, Control_c, 0, 64, 124
1, 47615, Poly_aftertouch_c, 0, 39, 0
1, 47852, Note_on_c, 0, 84, 98
1, 47855, Note_on_c, 0, 76, 95
1, 47855, Note_on_c, 0, 72, 102
1, 47858, Note_on_c, 0, 79, 87
1, 47865, Note_on_c, 0, 52, 108
1, 47900, Note_off_c, 0, 52, 70
1, 47950, Note_off_c, 0, 79, 63
1, 47964, Note_off_c, 0, 84, 64
1, 47974, Note_off_c, 0, 76, 65
1, 47983, Note_off_c, 0, 72, 58
1, 48585, Control_c, 0, 64, 89
1, 48603, Control_c, 0, 64, 25
1, 48622, Control_c, 0, 64, 0
1, 49406, Note_on_c, 0, 72, 90
1, 49408, Note_on_c, 0, 63, 86
1, 49409, Note_on_c, 0, 60, 90
1, 49411, Note_on_c, 0, 68, 82
1, 49972, Note_on_c, 0, 36, 91
1, 50030, Note_off_c, 0, 36, 61
1, 50216, Note_off_c, 0, 60, 48
1, 50271, Note_on_c, 0, 34, 81
1, 50310, Note_off_c, 0, 72, 54
1, 50317, Note_off_c, 0, 34, 63
1, 50323, Note_off_c, 0, 68, 52
1, 50352, Note_off_c, 0, 63, 47
1, 50395, Note_on_c, 0, 32, 88
1, 50434, Note_off_c, 0, 32, 66
1, 50556, Note_on_c, 0, 58, 97
1, 50557, Note_on_c, 0, 70, 92
1, 50559, Note_on_c, 0, 67, 77
1, 50560, Note_on_c, 0, 63, 84
1, 50561, Note_on_c, 0, 39, 98
1, 50596, Note_off_c, 0, 39, 67
1, 50810, Control_c, 0, 64, 37
1, 50828, Control_c, 0, 64, 72
1, 50848, Control_c, 0, 64, 89
1, 50865, Note_off_c, 0, 58, 60
1, 50867, Control_c, 0, 64, 115
1, 50884, Control_c, 0, 64, 127
1, 50898, Note_off_c, 0, 67, 59
1, 50914, Note_off_c, 0, 70, 62
1, 50916, Note_off_c, 0, 63, 58
1, 51165, Control_c, 0, 64, 120
1, 51180, Note_on_c, 0, 73, 95
1, 51181, Note_on_c, 0, 61, 97
1, 51184, Note_on_c, 0, 65, 88
1, 51184, Control_c, 0, 64, 77
1, 51185, Note_on_c, 0, 68, 83
1, 51202, Control_c, 0, 64, 0
1, 51761, Note_on_c, 0, 41, 88
1, 51808, Note_off_c, 0, 41, 63
1, 52070, Note_on_c, 0, 39, 86
1, 52109, Note_off_c, 0, 39, 67
1, 52197, Note_on_c, 0, 37, 85
1, 52237, Note_off_c, 0, 37, 68
1, 52361, Note_on_c, 0, 49, 102
1, 52402, Note_off_c, 0, 49, 65
1, 52586, Control_c, 0, 64, 38
1, 52606, Control_c, 0, 64, 64
1, 52624, Control_c, 0, 64, 75
1, 52643, Control_c, 0, 64, 85
1, 52661, Control_c, 0, 64, 98
1, 52680, Control_c, 0, 64, 113
1, 52698, Control_c, 0, 64, 127
1, 52735, Note_off_c, 0, 61, 53
1, 52756, Note_off_c, 0, 65, 50
1, 52770, Note_off_c, 0, 73, 54
1, 52775, Note_off_c, 0, 68, 57
1, 52997, Control_c, 0, 64, 109
1, 53002, Note_on_c, 0, 73, 93
1, 53003, Note_on_c, 0, 61, 95
1, 53004, Note_on_c, 0, 70, 86
1, 53004, Note_on_c, 0, 65, 85
1, 53020, Control_c, 0, 64, 62
1, 53035, Control_c, 0, 64, 0
1, 53579, Note_on_c, 0, 37, 83
1, 53617, Note_off_c, 0, 37, 67
1, 53881, Note_on_c, 0, 36, 79
1, 53921, Note_off_c, 0, 36, 68
1, 53942, Note_off_c, 0, 65, 56
1, 53998, Note_on_c, 0, 34, 86
1, 54019, Note_off_c, 0, 61, 49
1, 54036, Note_off_c, 0, 34, 69
1, 54042, Note_off_c, 0, 70, 58
1, 54093, Note_off_c, 0, 73, 59
1, 54164, Note_on_c, 0, 72, 89
1, 54167, Note_on_c, 0, 60, 91
1, 54167, Note_on_c, 0, 68, 82
1, 54168, Note_on_c, 0, 41, 95
1, 54172, Note_on_c, 0, 65, 81
1, 54204, Note_off_c, 0, 41, 67
1, 54419, Control_c, 0, 64, 60
1, 54437, Control_c, 0, 64, 79
1, 54441, Note_off_c, 0, 60, 56
1, 54456, Control_c, 0, 64, 100
1, 54475, Control_c, 0, 64, 127
1, 54483, Note_off_c, 0, 65, 61
1, 54499, Note_off_c, 0, 72, 61
1, 54508, Note_off_c, 0, 68, 62
1, 54538, Poly_aftertouch_c, 0, 70, 0
1, 54779, Note_on_c, 0, 75, 89
1, 54785, Note_on_c, 0, 66, 88
1, 54789, Note_on_c, 0, 63, 87
1, 54789, Note_on_c, 0, 70, 84
1, 54790, Control_c, 0, 64, 120
1, 54811, Control_c, 0, 64, 73
1, 54830, Control_c, 0, 64, 0
1, 55388, Note_on_c, 0, 42, 84
1, 55426, Note_off_c, 0, 42, 67
1, 55698, Note_on_c, 0, 41, 78
1, 55742, Note_off_c, 0, 41, 64
1, 55829, Note_on_c, 0, 39, 83
1, 55871, Note_off_c, 0, 39, 68
1, 55989, Note_on_c, 0, 51, 97
1, 56026, Note_off_c, 0, 51, 65
1, 56061, Note_on_c, 0, 49, 22
1, 56062, Note_off_c, 0, 49, 127
1, 56214, Control_c, 0, 64, 23
1, 56232, Control_c, 0, 64, 40
1, 56251, Control_c, 0, 64, 58
1, 56257, Note_off_c, 0, 63, 61
1, 56269, Control_c, 0, 64, 76
1, 56280, Note_off_c, 0, 66, 61
1, 56288, Note_off_c, 0, 70, 60
1, 56288, Control_c, 0, 64, 92
1, 56308, Control_c, 0, 64, 106
1, 56310, Note_off_c, 0, 75, 61
1, 56326, Control_c, 0, 64, 116
1, 56344, Control_c, 0, 64, 123
1, 56364, Control_c, 0, 64, 127
1, 56550, Control_c, 0, 64, 112
1, 56563, Note_on_c, 0, 75, 82
1, 56569, Control_c, 0, 64, 78
1, 56575, Note_on_c, 0, 66, 73
1, 56576, Note_on_c, 0, 72, 67
1, 56587, Control_c, 0, 64, 51
1, 56589, Note_on_c, 0, 70, 64
1, 56626, Control_c, 0, 64, 69
1, 56644, Control_c, 0, 64, 89
1, 56662, Control_c, 0, 64, 125
1, 56712, Note_off_c, 0, 72, 56
1, 56720, Note_off_c, 0, 66, 36
1, 56721, Note_off_c, 0, 75, 61
1, 56754, Note_off_c, 0, 70, 44
1, 56850, Note_on_c, 0, 73, 90
1, 56850, Control_c, 0, 64, 100
1, 56852, Note_on_c, 0, 65, 81
1, 56861, Note_on_c, 0, 70, 86
1, 56868, Control_c, 0, 64, 57
1, 56885, Note_off_c, 0, 65, 67
1, 56886, Control_c, 0, 64, 60
1, 56906, Control_c, 0, 64, 81
1, 56916, Note_off_c, 0, 70, 55
1, 56924, Control_c, 0, 64, 117
1, 56935, Note_off_c, 0, 73, 63
1, 56943, Control_c, 0, 64, 127
1, 57143, Note_on_c, 0, 78, 97
1, 57145, Note_on_c, 0, 72, 89
1, 57149, Control_c, 0, 64, 91
1, 57152, Note_on_c, 0, 70, 90
1, 57168, Control_c, 0, 64, 13
1, 57186, Control_c, 0, 64, 0
1, 57425, Note_on_c, 0, 30, 74
1, 57469, Note_off_c, 0, 30, 67
1, 57546, Note_on_c, 0, 29, 81
1, 57589, Note_off_c, 0, 29, 64
1, 57686, Note_on_c, 0, 41, 95
1, 57723, Note_off_c, 0, 41, 66
1, 57785, Control_c, 0, 64, 30
1, 57803, Control_c, 0, 64, 55
1, 57812, Note_off_c, 0, 70, 58
1, 57822, Control_c, 0, 64, 67
1, 57841, Control_c, 0, 64, 68
1, 57873, Note_off_c, 0, 72, 52
1, 57875, Note_off_c, 0, 78, 62
1, 57897, Control_c, 0, 64, 65
1, 57918, Control_c, 0, 64, 62
1, 57918, Control_c, 0, 67, 9
1, 57934, Control_c, 0, 64, 59
1, 57952, Control_c, 0, 64, 62
1, 57971, Control_c, 0, 64, 71
1, 57977, Note_on_c, 0, 77, 78
1, 57989, Control_c, 0, 64, 82
1, 57992, Note_on_c, 0, 72, 57
1, 57998, Note_on_c, 0, 68, 63
1, 58009, Control_c, 0, 64, 98
1, 58012, Control_c, 0, 67, 13
1, 58028, Control_c, 0, 64, 121
1, 58048, Control_c, 0, 64, 127
1, 58066, Note_off_c, 0, 72, 58
1, 58079, Note_off_c, 0, 68, 54
1, 58089, Note_off_c, 0, 77, 59
1, 58089, Poly_aftertouch_c, 0, 77, 0
1, 58158, Control_c, 0, 67, 17
1, 58214, Control_c, 0, 64, 111
1, 58215, Control_c, 0, 67, 22
1, 58233, Control_c, 0, 64, 89
1, 58252, Control_c, 0, 64, 79
1, 58255, Note_on_c, 0, 75, 76
1, 58272, Control_c, 0, 64, 83
1, 58275, Note_on_c, 0, 66, 61
1, 58275, Note_on_c, 0, 70, 64
1, 58291, Control_c, 0, 64, 92
1, 58308, Control_c, 0, 64, 104
1, 58327, Control_c, 0, 64, 126
1, 58370, Note_off_c, 0, 70, 60
1, 58389, Note_off_c, 0, 75, 59
1, 58413, Note_off_c, 0, 66, 37
1, 58494, Control_c, 0, 64, 117
1, 58514, Control_c, 0, 64, 86
1, 58531, Note_on_c, 0, 73, 67
1, 58532, Control_c, 0, 64, 65
1, 58538, Note_on_c, 0, 65, 60
1, 58541, Note_on_c, 0, 68, 60
1, 58549, Control_c, 0, 64, 68
1, 58569, Control_c, 0, 64, 78
1, 58589, Control_c, 0, 64, 93
1, 58597, Note_off_c, 0, 65, 62
1, 58601, Note_off_c, 0, 68, 60
1, 58604, Note_off_c, 0, 73, 62
1, 58607, Control_c, 0, 64, 122
1, 58626, Control_c, 0, 64, 127
1, 58813, Control_c, 0, 64, 120
1, 58826, Note_on_c, 0, 70, 66
1, 58831, Control_c, 0, 64, 85
1, 58841, Note_on_c, 0, 64, 47
1, 58842, Note_on_c, 0, 67, 46
1, 58848, Note_on_c, 0, 61, 52
1, 58850, Control_c, 0, 64, 49
1, 58869, Control_c, 0, 64, 0
1, 59129, Note_on_c, 0, 31, 75
1, 59170, Note_off_c, 0, 31, 66
1, 59249, Note_on_c, 0, 29, 84
1, 59285, Note_off_c, 0, 29, 66
1, 59388, Note_on_c, 0, 41, 89
1, 59423, Note_off_c, 0, 41, 70
1, 59496, Note_off_c, 0, 70, 60
1, 59557, Note_off_c, 0, 61, 60
1, 59671, Note_on_c, 0, 72, 56
1, 59685, Note_on_c, 0, 60, 51
1, 59692, Control_c, 0, 64, 21
1, 59710, Control_c, 0, 64, 42
1, 59730, Control_c, 0, 64, 65
1, 59747, Control_c, 0, 64, 83
1, 59767, Control_c, 0, 64, 100
1, 59786, Control_c, 0, 64, 119
1, 59793, Note_off_c, 0, 67, 59
1, 59800, Note_off_c, 0, 64, 58
1, 59802, Note_off_c, 0, 60, 56
1, 59804, Control_c, 0, 64, 127
1, 59842, Note_off_c, 0, 72, 56
1, 60009, Control_c, 0, 64, 120
1, 60014, Note_on_c, 0, 72, 60
1, 60027, Note_on_c, 0, 65, 56
1, 60027, Note_on_c, 0, 60, 51
1, 60028, Note_on_c, 0, 69, 54
1, 60028, Control_c, 0, 64, 98
1, 60047, Control_c, 0, 64, 72
1, 60066, Control_c, 0, 64, 47
1, 60084, Control_c, 0, 64, 12
1, 60102, Control_c, 0, 64, 0
1, 60636, Note_on_c, 0, 33, 75
1, 60674, Note_off_c, 0, 33, 63
1, 60851, Control_c, 0, 67, 27
1, 60907, Control_c, 0, 67, 31
1, 60964, Control_c, 0, 67, 35
1, 61019, Control_c, 0, 67, 39
1, 61093, Control_c, 0, 67, 44
1, 61132, Control_c, 0, 67, 48
1, 61169, Control_c, 0, 67, 54
1, 61207, Control_c, 0, 67, 61
1, 61219, Note_on_c, 0, 31, 57
1, 61225, Control_c, 0, 67, 66
1, 61243, Control_c, 0, 67, 71
1, 61261, Note_off_c, 0, 31, 63
1, 61261, Control_c, 0, 67, 78
1, 61281, Control_c, 0, 67, 85
1, 61300, Control_c, 0, 67, 93
1, 61318, Control_c, 0, 67, 100
1, 61337, Control_c, 0, 67, 105
1, 61355, Control_c, 0, 67, 110
1, 61375, Control_c, 0, 67, 114
1, 61412, Control_c, 0, 67, 119
1, 61468, Control_c, 0, 67, 123
1, 61504, Note_on_c, 0, 29, 57
1, 61504, Control_c, 0, 67, 127
1, 61545, Note_off_c, 0, 29, 60
1, 61833, Note_on_c, 0, 41, 61
1, 61881, Note_off_c, 0, 41, 64
1, 62423, Control_c, 0, 64, 25
1, 62440, Control_c, 0, 64, 43
1, 62459, Control_c, 0, 64, 61
1, 62480, Control_c, 0, 64, 77
1, 62496, Control_c, 0, 64, 89
1, 62515, Control_c, 0, 64, 103
1, 62516, Control_c, 0, 67, 123
1, 62536, Control_c, 0, 64, 118
1, 62553, Control_c, 0, 64, 127
1, 62590, Note_off_c, 0, 60, 60
1, 62591, Note_off_c, 0, 69, 51
1, 62597, Note_off_c, 0, 65, 60
1, 62603, Note_off_c, 0, 72, 57
1, 62966, Control_c, 0, 67, 118
1, 63039, Control_c, 0, 64, 121
1, 63057, Control_c, 0, 64, 97
1, 63078, Control_c, 0, 64, 68
1, 63081, Control_c, 0, 67, 123
1, 63095, Control_c, 0, 64, 31
1, 63115, Control_c, 0, 64, 0
1, 63117, Control_c, 0, 67, 127
1, 63686, Note_on_c, 0, 62, 42
1, 63696, Note_on_c, 0, 50, 25
1, 63700, Note_on_c, 0, 58, 39
1, 63711, Note_on_c, 0, 53, 28
1, 64254, Note_on_c, 0, 38, 49
1, 64291, Note_off_c, 0, 38, 58
1, 64462, Poly_aftertouch_c, 0, 53, 24
1, 64507, Note_off_c, 0, 53, 40
1, 64507, Poly_aftertouch_c, 0, 53, 0
1, 64535, Note_off_c, 0, 50, 44
1, 64552, Note_on_c, 0, 36, 40
1, 64600, Note_off_c, 0, 36, 45
1, 64644, Note_on_c, 0, 34, 57
1, 64683, Note_off_c, 0, 34, 63
1, 64808, Note_on_c, 0, 60, 54
1, 64818, Note_off_c, 0, 58, 53
1, 64833, Note_on_c, 0, 53, 40
1, 64834, Note_on_c, 0, 57, 42
1, 64925, Note_off_c, 0, 62, 42
1, 64925, Poly_aftertouch_c, 0, 62, 0
1, 65012, Note_off_c, 0, 57, 62
1, 65040, Control_c, 0, 64, 18
1, 65057, Control_c, 0, 64, 52
1, 65065, Note_on_c, 0, 41, 55
1, 65077, Control_c, 0, 64, 75
1, 65081, Note_off_c, 0, 53, 59
1, 65081, Poly_aftertouch_c, 0, 53, 0
1, 65096, Control_c, 0, 64, 90
1, 65104, Note_off_c, 0, 41, 63
1, 65114, Control_c, 0, 64, 108
1, 65132, Control_c, 0, 64, 127
1, 65141, Note_off_c, 0, 60, 57
1, 65392, Note_on_c, 0, 63, 51
1, 65402, Note_on_c, 0, 51, 46
1, 65410, Note_on_c, 0, 58, 43
1, 65411, Control_c, 0, 67, 123
1, 65415, Note_on_c, 0, 55, 40
1, 65469, Control_c, 0, 64, 115
1, 65489, Control_c, 0, 64, 99
1, 65507, Control_c, 0, 64, 81
1, 65526, Control_c, 0, 64, 63
1, 65544, Control_c, 0, 64, 46
1, 65563, Control_c, 0, 64, 23
1, 65582, Control_c, 0, 64, 0
1, 65619, Control_c, 0, 67, 119
1, 65933, Note_on_c, 0, 67, 61
1, 65976, Note_off_c, 0, 67, 60
1, 66005, Note_off_c, 0, 63, 56
1, 66205, Note_on_c, 0, 65, 56
1, 66257, Note_off_c, 0, 65, 62
1, 66318, Note_on_c, 0, 63, 61
1, 66356, Note_off_c, 0, 63, 65
1, 66483, Note_on_c, 0, 59, 54
1, 66538, Note_off_c, 0, 58, 35
1, 66741, Control_c, 0, 64, 27
1, 66763, Control_c, 0, 64, 52
1, 66764, Note_on_c, 0, 75, 64
1, 66778, Control_c, 0, 64, 70
1, 66797, Control_c, 0, 64, 85
1, 66804, Note_off_c, 0, 75, 65
1, 66811, Note_off_c, 0, 59, 58
1, 66811, Poly_aftertouch_c, 0, 59, 0
1, 66816, Control_c, 0, 64, 101
1, 66834, Control_c, 0, 64, 119
1, 66840, Note_off_c, 0, 55, 60
1, 66840, Poly_aftertouch_c, 0, 55, 0
1, 66854, Control_c, 0, 64, 127
1, 66869, Note_off_c, 0, 51, 53
1, 67088, Note_on_c, 0, 63, 67
1, 67097, Note_on_c, 0, 60, 59
1, 67115, Note_on_c, 0, 51, 47
1, 67115, Control_c, 0, 64, 119
1, 67121, Note_on_c, 0, 55, 44
1, 67134, Control_c, 0, 64, 92
1, 67152, Control_c, 0, 64, 60
1, 67172, Control_c, 0, 64, 0
1, 67172, Control_c, 0, 67, 124
1, 67644, Note_on_c, 0, 39, 64
1, 67682, Note_off_c, 0, 39, 61
1, 67888, Note_off_c, 0, 55, 48
1, 67888, Poly_aftertouch_c, 0, 55, 0
1, 67923, Note_off_c, 0, 51, 53
1, 67944, Note_on_c, 0, 38, 59
1, 67998, Note_off_c, 0, 38, 55
1, 68057, Note_on_c, 0, 36, 54
1, 68094, Note_off_c, 0, 36, 56
1, 68206, Note_off_c, 0, 63, 57
1, 68209, Note_off_c, 0, 60, 46
1, 68210, Note_on_c, 0, 62, 55
1, 68229, Note_on_c, 0, 58, 48
1, 68237, Note_on_c, 0, 55, 36
1, 68462, Control_c, 0, 64, 11
1, 68479, Note_on_c, 0, 43, 55
1, 68479, Control_c, 0, 64, 42
1, 68498, Control_c, 0, 64, 69
1, 68519, Control_c, 0, 64, 88
1, 68521, Note_off_c, 0, 43, 63
1, 68529, Note_off_c, 0, 55, 60
1, 68529, Poly_aftertouch_c, 0, 55, 0
1, 68536, Control_c, 0, 64, 110
1, 68537, Note_off_c, 0, 58, 47
1, 68554, Control_c, 0, 64, 127
1, 68560, Note_off_c, 0, 62, 56
1, 68560, Poly_aftertouch_c, 0, 62, 0
1, 68807, Note_on_c, 0, 65, 54
1, 68811, Note_on_c, 0, 53, 48
1, 68816, Note_on_c, 0, 60, 50
1, 68827, Note_on_c, 0, 58, 47
1, 68873, Control_c, 0, 64, 118
1, 68891, Control_c, 0, 64, 103
1, 68892, Control_c, 0, 67, 120
1, 68910, Control_c, 0, 64, 86
1, 68930, Control_c, 0, 64, 65
1, 68947, Control_c, 0, 64, 43
1, 68966, Control_c, 0, 64, 0
1, 69348, Note_on_c, 0, 70, 66
1, 69387, Note_off_c, 0, 70, 64
1, 69424, Note_off_c, 0, 65, 57
1, 69633, Note_on_c, 0, 67, 63
1, 69686, Note_off_c, 0, 67, 54
1, 69696, Note_off_c, 0, 58, 60
1, 69764, Note_on_c, 0, 65, 45
1, 69802, Note_off_c, 0, 65, 54
1, 69902, Note_on_c, 0, 56, 56
1, 70163, Control_c, 0, 64, 14
1, 70182, Control_c, 0, 64, 40
1, 70183, Note_on_c, 0, 77, 60
1, 70200, Control_c, 0, 64, 63
1, 70209, Note_off_c, 0, 77, 63
1, 70209, Poly_aftertouch_c, 0, 77, 0
1, 70218, Control_c, 0, 64, 82
1, 70219, Control_c, 0, 67, 115
1, 70230, Note_off_c, 0, 56, 61
1, 70237, Control_c, 0, 64, 98
1, 70253, Note_off_c, 0, 60, 63
1, 70258, Control_c, 0, 64, 113
1, 70276, Control_c, 0, 64, 124
1, 70277, Control_c, 0, 67, 110
1, 70290, Note_off_c, 0, 53, 58
1, 70290, Poly_aftertouch_c, 0, 53, 0
1, 70462, Control_c, 0, 64, 110
1, 70469, Note_on_c, 0, 65, 54
1, 70481, Control_c, 0, 64, 96
1, 70499, Control_c, 0, 67, 104
1, 70505, Note_on_c, 0, 60, 46
1, 70520, Note_on_c, 0, 44, 52
1, 70539, Control_c, 0, 64, 104
1, 70540, Control_c, 0, 67, 97
1, 70555, Control_c, 0, 64, 116
1, 70556, Control_c, 0, 67, 93
1, 70574, Control_c, 0, 64, 127
1, 70576, Control_c, 0, 67, 87
1, 70592, Control_c, 0, 67, 81
1, 70612, Control_c, 0, 67, 75
1, 70629, Control_c, 0, 67, 70
1, 70633, Note_off_c, 0, 65, 56
1, 70645, Note_off_c, 0, 60, 56
1, 70649, Note_off_c, 0, 44, 49
1, 70668, Control_c, 0, 67, 62
1, 70686, Control_c, 0, 67, 58
1, 70744, Control_c, 0, 67, 54
1, 70757, Note_on_c, 0, 63, 73
1, 70763, Control_c, 0, 64, 97
1, 70776, Note_on_c, 0, 43, 60
1, 70782, Control_c, 0, 64, 69
1, 70797, Note_on_c, 0, 58, 50
1, 70798, Control_c, 0, 64, 63
1, 70818, Control_c, 0, 64, 71
1, 70836, Control_c, 0, 64, 83
1, 70849, Note_off_c, 0, 43, 61
1, 70853, Control_c, 0, 64, 97
1, 70855, Note_off_c, 0, 58, 60
1, 70874, Control_c, 0, 64, 116
1, 70891, Control_c, 0, 64, 127
1, 70937, Note_off_c, 0, 63, 58
1, 71117, Note_on_c, 0, 68, 63
1, 71140, Note_on_c, 0, 61, 49
1, 71155, Note_on_c, 0, 29, 50
1, 71167, Note_on_c, 0, 56, 41
1, 71186, Note_on_c, 0, 41, 21
1, 71228, Control_c, 0, 64, 123
1, 71247, Control_c, 0, 64, 100
1, 71266, Control_c, 0, 64, 73
1, 71285, Control_c, 0, 64, 47
1, 71304, Control_c, 0, 64, 19
1, 71322, Control_c, 0, 64, 28
1, 71342, Control_c, 0, 64, 51
1, 71360, Control_c, 0, 64, 72
1, 71379, Control_c, 0, 64, 91
1, 71397, Control_c, 0, 64, 115
1, 71416, Control_c, 0, 64, 127
1, 71432, Note_off_c, 0, 56, 56
1, 71444, Note_off_c, 0, 41, 33
1, 71489, Note_off_c, 0, 61, 56
1, 71500, Note_off_c, 0, 68, 62
1, 71504, Note_off_c, 0, 29, 40
1, 71712, Note_on_c, 0, 67, 57
1, 71738, Note_on_c, 0, 61, 38
1, 71751, Note_on_c, 0, 43, 44
1, 71751, Control_c, 0, 64, 105
1, 71754, Note_on_c, 0, 31, 43
1, 71759, Note_on_c, 0, 58, 37
1, 71771, Control_c, 0, 64, 79
1, 71790, Control_c, 0, 64, 66
1, 71808, Control_c, 0, 64, 69
1, 71828, Control_c, 0, 64, 79
1, 71845, Note_off_c, 0, 43, 60
1, 71845, Control_c, 0, 64, 96
1, 71852, Note_off_c, 0, 58, 57
1, 71853, Note_off_c, 0, 31, 59
1, 71864, Control_c, 0, 64, 127
1, 71882, Note_off_c, 0, 61, 38
1, 71917, Note_off_c, 0, 67, 57
1, 71995, Control_c, 0, 64, 115
1, 72008, Note_on_c, 0, 65, 67
1, 72015, Control_c, 0, 64, 90
1, 72030, Note_on_c, 0, 61, 53
1, 72030, Note_on_c, 0, 32, 53
1, 72032, Note_on_c, 0, 44, 52
1, 72034, Control_c, 0, 64, 82
1, 72037, Note_on_c, 0, 56, 44
1, 72051, Control_c, 0, 64, 88
1, 72071, Control_c, 0, 64, 99
1, 72082, Note_off_c, 0, 61, 58
1, 72088, Control_c, 0, 64, 117
1, 72104, Note_off_c, 0, 44, 57
1, 72107, Note_off_c, 0, 65, 59
1, 72107, Control_c, 0, 64, 127
1, 72110, Note_off_c, 0, 32, 54
1, 72115, Note_off_c, 0, 56, 47
1, 72312, Note_on_c, 0, 63, 63
1, 72313, Control_c, 0, 64, 94
1, 72330, Note_on_c, 0, 61, 55
1, 72332, Control_c, 0, 64, 64
1, 72345, Note_on_c, 0, 55, 40
1, 72346, Note_on_c, 0, 34, 51
1, 72350, Control_c, 0, 64, 46
1, 72353, Note_on_c, 0, 46, 43
1, 72368, Control_c, 0, 64, 48
1, 72388, Control_c, 0, 64, 62
1, 72406, Control_c, 0, 64, 77
1, 72426, Control_c, 0, 64, 96
1, 72440, Note_off_c, 0, 46, 57
1, 72443, Control_c, 0, 64, 123
1, 72446, Note_off_c, 0, 34, 60
1, 72452, Note_off_c, 0, 61, 61
1, 72456, Note_off_c, 0, 55, 59
1, 72456, Poly_aftertouch_c, 0, 55, 0
1, 72460, Note_off_c, 0, 63, 59
1, 72462, Control_c, 0, 64, 127
1, 72481, Control_c, 0, 67, 49
1, 72518, Control_c, 0, 67, 44
1, 72612, Control_c, 0, 64, 104
1, 72617, Note_on_c, 0, 61, 61
1, 72631, Control_c, 0, 64, 72
1, 72637, Note_on_c, 0, 53, 47
1, 72640, Note_on_c, 0, 56, 49
1, 72644, Note_on_c, 0, 37, 51
1, 72650, Note_on_c, 0, 49, 43
1, 72650, Control_c, 0, 64, 50
1, 72689, Control_c, 0, 64, 63
1, 72705, Control_c, 0, 64, 76
1, 72725, Control_c, 0, 64, 94
1, 72744, Control_c, 0, 64, 119
1, 72745, Control_c, 0, 67, 40
1, 72758, Note_off_c, 0, 53, 51
1, 72758, Poly_aftertouch_c, 0, 53, 0
1, 72762, Control_c, 0, 64, 127
1, 72763, Note_off_c, 0, 49, 57
1, 72763, Note_off_c, 0, 56, 57
1, 72766, Note_off_c, 0, 37, 56
1, 72780, Control_c, 0, 67, 35
1, 72797, Note_off_c, 0, 61, 58
1, 72818, Control_c, 0, 67, 30
1, 72911, Control_c, 0, 67, 26
1, 73006, Control_c, 0, 64, 121
1, 73008, Control_c, 0, 67, 22
1, 73025, Control_c, 0, 64, 115
1, 73028, Note_on_c, 0, 58, 47
1, 73033, Note_on_c, 0, 55, 37
1, 73043, Control_c, 0, 64, 109
1, 73061, Control_c, 0, 64, 103
1, 73073, Note_on_c, 0, 51, 38
1, 73079, Control_c, 0, 64, 98
1, 73087, Note_on_c, 0, 39, 40
1, 73099, Control_c, 0, 64, 94
1, 73117, Control_c, 0, 64, 87
1, 73136, Control_c, 0, 64, 76
1, 73155, Control_c, 0, 64, 64
1, 73172, Control_c, 0, 64, 53
1, 73192, Control_c, 0, 64, 35
1, 73210, Control_c, 0, 64, 0
1, 73361, Control_c, 0, 64, 27
1, 73379, Control_c, 0, 64, 49
1, 73397, Control_c, 0, 64, 68
1, 73418, Control_c, 0, 64, 84
1, 73436, Note_off_c, 0, 51, 49
1, 73436, Control_c, 0, 64, 102
1, 73454, Control_c, 0, 64, 123
1, 73472, Control_c, 0, 64, 127
1, 73487, Note_off_c, 0, 58, 54
1, 73528, Control_c, 0, 67, 26
1, 73810, Control_c, 0, 64, 122
1, 73827, Control_c, 0, 64, 116
1, 73838, Note_on_c, 0, 63, 35
1, 73845, Control_c, 0, 64, 112
1, 73865, Control_c, 0, 64, 105
1, 73884, Control_c, 0, 64, 95
1, 73903, Control_c, 0, 64, 81
1, 73921, Control_c, 0, 64, 63
1, 73940, Control_c, 0, 64, 40
1, 73958, Control_c, 0, 64, 0
1, 74034, Control_c, 0, 64, 13
1, 74051, Control_c, 0, 64, 54
1, 74071, Note_off_c, 0, 55, 51
1, 74071, Poly_aftertouch_c, 0, 55, 0
1, 74071, Control_c, 0, 64, 84
1, 74090, Control_c, 0, 64, 116
1, 74108, Control_c, 0, 64, 127
1, 74166, Note_off_c, 0, 39, 48
1, 74168, Note_off_c, 0, 63, 61
1, 74746, Note_on_c, 0, 89, 62
1, 74750, Note_on_c, 0, 80, 45
1, 74797, Note_on_c, 0, 84, 34
1, 74838, Note_off_c, 0, 80, 55
1, 74840, Note_off_c, 0, 84, 52
1, 74876, Note_off_c, 0, 89, 55
1, 74988, Control_c, 0, 67, 22
1, 75031, Note_on_c, 0, 87, 79
1, 75055, Note_on_c, 0, 79, 53
1, 75100, Note_off_c, 0, 79, 61
1, 75159, Note_off_c, 0, 87, 57
1, 75175, Poly_aftertouch_c, 0, 82, 0
1, 75382, Note_on_c, 0, 92, 76
1, 75422, Note_on_c, 0, 85, 51
1, 75427, Note_on_c, 0, 77, 42
1, 75535, Poly_aftertouch_c, 0, 80, 127
1, 75692, Poly_aftertouch_c, 0, 80, 0
1, 75764, Note_on_c, 0, 65, 39
1, 75780, Note_off_c, 0, 77, 24
1, 75780, Poly_aftertouch_c, 0, 77, 0
1, 75791, Note_off_c, 0, 85, 30
1, 75837, Note_off_c, 0, 92, 61
1, 75903, Control_c, 0, 67, 27
1, 75959, Control_c, 0, 67, 31
1, 75996, Control_c, 0, 67, 35
1, 76019, Note_off_c, 0, 65, 40
1, 76026, Note_on_c, 0, 91, 66
1, 76033, Control_c, 0, 67, 40
1, 76048, Note_on_c, 0, 67, 46
1, 76054, Note_on_c, 0, 82, 48
1, 76060, Note_on_c, 0, 85, 49
1, 76071, Control_c, 0, 67, 46
1, 76109, Control_c, 0, 67, 51
1, 76110, Note_off_c, 0, 82, 53
1, 76122, Note_off_c, 0, 85, 54
1, 76232, Note_off_c, 0, 91, 59
1, 76277, Note_off_c, 0, 67, 54
1, 76324, Note_on_c, 0, 89, 73
1, 76331, Note_on_c, 0, 68, 52
1, 76354, Note_on_c, 0, 85, 49
1, 76365, Note_on_c, 0, 80, 43
1, 76405, Note_off_c, 0, 85, 59
1, 76422, Note_off_c, 0, 89, 57
1, 76438, Note_off_c, 0, 68, 52
1, 76465, Note_off_c, 0, 80, 32
1, 76668, Note_on_c, 0, 87, 64
1, 76700, Note_on_c, 0, 85, 55
1, 76704, Note_on_c, 0, 63, 38
1, 76707, Control_c, 0, 64, 116
1, 76709, Note_on_c, 0, 79, 43
1, 76718, Note_on_c, 0, 70, 42
1, 76726, Control_c, 0, 64, 95
1, 76744, Control_c, 0, 64, 76
1, 76764, Control_c, 0, 64, 70
1, 76782, Control_c, 0, 64, 77
1, 76801, Control_c, 0, 64, 86
1, 76815, Note_off_c, 0, 85, 60
1, 76818, Control_c, 0, 64, 100
1, 76830, Note_off_c, 0, 87, 61
1, 76837, Control_c, 0, 64, 119
1, 76857, Control_c, 0, 64, 127
1, 76871, Note_off_c, 0, 79, 40
1, 76890, Note_off_c, 0, 70, 36
1, 76892, Control_c, 0, 67, 55
1, 77006, Control_c, 0, 67, 59
1, 77056, Note_on_c, 0, 85, 67
1, 77081, Control_c, 0, 64, 115
1, 77096, Note_on_c, 0, 80, 43
1, 77096, Note_on_c, 0, 73, 42
1, 77099, Control_c, 0, 64, 93
1, 77111, Note_on_c, 0, 77, 34
1, 77118, Control_c, 0, 64, 67
1, 77121, Control_c, 0, 67, 63
1, 77137, Control_c, 0, 64, 50
1, 77175, Control_c, 0, 64, 60
1, 77194, Control_c, 0, 64, 70
1, 77197, Note_off_c, 0, 80, 52
1, 77212, Control_c, 0, 64, 80
1, 77231, Control_c, 0, 64, 94
1, 77235, Note_off_c, 0, 77, 35
1, 77235, Poly_aftertouch_c, 0, 77, 0
1, 77250, Control_c, 0, 64, 111
1, 77269, Control_c, 0, 64, 126
1, 77274, Note_off_c, 0, 73, 44
1, 77320, Note_off_c, 0, 85, 53
1, 77325, Control_c, 0, 67, 67
1, 77361, Control_c, 0, 67, 71
1, 77549, Control_c, 0, 64, 122
1, 77562, Note_on_c, 0, 82, 54
1, 77576, Note_on_c, 0, 79, 45
1, 77585, Control_c, 0, 64, 116
1, 77615, Note_on_c, 0, 75, 41
1, 77622, Control_c, 0, 64, 110
1, 77662, Control_c, 0, 64, 104
1, 77679, Control_c, 0, 64, 100
1, 77680, Control_c, 0, 67, 75
1, 77699, Control_c, 0, 64, 94
1, 77717, Control_c, 0, 64, 86
1, 77736, Control_c, 0, 64, 74
1, 77739, Control_c, 0, 67, 79
1, 77755, Control_c, 0, 64, 62
1, 77773, Control_c, 0, 64, 53
1, 77792, Control_c, 0, 64, 46
1, 77810, Control_c, 0, 64, 41
1, 77848, Control_c, 0, 64, 44
1, 77867, Control_c, 0, 64, 48
1, 77885, Control_c, 0, 64, 54
1, 77905, Control_c, 0, 64, 59
1, 77923, Control_c, 0, 64, 65
1, 77941, Control_c, 0, 64, 72
1, 77961, Control_c, 0, 64, 78
1, 77979, Control_c, 0, 64, 84
1, 77998, Control_c, 0, 64, 91
1, 78016, Control_c, 0, 64, 98
1, 78035, Control_c, 0, 64, 104
1, 78054, Control_c, 0, 64, 110
1, 78072, Control_c, 0, 64, 114
1, 78110, Control_c, 0, 64, 121
1, 78129, Control_c, 0, 64, 125
1, 78213, Note_off_c, 0, 82, 36
1, 78241, Note_off_c, 0, 75, 40
1, 78618, Note_on_c, 0, 87, 44
1, 78680, Note_on_c, 0, 73, 31
1, 78906, Note_off_c, 0, 87, 39
1, 78913, Control_c, 0, 67, 85
1, 78933, Control_c, 0, 67, 89
1, 78969, Note_off_c, 0, 79, 37
1, 78970, Control_c, 0, 67, 96
1, 79007, Control_c, 0, 67, 100
1, 79046, Control_c, 0, 67, 104
1, 79071, Note_off_c, 0, 73, 38
1, 79082, Control_c, 0, 67, 109
1, 79120, Control_c, 0, 67, 114
1, 79157, Control_c, 0, 67, 119
1, 79195, Control_c, 0, 67, 124
1, 79284, Note_off_c, 0, 63, 39
1, 80182, Note_on_c, 0, 72, 41
1, 80207, Note_on_c, 0, 68, 33
1, 80250, Note_on_c, 0, 44, 29
1, 80391, Control_c, 0, 64, 121
1, 80411, Control_c, 0, 64, 113
1, 80428, Control_c, 0, 64, 98
1, 80447, Control_c, 0, 64, 80
1, 80467, Control_c, 0, 64, 65
1, 80485, Control_c, 0, 64, 62
1, 80503, Control_c, 0, 64, 65
1, 80522, Control_c, 0, 64, 68
1, 80540, Control_c, 0, 64, 72
1, 80559, Control_c, 0, 64, 79
1, 80578, Control_c, 0, 64, 90
1, 80597, Control_c, 0, 64, 105
1, 80598, Control_c, 0, 67, 119
1, 80616, Control_c, 0, 64, 121
1, 80634, Control_c, 0, 64, 127
1, 80653, Control_c, 0, 67, 114
1, 80708, Control_c, 0, 67, 109
1, 80744, Note_on_c, 0, 51, 33
1, 80745, Control_c, 0, 67, 105
1, 80783, Control_c, 0, 67, 101
1, 80821, Control_c, 0, 67, 97
1, 80858, Control_c, 0, 67, 92
1, 80877, Control_c, 0, 67, 88
1, 80914, Control_c, 0, 67, 82
1, 80952, Control_c, 0, 67, 77
1, 80989, Control_c, 0, 67, 73
1, 81026, Control_c, 0, 67, 68
1, 81034, Note_off_c, 0, 44, 41
1, 81083, Control_c, 0, 67, 63
1, 81089, Note_on_c, 0, 63, 39
1, 81100, Note_off_c, 0, 51, 40
1, 81120, Control_c, 0, 67, 58
1, 81176, Control_c, 0, 67, 53
1, 81232, Control_c, 0, 67, 47
1, 81270, Control_c, 0, 67, 43
1, 81325, Control_c, 0, 67, 37
1, 81360, Note_off_c, 0, 63, 50
1, 81363, Control_c, 0, 67, 33
1, 81377, Note_on_c, 0, 51, 37
1, 81400, Control_c, 0, 67, 29
1, 81437, Control_c, 0, 67, 24
1, 81476, Control_c, 0, 67, 18
1, 81494, Control_c, 0, 67, 14
1, 81533, Control_c, 0, 67, 8
1, 81604, Note_off_c, 0, 51, 34
1, 81612, Note_on_c, 0, 63, 47
1, 81719, Control_c, 0, 67, 0
1, 81775, Note_off_c, 0, 68, 44
1, 81813, Note_off_c, 0, 63, 52
1, 81825, Note_on_c, 0, 51, 36
1, 81942, Note_off_c, 0, 51, 53
1, 82108, Note_on_c, 0, 70, 57
1, 82145, Note_on_c, 0, 68, 43
1, 82180, Note_on_c, 0, 44, 34
1, 82224, Control_c, 0, 64, 122
1, 82241, Control_c, 0, 64, 105
1, 82262, Control_c, 0, 64, 92
1, 82299, Control_c, 0, 64, 96
1, 82311, Note_off_c, 0, 72, 54
1, 82316, Control_c, 0, 64, 109
1, 82336, Control_c, 0, 64, 127
1, 82372, Note_on_c, 0, 51, 45
1, 82406, Note_off_c, 0, 44, 43
1, 82513, Note_off_c, 0, 51, 51
1, 82621, Note_on_c, 0, 62, 49
1, 82810, Note_off_c, 0, 62, 60
1, 82810, Poly_aftertouch_c, 0, 62, 0
1, 82831, Note_on_c, 0, 51, 46
1, 83023, Note_off_c, 0, 51, 24
1, 83028, Note_on_c, 0, 67, 64
1, 83046, Note_on_c, 0, 61, 51
1, 83162, Note_off_c, 0, 67, 59
1, 83197, Note_off_c, 0, 61, 57
1, 83205, Note_off_c, 0, 68, 54
1, 83231, Note_on_c, 0, 51, 44
1, 83243, Note_off_c, 0, 70, 62
1, 83471, Note_off_c, 0, 51, 33
1, 83553, Note_on_c, 0, 75, 60
1, 83563, Note_on_c, 0, 70, 53
1, 83613, Note_on_c, 0, 63, 45
1, 83633, Note_on_c, 0, 44, 35
1, 83701, Control_c, 0, 64, 115
1, 83719, Control_c, 0, 64, 103
1, 83738, Control_c, 0, 64, 89
1, 83757, Control_c, 0, 64, 73
1, 83776, Control_c, 0, 64, 61
1, 83794, Control_c, 0, 64, 58
1, 83813, Control_c, 0, 64, 61
1, 83833, Control_c, 0, 64, 67
1, 83850, Control_c, 0, 64, 74
1, 83869, Control_c, 0, 64, 81
1, 83888, Control_c, 0, 64, 91
1, 83907, Control_c, 0, 64, 107
1, 83923, Note_on_c, 0, 51, 36
1, 83923, Control_c, 0, 64, 127
1, 83995, Note_off_c, 0, 44, 48
1, 84193, Note_off_c, 0, 51, 38
1, 84207, Note_on_c, 0, 60, 34
1, 84433, Note_on_c, 0, 51, 35
1, 84449, Note_off_c, 0, 60, 38
1, 84622, Note_on_c, 0, 60, 36
1, 84650, Note_on_c, 0, 68, 39
1, 84653, Note_off_c, 0, 51, 32
1, 84789, Note_off_c, 0, 60, 36
1, 84832, Note_on_c, 0, 51, 41
1, 84867, Note_off_c, 0, 70, 39
1, 85064, Note_on_c, 0, 44, 39
1, 85073, Note_off_c, 0, 51, 36
1, 85121, Control_c, 0, 64, 111
1, 85141, Control_c, 0, 64, 93
1, 85159, Control_c, 0, 64, 74
1, 85178, Control_c, 0, 64, 60
1, 85197, Control_c, 0, 64, 58
1, 85215, Control_c, 0, 64, 64
1, 85234, Control_c, 0, 64, 73
1, 85253, Control_c, 0, 64, 81
1, 85271, Control_c, 0, 64, 92
1, 85291, Control_c, 0, 64, 108
1, 85309, Note_off_c, 0, 75, 47
1, 85309, Control_c, 0, 64, 127
1, 85316, Note_on_c, 0, 51, 30
1, 85483, Note_off_c, 0, 44, 37
1, 85575, Note_on_c, 0, 75, 53
1, 85602, Note_off_c, 0, 51, 36
1, 85633, Note_on_c, 0, 59, 31
1, 85797, Note_on_c, 0, 51, 32
1, 85834, Note_off_c, 0, 59, 34
1, 85834, Poly_aftertouch_c, 0, 59, 0
1, 85978, Note_on_c, 0, 76, 71
1, 85999, Note_off_c, 0, 51, 32
1, 86005, Note_on_c, 0, 59, 45
1, 86123, Note_off_c, 0, 63, 39
1, 86123, Note_off_c, 0, 59, 49
1, 86123, Poly_aftertouch_c, 0, 59, 0
1, 86167, Note_off_c, 0, 75, 29
1, 86184, Note_on_c, 0, 51, 45
1, 86296, Note_on_c, 0, 63, 64
1, 86300, Note_off_c, 0, 68, 35
1, 86357, Note_off_c, 0, 51, 36
1, 86358, Note_off_c, 0, 76, 49
1, 86465, Note_on_c, 0, 71, 45
1, 86526, Note_on_c, 0, 42, 29
1, 86662, Note_on_c, 0, 78, 74
1, 86712, Control_c, 0, 64, 120
1, 86730, Control_c, 0, 64, 115
1, 86750, Control_c, 0, 64, 109
1, 86767, Control_c, 0, 64, 101
1, 86786, Control_c, 0, 64, 87
1, 86804, Control_c, 0, 64, 70
1, 86823, Control_c, 0, 64, 55
1, 86842, Control_c, 0, 64, 44
1, 86861, Control_c, 0, 64, 37
1, 86879, Control_c, 0, 64, 40
1, 86898, Control_c, 0, 64, 51
1, 86917, Control_c, 0, 64, 63
1, 86935, Control_c, 0, 64, 75
1, 86955, Control_c, 0, 64, 90
1, 86973, Control_c, 0, 64, 110
1, 86992, Control_c, 0, 64, 127
1, 87004, Note_on_c, 0, 51, 39
1, 87094, Note_off_c, 0, 42, 42
1, 87288, Note_on_c, 0, 59, 41
1, 87311, Note_off_c, 0, 51, 32
1, 87510, Note_on_c, 0, 51, 37
1, 87520, Note_off_c, 0, 59, 34
1, 87520, Poly_aftertouch_c, 0, 59, 0
1, 87739, Note_on_c, 0, 59, 36
1, 87767, Note_off_c, 0, 51, 39
1, 87838, Note_off_c, 0, 71, 35
1, 87853, Note_off_c, 0, 78, 60
1, 87884, Note_off_c, 0, 63, 58
1, 87915, Note_off_c, 0, 59, 34
1, 87915, Poly_aftertouch_c, 0, 59, 0
1, 87933, Note_on_c, 0, 51, 42
1, 88052, Note_on_c, 0, 61, 58
1, 88094, Note_off_c, 0, 51, 52
1, 88168, Note_on_c, 0, 71, 57
1, 88251, Note_off_c, 0, 61, 52
1, 88283, Note_on_c, 0, 42, 45
1, 88433, Note_on_c, 0, 78, 75
1, 88451, Control_c, 0, 64, 113
1, 88470, Control_c, 0, 64, 92
1, 88487, Control_c, 0, 64, 72
1, 88506, Control_c, 0, 64, 60
1, 88525, Control_c, 0, 64, 61
1, 88544, Control_c, 0, 64, 69
1, 88563, Control_c, 0, 64, 78
1, 88581, Control_c, 0, 64, 88
1, 88600, Control_c, 0, 64, 102
1, 88618, Control_c, 0, 64, 121
1, 88637, Control_c, 0, 64, 127
1, 88655, Note_on_c, 0, 49, 41
1, 88888, Note_on_c, 0, 54, 50
1, 88939, Note_off_c, 0, 42, 36
1, 89035, Note_off_c, 0, 54, 59
1, 89073, Note_on_c, 0, 42, 56
1, 89162, Note_off_c, 0, 49, 29
1, 89254, Note_on_c, 0, 70, 70
1, 89280, Note_off_c, 0, 42, 55
1, 89287, Note_on_c, 0, 52, 49
1, 89352, Note_off_c, 0, 71, 56
1, 89424, Note_off_c, 0, 52, 57
1, 89451, Note_on_c, 0, 42, 54
1, 89539, Note_on_c, 0, 66, 70
1, 89651, Note_off_c, 0, 70, 55
1, 89679, Note_on_c, 0, 73, 78
1, 89713, Note_off_c, 0, 78, 60
1, 89797, Control_c, 0, 64, 122
1, 89804, Note_on_c, 0, 51, 59
1, 89816, Control_c, 0, 64, 111
1, 89834, Control_c, 0, 64, 96
1, 89853, Control_c, 0, 64, 79
1, 89868, Note_off_c, 0, 42, 38
1, 89871, Control_c, 0, 64, 62
1, 89889, Control_c, 0, 64, 51
1, 89914, Note_on_c, 0, 78, 79
1, 89927, Control_c, 0, 64, 56
1, 89947, Control_c, 0, 64, 66
1, 89964, Control_c, 0, 64, 74
1, 89984, Control_c, 0, 64, 83
1, 90002, Control_c, 0, 64, 95
1, 90021, Control_c, 0, 64, 110
1, 90040, Control_c, 0, 64, 126
1, 90145, Note_on_c, 0, 42, 47
1, 90158, Note_off_c, 0, 51, 52
1, 90388, Note_on_c, 0, 51, 45
1, 90390, Note_off_c, 0, 42, 54
1, 90608, Note_on_c, 0, 42, 45
1, 90618, Note_off_c, 0, 51, 50
1, 90825, Note_on_c, 0, 71, 64
1, 90836, Note_off_c, 0, 42, 52
1, 90852, Note_on_c, 0, 51, 38
1, 91054, Note_on_c, 0, 42, 39
1, 91087, Note_off_c, 0, 71, 56
1, 91103, Note_off_c, 0, 73, 56
1, 91103, Note_off_c, 0, 51, 36
1, 91381, Note_on_c, 0, 72, 54
1, 91425, Note_on_c, 0, 50, 35
1, 91443, Control_c, 0, 64, 121
1, 91457, Note_off_c, 0, 42, 31
1, 91459, Control_c, 0, 64, 115
1, 91480, Control_c, 0, 64, 108
1, 91498, Control_c, 0, 64, 97
1, 91516, Control_c, 0, 64, 85
1, 91536, Control_c, 0, 64, 71
1, 91554, Control_c, 0, 64, 57
1, 91572, Control_c, 0, 64, 46
1, 91592, Control_c, 0, 64, 41
1, 91629, Control_c, 0, 64, 48
1, 91647, Control_c, 0, 64, 56
1, 91666, Control_c, 0, 64, 63
1, 91685, Control_c, 0, 64, 71
1, 91704, Control_c, 0, 64, 79
1, 91722, Control_c, 0, 64, 89
1, 91742, Control_c, 0, 64, 100
1, 91758, Note_on_c, 0, 42, 36
1, 91759, Control_c, 0, 64, 113
1, 91773, Note_off_c, 0, 78, 63
1, 91777, Control_c, 0, 64, 127
1, 91816, Note_off_c, 0, 50, 33
1, 92005, Note_on_c, 0, 78, 61
1, 92061, Note_on_c, 0, 50, 25
1, 92083, Note_off_c, 0, 42, 39
1, 92275, Note_on_c, 0, 42, 31
1, 92291, Note_off_c, 0, 50, 42
1, 92453, Note_on_c, 0, 80, 78
1, 92498, Note_on_c, 0, 50, 33
1, 92499, Note_off_c, 0, 42, 42
1, 92634, Note_off_c, 0, 50, 57
1, 92648, Note_off_c, 0, 66, 52
1, 92670, Note_on_c, 0, 42, 42
1, 92697, Note_off_c, 0, 72, 61
1, 92770, Note_off_c, 0, 80, 61
1, 92785, Note_off_c, 0, 78, 59
1, 92799, Note_on_c, 0, 66, 55
1, 92869, Note_on_c, 0, 73, 54
1, 92946, Note_on_c, 0, 78, 56
1, 92972, Note_off_c, 0, 42, 32
1, 93023, Note_on_c, 0, 49, 47
1, 93123, Note_on_c, 0, 82, 84
1, 93181, Control_c, 0, 64, 122
1, 93199, Control_c, 0, 64, 113
1, 93218, Control_c, 0, 64, 102
1, 93237, Control_c, 0, 64, 88
1, 93255, Control_c, 0, 64, 73
1, 93274, Control_c, 0, 64, 56
1, 93293, Control_c, 0, 64, 39
1, 93311, Control_c, 0, 64, 16
1, 93331, Control_c, 0, 64, 21
1, 93350, Control_c, 0, 64, 42
1, 93368, Control_c, 0, 64, 60
1, 93386, Control_c, 0, 64, 75
1, 93405, Control_c, 0, 64, 90
1, 93425, Control_c, 0, 64, 109
1, 93433, Note_on_c, 0, 42, 42
1, 93443, Control_c, 0, 64, 127
1, 93472, Note_off_c, 0, 49, 37
1, 93726, Note_on_c, 0, 49, 50
1, 93753, Note_off_c, 0, 42, 37
1, 93914, Poly_aftertouch_c, 0, 67, 0
1, 93959, Note_off_c, 0, 66, 38
1, 93974, Note_on_c, 0, 42, 44
1, 93987, Note_off_c, 0, 49, 47
1, 94130, Poly_aftertouch_c, 0, 68, 0
1, 94209, Note_on_c, 0, 49, 49
1, 94262, Note_off_c, 0, 73, 61
1, 94267, Note_off_c, 0, 42, 52
1, 94299, Poly_aftertouch_c, 0, 83, 127
1, 94347, Note_off_c, 0, 78, 57
1, 94356, Poly_aftertouch_c, 0, 83, 0
1, 94407, Note_off_c, 0, 82, 59
1, 94429, Note_on_c, 0, 42, 61
1, 94439, Note_off_c, 0, 49, 54
1, 94689, Note_on_c, 0, 84, 86
1, 94701, Note_on_c, 0, 80, 78
1, 94710, Note_on_c, 0, 75, 73
1, 94712, Note_on_c, 0, 72, 73
1, 94736, Note_off_c, 0, 42, 55
1, 94749, Note_on_c, 0, 54, 64
1, 94771, Control_c, 0, 64, 121
1, 94788, Control_c, 0, 64, 92
1, 94808, Control_c, 0, 64, 60
1, 94826, Control_c, 0, 64, 20
1, 94845, Control_c, 0, 64, 0
1, 94883, Control_c, 0, 64, 42
1, 94901, Control_c, 0, 64, 71
1, 94920, Control_c, 0, 64, 96
1, 94938, Control_c, 0, 64, 127
1, 95012, Note_on_c, 0, 39, 56
1, 95066, Note_off_c, 0, 54, 38
1, 95247, Note_on_c, 0, 54, 62
1, 95256, Note_off_c, 0, 39, 51
1, 95477, Note_on_c, 0, 39, 61
1, 95492, Note_off_c, 0, 54, 57
1, 95711, Note_on_c, 0, 54, 66
1, 95739, Note_off_c, 0, 39, 34
1, 95838, Note_off_c, 0, 72, 51
1, 95899, Note_off_c, 0, 75, 60
1, 95911, Note_off_c, 0, 84, 60
1, 95919, Note_off_c, 0, 80, 63
1, 95927, Note_on_c, 0, 39, 72
1, 95947, Note_off_c, 0, 54, 57
1, 96072, Note_off_c, 0, 39, 56
1, 96178, Note_on_c, 0, 85, 90
1, 96185, Note_on_c, 0, 80, 80
1, 96190, Note_on_c, 0, 73, 86
1, 96194, Note_on_c, 0, 77, 78
1, 96210, Control_c, 0, 64, 119
1, 96214, Note_on_c, 0, 53, 72
1, 96229, Control_c, 0, 64, 87
1, 96247, Control_c, 0, 64, 56
1, 96266, Control_c, 0, 64, 24
1, 96285, Control_c, 0, 64, 0
1, 96303, Control_c, 0, 64, 23
1, 96324, Control_c, 0, 64, 52
1, 96340, Control_c, 0, 64, 81
1, 96343, Note_off_c, 0, 53, 59
1, 96343, Poly_aftertouch_c, 0, 53, 0
1, 96360, Control_c, 0, 64, 120
1, 96379, Control_c, 0, 64, 127
1, 96446, Note_on_c, 0, 37, 77
1, 96557, Note_off_c, 0, 37, 61
1, 96681, Note_on_c, 0, 53, 77
1, 96786, Note_off_c, 0, 53, 57
1, 96786, Poly_aftertouch_c, 0, 53, 0
1, 96832, Note_off_c, 0, 73, 58
1, 96864, Note_off_c, 0, 85, 60
1, 96867, Note_off_c, 0, 77, 60
1, 96867, Poly_aftertouch_c, 0, 77, 0
1, 96889, Note_on_c, 0, 37, 75
1, 96897, Note_off_c, 0, 80, 59
1, 97130, Note_on_c, 0, 87, 94
1, 97135, Note_on_c, 0, 80, 85
1, 97137, Note_on_c, 0, 75, 94
1, 97142, Note_on_c, 0, 78, 84
1, 97163, Note_on_c, 0, 51, 76
1, 97183, Control_c, 0, 64, 103
1, 97201, Control_c, 0, 64, 68
1, 97203, Note_off_c, 0, 37, 33
1, 97221, Control_c, 0, 64, 33
1, 97239, Control_c, 0, 64, 0
1, 97275, Control_c, 0, 64, 11
1, 97294, Control_c, 0, 64, 50
1, 97314, Control_c, 0, 64, 81
1, 97332, Control_c, 0, 64, 122
1, 97350, Control_c, 0, 64, 127
1, 97365, Note_on_c, 0, 36, 78
1, 97383, Note_off_c, 0, 51, 51
1, 97555, Note_off_c, 0, 36, 57
1, 97589, Note_on_c, 0, 51, 78
1, 97745, Note_off_c, 0, 75, 63
1, 97781, Note_off_c, 0, 80, 61
1, 97796, Note_off_c, 0, 78, 59
1, 97803, Note_on_c, 0, 36, 79
1, 97820, Note_off_c, 0, 51, 57
1, 97823, Note_off_c, 0, 87, 62
1, 98070, Note_off_c, 0, 36, 59
1, 98078, Note_on_c, 0, 89, 92
1, 98081, Note_on_c, 0, 85, 85
1, 98087, Note_on_c, 0, 77, 89
1, 98088, Note_on_c, 0, 80, 83
1, 98094, Note_on_c, 0, 49, 82
1, 98111, Note_on_c, 0, 88, 49
1, 98136, Control_c, 0, 64, 86
1, 98144, Note_off_c, 0, 88, 56
1, 98155, Control_c, 0, 64, 44
1, 98173, Control_c, 0, 64, 0
1, 98230, Control_c, 0, 64, 49
1, 98248, Control_c, 0, 64, 82
1, 98268, Control_c, 0, 64, 121
1, 98286, Control_c, 0, 64, 127
1, 98316, Note_on_c, 0, 35, 79
1, 98371, Note_off_c, 0, 49, 56
1, 98508, Note_off_c, 0, 35, 56
1, 98527, Note_on_c, 0, 49, 77
1, 98673, Note_off_c, 0, 77, 57
1, 98673, Poly_aftertouch_c, 0, 77, 0
1, 98711, Note_off_c, 0, 89, 60
1, 98711, Note_on_c, 0, 35, 74
1, 98727, Note_off_c, 0, 80, 62
1, 98737, Note_off_c, 0, 49, 59
1, 98746, Note_off_c, 0, 85, 62
1, 98791, Note_off_c, 0, 35, 60
1, 98865, Control_c, 0, 64, 111
1, 98880, Note_on_c, 0, 34, 83
1, 98884, Control_c, 0, 64, 79
1, 98903, Control_c, 0, 64, 42
1, 98921, Control_c, 0, 64, 0
1, 99088, Note_off_c, 0, 34, 62
1, 99088, Control_c, 0, 64, 27
1, 99092, Note_on_c, 0, 90, 101
1, 99097, Note_on_c, 0, 78, 96
1, 99101, Note_on_c, 0, 49, 85
1, 99102, Note_on_c, 0, 85, 84
1, 99107, Control_c, 0, 64, 127
1, 99144, Note_off_c, 0, 49, 60
1, 99234, Note_off_c, 0, 78, 62
1, 99278, Note_off_c, 0, 85, 55
1, 99467, Note_on_c, 0, 46, 61
1, 99574, Note_on_c, 0, 61, 80
1, 99588, Note_off_c, 0, 46, 59
1, 99622, Note_off_c, 0, 61, 57
1, 99680, Note_on_c, 0, 48, 80
1, 99691, Note_on_c, 0, 87, 84
1, 99695, Note_on_c, 0, 78, 90
1, 99697, Note_on_c, 0, 80, 81
1, 99725, Control_c, 0, 64, 80
1, 99745, Control_c, 0, 64, 0
1, 99787, Note_on_c, 0, 63, 80
1, 99802, Control_c, 0, 64, 47
1, 99819, Control_c, 0, 64, 90
1, 99837, Control_c, 0, 64, 127
1, 99880, Note_off_c, 0, 48, 61
1, 99926, Poly_aftertouch_c, 0, 50, 0
1, 99940, Note_off_c, 0, 87, 61
1, 99947, Note_off_c, 0, 63, 60
1, 99987, Note_off_c, 0, 80, 48
1, 100027, Note_off_c, 0, 78, 62
1, 100039, Note_on_c, 0, 49, 63
1, 100074, Note_off_c, 0, 90, 62
1, 100117, Note_on_c, 0, 56, 65
1, 100126, Note_off_c, 0, 49, 59
1, 100137, Control_c, 0, 64, 98
1, 100156, Control_c, 0, 64, 26
1, 100163, Note_on_c, 0, 89, 88
1, 100167, Note_on_c, 0, 77, 87
1, 100167, Note_on_c, 0, 85, 82
1, 100169, Note_on_c, 0, 80, 82
1, 100174, Control_c, 0, 64, 0
1, 100175, Note_on_c, 0, 65, 87
1, 100208, Note_off_c, 0, 77, 63
1, 100208, Poly_aftertouch_c, 0, 77, 0
1, 100212, Control_c, 0, 64, 56
1, 100229, Note_off_c, 0, 65, 64
1, 100229, Control_c, 0, 64, 97
1, 100246, Note_off_c, 0, 80, 64
1, 100249, Control_c, 0, 64, 127
1, 100256, Note_off_c, 0, 89, 65
1, 100275, Note_off_c, 0, 56, 61
1, 100276, Note_off_c, 0, 85, 62
1, 100482, Note_on_c, 0, 34, 65
1, 100529, Control_c, 0, 64, 95
1, 100549, Control_c, 0, 64, 53
1, 100566, Control_c, 0, 64, 0
1, 100626, Note_on_c, 0, 94, 102
1, 100631, Note_on_c, 0, 90, 89
1, 100632, Note_on_c, 0, 82, 100
1, 100632, Note_on_c, 0, 85, 93
1, 100633, Note_on_c, 0, 49, 93
1, 100652, Note_off_c, 0, 34, 61
1, 100660, Control_c, 0, 64, 107
1, 100673, Note_on_c, 0, 37, 21
1, 100674, Note_off_c, 0, 37, 127
1, 100677, Control_c, 0, 64, 127
1, 100687, Note_off_c, 0, 49, 63
1, 100688, Note_off_c, 0, 82, 64
1, 100697, Note_off_c, 0, 94, 67
1, 100703, Note_off_c, 0, 90, 65
1, 100714, Note_off_c, 0, 85, 62
1, 100739, Poly_aftertouch_c, 0, 37, 0
1, 100949, Note_on_c, 0, 46, 69
1, 101003, Note_on_c, 0, 90, 85
1, 101007, Note_on_c, 0, 85, 74
1, 101007, Note_on_c, 0, 78, 80
1, 101029, Note_on_c, 0, 61, 83
1, 101052, Note_off_c, 0, 46, 62
1, 101070, Note_off_c, 0, 78, 62
1, 101072, Note_off_c, 0, 85, 62
1, 101089, Note_off_c, 0, 61, 62
1, 101136, Note_on_c, 0, 48, 81
1, 101148, Note_on_c, 0, 78, 95
1, 101149, Note_on_c, 0, 87, 88
1, 101150, Note_on_c, 0, 80, 90
1, 101165, Control_c, 0, 64, 113
1, 101184, Control_c, 0, 64, 51
1, 101202, Control_c, 0, 64, 0
1, 101215, Note_on_c, 0, 63, 84
1, 101259, Control_c, 0, 64, 51
1, 101278, Control_c, 0, 64, 97
1, 101296, Control_c, 0, 64, 127
1, 101309, Note_off_c, 0, 48, 61
1, 101384, Note_off_c, 0, 63, 56
1, 101389, Note_off_c, 0, 87, 60
1, 101434, Note_off_c, 0, 80, 48
1, 101448, Note_off_c, 0, 78, 62
1, 101481, Note_on_c, 0, 49, 63
1, 101518, Note_off_c, 0, 90, 62
1, 101557, Note_on_c, 0, 56, 65
1, 101577, Note_off_c, 0, 49, 59
1, 101614, Control_c, 0, 64, 78
1, 101618, Note_on_c, 0, 89, 89
1, 101620, Note_on_c, 0, 77, 86
1, 101622, Note_on_c, 0, 80, 84
1, 101623, Note_on_c, 0, 85, 82
1, 101624, Note_on_c, 0, 65, 89
1, 101632, Control_c, 0, 64, 0
1, 101653, Note_off_c, 0, 77, 67
1, 101653, Poly_aftertouch_c, 0, 77, 0
1, 101664, Note_off_c, 0, 65, 64
1, 101669, Control_c, 0, 64, 63
1, 101681, Note_off_c, 0, 80, 64
1, 101687, Control_c, 0, 64, 116
1, 101707, Control_c, 0, 64, 127
1, 101709, Note_off_c, 0, 89, 64
1, 101713, Note_off_c, 0, 56, 64
1, 101713, Note_off_c, 0, 85, 63
1, 101969, Control_c, 0, 64, 118
1, 101988, Control_c, 0, 64, 80
1, 102000, Note_on_c, 0, 34, 62
1, 102007, Control_c, 0, 64, 0
1, 102094, Note_on_c, 0, 97, 101
1, 102097, Note_on_c, 0, 85, 99
1, 102098, Note_on_c, 0, 90, 89
1, 102100, Note_on_c, 0, 49, 94
1, 102101, Note_on_c, 0, 94, 92
1, 102110, Note_off_c, 0, 34, 62
1, 102118, Control_c, 0, 64, 56
1, 102137, Control_c, 0, 64, 127
1, 102143, Note_on_c, 0, 98, 44
1, 102151, Note_off_c, 0, 49, 63
1, 102168, Note_off_c, 0, 97, 64
1, 102172, Note_off_c, 0, 94, 65
1, 102176, Note_off_c, 0, 98, 55
1, 102178, Note_off_c, 0, 85, 65
1, 102181, Note_off_c, 0, 90, 65
1, 102395, Note_on_c, 0, 46, 44
1, 102483, Note_on_c, 0, 94, 83
1, 102484, Note_on_c, 0, 82, 80
1, 102498, Note_on_c, 0, 90, 65
1, 102505, Note_on_c, 0, 61, 83
1, 102520, Note_off_c, 0, 46, 62
1, 102559, Note_off_c, 0, 61, 66
1, 102560, Note_off_c, 0, 82, 64
1, 102567, Note_off_c, 0, 90, 47
1, 102571, Note_off_c, 0, 94, 64
1, 102624, Control_c, 0, 64, 111
1, 102632, Note_on_c, 0, 47, 73
1, 102642, Control_c, 0, 64, 67
1, 102659, Note_on_c, 0, 89, 74
1, 102659, Control_c, 0, 64, 59
1, 102664, Note_on_c, 0, 92, 89
1, 102673, Note_on_c, 0, 80, 89
1, 102679, Control_c, 0, 64, 80
1, 102685, Note_on_c, 0, 49, 21
1, 102699, Control_c, 0, 64, 118
1, 102700, Note_off_c, 0, 47, 62
1, 102716, Control_c, 0, 64, 127
1, 102722, Note_on_c, 0, 62, 83
1, 102730, Note_off_c, 0, 49, 53
1, 102763, Note_off_c, 0, 89, 61
1, 102763, Note_on_c, 0, 55, 8
1, 102768, Note_off_c, 0, 92, 63
1, 102817, Note_off_c, 0, 62, 57
1, 102817, Poly_aftertouch_c, 0, 62, 0
1, 102818, Note_off_c, 0, 80, 62
1, 102852, Note_off_c, 0, 55, 31
1, 102852, Poly_aftertouch_c, 0, 55, 0
1, 102872, Note_on_c, 0, 48, 59
1, 102904, Control_c, 0, 64, 107
1, 102922, Control_c, 0, 64, 64
1, 102932, Note_on_c, 0, 90, 82
1, 102932, Note_on_c, 0, 87, 80
1, 102935, Note_on_c, 0, 78, 87
1, 102940, Control_c, 0, 64, 63
1, 102948, Note_off_c, 0, 48, 65
1, 102960, Control_c, 0, 64, 89
1, 102970, Note_on_c, 0, 63, 86
1, 102978, Control_c, 0, 64, 127
1, 103030, Note_off_c, 0, 87, 62
1, 103041, Note_off_c, 0, 63, 60
1, 103052, Note_off_c, 0, 78, 60
1, 103065, Note_off_c, 0, 90, 64
1, 103087, Note_on_c, 0, 49, 82
1, 103128, Control_c, 0, 64, 67
1, 103145, Note_on_c, 0, 89, 87
1, 103146, Control_c, 0, 64, 0
1, 103151, Note_on_c, 0, 77, 89
1, 103154, Note_off_c, 0, 49, 62
1, 103160, Note_on_c, 0, 85, 77
1, 103165, Control_c, 0, 64, 32
1, 103184, Control_c, 0, 64, 79
1, 103188, Note_on_c, 0, 65, 88
1, 103204, Control_c, 0, 64, 127
1, 103226, Note_off_c, 0, 77, 60
1, 103226, Poly_aftertouch_c, 0, 77, 0
1, 103235, Note_off_c, 0, 89, 61
1, 103268, Note_off_c, 0, 65, 62
1, 103285, Note_off_c, 0, 85, 54
1, 103343, Note_on_c, 0, 51, 76
1, 103372, Control_c, 0, 64, 74
1, 103390, Control_c, 0, 64, 12
1, 103392, Note_on_c, 0, 87, 88
1, 103392, Note_on_c, 0, 75, 94
1, 103408, Control_c, 0, 64, 42
1, 103411, Note_on_c, 0, 85, 77
1, 103427, Note_off_c, 0, 51, 64
1, 103428, Control_c, 0, 64, 82
1, 103434, Note_on_c, 0, 66, 89
1, 103447, Control_c, 0, 64, 127
1, 103491, Note_on_c, 0, 54, 49
1, 103492, Note_off_c, 0, 54, 127
1, 103498, Note_off_c, 0, 87, 63
1, 103502, Note_off_c, 0, 85, 57
1, 103526, Note_off_c, 0, 66, 61
1, 103531, Note_off_c, 0, 75, 58
1, 103607, Note_on_c, 0, 53, 72
1, 103634, Control_c, 0, 64, 98
1, 103653, Control_c, 0, 64, 34
1, 103665, Note_on_c, 0, 85, 93
1, 103672, Control_c, 0, 64, 0
1, 103674, Note_on_c, 0, 73, 98
1, 103709, Control_c, 0, 64, 64
1, 103717, Note_on_c, 0, 68, 91
1, 103725, Note_off_c, 0, 53, 45
1, 103725, Poly_aftertouch_c, 0, 53, 0
1, 103727, Control_c, 0, 64, 103
1, 103745, Control_c, 0, 64, 127
1, 103798, Note_off_c, 0, 73, 57
1, 103810, Poly_aftertouch_c, 0, 82, 127
1, 103818, Note_off_c, 0, 68, 60
1, 103837, Note_off_c, 0, 85, 59
1, 103927, Note_on_c, 0, 55, 69
1, 103970, Control_c, 0, 64, 79
1, 103974, Note_on_c, 0, 87, 94
1, 103982, Note_on_c, 0, 75, 94
1, 103988, Control_c, 0, 64, 0
1, 103993, Note_on_c, 0, 82, 51
1, 104026, Control_c, 0, 64, 43
1, 104041, Note_on_c, 0, 70, 86
1, 104043, Control_c, 0, 64, 82
1, 104051, Note_off_c, 0, 55, 48
1, 104051, Poly_aftertouch_c, 0, 55, 0
1, 104064, Control_c, 0, 64, 121
1, 104082, Control_c, 0, 64, 127
1, 104096, Note_off_c, 0, 82, 63
1, 104096, Poly_aftertouch_c, 0, 82, 0
1, 104129, Note_off_c, 0, 87, 62
1, 104133, Note_off_c, 0, 70, 62
1, 104193, Note_off_c, 0, 75, 58
1, 104224, Note_on_c, 0, 56, 64
1, 104298, Note_on_c, 0, 63, 71
1, 104422, Note_on_c, 0, 68, 82
1, 104437, Control_c, 0, 64, 117
1, 104456, Control_c, 0, 64, 86
1, 104461, Note_on_c, 0, 85, 94
1, 104466, Note_on_c, 0, 75, 88
1, 104468, Note_on_c, 0, 80, 82
1, 104470, Note_on_c, 0, 73, 94
1, 104476, Control_c, 0, 64, 39
1, 104493, Control_c, 0, 64, 0
1, 104568, Control_c, 0, 64, 16
1, 104587, Control_c, 0, 64, 66
1, 104606, Control_c, 0, 64, 89
1, 104624, Control_c, 0, 64, 115
1, 104643, Control_c, 0, 64, 127
1, 104921, Note_off_c, 0, 68, 62
1, 104976, Note_off_c, 0, 73, 60
1, 104990, Note_off_c, 0, 85, 63
1, 105029, Note_off_c, 0, 63, 58
1, 105092, Note_off_c, 0, 56, 61
1, 105122, Note_on_c, 0, 84, 87
1, 105131, Note_on_c, 0, 72, 82
1, 105252, Note_off_c, 0, 75, 63
1, 105275, Note_off_c, 0, 80, 62
1, 105295, Note_off_c, 0, 72, 59
1, 105354, Note_off_c, 0, 84, 64
1, 105429, Note_on_c, 0, 41, 71
1, 105560, Control_c, 0, 64, 116
1, 105561, Control_c, 0, 67, 10
1, 105576, Note_on_c, 0, 56, 80
1, 105579, Control_c, 0, 64, 73
1, 105582, Control_c, 0, 67, 14
1, 105584, Note_on_c, 0, 85, 84
1, 105590, Note_on_c, 0, 73, 80
1, 105591, Note_on_c, 0, 80, 75
1, 105597, Control_c, 0, 64, 34
1, 105598, Control_c, 0, 67, 20
1, 105615, Control_c, 0, 67, 26
1, 105634, Control_c, 0, 64, 58
1, 105635, Control_c, 0, 67, 31
1, 105655, Control_c, 0, 64, 81
1, 105671, Control_c, 0, 64, 111
1, 105682, Note_off_c, 0, 73, 61
1, 105690, Control_c, 0, 64, 127
1, 105698, Note_off_c, 0, 41, 44
1, 105804, Note_off_c, 0, 56, 58
1, 105835, Note_on_c, 0, 89, 89
1, 105840, Control_c, 0, 64, 114
1, 105841, Control_c, 0, 67, 27
1, 105844, Note_on_c, 0, 43, 80
1, 105850, Note_on_c, 0, 77, 85
1, 105858, Control_c, 0, 64, 76
1, 105874, Note_off_c, 0, 85, 57
1, 105877, Note_off_c, 0, 80, 61
1, 105877, Control_c, 0, 64, 70
1, 105896, Control_c, 0, 64, 92
1, 105916, Control_c, 0, 64, 127
1, 105933, Control_c, 0, 67, 21
1, 105934, Note_off_c, 0, 89, 61
1, 105945, Note_off_c, 0, 77, 61
1, 105945, Poly_aftertouch_c, 0, 77, 0
1, 105966, Note_on_c, 0, 82, 50
1, 105997, Note_off_c, 0, 82, 60
1, 105997, Poly_aftertouch_c, 0, 82, 0
1, 106025, Note_on_c, 0, 58, 80
1, 106027, Control_c, 0, 64, 102
1, 106046, Control_c, 0, 64, 82
1, 106053, Note_on_c, 0, 87, 86
1, 106065, Note_on_c, 0, 75, 88
1, 106065, Control_c, 0, 64, 92
1, 106067, Note_on_c, 0, 82, 76
1, 106081, Note_off_c, 0, 43, 41
1, 106082, Control_c, 0, 64, 117
1, 106101, Control_c, 0, 64, 127
1, 106138, Control_c, 0, 67, 15
1, 106158, Note_off_c, 0, 58, 60
1, 106162, Note_off_c, 0, 87, 59
1, 106170, Note_off_c, 0, 82, 63
1, 106170, Poly_aftertouch_c, 0, 82, 0
1, 106193, Poly_aftertouch_c, 0, 85, 0
1, 106195, Control_c, 0, 67, 0
1, 106228, Note_off_c, 0, 75, 60
1, 106276, Note_on_c, 0, 44, 67
1, 106401, Control_c, 0, 64, 117
1, 106419, Control_c, 0, 64, 111
1, 106438, Control_c, 0, 64, 104
1, 106458, Control_c, 0, 64, 94
1, 106467, Note_on_c, 0, 85, 87
1, 106475, Control_c, 0, 64, 78
1, 106479, Note_on_c, 0, 80, 72
1, 106482, Note_on_c, 0, 75, 73
1, 106485, Note_on_c, 0, 73, 71
1, 106494, Control_c, 0, 64, 60
1, 106513, Control_c, 0, 64, 39
1, 106531, Control_c, 0, 64, 0
1, 106651, Note_on_c, 0, 51, 57
1, 106662, Control_c, 0, 64, 37
1, 106681, Control_c, 0, 64, 52
1, 106699, Control_c, 0, 64, 67
1, 106712, Note_off_c, 0, 44, 60
1, 106719, Control_c, 0, 64, 80
1, 106737, Control_c, 0, 64, 95
1, 106755, Control_c, 0, 64, 110
1, 106767, Note_off_c, 0, 51, 61
1, 106775, Control_c, 0, 64, 120
1, 106779, Note_on_c, 0, 56, 65
1, 106794, Control_c, 0, 64, 127
1, 106854, Note_off_c, 0, 56, 61
1, 106929, Note_on_c, 0, 63, 58
1, 106976, Note_off_c, 0, 63, 63
1, 107028, Note_off_c, 0, 73, 52
1, 107103, Note_off_c, 0, 85, 35
1, 107262, Note_on_c, 0, 84, 60
1, 107281, Note_on_c, 0, 72, 49
1, 107297, Control_c, 0, 64, 113
1, 107317, Control_c, 0, 64, 97
1, 107336, Control_c, 0, 64, 92
1, 107354, Control_c, 0, 64, 100
1, 107373, Control_c, 0, 64, 116
1, 107392, Control_c, 0, 64, 127
1, 107489, Note_off_c, 0, 84, 62
1, 107508, Note_off_c, 0, 72, 57
1, 107541, Note_off_c, 0, 75, 61
1, 107552, Note_off_c, 0, 80, 62
1, 107746, Control_c, 0, 67, 8
1, 107896, Control_c, 0, 67, 12
1, 107972, Control_c, 0, 64, 122
1, 108010, Control_c, 0, 64, 117
1, 108083, Control_c, 0, 64, 111
1, 108102, Control_c, 0, 64, 107
1, 108179, Control_c, 0, 64, 103
1, 108214, Control_c, 0, 64, 96
1, 108252, Control_c, 0, 64, 89
1, 108271, Control_c, 0, 64, 86
1, 108275, Note_on_c, 0, 80, 64
1, 108308, Control_c, 0, 64, 83
1, 108311, Note_on_c, 0, 75, 47
1, 108327, Control_c, 0, 64, 79
1, 108331, Control_c, 0, 67, 16
1, 108344, Note_on_c, 0, 72, 37
1, 108346, Control_c, 0, 64, 75
1, 108363, Control_c, 0, 64, 70
1, 108383, Control_c, 0, 64, 64
1, 108401, Control_c, 0, 64, 56
1, 108420, Control_c, 0, 64, 44
1, 108421, Control_c, 0, 67, 20
1, 108439, Control_c, 0, 64, 20
1, 108457, Control_c, 0, 64, 0
1, 108458, Control_c, 0, 67, 25
1, 108476, Control_c, 0, 67, 29
1, 108494, Control_c, 0, 67, 35
1, 108513, Control_c, 0, 67, 41
1, 108532, Control_c, 0, 67, 47
1, 108551, Control_c, 0, 67, 52
1, 108570, Control_c, 0, 64, 12
1, 108572, Control_c, 0, 67, 56
1, 108588, Control_c, 0, 64, 29
1, 108608, Control_c, 0, 64, 45
1, 108609, Control_c, 0, 67, 62
1, 108626, Control_c, 0, 64, 60
1, 108645, Control_c, 0, 64, 71
1, 108646, Control_c, 0, 67, 70
1, 108663, Control_c, 0, 64, 78
1, 108664, Control_c, 0, 67, 76
1, 108668, Note_off_c, 0, 72, 51
1, 108672, Note_on_c, 0, 56, 23
1, 108681, Control_c, 0, 64, 82
1, 108682, Control_c, 0, 67, 81
1, 108701, Control_c, 0, 64, 87
1, 108704, Control_c, 0, 67, 87
1, 108721, Control_c, 0, 64, 93
1, 108722, Control_c, 0, 67, 92
1, 108738, Control_c, 0, 64, 101
1, 108739, Control_c, 0, 67, 97
1, 108757, Control_c, 0, 64, 109
1, 108758, Control_c, 0, 67, 101
1, 108776, Control_c, 0, 64, 115
1, 108777, Control_c, 0, 67, 105
1, 108794, Control_c, 0, 64, 120
1, 108808, Note_off_c, 0, 56, 35
1, 108813, Control_c, 0, 67, 111
1, 108831, Control_c, 0, 64, 125
1, 108931, Note_on_c, 0, 72, 37
1, 109102, Note_off_c, 0, 72, 36
1, 109127, Note_on_c, 0, 56, 41
1, 109187, Note_off_c, 0, 56, 56
1, 109274, Note_on_c, 0, 72, 46
1, 109370, Note_off_c, 0, 72, 56
1, 109433, Note_on_c, 0, 56, 40
1, 109480, Note_off_c, 0, 56, 55
1, 109496, Note_off_c, 0, 75, 32
1, 109542, Control_c, 0, 67, 107
1, 109606, Note_on_c, 0, 79, 71
1, 109638, Note_on_c, 0, 71, 42
1, 109661, Note_on_c, 0, 74, 37
1, 109674, Control_c, 0, 64, 118
1, 109692, Control_c, 0, 64, 106
1, 109692, Control_c, 0, 67, 103
1, 109707, Note_off_c, 0, 80, 34
1, 109718, Note_off_c, 0, 71, 39
1, 109730, Control_c, 0, 64, 110
1, 109748, Control_c, 0, 64, 116
1, 109754, Note_on_c, 0, 56, 55
1, 109766, Control_c, 0, 64, 125
1, 109804, Control_c, 0, 67, 98
1, 109860, Control_c, 0, 67, 93
1, 109871, Note_off_c, 0, 56, 52
1, 109896, Note_on_c, 0, 71, 54
1, 109953, Control_c, 0, 67, 89
1, 109984, Note_off_c, 0, 71, 54
1, 110025, Note_on_c, 0, 56, 61
1, 110028, Control_c, 0, 67, 85
1, 110082, Note_off_c, 0, 74, 47
1, 110085, Control_c, 0, 67, 80
1, 110122, Control_c, 0, 67, 74
1, 110131, Note_on_c, 0, 78, 74
1, 110145, Note_off_c, 0, 56, 55
1, 110147, Note_on_c, 0, 73, 58
1, 110159, Control_c, 0, 67, 70
1, 110170, Note_on_c, 0, 56, 14
1, 110171, Note_off_c, 0, 56, 127
1, 110176, Note_off_c, 0, 79, 60
1, 110189, Note_on_c, 0, 70, 57
1, 110232, Note_off_c, 0, 73, 57
1, 110267, Note_off_c, 0, 78, 62
1, 110278, Note_on_c, 0, 72, 62
1, 110285, Note_off_c, 0, 70, 55
1, 110311, Note_on_c, 0, 56, 53
1, 110481, Note_off_c, 0, 56, 52
1, 110496, Note_on_c, 0, 69, 50
1, 110514, Note_on_c, 0, 84, 83
1, 110533, Control_c, 0, 64, 105
1, 110552, Control_c, 0, 64, 79
1, 110571, Control_c, 0, 64, 67
1, 110589, Control_c, 0, 64, 70
1, 110608, Control_c, 0, 64, 77
1, 110627, Control_c, 0, 64, 85
1, 110633, Note_off_c, 0, 69, 50
1, 110645, Control_c, 0, 64, 101
1, 110654, Note_on_c, 0, 56, 51
1, 110665, Control_c, 0, 64, 127
1, 110683, Note_off_c, 0, 72, 54
1, 110775, Control_c, 0, 67, 66
1, 110786, Note_off_c, 0, 56, 55
1, 110808, Note_off_c, 0, 84, 60
1, 110811, Note_on_c, 0, 77, 83
1, 110832, Control_c, 0, 64, 105
1, 110845, Note_on_c, 0, 68, 54
1, 110849, Control_c, 0, 64, 85
1, 110852, Note_on_c, 0, 71, 59
1, 110871, Control_c, 0, 64, 79
1, 110890, Control_c, 0, 64, 84
1, 110892, Control_c, 0, 67, 61
1, 110906, Note_off_c, 0, 71, 59
1, 110906, Control_c, 0, 64, 91
1, 110927, Control_c, 0, 64, 102
1, 110928, Control_c, 0, 67, 57
1, 110944, Control_c, 0, 64, 120
1, 110949, Note_off_c, 0, 68, 51
1, 110956, Note_on_c, 0, 56, 55
1, 110962, Control_c, 0, 64, 127
1, 111076, Note_on_c, 0, 76, 58
1, 111095, Control_c, 0, 64, 121
1, 111104, Note_off_c, 0, 56, 51
1, 111107, Note_on_c, 0, 82, 78
1, 111112, Control_c, 0, 64, 94
1, 111126, Note_on_c, 0, 70, 53
1, 111131, Note_on_c, 0, 67, 46
1, 111132, Control_c, 0, 64, 73
1, 111140, Note_off_c, 0, 77, 53
1, 111140, Poly_aftertouch_c, 0, 77, 0
1, 111150, Control_c, 0, 64, 66
1, 111169, Control_c, 0, 64, 69
1, 111187, Control_c, 0, 64, 74
1, 111203, Note_off_c, 0, 76, 64
1, 111205, Note_off_c, 0, 67, 53
1, 111206, Control_c, 0, 64, 81
1, 111226, Control_c, 0, 64, 95
1, 111244, Control_c, 0, 64, 116
1, 111261, Note_on_c, 0, 56, 56
1, 111261, Control_c, 0, 64, 127
1, 111303, Note_off_c, 0, 70, 36
1, 111388, Note_off_c, 0, 56, 48
1, 111392, Control_c, 0, 64, 111
1, 111412, Control_c, 0, 64, 87
1, 111414, Note_on_c, 0, 75, 76
1, 111426, Note_on_c, 0, 69, 58
1, 111430, Control_c, 0, 64, 65
1, 111445, Note_on_c, 0, 66, 46
1, 111447, Control_c, 0, 64, 55
1, 111468, Control_c, 0, 64, 58
1, 111471, Note_off_c, 0, 82, 54
1, 111471, Poly_aftertouch_c, 0, 82, 0
1, 111487, Control_c, 0, 64, 66
1, 111506, Control_c, 0, 64, 74
1, 111524, Control_c, 0, 64, 84
1, 111528, Note_off_c, 0, 69, 59
1, 111543, Control_c, 0, 64, 99
1, 111562, Control_c, 0, 64, 119
1, 111568, Note_off_c, 0, 66, 56
1, 111570, Note_on_c, 0, 56, 49
1, 111579, Control_c, 0, 64, 127
1, 111673, Control_c, 0, 64, 123
1, 111692, Control_c, 0, 64, 103
1, 111695, Note_on_c, 0, 74, 54
1, 111711, Control_c, 0, 64, 80
1, 111714, Note_off_c, 0, 56, 48
1, 111729, Control_c, 0, 64, 62
1, 111735, Note_on_c, 0, 80, 66
1, 111738, Note_off_c, 0, 75, 60
1, 111744, Note_on_c, 0, 68, 44
1, 111747, Control_c, 0, 64, 58
1, 111760, Note_on_c, 0, 65, 43
1, 111766, Control_c, 0, 64, 63
1, 111786, Control_c, 0, 64, 71
1, 111804, Control_c, 0, 64, 78
1, 111806, Note_off_c, 0, 74, 62
1, 111824, Control_c, 0, 64, 90
1, 111842, Control_c, 0, 64, 108
1, 111860, Control_c, 0, 64, 127
1, 111879, Note_off_c, 0, 65, 48
1, 111895, Note_on_c, 0, 56, 49
1, 111964, Note_off_c, 0, 68, 43
1, 112029, Control_c, 0, 64, 118
1, 112048, Control_c, 0, 64, 97
1, 112065, Control_c, 0, 64, 75
1, 112066, Note_off_c, 0, 56, 39
1, 112066, Note_on_c, 0, 73, 62
1, 112084, Control_c, 0, 64, 58
1, 112091, Note_on_c, 0, 64, 40
1, 112099, Note_on_c, 0, 67, 46
1, 112103, Control_c, 0, 64, 53
1, 112122, Control_c, 0, 64, 58
1, 112141, Control_c, 0, 64, 65
1, 112152, Note_off_c, 0, 80, 28
1, 112160, Control_c, 0, 64, 70
1, 112178, Control_c, 0, 64, 77
1, 112198, Control_c, 0, 64, 87
1, 112217, Control_c, 0, 64, 99
1, 112220, Note_off_c, 0, 67, 50
1, 112228, Note_off_c, 0, 64, 53
1, 112234, Control_c, 0, 64, 111
1, 112252, Control_c, 0, 64, 121
1, 112255, Note_on_c, 0, 56, 42
1, 112272, Control_c, 0, 64, 126
1, 112342, Note_off_c, 0, 56, 49
1, 112366, Note_off_c, 0, 73, 51
1, 112508, Note_on_c, 0, 78, 59
1, 112514, Control_c, 0, 64, 122
1, 112519, Note_on_c, 0, 66, 60
1, 112551, Control_c, 0, 64, 118
1, 112553, Note_on_c, 0, 63, 44
1, 112556, Note_on_c, 0, 72, 38
1, 112590, Control_c, 0, 64, 108
1, 112609, Control_c, 0, 64, 101
1, 112628, Control_c, 0, 64, 93
1, 112646, Control_c, 0, 64, 81
1, 112665, Control_c, 0, 64, 68
1, 112683, Control_c, 0, 64, 56
1, 112703, Control_c, 0, 64, 41
1, 112722, Control_c, 0, 64, 24
1, 112740, Control_c, 0, 64, 17
1, 112744, Note_off_c, 0, 63, 53
1, 112747, Note_on_c, 0, 56, 44
1, 112759, Control_c, 0, 64, 22
1, 112777, Control_c, 0, 64, 31
1, 112795, Control_c, 0, 64, 39
1, 112816, Control_c, 0, 64, 47
1, 112833, Control_c, 0, 64, 56
1, 112852, Control_c, 0, 64, 66
1, 112870, Control_c, 0, 64, 74
1, 112890, Control_c, 0, 64, 79
1, 112908, Control_c, 0, 64, 83
1, 112912, Note_off_c, 0, 56, 52
1, 112926, Control_c, 0, 64, 86
1, 112946, Control_c, 0, 64, 91
1, 112948, Control_c, 0, 67, 61
1, 112965, Control_c, 0, 64, 95
1, 112968, Note_on_c, 0, 63, 32
1, 112982, Control_c, 0, 64, 100
1, 112983, Control_c, 0, 67, 65
1, 113001, Control_c, 0, 64, 104
1, 113021, Control_c, 0, 67, 70
1, 113039, Control_c, 0, 64, 110
1, 113058, Control_c, 0, 67, 77
1, 113077, Control_c, 0, 67, 81
1, 113094, Control_c, 0, 67, 85
1, 113114, Control_c, 0, 67, 90
1, 113141, Note_on_c, 0, 56, 36
1, 113149, Control_c, 0, 67, 96
1, 113172, Note_off_c, 0, 63, 33
1, 113187, Control_c, 0, 67, 103
1, 113189, Note_off_c, 0, 66, 37
1, 113244, Control_c, 0, 67, 108
1, 113281, Control_c, 0, 67, 112
1, 113319, Control_c, 0, 64, 106
1, 113337, Control_c, 0, 64, 101
1, 113338, Control_c, 0, 67, 116
1, 113344, Note_on_c, 0, 67, 56
1, 113357, Control_c, 0, 64, 91
1, 113361, Note_off_c, 0, 56, 30
1, 113373, Note_on_c, 0, 64, 38
1, 113375, Control_c, 0, 64, 79
1, 113394, Control_c, 0, 64, 68
1, 113413, Control_c, 0, 64, 67
1, 113432, Control_c, 0, 64, 70
1, 113450, Control_c, 0, 64, 73
1, 113470, Control_c, 0, 64, 75
1, 113477, Note_off_c, 0, 72, 41
1, 113487, Control_c, 0, 64, 80
1, 113507, Control_c, 0, 64, 88
1, 113520, Note_off_c, 0, 64, 52
1, 113524, Control_c, 0, 64, 97
1, 113537, Note_on_c, 0, 56, 42
1, 113543, Control_c, 0, 64, 104
1, 113562, Control_c, 0, 64, 109
1, 113655, Control_c, 0, 64, 113
1, 113801, Note_off_c, 0, 56, 28
1, 113806, Note_on_c, 0, 72, 45
1, 113825, Note_on_c, 0, 68, 44
1, 113826, Note_on_c, 0, 65, 40
1, 113842, Control_c, 0, 64, 108
1, 113900, Control_c, 0, 64, 102
1, 113904, Note_off_c, 0, 67, 36
1, 113918, Control_c, 0, 64, 98
1, 113936, Control_c, 0, 64, 91
1, 113937, Control_c, 0, 67, 120
1, 113955, Control_c, 0, 64, 82
1, 113974, Control_c, 0, 64, 69
1, 113978, Note_off_c, 0, 78, 37
1, 113992, Control_c, 0, 64, 57
1, 114010, Control_c, 0, 64, 47
1, 114030, Note_off_c, 0, 65, 49
1, 114030, Control_c, 0, 64, 41
1, 114060, Note_on_c, 0, 56, 33
1, 114086, Control_c, 0, 64, 46
1, 114104, Control_c, 0, 64, 50
1, 114123, Control_c, 0, 64, 55
1, 114141, Control_c, 0, 64, 61
1, 114161, Control_c, 0, 64, 67
1, 114179, Control_c, 0, 64, 70
1, 114198, Control_c, 0, 64, 74
1, 114217, Control_c, 0, 64, 77
1, 114236, Control_c, 0, 64, 80
1, 114254, Control_c, 0, 64, 83
1, 114272, Control_c, 0, 64, 86
1, 114278, Note_on_c, 0, 65, 31
1, 114281, Note_off_c, 0, 56, 40
1, 114311, Control_c, 0, 64, 92
1, 114347, Control_c, 0, 64, 98
1, 114385, Control_c, 0, 64, 103
1, 114441, Control_c, 0, 64, 107
1, 114485, Note_off_c, 0, 65, 38
1, 114505, Note_on_c, 0, 56, 27
1, 114707, Note_off_c, 0, 56, 25
1, 114756, Note_on_c, 0, 66, 39
1, 114766, Note_on_c, 0, 63, 39
1, 114796, Control_c, 0, 64, 103
1, 114834, Control_c, 0, 64, 93
1, 114853, Control_c, 0, 64, 82
1, 114861, Note_off_c, 0, 68, 34
1, 114872, Control_c, 0, 64, 68
1, 114890, Control_c, 0, 64, 58
1, 114927, Control_c, 0, 64, 65
1, 114945, Control_c, 0, 64, 69
1, 114965, Control_c, 0, 64, 73
1, 114983, Control_c, 0, 64, 79
1, 115002, Control_c, 0, 64, 87
1, 115009, Note_off_c, 0, 72, 59
1, 115021, Control_c, 0, 64, 95
1, 115039, Note_on_c, 0, 56, 34
1, 115039, Control_c, 0, 64, 101
1, 115040, Note_off_c, 0, 63, 37
1, 115058, Control_c, 0, 64, 106
1, 115095, Control_c, 0, 64, 112
1, 115101, Note_off_c, 0, 66, 60
1, 115130, Note_off_c, 0, 56, 48
1, 115264, Control_c, 0, 67, 116
1, 115413, Control_c, 0, 67, 112
1, 115469, Control_c, 0, 67, 108
1, 115478, Note_on_c, 0, 68, 53
1, 115500, Note_on_c, 0, 63, 37
1, 115505, Control_c, 0, 64, 108
1, 115525, Control_c, 0, 67, 103
1, 115527, Note_on_c, 0, 60, 30
1, 115544, Control_c, 0, 64, 103
1, 115563, Control_c, 0, 64, 99
1, 115564, Control_c, 0, 67, 98
1, 115582, Control_c, 0, 64, 94
1, 115600, Control_c, 0, 64, 89
1, 115601, Control_c, 0, 67, 93
1, 115621, Control_c, 0, 64, 83
1, 115638, Control_c, 0, 64, 74
1, 115641, Control_c, 0, 67, 89
1, 115657, Control_c, 0, 64, 63
1, 115675, Control_c, 0, 64, 56
1, 115694, Control_c, 0, 64, 53
1, 115714, Control_c, 0, 64, 55
1, 115716, Control_c, 0, 67, 85
1, 115732, Control_c, 0, 64, 59
1, 115750, Control_c, 0, 64, 62
1, 115751, Control_c, 0, 67, 80
1, 115768, Control_c, 0, 64, 66
1, 115788, Control_c, 0, 64, 71
1, 115805, Control_c, 0, 64, 75
1, 115807, Control_c, 0, 67, 75
1, 115825, Control_c, 0, 64, 80
1, 115844, Control_c, 0, 64, 85
1, 115847, Control_c, 0, 67, 71
1, 115863, Control_c, 0, 64, 92
1, 115866, Note_off_c, 0, 60, 43
1, 115866, Note_on_c, 0, 44, 29
1, 115880, Control_c, 0, 64, 99
1, 115900, Control_c, 0, 64, 107
1, 115901, Control_c, 0, 67, 66
1, 115919, Control_c, 0, 64, 115
1, 115939, Control_c, 0, 64, 121
1, 115940, Control_c, 0, 67, 62
1, 115956, Control_c, 0, 64, 125
1, 115974, Control_c, 0, 67, 58
1, 116031, Control_c, 0, 67, 52
1, 116038, Note_off_c, 0, 44, 32
1, 116068, Control_c, 0, 67, 45
1, 116106, Control_c, 0, 67, 40
1, 116135, Note_on_c, 0, 60, 37
1, 116143, Control_c, 0, 67, 34
1, 116161, Control_c, 0, 67, 30
1, 116199, Control_c, 0, 67, 23
1, 116236, Control_c, 0, 67, 18
1, 116273, Control_c, 0, 67, 14
1, 116311, Control_c, 0, 67, 10
1, 116329, Note_off_c, 0, 60, 46
1, 116374, Note_on_c, 0, 44, 27
1, 116448, Note_off_c, 0, 44, 52
1, 116533, Note_on_c, 0, 60, 42
1, 116553, Control_c, 0, 67, 0
1, 116665, Note_off_c, 0, 60, 51
1, 116714, Note_on_c, 0, 44, 36
1, 116770, Note_off_c, 0, 44, 57
1, 116783, Note_off_c, 0, 63, 39
1, 116912, Note_on_c, 0, 67, 52
1, 116923, Note_on_c, 0, 59, 40
1, 116932, Note_on_c, 0, 62, 35
1, 117040, Note_off_c, 0, 59, 45
1, 117040, Poly_aftertouch_c, 0, 59, 0
1, 117082, Note_on_c, 0, 44, 44
1, 117118, Note_off_c, 0, 68, 26
1, 117209, Note_off_c, 0, 44, 54
1, 117245, Note_on_c, 0, 59, 49
1, 117337, Note_off_c, 0, 59, 49
1, 117337, Poly_aftertouch_c, 0, 59, 0
1, 117395, Note_on_c, 0, 44, 46
1, 117492, Note_off_c, 0, 62, 52
1, 117492, Poly_aftertouch_c, 0, 62, 0
1, 117516, Note_on_c, 0, 66, 65
1, 117530, Note_off_c, 0, 44, 52
1, 117535, Note_on_c, 0, 61, 54
1, 117544, Note_off_c, 0, 67, 58
1, 117565, Note_on_c, 0, 58, 52
1, 117647, Note_off_c, 0, 61, 57
1, 117650, Note_off_c, 0, 66, 61
1, 117683, Note_on_c, 0, 60, 55
1, 117703, Note_off_c, 0, 58, 48
1, 117709, Note_on_c, 0, 44, 48
1, 117894, Note_on_c, 0, 57, 51
1, 117897, Note_on_c, 0, 72, 70
1, 117919, Control_c, 0, 64, 118
1, 117926, Note_off_c, 0, 44, 36
1, 117938, Control_c, 0, 64, 103
1, 117956, Control_c, 0, 64, 92
1, 117994, Control_c, 0, 64, 97
1, 118013, Control_c, 0, 64, 105
1, 118031, Control_c, 0, 64, 113
1, 118050, Control_c, 0, 64, 123
1, 118051, Note_off_c, 0, 57, 55
1, 118070, Control_c, 0, 64, 127
1, 118089, Note_off_c, 0, 60, 57
1, 118094, Note_on_c, 0, 44, 49
1, 118220, Note_on_c, 0, 65, 70
1, 118233, Note_off_c, 0, 72, 36
1, 118261, Note_on_c, 0, 59, 60
1, 118271, Note_on_c, 0, 56, 49
1, 118274, Control_c, 0, 64, 116
1, 118288, Note_off_c, 0, 44, 34
1, 118292, Control_c, 0, 64, 97
1, 118313, Control_c, 0, 64, 88
1, 118350, Control_c, 0, 64, 102
1, 118363, Note_off_c, 0, 59, 58
1, 118363, Poly_aftertouch_c, 0, 59, 0
1, 118367, Control_c, 0, 64, 118
1, 118386, Control_c, 0, 64, 127
1, 118400, Note_off_c, 0, 56, 55
1, 118423, Note_on_c, 0, 44, 52
1, 118534, Note_on_c, 0, 64, 47
1, 118563, Note_on_c, 0, 70, 70
1, 118567, Note_off_c, 0, 44, 45
1, 118568, Note_off_c, 0, 65, 59
1, 118573, Note_on_c, 0, 58, 57
1, 118580, Note_on_c, 0, 55, 48
1, 118613, Control_c, 0, 64, 103
1, 118629, Control_c, 0, 64, 82
1, 118648, Control_c, 0, 64, 70
1, 118668, Note_off_c, 0, 64, 62
1, 118685, Control_c, 0, 64, 78
1, 118695, Note_off_c, 0, 55, 58
1, 118695, Poly_aftertouch_c, 0, 55, 0
1, 118704, Control_c, 0, 64, 88
1, 118723, Control_c, 0, 64, 100
1, 118739, Note_on_c, 0, 44, 52
1, 118741, Control_c, 0, 64, 114
1, 118759, Note_off_c, 0, 58, 60
1, 118759, Control_c, 0, 64, 127
1, 118865, Note_off_c, 0, 44, 51
1, 118897, Note_on_c, 0, 63, 65
1, 118905, Note_on_c, 0, 57, 59
1, 118920, Note_on_c, 0, 54, 46
1, 118948, Control_c, 0, 64, 111
1, 118966, Control_c, 0, 64, 91
1, 118974, Note_off_c, 0, 70, 53
1, 118985, Control_c, 0, 64, 75
1, 119004, Control_c, 0, 64, 69
1, 119005, Control_c, 0, 67, 8
1, 119023, Control_c, 0, 64, 74
1, 119028, Note_off_c, 0, 57, 59
1, 119040, Control_c, 0, 64, 83
1, 119055, Note_off_c, 0, 54, 55
1, 119059, Control_c, 0, 64, 95
1, 119063, Note_on_c, 0, 44, 46
1, 119079, Control_c, 0, 64, 112
1, 119096, Control_c, 0, 64, 127
1, 119214, Note_off_c, 0, 44, 53
1, 119216, Note_on_c, 0, 62, 49
1, 119229, Control_c, 0, 67, 12
1, 119240, Note_on_c, 0, 56, 55
1, 119255, Note_on_c, 0, 68, 58
1, 119257, Note_on_c, 0, 53, 47
1, 119285, Control_c, 0, 64, 110
1, 119302, Control_c, 0, 64, 92
1, 119313, Note_off_c, 0, 63, 37
1, 119320, Control_c, 0, 64, 77
1, 119340, Control_c, 0, 64, 72
1, 119359, Control_c, 0, 64, 77
1, 119364, Note_off_c, 0, 62, 61
1, 119364, Poly_aftertouch_c, 0, 62, 0
1, 119378, Control_c, 0, 64, 87
1, 119387, Note_off_c, 0, 53, 56
1, 119387, Poly_aftertouch_c, 0, 53, 0
1, 119397, Control_c, 0, 64, 102
1, 119404, Note_on_c, 0, 44, 49
1, 119415, Control_c, 0, 64, 125
1, 119461, Note_off_c, 0, 56, 61
1, 119589, Note_off_c, 0, 44, 38
1, 119589, Note_off_c, 0, 68, 34
1, 119602, Note_on_c, 0, 61, 62
1, 119610, Note_on_c, 0, 55, 56
1, 119611, Note_on_c, 0, 52, 47
1, 119620, Control_c, 0, 64, 109
1, 119639, Control_c, 0, 64, 84
1, 119659, Control_c, 0, 64, 65
1, 119677, Control_c, 0, 64, 60
1, 119695, Control_c, 0, 64, 63
1, 119713, Control_c, 0, 64, 70
1, 119733, Control_c, 0, 64, 78
1, 119751, Control_c, 0, 64, 89
1, 119770, Control_c, 0, 64, 105
1, 119780, Note_off_c, 0, 52, 51
1, 119785, Note_on_c, 0, 44, 45
1, 119789, Control_c, 0, 64, 124
1, 119798, Note_off_c, 0, 55, 60
1, 119798, Poly_aftertouch_c, 0, 55, 0
1, 119808, Control_c, 0, 67, 16
1, 119844, Control_c, 0, 67, 21
1, 119864, Control_c, 0, 67, 25
1, 119883, Control_c, 0, 67, 30
1, 119900, Note_off_c, 0, 61, 55
1, 119900, Control_c, 0, 67, 34
1, 119904, Note_off_c, 0, 44, 57
1, 119938, Control_c, 0, 67, 38
1, 120032, Control_c, 0, 67, 43
1, 120076, Note_on_c, 0, 54, 66
1, 120080, Note_on_c, 0, 66, 56
1, 120103, Note_on_c, 0, 60, 47
1, 120111, Note_on_c, 0, 51, 51
1, 120145, Control_c, 0, 64, 119
1, 120163, Control_c, 0, 64, 113
1, 120164, Control_c, 0, 67, 47
1, 120181, Control_c, 0, 64, 107
1, 120200, Control_c, 0, 64, 99
1, 120219, Control_c, 0, 64, 92
1, 120238, Control_c, 0, 64, 82
1, 120240, Control_c, 0, 67, 52
1, 120256, Control_c, 0, 64, 71
1, 120275, Control_c, 0, 64, 60
1, 120295, Control_c, 0, 64, 51
1, 120297, Control_c, 0, 67, 58
1, 120312, Control_c, 0, 64, 38
1, 120321, Note_on_c, 0, 44, 47
1, 120326, Note_off_c, 0, 51, 52
1, 120332, Control_c, 0, 64, 23
1, 120332, Control_c, 0, 67, 64
1, 120368, Control_c, 0, 64, 0
1, 120369, Control_c, 0, 67, 69
1, 120406, Control_c, 0, 64, 13
1, 120407, Control_c, 0, 67, 74
1, 120425, Control_c, 0, 64, 17
1, 120445, Control_c, 0, 67, 80
1, 120462, Control_c, 0, 64, 22
1, 120463, Control_c, 0, 67, 84
1, 120482, Control_c, 0, 64, 27
1, 120483, Control_c, 0, 67, 89
1, 120500, Control_c, 0, 64, 32
1, 120502, Control_c, 0, 67, 94
1, 120518, Control_c, 0, 64, 39
1, 120519, Control_c, 0, 67, 98
1, 120537, Control_c, 0, 64, 46
1, 120538, Control_c, 0, 67, 102
1, 120544, Note_off_c, 0, 44, 48
1, 120557, Control_c, 0, 64, 53
1, 120558, Control_c, 0, 67, 106
1, 120574, Control_c, 0, 64, 61
1, 120575, Control_c, 0, 67, 112
1, 120580, Note_on_c, 0, 51, 43
1, 120593, Control_c, 0, 64, 67
1, 120594, Control_c, 0, 67, 116
1, 120612, Control_c, 0, 64, 72
1, 120630, Control_c, 0, 64, 75
1, 120631, Control_c, 0, 67, 121
1, 120649, Control_c, 0, 64, 79
1, 120668, Control_c, 0, 64, 85
1, 120688, Control_c, 0, 64, 93
1, 120690, Control_c, 0, 67, 126
1, 120706, Control_c, 0, 64, 102
1, 120724, Control_c, 0, 64, 109
1, 120742, Control_c, 0, 64, 115
1, 120762, Control_c, 0, 64, 121
1, 120779, Control_c, 0, 64, 125
1, 120791, Note_on_c, 0, 44, 42
1, 120825, Note_off_c, 0, 51, 35
1, 120861, Note_off_c, 0, 54, 54
1, 120924, Poly_aftertouch_c, 0, 60, 24
1, 121027, Note_on_c, 0, 55, 59
1, 121036, Note_on_c, 0, 52, 47
1, 121041, Control_c, 0, 64, 121
1, 121042, Note_off_c, 0, 44, 37
1, 121050, Note_off_c, 0, 60, 32
1, 121050, Poly_aftertouch_c, 0, 60, 0
1, 121060, Control_c, 0, 64, 115
1, 121079, Control_c, 0, 64, 105
1, 121098, Control_c, 0, 64, 93
1, 121116, Control_c, 0, 64, 80
1, 121136, Control_c, 0, 64, 68
1, 121154, Control_c, 0, 64, 58
1, 121173, Control_c, 0, 64, 55
1, 121191, Control_c, 0, 64, 58
1, 121211, Control_c, 0, 64, 64
1, 121229, Control_c, 0, 64, 70
1, 121231, Note_off_c, 0, 52, 54
1, 121232, Note_on_c, 0, 44, 42
1, 121247, Control_c, 0, 64, 78
1, 121266, Control_c, 0, 64, 88
1, 121287, Control_c, 0, 64, 100
1, 121304, Control_c, 0, 64, 111
1, 121322, Control_c, 0, 64, 117
1, 121509, Control_c, 0, 64, 113
1, 121532, Note_on_c, 0, 60, 47
1, 121538, Note_on_c, 0, 53, 43
1, 121545, Note_on_c, 0, 56, 49
1, 121566, Control_c, 0, 64, 106
1, 121569, Note_off_c, 0, 44, 33
1, 121584, Control_c, 0, 64, 102
1, 121602, Control_c, 0, 64, 96
1, 121612, Note_off_c, 0, 55, 46
1, 121612, Poly_aftertouch_c, 0, 55, 0
1, 121621, Control_c, 0, 64, 91
1, 121640, Control_c, 0, 64, 84
1, 121659, Control_c, 0, 64, 77
1, 121678, Control_c, 0, 64, 69
1, 121696, Control_c, 0, 64, 61
1, 121715, Control_c, 0, 64, 53
1, 121733, Control_c, 0, 64, 42
1, 121753, Control_c, 0, 64, 27
1, 121757, Note_off_c, 0, 66, 38
1, 121771, Control_c, 0, 64, 11
1, 121804, Note_off_c, 0, 53, 53
1, 121804, Poly_aftertouch_c, 0, 53, 0
1, 121806, Note_on_c, 0, 44, 42
1, 121845, Control_c, 0, 64, 19
1, 121865, Control_c, 0, 64, 24
1, 121883, Control_c, 0, 64, 30
1, 121884, Control_c, 0, 67, 122
1, 121902, Control_c, 0, 64, 36
1, 121920, Control_c, 0, 64, 41
1, 121939, Control_c, 0, 64, 48
1, 121958, Control_c, 0, 64, 54
1, 121977, Control_c, 0, 64, 61
1, 121995, Control_c, 0, 64, 65
1, 122014, Control_c, 0, 64, 66
1, 122064, Note_off_c, 0, 44, 49
1, 122068, Control_c, 0, 64, 68
1, 122077, Note_on_c, 0, 53, 40
1, 122090, Control_c, 0, 64, 71
1, 122108, Control_c, 0, 64, 74
1, 122125, Control_c, 0, 64, 76
1, 122165, Control_c, 0, 64, 78
1, 122202, Control_c, 0, 64, 82
1, 122220, Control_c, 0, 64, 86
1, 122257, Control_c, 0, 64, 92
1, 122332, Control_c, 0, 64, 97
1, 122350, Note_off_c, 0, 53, 36
1, 122350, Poly_aftertouch_c, 0, 53, 0
1, 122378, Note_on_c, 0, 44, 39
1, 122692, Poly_aftertouch_c, 0, 44, 24
1, 122713, Note_on_c, 0, 54, 40
1, 122725, Note_on_c, 0, 51, 30
1, 122745, Control_c, 0, 64, 92
1, 122750, Note_off_c, 0, 44, 37
1, 122750, Poly_aftertouch_c, 0, 44, 0
1, 122781, Control_c, 0, 64, 88
1, 122799, Control_c, 0, 64, 84
1, 122818, Control_c, 0, 64, 78
1, 122837, Control_c, 0, 64, 72
1, 122855, Control_c, 0, 64, 65
1, 122874, Control_c, 0, 64, 58
1, 122893, Control_c, 0, 64, 50
1, 122903, Note_off_c, 0, 56, 35
1, 122911, Control_c, 0, 64, 47
1, 122930, Control_c, 0, 64, 50
1, 122950, Control_c, 0, 64, 55
1, 122968, Control_c, 0, 64, 61
1, 122986, Control_c, 0, 64, 67
1, 123006, Control_c, 0, 64, 74
1, 123024, Control_c, 0, 64, 79
1, 123043, Control_c, 0, 64, 86
1, 123061, Control_c, 0, 64, 93
1, 123079, Control_c, 0, 64, 99
1, 123099, Control_c, 0, 64, 107
1, 123118, Control_c, 0, 64, 113
1, 123132, Note_off_c, 0, 60, 53
1, 123132, Note_on_c, 0, 44, 38
1, 123132, Poly_aftertouch_c, 0, 60, 0
1, 123136, Control_c, 0, 64, 117
1, 123173, Control_c, 0, 64, 122
1, 123205, Note_off_c, 0, 54, 52
1, 123241, Note_off_c, 0, 51, 36
1, 123642, Control_c, 0, 64, 117
1, 123666, Note_on_c, 0, 65, 39
1, 123669, Note_on_c, 0, 61, 36
1, 123674, Note_on_c, 0, 53, 36
1, 123682, Note_on_c, 0, 56, 39
1, 123695, Control_c, 0, 64, 113
1, 123699, Note_on_c, 0, 49, 41
1, 123712, Note_on_c, 0, 37, 42
1, 123736, Control_c, 0, 64, 108
1, 123753, Control_c, 0, 64, 104
1, 123773, Control_c, 0, 64, 99
1, 123790, Control_c, 0, 64, 92
1, 123809, Control_c, 0, 64, 84
1, 123828, Control_c, 0, 64, 74
1, 123847, Control_c, 0, 64, 63
1, 123864, Control_c, 0, 64, 52
1, 123884, Control_c, 0, 64, 36
1, 123902, Control_c, 0, 64, 18
1, 123922, Control_c, 0, 64, 10
1, 123959, Control_c, 0, 64, 21
1, 123977, Control_c, 0, 64, 28
1, 123996, Control_c, 0, 64, 36
1, 124014, Control_c, 0, 64, 46
1, 124034, Control_c, 0, 64, 56
1, 124053, Control_c, 0, 64, 65
1, 124071, Control_c, 0, 64, 70
1, 124090, Control_c, 0, 64, 72
1, 124146, Control_c, 0, 64, 74
1, 124184, Control_c, 0, 64, 78
1, 124201, Control_c, 0, 64, 81
1, 124222, Control_c, 0, 64, 83
1, 124258, Control_c, 0, 64, 85
1, 124296, Control_c, 0, 64, 87
1, 124334, Control_c, 0, 64, 95
1, 124351, Control_c, 0, 64, 100
1, 124389, Control_c, 0, 64, 106
1, 124445, Control_c, 0, 64, 114
1, 124463, Control_c, 0, 64, 119
1, 124483, Control_c, 0, 64, 124
1, 124868, Note_off_c, 0, 49, 31
1, 124878, Note_off_c, 0, 37, 36
1, 124949, Note_off_c, 0, 44, 29
1, 124949, Poly_aftertouch_c, 0, 44, 0
1, 125014, Note_off_c, 0, 53, 35
1, 125014, Poly_aftertouch_c, 0, 53, 0
1, 125017, Note_off_c, 0, 56, 38
1, 125023, Note_off_c, 0, 61, 36
1, 125046, Note_off_c, 0, 65, 36
1, 125194, Control_c, 0, 64, 116
1, 125212, Control_c, 0, 64, 103
1, 125230, Control_c, 0, 64, 88
1, 125249, Control_c, 0, 64, 71
1, 125267, Control_c, 0, 64, 55
1, 125287, Control_c, 0, 64, 35
1, 125305, Control_c, 0, 64, 0
1, 125417, Control_c, 0, 64, 18
1, 125436, Control_c, 0, 64, 33
1, 125455, Control_c, 0, 64, 46
1, 125473, Control_c, 0, 64, 58
1, 125492, Control_c, 0, 64, 68
1, 125511, Control_c, 0, 64, 73
1, 125529, Control_c, 0, 64, 77
1, 125548, Control_c, 0, 64, 80
1, 125566, Control_c, 0, 64, 83
1, 125586, Control_c, 0, 64, 88
1, 125604, Control_c, 0, 64, 94
1, 125623, Control_c, 0, 64, 101
1, 125643, Control_c, 0, 64, 107
1, 125660, Control_c, 0, 64, 112
1, 125699, Control_c, 0, 64, 118
1, 125735, Control_c, 0, 64, 125
1, 126046, Note_on_c, 0, 65, 29
1, 126051, Note_on_c, 0, 56, 29
1, 126064, Note_on_c, 0, 49, 22
1, 126066, Note_on_c, 0, 53, 19
1, 126072, Note_on_c, 0, 61, 25
1, 126074, Note_on_c, 0, 44, 29
1, 126080, Note_on_c, 0, 37, 25
1, 127434, Note_off_c, 0, 49, 34
1, 127447, Note_off_c, 0, 37, 35
1, 127469, Poly_aftertouch_c, 0, 61, 24
1, 127472, Note_off_c, 0, 44, 38
1, 127472, Poly_aftertouch_c, 0, 44, 0
1, 127478, Note_off_c, 0, 53, 37
1, 127478, Poly_aftertouch_c, 0, 53, 0
1, 127492, Note_off_c, 0, 56, 38
1, 127505, Note_off_c, 0, 65, 40
1, 127512, Note_off_c, 0, 61, 40
1, 127512, Poly_aftertouch_c, 0, 61, 0
1, 127531, Control_c, 0, 64, 115
1, 127549, Control_c, 0, 64, 103
1, 127567, Control_c, 0, 64, 92
1, 127586, Control_c, 0, 64, 80
1, 127606, Control_c, 0, 64, 67
1, 127623, Control_c, 0, 64, 54
1, 127644, Control_c, 0, 64, 32
1, 127661, Control_c, 0, 64, 0
1, 127811, Control_c, 0, 64, 23
1, 127829, Control_c, 0, 64, 39
1, 127848, Control_c, 0, 64, 53
1, 127867, Control_c, 0, 64, 66
1, 127885, Control_c, 0, 64, 74
1, 127904, Control_c, 0, 64, 79
1, 127924, Control_c, 0, 64, 84
1, 127942, Control_c, 0, 64, 88
1, 127960, Control_c, 0, 64, 93
1, 127979, Control_c, 0, 64, 97
1, 127998, Control_c, 0, 64, 102
1, 128035, Control_c, 0, 64, 110
1, 128054, Control_c, 0, 64, 114
1, 128074, Control_c, 0, 64, 118
1, 128090, Control_c, 0, 64, 122
1, 128110, Control_c, 0, 64, 126
1, 128561, Note_on_c, 0, 65, 23
1, 128570, Note_on_c, 0, 53, 16
1, 128571, Note_on_c, 0, 56, 21
1, 128582, Note_on_c, 0, 61, 21
1, 128583, Note_on_c, 0, 37, 24
1, 128586, Note_on_c, 0, 49, 15
1, 128591, Note_on_c, 0, 44, 26
1, 130643, Poly_aftertouch_c, 0, 53, 24
1, 130731, Note_off_c, 0, 53, 31
1, 130731, Poly_aftertouch_c, 0, 53, 0
1, 130797, Poly_aftertouch_c, 0, 61, 24
1, 130809, Note_off_c, 0, 56, 36
1, 130843, Note_off_c, 0, 65, 37
1, 130852, Note_off_c, 0, 61, 38
1, 130852, Poly_aftertouch_c, 0, 61, 0
1, 130854, Poly_aftertouch_c, 0, 49, 24
1, 130943, Note_off_c, 0, 49, 30
1, 130943, Poly_aftertouch_c, 0, 49, 0
1, 130971, Note_off_c, 0, 37, 31
1, 131176, Control_c, 0, 67, 118
1, 131230, Note_off_c, 0, 44, 39
1, 131230, Poly_aftertouch_c, 0, 44, 0
1, 131307, Control_c, 0, 67, 114
1, 131381, Control_c, 0, 67, 110
1, 131457, Control_c, 0, 64, 102
1, 131475, Control_c, 0, 64, 78
1, 131495, Control_c, 0, 64, 57
1, 131512, Control_c, 0, 64, 47
1, 131531, Control_c, 0, 64, 45
1, 131661, Note_on_c, 0, 48, 61
1, 131668, Note_on_c, 0, 36, 64
1, 131697, Note_off_c, 0, 48, 64
1, 131699, Note_off_c, 0, 36, 64
1, 131787, Note_on_c, 0, 46, 79
1, 131794, Note_on_c, 0, 34, 81
1, 131830, Note_off_c, 0, 46, 62
1, 131834, Note_off_c, 0, 34, 67
1, 131931, Note_on_c, 0, 32, 88
1, 131934, Note_on_c, 0, 44, 85
1, 131966, Note_off_c, 0, 32, 67
1, 131969, Note_off_c, 0, 44, 69
1, 131969, Poly_aftertouch_c, 0, 44, 0
1, 132070, Note_on_c, 0, 48, 88
1, 132074, Note_on_c, 0, 36, 84
1, 132102, Note_off_c, 0, 48, 71
1, 132110, Note_off_c, 0, 36, 69
1, 132205, Note_on_c, 0, 43, 93
1, 132208, Note_on_c, 0, 31, 94
1, 132244, Note_off_c, 0, 43, 65
1, 132247, Note_off_c, 0, 31, 66
1, 132261, Control_c, 0, 64, 43
1, 132279, Control_c, 0, 64, 39
1, 132299, Control_c, 0, 64, 28
1, 132335, Control_c, 0, 64, 0
1, 132340, Note_on_c, 0, 48, 91
1, 132342, Note_on_c, 0, 36, 88
1, 132355, Control_c, 0, 67, 104
1, 132370, Note_off_c, 0, 48, 72
1, 132374, Control_c, 0, 67, 98
1, 132383, Note_off_c, 0, 36, 67
1, 132392, Control_c, 0, 67, 87
1, 132411, Control_c, 0, 67, 69
1, 132429, Control_c, 0, 67, 42
1, 132466, Control_c, 0, 67, 0
1, 132491, Note_on_c, 0, 42, 101
1, 132495, Note_on_c, 0, 30, 98
1, 132522, Control_c, 0, 64, 29
1, 132528, Note_off_c, 0, 30, 72
1, 132536, Note_off_c, 0, 42, 66
1, 132541, Control_c, 0, 64, 89
1, 132560, Control_c, 0, 64, 127
1, 132760, Note_on_c, 0, 93, 82
1, 132762, Note_on_c, 0, 81, 77
1, 132815, Note_off_c, 0, 81, 61
1, 132820, Note_off_c, 0, 93, 64
1, 132887, Note_on_c, 0, 91, 91
1, 132888, Note_on_c, 0, 54, 72
1, 132894, Note_on_c, 0, 79, 84
1, 132908, Note_on_c, 0, 57, 66
1, 132918, Note_on_c, 0, 60, 67
1, 132926, Note_off_c, 0, 79, 63
1, 132936, Note_on_c, 0, 63, 68
1, 132947, Note_off_c, 0, 91, 65
1, 132976, Note_off_c, 0, 57, 62
1, 132981, Note_off_c, 0, 54, 61
1, 133020, Note_on_c, 0, 69, 82
1, 133031, Note_off_c, 0, 60, 61
1, 133031, Poly_aftertouch_c, 0, 60, 0
1, 133033, Note_on_c, 0, 78, 94
1, 133035, Note_on_c, 0, 90, 90
1, 133078, Note_off_c, 0, 63, 62
1, 133083, Note_off_c, 0, 78, 64
1, 133090, Note_off_c, 0, 90, 65
1, 133093, Note_off_c, 0, 69, 59
1, 133166, Note_on_c, 0, 93, 87
1, 133168, Note_on_c, 0, 81, 88
1, 133180, Note_on_c, 0, 95, 80
1, 133181, Note_off_c, 0, 95, 127
1, 133200, Note_off_c, 0, 81, 65
1, 133205, Note_off_c, 0, 93, 63
1, 133295, Note_on_c, 0, 88, 96
1, 133295, Note_on_c, 0, 76, 99
1, 133337, Note_off_c, 0, 76, 66
1, 133338, Note_off_c, 0, 88, 69
1, 133424, Note_on_c, 0, 93, 99
1, 133428, Note_on_c, 0, 81, 97
1, 133460, Note_off_c, 0, 93, 58
1, 133470, Note_off_c, 0, 81, 62
1, 133514, Control_c, 0, 64, 111
1, 133533, Control_c, 0, 64, 67
1, 133551, Control_c, 0, 64, 66
1, 133563, Note_on_c, 0, 75, 105
1, 133565, Note_on_c, 0, 87, 99
1, 133570, Control_c, 0, 64, 93
1, 133589, Control_c, 0, 64, 127
1, 133607, Note_off_c, 0, 75, 68
1, 133629, Note_off_c, 0, 87, 62
1, 133826, Note_on_c, 0, 45, 88
1, 133836, Note_on_c, 0, 33, 85
1, 133871, Note_off_c, 0, 33, 67
1, 133872, Note_off_c, 0, 45, 61
1, 133945, Note_on_c, 0, 43, 86
1, 133956, Note_on_c, 0, 33, 72
1, 133965, Note_on_c, 0, 31, 78
1, 133982, Note_off_c, 0, 43, 67
1, 133991, Note_off_c, 0, 33, 65
1, 134001, Note_off_c, 0, 31, 62
1, 134082, Note_on_c, 0, 93, 95
1, 134084, Note_on_c, 0, 84, 100
1, 134084, Note_on_c, 0, 96, 102
1, 134085, Note_on_c, 0, 42, 96
1, 134085, Note_on_c, 0, 87, 95
1, 134089, Note_on_c, 0, 30, 97
1, 134113, Control_c, 0, 64, 80
1, 134124, Note_off_c, 0, 42, 63
1, 134129, Note_off_c, 0, 30, 66
1, 134130, Control_c, 0, 64, 62
1, 134150, Control_c, 0, 64, 81
1, 134168, Control_c, 0, 64, 120
1, 134186, Control_c, 0, 64, 127
1, 134209, Note_on_c, 0, 45, 95
1, 134217, Note_on_c, 0, 33, 88
1, 134226, Poly_aftertouch_c, 0, 32, 0
1, 134250, Note_off_c, 0, 45, 63
1, 134265, Note_off_c, 0, 33, 59
1, 134357, Note_on_c, 0, 40, 87
1, 134361, Note_on_c, 0, 38, 87
1, 134362, Note_on_c, 0, 28, 82
1, 134363, Note_on_c, 0, 26, 89
1, 134393, Note_off_c, 0, 38, 66
1, 134395, Note_off_c, 0, 26, 64
1, 134395, Note_off_c, 0, 40, 66
1, 134403, Note_off_c, 0, 28, 66
1, 134479, Note_on_c, 0, 45, 98
1, 134483, Poly_aftertouch_c, 0, 27, 0
1, 134486, Note_on_c, 0, 33, 88
1, 134514, Note_off_c, 0, 45, 66
1, 134527, Note_off_c, 0, 33, 64
1, 134580, Control_c, 0, 64, 89
1, 134584, Poly_aftertouch_c, 0, 38, 0
1, 134598, Control_c, 0, 64, 0
1, 134602, Poly_aftertouch_c, 0, 35, 0
1, 134613, Note_off_c, 0, 84, 62
1, 134621, Note_on_c, 0, 39, 110
1, 134626, Note_on_c, 0, 27, 107
1, 134630, Note_off_c, 0, 93, 61
1, 134631, Note_off_c, 0, 96, 60
1, 134635, Control_c, 0, 64, 27
1, 134649, Note_off_c, 0, 87, 61
1, 134654, Note_off_c, 0, 27, 75
1, 134654, Control_c, 0, 64, 80
1, 134668, Note_off_c, 0, 39, 62
1, 134672, Control_c, 0, 64, 127
1, 134767, Note_on_c, 0, 85, 11
1, 134848, Note_off_c, 0, 85, 35
1, 134900, Note_on_c, 0, 96, 93
1, 134902, Note_on_c, 0, 84, 86
1, 134950, Note_off_c, 0, 96, 66
1, 134950, Note_off_c, 0, 84, 65
1, 135013, Note_on_c, 0, 51, 80
1, 135023, Note_on_c, 0, 95, 97
1, 135029, Note_on_c, 0, 83, 92
1, 135047, Note_on_c, 0, 57, 68
1, 135076, Note_on_c, 0, 60, 69
1, 135077, Note_off_c, 0, 83, 65
1, 135080, Note_off_c, 0, 95, 66
1, 135089, Note_off_c, 0, 51, 62
1, 135122, Control_c, 0, 64, 105
1, 135140, Control_c, 0, 64, 90
1, 135142, Note_on_c, 0, 66, 95
1, 135157, Note_on_c, 0, 93, 102
1, 135158, Control_c, 0, 64, 111
1, 135160, Note_on_c, 0, 81, 98
1, 135177, Control_c, 0, 64, 127
1, 135203, Note_off_c, 0, 60, 62
1, 135203, Poly_aftertouch_c, 0, 60, 0
1, 135204, Note_off_c, 0, 81, 66
1, 135207, Note_off_c, 0, 93, 68
1, 135215, Note_off_c, 0, 57, 61
1, 135236, Note_off_c, 0, 66, 63
1, 135283, Note_on_c, 0, 96, 102
1, 135284, Note_on_c, 0, 84, 99
1, 135322, Note_off_c, 0, 84, 69
1, 135324, Note_off_c, 0, 96, 66
1, 135416, Note_on_c, 0, 79, 104
1, 135416, Note_on_c, 0, 91, 101
1, 135454, Note_off_c, 0, 79, 68
1, 135457, Note_off_c, 0, 91, 66
1, 135541, Note_on_c, 0, 96, 105
1, 135542, Note_on_c, 0, 84, 99
1, 135578, Note_off_c, 0, 84, 66
1, 135585, Note_off_c, 0, 96, 66
1, 135626, Control_c, 0, 64, 89
1, 135646, Control_c, 0, 64, 40
1, 135664, Control_c, 0, 64, 44
1, 135678, Note_on_c, 0, 78, 106
1, 135682, Control_c, 0, 64, 80
1, 135683, Note_on_c, 0, 90, 101
1, 135702, Control_c, 0, 64, 127
1, 135726, Note_off_c, 0, 78, 65
1, 135726, Note_off_c, 0, 90, 67
1, 135726, Note_on_c, 0, 77, 38
1, 135765, Note_off_c, 0, 77, 54
1, 135765, Poly_aftertouch_c, 0, 77, 0
1, 135953, Note_on_c, 0, 30, 97
1, 135955, Note_on_c, 0, 42, 97
1, 135991, Note_on_c, 0, 93, 32
1, 135996, Note_off_c, 0, 42, 65
1, 135996, Note_on_c, 0, 29, 50
1, 136003, Note_off_c, 0, 30, 63
1, 136038, Note_off_c, 0, 93, 45
1, 136045, Note_off_c, 0, 29, 48
1, 136081, Note_on_c, 0, 40, 98
1, 136089, Note_on_c, 0, 28, 91
1, 136135, Note_off_c, 0, 28, 65
1, 136136, Note_off_c, 0, 40, 63
1, 136150, Note_on_c, 0, 30, 21
1, 136174, Note_off_c, 0, 30, 69
1, 136243, Control_c, 0, 64, 117
1, 136260, Note_on_c, 0, 93, 101
1, 136263, Control_c, 0, 64, 59
1, 136264, Note_on_c, 0, 99, 99
1, 136264, Note_on_c, 0, 90, 107
1, 136264, Note_on_c, 0, 102, 106
1, 136269, Note_on_c, 0, 27, 96
1, 136269, Note_on_c, 0, 39, 99
1, 136290, Control_c, 0, 64, 0
1, 136295, Note_on_c, 0, 30, 35
1, 136296, Note_off_c, 0, 30, 127
1, 136298, Control_c, 0, 64, 50
1, 136301, Note_off_c, 0, 39, 66
1, 136303, Note_off_c, 0, 27, 70
1, 136314, Note_on_c, 0, 26, 39
1, 136315, Note_off_c, 0, 26, 127
1, 136317, Control_c, 0, 64, 96
1, 136327, Note_on_c, 0, 100, 14
1, 136335, Control_c, 0, 64, 127
1, 136368, Note_off_c, 0, 100, 33
1, 136378, Poly_aftertouch_c, 0, 26, 0
1, 136394, Note_on_c, 0, 37, 9
1, 136402, Note_off_c, 0, 37, 32
1, 136420, Note_on_c, 0, 42, 99
1, 136430, Note_on_c, 0, 30, 98
1, 136461, Note_off_c, 0, 42, 65
1, 136461, Note_off_c, 0, 30, 71
1, 136506, Control_c, 0, 64, 99
1, 136524, Control_c, 0, 64, 79
1, 136544, Control_c, 0, 64, 96
1, 136561, Control_c, 0, 64, 127
1, 136568, Note_on_c, 0, 37, 99
1, 136570, Note_on_c, 0, 25, 103
1, 136602, Note_off_c, 0, 25, 70
1, 136608, Note_off_c, 0, 37, 61
1, 136701, Note_on_c, 0, 42, 100
1, 136704, Note_on_c, 0, 30, 96
1, 136727, Poly_aftertouch_c, 0, 27, 0
1, 136735, Note_off_c, 0, 42, 69
1, 136747, Note_off_c, 0, 30, 64
1, 136747, Note_on_c, 0, 29, 49
1, 136793, Note_off_c, 0, 29, 51
1, 136806, Control_c, 0, 64, 96
1, 136811, Note_off_c, 0, 93, 60
1, 136823, Control_c, 0, 64, 11
1, 136827, Note_off_c, 0, 99, 60
1, 136842, Control_c, 0, 64, 0
1, 136858, Note_on_c, 0, 36, 108
1, 136861, Note_on_c, 0, 24, 98
1, 136861, Control_c, 0, 64, 48
1, 136863, Note_off_c, 0, 90, 62
1, 136865, Note_off_c, 0, 102, 61
1, 136880, Control_c, 0, 64, 98
1, 136898, Control_c, 0, 64, 127
1, 136899, Note_off_c, 0, 24, 65
1, 136905, Note_off_c, 0, 36, 68
1, 136910, Note_on_c, 0, 26, 28
1, 136911, Note_off_c, 0, 26, 127
1, 136973, Poly_aftertouch_c, 0, 27, 127
1, 136975, Poly_aftertouch_c, 0, 26, 0
1, 137002, Poly_aftertouch_c, 0, 27, 0
1, 137131, Note_on_c, 0, 90, 92
1, 137135, Note_on_c, 0, 102, 92
1, 137190, Note_off_c, 0, 90, 63
1, 137202, Note_off_c, 0, 102, 64
1, 137276, Note_on_c, 0, 100, 97
1, 137276, Note_on_c, 0, 88, 89
1, 137307, Note_on_c, 0, 48, 69
1, 137323, Note_off_c, 0, 88, 64
1, 137323, Note_on_c, 0, 51, 60
1, 137336, Note_off_c, 0, 100, 64
1, 137339, Note_on_c, 0, 54, 63
1, 137368, Note_on_c, 0, 57, 56
1, 137414, Note_off_c, 0, 48, 63
1, 137421, Note_on_c, 0, 87, 102
1, 137421, Note_on_c, 0, 63, 102
1, 137421, Note_on_c, 0, 99, 101
1, 137460, Note_on_c, 0, 61, 43
1, 137460, Poly_aftertouch_c, 0, 61, 0
1, 137461, Note_off_c, 0, 87, 67
1, 137461, Note_off_c, 0, 61, 127
1, 137468, Note_off_c, 0, 63, 70
1, 137483, Note_off_c, 0, 99, 64
1, 137492, Note_off_c, 0, 51, 60
1, 137505, Poly_aftertouch_c, 0, 61, 0
1, 137516, Note_off_c, 0, 57, 63
1, 137521, Note_off_c, 0, 54, 64
1, 137561, Note_on_c, 0, 90, 104
1, 137563, Note_on_c, 0, 102, 104
1, 137601, Note_off_c, 0, 90, 68
1, 137612, Note_off_c, 0, 102, 65
1, 137701, Note_on_c, 0, 85, 102
1, 137706, Note_on_c, 0, 97, 103
1, 137742, Note_off_c, 0, 85, 68
1, 137760, Note_off_c, 0, 97, 63
1, 137842, Note_on_c, 0, 90, 97
1, 137846, Note_on_c, 0, 102, 101
1, 137887, Note_off_c, 0, 90, 66
1, 137900, Note_off_c, 0, 102, 60
1, 137946, Control_c, 0, 64, 94
1, 137963, Control_c, 0, 64, 55
1, 137983, Control_c, 0, 64, 63
1, 137996, Note_on_c, 0, 44, 108
1, 137999, Note_on_c, 0, 32, 87
1, 138002, Control_c, 0, 64, 95
1, 138005, Note_on_c, 0, 84, 104
1, 138006, Note_on_c, 0, 96, 105
1, 138020, Control_c, 0, 64, 127
1, 138039, Note_off_c, 0, 32, 63
1, 138040, Note_off_c, 0, 84, 69
1, 138044, Note_off_c, 0, 44, 69
1, 138044, Poly_aftertouch_c, 0, 44, 0
1, 138051, Note_off_c, 0, 96, 65
1, 138107, Poly_aftertouch_c, 0, 34, 0
1, 138148, Note_on_c, 0, 90, 101
1, 138154, Note_on_c, 0, 102, 102
1, 138190, Note_off_c, 0, 90, 66
1, 138194, Note_off_c, 0, 102, 61
1, 138304, Note_on_c, 0, 81, 102
1, 138305, Note_on_c, 0, 93, 101
1, 138342, Note_off_c, 0, 81, 71
1, 138355, Note_off_c, 0, 93, 66
1, 138450, Note_on_c, 0, 90, 101
1, 138452, Note_on_c, 0, 56, 66
1, 138453, Note_on_c, 0, 102, 101
1, 138493, Note_off_c, 0, 102, 62
1, 138496, Note_off_c, 0, 90, 64
1, 138496, Note_on_c, 0, 60, 63
1, 138536, Note_on_c, 0, 63, 70
1, 138540, Note_on_c, 0, 66, 69
1, 138567, Note_off_c, 0, 56, 62
1, 138582, Note_off_c, 0, 60, 63
1, 138582, Poly_aftertouch_c, 0, 60, 0
1, 138613, Note_on_c, 0, 72, 97
1, 138621, Note_on_c, 0, 80, 113
1, 138624, Note_on_c, 0, 92, 108
1, 138652, Note_off_c, 0, 72, 67
1, 138659, Note_off_c, 0, 80, 70
1, 138659, Note_on_c, 0, 90, 47
1, 138677, Note_off_c, 0, 63, 62
1, 138678, Note_off_c, 0, 92, 66
1, 138683, Note_off_c, 0, 66, 64
1, 138692, Note_off_c, 0, 90, 59
1, 138790, Note_on_c, 0, 99, 104
1, 138793, Note_on_c, 0, 87, 107
1, 138833, Note_off_c, 0, 87, 64
1, 138842, Note_off_c, 0, 99, 64
1, 138961, Note_on_c, 0, 78, 104
1, 138965, Note_on_c, 0, 90, 99
1, 139006, Note_off_c, 0, 78, 68
1, 139026, Note_off_c, 0, 90, 61
1, 139141, Note_on_c, 0, 99, 97
1, 139142, Note_on_c, 0, 87, 89
1, 139184, Note_on_c, 0, 44, 76
1, 139189, Note_off_c, 0, 87, 60
1, 139194, Note_off_c, 0, 99, 61
1, 139226, Note_on_c, 0, 51, 68
1, 139273, Control_c, 0, 64, 99
1, 139292, Control_c, 0, 64, 32
1, 139297, Note_on_c, 0, 54, 51
1, 139310, Control_c, 0, 64, 0
1, 139332, Note_on_c, 0, 56, 105
1, 139347, Control_c, 0, 64, 62
1, 139348, Note_on_c, 0, 88, 102
1, 139350, Note_on_c, 0, 76, 108
1, 139366, Control_c, 0, 64, 114
1, 139385, Control_c, 0, 64, 127
1, 139393, Note_off_c, 0, 76, 67
1, 139408, Note_off_c, 0, 88, 67
1, 139410, Note_on_c, 0, 85, 24
1, 139467, Note_off_c, 0, 85, 50
1, 139569, Note_on_c, 0, 96, 105
1, 139570, Note_on_c, 0, 84, 105
1, 139573, Note_off_c, 0, 56, 58
1, 139613, Note_off_c, 0, 84, 69
1, 139618, Note_off_c, 0, 96, 68
1, 139620, Note_on_c, 0, 94, 33
1, 139621, Note_off_c, 0, 94, 127
1, 139629, Note_off_c, 0, 54, 61
1, 139637, Note_off_c, 0, 44, 57
1, 139637, Poly_aftertouch_c, 0, 44, 0
1, 139647, Note_off_c, 0, 51, 57
1, 139791, Note_on_c, 0, 75, 104
1, 139797, Note_on_c, 0, 87, 101
1, 139827, Note_on_c, 0, 88, 59
1, 139834, Note_off_c, 0, 75, 68
1, 139844, Note_off_c, 0, 87, 63
1, 139856, Note_off_c, 0, 88, 64
1, 140058, Note_on_c, 0, 96, 104
1, 140058, Control_c, 0, 64, 113
1, 140060, Note_on_c, 0, 84, 102
1, 140077, Control_c, 0, 64, 47
1, 140083, Note_on_c, 0, 37, 80
1, 140096, Control_c, 0, 64, 0
1, 140172, Note_on_c, 0, 44, 81
1, 140189, Control_c, 0, 64, 82
1, 140208, Control_c, 0, 64, 127
1, 140239, Note_off_c, 0, 84, 59
1, 140244, Note_off_c, 0, 96, 63
1, 140432, Control_c, 0, 64, 108
1, 140451, Control_c, 0, 64, 50
1, 140459, Note_on_c, 0, 85, 114
1, 140460, Note_on_c, 0, 88, 92
1, 140461, Note_on_c, 0, 92, 98
1, 140462, Note_on_c, 0, 97, 105
1, 140467, Note_on_c, 0, 52, 98
1, 140470, Control_c, 0, 64, 31
1, 140488, Control_c, 0, 64, 87
1, 140496, Note_off_c, 0, 37, 60
1, 140508, Note_on_c, 0, 94, 50
1, 140508, Control_c, 0, 64, 127
1, 140523, Note_off_c, 0, 44, 63
1, 140523, Poly_aftertouch_c, 0, 44, 0
1, 140529, Note_off_c, 0, 52, 65
1, 140536, Note_off_c, 0, 94, 60
1, 140543, Note_off_c, 0, 97, 65
1, 140553, Note_off_c, 0, 85, 65
1, 140565, Note_off_c, 0, 88, 65
1, 140572, Note_off_c, 0, 92, 64
1, 141067, Note_on_c, 0, 88, 100
1, 141067, Control_c, 0, 64, 109
1, 141071, Note_on_c, 0, 80, 98
1, 141072, Note_on_c, 0, 76, 101
1, 141078, Note_on_c, 0, 73, 96
1, 141080, Note_on_c, 0, 61, 72
1, 141080, Note_on_c, 0, 68, 84
1, 141085, Control_c, 0, 64, 48
1, 141105, Control_c, 0, 64, 0
1, 141123, Control_c, 0, 64, 52
1, 141136, Note_off_c, 0, 73, 67
1, 141142, Control_c, 0, 64, 92
1, 141162, Control_c, 0, 64, 127
1, 141169, Note_off_c, 0, 68, 65
1, 141200, Note_off_c, 0, 76, 63
1, 141211, Note_off_c, 0, 80, 64
1, 141458, Note_off_c, 0, 61, 62
1, 141459, Note_on_c, 0, 87, 86
1, 141464, Note_off_c, 0, 88, 65
1, 141487, Note_on_c, 0, 63, 66
1, 141521, Note_on_c, 0, 64, 75
1, 141535, Note_on_c, 0, 85, 90
1, 141542, Note_off_c, 0, 63, 61
1, 141564, Note_off_c, 0, 64, 62
1, 141575, Note_off_c, 0, 87, 62
1, 141619, Note_off_c, 0, 85, 64
1, 141665, Control_c, 0, 64, 115
1, 141685, Control_c, 0, 64, 62
1, 141698, Note_on_c, 0, 92, 102
1, 141698, Note_on_c, 0, 85, 107
1, 141698, Note_on_c, 0, 80, 111
1, 141703, Control_c, 0, 64, 46
1, 141709, Note_on_c, 0, 77, 99
1, 141715, Note_on_c, 0, 65, 85
1, 141721, Note_on_c, 0, 73, 82
1, 141721, Control_c, 0, 64, 83
1, 141725, Note_on_c, 0, 68, 74
1, 141741, Control_c, 0, 64, 127
1, 141747, Note_off_c, 0, 77, 61
1, 141747, Poly_aftertouch_c, 0, 77, 0
1, 141753, Note_off_c, 0, 65, 64
1, 141760, Note_off_c, 0, 73, 61
1, 141771, Note_off_c, 0, 68, 63
1, 141783, Note_off_c, 0, 92, 69
1, 141822, Note_off_c, 0, 80, 62
1, 141827, Note_off_c, 0, 85, 62
1, 142215, Poly_aftertouch_c, 0, 49, 0
1, 142247, Control_c, 0, 64, 109
1, 142264, Control_c, 0, 64, 46
1, 142271, Note_on_c, 0, 48, 99
1, 142276, Note_on_c, 0, 60, 105
1, 142276, Note_on_c, 0, 36, 93
1, 142283, Control_c, 0, 64, 0
1, 142302, Control_c, 0, 64, 55
1, 142318, Note_off_c, 0, 36, 66
1, 142318, Note_on_c, 0, 39, 40
1, 142319, Control_c, 0, 64, 95
1, 142320, Note_off_c, 0, 48, 68
1, 142339, Control_c, 0, 64, 127
1, 142340, Note_off_c, 0, 60, 70
1, 142340, Poly_aftertouch_c, 0, 60, 0
1, 142372, Note_off_c, 0, 39, 53
1, 142412, Poly_aftertouch_c, 0, 44, 0
1, 142712, Poly_aftertouch_c, 0, 66, 127
1, 142730, Poly_aftertouch_c, 0, 66, 0
1, 142895, Note_on_c, 0, 92, 102
1, 142896, Note_on_c, 0, 80, 98
1, 142899, Control_c, 0, 64, 84
1, 142900, Note_on_c, 0, 85, 94
1, 142909, Note_on_c, 0, 77, 102
1, 142910, Note_on_c, 0, 65, 88
1, 142911, Note_on_c, 0, 73, 95
1, 142918, Control_c, 0, 64, 39
1, 142921, Note_on_c, 0, 82, 71
1, 142930, Note_on_c, 0, 86, 69
1, 142936, Control_c, 0, 64, 55
1, 142941, Note_on_c, 0, 93, 44
1, 142943, Note_on_c, 0, 81, 56
1, 142956, Control_c, 0, 64, 94
1, 142976, Control_c, 0, 64, 127
1, 142980, Note_off_c, 0, 93, 36
1, 143025, Note_off_c, 0, 86, 62
1, 143030, Note_off_c, 0, 81, 57
1, 143035, Note_off_c, 0, 77, 56
1, 143035, Poly_aftertouch_c, 0, 77, 0
1, 143042, Note_off_c, 0, 85, 62
1, 143045, Note_off_c, 0, 73, 63
1, 143053, Note_off_c, 0, 82, 54
1, 143053, Poly_aftertouch_c, 0, 82, 0
1, 143058, Note_off_c, 0, 80, 64
1, 143278, Note_off_c, 0, 92, 57
1, 143285, Note_on_c, 0, 90, 89
1, 143294, Note_off_c, 0, 65, 61
1, 143295, Note_on_c, 0, 66, 76
1, 143363, Note_on_c, 0, 89, 89
1, 143395, Note_off_c, 0, 66, 65
1, 143400, Note_off_c, 0, 90, 62
1, 143483, Note_off_c, 0, 89, 57
1, 143488, Poly_aftertouch_c, 0, 68, 0
1, 143640, Note_on_c, 0, 85, 108
1, 143641, Note_on_c, 0, 97, 105
1, 143644, Note_on_c, 0, 92, 93
1, 143646, Note_on_c, 0, 89, 95
1, 143649, Control_c, 0, 64, 105
1, 143656, Note_on_c, 0, 47, 101
1, 143662, Note_on_c, 0, 35, 96
1, 143667, Control_c, 0, 64, 43
1, 143685, Control_c, 0, 64, 0
1, 143694, Note_on_c, 0, 42, 45
1, 143702, Note_on_c, 0, 45, 38
1, 143703, Note_off_c, 0, 45, 127
1, 143724, Control_c, 0, 64, 50
1, 143743, Control_c, 0, 64, 94
1, 143746, Note_on_c, 0, 94, 7
1, 143758, Note_off_c, 0, 97, 65
1, 143760, Note_off_c, 0, 42, 32
1, 143760, Control_c, 0, 64, 127
1, 143786, Note_off_c, 0, 89, 62
1, 143786, Note_off_c, 0, 92, 64
1, 143787, Note_off_c, 0, 94, 47
1, 143791, Note_off_c, 0, 85, 62
1, 143797, Poly_aftertouch_c, 0, 37, 127
1, 143861, Note_on_c, 0, 84, 11
1, 143863, Note_off_c, 0, 84, 35
1, 143876, Poly_aftertouch_c, 0, 37, 0
1, 143973, Note_off_c, 0, 47, 55
1, 143988, Note_off_c, 0, 35, 56
1, 144210, Control_c, 0, 64, 105
1, 144229, Control_c, 0, 64, 28
1, 144247, Control_c, 0, 64, 0
1, 144256, Note_on_c, 0, 58, 108
1, 144262, Note_on_c, 0, 46, 104
1, 144269, Note_on_c, 0, 34, 97
1, 144283, Control_c, 0, 64, 43
1, 144303, Control_c, 0, 64, 109
1, 144316, Note_off_c, 0, 34, 61
1, 144319, Note_off_c, 0, 46, 66
1, 144322, Control_c, 0, 64, 127
1, 144325, Note_off_c, 0, 58, 66
1, 144936, Note_on_c, 0, 97, 106
1, 144938, Note_on_c, 0, 85, 104
1, 144938, Control_c, 0, 64, 83
1, 144940, Note_on_c, 0, 90, 97
1, 144948, Note_on_c, 0, 78, 96
1, 144954, Note_on_c, 0, 66, 82
1, 144956, Note_on_c, 0, 73, 84
1, 144956, Control_c, 0, 64, 37
1, 144976, Control_c, 0, 64, 50
1, 144995, Control_c, 0, 64, 81
1, 145013, Control_c, 0, 64, 115
1, 145031, Control_c, 0, 64, 127
1, 145035, Note_off_c, 0, 78, 66
1, 145075, Note_off_c, 0, 73, 60
1, 145113, Note_off_c, 0, 90, 62
1, 145119, Note_off_c, 0, 85, 62
1, 145343, Note_off_c, 0, 97, 62
1, 145348, Note_on_c, 0, 95, 97
1, 145361, Note_on_c, 0, 68, 76
1, 145362, Note_off_c, 0, 66, 63
1, 145442, Note_on_c, 0, 94, 102
1, 145451, Note_on_c, 0, 70, 87
1, 145465, Note_off_c, 0, 68, 64
1, 145471, Note_off_c, 0, 95, 65
1, 145488, Note_off_c, 0, 70, 65
1, 145582, Note_off_c, 0, 94, 60
1, 145772, Note_on_c, 0, 102, 102
1, 145773, Note_on_c, 0, 97, 103
1, 145776, Note_on_c, 0, 90, 99
1, 145793, Note_on_c, 0, 45, 102
1, 145801, Note_on_c, 0, 33, 95
1, 145838, Control_c, 0, 64, 78
1, 145855, Control_c, 0, 64, 0
1, 145859, Note_on_c, 0, 42, 7
1, 145987, Control_c, 0, 64, 20
1, 146004, Control_c, 0, 64, 43
1, 146023, Control_c, 0, 64, 69
1, 146042, Control_c, 0, 64, 92
1, 146061, Control_c, 0, 64, 115
1, 146079, Control_c, 0, 64, 127
1, 146107, Poly_aftertouch_c, 0, 42, 20
1, 146118, Note_off_c, 0, 42, 19
1, 146118, Poly_aftertouch_c, 0, 42, 0
1, 146247, Note_off_c, 0, 90, 55
1, 146255, Note_off_c, 0, 45, 48
1, 146259, Note_off_c, 0, 33, 59
1, 146279, Note_off_c, 0, 102, 52
1, 146300, Note_off_c, 0, 97, 59
1, 146531, Note_on_c, 0, 99, 96
1, 146534, Note_on_c, 0, 96, 93
1, 146537, Note_on_c, 0, 90, 93
1, 146539, Note_on_c, 0, 102, 98
1, 146547, Control_c, 0, 64, 107
1, 146552, Note_on_c, 0, 44, 90
1, 146559, Note_on_c, 0, 32, 85
1, 146565, Control_c, 0, 64, 69
1, 146584, Control_c, 0, 64, 0
1, 146809, Control_c, 0, 64, 43
1, 146826, Control_c, 0, 64, 52
1, 146837, Note_off_c, 0, 32, 61
1, 146846, Control_c, 0, 64, 63
1, 146854, Note_off_c, 0, 44, 63
1, 146864, Control_c, 0, 64, 77
1, 146884, Control_c, 0, 64, 94
1, 146902, Control_c, 0, 64, 112
1, 146920, Control_c, 0, 64, 122
1, 146957, Control_c, 0, 64, 127
1, 147260, Note_on_c, 0, 68, 54
1, 147264, Note_on_c, 0, 56, 54
1, 147294, Control_c, 0, 64, 120
1, 147313, Control_c, 0, 64, 111
1, 147329, Note_off_c, 0, 68, 57
1, 147348, Note_off_c, 0, 56, 58
1, 147349, Control_c, 0, 64, 123
1, 147370, Control_c, 0, 64, 127
1, 147475, Note_on_c, 0, 68, 59
1, 147505, Note_on_c, 0, 56, 49
1, 147552, Note_off_c, 0, 68, 51
1, 147555, Note_off_c, 0, 56, 61
1, 147630, Control_c, 0, 64, 107
1, 147650, Control_c, 0, 64, 96
1, 147660, Note_on_c, 0, 56, 57
1, 147671, Note_on_c, 0, 68, 54
1, 147687, Control_c, 0, 64, 108
1, 147706, Control_c, 0, 64, 119
1, 147722, Note_off_c, 0, 68, 55
1, 147723, Control_c, 0, 64, 127
1, 147734, Note_off_c, 0, 56, 49
1, 147809, Note_off_c, 0, 102, 62
1, 147836, Control_c, 0, 67, 9
1, 147845, Note_off_c, 0, 99, 58
1, 147865, Note_off_c, 0, 96, 61
1, 147884, Note_off_c, 0, 90, 61
1, 147903, Note_on_c, 0, 56, 56
1, 147907, Note_on_c, 0, 68, 56
1, 147910, Control_c, 0, 67, 13
1, 147949, Control_c, 0, 67, 20
1, 147967, Control_c, 0, 67, 25
1, 147976, Note_off_c, 0, 68, 58
1, 147986, Control_c, 0, 67, 32
1, 147992, Note_off_c, 0, 56, 60
1, 148006, Control_c, 0, 67, 37
1, 148023, Control_c, 0, 67, 41
1, 148060, Control_c, 0, 67, 46
1, 148117, Control_c, 0, 67, 51
1, 148435, Control_c, 0, 64, 122
1, 148472, Control_c, 0, 64, 117
1, 148529, Control_c, 0, 64, 111
1, 148566, Control_c, 0, 64, 105
1, 148604, Control_c, 0, 64, 100
1, 148605, Control_c, 0, 67, 56
1, 148641, Control_c, 0, 64, 92
1, 148642, Control_c, 0, 67, 64
1, 148660, Control_c, 0, 64, 86
1, 148662, Control_c, 0, 67, 71
1, 148678, Control_c, 0, 64, 81
1, 148681, Control_c, 0, 67, 77
1, 148697, Note_on_c, 0, 61, 65
1, 148697, Control_c, 0, 64, 74
1, 148699, Control_c, 0, 67, 82
1, 148716, Control_c, 0, 64, 67
1, 148717, Control_c, 0, 67, 87
1, 148720, Note_on_c, 0, 52, 60
1, 148734, Control_c, 0, 64, 60
1, 148737, Note_on_c, 0, 40, 51
1, 148737, Control_c, 0, 67, 92
1, 148753, Control_c, 0, 64, 54
1, 148754, Control_c, 0, 67, 98
1, 148772, Control_c, 0, 64, 52
1, 148773, Control_c, 0, 67, 104
1, 148775, Note_on_c, 0, 68, 6
1, 148791, Control_c, 0, 64, 56
1, 148792, Control_c, 0, 67, 109
1, 148809, Control_c, 0, 64, 62
1, 148810, Control_c, 0, 67, 113
1, 148828, Control_c, 0, 64, 69
1, 148848, Control_c, 0, 64, 74
1, 148849, Control_c, 0, 67, 119
1, 148855, Note_off_c, 0, 68, 37
1, 148865, Control_c, 0, 64, 80
1, 148866, Control_c, 0, 67, 124
1, 148884, Control_c, 0, 64, 88
1, 148902, Control_c, 0, 64, 100
1, 148921, Control_c, 0, 64, 114
1, 148940, Control_c, 0, 64, 127
1, 148953, Note_on_c, 0, 56, 45
1, 148956, Note_on_c, 0, 68, 58
1, 149001, Note_off_c, 0, 56, 53
1, 149036, Note_off_c, 0, 68, 42
1, 149077, Note_off_c, 0, 40, 54
1, 149092, Note_off_c, 0, 52, 57
1, 149136, Note_on_c, 0, 56, 49
1, 149140, Note_on_c, 0, 68, 49
1, 149208, Note_off_c, 0, 56, 55
1, 149228, Note_off_c, 0, 68, 55
1, 149378, Note_on_c, 0, 68, 65
1, 149395, Note_on_c, 0, 56, 43
1, 149396, Note_on_c, 0, 51, 68
1, 149407, Control_c, 0, 64, 120
1, 149414, Note_on_c, 0, 39, 56
1, 149426, Control_c, 0, 64, 97
1, 149445, Control_c, 0, 64, 75
1, 149463, Control_c, 0, 64, 68
1, 149483, Control_c, 0, 64, 70
1, 149501, Control_c, 0, 64, 75
1, 149520, Control_c, 0, 64, 82
1, 149539, Control_c, 0, 64, 94
1, 149542, Control_c, 0, 67, 120
1, 149557, Control_c, 0, 64, 112
1, 149575, Control_c, 0, 64, 127
1, 149588, Note_off_c, 0, 39, 56
1, 149595, Note_off_c, 0, 51, 60
1, 149669, Control_c, 0, 64, 109
1, 149689, Control_c, 0, 64, 91
1, 149706, Control_c, 0, 64, 83
1, 149712, Note_on_c, 0, 49, 68
1, 149723, Note_on_c, 0, 37, 61
1, 149725, Control_c, 0, 64, 88
1, 149744, Control_c, 0, 64, 98
1, 149763, Control_c, 0, 64, 111
1, 149782, Control_c, 0, 64, 126
1, 149792, Note_off_c, 0, 61, 62
1, 149819, Control_c, 0, 67, 116
1, 149873, Note_off_c, 0, 68, 56
1, 149896, Note_off_c, 0, 56, 39
1, 149905, Note_off_c, 0, 37, 57
1, 149938, Note_off_c, 0, 49, 58
1, 150062, Control_c, 0, 67, 112
1, 150088, Note_on_c, 0, 68, 63
1, 150090, Note_on_c, 0, 60, 63
1, 150133, Note_on_c, 0, 51, 73
1, 150135, Control_c, 0, 64, 112
1, 150154, Note_on_c, 0, 39, 59
1, 150155, Control_c, 0, 64, 92
1, 150174, Control_c, 0, 64, 68
1, 150193, Control_c, 0, 64, 45
1, 150194, Control_c, 0, 67, 107
1, 150210, Note_off_c, 0, 68, 61
1, 150211, Control_c, 0, 64, 25
1, 150231, Control_c, 0, 64, 30
1, 150232, Control_c, 0, 67, 103
1, 150249, Control_c, 0, 64, 43
1, 150267, Control_c, 0, 64, 57
1, 150287, Control_c, 0, 64, 70
1, 150289, Control_c, 0, 67, 99
1, 150300, Note_on_c, 0, 68, 62
1, 150304, Control_c, 0, 64, 81
1, 150325, Control_c, 0, 64, 92
1, 150327, Note_on_c, 0, 56, 35
1, 150342, Control_c, 0, 64, 106
1, 150362, Control_c, 0, 64, 118
1, 150378, Note_off_c, 0, 60, 55
1, 150378, Poly_aftertouch_c, 0, 60, 0
1, 150381, Control_c, 0, 64, 127
1, 150396, Note_off_c, 0, 56, 40
1, 150409, Note_on_c, 0, 58, 77
1, 150423, Note_off_c, 0, 68, 61
1, 150454, Control_c, 0, 67, 94
1, 150510, Control_c, 0, 67, 87
1, 150543, Note_on_c, 0, 68, 74
1, 150547, Control_c, 0, 67, 80
1, 150563, Note_on_c, 0, 56, 54
1, 150567, Control_c, 0, 67, 76
1, 150603, Control_c, 0, 67, 69
1, 150605, Note_off_c, 0, 58, 60
1, 150623, Control_c, 0, 67, 65
1, 150625, Note_off_c, 0, 39, 55
1, 150642, Control_c, 0, 67, 60
1, 150659, Control_c, 0, 67, 56
1, 150663, Note_off_c, 0, 51, 57
1, 150678, Note_off_c, 0, 56, 51
1, 150697, Control_c, 0, 67, 48
1, 150700, Note_off_c, 0, 68, 57
1, 150716, Control_c, 0, 67, 44
1, 150735, Control_c, 0, 67, 40
1, 150754, Control_c, 0, 67, 36
1, 150791, Control_c, 0, 67, 29
1, 150829, Control_c, 0, 67, 25
1, 150870, Note_on_c, 0, 68, 58
1, 150871, Note_on_c, 0, 63, 64
1, 150885, Control_c, 0, 67, 21
1, 150905, Note_on_c, 0, 54, 61
1, 150918, Note_on_c, 0, 56, 36
1, 150919, Note_on_c, 0, 42, 50
1, 150921, Control_c, 0, 64, 123
1, 150941, Control_c, 0, 67, 16
1, 150960, Control_c, 0, 64, 116
1, 150978, Control_c, 0, 64, 110
1, 150997, Control_c, 0, 64, 100
1, 150999, Control_c, 0, 67, 12
1, 151015, Control_c, 0, 64, 84
1, 151035, Control_c, 0, 64, 65
1, 151053, Control_c, 0, 64, 47
1, 151071, Control_c, 0, 64, 18
1, 151092, Control_c, 0, 64, 0
1, 151146, Control_c, 0, 64, 18
1, 151165, Control_c, 0, 64, 33
1, 151183, Control_c, 0, 64, 49
1, 151203, Control_c, 0, 64, 65
1, 151221, Control_c, 0, 64, 76
1, 151241, Control_c, 0, 64, 85
1, 151258, Control_c, 0, 64, 94
1, 151277, Control_c, 0, 64, 104
1, 151297, Control_c, 0, 64, 111
1, 151298, Control_c, 0, 67, 0
1, 151315, Control_c, 0, 64, 117
1, 151321, Note_off_c, 0, 56, 41
1, 151333, Control_c, 0, 64, 121
1, 151352, Control_c, 0, 64, 126
1, 151360, Note_off_c, 0, 68, 47
1, 151387, Note_off_c, 0, 54, 62
1, 151392, Note_off_c, 0, 42, 58
1, 151392, Poly_aftertouch_c, 0, 42, 0
1, 151546, Note_on_c, 0, 68, 47
1, 151578, Note_on_c, 0, 56, 47
1, 151595, Control_c, 0, 64, 108
1, 151607, Note_on_c, 0, 52, 49
1, 151608, Note_on_c, 0, 40, 49
1, 151615, Control_c, 0, 64, 94
1, 151634, Control_c, 0, 64, 90
1, 151651, Control_c, 0, 64, 96
1, 151670, Control_c, 0, 64, 104
1, 151688, Control_c, 0, 64, 113
1, 151695, Note_off_c, 0, 68, 57
1, 151695, Note_off_c, 0, 56, 51
1, 151701, Note_off_c, 0, 40, 53
1, 151706, Control_c, 0, 64, 122
1, 151710, Note_off_c, 0, 52, 59
1, 151745, Control_c, 0, 64, 110
1, 151764, Control_c, 0, 64, 94
1, 151783, Control_c, 0, 64, 82
1, 151801, Control_c, 0, 64, 84
1, 151802, Control_c, 0, 67, 8
1, 151818, Control_c, 0, 64, 93
1, 151820, Note_on_c, 0, 68, 59
1, 151832, Note_on_c, 0, 56, 41
1, 151837, Control_c, 0, 64, 104
1, 151857, Control_c, 0, 64, 117
1, 151876, Control_c, 0, 64, 127
1, 151885, Note_off_c, 0, 56, 50
1, 151905, Note_on_c, 0, 51, 60
1, 151907, Note_off_c, 0, 68, 55
1, 151910, Note_on_c, 0, 39, 58
1, 151989, Control_c, 0, 67, 12
1, 152010, Note_on_c, 0, 56, 57
1, 152012, Note_on_c, 0, 68, 65
1, 152045, Control_c, 0, 67, 17
1, 152074, Note_off_c, 0, 63, 57
1, 152076, Note_off_c, 0, 51, 57
1, 152077, Note_off_c, 0, 39, 59
1, 152107, Note_off_c, 0, 56, 53
1, 152126, Note_off_c, 0, 68, 55
1, 152251, Control_c, 0, 64, 122
1, 152259, Note_on_c, 0, 68, 66
1, 152260, Note_on_c, 0, 61, 65
1, 152266, Note_on_c, 0, 56, 50
1, 152268, Control_c, 0, 64, 116
1, 152277, Note_on_c, 0, 52, 52
1, 152286, Control_c, 0, 64, 106
1, 152293, Note_on_c, 0, 40, 47
1, 152306, Control_c, 0, 64, 89
1, 152325, Control_c, 0, 64, 68
1, 152343, Control_c, 0, 64, 46
1, 152362, Control_c, 0, 64, 0
1, 152436, Control_c, 0, 64, 17
1, 152456, Control_c, 0, 64, 35
1, 152456, Control_c, 0, 67, 11
1, 152474, Control_c, 0, 64, 52
1, 152492, Control_c, 0, 64, 69
1, 152512, Control_c, 0, 64, 81
1, 152529, Control_c, 0, 64, 93
1, 152531, Control_c, 0, 67, 0
1, 152548, Control_c, 0, 64, 107
1, 152562, Note_off_c, 0, 40, 50
1, 152564, Note_on_c, 0, 60, 74
1, 152567, Control_c, 0, 64, 120
1, 152587, Control_c, 0, 64, 127
1, 152630, Note_off_c, 0, 52, 59
1, 152638, Note_off_c, 0, 56, 38
1, 152649, Note_off_c, 0, 61, 54
1, 152690, Note_off_c, 0, 68, 51
1, 152724, Note_off_c, 0, 60, 58
1, 152724, Poly_aftertouch_c, 0, 60, 0
1, 152883, Note_on_c, 0, 68, 59
1, 152885, Control_c, 0, 64, 120
1, 152891, Note_on_c, 0, 64, 60
1, 152904, Control_c, 0, 64, 97
1, 152909, Note_on_c, 0, 56, 64
1, 152922, Control_c, 0, 64, 84
1, 152928, Note_on_c, 0, 44, 54
1, 152943, Control_c, 0, 64, 88
1, 152960, Control_c, 0, 64, 98
1, 152980, Control_c, 0, 64, 114
1, 152997, Control_c, 0, 64, 127
1, 153019, Note_off_c, 0, 68, 59
1, 153116, Note_off_c, 0, 64, 63
1, 153134, Note_off_c, 0, 44, 54
1, 153203, Note_on_c, 0, 42, 64
1, 153215, Note_on_c, 0, 54, 48
1, 153226, Poly_aftertouch_c, 0, 68, 127
1, 153228, Note_on_c, 0, 63, 70
1, 153233, Note_off_c, 0, 56, 41
1, 153275, Note_off_c, 0, 54, 55
1, 153284, Poly_aftertouch_c, 0, 68, 0
1, 153325, Note_off_c, 0, 42, 53
1, 153325, Poly_aftertouch_c, 0, 42, 0
1, 153377, Note_on_c, 0, 56, 62
1, 153382, Note_on_c, 0, 68, 67
1, 153398, Note_off_c, 0, 63, 55
1, 153450, Note_off_c, 0, 56, 59
1, 153468, Note_off_c, 0, 68, 55
1, 153627, Note_on_c, 0, 66, 65
1, 153628, Note_on_c, 0, 68, 63
1, 153652, Control_c, 0, 64, 116
1, 153654, Note_on_c, 0, 57, 53
1, 153655, Note_on_c, 0, 56, 46
1, 153661, Note_on_c, 0, 45, 51
1, 153670, Control_c, 0, 64, 107
1, 153690, Control_c, 0, 64, 97
1, 153708, Control_c, 0, 64, 86
1, 153727, Control_c, 0, 64, 71
1, 153746, Control_c, 0, 64, 51
1, 153764, Control_c, 0, 64, 0
1, 153876, Control_c, 0, 64, 26
1, 153896, Control_c, 0, 64, 44
1, 153914, Control_c, 0, 64, 61
1, 153933, Control_c, 0, 64, 74
1, 153953, Control_c, 0, 64, 84
1, 153970, Control_c, 0, 64, 95
1, 153977, Note_off_c, 0, 57, 58
1, 153989, Control_c, 0, 64, 108
1, 153998, Note_off_c, 0, 45, 60
1, 154006, Control_c, 0, 64, 120
1, 154013, Note_off_c, 0, 66, 62
1, 154026, Control_c, 0, 64, 127
1, 154027, Control_c, 0, 67, 8
1, 154046, Note_off_c, 0, 56, 52
1, 154084, Note_off_c, 0, 68, 55
1, 154102, Control_c, 0, 67, 12
1, 154156, Control_c, 0, 67, 17
1, 154194, Control_c, 0, 67, 22
1, 154290, Note_on_c, 0, 68, 58
1, 154306, Control_c, 0, 64, 114
1, 154307, Control_c, 0, 67, 28
1, 154308, Note_on_c, 0, 64, 53
1, 154324, Note_on_c, 0, 56, 54
1, 154325, Control_c, 0, 64, 92
1, 154331, Note_on_c, 0, 44, 53
1, 154344, Control_c, 0, 64, 73
1, 154346, Control_c, 0, 67, 35
1, 154363, Control_c, 0, 64, 68
1, 154382, Control_c, 0, 64, 75
1, 154394, Note_off_c, 0, 56, 44
1, 154401, Control_c, 0, 64, 84
1, 154407, Note_off_c, 0, 68, 60
1, 154419, Control_c, 0, 64, 97
1, 154421, Control_c, 0, 67, 39
1, 154437, Control_c, 0, 64, 116
1, 154456, Note_off_c, 0, 44, 56
1, 154456, Control_c, 0, 64, 127
1, 154457, Control_c, 0, 67, 45
1, 154475, Control_c, 0, 67, 49
1, 154493, Control_c, 0, 67, 53
1, 154509, Note_on_c, 0, 68, 65
1, 154521, Note_off_c, 0, 64, 54
1, 154604, Note_off_c, 0, 68, 58
1, 154633, Note_on_c, 0, 63, 64
1, 154639, Note_on_c, 0, 42, 57
1, 154643, Note_on_c, 0, 54, 54
1, 154643, Control_c, 0, 67, 58
1, 154680, Control_c, 0, 67, 62
1, 154730, Note_off_c, 0, 54, 47
1, 154746, Note_on_c, 0, 68, 70
1, 154780, Note_on_c, 0, 56, 52
1, 154788, Note_off_c, 0, 42, 50
1, 154788, Poly_aftertouch_c, 0, 42, 0
1, 154789, Note_off_c, 0, 63, 57
1, 154811, Control_c, 0, 67, 67
1, 154847, Note_off_c, 0, 56, 53
1, 154869, Note_off_c, 0, 68, 56
1, 154886, Control_c, 0, 67, 71
1, 154999, Control_c, 0, 64, 122
1, 155008, Note_on_c, 0, 68, 70
1, 155014, Note_on_c, 0, 61, 64
1, 155017, Control_c, 0, 64, 116
1, 155020, Note_on_c, 0, 56, 49
1, 155034, Note_on_c, 0, 52, 50
1, 155035, Control_c, 0, 64, 106
1, 155042, Note_on_c, 0, 40, 50
1, 155055, Control_c, 0, 64, 93
1, 155074, Control_c, 0, 64, 73
1, 155091, Control_c, 0, 64, 52
1, 155092, Control_c, 0, 67, 75
1, 155111, Control_c, 0, 64, 33
1, 155148, Control_c, 0, 64, 44
1, 155164, Note_off_c, 0, 52, 60
1, 155165, Control_c, 0, 64, 58
1, 155186, Control_c, 0, 64, 72
1, 155205, Control_c, 0, 64, 85
1, 155222, Control_c, 0, 64, 102
1, 155223, Control_c, 0, 67, 79
1, 155241, Control_c, 0, 64, 125
1, 155343, Note_on_c, 0, 60, 72
1, 155354, Control_c, 0, 64, 106
1, 155355, Control_c, 0, 67, 83
1, 155371, Control_c, 0, 64, 95
1, 155372, Note_on_c, 0, 39, 51
1, 155378, Note_on_c, 0, 51, 52
1, 155386, Note_off_c, 0, 40, 34
1, 155410, Control_c, 0, 64, 103
1, 155428, Control_c, 0, 64, 113
1, 155447, Control_c, 0, 64, 125
1, 155448, Control_c, 0, 67, 87
1, 155469, Note_off_c, 0, 61, 32
1, 155484, Control_c, 0, 67, 94
1, 155504, Control_c, 0, 67, 98
1, 155515, Note_off_c, 0, 51, 56
1, 155531, Note_off_c, 0, 56, 49
1, 155540, Control_c, 0, 67, 105
1, 155556, Note_off_c, 0, 68, 48
1, 155556, Note_off_c, 0, 60, 59
1, 155556, Poly_aftertouch_c, 0, 60, 0
1, 155560, Note_off_c, 0, 39, 53
1, 155634, Control_c, 0, 67, 109
1, 155776, Note_on_c, 0, 58, 65
1, 155785, Control_c, 0, 64, 118
1, 155788, Note_on_c, 0, 68, 56
1, 155803, Control_c, 0, 64, 110
1, 155823, Control_c, 0, 64, 97
1, 155834, Note_on_c, 0, 56, 37
1, 155834, Note_on_c, 0, 49, 47
1, 155837, Note_on_c, 0, 37, 47
1, 155842, Control_c, 0, 64, 83
1, 155859, Control_c, 0, 64, 66
1, 155876, Note_off_c, 0, 56, 52
1, 155878, Control_c, 0, 64, 52
1, 155897, Control_c, 0, 64, 45
1, 155909, Note_off_c, 0, 68, 58
1, 155934, Control_c, 0, 64, 52
1, 155952, Control_c, 0, 64, 59
1, 155970, Control_c, 0, 64, 66
1, 155990, Control_c, 0, 64, 71
1, 155991, Control_c, 0, 67, 113
1, 156008, Control_c, 0, 64, 76
1, 156025, Control_c, 0, 64, 82
1, 156036, Note_on_c, 0, 56, 37
1, 156040, Note_on_c, 0, 68, 56
1, 156045, Control_c, 0, 64, 89
1, 156065, Control_c, 0, 64, 97
1, 156083, Control_c, 0, 64, 104
1, 156099, Note_off_c, 0, 56, 54
1, 156100, Control_c, 0, 64, 110
1, 156130, Note_off_c, 0, 68, 47
1, 156157, Control_c, 0, 67, 117
1, 156223, Note_on_c, 0, 68, 50
1, 156230, Note_on_c, 0, 56, 54
1, 156288, Control_c, 0, 67, 121
1, 156299, Note_off_c, 0, 56, 53
1, 156366, Note_off_c, 0, 68, 37
1, 156457, Control_c, 0, 64, 99
1, 156476, Control_c, 0, 64, 89
1, 156482, Note_on_c, 0, 56, 42
1, 156483, Note_on_c, 0, 68, 55
1, 156494, Control_c, 0, 64, 82
1, 156531, Control_c, 0, 64, 86
1, 156551, Control_c, 0, 64, 92
1, 156565, Note_off_c, 0, 49, 55
1, 156569, Control_c, 0, 64, 101
1, 156586, Note_off_c, 0, 58, 54
1, 156586, Control_c, 0, 64, 111
1, 156608, Control_c, 0, 64, 124
1, 156624, Control_c, 0, 67, 125
1, 156667, Note_off_c, 0, 37, 55
1, 156774, Control_c, 0, 64, 116
1, 156790, Note_on_c, 0, 60, 56
1, 156793, Control_c, 0, 64, 98
1, 156814, Control_c, 0, 64, 77
1, 156829, Control_c, 0, 64, 57
1, 156832, Note_on_c, 0, 44, 37
1, 156844, Note_on_c, 0, 32, 41
1, 156849, Control_c, 0, 64, 44
1, 156887, Control_c, 0, 64, 58
1, 156906, Control_c, 0, 64, 74
1, 156924, Control_c, 0, 64, 90
1, 156930, Note_off_c, 0, 56, 46
1, 156943, Control_c, 0, 64, 109
1, 156945, Note_off_c, 0, 68, 54
1, 156951, Note_off_c, 0, 44, 54
1, 156961, Note_off_c, 0, 32, 50
1, 156961, Control_c, 0, 64, 125
1, 156966, Note_off_c, 0, 60, 56
1, 156966, Poly_aftertouch_c, 0, 60, 0
1, 157180, Note_on_c, 0, 60, 41
1, 157194, Note_on_c, 0, 68, 44
1, 157205, Control_c, 0, 64, 109
1, 157221, Note_on_c, 0, 56, 33
1, 157222, Note_on_c, 0, 32, 34
1, 157223, Note_on_c, 0, 44, 37
1, 157224, Control_c, 0, 64, 88
1, 157242, Control_c, 0, 64, 71
1, 157261, Control_c, 0, 64, 68
1, 157270, Note_off_c, 0, 68, 52
1, 157275, Note_off_c, 0, 56, 49
1, 157279, Control_c, 0, 64, 73
1, 157297, Control_c, 0, 64, 79
1, 157319, Control_c, 0, 64, 84
1, 157336, Control_c, 0, 64, 92
1, 157355, Control_c, 0, 64, 102
1, 157373, Control_c, 0, 64, 112
1, 157392, Control_c, 0, 64, 117
1, 157416, Note_on_c, 0, 56, 42
1, 157431, Note_on_c, 0, 68, 49
1, 157474, Note_off_c, 0, 56, 44
1, 157491, Note_off_c, 0, 68, 57
1, 157619, Note_on_c, 0, 68, 45
1, 157631, Note_on_c, 0, 56, 23
1, 157661, Note_off_c, 0, 68, 53
1, 157687, Note_off_c, 0, 56, 45
1, 157728, Control_c, 0, 64, 113
1, 157804, Control_c, 0, 64, 109
1, 157869, Note_on_c, 0, 68, 33
1, 157877, Control_c, 0, 64, 102
1, 157896, Control_c, 0, 64, 93
1, 157904, Note_on_c, 0, 56, 13
1, 157915, Control_c, 0, 64, 80
1, 157935, Control_c, 0, 64, 68
1, 157954, Control_c, 0, 64, 61
1, 157971, Control_c, 0, 64, 63
1, 157990, Control_c, 0, 64, 70
1, 158009, Control_c, 0, 64, 78
1, 158028, Control_c, 0, 64, 86
1, 158046, Control_c, 0, 64, 100
1, 158064, Control_c, 0, 64, 115
1, 158084, Control_c, 0, 64, 127
1, 158124, Note_off_c, 0, 56, 47
1, 158138, Note_off_c, 0, 60, 43
1, 158138, Poly_aftertouch_c, 0, 60, 0
1, 158163, Note_off_c, 0, 32, 40
1, 158174, Note_off_c, 0, 44, 56
1, 158228, Note_off_c, 0, 68, 45
1, 158420, Control_c, 0, 64, 123
1, 158458, Control_c, 0, 64, 118
1, 158495, Control_c, 0, 64, 113
1, 158533, Control_c, 0, 64, 108
1, 158570, Control_c, 0, 64, 103
1, 158607, Control_c, 0, 64, 99
1, 158626, Control_c, 0, 64, 93
1, 158645, Note_on_c, 0, 75, 45
1, 158645, Control_c, 0, 64, 82
1, 158665, Control_c, 0, 64, 67
1, 158680, Note_on_c, 0, 63, 30
1, 158680, Control_c, 0, 64, 55
1, 158701, Control_c, 0, 64, 47
1, 158719, Control_c, 0, 64, 43
1, 158757, Control_c, 0, 64, 49
1, 158775, Control_c, 0, 64, 57
1, 158778, Note_off_c, 0, 63, 56
1, 158789, Note_off_c, 0, 75, 57
1, 158794, Control_c, 0, 64, 65
1, 158813, Control_c, 0, 64, 71
1, 158832, Control_c, 0, 64, 77
1, 158850, Control_c, 0, 64, 85
1, 158869, Control_c, 0, 64, 94
1, 158888, Control_c, 0, 64, 104
1, 158906, Control_c, 0, 64, 115
1, 158920, Note_on_c, 0, 75, 47
1, 158924, Control_c, 0, 64, 123
1, 158944, Control_c, 0, 64, 127
1, 158950, Note_on_c, 0, 63, 28
1, 158963, Control_c, 0, 67, 121
1, 158981, Note_off_c, 0, 75, 57
1, 159002, Note_off_c, 0, 63, 51
1, 159074, Control_c, 0, 67, 117
1, 159106, Note_on_c, 0, 75, 55
1, 159129, Note_on_c, 0, 63, 42
1, 159185, Note_off_c, 0, 63, 54
1, 159190, Note_off_c, 0, 75, 41
1, 159355, Control_c, 0, 67, 113
1, 159380, Note_on_c, 0, 75, 47
1, 159403, Note_on_c, 0, 68, 46
1, 159437, Note_on_c, 0, 59, 42
1, 159446, Note_on_c, 0, 47, 32
1, 159509, Poly_aftertouch_c, 0, 63, 127
1, 159523, Control_c, 0, 64, 117
1, 159542, Control_c, 0, 64, 97
1, 159561, Control_c, 0, 64, 78
1, 159563, Control_c, 0, 67, 109
1, 159579, Control_c, 0, 64, 68
1, 159598, Control_c, 0, 64, 73
1, 159617, Control_c, 0, 64, 82
1, 159636, Control_c, 0, 64, 94
1, 159654, Control_c, 0, 64, 110
1, 159673, Control_c, 0, 64, 127
1, 159774, Note_off_c, 0, 47, 50
1, 159785, Note_off_c, 0, 59, 58
1, 159785, Poly_aftertouch_c, 0, 59, 0
1, 159821, Poly_aftertouch_c, 0, 63, 24
1, 159859, Control_c, 0, 67, 105
1, 159860, Poly_aftertouch_c, 0, 63, 0
1, 159896, Note_off_c, 0, 75, 39
1, 160029, Control_c, 0, 67, 100
1, 160052, Note_on_c, 0, 75, 52
1, 160084, Control_c, 0, 67, 95
1, 160094, Note_on_c, 0, 58, 43
1, 160095, Note_on_c, 0, 63, 37
1, 160096, Note_on_c, 0, 46, 41
1, 160140, Control_c, 0, 67, 91
1, 160180, Note_off_c, 0, 63, 50
1, 160196, Control_c, 0, 67, 87
1, 160207, Note_off_c, 0, 75, 52
1, 160239, Note_off_c, 0, 58, 60
1, 160244, Note_off_c, 0, 46, 59
1, 160271, Control_c, 0, 67, 83
1, 160290, Note_on_c, 0, 75, 27
1, 160298, Note_on_c, 0, 63, 40
1, 160346, Control_c, 0, 67, 78
1, 160360, Note_off_c, 0, 63, 54
1, 160385, Note_off_c, 0, 75, 59
1, 160399, Note_on_c, 0, 56, 57
1, 160411, Note_on_c, 0, 44, 53
1, 160422, Control_c, 0, 67, 73
1, 160476, Note_off_c, 0, 68, 60
1, 160476, Control_c, 0, 67, 69
1, 160500, Note_on_c, 0, 75, 60
1, 160513, Control_c, 0, 67, 65
1, 160514, Note_off_c, 0, 44, 55
1, 160521, Note_on_c, 0, 63, 35
1, 160526, Note_off_c, 0, 56, 55
1, 160552, Control_c, 0, 67, 60
1, 160589, Control_c, 0, 67, 56
1, 160645, Control_c, 0, 67, 52
1, 160733, Note_off_c, 0, 75, 64
1, 160733, Note_on_c, 0, 75, 24
1, 160739, Note_on_c, 0, 67, 60
1, 160781, Note_on_c, 0, 58, 49
1, 160788, Note_on_c, 0, 46, 45
1, 160793, Note_off_c, 0, 63, 64
1, 160793, Note_on_c, 0, 63, 10
1, 160795, Control_c, 0, 64, 119
1, 160813, Control_c, 0, 64, 107
1, 160833, Control_c, 0, 64, 89
1, 160851, Control_c, 0, 64, 67
1, 160870, Control_c, 0, 64, 42
1, 160872, Control_c, 0, 67, 47
1, 160889, Control_c, 0, 64, 0
1, 160907, Control_c, 0, 67, 43
1, 160926, Control_c, 0, 64, 22
1, 160944, Control_c, 0, 64, 39
1, 160944, Control_c, 0, 67, 36
1, 160964, Control_c, 0, 64, 55
1, 160965, Control_c, 0, 67, 31
1, 160982, Control_c, 0, 64, 71
1, 160983, Control_c, 0, 67, 25
1, 161000, Control_c, 0, 64, 84
1, 161003, Control_c, 0, 67, 18
1, 161019, Control_c, 0, 64, 98
1, 161020, Control_c, 0, 67, 11
1, 161039, Control_c, 0, 64, 113
1, 161041, Note_on_c, 0, 65, 67
1, 161057, Control_c, 0, 64, 127
1, 161073, Note_off_c, 0, 46, 54
1, 161087, Note_off_c, 0, 67, 59
1, 161093, Control_c, 0, 67, 0
1, 161130, Note_off_c, 0, 58, 55
1, 161161, Note_off_c, 0, 63, 42
1, 161162, Note_off_c, 0, 65, 60
1, 161247, Note_off_c, 0, 75, 42
1, 161391, Note_on_c, 0, 75, 56
1, 161401, Note_on_c, 0, 70, 64
1, 161436, Note_on_c, 0, 49, 46
1, 161438, Note_on_c, 0, 61, 45
1, 161445, Note_on_c, 0, 63, 39
1, 161507, Note_off_c, 0, 63, 47
1, 161507, Control_c, 0, 64, 108
1, 161523, Control_c, 0, 64, 88
1, 161543, Control_c, 0, 64, 70
1, 161549, Note_off_c, 0, 75, 58
1, 161562, Control_c, 0, 64, 63
1, 161581, Control_c, 0, 64, 67
1, 161599, Control_c, 0, 64, 75
1, 161619, Control_c, 0, 64, 85
1, 161636, Control_c, 0, 64, 100
1, 161637, Note_on_c, 0, 75, 55
1, 161645, Note_on_c, 0, 63, 54
1, 161656, Control_c, 0, 64, 122
1, 161674, Control_c, 0, 64, 127
1, 161706, Note_off_c, 0, 63, 54
1, 161735, Note_off_c, 0, 75, 59
1, 161807, Note_on_c, 0, 75, 52
1, 161838, Note_on_c, 0, 63, 47
1, 161842, Note_off_c, 0, 61, 60
1, 161898, Note_off_c, 0, 63, 55
1, 161919, Note_off_c, 0, 49, 35
1, 161926, Note_off_c, 0, 75, 57
1, 162062, Note_on_c, 0, 75, 66
1, 162083, Control_c, 0, 64, 104
1, 162086, Note_on_c, 0, 63, 36
1, 162098, Note_on_c, 0, 59, 45
1, 162098, Note_on_c, 0, 47, 47
1, 162102, Control_c, 0, 64, 80
1, 162123, Control_c, 0, 64, 64
1, 162160, Control_c, 0, 64, 70
1, 162179, Control_c, 0, 64, 80
1, 162193, Note_off_c, 0, 59, 55
1, 162193, Poly_aftertouch_c, 0, 59, 0
1, 162197, Control_c, 0, 64, 92
1, 162206, Note_off_c, 0, 47, 60
1, 162217, Control_c, 0, 64, 111
1, 162234, Control_c, 0, 64, 127
1, 162383, Note_on_c, 0, 58, 54
1, 162386, Note_off_c, 0, 70, 64
1, 162386, Note_on_c, 0, 46, 55
1, 162450, Note_off_c, 0, 63, 54
1, 162485, Note_off_c, 0, 75, 58
1, 162501, Note_off_c, 0, 58, 55
1, 162529, Note_off_c, 0, 46, 59
1, 162627, Control_c, 0, 67, 8
1, 162647, Control_c, 0, 64, 113
1, 162665, Control_c, 0, 64, 89
1, 162666, Control_c, 0, 67, 13
1, 162683, Control_c, 0, 64, 66
1, 162685, Note_on_c, 0, 75, 60
1, 162703, Control_c, 0, 64, 54
1, 162705, Note_on_c, 0, 68, 54
1, 162705, Control_c, 0, 67, 19
1, 162714, Note_on_c, 0, 59, 47
1, 162720, Note_on_c, 0, 47, 43
1, 162721, Control_c, 0, 64, 56
1, 162723, Control_c, 0, 67, 24
1, 162736, Note_on_c, 0, 63, 24
1, 162737, Control_c, 0, 64, 67
1, 162738, Control_c, 0, 67, 30
1, 162759, Control_c, 0, 64, 79
1, 162760, Control_c, 0, 67, 37
1, 162778, Control_c, 0, 64, 95
1, 162780, Control_c, 0, 67, 45
1, 162795, Note_off_c, 0, 63, 45
1, 162795, Control_c, 0, 64, 118
1, 162795, Control_c, 0, 67, 53
1, 162799, Note_off_c, 0, 75, 61
1, 162814, Control_c, 0, 64, 127
1, 162816, Control_c, 0, 67, 59
1, 162834, Control_c, 0, 67, 63
1, 162901, Note_on_c, 0, 75, 69
1, 162905, Note_on_c, 0, 63, 57
1, 162953, Note_off_c, 0, 63, 57
1, 162995, Note_off_c, 0, 75, 61
1, 163012, Note_on_c, 0, 67, 70
1, 163076, Note_off_c, 0, 47, 60
1, 163085, Note_off_c, 0, 68, 24
1, 163087, Note_off_c, 0, 59, 60
1, 163087, Poly_aftertouch_c, 0, 59, 0
1, 163113, Note_on_c, 0, 75, 71
1, 163149, Note_on_c, 0, 63, 52
1, 163179, Note_off_c, 0, 67, 56
1, 163220, Note_off_c, 0, 63, 49
1, 163236, Note_off_c, 0, 75, 58
1, 163319, Control_c, 0, 67, 59
1, 163370, Note_on_c, 0, 75, 72
1, 163372, Note_on_c, 0, 71, 65
1, 163378, Note_on_c, 0, 63, 59
1, 163394, Control_c, 0, 64, 123
1, 163395, Control_c, 0, 67, 53
1, 163402, Note_on_c, 0, 51, 49
1, 163412, Control_c, 0, 64, 104
1, 163432, Control_c, 0, 64, 82
1, 163433, Control_c, 0, 67, 46
1, 163451, Control_c, 0, 64, 60
1, 163454, Control_c, 0, 67, 41
1, 163469, Control_c, 0, 64, 43
1, 163471, Control_c, 0, 67, 34
1, 163487, Control_c, 0, 64, 30
1, 163488, Control_c, 0, 67, 26
1, 163507, Control_c, 0, 64, 36
1, 163508, Control_c, 0, 67, 19
1, 163526, Control_c, 0, 64, 52
1, 163527, Control_c, 0, 67, 11
1, 163543, Control_c, 0, 64, 69
1, 163563, Control_c, 0, 64, 84
1, 163565, Control_c, 0, 67, 0
1, 163576, Note_off_c, 0, 51, 58
1, 163581, Control_c, 0, 64, 99
1, 163600, Control_c, 0, 64, 113
1, 163618, Control_c, 0, 64, 122
1, 163638, Control_c, 0, 64, 127
1, 163673, Note_on_c, 0, 70, 80
1, 163694, Note_on_c, 0, 49, 58
1, 163704, Note_on_c, 0, 61, 51
1, 163750, Note_off_c, 0, 49, 56
1, 163758, Note_off_c, 0, 61, 60
1, 163776, Note_off_c, 0, 71, 53
1, 163788, Note_off_c, 0, 63, 32
1, 163841, Note_off_c, 0, 75, 50
1, 163861, Note_off_c, 0, 70, 62
1, 164093, Note_on_c, 0, 75, 70
1, 164113, Note_on_c, 0, 66, 47
1, 164118, Note_on_c, 0, 54, 41
1, 164123, Note_on_c, 0, 63, 43
1, 164142, Control_c, 0, 64, 110
1, 164160, Control_c, 0, 64, 89
1, 164180, Control_c, 0, 64, 68
1, 164200, Control_c, 0, 64, 53
1, 164216, Control_c, 0, 64, 50
1, 164220, Note_off_c, 0, 63, 52
1, 164236, Control_c, 0, 64, 56
1, 164255, Control_c, 0, 64, 70
1, 164258, Note_off_c, 0, 75, 60
1, 164273, Control_c, 0, 64, 86
1, 164292, Control_c, 0, 64, 110
1, 164310, Control_c, 0, 64, 127
1, 164361, Note_on_c, 0, 75, 58
1, 164390, Note_on_c, 0, 63, 38
1, 164456, Note_off_c, 0, 63, 47
1, 164469, Note_off_c, 0, 75, 55
1, 164553, Control_c, 0, 67, 8
1, 164562, Note_on_c, 0, 75, 55
1, 164596, Note_on_c, 0, 63, 41
1, 164628, Control_c, 0, 67, 12
1, 164676, Note_off_c, 0, 63, 45
1, 164689, Note_off_c, 0, 54, 53
1, 164716, Note_off_c, 0, 66, 37
1, 164719, Note_off_c, 0, 75, 47
1, 164777, Control_c, 0, 67, 16
1, 164808, Note_on_c, 0, 75, 46
1, 164831, Note_on_c, 0, 73, 55
1, 164853, Control_c, 0, 64, 112
1, 164854, Control_c, 0, 67, 23
1, 164871, Control_c, 0, 64, 90
1, 164872, Control_c, 0, 67, 27
1, 164878, Note_on_c, 0, 63, 25
1, 164881, Note_on_c, 0, 64, 39
1, 164889, Control_c, 0, 64, 74
1, 164892, Control_c, 0, 67, 31
1, 164899, Note_on_c, 0, 52, 36
1, 164907, Control_c, 0, 64, 71
1, 164928, Control_c, 0, 64, 77
1, 164930, Control_c, 0, 67, 36
1, 164946, Control_c, 0, 64, 86
1, 164964, Control_c, 0, 64, 99
1, 164975, Note_off_c, 0, 73, 61
1, 164983, Control_c, 0, 64, 121
1, 164985, Control_c, 0, 67, 40
1, 165002, Control_c, 0, 64, 127
1, 165008, Note_off_c, 0, 64, 51
1, 165020, Control_c, 0, 67, 44
1, 165024, Note_off_c, 0, 52, 58
1, 165177, Note_on_c, 0, 71, 59
1, 165209, Control_c, 0, 64, 102
1, 165218, Note_on_c, 0, 51, 53
1, 165226, Control_c, 0, 64, 82
1, 165246, Control_c, 0, 64, 74
1, 165249, Control_c, 0, 67, 49
1, 165264, Control_c, 0, 64, 79
1, 165282, Control_c, 0, 64, 89
1, 165284, Control_c, 0, 67, 53
1, 165301, Control_c, 0, 64, 105
1, 165321, Control_c, 0, 64, 125
1, 165339, Control_c, 0, 67, 58
1, 165341, Note_off_c, 0, 51, 56
1, 165365, Note_off_c, 0, 71, 52
1, 165369, Note_off_c, 0, 63, 41
1, 165377, Note_off_c, 0, 75, 52
1, 165395, Control_c, 0, 67, 62
1, 165562, Control_c, 0, 67, 67
1, 165577, Note_on_c, 0, 70, 57
1, 165582, Control_c, 0, 67, 71
1, 165585, Note_on_c, 0, 75, 50
1, 165601, Control_c, 0, 64, 111
1, 165602, Control_c, 0, 67, 77
1, 165612, Note_on_c, 0, 61, 49
1, 165618, Note_on_c, 0, 49, 48
1, 165620, Control_c, 0, 64, 84
1, 165621, Control_c, 0, 67, 83
1, 165638, Control_c, 0, 64, 58
1, 165641, Control_c, 0, 67, 91
1, 165657, Control_c, 0, 64, 41
1, 165658, Control_c, 0, 67, 100
1, 165675, Control_c, 0, 67, 109
1, 165694, Control_c, 0, 64, 54
1, 165695, Control_c, 0, 67, 118
1, 165713, Control_c, 0, 64, 73
1, 165714, Control_c, 0, 67, 123
1, 165722, Note_off_c, 0, 75, 47
1, 165731, Control_c, 0, 64, 92
1, 165750, Control_c, 0, 64, 115
1, 165752, Control_c, 0, 67, 127
1, 165768, Control_c, 0, 64, 127
1, 165774, Note_off_c, 0, 61, 58
1, 165810, Note_off_c, 0, 49, 49
1, 165824, Note_on_c, 0, 63, 42
1, 165987, Note_off_c, 0, 63, 37
1, 166002, Note_on_c, 0, 68, 56
1, 166041, Note_on_c, 0, 47, 46
1, 166042, Note_off_c, 0, 70, 31
1, 166054, Note_on_c, 0, 59, 40
1, 166057, Poly_aftertouch_c, 0, 75, 127
1, 166136, Poly_aftertouch_c, 0, 75, 0
1, 166137, Note_off_c, 0, 59, 52
1, 166137, Poly_aftertouch_c, 0, 59, 0
1, 166153, Note_off_c, 0, 47, 57
1, 166190, Note_off_c, 0, 68, 61
1, 166214, Note_on_c, 0, 63, 36
1, 166282, Poly_aftertouch_c, 0, 75, 0
1, 166291, Note_off_c, 0, 63, 43
1, 166535, Control_c, 0, 64, 123
1, 166558, Note_on_c, 0, 67, 44
1, 166563, Note_on_c, 0, 75, 46
1, 166573, Control_c, 0, 64, 117
1, 166591, Control_c, 0, 64, 113
1, 166595, Note_on_c, 0, 63, 30
1, 166610, Control_c, 0, 64, 108
1, 166612, Note_on_c, 0, 58, 30
1, 166614, Note_on_c, 0, 46, 35
1, 166628, Control_c, 0, 64, 101
1, 166648, Control_c, 0, 64, 93
1, 166666, Control_c, 0, 64, 84
1, 166686, Control_c, 0, 64, 73
1, 166705, Control_c, 0, 64, 63
1, 166722, Control_c, 0, 64, 54
1, 166741, Control_c, 0, 64, 38
1, 166759, Control_c, 0, 64, 0
1, 166891, Control_c, 0, 64, 26
1, 166910, Control_c, 0, 64, 43
1, 166928, Control_c, 0, 64, 56
1, 166948, Control_c, 0, 64, 69
1, 166965, Control_c, 0, 64, 78
1, 166984, Control_c, 0, 64, 85
1, 167002, Control_c, 0, 64, 93
1, 167023, Control_c, 0, 64, 101
1, 167039, Control_c, 0, 64, 109
1, 167059, Control_c, 0, 64, 117
1, 167078, Control_c, 0, 64, 124
1, 167081, Note_off_c, 0, 58, 42
1, 167159, Note_off_c, 0, 46, 58
1, 167588, Note_on_c, 0, 73, 38
1, 167660, Note_on_c, 0, 39, 28
1, 167767, Poly_aftertouch_c, 0, 51, 127
1, 167870, Poly_aftertouch_c, 0, 51, 0
1, 168074, Note_off_c, 0, 67, 37
1, 168100, Note_off_c, 0, 39, 28
1, 168239, Note_off_c, 0, 73, 34
1, 168294, Note_off_c, 0, 63, 33
1, 168394, Note_off_c, 0, 75, 34
1, 169025, Note_on_c, 0, 75, 34
1, 169053, Note_on_c, 0, 72, 34
1, 169087, Note_on_c, 0, 63, 19
1, 169100, Note_on_c, 0, 32, 23
1, 169102, Note_on_c, 0, 68, 21
1, 169118, Note_on_c, 0, 44, 23
1, 169210, Control_c, 0, 64, 115
1, 169228, Control_c, 0, 64, 108
1, 169247, Control_c, 0, 64, 97
1, 169265, Control_c, 0, 64, 83
1, 169284, Control_c, 0, 64, 68
1, 169304, Control_c, 0, 64, 55
1, 169321, Control_c, 0, 64, 37
1, 169339, Control_c, 0, 64, 0
1, 169377, Note_off_c, 0, 68, 19
1, 169433, Control_c, 0, 64, 20
1, 169452, Control_c, 0, 64, 33
1, 169471, Control_c, 0, 64, 46
1, 169490, Control_c, 0, 64, 59
1, 169509, Control_c, 0, 64, 69
1, 169527, Control_c, 0, 64, 75
1, 169546, Control_c, 0, 64, 79
1, 169565, Control_c, 0, 64, 83
1, 169583, Control_c, 0, 64, 89
1, 169601, Control_c, 0, 64, 96
1, 169621, Control_c, 0, 64, 102
1, 169639, Control_c, 0, 64, 108
1, 169657, Control_c, 0, 64, 114
1, 169678, Control_c, 0, 64, 120
1, 169695, Control_c, 0, 64, 124
1, 169836, Note_on_c, 0, 68, 26
1, 169988, Poly_aftertouch_c, 0, 44, 24
1, 170108, Note_off_c, 0, 44, 26
1, 170108, Poly_aftertouch_c, 0, 44, 0
1, 170140, Note_off_c, 0, 63, 36
1, 170231, Note_off_c, 0, 32, 23
1, 170295, Note_off_c, 0, 68, 41
1, 170715, Note_on_c, 0, 68, 32
1, 171118, Note_off_c, 0, 68, 43
1, 171395, Note_on_c, 0, 68, 33
1, 171739, Note_on_c, 0, 67, 35
1, 171900, Note_off_c, 0, 68, 44
1, 171931, Note_off_c, 0, 67, 35
1, 172131, Note_on_c, 0, 68, 35
1, 172132, Note_on_c, 0, 67, 28
1, 172511, Note_off_c, 0, 68, 41
1, 172530, Note_off_c, 0, 67, 39
1, 172792, Note_on_c, 0, 68, 31
1, 172794, Note_on_c, 0, 67, 30
1, 173101, Note_off_c, 0, 68, 41
1, 173107, Note_off_c, 0, 67, 38
1, 173424, Note_on_c, 0, 68, 31
1, 173428, Note_on_c, 0, 67, 28
1, 173611, Note_off_c, 0, 68, 35
1, 173634, Note_off_c, 0, 67, 43
1, 173846, Note_on_c, 0, 66, 33
1, 173922, Control_c, 0, 64, 119
1, 173940, Control_c, 0, 64, 111
1, 174015, Control_c, 0, 64, 116
1, 174024, Note_off_c, 0, 66, 54
1, 174033, Control_c, 0, 64, 121
1, 174052, Control_c, 0, 64, 127
1, 174363, Note_on_c, 0, 68, 27
1, 174379, Note_on_c, 0, 66, 28
1, 174746, Note_off_c, 0, 66, 41
1, 174752, Note_off_c, 0, 68, 39
1, 175316, Note_on_c, 0, 66, 19
1, 175318, Note_on_c, 0, 68, 21
1, 175548, Control_c, 0, 67, 123
1, 175552, Note_off_c, 0, 68, 43
1, 175567, Note_off_c, 0, 72, 36
1, 175665, Note_off_c, 0, 66, 43
1, 175695, Note_off_c, 0, 75, 38
1, 175718, Note_on_c, 0, 44, 37
1, 175735, Control_c, 0, 67, 119
1, 175829, Control_c, 0, 67, 115
1, 176082, Note_on_c, 0, 48, 46
1, 176090, Control_c, 0, 67, 111
1, 176098, Note_on_c, 0, 66, 35
1, 176130, Note_on_c, 0, 68, 15
1, 176164, Note_off_c, 0, 44, 38
1, 176164, Poly_aftertouch_c, 0, 44, 0
1, 176180, Note_off_c, 0, 66, 60
1, 176182, Control_c, 0, 67, 107
1, 176199, Note_off_c, 0, 68, 47
1, 176295, Control_c, 0, 67, 103
1, 176385, Note_off_c, 0, 48, 34
1, 176387, Note_on_c, 0, 37, 38
1, 176409, Control_c, 0, 67, 99
1, 176483, Control_c, 0, 67, 95
1, 176558, Control_c, 0, 67, 90
1, 176596, Note_on_c, 0, 54, 49
1, 176614, Control_c, 0, 67, 85
1, 176651, Control_c, 0, 67, 81
1, 176689, Control_c, 0, 67, 75
1, 176726, Control_c, 0, 64, 118
1, 176727, Control_c, 0, 67, 70
1, 176745, Control_c, 0, 64, 110
1, 176763, Control_c, 0, 64, 101
1, 176765, Control_c, 0, 67, 65
1, 176782, Control_c, 0, 64, 88
1, 176802, Control_c, 0, 64, 73
1, 176804, Control_c, 0, 67, 58
1, 176821, Control_c, 0, 64, 61
1, 176838, Control_c, 0, 64, 57
1, 176839, Control_c, 0, 67, 52
1, 176857, Control_c, 0, 64, 60
1, 176878, Control_c, 0, 64, 65
1, 176880, Control_c, 0, 67, 46
1, 176895, Control_c, 0, 64, 70
1, 176895, Control_c, 0, 67, 42
1, 176913, Control_c, 0, 64, 73
1, 176933, Control_c, 0, 64, 78
1, 176934, Control_c, 0, 67, 35
1, 176951, Control_c, 0, 64, 84
1, 176969, Control_c, 0, 64, 94
1, 176970, Control_c, 0, 67, 31
1, 176988, Control_c, 0, 64, 105
1, 177007, Control_c, 0, 64, 117
1, 177026, Control_c, 0, 64, 127
1, 177059, Note_off_c, 0, 37, 54
1, 177082, Control_c, 0, 67, 27
1, 177173, Control_c, 0, 67, 23
1, 177180, Note_on_c, 0, 68, 32
1, 177187, Note_on_c, 0, 63, 28
1, 177482, Note_off_c, 0, 63, 37
1, 177546, Note_on_c, 0, 53, 43
1, 177657, Note_off_c, 0, 54, 27
1, 177660, Note_off_c, 0, 68, 37
1, 177829, Control_c, 0, 67, 18
1, 177862, Note_on_c, 0, 68, 33
1, 177866, Note_on_c, 0, 51, 49
1, 177866, Control_c, 0, 67, 14
1, 177882, Note_on_c, 0, 66, 34
1, 177935, Note_off_c, 0, 53, 53
1, 177935, Poly_aftertouch_c, 0, 53, 0
1, 177942, Control_c, 0, 67, 10
1, 178059, Note_off_c, 0, 66, 36
1, 178138, Note_off_c, 0, 68, 44
1, 178202, Note_on_c, 0, 53, 51
1, 178302, Note_off_c, 0, 51, 49
1, 178353, Control_c, 0, 64, 117
1, 178372, Control_c, 0, 64, 107
1, 178390, Control_c, 0, 64, 97
1, 178410, Control_c, 0, 64, 85
1, 178428, Control_c, 0, 64, 70
1, 178446, Control_c, 0, 64, 62
1, 178484, Control_c, 0, 64, 67
1, 178503, Control_c, 0, 64, 74
1, 178521, Control_c, 0, 64, 80
1, 178540, Control_c, 0, 64, 87
1, 178542, Control_c, 0, 67, 0
1, 178558, Control_c, 0, 64, 98
1, 178571, Note_on_c, 0, 68, 36
1, 178576, Note_on_c, 0, 65, 38
1, 178576, Control_c, 0, 64, 115
1, 178596, Control_c, 0, 64, 127
1, 178614, Note_off_c, 0, 53, 58
1, 178614, Poly_aftertouch_c, 0, 53, 0
1, 178859, Note_off_c, 0, 65, 36
1, 178865, Note_off_c, 0, 68, 40
1, 178865, Note_on_c, 0, 37, 38
1, 179156, Note_on_c, 0, 68, 34
1, 179161, Note_on_c, 0, 65, 32
1, 179382, Note_off_c, 0, 65, 34
1, 179413, Note_off_c, 0, 68, 39
1, 179424, Note_on_c, 0, 49, 57
1, 179705, Note_off_c, 0, 49, 58
1, 179719, Note_off_c, 0, 37, 31
1, 179727, Note_on_c, 0, 65, 33
1, 179728, Note_on_c, 0, 68, 33
1, 179952, Note_off_c, 0, 65, 29
1, 180042, Note_off_c, 0, 68, 37
1, 180057, Note_on_c, 0, 47, 50
1, 180110, Note_on_c, 0, 38, 33
1, 180222, Control_c, 0, 64, 116
1, 180242, Control_c, 0, 64, 107
1, 180260, Control_c, 0, 64, 95
1, 180278, Control_c, 0, 64, 80
1, 180298, Control_c, 0, 64, 65
1, 180316, Control_c, 0, 64, 56
1, 180335, Control_c, 0, 64, 51
1, 180373, Control_c, 0, 64, 57
1, 180390, Control_c, 0, 64, 62
1, 180410, Control_c, 0, 64, 67
1, 180428, Control_c, 0, 64, 72
1, 180448, Control_c, 0, 64, 80
1, 180466, Control_c, 0, 64, 92
1, 180484, Control_c, 0, 64, 106
1, 180504, Control_c, 0, 64, 119
1, 180514, Note_on_c, 0, 65, 36
1, 180522, Control_c, 0, 64, 127
1, 180526, Note_on_c, 0, 68, 35
1, 180574, Note_off_c, 0, 38, 40
1, 180596, Control_c, 0, 67, 8
1, 180653, Control_c, 0, 67, 13
1, 180709, Control_c, 0, 67, 18
1, 180746, Control_c, 0, 67, 25
1, 180767, Control_c, 0, 67, 30
1, 180802, Control_c, 0, 67, 36
1, 180840, Note_off_c, 0, 65, 33
1, 180858, Control_c, 0, 67, 40
1, 180915, Control_c, 0, 67, 46
1, 180951, Control_c, 0, 67, 50
1, 180954, Note_off_c, 0, 68, 41
1, 180961, Note_on_c, 0, 39, 35
1, 181027, Control_c, 0, 64, 121
1, 181028, Control_c, 0, 67, 56
1, 181064, Control_c, 0, 64, 113
1, 181065, Control_c, 0, 67, 62
1, 181082, Control_c, 0, 64, 109
1, 181102, Control_c, 0, 64, 105
1, 181121, Control_c, 0, 64, 101
1, 181138, Control_c, 0, 64, 97
1, 181158, Control_c, 0, 67, 66
1, 181176, Control_c, 0, 64, 89
1, 181196, Control_c, 0, 64, 83
1, 181214, Control_c, 0, 64, 76
1, 181232, Control_c, 0, 64, 69
1, 181252, Control_c, 0, 64, 65
1, 181269, Control_c, 0, 64, 61
1, 181289, Control_c, 0, 64, 59
1, 181307, Control_c, 0, 64, 56
1, 181326, Control_c, 0, 64, 52
1, 181344, Control_c, 0, 64, 46
1, 181364, Control_c, 0, 64, 39
1, 181382, Control_c, 0, 64, 34
1, 181431, Note_on_c, 0, 65, 32
1, 181435, Note_on_c, 0, 66, 30
1, 181475, Control_c, 0, 64, 38
1, 181494, Control_c, 0, 64, 41
1, 181513, Control_c, 0, 64, 46
1, 181514, Control_c, 0, 67, 72
1, 181532, Control_c, 0, 64, 52
1, 181533, Control_c, 0, 67, 76
1, 181550, Control_c, 0, 64, 59
1, 181569, Control_c, 0, 64, 64
1, 181570, Control_c, 0, 67, 82
1, 181588, Control_c, 0, 64, 68
1, 181606, Control_c, 0, 64, 73
1, 181626, Control_c, 0, 64, 78
1, 181627, Control_c, 0, 67, 86
1, 181645, Control_c, 0, 64, 84
1, 181663, Control_c, 0, 64, 91
1, 181682, Control_c, 0, 64, 97
1, 181684, Control_c, 0, 67, 92
1, 181700, Control_c, 0, 64, 103
1, 181720, Control_c, 0, 64, 108
1, 181721, Control_c, 0, 67, 99
1, 181736, Control_c, 0, 64, 113
1, 181756, Control_c, 0, 64, 118
1, 181757, Control_c, 0, 67, 103
1, 181775, Control_c, 0, 64, 124
1, 181794, Control_c, 0, 67, 108
1, 181832, Control_c, 0, 67, 115
1, 181842, Note_off_c, 0, 66, 41
1, 181852, Note_off_c, 0, 65, 37
1, 181867, Control_c, 0, 67, 119
1, 181924, Control_c, 0, 67, 123
1, 181999, Control_c, 0, 67, 127
1, 182051, Note_off_c, 0, 47, 35
1, 182255, Note_on_c, 0, 66, 27
1, 182265, Note_on_c, 0, 65, 27
1, 182467, Note_off_c, 0, 65, 42
1, 182510, Note_off_c, 0, 66, 42
1, 182703, Note_on_c, 0, 46, 38
1, 182841, Control_c, 0, 64, 105
1, 182859, Control_c, 0, 64, 89
1, 182878, Control_c, 0, 64, 78
1, 182897, Control_c, 0, 64, 74
1, 182917, Control_c, 0, 64, 78
1, 182935, Control_c, 0, 64, 85
1, 182952, Control_c, 0, 64, 92
1, 182971, Control_c, 0, 64, 101
1, 182991, Control_c, 0, 64, 111
1, 183008, Control_c, 0, 64, 121
1, 183026, Note_on_c, 0, 66, 40
1, 183027, Control_c, 0, 64, 127
1, 183029, Note_on_c, 0, 63, 43
1, 183030, Note_on_c, 0, 51, 41
1, 183039, Note_off_c, 0, 39, 36
1, 183083, Control_c, 0, 67, 123
1, 183140, Note_off_c, 0, 66, 46
1, 183167, Note_off_c, 0, 63, 38
1, 183247, Note_on_c, 0, 39, 41
1, 183251, Note_off_c, 0, 46, 32
1, 183259, Note_off_c, 0, 51, 37
1, 183271, Control_c, 0, 67, 119
1, 183442, Note_on_c, 0, 56, 53
1, 183477, Control_c, 0, 64, 119
1, 183495, Control_c, 0, 64, 107
1, 183513, Control_c, 0, 64, 91
1, 183533, Control_c, 0, 64, 72
1, 183551, Control_c, 0, 64, 60
1, 183589, Control_c, 0, 64, 64
1, 183608, Control_c, 0, 64, 67
1, 183626, Control_c, 0, 64, 73
1, 183644, Control_c, 0, 64, 80
1, 183665, Control_c, 0, 64, 89
1, 183681, Control_c, 0, 64, 100
1, 183701, Control_c, 0, 64, 111
1, 183720, Control_c, 0, 64, 122
1, 183738, Control_c, 0, 64, 127
1, 183752, Note_off_c, 0, 39, 42
1, 183845, Note_on_c, 0, 70, 41
1, 183853, Note_on_c, 0, 65, 34
1, 184088, Note_off_c, 0, 65, 39
1, 184118, Note_on_c, 0, 54, 44
1, 184126, Note_off_c, 0, 56, 31
1, 184165, Note_off_c, 0, 70, 33
1, 184299, Control_c, 0, 67, 114
1, 184373, Control_c, 0, 67, 110
1, 184414, Note_on_c, 0, 53, 48
1, 184414, Note_on_c, 0, 70, 44
1, 184417, Note_off_c, 0, 54, 33
1, 184422, Note_on_c, 0, 68, 35
1, 184467, Control_c, 0, 67, 106
1, 184523, Control_c, 0, 67, 102
1, 184576, Note_off_c, 0, 53, 49
1, 184576, Poly_aftertouch_c, 0, 53, 0
1, 184579, Control_c, 0, 67, 97
1, 184629, Note_off_c, 0, 68, 35
1, 184654, Control_c, 0, 67, 93
1, 184710, Control_c, 0, 67, 88
1, 184715, Note_off_c, 0, 70, 31
1, 184734, Note_on_c, 0, 54, 46
1, 184766, Control_c, 0, 67, 83
1, 184823, Control_c, 0, 64, 123
1, 184824, Control_c, 0, 67, 78
1, 184861, Control_c, 0, 64, 115
1, 184879, Control_c, 0, 64, 109
1, 184897, Control_c, 0, 64, 101
1, 184898, Control_c, 0, 67, 73
1, 184916, Control_c, 0, 64, 89
1, 184935, Control_c, 0, 64, 73
1, 184953, Control_c, 0, 64, 58
1, 184972, Control_c, 0, 64, 47
1, 184974, Control_c, 0, 67, 69
1, 184991, Control_c, 0, 64, 43
1, 185027, Control_c, 0, 64, 47
1, 185047, Control_c, 0, 64, 52
1, 185065, Control_c, 0, 64, 60
1, 185070, Note_on_c, 0, 66, 32
1, 185078, Note_on_c, 0, 70, 26
1, 185084, Control_c, 0, 64, 67
1, 185103, Control_c, 0, 64, 73
1, 185122, Control_c, 0, 64, 80
1, 185141, Control_c, 0, 64, 87
1, 185160, Control_c, 0, 64, 94
1, 185178, Control_c, 0, 64, 103
1, 185198, Control_c, 0, 64, 110
1, 185200, Control_c, 0, 67, 65
1, 185216, Control_c, 0, 64, 116
1, 185233, Control_c, 0, 64, 121
1, 185252, Control_c, 0, 64, 126
1, 185289, Control_c, 0, 67, 60
1, 185346, Control_c, 0, 67, 56
1, 185366, Note_on_c, 0, 39, 36
1, 185370, Note_off_c, 0, 66, 38
1, 185373, Note_off_c, 0, 70, 38
1, 185402, Control_c, 0, 67, 52
1, 185458, Control_c, 0, 67, 45
1, 185514, Control_c, 0, 67, 40
1, 185545, Note_off_c, 0, 54, 38
1, 185570, Control_c, 0, 67, 36
1, 185645, Control_c, 0, 67, 31
1, 185647, Note_on_c, 0, 70, 35
1, 185655, Note_on_c, 0, 66, 37
1, 185701, Control_c, 0, 67, 26
1, 185740, Control_c, 0, 67, 21
1, 185796, Control_c, 0, 67, 17
1, 185870, Control_c, 0, 67, 13
1, 185909, Note_off_c, 0, 66, 33
1, 185909, Note_on_c, 0, 51, 51
1, 185911, Note_off_c, 0, 70, 36
1, 185945, Control_c, 0, 67, 8
1, 186193, Note_on_c, 0, 66, 34
1, 186193, Note_on_c, 0, 70, 39
1, 186206, Note_off_c, 0, 39, 40
1, 186222, Note_off_c, 0, 51, 49
1, 186437, Note_off_c, 0, 66, 27
1, 186482, Note_on_c, 0, 49, 52
1, 186484, Note_off_c, 0, 70, 36
1, 186511, Note_on_c, 0, 40, 39
1, 186579, Control_c, 0, 64, 121
1, 186600, Control_c, 0, 64, 116
1, 186617, Control_c, 0, 64, 107
1, 186636, Control_c, 0, 64, 92
1, 186655, Control_c, 0, 64, 74
1, 186674, Control_c, 0, 64, 60
1, 186693, Control_c, 0, 64, 53
1, 186730, Control_c, 0, 64, 56
1, 186749, Control_c, 0, 64, 62
1, 186767, Control_c, 0, 64, 69
1, 186785, Control_c, 0, 64, 74
1, 186801, Note_on_c, 0, 70, 37
1, 186804, Control_c, 0, 64, 80
1, 186817, Note_on_c, 0, 67, 31
1, 186824, Control_c, 0, 64, 85
1, 186842, Control_c, 0, 64, 92
1, 186861, Control_c, 0, 64, 97
1, 186869, Note_off_c, 0, 40, 39
1, 186880, Control_c, 0, 64, 102
1, 186898, Control_c, 0, 64, 107
1, 186973, Control_c, 0, 64, 111
1, 187139, Poly_aftertouch_c, 0, 67, 20
1, 187148, Note_off_c, 0, 67, 29
1, 187148, Poly_aftertouch_c, 0, 67, 0
1, 187176, Note_on_c, 0, 41, 41
1, 187181, Note_off_c, 0, 70, 35
1, 187216, Control_c, 0, 64, 107
1, 187273, Control_c, 0, 64, 101
1, 187309, Control_c, 0, 64, 92
1, 187328, Control_c, 0, 64, 83
1, 187349, Control_c, 0, 64, 73
1, 187366, Control_c, 0, 64, 65
1, 187366, Control_c, 0, 67, 0
1, 187384, Control_c, 0, 64, 60
1, 187402, Control_c, 0, 64, 55
1, 187422, Control_c, 0, 64, 49
1, 187439, Control_c, 0, 64, 45
1, 187496, Control_c, 0, 64, 50
1, 187510, Note_on_c, 0, 68, 32
1, 187514, Note_on_c, 0, 67, 32
1, 187514, Control_c, 0, 64, 53
1, 187534, Control_c, 0, 64, 56
1, 187554, Control_c, 0, 64, 62
1, 187571, Control_c, 0, 64, 67
1, 187590, Control_c, 0, 64, 72
1, 187608, Control_c, 0, 64, 77
1, 187628, Control_c, 0, 64, 82
1, 187645, Control_c, 0, 64, 87
1, 187666, Control_c, 0, 64, 93
1, 187684, Control_c, 0, 64, 99
1, 187702, Control_c, 0, 64, 107
1, 187721, Control_c, 0, 64, 115
1, 187739, Control_c, 0, 64, 122
1, 187758, Control_c, 0, 64, 127
1, 187846, Note_off_c, 0, 67, 39
1, 187846, Poly_aftertouch_c, 0, 67, 0
1, 187850, Note_off_c, 0, 68, 42
1, 187934, Note_off_c, 0, 49, 51
1, 188087, Note_on_c, 0, 68, 39
1, 188106, Note_on_c, 0, 67, 35
1, 188229, Note_off_c, 0, 67, 49
1, 188229, Poly_aftertouch_c, 0, 67, 0
1, 188294, Note_off_c, 0, 68, 48
1, 188409, Note_on_c, 0, 48, 55
1, 188507, Control_c, 0, 64, 119
1, 188525, Control_c, 0, 64, 105
1, 188543, Control_c, 0, 64, 99
1, 188581, Control_c, 0, 64, 106
1, 188600, Control_c, 0, 64, 117
1, 188618, Control_c, 0, 64, 127
1, 188679, Note_on_c, 0, 68, 49
1, 188688, Note_on_c, 0, 65, 52
1, 188698, Note_on_c, 0, 53, 55
1, 188756, Note_off_c, 0, 41, 41
1, 188804, Note_off_c, 0, 68, 55
1, 188814, Note_off_c, 0, 65, 47
1, 188862, Note_off_c, 0, 53, 53
1, 188862, Poly_aftertouch_c, 0, 53, 0
1, 188902, Note_on_c, 0, 41, 54
1, 188999, Note_off_c, 0, 48, 32
1, 189053, Note_on_c, 0, 58, 63
1, 189105, Control_c, 0, 64, 120
1, 189123, Control_c, 0, 64, 103
1, 189142, Control_c, 0, 64, 85
1, 189162, Control_c, 0, 64, 67
1, 189180, Control_c, 0, 64, 58
1, 189218, Control_c, 0, 64, 68
1, 189235, Control_c, 0, 64, 82
1, 189254, Control_c, 0, 64, 105
1, 189274, Control_c, 0, 64, 127
1, 189314, Note_off_c, 0, 41, 62
1, 189394, Note_on_c, 0, 65, 48
1, 189404, Note_on_c, 0, 72, 48
1, 189561, Note_off_c, 0, 58, 55
1, 189681, Note_on_c, 0, 56, 62
1, 189729, Note_off_c, 0, 65, 29
1, 189824, Note_off_c, 0, 72, 24
1, 189970, Note_on_c, 0, 72, 60
1, 189979, Note_on_c, 0, 65, 55
1, 189987, Note_on_c, 0, 55, 63
1, 190035, Note_off_c, 0, 56, 60
1, 190120, Note_off_c, 0, 65, 58
1, 190209, Note_off_c, 0, 55, 54
1, 190209, Poly_aftertouch_c, 0, 55, 0
1, 190245, Note_off_c, 0, 72, 53
1, 190341, Note_on_c, 0, 56, 62
1, 190488, Control_c, 0, 64, 114
1, 190507, Control_c, 0, 64, 94
1, 190526, Control_c, 0, 64, 78
1, 190544, Control_c, 0, 64, 70
1, 190569, Note_on_c, 0, 60, 65
1, 190582, Control_c, 0, 64, 76
1, 190600, Control_c, 0, 64, 83
1, 190618, Control_c, 0, 64, 92
1, 190632, Note_on_c, 0, 72, 61
1, 190636, Note_on_c, 0, 68, 62
1, 190637, Control_c, 0, 64, 108
1, 190656, Control_c, 0, 64, 127
1, 190676, Note_off_c, 0, 56, 58
1, 190768, Note_on_c, 0, 63, 78
1, 190817, Note_off_c, 0, 60, 60
1, 190817, Poly_aftertouch_c, 0, 60, 0
1, 190891, Note_off_c, 0, 68, 57
1, 190925, Note_off_c, 0, 63, 60
1, 190953, Note_off_c, 0, 72, 54
1, 191125, Note_on_c, 0, 66, 69
1, 191167, Note_on_c, 0, 53, 43
1, 191293, Control_c, 0, 64, 118
1, 191312, Control_c, 0, 64, 110
1, 191330, Control_c, 0, 64, 102
1, 191348, Control_c, 0, 64, 93
1, 191368, Control_c, 0, 64, 81
1, 191386, Control_c, 0, 64, 68
1, 191404, Control_c, 0, 64, 56
1, 191423, Control_c, 0, 64, 42
1, 191442, Control_c, 0, 64, 13
1, 191461, Control_c, 0, 64, 0
1, 191555, Control_c, 0, 64, 11
1, 191574, Control_c, 0, 64, 29
1, 191593, Control_c, 0, 64, 44
1, 191610, Control_c, 0, 64, 53
1, 191628, Control_c, 0, 64, 62
1, 191635, Note_on_c, 0, 72, 45
1, 191647, Control_c, 0, 64, 71
1, 191664, Note_on_c, 0, 69, 34
1, 191666, Control_c, 0, 64, 82
1, 191685, Control_c, 0, 64, 94
1, 191703, Control_c, 0, 64, 105
1, 191723, Control_c, 0, 64, 115
1, 191740, Control_c, 0, 64, 127
1, 191986, Note_off_c, 0, 69, 39
1, 191990, Note_off_c, 0, 72, 36
1, 192215, Note_off_c, 0, 66, 44
1, 192245, Note_on_c, 0, 75, 59
1, 192288, Note_on_c, 0, 69, 38
1, 192291, Note_on_c, 0, 72, 35
1, 192396, Control_c, 0, 67, 8
1, 192427, Note_off_c, 0, 72, 45
1, 192451, Control_c, 0, 67, 12
1, 192465, Note_off_c, 0, 75, 62
1, 192470, Note_off_c, 0, 53, 29
1, 192470, Poly_aftertouch_c, 0, 53, 0
1, 192508, Control_c, 0, 67, 20
1, 192526, Control_c, 0, 67, 27
1, 192545, Control_c, 0, 67, 37
1, 192554, Note_off_c, 0, 69, 52
1, 192563, Control_c, 0, 67, 48
1, 192582, Control_c, 0, 67, 58
1, 192602, Control_c, 0, 67, 65
1, 192619, Control_c, 0, 67, 70
1, 192657, Control_c, 0, 67, 76
1, 192695, Control_c, 0, 67, 81
1, 192733, Control_c, 0, 67, 88
1, 192752, Control_c, 0, 67, 93
1, 192769, Control_c, 0, 67, 98
1, 192788, Control_c, 0, 67, 102
1, 192807, Control_c, 0, 67, 107
1, 192844, Control_c, 0, 67, 113
1, 192881, Control_c, 0, 67, 117
1, 192919, Control_c, 0, 67, 121
1, 192924, Note_on_c, 0, 78, 56
1, 192944, Note_on_c, 0, 72, 40
1, 192968, Note_on_c, 0, 69, 35
1, 192974, Control_c, 0, 67, 126
1, 192982, Note_on_c, 0, 66, 29
1, 193365, Note_on_c, 0, 41, 35
1, 193416, Poly_aftertouch_c, 0, 69, 24
1, 193461, Control_c, 0, 64, 123
1, 193474, Note_off_c, 0, 69, 27
1, 193474, Poly_aftertouch_c, 0, 69, 0
1, 193480, Control_c, 0, 64, 105
1, 193499, Control_c, 0, 64, 95
1, 193508, Note_off_c, 0, 66, 38
1, 193553, Note_off_c, 0, 72, 35
1, 193555, Control_c, 0, 64, 101
1, 193568, Note_off_c, 0, 78, 36
1, 193573, Control_c, 0, 64, 109
1, 193592, Control_c, 0, 64, 124
1, 193672, Note_off_c, 0, 41, 54
1, 193773, Note_on_c, 0, 78, 40
1, 193792, Note_on_c, 0, 72, 31
1, 193797, Note_on_c, 0, 69, 37
1, 193805, Note_on_c, 0, 66, 21
1, 194041, Control_c, 0, 67, 122
1, 194097, Note_on_c, 0, 65, 50
1, 194134, Control_c, 0, 67, 118
1, 194196, Poly_aftertouch_c, 0, 69, 24
1, 194210, Control_c, 0, 67, 113
1, 194246, Note_off_c, 0, 69, 37
1, 194246, Poly_aftertouch_c, 0, 69, 0
1, 194264, Note_off_c, 0, 66, 41
1, 194284, Control_c, 0, 67, 109
1, 194287, Note_off_c, 0, 78, 36
1, 194300, Note_off_c, 0, 72, 37
1, 194340, Control_c, 0, 67, 105
1, 194395, Control_c, 0, 67, 100
1, 194398, Note_on_c, 0, 78, 40
1, 194415, Note_on_c, 0, 72, 27
1, 194421, Note_on_c, 0, 66, 35
1, 194424, Note_on_c, 0, 69, 38
1, 194453, Control_c, 0, 67, 95
1, 194508, Control_c, 0, 67, 91
1, 194620, Control_c, 0, 67, 87
1, 194646, Note_off_c, 0, 69, 27
1, 194646, Poly_aftertouch_c, 0, 69, 0
1, 194672, Note_off_c, 0, 66, 30
1, 194680, Note_on_c, 0, 63, 59
1, 194686, Note_off_c, 0, 72, 36
1, 194687, Note_off_c, 0, 78, 33
1, 194695, Control_c, 0, 67, 83
1, 194751, Control_c, 0, 67, 79
1, 194808, Control_c, 0, 67, 75
1, 194816, Note_off_c, 0, 65, 55
1, 194864, Control_c, 0, 67, 70
1, 194919, Control_c, 0, 67, 66
1, 194940, Note_on_c, 0, 78, 49
1, 194944, Note_on_c, 0, 72, 38
1, 194951, Note_on_c, 0, 69, 41
1, 194953, Note_on_c, 0, 66, 38
1, 194979, Note_off_c, 0, 63, 57
1, 195069, Control_c, 0, 67, 62
1, 195100, Note_off_c, 0, 69, 55
1, 195100, Poly_aftertouch_c, 0, 69, 0
1, 195133, Note_off_c, 0, 72, 55
1, 195181, Note_off_c, 0, 66, 45
1, 195238, Note_off_c, 0, 78, 36
1, 195259, Note_on_c, 0, 61, 59
1, 195303, Note_on_c, 0, 54, 39
1, 195443, Control_c, 0, 64, 114
1, 195462, Control_c, 0, 64, 101
1, 195481, Control_c, 0, 64, 86
1, 195499, Control_c, 0, 64, 68
1, 195518, Control_c, 0, 64, 52
1, 195538, Control_c, 0, 64, 36
1, 195556, Control_c, 0, 64, 22
1, 195594, Control_c, 0, 64, 30
1, 195613, Control_c, 0, 64, 38
1, 195630, Control_c, 0, 64, 47
1, 195633, Note_on_c, 0, 78, 45
1, 195633, Note_on_c, 0, 73, 39
1, 195650, Note_on_c, 0, 70, 38
1, 195650, Control_c, 0, 64, 59
1, 195659, Note_on_c, 0, 66, 29
1, 195666, Control_c, 0, 64, 72
1, 195687, Control_c, 0, 64, 82
1, 195705, Control_c, 0, 64, 89
1, 195725, Control_c, 0, 64, 98
1, 195742, Control_c, 0, 64, 107
1, 195761, Control_c, 0, 64, 115
1, 195780, Control_c, 0, 64, 121
1, 195799, Control_c, 0, 64, 125
1, 195893, Note_off_c, 0, 70, 43
1, 195895, Note_off_c, 0, 66, 43
1, 195915, Note_off_c, 0, 73, 33
1, 195918, Note_off_c, 0, 78, 32
1, 195959, Note_off_c, 0, 61, 61
1, 196033, Note_off_c, 0, 54, 58
1, 196170, Note_on_c, 0, 78, 38
1, 196171, Note_on_c, 0, 73, 37
1, 196172, Control_c, 0, 67, 67
1, 196183, Note_on_c, 0, 66, 31
1, 196185, Note_on_c, 0, 70, 32
1, 196210, Control_c, 0, 67, 74
1, 196229, Control_c, 0, 67, 78
1, 196247, Control_c, 0, 67, 83
1, 196264, Note_off_c, 0, 73, 48
1, 196266, Control_c, 0, 67, 87
1, 196267, Note_off_c, 0, 70, 42
1, 196304, Control_c, 0, 67, 93
1, 196342, Control_c, 0, 67, 97
1, 196385, Note_off_c, 0, 66, 31
1, 196417, Note_off_c, 0, 78, 39
1, 196437, Note_on_c, 0, 42, 44
1, 196623, Control_c, 0, 64, 98
1, 196640, Control_c, 0, 64, 69
1, 196658, Control_c, 0, 64, 50
1, 196679, Note_on_c, 0, 77, 46
1, 196690, Note_on_c, 0, 65, 37
1, 196694, Note_on_c, 0, 73, 40
1, 196696, Control_c, 0, 64, 56
1, 196703, Note_on_c, 0, 70, 41
1, 196715, Control_c, 0, 64, 69
1, 196734, Control_c, 0, 64, 85
1, 196744, Note_off_c, 0, 42, 63
1, 196744, Poly_aftertouch_c, 0, 42, 0
1, 196752, Control_c, 0, 64, 108
1, 196770, Control_c, 0, 64, 127
1, 196804, Note_on_c, 0, 43, 59
1, 196807, Control_c, 0, 67, 92
1, 196846, Control_c, 0, 67, 87
1, 196851, Note_off_c, 0, 43, 63
1, 196883, Control_c, 0, 67, 81
1, 196892, Note_off_c, 0, 73, 58
1, 196897, Note_off_c, 0, 77, 47
1, 196897, Poly_aftertouch_c, 0, 77, 0
1, 196902, Control_c, 0, 67, 77
1, 196913, Note_off_c, 0, 70, 35
1, 196919, Control_c, 0, 67, 73
1, 196939, Control_c, 0, 67, 68
1, 196959, Control_c, 0, 67, 63
1, 196989, Note_off_c, 0, 65, 35
1, 196990, Note_on_c, 0, 60, 68
1, 196995, Control_c, 0, 67, 58
1, 197069, Control_c, 0, 67, 53
1, 197105, Note_off_c, 0, 60, 56
1, 197105, Poly_aftertouch_c, 0, 60, 0
1, 197126, Control_c, 0, 67, 48
1, 197202, Control_c, 0, 67, 43
1, 197343, Note_on_c, 0, 70, 40
1, 197346, Note_on_c, 0, 76, 42
1, 197350, Note_on_c, 0, 73, 41
1, 197375, Note_on_c, 0, 67, 27
1, 197376, Note_on_c, 0, 64, 29
1, 197408, Control_c, 0, 64, 117
1, 197426, Control_c, 0, 64, 107
1, 197481, Control_c, 0, 64, 119
1, 197501, Control_c, 0, 64, 127
1, 197520, Control_c, 0, 67, 39
1, 197556, Control_c, 0, 67, 34
1, 197585, Note_off_c, 0, 64, 43
1, 197587, Note_off_c, 0, 67, 41
1, 197587, Poly_aftertouch_c, 0, 67, 0
1, 197592, Control_c, 0, 67, 30
1, 197594, Note_off_c, 0, 70, 35
1, 197608, Note_off_c, 0, 73, 35
1, 197614, Note_off_c, 0, 76, 36
1, 197631, Control_c, 0, 67, 26
1, 197669, Control_c, 0, 67, 21
1, 197706, Control_c, 0, 67, 16
1, 197743, Control_c, 0, 67, 12
1, 197825, Note_on_c, 0, 73, 41
1, 197826, Note_on_c, 0, 76, 39
1, 197846, Note_on_c, 0, 64, 42
1, 197848, Note_on_c, 0, 70, 26
1, 197853, Control_c, 0, 67, 8
1, 197874, Note_on_c, 0, 67, 31
1, 197935, Note_off_c, 0, 70, 44
1, 198041, Note_off_c, 0, 67, 34
1, 198041, Poly_aftertouch_c, 0, 67, 0
1, 198069, Note_off_c, 0, 73, 33
1, 198088, Note_off_c, 0, 64, 39
1, 198100, Note_off_c, 0, 76, 32
1, 198109, Note_on_c, 0, 58, 63
1, 198379, Note_on_c, 0, 76, 45
1, 198383, Note_on_c, 0, 73, 44
1, 198390, Note_on_c, 0, 67, 33
1, 198393, Note_on_c, 0, 64, 36
1, 198473, Note_off_c, 0, 58, 54
1, 198478, Note_off_c, 0, 67, 47
1, 198478, Poly_aftertouch_c, 0, 67, 0
1, 198553, Note_off_c, 0, 64, 36
1, 198592, Note_off_c, 0, 76, 53
1, 198624, Note_off_c, 0, 73, 33
1, 198674, Note_on_c, 0, 57, 59
1, 198713, Note_on_c, 0, 45, 39
1, 198790, Control_c, 0, 64, 119
1, 198809, Control_c, 0, 64, 106
1, 198828, Control_c, 0, 64, 88
1, 198847, Control_c, 0, 64, 66
1, 198865, Control_c, 0, 64, 49
1, 198884, Control_c, 0, 64, 43
1, 198903, Control_c, 0, 64, 48
1, 198921, Control_c, 0, 64, 59
1, 198921, Control_c, 0, 67, 0
1, 198940, Control_c, 0, 64, 72
1, 198947, Note_on_c, 0, 77, 50
1, 198954, Note_on_c, 0, 72, 44
1, 198957, Note_on_c, 0, 65, 43
1, 198959, Control_c, 0, 64, 86
1, 198977, Control_c, 0, 64, 104
1, 198996, Control_c, 0, 64, 127
1, 199052, Note_off_c, 0, 45, 33
1, 199092, Note_off_c, 0, 57, 56
1, 199156, Note_off_c, 0, 72, 51
1, 199219, Note_on_c, 0, 53, 64
1, 199220, Note_off_c, 0, 65, 39
1, 199277, Note_off_c, 0, 77, 34
1, 199277, Poly_aftertouch_c, 0, 77, 0
1, 199476, Note_on_c, 0, 52, 66
1, 199495, Note_on_c, 0, 77, 54
1, 199496, Note_off_c, 0, 53, 62
1, 199496, Poly_aftertouch_c, 0, 53, 0
1, 199502, Note_on_c, 0, 72, 48
1, 199519, Note_on_c, 0, 65, 36
1, 199564, Note_off_c, 0, 52, 60
1, 199595, Note_off_c, 0, 65, 49
1, 199608, Note_off_c, 0, 72, 59
1, 199700, Note_off_c, 0, 77, 58
1, 199700, Poly_aftertouch_c, 0, 77, 0
1, 199798, Note_on_c, 0, 53, 65
1, 199876, Control_c, 0, 64, 120
1, 199894, Control_c, 0, 64, 92
1, 199913, Control_c, 0, 64, 71
1, 199932, Control_c, 0, 64, 66
1, 199950, Control_c, 0, 64, 69
1, 199967, Control_c, 0, 64, 75
1, 199969, Note_on_c, 0, 57, 66
1, 199988, Control_c, 0, 64, 83
1, 200006, Control_c, 0, 64, 93
1, 200021, Note_on_c, 0, 81, 57
1, 200024, Control_c, 0, 64, 110
1, 200035, Note_on_c, 0, 72, 45
1, 200038, Note_on_c, 0, 77, 51
1, 200042, Note_on_c, 0, 69, 38
1, 200044, Control_c, 0, 64, 127
1, 200088, Note_off_c, 0, 53, 57
1, 200088, Poly_aftertouch_c, 0, 53, 0
1, 200133, Note_on_c, 0, 60, 73
1, 200147, Note_off_c, 0, 69, 55
1, 200147, Poly_aftertouch_c, 0, 69, 0
1, 200171, Note_off_c, 0, 72, 56
1, 200225, Note_off_c, 0, 77, 53
1, 200225, Poly_aftertouch_c, 0, 77, 0
1, 200248, Note_off_c, 0, 57, 56
1, 200274, Note_off_c, 0, 81, 38
1, 200435, Note_on_c, 0, 66, 69
1, 200453, Note_on_c, 0, 53, 53
1, 200567, Control_c, 0, 64, 120
1, 200573, Note_off_c, 0, 60, 55
1, 200573, Poly_aftertouch_c, 0, 60, 0
1, 200587, Control_c, 0, 64, 110
1, 200603, Control_c, 0, 64, 98
1, 200623, Control_c, 0, 64, 83
1, 200642, Control_c, 0, 64, 65
1, 200661, Control_c, 0, 64, 44
1, 200679, Control_c, 0, 64, 0
1, 200809, Control_c, 0, 64, 23
1, 200829, Control_c, 0, 64, 48
1, 200847, Control_c, 0, 64, 67
1, 200856, Note_on_c, 0, 90, 48
1, 200865, Note_on_c, 0, 84, 41
1, 200865, Control_c, 0, 64, 83
1, 200881, Note_on_c, 0, 78, 37
1, 200882, Note_on_c, 0, 81, 34
1, 200883, Control_c, 0, 64, 102
1, 200903, Control_c, 0, 64, 127
1, 201043, Note_off_c, 0, 66, 62
1, 201068, Note_off_c, 0, 53, 57
1, 201068, Poly_aftertouch_c, 0, 53, 0
1, 201133, Note_off_c, 0, 84, 56
1, 201150, Note_off_c, 0, 81, 43
1, 201167, Note_off_c, 0, 90, 50
1, 201183, Note_off_c, 0, 78, 35
1, 201239, Control_c, 0, 67, 9
1, 201352, Control_c, 0, 67, 13
1, 201408, Control_c, 0, 67, 18
1, 201451, Note_on_c, 0, 90, 48
1, 201465, Control_c, 0, 67, 22
1, 201467, Note_on_c, 0, 84, 38
1, 201467, Note_on_c, 0, 78, 35
1, 201470, Note_on_c, 0, 81, 36
1, 201520, Control_c, 0, 67, 27
1, 201709, Note_off_c, 0, 81, 41
1, 201712, Note_off_c, 0, 84, 50
1, 201728, Note_off_c, 0, 78, 42
1, 201730, Note_on_c, 0, 41, 34
1, 201756, Note_off_c, 0, 90, 36
1, 201969, Control_c, 0, 67, 21
1, 202010, Note_on_c, 0, 90, 52
1, 202029, Note_on_c, 0, 84, 36
1, 202036, Note_on_c, 0, 81, 34
1, 202042, Note_on_c, 0, 78, 29
1, 202044, Control_c, 0, 67, 17
1, 202282, Note_off_c, 0, 41, 30
1, 202287, Note_off_c, 0, 81, 41
1, 202289, Note_off_c, 0, 78, 40
1, 202296, Note_off_c, 0, 84, 40
1, 202304, Control_c, 0, 67, 21
1, 202321, Note_on_c, 0, 53, 38
1, 202326, Note_off_c, 0, 90, 32
1, 202430, Note_off_c, 0, 53, 51
1, 202430, Poly_aftertouch_c, 0, 53, 0
1, 202455, Control_c, 0, 67, 25
1, 202512, Control_c, 0, 67, 29
1, 202600, Note_on_c, 0, 90, 42
1, 202624, Note_on_c, 0, 81, 30
1, 202631, Note_on_c, 0, 84, 30
1, 202635, Note_on_c, 0, 78, 20
1, 202913, Note_off_c, 0, 81, 38
1, 202918, Note_off_c, 0, 78, 39
1, 202920, Note_on_c, 0, 65, 51
1, 202940, Note_off_c, 0, 90, 40
1, 202948, Note_off_c, 0, 84, 41
1, 203191, Note_on_c, 0, 90, 47
1, 203215, Note_on_c, 0, 81, 33
1, 203217, Note_on_c, 0, 78, 30
1, 203222, Note_on_c, 0, 84, 34
1, 203449, Note_off_c, 0, 81, 38
1, 203452, Note_off_c, 0, 84, 40
1, 203458, Note_off_c, 0, 78, 38
1, 203462, Note_on_c, 0, 63, 58
1, 203469, Note_off_c, 0, 90, 33
1, 203611, Note_off_c, 0, 65, 51
1, 203729, Note_on_c, 0, 84, 40
1, 203730, Note_on_c, 0, 90, 47
1, 203746, Note_on_c, 0, 78, 34
1, 203748, Note_on_c, 0, 81, 33
1, 203751, Note_off_c, 0, 63, 59
1, 203940, Note_off_c, 0, 81, 42
1, 203961, Note_off_c, 0, 84, 44
1, 204019, Note_off_c, 0, 78, 41
1, 204063, Note_off_c, 0, 90, 41
1, 204079, Note_on_c, 0, 61, 54
1, 204118, Note_on_c, 0, 54, 35
1, 204231, Control_c, 0, 64, 122
1, 204250, Control_c, 0, 64, 110
1, 204269, Control_c, 0, 64, 95
1, 204288, Control_c, 0, 64, 78
1, 204306, Control_c, 0, 64, 61
1, 204326, Control_c, 0, 64, 49
1, 204344, Control_c, 0, 64, 43
1, 204381, Control_c, 0, 64, 47
1, 204400, Control_c, 0, 64, 53
1, 204419, Control_c, 0, 64, 60
1, 204437, Control_c, 0, 64, 69
1, 204456, Control_c, 0, 64, 78
1, 204475, Control_c, 0, 64, 87
1, 204488, Note_on_c, 0, 90, 42
1, 204492, Control_c, 0, 64, 97
1, 204494, Note_on_c, 0, 85, 37
1, 204509, Note_on_c, 0, 82, 40
1, 204511, Control_c, 0, 64, 108
1, 204522, Note_on_c, 0, 78, 30
1, 204530, Control_c, 0, 64, 115
1, 204550, Control_c, 0, 64, 120
1, 204587, Control_c, 0, 64, 126
1, 204588, Control_c, 0, 67, 34
1, 204642, Control_c, 0, 67, 39
1, 204680, Control_c, 0, 67, 45
1, 204718, Control_c, 0, 67, 53
1, 204737, Control_c, 0, 67, 58
1, 204755, Control_c, 0, 67, 63
1, 204774, Control_c, 0, 67, 68
1, 204792, Control_c, 0, 67, 72
1, 204811, Control_c, 0, 67, 76
1, 204829, Control_c, 0, 67, 80
1, 204838, Note_off_c, 0, 82, 34
1, 204838, Poly_aftertouch_c, 0, 82, 0
1, 204848, Control_c, 0, 67, 85
1, 204856, Note_off_c, 0, 85, 40
1, 204862, Note_off_c, 0, 61, 57
1, 204886, Control_c, 0, 67, 91
1, 204916, Note_off_c, 0, 78, 42
1, 204928, Note_off_c, 0, 54, 44
1, 204929, Note_off_c, 0, 90, 32
1, 204944, Control_c, 0, 67, 96
1, 205258, Note_on_c, 0, 90, 56
1, 205268, Note_on_c, 0, 85, 33
1, 205290, Note_on_c, 0, 82, 38
1, 205315, Note_on_c, 0, 78, 19
1, 205545, Note_on_c, 0, 42, 41
1, 205637, Note_off_c, 0, 78, 42
1, 205642, Note_off_c, 0, 82, 37
1, 205642, Poly_aftertouch_c, 0, 82, 0
1, 205662, Poly_aftertouch_c, 0, 85, 20
1, 205669, Note_off_c, 0, 85, 36
1, 205669, Poly_aftertouch_c, 0, 85, 0
1, 205687, Note_off_c, 0, 90, 36
1, 205758, Note_off_c, 0, 42, 61
1, 205758, Poly_aftertouch_c, 0, 42, 0
1, 205821, Note_on_c, 0, 89, 46
1, 205835, Note_on_c, 0, 77, 39
1, 205836, Note_on_c, 0, 85, 42
1, 205838, Note_on_c, 0, 82, 29
1, 205877, Control_c, 0, 64, 101
1, 205896, Control_c, 0, 64, 76
1, 205905, Note_on_c, 0, 43, 46
1, 205914, Control_c, 0, 64, 62
1, 205933, Control_c, 0, 64, 66
1, 205954, Control_c, 0, 64, 75
1, 205960, Note_off_c, 0, 43, 62
1, 205971, Control_c, 0, 64, 83
1, 205989, Control_c, 0, 64, 97
1, 206008, Control_c, 0, 64, 118
1, 206025, Note_off_c, 0, 82, 44
1, 206025, Poly_aftertouch_c, 0, 82, 0
1, 206026, Control_c, 0, 64, 127
1, 206033, Note_off_c, 0, 85, 50
1, 206033, Poly_aftertouch_c, 0, 85, 0
1, 206072, Note_off_c, 0, 89, 34
1, 206116, Note_on_c, 0, 60, 57
1, 206160, Note_off_c, 0, 77, 36
1, 206160, Poly_aftertouch_c, 0, 77, 0
1, 206229, Note_off_c, 0, 60, 56
1, 206229, Poly_aftertouch_c, 0, 60, 0
1, 206501, Note_on_c, 0, 82, 43
1, 206511, Note_on_c, 0, 88, 38
1, 206527, Note_on_c, 0, 76, 30
1, 206532, Note_on_c, 0, 85, 42
1, 206551, Note_on_c, 0, 79, 30
1, 206809, Poly_aftertouch_c, 0, 79, 24
1, 206826, Note_off_c, 0, 82, 32
1, 206826, Poly_aftertouch_c, 0, 82, 0
1, 206847, Note_off_c, 0, 79, 37
1, 206847, Poly_aftertouch_c, 0, 79, 0
1, 206850, Note_off_c, 0, 76, 40
1, 206855, Note_off_c, 0, 85, 39
1, 206855, Poly_aftertouch_c, 0, 85, 0
1, 206881, Note_off_c, 0, 88, 39
1, 207126, Note_on_c, 0, 82, 45
1, 207140, Note_on_c, 0, 88, 38
1, 207149, Note_on_c, 0, 85, 42
1, 207157, Note_on_c, 0, 76, 32
1, 207191, Note_on_c, 0, 79, 22
1, 207413, Note_on_c, 0, 58, 59
1, 207447, Poly_aftertouch_c, 0, 79, 24
1, 207480, Note_off_c, 0, 85, 37
1, 207480, Poly_aftertouch_c, 0, 85, 0
1, 207489, Note_off_c, 0, 82, 29
1, 207489, Poly_aftertouch_c, 0, 82, 0
1, 207493, Note_off_c, 0, 79, 36
1, 207493, Note_off_c, 0, 76, 38
1, 207493, Poly_aftertouch_c, 0, 79, 0
1, 207536, Note_off_c, 0, 88, 38
1, 207683, Note_off_c, 0, 58, 52
1, 207702, Note_on_c, 0, 88, 43
1, 207739, Note_on_c, 0, 82, 33
1, 207743, Note_on_c, 0, 76, 28
1, 207756, Note_on_c, 0, 85, 37
1, 207776, Note_on_c, 0, 79, 8
1, 207914, Note_off_c, 0, 79, 33
1, 207914, Poly_aftertouch_c, 0, 79, 0
1, 207944, Note_off_c, 0, 76, 42
1, 207963, Note_off_c, 0, 88, 37
1, 207965, Note_off_c, 0, 82, 36
1, 207965, Poly_aftertouch_c, 0, 82, 0
1, 208039, Note_on_c, 0, 56, 50
1, 208051, Note_on_c, 0, 44, 40
1, 208061, Note_off_c, 0, 85, 41
1, 208061, Poly_aftertouch_c, 0, 85, 0
1, 208158, Control_c, 0, 64, 120
1, 208178, Control_c, 0, 64, 111
1, 208195, Control_c, 0, 64, 100
1, 208215, Control_c, 0, 64, 85
1, 208234, Control_c, 0, 64, 67
1, 208251, Control_c, 0, 64, 52
1, 208271, Control_c, 0, 64, 36
1, 208289, Control_c, 0, 64, 16
1, 208309, Control_c, 0, 64, 11
1, 208346, Control_c, 0, 64, 23
1, 208364, Control_c, 0, 64, 33
1, 208383, Control_c, 0, 64, 43
1, 208399, Note_on_c, 0, 89, 42
1, 208401, Control_c, 0, 64, 53
1, 208412, Note_on_c, 0, 85, 40
1, 208416, Note_on_c, 0, 80, 39
1, 208416, Note_on_c, 0, 77, 37
1, 208420, Control_c, 0, 64, 63
1, 208440, Control_c, 0, 64, 72
1, 208457, Control_c, 0, 64, 77
1, 208476, Control_c, 0, 64, 81
1, 208495, Control_c, 0, 64, 86
1, 208514, Control_c, 0, 64, 93
1, 208533, Control_c, 0, 64, 101
1, 208551, Control_c, 0, 64, 108
1, 208571, Control_c, 0, 64, 114
1, 208589, Control_c, 0, 64, 120
1, 208608, Control_c, 0, 64, 126
1, 208733, Note_off_c, 0, 80, 40
1, 208740, Note_off_c, 0, 77, 32
1, 208740, Poly_aftertouch_c, 0, 77, 0
1, 208747, Note_off_c, 0, 85, 33
1, 208747, Poly_aftertouch_c, 0, 85, 0
1, 208757, Note_off_c, 0, 89, 31
1, 208954, Note_off_c, 0, 56, 46
1, 209094, Note_on_c, 0, 89, 29
1, 209105, Note_on_c, 0, 77, 29
1, 209107, Note_on_c, 0, 85, 34
1, 209112, Note_on_c, 0, 80, 26
1, 209340, Poly_aftertouch_c, 0, 89, 24
1, 209343, Note_off_c, 0, 80, 34
1, 209351, Note_off_c, 0, 77, 33
1, 209351, Poly_aftertouch_c, 0, 77, 0
1, 209369, Note_off_c, 0, 89, 33
1, 209369, Poly_aftertouch_c, 0, 89, 0
1, 209372, Note_off_c, 0, 85, 39
1, 209372, Poly_aftertouch_c, 0, 85, 0
1, 209395, Note_on_c, 0, 49, 43
1, 209611, Note_off_c, 0, 44, 51
1, 209611, Poly_aftertouch_c, 0, 44, 0
1, 209691, Note_off_c, 0, 49, 47
1, 209696, Note_on_c, 0, 89, 38
1, 209702, Note_on_c, 0, 85, 32
1, 209702, Note_on_c, 0, 77, 34
1, 209705, Note_on_c, 0, 80, 36
1, 209881, Note_off_c, 0, 89, 38
1, 209881, Poly_aftertouch_c, 0, 89, 0
1, 209896, Note_off_c, 0, 77, 34
1, 209896, Poly_aftertouch_c, 0, 77, 0
1, 209926, Note_off_c, 0, 80, 26
1, 209940, Note_off_c, 0, 85, 28
1, 209940, Poly_aftertouch_c, 0, 85, 0
1, 210032, Note_on_c, 0, 51, 43
1, 210037, Note_on_c, 0, 44, 36
1, 210104, Control_c, 0, 64, 118
1, 210122, Control_c, 0, 64, 109
1, 210142, Control_c, 0, 64, 93
1, 210159, Control_c, 0, 64, 74
1, 210178, Control_c, 0, 64, 56
1, 210196, Control_c, 0, 64, 42
1, 210215, Control_c, 0, 64, 22
1, 210233, Control_c, 0, 64, 0
1, 210271, Control_c, 0, 64, 17
1, 210290, Control_c, 0, 64, 28
1, 210308, Control_c, 0, 64, 41
1, 210328, Control_c, 0, 64, 53
1, 210345, Control_c, 0, 64, 65
1, 210365, Control_c, 0, 64, 74
1, 210384, Control_c, 0, 64, 81
1, 210402, Control_c, 0, 64, 87
1, 210421, Control_c, 0, 64, 95
1, 210439, Control_c, 0, 64, 102
1, 210445, Note_on_c, 0, 84, 39
1, 210445, Note_on_c, 0, 90, 40
1, 210453, Note_on_c, 0, 80, 37
1, 210458, Control_c, 0, 64, 109
1, 210463, Note_on_c, 0, 78, 26
1, 210476, Control_c, 0, 64, 116
1, 210496, Control_c, 0, 64, 122
1, 210516, Control_c, 0, 64, 127
1, 210855, Note_off_c, 0, 84, 41
1, 210866, Note_off_c, 0, 78, 39
1, 210869, Note_off_c, 0, 80, 34
1, 210869, Note_off_c, 0, 90, 40
1, 210920, Note_off_c, 0, 51, 40
1, 211200, Note_on_c, 0, 90, 32
1, 211207, Note_on_c, 0, 80, 30
1, 211222, Note_on_c, 0, 84, 29
1, 211222, Note_on_c, 0, 78, 20
1, 211519, Poly_aftertouch_c, 0, 80, 24
1, 211599, Note_off_c, 0, 80, 32
1, 211599, Poly_aftertouch_c, 0, 80, 0
1, 211621, Note_on_c, 0, 53, 35
1, 211625, Note_off_c, 0, 78, 31
1, 211647, Note_off_c, 0, 84, 36
1, 211692, Control_c, 0, 64, 122
1, 211698, Note_off_c, 0, 90, 34
1, 211712, Control_c, 0, 64, 113
1, 211730, Control_c, 0, 64, 100
1, 211748, Control_c, 0, 64, 85
1, 211768, Control_c, 0, 64, 73
1, 211786, Control_c, 0, 64, 69
1, 211805, Control_c, 0, 64, 72
1, 211823, Control_c, 0, 64, 76
1, 211843, Control_c, 0, 64, 79
1, 211861, Control_c, 0, 64, 84
1, 211879, Control_c, 0, 64, 91
1, 211898, Control_c, 0, 64, 100
1, 211917, Control_c, 0, 64, 110
1, 211935, Control_c, 0, 64, 119
1, 211954, Control_c, 0, 64, 126
1, 212022, Note_off_c, 0, 53, 40
1, 212022, Poly_aftertouch_c, 0, 53, 0
1, 212048, Note_on_c, 0, 90, 32
1, 212079, Note_on_c, 0, 80, 28
1, 212087, Note_on_c, 0, 78, 17
1, 212096, Note_on_c, 0, 84, 17
1, 212106, Note_off_c, 0, 44, 41
1, 212106, Poly_aftertouch_c, 0, 44, 0
1, 212276, Note_off_c, 0, 84, 26
1, 212320, Poly_aftertouch_c, 0, 80, 24
1, 212358, Poly_aftertouch_c, 0, 78, 24
1, 212393, Note_off_c, 0, 78, 43
1, 212393, Poly_aftertouch_c, 0, 78, 0
1, 212400, Note_off_c, 0, 80, 28
1, 212400, Poly_aftertouch_c, 0, 80, 0
1, 212522, Note_off_c, 0, 90, 36
1, 212626, Note_on_c, 0, 49, 45
1, 212633, Note_on_c, 0, 37, 42
1, 212797, Control_c, 0, 64, 118
1, 212814, Control_c, 0, 64, 107
1, 212832, Control_c, 0, 64, 94
1, 212852, Control_c, 0, 64, 80
1, 212853, Control_c, 0, 67, 92
1, 212871, Control_c, 0, 64, 67
1, 212888, Control_c, 0, 64, 60
1, 212926, Control_c, 0, 67, 86
1, 212946, Control_c, 0, 64, 63
1, 212947, Control_c, 0, 67, 82
1, 212963, Control_c, 0, 64, 66
1, 212964, Control_c, 0, 67, 78
1, 212983, Control_c, 0, 64, 68
1, 213004, Control_c, 0, 64, 72
1, 213004, Control_c, 0, 67, 72
1, 213019, Control_c, 0, 64, 77
1, 213039, Control_c, 0, 64, 83
1, 213040, Control_c, 0, 67, 68
1, 213058, Control_c, 0, 64, 89
1, 213077, Control_c, 0, 64, 97
1, 213078, Control_c, 0, 67, 63
1, 213094, Control_c, 0, 64, 104
1, 213114, Control_c, 0, 64, 111
1, 213115, Control_c, 0, 67, 58
1, 213132, Control_c, 0, 64, 117
1, 213151, Control_c, 0, 64, 123
1, 213152, Control_c, 0, 67, 54
1, 213170, Control_c, 0, 64, 127
1, 213188, Control_c, 0, 67, 50
1, 213201, Note_on_c, 0, 89, 31
1, 213211, Note_on_c, 0, 80, 36
1, 213223, Note_on_c, 0, 77, 27
1, 213225, Note_on_c, 0, 85, 34
1, 213225, Control_c, 0, 67, 44
1, 213263, Control_c, 0, 67, 39
1, 213300, Control_c, 0, 67, 34
1, 213339, Control_c, 0, 67, 27
1, 213374, Control_c, 0, 67, 20
1, 213413, Control_c, 0, 67, 15
1, 213452, Control_c, 0, 67, 10
1, 213680, Note_off_c, 0, 80, 36
1, 213680, Poly_aftertouch_c, 0, 80, 0
1, 213688, Note_off_c, 0, 89, 35
1, 213688, Poly_aftertouch_c, 0, 89, 0
1, 213691, Control_c, 0, 67, 0
1, 213692, Note_off_c, 0, 77, 35
1, 213692, Poly_aftertouch_c, 0, 77, 0
1, 213701, Note_off_c, 0, 85, 37
1, 213701, Poly_aftertouch_c, 0, 85, 0
1, 214040, Note_on_c, 0, 80, 36
1, 214042, Note_on_c, 0, 77, 27
1, 214044, Note_on_c, 0, 89, 29
1, 214069, Note_on_c, 0, 85, 28
1, 214440, Note_off_c, 0, 80, 37
1, 214440, Poly_aftertouch_c, 0, 80, 0
1, 214449, Note_off_c, 0, 85, 36
1, 214449, Poly_aftertouch_c, 0, 85, 0
1, 214452, Note_off_c, 0, 77, 38
1, 214452, Poly_aftertouch_c, 0, 77, 0
1, 214475, Note_off_c, 0, 89, 33
1, 214475, Poly_aftertouch_c, 0, 89, 0
1, 214691, Note_off_c, 0, 37, 29
1, 214731, Note_on_c, 0, 80, 39
1, 214739, Note_on_c, 0, 89, 26
1, 214744, Note_on_c, 0, 77, 35
1, 214749, Note_on_c, 0, 85, 36
1, 214767, Note_off_c, 0, 49, 36
1, 214934, Note_off_c, 0, 89, 34
1, 214934, Poly_aftertouch_c, 0, 89, 0
1, 214937, Note_off_c, 0, 80, 31
1, 214937, Poly_aftertouch_c, 0, 80, 0
1, 215002, Note_off_c, 0, 85, 39
1, 215002, Poly_aftertouch_c, 0, 85, 0
1, 215085, Note_off_c, 0, 77, 42
1, 215085, Poly_aftertouch_c, 0, 77, 0
1, 215147, Note_on_c, 0, 51, 63
1, 215174, Note_on_c, 0, 37, 45
1, 215376, Control_c, 0, 64, 114
1, 215395, Control_c, 0, 64, 96
1, 215414, Control_c, 0, 64, 80
1, 215432, Control_c, 0, 64, 69
1, 215450, Control_c, 0, 64, 67
1, 215470, Control_c, 0, 64, 69
1, 215488, Control_c, 0, 64, 73
1, 215507, Control_c, 0, 64, 78
1, 215526, Control_c, 0, 64, 84
1, 215544, Control_c, 0, 64, 94
1, 215564, Control_c, 0, 64, 108
1, 215581, Control_c, 0, 64, 124
1, 215651, Note_on_c, 0, 82, 40
1, 215662, Note_on_c, 0, 85, 40
1, 215666, Note_on_c, 0, 88, 37
1, 215676, Note_on_c, 0, 79, 33
1, 215680, Note_on_c, 0, 76, 32
1, 216062, Note_off_c, 0, 79, 37
1, 216062, Poly_aftertouch_c, 0, 79, 0
1, 216073, Note_off_c, 0, 82, 36
1, 216073, Poly_aftertouch_c, 0, 82, 0
1, 216085, Note_off_c, 0, 85, 30
1, 216085, Poly_aftertouch_c, 0, 85, 0
1, 216100, Note_off_c, 0, 76, 39
1, 216140, Note_off_c, 0, 88, 38
1, 216336, Note_off_c, 0, 51, 49
1, 216383, Note_on_c, 0, 82, 37
1, 216394, Note_on_c, 0, 88, 30
1, 216403, Note_on_c, 0, 85, 34
1, 216428, Note_on_c, 0, 76, 24
1, 216432, Note_on_c, 0, 79, 21
1, 216690, Poly_aftertouch_c, 0, 79, 24
1, 216699, Note_on_c, 0, 52, 49
1, 216744, Note_off_c, 0, 82, 36
1, 216744, Poly_aftertouch_c, 0, 82, 0
1, 216747, Note_off_c, 0, 79, 37
1, 216747, Poly_aftertouch_c, 0, 79, 0
1, 216757, Note_off_c, 0, 85, 38
1, 216757, Poly_aftertouch_c, 0, 85, 0
1, 216780, Note_off_c, 0, 76, 38
1, 216807, Note_off_c, 0, 88, 38
1, 216985, Note_on_c, 0, 88, 42
1, 216986, Note_off_c, 0, 52, 54
1, 217023, Note_on_c, 0, 76, 33
1, 217024, Note_on_c, 0, 82, 37
1, 217028, Note_on_c, 0, 85, 39
1, 217044, Note_on_c, 0, 79, 27
1, 217048, Note_off_c, 0, 37, 41
1, 217281, Note_off_c, 0, 79, 39
1, 217281, Poly_aftertouch_c, 0, 79, 0
1, 217337, Note_on_c, 0, 49, 59
1, 217348, Poly_aftertouch_c, 0, 82, 20
1, 217352, Note_on_c, 0, 37, 44
1, 217358, Note_off_c, 0, 82, 28
1, 217358, Poly_aftertouch_c, 0, 82, 0
1, 217389, Note_off_c, 0, 88, 32
1, 217394, Note_off_c, 0, 76, 40
1, 217475, Note_off_c, 0, 85, 42
1, 217475, Poly_aftertouch_c, 0, 85, 0
1, 217526, Control_c, 0, 64, 106
1, 217546, Control_c, 0, 64, 89
1, 217564, Control_c, 0, 64, 72
1, 217582, Control_c, 0, 64, 59
1, 217601, Control_c, 0, 64, 51
1, 217620, Control_c, 0, 64, 42
1, 217639, Control_c, 0, 64, 36
1, 217676, Control_c, 0, 64, 44
1, 217695, Control_c, 0, 64, 55
1, 217713, Control_c, 0, 64, 70
1, 217732, Control_c, 0, 64, 81
1, 217736, Note_on_c, 0, 89, 47
1, 217749, Note_on_c, 0, 80, 45
1, 217750, Note_on_c, 0, 77, 40
1, 217751, Control_c, 0, 64, 92
1, 217755, Note_on_c, 0, 85, 45
1, 217770, Control_c, 0, 64, 108
1, 217788, Control_c, 0, 64, 126
1, 218126, Note_off_c, 0, 77, 38
1, 218126, Poly_aftertouch_c, 0, 77, 0
1, 218129, Note_off_c, 0, 80, 34
1, 218129, Note_off_c, 0, 85, 33
1, 218129, Poly_aftertouch_c, 0, 80, 0
1, 218129, Poly_aftertouch_c, 0, 85, 0
1, 218161, Note_off_c, 0, 89, 28
1, 218161, Poly_aftertouch_c, 0, 89, 0
1, 218396, Note_on_c, 0, 89, 53
1, 218404, Note_on_c, 0, 85, 50
1, 218409, Note_on_c, 0, 80, 46
1, 218416, Note_on_c, 0, 77, 43
1, 218438, Note_off_c, 0, 37, 24
1, 218606, Note_off_c, 0, 49, 30
1, 218775, Note_off_c, 0, 80, 38
1, 218775, Note_off_c, 0, 85, 35
1, 218775, Poly_aftertouch_c, 0, 80, 0
1, 218775, Poly_aftertouch_c, 0, 85, 0
1, 218783, Note_off_c, 0, 77, 38
1, 218783, Poly_aftertouch_c, 0, 77, 0
1, 218807, Note_off_c, 0, 89, 34
1, 218807, Poly_aftertouch_c, 0, 89, 0
1, 219018, Note_on_c, 0, 89, 58
1, 219020, Note_on_c, 0, 85, 56
1, 219026, Note_on_c, 0, 80, 54
1, 219035, Note_on_c, 0, 77, 50
1, 219331, Note_off_c, 0, 80, 54
1, 219331, Poly_aftertouch_c, 0, 80, 0
1, 219385, Note_on_c, 0, 51, 76
1, 219414, Note_on_c, 0, 37, 56
1, 219424, Note_off_c, 0, 85, 54
1, 219424, Poly_aftertouch_c, 0, 85, 0
1, 219499, Note_off_c, 0, 89, 57
1, 219499, Poly_aftertouch_c, 0, 89, 0
1, 219538, Note_off_c, 0, 77, 35
1, 219538, Poly_aftertouch_c, 0, 77, 0
1, 219545, Control_c, 0, 64, 103
1, 219565, Control_c, 0, 64, 82
1, 219584, Control_c, 0, 64, 64
1, 219602, Control_c, 0, 64, 57
1, 219640, Control_c, 0, 64, 62
1, 219659, Control_c, 0, 64, 70
1, 219677, Control_c, 0, 64, 79
1, 219695, Control_c, 0, 64, 93
1, 219716, Control_c, 0, 64, 114
1, 219733, Control_c, 0, 64, 127
1, 219771, Note_on_c, 0, 91, 63
1, 219782, Note_on_c, 0, 79, 55
1, 219783, Note_on_c, 0, 85, 59
1, 219786, Note_on_c, 0, 82, 58
1, 220148, Note_off_c, 0, 91, 36
1, 220150, Note_off_c, 0, 79, 33
1, 220150, Poly_aftertouch_c, 0, 79, 0
1, 220153, Note_off_c, 0, 85, 37
1, 220153, Poly_aftertouch_c, 0, 85, 0
1, 220163, Note_off_c, 0, 82, 34
1, 220163, Poly_aftertouch_c, 0, 82, 0
1, 220366, Note_on_c, 0, 91, 64
1, 220367, Note_on_c, 0, 82, 61
1, 220369, Note_on_c, 0, 85, 59
1, 220379, Note_on_c, 0, 79, 60
1, 220480, Note_off_c, 0, 51, 46
1, 220663, Note_on_c, 0, 52, 72
1, 220698, Note_off_c, 0, 91, 52
1, 220713, Note_off_c, 0, 85, 37
1, 220713, Poly_aftertouch_c, 0, 85, 0
1, 220721, Note_off_c, 0, 79, 36
1, 220721, Poly_aftertouch_c, 0, 79, 0
1, 220749, Note_off_c, 0, 82, 35
1, 220749, Poly_aftertouch_c, 0, 82, 0
1, 220931, Note_on_c, 0, 82, 62
1, 220937, Note_on_c, 0, 91, 67
1, 220943, Note_on_c, 0, 85, 66
1, 220945, Note_on_c, 0, 79, 63
1, 220986, Poly_aftertouch_c, 0, 37, 20
1, 220988, Note_off_c, 0, 37, 36
1, 220988, Poly_aftertouch_c, 0, 37, 0
1, 221004, Note_off_c, 0, 52, 57
1, 221267, Note_on_c, 0, 49, 80
1, 221282, Note_on_c, 0, 37, 60
1, 221315, Note_off_c, 0, 91, 57
1, 221317, Note_off_c, 0, 79, 47
1, 221317, Poly_aftertouch_c, 0, 79, 0
1, 221360, Control_c, 0, 64, 122
1, 221379, Control_c, 0, 64, 101
1, 221385, Note_off_c, 0, 82, 37
1, 221385, Poly_aftertouch_c, 0, 82, 0
1, 221398, Control_c, 0, 64, 78
1, 221416, Control_c, 0, 64, 56
1, 221434, Control_c, 0, 64, 37
1, 221453, Control_c, 0, 64, 25
1, 221482, Note_off_c, 0, 85, 32
1, 221482, Poly_aftertouch_c, 0, 85, 0
1, 221490, Control_c, 0, 64, 39
1, 221509, Control_c, 0, 64, 55
1, 221529, Control_c, 0, 64, 72
1, 221546, Control_c, 0, 64, 86
1, 221565, Control_c, 0, 64, 104
1, 221586, Control_c, 0, 64, 127
1, 221607, Note_on_c, 0, 92, 71
1, 221612, Note_on_c, 0, 85, 69
1, 221616, Note_on_c, 0, 80, 63
1, 221618, Note_on_c, 0, 83, 64
1, 221921, Note_off_c, 0, 37, 33
1, 221921, Poly_aftertouch_c, 0, 37, 0
1, 222061, Note_off_c, 0, 83, 38
1, 222062, Note_off_c, 0, 49, 52
1, 222064, Note_off_c, 0, 92, 53
1, 222070, Note_off_c, 0, 85, 52
1, 222070, Poly_aftertouch_c, 0, 85, 0
1, 222085, Note_off_c, 0, 80, 38
1, 222085, Poly_aftertouch_c, 0, 80, 0
1, 222232, Note_on_c, 0, 92, 80
1, 222236, Note_on_c, 0, 85, 76
1, 222240, Note_on_c, 0, 80, 77
1, 222245, Note_on_c, 0, 83, 77
1, 222623, Note_off_c, 0, 85, 49
1, 222623, Poly_aftertouch_c, 0, 85, 0
1, 222628, Note_off_c, 0, 83, 49
1, 222628, Note_off_c, 0, 92, 57
1, 222639, Note_off_c, 0, 80, 50
1, 222639, Poly_aftertouch_c, 0, 80, 0
1, 222809, Note_on_c, 0, 92, 80
1, 222811, Note_on_c, 0, 80, 77
1, 222813, Note_on_c, 0, 85, 73
1, 222818, Note_on_c, 0, 83, 70
1, 222874, Note_on_c, 0, 37, 67
1, 222954, Note_on_c, 0, 43, 69
1, 223061, Control_c, 0, 64, 112
1, 223080, Control_c, 0, 64, 72
1, 223099, Control_c, 0, 64, 15
1, 223108, Note_off_c, 0, 83, 58
1, 223114, Note_on_c, 0, 51, 95
1, 223117, Control_c, 0, 64, 0
1, 223123, Note_off_c, 0, 85, 63
1, 223123, Poly_aftertouch_c, 0, 85, 0
1, 223173, Control_c, 0, 64, 43
1, 223193, Control_c, 0, 64, 77
1, 223211, Control_c, 0, 64, 115
1, 223229, Control_c, 0, 64, 127
1, 223259, Note_off_c, 0, 80, 39
1, 223259, Poly_aftertouch_c, 0, 80, 0
1, 223278, Note_off_c, 0, 92, 62
1, 223523, Note_on_c, 0, 91, 74
1, 223527, Note_on_c, 0, 94, 83
1, 223528, Note_on_c, 0, 85, 77
1, 223532, Note_on_c, 0, 82, 79
1, 223658, Note_off_c, 0, 37, 36
1, 223658, Poly_aftertouch_c, 0, 37, 0
1, 223879, Note_off_c, 0, 51, 52
1, 223901, Note_off_c, 0, 82, 46
1, 223901, Poly_aftertouch_c, 0, 82, 0
1, 223917, Note_off_c, 0, 94, 57
1, 223924, Note_off_c, 0, 91, 49
1, 223929, Note_off_c, 0, 85, 53
1, 223929, Poly_aftertouch_c, 0, 85, 0
1, 224074, Note_on_c, 0, 85, 77
1, 224075, Note_on_c, 0, 94, 81
1, 224076, Note_on_c, 0, 91, 72
1, 224080, Note_on_c, 0, 82, 79
1, 224352, Note_on_c, 0, 52, 95
1, 224456, Note_off_c, 0, 52, 53
1, 224516, Note_off_c, 0, 43, 40
1, 224517, Note_off_c, 0, 82, 52
1, 224517, Poly_aftertouch_c, 0, 82, 0
1, 224530, Note_off_c, 0, 94, 59
1, 224552, Note_off_c, 0, 85, 54
1, 224552, Poly_aftertouch_c, 0, 85, 0
1, 224560, Note_off_c, 0, 91, 55
1, 224651, Control_c, 0, 64, 117
1, 224656, Note_on_c, 0, 82, 85
1, 224658, Note_on_c, 0, 94, 88
1, 224661, Note_on_c, 0, 91, 77
1, 224669, Note_on_c, 0, 85, 75
1, 224670, Control_c, 0, 64, 66
1, 224676, Note_on_c, 0, 37, 79
1, 224688, Control_c, 0, 64, 0
1, 224784, Note_on_c, 0, 44, 83
1, 224800, Control_c, 0, 64, 45
1, 224820, Control_c, 0, 64, 118
1, 224833, Note_off_c, 0, 37, 60
1, 224833, Poly_aftertouch_c, 0, 37, 0
1, 224837, Control_c, 0, 64, 127
1, 224939, Note_off_c, 0, 44, 63
1, 224939, Poly_aftertouch_c, 0, 44, 0
1, 224980, Note_on_c, 0, 53, 101
1, 225071, Note_off_c, 0, 53, 53
1, 225071, Poly_aftertouch_c, 0, 53, 0
1, 225271, Note_off_c, 0, 94, 36
1, 225275, Note_off_c, 0, 91, 33
1, 225277, Note_off_c, 0, 82, 49
1, 225277, Poly_aftertouch_c, 0, 82, 0
1, 225308, Note_off_c, 0, 85, 28
1, 225308, Poly_aftertouch_c, 0, 85, 0
1, 225446, Note_on_c, 0, 95, 96
1, 225448, Note_on_c, 0, 85, 89
1, 225450, Note_on_c, 0, 83, 91
1, 225451, Note_on_c, 0, 89, 85
1, 225923, Note_off_c, 0, 83, 50
1, 225957, Note_off_c, 0, 95, 51
1, 225965, Note_off_c, 0, 85, 51
1, 225965, Poly_aftertouch_c, 0, 85, 0
1, 225972, Note_off_c, 0, 89, 36
1, 225972, Poly_aftertouch_c, 0, 89, 0
1, 226093, Note_on_c, 0, 95, 91
1, 226097, Note_on_c, 0, 89, 86
1, 226098, Note_on_c, 0, 85, 88
1, 226100, Note_on_c, 0, 83, 89
1, 226516, Note_off_c, 0, 83, 52
1, 226524, Note_off_c, 0, 89, 50
1, 226524, Poly_aftertouch_c, 0, 89, 0
1, 226541, Note_off_c, 0, 85, 48
1, 226541, Poly_aftertouch_c, 0, 85, 0
1, 226547, Note_off_c, 0, 95, 55
1, 226668, Note_on_c, 0, 95, 96
1, 226671, Note_on_c, 0, 89, 87
1, 226672, Note_on_c, 0, 83, 89
1, 226673, Note_on_c, 0, 85, 89
1, 226713, Note_on_c, 0, 37, 80
1, 226816, Note_on_c, 0, 42, 83
1, 226968, Note_off_c, 0, 89, 61
1, 226968, Poly_aftertouch_c, 0, 89, 0
1, 226989, Control_c, 0, 64, 75
1, 226997, Note_on_c, 0, 51, 107
1, 227007, Control_c, 0, 64, 0
1, 227016, Note_off_c, 0, 85, 62
1, 227016, Poly_aftertouch_c, 0, 85, 0
1, 227118, Note_off_c, 0, 95, 59
1, 227118, Note_off_c, 0, 83, 36
1, 227118, Control_c, 0, 64, 24
1, 227122, Poly_aftertouch_c, 0, 39, 0
1, 227137, Control_c, 0, 64, 58
1, 227157, Control_c, 0, 64, 78
1, 227175, Control_c, 0, 64, 103
1, 227193, Control_c, 0, 64, 127
1, 227403, Note_on_c, 0, 93, 91
1, 227406, Note_on_c, 0, 96, 97
1, 227408, Note_on_c, 0, 87, 95
1, 227408, Note_on_c, 0, 84, 95
1, 227830, Note_off_c, 0, 37, 59
1, 227830, Poly_aftertouch_c, 0, 37, 0
1, 227877, Note_off_c, 0, 84, 47
1, 227886, Note_off_c, 0, 96, 58
1, 227907, Note_off_c, 0, 93, 57
1, 227973, Note_off_c, 0, 87, 38
1, 228003, Note_off_c, 0, 51, 46
1, 228145, Note_on_c, 0, 93, 91
1, 228146, Note_on_c, 0, 84, 101
1, 228146, Note_on_c, 0, 96, 101
1, 228146, Note_on_c, 0, 87, 97
1, 228177, Note_off_c, 0, 42, 54
1, 228177, Poly_aftertouch_c, 0, 42, 0
1, 228619, Note_off_c, 0, 84, 38
1, 228620, Note_off_c, 0, 96, 38
1, 228639, Note_off_c, 0, 87, 48
1, 228677, Note_off_c, 0, 93, 34
1, 228868, Note_on_c, 0, 93, 91
1, 228869, Note_on_c, 0, 96, 99
1, 228871, Note_on_c, 0, 87, 95
1, 228873, Note_on_c, 0, 84, 98
1, 228959, Note_off_c, 0, 84, 64
1, 229032, Note_off_c, 0, 87, 61
1, 229051, Note_off_c, 0, 96, 64
1, 229079, Note_off_c, 0, 93, 62
1, 229383, Control_c, 0, 64, 91
1, 229396, Note_on_c, 0, 99, 101
1, 229398, Note_on_c, 0, 87, 103
1, 229399, Note_on_c, 0, 95, 92
1, 229399, Note_on_c, 0, 92, 98
1, 229399, Control_c, 0, 64, 0
1, 229406, Note_on_c, 0, 37, 87
1, 229406, Note_on_c, 0, 49, 105
1, 229413, Note_on_c, 0, 41, 82
1, 229437, Control_c, 0, 67, 10
1, 229457, Control_c, 0, 64, 41
1, 229475, Control_c, 0, 64, 97
1, 229486, Note_off_c, 0, 99, 67
1, 229491, Note_off_c, 0, 49, 63
1, 229492, Control_c, 0, 64, 127
1, 229493, Note_off_c, 0, 37, 61
1, 229493, Poly_aftertouch_c, 0, 37, 0
1, 229495, Note_off_c, 0, 87, 64
1, 229498, Note_off_c, 0, 41, 64
1, 229500, Note_off_c, 0, 95, 64
1, 229523, Note_off_c, 0, 92, 64
1, 229543, Poly_aftertouch_c, 0, 42, 0
1, 229587, Control_c, 0, 67, 0
1, 229994, Note_on_c, 0, 80, 90
1, 229995, Note_on_c, 0, 75, 101
1, 229996, Note_on_c, 0, 83, 84
1, 229997, Note_on_c, 0, 87, 93
1, 230001, Note_on_c, 0, 71, 96
1, 230004, Note_on_c, 0, 68, 91
1, 230056, Note_off_c, 0, 71, 65
1, 230073, Control_c, 0, 67, 8
1, 230084, Note_off_c, 0, 87, 65
1, 230086, Note_off_c, 0, 68, 62
1, 230101, Note_off_c, 0, 75, 56
1, 230103, Note_off_c, 0, 80, 62
1, 230103, Poly_aftertouch_c, 0, 80, 0
1, 230120, Note_off_c, 0, 83, 60
1, 230167, Control_c, 0, 67, 12
1, 230375, Note_on_c, 0, 65, 71
1, 230384, Note_on_c, 0, 77, 66
1, 230457, Note_on_c, 0, 75, 84
1, 230474, Note_on_c, 0, 63, 73
1, 230522, Control_c, 0, 64, 119
1, 230535, Note_on_c, 0, 68, 92
1, 230536, Note_on_c, 0, 83, 92
1, 230539, Note_on_c, 0, 80, 83
1, 230540, Control_c, 0, 64, 70
1, 230541, Note_on_c, 0, 71, 97
1, 230559, Control_c, 0, 64, 52
1, 230577, Control_c, 0, 64, 71
1, 230587, Note_off_c, 0, 71, 67
1, 230592, Note_off_c, 0, 75, 65
1, 230596, Control_c, 0, 64, 104
1, 230599, Note_off_c, 0, 83, 66
1, 230606, Note_off_c, 0, 65, 63
1, 230610, Note_off_c, 0, 68, 65
1, 230614, Control_c, 0, 64, 127
1, 230618, Poly_aftertouch_c, 0, 82, 0
1, 230619, Note_off_c, 0, 63, 63
1, 230619, Note_off_c, 0, 77, 62
1, 230619, Poly_aftertouch_c, 0, 77, 0
1, 230622, Note_off_c, 0, 80, 64
1, 230622, Poly_aftertouch_c, 0, 80, 0
1, 230653, Control_c, 0, 67, 22
1, 230672, Control_c, 0, 67, 29
1, 230690, Control_c, 0, 67, 37
1, 230935, Note_on_c, 0, 59, 67
1, 230967, Note_on_c, 0, 71, 70
1, 231027, Note_on_c, 0, 56, 70
1, 231033, Note_on_c, 0, 68, 82
1, 231083, Control_c, 0, 64, 115
1, 231084, Control_c, 0, 67, 33
1, 231104, Control_c, 0, 64, 69
1, 231105, Note_on_c, 0, 63, 86
1, 231106, Note_on_c, 0, 77, 86
1, 231106, Control_c, 0, 67, 28
1, 231108, Note_on_c, 0, 65, 96
1, 231113, Note_on_c, 0, 75, 80
1, 231125, Control_c, 0, 64, 52
1, 231126, Control_c, 0, 67, 16
1, 231139, Control_c, 0, 64, 73
1, 231140, Control_c, 0, 67, 0
1, 231158, Control_c, 0, 64, 115
1, 231159, Note_off_c, 0, 65, 67
1, 231166, Note_off_c, 0, 59, 63
1, 231166, Poly_aftertouch_c, 0, 59, 0
1, 231167, Note_off_c, 0, 68, 64
1, 231178, Control_c, 0, 64, 127
1, 231181, Note_off_c, 0, 63, 66
1, 231183, Note_off_c, 0, 71, 62
1, 231183, Note_off_c, 0, 77, 63
1, 231183, Poly_aftertouch_c, 0, 77, 0
1, 231192, Note_off_c, 0, 56, 66
1, 231206, Note_off_c, 0, 75, 61
1, 231504, Note_on_c, 0, 53, 77
1, 231517, Note_on_c, 0, 65, 69
1, 231575, Note_on_c, 0, 63, 81
1, 231610, Note_on_c, 0, 51, 70
1, 231625, Control_c, 0, 64, 105
1, 231643, Control_c, 0, 64, 55
1, 231655, Note_on_c, 0, 71, 87
1, 231655, Note_on_c, 0, 56, 87
1, 231657, Note_on_c, 0, 68, 76
1, 231661, Control_c, 0, 64, 0
1, 231662, Note_on_c, 0, 59, 98
1, 231700, Control_c, 0, 64, 54
1, 231712, Note_off_c, 0, 59, 65
1, 231712, Poly_aftertouch_c, 0, 59, 0
1, 231718, Control_c, 0, 64, 97
1, 231729, Note_off_c, 0, 71, 62
1, 231731, Note_off_c, 0, 63, 58
1, 231736, Note_off_c, 0, 65, 60
1, 231736, Control_c, 0, 64, 127
1, 231740, Note_off_c, 0, 53, 60
1, 231740, Poly_aftertouch_c, 0, 53, 0
1, 231754, Note_off_c, 0, 68, 63
1, 231754, Note_off_c, 0, 56, 64
1, 231756, Note_off_c, 0, 51, 60
1, 232091, Control_c, 0, 64, 101
1, 232093, Note_on_c, 0, 61, 95
1, 232105, Note_on_c, 0, 49, 100
1, 232106, Note_on_c, 0, 37, 91
1, 232110, Control_c, 0, 64, 69
1, 232131, Control_c, 0, 64, 63
1, 232149, Control_c, 0, 64, 79
1, 232161, Note_off_c, 0, 49, 60
1, 232166, Control_c, 0, 64, 115
1, 232179, Note_off_c, 0, 37, 60
1, 232179, Poly_aftertouch_c, 0, 37, 0
1, 232185, Control_c, 0, 64, 127
1, 232271, Note_off_c, 0, 61, 54
1, 232392, Control_c, 0, 64, 120
1, 232411, Control_c, 0, 64, 72
1, 232425, Note_on_c, 0, 59, 91
1, 232426, Note_on_c, 0, 47, 98
1, 232429, Note_on_c, 0, 35, 92
1, 232429, Control_c, 0, 64, 12
1, 232448, Control_c, 0, 64, 0
1, 232466, Control_c, 0, 64, 53
1, 232486, Control_c, 0, 64, 97
1, 232491, Note_off_c, 0, 47, 63
1, 232502, Note_off_c, 0, 35, 55
1, 232503, Control_c, 0, 64, 127
1, 232561, Note_off_c, 0, 59, 55
1, 232561, Poly_aftertouch_c, 0, 59, 0
1, 232635, Control_c, 0, 64, 111
1, 232654, Control_c, 0, 64, 61
1, 232673, Control_c, 0, 64, 53
1, 232677, Note_on_c, 0, 58, 91
1, 232678, Note_on_c, 0, 46, 96
1, 232682, Note_on_c, 0, 34, 89
1, 232690, Control_c, 0, 64, 91
1, 232709, Control_c, 0, 64, 127
1, 232740, Note_off_c, 0, 46, 61
1, 232764, Note_off_c, 0, 34, 57
1, 232787, Note_off_c, 0, 58, 62
1, 232803, Control_c, 0, 64, 76
1, 232821, Control_c, 0, 64, 44
1, 232841, Control_c, 0, 64, 68
1, 232856, Note_on_c, 0, 56, 95
1, 232859, Control_c, 0, 64, 121
1, 232864, Note_on_c, 0, 44, 93
1, 232870, Note_on_c, 0, 32, 90
1, 232877, Control_c, 0, 64, 127
1, 232924, Note_off_c, 0, 44, 63
1, 232924, Poly_aftertouch_c, 0, 44, 0
1, 232949, Note_off_c, 0, 32, 58
1, 232973, Note_off_c, 0, 56, 58
1, 233009, Control_c, 0, 64, 99
1, 233027, Control_c, 0, 64, 0
1, 233078, Note_on_c, 0, 42, 105
1, 233079, Note_on_c, 0, 54, 99
1, 233082, Note_on_c, 0, 30, 97
1, 233124, Note_off_c, 0, 30, 60
1, 233142, Control_c, 0, 64, 68
1, 233143, Note_off_c, 0, 42, 64
1, 233146, Note_off_c, 0, 54, 64
1, 233158, Control_c, 0, 64, 127
1, 233230, Poly_aftertouch_c, 0, 29, 0
1, 233663, Control_c, 0, 64, 102
1, 233683, Control_c, 0, 64, 25
1, 233690, Note_on_c, 0, 82, 97
1, 233696, Note_on_c, 0, 70, 97
1, 233697, Note_on_c, 0, 73, 93
1, 233701, Control_c, 0, 64, 0
1, 233704, Note_on_c, 0, 66, 92
1, 233704, Note_on_c, 0, 54, 83
1, 233705, Note_on_c, 0, 61, 84
1, 233738, Control_c, 0, 64, 40
1, 233757, Control_c, 0, 64, 91
1, 233775, Control_c, 0, 64, 127
1, 233814, Note_off_c, 0, 66, 63
1, 233820, Note_off_c, 0, 70, 64
1, 233835, Note_off_c, 0, 61, 60
1, 233842, Note_off_c, 0, 73, 62
1, 234079, Note_off_c, 0, 54, 59
1, 234081, Note_off_c, 0, 82, 61
1, 234098, Note_on_c, 0, 80, 80
1, 234101, Note_on_c, 0, 56, 69
1, 234152, Note_on_c, 0, 58, 70
1, 234166, Note_off_c, 0, 56, 57
1, 234179, Note_on_c, 0, 78, 73
1, 234180, Note_off_c, 0, 80, 61
1, 234180, Poly_aftertouch_c, 0, 80, 0
1, 234189, Note_off_c, 0, 58, 70
1, 234263, Note_off_c, 0, 78, 61
1, 234263, Poly_aftertouch_c, 0, 78, 0
1, 234299, Control_c, 0, 64, 105
1, 234318, Control_c, 0, 64, 46
1, 234332, Note_on_c, 0, 75, 103
1, 234335, Control_c, 0, 64, 0
1, 234336, Note_on_c, 0, 78, 87
1, 234337, Note_on_c, 0, 87, 97
1, 234340, Note_on_c, 0, 80, 89
1, 234344, Note_on_c, 0, 68, 93
1, 234344, Note_on_c, 0, 59, 78
1, 234352, Note_on_c, 0, 66, 85
1, 234354, Control_c, 0, 64, 59
1, 234374, Control_c, 0, 64, 111
1, 234393, Control_c, 0, 64, 127
1, 234397, Note_off_c, 0, 68, 66
1, 234409, Note_off_c, 0, 75, 68
1, 234418, Note_off_c, 0, 66, 66
1, 234421, Note_off_c, 0, 87, 65
1, 234423, Note_off_c, 0, 59, 63
1, 234423, Poly_aftertouch_c, 0, 59, 0
1, 234439, Note_off_c, 0, 80, 63
1, 234439, Poly_aftertouch_c, 0, 80, 0
1, 234451, Note_off_c, 0, 78, 65
1, 234451, Poly_aftertouch_c, 0, 78, 0
1, 234454, Poly_aftertouch_c, 0, 61, 0
1, 234860, Control_c, 0, 64, 96
1, 234879, Control_c, 0, 64, 33
1, 234887, Note_on_c, 0, 47, 94
1, 234887, Note_on_c, 0, 59, 91
1, 234891, Note_on_c, 0, 35, 88
1, 234898, Control_c, 0, 64, 0
1, 234916, Control_c, 0, 64, 59
1, 234919, Note_off_c, 0, 59, 68
1, 234919, Poly_aftertouch_c, 0, 59, 0
1, 234923, Note_off_c, 0, 35, 69
1, 234935, Control_c, 0, 64, 100
1, 234936, Note_off_c, 0, 47, 67
1, 234954, Control_c, 0, 64, 127
1, 235023, Poly_aftertouch_c, 0, 37, 0
1, 235219, Note_on_c, 0, 59, 81
1, 235222, Note_on_c, 0, 68, 91
1, 235225, Note_on_c, 0, 75, 94
1, 235227, Note_on_c, 0, 87, 57
1, 235229, Note_on_c, 0, 80, 85
1, 235230, Note_on_c, 0, 78, 83
1, 235231, Note_on_c, 0, 66, 81
1, 235268, Note_off_c, 0, 87, 66
1, 235270, Note_off_c, 0, 68, 63
1, 235276, Note_off_c, 0, 75, 65
1, 235278, Note_off_c, 0, 80, 64
1, 235278, Poly_aftertouch_c, 0, 80, 0
1, 235284, Note_off_c, 0, 59, 64
1, 235284, Note_off_c, 0, 66, 64
1, 235284, Poly_aftertouch_c, 0, 59, 0
1, 235291, Note_off_c, 0, 78, 63
1, 235291, Poly_aftertouch_c, 0, 78, 0
1, 235514, Control_c, 0, 64, 100
1, 235533, Control_c, 0, 64, 50
1, 235542, Note_on_c, 0, 61, 94
1, 235543, Note_on_c, 0, 49, 102
1, 235549, Note_on_c, 0, 37, 93
1, 235553, Control_c, 0, 64, 22
1, 235571, Control_c, 0, 64, 56
1, 235579, Note_off_c, 0, 37, 69
1, 235582, Note_off_c, 0, 49, 58
1, 235586, Note_off_c, 0, 61, 64
1, 235588, Control_c, 0, 64, 83
1, 235607, Control_c, 0, 64, 119
1, 235627, Control_c, 0, 64, 127
1, 235880, Note_on_c, 0, 56, 56
1, 235903, Note_on_c, 0, 65, 39
1, 235922, Note_on_c, 0, 61, 58
1, 235980, Note_on_c, 0, 87, 96
1, 235987, Note_off_c, 0, 56, 63
1, 235990, Note_on_c, 0, 80, 80
1, 235992, Note_on_c, 0, 77, 80
1, 235992, Note_on_c, 0, 75, 94
1, 235995, Note_on_c, 0, 71, 83
1, 236001, Control_c, 0, 64, 91
1, 236019, Control_c, 0, 64, 50
1, 236039, Control_c, 0, 64, 38
1, 236056, Control_c, 0, 64, 60
1, 236076, Control_c, 0, 64, 90
1, 236094, Control_c, 0, 64, 127
1, 236141, Note_off_c, 0, 71, 53
1, 236221, Note_off_c, 0, 75, 62
1, 236244, Note_off_c, 0, 87, 60
1, 236246, Note_off_c, 0, 61, 50
1, 236252, Note_on_c, 0, 56, 72
1, 236306, Note_off_c, 0, 77, 49
1, 236306, Poly_aftertouch_c, 0, 77, 0
1, 236317, Control_c, 0, 64, 112
1, 236337, Control_c, 0, 64, 70
1, 236338, Note_off_c, 0, 56, 64
1, 236347, Note_on_c, 0, 85, 94
1, 236351, Note_on_c, 0, 73, 100
1, 236354, Note_on_c, 0, 71, 97
1, 236357, Note_off_c, 0, 80, 64
1, 236357, Note_on_c, 0, 80, 34
1, 236357, Control_c, 0, 64, 68
1, 236362, Note_on_c, 0, 77, 46
1, 236364, Note_on_c, 0, 61, 15
1, 236375, Control_c, 0, 64, 95
1, 236392, Control_c, 0, 64, 127
1, 236405, Note_off_c, 0, 77, 64
1, 236405, Poly_aftertouch_c, 0, 77, 0
1, 236424, Note_off_c, 0, 71, 58
1, 236436, Note_off_c, 0, 80, 63
1, 236436, Poly_aftertouch_c, 0, 80, 0
1, 236461, Note_off_c, 0, 85, 64
1, 236461, Poly_aftertouch_c, 0, 85, 0
1, 236508, Note_off_c, 0, 73, 54
1, 236617, Control_c, 0, 64, 82
1, 236620, Note_off_c, 0, 65, 64
1, 236620, Note_on_c, 0, 65, 57
1, 236626, Note_on_c, 0, 68, 94
1, 236629, Note_on_c, 0, 56, 78
1, 236634, Note_on_c, 0, 83, 89
1, 236636, Note_on_c, 0, 71, 94
1, 236636, Control_c, 0, 64, 66
1, 236637, Note_on_c, 0, 77, 67
1, 236639, Note_on_c, 0, 73, 78
1, 236657, Control_c, 0, 64, 90
1, 236661, Note_off_c, 0, 68, 66
1, 236671, Note_off_c, 0, 83, 63
1, 236673, Control_c, 0, 64, 127
1, 236682, Note_off_c, 0, 77, 62
1, 236682, Poly_aftertouch_c, 0, 77, 0
1, 236690, Note_off_c, 0, 65, 64
1, 236696, Note_off_c, 0, 73, 65
1, 236698, Note_off_c, 0, 71, 63
1, 236702, Note_off_c, 0, 56, 62
1, 236712, Note_off_c, 0, 61, 62
1, 236775, Poly_aftertouch_c, 0, 59, 0
1, 236916, Control_c, 0, 64, 121
1, 236936, Control_c, 0, 64, 86
1, 236955, Control_c, 0, 64, 27
1, 236973, Control_c, 0, 64, 0
1, 237016, Note_on_c, 0, 54, 101
1, 237023, Note_on_c, 0, 42, 104
1, 237030, Note_on_c, 0, 30, 97
1, 237059, Note_off_c, 0, 30, 70
1, 237065, Control_c, 0, 64, 69
1, 237067, Note_off_c, 0, 42, 64
1, 237076, Note_off_c, 0, 54, 66
1, 237084, Control_c, 0, 64, 127
1, 237244, Poly_aftertouch_c, 0, 30, 0
1, 237647, Control_c, 0, 64, 93
1, 237652, Note_on_c, 0, 82, 98
1, 237657, Note_on_c, 0, 70, 98
1, 237662, Note_on_c, 0, 73, 91
1, 237664, Control_c, 0, 64, 0
1, 237666, Note_on_c, 0, 66, 88
1, 237667, Note_on_c, 0, 54, 79
1, 237672, Note_on_c, 0, 61, 80
1, 237702, Control_c, 0, 64, 11
1, 237721, Control_c, 0, 64, 68
1, 237739, Control_c, 0, 64, 117
1, 237758, Control_c, 0, 64, 127
1, 237771, Note_off_c, 0, 70, 66
1, 237778, Note_off_c, 0, 66, 63
1, 237803, Note_off_c, 0, 73, 62
1, 237805, Note_off_c, 0, 61, 60
1, 238033, Note_off_c, 0, 82, 62
1, 238067, Note_off_c, 0, 54, 62
1, 238072, Note_on_c, 0, 56, 62
1, 238092, Note_on_c, 0, 80, 75
1, 238130, Note_off_c, 0, 80, 57
1, 238130, Poly_aftertouch_c, 0, 80, 0
1, 238141, Note_on_c, 0, 58, 70
1, 238142, Note_on_c, 0, 78, 78
1, 238159, Note_off_c, 0, 56, 62
1, 238172, Note_off_c, 0, 58, 66
1, 238202, Note_off_c, 0, 78, 63
1, 238202, Poly_aftertouch_c, 0, 78, 0
1, 238263, Control_c, 0, 64, 85
1, 238282, Control_c, 0, 64, 0
1, 238288, Note_on_c, 0, 90, 99
1, 238288, Note_on_c, 0, 78, 110
1, 238292, Note_on_c, 0, 80, 98
1, 238293, Note_on_c, 0, 87, 93
1, 238302, Note_on_c, 0, 68, 96
1, 238311, Note_on_c, 0, 66, 83
1, 238311, Note_on_c, 0, 60, 82
1, 238320, Control_c, 0, 64, 44
1, 238337, Control_c, 0, 64, 97
1, 238352, Note_off_c, 0, 68, 65
1, 238356, Control_c, 0, 64, 127
1, 238371, Note_off_c, 0, 66, 64
1, 238379, Note_off_c, 0, 60, 64
1, 238379, Poly_aftertouch_c, 0, 60, 0
1, 238380, Note_off_c, 0, 78, 63
1, 238380, Poly_aftertouch_c, 0, 78, 0
1, 238385, Note_off_c, 0, 90, 68
1, 238408, Note_off_c, 0, 87, 65
1, 238412, Note_off_c, 0, 80, 65
1, 238412, Poly_aftertouch_c, 0, 80, 0
1, 238823, Control_c, 0, 64, 106
1, 238842, Note_on_c, 0, 56, 94
1, 238842, Control_c, 0, 64, 52
1, 238854, Note_on_c, 0, 44, 100
1, 238861, Control_c, 0, 64, 0
1, 238862, Note_on_c, 0, 32, 88
1, 238880, Control_c, 0, 64, 53
1, 238884, Note_off_c, 0, 44, 68
1, 238884, Poly_aftertouch_c, 0, 44, 0
1, 238887, Note_off_c, 0, 56, 68
1, 238892, Note_off_c, 0, 32, 66
1, 238899, Control_c, 0, 64, 88
1, 238917, Control_c, 0, 64, 127
1, 239062, Poly_aftertouch_c, 0, 32, 0
1, 239226, Note_on_c, 0, 60, 86
1, 239227, Note_on_c, 0, 68, 91
1, 239227, Note_on_c, 0, 90, 93
1, 239227, Note_on_c, 0, 78, 99
1, 239230, Note_on_c, 0, 87, 90
1, 239232, Note_on_c, 0, 66, 84
1, 239235, Note_on_c, 0, 80, 84
1, 239262, Note_off_c, 0, 68, 65
1, 239263, Note_off_c, 0, 80, 68
1, 239263, Poly_aftertouch_c, 0, 80, 0
1, 239266, Note_off_c, 0, 90, 68
1, 239272, Note_off_c, 0, 78, 66
1, 239272, Poly_aftertouch_c, 0, 78, 0
1, 239279, Note_off_c, 0, 66, 65
1, 239280, Note_off_c, 0, 87, 66
1, 239281, Note_off_c, 0, 60, 66
1, 239281, Poly_aftertouch_c, 0, 60, 0
1, 239479, Control_c, 0, 64, 96
1, 239498, Control_c, 0, 64, 47
1, 239513, Note_on_c, 0, 61, 86
1, 239516, Control_c, 0, 64, 27
1, 239521, Note_on_c, 0, 49, 96
1, 239530, Note_on_c, 0, 37, 89
1, 239534, Control_c, 0, 64, 60
1, 239539, Note_off_c, 0, 61, 71
1, 239549, Note_off_c, 0, 49, 67
1, 239552, Control_c, 0, 64, 87
1, 239559, Note_off_c, 0, 37, 65
1, 239572, Control_c, 0, 64, 127
1, 239749, Poly_aftertouch_c, 0, 37, 0
1, 239822, Note_on_c, 0, 56, 49
1, 239855, Note_on_c, 0, 65, 34
1, 239867, Note_on_c, 0, 61, 50
1, 239888, Note_on_c, 0, 89, 91
1, 239899, Note_on_c, 0, 83, 72
1, 239900, Note_on_c, 0, 77, 80
1, 239905, Note_on_c, 0, 80, 69
1, 239908, Control_c, 0, 64, 122
1, 239911, Note_off_c, 0, 56, 61
1, 239923, Note_on_c, 0, 71, 78
1, 239926, Control_c, 0, 64, 93
1, 239946, Control_c, 0, 64, 77
1, 239965, Control_c, 0, 64, 85
1, 239983, Control_c, 0, 64, 112
1, 240002, Control_c, 0, 64, 127
1, 240021, Note_off_c, 0, 77, 60
1, 240021, Poly_aftertouch_c, 0, 77, 0
1, 240034, Note_off_c, 0, 71, 56
1, 240065, Note_off_c, 0, 89, 60
1, 240065, Poly_aftertouch_c, 0, 89, 0
1, 240125, Note_off_c, 0, 61, 38
1, 240148, Note_off_c, 0, 80, 37
1, 240148, Poly_aftertouch_c, 0, 80, 0
1, 240154, Note_off_c, 0, 65, 43
1, 240177, Note_off_c, 0, 83, 52
1, 240193, Note_on_c, 0, 56, 57
1, 240245, Note_on_c, 0, 87, 95
1, 240247, Control_c, 0, 64, 101
1, 240249, Note_on_c, 0, 83, 58
1, 240251, Note_on_c, 0, 75, 91
1, 240266, Note_on_c, 0, 61, 62
1, 240266, Note_on_c, 0, 80, 72
1, 240266, Control_c, 0, 64, 64
1, 240273, Note_off_c, 0, 56, 65
1, 240282, Note_on_c, 0, 65, 62
1, 240284, Control_c, 0, 64, 59
1, 240296, Note_on_c, 0, 71, 79
1, 240301, Control_c, 0, 64, 78
1, 240320, Control_c, 0, 64, 105
1, 240324, Note_off_c, 0, 80, 58
1, 240324, Poly_aftertouch_c, 0, 80, 0
1, 240326, Note_off_c, 0, 83, 63
1, 240339, Control_c, 0, 64, 127
1, 240385, Note_off_c, 0, 71, 56
1, 240392, Note_off_c, 0, 87, 62
1, 240406, Poly_aftertouch_c, 0, 85, 0
1, 240447, Note_off_c, 0, 75, 62
1, 240485, Note_on_c, 0, 56, 57
1, 240544, Control_c, 0, 64, 113
1, 240558, Note_off_c, 0, 61, 64
1, 240558, Note_on_c, 0, 61, 17
1, 240561, Note_off_c, 0, 56, 64
1, 240562, Control_c, 0, 64, 70
1, 240563, Note_on_c, 0, 85, 88
1, 240564, Control_c, 0, 67, 8
1, 240574, Note_on_c, 0, 77, 75
1, 240574, Note_on_c, 0, 73, 85
1, 240575, Note_on_c, 0, 80, 77
1, 240579, Note_on_c, 0, 71, 78
1, 240580, Control_c, 0, 64, 46
1, 240581, Control_c, 0, 67, 14
1, 240599, Note_off_c, 0, 65, 64
1, 240599, Note_on_c, 0, 65, 10
1, 240601, Control_c, 0, 64, 56
1, 240602, Control_c, 0, 67, 20
1, 240610, Note_off_c, 0, 71, 67
1, 240618, Control_c, 0, 64, 78
1, 240619, Control_c, 0, 67, 24
1, 240631, Note_off_c, 0, 65, 60
1, 240637, Control_c, 0, 64, 97
1, 240657, Control_c, 0, 64, 121
1, 240659, Note_off_c, 0, 61, 60
1, 240659, Control_c, 0, 67, 28
1, 240675, Control_c, 0, 64, 127
1, 240693, Control_c, 0, 67, 37
1, 240713, Control_c, 0, 67, 45
1, 240717, Note_off_c, 0, 77, 57
1, 240717, Poly_aftertouch_c, 0, 77, 0
1, 240723, Note_off_c, 0, 80, 60
1, 240723, Poly_aftertouch_c, 0, 80, 0
1, 240732, Control_c, 0, 67, 52
1, 240741, Note_off_c, 0, 73, 56
1, 240742, Note_off_c, 0, 85, 58
1, 240749, Control_c, 0, 67, 57
1, 240789, Control_c, 0, 67, 63
1, 240824, Control_c, 0, 67, 68
1, 240863, Control_c, 0, 64, 113
1, 240864, Control_c, 0, 67, 73
1, 240881, Control_c, 0, 64, 101
1, 240899, Control_c, 0, 64, 86
1, 240901, Control_c, 0, 67, 79
1, 240919, Control_c, 0, 64, 70
1, 240922, Control_c, 0, 67, 83
1, 240938, Control_c, 0, 64, 58
1, 240938, Control_c, 0, 67, 89
1, 240956, Control_c, 0, 64, 49
1, 240957, Control_c, 0, 67, 93
1, 240974, Control_c, 0, 64, 30
1, 240975, Control_c, 0, 67, 97
1, 240993, Control_c, 0, 64, 0
1, 240994, Control_c, 0, 67, 101
1, 241012, Control_c, 0, 67, 106
1, 241030, Control_c, 0, 67, 111
1, 241050, Control_c, 0, 67, 116
1, 241068, Control_c, 0, 67, 120
1, 241106, Control_c, 0, 67, 125
1, 241111, Note_on_c, 0, 30, 39
1, 241255, Control_c, 0, 64, 21
1, 241274, Control_c, 0, 64, 34
1, 241293, Control_c, 0, 64, 48
1, 241311, Control_c, 0, 64, 61
1, 241330, Control_c, 0, 64, 72
1, 241339, Note_off_c, 0, 30, 57
1, 241348, Control_c, 0, 64, 79
1, 241367, Control_c, 0, 64, 87
1, 241385, Control_c, 0, 64, 95
1, 241405, Control_c, 0, 64, 103
1, 241424, Note_on_c, 0, 78, 38
1, 241424, Control_c, 0, 64, 110
1, 241426, Note_on_c, 0, 73, 40
1, 241427, Note_on_c, 0, 82, 42
1, 241442, Control_c, 0, 64, 115
1, 241448, Note_on_c, 0, 70, 32
1, 241461, Control_c, 0, 64, 120
1, 241479, Control_c, 0, 64, 126
1, 241666, Note_off_c, 0, 73, 40
1, 241684, Note_off_c, 0, 70, 37
1, 241695, Note_off_c, 0, 78, 32
1, 241695, Poly_aftertouch_c, 0, 78, 0
1, 241697, Note_off_c, 0, 82, 32
1, 241735, Note_on_c, 0, 58, 53
1, 242004, Control_c, 0, 64, 121
1, 242030, Note_on_c, 0, 78, 43
1, 242035, Note_on_c, 0, 82, 42
1, 242037, Note_on_c, 0, 70, 36
1, 242040, Note_on_c, 0, 73, 41
1, 242049, Note_off_c, 0, 58, 48
1, 242078, Control_c, 0, 64, 117
1, 242095, Note_on_c, 0, 56, 43
1, 242115, Control_c, 0, 64, 108
1, 242134, Control_c, 0, 64, 95
1, 242152, Control_c, 0, 64, 77
1, 242156, Note_off_c, 0, 56, 60
1, 242164, Note_on_c, 0, 54, 49
1, 242171, Control_c, 0, 64, 58
1, 242190, Control_c, 0, 64, 42
1, 242209, Control_c, 0, 64, 23
1, 242219, Note_off_c, 0, 54, 60
1, 242226, Control_c, 0, 64, 19
1, 242266, Control_c, 0, 64, 26
1, 242283, Control_c, 0, 64, 34
1, 242302, Control_c, 0, 64, 44
1, 242320, Control_c, 0, 64, 58
1, 242340, Control_c, 0, 64, 70
1, 242342, Note_off_c, 0, 73, 52
1, 242358, Control_c, 0, 64, 75
1, 242362, Note_off_c, 0, 78, 51
1, 242362, Poly_aftertouch_c, 0, 78, 0
1, 242371, Note_off_c, 0, 70, 45
1, 242376, Control_c, 0, 64, 77
1, 242380, Note_off_c, 0, 82, 46
1, 242563, Control_c, 0, 64, 75
1, 242565, Note_on_c, 0, 78, 39
1, 242568, Note_on_c, 0, 82, 42
1, 242573, Note_on_c, 0, 73, 37
1, 242586, Note_on_c, 0, 70, 36
1, 242638, Control_c, 0, 64, 72
1, 242658, Control_c, 0, 64, 70
1, 242676, Control_c, 0, 64, 66
1, 242695, Control_c, 0, 64, 60
1, 242713, Control_c, 0, 64, 52
1, 242734, Control_c, 0, 64, 45
1, 242751, Control_c, 0, 64, 39
1, 242759, Note_off_c, 0, 73, 56
1, 242769, Control_c, 0, 64, 32
1, 242796, Note_off_c, 0, 70, 57
1, 242807, Control_c, 0, 64, 27
1, 242820, Note_off_c, 0, 78, 61
1, 242820, Poly_aftertouch_c, 0, 78, 0
1, 242841, Note_on_c, 0, 37, 44
1, 242860, Note_off_c, 0, 82, 62
1, 242900, Control_c, 0, 64, 31
1, 242937, Control_c, 0, 64, 38
1, 242957, Control_c, 0, 64, 40
1, 242974, Control_c, 0, 64, 43
1, 243013, Control_c, 0, 64, 48
1, 243031, Control_c, 0, 64, 56
1, 243049, Control_c, 0, 64, 65
1, 243056, Note_off_c, 0, 37, 60
1, 243069, Control_c, 0, 64, 72
1, 243087, Control_c, 0, 64, 76
1, 243106, Control_c, 0, 64, 79
1, 243119, Note_on_c, 0, 80, 45
1, 243120, Note_on_c, 0, 85, 49
1, 243125, Control_c, 0, 64, 83
1, 243131, Note_on_c, 0, 73, 38
1, 243137, Note_on_c, 0, 77, 42
1, 243144, Control_c, 0, 64, 89
1, 243162, Control_c, 0, 64, 95
1, 243181, Control_c, 0, 64, 100
1, 243218, Control_c, 0, 64, 105
1, 243255, Control_c, 0, 64, 111
1, 243293, Control_c, 0, 64, 115
1, 243383, Note_on_c, 0, 56, 56
1, 243388, Note_off_c, 0, 77, 40
1, 243388, Poly_aftertouch_c, 0, 77, 0
1, 243400, Note_off_c, 0, 73, 42
1, 243408, Note_off_c, 0, 80, 32
1, 243408, Poly_aftertouch_c, 0, 80, 0
1, 243420, Note_off_c, 0, 85, 37
1, 243593, Control_c, 0, 64, 111
1, 243684, Note_on_c, 0, 85, 44
1, 243688, Note_off_c, 0, 56, 56
1, 243688, Note_on_c, 0, 80, 41
1, 243698, Note_on_c, 0, 73, 30
1, 243706, Note_on_c, 0, 77, 40
1, 243781, Note_on_c, 0, 54, 44
1, 243830, Note_off_c, 0, 54, 52
1, 243834, Control_c, 0, 64, 105
1, 243853, Control_c, 0, 64, 97
1, 243857, Note_on_c, 0, 53, 58
1, 243872, Control_c, 0, 64, 81
1, 243893, Control_c, 0, 64, 60
1, 243906, Note_off_c, 0, 53, 64
1, 243906, Poly_aftertouch_c, 0, 53, 0
1, 243910, Control_c, 0, 64, 34
1, 243928, Control_c, 0, 64, 0
1, 243976, Poly_aftertouch_c, 0, 73, 24
1, 243991, Note_off_c, 0, 80, 49
1, 243991, Poly_aftertouch_c, 0, 80, 0
1, 243995, Note_off_c, 0, 73, 41
1, 243995, Poly_aftertouch_c, 0, 73, 0
1, 244008, Note_off_c, 0, 77, 38
1, 244008, Poly_aftertouch_c, 0, 77, 0
1, 244036, Note_off_c, 0, 85, 35
1, 244040, Control_c, 0, 64, 16
1, 244060, Control_c, 0, 64, 33
1, 244079, Control_c, 0, 64, 50
1, 244097, Control_c, 0, 64, 64
1, 244115, Control_c, 0, 64, 72
1, 244135, Control_c, 0, 64, 76
1, 244153, Control_c, 0, 64, 79
1, 244172, Control_c, 0, 64, 83
1, 244189, Control_c, 0, 64, 88
1, 244190, Note_on_c, 0, 85, 46
1, 244193, Note_on_c, 0, 80, 43
1, 244210, Control_c, 0, 64, 95
1, 244214, Note_on_c, 0, 73, 42
1, 244228, Control_c, 0, 64, 101
1, 244233, Note_on_c, 0, 77, 31
1, 244246, Control_c, 0, 64, 106
1, 244266, Control_c, 0, 64, 110
1, 244340, Control_c, 0, 64, 114
1, 244348, Note_off_c, 0, 73, 50
1, 244348, Poly_aftertouch_c, 0, 73, 0
1, 244357, Note_off_c, 0, 77, 31
1, 244357, Poly_aftertouch_c, 0, 77, 0
1, 244381, Note_off_c, 0, 80, 44
1, 244381, Poly_aftertouch_c, 0, 80, 0
1, 244397, Control_c, 0, 64, 119
1, 244424, Note_off_c, 0, 85, 63
1, 244452, Control_c, 0, 64, 107
1, 244471, Control_c, 0, 64, 88
1, 244478, Note_on_c, 0, 34, 44
1, 244491, Control_c, 0, 64, 64
1, 244508, Control_c, 0, 64, 51
1, 244528, Control_c, 0, 64, 55
1, 244546, Control_c, 0, 64, 65
1, 244565, Control_c, 0, 64, 75
1, 244585, Control_c, 0, 64, 87
1, 244602, Control_c, 0, 64, 103
1, 244611, Note_off_c, 0, 34, 59
1, 244619, Control_c, 0, 64, 119
1, 244639, Control_c, 0, 64, 127
1, 244761, Note_on_c, 0, 90, 54
1, 244766, Note_on_c, 0, 85, 52
1, 244768, Note_on_c, 0, 82, 49
1, 244770, Note_on_c, 0, 78, 43
1, 245033, Note_on_c, 0, 61, 64
1, 245033, Control_c, 0, 64, 123
1, 245052, Note_off_c, 0, 90, 52
1, 245064, Note_off_c, 0, 78, 40
1, 245064, Poly_aftertouch_c, 0, 78, 0
1, 245072, Note_off_c, 0, 82, 42
1, 245080, Note_off_c, 0, 85, 42
1, 245126, Control_c, 0, 64, 119
1, 245200, Control_c, 0, 64, 115
1, 245294, Control_c, 0, 64, 111
1, 245330, Note_on_c, 0, 90, 48
1, 245333, Note_on_c, 0, 85, 42
1, 245345, Note_on_c, 0, 82, 44
1, 245348, Note_on_c, 0, 78, 31
1, 245379, Note_off_c, 0, 61, 53
1, 245387, Control_c, 0, 64, 106
1, 245417, Note_on_c, 0, 59, 47
1, 245486, Note_off_c, 0, 59, 55
1, 245496, Note_on_c, 0, 58, 54
1, 245556, Control_c, 0, 64, 101
1, 245557, Note_off_c, 0, 58, 60
1, 245575, Control_c, 0, 64, 95
1, 245592, Control_c, 0, 64, 87
1, 245612, Control_c, 0, 64, 76
1, 245618, Note_off_c, 0, 78, 39
1, 245618, Poly_aftertouch_c, 0, 78, 0
1, 245632, Control_c, 0, 64, 65
1, 245641, Note_off_c, 0, 82, 40
1, 245649, Control_c, 0, 64, 56
1, 245650, Note_off_c, 0, 90, 35
1, 245652, Note_off_c, 0, 85, 35
1, 245668, Control_c, 0, 64, 48
1, 245687, Control_c, 0, 64, 43
1, 245743, Control_c, 0, 64, 45
1, 245761, Control_c, 0, 64, 47
1, 245780, Control_c, 0, 64, 50
1, 245799, Control_c, 0, 64, 54
1, 245817, Control_c, 0, 64, 58
1, 245832, Note_on_c, 0, 90, 45
1, 245836, Control_c, 0, 64, 64
1, 245837, Note_on_c, 0, 85, 39
1, 245853, Note_on_c, 0, 82, 38
1, 245854, Control_c, 0, 64, 68
1, 245865, Note_on_c, 0, 78, 39
1, 245871, Control_c, 0, 64, 70
1, 245892, Control_c, 0, 64, 72
1, 245949, Control_c, 0, 64, 70
1, 245967, Control_c, 0, 64, 67
1, 245976, Note_off_c, 0, 82, 52
1, 245984, Control_c, 0, 64, 63
1, 245998, Note_off_c, 0, 90, 56
1, 246003, Control_c, 0, 64, 58
1, 246012, Note_off_c, 0, 85, 32
1, 246023, Control_c, 0, 64, 52
1, 246043, Control_c, 0, 64, 45
1, 246060, Control_c, 0, 64, 37
1, 246061, Note_off_c, 0, 78, 43
1, 246061, Poly_aftertouch_c, 0, 78, 0
1, 246079, Control_c, 0, 64, 32
1, 246123, Note_on_c, 0, 36, 41
1, 246135, Control_c, 0, 64, 37
1, 246154, Control_c, 0, 64, 41
1, 246173, Control_c, 0, 64, 46
1, 246191, Control_c, 0, 64, 53
1, 246209, Control_c, 0, 64, 61
1, 246229, Control_c, 0, 64, 67
1, 246247, Control_c, 0, 64, 70
1, 246266, Control_c, 0, 64, 73
1, 246285, Control_c, 0, 64, 78
1, 246304, Note_off_c, 0, 36, 61
1, 246304, Control_c, 0, 64, 83
1, 246322, Control_c, 0, 64, 88
1, 246341, Control_c, 0, 64, 93
1, 246361, Control_c, 0, 64, 98
1, 246379, Control_c, 0, 64, 103
1, 246386, Note_on_c, 0, 88, 44
1, 246392, Note_on_c, 0, 76, 42
1, 246400, Note_on_c, 0, 84, 42
1, 246407, Note_on_c, 0, 82, 43
1, 246416, Control_c, 0, 64, 107
1, 246643, Note_off_c, 0, 82, 23
1, 246644, Note_off_c, 0, 84, 38
1, 246676, Note_on_c, 0, 58, 56
1, 246680, Note_off_c, 0, 76, 36
1, 246709, Note_off_c, 0, 88, 34
1, 246828, Control_c, 0, 64, 103
1, 246942, Note_off_c, 0, 58, 56
1, 246976, Note_on_c, 0, 88, 38
1, 246977, Control_c, 0, 64, 99
1, 246987, Note_on_c, 0, 82, 41
1, 246990, Note_on_c, 0, 84, 38
1, 246991, Note_on_c, 0, 76, 33
1, 247062, Note_on_c, 0, 56, 47
1, 247126, Note_off_c, 0, 56, 55
1, 247145, Control_c, 0, 64, 95
1, 247162, Note_on_c, 0, 55, 44
1, 247182, Control_c, 0, 64, 87
1, 247200, Note_off_c, 0, 55, 59
1, 247200, Poly_aftertouch_c, 0, 55, 0
1, 247200, Control_c, 0, 64, 80
1, 247220, Control_c, 0, 64, 69
1, 247238, Control_c, 0, 64, 56
1, 247257, Control_c, 0, 64, 37
1, 247265, Note_off_c, 0, 82, 38
1, 247274, Note_off_c, 0, 84, 42
1, 247274, Control_c, 0, 64, 12
1, 247281, Note_off_c, 0, 76, 41
1, 247294, Control_c, 0, 64, 0
1, 247302, Note_off_c, 0, 88, 43
1, 247314, Control_c, 0, 64, 16
1, 247331, Control_c, 0, 64, 28
1, 247351, Control_c, 0, 64, 35
1, 247369, Control_c, 0, 64, 46
1, 247388, Control_c, 0, 64, 60
1, 247407, Control_c, 0, 64, 69
1, 247425, Control_c, 0, 64, 73
1, 247445, Control_c, 0, 64, 76
1, 247461, Control_c, 0, 64, 79
1, 247468, Note_on_c, 0, 88, 39
1, 247483, Control_c, 0, 64, 84
1, 247493, Note_on_c, 0, 84, 36
1, 247497, Note_on_c, 0, 76, 29
1, 247499, Note_on_c, 0, 82, 37
1, 247502, Control_c, 0, 64, 89
1, 247519, Control_c, 0, 64, 93
1, 247676, Note_off_c, 0, 82, 29
1, 247677, Note_off_c, 0, 84, 44
1, 247713, Note_off_c, 0, 88, 45
1, 247724, Note_off_c, 0, 76, 40
1, 247743, Control_c, 0, 64, 89
1, 247761, Control_c, 0, 64, 81
1, 247768, Note_on_c, 0, 35, 39
1, 247782, Control_c, 0, 64, 68
1, 247799, Control_c, 0, 64, 50
1, 247818, Control_c, 0, 64, 28
1, 247837, Control_c, 0, 64, 11
1, 247856, Control_c, 0, 64, 18
1, 247874, Control_c, 0, 64, 35
1, 247893, Control_c, 0, 64, 50
1, 247912, Control_c, 0, 64, 63
1, 247926, Note_off_c, 0, 35, 60
1, 247929, Control_c, 0, 64, 74
1, 247948, Control_c, 0, 64, 83
1, 247968, Control_c, 0, 64, 92
1, 247986, Control_c, 0, 64, 102
1, 248005, Control_c, 0, 64, 111
1, 248024, Control_c, 0, 64, 118
1, 248041, Note_on_c, 0, 89, 46
1, 248043, Control_c, 0, 64, 123
1, 248050, Note_on_c, 0, 77, 36
1, 248052, Note_on_c, 0, 85, 47
1, 248053, Note_on_c, 0, 80, 42
1, 248079, Control_c, 0, 64, 127
1, 248286, Control_c, 0, 64, 119
1, 248305, Control_c, 0, 64, 106
1, 248319, Note_on_c, 0, 56, 55
1, 248324, Control_c, 0, 64, 95
1, 248360, Control_c, 0, 64, 105
1, 248369, Poly_aftertouch_c, 0, 80, 20
1, 248373, Note_off_c, 0, 80, 36
1, 248373, Poly_aftertouch_c, 0, 80, 0
1, 248379, Control_c, 0, 64, 117
1, 248384, Note_off_c, 0, 85, 33
1, 248397, Control_c, 0, 64, 127
1, 248410, Note_off_c, 0, 77, 38
1, 248410, Poly_aftertouch_c, 0, 77, 0
1, 248428, Note_off_c, 0, 89, 32
1, 248428, Poly_aftertouch_c, 0, 89, 0
1, 248592, Note_on_c, 0, 89, 42
1, 248620, Note_on_c, 0, 85, 40
1, 248622, Note_on_c, 0, 77, 22
1, 248623, Note_off_c, 0, 56, 54
1, 248643, Note_on_c, 0, 54, 43
1, 248646, Note_on_c, 0, 80, 35
1, 248703, Note_off_c, 0, 54, 58
1, 248736, Note_on_c, 0, 53, 51
1, 248752, Control_c, 0, 67, 120
1, 248790, Control_c, 0, 64, 122
1, 248796, Note_off_c, 0, 53, 58
1, 248796, Poly_aftertouch_c, 0, 53, 0
1, 248809, Control_c, 0, 64, 93
1, 248828, Control_c, 0, 64, 61
1, 248846, Control_c, 0, 64, 32
1, 248865, Control_c, 0, 64, 19
1, 248883, Note_on_c, 0, 68, 58
1, 248883, Control_c, 0, 64, 29
1, 248891, Note_off_c, 0, 77, 43
1, 248891, Poly_aftertouch_c, 0, 77, 0
1, 248894, Note_off_c, 0, 80, 38
1, 248894, Poly_aftertouch_c, 0, 80, 0
1, 248901, Note_off_c, 0, 89, 35
1, 248901, Note_off_c, 0, 85, 35
1, 248901, Poly_aftertouch_c, 0, 89, 0
1, 248901, Control_c, 0, 64, 41
1, 248922, Control_c, 0, 64, 57
1, 248940, Control_c, 0, 64, 74
1, 248959, Control_c, 0, 64, 90
1, 248978, Control_c, 0, 64, 111
1, 248996, Control_c, 0, 64, 127
1, 249016, Note_off_c, 0, 68, 61
1, 249130, Note_on_c, 0, 89, 50
1, 249145, Note_on_c, 0, 85, 40
1, 249147, Note_on_c, 0, 80, 41
1, 249148, Note_on_c, 0, 77, 33
1, 249226, Note_off_c, 0, 80, 51
1, 249226, Poly_aftertouch_c, 0, 80, 0
1, 249245, Note_off_c, 0, 89, 52
1, 249245, Poly_aftertouch_c, 0, 89, 0
1, 249298, Note_off_c, 0, 77, 36
1, 249298, Poly_aftertouch_c, 0, 77, 0
1, 249314, Control_c, 0, 67, 115
1, 249337, Note_off_c, 0, 85, 35
1, 249352, Control_c, 0, 67, 108
1, 249370, Control_c, 0, 67, 103
1, 249389, Control_c, 0, 67, 97
1, 249407, Control_c, 0, 67, 92
1, 249426, Control_c, 0, 67, 88
1, 249433, Note_on_c, 0, 34, 51
1, 249445, Control_c, 0, 64, 107
1, 249463, Control_c, 0, 64, 80
1, 249482, Control_c, 0, 64, 58
1, 249485, Control_c, 0, 67, 84
1, 249502, Control_c, 0, 64, 53
1, 249521, Control_c, 0, 64, 62
1, 249538, Control_c, 0, 64, 76
1, 249559, Control_c, 0, 64, 91
1, 249575, Control_c, 0, 64, 113
1, 249587, Note_off_c, 0, 34, 61
1, 249594, Control_c, 0, 64, 127
1, 249702, Note_on_c, 0, 85, 54
1, 249717, Note_on_c, 0, 90, 57
1, 249741, Note_on_c, 0, 78, 38
1, 249979, Note_on_c, 0, 58, 67
1, 250025, Control_c, 0, 64, 101
1, 250044, Control_c, 0, 64, 86
1, 250082, Control_c, 0, 64, 98
1, 250094, Note_off_c, 0, 90, 47
1, 250099, Control_c, 0, 64, 112
1, 250110, Note_off_c, 0, 78, 42
1, 250110, Poly_aftertouch_c, 0, 78, 0
1, 250117, Control_c, 0, 64, 127
1, 250132, Note_off_c, 0, 85, 37
1, 250276, Note_on_c, 0, 85, 53
1, 250279, Note_on_c, 0, 90, 54
1, 250303, Note_on_c, 0, 78, 41
1, 250316, Note_off_c, 0, 58, 55
1, 250318, Note_on_c, 0, 56, 50
1, 250372, Note_off_c, 0, 56, 58
1, 250398, Note_on_c, 0, 54, 60
1, 250416, Control_c, 0, 64, 110
1, 250436, Control_c, 0, 64, 73
1, 250445, Note_off_c, 0, 54, 63
1, 250455, Control_c, 0, 64, 31
1, 250473, Control_c, 0, 64, 0
1, 250492, Control_c, 0, 64, 19
1, 250511, Control_c, 0, 64, 50
1, 250522, Note_on_c, 0, 70, 70
1, 250530, Control_c, 0, 64, 74
1, 250548, Control_c, 0, 64, 97
1, 250567, Control_c, 0, 64, 127
1, 250585, Control_c, 0, 67, 88
1, 250596, Note_off_c, 0, 85, 53
1, 250596, Note_off_c, 0, 70, 66
1, 250607, Note_off_c, 0, 78, 49
1, 250607, Poly_aftertouch_c, 0, 78, 0
1, 250631, Note_off_c, 0, 90, 55
1, 250679, Control_c, 0, 67, 93
1, 250716, Control_c, 0, 67, 99
1, 250801, Note_on_c, 0, 90, 59
1, 250814, Note_on_c, 0, 85, 50
1, 250828, Control_c, 0, 67, 105
1, 250839, Note_on_c, 0, 78, 41
1, 250889, Note_off_c, 0, 85, 47
1, 250894, Note_off_c, 0, 78, 54
1, 250894, Poly_aftertouch_c, 0, 78, 0
1, 250952, Note_off_c, 0, 90, 59
1, 251054, Control_c, 0, 67, 109
1, 251089, Control_c, 0, 64, 122
1, 251090, Control_c, 0, 67, 114
1, 251093, Note_on_c, 0, 30, 59
1, 251109, Control_c, 0, 64, 94
1, 251127, Control_c, 0, 64, 63
1, 251146, Control_c, 0, 64, 38
1, 251184, Control_c, 0, 64, 51
1, 251204, Control_c, 0, 64, 74
1, 251221, Control_c, 0, 64, 94
1, 251235, Note_off_c, 0, 30, 62
1, 251239, Control_c, 0, 64, 122
1, 251259, Control_c, 0, 64, 127
1, 251378, Note_on_c, 0, 94, 64
1, 251389, Note_on_c, 0, 90, 55
1, 251395, Note_on_c, 0, 85, 47
1, 251405, Note_on_c, 0, 82, 39
1, 251520, Control_c, 0, 67, 118
1, 251632, Control_c, 0, 67, 123
1, 251652, Control_c, 0, 64, 120
1, 251661, Note_on_c, 0, 61, 65
1, 251670, Control_c, 0, 64, 98
1, 251679, Note_off_c, 0, 85, 33
1, 251688, Control_c, 0, 64, 81
1, 251689, Control_c, 0, 67, 127
1, 251708, Control_c, 0, 64, 78
1, 251722, Note_off_c, 0, 82, 40
1, 251726, Control_c, 0, 64, 86
1, 251742, Note_off_c, 0, 90, 36
1, 251744, Control_c, 0, 64, 96
1, 251752, Note_off_c, 0, 94, 48
1, 251763, Control_c, 0, 64, 111
1, 251782, Control_c, 0, 64, 127
1, 251958, Note_on_c, 0, 94, 47
1, 251976, Note_on_c, 0, 85, 47
1, 251978, Note_on_c, 0, 90, 46
1, 251980, Note_on_c, 0, 82, 40
1, 252014, Note_off_c, 0, 61, 53
1, 252022, Note_on_c, 0, 59, 47
1, 252071, Note_off_c, 0, 59, 62
1, 252093, Note_on_c, 0, 58, 60
1, 252137, Control_c, 0, 64, 123
1, 252141, Note_off_c, 0, 58, 58
1, 252156, Control_c, 0, 64, 113
1, 252174, Control_c, 0, 64, 99
1, 252194, Control_c, 0, 64, 83
1, 252213, Control_c, 0, 64, 64
1, 252231, Control_c, 0, 64, 45
1, 252248, Control_c, 0, 64, 19
1, 252251, Note_on_c, 0, 73, 60
1, 252288, Control_c, 0, 64, 39
1, 252306, Control_c, 0, 64, 54
1, 252308, Note_off_c, 0, 82, 42
1, 252317, Note_off_c, 0, 85, 35
1, 252319, Note_off_c, 0, 90, 34
1, 252322, Control_c, 0, 64, 70
1, 252344, Control_c, 0, 64, 83
1, 252351, Note_off_c, 0, 94, 36
1, 252362, Control_c, 0, 64, 95
1, 252367, Note_off_c, 0, 73, 64
1, 252367, Poly_aftertouch_c, 0, 73, 0
1, 252380, Control_c, 0, 64, 107
1, 252399, Control_c, 0, 64, 115
1, 252474, Control_c, 0, 64, 119
1, 252511, Control_c, 0, 64, 127
1, 252552, Note_on_c, 0, 94, 51
1, 252579, Note_on_c, 0, 82, 42
1, 252581, Note_on_c, 0, 85, 41
1, 252590, Note_on_c, 0, 90, 38
1, 252639, Note_off_c, 0, 94, 52
1, 252639, Note_off_c, 0, 90, 50
1, 252642, Note_off_c, 0, 85, 59
1, 252677, Note_off_c, 0, 82, 47
1, 252886, Control_c, 0, 64, 120
1, 252899, Note_on_c, 0, 36, 43
1, 252903, Control_c, 0, 64, 110
1, 252922, Control_c, 0, 64, 94
1, 252942, Control_c, 0, 64, 73
1, 252960, Control_c, 0, 64, 49
1, 252978, Control_c, 0, 64, 0
1, 253034, Control_c, 0, 64, 13
1, 253054, Control_c, 0, 64, 31
1, 253073, Control_c, 0, 64, 48
1, 253092, Control_c, 0, 64, 66
1, 253097, Note_off_c, 0, 36, 60
1, 253110, Control_c, 0, 64, 77
1, 253128, Control_c, 0, 64, 85
1, 253147, Control_c, 0, 64, 93
1, 253165, Control_c, 0, 64, 103
1, 253184, Control_c, 0, 64, 111
1, 253203, Control_c, 0, 64, 115
1, 253222, Note_on_c, 0, 84, 41
1, 253230, Note_on_c, 0, 88, 40
1, 253241, Control_c, 0, 64, 121
1, 253249, Note_on_c, 0, 82, 34
1, 253252, Note_on_c, 0, 76, 26
1, 253257, Control_c, 0, 64, 125
1, 253505, Poly_aftertouch_c, 0, 82, 20
1, 253529, Note_off_c, 0, 82, 19
1, 253529, Poly_aftertouch_c, 0, 82, 0
1, 253531, Note_on_c, 0, 58, 50
1, 253548, Note_off_c, 0, 84, 36
1, 253599, Note_off_c, 0, 76, 42
1, 253630, Note_off_c, 0, 88, 42
1, 253851, Note_on_c, 0, 88, 37
1, 253875, Note_on_c, 0, 84, 35
1, 253885, Note_on_c, 0, 76, 20
1, 253900, Note_off_c, 0, 58, 36
1, 253905, Note_on_c, 0, 82, 28
1, 253909, Note_on_c, 0, 56, 42
1, 253972, Note_off_c, 0, 56, 58
1, 254013, Note_on_c, 0, 55, 44
1, 254060, Note_off_c, 0, 55, 64
1, 254060, Poly_aftertouch_c, 0, 55, 0
1, 254160, Poly_aftertouch_c, 0, 82, 24
1, 254194, Control_c, 0, 64, 107
1, 254213, Control_c, 0, 64, 86
1, 254230, Note_off_c, 0, 82, 19
1, 254230, Poly_aftertouch_c, 0, 82, 0
1, 254232, Control_c, 0, 64, 61
1, 254238, Note_on_c, 0, 72, 38
1, 254250, Control_c, 0, 64, 41
1, 254259, Note_off_c, 0, 84, 41
1, 254269, Control_c, 0, 64, 34
1, 254278, Note_off_c, 0, 76, 38
1, 254287, Control_c, 0, 64, 40
1, 254306, Control_c, 0, 64, 49
1, 254323, Note_off_c, 0, 88, 35
1, 254324, Control_c, 0, 64, 58
1, 254343, Control_c, 0, 64, 68
1, 254363, Control_c, 0, 64, 76
1, 254382, Control_c, 0, 64, 86
1, 254400, Control_c, 0, 64, 98
1, 254419, Control_c, 0, 64, 113
1, 254437, Control_c, 0, 64, 126
1, 254463, Note_off_c, 0, 72, 55
1, 254606, Control_c, 0, 67, 122
1, 254644, Control_c, 0, 67, 118
1, 254680, Control_c, 0, 67, 113
1, 254717, Control_c, 0, 67, 108
1, 254755, Control_c, 0, 67, 102
1, 254792, Control_c, 0, 67, 96
1, 254809, Note_on_c, 0, 88, 41
1, 254831, Control_c, 0, 67, 89
1, 254838, Note_on_c, 0, 76, 31
1, 254848, Note_on_c, 0, 84, 29
1, 254865, Control_c, 0, 67, 84
1, 254872, Note_on_c, 0, 82, 14
1, 254911, Note_off_c, 0, 76, 56
1, 254914, Note_off_c, 0, 88, 60
1, 254922, Control_c, 0, 67, 78
1, 254935, Note_off_c, 0, 84, 42
1, 254945, Note_off_c, 0, 82, 40
1, 254945, Poly_aftertouch_c, 0, 82, 0
1, 254962, Control_c, 0, 67, 72
1, 254979, Control_c, 0, 67, 68
1, 255017, Control_c, 0, 67, 60
1, 255037, Control_c, 0, 67, 56
1, 255054, Control_c, 0, 67, 52
1, 255092, Control_c, 0, 67, 44
1, 255110, Control_c, 0, 67, 39
1, 255129, Control_c, 0, 67, 32
1, 255148, Control_c, 0, 67, 23
1, 255166, Note_on_c, 0, 89, 45
1, 255166, Control_c, 0, 67, 15
1, 255185, Control_c, 0, 67, 8
1, 255190, Note_on_c, 0, 77, 27
1, 255192, Note_on_c, 0, 32, 47
1, 255213, Note_on_c, 0, 84, 22
1, 255213, Note_on_c, 0, 80, 23
1, 255234, Note_on_c, 0, 41, 32
1, 255274, Note_off_c, 0, 80, 45
1, 255274, Poly_aftertouch_c, 0, 80, 0
1, 255278, Control_c, 0, 67, 0
1, 255279, Note_off_c, 0, 77, 37
1, 255279, Poly_aftertouch_c, 0, 77, 0
1, 255299, Note_off_c, 0, 84, 40
1, 255348, Note_off_c, 0, 89, 33
1, 255348, Poly_aftertouch_c, 0, 89, 0
1, 255455, Note_on_c, 0, 89, 46
1, 255472, Note_on_c, 0, 80, 35
1, 255477, Note_on_c, 0, 84, 34
1, 255483, Note_on_c, 0, 77, 12
1, 255490, Note_off_c, 0, 41, 39
1, 255551, Note_off_c, 0, 84, 41
1, 255560, Note_off_c, 0, 77, 43
1, 255560, Poly_aftertouch_c, 0, 77, 0
1, 255567, Note_off_c, 0, 89, 43
1, 255567, Poly_aftertouch_c, 0, 89, 0
1, 255569, Note_off_c, 0, 80, 39
1, 255569, Poly_aftertouch_c, 0, 80, 0
1, 255593, Note_on_c, 0, 31, 36
1, 255617, Note_off_c, 0, 32, 33
1, 255679, Note_off_c, 0, 31, 54
1, 255681, Note_on_c, 0, 29, 58
1, 255693, Note_on_c, 0, 89, 43
1, 255730, Note_off_c, 0, 29, 60
1, 255736, Note_on_c, 0, 80, 27
1, 255738, Note_on_c, 0, 77, 32
1, 255742, Note_on_c, 0, 84, 31
1, 256009, Note_on_c, 0, 44, 54
1, 256020, Note_on_c, 0, 53, 47
1, 256326, Control_c, 0, 64, 112
1, 256345, Control_c, 0, 64, 95
1, 256363, Control_c, 0, 64, 83
1, 256372, Poly_aftertouch_c, 0, 53, 20
1, 256374, Note_off_c, 0, 53, 28
1, 256374, Poly_aftertouch_c, 0, 53, 0
1, 256381, Control_c, 0, 64, 79
1, 256402, Control_c, 0, 64, 86
1, 256419, Control_c, 0, 64, 97
1, 256439, Control_c, 0, 64, 116
1, 256456, Control_c, 0, 64, 127
1, 256469, Note_on_c, 0, 43, 41
1, 256481, Note_off_c, 0, 44, 30
1, 256481, Poly_aftertouch_c, 0, 44, 0
1, 256522, Note_on_c, 0, 41, 61
1, 256525, Note_off_c, 0, 43, 59
1, 256640, Note_on_c, 0, 53, 51
1, 256648, Note_off_c, 0, 84, 54
1, 256653, Note_on_c, 0, 49, 53
1, 256658, Note_off_c, 0, 41, 58
1, 256675, Note_off_c, 0, 80, 42
1, 256675, Poly_aftertouch_c, 0, 80, 0
1, 256706, Poly_aftertouch_c, 0, 77, 24
1, 256758, Note_off_c, 0, 77, 38
1, 256758, Poly_aftertouch_c, 0, 77, 0
1, 256790, Note_off_c, 0, 89, 32
1, 256790, Poly_aftertouch_c, 0, 89, 0
1, 256804, Note_off_c, 0, 53, 56
1, 256804, Poly_aftertouch_c, 0, 53, 0
1, 256873, Note_off_c, 0, 49, 59
1, 256939, Note_on_c, 0, 89, 62
1, 256955, Note_on_c, 0, 85, 54
1, 256964, Note_on_c, 0, 77, 48
1, 256997, Note_on_c, 0, 82, 38
1, 257056, Note_off_c, 0, 77, 51
1, 257056, Poly_aftertouch_c, 0, 77, 0
1, 257059, Note_off_c, 0, 89, 58
1, 257059, Poly_aftertouch_c, 0, 89, 0
1, 257070, Note_off_c, 0, 82, 41
1, 257070, Poly_aftertouch_c, 0, 82, 0
1, 257143, Note_off_c, 0, 85, 34
1, 257254, Note_on_c, 0, 91, 68
1, 257271, Note_on_c, 0, 85, 55
1, 257271, Note_on_c, 0, 31, 64
1, 257275, Note_on_c, 0, 79, 50
1, 257279, Control_c, 0, 64, 114
1, 257289, Note_on_c, 0, 40, 52
1, 257292, Note_on_c, 0, 82, 50
1, 257298, Control_c, 0, 64, 87
1, 257318, Control_c, 0, 64, 72
1, 257335, Control_c, 0, 64, 79
1, 257355, Control_c, 0, 64, 102
1, 257369, Note_off_c, 0, 82, 51
1, 257369, Poly_aftertouch_c, 0, 82, 0
1, 257372, Control_c, 0, 64, 127
1, 257378, Note_off_c, 0, 91, 60
1, 257382, Note_off_c, 0, 79, 47
1, 257382, Poly_aftertouch_c, 0, 79, 0
1, 257383, Note_off_c, 0, 85, 51
1, 257482, Note_on_c, 0, 91, 66
1, 257506, Note_on_c, 0, 79, 51
1, 257507, Note_on_c, 0, 85, 46
1, 257516, Note_on_c, 0, 82, 55
1, 257526, Note_off_c, 0, 40, 48
1, 257566, Note_off_c, 0, 82, 59
1, 257566, Poly_aftertouch_c, 0, 82, 0
1, 257568, Note_on_c, 0, 29, 62
1, 257569, Note_off_c, 0, 85, 59
1, 257569, Note_off_c, 0, 79, 56
1, 257569, Poly_aftertouch_c, 0, 79, 0
1, 257570, Note_off_c, 0, 91, 62
1, 257610, Note_off_c, 0, 31, 61
1, 257633, Note_on_c, 0, 28, 72
1, 257656, Note_off_c, 0, 29, 59
1, 257682, Note_off_c, 0, 28, 65
1, 257694, Note_on_c, 0, 91, 71
1, 257699, Note_on_c, 0, 85, 59
1, 257700, Note_on_c, 0, 82, 57
1, 257702, Note_on_c, 0, 79, 60
1, 257901, Note_on_c, 0, 43, 70
1, 257904, Note_on_c, 0, 52, 68
1, 257934, Control_c, 0, 64, 115
1, 257953, Control_c, 0, 64, 88
1, 257972, Control_c, 0, 64, 83
1, 257990, Control_c, 0, 64, 99
1, 258009, Control_c, 0, 64, 127
1, 258299, Note_on_c, 0, 41, 63
1, 258304, Note_off_c, 0, 52, 29
1, 258316, Note_off_c, 0, 43, 36
1, 258331, Note_on_c, 0, 40, 72
1, 258355, Note_off_c, 0, 41, 62
1, 258363, Control_c, 0, 64, 95
1, 258383, Control_c, 0, 64, 58
1, 258401, Note_off_c, 0, 40, 55
1, 258401, Control_c, 0, 64, 55
1, 258422, Control_c, 0, 64, 79
1, 258439, Control_c, 0, 64, 127
1, 258456, Note_on_c, 0, 55, 80
1, 258456, Note_on_c, 0, 49, 80
1, 258564, Note_off_c, 0, 55, 59
1, 258564, Poly_aftertouch_c, 0, 55, 0
1, 258609, Note_off_c, 0, 91, 56
1, 258613, Note_off_c, 0, 85, 51
1, 258615, Note_off_c, 0, 79, 38
1, 258615, Poly_aftertouch_c, 0, 79, 0
1, 258641, Note_off_c, 0, 82, 37
1, 258641, Poly_aftertouch_c, 0, 82, 0
1, 258653, Note_off_c, 0, 49, 54
1, 258740, Note_on_c, 0, 91, 81
1, 258742, Note_on_c, 0, 79, 77
1, 258742, Note_on_c, 0, 85, 79
1, 258758, Note_on_c, 0, 82, 67
1, 258845, Note_off_c, 0, 85, 60
1, 258845, Note_off_c, 0, 82, 47
1, 258845, Poly_aftertouch_c, 0, 82, 0
1, 258858, Note_off_c, 0, 79, 55
1, 258858, Poly_aftertouch_c, 0, 79, 0
1, 258907, Note_off_c, 0, 91, 64
1, 259050, Note_on_c, 0, 93, 85
1, 259057, Note_on_c, 0, 90, 78
1, 259059, Note_on_c, 0, 84, 73
1, 259061, Note_on_c, 0, 81, 75
1, 259064, Note_on_c, 0, 30, 83
1, 259067, Note_on_c, 0, 39, 80
1, 259074, Control_c, 0, 64, 113
1, 259094, Control_c, 0, 64, 74
1, 259112, Control_c, 0, 64, 59
1, 259132, Control_c, 0, 64, 74
1, 259149, Control_c, 0, 64, 110
1, 259168, Control_c, 0, 64, 127
1, 259176, Note_off_c, 0, 81, 60
1, 259194, Note_off_c, 0, 93, 64
1, 259194, Note_off_c, 0, 84, 61
1, 259201, Note_off_c, 0, 90, 62
1, 259243, Note_off_c, 0, 39, 59
1, 259266, Note_on_c, 0, 93, 84
1, 259270, Note_on_c, 0, 90, 67
1, 259274, Note_on_c, 0, 84, 70
1, 259277, Note_on_c, 0, 81, 80
1, 259355, Note_off_c, 0, 81, 56
1, 259361, Note_on_c, 0, 29, 80
1, 259370, Note_off_c, 0, 93, 64
1, 259383, Note_off_c, 0, 90, 62
1, 259389, Note_off_c, 0, 84, 57
1, 259396, Note_off_c, 0, 30, 40
1, 259432, Note_on_c, 0, 27, 88
1, 259468, Note_off_c, 0, 29, 59
1, 259478, Note_on_c, 0, 93, 92
1, 259479, Note_on_c, 0, 81, 87
1, 259480, Note_on_c, 0, 90, 80
1, 259481, Note_on_c, 0, 84, 82
1, 259508, Note_off_c, 0, 27, 65
1, 259671, Note_on_c, 0, 51, 101
1, 259672, Control_c, 0, 64, 83
1, 259678, Note_on_c, 0, 42, 91
1, 259692, Control_c, 0, 64, 26
1, 259711, Control_c, 0, 64, 0
1, 259729, Control_c, 0, 64, 60
1, 259748, Control_c, 0, 64, 110
1, 259766, Control_c, 0, 64, 127
1, 259893, Note_off_c, 0, 51, 53
1, 259968, Note_off_c, 0, 42, 56
1, 260064, Note_on_c, 0, 41, 74
1, 260101, Note_on_c, 0, 39, 84
1, 260108, Note_off_c, 0, 41, 66
1, 260140, Control_c, 0, 64, 84
1, 260160, Control_c, 0, 64, 55
1, 260171, Note_off_c, 0, 39, 62
1, 260177, Control_c, 0, 64, 71
1, 260198, Control_c, 0, 64, 107
1, 260215, Control_c, 0, 64, 127
1, 260232, Note_on_c, 0, 57, 96
1, 260236, Note_on_c, 0, 51, 94
1, 260298, Note_off_c, 0, 57, 63
1, 260361, Note_off_c, 0, 51, 56
1, 260376, Note_off_c, 0, 81, 58
1, 260383, Note_off_c, 0, 90, 53
1, 260400, Note_off_c, 0, 93, 59
1, 260413, Note_off_c, 0, 84, 55
1, 260507, Note_on_c, 0, 90, 93
1, 260510, Note_on_c, 0, 93, 97
1, 260510, Note_on_c, 0, 84, 83
1, 260510, Note_on_c, 0, 81, 94
1, 260575, Note_off_c, 0, 84, 59
1, 260601, Note_off_c, 0, 81, 59
1, 260639, Note_off_c, 0, 93, 64
1, 260675, Note_off_c, 0, 90, 63
1, 260810, Note_on_c, 0, 94, 101
1, 260812, Note_on_c, 0, 29, 89
1, 260813, Note_on_c, 0, 82, 101
1, 260814, Note_on_c, 0, 89, 90
1, 260814, Note_on_c, 0, 38, 99
1, 260814, Control_c, 0, 64, 94
1, 260834, Control_c, 0, 64, 49
1, 260852, Control_c, 0, 64, 52
1, 260871, Control_c, 0, 64, 93
1, 260887, Note_on_c, 0, 27, 11
1, 260887, Control_c, 0, 64, 127
1, 260947, Note_off_c, 0, 27, 42
1, 260956, Note_off_c, 0, 82, 62
1, 260956, Poly_aftertouch_c, 0, 82, 0
1, 260958, Note_off_c, 0, 94, 65
1, 260969, Note_off_c, 0, 89, 62
1, 260969, Poly_aftertouch_c, 0, 89, 0
1, 260989, Note_off_c, 0, 38, 57
1, 261034, Note_on_c, 0, 94, 95
1, 261036, Note_on_c, 0, 89, 80
1, 261038, Note_on_c, 0, 82, 96
1, 261070, Note_on_c, 0, 27, 72
1, 261098, Note_off_c, 0, 29, 60
1, 261142, Note_off_c, 0, 94, 65
1, 261148, Note_off_c, 0, 82, 61
1, 261148, Poly_aftertouch_c, 0, 82, 0
1, 261160, Note_on_c, 0, 26, 88
1, 261166, Note_off_c, 0, 89, 57
1, 261166, Poly_aftertouch_c, 0, 89, 0
1, 261184, Note_off_c, 0, 27, 61
1, 261228, Note_off_c, 0, 26, 64
1, 261232, Note_on_c, 0, 89, 77
1, 261236, Note_on_c, 0, 82, 101
1, 261238, Note_on_c, 0, 94, 101
1, 261430, Control_c, 0, 64, 87
1, 261449, Control_c, 0, 64, 0
1, 261454, Note_on_c, 0, 50, 104
1, 261458, Note_on_c, 0, 41, 90
1, 261487, Control_c, 0, 64, 28
1, 261506, Control_c, 0, 64, 93
1, 261524, Control_c, 0, 64, 127
1, 261620, Note_off_c, 0, 82, 63
1, 261620, Poly_aftertouch_c, 0, 82, 0
1, 261651, Note_off_c, 0, 50, 57
1, 261668, Note_off_c, 0, 89, 57
1, 261668, Poly_aftertouch_c, 0, 89, 0
1, 261744, Note_off_c, 0, 94, 60
1, 261787, Note_on_c, 0, 39, 71
1, 261790, Note_off_c, 0, 41, 62
1, 261864, Note_on_c, 0, 38, 81
1, 261877, Note_off_c, 0, 39, 60
1, 262016, Note_off_c, 0, 38, 58
1, 262067, Control_c, 0, 64, 78
1, 262085, Note_on_c, 0, 101, 103
1, 262086, Control_c, 0, 64, 22
1, 262090, Note_on_c, 0, 94, 105
1, 262091, Note_on_c, 0, 89, 103
1, 262094, Note_on_c, 0, 49, 105
1, 262094, Note_on_c, 0, 41, 91
1, 262103, Control_c, 0, 64, 51
1, 262122, Control_c, 0, 64, 98
1, 262141, Control_c, 0, 64, 127
1, 262220, Note_off_c, 0, 49, 61
1, 262236, Poly_aftertouch_c, 0, 48, 0
1, 262273, Note_off_c, 0, 41, 61
1, 262280, Note_off_c, 0, 89, 58
1, 262280, Poly_aftertouch_c, 0, 89, 0
1, 262289, Note_off_c, 0, 101, 63
1, 262310, Note_off_c, 0, 94, 65
1, 262378, Note_on_c, 0, 101, 102
1, 262382, Note_on_c, 0, 89, 102
1, 262386, Note_on_c, 0, 94, 92
1, 262503, Note_off_c, 0, 89, 60
1, 262503, Poly_aftertouch_c, 0, 89, 0
1, 262518, Note_off_c, 0, 101, 64
1, 262540, Note_off_c, 0, 94, 65
1, 262576, Note_on_c, 0, 39, 90
1, 262607, Note_on_c, 0, 101, 104
1, 262611, Note_on_c, 0, 94, 88
1, 262613, Note_on_c, 0, 89, 101
1, 262643, Note_on_c, 0, 37, 79
1, 262663, Note_off_c, 0, 39, 60
1, 262704, Note_off_c, 0, 37, 63
1, 262746, Note_off_c, 0, 94, 65
1, 262787, Note_off_c, 0, 89, 55
1, 262787, Poly_aftertouch_c, 0, 89, 0
1, 262804, Note_off_c, 0, 101, 59
1, 262871, Control_c, 0, 64, 75
1, 262887, Note_on_c, 0, 101, 105
1, 262889, Note_on_c, 0, 36, 101
1, 262889, Control_c, 0, 64, 37
1, 262890, Note_on_c, 0, 89, 108
1, 262890, Note_on_c, 0, 96, 93
1, 262892, Note_on_c, 0, 92, 98
1, 262896, Note_on_c, 0, 29, 87
1, 262916, Control_c, 0, 64, 74
1, 262926, Control_c, 0, 64, 127
1, 262936, Note_on_c, 0, 27, 51
1, 262979, Note_off_c, 0, 27, 50
1, 263018, Note_off_c, 0, 89, 60
1, 263018, Poly_aftertouch_c, 0, 89, 0
1, 263030, Note_off_c, 0, 101, 66
1, 263049, Note_off_c, 0, 92, 62
1, 263060, Note_off_c, 0, 96, 62
1, 263063, Note_off_c, 0, 36, 62
1, 263115, Note_on_c, 0, 96, 77
1, 263115, Note_on_c, 0, 101, 102
1, 263116, Note_on_c, 0, 92, 82
1, 263117, Note_on_c, 0, 89, 98
1, 263175, Note_on_c, 0, 25, 74
1, 263183, Note_off_c, 0, 29, 60
1, 263198, Note_off_c, 0, 89, 63
1, 263198, Poly_aftertouch_c, 0, 89, 0
1, 263204, Note_off_c, 0, 101, 65
1, 263229, Note_off_c, 0, 92, 64
1, 263236, Note_on_c, 0, 24, 87
1, 263239, Note_off_c, 0, 96, 61
1, 263255, Note_off_c, 0, 25, 64
1, 263284, Note_on_c, 0, 96, 63
1, 263287, Note_on_c, 0, 101, 98
1, 263288, Note_on_c, 0, 89, 96
1, 263291, Note_on_c, 0, 92, 70
1, 263296, Note_off_c, 0, 24, 62
1, 263307, Poly_aftertouch_c, 0, 25, 0
1, 263367, Note_off_c, 0, 96, 63
1, 263375, Note_off_c, 0, 101, 64
1, 263390, Note_off_c, 0, 89, 62
1, 263390, Poly_aftertouch_c, 0, 89, 0
1, 263403, Note_off_c, 0, 92, 65
1, 263469, Control_c, 0, 64, 74
1, 263475, Note_on_c, 0, 91, 101
1, 263476, Note_on_c, 0, 88, 102
1, 263476, Note_on_c, 0, 96, 103
1, 263477, Note_on_c, 0, 100, 106
1, 263481, Note_on_c, 0, 43, 94
1, 263482, Note_on_c, 0, 48, 96
1, 263487, Control_c, 0, 64, 42
1, 263506, Control_c, 0, 64, 78
1, 263513, Note_on_c, 0, 94, 53
1, 263514, Note_off_c, 0, 94, 127
1, 263525, Control_c, 0, 64, 127
1, 263580, Note_off_c, 0, 88, 65
1, 263592, Note_off_c, 0, 100, 67
1, 263604, Note_off_c, 0, 91, 65
1, 263608, Note_off_c, 0, 96, 65
1, 263656, Note_on_c, 0, 96, 80
1, 263656, Note_on_c, 0, 91, 82
1, 263659, Note_on_c, 0, 100, 98
1, 263661, Note_on_c, 0, 88, 92
1, 263679, Note_on_c, 0, 89, 69
1, 263680, Note_off_c, 0, 48, 59
1, 263706, Note_off_c, 0, 89, 44
1, 263706, Note_on_c, 0, 40, 75
1, 263706, Poly_aftertouch_c, 0, 89, 0
1, 263733, Note_off_c, 0, 43, 64
1, 263746, Note_off_c, 0, 88, 62
1, 263755, Note_on_c, 0, 36, 85
1, 263768, Note_off_c, 0, 100, 65
1, 263772, Note_off_c, 0, 91, 64
1, 263781, Note_off_c, 0, 96, 64
1, 263795, Note_off_c, 0, 40, 60
1, 263826, Note_off_c, 0, 36, 63
1, 263832, Note_on_c, 0, 96, 82
1, 263834, Note_on_c, 0, 100, 91
1, 263835, Note_on_c, 0, 88, 96
1, 263836, Note_on_c, 0, 91, 82
1, 263919, Note_off_c, 0, 88, 64
1, 263926, Note_off_c, 0, 100, 63
1, 263938, Note_off_c, 0, 91, 63
1, 263956, Note_off_c, 0, 96, 64
1, 263992, Control_c, 0, 64, 60
1, 264011, Control_c, 0, 64, 0
1, 264015, Note_on_c, 0, 98, 105
1, 264016, Note_on_c, 0, 86, 112
1, 264016, Note_on_c, 0, 95, 101
1, 264020, Note_on_c, 0, 92, 101
1, 264025, Note_on_c, 0, 60, 104
1, 264030, Control_c, 0, 64, 52
1, 264031, Note_on_c, 0, 52, 76
1, 264036, Note_on_c, 0, 53, 85
1, 264043, Note_on_c, 0, 94, 61
1, 264044, Note_off_c, 0, 94, 127
1, 264048, Control_c, 0, 64, 112
1, 264068, Control_c, 0, 64, 127
1, 264075, Poly_aftertouch_c, 0, 94, 0
1, 264108, Note_off_c, 0, 86, 64
1, 264126, Note_off_c, 0, 98, 63
1, 264134, Note_off_c, 0, 92, 66
1, 264135, Note_off_c, 0, 95, 63
1, 264193, Note_off_c, 0, 52, 62
1, 264201, Note_on_c, 0, 86, 105
1, 264202, Note_on_c, 0, 95, 87
1, 264205, Note_on_c, 0, 98, 98
1, 264206, Note_on_c, 0, 92, 90
1, 264252, Note_on_c, 0, 50, 57
1, 264279, Note_off_c, 0, 53, 55
1, 264279, Poly_aftertouch_c, 0, 53, 0
1, 264280, Note_off_c, 0, 86, 59
1, 264308, Note_off_c, 0, 98, 63
1, 264309, Note_off_c, 0, 60, 52
1, 264309, Poly_aftertouch_c, 0, 60, 0
1, 264310, Note_off_c, 0, 92, 65
1, 264322, Note_off_c, 0, 95, 63
1, 264342, Note_on_c, 0, 48, 88
1, 264372, Poly_aftertouch_c, 0, 52, 0
1, 264374, Note_off_c, 0, 50, 62
1, 264374, Note_on_c, 0, 95, 81
1, 264378, Note_on_c, 0, 86, 101
1, 264380, Note_on_c, 0, 98, 92
1, 264382, Note_on_c, 0, 92, 88
1, 264399, Note_off_c, 0, 48, 66
1, 264459, Note_off_c, 0, 86, 60
1, 264488, Note_off_c, 0, 98, 63
1, 264509, Note_off_c, 0, 92, 64
1, 264510, Note_off_c, 0, 95, 63
1, 264534, Control_c, 0, 64, 113
1, 264555, Control_c, 0, 64, 46
1, 264569, Note_on_c, 0, 72, 96
1, 264573, Note_on_c, 0, 100, 105
1, 264573, Control_c, 0, 64, 0
1, 264574, Note_on_c, 0, 88, 108
1, 264575, Note_on_c, 0, 67, 95
1, 264576, Note_on_c, 0, 96, 98
1, 264576, Note_on_c, 0, 91, 102
1, 264599, Control_c, 0, 64, 36
1, 264606, Note_on_c, 0, 71, 61
1, 264607, Note_off_c, 0, 71, 127
1, 264610, Control_c, 0, 64, 96
1, 264619, Note_off_c, 0, 72, 65
1, 264626, Note_off_c, 0, 67, 68
1, 264626, Poly_aftertouch_c, 0, 67, 0
1, 264630, Poly_aftertouch_c, 0, 71, 0
1, 264630, Control_c, 0, 64, 127
1, 264672, Note_off_c, 0, 88, 66
1, 264694, Note_off_c, 0, 100, 65
1, 264700, Note_off_c, 0, 91, 65
1, 264709, Note_off_c, 0, 96, 63
1, 264770, Note_on_c, 0, 88, 101
1, 264773, Note_on_c, 0, 91, 86
1, 264774, Note_on_c, 0, 96, 77
1, 264775, Note_on_c, 0, 100, 93
1, 264844, Note_off_c, 0, 88, 64
1, 264861, Note_off_c, 0, 100, 65
1, 264861, Note_off_c, 0, 96, 63
1, 264870, Note_off_c, 0, 91, 63
1, 264925, Note_on_c, 0, 91, 71
1, 264928, Note_on_c, 0, 96, 81
1, 264930, Note_on_c, 0, 100, 80
1, 264931, Note_on_c, 0, 88, 86
1, 264940, Note_on_c, 0, 64, 72
1, 264958, Note_off_c, 0, 100, 70
1, 264968, Note_off_c, 0, 91, 63
1, 264977, Note_off_c, 0, 88, 62
1, 264983, Note_off_c, 0, 96, 64
1, 265016, Note_on_c, 0, 60, 81
1, 265032, Note_off_c, 0, 64, 61
1, 265083, Note_off_c, 0, 60, 64
1, 265083, Poly_aftertouch_c, 0, 60, 0
1, 265096, Control_c, 0, 64, 92
1, 265114, Control_c, 0, 64, 17
1, 265131, Note_on_c, 0, 60, 97
1, 265132, Control_c, 0, 64, 0
1, 265133, Note_on_c, 0, 53, 93
1, 265135, Note_on_c, 0, 86, 95
1, 265136, Note_on_c, 0, 72, 102
1, 265139, Note_on_c, 0, 83, 93
1, 265143, Note_on_c, 0, 74, 89
1, 265149, Note_on_c, 0, 80, 77
1, 265152, Control_c, 0, 64, 74
1, 265168, Note_on_c, 0, 84, 63
1, 265169, Note_off_c, 0, 84, 127
1, 265174, Control_c, 0, 64, 127
1, 265214, Note_off_c, 0, 60, 63
1, 265214, Poly_aftertouch_c, 0, 60, 0
1, 265244, Note_off_c, 0, 72, 59
1, 265244, Note_off_c, 0, 74, 59
1, 265246, Poly_aftertouch_c, 0, 78, 0
1, 265257, Note_off_c, 0, 53, 62
1, 265257, Poly_aftertouch_c, 0, 53, 0
1, 265258, Note_off_c, 0, 80, 62
1, 265258, Poly_aftertouch_c, 0, 80, 0
1, 265268, Note_off_c, 0, 86, 64
1, 265283, Note_off_c, 0, 83, 60
1, 265302, Poly_aftertouch_c, 0, 84, 0
1, 265363, Note_on_c, 0, 74, 87
1, 265364, Note_on_c, 0, 86, 91
1, 265367, Note_on_c, 0, 80, 84
1, 265368, Note_on_c, 0, 83, 78
1, 265370, Note_on_c, 0, 72, 89
1, 265461, Note_off_c, 0, 74, 59
1, 265461, Note_off_c, 0, 72, 56
1, 265475, Note_off_c, 0, 86, 63
1, 265475, Note_off_c, 0, 80, 63
1, 265475, Poly_aftertouch_c, 0, 80, 0
1, 265481, Note_off_c, 0, 83, 61
1, 265560, Note_on_c, 0, 86, 92
1, 265564, Note_on_c, 0, 83, 80
1, 265566, Note_on_c, 0, 74, 87
1, 265567, Note_on_c, 0, 72, 89
1, 265569, Note_on_c, 0, 80, 78
1, 265610, Note_on_c, 0, 50, 78
1, 265676, Note_on_c, 0, 48, 82
1, 265692, Note_off_c, 0, 74, 58
1, 265692, Note_off_c, 0, 72, 56
1, 265694, Note_off_c, 0, 50, 61
1, 265717, Note_off_c, 0, 86, 62
1, 265726, Note_off_c, 0, 80, 62
1, 265726, Poly_aftertouch_c, 0, 80, 0
1, 265727, Note_off_c, 0, 83, 59
1, 265738, Note_off_c, 0, 48, 64
1, 265788, Control_c, 0, 64, 95
1, 265795, Note_on_c, 0, 86, 97
1, 265798, Note_on_c, 0, 48, 104
1, 265800, Note_on_c, 0, 41, 94
1, 265800, Note_on_c, 0, 74, 101
1, 265801, Note_on_c, 0, 83, 85
1, 265801, Note_on_c, 0, 80, 87
1, 265803, Note_on_c, 0, 72, 99
1, 265806, Control_c, 0, 64, 39
1, 265843, Control_c, 0, 64, 79
1, 265862, Control_c, 0, 64, 127
1, 265918, Note_off_c, 0, 48, 60
1, 265933, Note_off_c, 0, 74, 56
1, 265933, Note_off_c, 0, 72, 52
1, 265942, Note_off_c, 0, 86, 64
1, 265960, Note_off_c, 0, 80, 63
1, 265960, Poly_aftertouch_c, 0, 80, 0
1, 265962, Note_off_c, 0, 41, 63
1, 265968, Note_off_c, 0, 83, 61
1, 266025, Note_on_c, 0, 83, 71
1, 266026, Note_on_c, 0, 86, 89
1, 266027, Note_on_c, 0, 80, 77
1, 266029, Note_on_c, 0, 74, 90
1, 266031, Note_on_c, 0, 72, 90
1, 266141, Note_off_c, 0, 74, 58
1, 266141, Note_off_c, 0, 72, 55
1, 266142, Note_off_c, 0, 86, 63
1, 266160, Note_off_c, 0, 80, 62
1, 266160, Poly_aftertouch_c, 0, 80, 0
1, 266162, Note_off_c, 0, 83, 61
1, 266219, Note_on_c, 0, 80, 74
1, 266223, Note_on_c, 0, 83, 73
1, 266225, Note_on_c, 0, 74, 83
1, 266226, Note_on_c, 0, 86, 85
1, 266227, Note_on_c, 0, 72, 86
1, 266243, Note_on_c, 0, 38, 89
1, 266289, Note_off_c, 0, 72, 55
1, 266290, Note_off_c, 0, 74, 60
1, 266329, Note_off_c, 0, 86, 63
1, 266345, Note_off_c, 0, 83, 60
1, 266347, Note_on_c, 0, 36, 92
1, 266357, Note_off_c, 0, 80, 60
1, 266357, Poly_aftertouch_c, 0, 80, 0
1, 266359, Note_off_c, 0, 38, 61
1, 266396, Note_on_c, 0, 72, 86
1, 266465, Note_on_c, 0, 79, 80
1, 266544, Note_on_c, 0, 84, 81
1, 266666, Control_c, 0, 64, 114
1, 266686, Control_c, 0, 64, 72
1, 266705, Control_c, 0, 64, 0
1, 266725, Note_on_c, 0, 43, 95
1, 266727, Note_on_c, 0, 48, 99
1, 266729, Note_on_c, 0, 88, 99
1, 266797, Control_c, 0, 64, 62
1, 266816, Control_c, 0, 64, 127
1, 266852, Note_off_c, 0, 72, 61
1, 266868, Note_off_c, 0, 88, 68
1, 266869, Note_off_c, 0, 84, 63
1, 266886, Note_off_c, 0, 79, 63
1, 266886, Poly_aftertouch_c, 0, 79, 0
1, 266975, Poly_aftertouch_c, 0, 42, 0
1, 266976, Note_off_c, 0, 43, 60
1, 266986, Note_off_c, 0, 48, 52
1, 266989, Note_off_c, 0, 36, 59
1, 267826, Control_c, 0, 64, 86
1, 267844, Control_c, 0, 64, 0
1, 268202, Note_on_c, 0, 60, 68
1, 268202, Note_on_c, 0, 48, 73
1, 268210, Note_on_c, 0, 36, 74
1, 268242, Note_off_c, 0, 48, 67
1, 268244, Note_off_c, 0, 36, 64
1, 268244, Note_off_c, 0, 60, 62
1, 268244, Poly_aftertouch_c, 0, 60, 0
1, 268327, Note_on_c, 0, 58, 82
1, 268334, Note_on_c, 0, 34, 87
1, 268386, Note_off_c, 0, 34, 61
1, 268397, Note_off_c, 0, 58, 63
1, 268459, Note_on_c, 0, 56, 86
1, 268460, Note_on_c, 0, 32, 90
1, 268519, Note_off_c, 0, 32, 61
1, 268527, Note_off_c, 0, 56, 63
1, 268581, Note_on_c, 0, 36, 89
1, 268583, Note_on_c, 0, 60, 88
1, 268586, Note_on_c, 0, 48, 89
1, 268639, Note_off_c, 0, 36, 60
1, 268644, Note_off_c, 0, 48, 61
1, 268645, Note_off_c, 0, 60, 64
1, 268645, Poly_aftertouch_c, 0, 60, 0
1, 268712, Note_on_c, 0, 31, 92
1, 268714, Note_on_c, 0, 55, 79
1, 268768, Note_off_c, 0, 31, 61
1, 268808, Note_off_c, 0, 55, 59
1, 268808, Poly_aftertouch_c, 0, 55, 0
1, 268834, Note_on_c, 0, 36, 75
1, 268835, Note_on_c, 0, 48, 90
1, 268835, Note_on_c, 0, 60, 88
1, 268837, Note_on_c, 0, 38, 77
1, 268866, Note_off_c, 0, 38, 65
1, 268874, Note_off_c, 0, 36, 67
1, 268907, Note_off_c, 0, 48, 61
1, 268914, Note_off_c, 0, 60, 60
1, 268914, Poly_aftertouch_c, 0, 60, 0
1, 269004, Note_on_c, 0, 41, 99
1, 269004, Note_on_c, 0, 53, 101
1, 269014, Note_on_c, 0, 29, 93
1, 269022, Control_c, 0, 64, 80
1, 269039, Note_off_c, 0, 29, 70
1, 269041, Control_c, 0, 64, 127
1, 269043, Note_off_c, 0, 41, 66
1, 269086, Note_off_c, 0, 53, 65
1, 269086, Poly_aftertouch_c, 0, 53, 0
1, 269252, Poly_aftertouch_c, 0, 29, 0
1, 269416, Note_on_c, 0, 53, 68
1, 269467, Note_on_c, 0, 60, 69
1, 269564, Control_c, 0, 64, 99
1, 269572, Note_on_c, 0, 68, 98
1, 269575, Note_on_c, 0, 65, 108
1, 269575, Note_on_c, 0, 80, 97
1, 269577, Note_on_c, 0, 72, 84
1, 269582, Control_c, 0, 64, 66
1, 269602, Control_c, 0, 64, 69
1, 269621, Control_c, 0, 64, 103
1, 269631, Note_off_c, 0, 60, 65
1, 269631, Poly_aftertouch_c, 0, 60, 0
1, 269635, Note_off_c, 0, 53, 63
1, 269635, Poly_aftertouch_c, 0, 53, 0
1, 269639, Control_c, 0, 64, 127
1, 269645, Note_off_c, 0, 72, 61
1, 269662, Note_off_c, 0, 65, 67
1, 269674, Note_off_c, 0, 68, 59
1, 269881, Note_off_c, 0, 80, 62
1, 269881, Poly_aftertouch_c, 0, 80, 0
1, 269899, Note_on_c, 0, 67, 68
1, 269901, Note_on_c, 0, 79, 79
1, 269952, Note_on_c, 0, 65, 81
1, 269967, Note_on_c, 0, 77, 80
1, 269969, Note_off_c, 0, 67, 64
1, 269969, Poly_aftertouch_c, 0, 67, 0
1, 269988, Note_off_c, 0, 65, 63
1, 270000, Note_off_c, 0, 79, 60
1, 270000, Poly_aftertouch_c, 0, 79, 0
1, 270068, Note_off_c, 0, 77, 59
1, 270068, Poly_aftertouch_c, 0, 77, 0
1, 270142, Note_on_c, 0, 85, 98
1, 270144, Note_on_c, 0, 77, 86
1, 270144, Note_on_c, 0, 73, 106
1, 270144, Note_on_c, 0, 79, 88
1, 270144, Control_c, 0, 64, 105
1, 270155, Note_on_c, 0, 46, 101
1, 270157, Note_on_c, 0, 34, 103
1, 270162, Control_c, 0, 64, 49
1, 270172, Note_on_c, 0, 44, 80
1, 270173, Note_off_c, 0, 44, 127
1, 270173, Poly_aftertouch_c, 0, 44, 0
1, 270181, Note_on_c, 0, 33, 72
1, 270182, Control_c, 0, 64, 10
1, 270196, Note_off_c, 0, 46, 67
1, 270199, Control_c, 0, 64, 60
1, 270205, Poly_aftertouch_c, 0, 44, 0
1, 270206, Note_off_c, 0, 34, 60
1, 270214, Note_off_c, 0, 33, 59
1, 270218, Control_c, 0, 64, 100
1, 270237, Control_c, 0, 64, 127
1, 270425, Note_on_c, 0, 48, 70
1, 270425, Note_on_c, 0, 36, 79
1, 270452, Note_off_c, 0, 48, 65
1, 270463, Note_off_c, 0, 36, 62
1, 270502, Note_on_c, 0, 49, 102
1, 270506, Note_on_c, 0, 37, 98
1, 270543, Note_off_c, 0, 49, 65
1, 270558, Note_off_c, 0, 37, 62
1, 270704, Control_c, 0, 64, 81
1, 270705, Note_on_c, 0, 40, 101
1, 270710, Note_on_c, 0, 28, 98
1, 270725, Control_c, 0, 64, 0
1, 270749, Note_on_c, 0, 30, 50
1, 270781, Control_c, 0, 64, 22
1, 270799, Note_off_c, 0, 30, 46
1, 270799, Control_c, 0, 64, 90
1, 270806, Note_off_c, 0, 28, 66
1, 270818, Control_c, 0, 64, 127
1, 270822, Note_off_c, 0, 40, 63
1, 270827, Note_off_c, 0, 73, 58
1, 270827, Poly_aftertouch_c, 0, 73, 0
1, 270830, Poly_aftertouch_c, 0, 34, 0
1, 270844, Note_off_c, 0, 77, 55
1, 270844, Poly_aftertouch_c, 0, 77, 0
1, 270861, Note_off_c, 0, 85, 58
1, 270864, Note_off_c, 0, 79, 56
1, 270864, Poly_aftertouch_c, 0, 79, 0
1, 271122, Note_on_c, 0, 52, 66
1, 271163, Note_on_c, 0, 58, 68
1, 271189, Note_on_c, 0, 61, 64
1, 271220, Note_off_c, 0, 52, 61
1, 271250, Control_c, 0, 64, 78
1, 271259, Note_on_c, 0, 67, 101
1, 271265, Control_c, 0, 64, 66
1, 271269, Note_on_c, 0, 85, 100
1, 271270, Note_on_c, 0, 73, 106
1, 271272, Note_on_c, 0, 79, 91
1, 271286, Control_c, 0, 64, 93
1, 271303, Control_c, 0, 64, 127
1, 271309, Note_off_c, 0, 67, 69
1, 271309, Poly_aftertouch_c, 0, 67, 0
1, 271331, Note_off_c, 0, 58, 63
1, 271340, Note_off_c, 0, 61, 64
1, 271455, Note_off_c, 0, 73, 54
1, 271455, Poly_aftertouch_c, 0, 73, 0
1, 271471, Note_off_c, 0, 79, 56
1, 271471, Poly_aftertouch_c, 0, 79, 0
1, 271477, Note_off_c, 0, 85, 61
1, 271555, Note_on_c, 0, 84, 86
1, 271560, Note_on_c, 0, 72, 76
1, 271588, Note_off_c, 0, 72, 70
1, 271604, Note_off_c, 0, 84, 65
1, 271639, Note_on_c, 0, 82, 91
1, 271641, Note_on_c, 0, 70, 94
1, 271685, Note_off_c, 0, 70, 64
1, 271725, Note_off_c, 0, 82, 64
1, 271725, Poly_aftertouch_c, 0, 82, 0
1, 271827, Control_c, 0, 64, 97
1, 271834, Note_on_c, 0, 84, 85
1, 271837, Note_on_c, 0, 45, 110
1, 271840, Note_on_c, 0, 90, 99
1, 271840, Note_on_c, 0, 33, 93
1, 271843, Note_on_c, 0, 78, 101
1, 271846, Control_c, 0, 64, 23
1, 271865, Control_c, 0, 64, 0
1, 271870, Note_on_c, 0, 41, 58
1, 271880, Note_on_c, 0, 36, 50
1, 271882, Control_c, 0, 64, 63
1, 271901, Note_off_c, 0, 33, 65
1, 271901, Control_c, 0, 64, 125
1, 271907, Note_off_c, 0, 41, 47
1, 271917, Note_off_c, 0, 45, 67
1, 271929, Note_off_c, 0, 36, 37
1, 272135, Note_on_c, 0, 48, 79
1, 272142, Note_on_c, 0, 36, 83
1, 272165, Note_off_c, 0, 48, 68
1, 272177, Note_off_c, 0, 36, 65
1, 272228, Note_on_c, 0, 51, 102
1, 272229, Note_on_c, 0, 39, 96
1, 272252, Poly_aftertouch_c, 0, 37, 127
1, 272266, Note_off_c, 0, 51, 64
1, 272273, Note_on_c, 0, 52, 45
1, 272274, Note_off_c, 0, 52, 127
1, 272284, Poly_aftertouch_c, 0, 37, 0
1, 272293, Poly_aftertouch_c, 0, 53, 0
1, 272296, Note_off_c, 0, 39, 59
1, 272349, Poly_aftertouch_c, 0, 42, 0
1, 272369, Poly_aftertouch_c, 0, 53, 0
1, 272444, Control_c, 0, 64, 75
1, 272462, Control_c, 0, 64, 0
1, 272465, Note_on_c, 0, 39, 110
1, 272468, Note_on_c, 0, 27, 105
1, 272486, Note_on_c, 0, 30, 71
1, 272512, Note_on_c, 0, 26, 51
1, 272515, Note_off_c, 0, 30, 60
1, 272516, Control_c, 0, 64, 46
1, 272538, Control_c, 0, 64, 111
1, 272554, Note_off_c, 0, 26, 53
1, 272556, Control_c, 0, 64, 127
1, 272566, Note_off_c, 0, 27, 65
1, 272573, Note_off_c, 0, 39, 63
1, 272588, Note_off_c, 0, 78, 62
1, 272591, Poly_aftertouch_c, 0, 32, 127
1, 272605, Poly_aftertouch_c, 0, 34, 0
1, 272607, Poly_aftertouch_c, 0, 32, 0
1, 272615, Note_off_c, 0, 84, 55
1, 272639, Note_off_c, 0, 90, 57
1, 272868, Note_on_c, 0, 51, 70
1, 272926, Note_on_c, 0, 57, 70
1, 272968, Note_on_c, 0, 60, 57
1, 273006, Note_off_c, 0, 51, 60
1, 273057, Note_on_c, 0, 66, 105
1, 273061, Note_on_c, 0, 90, 105
1, 273064, Note_on_c, 0, 78, 113
1, 273064, Note_on_c, 0, 84, 97
1, 273100, Note_off_c, 0, 66, 64
1, 273114, Note_on_c, 0, 61, 22
1, 273117, Note_off_c, 0, 57, 60
1, 273136, Note_off_c, 0, 60, 63
1, 273136, Poly_aftertouch_c, 0, 60, 0
1, 273170, Note_off_c, 0, 61, 52
1, 273185, Poly_aftertouch_c, 0, 58, 0
1, 273297, Note_off_c, 0, 78, 51
1, 273315, Note_off_c, 0, 90, 58
1, 273320, Note_off_c, 0, 84, 51
1, 273392, Note_on_c, 0, 89, 85
1, 273396, Note_on_c, 0, 77, 78
1, 273421, Note_off_c, 0, 89, 61
1, 273421, Note_off_c, 0, 77, 70
1, 273421, Poly_aftertouch_c, 0, 77, 0
1, 273421, Poly_aftertouch_c, 0, 89, 0
1, 273480, Note_on_c, 0, 87, 94
1, 273482, Note_on_c, 0, 75, 98
1, 273521, Note_on_c, 0, 88, 28
1, 273526, Note_off_c, 0, 75, 67
1, 273574, Note_off_c, 0, 88, 52
1, 273574, Note_off_c, 0, 87, 63
1, 273659, Control_c, 0, 64, 79
1, 273679, Control_c, 0, 64, 0
1, 273684, Note_on_c, 0, 94, 108
1, 273684, Note_on_c, 0, 89, 90
1, 273684, Note_on_c, 0, 46, 110
1, 273686, Note_on_c, 0, 82, 107
1, 273690, Note_on_c, 0, 34, 103
1, 273697, Control_c, 0, 64, 38
1, 273716, Note_on_c, 0, 95, 65
1, 273718, Control_c, 0, 64, 107
1, 273728, Note_on_c, 0, 37, 44
1, 273733, Control_c, 0, 64, 127
1, 273736, Note_off_c, 0, 95, 63
1, 273754, Note_on_c, 0, 33, 25
1, 273757, Note_off_c, 0, 46, 66
1, 273769, Note_off_c, 0, 34, 65
1, 273777, Note_off_c, 0, 37, 49
1, 273795, Poly_aftertouch_c, 0, 92, 127
1, 273805, Note_off_c, 0, 33, 42
1, 273807, Poly_aftertouch_c, 0, 83, 127
1, 273826, Poly_aftertouch_c, 0, 92, 0
1, 273828, Poly_aftertouch_c, 0, 83, 0
1, 274006, Note_on_c, 0, 50, 73
1, 274014, Note_on_c, 0, 38, 66
1, 274021, Note_on_c, 0, 40, 58
1, 274041, Note_off_c, 0, 50, 64
1, 274047, Note_off_c, 0, 38, 57
1, 274057, Note_off_c, 0, 40, 35
1, 274079, Note_on_c, 0, 53, 100
1, 274079, Note_on_c, 0, 41, 94
1, 274110, Note_on_c, 0, 43, 58
1, 274113, Note_off_c, 0, 53, 66
1, 274132, Note_off_c, 0, 41, 65
1, 274146, Note_off_c, 0, 43, 59
1, 274222, Poly_aftertouch_c, 0, 44, 0
1, 274332, Control_c, 0, 64, 72
1, 274339, Note_on_c, 0, 38, 107
1, 274347, Note_on_c, 0, 26, 101
1, 274350, Control_c, 0, 64, 0
1, 274371, Note_on_c, 0, 34, 62
1, 274401, Note_off_c, 0, 82, 64
1, 274401, Poly_aftertouch_c, 0, 82, 0
1, 274407, Note_off_c, 0, 34, 58
1, 274407, Control_c, 0, 64, 18
1, 274427, Control_c, 0, 64, 84
1, 274445, Control_c, 0, 64, 127
1, 274473, Note_off_c, 0, 26, 65
1, 274489, Note_off_c, 0, 38, 63
1, 274497, Note_off_c, 0, 89, 58
1, 274497, Poly_aftertouch_c, 0, 89, 0
1, 274500, Poly_aftertouch_c, 0, 28, 0
1, 274524, Note_off_c, 0, 94, 59
1, 274795, Note_on_c, 0, 50, 59
1, 274810, Note_on_c, 0, 53, 65
1, 274841, Note_on_c, 0, 56, 57
1, 274849, Note_on_c, 0, 58, 73
1, 274885, Poly_aftertouch_c, 0, 52, 127
1, 274901, Note_off_c, 0, 50, 59
1, 274914, Poly_aftertouch_c, 0, 52, 0
1, 274946, Note_off_c, 0, 53, 60
1, 274968, Note_on_c, 0, 98, 105
1, 274970, Note_on_c, 0, 86, 109
1, 274971, Note_on_c, 0, 65, 100
1, 274973, Note_on_c, 0, 94, 101
1, 275021, Note_off_c, 0, 65, 67
1, 275023, Note_off_c, 0, 56, 58
1, 275036, Note_off_c, 0, 58, 61
1, 275269, Note_off_c, 0, 98, 57
1, 275277, Note_off_c, 0, 86, 56
1, 275347, Note_off_c, 0, 94, 61
1, 275387, Note_on_c, 0, 96, 84
1, 275395, Note_on_c, 0, 84, 71
1, 275415, Note_off_c, 0, 84, 68
1, 275425, Note_on_c, 0, 95, 51
1, 275436, Note_off_c, 0, 96, 60
1, 275458, Note_off_c, 0, 95, 59
1, 275476, Note_on_c, 0, 82, 95
1, 275477, Note_on_c, 0, 94, 95
1, 275538, Note_off_c, 0, 82, 64
1, 275538, Poly_aftertouch_c, 0, 82, 0
1, 275553, Note_on_c, 0, 25, 34
1, 275567, Note_off_c, 0, 94, 66
1, 275608, Note_off_c, 0, 25, 42
1, 275660, Control_c, 0, 64, 113
1, 275680, Control_c, 0, 64, 46
1, 275697, Control_c, 0, 64, 0
1, 275707, Note_on_c, 0, 101, 109
1, 275707, Note_on_c, 0, 89, 108
1, 275711, Note_on_c, 0, 94, 101
1, 275711, Note_on_c, 0, 37, 112
1, 275714, Note_on_c, 0, 25, 97
1, 275736, Note_on_c, 0, 99, 77
1, 275742, Control_c, 0, 64, 82
1, 275746, Note_on_c, 0, 27, 67
1, 275754, Note_on_c, 0, 95, 42
1, 275754, Control_c, 0, 64, 127
1, 275763, Note_off_c, 0, 99, 66
1, 275779, Note_off_c, 0, 27, 54
1, 275784, Note_off_c, 0, 25, 65
1, 275793, Note_off_c, 0, 95, 57
1, 275794, Note_off_c, 0, 37, 63
1, 275839, Poly_aftertouch_c, 0, 30, 127
1, 275863, Poly_aftertouch_c, 0, 30, 0
1, 276067, Note_on_c, 0, 41, 81
1, 276078, Note_on_c, 0, 29, 82
1, 276097, Note_off_c, 0, 41, 65
1, 276116, Note_off_c, 0, 29, 60
1, 276164, Note_on_c, 0, 34, 98
1, 276165, Note_on_c, 0, 46, 103
1, 276173, Note_off_c, 0, 94, 64
1, 276199, Note_off_c, 0, 46, 65
1, 276204, Poly_aftertouch_c, 0, 30, 0
1, 276223, Note_off_c, 0, 34, 63
1, 276251, Note_off_c, 0, 89, 51
1, 276251, Poly_aftertouch_c, 0, 89, 0
1, 276256, Note_off_c, 0, 101, 57
1, 276390, Control_c, 0, 64, 113
1, 276408, Control_c, 0, 64, 49
1, 276426, Control_c, 0, 64, 0
1, 276431, Note_on_c, 0, 36, 104
1, 276435, Note_on_c, 0, 101, 106
1, 276436, Note_on_c, 0, 92, 102
1, 276436, Note_on_c, 0, 96, 96
1, 276437, Note_on_c, 0, 89, 105
1, 276437, Note_on_c, 0, 24, 97
1, 276464, Control_c, 0, 64, 76
1, 276469, Note_on_c, 0, 99, 63
1, 276480, Note_off_c, 0, 24, 63
1, 276483, Note_off_c, 0, 36, 65
1, 276483, Control_c, 0, 64, 127
1, 276498, Note_off_c, 0, 99, 62
1, 276727, Note_on_c, 0, 41, 82
1, 276735, Note_on_c, 0, 29, 82
1, 276756, Note_off_c, 0, 101, 60
1, 276756, Note_off_c, 0, 96, 63
1, 276757, Note_off_c, 0, 41, 65
1, 276772, Note_off_c, 0, 29, 62
1, 276783, Note_off_c, 0, 92, 62
1, 276791, Note_off_c, 0, 89, 57
1, 276791, Poly_aftertouch_c, 0, 89, 0
1, 276823, Note_on_c, 0, 44, 95
1, 276827, Note_on_c, 0, 32, 91
1, 276832, Note_on_c, 0, 46, 81
1, 276841, Note_on_c, 0, 34, 73
1, 276858, Note_off_c, 0, 44, 65
1, 276861, Note_off_c, 0, 32, 68
1, 276864, Note_off_c, 0, 46, 66
1, 276872, Note_off_c, 0, 34, 59
1, 277007, Control_c, 0, 64, 95
1, 277025, Control_c, 0, 64, 0
1, 277035, Note_on_c, 0, 91, 96
1, 277036, Note_on_c, 0, 96, 93
1, 277040, Note_on_c, 0, 100, 105
1, 277041, Note_on_c, 0, 88, 99
1, 277045, Note_on_c, 0, 48, 106
1, 277048, Note_on_c, 0, 36, 99
1, 277082, Control_c, 0, 64, 62
1, 277090, Note_off_c, 0, 48, 70
1, 277094, Note_off_c, 0, 36, 69
1, 277101, Control_c, 0, 64, 110
1, 277119, Control_c, 0, 64, 127
1, 277183, Poly_aftertouch_c, 0, 39, 0
1, 277309, Note_on_c, 0, 52, 73
1, 277312, Note_on_c, 0, 40, 71
1, 277335, Note_off_c, 0, 100, 63
1, 277338, Note_off_c, 0, 96, 63
1, 277341, Note_off_c, 0, 52, 68
1, 277343, Note_off_c, 0, 40, 59
1, 277347, Note_off_c, 0, 91, 64
1, 277365, Note_off_c, 0, 88, 61
1, 277390, Note_on_c, 0, 43, 93
1, 277390, Note_on_c, 0, 55, 97
1, 277418, Poly_aftertouch_c, 0, 41, 0
1, 277421, Note_off_c, 0, 43, 70
1, 277424, Note_off_c, 0, 55, 65
1, 277424, Poly_aftertouch_c, 0, 55, 0
1, 277567, Control_c, 0, 64, 118
1, 277587, Control_c, 0, 64, 55
1, 277608, Control_c, 0, 64, 0
1, 277612, Note_on_c, 0, 98, 104
1, 277612, Note_on_c, 0, 95, 98
1, 277613, Note_on_c, 0, 86, 105
1, 277613, Note_on_c, 0, 60, 102
1, 277615, Note_on_c, 0, 92, 101
1, 277617, Note_on_c, 0, 48, 96
1, 277652, Note_off_c, 0, 60, 70
1, 277652, Poly_aftertouch_c, 0, 60, 0
1, 277659, Note_off_c, 0, 48, 69
1, 277661, Control_c, 0, 64, 51
1, 277679, Control_c, 0, 64, 89
1, 277697, Control_c, 0, 64, 127
1, 277728, Poly_aftertouch_c, 0, 50, 0
1, 277876, Note_on_c, 0, 53, 87
1, 277881, Note_on_c, 0, 65, 81
1, 277882, Note_off_c, 0, 86, 60
1, 277887, Note_off_c, 0, 92, 64
1, 277903, Note_off_c, 0, 53, 70
1, 277907, Note_off_c, 0, 95, 62
1, 277907, Note_off_c, 0, 98, 61
1, 277909, Note_off_c, 0, 65, 72
1, 277971, Note_on_c, 0, 68, 99
1, 277982, Note_on_c, 0, 56, 81
1, 278017, Note_off_c, 0, 56, 68
1, 278020, Note_off_c, 0, 68, 65
1, 278078, Poly_aftertouch_c, 0, 54, 0
1, 278110, Control_c, 0, 64, 97
1, 278129, Control_c, 0, 64, 55
1, 278146, Control_c, 0, 64, 67
1, 278153, Note_on_c, 0, 100, 96
1, 278156, Note_on_c, 0, 96, 86
1, 278158, Note_on_c, 0, 88, 97
1, 278158, Note_on_c, 0, 72, 108
1, 278159, Note_on_c, 0, 91, 84
1, 278159, Note_on_c, 0, 60, 97
1, 278165, Control_c, 0, 64, 116
1, 278185, Control_c, 0, 64, 127
1, 278196, Note_off_c, 0, 100, 67
1, 278196, Note_off_c, 0, 72, 69
1, 278200, Note_off_c, 0, 60, 69
1, 278200, Poly_aftertouch_c, 0, 60, 0
1, 278206, Note_off_c, 0, 96, 66
1, 278206, Note_off_c, 0, 91, 62
1, 278208, Note_on_c, 0, 63, 43
1, 278218, Note_off_c, 0, 88, 64
1, 278255, Poly_aftertouch_c, 0, 68, 0
1, 278258, Note_off_c, 0, 63, 51
1, 278278, Control_c, 0, 64, 83
1, 278296, Control_c, 0, 64, 0
1, 278460, Note_on_c, 0, 53, 85
1, 278461, Note_on_c, 0, 65, 86
1, 278464, Control_c, 0, 64, 29
1, 278485, Control_c, 0, 64, 98
1, 278495, Note_off_c, 0, 53, 68
1, 278501, Note_on_c, 0, 83, 80
1, 278501, Note_on_c, 0, 86, 87
1, 278502, Note_on_c, 0, 74, 91
1, 278503, Note_off_c, 0, 65, 65
1, 278503, Control_c, 0, 64, 127
1, 278516, Note_on_c, 0, 80, 80
1, 278580, Note_off_c, 0, 74, 61
1, 278593, Note_off_c, 0, 83, 61
1, 278593, Note_on_c, 0, 68, 93
1, 278596, Note_on_c, 0, 56, 83
1, 278606, Note_off_c, 0, 86, 62
1, 278614, Note_on_c, 0, 70, 70
1, 278615, Note_off_c, 0, 70, 127
1, 278617, Note_off_c, 0, 80, 64
1, 278617, Poly_aftertouch_c, 0, 80, 0
1, 278625, Note_off_c, 0, 56, 70
1, 278628, Note_off_c, 0, 68, 62
1, 278653, Control_c, 0, 64, 112
1, 278671, Control_c, 0, 64, 53
1, 278688, Control_c, 0, 64, 0
1, 278708, Control_c, 0, 64, 23
1, 278714, Note_on_c, 0, 88, 95
1, 278715, Note_on_c, 0, 79, 98
1, 278716, Note_on_c, 0, 76, 102
1, 278718, Note_on_c, 0, 84, 91
1, 278724, Note_on_c, 0, 60, 95
1, 278725, Note_on_c, 0, 72, 106
1, 278728, Control_c, 0, 64, 69
1, 278745, Control_c, 0, 64, 110
1, 278761, Note_off_c, 0, 72, 68
1, 278763, Note_on_c, 0, 63, 50
1, 278764, Control_c, 0, 64, 127
1, 278769, Note_off_c, 0, 88, 68
1, 278777, Note_off_c, 0, 60, 65
1, 278777, Poly_aftertouch_c, 0, 60, 0
1, 278783, Note_off_c, 0, 84, 65
1, 278785, Note_off_c, 0, 76, 53
1, 278786, Note_off_c, 0, 79, 61
1, 278786, Poly_aftertouch_c, 0, 79, 0
1, 278802, Note_off_c, 0, 63, 59
1, 278876, Control_c, 0, 64, 86
1, 278895, Control_c, 0, 64, 57
1, 278914, Control_c, 0, 64, 74
1, 278933, Control_c, 0, 64, 107
1, 278950, Control_c, 0, 64, 127
1, 278989, Control_c, 0, 64, 105
1, 279008, Control_c, 0, 64, 56
1, 279025, Control_c, 0, 64, 0
1, 279039, Note_on_c, 0, 41, 87
1, 279039, Note_on_c, 0, 53, 88
1, 279044, Control_c, 0, 64, 39
1, 279064, Control_c, 0, 64, 90
1, 279076, Note_off_c, 0, 53, 65
1, 279077, Note_on_c, 0, 74, 88
1, 279079, Note_on_c, 0, 62, 91
1, 279081, Note_off_c, 0, 41, 67
1, 279081, Note_on_c, 0, 68, 82
1, 279081, Control_c, 0, 64, 127
1, 279084, Note_on_c, 0, 71, 74
1, 279138, Control_c, 0, 64, 112
1, 279157, Control_c, 0, 64, 59
1, 279162, Note_off_c, 0, 62, 58
1, 279162, Poly_aftertouch_c, 0, 62, 0
1, 279171, Note_on_c, 0, 56, 105
1, 279175, Control_c, 0, 64, 0
1, 279176, Note_on_c, 0, 44, 87
1, 279182, Note_off_c, 0, 74, 62
1, 279192, Note_off_c, 0, 71, 57
1, 279197, Note_off_c, 0, 68, 63
1, 279210, Note_off_c, 0, 56, 60
1, 279210, Note_off_c, 0, 44, 70
1, 279213, Control_c, 0, 64, 51
1, 279231, Control_c, 0, 64, 89
1, 279251, Control_c, 0, 64, 112
1, 279271, Control_c, 0, 64, 102
1, 279288, Control_c, 0, 64, 70
1, 279291, Note_on_c, 0, 76, 91
1, 279292, Note_on_c, 0, 67, 94
1, 279294, Note_on_c, 0, 64, 97
1, 279296, Note_on_c, 0, 72, 88
1, 279316, Note_on_c, 0, 60, 106
1, 279317, Note_on_c, 0, 48, 94
1, 279326, Control_c, 0, 64, 122
1, 279343, Control_c, 0, 64, 127
1, 279347, Note_on_c, 0, 51, 57
1, 279351, Note_off_c, 0, 60, 66
1, 279351, Poly_aftertouch_c, 0, 60, 0
1, 279354, Note_on_c, 0, 50, 42
1, 279361, Note_off_c, 0, 76, 66
1, 279372, Note_off_c, 0, 72, 64
1, 279374, Note_off_c, 0, 67, 60
1, 279374, Poly_aftertouch_c, 0, 67, 0
1, 279376, Note_off_c, 0, 64, 52
1, 279380, Note_off_c, 0, 48, 64
1, 279381, Note_off_c, 0, 51, 59
1, 279399, Note_off_c, 0, 50, 51
1, 279493, Control_c, 0, 64, 77
1, 279512, Control_c, 0, 64, 0
1, 279673, Note_on_c, 0, 41, 91
1, 279679, Note_on_c, 0, 29, 86
1, 279691, Note_on_c, 0, 59, 81
1, 279692, Note_on_c, 0, 56, 87
1, 279695, Note_on_c, 0, 62, 77
1, 279710, Note_off_c, 0, 29, 68
1, 279715, Note_off_c, 0, 41, 63
1, 279716, Control_c, 0, 64, 127
1, 279762, Note_off_c, 0, 62, 63
1, 279762, Poly_aftertouch_c, 0, 62, 0
1, 279769, Note_off_c, 0, 59, 61
1, 279783, Note_off_c, 0, 56, 52
1, 279791, Note_on_c, 0, 44, 102
1, 279797, Note_on_c, 0, 32, 92
1, 279842, Note_off_c, 0, 44, 64
1, 279842, Note_off_c, 0, 32, 61
1, 279904, Control_c, 0, 64, 90
1, 279925, Control_c, 0, 64, 0
1, 279972, Note_on_c, 0, 55, 99
1, 279973, Note_on_c, 0, 60, 82
1, 279973, Note_on_c, 0, 64, 91
1, 279973, Note_on_c, 0, 48, 110
1, 279977, Note_on_c, 0, 36, 101
1, 279999, Control_c, 0, 64, 108
1, 280001, Note_on_c, 0, 39, 75
1, 280017, Control_c, 0, 64, 127
1, 280019, Note_off_c, 0, 48, 69
1, 280031, Note_off_c, 0, 39, 60
1, 280040, Note_off_c, 0, 36, 63
1, 280061, Note_off_c, 0, 64, 64
1, 280085, Note_off_c, 0, 60, 54
1, 280085, Poly_aftertouch_c, 0, 60, 0
1, 280092, Control_c, 0, 64, 121
1, 280109, Note_off_c, 0, 55, 36
1, 280109, Poly_aftertouch_c, 0, 55, 0
1, 280109, Control_c, 0, 64, 66
1, 280120, Poly_aftertouch_c, 0, 44, 0
1, 280128, Control_c, 0, 64, 0
1, 280621, Note_on_c, 0, 60, 92
1, 280622, Note_on_c, 0, 52, 96
1, 280625, Note_on_c, 0, 36, 101
1, 280626, Note_on_c, 0, 24, 89
1, 280627, Note_on_c, 0, 55, 85
1, 280653, Control_c, 0, 64, 54
1, 280663, Note_on_c, 0, 27, 54
1, 280671, Control_c, 0, 64, 127
1, 280681, Note_off_c, 0, 24, 65
1, 280694, Note_off_c, 0, 36, 66
1, 280702, Note_off_c, 0, 52, 65
1, 280704, Note_off_c, 0, 55, 65
1, 280704, Poly_aftertouch_c, 0, 55, 0
1, 280708, Note_off_c, 0, 27, 46
1, 280714, Note_off_c, 0, 60, 61
1, 280714, Poly_aftertouch_c, 0, 60, 0
1, 280769, Poly_aftertouch_c, 0, 56, 0
1, 280783, Control_c, 0, 64, 113
1, 280803, Control_c, 0, 64, 58
1, 280822, Control_c, 0, 64, 0
1, 282159, Note_on_c, 0, 69, 87
1, 282162, Note_on_c, 0, 60, 85
1, 282163, Note_on_c, 0, 65, 79
1, 282165, Note_on_c, 0, 57, 86
1, 282782, Note_on_c, 0, 33, 87
1, 282824, Note_off_c, 0, 33, 64
1, 283108, Note_on_c, 0, 31, 82
1, 283130, Note_off_c, 0, 60, 51
1, 283130, Poly_aftertouch_c, 0, 60, 0
1, 283147, Note_off_c, 0, 31, 69
1, 283160, Note_off_c, 0, 69, 52
1, 283160, Poly_aftertouch_c, 0, 69, 0
1, 283180, Note_off_c, 0, 57, 52
1, 283222, Note_on_c, 0, 29, 86
1, 283240, Note_off_c, 0, 65, 60
1, 283262, Note_off_c, 0, 29, 67
1, 283378, Note_on_c, 0, 67, 89
1, 283379, Note_on_c, 0, 55, 91
1, 283380, Note_on_c, 0, 64, 81
1, 283383, Note_on_c, 0, 60, 84
1, 283386, Note_on_c, 0, 36, 90
1, 283420, Note_off_c, 0, 36, 71
1, 283626, Control_c, 0, 64, 34
1, 283644, Control_c, 0, 64, 65
1, 283663, Control_c, 0, 64, 83
1, 283682, Control_c, 0, 64, 106
1, 283693, Note_off_c, 0, 55, 57
1, 283693, Poly_aftertouch_c, 0, 55, 0
1, 283701, Control_c, 0, 64, 127
1, 283709, Note_off_c, 0, 60, 61
1, 283709, Poly_aftertouch_c, 0, 60, 0
1, 283723, Note_off_c, 0, 67, 60
1, 283723, Poly_aftertouch_c, 0, 67, 0
1, 283740, Note_off_c, 0, 64, 61
1, 283790, Poly_aftertouch_c, 0, 66, 0
1, 284010, Note_on_c, 0, 70, 92
1, 284011, Note_on_c, 0, 62, 87
1, 284011, Note_on_c, 0, 58, 94
1, 284013, Note_on_c, 0, 65, 82
1, 284019, Control_c, 0, 64, 108
1, 284038, Control_c, 0, 64, 57
1, 284056, Control_c, 0, 64, 0
1, 284602, Note_on_c, 0, 38, 84
1, 284648, Note_off_c, 0, 38, 63
1, 284919, Note_on_c, 0, 36, 77
1, 284961, Note_off_c, 0, 36, 66
1, 285038, Note_on_c, 0, 34, 86
1, 285080, Note_off_c, 0, 34, 66
1, 285200, Note_on_c, 0, 46, 102
1, 285241, Note_off_c, 0, 46, 67
1, 285496, Control_c, 0, 64, 18
1, 285515, Control_c, 0, 64, 61
1, 285532, Control_c, 0, 64, 80
1, 285552, Control_c, 0, 64, 102
1, 285570, Control_c, 0, 64, 127
1, 285605, Note_off_c, 0, 65, 58
1, 285612, Note_off_c, 0, 58, 53
1, 285623, Note_off_c, 0, 62, 53
1, 285623, Poly_aftertouch_c, 0, 62, 0
1, 285637, Note_off_c, 0, 70, 55
1, 285869, Note_on_c, 0, 67, 86
1, 285869, Note_on_c, 0, 70, 93
1, 285870, Note_on_c, 0, 62, 85
1, 285870, Note_on_c, 0, 58, 90
1, 285888, Control_c, 0, 64, 89
1, 285908, Control_c, 0, 64, 17
1, 285926, Control_c, 0, 64, 0
1, 286468, Note_on_c, 0, 34, 91
1, 286508, Note_off_c, 0, 34, 66
1, 286784, Note_on_c, 0, 33, 80
1, 286818, Note_off_c, 0, 33, 64
1, 286838, Note_off_c, 0, 62, 52
1, 286838, Poly_aftertouch_c, 0, 62, 0
1, 286905, Note_on_c, 0, 31, 85
1, 286943, Note_off_c, 0, 31, 69
1, 286951, Note_off_c, 0, 58, 58
1, 286954, Note_off_c, 0, 70, 60
1, 286977, Note_off_c, 0, 67, 53
1, 286977, Poly_aftertouch_c, 0, 67, 0
1, 287072, Note_on_c, 0, 38, 88
1, 287074, Note_on_c, 0, 69, 88
1, 287076, Note_on_c, 0, 57, 88
1, 287077, Note_on_c, 0, 65, 80
1, 287081, Note_on_c, 0, 62, 80
1, 287109, Note_off_c, 0, 38, 69
1, 287291, Control_c, 0, 64, 16
1, 287310, Control_c, 0, 64, 55
1, 287328, Control_c, 0, 64, 76
1, 287347, Control_c, 0, 64, 100
1, 287365, Control_c, 0, 64, 127
1, 287369, Note_off_c, 0, 57, 58
1, 287385, Note_off_c, 0, 65, 61
1, 287398, Note_off_c, 0, 62, 59
1, 287398, Poly_aftertouch_c, 0, 62, 0
1, 287438, Note_off_c, 0, 69, 59
1, 287438, Poly_aftertouch_c, 0, 69, 0
1, 287699, Note_on_c, 0, 72, 91
1, 287704, Note_on_c, 0, 63, 84
1, 287706, Note_on_c, 0, 67, 78
1, 287710, Note_on_c, 0, 60, 84
1, 287722, Control_c, 0, 64, 119
1, 287739, Control_c, 0, 64, 70
1, 287758, Control_c, 0, 64, 0
1, 288298, Note_on_c, 0, 39, 86
1, 288339, Note_off_c, 0, 39, 65
1, 288596, Note_on_c, 0, 38, 86
1, 288635, Note_off_c, 0, 38, 67
1, 288728, Note_on_c, 0, 36, 86
1, 288764, Note_off_c, 0, 36, 68
1, 288890, Note_on_c, 0, 48, 99
1, 288935, Note_off_c, 0, 48, 69
1, 289142, Control_c, 0, 64, 31
1, 289160, Control_c, 0, 64, 55
1, 289180, Control_c, 0, 64, 71
1, 289198, Control_c, 0, 64, 86
1, 289217, Control_c, 0, 64, 105
1, 289222, Note_off_c, 0, 60, 60
1, 289222, Poly_aftertouch_c, 0, 60, 0
1, 289227, Note_off_c, 0, 67, 60
1, 289227, Poly_aftertouch_c, 0, 67, 0
1, 289235, Control_c, 0, 64, 127
1, 289239, Note_off_c, 0, 63, 59
1, 289288, Note_off_c, 0, 72, 54
1, 289496, Note_on_c, 0, 72, 81
1, 289514, Note_on_c, 0, 67, 66
1, 289515, Control_c, 0, 64, 119
1, 289520, Note_on_c, 0, 63, 69
1, 289535, Control_c, 0, 64, 85
1, 289553, Control_c, 0, 64, 56
1, 289572, Control_c, 0, 64, 44
1, 289591, Control_c, 0, 64, 53
1, 289610, Control_c, 0, 64, 73
1, 289628, Control_c, 0, 64, 95
1, 289647, Control_c, 0, 64, 127
1, 289657, Note_off_c, 0, 63, 57
1, 289703, Note_off_c, 0, 72, 57
1, 289708, Note_off_c, 0, 67, 50
1, 289708, Poly_aftertouch_c, 0, 67, 0
1, 289786, Note_on_c, 0, 70, 89
1, 289793, Note_on_c, 0, 62, 78
1, 289797, Note_on_c, 0, 67, 75
1, 289797, Control_c, 0, 64, 112
1, 289816, Control_c, 0, 64, 78
1, 289830, Note_off_c, 0, 62, 67
1, 289830, Poly_aftertouch_c, 0, 62, 0
1, 289843, Note_off_c, 0, 67, 63
1, 289843, Poly_aftertouch_c, 0, 67, 0
1, 289851, Control_c, 0, 64, 102
1, 289871, Control_c, 0, 64, 127
1, 289902, Note_off_c, 0, 70, 64
1, 290094, Note_on_c, 0, 75, 95
1, 290110, Note_on_c, 0, 69, 70
1, 290113, Control_c, 0, 64, 113
1, 290121, Note_on_c, 0, 67, 71
1, 290134, Control_c, 0, 64, 70
1, 290152, Control_c, 0, 64, 0
1, 290379, Note_on_c, 0, 27, 79
1, 290433, Note_off_c, 0, 27, 60
1, 290503, Note_on_c, 0, 26, 85
1, 290550, Note_off_c, 0, 26, 66
1, 290649, Note_on_c, 0, 38, 89
1, 290687, Note_off_c, 0, 38, 68
1, 290788, Control_c, 0, 64, 32
1, 290806, Control_c, 0, 64, 49
1, 290810, Note_off_c, 0, 67, 56
1, 290810, Poly_aftertouch_c, 0, 67, 0
1, 290815, Note_off_c, 0, 69, 54
1, 290815, Poly_aftertouch_c, 0, 69, 0
1, 290825, Control_c, 0, 64, 66
1, 290843, Control_c, 0, 64, 82
1, 290857, Note_off_c, 0, 75, 63
1, 290861, Control_c, 0, 64, 95
1, 290881, Control_c, 0, 64, 102
1, 290918, Control_c, 0, 64, 96
1, 290937, Control_c, 0, 64, 89
1, 290943, Note_on_c, 0, 74, 77
1, 290970, Note_on_c, 0, 69, 47
1, 290972, Note_on_c, 0, 65, 47
1, 290973, Control_c, 0, 64, 101
1, 290994, Control_c, 0, 64, 114
1, 291003, Note_off_c, 0, 69, 50
1, 291003, Poly_aftertouch_c, 0, 69, 0
1, 291012, Control_c, 0, 64, 126
1, 291026, Note_off_c, 0, 65, 50
1, 291064, Note_off_c, 0, 74, 59
1, 291087, Control_c, 0, 67, 8
1, 291199, Control_c, 0, 64, 119
1, 291200, Control_c, 0, 67, 12
1, 291218, Control_c, 0, 64, 98
1, 291235, Control_c, 0, 64, 84
1, 291241, Note_on_c, 0, 72, 69
1, 291248, Note_on_c, 0, 67, 55
1, 291270, Note_on_c, 0, 63, 54
1, 291274, Control_c, 0, 64, 96
1, 291293, Control_c, 0, 64, 112
1, 291301, Note_off_c, 0, 67, 61
1, 291301, Poly_aftertouch_c, 0, 67, 0
1, 291310, Control_c, 0, 64, 127
1, 291363, Note_off_c, 0, 63, 61
1, 291399, Note_off_c, 0, 72, 59
1, 291480, Control_c, 0, 64, 96
1, 291498, Control_c, 0, 64, 69
1, 291512, Note_on_c, 0, 70, 70
1, 291516, Control_c, 0, 64, 64
1, 291526, Note_on_c, 0, 65, 59
1, 291527, Note_on_c, 0, 62, 60
1, 291535, Control_c, 0, 64, 71
1, 291555, Control_c, 0, 64, 83
1, 291573, Control_c, 0, 64, 104
1, 291575, Note_off_c, 0, 65, 64
1, 291590, Note_off_c, 0, 70, 63
1, 291591, Control_c, 0, 64, 127
1, 291612, Note_off_c, 0, 62, 58
1, 291612, Poly_aftertouch_c, 0, 62, 0
1, 291821, Note_on_c, 0, 67, 61
1, 291834, Control_c, 0, 64, 120
1, 291840, Note_on_c, 0, 64, 48
1, 291846, Note_on_c, 0, 61, 53
1, 291846, Note_on_c, 0, 58, 55
1, 291851, Control_c, 0, 64, 96
1, 291873, Control_c, 0, 64, 71
1, 291891, Control_c, 0, 64, 49
1, 291910, Control_c, 0, 64, 15
1, 291927, Control_c, 0, 64, 0
1, 292121, Note_on_c, 0, 28, 68
1, 292174, Note_off_c, 0, 28, 65
1, 292247, Note_on_c, 0, 26, 75
1, 292291, Note_off_c, 0, 26, 66
1, 292404, Note_on_c, 0, 38, 74
1, 292433, Control_c, 0, 64, 8
1, 292436, Note_off_c, 0, 38, 64
1, 292509, Note_off_c, 0, 67, 61
1, 292509, Poly_aftertouch_c, 0, 67, 0
1, 292555, Note_off_c, 0, 58, 61
1, 292600, Control_c, 0, 64, 0
1, 292710, Note_on_c, 0, 69, 51
1, 292718, Note_on_c, 0, 57, 48
1, 292751, Control_c, 0, 64, 19
1, 292769, Control_c, 0, 64, 38
1, 292788, Control_c, 0, 64, 57
1, 292806, Control_c, 0, 64, 72
1, 292826, Control_c, 0, 64, 83
1, 292843, Note_off_c, 0, 57, 55
1, 292844, Note_off_c, 0, 64, 60
1, 292844, Control_c, 0, 64, 93
1, 292860, Note_off_c, 0, 61, 52
1, 292865, Note_off_c, 0, 69, 57
1, 292865, Poly_aftertouch_c, 0, 69, 0
1, 292865, Control_c, 0, 64, 102
1, 292884, Control_c, 0, 64, 110
1, 292901, Control_c, 0, 64, 118
1, 292918, Control_c, 0, 64, 126
1, 293064, Note_on_c, 0, 66, 55
1, 293071, Note_on_c, 0, 69, 52
1, 293081, Note_on_c, 0, 62, 38
1, 293084, Note_on_c, 0, 57, 39
1, 293106, Control_c, 0, 64, 108
1, 293127, Control_c, 0, 64, 79
1, 293143, Control_c, 0, 64, 46
1, 293163, Control_c, 0, 64, 0
1, 293677, Note_on_c, 0, 30, 74
1, 293686, Control_c, 0, 67, 16
1, 293704, Control_c, 0, 67, 22
1, 293724, Control_c, 0, 67, 39
1, 293726, Note_off_c, 0, 30, 64
1, 293742, Control_c, 0, 67, 65
1, 293760, Control_c, 0, 67, 95
1, 293779, Control_c, 0, 67, 121
1, 293797, Control_c, 0, 67, 127
1, 294273, Note_on_c, 0, 28, 58
1, 294334, Note_off_c, 0, 28, 64
1, 294563, Note_on_c, 0, 26, 53
1, 294608, Note_off_c, 0, 26, 61
1, 294905, Note_on_c, 0, 38, 44
1, 294962, Note_off_c, 0, 38, 60
1, 295555, Control_c, 0, 64, 22
1, 295574, Control_c, 0, 64, 43
1, 295593, Control_c, 0, 64, 62
1, 295611, Control_c, 0, 64, 77
1, 295631, Control_c, 0, 64, 89
1, 295650, Control_c, 0, 64, 101
1, 295667, Control_c, 0, 64, 112
1, 295687, Control_c, 0, 64, 123
1, 295688, Control_c, 0, 67, 123
1, 295705, Control_c, 0, 64, 127
1, 295706, Note_off_c, 0, 62, 58
1, 295706, Poly_aftertouch_c, 0, 62, 0
1, 295733, Note_off_c, 0, 57, 54
1, 295750, Note_off_c, 0, 69, 55
1, 295750, Poly_aftertouch_c, 0, 69, 0
1, 295770, Note_off_c, 0, 66, 40
1, 296004, Control_c, 0, 67, 119
1, 296135, Control_c, 0, 64, 117
1, 296154, Control_c, 0, 64, 88
1, 296155, Control_c, 0, 67, 123
1, 296173, Control_c, 0, 64, 56
1, 296192, Control_c, 0, 64, 0
1, 296193, Control_c, 0, 67, 127
1, 296709, Note_on_c, 0, 59, 50
1, 296748, Note_on_c, 0, 47, 25
1, 296757, Note_on_c, 0, 50, 27
1, 296794, Note_on_c, 0, 55, 7
1, 297284, Note_on_c, 0, 35, 38
1, 297321, Note_off_c, 0, 35, 46
1, 297361, Note_off_c, 0, 47, 43
1, 297376, Note_off_c, 0, 50, 42
1, 297573, Note_on_c, 0, 33, 47
1, 297611, Note_off_c, 0, 33, 52
1, 297677, Note_on_c, 0, 31, 58
1, 297718, Note_off_c, 0, 31, 63
1, 297814, Note_on_c, 0, 54, 27
1, 297814, Note_on_c, 0, 57, 51
1, 297823, Note_on_c, 0, 50, 36
1, 297827, Note_off_c, 0, 55, 54
1, 297827, Poly_aftertouch_c, 0, 55, 0
1, 297892, Note_off_c, 0, 59, 44
1, 298061, Control_c, 0, 64, 16
1, 298080, Control_c, 0, 64, 49
1, 298094, Note_on_c, 0, 38, 51
1, 298099, Control_c, 0, 64, 72
1, 298118, Control_c, 0, 64, 88
1, 298126, Note_off_c, 0, 54, 57
1, 298134, Note_off_c, 0, 50, 56
1, 298135, Control_c, 0, 64, 107
1, 298138, Note_off_c, 0, 38, 62
1, 298154, Control_c, 0, 64, 127
1, 298157, Note_off_c, 0, 57, 61
1, 298417, Note_on_c, 0, 60, 48
1, 298426, Note_on_c, 0, 52, 42
1, 298430, Note_on_c, 0, 55, 41
1, 298431, Note_on_c, 0, 48, 35
1, 298434, Control_c, 0, 67, 123
1, 298528, Control_c, 0, 67, 119
1, 298547, Control_c, 0, 64, 114
1, 298565, Control_c, 0, 64, 100
1, 298585, Control_c, 0, 64, 84
1, 298605, Control_c, 0, 64, 66
1, 298622, Control_c, 0, 64, 48
1, 298641, Control_c, 0, 64, 17
1, 298659, Control_c, 0, 64, 0
1, 298946, Note_on_c, 0, 64, 52
1, 298986, Note_off_c, 0, 60, 61
1, 298986, Poly_aftertouch_c, 0, 60, 0
1, 298987, Note_off_c, 0, 64, 63
1, 299218, Note_on_c, 0, 62, 51
1, 299323, Note_off_c, 0, 62, 34
1, 299323, Poly_aftertouch_c, 0, 62, 0
1, 299335, Note_on_c, 0, 60, 51
1, 299366, Note_off_c, 0, 60, 60
1, 299366, Poly_aftertouch_c, 0, 60, 0
1, 299490, Note_off_c, 0, 55, 55
1, 299490, Poly_aftertouch_c, 0, 55, 0
1, 299511, Note_on_c, 0, 56, 44
1, 299746, Control_c, 0, 64, 13
1, 299762, Control_c, 0, 64, 41
1, 299778, Note_on_c, 0, 72, 52
1, 299780, Control_c, 0, 64, 62
1, 299800, Control_c, 0, 64, 79
1, 299815, Note_off_c, 0, 56, 62
1, 299819, Control_c, 0, 64, 97
1, 299828, Note_off_c, 0, 72, 62
1, 299836, Control_c, 0, 64, 117
1, 299856, Control_c, 0, 64, 127
1, 299859, Note_off_c, 0, 52, 54
1, 299916, Note_off_c, 0, 48, 42
1, 299987, Control_c, 0, 67, 115
1, 300024, Control_c, 0, 67, 108
1, 300042, Control_c, 0, 67, 103
1, 300063, Control_c, 0, 67, 97
1, 300100, Note_on_c, 0, 60, 62
1, 300112, Note_on_c, 0, 57, 55
1, 300122, Note_on_c, 0, 48, 48
1, 300122, Note_on_c, 0, 52, 52
1, 300137, Control_c, 0, 64, 121
1, 300156, Control_c, 0, 64, 89
1, 300174, Control_c, 0, 64, 52
1, 300192, Control_c, 0, 64, 0
1, 300194, Control_c, 0, 67, 103
1, 300212, Control_c, 0, 67, 109
1, 300230, Control_c, 0, 67, 117
1, 300248, Control_c, 0, 67, 122
1, 300287, Control_c, 0, 67, 126
1, 300654, Note_on_c, 0, 36, 66
1, 300693, Note_off_c, 0, 36, 63
1, 300921, Note_off_c, 0, 52, 55
1, 300939, Note_on_c, 0, 35, 59
1, 300941, Note_off_c, 0, 48, 54
1, 300980, Note_off_c, 0, 35, 62
1, 301055, Note_on_c, 0, 33, 61
1, 301091, Note_off_c, 0, 33, 61
1, 301144, Note_off_c, 0, 57, 52
1, 301223, Note_on_c, 0, 59, 49
1, 301226, Note_on_c, 0, 55, 41
1, 301236, Note_on_c, 0, 52, 39
1, 301406, Note_off_c, 0, 60, 36
1, 301406, Poly_aftertouch_c, 0, 60, 0
1, 301484, Control_c, 0, 64, 17
1, 301487, Note_on_c, 0, 40, 53
1, 301502, Control_c, 0, 64, 46
1, 301521, Control_c, 0, 64, 72
1, 301530, Note_off_c, 0, 40, 62
1, 301539, Control_c, 0, 64, 92
1, 301559, Control_c, 0, 64, 119
1, 301576, Control_c, 0, 64, 127
1, 301577, Note_off_c, 0, 52, 38
1, 301582, Note_off_c, 0, 55, 52
1, 301582, Poly_aftertouch_c, 0, 55, 0
1, 301594, Note_off_c, 0, 59, 61
1, 301671, Control_c, 0, 67, 122
1, 301763, Control_c, 0, 67, 118
1, 301832, Note_on_c, 0, 55, 43
1, 301838, Note_on_c, 0, 62, 52
1, 301847, Note_on_c, 0, 50, 45
1, 301849, Note_on_c, 0, 57, 50
1, 301951, Control_c, 0, 64, 120
1, 301969, Control_c, 0, 64, 104
1, 301988, Control_c, 0, 64, 87
1, 302007, Control_c, 0, 64, 69
1, 302025, Control_c, 0, 64, 53
1, 302045, Control_c, 0, 64, 35
1, 302046, Control_c, 0, 67, 114
1, 302062, Control_c, 0, 64, 0
1, 302397, Note_on_c, 0, 67, 62
1, 302439, Note_off_c, 0, 67, 64
1, 302439, Poly_aftertouch_c, 0, 67, 0
1, 302468, Note_off_c, 0, 62, 59
1, 302468, Poly_aftertouch_c, 0, 62, 0
1, 302673, Note_on_c, 0, 64, 59
1, 302705, Note_off_c, 0, 55, 59
1, 302705, Poly_aftertouch_c, 0, 55, 0
1, 302722, Note_off_c, 0, 64, 57
1, 302788, Note_on_c, 0, 62, 62
1, 302820, Note_off_c, 0, 62, 65
1, 302820, Poly_aftertouch_c, 0, 62, 0
1, 302949, Note_on_c, 0, 53, 53
1, 303204, Control_c, 0, 64, 31
1, 303214, Note_off_c, 0, 53, 57
1, 303222, Note_on_c, 0, 74, 59
1, 303222, Control_c, 0, 64, 50
1, 303241, Control_c, 0, 64, 66
1, 303257, Note_off_c, 0, 74, 68
1, 303261, Control_c, 0, 64, 80
1, 303279, Control_c, 0, 64, 94
1, 303297, Control_c, 0, 64, 110
1, 303303, Note_off_c, 0, 57, 60
1, 303313, Note_off_c, 0, 50, 58
1, 303315, Control_c, 0, 64, 122
1, 303334, Control_c, 0, 64, 127
1, 303539, Control_c, 0, 64, 106
1, 303545, Note_on_c, 0, 62, 51
1, 303559, Control_c, 0, 64, 94
1, 303563, Note_on_c, 0, 57, 43
1, 303596, Control_c, 0, 64, 101
1, 303600, Note_on_c, 0, 41, 51
1, 303615, Control_c, 0, 64, 111
1, 303616, Control_c, 0, 67, 110
1, 303635, Control_c, 0, 64, 126
1, 303636, Control_c, 0, 67, 106
1, 303651, Control_c, 0, 67, 101
1, 303670, Control_c, 0, 67, 95
1, 303689, Control_c, 0, 67, 88
1, 303708, Control_c, 0, 67, 82
1, 303725, Note_off_c, 0, 57, 49
1, 303725, Control_c, 0, 67, 77
1, 303733, Note_off_c, 0, 41, 54
1, 303741, Note_off_c, 0, 62, 57
1, 303741, Poly_aftertouch_c, 0, 62, 0
1, 303744, Control_c, 0, 67, 70
1, 303765, Control_c, 0, 67, 64
1, 303783, Control_c, 0, 67, 59
1, 303820, Control_c, 0, 67, 53
1, 303824, Note_on_c, 0, 60, 66
1, 303839, Control_c, 0, 64, 110
1, 303847, Note_on_c, 0, 55, 54
1, 303855, Note_on_c, 0, 40, 59
1, 303857, Control_c, 0, 64, 90
1, 303858, Control_c, 0, 67, 47
1, 303876, Control_c, 0, 64, 84
1, 303878, Control_c, 0, 67, 42
1, 303896, Control_c, 0, 64, 90
1, 303914, Control_c, 0, 64, 101
1, 303915, Control_c, 0, 67, 35
1, 303931, Note_off_c, 0, 55, 56
1, 303931, Poly_aftertouch_c, 0, 55, 0
1, 303932, Control_c, 0, 64, 111
1, 303953, Control_c, 0, 64, 123
1, 303955, Control_c, 0, 67, 29
1, 303962, Note_off_c, 0, 40, 53
1, 303970, Control_c, 0, 64, 127
1, 304022, Note_off_c, 0, 60, 56
1, 304022, Poly_aftertouch_c, 0, 60, 0
1, 304204, Note_on_c, 0, 65, 63
1, 304233, Note_on_c, 0, 58, 47
1, 304241, Note_on_c, 0, 26, 55
1, 304248, Control_c, 0, 67, 33
1, 304252, Note_on_c, 0, 53, 37
1, 304266, Control_c, 0, 64, 122
1, 304271, Note_on_c, 0, 38, 36
1, 304287, Control_c, 0, 64, 110
1, 304307, Control_c, 0, 64, 93
1, 304324, Control_c, 0, 64, 73
1, 304344, Control_c, 0, 64, 52
1, 304363, Control_c, 0, 64, 10
1, 304381, Control_c, 0, 64, 0
1, 304437, Control_c, 0, 64, 35
1, 304456, Control_c, 0, 64, 59
1, 304474, Control_c, 0, 64, 82
1, 304485, Note_on_c, 0, 61, 15
1, 304492, Control_c, 0, 64, 108
1, 304512, Control_c, 0, 64, 127
1, 304543, Note_off_c, 0, 38, 37
1, 304549, Note_off_c, 0, 53, 47
1, 304569, Note_off_c, 0, 26, 55
1, 304572, Note_off_c, 0, 61, 51
1, 304578, Note_off_c, 0, 58, 55
1, 304589, Note_off_c, 0, 65, 58
1, 304755, Control_c, 0, 67, 37
1, 304792, Control_c, 0, 67, 43
1, 304811, Control_c, 0, 67, 47
1, 304827, Note_on_c, 0, 64, 53
1, 304828, Control_c, 0, 67, 52
1, 304849, Control_c, 0, 67, 58
1, 304859, Note_on_c, 0, 55, 41
1, 304861, Note_on_c, 0, 58, 42
1, 304861, Note_on_c, 0, 40, 37
1, 304868, Note_on_c, 0, 28, 40
1, 304868, Control_c, 0, 64, 111
1, 304869, Control_c, 0, 67, 65
1, 304887, Control_c, 0, 64, 84
1, 304888, Control_c, 0, 67, 70
1, 304907, Control_c, 0, 64, 67
1, 304909, Control_c, 0, 67, 75
1, 304924, Control_c, 0, 64, 71
1, 304942, Control_c, 0, 64, 83
1, 304953, Note_off_c, 0, 55, 52
1, 304953, Poly_aftertouch_c, 0, 55, 0
1, 304956, Note_off_c, 0, 28, 61
1, 304961, Control_c, 0, 64, 99
1, 304966, Note_off_c, 0, 40, 52
1, 304980, Control_c, 0, 64, 127
1, 304991, Note_off_c, 0, 64, 57
1, 305012, Note_off_c, 0, 58, 37
1, 305111, Control_c, 0, 64, 122
1, 305125, Note_on_c, 0, 62, 60
1, 305129, Control_c, 0, 64, 95
1, 305143, Note_on_c, 0, 58, 54
1, 305147, Control_c, 0, 64, 74
1, 305152, Note_on_c, 0, 29, 47
1, 305156, Note_on_c, 0, 53, 41
1, 305156, Note_on_c, 0, 41, 45
1, 305186, Control_c, 0, 64, 83
1, 305205, Control_c, 0, 64, 97
1, 305224, Control_c, 0, 64, 115
1, 305229, Note_off_c, 0, 58, 59
1, 305241, Control_c, 0, 64, 127
1, 305242, Note_off_c, 0, 29, 54
1, 305243, Note_off_c, 0, 41, 50
1, 305246, Note_off_c, 0, 53, 54
1, 305257, Note_off_c, 0, 62, 59
1, 305257, Poly_aftertouch_c, 0, 62, 0
1, 305429, Control_c, 0, 64, 116
1, 305440, Note_on_c, 0, 60, 58
1, 305448, Control_c, 0, 64, 81
1, 305450, Note_on_c, 0, 58, 44
1, 305464, Note_on_c, 0, 43, 44
1, 305466, Control_c, 0, 64, 46
1, 305472, Note_on_c, 0, 52, 40
1, 305473, Note_on_c, 0, 31, 41
1, 305484, Control_c, 0, 64, 0
1, 305504, Control_c, 0, 64, 12
1, 305522, Control_c, 0, 64, 38
1, 305540, Control_c, 0, 64, 57
1, 305561, Control_c, 0, 64, 75
1, 305562, Note_off_c, 0, 31, 62
1, 305563, Note_off_c, 0, 52, 55
1, 305571, Note_off_c, 0, 43, 60
1, 305574, Note_off_c, 0, 58, 50
1, 305577, Control_c, 0, 64, 96
1, 305582, Note_off_c, 0, 60, 58
1, 305582, Poly_aftertouch_c, 0, 60, 0
1, 305597, Control_c, 0, 64, 127
1, 305743, Note_on_c, 0, 58, 55
1, 305744, Control_c, 0, 64, 113
1, 305758, Note_on_c, 0, 53, 42
1, 305764, Control_c, 0, 64, 78
1, 305772, Note_on_c, 0, 50, 44
1, 305778, Note_on_c, 0, 34, 46
1, 305783, Control_c, 0, 64, 45
1, 305795, Note_on_c, 0, 46, 37
1, 305801, Control_c, 0, 64, 26
1, 305820, Control_c, 0, 64, 36
1, 305841, Control_c, 0, 64, 53
1, 305858, Control_c, 0, 64, 72
1, 305877, Control_c, 0, 64, 91
1, 305896, Control_c, 0, 64, 115
1, 305898, Note_off_c, 0, 53, 50
1, 305898, Note_off_c, 0, 50, 55
1, 305907, Note_off_c, 0, 46, 57
1, 305913, Control_c, 0, 64, 127
1, 305914, Note_off_c, 0, 58, 58
1, 305926, Note_off_c, 0, 34, 57
1, 306138, Note_on_c, 0, 55, 48
1, 306148, Note_on_c, 0, 52, 38
1, 306176, Control_c, 0, 64, 116
1, 306189, Note_on_c, 0, 48, 38
1, 306194, Note_on_c, 0, 36, 41
1, 306195, Control_c, 0, 64, 106
1, 306213, Control_c, 0, 64, 95
1, 306233, Control_c, 0, 64, 84
1, 306251, Control_c, 0, 64, 73
1, 306269, Control_c, 0, 64, 63
1, 306288, Control_c, 0, 64, 52
1, 306307, Control_c, 0, 64, 30
1, 306327, Control_c, 0, 64, 0
1, 306458, Control_c, 0, 64, 16
1, 306476, Control_c, 0, 64, 39
1, 306494, Control_c, 0, 64, 58
1, 306503, Note_off_c, 0, 48, 52
1, 306513, Control_c, 0, 64, 75
1, 306532, Control_c, 0, 64, 92
1, 306550, Control_c, 0, 64, 110
1, 306567, Note_off_c, 0, 55, 52
1, 306567, Poly_aftertouch_c, 0, 55, 0
1, 306568, Control_c, 0, 64, 127
1, 306935, Note_on_c, 0, 60, 40
1, 306942, Control_c, 0, 67, 71
1, 306981, Control_c, 0, 64, 121
1, 307000, Control_c, 0, 64, 114
1, 307018, Control_c, 0, 64, 100
1, 307037, Control_c, 0, 64, 79
1, 307055, Control_c, 0, 64, 51
1, 307074, Control_c, 0, 64, 0
1, 307168, Control_c, 0, 64, 16
1, 307186, Control_c, 0, 64, 60
1, 307197, Note_off_c, 0, 52, 58
1, 307205, Control_c, 0, 64, 87
1, 307224, Control_c, 0, 64, 119
1, 307242, Control_c, 0, 64, 127
1, 307250, Note_off_c, 0, 36, 61
1, 307272, Note_off_c, 0, 60, 61
1, 307272, Poly_aftertouch_c, 0, 60, 0
1, 307336, Control_c, 0, 67, 67
1, 307949, Note_on_c, 0, 86, 51
1, 307983, Note_on_c, 0, 77, 37
1, 307996, Note_on_c, 0, 81, 27
1, 308069, Note_off_c, 0, 81, 43
1, 308165, Note_off_c, 0, 86, 53
1, 308221, Note_off_c, 0, 77, 37
1, 308221, Poly_aftertouch_c, 0, 77, 0
1, 308317, Note_on_c, 0, 84, 69
1, 308358, Note_on_c, 0, 76, 40
1, 308382, Control_c, 0, 67, 62
1, 308385, Note_on_c, 0, 79, 27
1, 308435, Note_off_c, 0, 79, 43
1, 308435, Poly_aftertouch_c, 0, 79, 0
1, 308459, Control_c, 0, 67, 58
1, 308557, Note_off_c, 0, 84, 57
1, 308559, Note_off_c, 0, 76, 34
1, 308569, Control_c, 0, 67, 54
1, 308780, Note_on_c, 0, 89, 61
1, 308794, Control_c, 0, 67, 50
1, 308817, Note_on_c, 0, 82, 42
1, 308832, Note_on_c, 0, 77, 35
1, 308844, Note_on_c, 0, 74, 31
1, 309136, Note_off_c, 0, 77, 34
1, 309136, Poly_aftertouch_c, 0, 77, 0
1, 309174, Note_off_c, 0, 82, 34
1, 309174, Poly_aftertouch_c, 0, 82, 0
1, 309224, Note_off_c, 0, 89, 50
1, 309224, Poly_aftertouch_c, 0, 89, 0
1, 309228, Note_on_c, 0, 62, 36
1, 309310, Note_off_c, 0, 74, 32
1, 309412, Control_c, 0, 67, 54
1, 309526, Note_on_c, 0, 88, 56
1, 309557, Note_on_c, 0, 64, 40
1, 309559, Note_on_c, 0, 79, 37
1, 309574, Note_on_c, 0, 82, 36
1, 309598, Control_c, 0, 67, 59
1, 309635, Control_c, 0, 67, 63
1, 309637, Note_off_c, 0, 62, 32
1, 309637, Poly_aftertouch_c, 0, 62, 0
1, 309638, Note_off_c, 0, 79, 50
1, 309638, Poly_aftertouch_c, 0, 79, 0
1, 309654, Note_off_c, 0, 82, 40
1, 309654, Poly_aftertouch_c, 0, 82, 0
1, 309671, Note_off_c, 0, 88, 57
1, 309692, Control_c, 0, 67, 67
1, 309748, Control_c, 0, 67, 71
1, 309831, Note_off_c, 0, 64, 54
1, 309854, Note_on_c, 0, 86, 64
1, 309866, Note_on_c, 0, 65, 43
1, 309876, Note_on_c, 0, 82, 50
1, 309882, Note_on_c, 0, 77, 53
1, 309927, Note_off_c, 0, 82, 62
1, 309927, Poly_aftertouch_c, 0, 82, 0
1, 309968, Note_off_c, 0, 77, 53
1, 309968, Poly_aftertouch_c, 0, 77, 0
1, 309990, Note_off_c, 0, 65, 54
1, 309997, Note_off_c, 0, 86, 56
1, 310046, Control_c, 0, 67, 75
1, 310221, Note_on_c, 0, 84, 53
1, 310238, Note_on_c, 0, 82, 51
1, 310250, Note_on_c, 0, 76, 43
1, 310271, Note_on_c, 0, 67, 32
1, 310271, Control_c, 0, 64, 117
1, 310285, Note_on_c, 0, 60, 38
1, 310289, Control_c, 0, 64, 97
1, 310308, Control_c, 0, 64, 73
1, 310328, Control_c, 0, 64, 53
1, 310346, Control_c, 0, 64, 50
1, 310364, Control_c, 0, 64, 58
1, 310384, Control_c, 0, 64, 66
1, 310402, Control_c, 0, 64, 75
1, 310406, Note_off_c, 0, 76, 49
1, 310422, Control_c, 0, 64, 86
1, 310436, Note_off_c, 0, 84, 57
1, 310439, Control_c, 0, 64, 102
1, 310442, Note_off_c, 0, 82, 36
1, 310442, Poly_aftertouch_c, 0, 82, 0
1, 310458, Control_c, 0, 64, 122
1, 310477, Control_c, 0, 64, 127
1, 310511, Note_off_c, 0, 67, 38
1, 310511, Poly_aftertouch_c, 0, 67, 0
1, 310642, Note_on_c, 0, 82, 49
1, 310644, Control_c, 0, 67, 81
1, 310662, Note_on_c, 0, 77, 45
1, 310676, Note_on_c, 0, 74, 38
1, 310682, Control_c, 0, 67, 85
1, 310698, Note_on_c, 0, 70, 37
1, 310700, Control_c, 0, 64, 120
1, 310720, Control_c, 0, 64, 99
1, 310721, Control_c, 0, 67, 93
1, 310739, Control_c, 0, 64, 76
1, 310743, Control_c, 0, 67, 97
1, 310759, Control_c, 0, 64, 60
1, 310759, Control_c, 0, 67, 102
1, 310795, Control_c, 0, 64, 67
1, 310796, Control_c, 0, 67, 106
1, 310814, Control_c, 0, 64, 74
1, 310832, Control_c, 0, 64, 84
1, 310851, Control_c, 0, 64, 99
1, 310852, Control_c, 0, 67, 111
1, 310860, Note_off_c, 0, 77, 33
1, 310860, Poly_aftertouch_c, 0, 77, 0
1, 310870, Control_c, 0, 64, 119
1, 310888, Control_c, 0, 64, 127
1, 310905, Note_off_c, 0, 74, 41
1, 310930, Note_off_c, 0, 70, 43
1, 310964, Control_c, 0, 67, 115
1, 310965, Note_off_c, 0, 82, 36
1, 310965, Poly_aftertouch_c, 0, 82, 0
1, 311169, Control_c, 0, 67, 119
1, 311236, Note_on_c, 0, 79, 41
1, 311239, Note_on_c, 0, 76, 34
1, 311267, Note_on_c, 0, 72, 36
1, 311281, Control_c, 0, 64, 122
1, 311300, Control_c, 0, 64, 118
1, 311318, Control_c, 0, 64, 113
1, 311320, Control_c, 0, 67, 123
1, 311337, Control_c, 0, 64, 107
1, 311357, Control_c, 0, 64, 100
1, 311374, Control_c, 0, 64, 94
1, 311394, Control_c, 0, 64, 86
1, 311412, Control_c, 0, 64, 77
1, 311431, Control_c, 0, 64, 67
1, 311449, Control_c, 0, 64, 58
1, 311468, Control_c, 0, 64, 48
1, 311486, Control_c, 0, 64, 36
1, 311505, Control_c, 0, 64, 27
1, 311562, Control_c, 0, 64, 36
1, 311580, Control_c, 0, 64, 41
1, 311599, Control_c, 0, 64, 47
1, 311618, Control_c, 0, 64, 55
1, 311636, Control_c, 0, 64, 64
1, 311656, Control_c, 0, 64, 72
1, 311673, Control_c, 0, 64, 79
1, 311693, Control_c, 0, 64, 84
1, 311712, Control_c, 0, 64, 90
1, 311730, Control_c, 0, 64, 96
1, 311749, Control_c, 0, 64, 103
1, 311767, Control_c, 0, 64, 112
1, 311786, Control_c, 0, 64, 121
1, 311804, Control_c, 0, 64, 127
1, 311896, Note_off_c, 0, 79, 36
1, 311896, Poly_aftertouch_c, 0, 79, 0
1, 312141, Note_off_c, 0, 72, 38
1, 312289, Note_on_c, 0, 84, 40
1, 312386, Note_on_c, 0, 70, 30
1, 312597, Note_off_c, 0, 84, 46
1, 312680, Note_off_c, 0, 76, 42
1, 312689, Note_off_c, 0, 70, 43
1, 312905, Poly_aftertouch_c, 0, 60, 24
1, 312971, Note_off_c, 0, 60, 29
1, 312971, Poly_aftertouch_c, 0, 60, 0
1, 313899, Control_c, 0, 67, 127
1, 314016, Note_on_c, 0, 69, 40
1, 314046, Note_on_c, 0, 65, 31
1, 314093, Note_on_c, 0, 41, 29
1, 314236, Control_c, 0, 64, 121
1, 314255, Control_c, 0, 64, 113
1, 314272, Control_c, 0, 64, 102
1, 314292, Control_c, 0, 64, 89
1, 314311, Control_c, 0, 64, 74
1, 314329, Control_c, 0, 64, 60
1, 314347, Control_c, 0, 64, 50
1, 314367, Control_c, 0, 64, 44
1, 314404, Control_c, 0, 64, 46
1, 314422, Control_c, 0, 64, 50
1, 314442, Control_c, 0, 64, 54
1, 314459, Control_c, 0, 64, 60
1, 314479, Control_c, 0, 64, 65
1, 314497, Control_c, 0, 64, 69
1, 314516, Control_c, 0, 64, 73
1, 314535, Control_c, 0, 64, 76
1, 314553, Control_c, 0, 64, 82
1, 314571, Control_c, 0, 64, 89
1, 314579, Note_on_c, 0, 48, 26
1, 314591, Control_c, 0, 64, 95
1, 314610, Control_c, 0, 64, 102
1, 314628, Control_c, 0, 64, 108
1, 314647, Control_c, 0, 64, 113
1, 314665, Control_c, 0, 64, 117
1, 314684, Control_c, 0, 64, 122
1, 314703, Control_c, 0, 64, 126
1, 314810, Note_off_c, 0, 41, 36
1, 314814, Control_c, 0, 67, 123
1, 314982, Note_on_c, 0, 60, 38
1, 315036, Note_off_c, 0, 48, 37
1, 315207, Control_c, 0, 67, 119
1, 315309, Note_off_c, 0, 60, 52
1, 315309, Poly_aftertouch_c, 0, 60, 0
1, 315320, Control_c, 0, 67, 115
1, 315335, Note_on_c, 0, 48, 38
1, 315412, Control_c, 0, 67, 111
1, 315507, Control_c, 0, 67, 107
1, 315563, Control_c, 0, 67, 103
1, 315572, Note_off_c, 0, 48, 41
1, 315600, Control_c, 0, 67, 99
1, 315625, Note_on_c, 0, 60, 43
1, 315657, Control_c, 0, 67, 94
1, 315694, Control_c, 0, 67, 89
1, 315732, Control_c, 0, 67, 83
1, 315769, Control_c, 0, 67, 76
1, 315806, Control_c, 0, 67, 69
1, 315842, Note_off_c, 0, 65, 40
1, 315842, Control_c, 0, 67, 63
1, 315845, Note_off_c, 0, 60, 49
1, 315845, Poly_aftertouch_c, 0, 60, 0
1, 315857, Note_on_c, 0, 48, 41
1, 315881, Control_c, 0, 67, 56
1, 315899, Control_c, 0, 67, 52
1, 315919, Control_c, 0, 67, 48
1, 315937, Control_c, 0, 67, 44
1, 315955, Control_c, 0, 67, 40
1, 315976, Control_c, 0, 67, 36
1, 315993, Control_c, 0, 67, 31
1, 316030, Control_c, 0, 67, 25
1, 316052, Note_off_c, 0, 48, 33
1, 316068, Control_c, 0, 67, 17
1, 316086, Control_c, 0, 67, 13
1, 316150, Note_on_c, 0, 67, 49
1, 316166, Note_on_c, 0, 65, 42
1, 316219, Note_on_c, 0, 41, 32
1, 316293, Control_c, 0, 64, 121
1, 316311, Control_c, 0, 64, 103
1, 316331, Control_c, 0, 64, 82
1, 316350, Control_c, 0, 64, 66
1, 316353, Control_c, 0, 67, 0
1, 316367, Control_c, 0, 64, 65
1, 316386, Control_c, 0, 64, 70
1, 316405, Control_c, 0, 64, 76
1, 316411, Note_off_c, 0, 69, 50
1, 316411, Poly_aftertouch_c, 0, 69, 0
1, 316423, Control_c, 0, 64, 82
1, 316443, Control_c, 0, 64, 93
1, 316461, Control_c, 0, 64, 110
1, 316475, Note_on_c, 0, 48, 42
1, 316479, Control_c, 0, 64, 127
1, 316482, Note_off_c, 0, 41, 40
1, 316677, Note_off_c, 0, 48, 42
1, 316730, Note_on_c, 0, 59, 52
1, 316913, Note_off_c, 0, 59, 57
1, 316934, Note_on_c, 0, 48, 42
1, 317162, Note_on_c, 0, 64, 60
1, 317175, Note_on_c, 0, 58, 51
1, 317202, Note_off_c, 0, 48, 38
1, 317359, Note_off_c, 0, 64, 61
1, 317364, Note_off_c, 0, 58, 57
1, 317372, Note_on_c, 0, 48, 49
1, 317396, Note_off_c, 0, 65, 39
1, 317402, Note_off_c, 0, 67, 59
1, 317402, Poly_aftertouch_c, 0, 67, 0
1, 317678, Note_on_c, 0, 72, 56
1, 317688, Note_on_c, 0, 67, 47
1, 317710, Note_on_c, 0, 60, 40
1, 317711, Note_off_c, 0, 48, 38
1, 317734, Note_on_c, 0, 41, 40
1, 317788, Control_c, 0, 64, 113
1, 317808, Control_c, 0, 64, 95
1, 317825, Control_c, 0, 64, 73
1, 317844, Control_c, 0, 64, 56
1, 317863, Control_c, 0, 64, 45
1, 317900, Control_c, 0, 64, 53
1, 317919, Control_c, 0, 64, 65
1, 317938, Control_c, 0, 64, 78
1, 317956, Control_c, 0, 64, 93
1, 317975, Control_c, 0, 64, 114
1, 317994, Control_c, 0, 64, 127
1, 318037, Note_on_c, 0, 48, 42
1, 318124, Note_off_c, 0, 41, 39
1, 318343, Note_on_c, 0, 57, 37
1, 318365, Note_off_c, 0, 48, 42
1, 318578, Note_on_c, 0, 48, 36
1, 318583, Note_off_c, 0, 57, 37
1, 318663, Poly_aftertouch_c, 0, 46, 0
1, 318801, Note_on_c, 0, 65, 46
1, 318819, Note_off_c, 0, 48, 42
1, 318830, Note_on_c, 0, 57, 35
1, 319004, Note_on_c, 0, 48, 40
1, 319023, Note_off_c, 0, 57, 33
1, 319253, Note_on_c, 0, 41, 48
1, 319261, Note_off_c, 0, 48, 36
1, 319302, Control_c, 0, 64, 122
1, 319322, Control_c, 0, 64, 99
1, 319341, Control_c, 0, 64, 71
1, 319359, Control_c, 0, 64, 44
1, 319377, Control_c, 0, 64, 17
1, 319396, Control_c, 0, 64, 26
1, 319415, Control_c, 0, 64, 43
1, 319426, Note_off_c, 0, 67, 53
1, 319426, Poly_aftertouch_c, 0, 67, 0
1, 319432, Control_c, 0, 64, 62
1, 319452, Control_c, 0, 64, 82
1, 319471, Control_c, 0, 64, 106
1, 319490, Control_c, 0, 64, 127
1, 319518, Note_on_c, 0, 48, 38
1, 319579, Note_off_c, 0, 72, 57
1, 319825, Note_on_c, 0, 72, 53
1, 319869, Note_off_c, 0, 48, 38
1, 319870, Note_on_c, 0, 56, 34
1, 319995, Note_off_c, 0, 65, 57
1, 320036, Poly_aftertouch_c, 0, 43, 0
1, 320046, Poly_aftertouch_c, 0, 41, 24
1, 320069, Note_off_c, 0, 56, 36
1, 320079, Note_on_c, 0, 48, 39
1, 320133, Note_off_c, 0, 41, 33
1, 320133, Poly_aftertouch_c, 0, 41, 0
1, 320258, Note_on_c, 0, 73, 72
1, 320291, Note_off_c, 0, 48, 41
1, 320305, Note_on_c, 0, 56, 47
1, 320430, Note_off_c, 0, 60, 41
1, 320430, Poly_aftertouch_c, 0, 60, 0
1, 320434, Note_off_c, 0, 56, 54
1, 320453, Note_off_c, 0, 72, 32
1, 320465, Note_on_c, 0, 48, 42
1, 320587, Note_on_c, 0, 60, 57
1, 320600, Note_off_c, 0, 73, 35
1, 320600, Poly_aftertouch_c, 0, 73, 0
1, 320729, Note_on_c, 0, 68, 55
1, 320771, Note_off_c, 0, 48, 29
1, 320807, Note_on_c, 0, 39, 42
1, 320930, Control_c, 0, 64, 119
1, 320948, Control_c, 0, 64, 104
1, 320968, Control_c, 0, 64, 85
1, 320983, Note_on_c, 0, 75, 73
1, 320986, Control_c, 0, 64, 66
1, 321005, Control_c, 0, 64, 52
1, 321024, Control_c, 0, 64, 37
1, 321041, Control_c, 0, 64, 19
1, 321061, Control_c, 0, 64, 15
1, 321079, Control_c, 0, 64, 29
1, 321098, Control_c, 0, 64, 46
1, 321117, Control_c, 0, 64, 67
1, 321135, Control_c, 0, 64, 87
1, 321154, Control_c, 0, 64, 111
1, 321172, Control_c, 0, 64, 127
1, 321345, Note_on_c, 0, 48, 36
1, 321378, Note_off_c, 0, 39, 36
1, 321504, Poly_aftertouch_c, 0, 60, 24
1, 321614, Note_off_c, 0, 48, 39
1, 321620, Note_on_c, 0, 56, 42
1, 321675, Note_off_c, 0, 60, 22
1, 321675, Poly_aftertouch_c, 0, 60, 0
1, 321810, Note_off_c, 0, 56, 56
1, 321832, Note_on_c, 0, 48, 43
1, 321997, Note_off_c, 0, 75, 56
1, 322061, Note_on_c, 0, 56, 54
1, 322071, Note_off_c, 0, 68, 55
1, 322073, Note_off_c, 0, 48, 51
1, 322207, Note_off_c, 0, 56, 59
1, 322258, Note_on_c, 0, 48, 45
1, 322331, Note_on_c, 0, 58, 60
1, 322444, Note_on_c, 0, 68, 58
1, 322466, Note_off_c, 0, 58, 60
1, 322475, Note_off_c, 0, 48, 34
1, 322566, Note_on_c, 0, 39, 52
1, 322694, Note_on_c, 0, 75, 76
1, 322706, Control_c, 0, 64, 121
1, 322724, Control_c, 0, 64, 99
1, 322743, Control_c, 0, 64, 77
1, 322762, Control_c, 0, 64, 63
1, 322799, Control_c, 0, 64, 72
1, 322818, Control_c, 0, 64, 83
1, 322837, Control_c, 0, 64, 100
1, 322855, Control_c, 0, 64, 126
1, 322962, Note_on_c, 0, 46, 55
1, 323184, Note_off_c, 0, 39, 56
1, 323186, Note_on_c, 0, 51, 57
1, 323368, Note_on_c, 0, 39, 58
1, 323381, Note_off_c, 0, 51, 57
1, 323525, Note_off_c, 0, 46, 26
1, 323582, Note_on_c, 0, 67, 72
1, 323622, Note_on_c, 0, 49, 59
1, 323656, Note_off_c, 0, 39, 49
1, 323702, Note_off_c, 0, 68, 56
1, 323800, Note_off_c, 0, 49, 54
1, 323802, Note_on_c, 0, 39, 57
1, 323939, Note_off_c, 0, 75, 38
1, 323962, Note_off_c, 0, 67, 59
1, 323962, Poly_aftertouch_c, 0, 67, 0
1, 324021, Note_on_c, 0, 48, 55
1, 324100, Note_off_c, 0, 39, 37
1, 324127, Control_c, 0, 64, 122
1, 324145, Control_c, 0, 64, 118
1, 324151, Note_on_c, 0, 70, 66
1, 324152, Note_on_c, 0, 75, 65
1, 324161, Note_on_c, 0, 63, 60
1, 324162, Control_c, 0, 64, 112
1, 324183, Control_c, 0, 64, 107
1, 324202, Control_c, 0, 64, 103
1, 324221, Control_c, 0, 64, 98
1, 324240, Control_c, 0, 64, 92
1, 324258, Control_c, 0, 64, 83
1, 324278, Control_c, 0, 64, 71
1, 324295, Control_c, 0, 64, 59
1, 324314, Control_c, 0, 64, 45
1, 324333, Control_c, 0, 64, 16
1, 324351, Control_c, 0, 64, 0
1, 324423, Note_on_c, 0, 39, 45
1, 324432, Note_off_c, 0, 48, 53
1, 324463, Control_c, 0, 64, 12
1, 324483, Control_c, 0, 64, 31
1, 324501, Control_c, 0, 64, 44
1, 324519, Control_c, 0, 64, 55
1, 324538, Control_c, 0, 64, 65
1, 324556, Control_c, 0, 64, 71
1, 324576, Control_c, 0, 64, 74
1, 324631, Control_c, 0, 64, 78
1, 324651, Control_c, 0, 64, 81
1, 324669, Control_c, 0, 64, 86
1, 324679, Note_on_c, 0, 48, 38
1, 324687, Control_c, 0, 64, 92
1, 324707, Control_c, 0, 64, 97
1, 324725, Control_c, 0, 64, 103
1, 324737, Note_off_c, 0, 39, 36
1, 324743, Control_c, 0, 64, 108
1, 324763, Control_c, 0, 64, 114
1, 324781, Control_c, 0, 64, 121
1, 324800, Control_c, 0, 64, 127
1, 324907, Note_on_c, 0, 39, 47
1, 324937, Note_off_c, 0, 48, 39
1, 325150, Note_on_c, 0, 68, 52
1, 325160, Note_on_c, 0, 48, 30
1, 325163, Note_off_c, 0, 39, 38
1, 325403, Note_off_c, 0, 48, 39
1, 325411, Note_on_c, 0, 39, 32
1, 325428, Note_off_c, 0, 68, 49
1, 325428, Note_off_c, 0, 63, 55
1, 325535, Note_off_c, 0, 70, 38
1, 325697, Control_c, 0, 64, 123
1, 325716, Note_on_c, 0, 69, 48
1, 325716, Control_c, 0, 64, 117
1, 325734, Note_on_c, 0, 63, 44
1, 325734, Control_c, 0, 64, 112
1, 325752, Control_c, 0, 64, 108
1, 325754, Note_on_c, 0, 47, 34
1, 325772, Control_c, 0, 64, 103
1, 325792, Control_c, 0, 64, 93
1, 325811, Control_c, 0, 64, 78
1, 325820, Note_off_c, 0, 39, 33
1, 325828, Control_c, 0, 64, 60
1, 325848, Control_c, 0, 64, 40
1, 325866, Control_c, 0, 64, 0
1, 325923, Control_c, 0, 64, 19
1, 325940, Control_c, 0, 64, 34
1, 325959, Control_c, 0, 64, 50
1, 325978, Control_c, 0, 64, 64
1, 325997, Control_c, 0, 64, 75
1, 326015, Control_c, 0, 64, 83
1, 326034, Control_c, 0, 64, 94
1, 326053, Control_c, 0, 64, 107
1, 326060, Note_on_c, 0, 39, 31
1, 326072, Control_c, 0, 64, 117
1, 326090, Control_c, 0, 64, 125
1, 326116, Note_off_c, 0, 47, 39
1, 326125, Note_off_c, 0, 75, 63
1, 326291, Note_on_c, 0, 75, 61
1, 326350, Note_on_c, 0, 47, 28
1, 326376, Note_off_c, 0, 39, 39
1, 326468, Note_off_c, 0, 63, 36
1, 326551, Note_on_c, 0, 39, 43
1, 326565, Note_off_c, 0, 47, 41
1, 326727, Note_on_c, 0, 77, 75
1, 326774, Note_off_c, 0, 39, 50
1, 326785, Note_on_c, 0, 47, 37
1, 326912, Note_off_c, 0, 69, 59
1, 326912, Poly_aftertouch_c, 0, 69, 0
1, 326928, Note_off_c, 0, 47, 50
1, 326935, Note_off_c, 0, 77, 52
1, 326935, Poly_aftertouch_c, 0, 77, 0
1, 326975, Note_on_c, 0, 39, 45
1, 326986, Note_off_c, 0, 75, 60
1, 327008, Note_on_c, 0, 63, 52
1, 327093, Note_on_c, 0, 70, 61
1, 327157, Note_off_c, 0, 63, 57
1, 327157, Note_on_c, 0, 75, 60
1, 327260, Note_on_c, 0, 46, 55
1, 327264, Poly_aftertouch_c, 0, 39, 20
1, 327276, Note_off_c, 0, 39, 31
1, 327276, Poly_aftertouch_c, 0, 39, 0
1, 327383, Note_on_c, 0, 79, 82
1, 327401, Control_c, 0, 64, 114
1, 327417, Control_c, 0, 64, 102
1, 327437, Control_c, 0, 64, 89
1, 327456, Control_c, 0, 64, 75
1, 327474, Control_c, 0, 64, 61
1, 327493, Control_c, 0, 64, 51
1, 327511, Control_c, 0, 64, 46
1, 327531, Control_c, 0, 64, 51
1, 327549, Control_c, 0, 64, 61
1, 327568, Control_c, 0, 64, 70
1, 327586, Control_c, 0, 64, 80
1, 327606, Control_c, 0, 64, 92
1, 327624, Control_c, 0, 64, 106
1, 327642, Control_c, 0, 64, 123
1, 327661, Control_c, 0, 64, 127
1, 327685, Note_on_c, 0, 39, 46
1, 327757, Note_off_c, 0, 46, 50
1, 327929, Note_on_c, 0, 46, 57
1, 328000, Note_off_c, 0, 39, 37
1, 328000, Poly_aftertouch_c, 0, 39, 0
1, 328163, Note_on_c, 0, 39, 60
1, 328194, Note_off_c, 0, 46, 51
1, 328385, Note_on_c, 0, 46, 56
1, 328459, Note_off_c, 0, 39, 37
1, 328459, Poly_aftertouch_c, 0, 39, 0
1, 328484, Note_off_c, 0, 70, 46
1, 328522, Note_off_c, 0, 75, 61
1, 328604, Note_on_c, 0, 39, 64
1, 328612, Note_off_c, 0, 46, 60
1, 328615, Note_off_c, 0, 79, 55
1, 328615, Poly_aftertouch_c, 0, 79, 0
1, 328858, Note_on_c, 0, 81, 86
1, 328871, Note_on_c, 0, 77, 75
1, 328879, Note_on_c, 0, 72, 66
1, 328886, Note_on_c, 0, 69, 66
1, 328890, Note_on_c, 0, 51, 62
1, 328894, Note_off_c, 0, 39, 56
1, 328894, Poly_aftertouch_c, 0, 39, 0
1, 328951, Control_c, 0, 64, 107
1, 328969, Control_c, 0, 64, 80
1, 328989, Control_c, 0, 64, 53
1, 329007, Control_c, 0, 64, 0
1, 329083, Control_c, 0, 64, 38
1, 329100, Control_c, 0, 64, 66
1, 329119, Control_c, 0, 64, 90
1, 329137, Control_c, 0, 64, 122
1, 329143, Note_on_c, 0, 36, 60
1, 329157, Control_c, 0, 64, 127
1, 329193, Note_off_c, 0, 51, 38
1, 329379, Note_off_c, 0, 36, 37
1, 329385, Note_on_c, 0, 51, 63
1, 329624, Note_on_c, 0, 36, 66
1, 329650, Note_off_c, 0, 51, 52
1, 329821, Note_off_c, 0, 36, 48
1, 329852, Note_on_c, 0, 51, 66
1, 329889, Note_off_c, 0, 69, 53
1, 329889, Poly_aftertouch_c, 0, 69, 0
1, 329941, Note_off_c, 0, 72, 60
1, 329985, Note_off_c, 0, 81, 57
1, 329996, Note_off_c, 0, 77, 56
1, 329996, Poly_aftertouch_c, 0, 77, 0
1, 330070, Note_on_c, 0, 36, 67
1, 330139, Note_off_c, 0, 51, 36
1, 330327, Note_on_c, 0, 82, 89
1, 330336, Note_on_c, 0, 77, 75
1, 330342, Note_on_c, 0, 70, 84
1, 330343, Note_off_c, 0, 36, 33
1, 330347, Note_on_c, 0, 74, 74
1, 330368, Note_on_c, 0, 50, 72
1, 330372, Control_c, 0, 64, 96
1, 330391, Control_c, 0, 64, 64
1, 330410, Control_c, 0, 64, 34
1, 330429, Control_c, 0, 64, 0
1, 330466, Control_c, 0, 64, 36
1, 330485, Control_c, 0, 64, 65
1, 330503, Control_c, 0, 64, 96
1, 330504, Note_off_c, 0, 50, 57
1, 330523, Control_c, 0, 64, 127
1, 330606, Note_on_c, 0, 34, 73
1, 330690, Poly_aftertouch_c, 0, 43, 127
1, 330765, Note_off_c, 0, 34, 60
1, 330842, Note_on_c, 0, 50, 72
1, 330963, Note_off_c, 0, 50, 56
1, 331025, Note_off_c, 0, 70, 65
1, 331047, Note_off_c, 0, 74, 59
1, 331053, Note_on_c, 0, 34, 78
1, 331074, Poly_aftertouch_c, 0, 43, 0
1, 331094, Note_off_c, 0, 82, 60
1, 331094, Poly_aftertouch_c, 0, 82, 0
1, 331106, Note_off_c, 0, 77, 55
1, 331106, Poly_aftertouch_c, 0, 77, 0
1, 331287, Control_c, 0, 64, 115
1, 331291, Note_on_c, 0, 84, 95
1, 331299, Note_on_c, 0, 77, 80
1, 331304, Note_on_c, 0, 72, 85
1, 331304, Note_on_c, 0, 75, 80
1, 331306, Control_c, 0, 64, 77
1, 331320, Note_on_c, 0, 48, 74
1, 331324, Control_c, 0, 64, 42
1, 331333, Note_off_c, 0, 34, 38
1, 331344, Control_c, 0, 64, 0
1, 331363, Control_c, 0, 64, 11
1, 331382, Control_c, 0, 64, 43
1, 331401, Control_c, 0, 64, 73
1, 331420, Control_c, 0, 64, 114
1, 331439, Control_c, 0, 64, 127
1, 331488, Note_off_c, 0, 48, 56
1, 331547, Note_on_c, 0, 33, 78
1, 331706, Note_off_c, 0, 33, 54
1, 331779, Note_on_c, 0, 48, 81
1, 331926, Note_off_c, 0, 72, 47
1, 331949, Note_off_c, 0, 48, 55
1, 331966, Note_off_c, 0, 77, 60
1, 331966, Poly_aftertouch_c, 0, 77, 0
1, 331993, Note_on_c, 0, 33, 79
1, 332008, Note_off_c, 0, 75, 61
1, 332010, Note_off_c, 0, 84, 61
1, 332211, Note_off_c, 0, 33, 58
1, 332258, Note_on_c, 0, 86, 97
1, 332262, Note_on_c, 0, 82, 90
1, 332264, Note_on_c, 0, 46, 79
1, 332268, Note_on_c, 0, 74, 92
1, 332270, Note_on_c, 0, 77, 81
1, 332278, Control_c, 0, 64, 103
1, 332298, Control_c, 0, 64, 64
1, 332317, Control_c, 0, 64, 0
1, 332448, Control_c, 0, 64, 37
1, 332466, Control_c, 0, 64, 83
1, 332485, Control_c, 0, 64, 127
1, 332498, Note_on_c, 0, 32, 81
1, 332536, Note_off_c, 0, 46, 59
1, 332737, Note_on_c, 0, 46, 80
1, 332738, Note_off_c, 0, 32, 49
1, 332814, Note_off_c, 0, 74, 59
1, 332865, Note_off_c, 0, 77, 60
1, 332865, Poly_aftertouch_c, 0, 77, 0
1, 332880, Note_off_c, 0, 86, 61
1, 332909, Note_on_c, 0, 32, 77
1, 332920, Note_off_c, 0, 46, 61
1, 332924, Note_off_c, 0, 82, 62
1, 332924, Poly_aftertouch_c, 0, 82, 0
1, 332983, Note_off_c, 0, 32, 59
1, 333065, Control_c, 0, 64, 115
1, 333076, Note_on_c, 0, 31, 79
1, 333084, Control_c, 0, 64, 80
1, 333102, Control_c, 0, 64, 28
1, 333121, Control_c, 0, 64, 0
1, 333266, Note_off_c, 0, 31, 63
1, 333294, Note_on_c, 0, 46, 84
1, 333308, Note_on_c, 0, 87, 101
1, 333308, Control_c, 0, 64, 81
1, 333316, Note_on_c, 0, 75, 96
1, 333318, Note_on_c, 0, 82, 85
1, 333326, Control_c, 0, 64, 127
1, 333345, Note_off_c, 0, 46, 60
1, 333383, Poly_aftertouch_c, 0, 38, 0
1, 333477, Note_off_c, 0, 82, 56
1, 333477, Poly_aftertouch_c, 0, 82, 0
1, 333487, Note_off_c, 0, 75, 60
1, 333608, Note_on_c, 0, 43, 57
1, 333695, Note_off_c, 0, 43, 63
1, 333733, Note_on_c, 0, 58, 75
1, 333782, Note_off_c, 0, 58, 57
1, 333847, Note_on_c, 0, 45, 78
1, 333867, Note_on_c, 0, 84, 81
1, 333869, Control_c, 0, 64, 76
1, 333872, Note_on_c, 0, 75, 90
1, 333875, Note_on_c, 0, 77, 80
1, 333887, Control_c, 0, 64, 0
1, 333918, Note_off_c, 0, 45, 63
1, 333943, Control_c, 0, 64, 56
1, 333956, Note_on_c, 0, 60, 84
1, 333963, Control_c, 0, 64, 95
1, 333982, Control_c, 0, 64, 127
1, 334053, Note_off_c, 0, 60, 58
1, 334053, Poly_aftertouch_c, 0, 60, 0
1, 334110, Note_off_c, 0, 84, 60
1, 334125, Note_off_c, 0, 77, 53
1, 334125, Poly_aftertouch_c, 0, 77, 0
1, 334185, Note_off_c, 0, 75, 63
1, 334213, Note_off_c, 0, 87, 61
1, 334241, Note_on_c, 0, 46, 66
1, 334320, Note_on_c, 0, 53, 62
1, 334336, Control_c, 0, 64, 94
1, 334343, Note_off_c, 0, 46, 63
1, 334357, Control_c, 0, 64, 11
1, 334370, Note_on_c, 0, 86, 90
1, 334373, Note_on_c, 0, 62, 87
1, 334373, Control_c, 0, 64, 0
1, 334374, Note_on_c, 0, 82, 84
1, 334377, Note_on_c, 0, 74, 84
1, 334383, Note_on_c, 0, 77, 78
1, 334404, Note_off_c, 0, 62, 66
1, 334404, Poly_aftertouch_c, 0, 62, 0
1, 334405, Note_off_c, 0, 74, 69
1, 334411, Control_c, 0, 64, 59
1, 334428, Note_off_c, 0, 77, 62
1, 334428, Poly_aftertouch_c, 0, 77, 0
1, 334429, Control_c, 0, 64, 110
1, 334449, Note_off_c, 0, 53, 63
1, 334449, Control_c, 0, 64, 127
1, 334464, Note_off_c, 0, 86, 65
1, 334478, Note_off_c, 0, 82, 63
1, 334478, Poly_aftertouch_c, 0, 82, 0
1, 334710, Control_c, 0, 64, 115
1, 334730, Control_c, 0, 64, 83
1, 334747, Control_c, 0, 64, 46
1, 334756, Note_on_c, 0, 31, 66
1, 334764, Control_c, 0, 64, 0
1, 334882, Note_on_c, 0, 91, 97
1, 334885, Note_on_c, 0, 87, 91
1, 334885, Note_on_c, 0, 82, 93
1, 334887, Note_on_c, 0, 79, 97
1, 334891, Note_on_c, 0, 46, 96
1, 334892, Note_off_c, 0, 31, 64
1, 334899, Control_c, 0, 64, 33
1, 334916, Control_c, 0, 64, 127
1, 334921, Note_off_c, 0, 46, 63
1, 334940, Note_off_c, 0, 91, 66
1, 334950, Note_off_c, 0, 79, 56
1, 334950, Poly_aftertouch_c, 0, 79, 0
1, 334961, Note_off_c, 0, 87, 64
1, 334966, Note_on_c, 0, 48, 15
1, 334980, Note_off_c, 0, 82, 65
1, 334980, Poly_aftertouch_c, 0, 82, 0
1, 335010, Poly_aftertouch_c, 0, 47, 127
1, 335041, Note_off_c, 0, 48, 38
1, 335041, Poly_aftertouch_c, 0, 47, 0
1, 335188, Note_on_c, 0, 43, 55
1, 335257, Note_on_c, 0, 87, 85
1, 335268, Note_on_c, 0, 75, 79
1, 335272, Note_off_c, 0, 43, 62
1, 335275, Note_on_c, 0, 82, 64
1, 335277, Note_on_c, 0, 58, 87
1, 335313, Note_off_c, 0, 82, 64
1, 335313, Poly_aftertouch_c, 0, 82, 0
1, 335333, Note_off_c, 0, 75, 62
1, 335343, Note_off_c, 0, 58, 61
1, 335397, Note_on_c, 0, 45, 84
1, 335401, Control_c, 0, 64, 68
1, 335416, Note_on_c, 0, 84, 83
1, 335419, Note_on_c, 0, 77, 82
1, 335419, Control_c, 0, 64, 0
1, 335424, Note_on_c, 0, 75, 90
1, 335470, Note_off_c, 0, 45, 63
1, 335476, Control_c, 0, 64, 56
1, 335495, Control_c, 0, 64, 97
1, 335504, Note_on_c, 0, 60, 88
1, 335512, Control_c, 0, 64, 127
1, 335580, Note_off_c, 0, 60, 57
1, 335580, Poly_aftertouch_c, 0, 60, 0
1, 335589, Poly_aftertouch_c, 0, 47, 127
1, 335604, Poly_aftertouch_c, 0, 47, 0
1, 335646, Note_off_c, 0, 84, 58
1, 335674, Note_off_c, 0, 77, 43
1, 335674, Poly_aftertouch_c, 0, 77, 0
1, 335694, Note_off_c, 0, 75, 63
1, 335735, Note_off_c, 0, 87, 60
1, 335777, Note_on_c, 0, 46, 67
1, 335836, Note_on_c, 0, 53, 57
1, 335870, Control_c, 0, 64, 105
1, 335874, Note_off_c, 0, 46, 63
1, 335888, Control_c, 0, 64, 39
1, 335905, Note_on_c, 0, 86, 91
1, 335907, Note_on_c, 0, 62, 89
1, 335907, Control_c, 0, 64, 0
1, 335909, Note_on_c, 0, 82, 86
1, 335910, Note_on_c, 0, 74, 86
1, 335918, Note_on_c, 0, 77, 81
1, 335941, Note_off_c, 0, 74, 67
1, 335944, Control_c, 0, 64, 65
1, 335954, Note_off_c, 0, 62, 65
1, 335954, Poly_aftertouch_c, 0, 62, 0
1, 335957, Note_off_c, 0, 77, 62
1, 335957, Poly_aftertouch_c, 0, 77, 0
1, 335962, Control_c, 0, 64, 120
1, 335982, Control_c, 0, 64, 127
1, 335989, Note_off_c, 0, 53, 62
1, 335995, Note_off_c, 0, 86, 67
1, 335999, Note_off_c, 0, 82, 64
1, 335999, Poly_aftertouch_c, 0, 82, 0
1, 336244, Control_c, 0, 64, 91
1, 336259, Poly_aftertouch_c, 0, 90, 0
1, 336263, Control_c, 0, 64, 37
1, 336280, Control_c, 0, 64, 0
1, 336298, Note_on_c, 0, 31, 72
1, 336429, Note_on_c, 0, 94, 98
1, 336433, Note_on_c, 0, 91, 87
1, 336433, Note_on_c, 0, 82, 101
1, 336435, Note_on_c, 0, 87, 91
1, 336436, Note_off_c, 0, 31, 62
1, 336436, Note_on_c, 0, 46, 94
1, 336456, Control_c, 0, 64, 65
1, 336469, Control_c, 0, 64, 127
1, 336475, Note_off_c, 0, 46, 65
1, 336514, Note_off_c, 0, 94, 65
1, 336514, Note_off_c, 0, 91, 62
1, 336539, Note_off_c, 0, 82, 64
1, 336539, Poly_aftertouch_c, 0, 82, 0
1, 336544, Note_off_c, 0, 87, 62
1, 336557, Poly_aftertouch_c, 0, 38, 0
1, 336757, Note_on_c, 0, 43, 61
1, 336804, Control_c, 0, 64, 103
1, 336817, Note_on_c, 0, 91, 86
1, 336821, Note_on_c, 0, 79, 85
1, 336823, Note_on_c, 0, 87, 74
1, 336823, Control_c, 0, 64, 55
1, 336833, Note_off_c, 0, 43, 64
1, 336840, Control_c, 0, 64, 53
1, 336850, Note_on_c, 0, 58, 82
1, 336860, Control_c, 0, 64, 81
1, 336880, Control_c, 0, 64, 122
1, 336898, Control_c, 0, 64, 127
1, 336917, Note_off_c, 0, 79, 59
1, 336917, Poly_aftertouch_c, 0, 79, 0
1, 336921, Note_off_c, 0, 58, 60
1, 336924, Note_off_c, 0, 91, 63
1, 336932, Note_off_c, 0, 87, 55
1, 336974, Note_on_c, 0, 44, 81
1, 336991, Control_c, 0, 64, 114
1, 337011, Control_c, 0, 64, 75
1, 337023, Note_on_c, 0, 89, 89
1, 337029, Control_c, 0, 64, 71
1, 337030, Note_on_c, 0, 77, 87
1, 337041, Poly_aftertouch_c, 0, 86, 127
1, 337047, Control_c, 0, 64, 97
1, 337048, Note_off_c, 0, 44, 64
1, 337064, Note_on_c, 0, 59, 87
1, 337066, Control_c, 0, 64, 127
1, 337089, Poly_aftertouch_c, 0, 86, 0
1, 337111, Note_off_c, 0, 89, 63
1, 337111, Poly_aftertouch_c, 0, 89, 0
1, 337124, Note_off_c, 0, 77, 58
1, 337124, Poly_aftertouch_c, 0, 77, 0
1, 337135, Note_off_c, 0, 59, 58
1, 337231, Poly_aftertouch_c, 0, 54, 0
1, 337243, Note_on_c, 0, 45, 64
1, 337273, Control_c, 0, 64, 108
1, 337291, Control_c, 0, 64, 60
1, 337304, Note_on_c, 0, 87, 89
1, 337305, Note_on_c, 0, 84, 79
1, 337307, Note_on_c, 0, 75, 88
1, 337308, Note_off_c, 0, 45, 63
1, 337311, Control_c, 0, 64, 18
1, 337328, Control_c, 0, 64, 46
1, 337345, Note_on_c, 0, 60, 84
1, 337347, Control_c, 0, 64, 82
1, 337365, Control_c, 0, 64, 123
1, 337384, Control_c, 0, 64, 127
1, 337415, Note_off_c, 0, 60, 62
1, 337415, Poly_aftertouch_c, 0, 60, 0
1, 337421, Note_off_c, 0, 84, 60
1, 337455, Note_off_c, 0, 75, 63
1, 337471, Note_off_c, 0, 87, 62
1, 337483, Note_on_c, 0, 46, 74
1, 337516, Control_c, 0, 64, 121
1, 337534, Control_c, 0, 64, 70
1, 337548, Note_on_c, 0, 86, 90
1, 337551, Note_off_c, 0, 46, 63
1, 337553, Note_on_c, 0, 74, 91
1, 337553, Note_on_c, 0, 82, 86
1, 337553, Control_c, 0, 64, 46
1, 337571, Control_c, 0, 64, 68
1, 337576, Note_on_c, 0, 62, 91
1, 337590, Control_c, 0, 64, 102
1, 337608, Control_c, 0, 64, 127
1, 337655, Note_off_c, 0, 62, 60
1, 337655, Poly_aftertouch_c, 0, 62, 0
1, 337682, Poly_aftertouch_c, 0, 56, 127
1, 337685, Note_off_c, 0, 74, 60
1, 337688, Note_off_c, 0, 82, 62
1, 337688, Poly_aftertouch_c, 0, 82, 0
1, 337695, Note_off_c, 0, 86, 61
1, 337724, Note_on_c, 0, 48, 70
1, 337734, Poly_aftertouch_c, 0, 56, 0
1, 337758, Control_c, 0, 64, 107
1, 337777, Control_c, 0, 64, 53
1, 337795, Note_on_c, 0, 82, 88
1, 337795, Control_c, 0, 64, 0
1, 337799, Note_on_c, 0, 84, 78
1, 337799, Note_on_c, 0, 72, 88
1, 337801, Note_off_c, 0, 48, 66
1, 337802, Note_on_c, 0, 86, 84
1, 337815, Note_on_c, 0, 63, 89
1, 337833, Control_c, 0, 64, 67
1, 337837, Note_off_c, 0, 86, 57
1, 337852, Control_c, 0, 64, 108
1, 337870, Control_c, 0, 64, 127
1, 337898, Note_off_c, 0, 82, 64
1, 337898, Poly_aftertouch_c, 0, 82, 0
1, 337904, Note_off_c, 0, 72, 61
1, 337908, Note_off_c, 0, 63, 60
1, 337923, Note_off_c, 0, 84, 64
1, 338012, Note_on_c, 0, 50, 67
1, 338076, Control_c, 0, 64, 102
1, 338087, Note_on_c, 0, 82, 91
1, 338094, Control_c, 0, 64, 50
1, 338095, Note_off_c, 0, 50, 64
1, 338097, Note_on_c, 0, 70, 91
1, 338113, Control_c, 0, 64, 0
1, 338124, Note_on_c, 0, 65, 87
1, 338132, Control_c, 0, 64, 18
1, 338152, Control_c, 0, 64, 71
1, 338169, Control_c, 0, 64, 113
1, 338188, Control_c, 0, 64, 127
1, 338217, Note_off_c, 0, 65, 61
1, 338262, Note_off_c, 0, 70, 60
1, 338309, Note_off_c, 0, 82, 59
1, 338309, Poly_aftertouch_c, 0, 82, 0
1, 338371, Note_on_c, 0, 52, 72
1, 338394, Control_c, 0, 64, 93
1, 338413, Control_c, 0, 64, 45
1, 338424, Note_on_c, 0, 84, 92
1, 338431, Control_c, 0, 64, 0
1, 338436, Note_on_c, 0, 79, 78
1, 338436, Note_on_c, 0, 72, 90
1, 338439, Note_off_c, 0, 52, 61
1, 338451, Control_c, 0, 64, 8
1, 338469, Control_c, 0, 64, 63
1, 338472, Note_on_c, 0, 67, 85
1, 338488, Control_c, 0, 64, 99
1, 338502, Poly_aftertouch_c, 0, 54, 0
1, 338505, Control_c, 0, 64, 127
1, 338595, Note_off_c, 0, 67, 56
1, 338595, Poly_aftertouch_c, 0, 67, 0
1, 338631, Note_off_c, 0, 84, 62
1, 338631, Note_off_c, 0, 79, 57
1, 338631, Poly_aftertouch_c, 0, 79, 0
1, 338643, Note_off_c, 0, 72, 57
1, 338672, Note_on_c, 0, 53, 63
1, 338755, Note_on_c, 0, 60, 71
1, 338847, Note_on_c, 0, 65, 81
1, 338880, Control_c, 0, 64, 115
1, 338900, Control_c, 0, 64, 86
1, 338917, Control_c, 0, 64, 52
1, 338930, Note_on_c, 0, 82, 91
1, 338935, Control_c, 0, 64, 0
1, 338939, Note_on_c, 0, 77, 80
1, 338942, Note_on_c, 0, 70, 87
1, 339049, Control_c, 0, 64, 21
1, 339067, Control_c, 0, 64, 73
1, 339087, Control_c, 0, 64, 96
1, 339103, Note_off_c, 0, 65, 66
1, 339103, Control_c, 0, 64, 127
1, 339402, Note_off_c, 0, 53, 28
1, 339485, Note_off_c, 0, 60, 49
1, 339485, Poly_aftertouch_c, 0, 60, 0
1, 339576, Note_off_c, 0, 70, 50
1, 339738, Note_on_c, 0, 81, 78
1, 339746, Note_on_c, 0, 69, 75
1, 339929, Note_off_c, 0, 82, 23
1, 339929, Poly_aftertouch_c, 0, 82, 0
1, 339975, Note_off_c, 0, 69, 58
1, 339975, Poly_aftertouch_c, 0, 69, 0
1, 339984, Note_off_c, 0, 81, 62
1, 339991, Note_off_c, 0, 77, 54
1, 339991, Poly_aftertouch_c, 0, 77, 0
1, 340108, Note_on_c, 0, 38, 68
1, 340171, Control_c, 0, 64, 92
1, 340189, Control_c, 0, 64, 54
1, 340209, Control_c, 0, 64, 14
1, 340224, Note_on_c, 0, 82, 82
1, 340227, Control_c, 0, 64, 23
1, 340231, Note_on_c, 0, 70, 75
1, 340235, Note_on_c, 0, 77, 71
1, 340245, Control_c, 0, 64, 56
1, 340264, Control_c, 0, 64, 85
1, 340269, Note_off_c, 0, 38, 55
1, 340284, Control_c, 0, 64, 123
1, 340288, Note_on_c, 0, 53, 53
1, 340302, Control_c, 0, 64, 127
1, 340349, Note_off_c, 0, 70, 64
1, 340415, Poly_aftertouch_c, 0, 52, 0
1, 340433, Note_off_c, 0, 53, 54
1, 340469, Control_c, 0, 64, 97
1, 340476, Note_on_c, 0, 86, 88
1, 340489, Control_c, 0, 64, 63
1, 340494, Note_on_c, 0, 74, 78
1, 340507, Control_c, 0, 64, 69
1, 340514, Note_on_c, 0, 40, 61
1, 340526, Control_c, 0, 64, 92
1, 340544, Note_off_c, 0, 82, 49
1, 340544, Poly_aftertouch_c, 0, 82, 0
1, 340544, Control_c, 0, 64, 127
1, 340547, Note_off_c, 0, 77, 59
1, 340547, Poly_aftertouch_c, 0, 77, 0
1, 340598, Note_off_c, 0, 86, 63
1, 340601, Note_off_c, 0, 74, 62
1, 340639, Control_c, 0, 64, 105
1, 340657, Control_c, 0, 64, 66
1, 340672, Note_off_c, 0, 40, 53
1, 340672, Note_on_c, 0, 55, 61
1, 340676, Control_c, 0, 64, 55
1, 340687, Note_on_c, 0, 79, 57
1, 340689, Note_on_c, 0, 84, 89
1, 340695, Control_c, 0, 64, 63
1, 340704, Note_on_c, 0, 72, 78
1, 340712, Control_c, 0, 64, 76
1, 340731, Control_c, 0, 64, 94
1, 340750, Control_c, 0, 64, 120
1, 340769, Control_c, 0, 64, 127
1, 340802, Note_off_c, 0, 55, 54
1, 340802, Poly_aftertouch_c, 0, 55, 0
1, 340866, Note_off_c, 0, 72, 58
1, 340897, Note_off_c, 0, 79, 59
1, 340897, Poly_aftertouch_c, 0, 79, 0
1, 340898, Note_off_c, 0, 84, 62
1, 340916, Note_on_c, 0, 41, 60
1, 341068, Control_c, 0, 64, 116
1, 341087, Control_c, 0, 64, 104
1, 341106, Control_c, 0, 64, 91
1, 341123, Control_c, 0, 64, 75
1, 341126, Note_on_c, 0, 82, 81
1, 341142, Control_c, 0, 64, 59
1, 341150, Note_on_c, 0, 77, 62
1, 341154, Note_on_c, 0, 70, 64
1, 341160, Control_c, 0, 64, 42
1, 341180, Control_c, 0, 64, 0
1, 341198, Control_c, 0, 67, 8
1, 341291, Control_c, 0, 67, 12
1, 341295, Note_on_c, 0, 48, 46
1, 341311, Control_c, 0, 64, 37
1, 341330, Control_c, 0, 64, 58
1, 341348, Control_c, 0, 64, 76
1, 341365, Note_off_c, 0, 41, 56
1, 341365, Poly_aftertouch_c, 0, 41, 0
1, 341367, Control_c, 0, 64, 95
1, 341369, Control_c, 0, 67, 16
1, 341386, Control_c, 0, 64, 120
1, 341403, Note_off_c, 0, 48, 62
1, 341403, Control_c, 0, 64, 127
1, 341442, Control_c, 0, 67, 20
1, 341452, Note_on_c, 0, 53, 52
1, 341499, Control_c, 0, 67, 25
1, 341507, Note_off_c, 0, 53, 61
1, 341555, Control_c, 0, 67, 29
1, 341591, Control_c, 0, 67, 33
1, 341599, Note_off_c, 0, 77, 54
1, 341599, Poly_aftertouch_c, 0, 77, 0
1, 341611, Note_off_c, 0, 82, 40
1, 341611, Poly_aftertouch_c, 0, 82, 0
1, 341621, Note_on_c, 0, 60, 49
1, 341628, Control_c, 0, 67, 40
1, 341659, Note_off_c, 0, 70, 60
1, 341665, Control_c, 0, 67, 46
1, 341675, Note_off_c, 0, 60, 60
1, 341675, Poly_aftertouch_c, 0, 60, 0
1, 341704, Control_c, 0, 67, 51
1, 341796, Control_c, 0, 67, 55
1, 341993, Note_on_c, 0, 81, 58
1, 342022, Control_c, 0, 64, 116
1, 342023, Note_on_c, 0, 69, 45
1, 342041, Control_c, 0, 64, 104
1, 342079, Control_c, 0, 64, 109
1, 342096, Control_c, 0, 64, 120
1, 342116, Control_c, 0, 64, 127
1, 342243, Note_off_c, 0, 81, 60
1, 342299, Note_off_c, 0, 69, 37
1, 342299, Poly_aftertouch_c, 0, 69, 0
1, 342675, Control_c, 0, 64, 122
1, 342732, Control_c, 0, 64, 117
1, 342770, Control_c, 0, 64, 112
1, 342807, Control_c, 0, 64, 107
1, 342844, Control_c, 0, 64, 103
1, 342900, Control_c, 0, 64, 98
1, 342937, Control_c, 0, 64, 92
1, 342938, Control_c, 0, 67, 51
1, 342975, Control_c, 0, 64, 87
1, 342993, Control_c, 0, 64, 83
1, 343014, Control_c, 0, 64, 80
1, 343031, Control_c, 0, 64, 76
1, 343050, Control_c, 0, 64, 72
1, 343069, Control_c, 0, 64, 70
1, 343087, Control_c, 0, 64, 67
1, 343107, Control_c, 0, 64, 63
1, 343125, Control_c, 0, 64, 58
1, 343144, Control_c, 0, 64, 51
1, 343162, Control_c, 0, 64, 42
1, 343180, Note_on_c, 0, 77, 60
1, 343181, Control_c, 0, 64, 30
1, 343218, Control_c, 0, 64, 0
1, 343238, Note_on_c, 0, 72, 34
1, 343248, Note_on_c, 0, 69, 38
1, 343368, Control_c, 0, 64, 10
1, 343388, Control_c, 0, 64, 23
1, 343405, Control_c, 0, 64, 36
1, 343424, Control_c, 0, 64, 49
1, 343445, Control_c, 0, 64, 62
1, 343461, Control_c, 0, 64, 73
1, 343480, Control_c, 0, 64, 80
1, 343499, Control_c, 0, 64, 85
1, 343518, Control_c, 0, 64, 91
1, 343532, Note_on_c, 0, 53, 27
1, 343536, Control_c, 0, 64, 99
1, 343544, Note_off_c, 0, 69, 53
1, 343544, Poly_aftertouch_c, 0, 69, 0
1, 343555, Control_c, 0, 64, 107
1, 343574, Control_c, 0, 64, 116
1, 343592, Control_c, 0, 64, 123
1, 343629, Control_c, 0, 64, 127
1, 343732, Note_off_c, 0, 53, 35
1, 343782, Note_on_c, 0, 69, 36
1, 343946, Note_off_c, 0, 69, 35
1, 343946, Poly_aftertouch_c, 0, 69, 0
1, 343961, Note_on_c, 0, 53, 41
1, 343985, Control_c, 0, 67, 56
1, 344028, Note_off_c, 0, 53, 52
1, 344109, Note_on_c, 0, 69, 54
1, 344181, Note_off_c, 0, 69, 47
1, 344181, Poly_aftertouch_c, 0, 69, 0
1, 344262, Note_on_c, 0, 53, 43
1, 344315, Note_off_c, 0, 53, 56
1, 344359, Control_c, 0, 67, 52
1, 344452, Note_on_c, 0, 76, 71
1, 344488, Note_on_c, 0, 71, 46
1, 344499, Note_on_c, 0, 68, 41
1, 344520, Note_off_c, 0, 72, 39
1, 344565, Control_c, 0, 64, 121
1, 344583, Control_c, 0, 64, 116
1, 344602, Control_c, 0, 64, 122
1, 344603, Control_c, 0, 67, 48
1, 344615, Note_on_c, 0, 53, 43
1, 344619, Control_c, 0, 64, 127
1, 344625, Note_off_c, 0, 68, 42
1, 344676, Control_c, 0, 67, 44
1, 344678, Note_off_c, 0, 77, 27
1, 344678, Poly_aftertouch_c, 0, 77, 0
1, 344733, Control_c, 0, 67, 40
1, 344737, Note_off_c, 0, 53, 28
1, 344778, Note_on_c, 0, 68, 57
1, 344807, Control_c, 0, 67, 35
1, 344863, Control_c, 0, 67, 31
1, 344878, Note_off_c, 0, 68, 55
1, 344900, Control_c, 0, 67, 27
1, 344918, Note_on_c, 0, 53, 43
1, 344938, Control_c, 0, 67, 21
1, 344975, Control_c, 0, 67, 15
1, 344995, Control_c, 0, 67, 11
1, 344998, Note_off_c, 0, 53, 42
1, 345007, Note_off_c, 0, 71, 55
1, 345014, Note_on_c, 0, 75, 79
1, 345035, Note_on_c, 0, 70, 60
1, 345058, Note_on_c, 0, 67, 54
1, 345063, Note_off_c, 0, 76, 62
1, 345088, Control_c, 0, 67, 0
1, 345124, Note_off_c, 0, 67, 54
1, 345124, Poly_aftertouch_c, 0, 67, 0
1, 345158, Note_off_c, 0, 70, 60
1, 345178, Note_on_c, 0, 69, 61
1, 345181, Note_off_c, 0, 75, 63
1, 345187, Note_on_c, 0, 53, 49
1, 345356, Note_off_c, 0, 53, 52
1, 345386, Note_on_c, 0, 81, 80
1, 345386, Control_c, 0, 64, 119
1, 345390, Note_on_c, 0, 66, 54
1, 345406, Control_c, 0, 64, 103
1, 345426, Control_c, 0, 64, 84
1, 345444, Control_c, 0, 64, 73
1, 345462, Control_c, 0, 64, 75
1, 345480, Control_c, 0, 64, 83
1, 345500, Control_c, 0, 64, 95
1, 345518, Control_c, 0, 64, 111
1, 345529, Note_off_c, 0, 66, 56
1, 345532, Note_off_c, 0, 69, 59
1, 345532, Poly_aftertouch_c, 0, 69, 0
1, 345538, Note_on_c, 0, 53, 56
1, 345538, Control_c, 0, 64, 127
1, 345687, Note_off_c, 0, 53, 47
1, 345688, Note_on_c, 0, 74, 80
1, 345703, Note_on_c, 0, 65, 54
1, 345728, Note_off_c, 0, 81, 35
1, 345750, Note_on_c, 0, 68, 42
1, 345805, Note_off_c, 0, 65, 55
1, 345840, Note_on_c, 0, 53, 52
1, 345853, Note_off_c, 0, 68, 39
1, 345949, Control_c, 0, 64, 123
1, 345958, Note_off_c, 0, 53, 54
1, 345965, Control_c, 0, 64, 101
1, 345966, Note_on_c, 0, 67, 37
1, 345975, Note_on_c, 0, 73, 65
1, 345983, Control_c, 0, 64, 82
1, 345989, Note_on_c, 0, 79, 76
1, 345991, Note_off_c, 0, 74, 60
1, 345991, Note_on_c, 0, 64, 51
1, 346005, Control_c, 0, 64, 74
1, 346023, Control_c, 0, 64, 79
1, 346041, Control_c, 0, 64, 90
1, 346062, Control_c, 0, 64, 109
1, 346065, Note_off_c, 0, 73, 64
1, 346065, Poly_aftertouch_c, 0, 73, 0
1, 346079, Control_c, 0, 64, 127
1, 346096, Note_off_c, 0, 64, 55
1, 346110, Note_off_c, 0, 67, 52
1, 346110, Poly_aftertouch_c, 0, 67, 0
1, 346133, Note_on_c, 0, 53, 54
1, 346183, Note_off_c, 0, 79, 48
1, 346183, Poly_aftertouch_c, 0, 79, 0
1, 346268, Note_on_c, 0, 72, 77
1, 346285, Control_c, 0, 64, 102
1, 346303, Control_c, 0, 64, 88
1, 346310, Note_on_c, 0, 63, 54
1, 346314, Note_on_c, 0, 66, 51
1, 346320, Note_off_c, 0, 53, 35
1, 346322, Control_c, 0, 64, 84
1, 346341, Control_c, 0, 64, 88
1, 346361, Control_c, 0, 64, 97
1, 346378, Control_c, 0, 64, 114
1, 346397, Control_c, 0, 64, 127
1, 346416, Note_off_c, 0, 66, 63
1, 346439, Note_off_c, 0, 63, 50
1, 346460, Note_on_c, 0, 53, 54
1, 346564, Control_c, 0, 64, 116
1, 346568, Note_on_c, 0, 65, 40
1, 346582, Control_c, 0, 64, 91
1, 346585, Note_on_c, 0, 77, 71
1, 346588, Note_off_c, 0, 53, 50
1, 346589, Note_on_c, 0, 71, 51
1, 346605, Control_c, 0, 64, 69
1, 346614, Note_off_c, 0, 72, 48
1, 346620, Note_on_c, 0, 62, 49
1, 346621, Control_c, 0, 64, 55
1, 346641, Control_c, 0, 64, 48
1, 346658, Control_c, 0, 64, 54
1, 346678, Control_c, 0, 64, 67
1, 346695, Control_c, 0, 64, 83
1, 346699, Note_off_c, 0, 71, 61
1, 346715, Control_c, 0, 64, 104
1, 346724, Note_off_c, 0, 65, 56
1, 346733, Note_off_c, 0, 62, 57
1, 346733, Poly_aftertouch_c, 0, 62, 0
1, 346734, Control_c, 0, 64, 127
1, 346763, Note_on_c, 0, 53, 50
1, 346778, Note_off_c, 0, 77, 53
1, 346778, Poly_aftertouch_c, 0, 77, 0
1, 346875, Note_off_c, 0, 53, 44
1, 346895, Note_on_c, 0, 70, 67
1, 346902, Control_c, 0, 67, 8
1, 346918, Note_on_c, 0, 64, 51
1, 346921, Control_c, 0, 64, 98
1, 346922, Note_on_c, 0, 61, 53
1, 346941, Control_c, 0, 64, 77
1, 346958, Control_c, 0, 64, 69
1, 346976, Control_c, 0, 64, 73
1, 346996, Control_c, 0, 64, 82
1, 347014, Control_c, 0, 64, 95
1, 347033, Control_c, 0, 64, 112
1, 347035, Control_c, 0, 67, 13
1, 347048, Note_off_c, 0, 64, 59
1, 347050, Control_c, 0, 64, 127
1, 347070, Note_off_c, 0, 61, 50
1, 347088, Control_c, 0, 67, 18
1, 347090, Note_on_c, 0, 53, 45
1, 347126, Control_c, 0, 67, 24
1, 347136, Note_off_c, 0, 70, 56
1, 347156, Note_off_c, 0, 53, 54
1, 347161, Control_c, 0, 67, 31
1, 347182, Control_c, 0, 67, 35
1, 347220, Control_c, 0, 67, 40
1, 347257, Control_c, 0, 64, 122
1, 347277, Control_c, 0, 64, 118
1, 347295, Control_c, 0, 64, 114
1, 347322, Note_on_c, 0, 75, 61
1, 347329, Note_on_c, 0, 63, 64
1, 347332, Control_c, 0, 64, 107
1, 347333, Control_c, 0, 67, 44
1, 347356, Note_on_c, 0, 69, 39
1, 347368, Note_on_c, 0, 60, 43
1, 347369, Control_c, 0, 64, 101
1, 347407, Control_c, 0, 64, 92
1, 347425, Control_c, 0, 64, 85
1, 347444, Control_c, 0, 64, 77
1, 347463, Control_c, 0, 64, 70
1, 347463, Control_c, 0, 67, 49
1, 347482, Control_c, 0, 64, 64
1, 347500, Control_c, 0, 64, 56
1, 347502, Control_c, 0, 67, 53
1, 347519, Control_c, 0, 64, 40
1, 347535, Note_off_c, 0, 60, 53
1, 347535, Poly_aftertouch_c, 0, 60, 0
1, 347538, Control_c, 0, 64, 0
1, 347539, Control_c, 0, 67, 60
1, 347542, Note_on_c, 0, 53, 43
1, 347556, Control_c, 0, 67, 64
1, 347575, Control_c, 0, 67, 68
1, 347594, Control_c, 0, 67, 73
1, 347613, Control_c, 0, 64, 12
1, 347614, Control_c, 0, 67, 79
1, 347632, Control_c, 0, 64, 27
1, 347634, Control_c, 0, 67, 86
1, 347649, Control_c, 0, 64, 39
1, 347650, Control_c, 0, 67, 92
1, 347669, Control_c, 0, 64, 51
1, 347670, Control_c, 0, 67, 98
1, 347688, Control_c, 0, 64, 62
1, 347689, Control_c, 0, 67, 104
1, 347706, Control_c, 0, 64, 70
1, 347706, Control_c, 0, 67, 109
1, 347717, Note_off_c, 0, 53, 54
1, 347723, Control_c, 0, 64, 74
1, 347742, Control_c, 0, 64, 76
1, 347744, Control_c, 0, 67, 115
1, 347746, Note_on_c, 0, 60, 39
1, 347762, Control_c, 0, 64, 80
1, 347782, Control_c, 0, 64, 84
1, 347799, Control_c, 0, 64, 89
1, 347819, Control_c, 0, 64, 96
1, 347820, Control_c, 0, 67, 120
1, 347837, Control_c, 0, 64, 103
1, 347856, Control_c, 0, 64, 108
1, 347874, Control_c, 0, 64, 113
1, 347911, Control_c, 0, 64, 118
1, 347912, Note_off_c, 0, 60, 57
1, 347912, Poly_aftertouch_c, 0, 60, 0
1, 347953, Note_on_c, 0, 53, 40
1, 347967, Control_c, 0, 64, 122
1, 348016, Note_off_c, 0, 63, 49
1, 348117, Control_c, 0, 64, 117
1, 348148, Note_off_c, 0, 53, 35
1, 348154, Control_c, 0, 64, 113
1, 348163, Note_on_c, 0, 64, 57
1, 348173, Control_c, 0, 64, 108
1, 348190, Note_on_c, 0, 61, 45
1, 348192, Control_c, 0, 64, 100
1, 348211, Control_c, 0, 64, 89
1, 348218, Note_off_c, 0, 69, 32
1, 348218, Poly_aftertouch_c, 0, 69, 0
1, 348229, Control_c, 0, 64, 75
1, 348247, Control_c, 0, 64, 62
1, 348267, Control_c, 0, 64, 53
1, 348285, Control_c, 0, 64, 48
1, 348304, Control_c, 0, 64, 52
1, 348322, Control_c, 0, 64, 60
1, 348342, Control_c, 0, 64, 69
1, 348361, Control_c, 0, 64, 76
1, 348379, Control_c, 0, 64, 84
1, 348385, Note_on_c, 0, 53, 36
1, 348392, Note_off_c, 0, 61, 37
1, 348396, Control_c, 0, 64, 94
1, 348417, Control_c, 0, 64, 104
1, 348435, Control_c, 0, 64, 113
1, 348454, Control_c, 0, 64, 119
1, 348641, Control_c, 0, 64, 115
1, 348643, Note_on_c, 0, 69, 44
1, 348647, Note_on_c, 0, 65, 45
1, 348653, Note_off_c, 0, 53, 27
1, 348662, Note_on_c, 0, 62, 41
1, 348678, Control_c, 0, 64, 111
1, 348715, Control_c, 0, 64, 107
1, 348730, Note_off_c, 0, 64, 33
1, 348734, Control_c, 0, 64, 102
1, 348753, Control_c, 0, 64, 96
1, 348772, Control_c, 0, 64, 88
1, 348791, Control_c, 0, 64, 79
1, 348809, Control_c, 0, 64, 69
1, 348821, Note_off_c, 0, 75, 33
1, 348828, Control_c, 0, 64, 60
1, 348846, Control_c, 0, 64, 47
1, 348865, Control_c, 0, 64, 21
1, 348884, Control_c, 0, 64, 0
1, 348886, Note_off_c, 0, 62, 36
1, 348886, Poly_aftertouch_c, 0, 62, 0
1, 348888, Note_on_c, 0, 53, 29
1, 348960, Control_c, 0, 64, 18
1, 348977, Control_c, 0, 64, 28
1, 348997, Control_c, 0, 64, 38
1, 349015, Control_c, 0, 64, 50
1, 349034, Control_c, 0, 64, 60
1, 349052, Control_c, 0, 64, 68
1, 349071, Control_c, 0, 64, 72
1, 349107, Control_c, 0, 64, 75
1, 349127, Control_c, 0, 64, 78
1, 349137, Note_off_c, 0, 53, 39
1, 349145, Control_c, 0, 64, 83
1, 349148, Note_on_c, 0, 62, 32
1, 349165, Control_c, 0, 64, 89
1, 349183, Control_c, 0, 64, 95
1, 349202, Control_c, 0, 64, 100
1, 349239, Control_c, 0, 64, 107
1, 349277, Control_c, 0, 64, 111
1, 349313, Control_c, 0, 64, 115
1, 349359, Note_off_c, 0, 62, 39
1, 349359, Poly_aftertouch_c, 0, 62, 0
1, 349367, Note_on_c, 0, 53, 27
1, 349633, Control_c, 0, 64, 111
1, 349650, Note_on_c, 0, 63, 34
1, 349662, Note_on_c, 0, 60, 36
1, 349667, Control_c, 0, 64, 107
1, 349688, Control_c, 0, 64, 103
1, 349695, Note_off_c, 0, 53, 30
1, 349707, Control_c, 0, 64, 96
1, 349725, Control_c, 0, 64, 85
1, 349745, Control_c, 0, 64, 74
1, 349760, Note_off_c, 0, 65, 42
1, 349763, Control_c, 0, 64, 65
1, 349781, Control_c, 0, 64, 63
1, 349801, Control_c, 0, 64, 66
1, 349819, Control_c, 0, 64, 70
1, 349838, Control_c, 0, 64, 73
1, 349856, Control_c, 0, 64, 78
1, 349875, Control_c, 0, 64, 83
1, 349896, Control_c, 0, 64, 92
1, 349912, Control_c, 0, 64, 101
1, 349924, Note_off_c, 0, 69, 53
1, 349924, Poly_aftertouch_c, 0, 69, 0
1, 349930, Control_c, 0, 64, 108
1, 349951, Control_c, 0, 64, 112
1, 349958, Note_on_c, 0, 53, 28
1, 349988, Control_c, 0, 64, 117
1, 350002, Note_off_c, 0, 60, 32
1, 350002, Poly_aftertouch_c, 0, 60, 0
1, 350050, Note_off_c, 0, 63, 51
1, 350150, Note_off_c, 0, 53, 34
1, 350364, Note_on_c, 0, 65, 44
1, 350380, Control_c, 0, 64, 112
1, 350393, Note_on_c, 0, 60, 42
1, 350403, Note_on_c, 0, 57, 34
1, 350418, Control_c, 0, 64, 108
1, 350455, Control_c, 0, 64, 100
1, 350473, Control_c, 0, 64, 95
1, 350493, Control_c, 0, 64, 89
1, 350511, Control_c, 0, 64, 79
1, 350529, Control_c, 0, 64, 68
1, 350548, Control_c, 0, 64, 56
1, 350567, Control_c, 0, 64, 46
1, 350585, Control_c, 0, 64, 37
1, 350623, Control_c, 0, 64, 41
1, 350642, Control_c, 0, 64, 46
1, 350659, Control_c, 0, 64, 54
1, 350679, Control_c, 0, 64, 63
1, 350698, Control_c, 0, 64, 71
1, 350715, Control_c, 0, 64, 78
1, 350717, Note_on_c, 0, 41, 36
1, 350735, Control_c, 0, 64, 85
1, 350753, Control_c, 0, 64, 92
1, 350773, Control_c, 0, 64, 99
1, 350774, Note_off_c, 0, 57, 42
1, 350791, Control_c, 0, 64, 106
1, 350810, Control_c, 0, 64, 112
1, 350829, Control_c, 0, 64, 117
1, 350847, Control_c, 0, 64, 122
1, 350866, Control_c, 0, 64, 126
1, 350904, Control_c, 0, 67, 116
1, 350954, Note_off_c, 0, 41, 37
1, 350954, Poly_aftertouch_c, 0, 41, 0
1, 350993, Note_on_c, 0, 57, 39
1, 351207, Note_off_c, 0, 57, 37
1, 351232, Note_on_c, 0, 41, 31
1, 351294, Note_off_c, 0, 41, 53
1, 351294, Poly_aftertouch_c, 0, 41, 0
1, 351403, Note_on_c, 0, 57, 39
1, 351446, Control_c, 0, 67, 112
1, 351580, Note_on_c, 0, 41, 42
1, 351594, Note_off_c, 0, 57, 33
1, 351665, Note_off_c, 0, 41, 49
1, 351665, Poly_aftertouch_c, 0, 41, 0
1, 351783, Control_c, 0, 67, 108
1, 351819, Note_on_c, 0, 64, 50
1, 351830, Note_on_c, 0, 59, 38
1, 351841, Note_on_c, 0, 56, 40
1, 351870, Poly_aftertouch_c, 0, 60, 24
1, 351894, Control_c, 0, 67, 104
1, 351923, Note_off_c, 0, 65, 52
1, 351928, Note_off_c, 0, 60, 36
1, 351928, Poly_aftertouch_c, 0, 60, 0
1, 351988, Control_c, 0, 67, 100
1, 352002, Note_off_c, 0, 56, 47
1, 352006, Control_c, 0, 64, 120
1, 352010, Note_on_c, 0, 41, 44
1, 352025, Control_c, 0, 64, 109
1, 352063, Control_c, 0, 67, 94
1, 352101, Control_c, 0, 67, 90
1, 352119, Control_c, 0, 64, 118
1, 352138, Control_c, 0, 64, 126
1, 352140, Control_c, 0, 67, 85
1, 352144, Note_off_c, 0, 41, 41
1, 352144, Poly_aftertouch_c, 0, 41, 0
1, 352156, Control_c, 0, 67, 81
1, 352179, Note_on_c, 0, 56, 49
1, 352193, Control_c, 0, 67, 75
1, 352231, Control_c, 0, 67, 69
1, 352268, Control_c, 0, 67, 65
1, 352302, Note_off_c, 0, 56, 53
1, 352333, Note_on_c, 0, 41, 51
1, 352345, Control_c, 0, 67, 61
1, 352418, Control_c, 0, 67, 57
1, 352456, Note_off_c, 0, 59, 57
1, 352460, Note_on_c, 0, 63, 63
1, 352463, Note_off_c, 0, 41, 41
1, 352463, Poly_aftertouch_c, 0, 41, 0
1, 352472, Control_c, 0, 67, 52
1, 352476, Note_on_c, 0, 58, 57
1, 352496, Note_off_c, 0, 64, 56
1, 352511, Control_c, 0, 67, 47
1, 352515, Note_on_c, 0, 55, 48
1, 352548, Control_c, 0, 67, 41
1, 352587, Control_c, 0, 67, 36
1, 352623, Note_off_c, 0, 55, 55
1, 352623, Poly_aftertouch_c, 0, 55, 0
1, 352623, Control_c, 0, 67, 31
1, 352634, Note_off_c, 0, 58, 51
1, 352634, Note_off_c, 0, 63, 60
1, 352646, Note_on_c, 0, 57, 58
1, 352658, Note_on_c, 0, 41, 45
1, 352661, Control_c, 0, 67, 27
1, 352717, Control_c, 0, 67, 22
1, 352773, Control_c, 0, 67, 17
1, 352851, Note_off_c, 0, 41, 47
1, 352851, Poly_aftertouch_c, 0, 41, 0
1, 352882, Note_on_c, 0, 54, 44
1, 352916, Note_on_c, 0, 69, 68
1, 352923, Control_c, 0, 67, 13
1, 352941, Control_c, 0, 64, 119
1, 352960, Control_c, 0, 64, 108
1, 352979, Control_c, 0, 64, 93
1, 352997, Control_c, 0, 64, 79
1, 353016, Control_c, 0, 64, 73
1, 353035, Control_c, 0, 64, 75
1, 353054, Control_c, 0, 64, 80
1, 353073, Control_c, 0, 64, 87
1, 353091, Control_c, 0, 64, 96
1, 353108, Note_off_c, 0, 54, 50
1, 353108, Note_on_c, 0, 41, 40
1, 353109, Control_c, 0, 64, 107
1, 353118, Note_off_c, 0, 57, 59
1, 353128, Control_c, 0, 64, 118
1, 353147, Control_c, 0, 64, 127
1, 353289, Note_on_c, 0, 62, 65
1, 353309, Note_on_c, 0, 53, 45
1, 353313, Note_off_c, 0, 41, 34
1, 353313, Poly_aftertouch_c, 0, 41, 0
1, 353337, Note_on_c, 0, 56, 51
1, 353372, Note_off_c, 0, 69, 35
1, 353372, Poly_aftertouch_c, 0, 69, 0
1, 353434, Note_off_c, 0, 53, 52
1, 353450, Note_off_c, 0, 56, 58
1, 353465, Note_on_c, 0, 41, 54
1, 353589, Note_on_c, 0, 55, 41
1, 353592, Note_off_c, 0, 41, 54
1, 353592, Poly_aftertouch_c, 0, 41, 0
1, 353618, Note_on_c, 0, 61, 58
1, 353626, Note_on_c, 0, 67, 71
1, 353626, Note_on_c, 0, 52, 47
1, 353633, Control_c, 0, 64, 110
1, 353639, Note_off_c, 0, 62, 56
1, 353639, Poly_aftertouch_c, 0, 62, 0
1, 353653, Control_c, 0, 64, 90
1, 353670, Control_c, 0, 64, 74
1, 353689, Control_c, 0, 64, 71
1, 353710, Control_c, 0, 64, 76
1, 353722, Note_off_c, 0, 61, 64
1, 353727, Control_c, 0, 64, 84
1, 353743, Note_off_c, 0, 52, 58
1, 353745, Control_c, 0, 64, 97
1, 353764, Note_off_c, 0, 55, 61
1, 353764, Poly_aftertouch_c, 0, 55, 0
1, 353764, Control_c, 0, 64, 117
1, 353774, Note_on_c, 0, 41, 52
1, 353782, Control_c, 0, 64, 127
1, 353821, Note_off_c, 0, 67, 38
1, 353821, Poly_aftertouch_c, 0, 67, 0
1, 353923, Note_off_c, 0, 41, 52
1, 353923, Poly_aftertouch_c, 0, 41, 0
1, 353938, Note_on_c, 0, 60, 69
1, 353965, Note_on_c, 0, 54, 56
1, 353967, Note_on_c, 0, 51, 50
1, 353970, Control_c, 0, 64, 122
1, 353990, Control_c, 0, 64, 103
1, 353991, Control_c, 0, 67, 17
1, 354007, Control_c, 0, 64, 86
1, 354026, Control_c, 0, 64, 77
1, 354046, Control_c, 0, 64, 79
1, 354064, Control_c, 0, 64, 88
1, 354082, Control_c, 0, 64, 102
1, 354102, Control_c, 0, 64, 118
1, 354107, Note_off_c, 0, 54, 59
1, 354121, Control_c, 0, 64, 127
1, 354123, Note_on_c, 0, 41, 45
1, 354146, Note_off_c, 0, 51, 38
1, 354281, Note_off_c, 0, 60, 38
1, 354281, Poly_aftertouch_c, 0, 60, 0
1, 354284, Note_off_c, 0, 41, 53
1, 354284, Poly_aftertouch_c, 0, 41, 0
1, 354287, Control_c, 0, 67, 22
1, 354288, Note_on_c, 0, 53, 35
1, 354294, Note_on_c, 0, 59, 52
1, 354320, Note_on_c, 0, 65, 64
1, 354322, Note_on_c, 0, 50, 46
1, 354326, Control_c, 0, 64, 120
1, 354343, Control_c, 0, 64, 105
1, 354343, Control_c, 0, 67, 27
1, 354363, Control_c, 0, 64, 87
1, 354382, Control_c, 0, 64, 67
1, 354385, Control_c, 0, 67, 31
1, 354400, Control_c, 0, 64, 53
1, 354419, Control_c, 0, 64, 50
1, 354420, Control_c, 0, 67, 36
1, 354438, Control_c, 0, 64, 57
1, 354439, Note_off_c, 0, 59, 61
1, 354456, Control_c, 0, 64, 67
1, 354464, Note_off_c, 0, 50, 53
1, 354474, Control_c, 0, 64, 75
1, 354493, Control_c, 0, 64, 85
1, 354496, Note_on_c, 0, 41, 42
1, 354513, Control_c, 0, 64, 100
1, 354518, Note_off_c, 0, 53, 55
1, 354531, Control_c, 0, 64, 120
1, 354533, Control_c, 0, 67, 40
1, 354543, Note_off_c, 0, 65, 52
1, 354549, Control_c, 0, 64, 127
1, 354568, Control_c, 0, 67, 45
1, 354606, Control_c, 0, 67, 51
1, 354643, Control_c, 0, 67, 56
1, 354664, Note_off_c, 0, 41, 52
1, 354664, Poly_aftertouch_c, 0, 41, 0
1, 354680, Control_c, 0, 67, 61
1, 354691, Note_on_c, 0, 58, 60
1, 354697, Note_on_c, 0, 52, 55
1, 354716, Note_on_c, 0, 49, 50
1, 354717, Control_c, 0, 67, 67
1, 354737, Control_c, 0, 64, 122
1, 354756, Control_c, 0, 64, 104
1, 354758, Control_c, 0, 67, 72
1, 354775, Control_c, 0, 64, 85
1, 354794, Control_c, 0, 64, 73
1, 354796, Control_c, 0, 67, 76
1, 354830, Control_c, 0, 64, 77
1, 354850, Control_c, 0, 64, 84
1, 354868, Control_c, 0, 64, 92
1, 354886, Control_c, 0, 64, 105
1, 354887, Control_c, 0, 67, 80
1, 354904, Control_c, 0, 64, 121
1, 354914, Note_off_c, 0, 52, 61
1, 354919, Note_off_c, 0, 49, 51
1, 354923, Note_on_c, 0, 41, 46
1, 354924, Control_c, 0, 64, 127
1, 354942, Control_c, 0, 67, 86
1, 354981, Control_c, 0, 67, 91
1, 354989, Note_off_c, 0, 58, 55
1, 354997, Note_off_c, 0, 41, 51
1, 354997, Poly_aftertouch_c, 0, 41, 0
1, 355017, Control_c, 0, 67, 97
1, 355055, Control_c, 0, 67, 102
1, 355092, Control_c, 0, 67, 106
1, 355189, Note_on_c, 0, 51, 65
1, 355197, Note_on_c, 0, 63, 57
1, 355203, Control_c, 0, 64, 123
1, 355221, Control_c, 0, 64, 119
1, 355223, Note_on_c, 0, 57, 40
1, 355223, Note_on_c, 0, 48, 45
1, 355223, Control_c, 0, 67, 110
1, 355241, Control_c, 0, 64, 114
1, 355260, Control_c, 0, 64, 109
1, 355279, Control_c, 0, 64, 104
1, 355297, Control_c, 0, 64, 99
1, 355317, Control_c, 0, 64, 93
1, 355335, Control_c, 0, 64, 86
1, 355354, Control_c, 0, 64, 77
1, 355372, Control_c, 0, 64, 68
1, 355391, Control_c, 0, 64, 60
1, 355410, Control_c, 0, 64, 51
1, 355417, Note_off_c, 0, 48, 55
1, 355429, Control_c, 0, 64, 41
1, 355439, Note_on_c, 0, 41, 44
1, 355447, Control_c, 0, 64, 28
1, 355466, Control_c, 0, 64, 22
1, 355484, Control_c, 0, 64, 27
1, 355503, Control_c, 0, 64, 35
1, 355522, Control_c, 0, 64, 40
1, 355540, Control_c, 0, 64, 46
1, 355559, Control_c, 0, 64, 52
1, 355578, Control_c, 0, 64, 58
1, 355597, Control_c, 0, 64, 64
1, 355615, Control_c, 0, 64, 68
1, 355634, Control_c, 0, 64, 70
1, 355635, Note_off_c, 0, 41, 49
1, 355635, Poly_aftertouch_c, 0, 41, 0
1, 355672, Control_c, 0, 64, 72
1, 355683, Note_on_c, 0, 48, 37
1, 355710, Control_c, 0, 64, 77
1, 355728, Control_c, 0, 64, 81
1, 355746, Control_c, 0, 64, 85
1, 355784, Control_c, 0, 64, 92
1, 355821, Control_c, 0, 64, 97
1, 355859, Control_c, 0, 64, 103
1, 355909, Note_off_c, 0, 48, 42
1, 355919, Note_on_c, 0, 41, 43
1, 355951, Control_c, 0, 67, 114
1, 356029, Note_off_c, 0, 51, 56
1, 356154, Note_off_c, 0, 41, 31
1, 356154, Poly_aftertouch_c, 0, 41, 0
1, 356160, Note_on_c, 0, 52, 60
1, 356177, Note_on_c, 0, 49, 46
1, 356195, Control_c, 0, 64, 99
1, 356214, Control_c, 0, 64, 95
1, 356232, Control_c, 0, 64, 87
1, 356252, Control_c, 0, 64, 78
1, 356270, Control_c, 0, 64, 70
1, 356289, Control_c, 0, 64, 67
1, 356298, Note_off_c, 0, 57, 44
1, 356326, Control_c, 0, 64, 72
1, 356346, Control_c, 0, 64, 75
1, 356363, Control_c, 0, 64, 81
1, 356383, Control_c, 0, 64, 90
1, 356400, Control_c, 0, 64, 101
1, 356403, Note_off_c, 0, 49, 51
1, 356404, Note_on_c, 0, 41, 45
1, 356419, Control_c, 0, 64, 111
1, 356439, Control_c, 0, 64, 116
1, 356587, Control_c, 0, 64, 112
1, 356644, Control_c, 0, 64, 108
1, 356682, Control_c, 0, 64, 103
1, 356707, Note_on_c, 0, 53, 49
1, 356707, Note_on_c, 0, 57, 48
1, 356707, Poly_aftertouch_c, 0, 41, 24
1, 356737, Note_on_c, 0, 50, 38
1, 356737, Control_c, 0, 64, 99
1, 356765, Note_off_c, 0, 41, 32
1, 356765, Poly_aftertouch_c, 0, 41, 0
1, 356775, Control_c, 0, 64, 95
1, 356809, Note_off_c, 0, 52, 48
1, 356812, Control_c, 0, 64, 89
1, 356830, Control_c, 0, 64, 86
1, 356851, Control_c, 0, 64, 84
1, 356887, Control_c, 0, 64, 81
1, 356905, Control_c, 0, 64, 77
1, 356924, Control_c, 0, 64, 72
1, 356944, Control_c, 0, 64, 66
1, 356961, Control_c, 0, 64, 60
1, 356975, Note_off_c, 0, 63, 33
1, 356975, Note_off_c, 0, 50, 53
1, 356980, Control_c, 0, 64, 54
1, 356983, Note_on_c, 0, 41, 28
1, 357000, Control_c, 0, 64, 46
1, 357018, Control_c, 0, 64, 37
1, 357037, Control_c, 0, 64, 30
1, 357205, Control_c, 0, 64, 35
1, 357235, Note_on_c, 0, 50, 38
1, 357242, Control_c, 0, 64, 40
1, 357261, Control_c, 0, 64, 42
1, 357281, Control_c, 0, 64, 45
1, 357282, Note_off_c, 0, 41, 33
1, 357282, Poly_aftertouch_c, 0, 41, 0
1, 357298, Control_c, 0, 64, 48
1, 357316, Control_c, 0, 64, 53
1, 357336, Control_c, 0, 64, 59
1, 357354, Control_c, 0, 64, 64
1, 357373, Control_c, 0, 64, 68
1, 357391, Control_c, 0, 64, 70
1, 357428, Control_c, 0, 64, 73
1, 357462, Note_off_c, 0, 50, 52
1, 357465, Control_c, 0, 64, 77
1, 357470, Note_on_c, 0, 41, 31
1, 357503, Control_c, 0, 64, 80
1, 357747, Control_c, 0, 64, 78
1, 357757, Note_on_c, 0, 51, 40
1, 357769, Note_on_c, 0, 48, 32
1, 357804, Note_off_c, 0, 41, 36
1, 357804, Poly_aftertouch_c, 0, 41, 0
1, 357840, Control_c, 0, 64, 74
1, 357860, Control_c, 0, 64, 72
1, 357878, Control_c, 0, 64, 68
1, 357896, Control_c, 0, 64, 63
1, 357915, Control_c, 0, 64, 59
1, 357934, Control_c, 0, 64, 55
1, 357990, Control_c, 0, 64, 57
1, 358009, Control_c, 0, 64, 60
1, 358028, Control_c, 0, 64, 63
1, 358046, Control_c, 0, 64, 68
1, 358055, Note_off_c, 0, 53, 33
1, 358057, Note_on_c, 0, 41, 34
1, 358064, Control_c, 0, 64, 71
1, 358066, Note_off_c, 0, 48, 44
1, 358084, Control_c, 0, 64, 74
1, 358103, Control_c, 0, 64, 78
1, 358104, Control_c, 0, 67, 110
1, 358121, Control_c, 0, 64, 81
1, 358139, Control_c, 0, 64, 84
1, 358158, Control_c, 0, 64, 86
1, 358214, Control_c, 0, 64, 90
1, 358290, Control_c, 0, 67, 106
1, 358379, Note_off_c, 0, 41, 39
1, 358379, Poly_aftertouch_c, 0, 41, 0
1, 358382, Control_c, 0, 67, 101
1, 358408, Note_on_c, 0, 48, 36
1, 358458, Control_c, 0, 67, 97
1, 358477, Control_c, 0, 64, 88
1, 358533, Control_c, 0, 64, 86
1, 358534, Control_c, 0, 67, 93
1, 358571, Control_c, 0, 64, 82
1, 358588, Control_c, 0, 64, 78
1, 358591, Control_c, 0, 67, 89
1, 358607, Control_c, 0, 64, 73
1, 358627, Control_c, 0, 64, 65
1, 358628, Control_c, 0, 67, 84
1, 358644, Control_c, 0, 64, 56
1, 358663, Control_c, 0, 64, 46
1, 358665, Control_c, 0, 67, 79
1, 358682, Control_c, 0, 64, 42
1, 358701, Control_c, 0, 67, 73
1, 358719, Control_c, 0, 64, 46
1, 358738, Control_c, 0, 64, 49
1, 358756, Control_c, 0, 64, 51
1, 358759, Note_off_c, 0, 48, 40
1, 358761, Note_on_c, 0, 42, 33
1, 358776, Control_c, 0, 64, 54
1, 358777, Control_c, 0, 67, 68
1, 358794, Control_c, 0, 64, 60
1, 358813, Control_c, 0, 64, 66
1, 358833, Control_c, 0, 64, 71
1, 358850, Control_c, 0, 64, 74
1, 358851, Control_c, 0, 67, 64
1, 358869, Control_c, 0, 64, 76
1, 358906, Control_c, 0, 64, 79
1, 358925, Control_c, 0, 64, 82
1, 358945, Control_c, 0, 64, 85
1, 358947, Control_c, 0, 67, 60
1, 358982, Control_c, 0, 64, 91
1, 359019, Control_c, 0, 64, 97
1, 359037, Note_on_c, 0, 48, 39
1, 359037, Control_c, 0, 67, 56
1, 359045, Note_off_c, 0, 42, 41
1, 359056, Control_c, 0, 64, 102
1, 359075, Control_c, 0, 64, 106
1, 359112, Control_c, 0, 64, 112
1, 359130, Control_c, 0, 67, 51
1, 359148, Note_off_c, 0, 51, 58
1, 359149, Control_c, 0, 64, 116
1, 359187, Control_c, 0, 67, 45
1, 359225, Control_c, 0, 67, 41
1, 359255, Note_off_c, 0, 48, 44
1, 359263, Note_on_c, 0, 42, 39
1, 359300, Control_c, 0, 67, 37
1, 359319, Note_off_c, 0, 57, 27
1, 359374, Control_c, 0, 67, 32
1, 359449, Control_c, 0, 67, 27
1, 359502, Note_on_c, 0, 64, 52
1, 359511, Note_on_c, 0, 52, 47
1, 359516, Note_on_c, 0, 49, 44
1, 359522, Control_c, 0, 64, 112
1, 359524, Note_off_c, 0, 42, 36
1, 359561, Control_c, 0, 64, 102
1, 359579, Control_c, 0, 64, 91
1, 359598, Control_c, 0, 64, 77
1, 359617, Control_c, 0, 64, 64
1, 359618, Control_c, 0, 67, 23
1, 359636, Control_c, 0, 64, 57
1, 359673, Control_c, 0, 64, 62
1, 359692, Control_c, 0, 64, 66
1, 359693, Control_c, 0, 67, 18
1, 359710, Note_off_c, 0, 49, 49
1, 359710, Control_c, 0, 64, 70
1, 359724, Note_on_c, 0, 42, 36
1, 359729, Control_c, 0, 64, 74
1, 359748, Control_c, 0, 64, 80
1, 359749, Control_c, 0, 67, 13
1, 359767, Control_c, 0, 64, 85
1, 359785, Control_c, 0, 64, 91
1, 359804, Control_c, 0, 64, 95
1, 359915, Control_c, 0, 64, 99
1, 360058, Note_on_c, 0, 58, 41
1, 360059, Note_on_c, 0, 54, 45
1, 360071, Note_on_c, 0, 51, 42
1, 360117, Note_off_c, 0, 42, 34
1, 360141, Control_c, 0, 64, 94
1, 360215, Control_c, 0, 64, 90
1, 360216, Control_c, 0, 67, 0
1, 360234, Control_c, 0, 64, 87
1, 360242, Note_off_c, 0, 52, 38
1, 360252, Control_c, 0, 64, 82
1, 360272, Control_c, 0, 64, 78
1, 360291, Control_c, 0, 64, 74
1, 360300, Note_off_c, 0, 64, 36
1, 360308, Control_c, 0, 64, 70
1, 360327, Control_c, 0, 64, 65
1, 360336, Note_off_c, 0, 51, 50
1, 360342, Note_on_c, 0, 42, 33
1, 360347, Control_c, 0, 64, 59
1, 360365, Control_c, 0, 64, 54
1, 360383, Control_c, 0, 64, 49
1, 360478, Control_c, 0, 64, 53
1, 360496, Control_c, 0, 64, 55
1, 360514, Control_c, 0, 64, 58
1, 360534, Control_c, 0, 64, 62
1, 360552, Control_c, 0, 64, 65
1, 360571, Control_c, 0, 64, 67
1, 360608, Control_c, 0, 64, 70
1, 360616, Note_on_c, 0, 51, 32
1, 360627, Control_c, 0, 64, 73
1, 360634, Note_off_c, 0, 42, 42
1, 360664, Control_c, 0, 64, 77
1, 360702, Control_c, 0, 64, 80
1, 360739, Control_c, 0, 64, 83
1, 360777, Control_c, 0, 64, 85
1, 360814, Control_c, 0, 64, 87
1, 360817, Note_on_c, 0, 42, 30
1, 360819, Note_off_c, 0, 51, 47
1, 361112, Control_c, 0, 64, 85
1, 361114, Note_on_c, 0, 52, 38
1, 361141, Note_on_c, 0, 49, 32
1, 361169, Control_c, 0, 64, 82
1, 361172, Note_off_c, 0, 42, 37
1, 361187, Control_c, 0, 64, 78
1, 361206, Control_c, 0, 64, 73
1, 361224, Control_c, 0, 64, 68
1, 361241, Note_off_c, 0, 54, 51
1, 361243, Control_c, 0, 64, 63
1, 361262, Control_c, 0, 64, 62
1, 361282, Control_c, 0, 64, 63
1, 361300, Control_c, 0, 64, 66
1, 361319, Control_c, 0, 64, 68
1, 361337, Control_c, 0, 64, 71
1, 361345, Note_on_c, 0, 42, 43
1, 361356, Control_c, 0, 64, 75
1, 361357, Note_off_c, 0, 49, 45
1, 361375, Control_c, 0, 64, 80
1, 361393, Control_c, 0, 64, 84
1, 361412, Control_c, 0, 64, 89
1, 361449, Control_c, 0, 64, 95
1, 361589, Note_on_c, 0, 49, 46
1, 361677, Note_off_c, 0, 42, 23
1, 361729, Control_c, 0, 64, 89
1, 361749, Control_c, 0, 64, 81
1, 361767, Control_c, 0, 64, 70
1, 361787, Control_c, 0, 64, 60
1, 361803, Control_c, 0, 64, 50
1, 361808, Note_on_c, 0, 43, 45
1, 361811, Note_off_c, 0, 49, 50
1, 361823, Control_c, 0, 64, 44
1, 361843, Control_c, 0, 64, 47
1, 361862, Control_c, 0, 64, 55
1, 361879, Control_c, 0, 64, 65
1, 361899, Control_c, 0, 64, 75
1, 361917, Control_c, 0, 64, 86
1, 361935, Control_c, 0, 64, 99
1, 361955, Control_c, 0, 64, 113
1, 361973, Control_c, 0, 64, 126
1, 362006, Note_on_c, 0, 49, 50
1, 362036, Note_off_c, 0, 43, 37
1, 362107, Note_off_c, 0, 58, 35
1, 362113, Note_off_c, 0, 52, 33
1, 362205, Note_on_c, 0, 43, 52
1, 362221, Note_off_c, 0, 49, 46
1, 362412, Note_on_c, 0, 65, 51
1, 362418, Note_on_c, 0, 53, 51
1, 362434, Note_on_c, 0, 50, 50
1, 362440, Control_c, 0, 64, 114
1, 362459, Control_c, 0, 64, 95
1, 362478, Control_c, 0, 64, 77
1, 362497, Control_c, 0, 64, 64
1, 362515, Control_c, 0, 64, 63
1, 362534, Control_c, 0, 64, 68
1, 362538, Note_off_c, 0, 43, 36
1, 362554, Control_c, 0, 64, 75
1, 362571, Control_c, 0, 64, 83
1, 362591, Control_c, 0, 64, 96
1, 362608, Control_c, 0, 64, 115
1, 362627, Control_c, 0, 64, 127
1, 362635, Note_on_c, 0, 43, 47
1, 362655, Note_off_c, 0, 50, 55
1, 362877, Note_on_c, 0, 59, 53
1, 362884, Note_on_c, 0, 55, 48
1, 362891, Note_on_c, 0, 52, 52
1, 362956, Note_off_c, 0, 53, 51
1, 362983, Control_c, 0, 64, 105
1, 363002, Control_c, 0, 64, 83
1, 363005, Note_off_c, 0, 43, 53
1, 363020, Control_c, 0, 64, 64
1, 363039, Control_c, 0, 64, 56
1, 363057, Control_c, 0, 64, 60
1, 363076, Control_c, 0, 64, 69
1, 363094, Control_c, 0, 64, 82
1, 363113, Control_c, 0, 64, 101
1, 363119, Note_on_c, 0, 43, 50
1, 363132, Control_c, 0, 64, 127
1, 363156, Note_off_c, 0, 52, 55
1, 363305, Note_off_c, 0, 65, 43
1, 363336, Note_on_c, 0, 52, 57
1, 363347, Note_off_c, 0, 43, 54
1, 363495, Note_off_c, 0, 52, 59
1, 363511, Note_on_c, 0, 43, 59
1, 363517, Note_off_c, 0, 55, 52
1, 363517, Poly_aftertouch_c, 0, 55, 0
1, 363522, Note_off_c, 0, 59, 58
1, 363717, Note_on_c, 0, 65, 59
1, 363719, Note_on_c, 0, 53, 59
1, 363727, Note_on_c, 0, 50, 60
1, 363745, Note_off_c, 0, 43, 54
1, 363748, Control_c, 0, 64, 112
1, 363767, Control_c, 0, 64, 86
1, 363787, Control_c, 0, 64, 63
1, 363805, Control_c, 0, 64, 49
1, 363824, Control_c, 0, 64, 44
1, 363843, Control_c, 0, 64, 51
1, 363862, Control_c, 0, 64, 65
1, 363880, Control_c, 0, 64, 82
1, 363896, Note_off_c, 0, 50, 59
1, 363900, Control_c, 0, 64, 105
1, 363901, Note_on_c, 0, 43, 63
1, 363919, Control_c, 0, 64, 127
1, 364089, Note_on_c, 0, 55, 60
1, 364089, Note_on_c, 0, 59, 66
1, 364103, Note_on_c, 0, 52, 62
1, 364128, Note_off_c, 0, 53, 60
1, 364141, Note_off_c, 0, 65, 59
1, 364141, Note_off_c, 0, 43, 54
1, 364180, Control_c, 0, 64, 116
1, 364198, Control_c, 0, 64, 81
1, 364217, Control_c, 0, 64, 47
1, 364236, Control_c, 0, 64, 0
1, 364290, Note_on_c, 0, 43, 65
1, 364290, Control_c, 0, 64, 41
1, 364294, Note_off_c, 0, 52, 60
1, 364311, Control_c, 0, 64, 70
1, 364329, Control_c, 0, 64, 99
1, 364347, Control_c, 0, 64, 127
1, 364416, Note_off_c, 0, 55, 57
1, 364416, Poly_aftertouch_c, 0, 55, 0
1, 364464, Note_off_c, 0, 59, 61
1, 364487, Note_on_c, 0, 52, 66
1, 364510, Note_off_c, 0, 43, 57
1, 364645, Note_off_c, 0, 52, 59
1, 364650, Note_on_c, 0, 43, 72
1, 364835, Note_on_c, 0, 69, 79
1, 364846, Note_on_c, 0, 57, 71
1, 364848, Note_on_c, 0, 53, 71
1, 364852, Control_c, 0, 64, 121
1, 364872, Control_c, 0, 64, 87
1, 364884, Note_off_c, 0, 43, 56
1, 364888, Control_c, 0, 64, 53
1, 364908, Control_c, 0, 64, 0
1, 364965, Control_c, 0, 64, 11
1, 364984, Control_c, 0, 64, 49
1, 365003, Control_c, 0, 64, 77
1, 365020, Control_c, 0, 64, 109
1, 365023, Note_on_c, 0, 43, 73
1, 365029, Note_off_c, 0, 53, 59
1, 365039, Control_c, 0, 64, 127
1, 365186, Note_off_c, 0, 57, 62
1, 365202, Note_on_c, 0, 59, 74
1, 365203, Note_on_c, 0, 62, 77
1, 365214, Note_on_c, 0, 55, 75
1, 365240, Note_off_c, 0, 43, 53
1, 365263, Note_off_c, 0, 69, 51
1, 365263, Poly_aftertouch_c, 0, 69, 0
1, 365263, Control_c, 0, 64, 100
1, 365283, Control_c, 0, 64, 66
1, 365301, Control_c, 0, 64, 28
1, 365320, Control_c, 0, 64, 0
1, 365358, Control_c, 0, 64, 18
1, 365376, Control_c, 0, 64, 56
1, 365390, Note_on_c, 0, 43, 72
1, 365394, Note_off_c, 0, 55, 59
1, 365394, Poly_aftertouch_c, 0, 55, 0
1, 365395, Control_c, 0, 64, 93
1, 365414, Control_c, 0, 64, 127
1, 365560, Note_off_c, 0, 59, 58
1, 365578, Note_on_c, 0, 55, 72
1, 365599, Note_off_c, 0, 62, 60
1, 365599, Poly_aftertouch_c, 0, 62, 0
1, 365601, Note_off_c, 0, 43, 59
1, 365745, Note_off_c, 0, 55, 60
1, 365745, Poly_aftertouch_c, 0, 55, 0
1, 365749, Note_on_c, 0, 43, 70
1, 365882, Note_off_c, 0, 43, 60
1, 365925, Note_on_c, 0, 72, 82
1, 365930, Note_on_c, 0, 57, 76
1, 365932, Note_on_c, 0, 60, 82
1, 365955, Control_c, 0, 64, 103
1, 365974, Control_c, 0, 64, 62
1, 365993, Control_c, 0, 64, 8
1, 366012, Control_c, 0, 64, 0
1, 366030, Control_c, 0, 64, 21
1, 366049, Control_c, 0, 64, 65
1, 366069, Control_c, 0, 64, 110
1, 366086, Control_c, 0, 64, 127
1, 366095, Note_on_c, 0, 43, 73
1, 366100, Note_off_c, 0, 57, 58
1, 366203, Note_off_c, 0, 43, 63
1, 366239, Note_off_c, 0, 60, 62
1, 366239, Poly_aftertouch_c, 0, 60, 0
1, 366271, Note_on_c, 0, 62, 83
1, 366273, Note_on_c, 0, 65, 80
1, 366273, Control_c, 0, 64, 83
1, 366284, Note_on_c, 0, 59, 79
1, 366303, Note_off_c, 0, 72, 56
1, 366311, Control_c, 0, 64, 0
1, 366368, Control_c, 0, 64, 20
1, 366386, Control_c, 0, 64, 90
1, 366390, Note_off_c, 0, 59, 61
1, 366405, Control_c, 0, 64, 127
1, 366454, Note_on_c, 0, 43, 72
1, 366554, Note_off_c, 0, 62, 59
1, 366554, Poly_aftertouch_c, 0, 62, 0
1, 366573, Note_off_c, 0, 43, 62
1, 366587, Note_off_c, 0, 65, 60
1, 366610, Poly_aftertouch_c, 0, 50, 0
1, 366630, Note_on_c, 0, 59, 81
1, 366740, Note_off_c, 0, 59, 57
1, 366789, Note_on_c, 0, 43, 72
1, 366855, Note_off_c, 0, 43, 63
1, 366887, Poly_aftertouch_c, 0, 50, 0
1, 366987, Note_on_c, 0, 76, 88
1, 366993, Note_on_c, 0, 60, 80
1, 366994, Note_on_c, 0, 64, 87
1, 367002, Control_c, 0, 64, 97
1, 367022, Control_c, 0, 64, 57
1, 367041, Control_c, 0, 64, 47
1, 367054, Note_off_c, 0, 60, 64
1, 367054, Poly_aftertouch_c, 0, 60, 0
1, 367057, Control_c, 0, 64, 66
1, 367079, Control_c, 0, 64, 97
1, 367096, Control_c, 0, 64, 127
1, 367162, Note_on_c, 0, 43, 80
1, 367224, Note_off_c, 0, 43, 64
1, 367323, Note_off_c, 0, 64, 60
1, 367340, Control_c, 0, 64, 112
1, 367359, Control_c, 0, 64, 74
1, 367375, Control_c, 0, 64, 28
1, 367378, Note_on_c, 0, 65, 87
1, 367379, Note_on_c, 0, 69, 81
1, 367388, Note_on_c, 0, 62, 85
1, 367393, Control_c, 0, 64, 0
1, 367428, Note_off_c, 0, 76, 60
1, 367432, Control_c, 0, 64, 33
1, 367450, Note_off_c, 0, 62, 64
1, 367450, Poly_aftertouch_c, 0, 62, 0
1, 367451, Control_c, 0, 64, 77
1, 367470, Control_c, 0, 64, 127
1, 367583, Note_on_c, 0, 43, 81
1, 367646, Note_off_c, 0, 43, 64
1, 367721, Note_off_c, 0, 65, 59
1, 367769, Note_off_c, 0, 69, 58
1, 367769, Poly_aftertouch_c, 0, 69, 0
1, 367798, Note_on_c, 0, 62, 89
1, 367866, Note_off_c, 0, 62, 65
1, 367866, Poly_aftertouch_c, 0, 62, 0
1, 368005, Note_on_c, 0, 43, 84
1, 368058, Note_off_c, 0, 43, 65
1, 368222, Note_on_c, 0, 77, 89
1, 368231, Note_on_c, 0, 69, 83
1, 368232, Note_on_c, 0, 65, 88
1, 368242, Note_on_c, 0, 62, 85
1, 368299, Note_off_c, 0, 62, 65
1, 368299, Poly_aftertouch_c, 0, 62, 0
1, 368437, Note_on_c, 0, 43, 81
1, 368475, Note_off_c, 0, 43, 66
1, 368541, Note_off_c, 0, 69, 54
1, 368541, Poly_aftertouch_c, 0, 69, 0
1, 368546, Note_off_c, 0, 65, 54
1, 368574, Note_off_c, 0, 77, 52
1, 368574, Poly_aftertouch_c, 0, 77, 0
1, 368686, Control_c, 0, 64, 113
1, 368691, Note_on_c, 0, 77, 93
1, 368693, Note_on_c, 0, 62, 83
1, 368694, Note_on_c, 0, 71, 85
1, 368696, Note_on_c, 0, 65, 90
1, 368702, Note_on_c, 0, 53, 75
1, 368704, Control_c, 0, 64, 67
1, 368707, Note_on_c, 0, 55, 74
1, 368723, Control_c, 0, 64, 24
1, 368736, Note_off_c, 0, 62, 61
1, 368736, Poly_aftertouch_c, 0, 62, 0
1, 368741, Control_c, 0, 64, 31
1, 368761, Control_c, 0, 64, 67
1, 368766, Note_off_c, 0, 55, 61
1, 368766, Poly_aftertouch_c, 0, 55, 0
1, 368768, Note_off_c, 0, 53, 61
1, 368780, Control_c, 0, 64, 105
1, 368798, Control_c, 0, 64, 127
1, 368939, Note_on_c, 0, 43, 82
1, 368997, Note_off_c, 0, 43, 65
1, 369191, Note_on_c, 0, 62, 88
1, 369199, Note_on_c, 0, 53, 80
1, 369199, Note_on_c, 0, 55, 81
1, 369235, Note_off_c, 0, 62, 62
1, 369235, Poly_aftertouch_c, 0, 62, 0
1, 369263, Note_off_c, 0, 55, 64
1, 369263, Poly_aftertouch_c, 0, 55, 0
1, 369268, Note_off_c, 0, 53, 64
1, 369316, Poly_aftertouch_c, 0, 56, 0
1, 369446, Note_on_c, 0, 43, 83
1, 369511, Note_off_c, 0, 43, 63
1, 369699, Note_on_c, 0, 62, 88
1, 369704, Note_on_c, 0, 53, 69
1, 369704, Note_on_c, 0, 55, 78
1, 369735, Note_off_c, 0, 62, 64
1, 369735, Poly_aftertouch_c, 0, 62, 0
1, 369756, Note_off_c, 0, 55, 66
1, 369756, Poly_aftertouch_c, 0, 55, 0
1, 369779, Note_off_c, 0, 53, 62
1, 369932, Note_off_c, 0, 65, 60
1, 369940, Note_on_c, 0, 43, 85
1, 369944, Note_off_c, 0, 71, 62
1, 369984, Note_off_c, 0, 77, 58
1, 369984, Poly_aftertouch_c, 0, 77, 0
1, 369990, Note_off_c, 0, 43, 65
1, 370200, Control_c, 0, 64, 86
1, 370219, Control_c, 0, 64, 12
1, 370234, Note_on_c, 0, 64, 88
1, 370238, Note_on_c, 0, 60, 82
1, 370238, Control_c, 0, 64, 0
1, 370240, Note_on_c, 0, 55, 74
1, 370241, Note_on_c, 0, 79, 93
1, 370243, Note_on_c, 0, 70, 92
1, 370244, Note_on_c, 0, 67, 98
1, 370244, Note_on_c, 0, 76, 87
1, 370245, Note_on_c, 0, 52, 79
1, 370274, Note_off_c, 0, 64, 67
1, 370276, Control_c, 0, 64, 30
1, 370293, Note_off_c, 0, 60, 66
1, 370293, Poly_aftertouch_c, 0, 60, 0
1, 370293, Control_c, 0, 64, 76
1, 370309, Note_off_c, 0, 55, 65
1, 370309, Poly_aftertouch_c, 0, 55, 0
1, 370312, Control_c, 0, 64, 127
1, 370315, Note_off_c, 0, 52, 60
1, 370531, Note_on_c, 0, 48, 88
1, 370545, Note_on_c, 0, 36, 79
1, 370580, Note_off_c, 0, 48, 67
1, 370582, Note_off_c, 0, 36, 63
1, 370585, Note_on_c, 0, 35, 32
1, 370586, Note_off_c, 0, 35, 127
1, 370852, Note_on_c, 0, 64, 94
1, 370855, Note_on_c, 0, 60, 88
1, 370855, Note_on_c, 0, 52, 88
1, 370857, Note_on_c, 0, 55, 79
1, 370873, Control_c, 0, 64, 88
1, 370887, Note_off_c, 0, 64, 65
1, 370891, Control_c, 0, 64, 45
1, 370911, Control_c, 0, 64, 37
1, 370913, Note_off_c, 0, 60, 66
1, 370913, Poly_aftertouch_c, 0, 60, 0
1, 370931, Control_c, 0, 64, 63
1, 370933, Note_off_c, 0, 55, 65
1, 370933, Poly_aftertouch_c, 0, 55, 0
1, 370935, Note_off_c, 0, 52, 63
1, 370948, Control_c, 0, 64, 94
1, 370967, Control_c, 0, 64, 127
1, 371159, Note_on_c, 0, 48, 91
1, 371168, Note_on_c, 0, 36, 91
1, 371200, Note_off_c, 0, 36, 71
1, 371207, Note_off_c, 0, 48, 66
1, 371528, Control_c, 0, 64, 86
1, 371529, Note_on_c, 0, 64, 97
1, 371530, Note_on_c, 0, 60, 90
1, 371532, Note_on_c, 0, 52, 88
1, 371535, Note_on_c, 0, 55, 79
1, 371552, Control_c, 0, 64, 21
1, 371566, Control_c, 0, 64, 0
1, 371572, Note_off_c, 0, 64, 66
1, 371595, Note_off_c, 0, 60, 66
1, 371595, Poly_aftertouch_c, 0, 60, 0
1, 371602, Control_c, 0, 64, 66
1, 371613, Note_off_c, 0, 52, 64
1, 371617, Note_off_c, 0, 55, 62
1, 371617, Poly_aftertouch_c, 0, 55, 0
1, 371621, Control_c, 0, 64, 109
1, 371640, Control_c, 0, 64, 127
1, 371902, Control_c, 0, 64, 81
1, 371905, Note_on_c, 0, 48, 102
1, 371910, Note_on_c, 0, 36, 96
1, 371921, Control_c, 0, 64, 0
1, 371954, Note_off_c, 0, 48, 69
1, 371957, Control_c, 0, 64, 57
1, 371977, Control_c, 0, 64, 102
1, 371979, Note_off_c, 0, 36, 62
1, 371995, Control_c, 0, 64, 127
1, 372029, Poly_aftertouch_c, 0, 39, 0
1, 372032, Note_off_c, 0, 76, 56
1, 372054, Note_off_c, 0, 79, 59
1, 372054, Poly_aftertouch_c, 0, 79, 0
1, 372059, Note_off_c, 0, 70, 58
1, 372084, Note_off_c, 0, 67, 58
1, 372084, Poly_aftertouch_c, 0, 67, 0
1, 372201, Control_c, 0, 64, 103
1, 372219, Control_c, 0, 64, 75
1, 372239, Control_c, 0, 64, 46
1, 372257, Control_c, 0, 64, 0
1, 372399, Note_on_c, 0, 41, 99
1, 372401, Note_on_c, 0, 29, 92
1, 372455, Note_off_c, 0, 29, 64
1, 372462, Control_c, 0, 64, 68
1, 372463, Note_off_c, 0, 41, 67
1, 372463, Poly_aftertouch_c, 0, 41, 0
1, 372481, Control_c, 0, 64, 127
1, 373005, Control_c, 0, 64, 82
1, 373017, Note_on_c, 0, 81, 98
1, 373024, Note_on_c, 0, 53, 82
1, 373024, Control_c, 0, 64, 42
1, 373025, Note_on_c, 0, 69, 96
1, 373025, Note_on_c, 0, 65, 102
1, 373026, Note_on_c, 0, 72, 86
1, 373031, Note_on_c, 0, 60, 87
1, 373051, Control_c, 0, 64, 59
1, 373061, Control_c, 0, 64, 95
1, 373080, Control_c, 0, 64, 127
1, 373081, Note_off_c, 0, 65, 67
1, 373093, Note_off_c, 0, 72, 62
1, 373102, Note_off_c, 0, 53, 63
1, 373109, Note_off_c, 0, 60, 65
1, 373109, Poly_aftertouch_c, 0, 60, 0
1, 373120, Note_on_c, 0, 61, 57
1, 373121, Note_off_c, 0, 61, 127
1, 373169, Note_off_c, 0, 69, 57
1, 373169, Poly_aftertouch_c, 0, 69, 0
1, 373409, Note_off_c, 0, 81, 59
1, 373421, Note_on_c, 0, 79, 79
1, 373500, Note_off_c, 0, 79, 62
1, 373500, Poly_aftertouch_c, 0, 79, 0
1, 373503, Note_on_c, 0, 77, 82
1, 373566, Control_c, 0, 64, 95
1, 373581, Note_off_c, 0, 77, 64
1, 373581, Note_on_c, 0, 77, 61
1, 373582, Note_on_c, 0, 86, 101
1, 373585, Control_c, 0, 64, 15
1, 373586, Note_on_c, 0, 46, 102
1, 373589, Note_on_c, 0, 34, 99
1, 373590, Note_on_c, 0, 74, 102
1, 373590, Note_on_c, 0, 79, 97
1, 373611, Control_c, 0, 64, 0
1, 373622, Control_c, 0, 64, 51
1, 373636, Note_off_c, 0, 46, 64
1, 373641, Control_c, 0, 64, 94
1, 373648, Note_off_c, 0, 34, 64
1, 373659, Control_c, 0, 64, 127
1, 373666, Note_on_c, 0, 82, 23
1, 373719, Note_off_c, 0, 82, 43
1, 373719, Poly_aftertouch_c, 0, 82, 0
1, 373886, Note_on_c, 0, 45, 82
1, 373887, Note_on_c, 0, 33, 84
1, 373917, Note_off_c, 0, 33, 64
1, 373918, Note_off_c, 0, 45, 66
1, 373940, Control_c, 0, 64, 79
1, 373959, Control_c, 0, 64, 40
1, 373968, Note_on_c, 0, 43, 96
1, 373977, Note_on_c, 0, 31, 91
1, 373978, Control_c, 0, 64, 61
1, 373989, Note_on_c, 0, 33, 72
1, 373997, Control_c, 0, 64, 105
1, 374006, Note_off_c, 0, 31, 70
1, 374013, Note_off_c, 0, 43, 67
1, 374016, Control_c, 0, 64, 127
1, 374018, Note_off_c, 0, 33, 59
1, 374145, Control_c, 0, 64, 120
1, 374158, Note_on_c, 0, 55, 102
1, 374163, Note_on_c, 0, 43, 98
1, 374163, Control_c, 0, 64, 64
1, 374183, Control_c, 0, 64, 0
1, 374185, Note_off_c, 0, 79, 56
1, 374185, Poly_aftertouch_c, 0, 31, 0
1, 374185, Poly_aftertouch_c, 0, 79, 0
1, 374198, Note_off_c, 0, 74, 58
1, 374201, Note_off_c, 0, 86, 59
1, 374201, Note_off_c, 0, 77, 54
1, 374201, Poly_aftertouch_c, 0, 77, 0
1, 374201, Control_c, 0, 64, 31
1, 374220, Control_c, 0, 64, 81
1, 374239, Control_c, 0, 64, 127
1, 374279, Note_off_c, 0, 43, 58
1, 374288, Note_off_c, 0, 55, 59
1, 374288, Poly_aftertouch_c, 0, 55, 0
1, 374423, Note_on_c, 0, 86, 96
1, 374424, Note_on_c, 0, 82, 91
1, 374426, Note_on_c, 0, 79, 88
1, 374427, Note_on_c, 0, 77, 88
1, 374429, Note_on_c, 0, 74, 95
1, 374651, Control_c, 0, 64, 108
1, 374669, Control_c, 0, 64, 35
1, 374686, Note_on_c, 0, 52, 108
1, 374687, Control_c, 0, 64, 0
1, 374693, Note_on_c, 0, 40, 102
1, 374726, Control_c, 0, 64, 44
1, 374728, Note_off_c, 0, 77, 58
1, 374728, Poly_aftertouch_c, 0, 77, 0
1, 374744, Control_c, 0, 64, 90
1, 374745, Note_off_c, 0, 79, 58
1, 374745, Poly_aftertouch_c, 0, 79, 0
1, 374762, Control_c, 0, 64, 127
1, 374779, Note_off_c, 0, 74, 47
1, 374782, Note_off_c, 0, 82, 54
1, 374782, Poly_aftertouch_c, 0, 82, 0
1, 374788, Note_off_c, 0, 52, 60
1, 374789, Note_off_c, 0, 86, 58
1, 374793, Note_off_c, 0, 40, 60
1, 374821, Poly_aftertouch_c, 0, 42, 127
1, 374830, Poly_aftertouch_c, 0, 42, 0
1, 374997, Note_on_c, 0, 82, 82
1, 374998, Note_on_c, 0, 76, 80
1, 374998, Note_on_c, 0, 74, 90
1, 375001, Note_on_c, 0, 86, 85
1, 375007, Note_on_c, 0, 79, 74
1, 375051, Note_on_c, 0, 50, 93
1, 375059, Note_on_c, 0, 38, 85
1, 375084, Note_off_c, 0, 50, 65
1, 375089, Note_off_c, 0, 38, 66
1, 375126, Note_off_c, 0, 86, 57
1, 375150, Note_on_c, 0, 48, 98
1, 375151, Note_on_c, 0, 36, 95
1, 375159, Note_off_c, 0, 82, 58
1, 375159, Poly_aftertouch_c, 0, 82, 0
1, 375179, Note_off_c, 0, 74, 54
1, 375181, Note_off_c, 0, 36, 71
1, 375185, Poly_aftertouch_c, 0, 40, 0
1, 375191, Note_off_c, 0, 48, 66
1, 375215, Note_off_c, 0, 76, 55
1, 375240, Note_off_c, 0, 79, 54
1, 375240, Poly_aftertouch_c, 0, 79, 0
1, 375285, Poly_aftertouch_c, 0, 38, 0
1, 375287, Control_c, 0, 64, 114
1, 375305, Control_c, 0, 64, 49
1, 375310, Note_on_c, 0, 84, 95
1, 375313, Note_on_c, 0, 79, 76
1, 375315, Note_on_c, 0, 72, 100
1, 375318, Note_on_c, 0, 76, 91
1, 375324, Control_c, 0, 64, 0
1, 375332, Note_on_c, 0, 60, 103
1, 375340, Note_on_c, 0, 48, 94
1, 375360, Control_c, 0, 64, 34
1, 375380, Control_c, 0, 64, 85
1, 375399, Control_c, 0, 64, 127
1, 375460, Note_off_c, 0, 72, 61
1, 375489, Note_off_c, 0, 84, 64
1, 375503, Note_off_c, 0, 79, 59
1, 375503, Poly_aftertouch_c, 0, 79, 0
1, 375506, Note_off_c, 0, 48, 59
1, 375513, Note_off_c, 0, 60, 61
1, 375513, Poly_aftertouch_c, 0, 60, 0
1, 375550, Note_off_c, 0, 76, 51
1, 375652, Note_on_c, 0, 70, 104
1, 375653, Note_on_c, 0, 82, 97
1, 375654, Note_on_c, 0, 79, 83
1, 375661, Note_on_c, 0, 76, 87
1, 375663, Control_c, 0, 64, 77
1, 375679, Control_c, 0, 64, 0
1, 375698, Note_on_c, 0, 75, 36
1, 375699, Note_off_c, 0, 75, 127
1, 375716, Control_c, 0, 64, 65
1, 375736, Control_c, 0, 64, 113
1, 375754, Control_c, 0, 64, 127
1, 375826, Note_off_c, 0, 79, 60
1, 375826, Poly_aftertouch_c, 0, 79, 0
1, 375837, Note_off_c, 0, 82, 60
1, 375837, Poly_aftertouch_c, 0, 82, 0
1, 375852, Note_off_c, 0, 76, 61
1, 375901, Note_off_c, 0, 70, 59
1, 375941, Control_c, 0, 64, 114
1, 375959, Control_c, 0, 64, 47
1, 375978, Control_c, 0, 64, 0
1, 375989, Note_on_c, 0, 53, 110
1, 375996, Note_on_c, 0, 41, 102
1, 376032, Note_off_c, 0, 53, 66
1, 376042, Note_off_c, 0, 41, 62
1, 376042, Poly_aftertouch_c, 0, 41, 0
1, 376052, Note_on_c, 0, 44, 18
1, 376052, Control_c, 0, 64, 51
1, 376072, Control_c, 0, 64, 116
1, 376090, Control_c, 0, 64, 127
1, 376119, Note_off_c, 0, 44, 53
1, 376351, Note_on_c, 0, 51, 81
1, 376353, Note_on_c, 0, 39, 80
1, 376379, Note_off_c, 0, 51, 65
1, 376382, Note_off_c, 0, 39, 64
1, 376445, Note_on_c, 0, 49, 93
1, 376452, Note_on_c, 0, 37, 88
1, 376466, Note_on_c, 0, 39, 59
1, 376474, Note_off_c, 0, 49, 68
1, 376480, Note_off_c, 0, 37, 66
1, 376502, Note_off_c, 0, 39, 59
1, 376539, Control_c, 0, 64, 88
1, 376552, Note_on_c, 0, 80, 96
1, 376553, Note_on_c, 0, 68, 105
1, 376556, Note_on_c, 0, 73, 94
1, 376557, Note_on_c, 0, 77, 84
1, 376558, Control_c, 0, 64, 0
1, 376576, Control_c, 0, 64, 19
1, 376577, Note_on_c, 0, 61, 110
1, 376583, Note_on_c, 0, 49, 94
1, 376596, Control_c, 0, 64, 80
1, 376614, Control_c, 0, 64, 127
1, 376624, Note_off_c, 0, 61, 66
1, 376639, Note_off_c, 0, 49, 54
1, 376642, Poly_aftertouch_c, 0, 37, 0
1, 376719, Note_off_c, 0, 77, 55
1, 376719, Poly_aftertouch_c, 0, 77, 0
1, 376722, Note_off_c, 0, 80, 62
1, 376722, Poly_aftertouch_c, 0, 80, 0
1, 376736, Note_off_c, 0, 68, 56
1, 376800, Note_off_c, 0, 73, 58
1, 376800, Poly_aftertouch_c, 0, 73, 0
1, 376890, Note_on_c, 0, 78, 79
1, 376891, Note_on_c, 0, 66, 78
1, 376918, Note_off_c, 0, 78, 68
1, 376928, Note_off_c, 0, 66, 63
1, 376972, Note_on_c, 0, 65, 84
1, 376979, Note_on_c, 0, 77, 86
1, 377000, Note_off_c, 0, 65, 70
1, 377034, Note_off_c, 0, 77, 64
1, 377034, Poly_aftertouch_c, 0, 77, 0
1, 377082, Control_c, 0, 64, 114
1, 377100, Control_c, 0, 64, 51
1, 377107, Note_on_c, 0, 46, 110
1, 377113, Note_on_c, 0, 34, 103
1, 377118, Control_c, 0, 64, 0
1, 377127, Note_on_c, 0, 90, 96
1, 377127, Note_on_c, 0, 78, 98
1, 377131, Note_on_c, 0, 85, 86
1, 377137, Control_c, 0, 64, 35
1, 377141, Note_on_c, 0, 37, 59
1, 377146, Note_on_c, 0, 87, 61
1, 377152, Note_on_c, 0, 91, 64
1, 377157, Control_c, 0, 64, 92
1, 377165, Note_on_c, 0, 80, 43
1, 377166, Note_off_c, 0, 80, 127
1, 377166, Poly_aftertouch_c, 0, 80, 0
1, 377172, Control_c, 0, 64, 127
1, 377175, Note_off_c, 0, 46, 59
1, 377175, Note_off_c, 0, 37, 56
1, 377202, Poly_aftertouch_c, 0, 80, 0
1, 377206, Note_off_c, 0, 91, 50
1, 377212, Note_off_c, 0, 34, 60
1, 377231, Poly_aftertouch_c, 0, 33, 127
1, 377271, Poly_aftertouch_c, 0, 86, 0
1, 377278, Poly_aftertouch_c, 0, 33, 0
1, 377279, Note_off_c, 0, 87, 37
1, 377433, Note_on_c, 0, 44, 101
1, 377436, Control_c, 0, 64, 107
1, 377439, Note_on_c, 0, 32, 91
1, 377456, Control_c, 0, 64, 44
1, 377464, Note_off_c, 0, 44, 73
1, 377472, Note_off_c, 0, 32, 65
1, 377475, Control_c, 0, 64, 0
1, 377493, Control_c, 0, 64, 67
1, 377511, Control_c, 0, 64, 127
1, 377528, Note_on_c, 0, 42, 102
1, 377532, Note_on_c, 0, 30, 99
1, 377559, Note_on_c, 0, 32, 53
1, 377560, Note_off_c, 0, 32, 127
1, 377572, Note_off_c, 0, 30, 67
1, 377579, Note_off_c, 0, 42, 65
1, 377674, Note_off_c, 0, 78, 60
1, 377715, Note_off_c, 0, 90, 60
1, 377737, Note_on_c, 0, 54, 105
1, 377740, Note_on_c, 0, 42, 101
1, 377743, Note_off_c, 0, 85, 58
1, 377755, Control_c, 0, 64, 104
1, 377773, Control_c, 0, 64, 45
1, 377791, Control_c, 0, 64, 0
1, 377866, Poly_aftertouch_c, 0, 44, 0
1, 377904, Control_c, 0, 64, 25
1, 377922, Control_c, 0, 64, 78
1, 377942, Control_c, 0, 64, 127
1, 378065, Note_on_c, 0, 85, 98
1, 378067, Note_on_c, 0, 82, 104
1, 378068, Note_on_c, 0, 90, 93
1, 378068, Note_on_c, 0, 94, 102
1, 378088, Note_off_c, 0, 54, 56
1, 378092, Note_off_c, 0, 42, 60
1, 378409, Control_c, 0, 64, 66
1, 378427, Control_c, 0, 64, 0
1, 378428, Note_on_c, 0, 52, 105
1, 378435, Note_on_c, 0, 40, 99
1, 378503, Control_c, 0, 64, 56
1, 378521, Control_c, 0, 64, 98
1, 378540, Note_off_c, 0, 85, 60
1, 378540, Control_c, 0, 64, 127
1, 378576, Note_off_c, 0, 90, 61
1, 378593, Note_off_c, 0, 82, 56
1, 378593, Poly_aftertouch_c, 0, 82, 0
1, 378629, Note_off_c, 0, 94, 60
1, 378659, Note_off_c, 0, 52, 53
1, 378682, Note_off_c, 0, 40, 57
1, 378758, Note_on_c, 0, 84, 85
1, 378760, Note_on_c, 0, 91, 83
1, 378762, Note_on_c, 0, 94, 95
1, 378765, Note_on_c, 0, 82, 87
1, 378783, Control_c, 0, 64, 96
1, 378801, Control_c, 0, 64, 70
1, 378821, Control_c, 0, 64, 82
1, 378840, Control_c, 0, 64, 112
1, 378853, Note_on_c, 0, 50, 98
1, 378857, Note_on_c, 0, 38, 91
1, 378857, Control_c, 0, 64, 127
1, 378898, Note_off_c, 0, 38, 64
1, 378901, Note_off_c, 0, 50, 67
1, 378959, Note_off_c, 0, 91, 57
1, 378972, Note_on_c, 0, 36, 96
1, 378973, Note_on_c, 0, 48, 101
1, 379002, Note_off_c, 0, 82, 63
1, 379002, Poly_aftertouch_c, 0, 82, 0
1, 379011, Note_off_c, 0, 94, 62
1, 379019, Note_off_c, 0, 48, 68
1, 379021, Note_off_c, 0, 36, 63
1, 379072, Note_off_c, 0, 84, 32
1, 379208, Note_on_c, 0, 93, 98
1, 379210, Note_on_c, 0, 88, 82
1, 379212, Control_c, 0, 64, 75
1, 379214, Note_on_c, 0, 81, 95
1, 379214, Note_on_c, 0, 84, 85
1, 379232, Control_c, 0, 64, 0
1, 379237, Note_on_c, 0, 60, 102
1, 379239, Note_on_c, 0, 48, 94
1, 379324, Control_c, 0, 64, 66
1, 379344, Control_c, 0, 64, 111
1, 379363, Control_c, 0, 64, 127
1, 379372, Note_off_c, 0, 88, 64
1, 379407, Note_off_c, 0, 84, 64
1, 379453, Note_off_c, 0, 93, 55
1, 379454, Note_off_c, 0, 60, 55
1, 379454, Poly_aftertouch_c, 0, 60, 0
1, 379484, Note_off_c, 0, 48, 53
1, 379527, Note_off_c, 0, 81, 60
1, 379698, Note_on_c, 0, 88, 88
1, 379701, Note_on_c, 0, 91, 96
1, 379702, Note_on_c, 0, 82, 90
1, 379706, Note_on_c, 0, 79, 96
1, 379860, Note_off_c, 0, 82, 62
1, 379860, Poly_aftertouch_c, 0, 82, 0
1, 379864, Note_off_c, 0, 88, 55
1, 379927, Poly_aftertouch_c, 0, 89, 0
1, 379929, Note_off_c, 0, 91, 61
1, 379986, Note_off_c, 0, 79, 57
1, 379986, Poly_aftertouch_c, 0, 79, 0
1, 380146, Note_on_c, 0, 89, 91
1, 380150, Note_on_c, 0, 84, 80
1, 380154, Note_on_c, 0, 77, 86
1, 380155, Note_on_c, 0, 81, 78
1, 380165, Note_on_c, 0, 41, 90
1, 380177, Note_on_c, 0, 29, 87
1, 380204, Control_c, 0, 64, 103
1, 380225, Control_c, 0, 64, 70
1, 380242, Control_c, 0, 64, 63
1, 380260, Control_c, 0, 64, 76
1, 380280, Control_c, 0, 64, 99
1, 380297, Control_c, 0, 64, 127
1, 380324, Note_off_c, 0, 84, 62
1, 380377, Note_off_c, 0, 29, 59
1, 380414, Note_off_c, 0, 41, 61
1, 380414, Poly_aftertouch_c, 0, 41, 0
1, 380418, Note_off_c, 0, 81, 59
1, 380444, Note_off_c, 0, 77, 53
1, 380444, Poly_aftertouch_c, 0, 77, 0
1, 380450, Note_off_c, 0, 89, 56
1, 380565, Note_on_c, 0, 89, 96
1, 380568, Note_on_c, 0, 77, 102
1, 380570, Note_on_c, 0, 85, 90
1, 380579, Control_c, 0, 64, 107
1, 380583, Note_on_c, 0, 45, 96
1, 380590, Note_on_c, 0, 33, 91
1, 380596, Control_c, 0, 64, 68
1, 380617, Control_c, 0, 64, 52
1, 380634, Control_c, 0, 64, 68
1, 380638, Note_off_c, 0, 85, 63
1, 380653, Note_off_c, 0, 89, 64
1, 380653, Control_c, 0, 64, 89
1, 380672, Control_c, 0, 64, 124
1, 380802, Note_off_c, 0, 33, 57
1, 380805, Note_off_c, 0, 45, 61
1, 380891, Note_on_c, 0, 82, 80
1, 380891, Note_on_c, 0, 86, 97
1, 380892, Note_on_c, 0, 74, 99
1, 380896, Control_c, 0, 64, 99
1, 380904, Note_off_c, 0, 77, 64
1, 380904, Note_on_c, 0, 77, 50
1, 380915, Control_c, 0, 64, 65
1, 380918, Note_on_c, 0, 46, 101
1, 380925, Note_on_c, 0, 34, 97
1, 380933, Control_c, 0, 64, 69
1, 380952, Control_c, 0, 64, 97
1, 380972, Control_c, 0, 64, 127
1, 380973, Note_off_c, 0, 86, 62
1, 380974, Note_on_c, 0, 39, 26
1, 380990, Note_off_c, 0, 77, 61
1, 380990, Note_on_c, 0, 33, 27
1, 380990, Poly_aftertouch_c, 0, 77, 0
1, 380996, Note_off_c, 0, 74, 63
1, 381007, Note_off_c, 0, 82, 64
1, 381007, Poly_aftertouch_c, 0, 82, 0
1, 381022, Note_off_c, 0, 33, 51
1, 381030, Note_off_c, 0, 39, 45
1, 381078, Note_off_c, 0, 34, 60
1, 381079, Note_off_c, 0, 46, 59
1, 381205, Note_on_c, 0, 82, 95
1, 381205, Note_on_c, 0, 70, 100
1, 381212, Note_on_c, 0, 78, 83
1, 381213, Control_c, 0, 64, 85
1, 381221, Note_on_c, 0, 50, 108
1, 381226, Note_on_c, 0, 38, 96
1, 381232, Control_c, 0, 64, 48
1, 381251, Control_c, 0, 64, 58
1, 381270, Control_c, 0, 64, 91
1, 381290, Control_c, 0, 64, 127
1, 381293, Note_off_c, 0, 78, 63
1, 381297, Note_off_c, 0, 82, 65
1, 381297, Poly_aftertouch_c, 0, 82, 0
1, 381396, Note_off_c, 0, 38, 57
1, 381409, Note_off_c, 0, 50, 52
1, 381412, Note_off_c, 0, 70, 55
1, 381532, Note_on_c, 0, 67, 96
1, 381532, Note_on_c, 0, 79, 94
1, 381537, Note_on_c, 0, 75, 90
1, 381539, Note_on_c, 0, 70, 89
1, 381547, Note_on_c, 0, 51, 102
1, 381550, Control_c, 0, 64, 95
1, 381556, Note_on_c, 0, 39, 93
1, 381570, Control_c, 0, 64, 45
1, 381588, Control_c, 0, 64, 0
1, 381606, Control_c, 0, 64, 40
1, 381626, Note_off_c, 0, 79, 64
1, 381626, Poly_aftertouch_c, 0, 79, 0
1, 381626, Control_c, 0, 64, 85
1, 381638, Note_off_c, 0, 67, 59
1, 381638, Poly_aftertouch_c, 0, 67, 0
1, 381643, Control_c, 0, 64, 127
1, 381651, Note_off_c, 0, 75, 65
1, 381656, Note_off_c, 0, 70, 66
1, 381799, Note_off_c, 0, 51, 53
1, 381814, Note_off_c, 0, 39, 59
1, 381906, Control_c, 0, 64, 85
1, 381914, Note_on_c, 0, 61, 98
1, 381915, Note_on_c, 0, 73, 95
1, 381916, Note_on_c, 0, 67, 80
1, 381916, Note_on_c, 0, 70, 82
1, 381921, Note_on_c, 0, 52, 97
1, 381926, Note_on_c, 0, 40, 90
1, 381926, Control_c, 0, 64, 0
1, 381980, Control_c, 0, 64, 52
1, 381999, Control_c, 0, 64, 101
1, 382018, Control_c, 0, 64, 127
1, 382043, Note_off_c, 0, 67, 61
1, 382043, Poly_aftertouch_c, 0, 67, 0
1, 382100, Note_off_c, 0, 70, 61
1, 382103, Note_off_c, 0, 40, 57
1, 382130, Note_off_c, 0, 61, 58
1, 382132, Note_off_c, 0, 73, 57
1, 382132, Poly_aftertouch_c, 0, 73, 0
1, 382140, Note_off_c, 0, 52, 57
1, 382335, Control_c, 0, 64, 119
1, 382356, Control_c, 0, 64, 58
1, 382370, Note_on_c, 0, 72, 90
1, 382371, Note_on_c, 0, 53, 99
1, 382375, Note_on_c, 0, 41, 89
1, 382375, Note_on_c, 0, 60, 92
1, 382375, Note_on_c, 0, 69, 82
1, 382375, Note_on_c, 0, 63, 87
1, 382375, Control_c, 0, 64, 0
1, 382399, Control_c, 0, 64, 12
1, 382411, Control_c, 0, 64, 74
1, 382421, Note_off_c, 0, 60, 67
1, 382421, Poly_aftertouch_c, 0, 60, 0
1, 382428, Control_c, 0, 64, 127
1, 382431, Note_on_c, 0, 44, 40
1, 382444, Note_off_c, 0, 53, 65
1, 382460, Note_off_c, 0, 63, 63
1, 382479, Note_off_c, 0, 69, 62
1, 382479, Poly_aftertouch_c, 0, 69, 0
1, 382486, Note_off_c, 0, 72, 66
1, 382487, Note_off_c, 0, 44, 52
1, 382503, Note_off_c, 0, 41, 63
1, 382503, Poly_aftertouch_c, 0, 41, 0
1, 382691, Control_c, 0, 64, 110
1, 382710, Control_c, 0, 64, 70
1, 382729, Control_c, 0, 64, 20
1, 382747, Control_c, 0, 64, 0
1, 383015, Note_on_c, 0, 86, 98
1, 383017, Note_on_c, 0, 74, 104
1, 383017, Note_on_c, 0, 82, 94
1, 383020, Note_on_c, 0, 77, 95
1, 383023, Note_on_c, 0, 34, 86
1, 383024, Note_on_c, 0, 46, 99
1, 383031, Note_on_c, 0, 41, 84
1, 383084, Control_c, 0, 64, 30
1, 383103, Control_c, 0, 64, 127
1, 383165, Note_off_c, 0, 86, 65
1, 383173, Note_off_c, 0, 34, 62
1, 383174, Note_off_c, 0, 74, 58
1, 383176, Note_off_c, 0, 46, 62
1, 383194, Note_off_c, 0, 41, 62
1, 383194, Poly_aftertouch_c, 0, 41, 0
1, 383215, Note_off_c, 0, 77, 57
1, 383215, Poly_aftertouch_c, 0, 77, 0
1, 383216, Note_off_c, 0, 82, 63
1, 383216, Poly_aftertouch_c, 0, 82, 0
1, 384543, Control_c, 0, 64, 123
1, 384567, Note_on_c, 0, 76, 48
1, 384587, Note_on_c, 0, 70, 46
1, 384600, Note_on_c, 0, 64, 39
1, 384602, Note_on_c, 0, 60, 40
1, 384610, Note_on_c, 0, 55, 37
1, 384614, Note_on_c, 0, 48, 35
1, 384617, Control_c, 0, 64, 116
1, 384635, Control_c, 0, 64, 112
1, 384654, Control_c, 0, 64, 108
1, 384674, Control_c, 0, 64, 104
1, 384710, Control_c, 0, 64, 95
1, 384729, Control_c, 0, 64, 87
1, 384748, Control_c, 0, 64, 79
1, 384766, Control_c, 0, 64, 74
1, 384785, Control_c, 0, 64, 71
1, 384823, Control_c, 0, 64, 68
1, 384841, Control_c, 0, 64, 66
1, 384860, Control_c, 0, 64, 65
1, 384880, Control_c, 0, 64, 63
1, 384916, Control_c, 0, 64, 62
1, 384935, Control_c, 0, 64, 60
1, 384953, Control_c, 0, 64, 58
1, 385010, Control_c, 0, 64, 56
1, 385028, Control_c, 0, 64, 54
1, 385047, Control_c, 0, 64, 51
1, 385066, Control_c, 0, 64, 49
1, 385103, Control_c, 0, 64, 47
1, 385141, Control_c, 0, 64, 45
1, 385158, Control_c, 0, 64, 43
1, 385192, Poly_aftertouch_c, 0, 55, 24
1, 385211, Poly_aftertouch_c, 0, 70, 24
1, 385258, Note_off_c, 0, 64, 34
1, 385260, Note_off_c, 0, 55, 25
1, 385260, Note_off_c, 0, 48, 30
1, 385260, Poly_aftertouch_c, 0, 55, 0
1, 385263, Note_off_c, 0, 70, 34
1, 385263, Poly_aftertouch_c, 0, 70, 0
1, 385295, Note_off_c, 0, 60, 35
1, 385295, Poly_aftertouch_c, 0, 60, 0
1, 385304, Note_off_c, 0, 76, 38
1, 386001, Control_c, 0, 64, 41
1, 386094, Control_c, 0, 64, 34
1, 386112, Control_c, 0, 64, 29
1, 386132, Control_c, 0, 64, 24
1, 386169, Control_c, 0, 64, 13
1, 386187, Control_c, 0, 64, 0
1, 386490, Note_on_c, 0, 89, 98
1, 386494, Note_on_c, 0, 82, 102
1, 386495, Note_on_c, 0, 77, 105
1, 386496, Note_on_c, 0, 86, 91
1, 386496, Note_on_c, 0, 43, 105
1, 386499, Note_on_c, 0, 31, 92
1, 386500, Note_on_c, 0, 38, 93
1, 386525, Control_c, 0, 64, 63
1, 386535, Note_on_c, 0, 34, 59
1, 386543, Control_c, 0, 64, 127
1, 386576, Note_off_c, 0, 34, 52
1, 386594, Note_off_c, 0, 77, 61
1, 386594, Poly_aftertouch_c, 0, 77, 0
1, 386602, Note_off_c, 0, 89, 66
1, 386620, Note_off_c, 0, 43, 66
1, 386620, Note_off_c, 0, 31, 63
1, 386632, Note_off_c, 0, 86, 65
1, 386657, Note_off_c, 0, 82, 64
1, 386657, Poly_aftertouch_c, 0, 82, 0
1, 386659, Note_off_c, 0, 38, 62
1, 388058, Control_c, 0, 64, 123
1, 388076, Control_c, 0, 64, 116
1, 388095, Control_c, 0, 64, 111
1, 388113, Control_c, 0, 64, 107
1, 388151, Control_c, 0, 64, 103
1, 388185, Note_on_c, 0, 76, 54
1, 388189, Control_c, 0, 64, 98
1, 388191, Note_on_c, 0, 70, 52
1, 388198, Note_on_c, 0, 64, 45
1, 388223, Note_on_c, 0, 60, 41
1, 388227, Control_c, 0, 64, 92
1, 388229, Note_on_c, 0, 55, 40
1, 388231, Note_on_c, 0, 48, 39
1, 388301, Control_c, 0, 64, 86
1, 388319, Control_c, 0, 64, 81
1, 388339, Control_c, 0, 64, 77
1, 388357, Control_c, 0, 64, 75
1, 388414, Control_c, 0, 64, 72
1, 388432, Control_c, 0, 64, 69
1, 388449, Control_c, 0, 64, 65
1, 388470, Control_c, 0, 64, 63
1, 388488, Control_c, 0, 64, 62
1, 388525, Control_c, 0, 64, 60
1, 388544, Control_c, 0, 64, 57
1, 388562, Control_c, 0, 64, 54
1, 388581, Control_c, 0, 64, 52
1, 388655, Control_c, 0, 64, 50
1, 388674, Control_c, 0, 64, 46
1, 388693, Control_c, 0, 64, 43
1, 388768, Control_c, 0, 64, 39
1, 388787, Control_c, 0, 64, 34
1, 388805, Control_c, 0, 64, 30
1, 388908, Note_off_c, 0, 64, 39
1, 388912, Note_off_c, 0, 48, 40
1, 388912, Poly_aftertouch_c, 0, 70, 24
1, 388924, Note_off_c, 0, 55, 34
1, 388924, Poly_aftertouch_c, 0, 55, 0
1, 388951, Note_off_c, 0, 60, 32
1, 388951, Poly_aftertouch_c, 0, 60, 0
1, 388960, Note_off_c, 0, 70, 36
1, 388960, Poly_aftertouch_c, 0, 70, 0
1, 389000, Note_off_c, 0, 76, 43
1, 389478, Control_c, 0, 64, 26
1, 389554, Control_c, 0, 64, 21
1, 389573, Control_c, 0, 64, 16
1, 389611, Control_c, 0, 64, 11
1, 389628, Control_c, 0, 64, 0
1, 389958, Note_on_c, 0, 94, 95
1, 389963, Note_on_c, 0, 82, 93
1, 389966, Note_on_c, 0, 89, 82
1, 389984, Note_on_c, 0, 38, 88
1, 389988, Note_on_c, 0, 26, 89
1, 390095, Control_c, 0, 64, 77
1, 390115, Control_c, 0, 64, 125
1, 390504, Note_off_c, 0, 89, 58
1, 390515, Note_off_c, 0, 94, 56
1, 390527, Note_off_c, 0, 26, 37
1, 390539, Note_off_c, 0, 38, 58
1, 390539, Poly_aftertouch_c, 0, 87, 0
1, 390562, Note_off_c, 0, 82, 38
1, 390562, Poly_aftertouch_c, 0, 82, 0
1, 390729, Note_on_c, 0, 82, 103
1, 390730, Note_on_c, 0, 91, 86
1, 390730, Note_on_c, 0, 94, 101
1, 390749, Control_c, 0, 64, 99
1, 390753, Note_on_c, 0, 39, 106
1, 390756, Note_on_c, 0, 27, 94
1, 390769, Control_c, 0, 64, 30
1, 390788, Control_c, 0, 64, 0
1, 390825, Control_c, 0, 64, 36
1, 390844, Control_c, 0, 64, 77
1, 390862, Control_c, 0, 64, 127
1, 390902, Note_off_c, 0, 27, 62
1, 390920, Note_off_c, 0, 94, 65
1, 390926, Note_off_c, 0, 39, 56
1, 390934, Note_off_c, 0, 91, 62
1, 390966, Note_off_c, 0, 82, 58
1, 390966, Poly_aftertouch_c, 0, 82, 0
1, 391395, Note_on_c, 0, 67, 96
1, 391399, Note_on_c, 0, 70, 96
1, 391408, Note_on_c, 0, 51, 84
1, 391410, Note_on_c, 0, 63, 95
1, 391417, Note_on_c, 0, 58, 87
1, 391441, Note_on_c, 0, 64, 62
1, 391450, Note_off_c, 0, 67, 66
1, 391450, Poly_aftertouch_c, 0, 67, 0
1, 391467, Note_off_c, 0, 64, 65
1, 391482, Note_off_c, 0, 63, 61
1, 391490, Note_off_c, 0, 70, 65
1, 391490, Poly_aftertouch_c, 0, 70, 0
1, 391522, Note_off_c, 0, 51, 62
1, 391534, Note_off_c, 0, 58, 60
1, 391563, Poly_aftertouch_c, 0, 62, 0
1, 392024, Note_on_c, 0, 82, 103
1, 392026, Note_on_c, 0, 91, 90
1, 392028, Note_on_c, 0, 94, 101
1, 392038, Note_on_c, 0, 39, 110
1, 392044, Note_on_c, 0, 27, 102
1, 392063, Note_on_c, 0, 30, 68
1, 392064, Note_off_c, 0, 30, 127
1, 392097, Poly_aftertouch_c, 0, 30, 0
1, 392112, Note_on_c, 0, 28, 12
1, 392116, Note_on_c, 0, 40, 11
1, 392181, Note_off_c, 0, 28, 37
1, 392193, Note_off_c, 0, 39, 59
1, 392196, Note_off_c, 0, 40, 26
1, 392263, Note_off_c, 0, 82, 60
1, 392263, Poly_aftertouch_c, 0, 82, 0
1, 392267, Note_off_c, 0, 27, 54
1, 392273, Note_off_c, 0, 91, 61
1, 392327, Note_off_c, 0, 94, 63
1, 392620, Control_c, 0, 64, 68
1, 392638, Control_c, 0, 64, 0
1, 392643, Note_on_c, 0, 96, 102
1, 392645, Note_on_c, 0, 84, 105
1, 392645, Note_on_c, 0, 94, 97
1, 392651, Note_on_c, 0, 36, 108
1, 392651, Note_on_c, 0, 88, 90
1, 392653, Note_on_c, 0, 91, 86
1, 392654, Note_on_c, 0, 24, 95
1, 392678, Note_on_c, 0, 27, 74
1, 392694, Control_c, 0, 64, 70
1, 392714, Control_c, 0, 64, 127
1, 392719, Note_off_c, 0, 84, 67
1, 392723, Note_off_c, 0, 27, 64
1, 392725, Note_off_c, 0, 96, 68
1, 392731, Note_off_c, 0, 24, 64
1, 392739, Note_off_c, 0, 36, 65
1, 392760, Note_off_c, 0, 94, 67
1, 392763, Note_off_c, 0, 91, 65
1, 392764, Note_off_c, 0, 88, 66
1, 392773, Poly_aftertouch_c, 0, 31, 127
1, 392797, Poly_aftertouch_c, 0, 31, 0
1, 392812, Poly_aftertouch_c, 0, 26, 0
1, 393208, Note_on_c, 0, 72, 97
1, 393214, Note_on_c, 0, 64, 97
1, 393214, Note_on_c, 0, 70, 88
1, 393215, Note_on_c, 0, 48, 87
1, 393216, Note_on_c, 0, 60, 102
1, 393218, Note_on_c, 0, 67, 89
1, 393219, Note_on_c, 0, 55, 89
1, 393259, Note_on_c, 0, 56, 47
1, 393260, Note_off_c, 0, 56, 127
1, 393261, Note_off_c, 0, 60, 71
1, 393261, Poly_aftertouch_c, 0, 60, 0
1, 393278, Note_off_c, 0, 64, 68
1, 393303, Note_off_c, 0, 55, 66
1, 393303, Poly_aftertouch_c, 0, 55, 0
1, 393306, Note_off_c, 0, 67, 65
1, 393306, Poly_aftertouch_c, 0, 67, 0
1, 393311, Note_off_c, 0, 72, 68
1, 393315, Note_off_c, 0, 48, 65
1, 393335, Note_off_c, 0, 70, 66
1, 393335, Poly_aftertouch_c, 0, 70, 0
1, 393363, Poly_aftertouch_c, 0, 51, 0
1, 393371, Poly_aftertouch_c, 0, 50, 127
1, 393380, Poly_aftertouch_c, 0, 50, 0
1, 393704, Poly_aftertouch_c, 0, 37, 0
1, 393899, Note_on_c, 0, 96, 101
1, 393901, Note_on_c, 0, 94, 98
1, 393902, Note_on_c, 0, 88, 97
1, 393902, Note_on_c, 0, 84, 105
1, 393906, Note_on_c, 0, 48, 105
1, 393907, Note_on_c, 0, 91, 88
1, 393909, Note_on_c, 0, 36, 95
1, 393909, Control_c, 0, 64, 113
1, 393910, Note_off_c, 0, 36, 127
1, 393936, Control_c, 0, 64, 58
1, 393948, Control_c, 0, 64, 0
1, 393955, Note_on_c, 0, 43, 38
1, 393963, Poly_aftertouch_c, 0, 36, 127
1, 393964, Control_c, 0, 64, 36
1, 393985, Control_c, 0, 64, 81
1, 393990, Note_on_c, 0, 38, 13
1, 393994, Note_off_c, 0, 43, 36
1, 394004, Control_c, 0, 64, 127
1, 394056, Poly_aftertouch_c, 0, 39, 0
1, 394069, Note_off_c, 0, 38, 26
1, 394092, Note_off_c, 0, 84, 60
1, 394142, Note_off_c, 0, 91, 62
1, 394161, Note_off_c, 0, 88, 61
1, 394177, Note_off_c, 0, 48, 53
1, 394227, Poly_aftertouch_c, 0, 36, 0
1, 394255, Note_off_c, 0, 96, 62
1, 394261, Note_off_c, 0, 94, 62
1, 394642, Note_on_c, 0, 101, 103
1, 394646, Note_on_c, 0, 89, 101
1, 394647, Note_on_c, 0, 93, 92
1, 394648, Note_on_c, 0, 96, 90
1, 394657, Note_on_c, 0, 41, 101
1, 394657, Control_c, 0, 64, 101
1, 394667, Note_on_c, 0, 29, 95
1, 394676, Control_c, 0, 64, 51
1, 394696, Control_c, 0, 64, 35
1, 394714, Control_c, 0, 64, 67
1, 394733, Control_c, 0, 64, 102
1, 394752, Control_c, 0, 64, 127
1, 394781, Poly_aftertouch_c, 0, 37, 0
1, 394801, Poly_aftertouch_c, 0, 32, 0
1, 394890, Note_off_c, 0, 29, 58
1, 394929, Note_off_c, 0, 41, 61
1, 394929, Poly_aftertouch_c, 0, 41, 0
1, 394951, Note_off_c, 0, 89, 50
1, 394964, Note_off_c, 0, 101, 51
1, 395019, Note_off_c, 0, 96, 45
1, 395021, Note_off_c, 0, 93, 50
1, 395171, Note_on_c, 0, 100, 102
1, 395171, Note_on_c, 0, 96, 91
1, 395172, Note_on_c, 0, 88, 106
1, 395174, Note_on_c, 0, 93, 92
1, 395181, Control_c, 0, 64, 74
1, 395187, Note_on_c, 0, 45, 105
1, 395189, Note_on_c, 0, 33, 92
1, 395201, Control_c, 0, 64, 0
1, 395215, Note_on_c, 0, 97, 48
1, 395218, Control_c, 0, 64, 29
1, 395220, Note_on_c, 0, 34, 59
1, 395238, Control_c, 0, 64, 69
1, 395259, Control_c, 0, 64, 108
1, 395260, Note_off_c, 0, 97, 49
1, 395261, Note_off_c, 0, 34, 54
1, 395274, Note_off_c, 0, 93, 65
1, 395275, Control_c, 0, 64, 127
1, 395278, Note_off_c, 0, 96, 65
1, 395331, Note_off_c, 0, 100, 63
1, 395375, Note_off_c, 0, 33, 57
1, 395382, Note_off_c, 0, 45, 54
1, 395396, Note_off_c, 0, 88, 63
1, 395501, Poly_aftertouch_c, 0, 34, 0
1, 395550, Note_on_c, 0, 98, 103
1, 395550, Note_on_c, 0, 86, 105
1, 395552, Note_on_c, 0, 94, 97
1, 395554, Note_on_c, 0, 89, 85
1, 395556, Note_on_c, 0, 46, 106
1, 395556, Control_c, 0, 64, 117
1, 395559, Note_on_c, 0, 34, 90
1, 395579, Control_c, 0, 64, 67
1, 395594, Control_c, 0, 64, 43
1, 395610, Note_on_c, 0, 92, 33
1, 395611, Control_c, 0, 64, 71
1, 395630, Control_c, 0, 64, 116
1, 395648, Control_c, 0, 64, 127
1, 395655, Note_off_c, 0, 92, 48
1, 395658, Note_off_c, 0, 89, 62
1, 395681, Note_off_c, 0, 34, 63
1, 395685, Note_off_c, 0, 98, 61
1, 395704, Note_off_c, 0, 46, 60
1, 395705, Note_off_c, 0, 86, 61
1, 395717, Note_off_c, 0, 94, 64
1, 395876, Control_c, 0, 64, 113
1, 395878, Note_on_c, 0, 96, 101
1, 395880, Note_on_c, 0, 91, 79
1, 395880, Note_on_c, 0, 88, 86
1, 395887, Note_on_c, 0, 48, 101
1, 395888, Note_on_c, 0, 84, 97
1, 395888, Note_on_c, 0, 83, 97
1, 395890, Note_on_c, 0, 36, 95
1, 395894, Control_c, 0, 64, 56
1, 395917, Control_c, 0, 64, 0
1, 395921, Note_on_c, 0, 43, 47
1, 395928, Control_c, 0, 64, 46
1, 395949, Control_c, 0, 64, 97
1, 395952, Note_off_c, 0, 91, 65
1, 395969, Control_c, 0, 64, 127
1, 395971, Note_off_c, 0, 43, 32
1, 395977, Note_off_c, 0, 88, 66
1, 395988, Note_off_c, 0, 96, 65
1, 395990, Note_off_c, 0, 83, 67
1, 396017, Note_off_c, 0, 84, 65
1, 396028, Note_off_c, 0, 48, 57
1, 396062, Note_off_c, 0, 36, 58
1, 396224, Note_on_c, 0, 88, 73
1, 396226, Note_on_c, 0, 49, 109
1, 396227, Note_on_c, 0, 93, 104
1, 396227, Control_c, 0, 64, 85
1, 396230, Note_on_c, 0, 81, 99
1, 396231, Note_on_c, 0, 37, 98
1, 396248, Control_c, 0, 64, 41
1, 396266, Control_c, 0, 64, 53
1, 396268, Note_on_c, 0, 90, 52
1, 396286, Control_c, 0, 64, 97
1, 396297, Note_off_c, 0, 90, 60
1, 396300, Note_off_c, 0, 88, 66
1, 396302, Control_c, 0, 64, 127
1, 396337, Note_off_c, 0, 93, 67
1, 396354, Poly_aftertouch_c, 0, 43, 0
1, 396389, Note_off_c, 0, 81, 56
1, 396407, Note_off_c, 0, 49, 53
1, 396410, Note_off_c, 0, 37, 60
1, 396515, Poly_aftertouch_c, 0, 80, 0
1, 396565, Control_c, 0, 64, 66
1, 396577, Note_on_c, 0, 50, 88
1, 396580, Note_on_c, 0, 38, 88
1, 396582, Note_on_c, 0, 81, 80
1, 396582, Control_c, 0, 64, 0
1, 396585, Note_on_c, 0, 77, 105
1, 396585, Note_on_c, 0, 89, 99
1, 396588, Note_on_c, 0, 86, 89
1, 396609, Control_c, 0, 64, 19
1, 396613, Note_off_c, 0, 50, 72
1, 396622, Control_c, 0, 64, 80
1, 396629, Note_off_c, 0, 38, 61
1, 396640, Control_c, 0, 64, 127
1, 396753, Control_c, 0, 64, 94
1, 396767, Note_on_c, 0, 31, 95
1, 396771, Control_c, 0, 64, 0
1, 396838, Note_off_c, 0, 81, 62
1, 396851, Note_off_c, 0, 86, 65
1, 396854, Note_off_c, 0, 89, 58
1, 396865, Control_c, 0, 64, 83
1, 396879, Note_on_c, 0, 43, 99
1, 396882, Control_c, 0, 64, 127
1, 396903, Note_off_c, 0, 31, 62
1, 396917, Note_off_c, 0, 77, 54
1, 396917, Poly_aftertouch_c, 0, 77, 0
1, 396931, Note_off_c, 0, 43, 67
1, 397205, Note_on_c, 0, 86, 98
1, 397207, Note_on_c, 0, 74, 104
1, 397211, Note_on_c, 0, 77, 95
1, 397212, Note_on_c, 0, 82, 84
1, 397220, Note_on_c, 0, 55, 84
1, 397221, Note_on_c, 0, 65, 102
1, 397223, Note_on_c, 0, 62, 90
1, 397226, Note_on_c, 0, 58, 86
1, 397247, Note_on_c, 0, 83, 64
1, 397255, Note_on_c, 0, 63, 56
1, 397256, Note_off_c, 0, 63, 127
1, 397302, Note_off_c, 0, 65, 66
1, 397331, Note_off_c, 0, 55, 62
1, 397331, Poly_aftertouch_c, 0, 55, 0
1, 397345, Note_off_c, 0, 62, 64
1, 397352, Note_off_c, 0, 58, 65
1, 397414, Note_off_c, 0, 83, 47
1, 397414, Poly_aftertouch_c, 0, 83, 0
1, 398118, Control_c, 0, 64, 72
1, 398135, Control_c, 0, 64, 0
1, 398153, Note_on_c, 0, 36, 98
1, 398194, Note_off_c, 0, 86, 61
1, 398197, Note_off_c, 0, 82, 59
1, 398197, Poly_aftertouch_c, 0, 82, 0
1, 398203, Note_off_c, 0, 77, 55
1, 398203, Poly_aftertouch_c, 0, 77, 0
1, 398205, Note_off_c, 0, 74, 60
1, 398247, Control_c, 0, 64, 78
1, 398267, Control_c, 0, 64, 127
1, 398290, Note_on_c, 0, 48, 101
1, 398312, Note_off_c, 0, 36, 65
1, 398335, Note_off_c, 0, 48, 68
1, 398653, Note_on_c, 0, 84, 95
1, 398654, Note_on_c, 0, 72, 103
1, 398654, Note_on_c, 0, 82, 90
1, 398657, Note_on_c, 0, 76, 90
1, 398657, Note_on_c, 0, 55, 84
1, 398657, Note_on_c, 0, 64, 101
1, 398661, Note_on_c, 0, 60, 85
1, 398662, Note_on_c, 0, 79, 86
1, 398665, Note_on_c, 0, 58, 84
1, 398697, Note_on_c, 0, 61, 49
1, 398698, Note_off_c, 0, 61, 127
1, 398771, Note_off_c, 0, 64, 63
1, 398796, Note_off_c, 0, 55, 63
1, 398796, Poly_aftertouch_c, 0, 55, 0
1, 398808, Note_off_c, 0, 60, 65
1, 398808, Poly_aftertouch_c, 0, 60, 0
1, 398832, Note_off_c, 0, 58, 61
1, 399576, Control_c, 0, 64, 120
1, 399594, Control_c, 0, 64, 51
1, 399612, Control_c, 0, 64, 0
1, 399613, Note_on_c, 0, 29, 97
1, 399621, Note_off_c, 0, 72, 54
1, 399649, Note_off_c, 0, 76, 59
1, 399649, Note_off_c, 0, 79, 58
1, 399649, Poly_aftertouch_c, 0, 79, 0
1, 399673, Note_on_c, 0, 41, 21
1, 399688, Note_off_c, 0, 82, 58
1, 399688, Poly_aftertouch_c, 0, 82, 0
1, 399688, Control_c, 0, 64, 74
1, 399700, Note_off_c, 0, 84, 61
1, 399706, Control_c, 0, 64, 127
1, 399738, Note_off_c, 0, 41, 29
1, 399738, Poly_aftertouch_c, 0, 41, 0
1, 399776, Note_on_c, 0, 41, 97
1, 399808, Note_off_c, 0, 29, 64
1, 399832, Note_off_c, 0, 41, 66
1, 399832, Poly_aftertouch_c, 0, 41, 0
1, 399920, Poly_aftertouch_c, 0, 32, 0
1, 400206, Note_on_c, 0, 93, 101
1, 400209, Note_on_c, 0, 84, 101
1, 400210, Note_on_c, 0, 89, 93
1, 400211, Note_on_c, 0, 81, 101
1, 400218, Note_on_c, 0, 65, 103
1, 400219, Note_on_c, 0, 53, 88
1, 400221, Note_on_c, 0, 60, 90
1, 400223, Note_on_c, 0, 57, 82
1, 401282, Note_off_c, 0, 65, 53
1, 401368, Poly_aftertouch_c, 0, 57, 24
1, 401457, Poly_aftertouch_c, 0, 53, 24
1, 401510, Note_off_c, 0, 60, 57
1, 401510, Poly_aftertouch_c, 0, 60, 0
1, 401525, Note_off_c, 0, 53, 34
1, 401525, Poly_aftertouch_c, 0, 53, 0
1, 401590, Note_off_c, 0, 57, 19
1, 401590, Poly_aftertouch_c, 0, 57, 0
1, 402101, Control_c, 0, 64, 90
1, 402118, Control_c, 0, 64, 41
1, 402119, Note_on_c, 0, 29, 81
1, 402138, Control_c, 0, 64, 43
1, 402155, Control_c, 0, 64, 77
1, 402175, Control_c, 0, 64, 111
1, 402194, Control_c, 0, 64, 127
1, 402215, Note_on_c, 0, 36, 91
1, 402222, Note_off_c, 0, 81, 51
1, 402229, Note_off_c, 0, 93, 58
1, 402253, Note_off_c, 0, 29, 61
1, 402262, Note_off_c, 0, 84, 52
1, 402309, Note_on_c, 0, 41, 94
1, 402349, Note_off_c, 0, 89, 28
1, 402350, Note_off_c, 0, 36, 59
1, 402391, Note_off_c, 0, 41, 62
1, 402391, Poly_aftertouch_c, 0, 41, 0
1, 402478, Poly_aftertouch_c, 0, 89, 0
1, 402529, Note_on_c, 0, 93, 104
1, 402529, Note_on_c, 0, 84, 88
1, 402530, Note_on_c, 0, 89, 80
1, 402532, Note_on_c, 0, 81, 101
1, 402543, Note_on_c, 0, 48, 108
1, 402587, Note_off_c, 0, 48, 69
1, 403663, Note_on_c, 0, 29, 87
1, 403736, Note_off_c, 0, 29, 59
1, 403776, Note_on_c, 0, 36, 94
1, 403865, Note_off_c, 0, 81, 51
1, 403888, Note_on_c, 0, 41, 100
1, 403918, Note_off_c, 0, 93, 57
1, 403927, Note_off_c, 0, 36, 54
1, 403937, Note_off_c, 0, 84, 57
1, 403950, Note_off_c, 0, 89, 55
1, 403952, Note_off_c, 0, 41, 66
1, 403952, Poly_aftertouch_c, 0, 41, 0
1, 404153, Note_on_c, 0, 93, 102
1, 404153, Note_on_c, 0, 84, 91
1, 404155, Note_on_c, 0, 81, 98
1, 404158, Note_on_c, 0, 89, 88
1, 404171, Note_on_c, 0, 48, 106
1, 404230, Note_off_c, 0, 48, 65
1, 405592, Note_on_c, 0, 29, 89
1, 405633, Control_c, 0, 64, 118
1, 405654, Control_c, 0, 64, 92
1, 405691, Control_c, 0, 64, 109
1, 405708, Control_c, 0, 64, 127
1, 405838, Note_on_c, 0, 36, 91
1, 405895, Note_off_c, 0, 29, 58
1, 406033, Note_on_c, 0, 41, 93
1, 406038, Note_off_c, 0, 36, 61
1, 406096, Note_off_c, 0, 41, 65
1, 406096, Poly_aftertouch_c, 0, 41, 0
1, 406247, Note_on_c, 0, 48, 92
1, 406297, Note_off_c, 0, 48, 63
1, 406470, Note_off_c, 0, 84, 45
1, 406506, Note_off_c, 0, 81, 29
1, 406527, Note_off_c, 0, 93, 52
1, 406575, Note_off_c, 0, 89, 32
1, 406613, Note_on_c, 0, 53, 64
1, 406624, Note_on_c, 0, 57, 65
1, 406680, Note_on_c, 0, 60, 75
1, 406793, Note_on_c, 0, 93, 97
1, 406794, Note_on_c, 0, 84, 96
1, 406800, Note_on_c, 0, 81, 97
1, 406801, Note_on_c, 0, 89, 88
1, 406810, Note_on_c, 0, 65, 104
1, 410366, Note_off_c, 0, 53, 61
1, 410366, Poly_aftertouch_c, 0, 53, 0
1, 410384, Note_off_c, 0, 65, 60
1, 410391, Note_off_c, 0, 57, 60
1, 410391, Poly_aftertouch_c, 0, 57, 0
1, 410394, Note_off_c, 0, 81, 59
1, 410395, Note_off_c, 0, 93, 62
1, 410397, Note_off_c, 0, 89, 57
1, 410398, Note_off_c, 0, 60, 60
1, 410398, Poly_aftertouch_c, 0, 60, 0
1, 410406, Note_off_c, 0, 84, 60
1, 410440, Control_c, 0, 64, 104
1, 410459, Control_c, 0, 64, 71
1, 410476, Control_c, 0, 64, 33
1, 410496, Control_c, 0, 64, 0
1, 416068, Control_c, 0, 64, 8
1, 416198, Control_c, 0, 64, 12
1, 416311, Control_c, 0, 64, 16
1, 417227, Control_c, 0, 64, 20
1, 418668, Control_c, 0, 64, 25
1, 418724, Control_c, 0, 64, 31
1, 418761, Control_c, 0, 64, 36
1, 418779, Control_c, 0, 64, 40
1, 418798, Control_c, 0, 64, 44
1, 418817, Control_c, 0, 64, 50
1, 418835, Control_c, 0, 64, 55
1, 418854, Control_c, 0, 64, 57
1, 418928, Control_c, 0, 64, 60
1, 418948, Control_c, 0, 64, 62
1, 418966, Control_c, 0, 64, 63
1, 418986, Control_c, 0, 64, 64
1, 419097, Control_c, 0, 64, 63
1, 419117, Control_c, 0, 67, 10
1, 419134, Control_c, 0, 64, 62
1, 419154, Control_c, 0, 67, 15
1, 419172, Control_c, 0, 67, 19
1, 419191, Control_c, 0, 64, 61
1, 419192, Control_c, 0, 67, 24
1, 419210, Control_c, 0, 67, 29
1, 419228, Control_c, 0, 67, 33
1, 419247, Control_c, 0, 64, 60
1, 419284, Control_c, 0, 64, 58
1, 419303, Control_c, 0, 64, 55
1, 419322, Control_c, 0, 64, 52
1, 419340, Control_c, 0, 64, 47
1, 419358, Control_c, 0, 64, 42
1, 419378, Control_c, 0, 64, 34
1, 419396, Control_c, 0, 64, 26
1, 419415, Control_c, 0, 64, 21
1, 419490, Control_c, 0, 64, 25
1, 419527, Control_c, 0, 64, 29
1, 420218, Control_c, 0, 64, 33
1, 420256, Control_c, 0, 67, 26
1, 420275, Control_c, 0, 67, 19
1, 420293, Control_c, 0, 67, 9
1, 420313, Control_c, 0, 67, 0
1, 420856, Control_c, 0, 64, 37
1, 420873, Control_c, 0, 64, 41
1, 420892, Control_c, 0, 64, 46
1, 420911, Control_c, 0, 64, 52
1, 420931, Control_c, 0, 64, 60
1, 420948, Control_c, 0, 64, 65
1, 420968, Control_c, 0, 64, 69
1, 420986, Control_c, 0, 64, 72
1, 421004, Control_c, 0, 64, 76
1, 421023, Control_c, 0, 64, 82
1, 421042, Control_c, 0, 64, 92
1, 421060, Control_c, 0, 64, 107
1, 421079, Control_c, 0, 64, 125
1, 422425, Control_c, 0, 67, 8
1, 422481, Control_c, 0, 67, 12
1, 422520, Control_c, 0, 67, 18
1, 422537, Control_c, 0, 67, 23
1, 422556, Control_c, 0, 67, 30
1, 422575, Control_c, 0, 67, 38
1, 422593, Control_c, 0, 67, 46
1, 422613, Control_c, 0, 67, 52
1, 422630, Control_c, 0, 67, 57
1, 422650, Control_c, 0, 67, 62
1, 422669, Control_c, 0, 67, 68
1, 422687, Control_c, 0, 67, 73
1, 422706, Control_c, 0, 67, 79
1, 422725, Control_c, 0, 67, 84
1, 422744, Control_c, 0, 67, 90
1, 422761, Control_c, 0, 67, 97
1, 422781, Control_c, 0, 67, 105
1, 422799, Control_c, 0, 67, 112
1, 422818, Control_c, 0, 67, 117
1, 422836, Control_c, 0, 67, 121
1, 422874, Control_c, 0, 67, 126
1, 425436, Note_on_c, 0, 75, 42
1, 425477, Note_on_c, 0, 60, 25
1, 426072, Note_on_c, 0, 63, 30
1, 426150, Note_off_c, 0, 60, 41
1, 426150, Poly_aftertouch_c, 0, 60, 0
1, 426551, Note_off_c, 0, 63, 34
1, 426553, Note_on_c, 0, 72, 42
1, 426615, Note_on_c, 0, 56, 28
1, 426761, Note_off_c, 0, 75, 50
1, 426783, Control_c, 0, 64, 113
1, 426856, Control_c, 0, 64, 124
1, 427050, Note_on_c, 0, 60, 38
1, 427412, Note_on_c, 0, 68, 49
1, 427461, Note_on_c, 0, 53, 34
1, 427474, Note_off_c, 0, 56, 27
1, 427491, Poly_aftertouch_c, 0, 60, 24
1, 427549, Control_c, 0, 64, 120
1, 427568, Control_c, 0, 64, 102
1, 427586, Control_c, 0, 64, 84
1, 427606, Control_c, 0, 64, 71
1, 427623, Control_c, 0, 64, 69
1, 427636, Note_off_c, 0, 72, 40
1, 427640, Note_off_c, 0, 60, 21
1, 427640, Poly_aftertouch_c, 0, 60, 0
1, 427641, Control_c, 0, 64, 72
1, 427661, Control_c, 0, 64, 75
1, 427679, Control_c, 0, 64, 79
1, 427699, Control_c, 0, 64, 86
1, 427717, Control_c, 0, 64, 96
1, 427735, Control_c, 0, 64, 111
1, 427755, Control_c, 0, 64, 125
1, 427829, Note_on_c, 0, 56, 37
1, 428038, Note_off_c, 0, 53, 30
1, 428038, Poly_aftertouch_c, 0, 53, 0
1, 428136, Note_on_c, 0, 65, 53
1, 428193, Note_on_c, 0, 49, 41
1, 428218, Note_off_c, 0, 56, 32
1, 428259, Control_c, 0, 64, 113
1, 428278, Control_c, 0, 64, 97
1, 428296, Control_c, 0, 64, 78
1, 428316, Control_c, 0, 64, 63
1, 428334, Control_c, 0, 64, 60
1, 428353, Control_c, 0, 64, 65
1, 428372, Control_c, 0, 64, 71
1, 428390, Control_c, 0, 64, 79
1, 428410, Control_c, 0, 64, 93
1, 428428, Control_c, 0, 64, 114
1, 428446, Control_c, 0, 64, 127
1, 428492, Note_off_c, 0, 68, 23
1, 428515, Note_on_c, 0, 53, 33
1, 428615, Note_off_c, 0, 49, 36
1, 428828, Note_on_c, 0, 61, 46
1, 428870, Note_on_c, 0, 46, 36
1, 428874, Control_c, 0, 64, 120
1, 428895, Control_c, 0, 64, 110
1, 428914, Control_c, 0, 64, 95
1, 428932, Control_c, 0, 64, 77
1, 428947, Note_off_c, 0, 65, 59
1, 428951, Control_c, 0, 64, 63
1, 428970, Control_c, 0, 64, 61
1, 428989, Control_c, 0, 64, 66
1, 429007, Control_c, 0, 64, 73
1, 429026, Control_c, 0, 64, 82
1, 429033, Note_off_c, 0, 53, 30
1, 429033, Poly_aftertouch_c, 0, 53, 0
1, 429045, Control_c, 0, 64, 94
1, 429063, Control_c, 0, 64, 110
1, 429082, Control_c, 0, 64, 125
1, 429225, Note_on_c, 0, 49, 36
1, 429429, Note_off_c, 0, 46, 35
1, 429539, Note_off_c, 0, 49, 28
1, 429548, Note_on_c, 0, 58, 54
1, 429588, Note_on_c, 0, 43, 40
1, 429662, Control_c, 0, 64, 119
1, 429680, Control_c, 0, 64, 113
1, 429699, Control_c, 0, 64, 106
1, 429714, Note_off_c, 0, 61, 30
1, 429717, Control_c, 0, 64, 95
1, 429736, Control_c, 0, 64, 80
1, 429756, Control_c, 0, 64, 62
1, 429774, Control_c, 0, 64, 45
1, 429793, Control_c, 0, 64, 29
1, 429831, Control_c, 0, 64, 36
1, 429849, Control_c, 0, 64, 47
1, 429867, Control_c, 0, 64, 60
1, 429886, Control_c, 0, 64, 73
1, 429905, Control_c, 0, 64, 85
1, 429915, Note_on_c, 0, 46, 39
1, 429924, Control_c, 0, 64, 98
1, 429943, Control_c, 0, 64, 112
1, 429961, Control_c, 0, 64, 124
1, 430035, Note_off_c, 0, 43, 56
1, 430302, Note_off_c, 0, 58, 53
1, 430331, Note_on_c, 0, 60, 46
1, 430379, Note_on_c, 0, 44, 41
1, 430429, Note_off_c, 0, 60, 58
1, 430429, Poly_aftertouch_c, 0, 60, 0
1, 430434, Note_off_c, 0, 46, 36
1, 430470, Note_on_c, 0, 61, 53
1, 430545, Note_off_c, 0, 61, 61
1, 430591, Note_on_c, 0, 60, 45
1, 430639, Note_off_c, 0, 60, 58
1, 430639, Poly_aftertouch_c, 0, 60, 0
1, 430648, Note_on_c, 0, 61, 54
1, 430689, Note_on_c, 0, 48, 39
1, 430689, Control_c, 0, 64, 120
1, 430719, Note_on_c, 0, 60, 40
1, 430724, Note_off_c, 0, 61, 57
1, 430785, Control_c, 0, 64, 115
1, 430802, Note_off_c, 0, 60, 57
1, 430802, Poly_aftertouch_c, 0, 60, 0
1, 430822, Control_c, 0, 64, 110
1, 430834, Note_on_c, 0, 58, 48
1, 430844, Note_off_c, 0, 44, 35
1, 430877, Control_c, 0, 64, 106
1, 430907, Note_off_c, 0, 58, 53
1, 430920, Note_on_c, 0, 60, 38
1, 430934, Control_c, 0, 64, 100
1, 430971, Control_c, 0, 64, 93
1, 430989, Control_c, 0, 64, 88
1, 431008, Control_c, 0, 64, 83
1, 431023, Note_on_c, 0, 61, 53
1, 431028, Control_c, 0, 64, 79
1, 431043, Note_on_c, 0, 46, 38
1, 431044, Control_c, 0, 64, 76
1, 431065, Control_c, 0, 64, 74
1, 431082, Control_c, 0, 64, 72
1, 431102, Control_c, 0, 64, 70
1, 431111, Note_off_c, 0, 60, 50
1, 431111, Poly_aftertouch_c, 0, 60, 0
1, 431113, Note_off_c, 0, 48, 40
1, 431121, Control_c, 0, 64, 68
1, 431139, Control_c, 0, 64, 65
1, 431158, Control_c, 0, 64, 63
1, 431176, Control_c, 0, 64, 61
1, 431196, Control_c, 0, 64, 59
1, 431215, Control_c, 0, 64, 52
1, 431232, Control_c, 0, 64, 40
1, 431252, Control_c, 0, 64, 22
1, 431270, Control_c, 0, 64, 0
1, 431327, Control_c, 0, 64, 13
1, 431344, Control_c, 0, 64, 22
1, 431363, Control_c, 0, 64, 30
1, 431382, Control_c, 0, 64, 38
1, 431401, Control_c, 0, 64, 47
1, 431419, Control_c, 0, 64, 56
1, 431437, Control_c, 0, 64, 65
1, 431440, Note_on_c, 0, 49, 37
1, 431457, Control_c, 0, 64, 71
1, 431476, Control_c, 0, 64, 75
1, 431494, Control_c, 0, 64, 79
1, 431513, Control_c, 0, 64, 84
1, 431533, Control_c, 0, 64, 90
1, 431550, Control_c, 0, 64, 97
1, 431569, Control_c, 0, 64, 104
1, 431589, Control_c, 0, 64, 110
1, 431607, Control_c, 0, 64, 115
1, 431644, Note_off_c, 0, 46, 28
1, 431644, Control_c, 0, 64, 120
1, 431663, Control_c, 0, 67, 121
1, 431738, Control_c, 0, 67, 117
1, 431749, Note_on_c, 0, 58, 52
1, 431793, Note_on_c, 0, 43, 38
1, 431830, Control_c, 0, 64, 115
1, 431886, Control_c, 0, 64, 107
1, 431906, Control_c, 0, 64, 97
1, 431924, Control_c, 0, 64, 83
1, 431925, Control_c, 0, 67, 113
1, 431943, Control_c, 0, 64, 66
1, 431956, Note_off_c, 0, 61, 33
1, 431962, Control_c, 0, 64, 54
1, 431981, Control_c, 0, 64, 50
1, 431982, Control_c, 0, 67, 108
1, 431999, Control_c, 0, 64, 52
1, 432018, Control_c, 0, 64, 56
1, 432036, Control_c, 0, 64, 61
1, 432038, Control_c, 0, 67, 103
1, 432056, Control_c, 0, 64, 67
1, 432076, Control_c, 0, 64, 73
1, 432077, Control_c, 0, 67, 97
1, 432092, Control_c, 0, 64, 81
1, 432101, Note_on_c, 0, 46, 43
1, 432109, Control_c, 0, 64, 91
1, 432131, Control_c, 0, 64, 100
1, 432132, Control_c, 0, 67, 92
1, 432149, Control_c, 0, 64, 108
1, 432168, Control_c, 0, 64, 113
1, 432170, Control_c, 0, 67, 88
1, 432205, Control_c, 0, 67, 83
1, 432225, Control_c, 0, 64, 118
1, 432242, Control_c, 0, 67, 79
1, 432298, Control_c, 0, 67, 74
1, 432315, Poly_aftertouch_c, 0, 49, 24
1, 432324, Note_off_c, 0, 43, 27
1, 432337, Control_c, 0, 67, 69
1, 432373, Control_c, 0, 64, 113
1, 432403, Note_on_c, 0, 60, 57
1, 432429, Control_c, 0, 64, 108
1, 432430, Control_c, 0, 67, 65
1, 432444, Note_on_c, 0, 44, 42
1, 432445, Control_c, 0, 64, 103
1, 432456, Note_off_c, 0, 49, 25
1, 432456, Poly_aftertouch_c, 0, 49, 0
1, 432466, Control_c, 0, 64, 97
1, 432476, Note_off_c, 0, 58, 51
1, 432484, Control_c, 0, 64, 90
1, 432504, Control_c, 0, 64, 82
1, 432523, Control_c, 0, 64, 71
1, 432540, Note_off_c, 0, 46, 35
1, 432541, Control_c, 0, 64, 59
1, 432560, Control_c, 0, 64, 44
1, 432579, Control_c, 0, 64, 23
1, 432598, Control_c, 0, 64, 18
1, 432616, Control_c, 0, 64, 30
1, 432635, Control_c, 0, 64, 44
1, 432653, Control_c, 0, 64, 59
1, 432673, Control_c, 0, 64, 73
1, 432690, Control_c, 0, 64, 85
1, 432710, Control_c, 0, 64, 97
1, 432729, Control_c, 0, 64, 110
1, 432748, Control_c, 0, 64, 121
1, 432755, Note_on_c, 0, 48, 43
1, 432763, Control_c, 0, 64, 126
1, 432803, Control_c, 0, 67, 61
1, 432840, Control_c, 0, 67, 57
1, 432924, Note_off_c, 0, 44, 38
1, 432932, Control_c, 0, 67, 52
1, 432990, Control_c, 0, 67, 48
1, 433056, Note_on_c, 0, 63, 63
1, 433084, Control_c, 0, 64, 120
1, 433093, Note_off_c, 0, 48, 35
1, 433098, Note_on_c, 0, 43, 37
1, 433102, Control_c, 0, 64, 115
1, 433122, Control_c, 0, 64, 109
1, 433140, Control_c, 0, 64, 100
1, 433158, Control_c, 0, 64, 88
1, 433179, Control_c, 0, 64, 73
1, 433181, Control_c, 0, 67, 44
1, 433196, Control_c, 0, 64, 56
1, 433215, Control_c, 0, 64, 39
1, 433233, Control_c, 0, 64, 21
1, 433242, Note_off_c, 0, 60, 38
1, 433242, Poly_aftertouch_c, 0, 60, 0
1, 433252, Control_c, 0, 64, 27
1, 433270, Control_c, 0, 64, 43
1, 433289, Control_c, 0, 64, 59
1, 433307, Control_c, 0, 64, 75
1, 433308, Control_c, 0, 67, 40
1, 433327, Control_c, 0, 64, 88
1, 433346, Control_c, 0, 64, 101
1, 433364, Control_c, 0, 64, 113
1, 433383, Control_c, 0, 64, 125
1, 433384, Control_c, 0, 67, 36
1, 433412, Note_on_c, 0, 46, 40
1, 433496, Control_c, 0, 67, 31
1, 433728, Note_on_c, 0, 68, 64
1, 433731, Note_off_c, 0, 43, 38
1, 433772, Note_on_c, 0, 41, 41
1, 433794, Control_c, 0, 64, 118
1, 433812, Control_c, 0, 64, 111
1, 433831, Control_c, 0, 64, 102
1, 433845, Note_off_c, 0, 46, 25
1, 433850, Control_c, 0, 64, 92
1, 433869, Control_c, 0, 64, 79
1, 433888, Control_c, 0, 64, 61
1, 433906, Control_c, 0, 64, 39
1, 433926, Control_c, 0, 64, 0
1, 433948, Note_off_c, 0, 63, 58
1, 433981, Control_c, 0, 64, 25
1, 434000, Control_c, 0, 64, 50
1, 434019, Control_c, 0, 64, 70
1, 434037, Control_c, 0, 64, 87
1, 434055, Control_c, 0, 64, 104
1, 434063, Note_on_c, 0, 44, 42
1, 434076, Control_c, 0, 64, 121
1, 434078, Control_c, 0, 67, 35
1, 434094, Control_c, 0, 64, 127
1, 434149, Control_c, 0, 67, 40
1, 434183, Note_off_c, 0, 41, 36
1, 434183, Poly_aftertouch_c, 0, 41, 0
1, 434186, Control_c, 0, 67, 48
1, 434225, Control_c, 0, 67, 54
1, 434262, Control_c, 0, 67, 60
1, 434300, Control_c, 0, 67, 65
1, 434372, Note_off_c, 0, 44, 33
1, 434395, Note_on_c, 0, 70, 60
1, 434443, Note_on_c, 0, 40, 39
1, 434467, Control_c, 0, 64, 122
1, 434487, Control_c, 0, 64, 116
1, 434505, Control_c, 0, 64, 109
1, 434514, Note_off_c, 0, 68, 38
1, 434524, Control_c, 0, 64, 101
1, 434542, Control_c, 0, 64, 90
1, 434562, Control_c, 0, 64, 74
1, 434579, Control_c, 0, 64, 57
1, 434598, Control_c, 0, 64, 37
1, 434618, Control_c, 0, 64, 10
1, 434654, Control_c, 0, 64, 17
1, 434673, Control_c, 0, 64, 30
1, 434691, Control_c, 0, 64, 43
1, 434710, Control_c, 0, 64, 58
1, 434729, Control_c, 0, 64, 72
1, 434748, Control_c, 0, 64, 81
1, 434767, Control_c, 0, 64, 87
1, 434785, Control_c, 0, 64, 92
1, 434804, Control_c, 0, 64, 97
1, 434825, Control_c, 0, 64, 103
1, 434841, Control_c, 0, 64, 108
1, 434853, Note_on_c, 0, 50, 32
1, 434879, Control_c, 0, 64, 112
1, 434919, Poly_aftertouch_c, 0, 40, 24
1, 434964, Note_on_c, 0, 67, 41
1, 434978, Note_off_c, 0, 40, 36
1, 434978, Poly_aftertouch_c, 0, 40, 0
1, 434991, Control_c, 0, 67, 61
1, 435047, Control_c, 0, 67, 55
1, 435059, Note_off_c, 0, 70, 37
1, 435059, Poly_aftertouch_c, 0, 70, 0
1, 435085, Control_c, 0, 67, 48
1, 435103, Control_c, 0, 67, 44
1, 435121, Control_c, 0, 67, 40
1, 435159, Control_c, 0, 64, 107
1, 435160, Control_c, 0, 67, 34
1, 435196, Control_c, 0, 67, 27
1, 435216, Control_c, 0, 64, 102
1, 435229, Note_on_c, 0, 39, 37
1, 435233, Control_c, 0, 67, 20
1, 435271, Control_c, 0, 67, 13
1, 435290, Control_c, 0, 64, 95
1, 435327, Control_c, 0, 64, 88
1, 435347, Control_c, 0, 64, 85
1, 435351, Note_off_c, 0, 50, 26
1, 435365, Control_c, 0, 64, 82
1, 435384, Control_c, 0, 64, 77
1, 435403, Control_c, 0, 64, 71
1, 435421, Control_c, 0, 64, 65
1, 435440, Control_c, 0, 64, 57
1, 435442, Control_c, 0, 67, 0
1, 435458, Control_c, 0, 64, 44
1, 435482, Note_on_c, 0, 75, 58
1, 435495, Control_c, 0, 64, 0
1, 435589, Control_c, 0, 64, 21
1, 435608, Control_c, 0, 64, 50
1, 435628, Control_c, 0, 64, 75
1, 435645, Control_c, 0, 64, 99
1, 435664, Control_c, 0, 64, 127
1, 435843, Note_off_c, 0, 39, 38
1, 435870, Control_c, 0, 67, 10
1, 435907, Control_c, 0, 67, 18
1, 435925, Control_c, 0, 67, 29
1, 435945, Control_c, 0, 67, 44
1, 435963, Control_c, 0, 67, 59
1, 435982, Control_c, 0, 67, 73
1, 436000, Control_c, 0, 67, 86
1, 436019, Control_c, 0, 67, 97
1, 436039, Control_c, 0, 67, 108
1, 436057, Control_c, 0, 67, 117
1, 436076, Control_c, 0, 67, 122
1, 436103, Note_on_c, 0, 51, 36
1, 436113, Control_c, 0, 67, 127
1, 436138, Note_off_c, 0, 67, 24
1, 436138, Poly_aftertouch_c, 0, 67, 0
1, 436196, Note_off_c, 0, 51, 55
1, 436566, Note_on_c, 0, 55, 35
1, 436842, Control_c, 0, 67, 122
1, 436859, Note_off_c, 0, 75, 46
1, 436880, Control_c, 0, 67, 115
1, 436909, Note_on_c, 0, 58, 44
1, 436916, Control_c, 0, 67, 108
1, 436954, Control_c, 0, 67, 100
1, 436974, Control_c, 0, 67, 94
1, 436992, Control_c, 0, 67, 87
1, 437011, Control_c, 0, 67, 79
1, 437029, Control_c, 0, 67, 73
1, 437048, Control_c, 0, 67, 67
1, 437066, Control_c, 0, 67, 59
1, 437085, Control_c, 0, 67, 49
1, 437104, Control_c, 0, 67, 37
1, 437122, Control_c, 0, 67, 24
1, 437140, Control_c, 0, 67, 11
1, 437178, Control_c, 0, 67, 0
1, 437214, Note_on_c, 0, 63, 47
1, 437547, Note_on_c, 0, 67, 56
1, 437618, Note_off_c, 0, 63, 56
1, 437719, Poly_aftertouch_c, 0, 58, 24
1, 437770, Note_off_c, 0, 58, 33
1, 437770, Poly_aftertouch_c, 0, 58, 0
1, 437933, Note_off_c, 0, 55, 35
1, 437933, Poly_aftertouch_c, 0, 55, 0
1, 437964, Control_c, 0, 64, 123
1, 437984, Note_on_c, 0, 75, 61
1, 438001, Control_c, 0, 64, 119
1, 438057, Control_c, 0, 64, 113
1, 438074, Note_on_c, 0, 63, 37
1, 438095, Control_c, 0, 64, 107
1, 438151, Control_c, 0, 64, 102
1, 438169, Control_c, 0, 64, 98
1, 438174, Note_off_c, 0, 67, 30
1, 438174, Poly_aftertouch_c, 0, 67, 0
1, 438189, Control_c, 0, 64, 93
1, 438226, Control_c, 0, 64, 88
1, 438263, Control_c, 0, 64, 84
1, 438281, Control_c, 0, 64, 80
1, 438302, Control_c, 0, 64, 76
1, 438320, Control_c, 0, 64, 74
1, 438356, Control_c, 0, 64, 72
1, 438376, Control_c, 0, 64, 68
1, 438394, Control_c, 0, 64, 63
1, 438413, Control_c, 0, 64, 58
1, 438432, Control_c, 0, 64, 51
1, 438450, Control_c, 0, 64, 37
1, 438469, Control_c, 0, 64, 0
1, 438563, Control_c, 0, 64, 16
1, 438581, Control_c, 0, 64, 27
1, 438600, Control_c, 0, 64, 41
1, 438618, Control_c, 0, 64, 55
1, 438638, Control_c, 0, 64, 68
1, 438656, Control_c, 0, 64, 76
1, 438672, Control_c, 0, 64, 81
1, 438682, Note_on_c, 0, 66, 30
1, 438694, Control_c, 0, 64, 86
1, 438712, Control_c, 0, 64, 92
1, 438731, Control_c, 0, 64, 102
1, 438750, Control_c, 0, 64, 113
1, 438768, Control_c, 0, 64, 122
1, 438788, Control_c, 0, 64, 127
1, 438800, Note_off_c, 0, 63, 36
1, 439049, Control_c, 0, 67, 8
1, 439094, Note_off_c, 0, 66, 36
1, 439134, Note_on_c, 0, 59, 40
1, 439142, Control_c, 0, 67, 12
1, 439180, Control_c, 0, 67, 18
1, 439217, Control_c, 0, 67, 24
1, 439235, Control_c, 0, 64, 112
1, 439255, Control_c, 0, 64, 100
1, 439256, Control_c, 0, 67, 30
1, 439273, Control_c, 0, 64, 92
1, 439291, Control_c, 0, 67, 35
1, 439311, Control_c, 0, 67, 39
1, 439329, Control_c, 0, 64, 100
1, 439330, Control_c, 0, 67, 44
1, 439348, Control_c, 0, 64, 110
1, 439349, Control_c, 0, 67, 49
1, 439367, Control_c, 0, 64, 121
1, 439369, Control_c, 0, 67, 53
1, 439385, Control_c, 0, 64, 127
1, 439403, Control_c, 0, 67, 59
1, 439441, Control_c, 0, 67, 63
1, 439497, Control_c, 0, 67, 69
1, 439534, Control_c, 0, 67, 75
1, 439556, Note_on_c, 0, 63, 38
1, 439572, Control_c, 0, 67, 81
1, 439609, Control_c, 0, 67, 85
1, 439639, Poly_aftertouch_c, 0, 59, 24
1, 439693, Note_off_c, 0, 59, 35
1, 439693, Poly_aftertouch_c, 0, 59, 0
1, 439893, Note_on_c, 0, 71, 52
1, 439944, Note_off_c, 0, 63, 40
1, 439951, Note_on_c, 0, 56, 35
1, 440002, Control_c, 0, 64, 119
1, 440021, Control_c, 0, 64, 105
1, 440040, Control_c, 0, 64, 91
1, 440058, Control_c, 0, 64, 82
1, 440076, Control_c, 0, 64, 80
1, 440095, Control_c, 0, 64, 82
1, 440114, Control_c, 0, 64, 86
1, 440133, Control_c, 0, 64, 92
1, 440146, Note_off_c, 0, 75, 33
1, 440151, Control_c, 0, 64, 106
1, 440153, Control_c, 0, 67, 90
1, 440171, Control_c, 0, 64, 125
1, 440189, Control_c, 0, 67, 98
1, 440208, Control_c, 0, 67, 103
1, 440245, Control_c, 0, 67, 107
1, 440286, Note_on_c, 0, 59, 35
1, 440320, Control_c, 0, 67, 112
1, 440352, Note_off_c, 0, 59, 47
1, 440352, Poly_aftertouch_c, 0, 59, 0
1, 440376, Control_c, 0, 67, 116
1, 440471, Note_off_c, 0, 56, 31
1, 440488, Control_c, 0, 67, 120
1, 440573, Note_on_c, 0, 68, 51
1, 440603, Note_on_c, 0, 52, 40
1, 440619, Control_c, 0, 64, 107
1, 440638, Control_c, 0, 64, 92
1, 440641, Control_c, 0, 67, 124
1, 440656, Control_c, 0, 64, 80
1, 440675, Control_c, 0, 64, 73
1, 440713, Control_c, 0, 64, 76
1, 440732, Control_c, 0, 64, 82
1, 440750, Control_c, 0, 64, 91
1, 440751, Note_off_c, 0, 71, 36
1, 440769, Control_c, 0, 64, 104
1, 440788, Control_c, 0, 64, 120
1, 440807, Control_c, 0, 64, 127
1, 440915, Note_on_c, 0, 56, 38
1, 440961, Note_off_c, 0, 52, 32
1, 441219, Note_on_c, 0, 64, 49
1, 441237, Control_c, 0, 64, 122
1, 441260, Note_on_c, 0, 49, 34
1, 441274, Control_c, 0, 64, 116
1, 441291, Note_off_c, 0, 56, 39
1, 441292, Control_c, 0, 64, 111
1, 441311, Control_c, 0, 64, 101
1, 441331, Control_c, 0, 64, 86
1, 441348, Control_c, 0, 64, 71
1, 441367, Control_c, 0, 64, 60
1, 441388, Control_c, 0, 64, 57
1, 441405, Control_c, 0, 64, 60
1, 441406, Note_off_c, 0, 68, 48
1, 441422, Control_c, 0, 64, 65
1, 441442, Control_c, 0, 64, 71
1, 441460, Control_c, 0, 64, 76
1, 441480, Control_c, 0, 64, 84
1, 441498, Control_c, 0, 64, 97
1, 441516, Control_c, 0, 64, 113
1, 441536, Control_c, 0, 64, 127
1, 441552, Note_on_c, 0, 52, 41
1, 441651, Note_off_c, 0, 49, 36
1, 441651, Poly_aftertouch_c, 0, 49, 0
1, 441862, Note_on_c, 0, 61, 52
1, 441877, Note_on_c, 0, 46, 41
1, 441889, Note_off_c, 0, 52, 35
1, 441985, Control_c, 0, 64, 118
1, 442003, Control_c, 0, 64, 103
1, 442023, Control_c, 0, 64, 83
1, 442030, Note_off_c, 0, 64, 55
1, 442040, Control_c, 0, 64, 63
1, 442059, Control_c, 0, 64, 49
1, 442077, Control_c, 0, 64, 45
1, 442096, Control_c, 0, 64, 54
1, 442115, Control_c, 0, 64, 67
1, 442134, Control_c, 0, 64, 81
1, 442152, Control_c, 0, 64, 97
1, 442170, Control_c, 0, 64, 116
1, 442188, Control_c, 0, 64, 127
1, 442193, Note_on_c, 0, 49, 44
1, 442303, Note_off_c, 0, 46, 51
1, 442471, Control_c, 0, 64, 123
1, 442488, Note_off_c, 0, 61, 53
1, 442527, Control_c, 0, 64, 118
1, 442559, Note_on_c, 0, 63, 42
1, 442576, Note_on_c, 0, 47, 36
1, 442581, Note_off_c, 0, 49, 32
1, 442581, Poly_aftertouch_c, 0, 49, 0
1, 442624, Note_off_c, 0, 63, 59
1, 442668, Note_on_c, 0, 64, 42
1, 442675, Control_c, 0, 64, 114
1, 442715, Note_off_c, 0, 64, 50
1, 442742, Note_on_c, 0, 63, 59
1, 442787, Control_c, 0, 64, 110
1, 442793, Note_off_c, 0, 63, 60
1, 442835, Note_on_c, 0, 64, 55
1, 442852, Note_on_c, 0, 51, 39
1, 442882, Control_c, 0, 64, 104
1, 442894, Note_on_c, 0, 63, 54
1, 442900, Note_off_c, 0, 64, 53
1, 442919, Control_c, 0, 64, 98
1, 442957, Control_c, 0, 64, 92
1, 442964, Note_off_c, 0, 63, 61
1, 442993, Control_c, 0, 64, 88
1, 443001, Note_on_c, 0, 61, 42
1, 443013, Control_c, 0, 64, 86
1, 443032, Control_c, 0, 64, 83
1, 443038, Note_off_c, 0, 47, 26
1, 443051, Control_c, 0, 64, 81
1, 443059, Note_on_c, 0, 63, 44
1, 443088, Control_c, 0, 64, 78
1, 443098, Note_off_c, 0, 61, 55
1, 443104, Control_c, 0, 64, 76
1, 443125, Control_c, 0, 64, 74
1, 443181, Control_c, 0, 64, 72
1, 443216, Note_on_c, 0, 64, 48
1, 443217, Control_c, 0, 64, 69
1, 443222, Note_on_c, 0, 49, 34
1, 443237, Control_c, 0, 64, 68
1, 443256, Control_c, 0, 64, 66
1, 443267, Note_off_c, 0, 51, 34
1, 443274, Control_c, 0, 64, 64
1, 443278, Note_off_c, 0, 63, 57
1, 443293, Control_c, 0, 64, 61
1, 443312, Control_c, 0, 64, 59
1, 443330, Control_c, 0, 64, 56
1, 443350, Control_c, 0, 64, 51
1, 443367, Control_c, 0, 64, 42
1, 443387, Control_c, 0, 64, 28
1, 443425, Control_c, 0, 64, 0
1, 443555, Control_c, 0, 64, 21
1, 443573, Control_c, 0, 64, 31
1, 443592, Control_c, 0, 64, 41
1, 443611, Control_c, 0, 64, 52
1, 443629, Control_c, 0, 64, 63
1, 443638, Note_on_c, 0, 52, 33
1, 443648, Control_c, 0, 64, 73
1, 443669, Control_c, 0, 64, 79
1, 443686, Control_c, 0, 64, 83
1, 443687, Control_c, 0, 67, 118
1, 443704, Control_c, 0, 64, 88
1, 443724, Control_c, 0, 64, 94
1, 443726, Control_c, 0, 67, 112
1, 443742, Control_c, 0, 64, 101
1, 443761, Control_c, 0, 64, 109
1, 443761, Control_c, 0, 67, 107
1, 443770, Note_off_c, 0, 49, 30
1, 443770, Poly_aftertouch_c, 0, 49, 0
1, 443778, Control_c, 0, 64, 115
1, 443798, Control_c, 0, 64, 121
1, 443799, Control_c, 0, 67, 100
1, 443817, Control_c, 0, 64, 125
1, 443819, Control_c, 0, 67, 95
1, 443834, Control_c, 0, 67, 89
1, 443854, Control_c, 0, 67, 83
1, 443872, Control_c, 0, 67, 78
1, 443892, Control_c, 0, 67, 74
1, 443929, Control_c, 0, 67, 67
1, 443946, Note_on_c, 0, 61, 52
1, 443966, Control_c, 0, 67, 61
1, 443992, Note_on_c, 0, 46, 37
1, 444004, Control_c, 0, 67, 57
1, 444061, Control_c, 0, 64, 121
1, 444062, Control_c, 0, 67, 51
1, 444078, Control_c, 0, 64, 116
1, 444097, Control_c, 0, 64, 106
1, 444098, Control_c, 0, 67, 47
1, 444100, Note_off_c, 0, 52, 37
1, 444116, Control_c, 0, 64, 90
1, 444135, Control_c, 0, 64, 75
1, 444138, Control_c, 0, 67, 43
1, 444153, Control_c, 0, 64, 68
1, 444172, Control_c, 0, 64, 71
1, 444191, Control_c, 0, 64, 76
1, 444192, Control_c, 0, 67, 36
1, 444207, Note_off_c, 0, 64, 36
1, 444209, Control_c, 0, 64, 81
1, 444210, Control_c, 0, 67, 32
1, 444229, Control_c, 0, 64, 89
1, 444231, Control_c, 0, 67, 26
1, 444247, Control_c, 0, 64, 101
1, 444248, Control_c, 0, 67, 21
1, 444267, Control_c, 0, 64, 115
1, 444268, Control_c, 0, 67, 16
1, 444284, Control_c, 0, 64, 127
1, 444302, Control_c, 0, 67, 9
1, 444324, Note_on_c, 0, 49, 41
1, 444530, Note_off_c, 0, 46, 32
1, 444618, Note_on_c, 0, 63, 56
1, 444640, Note_on_c, 0, 47, 41
1, 444714, Control_c, 0, 64, 122
1, 444727, Note_off_c, 0, 49, 36
1, 444727, Poly_aftertouch_c, 0, 49, 0
1, 444732, Control_c, 0, 64, 104
1, 444753, Control_c, 0, 64, 83
1, 444770, Control_c, 0, 64, 61
1, 444776, Note_off_c, 0, 61, 40
1, 444789, Control_c, 0, 64, 48
1, 444827, Control_c, 0, 64, 56
1, 444844, Control_c, 0, 64, 69
1, 444864, Control_c, 0, 64, 81
1, 444866, Control_c, 0, 67, 0
1, 444883, Control_c, 0, 64, 94
1, 444902, Control_c, 0, 64, 112
1, 444919, Control_c, 0, 64, 127
1, 444960, Note_on_c, 0, 51, 43
1, 445038, Note_off_c, 0, 47, 56
1, 445297, Note_on_c, 0, 67, 52
1, 445320, Note_on_c, 0, 46, 38
1, 445368, Note_off_c, 0, 63, 61
1, 445368, Control_c, 0, 64, 112
1, 445387, Control_c, 0, 64, 97
1, 445407, Control_c, 0, 64, 78
1, 445425, Control_c, 0, 64, 59
1, 445444, Control_c, 0, 64, 41
1, 445456, Note_off_c, 0, 51, 31
1, 445460, Control_c, 0, 64, 21
1, 445501, Control_c, 0, 64, 27
1, 445518, Control_c, 0, 64, 38
1, 445538, Control_c, 0, 64, 53
1, 445556, Control_c, 0, 64, 69
1, 445575, Control_c, 0, 64, 80
1, 445593, Control_c, 0, 64, 88
1, 445612, Control_c, 0, 64, 95
1, 445630, Control_c, 0, 64, 102
1, 445649, Control_c, 0, 64, 111
1, 445667, Control_c, 0, 64, 119
1, 445687, Control_c, 0, 64, 125
1, 445725, Note_on_c, 0, 49, 39
1, 445910, Note_off_c, 0, 46, 37
1, 446127, Note_on_c, 0, 68, 45
1, 446161, Note_off_c, 0, 49, 26
1, 446161, Poly_aftertouch_c, 0, 49, 0
1, 446181, Note_on_c, 0, 44, 33
1, 446229, Control_c, 0, 64, 120
1, 446247, Control_c, 0, 64, 110
1, 446268, Control_c, 0, 64, 96
1, 446285, Control_c, 0, 64, 79
1, 446303, Control_c, 0, 64, 65
1, 446322, Control_c, 0, 64, 55
1, 446340, Control_c, 0, 64, 49
1, 446360, Control_c, 0, 64, 52
1, 446379, Control_c, 0, 64, 61
1, 446396, Control_c, 0, 64, 73
1, 446398, Note_off_c, 0, 67, 38
1, 446398, Poly_aftertouch_c, 0, 67, 0
1, 446416, Control_c, 0, 64, 84
1, 446435, Control_c, 0, 64, 97
1, 446453, Control_c, 0, 64, 109
1, 446472, Control_c, 0, 64, 120
1, 446490, Control_c, 0, 64, 127
1, 446547, Note_on_c, 0, 70, 62
1, 446568, Note_off_c, 0, 44, 41
1, 446588, Note_on_c, 0, 47, 41
1, 446730, Note_off_c, 0, 68, 38
1, 446868, Note_on_c, 0, 71, 71
1, 446913, Note_on_c, 0, 40, 38
1, 446921, Note_off_c, 0, 70, 53
1, 446921, Poly_aftertouch_c, 0, 70, 0
1, 446939, Control_c, 0, 64, 110
1, 446941, Note_off_c, 0, 47, 35
1, 446958, Control_c, 0, 64, 87
1, 446978, Control_c, 0, 64, 64
1, 446995, Control_c, 0, 64, 46
1, 447014, Control_c, 0, 64, 34
1, 447034, Control_c, 0, 64, 42
1, 447052, Control_c, 0, 64, 57
1, 447069, Control_c, 0, 64, 74
1, 447089, Control_c, 0, 64, 90
1, 447107, Control_c, 0, 64, 110
1, 447125, Control_c, 0, 64, 127
1, 447136, Note_on_c, 0, 73, 72
1, 447183, Note_on_c, 0, 44, 44
1, 447193, Note_off_c, 0, 71, 55
1, 447218, Note_off_c, 0, 40, 31
1, 447218, Poly_aftertouch_c, 0, 40, 0
1, 447311, Note_off_c, 0, 44, 52
1, 447336, Note_on_c, 0, 68, 51
1, 447369, Note_off_c, 0, 73, 56
1, 447369, Poly_aftertouch_c, 0, 73, 0
1, 447481, Control_c, 0, 64, 120
1, 447495, Note_on_c, 0, 39, 46
1, 447501, Control_c, 0, 64, 115
1, 447519, Control_c, 0, 64, 110
1, 447537, Control_c, 0, 64, 106
1, 447557, Control_c, 0, 64, 102
1, 447575, Control_c, 0, 64, 97
1, 447594, Control_c, 0, 64, 92
1, 447612, Control_c, 0, 64, 87
1, 447632, Control_c, 0, 64, 79
1, 447650, Control_c, 0, 64, 72
1, 447667, Control_c, 0, 64, 65
1, 447671, Note_on_c, 0, 75, 74
1, 447688, Control_c, 0, 64, 57
1, 447707, Control_c, 0, 64, 44
1, 447725, Control_c, 0, 64, 0
1, 447874, Control_c, 0, 64, 25
1, 447893, Control_c, 0, 64, 45
1, 447912, Control_c, 0, 64, 65
1, 447929, Control_c, 0, 64, 81
1, 447949, Control_c, 0, 64, 101
1, 447968, Control_c, 0, 64, 126
1, 448149, Note_off_c, 0, 39, 33
1, 448203, Note_on_c, 0, 48, 40
1, 448512, Note_off_c, 0, 48, 37
1, 448550, Note_on_c, 0, 51, 41
1, 448651, Note_off_c, 0, 51, 54
1, 448848, Note_on_c, 0, 60, 44
1, 449100, Note_off_c, 0, 60, 32
1, 449100, Poly_aftertouch_c, 0, 60, 0
1, 449141, Note_on_c, 0, 63, 49
1, 449393, Note_off_c, 0, 63, 37
1, 449421, Note_on_c, 0, 60, 49
1, 449496, Note_off_c, 0, 60, 56
1, 449496, Poly_aftertouch_c, 0, 60, 0
1, 449669, Note_on_c, 0, 72, 71
1, 449733, Note_on_c, 0, 51, 43
1, 449835, Note_off_c, 0, 68, 56
1, 449877, Note_off_c, 0, 75, 55
1, 449898, Note_off_c, 0, 51, 53
1, 449953, Note_on_c, 0, 48, 44
1, 450083, Note_on_c, 0, 69, 54
1, 450136, Note_off_c, 0, 72, 58
1, 450196, Note_off_c, 0, 48, 30
1, 450302, Note_on_c, 0, 39, 34
1, 450343, Control_c, 0, 64, 120
1, 450361, Control_c, 0, 64, 114
1, 450378, Note_on_c, 0, 75, 76
1, 450417, Control_c, 0, 64, 108
1, 450436, Control_c, 0, 64, 103
1, 450455, Control_c, 0, 64, 96
1, 450474, Control_c, 0, 64, 88
1, 450493, Control_c, 0, 64, 78
1, 450511, Control_c, 0, 64, 66
1, 450530, Control_c, 0, 64, 52
1, 450547, Control_c, 0, 64, 28
1, 450567, Control_c, 0, 64, 0
1, 450623, Control_c, 0, 64, 26
1, 450642, Control_c, 0, 64, 42
1, 450661, Control_c, 0, 64, 57
1, 450679, Control_c, 0, 64, 72
1, 450697, Control_c, 0, 64, 86
1, 450717, Control_c, 0, 64, 104
1, 450735, Control_c, 0, 64, 127
1, 450756, Note_on_c, 0, 48, 38
1, 450831, Note_off_c, 0, 39, 40
1, 451004, Note_off_c, 0, 48, 40
1, 451031, Note_on_c, 0, 51, 46
1, 451090, Control_c, 0, 67, 8
1, 451112, Note_off_c, 0, 51, 54
1, 451147, Control_c, 0, 67, 12
1, 451202, Control_c, 0, 67, 17
1, 451239, Control_c, 0, 67, 22
1, 451277, Control_c, 0, 67, 26
1, 451327, Note_on_c, 0, 60, 33
1, 451333, Control_c, 0, 67, 32
1, 451352, Control_c, 0, 67, 36
1, 451371, Control_c, 0, 67, 41
1, 451389, Control_c, 0, 67, 46
1, 451419, Note_off_c, 0, 60, 45
1, 451419, Poly_aftertouch_c, 0, 60, 0
1, 451426, Control_c, 0, 67, 52
1, 451483, Control_c, 0, 67, 57
1, 451520, Control_c, 0, 67, 62
1, 451557, Control_c, 0, 67, 66
1, 451615, Control_c, 0, 67, 70
1, 451652, Control_c, 0, 64, 122
1, 451670, Control_c, 0, 67, 75
1, 451689, Control_c, 0, 64, 114
1, 451704, Note_on_c, 0, 63, 41
1, 451706, Control_c, 0, 64, 109
1, 451707, Control_c, 0, 67, 79
1, 451727, Control_c, 0, 64, 105
1, 451746, Control_c, 0, 64, 101
1, 451746, Control_c, 0, 67, 83
1, 451782, Control_c, 0, 67, 91
1, 451801, Control_c, 0, 67, 95
1, 451820, Control_c, 0, 64, 113
1, 451821, Control_c, 0, 67, 99
1, 451840, Control_c, 0, 64, 124
1, 451857, Control_c, 0, 67, 104
1, 451860, Note_off_c, 0, 63, 60
1, 452044, Control_c, 0, 64, 119
1, 452082, Control_c, 0, 64, 111
1, 452102, Control_c, 0, 64, 105
1, 452109, Note_on_c, 0, 61, 42
1, 452157, Control_c, 0, 64, 101
1, 452194, Control_c, 0, 64, 97
1, 452212, Control_c, 0, 64, 92
1, 452249, Control_c, 0, 64, 86
1, 452269, Control_c, 0, 64, 83
1, 452287, Control_c, 0, 64, 80
1, 452306, Control_c, 0, 64, 78
1, 452324, Control_c, 0, 64, 76
1, 452344, Control_c, 0, 64, 74
1, 452361, Control_c, 0, 64, 71
1, 452369, Poly_aftertouch_c, 0, 69, 24
1, 452380, Control_c, 0, 64, 69
1, 452400, Control_c, 0, 64, 67
1, 452418, Control_c, 0, 64, 65
1, 452437, Control_c, 0, 64, 62
1, 452445, Note_on_c, 0, 70, 44
1, 452454, Control_c, 0, 64, 59
1, 452461, Note_off_c, 0, 69, 31
1, 452461, Note_on_c, 0, 67, 40
1, 452461, Poly_aftertouch_c, 0, 69, 0
1, 452476, Control_c, 0, 64, 56
1, 452484, Note_off_c, 0, 61, 38
1, 452492, Control_c, 0, 64, 54
1, 452510, Note_on_c, 0, 51, 30
1, 452511, Control_c, 0, 64, 51
1, 452531, Control_c, 0, 64, 45
1, 452549, Control_c, 0, 64, 34
1, 452568, Control_c, 0, 64, 17
1, 452586, Control_c, 0, 64, 0
1, 452605, Control_c, 0, 67, 108
1, 452641, Control_c, 0, 67, 114
1, 452669, Note_off_c, 0, 75, 38
1, 452681, Control_c, 0, 64, 13
1, 452682, Control_c, 0, 67, 119
1, 452698, Control_c, 0, 64, 25
1, 452717, Control_c, 0, 64, 40
1, 452736, Control_c, 0, 64, 54
1, 452755, Control_c, 0, 64, 64
1, 452756, Control_c, 0, 67, 124
1, 452773, Control_c, 0, 64, 72
1, 452792, Control_c, 0, 64, 79
1, 452812, Control_c, 0, 64, 90
1, 452829, Control_c, 0, 64, 106
1, 452849, Control_c, 0, 64, 122
1, 452867, Control_c, 0, 64, 127
1, 452878, Note_on_c, 0, 49, 37
1, 452912, Note_off_c, 0, 51, 29
1, 453084, Note_off_c, 0, 49, 35
1, 453084, Note_off_c, 0, 67, 34
1, 453084, Poly_aftertouch_c, 0, 49, 0
1, 453084, Poly_aftertouch_c, 0, 67, 0
1, 453095, Note_off_c, 0, 70, 36
1, 453095, Poly_aftertouch_c, 0, 70, 0
1, 453375, Note_on_c, 0, 72, 39
1, 453403, Note_on_c, 0, 68, 32
1, 453466, Control_c, 0, 64, 118
1, 453472, Note_on_c, 0, 44, 29
1, 453484, Control_c, 0, 64, 112
1, 453502, Control_c, 0, 64, 105
1, 453521, Control_c, 0, 64, 96
1, 453540, Control_c, 0, 64, 84
1, 453559, Control_c, 0, 64, 70
1, 453576, Control_c, 0, 64, 56
1, 453597, Control_c, 0, 64, 40
1, 453633, Control_c, 0, 64, 0
1, 453671, Control_c, 0, 64, 28
1, 453689, Control_c, 0, 64, 47
1, 453708, Control_c, 0, 64, 64
1, 453726, Control_c, 0, 64, 75
1, 453746, Control_c, 0, 64, 85
1, 453765, Control_c, 0, 64, 100
1, 453783, Control_c, 0, 64, 120
1, 453802, Control_c, 0, 64, 127
1, 453954, Note_on_c, 0, 51, 27
1, 453999, Note_off_c, 0, 44, 42
1, 454286, Note_on_c, 0, 56, 32
1, 454390, Poly_aftertouch_c, 0, 51, 22
1, 454409, Note_off_c, 0, 51, 23
1, 454409, Poly_aftertouch_c, 0, 51, 0
1, 454599, Note_off_c, 0, 56, 36
1, 454644, Note_on_c, 0, 60, 34
1, 454919, Note_off_c, 0, 68, 39
1, 454929, Note_off_c, 0, 72, 29
1, 455066, Poly_aftertouch_c, 0, 60, 20
1, 455068, Note_off_c, 0, 60, 36
1, 455068, Poly_aftertouch_c, 0, 60, 0
1, 455089, Note_on_c, 0, 63, 33
1, 455428, Control_c, 0, 64, 122
1, 455467, Control_c, 0, 64, 116
1, 455485, Control_c, 0, 64, 112
1, 455749, Note_on_c, 0, 68, 32
1, 455821, Control_c, 0, 64, 116
1, 455868, Note_off_c, 0, 63, 37
1, 455896, Control_c, 0, 64, 121
1, 455974, Note_off_c, 0, 68, 46
1, 456396, Note_on_c, 0, 75, 47
1, 456500, Note_on_c, 0, 60, 30
1, 456569, Control_c, 0, 64, 116
1, 456607, Control_c, 0, 64, 111
1, 456626, Control_c, 0, 64, 107
1, 456644, Control_c, 0, 64, 102
1, 456662, Control_c, 0, 64, 91
1, 456682, Control_c, 0, 64, 77
1, 456700, Control_c, 0, 64, 66
1, 456719, Control_c, 0, 64, 65
1, 456737, Control_c, 0, 64, 68
1, 456775, Control_c, 0, 64, 72
1, 456793, Control_c, 0, 64, 75
1, 456812, Control_c, 0, 64, 79
1, 456831, Control_c, 0, 64, 85
1, 456850, Control_c, 0, 64, 93
1, 456868, Control_c, 0, 64, 102
1, 456886, Control_c, 0, 64, 110
1, 456906, Control_c, 0, 64, 118
1, 456924, Control_c, 0, 64, 124
1, 457084, Note_on_c, 0, 63, 27
1, 457117, Note_off_c, 0, 60, 36
1, 457117, Poly_aftertouch_c, 0, 60, 0
1, 457506, Note_on_c, 0, 72, 41
1, 457598, Note_on_c, 0, 56, 31
1, 457625, Note_off_c, 0, 63, 37
1, 457778, Note_off_c, 0, 75, 38
1, 458021, Note_on_c, 0, 60, 27
1, 458318, Note_off_c, 0, 56, 27
1, 458341, Note_on_c, 0, 68, 47
1, 458428, Note_on_c, 0, 53, 24
1, 458533, Control_c, 0, 64, 108
1, 458551, Control_c, 0, 64, 95
1, 458555, Note_off_c, 0, 60, 25
1, 458555, Poly_aftertouch_c, 0, 60, 0
1, 458570, Control_c, 0, 64, 89
1, 458599, Note_off_c, 0, 72, 36
1, 458626, Control_c, 0, 64, 96
1, 458645, Control_c, 0, 64, 102
1, 458663, Control_c, 0, 64, 112
1, 458682, Control_c, 0, 64, 122
1, 458700, Control_c, 0, 64, 127
1, 458726, Note_on_c, 0, 56, 42
1, 458869, Note_off_c, 0, 53, 33
1, 458869, Poly_aftertouch_c, 0, 53, 0
1, 459035, Note_on_c, 0, 65, 46
1, 459043, Note_off_c, 0, 56, 36
1, 459087, Note_on_c, 0, 49, 31
1, 459168, Control_c, 0, 64, 112
1, 459187, Control_c, 0, 64, 97
1, 459205, Control_c, 0, 64, 81
1, 459224, Control_c, 0, 64, 69
1, 459235, Note_off_c, 0, 68, 38
1, 459242, Control_c, 0, 64, 65
1, 459262, Control_c, 0, 64, 67
1, 459280, Control_c, 0, 64, 71
1, 459300, Control_c, 0, 64, 76
1, 459318, Control_c, 0, 64, 83
1, 459337, Control_c, 0, 64, 94
1, 459355, Control_c, 0, 64, 109
1, 459374, Control_c, 0, 64, 122
1, 459392, Control_c, 0, 64, 127
1, 459405, Note_on_c, 0, 53, 40
1, 459508, Note_off_c, 0, 49, 37
1, 459508, Poly_aftertouch_c, 0, 49, 0
1, 459693, Note_on_c, 0, 61, 50
1, 459734, Note_on_c, 0, 46, 38
1, 459748, Control_c, 0, 64, 123
1, 459766, Control_c, 0, 64, 113
1, 459785, Control_c, 0, 64, 101
1, 459788, Note_off_c, 0, 65, 51
1, 459804, Control_c, 0, 64, 90
1, 459823, Control_c, 0, 64, 84
1, 459843, Note_off_c, 0, 53, 29
1, 459843, Poly_aftertouch_c, 0, 53, 0
1, 459860, Control_c, 0, 64, 88
1, 459880, Control_c, 0, 64, 92
1, 459897, Control_c, 0, 64, 97
1, 459916, Control_c, 0, 64, 105
1, 459935, Control_c, 0, 64, 114
1, 459954, Control_c, 0, 64, 120
1, 460010, Control_c, 0, 64, 124
1, 460033, Note_on_c, 0, 49, 41
1, 460201, Note_off_c, 0, 46, 32
1, 460277, Note_off_c, 0, 49, 35
1, 460277, Poly_aftertouch_c, 0, 49, 0
1, 460336, Note_on_c, 0, 58, 50
1, 460347, Control_c, 0, 64, 119
1, 460383, Note_on_c, 0, 43, 36
1, 460403, Control_c, 0, 64, 115
1, 460439, Control_c, 0, 64, 106
1, 460459, Control_c, 0, 64, 95
1, 460466, Note_off_c, 0, 61, 32
1, 460478, Control_c, 0, 64, 81
1, 460496, Control_c, 0, 64, 67
1, 460515, Control_c, 0, 64, 57
1, 460533, Control_c, 0, 64, 52
1, 460570, Control_c, 0, 64, 60
1, 460590, Control_c, 0, 64, 68
1, 460608, Control_c, 0, 64, 75
1, 460627, Control_c, 0, 64, 83
1, 460645, Control_c, 0, 64, 94
1, 460665, Control_c, 0, 64, 107
1, 460668, Note_on_c, 0, 46, 43
1, 460682, Control_c, 0, 64, 118
1, 460701, Control_c, 0, 64, 126
1, 460780, Note_off_c, 0, 43, 29
1, 460959, Note_off_c, 0, 58, 50
1, 460959, Poly_aftertouch_c, 0, 58, 0
1, 461020, Control_c, 0, 64, 122
1, 461027, Note_on_c, 0, 60, 39
1, 461061, Note_on_c, 0, 44, 36
1, 461098, Note_off_c, 0, 46, 36
1, 461108, Note_off_c, 0, 60, 53
1, 461108, Poly_aftertouch_c, 0, 60, 0
1, 461132, Control_c, 0, 64, 118
1, 461169, Note_on_c, 0, 61, 44
1, 461224, Note_off_c, 0, 61, 63
1, 461243, Control_c, 0, 64, 113
1, 461266, Note_on_c, 0, 60, 47
1, 461313, Note_off_c, 0, 60, 62
1, 461313, Poly_aftertouch_c, 0, 60, 0
1, 461319, Control_c, 0, 64, 108
1, 461344, Note_on_c, 0, 61, 55
1, 461354, Note_on_c, 0, 48, 35
1, 461374, Control_c, 0, 64, 104
1, 461392, Note_off_c, 0, 61, 61
1, 461414, Note_on_c, 0, 60, 45
1, 461431, Note_off_c, 0, 44, 30
1, 461449, Control_c, 0, 64, 100
1, 461458, Note_off_c, 0, 60, 58
1, 461458, Poly_aftertouch_c, 0, 60, 0
1, 461478, Note_on_c, 0, 58, 45
1, 461486, Control_c, 0, 64, 96
1, 461524, Control_c, 0, 64, 92
1, 461545, Note_off_c, 0, 58, 57
1, 461545, Poly_aftertouch_c, 0, 58, 0
1, 461561, Control_c, 0, 64, 87
1, 461574, Note_on_c, 0, 60, 45
1, 461580, Control_c, 0, 64, 85
1, 461600, Control_c, 0, 64, 83
1, 461618, Control_c, 0, 64, 81
1, 461636, Control_c, 0, 64, 79
1, 461654, Control_c, 0, 64, 76
1, 461673, Control_c, 0, 64, 74
1, 461681, Note_on_c, 0, 61, 46
1, 461701, Note_on_c, 0, 46, 35
1, 461709, Control_c, 0, 64, 70
1, 461730, Control_c, 0, 64, 68
1, 461734, Note_off_c, 0, 48, 39
1, 461748, Control_c, 0, 64, 65
1, 461755, Note_off_c, 0, 60, 59
1, 461755, Poly_aftertouch_c, 0, 60, 0
1, 461767, Control_c, 0, 64, 62
1, 461787, Control_c, 0, 64, 59
1, 461805, Control_c, 0, 64, 53
1, 461823, Control_c, 0, 64, 46
1, 461844, Control_c, 0, 64, 34
1, 461861, Control_c, 0, 64, 17
1, 461880, Control_c, 0, 64, 0
1, 461955, Control_c, 0, 64, 11
1, 461973, Control_c, 0, 64, 20
1, 461974, Control_c, 0, 67, 120
1, 461993, Control_c, 0, 64, 28
1, 462011, Control_c, 0, 64, 38
1, 462029, Control_c, 0, 64, 51
1, 462031, Control_c, 0, 67, 116
1, 462048, Control_c, 0, 64, 64
1, 462066, Control_c, 0, 64, 72
1, 462067, Control_c, 0, 67, 112
1, 462070, Note_on_c, 0, 49, 32
1, 462086, Control_c, 0, 64, 77
1, 462104, Control_c, 0, 64, 80
1, 462106, Control_c, 0, 67, 105
1, 462123, Control_c, 0, 64, 87
1, 462125, Control_c, 0, 67, 101
1, 462142, Control_c, 0, 64, 97
1, 462143, Control_c, 0, 67, 96
1, 462160, Control_c, 0, 64, 107
1, 462162, Control_c, 0, 67, 92
1, 462178, Control_c, 0, 64, 114
1, 462198, Control_c, 0, 67, 85
1, 462208, Note_off_c, 0, 46, 34
1, 462215, Control_c, 0, 64, 118
1, 462216, Control_c, 0, 67, 81
1, 462234, Control_c, 0, 67, 76
1, 462254, Control_c, 0, 64, 122
1, 462255, Control_c, 0, 67, 70
1, 462272, Control_c, 0, 67, 66
1, 462310, Control_c, 0, 67, 60
1, 462329, Control_c, 0, 67, 55
1, 462340, Note_on_c, 0, 58, 45
1, 462346, Control_c, 0, 67, 49
1, 462364, Note_on_c, 0, 43, 39
1, 462364, Control_c, 0, 67, 43
1, 462384, Control_c, 0, 67, 37
1, 462403, Control_c, 0, 67, 32
1, 462422, Control_c, 0, 67, 28
1, 462440, Control_c, 0, 67, 23
1, 462461, Control_c, 0, 64, 117
1, 462462, Control_c, 0, 67, 17
1, 462478, Control_c, 0, 64, 112
1, 462479, Control_c, 0, 67, 13
1, 462497, Control_c, 0, 64, 101
1, 462516, Control_c, 0, 64, 86
1, 462517, Control_c, 0, 67, 8
1, 462534, Control_c, 0, 64, 70
1, 462552, Note_off_c, 0, 61, 27
1, 462553, Control_c, 0, 64, 61
1, 462571, Control_c, 0, 64, 60
1, 462590, Control_c, 0, 64, 63
1, 462608, Control_c, 0, 64, 67
1, 462628, Control_c, 0, 64, 70
1, 462633, Poly_aftertouch_c, 0, 49, 22
1, 462645, Control_c, 0, 64, 73
1, 462665, Control_c, 0, 64, 78
1, 462666, Control_c, 0, 67, 0
1, 462684, Control_c, 0, 64, 86
1, 462686, Note_on_c, 0, 46, 35
1, 462698, Note_off_c, 0, 49, 19
1, 462698, Poly_aftertouch_c, 0, 49, 0
1, 462701, Control_c, 0, 64, 97
1, 462720, Control_c, 0, 64, 108
1, 462740, Control_c, 0, 64, 117
1, 462758, Control_c, 0, 64, 125
1, 462974, Note_on_c, 0, 60, 48
1, 463022, Note_on_c, 0, 44, 36
1, 463038, Control_c, 0, 64, 119
1, 463053, Note_off_c, 0, 58, 36
1, 463053, Poly_aftertouch_c, 0, 58, 0
1, 463057, Control_c, 0, 64, 99
1, 463068, Note_off_c, 0, 43, 31
1, 463071, Note_off_c, 0, 46, 35
1, 463075, Control_c, 0, 64, 76
1, 463095, Control_c, 0, 64, 60
1, 463113, Control_c, 0, 64, 54
1, 463152, Control_c, 0, 64, 60
1, 463169, Control_c, 0, 64, 69
1, 463188, Control_c, 0, 64, 74
1, 463207, Control_c, 0, 64, 81
1, 463226, Control_c, 0, 64, 92
1, 463244, Control_c, 0, 64, 108
1, 463263, Control_c, 0, 64, 126
1, 463301, Note_on_c, 0, 48, 39
1, 463425, Note_off_c, 0, 44, 37
1, 463519, Note_off_c, 0, 48, 43
1, 463604, Note_on_c, 0, 63, 53
1, 463628, Note_on_c, 0, 43, 37
1, 463712, Control_c, 0, 64, 117
1, 463730, Control_c, 0, 64, 98
1, 463750, Control_c, 0, 64, 77
1, 463762, Note_off_c, 0, 60, 38
1, 463762, Poly_aftertouch_c, 0, 60, 0
1, 463768, Control_c, 0, 64, 60
1, 463786, Control_c, 0, 64, 50
1, 463824, Control_c, 0, 64, 54
1, 463843, Control_c, 0, 64, 61
1, 463861, Control_c, 0, 64, 69
1, 463881, Control_c, 0, 64, 76
1, 463899, Control_c, 0, 64, 85
1, 463917, Control_c, 0, 64, 97
1, 463937, Control_c, 0, 64, 112
1, 463947, Note_on_c, 0, 46, 35
1, 463953, Control_c, 0, 64, 125
1, 464167, Note_off_c, 0, 43, 41
1, 464188, Note_off_c, 0, 46, 40
1, 464281, Note_on_c, 0, 68, 49
1, 464304, Note_on_c, 0, 41, 40
1, 464309, Control_c, 0, 67, 8
1, 464367, Control_c, 0, 64, 120
1, 464368, Control_c, 0, 67, 13
1, 464385, Control_c, 0, 64, 107
1, 464404, Control_c, 0, 64, 92
1, 464405, Control_c, 0, 67, 17
1, 464414, Note_off_c, 0, 63, 37
1, 464422, Control_c, 0, 64, 77
1, 464441, Control_c, 0, 64, 65
1, 464443, Control_c, 0, 67, 24
1, 464460, Control_c, 0, 64, 62
1, 464463, Control_c, 0, 67, 29
1, 464478, Control_c, 0, 64, 66
1, 464480, Control_c, 0, 67, 36
1, 464498, Control_c, 0, 64, 73
1, 464500, Control_c, 0, 67, 42
1, 464516, Control_c, 0, 64, 81
1, 464517, Control_c, 0, 67, 46
1, 464536, Control_c, 0, 64, 93
1, 464553, Control_c, 0, 64, 109
1, 464554, Control_c, 0, 67, 51
1, 464573, Control_c, 0, 64, 125
1, 464639, Note_on_c, 0, 44, 31
1, 464686, Control_c, 0, 67, 55
1, 464731, Note_off_c, 0, 41, 42
1, 464731, Poly_aftertouch_c, 0, 41, 0
1, 464925, Note_on_c, 0, 70, 48
1, 464951, Note_on_c, 0, 40, 42
1, 464965, Control_c, 0, 67, 60
1, 464993, Note_off_c, 0, 44, 35
1, 465002, Control_c, 0, 67, 64
1, 465040, Control_c, 0, 64, 114
1, 465058, Control_c, 0, 64, 100
1, 465077, Control_c, 0, 64, 84
1, 465096, Control_c, 0, 64, 69
1, 465103, Note_off_c, 0, 68, 34
1, 465114, Control_c, 0, 64, 64
1, 465133, Control_c, 0, 64, 66
1, 465152, Control_c, 0, 64, 72
1, 465171, Control_c, 0, 64, 78
1, 465189, Control_c, 0, 64, 88
1, 465207, Control_c, 0, 64, 101
1, 465226, Control_c, 0, 64, 115
1, 465245, Control_c, 0, 64, 125
1, 465338, Note_on_c, 0, 50, 31
1, 465419, Note_on_c, 0, 67, 40
1, 465466, Note_off_c, 0, 70, 36
1, 465466, Poly_aftertouch_c, 0, 70, 0
1, 465480, Note_off_c, 0, 40, 39
1, 465480, Poly_aftertouch_c, 0, 40, 0
1, 465638, Control_c, 0, 64, 120
1, 465675, Control_c, 0, 64, 115
1, 465693, Note_on_c, 0, 75, 55
1, 465722, Poly_aftertouch_c, 0, 50, 24
1, 465730, Control_c, 0, 64, 109
1, 465751, Control_c, 0, 64, 105
1, 465764, Note_off_c, 0, 50, 19
1, 465764, Poly_aftertouch_c, 0, 50, 0
1, 465769, Control_c, 0, 64, 100
1, 465778, Note_on_c, 0, 39, 41
1, 465787, Control_c, 0, 64, 95
1, 465807, Control_c, 0, 64, 87
1, 465826, Control_c, 0, 64, 72
1, 465844, Control_c, 0, 64, 54
1, 465862, Control_c, 0, 64, 26
1, 465881, Control_c, 0, 64, 0
1, 465936, Control_c, 0, 64, 11
1, 465956, Control_c, 0, 64, 43
1, 465975, Control_c, 0, 64, 70
1, 465993, Control_c, 0, 64, 91
1, 465996, Control_c, 0, 67, 69
1, 466012, Control_c, 0, 64, 112
1, 466031, Control_c, 0, 64, 127
1, 466032, Control_c, 0, 67, 79
1, 466049, Control_c, 0, 67, 88
1, 466068, Control_c, 0, 67, 97
1, 466086, Control_c, 0, 67, 107
1, 466106, Control_c, 0, 67, 117
1, 466116, Note_off_c, 0, 39, 51
1, 466123, Control_c, 0, 67, 124
1, 466175, Note_on_c, 0, 51, 40
1, 466234, Note_off_c, 0, 51, 58
1, 466234, Poly_aftertouch_c, 0, 51, 0
1, 466350, Note_off_c, 0, 67, 28
1, 466350, Poly_aftertouch_c, 0, 67, 0
1, 466494, Note_on_c, 0, 55, 39
1, 466726, Note_off_c, 0, 75, 37
1, 466839, Note_on_c, 0, 58, 43
1, 467212, Note_on_c, 0, 63, 41
1, 467489, Control_c, 0, 64, 123
1, 467490, Control_c, 0, 67, 120
1, 467573, Note_on_c, 0, 67, 42
1, 467600, Control_c, 0, 64, 119
1, 467612, Poly_aftertouch_c, 0, 55, 24
1, 467615, Note_off_c, 0, 63, 37
1, 467657, Control_c, 0, 64, 114
1, 467712, Poly_aftertouch_c, 0, 58, 24
1, 467714, Control_c, 0, 64, 110
1, 467745, Note_off_c, 0, 55, 25
1, 467745, Poly_aftertouch_c, 0, 55, 0
1, 467807, Note_off_c, 0, 67, 34
1, 467807, Poly_aftertouch_c, 0, 67, 0
1, 467845, Control_c, 0, 64, 106
1, 467886, Note_off_c, 0, 58, 22
1, 467886, Poly_aftertouch_c, 0, 58, 0
1, 467920, Control_c, 0, 64, 102
1, 467976, Control_c, 0, 64, 98
1, 468031, Control_c, 0, 64, 93
1, 468047, Note_on_c, 0, 75, 50
1, 468107, Control_c, 0, 64, 89
1, 468119, Note_on_c, 0, 63, 31
1, 468143, Control_c, 0, 64, 85
1, 468162, Control_c, 0, 64, 82
1, 468181, Control_c, 0, 64, 79
1, 468200, Control_c, 0, 64, 76
1, 468218, Control_c, 0, 64, 72
1, 468237, Control_c, 0, 64, 69
1, 468256, Control_c, 0, 64, 63
1, 468274, Control_c, 0, 64, 56
1, 468293, Control_c, 0, 64, 44
1, 468312, Control_c, 0, 64, 23
1, 468331, Control_c, 0, 64, 0
1, 468443, Control_c, 0, 64, 11
1, 468463, Control_c, 0, 64, 30
1, 468480, Control_c, 0, 64, 45
1, 468499, Control_c, 0, 64, 58
1, 468518, Control_c, 0, 64, 67
1, 468536, Control_c, 0, 64, 72
1, 468555, Control_c, 0, 64, 77
1, 468573, Control_c, 0, 64, 83
1, 468593, Control_c, 0, 64, 90
1, 468609, Control_c, 0, 64, 97
1, 468619, Note_on_c, 0, 66, 30
1, 468629, Control_c, 0, 64, 105
1, 468649, Control_c, 0, 64, 112
1, 468668, Control_c, 0, 64, 118
1, 468670, Note_off_c, 0, 63, 35
1, 468685, Control_c, 0, 64, 123
1, 468704, Control_c, 0, 64, 127
1, 468954, Note_off_c, 0, 66, 41
1, 469010, Note_on_c, 0, 59, 38
1, 469078, Control_c, 0, 67, 116
1, 469436, Note_on_c, 0, 63, 35
1, 469472, Control_c, 0, 67, 112
1, 469501, Poly_aftertouch_c, 0, 59, 24
1, 469655, Note_off_c, 0, 59, 23
1, 469655, Poly_aftertouch_c, 0, 59, 0
1, 469787, Note_on_c, 0, 71, 48
1, 469824, Note_off_c, 0, 63, 33
1, 469873, Note_on_c, 0, 56, 24
1, 470153, Note_off_c, 0, 75, 27
1, 470189, Note_on_c, 0, 59, 34
1, 470394, Note_off_c, 0, 59, 33
1, 470394, Poly_aftertouch_c, 0, 59, 0
1, 470473, Note_on_c, 0, 68, 48
1, 470501, Note_off_c, 0, 56, 34
1, 470509, Note_on_c, 0, 52, 35
1, 470593, Control_c, 0, 64, 120
1, 470612, Control_c, 0, 64, 106
1, 470631, Control_c, 0, 64, 90
1, 470650, Control_c, 0, 64, 78
1, 470668, Control_c, 0, 64, 74
1, 470687, Control_c, 0, 64, 76
1, 470694, Note_off_c, 0, 71, 36
1, 470706, Control_c, 0, 64, 81
1, 470724, Control_c, 0, 64, 88
1, 470743, Control_c, 0, 64, 97
1, 470761, Control_c, 0, 64, 109
1, 470780, Control_c, 0, 64, 121
1, 470798, Control_c, 0, 64, 127
1, 470857, Note_on_c, 0, 56, 30
1, 470979, Note_off_c, 0, 52, 35
1, 471125, Note_on_c, 0, 64, 51
1, 471159, Note_on_c, 0, 49, 41
1, 471256, Note_off_c, 0, 56, 38
1, 471286, Control_c, 0, 64, 120
1, 471303, Control_c, 0, 64, 103
1, 471322, Control_c, 0, 64, 83
1, 471341, Control_c, 0, 64, 67
1, 471349, Note_off_c, 0, 68, 51
1, 471359, Control_c, 0, 64, 61
1, 471397, Control_c, 0, 64, 66
1, 471416, Control_c, 0, 64, 72
1, 471434, Control_c, 0, 64, 80
1, 471453, Control_c, 0, 64, 91
1, 471472, Control_c, 0, 64, 104
1, 471488, Note_on_c, 0, 52, 33
1, 471488, Control_c, 0, 64, 116
1, 471509, Control_c, 0, 64, 126
1, 471768, Note_on_c, 0, 61, 53
1, 471812, Note_on_c, 0, 46, 37
1, 471840, Note_off_c, 0, 49, 27
1, 471840, Poly_aftertouch_c, 0, 49, 0
1, 471897, Note_off_c, 0, 52, 40
1, 471959, Control_c, 0, 64, 112
1, 471973, Note_off_c, 0, 64, 51
1, 471976, Control_c, 0, 64, 97
1, 471995, Control_c, 0, 64, 81
1, 472015, Control_c, 0, 64, 64
1, 472033, Control_c, 0, 64, 52
1, 472051, Control_c, 0, 64, 45
1, 472071, Control_c, 0, 64, 47
1, 472089, Control_c, 0, 64, 54
1, 472108, Control_c, 0, 64, 59
1, 472123, Note_on_c, 0, 49, 40
1, 472127, Control_c, 0, 64, 65
1, 472146, Control_c, 0, 64, 72
1, 472163, Control_c, 0, 64, 80
1, 472183, Control_c, 0, 64, 88
1, 472201, Control_c, 0, 64, 96
1, 472220, Control_c, 0, 64, 102
1, 472238, Control_c, 0, 64, 109
1, 472257, Control_c, 0, 64, 114
1, 472295, Control_c, 0, 64, 120
1, 472320, Note_off_c, 0, 46, 35
1, 472408, Note_off_c, 0, 61, 50
1, 472464, Note_on_c, 0, 63, 40
1, 472470, Note_on_c, 0, 47, 35
1, 472500, Note_off_c, 0, 49, 30
1, 472500, Poly_aftertouch_c, 0, 49, 0
1, 472534, Note_off_c, 0, 63, 57
1, 472573, Note_on_c, 0, 64, 47
1, 472595, Control_c, 0, 64, 115
1, 472653, Note_off_c, 0, 64, 57
1, 472674, Note_on_c, 0, 63, 50
1, 472739, Note_on_c, 0, 51, 41
1, 472743, Control_c, 0, 64, 111
1, 472753, Note_on_c, 0, 64, 35
1, 472819, Control_c, 0, 64, 106
1, 472854, Note_off_c, 0, 63, 58
1, 472855, Poly_aftertouch_c, 0, 63, 0
1, 472874, Control_c, 0, 64, 101
1, 472879, Note_off_c, 0, 64, 49
1, 472895, Note_on_c, 0, 61, 45
1, 472912, Control_c, 0, 64, 97
1, 472951, Note_on_c, 0, 63, 51
1, 472968, Control_c, 0, 64, 92
1, 472975, Note_off_c, 0, 61, 55
1, 473005, Control_c, 0, 64, 87
1, 473025, Control_c, 0, 64, 84
1, 473047, Poly_aftertouch_c, 0, 47, 20
1, 473058, Note_off_c, 0, 47, 19
1, 473058, Poly_aftertouch_c, 0, 47, 0
1, 473061, Control_c, 0, 64, 82
1, 473080, Control_c, 0, 67, 108
1, 473089, Note_on_c, 0, 64, 49
1, 473090, Poly_aftertouch_c, 0, 51, 24
1, 473099, Control_c, 0, 64, 79
1, 473117, Control_c, 0, 64, 75
1, 473118, Control_c, 0, 67, 103
1, 473127, Note_on_c, 0, 49, 36
1, 473135, Control_c, 0, 64, 72
1, 473156, Control_c, 0, 64, 70
1, 473163, Note_off_c, 0, 51, 32
1, 473163, Poly_aftertouch_c, 0, 51, 0
1, 473166, Note_off_c, 0, 63, 54
1, 473174, Control_c, 0, 67, 98
1, 473192, Control_c, 0, 64, 68
1, 473211, Control_c, 0, 64, 67
1, 473212, Control_c, 0, 67, 92
1, 473230, Control_c, 0, 64, 64
1, 473249, Control_c, 0, 64, 60
1, 473250, Control_c, 0, 67, 85
1, 473267, Control_c, 0, 64, 57
1, 473285, Control_c, 0, 64, 54
1, 473286, Control_c, 0, 67, 79
1, 473304, Control_c, 0, 64, 50
1, 473323, Control_c, 0, 64, 41
1, 473341, Control_c, 0, 64, 25
1, 473342, Control_c, 0, 67, 75
1, 473361, Control_c, 0, 64, 0
1, 473398, Control_c, 0, 67, 69
1, 473436, Control_c, 0, 64, 10
1, 473437, Control_c, 0, 67, 63
1, 473454, Control_c, 0, 64, 20
1, 473473, Control_c, 0, 64, 35
1, 473474, Control_c, 0, 67, 55
1, 473480, Note_on_c, 0, 52, 33
1, 473492, Control_c, 0, 64, 52
1, 473493, Control_c, 0, 67, 50
1, 473510, Control_c, 0, 64, 67
1, 473511, Control_c, 0, 67, 45
1, 473529, Control_c, 0, 64, 73
1, 473530, Control_c, 0, 67, 41
1, 473547, Control_c, 0, 64, 77
1, 473567, Control_c, 0, 64, 83
1, 473568, Control_c, 0, 67, 35
1, 473585, Control_c, 0, 64, 91
1, 473603, Control_c, 0, 64, 98
1, 473604, Control_c, 0, 67, 30
1, 473622, Control_c, 0, 64, 105
1, 473640, Control_c, 0, 64, 112
1, 473641, Control_c, 0, 67, 25
1, 473659, Control_c, 0, 64, 116
1, 473679, Control_c, 0, 64, 120
1, 473680, Control_c, 0, 67, 18
1, 473689, Note_off_c, 0, 49, 28
1, 473689, Poly_aftertouch_c, 0, 49, 0
1, 473696, Control_c, 0, 64, 124
1, 473715, Control_c, 0, 67, 14
1, 473753, Control_c, 0, 67, 9
1, 473768, Note_on_c, 0, 61, 50
1, 473837, Note_on_c, 0, 46, 37
1, 473902, Note_off_c, 0, 52, 35
1, 473902, Control_c, 0, 64, 116
1, 473921, Control_c, 0, 64, 101
1, 473940, Control_c, 0, 64, 86
1, 473959, Control_c, 0, 64, 73
1, 473977, Control_c, 0, 64, 69
1, 473991, Note_off_c, 0, 64, 40
1, 473996, Control_c, 0, 64, 72
1, 474015, Control_c, 0, 64, 77
1, 474034, Control_c, 0, 64, 82
1, 474053, Control_c, 0, 64, 86
1, 474071, Control_c, 0, 64, 91
1, 474090, Control_c, 0, 64, 100
1, 474108, Control_c, 0, 64, 115
1, 474125, Note_on_c, 0, 49, 41
1, 474127, Control_c, 0, 64, 127
1, 474147, Control_c, 0, 67, 0
1, 474395, Note_off_c, 0, 46, 34
1, 474439, Note_on_c, 0, 63, 54
1, 474466, Note_on_c, 0, 47, 37
1, 474547, Note_off_c, 0, 49, 34
1, 474547, Poly_aftertouch_c, 0, 49, 0
1, 474577, Control_c, 0, 64, 122
1, 474591, Note_off_c, 0, 61, 48
1, 474594, Control_c, 0, 64, 100
1, 474614, Control_c, 0, 64, 78
1, 474632, Control_c, 0, 64, 61
1, 474650, Control_c, 0, 64, 56
1, 474690, Control_c, 0, 64, 63
1, 474707, Control_c, 0, 64, 72
1, 474725, Control_c, 0, 64, 82
1, 474744, Control_c, 0, 64, 95
1, 474763, Control_c, 0, 64, 114
1, 474781, Control_c, 0, 64, 127
1, 474802, Note_on_c, 0, 51, 37
1, 474937, Note_off_c, 0, 47, 38
1, 474937, Poly_aftertouch_c, 0, 47, 0
1, 475120, Note_on_c, 0, 67, 47
1, 475180, Note_on_c, 0, 46, 32
1, 475201, Note_off_c, 0, 63, 59
1, 475249, Control_c, 0, 64, 112
1, 475264, Note_off_c, 0, 51, 33
1, 475264, Poly_aftertouch_c, 0, 51, 0
1, 475266, Control_c, 0, 64, 91
1, 475287, Control_c, 0, 64, 68
1, 475305, Control_c, 0, 64, 47
1, 475323, Control_c, 0, 64, 19
1, 475342, Control_c, 0, 64, 0
1, 475380, Control_c, 0, 64, 21
1, 475398, Control_c, 0, 64, 36
1, 475417, Control_c, 0, 64, 52
1, 475436, Control_c, 0, 64, 69
1, 475455, Control_c, 0, 64, 84
1, 475473, Control_c, 0, 64, 102
1, 475492, Control_c, 0, 64, 122
1, 475510, Control_c, 0, 64, 127
1, 475514, Note_on_c, 0, 49, 37
1, 475688, Note_off_c, 0, 46, 40
1, 475729, Note_off_c, 0, 49, 37
1, 475729, Poly_aftertouch_c, 0, 49, 0
1, 475773, Control_c, 0, 67, 9
1, 475847, Control_c, 0, 67, 14
1, 475884, Control_c, 0, 67, 21
1, 475904, Control_c, 0, 67, 25
1, 475912, Note_on_c, 0, 68, 44
1, 475922, Control_c, 0, 67, 30
1, 475940, Control_c, 0, 67, 35
1, 475960, Control_c, 0, 67, 40
1, 475978, Control_c, 0, 67, 46
1, 475995, Note_on_c, 0, 44, 34
1, 475995, Control_c, 0, 67, 50
1, 476016, Control_c, 0, 64, 114
1, 476035, Control_c, 0, 64, 93
1, 476036, Control_c, 0, 67, 56
1, 476054, Control_c, 0, 64, 74
1, 476073, Control_c, 0, 64, 66
1, 476074, Control_c, 0, 67, 61
1, 476090, Control_c, 0, 64, 67
1, 476092, Note_off_c, 0, 67, 36
1, 476092, Poly_aftertouch_c, 0, 67, 0
1, 476110, Control_c, 0, 64, 71
1, 476127, Control_c, 0, 64, 77
1, 476147, Control_c, 0, 64, 86
1, 476166, Control_c, 0, 64, 102
1, 476184, Control_c, 0, 64, 124
1, 476322, Note_on_c, 0, 70, 59
1, 476331, Note_off_c, 0, 44, 38
1, 476370, Note_on_c, 0, 47, 38
1, 476472, Note_off_c, 0, 68, 38
1, 476643, Note_on_c, 0, 71, 66
1, 476668, Note_off_c, 0, 47, 40
1, 476668, Poly_aftertouch_c, 0, 47, 0
1, 476669, Control_c, 0, 64, 114
1, 476686, Note_on_c, 0, 40, 37
1, 476687, Control_c, 0, 64, 87
1, 476708, Control_c, 0, 64, 63
1, 476710, Control_c, 0, 67, 57
1, 476726, Control_c, 0, 64, 53
1, 476736, Note_off_c, 0, 70, 45
1, 476736, Poly_aftertouch_c, 0, 70, 0
1, 476743, Control_c, 0, 64, 56
1, 476764, Control_c, 0, 64, 65
1, 476765, Control_c, 0, 67, 52
1, 476783, Control_c, 0, 64, 75
1, 476784, Control_c, 0, 67, 47
1, 476801, Control_c, 0, 64, 89
1, 476803, Control_c, 0, 67, 42
1, 476819, Control_c, 0, 64, 110
1, 476820, Control_c, 0, 67, 35
1, 476839, Control_c, 0, 64, 127
1, 476840, Control_c, 0, 67, 26
1, 476858, Control_c, 0, 67, 16
1, 476894, Control_c, 0, 67, 0
1, 476935, Note_on_c, 0, 73, 70
1, 476966, Note_off_c, 0, 71, 54
1, 476976, Note_on_c, 0, 44, 38
1, 477010, Note_off_c, 0, 40, 40
1, 477010, Poly_aftertouch_c, 0, 40, 0
1, 477080, Note_off_c, 0, 44, 52
1, 477121, Note_on_c, 0, 68, 48
1, 477145, Note_off_c, 0, 73, 54
1, 477145, Poly_aftertouch_c, 0, 73, 0
1, 477287, Control_c, 0, 64, 123
1, 477301, Note_on_c, 0, 39, 38
1, 477304, Control_c, 0, 64, 118
1, 477343, Control_c, 0, 64, 113
1, 477381, Control_c, 0, 64, 109
1, 477417, Control_c, 0, 64, 102
1, 477436, Control_c, 0, 64, 98
1, 477458, Note_on_c, 0, 75, 65
1, 477474, Control_c, 0, 64, 94
1, 477511, Control_c, 0, 64, 88
1, 477531, Control_c, 0, 64, 82
1, 477548, Control_c, 0, 64, 72
1, 477568, Control_c, 0, 64, 60
1, 477587, Control_c, 0, 64, 49
1, 477604, Control_c, 0, 64, 17
1, 477624, Control_c, 0, 64, 0
1, 477698, Control_c, 0, 64, 26
1, 477718, Control_c, 0, 64, 47
1, 477735, Control_c, 0, 64, 64
1, 477755, Control_c, 0, 64, 77
1, 477774, Control_c, 0, 64, 87
1, 477792, Control_c, 0, 64, 98
1, 477811, Control_c, 0, 64, 113
1, 477829, Control_c, 0, 64, 127
1, 477978, Note_off_c, 0, 39, 37
1, 477983, Note_on_c, 0, 48, 34
1, 478290, Note_off_c, 0, 48, 41
1, 478299, Note_on_c, 0, 51, 43
1, 478386, Note_off_c, 0, 51, 52
1, 478386, Poly_aftertouch_c, 0, 51, 0
1, 478604, Note_on_c, 0, 60, 42
1, 478896, Note_off_c, 0, 60, 37
1, 478896, Poly_aftertouch_c, 0, 60, 0
1, 478922, Note_on_c, 0, 63, 46
1, 479220, Note_on_c, 0, 60, 48
1, 479244, Note_off_c, 0, 63, 35
1, 479302, Note_off_c, 0, 60, 51
1, 479302, Poly_aftertouch_c, 0, 60, 0
1, 479471, Note_on_c, 0, 72, 67
1, 479545, Note_on_c, 0, 51, 41
1, 479650, Note_off_c, 0, 68, 37
1, 479718, Note_off_c, 0, 51, 49
1, 479718, Poly_aftertouch_c, 0, 51, 0
1, 479782, Note_on_c, 0, 48, 42
1, 479801, Note_off_c, 0, 75, 37
1, 479901, Note_on_c, 0, 69, 49
1, 480032, Note_off_c, 0, 48, 36
1, 480082, Note_off_c, 0, 72, 58
1, 480082, Note_on_c, 0, 39, 41
1, 480204, Control_c, 0, 64, 119
1, 480217, Note_on_c, 0, 75, 74
1, 480222, Control_c, 0, 64, 113
1, 480243, Control_c, 0, 64, 107
1, 480260, Control_c, 0, 64, 100
1, 480279, Control_c, 0, 64, 92
1, 480298, Control_c, 0, 64, 83
1, 480316, Control_c, 0, 64, 73
1, 480336, Control_c, 0, 64, 67
1, 480353, Control_c, 0, 64, 61
1, 480373, Control_c, 0, 64, 53
1, 480391, Control_c, 0, 64, 36
1, 480410, Control_c, 0, 64, 0
1, 480485, Control_c, 0, 64, 41
1, 480503, Control_c, 0, 64, 67
1, 480523, Control_c, 0, 64, 88
1, 480541, Control_c, 0, 64, 111
1, 480560, Control_c, 0, 64, 127
1, 480611, Note_on_c, 0, 48, 37
1, 480691, Note_off_c, 0, 39, 41
1, 480868, Note_off_c, 0, 48, 39
1, 480884, Note_on_c, 0, 51, 35
1, 480977, Note_off_c, 0, 51, 53
1, 480977, Poly_aftertouch_c, 0, 51, 0
1, 481026, Control_c, 0, 67, 8
1, 481140, Control_c, 0, 67, 13
1, 481175, Control_c, 0, 67, 17
1, 481181, Note_on_c, 0, 60, 36
1, 481195, Control_c, 0, 67, 22
1, 481214, Control_c, 0, 67, 28
1, 481232, Control_c, 0, 67, 35
1, 481251, Control_c, 0, 67, 43
1, 481269, Control_c, 0, 67, 50
1, 481289, Control_c, 0, 67, 55
1, 481294, Note_off_c, 0, 60, 54
1, 481294, Poly_aftertouch_c, 0, 60, 0
1, 481327, Control_c, 0, 67, 61
1, 481363, Control_c, 0, 67, 66
1, 481559, Note_on_c, 0, 63, 35
1, 481588, Control_c, 0, 67, 70
1, 481608, Control_c, 0, 64, 123
1, 481626, Control_c, 0, 64, 114
1, 481627, Control_c, 0, 67, 74
1, 481643, Control_c, 0, 64, 102
1, 481663, Control_c, 0, 64, 92
1, 481682, Control_c, 0, 64, 87
1, 481684, Control_c, 0, 67, 78
1, 481712, Note_off_c, 0, 63, 55
1, 481718, Control_c, 0, 64, 94
1, 481737, Control_c, 0, 64, 99
1, 481757, Control_c, 0, 64, 106
1, 481774, Control_c, 0, 64, 112
1, 481793, Control_c, 0, 64, 118
1, 481812, Control_c, 0, 64, 122
1, 481831, Control_c, 0, 67, 82
1, 481884, Note_on_c, 0, 61, 36
1, 481905, Control_c, 0, 67, 87
1, 481944, Control_c, 0, 67, 91
1, 481981, Control_c, 0, 67, 95
1, 482021, Note_off_c, 0, 69, 30
1, 482021, Poly_aftertouch_c, 0, 69, 0
1, 482036, Control_c, 0, 67, 100
1, 482068, Note_off_c, 0, 61, 34
1, 482069, Note_off_c, 0, 75, 37
1, 482074, Control_c, 0, 67, 106
1, 482255, Note_on_c, 0, 70, 50
1, 482281, Note_on_c, 0, 67, 35
1, 482335, Note_on_c, 0, 51, 36
1, 482355, Control_c, 0, 64, 117
1, 482392, Control_c, 0, 64, 112
1, 482411, Control_c, 0, 64, 107
1, 482430, Control_c, 0, 64, 99
1, 482448, Control_c, 0, 64, 88
1, 482468, Control_c, 0, 64, 74
1, 482486, Control_c, 0, 64, 62
1, 482503, Control_c, 0, 64, 50
1, 482523, Control_c, 0, 64, 37
1, 482541, Control_c, 0, 64, 29
1, 482598, Control_c, 0, 64, 39
1, 482616, Control_c, 0, 64, 46
1, 482617, Control_c, 0, 67, 110
1, 482635, Control_c, 0, 64, 55
1, 482653, Control_c, 0, 64, 63
1, 482673, Control_c, 0, 64, 71
1, 482674, Control_c, 0, 67, 114
1, 482692, Control_c, 0, 64, 77
1, 482709, Control_c, 0, 64, 84
1, 482728, Control_c, 0, 64, 92
1, 482734, Note_on_c, 0, 49, 35
1, 482748, Control_c, 0, 64, 101
1, 482750, Control_c, 0, 67, 119
1, 482767, Control_c, 0, 64, 109
1, 482784, Control_c, 0, 64, 113
1, 482797, Note_off_c, 0, 51, 35
1, 482797, Poly_aftertouch_c, 0, 51, 0
1, 482823, Control_c, 0, 64, 118
1, 482824, Control_c, 0, 67, 123
1, 482880, Control_c, 0, 64, 122
1, 482941, Note_off_c, 0, 49, 31
1, 482941, Poly_aftertouch_c, 0, 49, 0
1, 482973, Note_off_c, 0, 70, 32
1, 482973, Poly_aftertouch_c, 0, 70, 0
1, 482985, Note_off_c, 0, 67, 34
1, 482985, Poly_aftertouch_c, 0, 67, 0
1, 483046, Control_c, 0, 67, 127
1, 483211, Note_on_c, 0, 72, 35
1, 483233, Note_on_c, 0, 68, 32
1, 483270, Control_c, 0, 64, 118
1, 483278, Note_on_c, 0, 44, 31
1, 483326, Control_c, 0, 64, 111
1, 483346, Control_c, 0, 64, 107
1, 483366, Control_c, 0, 64, 100
1, 483382, Control_c, 0, 64, 91
1, 483402, Control_c, 0, 64, 80
1, 483420, Control_c, 0, 64, 67
1, 483439, Control_c, 0, 64, 54
1, 483457, Control_c, 0, 64, 36
1, 483476, Control_c, 0, 64, 0
1, 483552, Control_c, 0, 64, 19
1, 483570, Control_c, 0, 64, 35
1, 483589, Control_c, 0, 64, 52
1, 483607, Control_c, 0, 64, 68
1, 483626, Control_c, 0, 64, 79
1, 483644, Control_c, 0, 64, 89
1, 483663, Control_c, 0, 64, 101
1, 483682, Control_c, 0, 64, 114
1, 483701, Control_c, 0, 64, 127
1, 483814, Note_on_c, 0, 51, 28
1, 483898, Note_off_c, 0, 44, 42
1, 484155, Note_on_c, 0, 56, 37
1, 484288, Note_off_c, 0, 51, 32
1, 484288, Poly_aftertouch_c, 0, 51, 0
1, 484421, Note_off_c, 0, 56, 36
1, 484491, Note_on_c, 0, 60, 41
1, 484738, Note_off_c, 0, 68, 40
1, 484825, Note_off_c, 0, 72, 37
1, 484948, Note_on_c, 0, 63, 32
1, 485026, Note_off_c, 0, 60, 37
1, 485026, Poly_aftertouch_c, 0, 60, 0
1, 485121, Control_c, 0, 67, 123
1, 485458, Control_c, 0, 67, 119
1, 485557, Note_on_c, 0, 68, 22
1, 485636, Note_off_c, 0, 63, 33
1, 485645, Control_c, 0, 67, 115
1, 485683, Control_c, 0, 67, 111
1, 485721, Control_c, 0, 67, 104
1, 485757, Control_c, 0, 67, 97
1, 485793, Note_off_c, 0, 68, 43
1, 485794, Control_c, 0, 67, 90
1, 485813, Control_c, 0, 67, 86
1, 485832, Control_c, 0, 67, 81
1, 485851, Control_c, 0, 67, 76
1, 485870, Control_c, 0, 67, 72
1, 485872, Note_on_c, 0, 75, 55
1, 485907, Control_c, 0, 67, 65
1, 485926, Control_c, 0, 67, 60
1, 485944, Control_c, 0, 67, 56
1, 485982, Control_c, 0, 67, 48
1, 486000, Control_c, 0, 67, 43
1, 486019, Control_c, 0, 67, 38
1, 486038, Control_c, 0, 67, 32
1, 486057, Control_c, 0, 67, 26
1, 486075, Control_c, 0, 67, 21
1, 486095, Control_c, 0, 67, 17
1, 486113, Control_c, 0, 67, 12
1, 486244, Control_c, 0, 67, 0
1, 486298, Note_on_c, 0, 72, 25
1, 486555, Note_off_c, 0, 72, 35
1, 486749, Control_c, 0, 64, 122
1, 486806, Control_c, 0, 64, 117
1, 486842, Control_c, 0, 64, 112
1, 486857, Note_on_c, 0, 80, 51
1, 486935, Control_c, 0, 64, 107
1, 486993, Control_c, 0, 64, 102
1, 487048, Control_c, 0, 64, 97
1, 487085, Control_c, 0, 64, 88
1, 487104, Control_c, 0, 64, 83
1, 487123, Control_c, 0, 64, 78
1, 487141, Control_c, 0, 64, 75
1, 487160, Control_c, 0, 64, 73
1, 487186, Note_off_c, 0, 75, 31
1, 487198, Control_c, 0, 64, 69
1, 487216, Control_c, 0, 64, 66
1, 487235, Control_c, 0, 64, 63
1, 487254, Control_c, 0, 64, 61
1, 487366, Control_c, 0, 64, 63
1, 487384, Control_c, 0, 64, 65
1, 487403, Control_c, 0, 64, 68
1, 487422, Control_c, 0, 64, 71
1, 487440, Control_c, 0, 64, 74
1, 487460, Control_c, 0, 64, 77
1, 487477, Control_c, 0, 64, 81
1, 487497, Control_c, 0, 64, 85
1, 487516, Control_c, 0, 64, 90
1, 487534, Control_c, 0, 64, 95
1, 487554, Control_c, 0, 64, 100
1, 487571, Control_c, 0, 64, 107
1, 487591, Control_c, 0, 64, 113
1, 487608, Control_c, 0, 64, 118
1, 487623, Note_on_c, 0, 75, 37
1, 487625, Control_c, 0, 64, 124
1, 487701, Control_c, 0, 67, 8
1, 487703, Note_on_c, 0, 72, 36
1, 487717, Note_on_c, 0, 74, 25
1, 487796, Note_off_c, 0, 74, 40
1, 487796, Control_c, 0, 67, 12
1, 487870, Control_c, 0, 67, 16
1, 487873, Note_off_c, 0, 75, 41
1, 487907, Control_c, 0, 67, 20
1, 487924, Note_off_c, 0, 72, 24
1, 487945, Control_c, 0, 67, 29
1, 487964, Control_c, 0, 67, 35
1, 487983, Control_c, 0, 67, 41
1, 488001, Control_c, 0, 67, 46
1, 488039, Control_c, 0, 67, 50
1, 488132, Control_c, 0, 67, 56
1, 488170, Control_c, 0, 67, 61
1, 488208, Control_c, 0, 67, 65
1, 488249, Note_on_c, 0, 75, 42
1, 488264, Control_c, 0, 67, 70
1, 488297, Note_on_c, 0, 72, 22
1, 488299, Control_c, 0, 67, 74
1, 488357, Control_c, 0, 67, 78
1, 488395, Control_c, 0, 67, 83
1, 488431, Control_c, 0, 67, 87
1, 488461, Note_off_c, 0, 75, 30
1, 488483, Note_off_c, 0, 72, 38
1, 488486, Control_c, 0, 67, 91
1, 488511, Note_off_c, 0, 80, 56
1, 488675, Note_on_c, 0, 80, 58
1, 488734, Note_on_c, 0, 72, 36
1, 488896, Note_off_c, 0, 72, 35
1, 489141, Note_on_c, 0, 78, 59
1, 489197, Note_off_c, 0, 80, 19
1, 489199, Note_on_c, 0, 70, 31
1, 489207, Note_on_c, 0, 72, 21
1, 489216, Control_c, 0, 64, 119
1, 489235, Control_c, 0, 64, 111
1, 489255, Control_c, 0, 64, 98
1, 489273, Control_c, 0, 64, 81
1, 489292, Control_c, 0, 64, 64
1, 489310, Control_c, 0, 64, 54
1, 489348, Control_c, 0, 64, 59
1, 489367, Control_c, 0, 64, 65
1, 489385, Control_c, 0, 64, 70
1, 489404, Control_c, 0, 64, 76
1, 489422, Control_c, 0, 64, 85
1, 489441, Control_c, 0, 64, 97
1, 489454, Note_off_c, 0, 70, 43
1, 489454, Poly_aftertouch_c, 0, 70, 0
1, 489460, Control_c, 0, 64, 109
1, 489461, Note_off_c, 0, 72, 41
1, 489479, Control_c, 0, 64, 120
1, 489497, Control_c, 0, 64, 127
1, 489658, Note_on_c, 0, 75, 42
1, 489673, Note_on_c, 0, 72, 24
1, 489690, Note_on_c, 0, 70, 27
1, 489741, Note_off_c, 0, 75, 51
1, 489779, Control_c, 0, 67, 87
1, 489831, Note_off_c, 0, 70, 37
1, 489831, Poly_aftertouch_c, 0, 70, 0
1, 489836, Note_off_c, 0, 72, 39
1, 490032, Note_on_c, 0, 75, 43
1, 490045, Note_on_c, 0, 72, 31
1, 490065, Note_on_c, 0, 70, 34
1, 490077, Control_c, 0, 67, 82
1, 490116, Note_off_c, 0, 75, 52
1, 490153, Note_off_c, 0, 70, 48
1, 490153, Poly_aftertouch_c, 0, 70, 0
1, 490159, Note_off_c, 0, 78, 57
1, 490170, Control_c, 0, 67, 78
1, 490196, Note_off_c, 0, 72, 35
1, 490332, Note_on_c, 0, 78, 63
1, 490370, Note_on_c, 0, 72, 39
1, 490381, Note_on_c, 0, 70, 31
1, 490432, Control_c, 0, 67, 74
1, 490488, Control_c, 0, 67, 69
1, 490511, Note_off_c, 0, 78, 52
1, 490530, Note_off_c, 0, 72, 32
1, 490562, Control_c, 0, 67, 64
1, 490563, Note_off_c, 0, 70, 33
1, 490563, Poly_aftertouch_c, 0, 70, 0
1, 490620, Control_c, 0, 67, 60
1, 490721, Note_on_c, 0, 77, 66
1, 490733, Control_c, 0, 64, 122
1, 490750, Control_c, 0, 64, 117
1, 490768, Control_c, 0, 64, 112
1, 490782, Note_on_c, 0, 72, 33
1, 490786, Control_c, 0, 64, 105
1, 490797, Note_on_c, 0, 69, 36
1, 490805, Control_c, 0, 64, 92
1, 490825, Control_c, 0, 64, 73
1, 490843, Control_c, 0, 64, 56
1, 490862, Control_c, 0, 64, 47
1, 490899, Control_c, 0, 64, 52
1, 490919, Control_c, 0, 64, 60
1, 490920, Control_c, 0, 67, 56
1, 490938, Control_c, 0, 64, 67
1, 490956, Control_c, 0, 64, 73
1, 490974, Control_c, 0, 64, 81
1, 490995, Control_c, 0, 64, 92
1, 490999, Note_off_c, 0, 72, 40
1, 490999, Note_off_c, 0, 69, 34
1, 490999, Poly_aftertouch_c, 0, 69, 0
1, 491012, Control_c, 0, 64, 106
1, 491031, Control_c, 0, 64, 119
1, 491049, Control_c, 0, 64, 127
1, 491050, Control_c, 0, 67, 51
1, 491143, Control_c, 0, 67, 47
1, 491159, Note_on_c, 0, 72, 27
1, 491179, Note_on_c, 0, 69, 37
1, 491181, Note_on_c, 0, 75, 12
1, 491218, Control_c, 0, 67, 43
1, 491253, Note_off_c, 0, 69, 52
1, 491253, Poly_aftertouch_c, 0, 69, 0
1, 491258, Note_off_c, 0, 75, 49
1, 491311, Control_c, 0, 67, 39
1, 491316, Note_off_c, 0, 72, 35
1, 491366, Control_c, 0, 67, 34
1, 491424, Control_c, 0, 67, 29
1, 491479, Control_c, 0, 67, 25
1, 491484, Note_on_c, 0, 72, 36
1, 491504, Note_on_c, 0, 75, 33
1, 491528, Note_on_c, 0, 69, 33
1, 491573, Control_c, 0, 67, 20
1, 491607, Note_off_c, 0, 69, 41
1, 491607, Poly_aftertouch_c, 0, 69, 0
1, 491615, Note_off_c, 0, 75, 36
1, 491655, Note_off_c, 0, 72, 39
1, 491806, Note_on_c, 0, 75, 42
1, 491810, Note_on_c, 0, 72, 35
1, 491820, Note_on_c, 0, 69, 38
1, 491891, Note_off_c, 0, 75, 53
1, 491893, Note_off_c, 0, 69, 52
1, 491893, Poly_aftertouch_c, 0, 69, 0
1, 491950, Note_off_c, 0, 72, 37
1, 492154, Control_c, 0, 64, 114
1, 492155, Note_on_c, 0, 67, 37
1, 492155, Note_on_c, 0, 75, 44
1, 492157, Note_on_c, 0, 70, 37
1, 492171, Control_c, 0, 64, 100
1, 492190, Control_c, 0, 64, 83
1, 492208, Control_c, 0, 64, 68
1, 492227, Control_c, 0, 64, 61
1, 492244, Note_off_c, 0, 75, 46
1, 492265, Control_c, 0, 64, 65
1, 492284, Control_c, 0, 64, 70
1, 492302, Control_c, 0, 64, 76
1, 492319, Note_off_c, 0, 70, 38
1, 492319, Poly_aftertouch_c, 0, 70, 0
1, 492320, Control_c, 0, 64, 82
1, 492337, Note_off_c, 0, 67, 36
1, 492337, Poly_aftertouch_c, 0, 67, 0
1, 492338, Control_c, 0, 64, 92
1, 492358, Control_c, 0, 64, 107
1, 492377, Control_c, 0, 64, 126
1, 492466, Note_on_c, 0, 67, 25
1, 492473, Note_on_c, 0, 75, 42
1, 492480, Note_on_c, 0, 70, 39
1, 492542, Note_off_c, 0, 75, 53
1, 492573, Note_off_c, 0, 70, 47
1, 492573, Poly_aftertouch_c, 0, 70, 0
1, 492627, Note_off_c, 0, 77, 52
1, 492627, Poly_aftertouch_c, 0, 77, 0
1, 492639, Note_off_c, 0, 67, 36
1, 492639, Poly_aftertouch_c, 0, 67, 0
1, 492784, Note_on_c, 0, 77, 66
1, 492813, Note_on_c, 0, 67, 35
1, 492831, Note_on_c, 0, 70, 28
1, 492921, Note_off_c, 0, 70, 41
1, 492921, Poly_aftertouch_c, 0, 70, 0
1, 492960, Note_off_c, 0, 67, 36
1, 492960, Poly_aftertouch_c, 0, 67, 0
1, 493115, Note_on_c, 0, 67, 31
1, 493119, Note_on_c, 0, 70, 35
1, 493128, Note_on_c, 0, 75, 40
1, 493179, Note_off_c, 0, 77, 58
1, 493179, Poly_aftertouch_c, 0, 77, 0
1, 493185, Note_off_c, 0, 75, 58
1, 493205, Note_off_c, 0, 70, 50
1, 493205, Poly_aftertouch_c, 0, 70, 0
1, 493213, Note_off_c, 0, 67, 54
1, 493213, Poly_aftertouch_c, 0, 67, 0
1, 493434, Note_on_c, 0, 77, 62
1, 493493, Note_on_c, 0, 65, 33
1, 493496, Note_on_c, 0, 69, 25
1, 493517, Control_c, 0, 64, 113
1, 493536, Control_c, 0, 64, 97
1, 493555, Control_c, 0, 64, 78
1, 493573, Control_c, 0, 64, 62
1, 493592, Control_c, 0, 64, 53
1, 493630, Control_c, 0, 64, 60
1, 493636, Note_off_c, 0, 69, 44
1, 493636, Poly_aftertouch_c, 0, 69, 0
1, 493648, Control_c, 0, 64, 66
1, 493667, Control_c, 0, 64, 74
1, 493685, Note_off_c, 0, 65, 37
1, 493686, Control_c, 0, 64, 84
1, 493704, Control_c, 0, 64, 98
1, 493723, Control_c, 0, 64, 120
1, 493741, Control_c, 0, 64, 127
1, 493774, Note_on_c, 0, 75, 42
1, 493781, Note_on_c, 0, 65, 32
1, 493796, Note_on_c, 0, 69, 31
1, 493889, Note_off_c, 0, 69, 45
1, 493889, Poly_aftertouch_c, 0, 69, 0
1, 493908, Note_off_c, 0, 75, 38
1, 493952, Note_off_c, 0, 65, 35
1, 494080, Note_on_c, 0, 87, 69
1, 494123, Note_on_c, 0, 65, 31
1, 494144, Note_on_c, 0, 69, 22
1, 494213, Note_off_c, 0, 69, 44
1, 494213, Poly_aftertouch_c, 0, 69, 0
1, 494228, Control_c, 0, 67, 16
1, 494259, Note_off_c, 0, 65, 36
1, 494266, Control_c, 0, 67, 10
1, 494408, Note_off_c, 0, 77, 29
1, 494408, Poly_aftertouch_c, 0, 77, 0
1, 494419, Note_on_c, 0, 75, 35
1, 494430, Note_on_c, 0, 65, 29
1, 494490, Poly_aftertouch_c, 0, 69, 127
1, 494521, Poly_aftertouch_c, 0, 69, 0
1, 494523, Note_off_c, 0, 87, 52
1, 494558, Note_off_c, 0, 65, 33
1, 494565, Note_off_c, 0, 75, 40
1, 494565, Control_c, 0, 67, 0
1, 494695, Note_on_c, 0, 86, 68
1, 494754, Note_on_c, 0, 65, 21
1, 494787, Note_on_c, 0, 69, 7
1, 494803, Poly_aftertouch_c, 0, 75, 0
1, 494862, Note_off_c, 0, 69, 37
1, 494910, Note_off_c, 0, 65, 37
1, 495025, Note_on_c, 0, 75, 44
1, 495059, Note_on_c, 0, 65, 39
1, 495061, Note_on_c, 0, 69, 18
1, 495140, Note_off_c, 0, 69, 44
1, 495143, Note_off_c, 0, 65, 47
1, 495160, Note_off_c, 0, 75, 38
1, 495257, Control_c, 0, 67, 8
1, 495293, Note_off_c, 0, 86, 35
1, 495309, Note_on_c, 0, 84, 70
1, 495312, Control_c, 0, 67, 12
1, 495346, Note_on_c, 0, 65, 34
1, 495346, Note_on_c, 0, 69, 33
1, 495348, Control_c, 0, 67, 22
1, 495368, Control_c, 0, 67, 31
1, 495388, Control_c, 0, 67, 41
1, 495405, Control_c, 0, 67, 48
1, 495426, Poly_aftertouch_c, 0, 86, 0
1, 495426, Control_c, 0, 67, 54
1, 495436, Note_off_c, 0, 69, 50
1, 495443, Control_c, 0, 67, 60
1, 495460, Note_off_c, 0, 65, 45
1, 495461, Control_c, 0, 67, 67
1, 495480, Control_c, 0, 67, 74
1, 495500, Control_c, 0, 67, 80
1, 495519, Control_c, 0, 67, 84
1, 495555, Control_c, 0, 67, 89
1, 495593, Control_c, 0, 67, 97
1, 495612, Control_c, 0, 67, 102
1, 495629, Control_c, 0, 67, 107
1, 495634, Note_on_c, 0, 75, 48
1, 495651, Note_on_c, 0, 65, 34
1, 495652, Note_on_c, 0, 69, 29
1, 495655, Note_off_c, 0, 84, 60
1, 495667, Control_c, 0, 67, 112
1, 495698, Note_off_c, 0, 69, 51
1, 495706, Note_off_c, 0, 65, 50
1, 495711, Note_off_c, 0, 75, 47
1, 495817, Control_c, 0, 67, 117
1, 495874, Control_c, 0, 67, 122
1, 495943, Note_on_c, 0, 82, 65
1, 495985, Control_c, 0, 64, 112
1, 495986, Control_c, 0, 67, 126
1, 495994, Note_on_c, 0, 75, 30
1, 496000, Note_on_c, 0, 70, 34
1, 496003, Note_on_c, 0, 67, 34
1, 496004, Control_c, 0, 64, 95
1, 496023, Control_c, 0, 64, 76
1, 496042, Control_c, 0, 64, 58
1, 496060, Control_c, 0, 64, 43
1, 496079, Control_c, 0, 64, 30
1, 496111, Note_off_c, 0, 75, 37
1, 496115, Control_c, 0, 64, 45
1, 496135, Control_c, 0, 64, 59
1, 496155, Control_c, 0, 64, 75
1, 496157, Note_off_c, 0, 70, 36
1, 496157, Poly_aftertouch_c, 0, 70, 0
1, 496173, Control_c, 0, 64, 90
1, 496183, Note_off_c, 0, 67, 35
1, 496183, Poly_aftertouch_c, 0, 67, 0
1, 496190, Control_c, 0, 64, 109
1, 496209, Control_c, 0, 64, 127
1, 496311, Note_on_c, 0, 75, 39
1, 496331, Note_on_c, 0, 67, 33
1, 496350, Note_on_c, 0, 70, 6
1, 496409, Note_off_c, 0, 67, 50
1, 496409, Poly_aftertouch_c, 0, 67, 0
1, 496417, Note_off_c, 0, 75, 38
1, 496430, Note_off_c, 0, 70, 49
1, 496430, Poly_aftertouch_c, 0, 70, 0
1, 496603, Note_on_c, 0, 79, 55
1, 496617, Note_on_c, 0, 70, 31
1, 496634, Note_on_c, 0, 67, 30
1, 496639, Note_on_c, 0, 75, 27
1, 496701, Note_off_c, 0, 75, 47
1, 496714, Note_off_c, 0, 67, 43
1, 496714, Poly_aftertouch_c, 0, 67, 0
1, 496727, Note_off_c, 0, 70, 40
1, 496727, Poly_aftertouch_c, 0, 70, 0
1, 496822, Note_off_c, 0, 82, 36
1, 496822, Poly_aftertouch_c, 0, 82, 0
1, 496918, Note_off_c, 0, 79, 60
1, 496918, Poly_aftertouch_c, 0, 79, 0
1, 496942, Note_on_c, 0, 70, 17
1, 496943, Note_on_c, 0, 75, 43
1, 496945, Note_on_c, 0, 67, 25
1, 497001, Note_off_c, 0, 75, 48
1, 497024, Note_off_c, 0, 67, 48
1, 497024, Poly_aftertouch_c, 0, 67, 0
1, 497035, Note_off_c, 0, 70, 43
1, 497035, Poly_aftertouch_c, 0, 70, 0
1, 497275, Note_on_c, 0, 77, 52
1, 497292, Note_on_c, 0, 75, 47
1, 497294, Control_c, 0, 64, 118
1, 497313, Control_c, 0, 64, 110
1, 497316, Note_on_c, 0, 70, 37
1, 497333, Control_c, 0, 64, 98
1, 497351, Control_c, 0, 64, 81
1, 497370, Control_c, 0, 64, 63
1, 497388, Control_c, 0, 64, 53
1, 497425, Control_c, 0, 64, 60
1, 497445, Control_c, 0, 64, 69
1, 497447, Note_off_c, 0, 75, 38
1, 497465, Control_c, 0, 64, 77
1, 497481, Control_c, 0, 64, 87
1, 497500, Control_c, 0, 64, 100
1, 497503, Note_off_c, 0, 70, 36
1, 497503, Poly_aftertouch_c, 0, 70, 0
1, 497519, Control_c, 0, 64, 116
1, 497538, Control_c, 0, 64, 127
1, 497647, Note_on_c, 0, 75, 44
1, 497676, Note_on_c, 0, 70, 34
1, 497719, Note_off_c, 0, 75, 50
1, 497721, Note_off_c, 0, 70, 52
1, 497721, Poly_aftertouch_c, 0, 70, 0
1, 498025, Note_on_c, 0, 79, 47
1, 498044, Note_on_c, 0, 74, 40
1, 498061, Note_on_c, 0, 70, 26
1, 498091, Note_off_c, 0, 77, 28
1, 498091, Poly_aftertouch_c, 0, 77, 0
1, 498137, Control_c, 0, 64, 108
1, 498155, Control_c, 0, 64, 86
1, 498174, Control_c, 0, 64, 66
1, 498193, Control_c, 0, 64, 60
1, 498211, Control_c, 0, 64, 65
1, 498230, Control_c, 0, 64, 73
1, 498234, Note_off_c, 0, 70, 45
1, 498234, Poly_aftertouch_c, 0, 70, 0
1, 498239, Note_off_c, 0, 74, 37
1, 498249, Control_c, 0, 64, 82
1, 498268, Control_c, 0, 64, 94
1, 498286, Control_c, 0, 64, 112
1, 498304, Control_c, 0, 64, 127
1, 498412, Note_on_c, 0, 74, 37
1, 498424, Note_on_c, 0, 70, 21
1, 498424, Note_on_c, 0, 80, 47
1, 498472, Control_c, 0, 67, 119
1, 498479, Note_off_c, 0, 74, 43
1, 498508, Note_off_c, 0, 70, 41
1, 498508, Poly_aftertouch_c, 0, 70, 0
1, 498509, Control_c, 0, 67, 113
1, 498512, Note_off_c, 0, 80, 40
1, 498538, Note_on_c, 0, 82, 67
1, 498539, Note_off_c, 0, 79, 30
1, 498539, Poly_aftertouch_c, 0, 79, 0
1, 498547, Control_c, 0, 67, 105
1, 498565, Control_c, 0, 67, 99
1, 498586, Control_c, 0, 67, 92
1, 498597, Note_off_c, 0, 82, 62
1, 498597, Poly_aftertouch_c, 0, 82, 0
1, 498603, Control_c, 0, 67, 84
1, 498621, Control_c, 0, 67, 77
1, 498640, Control_c, 0, 67, 69
1, 498659, Control_c, 0, 67, 59
1, 498679, Control_c, 0, 67, 48
1, 498696, Control_c, 0, 67, 37
1, 498716, Control_c, 0, 67, 26
1, 498734, Control_c, 0, 67, 15
1, 498809, Control_c, 0, 67, 0
1, 498942, Note_on_c, 0, 79, 41
1, 498942, Note_on_c, 0, 75, 39
1, 498966, Note_on_c, 0, 87, 68
1, 498997, Control_c, 0, 64, 116
1, 499015, Control_c, 0, 64, 99
1, 499034, Control_c, 0, 64, 77
1, 499052, Control_c, 0, 64, 54
1, 499071, Control_c, 0, 64, 24
1, 499089, Control_c, 0, 64, 0
1, 499108, Control_c, 0, 64, 11
1, 499127, Control_c, 0, 64, 40
1, 499146, Control_c, 0, 64, 63
1, 499164, Control_c, 0, 64, 86
1, 499183, Control_c, 0, 64, 113
1, 499202, Control_c, 0, 64, 127
1, 499220, Note_off_c, 0, 79, 59
1, 499220, Poly_aftertouch_c, 0, 79, 0
1, 499236, Note_off_c, 0, 75, 53
1, 499289, Note_off_c, 0, 87, 56
1, 499553, Note_on_c, 0, 82, 29
1, 499574, Note_on_c, 0, 79, 9
1, 499627, Note_off_c, 0, 82, 43
1, 499627, Poly_aftertouch_c, 0, 82, 0
1, 499672, Note_off_c, 0, 79, 42
1, 499672, Poly_aftertouch_c, 0, 79, 0
1, 499885, Note_on_c, 0, 79, 36
1, 499891, Note_on_c, 0, 82, 41
1, 499992, Note_off_c, 0, 82, 41
1, 499992, Poly_aftertouch_c, 0, 82, 0
1, 500068, Note_off_c, 0, 79, 33
1, 500068, Poly_aftertouch_c, 0, 79, 0
1, 500166, Note_on_c, 0, 87, 56
1, 500179, Note_on_c, 0, 79, 33
1, 500188, Note_on_c, 0, 82, 40
1, 500265, Note_off_c, 0, 82, 43
1, 500265, Poly_aftertouch_c, 0, 82, 0
1, 500334, Note_off_c, 0, 87, 57
1, 500342, Note_off_c, 0, 79, 34
1, 500342, Poly_aftertouch_c, 0, 79, 0
1, 500492, Note_on_c, 0, 85, 66
1, 500522, Note_on_c, 0, 79, 37
1, 500538, Note_on_c, 0, 82, 38
1, 500598, Note_off_c, 0, 82, 45
1, 500598, Poly_aftertouch_c, 0, 82, 0
1, 500645, Note_off_c, 0, 85, 55
1, 500652, Note_off_c, 0, 79, 33
1, 500652, Poly_aftertouch_c, 0, 79, 0
1, 500821, Note_on_c, 0, 79, 40
1, 500837, Note_on_c, 0, 82, 35
1, 500901, Note_off_c, 0, 82, 43
1, 500901, Poly_aftertouch_c, 0, 82, 0
1, 500921, Note_off_c, 0, 79, 37
1, 500921, Poly_aftertouch_c, 0, 79, 0
1, 501077, Note_on_c, 0, 82, 49
1, 501081, Note_on_c, 0, 79, 38
1, 501141, Note_off_c, 0, 82, 57
1, 501141, Poly_aftertouch_c, 0, 82, 0
1, 501146, Note_off_c, 0, 79, 57
1, 501146, Poly_aftertouch_c, 0, 79, 0
1, 501349, Note_on_c, 0, 85, 66
1, 501376, Note_on_c, 0, 79, 49
1, 501391, Note_on_c, 0, 82, 51
1, 501445, Note_off_c, 0, 82, 58
1, 501445, Poly_aftertouch_c, 0, 82, 0
1, 501468, Note_off_c, 0, 79, 42
1, 501468, Poly_aftertouch_c, 0, 79, 0
1, 501476, Note_off_c, 0, 85, 52
1, 501711, Note_on_c, 0, 84, 56
1, 501781, Note_on_c, 0, 79, 14
1, 501782, Control_c, 0, 64, 121
1, 501788, Note_on_c, 0, 64, 58
1, 501801, Control_c, 0, 64, 115
1, 501820, Control_c, 0, 64, 110
1, 501833, Poly_aftertouch_c, 0, 82, 127
1, 501837, Control_c, 0, 64, 104
1, 501856, Control_c, 0, 64, 94
1, 501876, Control_c, 0, 64, 81
1, 501886, Note_off_c, 0, 79, 36
1, 501886, Poly_aftertouch_c, 0, 79, 0
1, 501888, Poly_aftertouch_c, 0, 82, 0
1, 501894, Control_c, 0, 64, 68
1, 501912, Control_c, 0, 64, 63
1, 501932, Control_c, 0, 64, 65
1, 501950, Control_c, 0, 64, 70
1, 501969, Control_c, 0, 64, 75
1, 501987, Control_c, 0, 64, 83
1, 502007, Control_c, 0, 64, 93
1, 502026, Control_c, 0, 64, 110
1, 502044, Control_c, 0, 64, 127
1, 502126, Note_on_c, 0, 82, 45
1, 502149, Note_on_c, 0, 79, 41
1, 502276, Note_off_c, 0, 79, 38
1, 502276, Poly_aftertouch_c, 0, 79, 0
1, 502320, Note_off_c, 0, 82, 30
1, 502392, Note_on_c, 0, 82, 39
1, 502411, Note_on_c, 0, 79, 53
1, 502455, Note_off_c, 0, 64, 37
1, 502540, Note_off_c, 0, 79, 36
1, 502540, Poly_aftertouch_c, 0, 79, 0
1, 502563, Note_off_c, 0, 82, 36
1, 502664, Note_on_c, 0, 82, 47
1, 502671, Note_on_c, 0, 79, 53
1, 502676, Note_on_c, 0, 64, 57
1, 502755, Note_off_c, 0, 79, 50
1, 502755, Poly_aftertouch_c, 0, 79, 0
1, 502782, Note_off_c, 0, 82, 51
1, 502855, Note_off_c, 0, 64, 56
1, 502977, Note_on_c, 0, 82, 46
1, 502977, Note_on_c, 0, 77, 51
1, 502988, Note_on_c, 0, 62, 68
1, 503092, Control_c, 0, 64, 116
1, 503110, Control_c, 0, 64, 95
1, 503123, Note_off_c, 0, 77, 44
1, 503123, Poly_aftertouch_c, 0, 77, 0
1, 503128, Control_c, 0, 64, 73
1, 503147, Control_c, 0, 64, 58
1, 503166, Note_off_c, 0, 82, 35
1, 503166, Control_c, 0, 64, 56
1, 503184, Control_c, 0, 64, 60
1, 503203, Control_c, 0, 64, 68
1, 503222, Control_c, 0, 64, 78
1, 503241, Control_c, 0, 64, 90
1, 503259, Control_c, 0, 64, 110
1, 503277, Note_on_c, 0, 82, 59
1, 503277, Note_on_c, 0, 77, 57
1, 503278, Control_c, 0, 64, 127
1, 503346, Note_off_c, 0, 77, 50
1, 503346, Poly_aftertouch_c, 0, 77, 0
1, 503372, Note_off_c, 0, 82, 55
1, 503398, Note_off_c, 0, 84, 56
1, 503440, Note_off_c, 0, 62, 57
1, 503533, Note_on_c, 0, 84, 80
1, 503570, Note_on_c, 0, 77, 55
1, 503571, Note_on_c, 0, 82, 52
1, 503634, Note_off_c, 0, 77, 51
1, 503634, Poly_aftertouch_c, 0, 77, 0
1, 503651, Note_off_c, 0, 82, 45
1, 503812, Note_on_c, 0, 82, 52
1, 503819, Note_on_c, 0, 77, 51
1, 503825, Note_on_c, 0, 62, 61
1, 503895, Note_off_c, 0, 77, 51
1, 503895, Poly_aftertouch_c, 0, 77, 0
1, 503897, Note_off_c, 0, 62, 60
1, 503921, Note_off_c, 0, 82, 55
1, 503981, Note_off_c, 0, 84, 57
1, 504149, Note_on_c, 0, 84, 73
1, 504179, Note_on_c, 0, 76, 54
1, 504192, Note_on_c, 0, 82, 54
1, 504193, Control_c, 0, 64, 99
1, 504196, Note_on_c, 0, 60, 57
1, 504213, Control_c, 0, 64, 71
1, 504233, Control_c, 0, 64, 51
1, 504251, Control_c, 0, 64, 48
1, 504269, Control_c, 0, 64, 58
1, 504290, Control_c, 0, 64, 73
1, 504307, Control_c, 0, 64, 97
1, 504324, Control_c, 0, 64, 127
1, 504327, Note_off_c, 0, 76, 36
1, 504336, Note_off_c, 0, 60, 53
1, 504336, Poly_aftertouch_c, 0, 60, 0
1, 504372, Note_off_c, 0, 82, 34
1, 504486, Note_on_c, 0, 82, 56
1, 504495, Note_on_c, 0, 76, 26
1, 504537, Note_off_c, 0, 84, 63
1, 504545, Note_off_c, 0, 76, 45
1, 504547, Note_off_c, 0, 82, 60
1, 504564, Note_on_c, 0, 60, 51
1, 504691, Note_on_c, 0, 76, 51
1, 504785, Note_on_c, 0, 82, 61
1, 504876, Note_on_c, 0, 94, 84
1, 504902, Note_off_c, 0, 76, 37
1, 504974, Note_off_c, 0, 82, 55
1, 505119, Note_off_c, 0, 60, 35
1, 505119, Poly_aftertouch_c, 0, 60, 0
1, 505158, Note_on_c, 0, 76, 50
1, 505167, Control_c, 0, 67, 8
1, 505176, Note_on_c, 0, 82, 54
1, 505245, Note_off_c, 0, 76, 58
1, 505264, Note_off_c, 0, 82, 55
1, 505292, Note_off_c, 0, 94, 60
1, 505356, Note_on_c, 0, 62, 53
1, 505426, Note_on_c, 0, 82, 55
1, 505467, Note_on_c, 0, 93, 84
1, 505489, Note_on_c, 0, 77, 61
1, 505523, Control_c, 0, 64, 122
1, 505532, Note_off_c, 0, 82, 56
1, 505539, Control_c, 0, 64, 93
1, 505559, Control_c, 0, 64, 65
1, 505579, Control_c, 0, 64, 43
1, 505597, Control_c, 0, 64, 33
1, 505616, Control_c, 0, 64, 44
1, 505634, Control_c, 0, 64, 61
1, 505635, Note_off_c, 0, 77, 52
1, 505635, Poly_aftertouch_c, 0, 77, 0
1, 505654, Control_c, 0, 64, 79
1, 505672, Control_c, 0, 64, 98
1, 505690, Control_c, 0, 64, 125
1, 505792, Note_on_c, 0, 82, 59
1, 505795, Note_on_c, 0, 77, 54
1, 505811, Note_off_c, 0, 93, 62
1, 505853, Note_off_c, 0, 62, 53
1, 505886, Note_off_c, 0, 82, 58
1, 505897, Note_off_c, 0, 77, 53
1, 505897, Poly_aftertouch_c, 0, 77, 0
1, 506057, Note_on_c, 0, 91, 81
1, 506080, Note_on_c, 0, 64, 59
1, 506113, Note_on_c, 0, 82, 39
1, 506139, Note_on_c, 0, 79, 13
1, 506177, Control_c, 0, 64, 100
1, 506196, Control_c, 0, 64, 74
1, 506197, Note_off_c, 0, 82, 50
1, 506212, Note_off_c, 0, 79, 45
1, 506212, Poly_aftertouch_c, 0, 79, 0
1, 506213, Control_c, 0, 64, 50
1, 506234, Control_c, 0, 64, 31
1, 506269, Control_c, 0, 64, 41
1, 506288, Control_c, 0, 64, 58
1, 506307, Control_c, 0, 64, 77
1, 506327, Control_c, 0, 64, 97
1, 506328, Control_c, 0, 67, 0
1, 506344, Control_c, 0, 64, 125
1, 506367, Note_on_c, 0, 79, 42
1, 506375, Note_on_c, 0, 82, 48
1, 506473, Note_off_c, 0, 79, 47
1, 506473, Poly_aftertouch_c, 0, 79, 0
1, 506474, Note_off_c, 0, 91, 56
1, 506494, Note_off_c, 0, 82, 38
1, 506671, Note_on_c, 0, 89, 70
1, 506688, Note_on_c, 0, 65, 59
1, 506714, Note_off_c, 0, 64, 48
1, 506719, Note_on_c, 0, 77, 44
1, 506773, Note_on_c, 0, 82, 9
1, 506793, Control_c, 0, 64, 110
1, 506802, Note_off_c, 0, 77, 38
1, 506802, Poly_aftertouch_c, 0, 77, 0
1, 506812, Control_c, 0, 64, 87
1, 506831, Control_c, 0, 64, 62
1, 506846, Note_off_c, 0, 82, 42
1, 506850, Control_c, 0, 64, 39
1, 506869, Control_c, 0, 64, 13
1, 506886, Control_c, 0, 64, 20
1, 506905, Control_c, 0, 64, 42
1, 506924, Control_c, 0, 64, 67
1, 506942, Control_c, 0, 64, 88
1, 506962, Control_c, 0, 64, 111
1, 506970, Note_on_c, 0, 82, 57
1, 506978, Note_on_c, 0, 77, 52
1, 506981, Control_c, 0, 64, 127
1, 507044, Note_off_c, 0, 82, 46
1, 507059, Note_off_c, 0, 77, 48
1, 507059, Poly_aftertouch_c, 0, 77, 0
1, 507250, Note_on_c, 0, 86, 72
1, 507257, Note_on_c, 0, 70, 68
1, 507304, Note_on_c, 0, 77, 29
1, 507327, Note_on_c, 0, 82, 16
1, 507374, Note_off_c, 0, 77, 41
1, 507374, Poly_aftertouch_c, 0, 77, 0
1, 507394, Note_off_c, 0, 82, 41
1, 507481, Note_off_c, 0, 65, 59
1, 507538, Note_on_c, 0, 82, 50
1, 507553, Note_on_c, 0, 77, 50
1, 507643, Note_off_c, 0, 82, 48
1, 507643, Note_off_c, 0, 77, 48
1, 507643, Poly_aftertouch_c, 0, 77, 0
1, 507808, Note_off_c, 0, 70, 33
1, 507808, Poly_aftertouch_c, 0, 70, 0
1, 507874, Note_on_c, 0, 84, 64
1, 507903, Note_on_c, 0, 75, 74
1, 507937, Note_on_c, 0, 77, 13
1, 507952, Note_on_c, 0, 65, 46
1, 507993, Note_off_c, 0, 86, 30
1, 508010, Control_c, 0, 64, 102
1, 508014, Note_off_c, 0, 77, 46
1, 508014, Poly_aftertouch_c, 0, 77, 0
1, 508028, Control_c, 0, 64, 76
1, 508040, Note_off_c, 0, 89, 35
1, 508046, Control_c, 0, 64, 55
1, 508066, Control_c, 0, 64, 49
1, 508084, Control_c, 0, 64, 56
1, 508103, Poly_aftertouch_c, 0, 76, 0
1, 508103, Control_c, 0, 64, 67
1, 508122, Control_c, 0, 64, 79
1, 508141, Control_c, 0, 64, 96
1, 508158, Control_c, 0, 64, 122
1, 508177, Control_c, 0, 64, 127
1, 508218, Note_on_c, 0, 82, 58
1, 508224, Note_on_c, 0, 77, 49
1, 508320, Note_off_c, 0, 82, 57
1, 508333, Note_off_c, 0, 77, 52
1, 508333, Poly_aftertouch_c, 0, 77, 0
1, 508501, Note_on_c, 0, 86, 65
1, 508505, Note_on_c, 0, 77, 50
1, 508507, Note_on_c, 0, 81, 50
1, 508595, Note_off_c, 0, 77, 52
1, 508595, Poly_aftertouch_c, 0, 77, 0
1, 508624, Note_off_c, 0, 81, 54
1, 508665, Note_on_c, 0, 74, 61
1, 508708, Note_off_c, 0, 84, 35
1, 508741, Note_off_c, 0, 75, 52
1, 508754, Note_on_c, 0, 87, 75
1, 508761, Note_on_c, 0, 77, 53
1, 508770, Note_on_c, 0, 81, 59
1, 508830, Note_off_c, 0, 77, 52
1, 508830, Poly_aftertouch_c, 0, 77, 0
1, 508834, Note_off_c, 0, 65, 38
1, 508877, Note_on_c, 0, 72, 60
1, 508887, Note_off_c, 0, 81, 61
1, 508912, Note_off_c, 0, 86, 54
1, 508912, Note_off_c, 0, 74, 39
1, 509162, Note_on_c, 0, 86, 73
1, 509177, Note_on_c, 0, 77, 61
1, 509191, Note_on_c, 0, 65, 47
1, 509206, Control_c, 0, 64, 115
1, 509217, Note_on_c, 0, 82, 28
1, 509223, Control_c, 0, 64, 95
1, 509242, Control_c, 0, 64, 72
1, 509252, Note_off_c, 0, 72, 39
1, 509262, Control_c, 0, 64, 51
1, 509281, Control_c, 0, 64, 35
1, 509288, Note_off_c, 0, 82, 42
1, 509298, Control_c, 0, 64, 41
1, 509318, Control_c, 0, 64, 60
1, 509336, Control_c, 0, 64, 80
1, 509355, Control_c, 0, 64, 102
1, 509374, Control_c, 0, 64, 127
1, 509424, Note_off_c, 0, 87, 29
1, 509519, Note_on_c, 0, 82, 60
1, 509566, Note_off_c, 0, 77, 56
1, 509566, Poly_aftertouch_c, 0, 77, 0
1, 509592, Note_off_c, 0, 82, 58
1, 509763, Note_on_c, 0, 82, 71
1, 509779, Note_on_c, 0, 77, 50
1, 509786, Note_on_c, 0, 74, 65
1, 509843, Note_off_c, 0, 77, 54
1, 509843, Poly_aftertouch_c, 0, 77, 0
1, 509949, Note_off_c, 0, 82, 45
1, 510072, Note_off_c, 0, 65, 54
1, 510079, Note_on_c, 0, 77, 55
1, 510083, Note_on_c, 0, 82, 69
1, 510116, Note_off_c, 0, 86, 60
1, 510167, Note_off_c, 0, 74, 59
1, 510178, Note_off_c, 0, 82, 54
1, 510213, Note_off_c, 0, 77, 37
1, 510213, Poly_aftertouch_c, 0, 77, 0
1, 510387, Note_on_c, 0, 87, 73
1, 510416, Note_on_c, 0, 82, 59
1, 510420, Control_c, 0, 64, 117
1, 510439, Control_c, 0, 64, 104
1, 510448, Note_on_c, 0, 72, 41
1, 510449, Note_on_c, 0, 77, 38
1, 510456, Note_on_c, 0, 65, 39
1, 510456, Control_c, 0, 64, 88
1, 510477, Control_c, 0, 64, 71
1, 510497, Control_c, 0, 64, 59
1, 510514, Control_c, 0, 64, 51
1, 510519, Note_off_c, 0, 82, 56
1, 510521, Note_off_c, 0, 77, 39
1, 510521, Poly_aftertouch_c, 0, 77, 0
1, 510552, Control_c, 0, 64, 56
1, 510553, Control_c, 0, 67, 8
1, 510570, Control_c, 0, 64, 63
1, 510590, Control_c, 0, 64, 71
1, 510608, Control_c, 0, 64, 79
1, 510628, Control_c, 0, 64, 90
1, 510647, Control_c, 0, 64, 102
1, 510648, Control_c, 0, 67, 12
1, 510664, Control_c, 0, 64, 114
1, 510684, Control_c, 0, 64, 125
1, 510702, Control_c, 0, 67, 18
1, 510717, Note_on_c, 0, 82, 51
1, 510738, Control_c, 0, 67, 24
1, 510749, Note_on_c, 0, 77, 37
1, 510757, Control_c, 0, 67, 28
1, 510776, Control_c, 0, 67, 34
1, 510795, Control_c, 0, 67, 39
1, 510807, Note_off_c, 0, 82, 59
1, 510814, Control_c, 0, 67, 43
1, 510823, Note_off_c, 0, 77, 44
1, 510823, Poly_aftertouch_c, 0, 77, 0
1, 510852, Control_c, 0, 67, 47
1, 510907, Control_c, 0, 67, 52
1, 511052, Note_on_c, 0, 81, 39
1, 511079, Note_on_c, 0, 77, 29
1, 511104, Note_on_c, 0, 74, 43
1, 511148, Poly_aftertouch_c, 0, 72, 22
1, 511149, Control_c, 0, 64, 116
1, 511169, Control_c, 0, 64, 105
1, 511186, Note_off_c, 0, 72, 19
1, 511186, Poly_aftertouch_c, 0, 72, 0
1, 511187, Control_c, 0, 64, 90
1, 511206, Control_c, 0, 64, 74
1, 511225, Control_c, 0, 64, 63
1, 511238, Note_on_c, 0, 86, 63
1, 511263, Control_c, 0, 64, 68
1, 511281, Control_c, 0, 64, 74
1, 511283, Note_off_c, 0, 77, 39
1, 511283, Poly_aftertouch_c, 0, 77, 0
1, 511294, Note_off_c, 0, 81, 42
1, 511300, Control_c, 0, 64, 80
1, 511318, Control_c, 0, 64, 89
1, 511337, Control_c, 0, 64, 103
1, 511348, Note_off_c, 0, 87, 50
1, 511355, Control_c, 0, 64, 120
1, 511374, Control_c, 0, 64, 127
1, 511438, Note_on_c, 0, 81, 43
1, 511442, Note_on_c, 0, 77, 46
1, 511449, Note_on_c, 0, 75, 46
1, 511461, Note_off_c, 0, 74, 48
1, 511582, Note_off_c, 0, 75, 51
1, 511588, Note_on_c, 0, 84, 63
1, 511608, Note_off_c, 0, 81, 55
1, 511623, Note_off_c, 0, 86, 53
1, 511659, Note_off_c, 0, 77, 32
1, 511659, Poly_aftertouch_c, 0, 77, 0
1, 511680, Note_off_c, 0, 65, 38
1, 511775, Note_off_c, 0, 84, 57
1, 511931, Note_on_c, 0, 89, 56
1, 511944, Note_on_c, 0, 73, 46
1, 511956, Note_on_c, 0, 65, 37
1, 512029, Control_c, 0, 64, 117
1, 512031, Poly_aftertouch_c, 0, 77, 127
1, 512047, Control_c, 0, 64, 107
1, 512063, Poly_aftertouch_c, 0, 77, 0
1, 512065, Poly_aftertouch_c, 0, 82, 0
1, 512066, Control_c, 0, 64, 97
1, 512086, Control_c, 0, 64, 86
1, 512104, Control_c, 0, 64, 73
1, 512123, Control_c, 0, 64, 61
1, 512141, Control_c, 0, 64, 54
1, 512197, Control_c, 0, 64, 60
1, 512216, Control_c, 0, 64, 66
1, 512236, Control_c, 0, 64, 74
1, 512253, Control_c, 0, 64, 85
1, 512272, Control_c, 0, 64, 99
1, 512291, Control_c, 0, 64, 116
1, 512310, Control_c, 0, 64, 127
1, 512326, Note_on_c, 0, 77, 42
1, 512339, Note_on_c, 0, 82, 40
1, 512410, Note_off_c, 0, 82, 41
1, 512427, Note_off_c, 0, 77, 46
1, 512611, Note_on_c, 0, 85, 63
1, 512631, Note_on_c, 0, 70, 49
1, 512645, Note_on_c, 0, 77, 25
1, 512727, Note_off_c, 0, 77, 40
1, 512923, Note_off_c, 0, 65, 41
1, 512929, Note_on_c, 0, 77, 41
1, 512930, Note_on_c, 0, 82, 41
1, 512940, Note_off_c, 0, 73, 38
1, 512940, Poly_aftertouch_c, 0, 73, 0
1, 513008, Note_off_c, 0, 82, 40
1, 513025, Note_off_c, 0, 77, 37
1, 513109, Note_off_c, 0, 85, 38
1, 513113, Control_c, 0, 67, 56
1, 513140, Note_off_c, 0, 89, 39
1, 513151, Control_c, 0, 67, 62
1, 513188, Control_c, 0, 67, 68
1, 513246, Note_on_c, 0, 84, 56
1, 513283, Note_on_c, 0, 75, 55
1, 513288, Note_on_c, 0, 77, 33
1, 513328, Note_on_c, 0, 65, 36
1, 513341, Note_off_c, 0, 77, 46
1, 513378, Note_off_c, 0, 70, 35
1, 513378, Poly_aftertouch_c, 0, 70, 0
1, 513432, Control_c, 0, 64, 116
1, 513450, Control_c, 0, 64, 103
1, 513469, Control_c, 0, 64, 88
1, 513470, Control_c, 0, 67, 73
1, 513488, Control_c, 0, 64, 72
1, 513506, Control_c, 0, 64, 60
1, 513508, Control_c, 0, 67, 77
1, 513525, Control_c, 0, 64, 54
1, 513544, Control_c, 0, 67, 81
1, 513563, Control_c, 0, 64, 58
1, 513582, Control_c, 0, 64, 64
1, 513597, Note_on_c, 0, 82, 51
1, 513599, Control_c, 0, 64, 70
1, 513600, Control_c, 0, 67, 86
1, 513605, Note_on_c, 0, 77, 47
1, 513618, Control_c, 0, 64, 78
1, 513638, Control_c, 0, 64, 90
1, 513640, Control_c, 0, 67, 90
1, 513656, Control_c, 0, 64, 105
1, 513674, Control_c, 0, 64, 121
1, 513675, Control_c, 0, 67, 96
1, 513693, Control_c, 0, 64, 127
1, 513709, Note_off_c, 0, 82, 51
1, 513714, Control_c, 0, 67, 103
1, 513722, Note_off_c, 0, 77, 47
1, 513749, Control_c, 0, 67, 107
1, 513805, Control_c, 0, 67, 113
1, 513899, Note_on_c, 0, 85, 61
1, 513929, Note_on_c, 0, 77, 29
1, 513938, Note_on_c, 0, 81, 44
1, 513964, Note_off_c, 0, 84, 55
1, 514100, Note_off_c, 0, 77, 32
1, 514124, Note_on_c, 0, 73, 42
1, 514182, Note_off_c, 0, 81, 32
1, 514228, Note_on_c, 0, 87, 65
1, 514256, Note_on_c, 0, 77, 42
1, 514267, Note_on_c, 0, 81, 31
1, 514311, Control_c, 0, 67, 109
1, 514343, Poly_aftertouch_c, 0, 65, 24
1, 514365, Note_off_c, 0, 75, 35
1, 514392, Note_on_c, 0, 72, 48
1, 514404, Control_c, 0, 67, 104
1, 514413, Note_off_c, 0, 73, 37
1, 514413, Poly_aftertouch_c, 0, 73, 0
1, 514420, Note_off_c, 0, 81, 43
1, 514420, Note_off_c, 0, 77, 36
1, 514423, Control_c, 0, 67, 100
1, 514459, Note_off_c, 0, 85, 25
1, 514459, Control_c, 0, 67, 94
1, 514480, Note_off_c, 0, 65, 24
1, 514480, Poly_aftertouch_c, 0, 65, 0
1, 514516, Control_c, 0, 67, 89
1, 514560, Note_off_c, 0, 72, 51
1, 514560, Poly_aftertouch_c, 0, 72, 0
1, 514572, Control_c, 0, 67, 85
1, 514725, Note_on_c, 0, 85, 54
1, 514746, Note_on_c, 0, 77, 40
1, 514759, Note_on_c, 0, 80, 36
1, 514771, Note_on_c, 0, 65, 40
1, 514777, Note_on_c, 0, 73, 41
1, 514778, Control_c, 0, 64, 122
1, 514796, Control_c, 0, 64, 118
1, 514831, Note_off_c, 0, 87, 50
1, 514833, Control_c, 0, 64, 112
1, 514853, Control_c, 0, 64, 108
1, 514869, Note_off_c, 0, 80, 32
1, 514870, Control_c, 0, 64, 101
1, 514890, Control_c, 0, 64, 90
1, 514909, Control_c, 0, 64, 77
1, 514915, Note_off_c, 0, 77, 33
1, 514928, Control_c, 0, 64, 65
1, 514946, Control_c, 0, 64, 58
1, 514965, Control_c, 0, 64, 54
1, 514984, Control_c, 0, 67, 89
1, 515002, Control_c, 0, 64, 57
1, 515020, Control_c, 0, 64, 61
1, 515040, Control_c, 0, 64, 66
1, 515058, Control_c, 0, 64, 72
1, 515077, Control_c, 0, 64, 78
1, 515095, Control_c, 0, 64, 84
1, 515115, Control_c, 0, 64, 89
1, 515134, Control_c, 0, 64, 97
1, 515152, Control_c, 0, 64, 107
1, 515171, Control_c, 0, 64, 118
1, 515189, Control_c, 0, 64, 127
1, 515282, Note_on_c, 0, 80, 41
1, 515294, Note_on_c, 0, 77, 34
1, 515371, Note_off_c, 0, 77, 55
1, 515376, Note_off_c, 0, 85, 54
1, 515422, Note_off_c, 0, 73, 34
1, 515422, Poly_aftertouch_c, 0, 73, 0
1, 515449, Note_off_c, 0, 80, 36
1, 515641, Note_on_c, 0, 84, 55
1, 515674, Note_on_c, 0, 68, 39
1, 515689, Note_on_c, 0, 73, 44
1, 515753, Note_off_c, 0, 73, 48
1, 515753, Poly_aftertouch_c, 0, 73, 0
1, 515998, Note_on_c, 0, 82, 58
1, 516011, Note_off_c, 0, 65, 37
1, 516011, Poly_aftertouch_c, 0, 65, 0
1, 516029, Note_on_c, 0, 73, 44
1, 516168, Note_off_c, 0, 73, 38
1, 516168, Poly_aftertouch_c, 0, 73, 0
1, 516315, Note_off_c, 0, 84, 31
1, 516449, Note_on_c, 0, 79, 46
1, 516484, Note_on_c, 0, 63, 33
1, 516486, Note_on_c, 0, 73, 28
1, 516494, Note_on_c, 0, 70, 29
1, 516517, Control_c, 0, 64, 123
1, 516536, Control_c, 0, 64, 118
1, 516554, Control_c, 0, 64, 113
1, 516573, Control_c, 0, 64, 107
1, 516591, Control_c, 0, 64, 100
1, 516608, Note_off_c, 0, 68, 34
1, 516609, Control_c, 0, 64, 91
1, 516624, Note_off_c, 0, 73, 37
1, 516624, Poly_aftertouch_c, 0, 73, 0
1, 516629, Control_c, 0, 64, 79
1, 516648, Control_c, 0, 64, 69
1, 516667, Control_c, 0, 64, 61
1, 516684, Control_c, 0, 64, 56
1, 516697, Note_off_c, 0, 82, 35
1, 516703, Control_c, 0, 64, 52
1, 516742, Control_c, 0, 64, 56
1, 516759, Control_c, 0, 64, 59
1, 516779, Control_c, 0, 64, 64
1, 516797, Control_c, 0, 64, 70
1, 516816, Control_c, 0, 64, 76
1, 516834, Control_c, 0, 64, 82
1, 516854, Control_c, 0, 64, 92
1, 516864, Note_on_c, 0, 73, 38
1, 516872, Control_c, 0, 64, 102
1, 516892, Control_c, 0, 64, 112
1, 516909, Control_c, 0, 64, 121
1, 516929, Control_c, 0, 64, 127
1, 516979, Note_off_c, 0, 73, 39
1, 516979, Poly_aftertouch_c, 0, 73, 0
1, 517120, Note_on_c, 0, 80, 49
1, 517157, Note_on_c, 0, 73, 16
1, 517282, Note_on_c, 0, 68, 30
1, 517399, Note_on_c, 0, 82, 61
1, 517437, Note_off_c, 0, 70, 39
1, 517437, Poly_aftertouch_c, 0, 70, 0
1, 517482, Poly_aftertouch_c, 0, 73, 24
1, 517498, Note_off_c, 0, 63, 38
1, 517530, Note_off_c, 0, 73, 38
1, 517530, Poly_aftertouch_c, 0, 73, 0
1, 517531, Poly_aftertouch_c, 0, 73, 0
1, 517539, Note_off_c, 0, 80, 45
1, 517545, Note_on_c, 0, 67, 41
1, 517631, Note_off_c, 0, 79, 30
1, 517631, Poly_aftertouch_c, 0, 79, 0
1, 517644, Note_off_c, 0, 68, 34
1, 517808, Note_on_c, 0, 85, 57
1, 517838, Note_on_c, 0, 64, 39
1, 517839, Note_on_c, 0, 68, 33
1, 517848, Note_off_c, 0, 67, 36
1, 517848, Poly_aftertouch_c, 0, 67, 0
1, 517901, Control_c, 0, 64, 119
1, 517919, Control_c, 0, 64, 113
1, 517938, Control_c, 0, 64, 105
1, 517956, Control_c, 0, 64, 91
1, 517975, Control_c, 0, 64, 74
1, 517976, Note_off_c, 0, 82, 37
1, 517995, Control_c, 0, 64, 58
1, 518013, Control_c, 0, 64, 46
1, 518032, Control_c, 0, 64, 38
1, 518070, Control_c, 0, 64, 43
1, 518088, Control_c, 0, 64, 49
1, 518105, Control_c, 0, 64, 56
1, 518125, Control_c, 0, 64, 65
1, 518144, Control_c, 0, 64, 73
1, 518162, Control_c, 0, 64, 80
1, 518181, Control_c, 0, 64, 88
1, 518199, Control_c, 0, 64, 98
1, 518218, Control_c, 0, 64, 110
1, 518231, Note_on_c, 0, 73, 37
1, 518236, Control_c, 0, 64, 121
1, 518256, Control_c, 0, 64, 127
1, 518306, Note_off_c, 0, 68, 44
1, 518308, Note_off_c, 0, 73, 40
1, 518311, Control_c, 0, 67, 93
1, 518386, Control_c, 0, 67, 97
1, 518442, Control_c, 0, 67, 101
1, 518511, Note_on_c, 0, 80, 53
1, 518517, Control_c, 0, 67, 105
1, 518525, Note_on_c, 0, 68, 34
1, 518573, Control_c, 0, 67, 110
1, 518614, Poly_aftertouch_c, 0, 73, 127
1, 518655, Poly_aftertouch_c, 0, 73, 0
1, 518667, Control_c, 0, 67, 115
1, 518831, Note_on_c, 0, 73, 42
1, 518890, Note_off_c, 0, 64, 37
1, 518925, Note_off_c, 0, 73, 47
1, 518993, Note_off_c, 0, 85, 34
1, 519036, Note_off_c, 0, 80, 44
1, 519178, Note_on_c, 0, 79, 38
1, 519182, Note_on_c, 0, 70, 41
1, 519198, Note_on_c, 0, 63, 33
1, 519265, Control_c, 0, 64, 123
1, 519270, Poly_aftertouch_c, 0, 73, 127
1, 519285, Control_c, 0, 64, 116
1, 519303, Control_c, 0, 64, 106
1, 519312, Poly_aftertouch_c, 0, 73, 0
1, 519321, Control_c, 0, 64, 91
1, 519330, Note_off_c, 0, 68, 41
1, 519341, Control_c, 0, 64, 74
1, 519359, Control_c, 0, 64, 60
1, 519377, Control_c, 0, 64, 51
1, 519415, Control_c, 0, 64, 54
1, 519433, Control_c, 0, 64, 59
1, 519452, Control_c, 0, 64, 66
1, 519471, Control_c, 0, 64, 74
1, 519490, Control_c, 0, 64, 82
1, 519507, Control_c, 0, 64, 93
1, 519518, Note_on_c, 0, 73, 42
1, 519526, Control_c, 0, 64, 105
1, 519546, Control_c, 0, 64, 117
1, 519564, Control_c, 0, 64, 127
1, 519648, Note_off_c, 0, 73, 45
1, 519786, Note_on_c, 0, 80, 46
1, 519809, Note_on_c, 0, 73, 44
1, 519936, Note_on_c, 0, 68, 42
1, 519972, Note_off_c, 0, 73, 26
1, 520053, Note_off_c, 0, 70, 42
1, 520053, Poly_aftertouch_c, 0, 70, 0
1, 520060, Note_on_c, 0, 82, 60
1, 520147, Note_off_c, 0, 63, 42
1, 520177, Note_off_c, 0, 80, 31
1, 520194, Poly_aftertouch_c, 0, 73, 0
1, 520198, Poly_aftertouch_c, 0, 79, 24
1, 520207, Note_on_c, 0, 67, 39
1, 520218, Note_off_c, 0, 68, 32
1, 520249, Note_off_c, 0, 79, 38
1, 520249, Poly_aftertouch_c, 0, 79, 0
1, 520413, Note_off_c, 0, 67, 27
1, 520413, Poly_aftertouch_c, 0, 67, 0
1, 520468, Note_on_c, 0, 85, 55
1, 520499, Note_on_c, 0, 64, 38
1, 520499, Control_c, 0, 67, 119
1, 520501, Note_on_c, 0, 68, 37
1, 520518, Control_c, 0, 64, 120
1, 520529, Note_on_c, 0, 73, 19
1, 520533, Note_off_c, 0, 82, 36
1, 520537, Control_c, 0, 64, 110
1, 520556, Control_c, 0, 64, 96
1, 520558, Control_c, 0, 67, 124
1, 520575, Control_c, 0, 64, 78
1, 520593, Control_c, 0, 64, 60
1, 520596, Note_off_c, 0, 73, 46
1, 520612, Control_c, 0, 64, 48
1, 520630, Control_c, 0, 64, 42
1, 520668, Control_c, 0, 64, 47
1, 520687, Control_c, 0, 64, 53
1, 520704, Control_c, 0, 64, 61
1, 520724, Control_c, 0, 64, 71
1, 520742, Control_c, 0, 64, 80
1, 520762, Control_c, 0, 64, 89
1, 520780, Control_c, 0, 64, 99
1, 520800, Control_c, 0, 64, 110
1, 520818, Control_c, 0, 64, 123
1, 520836, Control_c, 0, 64, 127
1, 520850, Note_on_c, 0, 73, 40
1, 520864, Note_off_c, 0, 68, 34
1, 520911, Note_off_c, 0, 73, 44
1, 521127, Note_on_c, 0, 80, 47
1, 521148, Note_on_c, 0, 68, 37
1, 521167, Note_on_c, 0, 73, 22
1, 521230, Note_off_c, 0, 73, 47
1, 521427, Note_off_c, 0, 85, 34
1, 521465, Note_off_c, 0, 64, 54
1, 521481, Note_on_c, 0, 73, 40
1, 521542, Note_off_c, 0, 73, 45
1, 521630, Note_off_c, 0, 80, 39
1, 521816, Note_on_c, 0, 79, 41
1, 521846, Note_on_c, 0, 73, 33
1, 521847, Note_on_c, 0, 63, 34
1, 521856, Note_on_c, 0, 70, 28
1, 521904, Control_c, 0, 64, 123
1, 521920, Control_c, 0, 64, 111
1, 521939, Control_c, 0, 64, 94
1, 521943, Note_off_c, 0, 73, 38
1, 521958, Control_c, 0, 64, 75
1, 521962, Note_off_c, 0, 68, 40
1, 521977, Control_c, 0, 64, 58
1, 521996, Control_c, 0, 64, 48
1, 522014, Control_c, 0, 64, 43
1, 522033, Control_c, 0, 64, 45
1, 522051, Control_c, 0, 64, 52
1, 522070, Control_c, 0, 64, 60
1, 522089, Control_c, 0, 64, 71
1, 522108, Control_c, 0, 64, 81
1, 522127, Control_c, 0, 64, 92
1, 522145, Control_c, 0, 64, 106
1, 522164, Control_c, 0, 64, 119
1, 522182, Control_c, 0, 64, 127
1, 522194, Note_on_c, 0, 73, 42
1, 522259, Note_off_c, 0, 73, 48
1, 522477, Note_on_c, 0, 80, 45
1, 522519, Note_on_c, 0, 73, 20
1, 522576, Note_off_c, 0, 73, 51
1, 522674, Note_off_c, 0, 79, 37
1, 522674, Poly_aftertouch_c, 0, 79, 0
1, 522681, Note_on_c, 0, 68, 35
1, 522773, Note_on_c, 0, 82, 50
1, 522784, Note_off_c, 0, 70, 42
1, 522784, Poly_aftertouch_c, 0, 70, 0
1, 522860, Note_off_c, 0, 80, 32
1, 522932, Note_off_c, 0, 63, 36
1, 522954, Note_on_c, 0, 67, 35
1, 522956, Note_off_c, 0, 68, 37
1, 523086, Note_off_c, 0, 67, 41
1, 523086, Poly_aftertouch_c, 0, 67, 0
1, 523248, Note_on_c, 0, 85, 51
1, 523283, Note_on_c, 0, 64, 35
1, 523289, Note_on_c, 0, 68, 33
1, 523292, Note_on_c, 0, 73, 25
1, 523306, Control_c, 0, 64, 120
1, 523319, Note_off_c, 0, 82, 32
1, 523322, Control_c, 0, 64, 112
1, 523341, Control_c, 0, 64, 102
1, 523361, Control_c, 0, 64, 89
1, 523379, Control_c, 0, 64, 73
1, 523398, Control_c, 0, 64, 60
1, 523406, Note_off_c, 0, 73, 40
1, 523416, Control_c, 0, 64, 55
1, 523454, Control_c, 0, 64, 58
1, 523473, Control_c, 0, 64, 63
1, 523492, Control_c, 0, 64, 70
1, 523510, Control_c, 0, 64, 79
1, 523529, Control_c, 0, 64, 91
1, 523547, Control_c, 0, 64, 107
1, 523567, Control_c, 0, 64, 125
1, 523722, Note_off_c, 0, 68, 43
1, 523725, Note_on_c, 0, 73, 34
1, 523828, Note_off_c, 0, 73, 39
1, 524105, Note_on_c, 0, 80, 39
1, 524130, Note_on_c, 0, 73, 24
1, 524140, Note_on_c, 0, 68, 25
1, 524214, Note_off_c, 0, 73, 42
1, 524377, Note_off_c, 0, 85, 38
1, 524605, Note_on_c, 0, 73, 29
1, 524651, Note_off_c, 0, 64, 42
1, 524778, Note_off_c, 0, 73, 32
1, 524780, Note_off_c, 0, 68, 41
1, 524817, Note_off_c, 0, 80, 37
1, 525303, Note_on_c, 0, 79, 25
1, 525322, Note_on_c, 0, 73, 19
1, 525326, Note_on_c, 0, 63, 24
1, 525348, Note_on_c, 0, 70, 19
1, 525529, Control_c, 0, 64, 121
1, 525548, Control_c, 0, 64, 114
1, 525567, Control_c, 0, 64, 106
1, 525586, Control_c, 0, 64, 98
1, 525605, Control_c, 0, 64, 90
1, 525623, Control_c, 0, 64, 83
1, 525642, Control_c, 0, 64, 76
1, 525661, Control_c, 0, 64, 69
1, 525679, Control_c, 0, 64, 64
1, 525698, Control_c, 0, 64, 59
1, 525716, Control_c, 0, 64, 51
1, 525735, Control_c, 0, 64, 38
1, 525753, Control_c, 0, 64, 12
1, 525773, Control_c, 0, 64, 0
1, 525959, Control_c, 0, 64, 23
1, 525968, Poly_aftertouch_c, 0, 70, 24
1, 525978, Control_c, 0, 64, 39
1, 525998, Control_c, 0, 64, 55
1, 526015, Control_c, 0, 64, 69
1, 526035, Control_c, 0, 64, 78
1, 526053, Control_c, 0, 64, 86
1, 526072, Control_c, 0, 64, 94
1, 526090, Control_c, 0, 64, 104
1, 526096, Note_off_c, 0, 70, 26
1, 526096, Poly_aftertouch_c, 0, 70, 0
1, 526109, Control_c, 0, 64, 115
1, 526129, Control_c, 0, 64, 125
1, 526130, Control_c, 0, 67, 119
1, 526164, Control_c, 0, 67, 115
1, 526170, Note_off_c, 0, 63, 30
1, 526171, Note_off_c, 0, 73, 39
1, 526203, Control_c, 0, 67, 110
1, 526239, Control_c, 0, 67, 105
1, 526260, Control_c, 0, 67, 101
1, 526277, Control_c, 0, 67, 95
1, 526295, Poly_aftertouch_c, 0, 79, 20
1, 526296, Control_c, 0, 67, 88
1, 526305, Note_off_c, 0, 79, 32
1, 526305, Poly_aftertouch_c, 0, 79, 0
1, 526315, Control_c, 0, 67, 80
1, 526333, Control_c, 0, 67, 73
1, 526352, Control_c, 0, 67, 68
1, 526370, Control_c, 0, 67, 63
1, 526390, Control_c, 0, 67, 59
1, 526409, Control_c, 0, 67, 53
1, 526426, Control_c, 0, 67, 47
1, 526446, Control_c, 0, 67, 41
1, 526464, Control_c, 0, 67, 35
1, 526483, Control_c, 0, 67, 29
1, 526501, Control_c, 0, 67, 23
1, 526521, Control_c, 0, 67, 17
1, 526539, Control_c, 0, 67, 11
1, 526652, Control_c, 0, 67, 0
1, 526782, Control_c, 0, 64, 120
1, 526801, Control_c, 0, 64, 115
1, 526838, Control_c, 0, 64, 109
1, 526857, Control_c, 0, 64, 104
1, 526876, Control_c, 0, 64, 97
1, 526894, Control_c, 0, 64, 89
1, 526913, Control_c, 0, 64, 82
1, 526933, Control_c, 0, 64, 74
1, 526951, Control_c, 0, 64, 66
1, 526970, Control_c, 0, 64, 59
1, 526988, Control_c, 0, 64, 50
1, 527008, Control_c, 0, 64, 34
1, 527025, Control_c, 0, 64, 0
1, 527135, Note_on_c, 0, 87, 56
1, 527170, Note_on_c, 0, 75, 36
1, 527173, Control_c, 0, 64, 26
1, 527194, Control_c, 0, 64, 45
1, 527213, Control_c, 0, 64, 62
1, 527231, Control_c, 0, 64, 76
1, 527250, Control_c, 0, 64, 90
1, 527270, Control_c, 0, 64, 109
1, 527287, Control_c, 0, 64, 127
1, 527828, Note_on_c, 0, 79, 37
1, 527846, Note_off_c, 0, 87, 48
1, 528313, Note_off_c, 0, 75, 34
1, 528353, Note_on_c, 0, 84, 63
1, 528363, Note_off_c, 0, 79, 30
1, 528363, Poly_aftertouch_c, 0, 79, 0
1, 528391, Note_on_c, 0, 80, 45
1, 528391, Control_c, 0, 67, 8
1, 528464, Note_on_c, 0, 27, 36
1, 528484, Control_c, 0, 67, 13
1, 528500, Note_on_c, 0, 39, 27
1, 528521, Control_c, 0, 67, 17
1, 528558, Control_c, 0, 67, 22
1, 528596, Control_c, 0, 67, 27
1, 528652, Control_c, 0, 64, 108
1, 528653, Control_c, 0, 67, 33
1, 528671, Control_c, 0, 64, 89
1, 528690, Control_c, 0, 64, 73
1, 528693, Control_c, 0, 67, 40
1, 528708, Control_c, 0, 64, 67
1, 528728, Control_c, 0, 64, 68
1, 528730, Control_c, 0, 67, 45
1, 528746, Control_c, 0, 64, 72
1, 528764, Control_c, 0, 64, 77
1, 528784, Control_c, 0, 64, 84
1, 528802, Control_c, 0, 64, 94
1, 528821, Control_c, 0, 64, 110
1, 528839, Control_c, 0, 64, 127
1, 528840, Control_c, 0, 67, 50
1, 528895, Control_c, 0, 67, 55
1, 528932, Control_c, 0, 67, 60
1, 528946, Note_on_c, 0, 76, 42
1, 528963, Note_off_c, 0, 80, 54
1, 528969, Control_c, 0, 67, 64
1, 529064, Control_c, 0, 67, 68
1, 529194, Control_c, 0, 67, 73
1, 529251, Control_c, 0, 67, 77
1, 529306, Control_c, 0, 67, 81
1, 529370, Note_on_c, 0, 80, 59
1, 529381, Control_c, 0, 67, 85
1, 529391, Note_off_c, 0, 76, 57
1, 529414, Note_on_c, 0, 77, 38
1, 529495, Control_c, 0, 67, 89
1, 529502, Note_off_c, 0, 84, 54
1, 529603, Note_off_c, 0, 77, 44
1, 529703, Note_off_c, 0, 80, 60
1, 529735, Control_c, 0, 67, 93
1, 529738, Note_on_c, 0, 72, 44
1, 529793, Control_c, 0, 67, 99
1, 529868, Control_c, 0, 67, 103
1, 530039, Note_on_c, 0, 77, 65
1, 530059, Note_off_c, 0, 72, 40
1, 530059, Poly_aftertouch_c, 0, 72, 0
1, 530208, Poly_aftertouch_c, 0, 73, 127
1, 530241, Poly_aftertouch_c, 0, 73, 0
1, 530279, Control_c, 0, 67, 107
1, 530346, Note_on_c, 0, 69, 44
1, 530638, Note_off_c, 0, 69, 55
1, 530664, Note_on_c, 0, 73, 59
1, 530684, Note_on_c, 0, 70, 42
1, 530731, Note_off_c, 0, 77, 53
1, 530765, Control_c, 0, 64, 123
1, 530783, Control_c, 0, 64, 110
1, 530802, Control_c, 0, 64, 96
1, 530821, Control_c, 0, 64, 83
1, 530823, Control_c, 0, 67, 111
1, 530840, Control_c, 0, 64, 77
1, 530878, Control_c, 0, 64, 83
1, 530896, Control_c, 0, 64, 90
1, 530914, Control_c, 0, 64, 99
1, 530926, Note_off_c, 0, 70, 36
1, 530926, Poly_aftertouch_c, 0, 70, 0
1, 530932, Control_c, 0, 64, 109
1, 530952, Control_c, 0, 64, 120
1, 530971, Control_c, 0, 64, 127
1, 530978, Note_on_c, 0, 65, 43
1, 531158, Control_c, 0, 67, 117
1, 531214, Control_c, 0, 67, 121
1, 531291, Note_off_c, 0, 65, 36
1, 531291, Poly_aftertouch_c, 0, 65, 0
1, 531308, Control_c, 0, 67, 125
1, 531349, Note_on_c, 0, 70, 54
1, 531387, Note_on_c, 0, 67, 36
1, 531494, Control_c, 0, 64, 120
1, 531495, Note_off_c, 0, 73, 52
1, 531513, Control_c, 0, 64, 108
1, 531531, Control_c, 0, 64, 93
1, 531551, Control_c, 0, 64, 77
1, 531569, Control_c, 0, 64, 65
1, 531588, Control_c, 0, 64, 63
1, 531607, Control_c, 0, 64, 67
1, 531619, Note_off_c, 0, 67, 56
1, 531619, Poly_aftertouch_c, 0, 67, 0
1, 531624, Control_c, 0, 64, 71
1, 531644, Control_c, 0, 64, 76
1, 531662, Control_c, 0, 64, 83
1, 531682, Control_c, 0, 64, 93
1, 531684, Note_on_c, 0, 63, 40
1, 531701, Control_c, 0, 64, 109
1, 531718, Control_c, 0, 64, 127
1, 531933, Note_off_c, 0, 63, 49
1, 531965, Note_off_c, 0, 70, 60
1, 531965, Poly_aftertouch_c, 0, 70, 0
1, 531995, Note_on_c, 0, 72, 44
1, 532013, Note_on_c, 0, 69, 40
1, 532078, Note_off_c, 0, 72, 55
1, 532078, Poly_aftertouch_c, 0, 72, 0
1, 532126, Note_on_c, 0, 73, 42
1, 532174, Note_off_c, 0, 73, 59
1, 532215, Note_on_c, 0, 72, 52
1, 532257, Note_on_c, 0, 63, 23
1, 532268, Note_off_c, 0, 72, 60
1, 532268, Poly_aftertouch_c, 0, 72, 0
1, 532301, Note_on_c, 0, 73, 55
1, 532352, Note_off_c, 0, 73, 59
1, 532378, Note_on_c, 0, 72, 53
1, 532405, Note_off_c, 0, 69, 29
1, 532405, Poly_aftertouch_c, 0, 69, 0
1, 532461, Note_off_c, 0, 72, 59
1, 532461, Poly_aftertouch_c, 0, 72, 0
1, 532484, Note_on_c, 0, 70, 53
1, 532531, Note_off_c, 0, 70, 61
1, 532531, Poly_aftertouch_c, 0, 70, 0
1, 532565, Note_on_c, 0, 72, 46
1, 532583, Note_off_c, 0, 63, 40
1, 532727, Note_on_c, 0, 73, 49
1, 532747, Note_on_c, 0, 70, 44
1, 532766, Control_c, 0, 64, 120
1, 532785, Control_c, 0, 64, 116
1, 532802, Control_c, 0, 64, 112
1, 532822, Control_c, 0, 64, 107
1, 532824, Note_off_c, 0, 72, 29
1, 532824, Poly_aftertouch_c, 0, 72, 0
1, 532841, Control_c, 0, 64, 100
1, 532859, Control_c, 0, 64, 91
1, 532878, Control_c, 0, 64, 80
1, 532898, Control_c, 0, 64, 70
1, 532916, Control_c, 0, 64, 62
1, 532934, Control_c, 0, 64, 54
1, 532953, Control_c, 0, 64, 43
1, 532972, Control_c, 0, 64, 33
1, 533029, Control_c, 0, 64, 44
1, 533030, Control_c, 0, 67, 121
1, 533047, Control_c, 0, 64, 55
1, 533065, Control_c, 0, 64, 64
1, 533084, Control_c, 0, 64, 72
1, 533102, Control_c, 0, 64, 79
1, 533121, Note_on_c, 0, 63, 25
1, 533121, Control_c, 0, 64, 86
1, 533140, Control_c, 0, 64, 92
1, 533158, Control_c, 0, 64, 99
1, 533170, Note_off_c, 0, 70, 33
1, 533170, Poly_aftertouch_c, 0, 70, 0
1, 533178, Control_c, 0, 64, 107
1, 533195, Control_c, 0, 64, 119
1, 533214, Control_c, 0, 64, 127
1, 533291, Control_c, 0, 67, 117
1, 533383, Control_c, 0, 67, 112
1, 533432, Note_on_c, 0, 70, 58
1, 533440, Control_c, 0, 67, 108
1, 533466, Note_on_c, 0, 67, 38
1, 533514, Control_c, 0, 67, 102
1, 533523, Note_off_c, 0, 63, 41
1, 533551, Control_c, 0, 67, 97
1, 533588, Control_c, 0, 67, 93
1, 533625, Control_c, 0, 67, 89
1, 533682, Control_c, 0, 67, 83
1, 533715, Note_off_c, 0, 67, 44
1, 533715, Poly_aftertouch_c, 0, 67, 0
1, 533719, Control_c, 0, 67, 77
1, 533746, Note_off_c, 0, 73, 31
1, 533757, Control_c, 0, 67, 72
1, 533779, Note_on_c, 0, 63, 36
1, 533794, Control_c, 0, 67, 68
1, 533850, Control_c, 0, 67, 62
1, 533906, Control_c, 0, 67, 57
1, 534019, Control_c, 0, 67, 53
1, 534088, Note_on_c, 0, 72, 61
1, 534122, Note_off_c, 0, 70, 57
1, 534122, Poly_aftertouch_c, 0, 70, 0
1, 534168, Control_c, 0, 64, 118
1, 534182, Note_on_c, 0, 68, 27
1, 534187, Control_c, 0, 64, 102
1, 534205, Control_c, 0, 64, 85
1, 534224, Control_c, 0, 64, 69
1, 534244, Control_c, 0, 64, 59
1, 534262, Control_c, 0, 64, 55
1, 534299, Control_c, 0, 64, 63
1, 534319, Control_c, 0, 64, 72
1, 534336, Control_c, 0, 64, 83
1, 534356, Control_c, 0, 64, 99
1, 534367, Note_off_c, 0, 63, 45
1, 534373, Control_c, 0, 64, 126
1, 534442, Note_on_c, 0, 70, 49
1, 534473, Note_off_c, 0, 68, 44
1, 534555, Note_off_c, 0, 70, 55
1, 534555, Poly_aftertouch_c, 0, 70, 0
1, 534557, Note_off_c, 0, 72, 55
1, 534557, Poly_aftertouch_c, 0, 72, 0
1, 534560, Control_c, 0, 67, 57
1, 534673, Control_c, 0, 67, 61
1, 534710, Control_c, 0, 67, 67
1, 534748, Note_on_c, 0, 75, 65
1, 534748, Control_c, 0, 67, 74
1, 534785, Control_c, 0, 67, 79
1, 534805, Note_on_c, 0, 67, 34
1, 534822, Control_c, 0, 67, 84
1, 534860, Control_c, 0, 67, 88
1, 534898, Control_c, 0, 67, 93
1, 534916, Control_c, 0, 64, 98
1, 534935, Control_c, 0, 64, 76
1, 534955, Control_c, 0, 64, 66
1, 534957, Control_c, 0, 67, 99
1, 534972, Control_c, 0, 64, 71
1, 534992, Control_c, 0, 64, 82
1, 534993, Control_c, 0, 67, 104
1, 535011, Control_c, 0, 64, 98
1, 535028, Control_c, 0, 64, 127
1, 535029, Control_c, 0, 67, 109
1, 535066, Control_c, 0, 67, 116
1, 535072, Note_off_c, 0, 67, 39
1, 535072, Poly_aftertouch_c, 0, 67, 0
1, 535087, Note_off_c, 0, 75, 63
1, 535087, Note_on_c, 0, 70, 47
1, 535102, Control_c, 0, 67, 121
1, 535160, Control_c, 0, 67, 126
1, 535413, Note_on_c, 0, 80, 58
1, 535436, Note_off_c, 0, 70, 30
1, 535436, Poly_aftertouch_c, 0, 70, 0
1, 535467, Note_on_c, 0, 65, 37
1, 535551, Control_c, 0, 64, 116
1, 535570, Control_c, 0, 64, 106
1, 535589, Control_c, 0, 64, 92
1, 535608, Control_c, 0, 64, 75
1, 535626, Control_c, 0, 64, 57
1, 535646, Control_c, 0, 64, 38
1, 535665, Control_c, 0, 64, 23
1, 535682, Control_c, 0, 64, 27
1, 535703, Control_c, 0, 64, 38
1, 535720, Control_c, 0, 64, 49
1, 535739, Control_c, 0, 64, 64
1, 535757, Control_c, 0, 64, 78
1, 535777, Control_c, 0, 64, 92
1, 535795, Control_c, 0, 64, 106
1, 535801, Note_on_c, 0, 73, 41
1, 535813, Control_c, 0, 64, 118
1, 535832, Control_c, 0, 64, 127
1, 535856, Note_off_c, 0, 65, 38
1, 535856, Poly_aftertouch_c, 0, 65, 0
1, 535927, Note_off_c, 0, 80, 58
1, 535976, Note_off_c, 0, 73, 32
1, 536193, Note_on_c, 0, 82, 59
1, 536235, Note_on_c, 0, 74, 36
1, 536263, Control_c, 0, 64, 123
1, 536280, Control_c, 0, 64, 103
1, 536300, Control_c, 0, 64, 78
1, 536318, Control_c, 0, 64, 60
1, 536338, Control_c, 0, 64, 62
1, 536355, Control_c, 0, 64, 74
1, 536375, Control_c, 0, 64, 87
1, 536382, Note_off_c, 0, 82, 56
1, 536395, Control_c, 0, 64, 107
1, 536412, Control_c, 0, 64, 127
1, 536447, Note_off_c, 0, 74, 61
1, 536771, Note_on_c, 0, 64, 28
1, 536880, Note_off_c, 0, 64, 56
1, 537111, Note_on_c, 0, 63, 34
1, 537123, Control_c, 0, 64, 115
1, 537142, Control_c, 0, 64, 97
1, 537160, Control_c, 0, 64, 76
1, 537178, Control_c, 0, 64, 58
1, 537198, Control_c, 0, 64, 49
1, 537234, Control_c, 0, 64, 57
1, 537243, Note_on_c, 0, 75, 44
1, 537254, Control_c, 0, 64, 66
1, 537272, Control_c, 0, 64, 76
1, 537291, Control_c, 0, 64, 85
1, 537301, Note_off_c, 0, 63, 46
1, 537309, Control_c, 0, 64, 97
1, 537328, Control_c, 0, 64, 111
1, 537347, Control_c, 0, 64, 126
1, 537381, Note_off_c, 0, 75, 61
1, 537684, Note_on_c, 0, 87, 50
1, 537826, Note_off_c, 0, 87, 36
1, 538546, Note_on_c, 0, 67, 15
1, 538969, Note_on_c, 0, 70, 34
1, 539100, Note_off_c, 0, 67, 31
1, 539100, Poly_aftertouch_c, 0, 67, 0
1, 539285, Note_off_c, 0, 70, 40
1, 539285, Poly_aftertouch_c, 0, 70, 0
1, 539312, Note_on_c, 0, 75, 37
1, 539398, Note_off_c, 0, 75, 57
1, 539624, Note_on_c, 0, 79, 39
1, 539888, Note_off_c, 0, 27, 42
1, 539991, Note_on_c, 0, 82, 46
1, 539995, Note_off_c, 0, 79, 41
1, 539995, Poly_aftertouch_c, 0, 79, 0
1, 539997, Note_off_c, 0, 39, 39
1, 540123, Note_off_c, 0, 82, 44
1, 540227, Control_c, 0, 67, 122
1, 540357, Control_c, 0, 67, 118
1, 540414, Control_c, 0, 67, 114
1, 540507, Control_c, 0, 67, 110
1, 540521, Note_on_c, 0, 87, 67
1, 540563, Control_c, 0, 67, 105
1, 540589, Note_on_c, 0, 75, 30
1, 540610, Note_on_c, 0, 47, 25
1, 540613, Note_on_c, 0, 35, 37
1, 540617, Control_c, 0, 67, 101
1, 540657, Control_c, 0, 64, 121
1, 540676, Control_c, 0, 64, 116
1, 540677, Control_c, 0, 67, 95
1, 540694, Control_c, 0, 64, 112
1, 540712, Control_c, 0, 67, 91
1, 540731, Control_c, 0, 64, 103
1, 540750, Control_c, 0, 64, 96
1, 540751, Control_c, 0, 67, 87
1, 540769, Control_c, 0, 64, 87
1, 540787, Control_c, 0, 64, 78
1, 540789, Control_c, 0, 67, 81
1, 540806, Control_c, 0, 64, 69
1, 540807, Control_c, 0, 67, 76
1, 540826, Control_c, 0, 64, 62
1, 540827, Control_c, 0, 67, 72
1, 540843, Control_c, 0, 64, 55
1, 540862, Control_c, 0, 64, 45
1, 540863, Control_c, 0, 67, 65
1, 540882, Control_c, 0, 64, 30
1, 540900, Control_c, 0, 64, 13
1, 540901, Control_c, 0, 67, 60
1, 540937, Control_c, 0, 67, 54
1, 540956, Control_c, 0, 64, 21
1, 540975, Control_c, 0, 64, 29
1, 540976, Control_c, 0, 67, 48
1, 540993, Control_c, 0, 64, 36
1, 541012, Control_c, 0, 64, 45
1, 541013, Control_c, 0, 67, 42
1, 541030, Control_c, 0, 64, 55
1, 541049, Control_c, 0, 64, 64
1, 541050, Control_c, 0, 67, 36
1, 541068, Control_c, 0, 64, 69
1, 541087, Control_c, 0, 64, 73
1, 541088, Control_c, 0, 67, 31
1, 541106, Control_c, 0, 64, 76
1, 541124, Control_c, 0, 64, 82
1, 541126, Control_c, 0, 67, 27
1, 541143, Control_c, 0, 64, 88
1, 541162, Control_c, 0, 64, 94
1, 541180, Control_c, 0, 64, 99
1, 541199, Control_c, 0, 64, 104
1, 541217, Control_c, 0, 64, 109
1, 541236, Control_c, 0, 64, 114
1, 541245, Note_on_c, 0, 78, 35
1, 541253, Control_c, 0, 64, 119
1, 541273, Control_c, 0, 64, 125
1, 541384, Note_off_c, 0, 75, 42
1, 541516, Control_c, 0, 67, 23
1, 541610, Control_c, 0, 67, 19
1, 541721, Note_on_c, 0, 75, 38
1, 541760, Control_c, 0, 67, 15
1, 541768, Note_off_c, 0, 78, 41
1, 541872, Control_c, 0, 67, 10
1, 542121, Note_on_c, 0, 79, 40
1, 542172, Note_off_c, 0, 87, 59
1, 542497, Note_on_c, 0, 83, 60
1, 542530, Note_on_c, 0, 80, 42
1, 542554, Note_off_c, 0, 75, 40
1, 542613, Note_off_c, 0, 79, 34
1, 542613, Poly_aftertouch_c, 0, 79, 0
1, 542742, Note_off_c, 0, 80, 36
1, 542910, Note_on_c, 0, 75, 41
1, 543180, Note_off_c, 0, 75, 37
1, 543207, Note_on_c, 0, 80, 60
1, 543243, Note_on_c, 0, 76, 38
1, 543267, Note_off_c, 0, 83, 37
1, 543462, Note_off_c, 0, 76, 38
1, 543549, Note_on_c, 0, 72, 36
1, 543832, Note_off_c, 0, 72, 38
1, 543832, Poly_aftertouch_c, 0, 72, 0
1, 543848, Note_on_c, 0, 76, 57
1, 543880, Note_on_c, 0, 73, 40
1, 543896, Note_off_c, 0, 80, 55
1, 543911, Control_c, 0, 64, 110
1, 543929, Control_c, 0, 64, 102
1, 543967, Control_c, 0, 64, 107
1, 543985, Control_c, 0, 64, 114
1, 544004, Control_c, 0, 64, 122
1, 544022, Control_c, 0, 64, 127
1, 544130, Note_off_c, 0, 73, 48
1, 544177, Note_on_c, 0, 68, 34
1, 544247, Control_c, 0, 67, 14
1, 544339, Control_c, 0, 67, 19
1, 544378, Control_c, 0, 67, 25
1, 544415, Control_c, 0, 67, 31
1, 544453, Control_c, 0, 67, 36
1, 544488, Note_off_c, 0, 68, 43
1, 544491, Control_c, 0, 67, 40
1, 544495, Note_on_c, 0, 73, 57
1, 544528, Control_c, 0, 67, 45
1, 544542, Note_on_c, 0, 70, 41
1, 544560, Note_off_c, 0, 76, 55
1, 544564, Control_c, 0, 67, 50
1, 544583, Control_c, 0, 64, 122
1, 544602, Control_c, 0, 64, 110
1, 544603, Control_c, 0, 67, 54
1, 544621, Control_c, 0, 64, 99
1, 544639, Control_c, 0, 64, 89
1, 544639, Control_c, 0, 67, 61
1, 544660, Control_c, 0, 64, 80
1, 544677, Control_c, 0, 64, 77
1, 544680, Control_c, 0, 67, 66
1, 544695, Control_c, 0, 64, 79
1, 544714, Control_c, 0, 64, 83
1, 544734, Control_c, 0, 64, 88
1, 544751, Control_c, 0, 64, 92
1, 544771, Control_c, 0, 64, 99
1, 544772, Control_c, 0, 67, 71
1, 544790, Control_c, 0, 64, 105
1, 544807, Control_c, 0, 64, 112
1, 544808, Control_c, 0, 67, 76
1, 544812, Note_on_c, 0, 64, 38
1, 544824, Note_off_c, 0, 70, 33
1, 544824, Poly_aftertouch_c, 0, 70, 0
1, 544826, Control_c, 0, 64, 118
1, 544846, Control_c, 0, 64, 124
1, 544847, Control_c, 0, 67, 80
1, 544882, Control_c, 0, 67, 84
1, 544919, Control_c, 0, 67, 88
1, 544958, Control_c, 0, 67, 94
1, 544995, Control_c, 0, 67, 101
1, 545032, Control_c, 0, 67, 106
1, 545089, Control_c, 0, 67, 111
1, 545102, Poly_aftertouch_c, 0, 64, 24
1, 545125, Control_c, 0, 67, 116
1, 545129, Note_off_c, 0, 73, 55
1, 545141, Note_on_c, 0, 75, 57
1, 545151, Note_off_c, 0, 64, 39
1, 545151, Poly_aftertouch_c, 0, 64, 0
1, 545163, Control_c, 0, 67, 120
1, 545196, Note_on_c, 0, 71, 29
1, 545237, Control_c, 0, 67, 124
1, 545257, Note_off_c, 0, 75, 60
1, 545313, Note_on_c, 0, 76, 40
1, 545426, Note_on_c, 0, 75, 55
1, 545434, Note_off_c, 0, 76, 59
1, 545443, Note_on_c, 0, 63, 32
1, 545497, Note_off_c, 0, 75, 46
1, 545543, Note_off_c, 0, 71, 25
1, 545575, Note_on_c, 0, 73, 48
1, 545626, Note_off_c, 0, 73, 61
1, 545633, Note_on_c, 0, 75, 64
1, 545730, Note_off_c, 0, 63, 34
1, 545766, Note_off_c, 0, 75, 61
1, 545784, Note_on_c, 0, 73, 34
1, 545796, Note_on_c, 0, 76, 60
1, 545948, Control_c, 0, 64, 116
1, 545967, Control_c, 0, 64, 109
1, 545986, Control_c, 0, 64, 99
1, 546005, Control_c, 0, 64, 86
1, 546006, Control_c, 0, 67, 120
1, 546023, Control_c, 0, 64, 72
1, 546042, Control_c, 0, 64, 60
1, 546061, Control_c, 0, 64, 55
1, 546079, Control_c, 0, 67, 116
1, 546097, Control_c, 0, 64, 60
1, 546117, Control_c, 0, 64, 67
1, 546137, Control_c, 0, 64, 72
1, 546138, Control_c, 0, 67, 112
1, 546154, Control_c, 0, 64, 77
1, 546170, Note_on_c, 0, 61, 35
1, 546171, Control_c, 0, 64, 86
1, 546192, Control_c, 0, 64, 99
1, 546193, Control_c, 0, 67, 105
1, 546210, Control_c, 0, 64, 111
1, 546229, Control_c, 0, 64, 121
1, 546230, Control_c, 0, 67, 101
1, 546247, Note_off_c, 0, 73, 37
1, 546249, Control_c, 0, 64, 127
1, 546284, Control_c, 0, 67, 94
1, 546304, Control_c, 0, 67, 89
1, 546323, Control_c, 0, 67, 83
1, 546341, Control_c, 0, 67, 79
1, 546361, Control_c, 0, 67, 74
1, 546397, Control_c, 0, 67, 68
1, 546434, Control_c, 0, 67, 61
1, 546449, Note_on_c, 0, 73, 57
1, 546473, Control_c, 0, 67, 54
1, 546509, Control_c, 0, 67, 47
1, 546513, Note_off_c, 0, 61, 43
1, 546522, Note_on_c, 0, 70, 34
1, 546527, Control_c, 0, 67, 43
1, 546547, Control_c, 0, 67, 39
1, 546566, Control_c, 0, 67, 34
1, 546584, Control_c, 0, 67, 30
1, 546603, Control_c, 0, 67, 26
1, 546622, Control_c, 0, 67, 22
1, 546635, Note_off_c, 0, 76, 43
1, 546639, Control_c, 0, 67, 18
1, 546678, Control_c, 0, 67, 11
1, 546790, Note_on_c, 0, 64, 39
1, 546884, Control_c, 0, 67, 0
1, 546891, Note_off_c, 0, 64, 53
1, 546891, Poly_aftertouch_c, 0, 64, 0
1, 546892, Note_off_c, 0, 70, 42
1, 546892, Poly_aftertouch_c, 0, 70, 0
1, 546969, Note_off_c, 0, 73, 48
1, 547106, Note_on_c, 0, 75, 61
1, 547151, Note_on_c, 0, 71, 42
1, 547220, Control_c, 0, 64, 122
1, 547238, Control_c, 0, 64, 103
1, 547258, Control_c, 0, 64, 83
1, 547276, Control_c, 0, 64, 72
1, 547294, Control_c, 0, 64, 75
1, 547313, Control_c, 0, 64, 82
1, 547332, Control_c, 0, 64, 94
1, 547352, Control_c, 0, 64, 113
1, 547369, Control_c, 0, 64, 127
1, 547442, Note_on_c, 0, 63, 43
1, 547504, Note_off_c, 0, 75, 61
1, 547512, Note_off_c, 0, 71, 59
1, 547533, Note_off_c, 0, 35, 55
1, 547539, Note_off_c, 0, 63, 56
1, 547571, Note_off_c, 0, 47, 39
1, 547571, Poly_aftertouch_c, 0, 47, 0
1, 547841, Note_on_c, 0, 79, 60
1, 547887, Note_on_c, 0, 73, 48
1, 547898, Note_on_c, 0, 46, 30
1, 547910, Note_on_c, 0, 34, 35
1, 547987, Control_c, 0, 64, 110
1, 548005, Control_c, 0, 64, 88
1, 548024, Control_c, 0, 64, 70
1, 548042, Control_c, 0, 64, 61
1, 548061, Control_c, 0, 64, 63
1, 548081, Control_c, 0, 64, 71
1, 548098, Control_c, 0, 64, 82
1, 548118, Control_c, 0, 64, 98
1, 548136, Control_c, 0, 64, 121
1, 548155, Control_c, 0, 64, 127
1, 548173, Control_c, 0, 67, 8
1, 548325, Note_off_c, 0, 79, 60
1, 548325, Poly_aftertouch_c, 0, 79, 0
1, 548331, Note_on_c, 0, 76, 39
1, 548359, Note_off_c, 0, 73, 56
1, 548390, Note_off_c, 0, 46, 42
1, 548404, Note_off_c, 0, 76, 55
1, 548422, Note_off_c, 0, 34, 40
1, 548665, Note_on_c, 0, 80, 60
1, 548693, Note_on_c, 0, 71, 36
1, 548696, Control_c, 0, 64, 105
1, 548710, Note_on_c, 0, 44, 36
1, 548713, Control_c, 0, 64, 86
1, 548733, Note_on_c, 0, 32, 30
1, 548754, Control_c, 0, 64, 96
1, 548772, Control_c, 0, 64, 121
1, 548791, Control_c, 0, 64, 127
1, 548843, Note_off_c, 0, 80, 57
1, 549073, Note_on_c, 0, 82, 70
1, 549092, Note_off_c, 0, 44, 42
1, 549107, Note_on_c, 0, 75, 45
1, 549142, Note_off_c, 0, 32, 48
1, 549154, Poly_aftertouch_c, 0, 71, 24
1, 549165, Note_off_c, 0, 75, 54
1, 549210, Note_off_c, 0, 71, 37
1, 549210, Poly_aftertouch_c, 0, 71, 0
1, 549294, Note_off_c, 0, 82, 50
1, 549388, Control_c, 0, 67, 0
1, 549419, Note_on_c, 0, 83, 74
1, 549427, Control_c, 0, 64, 114
1, 549445, Control_c, 0, 64, 90
1, 549447, Note_on_c, 0, 80, 59
1, 549464, Control_c, 0, 64, 79
1, 549483, Note_on_c, 0, 28, 44
1, 549484, Note_on_c, 0, 40, 38
1, 549484, Control_c, 0, 64, 84
1, 549501, Control_c, 0, 64, 98
1, 549521, Control_c, 0, 64, 127
1, 549581, Note_off_c, 0, 83, 64
1, 549581, Note_off_c, 0, 80, 60
1, 549754, Note_on_c, 0, 85, 77
1, 549787, Note_on_c, 0, 80, 56
1, 549794, Note_on_c, 0, 71, 41
1, 549845, Note_off_c, 0, 71, 47
1, 549845, Poly_aftertouch_c, 0, 71, 0
1, 549895, Note_off_c, 0, 80, 59
1, 549921, Note_off_c, 0, 28, 55
1, 549953, Note_off_c, 0, 85, 61
1, 549973, Note_on_c, 0, 72, 59
1, 550013, Note_off_c, 0, 40, 40
1, 550013, Poly_aftertouch_c, 0, 40, 0
1, 550077, Note_on_c, 0, 80, 49
1, 550160, Note_on_c, 0, 84, 65
1, 550247, Note_on_c, 0, 27, 48
1, 550288, Control_c, 0, 64, 118
1, 550305, Control_c, 0, 64, 112
1, 550324, Control_c, 0, 64, 104
1, 550342, Control_c, 0, 64, 93
1, 550362, Control_c, 0, 64, 81
1, 550379, Control_c, 0, 64, 68
1, 550400, Control_c, 0, 64, 56
1, 550417, Control_c, 0, 64, 36
1, 550436, Control_c, 0, 64, 0
1, 550482, Note_on_c, 0, 87, 79
1, 550492, Poly_aftertouch_c, 0, 72, 24
1, 550567, Control_c, 0, 64, 22
1, 550575, Note_off_c, 0, 72, 34
1, 550575, Poly_aftertouch_c, 0, 72, 0
1, 550586, Control_c, 0, 64, 52
1, 550604, Control_c, 0, 64, 70
1, 550624, Control_c, 0, 64, 84
1, 550630, Note_off_c, 0, 80, 37
1, 550642, Control_c, 0, 64, 113
1, 550661, Control_c, 0, 64, 127
1, 550774, Note_off_c, 0, 84, 40
1, 550847, Note_off_c, 0, 27, 41
1, 550855, Note_off_c, 0, 87, 57
1, 551119, Note_on_c, 0, 39, 44
1, 551187, Note_off_c, 0, 39, 59
1, 551516, Note_on_c, 0, 51, 49
1, 551852, Note_on_c, 0, 60, 54
1, 552163, Note_on_c, 0, 63, 52
1, 552240, Note_off_c, 0, 60, 60
1, 552240, Poly_aftertouch_c, 0, 60, 0
1, 552419, Note_off_c, 0, 51, 33
1, 552419, Poly_aftertouch_c, 0, 51, 0
1, 552420, Note_on_c, 0, 60, 58
1, 552528, Note_off_c, 0, 63, 38
1, 552643, Note_off_c, 0, 60, 55
1, 552643, Poly_aftertouch_c, 0, 60, 0
1, 552687, Note_on_c, 0, 84, 76
1, 552689, Note_on_c, 0, 51, 61
1, 552712, Note_on_c, 0, 80, 60
1, 552719, Note_on_c, 0, 72, 55
1, 552749, Note_off_c, 0, 51, 61
1, 552749, Poly_aftertouch_c, 0, 51, 0
1, 552761, Note_off_c, 0, 80, 54
1, 552864, Note_off_c, 0, 72, 33
1, 552864, Poly_aftertouch_c, 0, 72, 0
1, 552962, Note_off_c, 0, 84, 55
1, 552979, Note_on_c, 0, 39, 63
1, 553070, Note_on_c, 0, 72, 52
1, 553141, Note_on_c, 0, 81, 62
1, 553237, Note_on_c, 0, 84, 64
1, 553304, Poly_aftertouch_c, 0, 74, 127
1, 553308, Note_on_c, 0, 27, 52
1, 553334, Control_c, 0, 64, 121
1, 553372, Control_c, 0, 64, 114
1, 553386, Note_off_c, 0, 39, 34
1, 553409, Control_c, 0, 64, 108
1, 553428, Control_c, 0, 64, 103
1, 553446, Control_c, 0, 64, 97
1, 553465, Control_c, 0, 64, 92
1, 553474, Note_on_c, 0, 87, 87
1, 553483, Control_c, 0, 64, 88
1, 553502, Control_c, 0, 64, 85
1, 553521, Control_c, 0, 64, 83
1, 553539, Control_c, 0, 64, 79
1, 553559, Control_c, 0, 64, 74
1, 553577, Control_c, 0, 64, 65
1, 553597, Control_c, 0, 64, 51
1, 553616, Control_c, 0, 64, 19
1, 553633, Control_c, 0, 64, 0
1, 553689, Control_c, 0, 64, 40
1, 553709, Control_c, 0, 64, 64
1, 553728, Control_c, 0, 64, 83
1, 553746, Control_c, 0, 64, 102
1, 553765, Control_c, 0, 64, 126
1, 553818, Note_off_c, 0, 27, 59
1, 553849, Note_on_c, 0, 39, 58
1, 553893, Note_off_c, 0, 39, 61
1, 554182, Note_on_c, 0, 51, 45
1, 554494, Note_on_c, 0, 60, 35
1, 554588, Control_c, 0, 64, 121
1, 554607, Control_c, 0, 64, 104
1, 554624, Control_c, 0, 64, 96
1, 554662, Control_c, 0, 64, 105
1, 554680, Control_c, 0, 64, 112
1, 554699, Control_c, 0, 64, 122
1, 554718, Control_c, 0, 64, 127
1, 554811, Control_c, 0, 64, 117
1, 554820, Note_on_c, 0, 63, 38
1, 554830, Control_c, 0, 64, 108
1, 554837, Note_off_c, 0, 60, 32
1, 554837, Poly_aftertouch_c, 0, 60, 0
1, 554886, Control_c, 0, 64, 115
1, 554905, Control_c, 0, 64, 124
1, 554948, Note_off_c, 0, 81, 63
1, 555068, Poly_aftertouch_c, 0, 74, 0
1, 555072, Poly_aftertouch_c, 0, 72, 24
1, 555109, Note_off_c, 0, 87, 62
1, 555140, Note_off_c, 0, 72, 34
1, 555140, Poly_aftertouch_c, 0, 72, 0
1, 555142, Note_off_c, 0, 63, 35
1, 555165, Control_c, 0, 67, 9
1, 555174, Note_on_c, 0, 61, 43
1, 555175, Note_off_c, 0, 84, 38
1, 555229, Note_off_c, 0, 61, 58
1, 555241, Control_c, 0, 67, 13
1, 555278, Control_c, 0, 67, 19
1, 555281, Note_off_c, 0, 51, 50
1, 555281, Poly_aftertouch_c, 0, 51, 0
1, 555298, Control_c, 0, 67, 25
1, 555316, Control_c, 0, 67, 32
1, 555336, Control_c, 0, 67, 41
1, 555353, Control_c, 0, 67, 48
1, 555372, Control_c, 0, 67, 53
1, 555410, Control_c, 0, 67, 59
1, 555484, Control_c, 0, 67, 63
1, 555511, Note_on_c, 0, 82, 63
1, 555542, Note_on_c, 0, 79, 42
1, 555557, Note_on_c, 0, 51, 35
1, 555578, Control_c, 0, 67, 67
1, 555588, Note_on_c, 0, 70, 35
1, 555616, Control_c, 0, 64, 111
1, 555634, Control_c, 0, 64, 95
1, 555653, Control_c, 0, 64, 80
1, 555655, Control_c, 0, 67, 72
1, 555673, Control_c, 0, 64, 75
1, 555690, Control_c, 0, 64, 80
1, 555710, Control_c, 0, 64, 88
1, 555713, Control_c, 0, 67, 77
1, 555728, Control_c, 0, 64, 97
1, 555746, Control_c, 0, 64, 111
1, 555765, Control_c, 0, 64, 126
1, 555787, Note_off_c, 0, 79, 56
1, 555787, Poly_aftertouch_c, 0, 79, 0
1, 555863, Note_off_c, 0, 82, 62
1, 555963, Note_off_c, 0, 70, 40
1, 555963, Poly_aftertouch_c, 0, 70, 0
1, 555970, Control_c, 0, 67, 81
1, 556002, Note_on_c, 0, 39, 36
1, 556013, Note_off_c, 0, 51, 39
1, 556013, Poly_aftertouch_c, 0, 51, 0
1, 556104, Note_off_c, 0, 39, 53
1, 556186, Note_on_c, 0, 68, 37
1, 556279, Note_off_c, 0, 68, 50
1, 556288, Note_on_c, 0, 75, 48
1, 556407, Note_on_c, 0, 80, 48
1, 556476, Control_c, 0, 64, 120
1, 556510, Note_on_c, 0, 32, 37
1, 556511, Control_c, 0, 64, 115
1, 556550, Control_c, 0, 64, 110
1, 556587, Control_c, 0, 64, 104
1, 556607, Control_c, 0, 64, 97
1, 556624, Control_c, 0, 64, 86
1, 556644, Control_c, 0, 64, 75
1, 556663, Control_c, 0, 64, 69
1, 556682, Control_c, 0, 64, 64
1, 556700, Control_c, 0, 64, 57
1, 556718, Control_c, 0, 64, 46
1, 556739, Control_c, 0, 64, 21
1, 556755, Control_c, 0, 64, 0
1, 556756, Note_on_c, 0, 84, 73
1, 556850, Control_c, 0, 64, 29
1, 556868, Control_c, 0, 64, 49
1, 556887, Control_c, 0, 64, 67
1, 556905, Control_c, 0, 64, 86
1, 556925, Control_c, 0, 64, 107
1, 556943, Control_c, 0, 64, 127
1, 557092, Control_c, 0, 67, 85
1, 557111, Control_c, 0, 67, 91
1, 557129, Control_c, 0, 67, 99
1, 557149, Control_c, 0, 67, 108
1, 557168, Control_c, 0, 67, 116
1, 557186, Control_c, 0, 67, 120
1, 557194, Note_off_c, 0, 75, 26
1, 557202, Note_off_c, 0, 84, 39
1, 557225, Control_c, 0, 67, 125
1, 557277, Note_on_c, 0, 39, 33
1, 557313, Note_off_c, 0, 32, 33
1, 557430, Poly_aftertouch_c, 0, 80, 24
1, 557502, Note_off_c, 0, 80, 33
1, 557502, Poly_aftertouch_c, 0, 80, 0
1, 557612, Note_off_c, 0, 39, 27
1, 557616, Note_on_c, 0, 44, 27
1, 557730, Note_off_c, 0, 44, 47
1, 557896, Note_on_c, 0, 48, 37
1, 558095, Note_off_c, 0, 48, 40
1, 558225, Note_on_c, 0, 51, 38
1, 558522, Note_off_c, 0, 51, 35
1, 558522, Poly_aftertouch_c, 0, 51, 0
1, 558541, Note_on_c, 0, 56, 35
1, 558650, Note_off_c, 0, 56, 48
1, 558838, Note_on_c, 0, 75, 51
1, 558909, Note_on_c, 0, 60, 33
1, 559032, Note_off_c, 0, 60, 61
1, 559032, Poly_aftertouch_c, 0, 60, 0
1, 559140, Note_off_c, 0, 75, 32
1, 559337, Note_on_c, 0, 68, 34
1, 559423, Note_on_c, 0, 75, 50
1, 559432, Note_off_c, 0, 68, 49
1, 559547, Note_on_c, 0, 80, 46
1, 559589, Note_on_c, 0, 32, 32
1, 559769, Note_on_c, 0, 84, 68
1, 559797, Note_off_c, 0, 75, 39
1, 559885, Note_off_c, 0, 80, 38
1, 559885, Poly_aftertouch_c, 0, 80, 0
1, 559903, Note_off_c, 0, 84, 56
1, 560103, Note_off_c, 0, 32, 38
1, 560139, Note_on_c, 0, 39, 32
1, 560356, Note_off_c, 0, 39, 31
1, 560485, Note_on_c, 0, 44, 27
1, 560568, Note_off_c, 0, 44, 51
1, 560761, Note_on_c, 0, 48, 30
1, 561126, Note_on_c, 0, 51, 40
1, 561137, Note_off_c, 0, 48, 40
1, 561464, Note_on_c, 0, 56, 33
1, 561476, Note_off_c, 0, 51, 36
1, 561476, Poly_aftertouch_c, 0, 51, 0
1, 561757, Note_off_c, 0, 56, 30
1, 561825, Note_on_c, 0, 75, 47
1, 561885, Note_on_c, 0, 60, 22
1, 562051, Note_off_c, 0, 60, 51
1, 562051, Poly_aftertouch_c, 0, 60, 0
1, 562179, Note_off_c, 0, 75, 29
1, 562417, Note_on_c, 0, 63, 32
1, 562580, Note_on_c, 0, 72, 38
1, 562663, Note_off_c, 0, 63, 44
1, 562754, Note_on_c, 0, 32, 25
1, 562946, Note_on_c, 0, 80, 60
1, 563106, Note_off_c, 0, 72, 37
1, 563106, Poly_aftertouch_c, 0, 72, 0
1, 563175, Note_off_c, 0, 80, 50
1, 563175, Poly_aftertouch_c, 0, 80, 0
1, 563250, Note_off_c, 0, 32, 34
1, 563453, Note_on_c, 0, 39, 24
1, 563741, Poly_aftertouch_c, 0, 39, 24
1, 563822, Note_off_c, 0, 39, 25
1, 563822, Poly_aftertouch_c, 0, 39, 0
1, 563825, Note_on_c, 0, 44, 26
1, 563980, Note_off_c, 0, 44, 38
1, 564156, Note_on_c, 0, 48, 31
1, 564562, Note_off_c, 0, 48, 32
1, 564619, Note_on_c, 0, 51, 32
1, 564976, Note_off_c, 0, 51, 33
1, 564976, Poly_aftertouch_c, 0, 51, 0
1, 565092, Note_on_c, 0, 68, 45
1, 565152, Control_c, 0, 64, 117
1, 565158, Note_on_c, 0, 56, 34
1, 565171, Control_c, 0, 64, 107
1, 565189, Control_c, 0, 64, 95
1, 565209, Control_c, 0, 64, 84
1, 565227, Control_c, 0, 64, 79
1, 565245, Control_c, 0, 64, 83
1, 565265, Control_c, 0, 64, 88
1, 565282, Control_c, 0, 64, 96
1, 565303, Control_c, 0, 64, 104
1, 565320, Control_c, 0, 64, 114
1, 565339, Control_c, 0, 64, 123
1, 565359, Control_c, 0, 64, 127
1, 565371, Note_off_c, 0, 68, 51
1, 565391, Note_off_c, 0, 56, 36
1, 565676, Control_c, 0, 64, 123
1, 565696, Note_on_c, 0, 68, 40
1, 565711, Note_on_c, 0, 67, 37
1, 565712, Control_c, 0, 64, 118
1, 565732, Control_c, 0, 64, 114
1, 565747, Note_on_c, 0, 60, 32
1, 565750, Control_c, 0, 64, 109
1, 565769, Control_c, 0, 64, 103
1, 565788, Control_c, 0, 64, 96
1, 565807, Control_c, 0, 64, 87
1, 565826, Control_c, 0, 64, 76
1, 565843, Control_c, 0, 64, 65
1, 565863, Control_c, 0, 64, 54
1, 565881, Control_c, 0, 64, 43
1, 565899, Control_c, 0, 64, 36
1, 565937, Control_c, 0, 64, 44
1, 565955, Control_c, 0, 64, 51
1, 565974, Control_c, 0, 64, 61
1, 565993, Control_c, 0, 64, 73
1, 566012, Control_c, 0, 64, 84
1, 566031, Control_c, 0, 64, 95
1, 566044, Note_off_c, 0, 60, 52
1, 566044, Poly_aftertouch_c, 0, 60, 0
1, 566048, Control_c, 0, 64, 106
1, 566068, Control_c, 0, 64, 118
1, 566087, Control_c, 0, 64, 127
1, 566109, Note_off_c, 0, 67, 36
1, 566109, Poly_aftertouch_c, 0, 67, 0
1, 566119, Note_off_c, 0, 68, 37
1, 566437, Note_on_c, 0, 68, 34
1, 566462, Control_c, 0, 64, 121
1, 566465, Note_on_c, 0, 66, 31
1, 566480, Control_c, 0, 64, 116
1, 566497, Control_c, 0, 64, 112
1, 566517, Control_c, 0, 64, 107
1, 566535, Control_c, 0, 64, 101
1, 566554, Control_c, 0, 64, 94
1, 566573, Control_c, 0, 64, 84
1, 566592, Control_c, 0, 64, 74
1, 566611, Control_c, 0, 64, 64
1, 566628, Control_c, 0, 64, 56
1, 566648, Control_c, 0, 64, 46
1, 566666, Control_c, 0, 64, 34
1, 566703, Control_c, 0, 64, 40
1, 566722, Control_c, 0, 64, 48
1, 566741, Control_c, 0, 64, 58
1, 566759, Control_c, 0, 64, 69
1, 566780, Control_c, 0, 64, 77
1, 566797, Control_c, 0, 64, 84
1, 566817, Control_c, 0, 64, 93
1, 566835, Control_c, 0, 64, 102
1, 566854, Control_c, 0, 64, 111
1, 566872, Control_c, 0, 64, 118
1, 566891, Control_c, 0, 64, 124
1, 566963, Note_off_c, 0, 66, 41
1, 566970, Note_off_c, 0, 68, 42
1, 567431, Note_on_c, 0, 73, 40
1, 567460, Note_on_c, 0, 65, 29
1, 567490, Control_c, 0, 64, 118
1, 567527, Control_c, 0, 64, 113
1, 567545, Control_c, 0, 64, 109
1, 567547, Note_on_c, 0, 37, 24
1, 567564, Control_c, 0, 64, 103
1, 567583, Control_c, 0, 64, 96
1, 567601, Control_c, 0, 64, 89
1, 567621, Control_c, 0, 64, 81
1, 567638, Control_c, 0, 64, 73
1, 567657, Control_c, 0, 64, 64
1, 567677, Control_c, 0, 64, 55
1, 567695, Control_c, 0, 64, 40
1, 567714, Control_c, 0, 64, 20
1, 567732, Control_c, 0, 64, 14
1, 567752, Control_c, 0, 64, 26
1, 567769, Control_c, 0, 64, 37
1, 567789, Control_c, 0, 64, 49
1, 567807, Control_c, 0, 64, 62
1, 567826, Control_c, 0, 64, 73
1, 567844, Control_c, 0, 64, 81
1, 567863, Control_c, 0, 64, 89
1, 567881, Control_c, 0, 64, 99
1, 567900, Control_c, 0, 64, 110
1, 567918, Note_off_c, 0, 37, 40
1, 567918, Control_c, 0, 64, 120
1, 567938, Control_c, 0, 64, 126
1, 567944, Note_off_c, 0, 65, 31
1, 567944, Poly_aftertouch_c, 0, 65, 0
1, 568173, Note_off_c, 0, 73, 35
1, 568433, Note_on_c, 0, 78, 45
1, 568566, Poly_aftertouch_c, 0, 70, 127
1, 568826, Poly_aftertouch_c, 0, 70, 24
1, 568887, Poly_aftertouch_c, 0, 70, 0
1, 568918, Note_off_c, 0, 78, 36
1, 568999, Note_on_c, 0, 66, 37
1, 569033, Note_on_c, 0, 58, 30
1, 569338, Note_off_c, 0, 58, 32
1, 569338, Poly_aftertouch_c, 0, 58, 0
1, 569559, Note_off_c, 0, 66, 25
1, 569598, Note_on_c, 0, 65, 33
1, 569617, Note_on_c, 0, 56, 38
1, 569747, Note_off_c, 0, 65, 43
1, 569747, Poly_aftertouch_c, 0, 65, 0
1, 569784, Note_off_c, 0, 56, 53
1, 570227, Note_on_c, 0, 77, 46
1, 570265, Note_on_c, 0, 68, 29
1, 570346, Note_on_c, 0, 37, 30
1, 570387, Control_c, 0, 64, 116
1, 570406, Control_c, 0, 64, 105
1, 570425, Control_c, 0, 64, 91
1, 570444, Control_c, 0, 64, 73
1, 570462, Control_c, 0, 64, 57
1, 570480, Control_c, 0, 64, 43
1, 570500, Control_c, 0, 64, 34
1, 570537, Control_c, 0, 64, 45
1, 570555, Control_c, 0, 64, 54
1, 570576, Control_c, 0, 64, 65
1, 570592, Control_c, 0, 64, 75
1, 570612, Control_c, 0, 64, 85
1, 570631, Control_c, 0, 64, 97
1, 570639, Note_off_c, 0, 37, 45
1, 570649, Control_c, 0, 64, 110
1, 570668, Control_c, 0, 64, 121
1, 570686, Control_c, 0, 64, 127
1, 570706, Note_off_c, 0, 68, 42
1, 570818, Note_off_c, 0, 77, 37
1, 570954, Note_on_c, 0, 75, 44
1, 570967, Note_on_c, 0, 66, 34
1, 571302, Note_off_c, 0, 66, 36
1, 571362, Note_off_c, 0, 75, 35
1, 571467, Note_on_c, 0, 54, 25
1, 571483, Note_on_c, 0, 63, 32
1, 571794, Note_off_c, 0, 54, 36
1, 571837, Note_off_c, 0, 63, 39
1, 571915, Note_on_c, 0, 56, 35
1, 571920, Note_on_c, 0, 65, 37
1, 571997, Note_off_c, 0, 65, 60
1, 571997, Poly_aftertouch_c, 0, 65, 0
1, 572014, Note_off_c, 0, 56, 56
1, 572386, Note_on_c, 0, 77, 54
1, 572428, Note_on_c, 0, 68, 35
1, 572444, Control_c, 0, 64, 122
1, 572462, Note_on_c, 0, 37, 34
1, 572462, Control_c, 0, 64, 116
1, 572482, Control_c, 0, 64, 108
1, 572500, Control_c, 0, 64, 99
1, 572520, Control_c, 0, 64, 84
1, 572538, Control_c, 0, 64, 66
1, 572556, Control_c, 0, 64, 51
1, 572576, Control_c, 0, 64, 36
1, 572613, Control_c, 0, 64, 49
1, 572631, Control_c, 0, 64, 64
1, 572651, Control_c, 0, 64, 77
1, 572652, Control_c, 0, 67, 121
1, 572668, Control_c, 0, 64, 90
1, 572687, Control_c, 0, 64, 108
1, 572706, Control_c, 0, 64, 127
1, 572724, Note_off_c, 0, 37, 50
1, 572830, Note_off_c, 0, 68, 43
1, 572945, Note_on_c, 0, 73, 39
1, 572986, Note_on_c, 0, 65, 24
1, 573043, Control_c, 0, 67, 117
1, 573059, Note_off_c, 0, 77, 23
1, 573259, Note_off_c, 0, 65, 39
1, 573259, Poly_aftertouch_c, 0, 65, 0
1, 573341, Note_off_c, 0, 73, 34
1, 573353, Note_on_c, 0, 61, 36
1, 573355, Note_on_c, 0, 53, 30
1, 573573, Note_off_c, 0, 53, 41
1, 573573, Poly_aftertouch_c, 0, 53, 0
1, 573632, Note_off_c, 0, 61, 37
1, 573748, Note_on_c, 0, 63, 40
1, 573755, Note_on_c, 0, 54, 34
1, 573810, Note_off_c, 0, 63, 58
1, 573826, Note_off_c, 0, 54, 55
1, 574173, Note_on_c, 0, 75, 51
1, 574203, Note_on_c, 0, 66, 35
1, 574221, Control_c, 0, 64, 118
1, 574238, Control_c, 0, 64, 102
1, 574243, Note_on_c, 0, 37, 41
1, 574259, Control_c, 0, 64, 81
1, 574277, Control_c, 0, 64, 58
1, 574295, Control_c, 0, 64, 36
1, 574333, Control_c, 0, 64, 47
1, 574351, Control_c, 0, 64, 66
1, 574372, Control_c, 0, 64, 85
1, 574389, Control_c, 0, 64, 108
1, 574395, Note_off_c, 0, 66, 57
1, 574407, Control_c, 0, 64, 127
1, 574410, Note_off_c, 0, 75, 48
1, 574418, Note_off_c, 0, 37, 54
1, 574425, Control_c, 0, 67, 112
1, 574465, Control_c, 0, 67, 108
1, 574521, Control_c, 0, 67, 103
1, 574575, Control_c, 0, 67, 99
1, 574632, Control_c, 0, 67, 95
1, 574672, Note_on_c, 0, 68, 36
1, 574687, Control_c, 0, 67, 91
1, 574693, Note_on_c, 0, 60, 31
1, 574763, Control_c, 0, 67, 87
1, 574837, Control_c, 0, 67, 82
1, 574875, Control_c, 0, 67, 78
1, 574897, Note_off_c, 0, 60, 36
1, 574897, Poly_aftertouch_c, 0, 60, 0
1, 574932, Control_c, 0, 67, 73
1, 574948, Note_off_c, 0, 68, 41
1, 575024, Control_c, 0, 67, 68
1, 575081, Control_c, 0, 67, 63
1, 575119, Control_c, 0, 67, 59
1, 575155, Control_c, 0, 67, 52
1, 575193, Control_c, 0, 67, 44
1, 575206, Note_on_c, 0, 56, 32
1, 575210, Control_c, 0, 67, 40
1, 575229, Control_c, 0, 67, 35
1, 575232, Note_on_c, 0, 49, 32
1, 575249, Control_c, 0, 67, 29
1, 575268, Control_c, 0, 67, 22
1, 575286, Control_c, 0, 67, 14
1, 575360, Control_c, 0, 67, 0
1, 575364, Note_off_c, 0, 49, 43
1, 575364, Poly_aftertouch_c, 0, 49, 0
1, 575433, Note_off_c, 0, 56, 42
1, 576254, Note_on_c, 0, 73, 49
1, 576277, Control_c, 0, 64, 121
1, 576282, Note_on_c, 0, 65, 36
1, 576296, Control_c, 0, 64, 108
1, 576314, Control_c, 0, 64, 91
1, 576334, Control_c, 0, 64, 70
1, 576347, Note_on_c, 0, 37, 19
1, 576350, Control_c, 0, 64, 52
1, 576371, Control_c, 0, 64, 38
1, 576408, Control_c, 0, 64, 41
1, 576427, Control_c, 0, 64, 51
1, 576445, Control_c, 0, 64, 64
1, 576465, Control_c, 0, 64, 78
1, 576484, Control_c, 0, 64, 95
1, 576501, Control_c, 0, 64, 119
1, 576520, Control_c, 0, 64, 127
1, 576572, Note_off_c, 0, 65, 39
1, 576572, Poly_aftertouch_c, 0, 65, 0
1, 576589, Poly_aftertouch_c, 0, 37, 20
1, 576591, Note_off_c, 0, 37, 39
1, 576591, Poly_aftertouch_c, 0, 37, 0
1, 576972, Note_on_c, 0, 80, 57
1, 577034, Note_on_c, 0, 71, 31
1, 577213, Control_c, 0, 67, 8
1, 577268, Control_c, 0, 67, 13
1, 577306, Control_c, 0, 67, 22
1, 577324, Control_c, 0, 67, 29
1, 577327, Note_off_c, 0, 73, 32
1, 577343, Control_c, 0, 67, 37
1, 577362, Control_c, 0, 67, 43
1, 577380, Control_c, 0, 67, 49
1, 577401, Control_c, 0, 67, 53
1, 577417, Control_c, 0, 67, 57
1, 577420, Note_off_c, 0, 71, 34
1, 577420, Poly_aftertouch_c, 0, 71, 0
1, 577425, Note_on_c, 0, 68, 36
1, 577444, Note_on_c, 0, 59, 38
1, 577456, Control_c, 0, 67, 64
1, 577494, Control_c, 0, 67, 69
1, 577531, Control_c, 0, 67, 74
1, 577568, Control_c, 0, 67, 81
1, 577586, Control_c, 0, 67, 85
1, 577595, Note_off_c, 0, 59, 44
1, 577595, Poly_aftertouch_c, 0, 59, 0
1, 577624, Control_c, 0, 67, 91
1, 577653, Note_off_c, 0, 80, 62
1, 577653, Poly_aftertouch_c, 0, 80, 0
1, 577660, Control_c, 0, 67, 95
1, 577834, Note_on_c, 0, 58, 43
1, 577841, Note_on_c, 0, 66, 42
1, 577889, Note_off_c, 0, 68, 39
1, 577904, Note_off_c, 0, 66, 57
1, 577935, Note_off_c, 0, 58, 53
1, 577935, Poly_aftertouch_c, 0, 58, 0
1, 578053, Control_c, 0, 67, 100
1, 578338, Note_on_c, 0, 78, 53
1, 578374, Note_on_c, 0, 70, 37
1, 578425, Note_on_c, 0, 37, 28
1, 578465, Control_c, 0, 64, 114
1, 578484, Control_c, 0, 64, 100
1, 578503, Control_c, 0, 64, 80
1, 578521, Control_c, 0, 64, 58
1, 578540, Control_c, 0, 64, 36
1, 578559, Control_c, 0, 64, 20
1, 578577, Control_c, 0, 64, 28
1, 578596, Control_c, 0, 64, 44
1, 578614, Control_c, 0, 64, 61
1, 578635, Control_c, 0, 64, 77
1, 578653, Control_c, 0, 64, 92
1, 578655, Control_c, 0, 67, 105
1, 578672, Control_c, 0, 64, 112
1, 578691, Control_c, 0, 64, 127
1, 578692, Control_c, 0, 67, 111
1, 578706, Note_off_c, 0, 37, 40
1, 578706, Poly_aftertouch_c, 0, 37, 0
1, 578726, Control_c, 0, 67, 116
1, 578802, Control_c, 0, 67, 121
1, 578895, Control_c, 0, 67, 125
1, 578900, Note_on_c, 0, 75, 49
1, 578943, Note_on_c, 0, 66, 27
1, 579055, Note_off_c, 0, 70, 39
1, 579131, Note_off_c, 0, 78, 34
1, 579309, Note_on_c, 0, 54, 32
1, 579316, Note_on_c, 0, 63, 38
1, 579451, Note_off_c, 0, 66, 38
1, 579562, Note_off_c, 0, 75, 53
1, 579616, Note_off_c, 0, 63, 53
1, 579681, Note_on_c, 0, 65, 43
1, 579698, Note_on_c, 0, 56, 41
1, 579746, Note_off_c, 0, 65, 58
1, 579746, Poly_aftertouch_c, 0, 65, 0
1, 579755, Note_off_c, 0, 54, 39
1, 579770, Note_off_c, 0, 56, 55
1, 580054, Control_c, 0, 67, 121
1, 580112, Note_on_c, 0, 77, 59
1, 580177, Note_on_c, 0, 68, 26
1, 580184, Control_c, 0, 64, 122
1, 580187, Note_on_c, 0, 37, 42
1, 580204, Control_c, 0, 64, 117
1, 580223, Control_c, 0, 64, 109
1, 580242, Control_c, 0, 64, 96
1, 580260, Control_c, 0, 64, 74
1, 580280, Control_c, 0, 64, 48
1, 580298, Control_c, 0, 64, 0
1, 580317, Control_c, 0, 67, 117
1, 580335, Control_c, 0, 64, 25
1, 580354, Control_c, 0, 64, 50
1, 580373, Control_c, 0, 64, 73
1, 580392, Control_c, 0, 64, 92
1, 580410, Control_c, 0, 64, 116
1, 580414, Note_off_c, 0, 37, 59
1, 580414, Poly_aftertouch_c, 0, 37, 0
1, 580429, Control_c, 0, 64, 127
1, 580559, Note_off_c, 0, 68, 43
1, 580559, Note_on_c, 0, 73, 47
1, 580588, Note_on_c, 0, 65, 29
1, 580737, Note_off_c, 0, 77, 38
1, 580833, Note_off_c, 0, 65, 40
1, 580833, Poly_aftertouch_c, 0, 65, 0
1, 580900, Note_off_c, 0, 73, 36
1, 580924, Note_on_c, 0, 61, 42
1, 580929, Note_on_c, 0, 53, 39
1, 581225, Note_off_c, 0, 61, 51
1, 581254, Note_off_c, 0, 53, 33
1, 581254, Poly_aftertouch_c, 0, 53, 0
1, 581302, Note_on_c, 0, 54, 37
1, 581311, Note_on_c, 0, 63, 44
1, 581373, Note_off_c, 0, 63, 59
1, 581386, Note_off_c, 0, 54, 54
1, 581531, Control_c, 0, 67, 121
1, 581753, Note_on_c, 0, 72, 48
1, 581775, Control_c, 0, 67, 125
1, 581788, Note_on_c, 0, 63, 33
1, 581821, Note_on_c, 0, 37, 33
1, 581829, Control_c, 0, 64, 122
1, 581850, Control_c, 0, 64, 107
1, 581868, Control_c, 0, 64, 88
1, 581887, Control_c, 0, 64, 65
1, 581906, Control_c, 0, 64, 36
1, 581925, Control_c, 0, 64, 0
1, 581981, Control_c, 0, 64, 31
1, 582000, Control_c, 0, 64, 56
1, 582018, Control_c, 0, 64, 75
1, 582022, Note_off_c, 0, 37, 57
1, 582022, Poly_aftertouch_c, 0, 37, 0
1, 582037, Control_c, 0, 64, 91
1, 582056, Control_c, 0, 64, 112
1, 582074, Control_c, 0, 64, 127
1, 582148, Control_c, 0, 67, 121
1, 582171, Note_on_c, 0, 73, 46
1, 582206, Note_on_c, 0, 65, 44
1, 582287, Note_off_c, 0, 72, 21
1, 582287, Poly_aftertouch_c, 0, 72, 0
1, 582294, Note_off_c, 0, 63, 38
1, 582296, Control_c, 0, 67, 117
1, 582332, Note_off_c, 0, 65, 52
1, 582332, Poly_aftertouch_c, 0, 65, 0
1, 582394, Note_off_c, 0, 73, 36
1, 582429, Control_c, 0, 67, 113
1, 582491, Note_on_c, 0, 49, 39
1, 582541, Control_c, 0, 67, 109
1, 582581, Note_on_c, 0, 53, 43
1, 582654, Control_c, 0, 67, 105
1, 582662, Note_on_c, 0, 56, 46
1, 582762, Note_on_c, 0, 61, 48
1, 582765, Control_c, 0, 64, 119
1, 582784, Control_c, 0, 64, 105
1, 582803, Control_c, 0, 64, 89
1, 582821, Control_c, 0, 64, 72
1, 582841, Control_c, 0, 64, 59
1, 582860, Control_c, 0, 64, 55
1, 582878, Control_c, 0, 64, 58
1, 582897, Control_c, 0, 64, 66
1, 582915, Control_c, 0, 64, 73
1, 582935, Control_c, 0, 64, 84
1, 582952, Control_c, 0, 64, 102
1, 582972, Control_c, 0, 64, 127
1, 583056, Note_off_c, 0, 61, 58
1, 583091, Poly_aftertouch_c, 0, 53, 24
1, 583106, Note_off_c, 0, 56, 47
1, 583179, Note_off_c, 0, 53, 21
1, 583179, Poly_aftertouch_c, 0, 53, 0
1, 583183, Note_off_c, 0, 49, 33
1, 583183, Poly_aftertouch_c, 0, 49, 0
1, 583197, Control_c, 0, 67, 101
1, 583605, Note_on_c, 0, 65, 34
1, 583644, Control_c, 0, 67, 97
1, 583754, Note_on_c, 0, 73, 45
1, 583869, Control_c, 0, 64, 123
1, 583889, Control_c, 0, 64, 118
1, 583893, Note_on_c, 0, 37, 38
1, 583900, Note_off_c, 0, 65, 30
1, 583900, Poly_aftertouch_c, 0, 65, 0
1, 583908, Control_c, 0, 64, 111
1, 583925, Control_c, 0, 64, 101
1, 583944, Control_c, 0, 64, 90
1, 583963, Control_c, 0, 64, 78
1, 583981, Control_c, 0, 64, 67
1, 584000, Control_c, 0, 64, 56
1, 584018, Control_c, 0, 64, 41
1, 584038, Control_c, 0, 64, 11
1, 584056, Control_c, 0, 64, 0
1, 584076, Control_c, 0, 64, 16
1, 584093, Note_on_c, 0, 80, 65
1, 584096, Control_c, 0, 64, 28
1, 584113, Control_c, 0, 64, 40
1, 584131, Control_c, 0, 64, 53
1, 584149, Control_c, 0, 64, 67
1, 584169, Control_c, 0, 64, 80
1, 584187, Control_c, 0, 64, 94
1, 584206, Control_c, 0, 64, 111
1, 584224, Control_c, 0, 64, 127
1, 584308, Note_off_c, 0, 37, 54
1, 584308, Poly_aftertouch_c, 0, 37, 0
1, 584655, Control_c, 0, 67, 101
1, 584729, Control_c, 0, 67, 106
1, 584768, Note_on_c, 0, 78, 44
1, 584805, Note_on_c, 0, 70, 29
1, 584822, Control_c, 0, 67, 110
1, 584973, Control_c, 0, 67, 114
1, 584979, Note_off_c, 0, 73, 27
1, 585102, Control_c, 0, 67, 119
1, 585146, Note_on_c, 0, 66, 45
1, 585214, Note_on_c, 0, 58, 27
1, 585253, Control_c, 0, 67, 123
1, 585347, Note_off_c, 0, 78, 34
1, 585413, Note_off_c, 0, 70, 44
1, 585509, Poly_aftertouch_c, 0, 58, 20
1, 585522, Note_on_c, 0, 65, 44
1, 585552, Note_on_c, 0, 56, 39
1, 585585, Note_off_c, 0, 66, 51
1, 585597, Note_off_c, 0, 58, 19
1, 585597, Poly_aftertouch_c, 0, 58, 0
1, 585607, Note_off_c, 0, 65, 58
1, 585607, Poly_aftertouch_c, 0, 65, 0
1, 585630, Note_off_c, 0, 56, 50
1, 585657, Note_on_c, 0, 68, 51
1, 585662, Control_c, 0, 67, 119
1, 585727, Note_off_c, 0, 80, 34
1, 585727, Poly_aftertouch_c, 0, 80, 0
1, 585759, Note_on_c, 0, 77, 53
1, 585794, Control_c, 0, 67, 115
1, 585907, Control_c, 0, 67, 111
1, 586017, Note_on_c, 0, 80, 74
1, 586019, Control_c, 0, 67, 107
1, 586077, Control_c, 0, 67, 102
1, 586094, Control_c, 0, 64, 120
1, 586106, Note_on_c, 0, 37, 41
1, 586110, Control_c, 0, 64, 111
1, 586133, Control_c, 0, 64, 97
1, 586134, Control_c, 0, 67, 97
1, 586151, Control_c, 0, 64, 74
1, 586162, Note_off_c, 0, 77, 39
1, 586168, Control_c, 0, 64, 49
1, 586170, Control_c, 0, 67, 93
1, 586187, Control_c, 0, 64, 13
1, 586207, Control_c, 0, 64, 17
1, 586208, Control_c, 0, 67, 88
1, 586225, Control_c, 0, 64, 41
1, 586226, Control_c, 0, 67, 84
1, 586243, Control_c, 0, 64, 63
1, 586263, Control_c, 0, 64, 82
1, 586265, Control_c, 0, 67, 77
1, 586283, Control_c, 0, 64, 103
1, 586299, Control_c, 0, 64, 127
1, 586300, Control_c, 0, 67, 72
1, 586312, Note_off_c, 0, 37, 57
1, 586312, Poly_aftertouch_c, 0, 37, 0
1, 586327, Note_off_c, 0, 68, 39
1, 586356, Control_c, 0, 67, 67
1, 586412, Control_c, 0, 67, 63
1, 586512, Note_on_c, 0, 75, 47
1, 586572, Note_on_c, 0, 66, 35
1, 586636, Control_c, 0, 67, 59
1, 586729, Control_c, 0, 67, 55
1, 586841, Control_c, 0, 67, 50
1, 586861, Note_on_c, 0, 63, 46
1, 586880, Note_on_c, 0, 54, 41
1, 586898, Control_c, 0, 67, 44
1, 586936, Control_c, 0, 67, 40
1, 586950, Note_off_c, 0, 66, 36
1, 587108, Note_off_c, 0, 75, 38
1, 587185, Note_off_c, 0, 63, 58
1, 587201, Note_on_c, 0, 65, 45
1, 587216, Note_on_c, 0, 56, 43
1, 587236, Note_off_c, 0, 65, 56
1, 587236, Poly_aftertouch_c, 0, 65, 0
1, 587238, Note_off_c, 0, 54, 45
1, 587264, Note_off_c, 0, 56, 62
1, 587293, Note_off_c, 0, 80, 38
1, 587293, Poly_aftertouch_c, 0, 80, 0
1, 587312, Note_on_c, 0, 68, 49
1, 587401, Note_on_c, 0, 77, 56
1, 587567, Note_on_c, 0, 80, 72
1, 587591, Control_c, 0, 64, 122
1, 587609, Control_c, 0, 64, 95
1, 587627, Control_c, 0, 64, 66
1, 587630, Note_on_c, 0, 37, 44
1, 587646, Control_c, 0, 64, 42
1, 587656, Note_off_c, 0, 77, 53
1, 587664, Control_c, 0, 64, 36
1, 587684, Control_c, 0, 64, 52
1, 587702, Control_c, 0, 64, 73
1, 587721, Control_c, 0, 64, 97
1, 587740, Control_c, 0, 64, 127
1, 587800, Note_off_c, 0, 68, 60
1, 587805, Note_off_c, 0, 37, 59
1, 587805, Poly_aftertouch_c, 0, 37, 0
1, 587894, Note_off_c, 0, 80, 57
1, 587894, Poly_aftertouch_c, 0, 80, 0
1, 587946, Control_c, 0, 67, 35
1, 587983, Note_on_c, 0, 73, 49
1, 587983, Control_c, 0, 67, 30
1, 587993, Note_on_c, 0, 65, 45
1, 588020, Control_c, 0, 67, 24
1, 588057, Control_c, 0, 67, 16
1, 588076, Control_c, 0, 67, 10
1, 588151, Control_c, 0, 67, 0
1, 588277, Poly_aftertouch_c, 0, 75, 0
1, 588325, Note_on_c, 0, 61, 51
1, 588329, Note_on_c, 0, 53, 46
1, 588340, Note_off_c, 0, 65, 38
1, 588340, Poly_aftertouch_c, 0, 65, 0
1, 588390, Note_off_c, 0, 73, 61
1, 588629, Note_off_c, 0, 53, 56
1, 588629, Poly_aftertouch_c, 0, 53, 0
1, 588634, Note_off_c, 0, 61, 61
1, 588653, Note_on_c, 0, 63, 49
1, 588660, Note_on_c, 0, 54, 46
1, 588693, Note_off_c, 0, 63, 63
1, 588707, Note_off_c, 0, 54, 62
1, 588744, Note_on_c, 0, 66, 55
1, 588860, Note_on_c, 0, 75, 54
1, 589048, Control_c, 0, 64, 111
1, 589062, Note_on_c, 0, 80, 70
1, 589066, Control_c, 0, 64, 88
1, 589089, Control_c, 0, 64, 65
1, 589098, Note_on_c, 0, 37, 42
1, 589105, Control_c, 0, 64, 48
1, 589123, Control_c, 0, 64, 44
1, 589142, Control_c, 0, 64, 56
1, 589161, Control_c, 0, 64, 74
1, 589180, Control_c, 0, 64, 97
1, 589197, Note_off_c, 0, 37, 60
1, 589197, Poly_aftertouch_c, 0, 37, 0
1, 589197, Control_c, 0, 64, 127
1, 589198, Note_off_c, 0, 66, 48
1, 589477, Note_on_c, 0, 68, 54
1, 589507, Note_on_c, 0, 60, 50
1, 589677, Note_off_c, 0, 68, 57
1, 589693, Note_off_c, 0, 60, 51
1, 589693, Note_off_c, 0, 80, 53
1, 589693, Poly_aftertouch_c, 0, 60, 0
1, 589693, Poly_aftertouch_c, 0, 80, 0
1, 589702, Note_off_c, 0, 75, 36
1, 589932, Note_on_c, 0, 56, 54
1, 589940, Note_on_c, 0, 49, 50
1, 590247, Note_off_c, 0, 56, 56
1, 590307, Note_off_c, 0, 49, 46
1, 590307, Poly_aftertouch_c, 0, 49, 0
1, 590771, Control_c, 0, 64, 107
1, 590788, Control_c, 0, 64, 84
1, 590797, Note_on_c, 0, 73, 62
1, 590805, Control_c, 0, 64, 62
1, 590825, Control_c, 0, 64, 47
1, 590833, Note_on_c, 0, 65, 45
1, 590844, Control_c, 0, 64, 42
1, 590862, Control_c, 0, 64, 52
1, 590870, Note_on_c, 0, 37, 40
1, 590881, Control_c, 0, 64, 70
1, 590900, Control_c, 0, 64, 92
1, 590920, Control_c, 0, 64, 125
1, 590949, Note_off_c, 0, 65, 59
1, 590949, Poly_aftertouch_c, 0, 65, 0
1, 590998, Note_off_c, 0, 73, 62
1, 591119, Note_off_c, 0, 37, 54
1, 591119, Poly_aftertouch_c, 0, 37, 0
1, 591246, Note_on_c, 0, 71, 40
1, 591296, Note_on_c, 0, 80, 53
1, 591394, Note_off_c, 0, 71, 29
1, 591394, Poly_aftertouch_c, 0, 71, 0
1, 591489, Note_on_c, 0, 85, 76
1, 591604, Note_off_c, 0, 80, 56
1, 591604, Poly_aftertouch_c, 0, 80, 0
1, 591872, Note_on_c, 0, 68, 43
1, 591895, Note_on_c, 0, 59, 36
1, 592095, Note_off_c, 0, 59, 33
1, 592095, Poly_aftertouch_c, 0, 59, 0
1, 592261, Note_on_c, 0, 58, 45
1, 592266, Note_on_c, 0, 66, 40
1, 592324, Note_off_c, 0, 68, 45
1, 592327, Note_off_c, 0, 66, 59
1, 592353, Note_off_c, 0, 58, 52
1, 592353, Poly_aftertouch_c, 0, 58, 0
1, 592358, Control_c, 0, 67, 10
1, 592396, Control_c, 0, 67, 16
1, 592415, Control_c, 0, 67, 21
1, 592433, Control_c, 0, 67, 28
1, 592452, Control_c, 0, 67, 39
1, 592470, Control_c, 0, 67, 49
1, 592489, Control_c, 0, 67, 56
1, 592508, Control_c, 0, 67, 61
1, 592511, Note_off_c, 0, 85, 29
1, 592526, Control_c, 0, 67, 65
1, 592544, Control_c, 0, 67, 69
1, 592583, Control_c, 0, 67, 74
1, 592753, Note_on_c, 0, 78, 59
1, 592787, Note_on_c, 0, 70, 48
1, 592807, Control_c, 0, 64, 120
1, 592827, Control_c, 0, 64, 94
1, 592834, Note_on_c, 0, 37, 40
1, 592845, Control_c, 0, 64, 67
1, 592863, Control_c, 0, 64, 48
1, 592901, Control_c, 0, 64, 61
1, 592919, Control_c, 0, 64, 78
1, 592927, Note_off_c, 0, 37, 57
1, 592927, Poly_aftertouch_c, 0, 37, 0
1, 592938, Control_c, 0, 64, 96
1, 592956, Control_c, 0, 64, 122
1, 592975, Control_c, 0, 64, 127
1, 593072, Note_off_c, 0, 70, 39
1, 593214, Note_off_c, 0, 78, 37
1, 593333, Note_on_c, 0, 66, 37
1, 593406, Note_on_c, 0, 75, 53
1, 593489, Note_on_c, 0, 85, 71
1, 593644, Note_off_c, 0, 66, 35
1, 593724, Control_c, 0, 67, 79
1, 593760, Control_c, 0, 67, 84
1, 593835, Control_c, 0, 67, 89
1, 593844, Note_on_c, 0, 63, 36
1, 593852, Note_on_c, 0, 54, 33
1, 593891, Control_c, 0, 67, 95
1, 593910, Control_c, 0, 67, 99
1, 593929, Control_c, 0, 67, 103
1, 593948, Control_c, 0, 64, 117
1, 593948, Control_c, 0, 67, 107
1, 593966, Control_c, 0, 64, 101
1, 593986, Control_c, 0, 64, 90
1, 593987, Control_c, 0, 67, 111
1, 594022, Control_c, 0, 64, 95
1, 594042, Control_c, 0, 64, 107
1, 594060, Control_c, 0, 64, 120
1, 594061, Control_c, 0, 67, 115
1, 594079, Control_c, 0, 64, 127
1, 594135, Control_c, 0, 67, 119
1, 594169, Note_off_c, 0, 85, 61
1, 594182, Note_off_c, 0, 63, 37
1, 594246, Note_on_c, 0, 65, 40
1, 594252, Note_on_c, 0, 56, 39
1, 594267, Note_off_c, 0, 54, 35
1, 594284, Control_c, 0, 67, 123
1, 594302, Note_off_c, 0, 65, 62
1, 594302, Poly_aftertouch_c, 0, 65, 0
1, 594320, Note_off_c, 0, 56, 55
1, 594364, Note_off_c, 0, 75, 38
1, 594396, Control_c, 0, 67, 127
1, 594693, Note_on_c, 0, 77, 53
1, 594741, Note_on_c, 0, 68, 27
1, 594752, Control_c, 0, 64, 112
1, 594770, Control_c, 0, 64, 87
1, 594788, Control_c, 0, 64, 62
1, 594790, Note_on_c, 0, 37, 28
1, 594808, Control_c, 0, 64, 46
1, 594826, Control_c, 0, 64, 51
1, 594847, Control_c, 0, 64, 64
1, 594864, Control_c, 0, 64, 79
1, 594883, Control_c, 0, 64, 93
1, 594898, Note_off_c, 0, 37, 57
1, 594898, Poly_aftertouch_c, 0, 37, 0
1, 594901, Control_c, 0, 64, 112
1, 594920, Control_c, 0, 64, 127
1, 594925, Note_off_c, 0, 68, 45
1, 594983, Note_off_c, 0, 77, 61
1, 595126, Control_c, 0, 67, 123
1, 595299, Note_on_c, 0, 65, 38
1, 595304, Note_on_c, 0, 73, 46
1, 595415, Note_on_c, 0, 85, 63
1, 595572, Note_off_c, 0, 65, 37
1, 595572, Poly_aftertouch_c, 0, 65, 0
1, 595757, Note_off_c, 0, 85, 48
1, 595765, Note_on_c, 0, 61, 34
1, 595769, Note_on_c, 0, 53, 33
1, 595798, Control_c, 0, 67, 127
1, 595868, Note_off_c, 0, 53, 48
1, 595868, Poly_aftertouch_c, 0, 53, 0
1, 595901, Note_off_c, 0, 73, 56
1, 595980, Note_off_c, 0, 61, 38
1, 596163, Note_on_c, 0, 63, 39
1, 596184, Note_on_c, 0, 54, 32
1, 596251, Note_off_c, 0, 63, 59
1, 596258, Note_off_c, 0, 54, 56
1, 596433, Note_on_c, 0, 63, 39
1, 596507, Note_off_c, 0, 63, 57
1, 596551, Note_on_c, 0, 72, 41
1, 596655, Note_on_c, 0, 80, 55
1, 596770, Note_on_c, 0, 37, 37
1, 596770, Control_c, 0, 64, 123
1, 596790, Control_c, 0, 64, 105
1, 596809, Control_c, 0, 64, 82
1, 596828, Control_c, 0, 64, 57
1, 596845, Control_c, 0, 64, 38
1, 596883, Control_c, 0, 64, 48
1, 596902, Control_c, 0, 64, 64
1, 596920, Control_c, 0, 64, 78
1, 596940, Control_c, 0, 64, 91
1, 596959, Control_c, 0, 64, 106
1, 596977, Control_c, 0, 64, 121
1, 596995, Control_c, 0, 64, 127
1, 597005, Note_off_c, 0, 37, 51
1, 597005, Poly_aftertouch_c, 0, 37, 0
1, 597030, Note_off_c, 0, 80, 35
1, 597030, Poly_aftertouch_c, 0, 80, 0
1, 597032, Control_c, 0, 67, 123
1, 597132, Note_off_c, 0, 72, 35
1, 597132, Poly_aftertouch_c, 0, 72, 0
1, 597267, Note_on_c, 0, 73, 38
1, 597297, Note_on_c, 0, 65, 29
1, 597332, Control_c, 0, 67, 119
1, 597453, Note_off_c, 0, 73, 53
1, 597495, Note_off_c, 0, 65, 39
1, 597495, Poly_aftertouch_c, 0, 65, 0
1, 597683, Note_on_c, 0, 49, 33
1, 597756, Note_on_c, 0, 53, 37
1, 597846, Note_on_c, 0, 56, 33
1, 597914, Note_on_c, 0, 61, 38
1, 597969, Control_c, 0, 64, 122
1, 597986, Control_c, 0, 64, 116
1, 598005, Control_c, 0, 64, 108
1, 598024, Control_c, 0, 64, 99
1, 598043, Control_c, 0, 64, 89
1, 598061, Control_c, 0, 64, 79
1, 598080, Control_c, 0, 64, 69
1, 598099, Control_c, 0, 64, 61
1, 598117, Control_c, 0, 64, 55
1, 598136, Control_c, 0, 64, 52
1, 598174, Control_c, 0, 64, 56
1, 598192, Control_c, 0, 64, 59
1, 598210, Control_c, 0, 64, 63
1, 598230, Control_c, 0, 64, 68
1, 598248, Control_c, 0, 64, 74
1, 598267, Control_c, 0, 64, 81
1, 598286, Control_c, 0, 64, 89
1, 598305, Control_c, 0, 64, 98
1, 598323, Control_c, 0, 64, 108
1, 598342, Control_c, 0, 64, 119
1, 598362, Control_c, 0, 64, 127
1, 598378, Poly_aftertouch_c, 0, 53, 24
1, 598472, Note_off_c, 0, 53, 29
1, 598472, Poly_aftertouch_c, 0, 53, 0
1, 598499, Note_off_c, 0, 56, 35
1, 598634, Note_off_c, 0, 49, 35
1, 598634, Poly_aftertouch_c, 0, 49, 0
1, 598735, Note_off_c, 0, 61, 39
1, 599481, Note_on_c, 0, 70, 36
1, 599497, Note_on_c, 0, 61, 25
1, 599569, Note_on_c, 0, 34, 34
1, 599594, Control_c, 0, 67, 123
1, 599614, Control_c, 0, 64, 122
1, 599632, Control_c, 0, 64, 117
1, 599651, Control_c, 0, 64, 108
1, 599671, Control_c, 0, 64, 94
1, 599688, Control_c, 0, 64, 76
1, 599708, Control_c, 0, 64, 60
1, 599726, Control_c, 0, 64, 53
1, 599763, Control_c, 0, 64, 60
1, 599782, Control_c, 0, 64, 69
1, 599800, Control_c, 0, 64, 78
1, 599819, Control_c, 0, 64, 88
1, 599838, Control_c, 0, 64, 101
1, 599856, Control_c, 0, 64, 117
1, 599874, Control_c, 0, 64, 127
1, 599908, Note_off_c, 0, 34, 41
1, 600041, Note_off_c, 0, 61, 41
1, 600073, Note_off_c, 0, 70, 39
1, 600357, Note_on_c, 0, 73, 34
1, 600359, Note_on_c, 0, 65, 31
1, 600704, Note_off_c, 0, 65, 39
1, 600704, Poly_aftertouch_c, 0, 65, 0
1, 600764, Note_off_c, 0, 73, 38
1, 600765, Note_on_c, 0, 61, 35
1, 600784, Note_on_c, 0, 53, 32
1, 601158, Note_on_c, 0, 63, 38
1, 601166, Note_on_c, 0, 58, 37
1, 601204, Note_off_c, 0, 61, 36
1, 601224, Poly_aftertouch_c, 0, 53, 20
1, 601231, Note_off_c, 0, 53, 35
1, 601231, Poly_aftertouch_c, 0, 53, 0
1, 601237, Note_off_c, 0, 63, 59
1, 601260, Note_off_c, 0, 58, 56
1, 601260, Poly_aftertouch_c, 0, 58, 0
1, 601649, Note_on_c, 0, 77, 47
1, 601667, Note_on_c, 0, 68, 38
1, 601715, Note_on_c, 0, 41, 36
1, 601783, Control_c, 0, 64, 117
1, 601801, Control_c, 0, 64, 100
1, 601821, Control_c, 0, 64, 76
1, 601838, Control_c, 0, 64, 49
1, 601875, Control_c, 0, 64, 0
1, 601895, Control_c, 0, 64, 20
1, 601913, Control_c, 0, 64, 44
1, 601933, Control_c, 0, 64, 67
1, 601950, Control_c, 0, 64, 84
1, 601969, Control_c, 0, 64, 102
1, 601989, Control_c, 0, 64, 125
1, 601994, Note_off_c, 0, 41, 57
1, 601994, Poly_aftertouch_c, 0, 41, 0
1, 602175, Note_off_c, 0, 68, 32
1, 602228, Note_on_c, 0, 72, 27
1, 602248, Note_on_c, 0, 65, 20
1, 602332, Poly_aftertouch_c, 0, 77, 24
1, 602390, Note_off_c, 0, 77, 37
1, 602390, Poly_aftertouch_c, 0, 77, 0
1, 602430, Note_off_c, 0, 65, 41
1, 602430, Poly_aftertouch_c, 0, 65, 0
1, 602455, Note_off_c, 0, 72, 38
1, 602455, Poly_aftertouch_c, 0, 72, 0
1, 602589, Note_on_c, 0, 65, 36
1, 602606, Note_on_c, 0, 56, 30
1, 602717, Control_c, 0, 67, 119
1, 602828, Note_off_c, 0, 56, 36
1, 602867, Control_c, 0, 67, 115
1, 602914, Note_off_c, 0, 65, 27
1, 602914, Poly_aftertouch_c, 0, 65, 0
1, 602951, Note_on_c, 0, 53, 29
1, 602956, Note_on_c, 0, 60, 28
1, 603008, Note_off_c, 0, 60, 56
1, 603008, Poly_aftertouch_c, 0, 60, 0
1, 603034, Note_off_c, 0, 53, 58
1, 603034, Poly_aftertouch_c, 0, 53, 0
1, 603317, Note_on_c, 0, 70, 52
1, 603340, Note_on_c, 0, 61, 35
1, 603371, Control_c, 0, 64, 116
1, 603390, Control_c, 0, 64, 105
1, 603395, Note_on_c, 0, 42, 44
1, 603410, Control_c, 0, 64, 90
1, 603428, Control_c, 0, 64, 69
1, 603448, Control_c, 0, 64, 46
1, 603465, Control_c, 0, 64, 0
1, 603502, Control_c, 0, 64, 11
1, 603522, Control_c, 0, 64, 41
1, 603540, Control_c, 0, 64, 62
1, 603559, Control_c, 0, 64, 81
1, 603578, Control_c, 0, 64, 100
1, 603583, Note_off_c, 0, 42, 59
1, 603596, Control_c, 0, 64, 126
1, 603610, Note_off_c, 0, 61, 40
1, 603733, Note_on_c, 0, 73, 46
1, 603739, Note_on_c, 0, 66, 39
1, 603959, Note_off_c, 0, 70, 24
1, 603982, Note_off_c, 0, 73, 37
1, 603984, Note_off_c, 0, 66, 41
1, 604063, Note_on_c, 0, 61, 40
1, 604071, Note_on_c, 0, 54, 36
1, 604408, Note_off_c, 0, 61, 37
1, 604408, Note_on_c, 0, 58, 44
1, 604425, Note_off_c, 0, 54, 29
1, 604444, Note_on_c, 0, 63, 30
1, 604502, Note_off_c, 0, 63, 59
1, 604523, Note_off_c, 0, 58, 61
1, 604523, Poly_aftertouch_c, 0, 58, 0
1, 604852, Note_on_c, 0, 77, 51
1, 604877, Note_on_c, 0, 68, 36
1, 604942, Control_c, 0, 64, 118
1, 604954, Note_on_c, 0, 37, 36
1, 604960, Control_c, 0, 64, 102
1, 604980, Control_c, 0, 64, 83
1, 604999, Control_c, 0, 64, 60
1, 605019, Control_c, 0, 64, 30
1, 605036, Control_c, 0, 64, 0
1, 605092, Control_c, 0, 64, 33
1, 605110, Control_c, 0, 64, 60
1, 605131, Control_c, 0, 64, 84
1, 605136, Note_off_c, 0, 37, 53
1, 605136, Poly_aftertouch_c, 0, 37, 0
1, 605149, Control_c, 0, 64, 106
1, 605166, Control_c, 0, 64, 127
1, 605391, Note_on_c, 0, 73, 42
1, 605439, Note_on_c, 0, 65, 23
1, 605470, Note_off_c, 0, 68, 35
1, 605551, Note_off_c, 0, 77, 36
1, 605551, Poly_aftertouch_c, 0, 77, 0
1, 605579, Note_off_c, 0, 65, 37
1, 605579, Poly_aftertouch_c, 0, 65, 0
1, 605629, Note_off_c, 0, 73, 37
1, 605691, Control_c, 0, 67, 111
1, 605739, Note_on_c, 0, 65, 39
1, 605753, Note_on_c, 0, 56, 36
1, 605953, Control_c, 0, 67, 107
1, 605985, Note_off_c, 0, 56, 29
1, 606064, Control_c, 0, 67, 103
1, 606076, Note_off_c, 0, 65, 39
1, 606076, Poly_aftertouch_c, 0, 65, 0
1, 606080, Note_on_c, 0, 53, 39
1, 606088, Note_on_c, 0, 61, 37
1, 606131, Note_off_c, 0, 61, 59
1, 606137, Control_c, 0, 67, 97
1, 606156, Note_off_c, 0, 53, 58
1, 606156, Poly_aftertouch_c, 0, 53, 0
1, 606176, Control_c, 0, 67, 93
1, 606214, Control_c, 0, 67, 88
1, 606251, Control_c, 0, 67, 83
1, 606289, Control_c, 0, 67, 79
1, 606364, Control_c, 0, 67, 75
1, 606437, Control_c, 0, 67, 71
1, 606451, Note_on_c, 0, 73, 56
1, 606475, Control_c, 0, 64, 116
1, 606487, Note_on_c, 0, 64, 35
1, 606493, Control_c, 0, 64, 94
1, 606514, Control_c, 0, 64, 68
1, 606527, Note_on_c, 0, 37, 32
1, 606530, Control_c, 0, 64, 47
1, 606531, Control_c, 0, 67, 67
1, 606550, Control_c, 0, 64, 33
1, 606588, Control_c, 0, 64, 48
1, 606590, Control_c, 0, 67, 63
1, 606607, Control_c, 0, 64, 68
1, 606626, Control_c, 0, 64, 92
1, 606628, Control_c, 0, 67, 56
1, 606632, Note_off_c, 0, 37, 59
1, 606632, Poly_aftertouch_c, 0, 37, 0
1, 606643, Control_c, 0, 64, 124
1, 606644, Control_c, 0, 67, 50
1, 606664, Control_c, 0, 67, 42
1, 606681, Control_c, 0, 67, 30
1, 606700, Control_c, 0, 67, 17
1, 606737, Control_c, 0, 67, 0
1, 606794, Note_off_c, 0, 64, 39
1, 606794, Poly_aftertouch_c, 0, 64, 0
1, 606918, Note_on_c, 0, 76, 46
1, 606992, Note_on_c, 0, 68, 16
1, 607055, Control_c, 0, 67, 9
1, 607084, Note_off_c, 0, 68, 44
1, 607111, Control_c, 0, 67, 14
1, 607115, Note_off_c, 0, 73, 27
1, 607125, Note_off_c, 0, 76, 57
1, 607151, Control_c, 0, 67, 19
1, 607168, Control_c, 0, 67, 25
1, 607187, Control_c, 0, 67, 31
1, 607205, Control_c, 0, 67, 37
1, 607224, Control_c, 0, 67, 42
1, 607242, Control_c, 0, 67, 46
1, 607262, Note_on_c, 0, 64, 38
1, 607279, Control_c, 0, 67, 52
1, 607291, Note_on_c, 0, 56, 25
1, 607316, Control_c, 0, 67, 60
1, 607336, Control_c, 0, 67, 65
1, 607356, Control_c, 0, 67, 71
1, 607373, Control_c, 0, 67, 78
1, 607392, Control_c, 0, 67, 85
1, 607410, Control_c, 0, 67, 93
1, 607430, Control_c, 0, 67, 100
1, 607447, Control_c, 0, 67, 106
1, 607466, Control_c, 0, 67, 112
1, 607485, Control_c, 0, 67, 117
1, 607504, Control_c, 0, 67, 122
1, 607522, Control_c, 0, 67, 126
1, 607576, Note_off_c, 0, 64, 39
1, 607576, Poly_aftertouch_c, 0, 64, 0
1, 607639, Note_off_c, 0, 56, 33
1, 607658, Note_on_c, 0, 61, 36
1, 607695, Note_on_c, 0, 68, 21
1, 607737, Note_off_c, 0, 61, 54
1, 607757, Note_off_c, 0, 68, 44
1, 608213, Note_on_c, 0, 83, 45
1, 608230, Note_on_c, 0, 75, 39
1, 608283, Note_on_c, 0, 35, 25
1, 608364, Control_c, 0, 64, 118
1, 608383, Control_c, 0, 64, 106
1, 608392, Poly_aftertouch_c, 0, 47, 127
1, 608402, Control_c, 0, 64, 90
1, 608420, Control_c, 0, 64, 72
1, 608440, Control_c, 0, 64, 53
1, 608457, Control_c, 0, 64, 23
1, 608477, Control_c, 0, 64, 0
1, 608533, Control_c, 0, 64, 26
1, 608551, Control_c, 0, 64, 45
1, 608570, Control_c, 0, 64, 64
1, 608588, Control_c, 0, 64, 78
1, 608607, Poly_aftertouch_c, 0, 47, 24
1, 608607, Control_c, 0, 64, 92
1, 608626, Control_c, 0, 64, 110
1, 608645, Control_c, 0, 64, 127
1, 608655, Note_off_c, 0, 35, 53
1, 608674, Poly_aftertouch_c, 0, 47, 0
1, 608706, Note_off_c, 0, 75, 35
1, 608896, Note_on_c, 0, 78, 30
1, 608901, Note_on_c, 0, 71, 28
1, 609012, Poly_aftertouch_c, 0, 83, 24
1, 609038, Note_off_c, 0, 71, 47
1, 609038, Poly_aftertouch_c, 0, 71, 0
1, 609057, Note_off_c, 0, 78, 37
1, 609062, Note_off_c, 0, 83, 39
1, 609062, Poly_aftertouch_c, 0, 83, 0
1, 609259, Note_on_c, 0, 71, 33
1, 609286, Note_on_c, 0, 63, 37
1, 609491, Note_off_c, 0, 63, 33
1, 609597, Note_on_c, 0, 59, 42
1, 609624, Note_on_c, 0, 66, 35
1, 609630, Note_off_c, 0, 71, 31
1, 609630, Poly_aftertouch_c, 0, 71, 0
1, 609673, Note_off_c, 0, 66, 60
1, 609698, Note_off_c, 0, 59, 54
1, 609698, Poly_aftertouch_c, 0, 59, 0
1, 609803, Control_c, 0, 67, 121
1, 609841, Control_c, 0, 67, 115
1, 609879, Control_c, 0, 67, 110
1, 609916, Control_c, 0, 67, 105
1, 609954, Control_c, 0, 67, 100
1, 609967, Note_on_c, 0, 71, 54
1, 609991, Control_c, 0, 67, 95
1, 610009, Note_on_c, 0, 64, 35
1, 610027, Control_c, 0, 64, 114
1, 610028, Control_c, 0, 67, 88
1, 610031, Note_on_c, 0, 40, 44
1, 610033, Note_on_c, 0, 52, 34
1, 610047, Control_c, 0, 64, 93
1, 610066, Control_c, 0, 64, 69
1, 610069, Control_c, 0, 67, 81
1, 610085, Control_c, 0, 64, 47
1, 610086, Control_c, 0, 67, 77
1, 610104, Control_c, 0, 64, 42
1, 610105, Control_c, 0, 67, 73
1, 610122, Control_c, 0, 64, 53
1, 610123, Control_c, 0, 67, 66
1, 610141, Control_c, 0, 64, 71
1, 610142, Control_c, 0, 67, 59
1, 610160, Control_c, 0, 64, 91
1, 610162, Control_c, 0, 67, 52
1, 610180, Control_c, 0, 64, 120
1, 610181, Control_c, 0, 67, 46
1, 610196, Control_c, 0, 64, 127
1, 610198, Control_c, 0, 67, 41
1, 610207, Note_off_c, 0, 40, 57
1, 610207, Poly_aftertouch_c, 0, 40, 0
1, 610215, Control_c, 0, 67, 36
1, 610236, Control_c, 0, 67, 31
1, 610252, Note_off_c, 0, 52, 51
1, 610253, Control_c, 0, 67, 23
1, 610271, Control_c, 0, 67, 15
1, 610384, Note_on_c, 0, 76, 45
1, 610384, Control_c, 0, 67, 0
1, 610407, Note_on_c, 0, 68, 35
1, 610432, Note_off_c, 0, 64, 38
1, 610432, Poly_aftertouch_c, 0, 64, 0
1, 610536, Note_off_c, 0, 71, 48
1, 610536, Poly_aftertouch_c, 0, 71, 0
1, 610580, Note_off_c, 0, 76, 56
1, 610612, Note_off_c, 0, 68, 35
1, 610716, Note_on_c, 0, 56, 46
1, 610717, Note_on_c, 0, 64, 43
1, 610871, Control_c, 0, 67, 8
1, 610944, Control_c, 0, 67, 12
1, 611001, Control_c, 0, 67, 17
1, 611069, Note_on_c, 0, 68, 51
1, 611071, Note_on_c, 0, 59, 50
1, 611078, Control_c, 0, 67, 22
1, 611087, Note_off_c, 0, 64, 59
1, 611087, Poly_aftertouch_c, 0, 64, 0
1, 611094, Control_c, 0, 67, 26
1, 611106, Note_off_c, 0, 68, 67
1, 611112, Control_c, 0, 67, 34
1, 611131, Control_c, 0, 67, 41
1, 611150, Control_c, 0, 67, 46
1, 611155, Note_off_c, 0, 59, 60
1, 611155, Poly_aftertouch_c, 0, 59, 0
1, 611168, Note_off_c, 0, 56, 59
1, 611188, Control_c, 0, 67, 51
1, 611263, Control_c, 0, 67, 55
1, 611355, Control_c, 0, 67, 59
1, 611431, Control_c, 0, 67, 63
1, 611538, Note_on_c, 0, 83, 59
1, 611556, Note_on_c, 0, 75, 47
1, 611590, Note_on_c, 0, 35, 44
1, 611619, Control_c, 0, 67, 68
1, 611649, Note_on_c, 0, 47, 29
1, 611654, Control_c, 0, 64, 119
1, 611655, Control_c, 0, 67, 72
1, 611674, Control_c, 0, 64, 103
1, 611692, Control_c, 0, 64, 82
1, 611693, Control_c, 0, 67, 77
1, 611712, Control_c, 0, 64, 60
1, 611731, Control_c, 0, 64, 36
1, 611732, Control_c, 0, 67, 82
1, 611749, Control_c, 0, 64, 26
1, 611768, Control_c, 0, 64, 40
1, 611787, Control_c, 0, 64, 57
1, 611805, Control_c, 0, 64, 75
1, 611824, Control_c, 0, 64, 95
1, 611842, Control_c, 0, 64, 126
1, 611870, Note_off_c, 0, 35, 60
1, 611910, Note_off_c, 0, 47, 44
1, 612060, Note_on_c, 0, 78, 47
1, 612077, Note_on_c, 0, 71, 35
1, 612187, Note_off_c, 0, 71, 52
1, 612187, Poly_aftertouch_c, 0, 71, 0
1, 612202, Note_off_c, 0, 75, 37
1, 612244, Note_off_c, 0, 83, 38
1, 612244, Poly_aftertouch_c, 0, 83, 0
1, 612270, Note_off_c, 0, 78, 47
1, 612309, Control_c, 0, 67, 78
1, 612399, Note_on_c, 0, 71, 45
1, 612431, Note_on_c, 0, 63, 41
1, 612680, Note_off_c, 0, 63, 34
1, 612741, Note_on_c, 0, 59, 48
1, 612756, Note_on_c, 0, 66, 43
1, 612758, Note_off_c, 0, 71, 52
1, 612758, Poly_aftertouch_c, 0, 71, 0
1, 612758, Control_c, 0, 67, 73
1, 612811, Note_off_c, 0, 66, 63
1, 612825, Note_off_c, 0, 59, 51
1, 612825, Poly_aftertouch_c, 0, 59, 0
1, 612833, Control_c, 0, 67, 69
1, 612889, Control_c, 0, 67, 64
1, 612945, Control_c, 0, 67, 59
1, 613002, Control_c, 0, 67, 54
1, 613059, Control_c, 0, 67, 50
1, 613111, Note_on_c, 0, 71, 58
1, 613148, Note_on_c, 0, 64, 33
1, 613169, Control_c, 0, 64, 116
1, 613176, Note_on_c, 0, 52, 41
1, 613183, Note_on_c, 0, 40, 43
1, 613188, Control_c, 0, 64, 90
1, 613209, Control_c, 0, 64, 63
1, 613226, Control_c, 0, 64, 42
1, 613245, Control_c, 0, 64, 36
1, 613266, Control_c, 0, 64, 50
1, 613267, Control_c, 0, 67, 44
1, 613282, Control_c, 0, 64, 69
1, 613301, Control_c, 0, 64, 91
1, 613304, Control_c, 0, 67, 36
1, 613319, Control_c, 0, 64, 126
1, 613320, Control_c, 0, 67, 31
1, 613338, Control_c, 0, 67, 25
1, 613343, Note_off_c, 0, 40, 57
1, 613343, Poly_aftertouch_c, 0, 40, 0
1, 613357, Control_c, 0, 67, 19
1, 613375, Control_c, 0, 67, 11
1, 613389, Note_off_c, 0, 52, 60
1, 613432, Control_c, 0, 67, 0
1, 613490, Note_on_c, 0, 76, 55
1, 613505, Note_on_c, 0, 68, 45
1, 613575, Note_off_c, 0, 64, 39
1, 613575, Poly_aftertouch_c, 0, 64, 0
1, 613647, Note_off_c, 0, 71, 52
1, 613647, Poly_aftertouch_c, 0, 71, 0
1, 613734, Note_off_c, 0, 68, 37
1, 613755, Note_off_c, 0, 76, 57
1, 613818, Note_on_c, 0, 64, 45
1, 613828, Note_on_c, 0, 56, 47
1, 614162, Note_on_c, 0, 59, 50
1, 614162, Note_on_c, 0, 68, 51
1, 614196, Note_off_c, 0, 64, 60
1, 614196, Poly_aftertouch_c, 0, 64, 0
1, 614203, Note_off_c, 0, 68, 65
1, 614240, Note_off_c, 0, 59, 54
1, 614240, Poly_aftertouch_c, 0, 59, 0
1, 614265, Note_off_c, 0, 56, 57
1, 614648, Note_on_c, 0, 83, 65
1, 614665, Note_on_c, 0, 75, 53
1, 614701, Note_on_c, 0, 35, 48
1, 614723, Control_c, 0, 64, 121
1, 614726, Note_on_c, 0, 47, 28
1, 614741, Control_c, 0, 64, 93
1, 614759, Control_c, 0, 64, 66
1, 614777, Control_c, 0, 64, 47
1, 614797, Control_c, 0, 64, 37
1, 614815, Control_c, 0, 64, 45
1, 614834, Control_c, 0, 64, 60
1, 614852, Control_c, 0, 64, 79
1, 614872, Control_c, 0, 64, 104
1, 614891, Control_c, 0, 64, 127
1, 614991, Note_off_c, 0, 35, 59
1, 615012, Note_off_c, 0, 47, 46
1, 615252, Note_on_c, 0, 78, 54
1, 615270, Note_on_c, 0, 71, 32
1, 615411, Note_off_c, 0, 75, 35
1, 615465, Note_off_c, 0, 71, 36
1, 615465, Poly_aftertouch_c, 0, 71, 0
1, 615493, Note_off_c, 0, 83, 57
1, 615493, Poly_aftertouch_c, 0, 83, 0
1, 615594, Note_on_c, 0, 71, 60
1, 615618, Note_on_c, 0, 63, 49
1, 615801, Note_off_c, 0, 78, 41
1, 615883, Note_off_c, 0, 63, 37
1, 615931, Note_on_c, 0, 59, 55
1, 615945, Note_on_c, 0, 66, 53
1, 615946, Note_off_c, 0, 71, 30
1, 615946, Poly_aftertouch_c, 0, 71, 0
1, 615986, Note_off_c, 0, 66, 65
1, 616005, Note_off_c, 0, 59, 60
1, 616005, Poly_aftertouch_c, 0, 59, 0
1, 616359, Note_on_c, 0, 81, 69
1, 616375, Note_on_c, 0, 75, 57
1, 616433, Note_on_c, 0, 35, 56
1, 616441, Note_on_c, 0, 47, 48
1, 616441, Control_c, 0, 64, 96
1, 616461, Control_c, 0, 64, 65
1, 616480, Control_c, 0, 64, 41
1, 616498, Control_c, 0, 64, 30
1, 616517, Control_c, 0, 64, 39
1, 616535, Control_c, 0, 64, 58
1, 616555, Control_c, 0, 64, 84
1, 616573, Control_c, 0, 64, 122
1, 616592, Control_c, 0, 64, 127
1, 616625, Note_off_c, 0, 35, 60
1, 616668, Note_off_c, 0, 47, 60
1, 616848, Note_on_c, 0, 78, 62
1, 616877, Note_on_c, 0, 69, 46
1, 616982, Note_off_c, 0, 69, 47
1, 617016, Note_off_c, 0, 81, 37
1, 617056, Note_off_c, 0, 75, 29
1, 617162, Note_on_c, 0, 69, 63
1, 617183, Note_on_c, 0, 63, 56
1, 617210, Note_off_c, 0, 78, 34
1, 617482, Note_off_c, 0, 69, 61
1, 617483, Note_on_c, 0, 57, 61
1, 617490, Note_on_c, 0, 66, 57
1, 617523, Note_off_c, 0, 63, 54
1, 617529, Note_off_c, 0, 66, 65
1, 617566, Note_off_c, 0, 57, 61
1, 617566, Poly_aftertouch_c, 0, 57, 0
1, 617889, Note_on_c, 0, 81, 74
1, 617905, Note_on_c, 0, 75, 61
1, 617940, Note_on_c, 0, 48, 69
1, 617948, Note_on_c, 0, 36, 64
1, 617955, Control_c, 0, 64, 120
1, 617976, Control_c, 0, 64, 86
1, 617993, Control_c, 0, 64, 51
1, 618013, Control_c, 0, 64, 0
1, 618069, Control_c, 0, 64, 41
1, 618088, Control_c, 0, 64, 73
1, 618106, Control_c, 0, 64, 105
1, 618124, Control_c, 0, 64, 127
1, 618131, Note_off_c, 0, 36, 60
1, 618184, Note_off_c, 0, 48, 60
1, 618362, Note_on_c, 0, 78, 68
1, 618393, Note_on_c, 0, 69, 51
1, 618524, Note_off_c, 0, 69, 58
1, 618548, Note_off_c, 0, 81, 52
1, 618667, Note_off_c, 0, 78, 52
1, 618676, Note_off_c, 0, 75, 38
1, 618689, Note_on_c, 0, 69, 68
1, 618706, Note_on_c, 0, 63, 60
1, 619002, Note_off_c, 0, 69, 61
1, 619021, Note_on_c, 0, 66, 69
1, 619021, Note_on_c, 0, 57, 63
1, 619059, Note_off_c, 0, 63, 58
1, 619059, Note_off_c, 0, 66, 68
1, 619090, Note_off_c, 0, 57, 62
1, 619090, Poly_aftertouch_c, 0, 57, 0
1, 619400, Note_on_c, 0, 80, 80
1, 619430, Note_on_c, 0, 75, 63
1, 619432, Control_c, 0, 64, 121
1, 619452, Control_c, 0, 64, 102
1, 619470, Control_c, 0, 64, 86
1, 619476, Note_on_c, 0, 48, 67
1, 619486, Note_on_c, 0, 36, 62
1, 619490, Control_c, 0, 64, 68
1, 619509, Control_c, 0, 64, 47
1, 619527, Control_c, 0, 64, 0
1, 619583, Control_c, 0, 64, 17
1, 619602, Control_c, 0, 64, 45
1, 619620, Control_c, 0, 64, 67
1, 619640, Control_c, 0, 64, 86
1, 619659, Control_c, 0, 64, 113
1, 619660, Note_off_c, 0, 36, 62
1, 619677, Control_c, 0, 64, 127
1, 619727, Note_off_c, 0, 48, 63
1, 619915, Note_on_c, 0, 78, 74
1, 619931, Note_on_c, 0, 68, 56
1, 620096, Note_off_c, 0, 68, 58
1, 620133, Note_off_c, 0, 75, 55
1, 620140, Note_off_c, 0, 80, 59
1, 620140, Poly_aftertouch_c, 0, 80, 0
1, 620269, Note_on_c, 0, 68, 70
1, 620309, Note_on_c, 0, 63, 52
1, 620363, Note_off_c, 0, 78, 54
1, 620624, Note_on_c, 0, 56, 62
1, 620627, Note_on_c, 0, 66, 66
1, 620646, Note_off_c, 0, 68, 63
1, 620687, Note_off_c, 0, 63, 53
1, 620702, Note_off_c, 0, 66, 63
1, 620745, Note_off_c, 0, 56, 58
1, 620752, Note_on_c, 0, 72, 70
1, 620882, Note_on_c, 0, 75, 80
1, 621257, Note_on_c, 0, 82, 82
1, 621357, Note_on_c, 0, 32, 72
1, 621380, Note_on_c, 0, 44, 54
1, 621398, Control_c, 0, 64, 115
1, 621415, Control_c, 0, 64, 81
1, 621436, Control_c, 0, 64, 44
1, 621454, Control_c, 0, 64, 0
1, 621510, Control_c, 0, 64, 37
1, 621528, Control_c, 0, 64, 73
1, 621547, Control_c, 0, 64, 110
1, 621566, Control_c, 0, 64, 127
1, 621657, Note_off_c, 0, 32, 58
1, 621693, Note_off_c, 0, 44, 61
1, 621776, Note_on_c, 0, 80, 80
1, 621779, Note_off_c, 0, 82, 64
1, 621900, Note_off_c, 0, 75, 55
1, 622166, Note_on_c, 0, 78, 81
1, 622189, Note_on_c, 0, 73, 60
1, 622198, Note_on_c, 0, 70, 66
1, 622212, Note_on_c, 0, 56, 56
1, 622224, Note_off_c, 0, 72, 40
1, 622224, Poly_aftertouch_c, 0, 72, 0
1, 622258, Note_off_c, 0, 80, 63
1, 622258, Poly_aftertouch_c, 0, 80, 0
1, 622484, Poly_aftertouch_c, 0, 58, 127
1, 622507, Note_off_c, 0, 78, 55
1, 622511, Note_off_c, 0, 70, 57
1, 622571, Note_on_c, 0, 77, 84
1, 622601, Note_on_c, 0, 68, 61
1, 622624, Note_off_c, 0, 73, 55
1, 622630, Note_on_c, 0, 72, 40
1, 622699, Poly_aftertouch_c, 0, 78, 127
1, 622704, Poly_aftertouch_c, 0, 58, 0
1, 622729, Note_off_c, 0, 56, 36
1, 622746, Poly_aftertouch_c, 0, 78, 0
1, 622789, Note_off_c, 0, 72, 48
1, 622789, Poly_aftertouch_c, 0, 72, 0
1, 622801, Note_off_c, 0, 68, 54
1, 623099, Note_on_c, 0, 74, 75
1, 623136, Note_on_c, 0, 72, 46
1, 623152, Note_on_c, 0, 65, 41
1, 623160, Note_on_c, 0, 56, 41
1, 623286, Control_c, 0, 64, 123
1, 623304, Control_c, 0, 64, 110
1, 623324, Control_c, 0, 64, 94
1, 623342, Note_off_c, 0, 77, 47
1, 623342, Poly_aftertouch_c, 0, 77, 0
1, 623342, Control_c, 0, 64, 79
1, 623360, Control_c, 0, 64, 74
1, 623379, Control_c, 0, 64, 79
1, 623398, Control_c, 0, 64, 87
1, 623416, Control_c, 0, 64, 96
1, 623436, Control_c, 0, 64, 108
1, 623453, Control_c, 0, 64, 126
1, 623723, Note_off_c, 0, 65, 34
1, 623723, Poly_aftertouch_c, 0, 65, 0
1, 623727, Note_on_c, 0, 75, 73
1, 623762, Note_on_c, 0, 66, 43
1, 623929, Note_off_c, 0, 66, 58
1, 623968, Note_off_c, 0, 74, 57
1, 624041, Note_off_c, 0, 75, 59
1, 624270, Note_on_c, 0, 74, 55
1, 624272, Note_on_c, 0, 65, 41
1, 624342, Note_off_c, 0, 65, 55
1, 624342, Poly_aftertouch_c, 0, 65, 0
1, 624356, Note_on_c, 0, 66, 49
1, 624363, Note_on_c, 0, 75, 69
1, 624365, Note_off_c, 0, 74, 60
1, 624431, Note_off_c, 0, 66, 61
1, 624440, Note_on_c, 0, 68, 56
1, 624452, Note_off_c, 0, 75, 63
1, 624464, Note_on_c, 0, 77, 69
1, 624533, Note_off_c, 0, 68, 53
1, 624557, Note_on_c, 0, 75, 67
1, 624573, Note_on_c, 0, 66, 58
1, 624574, Control_c, 0, 64, 121
1, 624604, Note_off_c, 0, 77, 56
1, 624604, Poly_aftertouch_c, 0, 77, 0
1, 624614, Control_c, 0, 64, 116
1, 624632, Control_c, 0, 64, 112
1, 624651, Control_c, 0, 64, 108
1, 624725, Control_c, 0, 64, 103
1, 624763, Control_c, 0, 64, 95
1, 624800, Control_c, 0, 64, 90
1, 624838, Control_c, 0, 64, 87
1, 624856, Control_c, 0, 64, 85
1, 624894, Control_c, 0, 64, 82
1, 624950, Control_c, 0, 64, 80
1, 624989, Control_c, 0, 64, 77
1, 625025, Control_c, 0, 64, 75
1, 625062, Control_c, 0, 64, 73
1, 625081, Control_c, 0, 64, 70
1, 625099, Control_c, 0, 64, 68
1, 625118, Control_c, 0, 64, 66
1, 625136, Control_c, 0, 64, 65
1, 625156, Control_c, 0, 64, 62
1, 625173, Control_c, 0, 64, 59
1, 625193, Control_c, 0, 64, 57
1, 625306, Control_c, 0, 64, 60
1, 625324, Control_c, 0, 64, 62
1, 625342, Control_c, 0, 64, 64
1, 625362, Control_c, 0, 64, 67
1, 625379, Control_c, 0, 64, 70
1, 625399, Control_c, 0, 64, 73
1, 625418, Control_c, 0, 64, 78
1, 625436, Control_c, 0, 64, 86
1, 625455, Control_c, 0, 64, 97
1, 625473, Control_c, 0, 64, 109
1, 625493, Control_c, 0, 64, 120
1, 625511, Control_c, 0, 64, 127
1, 625602, Note_off_c, 0, 72, 51
1, 625602, Poly_aftertouch_c, 0, 72, 0
1, 625734, Note_off_c, 0, 66, 51
1, 625880, Note_off_c, 0, 56, 35
1, 625918, Note_off_c, 0, 75, 38
1, 626124, Note_on_c, 0, 73, 59
1, 626278, Control_c, 0, 67, 8
1, 626323, Note_off_c, 0, 73, 62
1, 626647, Note_on_c, 0, 73, 67
1, 626699, Note_on_c, 0, 65, 41
1, 626706, Control_c, 0, 64, 115
1, 626727, Control_c, 0, 64, 93
1, 626740, Note_on_c, 0, 37, 43
1, 626744, Control_c, 0, 64, 76
1, 626764, Control_c, 0, 64, 73
1, 626782, Control_c, 0, 64, 79
1, 626801, Control_c, 0, 64, 91
1, 626820, Control_c, 0, 64, 110
1, 626839, Control_c, 0, 64, 127
1, 626951, Control_c, 0, 67, 0
1, 626952, Note_off_c, 0, 37, 53
1, 626952, Poly_aftertouch_c, 0, 37, 0
1, 627002, Note_on_c, 0, 49, 47
1, 627112, Note_off_c, 0, 65, 35
1, 627112, Poly_aftertouch_c, 0, 65, 0
1, 627114, Note_on_c, 0, 78, 74
1, 627129, Note_on_c, 0, 70, 55
1, 627279, Note_on_c, 0, 51, 50
1, 627290, Note_off_c, 0, 73, 56
1, 627305, Note_off_c, 0, 49, 36
1, 627305, Poly_aftertouch_c, 0, 49, 0
1, 627312, Note_off_c, 0, 70, 57
1, 627401, Note_off_c, 0, 78, 55
1, 627519, Note_on_c, 0, 49, 37
1, 627521, Note_off_c, 0, 51, 53
1, 627521, Poly_aftertouch_c, 0, 51, 0
1, 627631, Note_on_c, 0, 78, 71
1, 627671, Note_on_c, 0, 70, 59
1, 627755, Control_c, 0, 64, 111
1, 627774, Control_c, 0, 64, 98
1, 627810, Control_c, 0, 64, 110
1, 627831, Control_c, 0, 64, 127
1, 627936, Note_on_c, 0, 61, 51
1, 628073, Note_off_c, 0, 49, 30
1, 628073, Poly_aftertouch_c, 0, 49, 0
1, 628123, Note_off_c, 0, 61, 59
1, 628135, Note_on_c, 0, 49, 37
1, 628197, Note_off_c, 0, 78, 64
1, 628331, Note_on_c, 0, 51, 57
1, 628389, Note_off_c, 0, 49, 38
1, 628389, Poly_aftertouch_c, 0, 49, 0
1, 628495, Note_off_c, 0, 51, 59
1, 628495, Poly_aftertouch_c, 0, 51, 0
1, 628505, Note_on_c, 0, 49, 55
1, 628550, Note_on_c, 0, 77, 70
1, 628578, Note_on_c, 0, 68, 52
1, 628585, Note_off_c, 0, 49, 56
1, 628585, Poly_aftertouch_c, 0, 49, 0
1, 628671, Note_on_c, 0, 49, 43
1, 628767, Note_off_c, 0, 68, 34
1, 628778, Note_off_c, 0, 77, 52
1, 628778, Poly_aftertouch_c, 0, 77, 0
1, 628783, Note_off_c, 0, 70, 37
1, 628843, Note_on_c, 0, 37, 60
1, 628877, Note_off_c, 0, 49, 38
1, 628877, Poly_aftertouch_c, 0, 49, 0
1, 628950, Note_on_c, 0, 77, 73
1, 628970, Control_c, 0, 64, 107
1, 628980, Note_on_c, 0, 70, 51
1, 628987, Control_c, 0, 64, 80
1, 628995, Note_on_c, 0, 68, 49
1, 629008, Control_c, 0, 64, 63
1, 629044, Control_c, 0, 64, 72
1, 629063, Control_c, 0, 64, 84
1, 629082, Control_c, 0, 64, 102
1, 629101, Control_c, 0, 64, 127
1, 629130, Note_off_c, 0, 68, 60
1, 629133, Note_off_c, 0, 37, 57
1, 629133, Poly_aftertouch_c, 0, 37, 0
1, 629152, Note_on_c, 0, 49, 55
1, 629241, Note_on_c, 0, 75, 74
1, 629262, Note_on_c, 0, 66, 48
1, 629376, Note_on_c, 0, 51, 54
1, 629388, Note_off_c, 0, 49, 49
1, 629388, Poly_aftertouch_c, 0, 49, 0
1, 629428, Note_off_c, 0, 66, 57
1, 629436, Note_off_c, 0, 77, 58
1, 629436, Poly_aftertouch_c, 0, 77, 0
1, 629440, Note_off_c, 0, 70, 53
1, 629475, Note_off_c, 0, 75, 60
1, 629557, Note_off_c, 0, 51, 54
1, 629557, Poly_aftertouch_c, 0, 51, 0
1, 629569, Note_on_c, 0, 49, 54
1, 629633, Note_on_c, 0, 75, 65
1, 629635, Note_on_c, 0, 70, 47
1, 629674, Note_on_c, 0, 66, 37
1, 629679, Control_c, 0, 64, 123
1, 629700, Control_c, 0, 64, 106
1, 629718, Control_c, 0, 64, 86
1, 629737, Control_c, 0, 64, 68
1, 629756, Control_c, 0, 64, 63
1, 629774, Control_c, 0, 64, 69
1, 629794, Control_c, 0, 64, 81
1, 629811, Control_c, 0, 64, 97
1, 629831, Control_c, 0, 64, 122
1, 629849, Control_c, 0, 64, 127
1, 629867, Note_on_c, 0, 61, 52
1, 629957, Note_off_c, 0, 49, 32
1, 629957, Poly_aftertouch_c, 0, 49, 0
1, 629999, Note_off_c, 0, 61, 57
1, 630038, Note_on_c, 0, 49, 49
1, 630087, Note_off_c, 0, 66, 50
1, 630134, Note_off_c, 0, 75, 61
1, 630217, Note_on_c, 0, 51, 58
1, 630222, Note_off_c, 0, 49, 55
1, 630222, Poly_aftertouch_c, 0, 49, 0
1, 630373, Note_on_c, 0, 49, 61
1, 630375, Note_off_c, 0, 51, 57
1, 630375, Poly_aftertouch_c, 0, 51, 0
1, 630408, Note_on_c, 0, 75, 76
1, 630427, Note_on_c, 0, 66, 55
1, 630469, Note_off_c, 0, 49, 58
1, 630469, Poly_aftertouch_c, 0, 49, 0
1, 630528, Note_on_c, 0, 49, 50
1, 630540, Note_off_c, 0, 66, 57
1, 630583, Note_off_c, 0, 70, 64
1, 630608, Note_off_c, 0, 75, 64
1, 630686, Note_off_c, 0, 49, 59
1, 630686, Poly_aftertouch_c, 0, 49, 0
1, 630698, Note_on_c, 0, 37, 64
1, 630784, Note_on_c, 0, 75, 78
1, 630784, Control_c, 0, 64, 112
1, 630803, Note_on_c, 0, 66, 60
1, 630803, Control_c, 0, 64, 83
1, 630822, Control_c, 0, 64, 64
1, 630859, Control_c, 0, 64, 74
1, 630877, Control_c, 0, 64, 92
1, 630896, Control_c, 0, 64, 127
1, 630923, Note_off_c, 0, 37, 59
1, 630923, Poly_aftertouch_c, 0, 37, 0
1, 630935, Note_off_c, 0, 66, 52
1, 630961, Note_on_c, 0, 49, 58
1, 631075, Note_on_c, 0, 82, 81
1, 631163, Note_off_c, 0, 49, 49
1, 631163, Poly_aftertouch_c, 0, 49, 0
1, 631186, Note_on_c, 0, 51, 54
1, 631187, Poly_aftertouch_c, 0, 78, 0
1, 631188, Note_off_c, 0, 82, 63
1, 631263, Note_off_c, 0, 75, 61
1, 631307, Note_on_c, 0, 66, 55
1, 631340, Note_off_c, 0, 51, 56
1, 631340, Poly_aftertouch_c, 0, 51, 0
1, 631365, Note_on_c, 0, 49, 48
1, 631380, Note_on_c, 0, 72, 60
1, 631471, Note_on_c, 0, 75, 56
1, 631621, Note_on_c, 0, 82, 79
1, 631681, Control_c, 0, 64, 118
1, 631700, Control_c, 0, 64, 101
1, 631718, Control_c, 0, 64, 83
1, 631738, Control_c, 0, 64, 76
1, 631757, Control_c, 0, 64, 83
1, 631776, Control_c, 0, 64, 100
1, 631794, Control_c, 0, 64, 127
1, 631870, Note_on_c, 0, 61, 47
1, 631900, Note_off_c, 0, 72, 57
1, 631900, Poly_aftertouch_c, 0, 72, 0
1, 631971, Note_off_c, 0, 49, 37
1, 631971, Poly_aftertouch_c, 0, 49, 0
1, 632014, Note_off_c, 0, 61, 50
1, 632039, Note_off_c, 0, 82, 57
1, 632061, Note_on_c, 0, 49, 46
1, 632167, Note_off_c, 0, 66, 44
1, 632228, Note_off_c, 0, 49, 52
1, 632228, Poly_aftertouch_c, 0, 49, 0
1, 632234, Note_on_c, 0, 51, 52
1, 632377, Note_off_c, 0, 51, 58
1, 632377, Poly_aftertouch_c, 0, 51, 0
1, 632390, Note_on_c, 0, 49, 57
1, 632424, Note_on_c, 0, 80, 75
1, 632445, Note_on_c, 0, 73, 55
1, 632464, Note_on_c, 0, 65, 45
1, 632472, Note_off_c, 0, 49, 52
1, 632472, Poly_aftertouch_c, 0, 49, 0
1, 632528, Note_off_c, 0, 65, 44
1, 632528, Poly_aftertouch_c, 0, 65, 0
1, 632530, Note_off_c, 0, 75, 60
1, 632561, Note_off_c, 0, 73, 62
1, 632568, Note_on_c, 0, 49, 46
1, 632610, Note_off_c, 0, 80, 54
1, 632610, Poly_aftertouch_c, 0, 80, 0
1, 632690, Note_on_c, 0, 65, 49
1, 632763, Note_on_c, 0, 70, 58
1, 632767, Note_off_c, 0, 49, 46
1, 632767, Poly_aftertouch_c, 0, 49, 0
1, 632777, Note_on_c, 0, 37, 46
1, 632854, Note_on_c, 0, 73, 57
1, 632897, Control_c, 0, 64, 122
1, 632915, Control_c, 0, 64, 115
1, 632935, Control_c, 0, 64, 108
1, 632953, Control_c, 0, 64, 99
1, 632971, Control_c, 0, 64, 89
1, 632990, Control_c, 0, 64, 77
1, 633000, Note_on_c, 0, 80, 69
1, 633009, Control_c, 0, 64, 68
1, 633010, Control_c, 0, 67, 8
1, 633027, Control_c, 0, 64, 66
1, 633047, Control_c, 0, 64, 69
1, 633065, Control_c, 0, 64, 76
1, 633085, Control_c, 0, 64, 83
1, 633102, Control_c, 0, 64, 94
1, 633105, Control_c, 0, 67, 12
1, 633121, Control_c, 0, 64, 109
1, 633140, Control_c, 0, 64, 127
1, 633144, Note_off_c, 0, 37, 55
1, 633144, Poly_aftertouch_c, 0, 37, 0
1, 633177, Control_c, 0, 67, 17
1, 633190, Note_on_c, 0, 49, 51
1, 633233, Control_c, 0, 67, 22
1, 633292, Note_on_c, 0, 78, 77
1, 633377, Note_off_c, 0, 80, 59
1, 633377, Poly_aftertouch_c, 0, 80, 0
1, 633383, Control_c, 0, 67, 27
1, 633387, Note_off_c, 0, 65, 41
1, 633387, Poly_aftertouch_c, 0, 65, 0
1, 633395, Note_off_c, 0, 70, 55
1, 633423, Note_on_c, 0, 51, 49
1, 633425, Note_off_c, 0, 73, 57
1, 633438, Control_c, 0, 67, 32
1, 633440, Note_off_c, 0, 49, 36
1, 633440, Poly_aftertouch_c, 0, 49, 0
1, 633456, Note_off_c, 0, 78, 61
1, 633513, Control_c, 0, 67, 36
1, 633519, Note_on_c, 0, 65, 54
1, 633577, Note_off_c, 0, 51, 54
1, 633577, Poly_aftertouch_c, 0, 51, 0
1, 633601, Note_on_c, 0, 70, 48
1, 633607, Control_c, 0, 67, 41
1, 633620, Note_on_c, 0, 49, 45
1, 633645, Control_c, 0, 67, 45
1, 633656, Note_on_c, 0, 73, 50
1, 633700, Control_c, 0, 67, 50
1, 633730, Note_on_c, 0, 78, 73
1, 633738, Control_c, 0, 67, 57
1, 633757, Control_c, 0, 67, 61
1, 633794, Control_c, 0, 64, 119
1, 633796, Control_c, 0, 67, 67
1, 633813, Control_c, 0, 64, 99
1, 633831, Control_c, 0, 64, 80
1, 633850, Control_c, 0, 64, 72
1, 633869, Control_c, 0, 64, 76
1, 633888, Control_c, 0, 64, 84
1, 633907, Control_c, 0, 64, 95
1, 633925, Control_c, 0, 64, 113
1, 633945, Note_on_c, 0, 61, 51
1, 633945, Control_c, 0, 64, 127
1, 634043, Note_off_c, 0, 49, 28
1, 634043, Poly_aftertouch_c, 0, 49, 0
1, 634067, Note_off_c, 0, 61, 59
1, 634111, Note_on_c, 0, 49, 44
1, 634223, Note_off_c, 0, 78, 54
1, 634284, Note_off_c, 0, 49, 54
1, 634284, Poly_aftertouch_c, 0, 49, 0
1, 634294, Note_on_c, 0, 51, 53
1, 634449, Note_off_c, 0, 51, 56
1, 634449, Poly_aftertouch_c, 0, 51, 0
1, 634453, Note_on_c, 0, 49, 57
1, 634523, Control_c, 0, 67, 63
1, 634531, Note_off_c, 0, 49, 56
1, 634531, Poly_aftertouch_c, 0, 49, 0
1, 634537, Note_on_c, 0, 78, 73
1, 634571, Note_off_c, 0, 65, 50
1, 634571, Poly_aftertouch_c, 0, 65, 0
1, 634630, Note_on_c, 0, 49, 41
1, 634642, Note_off_c, 0, 73, 56
1, 634655, Note_off_c, 0, 70, 55
1, 634674, Control_c, 0, 67, 59
1, 634723, Note_off_c, 0, 78, 38
1, 634748, Control_c, 0, 67, 55
1, 634780, Note_on_c, 0, 63, 59
1, 634810, Note_on_c, 0, 37, 50
1, 634821, Note_on_c, 0, 70, 60
1, 634821, Control_c, 0, 67, 51
1, 634858, Note_off_c, 0, 49, 40
1, 634858, Poly_aftertouch_c, 0, 49, 0
1, 634879, Control_c, 0, 64, 115
1, 634897, Control_c, 0, 64, 92
1, 634902, Note_on_c, 0, 73, 55
1, 634917, Control_c, 0, 64, 80
1, 634918, Control_c, 0, 67, 47
1, 634935, Control_c, 0, 64, 84
1, 634942, Note_off_c, 0, 63, 51
1, 634954, Control_c, 0, 64, 95
1, 634955, Control_c, 0, 67, 42
1, 634972, Control_c, 0, 64, 114
1, 634984, Note_on_c, 0, 78, 78
1, 634992, Control_c, 0, 64, 127
1, 634993, Control_c, 0, 67, 35
1, 635010, Control_c, 0, 67, 31
1, 635029, Control_c, 0, 67, 26
1, 635046, Note_off_c, 0, 37, 58
1, 635046, Poly_aftertouch_c, 0, 37, 0
1, 635046, Control_c, 0, 67, 20
1, 635052, Note_off_c, 0, 73, 62
1, 635066, Control_c, 0, 67, 13
1, 635076, Note_off_c, 0, 70, 64
1, 635101, Note_on_c, 0, 49, 51
1, 635159, Control_c, 0, 67, 0
1, 635210, Note_off_c, 0, 78, 63
1, 635220, Note_on_c, 0, 80, 72
1, 635309, Note_off_c, 0, 49, 51
1, 635309, Poly_aftertouch_c, 0, 49, 0
1, 635315, Note_on_c, 0, 51, 50
1, 635422, Note_on_c, 0, 82, 79
1, 635464, Note_off_c, 0, 80, 62
1, 635464, Poly_aftertouch_c, 0, 80, 0
1, 635492, Note_off_c, 0, 82, 64
1, 635584, Note_off_c, 0, 51, 55
1, 635584, Poly_aftertouch_c, 0, 51, 0
1, 635629, Note_on_c, 0, 49, 45
1, 635673, Note_on_c, 0, 63, 55
1, 635739, Note_on_c, 0, 68, 57
1, 635830, Note_on_c, 0, 72, 60
1, 635832, Control_c, 0, 64, 120
1, 635851, Control_c, 0, 64, 102
1, 635871, Control_c, 0, 64, 85
1, 635889, Control_c, 0, 64, 69
1, 635907, Control_c, 0, 64, 61
1, 635945, Control_c, 0, 64, 69
1, 635963, Control_c, 0, 64, 78
1, 635982, Control_c, 0, 64, 86
1, 636000, Control_c, 0, 64, 96
1, 636019, Control_c, 0, 64, 112
1, 636035, Note_on_c, 0, 61, 48
1, 636038, Control_c, 0, 64, 127
1, 636112, Note_off_c, 0, 49, 32
1, 636112, Poly_aftertouch_c, 0, 49, 0
1, 636166, Note_off_c, 0, 61, 55
1, 636198, Note_off_c, 0, 63, 55
1, 636251, Note_on_c, 0, 49, 52
1, 636356, Control_c, 0, 67, 9
1, 636430, Control_c, 0, 67, 13
1, 636435, Note_on_c, 0, 51, 54
1, 636452, Note_off_c, 0, 49, 47
1, 636452, Poly_aftertouch_c, 0, 49, 0
1, 636496, Note_off_c, 0, 68, 35
1, 636622, Note_off_c, 0, 51, 54
1, 636622, Poly_aftertouch_c, 0, 51, 0
1, 636638, Control_c, 0, 67, 17
1, 636641, Note_on_c, 0, 49, 53
1, 636675, Note_on_c, 0, 80, 66
1, 636693, Control_c, 0, 67, 22
1, 636729, Control_c, 0, 67, 30
1, 636739, Note_off_c, 0, 49, 56
1, 636739, Poly_aftertouch_c, 0, 49, 0
1, 636749, Control_c, 0, 67, 36
1, 636761, Note_off_c, 0, 80, 63
1, 636761, Poly_aftertouch_c, 0, 80, 0
1, 636767, Control_c, 0, 67, 44
1, 636784, Note_off_c, 0, 72, 56
1, 636784, Poly_aftertouch_c, 0, 72, 0
1, 636785, Control_c, 0, 67, 51
1, 636804, Control_c, 0, 67, 56
1, 636843, Control_c, 0, 67, 60
1, 636853, Note_on_c, 0, 49, 43
1, 636938, Note_on_c, 0, 63, 37
1, 637019, Note_on_c, 0, 70, 48
1, 637066, Control_c, 0, 64, 121
1, 637079, Note_on_c, 0, 73, 56
1, 637085, Control_c, 0, 64, 98
1, 637086, Control_c, 0, 67, 65
1, 637105, Control_c, 0, 64, 77
1, 637123, Note_off_c, 0, 49, 42
1, 637123, Poly_aftertouch_c, 0, 49, 0
1, 637123, Control_c, 0, 64, 68
1, 637126, Note_off_c, 0, 63, 37
1, 637127, Note_on_c, 0, 37, 39
1, 637142, Control_c, 0, 64, 72
1, 637152, Note_on_c, 0, 78, 66
1, 637161, Control_c, 0, 64, 82
1, 637179, Control_c, 0, 64, 96
1, 637198, Control_c, 0, 64, 119
1, 637216, Control_c, 0, 64, 127
1, 637219, Note_off_c, 0, 73, 60
1, 637242, Note_off_c, 0, 70, 30
1, 637297, Note_off_c, 0, 37, 56
1, 637297, Poly_aftertouch_c, 0, 37, 0
1, 637367, Note_off_c, 0, 78, 62
1, 637372, Note_on_c, 0, 49, 44
1, 637384, Note_on_c, 0, 80, 69
1, 637595, Note_on_c, 0, 82, 71
1, 637605, Note_off_c, 0, 80, 58
1, 637605, Poly_aftertouch_c, 0, 80, 0
1, 637610, Note_on_c, 0, 51, 44
1, 637622, Note_off_c, 0, 49, 37
1, 637622, Poly_aftertouch_c, 0, 49, 0
1, 637659, Note_off_c, 0, 82, 61
1, 637790, Note_off_c, 0, 51, 53
1, 637790, Poly_aftertouch_c, 0, 51, 0
1, 637808, Note_on_c, 0, 49, 47
1, 637860, Note_on_c, 0, 63, 48
1, 637935, Note_on_c, 0, 68, 48
1, 637997, Note_on_c, 0, 72, 55
1, 638040, Control_c, 0, 64, 114
1, 638057, Control_c, 0, 64, 92
1, 638077, Control_c, 0, 64, 69
1, 638096, Control_c, 0, 64, 55
1, 638134, Control_c, 0, 64, 66
1, 638151, Control_c, 0, 64, 75
1, 638171, Control_c, 0, 64, 87
1, 638189, Control_c, 0, 64, 106
1, 638207, Control_c, 0, 64, 127
1, 638220, Note_on_c, 0, 61, 47
1, 638303, Note_off_c, 0, 49, 32
1, 638303, Poly_aftertouch_c, 0, 49, 0
1, 638343, Note_off_c, 0, 61, 54
1, 638346, Note_off_c, 0, 63, 47
1, 638437, Note_on_c, 0, 49, 44
1, 638530, Note_off_c, 0, 68, 58
1, 638663, Note_off_c, 0, 49, 46
1, 638663, Poly_aftertouch_c, 0, 49, 0
1, 638664, Note_on_c, 0, 51, 44
1, 638749, Control_c, 0, 67, 69
1, 638874, Note_off_c, 0, 51, 54
1, 638874, Poly_aftertouch_c, 0, 51, 0
1, 638879, Note_on_c, 0, 49, 46
1, 638954, Note_on_c, 0, 80, 61
1, 638995, Note_off_c, 0, 49, 54
1, 638995, Poly_aftertouch_c, 0, 49, 0
1, 639025, Note_off_c, 0, 72, 55
1, 639025, Poly_aftertouch_c, 0, 72, 0
1, 639027, Note_off_c, 0, 80, 61
1, 639027, Poly_aftertouch_c, 0, 80, 0
1, 639049, Control_c, 0, 67, 75
1, 639066, Control_c, 0, 67, 80
1, 639086, Control_c, 0, 67, 86
1, 639105, Control_c, 0, 67, 90
1, 639124, Control_c, 0, 67, 94
1, 639140, Note_on_c, 0, 49, 42
1, 639160, Control_c, 0, 67, 99
1, 639217, Control_c, 0, 67, 104
1, 639242, Note_on_c, 0, 63, 48
1, 639272, Control_c, 0, 67, 108
1, 639321, Note_on_c, 0, 70, 43
1, 639328, Control_c, 0, 67, 112
1, 639401, Note_on_c, 0, 73, 49
1, 639404, Control_c, 0, 67, 116
1, 639461, Control_c, 0, 64, 113
1, 639477, Note_on_c, 0, 37, 37
1, 639477, Control_c, 0, 64, 98
1, 639478, Control_c, 0, 67, 121
1, 639485, Note_off_c, 0, 49, 36
1, 639485, Poly_aftertouch_c, 0, 49, 0
1, 639498, Control_c, 0, 64, 80
1, 639506, Note_on_c, 0, 78, 53
1, 639516, Control_c, 0, 64, 65
1, 639518, Note_off_c, 0, 63, 38
1, 639534, Control_c, 0, 64, 61
1, 639554, Control_c, 0, 64, 68
1, 639572, Control_c, 0, 64, 78
1, 639592, Note_off_c, 0, 73, 59
1, 639592, Control_c, 0, 64, 91
1, 639611, Control_c, 0, 64, 109
1, 639612, Note_off_c, 0, 70, 56
1, 639628, Control_c, 0, 64, 127
1, 639739, Note_off_c, 0, 37, 40
1, 639739, Poly_aftertouch_c, 0, 37, 0
1, 639753, Note_off_c, 0, 78, 63
1, 639780, Note_on_c, 0, 80, 58
1, 639797, Note_on_c, 0, 49, 39
1, 640032, Note_on_c, 0, 82, 59
1, 640058, Note_off_c, 0, 80, 29
1, 640058, Poly_aftertouch_c, 0, 80, 0
1, 640078, Note_off_c, 0, 49, 37
1, 640078, Note_on_c, 0, 51, 36
1, 640078, Poly_aftertouch_c, 0, 49, 0
1, 640113, Note_off_c, 0, 82, 58
1, 640295, Note_off_c, 0, 51, 40
1, 640295, Poly_aftertouch_c, 0, 51, 0
1, 640297, Note_on_c, 0, 49, 37
1, 640347, Note_on_c, 0, 63, 36
1, 640421, Note_on_c, 0, 68, 43
1, 640496, Note_on_c, 0, 72, 52
1, 640526, Control_c, 0, 64, 122
1, 640545, Control_c, 0, 64, 114
1, 640563, Control_c, 0, 64, 103
1, 640582, Control_c, 0, 64, 90
1, 640601, Control_c, 0, 64, 76
1, 640619, Control_c, 0, 64, 66
1, 640619, Control_c, 0, 67, 117
1, 640638, Control_c, 0, 64, 64
1, 640657, Control_c, 0, 64, 68
1, 640675, Control_c, 0, 64, 73
1, 640694, Control_c, 0, 64, 78
1, 640712, Control_c, 0, 64, 83
1, 640733, Control_c, 0, 64, 92
1, 640750, Control_c, 0, 64, 102
1, 640769, Control_c, 0, 64, 113
1, 640786, Note_on_c, 0, 61, 39
1, 640786, Control_c, 0, 64, 123
1, 640807, Control_c, 0, 64, 127
1, 640850, Note_off_c, 0, 49, 35
1, 640850, Poly_aftertouch_c, 0, 49, 0
1, 640958, Note_off_c, 0, 61, 45
1, 640994, Control_c, 0, 67, 113
1, 641029, Note_on_c, 0, 49, 42
1, 641248, Note_on_c, 0, 51, 38
1, 641257, Note_off_c, 0, 49, 35
1, 641257, Poly_aftertouch_c, 0, 49, 0
1, 641467, Note_off_c, 0, 51, 53
1, 641467, Poly_aftertouch_c, 0, 51, 0
1, 641491, Note_on_c, 0, 49, 39
1, 641508, Note_on_c, 0, 75, 51
1, 641515, Note_off_c, 0, 72, 48
1, 641515, Poly_aftertouch_c, 0, 72, 0
1, 641515, Control_c, 0, 67, 109
1, 641599, Note_off_c, 0, 68, 57
1, 641605, Note_off_c, 0, 49, 50
1, 641605, Poly_aftertouch_c, 0, 49, 0
1, 641658, Note_off_c, 0, 63, 39
1, 641704, Note_off_c, 0, 75, 34
1, 641777, Note_on_c, 0, 49, 38
1, 641873, Note_on_c, 0, 60, 43
1, 641951, Note_on_c, 0, 66, 39
1, 642010, Note_on_c, 0, 68, 43
1, 642039, Note_off_c, 0, 49, 33
1, 642039, Poly_aftertouch_c, 0, 49, 0
1, 642060, Note_on_c, 0, 37, 38
1, 642134, Control_c, 0, 64, 120
1, 642152, Control_c, 0, 64, 115
1, 642154, Poly_aftertouch_c, 0, 60, 22
1, 642172, Control_c, 0, 64, 108
1, 642190, Control_c, 0, 64, 98
1, 642209, Control_c, 0, 64, 86
1, 642223, Note_on_c, 0, 75, 67
1, 642228, Control_c, 0, 64, 73
1, 642246, Control_c, 0, 64, 65
1, 642265, Control_c, 0, 64, 64
1, 642284, Control_c, 0, 64, 68
1, 642302, Control_c, 0, 64, 74
1, 642320, Control_c, 0, 64, 80
1, 642340, Control_c, 0, 64, 88
1, 642355, Note_off_c, 0, 60, 19
1, 642355, Poly_aftertouch_c, 0, 60, 0
1, 642357, Control_c, 0, 64, 100
1, 642379, Control_c, 0, 64, 116
1, 642396, Control_c, 0, 64, 127
1, 642422, Note_off_c, 0, 37, 46
1, 642422, Poly_aftertouch_c, 0, 37, 0
1, 642438, Note_off_c, 0, 66, 51
1, 642445, Note_off_c, 0, 68, 58
1, 642485, Note_on_c, 0, 49, 43
1, 642551, Note_off_c, 0, 75, 58
1, 642656, Note_on_c, 0, 61, 44
1, 642670, Note_off_c, 0, 49, 49
1, 642670, Poly_aftertouch_c, 0, 49, 0
1, 642707, Note_on_c, 0, 51, 39
1, 642736, Note_on_c, 0, 68, 44
1, 642752, Note_off_c, 0, 61, 55
1, 642820, Note_on_c, 0, 73, 52
1, 642918, Note_off_c, 0, 51, 51
1, 642918, Poly_aftertouch_c, 0, 51, 0
1, 642943, Note_on_c, 0, 77, 73
1, 642969, Note_on_c, 0, 49, 44
1, 643013, Control_c, 0, 64, 107
1, 643030, Control_c, 0, 64, 88
1, 643050, Control_c, 0, 64, 74
1, 643069, Control_c, 0, 64, 72
1, 643088, Control_c, 0, 64, 77
1, 643107, Control_c, 0, 64, 83
1, 643126, Control_c, 0, 64, 93
1, 643144, Control_c, 0, 64, 109
1, 643163, Control_c, 0, 64, 127
1, 643229, Note_on_c, 0, 61, 38
1, 643256, Note_off_c, 0, 73, 36
1, 643271, Note_off_c, 0, 49, 36
1, 643271, Poly_aftertouch_c, 0, 49, 0
1, 643307, Note_off_c, 0, 77, 45
1, 643307, Poly_aftertouch_c, 0, 77, 0
1, 643326, Note_off_c, 0, 61, 48
1, 643333, Note_off_c, 0, 68, 33
1, 643434, Note_on_c, 0, 49, 44
1, 643450, Note_on_c, 0, 63, 41
1, 643509, Note_on_c, 0, 68, 37
1, 643561, Note_on_c, 0, 72, 44
1, 643716, Note_on_c, 0, 78, 64
1, 643722, Control_c, 0, 64, 120
1, 643726, Poly_aftertouch_c, 0, 49, 24
1, 643742, Control_c, 0, 64, 115
1, 643747, Note_on_c, 0, 51, 30
1, 643761, Control_c, 0, 64, 107
1, 643778, Control_c, 0, 64, 96
1, 643798, Control_c, 0, 64, 80
1, 643807, Note_off_c, 0, 49, 29
1, 643807, Poly_aftertouch_c, 0, 49, 0
1, 643817, Control_c, 0, 64, 63
1, 643836, Control_c, 0, 64, 50
1, 643854, Control_c, 0, 64, 39
1, 643874, Control_c, 0, 64, 41
1, 643893, Control_c, 0, 64, 51
1, 643911, Control_c, 0, 64, 63
1, 643929, Control_c, 0, 64, 74
1, 643947, Control_c, 0, 64, 86
1, 643966, Control_c, 0, 64, 99
1, 643985, Control_c, 0, 64, 113
1, 644003, Control_c, 0, 64, 125
1, 644026, Note_on_c, 0, 49, 39
1, 644033, Note_off_c, 0, 78, 64
1, 644049, Note_off_c, 0, 72, 36
1, 644049, Poly_aftertouch_c, 0, 72, 0
1, 644070, Note_off_c, 0, 51, 39
1, 644070, Poly_aftertouch_c, 0, 51, 0
1, 644077, Note_off_c, 0, 63, 51
1, 644140, Note_off_c, 0, 49, 53
1, 644140, Poly_aftertouch_c, 0, 49, 0
1, 644171, Control_c, 0, 67, 113
1, 644180, Note_off_c, 0, 68, 34
1, 644341, Note_on_c, 0, 49, 35
1, 644371, Note_on_c, 0, 61, 43
1, 644465, Note_on_c, 0, 68, 38
1, 644471, Note_off_c, 0, 61, 53
1, 644486, Note_off_c, 0, 49, 33
1, 644486, Poly_aftertouch_c, 0, 49, 0
1, 644550, Note_on_c, 0, 73, 51
1, 644682, Note_on_c, 0, 37, 33
1, 644733, Control_c, 0, 64, 121
1, 644754, Control_c, 0, 64, 117
1, 644770, Control_c, 0, 64, 113
1, 644808, Control_c, 0, 64, 106
1, 644826, Control_c, 0, 64, 102
1, 644829, Note_on_c, 0, 77, 60
1, 644845, Control_c, 0, 64, 98
1, 644847, Control_c, 0, 67, 117
1, 644864, Control_c, 0, 64, 90
1, 644884, Control_c, 0, 64, 79
1, 644902, Control_c, 0, 64, 68
1, 644920, Control_c, 0, 64, 57
1, 644938, Control_c, 0, 64, 44
1, 644958, Control_c, 0, 64, 26
1, 644975, Control_c, 0, 64, 16
1, 644995, Control_c, 0, 64, 23
1, 645014, Control_c, 0, 64, 39
1, 645033, Control_c, 0, 64, 54
1, 645050, Control_c, 0, 64, 68
1, 645071, Control_c, 0, 64, 79
1, 645089, Control_c, 0, 64, 88
1, 645107, Control_c, 0, 64, 97
1, 645127, Control_c, 0, 64, 106
1, 645144, Control_c, 0, 64, 115
1, 645163, Control_c, 0, 64, 123
1, 645181, Control_c, 0, 64, 127
1, 645183, Note_off_c, 0, 37, 41
1, 645183, Poly_aftertouch_c, 0, 37, 0
1, 645219, Note_on_c, 0, 49, 35
1, 645430, Note_off_c, 0, 49, 36
1, 645430, Poly_aftertouch_c, 0, 49, 0
1, 645470, Note_on_c, 0, 51, 30
1, 645705, Note_off_c, 0, 51, 40
1, 645705, Poly_aftertouch_c, 0, 51, 0
1, 645728, Note_on_c, 0, 49, 37
1, 645994, Note_on_c, 0, 61, 33
1, 646020, Note_off_c, 0, 49, 32
1, 646020, Poly_aftertouch_c, 0, 49, 0
1, 646189, Note_off_c, 0, 61, 40
1, 646254, Note_on_c, 0, 49, 36
1, 646364, Note_off_c, 0, 77, 36
1, 646364, Poly_aftertouch_c, 0, 77, 0
1, 646472, Note_off_c, 0, 68, 32
1, 646474, Note_off_c, 0, 73, 27
1, 646646, Note_on_c, 0, 51, 30
1, 646658, Control_c, 0, 64, 123
1, 646715, Control_c, 0, 64, 119
1, 646717, Control_c, 0, 67, 122
1, 646726, Note_off_c, 0, 49, 25
1, 646726, Poly_aftertouch_c, 0, 49, 0
1, 646753, Control_c, 0, 64, 112
1, 646771, Control_c, 0, 64, 106
1, 646789, Control_c, 0, 64, 97
1, 646808, Control_c, 0, 64, 84
1, 646828, Control_c, 0, 64, 72
1, 646830, Control_c, 0, 67, 126
1, 646847, Control_c, 0, 64, 65
1, 646884, Control_c, 0, 64, 68
1, 646902, Control_c, 0, 64, 71
1, 646920, Control_c, 0, 64, 74
1, 646939, Control_c, 0, 64, 78
1, 646958, Control_c, 0, 64, 83
1, 646978, Control_c, 0, 64, 90
1, 646995, Control_c, 0, 64, 99
1, 647015, Control_c, 0, 64, 109
1, 647033, Control_c, 0, 64, 116
1, 647052, Control_c, 0, 64, 123
1, 647070, Control_c, 0, 64, 127
1, 647097, Note_on_c, 0, 49, 31
1, 647183, Note_off_c, 0, 51, 39
1, 647183, Poly_aftertouch_c, 0, 51, 0
1, 647291, Note_off_c, 0, 49, 35
1, 647291, Poly_aftertouch_c, 0, 49, 0
1, 647602, Note_on_c, 0, 49, 23
1, 647773, Note_off_c, 0, 49, 36
1, 647773, Poly_aftertouch_c, 0, 49, 0
1, 648296, Note_on_c, 0, 70, 35
1, 648317, Note_on_c, 0, 61, 24
1, 648369, Note_on_c, 0, 34, 28
1, 648398, Control_c, 0, 64, 123
1, 648416, Control_c, 0, 64, 119
1, 648435, Control_c, 0, 64, 113
1, 648455, Control_c, 0, 64, 105
1, 648472, Control_c, 0, 64, 95
1, 648492, Control_c, 0, 64, 81
1, 648510, Control_c, 0, 64, 65
1, 648529, Control_c, 0, 64, 52
1, 648547, Control_c, 0, 64, 43
1, 648567, Control_c, 0, 64, 46
1, 648585, Control_c, 0, 64, 55
1, 648604, Control_c, 0, 64, 64
1, 648622, Control_c, 0, 64, 73
1, 648641, Control_c, 0, 64, 82
1, 648661, Control_c, 0, 64, 93
1, 648678, Control_c, 0, 64, 107
1, 648696, Control_c, 0, 64, 120
1, 648716, Control_c, 0, 64, 127
1, 648745, Note_off_c, 0, 34, 39
1, 648883, Note_off_c, 0, 61, 40
1, 648895, Note_off_c, 0, 70, 41
1, 649229, Note_on_c, 0, 73, 31
1, 649253, Note_on_c, 0, 65, 28
1, 649557, Note_off_c, 0, 65, 36
1, 649557, Poly_aftertouch_c, 0, 65, 0
1, 649593, Note_off_c, 0, 73, 40
1, 649700, Note_on_c, 0, 61, 30
1, 649705, Note_on_c, 0, 53, 30
1, 650073, Note_off_c, 0, 61, 41
1, 650108, Note_on_c, 0, 58, 32
1, 650118, Note_on_c, 0, 63, 35
1, 650118, Control_c, 0, 67, 122
1, 650177, Poly_aftertouch_c, 0, 53, 24
1, 650214, Note_off_c, 0, 63, 56
1, 650223, Note_off_c, 0, 53, 40
1, 650223, Poly_aftertouch_c, 0, 53, 0
1, 650227, Note_off_c, 0, 58, 56
1, 650687, Note_on_c, 0, 77, 40
1, 650718, Note_on_c, 0, 68, 30
1, 650773, Note_on_c, 0, 41, 27
1, 650828, Control_c, 0, 64, 121
1, 650848, Control_c, 0, 64, 111
1, 650866, Control_c, 0, 64, 97
1, 650885, Control_c, 0, 64, 80
1, 650904, Control_c, 0, 64, 61
1, 650922, Control_c, 0, 64, 43
1, 650942, Control_c, 0, 64, 28
1, 650959, Control_c, 0, 64, 33
1, 650978, Control_c, 0, 64, 47
1, 650999, Control_c, 0, 64, 60
1, 651015, Control_c, 0, 64, 73
1, 651034, Control_c, 0, 64, 85
1, 651053, Control_c, 0, 64, 99
1, 651072, Control_c, 0, 64, 115
1, 651090, Control_c, 0, 64, 127
1, 651107, Note_off_c, 0, 41, 42
1, 651107, Poly_aftertouch_c, 0, 41, 0
1, 651214, Note_off_c, 0, 68, 44
1, 651241, Note_off_c, 0, 77, 33
1, 651241, Poly_aftertouch_c, 0, 77, 0
1, 651399, Note_on_c, 0, 72, 34
1, 651422, Note_on_c, 0, 65, 26
1, 651601, Note_off_c, 0, 65, 37
1, 651601, Poly_aftertouch_c, 0, 65, 0
1, 651613, Note_off_c, 0, 72, 40
1, 651613, Poly_aftertouch_c, 0, 72, 0
1, 651805, Note_on_c, 0, 65, 32
1, 651843, Note_on_c, 0, 56, 35
1, 651988, Control_c, 0, 67, 118
1, 652062, Note_off_c, 0, 56, 29
1, 652163, Note_off_c, 0, 65, 33
1, 652163, Poly_aftertouch_c, 0, 65, 0
1, 652177, Note_on_c, 0, 60, 31
1, 652185, Note_on_c, 0, 53, 31
1, 652257, Note_off_c, 0, 60, 56
1, 652257, Poly_aftertouch_c, 0, 60, 0
1, 652283, Note_off_c, 0, 53, 55
1, 652283, Poly_aftertouch_c, 0, 53, 0
1, 652307, Control_c, 0, 67, 114
1, 652400, Control_c, 0, 67, 110
1, 652530, Control_c, 0, 67, 106
1, 652555, Note_on_c, 0, 70, 40
1, 652573, Note_on_c, 0, 61, 34
1, 652601, Note_on_c, 0, 42, 36
1, 652624, Control_c, 0, 64, 113
1, 652643, Control_c, 0, 64, 100
1, 652661, Control_c, 0, 64, 81
1, 652681, Control_c, 0, 64, 61
1, 652698, Control_c, 0, 64, 44
1, 652717, Control_c, 0, 64, 37
1, 652736, Control_c, 0, 64, 46
1, 652755, Control_c, 0, 64, 60
1, 652756, Control_c, 0, 67, 101
1, 652775, Control_c, 0, 64, 77
1, 652792, Control_c, 0, 64, 94
1, 652811, Control_c, 0, 64, 116
1, 652814, Note_off_c, 0, 42, 55
1, 652829, Control_c, 0, 64, 127
1, 652866, Control_c, 0, 67, 97
1, 652919, Note_off_c, 0, 61, 42
1, 652976, Note_on_c, 0, 73, 40
1, 652982, Note_on_c, 0, 66, 32
1, 653017, Control_c, 0, 67, 93
1, 653147, Control_c, 0, 67, 89
1, 653173, Note_off_c, 0, 70, 35
1, 653185, Control_c, 0, 67, 84
1, 653206, Note_off_c, 0, 66, 31
1, 653253, Note_off_c, 0, 73, 36
1, 653260, Control_c, 0, 67, 80
1, 653312, Note_on_c, 0, 61, 36
1, 653334, Note_on_c, 0, 54, 33
1, 653552, Note_off_c, 0, 61, 30
1, 653650, Note_on_c, 0, 58, 30
1, 653673, Note_on_c, 0, 63, 34
1, 653688, Note_off_c, 0, 54, 24
1, 653727, Control_c, 0, 67, 84
1, 653730, Note_off_c, 0, 63, 59
1, 653743, Note_off_c, 0, 58, 53
1, 653765, Control_c, 0, 67, 88
1, 653801, Control_c, 0, 67, 95
1, 653838, Control_c, 0, 67, 102
1, 653858, Control_c, 0, 67, 107
1, 653876, Control_c, 0, 67, 112
1, 653932, Control_c, 0, 67, 116
1, 654114, Note_on_c, 0, 77, 45
1, 654130, Note_on_c, 0, 68, 35
1, 654176, Control_c, 0, 64, 117
1, 654189, Note_on_c, 0, 37, 31
1, 654193, Control_c, 0, 64, 101
1, 654213, Control_c, 0, 64, 82
1, 654233, Control_c, 0, 64, 64
1, 654250, Control_c, 0, 64, 54
1, 654288, Control_c, 0, 64, 56
1, 654306, Control_c, 0, 64, 64
1, 654325, Control_c, 0, 64, 73
1, 654344, Control_c, 0, 64, 83
1, 654364, Control_c, 0, 64, 98
1, 654381, Control_c, 0, 64, 115
1, 654399, Note_off_c, 0, 37, 42
1, 654399, Poly_aftertouch_c, 0, 37, 0
1, 654400, Control_c, 0, 64, 127
1, 654456, Control_c, 0, 67, 112
1, 654564, Note_on_c, 0, 73, 42
1, 654586, Control_c, 0, 67, 108
1, 654597, Note_on_c, 0, 65, 27
1, 654647, Note_off_c, 0, 68, 36
1, 654689, Note_off_c, 0, 65, 45
1, 654689, Poly_aftertouch_c, 0, 65, 0
1, 654692, Note_off_c, 0, 77, 39
1, 654692, Poly_aftertouch_c, 0, 77, 0
1, 654699, Control_c, 0, 67, 104
1, 654761, Note_off_c, 0, 73, 33
1, 654774, Control_c, 0, 67, 99
1, 654885, Note_on_c, 0, 65, 38
1, 654920, Note_on_c, 0, 56, 40
1, 655029, Note_off_c, 0, 56, 42
1, 655213, Note_off_c, 0, 65, 25
1, 655213, Poly_aftertouch_c, 0, 65, 0
1, 655226, Note_on_c, 0, 53, 31
1, 655236, Note_on_c, 0, 61, 34
1, 655282, Note_off_c, 0, 61, 57
1, 655285, Note_off_c, 0, 53, 61
1, 655285, Poly_aftertouch_c, 0, 53, 0
1, 655609, Note_on_c, 0, 73, 57
1, 655653, Note_on_c, 0, 64, 31
1, 655672, Control_c, 0, 64, 113
1, 655688, Note_on_c, 0, 37, 33
1, 655688, Control_c, 0, 64, 93
1, 655710, Control_c, 0, 64, 66
1, 655711, Control_c, 0, 67, 103
1, 655728, Control_c, 0, 64, 33
1, 655747, Control_c, 0, 64, 0
1, 655783, Control_c, 0, 64, 33
1, 655802, Control_c, 0, 64, 62
1, 655823, Control_c, 0, 64, 83
1, 655840, Control_c, 0, 64, 103
1, 655859, Control_c, 0, 64, 127
1, 655894, Note_off_c, 0, 37, 37
1, 655894, Poly_aftertouch_c, 0, 37, 0
1, 656046, Control_c, 0, 67, 109
1, 656059, Note_on_c, 0, 76, 46
1, 656065, Control_c, 0, 67, 117
1, 656085, Control_c, 0, 67, 126
1, 656089, Note_off_c, 0, 64, 33
1, 656089, Poly_aftertouch_c, 0, 64, 0
1, 656092, Note_on_c, 0, 68, 29
1, 656249, Note_off_c, 0, 68, 36
1, 656273, Note_off_c, 0, 73, 35
1, 656317, Note_off_c, 0, 76, 57
1, 656421, Note_on_c, 0, 64, 40
1, 656430, Note_on_c, 0, 56, 35
1, 656602, Note_off_c, 0, 64, 48
1, 656602, Poly_aftertouch_c, 0, 64, 0
1, 656658, Note_off_c, 0, 56, 37
1, 656788, Note_on_c, 0, 61, 38
1, 656827, Note_on_c, 0, 68, 36
1, 656867, Note_off_c, 0, 61, 57
1, 656871, Note_off_c, 0, 68, 54
1, 657310, Note_on_c, 0, 83, 47
1, 657315, Note_on_c, 0, 75, 44
1, 657337, Control_c, 0, 64, 123
1, 657354, Control_c, 0, 64, 118
1, 657373, Control_c, 0, 64, 113
1, 657381, Note_on_c, 0, 35, 35
1, 657390, Control_c, 0, 64, 106
1, 657410, Control_c, 0, 64, 97
1, 657429, Control_c, 0, 64, 85
1, 657434, Note_on_c, 0, 47, 8
1, 657449, Control_c, 0, 64, 71
1, 657467, Control_c, 0, 64, 56
1, 657485, Control_c, 0, 64, 33
1, 657505, Control_c, 0, 64, 0
1, 657560, Control_c, 0, 64, 13
1, 657579, Control_c, 0, 64, 34
1, 657597, Control_c, 0, 64, 55
1, 657616, Control_c, 0, 64, 72
1, 657635, Control_c, 0, 64, 84
1, 657655, Control_c, 0, 64, 99
1, 657662, Note_off_c, 0, 35, 59
1, 657672, Control_c, 0, 64, 118
1, 657683, Poly_aftertouch_c, 0, 47, 20
1, 657688, Note_off_c, 0, 47, 39
1, 657688, Poly_aftertouch_c, 0, 47, 0
1, 657690, Control_c, 0, 64, 127
1, 657857, Note_off_c, 0, 75, 31
1, 657896, Note_on_c, 0, 78, 35
1, 657922, Note_on_c, 0, 71, 21
1, 658027, Note_off_c, 0, 71, 49
1, 658027, Poly_aftertouch_c, 0, 71, 0
1, 658042, Poly_aftertouch_c, 0, 83, 24
1, 658059, Note_off_c, 0, 83, 42
1, 658059, Poly_aftertouch_c, 0, 83, 0
1, 658081, Note_off_c, 0, 78, 35
1, 658238, Note_on_c, 0, 71, 41
1, 658256, Note_on_c, 0, 63, 44
1, 658448, Note_off_c, 0, 63, 38
1, 658458, Control_c, 0, 67, 120
1, 658495, Control_c, 0, 67, 116
1, 658512, Note_off_c, 0, 71, 36
1, 658512, Poly_aftertouch_c, 0, 71, 0
1, 658533, Control_c, 0, 67, 112
1, 658562, Note_on_c, 0, 59, 46
1, 658569, Control_c, 0, 67, 107
1, 658577, Note_on_c, 0, 66, 44
1, 658607, Control_c, 0, 67, 103
1, 658617, Note_off_c, 0, 66, 64
1, 658629, Note_off_c, 0, 59, 55
1, 658629, Poly_aftertouch_c, 0, 59, 0
1, 658664, Control_c, 0, 67, 98
1, 658701, Control_c, 0, 67, 93
1, 658758, Control_c, 0, 67, 89
1, 658922, Note_on_c, 0, 71, 53
1, 658944, Control_c, 0, 64, 114
1, 658954, Note_on_c, 0, 64, 41
1, 658964, Control_c, 0, 64, 94
1, 658981, Note_on_c, 0, 52, 33
1, 658981, Control_c, 0, 64, 72
1, 658982, Note_on_c, 0, 40, 38
1, 659000, Control_c, 0, 64, 49
1, 659019, Control_c, 0, 64, 0
1, 659057, Control_c, 0, 64, 11
1, 659074, Control_c, 0, 64, 41
1, 659075, Control_c, 0, 67, 85
1, 659093, Control_c, 0, 64, 64
1, 659113, Control_c, 0, 64, 83
1, 659114, Control_c, 0, 67, 81
1, 659124, Note_off_c, 0, 40, 58
1, 659124, Poly_aftertouch_c, 0, 40, 0
1, 659130, Control_c, 0, 64, 107
1, 659150, Control_c, 0, 64, 127
1, 659158, Note_off_c, 0, 52, 55
1, 659168, Control_c, 0, 67, 75
1, 659205, Control_c, 0, 67, 70
1, 659243, Control_c, 0, 67, 64
1, 659280, Control_c, 0, 67, 60
1, 659300, Note_on_c, 0, 76, 51
1, 659318, Control_c, 0, 67, 55
1, 659326, Note_on_c, 0, 68, 42
1, 659356, Control_c, 0, 67, 49
1, 659386, Note_off_c, 0, 64, 33
1, 659386, Poly_aftertouch_c, 0, 64, 0
1, 659425, Note_off_c, 0, 71, 49
1, 659425, Poly_aftertouch_c, 0, 71, 0
1, 659429, Control_c, 0, 67, 44
1, 659448, Note_off_c, 0, 68, 54
1, 659467, Note_off_c, 0, 76, 57
1, 659486, Control_c, 0, 67, 39
1, 659542, Control_c, 0, 67, 35
1, 659599, Control_c, 0, 67, 29
1, 659630, Note_on_c, 0, 56, 42
1, 659633, Note_on_c, 0, 64, 43
1, 659636, Control_c, 0, 67, 24
1, 659822, Control_c, 0, 67, 30
1, 659841, Control_c, 0, 67, 36
1, 659860, Control_c, 0, 67, 41
1, 659880, Control_c, 0, 67, 46
1, 659916, Control_c, 0, 67, 51
1, 659945, Note_on_c, 0, 68, 51
1, 659951, Note_on_c, 0, 59, 51
1, 659968, Note_off_c, 0, 64, 60
1, 659968, Poly_aftertouch_c, 0, 64, 0
1, 659991, Note_off_c, 0, 68, 65
1, 660029, Note_off_c, 0, 59, 57
1, 660029, Poly_aftertouch_c, 0, 59, 0
1, 660044, Note_off_c, 0, 56, 60
1, 660347, Note_on_c, 0, 83, 61
1, 660366, Note_on_c, 0, 75, 52
1, 660410, Note_on_c, 0, 35, 50
1, 660440, Control_c, 0, 64, 121
1, 660460, Control_c, 0, 64, 97
1, 660478, Control_c, 0, 64, 70
1, 660490, Note_on_c, 0, 47, 14
1, 660494, Control_c, 0, 64, 43
1, 660516, Control_c, 0, 64, 11
1, 660533, Control_c, 0, 64, 27
1, 660552, Control_c, 0, 64, 52
1, 660570, Control_c, 0, 64, 78
1, 660573, Note_off_c, 0, 47, 44
1, 660573, Poly_aftertouch_c, 0, 47, 0
1, 660590, Control_c, 0, 64, 107
1, 660609, Control_c, 0, 64, 127
1, 660614, Note_off_c, 0, 35, 61
1, 660702, Control_c, 0, 67, 47
1, 660741, Note_on_c, 0, 78, 54
1, 660767, Note_on_c, 0, 71, 40
1, 660829, Note_off_c, 0, 75, 39
1, 660843, Note_off_c, 0, 83, 56
1, 660843, Poly_aftertouch_c, 0, 83, 0
1, 660874, Note_off_c, 0, 71, 35
1, 660874, Poly_aftertouch_c, 0, 71, 0
1, 660892, Note_off_c, 0, 78, 53
1, 661061, Note_on_c, 0, 71, 44
1, 661062, Note_on_c, 0, 63, 48
1, 661311, Note_off_c, 0, 63, 36
1, 661334, Note_off_c, 0, 71, 50
1, 661334, Poly_aftertouch_c, 0, 71, 0
1, 661357, Note_on_c, 0, 59, 44
1, 661386, Note_on_c, 0, 66, 47
1, 661418, Note_off_c, 0, 66, 61
1, 661432, Note_off_c, 0, 59, 58
1, 661432, Poly_aftertouch_c, 0, 59, 0
1, 661729, Note_on_c, 0, 71, 61
1, 661750, Control_c, 0, 64, 118
1, 661751, Note_on_c, 0, 64, 40
1, 661767, Control_c, 0, 64, 95
1, 661775, Note_on_c, 0, 40, 51
1, 661777, Note_on_c, 0, 52, 52
1, 661786, Control_c, 0, 64, 68
1, 661805, Control_c, 0, 64, 40
1, 661823, Control_c, 0, 64, 0
1, 661842, Control_c, 0, 64, 19
1, 661845, Control_c, 0, 67, 42
1, 661861, Control_c, 0, 64, 45
1, 661862, Control_c, 0, 67, 38
1, 661881, Control_c, 0, 64, 69
1, 661882, Control_c, 0, 67, 34
1, 661898, Control_c, 0, 64, 92
1, 661900, Control_c, 0, 67, 30
1, 661917, Control_c, 0, 64, 127
1, 661918, Control_c, 0, 67, 26
1, 661920, Note_off_c, 0, 40, 59
1, 661920, Poly_aftertouch_c, 0, 40, 0
1, 661937, Control_c, 0, 67, 21
1, 661954, Note_off_c, 0, 52, 59
1, 661954, Control_c, 0, 67, 14
1, 662029, Control_c, 0, 67, 0
1, 662109, Note_on_c, 0, 76, 56
1, 662131, Note_on_c, 0, 68, 45
1, 662183, Poly_aftertouch_c, 0, 64, 24
1, 662229, Note_off_c, 0, 64, 40
1, 662229, Poly_aftertouch_c, 0, 64, 0
1, 662269, Note_off_c, 0, 71, 54
1, 662269, Poly_aftertouch_c, 0, 71, 0
1, 662323, Note_off_c, 0, 68, 37
1, 662359, Note_off_c, 0, 76, 57
1, 662419, Note_on_c, 0, 64, 47
1, 662421, Note_on_c, 0, 56, 52
1, 662750, Note_on_c, 0, 68, 59
1, 662757, Note_on_c, 0, 59, 56
1, 662781, Note_off_c, 0, 64, 62
1, 662781, Poly_aftertouch_c, 0, 64, 0
1, 662786, Note_off_c, 0, 68, 65
1, 662831, Note_off_c, 0, 59, 60
1, 662831, Poly_aftertouch_c, 0, 59, 0
1, 662843, Note_off_c, 0, 56, 61
1, 663225, Note_on_c, 0, 83, 68
1, 663245, Note_on_c, 0, 75, 55
1, 663283, Note_on_c, 0, 35, 48
1, 663308, Note_on_c, 0, 47, 36
1, 663338, Control_c, 0, 64, 110
1, 663357, Control_c, 0, 64, 83
1, 663377, Control_c, 0, 64, 56
1, 663394, Control_c, 0, 64, 31
1, 663413, Control_c, 0, 64, 26
1, 663432, Control_c, 0, 64, 43
1, 663450, Control_c, 0, 64, 66
1, 663469, Control_c, 0, 64, 89
1, 663488, Control_c, 0, 64, 122
1, 663506, Control_c, 0, 64, 127
1, 663565, Note_off_c, 0, 35, 60
1, 663594, Note_off_c, 0, 47, 57
1, 663594, Poly_aftertouch_c, 0, 47, 0
1, 663761, Note_on_c, 0, 78, 56
1, 663779, Note_on_c, 0, 71, 43
1, 663920, Note_off_c, 0, 75, 34
1, 663924, Note_off_c, 0, 71, 58
1, 663924, Poly_aftertouch_c, 0, 71, 0
1, 663992, Note_off_c, 0, 83, 56
1, 663992, Poly_aftertouch_c, 0, 83, 0
1, 664043, Note_off_c, 0, 78, 54
1, 664102, Note_on_c, 0, 71, 57
1, 664123, Note_on_c, 0, 63, 53
1, 664413, Note_off_c, 0, 63, 38
1, 664434, Note_on_c, 0, 59, 60
1, 664441, Note_on_c, 0, 66, 59
1, 664442, Note_off_c, 0, 71, 58
1, 664442, Poly_aftertouch_c, 0, 71, 0
1, 664479, Note_off_c, 0, 66, 65
1, 664505, Note_off_c, 0, 59, 59
1, 664505, Poly_aftertouch_c, 0, 59, 0
1, 664857, Note_on_c, 0, 81, 72
1, 664872, Note_on_c, 0, 75, 60
1, 664911, Note_on_c, 0, 35, 58
1, 664918, Note_on_c, 0, 47, 46
1, 664946, Control_c, 0, 64, 104
1, 664965, Control_c, 0, 64, 75
1, 664984, Control_c, 0, 64, 44
1, 665002, Control_c, 0, 64, 0
1, 665078, Control_c, 0, 64, 37
1, 665096, Control_c, 0, 64, 68
1, 665114, Control_c, 0, 64, 97
1, 665133, Control_c, 0, 64, 127
1, 665177, Note_off_c, 0, 35, 59
1, 665209, Note_off_c, 0, 47, 57
1, 665209, Poly_aftertouch_c, 0, 47, 0
1, 665367, Note_on_c, 0, 78, 63
1, 665406, Note_on_c, 0, 69, 44
1, 665523, Note_off_c, 0, 69, 58
1, 665561, Note_off_c, 0, 81, 54
1, 665608, Note_off_c, 0, 75, 30
1, 665629, Note_off_c, 0, 78, 56
1, 665696, Note_on_c, 0, 69, 64
1, 665714, Note_on_c, 0, 63, 59
1, 666006, Note_off_c, 0, 69, 61
1, 666024, Note_on_c, 0, 57, 57
1, 666027, Note_on_c, 0, 66, 65
1, 666073, Note_off_c, 0, 66, 64
1, 666079, Note_off_c, 0, 63, 57
1, 666112, Note_off_c, 0, 57, 61
1, 666112, Poly_aftertouch_c, 0, 57, 0
1, 666418, Note_on_c, 0, 81, 78
1, 666435, Note_on_c, 0, 75, 65
1, 666460, Control_c, 0, 64, 121
1, 666479, Control_c, 0, 64, 92
1, 666495, Note_on_c, 0, 36, 71
1, 666499, Note_on_c, 0, 48, 62
1, 666500, Control_c, 0, 64, 63
1, 666517, Control_c, 0, 64, 37
1, 666536, Control_c, 0, 64, 0
1, 666573, Control_c, 0, 64, 28
1, 666592, Control_c, 0, 64, 55
1, 666610, Control_c, 0, 64, 79
1, 666629, Control_c, 0, 64, 103
1, 666648, Control_c, 0, 64, 127
1, 666696, Note_off_c, 0, 48, 51
1, 666739, Note_off_c, 0, 36, 62
1, 666919, Note_on_c, 0, 78, 70
1, 666940, Note_on_c, 0, 69, 50
1, 667110, Note_off_c, 0, 69, 60
1, 667118, Note_off_c, 0, 81, 57
1, 667210, Note_off_c, 0, 75, 52
1, 667249, Note_off_c, 0, 78, 57
1, 667265, Note_on_c, 0, 69, 73
1, 667284, Note_on_c, 0, 63, 65
1, 667631, Note_on_c, 0, 66, 71
1, 667635, Note_off_c, 0, 69, 62
1, 667635, Note_on_c, 0, 57, 69
1, 667699, Note_off_c, 0, 66, 64
1, 667714, Note_off_c, 0, 63, 53
1, 667739, Note_off_c, 0, 57, 62
1, 667739, Poly_aftertouch_c, 0, 57, 0
1, 667757, Poly_aftertouch_c, 0, 60, 0
1, 668034, Note_on_c, 0, 80, 82
1, 668060, Note_on_c, 0, 75, 70
1, 668094, Note_on_c, 0, 48, 74
1, 668107, Note_on_c, 0, 36, 76
1, 668126, Control_c, 0, 64, 119
1, 668144, Control_c, 0, 64, 90
1, 668163, Control_c, 0, 64, 57
1, 668181, Control_c, 0, 64, 0
1, 668274, Control_c, 0, 64, 51
1, 668293, Control_c, 0, 64, 81
1, 668315, Control_c, 0, 64, 115
1, 668317, Note_off_c, 0, 36, 62
1, 668331, Control_c, 0, 64, 127
1, 668384, Note_off_c, 0, 48, 61
1, 668548, Note_on_c, 0, 78, 78
1, 668564, Note_on_c, 0, 68, 60
1, 668737, Note_off_c, 0, 68, 54
1, 668760, Note_off_c, 0, 75, 57
1, 668765, Note_off_c, 0, 80, 54
1, 668765, Poly_aftertouch_c, 0, 80, 0
1, 668894, Note_on_c, 0, 68, 76
1, 668941, Note_on_c, 0, 63, 55
1, 668959, Note_off_c, 0, 78, 54
1, 669236, Note_on_c, 0, 66, 76
1, 669238, Note_on_c, 0, 56, 75
1, 669258, Note_off_c, 0, 68, 63
1, 669305, Note_off_c, 0, 63, 55
1, 669322, Note_off_c, 0, 66, 61
1, 669356, Note_on_c, 0, 72, 80
1, 669359, Note_off_c, 0, 56, 60
1, 669479, Note_on_c, 0, 75, 86
1, 669830, Note_on_c, 0, 82, 82
1, 669923, Note_on_c, 0, 32, 80
1, 669931, Note_on_c, 0, 44, 62
1, 669996, Control_c, 0, 64, 99
1, 670013, Control_c, 0, 64, 60
1, 670032, Control_c, 0, 64, 0
1, 670089, Control_c, 0, 64, 45
1, 670108, Control_c, 0, 64, 79
1, 670126, Control_c, 0, 64, 123
1, 670145, Control_c, 0, 64, 127
1, 670231, Note_off_c, 0, 32, 60
1, 670249, Note_off_c, 0, 44, 61
1, 670333, Note_on_c, 0, 80, 78
1, 670357, Note_off_c, 0, 82, 64
1, 670486, Note_off_c, 0, 75, 59
1, 670694, Note_on_c, 0, 78, 80
1, 670715, Note_on_c, 0, 73, 68
1, 670725, Note_on_c, 0, 70, 69
1, 670738, Note_on_c, 0, 56, 58
1, 670773, Note_off_c, 0, 80, 64
1, 670773, Poly_aftertouch_c, 0, 80, 0
1, 670783, Note_off_c, 0, 72, 51
1, 670783, Poly_aftertouch_c, 0, 72, 0
1, 670986, Note_off_c, 0, 70, 63
1, 671026, Note_off_c, 0, 78, 57
1, 671073, Note_on_c, 0, 77, 82
1, 671099, Note_on_c, 0, 72, 69
1, 671110, Note_on_c, 0, 68, 74
1, 671145, Note_off_c, 0, 73, 55
1, 671187, Poly_aftertouch_c, 0, 58, 127
1, 671245, Poly_aftertouch_c, 0, 61, 0
1, 671285, Poly_aftertouch_c, 0, 58, 0
1, 671295, Note_off_c, 0, 72, 54
1, 671295, Poly_aftertouch_c, 0, 72, 0
1, 671323, Note_off_c, 0, 56, 38
1, 671486, Note_off_c, 0, 68, 59
1, 671587, Note_on_c, 0, 74, 79
1, 671610, Note_on_c, 0, 72, 60
1, 671615, Note_on_c, 0, 56, 56
1, 671622, Note_on_c, 0, 65, 61
1, 671715, Control_c, 0, 64, 116
1, 671734, Control_c, 0, 64, 94
1, 671753, Control_c, 0, 64, 78
1, 671777, Note_off_c, 0, 77, 54
1, 671777, Poly_aftertouch_c, 0, 77, 0
1, 671790, Control_c, 0, 64, 87
1, 671810, Control_c, 0, 64, 100
1, 671827, Control_c, 0, 64, 118
1, 671846, Control_c, 0, 64, 127
1, 672147, Note_on_c, 0, 75, 80
1, 672173, Note_off_c, 0, 65, 54
1, 672173, Poly_aftertouch_c, 0, 65, 0
1, 672179, Note_on_c, 0, 66, 55
1, 672306, Note_off_c, 0, 66, 59
1, 672355, Note_off_c, 0, 74, 56
1, 672419, Note_off_c, 0, 75, 60
1, 672638, Note_on_c, 0, 65, 39
1, 672639, Note_on_c, 0, 74, 52
1, 672686, Note_off_c, 0, 65, 51
1, 672686, Poly_aftertouch_c, 0, 65, 0
1, 672706, Note_on_c, 0, 66, 48
1, 672720, Note_off_c, 0, 74, 60
1, 672723, Note_on_c, 0, 75, 62
1, 672767, Note_off_c, 0, 66, 58
1, 672792, Note_on_c, 0, 68, 59
1, 672804, Note_off_c, 0, 75, 63
1, 672821, Note_on_c, 0, 77, 69
1, 672877, Note_off_c, 0, 68, 62
1, 672891, Note_on_c, 0, 75, 74
1, 672895, Note_on_c, 0, 66, 69
1, 672911, Control_c, 0, 64, 122
1, 672949, Note_off_c, 0, 77, 56
1, 672949, Poly_aftertouch_c, 0, 77, 0
1, 672987, Control_c, 0, 64, 117
1, 673024, Control_c, 0, 64, 110
1, 673061, Control_c, 0, 64, 105
1, 673117, Control_c, 0, 64, 101
1, 673156, Control_c, 0, 64, 97
1, 673230, Control_c, 0, 64, 92
1, 673267, Control_c, 0, 64, 86
1, 673286, Control_c, 0, 64, 83
1, 673323, Control_c, 0, 64, 81
1, 673361, Control_c, 0, 64, 77
1, 673379, Control_c, 0, 64, 75
1, 673436, Control_c, 0, 64, 73
1, 673492, Control_c, 0, 64, 71
1, 673567, Control_c, 0, 64, 68
1, 673585, Control_c, 0, 64, 66
1, 673604, Control_c, 0, 64, 62
1, 673622, Control_c, 0, 64, 61
1, 673660, Control_c, 0, 64, 63
1, 673679, Control_c, 0, 64, 65
1, 673697, Control_c, 0, 64, 66
1, 673716, Control_c, 0, 64, 69
1, 673734, Control_c, 0, 64, 74
1, 673754, Control_c, 0, 64, 81
1, 673772, Control_c, 0, 64, 90
1, 673790, Control_c, 0, 64, 100
1, 673809, Control_c, 0, 64, 111
1, 673828, Control_c, 0, 64, 124
1, 674002, Note_off_c, 0, 66, 53
1, 674053, Note_off_c, 0, 72, 56
1, 674053, Poly_aftertouch_c, 0, 72, 0
1, 674092, Note_off_c, 0, 56, 34
1, 674426, Note_on_c, 0, 73, 73
1, 674516, Note_off_c, 0, 75, 65
1, 674694, Note_off_c, 0, 73, 62
1, 675027, Note_on_c, 0, 73, 77
1, 675074, Note_on_c, 0, 65, 53
1, 675115, Note_on_c, 0, 37, 55
1, 675118, Control_c, 0, 64, 106
1, 675137, Control_c, 0, 64, 84
1, 675156, Control_c, 0, 64, 70
1, 675175, Control_c, 0, 64, 68
1, 675193, Control_c, 0, 64, 73
1, 675212, Control_c, 0, 64, 86
1, 675230, Control_c, 0, 64, 111
1, 675249, Control_c, 0, 64, 127
1, 675456, Note_on_c, 0, 49, 57
1, 675483, Note_off_c, 0, 37, 53
1, 675483, Poly_aftertouch_c, 0, 37, 0
1, 675510, Note_off_c, 0, 65, 35
1, 675510, Poly_aftertouch_c, 0, 65, 0
1, 675551, Note_on_c, 0, 78, 83
1, 675577, Note_on_c, 0, 70, 66
1, 675728, Note_on_c, 0, 51, 65
1, 675771, Note_off_c, 0, 49, 39
1, 675771, Poly_aftertouch_c, 0, 49, 0
1, 675779, Note_off_c, 0, 70, 53
1, 675850, Note_off_c, 0, 78, 57
1, 675868, Note_off_c, 0, 73, 35
1, 676029, Note_on_c, 0, 49, 50
1, 676072, Note_off_c, 0, 51, 57
1, 676072, Poly_aftertouch_c, 0, 51, 0
1, 676138, Note_on_c, 0, 78, 78
1, 676183, Note_on_c, 0, 70, 59
1, 676296, Control_c, 0, 64, 112
1, 676316, Control_c, 0, 64, 107
1, 676333, Control_c, 0, 64, 115
1, 676352, Control_c, 0, 64, 127
1, 676478, Note_on_c, 0, 61, 59
1, 676558, Note_off_c, 0, 49, 34
1, 676558, Poly_aftertouch_c, 0, 49, 0
1, 676680, Note_off_c, 0, 61, 55
1, 676712, Note_on_c, 0, 49, 62
1, 676790, Note_off_c, 0, 78, 63
1, 676901, Note_on_c, 0, 51, 67
1, 676977, Note_off_c, 0, 49, 50
1, 676977, Poly_aftertouch_c, 0, 49, 0
1, 677077, Note_on_c, 0, 49, 63
1, 677122, Note_off_c, 0, 51, 59
1, 677122, Poly_aftertouch_c, 0, 51, 0
1, 677165, Note_on_c, 0, 77, 80
1, 677195, Note_off_c, 0, 49, 59
1, 677195, Note_on_c, 0, 68, 61
1, 677195, Poly_aftertouch_c, 0, 49, 0
1, 677260, Note_on_c, 0, 49, 50
1, 677370, Note_off_c, 0, 68, 38
1, 677412, Note_off_c, 0, 77, 48
1, 677412, Poly_aftertouch_c, 0, 77, 0
1, 677420, Note_off_c, 0, 70, 33
1, 677432, Note_on_c, 0, 37, 74
1, 677504, Note_off_c, 0, 49, 52
1, 677504, Poly_aftertouch_c, 0, 49, 0
1, 677530, Control_c, 0, 64, 122
1, 677549, Control_c, 0, 64, 95
1, 677560, Note_on_c, 0, 77, 83
1, 677568, Control_c, 0, 64, 66
1, 677576, Note_on_c, 0, 70, 55
1, 677587, Control_c, 0, 64, 49
1, 677603, Note_on_c, 0, 68, 55
1, 677604, Control_c, 0, 64, 53
1, 677624, Control_c, 0, 64, 70
1, 677643, Control_c, 0, 64, 91
1, 677661, Control_c, 0, 64, 127
1, 677762, Note_on_c, 0, 49, 67
1, 677764, Note_off_c, 0, 37, 59
1, 677764, Poly_aftertouch_c, 0, 37, 0
1, 677794, Note_off_c, 0, 68, 62
1, 677859, Note_on_c, 0, 75, 86
1, 677874, Note_on_c, 0, 67, 70
1, 677987, Note_on_c, 0, 51, 69
1, 678024, Note_off_c, 0, 49, 53
1, 678024, Poly_aftertouch_c, 0, 49, 0
1, 678078, Note_off_c, 0, 77, 49
1, 678078, Poly_aftertouch_c, 0, 77, 0
1, 678101, Note_off_c, 0, 67, 50
1, 678101, Poly_aftertouch_c, 0, 67, 0
1, 678149, Note_off_c, 0, 75, 58
1, 678171, Note_off_c, 0, 70, 35
1, 678180, Note_on_c, 0, 49, 67
1, 678227, Note_off_c, 0, 51, 55
1, 678227, Poly_aftertouch_c, 0, 51, 0
1, 678277, Note_on_c, 0, 75, 83
1, 678305, Note_on_c, 0, 67, 59
1, 678306, Note_on_c, 0, 70, 59
1, 678391, Control_c, 0, 64, 112
1, 678409, Control_c, 0, 64, 93
1, 678427, Control_c, 0, 64, 89
1, 678447, Control_c, 0, 64, 100
1, 678466, Control_c, 0, 64, 119
1, 678484, Control_c, 0, 64, 127
1, 678590, Note_on_c, 0, 61, 57
1, 678760, Note_off_c, 0, 61, 60
1, 678774, Note_off_c, 0, 49, 64
1, 678774, Note_on_c, 0, 49, 39
1, 678869, Note_off_c, 0, 67, 49
1, 678869, Poly_aftertouch_c, 0, 67, 0
1, 678924, Note_off_c, 0, 75, 60
1, 678927, Note_on_c, 0, 51, 69
1, 678954, Note_off_c, 0, 49, 57
1, 678954, Poly_aftertouch_c, 0, 49, 0
1, 679081, Note_on_c, 0, 49, 74
1, 679114, Note_off_c, 0, 51, 58
1, 679114, Poly_aftertouch_c, 0, 51, 0
1, 679160, Note_on_c, 0, 75, 88
1, 679170, Note_on_c, 0, 67, 74
1, 679221, Note_off_c, 0, 49, 59
1, 679221, Poly_aftertouch_c, 0, 49, 0
1, 679248, Note_off_c, 0, 67, 59
1, 679248, Poly_aftertouch_c, 0, 67, 0
1, 679281, Note_off_c, 0, 70, 58
1, 679300, Note_on_c, 0, 49, 61
1, 679338, Note_off_c, 0, 75, 50
1, 679475, Control_c, 0, 64, 112
1, 679490, Note_on_c, 0, 37, 71
1, 679492, Control_c, 0, 64, 81
1, 679499, Note_on_c, 0, 75, 79
1, 679501, Note_off_c, 0, 49, 47
1, 679501, Poly_aftertouch_c, 0, 49, 0
1, 679512, Control_c, 0, 64, 62
1, 679514, Note_on_c, 0, 72, 71
1, 679519, Note_on_c, 0, 66, 70
1, 679550, Control_c, 0, 64, 71
1, 679568, Control_c, 0, 64, 84
1, 679587, Control_c, 0, 64, 111
1, 679607, Control_c, 0, 64, 127
1, 679666, Note_off_c, 0, 66, 56
1, 679698, Note_off_c, 0, 37, 60
1, 679698, Poly_aftertouch_c, 0, 37, 0
1, 679716, Note_on_c, 0, 49, 70
1, 679731, Poly_aftertouch_c, 0, 68, 0
1, 679816, Note_on_c, 0, 82, 89
1, 679915, Note_off_c, 0, 49, 39
1, 679915, Poly_aftertouch_c, 0, 49, 0
1, 679924, Note_off_c, 0, 82, 65
1, 679933, Note_on_c, 0, 51, 66
1, 679942, Poly_aftertouch_c, 0, 78, 127
1, 679970, Poly_aftertouch_c, 0, 78, 0
1, 679982, Note_off_c, 0, 72, 59
1, 679982, Poly_aftertouch_c, 0, 72, 0
1, 680014, Note_off_c, 0, 75, 61
1, 680034, Note_on_c, 0, 66, 49
1, 680112, Note_on_c, 0, 72, 66
1, 680178, Note_on_c, 0, 75, 63
1, 680193, Note_off_c, 0, 51, 56
1, 680193, Poly_aftertouch_c, 0, 51, 0
1, 680204, Note_on_c, 0, 49, 58
1, 680371, Note_on_c, 0, 82, 88
1, 680430, Control_c, 0, 64, 113
1, 680447, Control_c, 0, 64, 93
1, 680466, Control_c, 0, 64, 76
1, 680486, Control_c, 0, 64, 73
1, 680523, Control_c, 0, 64, 80
1, 680541, Control_c, 0, 64, 93
1, 680559, Control_c, 0, 64, 119
1, 680578, Control_c, 0, 64, 127
1, 680671, Note_on_c, 0, 61, 53
1, 680702, Note_off_c, 0, 49, 50
1, 680702, Poly_aftertouch_c, 0, 49, 0
1, 680768, Note_off_c, 0, 72, 60
1, 680768, Poly_aftertouch_c, 0, 72, 0
1, 680777, Note_off_c, 0, 61, 59
1, 680782, Poly_aftertouch_c, 0, 67, 0
1, 680860, Note_on_c, 0, 49, 58
1, 680883, Note_off_c, 0, 82, 54
1, 681022, Note_off_c, 0, 66, 40
1, 681025, Note_on_c, 0, 51, 58
1, 681027, Note_off_c, 0, 49, 53
1, 681027, Poly_aftertouch_c, 0, 49, 0
1, 681202, Note_on_c, 0, 49, 61
1, 681216, Note_off_c, 0, 51, 57
1, 681216, Poly_aftertouch_c, 0, 51, 0
1, 681246, Note_on_c, 0, 80, 81
1, 681263, Note_on_c, 0, 73, 61
1, 681283, Note_on_c, 0, 65, 54
1, 681332, Note_off_c, 0, 49, 58
1, 681332, Poly_aftertouch_c, 0, 49, 0
1, 681378, Note_off_c, 0, 75, 61
1, 681386, Note_on_c, 0, 49, 46
1, 681398, Note_off_c, 0, 73, 61
1, 681470, Note_off_c, 0, 80, 58
1, 681470, Poly_aftertouch_c, 0, 80, 0
1, 681573, Note_on_c, 0, 70, 62
1, 681608, Note_on_c, 0, 37, 55
1, 681619, Note_on_c, 0, 73, 62
1, 681634, Note_off_c, 0, 49, 50
1, 681634, Poly_aftertouch_c, 0, 49, 0
1, 681738, Control_c, 0, 64, 114
1, 681753, Note_on_c, 0, 80, 83
1, 681756, Control_c, 0, 64, 94
1, 681774, Control_c, 0, 64, 78
1, 681793, Control_c, 0, 64, 72
1, 681814, Control_c, 0, 64, 76
1, 681831, Control_c, 0, 64, 87
1, 681850, Control_c, 0, 64, 105
1, 681868, Control_c, 0, 64, 127
1, 681953, Note_off_c, 0, 37, 57
1, 681953, Poly_aftertouch_c, 0, 37, 0
1, 681995, Note_on_c, 0, 49, 56
1, 682000, Note_off_c, 0, 80, 63
1, 682000, Poly_aftertouch_c, 0, 80, 0
1, 682094, Note_on_c, 0, 79, 82
1, 682236, Note_off_c, 0, 65, 42
1, 682236, Poly_aftertouch_c, 0, 65, 0
1, 682237, Poly_aftertouch_c, 0, 65, 0
1, 682238, Note_on_c, 0, 51, 54
1, 682256, Note_off_c, 0, 70, 54
1, 682270, Note_off_c, 0, 49, 38
1, 682270, Poly_aftertouch_c, 0, 49, 0
1, 682275, Note_off_c, 0, 73, 55
1, 682302, Note_off_c, 0, 79, 49
1, 682302, Poly_aftertouch_c, 0, 79, 0
1, 682351, Note_on_c, 0, 65, 48
1, 682422, Note_on_c, 0, 70, 57
1, 682430, Note_off_c, 0, 51, 56
1, 682430, Poly_aftertouch_c, 0, 51, 0
1, 682453, Note_on_c, 0, 49, 51
1, 682486, Note_on_c, 0, 73, 50
1, 682631, Note_on_c, 0, 79, 75
1, 682747, Control_c, 0, 64, 118
1, 682767, Control_c, 0, 64, 96
1, 682784, Control_c, 0, 64, 74
1, 682803, Control_c, 0, 64, 62
1, 682823, Control_c, 0, 64, 64
1, 682840, Control_c, 0, 64, 73
1, 682860, Control_c, 0, 64, 88
1, 682877, Note_on_c, 0, 61, 47
1, 682877, Control_c, 0, 64, 116
1, 682897, Control_c, 0, 64, 127
1, 682953, Note_off_c, 0, 49, 47
1, 682953, Poly_aftertouch_c, 0, 49, 0
1, 683038, Note_off_c, 0, 61, 60
1, 683076, Note_on_c, 0, 49, 53
1, 683127, Note_off_c, 0, 79, 53
1, 683127, Poly_aftertouch_c, 0, 79, 0
1, 683255, Note_on_c, 0, 51, 59
1, 683264, Note_off_c, 0, 49, 51
1, 683264, Poly_aftertouch_c, 0, 49, 0
1, 683418, Note_off_c, 0, 51, 59
1, 683418, Poly_aftertouch_c, 0, 51, 0
1, 683423, Note_on_c, 0, 49, 61
1, 683494, Note_off_c, 0, 65, 39
1, 683497, Note_on_c, 0, 79, 70
1, 683509, Note_off_c, 0, 49, 58
1, 683509, Poly_aftertouch_c, 0, 49, 0
1, 683581, Note_off_c, 0, 79, 56
1, 683581, Poly_aftertouch_c, 0, 79, 0
1, 683601, Note_on_c, 0, 49, 48
1, 683611, Note_off_c, 0, 70, 54
1, 683639, Note_off_c, 0, 73, 54
1, 683735, Note_on_c, 0, 63, 62
1, 683786, Note_on_c, 0, 70, 62
1, 683838, Note_on_c, 0, 73, 54
1, 683863, Note_on_c, 0, 39, 48
1, 683869, Note_off_c, 0, 63, 54
1, 683893, Note_off_c, 0, 49, 36
1, 683893, Poly_aftertouch_c, 0, 49, 0
1, 683925, Control_c, 0, 64, 116
1, 683943, Control_c, 0, 64, 96
1, 683963, Control_c, 0, 64, 75
1, 683982, Control_c, 0, 64, 60
1, 683993, Note_on_c, 0, 79, 75
1, 684001, Control_c, 0, 64, 54
1, 684019, Control_c, 0, 64, 58
1, 684039, Control_c, 0, 64, 71
1, 684051, Note_off_c, 0, 73, 64
1, 684056, Control_c, 0, 64, 87
1, 684075, Control_c, 0, 64, 115
1, 684087, Note_off_c, 0, 70, 62
1, 684093, Control_c, 0, 64, 127
1, 684189, Note_off_c, 0, 39, 57
1, 684189, Poly_aftertouch_c, 0, 39, 0
1, 684225, Note_on_c, 0, 80, 78
1, 684241, Note_on_c, 0, 51, 51
1, 684248, Note_off_c, 0, 79, 60
1, 684248, Poly_aftertouch_c, 0, 79, 0
1, 684443, Note_on_c, 0, 82, 80
1, 684483, Note_on_c, 0, 53, 51
1, 684487, Note_off_c, 0, 51, 35
1, 684487, Poly_aftertouch_c, 0, 51, 0
1, 684490, Note_off_c, 0, 80, 62
1, 684490, Poly_aftertouch_c, 0, 80, 0
1, 684516, Note_off_c, 0, 82, 65
1, 684686, Note_off_c, 0, 53, 51
1, 684686, Poly_aftertouch_c, 0, 53, 0
1, 684693, Note_on_c, 0, 44, 48
1, 684707, Note_on_c, 0, 63, 52
1, 684770, Note_on_c, 0, 68, 54
1, 684859, Control_c, 0, 64, 120
1, 684862, Note_on_c, 0, 72, 66
1, 684879, Control_c, 0, 64, 113
1, 684897, Control_c, 0, 64, 106
1, 684916, Control_c, 0, 64, 97
1, 684934, Control_c, 0, 64, 84
1, 684954, Control_c, 0, 64, 70
1, 684973, Control_c, 0, 64, 60
1, 684990, Control_c, 0, 64, 51
1, 685010, Control_c, 0, 64, 38
1, 685028, Control_c, 0, 64, 28
1, 685065, Control_c, 0, 64, 42
1, 685085, Control_c, 0, 64, 56
1, 685103, Control_c, 0, 64, 68
1, 685121, Control_c, 0, 64, 75
1, 685129, Note_on_c, 0, 51, 32
1, 685140, Control_c, 0, 64, 83
1, 685161, Control_c, 0, 64, 96
1, 685179, Control_c, 0, 64, 119
1, 685196, Control_c, 0, 64, 127
1, 685312, Note_off_c, 0, 63, 48
1, 685357, Note_on_c, 0, 53, 44
1, 685401, Note_off_c, 0, 51, 39
1, 685401, Poly_aftertouch_c, 0, 51, 0
1, 685564, Note_on_c, 0, 51, 52
1, 685570, Note_off_c, 0, 53, 56
1, 685570, Poly_aftertouch_c, 0, 53, 0
1, 685572, Control_c, 0, 67, 8
1, 685644, Note_off_c, 0, 68, 54
1, 685664, Control_c, 0, 67, 12
1, 685720, Control_c, 0, 67, 18
1, 685757, Control_c, 0, 67, 23
1, 685767, Note_off_c, 0, 51, 55
1, 685767, Note_on_c, 0, 53, 50
1, 685767, Poly_aftertouch_c, 0, 51, 0
1, 685795, Control_c, 0, 67, 28
1, 685809, Note_on_c, 0, 80, 70
1, 685833, Control_c, 0, 67, 35
1, 685852, Control_c, 0, 67, 39
1, 685869, Control_c, 0, 67, 43
1, 685895, Note_off_c, 0, 72, 58
1, 685895, Poly_aftertouch_c, 0, 72, 0
1, 685901, Note_off_c, 0, 80, 61
1, 685901, Poly_aftertouch_c, 0, 80, 0
1, 685907, Control_c, 0, 67, 49
1, 685932, Note_off_c, 0, 53, 44
1, 685932, Poly_aftertouch_c, 0, 53, 0
1, 685963, Control_c, 0, 67, 53
1, 685983, Note_off_c, 0, 44, 52
1, 685984, Note_on_c, 0, 51, 48
1, 685984, Poly_aftertouch_c, 0, 78, 0
1, 686019, Control_c, 0, 67, 57
1, 686055, Note_off_c, 0, 51, 57
1, 686055, Poly_aftertouch_c, 0, 51, 0
1, 686066, Note_on_c, 0, 63, 53
1, 686075, Control_c, 0, 67, 62
1, 686114, Control_c, 0, 67, 66
1, 686146, Note_on_c, 0, 70, 56
1, 686148, Control_c, 0, 67, 72
1, 686195, Note_off_c, 0, 63, 57
1, 686205, Note_on_c, 0, 73, 58
1, 686320, Control_c, 0, 64, 122
1, 686330, Note_on_c, 0, 79, 70
1, 686338, Control_c, 0, 64, 102
1, 686356, Control_c, 0, 64, 80
1, 686375, Control_c, 0, 64, 61
1, 686381, Note_on_c, 0, 39, 41
1, 686394, Control_c, 0, 64, 56
1, 686396, Note_off_c, 0, 73, 62
1, 686408, Note_off_c, 0, 70, 35
1, 686411, Control_c, 0, 64, 62
1, 686431, Control_c, 0, 64, 72
1, 686432, Control_c, 0, 67, 76
1, 686450, Control_c, 0, 64, 83
1, 686468, Control_c, 0, 64, 104
1, 686487, Control_c, 0, 64, 127
1, 686576, Note_on_c, 0, 80, 75
1, 686596, Note_off_c, 0, 79, 59
1, 686596, Poly_aftertouch_c, 0, 79, 0
1, 686602, Note_off_c, 0, 39, 40
1, 686602, Poly_aftertouch_c, 0, 39, 0
1, 686613, Note_on_c, 0, 51, 49
1, 686774, Note_off_c, 0, 51, 36
1, 686774, Poly_aftertouch_c, 0, 51, 0
1, 686802, Note_on_c, 0, 82, 74
1, 686834, Note_on_c, 0, 53, 46
1, 686841, Note_off_c, 0, 80, 58
1, 686841, Poly_aftertouch_c, 0, 80, 0
1, 686867, Note_off_c, 0, 82, 64
1, 687008, Note_off_c, 0, 53, 35
1, 687008, Poly_aftertouch_c, 0, 53, 0
1, 687025, Note_on_c, 0, 44, 44
1, 687061, Note_on_c, 0, 63, 47
1, 687141, Note_on_c, 0, 68, 52
1, 687221, Note_on_c, 0, 72, 60
1, 687235, Control_c, 0, 64, 115
1, 687253, Control_c, 0, 64, 100
1, 687272, Control_c, 0, 64, 83
1, 687290, Control_c, 0, 64, 67
1, 687310, Control_c, 0, 64, 54
1, 687311, Control_c, 0, 67, 80
1, 687329, Control_c, 0, 64, 43
1, 687346, Control_c, 0, 64, 38
1, 687366, Control_c, 0, 64, 42
1, 687384, Control_c, 0, 64, 48
1, 687403, Control_c, 0, 64, 54
1, 687421, Control_c, 0, 64, 63
1, 687441, Control_c, 0, 64, 73
1, 687461, Control_c, 0, 64, 79
1, 687468, Note_on_c, 0, 51, 30
1, 687476, Control_c, 0, 64, 84
1, 687496, Control_c, 0, 64, 91
1, 687516, Control_c, 0, 64, 100
1, 687534, Control_c, 0, 64, 110
1, 687553, Control_c, 0, 64, 119
1, 687571, Control_c, 0, 64, 125
1, 687634, Note_off_c, 0, 63, 37
1, 687691, Note_on_c, 0, 53, 45
1, 687743, Note_off_c, 0, 51, 40
1, 687743, Poly_aftertouch_c, 0, 51, 0
1, 687877, Note_off_c, 0, 53, 53
1, 687877, Poly_aftertouch_c, 0, 53, 0
1, 687886, Note_on_c, 0, 51, 51
1, 688084, Note_on_c, 0, 53, 45
1, 688087, Note_off_c, 0, 51, 50
1, 688087, Poly_aftertouch_c, 0, 51, 0
1, 688114, Control_c, 0, 67, 76
1, 688157, Note_on_c, 0, 80, 64
1, 688164, Note_off_c, 0, 68, 37
1, 688244, Note_off_c, 0, 80, 58
1, 688244, Poly_aftertouch_c, 0, 80, 0
1, 688246, Note_off_c, 0, 72, 58
1, 688246, Poly_aftertouch_c, 0, 72, 0
1, 688305, Note_off_c, 0, 53, 36
1, 688305, Poly_aftertouch_c, 0, 53, 0
1, 688315, Note_on_c, 0, 51, 45
1, 688364, Note_off_c, 0, 44, 53
1, 688375, Control_c, 0, 67, 72
1, 688400, Note_off_c, 0, 51, 59
1, 688400, Poly_aftertouch_c, 0, 51, 0
1, 688431, Note_on_c, 0, 63, 50
1, 688502, Note_on_c, 0, 70, 52
1, 688573, Note_on_c, 0, 73, 53
1, 688634, Note_off_c, 0, 63, 34
1, 688638, Control_c, 0, 64, 101
1, 688657, Control_c, 0, 64, 79
1, 688667, Note_on_c, 0, 78, 64
1, 688675, Control_c, 0, 64, 67
1, 688709, Note_on_c, 0, 39, 37
1, 688711, Control_c, 0, 64, 76
1, 688732, Control_c, 0, 64, 87
1, 688736, Note_off_c, 0, 73, 60
1, 688749, Control_c, 0, 64, 104
1, 688763, Note_off_c, 0, 70, 53
1, 688767, Control_c, 0, 64, 127
1, 688895, Note_off_c, 0, 78, 62
1, 688914, Note_on_c, 0, 80, 64
1, 688919, Note_off_c, 0, 39, 35
1, 688919, Poly_aftertouch_c, 0, 39, 0
1, 688949, Note_on_c, 0, 51, 43
1, 689099, Note_off_c, 0, 51, 36
1, 689099, Poly_aftertouch_c, 0, 51, 0
1, 689141, Note_on_c, 0, 82, 67
1, 689158, Note_off_c, 0, 80, 48
1, 689158, Poly_aftertouch_c, 0, 80, 0
1, 689186, Note_on_c, 0, 53, 35
1, 689193, Note_off_c, 0, 82, 59
1, 689389, Note_off_c, 0, 53, 29
1, 689389, Poly_aftertouch_c, 0, 53, 0
1, 689395, Note_on_c, 0, 44, 42
1, 689420, Note_on_c, 0, 63, 45
1, 689486, Note_on_c, 0, 68, 48
1, 689549, Note_on_c, 0, 72, 60
1, 689572, Control_c, 0, 64, 112
1, 689591, Control_c, 0, 64, 91
1, 689610, Control_c, 0, 64, 69
1, 689627, Control_c, 0, 64, 52
1, 689647, Control_c, 0, 64, 41
1, 689666, Control_c, 0, 64, 43
1, 689684, Control_c, 0, 64, 54
1, 689703, Control_c, 0, 64, 67
1, 689722, Control_c, 0, 64, 80
1, 689742, Control_c, 0, 64, 96
1, 689759, Control_c, 0, 64, 116
1, 689771, Note_on_c, 0, 51, 44
1, 689776, Control_c, 0, 64, 127
1, 689797, Control_c, 0, 67, 64
1, 689816, Control_c, 0, 67, 59
1, 689834, Control_c, 0, 67, 55
1, 689872, Control_c, 0, 67, 50
1, 689982, Note_on_c, 0, 53, 44
1, 690025, Note_off_c, 0, 51, 36
1, 690025, Poly_aftertouch_c, 0, 51, 0
1, 690173, Note_off_c, 0, 53, 52
1, 690173, Poly_aftertouch_c, 0, 53, 0
1, 690179, Note_on_c, 0, 51, 52
1, 690301, Control_c, 0, 67, 46
1, 690363, Note_on_c, 0, 53, 46
1, 690368, Note_off_c, 0, 51, 53
1, 690368, Poly_aftertouch_c, 0, 51, 0
1, 690375, Control_c, 0, 67, 42
1, 690442, Note_on_c, 0, 75, 69
1, 690449, Control_c, 0, 67, 38
1, 690455, Note_off_c, 0, 72, 58
1, 690455, Poly_aftertouch_c, 0, 72, 0
1, 690503, Note_off_c, 0, 68, 61
1, 690548, Note_off_c, 0, 63, 48
1, 690563, Note_off_c, 0, 53, 46
1, 690563, Poly_aftertouch_c, 0, 53, 0
1, 690587, Note_on_c, 0, 51, 50
1, 690608, Note_off_c, 0, 75, 36
1, 690664, Note_off_c, 0, 51, 56
1, 690664, Poly_aftertouch_c, 0, 51, 0
1, 690679, Note_off_c, 0, 44, 56
1, 690741, Note_on_c, 0, 60, 49
1, 690810, Note_on_c, 0, 66, 53
1, 690865, Note_on_c, 0, 68, 52
1, 690882, Control_c, 0, 67, 33
1, 690919, Control_c, 0, 67, 29
1, 690957, Control_c, 0, 67, 24
1, 690973, Note_on_c, 0, 37, 48
1, 690977, Note_on_c, 0, 75, 74
1, 690995, Control_c, 0, 64, 114
1, 690997, Control_c, 0, 67, 19
1, 691013, Control_c, 0, 64, 93
1, 691031, Control_c, 0, 64, 72
1, 691033, Control_c, 0, 67, 13
1, 691049, Control_c, 0, 64, 57
1, 691051, Control_c, 0, 67, 8
1, 691068, Control_c, 0, 64, 52
1, 691088, Control_c, 0, 64, 56
1, 691105, Control_c, 0, 64, 66
1, 691106, Poly_aftertouch_c, 0, 60, 24
1, 691124, Control_c, 0, 64, 79
1, 691143, Control_c, 0, 64, 95
1, 691146, Control_c, 0, 67, 0
1, 691160, Note_off_c, 0, 60, 38
1, 691160, Poly_aftertouch_c, 0, 60, 0
1, 691161, Poly_aftertouch_c, 0, 60, 0
1, 691161, Control_c, 0, 64, 117
1, 691175, Note_off_c, 0, 37, 53
1, 691175, Poly_aftertouch_c, 0, 37, 0
1, 691179, Control_c, 0, 64, 127
1, 691210, Note_off_c, 0, 66, 50
1, 691221, Note_on_c, 0, 49, 50
1, 691224, Note_off_c, 0, 68, 57
1, 691376, Note_off_c, 0, 75, 57
1, 691402, Note_on_c, 0, 51, 52
1, 691409, Note_off_c, 0, 49, 50
1, 691409, Poly_aftertouch_c, 0, 49, 0
1, 691419, Note_on_c, 0, 61, 51
1, 691514, Note_on_c, 0, 68, 45
1, 691521, Note_off_c, 0, 61, 57
1, 691559, Note_on_c, 0, 73, 57
1, 691665, Note_off_c, 0, 51, 52
1, 691665, Poly_aftertouch_c, 0, 51, 0
1, 691679, Note_on_c, 0, 77, 74
1, 691693, Note_on_c, 0, 49, 50
1, 691741, Control_c, 0, 64, 116
1, 691761, Control_c, 0, 64, 90
1, 691778, Control_c, 0, 64, 71
1, 691797, Control_c, 0, 64, 68
1, 691816, Control_c, 0, 64, 72
1, 691834, Control_c, 0, 64, 78
1, 691853, Control_c, 0, 64, 88
1, 691872, Control_c, 0, 64, 103
1, 691892, Control_c, 0, 64, 127
1, 691927, Note_on_c, 0, 61, 49
1, 691946, Note_off_c, 0, 49, 52
1, 691946, Poly_aftertouch_c, 0, 49, 0
1, 691979, Note_off_c, 0, 73, 52
1, 692050, Note_off_c, 0, 61, 51
1, 692079, Note_off_c, 0, 68, 34
1, 692087, Note_off_c, 0, 77, 55
1, 692087, Poly_aftertouch_c, 0, 77, 0
1, 692118, Note_on_c, 0, 49, 50
1, 692152, Note_on_c, 0, 63, 50
1, 692235, Note_on_c, 0, 68, 42
1, 692254, Note_on_c, 0, 72, 46
1, 692340, Note_on_c, 0, 78, 73
1, 692359, Control_c, 0, 64, 109
1, 692375, Control_c, 0, 64, 91
1, 692376, Note_on_c, 0, 51, 45
1, 692395, Control_c, 0, 64, 88
1, 692415, Control_c, 0, 64, 95
1, 692433, Control_c, 0, 64, 109
1, 692434, Note_off_c, 0, 49, 34
1, 692434, Poly_aftertouch_c, 0, 49, 0
1, 692452, Control_c, 0, 64, 127
1, 692566, Note_off_c, 0, 72, 58
1, 692566, Poly_aftertouch_c, 0, 72, 0
1, 692582, Control_c, 0, 67, 9
1, 692588, Note_off_c, 0, 78, 63
1, 692597, Note_on_c, 0, 49, 53
1, 692601, Note_off_c, 0, 51, 53
1, 692601, Poly_aftertouch_c, 0, 51, 0
1, 692606, Note_off_c, 0, 63, 52
1, 692639, Control_c, 0, 67, 13
1, 692676, Control_c, 0, 67, 18
1, 692695, Control_c, 0, 67, 22
1, 692713, Control_c, 0, 67, 26
1, 692732, Control_c, 0, 67, 31
1, 692738, Note_off_c, 0, 68, 36
1, 692751, Control_c, 0, 67, 36
1, 692770, Control_c, 0, 67, 41
1, 692781, Note_off_c, 0, 49, 56
1, 692781, Poly_aftertouch_c, 0, 49, 0
1, 692786, Control_c, 0, 67, 45
1, 692792, Note_on_c, 0, 51, 56
1, 692826, Note_on_c, 0, 61, 49
1, 692826, Control_c, 0, 67, 50
1, 692849, Note_off_c, 0, 51, 58
1, 692849, Poly_aftertouch_c, 0, 51, 0
1, 692899, Note_off_c, 0, 61, 51
1, 692899, Note_on_c, 0, 68, 46
1, 692967, Note_on_c, 0, 73, 56
1, 693095, Note_on_c, 0, 37, 46
1, 693201, Note_on_c, 0, 77, 69
1, 693219, Control_c, 0, 64, 118
1, 693237, Control_c, 0, 64, 111
1, 693255, Control_c, 0, 64, 102
1, 693275, Control_c, 0, 64, 89
1, 693293, Control_c, 0, 64, 72
1, 693312, Control_c, 0, 64, 58
1, 693330, Control_c, 0, 64, 46
1, 693330, Control_c, 0, 67, 54
1, 693350, Control_c, 0, 64, 34
1, 693369, Control_c, 0, 67, 58
1, 693386, Control_c, 0, 64, 43
1, 693387, Control_c, 0, 67, 62
1, 693406, Control_c, 0, 64, 52
1, 693408, Control_c, 0, 67, 68
1, 693425, Control_c, 0, 64, 64
1, 693427, Control_c, 0, 67, 75
1, 693443, Control_c, 0, 64, 76
1, 693444, Control_c, 0, 67, 81
1, 693461, Control_c, 0, 64, 88
1, 693463, Control_c, 0, 67, 89
1, 693465, Note_off_c, 0, 37, 57
1, 693465, Poly_aftertouch_c, 0, 37, 0
1, 693481, Control_c, 0, 64, 102
1, 693483, Control_c, 0, 67, 97
1, 693496, Note_on_c, 0, 49, 47
1, 693501, Control_c, 0, 64, 115
1, 693501, Control_c, 0, 67, 104
1, 693518, Control_c, 0, 64, 127
1, 693519, Control_c, 0, 67, 110
1, 693537, Control_c, 0, 67, 116
1, 693555, Control_c, 0, 67, 122
1, 693592, Control_c, 0, 67, 127
1, 693670, Note_off_c, 0, 49, 51
1, 693670, Poly_aftertouch_c, 0, 49, 0
1, 693698, Note_on_c, 0, 51, 43
1, 693880, Note_off_c, 0, 51, 53
1, 693880, Poly_aftertouch_c, 0, 51, 0
1, 693892, Control_c, 0, 64, 120
1, 693907, Note_on_c, 0, 49, 44
1, 693911, Control_c, 0, 64, 103
1, 693928, Control_c, 0, 64, 84
1, 693948, Control_c, 0, 64, 72
1, 693984, Control_c, 0, 64, 78
1, 694004, Control_c, 0, 64, 86
1, 694023, Control_c, 0, 64, 96
1, 694042, Control_c, 0, 64, 108
1, 694059, Control_c, 0, 64, 120
1, 694079, Control_c, 0, 64, 126
1, 694137, Note_on_c, 0, 61, 40
1, 694178, Note_off_c, 0, 49, 37
1, 694178, Poly_aftertouch_c, 0, 49, 0
1, 694276, Note_off_c, 0, 61, 50
1, 694350, Note_on_c, 0, 49, 43
1, 694471, Control_c, 0, 64, 115
1, 694488, Note_off_c, 0, 77, 39
1, 694488, Poly_aftertouch_c, 0, 77, 0
1, 694490, Control_c, 0, 64, 101
1, 694510, Control_c, 0, 64, 84
1, 694527, Control_c, 0, 64, 71
1, 694545, Control_c, 0, 64, 69
1, 694565, Control_c, 0, 64, 74
1, 694583, Control_c, 0, 64, 79
1, 694587, Note_on_c, 0, 51, 42
1, 694595, Note_off_c, 0, 49, 44
1, 694595, Poly_aftertouch_c, 0, 49, 0
1, 694602, Control_c, 0, 64, 86
1, 694620, Control_c, 0, 64, 97
1, 694640, Control_c, 0, 64, 111
1, 694657, Control_c, 0, 64, 125
1, 694718, Note_off_c, 0, 73, 50
1, 694720, Note_off_c, 0, 68, 61
1, 694777, Note_off_c, 0, 51, 50
1, 694777, Poly_aftertouch_c, 0, 51, 0
1, 694805, Note_on_c, 0, 49, 43
1, 694977, Note_off_c, 0, 49, 52
1, 694977, Poly_aftertouch_c, 0, 49, 0
1, 694996, Note_on_c, 0, 51, 47
1, 695050, Note_off_c, 0, 51, 59
1, 695050, Poly_aftertouch_c, 0, 51, 0
1, 695053, Note_on_c, 0, 60, 36
1, 695135, Note_on_c, 0, 66, 43
1, 695205, Note_on_c, 0, 68, 44
1, 695296, Control_c, 0, 64, 119
1, 695313, Control_c, 0, 64, 115
1, 695331, Control_c, 0, 64, 110
1, 695342, Note_on_c, 0, 37, 42
1, 695349, Control_c, 0, 64, 103
1, 695369, Control_c, 0, 64, 95
1, 695388, Control_c, 0, 64, 83
1, 695406, Control_c, 0, 64, 68
1, 695418, Note_on_c, 0, 75, 74
1, 695425, Control_c, 0, 64, 52
1, 695444, Control_c, 0, 64, 32
1, 695462, Control_c, 0, 64, 19
1, 695501, Control_c, 0, 64, 33
1, 695502, Poly_aftertouch_c, 0, 60, 22
1, 695518, Control_c, 0, 64, 43
1, 695537, Control_c, 0, 64, 58
1, 695556, Control_c, 0, 64, 74
1, 695569, Note_off_c, 0, 60, 19
1, 695569, Poly_aftertouch_c, 0, 60, 0
1, 695573, Control_c, 0, 64, 87
1, 695593, Control_c, 0, 64, 102
1, 695603, Note_off_c, 0, 37, 54
1, 695603, Poly_aftertouch_c, 0, 37, 0
1, 695610, Note_off_c, 0, 66, 50
1, 695610, Control_c, 0, 64, 116
1, 695623, Note_off_c, 0, 68, 57
1, 695630, Control_c, 0, 64, 127
1, 695662, Note_on_c, 0, 49, 46
1, 695809, Note_off_c, 0, 75, 38
1, 695853, Note_off_c, 0, 49, 51
1, 695853, Poly_aftertouch_c, 0, 49, 0
1, 695880, Note_on_c, 0, 51, 42
1, 695914, Note_on_c, 0, 61, 44
1, 696005, Note_on_c, 0, 68, 39
1, 696067, Note_on_c, 0, 73, 46
1, 696114, Note_off_c, 0, 61, 33
1, 696122, Note_off_c, 0, 51, 52
1, 696122, Poly_aftertouch_c, 0, 51, 0
1, 696174, Note_on_c, 0, 49, 42
1, 696197, Note_on_c, 0, 76, 64
1, 696211, Control_c, 0, 67, 123
1, 696229, Control_c, 0, 64, 115
1, 696248, Control_c, 0, 64, 97
1, 696267, Control_c, 0, 64, 74
1, 696285, Control_c, 0, 64, 55
1, 696303, Control_c, 0, 64, 52
1, 696323, Control_c, 0, 64, 60
1, 696340, Control_c, 0, 64, 69
1, 696342, Control_c, 0, 67, 119
1, 696360, Control_c, 0, 64, 78
1, 696379, Control_c, 0, 64, 91
1, 696397, Control_c, 0, 64, 108
1, 696416, Control_c, 0, 64, 126
1, 696444, Note_off_c, 0, 49, 47
1, 696444, Poly_aftertouch_c, 0, 49, 0
1, 696453, Note_on_c, 0, 61, 41
1, 696537, Note_off_c, 0, 68, 38
1, 696540, Note_off_c, 0, 76, 50
1, 696562, Note_off_c, 0, 73, 34
1, 696566, Note_off_c, 0, 61, 53
1, 696648, Note_on_c, 0, 49, 39
1, 696722, Note_on_c, 0, 63, 41
1, 696794, Note_on_c, 0, 68, 35
1, 696830, Note_on_c, 0, 72, 37
1, 696954, Note_on_c, 0, 78, 62
1, 696995, Note_on_c, 0, 51, 37
1, 697014, Control_c, 0, 64, 114
1, 697033, Control_c, 0, 64, 94
1, 697052, Control_c, 0, 64, 72
1, 697062, Note_off_c, 0, 49, 32
1, 697062, Poly_aftertouch_c, 0, 49, 0
1, 697070, Control_c, 0, 64, 58
1, 697089, Control_c, 0, 64, 56
1, 697108, Control_c, 0, 64, 62
1, 697127, Control_c, 0, 64, 69
1, 697145, Control_c, 0, 64, 78
1, 697164, Control_c, 0, 64, 89
1, 697183, Control_c, 0, 64, 102
1, 697201, Control_c, 0, 64, 116
1, 697220, Control_c, 0, 64, 127
1, 697227, Note_off_c, 0, 72, 54
1, 697227, Poly_aftertouch_c, 0, 72, 0
1, 697238, Note_on_c, 0, 49, 41
1, 697253, Note_off_c, 0, 78, 64
1, 697287, Poly_aftertouch_c, 0, 63, 24
1, 697300, Note_off_c, 0, 51, 34
1, 697300, Poly_aftertouch_c, 0, 51, 0
1, 697327, Note_off_c, 0, 63, 40
1, 697327, Poly_aftertouch_c, 0, 63, 0
1, 697391, Note_off_c, 0, 68, 43
1, 697479, Note_off_c, 0, 49, 44
1, 697479, Poly_aftertouch_c, 0, 49, 0
1, 697492, Note_on_c, 0, 51, 38
1, 697579, Note_off_c, 0, 51, 50
1, 697579, Poly_aftertouch_c, 0, 51, 0
1, 697588, Note_on_c, 0, 61, 38
1, 697663, Note_on_c, 0, 68, 36
1, 697733, Note_on_c, 0, 73, 45
1, 697837, Control_c, 0, 64, 122
1, 697874, Control_c, 0, 64, 116
1, 697892, Control_c, 0, 64, 112
1, 697903, Note_on_c, 0, 37, 38
1, 697932, Control_c, 0, 64, 103
1, 697949, Control_c, 0, 64, 98
1, 697968, Control_c, 0, 64, 91
1, 697988, Control_c, 0, 64, 83
1, 697997, Note_on_c, 0, 76, 59
1, 698006, Control_c, 0, 64, 73
1, 698024, Control_c, 0, 64, 63
1, 698029, Note_off_c, 0, 61, 29
1, 698045, Control_c, 0, 64, 54
1, 698062, Control_c, 0, 64, 42
1, 698079, Control_c, 0, 64, 28
1, 698099, Control_c, 0, 64, 23
1, 698117, Control_c, 0, 64, 29
1, 698136, Control_c, 0, 64, 40
1, 698155, Control_c, 0, 64, 51
1, 698173, Control_c, 0, 64, 64
1, 698193, Control_c, 0, 64, 74
1, 698211, Control_c, 0, 64, 81
1, 698230, Control_c, 0, 64, 90
1, 698241, Note_off_c, 0, 37, 42
1, 698241, Poly_aftertouch_c, 0, 37, 0
1, 698247, Control_c, 0, 64, 99
1, 698268, Control_c, 0, 64, 108
1, 698284, Note_on_c, 0, 49, 37
1, 698284, Control_c, 0, 64, 115
1, 698304, Control_c, 0, 64, 121
1, 698323, Control_c, 0, 64, 126
1, 698503, Note_off_c, 0, 49, 40
1, 698503, Poly_aftertouch_c, 0, 49, 0
1, 698511, Note_on_c, 0, 51, 42
1, 698625, Poly_aftertouch_c, 0, 61, 0
1, 698699, Note_off_c, 0, 51, 47
1, 698699, Poly_aftertouch_c, 0, 51, 0
1, 698749, Note_on_c, 0, 49, 36
1, 698977, Note_on_c, 0, 61, 42
1, 698997, Control_c, 0, 64, 122
1, 699012, Note_off_c, 0, 49, 35
1, 699012, Poly_aftertouch_c, 0, 49, 0
1, 699114, Poly_aftertouch_c, 0, 68, 20
1, 699127, Note_off_c, 0, 68, 31
1, 699127, Poly_aftertouch_c, 0, 68, 0
1, 699127, Control_c, 0, 64, 118
1, 699145, Note_off_c, 0, 61, 46
1, 699199, Note_on_c, 0, 49, 37
1, 699352, Control_c, 0, 64, 113
1, 699389, Control_c, 0, 64, 107
1, 699408, Control_c, 0, 64, 99
1, 699426, Control_c, 0, 64, 89
1, 699445, Control_c, 0, 64, 79
1, 699464, Control_c, 0, 64, 74
1, 699504, Note_on_c, 0, 51, 31
1, 699520, Control_c, 0, 64, 76
1, 699540, Note_off_c, 0, 49, 34
1, 699540, Poly_aftertouch_c, 0, 49, 0
1, 699557, Control_c, 0, 64, 79
1, 699576, Control_c, 0, 64, 81
1, 699596, Control_c, 0, 64, 85
1, 699614, Control_c, 0, 64, 90
1, 699632, Control_c, 0, 64, 96
1, 699651, Control_c, 0, 64, 103
1, 699670, Control_c, 0, 64, 109
1, 699688, Control_c, 0, 64, 113
1, 699699, Note_off_c, 0, 76, 56
1, 699725, Control_c, 0, 64, 118
1, 699751, Note_on_c, 0, 49, 36
1, 699781, Note_off_c, 0, 73, 36
1, 699782, Control_c, 0, 64, 123
1, 699811, Note_off_c, 0, 51, 32
1, 699811, Poly_aftertouch_c, 0, 51, 0
1, 700087, Note_off_c, 0, 49, 38
1, 700087, Poly_aftertouch_c, 0, 49, 0
1, 700091, Note_on_c, 0, 51, 35
1, 700156, Note_off_c, 0, 51, 54
1, 700156, Poly_aftertouch_c, 0, 51, 0
1, 700209, Note_on_c, 0, 64, 41
1, 700322, Note_on_c, 0, 68, 39
1, 700416, Note_on_c, 0, 70, 44
1, 700474, Control_c, 0, 64, 119
1, 700549, Control_c, 0, 64, 114
1, 700570, Note_on_c, 0, 37, 34
1, 700586, Control_c, 0, 64, 109
1, 700613, Note_on_c, 0, 73, 55
1, 700621, Control_c, 0, 64, 102
1, 700642, Control_c, 0, 64, 96
1, 700660, Control_c, 0, 64, 83
1, 700680, Control_c, 0, 64, 69
1, 700698, Control_c, 0, 64, 58
1, 700716, Control_c, 0, 64, 53
1, 700736, Control_c, 0, 64, 56
1, 700754, Control_c, 0, 64, 62
1, 700773, Control_c, 0, 64, 69
1, 700793, Control_c, 0, 64, 76
1, 700811, Control_c, 0, 64, 84
1, 700829, Control_c, 0, 64, 95
1, 700843, Note_off_c, 0, 37, 40
1, 700843, Poly_aftertouch_c, 0, 37, 0
1, 700846, Control_c, 0, 64, 107
1, 700866, Control_c, 0, 64, 116
1, 700873, Note_off_c, 0, 64, 54
1, 700873, Poly_aftertouch_c, 0, 64, 0
1, 700885, Control_c, 0, 64, 122
1, 700902, Control_c, 0, 64, 127
1, 700910, Note_on_c, 0, 49, 39
1, 700975, Note_off_c, 0, 70, 36
1, 701102, Note_off_c, 0, 68, 36
1, 701102, Poly_aftertouch_c, 0, 68, 0
1, 701130, Note_off_c, 0, 49, 41
1, 701130, Poly_aftertouch_c, 0, 49, 0
1, 701143, Note_on_c, 0, 51, 42
1, 701229, Note_off_c, 0, 73, 47
1, 701230, Note_on_c, 0, 63, 44
1, 701286, Note_on_c, 0, 68, 43
1, 701368, Note_off_c, 0, 51, 52
1, 701368, Poly_aftertouch_c, 0, 51, 0
1, 701381, Note_on_c, 0, 72, 36
1, 701439, Note_on_c, 0, 49, 41
1, 701496, Note_on_c, 0, 75, 60
1, 701540, Control_c, 0, 64, 121
1, 701558, Control_c, 0, 64, 112
1, 701577, Control_c, 0, 64, 98
1, 701595, Control_c, 0, 64, 81
1, 701615, Control_c, 0, 64, 67
1, 701633, Control_c, 0, 64, 63
1, 701651, Control_c, 0, 64, 66
1, 701671, Control_c, 0, 64, 71
1, 701689, Control_c, 0, 64, 76
1, 701708, Control_c, 0, 64, 84
1, 701726, Control_c, 0, 64, 95
1, 701745, Control_c, 0, 64, 108
1, 701749, Note_off_c, 0, 72, 40
1, 701749, Note_on_c, 0, 61, 40
1, 701749, Poly_aftertouch_c, 0, 72, 0
1, 701764, Control_c, 0, 64, 122
1, 701782, Control_c, 0, 64, 127
1, 701789, Note_off_c, 0, 49, 32
1, 701789, Poly_aftertouch_c, 0, 49, 0
1, 701850, Note_off_c, 0, 61, 56
1, 701866, Note_off_c, 0, 63, 45
1, 701866, Poly_aftertouch_c, 0, 63, 0
1, 701872, Note_off_c, 0, 68, 40
1, 701872, Poly_aftertouch_c, 0, 68, 0
1, 701950, Note_off_c, 0, 75, 38
1, 701996, Note_on_c, 0, 49, 38
1, 702126, Note_on_c, 0, 61, 42
1, 702206, Note_on_c, 0, 68, 34
1, 702263, Note_on_c, 0, 73, 43
1, 702392, Note_on_c, 0, 51, 35
1, 702400, Note_on_c, 0, 76, 53
1, 702419, Control_c, 0, 64, 120
1, 702437, Control_c, 0, 64, 115
1, 702456, Control_c, 0, 64, 110
1, 702474, Control_c, 0, 64, 103
1, 702494, Control_c, 0, 64, 96
1, 702496, Note_off_c, 0, 49, 32
1, 702496, Poly_aftertouch_c, 0, 49, 0
1, 702511, Control_c, 0, 64, 86
1, 702531, Control_c, 0, 64, 74
1, 702549, Control_c, 0, 64, 61
1, 702568, Control_c, 0, 64, 52
1, 702586, Control_c, 0, 64, 44
1, 702605, Control_c, 0, 64, 41
1, 702642, Control_c, 0, 64, 45
1, 702661, Control_c, 0, 64, 51
1, 702681, Control_c, 0, 64, 60
1, 702698, Control_c, 0, 64, 68
1, 702717, Control_c, 0, 64, 75
1, 702736, Control_c, 0, 64, 82
1, 702755, Control_c, 0, 64, 90
1, 702774, Note_on_c, 0, 49, 34
1, 702774, Control_c, 0, 64, 98
1, 702788, Note_off_c, 0, 51, 40
1, 702788, Poly_aftertouch_c, 0, 51, 0
1, 702791, Control_c, 0, 64, 105
1, 702811, Control_c, 0, 64, 112
1, 702817, Poly_aftertouch_c, 0, 61, 24
1, 702830, Control_c, 0, 64, 120
1, 702847, Control_c, 0, 64, 126
1, 702920, Note_off_c, 0, 61, 30
1, 702920, Poly_aftertouch_c, 0, 61, 0
1, 702961, Control_c, 0, 67, 115
1, 702968, Note_off_c, 0, 76, 58
1, 703016, Control_c, 0, 67, 111
1, 703048, Note_off_c, 0, 73, 36
1, 703078, Note_off_c, 0, 68, 24
1, 703078, Poly_aftertouch_c, 0, 68, 0
1, 703092, Control_c, 0, 67, 107
1, 703167, Control_c, 0, 67, 103
1, 703181, Note_off_c, 0, 49, 33
1, 703181, Poly_aftertouch_c, 0, 49, 0
1, 703186, Note_on_c, 0, 51, 32
1, 703222, Control_c, 0, 67, 97
1, 703307, Note_off_c, 0, 51, 51
1, 703307, Poly_aftertouch_c, 0, 51, 0
1, 703315, Control_c, 0, 67, 91
1, 703333, Control_c, 0, 67, 86
1, 703353, Control_c, 0, 67, 79
1, 703372, Control_c, 0, 67, 75
1, 703447, Control_c, 0, 67, 71
1, 703848, Note_on_c, 0, 68, 45
1, 703850, Note_on_c, 0, 70, 51
1, 703872, Note_on_c, 0, 63, 38
1, 703874, Control_c, 0, 67, 67
1, 703928, Note_on_c, 0, 39, 40
1, 703932, Control_c, 0, 67, 62
1, 703971, Control_c, 0, 64, 116
1, 703989, Control_c, 0, 64, 107
1, 704008, Control_c, 0, 64, 96
1, 704026, Control_c, 0, 64, 79
1, 704046, Control_c, 0, 64, 61
1, 704063, Control_c, 0, 64, 46
1, 704083, Control_c, 0, 64, 34
1, 704121, Control_c, 0, 64, 43
1, 704138, Control_c, 0, 64, 54
1, 704158, Control_c, 0, 64, 68
1, 704176, Control_c, 0, 64, 83
1, 704195, Control_c, 0, 64, 103
1, 704213, Control_c, 0, 64, 127
1, 704288, Control_c, 0, 67, 67
1, 704306, Control_c, 0, 67, 72
1, 704325, Control_c, 0, 67, 80
1, 704344, Control_c, 0, 67, 92
1, 704363, Control_c, 0, 67, 104
1, 704382, Control_c, 0, 67, 113
1, 704399, Control_c, 0, 67, 117
1, 704438, Control_c, 0, 67, 123
1, 704475, Control_c, 0, 67, 127
1, 704651, Note_on_c, 0, 51, 30
1, 704692, Note_off_c, 0, 39, 31
1, 704692, Poly_aftertouch_c, 0, 39, 0
1, 704937, Note_off_c, 0, 51, 31
1, 704937, Poly_aftertouch_c, 0, 51, 0
1, 705107, Note_on_c, 0, 52, 37
1, 705216, Note_off_c, 0, 52, 56
1, 705582, Note_on_c, 0, 51, 30
1, 705728, Control_c, 0, 64, 122
1, 705746, Control_c, 0, 64, 116
1, 705765, Control_c, 0, 64, 108
1, 705784, Control_c, 0, 64, 98
1, 705802, Control_c, 0, 64, 86
1, 705821, Control_c, 0, 64, 73
1, 705840, Control_c, 0, 64, 63
1, 705859, Control_c, 0, 64, 58
1, 705915, Control_c, 0, 64, 60
1, 705933, Control_c, 0, 64, 63
1, 705952, Control_c, 0, 64, 66
1, 705971, Control_c, 0, 64, 68
1, 705978, Note_off_c, 0, 63, 42
1, 705978, Poly_aftertouch_c, 0, 63, 0
1, 705990, Control_c, 0, 64, 71
1, 706008, Control_c, 0, 64, 76
1, 706028, Control_c, 0, 64, 82
1, 706047, Control_c, 0, 64, 90
1, 706065, Control_c, 0, 64, 99
1, 706083, Control_c, 0, 64, 108
1, 706102, Control_c, 0, 64, 115
1, 706121, Control_c, 0, 64, 122
1, 706138, Control_c, 0, 64, 127
1, 706188, Note_on_c, 0, 63, 20
1, 706356, Note_off_c, 0, 51, 37
1, 706356, Poly_aftertouch_c, 0, 51, 0
1, 706567, Note_on_c, 0, 51, 25
1, 706615, Note_off_c, 0, 63, 31
1, 706615, Poly_aftertouch_c, 0, 63, 0
1, 706924, Note_on_c, 0, 63, 32
1, 707012, Note_off_c, 0, 51, 31
1, 707012, Poly_aftertouch_c, 0, 51, 0
1, 707224, Note_on_c, 0, 51, 25
1, 707246, Note_off_c, 0, 63, 37
1, 707246, Poly_aftertouch_c, 0, 63, 0
1, 707504, Note_on_c, 0, 63, 31
1, 707546, Note_off_c, 0, 51, 36
1, 707546, Poly_aftertouch_c, 0, 51, 0
1, 707822, Note_on_c, 0, 67, 27
1, 707832, Note_on_c, 0, 51, 23
1, 707847, Note_off_c, 0, 63, 39
1, 707847, Poly_aftertouch_c, 0, 63, 0
1, 707971, Control_c, 0, 64, 117
1, 707980, Note_off_c, 0, 68, 44
1, 707980, Poly_aftertouch_c, 0, 68, 0
1, 707990, Control_c, 0, 64, 105
1, 708010, Control_c, 0, 64, 90
1, 708028, Control_c, 0, 64, 74
1, 708047, Control_c, 0, 64, 62
1, 708065, Control_c, 0, 64, 57
1, 708102, Control_c, 0, 64, 60
1, 708122, Control_c, 0, 64, 65
1, 708140, Control_c, 0, 64, 70
1, 708159, Control_c, 0, 64, 76
1, 708177, Control_c, 0, 64, 83
1, 708198, Control_c, 0, 64, 93
1, 708212, Note_on_c, 0, 63, 29
1, 708213, Control_c, 0, 64, 106
1, 708233, Control_c, 0, 64, 119
1, 708252, Control_c, 0, 64, 127
1, 708380, Note_off_c, 0, 51, 36
1, 708380, Poly_aftertouch_c, 0, 51, 0
1, 708440, Note_off_c, 0, 67, 41
1, 708576, Note_on_c, 0, 51, 28
1, 708626, Note_off_c, 0, 63, 37
1, 708626, Poly_aftertouch_c, 0, 63, 0
1, 709066, Note_on_c, 0, 62, 40
1, 709175, Poly_aftertouch_c, 0, 51, 24
1, 709297, Note_off_c, 0, 51, 25
1, 709297, Poly_aftertouch_c, 0, 51, 0
1, 709637, Note_on_c, 0, 63, 30
1, 709955, Note_off_c, 0, 62, 33
1, 709964, Note_on_c, 0, 51, 30
1, 710014, Note_off_c, 0, 63, 38
1, 710014, Poly_aftertouch_c, 0, 63, 0
1, 710337, Note_on_c, 0, 61, 41
1, 710421, Control_c, 0, 64, 123
1, 710440, Control_c, 0, 64, 117
1, 710459, Control_c, 0, 64, 108
1, 710477, Control_c, 0, 64, 95
1, 710497, Control_c, 0, 64, 80
1, 710514, Control_c, 0, 64, 67
1, 710534, Control_c, 0, 64, 61
1, 710571, Control_c, 0, 64, 66
1, 710589, Control_c, 0, 64, 69
1, 710608, Control_c, 0, 64, 73
1, 710627, Control_c, 0, 64, 79
1, 710645, Control_c, 0, 64, 87
1, 710665, Control_c, 0, 64, 98
1, 710683, Control_c, 0, 64, 111
1, 710702, Control_c, 0, 64, 122
1, 710720, Control_c, 0, 64, 127
1, 710763, Note_on_c, 0, 63, 32
1, 710794, Poly_aftertouch_c, 0, 51, 24
1, 710862, Note_off_c, 0, 51, 34
1, 710862, Poly_aftertouch_c, 0, 51, 0
1, 710868, Note_off_c, 0, 61, 33
1, 710868, Poly_aftertouch_c, 0, 61, 0
1, 711056, Note_on_c, 0, 51, 19
1, 711228, Note_off_c, 0, 63, 38
1, 711228, Poly_aftertouch_c, 0, 63, 0
1, 711466, Note_on_c, 0, 75, 56
1, 711487, Control_c, 0, 67, 123
1, 711539, Note_on_c, 0, 60, 45
1, 711661, Note_off_c, 0, 70, 54
1, 711674, Control_c, 0, 64, 121
1, 711692, Control_c, 0, 64, 112
1, 711711, Control_c, 0, 64, 98
1, 711729, Control_c, 0, 64, 81
1, 711750, Control_c, 0, 64, 64
1, 711768, Control_c, 0, 64, 60
1, 711787, Control_c, 0, 64, 64
1, 711805, Control_c, 0, 64, 70
1, 711823, Control_c, 0, 64, 75
1, 711843, Control_c, 0, 64, 83
1, 711862, Control_c, 0, 64, 94
1, 711879, Control_c, 0, 64, 108
1, 711899, Control_c, 0, 64, 121
1, 711916, Control_c, 0, 64, 127
1, 711959, Note_on_c, 0, 63, 34
1, 712022, Note_off_c, 0, 51, 31
1, 712022, Poly_aftertouch_c, 0, 51, 0
1, 712050, Note_off_c, 0, 60, 54
1, 712050, Poly_aftertouch_c, 0, 60, 0
1, 712197, Control_c, 0, 67, 119
1, 712244, Note_on_c, 0, 51, 27
1, 712477, Control_c, 0, 67, 115
1, 712573, Note_on_c, 0, 72, 51
1, 712629, Note_on_c, 0, 56, 49
1, 712636, Poly_aftertouch_c, 0, 63, 24
1, 712679, Note_off_c, 0, 63, 40
1, 712679, Poly_aftertouch_c, 0, 63, 0
1, 712759, Control_c, 0, 64, 123
1, 712777, Control_c, 0, 64, 107
1, 712782, Note_off_c, 0, 75, 49
1, 712796, Control_c, 0, 64, 89
1, 712815, Control_c, 0, 64, 74
1, 712833, Control_c, 0, 64, 71
1, 712852, Control_c, 0, 64, 75
1, 712870, Control_c, 0, 64, 81
1, 712890, Control_c, 0, 64, 87
1, 712909, Control_c, 0, 64, 97
1, 712910, Control_c, 0, 67, 111
1, 712926, Control_c, 0, 64, 112
1, 712945, Control_c, 0, 64, 127
1, 712976, Note_on_c, 0, 63, 37
1, 713020, Note_off_c, 0, 51, 38
1, 713020, Poly_aftertouch_c, 0, 51, 0
1, 713114, Control_c, 0, 67, 107
1, 713156, Note_off_c, 0, 56, 33
1, 713235, Note_on_c, 0, 51, 27
1, 713443, Note_off_c, 0, 63, 30
1, 713443, Poly_aftertouch_c, 0, 63, 0
1, 713496, Note_on_c, 0, 68, 54
1, 713560, Note_on_c, 0, 53, 38
1, 713656, Control_c, 0, 64, 117
1, 713674, Control_c, 0, 64, 97
1, 713694, Control_c, 0, 64, 76
1, 713713, Control_c, 0, 64, 63
1, 713749, Control_c, 0, 64, 68
1, 713754, Note_off_c, 0, 72, 50
1, 713754, Poly_aftertouch_c, 0, 72, 0
1, 713768, Control_c, 0, 64, 74
1, 713787, Control_c, 0, 64, 83
1, 713797, Note_off_c, 0, 53, 54
1, 713797, Poly_aftertouch_c, 0, 53, 0
1, 713804, Control_c, 0, 64, 95
1, 713825, Control_c, 0, 64, 111
1, 713830, Note_on_c, 0, 63, 40
1, 713843, Control_c, 0, 64, 127
1, 713878, Note_off_c, 0, 51, 41
1, 713878, Poly_aftertouch_c, 0, 51, 0
1, 714034, Note_on_c, 0, 51, 40
1, 714127, Note_off_c, 0, 63, 26
1, 714127, Poly_aftertouch_c, 0, 63, 0
1, 714318, Note_on_c, 0, 65, 55
1, 714350, Note_on_c, 0, 49, 39
1, 714395, Note_off_c, 0, 51, 21
1, 714395, Poly_aftertouch_c, 0, 51, 0
1, 714423, Control_c, 0, 64, 120
1, 714442, Control_c, 0, 64, 102
1, 714460, Control_c, 0, 64, 78
1, 714479, Control_c, 0, 64, 57
1, 714497, Control_c, 0, 64, 46
1, 714534, Control_c, 0, 64, 55
1, 714554, Control_c, 0, 64, 68
1, 714562, Note_off_c, 0, 68, 54
1, 714562, Poly_aftertouch_c, 0, 68, 0
1, 714572, Control_c, 0, 64, 80
1, 714591, Control_c, 0, 64, 95
1, 714610, Control_c, 0, 64, 117
1, 714628, Control_c, 0, 64, 127
1, 714636, Note_on_c, 0, 63, 42
1, 714753, Note_off_c, 0, 63, 52
1, 714753, Poly_aftertouch_c, 0, 63, 0
1, 714805, Note_off_c, 0, 49, 38
1, 714805, Poly_aftertouch_c, 0, 49, 0
1, 714833, Note_on_c, 0, 51, 37
1, 715095, Note_on_c, 0, 61, 56
1, 715113, Note_off_c, 0, 51, 25
1, 715113, Poly_aftertouch_c, 0, 51, 0
1, 715118, Note_off_c, 0, 65, 57
1, 715133, Control_c, 0, 67, 111
1, 715147, Note_on_c, 0, 46, 45
1, 715265, Control_c, 0, 64, 115
1, 715283, Control_c, 0, 64, 93
1, 715302, Control_c, 0, 64, 75
1, 715304, Control_c, 0, 67, 115
1, 715321, Control_c, 0, 64, 70
1, 715338, Control_c, 0, 64, 73
1, 715358, Control_c, 0, 64, 79
1, 715377, Control_c, 0, 64, 87
1, 715395, Control_c, 0, 64, 96
1, 715412, Note_on_c, 0, 63, 44
1, 715412, Control_c, 0, 64, 108
1, 715432, Control_c, 0, 64, 122
1, 715451, Control_c, 0, 64, 127
1, 715596, Note_off_c, 0, 46, 53
1, 715603, Note_off_c, 0, 61, 57
1, 715603, Poly_aftertouch_c, 0, 61, 0
1, 715623, Note_on_c, 0, 51, 43
1, 715745, Note_off_c, 0, 51, 48
1, 715745, Poly_aftertouch_c, 0, 51, 0
1, 715862, Note_on_c, 0, 58, 55
1, 715921, Note_on_c, 0, 43, 39
1, 715937, Control_c, 0, 64, 117
1, 715956, Control_c, 0, 64, 104
1, 715963, Note_off_c, 0, 63, 48
1, 715963, Poly_aftertouch_c, 0, 63, 0
1, 715975, Control_c, 0, 64, 86
1, 715994, Control_c, 0, 64, 68
1, 715995, Control_c, 0, 67, 119
1, 716012, Control_c, 0, 64, 58
1, 716031, Control_c, 0, 64, 54
1, 716068, Control_c, 0, 64, 61
1, 716087, Control_c, 0, 64, 70
1, 716106, Control_c, 0, 64, 78
1, 716125, Control_c, 0, 64, 88
1, 716142, Control_c, 0, 64, 101
1, 716146, Note_on_c, 0, 63, 45
1, 716162, Control_c, 0, 64, 119
1, 716180, Control_c, 0, 64, 127
1, 716309, Note_off_c, 0, 43, 45
1, 716343, Note_on_c, 0, 51, 43
1, 716399, Note_off_c, 0, 51, 57
1, 716399, Poly_aftertouch_c, 0, 51, 0
1, 716479, Control_c, 0, 64, 116
1, 716480, Control_c, 0, 67, 124
1, 716498, Control_c, 0, 64, 93
1, 716518, Control_c, 0, 64, 75
1, 716536, Control_c, 0, 64, 73
1, 716554, Control_c, 0, 64, 78
1, 716573, Control_c, 0, 64, 87
1, 716592, Control_c, 0, 64, 99
1, 716609, Control_c, 0, 64, 113
1, 716629, Note_on_c, 0, 60, 45
1, 716629, Control_c, 0, 64, 127
1, 716647, Note_on_c, 0, 44, 40
1, 716657, Note_off_c, 0, 63, 34
1, 716657, Poly_aftertouch_c, 0, 63, 0
1, 716668, Note_off_c, 0, 58, 37
1, 716724, Note_off_c, 0, 44, 56
1, 716770, Note_off_c, 0, 60, 59
1, 716770, Poly_aftertouch_c, 0, 60, 0
1, 716820, Note_on_c, 0, 61, 42
1, 716877, Note_off_c, 0, 61, 62
1, 716877, Poly_aftertouch_c, 0, 61, 0
1, 716890, Control_c, 0, 67, 120
1, 716940, Note_on_c, 0, 60, 36
1, 716981, Note_off_c, 0, 60, 55
1, 716981, Poly_aftertouch_c, 0, 60, 0
1, 717010, Note_on_c, 0, 61, 53
1, 717056, Note_off_c, 0, 61, 61
1, 717056, Poly_aftertouch_c, 0, 61, 0
1, 717059, Note_on_c, 0, 63, 43
1, 717097, Note_on_c, 0, 60, 49
1, 717117, Note_off_c, 0, 63, 50
1, 717117, Poly_aftertouch_c, 0, 63, 0
1, 717154, Note_off_c, 0, 60, 59
1, 717154, Poly_aftertouch_c, 0, 60, 0
1, 717187, Note_on_c, 0, 58, 47
1, 717219, Note_on_c, 0, 51, 42
1, 717270, Note_off_c, 0, 58, 52
1, 717282, Note_on_c, 0, 60, 38
1, 717282, Control_c, 0, 67, 116
1, 717408, Note_on_c, 0, 61, 56
1, 717414, Control_c, 0, 64, 122
1, 717428, Note_on_c, 0, 46, 46
1, 717453, Control_c, 0, 64, 115
1, 717471, Control_c, 0, 64, 110
1, 717481, Note_off_c, 0, 51, 32
1, 717481, Poly_aftertouch_c, 0, 51, 0
1, 717487, Control_c, 0, 64, 103
1, 717508, Control_c, 0, 64, 94
1, 717514, Note_off_c, 0, 60, 35
1, 717514, Poly_aftertouch_c, 0, 60, 0
1, 717527, Control_c, 0, 64, 83
1, 717528, Control_c, 0, 67, 111
1, 717545, Control_c, 0, 64, 72
1, 717564, Control_c, 0, 64, 60
1, 717583, Control_c, 0, 64, 50
1, 717584, Control_c, 0, 67, 107
1, 717601, Control_c, 0, 64, 42
1, 717621, Control_c, 0, 67, 102
1, 717658, Control_c, 0, 64, 49
1, 717659, Control_c, 0, 67, 94
1, 717677, Control_c, 0, 64, 60
1, 717677, Control_c, 0, 67, 89
1, 717686, Note_on_c, 0, 63, 44
1, 717692, Control_c, 0, 64, 72
1, 717693, Control_c, 0, 67, 85
1, 717714, Control_c, 0, 64, 81
1, 717716, Control_c, 0, 67, 80
1, 717733, Control_c, 0, 64, 89
1, 717751, Control_c, 0, 64, 100
1, 717752, Control_c, 0, 67, 74
1, 717770, Control_c, 0, 64, 113
1, 717788, Control_c, 0, 64, 126
1, 717789, Control_c, 0, 67, 68
1, 717808, Control_c, 0, 67, 63
1, 717825, Control_c, 0, 67, 58
1, 717845, Control_c, 0, 67, 54
1, 717882, Control_c, 0, 67, 47
1, 717900, Control_c, 0, 67, 43
1, 717908, Note_on_c, 0, 51, 41
1, 717919, Control_c, 0, 67, 39
1, 717938, Control_c, 0, 67, 34
1, 717943, Note_off_c, 0, 46, 52
1, 717956, Control_c, 0, 67, 29
1, 717975, Control_c, 0, 67, 24
1, 717994, Control_c, 0, 67, 19
1, 718013, Control_c, 0, 67, 15
1, 718031, Control_c, 0, 67, 10
1, 718132, Note_on_c, 0, 58, 56
1, 718174, Note_on_c, 0, 55, 37
1, 718222, Note_off_c, 0, 63, 31
1, 718222, Poly_aftertouch_c, 0, 63, 0
1, 718235, Note_off_c, 0, 61, 37
1, 718235, Poly_aftertouch_c, 0, 61, 0
1, 718237, Control_c, 0, 67, 0
1, 718265, Note_off_c, 0, 51, 34
1, 718265, Poly_aftertouch_c, 0, 51, 0
1, 718275, Control_c, 0, 64, 121
1, 718293, Control_c, 0, 64, 105
1, 718311, Control_c, 0, 64, 89
1, 718331, Control_c, 0, 64, 76
1, 718350, Control_c, 0, 64, 70
1, 718386, Control_c, 0, 64, 75
1, 718398, Note_on_c, 0, 63, 34
1, 718405, Control_c, 0, 64, 80
1, 718424, Control_c, 0, 64, 88
1, 718443, Control_c, 0, 64, 100
1, 718462, Control_c, 0, 64, 114
1, 718480, Control_c, 0, 64, 127
1, 718639, Note_off_c, 0, 58, 61
1, 718639, Note_on_c, 0, 51, 41
1, 718666, Note_off_c, 0, 55, 36
1, 718666, Poly_aftertouch_c, 0, 55, 0
1, 718734, Note_off_c, 0, 63, 41
1, 718734, Poly_aftertouch_c, 0, 63, 0
1, 718889, Note_on_c, 0, 60, 61
1, 718923, Note_on_c, 0, 56, 39
1, 718948, Control_c, 0, 64, 123
1, 718966, Control_c, 0, 64, 103
1, 718985, Control_c, 0, 64, 82
1, 719005, Control_c, 0, 64, 63
1, 719023, Control_c, 0, 64, 52
1, 719060, Control_c, 0, 64, 57
1, 719078, Control_c, 0, 64, 66
1, 719097, Control_c, 0, 64, 75
1, 719115, Control_c, 0, 64, 85
1, 719135, Control_c, 0, 64, 102
1, 719153, Control_c, 0, 64, 124
1, 719157, Note_off_c, 0, 51, 29
1, 719157, Note_on_c, 0, 63, 44
1, 719157, Poly_aftertouch_c, 0, 51, 0
1, 719339, Note_off_c, 0, 63, 38
1, 719339, Poly_aftertouch_c, 0, 63, 0
1, 719354, Note_on_c, 0, 51, 37
1, 719378, Note_off_c, 0, 56, 35
1, 719618, Note_on_c, 0, 63, 62
1, 719620, Control_c, 0, 64, 115
1, 719639, Control_c, 0, 64, 96
1, 719658, Control_c, 0, 64, 75
1, 719665, Note_on_c, 0, 55, 35
1, 719677, Control_c, 0, 64, 56
1, 719695, Control_c, 0, 64, 42
1, 719717, Note_off_c, 0, 60, 41
1, 719717, Poly_aftertouch_c, 0, 60, 0
1, 719733, Control_c, 0, 64, 45
1, 719752, Control_c, 0, 64, 59
1, 719770, Control_c, 0, 64, 73
1, 719790, Control_c, 0, 64, 85
1, 719808, Control_c, 0, 64, 102
1, 719827, Control_c, 0, 64, 127
1, 719907, Note_off_c, 0, 51, 49
1, 719907, Poly_aftertouch_c, 0, 51, 0
1, 720051, Note_on_c, 0, 51, 37
1, 720219, Control_c, 0, 67, 8
1, 720253, Note_off_c, 0, 55, 36
1, 720253, Poly_aftertouch_c, 0, 55, 0
1, 720311, Control_c, 0, 67, 12
1, 720318, Note_on_c, 0, 68, 59
1, 720367, Note_on_c, 0, 53, 37
1, 720394, Note_off_c, 0, 63, 34
1, 720394, Poly_aftertouch_c, 0, 63, 0
1, 720407, Control_c, 0, 64, 116
1, 720425, Control_c, 0, 64, 97
1, 720426, Control_c, 0, 67, 16
1, 720444, Control_c, 0, 64, 73
1, 720463, Control_c, 0, 64, 54
1, 720464, Control_c, 0, 67, 24
1, 720481, Control_c, 0, 64, 44
1, 720500, Control_c, 0, 67, 30
1, 720518, Control_c, 0, 64, 52
1, 720537, Control_c, 0, 64, 66
1, 720557, Control_c, 0, 64, 78
1, 720574, Control_c, 0, 64, 89
1, 720577, Control_c, 0, 67, 35
1, 720588, Note_on_c, 0, 63, 31
1, 720591, Control_c, 0, 64, 104
1, 720613, Control_c, 0, 64, 120
1, 720631, Control_c, 0, 64, 127
1, 720675, Note_off_c, 0, 51, 36
1, 720675, Poly_aftertouch_c, 0, 51, 0
1, 720721, Note_off_c, 0, 53, 29
1, 720721, Poly_aftertouch_c, 0, 53, 0
1, 720836, Control_c, 0, 67, 39
1, 720844, Note_on_c, 0, 51, 39
1, 720967, Control_c, 0, 67, 44
1, 721085, Note_off_c, 0, 63, 29
1, 721085, Poly_aftertouch_c, 0, 63, 0
1, 721124, Note_on_c, 0, 70, 53
1, 721167, Note_on_c, 0, 52, 32
1, 721172, Control_c, 0, 64, 121
1, 721211, Control_c, 0, 64, 115
1, 721229, Control_c, 0, 64, 110
1, 721247, Poly_aftertouch_c, 0, 51, 24
1, 721248, Control_c, 0, 64, 102
1, 721267, Control_c, 0, 64, 92
1, 721268, Control_c, 0, 67, 49
1, 721285, Control_c, 0, 64, 76
1, 721286, Note_off_c, 0, 68, 37
1, 721286, Poly_aftertouch_c, 0, 68, 0
1, 721288, Control_c, 0, 67, 54
1, 721304, Control_c, 0, 64, 61
1, 721305, Control_c, 0, 67, 60
1, 721311, Note_off_c, 0, 51, 35
1, 721311, Poly_aftertouch_c, 0, 51, 0
1, 721322, Control_c, 0, 64, 51
1, 721323, Control_c, 0, 67, 65
1, 721341, Control_c, 0, 64, 45
1, 721343, Control_c, 0, 67, 70
1, 721378, Control_c, 0, 64, 51
1, 721379, Control_c, 0, 67, 76
1, 721398, Control_c, 0, 64, 56
1, 721416, Control_c, 0, 64, 65
1, 721417, Control_c, 0, 67, 81
1, 721435, Control_c, 0, 64, 75
1, 721453, Control_c, 0, 64, 86
1, 721455, Control_c, 0, 67, 87
1, 721471, Control_c, 0, 64, 99
1, 721480, Note_on_c, 0, 63, 31
1, 721491, Control_c, 0, 64, 114
1, 721492, Control_c, 0, 67, 95
1, 721510, Control_c, 0, 64, 127
1, 721511, Control_c, 0, 67, 99
1, 721527, Control_c, 0, 67, 104
1, 721547, Control_c, 0, 67, 109
1, 721566, Control_c, 0, 67, 113
1, 721602, Control_c, 0, 67, 118
1, 721658, Control_c, 0, 67, 123
1, 721733, Control_c, 0, 67, 127
1, 721747, Poly_aftertouch_c, 0, 52, 20
1, 721757, Note_off_c, 0, 52, 30
1, 721757, Poly_aftertouch_c, 0, 52, 0
1, 721820, Note_on_c, 0, 51, 30
1, 721902, Note_off_c, 0, 63, 35
1, 721902, Poly_aftertouch_c, 0, 63, 0
1, 721948, Note_on_c, 0, 67, 40
1, 722038, Note_off_c, 0, 51, 37
1, 722038, Poly_aftertouch_c, 0, 51, 0
1, 722072, Note_off_c, 0, 70, 30
1, 722205, Note_on_c, 0, 63, 27
1, 722295, Control_c, 0, 64, 123
1, 722351, Control_c, 0, 64, 118
1, 722368, Note_on_c, 0, 75, 54
1, 722387, Control_c, 0, 64, 114
1, 722428, Control_c, 0, 64, 109
1, 722463, Control_c, 0, 64, 102
1, 722482, Control_c, 0, 64, 95
1, 722500, Control_c, 0, 64, 87
1, 722519, Control_c, 0, 64, 78
1, 722538, Control_c, 0, 64, 69
1, 722556, Control_c, 0, 64, 59
1, 722575, Control_c, 0, 64, 46
1, 722593, Control_c, 0, 64, 29
1, 722612, Control_c, 0, 64, 19
1, 722669, Control_c, 0, 64, 27
1, 722687, Control_c, 0, 64, 32
1, 722706, Control_c, 0, 64, 38
1, 722724, Control_c, 0, 64, 47
1, 722743, Control_c, 0, 64, 58
1, 722762, Control_c, 0, 64, 68
1, 722781, Control_c, 0, 64, 74
1, 722799, Control_c, 0, 64, 79
1, 722818, Control_c, 0, 64, 85
1, 722837, Control_c, 0, 64, 93
1, 722843, Note_on_c, 0, 51, 26
1, 722857, Control_c, 0, 64, 102
1, 722874, Control_c, 0, 64, 112
1, 722894, Control_c, 0, 64, 121
1, 722912, Control_c, 0, 64, 127
1, 722978, Note_off_c, 0, 63, 35
1, 722978, Poly_aftertouch_c, 0, 63, 0
1, 723205, Note_off_c, 0, 51, 33
1, 723205, Poly_aftertouch_c, 0, 51, 0
1, 723212, Note_on_c, 0, 63, 28
1, 723642, Note_on_c, 0, 66, 34
1, 723684, Note_on_c, 0, 51, 27
1, 723753, Control_c, 0, 64, 119
1, 723772, Control_c, 0, 64, 113
1, 723790, Control_c, 0, 64, 105
1, 723809, Note_off_c, 0, 63, 38
1, 723809, Poly_aftertouch_c, 0, 63, 0
1, 723809, Control_c, 0, 64, 94
1, 723819, Note_off_c, 0, 67, 33
1, 723829, Control_c, 0, 64, 78
1, 723847, Control_c, 0, 64, 62
1, 723864, Control_c, 0, 64, 54
1, 723904, Control_c, 0, 64, 58
1, 723922, Control_c, 0, 64, 64
1, 723939, Control_c, 0, 64, 68
1, 723959, Control_c, 0, 64, 72
1, 723977, Control_c, 0, 64, 77
1, 723996, Control_c, 0, 64, 85
1, 724015, Control_c, 0, 64, 95
1, 724033, Control_c, 0, 64, 106
1, 724053, Control_c, 0, 64, 118
1, 724070, Control_c, 0, 64, 127
1, 724093, Note_on_c, 0, 63, 33
1, 724163, Note_off_c, 0, 51, 31
1, 724163, Poly_aftertouch_c, 0, 51, 0
1, 724388, Note_on_c, 0, 51, 19
1, 724438, Note_off_c, 0, 63, 37
1, 724438, Poly_aftertouch_c, 0, 63, 0
1, 724688, Poly_aftertouch_c, 0, 51, 22
1, 724702, Note_on_c, 0, 63, 20
1, 724711, Note_off_c, 0, 51, 26
1, 724711, Poly_aftertouch_c, 0, 51, 0
1, 724992, Note_on_c, 0, 51, 28
1, 725013, Note_off_c, 0, 63, 39
1, 725013, Poly_aftertouch_c, 0, 63, 0
1, 725211, Note_off_c, 0, 75, 29
1, 725248, Note_off_c, 0, 66, 33
1, 725288, Note_on_c, 0, 63, 32
1, 725414, Note_off_c, 0, 63, 49
1, 725414, Poly_aftertouch_c, 0, 63, 0
1, 725718, Note_on_c, 0, 75, 52
1, 725753, Note_on_c, 0, 66, 31
1, 725816, Poly_aftertouch_c, 0, 51, 24
1, 725865, Note_on_c, 0, 47, 31
1, 725884, Control_c, 0, 64, 107
1, 725904, Control_c, 0, 64, 93
1, 725923, Control_c, 0, 64, 89
1, 725924, Control_c, 0, 67, 123
1, 725960, Control_c, 0, 64, 96
1, 725978, Control_c, 0, 64, 102
1, 725998, Control_c, 0, 64, 111
1, 726015, Control_c, 0, 64, 122
1, 726034, Control_c, 0, 64, 127
1, 726049, Note_off_c, 0, 47, 33
1, 726049, Poly_aftertouch_c, 0, 47, 0
1, 726053, Control_c, 0, 67, 119
1, 726099, Poly_aftertouch_c, 0, 51, 22
1, 726131, Note_off_c, 0, 51, 19
1, 726131, Poly_aftertouch_c, 0, 51, 0
1, 726203, Control_c, 0, 67, 115
1, 726255, Note_on_c, 0, 63, 39
1, 726459, Note_off_c, 0, 63, 46
1, 726459, Poly_aftertouch_c, 0, 63, 0
1, 726531, Note_on_c, 0, 51, 38
1, 726847, Note_on_c, 0, 67, 49
1, 726900, Note_on_c, 0, 47, 34
1, 726957, Poly_aftertouch_c, 0, 51, 24
1, 726978, Note_off_c, 0, 66, 36
1, 727025, Control_c, 0, 64, 117
1, 727033, Note_off_c, 0, 47, 57
1, 727033, Poly_aftertouch_c, 0, 47, 0
1, 727044, Control_c, 0, 64, 101
1, 727063, Control_c, 0, 64, 92
1, 727101, Control_c, 0, 64, 97
1, 727119, Control_c, 0, 64, 104
1, 727138, Control_c, 0, 64, 113
1, 727150, Note_off_c, 0, 51, 28
1, 727150, Poly_aftertouch_c, 0, 51, 0
1, 727151, Poly_aftertouch_c, 0, 51, 0
1, 727155, Control_c, 0, 64, 123
1, 727175, Control_c, 0, 64, 127
1, 727221, Note_on_c, 0, 63, 43
1, 727380, Note_off_c, 0, 63, 52
1, 727380, Poly_aftertouch_c, 0, 63, 0
1, 727446, Note_on_c, 0, 51, 43
1, 727723, Note_on_c, 0, 71, 55
1, 727736, Control_c, 0, 64, 119
1, 727741, Poly_aftertouch_c, 0, 51, 24
1, 727754, Note_on_c, 0, 47, 40
1, 727754, Control_c, 0, 64, 103
1, 727774, Control_c, 0, 64, 84
1, 727792, Control_c, 0, 64, 68
1, 727811, Control_c, 0, 64, 65
1, 727831, Control_c, 0, 64, 69
1, 727848, Control_c, 0, 64, 75
1, 727862, Note_off_c, 0, 47, 57
1, 727862, Poly_aftertouch_c, 0, 47, 0
1, 727866, Control_c, 0, 64, 82
1, 727886, Control_c, 0, 64, 93
1, 727892, Note_off_c, 0, 75, 55
1, 727904, Control_c, 0, 64, 111
1, 727923, Control_c, 0, 64, 127
1, 727964, Note_off_c, 0, 51, 19
1, 727964, Poly_aftertouch_c, 0, 51, 0
1, 728027, Note_on_c, 0, 63, 45
1, 728129, Control_c, 0, 67, 111
1, 728183, Note_off_c, 0, 63, 49
1, 728183, Poly_aftertouch_c, 0, 63, 0
1, 728244, Note_on_c, 0, 51, 47
1, 728278, Control_c, 0, 67, 107
1, 728368, Note_off_c, 0, 51, 32
1, 728368, Poly_aftertouch_c, 0, 51, 0
1, 728410, Control_c, 0, 67, 102
1, 728484, Control_c, 0, 64, 108
1, 728492, Note_on_c, 0, 68, 61
1, 728503, Control_c, 0, 64, 87
1, 728504, Control_c, 0, 67, 98
1, 728519, Note_on_c, 0, 47, 39
1, 728522, Control_c, 0, 64, 65
1, 728540, Control_c, 0, 64, 49
1, 728558, Control_c, 0, 64, 43
1, 728570, Note_off_c, 0, 67, 55
1, 728576, Control_c, 0, 64, 46
1, 728596, Control_c, 0, 64, 56
1, 728598, Note_off_c, 0, 47, 55
1, 728598, Poly_aftertouch_c, 0, 47, 0
1, 728617, Control_c, 0, 64, 67
1, 728633, Control_c, 0, 64, 78
1, 728653, Control_c, 0, 64, 89
1, 728655, Control_c, 0, 67, 94
1, 728673, Control_c, 0, 64, 105
1, 728680, Note_off_c, 0, 71, 50
1, 728680, Poly_aftertouch_c, 0, 71, 0
1, 728690, Control_c, 0, 64, 121
1, 728708, Control_c, 0, 64, 127
1, 728727, Control_c, 0, 67, 89
1, 728776, Note_on_c, 0, 64, 40
1, 728821, Control_c, 0, 67, 85
1, 728872, Note_off_c, 0, 64, 35
1, 728872, Poly_aftertouch_c, 0, 64, 0
1, 728934, Control_c, 0, 67, 81
1, 729035, Note_on_c, 0, 52, 36
1, 729253, Note_on_c, 0, 64, 57
1, 729270, Note_off_c, 0, 52, 39
1, 729270, Poly_aftertouch_c, 0, 52, 0
1, 729277, Note_on_c, 0, 47, 30
1, 729473, Note_off_c, 0, 68, 59
1, 729473, Poly_aftertouch_c, 0, 68, 0
1, 729530, Note_on_c, 0, 61, 44
1, 729697, Note_off_c, 0, 61, 48
1, 729697, Poly_aftertouch_c, 0, 61, 0
1, 729711, Note_off_c, 0, 47, 33
1, 729711, Poly_aftertouch_c, 0, 47, 0
1, 729721, Note_on_c, 0, 52, 46
1, 729929, Note_off_c, 0, 52, 36
1, 729929, Poly_aftertouch_c, 0, 52, 0
1, 729959, Note_on_c, 0, 61, 57
1, 730006, Note_on_c, 0, 47, 44
1, 730074, Control_c, 0, 64, 122
1, 730093, Control_c, 0, 64, 108
1, 730110, Control_c, 0, 64, 92
1, 730120, Note_off_c, 0, 64, 59
1, 730120, Poly_aftertouch_c, 0, 64, 0
1, 730128, Control_c, 0, 64, 71
1, 730148, Control_c, 0, 64, 53
1, 730167, Control_c, 0, 64, 39
1, 730205, Control_c, 0, 64, 44
1, 730224, Control_c, 0, 64, 54
1, 730241, Control_c, 0, 64, 67
1, 730246, Note_on_c, 0, 58, 44
1, 730261, Control_c, 0, 64, 81
1, 730280, Control_c, 0, 64, 95
1, 730298, Control_c, 0, 64, 111
1, 730299, Control_c, 0, 67, 85
1, 730317, Control_c, 0, 64, 126
1, 730355, Control_c, 0, 67, 92
1, 730372, Control_c, 0, 67, 98
1, 730390, Control_c, 0, 67, 104
1, 730410, Control_c, 0, 67, 111
1, 730430, Control_c, 0, 67, 117
1, 730462, Note_on_c, 0, 49, 41
1, 730485, Control_c, 0, 67, 121
1, 730507, Note_off_c, 0, 58, 37
1, 730540, Control_c, 0, 67, 125
1, 730548, Note_off_c, 0, 47, 47
1, 730548, Poly_aftertouch_c, 0, 47, 0
1, 730694, Note_off_c, 0, 61, 51
1, 730694, Poly_aftertouch_c, 0, 61, 0
1, 730729, Control_c, 0, 64, 111
1, 730733, Note_on_c, 0, 63, 44
1, 730739, Note_on_c, 0, 47, 43
1, 730744, Control_c, 0, 64, 91
1, 730765, Note_off_c, 0, 49, 35
1, 730765, Poly_aftertouch_c, 0, 49, 0
1, 730766, Control_c, 0, 64, 75
1, 730784, Control_c, 0, 64, 70
1, 730804, Control_c, 0, 64, 72
1, 730815, Note_off_c, 0, 63, 58
1, 730815, Poly_aftertouch_c, 0, 63, 0
1, 730822, Control_c, 0, 64, 76
1, 730840, Control_c, 0, 64, 84
1, 730858, Control_c, 0, 64, 96
1, 730868, Note_on_c, 0, 64, 44
1, 730877, Control_c, 0, 64, 112
1, 730897, Control_c, 0, 64, 127
1, 730922, Note_off_c, 0, 64, 62
1, 730922, Poly_aftertouch_c, 0, 64, 0
1, 730951, Note_on_c, 0, 59, 48
1, 730952, Note_on_c, 0, 63, 49
1, 730998, Note_off_c, 0, 63, 64
1, 730998, Poly_aftertouch_c, 0, 63, 0
1, 731041, Note_on_c, 0, 64, 51
1, 731095, Note_on_c, 0, 63, 60
1, 731139, Note_on_c, 0, 51, 46
1, 731140, Note_off_c, 0, 64, 54
1, 731140, Poly_aftertouch_c, 0, 64, 0
1, 731164, Note_off_c, 0, 47, 37
1, 731164, Poly_aftertouch_c, 0, 47, 0
1, 731179, Note_off_c, 0, 59, 38
1, 731179, Poly_aftertouch_c, 0, 59, 0
1, 731184, Note_off_c, 0, 63, 60
1, 731184, Poly_aftertouch_c, 0, 63, 0
1, 731208, Note_on_c, 0, 61, 51
1, 731278, Note_on_c, 0, 63, 45
1, 731286, Control_c, 0, 64, 122
1, 731314, Note_off_c, 0, 61, 59
1, 731314, Poly_aftertouch_c, 0, 61, 0
1, 731326, Control_c, 0, 64, 117
1, 731356, Note_on_c, 0, 47, 40
1, 731358, Note_off_c, 0, 51, 45
1, 731358, Poly_aftertouch_c, 0, 51, 0
1, 731364, Control_c, 0, 64, 111
1, 731401, Control_c, 0, 64, 103
1, 731420, Control_c, 0, 64, 99
1, 731439, Control_c, 0, 64, 95
1, 731454, Note_on_c, 0, 64, 61
1, 731456, Control_c, 0, 64, 89
1, 731475, Control_c, 0, 64, 84
1, 731495, Control_c, 0, 64, 77
1, 731503, Note_off_c, 0, 63, 60
1, 731503, Poly_aftertouch_c, 0, 63, 0
1, 731513, Control_c, 0, 64, 69
1, 731531, Control_c, 0, 64, 59
1, 731551, Control_c, 0, 64, 44
1, 731569, Control_c, 0, 64, 16
1, 731587, Control_c, 0, 64, 0
1, 731662, Control_c, 0, 64, 26
1, 731681, Control_c, 0, 64, 41
1, 731701, Control_c, 0, 64, 56
1, 731718, Control_c, 0, 64, 70
1, 731733, Note_on_c, 0, 61, 45
1, 731735, Control_c, 0, 64, 81
1, 731756, Control_c, 0, 64, 90
1, 731775, Control_c, 0, 64, 100
1, 731794, Control_c, 0, 64, 112
1, 731812, Control_c, 0, 64, 125
1, 731831, Control_c, 0, 67, 121
1, 731886, Poly_aftertouch_c, 0, 47, 24
1, 731933, Note_off_c, 0, 61, 54
1, 731933, Poly_aftertouch_c, 0, 61, 0
1, 731940, Note_on_c, 0, 52, 45
1, 731943, Control_c, 0, 67, 117
1, 731981, Note_off_c, 0, 47, 29
1, 731981, Poly_aftertouch_c, 0, 47, 0
1, 732018, Control_c, 0, 67, 113
1, 732092, Control_c, 0, 67, 108
1, 732146, Note_off_c, 0, 52, 32
1, 732146, Poly_aftertouch_c, 0, 52, 0
1, 732162, Note_on_c, 0, 61, 63
1, 732188, Note_on_c, 0, 47, 41
1, 732299, Control_c, 0, 64, 116
1, 732317, Control_c, 0, 64, 96
1, 732335, Control_c, 0, 64, 73
1, 732355, Control_c, 0, 64, 52
1, 732373, Control_c, 0, 64, 28
1, 732392, Control_c, 0, 64, 13
1, 732407, Note_off_c, 0, 64, 32
1, 732407, Poly_aftertouch_c, 0, 64, 0
1, 732410, Control_c, 0, 64, 24
1, 732420, Note_on_c, 0, 58, 41
1, 732427, Control_c, 0, 64, 41
1, 732448, Control_c, 0, 64, 59
1, 732466, Control_c, 0, 64, 77
1, 732485, Control_c, 0, 64, 93
1, 732505, Control_c, 0, 64, 111
1, 732522, Control_c, 0, 64, 127
1, 732626, Note_on_c, 0, 49, 44
1, 732693, Note_off_c, 0, 47, 40
1, 732693, Poly_aftertouch_c, 0, 47, 0
1, 732848, Note_off_c, 0, 58, 31
1, 732851, Note_on_c, 0, 63, 65
1, 732875, Note_on_c, 0, 47, 39
1, 732913, Note_off_c, 0, 49, 24
1, 732913, Poly_aftertouch_c, 0, 49, 0
1, 732934, Control_c, 0, 64, 118
1, 732954, Control_c, 0, 64, 102
1, 732972, Control_c, 0, 64, 82
1, 732990, Control_c, 0, 64, 59
1, 733004, Note_off_c, 0, 61, 57
1, 733004, Poly_aftertouch_c, 0, 61, 0
1, 733008, Control_c, 0, 64, 32
1, 733009, Control_c, 0, 67, 103
1, 733027, Control_c, 0, 64, 0
1, 733028, Control_c, 0, 67, 99
1, 733046, Control_c, 0, 67, 95
1, 733065, Control_c, 0, 64, 27
1, 733067, Control_c, 0, 67, 91
1, 733083, Control_c, 0, 64, 44
1, 733084, Control_c, 0, 67, 86
1, 733103, Control_c, 0, 64, 62
1, 733104, Control_c, 0, 67, 82
1, 733121, Control_c, 0, 64, 79
1, 733140, Control_c, 0, 64, 97
1, 733143, Note_on_c, 0, 59, 41
1, 733143, Control_c, 0, 67, 77
1, 733160, Control_c, 0, 64, 119
1, 733178, Control_c, 0, 64, 127
1, 733179, Control_c, 0, 67, 72
1, 733214, Control_c, 0, 67, 66
1, 733234, Control_c, 0, 67, 62
1, 733252, Control_c, 0, 67, 56
1, 733271, Control_c, 0, 67, 51
1, 733289, Control_c, 0, 67, 44
1, 733309, Control_c, 0, 67, 37
1, 733326, Control_c, 0, 67, 31
1, 733345, Control_c, 0, 67, 25
1, 733364, Control_c, 0, 67, 18
1, 733367, Note_on_c, 0, 51, 43
1, 733377, Note_off_c, 0, 47, 36
1, 733377, Poly_aftertouch_c, 0, 47, 0
1, 733382, Control_c, 0, 67, 11
1, 733407, Note_off_c, 0, 59, 48
1, 733407, Poly_aftertouch_c, 0, 59, 0
1, 733495, Control_c, 0, 67, 0
1, 733623, Note_on_c, 0, 67, 59
1, 733634, Note_off_c, 0, 51, 34
1, 733634, Poly_aftertouch_c, 0, 51, 0
1, 733683, Note_on_c, 0, 46, 45
1, 733711, Note_off_c, 0, 63, 60
1, 733711, Poly_aftertouch_c, 0, 63, 0
1, 733757, Control_c, 0, 64, 113
1, 733776, Control_c, 0, 64, 88
1, 733795, Control_c, 0, 64, 63
1, 733812, Control_c, 0, 64, 51
1, 733852, Control_c, 0, 64, 58
1, 733869, Control_c, 0, 64, 70
1, 733887, Control_c, 0, 64, 81
1, 733907, Control_c, 0, 64, 97
1, 733926, Control_c, 0, 64, 121
1, 733943, Note_on_c, 0, 61, 44
1, 733943, Control_c, 0, 64, 127
1, 734141, Note_off_c, 0, 61, 58
1, 734141, Poly_aftertouch_c, 0, 61, 0
1, 734160, Note_off_c, 0, 46, 39
1, 734182, Note_on_c, 0, 52, 40
1, 734432, Note_on_c, 0, 68, 54
1, 734496, Note_on_c, 0, 44, 39
1, 734523, Note_off_c, 0, 52, 33
1, 734523, Poly_aftertouch_c, 0, 52, 0
1, 734562, Control_c, 0, 64, 99
1, 734580, Control_c, 0, 64, 70
1, 734599, Control_c, 0, 64, 46
1, 734617, Control_c, 0, 64, 35
1, 734635, Control_c, 0, 64, 41
1, 734655, Control_c, 0, 64, 55
1, 734671, Note_off_c, 0, 67, 38
1, 734671, Control_c, 0, 64, 72
1, 734692, Control_c, 0, 64, 92
1, 734711, Control_c, 0, 64, 119
1, 734729, Control_c, 0, 64, 127
1, 734738, Note_on_c, 0, 59, 43
1, 734835, Note_off_c, 0, 44, 28
1, 734843, Note_on_c, 0, 70, 70
1, 734867, Note_off_c, 0, 59, 50
1, 734867, Poly_aftertouch_c, 0, 59, 0
1, 734949, Note_on_c, 0, 51, 44
1, 735000, Note_off_c, 0, 51, 60
1, 735000, Poly_aftertouch_c, 0, 51, 0
1, 735052, Note_off_c, 0, 68, 62
1, 735052, Poly_aftertouch_c, 0, 68, 0
1, 735181, Note_on_c, 0, 71, 69
1, 735197, Control_c, 0, 64, 110
1, 735211, Note_on_c, 0, 40, 47
1, 735214, Control_c, 0, 64, 78
1, 735235, Control_c, 0, 64, 53
1, 735254, Control_c, 0, 64, 47
1, 735272, Control_c, 0, 64, 57
1, 735277, Note_off_c, 0, 70, 57
1, 735290, Control_c, 0, 64, 75
1, 735296, Note_off_c, 0, 40, 58
1, 735296, Poly_aftertouch_c, 0, 40, 0
1, 735309, Control_c, 0, 64, 97
1, 735327, Control_c, 0, 64, 127
1, 735434, Note_on_c, 0, 56, 48
1, 735500, Note_on_c, 0, 73, 77
1, 735505, Note_off_c, 0, 56, 53
1, 735599, Note_off_c, 0, 71, 53
1, 735599, Poly_aftertouch_c, 0, 71, 0
1, 735653, Note_on_c, 0, 52, 49
1, 735702, Note_off_c, 0, 52, 63
1, 735702, Poly_aftertouch_c, 0, 52, 0
1, 735710, Note_on_c, 0, 68, 58
1, 735819, Note_off_c, 0, 73, 58
1, 735943, Note_on_c, 0, 39, 46
1, 736112, Control_c, 0, 64, 121
1, 736116, Note_on_c, 0, 75, 70
1, 736132, Control_c, 0, 64, 116
1, 736151, Control_c, 0, 64, 110
1, 736169, Control_c, 0, 64, 102
1, 736189, Control_c, 0, 64, 90
1, 736207, Control_c, 0, 64, 75
1, 736225, Control_c, 0, 64, 60
1, 736244, Control_c, 0, 64, 39
1, 736263, Control_c, 0, 64, 0
1, 736357, Control_c, 0, 64, 23
1, 736375, Control_c, 0, 64, 52
1, 736394, Control_c, 0, 64, 75
1, 736414, Control_c, 0, 64, 92
1, 736431, Control_c, 0, 64, 117
1, 736449, Control_c, 0, 64, 127
1, 736470, Note_off_c, 0, 39, 51
1, 736470, Poly_aftertouch_c, 0, 39, 0
1, 736506, Note_on_c, 0, 51, 36
1, 736556, Note_off_c, 0, 51, 58
1, 736556, Poly_aftertouch_c, 0, 51, 0
1, 736798, Note_on_c, 0, 60, 30
1, 737130, Note_on_c, 0, 63, 36
1, 737214, Note_off_c, 0, 60, 36
1, 737214, Poly_aftertouch_c, 0, 60, 0
1, 737448, Note_on_c, 0, 60, 29
1, 737509, Note_off_c, 0, 63, 34
1, 737509, Poly_aftertouch_c, 0, 63, 0
1, 737653, Note_on_c, 0, 51, 41
1, 737762, Note_off_c, 0, 60, 30
1, 737762, Poly_aftertouch_c, 0, 60, 0
1, 737918, Note_on_c, 0, 63, 44
1, 738051, Note_off_c, 0, 51, 27
1, 738051, Poly_aftertouch_c, 0, 51, 0
1, 738152, Note_on_c, 0, 60, 42
1, 738265, Note_off_c, 0, 63, 34
1, 738265, Poly_aftertouch_c, 0, 63, 0
1, 738338, Note_on_c, 0, 51, 48
1, 738534, Note_off_c, 0, 60, 25
1, 738534, Poly_aftertouch_c, 0, 60, 0
1, 738551, Note_on_c, 0, 72, 68
1, 738590, Note_on_c, 0, 63, 47
1, 738664, Note_off_c, 0, 51, 34
1, 738664, Poly_aftertouch_c, 0, 51, 0
1, 738752, Note_on_c, 0, 60, 43
1, 738770, Note_off_c, 0, 68, 53
1, 738770, Poly_aftertouch_c, 0, 68, 0
1, 738803, Note_off_c, 0, 63, 57
1, 738803, Poly_aftertouch_c, 0, 63, 0
1, 738917, Note_off_c, 0, 60, 62
1, 738917, Poly_aftertouch_c, 0, 60, 0
1, 738939, Note_on_c, 0, 51, 48
1, 738973, Note_off_c, 0, 75, 31
1, 738992, Note_off_c, 0, 51, 58
1, 738992, Poly_aftertouch_c, 0, 51, 0
1, 739036, Note_on_c, 0, 69, 64
1, 739104, Note_off_c, 0, 72, 55
1, 739104, Poly_aftertouch_c, 0, 72, 0
1, 739251, Note_on_c, 0, 39, 49
1, 739254, Control_c, 0, 64, 112
1, 739273, Control_c, 0, 64, 100
1, 739293, Control_c, 0, 64, 86
1, 739311, Control_c, 0, 64, 72
1, 739329, Control_c, 0, 64, 60
1, 739348, Control_c, 0, 64, 47
1, 739359, Note_on_c, 0, 75, 76
1, 739366, Control_c, 0, 64, 31
1, 739386, Control_c, 0, 64, 19
1, 739424, Control_c, 0, 64, 37
1, 739441, Control_c, 0, 64, 51
1, 739459, Control_c, 0, 64, 66
1, 739479, Control_c, 0, 64, 77
1, 739498, Control_c, 0, 64, 90
1, 739516, Control_c, 0, 64, 111
1, 739535, Control_c, 0, 64, 127
1, 739559, Note_off_c, 0, 39, 53
1, 739559, Poly_aftertouch_c, 0, 39, 0
1, 739587, Note_on_c, 0, 51, 50
1, 739632, Note_off_c, 0, 51, 62
1, 739632, Poly_aftertouch_c, 0, 51, 0
1, 739849, Note_on_c, 0, 60, 38
1, 740100, Note_on_c, 0, 63, 39
1, 740137, Note_off_c, 0, 60, 36
1, 740137, Poly_aftertouch_c, 0, 60, 0
1, 740244, Control_c, 0, 67, 8
1, 740320, Control_c, 0, 67, 12
1, 740359, Note_on_c, 0, 60, 26
1, 740376, Control_c, 0, 67, 17
1, 740436, Note_off_c, 0, 63, 29
1, 740436, Poly_aftertouch_c, 0, 63, 0
1, 740469, Control_c, 0, 67, 22
1, 740507, Control_c, 0, 67, 27
1, 740544, Control_c, 0, 67, 34
1, 740556, Note_on_c, 0, 51, 33
1, 740581, Control_c, 0, 67, 40
1, 740619, Control_c, 0, 67, 46
1, 740656, Control_c, 0, 67, 52
1, 740669, Poly_aftertouch_c, 0, 60, 22
1, 740694, Control_c, 0, 64, 122
1, 740713, Control_c, 0, 64, 114
1, 740731, Control_c, 0, 64, 106
1, 740742, Note_off_c, 0, 60, 20
1, 740742, Poly_aftertouch_c, 0, 60, 0
1, 740749, Control_c, 0, 64, 101
1, 740769, Control_c, 0, 67, 56
1, 740862, Control_c, 0, 64, 106
1, 740873, Note_on_c, 0, 63, 31
1, 740880, Control_c, 0, 64, 111
1, 740901, Control_c, 0, 64, 116
1, 740902, Control_c, 0, 67, 61
1, 740919, Control_c, 0, 64, 121
1, 740938, Control_c, 0, 67, 66
1, 740957, Control_c, 0, 64, 127
1, 740958, Control_c, 0, 67, 70
1, 740993, Control_c, 0, 67, 77
1, 741030, Control_c, 0, 67, 83
1, 741068, Control_c, 0, 67, 87
1, 741088, Note_off_c, 0, 51, 32
1, 741088, Poly_aftertouch_c, 0, 51, 0
1, 741105, Control_c, 0, 67, 91
1, 741145, Note_on_c, 0, 60, 30
1, 741162, Control_c, 0, 67, 97
1, 741199, Control_c, 0, 67, 101
1, 741223, Note_off_c, 0, 63, 33
1, 741223, Poly_aftertouch_c, 0, 63, 0
1, 741238, Control_c, 0, 67, 106
1, 741329, Control_c, 0, 67, 110
1, 741399, Note_on_c, 0, 51, 32
1, 741417, Poly_aftertouch_c, 0, 60, 24
1, 741436, Note_off_c, 0, 69, 53
1, 741449, Note_off_c, 0, 60, 33
1, 741449, Poly_aftertouch_c, 0, 60, 0
1, 741479, Control_c, 0, 64, 122
1, 741501, Note_off_c, 0, 75, 38
1, 741516, Control_c, 0, 67, 114
1, 741591, Control_c, 0, 64, 117
1, 741616, Note_off_c, 0, 51, 28
1, 741616, Poly_aftertouch_c, 0, 51, 0
1, 741630, Control_c, 0, 67, 118
1, 741666, Control_c, 0, 64, 113
1, 741685, Control_c, 0, 67, 122
1, 741701, Note_on_c, 0, 70, 46
1, 741717, Note_on_c, 0, 67, 38
1, 741721, Control_c, 0, 64, 108
1, 741741, Note_on_c, 0, 63, 35
1, 741779, Control_c, 0, 64, 102
1, 741798, Control_c, 0, 64, 98
1, 741799, Control_c, 0, 67, 126
1, 741816, Control_c, 0, 64, 92
1, 741836, Control_c, 0, 64, 82
1, 741853, Control_c, 0, 64, 69
1, 741872, Control_c, 0, 64, 58
1, 741890, Control_c, 0, 64, 51
1, 741947, Control_c, 0, 64, 58
1, 741966, Control_c, 0, 64, 64
1, 741985, Control_c, 0, 64, 71
1, 742003, Control_c, 0, 64, 80
1, 742022, Control_c, 0, 64, 92
1, 742041, Control_c, 0, 64, 107
1, 742043, Note_on_c, 0, 61, 23
1, 742058, Control_c, 0, 64, 122
1, 742078, Control_c, 0, 64, 127
1, 742129, Note_off_c, 0, 63, 29
1, 742129, Poly_aftertouch_c, 0, 63, 0
1, 742323, Note_off_c, 0, 61, 40
1, 742323, Poly_aftertouch_c, 0, 61, 0
1, 742338, Note_on_c, 0, 51, 36
1, 742413, Note_off_c, 0, 51, 55
1, 742413, Poly_aftertouch_c, 0, 51, 0
1, 742461, Note_off_c, 0, 70, 47
1, 742512, Note_off_c, 0, 67, 42
1, 742809, Note_on_c, 0, 72, 36
1, 742840, Note_on_c, 0, 68, 32
1, 742900, Note_on_c, 0, 32, 29
1, 742938, Control_c, 0, 64, 119
1, 742957, Control_c, 0, 64, 111
1, 742976, Control_c, 0, 64, 101
1, 742993, Control_c, 0, 64, 87
1, 743013, Control_c, 0, 64, 68
1, 743031, Control_c, 0, 64, 45
1, 743051, Control_c, 0, 64, 0
1, 743107, Control_c, 0, 64, 23
1, 743125, Control_c, 0, 64, 42
1, 743143, Control_c, 0, 64, 59
1, 743164, Control_c, 0, 64, 73
1, 743181, Control_c, 0, 64, 84
1, 743199, Control_c, 0, 64, 95
1, 743218, Control_c, 0, 64, 108
1, 743237, Control_c, 0, 64, 119
1, 743257, Control_c, 0, 64, 127
1, 743324, Note_on_c, 0, 39, 32
1, 743366, Note_off_c, 0, 32, 32
1, 743591, Note_on_c, 0, 44, 33
1, 743597, Note_off_c, 0, 39, 35
1, 743597, Poly_aftertouch_c, 0, 39, 0
1, 743714, Note_off_c, 0, 44, 51
1, 743843, Note_on_c, 0, 48, 35
1, 744088, Note_off_c, 0, 48, 37
1, 744101, Note_on_c, 0, 51, 25
1, 744332, Note_on_c, 0, 56, 31
1, 744342, Note_off_c, 0, 51, 35
1, 744342, Poly_aftertouch_c, 0, 51, 0
1, 744430, Note_off_c, 0, 56, 53
1, 744613, Note_off_c, 0, 68, 38
1, 744613, Poly_aftertouch_c, 0, 68, 0
1, 744631, Note_on_c, 0, 60, 36
1, 744657, Note_off_c, 0, 72, 29
1, 744657, Poly_aftertouch_c, 0, 72, 0
1, 745013, Control_c, 0, 67, 122
1, 745031, Note_off_c, 0, 60, 40
1, 745031, Poly_aftertouch_c, 0, 60, 0
1, 745106, Note_on_c, 0, 63, 36
1, 745106, Control_c, 0, 67, 117
1, 745163, Control_c, 0, 67, 113
1, 745219, Control_c, 0, 67, 108
1, 745294, Control_c, 0, 67, 102
1, 745331, Control_c, 0, 67, 97
1, 745369, Control_c, 0, 67, 92
1, 745406, Control_c, 0, 67, 88
1, 745408, Note_off_c, 0, 63, 37
1, 745408, Poly_aftertouch_c, 0, 63, 0
1, 745433, Note_on_c, 0, 75, 61
1, 745443, Control_c, 0, 67, 83
1, 745480, Control_c, 0, 67, 77
1, 745508, Note_on_c, 0, 68, 27
1, 745518, Control_c, 0, 67, 71
1, 745555, Control_c, 0, 67, 64
1, 745575, Control_c, 0, 67, 59
1, 745594, Control_c, 0, 67, 54
1, 745611, Control_c, 0, 67, 50
1, 745631, Control_c, 0, 67, 46
1, 745669, Control_c, 0, 67, 38
1, 745687, Control_c, 0, 67, 34
1, 745706, Control_c, 0, 67, 29
1, 745715, Note_off_c, 0, 68, 46
1, 745715, Poly_aftertouch_c, 0, 68, 0
1, 745724, Control_c, 0, 67, 25
1, 745743, Control_c, 0, 67, 21
1, 745761, Control_c, 0, 67, 17
1, 745780, Control_c, 0, 67, 13
1, 745800, Control_c, 0, 67, 9
1, 745873, Note_on_c, 0, 72, 25
1, 745930, Control_c, 0, 67, 0
1, 746055, Note_off_c, 0, 72, 41
1, 746055, Poly_aftertouch_c, 0, 72, 0
1, 746117, Control_c, 0, 64, 123
1, 746174, Control_c, 0, 64, 118
1, 746211, Control_c, 0, 64, 113
1, 746266, Control_c, 0, 64, 108
1, 746359, Control_c, 0, 64, 103
1, 746372, Note_on_c, 0, 80, 57
1, 746416, Control_c, 0, 64, 96
1, 746454, Control_c, 0, 64, 91
1, 746528, Control_c, 0, 64, 87
1, 746547, Control_c, 0, 64, 85
1, 746603, Control_c, 0, 64, 82
1, 746622, Control_c, 0, 64, 79
1, 746640, Control_c, 0, 64, 76
1, 746660, Control_c, 0, 64, 72
1, 746678, Control_c, 0, 64, 70
1, 746693, Note_off_c, 0, 75, 37
1, 746715, Control_c, 0, 64, 65
1, 746734, Control_c, 0, 64, 60
1, 746752, Control_c, 0, 64, 53
1, 746771, Control_c, 0, 64, 45
1, 746789, Control_c, 0, 64, 35
1, 746809, Control_c, 0, 64, 29
1, 746865, Control_c, 0, 64, 35
1, 746884, Control_c, 0, 64, 42
1, 746901, Control_c, 0, 64, 50
1, 746921, Control_c, 0, 64, 58
1, 746939, Control_c, 0, 64, 67
1, 746958, Control_c, 0, 64, 75
1, 746976, Control_c, 0, 64, 80
1, 746996, Control_c, 0, 64, 85
1, 747015, Control_c, 0, 64, 90
1, 747033, Control_c, 0, 64, 96
1, 747052, Control_c, 0, 64, 102
1, 747071, Control_c, 0, 64, 109
1, 747083, Note_on_c, 0, 75, 35
1, 747088, Control_c, 0, 64, 116
1, 747092, Note_on_c, 0, 72, 29
1, 747108, Control_c, 0, 64, 124
1, 747203, Control_c, 0, 67, 8
1, 747258, Note_off_c, 0, 75, 41
1, 747294, Note_off_c, 0, 72, 41
1, 747294, Poly_aftertouch_c, 0, 72, 0
1, 747294, Control_c, 0, 67, 13
1, 747369, Control_c, 0, 67, 19
1, 747407, Control_c, 0, 67, 24
1, 747425, Control_c, 0, 67, 28
1, 747444, Control_c, 0, 67, 32
1, 747482, Control_c, 0, 67, 38
1, 747519, Control_c, 0, 67, 43
1, 747556, Control_c, 0, 67, 51
1, 747575, Control_c, 0, 67, 55
1, 747612, Control_c, 0, 67, 60
1, 747629, Note_on_c, 0, 75, 35
1, 747650, Control_c, 0, 67, 65
1, 747660, Note_on_c, 0, 72, 21
1, 747688, Control_c, 0, 67, 72
1, 747726, Control_c, 0, 67, 77
1, 747781, Note_off_c, 0, 75, 35
1, 747829, Note_off_c, 0, 72, 40
1, 747829, Poly_aftertouch_c, 0, 72, 0
1, 747836, Control_c, 0, 67, 81
1, 747844, Note_off_c, 0, 80, 55
1, 747844, Poly_aftertouch_c, 0, 80, 0
1, 748035, Note_on_c, 0, 80, 62
1, 748079, Note_on_c, 0, 72, 36
1, 748228, Note_off_c, 0, 80, 54
1, 748228, Poly_aftertouch_c, 0, 80, 0
1, 748245, Note_off_c, 0, 72, 34
1, 748245, Poly_aftertouch_c, 0, 72, 0
1, 748428, Note_on_c, 0, 78, 66
1, 748501, Note_on_c, 0, 72, 24
1, 748506, Note_on_c, 0, 70, 32
1, 748509, Control_c, 0, 64, 111
1, 748529, Control_c, 0, 64, 92
1, 748548, Control_c, 0, 64, 72
1, 748565, Control_c, 0, 64, 58
1, 748603, Control_c, 0, 64, 63
1, 748624, Control_c, 0, 64, 69
1, 748640, Control_c, 0, 64, 78
1, 748660, Control_c, 0, 64, 93
1, 748679, Control_c, 0, 64, 117
1, 748688, Note_off_c, 0, 72, 41
1, 748688, Poly_aftertouch_c, 0, 72, 0
1, 748693, Note_off_c, 0, 70, 43
1, 748696, Control_c, 0, 64, 127
1, 748790, Control_c, 0, 67, 85
1, 748828, Control_c, 0, 67, 89
1, 748851, Note_on_c, 0, 75, 43
1, 748862, Note_on_c, 0, 70, 35
1, 748867, Note_on_c, 0, 72, 31
1, 748885, Control_c, 0, 67, 93
1, 748929, Note_off_c, 0, 75, 52
1, 748959, Control_c, 0, 67, 98
1, 748986, Note_off_c, 0, 70, 40
1, 748996, Control_c, 0, 67, 102
1, 748997, Note_off_c, 0, 72, 37
1, 748997, Poly_aftertouch_c, 0, 72, 0
1, 749188, Note_on_c, 0, 75, 43
1, 749194, Note_on_c, 0, 72, 32
1, 749215, Note_on_c, 0, 70, 29
1, 749253, Note_off_c, 0, 75, 55
1, 749297, Note_off_c, 0, 70, 47
1, 749301, Note_off_c, 0, 78, 58
1, 749318, Note_off_c, 0, 72, 37
1, 749318, Poly_aftertouch_c, 0, 72, 0
1, 749475, Note_on_c, 0, 78, 63
1, 749506, Note_on_c, 0, 72, 38
1, 749516, Note_on_c, 0, 70, 36
1, 749593, Note_off_c, 0, 72, 51
1, 749593, Poly_aftertouch_c, 0, 72, 0
1, 749617, Note_off_c, 0, 70, 46
1, 749625, Note_off_c, 0, 78, 54
1, 749857, Note_on_c, 0, 77, 68
1, 749894, Control_c, 0, 64, 116
1, 749912, Control_c, 0, 64, 104
1, 749927, Note_on_c, 0, 69, 33
1, 749931, Control_c, 0, 64, 89
1, 749939, Note_on_c, 0, 72, 29
1, 749950, Control_c, 0, 64, 72
1, 749969, Control_c, 0, 64, 58
1, 749987, Control_c, 0, 64, 50
1, 750025, Control_c, 0, 64, 56
1, 750044, Control_c, 0, 64, 64
1, 750062, Control_c, 0, 64, 73
1, 750081, Control_c, 0, 64, 83
1, 750088, Note_off_c, 0, 69, 45
1, 750100, Control_c, 0, 64, 95
1, 750118, Control_c, 0, 64, 109
1, 750124, Note_off_c, 0, 72, 36
1, 750124, Poly_aftertouch_c, 0, 72, 0
1, 750137, Control_c, 0, 64, 125
1, 750244, Note_on_c, 0, 72, 27
1, 750254, Note_on_c, 0, 75, 42
1, 750264, Note_on_c, 0, 69, 33
1, 750307, Note_off_c, 0, 75, 57
1, 750371, Note_off_c, 0, 69, 47
1, 750416, Note_off_c, 0, 72, 40
1, 750416, Poly_aftertouch_c, 0, 72, 0
1, 750569, Note_on_c, 0, 75, 47
1, 750581, Note_on_c, 0, 72, 40
1, 750602, Note_on_c, 0, 69, 39
1, 750657, Note_off_c, 0, 75, 43
1, 750694, Note_off_c, 0, 69, 42
1, 750732, Note_off_c, 0, 72, 36
1, 750732, Poly_aftertouch_c, 0, 72, 0
1, 750863, Note_on_c, 0, 75, 47
1, 750867, Note_on_c, 0, 72, 46
1, 750876, Note_on_c, 0, 69, 38
1, 750951, Note_off_c, 0, 69, 51
1, 750960, Note_off_c, 0, 72, 46
1, 750960, Poly_aftertouch_c, 0, 72, 0
1, 750964, Note_off_c, 0, 75, 45
1, 751175, Note_on_c, 0, 75, 48
1, 751196, Note_on_c, 0, 70, 41
1, 751209, Note_on_c, 0, 67, 42
1, 751240, Control_c, 0, 64, 106
1, 751259, Control_c, 0, 64, 89
1, 751278, Control_c, 0, 64, 73
1, 751296, Control_c, 0, 64, 62
1, 751315, Control_c, 0, 64, 57
1, 751337, Note_off_c, 0, 75, 38
1, 751353, Control_c, 0, 64, 62
1, 751368, Note_off_c, 0, 70, 51
1, 751371, Control_c, 0, 64, 70
1, 751382, Note_off_c, 0, 67, 52
1, 751388, Control_c, 0, 64, 79
1, 751410, Control_c, 0, 64, 93
1, 751427, Control_c, 0, 64, 112
1, 751446, Control_c, 0, 64, 127
1, 751489, Note_on_c, 0, 75, 51
1, 751506, Note_on_c, 0, 67, 34
1, 751515, Note_on_c, 0, 70, 44
1, 751581, Note_off_c, 0, 75, 52
1, 751622, Note_off_c, 0, 70, 40
1, 751638, Note_off_c, 0, 67, 46
1, 751640, Note_off_c, 0, 77, 54
1, 751640, Poly_aftertouch_c, 0, 77, 0
1, 751651, Control_c, 0, 67, 98
1, 751790, Note_on_c, 0, 77, 70
1, 751825, Note_on_c, 0, 70, 41
1, 751834, Note_on_c, 0, 67, 39
1, 751837, Control_c, 0, 67, 94
1, 751905, Note_off_c, 0, 70, 47
1, 751907, Note_off_c, 0, 67, 54
1, 751970, Control_c, 0, 67, 89
1, 752044, Control_c, 0, 67, 85
1, 752110, Note_on_c, 0, 75, 50
1, 752111, Note_on_c, 0, 70, 37
1, 752127, Note_on_c, 0, 67, 37
1, 752169, Note_off_c, 0, 77, 59
1, 752169, Poly_aftertouch_c, 0, 77, 0
1, 752178, Note_off_c, 0, 75, 52
1, 752184, Note_off_c, 0, 70, 48
1, 752194, Note_off_c, 0, 67, 57
1, 752403, Note_on_c, 0, 77, 71
1, 752467, Note_on_c, 0, 69, 31
1, 752472, Note_on_c, 0, 65, 35
1, 752473, Control_c, 0, 64, 117
1, 752493, Control_c, 0, 64, 99
1, 752514, Control_c, 0, 64, 79
1, 752530, Control_c, 0, 64, 64
1, 752549, Control_c, 0, 64, 59
1, 752569, Control_c, 0, 64, 60
1, 752587, Control_c, 0, 64, 65
1, 752604, Note_off_c, 0, 69, 46
1, 752604, Control_c, 0, 64, 73
1, 752624, Control_c, 0, 64, 84
1, 752643, Control_c, 0, 64, 103
1, 752661, Control_c, 0, 64, 127
1, 752675, Note_off_c, 0, 65, 33
1, 752734, Note_on_c, 0, 65, 32
1, 752747, Note_on_c, 0, 75, 42
1, 752757, Note_on_c, 0, 69, 33
1, 752838, Note_off_c, 0, 75, 40
1, 752851, Note_off_c, 0, 69, 44
1, 752920, Note_off_c, 0, 65, 34
1, 753056, Note_on_c, 0, 87, 72
1, 753093, Note_on_c, 0, 65, 32
1, 753131, Note_on_c, 0, 69, 18
1, 753199, Note_off_c, 0, 69, 44
1, 753254, Note_off_c, 0, 65, 40
1, 753327, Note_off_c, 0, 77, 37
1, 753327, Poly_aftertouch_c, 0, 77, 0
1, 753390, Note_on_c, 0, 75, 40
1, 753406, Note_on_c, 0, 65, 37
1, 753479, Note_off_c, 0, 75, 47
1, 753480, Poly_aftertouch_c, 0, 69, 127
1, 753498, Note_off_c, 0, 65, 41
1, 753504, Poly_aftertouch_c, 0, 69, 0
1, 753560, Note_off_c, 0, 87, 59
1, 753670, Note_on_c, 0, 86, 73
1, 753723, Note_on_c, 0, 65, 29
1, 753729, Note_on_c, 0, 69, 24
1, 753801, Note_off_c, 0, 69, 43
1, 753824, Note_off_c, 0, 65, 38
1, 753951, Control_c, 0, 67, 89
1, 753991, Control_c, 0, 67, 99
1, 754005, Note_on_c, 0, 75, 42
1, 754006, Note_on_c, 0, 65, 37
1, 754009, Control_c, 0, 67, 110
1, 754014, Note_on_c, 0, 69, 33
1, 754027, Control_c, 0, 67, 119
1, 754045, Control_c, 0, 67, 124
1, 754088, Note_off_c, 0, 69, 49
1, 754096, Note_off_c, 0, 65, 50
1, 754109, Note_off_c, 0, 75, 38
1, 754182, Note_off_c, 0, 86, 39
1, 754271, Note_on_c, 0, 84, 70
1, 754292, Note_on_c, 0, 65, 41
1, 754298, Note_on_c, 0, 69, 37
1, 754383, Note_off_c, 0, 69, 47
1, 754395, Note_off_c, 0, 65, 49
1, 754568, Note_off_c, 0, 84, 61
1, 754575, Note_on_c, 0, 75, 44
1, 754583, Note_on_c, 0, 65, 35
1, 754609, Note_on_c, 0, 69, 12
1, 754632, Note_off_c, 0, 75, 45
1, 754642, Note_off_c, 0, 65, 47
1, 754686, Note_off_c, 0, 69, 33
1, 754886, Note_on_c, 0, 82, 63
1, 754886, Control_c, 0, 64, 119
1, 754905, Control_c, 0, 64, 105
1, 754923, Note_on_c, 0, 75, 40
1, 754923, Control_c, 0, 64, 85
1, 754927, Note_on_c, 0, 67, 29
1, 754928, Note_on_c, 0, 70, 26
1, 754942, Control_c, 0, 64, 65
1, 754961, Control_c, 0, 64, 47
1, 754980, Control_c, 0, 64, 26
1, 755017, Control_c, 0, 64, 37
1, 755021, Note_off_c, 0, 75, 36
1, 755036, Control_c, 0, 64, 50
1, 755054, Control_c, 0, 64, 66
1, 755074, Control_c, 0, 64, 81
1, 755083, Note_off_c, 0, 70, 39
1, 755091, Note_off_c, 0, 67, 42
1, 755094, Control_c, 0, 64, 95
1, 755111, Control_c, 0, 64, 111
1, 755130, Control_c, 0, 64, 126
1, 755248, Note_on_c, 0, 70, 24
1, 755263, Note_on_c, 0, 67, 32
1, 755269, Note_on_c, 0, 75, 18
1, 755331, Note_off_c, 0, 75, 51
1, 755333, Note_off_c, 0, 70, 41
1, 755336, Note_off_c, 0, 67, 47
1, 755535, Note_on_c, 0, 79, 51
1, 755549, Note_on_c, 0, 70, 32
1, 755561, Note_on_c, 0, 75, 28
1, 755563, Note_on_c, 0, 67, 26
1, 755657, Note_off_c, 0, 75, 38
1, 755693, Note_off_c, 0, 70, 37
1, 755706, Note_off_c, 0, 67, 37
1, 755761, Note_off_c, 0, 82, 31
1, 755849, Note_on_c, 0, 75, 34
1, 755863, Note_on_c, 0, 70, 29
1, 755875, Note_on_c, 0, 67, 21
1, 755922, Note_off_c, 0, 75, 42
1, 755937, Note_off_c, 0, 70, 44
1, 755952, Note_off_c, 0, 67, 49
1, 755961, Note_off_c, 0, 79, 51
1, 755961, Poly_aftertouch_c, 0, 79, 0
1, 756168, Note_on_c, 0, 77, 54
1, 756189, Note_on_c, 0, 75, 45
1, 756194, Control_c, 0, 64, 116
1, 756208, Note_on_c, 0, 70, 36
1, 756212, Control_c, 0, 64, 104
1, 756233, Control_c, 0, 64, 86
1, 756252, Control_c, 0, 64, 66
1, 756271, Control_c, 0, 64, 52
1, 756273, Note_off_c, 0, 75, 49
1, 756289, Control_c, 0, 64, 44
1, 756307, Control_c, 0, 64, 46
1, 756326, Control_c, 0, 64, 54
1, 756345, Control_c, 0, 64, 65
1, 756363, Control_c, 0, 64, 74
1, 756383, Control_c, 0, 64, 84
1, 756386, Note_off_c, 0, 70, 44
1, 756401, Control_c, 0, 64, 94
1, 756421, Control_c, 0, 64, 103
1, 756438, Control_c, 0, 64, 112
1, 756457, Control_c, 0, 64, 120
1, 756477, Control_c, 0, 64, 125
1, 756540, Note_on_c, 0, 75, 42
1, 756554, Note_on_c, 0, 70, 36
1, 756602, Note_off_c, 0, 75, 57
1, 756604, Note_off_c, 0, 70, 52
1, 756885, Note_on_c, 0, 79, 45
1, 756890, Note_on_c, 0, 74, 39
1, 756902, Note_on_c, 0, 70, 27
1, 756919, Note_off_c, 0, 77, 33
1, 756919, Poly_aftertouch_c, 0, 77, 0
1, 756945, Control_c, 0, 64, 119
1, 756961, Control_c, 0, 64, 108
1, 756981, Control_c, 0, 64, 93
1, 757000, Control_c, 0, 64, 76
1, 757018, Control_c, 0, 64, 64
1, 757037, Control_c, 0, 64, 62
1, 757048, Note_off_c, 0, 74, 47
1, 757054, Control_c, 0, 64, 68
1, 757072, Note_off_c, 0, 70, 45
1, 757074, Control_c, 0, 64, 75
1, 757093, Control_c, 0, 64, 81
1, 757111, Control_c, 0, 64, 90
1, 757131, Control_c, 0, 64, 103
1, 757149, Control_c, 0, 64, 117
1, 757167, Control_c, 0, 64, 127
1, 757252, Note_on_c, 0, 80, 50
1, 757260, Note_on_c, 0, 74, 31
1, 757268, Note_on_c, 0, 70, 23
1, 757319, Note_off_c, 0, 74, 47
1, 757339, Note_off_c, 0, 79, 41
1, 757339, Poly_aftertouch_c, 0, 79, 0
1, 757344, Note_off_c, 0, 70, 43
1, 757361, Note_on_c, 0, 82, 70
1, 757371, Note_off_c, 0, 80, 50
1, 757371, Poly_aftertouch_c, 0, 80, 0
1, 757414, Note_off_c, 0, 82, 62
1, 757428, Control_c, 0, 67, 118
1, 757468, Control_c, 0, 67, 114
1, 757542, Control_c, 0, 67, 110
1, 757598, Control_c, 0, 64, 123
1, 757617, Control_c, 0, 64, 116
1, 757634, Control_c, 0, 64, 110
1, 757654, Control_c, 0, 64, 104
1, 757665, Note_on_c, 0, 87, 73
1, 757672, Control_c, 0, 64, 99
1, 757678, Note_on_c, 0, 79, 41
1, 757690, Control_c, 0, 64, 92
1, 757692, Note_on_c, 0, 75, 42
1, 757709, Control_c, 0, 64, 82
1, 757729, Control_c, 0, 64, 68
1, 757748, Control_c, 0, 64, 51
1, 757766, Control_c, 0, 64, 17
1, 757786, Control_c, 0, 64, 0
1, 757841, Control_c, 0, 64, 9
1, 757859, Control_c, 0, 64, 47
1, 757878, Control_c, 0, 64, 69
1, 757883, Note_off_c, 0, 79, 60
1, 757883, Poly_aftertouch_c, 0, 79, 0
1, 757894, Note_off_c, 0, 75, 57
1, 757896, Control_c, 0, 64, 84
1, 757915, Control_c, 0, 64, 100
1, 757934, Control_c, 0, 64, 120
1, 757953, Control_c, 0, 64, 127
1, 758147, Note_off_c, 0, 87, 35
1, 758158, Note_on_c, 0, 79, 26
1, 758163, Note_on_c, 0, 82, 38
1, 758252, Note_off_c, 0, 82, 55
1, 758311, Note_off_c, 0, 79, 35
1, 758311, Poly_aftertouch_c, 0, 79, 0
1, 758498, Note_on_c, 0, 79, 37
1, 758507, Note_on_c, 0, 82, 42
1, 758578, Note_off_c, 0, 82, 54
1, 758610, Note_off_c, 0, 79, 44
1, 758610, Poly_aftertouch_c, 0, 79, 0
1, 758763, Note_on_c, 0, 87, 66
1, 758776, Control_c, 0, 67, 106
1, 758791, Note_on_c, 0, 79, 44
1, 758797, Note_on_c, 0, 82, 46
1, 758850, Control_c, 0, 67, 100
1, 758853, Note_off_c, 0, 82, 57
1, 758868, Note_off_c, 0, 79, 49
1, 758868, Poly_aftertouch_c, 0, 79, 0
1, 758889, Control_c, 0, 67, 95
1, 758918, Note_off_c, 0, 87, 57
1, 758963, Control_c, 0, 67, 91
1, 759097, Note_on_c, 0, 85, 71
1, 759112, Control_c, 0, 67, 85
1, 759123, Note_on_c, 0, 82, 41
1, 759156, Note_on_c, 0, 79, 18
1, 759169, Control_c, 0, 67, 81
1, 759195, Note_off_c, 0, 82, 45
1, 759234, Note_off_c, 0, 79, 41
1, 759234, Poly_aftertouch_c, 0, 79, 0
1, 759242, Control_c, 0, 67, 76
1, 759264, Note_off_c, 0, 85, 51
1, 759281, Control_c, 0, 67, 71
1, 759317, Control_c, 0, 67, 66
1, 759355, Control_c, 0, 67, 59
1, 759374, Control_c, 0, 67, 54
1, 759393, Control_c, 0, 67, 49
1, 759410, Note_on_c, 0, 82, 44
1, 759411, Control_c, 0, 67, 43
1, 759423, Note_on_c, 0, 79, 38
1, 759430, Control_c, 0, 67, 37
1, 759449, Control_c, 0, 67, 31
1, 759468, Control_c, 0, 67, 25
1, 759487, Control_c, 0, 67, 18
1, 759505, Control_c, 0, 67, 10
1, 759525, Note_off_c, 0, 82, 36
1, 759554, Note_off_c, 0, 79, 35
1, 759554, Poly_aftertouch_c, 0, 79, 0
1, 759560, Control_c, 0, 67, 0
1, 759695, Note_on_c, 0, 82, 51
1, 759700, Note_on_c, 0, 79, 35
1, 759744, Note_off_c, 0, 82, 62
1, 759747, Note_off_c, 0, 79, 50
1, 759747, Poly_aftertouch_c, 0, 79, 0
1, 759959, Note_on_c, 0, 85, 64
1, 759982, Note_on_c, 0, 79, 49
1, 759989, Note_on_c, 0, 82, 52
1, 760043, Note_off_c, 0, 82, 59
1, 760056, Note_off_c, 0, 79, 47
1, 760056, Poly_aftertouch_c, 0, 79, 0
1, 760068, Note_off_c, 0, 85, 59
1, 760316, Note_on_c, 0, 84, 57
1, 760357, Note_on_c, 0, 79, 38
1, 760374, Note_on_c, 0, 82, 25
1, 760410, Note_on_c, 0, 64, 61
1, 760457, Note_off_c, 0, 82, 40
1, 760457, Control_c, 0, 64, 120
1, 760479, Control_c, 0, 64, 114
1, 760496, Control_c, 0, 64, 107
1, 760515, Control_c, 0, 64, 98
1, 760533, Control_c, 0, 64, 88
1, 760536, Note_off_c, 0, 79, 36
1, 760536, Poly_aftertouch_c, 0, 79, 0
1, 760552, Control_c, 0, 64, 75
1, 760572, Control_c, 0, 64, 66
1, 760608, Control_c, 0, 64, 70
1, 760627, Control_c, 0, 64, 74
1, 760645, Control_c, 0, 64, 79
1, 760664, Control_c, 0, 64, 84
1, 760684, Control_c, 0, 64, 93
1, 760702, Control_c, 0, 64, 106
1, 760720, Control_c, 0, 64, 124
1, 760784, Note_on_c, 0, 82, 48
1, 760803, Note_on_c, 0, 79, 41
1, 760954, Note_off_c, 0, 82, 36
1, 760964, Note_off_c, 0, 79, 35
1, 760964, Poly_aftertouch_c, 0, 79, 0
1, 761074, Note_on_c, 0, 82, 53
1, 761091, Note_on_c, 0, 79, 51
1, 761187, Note_off_c, 0, 79, 50
1, 761187, Poly_aftertouch_c, 0, 79, 0
1, 761196, Note_off_c, 0, 82, 48
1, 761203, Note_off_c, 0, 64, 54
1, 761203, Poly_aftertouch_c, 0, 64, 0
1, 761340, Note_on_c, 0, 82, 53
1, 761350, Note_on_c, 0, 79, 52
1, 761362, Note_on_c, 0, 64, 64
1, 761421, Note_off_c, 0, 79, 46
1, 761421, Poly_aftertouch_c, 0, 79, 0
1, 761446, Note_off_c, 0, 82, 50
1, 761540, Note_off_c, 0, 64, 62
1, 761540, Poly_aftertouch_c, 0, 64, 0
1, 761641, Note_on_c, 0, 82, 50
1, 761647, Note_on_c, 0, 77, 57
1, 761662, Note_on_c, 0, 62, 68
1, 761711, Control_c, 0, 64, 106
1, 761730, Control_c, 0, 64, 86
1, 761748, Control_c, 0, 64, 69
1, 761768, Control_c, 0, 64, 63
1, 761787, Control_c, 0, 64, 64
1, 761805, Control_c, 0, 64, 72
1, 761815, Note_off_c, 0, 77, 54
1, 761815, Poly_aftertouch_c, 0, 77, 0
1, 761823, Control_c, 0, 64, 80
1, 761834, Note_off_c, 0, 82, 44
1, 761842, Control_c, 0, 64, 92
1, 761860, Control_c, 0, 64, 114
1, 761880, Control_c, 0, 64, 127
1, 761941, Note_on_c, 0, 82, 50
1, 761961, Note_on_c, 0, 77, 53
1, 762022, Note_off_c, 0, 77, 55
1, 762022, Poly_aftertouch_c, 0, 77, 0
1, 762035, Note_off_c, 0, 82, 58
1, 762061, Note_off_c, 0, 84, 60
1, 762196, Note_on_c, 0, 84, 79
1, 762233, Note_on_c, 0, 77, 58
1, 762240, Note_on_c, 0, 82, 50
1, 762249, Note_off_c, 0, 62, 36
1, 762288, Note_off_c, 0, 77, 49
1, 762288, Poly_aftertouch_c, 0, 77, 0
1, 762297, Note_off_c, 0, 82, 50
1, 762464, Note_on_c, 0, 82, 57
1, 762474, Note_on_c, 0, 62, 67
1, 762474, Note_on_c, 0, 77, 54
1, 762528, Note_off_c, 0, 77, 55
1, 762528, Poly_aftertouch_c, 0, 77, 0
1, 762550, Note_off_c, 0, 62, 61
1, 762572, Note_off_c, 0, 82, 57
1, 762624, Note_off_c, 0, 84, 56
1, 762777, Control_c, 0, 64, 118
1, 762796, Control_c, 0, 64, 96
1, 762806, Note_on_c, 0, 84, 76
1, 762814, Control_c, 0, 64, 71
1, 762819, Note_on_c, 0, 60, 64
1, 762830, Note_on_c, 0, 76, 62
1, 762831, Note_on_c, 0, 82, 65
1, 762832, Control_c, 0, 64, 51
1, 762853, Control_c, 0, 64, 43
1, 762870, Control_c, 0, 64, 53
1, 762890, Control_c, 0, 64, 70
1, 762908, Control_c, 0, 64, 93
1, 762927, Control_c, 0, 64, 127
1, 762994, Note_off_c, 0, 76, 35
1, 763004, Note_off_c, 0, 82, 49
1, 763006, Note_off_c, 0, 60, 57
1, 763006, Poly_aftertouch_c, 0, 60, 0
1, 763155, Note_on_c, 0, 76, 56
1, 763157, Note_on_c, 0, 82, 63
1, 763201, Note_off_c, 0, 76, 63
1, 763231, Note_off_c, 0, 84, 64
1, 763233, Note_on_c, 0, 60, 52
1, 763249, Note_off_c, 0, 82, 62
1, 763405, Note_on_c, 0, 76, 51
1, 763479, Note_on_c, 0, 82, 65
1, 763598, Note_on_c, 0, 94, 89
1, 763628, Note_off_c, 0, 76, 51
1, 763731, Note_off_c, 0, 82, 56
1, 763899, Note_off_c, 0, 60, 35
1, 763899, Poly_aftertouch_c, 0, 60, 0
1, 763904, Note_on_c, 0, 82, 53
1, 763907, Note_on_c, 0, 76, 52
1, 763980, Note_off_c, 0, 82, 52
1, 764013, Note_off_c, 0, 94, 64
1, 764024, Note_off_c, 0, 76, 52
1, 764113, Note_on_c, 0, 62, 50
1, 764142, Note_on_c, 0, 82, 57
1, 764214, Note_on_c, 0, 93, 82
1, 764254, Control_c, 0, 64, 116
1, 764260, Note_on_c, 0, 77, 65
1, 764273, Control_c, 0, 64, 86
1, 764291, Control_c, 0, 64, 57
1, 764292, Note_off_c, 0, 82, 57
1, 764310, Control_c, 0, 64, 41
1, 764348, Control_c, 0, 64, 57
1, 764366, Control_c, 0, 64, 74
1, 764386, Control_c, 0, 64, 96
1, 764405, Control_c, 0, 64, 127
1, 764417, Note_off_c, 0, 77, 53
1, 764417, Poly_aftertouch_c, 0, 77, 0
1, 764542, Note_on_c, 0, 82, 63
1, 764544, Note_on_c, 0, 77, 55
1, 764552, Note_off_c, 0, 93, 62
1, 764622, Note_off_c, 0, 62, 55
1, 764638, Note_off_c, 0, 82, 53
1, 764678, Note_off_c, 0, 77, 54
1, 764678, Poly_aftertouch_c, 0, 77, 0
1, 764816, Note_on_c, 0, 91, 79
1, 764836, Note_on_c, 0, 64, 63
1, 764857, Note_on_c, 0, 79, 47
1, 764859, Note_on_c, 0, 82, 41
1, 764872, Control_c, 0, 64, 121
1, 764889, Control_c, 0, 64, 106
1, 764909, Control_c, 0, 64, 88
1, 764928, Control_c, 0, 64, 68
1, 764931, Note_off_c, 0, 82, 44
1, 764946, Control_c, 0, 64, 53
1, 764947, Note_off_c, 0, 79, 39
1, 764947, Poly_aftertouch_c, 0, 79, 0
1, 764966, Control_c, 0, 64, 44
1, 764983, Control_c, 0, 64, 48
1, 765003, Control_c, 0, 64, 58
1, 765020, Control_c, 0, 64, 70
1, 765040, Control_c, 0, 64, 83
1, 765059, Control_c, 0, 64, 100
1, 765077, Control_c, 0, 64, 122
1, 765096, Control_c, 0, 64, 127
1, 765120, Note_on_c, 0, 79, 53
1, 765126, Note_on_c, 0, 82, 54
1, 765205, Note_off_c, 0, 91, 57
1, 765209, Note_off_c, 0, 79, 46
1, 765209, Poly_aftertouch_c, 0, 79, 0
1, 765221, Note_off_c, 0, 82, 37
1, 765401, Note_on_c, 0, 89, 74
1, 765421, Note_on_c, 0, 65, 59
1, 765445, Note_on_c, 0, 77, 43
1, 765472, Note_off_c, 0, 64, 56
1, 765472, Poly_aftertouch_c, 0, 64, 0
1, 765487, Note_on_c, 0, 82, 18
1, 765487, Control_c, 0, 64, 123
1, 765507, Control_c, 0, 64, 109
1, 765526, Control_c, 0, 64, 90
1, 765545, Control_c, 0, 64, 66
1, 765547, Note_off_c, 0, 77, 35
1, 765547, Poly_aftertouch_c, 0, 77, 0
1, 765549, Note_off_c, 0, 82, 46
1, 765563, Control_c, 0, 64, 41
1, 765581, Control_c, 0, 64, 0
1, 765619, Control_c, 0, 64, 23
1, 765638, Control_c, 0, 64, 48
1, 765656, Control_c, 0, 64, 72
1, 765676, Control_c, 0, 64, 93
1, 765692, Note_on_c, 0, 82, 51
1, 765694, Control_c, 0, 64, 120
1, 765706, Note_on_c, 0, 77, 51
1, 765713, Control_c, 0, 64, 127
1, 765779, Note_off_c, 0, 82, 54
1, 765805, Note_off_c, 0, 77, 50
1, 765805, Poly_aftertouch_c, 0, 77, 0
1, 765971, Note_on_c, 0, 86, 72
1, 765999, Note_on_c, 0, 70, 66
1, 766024, Note_on_c, 0, 77, 27
1, 766056, Note_on_c, 0, 82, 6
1, 766096, Note_off_c, 0, 77, 41
1, 766096, Poly_aftertouch_c, 0, 77, 0
1, 766133, Note_off_c, 0, 82, 39
1, 766174, Note_off_c, 0, 65, 38
1, 766249, Note_on_c, 0, 82, 60
1, 766264, Note_on_c, 0, 77, 52
1, 766360, Note_off_c, 0, 77, 49
1, 766360, Poly_aftertouch_c, 0, 77, 0
1, 766377, Note_off_c, 0, 82, 50
1, 766562, Note_off_c, 0, 70, 32
1, 766573, Note_on_c, 0, 84, 62
1, 766620, Note_on_c, 0, 75, 70
1, 766662, Note_on_c, 0, 65, 41
1, 766685, Control_c, 0, 64, 116
1, 766704, Control_c, 0, 64, 94
1, 766705, Note_off_c, 0, 89, 51
1, 766715, Note_off_c, 0, 86, 46
1, 766715, Poly_aftertouch_c, 0, 77, 0
1, 766723, Control_c, 0, 64, 72
1, 766742, Control_c, 0, 64, 63
1, 766759, Control_c, 0, 64, 67
1, 766779, Control_c, 0, 64, 75
1, 766797, Control_c, 0, 64, 85
1, 766817, Control_c, 0, 64, 103
1, 766835, Control_c, 0, 64, 127
1, 766891, Note_on_c, 0, 77, 51
1, 766891, Note_on_c, 0, 82, 54
1, 766986, Note_off_c, 0, 82, 56
1, 766989, Note_off_c, 0, 77, 54
1, 767164, Note_on_c, 0, 86, 69
1, 767169, Note_on_c, 0, 77, 52
1, 767172, Note_on_c, 0, 81, 50
1, 767255, Note_off_c, 0, 77, 53
1, 767281, Note_off_c, 0, 81, 59
1, 767320, Note_on_c, 0, 74, 61
1, 767327, Note_off_c, 0, 84, 39
1, 767428, Note_on_c, 0, 77, 51
1, 767429, Note_on_c, 0, 81, 61
1, 767429, Note_on_c, 0, 87, 71
1, 767440, Note_off_c, 0, 65, 38
1, 767448, Note_off_c, 0, 75, 35
1, 767491, Note_off_c, 0, 77, 57
1, 767535, Note_on_c, 0, 72, 59
1, 767536, Note_off_c, 0, 74, 57
1, 767544, Note_off_c, 0, 81, 62
1, 767562, Note_off_c, 0, 86, 56
1, 767785, Note_on_c, 0, 86, 69
1, 767810, Note_on_c, 0, 77, 69
1, 767827, Note_on_c, 0, 65, 50
1, 767827, Control_c, 0, 64, 109
1, 767843, Note_on_c, 0, 82, 33
1, 767844, Control_c, 0, 64, 92
1, 767864, Control_c, 0, 64, 73
1, 767882, Control_c, 0, 64, 53
1, 767885, Note_off_c, 0, 72, 34
1, 767885, Poly_aftertouch_c, 0, 72, 0
1, 767900, Note_off_c, 0, 82, 46
1, 767900, Control_c, 0, 64, 32
1, 767919, Control_c, 0, 64, 26
1, 767929, Note_off_c, 0, 87, 54
1, 767938, Control_c, 0, 64, 41
1, 767957, Control_c, 0, 64, 59
1, 767975, Control_c, 0, 64, 77
1, 767994, Control_c, 0, 64, 96
1, 768013, Control_c, 0, 64, 120
1, 768032, Control_c, 0, 64, 127
1, 768127, Note_on_c, 0, 82, 53
1, 768167, Note_off_c, 0, 82, 63
1, 768195, Note_off_c, 0, 77, 58
1, 768387, Note_on_c, 0, 82, 69
1, 768393, Note_on_c, 0, 74, 62
1, 768394, Note_on_c, 0, 77, 50
1, 768456, Note_off_c, 0, 77, 55
1, 768578, Note_off_c, 0, 82, 38
1, 768642, Note_off_c, 0, 65, 55
1, 768681, Note_on_c, 0, 77, 49
1, 768733, Note_on_c, 0, 82, 37
1, 768763, Note_off_c, 0, 77, 48
1, 768777, Note_off_c, 0, 86, 63
1, 768788, Note_off_c, 0, 82, 46
1, 768790, Note_off_c, 0, 74, 59
1, 768998, Note_on_c, 0, 87, 71
1, 769018, Note_on_c, 0, 82, 58
1, 769035, Note_on_c, 0, 72, 48
1, 769041, Control_c, 0, 64, 120
1, 769053, Note_on_c, 0, 65, 44
1, 769059, Control_c, 0, 64, 108
1, 769079, Control_c, 0, 64, 93
1, 769095, Note_on_c, 0, 77, 14
1, 769099, Control_c, 0, 64, 74
1, 769115, Control_c, 0, 64, 53
1, 769135, Control_c, 0, 64, 28
1, 769153, Control_c, 0, 64, 0
1, 769161, Note_off_c, 0, 77, 38
1, 769172, Note_off_c, 0, 82, 37
1, 769190, Control_c, 0, 64, 28
1, 769210, Control_c, 0, 64, 46
1, 769228, Control_c, 0, 64, 63
1, 769247, Control_c, 0, 64, 76
1, 769265, Control_c, 0, 64, 87
1, 769284, Control_c, 0, 64, 98
1, 769304, Control_c, 0, 64, 113
1, 769316, Note_on_c, 0, 82, 54
1, 769320, Control_c, 0, 64, 127
1, 769330, Note_on_c, 0, 77, 43
1, 769444, Note_off_c, 0, 77, 49
1, 769471, Note_off_c, 0, 82, 35
1, 769660, Note_on_c, 0, 77, 31
1, 769667, Note_on_c, 0, 81, 40
1, 769670, Note_off_c, 0, 72, 24
1, 769670, Poly_aftertouch_c, 0, 72, 0
1, 769689, Note_on_c, 0, 74, 37
1, 769714, Control_c, 0, 64, 117
1, 769733, Control_c, 0, 64, 101
1, 769752, Control_c, 0, 64, 82
1, 769771, Control_c, 0, 64, 63
1, 769789, Control_c, 0, 64, 54
1, 769808, Control_c, 0, 64, 56
1, 769827, Control_c, 0, 64, 65
1, 769845, Control_c, 0, 64, 76
1, 769846, Note_on_c, 0, 86, 61
1, 769864, Control_c, 0, 64, 89
1, 769879, Note_off_c, 0, 77, 41
1, 769883, Control_c, 0, 64, 105
1, 769902, Control_c, 0, 64, 121
1, 769918, Note_off_c, 0, 81, 36
1, 769919, Control_c, 0, 64, 127
1, 769954, Note_off_c, 0, 87, 47
1, 770034, Note_on_c, 0, 81, 56
1, 770042, Note_on_c, 0, 75, 45
1, 770046, Note_on_c, 0, 77, 36
1, 770145, Note_off_c, 0, 74, 36
1, 770167, Note_on_c, 0, 84, 65
1, 770183, Note_off_c, 0, 81, 55
1, 770188, Note_off_c, 0, 75, 56
1, 770218, Note_off_c, 0, 86, 54
1, 770236, Note_off_c, 0, 77, 34
1, 770237, Poly_aftertouch_c, 0, 77, 0
1, 770275, Note_off_c, 0, 65, 38
1, 770388, Note_off_c, 0, 84, 58
1, 770480, Note_on_c, 0, 89, 61
1, 770505, Note_on_c, 0, 73, 46
1, 770511, Note_on_c, 0, 65, 35
1, 770516, Note_on_c, 0, 82, 43
1, 770518, Note_on_c, 0, 77, 37
1, 770537, Control_c, 0, 64, 119
1, 770556, Control_c, 0, 64, 113
1, 770574, Note_off_c, 0, 82, 45
1, 770574, Control_c, 0, 64, 107
1, 770593, Control_c, 0, 64, 100
1, 770606, Note_off_c, 0, 77, 41
1, 770611, Control_c, 0, 64, 90
1, 770632, Control_c, 0, 64, 76
1, 770635, Control_c, 0, 67, 8
1, 770650, Control_c, 0, 64, 61
1, 770669, Control_c, 0, 64, 46
1, 770686, Control_c, 0, 64, 21
1, 770706, Control_c, 0, 64, 0
1, 770707, Control_c, 0, 67, 12
1, 770743, Control_c, 0, 64, 21
1, 770761, Control_c, 0, 64, 43
1, 770762, Control_c, 0, 67, 16
1, 770781, Control_c, 0, 64, 63
1, 770799, Control_c, 0, 64, 79
1, 770799, Control_c, 0, 67, 21
1, 770818, Control_c, 0, 64, 94
1, 770838, Control_c, 0, 64, 111
1, 770839, Control_c, 0, 67, 29
1, 770855, Control_c, 0, 64, 127
1, 770869, Note_on_c, 0, 82, 43
1, 770869, Note_on_c, 0, 77, 43
1, 770874, Control_c, 0, 67, 35
1, 770926, Note_off_c, 0, 82, 52
1, 770928, Control_c, 0, 67, 39
1, 770943, Note_off_c, 0, 77, 53
1, 771023, Control_c, 0, 67, 43
1, 771112, Note_on_c, 0, 85, 70
1, 771146, Note_on_c, 0, 70, 47
1, 771149, Note_on_c, 0, 77, 37
1, 771190, Note_on_c, 0, 82, 9
1, 771212, Note_off_c, 0, 77, 43
1, 771270, Note_off_c, 0, 82, 35
1, 771327, Note_off_c, 0, 73, 31
1, 771399, Note_on_c, 0, 82, 51
1, 771405, Note_off_c, 0, 65, 41
1, 771425, Note_on_c, 0, 77, 47
1, 771530, Note_off_c, 0, 77, 46
1, 771536, Note_off_c, 0, 82, 37
1, 771602, Note_off_c, 0, 89, 30
1, 771610, Note_off_c, 0, 85, 51
1, 771717, Note_on_c, 0, 84, 56
1, 771733, Note_off_c, 0, 70, 22
1, 771743, Note_on_c, 0, 77, 26
1, 771756, Note_on_c, 0, 75, 61
1, 771790, Note_on_c, 0, 65, 38
1, 771814, Note_off_c, 0, 77, 41
1, 771903, Control_c, 0, 64, 118
1, 771921, Control_c, 0, 64, 101
1, 771940, Control_c, 0, 64, 80
1, 771958, Control_c, 0, 64, 62
1, 771977, Control_c, 0, 64, 50
1, 771995, Control_c, 0, 64, 44
1, 772014, Control_c, 0, 64, 46
1, 772033, Control_c, 0, 64, 53
1, 772054, Note_on_c, 0, 82, 47
1, 772054, Control_c, 0, 64, 62
1, 772065, Note_on_c, 0, 77, 46
1, 772072, Control_c, 0, 64, 73
1, 772089, Control_c, 0, 64, 84
1, 772109, Control_c, 0, 64, 99
1, 772127, Control_c, 0, 64, 119
1, 772145, Note_off_c, 0, 77, 49
1, 772145, Control_c, 0, 64, 127
1, 772185, Note_off_c, 0, 82, 35
1, 772258, Control_c, 0, 67, 47
1, 772275, Control_c, 0, 67, 51
1, 772295, Control_c, 0, 67, 56
1, 772313, Control_c, 0, 67, 60
1, 772345, Note_on_c, 0, 85, 60
1, 772351, Control_c, 0, 67, 66
1, 772360, Note_off_c, 0, 65, 26
1, 772360, Note_on_c, 0, 77, 30
1, 772363, Note_on_c, 0, 81, 47
1, 772388, Control_c, 0, 67, 70
1, 772463, Control_c, 0, 67, 75
1, 772472, Note_off_c, 0, 84, 47
1, 772500, Control_c, 0, 67, 79
1, 772509, Note_off_c, 0, 77, 36
1, 772527, Note_off_c, 0, 81, 48
1, 772536, Control_c, 0, 67, 84
1, 772541, Note_on_c, 0, 73, 43
1, 772575, Control_c, 0, 67, 88
1, 772632, Control_c, 0, 67, 92
1, 772649, Note_on_c, 0, 87, 69
1, 772669, Note_on_c, 0, 77, 45
1, 772687, Control_c, 0, 67, 97
1, 772696, Note_on_c, 0, 81, 44
1, 772722, Note_off_c, 0, 85, 52
1, 772735, Note_off_c, 0, 75, 34
1, 772742, Control_c, 0, 67, 101
1, 772774, Note_off_c, 0, 77, 46
1, 772795, Note_off_c, 0, 81, 34
1, 772798, Note_on_c, 0, 72, 51
1, 772815, Note_off_c, 0, 73, 45
1, 772818, Control_c, 0, 67, 105
1, 772857, Control_c, 0, 67, 110
1, 772893, Control_c, 0, 67, 114
1, 772940, Note_off_c, 0, 72, 49
1, 772940, Poly_aftertouch_c, 0, 72, 0
1, 773094, Note_on_c, 0, 85, 64
1, 773115, Note_on_c, 0, 77, 43
1, 773139, Note_on_c, 0, 73, 47
1, 773150, Note_on_c, 0, 65, 40
1, 773153, Control_c, 0, 64, 120
1, 773154, Note_on_c, 0, 80, 38
1, 773173, Control_c, 0, 64, 115
1, 773192, Control_c, 0, 64, 109
1, 773194, Note_off_c, 0, 87, 54
1, 773211, Control_c, 0, 64, 99
1, 773230, Control_c, 0, 64, 87
1, 773238, Note_off_c, 0, 80, 39
1, 773238, Poly_aftertouch_c, 0, 80, 0
1, 773249, Control_c, 0, 64, 71
1, 773267, Control_c, 0, 64, 53
1, 773285, Note_off_c, 0, 77, 37
1, 773285, Control_c, 0, 64, 25
1, 773304, Control_c, 0, 64, 0
1, 773361, Control_c, 0, 64, 27
1, 773379, Control_c, 0, 64, 49
1, 773399, Control_c, 0, 64, 69
1, 773416, Control_c, 0, 64, 85
1, 773436, Control_c, 0, 64, 100
1, 773454, Control_c, 0, 64, 116
1, 773472, Control_c, 0, 64, 127
1, 773591, Note_on_c, 0, 77, 36
1, 773592, Note_on_c, 0, 80, 45
1, 773675, Note_off_c, 0, 77, 55
1, 773708, Note_off_c, 0, 85, 50
1, 773728, Note_off_c, 0, 80, 55
1, 773728, Poly_aftertouch_c, 0, 80, 0
1, 773777, Note_off_c, 0, 73, 37
1, 773932, Note_on_c, 0, 84, 63
1, 773967, Note_on_c, 0, 73, 46
1, 773969, Note_on_c, 0, 68, 42
1, 774065, Note_off_c, 0, 73, 52
1, 774242, Note_on_c, 0, 82, 70
1, 774258, Note_on_c, 0, 73, 44
1, 774271, Note_off_c, 0, 65, 56
1, 774380, Note_off_c, 0, 73, 52
1, 774483, Control_c, 0, 67, 110
1, 774556, Note_on_c, 0, 79, 64
1, 774592, Note_on_c, 0, 73, 33
1, 774595, Note_on_c, 0, 70, 42
1, 774613, Note_on_c, 0, 63, 42
1, 774633, Control_c, 0, 64, 119
1, 774652, Control_c, 0, 64, 114
1, 774664, Note_off_c, 0, 84, 30
1, 774670, Control_c, 0, 64, 110
1, 774688, Control_c, 0, 64, 103
1, 774692, Note_off_c, 0, 73, 35
1, 774699, Note_off_c, 0, 68, 26
1, 774699, Poly_aftertouch_c, 0, 68, 0
1, 774706, Control_c, 0, 64, 91
1, 774726, Control_c, 0, 64, 75
1, 774745, Control_c, 0, 64, 56
1, 774763, Control_c, 0, 64, 36
1, 774781, Control_c, 0, 64, 0
1, 774823, Note_off_c, 0, 82, 34
1, 774838, Control_c, 0, 64, 26
1, 774857, Control_c, 0, 64, 43
1, 774874, Note_on_c, 0, 73, 47
1, 774875, Control_c, 0, 64, 60
1, 774893, Control_c, 0, 64, 74
1, 774914, Control_c, 0, 64, 85
1, 774932, Control_c, 0, 64, 95
1, 774949, Control_c, 0, 64, 105
1, 774970, Control_c, 0, 64, 115
1, 774987, Control_c, 0, 64, 123
1, 775006, Control_c, 0, 64, 127
1, 775016, Note_off_c, 0, 73, 48
1, 775137, Control_c, 0, 67, 106
1, 775141, Note_on_c, 0, 80, 62
1, 775190, Note_on_c, 0, 73, 37
1, 775332, Note_on_c, 0, 68, 44
1, 775387, Note_off_c, 0, 73, 33
1, 775428, Note_on_c, 0, 82, 67
1, 775476, Note_off_c, 0, 63, 35
1, 775476, Poly_aftertouch_c, 0, 63, 0
1, 775478, Note_off_c, 0, 70, 32
1, 775561, Note_on_c, 0, 67, 41
1, 775607, Note_off_c, 0, 79, 32
1, 775607, Poly_aftertouch_c, 0, 79, 0
1, 775702, Note_off_c, 0, 68, 34
1, 775702, Note_off_c, 0, 80, 33
1, 775702, Poly_aftertouch_c, 0, 68, 0
1, 775702, Poly_aftertouch_c, 0, 80, 0
1, 775768, Note_off_c, 0, 67, 34
1, 775809, Note_on_c, 0, 85, 66
1, 775819, Note_on_c, 0, 68, 44
1, 775843, Note_on_c, 0, 64, 40
1, 775847, Control_c, 0, 64, 123
1, 775867, Control_c, 0, 64, 117
1, 775869, Note_on_c, 0, 73, 27
1, 775885, Control_c, 0, 64, 110
1, 775904, Control_c, 0, 64, 102
1, 775923, Control_c, 0, 64, 91
1, 775933, Note_off_c, 0, 73, 45
1, 775941, Control_c, 0, 64, 74
1, 775961, Control_c, 0, 64, 52
1, 775978, Control_c, 0, 64, 0
1, 775988, Note_off_c, 0, 82, 37
1, 776074, Control_c, 0, 64, 21
1, 776090, Control_c, 0, 64, 43
1, 776110, Control_c, 0, 64, 63
1, 776129, Control_c, 0, 64, 80
1, 776148, Control_c, 0, 64, 95
1, 776165, Control_c, 0, 64, 112
1, 776178, Note_on_c, 0, 73, 43
1, 776182, Control_c, 0, 64, 127
1, 776221, Note_off_c, 0, 68, 37
1, 776221, Poly_aftertouch_c, 0, 68, 0
1, 776252, Note_off_c, 0, 73, 48
1, 776409, Control_c, 0, 67, 110
1, 776435, Note_on_c, 0, 80, 56
1, 776442, Note_on_c, 0, 68, 34
1, 776478, Note_on_c, 0, 73, 26
1, 776546, Note_off_c, 0, 73, 44
1, 776707, Control_c, 0, 67, 114
1, 776714, Note_off_c, 0, 64, 54
1, 776714, Poly_aftertouch_c, 0, 64, 0
1, 776755, Note_on_c, 0, 73, 45
1, 776782, Control_c, 0, 67, 118
1, 776857, Control_c, 0, 67, 123
1, 776860, Note_off_c, 0, 73, 51
1, 776878, Note_off_c, 0, 85, 34
1, 776944, Note_off_c, 0, 80, 46
1, 776944, Poly_aftertouch_c, 0, 80, 0
1, 777068, Note_on_c, 0, 79, 53
1, 777100, Note_on_c, 0, 63, 34
1, 777100, Control_c, 0, 64, 122
1, 777104, Note_on_c, 0, 70, 38
1, 777115, Note_on_c, 0, 73, 16
1, 777116, Control_c, 0, 64, 118
1, 777138, Control_c, 0, 64, 112
1, 777157, Control_c, 0, 64, 105
1, 777175, Control_c, 0, 64, 94
1, 777187, Note_off_c, 0, 73, 47
1, 777195, Control_c, 0, 64, 78
1, 777199, Note_off_c, 0, 68, 27
1, 777199, Poly_aftertouch_c, 0, 68, 0
1, 777213, Control_c, 0, 64, 61
1, 777231, Control_c, 0, 64, 44
1, 777250, Control_c, 0, 64, 28
1, 777288, Control_c, 0, 64, 36
1, 777305, Control_c, 0, 64, 44
1, 777325, Control_c, 0, 64, 54
1, 777343, Control_c, 0, 64, 67
1, 777363, Control_c, 0, 64, 78
1, 777381, Control_c, 0, 64, 88
1, 777394, Note_on_c, 0, 73, 46
1, 777400, Control_c, 0, 64, 98
1, 777418, Control_c, 0, 64, 110
1, 777438, Control_c, 0, 64, 121
1, 777455, Control_c, 0, 64, 127
1, 777484, Note_off_c, 0, 73, 49
1, 777664, Note_on_c, 0, 80, 52
1, 777702, Note_on_c, 0, 73, 30
1, 777839, Note_on_c, 0, 68, 40
1, 777908, Note_off_c, 0, 70, 40
1, 777951, Note_on_c, 0, 82, 59
1, 777981, Note_off_c, 0, 63, 39
1, 777981, Poly_aftertouch_c, 0, 63, 0
1, 777984, Note_off_c, 0, 80, 55
1, 777984, Poly_aftertouch_c, 0, 80, 0
1, 777989, Poly_aftertouch_c, 0, 73, 24
1, 778026, Poly_aftertouch_c, 0, 79, 24
1, 778060, Note_off_c, 0, 79, 37
1, 778060, Poly_aftertouch_c, 0, 79, 0
1, 778090, Note_on_c, 0, 67, 43
1, 778105, Note_off_c, 0, 73, 40
1, 778105, Poly_aftertouch_c, 0, 73, 0
1, 778106, Poly_aftertouch_c, 0, 73, 0
1, 778109, Control_c, 0, 67, 127
1, 778188, Note_off_c, 0, 68, 23
1, 778188, Poly_aftertouch_c, 0, 68, 0
1, 778280, Note_off_c, 0, 67, 35
1, 778335, Control_c, 0, 64, 123
1, 778370, Note_on_c, 0, 85, 57
1, 778372, Control_c, 0, 64, 116
1, 778390, Control_c, 0, 64, 112
1, 778392, Note_on_c, 0, 68, 34
1, 778401, Note_on_c, 0, 64, 38
1, 778409, Control_c, 0, 64, 106
1, 778417, Note_on_c, 0, 73, 27
1, 778428, Control_c, 0, 64, 99
1, 778445, Note_off_c, 0, 82, 36
1, 778447, Control_c, 0, 64, 88
1, 778466, Control_c, 0, 64, 72
1, 778482, Note_off_c, 0, 73, 45
1, 778483, Control_c, 0, 64, 57
1, 778503, Control_c, 0, 64, 41
1, 778521, Control_c, 0, 64, 23
1, 778540, Control_c, 0, 64, 18
1, 778577, Control_c, 0, 64, 27
1, 778596, Control_c, 0, 64, 36
1, 778615, Control_c, 0, 64, 46
1, 778635, Control_c, 0, 64, 56
1, 778652, Control_c, 0, 64, 68
1, 778672, Control_c, 0, 64, 76
1, 778690, Control_c, 0, 64, 83
1, 778709, Control_c, 0, 64, 90
1, 778728, Control_c, 0, 64, 97
1, 778744, Control_c, 0, 64, 104
1, 778752, Note_on_c, 0, 73, 39
1, 778760, Note_off_c, 0, 68, 42
1, 778760, Poly_aftertouch_c, 0, 68, 0
1, 778763, Control_c, 0, 64, 112
1, 778783, Control_c, 0, 64, 120
1, 778802, Control_c, 0, 64, 126
1, 778842, Note_off_c, 0, 73, 38
1, 779042, Note_on_c, 0, 80, 51
1, 779073, Note_on_c, 0, 73, 31
1, 779077, Note_on_c, 0, 68, 33
1, 779134, Note_off_c, 0, 73, 45
1, 779315, Note_off_c, 0, 85, 35
1, 779378, Note_off_c, 0, 64, 41
1, 779378, Poly_aftertouch_c, 0, 64, 0
1, 779404, Note_on_c, 0, 73, 41
1, 779498, Note_off_c, 0, 73, 51
1, 779545, Note_off_c, 0, 80, 36
1, 779545, Poly_aftertouch_c, 0, 80, 0
1, 779756, Control_c, 0, 64, 121
1, 779760, Note_on_c, 0, 63, 32
1, 779765, Note_on_c, 0, 79, 37
1, 779781, Note_on_c, 0, 70, 31
1, 779791, Note_on_c, 0, 73, 29
1, 779791, Control_c, 0, 64, 116
1, 779830, Control_c, 0, 64, 110
1, 779849, Control_c, 0, 64, 104
1, 779867, Control_c, 0, 64, 96
1, 779887, Control_c, 0, 64, 83
1, 779906, Control_c, 0, 64, 66
1, 779915, Note_off_c, 0, 68, 42
1, 779915, Poly_aftertouch_c, 0, 68, 0
1, 779922, Control_c, 0, 64, 50
1, 779927, Note_off_c, 0, 73, 39
1, 779942, Control_c, 0, 64, 26
1, 779961, Control_c, 0, 64, 0
1, 779998, Control_c, 0, 64, 15
1, 780017, Control_c, 0, 64, 27
1, 780036, Control_c, 0, 64, 41
1, 780054, Control_c, 0, 64, 55
1, 780073, Control_c, 0, 64, 69
1, 780092, Control_c, 0, 64, 79
1, 780112, Control_c, 0, 64, 87
1, 780129, Control_c, 0, 64, 94
1, 780146, Control_c, 0, 64, 102
1, 780154, Note_on_c, 0, 73, 35
1, 780167, Control_c, 0, 64, 112
1, 780185, Control_c, 0, 64, 121
1, 780204, Control_c, 0, 64, 127
1, 780237, Note_off_c, 0, 73, 42
1, 780438, Note_on_c, 0, 80, 44
1, 780501, Note_on_c, 0, 73, 17
1, 780587, Note_off_c, 0, 73, 41
1, 780661, Note_on_c, 0, 68, 34
1, 780701, Note_off_c, 0, 79, 32
1, 780701, Poly_aftertouch_c, 0, 79, 0
1, 780751, Note_on_c, 0, 82, 51
1, 780769, Note_off_c, 0, 70, 38
1, 780833, Note_off_c, 0, 80, 30
1, 780833, Poly_aftertouch_c, 0, 80, 0
1, 780918, Note_off_c, 0, 63, 42
1, 780918, Poly_aftertouch_c, 0, 63, 0
1, 780921, Note_on_c, 0, 67, 33
1, 780992, Note_off_c, 0, 68, 34
1, 780992, Poly_aftertouch_c, 0, 68, 0
1, 781055, Note_off_c, 0, 67, 36
1, 781178, Control_c, 0, 64, 122
1, 781209, Note_on_c, 0, 85, 46
1, 781212, Note_on_c, 0, 68, 27
1, 781213, Control_c, 0, 64, 116
1, 781250, Note_on_c, 0, 64, 32
1, 781251, Control_c, 0, 64, 111
1, 781266, Note_on_c, 0, 73, 22
1, 781290, Control_c, 0, 64, 106
1, 781305, Note_off_c, 0, 82, 29
1, 781306, Control_c, 0, 64, 99
1, 781326, Control_c, 0, 64, 88
1, 781338, Note_off_c, 0, 73, 43
1, 781345, Control_c, 0, 64, 74
1, 781364, Control_c, 0, 64, 61
1, 781382, Control_c, 0, 64, 50
1, 781401, Control_c, 0, 64, 36
1, 781419, Control_c, 0, 64, 29
1, 781457, Control_c, 0, 64, 41
1, 781476, Control_c, 0, 64, 49
1, 781494, Control_c, 0, 64, 61
1, 781514, Control_c, 0, 64, 73
1, 781532, Control_c, 0, 64, 81
1, 781550, Control_c, 0, 64, 88
1, 781570, Control_c, 0, 64, 95
1, 781588, Control_c, 0, 64, 102
1, 781607, Control_c, 0, 64, 111
1, 781625, Control_c, 0, 64, 120
1, 781645, Control_c, 0, 64, 127
1, 781666, Note_on_c, 0, 73, 35
1, 781707, Note_off_c, 0, 68, 39
1, 781707, Poly_aftertouch_c, 0, 68, 0
1, 781769, Note_off_c, 0, 73, 39
1, 782052, Note_on_c, 0, 80, 34
1, 782077, Note_on_c, 0, 73, 23
1, 782086, Note_on_c, 0, 68, 26
1, 782186, Note_off_c, 0, 73, 35
1, 782353, Note_off_c, 0, 85, 37
1, 782564, Note_off_c, 0, 64, 38
1, 782564, Poly_aftertouch_c, 0, 64, 0
1, 782605, Note_on_c, 0, 73, 22
1, 782786, Note_off_c, 0, 80, 38
1, 782786, Poly_aftertouch_c, 0, 80, 0
1, 782793, Note_off_c, 0, 73, 29
1, 782804, Note_off_c, 0, 68, 42
1, 782804, Poly_aftertouch_c, 0, 68, 0
1, 783232, Note_on_c, 0, 79, 33
1, 783246, Note_on_c, 0, 73, 21
1, 783263, Note_on_c, 0, 63, 28
1, 783296, Note_on_c, 0, 70, 21
1, 783422, Control_c, 0, 64, 122
1, 783458, Control_c, 0, 64, 115
1, 783495, Control_c, 0, 64, 107
1, 783514, Control_c, 0, 64, 101
1, 783533, Control_c, 0, 64, 94
1, 783551, Control_c, 0, 64, 86
1, 783571, Control_c, 0, 64, 78
1, 783589, Control_c, 0, 64, 71
1, 783608, Control_c, 0, 64, 66
1, 783626, Control_c, 0, 64, 61
1, 783645, Control_c, 0, 64, 56
1, 783664, Control_c, 0, 64, 51
1, 783682, Control_c, 0, 64, 43
1, 783700, Control_c, 0, 64, 29
1, 783720, Control_c, 0, 64, 0
1, 783832, Control_c, 0, 64, 16
1, 783852, Control_c, 0, 64, 28
1, 783859, Poly_aftertouch_c, 0, 70, 24
1, 783869, Control_c, 0, 64, 40
1, 783888, Control_c, 0, 64, 51
1, 783907, Control_c, 0, 64, 62
1, 783926, Control_c, 0, 64, 71
1, 783944, Control_c, 0, 64, 77
1, 783963, Control_c, 0, 64, 82
1, 783965, Note_off_c, 0, 70, 28
1, 783965, Poly_aftertouch_c, 0, 70, 0
1, 783982, Control_c, 0, 64, 88
1, 784000, Control_c, 0, 64, 95
1, 784019, Control_c, 0, 64, 102
1, 784037, Control_c, 0, 64, 110
1, 784057, Control_c, 0, 64, 116
1, 784075, Control_c, 0, 64, 123
1, 784093, Control_c, 0, 64, 127
1, 784150, Note_off_c, 0, 73, 39
1, 784150, Note_off_c, 0, 63, 30
1, 784150, Poly_aftertouch_c, 0, 63, 0
1, 784285, Note_off_c, 0, 79, 33
1, 784285, Poly_aftertouch_c, 0, 79, 0
1, 784804, Control_c, 0, 64, 123
1, 784861, Control_c, 0, 64, 118
1, 784917, Control_c, 0, 64, 113
1, 784992, Control_c, 0, 64, 108
1, 785048, Control_c, 0, 64, 104
1, 785103, Control_c, 0, 64, 100
1, 785156, Note_on_c, 0, 87, 54
1, 785197, Control_c, 0, 64, 95
1, 785234, Control_c, 0, 64, 90
1, 785254, Control_c, 0, 64, 86
1, 785272, Control_c, 0, 64, 81
1, 785290, Control_c, 0, 64, 73
1, 785309, Control_c, 0, 64, 64
1, 785328, Control_c, 0, 64, 56
1, 785346, Control_c, 0, 64, 48
1, 785365, Control_c, 0, 64, 45
1, 785384, Control_c, 0, 64, 49
1, 785403, Control_c, 0, 64, 54
1, 785421, Control_c, 0, 64, 60
1, 785441, Control_c, 0, 64, 68
1, 785459, Control_c, 0, 64, 77
1, 785478, Control_c, 0, 64, 88
1, 785497, Control_c, 0, 64, 101
1, 785514, Control_c, 0, 64, 115
1, 785533, Control_c, 0, 64, 127
1, 785737, Note_on_c, 0, 75, 22
1, 786090, Note_on_c, 0, 79, 33
1, 786097, Note_off_c, 0, 87, 49
1, 786522, Note_on_c, 0, 84, 57
1, 786523, Note_off_c, 0, 79, 38
1, 786523, Poly_aftertouch_c, 0, 79, 0
1, 786576, Note_on_c, 0, 80, 34
1, 786597, Note_on_c, 0, 27, 39
1, 786630, Note_on_c, 0, 39, 16
1, 786643, Note_off_c, 0, 75, 44
1, 786773, Note_off_c, 0, 80, 36
1, 786773, Poly_aftertouch_c, 0, 80, 0
1, 787006, Note_on_c, 0, 72, 34
1, 787259, Note_off_c, 0, 84, 42
1, 787317, Note_on_c, 0, 76, 23
1, 787461, Note_off_c, 0, 72, 40
1, 787461, Poly_aftertouch_c, 0, 72, 0
1, 787520, Note_off_c, 0, 76, 41
1, 787578, Note_on_c, 0, 80, 56
1, 787613, Note_on_c, 0, 77, 43
1, 787730, Note_off_c, 0, 77, 58
1, 787894, Note_on_c, 0, 68, 20
1, 788025, Note_off_c, 0, 80, 37
1, 788025, Poly_aftertouch_c, 0, 80, 0
1, 788090, Note_on_c, 0, 72, 34
1, 788292, Note_off_c, 0, 72, 31
1, 788292, Poly_aftertouch_c, 0, 72, 0
1, 788310, Note_off_c, 0, 68, 44
1, 788310, Poly_aftertouch_c, 0, 68, 0
1, 788330, Note_on_c, 0, 77, 60
1, 788336, Note_on_c, 0, 73, 47
1, 788525, Note_off_c, 0, 73, 43
1, 788602, Note_on_c, 0, 65, 32
1, 788825, Note_on_c, 0, 69, 37
1, 788931, Note_off_c, 0, 65, 40
1, 789014, Note_off_c, 0, 69, 57
1, 789020, Note_off_c, 0, 77, 36
1, 789033, Note_on_c, 0, 73, 58
1, 789057, Note_on_c, 0, 70, 45
1, 789221, Note_off_c, 0, 70, 57
1, 789221, Poly_aftertouch_c, 0, 70, 0
1, 789296, Note_on_c, 0, 61, 44
1, 789492, Note_on_c, 0, 65, 45
1, 789707, Note_off_c, 0, 65, 35
1, 789731, Note_off_c, 0, 61, 44
1, 789731, Poly_aftertouch_c, 0, 61, 0
1, 789734, Note_on_c, 0, 70, 60
1, 789752, Note_on_c, 0, 67, 39
1, 789867, Note_off_c, 0, 73, 50
1, 789870, Control_c, 0, 64, 116
1, 789891, Control_c, 0, 64, 105
1, 789909, Control_c, 0, 64, 92
1, 789928, Control_c, 0, 64, 79
1, 789946, Control_c, 0, 64, 70
1, 789963, Note_on_c, 0, 61, 32
1, 789984, Control_c, 0, 64, 73
1, 790002, Control_c, 0, 64, 78
1, 790022, Control_c, 0, 64, 84
1, 790041, Control_c, 0, 64, 91
1, 790058, Control_c, 0, 64, 100
1, 790077, Control_c, 0, 64, 112
1, 790096, Control_c, 0, 64, 124
1, 790171, Note_off_c, 0, 70, 59
1, 790171, Poly_aftertouch_c, 0, 70, 0
1, 790186, Note_off_c, 0, 67, 42
1, 790194, Note_on_c, 0, 64, 29
1, 790267, Note_off_c, 0, 64, 45
1, 790267, Poly_aftertouch_c, 0, 64, 0
1, 790344, Note_off_c, 0, 61, 37
1, 790344, Poly_aftertouch_c, 0, 61, 0
1, 790420, Note_on_c, 0, 72, 52
1, 790442, Note_on_c, 0, 68, 46
1, 790582, Control_c, 0, 64, 115
1, 790600, Control_c, 0, 64, 105
1, 790619, Control_c, 0, 64, 92
1, 790638, Control_c, 0, 64, 77
1, 790657, Note_on_c, 0, 60, 42
1, 790657, Control_c, 0, 64, 65
1, 790675, Control_c, 0, 64, 59
1, 790713, Control_c, 0, 64, 62
1, 790731, Control_c, 0, 64, 65
1, 790750, Control_c, 0, 64, 67
1, 790769, Control_c, 0, 64, 71
1, 790788, Control_c, 0, 64, 77
1, 790806, Control_c, 0, 64, 87
1, 790826, Control_c, 0, 64, 99
1, 790844, Control_c, 0, 64, 113
1, 790862, Control_c, 0, 64, 125
1, 790881, Note_on_c, 0, 63, 44
1, 790929, Note_off_c, 0, 72, 53
1, 790929, Poly_aftertouch_c, 0, 72, 0
1, 790965, Note_off_c, 0, 60, 36
1, 790965, Poly_aftertouch_c, 0, 60, 0
1, 791015, Note_off_c, 0, 68, 37
1, 791015, Poly_aftertouch_c, 0, 68, 0
1, 791050, Note_off_c, 0, 63, 37
1, 791050, Poly_aftertouch_c, 0, 63, 0
1, 791165, Note_on_c, 0, 73, 52
1, 791197, Note_on_c, 0, 67, 34
1, 791312, Control_c, 0, 64, 115
1, 791330, Control_c, 0, 64, 101
1, 791349, Control_c, 0, 64, 85
1, 791367, Control_c, 0, 64, 69
1, 791386, Control_c, 0, 64, 62
1, 791406, Control_c, 0, 64, 63
1, 791423, Control_c, 0, 64, 68
1, 791442, Control_c, 0, 64, 75
1, 791447, Note_off_c, 0, 67, 54
1, 791455, Note_on_c, 0, 58, 36
1, 791461, Control_c, 0, 64, 85
1, 791479, Control_c, 0, 64, 96
1, 791499, Control_c, 0, 64, 108
1, 791517, Control_c, 0, 64, 118
1, 791535, Control_c, 0, 64, 127
1, 791669, Note_on_c, 0, 63, 32
1, 791753, Note_off_c, 0, 58, 35
1, 791829, Note_off_c, 0, 63, 35
1, 791829, Poly_aftertouch_c, 0, 63, 0
1, 791907, Note_on_c, 0, 70, 60
1, 791913, Note_on_c, 0, 67, 40
1, 791984, Control_c, 0, 64, 121
1, 792003, Control_c, 0, 64, 113
1, 792021, Control_c, 0, 64, 102
1, 792041, Control_c, 0, 64, 86
1, 792059, Control_c, 0, 64, 69
1, 792077, Control_c, 0, 64, 59
1, 792097, Control_c, 0, 64, 56
1, 792115, Control_c, 0, 64, 62
1, 792121, Note_off_c, 0, 73, 30
1, 792134, Control_c, 0, 64, 73
1, 792143, Note_on_c, 0, 61, 38
1, 792151, Control_c, 0, 64, 84
1, 792171, Control_c, 0, 64, 97
1, 792191, Control_c, 0, 64, 114
1, 792208, Control_c, 0, 64, 127
1, 792365, Note_off_c, 0, 70, 63
1, 792365, Poly_aftertouch_c, 0, 70, 0
1, 792368, Note_off_c, 0, 67, 36
1, 792373, Note_on_c, 0, 63, 34
1, 792415, Note_off_c, 0, 61, 58
1, 792415, Poly_aftertouch_c, 0, 61, 0
1, 792432, Note_off_c, 0, 63, 49
1, 792432, Poly_aftertouch_c, 0, 63, 0
1, 792626, Note_on_c, 0, 72, 60
1, 792655, Note_on_c, 0, 68, 49
1, 792695, Control_c, 0, 64, 115
1, 792715, Control_c, 0, 64, 97
1, 792733, Control_c, 0, 64, 76
1, 792751, Control_c, 0, 64, 56
1, 792769, Control_c, 0, 64, 39
1, 792789, Control_c, 0, 64, 34
1, 792807, Control_c, 0, 64, 45
1, 792826, Control_c, 0, 64, 63
1, 792842, Note_on_c, 0, 60, 36
1, 792843, Control_c, 0, 64, 80
1, 792863, Control_c, 0, 64, 94
1, 792882, Control_c, 0, 64, 109
1, 792900, Control_c, 0, 64, 127
1, 792953, Note_off_c, 0, 68, 37
1, 792953, Poly_aftertouch_c, 0, 68, 0
1, 793082, Note_on_c, 0, 63, 48
1, 793085, Note_off_c, 0, 60, 36
1, 793085, Poly_aftertouch_c, 0, 60, 0
1, 793129, Note_off_c, 0, 63, 63
1, 793129, Poly_aftertouch_c, 0, 63, 0
1, 793150, Note_off_c, 0, 72, 60
1, 793150, Poly_aftertouch_c, 0, 72, 0
1, 793352, Note_on_c, 0, 75, 69
1, 793399, Note_on_c, 0, 67, 33
1, 793499, Control_c, 0, 64, 111
1, 793517, Control_c, 0, 64, 89
1, 793537, Control_c, 0, 64, 65
1, 793555, Control_c, 0, 64, 44
1, 793574, Control_c, 0, 64, 28
1, 793611, Control_c, 0, 64, 43
1, 793631, Control_c, 0, 64, 60
1, 793649, Control_c, 0, 64, 77
1, 793655, Note_on_c, 0, 70, 42
1, 793656, Note_off_c, 0, 67, 49
1, 793668, Control_c, 0, 64, 91
1, 793686, Control_c, 0, 64, 103
1, 793704, Control_c, 0, 64, 114
1, 793724, Control_c, 0, 64, 124
1, 793868, Note_off_c, 0, 70, 46
1, 793868, Poly_aftertouch_c, 0, 70, 0
1, 793874, Note_on_c, 0, 67, 32
1, 794060, Note_off_c, 0, 75, 34
1, 794106, Note_off_c, 0, 67, 40
1, 794134, Note_on_c, 0, 80, 65
1, 794153, Control_c, 0, 64, 119
1, 794172, Control_c, 0, 64, 99
1, 794191, Control_c, 0, 64, 73
1, 794210, Control_c, 0, 64, 51
1, 794228, Control_c, 0, 64, 45
1, 794236, Note_on_c, 0, 72, 19
1, 794248, Control_c, 0, 64, 54
1, 794266, Control_c, 0, 64, 67
1, 794284, Control_c, 0, 64, 79
1, 794305, Control_c, 0, 64, 94
1, 794322, Control_c, 0, 64, 113
1, 794341, Control_c, 0, 64, 127
1, 794450, Note_off_c, 0, 72, 39
1, 794450, Poly_aftertouch_c, 0, 72, 0
1, 794458, Note_on_c, 0, 65, 44
1, 794727, Note_on_c, 0, 73, 42
1, 794752, Note_off_c, 0, 65, 34
1, 794796, Note_off_c, 0, 80, 53
1, 794796, Poly_aftertouch_c, 0, 80, 0
1, 794828, Note_off_c, 0, 73, 60
1, 795050, Note_on_c, 0, 82, 65
1, 795051, Control_c, 0, 64, 115
1, 795070, Control_c, 0, 64, 97
1, 795085, Note_on_c, 0, 74, 38
1, 795088, Control_c, 0, 64, 77
1, 795107, Control_c, 0, 64, 65
1, 795125, Control_c, 0, 64, 67
1, 795145, Control_c, 0, 64, 76
1, 795163, Control_c, 0, 64, 90
1, 795182, Control_c, 0, 64, 110
1, 795201, Control_c, 0, 64, 127
1, 795213, Note_off_c, 0, 82, 62
1, 795274, Note_off_c, 0, 74, 51
1, 795478, Note_on_c, 0, 64, 16
1, 795853, Note_off_c, 0, 64, 26
1, 795853, Poly_aftertouch_c, 0, 64, 0
1, 795859, Note_on_c, 0, 74, 40
1, 795993, Note_off_c, 0, 74, 58
1, 796159, Note_on_c, 0, 63, 39
1, 796172, Control_c, 0, 64, 122
1, 796192, Control_c, 0, 64, 116
1, 796210, Control_c, 0, 64, 105
1, 796229, Control_c, 0, 64, 90
1, 796247, Control_c, 0, 64, 71
1, 796266, Control_c, 0, 64, 55
1, 796287, Control_c, 0, 64, 49
1, 796303, Control_c, 0, 64, 52
1, 796322, Control_c, 0, 64, 58
1, 796331, Note_on_c, 0, 75, 38
1, 796341, Control_c, 0, 64, 68
1, 796344, Note_off_c, 0, 63, 53
1, 796344, Poly_aftertouch_c, 0, 63, 0
1, 796360, Control_c, 0, 64, 78
1, 796379, Control_c, 0, 64, 88
1, 796397, Control_c, 0, 64, 98
1, 796417, Control_c, 0, 64, 107
1, 796434, Control_c, 0, 64, 115
1, 796435, Note_off_c, 0, 75, 59
1, 796453, Control_c, 0, 64, 124
1, 796740, Note_on_c, 0, 87, 58
1, 796850, Note_off_c, 0, 87, 59
1, 797521, Note_on_c, 0, 67, 24
1, 797903, Note_on_c, 0, 70, 30
1, 798028, Note_off_c, 0, 67, 37
1, 798192, Note_on_c, 0, 75, 35
1, 798216, Note_off_c, 0, 70, 43
1, 798216, Poly_aftertouch_c, 0, 70, 0
1, 798278, Note_off_c, 0, 75, 53
1, 798511, Note_on_c, 0, 79, 27
1, 798765, Note_off_c, 0, 79, 40
1, 798765, Poly_aftertouch_c, 0, 79, 0
1, 798769, Note_on_c, 0, 82, 37
1, 799068, Note_on_c, 0, 75, 37
1, 799309, Poly_aftertouch_c, 0, 82, 24
1, 799354, Note_off_c, 0, 82, 34
1, 799354, Poly_aftertouch_c, 0, 82, 0
1, 799410, Note_on_c, 0, 79, 28
1, 799419, Note_off_c, 0, 27, 39
1, 799461, Note_off_c, 0, 75, 39
1, 799526, Note_off_c, 0, 39, 38
1, 799526, Poly_aftertouch_c, 0, 39, 0
1, 799768, Poly_aftertouch_c, 0, 79, 24
1, 799771, Note_on_c, 0, 75, 34
1, 799827, Note_off_c, 0, 79, 37
1, 799827, Poly_aftertouch_c, 0, 79, 0
1, 800006, Control_c, 0, 67, 122
1, 800062, Control_c, 0, 67, 118
1, 800101, Control_c, 0, 67, 112
1, 800119, Control_c, 0, 67, 108
1, 800137, Control_c, 0, 67, 103
1, 800175, Control_c, 0, 67, 96
1, 800193, Control_c, 0, 67, 91
1, 800213, Control_c, 0, 67, 86
1, 800231, Control_c, 0, 67, 80
1, 800249, Control_c, 0, 67, 75
1, 800268, Control_c, 0, 67, 70
1, 800286, Control_c, 0, 67, 66
1, 800305, Control_c, 0, 64, 120
1, 800314, Note_on_c, 0, 87, 63
1, 800323, Control_c, 0, 67, 59
1, 800342, Control_c, 0, 67, 55
1, 800362, Control_c, 0, 64, 114
1, 800363, Control_c, 0, 67, 50
1, 800380, Note_on_c, 0, 78, 30
1, 800380, Control_c, 0, 67, 46
1, 800398, Control_c, 0, 64, 107
1, 800400, Control_c, 0, 67, 41
1, 800416, Control_c, 0, 67, 37
1, 800421, Note_on_c, 0, 47, 21
1, 800425, Note_on_c, 0, 35, 22
1, 800436, Control_c, 0, 64, 101
1, 800456, Control_c, 0, 67, 30
1, 800474, Control_c, 0, 64, 95
1, 800492, Note_off_c, 0, 75, 38
1, 800492, Control_c, 0, 64, 90
1, 800493, Control_c, 0, 67, 25
1, 800511, Control_c, 0, 64, 83
1, 800530, Control_c, 0, 64, 73
1, 800532, Control_c, 0, 67, 18
1, 800548, Control_c, 0, 64, 64
1, 800568, Control_c, 0, 64, 55
1, 800569, Control_c, 0, 67, 13
1, 800586, Control_c, 0, 64, 46
1, 800605, Control_c, 0, 64, 41
1, 800607, Control_c, 0, 67, 9
1, 800642, Control_c, 0, 64, 43
1, 800661, Control_c, 0, 64, 49
1, 800679, Control_c, 0, 64, 56
1, 800697, Control_c, 0, 64, 63
1, 800717, Control_c, 0, 64, 70
1, 800736, Control_c, 0, 64, 76
1, 800754, Control_c, 0, 64, 81
1, 800755, Control_c, 0, 67, 0
1, 800773, Control_c, 0, 64, 88
1, 800792, Control_c, 0, 64, 95
1, 800810, Control_c, 0, 64, 102
1, 800828, Control_c, 0, 64, 109
1, 800848, Control_c, 0, 64, 117
1, 800865, Control_c, 0, 64, 126
1, 800985, Note_on_c, 0, 75, 31
1, 801071, Note_off_c, 0, 78, 39
1, 801166, Control_c, 0, 67, 9
1, 801203, Control_c, 0, 67, 15
1, 801240, Control_c, 0, 67, 22
1, 801259, Control_c, 0, 67, 28
1, 801279, Control_c, 0, 67, 37
1, 801296, Control_c, 0, 67, 48
1, 801316, Control_c, 0, 67, 58
1, 801333, Control_c, 0, 67, 66
1, 801352, Control_c, 0, 67, 71
1, 801369, Note_on_c, 0, 78, 37
1, 801390, Control_c, 0, 67, 78
1, 801407, Control_c, 0, 67, 83
1, 801428, Control_c, 0, 67, 89
1, 801446, Control_c, 0, 67, 94
1, 801449, Note_off_c, 0, 75, 40
1, 801465, Control_c, 0, 67, 99
1, 801483, Control_c, 0, 67, 104
1, 801502, Control_c, 0, 67, 109
1, 801521, Control_c, 0, 67, 113
1, 801539, Control_c, 0, 67, 118
1, 801576, Control_c, 0, 67, 123
1, 801614, Control_c, 0, 67, 127
1, 801717, Note_on_c, 0, 75, 42
1, 801739, Note_off_c, 0, 78, 44
1, 801975, Note_off_c, 0, 75, 46
1, 802021, Note_on_c, 0, 79, 40
1, 802113, Note_off_c, 0, 87, 42
1, 802222, Note_on_c, 0, 75, 42
1, 802264, Note_off_c, 0, 79, 34
1, 802264, Poly_aftertouch_c, 0, 79, 0
1, 802387, Note_off_c, 0, 75, 52
1, 802495, Note_on_c, 0, 83, 57
1, 802527, Note_on_c, 0, 80, 45
1, 802682, Note_off_c, 0, 80, 57
1, 802682, Poly_aftertouch_c, 0, 80, 0
1, 802791, Note_on_c, 0, 71, 34
1, 802994, Note_off_c, 0, 83, 36
1, 802994, Poly_aftertouch_c, 0, 83, 0
1, 803030, Note_on_c, 0, 75, 35
1, 803124, Note_off_c, 0, 75, 40
1, 803159, Note_off_c, 0, 71, 35
1, 803159, Poly_aftertouch_c, 0, 71, 0
1, 803257, Note_on_c, 0, 80, 63
1, 803297, Note_on_c, 0, 76, 46
1, 803372, Control_c, 0, 64, 119
1, 803391, Control_c, 0, 64, 107
1, 803409, Control_c, 0, 64, 97
1, 803429, Control_c, 0, 64, 93
1, 803440, Note_off_c, 0, 76, 59
1, 803466, Control_c, 0, 64, 100
1, 803483, Control_c, 0, 64, 105
1, 803503, Control_c, 0, 64, 113
1, 803521, Control_c, 0, 64, 124
1, 803549, Note_on_c, 0, 68, 29
1, 803676, Note_off_c, 0, 80, 54
1, 803676, Poly_aftertouch_c, 0, 80, 0
1, 803755, Note_on_c, 0, 72, 39
1, 803909, Note_off_c, 0, 68, 44
1, 803909, Poly_aftertouch_c, 0, 68, 0
1, 803912, Note_off_c, 0, 72, 32
1, 803912, Poly_aftertouch_c, 0, 72, 0
1, 803965, Note_on_c, 0, 76, 60
1, 803994, Note_on_c, 0, 73, 46
1, 804045, Control_c, 0, 64, 103
1, 804064, Control_c, 0, 64, 87
1, 804083, Control_c, 0, 64, 78
1, 804121, Control_c, 0, 64, 83
1, 804138, Control_c, 0, 64, 89
1, 804157, Control_c, 0, 64, 97
1, 804173, Note_off_c, 0, 73, 42
1, 804174, Control_c, 0, 64, 109
1, 804194, Control_c, 0, 64, 122
1, 804201, Note_on_c, 0, 64, 49
1, 804214, Control_c, 0, 64, 127
1, 804411, Note_on_c, 0, 68, 44
1, 804457, Note_off_c, 0, 64, 36
1, 804457, Poly_aftertouch_c, 0, 64, 0
1, 804582, Note_off_c, 0, 68, 35
1, 804582, Poly_aftertouch_c, 0, 68, 0
1, 804653, Note_off_c, 0, 76, 33
1, 804660, Note_on_c, 0, 73, 60
1, 804707, Note_on_c, 0, 70, 42
1, 804774, Control_c, 0, 64, 116
1, 804794, Control_c, 0, 64, 103
1, 804812, Control_c, 0, 64, 90
1, 804831, Control_c, 0, 64, 78
1, 804849, Control_c, 0, 64, 75
1, 804868, Control_c, 0, 64, 78
1, 804887, Control_c, 0, 64, 84
1, 804904, Control_c, 0, 64, 92
1, 804908, Note_on_c, 0, 64, 36
1, 804924, Control_c, 0, 64, 103
1, 804942, Control_c, 0, 64, 115
1, 804961, Control_c, 0, 64, 127
1, 805081, Note_off_c, 0, 73, 55
1, 805092, Note_off_c, 0, 70, 55
1, 805092, Poly_aftertouch_c, 0, 70, 0
1, 805151, Note_on_c, 0, 67, 25
1, 805245, Note_off_c, 0, 64, 41
1, 805245, Poly_aftertouch_c, 0, 64, 0
1, 805250, Note_off_c, 0, 67, 38
1, 805338, Note_on_c, 0, 75, 59
1, 805361, Note_on_c, 0, 71, 46
1, 805393, Control_c, 0, 64, 121
1, 805410, Control_c, 0, 64, 114
1, 805429, Control_c, 0, 64, 105
1, 805447, Control_c, 0, 64, 92
1, 805467, Control_c, 0, 64, 77
1, 805485, Control_c, 0, 64, 62
1, 805503, Control_c, 0, 64, 55
1, 805542, Control_c, 0, 64, 58
1, 805560, Control_c, 0, 64, 64
1, 805575, Note_on_c, 0, 63, 37
1, 805576, Control_c, 0, 64, 71
1, 805596, Control_c, 0, 64, 78
1, 805616, Control_c, 0, 64, 85
1, 805634, Control_c, 0, 64, 94
1, 805653, Control_c, 0, 64, 103
1, 805672, Control_c, 0, 64, 111
1, 805692, Control_c, 0, 64, 118
1, 805693, Note_off_c, 0, 71, 29
1, 805693, Poly_aftertouch_c, 0, 71, 0
1, 805710, Control_c, 0, 64, 124
1, 805794, Note_on_c, 0, 68, 40
1, 805812, Note_off_c, 0, 75, 54
1, 805904, Note_off_c, 0, 63, 31
1, 805904, Poly_aftertouch_c, 0, 63, 0
1, 805907, Note_off_c, 0, 68, 44
1, 805907, Poly_aftertouch_c, 0, 68, 0
1, 806052, Note_on_c, 0, 76, 52
1, 806077, Note_on_c, 0, 73, 44
1, 806195, Control_c, 0, 64, 113
1, 806214, Control_c, 0, 64, 98
1, 806233, Control_c, 0, 64, 80
1, 806251, Control_c, 0, 64, 67
1, 806271, Control_c, 0, 64, 64
1, 806288, Control_c, 0, 64, 67
1, 806296, Note_on_c, 0, 61, 40
1, 806307, Control_c, 0, 64, 73
1, 806327, Control_c, 0, 64, 81
1, 806345, Control_c, 0, 64, 90
1, 806352, Note_off_c, 0, 73, 39
1, 806364, Control_c, 0, 64, 101
1, 806381, Control_c, 0, 64, 113
1, 806401, Control_c, 0, 64, 124
1, 806529, Note_on_c, 0, 67, 36
1, 806614, Note_off_c, 0, 61, 34
1, 806614, Poly_aftertouch_c, 0, 61, 0
1, 806711, Note_off_c, 0, 67, 33
1, 806760, Note_on_c, 0, 73, 60
1, 806799, Note_on_c, 0, 70, 40
1, 806862, Note_off_c, 0, 76, 39
1, 806867, Control_c, 0, 64, 118
1, 806888, Control_c, 0, 64, 114
1, 806905, Control_c, 0, 64, 109
1, 806925, Control_c, 0, 64, 103
1, 806943, Control_c, 0, 64, 95
1, 806963, Control_c, 0, 64, 84
1, 806982, Control_c, 0, 64, 73
1, 806999, Control_c, 0, 64, 62
1, 807017, Control_c, 0, 64, 58
1, 807020, Note_on_c, 0, 64, 33
1, 807037, Control_c, 0, 64, 61
1, 807055, Control_c, 0, 64, 68
1, 807074, Control_c, 0, 64, 72
1, 807093, Control_c, 0, 64, 78
1, 807112, Control_c, 0, 64, 88
1, 807131, Control_c, 0, 64, 105
1, 807150, Control_c, 0, 64, 127
1, 807168, Control_c, 0, 67, 123
1, 807239, Note_on_c, 0, 67, 35
1, 807242, Note_off_c, 0, 73, 62
1, 807262, Control_c, 0, 67, 119
1, 807265, Note_off_c, 0, 70, 43
1, 807265, Poly_aftertouch_c, 0, 70, 0
1, 807295, Note_off_c, 0, 64, 40
1, 807295, Poly_aftertouch_c, 0, 64, 0
1, 807318, Note_off_c, 0, 67, 59
1, 807465, Note_on_c, 0, 75, 65
1, 807499, Note_on_c, 0, 71, 44
1, 807504, Control_c, 0, 64, 116
1, 807523, Control_c, 0, 64, 94
1, 807542, Control_c, 0, 64, 72
1, 807548, Poly_aftertouch_c, 0, 39, 0
1, 807561, Control_c, 0, 64, 60
1, 807598, Control_c, 0, 64, 65
1, 807617, Control_c, 0, 64, 72
1, 807636, Control_c, 0, 64, 84
1, 807654, Control_c, 0, 64, 102
1, 807672, Control_c, 0, 64, 127
1, 807703, Note_on_c, 0, 63, 42
1, 807708, Control_c, 0, 67, 115
1, 807822, Control_c, 0, 67, 111
1, 807886, Note_off_c, 0, 63, 57
1, 807886, Poly_aftertouch_c, 0, 63, 0
1, 807903, Note_off_c, 0, 71, 29
1, 807903, Poly_aftertouch_c, 0, 71, 0
1, 807907, Note_off_c, 0, 35, 50
1, 807907, Note_off_c, 0, 47, 37
1, 807907, Poly_aftertouch_c, 0, 47, 0
1, 807947, Note_off_c, 0, 75, 60
1, 807951, Note_on_c, 0, 66, 47
1, 807998, Note_off_c, 0, 66, 65
1, 808266, Note_on_c, 0, 79, 66
1, 808270, Control_c, 0, 67, 106
1, 808311, Note_on_c, 0, 46, 40
1, 808315, Note_on_c, 0, 73, 43
1, 808322, Note_on_c, 0, 34, 37
1, 808346, Control_c, 0, 67, 102
1, 808401, Control_c, 0, 67, 97
1, 808421, Control_c, 0, 64, 114
1, 808439, Control_c, 0, 64, 95
1, 808440, Control_c, 0, 67, 93
1, 808458, Control_c, 0, 64, 77
1, 808477, Control_c, 0, 64, 64
1, 808478, Control_c, 0, 67, 87
1, 808495, Control_c, 0, 64, 62
1, 808514, Control_c, 0, 64, 63
1, 808515, Control_c, 0, 67, 80
1, 808533, Control_c, 0, 64, 67
1, 808552, Control_c, 0, 64, 71
1, 808554, Control_c, 0, 67, 72
1, 808571, Control_c, 0, 64, 77
1, 808572, Control_c, 0, 67, 68
1, 808589, Control_c, 0, 64, 88
1, 808591, Control_c, 0, 67, 63
1, 808601, Poly_aftertouch_c, 0, 73, 24
1, 808605, Control_c, 0, 64, 102
1, 808607, Control_c, 0, 67, 59
1, 808626, Control_c, 0, 64, 117
1, 808645, Control_c, 0, 64, 127
1, 808646, Control_c, 0, 67, 53
1, 808650, Note_on_c, 0, 76, 43
1, 808663, Control_c, 0, 67, 49
1, 808682, Control_c, 0, 67, 44
1, 808701, Control_c, 0, 67, 39
1, 808712, Note_off_c, 0, 73, 19
1, 808712, Poly_aftertouch_c, 0, 73, 0
1, 808719, Control_c, 0, 67, 35
1, 808738, Control_c, 0, 67, 31
1, 808776, Control_c, 0, 67, 25
1, 808895, Note_on_c, 0, 73, 38
1, 808902, Note_off_c, 0, 46, 51
1, 808936, Note_off_c, 0, 79, 35
1, 808936, Poly_aftertouch_c, 0, 79, 0
1, 808961, Note_off_c, 0, 34, 40
1, 808992, Note_off_c, 0, 76, 56
1, 809020, Control_c, 0, 67, 31
1, 809038, Control_c, 0, 67, 38
1, 809055, Control_c, 0, 67, 51
1, 809076, Control_c, 0, 67, 66
1, 809094, Control_c, 0, 67, 79
1, 809112, Control_c, 0, 67, 89
1, 809131, Control_c, 0, 67, 98
1, 809149, Control_c, 0, 67, 104
1, 809160, Note_on_c, 0, 80, 68
1, 809175, Note_off_c, 0, 73, 52
1, 809175, Poly_aftertouch_c, 0, 73, 0
1, 809187, Control_c, 0, 67, 109
1, 809208, Note_on_c, 0, 71, 43
1, 809214, Note_on_c, 0, 44, 42
1, 809224, Control_c, 0, 67, 113
1, 809234, Note_on_c, 0, 32, 39
1, 809318, Control_c, 0, 64, 114
1, 809337, Control_c, 0, 64, 86
1, 809355, Control_c, 0, 64, 65
1, 809375, Control_c, 0, 64, 60
1, 809393, Control_c, 0, 64, 65
1, 809411, Control_c, 0, 64, 75
1, 809431, Note_off_c, 0, 80, 59
1, 809431, Poly_aftertouch_c, 0, 80, 0
1, 809431, Control_c, 0, 64, 93
1, 809450, Control_c, 0, 64, 125
1, 809488, Note_on_c, 0, 75, 46
1, 809542, Control_c, 0, 67, 109
1, 809555, Poly_aftertouch_c, 0, 71, 24
1, 809584, Note_off_c, 0, 71, 46
1, 809584, Poly_aftertouch_c, 0, 71, 0
1, 809594, Note_on_c, 0, 82, 71
1, 809617, Control_c, 0, 67, 104
1, 809648, Note_off_c, 0, 44, 54
1, 809653, Control_c, 0, 67, 100
1, 809691, Control_c, 0, 67, 95
1, 809709, Note_off_c, 0, 32, 51
1, 809719, Note_off_c, 0, 75, 53
1, 809728, Control_c, 0, 67, 90
1, 809747, Note_on_c, 0, 71, 58
1, 809767, Control_c, 0, 67, 85
1, 809804, Control_c, 0, 67, 78
1, 809860, Control_c, 0, 67, 73
1, 809886, Note_off_c, 0, 82, 38
1, 809886, Poly_aftertouch_c, 0, 82, 0
1, 809898, Control_c, 0, 67, 69
1, 809916, Control_c, 0, 67, 65
1, 809935, Control_c, 0, 67, 60
1, 809942, Note_off_c, 0, 71, 44
1, 809942, Poly_aftertouch_c, 0, 71, 0
1, 809955, Control_c, 0, 67, 55
1, 809987, Note_on_c, 0, 83, 77
1, 809991, Control_c, 0, 67, 49
1, 810009, Note_on_c, 0, 80, 62
1, 810029, Control_c, 0, 64, 101
1, 810030, Control_c, 0, 67, 41
1, 810047, Control_c, 0, 64, 84
1, 810048, Control_c, 0, 67, 36
1, 810054, Note_on_c, 0, 28, 46
1, 810058, Note_on_c, 0, 40, 35
1, 810065, Control_c, 0, 64, 80
1, 810066, Control_c, 0, 67, 29
1, 810085, Control_c, 0, 64, 87
1, 810086, Control_c, 0, 67, 21
1, 810104, Control_c, 0, 64, 102
1, 810107, Control_c, 0, 67, 12
1, 810122, Control_c, 0, 64, 127
1, 810159, Control_c, 0, 67, 0
1, 810212, Note_off_c, 0, 83, 57
1, 810212, Poly_aftertouch_c, 0, 83, 0
1, 810243, Note_off_c, 0, 80, 60
1, 810243, Poly_aftertouch_c, 0, 80, 0
1, 810248, Note_on_c, 0, 71, 57
1, 810353, Note_off_c, 0, 71, 47
1, 810353, Poly_aftertouch_c, 0, 71, 0
1, 810392, Note_on_c, 0, 85, 76
1, 810502, Note_off_c, 0, 28, 56
1, 810521, Note_on_c, 0, 80, 69
1, 810571, Note_off_c, 0, 40, 40
1, 810571, Poly_aftertouch_c, 0, 40, 0
1, 810579, Note_off_c, 0, 85, 59
1, 810639, Note_off_c, 0, 80, 60
1, 810639, Poly_aftertouch_c, 0, 80, 0
1, 810642, Note_on_c, 0, 72, 69
1, 810751, Note_on_c, 0, 80, 66
1, 810815, Control_c, 0, 64, 123
1, 810833, Control_c, 0, 64, 116
1, 810852, Control_c, 0, 64, 108
1, 810865, Note_on_c, 0, 84, 72
1, 810870, Control_c, 0, 64, 97
1, 810873, Note_on_c, 0, 39, 54
1, 810886, Note_on_c, 0, 27, 52
1, 810888, Control_c, 0, 64, 83
1, 810907, Control_c, 0, 64, 63
1, 810927, Control_c, 0, 64, 34
1, 810944, Control_c, 0, 64, 0
1, 811038, Control_c, 0, 64, 34
1, 811057, Control_c, 0, 64, 66
1, 811076, Control_c, 0, 64, 97
1, 811077, Note_off_c, 0, 27, 62
1, 811094, Control_c, 0, 64, 127
1, 811145, Note_off_c, 0, 39, 59
1, 811170, Note_off_c, 0, 72, 29
1, 811170, Poly_aftertouch_c, 0, 72, 0
1, 811223, Note_on_c, 0, 87, 87
1, 811278, Note_off_c, 0, 80, 55
1, 811278, Poly_aftertouch_c, 0, 80, 0
1, 811309, Note_off_c, 0, 84, 55
1, 811413, Note_off_c, 0, 87, 61
1, 811762, Note_on_c, 0, 51, 37
1, 812101, Note_on_c, 0, 60, 37
1, 812339, Note_off_c, 0, 51, 22
1, 812339, Poly_aftertouch_c, 0, 51, 0
1, 812442, Note_on_c, 0, 63, 47
1, 812518, Note_off_c, 0, 60, 49
1, 812518, Poly_aftertouch_c, 0, 60, 0
1, 812724, Note_on_c, 0, 60, 46
1, 812925, Note_off_c, 0, 63, 30
1, 812925, Poly_aftertouch_c, 0, 63, 0
1, 812960, Note_on_c, 0, 51, 50
1, 813193, Note_on_c, 0, 63, 61
1, 813203, Note_off_c, 0, 60, 39
1, 813203, Poly_aftertouch_c, 0, 60, 0
1, 813392, Note_on_c, 0, 60, 49
1, 813399, Note_off_c, 0, 51, 23
1, 813399, Poly_aftertouch_c, 0, 51, 0
1, 813483, Note_off_c, 0, 63, 58
1, 813483, Poly_aftertouch_c, 0, 63, 0
1, 813594, Note_on_c, 0, 51, 55
1, 813601, Note_off_c, 0, 60, 62
1, 813601, Poly_aftertouch_c, 0, 60, 0
1, 813668, Note_off_c, 0, 51, 58
1, 813668, Poly_aftertouch_c, 0, 51, 0
1, 813780, Note_on_c, 0, 84, 77
1, 813817, Note_on_c, 0, 80, 57
1, 813838, Note_on_c, 0, 51, 57
1, 813849, Note_on_c, 0, 72, 25
1, 813898, Note_off_c, 0, 80, 37
1, 813898, Poly_aftertouch_c, 0, 80, 0
1, 814017, Note_off_c, 0, 72, 38
1, 814017, Note_on_c, 0, 48, 51
1, 814017, Poly_aftertouch_c, 0, 72, 0
1, 814018, Poly_aftertouch_c, 0, 72, 0
1, 814054, Note_off_c, 0, 51, 52
1, 814054, Poly_aftertouch_c, 0, 51, 0
1, 814128, Note_on_c, 0, 39, 61
1, 814144, Note_off_c, 0, 48, 62
1, 814147, Note_off_c, 0, 84, 57
1, 814184, Note_off_c, 0, 39, 61
1, 814208, Note_on_c, 0, 72, 54
1, 814286, Note_on_c, 0, 81, 63
1, 814373, Note_on_c, 0, 84, 66
1, 814441, Control_c, 0, 64, 118
1, 814457, Note_on_c, 0, 27, 74
1, 814459, Control_c, 0, 64, 96
1, 814480, Control_c, 0, 64, 67
1, 814486, Poly_aftertouch_c, 0, 74, 127
1, 814497, Control_c, 0, 64, 18
1, 814517, Control_c, 0, 64, 0
1, 814573, Control_c, 0, 64, 42
1, 814591, Control_c, 0, 64, 81
1, 814605, Note_off_c, 0, 27, 62
1, 814609, Control_c, 0, 64, 124
1, 814658, Note_on_c, 0, 87, 91
1, 814755, Note_off_c, 0, 84, 53
1, 814759, Note_off_c, 0, 81, 45
1, 814774, Poly_aftertouch_c, 0, 74, 0
1, 814799, Note_off_c, 0, 72, 32
1, 814802, Note_off_c, 0, 87, 67
1, 815013, Note_on_c, 0, 51, 48
1, 815286, Note_on_c, 0, 60, 44
1, 815558, Note_on_c, 0, 63, 44
1, 815581, Note_off_c, 0, 60, 51
1, 815581, Poly_aftertouch_c, 0, 60, 0
1, 815797, Note_off_c, 0, 51, 32
1, 815797, Poly_aftertouch_c, 0, 51, 0
1, 815800, Note_on_c, 0, 60, 37
1, 815958, Note_off_c, 0, 63, 40
1, 815958, Poly_aftertouch_c, 0, 63, 0
1, 816047, Note_on_c, 0, 51, 39
1, 816286, Note_off_c, 0, 60, 34
1, 816286, Poly_aftertouch_c, 0, 60, 0
1, 816297, Note_on_c, 0, 63, 38
1, 816515, Note_off_c, 0, 51, 34
1, 816515, Poly_aftertouch_c, 0, 51, 0
1, 816518, Control_c, 0, 67, 8
1, 816527, Note_on_c, 0, 60, 36
1, 816647, Note_off_c, 0, 63, 44
1, 816647, Poly_aftertouch_c, 0, 63, 0
1, 816647, Control_c, 0, 67, 12
1, 816704, Control_c, 0, 67, 16
1, 816742, Control_c, 0, 67, 21
1, 816754, Note_off_c, 0, 60, 57
1, 816754, Poly_aftertouch_c, 0, 60, 0
1, 816779, Control_c, 0, 67, 30
1, 816782, Note_on_c, 0, 51, 42
1, 816797, Control_c, 0, 67, 37
1, 816816, Control_c, 0, 67, 45
1, 816836, Control_c, 0, 67, 51
1, 816851, Note_off_c, 0, 51, 52
1, 816851, Poly_aftertouch_c, 0, 51, 0
1, 816852, Control_c, 0, 67, 56
1, 816872, Control_c, 0, 67, 60
1, 816909, Control_c, 0, 67, 67
1, 816947, Control_c, 0, 67, 73
1, 816984, Control_c, 0, 67, 78
1, 817039, Note_on_c, 0, 82, 63
1, 817071, Note_on_c, 0, 79, 47
1, 817078, Control_c, 0, 67, 82
1, 817090, Note_on_c, 0, 51, 43
1, 817114, Note_on_c, 0, 70, 23
1, 817135, Control_c, 0, 64, 118
1, 817153, Control_c, 0, 64, 100
1, 817172, Control_c, 0, 64, 82
1, 817173, Control_c, 0, 67, 86
1, 817191, Control_c, 0, 64, 70
1, 817209, Control_c, 0, 64, 67
1, 817227, Control_c, 0, 64, 70
1, 817246, Control_c, 0, 64, 75
1, 817264, Control_c, 0, 64, 80
1, 817284, Control_c, 0, 64, 88
1, 817303, Control_c, 0, 64, 100
1, 817304, Control_c, 0, 67, 90
1, 817314, Note_off_c, 0, 79, 51
1, 817314, Poly_aftertouch_c, 0, 79, 0
1, 817319, Control_c, 0, 64, 115
1, 817340, Control_c, 0, 64, 127
1, 817376, Note_on_c, 0, 49, 40
1, 817405, Note_off_c, 0, 82, 60
1, 817405, Poly_aftertouch_c, 0, 82, 0
1, 817415, Control_c, 0, 67, 95
1, 817453, Control_c, 0, 67, 100
1, 817543, Note_off_c, 0, 51, 32
1, 817543, Poly_aftertouch_c, 0, 51, 0
1, 817564, Control_c, 0, 67, 104
1, 817566, Note_off_c, 0, 70, 43
1, 817566, Poly_aftertouch_c, 0, 70, 0
1, 817739, Note_on_c, 0, 39, 40
1, 817751, Control_c, 0, 67, 108
1, 817800, Note_off_c, 0, 49, 35
1, 817800, Poly_aftertouch_c, 0, 49, 0
1, 817862, Note_on_c, 0, 68, 36
1, 817960, Note_on_c, 0, 75, 52
1, 817961, Note_off_c, 0, 39, 42
1, 818013, Control_c, 0, 67, 112
1, 818026, Note_off_c, 0, 68, 36
1, 818026, Poly_aftertouch_c, 0, 68, 0
1, 818075, Note_on_c, 0, 80, 46
1, 818202, Note_on_c, 0, 44, 44
1, 818219, Control_c, 0, 64, 121
1, 818256, Control_c, 0, 64, 116
1, 818294, Control_c, 0, 64, 108
1, 818312, Control_c, 0, 64, 103
1, 818331, Control_c, 0, 64, 97
1, 818349, Control_c, 0, 64, 90
1, 818369, Control_c, 0, 64, 84
1, 818386, Control_c, 0, 64, 78
1, 818405, Control_c, 0, 64, 74
1, 818407, Note_on_c, 0, 84, 73
1, 818425, Control_c, 0, 64, 71
1, 818443, Control_c, 0, 64, 69
1, 818461, Control_c, 0, 64, 66
1, 818480, Control_c, 0, 64, 60
1, 818499, Control_c, 0, 64, 49
1, 818518, Control_c, 0, 64, 26
1, 818536, Control_c, 0, 64, 0
1, 818630, Control_c, 0, 64, 21
1, 818649, Control_c, 0, 64, 32
1, 818667, Control_c, 0, 64, 44
1, 818686, Control_c, 0, 64, 56
1, 818705, Control_c, 0, 64, 70
1, 818723, Control_c, 0, 64, 78
1, 818742, Control_c, 0, 64, 83
1, 818762, Control_c, 0, 64, 88
1, 818780, Control_c, 0, 64, 95
1, 818798, Control_c, 0, 64, 101
1, 818817, Control_c, 0, 64, 108
1, 818836, Control_c, 0, 64, 114
1, 818850, Note_off_c, 0, 44, 30
1, 818854, Control_c, 0, 64, 119
1, 818870, Note_on_c, 0, 43, 33
1, 818872, Control_c, 0, 64, 123
1, 818910, Control_c, 0, 64, 127
1, 819176, Note_off_c, 0, 43, 34
1, 819192, Note_on_c, 0, 44, 33
1, 819466, Note_off_c, 0, 44, 33
1, 819482, Note_on_c, 0, 43, 35
1, 819687, Note_off_c, 0, 43, 34
1, 819752, Note_on_c, 0, 44, 31
1, 819863, Control_c, 0, 67, 116
1, 819962, Note_off_c, 0, 44, 41
1, 819973, Note_on_c, 0, 43, 35
1, 820144, Control_c, 0, 67, 121
1, 820240, Note_on_c, 0, 44, 34
1, 820263, Note_off_c, 0, 43, 36
1, 820405, Note_off_c, 0, 84, 39
1, 820468, Note_on_c, 0, 43, 43
1, 820489, Note_off_c, 0, 44, 40
1, 820498, Note_off_c, 0, 80, 34
1, 820498, Poly_aftertouch_c, 0, 80, 0
1, 820511, Note_off_c, 0, 75, 57
1, 820595, Control_c, 0, 67, 125
1, 820697, Note_on_c, 0, 44, 37
1, 820758, Note_off_c, 0, 43, 30
1, 820911, Note_on_c, 0, 75, 64
1, 820942, Note_on_c, 0, 43, 38
1, 820960, Note_on_c, 0, 72, 47
1, 820964, Note_off_c, 0, 44, 35
1, 820986, Control_c, 0, 64, 111
1, 821005, Control_c, 0, 64, 93
1, 821024, Control_c, 0, 64, 76
1, 821042, Control_c, 0, 64, 69
1, 821062, Control_c, 0, 64, 71
1, 821079, Control_c, 0, 64, 78
1, 821098, Control_c, 0, 64, 84
1, 821119, Control_c, 0, 64, 93
1, 821136, Control_c, 0, 64, 106
1, 821144, Note_off_c, 0, 72, 55
1, 821154, Control_c, 0, 64, 121
1, 821172, Control_c, 0, 64, 127
1, 821175, Note_on_c, 0, 44, 40
1, 821257, Note_off_c, 0, 43, 39
1, 821312, Note_off_c, 0, 75, 51
1, 821359, Note_off_c, 0, 44, 52
1, 821397, Note_on_c, 0, 43, 51
1, 821458, Note_on_c, 0, 64, 45
1, 821532, Note_on_c, 0, 68, 50
1, 821624, Note_on_c, 0, 73, 49
1, 821655, Note_off_c, 0, 43, 36
1, 821709, Note_off_c, 0, 64, 29
1, 821709, Poly_aftertouch_c, 0, 64, 0
1, 821734, Control_c, 0, 64, 123
1, 821736, Note_on_c, 0, 44, 42
1, 821809, Control_c, 0, 64, 118
1, 821847, Control_c, 0, 64, 111
1, 821868, Note_on_c, 0, 80, 75
1, 821882, Control_c, 0, 64, 106
1, 821902, Control_c, 0, 64, 101
1, 821921, Control_c, 0, 64, 92
1, 821939, Control_c, 0, 64, 82
1, 821958, Control_c, 0, 64, 71
1, 821976, Poly_aftertouch_c, 0, 65, 127
1, 821976, Control_c, 0, 64, 64
1, 821998, Poly_aftertouch_c, 0, 64, 127
1, 822014, Control_c, 0, 64, 69
1, 822033, Control_c, 0, 64, 74
1, 822052, Control_c, 0, 64, 79
1, 822071, Control_c, 0, 64, 85
1, 822089, Control_c, 0, 64, 93
1, 822109, Control_c, 0, 64, 103
1, 822127, Control_c, 0, 64, 113
1, 822145, Control_c, 0, 64, 120
1, 822160, Note_on_c, 0, 43, 40
1, 822162, Note_off_c, 0, 44, 35
1, 822239, Control_c, 0, 64, 124
1, 822340, Note_off_c, 0, 43, 35
1, 822408, Note_on_c, 0, 44, 36
1, 822625, Note_off_c, 0, 44, 31
1, 822657, Note_on_c, 0, 43, 32
1, 822884, Poly_aftertouch_c, 0, 64, 0
1, 822889, Note_on_c, 0, 44, 31
1, 822897, Note_off_c, 0, 43, 36
1, 822976, Poly_aftertouch_c, 0, 65, 0
1, 823046, Note_off_c, 0, 80, 35
1, 823046, Poly_aftertouch_c, 0, 80, 0
1, 823096, Note_off_c, 0, 44, 33
1, 823103, Note_on_c, 0, 43, 32
1, 823197, Note_off_c, 0, 73, 46
1, 823197, Poly_aftertouch_c, 0, 73, 0
1, 823265, Note_off_c, 0, 68, 36
1, 823265, Poly_aftertouch_c, 0, 68, 0
1, 823357, Note_off_c, 0, 43, 36
1, 823357, Note_on_c, 0, 44, 34
1, 823609, Note_off_c, 0, 44, 39
1, 823613, Note_on_c, 0, 43, 35
1, 823829, Note_on_c, 0, 44, 32
1, 823865, Note_off_c, 0, 43, 32
1, 823959, Note_off_c, 0, 44, 55
1, 824083, Note_on_c, 0, 70, 54
1, 824093, Note_on_c, 0, 67, 44
1, 824104, Note_on_c, 0, 64, 43
1, 824115, Note_on_c, 0, 61, 27
1, 824141, Note_on_c, 0, 43, 30
1, 824164, Control_c, 0, 64, 118
1, 824183, Control_c, 0, 64, 106
1, 824202, Control_c, 0, 64, 91
1, 824222, Control_c, 0, 64, 75
1, 824239, Control_c, 0, 64, 63
1, 824258, Control_c, 0, 64, 60
1, 824277, Control_c, 0, 64, 65
1, 824295, Control_c, 0, 64, 70
1, 824314, Control_c, 0, 64, 75
1, 824333, Control_c, 0, 64, 82
1, 824353, Control_c, 0, 64, 90
1, 824368, Note_on_c, 0, 44, 37
1, 824369, Control_c, 0, 64, 101
1, 824389, Control_c, 0, 64, 111
1, 824407, Control_c, 0, 64, 119
1, 824427, Control_c, 0, 64, 124
1, 824428, Note_off_c, 0, 43, 29
1, 824448, Note_off_c, 0, 64, 33
1, 824466, Note_off_c, 0, 67, 35
1, 824498, Note_off_c, 0, 61, 43
1, 824498, Poly_aftertouch_c, 0, 61, 0
1, 824579, Note_off_c, 0, 70, 51
1, 824579, Poly_aftertouch_c, 0, 70, 0
1, 824587, Note_off_c, 0, 44, 35
1, 824604, Note_on_c, 0, 43, 39
1, 824683, Note_on_c, 0, 60, 41
1, 824747, Note_on_c, 0, 63, 49
1, 824820, Note_off_c, 0, 43, 34
1, 824858, Note_on_c, 0, 68, 39
1, 824912, Control_c, 0, 64, 117
1, 824931, Control_c, 0, 64, 113
1, 824936, Note_on_c, 0, 44, 33
1, 824952, Control_c, 0, 64, 109
1, 824987, Control_c, 0, 64, 103
1, 825024, Control_c, 0, 64, 97
1, 825026, Note_on_c, 0, 75, 64
1, 825043, Control_c, 0, 64, 92
1, 825064, Control_c, 0, 64, 84
1, 825081, Control_c, 0, 64, 75
1, 825090, Poly_aftertouch_c, 0, 60, 24
1, 825099, Control_c, 0, 64, 65
1, 825120, Control_c, 0, 64, 58
1, 825137, Control_c, 0, 64, 55
1, 825174, Control_c, 0, 64, 60
1, 825192, Control_c, 0, 64, 65
1, 825212, Control_c, 0, 64, 69
1, 825231, Control_c, 0, 64, 75
1, 825249, Control_c, 0, 64, 83
1, 825268, Control_c, 0, 64, 92
1, 825287, Control_c, 0, 64, 100
1, 825293, Note_off_c, 0, 44, 40
1, 825299, Note_on_c, 0, 43, 31
1, 825305, Control_c, 0, 64, 106
1, 825342, Control_c, 0, 64, 111
1, 825352, Poly_aftertouch_c, 0, 60, 32
1, 825380, Control_c, 0, 64, 117
1, 825545, Note_off_c, 0, 43, 37
1, 825551, Note_on_c, 0, 44, 29
1, 825781, Note_off_c, 0, 44, 38
1, 825804, Note_on_c, 0, 43, 30
1, 825998, Control_c, 0, 64, 112
1, 826034, Control_c, 0, 64, 106
1, 826065, Note_on_c, 0, 44, 27
1, 826073, Note_off_c, 0, 43, 34
1, 826167, Control_c, 0, 64, 111
1, 826203, Control_c, 0, 64, 116
1, 826240, Control_c, 0, 64, 123
1, 826260, Control_c, 0, 64, 127
1, 826285, Note_on_c, 0, 43, 33
1, 826288, Note_off_c, 0, 44, 38
1, 826545, Note_on_c, 0, 44, 34
1, 826565, Note_off_c, 0, 43, 34
1, 826611, Note_off_c, 0, 75, 33
1, 826706, Note_off_c, 0, 63, 53
1, 826706, Poly_aftertouch_c, 0, 63, 0
1, 826758, Note_off_c, 0, 68, 42
1, 826758, Poly_aftertouch_c, 0, 68, 0
1, 826765, Note_off_c, 0, 44, 36
1, 826786, Note_on_c, 0, 43, 31
1, 826814, Poly_aftertouch_c, 0, 60, 24
1, 826862, Note_off_c, 0, 60, 39
1, 826862, Poly_aftertouch_c, 0, 60, 0
1, 826863, Poly_aftertouch_c, 0, 60, 0
1, 827026, Note_on_c, 0, 44, 35
1, 827033, Note_off_c, 0, 43, 42
1, 827127, Note_off_c, 0, 44, 54
1, 827314, Note_on_c, 0, 63, 44
1, 827316, Note_on_c, 0, 60, 47
1, 827347, Note_on_c, 0, 43, 37
1, 827419, Control_c, 0, 64, 117
1, 827437, Control_c, 0, 64, 95
1, 827456, Control_c, 0, 64, 76
1, 827475, Control_c, 0, 64, 70
1, 827493, Control_c, 0, 64, 74
1, 827512, Control_c, 0, 64, 81
1, 827530, Control_c, 0, 64, 88
1, 827549, Control_c, 0, 64, 101
1, 827568, Control_c, 0, 64, 121
1, 827586, Control_c, 0, 64, 127
1, 827613, Note_on_c, 0, 44, 37
1, 827642, Note_off_c, 0, 60, 58
1, 827702, Note_off_c, 0, 43, 33
1, 827757, Note_off_c, 0, 63, 37
1, 827757, Poly_aftertouch_c, 0, 63, 0
1, 827838, Note_off_c, 0, 44, 31
1, 827864, Note_on_c, 0, 43, 38
1, 827984, Note_on_c, 0, 52, 43
1, 828023, Note_off_c, 0, 43, 50
1, 828070, Note_on_c, 0, 56, 47
1, 828168, Note_on_c, 0, 61, 42
1, 828281, Note_on_c, 0, 44, 37
1, 828370, Poly_aftertouch_c, 0, 52, 24
1, 828372, Control_c, 0, 64, 122
1, 828405, Note_on_c, 0, 68, 59
1, 828407, Control_c, 0, 64, 114
1, 828429, Control_c, 0, 64, 110
1, 828447, Control_c, 0, 64, 103
1, 828465, Control_c, 0, 64, 92
1, 828484, Control_c, 0, 64, 78
1, 828503, Control_c, 0, 64, 65
1, 828521, Control_c, 0, 64, 56
1, 828540, Control_c, 0, 64, 51
1, 828577, Control_c, 0, 64, 56
1, 828596, Control_c, 0, 64, 61
1, 828615, Control_c, 0, 64, 66
1, 828627, Poly_aftertouch_c, 0, 53, 127
1, 828632, Control_c, 0, 64, 72
1, 828652, Control_c, 0, 64, 77
1, 828668, Poly_aftertouch_c, 0, 52, 32
1, 828671, Control_c, 0, 64, 85
1, 828690, Control_c, 0, 64, 94
1, 828701, Note_on_c, 0, 43, 38
1, 828706, Control_c, 0, 64, 102
1, 828726, Note_off_c, 0, 44, 34
1, 828726, Control_c, 0, 64, 109
1, 828746, Control_c, 0, 64, 114
1, 828784, Control_c, 0, 64, 119
1, 828814, Note_off_c, 0, 43, 46
1, 829004, Note_on_c, 0, 44, 27
1, 829098, Note_off_c, 0, 44, 42
1, 829157, Control_c, 0, 64, 115
1, 829278, Note_on_c, 0, 43, 36
1, 829400, Control_c, 0, 64, 111
1, 829439, Control_c, 0, 64, 104
1, 829457, Control_c, 0, 64, 97
1, 829475, Control_c, 0, 64, 89
1, 829494, Control_c, 0, 64, 84
1, 829512, Control_c, 0, 64, 82
1, 829550, Control_c, 0, 64, 84
1, 829566, Note_on_c, 0, 44, 33
1, 829569, Control_c, 0, 64, 87
1, 829606, Control_c, 0, 64, 93
1, 829607, Note_off_c, 0, 43, 31
1, 829625, Control_c, 0, 64, 99
1, 829643, Control_c, 0, 64, 103
1, 829662, Control_c, 0, 64, 108
1, 829700, Control_c, 0, 64, 113
1, 829765, Note_off_c, 0, 44, 31
1, 829838, Note_on_c, 0, 43, 33
1, 830120, Note_on_c, 0, 44, 34
1, 830145, Note_off_c, 0, 43, 33
1, 830204, Control_c, 0, 64, 117
1, 830335, Poly_aftertouch_c, 0, 52, 24
1, 830404, Note_on_c, 0, 43, 34
1, 830405, Note_off_c, 0, 68, 37
1, 830405, Poly_aftertouch_c, 0, 68, 0
1, 830407, Note_off_c, 0, 44, 36
1, 830448, Note_off_c, 0, 52, 35
1, 830448, Poly_aftertouch_c, 0, 52, 0
1, 830449, Poly_aftertouch_c, 0, 52, 0
1, 830455, Poly_aftertouch_c, 0, 53, 0
1, 830466, Note_off_c, 0, 56, 54
1, 830489, Note_off_c, 0, 61, 34
1, 830489, Poly_aftertouch_c, 0, 61, 0
1, 830707, Note_on_c, 0, 44, 39
1, 830758, Note_off_c, 0, 43, 32
1, 830805, Note_off_c, 0, 44, 45
1, 831047, Note_on_c, 0, 58, 50
1, 831056, Note_on_c, 0, 49, 41
1, 831056, Note_on_c, 0, 52, 41
1, 831062, Note_on_c, 0, 55, 35
1, 831064, Control_c, 0, 64, 113
1, 831082, Note_on_c, 0, 43, 35
1, 831121, Control_c, 0, 64, 108
1, 831158, Control_c, 0, 64, 102
1, 831177, Control_c, 0, 64, 97
1, 831195, Control_c, 0, 64, 89
1, 831214, Control_c, 0, 64, 78
1, 831233, Control_c, 0, 64, 67
1, 831252, Control_c, 0, 64, 59
1, 831289, Control_c, 0, 64, 60
1, 831309, Control_c, 0, 64, 64
1, 831326, Control_c, 0, 64, 68
1, 831345, Control_c, 0, 64, 72
1, 831363, Control_c, 0, 64, 77
1, 831383, Control_c, 0, 64, 82
1, 831402, Control_c, 0, 64, 89
1, 831421, Control_c, 0, 64, 98
1, 831438, Control_c, 0, 64, 106
1, 831458, Note_on_c, 0, 44, 37
1, 831458, Control_c, 0, 64, 114
1, 831476, Control_c, 0, 64, 120
1, 831494, Control_c, 0, 64, 126
1, 831552, Note_off_c, 0, 43, 24
1, 831563, Note_off_c, 0, 52, 33
1, 831584, Note_off_c, 0, 58, 57
1, 831622, Note_off_c, 0, 55, 40
1, 831622, Poly_aftertouch_c, 0, 55, 0
1, 831679, Note_off_c, 0, 49, 53
1, 831679, Poly_aftertouch_c, 0, 49, 0
1, 831701, Note_off_c, 0, 44, 40
1, 831822, Note_on_c, 0, 43, 38
1, 831970, Note_off_c, 0, 43, 52
1, 832229, Note_on_c, 0, 63, 47
1, 832230, Note_on_c, 0, 48, 41
1, 832232, Note_on_c, 0, 54, 42
1, 832233, Note_on_c, 0, 56, 47
1, 832250, Note_on_c, 0, 44, 42
1, 832317, Control_c, 0, 64, 119
1, 832337, Control_c, 0, 64, 112
1, 832354, Control_c, 0, 64, 105
1, 832373, Control_c, 0, 64, 97
1, 832392, Control_c, 0, 64, 89
1, 832411, Control_c, 0, 64, 80
1, 832426, Note_off_c, 0, 44, 52
1, 832429, Control_c, 0, 64, 72
1, 832448, Control_c, 0, 64, 67
1, 832467, Control_c, 0, 64, 65
1, 832485, Control_c, 0, 64, 63
1, 832504, Control_c, 0, 64, 62
1, 832523, Control_c, 0, 64, 61
1, 832543, Control_c, 0, 64, 59
1, 832560, Control_c, 0, 64, 56
1, 832579, Control_c, 0, 64, 54
1, 832617, Control_c, 0, 64, 51
1, 832635, Control_c, 0, 64, 48
1, 832655, Control_c, 0, 64, 46
1, 832671, Control_c, 0, 64, 44
1, 832678, Note_on_c, 0, 43, 34
1, 832785, Control_c, 0, 64, 42
1, 833164, Note_on_c, 0, 44, 34
1, 833266, Note_off_c, 0, 43, 35
1, 833456, Note_off_c, 0, 44, 36
1, 834073, Note_on_c, 0, 43, 26
1, 834356, Control_c, 0, 64, 44
1, 834561, Note_on_c, 0, 44, 30
1, 834660, Note_off_c, 0, 43, 29
1, 834830, Note_off_c, 0, 44, 38
1, 835593, Note_on_c, 0, 43, 18
1, 836190, Note_on_c, 0, 44, 23
1, 836292, Note_off_c, 0, 43, 27
1, 836478, Note_off_c, 0, 44, 41
1, 837363, Note_on_c, 0, 43, 21
1, 838142, Note_on_c, 0, 44, 24
1, 838318, Note_off_c, 0, 43, 27
1, 839127, Note_off_c, 0, 44, 50
1, 839158, Note_off_c, 0, 63, 48
1, 839158, Poly_aftertouch_c, 0, 63, 0
1, 839194, Note_off_c, 0, 48, 41
1, 839213, Note_off_c, 0, 56, 34
1, 839220, Note_off_c, 0, 54, 37
1, 839330, Control_c, 0, 64, 46
1, 839367, Control_c, 0, 64, 48
1, 839404, Control_c, 0, 64, 51
1, 839422, Control_c, 0, 64, 54
1, 839442, Control_c, 0, 64, 56
1, 839461, Control_c, 0, 64, 58
1, 839479, Control_c, 0, 64, 61
1, 839497, Control_c, 0, 64, 64
1, 839518, Control_c, 0, 64, 67
1, 839534, Control_c, 0, 64, 69
1, 839554, Control_c, 0, 64, 71
1, 839574, Control_c, 0, 64, 73
1, 839591, Control_c, 0, 64, 75
1, 839610, Control_c, 0, 64, 78
1, 839628, Control_c, 0, 64, 81
1, 839648, Control_c, 0, 64, 84
1, 839666, Control_c, 0, 64, 89
1, 839684, Control_c, 0, 64, 94
1, 839704, Control_c, 0, 64, 100
1, 839722, Control_c, 0, 64, 107
1, 839741, Control_c, 0, 64, 113
1, 839759, Control_c, 0, 64, 119
1, 839779, Control_c, 0, 64, 124
1, 840646, Note_on_c, 0, 44, 24
1, 841046, Note_off_c, 0, 44, 36
1, 841567, Note_on_c, 0, 44, 31
1, 841942, Note_off_c, 0, 44, 40
1, 842418, Note_on_c, 0, 68, 34
1, 842453, Note_on_c, 0, 56, 16
1, 842462, Note_on_c, 0, 44, 29
1, 842647, Note_off_c, 0, 56, 40
1, 842766, Note_off_c, 0, 44, 33
1, 842789, Note_off_c, 0, 68, 59
1, 842789, Poly_aftertouch_c, 0, 68, 0
1, 843181, Control_c, 0, 67, 120
1, 843277, Note_on_c, 0, 73, 51
1, 843296, Note_on_c, 0, 68, 37
1, 843306, Note_on_c, 0, 61, 30
1, 843314, Note_on_c, 0, 44, 30
1, 843332, Note_on_c, 0, 53, 27
1, 843461, Control_c, 0, 64, 111
1, 843482, Control_c, 0, 64, 98
1, 843498, Control_c, 0, 64, 87
1, 843517, Control_c, 0, 64, 81
1, 843556, Control_c, 0, 64, 88
1, 843573, Control_c, 0, 64, 93
1, 843575, Control_c, 0, 67, 116
1, 843592, Control_c, 0, 64, 101
1, 843611, Control_c, 0, 64, 111
1, 843629, Control_c, 0, 64, 123
1, 843649, Control_c, 0, 64, 127
1, 843735, Note_off_c, 0, 61, 42
1, 843735, Poly_aftertouch_c, 0, 61, 0
1, 843764, Note_off_c, 0, 68, 38
1, 843764, Poly_aftertouch_c, 0, 68, 0
1, 843772, Note_off_c, 0, 73, 60
1, 843772, Poly_aftertouch_c, 0, 73, 0
1, 843779, Note_off_c, 0, 44, 38
1, 843784, Note_off_c, 0, 53, 39
1, 843816, Control_c, 0, 67, 112
1, 844132, Note_on_c, 0, 75, 63
1, 844149, Note_on_c, 0, 73, 51
1, 844165, Note_on_c, 0, 54, 32
1, 844179, Note_on_c, 0, 63, 37
1, 844186, Note_on_c, 0, 44, 32
1, 844229, Control_c, 0, 64, 113
1, 844247, Control_c, 0, 64, 98
1, 844266, Control_c, 0, 64, 84
1, 844285, Control_c, 0, 64, 75
1, 844321, Control_c, 0, 64, 78
1, 844341, Control_c, 0, 64, 86
1, 844360, Control_c, 0, 64, 95
1, 844378, Control_c, 0, 64, 106
1, 844397, Control_c, 0, 64, 117
1, 844415, Control_c, 0, 64, 127
1, 844518, Note_off_c, 0, 63, 53
1, 844518, Poly_aftertouch_c, 0, 63, 0
1, 844545, Note_off_c, 0, 44, 38
1, 844565, Control_c, 0, 67, 108
1, 844587, Note_off_c, 0, 54, 41
1, 844598, Note_off_c, 0, 73, 56
1, 844598, Poly_aftertouch_c, 0, 73, 0
1, 844606, Note_off_c, 0, 75, 61
1, 844733, Control_c, 0, 67, 103
1, 844844, Control_c, 0, 67, 99
1, 845070, Control_c, 0, 67, 95
1, 845092, Note_on_c, 0, 78, 63
1, 845128, Note_on_c, 0, 73, 46
1, 845147, Note_on_c, 0, 58, 42
1, 845147, Note_on_c, 0, 66, 39
1, 845168, Note_on_c, 0, 44, 35
1, 845257, Control_c, 0, 64, 123
1, 845295, Control_c, 0, 64, 115
1, 845312, Control_c, 0, 64, 108
1, 845332, Control_c, 0, 64, 98
1, 845350, Control_c, 0, 64, 85
1, 845370, Control_c, 0, 64, 71
1, 845388, Control_c, 0, 64, 61
1, 845425, Control_c, 0, 64, 63
1, 845443, Control_c, 0, 64, 69
1, 845463, Control_c, 0, 64, 75
1, 845464, Control_c, 0, 67, 91
1, 845481, Control_c, 0, 64, 84
1, 845500, Control_c, 0, 64, 101
1, 845519, Control_c, 0, 64, 125
1, 845683, Note_off_c, 0, 44, 42
1, 846071, Note_on_c, 0, 44, 26
1, 846441, Note_off_c, 0, 44, 38
1, 846808, Note_off_c, 0, 73, 28
1, 846808, Poly_aftertouch_c, 0, 73, 0
1, 846925, Note_on_c, 0, 44, 26
1, 846995, Control_c, 0, 67, 96
1, 847033, Control_c, 0, 67, 101
1, 847070, Control_c, 0, 67, 108
1, 847089, Control_c, 0, 67, 112
1, 847126, Control_c, 0, 67, 119
1, 847164, Control_c, 0, 67, 123
1, 847218, Note_off_c, 0, 78, 23
1, 847220, Note_off_c, 0, 66, 37
1, 847234, Note_off_c, 0, 44, 34
1, 847242, Note_off_c, 0, 58, 40
1, 847257, Control_c, 0, 67, 127
1, 847718, Note_on_c, 0, 77, 42
1, 847724, Note_on_c, 0, 73, 42
1, 847750, Note_on_c, 0, 56, 33
1, 847761, Note_on_c, 0, 65, 24
1, 847779, Note_on_c, 0, 44, 22
1, 847930, Control_c, 0, 64, 119
1, 847949, Control_c, 0, 64, 99
1, 847968, Control_c, 0, 64, 77
1, 847987, Control_c, 0, 64, 62
1, 848005, Control_c, 0, 64, 60
1, 848025, Control_c, 0, 64, 65
1, 848043, Control_c, 0, 64, 71
1, 848061, Control_c, 0, 64, 81
1, 848080, Control_c, 0, 64, 95
1, 848099, Control_c, 0, 64, 119
1, 848118, Control_c, 0, 64, 127
1, 848149, Note_off_c, 0, 65, 41
1, 848170, Note_off_c, 0, 44, 41
1, 848171, Note_off_c, 0, 77, 37
1, 848193, Note_off_c, 0, 73, 33
1, 848193, Poly_aftertouch_c, 0, 73, 0
1, 848211, Note_off_c, 0, 56, 41
1, 848520, Note_on_c, 0, 73, 43
1, 848533, Note_on_c, 0, 75, 46
1, 848562, Note_on_c, 0, 44, 36
1, 848566, Note_on_c, 0, 54, 34
1, 848575, Note_on_c, 0, 63, 24
1, 848716, Control_c, 0, 64, 117
1, 848735, Control_c, 0, 64, 106
1, 848753, Control_c, 0, 64, 89
1, 848773, Control_c, 0, 64, 71
1, 848791, Control_c, 0, 64, 60
1, 848809, Control_c, 0, 64, 61
1, 848828, Control_c, 0, 64, 68
1, 848847, Control_c, 0, 64, 77
1, 848866, Control_c, 0, 64, 88
1, 848884, Control_c, 0, 64, 104
1, 848903, Control_c, 0, 64, 126
1, 848997, Note_off_c, 0, 44, 37
1, 848998, Note_off_c, 0, 63, 40
1, 848998, Note_off_c, 0, 75, 48
1, 848998, Poly_aftertouch_c, 0, 63, 0
1, 849007, Note_off_c, 0, 54, 40
1, 849056, Note_off_c, 0, 73, 32
1, 849056, Poly_aftertouch_c, 0, 73, 0
1, 849351, Note_on_c, 0, 77, 45
1, 849358, Note_on_c, 0, 73, 40
1, 849387, Note_on_c, 0, 65, 26
1, 849390, Note_on_c, 0, 56, 37
1, 849398, Note_on_c, 0, 44, 30
1, 849502, Control_c, 0, 64, 119
1, 849521, Control_c, 0, 64, 100
1, 849538, Control_c, 0, 64, 78
1, 849557, Control_c, 0, 64, 59
1, 849576, Control_c, 0, 64, 49
1, 849595, Control_c, 0, 64, 52
1, 849613, Control_c, 0, 64, 61
1, 849632, Control_c, 0, 64, 71
1, 849652, Control_c, 0, 64, 84
1, 849670, Control_c, 0, 64, 99
1, 849688, Control_c, 0, 64, 117
1, 849690, Note_off_c, 0, 77, 47
1, 849706, Control_c, 0, 64, 127
1, 849721, Note_off_c, 0, 73, 37
1, 849721, Poly_aftertouch_c, 0, 73, 0
1, 849734, Note_off_c, 0, 65, 48
1, 849835, Note_off_c, 0, 44, 38
1, 849840, Note_off_c, 0, 56, 38
1, 850231, Note_on_c, 0, 73, 42
1, 850240, Note_on_c, 0, 68, 38
1, 850259, Note_on_c, 0, 61, 17
1, 850282, Note_on_c, 0, 53, 31
1, 850287, Note_on_c, 0, 44, 27
1, 850363, Control_c, 0, 64, 119
1, 850380, Control_c, 0, 64, 111
1, 850400, Control_c, 0, 64, 102
1, 850417, Control_c, 0, 64, 88
1, 850437, Control_c, 0, 64, 70
1, 850455, Control_c, 0, 64, 52
1, 850474, Control_c, 0, 64, 30
1, 850492, Control_c, 0, 64, 8
1, 850511, Control_c, 0, 64, 13
1, 850530, Control_c, 0, 64, 28
1, 850548, Control_c, 0, 64, 42
1, 850550, Control_c, 0, 67, 122
1, 850567, Control_c, 0, 64, 56
1, 850586, Control_c, 0, 64, 72
1, 850605, Control_c, 0, 64, 84
1, 850624, Control_c, 0, 64, 96
1, 850626, Control_c, 0, 67, 118
1, 850642, Control_c, 0, 64, 109
1, 850661, Control_c, 0, 64, 122
1, 850680, Control_c, 0, 64, 127
1, 850681, Control_c, 0, 67, 114
1, 850735, Control_c, 0, 67, 109
1, 850785, Note_off_c, 0, 44, 34
1, 850791, Control_c, 0, 67, 104
1, 850828, Control_c, 0, 67, 99
1, 850867, Control_c, 0, 67, 95
1, 850868, Note_off_c, 0, 73, 35
1, 850868, Poly_aftertouch_c, 0, 73, 0
1, 850877, Note_off_c, 0, 61, 40
1, 850877, Poly_aftertouch_c, 0, 61, 0
1, 850930, Note_off_c, 0, 68, 38
1, 850930, Poly_aftertouch_c, 0, 68, 0
1, 850942, Control_c, 0, 67, 90
1, 851015, Control_c, 0, 67, 86
1, 851090, Control_c, 0, 67, 81
1, 851147, Control_c, 0, 67, 77
1, 851162, Note_on_c, 0, 44, 28
1, 851203, Control_c, 0, 67, 73
1, 851240, Control_c, 0, 67, 69
1, 851278, Control_c, 0, 67, 65
1, 851315, Control_c, 0, 67, 60
1, 851352, Control_c, 0, 67, 56
1, 851390, Control_c, 0, 67, 50
1, 851428, Control_c, 0, 67, 43
1, 851465, Control_c, 0, 67, 37
1, 851485, Control_c, 0, 67, 33
1, 851502, Control_c, 0, 67, 29
1, 851520, Control_c, 0, 67, 23
1, 851540, Control_c, 0, 67, 18
1, 851541, Note_off_c, 0, 44, 39
1, 851558, Control_c, 0, 67, 13
1, 851577, Control_c, 0, 67, 8
1, 851649, Poly_aftertouch_c, 0, 53, 24
1, 851670, Control_c, 0, 67, 0
1, 851755, Note_off_c, 0, 53, 28
1, 851755, Poly_aftertouch_c, 0, 53, 0
1, 851963, Note_on_c, 0, 44, 31
1, 852382, Note_off_c, 0, 44, 37
1, 852766, Note_on_c, 0, 68, 48
1, 852812, Note_on_c, 0, 56, 24
1, 852834, Note_on_c, 0, 44, 25
1, 853056, Note_off_c, 0, 56, 40
1, 853202, Note_off_c, 0, 68, 62
1, 853202, Poly_aftertouch_c, 0, 68, 0
1, 853235, Note_off_c, 0, 44, 35
1, 853573, Note_on_c, 0, 73, 60
1, 853598, Note_on_c, 0, 68, 44
1, 853626, Note_on_c, 0, 61, 33
1, 853633, Note_on_c, 0, 44, 29
1, 853643, Note_on_c, 0, 53, 25
1, 853845, Note_off_c, 0, 61, 44
1, 853845, Poly_aftertouch_c, 0, 61, 0
1, 853926, Note_off_c, 0, 68, 60
1, 853926, Poly_aftertouch_c, 0, 68, 0
1, 854005, Note_off_c, 0, 73, 62
1, 854005, Poly_aftertouch_c, 0, 73, 0
1, 854082, Note_off_c, 0, 44, 31
1, 854364, Note_on_c, 0, 77, 62
1, 854364, Note_on_c, 0, 73, 58
1, 854387, Note_on_c, 0, 56, 44
1, 854403, Note_off_c, 0, 53, 39
1, 854403, Poly_aftertouch_c, 0, 53, 0
1, 854411, Note_on_c, 0, 65, 43
1, 854429, Note_on_c, 0, 44, 30
1, 854677, Note_off_c, 0, 44, 34
1, 854788, Note_off_c, 0, 56, 23
1, 854793, Control_c, 0, 64, 115
1, 854811, Control_c, 0, 64, 90
1, 854831, Control_c, 0, 64, 74
1, 854849, Control_c, 0, 64, 77
1, 854865, Note_on_c, 0, 44, 44
1, 854866, Control_c, 0, 64, 89
1, 854887, Control_c, 0, 64, 109
1, 854905, Control_c, 0, 64, 127
1, 854943, Note_off_c, 0, 65, 41
1, 854958, Note_off_c, 0, 73, 63
1, 854958, Poly_aftertouch_c, 0, 73, 0
1, 854962, Note_off_c, 0, 77, 61
1, 855038, Note_off_c, 0, 44, 58
1, 855285, Note_on_c, 0, 80, 60
1, 855307, Note_on_c, 0, 73, 51
1, 855331, Note_on_c, 0, 68, 39
1, 855387, Note_on_c, 0, 60, 58
1, 855717, Note_off_c, 0, 60, 38
1, 856198, Note_on_c, 0, 44, 33
1, 856527, Note_off_c, 0, 44, 40
1, 856986, Note_on_c, 0, 44, 32
1, 857172, Note_off_c, 0, 73, 58
1, 857172, Poly_aftertouch_c, 0, 73, 0
1, 857267, Note_off_c, 0, 80, 48
1, 857267, Poly_aftertouch_c, 0, 80, 0
1, 857283, Note_off_c, 0, 68, 54
1, 857283, Poly_aftertouch_c, 0, 68, 0
1, 857333, Note_off_c, 0, 44, 39
1, 857523, Control_c, 0, 67, 8
1, 857598, Control_c, 0, 67, 12
1, 857690, Control_c, 0, 67, 17
1, 857731, Note_on_c, 0, 78, 51
1, 857747, Control_c, 0, 67, 22
1, 857750, Note_on_c, 0, 73, 44
1, 857763, Note_on_c, 0, 66, 39
1, 857768, Note_on_c, 0, 58, 38
1, 857785, Control_c, 0, 67, 27
1, 857804, Note_on_c, 0, 44, 32
1, 857822, Control_c, 0, 67, 32
1, 857860, Control_c, 0, 67, 36
1, 857916, Control_c, 0, 64, 115
1, 857918, Control_c, 0, 67, 41
1, 857934, Control_c, 0, 64, 97
1, 857953, Control_c, 0, 64, 79
1, 857972, Control_c, 0, 64, 71
1, 857974, Control_c, 0, 67, 45
1, 857991, Control_c, 0, 64, 73
1, 858009, Control_c, 0, 64, 80
1, 858028, Control_c, 0, 64, 92
1, 858046, Control_c, 0, 64, 109
1, 858065, Control_c, 0, 64, 127
1, 858083, Control_c, 0, 67, 49
1, 858121, Control_c, 0, 67, 56
1, 858140, Control_c, 0, 67, 61
1, 858159, Control_c, 0, 67, 66
1, 858167, Note_off_c, 0, 66, 55
1, 858177, Control_c, 0, 67, 70
1, 858179, Note_off_c, 0, 73, 54
1, 858179, Poly_aftertouch_c, 0, 73, 0
1, 858182, Note_off_c, 0, 78, 37
1, 858196, Control_c, 0, 67, 74
1, 858199, Note_off_c, 0, 44, 40
1, 858233, Control_c, 0, 67, 81
1, 858261, Note_off_c, 0, 58, 36
1, 858269, Control_c, 0, 67, 86
1, 858308, Control_c, 0, 67, 93
1, 858327, Control_c, 0, 67, 97
1, 858345, Control_c, 0, 67, 102
1, 858383, Control_c, 0, 67, 108
1, 858439, Control_c, 0, 67, 113
1, 858533, Control_c, 0, 67, 117
1, 858562, Note_on_c, 0, 75, 49
1, 858569, Note_on_c, 0, 73, 44
1, 858606, Note_on_c, 0, 54, 33
1, 858607, Control_c, 0, 67, 121
1, 858608, Note_on_c, 0, 44, 33
1, 858616, Note_on_c, 0, 63, 29
1, 858720, Control_c, 0, 64, 122
1, 858739, Control_c, 0, 64, 111
1, 858740, Control_c, 0, 67, 125
1, 858757, Control_c, 0, 64, 97
1, 858777, Control_c, 0, 64, 81
1, 858795, Control_c, 0, 64, 66
1, 858813, Control_c, 0, 64, 58
1, 858851, Control_c, 0, 64, 64
1, 858869, Control_c, 0, 64, 72
1, 858889, Control_c, 0, 64, 82
1, 858907, Control_c, 0, 64, 95
1, 858926, Control_c, 0, 64, 113
1, 858944, Control_c, 0, 64, 127
1, 858986, Note_off_c, 0, 63, 48
1, 858986, Poly_aftertouch_c, 0, 63, 0
1, 859036, Note_off_c, 0, 75, 55
1, 859060, Note_off_c, 0, 44, 41
1, 859063, Note_off_c, 0, 73, 38
1, 859063, Poly_aftertouch_c, 0, 73, 0
1, 859080, Note_off_c, 0, 54, 40
1, 859350, Note_on_c, 0, 77, 47
1, 859352, Note_on_c, 0, 73, 44
1, 859380, Note_on_c, 0, 65, 28
1, 859382, Note_on_c, 0, 56, 35
1, 859415, Note_on_c, 0, 44, 25
1, 859449, Control_c, 0, 64, 123
1, 859468, Control_c, 0, 64, 113
1, 859486, Control_c, 0, 64, 101
1, 859505, Control_c, 0, 64, 85
1, 859525, Control_c, 0, 64, 67
1, 859542, Control_c, 0, 64, 54
1, 859562, Control_c, 0, 64, 45
1, 859580, Control_c, 0, 64, 48
1, 859599, Control_c, 0, 64, 58
1, 859618, Control_c, 0, 64, 72
1, 859636, Control_c, 0, 64, 86
1, 859654, Control_c, 0, 64, 100
1, 859674, Control_c, 0, 64, 118
1, 859691, Control_c, 0, 64, 127
1, 859726, Note_off_c, 0, 73, 50
1, 859726, Poly_aftertouch_c, 0, 73, 0
1, 859755, Note_off_c, 0, 77, 57
1, 859790, Note_off_c, 0, 65, 48
1, 859834, Note_off_c, 0, 44, 36
1, 859859, Note_off_c, 0, 56, 37
1, 860299, Note_on_c, 0, 73, 42
1, 860305, Note_on_c, 0, 68, 37
1, 860332, Note_on_c, 0, 53, 30
1, 860341, Note_on_c, 0, 61, 19
1, 860358, Note_on_c, 0, 44, 27
1, 860403, Control_c, 0, 64, 123
1, 860420, Control_c, 0, 64, 118
1, 860440, Control_c, 0, 64, 112
1, 860458, Control_c, 0, 64, 103
1, 860478, Control_c, 0, 64, 93
1, 860496, Control_c, 0, 64, 78
1, 860515, Control_c, 0, 64, 65
1, 860534, Control_c, 0, 64, 58
1, 860571, Control_c, 0, 64, 63
1, 860590, Control_c, 0, 64, 70
1, 860591, Control_c, 0, 67, 121
1, 860609, Control_c, 0, 64, 78
1, 860626, Control_c, 0, 64, 89
1, 860646, Control_c, 0, 64, 104
1, 860665, Control_c, 0, 64, 121
1, 860683, Control_c, 0, 64, 127
1, 860684, Control_c, 0, 67, 117
1, 860740, Control_c, 0, 67, 113
1, 860796, Control_c, 0, 67, 108
1, 860816, Note_off_c, 0, 44, 39
1, 860851, Control_c, 0, 67, 104
1, 860867, Note_off_c, 0, 53, 42
1, 860867, Poly_aftertouch_c, 0, 53, 0
1, 860908, Control_c, 0, 67, 99
1, 860946, Control_c, 0, 67, 95
1, 860982, Control_c, 0, 67, 91
1, 861038, Control_c, 0, 67, 86
1, 861187, Control_c, 0, 67, 82
1, 861203, Note_on_c, 0, 44, 34
1, 861318, Control_c, 0, 67, 78
1, 861394, Control_c, 0, 67, 74
1, 861449, Control_c, 0, 67, 69
1, 861505, Control_c, 0, 67, 65
1, 861507, Note_off_c, 0, 61, 35
1, 861507, Poly_aftertouch_c, 0, 61, 0
1, 861544, Control_c, 0, 67, 61
1, 861567, Note_off_c, 0, 44, 41
1, 861580, Control_c, 0, 67, 56
1, 861618, Control_c, 0, 67, 49
1, 861636, Control_c, 0, 67, 45
1, 861655, Control_c, 0, 67, 41
1, 861674, Control_c, 0, 67, 36
1, 861692, Control_c, 0, 67, 32
1, 861711, Control_c, 0, 67, 27
1, 861731, Control_c, 0, 67, 23
1, 861749, Control_c, 0, 67, 19
1, 861774, Note_off_c, 0, 68, 38
1, 861774, Poly_aftertouch_c, 0, 68, 0
1, 861786, Control_c, 0, 67, 12
1, 861823, Control_c, 0, 67, 8
1, 861975, Note_on_c, 0, 44, 35
1, 862073, Note_off_c, 0, 73, 40
1, 862073, Poly_aftertouch_c, 0, 73, 0
1, 862444, Note_off_c, 0, 44, 30
1, 862572, Control_c, 0, 67, 0
1, 862773, Note_on_c, 0, 44, 39
1, 863338, Note_off_c, 0, 44, 36
1, 863544, Note_on_c, 0, 77, 68
1, 863578, Note_on_c, 0, 73, 50
1, 863602, Note_on_c, 0, 44, 34
1, 863606, Note_on_c, 0, 49, 43
1, 863609, Note_on_c, 0, 65, 45
1, 863712, Control_c, 0, 64, 107
1, 863732, Control_c, 0, 64, 81
1, 863750, Control_c, 0, 64, 56
1, 863768, Control_c, 0, 64, 39
1, 863787, Control_c, 0, 64, 44
1, 863806, Control_c, 0, 64, 60
1, 863824, Control_c, 0, 64, 78
1, 863843, Control_c, 0, 64, 96
1, 863861, Control_c, 0, 64, 120
1, 863880, Control_c, 0, 64, 127
1, 864055, Note_off_c, 0, 44, 41
1, 864236, Note_off_c, 0, 65, 34
1, 864296, Note_on_c, 0, 44, 51
1, 864526, Note_off_c, 0, 73, 54
1, 864526, Poly_aftertouch_c, 0, 73, 0
1, 864533, Note_off_c, 0, 77, 54
1, 864695, Note_off_c, 0, 44, 48
1, 865102, Note_on_c, 0, 82, 71
1, 865154, Note_on_c, 0, 73, 45
1, 865155, Note_on_c, 0, 54, 47
1, 865172, Note_on_c, 0, 70, 42
1, 865179, Note_on_c, 0, 44, 36
1, 865189, Control_c, 0, 64, 123
1, 865208, Control_c, 0, 64, 117
1, 865228, Control_c, 0, 64, 111
1, 865245, Control_c, 0, 64, 105
1, 865264, Control_c, 0, 64, 96
1, 865283, Control_c, 0, 64, 84
1, 865292, Note_off_c, 0, 49, 33
1, 865292, Poly_aftertouch_c, 0, 49, 0
1, 865301, Control_c, 0, 64, 69
1, 865320, Control_c, 0, 64, 57
1, 865339, Control_c, 0, 64, 50
1, 865358, Control_c, 0, 64, 48
1, 865377, Control_c, 0, 64, 51
1, 865395, Control_c, 0, 64, 59
1, 865414, Control_c, 0, 64, 67
1, 865433, Control_c, 0, 64, 74
1, 865451, Control_c, 0, 64, 84
1, 865470, Control_c, 0, 64, 97
1, 865490, Control_c, 0, 64, 114
1, 865508, Control_c, 0, 64, 127
1, 865668, Note_off_c, 0, 44, 41
1, 865928, Note_on_c, 0, 44, 44
1, 866203, Note_off_c, 0, 44, 35
1, 866267, Note_off_c, 0, 70, 42
1, 866267, Poly_aftertouch_c, 0, 70, 0
1, 866299, Note_off_c, 0, 82, 34
1, 866299, Poly_aftertouch_c, 0, 82, 0
1, 866376, Note_off_c, 0, 73, 35
1, 866376, Poly_aftertouch_c, 0, 73, 0
1, 866438, Note_off_c, 0, 54, 35
1, 866610, Control_c, 0, 67, 8
1, 866699, Note_on_c, 0, 80, 59
1, 866733, Note_on_c, 0, 73, 39
1, 866754, Note_on_c, 0, 53, 38
1, 866766, Note_on_c, 0, 68, 25
1, 866777, Note_on_c, 0, 44, 34
1, 866798, Control_c, 0, 67, 12
1, 866816, Control_c, 0, 64, 120
1, 866836, Control_c, 0, 64, 113
1, 866854, Control_c, 0, 64, 102
1, 866873, Control_c, 0, 64, 88
1, 866892, Control_c, 0, 64, 75
1, 866910, Control_c, 0, 64, 66
1, 866912, Control_c, 0, 67, 16
1, 866927, Control_c, 0, 64, 63
1, 866966, Control_c, 0, 64, 64
1, 866967, Control_c, 0, 67, 22
1, 866985, Control_c, 0, 64, 66
1, 867003, Control_c, 0, 64, 68
1, 867005, Control_c, 0, 67, 28
1, 867023, Control_c, 0, 64, 71
1, 867024, Control_c, 0, 67, 32
1, 867041, Control_c, 0, 64, 75
1, 867059, Control_c, 0, 64, 80
1, 867059, Control_c, 0, 67, 39
1, 867078, Control_c, 0, 64, 87
1, 867080, Control_c, 0, 67, 43
1, 867097, Control_c, 0, 64, 96
1, 867116, Control_c, 0, 64, 104
1, 867116, Control_c, 0, 67, 50
1, 867124, Note_off_c, 0, 44, 36
1, 867133, Control_c, 0, 64, 112
1, 867153, Control_c, 0, 64, 118
1, 867155, Control_c, 0, 67, 57
1, 867172, Control_c, 0, 64, 123
1, 867191, Control_c, 0, 64, 127
1, 867191, Control_c, 0, 67, 61
1, 867228, Control_c, 0, 67, 66
1, 867265, Control_c, 0, 67, 71
1, 867302, Control_c, 0, 67, 76
1, 867358, Control_c, 0, 67, 81
1, 867395, Control_c, 0, 67, 85
1, 867433, Control_c, 0, 67, 89
1, 867490, Control_c, 0, 67, 94
1, 867534, Note_on_c, 0, 44, 34
1, 867542, Control_c, 0, 67, 99
1, 867601, Control_c, 0, 67, 103
1, 867658, Control_c, 0, 67, 107
1, 867670, Note_off_c, 0, 73, 41
1, 867670, Poly_aftertouch_c, 0, 73, 0
1, 867727, Note_off_c, 0, 80, 37
1, 867727, Poly_aftertouch_c, 0, 80, 0
1, 867732, Control_c, 0, 67, 111
1, 867848, Note_off_c, 0, 44, 33
1, 867916, Note_off_c, 0, 68, 43
1, 867916, Poly_aftertouch_c, 0, 68, 0
1, 868045, Note_off_c, 0, 53, 34
1, 868045, Poly_aftertouch_c, 0, 53, 0
1, 868332, Note_on_c, 0, 77, 45
1, 868339, Note_on_c, 0, 73, 40
1, 868356, Note_on_c, 0, 65, 30
1, 868360, Note_on_c, 0, 55, 37
1, 868373, Note_on_c, 0, 44, 34
1, 868424, Control_c, 0, 64, 122
1, 868445, Control_c, 0, 64, 117
1, 868462, Control_c, 0, 64, 111
1, 868479, Control_c, 0, 64, 103
1, 868499, Control_c, 0, 64, 94
1, 868517, Control_c, 0, 64, 81
1, 868536, Control_c, 0, 64, 65
1, 868555, Control_c, 0, 64, 48
1, 868574, Control_c, 0, 64, 23
1, 868593, Control_c, 0, 64, 0
1, 868630, Control_c, 0, 64, 24
1, 868649, Control_c, 0, 64, 39
1, 868668, Control_c, 0, 64, 54
1, 868685, Control_c, 0, 64, 70
1, 868705, Control_c, 0, 64, 81
1, 868723, Control_c, 0, 64, 92
1, 868742, Control_c, 0, 64, 104
1, 868761, Control_c, 0, 64, 116
1, 868780, Control_c, 0, 64, 126
1, 868810, Note_off_c, 0, 44, 36
1, 868997, Note_off_c, 0, 73, 40
1, 868997, Poly_aftertouch_c, 0, 73, 0
1, 869140, Note_on_c, 0, 44, 35
1, 869248, Note_off_c, 0, 65, 37
1, 869268, Note_off_c, 0, 77, 32
1, 869412, Note_off_c, 0, 44, 37
1, 869440, Note_off_c, 0, 55, 40
1, 869440, Poly_aftertouch_c, 0, 55, 0
1, 869565, Control_c, 0, 67, 107
1, 869971, Note_on_c, 0, 75, 41
1, 869993, Note_on_c, 0, 72, 33
1, 869999, Note_on_c, 0, 56, 33
1, 870017, Note_on_c, 0, 63, 28
1, 870036, Note_on_c, 0, 44, 29
1, 870106, Control_c, 0, 64, 121
1, 870126, Control_c, 0, 64, 115
1, 870145, Control_c, 0, 64, 108
1, 870163, Control_c, 0, 64, 99
1, 870182, Control_c, 0, 64, 87
1, 870202, Control_c, 0, 64, 70
1, 870219, Control_c, 0, 64, 53
1, 870237, Control_c, 0, 64, 32
1, 870257, Control_c, 0, 64, 19
1, 870295, Control_c, 0, 64, 33
1, 870312, Control_c, 0, 64, 43
1, 870332, Control_c, 0, 64, 56
1, 870350, Control_c, 0, 64, 69
1, 870369, Control_c, 0, 64, 79
1, 870388, Control_c, 0, 64, 87
1, 870408, Control_c, 0, 64, 95
1, 870425, Control_c, 0, 64, 104
1, 870443, Control_c, 0, 64, 114
1, 870463, Control_c, 0, 64, 123
1, 870481, Control_c, 0, 64, 127
1, 870502, Note_off_c, 0, 44, 35
1, 870628, Note_off_c, 0, 56, 36
1, 870937, Note_on_c, 0, 44, 31
1, 871023, Note_off_c, 0, 75, 30
1, 871132, Note_off_c, 0, 72, 30
1, 871163, Note_off_c, 0, 63, 38
1, 871163, Poly_aftertouch_c, 0, 63, 0
1, 871287, Note_off_c, 0, 44, 37
1, 871696, Control_c, 0, 64, 122
1, 871735, Control_c, 0, 64, 118
1, 871749, Note_on_c, 0, 44, 34
1, 871791, Control_c, 0, 64, 111
1, 871827, Control_c, 0, 64, 105
1, 871865, Control_c, 0, 64, 97
1, 871883, Control_c, 0, 64, 88
1, 871902, Control_c, 0, 64, 75
1, 871921, Control_c, 0, 64, 59
1, 871922, Control_c, 0, 67, 103
1, 871939, Control_c, 0, 64, 46
1, 871959, Control_c, 0, 64, 37
1, 871977, Control_c, 0, 67, 98
1, 871996, Control_c, 0, 64, 47
1, 871997, Control_c, 0, 67, 93
1, 872015, Control_c, 0, 64, 57
1, 872016, Control_c, 0, 67, 89
1, 872032, Control_c, 0, 64, 70
1, 872053, Control_c, 0, 64, 83
1, 872055, Control_c, 0, 67, 83
1, 872071, Control_c, 0, 64, 95
1, 872089, Control_c, 0, 64, 108
1, 872090, Control_c, 0, 67, 77
1, 872107, Control_c, 0, 64, 120
1, 872127, Control_c, 0, 64, 127
1, 872128, Control_c, 0, 67, 71
1, 872182, Control_c, 0, 67, 67
1, 872235, Note_off_c, 0, 44, 37
1, 872276, Control_c, 0, 67, 63
1, 872571, Note_on_c, 0, 56, 43
1, 872642, Note_on_c, 0, 44, 30
1, 872922, Note_off_c, 0, 56, 52
1, 873055, Note_off_c, 0, 44, 33
1, 873354, Note_on_c, 0, 61, 45
1, 873391, Note_on_c, 0, 53, 28
1, 873420, Note_on_c, 0, 44, 36
1, 873511, Control_c, 0, 64, 123
1, 873529, Control_c, 0, 64, 111
1, 873548, Control_c, 0, 64, 96
1, 873566, Control_c, 0, 64, 81
1, 873585, Control_c, 0, 64, 69
1, 873603, Control_c, 0, 64, 64
1, 873623, Control_c, 0, 64, 65
1, 873641, Control_c, 0, 64, 72
1, 873660, Control_c, 0, 64, 80
1, 873679, Control_c, 0, 64, 92
1, 873699, Control_c, 0, 64, 111
1, 873700, Control_c, 0, 67, 55
1, 873715, Control_c, 0, 64, 127
1, 873717, Control_c, 0, 67, 47
1, 873735, Control_c, 0, 67, 39
1, 873753, Control_c, 0, 67, 29
1, 873772, Control_c, 0, 67, 19
1, 873791, Control_c, 0, 67, 9
1, 873800, Note_off_c, 0, 53, 40
1, 873800, Poly_aftertouch_c, 0, 53, 0
1, 873809, Note_off_c, 0, 61, 47
1, 873809, Poly_aftertouch_c, 0, 61, 0
1, 873830, Control_c, 0, 67, 0
1, 873876, Note_off_c, 0, 44, 36
1, 874120, Note_on_c, 0, 63, 48
1, 874133, Note_on_c, 0, 61, 40
1, 874144, Note_on_c, 0, 54, 36
1, 874173, Note_on_c, 0, 44, 32
1, 874259, Control_c, 0, 64, 114
1, 874277, Control_c, 0, 64, 99
1, 874296, Control_c, 0, 64, 88
1, 874314, Control_c, 0, 64, 84
1, 874333, Control_c, 0, 64, 86
1, 874352, Control_c, 0, 64, 92
1, 874372, Control_c, 0, 64, 100
1, 874389, Control_c, 0, 64, 112
1, 874408, Control_c, 0, 64, 124
1, 874493, Note_off_c, 0, 54, 45
1, 874536, Note_off_c, 0, 61, 59
1, 874536, Poly_aftertouch_c, 0, 61, 0
1, 874577, Note_off_c, 0, 63, 60
1, 874577, Poly_aftertouch_c, 0, 63, 0
1, 874594, Note_off_c, 0, 44, 58
1, 875011, Note_on_c, 0, 66, 50
1, 875044, Note_on_c, 0, 61, 38
1, 875053, Note_on_c, 0, 58, 27
1, 875077, Note_on_c, 0, 37, 40
1, 875106, Note_on_c, 0, 44, 27
1, 875118, Control_c, 0, 64, 118
1, 875156, Control_c, 0, 64, 113
1, 875193, Control_c, 0, 64, 106
1, 875212, Control_c, 0, 64, 101
1, 875232, Control_c, 0, 64, 93
1, 875249, Control_c, 0, 64, 83
1, 875268, Control_c, 0, 64, 70
1, 875288, Control_c, 0, 64, 57
1, 875306, Control_c, 0, 64, 42
1, 875324, Control_c, 0, 64, 27
1, 875381, Control_c, 0, 64, 42
1, 875399, Control_c, 0, 64, 56
1, 875418, Control_c, 0, 64, 69
1, 875437, Control_c, 0, 64, 79
1, 875454, Control_c, 0, 64, 91
1, 875474, Control_c, 0, 64, 107
1, 875492, Control_c, 0, 64, 127
1, 875551, Note_off_c, 0, 44, 37
1, 875717, Control_c, 0, 67, 8
1, 875830, Control_c, 0, 67, 13
1, 875907, Note_on_c, 0, 44, 31
1, 875940, Control_c, 0, 67, 18
1, 875978, Control_c, 0, 67, 25
1, 875997, Control_c, 0, 67, 29
1, 876015, Control_c, 0, 67, 34
1, 876053, Control_c, 0, 67, 38
1, 876128, Control_c, 0, 67, 42
1, 876270, Note_off_c, 0, 44, 33
1, 876296, Control_c, 0, 67, 46
1, 876371, Control_c, 0, 67, 51
1, 876446, Control_c, 0, 67, 56
1, 876520, Note_off_c, 0, 66, 36
1, 876534, Note_off_c, 0, 58, 36
1, 876619, Note_off_c, 0, 61, 41
1, 876619, Poly_aftertouch_c, 0, 61, 0
1, 876653, Note_on_c, 0, 44, 33
1, 877034, Note_off_c, 0, 44, 35
1, 877120, Control_c, 0, 67, 60
1, 877137, Control_c, 0, 67, 67
1, 877156, Control_c, 0, 67, 75
1, 877176, Control_c, 0, 67, 82
1, 877370, Note_on_c, 0, 65, 38
1, 877385, Note_on_c, 0, 61, 35
1, 877399, Note_on_c, 0, 56, 22
1, 877414, Note_on_c, 0, 44, 27
1, 877569, Control_c, 0, 64, 122
1, 877587, Control_c, 0, 64, 102
1, 877605, Control_c, 0, 64, 83
1, 877624, Control_c, 0, 64, 72
1, 877627, Control_c, 0, 67, 86
1, 877662, Control_c, 0, 64, 74
1, 877679, Control_c, 0, 64, 78
1, 877699, Control_c, 0, 64, 85
1, 877700, Control_c, 0, 67, 92
1, 877719, Control_c, 0, 64, 94
1, 877720, Control_c, 0, 67, 97
1, 877736, Control_c, 0, 64, 107
1, 877738, Control_c, 0, 67, 101
1, 877755, Control_c, 0, 64, 122
1, 877774, Control_c, 0, 64, 127
1, 877800, Note_off_c, 0, 65, 32
1, 877807, Note_off_c, 0, 56, 43
1, 877808, Note_off_c, 0, 61, 38
1, 877808, Poly_aftertouch_c, 0, 61, 0
1, 877829, Control_c, 0, 67, 105
1, 877839, Note_off_c, 0, 44, 40
1, 878120, Note_on_c, 0, 63, 44
1, 878128, Note_on_c, 0, 61, 35
1, 878151, Note_on_c, 0, 54, 35
1, 878169, Note_on_c, 0, 44, 28
1, 878315, Control_c, 0, 64, 120
1, 878335, Control_c, 0, 64, 105
1, 878352, Control_c, 0, 64, 87
1, 878373, Control_c, 0, 64, 69
1, 878391, Control_c, 0, 64, 58
1, 878408, Control_c, 0, 64, 56
1, 878428, Control_c, 0, 64, 59
1, 878447, Control_c, 0, 64, 66
1, 878466, Control_c, 0, 64, 74
1, 878484, Control_c, 0, 64, 82
1, 878503, Control_c, 0, 64, 92
1, 878523, Control_c, 0, 64, 106
1, 878532, Note_off_c, 0, 54, 48
1, 878540, Control_c, 0, 64, 120
1, 878551, Note_off_c, 0, 63, 38
1, 878551, Poly_aftertouch_c, 0, 63, 0
1, 878558, Control_c, 0, 64, 127
1, 878574, Note_off_c, 0, 44, 41
1, 878581, Note_off_c, 0, 61, 34
1, 878581, Poly_aftertouch_c, 0, 61, 0
1, 878853, Note_on_c, 0, 61, 34
1, 878862, Note_on_c, 0, 65, 34
1, 878871, Note_on_c, 0, 56, 30
1, 878891, Note_on_c, 0, 44, 29
1, 878970, Control_c, 0, 64, 116
1, 878990, Control_c, 0, 64, 102
1, 879008, Control_c, 0, 64, 88
1, 879026, Control_c, 0, 64, 78
1, 879046, Control_c, 0, 64, 74
1, 879064, Control_c, 0, 64, 77
1, 879083, Control_c, 0, 64, 84
1, 879101, Control_c, 0, 64, 94
1, 879120, Control_c, 0, 64, 108
1, 879139, Control_c, 0, 64, 124
1, 879246, Note_off_c, 0, 61, 42
1, 879246, Poly_aftertouch_c, 0, 61, 0
1, 879291, Note_off_c, 0, 56, 51
1, 879311, Note_off_c, 0, 65, 40
1, 879342, Note_off_c, 0, 37, 37
1, 879342, Poly_aftertouch_c, 0, 37, 0
1, 879374, Note_off_c, 0, 44, 40
1, 879649, Note_on_c, 0, 61, 42
1, 879683, Note_on_c, 0, 53, 28
1, 879705, Note_on_c, 0, 37, 35
1, 879724, Note_on_c, 0, 44, 25
1, 879774, Control_c, 0, 64, 118
1, 879795, Control_c, 0, 64, 113
1, 879812, Control_c, 0, 64, 109
1, 879831, Control_c, 0, 64, 104
1, 879849, Control_c, 0, 64, 97
1, 879868, Control_c, 0, 64, 87
1, 879886, Control_c, 0, 64, 73
1, 879905, Control_c, 0, 64, 59
1, 879925, Control_c, 0, 64, 44
1, 879943, Control_c, 0, 64, 26
1, 879962, Control_c, 0, 64, 22
1, 879964, Control_c, 0, 67, 101
1, 879980, Control_c, 0, 64, 27
1, 879999, Control_c, 0, 64, 36
1, 880017, Control_c, 0, 64, 46
1, 880036, Control_c, 0, 64, 57
1, 880055, Control_c, 0, 64, 69
1, 880057, Control_c, 0, 67, 96
1, 880074, Control_c, 0, 64, 81
1, 880092, Control_c, 0, 64, 92
1, 880113, Control_c, 0, 64, 103
1, 880130, Control_c, 0, 64, 116
1, 880131, Control_c, 0, 67, 90
1, 880137, Note_off_c, 0, 44, 39
1, 880149, Control_c, 0, 64, 127
1, 880149, Control_c, 0, 67, 86
1, 880186, Control_c, 0, 67, 80
1, 880260, Control_c, 0, 67, 74
1, 880294, Note_off_c, 0, 53, 38
1, 880294, Poly_aftertouch_c, 0, 53, 0
1, 880298, Control_c, 0, 67, 68
1, 880335, Control_c, 0, 67, 63
1, 880372, Control_c, 0, 67, 57
1, 880378, Note_off_c, 0, 61, 35
1, 880378, Poly_aftertouch_c, 0, 61, 0
1, 880410, Control_c, 0, 67, 51
1, 880467, Control_c, 0, 67, 46
1, 880503, Control_c, 0, 67, 40
1, 880539, Control_c, 0, 67, 36
1, 880547, Note_on_c, 0, 44, 29
1, 880598, Control_c, 0, 67, 31
1, 880653, Control_c, 0, 67, 26
1, 880709, Control_c, 0, 67, 19
1, 880728, Control_c, 0, 67, 13
1, 880747, Control_c, 0, 67, 9
1, 880899, Note_off_c, 0, 44, 41
1, 881008, Control_c, 0, 67, 0
1, 881281, Note_on_c, 0, 44, 30
1, 881681, Note_off_c, 0, 44, 38
1, 882026, Note_on_c, 0, 56, 41
1, 882051, Note_on_c, 0, 53, 30
1, 882060, Note_on_c, 0, 44, 22
1, 882408, Note_off_c, 0, 53, 38
1, 882408, Poly_aftertouch_c, 0, 53, 0
1, 882429, Note_off_c, 0, 56, 36
1, 882499, Note_off_c, 0, 44, 40
1, 882741, Note_on_c, 0, 61, 54
1, 882772, Note_on_c, 0, 56, 42
1, 882804, Note_on_c, 0, 44, 29
1, 883103, Note_off_c, 0, 56, 34
1, 883199, Note_off_c, 0, 44, 38
1, 883241, Note_off_c, 0, 61, 34
1, 883241, Poly_aftertouch_c, 0, 61, 0
1, 883495, Note_on_c, 0, 65, 64
1, 883514, Note_on_c, 0, 61, 50
1, 883542, Note_on_c, 0, 44, 41
1, 883770, Note_off_c, 0, 61, 57
1, 883770, Poly_aftertouch_c, 0, 61, 0
1, 883857, Note_off_c, 0, 65, 53
1, 884076, Note_off_c, 0, 44, 34
1, 884112, Note_off_c, 0, 37, 29
1, 884112, Poly_aftertouch_c, 0, 37, 0
1, 884379, Note_on_c, 0, 68, 58
1, 884392, Note_on_c, 0, 65, 42
1, 884416, Note_on_c, 0, 59, 41
1, 884440, Note_on_c, 0, 38, 45
1, 884449, Control_c, 0, 64, 123
1, 884463, Note_on_c, 0, 44, 31
1, 884487, Control_c, 0, 64, 116
1, 884505, Control_c, 0, 64, 112
1, 884523, Control_c, 0, 64, 108
1, 884542, Control_c, 0, 64, 103
1, 884561, Control_c, 0, 64, 97
1, 884580, Control_c, 0, 64, 91
1, 884598, Control_c, 0, 64, 82
1, 884618, Control_c, 0, 64, 73
1, 884638, Control_c, 0, 64, 65
1, 884654, Control_c, 0, 64, 56
1, 884673, Control_c, 0, 64, 41
1, 884692, Control_c, 0, 64, 0
1, 884804, Control_c, 0, 64, 34
1, 884822, Control_c, 0, 64, 51
1, 884842, Control_c, 0, 64, 64
1, 884860, Control_c, 0, 64, 76
1, 884879, Control_c, 0, 64, 88
1, 884898, Control_c, 0, 64, 103
1, 884916, Control_c, 0, 64, 119
1, 884935, Control_c, 0, 64, 127
1, 885011, Note_off_c, 0, 44, 36
1, 885179, Control_c, 0, 67, 9
1, 885216, Control_c, 0, 67, 13
1, 885272, Control_c, 0, 67, 18
1, 885310, Control_c, 0, 67, 22
1, 885327, Control_c, 0, 67, 27
1, 885346, Control_c, 0, 67, 32
1, 885348, Note_on_c, 0, 44, 35
1, 885365, Control_c, 0, 67, 36
1, 885403, Control_c, 0, 67, 43
1, 885458, Control_c, 0, 67, 47
1, 885533, Control_c, 0, 67, 52
1, 885571, Control_c, 0, 67, 57
1, 885627, Control_c, 0, 67, 62
1, 885683, Control_c, 0, 67, 66
1, 885757, Control_c, 0, 67, 71
1, 885759, Note_off_c, 0, 44, 40
1, 885851, Control_c, 0, 67, 75
1, 886124, Note_on_c, 0, 44, 40
1, 886206, Control_c, 0, 64, 119
1, 886227, Control_c, 0, 64, 103
1, 886244, Control_c, 0, 64, 93
1, 886281, Control_c, 0, 64, 99
1, 886300, Control_c, 0, 64, 109
1, 886319, Control_c, 0, 64, 121
1, 886337, Control_c, 0, 64, 127
1, 886375, Note_off_c, 0, 65, 57
1, 886498, Note_off_c, 0, 68, 49
1, 886498, Poly_aftertouch_c, 0, 68, 0
1, 886544, Note_off_c, 0, 44, 33
1, 886579, Note_off_c, 0, 59, 49
1, 886579, Poly_aftertouch_c, 0, 59, 0
1, 886872, Note_on_c, 0, 66, 49
1, 886881, Note_on_c, 0, 58, 41
1, 886914, Note_on_c, 0, 44, 37
1, 887029, Control_c, 0, 64, 114
1, 887049, Control_c, 0, 64, 95
1, 887066, Control_c, 0, 64, 75
1, 887085, Control_c, 0, 64, 63
1, 887105, Control_c, 0, 64, 64
1, 887106, Control_c, 0, 67, 71
1, 887123, Control_c, 0, 64, 69
1, 887141, Control_c, 0, 64, 75
1, 887160, Control_c, 0, 64, 84
1, 887164, Control_c, 0, 67, 67
1, 887179, Control_c, 0, 64, 99
1, 887200, Control_c, 0, 64, 117
1, 887201, Control_c, 0, 67, 62
1, 887216, Control_c, 0, 64, 127
1, 887235, Control_c, 0, 67, 56
1, 887272, Control_c, 0, 67, 49
1, 887296, Note_off_c, 0, 66, 38
1, 887329, Control_c, 0, 67, 45
1, 887365, Note_off_c, 0, 58, 46
1, 887385, Control_c, 0, 67, 40
1, 887386, Note_off_c, 0, 38, 36
1, 887390, Note_off_c, 0, 44, 39
1, 887478, Control_c, 0, 67, 36
1, 887629, Note_on_c, 0, 63, 50
1, 887658, Note_on_c, 0, 54, 37
1, 887676, Note_on_c, 0, 39, 43
1, 887678, Note_on_c, 0, 44, 40
1, 887778, Control_c, 0, 64, 117
1, 887796, Control_c, 0, 64, 106
1, 887814, Control_c, 0, 64, 93
1, 887833, Control_c, 0, 64, 76
1, 887852, Control_c, 0, 64, 60
1, 887871, Control_c, 0, 64, 50
1, 887908, Control_c, 0, 64, 55
1, 887928, Control_c, 0, 64, 65
1, 887945, Control_c, 0, 64, 73
1, 887964, Control_c, 0, 64, 83
1, 887985, Control_c, 0, 64, 95
1, 888002, Control_c, 0, 64, 109
1, 888020, Control_c, 0, 64, 122
1, 888040, Control_c, 0, 64, 127
1, 888120, Note_off_c, 0, 63, 37
1, 888120, Poly_aftertouch_c, 0, 63, 0
1, 888182, Note_off_c, 0, 54, 37
1, 888212, Note_off_c, 0, 44, 33
1, 888424, Note_on_c, 0, 65, 41
1, 888439, Note_on_c, 0, 54, 32
1, 888450, Note_on_c, 0, 60, 35
1, 888475, Note_on_c, 0, 44, 37
1, 888544, Control_c, 0, 64, 122
1, 888563, Control_c, 0, 64, 109
1, 888582, Control_c, 0, 64, 93
1, 888600, Control_c, 0, 64, 74
1, 888619, Control_c, 0, 64, 57
1, 888637, Control_c, 0, 64, 49
1, 888657, Control_c, 0, 64, 51
1, 888676, Control_c, 0, 64, 60
1, 888693, Control_c, 0, 64, 69
1, 888713, Control_c, 0, 64, 78
1, 888731, Control_c, 0, 64, 88
1, 888749, Control_c, 0, 64, 101
1, 888768, Control_c, 0, 64, 114
1, 888787, Control_c, 0, 64, 125
1, 888853, Note_off_c, 0, 60, 34
1, 888916, Note_off_c, 0, 65, 38
1, 888929, Note_off_c, 0, 44, 35
1, 888938, Note_off_c, 0, 54, 36
1, 889213, Note_on_c, 0, 61, 45
1, 889260, Note_on_c, 0, 53, 33
1, 889274, Note_on_c, 0, 41, 48
1, 889295, Note_on_c, 0, 44, 36
1, 889367, Control_c, 0, 64, 120
1, 889386, Control_c, 0, 64, 116
1, 889404, Control_c, 0, 64, 112
1, 889424, Control_c, 0, 64, 106
1, 889436, Note_off_c, 0, 39, 33
1, 889441, Control_c, 0, 64, 97
1, 889460, Control_c, 0, 64, 86
1, 889480, Control_c, 0, 64, 70
1, 889497, Control_c, 0, 64, 52
1, 889517, Control_c, 0, 64, 23
1, 889535, Control_c, 0, 64, 0
1, 889610, Control_c, 0, 64, 18
1, 889630, Control_c, 0, 64, 38
1, 889647, Control_c, 0, 64, 54
1, 889667, Control_c, 0, 64, 68
1, 889684, Control_c, 0, 64, 77
1, 889704, Control_c, 0, 64, 86
1, 889722, Control_c, 0, 64, 97
1, 889741, Control_c, 0, 64, 109
1, 889759, Control_c, 0, 64, 121
1, 889778, Control_c, 0, 64, 127
1, 889820, Note_off_c, 0, 44, 34
1, 890033, Note_on_c, 0, 44, 34
1, 890400, Note_off_c, 0, 44, 38
1, 890787, Note_on_c, 0, 37, 52
1, 890817, Note_on_c, 0, 44, 36
1, 890900, Control_c, 0, 64, 123
1, 890902, Note_off_c, 0, 41, 50
1, 890902, Poly_aftertouch_c, 0, 41, 0
1, 890938, Control_c, 0, 64, 116
1, 890956, Control_c, 0, 64, 107
1, 890975, Control_c, 0, 64, 93
1, 890995, Control_c, 0, 64, 76
1, 891012, Control_c, 0, 64, 61
1, 891031, Control_c, 0, 64, 50
1, 891049, Control_c, 0, 64, 41
1, 891087, Control_c, 0, 64, 49
1, 891106, Control_c, 0, 64, 61
1, 891124, Control_c, 0, 64, 73
1, 891143, Control_c, 0, 64, 83
1, 891161, Control_c, 0, 64, 93
1, 891181, Control_c, 0, 64, 104
1, 891199, Control_c, 0, 64, 117
1, 891218, Control_c, 0, 64, 127
1, 891313, Note_off_c, 0, 44, 40
1, 891583, Note_on_c, 0, 44, 42
1, 891779, Control_c, 0, 67, 40
1, 891880, Poly_aftertouch_c, 0, 53, 24
1, 891950, Note_off_c, 0, 53, 33
1, 891950, Poly_aftertouch_c, 0, 53, 0
1, 891977, Note_off_c, 0, 44, 34
1, 892015, Note_off_c, 0, 61, 31
1, 892015, Poly_aftertouch_c, 0, 61, 0
1, 892335, Note_on_c, 0, 61, 50
1, 892375, Note_on_c, 0, 58, 37
1, 892376, Note_on_c, 0, 53, 29
1, 892380, Note_on_c, 0, 34, 52
1, 892395, Note_on_c, 0, 44, 31
1, 892451, Control_c, 0, 64, 122
1, 892471, Control_c, 0, 64, 116
1, 892489, Control_c, 0, 64, 108
1, 892501, Note_off_c, 0, 37, 37
1, 892501, Poly_aftertouch_c, 0, 37, 0
1, 892508, Control_c, 0, 64, 97
1, 892526, Control_c, 0, 64, 83
1, 892546, Control_c, 0, 64, 64
1, 892565, Control_c, 0, 64, 44
1, 892582, Control_c, 0, 64, 0
1, 892639, Control_c, 0, 64, 18
1, 892657, Control_c, 0, 64, 42
1, 892676, Control_c, 0, 64, 63
1, 892695, Control_c, 0, 64, 83
1, 892714, Control_c, 0, 64, 103
1, 892732, Control_c, 0, 64, 126
1, 892835, Note_off_c, 0, 44, 39
1, 892975, Control_c, 0, 67, 44
1, 893156, Note_on_c, 0, 44, 40
1, 893209, Note_off_c, 0, 53, 31
1, 893209, Poly_aftertouch_c, 0, 53, 0
1, 893251, Note_off_c, 0, 61, 41
1, 893251, Poly_aftertouch_c, 0, 61, 0
1, 893308, Poly_aftertouch_c, 0, 58, 24
1, 893349, Note_off_c, 0, 58, 37
1, 893349, Poly_aftertouch_c, 0, 58, 0
1, 893349, Control_c, 0, 67, 48
1, 893406, Control_c, 0, 67, 52
1, 893481, Control_c, 0, 67, 56
1, 893555, Control_c, 0, 67, 60
1, 893611, Note_off_c, 0, 34, 39
1, 893752, Note_off_c, 0, 44, 27
1, 894039, Note_on_c, 0, 61, 42
1, 894040, Note_on_c, 0, 63, 44
1, 894060, Note_on_c, 0, 54, 33
1, 894098, Note_on_c, 0, 44, 27
1, 894102, Note_on_c, 0, 32, 37
1, 894116, Control_c, 0, 67, 64
1, 894154, Control_c, 0, 64, 118
1, 894156, Control_c, 0, 67, 74
1, 894172, Control_c, 0, 64, 113
1, 894173, Control_c, 0, 67, 83
1, 894190, Control_c, 0, 64, 105
1, 894191, Control_c, 0, 67, 91
1, 894210, Control_c, 0, 64, 93
1, 894212, Control_c, 0, 67, 96
1, 894229, Control_c, 0, 64, 77
1, 894232, Control_c, 0, 67, 100
1, 894247, Control_c, 0, 64, 60
1, 894249, Control_c, 0, 67, 105
1, 894266, Control_c, 0, 64, 47
1, 894267, Control_c, 0, 67, 111
1, 894285, Control_c, 0, 64, 33
1, 894287, Control_c, 0, 67, 116
1, 894305, Control_c, 0, 64, 21
1, 894306, Control_c, 0, 67, 120
1, 894341, Control_c, 0, 67, 125
1, 894359, Control_c, 0, 64, 32
1, 894379, Control_c, 0, 64, 42
1, 894396, Control_c, 0, 64, 51
1, 894416, Control_c, 0, 64, 59
1, 894434, Control_c, 0, 64, 68
1, 894453, Control_c, 0, 64, 76
1, 894471, Control_c, 0, 64, 84
1, 894490, Control_c, 0, 64, 93
1, 894510, Control_c, 0, 64, 102
1, 894527, Control_c, 0, 64, 109
1, 894546, Control_c, 0, 64, 116
1, 894566, Control_c, 0, 64, 122
1, 894571, Note_off_c, 0, 44, 36
1, 894584, Control_c, 0, 64, 127
1, 894600, Note_off_c, 0, 32, 33
1, 894974, Note_on_c, 0, 44, 32
1, 894987, Note_on_c, 0, 32, 30
1, 895287, Note_off_c, 0, 32, 29
1, 895344, Note_off_c, 0, 44, 34
1, 895757, Note_on_c, 0, 60, 33
1, 895794, Note_on_c, 0, 44, 21
1, 895815, Note_off_c, 0, 61, 34
1, 895815, Poly_aftertouch_c, 0, 61, 0
1, 895817, Note_on_c, 0, 32, 24
1, 895874, Control_c, 0, 64, 121
1, 895892, Control_c, 0, 64, 110
1, 895912, Control_c, 0, 64, 96
1, 895929, Control_c, 0, 64, 79
1, 895948, Control_c, 0, 64, 63
1, 895969, Control_c, 0, 64, 55
1, 895986, Control_c, 0, 64, 51
1, 896023, Control_c, 0, 64, 53
1, 896042, Control_c, 0, 64, 58
1, 896061, Control_c, 0, 64, 64
1, 896080, Control_c, 0, 64, 72
1, 896098, Control_c, 0, 64, 80
1, 896118, Control_c, 0, 64, 90
1, 896136, Control_c, 0, 64, 101
1, 896154, Control_c, 0, 64, 113
1, 896174, Note_off_c, 0, 32, 38
1, 896174, Control_c, 0, 64, 123
1, 896180, Note_off_c, 0, 44, 36
1, 896192, Control_c, 0, 64, 127
1, 896520, Note_on_c, 0, 44, 27
1, 896535, Note_on_c, 0, 32, 25
1, 896761, Note_off_c, 0, 54, 33
1, 896789, Note_off_c, 0, 63, 40
1, 896789, Poly_aftertouch_c, 0, 63, 0
1, 896793, Poly_aftertouch_c, 0, 60, 20
1, 896796, Note_off_c, 0, 60, 28
1, 896796, Poly_aftertouch_c, 0, 60, 0
1, 896832, Poly_aftertouch_c, 0, 32, 24
1, 896968, Note_off_c, 0, 44, 30
1, 897064, Note_off_c, 0, 32, 19
1, 897064, Poly_aftertouch_c, 0, 32, 0
1, 897371, Note_on_c, 0, 60, 36
1, 897372, Note_on_c, 0, 65, 36
1, 897395, Note_on_c, 0, 54, 28
1, 897428, Poly_aftertouch_c, 0, 44, 127
1, 897447, Note_on_c, 0, 32, 29
1, 897557, Control_c, 0, 64, 121
1, 897575, Control_c, 0, 64, 113
1, 897595, Control_c, 0, 64, 105
1, 897612, Control_c, 0, 64, 95
1, 897632, Control_c, 0, 64, 81
1, 897650, Control_c, 0, 64, 64
1, 897670, Control_c, 0, 64, 50
1, 897687, Control_c, 0, 64, 30
1, 897706, Control_c, 0, 64, 0
1, 897762, Control_c, 0, 64, 13
1, 897782, Control_c, 0, 64, 28
1, 897800, Control_c, 0, 64, 40
1, 897818, Control_c, 0, 64, 52
1, 897837, Control_c, 0, 64, 65
1, 897857, Control_c, 0, 64, 75
1, 897874, Control_c, 0, 64, 83
1, 897881, Note_off_c, 0, 32, 38
1, 897881, Poly_aftertouch_c, 0, 32, 0
1, 897893, Control_c, 0, 64, 93
1, 897912, Control_c, 0, 64, 103
1, 897931, Control_c, 0, 64, 115
1, 897949, Control_c, 0, 64, 127
1, 898312, Note_on_c, 0, 32, 23
1, 898547, Note_off_c, 0, 32, 38
1, 898547, Poly_aftertouch_c, 0, 32, 0
1, 898566, Note_off_c, 0, 60, 38
1, 898566, Poly_aftertouch_c, 0, 60, 0
1, 898692, Note_off_c, 0, 65, 36
1, 898764, Note_off_c, 0, 54, 36
1, 898808, Poly_aftertouch_c, 0, 44, 0
1, 899301, Note_on_c, 0, 61, 33
1, 899329, Note_on_c, 0, 53, 24
1, 899348, Note_on_c, 0, 44, 19
1, 899360, Note_on_c, 0, 37, 30
1, 899408, Control_c, 0, 64, 121
1, 899445, Control_c, 0, 64, 113
1, 899464, Control_c, 0, 64, 109
1, 899483, Control_c, 0, 64, 103
1, 899501, Control_c, 0, 64, 95
1, 899520, Control_c, 0, 64, 87
1, 899539, Control_c, 0, 64, 76
1, 899558, Control_c, 0, 64, 63
1, 899576, Control_c, 0, 64, 45
1, 899594, Control_c, 0, 64, 0
1, 899782, Control_c, 0, 64, 8
1, 899801, Control_c, 0, 64, 30
1, 899819, Control_c, 0, 64, 49
1, 899838, Control_c, 0, 64, 62
1, 899856, Control_c, 0, 64, 67
1, 899876, Control_c, 0, 64, 70
1, 899894, Control_c, 0, 64, 77
1, 899913, Control_c, 0, 64, 87
1, 899932, Control_c, 0, 64, 98
1, 899950, Control_c, 0, 64, 107
1, 899969, Control_c, 0, 64, 113
1, 899988, Control_c, 0, 64, 120
1, 900006, Control_c, 0, 64, 127
1, 900054, Note_off_c, 0, 44, 37
1, 900160, Poly_aftertouch_c, 0, 53, 24
1, 900312, Note_off_c, 0, 53, 23
1, 900312, Poly_aftertouch_c, 0, 53, 0
1, 900417, Note_on_c, 0, 44, 20
1, 900417, Control_c, 0, 67, 121
1, 900567, Control_c, 0, 67, 117
1, 900646, Note_off_c, 0, 61, 36
1, 900646, Poly_aftertouch_c, 0, 61, 0
1, 900661, Control_c, 0, 67, 112
1, 900755, Control_c, 0, 67, 108
1, 900851, Note_off_c, 0, 44, 35
1, 901147, Control_c, 0, 67, 104
1, 901206, Note_on_c, 0, 44, 32
1, 901278, Control_c, 0, 67, 100
1, 901446, Control_c, 0, 67, 96
1, 901556, Note_off_c, 0, 44, 40
1, 901905, Note_on_c, 0, 68, 30
1, 901939, Note_on_c, 0, 56, 24
1, 901943, Note_on_c, 0, 44, 23
1, 902132, Note_off_c, 0, 56, 37
1, 902218, Note_off_c, 0, 68, 49
1, 902218, Poly_aftertouch_c, 0, 68, 0
1, 902313, Note_off_c, 0, 44, 37
1, 902345, Note_off_c, 0, 37, 38
1, 902345, Poly_aftertouch_c, 0, 37, 0
1, 902618, Note_on_c, 0, 72, 40
1, 902641, Note_on_c, 0, 68, 37
1, 902659, Note_on_c, 0, 60, 25
1, 902660, Note_on_c, 0, 44, 25
1, 902667, Note_on_c, 0, 39, 30
1, 902737, Control_c, 0, 64, 123
1, 902756, Control_c, 0, 64, 113
1, 902774, Control_c, 0, 64, 102
1, 902794, Control_c, 0, 64, 87
1, 902811, Control_c, 0, 64, 74
1, 902830, Control_c, 0, 64, 70
1, 902848, Control_c, 0, 64, 73
1, 902865, Note_off_c, 0, 60, 64
1, 902865, Note_on_c, 0, 60, 16
1, 902866, Control_c, 0, 64, 79
1, 902887, Control_c, 0, 64, 88
1, 902905, Control_c, 0, 64, 100
1, 902923, Control_c, 0, 64, 116
1, 902941, Control_c, 0, 64, 127
1, 902959, Note_off_c, 0, 72, 58
1, 902975, Note_off_c, 0, 60, 51
1, 902975, Poly_aftertouch_c, 0, 60, 0
1, 903043, Note_off_c, 0, 68, 43
1, 903043, Poly_aftertouch_c, 0, 68, 0
1, 903051, Note_off_c, 0, 44, 41
1, 903100, Note_off_c, 0, 39, 40
1, 903320, Note_on_c, 0, 73, 49
1, 903330, Note_on_c, 0, 68, 41
1, 903349, Note_on_c, 0, 61, 29
1, 903354, Note_on_c, 0, 37, 34
1, 903362, Note_on_c, 0, 44, 29
1, 903391, Control_c, 0, 64, 120
1, 903409, Control_c, 0, 64, 116
1, 903447, Control_c, 0, 64, 109
1, 903466, Control_c, 0, 64, 105
1, 903485, Control_c, 0, 64, 98
1, 903503, Control_c, 0, 64, 87
1, 903521, Control_c, 0, 64, 72
1, 903540, Control_c, 0, 64, 56
1, 903559, Control_c, 0, 64, 42
1, 903578, Control_c, 0, 64, 38
1, 903596, Control_c, 0, 64, 45
1, 903615, Control_c, 0, 64, 56
1, 903634, Control_c, 0, 64, 67
1, 903653, Control_c, 0, 64, 75
1, 903671, Control_c, 0, 64, 83
1, 903691, Control_c, 0, 64, 94
1, 903709, Control_c, 0, 64, 108
1, 903726, Control_c, 0, 64, 121
1, 903745, Control_c, 0, 64, 127
1, 903794, Note_off_c, 0, 61, 43
1, 903794, Poly_aftertouch_c, 0, 61, 0
1, 903812, Note_off_c, 0, 73, 57
1, 903812, Poly_aftertouch_c, 0, 73, 0
1, 903831, Note_off_c, 0, 68, 57
1, 903831, Poly_aftertouch_c, 0, 68, 0
1, 903857, Note_off_c, 0, 37, 38
1, 903857, Poly_aftertouch_c, 0, 37, 0
1, 903859, Note_off_c, 0, 44, 38
1, 904110, Note_on_c, 0, 75, 52
1, 904141, Note_on_c, 0, 68, 37
1, 904153, Note_on_c, 0, 63, 30
1, 904163, Note_on_c, 0, 44, 34
1, 904178, Note_on_c, 0, 36, 31
1, 904269, Control_c, 0, 64, 122
1, 904289, Control_c, 0, 64, 117
1, 904307, Control_c, 0, 64, 112
1, 904326, Control_c, 0, 64, 106
1, 904344, Control_c, 0, 64, 98
1, 904364, Control_c, 0, 64, 88
1, 904383, Control_c, 0, 64, 74
1, 904400, Control_c, 0, 64, 60
1, 904419, Control_c, 0, 64, 45
1, 904438, Control_c, 0, 64, 21
1, 904456, Control_c, 0, 64, 0
1, 904513, Control_c, 0, 64, 26
1, 904531, Control_c, 0, 64, 42
1, 904550, Control_c, 0, 64, 56
1, 904569, Control_c, 0, 64, 67
1, 904587, Control_c, 0, 64, 75
1, 904605, Control_c, 0, 64, 83
1, 904625, Control_c, 0, 64, 92
1, 904644, Control_c, 0, 64, 101
1, 904662, Control_c, 0, 64, 109
1, 904681, Control_c, 0, 64, 118
1, 904700, Control_c, 0, 64, 126
1, 904718, Note_off_c, 0, 44, 30
1, 905040, Note_on_c, 0, 44, 29
1, 905377, Note_off_c, 0, 44, 38
1, 905749, Poly_aftertouch_c, 0, 63, 22
1, 905753, Note_on_c, 0, 44, 31
1, 905801, Note_off_c, 0, 63, 21
1, 905801, Poly_aftertouch_c, 0, 63, 0
1, 905970, Note_off_c, 0, 75, 35
1, 905993, Note_off_c, 0, 68, 40
1, 905993, Poly_aftertouch_c, 0, 68, 0
1, 906079, Note_off_c, 0, 44, 37
1, 906410, Note_on_c, 0, 75, 44
1, 906439, Note_on_c, 0, 44, 30
1, 906443, Note_on_c, 0, 63, 24
1, 906445, Note_on_c, 0, 68, 28
1, 906607, Note_off_c, 0, 68, 31
1, 906607, Poly_aftertouch_c, 0, 68, 0
1, 906656, Note_off_c, 0, 63, 43
1, 906656, Poly_aftertouch_c, 0, 63, 0
1, 906689, Note_off_c, 0, 75, 56
1, 906690, Note_off_c, 0, 36, 40
1, 906807, Note_off_c, 0, 44, 35
1, 907146, Note_on_c, 0, 77, 48
1, 907158, Note_on_c, 0, 74, 44
1, 907177, Note_on_c, 0, 65, 26
1, 907181, Note_on_c, 0, 68, 32
1, 907190, Note_on_c, 0, 35, 33
1, 907198, Note_on_c, 0, 44, 27
1, 907224, Control_c, 0, 64, 121
1, 907243, Control_c, 0, 64, 117
1, 907279, Control_c, 0, 64, 108
1, 907299, Control_c, 0, 64, 100
1, 907318, Control_c, 0, 64, 88
1, 907337, Control_c, 0, 64, 71
1, 907355, Control_c, 0, 64, 55
1, 907373, Control_c, 0, 64, 40
1, 907393, Control_c, 0, 64, 28
1, 907410, Control_c, 0, 64, 32
1, 907429, Control_c, 0, 64, 45
1, 907448, Control_c, 0, 64, 59
1, 907467, Control_c, 0, 64, 72
1, 907486, Control_c, 0, 64, 83
1, 907504, Control_c, 0, 64, 95
1, 907524, Control_c, 0, 64, 109
1, 907538, Poly_aftertouch_c, 0, 68, 24
1, 907541, Control_c, 0, 64, 121
1, 907558, Note_off_c, 0, 77, 47
1, 907563, Control_c, 0, 64, 127
1, 907564, Control_c, 0, 67, 100
1, 907577, Note_off_c, 0, 74, 36
1, 907577, Note_off_c, 0, 65, 39
1, 907580, Note_off_c, 0, 68, 40
1, 907580, Poly_aftertouch_c, 0, 68, 0
1, 907584, Note_off_c, 0, 44, 37
1, 907767, Control_c, 0, 67, 104
1, 907841, Control_c, 0, 67, 108
1, 907885, Note_on_c, 0, 77, 44
1, 907895, Note_on_c, 0, 74, 39
1, 907904, Note_on_c, 0, 68, 29
1, 907923, Note_on_c, 0, 44, 25
1, 907924, Note_on_c, 0, 65, 17
1, 907953, Control_c, 0, 67, 112
1, 908047, Control_c, 0, 67, 116
1, 908159, Note_off_c, 0, 68, 38
1, 908159, Poly_aftertouch_c, 0, 68, 0
1, 908197, Control_c, 0, 67, 120
1, 908200, Note_off_c, 0, 65, 41
1, 908223, Note_off_c, 0, 77, 51
1, 908225, Note_off_c, 0, 74, 31
1, 908237, Note_off_c, 0, 35, 35
1, 908274, Note_off_c, 0, 44, 38
1, 908695, Note_on_c, 0, 78, 44
1, 908701, Note_on_c, 0, 73, 35
1, 908722, Note_on_c, 0, 66, 29
1, 908739, Note_on_c, 0, 34, 34
1, 908747, Note_on_c, 0, 46, 22
1, 908775, Control_c, 0, 64, 123
1, 908813, Control_c, 0, 64, 117
1, 908832, Control_c, 0, 64, 112
1, 908852, Control_c, 0, 64, 106
1, 908869, Control_c, 0, 64, 99
1, 908887, Control_c, 0, 64, 90
1, 908906, Control_c, 0, 64, 77
1, 908926, Control_c, 0, 64, 60
1, 908944, Control_c, 0, 64, 37
1, 908962, Control_c, 0, 64, 0
1, 909037, Control_c, 0, 64, 23
1, 909057, Control_c, 0, 64, 44
1, 909075, Control_c, 0, 64, 61
1, 909093, Control_c, 0, 64, 76
1, 909114, Control_c, 0, 64, 89
1, 909117, Control_c, 0, 67, 116
1, 909132, Control_c, 0, 64, 103
1, 909150, Control_c, 0, 64, 119
1, 909169, Control_c, 0, 64, 127
1, 909180, Note_off_c, 0, 46, 38
1, 909224, Control_c, 0, 67, 112
1, 909303, Note_off_c, 0, 66, 41
1, 909318, Control_c, 0, 67, 107
1, 909326, Note_off_c, 0, 78, 32
1, 909393, Note_off_c, 0, 73, 38
1, 909393, Poly_aftertouch_c, 0, 73, 0
1, 909616, Control_c, 0, 67, 103
1, 909619, Note_on_c, 0, 46, 32
1, 909766, Control_c, 0, 67, 99
1, 909879, Control_c, 0, 67, 95
1, 909945, Note_off_c, 0, 46, 36
1, 910380, Note_on_c, 0, 46, 32
1, 910684, Control_c, 0, 67, 91
1, 910721, Control_c, 0, 67, 87
1, 910727, Note_off_c, 0, 46, 38
1, 910759, Control_c, 0, 67, 83
1, 910813, Control_c, 0, 67, 78
1, 910889, Control_c, 0, 67, 74
1, 911020, Control_c, 0, 67, 69
1, 911076, Control_c, 0, 67, 64
1, 911088, Note_on_c, 0, 66, 37
1, 911093, Note_on_c, 0, 54, 30
1, 911124, Note_on_c, 0, 46, 32
1, 911151, Control_c, 0, 67, 58
1, 911188, Control_c, 0, 67, 52
1, 911226, Control_c, 0, 67, 47
1, 911263, Control_c, 0, 67, 40
1, 911300, Control_c, 0, 67, 34
1, 911337, Control_c, 0, 67, 26
1, 911357, Control_c, 0, 67, 22
1, 911374, Control_c, 0, 67, 17
1, 911393, Control_c, 0, 67, 12
1, 911497, Note_off_c, 0, 54, 50
1, 911522, Note_off_c, 0, 66, 58
1, 911523, Control_c, 0, 67, 0
1, 911541, Note_off_c, 0, 46, 37
1, 911832, Note_on_c, 0, 70, 49
1, 911850, Note_on_c, 0, 58, 38
1, 911867, Note_on_c, 0, 46, 32
1, 912264, Note_off_c, 0, 58, 37
1, 912264, Poly_aftertouch_c, 0, 58, 0
1, 912281, Note_off_c, 0, 46, 38
1, 912356, Note_off_c, 0, 70, 31
1, 912356, Poly_aftertouch_c, 0, 70, 0
1, 912564, Note_on_c, 0, 71, 49
1, 912590, Note_on_c, 0, 59, 36
1, 912593, Note_on_c, 0, 46, 34
1, 912850, Note_off_c, 0, 59, 42
1, 912850, Poly_aftertouch_c, 0, 59, 0
1, 912944, Note_off_c, 0, 71, 57
1, 912944, Poly_aftertouch_c, 0, 71, 0
1, 912959, Note_off_c, 0, 34, 34
1, 912997, Note_off_c, 0, 46, 38
1, 913374, Note_on_c, 0, 73, 48
1, 913401, Note_on_c, 0, 66, 33
1, 913408, Note_on_c, 0, 61, 25
1, 913421, Note_on_c, 0, 46, 30
1, 913437, Note_on_c, 0, 34, 34
1, 913563, Control_c, 0, 64, 119
1, 913582, Control_c, 0, 64, 112
1, 913599, Control_c, 0, 64, 105
1, 913619, Control_c, 0, 64, 96
1, 913637, Control_c, 0, 64, 84
1, 913656, Control_c, 0, 64, 72
1, 913676, Control_c, 0, 64, 62
1, 913694, Control_c, 0, 64, 54
1, 913713, Control_c, 0, 64, 46
1, 913730, Control_c, 0, 64, 42
1, 913750, Control_c, 0, 64, 45
1, 913768, Control_c, 0, 64, 56
1, 913787, Control_c, 0, 64, 70
1, 913806, Control_c, 0, 64, 85
1, 913824, Control_c, 0, 64, 106
1, 913844, Control_c, 0, 64, 127
1, 913879, Note_off_c, 0, 46, 38
1, 914203, Note_on_c, 0, 46, 29
1, 914602, Note_off_c, 0, 46, 36
1, 914831, Note_off_c, 0, 61, 31
1, 914831, Poly_aftertouch_c, 0, 61, 0
1, 914909, Note_on_c, 0, 46, 38
1, 915013, Note_off_c, 0, 66, 35
1, 915061, Poly_aftertouch_c, 0, 73, 22
1, 915086, Note_off_c, 0, 73, 21
1, 915086, Poly_aftertouch_c, 0, 73, 0
1, 915303, Note_off_c, 0, 46, 40
1, 915320, Control_c, 0, 67, 8
1, 915376, Control_c, 0, 67, 13
1, 915433, Control_c, 0, 67, 18
1, 915469, Control_c, 0, 67, 22
1, 915527, Control_c, 0, 67, 26
1, 915613, Note_on_c, 0, 73, 48
1, 915641, Note_on_c, 0, 66, 37
1, 915644, Note_on_c, 0, 61, 32
1, 915649, Note_on_c, 0, 46, 32
1, 915675, Control_c, 0, 67, 30
1, 915751, Control_c, 0, 67, 34
1, 915825, Control_c, 0, 67, 39
1, 915841, Note_off_c, 0, 61, 38
1, 915841, Poly_aftertouch_c, 0, 61, 0
1, 915868, Note_off_c, 0, 66, 30
1, 915896, Note_off_c, 0, 73, 61
1, 915896, Poly_aftertouch_c, 0, 73, 0
1, 915935, Note_off_c, 0, 34, 34
1, 915960, Note_off_c, 0, 46, 38
1, 916375, Note_on_c, 0, 73, 48
1, 916377, Note_on_c, 0, 75, 49
1, 916393, Note_on_c, 0, 63, 32
1, 916404, Note_on_c, 0, 34, 35
1, 916404, Control_c, 0, 67, 44
1, 916410, Note_on_c, 0, 66, 31
1, 916414, Note_on_c, 0, 46, 28
1, 916462, Control_c, 0, 64, 121
1, 916463, Control_c, 0, 67, 48
1, 916479, Control_c, 0, 64, 117
1, 916499, Control_c, 0, 64, 113
1, 916517, Control_c, 0, 64, 106
1, 916536, Control_c, 0, 64, 92
1, 916556, Control_c, 0, 64, 74
1, 916573, Control_c, 0, 64, 54
1, 916592, Control_c, 0, 64, 30
1, 916610, Control_c, 0, 64, 8
1, 916630, Control_c, 0, 64, 14
1, 916648, Control_c, 0, 64, 30
1, 916666, Control_c, 0, 64, 48
1, 916685, Control_c, 0, 64, 66
1, 916704, Control_c, 0, 64, 83
1, 916724, Control_c, 0, 64, 102
1, 916741, Control_c, 0, 64, 127
1, 916814, Note_off_c, 0, 66, 42
1, 916818, Note_off_c, 0, 73, 52
1, 916818, Poly_aftertouch_c, 0, 73, 0
1, 916821, Note_off_c, 0, 75, 55
1, 916826, Note_off_c, 0, 63, 40
1, 916826, Poly_aftertouch_c, 0, 63, 0
1, 916842, Note_off_c, 0, 46, 39
1, 917126, Note_on_c, 0, 75, 53
1, 917146, Note_on_c, 0, 73, 46
1, 917159, Note_on_c, 0, 46, 35
1, 917171, Control_c, 0, 67, 52
1, 917179, Note_on_c, 0, 63, 24
1, 917190, Note_on_c, 0, 66, 15
1, 917273, Note_off_c, 0, 66, 45
1, 917337, Note_off_c, 0, 63, 29
1, 917337, Poly_aftertouch_c, 0, 63, 0
1, 917446, Note_off_c, 0, 75, 57
1, 917479, Note_off_c, 0, 73, 37
1, 917479, Poly_aftertouch_c, 0, 73, 0
1, 917518, Note_off_c, 0, 46, 23
1, 917615, Note_off_c, 0, 34, 20
1, 917968, Note_on_c, 0, 77, 56
1, 917999, Note_on_c, 0, 72, 41
1, 918008, Note_on_c, 0, 65, 34
1, 918037, Note_on_c, 0, 33, 35
1, 918053, Note_on_c, 0, 45, 31
1, 918087, Control_c, 0, 64, 121
1, 918106, Control_c, 0, 64, 115
1, 918125, Control_c, 0, 64, 109
1, 918144, Control_c, 0, 64, 102
1, 918163, Control_c, 0, 64, 93
1, 918181, Control_c, 0, 64, 82
1, 918201, Control_c, 0, 64, 68
1, 918219, Control_c, 0, 64, 51
1, 918237, Control_c, 0, 64, 0
1, 918350, Control_c, 0, 64, 21
1, 918368, Control_c, 0, 64, 43
1, 918387, Control_c, 0, 64, 63
1, 918406, Control_c, 0, 64, 79
1, 918424, Control_c, 0, 64, 96
1, 918443, Control_c, 0, 64, 119
1, 918461, Control_c, 0, 64, 127
1, 918541, Note_off_c, 0, 65, 40
1, 918553, Note_off_c, 0, 45, 39
1, 918747, Note_off_c, 0, 72, 31
1, 918921, Note_on_c, 0, 45, 28
1, 919004, Control_c, 0, 67, 48
1, 919267, Note_off_c, 0, 45, 38
1, 919416, Control_c, 0, 67, 44
1, 919471, Control_c, 0, 67, 40
1, 919546, Control_c, 0, 67, 36
1, 919594, Poly_aftertouch_c, 0, 77, 24
1, 919622, Control_c, 0, 67, 32
1, 919684, Note_on_c, 0, 45, 31
1, 919695, Control_c, 0, 67, 28
1, 919753, Control_c, 0, 67, 24
1, 919809, Control_c, 0, 67, 19
1, 919845, Control_c, 0, 67, 15
1, 919857, Poly_aftertouch_c, 0, 77, 22
1, 919882, Control_c, 0, 67, 11
1, 919924, Note_off_c, 0, 77, 19
1, 919924, Poly_aftertouch_c, 0, 77, 0
1, 920069, Control_c, 0, 67, 0
1, 920119, Note_off_c, 0, 45, 33
1, 920406, Note_on_c, 0, 72, 54
1, 920457, Note_on_c, 0, 45, 31
1, 920804, Note_off_c, 0, 72, 53
1, 920824, Note_off_c, 0, 45, 35
1, 921155, Note_on_c, 0, 77, 60
1, 921187, Note_on_c, 0, 69, 45
1, 921216, Note_on_c, 0, 45, 35
1, 921504, Note_off_c, 0, 69, 35
1, 921581, Note_off_c, 0, 45, 34
1, 921611, Note_off_c, 0, 77, 54
1, 921611, Poly_aftertouch_c, 0, 77, 0
1, 921862, Note_on_c, 0, 79, 70
1, 921899, Note_on_c, 0, 72, 47
1, 921904, Note_on_c, 0, 45, 38
1, 922038, Note_off_c, 0, 72, 49
1, 922265, Note_off_c, 0, 79, 50
1, 922265, Poly_aftertouch_c, 0, 79, 0
1, 922376, Note_off_c, 0, 45, 36
1, 922396, Note_off_c, 0, 33, 29
1, 922629, Note_on_c, 0, 81, 69
1, 922645, Note_on_c, 0, 77, 54
1, 922695, Note_on_c, 0, 45, 36
1, 922699, Note_on_c, 0, 33, 36
1, 922706, Control_c, 0, 64, 117
1, 922725, Control_c, 0, 64, 107
1, 922743, Control_c, 0, 64, 91
1, 922764, Control_c, 0, 64, 71
1, 922781, Control_c, 0, 64, 49
1, 922799, Control_c, 0, 64, 0
1, 922855, Control_c, 0, 64, 25
1, 922875, Control_c, 0, 64, 48
1, 922893, Control_c, 0, 64, 72
1, 922913, Control_c, 0, 64, 96
1, 922931, Control_c, 0, 64, 127
1, 923107, Note_off_c, 0, 45, 38
1, 923380, Note_off_c, 0, 77, 45
1, 923380, Poly_aftertouch_c, 0, 77, 0
1, 923384, Note_off_c, 0, 81, 37
1, 923491, Note_on_c, 0, 45, 31
1, 923878, Note_off_c, 0, 45, 38
1, 924179, Note_on_c, 0, 45, 42
1, 924590, Note_off_c, 0, 45, 37
1, 924881, Note_on_c, 0, 69, 56
1, 924912, Note_on_c, 0, 65, 39
1, 924920, Note_on_c, 0, 45, 38
1, 925315, Note_off_c, 0, 69, 50
1, 925334, Note_off_c, 0, 65, 34
1, 925356, Note_off_c, 0, 45, 52
1, 925581, Note_on_c, 0, 72, 66
1, 925603, Note_on_c, 0, 69, 53
1, 925633, Note_on_c, 0, 45, 47
1, 925882, Note_off_c, 0, 69, 48
1, 926001, Note_off_c, 0, 72, 51
1, 926104, Note_off_c, 0, 45, 37
1, 926275, Note_on_c, 0, 77, 78
1, 926292, Note_on_c, 0, 72, 60
1, 926319, Note_on_c, 0, 45, 56
1, 926405, Note_off_c, 0, 72, 59
1, 926520, Note_off_c, 0, 77, 61
1, 926520, Poly_aftertouch_c, 0, 77, 0
1, 926746, Note_on_c, 0, 72, 53
1, 926790, Note_off_c, 0, 33, 40
1, 926845, Note_off_c, 0, 45, 31
1, 926849, Note_on_c, 0, 77, 67
1, 927097, Note_on_c, 0, 84, 81
1, 927204, Note_on_c, 0, 44, 50
1, 927210, Note_on_c, 0, 32, 54
1, 927212, Control_c, 0, 64, 108
1, 927232, Control_c, 0, 64, 92
1, 927250, Control_c, 0, 64, 74
1, 927255, Poly_aftertouch_c, 0, 38, 0
1, 927269, Control_c, 0, 64, 54
1, 927287, Control_c, 0, 64, 0
1, 927400, Control_c, 0, 64, 43
1, 927419, Control_c, 0, 64, 70
1, 927437, Control_c, 0, 64, 97
1, 927456, Control_c, 0, 64, 127
1, 927608, Note_off_c, 0, 44, 55
1, 927926, Note_on_c, 0, 44, 57
1, 928331, Note_off_c, 0, 44, 51
1, 928378, Note_off_c, 0, 84, 38
1, 928427, Note_off_c, 0, 72, 33
1, 928492, Note_off_c, 0, 77, 35
1, 928492, Poly_aftertouch_c, 0, 77, 0
1, 928627, Note_on_c, 0, 44, 56
1, 929065, Note_off_c, 0, 44, 37
1, 929252, Note_on_c, 0, 68, 74
1, 929263, Note_on_c, 0, 65, 61
1, 929306, Note_on_c, 0, 44, 49
1, 929757, Note_off_c, 0, 65, 54
1, 929794, Note_off_c, 0, 44, 37
1, 929871, Note_off_c, 0, 68, 36
1, 929871, Poly_aftertouch_c, 0, 68, 0
1, 929979, Note_on_c, 0, 72, 80
1, 929992, Note_on_c, 0, 68, 73
1, 930018, Note_on_c, 0, 44, 53
1, 930238, Note_off_c, 0, 68, 51
1, 930238, Poly_aftertouch_c, 0, 68, 0
1, 930306, Note_off_c, 0, 72, 53
1, 930436, Note_on_c, 0, 77, 90
1, 930450, Note_on_c, 0, 72, 76
1, 930477, Note_off_c, 0, 44, 57
1, 930549, Note_off_c, 0, 72, 61
1, 930620, Note_off_c, 0, 77, 65
1, 930620, Poly_aftertouch_c, 0, 77, 0
1, 930664, Note_on_c, 0, 44, 76
1, 930761, Poly_aftertouch_c, 0, 38, 127
1, 930861, Note_on_c, 0, 80, 96
1, 930869, Note_on_c, 0, 77, 85
1, 931026, Poly_aftertouch_c, 0, 40, 0
1, 931059, Note_off_c, 0, 77, 59
1, 931059, Poly_aftertouch_c, 0, 77, 0
1, 931120, Poly_aftertouch_c, 0, 38, 0
1, 931183, Note_off_c, 0, 80, 58
1, 931183, Poly_aftertouch_c, 0, 80, 0
1, 931206, Note_off_c, 0, 44, 38
1, 931208, Note_off_c, 0, 32, 57
1, 931208, Poly_aftertouch_c, 0, 32, 0
1, 931449, Note_on_c, 0, 84, 81
1, 931453, Note_on_c, 0, 80, 86
1, 931454, Note_on_c, 0, 87, 95
1, 931455, Note_on_c, 0, 75, 97
1, 931491, Note_on_c, 0, 42, 92
1, 931493, Note_on_c, 0, 30, 88
1, 931532, Control_c, 0, 64, 118
1, 931551, Control_c, 0, 64, 73
1, 931570, Control_c, 0, 64, 0
1, 931701, Control_c, 0, 64, 40
1, 931720, Control_c, 0, 64, 71
1, 931738, Control_c, 0, 64, 94
1, 931756, Control_c, 0, 64, 127
1, 932056, Note_off_c, 0, 42, 57
1, 932307, Note_on_c, 0, 42, 86
1, 932707, Note_off_c, 0, 42, 58
1, 932909, Note_off_c, 0, 87, 56
1, 932993, Note_off_c, 0, 84, 51
1, 933000, Note_on_c, 0, 42, 96
1, 933092, Note_off_c, 0, 75, 53
1, 933128, Note_off_c, 0, 80, 53
1, 933128, Poly_aftertouch_c, 0, 80, 0
1, 933363, Note_off_c, 0, 30, 50
1, 933516, Note_off_c, 0, 42, 53
1, 933585, Poly_aftertouch_c, 0, 37, 0
1, 933596, Poly_aftertouch_c, 0, 36, 0
1, 933819, Note_on_c, 0, 80, 96
1, 933820, Note_on_c, 0, 75, 89
1, 933823, Note_on_c, 0, 72, 90
1, 933823, Note_on_c, 0, 68, 98
1, 933848, Note_on_c, 0, 42, 102
1, 933851, Note_on_c, 0, 30, 91
1, 933926, Control_c, 0, 64, 85
1, 933944, Control_c, 0, 64, 43
1, 933963, Control_c, 0, 64, 41
1, 933981, Control_c, 0, 64, 65
1, 933985, Poly_aftertouch_c, 0, 36, 0
1, 934000, Control_c, 0, 64, 87
1, 934019, Control_c, 0, 64, 117
1, 934037, Control_c, 0, 64, 127
1, 934266, Note_off_c, 0, 80, 57
1, 934266, Poly_aftertouch_c, 0, 80, 0
1, 934273, Note_off_c, 0, 68, 58
1, 934273, Poly_aftertouch_c, 0, 68, 0
1, 934318, Note_off_c, 0, 75, 56
1, 934341, Note_off_c, 0, 72, 49
1, 934359, Note_off_c, 0, 30, 52
1, 934401, Note_off_c, 0, 42, 55
1, 934535, Note_on_c, 0, 80, 96
1, 934537, Note_on_c, 0, 68, 101
1, 934538, Note_on_c, 0, 75, 90
1, 934539, Note_on_c, 0, 72, 73
1, 934557, Note_on_c, 0, 42, 105
1, 934564, Note_on_c, 0, 30, 96
1, 934566, Control_c, 0, 64, 111
1, 934580, Control_c, 0, 64, 58
1, 934598, Control_c, 0, 64, 18
1, 934617, Control_c, 0, 64, 50
1, 934636, Control_c, 0, 64, 72
1, 934642, Note_off_c, 0, 68, 65
1, 934642, Poly_aftertouch_c, 0, 68, 0
1, 934655, Control_c, 0, 64, 106
1, 934668, Note_off_c, 0, 72, 61
1, 934673, Control_c, 0, 64, 127
1, 934706, Poly_aftertouch_c, 0, 36, 127
1, 934713, Note_off_c, 0, 75, 62
1, 934718, Note_off_c, 0, 80, 64
1, 934718, Poly_aftertouch_c, 0, 80, 0
1, 934945, Note_off_c, 0, 42, 54
1, 934953, Note_off_c, 0, 30, 32
1, 934985, Poly_aftertouch_c, 0, 37, 0
1, 934994, Poly_aftertouch_c, 0, 36, 0
1, 935053, Note_on_c, 0, 73, 98
1, 935054, Note_on_c, 0, 85, 98
1, 935060, Note_on_c, 0, 80, 98
1, 935067, Note_on_c, 0, 41, 104
1, 935075, Note_on_c, 0, 29, 95
1, 935085, Control_c, 0, 64, 76
1, 935102, Note_on_c, 0, 36, 45
1, 935103, Control_c, 0, 64, 16
1, 935123, Control_c, 0, 64, 28
1, 935125, Note_on_c, 0, 32, 33
1, 935140, Control_c, 0, 64, 69
1, 935162, Control_c, 0, 64, 115
1, 935180, Control_c, 0, 64, 127
1, 935181, Note_off_c, 0, 32, 32
1, 935181, Poly_aftertouch_c, 0, 32, 0
1, 935183, Poly_aftertouch_c, 0, 37, 0
1, 935210, Note_off_c, 0, 73, 61
1, 935210, Poly_aftertouch_c, 0, 73, 0
1, 935251, Note_off_c, 0, 85, 64
1, 935285, Note_off_c, 0, 80, 53
1, 935285, Poly_aftertouch_c, 0, 80, 0
1, 935296, Note_off_c, 0, 41, 55
1, 935296, Poly_aftertouch_c, 0, 41, 0
1, 935316, Note_off_c, 0, 29, 59
1, 935357, Poly_aftertouch_c, 0, 36, 24
1, 935392, Note_off_c, 0, 36, 41
1, 935392, Poly_aftertouch_c, 0, 36, 0
1, 935393, Poly_aftertouch_c, 0, 36, 0
1, 935463, Note_on_c, 0, 75, 105
1, 935464, Note_on_c, 0, 87, 98
1, 935466, Note_on_c, 0, 84, 86
1, 935467, Note_on_c, 0, 80, 91
1, 935481, Control_c, 0, 64, 84
1, 935489, Note_on_c, 0, 39, 110
1, 935492, Note_on_c, 0, 27, 101
1, 935500, Control_c, 0, 64, 0
1, 935533, Control_c, 0, 64, 16
1, 935552, Control_c, 0, 64, 77
1, 935571, Control_c, 0, 64, 127
1, 935627, Poly_aftertouch_c, 0, 32, 0
1, 935639, Note_off_c, 0, 75, 63
1, 935680, Note_off_c, 0, 84, 59
1, 935686, Note_off_c, 0, 80, 64
1, 935686, Poly_aftertouch_c, 0, 80, 0
1, 935717, Note_off_c, 0, 87, 62
1, 935756, Note_off_c, 0, 39, 54
1, 935789, Note_off_c, 0, 27, 50
1, 936002, Control_c, 0, 64, 86
1, 936017, Poly_aftertouch_c, 0, 31, 0
1, 936020, Control_c, 0, 64, 0
1, 936032, Note_on_c, 0, 78, 105
1, 936034, Note_on_c, 0, 90, 100
1, 936035, Note_on_c, 0, 82, 96
1, 936037, Note_on_c, 0, 85, 87
1, 936048, Note_on_c, 0, 37, 110
1, 936054, Note_on_c, 0, 25, 101
1, 936094, Control_c, 0, 64, 60
1, 936113, Control_c, 0, 64, 127
1, 936135, Note_on_c, 0, 87, 17
1, 936136, Note_off_c, 0, 25, 65
1, 936155, Note_off_c, 0, 37, 61
1, 936203, Poly_aftertouch_c, 0, 28, 0
1, 936218, Note_off_c, 0, 87, 34
1, 936661, Note_on_c, 0, 61, 89
1, 936667, Note_on_c, 0, 49, 78
1, 936888, Note_off_c, 0, 61, 59
1, 936888, Poly_aftertouch_c, 0, 61, 0
1, 936905, Note_off_c, 0, 49, 55
1, 936905, Poly_aftertouch_c, 0, 49, 0
1, 937047, Note_on_c, 0, 61, 87
1, 937048, Note_on_c, 0, 49, 83
1, 937260, Note_off_c, 0, 49, 54
1, 937260, Poly_aftertouch_c, 0, 49, 0
1, 937265, Note_off_c, 0, 61, 55
1, 937265, Poly_aftertouch_c, 0, 61, 0
1, 937378, Note_on_c, 0, 61, 99
1, 937383, Note_on_c, 0, 49, 92
1, 937415, Note_off_c, 0, 85, 59
1, 937439, Note_off_c, 0, 82, 60
1, 937439, Poly_aftertouch_c, 0, 82, 0
1, 937560, Note_off_c, 0, 49, 53
1, 937560, Poly_aftertouch_c, 0, 49, 0
1, 937568, Note_off_c, 0, 61, 59
1, 937568, Poly_aftertouch_c, 0, 61, 0
1, 937637, Note_off_c, 0, 78, 58
1, 937671, Note_on_c, 0, 61, 91
1, 937674, Note_on_c, 0, 49, 80
1, 937718, Note_off_c, 0, 90, 61
1, 937777, Note_on_c, 0, 89, 86
1, 937784, Note_on_c, 0, 77, 88
1, 937786, Note_on_c, 0, 80, 83
1, 937786, Note_on_c, 0, 85, 79
1, 937839, Note_off_c, 0, 61, 54
1, 937839, Poly_aftertouch_c, 0, 61, 0
1, 937860, Note_off_c, 0, 49, 54
1, 937860, Poly_aftertouch_c, 0, 49, 0
1, 937926, Note_off_c, 0, 89, 58
1, 937950, Note_on_c, 0, 61, 91
1, 937958, Note_off_c, 0, 77, 62
1, 937958, Poly_aftertouch_c, 0, 77, 0
1, 937961, Note_on_c, 0, 49, 77
1, 937964, Note_off_c, 0, 80, 64
1, 937964, Poly_aftertouch_c, 0, 80, 0
1, 937991, Note_off_c, 0, 85, 63
1, 938143, Note_off_c, 0, 61, 60
1, 938143, Poly_aftertouch_c, 0, 61, 0
1, 938147, Note_off_c, 0, 49, 55
1, 938147, Poly_aftertouch_c, 0, 49, 0
1, 938188, Note_on_c, 0, 85, 89
1, 938189, Note_on_c, 0, 87, 97
1, 938191, Note_on_c, 0, 75, 97
1, 938196, Note_on_c, 0, 78, 88
1, 938242, Note_on_c, 0, 61, 81
1, 938244, Note_on_c, 0, 49, 77
1, 938339, Note_off_c, 0, 61, 57
1, 938339, Poly_aftertouch_c, 0, 61, 0
1, 938356, Note_off_c, 0, 49, 54
1, 938356, Poly_aftertouch_c, 0, 49, 0
1, 938366, Note_off_c, 0, 78, 61
1, 938392, Note_off_c, 0, 75, 63
1, 938421, Note_off_c, 0, 87, 62
1, 938434, Note_on_c, 0, 49, 70
1, 938439, Note_on_c, 0, 61, 80
1, 938497, Note_off_c, 0, 85, 54
1, 938549, Note_on_c, 0, 89, 94
1, 938551, Note_on_c, 0, 85, 66
1, 938559, Note_on_c, 0, 80, 91
1, 938560, Note_on_c, 0, 77, 84
1, 938561, Note_off_c, 0, 61, 58
1, 938561, Poly_aftertouch_c, 0, 61, 0
1, 938575, Note_on_c, 0, 76, 60
1, 938576, Note_off_c, 0, 76, 127
1, 938589, Note_off_c, 0, 49, 55
1, 938589, Poly_aftertouch_c, 0, 49, 0
1, 938594, Note_on_c, 0, 88, 41
1, 938606, Note_on_c, 0, 84, 42
1, 938636, Note_off_c, 0, 88, 54
1, 938705, Note_on_c, 0, 61, 88
1, 938712, Note_on_c, 0, 49, 84
1, 938714, Note_off_c, 0, 77, 59
1, 938714, Poly_aftertouch_c, 0, 77, 0
1, 938723, Note_off_c, 0, 89, 63
1, 938738, Note_off_c, 0, 84, 58
1, 938743, Note_off_c, 0, 85, 62
1, 938800, Note_off_c, 0, 80, 62
1, 938800, Poly_aftertouch_c, 0, 80, 0
1, 938884, Note_off_c, 0, 61, 57
1, 938884, Poly_aftertouch_c, 0, 61, 0
1, 938906, Note_off_c, 0, 49, 55
1, 938906, Poly_aftertouch_c, 0, 49, 0
1, 939027, Note_on_c, 0, 85, 93
1, 939030, Note_on_c, 0, 73, 97
1, 939031, Note_on_c, 0, 82, 95
1, 939049, Note_on_c, 0, 61, 88
1, 939051, Note_on_c, 0, 54, 83
1, 939051, Control_c, 0, 64, 91
1, 939053, Note_on_c, 0, 49, 83
1, 939068, Control_c, 0, 64, 10
1, 939086, Control_c, 0, 64, 0
1, 939143, Control_c, 0, 64, 11
1, 939161, Control_c, 0, 64, 73
1, 939179, Control_c, 0, 64, 120
1, 939198, Control_c, 0, 64, 127
1, 939268, Note_off_c, 0, 61, 54
1, 939268, Poly_aftertouch_c, 0, 61, 0
1, 939292, Note_off_c, 0, 49, 57
1, 939292, Poly_aftertouch_c, 0, 49, 0
1, 939440, Note_on_c, 0, 61, 62
1, 939450, Note_on_c, 0, 49, 62
1, 939600, Note_off_c, 0, 61, 54
1, 939600, Poly_aftertouch_c, 0, 61, 0
1, 939613, Note_off_c, 0, 49, 57
1, 939613, Poly_aftertouch_c, 0, 49, 0
1, 939733, Note_on_c, 0, 61, 69
1, 939734, Note_on_c, 0, 49, 69
1, 939854, Note_off_c, 0, 61, 52
1, 939854, Poly_aftertouch_c, 0, 61, 0
1, 939869, Note_off_c, 0, 49, 56
1, 939869, Poly_aftertouch_c, 0, 49, 0
1, 939991, Note_on_c, 0, 61, 78
1, 940001, Note_on_c, 0, 49, 75
1, 940087, Note_off_c, 0, 61, 57
1, 940087, Poly_aftertouch_c, 0, 61, 0
1, 940110, Note_off_c, 0, 49, 53
1, 940110, Poly_aftertouch_c, 0, 49, 0
1, 940219, Note_on_c, 0, 61, 72
1, 940242, Note_on_c, 0, 49, 64
1, 940287, Note_off_c, 0, 61, 60
1, 940287, Poly_aftertouch_c, 0, 61, 0
1, 940308, Note_off_c, 0, 54, 59
1, 940316, Note_on_c, 0, 80, 88
1, 940342, Note_on_c, 0, 53, 78
1, 940401, Note_off_c, 0, 49, 51
1, 940401, Poly_aftertouch_c, 0, 49, 0
1, 940446, Note_off_c, 0, 82, 51
1, 940446, Poly_aftertouch_c, 0, 82, 0
1, 940504, Note_on_c, 0, 61, 70
1, 940528, Note_on_c, 0, 49, 67
1, 940577, Note_off_c, 0, 61, 55
1, 940577, Poly_aftertouch_c, 0, 61, 0
1, 940626, Note_off_c, 0, 49, 59
1, 940626, Poly_aftertouch_c, 0, 49, 0
1, 940732, Control_c, 0, 64, 117
1, 940736, Note_on_c, 0, 78, 90
1, 940751, Control_c, 0, 64, 69
1, 940756, Note_on_c, 0, 51, 78
1, 940757, Note_on_c, 0, 61, 85
1, 940759, Note_on_c, 0, 49, 82
1, 940770, Control_c, 0, 64, 19
1, 940788, Control_c, 0, 64, 40
1, 940794, Note_off_c, 0, 53, 53
1, 940794, Poly_aftertouch_c, 0, 53, 0
1, 940806, Control_c, 0, 64, 68
1, 940826, Control_c, 0, 64, 91
1, 940827, Note_off_c, 0, 80, 59
1, 940827, Poly_aftertouch_c, 0, 80, 0
1, 940844, Control_c, 0, 64, 127
1, 940871, Note_off_c, 0, 61, 60
1, 940871, Poly_aftertouch_c, 0, 61, 0
1, 940899, Note_off_c, 0, 49, 60
1, 940899, Poly_aftertouch_c, 0, 49, 0
1, 940900, Note_off_c, 0, 85, 54
1, 940938, Note_off_c, 0, 73, 53
1, 940938, Poly_aftertouch_c, 0, 73, 0
1, 940990, Note_on_c, 0, 61, 75
1, 940996, Note_off_c, 0, 78, 63
1, 941029, Note_on_c, 0, 49, 39
1, 941066, Note_off_c, 0, 49, 55
1, 941066, Poly_aftertouch_c, 0, 49, 0
1, 941067, Note_off_c, 0, 61, 62
1, 941067, Poly_aftertouch_c, 0, 61, 0
1, 941084, Note_on_c, 0, 73, 101
1, 941087, Note_on_c, 0, 85, 100
1, 941088, Note_on_c, 0, 80, 94
1, 941091, Note_on_c, 0, 53, 75
1, 941136, Note_off_c, 0, 51, 59
1, 941136, Poly_aftertouch_c, 0, 51, 0
1, 941237, Note_off_c, 0, 73, 63
1, 941237, Poly_aftertouch_c, 0, 73, 0
1, 941256, Note_on_c, 0, 61, 93
1, 941268, Note_on_c, 0, 49, 78
1, 941294, Note_off_c, 0, 80, 60
1, 941294, Poly_aftertouch_c, 0, 80, 0
1, 941342, Note_off_c, 0, 85, 61
1, 941352, Note_off_c, 0, 61, 60
1, 941352, Poly_aftertouch_c, 0, 61, 0
1, 941457, Note_off_c, 0, 53, 54
1, 941457, Poly_aftertouch_c, 0, 53, 0
1, 941461, Note_off_c, 0, 49, 52
1, 941461, Poly_aftertouch_c, 0, 49, 0
1, 941685, Control_c, 0, 64, 120
1, 941689, Note_on_c, 0, 89, 86
1, 941690, Note_on_c, 0, 92, 100
1, 941692, Note_on_c, 0, 80, 104
1, 941694, Note_on_c, 0, 83, 91
1, 941709, Control_c, 0, 64, 59
1, 941722, Control_c, 0, 64, 0
1, 941728, Note_on_c, 0, 49, 97
1, 941735, Note_on_c, 0, 37, 95
1, 941779, Control_c, 0, 64, 44
1, 941796, Note_on_c, 0, 36, 28
1, 941796, Control_c, 0, 64, 100
1, 941797, Note_off_c, 0, 36, 127
1, 941816, Control_c, 0, 64, 127
1, 941852, Poly_aftertouch_c, 0, 36, 0
1, 941861, Note_off_c, 0, 37, 58
1, 941900, Note_off_c, 0, 49, 59
1, 941900, Poly_aftertouch_c, 0, 49, 0
1, 942237, Note_on_c, 0, 61, 68
1, 942251, Note_on_c, 0, 49, 59
1, 942364, Note_off_c, 0, 49, 53
1, 942364, Poly_aftertouch_c, 0, 49, 0
1, 942367, Note_off_c, 0, 61, 54
1, 942367, Poly_aftertouch_c, 0, 61, 0
1, 942553, Note_on_c, 0, 49, 61
1, 942554, Note_on_c, 0, 61, 62
1, 942691, Note_off_c, 0, 49, 50
1, 942691, Poly_aftertouch_c, 0, 49, 0
1, 942696, Note_off_c, 0, 61, 51
1, 942696, Poly_aftertouch_c, 0, 61, 0
1, 942841, Note_on_c, 0, 61, 78
1, 942846, Note_on_c, 0, 49, 75
1, 942885, Note_off_c, 0, 83, 57
1, 942885, Poly_aftertouch_c, 0, 83, 0
1, 942912, Note_off_c, 0, 92, 60
1, 942956, Note_off_c, 0, 89, 54
1, 942979, Note_off_c, 0, 49, 58
1, 942979, Poly_aftertouch_c, 0, 49, 0
1, 942983, Note_off_c, 0, 61, 58
1, 942983, Poly_aftertouch_c, 0, 61, 0
1, 943003, Note_off_c, 0, 80, 55
1, 943003, Poly_aftertouch_c, 0, 80, 0
1, 943088, Note_on_c, 0, 61, 78
1, 943099, Note_on_c, 0, 49, 70
1, 943178, Note_on_c, 0, 90, 94
1, 943183, Note_on_c, 0, 78, 95
1, 943184, Note_on_c, 0, 82, 80
1, 943185, Note_on_c, 0, 85, 82
1, 943200, Note_off_c, 0, 49, 58
1, 943200, Poly_aftertouch_c, 0, 49, 0
1, 943205, Note_off_c, 0, 61, 57
1, 943205, Poly_aftertouch_c, 0, 61, 0
1, 943310, Note_off_c, 0, 82, 63
1, 943310, Poly_aftertouch_c, 0, 82, 0
1, 943315, Note_off_c, 0, 85, 62
1, 943326, Note_off_c, 0, 90, 64
1, 943327, Note_on_c, 0, 61, 82
1, 943334, Note_on_c, 0, 49, 77
1, 943454, Note_off_c, 0, 78, 61
1, 943507, Note_off_c, 0, 61, 60
1, 943507, Poly_aftertouch_c, 0, 61, 0
1, 943518, Note_off_c, 0, 49, 58
1, 943518, Poly_aftertouch_c, 0, 49, 0
1, 943554, Note_on_c, 0, 87, 89
1, 943556, Note_on_c, 0, 85, 88
1, 943558, Note_on_c, 0, 75, 94
1, 943563, Note_on_c, 0, 78, 88
1, 943598, Note_on_c, 0, 61, 80
1, 943602, Note_on_c, 0, 49, 70
1, 943701, Note_off_c, 0, 75, 65
1, 943711, Note_off_c, 0, 78, 59
1, 943745, Note_off_c, 0, 87, 63
1, 943746, Note_off_c, 0, 61, 61
1, 943746, Poly_aftertouch_c, 0, 61, 0
1, 943751, Note_off_c, 0, 49, 56
1, 943751, Poly_aftertouch_c, 0, 49, 0
1, 943828, Note_on_c, 0, 49, 68
1, 943832, Note_on_c, 0, 61, 75
1, 943905, Note_on_c, 0, 89, 92
1, 943909, Note_on_c, 0, 80, 88
1, 943909, Note_on_c, 0, 77, 95
1, 943916, Note_off_c, 0, 85, 64
1, 943916, Note_on_c, 0, 85, 51
1, 943969, Note_off_c, 0, 61, 59
1, 943969, Poly_aftertouch_c, 0, 61, 0
1, 943988, Note_off_c, 0, 49, 53
1, 943988, Poly_aftertouch_c, 0, 49, 0
1, 944026, Note_off_c, 0, 89, 62
1, 944053, Note_off_c, 0, 77, 61
1, 944053, Poly_aftertouch_c, 0, 77, 0
1, 944057, Note_off_c, 0, 80, 64
1, 944057, Poly_aftertouch_c, 0, 80, 0
1, 944066, Note_off_c, 0, 85, 63
1, 944070, Note_on_c, 0, 49, 78
1, 944074, Note_on_c, 0, 61, 88
1, 944202, Note_off_c, 0, 61, 60
1, 944202, Poly_aftertouch_c, 0, 61, 0
1, 944234, Note_off_c, 0, 49, 59
1, 944234, Poly_aftertouch_c, 0, 49, 0
1, 944345, Note_on_c, 0, 85, 94
1, 944347, Note_on_c, 0, 73, 97
1, 944353, Note_on_c, 0, 80, 84
1, 944354, Note_on_c, 0, 77, 86
1, 944359, Control_c, 0, 64, 83
1, 944360, Note_on_c, 0, 59, 95
1, 944367, Note_on_c, 0, 49, 84
1, 944371, Note_on_c, 0, 47, 80
1, 944379, Control_c, 0, 64, 0
1, 944434, Control_c, 0, 64, 33
1, 944453, Control_c, 0, 64, 74
1, 944471, Control_c, 0, 64, 119
1, 944490, Control_c, 0, 64, 127
1, 944555, Note_off_c, 0, 49, 57
1, 944555, Poly_aftertouch_c, 0, 49, 0
1, 944686, Note_on_c, 0, 49, 80
1, 944838, Note_off_c, 0, 49, 60
1, 944838, Poly_aftertouch_c, 0, 49, 0
1, 944938, Note_on_c, 0, 49, 77
1, 945080, Note_off_c, 0, 49, 59
1, 945080, Poly_aftertouch_c, 0, 49, 0
1, 945179, Note_on_c, 0, 49, 85
1, 945304, Note_off_c, 0, 49, 61
1, 945304, Poly_aftertouch_c, 0, 49, 0
1, 945418, Note_on_c, 0, 49, 73
1, 945421, Note_off_c, 0, 59, 65
1, 945421, Poly_aftertouch_c, 0, 59, 0
1, 945433, Note_off_c, 0, 47, 61
1, 945433, Poly_aftertouch_c, 0, 47, 0
1, 945494, Note_off_c, 0, 49, 59
1, 945494, Poly_aftertouch_c, 0, 49, 0
1, 945529, Note_on_c, 0, 58, 94
1, 945537, Note_on_c, 0, 46, 89
1, 945537, Control_c, 0, 64, 84
1, 945556, Control_c, 0, 64, 60
1, 945574, Control_c, 0, 64, 72
1, 945594, Control_c, 0, 64, 97
1, 945611, Control_c, 0, 64, 127
1, 945668, Note_on_c, 0, 49, 73
1, 945716, Note_off_c, 0, 58, 64
1, 945716, Poly_aftertouch_c, 0, 58, 0
1, 945735, Note_off_c, 0, 46, 60
1, 945764, Note_off_c, 0, 49, 59
1, 945764, Poly_aftertouch_c, 0, 49, 0
1, 945873, Control_c, 0, 64, 100
1, 945877, Note_on_c, 0, 54, 92
1, 945880, Note_on_c, 0, 42, 89
1, 945884, Note_on_c, 0, 49, 78
1, 945891, Control_c, 0, 64, 41
1, 945911, Control_c, 0, 64, 0
1, 945931, Control_c, 0, 64, 47
1, 945949, Control_c, 0, 64, 93
1, 945967, Control_c, 0, 64, 127
1, 945983, Note_off_c, 0, 49, 59
1, 945983, Poly_aftertouch_c, 0, 49, 0
1, 946046, Note_off_c, 0, 73, 53
1, 946046, Poly_aftertouch_c, 0, 73, 0
1, 946054, Note_off_c, 0, 85, 58
1, 946057, Note_off_c, 0, 80, 57
1, 946057, Poly_aftertouch_c, 0, 80, 0
1, 946062, Note_off_c, 0, 77, 51
1, 946062, Poly_aftertouch_c, 0, 77, 0
1, 946090, Note_on_c, 0, 49, 80
1, 946118, Note_off_c, 0, 54, 59
1, 946145, Note_off_c, 0, 42, 63
1, 946222, Note_on_c, 0, 73, 101
1, 946225, Note_on_c, 0, 80, 88
1, 946226, Note_on_c, 0, 85, 97
1, 946226, Note_on_c, 0, 56, 99
1, 946231, Note_on_c, 0, 77, 84
1, 946236, Note_on_c, 0, 44, 90
1, 946259, Note_off_c, 0, 49, 58
1, 946259, Poly_aftertouch_c, 0, 49, 0
1, 946280, Note_on_c, 0, 46, 36
1, 946293, Note_off_c, 0, 73, 66
1, 946293, Poly_aftertouch_c, 0, 73, 0
1, 946314, Note_off_c, 0, 77, 58
1, 946314, Poly_aftertouch_c, 0, 77, 0
1, 946328, Note_on_c, 0, 82, 26
1, 946346, Note_off_c, 0, 80, 62
1, 946346, Poly_aftertouch_c, 0, 80, 0
1, 946378, Note_off_c, 0, 85, 64
1, 946381, Note_off_c, 0, 82, 42
1, 946381, Poly_aftertouch_c, 0, 82, 0
1, 946388, Note_on_c, 0, 49, 81
1, 946390, Note_off_c, 0, 44, 62
1, 946408, Note_off_c, 0, 56, 62
1, 946434, Note_off_c, 0, 46, 25
1, 946519, Note_off_c, 0, 49, 55
1, 946519, Poly_aftertouch_c, 0, 49, 0
1, 946699, Note_on_c, 0, 95, 102
1, 946705, Note_on_c, 0, 92, 93
1, 946707, Note_on_c, 0, 83, 101
1, 946708, Note_on_c, 0, 85, 97
1, 946713, Note_on_c, 0, 53, 95
1, 946715, Control_c, 0, 64, 120
1, 946716, Note_on_c, 0, 49, 89
1, 946719, Note_on_c, 0, 41, 90
1, 946737, Control_c, 0, 64, 66
1, 946753, Control_c, 0, 64, 0
1, 946810, Control_c, 0, 64, 64
1, 946827, Control_c, 0, 64, 111
1, 946845, Control_c, 0, 64, 127
1, 946888, Note_off_c, 0, 53, 53
1, 946888, Poly_aftertouch_c, 0, 53, 0
1, 946921, Note_off_c, 0, 41, 60
1, 946921, Poly_aftertouch_c, 0, 41, 0
1, 946928, Note_off_c, 0, 49, 54
1, 946928, Poly_aftertouch_c, 0, 49, 0
1, 947045, Note_on_c, 0, 53, 89
1, 947054, Note_on_c, 0, 49, 83
1, 947058, Note_on_c, 0, 41, 82
1, 947185, Note_off_c, 0, 53, 54
1, 947185, Poly_aftertouch_c, 0, 53, 0
1, 947209, Note_off_c, 0, 41, 61
1, 947209, Poly_aftertouch_c, 0, 41, 0
1, 947241, Note_off_c, 0, 49, 48
1, 947241, Poly_aftertouch_c, 0, 49, 0
1, 947280, Note_off_c, 0, 83, 59
1, 947280, Poly_aftertouch_c, 0, 83, 0
1, 947293, Note_on_c, 0, 49, 59
1, 947293, Note_on_c, 0, 53, 89
1, 947302, Note_on_c, 0, 41, 80
1, 947322, Note_off_c, 0, 95, 61
1, 947345, Note_off_c, 0, 85, 62
1, 947362, Note_off_c, 0, 92, 61
1, 947381, Note_off_c, 0, 53, 48
1, 947381, Poly_aftertouch_c, 0, 53, 0
1, 947422, Note_off_c, 0, 41, 62
1, 947422, Poly_aftertouch_c, 0, 41, 0
1, 947434, Note_off_c, 0, 49, 60
1, 947434, Poly_aftertouch_c, 0, 49, 0
1, 947575, Control_c, 0, 64, 75
1, 947594, Control_c, 0, 64, 0
1, 947632, Note_on_c, 0, 50, 77
1, 947633, Note_on_c, 0, 94, 99
1, 947634, Note_on_c, 0, 52, 96
1, 947634, Note_on_c, 0, 82, 102
1, 947636, Note_on_c, 0, 92, 88
1, 947637, Note_on_c, 0, 40, 80
1, 947638, Note_on_c, 0, 86, 86
1, 947704, Note_off_c, 0, 40, 63
1, 947706, Control_c, 0, 64, 76
1, 947725, Control_c, 0, 64, 127
1, 947732, Note_off_c, 0, 50, 60
1, 947732, Poly_aftertouch_c, 0, 50, 0
1, 947738, Note_off_c, 0, 52, 65
1, 947852, Note_off_c, 0, 94, 60
1, 947912, Note_off_c, 0, 92, 61
1, 947984, Note_on_c, 0, 52, 77
1, 947984, Note_on_c, 0, 64, 81
1, 947994, Note_off_c, 0, 86, 39
1, 948024, Note_off_c, 0, 82, 35
1, 948024, Poly_aftertouch_c, 0, 82, 0
1, 948124, Note_off_c, 0, 52, 58
1, 948130, Note_off_c, 0, 64, 59
1, 948239, Note_on_c, 0, 64, 83
1, 948247, Note_on_c, 0, 52, 78
1, 948371, Note_off_c, 0, 52, 57
1, 948377, Note_off_c, 0, 64, 60
1, 948462, Note_on_c, 0, 86, 89
1, 948465, Note_on_c, 0, 82, 86
1, 948465, Note_on_c, 0, 74, 94
1, 948469, Note_on_c, 0, 80, 86
1, 948480, Note_on_c, 0, 64, 82
1, 948493, Note_on_c, 0, 52, 75
1, 948597, Note_off_c, 0, 64, 59
1, 948600, Note_off_c, 0, 52, 59
1, 948698, Note_on_c, 0, 64, 80
1, 948704, Note_on_c, 0, 52, 70
1, 948796, Note_off_c, 0, 64, 61
1, 948801, Note_off_c, 0, 52, 57
1, 948810, Note_off_c, 0, 74, 56
1, 948819, Note_off_c, 0, 86, 61
1, 948839, Note_off_c, 0, 82, 60
1, 948839, Poly_aftertouch_c, 0, 82, 0
1, 948886, Note_off_c, 0, 80, 63
1, 948886, Poly_aftertouch_c, 0, 80, 0
1, 948889, Note_on_c, 0, 64, 83
1, 948904, Note_on_c, 0, 52, 71
1, 948984, Note_off_c, 0, 64, 59
1, 948987, Note_off_c, 0, 52, 59
1, 949120, Note_on_c, 0, 87, 91
1, 949122, Note_on_c, 0, 75, 97
1, 949125, Note_on_c, 0, 82, 87
1, 949130, Note_on_c, 0, 80, 85
1, 949138, Note_on_c, 0, 63, 91
1, 949139, Control_c, 0, 64, 71
1, 949142, Note_on_c, 0, 56, 81
1, 949144, Note_on_c, 0, 51, 84
1, 949159, Control_c, 0, 64, 0
1, 949215, Control_c, 0, 64, 52
1, 949225, Note_on_c, 0, 85, 10
1, 949226, Note_off_c, 0, 85, 127
1, 949232, Control_c, 0, 64, 90
1, 949252, Control_c, 0, 64, 127
1, 949257, Note_off_c, 0, 63, 62
1, 949257, Poly_aftertouch_c, 0, 63, 0
1, 949261, Note_off_c, 0, 51, 60
1, 949261, Poly_aftertouch_c, 0, 51, 0
1, 949370, Note_on_c, 0, 63, 80
1, 949372, Note_on_c, 0, 51, 79
1, 949446, Note_off_c, 0, 63, 60
1, 949446, Poly_aftertouch_c, 0, 63, 0
1, 949468, Note_off_c, 0, 51, 58
1, 949468, Poly_aftertouch_c, 0, 51, 0
1, 949562, Note_on_c, 0, 63, 78
1, 949567, Note_on_c, 0, 51, 71
1, 949646, Note_off_c, 0, 63, 56
1, 949646, Poly_aftertouch_c, 0, 63, 0
1, 949672, Note_off_c, 0, 51, 59
1, 949672, Poly_aftertouch_c, 0, 51, 0
1, 949764, Note_on_c, 0, 77, 88
1, 949773, Note_on_c, 0, 63, 92
1, 949776, Note_on_c, 0, 53, 86
1, 949794, Control_c, 0, 64, 103
1, 949797, Note_on_c, 0, 51, 79
1, 949811, Note_off_c, 0, 56, 51
1, 949812, Poly_aftertouch_c, 0, 56, 0
1, 949813, Control_c, 0, 64, 50
1, 949822, Poly_aftertouch_c, 0, 85, 0
1, 949831, Control_c, 0, 64, 34
1, 949850, Control_c, 0, 64, 72
1, 949871, Control_c, 0, 64, 123
1, 949874, Note_off_c, 0, 51, 60
1, 949874, Poly_aftertouch_c, 0, 51, 0
1, 949886, Note_off_c, 0, 63, 61
1, 949886, Poly_aftertouch_c, 0, 63, 0
1, 949888, Control_c, 0, 64, 127
1, 949989, Note_on_c, 0, 63, 84
1, 950000, Note_on_c, 0, 51, 76
1, 950023, Note_off_c, 0, 75, 59
1, 950031, Note_off_c, 0, 77, 58
1, 950031, Poly_aftertouch_c, 0, 77, 0
1, 950058, Note_off_c, 0, 80, 62
1, 950058, Poly_aftertouch_c, 0, 80, 0
1, 950060, Note_off_c, 0, 63, 60
1, 950060, Poly_aftertouch_c, 0, 63, 0
1, 950061, Note_off_c, 0, 82, 60
1, 950061, Poly_aftertouch_c, 0, 82, 0
1, 950092, Note_off_c, 0, 51, 55
1, 950092, Poly_aftertouch_c, 0, 51, 0
1, 950093, Note_off_c, 0, 87, 61
1, 950174, Note_on_c, 0, 63, 89
1, 950195, Note_on_c, 0, 51, 65
1, 950256, Note_off_c, 0, 63, 56
1, 950256, Poly_aftertouch_c, 0, 63, 0
1, 950303, Note_off_c, 0, 51, 52
1, 950303, Poly_aftertouch_c, 0, 51, 0
1, 950340, Note_off_c, 0, 53, 59
1, 950340, Poly_aftertouch_c, 0, 53, 0
1, 950373, Control_c, 0, 64, 115
1, 950376, Note_on_c, 0, 87, 98
1, 950378, Note_on_c, 0, 75, 102
1, 950380, Note_on_c, 0, 82, 88
1, 950382, Note_on_c, 0, 79, 88
1, 950388, Note_on_c, 0, 63, 93
1, 950391, Control_c, 0, 64, 54
1, 950392, Note_on_c, 0, 55, 84
1, 950412, Control_c, 0, 64, 0
1, 950417, Note_on_c, 0, 58, 69
1, 950444, Note_off_c, 0, 58, 67
1, 950444, Poly_aftertouch_c, 0, 58, 0
1, 950451, Control_c, 0, 64, 43
1, 950454, Note_on_c, 0, 51, 39
1, 950468, Control_c, 0, 64, 97
1, 950487, Control_c, 0, 64, 127
1, 950494, Note_off_c, 0, 51, 49
1, 950494, Poly_aftertouch_c, 0, 51, 0
1, 950499, Note_off_c, 0, 63, 63
1, 950499, Poly_aftertouch_c, 0, 63, 0
1, 950596, Note_on_c, 0, 51, 79
1, 950599, Note_on_c, 0, 63, 93
1, 950606, Note_off_c, 0, 75, 64
1, 950623, Note_off_c, 0, 79, 59
1, 950623, Poly_aftertouch_c, 0, 79, 0
1, 950664, Note_off_c, 0, 82, 63
1, 950664, Poly_aftertouch_c, 0, 82, 0
1, 950687, Note_off_c, 0, 51, 58
1, 950687, Poly_aftertouch_c, 0, 51, 0
1, 950689, Note_off_c, 0, 63, 54
1, 950689, Poly_aftertouch_c, 0, 63, 0
1, 950690, Note_off_c, 0, 87, 62
1, 950790, Note_on_c, 0, 63, 90
1, 950791, Note_on_c, 0, 51, 91
1, 950815, Note_off_c, 0, 63, 72
1, 950815, Poly_aftertouch_c, 0, 63, 0
1, 950827, Note_off_c, 0, 55, 62
1, 950827, Poly_aftertouch_c, 0, 55, 0
1, 950853, Note_off_c, 0, 51, 64
1, 950853, Poly_aftertouch_c, 0, 51, 0
1, 951046, Note_on_c, 0, 93, 101
1, 951052, Note_on_c, 0, 51, 97
1, 951053, Note_on_c, 0, 90, 93
1, 951053, Note_on_c, 0, 81, 99
1, 951054, Note_on_c, 0, 84, 92
1, 951059, Note_on_c, 0, 48, 80
1, 951060, Note_on_c, 0, 39, 90
1, 951066, Control_c, 0, 64, 84
1, 951086, Control_c, 0, 64, 0
1, 951122, Control_c, 0, 64, 28
1, 951141, Control_c, 0, 64, 79
1, 951160, Control_c, 0, 64, 127
1, 951169, Note_off_c, 0, 51, 56
1, 951169, Poly_aftertouch_c, 0, 51, 0
1, 951192, Note_off_c, 0, 39, 59
1, 951296, Note_off_c, 0, 48, 64
1, 951296, Note_on_c, 0, 48, 44
1, 951298, Note_on_c, 0, 51, 91
1, 951310, Note_on_c, 0, 39, 83
1, 951398, Note_off_c, 0, 51, 56
1, 951398, Poly_aftertouch_c, 0, 51, 0
1, 951407, Note_off_c, 0, 39, 59
1, 951411, Note_off_c, 0, 48, 58
1, 951417, Poly_aftertouch_c, 0, 42, 0
1, 951467, Note_off_c, 0, 81, 56
1, 951468, Note_off_c, 0, 93, 60
1, 951498, Note_on_c, 0, 51, 98
1, 951513, Note_on_c, 0, 39, 82
1, 951528, Note_off_c, 0, 90, 61
1, 951534, Note_off_c, 0, 84, 55
1, 951553, Note_off_c, 0, 51, 60
1, 951553, Poly_aftertouch_c, 0, 51, 0
1, 951613, Note_off_c, 0, 39, 54
1, 951624, Poly_aftertouch_c, 0, 42, 0
1, 951688, Note_on_c, 0, 48, 70
1, 951692, Note_on_c, 0, 38, 77
1, 951722, Control_c, 0, 64, 98
1, 951739, Control_c, 0, 64, 34
1, 951758, Control_c, 0, 64, 0
1, 951807, Note_on_c, 0, 50, 107
1, 951813, Note_on_c, 0, 80, 107
1, 951815, Note_on_c, 0, 92, 99
1, 951816, Note_on_c, 0, 90, 89
1, 951819, Note_on_c, 0, 84, 92
1, 951833, Control_c, 0, 64, 51
1, 951842, Note_off_c, 0, 38, 63
1, 951850, Control_c, 0, 64, 127
1, 951851, Note_off_c, 0, 48, 64
1, 951863, Note_off_c, 0, 50, 67
1, 951863, Poly_aftertouch_c, 0, 50, 0
1, 951959, Note_off_c, 0, 92, 64
1, 951989, Note_off_c, 0, 90, 64
1, 952005, Note_off_c, 0, 80, 58
1, 952005, Poly_aftertouch_c, 0, 80, 0
1, 952018, Note_off_c, 0, 84, 55
1, 952123, Note_on_c, 0, 50, 63
1, 952126, Note_on_c, 0, 62, 72
1, 952207, Note_off_c, 0, 62, 62
1, 952216, Note_off_c, 0, 50, 61
1, 952216, Poly_aftertouch_c, 0, 50, 0
1, 952332, Note_on_c, 0, 62, 82
1, 952343, Note_on_c, 0, 50, 72
1, 952423, Note_off_c, 0, 62, 54
1, 952427, Note_off_c, 0, 50, 58
1, 952427, Poly_aftertouch_c, 0, 50, 0
1, 952526, Note_on_c, 0, 84, 91
1, 952531, Note_on_c, 0, 78, 92
1, 952531, Note_on_c, 0, 80, 86
1, 952532, Note_on_c, 0, 72, 95
1, 952546, Control_c, 0, 64, 95
1, 952549, Note_on_c, 0, 62, 88
1, 952552, Note_on_c, 0, 50, 81
1, 952564, Control_c, 0, 64, 75
1, 952581, Control_c, 0, 64, 88
1, 952599, Control_c, 0, 64, 123
1, 952618, Control_c, 0, 64, 127
1, 952665, Note_off_c, 0, 50, 58
1, 952665, Poly_aftertouch_c, 0, 50, 0
1, 952667, Note_off_c, 0, 62, 60
1, 952667, Poly_aftertouch_c, 0, 51, 0
1, 952768, Note_on_c, 0, 62, 81
1, 952774, Note_on_c, 0, 50, 72
1, 952806, Note_off_c, 0, 72, 57
1, 952822, Note_off_c, 0, 84, 60
1, 952849, Note_off_c, 0, 62, 61
1, 952850, Note_off_c, 0, 80, 63
1, 952850, Poly_aftertouch_c, 0, 80, 0
1, 952874, Note_off_c, 0, 50, 55
1, 952874, Poly_aftertouch_c, 0, 50, 0
1, 952878, Note_off_c, 0, 78, 64
1, 952956, Note_on_c, 0, 62, 86
1, 952977, Note_on_c, 0, 50, 69
1, 953055, Note_off_c, 0, 62, 58
1, 953064, Note_off_c, 0, 50, 60
1, 953064, Poly_aftertouch_c, 0, 50, 0
1, 953216, Control_c, 0, 64, 115
1, 953218, Note_on_c, 0, 85, 93
1, 953219, Note_on_c, 0, 80, 87
1, 953222, Note_on_c, 0, 73, 98
1, 953225, Note_on_c, 0, 61, 92
1, 953226, Note_on_c, 0, 54, 84
1, 953226, Note_on_c, 0, 78, 91
1, 953236, Note_on_c, 0, 49, 83
1, 953236, Control_c, 0, 64, 60
1, 953258, Control_c, 0, 64, 0
1, 953292, Control_c, 0, 64, 26
1, 953310, Control_c, 0, 64, 71
1, 953329, Control_c, 0, 64, 110
1, 953334, Note_off_c, 0, 61, 62
1, 953334, Poly_aftertouch_c, 0, 61, 0
1, 953347, Control_c, 0, 64, 127
1, 953349, Note_off_c, 0, 49, 59
1, 953349, Poly_aftertouch_c, 0, 49, 0
1, 953473, Note_on_c, 0, 61, 76
1, 953480, Note_on_c, 0, 49, 77
1, 953543, Note_off_c, 0, 61, 60
1, 953543, Poly_aftertouch_c, 0, 61, 0
1, 953569, Note_off_c, 0, 49, 58
1, 953569, Poly_aftertouch_c, 0, 49, 0
1, 953687, Note_on_c, 0, 61, 72
1, 953713, Note_on_c, 0, 49, 58
1, 953764, Note_on_c, 0, 51, 30
1, 953781, Note_off_c, 0, 61, 57
1, 953781, Poly_aftertouch_c, 0, 61, 0
1, 953793, Note_off_c, 0, 49, 39
1, 953793, Poly_aftertouch_c, 0, 49, 0
1, 953811, Note_off_c, 0, 51, 49
1, 953870, Control_c, 0, 64, 87
1, 953890, Control_c, 0, 64, 47
1, 953897, Note_on_c, 0, 75, 87
1, 953905, Note_on_c, 0, 51, 79
1, 953907, Note_on_c, 0, 61, 88
1, 953908, Control_c, 0, 64, 54
1, 953927, Control_c, 0, 64, 82
1, 953929, Note_on_c, 0, 49, 72
1, 953946, Control_c, 0, 64, 125
1, 953956, Note_off_c, 0, 54, 59
1, 953981, Note_off_c, 0, 78, 62
1, 953984, Note_off_c, 0, 73, 55
1, 953984, Poly_aftertouch_c, 0, 73, 0
1, 953986, Note_off_c, 0, 80, 61
1, 953986, Poly_aftertouch_c, 0, 80, 0
1, 954002, Note_off_c, 0, 61, 62
1, 954002, Poly_aftertouch_c, 0, 61, 0
1, 954007, Note_off_c, 0, 49, 60
1, 954007, Poly_aftertouch_c, 0, 49, 0
1, 954020, Note_off_c, 0, 85, 56
1, 954027, Note_off_c, 0, 75, 63
1, 954080, Note_on_c, 0, 53, 75
1, 954134, Note_off_c, 0, 51, 60
1, 954190, Note_on_c, 0, 85, 93
1, 954194, Note_on_c, 0, 73, 96
1, 954196, Note_on_c, 0, 80, 84
1, 954199, Note_on_c, 0, 77, 81
1, 954250, Note_on_c, 0, 61, 81
1, 954271, Note_on_c, 0, 49, 62
1, 954345, Note_off_c, 0, 73, 62
1, 954345, Poly_aftertouch_c, 0, 73, 0
1, 954347, Note_off_c, 0, 61, 62
1, 954347, Poly_aftertouch_c, 0, 61, 0
1, 954350, Note_off_c, 0, 77, 59
1, 954350, Poly_aftertouch_c, 0, 77, 0
1, 954365, Note_off_c, 0, 53, 59
1, 954365, Poly_aftertouch_c, 0, 53, 0
1, 954378, Note_off_c, 0, 85, 62
1, 954383, Note_off_c, 0, 49, 58
1, 954383, Poly_aftertouch_c, 0, 49, 0
1, 954388, Poly_aftertouch_c, 0, 51, 127
1, 954395, Note_off_c, 0, 80, 61
1, 954395, Poly_aftertouch_c, 0, 80, 0
1, 954425, Poly_aftertouch_c, 0, 51, 0
1, 954562, Note_on_c, 0, 48, 82
1, 954568, Note_on_c, 0, 36, 83
1, 954573, Note_on_c, 0, 87, 94
1, 954577, Note_on_c, 0, 80, 81
1, 954578, Note_on_c, 0, 75, 93
1, 954582, Control_c, 0, 64, 75
1, 954584, Note_on_c, 0, 78, 80
1, 954600, Control_c, 0, 64, 59
1, 954618, Control_c, 0, 64, 80
1, 954624, Note_off_c, 0, 36, 60
1, 954627, Note_off_c, 0, 48, 63
1, 954639, Control_c, 0, 64, 117
1, 954657, Control_c, 0, 64, 127
1, 954706, Poly_aftertouch_c, 0, 38, 0
1, 954732, Note_off_c, 0, 80, 63
1, 954732, Poly_aftertouch_c, 0, 80, 0
1, 954734, Note_off_c, 0, 78, 63
1, 954743, Note_off_c, 0, 75, 65
1, 954783, Note_off_c, 0, 87, 63
1, 954802, Note_on_c, 0, 49, 84
1, 954804, Note_on_c, 0, 61, 82
1, 954831, Note_off_c, 0, 61, 73
1, 954831, Poly_aftertouch_c, 0, 61, 0
1, 954871, Note_off_c, 0, 49, 58
1, 954871, Poly_aftertouch_c, 0, 49, 0
1, 954936, Note_on_c, 0, 89, 95
1, 954939, Note_on_c, 0, 80, 82
1, 954942, Note_on_c, 0, 85, 85
1, 954943, Note_on_c, 0, 77, 95
1, 955037, Note_on_c, 0, 47, 97
1, 955039, Note_on_c, 0, 35, 95
1, 955075, Note_on_c, 0, 37, 57
1, 955116, Note_off_c, 0, 77, 60
1, 955116, Poly_aftertouch_c, 0, 77, 0
1, 955129, Note_off_c, 0, 37, 45
1, 955152, Note_off_c, 0, 80, 63
1, 955152, Poly_aftertouch_c, 0, 80, 0
1, 955167, Note_off_c, 0, 89, 62
1, 955194, Note_off_c, 0, 47, 48
1, 955194, Poly_aftertouch_c, 0, 47, 0
1, 955198, Note_off_c, 0, 35, 58
1, 955199, Note_off_c, 0, 85, 60
1, 955368, Control_c, 0, 64, 88
1, 955385, Note_on_c, 0, 78, 102
1, 955385, Note_on_c, 0, 90, 95
1, 955386, Note_on_c, 0, 85, 97
1, 955388, Control_c, 0, 64, 26
1, 955394, Note_on_c, 0, 46, 102
1, 955405, Note_on_c, 0, 34, 93
1, 955405, Control_c, 0, 64, 0
1, 955431, Note_on_c, 0, 37, 51
1, 955444, Control_c, 0, 64, 39
1, 955448, Note_off_c, 0, 34, 62
1, 955454, Note_off_c, 0, 46, 65
1, 955463, Note_on_c, 0, 87, 33
1, 955463, Control_c, 0, 64, 85
1, 955478, Note_off_c, 0, 37, 37
1, 955478, Control_c, 0, 64, 127
1, 955507, Note_off_c, 0, 87, 50
1, 955726, Note_off_c, 0, 90, 44
1, 955745, Note_on_c, 0, 49, 80
1, 955745, Note_on_c, 0, 61, 85
1, 955812, Note_off_c, 0, 61, 61
1, 955812, Poly_aftertouch_c, 0, 61, 0
1, 955833, Note_off_c, 0, 49, 54
1, 955833, Poly_aftertouch_c, 0, 49, 0
1, 955907, Note_off_c, 0, 78, 56
1, 955926, Note_off_c, 0, 85, 56
1, 955993, Note_on_c, 0, 49, 80
1, 955995, Note_on_c, 0, 61, 83
1, 956102, Note_off_c, 0, 61, 54
1, 956102, Poly_aftertouch_c, 0, 61, 0
1, 956124, Note_off_c, 0, 49, 58
1, 956124, Poly_aftertouch_c, 0, 49, 0
1, 956225, Note_on_c, 0, 61, 91
1, 956226, Note_on_c, 0, 49, 85
1, 956323, Note_off_c, 0, 61, 60
1, 956323, Poly_aftertouch_c, 0, 61, 0
1, 956335, Note_off_c, 0, 49, 57
1, 956335, Poly_aftertouch_c, 0, 49, 0
1, 956422, Note_on_c, 0, 61, 93
1, 956426, Note_on_c, 0, 49, 89
1, 956457, Note_off_c, 0, 61, 59
1, 956457, Poly_aftertouch_c, 0, 61, 0
1, 956488, Note_off_c, 0, 49, 59
1, 956488, Poly_aftertouch_c, 0, 49, 0
1, 956520, Note_on_c, 0, 73, 98
1, 956522, Note_on_c, 0, 78, 88
1, 956524, Note_on_c, 0, 85, 95
1, 956618, Note_off_c, 0, 73, 62
1, 956618, Poly_aftertouch_c, 0, 73, 0
1, 956659, Note_off_c, 0, 85, 63
1, 956659, Note_off_c, 0, 78, 63
1, 956671, Note_on_c, 0, 46, 102
1, 956672, Note_on_c, 0, 34, 96
1, 956828, Note_off_c, 0, 34, 60
1, 956881, Control_c, 0, 64, 111
1, 956885, Note_off_c, 0, 46, 35
1, 956886, Poly_aftertouch_c, 0, 46, 0
1, 956900, Control_c, 0, 64, 49
1, 956916, Note_on_c, 0, 89, 100
1, 956917, Note_on_c, 0, 80, 98
1, 956919, Note_on_c, 0, 77, 101
1, 956920, Note_on_c, 0, 85, 91
1, 956920, Control_c, 0, 64, 0
1, 956927, Note_on_c, 0, 47, 99
1, 956931, Note_on_c, 0, 35, 88
1, 956955, Control_c, 0, 64, 43
1, 956975, Control_c, 0, 64, 95
1, 956976, Note_off_c, 0, 35, 61
1, 956979, Note_off_c, 0, 47, 65
1, 956979, Poly_aftertouch_c, 0, 47, 0
1, 956995, Control_c, 0, 64, 127
1, 957057, Note_off_c, 0, 77, 59
1, 957057, Poly_aftertouch_c, 0, 77, 0
1, 957100, Note_off_c, 0, 80, 65
1, 957100, Poly_aftertouch_c, 0, 80, 0
1, 957105, Note_off_c, 0, 89, 63
1, 957120, Note_off_c, 0, 85, 64
1, 957187, Note_on_c, 0, 61, 97
1, 957189, Note_on_c, 0, 49, 95
1, 957212, Note_off_c, 0, 61, 73
1, 957212, Poly_aftertouch_c, 0, 61, 0
1, 957249, Note_off_c, 0, 49, 53
1, 957249, Poly_aftertouch_c, 0, 49, 0
1, 957307, Poly_aftertouch_c, 0, 48, 127
1, 957330, Note_on_c, 0, 90, 101
1, 957331, Note_on_c, 0, 78, 106
1, 957333, Note_on_c, 0, 85, 103
1, 957344, Poly_aftertouch_c, 0, 48, 0
1, 957383, Note_on_c, 0, 87, 47
1, 957452, Note_on_c, 0, 46, 107
1, 957455, Note_on_c, 0, 34, 105
1, 957525, Note_off_c, 0, 46, 58
1, 957539, Note_off_c, 0, 78, 61
1, 957583, Note_off_c, 0, 34, 60
1, 957587, Note_off_c, 0, 90, 63
1, 957607, Note_off_c, 0, 87, 19
1, 957612, Note_off_c, 0, 85, 60
1, 957616, Poly_aftertouch_c, 0, 35, 0
1, 957798, Control_c, 0, 64, 93
1, 957817, Control_c, 0, 64, 0
1, 957830, Note_on_c, 0, 80, 112
1, 957830, Note_on_c, 0, 92, 102
1, 957831, Note_on_c, 0, 85, 105
1, 957838, Note_on_c, 0, 41, 108
1, 957846, Note_on_c, 0, 29, 98
1, 957869, Note_on_c, 0, 32, 65
1, 957891, Control_c, 0, 64, 83
1, 957896, Note_on_c, 0, 37, 30
1, 957899, Note_off_c, 0, 29, 63
1, 957904, Note_off_c, 0, 32, 55
1, 957909, Control_c, 0, 64, 127
1, 957932, Note_off_c, 0, 41, 65
1, 957932, Poly_aftertouch_c, 0, 41, 0
1, 957952, Note_off_c, 0, 37, 47
1, 958192, Note_off_c, 0, 92, 61
1, 958231, Note_on_c, 0, 61, 103
1, 958234, Note_on_c, 0, 49, 95
1, 958259, Note_off_c, 0, 80, 60
1, 958259, Poly_aftertouch_c, 0, 80, 0
1, 958330, Note_off_c, 0, 85, 55
1, 958356, Note_off_c, 0, 61, 50
1, 958356, Poly_aftertouch_c, 0, 61, 0
1, 958367, Note_off_c, 0, 49, 49
1, 958367, Poly_aftertouch_c, 0, 49, 0
1, 958552, Note_on_c, 0, 61, 102
1, 958556, Note_on_c, 0, 49, 93
1, 958678, Note_off_c, 0, 61, 52
1, 958678, Poly_aftertouch_c, 0, 61, 0
1, 958680, Note_off_c, 0, 49, 52
1, 958680, Poly_aftertouch_c, 0, 49, 0
1, 958804, Note_on_c, 0, 61, 104
1, 958807, Note_on_c, 0, 49, 96
1, 958911, Note_off_c, 0, 61, 55
1, 958911, Poly_aftertouch_c, 0, 61, 0
1, 958916, Note_off_c, 0, 49, 52
1, 958916, Poly_aftertouch_c, 0, 49, 0
1, 958919, Poly_aftertouch_c, 0, 51, 127
1, 958969, Poly_aftertouch_c, 0, 51, 0
1, 959015, Note_on_c, 0, 61, 99
1, 959022, Note_on_c, 0, 49, 93
1, 959056, Note_off_c, 0, 61, 71
1, 959056, Poly_aftertouch_c, 0, 61, 0
1, 959107, Note_off_c, 0, 49, 59
1, 959107, Poly_aftertouch_c, 0, 49, 0
1, 959232, Note_on_c, 0, 80, 80
1, 959235, Note_on_c, 0, 73, 108
1, 959236, Note_on_c, 0, 85, 101
1, 959261, Note_on_c, 0, 41, 107
1, 959267, Note_on_c, 0, 29, 96
1, 959322, Note_on_c, 0, 37, 17
1, 959331, Note_on_c, 0, 32, 13
1, 959380, Note_off_c, 0, 73, 53
1, 959380, Poly_aftertouch_c, 0, 73, 0
1, 959383, Note_off_c, 0, 37, 38
1, 959390, Note_off_c, 0, 85, 63
1, 959400, Note_off_c, 0, 41, 52
1, 959400, Poly_aftertouch_c, 0, 41, 0
1, 959404, Note_off_c, 0, 80, 60
1, 959404, Poly_aftertouch_c, 0, 80, 0
1, 959405, Note_off_c, 0, 29, 58
1, 959411, Note_on_c, 0, 30, 37
1, 959447, Note_off_c, 0, 30, 55
1, 959461, Note_off_c, 0, 32, 31
1, 959462, Poly_aftertouch_c, 0, 32, 0
1, 959573, Control_c, 0, 64, 113
1, 959593, Control_c, 0, 64, 49
1, 959608, Note_on_c, 0, 78, 101
1, 959609, Note_on_c, 0, 75, 110
1, 959610, Note_on_c, 0, 85, 89
1, 959610, Note_on_c, 0, 87, 96
1, 959611, Control_c, 0, 64, 0
1, 959615, Note_on_c, 0, 82, 95
1, 959619, Note_on_c, 0, 30, 93
1, 959620, Note_on_c, 0, 42, 113
1, 959643, Control_c, 0, 64, 31
1, 959649, Control_c, 0, 64, 87
1, 959669, Note_on_c, 0, 76, 26
1, 959669, Control_c, 0, 64, 127
1, 959681, Note_off_c, 0, 30, 67
1, 959696, Note_off_c, 0, 42, 67
1, 959699, Note_on_c, 0, 33, 15
1, 959714, Note_off_c, 0, 33, 51
1, 959719, Note_off_c, 0, 76, 51
1, 959746, Poly_aftertouch_c, 0, 88, 127
1, 959753, Poly_aftertouch_c, 0, 88, 0
1, 959759, Poly_aftertouch_c, 0, 36, 0
1, 959762, Note_off_c, 0, 75, 64
1, 959786, Note_off_c, 0, 87, 63
1, 959823, Note_off_c, 0, 85, 62
1, 959836, Note_off_c, 0, 78, 59
1, 960045, Note_off_c, 0, 82, 62
1, 960045, Poly_aftertouch_c, 0, 82, 0
1, 960063, Note_on_c, 0, 61, 111
1, 960063, Note_on_c, 0, 78, 111
1, 960065, Note_on_c, 0, 90, 102
1, 960065, Note_on_c, 0, 49, 104
1, 960087, Note_on_c, 0, 87, 76
1, 960089, Note_on_c, 0, 51, 66
1, 960106, Note_on_c, 0, 82, 26
1, 960106, Poly_aftertouch_c, 0, 82, 0
1, 960107, Note_off_c, 0, 82, 127
1, 960107, Note_on_c, 0, 48, 69
1, 960110, Note_off_c, 0, 61, 74
1, 960110, Poly_aftertouch_c, 0, 61, 0
1, 960114, Note_on_c, 0, 91, 40
1, 960115, Note_off_c, 0, 87, 67
1, 960120, Note_off_c, 0, 51, 63
1, 960124, Note_on_c, 0, 79, 26
1, 960134, Note_off_c, 0, 49, 63
1, 960134, Poly_aftertouch_c, 0, 49, 0
1, 960151, Note_off_c, 0, 78, 58
1, 960152, Note_off_c, 0, 91, 58
1, 960154, Note_off_c, 0, 48, 65
1, 960170, Poly_aftertouch_c, 0, 54, 0
1, 960174, Note_off_c, 0, 79, 51
1, 960174, Poly_aftertouch_c, 0, 79, 0
1, 960187, Poly_aftertouch_c, 0, 81, 0
1, 960188, Note_off_c, 0, 90, 63
1, 960197, Poly_aftertouch_c, 0, 84, 127
1, 960205, Poly_aftertouch_c, 0, 84, 0
1, 960437, Note_on_c, 0, 82, 106
1, 960437, Note_on_c, 0, 94, 103
1, 960440, Note_on_c, 0, 85, 96
1, 960446, Note_on_c, 0, 87, 92
1, 960449, Note_on_c, 0, 90, 77
1, 960450, Note_on_c, 0, 39, 106
1, 960456, Note_on_c, 0, 27, 107
1, 960462, Note_on_c, 0, 91, 83
1, 960465, Note_on_c, 0, 40, 84
1, 960467, Note_on_c, 0, 30, 77
1, 960468, Note_on_c, 0, 41, 81
1, 960470, Note_on_c, 0, 32, 75
1, 960501, Note_off_c, 0, 30, 55
1, 960502, Note_on_c, 0, 95, 33
1, 960514, Note_off_c, 0, 41, 55
1, 960514, Poly_aftertouch_c, 0, 41, 0
1, 960544, Note_off_c, 0, 40, 39
1, 960546, Note_off_c, 0, 95, 34
1, 960546, Poly_aftertouch_c, 0, 83, 0
1, 960552, Note_off_c, 0, 82, 65
1, 960552, Poly_aftertouch_c, 0, 82, 0
1, 960573, Note_off_c, 0, 32, 64
1, 960573, Note_on_c, 0, 32, 37
1, 960574, Note_on_c, 0, 30, 39
1, 960576, Note_off_c, 0, 39, 60
1, 960583, Note_off_c, 0, 90, 64
1, 960586, Note_off_c, 0, 91, 63
1, 960586, Note_off_c, 0, 85, 65
1, 960594, Note_off_c, 0, 32, 61
1, 960596, Note_off_c, 0, 94, 65
1, 960598, Note_off_c, 0, 87, 63
1, 960603, Poly_aftertouch_c, 0, 31, 127
1, 960615, Note_off_c, 0, 27, 64
1, 960620, Note_off_c, 0, 30, 45
1, 960637, Poly_aftertouch_c, 0, 31, 0
1, 960656, Poly_aftertouch_c, 0, 29, 127
1, 960684, Poly_aftertouch_c, 0, 28, 0
1, 960689, Poly_aftertouch_c, 0, 29, 0
1, 960831, Poly_aftertouch_c, 0, 87, 0
1, 960883, Control_c, 0, 64, 74
1, 960902, Control_c, 0, 64, 0
1, 960917, Note_on_c, 0, 85, 111
1, 960917, Note_on_c, 0, 97, 105
1, 960919, Note_on_c, 0, 94, 98
1, 960920, Note_on_c, 0, 87, 102
1, 960923, Note_on_c, 0, 90, 96
1, 960926, Note_on_c, 0, 37, 111
1, 960932, Note_on_c, 0, 25, 99
1, 960937, Control_c, 0, 64, 18
1, 960953, Note_on_c, 0, 24, 83
1, 960957, Note_on_c, 0, 28, 61
1, 960957, Control_c, 0, 64, 123
1, 960976, Control_c, 0, 64, 127
1, 960981, Note_on_c, 0, 98, 18
1, 960982, Note_off_c, 0, 98, 127
1, 960983, Note_off_c, 0, 25, 67
1, 960984, Note_on_c, 0, 31, 18
1, 960986, Note_off_c, 0, 24, 57
1, 960991, Note_off_c, 0, 28, 59
1, 960996, Note_off_c, 0, 37, 63
1, 961050, Note_off_c, 0, 31, 38
1, 961057, Note_off_c, 0, 97, 64
1, 961075, Note_off_c, 0, 85, 59
1, 961093, Poly_aftertouch_c, 0, 38, 127
1, 961120, Poly_aftertouch_c, 0, 38, 0
1, 961138, Note_off_c, 0, 94, 62
1, 961157, Note_off_c, 0, 87, 47
1, 961166, Note_off_c, 0, 90, 47
1, 961234, Note_on_c, 0, 63, 88
1, 961249, Note_on_c, 0, 58, 66
1, 961251, Note_on_c, 0, 49, 69
1, 961266, Note_on_c, 0, 51, 53
1, 961272, Note_on_c, 0, 54, 48
1, 961301, Note_off_c, 0, 63, 58
1, 961301, Poly_aftertouch_c, 0, 63, 0
1, 961339, Note_off_c, 0, 49, 58
1, 961339, Poly_aftertouch_c, 0, 49, 0
1, 961345, Note_off_c, 0, 51, 53
1, 961357, Note_off_c, 0, 58, 58
1, 961357, Poly_aftertouch_c, 0, 58, 0
1, 961361, Note_off_c, 0, 54, 59
1, 961400, Note_on_c, 0, 82, 113
1, 961404, Note_on_c, 0, 87, 102
1, 961405, Note_on_c, 0, 94, 103
1, 961409, Note_on_c, 0, 90, 92
1, 961414, Note_on_c, 0, 63, 107
1, 961417, Note_on_c, 0, 58, 81
1, 961419, Note_on_c, 0, 49, 86
1, 961421, Note_on_c, 0, 54, 71
1, 961422, Note_on_c, 0, 51, 78
1, 961440, Note_on_c, 0, 56, 66
1, 961440, Note_on_c, 0, 92, 61
1, 961463, Note_off_c, 0, 92, 62
1, 961465, Note_off_c, 0, 56, 65
1, 961480, Note_off_c, 0, 63, 63
1, 961480, Poly_aftertouch_c, 0, 63, 0
1, 961481, Note_off_c, 0, 94, 67
1, 961497, Note_off_c, 0, 49, 61
1, 961497, Poly_aftertouch_c, 0, 49, 0
1, 961501, Note_off_c, 0, 90, 67
1, 961503, Note_off_c, 0, 82, 62
1, 961503, Poly_aftertouch_c, 0, 82, 0
1, 961509, Note_off_c, 0, 51, 61
1, 961517, Note_off_c, 0, 87, 65
1, 961518, Note_off_c, 0, 58, 63
1, 961518, Poly_aftertouch_c, 0, 58, 0
1, 961530, Note_off_c, 0, 54, 62
1, 961531, Poly_aftertouch_c, 0, 54, 0
1, 961595, Note_on_c, 0, 63, 89
1, 961600, Note_on_c, 0, 58, 66
1, 961605, Note_on_c, 0, 54, 55
1, 961615, Note_on_c, 0, 49, 73
1, 961618, Note_on_c, 0, 51, 67
1, 961669, Note_off_c, 0, 63, 55
1, 961669, Poly_aftertouch_c, 0, 63, 0
1, 961678, Note_off_c, 0, 49, 58
1, 961678, Poly_aftertouch_c, 0, 49, 0
1, 961700, Note_off_c, 0, 51, 58
1, 961708, Note_off_c, 0, 58, 62
1, 961708, Poly_aftertouch_c, 0, 58, 0
1, 961711, Note_off_c, 0, 54, 61
1, 961769, Note_on_c, 0, 78, 112
1, 961771, Note_on_c, 0, 90, 99
1, 961775, Note_on_c, 0, 87, 89
1, 961777, Note_on_c, 0, 63, 102
1, 961777, Note_on_c, 0, 85, 96
1, 961784, Note_on_c, 0, 49, 88
1, 961784, Note_on_c, 0, 58, 80
1, 961790, Note_on_c, 0, 51, 73
1, 961811, Note_on_c, 0, 56, 51
1, 961813, Poly_aftertouch_c, 0, 82, 127
1, 961815, Note_on_c, 0, 54, 31
1, 961839, Note_off_c, 0, 56, 61
1, 961844, Note_on_c, 0, 53, 46
1, 961860, Note_off_c, 0, 63, 60
1, 961860, Poly_aftertouch_c, 0, 63, 0
1, 961863, Note_off_c, 0, 54, 47
1, 961866, Note_off_c, 0, 49, 61
1, 961866, Poly_aftertouch_c, 0, 49, 0
1, 961880, Note_off_c, 0, 51, 60
1, 961880, Note_off_c, 0, 53, 55
1, 961880, Poly_aftertouch_c, 0, 53, 0
1, 961892, Note_on_c, 0, 61, 12
1, 961895, Note_off_c, 0, 58, 60
1, 961895, Poly_aftertouch_c, 0, 58, 0
1, 961897, Note_off_c, 0, 61, 36
1, 961897, Poly_aftertouch_c, 0, 61, 0
1, 961967, Note_on_c, 0, 63, 88
1, 961969, Note_on_c, 0, 58, 67
1, 961974, Note_on_c, 0, 54, 71
1, 961979, Note_on_c, 0, 51, 67
1, 961981, Note_on_c, 0, 49, 72
1, 962008, Note_off_c, 0, 90, 60
1, 962021, Note_off_c, 0, 49, 65
1, 962021, Poly_aftertouch_c, 0, 49, 0
1, 962037, Note_off_c, 0, 63, 60
1, 962037, Poly_aftertouch_c, 0, 63, 0
1, 962038, Note_off_c, 0, 87, 60
1, 962044, Note_off_c, 0, 58, 61
1, 962044, Poly_aftertouch_c, 0, 58, 0
1, 962048, Note_off_c, 0, 51, 57
1, 962050, Poly_aftertouch_c, 0, 82, 0
1, 962051, Note_off_c, 0, 54, 62
1, 962052, Note_off_c, 0, 85, 62
1, 962131, Note_on_c, 0, 63, 84
1, 962143, Note_on_c, 0, 54, 60
1, 962143, Note_on_c, 0, 58, 69
1, 962149, Note_on_c, 0, 49, 69
1, 962151, Note_on_c, 0, 51, 61
1, 962190, Note_off_c, 0, 49, 63
1, 962190, Poly_aftertouch_c, 0, 49, 0
1, 962194, Note_off_c, 0, 51, 62
1, 962195, Note_off_c, 0, 63, 63
1, 962195, Poly_aftertouch_c, 0, 63, 0
1, 962205, Note_off_c, 0, 54, 56
1, 962211, Note_off_c, 0, 58, 61
1, 962211, Poly_aftertouch_c, 0, 58, 0
1, 962268, Note_on_c, 0, 63, 84
1, 962273, Note_on_c, 0, 58, 66
1, 962281, Note_on_c, 0, 54, 62
1, 962283, Note_on_c, 0, 49, 77
1, 962292, Note_on_c, 0, 51, 69
1, 962328, Note_off_c, 0, 49, 56
1, 962328, Poly_aftertouch_c, 0, 49, 0
1, 962340, Note_off_c, 0, 63, 61
1, 962340, Poly_aftertouch_c, 0, 63, 0
1, 962355, Note_off_c, 0, 51, 61
1, 962371, Note_off_c, 0, 58, 63
1, 962371, Note_off_c, 0, 54, 60
1, 962371, Poly_aftertouch_c, 0, 58, 0
1, 962379, Note_off_c, 0, 78, 19
1, 962411, Note_on_c, 0, 78, 84
1, 962417, Note_on_c, 0, 82, 85
1, 962417, Note_on_c, 0, 75, 103
1, 962419, Note_on_c, 0, 85, 92
1, 962419, Note_on_c, 0, 87, 96
1, 962439, Note_on_c, 0, 63, 99
1, 962439, Note_on_c, 0, 58, 78
1, 962446, Note_on_c, 0, 54, 65
1, 962448, Note_on_c, 0, 49, 84
1, 962453, Note_on_c, 0, 51, 78
1, 962462, Note_on_c, 0, 88, 52
1, 962488, Note_off_c, 0, 88, 62
1, 962508, Note_off_c, 0, 63, 60
1, 962508, Poly_aftertouch_c, 0, 63, 0
1, 962513, Note_off_c, 0, 49, 59
1, 962513, Poly_aftertouch_c, 0, 49, 0
1, 962529, Note_off_c, 0, 51, 60
1, 962535, Note_off_c, 0, 58, 62
1, 962535, Poly_aftertouch_c, 0, 58, 0
1, 962547, Note_off_c, 0, 54, 59
1, 962586, Note_on_c, 0, 63, 88
1, 962590, Note_on_c, 0, 58, 66
1, 962597, Note_on_c, 0, 54, 47
1, 962600, Note_on_c, 0, 51, 64
1, 962602, Note_on_c, 0, 49, 71
1, 962635, Note_off_c, 0, 87, 60
1, 962644, Note_off_c, 0, 49, 61
1, 962644, Poly_aftertouch_c, 0, 49, 0
1, 962646, Note_off_c, 0, 63, 62
1, 962646, Poly_aftertouch_c, 0, 63, 0
1, 962654, Note_off_c, 0, 85, 59
1, 962673, Note_off_c, 0, 51, 59
1, 962681, Note_off_c, 0, 58, 61
1, 962681, Poly_aftertouch_c, 0, 58, 0
1, 962686, Note_off_c, 0, 82, 60
1, 962687, Note_off_c, 0, 54, 59
1, 962695, Note_off_c, 0, 75, 61
1, 962713, Note_off_c, 0, 78, 59
1, 962747, Note_on_c, 0, 63, 86
1, 962757, Note_on_c, 0, 58, 58
1, 962762, Note_on_c, 0, 49, 75
1, 962767, Note_on_c, 0, 54, 55
1, 962768, Note_on_c, 0, 51, 60
1, 962830, Note_off_c, 0, 63, 56
1, 962830, Poly_aftertouch_c, 0, 63, 0
1, 962877, Note_off_c, 0, 49, 64
1, 962877, Note_on_c, 0, 49, 43
1, 962894, Note_on_c, 0, 63, 54
1, 962951, Note_off_c, 0, 63, 63
1, 962951, Poly_aftertouch_c, 0, 63, 0
1, 962952, Note_off_c, 0, 49, 59
1, 962952, Poly_aftertouch_c, 0, 49, 0
1, 962970, Note_off_c, 0, 51, 59
1, 962975, Note_off_c, 0, 54, 60
1, 962981, Note_off_c, 0, 58, 59
1, 962981, Poly_aftertouch_c, 0, 58, 0
1, 963064, Note_on_c, 0, 63, 79
1, 963068, Note_on_c, 0, 58, 59
1, 963078, Note_on_c, 0, 54, 55
1, 963079, Note_on_c, 0, 51, 58
1, 963081, Note_on_c, 0, 49, 70
1, 963084, Note_on_c, 0, 78, 93
1, 963085, Note_on_c, 0, 73, 102
1, 963085, Note_on_c, 0, 82, 91
1, 963087, Note_on_c, 0, 85, 97
1, 963126, Control_c, 0, 64, 122
1, 963133, Note_on_c, 0, 80, 41
1, 963151, Note_off_c, 0, 63, 64
1, 963151, Poly_aftertouch_c, 0, 63, 0
1, 963165, Control_c, 0, 64, 127
1, 963170, Note_off_c, 0, 80, 50
1, 963170, Poly_aftertouch_c, 0, 80, 0
1, 963183, Note_off_c, 0, 58, 62
1, 963183, Poly_aftertouch_c, 0, 58, 0
1, 963207, Note_off_c, 0, 49, 59
1, 963207, Poly_aftertouch_c, 0, 49, 0
1, 963209, Note_off_c, 0, 54, 62
1, 963216, Note_off_c, 0, 51, 59
1, 963244, Note_off_c, 0, 78, 63
1, 963260, Note_off_c, 0, 85, 61
1, 963284, Note_off_c, 0, 82, 55
1, 963309, Note_off_c, 0, 73, 53
1, 963309, Poly_aftertouch_c, 0, 73, 0
1, 963346, Note_on_c, 0, 49, 87
1, 963355, Note_on_c, 0, 42, 70
1, 963357, Note_on_c, 0, 37, 75
1, 963435, Note_off_c, 0, 49, 53
1, 963435, Poly_aftertouch_c, 0, 49, 0
1, 963440, Note_on_c, 0, 82, 95
1, 963440, Note_on_c, 0, 70, 100
1, 963441, Note_on_c, 0, 75, 89
1, 963443, Note_on_c, 0, 78, 88
1, 963474, Note_off_c, 0, 37, 59
1, 963479, Note_off_c, 0, 42, 61
1, 963489, Poly_aftertouch_c, 0, 39, 0
1, 963559, Note_off_c, 0, 82, 64
1, 963569, Note_off_c, 0, 78, 62
1, 963575, Note_off_c, 0, 75, 64
1, 963585, Note_on_c, 0, 49, 81
1, 963596, Note_on_c, 0, 42, 75
1, 963596, Note_on_c, 0, 37, 78
1, 963630, Note_off_c, 0, 70, 59
1, 963630, Poly_aftertouch_c, 0, 70, 0
1, 963758, Note_off_c, 0, 49, 56
1, 963758, Poly_aftertouch_c, 0, 49, 0
1, 963770, Note_off_c, 0, 37, 57
1, 963773, Note_off_c, 0, 42, 61
1, 963821, Note_on_c, 0, 78, 93
1, 963822, Note_on_c, 0, 66, 97
1, 963825, Note_on_c, 0, 70, 88
1, 963826, Note_on_c, 0, 75, 88
1, 963829, Note_on_c, 0, 73, 87
1, 963876, Note_on_c, 0, 49, 77
1, 963889, Note_on_c, 0, 42, 64
1, 963892, Note_on_c, 0, 37, 66
1, 963894, Control_c, 0, 64, 119
1, 963913, Control_c, 0, 64, 91
1, 963931, Control_c, 0, 64, 74
1, 963950, Control_c, 0, 64, 78
1, 963968, Control_c, 0, 64, 92
1, 963984, Note_off_c, 0, 49, 55
1, 963984, Poly_aftertouch_c, 0, 49, 0
1, 963987, Control_c, 0, 64, 116
1, 963989, Note_off_c, 0, 42, 61
1, 963997, Note_off_c, 0, 37, 56
1, 964003, Control_c, 0, 64, 127
1, 964086, Note_on_c, 0, 49, 58
1, 964089, Note_on_c, 0, 37, 57
1, 964090, Note_on_c, 0, 42, 59
1, 964165, Note_off_c, 0, 49, 56
1, 964165, Poly_aftertouch_c, 0, 49, 0
1, 964181, Note_off_c, 0, 37, 57
1, 964184, Note_off_c, 0, 42, 59
1, 964262, Note_off_c, 0, 70, 48
1, 964262, Poly_aftertouch_c, 0, 70, 0
1, 964287, Note_off_c, 0, 73, 60
1, 964287, Poly_aftertouch_c, 0, 73, 0
1, 964302, Note_off_c, 0, 75, 59
1, 964303, Note_on_c, 0, 49, 70
1, 964313, Note_on_c, 0, 42, 69
1, 964315, Note_on_c, 0, 37, 67
1, 964329, Note_off_c, 0, 78, 63
1, 964409, Note_off_c, 0, 66, 56
1, 964451, Note_off_c, 0, 49, 55
1, 964451, Poly_aftertouch_c, 0, 49, 0
1, 964453, Note_off_c, 0, 42, 61
1, 964465, Note_off_c, 0, 37, 57
1, 964539, Note_on_c, 0, 75, 91
1, 964541, Note_on_c, 0, 73, 87
1, 964543, Note_on_c, 0, 66, 84
1, 964544, Note_on_c, 0, 63, 88
1, 964548, Note_on_c, 0, 70, 82
1, 964578, Note_on_c, 0, 49, 80
1, 964584, Note_on_c, 0, 42, 73
1, 964589, Note_on_c, 0, 37, 68
1, 964603, Control_c, 0, 64, 100
1, 964623, Control_c, 0, 64, 68
1, 964643, Control_c, 0, 64, 44
1, 964660, Control_c, 0, 64, 39
1, 964679, Control_c, 0, 64, 53
1, 964697, Control_c, 0, 64, 73
1, 964700, Note_off_c, 0, 49, 58
1, 964700, Poly_aftertouch_c, 0, 49, 0
1, 964709, Note_off_c, 0, 42, 60
1, 964717, Control_c, 0, 64, 93
1, 964718, Note_off_c, 0, 37, 59
1, 964735, Control_c, 0, 64, 118
1, 964753, Control_c, 0, 64, 127
1, 964798, Note_on_c, 0, 49, 62
1, 964803, Note_on_c, 0, 42, 57
1, 964809, Note_on_c, 0, 37, 53
1, 964891, Note_off_c, 0, 49, 55
1, 964891, Poly_aftertouch_c, 0, 49, 0
1, 964900, Note_off_c, 0, 37, 53
1, 964906, Note_off_c, 0, 42, 59
1, 965035, Note_on_c, 0, 49, 70
1, 965045, Note_on_c, 0, 37, 68
1, 965048, Note_on_c, 0, 42, 62
1, 965079, Note_off_c, 0, 73, 60
1, 965079, Poly_aftertouch_c, 0, 73, 0
1, 965082, Note_off_c, 0, 63, 57
1, 965082, Note_off_c, 0, 70, 58
1, 965082, Poly_aftertouch_c, 0, 63, 0
1, 965082, Poly_aftertouch_c, 0, 70, 0
1, 965093, Note_off_c, 0, 75, 61
1, 965127, Note_off_c, 0, 66, 58
1, 965144, Note_off_c, 0, 49, 54
1, 965144, Poly_aftertouch_c, 0, 49, 0
1, 965153, Note_off_c, 0, 37, 57
1, 965160, Note_off_c, 0, 42, 59
1, 965306, Note_on_c, 0, 70, 89
1, 965308, Note_on_c, 0, 73, 87
1, 965320, Note_on_c, 0, 42, 79
1, 965327, Note_on_c, 0, 61, 70
1, 965331, Note_on_c, 0, 37, 71
1, 965333, Note_on_c, 0, 49, 69
1, 965333, Control_c, 0, 64, 110
1, 965351, Control_c, 0, 64, 83
1, 965371, Control_c, 0, 64, 54
1, 965390, Control_c, 0, 64, 0
1, 965407, Note_off_c, 0, 49, 44
1, 965407, Poly_aftertouch_c, 0, 49, 0
1, 965466, Note_off_c, 0, 37, 59
1, 965483, Control_c, 0, 64, 43
1, 965501, Control_c, 0, 64, 68
1, 965522, Control_c, 0, 64, 85
1, 965539, Control_c, 0, 64, 99
1, 965557, Control_c, 0, 64, 110
1, 965577, Control_c, 0, 64, 120
1, 965591, Note_on_c, 0, 49, 47
1, 965594, Note_on_c, 0, 37, 64
1, 965595, Control_c, 0, 64, 127
1, 965610, Poly_aftertouch_c, 0, 61, 24
1, 965657, Note_off_c, 0, 49, 44
1, 965657, Poly_aftertouch_c, 0, 49, 0
1, 965695, Note_off_c, 0, 37, 57
1, 965836, Note_on_c, 0, 49, 45
1, 965840, Note_on_c, 0, 37, 66
1, 965897, Note_off_c, 0, 49, 43
1, 965897, Poly_aftertouch_c, 0, 49, 0
1, 965950, Note_off_c, 0, 37, 53
1, 965988, Control_c, 0, 64, 123
1, 966025, Control_c, 0, 64, 115
1, 966044, Control_c, 0, 64, 110
1, 966059, Note_on_c, 0, 68, 78
1, 966062, Control_c, 0, 64, 103
1, 966079, Note_on_c, 0, 41, 73
1, 966081, Control_c, 0, 64, 95
1, 966100, Control_c, 0, 64, 81
1, 966114, Note_on_c, 0, 37, 61
1, 966118, Control_c, 0, 64, 67
1, 966137, Control_c, 0, 64, 56
1, 966145, Note_off_c, 0, 42, 57
1, 966156, Control_c, 0, 64, 42
1, 966174, Control_c, 0, 64, 20
1, 966193, Control_c, 0, 64, 0
1, 966219, Note_off_c, 0, 37, 59
1, 966230, Control_c, 0, 64, 14
1, 966249, Control_c, 0, 64, 35
1, 966268, Control_c, 0, 64, 51
1, 966286, Control_c, 0, 64, 62
1, 966305, Control_c, 0, 64, 69
1, 966317, Note_on_c, 0, 49, 50
1, 966323, Control_c, 0, 64, 74
1, 966339, Note_on_c, 0, 37, 56
1, 966342, Control_c, 0, 64, 80
1, 966361, Control_c, 0, 64, 88
1, 966381, Control_c, 0, 64, 93
1, 966389, Note_off_c, 0, 70, 22
1, 966389, Poly_aftertouch_c, 0, 70, 0
1, 966395, Note_off_c, 0, 49, 53
1, 966395, Poly_aftertouch_c, 0, 49, 0
1, 966417, Control_c, 0, 64, 97
1, 966423, Note_off_c, 0, 37, 56
1, 966565, Note_on_c, 0, 49, 47
1, 966578, Poly_aftertouch_c, 0, 61, 32
1, 966587, Control_c, 0, 64, 93
1, 966589, Note_on_c, 0, 37, 56
1, 966642, Control_c, 0, 64, 89
1, 966670, Note_off_c, 0, 37, 51
1, 966675, Note_off_c, 0, 49, 38
1, 966675, Poly_aftertouch_c, 0, 49, 0
1, 966678, Control_c, 0, 64, 87
1, 966717, Control_c, 0, 64, 85
1, 966735, Control_c, 0, 64, 83
1, 966773, Control_c, 0, 64, 81
1, 966813, Note_on_c, 0, 66, 68
1, 966829, Control_c, 0, 64, 78
1, 966831, Poly_aftertouch_c, 0, 61, 24
1, 966835, Note_on_c, 0, 39, 61
1, 966850, Control_c, 0, 64, 76
1, 966858, Note_on_c, 0, 37, 52
1, 966859, Note_on_c, 0, 49, 45
1, 966867, Control_c, 0, 64, 73
1, 966885, Control_c, 0, 64, 69
1, 966896, Note_off_c, 0, 41, 55
1, 966896, Poly_aftertouch_c, 0, 41, 0
1, 966904, Control_c, 0, 64, 65
1, 966923, Control_c, 0, 64, 59
1, 966941, Control_c, 0, 64, 50
1, 966950, Note_off_c, 0, 49, 49
1, 966950, Poly_aftertouch_c, 0, 49, 0
1, 966960, Control_c, 0, 64, 44
1, 966964, Note_off_c, 0, 37, 58
1, 966970, Note_off_c, 0, 68, 60
1, 966970, Poly_aftertouch_c, 0, 68, 0
1, 966979, Control_c, 0, 64, 48
1, 966997, Control_c, 0, 64, 58
1, 967017, Control_c, 0, 64, 66
1, 967034, Control_c, 0, 64, 71
1, 967054, Control_c, 0, 64, 74
1, 967092, Poly_aftertouch_c, 0, 61, 32
1, 967104, Note_on_c, 0, 49, 41
1, 967120, Note_on_c, 0, 37, 46
1, 967148, Control_c, 0, 64, 76
1, 967169, Note_off_c, 0, 49, 54
1, 967169, Poly_aftertouch_c, 0, 49, 0
1, 967176, Note_off_c, 0, 37, 58
1, 967184, Control_c, 0, 64, 79
1, 967327, Note_on_c, 0, 49, 49
1, 967338, Note_on_c, 0, 37, 42
1, 967449, Note_off_c, 0, 49, 48
1, 967449, Poly_aftertouch_c, 0, 49, 0
1, 967470, Note_off_c, 0, 37, 55
1, 967645, Note_on_c, 0, 46, 60
1, 967650, Note_on_c, 0, 37, 53
1, 967655, Note_on_c, 0, 49, 50
1, 967782, Control_c, 0, 64, 77
1, 967819, Note_off_c, 0, 39, 32
1, 967839, Note_off_c, 0, 49, 36
1, 967839, Poly_aftertouch_c, 0, 49, 0
1, 967857, Control_c, 0, 64, 75
1, 967877, Control_c, 0, 67, 8
1, 967918, Note_off_c, 0, 37, 38
1, 968007, Control_c, 0, 67, 12
1, 968119, Control_c, 0, 67, 16
1, 968131, Note_on_c, 0, 37, 40
1, 968136, Note_on_c, 0, 49, 42
1, 968176, Control_c, 0, 67, 21
1, 968214, Control_c, 0, 67, 26
1, 968250, Control_c, 0, 67, 30
1, 968288, Control_c, 0, 64, 73
1, 968289, Control_c, 0, 67, 35
1, 968326, Control_c, 0, 67, 40
1, 968329, Note_off_c, 0, 37, 50
1, 968334, Note_off_c, 0, 49, 35
1, 968334, Poly_aftertouch_c, 0, 49, 0
1, 968362, Control_c, 0, 67, 44
1, 968424, Poly_aftertouch_c, 0, 61, 24
1, 968474, Control_c, 0, 64, 71
1, 968549, Note_on_c, 0, 65, 57
1, 968582, Note_on_c, 0, 44, 53
1, 968592, Note_on_c, 0, 49, 46
1, 968603, Note_on_c, 0, 37, 42
1, 968606, Control_c, 0, 67, 49
1, 968613, Note_off_c, 0, 66, 54
1, 968642, Control_c, 0, 67, 53
1, 968662, Control_c, 0, 67, 57
1, 968680, Control_c, 0, 67, 61
1, 968699, Control_c, 0, 67, 65
1, 968737, Control_c, 0, 64, 69
1, 968739, Control_c, 0, 67, 71
1, 968766, Note_off_c, 0, 49, 48
1, 968766, Poly_aftertouch_c, 0, 49, 0
1, 968769, Note_off_c, 0, 46, 38
1, 968773, Control_c, 0, 67, 77
1, 968783, Note_off_c, 0, 37, 49
1, 968811, Control_c, 0, 67, 83
1, 968831, Control_c, 0, 64, 68
1, 968848, Control_c, 0, 67, 87
1, 968904, Control_c, 0, 64, 67
1, 968905, Control_c, 0, 67, 92
1, 968943, Control_c, 0, 67, 97
1, 968979, Control_c, 0, 67, 102
1, 969047, Note_on_c, 0, 37, 44
1, 969053, Note_on_c, 0, 49, 43
1, 969054, Control_c, 0, 67, 107
1, 969129, Control_c, 0, 67, 111
1, 969205, Control_c, 0, 64, 66
1, 969223, Control_c, 0, 67, 115
1, 969231, Note_off_c, 0, 49, 49
1, 969231, Poly_aftertouch_c, 0, 49, 0
1, 969252, Note_off_c, 0, 37, 51
1, 969503, Control_c, 0, 64, 65
1, 969539, Note_on_c, 0, 63, 52
1, 969568, Note_on_c, 0, 37, 47
1, 969571, Note_on_c, 0, 49, 38
1, 969573, Note_on_c, 0, 42, 50
1, 969653, Control_c, 0, 64, 64
1, 969656, Note_off_c, 0, 65, 54
1, 969663, Note_off_c, 0, 44, 51
1, 969728, Control_c, 0, 64, 63
1, 969746, Control_c, 0, 64, 62
1, 969783, Control_c, 0, 64, 61
1, 969784, Control_c, 0, 67, 119
1, 969786, Note_off_c, 0, 49, 45
1, 969786, Poly_aftertouch_c, 0, 49, 0
1, 969788, Note_off_c, 0, 37, 51
1, 969840, Control_c, 0, 64, 60
1, 969896, Control_c, 0, 64, 58
1, 969989, Control_c, 0, 64, 56
1, 970065, Control_c, 0, 64, 53
1, 970073, Note_on_c, 0, 49, 41
1, 970083, Note_on_c, 0, 37, 45
1, 970102, Control_c, 0, 64, 51
1, 970140, Control_c, 0, 64, 49
1, 970157, Control_c, 0, 64, 47
1, 970194, Control_c, 0, 64, 44
1, 970233, Control_c, 0, 64, 41
1, 970270, Control_c, 0, 64, 34
1, 970288, Control_c, 0, 64, 30
1, 970307, Note_off_c, 0, 49, 36
1, 970307, Poly_aftertouch_c, 0, 49, 0
1, 970309, Note_off_c, 0, 37, 39
1, 970326, Control_c, 0, 64, 22
1, 970344, Control_c, 0, 64, 12
1, 970364, Control_c, 0, 64, 0
1, 970381, Control_c, 0, 67, 115
1, 970438, Control_c, 0, 67, 110
1, 970475, Control_c, 0, 67, 105
1, 970512, Control_c, 0, 67, 95
1, 970531, Control_c, 0, 67, 86
1, 970550, Control_c, 0, 67, 78
1, 970570, Control_c, 0, 67, 72
1, 970587, Control_c, 0, 67, 66
1, 970606, Control_c, 0, 67, 61
1, 970615, Note_on_c, 0, 65, 47
1, 970624, Control_c, 0, 67, 56
1, 970644, Control_c, 0, 67, 50
1, 970653, Note_on_c, 0, 49, 41
1, 970659, Note_on_c, 0, 44, 38
1, 970662, Control_c, 0, 67, 43
1, 970669, Note_on_c, 0, 37, 36
1, 970681, Control_c, 0, 67, 35
1, 970700, Control_c, 0, 67, 27
1, 970717, Note_off_c, 0, 63, 51
1, 970717, Poly_aftertouch_c, 0, 63, 0
1, 970717, Control_c, 0, 67, 19
1, 970734, Note_off_c, 0, 42, 51
1, 970736, Control_c, 0, 67, 12
1, 970811, Control_c, 0, 67, 0
1, 970899, Note_off_c, 0, 49, 36
1, 970899, Poly_aftertouch_c, 0, 49, 0
1, 970901, Note_off_c, 0, 37, 37
1, 971276, Note_on_c, 0, 49, 35
1, 971288, Note_on_c, 0, 37, 32
1, 971519, Note_off_c, 0, 37, 42
1, 971535, Note_off_c, 0, 49, 38
1, 971535, Poly_aftertouch_c, 0, 49, 0
1, 972121, Control_c, 0, 67, 8
1, 972177, Control_c, 0, 67, 12
1, 972232, Control_c, 0, 67, 18
1, 972252, Control_c, 0, 67, 22
1, 972270, Control_c, 0, 67, 29
1, 972289, Control_c, 0, 67, 37
1, 972308, Control_c, 0, 67, 45
1, 972326, Control_c, 0, 67, 53
1, 972345, Control_c, 0, 67, 60
1, 972364, Control_c, 0, 67, 66
1, 972383, Control_c, 0, 67, 71
1, 972400, Control_c, 0, 67, 76
1, 972420, Control_c, 0, 67, 81
1, 972438, Control_c, 0, 67, 87
1, 972457, Control_c, 0, 67, 92
1, 972475, Control_c, 0, 67, 97
1, 972495, Control_c, 0, 67, 103
1, 972515, Control_c, 0, 67, 109
1, 972532, Control_c, 0, 67, 113
1, 972571, Control_c, 0, 67, 117
1, 972585, Note_on_c, 0, 49, 30
1, 972595, Note_on_c, 0, 37, 24
1, 972626, Control_c, 0, 67, 122
1, 972775, Control_c, 0, 67, 127
1, 972804, Note_off_c, 0, 37, 40
1, 972847, Note_off_c, 0, 49, 37
1, 972847, Poly_aftertouch_c, 0, 49, 0
1, 973416, Poly_aftertouch_c, 0, 61, 22
1, 973505, Note_off_c, 0, 61, 19
1, 973505, Poly_aftertouch_c, 0, 61, 0
1, 973506, Poly_aftertouch_c, 0, 61, 0
1, 973517, Note_off_c, 0, 73, 45
1, 973517, Poly_aftertouch_c, 0, 73, 0
1, 973546, Note_off_c, 0, 65, 55
1, 973804, Control_c, 0, 64, 11
1, 973822, Control_c, 0, 64, 25
1, 973841, Control_c, 0, 64, 38
1, 973861, Control_c, 0, 64, 48
1, 973878, Control_c, 0, 64, 58
1, 973899, Control_c, 0, 64, 65
1, 973916, Control_c, 0, 64, 69
1, 973935, Control_c, 0, 64, 72
1, 973953, Control_c, 0, 64, 75
1, 973971, Control_c, 0, 64, 78
1, 973991, Control_c, 0, 64, 82
1, 974009, Control_c, 0, 64, 87
1, 974027, Control_c, 0, 64, 93
1, 974047, Control_c, 0, 64, 101
1, 974065, Control_c, 0, 64, 109
1, 974084, Control_c, 0, 64, 116
1, 974102, Control_c, 0, 64, 122
1, 974122, Control_c, 0, 64, 126
1, 974408, Note_on_c, 0, 37, 30
1, 974412, Note_on_c, 0, 49, 14
1, 974873, Note_off_c, 0, 44, 32
1, 975190, Poly_aftertouch_c, 0, 37, 22
1, 975207, Poly_aftertouch_c, 0, 49, 20
1, 975216, Note_off_c, 0, 49, 22
1, 975216, Poly_aftertouch_c, 0, 49, 0
1, 975233, Note_off_c, 0, 37, 19
1, 975233, Poly_aftertouch_c, 0, 37, 0
1, 975703, Note_on_c, 0, 37, 39
1, 975736, Note_on_c, 0, 49, 31
1, 975954, Control_c, 0, 64, 119
1, 975972, Control_c, 0, 64, 105
1, 975992, Control_c, 0, 64, 90
1, 976010, Control_c, 0, 64, 80
1, 976029, Control_c, 0, 64, 77
1, 976047, Control_c, 0, 64, 79
1, 976067, Control_c, 0, 64, 81
1, 976084, Control_c, 0, 64, 84
1, 976103, Control_c, 0, 64, 89
1, 976123, Control_c, 0, 64, 97
1, 976141, Control_c, 0, 64, 107
1, 976160, Control_c, 0, 64, 120
1, 976179, Control_c, 0, 64, 127
1, 976649, Poly_aftertouch_c, 0, 49, 24
1, 976711, Note_off_c, 0, 49, 25
1, 976711, Poly_aftertouch_c, 0, 49, 0
1, 977116, Note_on_c, 0, 48, 30
1, 977116, Note_on_c, 0, 36, 35
1, 978029, Note_off_c, 0, 36, 31
1, 978132, Note_off_c, 0, 48, 24
1, 978282, Note_off_c, 0, 37, 36
1, 978282, Poly_aftertouch_c, 0, 37, 0
1, 978592, Note_on_c, 0, 61, 45
1, 978625, Note_on_c, 0, 49, 31
1, 978643, Note_on_c, 0, 35, 38
1, 978652, Note_on_c, 0, 37, 36
1, 978658, Note_on_c, 0, 47, 31
1, 978777, Control_c, 0, 64, 119
1, 978797, Control_c, 0, 64, 112
1, 978815, Control_c, 0, 64, 104
1, 978833, Control_c, 0, 64, 94
1, 978852, Control_c, 0, 64, 81
1, 978871, Control_c, 0, 64, 66
1, 978890, Control_c, 0, 64, 55
1, 978908, Control_c, 0, 64, 49
1, 978946, Control_c, 0, 64, 52
1, 978965, Control_c, 0, 64, 55
1, 978983, Control_c, 0, 64, 60
1, 979001, Control_c, 0, 64, 67
1, 979022, Control_c, 0, 64, 74
1, 979038, Control_c, 0, 64, 80
1, 979058, Control_c, 0, 64, 87
1, 979077, Control_c, 0, 64, 94
1, 979096, Control_c, 0, 64, 101
1, 979114, Control_c, 0, 64, 109
1, 979132, Control_c, 0, 64, 118
1, 979152, Control_c, 0, 64, 127
1, 979209, Note_off_c, 0, 49, 35
1, 979209, Poly_aftertouch_c, 0, 49, 0
1, 979360, Note_off_c, 0, 35, 40
1, 979428, Note_off_c, 0, 47, 31
1, 979428, Poly_aftertouch_c, 0, 47, 0
1, 979465, Note_off_c, 0, 61, 40
1, 979597, Note_off_c, 0, 37, 40
1, 979597, Poly_aftertouch_c, 0, 37, 0
1, 980013, Note_on_c, 0, 66, 47
1, 980024, Note_on_c, 0, 61, 42
1, 980060, Note_on_c, 0, 34, 41
1, 980064, Note_on_c, 0, 46, 32
1, 980068, Note_on_c, 0, 54, 26
1, 980074, Note_on_c, 0, 37, 39
1, 980236, Control_c, 0, 64, 121
1, 980255, Control_c, 0, 64, 114
1, 980273, Control_c, 0, 64, 106
1, 980292, Control_c, 0, 64, 96
1, 980312, Control_c, 0, 64, 82
1, 980329, Control_c, 0, 64, 68
1, 980348, Control_c, 0, 64, 57
1, 980367, Control_c, 0, 64, 51
1, 980404, Control_c, 0, 64, 53
1, 980423, Control_c, 0, 64, 57
1, 980442, Control_c, 0, 64, 61
1, 980460, Control_c, 0, 64, 68
1, 980479, Control_c, 0, 64, 75
1, 980498, Control_c, 0, 64, 81
1, 980516, Control_c, 0, 64, 89
1, 980535, Control_c, 0, 64, 97
1, 980553, Control_c, 0, 64, 104
1, 980574, Control_c, 0, 64, 112
1, 980591, Control_c, 0, 64, 120
1, 980610, Control_c, 0, 64, 127
1, 980910, Note_off_c, 0, 37, 28
1, 980910, Poly_aftertouch_c, 0, 37, 0
1, 980930, Note_off_c, 0, 34, 26
1, 980943, Note_off_c, 0, 46, 30
1, 981355, Note_on_c, 0, 37, 40
1, 981355, Note_on_c, 0, 45, 41
1, 981376, Note_on_c, 0, 33, 39
1, 981469, Control_c, 0, 64, 121
1, 981489, Control_c, 0, 64, 114
1, 981507, Control_c, 0, 64, 106
1, 981526, Control_c, 0, 64, 96
1, 981546, Control_c, 0, 64, 83
1, 981564, Control_c, 0, 64, 67
1, 981583, Control_c, 0, 64, 55
1, 981601, Control_c, 0, 64, 47
1, 981638, Control_c, 0, 64, 51
1, 981657, Control_c, 0, 64, 56
1, 981675, Control_c, 0, 64, 63
1, 981695, Control_c, 0, 64, 70
1, 981714, Control_c, 0, 64, 77
1, 981732, Control_c, 0, 64, 85
1, 981751, Control_c, 0, 64, 93
1, 981769, Control_c, 0, 64, 101
1, 981788, Control_c, 0, 64, 107
1, 981806, Control_c, 0, 64, 114
1, 981826, Control_c, 0, 64, 120
1, 981844, Control_c, 0, 64, 125
1, 982195, Note_off_c, 0, 45, 34
1, 982245, Note_off_c, 0, 61, 31
1, 982309, Note_off_c, 0, 33, 31
1, 982414, Note_off_c, 0, 54, 39
1, 982431, Note_off_c, 0, 66, 36
1, 982487, Note_off_c, 0, 37, 32
1, 982487, Poly_aftertouch_c, 0, 37, 0
1, 982839, Note_on_c, 0, 61, 43
1, 982841, Note_on_c, 0, 65, 45
1, 982872, Note_on_c, 0, 53, 30
1, 982873, Note_on_c, 0, 44, 42
1, 982881, Note_on_c, 0, 32, 43
1, 982889, Note_on_c, 0, 37, 42
1, 983060, Control_c, 0, 64, 117
1, 983078, Control_c, 0, 64, 109
1, 983097, Control_c, 0, 64, 99
1, 983116, Control_c, 0, 64, 87
1, 983134, Control_c, 0, 64, 71
1, 983152, Control_c, 0, 64, 57
1, 983172, Control_c, 0, 64, 45
1, 983190, Control_c, 0, 64, 39
1, 983227, Control_c, 0, 64, 44
1, 983247, Control_c, 0, 64, 49
1, 983265, Control_c, 0, 64, 55
1, 983284, Control_c, 0, 64, 63
1, 983302, Control_c, 0, 64, 71
1, 983322, Control_c, 0, 64, 78
1, 983339, Control_c, 0, 64, 84
1, 983358, Control_c, 0, 64, 90
1, 983378, Control_c, 0, 64, 95
1, 983396, Control_c, 0, 64, 99
1, 983415, Control_c, 0, 64, 104
1, 983433, Control_c, 0, 64, 110
1, 983453, Control_c, 0, 64, 117
1, 983470, Control_c, 0, 64, 123
1, 983489, Control_c, 0, 64, 127
1, 983514, Note_off_c, 0, 61, 25
1, 983704, Note_off_c, 0, 53, 38
1, 983704, Poly_aftertouch_c, 0, 53, 0
1, 983743, Note_off_c, 0, 32, 32
1, 983767, Note_off_c, 0, 44, 28
1, 983800, Note_off_c, 0, 37, 30
1, 983800, Poly_aftertouch_c, 0, 37, 0
1, 984301, Note_on_c, 0, 58, 47
1, 984307, Note_on_c, 0, 63, 49
1, 984326, Note_on_c, 0, 43, 41
1, 984333, Note_on_c, 0, 37, 44
1, 984333, Note_on_c, 0, 31, 44
1, 984340, Note_on_c, 0, 51, 33
1, 984481, Control_c, 0, 64, 119
1, 984499, Note_off_c, 0, 65, 34
1, 984499, Control_c, 0, 64, 110
1, 984518, Control_c, 0, 64, 100
1, 984538, Control_c, 0, 64, 86
1, 984555, Control_c, 0, 64, 70
1, 984574, Control_c, 0, 64, 55
1, 984593, Control_c, 0, 64, 42
1, 984611, Control_c, 0, 64, 34
1, 984648, Control_c, 0, 64, 42
1, 984668, Control_c, 0, 64, 47
1, 984685, Control_c, 0, 64, 56
1, 984705, Control_c, 0, 64, 65
1, 984724, Control_c, 0, 64, 74
1, 984742, Control_c, 0, 64, 81
1, 984761, Control_c, 0, 64, 88
1, 984779, Control_c, 0, 64, 94
1, 984800, Control_c, 0, 64, 101
1, 984816, Control_c, 0, 64, 107
1, 984836, Control_c, 0, 64, 115
1, 984854, Control_c, 0, 64, 121
1, 984874, Control_c, 0, 64, 126
1, 985062, Note_off_c, 0, 43, 39
1, 985167, Note_off_c, 0, 31, 36
1, 985314, Note_off_c, 0, 37, 34
1, 985314, Poly_aftertouch_c, 0, 37, 0
1, 985693, Note_on_c, 0, 42, 43
1, 985697, Note_on_c, 0, 30, 46
1, 985702, Note_on_c, 0, 36, 43
1, 985826, Control_c, 0, 64, 122
1, 985847, Control_c, 0, 64, 117
1, 985864, Control_c, 0, 64, 111
1, 985883, Control_c, 0, 64, 106
1, 985901, Control_c, 0, 64, 99
1, 985921, Control_c, 0, 64, 91
1, 985939, Control_c, 0, 64, 79
1, 985957, Control_c, 0, 64, 66
1, 985977, Control_c, 0, 64, 53
1, 985995, Control_c, 0, 64, 42
1, 986014, Control_c, 0, 64, 33
1, 986051, Control_c, 0, 64, 37
1, 986070, Control_c, 0, 64, 43
1, 986088, Control_c, 0, 64, 52
1, 986107, Control_c, 0, 64, 63
1, 986126, Control_c, 0, 64, 73
1, 986145, Control_c, 0, 64, 81
1, 986165, Control_c, 0, 64, 86
1, 986183, Control_c, 0, 64, 90
1, 986220, Control_c, 0, 64, 98
1, 986238, Control_c, 0, 64, 105
1, 986258, Control_c, 0, 64, 112
1, 986276, Control_c, 0, 64, 118
1, 986293, Control_c, 0, 64, 122
1, 986331, Control_c, 0, 64, 127
1, 986442, Note_off_c, 0, 58, 43
1, 986442, Poly_aftertouch_c, 0, 58, 0
1, 986527, Note_off_c, 0, 30, 35
1, 986536, Note_off_c, 0, 42, 35
1, 986619, Note_off_c, 0, 36, 30
1, 986638, Note_off_c, 0, 51, 36
1, 986704, Note_off_c, 0, 63, 52
1, 986704, Poly_aftertouch_c, 0, 63, 0
1, 987071, Note_on_c, 0, 65, 47
1, 987097, Note_on_c, 0, 60, 40
1, 987099, Note_on_c, 0, 51, 32
1, 987101, Note_on_c, 0, 57, 33
1, 987102, Note_on_c, 0, 29, 41
1, 987103, Note_on_c, 0, 41, 40
1, 987105, Note_on_c, 0, 36, 42
1, 987248, Control_c, 0, 64, 122
1, 987267, Control_c, 0, 64, 114
1, 987286, Control_c, 0, 64, 102
1, 987304, Control_c, 0, 64, 87
1, 987323, Control_c, 0, 64, 68
1, 987341, Control_c, 0, 64, 47
1, 987378, Control_c, 0, 64, 0
1, 987417, Control_c, 0, 64, 13
1, 987434, Control_c, 0, 64, 32
1, 987453, Control_c, 0, 64, 49
1, 987473, Control_c, 0, 64, 65
1, 987491, Control_c, 0, 64, 78
1, 987510, Control_c, 0, 64, 87
1, 987528, Control_c, 0, 64, 96
1, 987548, Control_c, 0, 64, 104
1, 987565, Control_c, 0, 64, 113
1, 987584, Control_c, 0, 64, 122
1, 987603, Control_c, 0, 64, 127
1, 987694, Note_off_c, 0, 57, 34
1, 987694, Poly_aftertouch_c, 0, 57, 0
1, 987740, Note_off_c, 0, 65, 39
1, 987783, Poly_aftertouch_c, 0, 41, 20
1, 987798, Note_off_c, 0, 41, 35
1, 987798, Poly_aftertouch_c, 0, 41, 0
1, 987832, Note_off_c, 0, 36, 33
1, 987910, Note_off_c, 0, 60, 36
1, 987910, Poly_aftertouch_c, 0, 60, 0
1, 987969, Poly_aftertouch_c, 0, 29, 24
1, 988019, Note_off_c, 0, 29, 29
1, 988019, Poly_aftertouch_c, 0, 29, 0
1, 988110, Note_off_c, 0, 51, 38
1, 988706, Control_c, 0, 67, 123
1, 988721, Note_on_c, 0, 61, 51
1, 988739, Note_on_c, 0, 58, 43
1, 988747, Note_on_c, 0, 34, 45
1, 988750, Note_on_c, 0, 40, 35
1, 988751, Note_on_c, 0, 49, 28
1, 988756, Note_on_c, 0, 28, 42
1, 988759, Note_on_c, 0, 56, 38
1, 988764, Control_c, 0, 67, 118
1, 988800, Control_c, 0, 67, 113
1, 988837, Control_c, 0, 67, 105
1, 988857, Control_c, 0, 64, 119
1, 988858, Control_c, 0, 67, 99
1, 988876, Control_c, 0, 64, 108
1, 988877, Control_c, 0, 67, 91
1, 988894, Control_c, 0, 64, 93
1, 988895, Control_c, 0, 67, 81
1, 988912, Control_c, 0, 64, 75
1, 988915, Control_c, 0, 67, 71
1, 988930, Control_c, 0, 64, 61
1, 988931, Control_c, 0, 67, 62
1, 988950, Control_c, 0, 64, 57
1, 988952, Control_c, 0, 67, 52
1, 988969, Control_c, 0, 64, 60
1, 988970, Control_c, 0, 67, 42
1, 988987, Control_c, 0, 64, 65
1, 988988, Control_c, 0, 67, 32
1, 989005, Control_c, 0, 64, 71
1, 989006, Control_c, 0, 67, 23
1, 989025, Control_c, 0, 64, 80
1, 989026, Control_c, 0, 67, 15
1, 989043, Control_c, 0, 64, 93
1, 989061, Control_c, 0, 64, 113
1, 989080, Control_c, 0, 64, 127
1, 989117, Control_c, 0, 67, 0
1, 989206, Note_off_c, 0, 56, 35
1, 989394, Note_off_c, 0, 49, 31
1, 989394, Poly_aftertouch_c, 0, 49, 0
1, 989410, Note_off_c, 0, 58, 27
1, 989410, Poly_aftertouch_c, 0, 58, 0
1, 989436, Note_off_c, 0, 40, 28
1, 989464, Note_off_c, 0, 28, 34
1, 989773, Note_off_c, 0, 34, 19
1, 989804, Note_off_c, 0, 61, 41
1, 990492, Note_on_c, 0, 63, 44
1, 990503, Note_on_c, 0, 58, 38
1, 990523, Note_on_c, 0, 61, 40
1, 990524, Note_on_c, 0, 51, 28
1, 990530, Note_on_c, 0, 27, 45
1, 990532, Note_on_c, 0, 34, 39
1, 990540, Note_on_c, 0, 39, 35
1, 990542, Note_on_c, 0, 55, 26
1, 990670, Control_c, 0, 64, 119
1, 990688, Control_c, 0, 64, 115
1, 990725, Control_c, 0, 64, 109
1, 990763, Control_c, 0, 64, 101
1, 990782, Control_c, 0, 64, 93
1, 990800, Control_c, 0, 64, 85
1, 990819, Control_c, 0, 64, 79
1, 990838, Control_c, 0, 64, 74
1, 990856, Control_c, 0, 64, 72
1, 990894, Control_c, 0, 64, 69
1, 990912, Control_c, 0, 64, 67
1, 990931, Control_c, 0, 64, 64
1, 990951, Control_c, 0, 64, 62
1, 990987, Control_c, 0, 64, 61
1, 991025, Control_c, 0, 64, 56
1, 991044, Control_c, 0, 64, 51
1, 991062, Control_c, 0, 64, 46
1, 991081, Control_c, 0, 64, 41
1, 991100, Control_c, 0, 64, 35
1, 991119, Control_c, 0, 64, 29
1, 991138, Control_c, 0, 64, 25
1, 991174, Control_c, 0, 64, 17
1, 991194, Control_c, 0, 64, 11
1, 991231, Control_c, 0, 64, 0
1, 991455, Control_c, 0, 64, 8
1, 991492, Control_c, 0, 64, 15
1, 991529, Control_c, 0, 64, 20
1, 991567, Control_c, 0, 64, 28
1, 991587, Control_c, 0, 64, 32
1, 991604, Control_c, 0, 64, 39
1, 991624, Control_c, 0, 64, 46
1, 991642, Control_c, 0, 64, 53
1, 991661, Control_c, 0, 64, 59
1, 991679, Control_c, 0, 64, 64
1, 991680, Control_c, 0, 67, 8
1, 991698, Control_c, 0, 64, 66
1, 991717, Control_c, 0, 64, 67
1, 991735, Control_c, 0, 67, 12
1, 991754, Control_c, 0, 64, 70
1, 991773, Control_c, 0, 64, 73
1, 991792, Control_c, 0, 64, 76
1, 991793, Control_c, 0, 67, 17
1, 991810, Control_c, 0, 64, 79
1, 991829, Control_c, 0, 64, 82
1, 991829, Control_c, 0, 67, 24
1, 991850, Control_c, 0, 64, 85
1, 991851, Control_c, 0, 67, 29
1, 991867, Control_c, 0, 64, 90
1, 991869, Control_c, 0, 67, 35
1, 991885, Control_c, 0, 64, 95
1, 991886, Control_c, 0, 67, 42
1, 991904, Control_c, 0, 64, 100
1, 991906, Control_c, 0, 67, 49
1, 991923, Control_c, 0, 64, 106
1, 991923, Control_c, 0, 67, 57
1, 991942, Control_c, 0, 64, 111
1, 991943, Control_c, 0, 67, 65
1, 991947, Note_off_c, 0, 27, 36
1, 991961, Control_c, 0, 64, 118
1, 991963, Control_c, 0, 67, 74
1, 991979, Control_c, 0, 64, 123
1, 991980, Control_c, 0, 67, 82
1, 991998, Control_c, 0, 64, 127
1, 991999, Control_c, 0, 67, 89
1, 992015, Control_c, 0, 67, 97
1, 992035, Control_c, 0, 67, 105
1, 992043, Poly_aftertouch_c, 0, 55, 24
1, 992054, Note_off_c, 0, 39, 25
1, 992054, Control_c, 0, 67, 112
1, 992071, Control_c, 0, 67, 116
1, 992084, Note_off_c, 0, 34, 19
1, 992109, Control_c, 0, 67, 120
1, 992138, Note_off_c, 0, 55, 30
1, 992138, Poly_aftertouch_c, 0, 55, 0
1, 992193, Poly_aftertouch_c, 0, 61, 22
1, 992210, Note_off_c, 0, 61, 31
1, 992210, Poly_aftertouch_c, 0, 61, 0
1, 992224, Note_off_c, 0, 58, 41
1, 992224, Poly_aftertouch_c, 0, 58, 0
1, 992492, Note_off_c, 0, 51, 35
1, 992694, Note_off_c, 0, 63, 36
1, 992694, Poly_aftertouch_c, 0, 63, 0
1, 993662, Note_on_c, 0, 60, 47
1, 993682, Note_on_c, 0, 54, 36
1, 993699, Note_on_c, 0, 44, 30
1, 993720, Note_on_c, 0, 32, 32
1, 993849, Control_c, 0, 64, 123
1, 993868, Control_c, 0, 64, 117
1, 993885, Control_c, 0, 64, 111
1, 993906, Control_c, 0, 64, 107
1, 993924, Control_c, 0, 64, 102
1, 993942, Control_c, 0, 64, 97
1, 993961, Control_c, 0, 64, 91
1, 993979, Control_c, 0, 64, 84
1, 993999, Control_c, 0, 64, 77
1, 994017, Control_c, 0, 64, 72
1, 994035, Control_c, 0, 64, 69
1, 994073, Control_c, 0, 64, 67
1, 994091, Control_c, 0, 64, 66
1, 994110, Control_c, 0, 64, 64
1, 994130, Control_c, 0, 64, 61
1, 994147, Control_c, 0, 64, 59
1, 994167, Control_c, 0, 64, 56
1, 994205, Control_c, 0, 64, 52
1, 994222, Control_c, 0, 64, 48
1, 994242, Control_c, 0, 64, 43
1, 994260, Control_c, 0, 64, 37
1, 994297, Control_c, 0, 64, 31
1, 994447, Control_c, 0, 64, 38
1, 994467, Control_c, 0, 64, 42
1, 994484, Control_c, 0, 64, 47
1, 994503, Control_c, 0, 64, 54
1, 994522, Control_c, 0, 64, 62
1, 994541, Control_c, 0, 64, 69
1, 994559, Control_c, 0, 64, 74
1, 994578, Control_c, 0, 64, 78
1, 994597, Control_c, 0, 64, 81
1, 994616, Control_c, 0, 64, 86
1, 994633, Control_c, 0, 64, 91
1, 994653, Control_c, 0, 64, 98
1, 994671, Control_c, 0, 64, 104
1, 994690, Control_c, 0, 64, 110
1, 994708, Control_c, 0, 64, 115
1, 994729, Control_c, 0, 64, 121
1, 994746, Control_c, 0, 64, 126
1, 995460, Note_off_c, 0, 44, 32
1, 995472, Note_off_c, 0, 32, 25
1, 995981, Note_on_c, 0, 61, 38
1, 995987, Note_on_c, 0, 49, 29
1, 996392, Note_off_c, 0, 61, 32
1, 996392, Poly_aftertouch_c, 0, 61, 0
1, 996475, Note_off_c, 0, 49, 35
1, 996475, Poly_aftertouch_c, 0, 49, 0
1, 997572, Note_on_c, 0, 61, 35
1, 997610, Note_on_c, 0, 49, 17
1, 997615, Note_on_c, 0, 25, 38
1, 997654, Note_on_c, 0, 37, 14
1, 997793, Control_c, 0, 64, 119
1, 997814, Control_c, 0, 64, 113
1, 997831, Control_c, 0, 64, 107
1, 997850, Control_c, 0, 64, 101
1, 997869, Control_c, 0, 64, 94
1, 997888, Control_c, 0, 64, 87
1, 997906, Control_c, 0, 64, 80
1, 997926, Control_c, 0, 64, 75
1, 997944, Control_c, 0, 64, 70
1, 997962, Control_c, 0, 64, 67
1, 997981, Control_c, 0, 64, 66
1, 998000, Control_c, 0, 64, 64
1, 998019, Control_c, 0, 64, 62
1, 998037, Control_c, 0, 64, 60
1, 998055, Control_c, 0, 64, 56
1, 998075, Control_c, 0, 64, 52
1, 998093, Control_c, 0, 64, 48
1, 998112, Control_c, 0, 64, 43
1, 998130, Control_c, 0, 64, 39
1, 998150, Control_c, 0, 64, 34
1, 998168, Control_c, 0, 64, 30
1, 998188, Control_c, 0, 64, 24
1, 998205, Control_c, 0, 64, 20
1, 998262, Control_c, 0, 64, 16
1, 998300, Control_c, 0, 64, 0
1, 998430, Control_c, 0, 64, 11
1, 998449, Control_c, 0, 64, 18
1, 998467, Control_c, 0, 64, 22
1, 998486, Control_c, 0, 64, 27
1, 998505, Control_c, 0, 64, 31
1, 998523, Control_c, 0, 64, 38
1, 998542, Control_c, 0, 64, 45
1, 998561, Control_c, 0, 64, 53
1, 998578, Control_c, 0, 64, 61
1, 998598, Control_c, 0, 64, 68
1, 998616, Control_c, 0, 64, 70
1, 998653, Control_c, 0, 64, 73
1, 998673, Control_c, 0, 64, 75
1, 998691, Control_c, 0, 64, 78
1, 998710, Control_c, 0, 64, 82
1, 998731, Control_c, 0, 64, 86
1, 998767, Control_c, 0, 64, 93
1, 998785, Control_c, 0, 64, 98
1, 998804, Control_c, 0, 64, 103
1, 998822, Control_c, 0, 64, 109
1, 998841, Control_c, 0, 64, 114
1, 998859, Control_c, 0, 64, 119
1, 998897, Control_c, 0, 64, 124
1, 999016, Note_off_c, 0, 25, 32
1, 999036, Poly_aftertouch_c, 0, 37, 24
1, 999109, Poly_aftertouch_c, 0, 54, 24
1, 999131, Note_off_c, 0, 37, 31
1, 999131, Poly_aftertouch_c, 0, 37, 0
1, 999187, Note_off_c, 0, 54, 32
1, 999187, Poly_aftertouch_c, 0, 54, 0
1, 999273, Note_off_c, 0, 60, 36
1, 999273, Poly_aftertouch_c, 0, 60, 0
1, 1000481, Note_on_c, 0, 58, 38
1, 1000505, Note_on_c, 0, 54, 24
1, 1000528, Note_on_c, 0, 42, 25
1, 1000537, Note_on_c, 0, 30, 28
1, 1000748, Control_c, 0, 64, 116
1, 1000768, Control_c, 0, 64, 108
1, 1000786, Control_c, 0, 64, 98
1, 1000805, Control_c, 0, 64, 89
1, 1000823, Control_c, 0, 64, 80
1, 1000842, Control_c, 0, 64, 72
1, 1000860, Control_c, 0, 64, 68
1, 1000879, Control_c, 0, 64, 65
1, 1000898, Control_c, 0, 64, 63
1, 1000918, Control_c, 0, 64, 60
1, 1000935, Control_c, 0, 64, 55
1, 1000955, Control_c, 0, 64, 46
1, 1000973, Control_c, 0, 64, 32
1, 1000992, Control_c, 0, 64, 16
1, 1001010, Control_c, 0, 64, 0
1, 1001196, Control_c, 0, 64, 13
1, 1001216, Control_c, 0, 64, 23
1, 1001235, Control_c, 0, 64, 33
1, 1001253, Control_c, 0, 64, 43
1, 1001272, Control_c, 0, 64, 54
1, 1001291, Control_c, 0, 64, 65
1, 1001310, Control_c, 0, 64, 73
1, 1001327, Control_c, 0, 64, 78
1, 1001346, Control_c, 0, 64, 82
1, 1001366, Control_c, 0, 64, 86
1, 1001384, Control_c, 0, 64, 90
1, 1001403, Control_c, 0, 64, 97
1, 1001421, Control_c, 0, 64, 105
1, 1001441, Control_c, 0, 64, 114
1, 1001459, Control_c, 0, 64, 121
1, 1001478, Control_c, 0, 64, 126
1, 1001768, Note_off_c, 0, 30, 28
1, 1001931, Note_off_c, 0, 58, 31
1, 1001931, Poly_aftertouch_c, 0, 58, 0
1, 1002138, Note_off_c, 0, 42, 23
1, 1002283, Note_off_c, 0, 54, 36
1, 1002283, Poly_aftertouch_c, 0, 54, 0
1, 1003459, Control_c, 0, 67, 116
1, 1003709, Note_on_c, 0, 56, 30
1, 1003721, Note_on_c, 0, 53, 21
1, 1003740, Note_on_c, 0, 37, 23
1, 1003773, Note_on_c, 0, 44, 14
1, 1003946, Control_c, 0, 64, 122
1, 1003964, Control_c, 0, 64, 114
1, 1003984, Control_c, 0, 64, 104
1, 1004002, Control_c, 0, 64, 95
1, 1004020, Control_c, 0, 64, 86
1, 1004041, Control_c, 0, 64, 77
1, 1004058, Control_c, 0, 64, 70
1, 1004077, Control_c, 0, 64, 65
1, 1004095, Control_c, 0, 64, 62
1, 1004114, Control_c, 0, 64, 60
1, 1004133, Control_c, 0, 64, 58
1, 1004151, Control_c, 0, 64, 55
1, 1004170, Control_c, 0, 64, 49
1, 1004189, Control_c, 0, 64, 41
1, 1004208, Control_c, 0, 64, 31
1, 1004226, Control_c, 0, 64, 24
1, 1004245, Control_c, 0, 64, 20
1, 1004282, Control_c, 0, 64, 14
1, 1004320, Control_c, 0, 64, 0
1, 1004825, Control_c, 0, 64, 10
1, 1004843, Control_c, 0, 64, 16
1, 1004862, Control_c, 0, 64, 20
1, 1004881, Control_c, 0, 64, 24
1, 1004899, Control_c, 0, 64, 29
1, 1004917, Control_c, 0, 64, 34
1, 1004937, Control_c, 0, 64, 40
1, 1004954, Control_c, 0, 64, 45
1, 1004974, Control_c, 0, 64, 51
1, 1004993, Control_c, 0, 64, 56
1, 1005012, Control_c, 0, 64, 60
1, 1005030, Control_c, 0, 64, 63
1, 1005049, Control_c, 0, 64, 65
1, 1005068, Control_c, 0, 64, 67
1, 1005086, Control_c, 0, 64, 69
1, 1005105, Control_c, 0, 64, 71
1, 1005123, Control_c, 0, 64, 73
1, 1005161, Control_c, 0, 64, 77
1, 1005199, Control_c, 0, 64, 81
1, 1005218, Control_c, 0, 64, 84
1, 1005235, Control_c, 0, 64, 87
1, 1005274, Control_c, 0, 64, 95
1, 1005311, Control_c, 0, 64, 101
1, 1005349, Control_c, 0, 64, 107
1, 1005386, Control_c, 0, 64, 113
1, 1005423, Control_c, 0, 64, 121
1, 1005441, Control_c, 0, 64, 126
1, 1005641, Note_off_c, 0, 49, 31
1, 1005641, Poly_aftertouch_c, 0, 49, 0
1, 1005876, Poly_aftertouch_c, 0, 53, 24
1, 1005886, Poly_aftertouch_c, 0, 37, 24
1, 1005927, Note_off_c, 0, 37, 22
1, 1005927, Poly_aftertouch_c, 0, 37, 0
1, 1005985, Note_off_c, 0, 53, 27
1, 1005985, Poly_aftertouch_c, 0, 53, 0
1, 1006082, Note_off_c, 0, 44, 33
1, 1006149, Note_off_c, 0, 56, 30
1, 1006403, Note_off_c, 0, 61, 39
1, 1006403, Poly_aftertouch_c, 0, 61, 0
1, 1008195, Note_on_c, 0, 77, 52
1, 1008290, Note_on_c, 0, 61, 25
1, 1009116, Note_on_c, 0, 68, 29
1, 1009429, Note_off_c, 0, 61, 38
1, 1009429, Poly_aftertouch_c, 0, 61, 0
1, 1009592, Note_off_c, 0, 68, 44
1, 1009592, Poly_aftertouch_c, 0, 68, 0
1, 1009757, Note_on_c, 0, 73, 47
1, 1009844, Note_on_c, 0, 56, 25
1, 1010195, Poly_aftertouch_c, 0, 77, 24
1, 1010295, Note_off_c, 0, 77, 28
1, 1010295, Poly_aftertouch_c, 0, 77, 0
1, 1010391, Note_on_c, 0, 65, 31
1, 1010761, Note_off_c, 0, 65, 38
1, 1010829, Note_on_c, 0, 68, 44
1, 1010887, Note_on_c, 0, 53, 29
1, 1010931, Note_off_c, 0, 56, 36
1, 1011229, Note_off_c, 0, 73, 22
1, 1011229, Poly_aftertouch_c, 0, 73, 0
1, 1011339, Note_on_c, 0, 61, 31
1, 1011379, Poly_aftertouch_c, 0, 53, 24
1, 1011419, Note_off_c, 0, 53, 41
1, 1011419, Poly_aftertouch_c, 0, 53, 0
1, 1011454, Note_off_c, 0, 61, 48
1, 1011454, Poly_aftertouch_c, 0, 61, 0
1, 1011762, Control_c, 0, 67, 112
1, 1011816, Control_c, 0, 67, 106
1, 1011819, Note_on_c, 0, 65, 41
1, 1011855, Control_c, 0, 67, 102
1, 1011861, Note_on_c, 0, 49, 35
1, 1011967, Control_c, 0, 67, 96
1, 1012023, Control_c, 0, 67, 91
1, 1012044, Note_off_c, 0, 68, 33
1, 1012044, Poly_aftertouch_c, 0, 68, 0
1, 1012062, Control_c, 0, 67, 86
1, 1012098, Control_c, 0, 67, 80
1, 1012135, Control_c, 0, 67, 74
1, 1012173, Control_c, 0, 67, 69
1, 1012209, Control_c, 0, 67, 63
1, 1012247, Control_c, 0, 67, 56
1, 1012263, Note_off_c, 0, 49, 38
1, 1012263, Poly_aftertouch_c, 0, 49, 0
1, 1012284, Control_c, 0, 67, 48
1, 1012322, Control_c, 0, 67, 40
1, 1012341, Control_c, 0, 67, 35
1, 1012359, Control_c, 0, 67, 29
1, 1012378, Control_c, 0, 67, 23
1, 1012384, Note_on_c, 0, 56, 28
1, 1012398, Control_c, 0, 67, 17
1, 1012415, Control_c, 0, 67, 12
1, 1012435, Control_c, 0, 67, 8
1, 1012563, Note_off_c, 0, 65, 37
1, 1012585, Control_c, 0, 67, 0
1, 1012596, Note_off_c, 0, 56, 36
1, 1013142, Note_on_c, 0, 80, 70
1, 1013223, Note_on_c, 0, 41, 33
1, 1013315, Control_c, 0, 64, 117
1, 1013333, Control_c, 0, 64, 110
1, 1013350, Control_c, 0, 64, 103
1, 1013426, Control_c, 0, 64, 107
1, 1013444, Control_c, 0, 64, 113
1, 1013464, Control_c, 0, 64, 125
1, 1013946, Note_on_c, 0, 49, 25
1, 1014423, Note_on_c, 0, 77, 61
1, 1014500, Note_on_c, 0, 44, 29
1, 1014542, Poly_aftertouch_c, 0, 49, 22
1, 1014565, Note_off_c, 0, 49, 25
1, 1014565, Poly_aftertouch_c, 0, 49, 0
1, 1014649, Poly_aftertouch_c, 0, 41, 24
1, 1014688, Note_off_c, 0, 80, 53
1, 1014688, Poly_aftertouch_c, 0, 80, 0
1, 1014856, Note_off_c, 0, 41, 21
1, 1014856, Poly_aftertouch_c, 0, 41, 0
1, 1014990, Note_on_c, 0, 53, 35
1, 1015116, Note_off_c, 0, 44, 34
1, 1015429, Note_on_c, 0, 73, 58
1, 1015478, Note_on_c, 0, 49, 36
1, 1015503, Note_off_c, 0, 53, 35
1, 1015503, Poly_aftertouch_c, 0, 53, 0
1, 1015719, Note_off_c, 0, 77, 38
1, 1015719, Poly_aftertouch_c, 0, 77, 0
1, 1015962, Note_on_c, 0, 56, 40
1, 1016068, Note_off_c, 0, 49, 36
1, 1016068, Poly_aftertouch_c, 0, 49, 0
1, 1016507, Note_on_c, 0, 68, 54
1, 1016561, Note_on_c, 0, 53, 42
1, 1016677, Note_off_c, 0, 56, 48
1, 1016993, Note_off_c, 0, 68, 59
1, 1016993, Poly_aftertouch_c, 0, 68, 0
1, 1017027, Note_off_c, 0, 73, 60
1, 1017027, Poly_aftertouch_c, 0, 73, 0
1, 1017140, Note_on_c, 0, 61, 43
1, 1017199, Note_off_c, 0, 61, 65
1, 1017199, Poly_aftertouch_c, 0, 61, 0
1, 1017303, Note_off_c, 0, 53, 58
1, 1017303, Poly_aftertouch_c, 0, 53, 0
1, 1017801, Note_on_c, 0, 30, 54
1, 1017880, Note_on_c, 0, 34, 62
1, 1017916, Note_on_c, 0, 37, 68
1, 1017937, Note_on_c, 0, 70, 58
1, 1017990, Note_on_c, 0, 78, 69
1, 1018006, Note_on_c, 0, 42, 70
1, 1018062, Control_c, 0, 64, 119
1, 1018073, Note_on_c, 0, 82, 71
1, 1018081, Control_c, 0, 64, 114
1, 1018101, Control_c, 0, 64, 110
1, 1018118, Control_c, 0, 64, 104
1, 1018138, Control_c, 0, 64, 94
1, 1018156, Control_c, 0, 64, 80
1, 1018176, Control_c, 0, 64, 62
1, 1018194, Control_c, 0, 64, 39
1, 1018205, Note_on_c, 0, 85, 93
1, 1018212, Control_c, 0, 64, 0
1, 1018269, Control_c, 0, 64, 40
1, 1018288, Control_c, 0, 64, 66
1, 1018307, Control_c, 0, 64, 83
1, 1018325, Control_c, 0, 64, 103
1, 1018344, Control_c, 0, 64, 127
1, 1018607, Note_off_c, 0, 30, 51
1, 1018651, Note_off_c, 0, 34, 56
1, 1018655, Note_off_c, 0, 82, 29
1, 1018685, Note_off_c, 0, 37, 56
1, 1018685, Poly_aftertouch_c, 0, 37, 0
1, 1018867, Note_off_c, 0, 42, 55
1, 1018892, Note_off_c, 0, 78, 57
1, 1018901, Note_off_c, 0, 85, 53
1, 1019114, Note_off_c, 0, 70, 61
1, 1019114, Poly_aftertouch_c, 0, 70, 0
1, 1019301, Note_on_c, 0, 34, 50
1, 1019339, Note_on_c, 0, 37, 51
1, 1019385, Note_on_c, 0, 42, 62
1, 1019433, Note_on_c, 0, 66, 60
1, 1019476, Note_on_c, 0, 49, 67
1, 1019498, Note_on_c, 0, 73, 68
1, 1019558, Note_on_c, 0, 78, 70
1, 1019650, Note_on_c, 0, 82, 92
1, 1019862, Poly_aftertouch_c, 0, 66, 24
1, 1019913, Note_off_c, 0, 66, 21
1, 1019913, Poly_aftertouch_c, 0, 66, 0
1, 1020179, Note_off_c, 0, 34, 37
1, 1020218, Note_off_c, 0, 82, 59
1, 1020265, Note_off_c, 0, 42, 59
1, 1020321, Note_off_c, 0, 78, 54
1, 1020340, Note_off_c, 0, 73, 53
1, 1020340, Poly_aftertouch_c, 0, 73, 0
1, 1020498, Poly_aftertouch_c, 0, 37, 24
1, 1020647, Note_off_c, 0, 49, 35
1, 1020647, Poly_aftertouch_c, 0, 49, 0
1, 1020725, Note_off_c, 0, 37, 19
1, 1020725, Poly_aftertouch_c, 0, 37, 0
1, 1020874, Note_on_c, 0, 37, 62
1, 1020959, Note_on_c, 0, 42, 65
1, 1020988, Note_on_c, 0, 61, 63
1, 1021014, Note_on_c, 0, 46, 68
1, 1021030, Note_off_c, 0, 37, 53
1, 1021030, Poly_aftertouch_c, 0, 37, 0
1, 1021054, Note_on_c, 0, 66, 67
1, 1021086, Note_off_c, 0, 61, 60
1, 1021086, Poly_aftertouch_c, 0, 61, 0
1, 1021115, Note_on_c, 0, 70, 73
1, 1021232, Note_off_c, 0, 66, 63
1, 1021232, Poly_aftertouch_c, 0, 66, 0
1, 1021267, Note_on_c, 0, 78, 88
1, 1021276, Note_on_c, 0, 54, 61
1, 1021761, Note_off_c, 0, 42, 49
1, 1021853, Note_off_c, 0, 46, 59
1, 1022035, Poly_aftertouch_c, 0, 70, 24
1, 1022138, Note_off_c, 0, 54, 54
1, 1022138, Poly_aftertouch_c, 0, 54, 0
1, 1022297, Poly_aftertouch_c, 0, 70, 20
1, 1022298, Note_off_c, 0, 78, 62
1, 1022329, Note_off_c, 0, 70, 19
1, 1022329, Poly_aftertouch_c, 0, 70, 0
1, 1022482, Note_on_c, 0, 42, 55
1, 1022570, Note_on_c, 0, 46, 61
1, 1022639, Note_on_c, 0, 49, 63
1, 1022710, Note_on_c, 0, 61, 60
1, 1022724, Note_off_c, 0, 42, 61
1, 1022791, Note_on_c, 0, 70, 70
1, 1022793, Note_on_c, 0, 58, 58
1, 1022883, Note_on_c, 0, 73, 89
1, 1022886, Control_c, 0, 64, 111
1, 1022906, Control_c, 0, 64, 104
1, 1022926, Control_c, 0, 64, 109
1, 1022943, Control_c, 0, 64, 120
1, 1022963, Control_c, 0, 64, 127
1, 1023318, Note_off_c, 0, 58, 34
1, 1023318, Poly_aftertouch_c, 0, 58, 0
1, 1023813, Note_off_c, 0, 46, 38
1, 1023813, Note_off_c, 0, 70, 52
1, 1023813, Poly_aftertouch_c, 0, 70, 0
1, 1023846, Note_off_c, 0, 49, 34
1, 1023846, Poly_aftertouch_c, 0, 49, 0
1, 1024108, Note_off_c, 0, 61, 36
1, 1024108, Poly_aftertouch_c, 0, 61, 0
1, 1024218, Note_on_c, 0, 42, 42
1, 1024247, Note_on_c, 0, 45, 48
1, 1024321, Note_off_c, 0, 73, 59
1, 1024321, Poly_aftertouch_c, 0, 73, 0
1, 1024326, Note_on_c, 0, 49, 62
1, 1024382, Note_on_c, 0, 61, 54
1, 1024419, Note_on_c, 0, 66, 58
1, 1024468, Note_on_c, 0, 69, 59
1, 1024486, Note_on_c, 0, 57, 59
1, 1024532, Note_on_c, 0, 73, 65
1, 1024645, Note_on_c, 0, 75, 88
1, 1024664, Control_c, 0, 64, 108
1, 1024683, Control_c, 0, 64, 76
1, 1024701, Control_c, 0, 64, 43
1, 1024720, Control_c, 0, 64, 0
1, 1024757, Control_c, 0, 64, 25
1, 1024776, Control_c, 0, 64, 50
1, 1024796, Control_c, 0, 64, 71
1, 1024814, Control_c, 0, 64, 91
1, 1024831, Control_c, 0, 64, 114
1, 1024851, Control_c, 0, 64, 127
1, 1025210, Note_off_c, 0, 57, 31
1, 1025210, Poly_aftertouch_c, 0, 57, 0
1, 1025539, Note_off_c, 0, 49, 32
1, 1025539, Poly_aftertouch_c, 0, 49, 0
1, 1025546, Note_off_c, 0, 45, 31
1, 1025785, Note_off_c, 0, 42, 43
1, 1025954, Note_off_c, 0, 69, 57
1, 1026032, Note_off_c, 0, 66, 54
1, 1026032, Poly_aftertouch_c, 0, 66, 0
1, 1026307, Note_off_c, 0, 61, 33
1, 1026307, Poly_aftertouch_c, 0, 61, 0
1, 1026344, Note_on_c, 0, 37, 55
1, 1026431, Note_on_c, 0, 41, 53
1, 1026478, Control_c, 0, 64, 101
1, 1026497, Control_c, 0, 64, 74
1, 1026514, Control_c, 0, 64, 50
1, 1026519, Note_on_c, 0, 44, 58
1, 1026534, Control_c, 0, 64, 31
1, 1026547, Note_off_c, 0, 73, 32
1, 1026547, Poly_aftertouch_c, 0, 73, 0
1, 1026552, Control_c, 0, 64, 38
1, 1026571, Control_c, 0, 64, 55
1, 1026580, Note_on_c, 0, 61, 44
1, 1026588, Control_c, 0, 64, 72
1, 1026590, Note_off_c, 0, 75, 34
1, 1026608, Control_c, 0, 64, 88
1, 1026629, Control_c, 0, 64, 106
1, 1026635, Note_off_c, 0, 41, 56
1, 1026635, Poly_aftertouch_c, 0, 41, 0
1, 1026644, Note_off_c, 0, 37, 53
1, 1026644, Poly_aftertouch_c, 0, 37, 0
1, 1026645, Control_c, 0, 64, 127
1, 1026666, Note_off_c, 0, 61, 57
1, 1026666, Poly_aftertouch_c, 0, 61, 0
1, 1026670, Note_on_c, 0, 49, 49
1, 1026675, Note_on_c, 0, 68, 59
1, 1026699, Note_off_c, 0, 44, 60
1, 1026739, Note_on_c, 0, 73, 51
1, 1026835, Note_off_c, 0, 49, 57
1, 1026835, Poly_aftertouch_c, 0, 49, 0
1, 1027009, Note_on_c, 0, 56, 62
1, 1027065, Note_off_c, 0, 56, 58
1, 1027092, Note_on_c, 0, 77, 84
1, 1028329, Control_c, 0, 67, 8
1, 1028422, Control_c, 0, 67, 12
1, 1028478, Control_c, 0, 67, 17
1, 1028516, Control_c, 0, 67, 22
1, 1028554, Control_c, 0, 67, 29
1, 1028573, Control_c, 0, 67, 33
1, 1028590, Control_c, 0, 67, 38
1, 1028609, Control_c, 0, 67, 42
1, 1028628, Control_c, 0, 67, 47
1, 1028647, Control_c, 0, 67, 51
1, 1028684, Control_c, 0, 67, 58
1, 1028722, Control_c, 0, 67, 64
1, 1028834, Control_c, 0, 67, 68
1, 1028965, Poly_aftertouch_c, 0, 77, 22
1, 1029013, Note_off_c, 0, 77, 25
1, 1029013, Poly_aftertouch_c, 0, 77, 0
1, 1029232, Note_on_c, 0, 37, 41
1, 1029303, Note_on_c, 0, 41, 40
1, 1029338, Control_c, 0, 64, 112
1, 1029357, Control_c, 0, 64, 90
1, 1029376, Control_c, 0, 64, 74
1, 1029395, Control_c, 0, 64, 72
1, 1029398, Poly_aftertouch_c, 0, 68, 24
1, 1029407, Note_on_c, 0, 44, 46
1, 1029414, Control_c, 0, 64, 77
1, 1029432, Control_c, 0, 64, 85
1, 1029443, Note_off_c, 0, 68, 33
1, 1029443, Poly_aftertouch_c, 0, 68, 0
1, 1029451, Control_c, 0, 64, 98
1, 1029470, Control_c, 0, 64, 117
1, 1029472, Poly_aftertouch_c, 0, 73, 24
1, 1029472, Control_c, 0, 67, 64
1, 1029473, Note_off_c, 0, 41, 53
1, 1029473, Poly_aftertouch_c, 0, 41, 0
1, 1029488, Control_c, 0, 64, 127
1, 1029496, Note_off_c, 0, 37, 53
1, 1029496, Poly_aftertouch_c, 0, 37, 0
1, 1029511, Note_on_c, 0, 61, 47
1, 1029531, Note_on_c, 0, 49, 39
1, 1029532, Note_off_c, 0, 73, 37
1, 1029532, Poly_aftertouch_c, 0, 73, 0
1, 1029542, Note_off_c, 0, 44, 60
1, 1029594, Note_on_c, 0, 68, 48
1, 1029632, Note_off_c, 0, 61, 39
1, 1029632, Poly_aftertouch_c, 0, 61, 0
1, 1029641, Note_off_c, 0, 49, 57
1, 1029641, Poly_aftertouch_c, 0, 49, 0
1, 1029663, Note_on_c, 0, 73, 57
1, 1029731, Control_c, 0, 67, 60
1, 1029795, Note_on_c, 0, 56, 54
1, 1029818, Note_on_c, 0, 77, 75
1, 1029850, Note_off_c, 0, 56, 58
1, 1029861, Control_c, 0, 67, 56
1, 1030229, Poly_aftertouch_c, 0, 68, 24
1, 1030323, Note_off_c, 0, 68, 29
1, 1030323, Poly_aftertouch_c, 0, 68, 0
1, 1030347, Control_c, 0, 67, 60
1, 1030442, Control_c, 0, 67, 64
1, 1030479, Control_c, 0, 67, 69
1, 1030496, Note_off_c, 0, 77, 34
1, 1030496, Poly_aftertouch_c, 0, 77, 0
1, 1030497, Control_c, 0, 67, 74
1, 1030516, Control_c, 0, 67, 80
1, 1030534, Control_c, 0, 67, 86
1, 1030553, Control_c, 0, 67, 92
1, 1030573, Control_c, 0, 67, 97
1, 1030592, Control_c, 0, 67, 102
1, 1030609, Control_c, 0, 67, 107
1, 1030648, Control_c, 0, 67, 114
1, 1030685, Control_c, 0, 67, 118
1, 1030763, Note_off_c, 0, 73, 22
1, 1030763, Poly_aftertouch_c, 0, 73, 0
1, 1030773, Note_on_c, 0, 37, 36
1, 1030861, Note_on_c, 0, 41, 33
1, 1030873, Note_off_c, 0, 37, 46
1, 1030873, Poly_aftertouch_c, 0, 37, 0
1, 1030909, Note_off_c, 0, 41, 57
1, 1030909, Poly_aftertouch_c, 0, 41, 0
1, 1030919, Note_on_c, 0, 44, 45
1, 1030955, Note_on_c, 0, 61, 36
1, 1030984, Note_off_c, 0, 44, 55
1, 1031041, Note_off_c, 0, 61, 51
1, 1031041, Poly_aftertouch_c, 0, 61, 0
1, 1031048, Note_on_c, 0, 68, 41
1, 1031052, Note_on_c, 0, 49, 39
1, 1031119, Note_off_c, 0, 49, 54
1, 1031119, Poly_aftertouch_c, 0, 49, 0
1, 1031135, Note_on_c, 0, 73, 50
1, 1031245, Control_c, 0, 67, 114
1, 1031295, Note_on_c, 0, 77, 66
1, 1031347, Note_on_c, 0, 56, 35
1, 1031533, Note_off_c, 0, 56, 36
1, 1031593, Note_off_c, 0, 68, 19
1, 1031593, Poly_aftertouch_c, 0, 68, 0
1, 1032672, Note_off_c, 0, 77, 28
1, 1032672, Poly_aftertouch_c, 0, 77, 0
1, 1032872, Control_c, 0, 67, 118
1, 1032878, Poly_aftertouch_c, 0, 73, 22
1, 1032909, Note_off_c, 0, 73, 32
1, 1032909, Poly_aftertouch_c, 0, 73, 0
1, 1032941, Note_on_c, 0, 37, 31
1, 1032947, Control_c, 0, 67, 122
1, 1033080, Note_on_c, 0, 41, 28
1, 1033189, Note_off_c, 0, 41, 48
1, 1033189, Poly_aftertouch_c, 0, 41, 0
1, 1033205, Note_on_c, 0, 44, 34
1, 1033227, Note_off_c, 0, 37, 32
1, 1033227, Poly_aftertouch_c, 0, 37, 0
1, 1033297, Note_off_c, 0, 44, 56
1, 1033320, Note_on_c, 0, 61, 31
1, 1033399, Note_on_c, 0, 49, 25
1, 1033473, Note_on_c, 0, 68, 30
1, 1033500, Note_off_c, 0, 61, 34
1, 1033500, Poly_aftertouch_c, 0, 61, 0
1, 1033583, Note_on_c, 0, 73, 35
1, 1033589, Note_off_c, 0, 49, 31
1, 1033589, Poly_aftertouch_c, 0, 49, 0
1, 1033713, Control_c, 0, 67, 118
1, 1034103, Note_on_c, 0, 77, 48
1, 1034224, Note_on_c, 0, 56, 30
1, 1038436, Poly_aftertouch_c, 0, 56, 24
1, 1039301, Poly_aftertouch_c, 0, 56, 22
1, 1039432, Note_off_c, 0, 56, 19
1, 1039432, Poly_aftertouch_c, 0, 56, 0
1, 1039749, Poly_aftertouch_c, 0, 77, 24
1, 1039768, Poly_aftertouch_c, 0, 68, 24
1, 1039844, Note_off_c, 0, 77, 31
1, 1039844, Poly_aftertouch_c, 0, 77, 0
1, 1039852, Poly_aftertouch_c, 0, 73, 24
1, 1039906, Note_off_c, 0, 68, 24
1, 1039906, Poly_aftertouch_c, 0, 68, 0
1, 1039974, Note_off_c, 0, 73, 27
1, 1039974, Poly_aftertouch_c, 0, 73, 0
1, 1040502, Control_c, 0, 64, 122
1, 1040539, Control_c, 0, 64, 111
1, 1040557, Control_c, 0, 64, 104
1, 1040577, Control_c, 0, 64, 97
1, 1040595, Control_c, 0, 64, 92
1, 1040632, Control_c, 0, 64, 87
1, 1040652, Control_c, 0, 64, 83
1, 1040669, Control_c, 0, 64, 79
1, 1040688, Control_c, 0, 64, 75
1, 1040707, Control_c, 0, 64, 73
1, 1040782, Control_c, 0, 64, 71
1, 1040819, Control_c, 0, 64, 69
1, 1040875, Control_c, 0, 64, 66
1, 1040894, Control_c, 0, 64, 64
1, 1040913, Control_c, 0, 64, 63
1, 1040932, Control_c, 0, 64, 62
1, 1040988, Control_c, 0, 64, 60
1, 1041006, Control_c, 0, 64, 58
1, 1041025, Control_c, 0, 64, 55
1, 1041045, Control_c, 0, 64, 53
1, 1041080, Control_c, 0, 64, 50
1, 1041101, Control_c, 0, 64, 48
1, 1041119, Control_c, 0, 64, 45
1, 1041137, Control_c, 0, 64, 41
1, 1041156, Control_c, 0, 64, 37
1, 1041194, Control_c, 0, 64, 33
1, 1041230, Control_c, 0, 64, 27
1, 1041250, Control_c, 0, 64, 23
1, 1041287, Control_c, 0, 64, 17
1, 1041305, Control_c, 0, 64, 13
1, 1041342, Control_c, 0, 64, 0
1, 1042707, Control_c, 0, 64, 8
1, 1042820, Control_c, 0, 64, 12
1, 1043063, Control_c, 0, 64, 0
1, 1043419, Control_c, 0, 64, 8
1, 1043475, Control_c, 0, 64, 13
1, 1043550, Control_c, 0, 64, 17
1, 1043773, Control_c, 0, 67, 113
1, 1043830, Control_c, 0, 67, 109
1, 1043869, Control_c, 0, 67, 105
1, 1043904, Control_c, 0, 67, 99
1, 1043923, Control_c, 0, 67, 94
1, 1043943, Control_c, 0, 67, 89
1, 1043960, Control_c, 0, 67, 84
1, 1043980, Control_c, 0, 67, 78
1, 1043998, Control_c, 0, 67, 72
1, 1044018, Control_c, 0, 67, 65
1, 1044035, Control_c, 0, 67, 59
1, 1044055, Control_c, 0, 67, 52
1, 1044073, Control_c, 0, 67, 46
1, 1044091, Control_c, 0, 67, 40
1, 1044111, Control_c, 0, 67, 35
1, 1044129, Control_c, 0, 67, 30
1, 1044149, Control_c, 0, 67, 25
1, 1044166, Control_c, 0, 67, 19
1, 1044186, Control_c, 0, 67, 14
1, 1044204, Control_c, 0, 67, 9
1, 1046504, Control_c, 0, 64, 21
1, 1046784, Control_c, 0, 64, 25
1, 1047756, Control_c, 0, 64, 29
1, 1048466, Note_on_c, 0, 87, 38
1, 1048508, Note_off_c, 0, 87, 52
1, 1048617, Control_c, 0, 64, 33
1, 1049963, Control_c, 0, 67, 0
1, 1050206, Control_c, 0, 64, 29
1, 1050561, Control_c, 0, 64, 34
1, 1050599, Control_c, 0, 64, 42
1, 1050617, Control_c, 0, 64, 47
1, 1050637, Control_c, 0, 64, 53
1, 1050655, Control_c, 0, 64, 58
1, 1050673, Control_c, 0, 64, 61
1, 1050692, Control_c, 0, 64, 63
1, 1050822, Control_c, 0, 64, 61
1, 1050953, Control_c, 0, 64, 60
1, 1051009, Control_c, 0, 64, 58
1, 1051123, Control_c, 0, 64, 56
1, 1051215, Control_c, 0, 64, 54
1, 1051272, Control_c, 0, 64, 52
1, 1051346, Control_c, 0, 64, 50
1, 1051403, Control_c, 0, 64, 46
1, 1051421, Control_c, 0, 64, 41
1, 1051441, Control_c, 0, 64, 33
1, 1051459, Control_c, 0, 64, 27
1, 1051626, Control_c, 0, 64, 23
1, 1051776, Control_c, 0, 64, 28
1, 1052002, Control_c, 0, 64, 32
1, 1052039, Control_c, 0, 64, 36
1, 1052505, Control_c, 0, 64, 32
1, 1052543, Control_c, 0, 64, 24
1, 1052562, Control_c, 0, 64, 14
1, 1052600, Control_c, 0, 64, 0
1, 1053553, Control_c, 0, 64, 8
1, 1053740, Control_c, 0, 64, 15
1, 1053833, Control_c, 0, 64, 0
1, 1054133, Control_c, 0, 64, 30
1, 1054151, Control_c, 0, 64, 62
1, 1054170, Control_c, 0, 64, 99
1, 1054189, Control_c, 0, 64, 127
1, 1054703, Note_on_c, 0, 52, 78
1, 1054769, Note_on_c, 0, 55, 75
1, 1054810, Note_off_c, 0, 52, 62
1, 1054841, Note_on_c, 0, 58, 85
1, 1054866, Note_off_c, 0, 55, 63
1, 1054866, Poly_aftertouch_c, 0, 55, 0
1, 1054892, Note_on_c, 0, 61, 89
1, 1054931, Note_off_c, 0, 58, 59
1, 1054931, Poly_aftertouch_c, 0, 58, 0
1, 1054939, Note_off_c, 0, 61, 67
1, 1054939, Poly_aftertouch_c, 0, 61, 0
1, 1054942, Note_on_c, 0, 64, 70
1, 1055007, Note_on_c, 0, 67, 85
1, 1055016, Note_off_c, 0, 64, 62
1, 1055076, Note_on_c, 0, 70, 79
1, 1055089, Note_off_c, 0, 67, 60
1, 1055140, Note_on_c, 0, 73, 80
1, 1055152, Note_off_c, 0, 70, 69
1, 1055152, Poly_aftertouch_c, 0, 70, 0
1, 1055189, Note_off_c, 0, 73, 66
1, 1055189, Poly_aftertouch_c, 0, 73, 0
1, 1055218, Note_on_c, 0, 76, 86
1, 1055284, Note_off_c, 0, 76, 62
1, 1055309, Note_on_c, 0, 79, 79
1, 1055361, Note_on_c, 0, 82, 77
1, 1055365, Note_off_c, 0, 79, 62
1, 1055365, Poly_aftertouch_c, 0, 79, 0
1, 1055385, Control_c, 0, 64, 117
1, 1055405, Control_c, 0, 64, 64
1, 1055420, Note_off_c, 0, 82, 62
1, 1055423, Control_c, 0, 64, 49
1, 1055441, Control_c, 0, 64, 84
1, 1055452, Note_on_c, 0, 28, 82
1, 1055455, Note_on_c, 0, 40, 93
1, 1055460, Note_on_c, 0, 85, 108
1, 1055461, Control_c, 0, 64, 127
1, 1055462, Note_on_c, 0, 41, 78
1, 1055463, Note_off_c, 0, 41, 127
1, 1055463, Poly_aftertouch_c, 0, 41, 0
1, 1055484, Note_off_c, 0, 28, 65
1, 1055497, Note_off_c, 0, 85, 69
1, 1055502, Note_off_c, 0, 40, 64
1, 1055514, Note_on_c, 0, 30, 8
1, 1055572, Control_c, 0, 64, 87
1, 1055589, Note_off_c, 0, 30, 35
1, 1055593, Control_c, 0, 64, 0
1, 1055824, Note_on_c, 0, 61, 64
1, 1055831, Note_on_c, 0, 52, 57
1, 1055832, Note_on_c, 0, 58, 59
1, 1055865, Note_off_c, 0, 61, 68
1, 1055865, Poly_aftertouch_c, 0, 61, 0
1, 1055870, Note_off_c, 0, 58, 66
1, 1055870, Poly_aftertouch_c, 0, 58, 0
1, 1055873, Note_off_c, 0, 52, 65
1, 1055916, Note_on_c, 0, 72, 80
1, 1055917, Note_on_c, 0, 84, 79
1, 1055941, Note_off_c, 0, 72, 70
1, 1055942, Note_off_c, 0, 84, 72
1, 1055999, Note_on_c, 0, 67, 86
1, 1056004, Note_on_c, 0, 58, 76
1, 1056004, Note_on_c, 0, 70, 97
1, 1056008, Note_on_c, 0, 61, 76
1, 1056009, Note_on_c, 0, 82, 89
1, 1056023, Note_off_c, 0, 67, 64
1, 1056034, Note_off_c, 0, 70, 65
1, 1056034, Poly_aftertouch_c, 0, 70, 0
1, 1056036, Note_off_c, 0, 61, 68
1, 1056036, Poly_aftertouch_c, 0, 61, 0
1, 1056037, Note_off_c, 0, 82, 69
1, 1056039, Note_off_c, 0, 58, 70
1, 1056039, Poly_aftertouch_c, 0, 58, 0
1, 1056291, Note_on_c, 0, 41, 77
1, 1056293, Note_on_c, 0, 29, 77
1, 1056305, Note_on_c, 0, 40, 62
1, 1056318, Note_off_c, 0, 41, 67
1, 1056318, Poly_aftertouch_c, 0, 41, 0
1, 1056319, Control_c, 0, 64, 57
1, 1056320, Note_off_c, 0, 29, 64
1, 1056320, Poly_aftertouch_c, 0, 29, 0
1, 1056338, Note_off_c, 0, 40, 54
1, 1056338, Control_c, 0, 64, 127
1, 1056368, Note_on_c, 0, 68, 89
1, 1056369, Note_on_c, 0, 80, 85
1, 1056410, Note_off_c, 0, 80, 57
1, 1056410, Poly_aftertouch_c, 0, 80, 0
1, 1056421, Note_off_c, 0, 68, 65
1, 1056421, Poly_aftertouch_c, 0, 68, 0
1, 1056452, Control_c, 0, 64, 80
1, 1056470, Control_c, 0, 64, 0
1, 1056472, Note_on_c, 0, 61, 85
1, 1056475, Note_on_c, 0, 79, 87
1, 1056476, Note_on_c, 0, 67, 88
1, 1056492, Note_on_c, 0, 52, 49
1, 1056516, Note_off_c, 0, 61, 56
1, 1056516, Poly_aftertouch_c, 0, 61, 0
1, 1056517, Note_off_c, 0, 67, 64
1, 1056526, Note_off_c, 0, 79, 59
1, 1056526, Note_on_c, 0, 53, 25
1, 1056526, Poly_aftertouch_c, 0, 79, 0
1, 1056527, Note_off_c, 0, 52, 56
1, 1056582, Note_off_c, 0, 53, 33
1, 1056582, Poly_aftertouch_c, 0, 53, 0
1, 1056732, Note_on_c, 0, 61, 73
1, 1056734, Note_on_c, 0, 56, 77
1, 1056737, Note_on_c, 0, 65, 81
1, 1056741, Note_on_c, 0, 77, 75
1, 1056752, Note_on_c, 0, 76, 66
1, 1056767, Note_off_c, 0, 61, 69
1, 1056767, Note_off_c, 0, 65, 70
1, 1056767, Poly_aftertouch_c, 0, 61, 0
1, 1056769, Note_off_c, 0, 56, 68
1, 1056769, Poly_aftertouch_c, 0, 56, 0
1, 1056772, Note_off_c, 0, 77, 68
1, 1056772, Poly_aftertouch_c, 0, 77, 0
1, 1056778, Note_off_c, 0, 76, 65
1, 1056967, Note_on_c, 0, 43, 88
1, 1056970, Note_on_c, 0, 31, 86
1, 1056974, Note_on_c, 0, 64, 89
1, 1056976, Note_on_c, 0, 76, 86
1, 1056976, Control_c, 0, 64, 52
1, 1056980, Note_on_c, 0, 73, 75
1, 1056989, Note_on_c, 0, 70, 74
1, 1056994, Control_c, 0, 64, 62
1, 1056996, Note_off_c, 0, 31, 68
1, 1056999, Note_off_c, 0, 43, 70
1, 1057007, Note_off_c, 0, 73, 72
1, 1057007, Poly_aftertouch_c, 0, 73, 0
1, 1057009, Note_off_c, 0, 64, 66
1, 1057011, Control_c, 0, 64, 0
1, 1057017, Note_off_c, 0, 70, 70
1, 1057017, Poly_aftertouch_c, 0, 70, 0
1, 1057028, Note_off_c, 0, 76, 62
1, 1057215, Note_on_c, 0, 55, 69
1, 1057216, Note_on_c, 0, 61, 75
1, 1057216, Note_on_c, 0, 77, 89
1, 1057218, Note_on_c, 0, 65, 82
1, 1057225, Note_on_c, 0, 58, 64
1, 1057241, Note_off_c, 0, 61, 70
1, 1057241, Poly_aftertouch_c, 0, 61, 0
1, 1057242, Note_off_c, 0, 65, 73
1, 1057242, Note_off_c, 0, 77, 61
1, 1057242, Poly_aftertouch_c, 0, 77, 0
1, 1057245, Note_off_c, 0, 55, 67
1, 1057245, Poly_aftertouch_c, 0, 55, 0
1, 1057254, Note_off_c, 0, 58, 65
1, 1057254, Poly_aftertouch_c, 0, 58, 0
1, 1057438, Note_on_c, 0, 67, 81
1, 1057439, Note_on_c, 0, 79, 75
1, 1057444, Note_on_c, 0, 61, 75
1, 1057447, Note_on_c, 0, 64, 64
1, 1057453, Note_on_c, 0, 58, 65
1, 1057459, Note_off_c, 0, 79, 70
1, 1057459, Poly_aftertouch_c, 0, 79, 0
1, 1057468, Note_off_c, 0, 67, 69
1, 1057473, Note_off_c, 0, 64, 63
1, 1057474, Note_off_c, 0, 61, 68
1, 1057474, Poly_aftertouch_c, 0, 61, 0
1, 1057488, Note_off_c, 0, 58, 64
1, 1057488, Poly_aftertouch_c, 0, 58, 0
1, 1057665, Note_on_c, 0, 60, 93
1, 1057667, Note_on_c, 0, 72, 95
1, 1057671, Note_on_c, 0, 65, 86
1, 1057673, Note_on_c, 0, 44, 93
1, 1057685, Note_on_c, 0, 32, 80
1, 1057701, Note_off_c, 0, 60, 68
1, 1057701, Note_off_c, 0, 44, 71
1, 1057701, Poly_aftertouch_c, 0, 60, 0
1, 1057705, Control_c, 0, 64, 76
1, 1057708, Note_off_c, 0, 65, 65
1, 1057717, Note_off_c, 0, 72, 68
1, 1057723, Control_c, 0, 64, 127
1, 1057726, Note_off_c, 0, 32, 62
1, 1057878, Poly_aftertouch_c, 0, 44, 0
1, 1057887, Note_on_c, 0, 53, 77
1, 1057891, Note_on_c, 0, 56, 77
1, 1057892, Control_c, 0, 64, 105
1, 1057910, Control_c, 0, 64, 51
1, 1057927, Note_off_c, 0, 56, 68
1, 1057927, Poly_aftertouch_c, 0, 56, 0
1, 1057929, Note_off_c, 0, 53, 65
1, 1057929, Poly_aftertouch_c, 0, 53, 0
1, 1057930, Control_c, 0, 64, 0
1, 1058109, Note_on_c, 0, 60, 66
1, 1058111, Note_on_c, 0, 56, 70
1, 1058142, Note_off_c, 0, 60, 64
1, 1058142, Note_off_c, 0, 56, 68
1, 1058142, Note_on_c, 0, 72, 56
1, 1058142, Poly_aftertouch_c, 0, 56, 0
1, 1058142, Poly_aftertouch_c, 0, 60, 0
1, 1058168, Note_off_c, 0, 72, 62
1, 1058214, Note_on_c, 0, 74, 60
1, 1058253, Note_off_c, 0, 74, 66
1, 1058260, Note_on_c, 0, 76, 66
1, 1058296, Note_off_c, 0, 76, 64
1, 1058317, Note_on_c, 0, 77, 88
1, 1058327, Note_on_c, 0, 65, 91
1, 1058330, Note_on_c, 0, 45, 94
1, 1058338, Note_on_c, 0, 33, 85
1, 1058340, Control_c, 0, 64, 127
1, 1058367, Note_off_c, 0, 45, 62
1, 1058367, Note_off_c, 0, 33, 63
1, 1058375, Note_off_c, 0, 77, 65
1, 1058375, Poly_aftertouch_c, 0, 77, 0
1, 1058379, Note_off_c, 0, 65, 67
1, 1058452, Control_c, 0, 64, 100
1, 1058471, Control_c, 0, 64, 57
1, 1058491, Control_c, 0, 64, 0
1, 1058533, Poly_aftertouch_c, 0, 33, 0
1, 1058545, Control_c, 0, 67, 8
1, 1058600, Note_on_c, 0, 60, 69
1, 1058604, Note_on_c, 0, 53, 62
1, 1058634, Note_off_c, 0, 60, 68
1, 1058634, Poly_aftertouch_c, 0, 60, 0
1, 1058644, Note_off_c, 0, 53, 63
1, 1058644, Poly_aftertouch_c, 0, 53, 0
1, 1058673, Note_on_c, 0, 76, 71
1, 1058675, Note_on_c, 0, 64, 70
1, 1058705, Note_off_c, 0, 76, 69
1, 1058707, Note_off_c, 0, 64, 69
1, 1058770, Note_on_c, 0, 77, 90
1, 1058775, Note_on_c, 0, 60, 64
1, 1058775, Note_on_c, 0, 65, 82
1, 1058775, Note_on_c, 0, 63, 71
1, 1058802, Note_off_c, 0, 65, 69
1, 1058804, Note_off_c, 0, 60, 66
1, 1058804, Poly_aftertouch_c, 0, 60, 0
1, 1058806, Note_off_c, 0, 63, 67
1, 1058806, Poly_aftertouch_c, 0, 63, 0
1, 1058815, Note_off_c, 0, 77, 59
1, 1058815, Poly_aftertouch_c, 0, 77, 0
1, 1058987, Note_on_c, 0, 46, 88
1, 1058993, Note_on_c, 0, 34, 80
1, 1059015, Note_off_c, 0, 46, 70
1, 1059023, Note_off_c, 0, 34, 65
1, 1059031, Control_c, 0, 64, 70
1, 1059051, Control_c, 0, 64, 127
1, 1059074, Note_on_c, 0, 80, 82
1, 1059077, Note_on_c, 0, 68, 81
1, 1059088, Control_c, 0, 67, 0
1, 1059107, Note_off_c, 0, 80, 64
1, 1059107, Note_off_c, 0, 68, 74
1, 1059107, Poly_aftertouch_c, 0, 68, 0
1, 1059107, Poly_aftertouch_c, 0, 80, 0
1, 1059144, Control_c, 0, 64, 115
1, 1059165, Control_c, 0, 64, 54
1, 1059175, Note_on_c, 0, 61, 76
1, 1059177, Note_on_c, 0, 77, 90
1, 1059180, Note_on_c, 0, 65, 88
1, 1059183, Note_on_c, 0, 58, 69
1, 1059183, Note_on_c, 0, 53, 68
1, 1059185, Control_c, 0, 64, 0
1, 1059202, Note_off_c, 0, 61, 69
1, 1059202, Poly_aftertouch_c, 0, 61, 0
1, 1059213, Note_off_c, 0, 58, 65
1, 1059213, Poly_aftertouch_c, 0, 58, 0
1, 1059217, Note_off_c, 0, 53, 64
1, 1059217, Poly_aftertouch_c, 0, 53, 0
1, 1059222, Note_off_c, 0, 65, 63
1, 1059228, Note_off_c, 0, 77, 63
1, 1059228, Poly_aftertouch_c, 0, 77, 0
1, 1059444, Note_on_c, 0, 61, 74
1, 1059448, Note_on_c, 0, 78, 94
1, 1059449, Note_on_c, 0, 66, 90
1, 1059450, Note_on_c, 0, 58, 78
1, 1059474, Note_off_c, 0, 61, 68
1, 1059474, Poly_aftertouch_c, 0, 61, 0
1, 1059478, Note_off_c, 0, 58, 70
1, 1059478, Poly_aftertouch_c, 0, 58, 0
1, 1059481, Note_off_c, 0, 66, 69
1, 1059481, Poly_aftertouch_c, 0, 66, 0
1, 1059495, Note_off_c, 0, 78, 61
1, 1059620, Poly_aftertouch_c, 0, 58, 0
1, 1059672, Note_on_c, 0, 48, 86
1, 1059675, Note_on_c, 0, 36, 81
1, 1059704, Note_off_c, 0, 36, 67
1, 1059705, Note_off_c, 0, 48, 71
1, 1059705, Control_c, 0, 64, 73
1, 1059723, Control_c, 0, 64, 127
1, 1059772, Note_on_c, 0, 82, 85
1, 1059778, Note_on_c, 0, 70, 84
1, 1059796, Note_off_c, 0, 82, 69
1, 1059802, Note_off_c, 0, 70, 73
1, 1059802, Poly_aftertouch_c, 0, 70, 0
1, 1059836, Control_c, 0, 64, 123
1, 1059857, Control_c, 0, 64, 62
1, 1059863, Poly_aftertouch_c, 0, 36, 0
1, 1059870, Note_on_c, 0, 80, 96
1, 1059871, Note_on_c, 0, 68, 97
1, 1059872, Note_on_c, 0, 63, 79
1, 1059875, Note_on_c, 0, 53, 72
1, 1059875, Control_c, 0, 64, 0
1, 1059877, Note_on_c, 0, 60, 73
1, 1059910, Note_off_c, 0, 53, 67
1, 1059910, Poly_aftertouch_c, 0, 53, 0
1, 1059911, Note_off_c, 0, 60, 69
1, 1059911, Note_off_c, 0, 63, 61
1, 1059911, Poly_aftertouch_c, 0, 60, 0
1, 1059911, Poly_aftertouch_c, 0, 63, 0
1, 1059923, Note_off_c, 0, 68, 65
1, 1059923, Poly_aftertouch_c, 0, 68, 0
1, 1059937, Note_off_c, 0, 80, 63
1, 1059937, Poly_aftertouch_c, 0, 80, 0
1, 1060131, Note_on_c, 0, 63, 78
1, 1060132, Note_on_c, 0, 81, 99
1, 1060133, Note_on_c, 0, 69, 98
1, 1060134, Note_on_c, 0, 65, 75
1, 1060139, Note_on_c, 0, 60, 69
1, 1060162, Note_off_c, 0, 63, 72
1, 1060162, Poly_aftertouch_c, 0, 63, 0
1, 1060165, Note_off_c, 0, 65, 70
1, 1060165, Note_off_c, 0, 69, 67
1, 1060172, Note_off_c, 0, 60, 68
1, 1060172, Poly_aftertouch_c, 0, 60, 0
1, 1060175, Note_off_c, 0, 81, 68
1, 1060384, Note_on_c, 0, 49, 90
1, 1060388, Note_on_c, 0, 84, 101
1, 1060391, Note_on_c, 0, 72, 105
1, 1060399, Note_on_c, 0, 37, 66
1, 1060408, Note_off_c, 0, 49, 71
1, 1060408, Poly_aftertouch_c, 0, 49, 0
1, 1060425, Note_off_c, 0, 72, 67
1, 1060428, Note_off_c, 0, 84, 66
1, 1060437, Note_off_c, 0, 37, 37
1, 1060437, Poly_aftertouch_c, 0, 37, 0
1, 1060670, Note_on_c, 0, 70, 108
1, 1060676, Note_on_c, 0, 82, 98
1, 1060676, Control_c, 0, 64, 81
1, 1060678, Note_on_c, 0, 53, 75
1, 1060683, Note_on_c, 0, 61, 81
1, 1060693, Note_on_c, 0, 58, 63
1, 1060695, Control_c, 0, 64, 127
1, 1060731, Note_off_c, 0, 82, 63
1, 1060746, Note_off_c, 0, 58, 53
1, 1060746, Note_off_c, 0, 53, 61
1, 1060746, Poly_aftertouch_c, 0, 53, 0
1, 1060754, Note_off_c, 0, 61, 59
1, 1060754, Poly_aftertouch_c, 0, 61, 0
1, 1060774, Note_off_c, 0, 70, 58
1, 1060774, Poly_aftertouch_c, 0, 70, 0
1, 1060914, Note_on_c, 0, 65, 87
1, 1060919, Note_on_c, 0, 61, 85
1, 1060922, Note_on_c, 0, 58, 83
1, 1060940, Note_on_c, 0, 71, 78
1, 1060943, Note_off_c, 0, 65, 70
1, 1060965, Note_off_c, 0, 61, 64
1, 1060965, Poly_aftertouch_c, 0, 61, 0
1, 1060974, Note_off_c, 0, 58, 66
1, 1060984, Note_off_c, 0, 71, 63
1, 1060984, Poly_aftertouch_c, 0, 71, 0
1, 1060989, Note_on_c, 0, 74, 75
1, 1061052, Note_on_c, 0, 77, 74
1, 1061061, Note_off_c, 0, 74, 62
1, 1061100, Note_on_c, 0, 80, 77
1, 1061106, Note_off_c, 0, 77, 63
1, 1061106, Poly_aftertouch_c, 0, 77, 0
1, 1061130, Note_off_c, 0, 80, 70
1, 1061130, Poly_aftertouch_c, 0, 80, 0
1, 1061193, Note_on_c, 0, 83, 75
1, 1061238, Control_c, 0, 64, 113
1, 1061239, Note_off_c, 0, 83, 55
1, 1061256, Control_c, 0, 64, 62
1, 1061257, Note_on_c, 0, 86, 61
1, 1061276, Control_c, 0, 64, 33
1, 1061282, Note_on_c, 0, 38, 84
1, 1061283, Note_on_c, 0, 89, 88
1, 1061283, Note_on_c, 0, 50, 97
1, 1061291, Note_on_c, 0, 92, 94
1, 1061293, Control_c, 0, 64, 72
1, 1061303, Note_on_c, 0, 95, 99
1, 1061305, Note_off_c, 0, 86, 63
1, 1061312, Control_c, 0, 64, 120
1, 1061320, Note_off_c, 0, 38, 69
1, 1061328, Note_off_c, 0, 89, 65
1, 1061331, Control_c, 0, 64, 127
1, 1061335, Note_off_c, 0, 50, 69
1, 1061335, Poly_aftertouch_c, 0, 50, 0
1, 1061352, Note_off_c, 0, 92, 67
1, 1061356, Note_off_c, 0, 95, 69
1, 1061407, Control_c, 0, 64, 112
1, 1061425, Control_c, 0, 64, 58
1, 1061443, Control_c, 0, 64, 0
1, 1061578, Note_on_c, 0, 53, 54
1, 1061584, Note_on_c, 0, 62, 59
1, 1061600, Note_on_c, 0, 56, 39
1, 1061616, Note_on_c, 0, 59, 15
1, 1061620, Note_off_c, 0, 53, 62
1, 1061620, Poly_aftertouch_c, 0, 53, 0
1, 1061630, Note_off_c, 0, 62, 62
1, 1061637, Note_off_c, 0, 56, 56
1, 1061637, Poly_aftertouch_c, 0, 56, 0
1, 1061650, Note_off_c, 0, 59, 34
1, 1061650, Poly_aftertouch_c, 0, 59, 0
1, 1061664, Note_on_c, 0, 94, 85
1, 1061670, Note_on_c, 0, 82, 81
1, 1061689, Note_off_c, 0, 94, 74
1, 1061696, Note_off_c, 0, 82, 72
1, 1061761, Note_on_c, 0, 56, 57
1, 1061762, Note_on_c, 0, 92, 91
1, 1061765, Note_on_c, 0, 62, 67
1, 1061766, Note_on_c, 0, 65, 68
1, 1061773, Note_on_c, 0, 80, 87
1, 1061786, Note_on_c, 0, 59, 56
1, 1061788, Note_off_c, 0, 65, 64
1, 1061796, Note_off_c, 0, 80, 71
1, 1061796, Poly_aftertouch_c, 0, 80, 0
1, 1061798, Note_off_c, 0, 62, 66
1, 1061808, Note_off_c, 0, 92, 68
1, 1061811, Note_off_c, 0, 59, 56
1, 1061811, Poly_aftertouch_c, 0, 59, 0
1, 1061816, Note_off_c, 0, 56, 62
1, 1061816, Poly_aftertouch_c, 0, 56, 0
1, 1062007, Control_c, 0, 67, 8
1, 1062008, Note_on_c, 0, 51, 62
1, 1062025, Note_on_c, 0, 39, 39
1, 1062025, Control_c, 0, 64, 110
1, 1062026, Note_off_c, 0, 39, 127
1, 1062036, Note_off_c, 0, 51, 60
1, 1062041, Control_c, 0, 64, 127
1, 1062043, Control_c, 0, 67, 13
1, 1062076, Note_on_c, 0, 78, 80
1, 1062076, Poly_aftertouch_c, 0, 39, 0
1, 1062080, Control_c, 0, 67, 19
1, 1062083, Note_on_c, 0, 90, 74
1, 1062103, Note_off_c, 0, 78, 66
1, 1062108, Note_off_c, 0, 90, 73
1, 1062116, Control_c, 0, 64, 94
1, 1062117, Control_c, 0, 67, 25
1, 1062132, Poly_aftertouch_c, 0, 42, 0
1, 1062136, Control_c, 0, 64, 36
1, 1062154, Control_c, 0, 64, 0
1, 1062176, Note_on_c, 0, 89, 89
1, 1062183, Note_on_c, 0, 63, 73
1, 1062184, Note_on_c, 0, 77, 82
1, 1062192, Control_c, 0, 67, 29
1, 1062196, Note_on_c, 0, 58, 60
1, 1062202, Note_on_c, 0, 54, 45
1, 1062211, Control_c, 0, 67, 33
1, 1062213, Note_off_c, 0, 77, 67
1, 1062213, Poly_aftertouch_c, 0, 77, 0
1, 1062216, Note_off_c, 0, 63, 67
1, 1062216, Poly_aftertouch_c, 0, 63, 0
1, 1062219, Note_off_c, 0, 89, 65
1, 1062230, Note_off_c, 0, 58, 66
1, 1062239, Note_off_c, 0, 54, 53
1, 1062239, Poly_aftertouch_c, 0, 54, 0
1, 1062246, Control_c, 0, 67, 38
1, 1062404, Note_on_c, 0, 87, 86
1, 1062406, Note_on_c, 0, 75, 86
1, 1062417, Note_on_c, 0, 63, 56
1, 1062418, Note_on_c, 0, 58, 62
1, 1062420, Note_on_c, 0, 66, 55
1, 1062435, Control_c, 0, 67, 42
1, 1062446, Note_off_c, 0, 63, 59
1, 1062446, Poly_aftertouch_c, 0, 63, 0
1, 1062447, Note_off_c, 0, 75, 61
1, 1062449, Note_off_c, 0, 66, 62
1, 1062449, Poly_aftertouch_c, 0, 66, 0
1, 1062451, Note_off_c, 0, 58, 66
1, 1062463, Note_off_c, 0, 87, 62
1, 1062604, Control_c, 0, 67, 36
1, 1062622, Control_c, 0, 67, 29
1, 1062628, Note_on_c, 0, 41, 78
1, 1062631, Note_on_c, 0, 53, 67
1, 1062633, Note_on_c, 0, 86, 85
1, 1062635, Note_on_c, 0, 74, 83
1, 1062636, Note_on_c, 0, 83, 72
1, 1062640, Control_c, 0, 64, 85
1, 1062646, Note_on_c, 0, 80, 69
1, 1062654, Note_off_c, 0, 41, 69
1, 1062654, Poly_aftertouch_c, 0, 41, 0
1, 1062659, Control_c, 0, 64, 126
1, 1062660, Control_c, 0, 67, 0
1, 1062661, Note_off_c, 0, 74, 66
1, 1062665, Note_off_c, 0, 53, 64
1, 1062665, Poly_aftertouch_c, 0, 53, 0
1, 1062668, Note_off_c, 0, 83, 66
1, 1062673, Note_off_c, 0, 80, 70
1, 1062673, Poly_aftertouch_c, 0, 80, 0
1, 1062689, Note_off_c, 0, 86, 64
1, 1062697, Control_c, 0, 64, 83
1, 1062715, Control_c, 0, 64, 42
1, 1062734, Control_c, 0, 64, 0
1, 1062856, Note_on_c, 0, 87, 83
1, 1062858, Note_on_c, 0, 56, 63
1, 1062864, Note_on_c, 0, 75, 76
1, 1062867, Note_on_c, 0, 62, 57
1, 1062874, Note_on_c, 0, 59, 58
1, 1062885, Note_off_c, 0, 87, 67
1, 1062892, Note_off_c, 0, 75, 71
1, 1062896, Note_off_c, 0, 56, 65
1, 1062896, Poly_aftertouch_c, 0, 56, 0
1, 1062910, Note_off_c, 0, 62, 63
1, 1062914, Note_off_c, 0, 59, 64
1, 1062914, Poly_aftertouch_c, 0, 59, 0
1, 1063057, Note_on_c, 0, 89, 79
1, 1063065, Note_on_c, 0, 59, 58
1, 1063065, Note_on_c, 0, 77, 75
1, 1063069, Note_on_c, 0, 62, 58
1, 1063069, Note_on_c, 0, 68, 66
1, 1063082, Note_off_c, 0, 89, 72
1, 1063098, Note_off_c, 0, 77, 66
1, 1063098, Poly_aftertouch_c, 0, 77, 0
1, 1063106, Note_off_c, 0, 68, 69
1, 1063106, Poly_aftertouch_c, 0, 68, 0
1, 1063109, Note_off_c, 0, 62, 65
1, 1063115, Note_off_c, 0, 59, 65
1, 1063115, Poly_aftertouch_c, 0, 59, 0
1, 1063303, Note_on_c, 0, 82, 85
1, 1063307, Note_on_c, 0, 54, 79
1, 1063308, Note_on_c, 0, 42, 67
1, 1063309, Note_on_c, 0, 70, 73
1, 1063314, Note_on_c, 0, 75, 71
1, 1063316, Control_c, 0, 64, 55
1, 1063332, Note_off_c, 0, 54, 67
1, 1063332, Poly_aftertouch_c, 0, 54, 0
1, 1063332, Control_c, 0, 64, 101
1, 1063335, Note_off_c, 0, 70, 70
1, 1063335, Poly_aftertouch_c, 0, 70, 0
1, 1063343, Note_off_c, 0, 42, 64
1, 1063344, Note_off_c, 0, 75, 70
1, 1063349, Note_off_c, 0, 82, 57
1, 1063351, Control_c, 0, 64, 127
1, 1063519, Control_c, 0, 64, 104
1, 1063530, Note_on_c, 0, 63, 68
1, 1063536, Note_on_c, 0, 58, 63
1, 1063538, Control_c, 0, 64, 60
1, 1063557, Control_c, 0, 64, 0
1, 1063567, Note_off_c, 0, 63, 68
1, 1063567, Poly_aftertouch_c, 0, 63, 0
1, 1063575, Poly_aftertouch_c, 0, 54, 127
1, 1063578, Poly_aftertouch_c, 0, 54, 0
1, 1063580, Note_off_c, 0, 58, 63
1, 1063731, Note_on_c, 0, 66, 61
1, 1063733, Note_on_c, 0, 63, 60
1, 1063734, Note_on_c, 0, 58, 60
1, 1063764, Note_on_c, 0, 81, 53
1, 1063765, Note_off_c, 0, 66, 65
1, 1063765, Note_off_c, 0, 63, 62
1, 1063765, Poly_aftertouch_c, 0, 63, 0
1, 1063765, Poly_aftertouch_c, 0, 66, 0
1, 1063770, Note_off_c, 0, 58, 65
1, 1063809, Note_off_c, 0, 81, 64
1, 1063814, Note_on_c, 0, 82, 70
1, 1063889, Note_on_c, 0, 84, 63
1, 1063903, Note_off_c, 0, 82, 54
1, 1063946, Note_on_c, 0, 85, 93
1, 1063949, Control_c, 0, 64, 19
1, 1063958, Note_on_c, 0, 55, 75
1, 1063958, Note_on_c, 0, 73, 88
1, 1063959, Note_on_c, 0, 43, 75
1, 1063967, Control_c, 0, 64, 127
1, 1063973, Note_off_c, 0, 84, 62
1, 1063989, Note_off_c, 0, 73, 66
1, 1063989, Note_off_c, 0, 55, 71
1, 1063989, Poly_aftertouch_c, 0, 55, 0
1, 1063989, Poly_aftertouch_c, 0, 73, 0
1, 1063993, Note_off_c, 0, 43, 65
1, 1063998, Note_off_c, 0, 85, 67
1, 1064081, Control_c, 0, 67, 8
1, 1064118, Control_c, 0, 64, 120
1, 1064119, Control_c, 0, 67, 14
1, 1064138, Control_c, 0, 64, 77
1, 1064140, Control_c, 0, 67, 20
1, 1064155, Control_c, 0, 64, 0
1, 1064155, Control_c, 0, 67, 29
1, 1064174, Control_c, 0, 67, 40
1, 1064187, Note_on_c, 0, 55, 63
1, 1064187, Note_on_c, 0, 61, 62
1, 1064193, Control_c, 0, 67, 50
1, 1064202, Note_on_c, 0, 58, 48
1, 1064212, Control_c, 0, 67, 57
1, 1064226, Note_off_c, 0, 55, 65
1, 1064226, Poly_aftertouch_c, 0, 55, 0
1, 1064229, Note_off_c, 0, 61, 65
1, 1064229, Poly_aftertouch_c, 0, 61, 0
1, 1064238, Note_off_c, 0, 58, 61
1, 1064248, Control_c, 0, 67, 62
1, 1064285, Note_on_c, 0, 81, 75
1, 1064289, Note_on_c, 0, 69, 71
1, 1064309, Note_off_c, 0, 81, 71
1, 1064323, Note_off_c, 0, 69, 67
1, 1064371, Note_on_c, 0, 82, 87
1, 1064378, Note_on_c, 0, 61, 66
1, 1064381, Note_on_c, 0, 58, 60
1, 1064381, Note_on_c, 0, 70, 77
1, 1064383, Note_on_c, 0, 64, 61
1, 1064409, Note_off_c, 0, 70, 72
1, 1064409, Poly_aftertouch_c, 0, 70, 0
1, 1064411, Note_off_c, 0, 61, 67
1, 1064411, Poly_aftertouch_c, 0, 61, 0
1, 1064414, Note_off_c, 0, 64, 62
1, 1064418, Note_off_c, 0, 58, 67
1, 1064419, Note_off_c, 0, 82, 62
1, 1064579, Note_on_c, 0, 56, 70
1, 1064584, Note_on_c, 0, 44, 67
1, 1064611, Note_off_c, 0, 56, 66
1, 1064611, Poly_aftertouch_c, 0, 56, 0
1, 1064623, Note_off_c, 0, 44, 63
1, 1064623, Control_c, 0, 64, 79
1, 1064640, Control_c, 0, 64, 127
1, 1064669, Note_on_c, 0, 85, 80
1, 1064677, Control_c, 0, 67, 57
1, 1064680, Note_on_c, 0, 73, 72
1, 1064694, Note_off_c, 0, 85, 73
1, 1064710, Note_off_c, 0, 73, 70
1, 1064710, Poly_aftertouch_c, 0, 73, 0
1, 1064735, Control_c, 0, 64, 85
1, 1064753, Control_c, 0, 64, 0
1, 1064769, Note_on_c, 0, 53, 62
1, 1064770, Note_on_c, 0, 61, 70
1, 1064774, Note_on_c, 0, 79, 88
1, 1064786, Note_on_c, 0, 67, 78
1, 1064792, Note_on_c, 0, 56, 38
1, 1064804, Note_off_c, 0, 61, 68
1, 1064804, Poly_aftertouch_c, 0, 61, 0
1, 1064807, Note_off_c, 0, 53, 63
1, 1064807, Poly_aftertouch_c, 0, 53, 0
1, 1064814, Note_off_c, 0, 67, 71
1, 1064828, Note_off_c, 0, 56, 57
1, 1064828, Poly_aftertouch_c, 0, 56, 0
1, 1064829, Note_off_c, 0, 79, 61
1, 1064829, Poly_aftertouch_c, 0, 79, 0
1, 1065047, Note_on_c, 0, 68, 71
1, 1065049, Note_on_c, 0, 80, 81
1, 1065053, Note_on_c, 0, 65, 64
1, 1065054, Note_on_c, 0, 61, 68
1, 1065058, Note_on_c, 0, 56, 62
1, 1065078, Note_off_c, 0, 68, 71
1, 1065078, Poly_aftertouch_c, 0, 68, 0
1, 1065079, Note_off_c, 0, 80, 62
1, 1065079, Poly_aftertouch_c, 0, 80, 0
1, 1065083, Note_off_c, 0, 65, 63
1, 1065085, Note_off_c, 0, 61, 67
1, 1065085, Poly_aftertouch_c, 0, 61, 0
1, 1065093, Note_off_c, 0, 56, 66
1, 1065093, Poly_aftertouch_c, 0, 56, 0
1, 1065281, Note_on_c, 0, 57, 70
1, 1065281, Note_on_c, 0, 45, 71
1, 1065311, Note_off_c, 0, 45, 66
1, 1065313, Note_off_c, 0, 57, 66
1, 1065313, Poly_aftertouch_c, 0, 57, 0
1, 1065333, Control_c, 0, 64, 90
1, 1065353, Control_c, 0, 64, 127
1, 1065368, Note_on_c, 0, 89, 65
1, 1065368, Note_on_c, 0, 77, 77
1, 1065391, Note_off_c, 0, 89, 65
1, 1065409, Control_c, 0, 64, 120
1, 1065412, Note_off_c, 0, 77, 60
1, 1065412, Poly_aftertouch_c, 0, 77, 0
1, 1065428, Control_c, 0, 64, 75
1, 1065444, Control_c, 0, 64, 0
1, 1065477, Note_on_c, 0, 64, 73
1, 1065478, Note_on_c, 0, 76, 72
1, 1065484, Note_on_c, 0, 60, 64
1, 1065488, Note_on_c, 0, 53, 65
1, 1065505, Note_off_c, 0, 64, 70
1, 1065520, Note_off_c, 0, 76, 63
1, 1065520, Note_off_c, 0, 60, 66
1, 1065520, Poly_aftertouch_c, 0, 60, 0
1, 1065528, Note_off_c, 0, 53, 63
1, 1065528, Poly_aftertouch_c, 0, 53, 0
1, 1065709, Note_on_c, 0, 77, 78
1, 1065722, Note_on_c, 0, 60, 54
1, 1065731, Note_on_c, 0, 63, 58
1, 1065734, Note_on_c, 0, 65, 35
1, 1065737, Note_off_c, 0, 77, 67
1, 1065737, Poly_aftertouch_c, 0, 77, 0
1, 1065759, Note_off_c, 0, 60, 65
1, 1065759, Poly_aftertouch_c, 0, 60, 0
1, 1065767, Note_off_c, 0, 63, 64
1, 1065767, Poly_aftertouch_c, 0, 63, 0
1, 1065778, Note_off_c, 0, 65, 48
1, 1065898, Note_on_c, 0, 46, 60
1, 1065973, Note_on_c, 0, 53, 51
1, 1065982, Note_off_c, 0, 46, 62
1, 1066016, Note_off_c, 0, 53, 63
1, 1066016, Note_on_c, 0, 61, 65
1, 1066016, Poly_aftertouch_c, 0, 53, 0
1, 1066027, Note_on_c, 0, 94, 75
1, 1066044, Control_c, 0, 67, 41
1, 1066053, Note_off_c, 0, 61, 65
1, 1066053, Poly_aftertouch_c, 0, 61, 0
1, 1066081, Control_c, 0, 67, 0
1, 1066110, Note_off_c, 0, 94, 65
1, 1066122, Note_on_c, 0, 89, 69
1, 1066187, Note_off_c, 0, 89, 59
1, 1066196, Note_on_c, 0, 85, 79
1, 1066265, Note_off_c, 0, 85, 62
1, 1066284, Note_on_c, 0, 82, 71
1, 1066315, Note_off_c, 0, 82, 70
1, 1066388, Note_on_c, 0, 70, 79
1, 1066418, Note_off_c, 0, 70, 74
1, 1066418, Poly_aftertouch_c, 0, 70, 0
1, 1066684, Note_on_c, 0, 82, 95
1, 1066684, Note_on_c, 0, 70, 101
1, 1066686, Note_on_c, 0, 73, 96
1, 1066687, Note_on_c, 0, 79, 86
1, 1066707, Note_on_c, 0, 40, 98
1, 1066709, Note_on_c, 0, 28, 96
1, 1066717, Control_c, 0, 64, 41
1, 1066731, Note_off_c, 0, 70, 67
1, 1066731, Poly_aftertouch_c, 0, 70, 0
1, 1066735, Control_c, 0, 64, 127
1, 1066740, Note_off_c, 0, 28, 71
1, 1066742, Note_off_c, 0, 40, 65
1, 1066747, Note_off_c, 0, 79, 67
1, 1066747, Poly_aftertouch_c, 0, 79, 0
1, 1066750, Note_off_c, 0, 82, 66
1, 1066758, Note_off_c, 0, 73, 67
1, 1066758, Poly_aftertouch_c, 0, 73, 0
1, 1066886, Control_c, 0, 67, 9
1, 1066904, Control_c, 0, 64, 106
1, 1066923, Control_c, 0, 64, 80
1, 1066942, Control_c, 0, 64, 54
1, 1066960, Control_c, 0, 64, 0
1, 1067009, Note_on_c, 0, 29, 81
1, 1067013, Note_on_c, 0, 41, 78
1, 1067040, Note_off_c, 0, 29, 65
1, 1067040, Poly_aftertouch_c, 0, 29, 0
1, 1067042, Note_off_c, 0, 41, 67
1, 1067042, Poly_aftertouch_c, 0, 41, 0
1, 1067101, Note_on_c, 0, 43, 96
1, 1067103, Note_on_c, 0, 31, 89
1, 1067143, Note_off_c, 0, 31, 65
1, 1067150, Note_off_c, 0, 43, 62
1, 1067313, Note_on_c, 0, 68, 89
1, 1067316, Note_on_c, 0, 80, 84
1, 1067317, Note_on_c, 0, 72, 78
1, 1067317, Note_on_c, 0, 77, 77
1, 1067334, Control_c, 0, 67, 0
1, 1067350, Note_off_c, 0, 72, 64
1, 1067351, Control_c, 0, 64, 66
1, 1067358, Note_off_c, 0, 77, 57
1, 1067358, Poly_aftertouch_c, 0, 77, 0
1, 1067370, Note_off_c, 0, 80, 64
1, 1067370, Poly_aftertouch_c, 0, 80, 0
1, 1067371, Control_c, 0, 64, 127
1, 1067372, Note_off_c, 0, 68, 63
1, 1067372, Poly_aftertouch_c, 0, 68, 0
1, 1067407, Note_on_c, 0, 44, 93
1, 1067416, Note_on_c, 0, 32, 84
1, 1067434, Note_off_c, 0, 44, 70
1, 1067453, Note_off_c, 0, 32, 64
1, 1067484, Control_c, 0, 64, 80
1, 1067499, Note_on_c, 0, 46, 96
1, 1067502, Note_on_c, 0, 34, 89
1, 1067502, Control_c, 0, 64, 0
1, 1067553, Note_off_c, 0, 46, 61
1, 1067553, Note_off_c, 0, 34, 60
1, 1067755, Note_on_c, 0, 48, 98
1, 1067763, Note_on_c, 0, 36, 89
1, 1067787, Note_off_c, 0, 48, 68
1, 1067793, Note_off_c, 0, 36, 68
1, 1067987, Note_on_c, 0, 77, 90
1, 1067988, Note_on_c, 0, 65, 93
1, 1067989, Note_on_c, 0, 73, 89
1, 1067989, Note_on_c, 0, 70, 89
1, 1068007, Note_on_c, 0, 49, 101
1, 1068009, Control_c, 0, 64, 65
1, 1068011, Note_on_c, 0, 37, 92
1, 1068023, Note_off_c, 0, 65, 67
1, 1068024, Control_c, 0, 64, 127
1, 1068036, Note_off_c, 0, 77, 63
1, 1068036, Poly_aftertouch_c, 0, 77, 0
1, 1068041, Note_off_c, 0, 73, 65
1, 1068041, Poly_aftertouch_c, 0, 73, 0
1, 1068043, Note_off_c, 0, 70, 67
1, 1068043, Poly_aftertouch_c, 0, 70, 0
1, 1068045, Note_off_c, 0, 37, 66
1, 1068045, Poly_aftertouch_c, 0, 37, 0
1, 1068049, Note_off_c, 0, 49, 56
1, 1068049, Poly_aftertouch_c, 0, 49, 0
1, 1068138, Control_c, 0, 64, 99
1, 1068156, Control_c, 0, 64, 68
1, 1068176, Control_c, 0, 64, 35
1, 1068194, Control_c, 0, 64, 0
1, 1068238, Note_on_c, 0, 48, 92
1, 1068243, Note_on_c, 0, 36, 90
1, 1068270, Note_off_c, 0, 48, 70
1, 1068277, Note_off_c, 0, 36, 71
1, 1068482, Note_on_c, 0, 46, 98
1, 1068487, Note_on_c, 0, 34, 88
1, 1068508, Note_off_c, 0, 46, 70
1, 1068518, Note_off_c, 0, 34, 66
1, 1068785, Note_on_c, 0, 72, 83
1, 1068788, Note_on_c, 0, 60, 85
1, 1068792, Note_on_c, 0, 68, 79
1, 1068797, Note_on_c, 0, 65, 80
1, 1068807, Note_on_c, 0, 53, 97
1, 1068817, Note_on_c, 0, 41, 85
1, 1068837, Note_off_c, 0, 53, 68
1, 1068837, Poly_aftertouch_c, 0, 53, 0
1, 1068839, Note_off_c, 0, 60, 63
1, 1068839, Poly_aftertouch_c, 0, 60, 0
1, 1068848, Control_c, 0, 64, 46
1, 1068849, Note_off_c, 0, 41, 67
1, 1068849, Poly_aftertouch_c, 0, 41, 0
1, 1068854, Note_off_c, 0, 72, 62
1, 1068858, Note_off_c, 0, 65, 60
1, 1068865, Note_off_c, 0, 68, 67
1, 1068865, Poly_aftertouch_c, 0, 68, 0
1, 1068867, Control_c, 0, 64, 127
1, 1069205, Control_c, 0, 64, 119
1, 1069222, Control_c, 0, 64, 92
1, 1069242, Control_c, 0, 64, 61
1, 1069261, Control_c, 0, 64, 11
1, 1069278, Control_c, 0, 64, 0
1, 1069297, Control_c, 0, 67, 9
1, 1069335, Control_c, 0, 67, 14
1, 1069353, Control_c, 0, 67, 19
1, 1069372, Control_c, 0, 67, 26
1, 1069391, Control_c, 0, 67, 35
1, 1069409, Control_c, 0, 67, 43
1, 1069429, Control_c, 0, 67, 48
1, 1069447, Control_c, 0, 67, 52
1, 1069484, Control_c, 0, 67, 60
1, 1069504, Control_c, 0, 67, 65
1, 1069522, Control_c, 0, 67, 70
1, 1069532, Note_on_c, 0, 71, 56
1, 1069540, Control_c, 0, 67, 75
1, 1069558, Control_c, 0, 67, 81
1, 1069578, Control_c, 0, 67, 86
1, 1069597, Control_c, 0, 67, 92
1, 1069615, Control_c, 0, 67, 99
1, 1069616, Note_on_c, 0, 42, 54
1, 1069635, Control_c, 0, 67, 107
1, 1069652, Control_c, 0, 67, 113
1, 1069658, Note_off_c, 0, 42, 64
1, 1069671, Control_c, 0, 67, 117
1, 1069709, Control_c, 0, 67, 121
1, 1069721, Note_on_c, 0, 61, 50
1, 1069738, Note_on_c, 0, 40, 51
1, 1069765, Control_c, 0, 67, 126
1, 1069774, Note_off_c, 0, 40, 57
1, 1069908, Note_off_c, 0, 61, 23
1, 1069908, Poly_aftertouch_c, 0, 61, 0
1, 1070001, Note_on_c, 0, 68, 47
1, 1070003, Note_on_c, 0, 41, 50
1, 1070038, Note_off_c, 0, 41, 59
1, 1070038, Poly_aftertouch_c, 0, 41, 0
1, 1070057, Note_off_c, 0, 68, 62
1, 1070057, Poly_aftertouch_c, 0, 68, 0
1, 1070256, Note_on_c, 0, 69, 57
1, 1070346, Note_on_c, 0, 44, 53
1, 1070372, Note_off_c, 0, 71, 58
1, 1070372, Poly_aftertouch_c, 0, 71, 0
1, 1070383, Note_off_c, 0, 44, 63
1, 1070455, Note_on_c, 0, 61, 48
1, 1070458, Note_on_c, 0, 41, 55
1, 1070502, Note_off_c, 0, 41, 60
1, 1070502, Poly_aftertouch_c, 0, 41, 0
1, 1070680, Note_on_c, 0, 70, 70
1, 1070695, Note_on_c, 0, 42, 55
1, 1070705, Note_on_c, 0, 66, 48
1, 1070726, Note_off_c, 0, 69, 58
1, 1070735, Note_off_c, 0, 42, 64
1, 1070742, Note_off_c, 0, 61, 45
1, 1070742, Poly_aftertouch_c, 0, 61, 0
1, 1070765, Note_off_c, 0, 66, 55
1, 1070765, Poly_aftertouch_c, 0, 66, 0
1, 1070830, Control_c, 0, 67, 122
1, 1070905, Control_c, 0, 67, 117
1, 1070914, Note_on_c, 0, 73, 77
1, 1070943, Control_c, 0, 67, 111
1, 1070961, Control_c, 0, 67, 105
1, 1070980, Control_c, 0, 67, 96
1, 1070999, Control_c, 0, 67, 80
1, 1071017, Control_c, 0, 67, 53
1, 1071026, Note_on_c, 0, 46, 60
1, 1071032, Note_off_c, 0, 70, 50
1, 1071032, Poly_aftertouch_c, 0, 70, 0
1, 1071036, Control_c, 0, 67, 15
1, 1071055, Control_c, 0, 67, 0
1, 1071071, Note_off_c, 0, 46, 58
1, 1071117, Note_on_c, 0, 63, 59
1, 1071132, Note_on_c, 0, 44, 57
1, 1071169, Note_off_c, 0, 44, 64
1, 1071332, Note_on_c, 0, 72, 70
1, 1071334, Note_on_c, 0, 65, 59
1, 1071341, Note_on_c, 0, 45, 54
1, 1071379, Note_off_c, 0, 45, 62
1, 1071394, Note_off_c, 0, 63, 39
1, 1071394, Poly_aftertouch_c, 0, 63, 0
1, 1071441, Note_off_c, 0, 65, 58
1, 1071515, Note_off_c, 0, 73, 24
1, 1071515, Poly_aftertouch_c, 0, 73, 0
1, 1071563, Note_on_c, 0, 75, 81
1, 1071597, Note_off_c, 0, 72, 58
1, 1071657, Note_on_c, 0, 48, 60
1, 1071697, Note_off_c, 0, 48, 65
1, 1071750, Note_on_c, 0, 65, 63
1, 1071771, Note_on_c, 0, 45, 57
1, 1071816, Note_off_c, 0, 45, 59
1, 1071969, Note_on_c, 0, 74, 75
1, 1071977, Note_off_c, 0, 65, 37
1, 1071978, Note_on_c, 0, 46, 74
1, 1071980, Note_on_c, 0, 70, 67
1, 1072006, Note_off_c, 0, 75, 64
1, 1072010, Note_off_c, 0, 46, 66
1, 1072014, Note_off_c, 0, 70, 66
1, 1072014, Poly_aftertouch_c, 0, 70, 0
1, 1072029, Note_off_c, 0, 74, 64
1, 1072239, Note_on_c, 0, 80, 96
1, 1072239, Note_on_c, 0, 77, 88
1, 1072240, Note_on_c, 0, 71, 93
1, 1072240, Note_on_c, 0, 68, 100
1, 1072252, Note_on_c, 0, 38, 83
1, 1072254, Note_on_c, 0, 26, 89
1, 1072257, Note_on_c, 0, 40, 84
1, 1072270, Control_c, 0, 64, 127
1, 1072279, Note_on_c, 0, 75, 50
1, 1072282, Note_on_c, 0, 28, 39
1, 1072285, Note_off_c, 0, 68, 62
1, 1072285, Poly_aftertouch_c, 0, 68, 0
1, 1072287, Note_off_c, 0, 40, 63
1, 1072289, Note_off_c, 0, 38, 65
1, 1072294, Note_off_c, 0, 26, 67
1, 1072298, Note_off_c, 0, 71, 66
1, 1072298, Poly_aftertouch_c, 0, 71, 0
1, 1072301, Note_off_c, 0, 80, 66
1, 1072301, Poly_aftertouch_c, 0, 80, 0
1, 1072305, Note_off_c, 0, 77, 61
1, 1072305, Poly_aftertouch_c, 0, 77, 0
1, 1072310, Note_off_c, 0, 75, 61
1, 1072333, Note_off_c, 0, 28, 46
1, 1072459, Control_c, 0, 64, 111
1, 1072461, Note_on_c, 0, 40, 8
1, 1072465, Note_off_c, 0, 40, 34
1, 1072478, Control_c, 0, 64, 78
1, 1072495, Control_c, 0, 64, 39
1, 1072513, Control_c, 0, 64, 0
1, 1072572, Note_on_c, 0, 27, 82
1, 1072574, Note_on_c, 0, 39, 85
1, 1072598, Note_off_c, 0, 39, 66
1, 1072600, Note_off_c, 0, 27, 66
1, 1072653, Note_on_c, 0, 41, 96
1, 1072655, Note_on_c, 0, 29, 89
1, 1072697, Note_off_c, 0, 29, 66
1, 1072697, Poly_aftertouch_c, 0, 29, 0
1, 1072701, Note_off_c, 0, 41, 64
1, 1072701, Poly_aftertouch_c, 0, 41, 0
1, 1072753, Poly_aftertouch_c, 0, 39, 0
1, 1072879, Note_on_c, 0, 66, 91
1, 1072883, Note_on_c, 0, 78, 90
1, 1072884, Note_on_c, 0, 70, 84
1, 1072888, Note_on_c, 0, 75, 81
1, 1072926, Note_off_c, 0, 70, 61
1, 1072926, Poly_aftertouch_c, 0, 70, 0
1, 1072941, Note_off_c, 0, 66, 64
1, 1072941, Poly_aftertouch_c, 0, 66, 0
1, 1072944, Control_c, 0, 64, 74
1, 1072956, Note_off_c, 0, 78, 65
1, 1072962, Control_c, 0, 64, 127
1, 1072964, Note_on_c, 0, 42, 97
1, 1072966, Note_off_c, 0, 75, 61
1, 1072968, Note_on_c, 0, 30, 91
1, 1072993, Note_off_c, 0, 42, 71
1, 1073001, Note_off_c, 0, 30, 66
1, 1073066, Note_on_c, 0, 44, 100
1, 1073093, Control_c, 0, 64, 99
1, 1073105, Poly_aftertouch_c, 0, 32, 127
1, 1073110, Control_c, 0, 64, 30
1, 1073113, Note_off_c, 0, 44, 61
1, 1073126, Poly_aftertouch_c, 0, 32, 0
1, 1073129, Control_c, 0, 64, 0
1, 1073191, Poly_aftertouch_c, 0, 34, 0
1, 1073331, Note_on_c, 0, 46, 96
1, 1073336, Note_on_c, 0, 34, 88
1, 1073358, Note_off_c, 0, 46, 68
1, 1073371, Note_off_c, 0, 34, 68
1, 1073564, Note_on_c, 0, 75, 93
1, 1073565, Note_on_c, 0, 63, 95
1, 1073568, Note_on_c, 0, 68, 88
1, 1073570, Note_on_c, 0, 71, 80
1, 1073585, Note_on_c, 0, 47, 95
1, 1073591, Note_on_c, 0, 35, 90
1, 1073618, Control_c, 0, 64, 121
1, 1073621, Note_off_c, 0, 63, 60
1, 1073621, Poly_aftertouch_c, 0, 63, 0
1, 1073623, Note_off_c, 0, 47, 65
1, 1073623, Poly_aftertouch_c, 0, 47, 0
1, 1073625, Note_off_c, 0, 35, 70
1, 1073626, Note_off_c, 0, 75, 68
1, 1073631, Note_off_c, 0, 71, 63
1, 1073631, Poly_aftertouch_c, 0, 71, 0
1, 1073636, Note_off_c, 0, 68, 67
1, 1073636, Poly_aftertouch_c, 0, 68, 0
1, 1073637, Control_c, 0, 64, 127
1, 1073766, Control_c, 0, 64, 104
1, 1073785, Control_c, 0, 64, 58
1, 1073803, Control_c, 0, 64, 0
1, 1073821, Note_on_c, 0, 46, 90
1, 1073825, Note_on_c, 0, 34, 86
1, 1073850, Note_off_c, 0, 46, 71
1, 1073859, Note_off_c, 0, 34, 66
1, 1074055, Note_on_c, 0, 44, 95
1, 1074059, Note_on_c, 0, 32, 86
1, 1074081, Note_off_c, 0, 44, 71
1, 1074089, Note_off_c, 0, 32, 65
1, 1074349, Note_on_c, 0, 70, 89
1, 1074352, Note_on_c, 0, 58, 88
1, 1074356, Note_on_c, 0, 66, 78
1, 1074357, Note_on_c, 0, 63, 80
1, 1074368, Note_on_c, 0, 51, 101
1, 1074376, Note_on_c, 0, 39, 87
1, 1074395, Note_off_c, 0, 58, 63
1, 1074400, Note_off_c, 0, 51, 66
1, 1074405, Note_off_c, 0, 39, 65
1, 1074420, Note_off_c, 0, 70, 66
1, 1074420, Poly_aftertouch_c, 0, 70, 0
1, 1074420, Control_c, 0, 64, 91
1, 1074421, Note_off_c, 0, 63, 64
1, 1074421, Poly_aftertouch_c, 0, 63, 0
1, 1074424, Note_off_c, 0, 66, 65
1, 1074424, Poly_aftertouch_c, 0, 66, 0
1, 1074439, Control_c, 0, 64, 127
1, 1074599, Poly_aftertouch_c, 0, 39, 0
1, 1074833, Control_c, 0, 64, 95
1, 1074851, Control_c, 0, 64, 56
1, 1074869, Control_c, 0, 64, 0
1, 1075167, Note_on_c, 0, 73, 63
1, 1075282, Note_on_c, 0, 42, 64
1, 1075318, Note_off_c, 0, 42, 65
1, 1075337, Control_c, 0, 67, 8
1, 1075372, Note_on_c, 0, 61, 50
1, 1075375, Control_c, 0, 67, 17
1, 1075393, Control_c, 0, 67, 25
1, 1075400, Note_on_c, 0, 39, 65
1, 1075411, Control_c, 0, 67, 33
1, 1075431, Control_c, 0, 67, 40
1, 1075438, Note_off_c, 0, 39, 60
1, 1075449, Control_c, 0, 67, 47
1, 1075467, Control_c, 0, 67, 57
1, 1075487, Control_c, 0, 67, 70
1, 1075505, Control_c, 0, 67, 85
1, 1075524, Control_c, 0, 67, 98
1, 1075542, Control_c, 0, 67, 107
1, 1075561, Control_c, 0, 67, 112
1, 1075580, Control_c, 0, 67, 117
1, 1075598, Control_c, 0, 67, 122
1, 1075618, Control_c, 0, 67, 126
1, 1075708, Note_on_c, 0, 70, 58
1, 1075726, Note_on_c, 0, 66, 46
1, 1075736, Note_on_c, 0, 40, 50
1, 1075753, Note_off_c, 0, 61, 57
1, 1075753, Poly_aftertouch_c, 0, 61, 0
1, 1075770, Note_off_c, 0, 66, 65
1, 1075770, Poly_aftertouch_c, 0, 66, 0
1, 1075774, Note_off_c, 0, 40, 58
1, 1075784, Note_off_c, 0, 73, 60
1, 1075784, Poly_aftertouch_c, 0, 73, 0
1, 1075785, Note_off_c, 0, 70, 62
1, 1075785, Poly_aftertouch_c, 0, 70, 0
1, 1076017, Note_on_c, 0, 78, 62
1, 1076127, Note_on_c, 0, 40, 50
1, 1076174, Note_off_c, 0, 40, 58
1, 1076227, Note_on_c, 0, 66, 46
1, 1076238, Note_on_c, 0, 38, 55
1, 1076288, Note_off_c, 0, 38, 60
1, 1076473, Note_on_c, 0, 75, 58
1, 1076492, Note_on_c, 0, 71, 44
1, 1076492, Note_on_c, 0, 39, 50
1, 1076515, Note_off_c, 0, 78, 61
1, 1076515, Note_off_c, 0, 66, 62
1, 1076515, Poly_aftertouch_c, 0, 66, 0
1, 1076519, Note_off_c, 0, 75, 60
1, 1076524, Note_off_c, 0, 71, 57
1, 1076524, Poly_aftertouch_c, 0, 71, 0
1, 1076532, Note_off_c, 0, 39, 60
1, 1076713, Note_on_c, 0, 73, 74
1, 1076817, Note_on_c, 0, 42, 64
1, 1076870, Note_off_c, 0, 42, 57
1, 1076916, Note_on_c, 0, 61, 55
1, 1076924, Note_on_c, 0, 39, 66
1, 1076961, Note_off_c, 0, 39, 61
1, 1077180, Note_on_c, 0, 70, 58
1, 1077203, Note_on_c, 0, 40, 57
1, 1077203, Note_on_c, 0, 66, 42
1, 1077210, Note_off_c, 0, 61, 62
1, 1077210, Poly_aftertouch_c, 0, 61, 0
1, 1077243, Note_off_c, 0, 40, 61
1, 1077247, Note_off_c, 0, 66, 64
1, 1077247, Poly_aftertouch_c, 0, 66, 0
1, 1077255, Note_off_c, 0, 73, 60
1, 1077255, Poly_aftertouch_c, 0, 73, 0
1, 1077257, Note_off_c, 0, 70, 60
1, 1077257, Poly_aftertouch_c, 0, 70, 0
1, 1077467, Note_on_c, 0, 78, 59
1, 1077574, Note_on_c, 0, 40, 44
1, 1077615, Note_off_c, 0, 40, 54
1, 1077666, Note_on_c, 0, 38, 53
1, 1077668, Note_on_c, 0, 66, 52
1, 1077706, Note_off_c, 0, 38, 59
1, 1077900, Note_on_c, 0, 75, 58
1, 1077904, Note_on_c, 0, 39, 54
1, 1077910, Note_on_c, 0, 71, 46
1, 1077934, Note_off_c, 0, 78, 62
1, 1077941, Note_off_c, 0, 66, 63
1, 1077941, Poly_aftertouch_c, 0, 66, 0
1, 1077942, Note_off_c, 0, 71, 56
1, 1077942, Note_off_c, 0, 75, 65
1, 1077942, Poly_aftertouch_c, 0, 71, 0
1, 1077946, Note_off_c, 0, 39, 61
1, 1078158, Note_on_c, 0, 61, 70
1, 1078253, Note_on_c, 0, 42, 58
1, 1078320, Note_off_c, 0, 42, 60
1, 1078351, Note_on_c, 0, 54, 61
1, 1078361, Note_on_c, 0, 39, 68
1, 1078408, Note_off_c, 0, 39, 63
1, 1078583, Note_on_c, 0, 58, 60
1, 1078587, Note_on_c, 0, 40, 63
1, 1078601, Note_off_c, 0, 54, 55
1, 1078629, Note_off_c, 0, 40, 61
1, 1078670, Note_off_c, 0, 58, 48
1, 1078825, Note_on_c, 0, 66, 72
1, 1078925, Note_on_c, 0, 40, 59
1, 1078975, Note_off_c, 0, 61, 51
1, 1078975, Note_off_c, 0, 40, 55
1, 1078975, Poly_aftertouch_c, 0, 61, 0
1, 1079009, Note_on_c, 0, 54, 54
1, 1079056, Note_on_c, 0, 38, 54
1, 1079104, Note_off_c, 0, 38, 60
1, 1079272, Note_on_c, 0, 58, 40
1, 1079275, Note_on_c, 0, 60, 49
1, 1079279, Note_on_c, 0, 39, 50
1, 1079326, Note_off_c, 0, 39, 59
1, 1079338, Control_c, 0, 64, 10
1, 1079357, Control_c, 0, 64, 26
1, 1079375, Control_c, 0, 64, 36
1, 1079395, Control_c, 0, 64, 43
1, 1079412, Control_c, 0, 64, 48
1, 1079432, Control_c, 0, 64, 52
1, 1079443, Note_off_c, 0, 66, 61
1, 1079443, Poly_aftertouch_c, 0, 66, 0
1, 1079450, Control_c, 0, 64, 55
1, 1079470, Control_c, 0, 64, 58
1, 1079478, Note_off_c, 0, 54, 50
1, 1079488, Control_c, 0, 64, 60
1, 1079507, Control_c, 0, 64, 62
1, 1079513, Note_on_c, 0, 65, 66
1, 1079526, Control_c, 0, 64, 63
1, 1079546, Note_off_c, 0, 58, 58
1, 1079562, Control_c, 0, 64, 62
1, 1079569, Note_off_c, 0, 60, 54
1, 1079569, Poly_aftertouch_c, 0, 60, 0
1, 1079583, Control_c, 0, 64, 59
1, 1079600, Control_c, 0, 64, 51
1, 1079607, Note_on_c, 0, 42, 59
1, 1079619, Control_c, 0, 64, 26
1, 1079638, Control_c, 0, 64, 0
1, 1079690, Note_off_c, 0, 42, 57
1, 1079724, Note_on_c, 0, 51, 55
1, 1079729, Note_on_c, 0, 40, 52
1, 1079769, Control_c, 0, 64, 39
1, 1079788, Control_c, 0, 64, 61
1, 1079799, Note_off_c, 0, 40, 54
1, 1079805, Control_c, 0, 64, 78
1, 1079809, Note_off_c, 0, 51, 53
1, 1079826, Control_c, 0, 64, 91
1, 1079843, Control_c, 0, 64, 108
1, 1079863, Control_c, 0, 64, 126
1, 1079896, Note_off_c, 0, 65, 60
1, 1079904, Note_on_c, 0, 60, 60
1, 1079922, Note_on_c, 0, 57, 35
1, 1079926, Note_on_c, 0, 41, 61
1, 1079943, Note_off_c, 0, 60, 66
1, 1079943, Poly_aftertouch_c, 0, 60, 0
1, 1079967, Note_off_c, 0, 57, 46
1, 1079967, Poly_aftertouch_c, 0, 57, 0
1, 1079972, Note_off_c, 0, 41, 59
1, 1079972, Poly_aftertouch_c, 0, 41, 0
1, 1080199, Control_c, 0, 64, 114
1, 1080217, Control_c, 0, 64, 98
1, 1080236, Control_c, 0, 64, 79
1, 1080255, Control_c, 0, 64, 58
1, 1080274, Control_c, 0, 64, 17
1, 1080276, Note_on_c, 0, 94, 62
1, 1080278, Note_on_c, 0, 34, 48
1, 1080293, Control_c, 0, 64, 0
1, 1080377, Note_off_c, 0, 34, 62
1, 1080385, Control_c, 0, 64, 31
1, 1080395, Note_on_c, 0, 89, 63
1, 1080404, Control_c, 0, 64, 63
1, 1080421, Note_off_c, 0, 94, 61
1, 1080421, Control_c, 0, 64, 88
1, 1080441, Control_c, 0, 64, 115
1, 1080461, Control_c, 0, 64, 127
1, 1080470, Note_on_c, 0, 85, 73
1, 1080483, Note_off_c, 0, 89, 60
1, 1080552, Note_on_c, 0, 82, 78
1, 1080563, Note_off_c, 0, 85, 63
1, 1080613, Note_off_c, 0, 82, 63
1, 1080646, Note_on_c, 0, 70, 68
1, 1080678, Note_off_c, 0, 70, 71
1, 1080678, Poly_aftertouch_c, 0, 70, 0
1, 1080742, Control_c, 0, 67, 122
1, 1080778, Control_c, 0, 67, 118
1, 1080853, Control_c, 0, 67, 114
1, 1080890, Control_c, 0, 67, 110
1, 1080929, Control_c, 0, 67, 104
1, 1080943, Note_on_c, 0, 34, 65
1, 1080965, Control_c, 0, 67, 99
1, 1080969, Note_on_c, 0, 46, 40
1, 1080984, Control_c, 0, 64, 108
1, 1081003, Control_c, 0, 64, 79
1, 1081021, Control_c, 0, 64, 44
1, 1081040, Control_c, 0, 64, 0
1, 1081043, Control_c, 0, 67, 95
1, 1081078, Control_c, 0, 67, 90
1, 1081096, Control_c, 0, 64, 22
1, 1081115, Control_c, 0, 64, 47
1, 1081117, Control_c, 0, 67, 85
1, 1081135, Control_c, 0, 64, 69
1, 1081152, Control_c, 0, 64, 91
1, 1081171, Control_c, 0, 64, 116
1, 1081190, Control_c, 0, 64, 127
1, 1081241, Note_off_c, 0, 46, 38
1, 1081247, Note_off_c, 0, 34, 51
1, 1081438, Note_on_c, 0, 35, 50
1, 1081467, Note_on_c, 0, 47, 39
1, 1081507, Control_c, 0, 64, 112
1, 1081527, Control_c, 0, 64, 93
1, 1081545, Control_c, 0, 64, 69
1, 1081563, Control_c, 0, 64, 39
1, 1081582, Control_c, 0, 64, 0
1, 1081695, Control_c, 0, 64, 23
1, 1081699, Note_on_c, 0, 92, 68
1, 1081713, Control_c, 0, 64, 51
1, 1081732, Control_c, 0, 64, 72
1, 1081751, Control_c, 0, 64, 90
1, 1081769, Control_c, 0, 64, 114
1, 1081782, Note_on_c, 0, 87, 70
1, 1081787, Control_c, 0, 64, 127
1, 1081808, Note_off_c, 0, 92, 60
1, 1081863, Control_c, 0, 67, 89
1, 1081872, Note_on_c, 0, 83, 71
1, 1081908, Note_off_c, 0, 87, 63
1, 1081934, Note_off_c, 0, 83, 63
1, 1081952, Note_on_c, 0, 80, 78
1, 1081979, Note_off_c, 0, 80, 72
1, 1081979, Poly_aftertouch_c, 0, 80, 0
1, 1082077, Note_on_c, 0, 68, 73
1, 1082087, Control_c, 0, 67, 94
1, 1082110, Note_off_c, 0, 68, 70
1, 1082110, Poly_aftertouch_c, 0, 68, 0
1, 1082200, Control_c, 0, 67, 98
1, 1082212, Note_off_c, 0, 47, 32
1, 1082212, Poly_aftertouch_c, 0, 47, 0
1, 1082239, Note_off_c, 0, 35, 31
1, 1082367, Control_c, 0, 64, 97
1, 1082382, Note_on_c, 0, 35, 52
1, 1082386, Control_c, 0, 64, 62
1, 1082393, Note_on_c, 0, 47, 31
1, 1082405, Control_c, 0, 64, 12
1, 1082424, Control_c, 0, 64, 0
1, 1082442, Control_c, 0, 64, 27
1, 1082462, Control_c, 0, 64, 55
1, 1082480, Control_c, 0, 64, 74
1, 1082491, Note_off_c, 0, 47, 35
1, 1082491, Poly_aftertouch_c, 0, 47, 0
1, 1082498, Control_c, 0, 64, 91
1, 1082518, Control_c, 0, 64, 111
1, 1082536, Control_c, 0, 64, 127
1, 1082556, Control_c, 0, 67, 94
1, 1082582, Note_off_c, 0, 35, 50
1, 1082817, Control_c, 0, 64, 121
1, 1082834, Control_c, 0, 64, 111
1, 1082848, Note_on_c, 0, 36, 47
1, 1082853, Control_c, 0, 64, 98
1, 1082863, Note_on_c, 0, 48, 42
1, 1082873, Control_c, 0, 64, 81
1, 1082892, Control_c, 0, 64, 61
1, 1082909, Control_c, 0, 64, 35
1, 1082929, Control_c, 0, 64, 0
1, 1083041, Control_c, 0, 67, 99
1, 1083061, Control_c, 0, 64, 25
1, 1083079, Control_c, 0, 64, 45
1, 1083081, Control_c, 0, 67, 104
1, 1083097, Control_c, 0, 64, 63
1, 1083115, Control_c, 0, 64, 79
1, 1083116, Control_c, 0, 67, 110
1, 1083117, Note_on_c, 0, 90, 61
1, 1083134, Control_c, 0, 64, 94
1, 1083154, Control_c, 0, 64, 111
1, 1083155, Control_c, 0, 67, 117
1, 1083172, Control_c, 0, 64, 126
1, 1083173, Control_c, 0, 67, 121
1, 1083202, Note_off_c, 0, 90, 59
1, 1083209, Note_on_c, 0, 87, 66
1, 1083209, Control_c, 0, 67, 126
1, 1083290, Note_off_c, 0, 87, 62
1, 1083296, Note_on_c, 0, 80, 65
1, 1083364, Note_off_c, 0, 80, 61
1, 1083364, Poly_aftertouch_c, 0, 80, 0
1, 1083389, Note_on_c, 0, 78, 67
1, 1083421, Note_off_c, 0, 78, 69
1, 1083512, Note_on_c, 0, 66, 70
1, 1083544, Note_off_c, 0, 66, 67
1, 1083544, Poly_aftertouch_c, 0, 66, 0
1, 1083545, Note_off_c, 0, 36, 48
1, 1083565, Note_off_c, 0, 48, 41
1, 1083752, Control_c, 0, 64, 119
1, 1083770, Control_c, 0, 64, 104
1, 1083788, Control_c, 0, 64, 80
1, 1083798, Note_on_c, 0, 36, 39
1, 1083807, Control_c, 0, 64, 48
1, 1083809, Note_on_c, 0, 48, 39
1, 1083826, Control_c, 0, 64, 0
1, 1083901, Control_c, 0, 64, 29
1, 1083919, Control_c, 0, 64, 52
1, 1083939, Control_c, 0, 64, 74
1, 1083958, Control_c, 0, 64, 92
1, 1083976, Control_c, 0, 64, 112
1, 1083994, Control_c, 0, 64, 127
1, 1083996, Control_c, 0, 67, 119
1, 1084007, Note_off_c, 0, 48, 36
1, 1084012, Control_c, 0, 67, 113
1, 1084032, Control_c, 0, 67, 107
1, 1084050, Control_c, 0, 67, 101
1, 1084060, Note_off_c, 0, 36, 53
1, 1084069, Control_c, 0, 67, 93
1, 1084088, Control_c, 0, 67, 85
1, 1084106, Control_c, 0, 67, 77
1, 1084125, Control_c, 0, 67, 69
1, 1084144, Control_c, 0, 67, 61
1, 1084163, Control_c, 0, 67, 55
1, 1084181, Control_c, 0, 67, 51
1, 1084200, Control_c, 0, 64, 119
1, 1084220, Control_c, 0, 64, 111
1, 1084238, Control_c, 0, 64, 102
1, 1084256, Control_c, 0, 64, 89
1, 1084274, Note_on_c, 0, 49, 42
1, 1084274, Control_c, 0, 64, 76
1, 1084287, Note_on_c, 0, 37, 36
1, 1084293, Control_c, 0, 64, 65
1, 1084312, Control_c, 0, 64, 53
1, 1084331, Control_c, 0, 64, 25
1, 1084350, Control_c, 0, 64, 0
1, 1084481, Control_c, 0, 64, 21
1, 1084500, Control_c, 0, 64, 44
1, 1084511, Note_off_c, 0, 37, 58
1, 1084511, Poly_aftertouch_c, 0, 37, 0
1, 1084516, Control_c, 0, 64, 64
1, 1084538, Note_on_c, 0, 89, 53
1, 1084538, Control_c, 0, 64, 84
1, 1084544, Note_off_c, 0, 49, 57
1, 1084544, Poly_aftertouch_c, 0, 49, 0
1, 1084556, Control_c, 0, 64, 106
1, 1084574, Control_c, 0, 64, 127
1, 1084594, Note_off_c, 0, 89, 47
1, 1084627, Note_on_c, 0, 85, 60
1, 1084629, Control_c, 0, 67, 46
1, 1084667, Control_c, 0, 67, 38
1, 1084682, Note_off_c, 0, 85, 53
1, 1084705, Control_c, 0, 67, 32
1, 1084716, Note_on_c, 0, 80, 61
1, 1084742, Control_c, 0, 67, 28
1, 1084762, Note_off_c, 0, 80, 60
1, 1084762, Poly_aftertouch_c, 0, 80, 0
1, 1084799, Control_c, 0, 64, 118
1, 1084806, Note_on_c, 0, 77, 62
1, 1084818, Control_c, 0, 64, 101
1, 1084819, Control_c, 0, 67, 23
1, 1084837, Control_c, 0, 64, 77
1, 1084847, Note_off_c, 0, 77, 59
1, 1084847, Poly_aftertouch_c, 0, 77, 0
1, 1084853, Control_c, 0, 64, 48
1, 1084874, Control_c, 0, 64, 0
1, 1084896, Note_on_c, 0, 41, 51
1, 1084899, Note_on_c, 0, 53, 45
1, 1084908, Note_on_c, 0, 73, 57
1, 1084910, Control_c, 0, 67, 18
1, 1084935, Note_off_c, 0, 41, 63
1, 1084935, Note_off_c, 0, 53, 56
1, 1084935, Poly_aftertouch_c, 0, 41, 0
1, 1084935, Poly_aftertouch_c, 0, 53, 0
1, 1084936, Note_off_c, 0, 73, 63
1, 1084936, Poly_aftertouch_c, 0, 73, 0
1, 1085135, Control_c, 0, 64, 9
1, 1085153, Control_c, 0, 64, 43
1, 1085167, Note_on_c, 0, 87, 61
1, 1085172, Control_c, 0, 64, 62
1, 1085192, Control_c, 0, 64, 76
1, 1085194, Note_on_c, 0, 44, 40
1, 1085201, Note_on_c, 0, 56, 44
1, 1085210, Control_c, 0, 64, 90
1, 1085229, Control_c, 0, 64, 108
1, 1085247, Note_off_c, 0, 87, 61
1, 1085247, Control_c, 0, 64, 127
1, 1085271, Note_on_c, 0, 84, 62
1, 1085289, Note_off_c, 0, 56, 55
1, 1085289, Poly_aftertouch_c, 0, 56, 0
1, 1085304, Note_off_c, 0, 44, 61
1, 1085346, Note_off_c, 0, 84, 61
1, 1085369, Note_on_c, 0, 80, 57
1, 1085378, Control_c, 0, 67, 14
1, 1085405, Note_off_c, 0, 80, 67
1, 1085405, Poly_aftertouch_c, 0, 80, 0
1, 1085445, Note_on_c, 0, 75, 65
1, 1085471, Control_c, 0, 67, 0
1, 1085478, Note_off_c, 0, 75, 68
1, 1085509, Control_c, 0, 64, 122
1, 1085528, Control_c, 0, 64, 85
1, 1085546, Note_on_c, 0, 72, 58
1, 1085546, Control_c, 0, 64, 41
1, 1085565, Control_c, 0, 64, 0
1, 1085572, Note_on_c, 0, 48, 51
1, 1085573, Note_off_c, 0, 72, 61
1, 1085573, Note_on_c, 0, 60, 36
1, 1085614, Note_off_c, 0, 48, 64
1, 1085617, Note_off_c, 0, 60, 34
1, 1085617, Poly_aftertouch_c, 0, 60, 0
1, 1085808, Note_on_c, 0, 90, 68
1, 1085819, Note_on_c, 0, 51, 43
1, 1085820, Note_on_c, 0, 39, 50
1, 1085846, Control_c, 0, 64, 45
1, 1085864, Control_c, 0, 64, 68
1, 1085883, Control_c, 0, 64, 87
1, 1085902, Control_c, 0, 64, 113
1, 1085905, Note_off_c, 0, 90, 60
1, 1085907, Note_on_c, 0, 87, 66
1, 1085920, Control_c, 0, 64, 127
1, 1085983, Note_off_c, 0, 87, 63
1, 1085991, Note_off_c, 0, 39, 58
1, 1085992, Note_off_c, 0, 51, 56
1, 1085993, Note_on_c, 0, 82, 66
1, 1086043, Note_off_c, 0, 82, 58
1, 1086080, Note_on_c, 0, 78, 63
1, 1086164, Control_c, 0, 64, 117
1, 1086177, Note_off_c, 0, 78, 59
1, 1086178, Note_on_c, 0, 75, 67
1, 1086183, Control_c, 0, 64, 72
1, 1086200, Control_c, 0, 64, 0
1, 1086203, Note_off_c, 0, 75, 66
1, 1086204, Note_on_c, 0, 42, 54
1, 1086206, Note_on_c, 0, 54, 50
1, 1086240, Note_off_c, 0, 54, 61
1, 1086241, Note_off_c, 0, 42, 64
1, 1086432, Note_on_c, 0, 87, 65
1, 1086448, Note_on_c, 0, 44, 60
1, 1086452, Note_on_c, 0, 56, 57
1, 1086462, Control_c, 0, 64, 53
1, 1086482, Control_c, 0, 64, 96
1, 1086500, Control_c, 0, 64, 127
1, 1086513, Note_off_c, 0, 87, 63
1, 1086513, Note_on_c, 0, 83, 67
1, 1086545, Note_off_c, 0, 56, 59
1, 1086545, Note_off_c, 0, 44, 61
1, 1086545, Poly_aftertouch_c, 0, 56, 0
1, 1086607, Note_off_c, 0, 83, 62
1, 1086617, Note_on_c, 0, 80, 66
1, 1086649, Note_off_c, 0, 80, 66
1, 1086649, Poly_aftertouch_c, 0, 80, 0
1, 1086690, Note_on_c, 0, 75, 69
1, 1086721, Note_off_c, 0, 75, 70
1, 1086799, Control_c, 0, 64, 109
1, 1086803, Note_on_c, 0, 71, 58
1, 1086806, Note_on_c, 0, 47, 54
1, 1086820, Control_c, 0, 64, 63
1, 1086831, Note_off_c, 0, 71, 58
1, 1086831, Poly_aftertouch_c, 0, 71, 0
1, 1086838, Control_c, 0, 64, 0
1, 1086841, Note_off_c, 0, 47, 58
1, 1086841, Poly_aftertouch_c, 0, 59, 0
1, 1086841, Poly_aftertouch_c, 0, 47, 0
1, 1087059, Note_on_c, 0, 92, 81
1, 1087078, Note_on_c, 0, 40, 64
1, 1087088, Note_on_c, 0, 52, 61
1, 1087098, Control_c, 0, 64, 71
1, 1087118, Control_c, 0, 64, 121
1, 1087137, Control_c, 0, 64, 127
1, 1087152, Note_on_c, 0, 88, 72
1, 1087157, Note_off_c, 0, 52, 60
1, 1087169, Note_off_c, 0, 40, 59
1, 1087188, Note_off_c, 0, 92, 63
1, 1087243, Note_off_c, 0, 88, 64
1, 1087251, Note_on_c, 0, 83, 67
1, 1087312, Note_off_c, 0, 83, 62
1, 1087336, Note_on_c, 0, 80, 64
1, 1087367, Note_off_c, 0, 80, 69
1, 1087367, Poly_aftertouch_c, 0, 80, 0
1, 1087435, Control_c, 0, 64, 89
1, 1087448, Note_on_c, 0, 76, 68
1, 1087453, Note_on_c, 0, 44, 66
1, 1087454, Control_c, 0, 64, 45
1, 1087456, Note_on_c, 0, 56, 64
1, 1087472, Control_c, 0, 64, 0
1, 1087481, Note_off_c, 0, 76, 68
1, 1087491, Note_off_c, 0, 56, 64
1, 1087491, Poly_aftertouch_c, 0, 56, 0
1, 1087495, Note_off_c, 0, 44, 66
1, 1087688, Note_on_c, 0, 90, 79
1, 1087707, Note_on_c, 0, 59, 72
1, 1087714, Note_on_c, 0, 47, 60
1, 1087715, Control_c, 0, 64, 36
1, 1087733, Control_c, 0, 64, 94
1, 1087752, Control_c, 0, 64, 127
1, 1087763, Note_off_c, 0, 47, 64
1, 1087763, Poly_aftertouch_c, 0, 47, 0
1, 1087767, Note_off_c, 0, 59, 59
1, 1087767, Note_on_c, 0, 48, 29
1, 1087768, Note_on_c, 0, 87, 74
1, 1087794, Note_off_c, 0, 90, 63
1, 1087822, Note_off_c, 0, 48, 40
1, 1087859, Note_off_c, 0, 87, 62
1, 1087861, Note_on_c, 0, 83, 72
1, 1087923, Note_off_c, 0, 83, 61
1, 1087937, Note_on_c, 0, 78, 73
1, 1087989, Note_off_c, 0, 78, 54
1, 1088034, Control_c, 0, 64, 102
1, 1088052, Control_c, 0, 64, 61
1, 1088056, Note_on_c, 0, 75, 66
1, 1088064, Note_on_c, 0, 51, 64
1, 1088065, Note_on_c, 0, 63, 55
1, 1088070, Control_c, 0, 64, 0
1, 1088089, Note_off_c, 0, 75, 65
1, 1088104, Note_off_c, 0, 63, 63
1, 1088104, Note_off_c, 0, 51, 62
1, 1088104, Poly_aftertouch_c, 0, 63, 0
1, 1088296, Note_on_c, 0, 93, 86
1, 1088304, Note_on_c, 0, 42, 80
1, 1088316, Note_on_c, 0, 54, 70
1, 1088316, Control_c, 0, 64, 38
1, 1088333, Control_c, 0, 64, 100
1, 1088348, Note_off_c, 0, 54, 64
1, 1088349, Control_c, 0, 64, 127
1, 1088350, Note_off_c, 0, 42, 62
1, 1088392, Note_on_c, 0, 90, 81
1, 1088411, Note_off_c, 0, 93, 64
1, 1088481, Note_on_c, 0, 85, 76
1, 1088494, Note_off_c, 0, 90, 64
1, 1088552, Note_off_c, 0, 85, 63
1, 1088570, Note_on_c, 0, 81, 73
1, 1088632, Control_c, 0, 64, 114
1, 1088651, Control_c, 0, 64, 72
1, 1088662, Note_off_c, 0, 81, 47
1, 1088669, Note_on_c, 0, 78, 74
1, 1088669, Control_c, 0, 64, 0
1, 1088670, Note_on_c, 0, 57, 67
1, 1088676, Note_on_c, 0, 45, 64
1, 1088694, Note_off_c, 0, 78, 70
1, 1088709, Note_off_c, 0, 57, 66
1, 1088709, Poly_aftertouch_c, 0, 57, 0
1, 1088713, Note_off_c, 0, 45, 63
1, 1088900, Note_on_c, 0, 90, 79
1, 1088912, Note_on_c, 0, 59, 78
1, 1088915, Note_on_c, 0, 47, 74
1, 1088931, Control_c, 0, 64, 56
1, 1088946, Note_off_c, 0, 59, 67
1, 1088947, Note_off_c, 0, 47, 68
1, 1088947, Poly_aftertouch_c, 0, 47, 0
1, 1088949, Control_c, 0, 64, 126
1, 1088986, Note_on_c, 0, 86, 78
1, 1089001, Note_off_c, 0, 90, 63
1, 1089068, Note_off_c, 0, 86, 64
1, 1089079, Note_on_c, 0, 83, 66
1, 1089130, Note_off_c, 0, 83, 62
1, 1089156, Note_on_c, 0, 78, 73
1, 1089187, Note_off_c, 0, 78, 68
1, 1089249, Control_c, 0, 64, 114
1, 1089268, Control_c, 0, 64, 65
1, 1089269, Note_on_c, 0, 74, 61
1, 1089272, Note_on_c, 0, 50, 63
1, 1089283, Note_on_c, 0, 62, 38
1, 1089283, Control_c, 0, 64, 0
1, 1089297, Note_off_c, 0, 74, 39
1, 1089312, Note_off_c, 0, 50, 65
1, 1089312, Poly_aftertouch_c, 0, 50, 0
1, 1089327, Note_off_c, 0, 62, 34
1, 1089513, Note_on_c, 0, 95, 91
1, 1089529, Note_on_c, 0, 43, 69
1, 1089535, Note_on_c, 0, 55, 64
1, 1089565, Note_off_c, 0, 43, 68
1, 1089566, Control_c, 0, 64, 101
1, 1089574, Note_off_c, 0, 55, 66
1, 1089574, Poly_aftertouch_c, 0, 55, 0
1, 1089587, Control_c, 0, 64, 127
1, 1089602, Note_on_c, 0, 89, 76
1, 1089621, Note_off_c, 0, 95, 63
1, 1089686, Note_off_c, 0, 89, 63
1, 1089687, Note_on_c, 0, 86, 77
1, 1089751, Note_off_c, 0, 86, 63
1, 1089769, Note_on_c, 0, 83, 75
1, 1089803, Note_off_c, 0, 83, 63
1, 1089866, Control_c, 0, 64, 84
1, 1089874, Note_on_c, 0, 47, 62
1, 1089878, Note_on_c, 0, 77, 66
1, 1089884, Note_on_c, 0, 59, 47
1, 1089900, Note_off_c, 0, 77, 63
1, 1089900, Poly_aftertouch_c, 0, 77, 0
1, 1089902, Control_c, 0, 64, 0
1, 1089909, Note_off_c, 0, 47, 64
1, 1089909, Poly_aftertouch_c, 0, 47, 0
1, 1089913, Note_off_c, 0, 59, 38
1, 1090124, Note_on_c, 0, 96, 95
1, 1090135, Note_on_c, 0, 43, 77
1, 1090140, Note_on_c, 0, 55, 74
1, 1090164, Control_c, 0, 64, 77
1, 1090173, Note_off_c, 0, 55, 70
1, 1090173, Poly_aftertouch_c, 0, 55, 0
1, 1090176, Note_off_c, 0, 43, 67
1, 1090183, Control_c, 0, 64, 127
1, 1090219, Note_on_c, 0, 91, 82
1, 1090228, Note_off_c, 0, 96, 64
1, 1090298, Note_on_c, 0, 88, 78
1, 1090299, Note_off_c, 0, 91, 65
1, 1090346, Note_off_c, 0, 88, 61
1, 1090377, Note_on_c, 0, 84, 71
1, 1090407, Note_off_c, 0, 84, 70
1, 1090446, Control_c, 0, 64, 96
1, 1090465, Control_c, 0, 64, 33
1, 1090483, Note_on_c, 0, 76, 66
1, 1090483, Control_c, 0, 64, 0
1, 1090493, Note_on_c, 0, 60, 64
1, 1090495, Note_on_c, 0, 48, 65
1, 1090506, Note_off_c, 0, 76, 65
1, 1090522, Note_off_c, 0, 60, 63
1, 1090522, Poly_aftertouch_c, 0, 60, 0
1, 1090526, Note_off_c, 0, 48, 65
1, 1090744, Note_on_c, 0, 97, 97
1, 1090750, Note_on_c, 0, 43, 76
1, 1090751, Note_on_c, 0, 55, 77
1, 1090763, Control_c, 0, 64, 53
1, 1090782, Control_c, 0, 64, 127
1, 1090785, Note_off_c, 0, 55, 70
1, 1090785, Poly_aftertouch_c, 0, 55, 0
1, 1090787, Note_off_c, 0, 43, 68
1, 1090838, Note_on_c, 0, 94, 86
1, 1090878, Note_off_c, 0, 97, 65
1, 1090918, Note_on_c, 0, 87, 77
1, 1090942, Note_off_c, 0, 94, 66
1, 1090983, Note_off_c, 0, 87, 64
1, 1090998, Note_on_c, 0, 85, 80
1, 1091023, Note_off_c, 0, 85, 68
1, 1091044, Control_c, 0, 64, 100
1, 1091064, Control_c, 0, 64, 47
1, 1091080, Note_on_c, 0, 49, 69
1, 1091082, Control_c, 0, 64, 0
1, 1091088, Note_on_c, 0, 61, 59
1, 1091102, Note_on_c, 0, 75, 80
1, 1091115, Note_off_c, 0, 61, 63
1, 1091115, Poly_aftertouch_c, 0, 61, 0
1, 1091118, Note_off_c, 0, 49, 66
1, 1091118, Poly_aftertouch_c, 0, 49, 0
1, 1091130, Note_off_c, 0, 75, 73
1, 1091349, Note_on_c, 0, 43, 78
1, 1091350, Note_on_c, 0, 98, 91
1, 1091350, Note_on_c, 0, 55, 81
1, 1091381, Control_c, 0, 64, 93
1, 1091389, Note_off_c, 0, 55, 69
1, 1091389, Poly_aftertouch_c, 0, 55, 0
1, 1091392, Note_off_c, 0, 43, 68
1, 1091400, Control_c, 0, 64, 127
1, 1091437, Note_on_c, 0, 95, 81
1, 1091465, Note_off_c, 0, 98, 62
1, 1091526, Note_on_c, 0, 89, 76
1, 1091542, Note_off_c, 0, 95, 63
1, 1091587, Note_off_c, 0, 89, 61
1, 1091600, Note_on_c, 0, 86, 72
1, 1091607, Control_c, 0, 64, 122
1, 1091623, Control_c, 0, 64, 107
1, 1091625, Note_off_c, 0, 86, 71
1, 1091642, Control_c, 0, 64, 92
1, 1091662, Control_c, 0, 64, 77
1, 1091680, Control_c, 0, 64, 64
1, 1091698, Control_c, 0, 64, 56
1, 1091706, Note_on_c, 0, 50, 65
1, 1091710, Note_on_c, 0, 62, 56
1, 1091712, Note_on_c, 0, 74, 73
1, 1091718, Control_c, 0, 64, 47
1, 1091732, Note_off_c, 0, 74, 67
1, 1091734, Control_c, 0, 64, 37
1, 1091736, Note_off_c, 0, 62, 59
1, 1091740, Note_off_c, 0, 50, 65
1, 1091740, Poly_aftertouch_c, 0, 50, 0
1, 1091959, Control_c, 0, 64, 32
1, 1091961, Note_on_c, 0, 43, 79
1, 1091964, Note_on_c, 0, 101, 91
1, 1091966, Note_on_c, 0, 55, 77
1, 1091979, Control_c, 0, 64, 0
1, 1091995, Note_off_c, 0, 43, 67
1, 1091995, Note_off_c, 0, 55, 69
1, 1091995, Poly_aftertouch_c, 0, 55, 0
1, 1092054, Note_on_c, 0, 95, 80
1, 1092062, Note_off_c, 0, 101, 64
1, 1092149, Note_off_c, 0, 95, 64
1, 1092153, Note_on_c, 0, 92, 79
1, 1092214, Note_off_c, 0, 92, 66
1, 1092238, Note_on_c, 0, 89, 64
1, 1092271, Note_off_c, 0, 89, 65
1, 1092339, Note_on_c, 0, 68, 82
1, 1092340, Note_on_c, 0, 56, 80
1, 1092351, Note_on_c, 0, 83, 62
1, 1092375, Note_off_c, 0, 83, 63
1, 1092602, Note_on_c, 0, 100, 86
1, 1092672, Control_c, 0, 67, 8
1, 1092689, Note_on_c, 0, 96, 78
1, 1092708, Control_c, 0, 67, 13
1, 1092710, Note_off_c, 0, 68, 38
1, 1092710, Note_off_c, 0, 100, 64
1, 1092710, Poly_aftertouch_c, 0, 68, 0
1, 1092746, Control_c, 0, 67, 22
1, 1092764, Control_c, 0, 67, 30
1, 1092775, Note_off_c, 0, 96, 63
1, 1092782, Note_on_c, 0, 91, 74
1, 1092782, Control_c, 0, 67, 40
1, 1092801, Control_c, 0, 67, 51
1, 1092820, Control_c, 0, 67, 62
1, 1092831, Note_off_c, 0, 91, 65
1, 1092838, Control_c, 0, 67, 72
1, 1092854, Note_on_c, 0, 88, 65
1, 1092857, Control_c, 0, 67, 79
1, 1092878, Control_c, 0, 67, 83
1, 1092896, Note_off_c, 0, 88, 54
1, 1092950, Note_on_c, 0, 84, 58
1, 1092953, Note_on_c, 0, 55, 62
1, 1092958, Note_on_c, 0, 67, 49
1, 1092975, Note_off_c, 0, 84, 62
1, 1092995, Note_off_c, 0, 55, 66
1, 1092995, Poly_aftertouch_c, 0, 55, 0
1, 1092996, Note_off_c, 0, 67, 56
1, 1092999, Note_off_c, 0, 56, 27
1, 1092999, Poly_aftertouch_c, 0, 56, 0
1, 1093216, Note_on_c, 0, 99, 79
1, 1093226, Note_on_c, 0, 43, 70
1, 1093233, Note_on_c, 0, 55, 60
1, 1093250, Control_c, 0, 67, 74
1, 1093260, Note_off_c, 0, 43, 66
1, 1093260, Note_off_c, 0, 55, 61
1, 1093260, Poly_aftertouch_c, 0, 55, 0
1, 1093267, Control_c, 0, 67, 49
1, 1093305, Control_c, 0, 67, 0
1, 1093307, Note_on_c, 0, 96, 72
1, 1093311, Note_off_c, 0, 99, 64
1, 1093392, Note_off_c, 0, 96, 63
1, 1093396, Note_on_c, 0, 93, 73
1, 1093440, Note_off_c, 0, 93, 60
1, 1093479, Note_on_c, 0, 87, 67
1, 1093507, Note_off_c, 0, 87, 70
1, 1093575, Note_on_c, 0, 66, 74
1, 1093576, Note_on_c, 0, 54, 70
1, 1093605, Control_c, 0, 67, 17
1, 1093610, Note_on_c, 0, 81, 29
1, 1093622, Note_on_c, 0, 83, 24
1, 1093622, Control_c, 0, 67, 28
1, 1093638, Note_off_c, 0, 81, 40
1, 1093642, Control_c, 0, 67, 37
1, 1093662, Control_c, 0, 67, 51
1, 1093681, Note_off_c, 0, 83, 32
1, 1093681, Control_c, 0, 67, 67
1, 1093700, Control_c, 0, 67, 81
1, 1093717, Control_c, 0, 67, 89
1, 1093812, Control_c, 0, 67, 97
1, 1093864, Note_on_c, 0, 98, 73
1, 1093941, Note_on_c, 0, 95, 77
1, 1093945, Note_off_c, 0, 98, 63
1, 1094017, Note_on_c, 0, 92, 73
1, 1094022, Note_off_c, 0, 95, 64
1, 1094061, Note_off_c, 0, 92, 62
1, 1094078, Note_off_c, 0, 66, 47
1, 1094078, Poly_aftertouch_c, 0, 66, 0
1, 1094095, Note_on_c, 0, 86, 68
1, 1094109, Note_off_c, 0, 54, 51
1, 1094134, Note_off_c, 0, 86, 63
1, 1094194, Note_on_c, 0, 83, 70
1, 1094203, Note_on_c, 0, 53, 58
1, 1094218, Note_on_c, 0, 65, 32
1, 1094221, Note_off_c, 0, 83, 70
1, 1094244, Note_off_c, 0, 53, 62
1, 1094244, Poly_aftertouch_c, 0, 53, 0
1, 1094271, Note_off_c, 0, 65, 46
1, 1094457, Note_on_c, 0, 96, 72
1, 1094465, Note_on_c, 0, 55, 58
1, 1094467, Note_on_c, 0, 43, 57
1, 1094485, Control_c, 0, 67, 92
1, 1094495, Note_off_c, 0, 55, 61
1, 1094495, Poly_aftertouch_c, 0, 55, 0
1, 1094500, Note_off_c, 0, 43, 59
1, 1094502, Control_c, 0, 67, 84
1, 1094521, Control_c, 0, 67, 76
1, 1094523, Note_off_c, 0, 96, 64
1, 1094533, Note_on_c, 0, 91, 61
1, 1094592, Note_off_c, 0, 91, 62
1, 1094617, Note_on_c, 0, 88, 66
1, 1094660, Note_off_c, 0, 88, 60
1, 1094705, Note_on_c, 0, 84, 64
1, 1094740, Note_off_c, 0, 84, 63
1, 1094816, Note_on_c, 0, 79, 64
1, 1094842, Note_on_c, 0, 64, 56
1, 1094844, Note_on_c, 0, 52, 50
1, 1094851, Note_off_c, 0, 79, 67
1, 1094851, Poly_aftertouch_c, 0, 79, 0
1, 1094914, Control_c, 0, 67, 80
1, 1094971, Control_c, 0, 67, 84
1, 1095046, Control_c, 0, 67, 89
1, 1095083, Control_c, 0, 67, 95
1, 1095095, Note_on_c, 0, 93, 74
1, 1095102, Control_c, 0, 67, 99
1, 1095120, Control_c, 0, 67, 103
1, 1095138, Control_c, 0, 67, 110
1, 1095158, Control_c, 0, 67, 118
1, 1095177, Control_c, 0, 67, 124
1, 1095181, Note_on_c, 0, 90, 69
1, 1095184, Note_off_c, 0, 93, 63
1, 1095208, Note_off_c, 0, 64, 42
1, 1095265, Note_off_c, 0, 90, 63
1, 1095273, Note_on_c, 0, 84, 67
1, 1095323, Note_off_c, 0, 84, 62
1, 1095356, Note_on_c, 0, 81, 65
1, 1095437, Note_off_c, 0, 52, 61
1, 1095443, Note_off_c, 0, 81, 40
1, 1095453, Note_on_c, 0, 51, 57
1, 1095454, Note_on_c, 0, 63, 49
1, 1095463, Note_on_c, 0, 78, 61
1, 1095482, Note_off_c, 0, 78, 66
1, 1095486, Note_off_c, 0, 63, 59
1, 1095486, Poly_aftertouch_c, 0, 63, 0
1, 1095488, Note_off_c, 0, 51, 65
1, 1095706, Note_on_c, 0, 43, 52
1, 1095707, Note_on_c, 0, 90, 68
1, 1095718, Note_on_c, 0, 55, 43
1, 1095740, Note_off_c, 0, 43, 58
1, 1095755, Note_off_c, 0, 55, 52
1, 1095755, Poly_aftertouch_c, 0, 55, 0
1, 1095785, Note_off_c, 0, 90, 60
1, 1095793, Note_on_c, 0, 87, 62
1, 1095869, Note_off_c, 0, 87, 63
1, 1095873, Note_on_c, 0, 81, 62
1, 1095928, Note_off_c, 0, 81, 61
1, 1095971, Note_on_c, 0, 78, 59
1, 1096053, Note_off_c, 0, 78, 38
1, 1096075, Note_on_c, 0, 75, 55
1, 1096081, Note_on_c, 0, 60, 69
1, 1096092, Note_on_c, 0, 48, 57
1, 1096102, Note_off_c, 0, 75, 62
1, 1096340, Note_on_c, 0, 87, 65
1, 1096407, Note_off_c, 0, 60, 56
1, 1096407, Poly_aftertouch_c, 0, 60, 0
1, 1096408, Note_off_c, 0, 87, 61
1, 1096421, Note_on_c, 0, 84, 61
1, 1096483, Note_off_c, 0, 84, 62
1, 1096521, Note_on_c, 0, 78, 60
1, 1096560, Note_off_c, 0, 78, 65
1, 1096596, Note_on_c, 0, 75, 60
1, 1096630, Note_off_c, 0, 75, 66
1, 1096686, Note_off_c, 0, 48, 56
1, 1096690, Note_on_c, 0, 45, 52
1, 1096692, Note_on_c, 0, 72, 61
1, 1096694, Note_on_c, 0, 57, 47
1, 1096725, Note_off_c, 0, 57, 56
1, 1096725, Poly_aftertouch_c, 0, 57, 0
1, 1096726, Note_off_c, 0, 72, 67
1, 1096728, Note_off_c, 0, 45, 62
1, 1096973, Note_on_c, 0, 43, 46
1, 1096976, Note_on_c, 0, 55, 43
1, 1096976, Note_on_c, 0, 83, 64
1, 1097006, Note_off_c, 0, 43, 57
1, 1097009, Note_off_c, 0, 55, 56
1, 1097009, Poly_aftertouch_c, 0, 55, 0
1, 1097038, Note_off_c, 0, 83, 60
1, 1097062, Note_on_c, 0, 79, 62
1, 1097115, Note_off_c, 0, 79, 58
1, 1097115, Poly_aftertouch_c, 0, 79, 0
1, 1097154, Note_on_c, 0, 74, 65
1, 1097200, Note_off_c, 0, 74, 59
1, 1097251, Note_on_c, 0, 71, 63
1, 1097288, Note_off_c, 0, 71, 64
1, 1097288, Poly_aftertouch_c, 0, 71, 0
1, 1097356, Note_on_c, 0, 67, 54
1, 1097386, Note_off_c, 0, 67, 60
1, 1097639, Note_on_c, 0, 43, 85
1, 1097684, Note_off_c, 0, 43, 62
1, 1098042, Note_on_c, 0, 44, 51
1, 1098078, Note_off_c, 0, 44, 60
1, 1098116, Note_on_c, 0, 43, 57
1, 1098146, Note_off_c, 0, 43, 57
1, 1098404, Note_on_c, 0, 71, 50
1, 1098455, Note_off_c, 0, 71, 63
1, 1098455, Poly_aftertouch_c, 0, 71, 0
1, 1098497, Note_on_c, 0, 67, 43
1, 1098536, Note_off_c, 0, 67, 58
1, 1098580, Note_on_c, 0, 62, 57
1, 1098625, Note_off_c, 0, 62, 64
1, 1098682, Note_on_c, 0, 59, 56
1, 1098728, Note_off_c, 0, 59, 60
1, 1098787, Note_on_c, 0, 55, 58
1, 1098827, Note_off_c, 0, 55, 65
1, 1098827, Poly_aftertouch_c, 0, 55, 0
1, 1099117, Note_on_c, 0, 43, 54
1, 1099155, Note_off_c, 0, 43, 64
1, 1099564, Note_on_c, 0, 44, 37
1, 1099602, Note_off_c, 0, 44, 55
1, 1099623, Note_on_c, 0, 43, 46
1, 1099661, Note_off_c, 0, 43, 59
1, 1099907, Control_c, 0, 67, 118
1, 1099925, Control_c, 0, 67, 105
1, 1099945, Control_c, 0, 67, 87
1, 1099962, Control_c, 0, 67, 67
1, 1099982, Control_c, 0, 67, 47
1, 1100001, Control_c, 0, 67, 29
1, 1100018, Control_c, 0, 67, 16
1, 1100075, Control_c, 0, 67, 0
1, 1100340, Note_on_c, 0, 56, 65
1, 1100355, Note_on_c, 0, 44, 52
1, 1100371, Note_off_c, 0, 56, 67
1, 1100371, Poly_aftertouch_c, 0, 56, 0
1, 1100392, Note_off_c, 0, 44, 58
1, 1100425, Note_on_c, 0, 55, 73
1, 1100428, Note_on_c, 0, 43, 65
1, 1100457, Note_off_c, 0, 55, 65
1, 1100457, Poly_aftertouch_c, 0, 55, 0
1, 1100461, Note_off_c, 0, 43, 65
1, 1101203, Note_on_c, 0, 56, 82
1, 1101208, Note_on_c, 0, 44, 76
1, 1101234, Note_off_c, 0, 44, 67
1, 1101241, Note_off_c, 0, 56, 68
1, 1101241, Poly_aftertouch_c, 0, 56, 0
1, 1101299, Note_on_c, 0, 55, 102
1, 1101302, Note_on_c, 0, 43, 96
1, 1101348, Note_off_c, 0, 55, 69
1, 1101348, Poly_aftertouch_c, 0, 55, 0
1, 1101349, Note_off_c, 0, 43, 67
1, 1101978, Note_on_c, 0, 56, 89
1, 1101978, Note_on_c, 0, 44, 82
1, 1102013, Note_off_c, 0, 44, 70
1, 1102041, Note_off_c, 0, 56, 63
1, 1102041, Poly_aftertouch_c, 0, 56, 0
1, 1102063, Note_on_c, 0, 43, 93
1, 1102066, Note_on_c, 0, 55, 96
1, 1102117, Note_off_c, 0, 55, 68
1, 1102117, Poly_aftertouch_c, 0, 55, 0
1, 1102119, Note_off_c, 0, 43, 65
1, 1102298, Note_on_c, 0, 44, 96
1, 1102352, Note_off_c, 0, 44, 65
1, 1102392, Note_on_c, 0, 56, 88
1, 1102394, Note_on_c, 0, 68, 88
1, 1102457, Note_off_c, 0, 56, 63
1, 1102457, Poly_aftertouch_c, 0, 56, 0
1, 1102462, Note_off_c, 0, 68, 64
1, 1102462, Poly_aftertouch_c, 0, 68, 0
1, 1102494, Poly_aftertouch_c, 0, 66, 0
1, 1102500, Note_on_c, 0, 43, 101
1, 1102562, Note_off_c, 0, 43, 66
1, 1102593, Note_on_c, 0, 55, 87
1, 1102597, Note_on_c, 0, 67, 87
1, 1102649, Note_off_c, 0, 55, 63
1, 1102649, Poly_aftertouch_c, 0, 55, 0
1, 1102665, Note_off_c, 0, 67, 61
1, 1102713, Note_on_c, 0, 41, 101
1, 1102780, Note_on_c, 0, 65, 74
1, 1102784, Control_c, 0, 64, 76
1, 1102806, Control_c, 0, 64, 120
1, 1102812, Note_off_c, 0, 65, 71
1, 1102822, Note_on_c, 0, 53, 94
1, 1102824, Control_c, 0, 64, 127
1, 1102899, Note_off_c, 0, 53, 55
1, 1102899, Poly_aftertouch_c, 0, 53, 0
1, 1102929, Note_off_c, 0, 41, 62
1, 1102929, Poly_aftertouch_c, 0, 41, 0
1, 1102973, Control_c, 0, 64, 107
1, 1102992, Control_c, 0, 64, 53
1, 1103011, Control_c, 0, 64, 49
1, 1103019, Note_on_c, 0, 52, 101
1, 1103021, Note_on_c, 0, 85, 98
1, 1103021, Note_on_c, 0, 73, 101
1, 1103022, Note_on_c, 0, 40, 96
1, 1103028, Note_on_c, 0, 79, 79
1, 1103028, Note_on_c, 0, 82, 88
1, 1103030, Control_c, 0, 64, 90
1, 1103050, Control_c, 0, 64, 127
1, 1103059, Note_off_c, 0, 40, 67
1, 1103060, Note_off_c, 0, 79, 66
1, 1103060, Poly_aftertouch_c, 0, 79, 0
1, 1103063, Note_off_c, 0, 52, 69
1, 1103069, Note_off_c, 0, 73, 66
1, 1103069, Poly_aftertouch_c, 0, 73, 0
1, 1103077, Note_off_c, 0, 82, 66
1, 1103083, Note_off_c, 0, 85, 65
1, 1103271, Note_on_c, 0, 61, 73
1, 1103275, Note_on_c, 0, 52, 65
1, 1103278, Note_on_c, 0, 58, 68
1, 1103310, Control_c, 0, 64, 85
1, 1103312, Note_off_c, 0, 52, 68
1, 1103319, Note_off_c, 0, 58, 68
1, 1103322, Note_off_c, 0, 61, 61
1, 1103322, Poly_aftertouch_c, 0, 61, 0
1, 1103329, Control_c, 0, 64, 0
1, 1103351, Note_on_c, 0, 84, 80
1, 1103355, Note_on_c, 0, 72, 73
1, 1103377, Note_off_c, 0, 84, 73
1, 1103383, Note_off_c, 0, 72, 70
1, 1103441, Note_on_c, 0, 67, 82
1, 1103445, Note_on_c, 0, 58, 77
1, 1103446, Note_on_c, 0, 82, 90
1, 1103448, Note_on_c, 0, 70, 93
1, 1103455, Note_on_c, 0, 61, 70
1, 1103468, Note_off_c, 0, 67, 71
1, 1103480, Note_off_c, 0, 58, 70
1, 1103486, Note_off_c, 0, 61, 67
1, 1103486, Poly_aftertouch_c, 0, 61, 0
1, 1103493, Note_off_c, 0, 70, 64
1, 1103493, Poly_aftertouch_c, 0, 70, 0
1, 1103502, Note_off_c, 0, 82, 65
1, 1103676, Note_on_c, 0, 53, 88
1, 1103682, Note_on_c, 0, 41, 81
1, 1103704, Control_c, 0, 64, 43
1, 1103711, Note_off_c, 0, 41, 67
1, 1103711, Poly_aftertouch_c, 0, 41, 0
1, 1103717, Note_off_c, 0, 53, 64
1, 1103717, Poly_aftertouch_c, 0, 53, 0
1, 1103722, Control_c, 0, 64, 127
1, 1103756, Note_on_c, 0, 68, 87
1, 1103760, Note_on_c, 0, 80, 82
1, 1103786, Note_off_c, 0, 68, 70
1, 1103786, Poly_aftertouch_c, 0, 68, 0
1, 1103792, Note_off_c, 0, 80, 63
1, 1103792, Poly_aftertouch_c, 0, 80, 0
1, 1103834, Control_c, 0, 64, 100
1, 1103850, Control_c, 0, 64, 38
1, 1103852, Note_on_c, 0, 79, 88
1, 1103855, Note_on_c, 0, 67, 83
1, 1103859, Note_on_c, 0, 53, 78
1, 1103862, Note_on_c, 0, 60, 82
1, 1103867, Note_on_c, 0, 56, 70
1, 1103869, Control_c, 0, 64, 0
1, 1103888, Note_off_c, 0, 53, 66
1, 1103888, Poly_aftertouch_c, 0, 53, 0
1, 1103891, Note_off_c, 0, 60, 72
1, 1103891, Poly_aftertouch_c, 0, 60, 0
1, 1103902, Note_off_c, 0, 56, 65
1, 1103902, Poly_aftertouch_c, 0, 56, 0
1, 1103903, Note_off_c, 0, 67, 62
1, 1103908, Note_off_c, 0, 79, 63
1, 1103908, Poly_aftertouch_c, 0, 79, 0
1, 1104098, Note_on_c, 0, 60, 86
1, 1104099, Note_on_c, 0, 77, 81
1, 1104105, Note_on_c, 0, 65, 79
1, 1104107, Note_on_c, 0, 56, 76
1, 1104128, Note_off_c, 0, 60, 70
1, 1104128, Poly_aftertouch_c, 0, 60, 0
1, 1104137, Note_off_c, 0, 77, 60
1, 1104137, Poly_aftertouch_c, 0, 77, 0
1, 1104141, Note_off_c, 0, 56, 69
1, 1104141, Poly_aftertouch_c, 0, 56, 0
1, 1104143, Note_off_c, 0, 65, 65
1, 1104333, Note_on_c, 0, 64, 86
1, 1104333, Note_on_c, 0, 76, 84
1, 1104336, Note_on_c, 0, 73, 77
1, 1104337, Note_on_c, 0, 61, 102
1, 1104337, Control_c, 0, 64, 50
1, 1104341, Note_on_c, 0, 67, 68
1, 1104346, Note_on_c, 0, 49, 91
1, 1104364, Control_c, 0, 64, 113
1, 1104374, Note_off_c, 0, 67, 69
1, 1104376, Note_off_c, 0, 49, 68
1, 1104376, Poly_aftertouch_c, 0, 49, 0
1, 1104376, Control_c, 0, 64, 127
1, 1104380, Note_off_c, 0, 61, 68
1, 1104380, Poly_aftertouch_c, 0, 61, 0
1, 1104392, Note_off_c, 0, 64, 60
1, 1104406, Note_off_c, 0, 76, 63
1, 1104408, Note_off_c, 0, 73, 62
1, 1104408, Poly_aftertouch_c, 0, 73, 0
1, 1104526, Control_c, 0, 64, 93
1, 1104544, Control_c, 0, 64, 69
1, 1104551, Note_on_c, 0, 77, 86
1, 1104553, Note_on_c, 0, 65, 82
1, 1104563, Control_c, 0, 64, 80
1, 1104581, Control_c, 0, 64, 97
1, 1104590, Note_off_c, 0, 65, 65
1, 1104600, Control_c, 0, 64, 121
1, 1104610, Note_off_c, 0, 77, 62
1, 1104610, Poly_aftertouch_c, 0, 77, 0
1, 1104618, Control_c, 0, 64, 127
1, 1104625, Note_on_c, 0, 48, 86
1, 1104626, Note_on_c, 0, 60, 92
1, 1104657, Note_off_c, 0, 48, 68
1, 1104659, Note_off_c, 0, 60, 66
1, 1104659, Poly_aftertouch_c, 0, 60, 0
1, 1104728, Note_on_c, 0, 79, 93
1, 1104731, Note_on_c, 0, 67, 93
1, 1104731, Note_on_c, 0, 58, 101
1, 1104737, Note_on_c, 0, 46, 96
1, 1104750, Control_c, 0, 64, 106
1, 1104764, Note_off_c, 0, 46, 73
1, 1104765, Note_off_c, 0, 79, 61
1, 1104765, Poly_aftertouch_c, 0, 79, 0
1, 1104768, Control_c, 0, 64, 71
1, 1104773, Note_off_c, 0, 58, 61
1, 1104780, Note_off_c, 0, 67, 66
1, 1104787, Control_c, 0, 64, 39
1, 1104806, Control_c, 0, 64, 0
1, 1104983, Note_on_c, 0, 60, 101
1, 1104984, Note_on_c, 0, 72, 97
1, 1104985, Note_on_c, 0, 65, 91
1, 1105049, Control_c, 0, 64, 53
1, 1105063, Note_on_c, 0, 56, 103
1, 1105067, Note_on_c, 0, 44, 94
1, 1105067, Control_c, 0, 64, 127
1, 1105094, Note_off_c, 0, 60, 67
1, 1105094, Poly_aftertouch_c, 0, 60, 0
1, 1105096, Note_off_c, 0, 44, 70
1, 1105108, Note_off_c, 0, 56, 65
1, 1105108, Poly_aftertouch_c, 0, 56, 0
1, 1105114, Note_off_c, 0, 65, 65
1, 1105150, Note_off_c, 0, 72, 63
1, 1105167, Note_on_c, 0, 55, 96
1, 1105172, Note_on_c, 0, 43, 93
1, 1105211, Note_off_c, 0, 55, 65
1, 1105211, Poly_aftertouch_c, 0, 55, 0
1, 1105218, Control_c, 0, 64, 72
1, 1105220, Note_off_c, 0, 43, 64
1, 1105236, Control_c, 0, 64, 0
1, 1105409, Note_on_c, 0, 53, 82
1, 1105412, Note_on_c, 0, 72, 67
1, 1105413, Note_on_c, 0, 41, 84
1, 1105440, Note_off_c, 0, 53, 71
1, 1105440, Poly_aftertouch_c, 0, 53, 0
1, 1105452, Note_off_c, 0, 41, 67
1, 1105452, Poly_aftertouch_c, 0, 41, 0
1, 1105481, Note_off_c, 0, 72, 59
1, 1105484, Note_on_c, 0, 74, 72
1, 1105543, Note_on_c, 0, 76, 68
1, 1105560, Note_off_c, 0, 74, 61
1, 1105586, Note_off_c, 0, 76, 63
1, 1105619, Note_on_c, 0, 77, 93
1, 1105626, Note_on_c, 0, 65, 96
1, 1105629, Note_on_c, 0, 51, 102
1, 1105634, Note_on_c, 0, 39, 87
1, 1105649, Control_c, 0, 64, 88
1, 1105659, Note_off_c, 0, 51, 72
1, 1105664, Note_off_c, 0, 39, 65
1, 1105665, Control_c, 0, 64, 127
1, 1105680, Note_off_c, 0, 77, 63
1, 1105680, Poly_aftertouch_c, 0, 77, 0
1, 1105682, Note_off_c, 0, 65, 68
1, 1105853, Control_c, 0, 64, 110
1, 1105854, Poly_aftertouch_c, 0, 39, 0
1, 1105871, Control_c, 0, 64, 84
1, 1105889, Note_on_c, 0, 51, 60
1, 1105889, Control_c, 0, 64, 61
1, 1105899, Note_on_c, 0, 57, 59
1, 1105906, Note_on_c, 0, 53, 57
1, 1105908, Control_c, 0, 64, 37
1, 1105928, Control_c, 0, 64, 0
1, 1105960, Note_off_c, 0, 51, 63
1, 1105960, Note_off_c, 0, 53, 62
1, 1105960, Poly_aftertouch_c, 0, 53, 0
1, 1105961, Note_off_c, 0, 57, 56
1, 1105961, Poly_aftertouch_c, 0, 57, 0
1, 1105973, Note_on_c, 0, 64, 81
1, 1105976, Note_on_c, 0, 76, 77
1, 1106000, Note_off_c, 0, 76, 72
1, 1106004, Note_off_c, 0, 64, 68
1, 1106063, Note_on_c, 0, 77, 91
1, 1106064, Note_on_c, 0, 65, 86
1, 1106065, Note_on_c, 0, 60, 79
1, 1106076, Note_on_c, 0, 53, 73
1, 1106078, Note_on_c, 0, 57, 70
1, 1106093, Note_off_c, 0, 60, 71
1, 1106093, Poly_aftertouch_c, 0, 60, 0
1, 1106107, Note_off_c, 0, 65, 65
1, 1106109, Note_off_c, 0, 57, 67
1, 1106109, Poly_aftertouch_c, 0, 57, 0
1, 1106117, Note_off_c, 0, 77, 61
1, 1106117, Poly_aftertouch_c, 0, 77, 0
1, 1106125, Note_off_c, 0, 53, 63
1, 1106125, Poly_aftertouch_c, 0, 53, 0
1, 1106282, Note_on_c, 0, 49, 102
1, 1106293, Note_on_c, 0, 37, 87
1, 1106321, Note_off_c, 0, 37, 67
1, 1106321, Poly_aftertouch_c, 0, 37, 0
1, 1106321, Control_c, 0, 64, 109
1, 1106323, Note_off_c, 0, 49, 59
1, 1106323, Poly_aftertouch_c, 0, 49, 0
1, 1106339, Control_c, 0, 64, 127
1, 1106364, Note_on_c, 0, 80, 82
1, 1106369, Note_on_c, 0, 68, 74
1, 1106390, Note_off_c, 0, 80, 68
1, 1106390, Poly_aftertouch_c, 0, 80, 0
1, 1106395, Note_off_c, 0, 68, 71
1, 1106395, Poly_aftertouch_c, 0, 68, 0
1, 1106466, Note_on_c, 0, 61, 82
1, 1106467, Note_on_c, 0, 77, 95
1, 1106468, Note_on_c, 0, 53, 80
1, 1106469, Control_c, 0, 64, 107
1, 1106471, Note_on_c, 0, 65, 94
1, 1106480, Note_on_c, 0, 58, 67
1, 1106490, Control_c, 0, 64, 45
1, 1106499, Poly_aftertouch_c, 0, 37, 0
1, 1106506, Note_off_c, 0, 61, 63
1, 1106506, Poly_aftertouch_c, 0, 61, 0
1, 1106508, Control_c, 0, 64, 0
1, 1106511, Note_off_c, 0, 53, 62
1, 1106511, Poly_aftertouch_c, 0, 53, 0
1, 1106518, Note_off_c, 0, 77, 65
1, 1106518, Poly_aftertouch_c, 0, 77, 0
1, 1106520, Note_off_c, 0, 58, 66
1, 1106525, Note_off_c, 0, 65, 63
1, 1106707, Note_on_c, 0, 61, 87
1, 1106710, Note_on_c, 0, 78, 91
1, 1106711, Note_on_c, 0, 66, 90
1, 1106714, Note_on_c, 0, 58, 87
1, 1106735, Note_off_c, 0, 61, 72
1, 1106735, Poly_aftertouch_c, 0, 61, 0
1, 1106740, Note_off_c, 0, 58, 72
1, 1106745, Note_off_c, 0, 66, 66
1, 1106751, Note_off_c, 0, 78, 58
1, 1106921, Note_on_c, 0, 36, 90
1, 1106922, Note_on_c, 0, 48, 97
1, 1106938, Control_c, 0, 64, 18
1, 1106949, Note_off_c, 0, 36, 66
1, 1106955, Control_c, 0, 64, 127
1, 1106957, Note_off_c, 0, 48, 68
1, 1106998, Note_on_c, 0, 82, 89
1, 1107006, Note_on_c, 0, 70, 84
1, 1107021, Note_off_c, 0, 82, 70
1, 1107030, Note_off_c, 0, 70, 74
1, 1107030, Poly_aftertouch_c, 0, 70, 0
1, 1107096, Note_on_c, 0, 80, 97
1, 1107101, Note_on_c, 0, 68, 93
1, 1107105, Control_c, 0, 64, 99
1, 1107108, Note_on_c, 0, 60, 77
1, 1107109, Note_on_c, 0, 53, 72
1, 1107112, Poly_aftertouch_c, 0, 36, 127
1, 1107115, Note_on_c, 0, 64, 77
1, 1107127, Control_c, 0, 64, 38
1, 1107129, Note_on_c, 0, 70, 61
1, 1107131, Poly_aftertouch_c, 0, 36, 0
1, 1107138, Note_on_c, 0, 55, 43
1, 1107141, Control_c, 0, 64, 0
1, 1107142, Note_off_c, 0, 60, 66
1, 1107142, Poly_aftertouch_c, 0, 60, 0
1, 1107146, Note_off_c, 0, 53, 59
1, 1107146, Note_off_c, 0, 64, 69
1, 1107146, Poly_aftertouch_c, 0, 53, 0
1, 1107149, Note_off_c, 0, 70, 44
1, 1107149, Poly_aftertouch_c, 0, 70, 0
1, 1107152, Note_off_c, 0, 68, 60
1, 1107152, Poly_aftertouch_c, 0, 68, 0
1, 1107162, Note_off_c, 0, 80, 63
1, 1107162, Poly_aftertouch_c, 0, 80, 0
1, 1107180, Note_off_c, 0, 55, 37
1, 1107180, Poly_aftertouch_c, 0, 55, 0
1, 1107185, Poly_aftertouch_c, 0, 63, 0
1, 1107220, Poly_aftertouch_c, 0, 81, 0
1, 1107346, Note_on_c, 0, 63, 80
1, 1107348, Note_on_c, 0, 81, 96
1, 1107349, Note_on_c, 0, 65, 83
1, 1107349, Note_on_c, 0, 69, 100
1, 1107360, Note_on_c, 0, 60, 70
1, 1107375, Note_off_c, 0, 65, 75
1, 1107384, Note_off_c, 0, 63, 66
1, 1107387, Note_off_c, 0, 69, 67
1, 1107390, Note_off_c, 0, 60, 69
1, 1107390, Poly_aftertouch_c, 0, 60, 0
1, 1107399, Note_off_c, 0, 81, 66
1, 1107600, Note_on_c, 0, 72, 105
1, 1107601, Note_on_c, 0, 84, 105
1, 1107603, Note_on_c, 0, 46, 99
1, 1107610, Control_c, 0, 64, 35
1, 1107611, Note_on_c, 0, 34, 89
1, 1107625, Note_off_c, 0, 46, 74
1, 1107629, Control_c, 0, 64, 103
1, 1107633, Note_on_c, 0, 82, 64
1, 1107634, Note_off_c, 0, 34, 71
1, 1107646, Note_off_c, 0, 84, 70
1, 1107648, Note_on_c, 0, 48, 56
1, 1107648, Control_c, 0, 64, 127
1, 1107649, Note_off_c, 0, 48, 127
1, 1107652, Note_off_c, 0, 72, 66
1, 1107659, Note_on_c, 0, 47, 30
1, 1107659, Poly_aftertouch_c, 0, 47, 0
1, 1107660, Note_off_c, 0, 47, 127
1, 1107661, Note_off_c, 0, 82, 44
1, 1107684, Poly_aftertouch_c, 0, 48, 0
1, 1107706, Poly_aftertouch_c, 0, 47, 0
1, 1107828, Poly_aftertouch_c, 0, 34, 0
1, 1107891, Control_c, 0, 64, 105
1, 1107906, Note_on_c, 0, 82, 88
1, 1107908, Note_on_c, 0, 70, 107
1, 1107910, Control_c, 0, 64, 71
1, 1107913, Note_on_c, 0, 53, 80
1, 1107914, Note_on_c, 0, 61, 86
1, 1107924, Note_on_c, 0, 58, 77
1, 1107928, Control_c, 0, 64, 73
1, 1107947, Control_c, 0, 64, 99
1, 1107966, Control_c, 0, 64, 127
1, 1107999, Note_off_c, 0, 53, 59
1, 1107999, Poly_aftertouch_c, 0, 53, 0
1, 1108013, Note_off_c, 0, 70, 62
1, 1108013, Poly_aftertouch_c, 0, 70, 0
1, 1108022, Note_off_c, 0, 58, 58
1, 1108037, Note_off_c, 0, 61, 59
1, 1108037, Poly_aftertouch_c, 0, 61, 0
1, 1108087, Note_off_c, 0, 82, 35
1, 1108147, Note_on_c, 0, 65, 96
1, 1108149, Note_on_c, 0, 71, 83
1, 1108150, Note_on_c, 0, 58, 91
1, 1108151, Note_on_c, 0, 61, 96
1, 1108194, Note_off_c, 0, 65, 65
1, 1108206, Note_off_c, 0, 61, 67
1, 1108206, Poly_aftertouch_c, 0, 61, 0
1, 1108208, Note_off_c, 0, 71, 60
1, 1108208, Poly_aftertouch_c, 0, 71, 0
1, 1108215, Note_on_c, 0, 74, 75
1, 1108220, Note_off_c, 0, 58, 66
1, 1108269, Note_on_c, 0, 77, 64
1, 1108277, Note_off_c, 0, 74, 62
1, 1108286, Note_on_c, 0, 76, 56
1, 1108313, Note_on_c, 0, 80, 74
1, 1108314, Note_off_c, 0, 76, 62
1, 1108319, Note_off_c, 0, 77, 63
1, 1108319, Poly_aftertouch_c, 0, 77, 0
1, 1108341, Note_off_c, 0, 80, 71
1, 1108341, Poly_aftertouch_c, 0, 80, 0
1, 1108397, Note_on_c, 0, 83, 71
1, 1108437, Note_off_c, 0, 83, 60
1, 1108460, Note_on_c, 0, 86, 68
1, 1108490, Control_c, 0, 64, 77
1, 1108492, Note_on_c, 0, 89, 83
1, 1108506, Note_on_c, 0, 92, 95
1, 1108508, Control_c, 0, 64, 45
1, 1108518, Note_on_c, 0, 50, 101
1, 1108521, Note_off_c, 0, 86, 53
1, 1108522, Note_on_c, 0, 38, 88
1, 1108525, Note_on_c, 0, 95, 101
1, 1108527, Control_c, 0, 64, 69
1, 1108545, Note_off_c, 0, 89, 64
1, 1108545, Control_c, 0, 64, 120
1, 1108564, Control_c, 0, 64, 127
1, 1108568, Note_off_c, 0, 92, 69
1, 1108572, Note_off_c, 0, 50, 66
1, 1108572, Poly_aftertouch_c, 0, 50, 0
1, 1108580, Note_off_c, 0, 38, 62
1, 1108586, Note_off_c, 0, 95, 67
1, 1108624, Poly_aftertouch_c, 0, 40, 0
1, 1108649, Poly_aftertouch_c, 0, 46, 0
1, 1108751, Note_on_c, 0, 51, 85
1, 1108758, Note_on_c, 0, 39, 89
1, 1108771, Control_c, 0, 64, 100
1, 1108790, Control_c, 0, 64, 64
1, 1108795, Note_off_c, 0, 39, 65
1, 1108796, Note_off_c, 0, 51, 58
1, 1108808, Control_c, 0, 64, 0
1, 1108847, Note_on_c, 0, 94, 87
1, 1108851, Note_on_c, 0, 82, 81
1, 1108871, Note_off_c, 0, 94, 70
1, 1108873, Note_off_c, 0, 82, 71
1, 1108929, Note_on_c, 0, 53, 83
1, 1108935, Note_on_c, 0, 41, 82
1, 1108943, Note_on_c, 0, 92, 93
1, 1108948, Note_on_c, 0, 80, 95
1, 1108966, Note_off_c, 0, 53, 67
1, 1108966, Poly_aftertouch_c, 0, 53, 0
1, 1108973, Note_off_c, 0, 41, 66
1, 1108973, Poly_aftertouch_c, 0, 41, 0
1, 1109008, Note_off_c, 0, 80, 64
1, 1109008, Poly_aftertouch_c, 0, 80, 0
1, 1109014, Note_off_c, 0, 92, 64
1, 1109152, Note_on_c, 0, 58, 99
1, 1109155, Note_on_c, 0, 46, 95
1, 1109181, Control_c, 0, 64, 66
1, 1109200, Note_off_c, 0, 58, 67
1, 1109201, Control_c, 0, 64, 127
1, 1109210, Note_off_c, 0, 46, 60
1, 1109236, Note_on_c, 0, 78, 88
1, 1109237, Note_on_c, 0, 90, 88
1, 1109291, Note_off_c, 0, 90, 65
1, 1109298, Note_off_c, 0, 78, 64
1, 1109332, Control_c, 0, 64, 109
1, 1109340, Note_on_c, 0, 89, 96
1, 1109341, Note_on_c, 0, 56, 97
1, 1109345, Note_on_c, 0, 77, 94
1, 1109346, Note_on_c, 0, 44, 92
1, 1109351, Control_c, 0, 64, 69
1, 1109388, Note_off_c, 0, 56, 65
1, 1109388, Note_off_c, 0, 44, 60
1, 1109388, Poly_aftertouch_c, 0, 56, 0
1, 1109388, Control_c, 0, 64, 86
1, 1109400, Note_off_c, 0, 77, 64
1, 1109400, Poly_aftertouch_c, 0, 77, 0
1, 1109401, Note_off_c, 0, 89, 64
1, 1109407, Control_c, 0, 64, 108
1, 1109425, Control_c, 0, 64, 127
1, 1109518, Control_c, 0, 64, 116
1, 1109539, Control_c, 0, 64, 127
1, 1109545, Note_on_c, 0, 75, 97
1, 1109548, Note_on_c, 0, 87, 91
1, 1109554, Note_on_c, 0, 54, 93
1, 1109554, Note_on_c, 0, 42, 93
1, 1109568, Note_on_c, 0, 56, 70
1, 1109569, Note_off_c, 0, 56, 127
1, 1109569, Poly_aftertouch_c, 0, 56, 0
1, 1109580, Note_on_c, 0, 44, 52
1, 1109581, Note_off_c, 0, 44, 127
1, 1109584, Note_off_c, 0, 54, 64
1, 1109589, Note_off_c, 0, 42, 65
1, 1109591, Note_off_c, 0, 75, 65
1, 1109612, Note_off_c, 0, 87, 65
1, 1109616, Poly_aftertouch_c, 0, 44, 0
1, 1109642, Poly_aftertouch_c, 0, 80, 0
1, 1109680, Note_on_c, 0, 73, 83
1, 1109699, Note_on_c, 0, 79, 49
1, 1109731, Note_off_c, 0, 73, 64
1, 1109731, Poly_aftertouch_c, 0, 73, 0
1, 1109741, Note_on_c, 0, 82, 74
1, 1109760, Note_off_c, 0, 79, 60
1, 1109760, Poly_aftertouch_c, 0, 79, 0
1, 1109772, Note_on_c, 0, 85, 73
1, 1109786, Note_off_c, 0, 82, 63
1, 1109793, Note_off_c, 0, 85, 66
1, 1109836, Control_c, 0, 64, 107
1, 1109853, Poly_aftertouch_c, 0, 51, 0
1, 1109855, Control_c, 0, 64, 56
1, 1109861, Note_on_c, 0, 85, 80
1, 1109874, Control_c, 0, 64, 18
1, 1109881, Note_on_c, 0, 91, 80
1, 1109891, Control_c, 0, 64, 56
1, 1109902, Note_on_c, 0, 52, 97
1, 1109906, Note_on_c, 0, 40, 88
1, 1109906, Note_on_c, 0, 94, 80
1, 1109910, Control_c, 0, 64, 95
1, 1109923, Note_off_c, 0, 85, 65
1, 1109925, Note_on_c, 0, 97, 103
1, 1109928, Control_c, 0, 64, 127
1, 1109943, Note_off_c, 0, 91, 66
1, 1109956, Note_off_c, 0, 94, 67
1, 1109956, Note_on_c, 0, 42, 28
1, 1109968, Note_off_c, 0, 52, 66
1, 1109977, Note_off_c, 0, 40, 60
1, 1109978, Note_off_c, 0, 97, 66
1, 1110007, Note_off_c, 0, 42, 42
1, 1110136, Control_c, 0, 64, 102
1, 1110154, Control_c, 0, 64, 43
1, 1110157, Note_on_c, 0, 94, 11
1, 1110162, Note_on_c, 0, 41, 91
1, 1110162, Note_on_c, 0, 53, 86
1, 1110172, Control_c, 0, 64, 0
1, 1110188, Note_off_c, 0, 94, 34
1, 1110209, Note_off_c, 0, 53, 63
1, 1110209, Poly_aftertouch_c, 0, 53, 0
1, 1110215, Note_off_c, 0, 41, 64
1, 1110215, Poly_aftertouch_c, 0, 41, 0
1, 1110260, Note_on_c, 0, 96, 88
1, 1110267, Note_on_c, 0, 84, 79
1, 1110287, Note_off_c, 0, 96, 68
1, 1110290, Note_on_c, 0, 95, 60
1, 1110294, Note_off_c, 0, 84, 70
1, 1110322, Note_off_c, 0, 95, 43
1, 1110357, Note_on_c, 0, 55, 95
1, 1110359, Note_on_c, 0, 94, 88
1, 1110360, Note_on_c, 0, 43, 92
1, 1110368, Note_on_c, 0, 82, 97
1, 1110392, Note_off_c, 0, 43, 69
1, 1110395, Note_off_c, 0, 55, 66
1, 1110395, Poly_aftertouch_c, 0, 55, 0
1, 1110429, Note_off_c, 0, 94, 66
1, 1110443, Note_off_c, 0, 82, 58
1, 1110576, Note_on_c, 0, 60, 105
1, 1110579, Note_on_c, 0, 48, 98
1, 1110604, Control_c, 0, 64, 12
1, 1110617, Note_off_c, 0, 60, 69
1, 1110617, Poly_aftertouch_c, 0, 60, 0
1, 1110622, Control_c, 0, 64, 117
1, 1110623, Note_off_c, 0, 48, 69
1, 1110639, Control_c, 0, 64, 127
1, 1110679, Note_on_c, 0, 80, 84
1, 1110680, Note_on_c, 0, 92, 87
1, 1110728, Note_off_c, 0, 92, 66
1, 1110730, Note_off_c, 0, 80, 60
1, 1110785, Note_on_c, 0, 91, 99
1, 1110788, Note_on_c, 0, 79, 99
1, 1110794, Note_on_c, 0, 58, 102
1, 1110798, Note_on_c, 0, 46, 96
1, 1110809, Control_c, 0, 64, 74
1, 1110826, Control_c, 0, 64, 0
1, 1110838, Note_off_c, 0, 58, 65
1, 1110838, Note_off_c, 0, 46, 60
1, 1110839, Note_off_c, 0, 79, 67
1, 1110839, Poly_aftertouch_c, 0, 79, 0
1, 1110845, Note_off_c, 0, 91, 64
1, 1110901, Control_c, 0, 64, 60
1, 1110921, Control_c, 0, 64, 110
1, 1110940, Control_c, 0, 64, 127
1, 1110976, Control_c, 0, 64, 95
1, 1110997, Control_c, 0, 64, 42
1, 1111014, Control_c, 0, 64, 0
1, 1111018, Note_on_c, 0, 77, 98
1, 1111018, Note_on_c, 0, 56, 99
1, 1111021, Note_on_c, 0, 89, 99
1, 1111029, Note_on_c, 0, 44, 89
1, 1111031, Control_c, 0, 64, 30
1, 1111052, Control_c, 0, 64, 81
1, 1111060, Note_off_c, 0, 77, 67
1, 1111060, Note_on_c, 0, 87, 40
1, 1111060, Poly_aftertouch_c, 0, 77, 0
1, 1111065, Note_off_c, 0, 44, 63
1, 1111065, Note_off_c, 0, 56, 67
1, 1111065, Poly_aftertouch_c, 0, 56, 0
1, 1111070, Control_c, 0, 64, 127
1, 1111085, Note_off_c, 0, 89, 59
1, 1111099, Note_off_c, 0, 87, 39
1, 1111155, Poly_aftertouch_c, 0, 82, 0
1, 1111172, Note_on_c, 0, 78, 73
1, 1111176, Note_on_c, 0, 84, 53
1, 1111204, Note_off_c, 0, 78, 65
1, 1111219, Note_on_c, 0, 87, 71
1, 1111220, Control_c, 0, 64, 78
1, 1111237, Control_c, 0, 64, 0
1, 1111249, Note_off_c, 0, 84, 63
1, 1111249, Note_on_c, 0, 45, 72
1, 1111260, Note_on_c, 0, 90, 66
1, 1111261, Note_off_c, 0, 90, 127
1, 1111276, Note_off_c, 0, 87, 63
1, 1111282, Note_on_c, 0, 48, 59
1, 1111309, Note_on_c, 0, 51, 61
1, 1111338, Note_on_c, 0, 54, 72
1, 1111357, Note_on_c, 0, 90, 77
1, 1111366, Note_off_c, 0, 45, 55
1, 1111382, Note_on_c, 0, 96, 77
1, 1111398, Note_off_c, 0, 48, 63
1, 1111417, Note_on_c, 0, 99, 78
1, 1111420, Note_on_c, 0, 60, 102
1, 1111429, Note_off_c, 0, 90, 65
1, 1111432, Note_on_c, 0, 102, 106
1, 1111444, Control_c, 0, 64, 8
1, 1111458, Note_off_c, 0, 96, 63
1, 1111460, Note_off_c, 0, 51, 61
1, 1111461, Note_off_c, 0, 99, 63
1, 1111465, Control_c, 0, 64, 127
1, 1111467, Note_off_c, 0, 54, 67
1, 1111468, Note_off_c, 0, 60, 68
1, 1111468, Poly_aftertouch_c, 0, 60, 0
1, 1111469, Note_off_c, 0, 102, 71
1, 1111542, Poly_aftertouch_c, 0, 100, 127
1, 1111549, Poly_aftertouch_c, 0, 100, 0
1, 1111769, Note_on_c, 0, 87, 71
1, 1111769, Note_on_c, 0, 75, 77
1, 1111770, Note_on_c, 0, 99, 78
1, 1111795, Note_off_c, 0, 87, 70
1, 1111801, Note_off_c, 0, 99, 69
1, 1111844, Note_on_c, 0, 96, 99
1, 1111845, Note_on_c, 0, 72, 88
1, 1111852, Note_off_c, 0, 75, 63
1, 1111852, Note_on_c, 0, 84, 90
1, 1111888, Note_off_c, 0, 72, 64
1, 1111903, Note_off_c, 0, 84, 63
1, 1111905, Note_off_c, 0, 96, 65
1, 1112065, Note_on_c, 0, 69, 90
1, 1112099, Control_c, 0, 64, 113
1, 1112116, Control_c, 0, 64, 94
1, 1112130, Note_off_c, 0, 69, 59
1, 1112136, Control_c, 0, 64, 106
1, 1112155, Control_c, 0, 64, 127
1, 1112163, Note_on_c, 0, 93, 82
1, 1112177, Note_on_c, 0, 81, 72
1, 1112211, Note_off_c, 0, 81, 66
1, 1112219, Note_off_c, 0, 93, 64
1, 1112280, Note_on_c, 0, 66, 85
1, 1112286, Control_c, 0, 64, 94
1, 1112306, Control_c, 0, 64, 77
1, 1112323, Control_c, 0, 64, 96
1, 1112341, Control_c, 0, 64, 127
1, 1112360, Note_off_c, 0, 66, 64
1, 1112386, Note_on_c, 0, 78, 81
1, 1112390, Note_on_c, 0, 90, 77
1, 1112430, Note_off_c, 0, 90, 60
1, 1112432, Note_off_c, 0, 78, 56
1, 1112492, Note_on_c, 0, 63, 86
1, 1112541, Note_off_c, 0, 63, 68
1, 1112579, Note_on_c, 0, 75, 80
1, 1112583, Note_on_c, 0, 87, 74
1, 1112648, Note_off_c, 0, 75, 63
1, 1112651, Note_off_c, 0, 87, 62
1, 1112695, Note_on_c, 0, 60, 94
1, 1112715, Control_c, 0, 64, 112
1, 1112734, Control_c, 0, 64, 94
1, 1112754, Control_c, 0, 64, 110
1, 1112766, Note_off_c, 0, 60, 65
1, 1112766, Poly_aftertouch_c, 0, 60, 0
1, 1112772, Control_c, 0, 64, 127
1, 1112793, Note_on_c, 0, 84, 79
1, 1112801, Note_on_c, 0, 72, 74
1, 1112845, Note_off_c, 0, 84, 59
1, 1112846, Note_off_c, 0, 72, 61
1, 1112894, Note_on_c, 0, 57, 93
1, 1112902, Control_c, 0, 64, 95
1, 1112921, Control_c, 0, 64, 79
1, 1112941, Control_c, 0, 64, 98
1, 1112959, Control_c, 0, 64, 127
1, 1112972, Note_off_c, 0, 57, 61
1, 1112972, Poly_aftertouch_c, 0, 57, 0
1, 1113003, Note_on_c, 0, 81, 84
1, 1113005, Note_on_c, 0, 69, 77
1, 1113040, Note_off_c, 0, 81, 58
1, 1113042, Note_off_c, 0, 69, 62
1, 1113111, Note_on_c, 0, 54, 90
1, 1113165, Control_c, 0, 64, 96
1, 1113185, Note_on_c, 0, 66, 84
1, 1113191, Note_on_c, 0, 78, 74
1, 1113198, Note_off_c, 0, 54, 62
1, 1113200, Control_c, 0, 64, 127
1, 1113216, Note_off_c, 0, 78, 72
1, 1113246, Note_off_c, 0, 66, 62
1, 1113311, Note_on_c, 0, 51, 92
1, 1113351, Control_c, 0, 64, 110
1, 1113366, Note_off_c, 0, 51, 64
1, 1113369, Control_c, 0, 64, 100
1, 1113388, Control_c, 0, 64, 127
1, 1113399, Note_on_c, 0, 63, 84
1, 1113403, Note_on_c, 0, 75, 81
1, 1113463, Note_off_c, 0, 63, 61
1, 1113467, Note_off_c, 0, 75, 61
1, 1113517, Note_on_c, 0, 48, 102
1, 1113538, Control_c, 0, 64, 118
1, 1113557, Control_c, 0, 64, 99
1, 1113576, Control_c, 0, 64, 117
1, 1113594, Note_off_c, 0, 48, 62
1, 1113594, Control_c, 0, 64, 127
1, 1113620, Note_on_c, 0, 72, 77
1, 1113627, Note_on_c, 0, 60, 70
1, 1113667, Note_off_c, 0, 60, 64
1, 1113667, Poly_aftertouch_c, 0, 60, 0
1, 1113669, Note_on_c, 0, 71, 38
1, 1113669, Poly_aftertouch_c, 0, 71, 0
1, 1113670, Note_off_c, 0, 71, 127
1, 1113676, Note_off_c, 0, 72, 58
1, 1113712, Poly_aftertouch_c, 0, 71, 0
1, 1113729, Note_on_c, 0, 45, 102
1, 1113784, Note_off_c, 0, 45, 66
1, 1113832, Note_on_c, 0, 69, 85
1, 1113837, Note_on_c, 0, 57, 80
1, 1113875, Note_off_c, 0, 57, 64
1, 1113875, Poly_aftertouch_c, 0, 57, 0
1, 1113875, Control_c, 0, 64, 111
1, 1113881, Note_off_c, 0, 69, 50
1, 1113894, Control_c, 0, 64, 66
1, 1113912, Control_c, 0, 64, 0
1, 1113948, Note_on_c, 0, 42, 111
1, 1113969, Control_c, 0, 64, 39
1, 1113988, Control_c, 0, 64, 86
1, 1113997, Note_off_c, 0, 42, 67
1, 1114005, Control_c, 0, 64, 127
1, 1114067, Note_on_c, 0, 54, 84
1, 1114073, Note_on_c, 0, 66, 80
1, 1114132, Note_off_c, 0, 54, 60
1, 1114137, Note_off_c, 0, 66, 62
1, 1114155, Control_c, 0, 64, 94
1, 1114175, Control_c, 0, 64, 24
1, 1114189, Note_on_c, 0, 41, 110
1, 1114193, Control_c, 0, 64, 0
1, 1114230, Control_c, 0, 64, 66
1, 1114239, Note_off_c, 0, 41, 65
1, 1114239, Poly_aftertouch_c, 0, 41, 0
1, 1114249, Control_c, 0, 64, 114
1, 1114267, Control_c, 0, 64, 127
1, 1114294, Note_on_c, 0, 53, 74
1, 1114304, Note_on_c, 0, 65, 72
1, 1114307, Note_on_c, 0, 66, 63
1, 1114342, Control_c, 0, 64, 97
1, 1114344, Note_off_c, 0, 65, 65
1, 1114344, Note_off_c, 0, 66, 67
1, 1114346, Note_off_c, 0, 53, 59
1, 1114346, Poly_aftertouch_c, 0, 53, 0
1, 1114361, Control_c, 0, 64, 73
1, 1114380, Control_c, 0, 64, 84
1, 1114398, Control_c, 0, 64, 116
1, 1114408, Note_on_c, 0, 39, 103
1, 1114417, Control_c, 0, 64, 127
1, 1114453, Note_off_c, 0, 39, 63
1, 1114507, Note_on_c, 0, 63, 70
1, 1114509, Note_on_c, 0, 51, 69
1, 1114543, Note_off_c, 0, 51, 64
1, 1114546, Note_off_c, 0, 63, 63
1, 1114604, Control_c, 0, 64, 123
1, 1114622, Control_c, 0, 64, 73
1, 1114642, Control_c, 0, 64, 0
1, 1114691, Note_on_c, 0, 62, 102
1, 1114692, Note_on_c, 0, 50, 105
1, 1114693, Note_on_c, 0, 38, 87
1, 1114747, Note_off_c, 0, 38, 64
1, 1114748, Note_off_c, 0, 50, 67
1, 1114748, Poly_aftertouch_c, 0, 50, 0
1, 1114752, Control_c, 0, 64, 109
1, 1114765, Note_off_c, 0, 62, 72
1, 1114771, Control_c, 0, 64, 127
1, 1115028, Note_on_c, 0, 50, 58
1, 1115040, Note_on_c, 0, 53, 56
1, 1115072, Note_on_c, 0, 58, 62
1, 1115082, Note_off_c, 0, 50, 55
1, 1115082, Poly_aftertouch_c, 0, 50, 0
1, 1115110, Note_off_c, 0, 53, 60
1, 1115110, Poly_aftertouch_c, 0, 53, 0
1, 1115115, Note_on_c, 0, 77, 78
1, 1115115, Note_on_c, 0, 70, 93
1, 1115116, Note_on_c, 0, 82, 89
1, 1115117, Note_on_c, 0, 65, 93
1, 1115142, Note_off_c, 0, 82, 67
1, 1115146, Note_off_c, 0, 65, 67
1, 1115149, Note_off_c, 0, 77, 62
1, 1115149, Poly_aftertouch_c, 0, 77, 0
1, 1115151, Note_off_c, 0, 70, 59
1, 1115151, Poly_aftertouch_c, 0, 70, 0
1, 1115166, Control_c, 0, 64, 94
1, 1115175, Note_off_c, 0, 58, 65
1, 1115184, Control_c, 0, 64, 37
1, 1115202, Control_c, 0, 64, 0
1, 1115400, Note_on_c, 0, 49, 110
1, 1115407, Note_on_c, 0, 37, 97
1, 1115407, Note_on_c, 0, 61, 105
1, 1115442, Note_off_c, 0, 49, 64
1, 1115442, Note_off_c, 0, 37, 69
1, 1115442, Poly_aftertouch_c, 0, 49, 0
1, 1115446, Control_c, 0, 64, 96
1, 1115453, Note_off_c, 0, 61, 68
1, 1115453, Note_on_c, 0, 36, 42
1, 1115453, Poly_aftertouch_c, 0, 61, 0
1, 1115454, Note_off_c, 0, 36, 127
1, 1115464, Control_c, 0, 64, 127
1, 1115501, Poly_aftertouch_c, 0, 36, 0
1, 1115522, Poly_aftertouch_c, 0, 39, 0
1, 1115708, Note_on_c, 0, 49, 67
1, 1115735, Note_on_c, 0, 53, 53
1, 1115756, Note_on_c, 0, 58, 56
1, 1115770, Note_off_c, 0, 49, 63
1, 1115770, Poly_aftertouch_c, 0, 49, 0
1, 1115793, Note_off_c, 0, 53, 61
1, 1115793, Poly_aftertouch_c, 0, 53, 0
1, 1115808, Note_on_c, 0, 70, 90
1, 1115809, Note_on_c, 0, 82, 88
1, 1115809, Note_on_c, 0, 65, 93
1, 1115813, Note_on_c, 0, 77, 76
1, 1115839, Note_off_c, 0, 65, 67
1, 1115840, Note_off_c, 0, 82, 64
1, 1115843, Note_off_c, 0, 77, 66
1, 1115843, Poly_aftertouch_c, 0, 77, 0
1, 1115856, Note_off_c, 0, 70, 65
1, 1115856, Poly_aftertouch_c, 0, 70, 0
1, 1115865, Note_off_c, 0, 58, 64
1, 1115913, Control_c, 0, 64, 89
1, 1115931, Control_c, 0, 64, 36
1, 1115951, Control_c, 0, 64, 0
1, 1116100, Note_on_c, 0, 48, 108
1, 1116102, Note_on_c, 0, 60, 102
1, 1116106, Note_on_c, 0, 36, 98
1, 1116135, Note_off_c, 0, 36, 74
1, 1116137, Control_c, 0, 64, 56
1, 1116143, Note_off_c, 0, 48, 69
1, 1116151, Note_off_c, 0, 60, 67
1, 1116151, Poly_aftertouch_c, 0, 60, 0
1, 1116155, Control_c, 0, 64, 127
1, 1116406, Note_on_c, 0, 48, 74
1, 1116471, Note_on_c, 0, 60, 78
1, 1116472, Note_off_c, 0, 48, 64
1, 1116482, Note_on_c, 0, 56, 61
1, 1116484, Note_on_c, 0, 68, 90
1, 1116486, Note_on_c, 0, 80, 80
1, 1116493, Note_on_c, 0, 72, 76
1, 1116497, Note_on_c, 0, 77, 72
1, 1116513, Note_on_c, 0, 65, 99
1, 1116520, Note_off_c, 0, 80, 65
1, 1116528, Note_off_c, 0, 77, 68
1, 1116528, Poly_aftertouch_c, 0, 77, 0
1, 1116530, Note_off_c, 0, 72, 66
1, 1116535, Note_off_c, 0, 68, 65
1, 1116535, Poly_aftertouch_c, 0, 68, 0
1, 1116550, Poly_aftertouch_c, 0, 52, 0
1, 1116551, Note_off_c, 0, 65, 59
1, 1116556, Note_off_c, 0, 60, 67
1, 1116556, Poly_aftertouch_c, 0, 60, 0
1, 1116570, Note_off_c, 0, 56, 64
1, 1116570, Poly_aftertouch_c, 0, 56, 0
1, 1116586, Control_c, 0, 64, 95
1, 1116605, Control_c, 0, 64, 45
1, 1116624, Control_c, 0, 64, 0
1, 1116784, Note_on_c, 0, 58, 99
1, 1116787, Note_on_c, 0, 46, 112
1, 1116792, Control_c, 0, 64, 16
1, 1116793, Note_on_c, 0, 34, 101
1, 1116810, Control_c, 0, 64, 122
1, 1116821, Note_off_c, 0, 34, 71
1, 1116824, Note_off_c, 0, 46, 69
1, 1116829, Control_c, 0, 64, 127
1, 1116832, Note_off_c, 0, 58, 67
1, 1117156, Note_on_c, 0, 52, 73
1, 1117164, Note_on_c, 0, 55, 64
1, 1117174, Note_on_c, 0, 60, 80
1, 1117174, Note_on_c, 0, 79, 87
1, 1117178, Note_on_c, 0, 67, 88
1, 1117181, Note_on_c, 0, 76, 79
1, 1117182, Note_on_c, 0, 64, 93
1, 1117182, Note_on_c, 0, 72, 80
1, 1117205, Note_off_c, 0, 64, 74
1, 1117222, Control_c, 0, 64, 101
1, 1117223, Note_off_c, 0, 79, 59
1, 1117223, Note_off_c, 0, 76, 63
1, 1117223, Poly_aftertouch_c, 0, 79, 0
1, 1117226, Note_off_c, 0, 67, 60
1, 1117226, Note_off_c, 0, 72, 61
1, 1117232, Note_off_c, 0, 60, 64
1, 1117232, Poly_aftertouch_c, 0, 60, 0
1, 1117238, Note_off_c, 0, 52, 63
1, 1117240, Control_c, 0, 64, 31
1, 1117247, Note_off_c, 0, 55, 64
1, 1117247, Poly_aftertouch_c, 0, 55, 0
1, 1117259, Control_c, 0, 64, 0
1, 1117461, Note_on_c, 0, 44, 111
1, 1117465, Note_on_c, 0, 56, 98
1, 1117470, Note_on_c, 0, 32, 98
1, 1117484, Control_c, 0, 64, 30
1, 1117497, Note_off_c, 0, 32, 69
1, 1117501, Control_c, 0, 64, 124
1, 1117503, Note_off_c, 0, 44, 66
1, 1117503, Note_off_c, 0, 56, 64
1, 1117503, Poly_aftertouch_c, 0, 56, 0
1, 1117507, Note_on_c, 0, 34, 40
1, 1117508, Note_off_c, 0, 34, 127
1, 1117559, Poly_aftertouch_c, 0, 34, 0
1, 1117592, Poly_aftertouch_c, 0, 37, 127
1, 1117620, Poly_aftertouch_c, 0, 37, 0
1, 1117843, Note_on_c, 0, 53, 74
1, 1117849, Note_on_c, 0, 56, 65
1, 1117857, Note_on_c, 0, 60, 81
1, 1117861, Note_on_c, 0, 84, 96
1, 1117862, Note_on_c, 0, 65, 95
1, 1117864, Note_on_c, 0, 72, 92
1, 1117869, Note_on_c, 0, 80, 86
1, 1117871, Note_on_c, 0, 77, 80
1, 1117876, Control_c, 0, 64, 118
1, 1117892, Note_off_c, 0, 65, 70
1, 1117896, Control_c, 0, 64, 58
1, 1117906, Note_off_c, 0, 72, 64
1, 1117906, Note_on_c, 0, 82, 52
1, 1117907, Note_off_c, 0, 84, 68
1, 1117911, Control_c, 0, 64, 0
1, 1117913, Note_off_c, 0, 53, 64
1, 1117913, Poly_aftertouch_c, 0, 53, 0
1, 1117914, Note_off_c, 0, 60, 66
1, 1117914, Poly_aftertouch_c, 0, 60, 0
1, 1117915, Note_off_c, 0, 82, 127
1, 1117917, Note_off_c, 0, 77, 59
1, 1117917, Poly_aftertouch_c, 0, 77, 0
1, 1117927, Note_off_c, 0, 80, 65
1, 1117929, Note_off_c, 0, 56, 65
1, 1117929, Poly_aftertouch_c, 0, 56, 0
1, 1118156, Note_on_c, 0, 46, 110
1, 1118157, Note_on_c, 0, 58, 102
1, 1118162, Note_on_c, 0, 34, 97
1, 1118175, Control_c, 0, 64, 80
1, 1118190, Note_off_c, 0, 34, 72
1, 1118195, Note_off_c, 0, 46, 69
1, 1118195, Control_c, 0, 64, 127
1, 1118204, Note_off_c, 0, 58, 68
1, 1118274, Poly_aftertouch_c, 0, 44, 0
1, 1118505, Note_on_c, 0, 46, 66
1, 1118527, Note_on_c, 0, 49, 53
1, 1118540, Note_on_c, 0, 54, 65
1, 1118548, Note_on_c, 0, 82, 89
1, 1118548, Note_on_c, 0, 70, 92
1, 1118548, Note_on_c, 0, 73, 86
1, 1118551, Note_on_c, 0, 78, 82
1, 1118556, Note_on_c, 0, 61, 94
1, 1118571, Control_c, 0, 64, 102
1, 1118581, Note_off_c, 0, 46, 64
1, 1118587, Control_c, 0, 64, 30
1, 1118590, Note_off_c, 0, 70, 65
1, 1118590, Poly_aftertouch_c, 0, 70, 0
1, 1118597, Note_off_c, 0, 82, 65
1, 1118599, Note_off_c, 0, 73, 62
1, 1118599, Poly_aftertouch_c, 0, 73, 0
1, 1118603, Note_off_c, 0, 54, 63
1, 1118604, Note_off_c, 0, 61, 60
1, 1118604, Poly_aftertouch_c, 0, 61, 0
1, 1118605, Control_c, 0, 64, 0
1, 1118607, Note_off_c, 0, 49, 62
1, 1118607, Poly_aftertouch_c, 0, 49, 0
1, 1118608, Note_off_c, 0, 78, 62
1, 1118825, Note_on_c, 0, 60, 100
1, 1118826, Note_on_c, 0, 48, 108
1, 1118831, Note_on_c, 0, 36, 97
1, 1118858, Note_off_c, 0, 36, 70
1, 1118867, Control_c, 0, 64, 101
1, 1118868, Note_off_c, 0, 60, 69
1, 1118868, Poly_aftertouch_c, 0, 60, 0
1, 1118870, Note_off_c, 0, 48, 71
1, 1118885, Control_c, 0, 64, 127
1, 1119118, Note_on_c, 0, 48, 67
1, 1119177, Note_off_c, 0, 48, 63
1, 1119177, Note_on_c, 0, 56, 60
1, 1119189, Note_on_c, 0, 60, 69
1, 1119194, Note_on_c, 0, 68, 91
1, 1119197, Note_on_c, 0, 80, 81
1, 1119199, Note_on_c, 0, 72, 78
1, 1119203, Control_c, 0, 64, 108
1, 1119204, Note_on_c, 0, 77, 76
1, 1119221, Note_on_c, 0, 65, 98
1, 1119223, Control_c, 0, 64, 44
1, 1119233, Note_off_c, 0, 80, 65
1, 1119235, Note_off_c, 0, 72, 67
1, 1119236, Note_off_c, 0, 77, 67
1, 1119236, Poly_aftertouch_c, 0, 77, 0
1, 1119242, Control_c, 0, 64, 0
1, 1119251, Note_off_c, 0, 68, 65
1, 1119251, Poly_aftertouch_c, 0, 52, 0
1, 1119251, Poly_aftertouch_c, 0, 68, 0
1, 1119254, Note_off_c, 0, 65, 64
1, 1119265, Note_off_c, 0, 60, 65
1, 1119265, Poly_aftertouch_c, 0, 60, 0
1, 1119268, Note_off_c, 0, 56, 64
1, 1119268, Poly_aftertouch_c, 0, 56, 0
1, 1119488, Note_on_c, 0, 48, 110
1, 1119488, Note_on_c, 0, 60, 100
1, 1119496, Note_on_c, 0, 36, 93
1, 1119522, Control_c, 0, 64, 92
1, 1119524, Note_off_c, 0, 36, 71
1, 1119532, Note_off_c, 0, 48, 69
1, 1119533, Note_off_c, 0, 60, 67
1, 1119533, Poly_aftertouch_c, 0, 60, 0
1, 1119541, Control_c, 0, 64, 127
1, 1119657, Poly_aftertouch_c, 0, 38, 0
1, 1119836, Note_on_c, 0, 52, 73
1, 1119849, Note_on_c, 0, 55, 57
1, 1119849, Note_on_c, 0, 60, 78
1, 1119857, Note_on_c, 0, 64, 88
1, 1119863, Note_on_c, 0, 70, 95
1, 1119863, Note_on_c, 0, 79, 91
1, 1119864, Note_on_c, 0, 67, 97
1, 1119866, Note_on_c, 0, 76, 87
1, 1119881, Control_c, 0, 64, 110
1, 1119885, Note_off_c, 0, 64, 73
1, 1119893, Note_off_c, 0, 60, 60
1, 1119893, Poly_aftertouch_c, 0, 60, 0
1, 1119900, Control_c, 0, 64, 51
1, 1119909, Note_off_c, 0, 67, 67
1, 1119913, Note_off_c, 0, 52, 63
1, 1119918, Note_off_c, 0, 55, 65
1, 1119918, Poly_aftertouch_c, 0, 55, 0
1, 1119918, Control_c, 0, 64, 0
1, 1119919, Note_off_c, 0, 79, 65
1, 1119919, Poly_aftertouch_c, 0, 79, 0
1, 1119921, Note_off_c, 0, 70, 70
1, 1119921, Poly_aftertouch_c, 0, 70, 0
1, 1119922, Note_off_c, 0, 76, 65
1, 1120157, Note_on_c, 0, 41, 60
1, 1120195, Note_on_c, 0, 48, 74
1, 1120202, Note_on_c, 0, 77, 95
1, 1120203, Note_on_c, 0, 65, 97
1, 1120203, Note_on_c, 0, 68, 91
1, 1120204, Note_on_c, 0, 72, 82
1, 1120205, Note_off_c, 0, 41, 61
1, 1120205, Poly_aftertouch_c, 0, 41, 0
1, 1120206, Note_on_c, 0, 56, 97
1, 1120224, Note_on_c, 0, 43, 34
1, 1120229, Note_off_c, 0, 43, 127
1, 1120233, Control_c, 0, 64, 42
1, 1120245, Note_off_c, 0, 65, 64
1, 1120248, Note_off_c, 0, 72, 63
1, 1120250, Note_off_c, 0, 56, 66
1, 1120250, Poly_aftertouch_c, 0, 56, 0
1, 1120250, Control_c, 0, 64, 127
1, 1120255, Note_off_c, 0, 48, 63
1, 1120258, Note_off_c, 0, 77, 64
1, 1120258, Poly_aftertouch_c, 0, 77, 0
1, 1120260, Note_off_c, 0, 68, 67
1, 1120260, Poly_aftertouch_c, 0, 68, 0
1, 1120280, Poly_aftertouch_c, 0, 43, 0
1, 1120299, Poly_aftertouch_c, 0, 46, 0
1, 1120323, Poly_aftertouch_c, 0, 44, 0
1, 1120326, Control_c, 0, 64, 90
1, 1120345, Control_c, 0, 64, 41
1, 1120363, Control_c, 0, 64, 0
1, 1120597, Note_on_c, 0, 73, 78
1, 1120597, Note_on_c, 0, 65, 84
1, 1120598, Note_on_c, 0, 70, 80
1, 1120600, Note_on_c, 0, 77, 79
1, 1120610, Note_on_c, 0, 53, 79
1, 1120615, Note_on_c, 0, 46, 71
1, 1120640, Note_off_c, 0, 65, 64
1, 1120641, Note_off_c, 0, 77, 60
1, 1120641, Poly_aftertouch_c, 0, 77, 0
1, 1120646, Note_off_c, 0, 73, 61
1, 1120646, Poly_aftertouch_c, 0, 73, 0
1, 1120652, Note_off_c, 0, 53, 66
1, 1120652, Poly_aftertouch_c, 0, 53, 0
1, 1120653, Note_off_c, 0, 70, 58
1, 1120653, Poly_aftertouch_c, 0, 70, 0
1, 1120656, Note_off_c, 0, 46, 68
1, 1120852, Note_on_c, 0, 65, 92
1, 1120852, Note_on_c, 0, 77, 88
1, 1120853, Note_on_c, 0, 68, 86
1, 1120854, Note_on_c, 0, 72, 78
1, 1120855, Note_on_c, 0, 53, 98
1, 1120858, Note_on_c, 0, 41, 93
1, 1120879, Control_c, 0, 64, 97
1, 1120885, Note_off_c, 0, 77, 72
1, 1120885, Note_off_c, 0, 72, 68
1, 1120885, Poly_aftertouch_c, 0, 77, 0
1, 1120889, Control_c, 0, 64, 127
1, 1120898, Note_off_c, 0, 53, 62
1, 1120898, Poly_aftertouch_c, 0, 53, 0
1, 1120906, Note_off_c, 0, 65, 65
1, 1120907, Note_off_c, 0, 68, 65
1, 1120907, Poly_aftertouch_c, 0, 68, 0
1, 1120913, Note_off_c, 0, 41, 63
1, 1120913, Poly_aftertouch_c, 0, 41, 0
1, 1120980, Control_c, 0, 64, 84
1, 1120995, Poly_aftertouch_c, 0, 44, 0
1, 1121000, Control_c, 0, 64, 33
1, 1121018, Control_c, 0, 64, 0
1, 1121019, Control_c, 0, 67, 8
1, 1121234, Note_on_c, 0, 65, 80
1, 1121236, Note_on_c, 0, 41, 77
1, 1121237, Note_on_c, 0, 53, 81
1, 1121238, Note_on_c, 0, 34, 72
1, 1121239, Note_on_c, 0, 61, 73
1, 1121242, Note_on_c, 0, 58, 72
1, 1121280, Note_off_c, 0, 41, 65
1, 1121280, Poly_aftertouch_c, 0, 41, 0
1, 1121283, Note_off_c, 0, 58, 67
1, 1121283, Note_off_c, 0, 53, 62
1, 1121283, Poly_aftertouch_c, 0, 53, 0
1, 1121287, Note_off_c, 0, 61, 57
1, 1121287, Poly_aftertouch_c, 0, 61, 0
1, 1121289, Note_off_c, 0, 34, 63
1, 1121300, Note_off_c, 0, 65, 61
1, 1121485, Control_c, 0, 67, 0
1, 1121500, Note_on_c, 0, 53, 99
1, 1121501, Note_on_c, 0, 65, 93
1, 1121502, Note_on_c, 0, 41, 103
1, 1121503, Control_c, 0, 64, 121
1, 1121505, Note_on_c, 0, 56, 92
1, 1121505, Note_on_c, 0, 60, 88
1, 1121507, Note_on_c, 0, 29, 95
1, 1121531, Control_c, 0, 64, 127
1, 1121552, Note_off_c, 0, 53, 63
1, 1121552, Poly_aftertouch_c, 0, 53, 0
1, 1121557, Note_off_c, 0, 29, 63
1, 1121557, Poly_aftertouch_c, 0, 29, 0
1, 1121561, Note_off_c, 0, 41, 63
1, 1121561, Poly_aftertouch_c, 0, 41, 0
1, 1121570, Note_off_c, 0, 65, 65
1, 1121570, Note_on_c, 0, 32, 18
1, 1121571, Note_off_c, 0, 60, 65
1, 1121571, Poly_aftertouch_c, 0, 60, 0
1, 1121580, Note_off_c, 0, 56, 65
1, 1121580, Poly_aftertouch_c, 0, 56, 0
1, 1121616, Control_c, 0, 64, 91
1, 1121622, Poly_aftertouch_c, 0, 61, 127
1, 1121633, Note_off_c, 0, 32, 37
1, 1121634, Control_c, 0, 64, 36
1, 1121640, Poly_aftertouch_c, 0, 37, 0
1, 1121643, Poly_aftertouch_c, 0, 61, 0
1, 1121651, Control_c, 0, 64, 0
1, 1122161, Note_on_c, 0, 53, 101
1, 1122162, Note_on_c, 0, 65, 92
1, 1122164, Note_on_c, 0, 56, 95
1, 1122164, Note_on_c, 0, 41, 108
1, 1122165, Note_on_c, 0, 60, 87
1, 1122170, Note_on_c, 0, 29, 98
1, 1122196, Control_c, 0, 64, 127
1, 1122204, Note_off_c, 0, 29, 68
1, 1122204, Poly_aftertouch_c, 0, 29, 0
1, 1122221, Note_off_c, 0, 41, 66
1, 1122221, Poly_aftertouch_c, 0, 41, 0
1, 1122224, Note_off_c, 0, 53, 62
1, 1122224, Poly_aftertouch_c, 0, 53, 0
1, 1122234, Note_off_c, 0, 60, 66
1, 1122234, Poly_aftertouch_c, 0, 60, 0
1, 1122237, Note_off_c, 0, 65, 60
1, 1122258, Note_off_c, 0, 56, 62
1, 1122258, Poly_aftertouch_c, 0, 56, 0
1, 1122318, Poly_aftertouch_c, 0, 32, 0
1, 1122366, Control_c, 0, 64, 108
1, 1122382, Control_c, 0, 64, 78
1, 1122402, Control_c, 0, 64, 52
1, 1122420, Control_c, 0, 64, 9
1, 1122438, Control_c, 0, 64, 0
1, 1122981, Control_c, 0, 67, 8
1, 1123074, Control_c, 0, 67, 12
1, 1123130, Control_c, 0, 67, 18
1, 1123150, Control_c, 0, 67, 22
1, 1123168, Control_c, 0, 67, 28
1, 1123187, Control_c, 0, 67, 34
1, 1123205, Control_c, 0, 67, 42
1, 1123224, Control_c, 0, 67, 50
1, 1123243, Control_c, 0, 67, 60
1, 1123261, Control_c, 0, 67, 73
1, 1123281, Control_c, 0, 67, 92
1, 1123299, Control_c, 0, 67, 114
1, 1123318, Control_c, 0, 67, 127
1, 1123804, Control_c, 0, 64, 13
1, 1123822, Control_c, 0, 64, 27
1, 1123841, Control_c, 0, 64, 39
1, 1123860, Control_c, 0, 64, 50
1, 1123878, Control_c, 0, 64, 59
1, 1123898, Control_c, 0, 64, 64
1, 1123916, Control_c, 0, 64, 67
1, 1123935, Control_c, 0, 64, 69
1, 1123954, Control_c, 0, 64, 72
1, 1123973, Control_c, 0, 64, 75
1, 1123990, Control_c, 0, 64, 79
1, 1124011, Control_c, 0, 64, 83
1, 1124028, Control_c, 0, 64, 88
1, 1124047, Control_c, 0, 64, 93
1, 1124066, Control_c, 0, 64, 99
1, 1124084, Control_c, 0, 64, 105
1, 1124104, Control_c, 0, 64, 110
1, 1124121, Control_c, 0, 64, 114
1, 1124139, Note_on_c, 0, 65, 46
1, 1124146, Note_on_c, 0, 61, 37
1, 1124158, Control_c, 0, 64, 121
1, 1124161, Note_on_c, 0, 49, 31
1, 1124168, Note_on_c, 0, 37, 36
1, 1124178, Control_c, 0, 64, 125
1, 1124179, Note_on_c, 0, 53, 24
1, 1124179, Note_on_c, 0, 56, 24
1, 1124233, Control_c, 0, 67, 123
1, 1124346, Control_c, 0, 67, 119
1, 1124363, Note_off_c, 0, 61, 48
1, 1124366, Note_off_c, 0, 56, 50
1, 1124366, Poly_aftertouch_c, 0, 56, 0
1, 1124398, Note_off_c, 0, 53, 47
1, 1124398, Poly_aftertouch_c, 0, 53, 0
1, 1124493, Note_off_c, 0, 65, 60
1, 1124548, Note_off_c, 0, 37, 28
1, 1124666, Note_off_c, 0, 49, 32
1, 1124666, Poly_aftertouch_c, 0, 49, 0
1, 1124682, Control_c, 0, 67, 115
1, 1124757, Control_c, 0, 67, 111
1, 1124868, Note_on_c, 0, 68, 53
1, 1124890, Note_on_c, 0, 63, 44
1, 1124921, Note_on_c, 0, 56, 36
1, 1124927, Note_on_c, 0, 36, 35
1, 1124930, Note_on_c, 0, 48, 31
1, 1125075, Control_c, 0, 64, 117
1, 1125093, Control_c, 0, 64, 106
1, 1125113, Control_c, 0, 64, 96
1, 1125130, Control_c, 0, 64, 84
1, 1125150, Control_c, 0, 64, 72
1, 1125170, Control_c, 0, 64, 60
1, 1125188, Control_c, 0, 64, 48
1, 1125206, Control_c, 0, 64, 24
1, 1125224, Control_c, 0, 64, 0
1, 1125300, Control_c, 0, 64, 16
1, 1125318, Control_c, 0, 64, 25
1, 1125337, Control_c, 0, 64, 38
1, 1125355, Control_c, 0, 64, 53
1, 1125375, Control_c, 0, 64, 67
1, 1125393, Control_c, 0, 64, 75
1, 1125412, Control_c, 0, 64, 80
1, 1125431, Control_c, 0, 64, 84
1, 1125449, Control_c, 0, 64, 89
1, 1125468, Control_c, 0, 64, 96
1, 1125487, Control_c, 0, 64, 105
1, 1125506, Control_c, 0, 64, 113
1, 1125524, Control_c, 0, 64, 120
1, 1125544, Control_c, 0, 64, 126
1, 1125629, Note_off_c, 0, 56, 38
1, 1125629, Poly_aftertouch_c, 0, 56, 0
1, 1125638, Note_off_c, 0, 48, 36
1, 1125659, Note_off_c, 0, 36, 52
1, 1125672, Note_off_c, 0, 68, 58
1, 1125672, Poly_aftertouch_c, 0, 68, 0
1, 1125678, Note_off_c, 0, 63, 49
1, 1126030, Note_on_c, 0, 70, 56
1, 1126049, Note_on_c, 0, 66, 44
1, 1126068, Note_on_c, 0, 58, 35
1, 1126077, Note_on_c, 0, 34, 39
1, 1126082, Note_on_c, 0, 46, 36
1, 1126123, Control_c, 0, 64, 102
1, 1126140, Control_c, 0, 64, 80
1, 1126160, Control_c, 0, 64, 65
1, 1126179, Control_c, 0, 64, 63
1, 1126180, Control_c, 0, 67, 115
1, 1126197, Control_c, 0, 64, 70
1, 1126216, Control_c, 0, 64, 78
1, 1126234, Control_c, 0, 64, 89
1, 1126245, Note_off_c, 0, 46, 60
1, 1126252, Note_off_c, 0, 58, 60
1, 1126253, Control_c, 0, 64, 106
1, 1126273, Note_off_c, 0, 70, 58
1, 1126273, Poly_aftertouch_c, 0, 70, 0
1, 1126273, Control_c, 0, 64, 126
1, 1126285, Note_off_c, 0, 34, 50
1, 1126295, Note_off_c, 0, 66, 47
1, 1126417, Note_on_c, 0, 72, 69
1, 1126422, Note_on_c, 0, 68, 58
1, 1126432, Note_on_c, 0, 60, 53
1, 1126446, Note_on_c, 0, 44, 51
1, 1126461, Note_on_c, 0, 32, 45
1, 1126479, Note_off_c, 0, 60, 62
1, 1126479, Poly_aftertouch_c, 0, 60, 0
1, 1126496, Control_c, 0, 67, 122
1, 1126498, Note_off_c, 0, 68, 54
1, 1126498, Poly_aftertouch_c, 0, 68, 0
1, 1126501, Note_off_c, 0, 72, 59
1, 1126508, Note_off_c, 0, 44, 56
1, 1126523, Note_off_c, 0, 32, 54
1, 1126534, Control_c, 0, 67, 126
1, 1126692, Note_on_c, 0, 73, 72
1, 1126698, Note_on_c, 0, 70, 60
1, 1126703, Control_c, 0, 64, 118
1, 1126711, Note_on_c, 0, 61, 48
1, 1126721, Control_c, 0, 64, 109
1, 1126731, Note_on_c, 0, 42, 45
1, 1126738, Control_c, 0, 64, 97
1, 1126743, Note_on_c, 0, 30, 44
1, 1126758, Control_c, 0, 64, 81
1, 1126778, Control_c, 0, 64, 60
1, 1126796, Control_c, 0, 64, 18
1, 1126815, Control_c, 0, 64, 0
1, 1126907, Control_c, 0, 64, 28
1, 1126912, Note_off_c, 0, 70, 54
1, 1126912, Poly_aftertouch_c, 0, 70, 0
1, 1126928, Control_c, 0, 64, 53
1, 1126936, Note_off_c, 0, 61, 63
1, 1126945, Control_c, 0, 64, 78
1, 1126963, Control_c, 0, 64, 99
1, 1126975, Note_off_c, 0, 73, 62
1, 1126975, Poly_aftertouch_c, 0, 73, 0
1, 1126981, Control_c, 0, 64, 122
1, 1127002, Control_c, 0, 64, 127
1, 1127069, Note_on_c, 0, 70, 63
1, 1127075, Note_on_c, 0, 66, 61
1, 1127081, Note_on_c, 0, 58, 57
1, 1127113, Note_off_c, 0, 70, 57
1, 1127113, Poly_aftertouch_c, 0, 70, 0
1, 1127121, Note_off_c, 0, 66, 60
1, 1127126, Note_off_c, 0, 58, 64
1, 1127345, Note_on_c, 0, 66, 57
1, 1127355, Note_on_c, 0, 54, 44
1, 1127358, Note_on_c, 0, 63, 48
1, 1127394, Control_c, 0, 64, 115
1, 1127413, Control_c, 0, 64, 90
1, 1127431, Control_c, 0, 64, 65
1, 1127450, Control_c, 0, 64, 55
1, 1127469, Control_c, 0, 64, 62
1, 1127488, Control_c, 0, 64, 75
1, 1127501, Note_off_c, 0, 63, 55
1, 1127506, Control_c, 0, 64, 90
1, 1127525, Control_c, 0, 64, 108
1, 1127543, Control_c, 0, 64, 127
1, 1127560, Note_off_c, 0, 42, 61
1, 1127569, Note_off_c, 0, 30, 59
1, 1127576, Note_off_c, 0, 66, 55
1, 1127578, Note_off_c, 0, 54, 60
1, 1127731, Note_on_c, 0, 65, 54
1, 1127748, Note_on_c, 0, 31, 43
1, 1127748, Control_c, 0, 64, 119
1, 1127751, Note_on_c, 0, 43, 44
1, 1127759, Note_on_c, 0, 53, 29
1, 1127760, Note_on_c, 0, 61, 47
1, 1127767, Control_c, 0, 64, 96
1, 1127787, Control_c, 0, 64, 70
1, 1127805, Control_c, 0, 64, 51
1, 1127822, Note_off_c, 0, 43, 56
1, 1127837, Note_off_c, 0, 61, 53
1, 1127841, Control_c, 0, 64, 59
1, 1127848, Note_off_c, 0, 53, 36
1, 1127848, Poly_aftertouch_c, 0, 53, 0
1, 1127861, Control_c, 0, 64, 71
1, 1127868, Note_off_c, 0, 65, 57
1, 1127880, Control_c, 0, 64, 81
1, 1127898, Control_c, 0, 64, 92
1, 1127917, Control_c, 0, 64, 106
1, 1127937, Control_c, 0, 64, 116
1, 1127954, Control_c, 0, 64, 123
1, 1128038, Note_on_c, 0, 65, 52
1, 1128061, Note_on_c, 0, 61, 40
1, 1128065, Control_c, 0, 64, 118
1, 1128070, Note_on_c, 0, 53, 24
1, 1128095, Note_on_c, 0, 44, 34
1, 1128103, Control_c, 0, 64, 112
1, 1128122, Note_on_c, 0, 32, 30
1, 1128123, Control_c, 0, 64, 107
1, 1128140, Note_off_c, 0, 31, 30
1, 1128141, Control_c, 0, 64, 101
1, 1128160, Control_c, 0, 64, 95
1, 1128179, Control_c, 0, 64, 85
1, 1128199, Control_c, 0, 64, 71
1, 1128216, Control_c, 0, 64, 54
1, 1128236, Control_c, 0, 64, 28
1, 1128254, Control_c, 0, 64, 0
1, 1128310, Control_c, 0, 64, 11
1, 1128329, Control_c, 0, 64, 32
1, 1128348, Control_c, 0, 64, 53
1, 1128366, Control_c, 0, 64, 72
1, 1128376, Note_off_c, 0, 61, 57
1, 1128384, Control_c, 0, 64, 84
1, 1128403, Control_c, 0, 64, 97
1, 1128419, Note_off_c, 0, 53, 56
1, 1128419, Poly_aftertouch_c, 0, 53, 0
1, 1128421, Control_c, 0, 64, 110
1, 1128423, Note_off_c, 0, 65, 56
1, 1128441, Control_c, 0, 64, 120
1, 1128460, Control_c, 0, 64, 125
1, 1128791, Note_on_c, 0, 60, 29
1, 1128809, Note_on_c, 0, 63, 38
1, 1128811, Note_on_c, 0, 51, 24
1, 1128814, Control_c, 0, 64, 121
1, 1128853, Control_c, 0, 64, 116
1, 1128890, Control_c, 0, 64, 109
1, 1128908, Control_c, 0, 64, 105
1, 1128928, Control_c, 0, 64, 97
1, 1128946, Control_c, 0, 64, 84
1, 1128965, Control_c, 0, 64, 67
1, 1128984, Control_c, 0, 64, 47
1, 1129002, Control_c, 0, 64, 21
1, 1129021, Control_c, 0, 64, 17
1, 1129039, Control_c, 0, 64, 34
1, 1129059, Control_c, 0, 64, 53
1, 1129072, Note_off_c, 0, 60, 35
1, 1129072, Poly_aftertouch_c, 0, 60, 0
1, 1129076, Control_c, 0, 64, 70
1, 1129095, Control_c, 0, 64, 85
1, 1129110, Note_off_c, 0, 32, 52
1, 1129112, Control_c, 0, 64, 101
1, 1129129, Note_off_c, 0, 63, 58
1, 1129129, Note_off_c, 0, 51, 54
1, 1129133, Control_c, 0, 64, 118
1, 1129152, Control_c, 0, 64, 127
1, 1129161, Note_off_c, 0, 44, 46
1, 1129168, Control_c, 0, 67, 121
1, 1129208, Control_c, 0, 67, 116
1, 1129244, Control_c, 0, 67, 111
1, 1129282, Control_c, 0, 67, 107
1, 1129320, Control_c, 0, 64, 119
1, 1129321, Control_c, 0, 67, 102
1, 1129339, Control_c, 0, 64, 109
1, 1129357, Control_c, 0, 64, 96
1, 1129357, Control_c, 0, 67, 96
1, 1129375, Control_c, 0, 64, 82
1, 1129395, Control_c, 0, 64, 67
1, 1129399, Control_c, 0, 67, 89
1, 1129414, Control_c, 0, 64, 55
1, 1129414, Control_c, 0, 67, 85
1, 1129432, Control_c, 0, 64, 41
1, 1129433, Control_c, 0, 67, 80
1, 1129451, Control_c, 0, 64, 0
1, 1129453, Control_c, 0, 67, 76
1, 1129469, Control_c, 0, 67, 72
1, 1129487, Note_on_c, 0, 65, 54
1, 1129500, Note_on_c, 0, 61, 42
1, 1129505, Control_c, 0, 67, 65
1, 1129526, Control_c, 0, 67, 61
1, 1129539, Note_on_c, 0, 49, 34
1, 1129546, Note_on_c, 0, 37, 35
1, 1129548, Note_on_c, 0, 56, 20
1, 1129554, Note_on_c, 0, 53, 21
1, 1129562, Control_c, 0, 67, 55
1, 1129600, Control_c, 0, 67, 49
1, 1129637, Control_c, 0, 64, 8
1, 1129639, Control_c, 0, 67, 43
1, 1129656, Control_c, 0, 64, 30
1, 1129676, Control_c, 0, 64, 49
1, 1129677, Control_c, 0, 67, 36
1, 1129693, Control_c, 0, 64, 67
1, 1129693, Control_c, 0, 67, 30
1, 1129713, Control_c, 0, 64, 79
1, 1129715, Control_c, 0, 67, 25
1, 1129731, Note_off_c, 0, 53, 50
1, 1129731, Poly_aftertouch_c, 0, 53, 0
1, 1129732, Control_c, 0, 64, 92
1, 1129735, Control_c, 0, 67, 18
1, 1129742, Note_off_c, 0, 56, 48
1, 1129742, Poly_aftertouch_c, 0, 56, 0
1, 1129751, Control_c, 0, 64, 106
1, 1129751, Control_c, 0, 67, 13
1, 1129769, Control_c, 0, 64, 119
1, 1129770, Control_c, 0, 67, 8
1, 1129787, Control_c, 0, 64, 127
1, 1129802, Note_off_c, 0, 65, 61
1, 1129815, Note_off_c, 0, 61, 61
1, 1129918, Control_c, 0, 67, 0
1, 1130000, Note_off_c, 0, 37, 39
1, 1130019, Note_off_c, 0, 49, 36
1, 1130019, Poly_aftertouch_c, 0, 49, 0
1, 1130219, Note_on_c, 0, 68, 51
1, 1130260, Note_on_c, 0, 63, 34
1, 1130264, Note_on_c, 0, 48, 31
1, 1130274, Note_on_c, 0, 36, 32
1, 1130278, Note_on_c, 0, 56, 18
1, 1130387, Control_c, 0, 64, 117
1, 1130404, Control_c, 0, 64, 103
1, 1130423, Control_c, 0, 64, 87
1, 1130441, Control_c, 0, 64, 69
1, 1130461, Control_c, 0, 64, 54
1, 1130479, Control_c, 0, 64, 39
1, 1130497, Control_c, 0, 64, 33
1, 1130516, Control_c, 0, 64, 40
1, 1130535, Control_c, 0, 64, 51
1, 1130554, Control_c, 0, 64, 62
1, 1130572, Control_c, 0, 64, 75
1, 1130592, Control_c, 0, 64, 89
1, 1130610, Control_c, 0, 64, 109
1, 1130629, Control_c, 0, 64, 127
1, 1130729, Note_off_c, 0, 56, 39
1, 1130729, Poly_aftertouch_c, 0, 56, 0
1, 1130848, Note_off_c, 0, 63, 42
1, 1130931, Note_off_c, 0, 68, 60
1, 1130931, Poly_aftertouch_c, 0, 68, 0
1, 1131033, Note_off_c, 0, 48, 38
1, 1131106, Note_off_c, 0, 36, 39
1, 1131432, Control_c, 0, 64, 122
1, 1131439, Note_on_c, 0, 73, 58
1, 1131451, Control_c, 0, 64, 97
1, 1131470, Control_c, 0, 64, 77
1, 1131473, Note_on_c, 0, 61, 29
1, 1131483, Note_on_c, 0, 70, 30
1, 1131488, Control_c, 0, 64, 67
1, 1131492, Note_on_c, 0, 46, 29
1, 1131499, Note_on_c, 0, 34, 31
1, 1131506, Control_c, 0, 64, 68
1, 1131525, Control_c, 0, 64, 73
1, 1131545, Control_c, 0, 64, 79
1, 1131564, Control_c, 0, 64, 86
1, 1131582, Control_c, 0, 64, 97
1, 1131601, Control_c, 0, 64, 117
1, 1131619, Note_off_c, 0, 46, 58
1, 1131619, Control_c, 0, 64, 127
1, 1131638, Note_off_c, 0, 70, 30
1, 1131638, Poly_aftertouch_c, 0, 70, 0
1, 1131643, Note_off_c, 0, 61, 36
1, 1131648, Note_off_c, 0, 73, 58
1, 1131648, Poly_aftertouch_c, 0, 73, 0
1, 1131692, Note_off_c, 0, 34, 39
1, 1131826, Note_on_c, 0, 75, 74
1, 1131843, Note_on_c, 0, 72, 49
1, 1131855, Note_on_c, 0, 63, 43
1, 1131856, Note_on_c, 0, 42, 47
1, 1131869, Note_on_c, 0, 70, 35
1, 1131871, Note_on_c, 0, 30, 47
1, 1131902, Note_off_c, 0, 72, 58
1, 1131904, Note_off_c, 0, 63, 59
1, 1131914, Note_off_c, 0, 70, 55
1, 1131914, Poly_aftertouch_c, 0, 70, 0
1, 1131943, Note_off_c, 0, 42, 46
1, 1131960, Note_off_c, 0, 75, 62
1, 1132009, Note_off_c, 0, 30, 38
1, 1132116, Note_on_c, 0, 77, 75
1, 1132132, Note_on_c, 0, 73, 57
1, 1132168, Note_on_c, 0, 29, 47
1, 1132179, Note_on_c, 0, 68, 32
1, 1132185, Note_on_c, 0, 41, 39
1, 1132191, Note_on_c, 0, 65, 35
1, 1132198, Control_c, 0, 64, 103
1, 1132219, Control_c, 0, 64, 75
1, 1132237, Control_c, 0, 64, 50
1, 1132255, Control_c, 0, 64, 26
1, 1132294, Control_c, 0, 64, 38
1, 1132309, Note_off_c, 0, 65, 43
1, 1132311, Control_c, 0, 64, 54
1, 1132321, Note_off_c, 0, 77, 58
1, 1132321, Poly_aftertouch_c, 0, 77, 0
1, 1132329, Control_c, 0, 64, 71
1, 1132350, Control_c, 0, 64, 90
1, 1132369, Control_c, 0, 64, 122
1, 1132386, Control_c, 0, 64, 127
1, 1132392, Note_off_c, 0, 73, 62
1, 1132392, Poly_aftertouch_c, 0, 73, 0
1, 1132475, Note_off_c, 0, 41, 52
1, 1132475, Poly_aftertouch_c, 0, 41, 0
1, 1132520, Note_on_c, 0, 73, 69
1, 1132527, Note_off_c, 0, 68, 49
1, 1132527, Poly_aftertouch_c, 0, 68, 0
1, 1132539, Note_on_c, 0, 61, 52
1, 1132581, Note_off_c, 0, 61, 62
1, 1132588, Note_off_c, 0, 73, 55
1, 1132588, Poly_aftertouch_c, 0, 73, 0
1, 1132769, Note_on_c, 0, 70, 56
1, 1132778, Note_off_c, 0, 29, 39
1, 1132778, Poly_aftertouch_c, 0, 29, 0
1, 1132779, Note_on_c, 0, 66, 52
1, 1132779, Control_c, 0, 64, 122
1, 1132793, Note_on_c, 0, 42, 39
1, 1132797, Control_c, 0, 64, 92
1, 1132801, Note_on_c, 0, 30, 38
1, 1132808, Note_on_c, 0, 58, 32
1, 1132816, Control_c, 0, 64, 67
1, 1132836, Control_c, 0, 64, 53
1, 1132873, Control_c, 0, 64, 64
1, 1132891, Control_c, 0, 64, 74
1, 1132910, Control_c, 0, 64, 88
1, 1132928, Control_c, 0, 64, 109
1, 1132930, Note_off_c, 0, 70, 65
1, 1132930, Poly_aftertouch_c, 0, 70, 0
1, 1132941, Note_off_c, 0, 66, 63
1, 1132946, Control_c, 0, 64, 127
1, 1132954, Note_off_c, 0, 58, 55
1, 1133138, Note_off_c, 0, 30, 42
1, 1133174, Note_on_c, 0, 66, 55
1, 1133187, Note_on_c, 0, 63, 48
1, 1133203, Note_on_c, 0, 54, 31
1, 1133216, Note_off_c, 0, 42, 38
1, 1133262, Note_off_c, 0, 63, 53
1, 1133276, Note_off_c, 0, 66, 59
1, 1133299, Note_off_c, 0, 54, 48
1, 1133434, Control_c, 0, 64, 123
1, 1133449, Note_on_c, 0, 65, 51
1, 1133450, Control_c, 0, 64, 118
1, 1133471, Control_c, 0, 64, 112
1, 1133479, Note_on_c, 0, 53, 27
1, 1133481, Note_on_c, 0, 43, 32
1, 1133483, Note_on_c, 0, 31, 32
1, 1133486, Note_on_c, 0, 61, 43
1, 1133489, Control_c, 0, 64, 104
1, 1133508, Control_c, 0, 64, 92
1, 1133528, Control_c, 0, 64, 74
1, 1133546, Control_c, 0, 64, 46
1, 1133564, Control_c, 0, 64, 0
1, 1133676, Control_c, 0, 64, 28
1, 1133696, Control_c, 0, 64, 56
1, 1133714, Control_c, 0, 64, 81
1, 1133733, Control_c, 0, 64, 107
1, 1133751, Control_c, 0, 64, 127
1, 1133752, Note_off_c, 0, 61, 60
1, 1133788, Note_off_c, 0, 43, 43
1, 1133802, Note_off_c, 0, 53, 54
1, 1133802, Poly_aftertouch_c, 0, 53, 0
1, 1133820, Note_off_c, 0, 31, 47
1, 1133855, Note_off_c, 0, 65, 59
1, 1134228, Note_on_c, 0, 60, 29
1, 1134244, Note_on_c, 0, 63, 33
1, 1134245, Note_on_c, 0, 44, 31
1, 1134268, Note_on_c, 0, 51, 27
1, 1134275, Note_on_c, 0, 32, 31
1, 1134314, Control_c, 0, 64, 122
1, 1134331, Control_c, 0, 64, 110
1, 1134349, Control_c, 0, 64, 95
1, 1134370, Control_c, 0, 64, 76
1, 1134388, Control_c, 0, 64, 54
1, 1134405, Control_c, 0, 64, 18
1, 1134425, Control_c, 0, 64, 0
1, 1134461, Control_c, 0, 64, 8
1, 1134480, Control_c, 0, 64, 37
1, 1134500, Control_c, 0, 64, 56
1, 1134518, Control_c, 0, 64, 73
1, 1134537, Control_c, 0, 64, 86
1, 1134555, Control_c, 0, 64, 100
1, 1134558, Note_off_c, 0, 60, 34
1, 1134558, Poly_aftertouch_c, 0, 60, 0
1, 1134568, Note_off_c, 0, 51, 49
1, 1134573, Control_c, 0, 64, 113
1, 1134593, Control_c, 0, 64, 121
1, 1134600, Note_off_c, 0, 44, 52
1, 1134632, Note_off_c, 0, 63, 51
1, 1134668, Control_c, 0, 67, 8
1, 1134671, Note_off_c, 0, 32, 41
1, 1134686, Control_c, 0, 64, 116
1, 1134724, Control_c, 0, 64, 107
1, 1134726, Control_c, 0, 67, 13
1, 1134743, Control_c, 0, 64, 101
1, 1134761, Control_c, 0, 64, 97
1, 1134762, Control_c, 0, 67, 20
1, 1134780, Control_c, 0, 67, 25
1, 1134800, Control_c, 0, 64, 90
1, 1134801, Control_c, 0, 67, 31
1, 1134818, Control_c, 0, 64, 86
1, 1134820, Control_c, 0, 67, 35
1, 1134836, Control_c, 0, 64, 82
1, 1134837, Control_c, 0, 67, 39
1, 1134857, Control_c, 0, 64, 78
1, 1134860, Control_c, 0, 67, 43
1, 1134874, Control_c, 0, 64, 74
1, 1134875, Control_c, 0, 67, 48
1, 1134892, Control_c, 0, 64, 70
1, 1134911, Control_c, 0, 64, 66
1, 1134912, Control_c, 0, 67, 54
1, 1134929, Control_c, 0, 64, 63
1, 1134948, Control_c, 0, 64, 58
1, 1134950, Control_c, 0, 67, 60
1, 1134961, Note_on_c, 0, 63, 43
1, 1134965, Control_c, 0, 64, 50
1, 1134966, Control_c, 0, 67, 64
1, 1134985, Control_c, 0, 64, 35
1, 1134988, Note_on_c, 0, 54, 27
1, 1134995, Note_on_c, 0, 27, 39
1, 1135000, Note_on_c, 0, 58, 31
1, 1135004, Control_c, 0, 64, 0
1, 1135005, Control_c, 0, 67, 69
1, 1135014, Note_on_c, 0, 39, 26
1, 1135059, Note_off_c, 0, 27, 58
1, 1135065, Note_off_c, 0, 39, 52
1, 1135116, Control_c, 0, 64, 16
1, 1135135, Control_c, 0, 64, 31
1, 1135154, Control_c, 0, 64, 46
1, 1135173, Control_c, 0, 64, 59
1, 1135190, Note_on_c, 0, 39, 45
1, 1135192, Control_c, 0, 64, 68
1, 1135194, Note_on_c, 0, 27, 47
1, 1135209, Control_c, 0, 64, 74
1, 1135229, Control_c, 0, 64, 78
1, 1135236, Note_off_c, 0, 39, 57
1, 1135243, Note_off_c, 0, 27, 60
1, 1135246, Control_c, 0, 64, 82
1, 1135266, Control_c, 0, 64, 86
1, 1135285, Control_c, 0, 64, 91
1, 1135323, Control_c, 0, 64, 97
1, 1135361, Control_c, 0, 64, 102
1, 1135385, Note_on_c, 0, 39, 44
1, 1135386, Note_on_c, 0, 27, 48
1, 1135397, Control_c, 0, 67, 65
1, 1135427, Note_off_c, 0, 63, 49
1, 1135430, Note_off_c, 0, 58, 38
1, 1135454, Control_c, 0, 67, 61
1, 1135455, Note_off_c, 0, 27, 56
1, 1135463, Note_off_c, 0, 39, 48
1, 1135491, Control_c, 0, 67, 55
1, 1135528, Control_c, 0, 67, 48
1, 1135565, Control_c, 0, 67, 42
1, 1135604, Control_c, 0, 67, 36
1, 1135640, Control_c, 0, 67, 31
1, 1135650, Note_on_c, 0, 63, 41
1, 1135659, Note_on_c, 0, 66, 51
1, 1135677, Control_c, 0, 67, 26
1, 1135689, Note_on_c, 0, 58, 40
1, 1135699, Note_on_c, 0, 27, 31
1, 1135701, Note_on_c, 0, 39, 35
1, 1135715, Control_c, 0, 67, 21
1, 1135751, Control_c, 0, 67, 14
1, 1135765, Note_off_c, 0, 54, 41
1, 1135769, Control_c, 0, 64, 96
1, 1135771, Control_c, 0, 67, 10
1, 1135790, Control_c, 0, 64, 89
1, 1135809, Control_c, 0, 64, 79
1, 1135827, Control_c, 0, 64, 67
1, 1135846, Control_c, 0, 64, 56
1, 1135864, Control_c, 0, 64, 46
1, 1135883, Control_c, 0, 67, 0
1, 1135901, Control_c, 0, 64, 55
1, 1135921, Control_c, 0, 64, 64
1, 1135938, Control_c, 0, 64, 72
1, 1135958, Control_c, 0, 64, 81
1, 1135977, Control_c, 0, 64, 95
1, 1135995, Control_c, 0, 64, 113
1, 1136014, Control_c, 0, 64, 127
1, 1136060, Note_off_c, 0, 39, 46
1, 1136077, Note_off_c, 0, 27, 41
1, 1136279, Note_on_c, 0, 27, 45
1, 1136292, Note_on_c, 0, 39, 40
1, 1136362, Note_off_c, 0, 39, 55
1, 1136364, Note_off_c, 0, 27, 55
1, 1136468, Note_off_c, 0, 66, 62
1, 1136493, Note_on_c, 0, 27, 53
1, 1136505, Note_on_c, 0, 39, 52
1, 1136535, Note_off_c, 0, 58, 28
1, 1136563, Note_off_c, 0, 39, 55
1, 1136565, Note_off_c, 0, 27, 55
1, 1136588, Note_off_c, 0, 63, 34
1, 1136655, Note_on_c, 0, 65, 64
1, 1136669, Note_on_c, 0, 62, 54
1, 1136673, Note_on_c, 0, 56, 51
1, 1136685, Note_on_c, 0, 59, 47
1, 1136690, Note_on_c, 0, 39, 52
1, 1136707, Note_on_c, 0, 27, 50
1, 1136713, Note_off_c, 0, 56, 63
1, 1136713, Poly_aftertouch_c, 0, 56, 0
1, 1136717, Note_off_c, 0, 59, 58
1, 1136717, Note_off_c, 0, 62, 63
1, 1136737, Note_off_c, 0, 65, 61
1, 1136750, Note_off_c, 0, 39, 52
1, 1136761, Note_off_c, 0, 27, 57
1, 1136935, Note_on_c, 0, 68, 66
1, 1136940, Note_on_c, 0, 65, 53
1, 1136978, Note_on_c, 0, 59, 36
1, 1136986, Note_on_c, 0, 62, 34
1, 1136991, Note_on_c, 0, 39, 45
1, 1137002, Note_on_c, 0, 27, 40
1, 1137006, Control_c, 0, 64, 115
1, 1137023, Control_c, 0, 64, 90
1, 1137043, Control_c, 0, 64, 69
1, 1137061, Control_c, 0, 64, 61
1, 1137071, Note_off_c, 0, 62, 53
1, 1137079, Control_c, 0, 64, 67
1, 1137096, Note_off_c, 0, 59, 51
1, 1137098, Control_c, 0, 64, 80
1, 1137117, Control_c, 0, 64, 97
1, 1137136, Control_c, 0, 64, 123
1, 1137154, Control_c, 0, 64, 127
1, 1137183, Note_off_c, 0, 65, 60
1, 1137314, Note_on_c, 0, 66, 71
1, 1137334, Note_on_c, 0, 58, 53
1, 1137335, Note_on_c, 0, 63, 56
1, 1137339, Note_off_c, 0, 68, 60
1, 1137339, Poly_aftertouch_c, 0, 68, 0
1, 1137367, Note_off_c, 0, 66, 62
1, 1137369, Note_off_c, 0, 58, 61
1, 1137373, Note_off_c, 0, 27, 52
1, 1137400, Note_off_c, 0, 39, 52
1, 1137400, Note_off_c, 0, 63, 50
1, 1137555, Note_on_c, 0, 71, 82
1, 1137574, Note_on_c, 0, 27, 57
1, 1137579, Note_on_c, 0, 39, 54
1, 1137591, Note_on_c, 0, 68, 50
1, 1137597, Note_on_c, 0, 62, 45
1, 1137603, Control_c, 0, 64, 104
1, 1137622, Control_c, 0, 64, 77
1, 1137640, Control_c, 0, 64, 65
1, 1137657, Note_off_c, 0, 39, 54
1, 1137660, Control_c, 0, 64, 72
1, 1137678, Control_c, 0, 64, 85
1, 1137679, Note_off_c, 0, 27, 60
1, 1137692, Poly_aftertouch_c, 0, 65, 127
1, 1137695, Control_c, 0, 64, 100
1, 1137715, Control_c, 0, 64, 127
1, 1137720, Note_on_c, 0, 65, 6
1, 1137787, Note_on_c, 0, 27, 56
1, 1137793, Note_on_c, 0, 39, 58
1, 1137849, Note_off_c, 0, 39, 57
1, 1137855, Note_off_c, 0, 27, 55
1, 1137896, Note_off_c, 0, 62, 52
1, 1137943, Note_on_c, 0, 70, 82
1, 1137954, Note_off_c, 0, 65, 38
1, 1137954, Poly_aftertouch_c, 0, 65, 0
1, 1137980, Note_off_c, 0, 71, 60
1, 1137993, Note_on_c, 0, 39, 49
1, 1138002, Note_off_c, 0, 70, 67
1, 1138002, Poly_aftertouch_c, 0, 70, 0
1, 1138005, Note_off_c, 0, 68, 27
1, 1138005, Poly_aftertouch_c, 0, 68, 0
1, 1138015, Note_on_c, 0, 27, 52
1, 1138037, Note_off_c, 0, 39, 59
1, 1138064, Note_off_c, 0, 27, 59
1, 1138249, Note_on_c, 0, 77, 76
1, 1138276, Note_on_c, 0, 74, 53
1, 1138319, Note_on_c, 0, 27, 41
1, 1138320, Note_on_c, 0, 39, 45
1, 1138322, Note_on_c, 0, 68, 34
1, 1138351, Control_c, 0, 64, 120
1, 1138370, Control_c, 0, 64, 94
1, 1138388, Control_c, 0, 64, 69
1, 1138408, Control_c, 0, 64, 47
1, 1138427, Control_c, 0, 64, 31
1, 1138443, Note_off_c, 0, 74, 60
1, 1138444, Control_c, 0, 64, 42
1, 1138464, Control_c, 0, 64, 61
1, 1138482, Control_c, 0, 64, 78
1, 1138499, Note_off_c, 0, 68, 59
1, 1138499, Poly_aftertouch_c, 0, 68, 0
1, 1138500, Control_c, 0, 64, 99
1, 1138519, Control_c, 0, 64, 127
1, 1138644, Note_on_c, 0, 75, 78
1, 1138654, Note_on_c, 0, 70, 61
1, 1138687, Note_on_c, 0, 66, 41
1, 1138702, Note_off_c, 0, 77, 60
1, 1138702, Poly_aftertouch_c, 0, 77, 0
1, 1138707, Note_off_c, 0, 70, 62
1, 1138707, Poly_aftertouch_c, 0, 70, 0
1, 1138727, Note_off_c, 0, 66, 56
1, 1138744, Note_off_c, 0, 75, 62
1, 1138746, Note_off_c, 0, 27, 40
1, 1138780, Note_off_c, 0, 39, 40
1, 1138969, Note_on_c, 0, 73, 73
1, 1139003, Note_on_c, 0, 70, 52
1, 1139037, Note_on_c, 0, 67, 29
1, 1139039, Note_on_c, 0, 39, 38
1, 1139043, Note_on_c, 0, 27, 39
1, 1139054, Note_on_c, 0, 61, 28
1, 1139061, Control_c, 0, 64, 116
1, 1139081, Control_c, 0, 64, 102
1, 1139098, Control_c, 0, 64, 83
1, 1139118, Control_c, 0, 64, 61
1, 1139137, Control_c, 0, 64, 26
1, 1139155, Control_c, 0, 64, 0
1, 1139211, Control_c, 0, 64, 20
1, 1139230, Control_c, 0, 64, 45
1, 1139249, Control_c, 0, 64, 67
1, 1139268, Control_c, 0, 64, 86
1, 1139287, Control_c, 0, 64, 109
1, 1139304, Control_c, 0, 64, 127
1, 1139494, Note_off_c, 0, 39, 41
1, 1139514, Note_off_c, 0, 27, 39
1, 1139626, Note_on_c, 0, 72, 64
1, 1139690, Note_on_c, 0, 40, 39
1, 1139693, Note_on_c, 0, 28, 42
1, 1139716, Note_off_c, 0, 73, 32
1, 1139716, Poly_aftertouch_c, 0, 73, 0
1, 1139754, Control_c, 0, 64, 106
1, 1139772, Control_c, 0, 64, 83
1, 1139792, Control_c, 0, 64, 65
1, 1139810, Control_c, 0, 64, 56
1, 1139828, Control_c, 0, 64, 60
1, 1139847, Control_c, 0, 64, 71
1, 1139857, Note_on_c, 0, 73, 75
1, 1139866, Control_c, 0, 64, 85
1, 1139884, Control_c, 0, 64, 107
1, 1139900, Note_off_c, 0, 72, 58
1, 1139902, Control_c, 0, 64, 127
1, 1139992, Note_off_c, 0, 70, 23
1, 1139992, Poly_aftertouch_c, 0, 70, 0
1, 1140021, Note_off_c, 0, 40, 53
1, 1140036, Note_off_c, 0, 28, 37
1, 1140036, Note_on_c, 0, 72, 73
1, 1140088, Note_off_c, 0, 73, 56
1, 1140088, Poly_aftertouch_c, 0, 73, 0
1, 1140103, Note_off_c, 0, 67, 40
1, 1140117, Note_off_c, 0, 72, 59
1, 1140136, Note_off_c, 0, 61, 41
1, 1140292, Note_on_c, 0, 71, 63
1, 1140296, Note_on_c, 0, 61, 40
1, 1140307, Note_on_c, 0, 68, 49
1, 1140314, Note_on_c, 0, 29, 42
1, 1140316, Note_on_c, 0, 41, 44
1, 1140352, Control_c, 0, 64, 119
1, 1140371, Control_c, 0, 64, 110
1, 1140389, Control_c, 0, 64, 97
1, 1140409, Control_c, 0, 64, 79
1, 1140427, Control_c, 0, 64, 55
1, 1140445, Control_c, 0, 64, 0
1, 1140558, Control_c, 0, 64, 30
1, 1140575, Control_c, 0, 64, 57
1, 1140588, Note_off_c, 0, 41, 55
1, 1140588, Poly_aftertouch_c, 0, 41, 0
1, 1140596, Control_c, 0, 64, 80
1, 1140606, Note_off_c, 0, 68, 58
1, 1140606, Poly_aftertouch_c, 0, 68, 0
1, 1140614, Control_c, 0, 64, 103
1, 1140633, Control_c, 0, 64, 127
1, 1140924, Note_on_c, 0, 70, 52
1, 1140930, Note_on_c, 0, 42, 33
1, 1140933, Note_on_c, 0, 66, 39
1, 1140949, Note_on_c, 0, 30, 43
1, 1140960, Note_off_c, 0, 71, 37
1, 1140962, Note_off_c, 0, 29, 38
1, 1140962, Poly_aftertouch_c, 0, 29, 0
1, 1140988, Control_c, 0, 64, 114
1, 1141006, Control_c, 0, 64, 89
1, 1141026, Control_c, 0, 64, 68
1, 1141043, Control_c, 0, 64, 56
1, 1141063, Control_c, 0, 64, 60
1, 1141081, Control_c, 0, 64, 71
1, 1141100, Control_c, 0, 64, 82
1, 1141119, Control_c, 0, 64, 101
1, 1141131, Note_off_c, 0, 70, 55
1, 1141131, Poly_aftertouch_c, 0, 70, 0
1, 1141136, Control_c, 0, 64, 127
1, 1141144, Note_on_c, 0, 71, 55
1, 1141299, Note_on_c, 0, 70, 66
1, 1141316, Note_off_c, 0, 30, 42
1, 1141321, Note_off_c, 0, 66, 59
1, 1141331, Note_off_c, 0, 71, 58
1, 1141355, Note_off_c, 0, 42, 42
1, 1141368, Note_off_c, 0, 61, 43
1, 1141378, Note_off_c, 0, 70, 61
1, 1141378, Poly_aftertouch_c, 0, 70, 0
1, 1141554, Note_on_c, 0, 69, 59
1, 1141578, Note_on_c, 0, 61, 28
1, 1141580, Note_on_c, 0, 31, 37
1, 1141583, Note_on_c, 0, 43, 35
1, 1141585, Note_on_c, 0, 64, 48
1, 1141623, Control_c, 0, 64, 101
1, 1141642, Control_c, 0, 64, 75
1, 1141660, Control_c, 0, 64, 50
1, 1141679, Control_c, 0, 64, 0
1, 1141717, Control_c, 0, 64, 13
1, 1141735, Control_c, 0, 64, 36
1, 1141754, Control_c, 0, 64, 56
1, 1141773, Control_c, 0, 64, 76
1, 1141791, Control_c, 0, 64, 96
1, 1141811, Control_c, 0, 64, 122
1, 1141829, Control_c, 0, 64, 127
1, 1141865, Note_off_c, 0, 43, 41
1, 1141868, Note_off_c, 0, 61, 43
1, 1141870, Note_off_c, 0, 64, 29
1, 1141997, Control_c, 0, 67, 9
1, 1142006, Note_off_c, 0, 31, 34
1, 1142091, Control_c, 0, 67, 13
1, 1142123, Note_off_c, 0, 69, 36
1, 1142148, Control_c, 0, 67, 17
1, 1142161, Note_on_c, 0, 68, 49
1, 1142168, Note_on_c, 0, 61, 43
1, 1142184, Control_c, 0, 67, 22
1, 1142198, Note_on_c, 0, 44, 32
1, 1142202, Note_on_c, 0, 32, 34
1, 1142204, Note_on_c, 0, 64, 35
1, 1142204, Control_c, 0, 67, 26
1, 1142222, Control_c, 0, 64, 122
1, 1142224, Control_c, 0, 67, 31
1, 1142241, Control_c, 0, 64, 114
1, 1142243, Control_c, 0, 67, 36
1, 1142260, Control_c, 0, 64, 104
1, 1142261, Control_c, 0, 67, 42
1, 1142278, Control_c, 0, 64, 89
1, 1142279, Control_c, 0, 67, 48
1, 1142298, Control_c, 0, 64, 71
1, 1142300, Control_c, 0, 67, 55
1, 1142317, Control_c, 0, 64, 52
1, 1142318, Control_c, 0, 67, 62
1, 1142334, Control_c, 0, 64, 28
1, 1142335, Control_c, 0, 67, 67
1, 1142353, Control_c, 0, 64, 10
1, 1142354, Control_c, 0, 67, 72
1, 1142373, Control_c, 0, 64, 26
1, 1142376, Note_on_c, 0, 69, 58
1, 1142391, Control_c, 0, 64, 43
1, 1142392, Control_c, 0, 67, 76
1, 1142394, Note_off_c, 0, 68, 46
1, 1142394, Poly_aftertouch_c, 0, 68, 0
1, 1142410, Control_c, 0, 64, 58
1, 1142428, Control_c, 0, 64, 77
1, 1142447, Control_c, 0, 64, 92
1, 1142465, Control_c, 0, 64, 109
1, 1142484, Control_c, 0, 64, 122
1, 1142502, Control_c, 0, 64, 127
1, 1142548, Note_on_c, 0, 68, 58
1, 1142579, Note_off_c, 0, 32, 30
1, 1142587, Note_off_c, 0, 64, 39
1, 1142592, Note_off_c, 0, 69, 57
1, 1142599, Note_off_c, 0, 44, 40
1, 1142604, Note_off_c, 0, 61, 43
1, 1142658, Note_off_c, 0, 68, 52
1, 1142658, Poly_aftertouch_c, 0, 68, 0
1, 1142802, Control_c, 0, 64, 121
1, 1142821, Control_c, 0, 64, 116
1, 1142832, Note_on_c, 0, 67, 48
1, 1142835, Note_on_c, 0, 63, 45
1, 1142836, Note_on_c, 0, 61, 33
1, 1142840, Control_c, 0, 64, 112
1, 1142856, Control_c, 0, 64, 106
1, 1142860, Note_on_c, 0, 33, 34
1, 1142862, Note_on_c, 0, 45, 36
1, 1142877, Control_c, 0, 64, 97
1, 1142895, Control_c, 0, 64, 80
1, 1142914, Control_c, 0, 64, 58
1, 1142932, Control_c, 0, 64, 20
1, 1142951, Control_c, 0, 64, 0
1, 1143007, Control_c, 0, 64, 18
1, 1143027, Control_c, 0, 64, 42
1, 1143045, Control_c, 0, 64, 61
1, 1143063, Control_c, 0, 64, 81
1, 1143083, Control_c, 0, 64, 98
1, 1143101, Control_c, 0, 64, 116
1, 1143112, Note_off_c, 0, 61, 49
1, 1143118, Control_c, 0, 64, 127
1, 1143141, Note_off_c, 0, 67, 56
1, 1143153, Note_off_c, 0, 63, 57
1, 1143166, Note_off_c, 0, 45, 45
1, 1143177, Note_off_c, 0, 33, 36
1, 1143269, Control_c, 0, 67, 81
1, 1143287, Control_c, 0, 67, 86
1, 1143307, Control_c, 0, 67, 91
1, 1143324, Control_c, 0, 67, 96
1, 1143344, Control_c, 0, 67, 100
1, 1143382, Control_c, 0, 67, 104
1, 1143455, Control_c, 0, 67, 109
1, 1143720, Note_on_c, 0, 68, 40
1, 1143735, Control_c, 0, 64, 122
1, 1143737, Note_on_c, 0, 61, 37
1, 1143738, Note_on_c, 0, 54, 32
1, 1143792, Control_c, 0, 64, 116
1, 1143800, Note_on_c, 0, 32, 26
1, 1143802, Note_on_c, 0, 44, 27
1, 1143810, Control_c, 0, 64, 112
1, 1143831, Control_c, 0, 64, 108
1, 1143849, Control_c, 0, 64, 103
1, 1143868, Control_c, 0, 64, 99
1, 1143886, Control_c, 0, 64, 94
1, 1143904, Control_c, 0, 64, 88
1, 1143923, Control_c, 0, 64, 82
1, 1143942, Control_c, 0, 64, 76
1, 1143960, Control_c, 0, 64, 70
1, 1143980, Control_c, 0, 64, 65
1, 1143997, Control_c, 0, 64, 60
1, 1144017, Control_c, 0, 64, 54
1, 1144036, Control_c, 0, 64, 46
1, 1144055, Control_c, 0, 64, 34
1, 1144073, Control_c, 0, 64, 16
1, 1144092, Control_c, 0, 64, 0
1, 1144298, Control_c, 0, 64, 17
1, 1144317, Control_c, 0, 64, 24
1, 1144335, Control_c, 0, 64, 29
1, 1144354, Control_c, 0, 64, 35
1, 1144372, Control_c, 0, 64, 43
1, 1144392, Control_c, 0, 64, 51
1, 1144409, Control_c, 0, 64, 58
1, 1144429, Control_c, 0, 64, 65
1, 1144448, Control_c, 0, 64, 69
1, 1144466, Control_c, 0, 64, 73
1, 1144484, Control_c, 0, 64, 76
1, 1144503, Control_c, 0, 64, 80
1, 1144523, Control_c, 0, 64, 85
1, 1144540, Control_c, 0, 64, 90
1, 1144559, Control_c, 0, 64, 95
1, 1144578, Control_c, 0, 64, 101
1, 1144596, Control_c, 0, 64, 107
1, 1144615, Control_c, 0, 64, 112
1, 1144634, Control_c, 0, 64, 116
1, 1144683, Note_off_c, 0, 61, 39
1, 1144688, Control_c, 0, 64, 120
1, 1144746, Control_c, 0, 64, 124
1, 1144757, Note_off_c, 0, 68, 42
1, 1144757, Poly_aftertouch_c, 0, 68, 0
1, 1144779, Note_off_c, 0, 54, 32
1, 1145350, Note_on_c, 0, 63, 30
1, 1145360, Note_on_c, 0, 60, 30
1, 1145373, Note_on_c, 0, 54, 20
1, 1145400, Control_c, 0, 64, 120
1, 1145457, Control_c, 0, 64, 114
1, 1145475, Control_c, 0, 64, 109
1, 1145495, Control_c, 0, 64, 99
1, 1145513, Control_c, 0, 64, 83
1, 1145532, Control_c, 0, 64, 67
1, 1145550, Control_c, 0, 64, 60
1, 1145568, Control_c, 0, 64, 62
1, 1145588, Control_c, 0, 64, 66
1, 1145606, Control_c, 0, 64, 70
1, 1145625, Control_c, 0, 64, 75
1, 1145644, Control_c, 0, 64, 82
1, 1145663, Control_c, 0, 64, 92
1, 1145670, Note_off_c, 0, 60, 42
1, 1145670, Poly_aftertouch_c, 0, 60, 0
1, 1145674, Note_off_c, 0, 32, 41
1, 1145681, Control_c, 0, 64, 104
1, 1145701, Control_c, 0, 64, 113
1, 1145710, Note_off_c, 0, 63, 41
1, 1145717, Control_c, 0, 64, 119
1, 1145739, Note_off_c, 0, 44, 42
1, 1145839, Note_off_c, 0, 54, 38
1, 1145943, Control_c, 0, 64, 113
1, 1145981, Control_c, 0, 64, 109
1, 1146018, Control_c, 0, 64, 102
1, 1146036, Control_c, 0, 64, 98
1, 1146056, Control_c, 0, 64, 93
1, 1146073, Control_c, 0, 64, 87
1, 1146092, Control_c, 0, 64, 80
1, 1146112, Control_c, 0, 64, 73
1, 1146130, Control_c, 0, 64, 69
1, 1146148, Control_c, 0, 64, 66
1, 1146167, Control_c, 0, 64, 65
1, 1146187, Control_c, 0, 64, 63
1, 1146205, Control_c, 0, 64, 58
1, 1146223, Control_c, 0, 64, 51
1, 1146244, Control_c, 0, 64, 42
1, 1146261, Control_c, 0, 64, 30
1, 1146279, Control_c, 0, 64, 19
1, 1146298, Control_c, 0, 64, 13
1, 1146427, Note_on_c, 0, 65, 35
1, 1146443, Note_on_c, 0, 61, 22
1, 1146466, Note_on_c, 0, 49, 25
1, 1146468, Note_on_c, 0, 37, 25
1, 1146471, Note_on_c, 0, 53, 11
1, 1146472, Note_on_c, 0, 56, 14
1, 1146486, Control_c, 0, 64, 20
1, 1146504, Control_c, 0, 64, 24
1, 1146524, Control_c, 0, 64, 29
1, 1146541, Control_c, 0, 64, 34
1, 1146560, Control_c, 0, 64, 40
1, 1146580, Control_c, 0, 64, 47
1, 1146598, Control_c, 0, 64, 56
1, 1146615, Control_c, 0, 64, 65
1, 1146635, Control_c, 0, 64, 72
1, 1146653, Control_c, 0, 64, 76
1, 1146668, Note_off_c, 0, 61, 47
1, 1146672, Control_c, 0, 64, 80
1, 1146682, Note_off_c, 0, 56, 22
1, 1146682, Poly_aftertouch_c, 0, 56, 0
1, 1146689, Control_c, 0, 64, 84
1, 1146709, Control_c, 0, 64, 91
1, 1146718, Note_off_c, 0, 53, 45
1, 1146718, Poly_aftertouch_c, 0, 53, 0
1, 1146729, Control_c, 0, 64, 99
1, 1146746, Control_c, 0, 64, 107
1, 1146765, Control_c, 0, 64, 113
1, 1146784, Control_c, 0, 64, 118
1, 1146803, Control_c, 0, 64, 122
1, 1146821, Control_c, 0, 64, 126
1, 1146878, Note_off_c, 0, 65, 42
1, 1146878, Poly_aftertouch_c, 0, 65, 0
1, 1146958, Poly_aftertouch_c, 0, 49, 24
1, 1147005, Note_off_c, 0, 37, 37
1, 1147014, Note_off_c, 0, 49, 19
1, 1147014, Poly_aftertouch_c, 0, 49, 0
1, 1147331, Note_on_c, 0, 68, 36
1, 1147349, Note_on_c, 0, 48, 28
1, 1147350, Note_on_c, 0, 63, 28
1, 1147362, Note_on_c, 0, 36, 27
1, 1147378, Note_on_c, 0, 56, 20
1, 1147513, Control_c, 0, 64, 119
1, 1147533, Control_c, 0, 64, 113
1, 1147550, Control_c, 0, 64, 106
1, 1147569, Control_c, 0, 64, 99
1, 1147588, Control_c, 0, 64, 89
1, 1147608, Control_c, 0, 64, 78
1, 1147626, Control_c, 0, 64, 68
1, 1147644, Control_c, 0, 64, 59
1, 1147664, Control_c, 0, 64, 52
1, 1147682, Control_c, 0, 64, 46
1, 1147700, Control_c, 0, 64, 44
1, 1147756, Control_c, 0, 64, 47
1, 1147775, Control_c, 0, 64, 50
1, 1147794, Control_c, 0, 64, 52
1, 1147813, Control_c, 0, 64, 56
1, 1147831, Control_c, 0, 64, 61
1, 1147850, Control_c, 0, 64, 67
1, 1147869, Control_c, 0, 64, 71
1, 1147887, Control_c, 0, 64, 75
1, 1147907, Control_c, 0, 64, 78
1, 1147925, Control_c, 0, 64, 82
1, 1147945, Control_c, 0, 64, 86
1, 1147962, Control_c, 0, 64, 91
1, 1147981, Control_c, 0, 64, 96
1, 1148000, Control_c, 0, 64, 100
1, 1148018, Control_c, 0, 64, 106
1, 1148037, Control_c, 0, 64, 111
1, 1148056, Control_c, 0, 64, 118
1, 1148075, Control_c, 0, 64, 124
1, 1148201, Note_off_c, 0, 56, 38
1, 1148201, Poly_aftertouch_c, 0, 56, 0
1, 1148204, Control_c, 0, 67, 105
1, 1148212, Poly_aftertouch_c, 0, 48, 20
1, 1148232, Note_off_c, 0, 48, 26
1, 1148232, Poly_aftertouch_c, 0, 48, 0
1, 1148325, Note_off_c, 0, 63, 42
1, 1148441, Note_off_c, 0, 68, 35
1, 1148441, Poly_aftertouch_c, 0, 68, 0
1, 1148450, Note_off_c, 0, 36, 38
1, 1148829, Note_on_c, 0, 70, 41
1, 1148867, Note_on_c, 0, 66, 28
1, 1148885, Note_on_c, 0, 58, 19
1, 1148896, Note_on_c, 0, 46, 28
1, 1148904, Note_on_c, 0, 34, 25
1, 1148935, Control_c, 0, 64, 118
1, 1148954, Control_c, 0, 64, 104
1, 1148972, Control_c, 0, 64, 96
1, 1149010, Control_c, 0, 64, 104
1, 1149028, Control_c, 0, 64, 111
1, 1149031, Note_off_c, 0, 58, 49
1, 1149047, Control_c, 0, 64, 119
1, 1149066, Control_c, 0, 64, 127
1, 1149071, Note_off_c, 0, 70, 59
1, 1149071, Poly_aftertouch_c, 0, 70, 0
1, 1149090, Note_off_c, 0, 34, 47
1, 1149095, Note_off_c, 0, 46, 35
1, 1149109, Note_off_c, 0, 66, 44
1, 1149235, Note_on_c, 0, 72, 56
1, 1149238, Note_on_c, 0, 68, 44
1, 1149252, Note_on_c, 0, 60, 49
1, 1149278, Note_on_c, 0, 44, 38
1, 1149286, Note_on_c, 0, 32, 40
1, 1149305, Note_off_c, 0, 60, 62
1, 1149305, Poly_aftertouch_c, 0, 60, 0
1, 1149315, Note_off_c, 0, 72, 57
1, 1149327, Note_off_c, 0, 68, 50
1, 1149327, Poly_aftertouch_c, 0, 68, 0
1, 1149337, Note_off_c, 0, 44, 57
1, 1149348, Note_off_c, 0, 32, 55
1, 1149497, Note_on_c, 0, 73, 59
1, 1149526, Note_on_c, 0, 70, 44
1, 1149535, Note_on_c, 0, 61, 38
1, 1149553, Control_c, 0, 64, 120
1, 1149554, Control_c, 0, 67, 109
1, 1149570, Note_on_c, 0, 30, 39
1, 1149571, Control_c, 0, 64, 110
1, 1149577, Note_on_c, 0, 42, 29
1, 1149588, Control_c, 0, 64, 97
1, 1149609, Control_c, 0, 64, 80
1, 1149627, Control_c, 0, 64, 61
1, 1149645, Control_c, 0, 64, 41
1, 1149665, Control_c, 0, 64, 19
1, 1149684, Control_c, 0, 64, 28
1, 1149686, Control_c, 0, 67, 113
1, 1149701, Control_c, 0, 64, 46
1, 1149702, Control_c, 0, 67, 118
1, 1149720, Control_c, 0, 64, 61
1, 1149722, Control_c, 0, 67, 122
1, 1149738, Control_c, 0, 64, 77
1, 1149753, Note_off_c, 0, 61, 63
1, 1149756, Control_c, 0, 64, 92
1, 1149758, Control_c, 0, 67, 127
1, 1149761, Note_off_c, 0, 73, 61
1, 1149761, Poly_aftertouch_c, 0, 73, 0
1, 1149776, Control_c, 0, 64, 112
1, 1149792, Note_off_c, 0, 70, 45
1, 1149792, Poly_aftertouch_c, 0, 70, 0
1, 1149794, Control_c, 0, 64, 127
1, 1149905, Note_on_c, 0, 70, 61
1, 1149906, Note_on_c, 0, 58, 45
1, 1149914, Note_on_c, 0, 66, 47
1, 1149971, Note_off_c, 0, 70, 54
1, 1149971, Poly_aftertouch_c, 0, 70, 0
1, 1149973, Note_off_c, 0, 66, 62
1, 1149976, Note_off_c, 0, 58, 60
1, 1150160, Note_on_c, 0, 66, 48
1, 1150179, Note_on_c, 0, 63, 46
1, 1150183, Note_on_c, 0, 54, 35
1, 1150320, Note_off_c, 0, 63, 50
1, 1150368, Note_off_c, 0, 42, 42
1, 1150373, Note_off_c, 0, 30, 49
1, 1150389, Note_off_c, 0, 54, 59
1, 1150400, Note_off_c, 0, 66, 53
1, 1150505, Control_c, 0, 64, 123
1, 1150562, Control_c, 0, 64, 119
1, 1150566, Note_on_c, 0, 65, 48
1, 1150580, Control_c, 0, 64, 112
1, 1150582, Note_on_c, 0, 61, 48
1, 1150588, Note_on_c, 0, 53, 35
1, 1150597, Note_on_c, 0, 31, 38
1, 1150599, Note_on_c, 0, 43, 33
1, 1150600, Control_c, 0, 64, 102
1, 1150618, Control_c, 0, 64, 89
1, 1150636, Control_c, 0, 64, 77
1, 1150654, Control_c, 0, 64, 74
1, 1150669, Note_off_c, 0, 43, 58
1, 1150674, Note_off_c, 0, 53, 50
1, 1150674, Poly_aftertouch_c, 0, 53, 0
1, 1150674, Control_c, 0, 64, 78
1, 1150676, Note_off_c, 0, 61, 53
1, 1150690, Note_off_c, 0, 65, 57
1, 1150690, Poly_aftertouch_c, 0, 65, 0
1, 1150691, Control_c, 0, 64, 81
1, 1150711, Control_c, 0, 64, 85
1, 1150729, Control_c, 0, 64, 89
1, 1150749, Control_c, 0, 64, 93
1, 1150786, Control_c, 0, 64, 97
1, 1150855, Note_on_c, 0, 65, 48
1, 1150862, Note_on_c, 0, 61, 42
1, 1150866, Note_on_c, 0, 53, 31
1, 1150914, Note_on_c, 0, 44, 34
1, 1150935, Note_on_c, 0, 32, 30
1, 1150935, Control_c, 0, 64, 93
1, 1150955, Control_c, 0, 64, 89
1, 1150973, Control_c, 0, 64, 84
1, 1150992, Control_c, 0, 64, 77
1, 1150993, Note_off_c, 0, 31, 36
1, 1151010, Control_c, 0, 64, 70
1, 1151029, Control_c, 0, 64, 60
1, 1151047, Control_c, 0, 64, 45
1, 1151066, Control_c, 0, 64, 0
1, 1151160, Control_c, 0, 64, 10
1, 1151178, Control_c, 0, 64, 35
1, 1151197, Control_c, 0, 64, 56
1, 1151215, Control_c, 0, 64, 73
1, 1151235, Control_c, 0, 64, 86
1, 1151254, Control_c, 0, 64, 97
1, 1151259, Note_off_c, 0, 61, 48
1, 1151272, Control_c, 0, 64, 107
1, 1151273, Control_c, 0, 67, 123
1, 1151291, Control_c, 0, 64, 116
1, 1151304, Note_off_c, 0, 53, 54
1, 1151304, Poly_aftertouch_c, 0, 53, 0
1, 1151309, Control_c, 0, 64, 122
1, 1151328, Control_c, 0, 64, 127
1, 1151371, Note_off_c, 0, 65, 38
1, 1151371, Poly_aftertouch_c, 0, 65, 0
1, 1151664, Control_c, 0, 64, 122
1, 1151674, Note_on_c, 0, 63, 31
1, 1151683, Note_on_c, 0, 60, 23
1, 1151694, Note_on_c, 0, 51, 21
1, 1151702, Control_c, 0, 64, 115
1, 1151739, Control_c, 0, 64, 109
1, 1151759, Control_c, 0, 64, 105
1, 1151777, Control_c, 0, 64, 97
1, 1151795, Control_c, 0, 64, 85
1, 1151815, Control_c, 0, 64, 69
1, 1151833, Control_c, 0, 64, 51
1, 1151851, Control_c, 0, 64, 34
1, 1151890, Control_c, 0, 64, 46
1, 1151892, Control_c, 0, 67, 117
1, 1151908, Control_c, 0, 64, 60
1, 1151926, Control_c, 0, 64, 72
1, 1151927, Control_c, 0, 67, 109
1, 1151946, Control_c, 0, 64, 84
1, 1151949, Control_c, 0, 67, 104
1, 1151965, Control_c, 0, 64, 97
1, 1151966, Control_c, 0, 67, 99
1, 1151973, Note_off_c, 0, 60, 38
1, 1151973, Poly_aftertouch_c, 0, 60, 0
1, 1151982, Control_c, 0, 64, 112
1, 1151983, Control_c, 0, 67, 94
1, 1152001, Control_c, 0, 64, 124
1, 1152002, Control_c, 0, 67, 87
1, 1152011, Note_off_c, 0, 51, 49
1, 1152018, Control_c, 0, 67, 80
1, 1152037, Note_off_c, 0, 32, 41
1, 1152039, Control_c, 0, 67, 72
1, 1152054, Note_off_c, 0, 63, 42
1, 1152056, Control_c, 0, 67, 64
1, 1152075, Control_c, 0, 67, 57
1, 1152085, Note_off_c, 0, 44, 42
1, 1152094, Control_c, 0, 67, 51
1, 1152113, Control_c, 0, 67, 45
1, 1152132, Control_c, 0, 67, 38
1, 1152151, Control_c, 0, 67, 31
1, 1152170, Control_c, 0, 64, 110
1, 1152171, Control_c, 0, 67, 24
1, 1152188, Control_c, 0, 64, 97
1, 1152189, Control_c, 0, 67, 18
1, 1152207, Control_c, 0, 64, 83
1, 1152209, Control_c, 0, 67, 13
1, 1152226, Control_c, 0, 64, 69
1, 1152245, Control_c, 0, 64, 55
1, 1152264, Control_c, 0, 64, 41
1, 1152282, Control_c, 0, 64, 12
1, 1152301, Control_c, 0, 64, 0
1, 1152406, Note_on_c, 0, 65, 43
1, 1152411, Note_on_c, 0, 61, 36
1, 1152431, Control_c, 0, 67, 0
1, 1152436, Note_on_c, 0, 49, 30
1, 1152446, Note_on_c, 0, 53, 16
1, 1152450, Note_on_c, 0, 37, 29
1, 1152507, Control_c, 0, 64, 19
1, 1152523, Poly_aftertouch_c, 0, 56, 127
1, 1152523, Control_c, 0, 64, 41
1, 1152543, Control_c, 0, 64, 57
1, 1152562, Control_c, 0, 64, 70
1, 1152581, Control_c, 0, 64, 81
1, 1152595, Poly_aftertouch_c, 0, 56, 0
1, 1152599, Control_c, 0, 64, 95
1, 1152603, Note_off_c, 0, 61, 57
1, 1152618, Control_c, 0, 64, 114
1, 1152637, Control_c, 0, 64, 127
1, 1152646, Note_off_c, 0, 53, 44
1, 1152646, Poly_aftertouch_c, 0, 53, 0
1, 1152772, Note_off_c, 0, 65, 58
1, 1152772, Poly_aftertouch_c, 0, 65, 0
1, 1152970, Note_off_c, 0, 49, 32
1, 1152970, Poly_aftertouch_c, 0, 49, 0
1, 1152983, Note_off_c, 0, 37, 34
1, 1153140, Note_on_c, 0, 68, 54
1, 1153179, Note_on_c, 0, 63, 39
1, 1153202, Note_on_c, 0, 56, 27
1, 1153203, Note_on_c, 0, 48, 33
1, 1153214, Note_on_c, 0, 36, 33
1, 1153310, Control_c, 0, 64, 112
1, 1153328, Control_c, 0, 64, 97
1, 1153348, Control_c, 0, 64, 79
1, 1153366, Control_c, 0, 64, 61
1, 1153385, Control_c, 0, 64, 44
1, 1153403, Control_c, 0, 64, 14
1, 1153422, Control_c, 0, 64, 0
1, 1153459, Control_c, 0, 64, 17
1, 1153479, Control_c, 0, 64, 30
1, 1153497, Control_c, 0, 64, 45
1, 1153517, Control_c, 0, 64, 62
1, 1153534, Control_c, 0, 64, 79
1, 1153554, Control_c, 0, 64, 96
1, 1153572, Control_c, 0, 64, 116
1, 1153591, Control_c, 0, 64, 127
1, 1153689, Note_off_c, 0, 56, 39
1, 1153851, Note_off_c, 0, 63, 60
1, 1153909, Note_off_c, 0, 48, 26
1, 1153909, Poly_aftertouch_c, 0, 48, 0
1, 1154072, Note_off_c, 0, 68, 61
1, 1154072, Poly_aftertouch_c, 0, 68, 0
1, 1154138, Note_off_c, 0, 36, 40
1, 1154487, Note_on_c, 0, 73, 55
1, 1154539, Note_on_c, 0, 61, 19
1, 1154541, Note_on_c, 0, 46, 34
1, 1154543, Note_on_c, 0, 70, 35
1, 1154552, Note_on_c, 0, 34, 32
1, 1154600, Control_c, 0, 64, 109
1, 1154618, Control_c, 0, 64, 86
1, 1154638, Control_c, 0, 64, 69
1, 1154656, Control_c, 0, 64, 65
1, 1154675, Control_c, 0, 64, 71
1, 1154694, Control_c, 0, 64, 81
1, 1154695, Note_off_c, 0, 61, 50
1, 1154705, Note_off_c, 0, 46, 57
1, 1154712, Control_c, 0, 64, 94
1, 1154731, Control_c, 0, 64, 120
1, 1154749, Control_c, 0, 64, 127
1, 1154753, Note_off_c, 0, 73, 59
1, 1154753, Poly_aftertouch_c, 0, 73, 0
1, 1154754, Note_off_c, 0, 34, 50
1, 1154757, Note_off_c, 0, 70, 43
1, 1154757, Poly_aftertouch_c, 0, 70, 0
1, 1154892, Note_on_c, 0, 75, 73
1, 1154908, Note_on_c, 0, 72, 57
1, 1154910, Note_on_c, 0, 70, 46
1, 1154925, Note_on_c, 0, 42, 50
1, 1154931, Note_on_c, 0, 63, 45
1, 1154935, Note_on_c, 0, 30, 51
1, 1154963, Note_off_c, 0, 70, 58
1, 1154963, Poly_aftertouch_c, 0, 70, 0
1, 1154967, Note_off_c, 0, 72, 55
1, 1154969, Note_off_c, 0, 63, 60
1, 1155025, Note_off_c, 0, 42, 43
1, 1155030, Note_off_c, 0, 75, 63
1, 1155056, Note_off_c, 0, 30, 57
1, 1155183, Note_on_c, 0, 77, 72
1, 1155205, Note_on_c, 0, 73, 49
1, 1155235, Control_c, 0, 64, 120
1, 1155242, Note_on_c, 0, 68, 36
1, 1155246, Note_on_c, 0, 41, 38
1, 1155251, Note_on_c, 0, 65, 45
1, 1155251, Note_on_c, 0, 29, 38
1, 1155255, Control_c, 0, 64, 107
1, 1155273, Control_c, 0, 64, 87
1, 1155293, Control_c, 0, 64, 63
1, 1155310, Control_c, 0, 64, 37
1, 1155330, Control_c, 0, 64, 0
1, 1155367, Control_c, 0, 64, 29
1, 1155372, Note_off_c, 0, 65, 59
1, 1155372, Poly_aftertouch_c, 0, 65, 0
1, 1155386, Control_c, 0, 64, 52
1, 1155387, Note_off_c, 0, 77, 60
1, 1155387, Poly_aftertouch_c, 0, 77, 0
1, 1155404, Control_c, 0, 64, 73
1, 1155423, Control_c, 0, 64, 95
1, 1155443, Control_c, 0, 64, 127
1, 1155452, Note_off_c, 0, 73, 60
1, 1155452, Poly_aftertouch_c, 0, 73, 0
1, 1155563, Note_off_c, 0, 41, 51
1, 1155563, Poly_aftertouch_c, 0, 41, 0
1, 1155577, Note_on_c, 0, 73, 71
1, 1155583, Note_off_c, 0, 68, 51
1, 1155583, Poly_aftertouch_c, 0, 68, 0
1, 1155595, Note_on_c, 0, 61, 54
1, 1155644, Note_off_c, 0, 61, 60
1, 1155657, Note_off_c, 0, 73, 60
1, 1155657, Poly_aftertouch_c, 0, 73, 0
1, 1155822, Note_on_c, 0, 70, 63
1, 1155840, Note_on_c, 0, 66, 51
1, 1155846, Note_on_c, 0, 42, 41
1, 1155855, Note_on_c, 0, 58, 48
1, 1155855, Control_c, 0, 64, 115
1, 1155868, Note_on_c, 0, 30, 43
1, 1155872, Control_c, 0, 64, 85
1, 1155885, Note_off_c, 0, 29, 40
1, 1155885, Poly_aftertouch_c, 0, 29, 0
1, 1155890, Control_c, 0, 64, 62
1, 1155910, Control_c, 0, 64, 53
1, 1155928, Control_c, 0, 64, 56
1, 1155946, Control_c, 0, 64, 67
1, 1155965, Control_c, 0, 64, 79
1, 1155984, Control_c, 0, 64, 99
1, 1155992, Note_off_c, 0, 70, 62
1, 1155992, Poly_aftertouch_c, 0, 70, 0
1, 1156003, Control_c, 0, 64, 127
1, 1156020, Note_off_c, 0, 58, 61
1, 1156023, Note_off_c, 0, 66, 60
1, 1156209, Note_on_c, 0, 66, 53
1, 1156224, Note_on_c, 0, 63, 51
1, 1156236, Note_on_c, 0, 54, 43
1, 1156264, Note_off_c, 0, 30, 47
1, 1156299, Note_off_c, 0, 42, 47
1, 1156309, Note_off_c, 0, 63, 51
1, 1156349, Note_off_c, 0, 54, 57
1, 1156373, Note_off_c, 0, 66, 39
1, 1156506, Control_c, 0, 64, 121
1, 1156514, Note_on_c, 0, 65, 45
1, 1156524, Note_on_c, 0, 53, 33
1, 1156526, Control_c, 0, 64, 116
1, 1156527, Note_on_c, 0, 61, 47
1, 1156541, Note_on_c, 0, 43, 37
1, 1156545, Control_c, 0, 64, 110
1, 1156548, Note_on_c, 0, 31, 35
1, 1156565, Control_c, 0, 64, 101
1, 1156582, Control_c, 0, 64, 88
1, 1156602, Control_c, 0, 64, 70
1, 1156620, Control_c, 0, 64, 46
1, 1156638, Control_c, 0, 64, 0
1, 1156750, Control_c, 0, 64, 17
1, 1156769, Control_c, 0, 64, 44
1, 1156788, Control_c, 0, 64, 66
1, 1156807, Control_c, 0, 64, 84
1, 1156822, Note_off_c, 0, 61, 60
1, 1156823, Control_c, 0, 64, 110
1, 1156825, Note_off_c, 0, 43, 57
1, 1156844, Control_c, 0, 64, 127
1, 1156882, Note_off_c, 0, 53, 54
1, 1156882, Poly_aftertouch_c, 0, 53, 0
1, 1156938, Note_off_c, 0, 65, 57
1, 1156938, Poly_aftertouch_c, 0, 65, 0
1, 1157022, Note_off_c, 0, 31, 40
1, 1157266, Note_on_c, 0, 63, 36
1, 1157275, Note_on_c, 0, 60, 32
1, 1157276, Note_on_c, 0, 51, 24
1, 1157281, Note_on_c, 0, 44, 30
1, 1157291, Control_c, 0, 64, 120
1, 1157305, Note_on_c, 0, 32, 26
1, 1157311, Control_c, 0, 64, 110
1, 1157331, Control_c, 0, 64, 99
1, 1157349, Control_c, 0, 64, 85
1, 1157368, Control_c, 0, 64, 67
1, 1157388, Control_c, 0, 64, 46
1, 1157405, Control_c, 0, 64, 0
1, 1157481, Control_c, 0, 64, 37
1, 1157498, Control_c, 0, 64, 59
1, 1157518, Control_c, 0, 64, 78
1, 1157536, Control_c, 0, 64, 95
1, 1157554, Control_c, 0, 64, 113
1, 1157573, Control_c, 0, 64, 127
1, 1157592, Note_off_c, 0, 51, 46
1, 1157597, Note_off_c, 0, 60, 35
1, 1157597, Poly_aftertouch_c, 0, 60, 0
1, 1157608, Note_off_c, 0, 44, 49
1, 1157656, Note_off_c, 0, 63, 53
1, 1157667, Control_c, 0, 67, 8
1, 1157691, Note_off_c, 0, 32, 39
1, 1157723, Control_c, 0, 64, 121
1, 1157725, Control_c, 0, 67, 12
1, 1157742, Control_c, 0, 64, 117
1, 1157762, Control_c, 0, 64, 111
1, 1157763, Control_c, 0, 67, 18
1, 1157779, Control_c, 0, 64, 105
1, 1157781, Control_c, 0, 67, 22
1, 1157798, Control_c, 0, 64, 100
1, 1157800, Control_c, 0, 67, 26
1, 1157818, Control_c, 0, 67, 32
1, 1157835, Control_c, 0, 64, 93
1, 1157837, Control_c, 0, 67, 38
1, 1157854, Control_c, 0, 64, 88
1, 1157855, Control_c, 0, 67, 43
1, 1157872, Control_c, 0, 64, 81
1, 1157891, Control_c, 0, 64, 72
1, 1157894, Control_c, 0, 67, 47
1, 1157910, Control_c, 0, 64, 64
1, 1157930, Control_c, 0, 64, 58
1, 1157948, Control_c, 0, 64, 48
1, 1157963, Note_on_c, 0, 63, 44
1, 1157963, Control_c, 0, 64, 26
1, 1157984, Control_c, 0, 64, 0
1, 1157993, Note_on_c, 0, 54, 24
1, 1157996, Note_on_c, 0, 58, 29
1, 1158014, Note_on_c, 0, 39, 34
1, 1158019, Note_on_c, 0, 27, 32
1, 1158078, Control_c, 0, 64, 9
1, 1158082, Note_off_c, 0, 39, 54
1, 1158084, Note_off_c, 0, 27, 58
1, 1158097, Control_c, 0, 64, 34
1, 1158115, Control_c, 0, 64, 56
1, 1158135, Control_c, 0, 64, 72
1, 1158154, Control_c, 0, 64, 81
1, 1158154, Control_c, 0, 67, 43
1, 1158171, Control_c, 0, 64, 89
1, 1158190, Control_c, 0, 64, 96
1, 1158209, Note_on_c, 0, 39, 41
1, 1158209, Control_c, 0, 64, 105
1, 1158211, Note_on_c, 0, 27, 50
1, 1158227, Control_c, 0, 64, 117
1, 1158246, Control_c, 0, 64, 127
1, 1158248, Control_c, 0, 67, 36
1, 1158275, Note_off_c, 0, 39, 45
1, 1158275, Note_off_c, 0, 27, 53
1, 1158284, Control_c, 0, 67, 29
1, 1158303, Control_c, 0, 67, 25
1, 1158340, Control_c, 0, 67, 17
1, 1158360, Control_c, 0, 67, 13
1, 1158377, Control_c, 0, 67, 8
1, 1158415, Note_on_c, 0, 27, 53
1, 1158416, Note_on_c, 0, 39, 45
1, 1158458, Note_off_c, 0, 63, 51
1, 1158470, Note_off_c, 0, 58, 37
1, 1158490, Control_c, 0, 67, 0
1, 1158499, Note_off_c, 0, 39, 53
1, 1158523, Note_off_c, 0, 27, 53
1, 1158700, Note_on_c, 0, 66, 53
1, 1158706, Note_on_c, 0, 63, 42
1, 1158750, Note_on_c, 0, 58, 34
1, 1158753, Note_on_c, 0, 39, 39
1, 1158755, Note_on_c, 0, 27, 41
1, 1158908, Note_off_c, 0, 54, 37
1, 1158995, Control_c, 0, 64, 117
1, 1159014, Control_c, 0, 64, 96
1, 1159032, Control_c, 0, 64, 78
1, 1159050, Control_c, 0, 64, 71
1, 1159070, Control_c, 0, 64, 73
1, 1159088, Control_c, 0, 64, 79
1, 1159107, Control_c, 0, 64, 88
1, 1159126, Control_c, 0, 64, 104
1, 1159145, Control_c, 0, 64, 127
1, 1159231, Note_off_c, 0, 27, 54
1, 1159262, Note_off_c, 0, 39, 41
1, 1159417, Note_on_c, 0, 39, 52
1, 1159422, Note_on_c, 0, 27, 56
1, 1159522, Note_off_c, 0, 27, 58
1, 1159528, Note_off_c, 0, 39, 56
1, 1159619, Note_off_c, 0, 58, 40
1, 1159641, Note_off_c, 0, 66, 39
1, 1159647, Note_on_c, 0, 27, 57
1, 1159651, Note_on_c, 0, 39, 49
1, 1159723, Note_off_c, 0, 27, 59
1, 1159727, Note_off_c, 0, 63, 37
1, 1159728, Note_off_c, 0, 39, 54
1, 1159813, Note_on_c, 0, 65, 59
1, 1159827, Note_on_c, 0, 62, 52
1, 1159829, Note_on_c, 0, 56, 52
1, 1159840, Note_on_c, 0, 59, 47
1, 1159846, Note_on_c, 0, 27, 66
1, 1159854, Note_on_c, 0, 39, 58
1, 1159877, Note_off_c, 0, 62, 64
1, 1159881, Note_off_c, 0, 59, 62
1, 1159881, Note_off_c, 0, 56, 58
1, 1159893, Note_off_c, 0, 65, 62
1, 1159893, Poly_aftertouch_c, 0, 65, 0
1, 1159946, Note_off_c, 0, 39, 55
1, 1159949, Note_off_c, 0, 27, 59
1, 1160097, Note_on_c, 0, 68, 68
1, 1160106, Note_on_c, 0, 65, 53
1, 1160129, Note_on_c, 0, 39, 49
1, 1160138, Note_on_c, 0, 27, 52
1, 1160145, Note_on_c, 0, 59, 41
1, 1160149, Note_on_c, 0, 62, 33
1, 1160173, Control_c, 0, 64, 120
1, 1160192, Control_c, 0, 64, 97
1, 1160210, Control_c, 0, 64, 77
1, 1160229, Control_c, 0, 64, 66
1, 1160247, Control_c, 0, 64, 67
1, 1160267, Control_c, 0, 64, 77
1, 1160272, Note_off_c, 0, 62, 47
1, 1160274, Note_off_c, 0, 59, 56
1, 1160285, Control_c, 0, 64, 89
1, 1160304, Control_c, 0, 64, 109
1, 1160322, Control_c, 0, 64, 127
1, 1160399, Note_off_c, 0, 65, 59
1, 1160399, Poly_aftertouch_c, 0, 65, 0
1, 1160502, Note_on_c, 0, 66, 71
1, 1160522, Note_on_c, 0, 63, 60
1, 1160524, Note_on_c, 0, 58, 52
1, 1160527, Note_off_c, 0, 68, 61
1, 1160527, Poly_aftertouch_c, 0, 68, 0
1, 1160566, Note_off_c, 0, 58, 63
1, 1160568, Note_off_c, 0, 27, 54
1, 1160571, Note_off_c, 0, 66, 65
1, 1160596, Note_off_c, 0, 63, 44
1, 1160642, Note_off_c, 0, 39, 41
1, 1160745, Note_on_c, 0, 71, 82
1, 1160759, Note_on_c, 0, 68, 51
1, 1160772, Note_on_c, 0, 27, 57
1, 1160777, Note_on_c, 0, 39, 57
1, 1160788, Note_on_c, 0, 65, 43
1, 1160788, Control_c, 0, 64, 104
1, 1160793, Note_on_c, 0, 62, 38
1, 1160808, Control_c, 0, 64, 74
1, 1160827, Control_c, 0, 64, 56
1, 1160846, Control_c, 0, 64, 51
1, 1160848, Note_off_c, 0, 39, 57
1, 1160861, Note_off_c, 0, 27, 61
1, 1160865, Control_c, 0, 64, 60
1, 1160883, Control_c, 0, 64, 74
1, 1160902, Control_c, 0, 64, 92
1, 1160920, Control_c, 0, 64, 123
1, 1160939, Control_c, 0, 64, 127
1, 1160956, Note_on_c, 0, 27, 60
1, 1160965, Note_on_c, 0, 39, 60
1, 1161023, Note_off_c, 0, 39, 56
1, 1161032, Note_off_c, 0, 27, 58
1, 1161098, Poly_aftertouch_c, 0, 65, 24
1, 1161114, Note_off_c, 0, 62, 41
1, 1161133, Note_on_c, 0, 70, 80
1, 1161141, Note_off_c, 0, 65, 40
1, 1161141, Poly_aftertouch_c, 0, 65, 0
1, 1161152, Note_on_c, 0, 39, 61
1, 1161162, Note_on_c, 0, 27, 64
1, 1161169, Note_off_c, 0, 68, 57
1, 1161169, Poly_aftertouch_c, 0, 68, 0
1, 1161171, Note_off_c, 0, 71, 61
1, 1161188, Note_off_c, 0, 70, 66
1, 1161188, Poly_aftertouch_c, 0, 70, 0
1, 1161226, Note_off_c, 0, 39, 51
1, 1161232, Note_off_c, 0, 27, 49
1, 1161430, Note_on_c, 0, 77, 80
1, 1161457, Note_on_c, 0, 74, 57
1, 1161478, Note_on_c, 0, 39, 51
1, 1161479, Note_on_c, 0, 68, 50
1, 1161488, Note_on_c, 0, 71, 37
1, 1161495, Note_on_c, 0, 27, 48
1, 1161519, Control_c, 0, 64, 101
1, 1161537, Control_c, 0, 64, 70
1, 1161557, Control_c, 0, 64, 40
1, 1161576, Control_c, 0, 64, 0
1, 1161593, Control_c, 0, 64, 17
1, 1161612, Control_c, 0, 64, 45
1, 1161631, Control_c, 0, 64, 68
1, 1161650, Control_c, 0, 64, 91
1, 1161668, Control_c, 0, 64, 127
1, 1161687, Note_off_c, 0, 74, 62
1, 1161708, Note_off_c, 0, 68, 54
1, 1161708, Poly_aftertouch_c, 0, 68, 0
1, 1161724, Note_off_c, 0, 71, 19
1, 1161847, Note_on_c, 0, 75, 80
1, 1161873, Note_on_c, 0, 70, 59
1, 1161875, Note_on_c, 0, 66, 53
1, 1161897, Note_off_c, 0, 77, 62
1, 1161897, Poly_aftertouch_c, 0, 77, 0
1, 1161907, Note_off_c, 0, 27, 53
1, 1161919, Note_off_c, 0, 70, 64
1, 1161919, Poly_aftertouch_c, 0, 70, 0
1, 1161927, Note_off_c, 0, 39, 51
1, 1161945, Note_off_c, 0, 66, 61
1, 1161948, Note_off_c, 0, 75, 64
1, 1162155, Note_on_c, 0, 73, 80
1, 1162177, Note_on_c, 0, 70, 60
1, 1162205, Note_on_c, 0, 61, 45
1, 1162213, Note_on_c, 0, 67, 38
1, 1162222, Note_on_c, 0, 27, 44
1, 1162226, Note_on_c, 0, 39, 39
1, 1162266, Control_c, 0, 64, 104
1, 1162287, Control_c, 0, 64, 78
1, 1162304, Control_c, 0, 64, 49
1, 1162322, Control_c, 0, 64, 0
1, 1162379, Control_c, 0, 64, 23
1, 1162399, Control_c, 0, 64, 51
1, 1162416, Control_c, 0, 64, 75
1, 1162436, Control_c, 0, 64, 101
1, 1162453, Control_c, 0, 64, 127
1, 1162648, Note_off_c, 0, 39, 57
1, 1162653, Note_off_c, 0, 27, 59
1, 1162816, Note_on_c, 0, 72, 59
1, 1162851, Note_on_c, 0, 28, 48
1, 1162853, Note_on_c, 0, 40, 47
1, 1162860, Note_off_c, 0, 73, 62
1, 1162860, Poly_aftertouch_c, 0, 73, 0
1, 1162884, Control_c, 0, 64, 95
1, 1162904, Control_c, 0, 64, 66
1, 1162921, Control_c, 0, 64, 43
1, 1162940, Control_c, 0, 64, 25
1, 1162959, Control_c, 0, 64, 36
1, 1162978, Control_c, 0, 64, 55
1, 1162995, Control_c, 0, 64, 76
1, 1163015, Control_c, 0, 64, 100
1, 1163034, Control_c, 0, 64, 127
1, 1163049, Note_on_c, 0, 73, 72
1, 1163097, Note_off_c, 0, 72, 60
1, 1163101, Note_off_c, 0, 70, 40
1, 1163101, Poly_aftertouch_c, 0, 70, 0
1, 1163193, Note_off_c, 0, 40, 49
1, 1163204, Note_off_c, 0, 28, 36
1, 1163204, Note_on_c, 0, 72, 73
1, 1163244, Note_off_c, 0, 67, 58
1, 1163266, Note_off_c, 0, 73, 48
1, 1163266, Poly_aftertouch_c, 0, 73, 0
1, 1163280, Poly_aftertouch_c, 0, 61, 24
1, 1163303, Note_off_c, 0, 72, 60
1, 1163325, Note_off_c, 0, 61, 40
1, 1163325, Poly_aftertouch_c, 0, 61, 0
1, 1163448, Note_on_c, 0, 71, 67
1, 1163459, Note_on_c, 0, 68, 55
1, 1163465, Note_on_c, 0, 61, 44
1, 1163477, Note_on_c, 0, 29, 45
1, 1163487, Note_on_c, 0, 41, 40
1, 1163520, Control_c, 0, 64, 120
1, 1163538, Control_c, 0, 64, 94
1, 1163557, Control_c, 0, 64, 66
1, 1163577, Control_c, 0, 64, 39
1, 1163594, Control_c, 0, 64, 0
1, 1163651, Control_c, 0, 64, 20
1, 1163669, Control_c, 0, 64, 44
1, 1163688, Control_c, 0, 64, 68
1, 1163707, Control_c, 0, 64, 93
1, 1163725, Control_c, 0, 64, 127
1, 1163727, Note_off_c, 0, 41, 55
1, 1163727, Poly_aftertouch_c, 0, 41, 0
1, 1163758, Note_off_c, 0, 68, 59
1, 1163758, Poly_aftertouch_c, 0, 68, 0
1, 1164066, Note_on_c, 0, 66, 47
1, 1164074, Note_on_c, 0, 70, 57
1, 1164076, Note_on_c, 0, 42, 37
1, 1164078, Note_off_c, 0, 71, 51
1, 1164080, Control_c, 0, 64, 104
1, 1164085, Note_on_c, 0, 30, 41
1, 1164097, Note_off_c, 0, 29, 41
1, 1164097, Poly_aftertouch_c, 0, 29, 0
1, 1164098, Control_c, 0, 64, 74
1, 1164118, Control_c, 0, 64, 53
1, 1164138, Control_c, 0, 64, 50
1, 1164155, Control_c, 0, 64, 58
1, 1164174, Control_c, 0, 64, 72
1, 1164194, Control_c, 0, 64, 89
1, 1164211, Control_c, 0, 64, 118
1, 1164230, Control_c, 0, 64, 127
1, 1164288, Note_off_c, 0, 70, 56
1, 1164288, Poly_aftertouch_c, 0, 70, 0
1, 1164294, Note_on_c, 0, 71, 59
1, 1164452, Note_off_c, 0, 30, 42
1, 1164452, Note_on_c, 0, 70, 65
1, 1164484, Note_off_c, 0, 71, 60
1, 1164490, Note_off_c, 0, 66, 50
1, 1164497, Note_off_c, 0, 42, 40
1, 1164507, Note_off_c, 0, 61, 55
1, 1164507, Poly_aftertouch_c, 0, 61, 0
1, 1164535, Note_off_c, 0, 70, 63
1, 1164535, Poly_aftertouch_c, 0, 70, 0
1, 1164705, Note_on_c, 0, 69, 62
1, 1164717, Note_on_c, 0, 43, 40
1, 1164720, Note_on_c, 0, 31, 41
1, 1164722, Note_on_c, 0, 61, 36
1, 1164737, Note_on_c, 0, 64, 42
1, 1164754, Control_c, 0, 64, 107
1, 1164773, Control_c, 0, 64, 77
1, 1164792, Control_c, 0, 64, 47
1, 1164810, Control_c, 0, 64, 0
1, 1164885, Control_c, 0, 64, 24
1, 1164903, Control_c, 0, 64, 50
1, 1164923, Control_c, 0, 64, 73
1, 1164940, Control_c, 0, 64, 95
1, 1164959, Control_c, 0, 64, 124
1, 1164964, Note_off_c, 0, 43, 55
1, 1164990, Note_off_c, 0, 64, 36
1, 1165000, Note_off_c, 0, 61, 40
1, 1165000, Poly_aftertouch_c, 0, 61, 0
1, 1165109, Control_c, 0, 67, 8
1, 1165203, Control_c, 0, 67, 13
1, 1165211, Note_off_c, 0, 31, 32
1, 1165259, Control_c, 0, 67, 18
1, 1165287, Note_off_c, 0, 69, 57
1, 1165294, Control_c, 0, 67, 25
1, 1165304, Note_on_c, 0, 68, 52
1, 1165312, Control_c, 0, 67, 30
1, 1165320, Note_on_c, 0, 61, 43
1, 1165330, Note_on_c, 0, 44, 30
1, 1165331, Control_c, 0, 67, 35
1, 1165342, Note_on_c, 0, 64, 36
1, 1165345, Note_on_c, 0, 32, 35
1, 1165349, Control_c, 0, 67, 41
1, 1165371, Control_c, 0, 64, 114
1, 1165372, Control_c, 0, 67, 47
1, 1165390, Control_c, 0, 64, 100
1, 1165392, Control_c, 0, 67, 53
1, 1165408, Control_c, 0, 64, 80
1, 1165411, Control_c, 0, 67, 59
1, 1165429, Control_c, 0, 64, 60
1, 1165431, Control_c, 0, 67, 65
1, 1165445, Control_c, 0, 64, 45
1, 1165446, Control_c, 0, 67, 69
1, 1165465, Control_c, 0, 64, 39
1, 1165483, Control_c, 0, 64, 48
1, 1165484, Control_c, 0, 67, 76
1, 1165501, Control_c, 0, 64, 61
1, 1165516, Note_off_c, 0, 68, 54
1, 1165516, Poly_aftertouch_c, 0, 68, 0
1, 1165520, Control_c, 0, 64, 74
1, 1165521, Control_c, 0, 67, 82
1, 1165535, Note_on_c, 0, 69, 58
1, 1165539, Control_c, 0, 64, 86
1, 1165558, Control_c, 0, 64, 102
1, 1165576, Control_c, 0, 64, 120
1, 1165577, Control_c, 0, 67, 86
1, 1165596, Control_c, 0, 64, 127
1, 1165682, Note_off_c, 0, 32, 39
1, 1165700, Note_on_c, 0, 68, 56
1, 1165711, Note_off_c, 0, 64, 40
1, 1165728, Note_off_c, 0, 44, 37
1, 1165752, Note_off_c, 0, 69, 58
1, 1165779, Note_off_c, 0, 61, 35
1, 1165779, Poly_aftertouch_c, 0, 61, 0
1, 1165845, Note_off_c, 0, 68, 36
1, 1165845, Poly_aftertouch_c, 0, 68, 0
1, 1165989, Control_c, 0, 64, 122
1, 1165992, Note_on_c, 0, 61, 37
1, 1165999, Note_on_c, 0, 67, 48
1, 1166005, Note_on_c, 0, 63, 46
1, 1166007, Control_c, 0, 64, 115
1, 1166024, Control_c, 0, 64, 107
1, 1166027, Note_on_c, 0, 33, 37
1, 1166033, Note_on_c, 0, 45, 34
1, 1166044, Control_c, 0, 64, 98
1, 1166063, Control_c, 0, 64, 87
1, 1166083, Control_c, 0, 64, 74
1, 1166085, Control_c, 0, 67, 91
1, 1166100, Control_c, 0, 64, 59
1, 1166119, Control_c, 0, 64, 27
1, 1166122, Control_c, 0, 67, 97
1, 1166138, Control_c, 0, 64, 0
1, 1166174, Control_c, 0, 67, 101
1, 1166212, Control_c, 0, 64, 22
1, 1166231, Control_c, 0, 64, 41
1, 1166249, Control_c, 0, 64, 58
1, 1166269, Control_c, 0, 64, 76
1, 1166286, Control_c, 0, 64, 91
1, 1166306, Control_c, 0, 64, 108
1, 1166325, Control_c, 0, 64, 123
1, 1166328, Note_off_c, 0, 61, 49
1, 1166328, Poly_aftertouch_c, 0, 61, 0
1, 1166337, Note_off_c, 0, 67, 55
1, 1166342, Note_off_c, 0, 63, 47
1, 1166342, Control_c, 0, 64, 127
1, 1166380, Note_off_c, 0, 45, 40
1, 1166382, Note_off_c, 0, 33, 35
1, 1166859, Note_on_c, 0, 61, 40
1, 1166863, Note_on_c, 0, 68, 40
1, 1166883, Note_on_c, 0, 56, 30
1, 1166904, Control_c, 0, 64, 123
1, 1166942, Control_c, 0, 64, 117
1, 1166955, Note_on_c, 0, 44, 29
1, 1166964, Note_on_c, 0, 32, 31
1, 1166979, Control_c, 0, 64, 108
1, 1166998, Control_c, 0, 64, 102
1, 1167016, Control_c, 0, 64, 95
1, 1167035, Control_c, 0, 64, 87
1, 1167054, Control_c, 0, 64, 78
1, 1167072, Control_c, 0, 64, 70
1, 1167091, Control_c, 0, 64, 63
1, 1167109, Control_c, 0, 64, 56
1, 1167129, Control_c, 0, 64, 48
1, 1167147, Control_c, 0, 64, 33
1, 1167166, Control_c, 0, 64, 0
1, 1167315, Control_c, 0, 64, 20
1, 1167334, Control_c, 0, 64, 30
1, 1167353, Control_c, 0, 64, 39
1, 1167371, Control_c, 0, 64, 47
1, 1167390, Control_c, 0, 64, 58
1, 1167411, Control_c, 0, 64, 68
1, 1167427, Control_c, 0, 64, 74
1, 1167446, Control_c, 0, 64, 79
1, 1167465, Control_c, 0, 64, 83
1, 1167485, Control_c, 0, 64, 87
1, 1167502, Control_c, 0, 64, 92
1, 1167521, Control_c, 0, 64, 97
1, 1167540, Control_c, 0, 64, 102
1, 1167558, Control_c, 0, 64, 109
1, 1167578, Control_c, 0, 64, 114
1, 1167596, Control_c, 0, 64, 119
1, 1167633, Control_c, 0, 64, 124
1, 1167746, Note_off_c, 0, 68, 39
1, 1167746, Poly_aftertouch_c, 0, 68, 0
1, 1167760, Note_off_c, 0, 56, 31
1, 1167795, Note_off_c, 0, 61, 40
1, 1167795, Poly_aftertouch_c, 0, 61, 0
1, 1168494, Control_c, 0, 64, 120
1, 1168504, Note_on_c, 0, 63, 29
1, 1168521, Note_on_c, 0, 60, 26
1, 1168536, Note_on_c, 0, 56, 24
1, 1168552, Control_c, 0, 64, 115
1, 1168587, Control_c, 0, 64, 109
1, 1168606, Control_c, 0, 64, 105
1, 1168625, Control_c, 0, 64, 100
1, 1168643, Control_c, 0, 64, 92
1, 1168661, Control_c, 0, 64, 81
1, 1168681, Control_c, 0, 64, 66
1, 1168699, Control_c, 0, 64, 51
1, 1168717, Control_c, 0, 64, 40
1, 1168755, Control_c, 0, 64, 49
1, 1168774, Control_c, 0, 64, 59
1, 1168792, Control_c, 0, 64, 68
1, 1168812, Control_c, 0, 64, 75
1, 1168820, Poly_aftertouch_c, 0, 60, 20
1, 1168828, Note_off_c, 0, 32, 47
1, 1168829, Note_off_c, 0, 60, 37
1, 1168829, Poly_aftertouch_c, 0, 60, 0
1, 1168830, Control_c, 0, 64, 84
1, 1168848, Control_c, 0, 64, 93
1, 1168869, Control_c, 0, 64, 101
1, 1168886, Control_c, 0, 64, 106
1, 1168915, Note_off_c, 0, 44, 42
1, 1168921, Note_off_c, 0, 63, 40
1, 1168923, Control_c, 0, 64, 111
1, 1168927, Note_off_c, 0, 56, 42
1, 1169129, Control_c, 0, 64, 107
1, 1169186, Control_c, 0, 64, 102
1, 1169224, Control_c, 0, 64, 95
1, 1169242, Control_c, 0, 64, 91
1, 1169261, Control_c, 0, 64, 87
1, 1169279, Control_c, 0, 64, 81
1, 1169298, Control_c, 0, 64, 75
1, 1169316, Control_c, 0, 64, 70
1, 1169335, Control_c, 0, 64, 66
1, 1169353, Control_c, 0, 64, 62
1, 1169372, Control_c, 0, 64, 60
1, 1169390, Control_c, 0, 64, 57
1, 1169410, Control_c, 0, 64, 55
1, 1169428, Control_c, 0, 64, 51
1, 1169447, Control_c, 0, 64, 44
1, 1169466, Control_c, 0, 64, 36
1, 1169485, Control_c, 0, 64, 30
1, 1169486, Control_c, 0, 67, 97
1, 1169522, Note_on_c, 0, 66, 37
1, 1169532, Note_on_c, 0, 63, 32
1, 1169560, Note_on_c, 0, 51, 28
1, 1169570, Note_on_c, 0, 54, 12
1, 1169575, Note_on_c, 0, 39, 30
1, 1169582, Note_on_c, 0, 58, 13
1, 1169652, Control_c, 0, 64, 38
1, 1169673, Control_c, 0, 64, 43
1, 1169690, Control_c, 0, 64, 50
1, 1169709, Control_c, 0, 64, 56
1, 1169710, Control_c, 0, 67, 92
1, 1169728, Control_c, 0, 64, 62
1, 1169746, Control_c, 0, 64, 68
1, 1169747, Control_c, 0, 67, 87
1, 1169757, Note_off_c, 0, 58, 26
1, 1169764, Control_c, 0, 64, 72
1, 1169784, Control_c, 0, 64, 76
1, 1169786, Control_c, 0, 67, 80
1, 1169802, Control_c, 0, 64, 82
1, 1169803, Control_c, 0, 67, 75
1, 1169821, Control_c, 0, 64, 90
1, 1169824, Control_c, 0, 67, 71
1, 1169839, Control_c, 0, 64, 99
1, 1169859, Control_c, 0, 64, 109
1, 1169861, Control_c, 0, 67, 65
1, 1169878, Control_c, 0, 64, 117
1, 1169879, Note_off_c, 0, 54, 42
1, 1169896, Control_c, 0, 64, 124
1, 1169897, Control_c, 0, 67, 60
1, 1169941, Note_off_c, 0, 51, 39
1, 1169954, Note_off_c, 0, 63, 43
1, 1169989, Control_c, 0, 67, 56
1, 1170022, Note_off_c, 0, 66, 59
1, 1170102, Control_c, 0, 67, 51
1, 1170131, Note_off_c, 0, 39, 38
1, 1170289, Control_c, 0, 67, 47
1, 1170469, Note_on_c, 0, 70, 47
1, 1170493, Note_on_c, 0, 65, 29
1, 1170523, Note_on_c, 0, 37, 31
1, 1170544, Note_on_c, 0, 49, 23
1, 1170546, Note_on_c, 0, 58, 11
1, 1170645, Control_c, 0, 67, 43
1, 1170681, Control_c, 0, 64, 113
1, 1170700, Control_c, 0, 64, 105
1, 1170718, Control_c, 0, 64, 96
1, 1170737, Control_c, 0, 64, 82
1, 1170757, Control_c, 0, 64, 67
1, 1170760, Control_c, 0, 67, 38
1, 1170775, Control_c, 0, 64, 55
1, 1170793, Control_c, 0, 64, 45
1, 1170793, Control_c, 0, 67, 33
1, 1170813, Control_c, 0, 64, 38
1, 1170831, Control_c, 0, 67, 28
1, 1170850, Control_c, 0, 64, 45
1, 1170868, Control_c, 0, 64, 51
1, 1170888, Control_c, 0, 64, 58
1, 1170890, Control_c, 0, 67, 22
1, 1170906, Control_c, 0, 64, 65
1, 1170924, Control_c, 0, 64, 71
1, 1170927, Control_c, 0, 67, 16
1, 1170943, Control_c, 0, 64, 77
1, 1170962, Control_c, 0, 64, 83
1, 1170963, Control_c, 0, 67, 9
1, 1170980, Control_c, 0, 64, 92
1, 1170998, Control_c, 0, 64, 101
1, 1171019, Control_c, 0, 64, 110
1, 1171036, Control_c, 0, 64, 119
1, 1171055, Control_c, 0, 64, 125
1, 1171175, Note_off_c, 0, 58, 40
1, 1171224, Control_c, 0, 67, 0
1, 1171296, Note_off_c, 0, 49, 40
1, 1171296, Poly_aftertouch_c, 0, 49, 0
1, 1171384, Note_off_c, 0, 65, 41
1, 1171384, Poly_aftertouch_c, 0, 65, 0
1, 1171429, Note_off_c, 0, 70, 38
1, 1171429, Poly_aftertouch_c, 0, 70, 0
1, 1171491, Note_off_c, 0, 37, 27
1, 1171859, Note_on_c, 0, 75, 45
1, 1171886, Note_on_c, 0, 68, 29
1, 1171910, Note_on_c, 0, 47, 28
1, 1171914, Note_on_c, 0, 63, 19
1, 1171916, Note_on_c, 0, 35, 29
1, 1171935, Control_c, 0, 64, 114
1, 1171952, Control_c, 0, 64, 93
1, 1171972, Control_c, 0, 64, 78
1, 1171981, Note_off_c, 0, 68, 56
1, 1171981, Poly_aftertouch_c, 0, 68, 0
1, 1172009, Control_c, 0, 64, 83
1, 1172028, Control_c, 0, 64, 93
1, 1172046, Control_c, 0, 64, 106
1, 1172049, Note_off_c, 0, 75, 62
1, 1172051, Note_off_c, 0, 35, 53
1, 1172051, Note_off_c, 0, 47, 47
1, 1172052, Note_off_c, 0, 63, 45
1, 1172064, Control_c, 0, 64, 123
1, 1172066, Control_c, 0, 67, 8
1, 1172083, Control_c, 0, 64, 127
1, 1172260, Note_on_c, 0, 77, 63
1, 1172277, Note_on_c, 0, 75, 43
1, 1172279, Note_on_c, 0, 71, 44
1, 1172285, Note_on_c, 0, 44, 51
1, 1172289, Note_on_c, 0, 65, 46
1, 1172301, Note_on_c, 0, 32, 48
1, 1172324, Note_off_c, 0, 44, 63
1, 1172325, Control_c, 0, 67, 12
1, 1172327, Note_off_c, 0, 71, 61
1, 1172332, Note_off_c, 0, 65, 63
1, 1172332, Note_off_c, 0, 77, 58
1, 1172332, Poly_aftertouch_c, 0, 65, 0
1, 1172332, Poly_aftertouch_c, 0, 77, 0
1, 1172351, Note_off_c, 0, 32, 60
1, 1172359, Note_off_c, 0, 75, 58
1, 1172420, Control_c, 0, 67, 16
1, 1172514, Control_c, 0, 67, 21
1, 1172529, Note_on_c, 0, 75, 57
1, 1172530, Note_on_c, 0, 78, 65
1, 1172550, Control_c, 0, 64, 109
1, 1172568, Control_c, 0, 64, 88
1, 1172579, Note_on_c, 0, 66, 34
1, 1172581, Note_on_c, 0, 39, 39
1, 1172583, Note_on_c, 0, 27, 40
1, 1172587, Note_on_c, 0, 70, 33
1, 1172587, Control_c, 0, 64, 65
1, 1172606, Control_c, 0, 64, 50
1, 1172645, Control_c, 0, 64, 61
1, 1172663, Control_c, 0, 64, 72
1, 1172683, Control_c, 0, 64, 86
1, 1172701, Control_c, 0, 64, 108
1, 1172719, Control_c, 0, 64, 127
1, 1172772, Note_off_c, 0, 27, 54
1, 1172773, Note_off_c, 0, 39, 23
1, 1172774, Note_off_c, 0, 66, 44
1, 1172779, Note_off_c, 0, 78, 62
1, 1172799, Note_off_c, 0, 70, 41
1, 1172799, Poly_aftertouch_c, 0, 70, 0
1, 1172813, Control_c, 0, 67, 16
1, 1172825, Note_off_c, 0, 75, 63
1, 1172831, Control_c, 0, 67, 12
1, 1172914, Note_on_c, 0, 77, 61
1, 1172933, Note_on_c, 0, 70, 53
1, 1172936, Note_on_c, 0, 74, 35
1, 1172944, Note_on_c, 0, 65, 42
1, 1172944, Note_on_c, 0, 41, 47
1, 1172954, Note_on_c, 0, 29, 45
1, 1172974, Note_off_c, 0, 74, 53
1, 1172980, Control_c, 0, 67, 0
1, 1172984, Note_off_c, 0, 65, 57
1, 1172984, Poly_aftertouch_c, 0, 65, 0
1, 1173008, Note_off_c, 0, 41, 59
1, 1173008, Poly_aftertouch_c, 0, 41, 0
1, 1173024, Note_off_c, 0, 70, 58
1, 1173024, Poly_aftertouch_c, 0, 70, 0
1, 1173166, Note_on_c, 0, 75, 67
1, 1173168, Control_c, 0, 64, 113
1, 1173177, Note_off_c, 0, 77, 29
1, 1173177, Poly_aftertouch_c, 0, 77, 0
1, 1173186, Control_c, 0, 64, 86
1, 1173191, Note_on_c, 0, 70, 50
1, 1173196, Note_on_c, 0, 42, 47
1, 1173199, Note_on_c, 0, 63, 49
1, 1173201, Note_on_c, 0, 30, 47
1, 1173204, Control_c, 0, 64, 68
1, 1173223, Note_off_c, 0, 29, 38
1, 1173223, Poly_aftertouch_c, 0, 29, 0
1, 1173223, Control_c, 0, 64, 67
1, 1173244, Control_c, 0, 64, 75
1, 1173249, Note_off_c, 0, 70, 59
1, 1173249, Poly_aftertouch_c, 0, 70, 0
1, 1173261, Control_c, 0, 64, 89
1, 1173280, Control_c, 0, 64, 110
1, 1173288, Note_off_c, 0, 75, 64
1, 1173298, Control_c, 0, 64, 127
1, 1173356, Note_off_c, 0, 63, 60
1, 1173405, Note_off_c, 0, 42, 60
1, 1173413, Note_off_c, 0, 30, 58
1, 1173541, Control_c, 0, 64, 111
1, 1173554, Note_on_c, 0, 70, 62
1, 1173559, Note_on_c, 0, 73, 63
1, 1173560, Control_c, 0, 64, 105
1, 1173580, Control_c, 0, 64, 117
1, 1173581, Note_on_c, 0, 31, 49
1, 1173582, Note_on_c, 0, 43, 49
1, 1173583, Note_on_c, 0, 61, 52
1, 1173598, Control_c, 0, 64, 127
1, 1173638, Note_off_c, 0, 43, 60
1, 1173643, Note_off_c, 0, 70, 63
1, 1173643, Note_off_c, 0, 73, 64
1, 1173643, Poly_aftertouch_c, 0, 70, 0
1, 1173643, Poly_aftertouch_c, 0, 73, 0
1, 1173652, Note_off_c, 0, 61, 53
1, 1173652, Poly_aftertouch_c, 0, 61, 0
1, 1173726, Note_off_c, 0, 31, 51
1, 1173848, Note_on_c, 0, 71, 65
1, 1173857, Note_on_c, 0, 68, 61
1, 1173877, Control_c, 0, 64, 117
1, 1173884, Note_on_c, 0, 44, 50
1, 1173895, Note_on_c, 0, 59, 42
1, 1173896, Control_c, 0, 64, 104
1, 1173897, Note_on_c, 0, 32, 44
1, 1173917, Control_c, 0, 64, 88
1, 1173934, Control_c, 0, 64, 67
1, 1173953, Control_c, 0, 64, 44
1, 1173971, Control_c, 0, 64, 0
1, 1174066, Control_c, 0, 64, 34
1, 1174084, Control_c, 0, 64, 60
1, 1174104, Control_c, 0, 64, 82
1, 1174122, Control_c, 0, 64, 103
1, 1174140, Control_c, 0, 64, 125
1, 1174154, Note_off_c, 0, 59, 36
1, 1174197, Note_off_c, 0, 71, 58
1, 1174197, Note_off_c, 0, 44, 51
1, 1174316, Note_off_c, 0, 68, 61
1, 1174316, Poly_aftertouch_c, 0, 68, 0
1, 1174427, Note_off_c, 0, 32, 35
1, 1174677, Note_on_c, 0, 75, 60
1, 1174693, Note_on_c, 0, 70, 48
1, 1174714, Note_on_c, 0, 63, 39
1, 1174723, Note_on_c, 0, 42, 40
1, 1174739, Note_on_c, 0, 30, 41
1, 1174777, Control_c, 0, 64, 119
1, 1174796, Control_c, 0, 64, 115
1, 1174832, Control_c, 0, 64, 108
1, 1174870, Control_c, 0, 64, 101
1, 1174888, Control_c, 0, 64, 95
1, 1174907, Control_c, 0, 64, 85
1, 1174927, Control_c, 0, 64, 73
1, 1174944, Control_c, 0, 64, 61
1, 1174963, Control_c, 0, 64, 47
1, 1174982, Control_c, 0, 64, 11
1, 1175001, Control_c, 0, 64, 0
1, 1175112, Control_c, 0, 64, 24
1, 1175132, Control_c, 0, 64, 47
1, 1175149, Control_c, 0, 64, 69
1, 1175169, Control_c, 0, 64, 83
1, 1175188, Control_c, 0, 64, 93
1, 1175207, Control_c, 0, 64, 105
1, 1175226, Control_c, 0, 64, 121
1, 1175235, Note_off_c, 0, 63, 51
1, 1175243, Control_c, 0, 64, 127
1, 1175411, Note_off_c, 0, 70, 55
1, 1175411, Poly_aftertouch_c, 0, 70, 0
1, 1175432, Note_off_c, 0, 75, 57
1, 1175435, Note_off_c, 0, 42, 32
1, 1175529, Note_off_c, 0, 30, 35
1, 1175967, Note_on_c, 0, 80, 59
1, 1175985, Note_on_c, 0, 77, 45
1, 1176015, Note_on_c, 0, 71, 28
1, 1176016, Note_on_c, 0, 29, 38
1, 1176020, Note_on_c, 0, 68, 21
1, 1176028, Control_c, 0, 64, 107
1, 1176035, Note_on_c, 0, 41, 22
1, 1176048, Control_c, 0, 64, 88
1, 1176066, Control_c, 0, 64, 75
1, 1176096, Note_off_c, 0, 71, 41
1, 1176102, Control_c, 0, 64, 87
1, 1176122, Control_c, 0, 64, 104
1, 1176141, Note_off_c, 0, 77, 59
1, 1176141, Poly_aftertouch_c, 0, 77, 0
1, 1176141, Control_c, 0, 64, 127
1, 1176190, Note_off_c, 0, 41, 41
1, 1176190, Poly_aftertouch_c, 0, 41, 0
1, 1176201, Note_off_c, 0, 80, 62
1, 1176211, Note_off_c, 0, 68, 42
1, 1176211, Poly_aftertouch_c, 0, 68, 0
1, 1176216, Control_c, 0, 67, 8
1, 1176422, Control_c, 0, 67, 12
1, 1176434, Note_on_c, 0, 82, 70
1, 1176448, Note_on_c, 0, 78, 60
1, 1176475, Note_on_c, 0, 70, 46
1, 1176481, Note_on_c, 0, 27, 40
1, 1176486, Note_on_c, 0, 39, 28
1, 1176500, Note_off_c, 0, 29, 31
1, 1176500, Poly_aftertouch_c, 0, 29, 0
1, 1176515, Control_c, 0, 67, 16
1, 1176552, Control_c, 0, 67, 20
1, 1176558, Note_off_c, 0, 78, 52
1, 1176569, Note_off_c, 0, 70, 51
1, 1176569, Poly_aftertouch_c, 0, 70, 0
1, 1176573, Note_off_c, 0, 39, 42
1, 1176590, Control_c, 0, 67, 26
1, 1176599, Note_off_c, 0, 82, 60
1, 1176626, Control_c, 0, 67, 31
1, 1176631, Note_off_c, 0, 27, 48
1, 1176702, Control_c, 0, 67, 35
1, 1176761, Note_on_c, 0, 83, 70
1, 1176781, Note_on_c, 0, 80, 54
1, 1176812, Note_on_c, 0, 38, 34
1, 1176815, Note_on_c, 0, 71, 38
1, 1176815, Control_c, 0, 67, 41
1, 1176821, Note_on_c, 0, 26, 45
1, 1176833, Control_c, 0, 64, 114
1, 1176851, Control_c, 0, 64, 95
1, 1176871, Control_c, 0, 64, 70
1, 1176889, Control_c, 0, 64, 51
1, 1176890, Control_c, 0, 67, 45
1, 1176907, Control_c, 0, 64, 45
1, 1176927, Control_c, 0, 64, 54
1, 1176947, Control_c, 0, 64, 67
1, 1176947, Control_c, 0, 67, 50
1, 1176963, Control_c, 0, 64, 81
1, 1176983, Control_c, 0, 64, 102
1, 1176985, Control_c, 0, 67, 54
1, 1176991, Note_off_c, 0, 71, 52
1, 1177002, Control_c, 0, 64, 127
1, 1177008, Note_off_c, 0, 38, 50
1, 1177020, Control_c, 0, 67, 62
1, 1177047, Note_off_c, 0, 83, 59
1, 1177057, Control_c, 0, 67, 67
1, 1177083, Note_off_c, 0, 80, 59
1, 1177204, Note_on_c, 0, 82, 68
1, 1177218, Note_on_c, 0, 78, 59
1, 1177234, Note_off_c, 0, 26, 38
1, 1177238, Note_on_c, 0, 70, 53
1, 1177254, Note_on_c, 0, 27, 48
1, 1177262, Control_c, 0, 67, 73
1, 1177283, Control_c, 0, 67, 78
1, 1177288, Note_on_c, 0, 39, 32
1, 1177296, Note_off_c, 0, 78, 62
1, 1177300, Control_c, 0, 67, 82
1, 1177302, Note_off_c, 0, 82, 62
1, 1177327, Note_off_c, 0, 70, 52
1, 1177327, Poly_aftertouch_c, 0, 70, 0
1, 1177338, Control_c, 0, 67, 87
1, 1177344, Note_off_c, 0, 39, 57
1, 1177353, Note_off_c, 0, 27, 60
1, 1177486, Note_on_c, 0, 80, 70
1, 1177492, Note_on_c, 0, 77, 62
1, 1177526, Note_on_c, 0, 68, 48
1, 1177545, Note_on_c, 0, 29, 42
1, 1177547, Note_on_c, 0, 41, 43
1, 1177561, Control_c, 0, 64, 100
1, 1177581, Control_c, 0, 64, 70
1, 1177600, Control_c, 0, 64, 49
1, 1177619, Control_c, 0, 64, 44
1, 1177620, Control_c, 0, 67, 92
1, 1177637, Control_c, 0, 64, 54
1, 1177656, Control_c, 0, 64, 68
1, 1177657, Control_c, 0, 67, 99
1, 1177674, Control_c, 0, 64, 82
1, 1177693, Control_c, 0, 64, 103
1, 1177695, Control_c, 0, 67, 104
1, 1177703, Note_off_c, 0, 77, 57
1, 1177703, Poly_aftertouch_c, 0, 77, 0
1, 1177710, Control_c, 0, 64, 127
1, 1177721, Note_off_c, 0, 41, 38
1, 1177721, Poly_aftertouch_c, 0, 41, 0
1, 1177744, Note_off_c, 0, 80, 58
1, 1177752, Note_off_c, 0, 68, 56
1, 1177752, Poly_aftertouch_c, 0, 68, 0
1, 1177916, Note_on_c, 0, 78, 69
1, 1177931, Note_on_c, 0, 75, 61
1, 1177933, Note_off_c, 0, 29, 38
1, 1177933, Poly_aftertouch_c, 0, 29, 0
1, 1177949, Note_on_c, 0, 30, 43
1, 1177959, Note_on_c, 0, 66, 45
1, 1177968, Note_on_c, 0, 42, 33
1, 1178030, Control_c, 0, 67, 108
1, 1178054, Note_off_c, 0, 66, 58
1, 1178058, Note_off_c, 0, 75, 59
1, 1178062, Note_off_c, 0, 78, 61
1, 1178085, Note_off_c, 0, 42, 57
1, 1178144, Note_off_c, 0, 30, 36
1, 1178198, Control_c, 0, 64, 120
1, 1178213, Note_on_c, 0, 77, 65
1, 1178215, Control_c, 0, 64, 114
1, 1178235, Control_c, 0, 64, 109
1, 1178249, Note_on_c, 0, 73, 50
1, 1178254, Control_c, 0, 64, 104
1, 1178258, Note_on_c, 0, 43, 42
1, 1178260, Note_on_c, 0, 65, 41
1, 1178273, Control_c, 0, 64, 98
1, 1178278, Note_on_c, 0, 31, 36
1, 1178291, Control_c, 0, 64, 90
1, 1178310, Control_c, 0, 64, 77
1, 1178329, Control_c, 0, 64, 58
1, 1178348, Control_c, 0, 64, 31
1, 1178366, Control_c, 0, 64, 0
1, 1178404, Control_c, 0, 64, 32
1, 1178423, Control_c, 0, 64, 51
1, 1178441, Control_c, 0, 64, 71
1, 1178450, Note_off_c, 0, 73, 62
1, 1178450, Poly_aftertouch_c, 0, 73, 0
1, 1178460, Control_c, 0, 64, 90
1, 1178469, Note_off_c, 0, 43, 54
1, 1178478, Control_c, 0, 64, 111
1, 1178483, Note_off_c, 0, 65, 61
1, 1178483, Poly_aftertouch_c, 0, 65, 0
1, 1178497, Control_c, 0, 64, 127
1, 1178716, Note_on_c, 0, 75, 63
1, 1178726, Note_on_c, 0, 63, 55
1, 1178727, Note_on_c, 0, 72, 51
1, 1178737, Note_off_c, 0, 77, 29
1, 1178737, Poly_aftertouch_c, 0, 77, 0
1, 1178748, Note_on_c, 0, 44, 35
1, 1178764, Note_off_c, 0, 31, 40
1, 1178764, Note_on_c, 0, 32, 41
1, 1178805, Note_off_c, 0, 72, 57
1, 1178852, Control_c, 0, 64, 122
1, 1178891, Control_c, 0, 64, 117
1, 1178948, Note_off_c, 0, 63, 32
1, 1178965, Control_c, 0, 64, 111
1, 1178966, Note_off_c, 0, 44, 40
1, 1179002, Control_c, 0, 64, 107
1, 1179039, Control_c, 0, 64, 101
1, 1179067, Note_on_c, 0, 76, 56
1, 1179076, Control_c, 0, 64, 96
1, 1179077, Note_on_c, 0, 73, 58
1, 1179091, Note_on_c, 0, 64, 37
1, 1179113, Note_off_c, 0, 32, 31
1, 1179114, Control_c, 0, 64, 92
1, 1179115, Control_c, 0, 67, 114
1, 1179121, Note_on_c, 0, 43, 33
1, 1179121, Note_on_c, 0, 31, 37
1, 1179129, Note_off_c, 0, 75, 51
1, 1179152, Control_c, 0, 64, 88
1, 1179154, Control_c, 0, 67, 119
1, 1179170, Control_c, 0, 64, 85
1, 1179190, Control_c, 0, 64, 81
1, 1179192, Control_c, 0, 67, 123
1, 1179207, Control_c, 0, 64, 78
1, 1179227, Control_c, 0, 64, 73
1, 1179245, Control_c, 0, 64, 69
1, 1179264, Control_c, 0, 64, 65
1, 1179265, Control_c, 0, 67, 127
1, 1179283, Control_c, 0, 64, 61
1, 1179302, Control_c, 0, 64, 56
1, 1179320, Control_c, 0, 64, 46
1, 1179339, Control_c, 0, 64, 29
1, 1179357, Control_c, 0, 64, 0
1, 1179638, Control_c, 0, 64, 9
1, 1179656, Control_c, 0, 64, 19
1, 1179676, Control_c, 0, 64, 28
1, 1179694, Control_c, 0, 64, 36
1, 1179712, Control_c, 0, 64, 45
1, 1179731, Control_c, 0, 64, 54
1, 1179750, Control_c, 0, 64, 63
1, 1179769, Control_c, 0, 64, 70
1, 1179787, Control_c, 0, 64, 75
1, 1179806, Control_c, 0, 64, 80
1, 1179814, Note_off_c, 0, 73, 48
1, 1179814, Poly_aftertouch_c, 0, 73, 0
1, 1179825, Control_c, 0, 64, 85
1, 1179844, Control_c, 0, 64, 93
1, 1179862, Control_c, 0, 64, 103
1, 1179865, Note_off_c, 0, 43, 38
1, 1179881, Control_c, 0, 64, 114
1, 1179883, Note_off_c, 0, 64, 55
1, 1179901, Control_c, 0, 64, 122
1, 1179918, Control_c, 0, 64, 127
1, 1180086, Control_c, 0, 67, 123
1, 1180118, Note_off_c, 0, 76, 55
1, 1180296, Note_on_c, 0, 75, 54
1, 1180302, Note_off_c, 0, 31, 31
1, 1180323, Note_on_c, 0, 63, 34
1, 1180325, Note_on_c, 0, 44, 33
1, 1180327, Note_on_c, 0, 72, 27
1, 1180340, Note_on_c, 0, 32, 31
1, 1180375, Note_off_c, 0, 72, 49
1, 1180481, Note_off_c, 0, 75, 53
1, 1180492, Note_off_c, 0, 63, 35
1, 1180503, Note_off_c, 0, 44, 36
1, 1180520, Note_off_c, 0, 32, 36
1, 1180573, Control_c, 0, 64, 123
1, 1180610, Control_c, 0, 64, 117
1, 1180648, Note_on_c, 0, 76, 49
1, 1180648, Control_c, 0, 64, 110
1, 1180666, Control_c, 0, 64, 106
1, 1180674, Note_on_c, 0, 64, 37
1, 1180676, Note_on_c, 0, 43, 34
1, 1180677, Note_on_c, 0, 73, 42
1, 1180678, Note_on_c, 0, 31, 30
1, 1180684, Control_c, 0, 64, 101
1, 1180704, Control_c, 0, 64, 93
1, 1180722, Control_c, 0, 64, 83
1, 1180741, Control_c, 0, 64, 70
1, 1180759, Control_c, 0, 64, 58
1, 1180779, Control_c, 0, 64, 48
1, 1180797, Control_c, 0, 64, 35
1, 1180834, Control_c, 0, 64, 41
1, 1180853, Control_c, 0, 64, 49
1, 1180873, Control_c, 0, 64, 58
1, 1180891, Control_c, 0, 64, 68
1, 1180910, Control_c, 0, 64, 76
1, 1180929, Control_c, 0, 64, 83
1, 1180947, Control_c, 0, 64, 90
1, 1180965, Control_c, 0, 64, 98
1, 1180984, Control_c, 0, 64, 106
1, 1181002, Control_c, 0, 64, 113
1, 1181022, Control_c, 0, 64, 118
1, 1181059, Control_c, 0, 64, 122
1, 1181099, Note_off_c, 0, 73, 40
1, 1181099, Poly_aftertouch_c, 0, 73, 0
1, 1181119, Note_off_c, 0, 64, 41
1, 1181134, Control_c, 0, 64, 127
1, 1181221, Note_off_c, 0, 76, 38
1, 1181291, Poly_aftertouch_c, 0, 43, 24
1, 1181378, Note_off_c, 0, 43, 28
1, 1181378, Poly_aftertouch_c, 0, 43, 0
1, 1181453, Poly_aftertouch_c, 0, 31, 24
1, 1181536, Note_on_c, 0, 75, 46
1, 1181546, Note_on_c, 0, 63, 31
1, 1181552, Note_off_c, 0, 31, 29
1, 1181552, Poly_aftertouch_c, 0, 31, 0
1, 1181580, Note_on_c, 0, 72, 17
1, 1181642, Note_off_c, 0, 72, 40
1, 1181722, Note_off_c, 0, 75, 52
1, 1181726, Note_off_c, 0, 63, 35
1, 1181769, Control_c, 0, 64, 123
1, 1181863, Control_c, 0, 64, 119
1, 1181938, Control_c, 0, 64, 113
1, 1181958, Note_on_c, 0, 76, 41
1, 1181970, Note_on_c, 0, 73, 39
1, 1181973, Control_c, 0, 64, 109
1, 1181986, Note_on_c, 0, 64, 28
1, 1182013, Control_c, 0, 64, 105
1, 1182018, Note_on_c, 0, 42, 23
1, 1182024, Note_on_c, 0, 30, 29
1, 1182051, Control_c, 0, 64, 98
1, 1182068, Control_c, 0, 64, 93
1, 1182088, Control_c, 0, 64, 89
1, 1182107, Control_c, 0, 64, 86
1, 1182124, Control_c, 0, 64, 83
1, 1182143, Control_c, 0, 64, 79
1, 1182163, Control_c, 0, 64, 74
1, 1182181, Control_c, 0, 64, 69
1, 1182199, Control_c, 0, 64, 65
1, 1182218, Control_c, 0, 64, 62
1, 1182237, Control_c, 0, 64, 61
1, 1182256, Control_c, 0, 64, 60
1, 1182274, Control_c, 0, 64, 56
1, 1182293, Control_c, 0, 64, 51
1, 1182312, Control_c, 0, 64, 46
1, 1182330, Control_c, 0, 64, 44
1, 1182554, Control_c, 0, 64, 47
1, 1182592, Control_c, 0, 64, 50
1, 1182630, Control_c, 0, 64, 55
1, 1182667, Control_c, 0, 64, 58
1, 1182685, Control_c, 0, 64, 61
1, 1182705, Control_c, 0, 64, 65
1, 1182724, Control_c, 0, 64, 68
1, 1182741, Control_c, 0, 64, 70
1, 1182762, Control_c, 0, 64, 73
1, 1182797, Control_c, 0, 64, 77
1, 1182816, Control_c, 0, 64, 79
1, 1182836, Control_c, 0, 64, 82
1, 1182854, Control_c, 0, 64, 86
1, 1182873, Control_c, 0, 64, 90
1, 1182911, Control_c, 0, 64, 97
1, 1182948, Control_c, 0, 64, 104
1, 1182966, Control_c, 0, 64, 108
1, 1182986, Control_c, 0, 64, 112
1, 1183003, Control_c, 0, 64, 117
1, 1183023, Control_c, 0, 64, 121
1, 1183060, Control_c, 0, 64, 127
1, 1183181, Note_off_c, 0, 42, 41
1, 1183209, Note_off_c, 0, 30, 34
1, 1183518, Note_on_c, 0, 43, 29
1, 1183550, Note_on_c, 0, 31, 25
1, 1183715, Control_c, 0, 64, 123
1, 1183752, Control_c, 0, 64, 115
1, 1183770, Control_c, 0, 64, 108
1, 1183791, Control_c, 0, 64, 103
1, 1183827, Control_c, 0, 64, 95
1, 1183845, Control_c, 0, 64, 87
1, 1183865, Control_c, 0, 64, 77
1, 1183882, Control_c, 0, 64, 66
1, 1183901, Control_c, 0, 64, 59
1, 1183920, Control_c, 0, 64, 54
1, 1183938, Control_c, 0, 64, 52
1, 1184032, Control_c, 0, 64, 56
1, 1184051, Control_c, 0, 64, 59
1, 1184070, Control_c, 0, 64, 63
1, 1184087, Control_c, 0, 64, 66
1, 1184107, Control_c, 0, 64, 69
1, 1184126, Control_c, 0, 64, 72
1, 1184144, Control_c, 0, 64, 76
1, 1184163, Control_c, 0, 64, 80
1, 1184182, Control_c, 0, 64, 86
1, 1184201, Control_c, 0, 64, 94
1, 1184218, Control_c, 0, 64, 103
1, 1184238, Control_c, 0, 64, 111
1, 1184257, Control_c, 0, 64, 119
1, 1184258, Control_c, 0, 67, 119
1, 1184274, Control_c, 0, 64, 127
1, 1184289, Note_off_c, 0, 73, 36
1, 1184289, Poly_aftertouch_c, 0, 73, 0
1, 1184481, Control_c, 0, 67, 115
1, 1184529, Note_off_c, 0, 64, 40
1, 1184542, Note_off_c, 0, 76, 36
1, 1184557, Note_off_c, 0, 31, 38
1, 1184557, Poly_aftertouch_c, 0, 31, 0
1, 1184628, Note_off_c, 0, 43, 34
1, 1184628, Poly_aftertouch_c, 0, 43, 0
1, 1185219, Note_on_c, 0, 75, 38
1, 1185261, Note_on_c, 0, 44, 24
1, 1185262, Note_on_c, 0, 63, 16
1, 1185267, Note_on_c, 0, 72, 27
1, 1185267, Note_on_c, 0, 32, 25
1, 1185322, Control_c, 0, 64, 123
1, 1185360, Control_c, 0, 64, 113
1, 1185378, Control_c, 0, 64, 102
1, 1185397, Control_c, 0, 64, 85
1, 1185416, Control_c, 0, 64, 65
1, 1185434, Control_c, 0, 64, 48
1, 1185454, Control_c, 0, 64, 39
1, 1185472, Control_c, 0, 64, 45
1, 1185490, Control_c, 0, 64, 54
1, 1185496, Note_off_c, 0, 72, 39
1, 1185511, Control_c, 0, 64, 63
1, 1185528, Control_c, 0, 64, 71
1, 1185547, Control_c, 0, 64, 80
1, 1185561, Note_off_c, 0, 32, 44
1, 1185563, Control_c, 0, 64, 89
1, 1185568, Note_off_c, 0, 63, 43
1, 1185584, Control_c, 0, 64, 97
1, 1185604, Control_c, 0, 64, 103
1, 1185616, Note_off_c, 0, 75, 53
1, 1185621, Control_c, 0, 64, 107
1, 1185622, Control_c, 0, 67, 111
1, 1185628, Note_off_c, 0, 44, 42
1, 1185659, Control_c, 0, 64, 113
1, 1185660, Control_c, 0, 67, 105
1, 1185696, Control_c, 0, 67, 99
1, 1185734, Control_c, 0, 67, 94
1, 1185772, Control_c, 0, 67, 87
1, 1185809, Control_c, 0, 67, 80
1, 1185826, Control_c, 0, 64, 108
1, 1185846, Control_c, 0, 67, 74
1, 1185883, Control_c, 0, 64, 101
1, 1185884, Control_c, 0, 67, 67
1, 1185902, Control_c, 0, 64, 95
1, 1185921, Control_c, 0, 64, 89
1, 1185923, Control_c, 0, 67, 62
1, 1185940, Control_c, 0, 64, 83
1, 1185957, Control_c, 0, 64, 79
1, 1185959, Control_c, 0, 67, 58
1, 1185976, Control_c, 0, 64, 73
1, 1185996, Control_c, 0, 64, 65
1, 1185997, Control_c, 0, 67, 54
1, 1186014, Control_c, 0, 64, 55
1, 1186033, Control_c, 0, 64, 38
1, 1186052, Control_c, 0, 64, 0
1, 1186053, Control_c, 0, 67, 48
1, 1186089, Control_c, 0, 67, 44
1, 1186107, Control_c, 0, 67, 39
1, 1186126, Control_c, 0, 67, 35
1, 1186145, Control_c, 0, 67, 30
1, 1186163, Control_c, 0, 67, 26
1, 1186201, Control_c, 0, 67, 22
1, 1186236, Note_on_c, 0, 77, 47
1, 1186237, Control_c, 0, 67, 16
1, 1186268, Note_on_c, 0, 73, 30
1, 1186274, Control_c, 0, 67, 11
1, 1186281, Note_on_c, 0, 49, 26
1, 1186291, Note_on_c, 0, 37, 30
1, 1186298, Note_on_c, 0, 65, 8
1, 1186313, Control_c, 0, 64, 13
1, 1186319, Note_on_c, 0, 68, 6
1, 1186331, Control_c, 0, 64, 25
1, 1186351, Control_c, 0, 64, 33
1, 1186368, Control_c, 0, 64, 45
1, 1186388, Control_c, 0, 64, 59
1, 1186406, Control_c, 0, 64, 74
1, 1186425, Control_c, 0, 64, 85
1, 1186444, Control_c, 0, 64, 92
1, 1186462, Control_c, 0, 64, 100
1, 1186482, Control_c, 0, 64, 112
1, 1186500, Control_c, 0, 64, 127
1, 1186500, Control_c, 0, 67, 0
1, 1186557, Note_off_c, 0, 65, 42
1, 1186557, Poly_aftertouch_c, 0, 65, 0
1, 1186560, Note_off_c, 0, 68, 44
1, 1186560, Poly_aftertouch_c, 0, 68, 0
1, 1186611, Note_off_c, 0, 77, 58
1, 1186611, Poly_aftertouch_c, 0, 77, 0
1, 1186614, Note_off_c, 0, 73, 56
1, 1186614, Poly_aftertouch_c, 0, 73, 0
1, 1186762, Poly_aftertouch_c, 0, 49, 24
1, 1186818, Note_off_c, 0, 49, 19
1, 1186818, Poly_aftertouch_c, 0, 49, 0
1, 1186872, Note_off_c, 0, 37, 29
1, 1187118, Note_on_c, 0, 80, 54
1, 1187169, Note_on_c, 0, 75, 33
1, 1187190, Note_on_c, 0, 68, 30
1, 1187194, Note_on_c, 0, 48, 24
1, 1187215, Note_on_c, 0, 36, 23
1, 1187323, Control_c, 0, 64, 117
1, 1187342, Control_c, 0, 64, 109
1, 1187360, Control_c, 0, 64, 102
1, 1187379, Control_c, 0, 64, 96
1, 1187397, Control_c, 0, 64, 85
1, 1187419, Control_c, 0, 64, 72
1, 1187434, Control_c, 0, 64, 60
1, 1187454, Control_c, 0, 64, 53
1, 1187472, Control_c, 0, 64, 49
1, 1187509, Control_c, 0, 64, 55
1, 1187529, Control_c, 0, 64, 61
1, 1187547, Control_c, 0, 64, 69
1, 1187566, Control_c, 0, 64, 78
1, 1187585, Control_c, 0, 64, 92
1, 1187603, Control_c, 0, 64, 111
1, 1187622, Control_c, 0, 64, 127
1, 1187847, Note_off_c, 0, 68, 43
1, 1187847, Poly_aftertouch_c, 0, 68, 0
1, 1187945, Note_off_c, 0, 48, 33
1, 1187945, Poly_aftertouch_c, 0, 48, 0
1, 1187962, Note_off_c, 0, 75, 43
1, 1188023, Note_off_c, 0, 80, 61
1, 1188079, Note_off_c, 0, 36, 39
1, 1188471, Note_on_c, 0, 82, 50
1, 1188500, Note_on_c, 0, 78, 31
1, 1188508, Note_on_c, 0, 70, 34
1, 1188510, Note_on_c, 0, 46, 32
1, 1188528, Note_on_c, 0, 34, 33
1, 1188538, Control_c, 0, 64, 111
1, 1188557, Control_c, 0, 64, 84
1, 1188575, Control_c, 0, 64, 67
1, 1188613, Control_c, 0, 64, 78
1, 1188633, Control_c, 0, 64, 94
1, 1188651, Control_c, 0, 64, 124
1, 1188689, Note_off_c, 0, 70, 36
1, 1188689, Poly_aftertouch_c, 0, 70, 0
1, 1188720, Note_off_c, 0, 34, 50
1, 1188721, Note_off_c, 0, 46, 37
1, 1188729, Note_off_c, 0, 78, 38
1, 1188734, Note_off_c, 0, 82, 36
1, 1188881, Note_on_c, 0, 84, 67
1, 1188894, Note_on_c, 0, 80, 53
1, 1188900, Note_on_c, 0, 44, 44
1, 1188910, Note_on_c, 0, 72, 43
1, 1188916, Note_on_c, 0, 32, 44
1, 1188938, Note_off_c, 0, 80, 63
1, 1188952, Note_off_c, 0, 72, 52
1, 1188963, Note_off_c, 0, 44, 56
1, 1188966, Note_off_c, 0, 84, 63
1, 1188979, Note_off_c, 0, 32, 56
1, 1189171, Note_on_c, 0, 85, 66
1, 1189180, Note_on_c, 0, 82, 54
1, 1189184, Note_on_c, 0, 73, 46
1, 1189203, Note_on_c, 0, 42, 39
1, 1189225, Note_on_c, 0, 30, 40
1, 1189249, Control_c, 0, 64, 106
1, 1189267, Control_c, 0, 64, 82
1, 1189287, Control_c, 0, 64, 58
1, 1189305, Control_c, 0, 64, 34
1, 1189342, Control_c, 0, 64, 16
1, 1189362, Control_c, 0, 64, 36
1, 1189363, Control_c, 0, 67, 8
1, 1189379, Control_c, 0, 64, 55
1, 1189398, Control_c, 0, 64, 73
1, 1189404, Note_off_c, 0, 82, 34
1, 1189406, Note_off_c, 0, 73, 63
1, 1189406, Poly_aftertouch_c, 0, 73, 0
1, 1189418, Control_c, 0, 64, 86
1, 1189421, Control_c, 0, 67, 13
1, 1189436, Control_c, 0, 64, 102
1, 1189454, Control_c, 0, 64, 125
1, 1189454, Control_c, 0, 67, 22
1, 1189472, Control_c, 0, 67, 32
1, 1189481, Note_off_c, 0, 85, 62
1, 1189494, Control_c, 0, 67, 45
1, 1189510, Control_c, 0, 67, 55
1, 1189530, Control_c, 0, 67, 62
1, 1189548, Control_c, 0, 67, 67
1, 1189561, Note_on_c, 0, 82, 61
1, 1189581, Note_on_c, 0, 78, 59
1, 1189585, Control_c, 0, 67, 72
1, 1189606, Note_on_c, 0, 70, 32
1, 1189623, Control_c, 0, 67, 78
1, 1189631, Note_off_c, 0, 78, 53
1, 1189634, Note_off_c, 0, 82, 60
1, 1189641, Control_c, 0, 67, 82
1, 1189649, Note_off_c, 0, 70, 49
1, 1189649, Poly_aftertouch_c, 0, 70, 0
1, 1189660, Control_c, 0, 67, 87
1, 1189698, Control_c, 0, 67, 94
1, 1189736, Control_c, 0, 67, 99
1, 1189791, Control_c, 0, 67, 104
1, 1189846, Control_c, 0, 67, 109
1, 1189848, Note_on_c, 0, 78, 61
1, 1189857, Note_on_c, 0, 75, 54
1, 1189865, Control_c, 0, 64, 119
1, 1189872, Note_on_c, 0, 66, 46
1, 1189903, Control_c, 0, 64, 126
1, 1189921, Control_c, 0, 67, 113
1, 1189978, Control_c, 0, 67, 117
1, 1189996, Note_off_c, 0, 75, 59
1, 1190036, Note_off_c, 0, 78, 56
1, 1190086, Note_off_c, 0, 66, 53
1, 1190113, Note_off_c, 0, 42, 42
1, 1190129, Note_off_c, 0, 30, 50
1, 1190276, Note_on_c, 0, 77, 54
1, 1190276, Control_c, 0, 64, 120
1, 1190289, Note_on_c, 0, 73, 50
1, 1190295, Control_c, 0, 64, 104
1, 1190307, Note_on_c, 0, 65, 32
1, 1190308, Note_on_c, 0, 31, 31
1, 1190310, Note_on_c, 0, 43, 30
1, 1190314, Control_c, 0, 64, 82
1, 1190334, Control_c, 0, 64, 62
1, 1190354, Control_c, 0, 64, 53
1, 1190371, Control_c, 0, 64, 57
1, 1190389, Control_c, 0, 64, 66
1, 1190391, Note_off_c, 0, 43, 47
1, 1190391, Poly_aftertouch_c, 0, 43, 0
1, 1190408, Control_c, 0, 64, 74
1, 1190423, Note_off_c, 0, 73, 46
1, 1190423, Poly_aftertouch_c, 0, 73, 0
1, 1190426, Control_c, 0, 64, 84
1, 1190440, Note_off_c, 0, 77, 56
1, 1190440, Poly_aftertouch_c, 0, 77, 0
1, 1190446, Note_off_c, 0, 65, 34
1, 1190446, Poly_aftertouch_c, 0, 65, 0
1, 1190446, Control_c, 0, 64, 98
1, 1190464, Control_c, 0, 64, 113
1, 1190483, Control_c, 0, 64, 121
1, 1190595, Control_c, 0, 64, 117
1, 1190609, Note_on_c, 0, 77, 49
1, 1190618, Note_on_c, 0, 73, 37
1, 1190640, Note_on_c, 0, 65, 18
1, 1190649, Control_c, 0, 64, 111
1, 1190670, Control_c, 0, 64, 107
1, 1190678, Note_on_c, 0, 44, 33
1, 1190688, Control_c, 0, 64, 102
1, 1190708, Note_on_c, 0, 32, 26
1, 1190708, Control_c, 0, 64, 97
1, 1190727, Control_c, 0, 64, 92
1, 1190744, Control_c, 0, 64, 86
1, 1190764, Control_c, 0, 64, 76
1, 1190772, Note_off_c, 0, 31, 29
1, 1190772, Poly_aftertouch_c, 0, 31, 0
1, 1190781, Control_c, 0, 64, 63
1, 1190800, Control_c, 0, 64, 46
1, 1190819, Control_c, 0, 64, 0
1, 1190932, Control_c, 0, 64, 26
1, 1190950, Control_c, 0, 64, 48
1, 1190970, Control_c, 0, 64, 68
1, 1190987, Control_c, 0, 64, 83
1, 1191007, Control_c, 0, 64, 95
1, 1191019, Note_off_c, 0, 73, 54
1, 1191019, Poly_aftertouch_c, 0, 73, 0
1, 1191025, Control_c, 0, 64, 107
1, 1191046, Control_c, 0, 64, 118
1, 1191062, Control_c, 0, 64, 126
1, 1191071, Note_off_c, 0, 65, 49
1, 1191071, Poly_aftertouch_c, 0, 65, 0
1, 1191097, Note_off_c, 0, 77, 36
1, 1191097, Poly_aftertouch_c, 0, 77, 0
1, 1191528, Note_on_c, 0, 75, 32
1, 1191536, Note_on_c, 0, 72, 32
1, 1191546, Note_on_c, 0, 63, 18
1, 1191587, Control_c, 0, 64, 120
1, 1191624, Control_c, 0, 64, 113
1, 1191660, Control_c, 0, 64, 102
1, 1191679, Control_c, 0, 64, 89
1, 1191699, Control_c, 0, 64, 70
1, 1191717, Control_c, 0, 64, 51
1, 1191736, Control_c, 0, 64, 31
1, 1191774, Control_c, 0, 64, 46
1, 1191792, Control_c, 0, 64, 59
1, 1191800, Poly_aftertouch_c, 0, 32, 24
1, 1191804, Note_off_c, 0, 72, 34
1, 1191810, Control_c, 0, 64, 71
1, 1191827, Note_off_c, 0, 32, 45
1, 1191827, Poly_aftertouch_c, 0, 32, 0
1, 1191828, Control_c, 0, 64, 83
1, 1191841, Note_off_c, 0, 75, 53
1, 1191847, Control_c, 0, 64, 95
1, 1191865, Note_off_c, 0, 44, 45
1, 1191866, Control_c, 0, 64, 105
1, 1191886, Control_c, 0, 64, 110
1, 1191918, Note_off_c, 0, 63, 42
1, 1191980, Control_c, 0, 64, 106
1, 1191998, Control_c, 0, 64, 101
1, 1192016, Control_c, 0, 64, 92
1, 1192035, Control_c, 0, 64, 77
1, 1192038, Control_c, 0, 67, 113
1, 1192055, Control_c, 0, 64, 57
1, 1192072, Control_c, 0, 64, 26
1, 1192091, Control_c, 0, 64, 0
1, 1192146, Control_c, 0, 67, 109
1, 1192240, Control_c, 0, 67, 105
1, 1192261, Note_on_c, 0, 76, 48
1, 1192278, Note_on_c, 0, 73, 40
1, 1192278, Control_c, 0, 64, 14
1, 1192285, Note_on_c, 0, 49, 29
1, 1192295, Note_on_c, 0, 37, 31
1, 1192295, Control_c, 0, 64, 37
1, 1192296, Control_c, 0, 67, 99
1, 1192316, Control_c, 0, 64, 56
1, 1192321, Note_on_c, 0, 64, 14
1, 1192330, Note_on_c, 0, 68, 9
1, 1192333, Control_c, 0, 64, 71
1, 1192334, Control_c, 0, 67, 94
1, 1192352, Control_c, 0, 64, 80
1, 1192372, Control_c, 0, 64, 89
1, 1192374, Control_c, 0, 67, 89
1, 1192391, Control_c, 0, 64, 102
1, 1192410, Control_c, 0, 64, 118
1, 1192412, Control_c, 0, 67, 85
1, 1192427, Control_c, 0, 64, 127
1, 1192491, Note_off_c, 0, 64, 40
1, 1192501, Note_off_c, 0, 68, 37
1, 1192501, Poly_aftertouch_c, 0, 68, 0
1, 1192521, Control_c, 0, 67, 81
1, 1192523, Note_off_c, 0, 49, 39
1, 1192523, Poly_aftertouch_c, 0, 49, 0
1, 1192541, Note_off_c, 0, 76, 61
1, 1192552, Note_off_c, 0, 73, 57
1, 1192552, Poly_aftertouch_c, 0, 73, 0
1, 1192608, Note_off_c, 0, 37, 38
1, 1192689, Control_c, 0, 67, 77
1, 1193110, Note_on_c, 0, 80, 48
1, 1193154, Note_on_c, 0, 75, 37
1, 1193166, Note_on_c, 0, 35, 26
1, 1193170, Note_on_c, 0, 47, 22
1, 1193186, Note_on_c, 0, 68, 20
1, 1193307, Control_c, 0, 64, 119
1, 1193326, Control_c, 0, 64, 110
1, 1193343, Control_c, 0, 64, 97
1, 1193363, Control_c, 0, 64, 84
1, 1193381, Control_c, 0, 64, 72
1, 1193400, Control_c, 0, 64, 67
1, 1193438, Control_c, 0, 64, 71
1, 1193456, Control_c, 0, 64, 73
1, 1193475, Control_c, 0, 64, 75
1, 1193493, Control_c, 0, 64, 79
1, 1193513, Control_c, 0, 64, 87
1, 1193532, Control_c, 0, 64, 97
1, 1193549, Control_c, 0, 64, 106
1, 1193569, Control_c, 0, 64, 111
1, 1193624, Control_c, 0, 64, 116
1, 1193643, Control_c, 0, 64, 123
1, 1193662, Control_c, 0, 64, 127
1, 1193767, Note_off_c, 0, 68, 41
1, 1193767, Poly_aftertouch_c, 0, 68, 0
1, 1193980, Note_off_c, 0, 75, 48
1, 1194012, Note_off_c, 0, 80, 60
1, 1194041, Note_off_c, 0, 47, 26
1, 1194107, Note_off_c, 0, 35, 36
1, 1194399, Note_on_c, 0, 85, 51
1, 1194428, Control_c, 0, 64, 111
1, 1194447, Control_c, 0, 64, 93
1, 1194459, Note_on_c, 0, 73, 21
1, 1194463, Note_on_c, 0, 76, 23
1, 1194465, Note_on_c, 0, 33, 26
1, 1194465, Control_c, 0, 64, 84
1, 1194482, Note_on_c, 0, 45, 8
1, 1194483, Control_c, 0, 64, 86
1, 1194505, Control_c, 0, 64, 95
1, 1194522, Control_c, 0, 64, 109
1, 1194541, Control_c, 0, 64, 127
1, 1194559, Control_c, 0, 67, 82
1, 1194580, Note_off_c, 0, 45, 50
1, 1194581, Note_off_c, 0, 76, 39
1, 1194596, Control_c, 0, 67, 87
1, 1194602, Note_off_c, 0, 33, 51
1, 1194613, Note_off_c, 0, 85, 60
1, 1194614, Note_off_c, 0, 73, 43
1, 1194614, Poly_aftertouch_c, 0, 73, 0
1, 1194633, Control_c, 0, 67, 93
1, 1194671, Control_c, 0, 67, 101
1, 1194708, Control_c, 0, 67, 105
1, 1194764, Control_c, 0, 67, 109
1, 1194802, Control_c, 0, 67, 113
1, 1194830, Note_on_c, 0, 87, 60
1, 1194834, Note_on_c, 0, 81, 50
1, 1194839, Control_c, 0, 67, 119
1, 1194858, Note_on_c, 0, 42, 36
1, 1194862, Note_on_c, 0, 30, 44
1, 1194915, Control_c, 0, 67, 123
1, 1194917, Note_off_c, 0, 42, 50
1, 1194922, Note_off_c, 0, 81, 58
1, 1194931, Note_off_c, 0, 30, 54
1, 1194948, Poly_aftertouch_c, 0, 75, 127
1, 1194985, Poly_aftertouch_c, 0, 75, 0
1, 1194987, Note_off_c, 0, 87, 44
1, 1195107, Note_on_c, 0, 88, 60
1, 1195126, Note_on_c, 0, 80, 48
1, 1195141, Note_on_c, 0, 76, 40
1, 1195150, Note_on_c, 0, 28, 42
1, 1195160, Note_on_c, 0, 40, 28
1, 1195196, Control_c, 0, 64, 110
1, 1195214, Control_c, 0, 64, 88
1, 1195233, Control_c, 0, 64, 65
1, 1195251, Control_c, 0, 64, 46
1, 1195270, Control_c, 0, 64, 32
1, 1195288, Control_c, 0, 64, 37
1, 1195307, Control_c, 0, 64, 50
1, 1195326, Control_c, 0, 64, 63
1, 1195345, Control_c, 0, 64, 75
1, 1195364, Control_c, 0, 64, 90
1, 1195382, Control_c, 0, 64, 110
1, 1195401, Control_c, 0, 64, 127
1, 1195517, Note_off_c, 0, 28, 33
1, 1195536, Note_off_c, 0, 76, 41
1, 1195551, Note_off_c, 0, 88, 59
1, 1195567, Note_off_c, 0, 40, 38
1, 1195606, Note_off_c, 0, 80, 37
1, 1195964, Note_on_c, 0, 90, 59
1, 1195998, Note_on_c, 0, 83, 41
1, 1196018, Control_c, 0, 64, 120
1, 1196021, Note_on_c, 0, 27, 37
1, 1196031, Note_on_c, 0, 78, 29
1, 1196035, Control_c, 0, 64, 113
1, 1196046, Note_on_c, 0, 39, 27
1, 1196055, Control_c, 0, 64, 107
1, 1196074, Control_c, 0, 64, 101
1, 1196091, Control_c, 0, 64, 94
1, 1196111, Control_c, 0, 64, 88
1, 1196129, Control_c, 0, 64, 81
1, 1196149, Control_c, 0, 64, 73
1, 1196167, Control_c, 0, 64, 64
1, 1196186, Control_c, 0, 64, 55
1, 1196206, Control_c, 0, 64, 40
1, 1196224, Control_c, 0, 64, 15
1, 1196242, Control_c, 0, 64, 0
1, 1196354, Control_c, 0, 64, 20
1, 1196373, Control_c, 0, 64, 33
1, 1196391, Control_c, 0, 64, 47
1, 1196411, Control_c, 0, 64, 61
1, 1196428, Control_c, 0, 64, 72
1, 1196448, Control_c, 0, 64, 78
1, 1196466, Control_c, 0, 64, 81
1, 1196486, Control_c, 0, 64, 83
1, 1196503, Control_c, 0, 64, 89
1, 1196522, Control_c, 0, 64, 97
1, 1196542, Control_c, 0, 64, 107
1, 1196559, Control_c, 0, 64, 118
1, 1196578, Control_c, 0, 64, 125
1, 1196758, Poly_aftertouch_c, 0, 39, 20
1, 1196764, Note_off_c, 0, 39, 32
1, 1196764, Poly_aftertouch_c, 0, 39, 0
1, 1196872, Poly_aftertouch_c, 0, 27, 24
1, 1196919, Note_off_c, 0, 83, 41
1, 1197071, Note_off_c, 0, 27, 19
1, 1197071, Poly_aftertouch_c, 0, 27, 0
1, 1197074, Note_off_c, 0, 78, 42
1, 1197189, Note_off_c, 0, 90, 56
1, 1197742, Note_on_c, 0, 92, 46
1, 1197754, Note_on_c, 0, 88, 38
1, 1197775, Control_c, 0, 64, 119
1, 1197791, Note_on_c, 0, 83, 23
1, 1197796, Note_on_c, 0, 25, 30
1, 1197803, Note_on_c, 0, 80, 21
1, 1197813, Control_c, 0, 64, 113
1, 1197820, Note_on_c, 0, 37, 14
1, 1197849, Control_c, 0, 64, 108
1, 1197869, Control_c, 0, 64, 104
1, 1197887, Control_c, 0, 64, 99
1, 1197906, Control_c, 0, 64, 92
1, 1197925, Control_c, 0, 64, 83
1, 1197945, Control_c, 0, 64, 71
1, 1197963, Control_c, 0, 64, 58
1, 1197981, Control_c, 0, 64, 43
1, 1198000, Control_c, 0, 64, 28
1, 1198037, Control_c, 0, 64, 32
1, 1198055, Control_c, 0, 64, 38
1, 1198074, Control_c, 0, 64, 45
1, 1198094, Control_c, 0, 64, 55
1, 1198111, Control_c, 0, 64, 67
1, 1198131, Control_c, 0, 64, 76
1, 1198149, Control_c, 0, 64, 84
1, 1198168, Control_c, 0, 64, 92
1, 1198186, Control_c, 0, 64, 100
1, 1198205, Control_c, 0, 64, 110
1, 1198225, Control_c, 0, 64, 119
1, 1198242, Control_c, 0, 64, 126
1, 1198456, Poly_aftertouch_c, 0, 83, 24
1, 1198461, Poly_aftertouch_c, 0, 37, 24
1, 1198533, Note_off_c, 0, 83, 32
1, 1198533, Poly_aftertouch_c, 0, 83, 0
1, 1198598, Note_off_c, 0, 25, 28
1, 1198621, Note_off_c, 0, 37, 25
1, 1198621, Poly_aftertouch_c, 0, 37, 0
1, 1198622, Poly_aftertouch_c, 0, 37, 0
1, 1198784, Poly_aftertouch_c, 0, 80, 24
1, 1198903, Note_off_c, 0, 80, 27
1, 1198903, Poly_aftertouch_c, 0, 80, 0
1, 1198975, Note_off_c, 0, 88, 39
1, 1199134, Note_off_c, 0, 92, 57
1, 1199720, Note_on_c, 0, 94, 47
1, 1199744, Note_on_c, 0, 88, 33
1, 1199760, Note_on_c, 0, 30, 30
1, 1199765, Note_on_c, 0, 42, 19
1, 1199788, Note_on_c, 0, 82, 17
1, 1199814, Control_c, 0, 64, 119
1, 1199832, Control_c, 0, 64, 103
1, 1199851, Control_c, 0, 64, 85
1, 1199871, Control_c, 0, 64, 69
1, 1199888, Control_c, 0, 64, 64
1, 1199907, Control_c, 0, 64, 70
1, 1199926, Control_c, 0, 64, 78
1, 1199945, Control_c, 0, 64, 88
1, 1199964, Control_c, 0, 64, 105
1, 1199976, Note_off_c, 0, 30, 50
1, 1199981, Control_c, 0, 64, 127
1, 1200016, Note_off_c, 0, 42, 40
1, 1200065, Poly_aftertouch_c, 0, 82, 24
1, 1200112, Note_off_c, 0, 82, 39
1, 1200112, Poly_aftertouch_c, 0, 82, 0
1, 1200113, Poly_aftertouch_c, 0, 82, 0
1, 1200130, Note_off_c, 0, 88, 44
1, 1200208, Note_off_c, 0, 94, 36
1, 1200356, Control_c, 0, 67, 119
1, 1200412, Note_on_c, 0, 95, 59
1, 1200422, Note_on_c, 0, 35, 52
1, 1200425, Note_on_c, 0, 47, 49
1, 1200429, Control_c, 0, 64, 116
1, 1200433, Note_on_c, 0, 87, 42
1, 1200445, Note_on_c, 0, 83, 38
1, 1200448, Control_c, 0, 64, 77
1, 1200461, Note_off_c, 0, 47, 58
1, 1200465, Note_off_c, 0, 35, 60
1, 1200467, Control_c, 0, 64, 18
1, 1200486, Control_c, 0, 64, 0
1, 1200814, Note_on_c, 0, 37, 49
1, 1200879, Note_on_c, 0, 35, 60
1, 1200880, Note_off_c, 0, 37, 58
1, 1200886, Note_on_c, 0, 47, 52
1, 1200898, Control_c, 0, 67, 115
1, 1201067, Control_c, 0, 67, 111
1, 1201084, Control_c, 0, 64, 23
1, 1201104, Control_c, 0, 64, 51
1, 1201123, Control_c, 0, 64, 73
1, 1201123, Control_c, 0, 67, 106
1, 1201142, Control_c, 0, 64, 94
1, 1201145, Note_off_c, 0, 35, 61
1, 1201160, Control_c, 0, 64, 119
1, 1201179, Control_c, 0, 64, 127
1, 1201180, Control_c, 0, 67, 100
1, 1201182, Note_off_c, 0, 47, 61
1, 1201216, Control_c, 0, 67, 96
1, 1201272, Control_c, 0, 67, 92
1, 1201459, Control_c, 0, 67, 88
1, 1201574, Note_off_c, 0, 83, 37
1, 1201574, Poly_aftertouch_c, 0, 83, 0
1, 1201590, Poly_aftertouch_c, 0, 87, 24
1, 1201601, Note_off_c, 0, 95, 27
1, 1201619, Note_on_c, 0, 59, 51
1, 1201645, Note_off_c, 0, 87, 37
1, 1201645, Poly_aftertouch_c, 0, 87, 0
1, 1201649, Note_on_c, 0, 63, 52
1, 1201664, Control_c, 0, 67, 84
1, 1201672, Note_on_c, 0, 66, 53
1, 1201682, Control_c, 0, 67, 78
1, 1201700, Note_on_c, 0, 71, 76
1, 1201701, Note_off_c, 0, 59, 56
1, 1201701, Control_c, 0, 67, 61
1, 1201721, Control_c, 0, 67, 20
1, 1201724, Note_on_c, 0, 95, 82
1, 1201725, Note_off_c, 0, 71, 71
1, 1201737, Note_off_c, 0, 63, 63
1, 1201738, Control_c, 0, 67, 0
1, 1201739, Note_off_c, 0, 66, 63
1, 1201748, Note_on_c, 0, 87, 71
1, 1201750, Note_on_c, 0, 83, 54
1, 1201758, Control_c, 0, 64, 100
1, 1201777, Control_c, 0, 64, 48
1, 1201795, Control_c, 0, 64, 0
1, 1202202, Note_on_c, 0, 46, 68
1, 1202208, Note_on_c, 0, 34, 66
1, 1202239, Note_off_c, 0, 46, 65
1, 1202252, Note_off_c, 0, 34, 61
1, 1202600, Note_on_c, 0, 35, 61
1, 1202678, Note_on_c, 0, 46, 81
1, 1202687, Note_on_c, 0, 34, 72
1, 1202709, Note_off_c, 0, 35, 54
1, 1202750, Control_c, 0, 64, 24
1, 1202768, Control_c, 0, 64, 90
1, 1202786, Control_c, 0, 64, 127
1, 1202873, Note_off_c, 0, 34, 61
1, 1202916, Note_off_c, 0, 46, 62
1, 1203275, Note_on_c, 0, 59, 58
1, 1203312, Note_on_c, 0, 63, 56
1, 1203317, Note_off_c, 0, 95, 36
1, 1203319, Note_off_c, 0, 83, 43
1, 1203319, Poly_aftertouch_c, 0, 83, 0
1, 1203350, Note_on_c, 0, 66, 61
1, 1203375, Note_off_c, 0, 87, 35
1, 1203375, Poly_aftertouch_c, 0, 87, 0
1, 1203383, Note_on_c, 0, 71, 91
1, 1203419, Note_on_c, 0, 95, 97
1, 1203424, Note_on_c, 0, 83, 92
1, 1203425, Note_off_c, 0, 59, 56
1, 1203426, Note_off_c, 0, 71, 62
1, 1203428, Note_on_c, 0, 87, 86
1, 1203454, Note_off_c, 0, 66, 64
1, 1203464, Note_off_c, 0, 63, 62
1, 1203499, Control_c, 0, 64, 76
1, 1203515, Control_c, 0, 64, 0
1, 1203826, Note_on_c, 0, 45, 97
1, 1203829, Note_on_c, 0, 33, 93
1, 1203885, Note_off_c, 0, 45, 64
1, 1203887, Note_off_c, 0, 33, 64
1, 1204226, Note_on_c, 0, 46, 80
1, 1204231, Note_on_c, 0, 34, 81
1, 1204260, Note_off_c, 0, 46, 70
1, 1204267, Note_off_c, 0, 34, 65
1, 1204315, Note_on_c, 0, 45, 96
1, 1204323, Note_on_c, 0, 33, 92
1, 1204395, Control_c, 0, 64, 52
1, 1204413, Control_c, 0, 64, 119
1, 1204431, Control_c, 0, 64, 127
1, 1204437, Poly_aftertouch_c, 0, 34, 0
1, 1204490, Note_off_c, 0, 33, 60
1, 1204530, Note_off_c, 0, 45, 63
1, 1204610, Note_off_c, 0, 83, 57
1, 1204610, Poly_aftertouch_c, 0, 83, 0
1, 1204629, Note_off_c, 0, 95, 63
1, 1204661, Note_off_c, 0, 87, 58
1, 1204661, Poly_aftertouch_c, 0, 87, 0
1, 1204858, Note_on_c, 0, 60, 64
1, 1204883, Note_on_c, 0, 63, 58
1, 1204935, Note_on_c, 0, 66, 66
1, 1204969, Note_on_c, 0, 72, 96
1, 1204984, Note_on_c, 0, 96, 102
1, 1204985, Note_on_c, 0, 87, 103
1, 1204987, Note_on_c, 0, 84, 102
1, 1205014, Note_off_c, 0, 60, 63
1, 1205014, Poly_aftertouch_c, 0, 60, 0
1, 1205017, Note_off_c, 0, 72, 68
1, 1205059, Note_off_c, 0, 66, 64
1, 1205066, Note_off_c, 0, 63, 63
1, 1205083, Poly_aftertouch_c, 0, 62, 0
1, 1205497, Note_on_c, 0, 44, 101
1, 1205502, Note_on_c, 0, 32, 98
1, 1205517, Control_c, 0, 64, 90
1, 1205535, Control_c, 0, 64, 18
1, 1205554, Control_c, 0, 64, 0
1, 1205591, Control_c, 0, 64, 58
1, 1205610, Control_c, 0, 64, 95
1, 1205628, Control_c, 0, 64, 127
1, 1205659, Note_off_c, 0, 32, 58
1, 1205659, Poly_aftertouch_c, 0, 32, 0
1, 1205668, Note_off_c, 0, 44, 59
1, 1206080, Note_on_c, 0, 46, 93
1, 1206092, Note_on_c, 0, 34, 88
1, 1206129, Note_off_c, 0, 34, 65
1, 1206132, Note_off_c, 0, 46, 60
1, 1206202, Note_on_c, 0, 44, 102
1, 1206209, Note_on_c, 0, 32, 97
1, 1206265, Control_c, 0, 64, 100
1, 1206283, Control_c, 0, 64, 66
1, 1206302, Control_c, 0, 64, 0
1, 1206497, Note_off_c, 0, 96, 58
1, 1206546, Control_c, 0, 64, 51
1, 1206564, Control_c, 0, 64, 90
1, 1206583, Control_c, 0, 64, 127
1, 1206599, Note_off_c, 0, 84, 61
1, 1206600, Note_off_c, 0, 87, 59
1, 1206600, Poly_aftertouch_c, 0, 87, 0
1, 1206847, Note_off_c, 0, 44, 53
1, 1207047, Note_off_c, 0, 32, 37
1, 1207047, Poly_aftertouch_c, 0, 32, 0
1, 1207155, Note_on_c, 0, 80, 81
1, 1207160, Note_on_c, 0, 84, 86
1, 1207163, Note_on_c, 0, 75, 79
1, 1207167, Note_on_c, 0, 72, 80
1, 1207198, Note_on_c, 0, 42, 82
1, 1207199, Control_c, 0, 64, 117
1, 1207207, Note_on_c, 0, 30, 75
1, 1207218, Control_c, 0, 64, 88
1, 1207236, Control_c, 0, 64, 81
1, 1207255, Control_c, 0, 64, 93
1, 1207274, Control_c, 0, 64, 114
1, 1207293, Control_c, 0, 64, 127
1, 1207409, Note_off_c, 0, 72, 56
1, 1207448, Note_off_c, 0, 84, 61
1, 1207459, Note_off_c, 0, 75, 61
1, 1207480, Note_off_c, 0, 80, 61
1, 1207480, Poly_aftertouch_c, 0, 80, 0
1, 1207566, Note_off_c, 0, 30, 55
1, 1207574, Note_off_c, 0, 42, 57
1, 1207644, Note_on_c, 0, 80, 81
1, 1207645, Note_on_c, 0, 85, 87
1, 1207650, Note_on_c, 0, 73, 92
1, 1207662, Note_on_c, 0, 41, 87
1, 1207671, Note_on_c, 0, 29, 77
1, 1207705, Control_c, 0, 64, 116
1, 1207723, Control_c, 0, 64, 81
1, 1207743, Control_c, 0, 64, 53
1, 1207760, Control_c, 0, 64, 50
1, 1207779, Control_c, 0, 64, 65
1, 1207798, Control_c, 0, 64, 89
1, 1207817, Control_c, 0, 64, 127
1, 1207910, Note_off_c, 0, 85, 62
1, 1207972, Note_off_c, 0, 80, 59
1, 1207972, Note_off_c, 0, 73, 61
1, 1207972, Poly_aftertouch_c, 0, 73, 0
1, 1207972, Poly_aftertouch_c, 0, 80, 0
1, 1208099, Note_off_c, 0, 29, 38
1, 1208099, Poly_aftertouch_c, 0, 29, 0
1, 1208157, Note_on_c, 0, 80, 88
1, 1208162, Note_on_c, 0, 68, 90
1, 1208203, Note_off_c, 0, 41, 57
1, 1208203, Poly_aftertouch_c, 0, 41, 0
1, 1208318, Note_off_c, 0, 80, 59
1, 1208318, Poly_aftertouch_c, 0, 80, 0
1, 1208330, Note_off_c, 0, 68, 58
1, 1208330, Poly_aftertouch_c, 0, 68, 0
1, 1208442, Note_on_c, 0, 78, 95
1, 1208450, Note_on_c, 0, 66, 96
1, 1208451, Note_on_c, 0, 75, 87
1, 1208467, Note_on_c, 0, 42, 94
1, 1208476, Note_on_c, 0, 30, 81
1, 1208527, Control_c, 0, 64, 91
1, 1208546, Control_c, 0, 64, 61
1, 1208564, Control_c, 0, 64, 46
1, 1208583, Control_c, 0, 64, 52
1, 1208602, Control_c, 0, 64, 75
1, 1208621, Control_c, 0, 64, 108
1, 1208640, Control_c, 0, 64, 127
1, 1208719, Note_off_c, 0, 75, 55
1, 1208794, Note_off_c, 0, 66, 60
1, 1208810, Note_off_c, 0, 78, 58
1, 1208877, Note_on_c, 0, 77, 96
1, 1208880, Note_on_c, 0, 65, 95
1, 1208886, Note_on_c, 0, 73, 90
1, 1208943, Note_off_c, 0, 30, 26
1, 1209013, Note_off_c, 0, 65, 59
1, 1209013, Poly_aftertouch_c, 0, 65, 0
1, 1209031, Note_off_c, 0, 42, 56
1, 1209032, Note_off_c, 0, 77, 54
1, 1209032, Poly_aftertouch_c, 0, 77, 0
1, 1209062, Note_off_c, 0, 73, 59
1, 1209062, Poly_aftertouch_c, 0, 73, 0
1, 1209160, Note_on_c, 0, 77, 98
1, 1209163, Note_on_c, 0, 65, 98
1, 1209166, Note_on_c, 0, 73, 97
1, 1209169, Note_on_c, 0, 43, 91
1, 1209173, Note_on_c, 0, 31, 87
1, 1209181, Control_c, 0, 64, 122
1, 1209201, Control_c, 0, 64, 76
1, 1209218, Control_c, 0, 64, 0
1, 1209275, Control_c, 0, 64, 19
1, 1209294, Control_c, 0, 64, 72
1, 1209313, Control_c, 0, 64, 118
1, 1209330, Control_c, 0, 64, 127
1, 1209404, Note_off_c, 0, 73, 60
1, 1209404, Poly_aftertouch_c, 0, 73, 0
1, 1209513, Note_off_c, 0, 65, 53
1, 1209513, Poly_aftertouch_c, 0, 65, 0
1, 1209556, Note_off_c, 0, 43, 53
1, 1209556, Poly_aftertouch_c, 0, 43, 0
1, 1209656, Note_off_c, 0, 31, 53
1, 1209656, Poly_aftertouch_c, 0, 31, 0
1, 1209669, Note_off_c, 0, 77, 51
1, 1209669, Poly_aftertouch_c, 0, 77, 0
1, 1209781, Control_c, 0, 64, 89
1, 1209798, Control_c, 0, 64, 55
1, 1209812, Note_on_c, 0, 63, 89
1, 1209815, Note_on_c, 0, 75, 91
1, 1209817, Control_c, 0, 64, 58
1, 1209822, Note_on_c, 0, 44, 96
1, 1209824, Note_on_c, 0, 72, 76
1, 1209825, Note_on_c, 0, 32, 88
1, 1209837, Control_c, 0, 64, 81
1, 1209854, Control_c, 0, 64, 119
1, 1209868, Note_off_c, 0, 63, 65
1, 1209872, Control_c, 0, 64, 127
1, 1209877, Note_on_c, 0, 34, 29
1, 1209899, Note_off_c, 0, 72, 60
1, 1209916, Note_off_c, 0, 75, 63
1, 1209956, Note_off_c, 0, 34, 36
1, 1210030, Note_on_c, 0, 80, 94
1, 1210040, Note_on_c, 0, 68, 89
1, 1210078, Note_off_c, 0, 44, 61
1, 1210079, Note_off_c, 0, 68, 63
1, 1210079, Poly_aftertouch_c, 0, 68, 0
1, 1210108, Note_off_c, 0, 80, 62
1, 1210108, Poly_aftertouch_c, 0, 80, 0
1, 1210226, Note_on_c, 0, 87, 98
1, 1210232, Note_on_c, 0, 75, 90
1, 1210285, Note_off_c, 0, 75, 63
1, 1210323, Note_off_c, 0, 87, 55
1, 1210323, Poly_aftertouch_c, 0, 87, 0
1, 1210400, Note_off_c, 0, 32, 50
1, 1210400, Poly_aftertouch_c, 0, 32, 0
1, 1210468, Note_on_c, 0, 89, 99
1, 1210468, Note_on_c, 0, 77, 100
1, 1210469, Note_on_c, 0, 80, 91
1, 1210470, Note_on_c, 0, 41, 98
1, 1210470, Note_on_c, 0, 85, 90
1, 1210476, Note_on_c, 0, 29, 93
1, 1210497, Control_c, 0, 64, 78
1, 1210509, Control_c, 0, 64, 0
1, 1210547, Control_c, 0, 64, 43
1, 1210565, Control_c, 0, 64, 86
1, 1210584, Control_c, 0, 64, 127
1, 1210631, Note_off_c, 0, 89, 57
1, 1210640, Note_off_c, 0, 77, 55
1, 1210640, Poly_aftertouch_c, 0, 77, 0
1, 1210697, Note_off_c, 0, 85, 62
1, 1210858, Note_off_c, 0, 29, 51
1, 1210858, Poly_aftertouch_c, 0, 29, 0
1, 1210863, Note_off_c, 0, 80, 63
1, 1210863, Poly_aftertouch_c, 0, 80, 0
1, 1210895, Note_on_c, 0, 73, 101
1, 1210895, Note_on_c, 0, 85, 90
1, 1210907, Note_off_c, 0, 41, 58
1, 1210907, Poly_aftertouch_c, 0, 41, 0
1, 1210957, Poly_aftertouch_c, 0, 36, 0
1, 1210962, Note_off_c, 0, 85, 64
1, 1211003, Note_off_c, 0, 73, 55
1, 1211003, Poly_aftertouch_c, 0, 73, 0
1, 1211138, Note_on_c, 0, 82, 104
1, 1211141, Note_on_c, 0, 70, 105
1, 1211144, Note_on_c, 0, 42, 102
1, 1211144, Control_c, 0, 64, 107
1, 1211145, Note_on_c, 0, 78, 92
1, 1211152, Note_on_c, 0, 30, 96
1, 1211166, Control_c, 0, 64, 53
1, 1211183, Control_c, 0, 64, 0
1, 1211201, Control_c, 0, 64, 47
1, 1211211, Poly_aftertouch_c, 0, 80, 0
1, 1211219, Control_c, 0, 64, 89
1, 1211238, Control_c, 0, 64, 127
1, 1211286, Note_off_c, 0, 82, 65
1, 1211300, Note_off_c, 0, 70, 58
1, 1211300, Poly_aftertouch_c, 0, 70, 0
1, 1211341, Note_off_c, 0, 78, 61
1, 1211572, Note_on_c, 0, 78, 97
1, 1211573, Note_on_c, 0, 66, 103
1, 1211576, Poly_aftertouch_c, 0, 32, 0
1, 1211580, Note_on_c, 0, 75, 84
1, 1211592, Note_off_c, 0, 30, 58
1, 1211656, Note_off_c, 0, 42, 58
1, 1211668, Note_off_c, 0, 75, 58
1, 1211690, Poly_aftertouch_c, 0, 73, 127
1, 1211707, Note_off_c, 0, 66, 58
1, 1211709, Note_off_c, 0, 78, 63
1, 1211734, Poly_aftertouch_c, 0, 73, 0
1, 1211747, Poly_aftertouch_c, 0, 32, 0
1, 1211836, Control_c, 0, 64, 112
1, 1211843, Note_on_c, 0, 77, 101
1, 1211848, Note_on_c, 0, 65, 104
1, 1211849, Note_on_c, 0, 73, 95
1, 1211853, Note_on_c, 0, 43, 105
1, 1211856, Control_c, 0, 64, 50
1, 1211858, Note_on_c, 0, 31, 93
1, 1211874, Control_c, 0, 64, 0
1, 1211897, Note_on_c, 0, 32, 47
1, 1211930, Control_c, 0, 64, 48
1, 1211944, Note_off_c, 0, 32, 33
1, 1211948, Control_c, 0, 64, 94
1, 1211967, Control_c, 0, 64, 127
1, 1212162, Note_off_c, 0, 73, 61
1, 1212195, Note_off_c, 0, 31, 57
1, 1212195, Poly_aftertouch_c, 0, 31, 0
1, 1212204, Note_off_c, 0, 43, 59
1, 1212204, Poly_aftertouch_c, 0, 43, 0
1, 1212215, Note_off_c, 0, 65, 58
1, 1212215, Poly_aftertouch_c, 0, 65, 0
1, 1212376, Note_off_c, 0, 77, 57
1, 1212376, Poly_aftertouch_c, 0, 77, 0
1, 1212493, Control_c, 0, 64, 111
1, 1212510, Control_c, 0, 64, 54
1, 1212522, Note_on_c, 0, 75, 96
1, 1212522, Note_on_c, 0, 63, 95
1, 1212524, Note_on_c, 0, 44, 102
1, 1212529, Note_on_c, 0, 32, 98
1, 1212529, Control_c, 0, 64, 0
1, 1212531, Note_on_c, 0, 72, 81
1, 1212547, Control_c, 0, 64, 23
1, 1212566, Control_c, 0, 64, 73
1, 1212575, Note_off_c, 0, 63, 63
1, 1212585, Control_c, 0, 64, 115
1, 1212602, Note_off_c, 0, 72, 60
1, 1212603, Control_c, 0, 64, 127
1, 1212618, Note_off_c, 0, 75, 64
1, 1212754, Note_on_c, 0, 80, 101
1, 1212756, Note_on_c, 0, 68, 99
1, 1212782, Note_on_c, 0, 78, 62
1, 1212802, Note_off_c, 0, 68, 62
1, 1212802, Poly_aftertouch_c, 0, 68, 0
1, 1212807, Note_off_c, 0, 78, 44
1, 1212813, Note_off_c, 0, 80, 64
1, 1212890, Note_off_c, 0, 44, 59
1, 1212959, Note_off_c, 0, 32, 58
1, 1212980, Note_on_c, 0, 87, 101
1, 1212983, Note_on_c, 0, 75, 105
1, 1212999, Note_on_c, 0, 85, 79
1, 1213018, Note_off_c, 0, 85, 71
1, 1213022, Note_off_c, 0, 75, 67
1, 1213041, Note_off_c, 0, 87, 64
1, 1213041, Poly_aftertouch_c, 0, 87, 0
1, 1213221, Control_c, 0, 64, 122
1, 1213240, Control_c, 0, 64, 63
1, 1213258, Control_c, 0, 64, 0
1, 1213275, Note_on_c, 0, 85, 108
1, 1213276, Note_on_c, 0, 29, 89
1, 1213276, Note_on_c, 0, 41, 97
1, 1213276, Note_on_c, 0, 37, 90
1, 1213277, Note_on_c, 0, 80, 105
1, 1213278, Note_on_c, 0, 92, 101
1, 1213279, Note_off_c, 0, 92, 127
1, 1213305, Control_c, 0, 64, 68
1, 1213314, Control_c, 0, 64, 127
1, 1213316, Note_off_c, 0, 29, 64
1, 1213316, Poly_aftertouch_c, 0, 29, 0
1, 1213322, Note_on_c, 0, 32, 43
1, 1213322, Poly_aftertouch_c, 0, 92, 0
1, 1213334, Note_off_c, 0, 41, 65
1, 1213334, Poly_aftertouch_c, 0, 41, 0
1, 1213347, Note_off_c, 0, 80, 62
1, 1213348, Note_off_c, 0, 37, 63
1, 1213349, Note_off_c, 0, 85, 62
1, 1213381, Note_off_c, 0, 32, 41
1, 1213619, Note_on_c, 0, 89, 86
1, 1213622, Note_on_c, 0, 65, 75
1, 1213628, Note_on_c, 0, 77, 80
1, 1213644, Note_off_c, 0, 89, 72
1, 1213653, Note_off_c, 0, 77, 70
1, 1213653, Poly_aftertouch_c, 0, 77, 0
1, 1213668, Note_off_c, 0, 65, 62
1, 1213668, Poly_aftertouch_c, 0, 65, 0
1, 1213717, Note_on_c, 0, 61, 89
1, 1213729, Note_on_c, 0, 73, 100
1, 1213733, Note_on_c, 0, 85, 88
1, 1213755, Note_off_c, 0, 85, 74
1, 1213775, Note_off_c, 0, 73, 62
1, 1213779, Note_off_c, 0, 61, 63
1, 1213779, Poly_aftertouch_c, 0, 61, 0
1, 1213952, Note_on_c, 0, 56, 88
1, 1214007, Note_off_c, 0, 56, 67
1, 1214081, Note_on_c, 0, 80, 77
1, 1214089, Note_on_c, 0, 68, 71
1, 1214140, Note_off_c, 0, 68, 60
1, 1214140, Poly_aftertouch_c, 0, 68, 0
1, 1214143, Note_off_c, 0, 80, 60
1, 1214174, Note_on_c, 0, 53, 88
1, 1214249, Control_c, 0, 64, 112
1, 1214256, Note_off_c, 0, 53, 59
1, 1214256, Poly_aftertouch_c, 0, 53, 0
1, 1214267, Control_c, 0, 64, 96
1, 1214276, Note_on_c, 0, 77, 81
1, 1214280, Note_on_c, 0, 65, 79
1, 1214285, Control_c, 0, 64, 104
1, 1214305, Control_c, 0, 64, 125
1, 1214308, Note_off_c, 0, 77, 63
1, 1214308, Poly_aftertouch_c, 0, 77, 0
1, 1214320, Note_off_c, 0, 65, 64
1, 1214320, Poly_aftertouch_c, 0, 65, 0
1, 1214389, Note_on_c, 0, 49, 90
1, 1214474, Control_c, 0, 64, 107
1, 1214480, Note_on_c, 0, 61, 85
1, 1214489, Note_off_c, 0, 49, 53
1, 1214489, Poly_aftertouch_c, 0, 49, 0
1, 1214492, Note_on_c, 0, 73, 71
1, 1214492, Control_c, 0, 64, 86
1, 1214511, Control_c, 0, 64, 98
1, 1214522, Note_off_c, 0, 73, 70
1, 1214528, Control_c, 0, 64, 127
1, 1214532, Note_off_c, 0, 61, 59
1, 1214532, Poly_aftertouch_c, 0, 61, 0
1, 1214601, Note_on_c, 0, 44, 92
1, 1214680, Control_c, 0, 64, 123
1, 1214691, Note_on_c, 0, 56, 75
1, 1214693, Note_on_c, 0, 68, 64
1, 1214697, Control_c, 0, 64, 127
1, 1214703, Note_off_c, 0, 44, 60
1, 1214729, Note_off_c, 0, 68, 68
1, 1214729, Poly_aftertouch_c, 0, 68, 0
1, 1214731, Note_off_c, 0, 56, 62
1, 1214804, Note_on_c, 0, 41, 91
1, 1214884, Note_on_c, 0, 53, 84
1, 1214887, Note_on_c, 0, 65, 83
1, 1214895, Note_off_c, 0, 41, 62
1, 1214895, Poly_aftertouch_c, 0, 41, 0
1, 1214932, Note_off_c, 0, 53, 60
1, 1214932, Poly_aftertouch_c, 0, 53, 0
1, 1214945, Note_off_c, 0, 65, 62
1, 1214945, Poly_aftertouch_c, 0, 65, 0
1, 1215008, Note_on_c, 0, 44, 91
1, 1215078, Note_on_c, 0, 56, 88
1, 1215081, Note_on_c, 0, 68, 82
1, 1215093, Note_off_c, 0, 44, 62
1, 1215133, Note_off_c, 0, 56, 59
1, 1215141, Note_off_c, 0, 68, 61
1, 1215141, Poly_aftertouch_c, 0, 68, 0
1, 1215233, Note_on_c, 0, 49, 99
1, 1215299, Note_off_c, 0, 49, 66
1, 1215299, Poly_aftertouch_c, 0, 49, 0
1, 1215311, Note_on_c, 0, 61, 85
1, 1215322, Note_on_c, 0, 73, 80
1, 1215355, Note_off_c, 0, 73, 65
1, 1215365, Note_off_c, 0, 61, 61
1, 1215365, Poly_aftertouch_c, 0, 61, 0
1, 1215369, Poly_aftertouch_c, 0, 53, 0
1, 1215485, Poly_aftertouch_c, 0, 53, 127
1, 1215501, Poly_aftertouch_c, 0, 53, 0
1, 1215522, Note_on_c, 0, 77, 88
1, 1215523, Note_on_c, 0, 65, 86
1, 1215575, Note_off_c, 0, 77, 63
1, 1215575, Poly_aftertouch_c, 0, 77, 0
1, 1215579, Note_off_c, 0, 65, 61
1, 1215579, Poly_aftertouch_c, 0, 65, 0
1, 1215639, Note_on_c, 0, 56, 99
1, 1215684, Note_off_c, 0, 56, 67
1, 1215718, Note_on_c, 0, 68, 89
1, 1215725, Note_on_c, 0, 80, 86
1, 1215777, Note_off_c, 0, 68, 66
1, 1215777, Poly_aftertouch_c, 0, 68, 0
1, 1215782, Note_off_c, 0, 80, 64
1, 1216007, Control_c, 0, 64, 107
1, 1216008, Note_on_c, 0, 80, 88
1, 1216009, Note_on_c, 0, 85, 98
1, 1216009, Note_on_c, 0, 73, 102
1, 1216010, Note_on_c, 0, 77, 87
1, 1216014, Note_on_c, 0, 68, 104
1, 1216018, Note_on_c, 0, 61, 93
1, 1216026, Control_c, 0, 64, 51
1, 1216044, Control_c, 0, 64, 0
1, 1216082, Control_c, 0, 64, 33
1, 1216100, Control_c, 0, 64, 66
1, 1216120, Control_c, 0, 64, 97
1, 1216137, Control_c, 0, 64, 127
1, 1216258, Note_off_c, 0, 68, 58
1, 1216258, Poly_aftertouch_c, 0, 68, 0
1, 1216293, Note_off_c, 0, 73, 61
1, 1216338, Note_off_c, 0, 77, 54
1, 1216338, Poly_aftertouch_c, 0, 77, 0
1, 1216359, Note_off_c, 0, 85, 60
1, 1216382, Note_off_c, 0, 80, 61
1, 1216406, Note_off_c, 0, 61, 34
1, 1216406, Poly_aftertouch_c, 0, 61, 0
1, 1216646, Note_on_c, 0, 60, 77
1, 1216652, Note_on_c, 0, 72, 85
1, 1216655, Note_on_c, 0, 87, 94
1, 1216656, Note_on_c, 0, 75, 101
1, 1216659, Note_on_c, 0, 78, 88
1, 1216660, Note_on_c, 0, 80, 86
1, 1216661, Note_on_c, 0, 68, 78
1, 1216684, Control_c, 0, 64, 106
1, 1216699, Control_c, 0, 64, 66
1, 1216717, Control_c, 0, 64, 56
1, 1216725, Note_off_c, 0, 72, 62
1, 1216728, Note_off_c, 0, 60, 62
1, 1216728, Poly_aftertouch_c, 0, 60, 0
1, 1216737, Control_c, 0, 64, 76
1, 1216755, Control_c, 0, 64, 108
1, 1216773, Control_c, 0, 64, 127
1, 1216868, Note_on_c, 0, 73, 96
1, 1216871, Note_on_c, 0, 61, 83
1, 1216947, Note_off_c, 0, 75, 62
1, 1216965, Note_off_c, 0, 61, 62
1, 1216965, Poly_aftertouch_c, 0, 61, 0
1, 1216966, Note_off_c, 0, 78, 61
1, 1216966, Note_off_c, 0, 80, 62
1, 1216980, Note_off_c, 0, 73, 62
1, 1217000, Note_off_c, 0, 87, 60
1, 1217000, Poly_aftertouch_c, 0, 87, 0
1, 1217038, Note_on_c, 0, 72, 91
1, 1217042, Note_on_c, 0, 60, 81
1, 1217121, Note_off_c, 0, 72, 59
1, 1217149, Note_off_c, 0, 60, 62
1, 1217149, Poly_aftertouch_c, 0, 60, 0
1, 1217204, Note_off_c, 0, 68, 42
1, 1217204, Poly_aftertouch_c, 0, 68, 0
1, 1217240, Control_c, 0, 64, 101
1, 1217243, Note_on_c, 0, 89, 96
1, 1217249, Note_on_c, 0, 85, 90
1, 1217249, Note_on_c, 0, 80, 93
1, 1217250, Note_on_c, 0, 77, 99
1, 1217254, Note_on_c, 0, 71, 98
1, 1217258, Control_c, 0, 64, 41
1, 1217261, Note_on_c, 0, 68, 65
1, 1217261, Note_on_c, 0, 59, 85
1, 1217271, Note_on_c, 0, 61, 76
1, 1217277, Control_c, 0, 64, 0
1, 1217297, Control_c, 0, 64, 18
1, 1217315, Control_c, 0, 64, 54
1, 1217334, Control_c, 0, 64, 84
1, 1217353, Control_c, 0, 64, 115
1, 1217371, Control_c, 0, 64, 127
1, 1217377, Note_off_c, 0, 71, 57
1, 1217377, Note_off_c, 0, 59, 61
1, 1217433, Note_off_c, 0, 77, 59
1, 1217433, Poly_aftertouch_c, 0, 77, 0
1, 1217438, Note_off_c, 0, 61, 61
1, 1217438, Poly_aftertouch_c, 0, 61, 0
1, 1217450, Note_off_c, 0, 68, 63
1, 1217450, Poly_aftertouch_c, 0, 68, 0
1, 1217500, Note_off_c, 0, 89, 61
1, 1217508, Note_off_c, 0, 80, 62
1, 1217543, Note_off_c, 0, 85, 60
1, 1217678, Poly_aftertouch_c, 0, 58, 0
1, 1217799, Note_on_c, 0, 90, 96
1, 1217802, Note_on_c, 0, 78, 99
1, 1217804, Note_on_c, 0, 66, 76
1, 1217804, Note_on_c, 0, 70, 88
1, 1217805, Note_on_c, 0, 58, 78
1, 1217806, Note_on_c, 0, 85, 88
1, 1217819, Note_on_c, 0, 61, 70
1, 1217820, Control_c, 0, 64, 118
1, 1217839, Control_c, 0, 64, 68
1, 1217858, Control_c, 0, 64, 13
1, 1217877, Control_c, 0, 64, 42
1, 1217895, Control_c, 0, 64, 73
1, 1217905, Note_off_c, 0, 70, 62
1, 1217905, Poly_aftertouch_c, 0, 70, 0
1, 1217907, Note_off_c, 0, 58, 64
1, 1217914, Control_c, 0, 64, 101
1, 1217932, Control_c, 0, 64, 127
1, 1217986, Note_on_c, 0, 71, 92
1, 1217987, Note_on_c, 0, 59, 80
1, 1218041, Note_off_c, 0, 71, 64
1, 1218045, Note_off_c, 0, 66, 64
1, 1218045, Note_on_c, 0, 66, 14
1, 1218048, Note_off_c, 0, 59, 61
1, 1218073, Note_off_c, 0, 66, 65
1, 1218073, Note_off_c, 0, 61, 61
1, 1218073, Poly_aftertouch_c, 0, 61, 0
1, 1218114, Note_off_c, 0, 85, 60
1, 1218141, Note_off_c, 0, 78, 55
1, 1218141, Note_on_c, 0, 70, 91
1, 1218151, Note_on_c, 0, 58, 89
1, 1218161, Note_off_c, 0, 90, 55
1, 1218250, Note_off_c, 0, 70, 45
1, 1218250, Poly_aftertouch_c, 0, 70, 0
1, 1218252, Note_off_c, 0, 58, 58
1, 1218344, Control_c, 0, 64, 122
1, 1218352, Note_on_c, 0, 91, 96
1, 1218357, Note_on_c, 0, 79, 99
1, 1218359, Note_on_c, 0, 61, 62
1, 1218359, Note_on_c, 0, 87, 91
1, 1218359, Note_on_c, 0, 85, 92
1, 1218364, Control_c, 0, 64, 69
1, 1218365, Note_on_c, 0, 69, 99
1, 1218369, Note_on_c, 0, 63, 85
1, 1218370, Note_on_c, 0, 57, 85
1, 1218395, Control_c, 0, 64, 0
1, 1218438, Control_c, 0, 64, 49
1, 1218455, Control_c, 0, 64, 83
1, 1218475, Control_c, 0, 64, 124
1, 1218547, Note_off_c, 0, 79, 59
1, 1218547, Note_off_c, 0, 69, 52
1, 1218547, Poly_aftertouch_c, 0, 79, 0
1, 1218559, Note_off_c, 0, 57, 60
1, 1218559, Poly_aftertouch_c, 0, 57, 0
1, 1218575, Note_off_c, 0, 91, 64
1, 1218617, Note_off_c, 0, 85, 62
1, 1218618, Note_off_c, 0, 87, 62
1, 1218618, Poly_aftertouch_c, 0, 87, 0
1, 1218637, Note_off_c, 0, 63, 58
1, 1218645, Note_off_c, 0, 61, 61
1, 1218645, Poly_aftertouch_c, 0, 61, 0
1, 1218905, Note_on_c, 0, 92, 96
1, 1218905, Control_c, 0, 64, 102
1, 1218907, Note_on_c, 0, 80, 100
1, 1218908, Note_on_c, 0, 87, 87
1, 1218908, Note_on_c, 0, 85, 88
1, 1218909, Note_on_c, 0, 63, 59
1, 1218912, Note_on_c, 0, 68, 91
1, 1218912, Note_on_c, 0, 56, 82
1, 1218922, Control_c, 0, 64, 50
1, 1218929, Note_on_c, 0, 61, 66
1, 1218945, Control_c, 0, 64, 0
1, 1218961, Control_c, 0, 64, 31
1, 1218980, Control_c, 0, 64, 66
1, 1218998, Control_c, 0, 64, 95
1, 1219015, Note_off_c, 0, 56, 65
1, 1219016, Control_c, 0, 64, 127
1, 1219021, Note_off_c, 0, 68, 61
1, 1219021, Poly_aftertouch_c, 0, 68, 0
1, 1219082, Note_on_c, 0, 69, 94
1, 1219085, Note_on_c, 0, 57, 83
1, 1219140, Note_off_c, 0, 69, 62
1, 1219148, Note_off_c, 0, 57, 63
1, 1219148, Poly_aftertouch_c, 0, 57, 0
1, 1219201, Note_off_c, 0, 63, 54
1, 1219210, Note_off_c, 0, 61, 63
1, 1219210, Poly_aftertouch_c, 0, 61, 0
1, 1219234, Note_on_c, 0, 68, 95
1, 1219248, Note_on_c, 0, 56, 86
1, 1219249, Note_off_c, 0, 80, 55
1, 1219261, Note_off_c, 0, 85, 55
1, 1219270, Note_off_c, 0, 87, 55
1, 1219270, Poly_aftertouch_c, 0, 87, 0
1, 1219293, Note_off_c, 0, 92, 61
1, 1219352, Note_off_c, 0, 56, 55
1, 1219384, Note_off_c, 0, 68, 58
1, 1219384, Poly_aftertouch_c, 0, 68, 0
1, 1219467, Control_c, 0, 64, 87
1, 1219479, Note_on_c, 0, 93, 101
1, 1219483, Note_on_c, 0, 81, 102
1, 1219483, Note_on_c, 0, 87, 93
1, 1219483, Control_c, 0, 64, 0
1, 1219485, Note_on_c, 0, 85, 96
1, 1219485, Note_on_c, 0, 67, 101
1, 1219493, Note_on_c, 0, 55, 85
1, 1219494, Note_on_c, 0, 61, 80
1, 1219500, Note_on_c, 0, 63, 54
1, 1219559, Control_c, 0, 64, 46
1, 1219579, Control_c, 0, 64, 100
1, 1219597, Control_c, 0, 64, 127
1, 1219695, Note_off_c, 0, 55, 61
1, 1219695, Poly_aftertouch_c, 0, 55, 0
1, 1219701, Note_off_c, 0, 81, 58
1, 1219737, Note_off_c, 0, 93, 63
1, 1219740, Note_off_c, 0, 67, 57
1, 1219798, Note_off_c, 0, 63, 60
1, 1219798, Note_off_c, 0, 61, 60
1, 1219798, Poly_aftertouch_c, 0, 61, 0
1, 1219810, Note_off_c, 0, 85, 60
1, 1219816, Note_off_c, 0, 87, 61
1, 1219816, Poly_aftertouch_c, 0, 87, 0
1, 1220139, Control_c, 0, 64, 121
1, 1220151, Note_on_c, 0, 94, 102
1, 1220153, Note_on_c, 0, 82, 103
1, 1220154, Note_on_c, 0, 85, 96
1, 1220158, Control_c, 0, 64, 60
1, 1220160, Note_on_c, 0, 87, 91
1, 1220160, Note_on_c, 0, 54, 81
1, 1220164, Note_on_c, 0, 63, 88
1, 1220165, Note_on_c, 0, 66, 93
1, 1220170, Note_on_c, 0, 61, 81
1, 1220177, Control_c, 0, 64, 0
1, 1220209, Note_on_c, 0, 95, 27
1, 1220210, Note_off_c, 0, 95, 127
1, 1220290, Control_c, 0, 64, 103
1, 1220296, Note_off_c, 0, 66, 65
1, 1220308, Control_c, 0, 64, 127
1, 1220371, Note_off_c, 0, 63, 58
1, 1220382, Note_off_c, 0, 54, 58
1, 1220386, Note_off_c, 0, 61, 59
1, 1220386, Poly_aftertouch_c, 0, 61, 0
1, 1220886, Note_on_c, 0, 44, 101
1, 1220894, Note_on_c, 0, 32, 97
1, 1220925, Note_off_c, 0, 32, 69
1, 1220937, Note_off_c, 0, 44, 65
1, 1221021, Poly_aftertouch_c, 0, 34, 127
1, 1221038, Poly_aftertouch_c, 0, 34, 0
1, 1221136, Note_off_c, 0, 94, 54
1, 1221195, Note_off_c, 0, 85, 57
1, 1221477, Note_off_c, 0, 82, 37
1, 1221547, Poly_aftertouch_c, 0, 87, 24
1, 1221603, Note_off_c, 0, 87, 19
1, 1221603, Poly_aftertouch_c, 0, 87, 0
1, 1221741, Note_on_c, 0, 51, 84
1, 1221743, Note_on_c, 0, 80, 110
1, 1221744, Note_on_c, 0, 92, 103
1, 1221744, Note_on_c, 0, 66, 99
1, 1221744, Note_on_c, 0, 84, 97
1, 1221747, Note_on_c, 0, 87, 97
1, 1221748, Note_on_c, 0, 60, 87
1, 1221753, Note_on_c, 0, 56, 80
1, 1221754, Note_off_c, 0, 56, 127
1, 1221754, Note_on_c, 0, 54, 79
1, 1221794, Note_off_c, 0, 51, 65
1, 1221797, Note_off_c, 0, 66, 66
1, 1221810, Poly_aftertouch_c, 0, 56, 127
1, 1221818, Note_off_c, 0, 54, 64
1, 1221824, Note_off_c, 0, 80, 64
1, 1221826, Note_off_c, 0, 60, 66
1, 1221826, Poly_aftertouch_c, 0, 60, 0
1, 1221830, Note_off_c, 0, 92, 65
1, 1221830, Poly_aftertouch_c, 0, 56, 0
1, 1221857, Note_off_c, 0, 87, 62
1, 1221857, Poly_aftertouch_c, 0, 87, 0
1, 1221860, Note_off_c, 0, 84, 63
1, 1222700, Control_c, 0, 64, 77
1, 1222719, Control_c, 0, 64, 0
1, 1222756, Control_c, 0, 67, 9
1, 1222775, Control_c, 0, 67, 15
1, 1222794, Control_c, 0, 67, 22
1, 1222812, Control_c, 0, 67, 31
1, 1222831, Control_c, 0, 67, 42
1, 1222849, Control_c, 0, 67, 55
1, 1222869, Control_c, 0, 67, 67
1, 1222887, Control_c, 0, 67, 77
1, 1222907, Control_c, 0, 67, 82
1, 1223299, Control_c, 0, 67, 78
1, 1223318, Control_c, 0, 67, 74
1, 1223321, Note_on_c, 0, 56, 88
1, 1223322, Note_on_c, 0, 44, 74
1, 1223338, Control_c, 0, 67, 59
1, 1223355, Control_c, 0, 64, 95
1, 1223358, Control_c, 0, 67, 20
1, 1223374, Control_c, 0, 64, 127
1, 1223376, Control_c, 0, 67, 0
1, 1223386, Note_off_c, 0, 56, 58
1, 1223416, Note_off_c, 0, 44, 57
1, 1223422, Note_on_c, 0, 48, 78
1, 1223422, Note_on_c, 0, 60, 81
1, 1223485, Note_off_c, 0, 60, 62
1, 1223485, Poly_aftertouch_c, 0, 60, 0
1, 1223505, Control_c, 0, 64, 95
1, 1223514, Note_on_c, 0, 51, 82
1, 1223518, Note_off_c, 0, 48, 63
1, 1223518, Poly_aftertouch_c, 0, 48, 0
1, 1223519, Note_on_c, 0, 63, 79
1, 1223524, Control_c, 0, 64, 43
1, 1223543, Control_c, 0, 64, 0
1, 1223580, Note_off_c, 0, 63, 62
1, 1223589, Note_off_c, 0, 51, 62
1, 1223628, Note_on_c, 0, 56, 81
1, 1223631, Note_on_c, 0, 68, 87
1, 1223660, Note_off_c, 0, 56, 70
1, 1223731, Note_off_c, 0, 68, 59
1, 1223731, Note_on_c, 0, 72, 78
1, 1223731, Poly_aftertouch_c, 0, 68, 0
1, 1223733, Note_on_c, 0, 60, 81
1, 1223795, Note_off_c, 0, 60, 63
1, 1223795, Poly_aftertouch_c, 0, 60, 0
1, 1223836, Note_on_c, 0, 75, 78
1, 1223839, Note_on_c, 0, 63, 80
1, 1223845, Note_off_c, 0, 72, 62
1, 1223868, Note_off_c, 0, 63, 71
1, 1223953, Note_off_c, 0, 75, 61
1, 1223981, Note_on_c, 0, 68, 101
1, 1223983, Note_on_c, 0, 77, 83
1, 1223985, Note_on_c, 0, 80, 92
1, 1223988, Note_on_c, 0, 73, 87
1, 1223991, Control_c, 0, 64, 27
1, 1224006, Note_on_c, 0, 49, 99
1, 1224008, Note_on_c, 0, 37, 91
1, 1224011, Control_c, 0, 64, 127
1, 1224015, Note_on_c, 0, 75, 36
1, 1224032, Note_off_c, 0, 68, 65
1, 1224032, Poly_aftertouch_c, 0, 68, 0
1, 1224039, Note_off_c, 0, 49, 62
1, 1224039, Note_off_c, 0, 37, 69
1, 1224039, Poly_aftertouch_c, 0, 49, 0
1, 1224042, Note_off_c, 0, 77, 65
1, 1224042, Note_off_c, 0, 80, 65
1, 1224042, Poly_aftertouch_c, 0, 77, 0
1, 1224044, Note_off_c, 0, 73, 66
1, 1224053, Note_off_c, 0, 75, 55
1, 1224216, Control_c, 0, 64, 123
1, 1224234, Control_c, 0, 64, 95
1, 1224252, Control_c, 0, 64, 65
1, 1224272, Note_on_c, 0, 56, 78
1, 1224272, Control_c, 0, 64, 11
1, 1224274, Note_on_c, 0, 53, 72
1, 1224289, Control_c, 0, 64, 0
1, 1224318, Note_off_c, 0, 56, 62
1, 1224320, Note_off_c, 0, 53, 64
1, 1224346, Note_on_c, 0, 66, 87
1, 1224354, Note_on_c, 0, 78, 79
1, 1224381, Note_off_c, 0, 78, 68
1, 1224407, Note_off_c, 0, 66, 63
1, 1224450, Note_on_c, 0, 61, 87
1, 1224450, Note_on_c, 0, 77, 90
1, 1224452, Note_on_c, 0, 56, 85
1, 1224456, Note_on_c, 0, 65, 91
1, 1224477, Note_off_c, 0, 61, 70
1, 1224477, Poly_aftertouch_c, 0, 61, 0
1, 1224487, Note_off_c, 0, 56, 66
1, 1224492, Note_off_c, 0, 77, 60
1, 1224492, Poly_aftertouch_c, 0, 77, 0
1, 1224499, Note_off_c, 0, 65, 61
1, 1224499, Poly_aftertouch_c, 0, 65, 0
1, 1224667, Note_on_c, 0, 41, 89
1, 1224717, Note_off_c, 0, 41, 65
1, 1224717, Poly_aftertouch_c, 0, 41, 0
1, 1224739, Control_c, 0, 64, 107
1, 1224755, Note_on_c, 0, 61, 83
1, 1224757, Note_on_c, 0, 73, 80
1, 1224757, Control_c, 0, 64, 127
1, 1224806, Note_off_c, 0, 73, 60
1, 1224810, Note_off_c, 0, 61, 61
1, 1224810, Poly_aftertouch_c, 0, 61, 0
1, 1224854, Note_on_c, 0, 60, 96
1, 1224855, Note_on_c, 0, 72, 93
1, 1224859, Note_on_c, 0, 53, 85
1, 1224866, Note_on_c, 0, 49, 80
1, 1224870, Control_c, 0, 64, 97
1, 1224889, Control_c, 0, 64, 27
1, 1224898, Note_off_c, 0, 53, 62
1, 1224903, Note_off_c, 0, 49, 68
1, 1224903, Note_off_c, 0, 60, 67
1, 1224903, Note_off_c, 0, 72, 63
1, 1224903, Poly_aftertouch_c, 0, 49, 0
1, 1224903, Poly_aftertouch_c, 0, 60, 0
1, 1224906, Control_c, 0, 64, 0
1, 1225184, Note_on_c, 0, 73, 90
1, 1225188, Note_on_c, 0, 56, 82
1, 1225189, Note_on_c, 0, 61, 92
1, 1225196, Note_on_c, 0, 53, 78
1, 1225218, Note_off_c, 0, 56, 69
1, 1225221, Note_off_c, 0, 61, 65
1, 1225221, Poly_aftertouch_c, 0, 61, 0
1, 1225229, Note_off_c, 0, 53, 67
1, 1225233, Note_off_c, 0, 73, 64
1, 1225558, Note_on_c, 0, 68, 93
1, 1225559, Note_on_c, 0, 51, 88
1, 1225560, Note_on_c, 0, 56, 97
1, 1225560, Note_on_c, 0, 44, 81
1, 1225561, Note_on_c, 0, 60, 90
1, 1225598, Control_c, 0, 64, 29
1, 1225616, Note_off_c, 0, 56, 64
1, 1225617, Control_c, 0, 64, 127
1, 1225620, Note_off_c, 0, 44, 62
1, 1225620, Note_off_c, 0, 51, 65
1, 1225625, Note_off_c, 0, 60, 68
1, 1225625, Poly_aftertouch_c, 0, 60, 0
1, 1225631, Note_off_c, 0, 68, 66
1, 1225631, Poly_aftertouch_c, 0, 68, 0
1, 1225660, Poly_aftertouch_c, 0, 66, 0
1, 1225699, Poly_aftertouch_c, 0, 43, 0
1, 1225706, Poly_aftertouch_c, 0, 55, 0
1, 1226086, Control_c, 0, 64, 118
1, 1226103, Control_c, 0, 64, 64
1, 1226122, Control_c, 0, 64, 0
1, 1226327, Note_on_c, 0, 44, 70
1, 1226337, Note_on_c, 0, 56, 65
1, 1226366, Control_c, 0, 64, 31
1, 1226385, Control_c, 0, 64, 124
1, 1226407, Note_off_c, 0, 44, 59
1, 1226439, Note_on_c, 0, 47, 77
1, 1226458, Note_on_c, 0, 59, 69
1, 1226473, Note_off_c, 0, 56, 57
1, 1226508, Poly_aftertouch_c, 0, 56, 0
1, 1226509, Note_off_c, 0, 59, 51
1, 1226541, Note_on_c, 0, 51, 84
1, 1226542, Note_off_c, 0, 47, 59
1, 1226548, Note_on_c, 0, 63, 79
1, 1226613, Note_off_c, 0, 51, 61
1, 1226615, Note_off_c, 0, 63, 61
1, 1226641, Note_on_c, 0, 68, 84
1, 1226683, Poly_aftertouch_c, 0, 56, 0
1, 1226698, Note_off_c, 0, 68, 67
1, 1226698, Poly_aftertouch_c, 0, 68, 0
1, 1226748, Note_on_c, 0, 59, 88
1, 1226761, Note_on_c, 0, 71, 88
1, 1226804, Note_off_c, 0, 59, 59
1, 1226850, Note_on_c, 0, 75, 87
1, 1226858, Note_on_c, 0, 63, 84
1, 1226860, Note_off_c, 0, 71, 41
1, 1226886, Note_off_c, 0, 63, 72
1, 1226923, Note_off_c, 0, 75, 63
1, 1226947, Control_c, 0, 64, 111
1, 1226964, Control_c, 0, 64, 50
1, 1226982, Control_c, 0, 64, 0
1, 1226996, Note_on_c, 0, 70, 105
1, 1226998, Note_on_c, 0, 82, 96
1, 1227000, Note_on_c, 0, 78, 88
1, 1227003, Note_on_c, 0, 75, 90
1, 1227003, Control_c, 0, 64, 48
1, 1227006, Note_on_c, 0, 51, 106
1, 1227012, Note_on_c, 0, 39, 94
1, 1227027, Control_c, 0, 64, 106
1, 1227038, Control_c, 0, 64, 127
1, 1227040, Note_off_c, 0, 39, 67
1, 1227040, Poly_aftertouch_c, 0, 39, 0
1, 1227041, Note_off_c, 0, 51, 64
1, 1227041, Note_off_c, 0, 70, 63
1, 1227041, Poly_aftertouch_c, 0, 70, 0
1, 1227044, Note_off_c, 0, 82, 66
1, 1227049, Note_off_c, 0, 75, 61
1, 1227053, Note_on_c, 0, 80, 22
1, 1227054, Note_off_c, 0, 80, 127
1, 1227055, Note_off_c, 0, 78, 64
1, 1227200, Poly_aftertouch_c, 0, 39, 127
1, 1227205, Control_c, 0, 64, 118
1, 1227223, Poly_aftertouch_c, 0, 39, 0
1, 1227226, Control_c, 0, 64, 97
1, 1227244, Control_c, 0, 64, 74
1, 1227250, Note_on_c, 0, 58, 81
1, 1227251, Note_on_c, 0, 54, 79
1, 1227262, Control_c, 0, 64, 51
1, 1227282, Control_c, 0, 64, 0
1, 1227301, Note_off_c, 0, 54, 57
1, 1227305, Note_off_c, 0, 58, 59
1, 1227347, Note_on_c, 0, 68, 85
1, 1227348, Note_on_c, 0, 80, 75
1, 1227373, Note_off_c, 0, 68, 73
1, 1227373, Poly_aftertouch_c, 0, 68, 0
1, 1227375, Note_off_c, 0, 80, 69
1, 1227431, Note_on_c, 0, 78, 90
1, 1227432, Note_on_c, 0, 58, 88
1, 1227433, Note_on_c, 0, 63, 82
1, 1227438, Note_on_c, 0, 66, 91
1, 1227460, Note_off_c, 0, 63, 72
1, 1227466, Note_off_c, 0, 58, 69
1, 1227473, Note_off_c, 0, 66, 67
1, 1227487, Note_off_c, 0, 78, 65
1, 1227657, Note_on_c, 0, 42, 84
1, 1227696, Note_off_c, 0, 42, 67
1, 1227711, Control_c, 0, 64, 50
1, 1227731, Control_c, 0, 64, 127
1, 1227751, Note_on_c, 0, 75, 89
1, 1227761, Note_on_c, 0, 63, 82
1, 1227790, Note_off_c, 0, 63, 70
1, 1227791, Note_off_c, 0, 75, 60
1, 1227825, Control_c, 0, 64, 123
1, 1227838, Note_on_c, 0, 54, 81
1, 1227838, Note_on_c, 0, 51, 81
1, 1227842, Note_on_c, 0, 62, 91
1, 1227842, Note_on_c, 0, 74, 91
1, 1227843, Control_c, 0, 64, 71
1, 1227861, Control_c, 0, 64, 0
1, 1227870, Note_off_c, 0, 54, 69
1, 1227872, Note_off_c, 0, 51, 65
1, 1227886, Note_off_c, 0, 62, 61
1, 1227892, Note_off_c, 0, 74, 66
1, 1228161, Note_on_c, 0, 75, 93
1, 1228163, Note_on_c, 0, 63, 96
1, 1228164, Note_on_c, 0, 58, 83
1, 1228166, Note_on_c, 0, 54, 81
1, 1228194, Note_off_c, 0, 63, 68
1, 1228194, Note_off_c, 0, 58, 71
1, 1228199, Note_off_c, 0, 54, 70
1, 1228199, Note_off_c, 0, 75, 65
1, 1228532, Note_on_c, 0, 46, 87
1, 1228534, Note_on_c, 0, 53, 93
1, 1228534, Note_on_c, 0, 70, 95
1, 1228536, Note_on_c, 0, 62, 94
1, 1228536, Note_on_c, 0, 58, 98
1, 1228572, Control_c, 0, 64, 36
1, 1228585, Note_off_c, 0, 46, 65
1, 1228585, Note_off_c, 0, 53, 66
1, 1228587, Note_off_c, 0, 58, 68
1, 1228590, Control_c, 0, 64, 127
1, 1228596, Note_off_c, 0, 70, 68
1, 1228596, Note_off_c, 0, 62, 67
1, 1228596, Poly_aftertouch_c, 0, 70, 0
1, 1229209, Control_c, 0, 64, 79
1, 1229226, Control_c, 0, 64, 0
1, 1229245, Note_on_c, 0, 46, 85
1, 1229255, Note_on_c, 0, 58, 95
1, 1229301, Control_c, 0, 64, 76
1, 1229320, Control_c, 0, 64, 127
1, 1229357, Note_on_c, 0, 61, 86
1, 1229360, Note_on_c, 0, 49, 75
1, 1229364, Note_off_c, 0, 58, 62
1, 1229391, Note_off_c, 0, 46, 59
1, 1229437, Note_off_c, 0, 61, 66
1, 1229437, Poly_aftertouch_c, 0, 61, 0
1, 1229455, Note_on_c, 0, 53, 77
1, 1229457, Note_on_c, 0, 65, 82
1, 1229463, Note_off_c, 0, 49, 60
1, 1229463, Poly_aftertouch_c, 0, 49, 0
1, 1229511, Note_off_c, 0, 65, 65
1, 1229511, Poly_aftertouch_c, 0, 65, 0
1, 1229530, Note_off_c, 0, 53, 62
1, 1229560, Note_on_c, 0, 58, 81
1, 1229569, Note_on_c, 0, 70, 90
1, 1229583, Poly_aftertouch_c, 0, 66, 127
1, 1229600, Note_off_c, 0, 58, 61
1, 1229608, Poly_aftertouch_c, 0, 66, 0
1, 1229658, Note_off_c, 0, 70, 61
1, 1229658, Poly_aftertouch_c, 0, 70, 0
1, 1229661, Note_on_c, 0, 73, 85
1, 1229671, Note_on_c, 0, 61, 80
1, 1229700, Note_off_c, 0, 61, 71
1, 1229700, Poly_aftertouch_c, 0, 61, 0
1, 1229759, Note_on_c, 0, 77, 80
1, 1229762, Note_on_c, 0, 65, 75
1, 1229765, Note_off_c, 0, 73, 63
1, 1229790, Note_off_c, 0, 65, 69
1, 1229790, Poly_aftertouch_c, 0, 65, 0
1, 1229808, Note_off_c, 0, 77, 65
1, 1229808, Poly_aftertouch_c, 0, 77, 0
1, 1229927, Note_on_c, 0, 80, 55
1, 1229956, Control_c, 0, 64, 112
1, 1229976, Control_c, 0, 64, 65
1, 1229981, Note_off_c, 0, 80, 42
1, 1229982, Note_on_c, 0, 40, 99
1, 1229988, Note_on_c, 0, 28, 96
1, 1229989, Note_on_c, 0, 85, 97
1, 1229993, Note_on_c, 0, 73, 105
1, 1229994, Control_c, 0, 64, 66
1, 1230001, Note_on_c, 0, 79, 90
1, 1230006, Note_on_c, 0, 86, 89
1, 1230008, Note_on_c, 0, 80, 36
1, 1230014, Control_c, 0, 64, 111
1, 1230020, Note_on_c, 0, 30, 56
1, 1230022, Note_off_c, 0, 28, 74
1, 1230024, Note_off_c, 0, 79, 68
1, 1230024, Note_on_c, 0, 29, 50
1, 1230024, Poly_aftertouch_c, 0, 79, 0
1, 1230029, Note_off_c, 0, 86, 72
1, 1230031, Note_off_c, 0, 40, 68
1, 1230032, Control_c, 0, 64, 127
1, 1230038, Note_off_c, 0, 73, 65
1, 1230045, Note_off_c, 0, 80, 41
1, 1230047, Note_off_c, 0, 85, 61
1, 1230058, Note_off_c, 0, 30, 54
1, 1230070, Note_off_c, 0, 29, 47
1, 1230070, Poly_aftertouch_c, 0, 29, 0
1, 1230124, Control_c, 0, 64, 121
1, 1230142, Control_c, 0, 64, 60
1, 1230161, Control_c, 0, 64, 0
1, 1230255, Note_on_c, 0, 61, 63
1, 1230262, Note_on_c, 0, 52, 45
1, 1230271, Note_on_c, 0, 58, 46
1, 1230294, Note_off_c, 0, 61, 65
1, 1230294, Poly_aftertouch_c, 0, 61, 0
1, 1230299, Note_off_c, 0, 52, 52
1, 1230305, Note_off_c, 0, 58, 57
1, 1230323, Note_on_c, 0, 84, 70
1, 1230339, Note_on_c, 0, 72, 50
1, 1230344, Note_off_c, 0, 84, 67
1, 1230372, Note_off_c, 0, 72, 57
1, 1230402, Note_on_c, 0, 58, 67
1, 1230406, Note_on_c, 0, 67, 67
1, 1230410, Note_on_c, 0, 61, 58
1, 1230410, Note_on_c, 0, 70, 88
1, 1230410, Note_on_c, 0, 82, 81
1, 1230431, Note_off_c, 0, 67, 64
1, 1230435, Note_off_c, 0, 82, 73
1, 1230435, Note_off_c, 0, 70, 71
1, 1230435, Poly_aftertouch_c, 0, 70, 0
1, 1230438, Note_off_c, 0, 58, 66
1, 1230440, Note_off_c, 0, 61, 61
1, 1230440, Poly_aftertouch_c, 0, 61, 0
1, 1230622, Note_on_c, 0, 41, 96
1, 1230628, Note_on_c, 0, 29, 86
1, 1230656, Note_off_c, 0, 29, 64
1, 1230656, Poly_aftertouch_c, 0, 29, 0
1, 1230665, Control_c, 0, 64, 33
1, 1230667, Note_off_c, 0, 41, 66
1, 1230667, Poly_aftertouch_c, 0, 41, 0
1, 1230685, Control_c, 0, 64, 127
1, 1230720, Note_on_c, 0, 68, 81
1, 1230724, Note_on_c, 0, 80, 80
1, 1230751, Note_off_c, 0, 80, 72
1, 1230757, Note_off_c, 0, 68, 66
1, 1230757, Poly_aftertouch_c, 0, 68, 0
1, 1230778, Control_c, 0, 64, 113
1, 1230797, Control_c, 0, 64, 56
1, 1230810, Note_on_c, 0, 79, 88
1, 1230814, Note_on_c, 0, 61, 86
1, 1230814, Note_on_c, 0, 67, 82
1, 1230816, Control_c, 0, 64, 0
1, 1230823, Note_on_c, 0, 53, 77
1, 1230831, Note_on_c, 0, 56, 60
1, 1230844, Note_off_c, 0, 67, 67
1, 1230846, Note_off_c, 0, 61, 67
1, 1230846, Poly_aftertouch_c, 0, 61, 0
1, 1230849, Note_off_c, 0, 79, 60
1, 1230849, Poly_aftertouch_c, 0, 79, 0
1, 1230856, Poly_aftertouch_c, 0, 54, 0
1, 1230858, Note_off_c, 0, 56, 61
1, 1230858, Note_off_c, 0, 53, 67
1, 1231061, Note_on_c, 0, 77, 80
1, 1231068, Note_on_c, 0, 65, 74
1, 1231070, Note_on_c, 0, 61, 64
1, 1231074, Note_on_c, 0, 56, 64
1, 1231087, Note_off_c, 0, 77, 70
1, 1231087, Poly_aftertouch_c, 0, 77, 0
1, 1231095, Note_off_c, 0, 61, 64
1, 1231095, Poly_aftertouch_c, 0, 61, 0
1, 1231098, Note_off_c, 0, 65, 71
1, 1231098, Poly_aftertouch_c, 0, 65, 0
1, 1231100, Note_off_c, 0, 56, 62
1, 1231280, Note_on_c, 0, 43, 91
1, 1231287, Note_on_c, 0, 76, 85
1, 1231287, Note_on_c, 0, 31, 86
1, 1231288, Note_on_c, 0, 64, 85
1, 1231294, Note_on_c, 0, 73, 75
1, 1231301, Control_c, 0, 64, 70
1, 1231306, Note_on_c, 0, 70, 64
1, 1231317, Note_off_c, 0, 31, 66
1, 1231317, Poly_aftertouch_c, 0, 31, 0
1, 1231320, Note_off_c, 0, 64, 67
1, 1231320, Control_c, 0, 64, 127
1, 1231324, Note_off_c, 0, 43, 65
1, 1231332, Note_off_c, 0, 73, 65
1, 1231336, Note_off_c, 0, 70, 68
1, 1231336, Poly_aftertouch_c, 0, 70, 0
1, 1231346, Note_off_c, 0, 76, 63
1, 1231395, Control_c, 0, 64, 97
1, 1231414, Control_c, 0, 64, 43
1, 1231433, Control_c, 0, 64, 0
1, 1231527, Note_on_c, 0, 55, 68
1, 1231527, Note_on_c, 0, 65, 72
1, 1231528, Note_on_c, 0, 61, 69
1, 1231530, Note_on_c, 0, 77, 65
1, 1231535, Note_on_c, 0, 58, 55
1, 1231551, Note_on_c, 0, 79, 50
1, 1231552, Note_off_c, 0, 79, 127
1, 1231552, Poly_aftertouch_c, 0, 79, 0
1, 1231559, Note_off_c, 0, 77, 63
1, 1231559, Poly_aftertouch_c, 0, 77, 0
1, 1231564, Note_off_c, 0, 65, 64
1, 1231564, Poly_aftertouch_c, 0, 65, 0
1, 1231566, Note_off_c, 0, 55, 66
1, 1231567, Note_off_c, 0, 61, 67
1, 1231567, Poly_aftertouch_c, 0, 61, 0
1, 1231572, Note_off_c, 0, 58, 64
1, 1231575, Poly_aftertouch_c, 0, 79, 0
1, 1231756, Note_on_c, 0, 64, 78
1, 1231757, Note_on_c, 0, 79, 84
1, 1231757, Note_on_c, 0, 67, 87
1, 1231759, Note_on_c, 0, 61, 82
1, 1231774, Note_on_c, 0, 58, 64
1, 1231779, Note_off_c, 0, 64, 70
1, 1231780, Note_off_c, 0, 79, 73
1, 1231786, Note_off_c, 0, 61, 71
1, 1231786, Poly_aftertouch_c, 0, 61, 0
1, 1231787, Note_off_c, 0, 67, 65
1, 1231801, Note_off_c, 0, 58, 62
1, 1232000, Note_on_c, 0, 60, 98
1, 1232001, Note_on_c, 0, 72, 96
1, 1232007, Note_on_c, 0, 65, 89
1, 1232008, Note_on_c, 0, 44, 102
1, 1232021, Note_on_c, 0, 32, 88
1, 1232035, Note_off_c, 0, 60, 67
1, 1232035, Poly_aftertouch_c, 0, 60, 0
1, 1232041, Note_off_c, 0, 44, 66
1, 1232044, Note_off_c, 0, 65, 68
1, 1232044, Poly_aftertouch_c, 0, 65, 0
1, 1232046, Note_off_c, 0, 32, 68
1, 1232049, Note_off_c, 0, 72, 67
1, 1232049, Control_c, 0, 64, 91
1, 1232069, Control_c, 0, 64, 127
1, 1232241, Note_on_c, 0, 53, 72
1, 1232245, Poly_aftertouch_c, 0, 32, 0
1, 1232274, Note_off_c, 0, 53, 66
1, 1232274, Control_c, 0, 64, 71
1, 1232284, Note_on_c, 0, 57, 22
1, 1232292, Control_c, 0, 64, 0
1, 1232339, Note_off_c, 0, 57, 32
1, 1232339, Poly_aftertouch_c, 0, 57, 0
1, 1232422, Note_on_c, 0, 56, 76
1, 1232426, Note_on_c, 0, 60, 72
1, 1232454, Note_off_c, 0, 56, 71
1, 1232459, Note_off_c, 0, 60, 68
1, 1232459, Poly_aftertouch_c, 0, 60, 0
1, 1232463, Note_on_c, 0, 72, 56
1, 1232488, Note_off_c, 0, 72, 61
1, 1232525, Note_on_c, 0, 74, 71
1, 1232573, Note_off_c, 0, 74, 63
1, 1232579, Note_on_c, 0, 76, 62
1, 1232615, Note_off_c, 0, 76, 68
1, 1232629, Note_on_c, 0, 77, 92
1, 1232639, Note_on_c, 0, 45, 99
1, 1232640, Note_on_c, 0, 65, 96
1, 1232648, Note_on_c, 0, 33, 88
1, 1232667, Control_c, 0, 64, 127
1, 1232679, Note_off_c, 0, 33, 66
1, 1232684, Note_off_c, 0, 45, 67
1, 1232684, Note_off_c, 0, 77, 65
1, 1232684, Poly_aftertouch_c, 0, 77, 0
1, 1232690, Note_off_c, 0, 65, 63
1, 1232690, Poly_aftertouch_c, 0, 65, 0
1, 1232817, Control_c, 0, 64, 92
1, 1232835, Control_c, 0, 64, 31
1, 1232853, Control_c, 0, 64, 0
1, 1232860, Poly_aftertouch_c, 0, 33, 0
1, 1232892, Note_on_c, 0, 60, 73
1, 1232898, Note_on_c, 0, 53, 69
1, 1232927, Note_off_c, 0, 60, 69
1, 1232927, Poly_aftertouch_c, 0, 60, 0
1, 1232933, Note_off_c, 0, 53, 65
1, 1232974, Note_on_c, 0, 76, 64
1, 1232976, Note_on_c, 0, 64, 65
1, 1232995, Note_off_c, 0, 76, 64
1, 1233011, Note_off_c, 0, 64, 67
1, 1233051, Note_on_c, 0, 63, 78
1, 1233054, Note_on_c, 0, 60, 73
1, 1233054, Note_on_c, 0, 77, 93
1, 1233054, Note_on_c, 0, 65, 86
1, 1233079, Note_off_c, 0, 63, 70
1, 1233082, Note_off_c, 0, 60, 69
1, 1233082, Poly_aftertouch_c, 0, 60, 0
1, 1233087, Note_off_c, 0, 65, 67
1, 1233087, Poly_aftertouch_c, 0, 65, 0
1, 1233108, Note_off_c, 0, 77, 59
1, 1233108, Poly_aftertouch_c, 0, 77, 0
1, 1233243, Note_on_c, 0, 46, 90
1, 1233251, Note_on_c, 0, 34, 82
1, 1233272, Note_off_c, 0, 46, 73
1, 1233280, Note_off_c, 0, 34, 67
1, 1233302, Control_c, 0, 64, 80
1, 1233322, Control_c, 0, 64, 127
1, 1233341, Note_on_c, 0, 80, 72
1, 1233343, Note_on_c, 0, 68, 74
1, 1233366, Note_off_c, 0, 80, 70
1, 1233374, Note_off_c, 0, 68, 71
1, 1233374, Poly_aftertouch_c, 0, 68, 0
1, 1233415, Control_c, 0, 64, 121
1, 1233420, Note_on_c, 0, 53, 79
1, 1233420, Note_on_c, 0, 77, 95
1, 1233422, Note_on_c, 0, 61, 78
1, 1233425, Note_on_c, 0, 58, 73
1, 1233425, Note_on_c, 0, 65, 95
1, 1233433, Control_c, 0, 64, 84
1, 1233446, Poly_aftertouch_c, 0, 34, 0
1, 1233452, Note_off_c, 0, 61, 70
1, 1233452, Poly_aftertouch_c, 0, 61, 0
1, 1233452, Control_c, 0, 64, 0
1, 1233457, Note_off_c, 0, 53, 66
1, 1233459, Note_off_c, 0, 58, 68
1, 1233472, Note_off_c, 0, 65, 60
1, 1233472, Note_off_c, 0, 77, 64
1, 1233472, Poly_aftertouch_c, 0, 65, 0
1, 1233472, Poly_aftertouch_c, 0, 77, 0
1, 1233695, Note_on_c, 0, 61, 83
1, 1233700, Note_on_c, 0, 66, 90
1, 1233700, Note_on_c, 0, 78, 93
1, 1233707, Note_on_c, 0, 58, 78
1, 1233723, Note_off_c, 0, 61, 71
1, 1233723, Poly_aftertouch_c, 0, 61, 0
1, 1233733, Note_off_c, 0, 66, 67
1, 1233737, Note_off_c, 0, 58, 69
1, 1233752, Note_off_c, 0, 78, 62
1, 1233904, Note_on_c, 0, 48, 89
1, 1233910, Note_on_c, 0, 36, 85
1, 1233937, Note_off_c, 0, 36, 65
1, 1233950, Note_off_c, 0, 48, 65
1, 1233950, Poly_aftertouch_c, 0, 48, 0
1, 1233956, Control_c, 0, 64, 103
1, 1233977, Control_c, 0, 64, 127
1, 1233999, Note_on_c, 0, 82, 70
1, 1234015, Note_on_c, 0, 70, 57
1, 1234029, Note_off_c, 0, 82, 70
1, 1234037, Poly_aftertouch_c, 0, 38, 127
1, 1234043, Note_off_c, 0, 70, 65
1, 1234043, Poly_aftertouch_c, 0, 70, 0
1, 1234059, Poly_aftertouch_c, 0, 38, 0
1, 1234078, Note_on_c, 0, 80, 94
1, 1234080, Note_on_c, 0, 68, 96
1, 1234088, Note_on_c, 0, 63, 84
1, 1234088, Control_c, 0, 64, 109
1, 1234096, Note_on_c, 0, 60, 70
1, 1234097, Note_on_c, 0, 53, 69
1, 1234106, Control_c, 0, 64, 49
1, 1234113, Poly_aftertouch_c, 0, 36, 0
1, 1234125, Control_c, 0, 64, 0
1, 1234131, Note_off_c, 0, 60, 67
1, 1234131, Poly_aftertouch_c, 0, 60, 0
1, 1234132, Note_off_c, 0, 63, 58
1, 1234135, Note_off_c, 0, 53, 67
1, 1234136, Note_off_c, 0, 80, 66
1, 1234139, Note_off_c, 0, 68, 61
1, 1234139, Poly_aftertouch_c, 0, 68, 0
1, 1234322, Note_on_c, 0, 81, 100
1, 1234322, Note_on_c, 0, 65, 85
1, 1234323, Note_on_c, 0, 69, 101
1, 1234326, Note_on_c, 0, 63, 81
1, 1234335, Note_on_c, 0, 60, 72
1, 1234351, Note_off_c, 0, 65, 74
1, 1234351, Poly_aftertouch_c, 0, 65, 0
1, 1234353, Note_off_c, 0, 63, 72
1, 1234356, Note_off_c, 0, 69, 68
1, 1234363, Note_off_c, 0, 81, 68
1, 1234368, Note_off_c, 0, 60, 68
1, 1234368, Poly_aftertouch_c, 0, 60, 0
1, 1234557, Note_on_c, 0, 49, 91
1, 1234563, Note_on_c, 0, 84, 103
1, 1234566, Note_on_c, 0, 37, 77
1, 1234567, Note_on_c, 0, 72, 101
1, 1234582, Note_off_c, 0, 49, 70
1, 1234582, Poly_aftertouch_c, 0, 49, 0
1, 1234592, Note_on_c, 0, 74, 56
1, 1234593, Note_off_c, 0, 74, 127
1, 1234600, Note_off_c, 0, 72, 70
1, 1234601, Note_off_c, 0, 84, 72
1, 1234603, Note_off_c, 0, 37, 64
1, 1234846, Note_on_c, 0, 70, 106
1, 1234850, Note_on_c, 0, 82, 95
1, 1234852, Note_on_c, 0, 53, 72
1, 1234857, Note_on_c, 0, 61, 75
1, 1234863, Note_on_c, 0, 58, 67
1, 1234873, Control_c, 0, 64, 111
1, 1234884, Note_on_c, 0, 83, 58
1, 1234884, Poly_aftertouch_c, 0, 83, 0
1, 1234885, Note_off_c, 0, 83, 127
1, 1234891, Control_c, 0, 64, 127
1, 1234893, Note_off_c, 0, 70, 66
1, 1234893, Poly_aftertouch_c, 0, 70, 0
1, 1234900, Note_off_c, 0, 61, 56
1, 1234900, Poly_aftertouch_c, 0, 61, 0
1, 1234905, Note_off_c, 0, 53, 56
1, 1234907, Note_off_c, 0, 58, 63
1, 1234908, Note_off_c, 0, 82, 60
1, 1234927, Poly_aftertouch_c, 0, 75, 0
1, 1234976, Poly_aftertouch_c, 0, 71, 127
1, 1234980, Poly_aftertouch_c, 0, 75, 0
1, 1234989, Poly_aftertouch_c, 0, 71, 0
1, 1235082, Note_on_c, 0, 71, 67
1, 1235092, Note_on_c, 0, 65, 97
1, 1235095, Note_on_c, 0, 61, 97
1, 1235097, Note_on_c, 0, 58, 92
1, 1235117, Note_on_c, 0, 74, 77
1, 1235118, Note_off_c, 0, 71, 68
1, 1235136, Note_off_c, 0, 65, 63
1, 1235136, Poly_aftertouch_c, 0, 65, 0
1, 1235146, Note_off_c, 0, 61, 66
1, 1235146, Poly_aftertouch_c, 0, 61, 0
1, 1235160, Note_off_c, 0, 58, 66
1, 1235161, Note_on_c, 0, 77, 75
1, 1235172, Note_off_c, 0, 74, 63
1, 1235189, Note_on_c, 0, 80, 80
1, 1235210, Note_off_c, 0, 77, 62
1, 1235210, Poly_aftertouch_c, 0, 77, 0
1, 1235212, Note_off_c, 0, 80, 74
1, 1235292, Note_on_c, 0, 83, 80
1, 1235353, Note_on_c, 0, 86, 67
1, 1235364, Note_off_c, 0, 83, 57
1, 1235364, Poly_aftertouch_c, 0, 83, 0
1, 1235379, Control_c, 0, 64, 91
1, 1235380, Note_on_c, 0, 89, 79
1, 1235391, Note_off_c, 0, 86, 64
1, 1235396, Control_c, 0, 64, 43
1, 1235398, Note_on_c, 0, 92, 93
1, 1235414, Note_on_c, 0, 50, 102
1, 1235415, Note_on_c, 0, 95, 102
1, 1235415, Control_c, 0, 64, 67
1, 1235419, Note_on_c, 0, 38, 95
1, 1235434, Control_c, 0, 64, 127
1, 1235442, Note_off_c, 0, 89, 63
1, 1235447, Note_off_c, 0, 92, 71
1, 1235449, Note_off_c, 0, 38, 70
1, 1235457, Note_off_c, 0, 50, 67
1, 1235457, Poly_aftertouch_c, 0, 50, 0
1, 1235463, Note_off_c, 0, 95, 68
1, 1235509, Control_c, 0, 67, 15
1, 1235527, Control_c, 0, 67, 23
1, 1235547, Control_c, 0, 64, 76
1, 1235549, Control_c, 0, 67, 30
1, 1235565, Control_c, 0, 64, 0
1, 1235566, Control_c, 0, 67, 42
1, 1235584, Control_c, 0, 67, 56
1, 1235603, Control_c, 0, 67, 67
1, 1235622, Control_c, 0, 67, 72
1, 1235629, Poly_aftertouch_c, 0, 38, 0
1, 1235727, Poly_aftertouch_c, 0, 61, 0
1, 1235730, Note_on_c, 0, 62, 56
1, 1235743, Note_on_c, 0, 56, 55
1, 1235751, Note_on_c, 0, 59, 41
1, 1235772, Control_c, 0, 67, 77
1, 1235782, Note_off_c, 0, 62, 57
1, 1235784, Note_off_c, 0, 59, 55
1, 1235785, Note_on_c, 0, 94, 82
1, 1235787, Note_off_c, 0, 56, 63
1, 1235788, Control_c, 0, 67, 81
1, 1235795, Note_on_c, 0, 82, 74
1, 1235804, Note_on_c, 0, 53, 20
1, 1235805, Note_off_c, 0, 53, 127
1, 1235812, Note_off_c, 0, 94, 71
1, 1235821, Poly_aftertouch_c, 0, 58, 0
1, 1235823, Note_off_c, 0, 82, 70
1, 1235826, Control_c, 0, 67, 87
1, 1235887, Note_on_c, 0, 92, 90
1, 1235892, Note_on_c, 0, 59, 60
1, 1235893, Note_on_c, 0, 65, 67
1, 1235896, Note_on_c, 0, 56, 57
1, 1235899, Note_on_c, 0, 80, 80
1, 1235902, Control_c, 0, 67, 94
1, 1235903, Note_on_c, 0, 62, 50
1, 1235919, Note_off_c, 0, 65, 64
1, 1235919, Poly_aftertouch_c, 0, 65, 0
1, 1235922, Note_off_c, 0, 59, 62
1, 1235923, Control_c, 0, 67, 98
1, 1235928, Note_off_c, 0, 80, 71
1, 1235936, Note_off_c, 0, 62, 57
1, 1235937, Note_off_c, 0, 92, 66
1, 1235939, Note_off_c, 0, 56, 65
1, 1236096, Note_on_c, 0, 51, 80
1, 1236107, Control_c, 0, 64, 82
1, 1236112, Note_on_c, 0, 39, 69
1, 1236126, Control_c, 0, 64, 94
1, 1236129, Note_off_c, 0, 51, 69
1, 1236150, Note_off_c, 0, 39, 62
1, 1236165, Control_c, 0, 64, 69
1, 1236176, Note_on_c, 0, 78, 77
1, 1236182, Note_on_c, 0, 90, 73
1, 1236184, Control_c, 0, 64, 41
1, 1236202, Control_c, 0, 64, 0
1, 1236207, Note_off_c, 0, 90, 73
1, 1236209, Note_off_c, 0, 78, 67
1, 1236264, Note_on_c, 0, 89, 88
1, 1236276, Note_on_c, 0, 77, 80
1, 1236282, Note_on_c, 0, 63, 76
1, 1236291, Note_on_c, 0, 54, 55
1, 1236302, Note_off_c, 0, 77, 66
1, 1236302, Poly_aftertouch_c, 0, 77, 0
1, 1236311, Note_off_c, 0, 63, 68
1, 1236316, Note_off_c, 0, 89, 62
1, 1236324, Note_off_c, 0, 54, 61
1, 1236409, Poly_aftertouch_c, 0, 57, 0
1, 1236507, Note_on_c, 0, 66, 65
1, 1236508, Note_on_c, 0, 63, 69
1, 1236510, Note_on_c, 0, 75, 86
1, 1236511, Note_on_c, 0, 87, 81
1, 1236520, Note_on_c, 0, 58, 60
1, 1236530, Note_off_c, 0, 66, 66
1, 1236545, Note_off_c, 0, 63, 67
1, 1236554, Note_off_c, 0, 75, 59
1, 1236558, Note_off_c, 0, 58, 64
1, 1236562, Note_off_c, 0, 87, 60
1, 1236562, Poly_aftertouch_c, 0, 87, 0
1, 1236575, Control_c, 0, 67, 84
1, 1236595, Poly_aftertouch_c, 0, 85, 0
1, 1236595, Control_c, 0, 67, 56
1, 1236613, Control_c, 0, 67, 11
1, 1236632, Control_c, 0, 67, 0
1, 1236721, Note_on_c, 0, 53, 69
1, 1236726, Note_on_c, 0, 83, 71
1, 1236727, Note_on_c, 0, 41, 74
1, 1236732, Note_on_c, 0, 86, 81
1, 1236733, Note_on_c, 0, 74, 82
1, 1236738, Note_on_c, 0, 80, 70
1, 1236757, Note_off_c, 0, 53, 66
1, 1236757, Note_off_c, 0, 74, 73
1, 1236760, Note_off_c, 0, 83, 66
1, 1236760, Poly_aftertouch_c, 0, 83, 0
1, 1236762, Note_off_c, 0, 41, 64
1, 1236762, Poly_aftertouch_c, 0, 41, 0
1, 1236767, Note_off_c, 0, 80, 71
1, 1236771, Note_off_c, 0, 86, 64
1, 1236786, Poly_aftertouch_c, 0, 85, 0
1, 1236954, Note_on_c, 0, 56, 68
1, 1236959, Note_on_c, 0, 87, 85
1, 1236962, Note_on_c, 0, 62, 61
1, 1236969, Note_on_c, 0, 59, 52
1, 1236969, Note_on_c, 0, 75, 76
1, 1236991, Note_off_c, 0, 56, 68
1, 1236992, Note_off_c, 0, 87, 60
1, 1236992, Poly_aftertouch_c, 0, 87, 0
1, 1237001, Note_off_c, 0, 75, 70
1, 1237005, Note_off_c, 0, 62, 65
1, 1237009, Note_off_c, 0, 59, 63
1, 1237165, Note_on_c, 0, 89, 77
1, 1237171, Note_on_c, 0, 62, 61
1, 1237174, Note_on_c, 0, 59, 59
1, 1237174, Note_on_c, 0, 68, 67
1, 1237180, Note_on_c, 0, 77, 68
1, 1237191, Note_off_c, 0, 89, 70
1, 1237203, Note_off_c, 0, 77, 65
1, 1237203, Poly_aftertouch_c, 0, 77, 0
1, 1237208, Note_off_c, 0, 62, 64
1, 1237210, Note_off_c, 0, 68, 68
1, 1237210, Poly_aftertouch_c, 0, 68, 0
1, 1237217, Note_off_c, 0, 59, 63
1, 1237398, Control_c, 0, 64, 31
1, 1237409, Note_on_c, 0, 82, 84
1, 1237411, Note_on_c, 0, 42, 73
1, 1237413, Note_on_c, 0, 54, 75
1, 1237416, Control_c, 0, 64, 61
1, 1237422, Note_on_c, 0, 70, 70
1, 1237423, Note_on_c, 0, 75, 59
1, 1237436, Control_c, 0, 64, 81
1, 1237443, Note_off_c, 0, 54, 67
1, 1237447, Note_off_c, 0, 42, 67
1, 1237451, Note_off_c, 0, 70, 68
1, 1237451, Poly_aftertouch_c, 0, 70, 0
1, 1237454, Control_c, 0, 64, 103
1, 1237461, Note_off_c, 0, 75, 67
1, 1237469, Note_off_c, 0, 82, 61
1, 1237473, Control_c, 0, 64, 127
1, 1237627, Note_on_c, 0, 63, 73
1, 1237643, Note_on_c, 0, 58, 60
1, 1237659, Control_c, 0, 64, 122
1, 1237670, Note_off_c, 0, 63, 62
1, 1237677, Control_c, 0, 64, 95
1, 1237678, Control_c, 0, 67, 10
1, 1237682, Note_off_c, 0, 58, 66
1, 1237697, Control_c, 0, 64, 64
1, 1237700, Control_c, 0, 67, 16
1, 1237704, Poly_aftertouch_c, 0, 54, 127
1, 1237713, Poly_aftertouch_c, 0, 54, 0
1, 1237716, Control_c, 0, 64, 18
1, 1237717, Control_c, 0, 67, 22
1, 1237734, Control_c, 0, 64, 0
1, 1237735, Control_c, 0, 67, 26
1, 1237772, Control_c, 0, 67, 33
1, 1237809, Control_c, 0, 67, 40
1, 1237822, Note_on_c, 0, 63, 65
1, 1237830, Note_on_c, 0, 66, 56
1, 1237846, Control_c, 0, 67, 47
1, 1237860, Note_off_c, 0, 66, 63
1, 1237862, Note_on_c, 0, 81, 56
1, 1237863, Note_off_c, 0, 63, 66
1, 1237866, Control_c, 0, 67, 53
1, 1237884, Control_c, 0, 67, 62
1, 1237901, Note_off_c, 0, 81, 64
1, 1237901, Control_c, 0, 67, 69
1, 1237915, Note_on_c, 0, 82, 70
1, 1237940, Control_c, 0, 67, 73
1, 1237989, Note_off_c, 0, 82, 60
1, 1237993, Note_on_c, 0, 84, 60
1, 1237995, Control_c, 0, 67, 80
1, 1238034, Control_c, 0, 67, 85
1, 1238052, Control_c, 0, 64, 46
1, 1238064, Note_on_c, 0, 85, 88
1, 1238071, Note_off_c, 0, 84, 63
1, 1238071, Control_c, 0, 64, 73
1, 1238073, Control_c, 0, 67, 90
1, 1238078, Note_on_c, 0, 55, 57
1, 1238080, Note_on_c, 0, 43, 63
1, 1238089, Control_c, 0, 64, 95
1, 1238104, Note_on_c, 0, 73, 51
1, 1238108, Control_c, 0, 64, 123
1, 1238110, Control_c, 0, 67, 96
1, 1238112, Note_off_c, 0, 43, 65
1, 1238115, Note_off_c, 0, 55, 65
1, 1238120, Note_off_c, 0, 85, 65
1, 1238126, Control_c, 0, 64, 127
1, 1238136, Note_off_c, 0, 73, 59
1, 1238324, Note_on_c, 0, 55, 56
1, 1238333, Note_on_c, 0, 61, 59
1, 1238344, Note_on_c, 0, 58, 51
1, 1238367, Note_off_c, 0, 55, 64
1, 1238380, Note_off_c, 0, 61, 60
1, 1238387, Note_off_c, 0, 58, 65
1, 1238388, Control_c, 0, 64, 99
1, 1238389, Control_c, 0, 67, 92
1, 1238408, Control_c, 0, 64, 65
1, 1238426, Control_c, 0, 64, 0
1, 1238443, Note_on_c, 0, 81, 61
1, 1238454, Note_on_c, 0, 69, 43
1, 1238465, Note_off_c, 0, 81, 63
1, 1238495, Note_off_c, 0, 69, 41
1, 1238509, Note_on_c, 0, 82, 82
1, 1238513, Note_on_c, 0, 58, 62
1, 1238513, Note_on_c, 0, 61, 66
1, 1238515, Note_on_c, 0, 64, 63
1, 1238520, Control_c, 0, 67, 96
1, 1238547, Note_off_c, 0, 61, 66
1, 1238549, Note_off_c, 0, 82, 62
1, 1238551, Note_off_c, 0, 58, 64
1, 1238553, Note_off_c, 0, 64, 66
1, 1238594, Control_c, 0, 67, 102
1, 1238710, Note_on_c, 0, 56, 70
1, 1238718, Note_on_c, 0, 44, 59
1, 1238725, Control_c, 0, 64, 42
1, 1238740, Note_off_c, 0, 56, 66
1, 1238744, Control_c, 0, 64, 70
1, 1238753, Note_off_c, 0, 44, 62
1, 1238763, Control_c, 0, 64, 93
1, 1238782, Control_c, 0, 64, 127
1, 1238800, Control_c, 0, 67, 97
1, 1238808, Note_on_c, 0, 85, 72
1, 1238815, Note_on_c, 0, 73, 62
1, 1238825, Note_off_c, 0, 85, 70
1, 1238838, Note_off_c, 0, 73, 64
1, 1238856, Control_c, 0, 64, 113
1, 1238875, Control_c, 0, 64, 65
1, 1238894, Control_c, 0, 64, 0
1, 1238908, Note_on_c, 0, 53, 63
1, 1238914, Note_on_c, 0, 61, 61
1, 1238914, Note_on_c, 0, 79, 68
1, 1238919, Note_on_c, 0, 81, 68
1, 1238921, Note_on_c, 0, 67, 66
1, 1238939, Note_off_c, 0, 81, 67
1, 1238944, Note_off_c, 0, 79, 69
1, 1238948, Note_off_c, 0, 53, 63
1, 1238949, Note_off_c, 0, 61, 65
1, 1238953, Note_off_c, 0, 67, 66
1, 1238962, Poly_aftertouch_c, 0, 56, 0
1, 1238987, Control_c, 0, 67, 101
1, 1239154, Note_on_c, 0, 65, 66
1, 1239159, Note_on_c, 0, 56, 58
1, 1239163, Note_on_c, 0, 61, 68
1, 1239163, Note_on_c, 0, 68, 62
1, 1239163, Note_on_c, 0, 80, 73
1, 1239188, Note_off_c, 0, 65, 63
1, 1239188, Poly_aftertouch_c, 0, 65, 0
1, 1239191, Note_off_c, 0, 68, 64
1, 1239191, Poly_aftertouch_c, 0, 68, 0
1, 1239193, Note_off_c, 0, 80, 71
1, 1239195, Note_off_c, 0, 61, 68
1, 1239203, Note_off_c, 0, 56, 64
1, 1239379, Note_on_c, 0, 45, 71
1, 1239382, Note_on_c, 0, 57, 67
1, 1239399, Control_c, 0, 64, 63
1, 1239407, Note_off_c, 0, 45, 66
1, 1239411, Note_off_c, 0, 57, 66
1, 1239417, Control_c, 0, 64, 94
1, 1239420, Control_c, 0, 67, 91
1, 1239436, Control_c, 0, 64, 127
1, 1239438, Control_c, 0, 67, 70
1, 1239449, Note_on_c, 0, 89, 70
1, 1239455, Control_c, 0, 67, 24
1, 1239458, Note_on_c, 0, 77, 73
1, 1239473, Control_c, 0, 67, 0
1, 1239476, Note_off_c, 0, 89, 70
1, 1239492, Control_c, 0, 64, 88
1, 1239497, Note_off_c, 0, 77, 61
1, 1239497, Poly_aftertouch_c, 0, 77, 0
1, 1239511, Control_c, 0, 64, 22
1, 1239528, Control_c, 0, 64, 0
1, 1239558, Note_on_c, 0, 60, 69
1, 1239562, Note_on_c, 0, 64, 71
1, 1239564, Note_on_c, 0, 76, 73
1, 1239568, Note_on_c, 0, 53, 65
1, 1239594, Note_off_c, 0, 60, 67
1, 1239594, Poly_aftertouch_c, 0, 60, 0
1, 1239595, Note_off_c, 0, 64, 71
1, 1239605, Note_off_c, 0, 53, 64
1, 1239628, Note_off_c, 0, 76, 60
1, 1239790, Note_on_c, 0, 77, 72
1, 1239792, Note_on_c, 0, 65, 56
1, 1239795, Note_on_c, 0, 63, 64
1, 1239797, Note_on_c, 0, 60, 30
1, 1239819, Note_off_c, 0, 77, 69
1, 1239819, Poly_aftertouch_c, 0, 77, 0
1, 1239821, Note_off_c, 0, 65, 60
1, 1239821, Poly_aftertouch_c, 0, 65, 0
1, 1239830, Note_off_c, 0, 60, 53
1, 1239830, Poly_aftertouch_c, 0, 60, 0
1, 1239832, Note_off_c, 0, 63, 65
1, 1239975, Note_on_c, 0, 46, 61
1, 1240030, Note_off_c, 0, 46, 62
1, 1240057, Note_on_c, 0, 53, 36
1, 1240063, Note_on_c, 0, 61, 73
1, 1240086, Note_on_c, 0, 94, 77
1, 1240089, Note_off_c, 0, 53, 47
1, 1240089, Control_c, 0, 64, 40
1, 1240096, Note_off_c, 0, 61, 68
1, 1240109, Control_c, 0, 64, 90
1, 1240128, Control_c, 0, 64, 127
1, 1240172, Note_on_c, 0, 89, 72
1, 1240175, Note_off_c, 0, 94, 65
1, 1240202, Control_c, 0, 64, 104
1, 1240221, Control_c, 0, 64, 66
1, 1240240, Control_c, 0, 64, 0
1, 1240247, Note_on_c, 0, 85, 81
1, 1240256, Note_off_c, 0, 89, 63
1, 1240330, Note_on_c, 0, 82, 79
1, 1240336, Note_off_c, 0, 85, 62
1, 1240358, Note_off_c, 0, 82, 70
1, 1240432, Note_on_c, 0, 70, 78
1, 1240461, Note_off_c, 0, 70, 66
1, 1240461, Poly_aftertouch_c, 0, 70, 0
1, 1240595, Poly_aftertouch_c, 0, 78, 0
1, 1240714, Note_on_c, 0, 70, 101
1, 1240715, Note_on_c, 0, 73, 98
1, 1240717, Note_on_c, 0, 82, 96
1, 1240718, Note_on_c, 0, 79, 88
1, 1240738, Note_on_c, 0, 28, 95
1, 1240739, Note_on_c, 0, 40, 90
1, 1240746, Note_on_c, 0, 38, 86
1, 1240758, Note_off_c, 0, 70, 67
1, 1240758, Poly_aftertouch_c, 0, 70, 0
1, 1240763, Control_c, 0, 64, 106
1, 1240772, Note_off_c, 0, 82, 68
1, 1240774, Note_off_c, 0, 28, 68
1, 1240774, Note_off_c, 0, 40, 66
1, 1240776, Note_off_c, 0, 79, 65
1, 1240778, Note_off_c, 0, 73, 65
1, 1240780, Note_off_c, 0, 38, 67
1, 1240782, Control_c, 0, 64, 127
1, 1240875, Control_c, 0, 64, 119
1, 1240895, Control_c, 0, 64, 85
1, 1240914, Control_c, 0, 64, 55
1, 1240932, Control_c, 0, 64, 8
1, 1240951, Control_c, 0, 64, 0
1, 1241034, Note_on_c, 0, 41, 87
1, 1241038, Note_on_c, 0, 29, 85
1, 1241069, Note_off_c, 0, 41, 69
1, 1241069, Poly_aftertouch_c, 0, 41, 0
1, 1241077, Note_off_c, 0, 29, 66
1, 1241077, Poly_aftertouch_c, 0, 29, 0
1, 1241128, Note_on_c, 0, 43, 98
1, 1241134, Note_on_c, 0, 31, 90
1, 1241174, Note_off_c, 0, 31, 67
1, 1241174, Poly_aftertouch_c, 0, 31, 0
1, 1241185, Note_off_c, 0, 43, 63
1, 1241342, Note_on_c, 0, 68, 89
1, 1241343, Note_on_c, 0, 72, 80
1, 1241343, Note_on_c, 0, 80, 83
1, 1241345, Note_on_c, 0, 77, 76
1, 1241388, Note_off_c, 0, 72, 60
1, 1241400, Control_c, 0, 64, 115
1, 1241402, Note_off_c, 0, 77, 51
1, 1241402, Note_off_c, 0, 80, 65
1, 1241402, Poly_aftertouch_c, 0, 77, 0
1, 1241414, Note_off_c, 0, 68, 61
1, 1241414, Poly_aftertouch_c, 0, 68, 0
1, 1241417, Control_c, 0, 64, 127
1, 1241434, Note_on_c, 0, 44, 90
1, 1241442, Note_on_c, 0, 32, 81
1, 1241465, Note_off_c, 0, 44, 67
1, 1241478, Note_off_c, 0, 32, 64
1, 1241530, Note_on_c, 0, 46, 95
1, 1241530, Control_c, 0, 64, 116
1, 1241532, Note_on_c, 0, 34, 88
1, 1241549, Control_c, 0, 64, 66
1, 1241569, Control_c, 0, 64, 0
1, 1241578, Note_off_c, 0, 34, 60
1, 1241581, Note_off_c, 0, 46, 59
1, 1241795, Note_on_c, 0, 48, 98
1, 1241800, Note_on_c, 0, 36, 90
1, 1241825, Note_off_c, 0, 48, 69
1, 1241825, Poly_aftertouch_c, 0, 48, 0
1, 1241833, Note_off_c, 0, 36, 68
1, 1242029, Note_on_c, 0, 77, 89
1, 1242032, Note_on_c, 0, 70, 88
1, 1242033, Note_on_c, 0, 65, 87
1, 1242033, Note_on_c, 0, 73, 86
1, 1242034, Control_c, 0, 64, 79
1, 1242045, Note_on_c, 0, 49, 99
1, 1242048, Note_on_c, 0, 37, 94
1, 1242054, Control_c, 0, 64, 127
1, 1242065, Note_off_c, 0, 65, 68
1, 1242065, Poly_aftertouch_c, 0, 65, 0
1, 1242080, Note_off_c, 0, 77, 62
1, 1242080, Poly_aftertouch_c, 0, 77, 0
1, 1242085, Note_off_c, 0, 73, 66
1, 1242086, Note_off_c, 0, 37, 63
1, 1242087, Note_off_c, 0, 70, 67
1, 1242087, Poly_aftertouch_c, 0, 70, 0
1, 1242088, Note_off_c, 0, 49, 60
1, 1242088, Poly_aftertouch_c, 0, 49, 0
1, 1242166, Control_c, 0, 64, 103
1, 1242185, Control_c, 0, 64, 75
1, 1242204, Control_c, 0, 64, 49
1, 1242221, Control_c, 0, 64, 0
1, 1242271, Note_on_c, 0, 48, 95
1, 1242278, Note_on_c, 0, 36, 89
1, 1242303, Note_off_c, 0, 48, 68
1, 1242303, Poly_aftertouch_c, 0, 48, 0
1, 1242311, Note_off_c, 0, 36, 70
1, 1242514, Note_on_c, 0, 46, 96
1, 1242520, Note_on_c, 0, 34, 86
1, 1242542, Note_off_c, 0, 46, 72
1, 1242555, Note_off_c, 0, 34, 66
1, 1242825, Note_on_c, 0, 72, 82
1, 1242831, Note_on_c, 0, 60, 78
1, 1242833, Note_on_c, 0, 68, 77
1, 1242838, Note_on_c, 0, 53, 100
1, 1242839, Note_on_c, 0, 65, 77
1, 1242846, Note_on_c, 0, 41, 88
1, 1242866, Note_off_c, 0, 60, 69
1, 1242866, Poly_aftertouch_c, 0, 60, 0
1, 1242871, Note_off_c, 0, 41, 70
1, 1242871, Poly_aftertouch_c, 0, 41, 0
1, 1242877, Control_c, 0, 64, 56
1, 1242878, Note_off_c, 0, 65, 65
1, 1242878, Poly_aftertouch_c, 0, 65, 0
1, 1242882, Note_off_c, 0, 53, 61
1, 1242887, Note_off_c, 0, 72, 63
1, 1242895, Control_c, 0, 64, 111
1, 1242897, Note_off_c, 0, 68, 63
1, 1242897, Poly_aftertouch_c, 0, 68, 0
1, 1242914, Control_c, 0, 64, 127
1, 1243048, Poly_aftertouch_c, 0, 41, 0
1, 1243232, Control_c, 0, 64, 102
1, 1243250, Control_c, 0, 64, 76
1, 1243270, Control_c, 0, 64, 51
1, 1243287, Control_c, 0, 64, 8
1, 1243307, Control_c, 0, 64, 0
1, 1243308, Control_c, 0, 67, 10
1, 1243325, Control_c, 0, 67, 14
1, 1243344, Control_c, 0, 67, 20
1, 1243361, Control_c, 0, 67, 29
1, 1243381, Control_c, 0, 67, 39
1, 1243400, Control_c, 0, 67, 48
1, 1243419, Control_c, 0, 67, 53
1, 1243437, Control_c, 0, 67, 58
1, 1243456, Control_c, 0, 67, 62
1, 1243493, Control_c, 0, 67, 68
1, 1243531, Control_c, 0, 67, 73
1, 1243568, Control_c, 0, 67, 77
1, 1243597, Note_on_c, 0, 71, 57
1, 1243605, Control_c, 0, 67, 83
1, 1243624, Control_c, 0, 67, 87
1, 1243643, Control_c, 0, 67, 91
1, 1243681, Control_c, 0, 67, 96
1, 1243686, Note_on_c, 0, 42, 56
1, 1243717, Control_c, 0, 67, 103
1, 1243724, Note_off_c, 0, 42, 64
1, 1243737, Control_c, 0, 67, 108
1, 1243755, Control_c, 0, 67, 113
1, 1243792, Control_c, 0, 67, 120
1, 1243809, Note_on_c, 0, 61, 45
1, 1243809, Note_on_c, 0, 40, 55
1, 1243830, Control_c, 0, 67, 124
1, 1243852, Note_off_c, 0, 40, 60
1, 1243945, Note_off_c, 0, 61, 33
1, 1244096, Note_on_c, 0, 41, 50
1, 1244097, Note_on_c, 0, 68, 49
1, 1244137, Note_off_c, 0, 41, 57
1, 1244157, Note_off_c, 0, 68, 60
1, 1244157, Poly_aftertouch_c, 0, 68, 0
1, 1244357, Note_on_c, 0, 69, 57
1, 1244456, Note_on_c, 0, 44, 50
1, 1244473, Note_off_c, 0, 71, 58
1, 1244500, Note_off_c, 0, 44, 61
1, 1244559, Note_on_c, 0, 41, 56
1, 1244570, Note_on_c, 0, 61, 42
1, 1244603, Note_off_c, 0, 41, 61
1, 1244791, Note_on_c, 0, 70, 66
1, 1244802, Note_on_c, 0, 42, 46
1, 1244803, Control_c, 0, 67, 119
1, 1244810, Note_on_c, 0, 66, 47
1, 1244841, Note_off_c, 0, 42, 56
1, 1244842, Note_off_c, 0, 69, 58
1, 1244849, Note_off_c, 0, 61, 41
1, 1244877, Control_c, 0, 67, 114
1, 1244888, Note_off_c, 0, 66, 50
1, 1244914, Control_c, 0, 67, 108
1, 1244933, Control_c, 0, 67, 104
1, 1244953, Control_c, 0, 67, 99
1, 1244970, Control_c, 0, 67, 92
1, 1244989, Control_c, 0, 67, 85
1, 1245008, Control_c, 0, 67, 78
1, 1245015, Note_on_c, 0, 73, 75
1, 1245027, Control_c, 0, 67, 72
1, 1245045, Control_c, 0, 67, 65
1, 1245064, Control_c, 0, 67, 59
1, 1245071, Note_off_c, 0, 70, 56
1, 1245071, Poly_aftertouch_c, 0, 70, 0
1, 1245083, Control_c, 0, 67, 53
1, 1245101, Control_c, 0, 67, 47
1, 1245115, Note_on_c, 0, 46, 59
1, 1245120, Control_c, 0, 67, 41
1, 1245139, Control_c, 0, 67, 35
1, 1245158, Control_c, 0, 67, 28
1, 1245164, Note_off_c, 0, 46, 57
1, 1245175, Control_c, 0, 67, 20
1, 1245195, Control_c, 0, 67, 12
1, 1245203, Note_on_c, 0, 63, 56
1, 1245211, Note_on_c, 0, 44, 60
1, 1245247, Note_off_c, 0, 44, 65
1, 1245308, Control_c, 0, 67, 0
1, 1245438, Note_on_c, 0, 72, 70
1, 1245440, Note_on_c, 0, 45, 58
1, 1245443, Note_on_c, 0, 65, 49
1, 1245480, Note_off_c, 0, 45, 63
1, 1245488, Note_off_c, 0, 73, 50
1, 1245508, Note_off_c, 0, 63, 45
1, 1245532, Note_off_c, 0, 65, 57
1, 1245532, Poly_aftertouch_c, 0, 65, 0
1, 1245670, Note_on_c, 0, 75, 80
1, 1245686, Note_off_c, 0, 72, 59
1, 1245778, Note_on_c, 0, 48, 64
1, 1245817, Note_off_c, 0, 48, 63
1, 1245817, Poly_aftertouch_c, 0, 48, 0
1, 1245861, Note_on_c, 0, 65, 67
1, 1245895, Note_on_c, 0, 45, 54
1, 1245941, Note_off_c, 0, 45, 58
1, 1246094, Note_on_c, 0, 74, 79
1, 1246097, Note_off_c, 0, 65, 38
1, 1246097, Poly_aftertouch_c, 0, 65, 0
1, 1246101, Note_on_c, 0, 70, 74
1, 1246104, Note_on_c, 0, 46, 79
1, 1246137, Note_off_c, 0, 75, 64
1, 1246139, Note_off_c, 0, 46, 66
1, 1246139, Note_off_c, 0, 70, 65
1, 1246139, Poly_aftertouch_c, 0, 70, 0
1, 1246156, Note_off_c, 0, 74, 63
1, 1246373, Note_on_c, 0, 80, 92
1, 1246374, Note_on_c, 0, 71, 88
1, 1246375, Note_on_c, 0, 77, 86
1, 1246378, Note_on_c, 0, 68, 95
1, 1246389, Note_on_c, 0, 38, 96
1, 1246392, Control_c, 0, 64, 58
1, 1246398, Note_on_c, 0, 28, 75
1, 1246403, Note_on_c, 0, 26, 81
1, 1246412, Control_c, 0, 64, 127
1, 1246428, Note_on_c, 0, 75, 40
1, 1246430, Note_off_c, 0, 38, 67
1, 1246438, Note_off_c, 0, 68, 62
1, 1246438, Poly_aftertouch_c, 0, 68, 0
1, 1246440, Note_off_c, 0, 26, 64
1, 1246440, Note_off_c, 0, 28, 64
1, 1246445, Note_off_c, 0, 80, 67
1, 1246447, Note_off_c, 0, 71, 65
1, 1246447, Note_on_c, 0, 27, 22
1, 1246451, Note_off_c, 0, 77, 60
1, 1246451, Poly_aftertouch_c, 0, 77, 0
1, 1246463, Note_off_c, 0, 75, 57
1, 1246509, Note_off_c, 0, 27, 39
1, 1246509, Poly_aftertouch_c, 0, 27, 0
1, 1246598, Control_c, 0, 64, 123
1, 1246616, Control_c, 0, 64, 93
1, 1246636, Control_c, 0, 64, 58
1, 1246653, Control_c, 0, 64, 0
1, 1246717, Note_on_c, 0, 27, 71
1, 1246718, Note_on_c, 0, 39, 75
1, 1246743, Note_off_c, 0, 27, 66
1, 1246743, Poly_aftertouch_c, 0, 27, 0
1, 1246754, Note_off_c, 0, 39, 62
1, 1246792, Note_on_c, 0, 41, 86
1, 1246795, Note_on_c, 0, 29, 87
1, 1246814, Note_on_c, 0, 40, 60
1, 1246838, Note_off_c, 0, 41, 65
1, 1246840, Note_off_c, 0, 29, 64
1, 1246840, Poly_aftertouch_c, 0, 29, 0
1, 1246851, Note_off_c, 0, 40, 36
1, 1247016, Note_on_c, 0, 66, 91
1, 1247018, Note_on_c, 0, 78, 88
1, 1247019, Note_on_c, 0, 70, 82
1, 1247019, Note_on_c, 0, 75, 82
1, 1247065, Control_c, 0, 64, 11
1, 1247073, Note_off_c, 0, 70, 59
1, 1247073, Poly_aftertouch_c, 0, 70, 0
1, 1247077, Note_off_c, 0, 66, 62
1, 1247083, Control_c, 0, 64, 126
1, 1247100, Note_on_c, 0, 42, 100
1, 1247104, Note_on_c, 0, 30, 89
1, 1247108, Note_off_c, 0, 78, 63
1, 1247115, Note_off_c, 0, 75, 61
1, 1247129, Note_off_c, 0, 42, 73
1, 1247139, Note_off_c, 0, 30, 64
1, 1247163, Note_on_c, 0, 32, 16
1, 1247211, Note_on_c, 0, 46, 94
1, 1247213, Note_on_c, 0, 34, 87
1, 1247232, Note_off_c, 0, 32, 41
1, 1247232, Note_on_c, 0, 44, 68
1, 1247232, Control_c, 0, 64, 88
1, 1247233, Note_off_c, 0, 44, 127
1, 1247249, Note_off_c, 0, 46, 62
1, 1247251, Control_c, 0, 64, 35
1, 1247255, Note_on_c, 0, 33, 40
1, 1247258, Note_off_c, 0, 34, 61
1, 1247271, Control_c, 0, 64, 0
1, 1247304, Note_off_c, 0, 33, 34
1, 1247457, Note_on_c, 0, 46, 97
1, 1247463, Note_on_c, 0, 34, 89
1, 1247489, Note_off_c, 0, 46, 65
1, 1247495, Note_off_c, 0, 34, 70
1, 1247708, Note_on_c, 0, 75, 91
1, 1247710, Note_on_c, 0, 63, 88
1, 1247713, Note_on_c, 0, 68, 82
1, 1247714, Note_on_c, 0, 47, 97
1, 1247716, Note_on_c, 0, 71, 78
1, 1247719, Note_on_c, 0, 35, 90
1, 1247738, Control_c, 0, 64, 61
1, 1247746, Note_off_c, 0, 63, 66
1, 1247754, Note_off_c, 0, 35, 69
1, 1247757, Note_off_c, 0, 47, 64
1, 1247757, Control_c, 0, 64, 127
1, 1247760, Note_off_c, 0, 71, 64
1, 1247766, Note_off_c, 0, 75, 65
1, 1247775, Note_off_c, 0, 68, 63
1, 1247775, Poly_aftertouch_c, 0, 68, 0
1, 1247926, Control_c, 0, 64, 106
1, 1247942, Note_on_c, 0, 46, 94
1, 1247945, Control_c, 0, 64, 72
1, 1247951, Note_on_c, 0, 34, 86
1, 1247962, Control_c, 0, 64, 25
1, 1247975, Note_off_c, 0, 46, 63
1, 1247980, Control_c, 0, 64, 0
1, 1247982, Note_off_c, 0, 34, 68
1, 1248184, Note_on_c, 0, 44, 93
1, 1248188, Note_on_c, 0, 32, 86
1, 1248212, Note_off_c, 0, 44, 70
1, 1248219, Note_off_c, 0, 32, 65
1, 1248479, Note_on_c, 0, 70, 88
1, 1248482, Note_on_c, 0, 58, 84
1, 1248485, Note_on_c, 0, 66, 78
1, 1248486, Note_on_c, 0, 63, 80
1, 1248495, Note_on_c, 0, 51, 97
1, 1248503, Note_on_c, 0, 39, 84
1, 1248523, Note_off_c, 0, 58, 66
1, 1248530, Note_off_c, 0, 51, 64
1, 1248530, Note_off_c, 0, 39, 68
1, 1248542, Control_c, 0, 64, 56
1, 1248561, Note_off_c, 0, 63, 62
1, 1248561, Control_c, 0, 64, 100
1, 1248564, Note_off_c, 0, 66, 62
1, 1248571, Note_off_c, 0, 70, 63
1, 1248571, Poly_aftertouch_c, 0, 70, 0
1, 1248579, Control_c, 0, 64, 127
1, 1248725, Poly_aftertouch_c, 0, 39, 0
1, 1248898, Control_c, 0, 64, 120
1, 1248916, Control_c, 0, 64, 93
1, 1248935, Control_c, 0, 64, 66
1, 1248953, Control_c, 0, 64, 38
1, 1248972, Control_c, 0, 64, 0
1, 1249084, Control_c, 0, 67, 9
1, 1249122, Control_c, 0, 67, 15
1, 1249139, Control_c, 0, 67, 19
1, 1249159, Control_c, 0, 67, 24
1, 1249179, Control_c, 0, 67, 29
1, 1249196, Control_c, 0, 67, 33
1, 1249215, Control_c, 0, 67, 38
1, 1249228, Note_on_c, 0, 73, 66
1, 1249253, Control_c, 0, 67, 44
1, 1249291, Control_c, 0, 67, 50
1, 1249299, Note_on_c, 0, 42, 70
1, 1249308, Control_c, 0, 67, 54
1, 1249327, Control_c, 0, 67, 59
1, 1249337, Note_off_c, 0, 42, 66
1, 1249346, Control_c, 0, 67, 64
1, 1249365, Control_c, 0, 67, 70
1, 1249384, Control_c, 0, 67, 74
1, 1249413, Note_on_c, 0, 39, 71
1, 1249421, Note_on_c, 0, 61, 58
1, 1249441, Control_c, 0, 67, 78
1, 1249447, Note_off_c, 0, 39, 62
1, 1249515, Control_c, 0, 67, 82
1, 1249589, Control_c, 0, 67, 86
1, 1249645, Control_c, 0, 67, 90
1, 1249682, Control_c, 0, 67, 95
1, 1249712, Note_on_c, 0, 70, 59
1, 1249719, Control_c, 0, 67, 100
1, 1249722, Note_on_c, 0, 66, 53
1, 1249732, Note_on_c, 0, 40, 50
1, 1249750, Note_off_c, 0, 61, 62
1, 1249757, Control_c, 0, 67, 104
1, 1249768, Note_off_c, 0, 40, 58
1, 1249769, Note_off_c, 0, 66, 65
1, 1249786, Note_off_c, 0, 73, 60
1, 1249790, Note_off_c, 0, 70, 61
1, 1249790, Poly_aftertouch_c, 0, 70, 0
1, 1249814, Control_c, 0, 67, 109
1, 1249944, Control_c, 0, 67, 113
1, 1250044, Note_on_c, 0, 78, 63
1, 1250057, Control_c, 0, 67, 117
1, 1250144, Note_on_c, 0, 40, 45
1, 1250187, Note_off_c, 0, 40, 53
1, 1250224, Control_c, 0, 67, 121
1, 1250252, Note_on_c, 0, 66, 48
1, 1250253, Note_on_c, 0, 38, 53
1, 1250306, Note_off_c, 0, 38, 59
1, 1250524, Control_c, 0, 67, 117
1, 1250551, Note_on_c, 0, 75, 52
1, 1250560, Control_c, 0, 67, 111
1, 1250563, Note_on_c, 0, 71, 46
1, 1250575, Note_on_c, 0, 39, 44
1, 1250579, Control_c, 0, 67, 103
1, 1250595, Note_off_c, 0, 78, 61
1, 1250598, Note_off_c, 0, 66, 57
1, 1250599, Control_c, 0, 67, 86
1, 1250602, Note_off_c, 0, 75, 61
1, 1250604, Note_off_c, 0, 71, 60
1, 1250616, Note_off_c, 0, 39, 53
1, 1250616, Control_c, 0, 67, 55
1, 1250636, Control_c, 0, 67, 17
1, 1250655, Control_c, 0, 67, 0
1, 1250813, Note_on_c, 0, 73, 70
1, 1250912, Note_on_c, 0, 42, 60
1, 1250959, Note_off_c, 0, 42, 59
1, 1251009, Note_on_c, 0, 61, 56
1, 1251014, Note_on_c, 0, 39, 53
1, 1251053, Note_off_c, 0, 39, 59
1, 1251067, Control_c, 0, 67, 10
1, 1251085, Control_c, 0, 67, 15
1, 1251103, Control_c, 0, 67, 20
1, 1251123, Control_c, 0, 67, 28
1, 1251141, Control_c, 0, 67, 37
1, 1251160, Control_c, 0, 67, 47
1, 1251178, Control_c, 0, 67, 56
1, 1251198, Control_c, 0, 67, 66
1, 1251216, Control_c, 0, 67, 71
1, 1251272, Note_on_c, 0, 40, 57
1, 1251272, Note_on_c, 0, 70, 59
1, 1251287, Note_on_c, 0, 66, 42
1, 1251292, Note_off_c, 0, 61, 63
1, 1251311, Note_off_c, 0, 40, 62
1, 1251321, Note_off_c, 0, 70, 65
1, 1251321, Poly_aftertouch_c, 0, 70, 0
1, 1251323, Note_off_c, 0, 66, 58
1, 1251326, Note_off_c, 0, 73, 61
1, 1251518, Note_on_c, 0, 78, 67
1, 1251603, Note_on_c, 0, 40, 51
1, 1251648, Note_off_c, 0, 40, 58
1, 1251714, Note_on_c, 0, 38, 57
1, 1251722, Note_on_c, 0, 66, 51
1, 1251755, Note_off_c, 0, 38, 63
1, 1251871, Control_c, 0, 67, 75
1, 1251949, Note_on_c, 0, 39, 60
1, 1251950, Note_on_c, 0, 75, 59
1, 1251965, Note_on_c, 0, 71, 40
1, 1251979, Note_off_c, 0, 78, 63
1, 1251988, Note_off_c, 0, 39, 60
1, 1251989, Note_off_c, 0, 75, 67
1, 1251989, Note_off_c, 0, 66, 62
1, 1252004, Note_off_c, 0, 71, 48
1, 1252019, Control_c, 0, 67, 79
1, 1252193, Note_on_c, 0, 61, 70
1, 1252282, Note_on_c, 0, 42, 55
1, 1252373, Note_off_c, 0, 42, 55
1, 1252394, Note_on_c, 0, 39, 62
1, 1252401, Note_on_c, 0, 54, 56
1, 1252446, Note_off_c, 0, 39, 59
1, 1252626, Note_on_c, 0, 58, 50
1, 1252627, Note_on_c, 0, 40, 58
1, 1252631, Note_off_c, 0, 54, 55
1, 1252670, Note_off_c, 0, 40, 60
1, 1252686, Note_off_c, 0, 58, 59
1, 1252865, Note_on_c, 0, 66, 66
1, 1252975, Note_on_c, 0, 40, 58
1, 1253016, Note_off_c, 0, 40, 60
1, 1253036, Note_off_c, 0, 61, 38
1, 1253046, Note_on_c, 0, 54, 54
1, 1253103, Note_on_c, 0, 38, 51
1, 1253149, Note_off_c, 0, 38, 59
1, 1253294, Note_on_c, 0, 60, 51
1, 1253310, Note_on_c, 0, 58, 43
1, 1253319, Note_on_c, 0, 39, 50
1, 1253361, Note_off_c, 0, 39, 61
1, 1253441, Note_off_c, 0, 66, 51
1, 1253505, Note_off_c, 0, 54, 37
1, 1253531, Note_on_c, 0, 65, 67
1, 1253538, Note_off_c, 0, 58, 52
1, 1253585, Note_off_c, 0, 60, 47
1, 1253585, Poly_aftertouch_c, 0, 60, 0
1, 1253623, Note_on_c, 0, 42, 60
1, 1253666, Control_c, 0, 67, 86
1, 1253692, Note_off_c, 0, 42, 56
1, 1253702, Control_c, 0, 67, 93
1, 1253720, Control_c, 0, 67, 99
1, 1253724, Note_on_c, 0, 40, 58
1, 1253732, Note_on_c, 0, 51, 58
1, 1253739, Control_c, 0, 67, 103
1, 1253777, Control_c, 0, 64, 13
1, 1253787, Note_off_c, 0, 40, 54
1, 1253797, Control_c, 0, 64, 42
1, 1253805, Note_off_c, 0, 51, 49
1, 1253816, Control_c, 0, 64, 60
1, 1253834, Control_c, 0, 64, 72
1, 1253853, Control_c, 0, 64, 79
1, 1253872, Control_c, 0, 64, 86
1, 1253890, Control_c, 0, 64, 95
1, 1253909, Control_c, 0, 64, 104
1, 1253918, Note_off_c, 0, 65, 58
1, 1253918, Poly_aftertouch_c, 0, 65, 0
1, 1253925, Note_on_c, 0, 60, 58
1, 1253927, Control_c, 0, 64, 111
1, 1253939, Note_on_c, 0, 41, 58
1, 1253946, Control_c, 0, 64, 117
1, 1253955, Note_on_c, 0, 57, 12
1, 1253963, Note_off_c, 0, 60, 65
1, 1253963, Poly_aftertouch_c, 0, 60, 0
1, 1253963, Control_c, 0, 64, 122
1, 1253982, Note_off_c, 0, 41, 57
1, 1253983, Control_c, 0, 67, 99
1, 1254033, Note_off_c, 0, 57, 32
1, 1254058, Control_c, 0, 67, 94
1, 1254170, Control_c, 0, 64, 118
1, 1254208, Control_c, 0, 64, 110
1, 1254216, Note_on_c, 0, 34, 49
1, 1254227, Control_c, 0, 64, 99
1, 1254246, Control_c, 0, 64, 83
1, 1254264, Control_c, 0, 64, 64
1, 1254283, Control_c, 0, 64, 45
1, 1254314, Note_on_c, 0, 94, 65
1, 1254319, Control_c, 0, 64, 0
1, 1254339, Control_c, 0, 64, 16
1, 1254358, Control_c, 0, 64, 35
1, 1254376, Control_c, 0, 64, 50
1, 1254379, Note_off_c, 0, 34, 62
1, 1254395, Control_c, 0, 64, 67
1, 1254414, Control_c, 0, 64, 83
1, 1254417, Note_on_c, 0, 89, 65
1, 1254432, Control_c, 0, 64, 102
1, 1254450, Note_off_c, 0, 94, 64
1, 1254450, Control_c, 0, 64, 123
1, 1254469, Control_c, 0, 64, 127
1, 1254495, Note_on_c, 0, 85, 74
1, 1254504, Note_off_c, 0, 89, 60
1, 1254578, Note_on_c, 0, 82, 76
1, 1254585, Note_off_c, 0, 85, 64
1, 1254636, Note_off_c, 0, 82, 61
1, 1254654, Note_on_c, 0, 70, 66
1, 1254686, Note_off_c, 0, 70, 69
1, 1254686, Poly_aftertouch_c, 0, 70, 0
1, 1254937, Control_c, 0, 64, 119
1, 1254941, Note_on_c, 0, 34, 65
1, 1254956, Control_c, 0, 64, 104
1, 1254959, Note_on_c, 0, 46, 43
1, 1254974, Control_c, 0, 64, 82
1, 1254993, Control_c, 0, 64, 57
1, 1255013, Control_c, 0, 64, 25
1, 1255031, Control_c, 0, 64, 0
1, 1255068, Control_c, 0, 64, 12
1, 1255088, Control_c, 0, 64, 35
1, 1255105, Control_c, 0, 64, 53
1, 1255124, Control_c, 0, 64, 71
1, 1255143, Control_c, 0, 64, 87
1, 1255145, Control_c, 0, 67, 88
1, 1255162, Control_c, 0, 64, 103
1, 1255179, Control_c, 0, 64, 121
1, 1255180, Control_c, 0, 67, 83
1, 1255200, Control_c, 0, 64, 127
1, 1255217, Poly_aftertouch_c, 0, 46, 20
1, 1255217, Control_c, 0, 67, 75
1, 1255225, Note_off_c, 0, 46, 19
1, 1255225, Poly_aftertouch_c, 0, 46, 0
1, 1255236, Control_c, 0, 67, 69
1, 1255254, Control_c, 0, 67, 61
1, 1255273, Control_c, 0, 67, 53
1, 1255292, Control_c, 0, 67, 44
1, 1255311, Control_c, 0, 67, 37
1, 1255320, Note_off_c, 0, 34, 35
1, 1255328, Control_c, 0, 67, 30
1, 1255349, Control_c, 0, 67, 21
1, 1255368, Control_c, 0, 67, 9
1, 1255386, Control_c, 0, 64, 118
1, 1255387, Control_c, 0, 67, 0
1, 1255403, Control_c, 0, 64, 110
1, 1255407, Note_on_c, 0, 35, 58
1, 1255424, Control_c, 0, 64, 101
1, 1255436, Note_on_c, 0, 47, 40
1, 1255442, Control_c, 0, 64, 92
1, 1255460, Control_c, 0, 64, 78
1, 1255480, Control_c, 0, 64, 63
1, 1255498, Control_c, 0, 64, 44
1, 1255517, Control_c, 0, 64, 0
1, 1255661, Note_on_c, 0, 92, 70
1, 1255664, Control_c, 0, 64, 27
1, 1255686, Control_c, 0, 64, 50
1, 1255704, Control_c, 0, 64, 69
1, 1255722, Control_c, 0, 64, 84
1, 1255742, Control_c, 0, 64, 98
1, 1255743, Note_on_c, 0, 87, 71
1, 1255760, Control_c, 0, 64, 112
1, 1255779, Control_c, 0, 64, 125
1, 1255785, Note_off_c, 0, 92, 61
1, 1255838, Note_on_c, 0, 83, 71
1, 1255880, Note_off_c, 0, 87, 63
1, 1255880, Poly_aftertouch_c, 0, 87, 0
1, 1255916, Note_off_c, 0, 83, 63
1, 1255916, Poly_aftertouch_c, 0, 83, 0
1, 1255936, Note_on_c, 0, 80, 77
1, 1255965, Note_off_c, 0, 80, 70
1, 1256064, Note_on_c, 0, 68, 70
1, 1256099, Note_off_c, 0, 68, 69
1, 1256099, Poly_aftertouch_c, 0, 68, 0
1, 1256144, Note_off_c, 0, 35, 53
1, 1256148, Note_off_c, 0, 47, 47
1, 1256349, Note_on_c, 0, 47, 47
1, 1256355, Note_on_c, 0, 35, 51
1, 1256358, Control_c, 0, 64, 102
1, 1256377, Control_c, 0, 64, 74
1, 1256395, Control_c, 0, 64, 52
1, 1256415, Control_c, 0, 64, 43
1, 1256433, Control_c, 0, 64, 50
1, 1256452, Control_c, 0, 64, 66
1, 1256470, Control_c, 0, 64, 80
1, 1256490, Control_c, 0, 64, 101
1, 1256507, Control_c, 0, 64, 127
1, 1256521, Note_off_c, 0, 47, 54
1, 1256537, Note_off_c, 0, 35, 51
1, 1256777, Note_on_c, 0, 48, 53
1, 1256788, Note_on_c, 0, 36, 49
1, 1256807, Control_c, 0, 64, 115
1, 1256825, Control_c, 0, 64, 89
1, 1256845, Control_c, 0, 64, 60
1, 1256863, Control_c, 0, 64, 17
1, 1256882, Control_c, 0, 64, 0
1, 1256901, Control_c, 0, 67, 10
1, 1256939, Control_c, 0, 67, 17
1, 1256957, Control_c, 0, 64, 21
1, 1256958, Control_c, 0, 67, 24
1, 1256976, Control_c, 0, 64, 46
1, 1256976, Control_c, 0, 67, 35
1, 1256994, Control_c, 0, 64, 68
1, 1256995, Control_c, 0, 67, 48
1, 1257013, Control_c, 0, 64, 87
1, 1257016, Control_c, 0, 67, 58
1, 1257032, Control_c, 0, 64, 103
1, 1257033, Control_c, 0, 67, 66
1, 1257038, Note_on_c, 0, 90, 66
1, 1257049, Control_c, 0, 64, 117
1, 1257051, Control_c, 0, 67, 72
1, 1257069, Control_c, 0, 64, 126
1, 1257070, Control_c, 0, 67, 78
1, 1257087, Control_c, 0, 67, 86
1, 1257106, Control_c, 0, 67, 94
1, 1257124, Note_off_c, 0, 90, 59
1, 1257124, Note_on_c, 0, 87, 65
1, 1257124, Control_c, 0, 67, 102
1, 1257145, Control_c, 0, 67, 111
1, 1257162, Control_c, 0, 67, 118
1, 1257181, Control_c, 0, 67, 123
1, 1257204, Note_on_c, 0, 80, 68
1, 1257208, Note_off_c, 0, 87, 63
1, 1257208, Poly_aftertouch_c, 0, 87, 0
1, 1257218, Control_c, 0, 67, 127
1, 1257292, Note_off_c, 0, 80, 63
1, 1257313, Note_on_c, 0, 78, 65
1, 1257342, Note_off_c, 0, 78, 67
1, 1257439, Note_on_c, 0, 66, 67
1, 1257474, Note_off_c, 0, 66, 68
1, 1257538, Note_off_c, 0, 48, 53
1, 1257538, Poly_aftertouch_c, 0, 48, 0
1, 1257546, Note_off_c, 0, 36, 49
1, 1257612, Control_c, 0, 64, 121
1, 1257648, Control_c, 0, 64, 114
1, 1257668, Control_c, 0, 64, 110
1, 1257705, Control_c, 0, 64, 102
1, 1257722, Control_c, 0, 64, 96
1, 1257742, Control_c, 0, 64, 85
1, 1257754, Note_on_c, 0, 48, 43
1, 1257761, Control_c, 0, 64, 69
1, 1257762, Note_on_c, 0, 36, 43
1, 1257780, Control_c, 0, 64, 46
1, 1257797, Control_c, 0, 64, 0
1, 1257854, Control_c, 0, 64, 16
1, 1257872, Control_c, 0, 64, 42
1, 1257892, Control_c, 0, 64, 62
1, 1257910, Control_c, 0, 64, 80
1, 1257924, Note_off_c, 0, 48, 55
1, 1257924, Poly_aftertouch_c, 0, 48, 0
1, 1257929, Control_c, 0, 64, 98
1, 1257947, Control_c, 0, 64, 117
1, 1257966, Control_c, 0, 64, 127
1, 1257989, Note_off_c, 0, 36, 54
1, 1258023, Control_c, 0, 67, 122
1, 1258059, Control_c, 0, 67, 116
1, 1258117, Control_c, 0, 67, 112
1, 1258171, Control_c, 0, 64, 117
1, 1258191, Control_c, 0, 64, 107
1, 1258199, Note_on_c, 0, 49, 47
1, 1258210, Control_c, 0, 64, 97
1, 1258213, Note_on_c, 0, 37, 47
1, 1258228, Control_c, 0, 64, 85
1, 1258247, Control_c, 0, 64, 71
1, 1258265, Control_c, 0, 64, 55
1, 1258284, Control_c, 0, 64, 26
1, 1258303, Control_c, 0, 64, 0
1, 1258434, Control_c, 0, 64, 37
1, 1258436, Control_c, 0, 67, 108
1, 1258445, Note_on_c, 0, 89, 53
1, 1258448, Note_off_c, 0, 37, 58
1, 1258453, Control_c, 0, 64, 61
1, 1258454, Control_c, 0, 67, 104
1, 1258468, Note_off_c, 0, 49, 58
1, 1258468, Poly_aftertouch_c, 0, 49, 0
1, 1258470, Control_c, 0, 64, 80
1, 1258472, Control_c, 0, 67, 99
1, 1258491, Control_c, 0, 64, 97
1, 1258494, Control_c, 0, 67, 93
1, 1258499, Note_off_c, 0, 89, 51
1, 1258508, Control_c, 0, 64, 114
1, 1258509, Control_c, 0, 67, 88
1, 1258520, Note_on_c, 0, 85, 60
1, 1258527, Control_c, 0, 64, 127
1, 1258527, Control_c, 0, 67, 83
1, 1258546, Control_c, 0, 67, 79
1, 1258564, Control_c, 0, 67, 74
1, 1258584, Control_c, 0, 67, 69
1, 1258599, Note_off_c, 0, 85, 60
1, 1258600, Control_c, 0, 67, 64
1, 1258612, Note_on_c, 0, 80, 68
1, 1258619, Control_c, 0, 67, 59
1, 1258659, Control_c, 0, 67, 54
1, 1258677, Note_off_c, 0, 80, 60
1, 1258696, Control_c, 0, 67, 49
1, 1258716, Note_on_c, 0, 77, 62
1, 1258733, Control_c, 0, 64, 119
1, 1258735, Control_c, 0, 67, 43
1, 1258751, Control_c, 0, 64, 106
1, 1258771, Control_c, 0, 64, 90
1, 1258772, Control_c, 0, 67, 35
1, 1258788, Note_off_c, 0, 77, 41
1, 1258788, Poly_aftertouch_c, 0, 77, 0
1, 1258790, Control_c, 0, 64, 70
1, 1258791, Control_c, 0, 67, 31
1, 1258804, Note_on_c, 0, 73, 65
1, 1258807, Note_on_c, 0, 53, 53
1, 1258807, Control_c, 0, 64, 48
1, 1258815, Note_on_c, 0, 41, 48
1, 1258826, Control_c, 0, 64, 0
1, 1258838, Note_off_c, 0, 73, 68
1, 1258850, Note_off_c, 0, 53, 63
1, 1258852, Note_off_c, 0, 41, 61
1, 1259051, Control_c, 0, 64, 26
1, 1259053, Note_on_c, 0, 87, 64
1, 1259068, Control_c, 0, 64, 51
1, 1259070, Note_on_c, 0, 56, 50
1, 1259071, Note_on_c, 0, 44, 52
1, 1259089, Control_c, 0, 64, 72
1, 1259107, Control_c, 0, 64, 89
1, 1259126, Control_c, 0, 64, 110
1, 1259133, Note_off_c, 0, 87, 62
1, 1259133, Poly_aftertouch_c, 0, 87, 0
1, 1259142, Control_c, 0, 64, 127
1, 1259144, Note_on_c, 0, 84, 63
1, 1259176, Note_off_c, 0, 56, 60
1, 1259178, Note_off_c, 0, 44, 59
1, 1259182, Control_c, 0, 67, 25
1, 1259219, Control_c, 0, 67, 21
1, 1259222, Note_off_c, 0, 84, 63
1, 1259239, Note_on_c, 0, 80, 66
1, 1259257, Control_c, 0, 67, 16
1, 1259283, Note_off_c, 0, 80, 58
1, 1259294, Control_c, 0, 67, 10
1, 1259331, Note_on_c, 0, 75, 63
1, 1259367, Note_off_c, 0, 75, 67
1, 1259389, Control_c, 0, 67, 0
1, 1259406, Control_c, 0, 64, 116
1, 1259424, Control_c, 0, 64, 80
1, 1259445, Control_c, 0, 64, 36
1, 1259446, Note_on_c, 0, 72, 53
1, 1259448, Note_on_c, 0, 60, 48
1, 1259452, Note_on_c, 0, 48, 55
1, 1259463, Control_c, 0, 64, 0
1, 1259477, Note_off_c, 0, 72, 39
1, 1259485, Note_off_c, 0, 60, 40
1, 1259485, Poly_aftertouch_c, 0, 60, 0
1, 1259491, Note_off_c, 0, 48, 64
1, 1259491, Poly_aftertouch_c, 0, 48, 0
1, 1259701, Note_on_c, 0, 90, 63
1, 1259705, Note_on_c, 0, 51, 42
1, 1259710, Note_on_c, 0, 39, 46
1, 1259725, Control_c, 0, 64, 43
1, 1259742, Control_c, 0, 64, 62
1, 1259761, Control_c, 0, 64, 79
1, 1259780, Control_c, 0, 64, 96
1, 1259798, Note_on_c, 0, 87, 65
1, 1259798, Control_c, 0, 64, 118
1, 1259801, Note_off_c, 0, 90, 56
1, 1259817, Control_c, 0, 64, 127
1, 1259878, Note_off_c, 0, 87, 62
1, 1259878, Poly_aftertouch_c, 0, 87, 0
1, 1259886, Note_on_c, 0, 82, 66
1, 1259893, Note_off_c, 0, 39, 58
1, 1259896, Note_off_c, 0, 51, 59
1, 1259942, Note_off_c, 0, 82, 59
1, 1259974, Note_on_c, 0, 78, 64
1, 1260010, Note_off_c, 0, 78, 62
1, 1260041, Control_c, 0, 64, 96
1, 1260061, Control_c, 0, 64, 51
1, 1260077, Control_c, 0, 64, 0
1, 1260080, Note_on_c, 0, 75, 60
1, 1260084, Note_on_c, 0, 42, 61
1, 1260085, Note_on_c, 0, 54, 55
1, 1260106, Note_off_c, 0, 75, 63
1, 1260118, Note_off_c, 0, 54, 60
1, 1260120, Note_off_c, 0, 42, 65
1, 1260319, Note_on_c, 0, 87, 65
1, 1260325, Note_on_c, 0, 44, 58
1, 1260332, Note_on_c, 0, 56, 52
1, 1260340, Control_c, 0, 64, 42
1, 1260360, Control_c, 0, 64, 77
1, 1260379, Control_c, 0, 64, 108
1, 1260398, Control_c, 0, 64, 127
1, 1260402, Note_off_c, 0, 87, 62
1, 1260402, Poly_aftertouch_c, 0, 87, 0
1, 1260408, Note_on_c, 0, 83, 65
1, 1260427, Note_off_c, 0, 44, 62
1, 1260429, Note_off_c, 0, 56, 57
1, 1260491, Note_off_c, 0, 83, 62
1, 1260491, Poly_aftertouch_c, 0, 83, 0
1, 1260494, Note_on_c, 0, 80, 70
1, 1260542, Note_off_c, 0, 80, 57
1, 1260586, Note_on_c, 0, 75, 64
1, 1260624, Note_off_c, 0, 75, 67
1, 1260659, Control_c, 0, 64, 121
1, 1260676, Control_c, 0, 64, 77
1, 1260680, Note_on_c, 0, 47, 61
1, 1260689, Note_on_c, 0, 71, 55
1, 1260695, Note_on_c, 0, 59, 39
1, 1260695, Control_c, 0, 64, 0
1, 1260696, Note_off_c, 0, 59, 127
1, 1260720, Note_off_c, 0, 71, 36
1, 1260721, Note_off_c, 0, 47, 64
1, 1260735, Poly_aftertouch_c, 0, 59, 0
1, 1260937, Note_on_c, 0, 92, 80
1, 1260958, Control_c, 0, 64, 72
1, 1260959, Note_on_c, 0, 40, 55
1, 1260961, Note_on_c, 0, 52, 58
1, 1260977, Control_c, 0, 64, 111
1, 1260996, Control_c, 0, 64, 127
1, 1261037, Note_on_c, 0, 88, 69
1, 1261049, Note_off_c, 0, 52, 61
1, 1261061, Note_off_c, 0, 40, 59
1, 1261073, Note_off_c, 0, 92, 62
1, 1261127, Note_off_c, 0, 88, 63
1, 1261127, Note_on_c, 0, 83, 70
1, 1261188, Note_off_c, 0, 83, 62
1, 1261188, Poly_aftertouch_c, 0, 83, 0
1, 1261205, Note_on_c, 0, 80, 72
1, 1261233, Note_off_c, 0, 80, 70
1, 1261276, Control_c, 0, 64, 101
1, 1261294, Control_c, 0, 64, 56
1, 1261314, Control_c, 0, 64, 0
1, 1261317, Note_on_c, 0, 44, 62
1, 1261319, Note_on_c, 0, 76, 60
1, 1261321, Note_on_c, 0, 56, 61
1, 1261340, Note_off_c, 0, 76, 63
1, 1261353, Note_off_c, 0, 44, 64
1, 1261357, Note_off_c, 0, 56, 65
1, 1261554, Note_on_c, 0, 90, 79
1, 1261554, Control_c, 0, 64, 45
1, 1261569, Note_on_c, 0, 47, 54
1, 1261571, Note_on_c, 0, 59, 60
1, 1261574, Control_c, 0, 64, 83
1, 1261594, Control_c, 0, 64, 117
1, 1261612, Control_c, 0, 64, 127
1, 1261623, Note_off_c, 0, 59, 59
1, 1261627, Note_off_c, 0, 47, 62
1, 1261647, Note_on_c, 0, 87, 70
1, 1261662, Note_off_c, 0, 90, 63
1, 1261700, Poly_aftertouch_c, 0, 48, 0
1, 1261734, Note_off_c, 0, 87, 63
1, 1261734, Poly_aftertouch_c, 0, 87, 0
1, 1261738, Note_on_c, 0, 83, 68
1, 1261788, Note_off_c, 0, 83, 61
1, 1261788, Poly_aftertouch_c, 0, 83, 0
1, 1261817, Note_on_c, 0, 78, 70
1, 1261854, Note_off_c, 0, 78, 62
1, 1261893, Control_c, 0, 64, 98
1, 1261911, Control_c, 0, 64, 58
1, 1261926, Note_on_c, 0, 63, 52
1, 1261926, Note_on_c, 0, 51, 62
1, 1261931, Control_c, 0, 64, 0
1, 1261932, Note_on_c, 0, 75, 59
1, 1261956, Note_off_c, 0, 75, 61
1, 1261958, Note_off_c, 0, 63, 60
1, 1261961, Note_off_c, 0, 51, 63
1, 1262163, Note_on_c, 0, 93, 88
1, 1262172, Control_c, 0, 64, 9
1, 1262176, Note_on_c, 0, 42, 67
1, 1262191, Note_on_c, 0, 54, 55
1, 1262191, Control_c, 0, 64, 95
1, 1262211, Control_c, 0, 64, 127
1, 1262231, Note_off_c, 0, 54, 62
1, 1262233, Note_off_c, 0, 42, 58
1, 1262267, Note_on_c, 0, 90, 80
1, 1262283, Note_off_c, 0, 93, 63
1, 1262359, Note_on_c, 0, 85, 75
1, 1262364, Note_off_c, 0, 90, 64
1, 1262419, Note_off_c, 0, 85, 64
1, 1262447, Note_on_c, 0, 81, 68
1, 1262472, Control_c, 0, 64, 97
1, 1262490, Note_off_c, 0, 81, 56
1, 1262490, Control_c, 0, 64, 66
1, 1262510, Control_c, 0, 64, 20
1, 1262528, Control_c, 0, 64, 0
1, 1262538, Note_on_c, 0, 57, 59
1, 1262539, Note_on_c, 0, 45, 57
1, 1262543, Note_on_c, 0, 78, 65
1, 1262571, Note_off_c, 0, 78, 65
1, 1262575, Note_off_c, 0, 57, 65
1, 1262577, Note_off_c, 0, 45, 63
1, 1262781, Note_on_c, 0, 59, 72
1, 1262782, Note_on_c, 0, 90, 72
1, 1262785, Note_on_c, 0, 47, 66
1, 1262789, Control_c, 0, 64, 43
1, 1262811, Control_c, 0, 64, 109
1, 1262818, Note_off_c, 0, 59, 65
1, 1262822, Note_off_c, 0, 47, 64
1, 1262828, Control_c, 0, 64, 127
1, 1262863, Note_on_c, 0, 86, 72
1, 1262870, Note_off_c, 0, 90, 64
1, 1262945, Note_off_c, 0, 86, 63
1, 1262973, Note_on_c, 0, 83, 69
1, 1263010, Note_off_c, 0, 83, 63
1, 1263010, Poly_aftertouch_c, 0, 83, 0
1, 1263044, Note_on_c, 0, 78, 69
1, 1263075, Note_off_c, 0, 78, 67
1, 1263108, Control_c, 0, 64, 113
1, 1263128, Control_c, 0, 64, 74
1, 1263146, Control_c, 0, 64, 20
1, 1263151, Note_on_c, 0, 50, 61
1, 1263153, Note_on_c, 0, 74, 69
1, 1263156, Note_on_c, 0, 62, 45
1, 1263164, Control_c, 0, 64, 0
1, 1263184, Note_off_c, 0, 74, 64
1, 1263190, Note_off_c, 0, 50, 64
1, 1263190, Poly_aftertouch_c, 0, 50, 0
1, 1263192, Note_off_c, 0, 62, 55
1, 1263392, Note_on_c, 0, 95, 91
1, 1263407, Note_on_c, 0, 43, 65
1, 1263413, Note_on_c, 0, 55, 60
1, 1263426, Control_c, 0, 64, 63
1, 1263442, Note_off_c, 0, 43, 66
1, 1263444, Control_c, 0, 64, 125
1, 1263449, Note_off_c, 0, 55, 65
1, 1263482, Note_on_c, 0, 89, 80
1, 1263498, Note_off_c, 0, 95, 62
1, 1263558, Note_on_c, 0, 86, 80
1, 1263561, Note_off_c, 0, 89, 63
1, 1263619, Note_off_c, 0, 86, 65
1, 1263647, Note_on_c, 0, 83, 72
1, 1263683, Note_off_c, 0, 83, 63
1, 1263683, Poly_aftertouch_c, 0, 83, 0
1, 1263707, Control_c, 0, 64, 113
1, 1263726, Control_c, 0, 64, 76
1, 1263744, Control_c, 0, 64, 27
1, 1263750, Note_on_c, 0, 47, 55
1, 1263750, Note_on_c, 0, 77, 73
1, 1263752, Note_on_c, 0, 59, 50
1, 1263762, Control_c, 0, 64, 0
1, 1263781, Note_off_c, 0, 77, 67
1, 1263781, Note_off_c, 0, 59, 52
1, 1263781, Poly_aftertouch_c, 0, 77, 0
1, 1263788, Note_off_c, 0, 47, 63
1, 1263994, Note_on_c, 0, 96, 93
1, 1264007, Note_on_c, 0, 43, 75
1, 1264009, Note_on_c, 0, 55, 72
1, 1264025, Control_c, 0, 64, 67
1, 1264046, Control_c, 0, 64, 127
1, 1264048, Note_off_c, 0, 55, 69
1, 1264050, Note_off_c, 0, 43, 65
1, 1264081, Note_on_c, 0, 91, 80
1, 1264106, Note_off_c, 0, 96, 64
1, 1264173, Note_on_c, 0, 88, 78
1, 1264174, Note_off_c, 0, 91, 65
1, 1264231, Note_off_c, 0, 88, 64
1, 1264263, Note_on_c, 0, 84, 69
1, 1264292, Note_off_c, 0, 84, 71
1, 1264305, Control_c, 0, 64, 115
1, 1264324, Control_c, 0, 64, 79
1, 1264342, Control_c, 0, 64, 31
1, 1264362, Control_c, 0, 64, 0
1, 1264370, Note_on_c, 0, 76, 76
1, 1264380, Note_on_c, 0, 60, 54
1, 1264380, Note_on_c, 0, 48, 61
1, 1264395, Note_off_c, 0, 76, 71
1, 1264407, Note_off_c, 0, 60, 58
1, 1264407, Poly_aftertouch_c, 0, 60, 0
1, 1264416, Note_off_c, 0, 48, 64
1, 1264621, Note_on_c, 0, 43, 80
1, 1264621, Note_on_c, 0, 55, 82
1, 1264624, Note_on_c, 0, 97, 96
1, 1264641, Control_c, 0, 64, 102
1, 1264660, Note_off_c, 0, 55, 65
1, 1264660, Control_c, 0, 64, 127
1, 1264664, Note_off_c, 0, 43, 64
1, 1264712, Note_on_c, 0, 94, 83
1, 1264761, Note_off_c, 0, 97, 63
1, 1264791, Note_on_c, 0, 87, 81
1, 1264813, Note_off_c, 0, 94, 65
1, 1264862, Note_off_c, 0, 87, 65
1, 1264862, Poly_aftertouch_c, 0, 87, 0
1, 1264879, Note_on_c, 0, 85, 80
1, 1264903, Control_c, 0, 64, 123
1, 1264913, Note_off_c, 0, 85, 65
1, 1264923, Control_c, 0, 64, 85
1, 1264942, Control_c, 0, 64, 37
1, 1264960, Control_c, 0, 64, 0
1, 1264972, Note_on_c, 0, 49, 67
1, 1264976, Note_on_c, 0, 61, 60
1, 1264983, Note_on_c, 0, 75, 81
1, 1265003, Note_off_c, 0, 61, 64
1, 1265006, Note_off_c, 0, 75, 72
1, 1265007, Note_off_c, 0, 49, 61
1, 1265007, Poly_aftertouch_c, 0, 49, 0
1, 1265231, Note_on_c, 0, 43, 80
1, 1265231, Note_on_c, 0, 55, 82
1, 1265232, Note_on_c, 0, 98, 90
1, 1265240, Control_c, 0, 64, 64
1, 1265259, Control_c, 0, 64, 127
1, 1265266, Note_off_c, 0, 55, 66
1, 1265270, Note_off_c, 0, 43, 67
1, 1265324, Note_on_c, 0, 95, 80
1, 1265352, Note_off_c, 0, 98, 62
1, 1265401, Note_on_c, 0, 89, 74
1, 1265413, Note_off_c, 0, 95, 64
1, 1265462, Note_off_c, 0, 89, 63
1, 1265485, Control_c, 0, 64, 115
1, 1265496, Note_on_c, 0, 86, 68
1, 1265503, Control_c, 0, 64, 94
1, 1265510, Poly_aftertouch_c, 0, 51, 0
1, 1265518, Note_off_c, 0, 86, 66
1, 1265522, Control_c, 0, 64, 73
1, 1265539, Control_c, 0, 64, 53
1, 1265557, Control_c, 0, 64, 18
1, 1265558, Control_c, 0, 67, 8
1, 1265559, Note_on_c, 0, 50, 66
1, 1265562, Note_on_c, 0, 62, 57
1, 1265576, Control_c, 0, 64, 0
1, 1265591, Note_off_c, 0, 62, 61
1, 1265593, Note_on_c, 0, 74, 75
1, 1265599, Note_off_c, 0, 50, 63
1, 1265599, Poly_aftertouch_c, 0, 50, 0
1, 1265623, Note_off_c, 0, 74, 68
1, 1265823, Note_on_c, 0, 43, 78
1, 1265825, Note_on_c, 0, 55, 79
1, 1265836, Note_on_c, 0, 101, 89
1, 1265856, Note_off_c, 0, 55, 70
1, 1265861, Note_off_c, 0, 43, 67
1, 1265875, Control_c, 0, 67, 0
1, 1265922, Note_on_c, 0, 95, 78
1, 1265936, Note_off_c, 0, 101, 64
1, 1266014, Note_on_c, 0, 92, 81
1, 1266020, Note_off_c, 0, 95, 65
1, 1266081, Note_off_c, 0, 92, 65
1, 1266095, Note_on_c, 0, 89, 71
1, 1266123, Note_off_c, 0, 89, 69
1, 1266138, Control_c, 0, 64, 8
1, 1266156, Control_c, 0, 64, 0
1, 1266180, Note_on_c, 0, 68, 92
1, 1266180, Note_on_c, 0, 56, 88
1, 1266193, Note_on_c, 0, 83, 79
1, 1266219, Note_off_c, 0, 83, 70
1, 1266219, Poly_aftertouch_c, 0, 83, 0
1, 1266343, Control_c, 0, 67, 10
1, 1266474, Control_c, 0, 67, 15
1, 1266475, Note_on_c, 0, 100, 87
1, 1266511, Control_c, 0, 67, 20
1, 1266530, Control_c, 0, 67, 24
1, 1266548, Control_c, 0, 67, 28
1, 1266568, Control_c, 0, 67, 34
1, 1266578, Note_on_c, 0, 96, 74
1, 1266586, Control_c, 0, 67, 39
1, 1266588, Note_off_c, 0, 100, 64
1, 1266604, Control_c, 0, 67, 44
1, 1266625, Control_c, 0, 67, 49
1, 1266642, Control_c, 0, 67, 53
1, 1266653, Note_off_c, 0, 96, 63
1, 1266656, Note_off_c, 0, 68, 38
1, 1266656, Note_on_c, 0, 91, 67
1, 1266656, Poly_aftertouch_c, 0, 68, 0
1, 1266681, Control_c, 0, 67, 59
1, 1266702, Note_off_c, 0, 91, 65
1, 1266717, Control_c, 0, 67, 64
1, 1266734, Note_on_c, 0, 88, 62
1, 1266755, Note_off_c, 0, 56, 49
1, 1266774, Control_c, 0, 67, 69
1, 1266775, Note_off_c, 0, 88, 63
1, 1266819, Note_on_c, 0, 84, 62
1, 1266823, Note_on_c, 0, 55, 60
1, 1266825, Note_on_c, 0, 67, 48
1, 1266842, Note_off_c, 0, 84, 65
1, 1266857, Note_off_c, 0, 67, 56
1, 1266859, Note_off_c, 0, 55, 65
1, 1267082, Note_on_c, 0, 99, 75
1, 1267085, Note_on_c, 0, 55, 65
1, 1267085, Note_on_c, 0, 43, 68
1, 1267117, Note_off_c, 0, 43, 66
1, 1267121, Note_off_c, 0, 55, 67
1, 1267165, Control_c, 0, 67, 60
1, 1267170, Note_on_c, 0, 96, 71
1, 1267185, Control_c, 0, 67, 43
1, 1267186, Note_off_c, 0, 99, 61
1, 1267204, Control_c, 0, 67, 12
1, 1267222, Control_c, 0, 67, 0
1, 1267263, Note_off_c, 0, 96, 64
1, 1267270, Note_on_c, 0, 93, 68
1, 1267299, Note_off_c, 0, 93, 69
1, 1267325, Note_on_c, 0, 87, 71
1, 1267353, Note_off_c, 0, 87, 69
1, 1267353, Poly_aftertouch_c, 0, 87, 0
1, 1267429, Note_on_c, 0, 81, 75
1, 1267431, Note_on_c, 0, 54, 71
1, 1267431, Note_on_c, 0, 66, 76
1, 1267447, Control_c, 0, 67, 13
1, 1267455, Note_off_c, 0, 81, 71
1, 1267465, Control_c, 0, 67, 34
1, 1267483, Control_c, 0, 67, 50
1, 1267503, Control_c, 0, 67, 69
1, 1267521, Control_c, 0, 67, 94
1, 1267540, Control_c, 0, 67, 120
1, 1267560, Control_c, 0, 67, 127
1, 1267616, Control_c, 0, 67, 122
1, 1267726, Note_on_c, 0, 98, 72
1, 1267816, Note_off_c, 0, 98, 63
1, 1267820, Note_on_c, 0, 95, 74
1, 1267891, Note_on_c, 0, 92, 65
1, 1267894, Note_off_c, 0, 95, 63
1, 1267937, Note_off_c, 0, 66, 35
1, 1267949, Note_off_c, 0, 92, 63
1, 1267978, Note_off_c, 0, 54, 54
1, 1267980, Note_on_c, 0, 86, 65
1, 1268019, Note_off_c, 0, 86, 64
1, 1268074, Note_on_c, 0, 83, 74
1, 1268081, Note_on_c, 0, 53, 56
1, 1268091, Note_on_c, 0, 65, 45
1, 1268099, Note_off_c, 0, 83, 70
1, 1268099, Poly_aftertouch_c, 0, 83, 0
1, 1268127, Note_off_c, 0, 53, 62
1, 1268128, Note_off_c, 0, 65, 52
1, 1268128, Poly_aftertouch_c, 0, 65, 0
1, 1268322, Note_on_c, 0, 96, 71
1, 1268336, Note_on_c, 0, 55, 53
1, 1268341, Note_on_c, 0, 43, 51
1, 1268365, Note_off_c, 0, 55, 58
1, 1268378, Note_off_c, 0, 43, 52
1, 1268395, Note_off_c, 0, 96, 63
1, 1268407, Note_on_c, 0, 91, 61
1, 1268460, Note_off_c, 0, 91, 60
1, 1268474, Control_c, 0, 67, 126
1, 1268493, Note_on_c, 0, 88, 65
1, 1268530, Note_off_c, 0, 88, 64
1, 1268573, Note_on_c, 0, 84, 61
1, 1268606, Note_off_c, 0, 84, 67
1, 1268681, Note_on_c, 0, 79, 65
1, 1268705, Note_on_c, 0, 52, 48
1, 1268706, Note_on_c, 0, 64, 52
1, 1268711, Note_off_c, 0, 79, 69
1, 1268964, Note_on_c, 0, 93, 62
1, 1269029, Note_off_c, 0, 64, 54
1, 1269037, Note_off_c, 0, 93, 63
1, 1269044, Note_on_c, 0, 90, 61
1, 1269115, Note_off_c, 0, 90, 60
1, 1269129, Note_on_c, 0, 84, 63
1, 1269170, Note_off_c, 0, 84, 62
1, 1269214, Note_on_c, 0, 81, 60
1, 1269276, Note_off_c, 0, 52, 58
1, 1269291, Note_off_c, 0, 81, 39
1, 1269302, Note_on_c, 0, 51, 60
1, 1269307, Note_on_c, 0, 78, 61
1, 1269316, Note_on_c, 0, 63, 43
1, 1269331, Note_off_c, 0, 78, 66
1, 1269342, Note_off_c, 0, 51, 62
1, 1269355, Note_off_c, 0, 63, 52
1, 1269539, Control_c, 0, 67, 112
1, 1269547, Note_on_c, 0, 43, 59
1, 1269559, Control_c, 0, 67, 88
1, 1269564, Note_on_c, 0, 90, 66
1, 1269572, Note_on_c, 0, 55, 39
1, 1269576, Control_c, 0, 67, 50
1, 1269579, Note_off_c, 0, 43, 64
1, 1269613, Note_off_c, 0, 55, 47
1, 1269615, Control_c, 0, 67, 0
1, 1269654, Note_on_c, 0, 87, 62
1, 1269655, Note_off_c, 0, 90, 61
1, 1269713, Note_off_c, 0, 87, 59
1, 1269713, Poly_aftertouch_c, 0, 87, 0
1, 1269731, Note_on_c, 0, 81, 59
1, 1269781, Note_off_c, 0, 81, 63
1, 1269814, Note_on_c, 0, 78, 62
1, 1269850, Note_off_c, 0, 78, 66
1, 1269913, Note_on_c, 0, 60, 73
1, 1269916, Note_on_c, 0, 75, 62
1, 1269918, Note_on_c, 0, 48, 68
1, 1269949, Note_off_c, 0, 75, 66
1, 1270192, Note_on_c, 0, 87, 58
1, 1270256, Note_off_c, 0, 87, 59
1, 1270256, Poly_aftertouch_c, 0, 87, 0
1, 1270263, Note_on_c, 0, 84, 63
1, 1270266, Note_off_c, 0, 60, 50
1, 1270266, Poly_aftertouch_c, 0, 60, 0
1, 1270340, Note_off_c, 0, 84, 64
1, 1270358, Note_on_c, 0, 78, 65
1, 1270410, Note_off_c, 0, 78, 61
1, 1270436, Note_on_c, 0, 75, 63
1, 1270471, Note_off_c, 0, 75, 66
1, 1270523, Note_off_c, 0, 48, 56
1, 1270529, Note_on_c, 0, 45, 62
1, 1270530, Note_on_c, 0, 72, 62
1, 1270532, Note_on_c, 0, 57, 59
1, 1270564, Note_off_c, 0, 45, 64
1, 1270566, Note_off_c, 0, 57, 62
1, 1270567, Note_off_c, 0, 72, 68
1, 1270800, Note_on_c, 0, 83, 62
1, 1270806, Note_on_c, 0, 55, 59
1, 1270811, Note_on_c, 0, 43, 61
1, 1270876, Note_off_c, 0, 83, 62
1, 1270876, Poly_aftertouch_c, 0, 83, 0
1, 1270885, Note_off_c, 0, 55, 62
1, 1270889, Note_off_c, 0, 43, 63
1, 1270894, Note_on_c, 0, 79, 63
1, 1270945, Note_off_c, 0, 79, 57
1, 1270979, Note_on_c, 0, 74, 63
1, 1271017, Note_off_c, 0, 74, 65
1, 1271060, Note_on_c, 0, 71, 63
1, 1271097, Note_off_c, 0, 71, 66
1, 1271162, Note_on_c, 0, 67, 59
1, 1271197, Note_off_c, 0, 67, 63
1, 1271474, Note_on_c, 0, 43, 82
1, 1271513, Note_off_c, 0, 43, 68
1, 1271541, Control_c, 0, 67, 11
1, 1271560, Control_c, 0, 67, 16
1, 1271578, Control_c, 0, 67, 22
1, 1271598, Control_c, 0, 67, 28
1, 1271616, Control_c, 0, 67, 32
1, 1271709, Control_c, 0, 67, 39
1, 1271846, Note_on_c, 0, 44, 60
1, 1271859, Control_c, 0, 67, 43
1, 1271879, Note_off_c, 0, 44, 59
1, 1271921, Note_on_c, 0, 43, 55
1, 1271935, Control_c, 0, 67, 48
1, 1271955, Note_off_c, 0, 43, 54
1, 1272158, Control_c, 0, 67, 53
1, 1272190, Note_on_c, 0, 71, 48
1, 1272196, Control_c, 0, 67, 58
1, 1272214, Control_c, 0, 67, 62
1, 1272240, Note_off_c, 0, 71, 63
1, 1272253, Control_c, 0, 67, 69
1, 1272274, Note_on_c, 0, 67, 46
1, 1272317, Note_off_c, 0, 67, 62
1, 1272369, Note_on_c, 0, 62, 55
1, 1272382, Control_c, 0, 67, 74
1, 1272408, Note_off_c, 0, 62, 64
1, 1272420, Control_c, 0, 67, 79
1, 1272458, Control_c, 0, 67, 84
1, 1272461, Note_on_c, 0, 59, 49
1, 1272495, Note_off_c, 0, 59, 61
1, 1272562, Note_on_c, 0, 55, 55
1, 1272603, Note_off_c, 0, 55, 64
1, 1272738, Control_c, 0, 67, 88
1, 1272914, Note_on_c, 0, 43, 56
1, 1272953, Note_off_c, 0, 43, 64
1, 1273347, Note_on_c, 0, 44, 51
1, 1273385, Note_off_c, 0, 44, 63
1, 1273415, Note_on_c, 0, 43, 50
1, 1273450, Note_off_c, 0, 43, 58
1, 1273635, Control_c, 0, 67, 82
1, 1273655, Control_c, 0, 67, 72
1, 1273673, Control_c, 0, 67, 45
1, 1273711, Control_c, 0, 67, 0
1, 1274193, Note_on_c, 0, 44, 58
1, 1274195, Note_on_c, 0, 56, 57
1, 1274230, Note_off_c, 0, 56, 64
1, 1274232, Note_off_c, 0, 44, 63
1, 1274273, Note_on_c, 0, 55, 77
1, 1274275, Note_on_c, 0, 43, 69
1, 1274309, Note_off_c, 0, 43, 64
1, 1274318, Note_off_c, 0, 55, 63
1, 1275051, Note_on_c, 0, 44, 72
1, 1275053, Note_on_c, 0, 56, 82
1, 1275082, Note_off_c, 0, 44, 67
1, 1275090, Note_off_c, 0, 56, 67
1, 1275136, Note_on_c, 0, 55, 102
1, 1275137, Note_on_c, 0, 43, 95
1, 1275190, Note_off_c, 0, 55, 68
1, 1275192, Note_off_c, 0, 43, 67
1, 1275946, Note_on_c, 0, 44, 88
1, 1275951, Note_on_c, 0, 56, 96
1, 1275982, Note_off_c, 0, 44, 72
1, 1276031, Note_on_c, 0, 55, 98
1, 1276035, Note_on_c, 0, 43, 96
1, 1276048, Note_off_c, 0, 56, 59
1, 1276086, Note_off_c, 0, 43, 67
1, 1276088, Note_off_c, 0, 55, 68
1, 1276263, Note_on_c, 0, 44, 92
1, 1276328, Control_c, 0, 64, 73
1, 1276334, Note_off_c, 0, 44, 64
1, 1276348, Control_c, 0, 64, 108
1, 1276354, Note_on_c, 0, 56, 84
1, 1276357, Note_on_c, 0, 68, 84
1, 1276366, Control_c, 0, 64, 127
1, 1276428, Note_off_c, 0, 56, 61
1, 1276429, Note_off_c, 0, 68, 63
1, 1276429, Poly_aftertouch_c, 0, 68, 0
1, 1276476, Note_on_c, 0, 43, 99
1, 1276476, Control_c, 0, 64, 81
1, 1276489, Poly_aftertouch_c, 0, 66, 0
1, 1276497, Control_c, 0, 64, 52
1, 1276516, Control_c, 0, 64, 64
1, 1276533, Control_c, 0, 64, 87
1, 1276552, Control_c, 0, 64, 119
1, 1276571, Control_c, 0, 64, 127
1, 1276574, Note_off_c, 0, 43, 59
1, 1276574, Note_on_c, 0, 67, 88
1, 1276574, Note_on_c, 0, 55, 87
1, 1276629, Note_off_c, 0, 55, 62
1, 1276648, Note_off_c, 0, 67, 57
1, 1276655, Note_on_c, 0, 41, 98
1, 1276743, Note_on_c, 0, 65, 79
1, 1276768, Note_on_c, 0, 53, 95
1, 1276777, Note_off_c, 0, 65, 67
1, 1276777, Poly_aftertouch_c, 0, 65, 0
1, 1276868, Note_off_c, 0, 53, 51
1, 1276879, Note_off_c, 0, 41, 59
1, 1276886, Poly_aftertouch_c, 0, 46, 0
1, 1276908, Control_c, 0, 64, 104
1, 1276926, Control_c, 0, 64, 55
1, 1276963, Control_c, 0, 64, 105
1, 1276965, Note_on_c, 0, 40, 97
1, 1276965, Note_on_c, 0, 52, 97
1, 1276969, Note_on_c, 0, 73, 101
1, 1276970, Note_on_c, 0, 85, 98
1, 1276972, Note_on_c, 0, 50, 89
1, 1276974, Note_on_c, 0, 79, 78
1, 1276979, Note_on_c, 0, 82, 83
1, 1276982, Control_c, 0, 64, 127
1, 1277006, Note_off_c, 0, 50, 66
1, 1277006, Poly_aftertouch_c, 0, 50, 0
1, 1277009, Note_off_c, 0, 52, 67
1, 1277016, Note_off_c, 0, 40, 62
1, 1277019, Note_off_c, 0, 73, 65
1, 1277019, Note_on_c, 0, 86, 44
1, 1277027, Note_off_c, 0, 79, 61
1, 1277035, Note_off_c, 0, 82, 62
1, 1277046, Note_off_c, 0, 85, 62
1, 1277055, Note_off_c, 0, 86, 59
1, 1277198, Note_on_c, 0, 61, 77
1, 1277205, Note_on_c, 0, 58, 76
1, 1277211, Note_on_c, 0, 52, 67
1, 1277225, Control_c, 0, 64, 112
1, 1277245, Note_off_c, 0, 61, 60
1, 1277245, Note_off_c, 0, 52, 69
1, 1277245, Control_c, 0, 64, 65
1, 1277251, Note_off_c, 0, 58, 60
1, 1277262, Control_c, 0, 64, 0
1, 1277283, Note_on_c, 0, 84, 84
1, 1277286, Note_on_c, 0, 72, 83
1, 1277308, Note_off_c, 0, 84, 74
1, 1277314, Note_off_c, 0, 72, 66
1, 1277358, Note_on_c, 0, 67, 88
1, 1277367, Note_on_c, 0, 58, 78
1, 1277373, Note_on_c, 0, 61, 72
1, 1277379, Note_off_c, 0, 67, 73
1, 1277386, Note_on_c, 0, 82, 84
1, 1277393, Note_on_c, 0, 70, 85
1, 1277399, Note_off_c, 0, 58, 68
1, 1277405, Note_off_c, 0, 61, 68
1, 1277415, Note_on_c, 0, 68, 65
1, 1277426, Note_off_c, 0, 82, 64
1, 1277426, Note_off_c, 0, 70, 67
1, 1277426, Poly_aftertouch_c, 0, 70, 0
1, 1277443, Note_off_c, 0, 68, 64
1, 1277443, Poly_aftertouch_c, 0, 68, 0
1, 1277586, Note_on_c, 0, 43, 88
1, 1277590, Note_on_c, 0, 55, 81
1, 1277592, Note_on_c, 0, 53, 80
1, 1277598, Control_c, 0, 64, 33
1, 1277618, Note_off_c, 0, 43, 69
1, 1277618, Control_c, 0, 64, 108
1, 1277620, Note_off_c, 0, 55, 71
1, 1277624, Note_off_c, 0, 53, 68
1, 1277637, Control_c, 0, 64, 127
1, 1277668, Note_on_c, 0, 68, 89
1, 1277671, Note_on_c, 0, 80, 82
1, 1277700, Note_off_c, 0, 68, 63
1, 1277700, Note_off_c, 0, 80, 64
1, 1277700, Poly_aftertouch_c, 0, 68, 0
1, 1277761, Note_on_c, 0, 79, 94
1, 1277766, Note_on_c, 0, 67, 93
1, 1277768, Control_c, 0, 64, 115
1, 1277774, Note_on_c, 0, 60, 86
1, 1277775, Note_on_c, 0, 56, 82
1, 1277787, Control_c, 0, 64, 68
1, 1277804, Control_c, 0, 64, 0
1, 1277807, Note_off_c, 0, 60, 67
1, 1277807, Poly_aftertouch_c, 0, 60, 0
1, 1277811, Note_off_c, 0, 56, 65
1, 1277812, Note_off_c, 0, 79, 66
1, 1277817, Note_off_c, 0, 67, 64
1, 1277822, Poly_aftertouch_c, 0, 53, 0
1, 1278015, Note_on_c, 0, 77, 90
1, 1278019, Note_on_c, 0, 65, 88
1, 1278022, Note_on_c, 0, 56, 80
1, 1278031, Note_on_c, 0, 60, 71
1, 1278032, Note_on_c, 0, 62, 75
1, 1278051, Note_off_c, 0, 56, 68
1, 1278061, Note_off_c, 0, 60, 67
1, 1278061, Poly_aftertouch_c, 0, 60, 0
1, 1278063, Note_off_c, 0, 62, 69
1, 1278064, Note_off_c, 0, 77, 64
1, 1278064, Note_off_c, 0, 65, 64
1, 1278064, Poly_aftertouch_c, 0, 65, 0
1, 1278064, Poly_aftertouch_c, 0, 77, 0
1, 1278246, Note_on_c, 0, 64, 93
1, 1278247, Note_on_c, 0, 76, 92
1, 1278248, Note_on_c, 0, 73, 84
1, 1278256, Note_on_c, 0, 67, 73
1, 1278261, Note_on_c, 0, 61, 105
1, 1278268, Note_on_c, 0, 49, 94
1, 1278271, Control_c, 0, 64, 56
1, 1278285, Note_off_c, 0, 67, 70
1, 1278290, Control_c, 0, 64, 107
1, 1278293, Note_off_c, 0, 64, 64
1, 1278300, Note_off_c, 0, 49, 67
1, 1278300, Poly_aftertouch_c, 0, 49, 0
1, 1278302, Note_off_c, 0, 61, 68
1, 1278309, Note_off_c, 0, 73, 64
1, 1278309, Control_c, 0, 64, 127
1, 1278311, Note_off_c, 0, 76, 63
1, 1278396, Poly_aftertouch_c, 0, 48, 0
1, 1278479, Control_c, 0, 64, 122
1, 1278482, Note_on_c, 0, 77, 88
1, 1278488, Note_on_c, 0, 65, 83
1, 1278497, Control_c, 0, 64, 127
1, 1278517, Note_off_c, 0, 65, 67
1, 1278517, Poly_aftertouch_c, 0, 65, 0
1, 1278537, Note_off_c, 0, 77, 60
1, 1278537, Poly_aftertouch_c, 0, 77, 0
1, 1278548, Note_on_c, 0, 48, 82
1, 1278548, Note_on_c, 0, 60, 90
1, 1278579, Note_off_c, 0, 60, 67
1, 1278579, Poly_aftertouch_c, 0, 60, 0
1, 1278582, Note_off_c, 0, 48, 67
1, 1278643, Note_on_c, 0, 58, 96
1, 1278647, Note_on_c, 0, 67, 98
1, 1278648, Note_on_c, 0, 46, 96
1, 1278649, Note_on_c, 0, 79, 97
1, 1278677, Note_off_c, 0, 46, 68
1, 1278683, Control_c, 0, 64, 108
1, 1278688, Note_off_c, 0, 79, 59
1, 1278690, Note_off_c, 0, 58, 59
1, 1278692, Note_off_c, 0, 67, 66
1, 1278704, Control_c, 0, 64, 75
1, 1278722, Control_c, 0, 64, 37
1, 1278741, Control_c, 0, 64, 0
1, 1278888, Note_on_c, 0, 60, 94
1, 1278889, Note_on_c, 0, 72, 91
1, 1278890, Note_on_c, 0, 65, 79
1, 1278947, Control_c, 0, 64, 46
1, 1278958, Note_on_c, 0, 56, 94
1, 1278964, Note_on_c, 0, 44, 84
1, 1278965, Control_c, 0, 64, 127
1, 1278974, Note_off_c, 0, 60, 66
1, 1278974, Poly_aftertouch_c, 0, 60, 0
1, 1278987, Note_off_c, 0, 56, 64
1, 1278998, Note_off_c, 0, 44, 66
1, 1279002, Note_off_c, 0, 65, 62
1, 1279002, Poly_aftertouch_c, 0, 65, 0
1, 1279034, Note_off_c, 0, 72, 64
1, 1279045, Note_on_c, 0, 55, 92
1, 1279052, Note_on_c, 0, 43, 88
1, 1279092, Note_on_c, 0, 44, 32
1, 1279093, Note_off_c, 0, 55, 65
1, 1279100, Note_off_c, 0, 43, 64
1, 1279114, Control_c, 0, 64, 101
1, 1279124, Note_off_c, 0, 44, 59
1, 1279133, Control_c, 0, 64, 52
1, 1279146, Poly_aftertouch_c, 0, 45, 0
1, 1279150, Control_c, 0, 64, 0
1, 1279290, Note_on_c, 0, 53, 83
1, 1279293, Note_on_c, 0, 41, 85
1, 1279302, Note_on_c, 0, 72, 66
1, 1279326, Note_off_c, 0, 53, 65
1, 1279336, Note_off_c, 0, 41, 66
1, 1279354, Note_off_c, 0, 72, 61
1, 1279372, Note_on_c, 0, 74, 69
1, 1279427, Note_on_c, 0, 76, 68
1, 1279445, Note_off_c, 0, 74, 61
1, 1279470, Note_off_c, 0, 76, 62
1, 1279494, Note_on_c, 0, 77, 93
1, 1279507, Note_on_c, 0, 65, 93
1, 1279507, Control_c, 0, 64, 42
1, 1279508, Note_on_c, 0, 51, 98
1, 1279513, Note_on_c, 0, 39, 87
1, 1279525, Control_c, 0, 64, 127
1, 1279538, Note_off_c, 0, 51, 68
1, 1279546, Note_off_c, 0, 39, 66
1, 1279556, Note_off_c, 0, 77, 65
1, 1279556, Poly_aftertouch_c, 0, 77, 0
1, 1279558, Note_off_c, 0, 65, 68
1, 1279558, Poly_aftertouch_c, 0, 65, 0
1, 1279702, Poly_aftertouch_c, 0, 39, 0
1, 1279758, Note_on_c, 0, 57, 72
1, 1279761, Note_on_c, 0, 53, 58
1, 1279762, Note_on_c, 0, 51, 62
1, 1279789, Control_c, 0, 64, 107
1, 1279800, Note_off_c, 0, 51, 63
1, 1279806, Control_c, 0, 64, 84
1, 1279810, Note_off_c, 0, 57, 58
1, 1279815, Note_off_c, 0, 53, 60
1, 1279825, Control_c, 0, 64, 60
1, 1279833, Note_on_c, 0, 76, 74
1, 1279835, Note_on_c, 0, 64, 72
1, 1279843, Control_c, 0, 64, 25
1, 1279857, Note_off_c, 0, 76, 72
1, 1279860, Control_c, 0, 64, 0
1, 1279863, Note_off_c, 0, 64, 70
1, 1279925, Note_on_c, 0, 65, 87
1, 1279926, Note_on_c, 0, 60, 80
1, 1279926, Note_on_c, 0, 77, 90
1, 1279937, Note_on_c, 0, 57, 70
1, 1279938, Note_on_c, 0, 53, 74
1, 1279956, Note_off_c, 0, 60, 72
1, 1279956, Poly_aftertouch_c, 0, 60, 0
1, 1279969, Note_off_c, 0, 65, 64
1, 1279969, Poly_aftertouch_c, 0, 65, 0
1, 1279972, Note_off_c, 0, 57, 66
1, 1279979, Note_off_c, 0, 77, 62
1, 1279979, Poly_aftertouch_c, 0, 77, 0
1, 1279990, Note_off_c, 0, 53, 61
1, 1280127, Note_on_c, 0, 49, 99
1, 1280136, Note_on_c, 0, 37, 82
1, 1280142, Control_c, 0, 64, 64
1, 1280161, Note_off_c, 0, 49, 65
1, 1280161, Poly_aftertouch_c, 0, 49, 0
1, 1280161, Control_c, 0, 64, 127
1, 1280163, Note_off_c, 0, 37, 62
1, 1280190, Note_on_c, 0, 68, 83
1, 1280191, Note_on_c, 0, 80, 81
1, 1280218, Note_off_c, 0, 80, 67
1, 1280220, Note_off_c, 0, 68, 70
1, 1280220, Poly_aftertouch_c, 0, 68, 0
1, 1280302, Note_on_c, 0, 77, 95
1, 1280304, Note_on_c, 0, 65, 91
1, 1280306, Note_on_c, 0, 61, 80
1, 1280311, Control_c, 0, 64, 116
1, 1280313, Note_on_c, 0, 53, 74
1, 1280317, Note_on_c, 0, 58, 73
1, 1280330, Control_c, 0, 64, 74
1, 1280344, Note_off_c, 0, 61, 62
1, 1280347, Control_c, 0, 64, 0
1, 1280350, Note_off_c, 0, 77, 66
1, 1280350, Poly_aftertouch_c, 0, 77, 0
1, 1280352, Note_off_c, 0, 53, 66
1, 1280357, Note_off_c, 0, 65, 63
1, 1280357, Poly_aftertouch_c, 0, 65, 0
1, 1280359, Note_off_c, 0, 58, 62
1, 1280545, Note_on_c, 0, 61, 83
1, 1280549, Note_on_c, 0, 66, 92
1, 1280550, Note_on_c, 0, 78, 91
1, 1280550, Note_on_c, 0, 58, 83
1, 1280574, Note_off_c, 0, 61, 71
1, 1280581, Note_off_c, 0, 58, 70
1, 1280591, Note_off_c, 0, 66, 64
1, 1280607, Note_off_c, 0, 78, 63
1, 1280753, Note_on_c, 0, 48, 94
1, 1280756, Note_on_c, 0, 36, 89
1, 1280778, Control_c, 0, 64, 37
1, 1280786, Note_off_c, 0, 36, 66
1, 1280797, Note_off_c, 0, 48, 66
1, 1280797, Control_c, 0, 64, 127
1, 1280809, Note_on_c, 0, 38, 40
1, 1280831, Note_on_c, 0, 82, 85
1, 1280840, Note_on_c, 0, 70, 82
1, 1280858, Note_off_c, 0, 82, 66
1, 1280859, Note_off_c, 0, 38, 46
1, 1280866, Note_off_c, 0, 70, 74
1, 1280866, Poly_aftertouch_c, 0, 70, 0
1, 1280926, Control_c, 0, 64, 113
1, 1280927, Note_on_c, 0, 80, 96
1, 1280930, Note_on_c, 0, 68, 96
1, 1280942, Note_on_c, 0, 63, 86
1, 1280944, Note_on_c, 0, 53, 77
1, 1280946, Control_c, 0, 64, 61
1, 1280948, Note_on_c, 0, 60, 73
1, 1280957, Poly_aftertouch_c, 0, 36, 0
1, 1280963, Control_c, 0, 64, 0
1, 1280987, Note_off_c, 0, 53, 65
1, 1280988, Note_off_c, 0, 60, 65
1, 1280988, Poly_aftertouch_c, 0, 60, 0
1, 1280990, Note_off_c, 0, 63, 59
1, 1280996, Note_off_c, 0, 68, 64
1, 1280996, Poly_aftertouch_c, 0, 68, 0
1, 1281005, Note_off_c, 0, 80, 63
1, 1281021, Control_c, 0, 64, 60
1, 1281042, Control_c, 0, 64, 75
1, 1281059, Control_c, 0, 64, 69
1, 1281078, Control_c, 0, 64, 49
1, 1281096, Control_c, 0, 64, 0
1, 1281186, Note_on_c, 0, 69, 99
1, 1281187, Note_on_c, 0, 81, 101
1, 1281189, Note_on_c, 0, 65, 83
1, 1281189, Note_on_c, 0, 63, 86
1, 1281194, Note_on_c, 0, 60, 77
1, 1281210, Control_c, 0, 64, 56
1, 1281218, Note_off_c, 0, 65, 73
1, 1281218, Poly_aftertouch_c, 0, 65, 0
1, 1281223, Note_off_c, 0, 63, 68
1, 1281225, Note_off_c, 0, 60, 71
1, 1281225, Note_off_c, 0, 69, 66
1, 1281225, Poly_aftertouch_c, 0, 60, 0
1, 1281228, Control_c, 0, 64, 88
1, 1281243, Note_off_c, 0, 81, 65
1, 1281245, Control_c, 0, 64, 118
1, 1281264, Control_c, 0, 64, 127
1, 1281320, Control_c, 0, 64, 103
1, 1281340, Control_c, 0, 64, 69
1, 1281357, Control_c, 0, 64, 0
1, 1281431, Note_on_c, 0, 46, 99
1, 1281435, Note_on_c, 0, 84, 104
1, 1281437, Note_on_c, 0, 72, 106
1, 1281444, Note_on_c, 0, 34, 85
1, 1281461, Note_on_c, 0, 82, 73
1, 1281468, Note_off_c, 0, 34, 70
1, 1281470, Control_c, 0, 64, 75
1, 1281471, Note_off_c, 0, 46, 63
1, 1281478, Note_off_c, 0, 72, 70
1, 1281481, Note_off_c, 0, 84, 71
1, 1281483, Note_off_c, 0, 82, 41
1, 1281488, Control_c, 0, 64, 127
1, 1281664, Poly_aftertouch_c, 0, 34, 0
1, 1281713, Control_c, 0, 64, 106
1, 1281723, Note_on_c, 0, 70, 106
1, 1281728, Note_on_c, 0, 82, 98
1, 1281731, Control_c, 0, 64, 60
1, 1281735, Note_on_c, 0, 53, 81
1, 1281740, Note_on_c, 0, 61, 88
1, 1281750, Control_c, 0, 64, 51
1, 1281753, Note_on_c, 0, 58, 76
1, 1281769, Control_c, 0, 64, 80
1, 1281788, Note_on_c, 0, 80, 37
1, 1281788, Control_c, 0, 64, 117
1, 1281789, Note_off_c, 0, 80, 127
1, 1281800, Note_off_c, 0, 82, 56
1, 1281808, Control_c, 0, 64, 127
1, 1281815, Note_off_c, 0, 53, 60
1, 1281818, Note_off_c, 0, 70, 44
1, 1281818, Poly_aftertouch_c, 0, 70, 0
1, 1281836, Note_off_c, 0, 58, 48
1, 1281840, Note_off_c, 0, 61, 61
1, 1281953, Note_on_c, 0, 71, 80
1, 1281955, Note_on_c, 0, 65, 89
1, 1281962, Note_on_c, 0, 61, 90
1, 1281965, Note_on_c, 0, 58, 88
1, 1281989, Note_off_c, 0, 65, 64
1, 1281989, Poly_aftertouch_c, 0, 65, 0
1, 1281993, Note_on_c, 0, 74, 75
1, 1282005, Note_off_c, 0, 61, 67
1, 1282008, Note_off_c, 0, 71, 59
1, 1282014, Note_off_c, 0, 58, 68
1, 1282045, Note_on_c, 0, 77, 78
1, 1282066, Note_off_c, 0, 74, 62
1, 1282082, Note_on_c, 0, 80, 80
1, 1282099, Note_off_c, 0, 77, 63
1, 1282099, Poly_aftertouch_c, 0, 77, 0
1, 1282106, Note_off_c, 0, 80, 72
1, 1282186, Note_on_c, 0, 83, 77
1, 1282237, Control_c, 0, 64, 116
1, 1282256, Control_c, 0, 64, 61
1, 1282258, Note_off_c, 0, 83, 55
1, 1282258, Poly_aftertouch_c, 0, 83, 0
1, 1282262, Note_on_c, 0, 86, 64
1, 1282274, Control_c, 0, 64, 0
1, 1282278, Note_on_c, 0, 89, 84
1, 1282287, Note_on_c, 0, 50, 94
1, 1282288, Note_on_c, 0, 92, 95
1, 1282291, Note_on_c, 0, 38, 89
1, 1282293, Control_c, 0, 64, 57
1, 1282294, Note_off_c, 0, 86, 65
1, 1282301, Note_on_c, 0, 95, 99
1, 1282313, Control_c, 0, 64, 110
1, 1282320, Note_off_c, 0, 89, 68
1, 1282330, Control_c, 0, 64, 127
1, 1282345, Note_off_c, 0, 92, 67
1, 1282347, Note_off_c, 0, 50, 64
1, 1282347, Poly_aftertouch_c, 0, 50, 0
1, 1282356, Note_off_c, 0, 38, 61
1, 1282360, Note_off_c, 0, 95, 66
1, 1282439, Poly_aftertouch_c, 0, 40, 0
1, 1282439, Poly_aftertouch_c, 0, 45, 0
1, 1282527, Note_on_c, 0, 51, 85
1, 1282534, Note_on_c, 0, 39, 86
1, 1282536, Control_c, 0, 64, 120
1, 1282555, Control_c, 0, 64, 94
1, 1282567, Note_off_c, 0, 51, 58
1, 1282574, Control_c, 0, 64, 69
1, 1282576, Note_off_c, 0, 39, 64
1, 1282577, Control_c, 0, 67, 8
1, 1282592, Control_c, 0, 64, 41
1, 1282612, Control_c, 0, 64, 0
1, 1282628, Note_on_c, 0, 94, 88
1, 1282632, Note_on_c, 0, 82, 86
1, 1282653, Note_off_c, 0, 94, 71
1, 1282657, Note_off_c, 0, 82, 70
1, 1282718, Note_on_c, 0, 53, 75
1, 1282718, Note_on_c, 0, 41, 78
1, 1282720, Note_on_c, 0, 92, 94
1, 1282722, Note_on_c, 0, 80, 93
1, 1282747, Note_off_c, 0, 53, 68
1, 1282751, Note_off_c, 0, 41, 66
1, 1282781, Note_off_c, 0, 80, 65
1, 1282791, Note_off_c, 0, 92, 64
1, 1282835, Control_c, 0, 67, 0
1, 1282932, Note_on_c, 0, 58, 95
1, 1282936, Note_on_c, 0, 46, 90
1, 1282966, Control_c, 0, 64, 99
1, 1282980, Note_off_c, 0, 46, 59
1, 1282982, Note_off_c, 0, 58, 64
1, 1282984, Control_c, 0, 64, 127
1, 1283005, Note_on_c, 0, 78, 83
1, 1283009, Note_on_c, 0, 90, 82
1, 1283036, Note_off_c, 0, 90, 71
1, 1283044, Note_off_c, 0, 78, 60
1, 1283080, Control_c, 0, 64, 109
1, 1283097, Note_on_c, 0, 89, 96
1, 1283097, Control_c, 0, 64, 68
1, 1283101, Note_on_c, 0, 77, 96
1, 1283112, Note_on_c, 0, 56, 96
1, 1283115, Control_c, 0, 64, 62
1, 1283117, Note_on_c, 0, 44, 90
1, 1283135, Control_c, 0, 64, 88
1, 1283152, Note_off_c, 0, 77, 65
1, 1283152, Poly_aftertouch_c, 0, 77, 0
1, 1283153, Control_c, 0, 64, 127
1, 1283156, Note_off_c, 0, 89, 64
1, 1283164, Note_off_c, 0, 44, 59
1, 1283165, Note_off_c, 0, 56, 62
1, 1283303, Control_c, 0, 64, 93
1, 1283316, Note_on_c, 0, 75, 91
1, 1283318, Note_on_c, 0, 54, 102
1, 1283322, Control_c, 0, 64, 75
1, 1283324, Note_on_c, 0, 42, 97
1, 1283328, Note_on_c, 0, 87, 85
1, 1283340, Control_c, 0, 64, 97
1, 1283358, Control_c, 0, 64, 127
1, 1283360, Note_off_c, 0, 42, 63
1, 1283363, Note_off_c, 0, 54, 66
1, 1283367, Note_off_c, 0, 75, 65
1, 1283384, Note_off_c, 0, 87, 65
1, 1283384, Poly_aftertouch_c, 0, 87, 0
1, 1283404, Note_on_c, 0, 44, 16
1, 1283417, Note_off_c, 0, 44, 54
1, 1283455, Note_on_c, 0, 73, 80
1, 1283485, Note_on_c, 0, 79, 45
1, 1283508, Note_off_c, 0, 73, 64
1, 1283508, Note_on_c, 0, 82, 76
1, 1283517, Note_off_c, 0, 79, 57
1, 1283530, Note_on_c, 0, 85, 79
1, 1283548, Note_off_c, 0, 82, 62
1, 1283556, Note_off_c, 0, 85, 70
1, 1283639, Control_c, 0, 64, 117
1, 1283656, Control_c, 0, 64, 65
1, 1283660, Note_on_c, 0, 85, 69
1, 1283662, Note_on_c, 0, 91, 73
1, 1283677, Control_c, 0, 64, 0
1, 1283690, Note_on_c, 0, 52, 96
1, 1283691, Note_on_c, 0, 40, 86
1, 1283698, Note_off_c, 0, 85, 68
1, 1283698, Note_on_c, 0, 97, 102
1, 1283700, Note_on_c, 0, 94, 71
1, 1283714, Control_c, 0, 64, 45
1, 1283715, Note_off_c, 0, 91, 64
1, 1283733, Note_off_c, 0, 94, 71
1, 1283733, Control_c, 0, 64, 99
1, 1283748, Note_off_c, 0, 97, 67
1, 1283750, Note_off_c, 0, 52, 67
1, 1283751, Control_c, 0, 64, 127
1, 1283757, Note_off_c, 0, 40, 60
1, 1283945, Note_on_c, 0, 53, 91
1, 1283950, Note_on_c, 0, 41, 92
1, 1283958, Control_c, 0, 64, 70
1, 1283975, Control_c, 0, 64, 0
1, 1283994, Note_off_c, 0, 53, 65
1, 1284002, Note_off_c, 0, 41, 64
1, 1284025, Note_on_c, 0, 96, 87
1, 1284033, Note_on_c, 0, 84, 82
1, 1284053, Note_off_c, 0, 96, 66
1, 1284059, Note_off_c, 0, 84, 72
1, 1284134, Note_on_c, 0, 94, 97
1, 1284137, Note_on_c, 0, 55, 97
1, 1284137, Note_on_c, 0, 82, 99
1, 1284139, Note_on_c, 0, 43, 92
1, 1284172, Note_off_c, 0, 43, 69
1, 1284175, Note_off_c, 0, 55, 66
1, 1284194, Note_off_c, 0, 82, 62
1, 1284194, Note_off_c, 0, 94, 67
1, 1284375, Note_on_c, 0, 60, 108
1, 1284381, Note_on_c, 0, 48, 98
1, 1284420, Note_off_c, 0, 60, 71
1, 1284420, Poly_aftertouch_c, 0, 60, 0
1, 1284422, Note_off_c, 0, 48, 69
1, 1284425, Control_c, 0, 64, 66
1, 1284443, Control_c, 0, 64, 127
1, 1284476, Note_on_c, 0, 80, 91
1, 1284480, Note_on_c, 0, 92, 91
1, 1284537, Note_off_c, 0, 80, 63
1, 1284537, Note_off_c, 0, 92, 65
1, 1284597, Note_on_c, 0, 91, 101
1, 1284601, Note_on_c, 0, 79, 104
1, 1284603, Note_on_c, 0, 58, 106
1, 1284607, Note_on_c, 0, 46, 101
1, 1284611, Control_c, 0, 64, 65
1, 1284631, Control_c, 0, 64, 0
1, 1284641, Note_off_c, 0, 58, 68
1, 1284646, Note_off_c, 0, 46, 60
1, 1284654, Note_off_c, 0, 79, 65
1, 1284662, Note_off_c, 0, 91, 59
1, 1284666, Control_c, 0, 64, 47
1, 1284687, Control_c, 0, 64, 93
1, 1284705, Control_c, 0, 64, 127
1, 1284718, Poly_aftertouch_c, 0, 45, 0
1, 1284836, Control_c, 0, 64, 120
1, 1284851, Note_on_c, 0, 77, 105
1, 1284854, Note_on_c, 0, 89, 102
1, 1284854, Control_c, 0, 64, 64
1, 1284857, Note_on_c, 0, 56, 98
1, 1284863, Note_on_c, 0, 44, 92
1, 1284873, Control_c, 0, 64, 0
1, 1284892, Control_c, 0, 64, 52
1, 1284895, Note_on_c, 0, 87, 46
1, 1284896, Note_off_c, 0, 77, 67
1, 1284896, Poly_aftertouch_c, 0, 77, 0
1, 1284905, Note_off_c, 0, 44, 54
1, 1284906, Note_off_c, 0, 56, 66
1, 1284909, Note_off_c, 0, 89, 63
1, 1284911, Control_c, 0, 64, 97
1, 1284930, Note_off_c, 0, 87, 39
1, 1284930, Poly_aftertouch_c, 0, 87, 0
1, 1284930, Control_c, 0, 64, 127
1, 1285011, Note_on_c, 0, 78, 78
1, 1285013, Note_on_c, 0, 84, 37
1, 1285059, Note_on_c, 0, 87, 70
1, 1285071, Note_off_c, 0, 78, 63
1, 1285092, Note_on_c, 0, 45, 71
1, 1285100, Note_off_c, 0, 84, 63
1, 1285116, Note_on_c, 0, 90, 74
1, 1285119, Note_on_c, 0, 48, 64
1, 1285124, Note_off_c, 0, 87, 65
1, 1285124, Poly_aftertouch_c, 0, 87, 0
1, 1285136, Note_off_c, 0, 90, 68
1, 1285138, Note_on_c, 0, 51, 60
1, 1285167, Note_on_c, 0, 54, 67
1, 1285191, Control_c, 0, 64, 122
1, 1285205, Note_off_c, 0, 45, 57
1, 1285209, Control_c, 0, 64, 78
1, 1285223, Note_on_c, 0, 90, 69
1, 1285228, Control_c, 0, 64, 0
1, 1285243, Note_off_c, 0, 48, 61
1, 1285244, Note_on_c, 0, 97, 79
1, 1285299, Note_on_c, 0, 60, 104
1, 1285301, Note_on_c, 0, 99, 82
1, 1285303, Control_c, 0, 64, 68
1, 1285310, Note_off_c, 0, 90, 66
1, 1285311, Note_on_c, 0, 102, 106
1, 1285316, Note_on_c, 0, 96, 74
1, 1285318, Note_off_c, 0, 97, 65
1, 1285322, Control_c, 0, 64, 127
1, 1285333, Note_off_c, 0, 51, 64
1, 1285336, Note_off_c, 0, 99, 66
1, 1285345, Note_off_c, 0, 60, 69
1, 1285345, Note_off_c, 0, 54, 63
1, 1285345, Poly_aftertouch_c, 0, 60, 0
1, 1285349, Note_off_c, 0, 96, 68
1, 1285350, Note_off_c, 0, 102, 72
1, 1285428, Poly_aftertouch_c, 0, 100, 127
1, 1285436, Poly_aftertouch_c, 0, 100, 0
1, 1285665, Note_on_c, 0, 99, 83
1, 1285668, Note_on_c, 0, 75, 81
1, 1285669, Note_on_c, 0, 87, 74
1, 1285690, Note_off_c, 0, 99, 72
1, 1285692, Note_off_c, 0, 87, 71
1, 1285692, Poly_aftertouch_c, 0, 87, 0
1, 1285714, Note_off_c, 0, 75, 60
1, 1285746, Note_on_c, 0, 96, 99
1, 1285752, Note_on_c, 0, 72, 90
1, 1285754, Note_on_c, 0, 84, 95
1, 1285791, Note_off_c, 0, 72, 62
1, 1285803, Note_off_c, 0, 96, 67
1, 1285804, Note_off_c, 0, 84, 67
1, 1285971, Note_on_c, 0, 69, 96
1, 1286014, Control_c, 0, 64, 123
1, 1286032, Control_c, 0, 64, 117
1, 1286033, Note_off_c, 0, 69, 62
1, 1286051, Control_c, 0, 64, 127
1, 1286069, Note_on_c, 0, 93, 86
1, 1286076, Note_on_c, 0, 81, 81
1, 1286124, Note_off_c, 0, 93, 65
1, 1286129, Note_off_c, 0, 81, 60
1, 1286185, Note_on_c, 0, 66, 89
1, 1286260, Note_off_c, 0, 66, 63
1, 1286301, Note_on_c, 0, 90, 80
1, 1286303, Note_on_c, 0, 78, 84
1, 1286337, Note_off_c, 0, 90, 57
1, 1286347, Note_off_c, 0, 78, 58
1, 1286391, Note_on_c, 0, 63, 88
1, 1286445, Note_off_c, 0, 63, 66
1, 1286482, Note_on_c, 0, 75, 83
1, 1286488, Note_on_c, 0, 87, 76
1, 1286545, Note_off_c, 0, 87, 60
1, 1286545, Poly_aftertouch_c, 0, 87, 0
1, 1286548, Note_off_c, 0, 75, 62
1, 1286593, Control_c, 0, 64, 116
1, 1286596, Note_on_c, 0, 60, 95
1, 1286612, Control_c, 0, 64, 92
1, 1286631, Control_c, 0, 64, 99
1, 1286651, Control_c, 0, 64, 127
1, 1286661, Note_off_c, 0, 60, 63
1, 1286661, Poly_aftertouch_c, 0, 60, 0
1, 1286685, Note_on_c, 0, 84, 80
1, 1286686, Note_on_c, 0, 72, 81
1, 1286724, Note_off_c, 0, 84, 59
1, 1286731, Note_off_c, 0, 72, 57
1, 1286792, Note_on_c, 0, 57, 92
1, 1286862, Note_off_c, 0, 57, 64
1, 1286890, Note_on_c, 0, 81, 83
1, 1286895, Note_on_c, 0, 69, 80
1, 1286920, Note_off_c, 0, 81, 63
1, 1286929, Note_off_c, 0, 69, 65
1, 1287002, Note_on_c, 0, 54, 91
1, 1287076, Note_off_c, 0, 54, 65
1, 1287084, Note_on_c, 0, 66, 83
1, 1287090, Note_on_c, 0, 78, 74
1, 1287119, Note_off_c, 0, 78, 70
1, 1287128, Note_off_c, 0, 66, 58
1, 1287205, Note_on_c, 0, 51, 96
1, 1287260, Note_off_c, 0, 51, 66
1, 1287288, Note_on_c, 0, 63, 86
1, 1287296, Note_on_c, 0, 75, 81
1, 1287347, Note_off_c, 0, 75, 60
1, 1287349, Note_off_c, 0, 63, 62
1, 1287404, Note_on_c, 0, 48, 101
1, 1287470, Note_off_c, 0, 48, 66
1, 1287497, Note_on_c, 0, 72, 85
1, 1287498, Note_on_c, 0, 60, 82
1, 1287546, Note_off_c, 0, 60, 60
1, 1287546, Poly_aftertouch_c, 0, 60, 0
1, 1287553, Note_off_c, 0, 72, 57
1, 1287609, Note_on_c, 0, 45, 101
1, 1287657, Note_off_c, 0, 45, 66
1, 1287697, Note_on_c, 0, 69, 82
1, 1287699, Note_on_c, 0, 57, 80
1, 1287724, Note_off_c, 0, 69, 66
1, 1287731, Note_off_c, 0, 57, 66
1, 1287753, Control_c, 0, 64, 122
1, 1287773, Control_c, 0, 64, 67
1, 1287790, Control_c, 0, 64, 0
1, 1287828, Note_on_c, 0, 42, 113
1, 1287865, Control_c, 0, 64, 40
1, 1287874, Note_off_c, 0, 42, 66
1, 1287884, Control_c, 0, 64, 89
1, 1287902, Control_c, 0, 64, 127
1, 1287951, Note_on_c, 0, 54, 82
1, 1287962, Note_on_c, 0, 66, 76
1, 1287964, Poly_aftertouch_c, 0, 39, 0
1, 1288005, Note_off_c, 0, 66, 59
1, 1288017, Note_off_c, 0, 54, 56
1, 1288069, Note_on_c, 0, 41, 113
1, 1288070, Control_c, 0, 64, 78
1, 1288090, Control_c, 0, 64, 43
1, 1288108, Control_c, 0, 64, 60
1, 1288115, Note_off_c, 0, 41, 66
1, 1288128, Control_c, 0, 64, 94
1, 1288146, Control_c, 0, 64, 127
1, 1288172, Note_on_c, 0, 65, 85
1, 1288173, Note_on_c, 0, 53, 82
1, 1288202, Poly_aftertouch_c, 0, 37, 127
1, 1288227, Poly_aftertouch_c, 0, 37, 0
1, 1288230, Note_off_c, 0, 53, 59
1, 1288234, Note_off_c, 0, 65, 64
1, 1288234, Poly_aftertouch_c, 0, 65, 0
1, 1288278, Control_c, 0, 64, 119
1, 1288291, Note_on_c, 0, 39, 111
1, 1288295, Control_c, 0, 64, 71
1, 1288314, Control_c, 0, 64, 42
1, 1288333, Control_c, 0, 64, 63
1, 1288347, Note_off_c, 0, 39, 63
1, 1288351, Control_c, 0, 64, 106
1, 1288368, Control_c, 0, 64, 127
1, 1288369, Note_on_c, 0, 51, 84
1, 1288370, Note_on_c, 0, 63, 78
1, 1288404, Note_off_c, 0, 51, 69
1, 1288408, Note_off_c, 0, 63, 61
1, 1288521, Control_c, 0, 64, 81
1, 1288538, Control_c, 0, 64, 0
1, 1288567, Note_on_c, 0, 50, 111
1, 1288574, Note_on_c, 0, 38, 101
1, 1288574, Note_on_c, 0, 62, 107
1, 1288621, Note_off_c, 0, 50, 69
1, 1288621, Poly_aftertouch_c, 0, 50, 0
1, 1288625, Note_off_c, 0, 38, 62
1, 1288632, Control_c, 0, 64, 101
1, 1288651, Control_c, 0, 64, 127
1, 1288653, Note_off_c, 0, 62, 70
1, 1288678, Poly_aftertouch_c, 0, 46, 0
1, 1288919, Note_on_c, 0, 50, 55
1, 1288928, Note_on_c, 0, 53, 52
1, 1288961, Note_on_c, 0, 58, 80
1, 1288962, Note_off_c, 0, 50, 63
1, 1288962, Poly_aftertouch_c, 0, 50, 0
1, 1288976, Note_off_c, 0, 53, 62
1, 1288986, Note_on_c, 0, 82, 94
1, 1288987, Note_on_c, 0, 77, 84
1, 1288987, Note_on_c, 0, 70, 97
1, 1288992, Note_on_c, 0, 65, 98
1, 1289026, Note_off_c, 0, 82, 59
1, 1289026, Control_c, 0, 64, 111
1, 1289029, Note_off_c, 0, 77, 57
1, 1289029, Poly_aftertouch_c, 0, 77, 0
1, 1289032, Note_off_c, 0, 70, 62
1, 1289032, Poly_aftertouch_c, 0, 70, 0
1, 1289035, Note_on_c, 0, 56, 35
1, 1289036, Note_off_c, 0, 65, 62
1, 1289036, Poly_aftertouch_c, 0, 65, 0
1, 1289045, Control_c, 0, 64, 50
1, 1289047, Note_off_c, 0, 56, 43
1, 1289050, Note_off_c, 0, 58, 63
1, 1289063, Control_c, 0, 64, 0
1, 1289284, Note_on_c, 0, 49, 113
1, 1289285, Note_on_c, 0, 61, 110
1, 1289292, Note_on_c, 0, 37, 105
1, 1289313, Note_on_c, 0, 39, 61
1, 1289314, Note_off_c, 0, 39, 127
1, 1289323, Note_off_c, 0, 37, 72
1, 1289323, Control_c, 0, 64, 127
1, 1289326, Note_off_c, 0, 61, 72
1, 1289329, Note_off_c, 0, 49, 64
1, 1289329, Poly_aftertouch_c, 0, 49, 0
1, 1289356, Poly_aftertouch_c, 0, 39, 0
1, 1289650, Note_on_c, 0, 49, 68
1, 1289664, Note_on_c, 0, 53, 60
1, 1289677, Note_on_c, 0, 58, 75
1, 1289689, Note_on_c, 0, 70, 96
1, 1289689, Note_on_c, 0, 82, 90
1, 1289690, Note_off_c, 0, 49, 66
1, 1289690, Poly_aftertouch_c, 0, 49, 0
1, 1289693, Note_on_c, 0, 77, 80
1, 1289712, Note_off_c, 0, 53, 62
1, 1289713, Note_on_c, 0, 65, 98
1, 1289728, Note_off_c, 0, 77, 64
1, 1289728, Poly_aftertouch_c, 0, 77, 0
1, 1289735, Note_off_c, 0, 70, 67
1, 1289735, Poly_aftertouch_c, 0, 70, 0
1, 1289735, Control_c, 0, 64, 107
1, 1289742, Note_off_c, 0, 82, 63
1, 1289753, Note_off_c, 0, 65, 66
1, 1289753, Poly_aftertouch_c, 0, 65, 0
1, 1289753, Control_c, 0, 64, 50
1, 1289763, Poly_aftertouch_c, 0, 54, 0
1, 1289766, Note_on_c, 0, 56, 17
1, 1289767, Note_off_c, 0, 58, 66
1, 1289767, Note_off_c, 0, 56, 127
1, 1289771, Control_c, 0, 64, 0
1, 1290000, Note_on_c, 0, 60, 105
1, 1290001, Note_on_c, 0, 48, 111
1, 1290005, Note_on_c, 0, 36, 98
1, 1290035, Control_c, 0, 64, 74
1, 1290041, Note_off_c, 0, 36, 68
1, 1290047, Note_off_c, 0, 48, 70
1, 1290048, Note_off_c, 0, 60, 67
1, 1290048, Poly_aftertouch_c, 0, 60, 0
1, 1290054, Control_c, 0, 64, 127
1, 1290058, Note_on_c, 0, 39, 32
1, 1290073, Note_on_c, 0, 44, 17
1, 1290074, Note_off_c, 0, 44, 127
1, 1290107, Note_off_c, 0, 39, 50
1, 1290318, Note_on_c, 0, 48, 68
1, 1290358, Note_on_c, 0, 56, 65
1, 1290372, Note_on_c, 0, 60, 78
1, 1290382, Note_off_c, 0, 48, 62
1, 1290383, Note_on_c, 0, 68, 95
1, 1290385, Note_on_c, 0, 80, 87
1, 1290391, Note_on_c, 0, 72, 80
1, 1290396, Note_on_c, 0, 77, 73
1, 1290411, Note_on_c, 0, 65, 102
1, 1290423, Note_off_c, 0, 80, 62
1, 1290424, Note_off_c, 0, 77, 68
1, 1290424, Poly_aftertouch_c, 0, 77, 0
1, 1290426, Control_c, 0, 64, 103
1, 1290429, Note_off_c, 0, 72, 63
1, 1290431, Poly_aftertouch_c, 0, 50, 127
1, 1290432, Note_off_c, 0, 68, 66
1, 1290432, Poly_aftertouch_c, 0, 68, 0
1, 1290446, Control_c, 0, 64, 43
1, 1290451, Note_off_c, 0, 60, 67
1, 1290451, Poly_aftertouch_c, 0, 60, 0
1, 1290453, Note_off_c, 0, 65, 62
1, 1290453, Poly_aftertouch_c, 0, 65, 0
1, 1290456, Poly_aftertouch_c, 0, 50, 0
1, 1290457, Note_off_c, 0, 56, 64
1, 1290465, Control_c, 0, 64, 0
1, 1290673, Note_on_c, 0, 58, 104
1, 1290673, Note_on_c, 0, 46, 113
1, 1290680, Note_on_c, 0, 34, 105
1, 1290687, Control_c, 0, 64, 54
1, 1290707, Control_c, 0, 64, 127
1, 1290708, Note_off_c, 0, 34, 71
1, 1290709, Note_off_c, 0, 46, 70
1, 1290718, Note_off_c, 0, 58, 67
1, 1290805, Poly_aftertouch_c, 0, 39, 127
1, 1290814, Poly_aftertouch_c, 0, 37, 0
1, 1290840, Poly_aftertouch_c, 0, 39, 0
1, 1291039, Note_on_c, 0, 52, 73
1, 1291052, Note_on_c, 0, 55, 59
1, 1291062, Note_on_c, 0, 60, 82
1, 1291068, Note_on_c, 0, 79, 89
1, 1291071, Note_on_c, 0, 67, 93
1, 1291073, Note_on_c, 0, 72, 86
1, 1291075, Note_on_c, 0, 76, 82
1, 1291080, Note_on_c, 0, 64, 87
1, 1291090, Note_on_c, 0, 62, 77
1, 1291104, Note_off_c, 0, 64, 74
1, 1291112, Note_off_c, 0, 79, 66
1, 1291115, Note_off_c, 0, 67, 66
1, 1291119, Control_c, 0, 64, 102
1, 1291122, Note_off_c, 0, 62, 69
1, 1291123, Note_off_c, 0, 76, 62
1, 1291125, Note_off_c, 0, 60, 65
1, 1291125, Note_off_c, 0, 72, 66
1, 1291125, Poly_aftertouch_c, 0, 60, 0
1, 1291129, Note_off_c, 0, 52, 63
1, 1291137, Control_c, 0, 64, 41
1, 1291140, Note_off_c, 0, 55, 64
1, 1291156, Control_c, 0, 64, 0
1, 1291358, Note_on_c, 0, 44, 116
1, 1291362, Note_on_c, 0, 56, 102
1, 1291365, Note_on_c, 0, 32, 99
1, 1291381, Control_c, 0, 64, 13
1, 1291388, Note_on_c, 0, 34, 69
1, 1291396, Note_off_c, 0, 32, 70
1, 1291399, Note_off_c, 0, 44, 70
1, 1291400, Control_c, 0, 64, 116
1, 1291407, Note_off_c, 0, 56, 68
1, 1291419, Control_c, 0, 64, 127
1, 1291426, Note_off_c, 0, 34, 59
1, 1291483, Poly_aftertouch_c, 0, 37, 0
1, 1291723, Note_on_c, 0, 53, 72
1, 1291740, Note_on_c, 0, 56, 66
1, 1291744, Note_on_c, 0, 60, 78
1, 1291750, Note_on_c, 0, 65, 98
1, 1291752, Note_on_c, 0, 84, 93
1, 1291753, Note_on_c, 0, 72, 95
1, 1291753, Note_on_c, 0, 80, 84
1, 1291756, Note_on_c, 0, 77, 82
1, 1291787, Note_off_c, 0, 65, 64
1, 1291787, Poly_aftertouch_c, 0, 65, 0
1, 1291790, Control_c, 0, 64, 88
1, 1291795, Note_off_c, 0, 72, 65
1, 1291802, Note_off_c, 0, 77, 60
1, 1291802, Poly_aftertouch_c, 0, 77, 0
1, 1291803, Note_off_c, 0, 84, 60
1, 1291805, Note_off_c, 0, 53, 64
1, 1291806, Note_off_c, 0, 80, 67
1, 1291810, Note_off_c, 0, 60, 65
1, 1291810, Poly_aftertouch_c, 0, 60, 0
1, 1291810, Control_c, 0, 64, 0
1, 1291823, Note_off_c, 0, 56, 65
1, 1292036, Note_on_c, 0, 46, 111
1, 1292038, Note_on_c, 0, 58, 103
1, 1292044, Note_on_c, 0, 34, 102
1, 1292072, Control_c, 0, 64, 99
1, 1292073, Note_off_c, 0, 34, 72
1, 1292079, Note_off_c, 0, 46, 68
1, 1292080, Note_off_c, 0, 58, 66
1, 1292091, Control_c, 0, 64, 127
1, 1292115, Note_on_c, 0, 37, 20
1, 1292116, Note_off_c, 0, 37, 127
1, 1292387, Note_on_c, 0, 46, 71
1, 1292411, Note_on_c, 0, 49, 62
1, 1292426, Note_on_c, 0, 82, 94
1, 1292428, Note_on_c, 0, 54, 71
1, 1292428, Note_on_c, 0, 73, 93
1, 1292428, Note_on_c, 0, 70, 93
1, 1292431, Note_on_c, 0, 78, 86
1, 1292434, Note_on_c, 0, 61, 98
1, 1292460, Note_off_c, 0, 46, 65
1, 1292475, Note_off_c, 0, 70, 68
1, 1292475, Poly_aftertouch_c, 0, 70, 0
1, 1292476, Note_off_c, 0, 82, 66
1, 1292478, Note_off_c, 0, 61, 68
1, 1292484, Control_c, 0, 64, 97
1, 1292485, Note_off_c, 0, 73, 65
1, 1292486, Note_off_c, 0, 78, 67
1, 1292487, Note_off_c, 0, 54, 63
1, 1292487, Note_off_c, 0, 49, 62
1, 1292487, Poly_aftertouch_c, 0, 49, 0
1, 1292503, Control_c, 0, 64, 35
1, 1292521, Control_c, 0, 64, 0
1, 1292700, Note_on_c, 0, 48, 111
1, 1292704, Note_on_c, 0, 60, 105
1, 1292707, Note_on_c, 0, 36, 99
1, 1292727, Control_c, 0, 64, 39
1, 1292735, Note_off_c, 0, 36, 72
1, 1292745, Note_off_c, 0, 48, 70
1, 1292745, Note_off_c, 0, 60, 70
1, 1292745, Poly_aftertouch_c, 0, 60, 0
1, 1292745, Control_c, 0, 64, 127
1, 1292826, Poly_aftertouch_c, 0, 44, 127
1, 1292835, Note_on_c, 0, 39, 15
1, 1292842, Note_off_c, 0, 39, 32
1, 1292853, Poly_aftertouch_c, 0, 44, 0
1, 1293003, Note_on_c, 0, 48, 55
1, 1293056, Note_on_c, 0, 60, 73
1, 1293061, Note_on_c, 0, 56, 64
1, 1293064, Note_off_c, 0, 48, 46
1, 1293075, Note_on_c, 0, 68, 96
1, 1293078, Note_on_c, 0, 80, 88
1, 1293082, Note_on_c, 0, 72, 81
1, 1293084, Note_on_c, 0, 77, 80
1, 1293085, Control_c, 0, 64, 117
1, 1293089, Note_on_c, 0, 50, 59
1, 1293095, Note_on_c, 0, 65, 98
1, 1293103, Control_c, 0, 64, 59
1, 1293109, Note_off_c, 0, 72, 68
1, 1293112, Note_off_c, 0, 50, 58
1, 1293115, Note_off_c, 0, 77, 69
1, 1293115, Poly_aftertouch_c, 0, 77, 0
1, 1293119, Note_off_c, 0, 80, 61
1, 1293122, Control_c, 0, 64, 0
1, 1293129, Note_off_c, 0, 68, 64
1, 1293129, Note_off_c, 0, 65, 62
1, 1293129, Poly_aftertouch_c, 0, 65, 0
1, 1293129, Poly_aftertouch_c, 0, 68, 0
1, 1293135, Note_off_c, 0, 60, 65
1, 1293135, Note_off_c, 0, 56, 66
1, 1293135, Poly_aftertouch_c, 0, 60, 0
1, 1293379, Note_on_c, 0, 48, 110
1, 1293379, Note_on_c, 0, 60, 105
1, 1293387, Note_on_c, 0, 36, 97
1, 1293415, Note_off_c, 0, 36, 70
1, 1293417, Control_c, 0, 64, 106
1, 1293422, Note_off_c, 0, 60, 68
1, 1293422, Poly_aftertouch_c, 0, 60, 0
1, 1293424, Note_off_c, 0, 48, 70
1, 1293437, Control_c, 0, 64, 127
1, 1293513, Poly_aftertouch_c, 0, 44, 0
1, 1293526, Poly_aftertouch_c, 0, 39, 0
1, 1293545, Poly_aftertouch_c, 0, 38, 0
1, 1293735, Note_on_c, 0, 52, 62
1, 1293744, Note_on_c, 0, 55, 53
1, 1293756, Note_on_c, 0, 60, 73
1, 1293761, Note_on_c, 0, 79, 91
1, 1293761, Note_on_c, 0, 70, 91
1, 1293762, Note_on_c, 0, 67, 96
1, 1293762, Note_on_c, 0, 64, 95
1, 1293765, Note_on_c, 0, 76, 86
1, 1293790, Note_off_c, 0, 64, 67
1, 1293793, Control_c, 0, 64, 91
1, 1293802, Note_off_c, 0, 60, 63
1, 1293802, Poly_aftertouch_c, 0, 60, 0
1, 1293807, Note_off_c, 0, 67, 65
1, 1293810, Note_off_c, 0, 79, 66
1, 1293811, Control_c, 0, 64, 0
1, 1293814, Note_off_c, 0, 52, 63
1, 1293815, Note_off_c, 0, 76, 62
1, 1293815, Note_off_c, 0, 70, 65
1, 1293815, Poly_aftertouch_c, 0, 70, 0
1, 1293825, Note_off_c, 0, 55, 64
1, 1294077, Note_on_c, 0, 41, 65
1, 1294083, Note_on_c, 0, 49, 67
1, 1294101, Note_on_c, 0, 77, 96
1, 1294101, Note_on_c, 0, 65, 101
1, 1294102, Note_on_c, 0, 68, 91
1, 1294104, Note_on_c, 0, 72, 87
1, 1294105, Note_on_c, 0, 43, 59
1, 1294110, Note_on_c, 0, 56, 100
1, 1294133, Control_c, 0, 64, 47
1, 1294135, Note_off_c, 0, 41, 65
1, 1294146, Note_off_c, 0, 43, 59
1, 1294150, Control_c, 0, 64, 127
1, 1294154, Note_off_c, 0, 65, 64
1, 1294154, Poly_aftertouch_c, 0, 65, 0
1, 1294160, Note_off_c, 0, 49, 62
1, 1294160, Note_off_c, 0, 56, 64
1, 1294160, Poly_aftertouch_c, 0, 49, 0
1, 1294161, Note_off_c, 0, 72, 66
1, 1294169, Note_off_c, 0, 68, 62
1, 1294169, Poly_aftertouch_c, 0, 68, 0
1, 1294179, Note_off_c, 0, 77, 59
1, 1294179, Poly_aftertouch_c, 0, 77, 0
1, 1294243, Poly_aftertouch_c, 0, 44, 0
1, 1294243, Control_c, 0, 64, 109
1, 1294260, Control_c, 0, 64, 58
1, 1294279, Control_c, 0, 64, 0
1, 1294497, Note_on_c, 0, 70, 85
1, 1294498, Note_on_c, 0, 65, 88
1, 1294501, Note_on_c, 0, 73, 80
1, 1294502, Note_on_c, 0, 77, 83
1, 1294503, Note_on_c, 0, 53, 86
1, 1294534, Note_on_c, 0, 46, 43
1, 1294540, Note_on_c, 0, 45, 60
1, 1294545, Note_off_c, 0, 65, 63
1, 1294545, Poly_aftertouch_c, 0, 65, 0
1, 1294549, Note_off_c, 0, 73, 59
1, 1294553, Note_off_c, 0, 53, 60
1, 1294554, Note_off_c, 0, 77, 59
1, 1294554, Poly_aftertouch_c, 0, 77, 0
1, 1294562, Note_off_c, 0, 70, 62
1, 1294562, Poly_aftertouch_c, 0, 70, 0
1, 1294572, Note_off_c, 0, 45, 56
1, 1294574, Note_off_c, 0, 46, 47
1, 1294732, Note_on_c, 0, 68, 88
1, 1294733, Note_on_c, 0, 65, 97
1, 1294733, Note_on_c, 0, 77, 89
1, 1294735, Note_on_c, 0, 72, 76
1, 1294741, Note_on_c, 0, 53, 105
1, 1294750, Note_on_c, 0, 41, 92
1, 1294754, Note_off_c, 0, 77, 72
1, 1294754, Poly_aftertouch_c, 0, 77, 0
1, 1294762, Note_off_c, 0, 72, 70
1, 1294765, Control_c, 0, 64, 104
1, 1294780, Note_off_c, 0, 53, 68
1, 1294783, Note_off_c, 0, 68, 68
1, 1294783, Poly_aftertouch_c, 0, 68, 0
1, 1294783, Control_c, 0, 64, 127
1, 1294788, Note_off_c, 0, 65, 62
1, 1294788, Poly_aftertouch_c, 0, 65, 0
1, 1294791, Note_on_c, 0, 44, 45
1, 1294802, Note_off_c, 0, 41, 66
1, 1294832, Note_off_c, 0, 44, 57
1, 1294878, Control_c, 0, 64, 123
1, 1294882, Poly_aftertouch_c, 0, 40, 127
1, 1294888, Poly_aftertouch_c, 0, 40, 0
1, 1294897, Control_c, 0, 64, 82
1, 1294914, Control_c, 0, 64, 25
1, 1294935, Control_c, 0, 64, 0
1, 1295098, Note_on_c, 0, 53, 96
1, 1295101, Note_on_c, 0, 65, 89
1, 1295102, Note_on_c, 0, 58, 85
1, 1295103, Note_on_c, 0, 61, 82
1, 1295108, Note_on_c, 0, 41, 103
1, 1295112, Note_on_c, 0, 34, 97
1, 1295144, Note_off_c, 0, 34, 66
1, 1295147, Note_off_c, 0, 41, 66
1, 1295153, Note_off_c, 0, 53, 60
1, 1295177, Note_off_c, 0, 58, 55
1, 1295179, Note_off_c, 0, 61, 56
1, 1295186, Note_off_c, 0, 65, 61
1, 1295186, Poly_aftertouch_c, 0, 65, 0
1, 1295375, Note_on_c, 0, 53, 108
1, 1295378, Note_on_c, 0, 65, 97
1, 1295379, Note_on_c, 0, 60, 88
1, 1295381, Note_on_c, 0, 56, 93
1, 1295383, Note_on_c, 0, 41, 113
1, 1295389, Note_on_c, 0, 29, 103
1, 1295419, Control_c, 0, 64, 127
1, 1295428, Note_off_c, 0, 41, 66
1, 1295441, Note_off_c, 0, 29, 63
1, 1295441, Note_on_c, 0, 61, 15
1, 1295441, Note_on_c, 0, 31, 28
1, 1295441, Note_on_c, 0, 33, 32
1, 1295441, Poly_aftertouch_c, 0, 31, 0
1, 1295441, Poly_aftertouch_c, 0, 29, 0
1, 1295442, Note_off_c, 0, 31, 127
1, 1295442, Note_off_c, 0, 33, 127
1, 1295483, Note_off_c, 0, 53, 48
1, 1295492, Note_off_c, 0, 60, 60
1, 1295492, Poly_aftertouch_c, 0, 60, 0
1, 1295495, Poly_aftertouch_c, 0, 31, 0
1, 1295498, Note_off_c, 0, 61, 52
1, 1295498, Poly_aftertouch_c, 0, 33, 0
1, 1295514, Note_off_c, 0, 56, 58
1, 1295520, Note_off_c, 0, 65, 61
1, 1295520, Poly_aftertouch_c, 0, 65, 0
1, 1295550, Control_c, 0, 64, 91
1, 1295571, Control_c, 0, 64, 40
1, 1295587, Control_c, 0, 64, 0
1, 1296078, Note_on_c, 0, 53, 102
1, 1296080, Note_on_c, 0, 65, 95
1, 1296083, Note_on_c, 0, 60, 82
1, 1296085, Note_on_c, 0, 56, 91
1, 1296091, Note_on_c, 0, 41, 111
1, 1296096, Note_on_c, 0, 29, 105
1, 1296120, Note_on_c, 0, 32, 73
1, 1296129, Control_c, 0, 64, 127
1, 1296138, Note_on_c, 0, 31, 43
1, 1296139, Note_off_c, 0, 31, 127
1, 1296155, Note_off_c, 0, 41, 65
1, 1296155, Note_off_c, 0, 32, 59
1, 1296162, Note_on_c, 0, 34, 10
1, 1296163, Note_off_c, 0, 34, 127
1, 1296183, Note_off_c, 0, 29, 63
1, 1296183, Poly_aftertouch_c, 0, 29, 0
1, 1296184, Note_off_c, 0, 53, 60
1, 1296191, Note_off_c, 0, 56, 68
1, 1296195, Note_off_c, 0, 60, 64
1, 1296195, Poly_aftertouch_c, 0, 60, 0
1, 1296218, Poly_aftertouch_c, 0, 34, 127
1, 1296220, Note_off_c, 0, 65, 61
1, 1296220, Poly_aftertouch_c, 0, 65, 0
1, 1296223, Poly_aftertouch_c, 0, 34, 0
1, 1296254, Poly_aftertouch_c, 0, 37, 0
1, 1296260, Control_c, 0, 64, 107
1, 1296279, Control_c, 0, 64, 67
1, 1296299, Control_c, 0, 64, 0
1, 1301085, Control_c, 0, 64, 8
1, 1301122, Control_c, 0, 64, 14
1, 1301159, Control_c, 0, 64, 20
1, 1301272, Control_c, 0, 64, 24
1, 1301309, Control_c, 0, 64, 30
1, 1301329, Control_c, 0, 64, 34
1, 1301366, Control_c, 0, 64, 40
1, 1301610, Control_c, 0, 64, 42
1, 1301628, Control_c, 0, 64, 45
1, 1301645, Control_c, 0, 64, 47
1, 1301777, Control_c, 0, 64, 45
1, 1301796, Control_c, 0, 64, 43
1, 1301833, Control_c, 0, 64, 40
1, 1302076, Control_c, 0, 64, 34
1, 1302095, Control_c, 0, 64, 26
1, 1302115, Control_c, 0, 64, 9
1, 1302132, Control_c, 0, 64, 0
1, 1303891, Control_c, 0, 67, 8
1, 1304676, Control_c, 0, 64, 8
1, 1304862, Control_c, 0, 67, 13
1, 1304900, Control_c, 0, 67, 20
1, 1304937, Control_c, 0, 67, 26
1, 1305049, Control_c, 0, 67, 22
1, 1305106, Control_c, 0, 67, 16
1, 1305124, Control_c, 0, 67, 12
1, 1305330, Control_c, 0, 67, 0
1, 1305386, Control_c, 0, 64, 13
1, 1305592, Control_c, 0, 64, 19
1, 1305610, Control_c, 0, 64, 30
1, 1305629, Control_c, 0, 64, 48
1, 1305648, Control_c, 0, 64, 65
1, 1305666, Control_c, 0, 64, 78
1, 1305685, Control_c, 0, 64, 90
1, 1305704, Control_c, 0, 64, 103
1, 1305723, Control_c, 0, 64, 116
1, 1305741, Control_c, 0, 64, 127
1, 1306433, Control_c, 0, 67, 10
1, 1306452, Control_c, 0, 67, 14
1, 1306469, Control_c, 0, 67, 21
1, 1306489, Control_c, 0, 67, 36
1, 1306507, Control_c, 0, 67, 60
1, 1306527, Control_c, 0, 67, 92
1, 1306545, Control_c, 0, 67, 127
1, 1308662, Note_on_c, 0, 73, 42
1, 1308680, Note_on_c, 0, 77, 40
1, 1309142, Note_off_c, 0, 73, 34
1, 1309774, Note_on_c, 0, 73, 44
1, 1309797, Note_on_c, 0, 70, 41
1, 1309879, Poly_aftertouch_c, 0, 77, 24
1, 1309954, Note_off_c, 0, 77, 34
1, 1309954, Poly_aftertouch_c, 0, 77, 0
1, 1310409, Note_off_c, 0, 70, 30
1, 1310409, Poly_aftertouch_c, 0, 70, 0
1, 1310631, Note_off_c, 0, 73, 44
1, 1310911, Note_on_c, 0, 70, 43
1, 1310924, Note_on_c, 0, 65, 35
1, 1311292, Note_off_c, 0, 70, 37
1, 1311292, Poly_aftertouch_c, 0, 70, 0
1, 1311608, Note_off_c, 0, 65, 41
1, 1311608, Poly_aftertouch_c, 0, 65, 0
1, 1312068, Note_on_c, 0, 61, 36
1, 1312070, Note_on_c, 0, 65, 35
1, 1312801, Note_off_c, 0, 61, 35
1, 1312884, Note_off_c, 0, 65, 38
1, 1312884, Poly_aftertouch_c, 0, 65, 0
1, 1313369, Note_on_c, 0, 61, 36
1, 1313376, Note_on_c, 0, 65, 39
1, 1313380, Note_on_c, 0, 58, 40
1, 1313445, Control_c, 0, 64, 117
1, 1313463, Control_c, 0, 64, 106
1, 1313483, Control_c, 0, 64, 92
1, 1313501, Control_c, 0, 64, 75
1, 1313519, Control_c, 0, 64, 57
1, 1313539, Control_c, 0, 64, 32
1, 1313557, Control_c, 0, 64, 0
1, 1314011, Note_on_c, 0, 41, 61
1, 1314070, Note_off_c, 0, 41, 62
1, 1314213, Note_on_c, 0, 41, 65
1, 1314252, Note_off_c, 0, 41, 63
1, 1314281, Note_off_c, 0, 61, 43
1, 1314348, Note_off_c, 0, 65, 56
1, 1314348, Poly_aftertouch_c, 0, 65, 0
1, 1314372, Note_on_c, 0, 41, 65
1, 1314442, Note_off_c, 0, 41, 60
1, 1314634, Note_on_c, 0, 65, 48
1, 1314639, Note_on_c, 0, 60, 45
1, 1314639, Note_on_c, 0, 46, 58
1, 1314645, Note_on_c, 0, 57, 46
1, 1314650, Note_on_c, 0, 34, 49
1, 1314706, Note_off_c, 0, 58, 54
1, 1315827, Note_off_c, 0, 46, 61
1, 1315830, Note_off_c, 0, 34, 60
1, 1316062, Control_c, 0, 64, 20
1, 1316082, Control_c, 0, 64, 38
1, 1316100, Control_c, 0, 64, 56
1, 1316120, Control_c, 0, 64, 70
1, 1316137, Control_c, 0, 64, 82
1, 1316156, Control_c, 0, 64, 97
1, 1316167, Note_off_c, 0, 60, 62
1, 1316167, Poly_aftertouch_c, 0, 60, 0
1, 1316174, Control_c, 0, 64, 113
1, 1316194, Control_c, 0, 64, 125
1, 1316223, Note_off_c, 0, 57, 55
1, 1316290, Note_off_c, 0, 65, 56
1, 1316290, Poly_aftertouch_c, 0, 65, 0
1, 1316622, Note_on_c, 0, 65, 42
1, 1316629, Note_on_c, 0, 63, 39
1, 1316632, Note_on_c, 0, 41, 50
1, 1316633, Note_on_c, 0, 60, 38
1, 1316642, Control_c, 0, 64, 114
1, 1316661, Control_c, 0, 64, 102
1, 1316679, Control_c, 0, 64, 88
1, 1316684, Note_off_c, 0, 41, 56
1, 1316699, Control_c, 0, 64, 75
1, 1316718, Control_c, 0, 64, 66
1, 1316736, Control_c, 0, 64, 60
1, 1316755, Control_c, 0, 64, 58
1, 1316793, Control_c, 0, 64, 54
1, 1316810, Control_c, 0, 64, 51
1, 1316821, Note_on_c, 0, 41, 56
1, 1316829, Control_c, 0, 64, 48
1, 1316867, Control_c, 0, 64, 45
1, 1316877, Note_off_c, 0, 41, 60
1, 1316941, Control_c, 0, 64, 42
1, 1316984, Note_off_c, 0, 60, 55
1, 1316984, Poly_aftertouch_c, 0, 60, 0
1, 1317013, Note_on_c, 0, 41, 54
1, 1317016, Note_off_c, 0, 65, 55
1, 1317016, Poly_aftertouch_c, 0, 65, 0
1, 1317054, Control_c, 0, 64, 40
1, 1317094, Note_off_c, 0, 41, 55
1, 1317305, Note_on_c, 0, 65, 29
1, 1317306, Note_on_c, 0, 61, 34
1, 1317320, Note_on_c, 0, 58, 30
1, 1317327, Note_on_c, 0, 46, 38
1, 1317344, Note_on_c, 0, 34, 33
1, 1317406, Note_off_c, 0, 63, 37
1, 1317996, Note_off_c, 0, 34, 41
1, 1318027, Note_off_c, 0, 65, 52
1, 1318027, Poly_aftertouch_c, 0, 65, 0
1, 1318032, Note_off_c, 0, 46, 35
1, 1318038, Note_off_c, 0, 58, 43
1, 1318048, Note_off_c, 0, 61, 44
1, 1319160, Note_on_c, 0, 77, 43
1, 1319163, Note_on_c, 0, 73, 37
1, 1319205, Control_c, 0, 64, 43
1, 1319242, Control_c, 0, 64, 45
1, 1319280, Control_c, 0, 64, 49
1, 1319297, Control_c, 0, 64, 51
1, 1319317, Control_c, 0, 64, 55
1, 1319335, Control_c, 0, 64, 58
1, 1319353, Control_c, 0, 64, 62
1, 1319372, Control_c, 0, 64, 64
1, 1319392, Control_c, 0, 64, 66
1, 1319410, Control_c, 0, 64, 68
1, 1319448, Control_c, 0, 64, 71
1, 1319465, Control_c, 0, 64, 74
1, 1319485, Control_c, 0, 64, 76
1, 1319503, Control_c, 0, 64, 79
1, 1319521, Control_c, 0, 64, 81
1, 1319541, Control_c, 0, 64, 83
1, 1319558, Control_c, 0, 64, 86
1, 1319596, Control_c, 0, 64, 93
1, 1319616, Control_c, 0, 64, 97
1, 1319634, Control_c, 0, 64, 101
1, 1319671, Control_c, 0, 64, 109
1, 1319709, Control_c, 0, 64, 116
1, 1319746, Control_c, 0, 64, 122
1, 1319783, Control_c, 0, 64, 127
1, 1319837, Note_off_c, 0, 73, 43
1, 1320281, Note_on_c, 0, 73, 40
1, 1320296, Note_on_c, 0, 70, 38
1, 1320550, Note_off_c, 0, 77, 32
1, 1320550, Poly_aftertouch_c, 0, 77, 0
1, 1320853, Note_off_c, 0, 70, 34
1, 1320853, Poly_aftertouch_c, 0, 70, 0
1, 1321284, Note_off_c, 0, 73, 29
1, 1321469, Note_on_c, 0, 70, 42
1, 1321477, Note_on_c, 0, 65, 32
1, 1321920, Note_off_c, 0, 70, 34
1, 1321920, Poly_aftertouch_c, 0, 70, 0
1, 1322272, Note_off_c, 0, 65, 41
1, 1322272, Poly_aftertouch_c, 0, 65, 0
1, 1322588, Control_c, 0, 67, 123
1, 1322710, Note_on_c, 0, 65, 37
1, 1322731, Note_on_c, 0, 61, 34
1, 1323241, Note_off_c, 0, 61, 37
1, 1323971, Note_on_c, 0, 61, 41
1, 1323976, Note_on_c, 0, 63, 38
1, 1323982, Note_on_c, 0, 58, 38
1, 1324066, Control_c, 0, 64, 115
1, 1324085, Control_c, 0, 64, 95
1, 1324104, Control_c, 0, 64, 70
1, 1324121, Control_c, 0, 64, 41
1, 1324141, Control_c, 0, 64, 0
1, 1324150, Note_off_c, 0, 65, 34
1, 1324150, Poly_aftertouch_c, 0, 65, 0
1, 1324629, Note_on_c, 0, 39, 65
1, 1324672, Note_off_c, 0, 39, 60
1, 1324810, Note_on_c, 0, 39, 63
1, 1324862, Note_off_c, 0, 39, 61
1, 1324960, Note_off_c, 0, 63, 51
1, 1324964, Note_off_c, 0, 58, 51
1, 1324984, Note_on_c, 0, 39, 63
1, 1325041, Note_off_c, 0, 39, 63
1, 1325240, Note_on_c, 0, 63, 53
1, 1325247, Note_on_c, 0, 58, 45
1, 1325250, Note_on_c, 0, 55, 40
1, 1325257, Note_on_c, 0, 44, 60
1, 1325271, Note_on_c, 0, 32, 53
1, 1325313, Note_off_c, 0, 61, 47
1, 1326477, Note_off_c, 0, 44, 61
1, 1326477, Note_off_c, 0, 32, 60
1, 1326739, Control_c, 0, 64, 16
1, 1326758, Control_c, 0, 64, 30
1, 1326779, Control_c, 0, 64, 43
1, 1326796, Control_c, 0, 64, 54
1, 1326813, Control_c, 0, 64, 64
1, 1326833, Control_c, 0, 64, 70
1, 1326851, Control_c, 0, 64, 76
1, 1326870, Control_c, 0, 64, 80
1, 1326889, Control_c, 0, 64, 84
1, 1326899, Note_off_c, 0, 58, 34
1, 1326908, Control_c, 0, 64, 88
1, 1326931, Note_off_c, 0, 63, 38
1, 1326944, Control_c, 0, 64, 94
1, 1327057, Control_c, 0, 64, 98
1, 1327172, Note_on_c, 0, 39, 48
1, 1327176, Note_on_c, 0, 63, 42
1, 1327188, Control_c, 0, 64, 94
1, 1327192, Note_on_c, 0, 58, 37
1, 1327198, Note_on_c, 0, 61, 37
1, 1327225, Note_off_c, 0, 39, 59
1, 1327225, Control_c, 0, 64, 87
1, 1327245, Control_c, 0, 64, 80
1, 1327263, Control_c, 0, 64, 75
1, 1327282, Control_c, 0, 64, 70
1, 1327301, Control_c, 0, 64, 65
1, 1327319, Control_c, 0, 64, 59
1, 1327339, Control_c, 0, 64, 53
1, 1327356, Control_c, 0, 64, 47
1, 1327376, Control_c, 0, 64, 43
1, 1327384, Note_off_c, 0, 55, 37
1, 1327384, Note_on_c, 0, 39, 51
1, 1327431, Control_c, 0, 64, 36
1, 1327436, Note_off_c, 0, 39, 61
1, 1327455, Note_off_c, 0, 58, 47
1, 1327469, Control_c, 0, 64, 29
1, 1327587, Note_off_c, 0, 63, 55
1, 1327593, Note_on_c, 0, 39, 51
1, 1327599, Control_c, 0, 64, 25
1, 1327666, Note_off_c, 0, 39, 57
1, 1327895, Note_on_c, 0, 63, 45
1, 1327901, Note_on_c, 0, 60, 32
1, 1327902, Note_on_c, 0, 56, 32
1, 1327938, Note_on_c, 0, 44, 19
1, 1327942, Note_on_c, 0, 32, 24
1, 1327992, Note_off_c, 0, 61, 38
1, 1328347, Control_c, 0, 64, 33
1, 1328366, Control_c, 0, 64, 38
1, 1328386, Control_c, 0, 64, 45
1, 1328404, Control_c, 0, 64, 51
1, 1328422, Control_c, 0, 64, 59
1, 1328441, Control_c, 0, 64, 65
1, 1328460, Control_c, 0, 64, 69
1, 1328479, Control_c, 0, 64, 73
1, 1328497, Control_c, 0, 64, 76
1, 1328516, Control_c, 0, 64, 79
1, 1328535, Control_c, 0, 64, 83
1, 1328553, Control_c, 0, 64, 87
1, 1328563, Note_off_c, 0, 32, 41
1, 1328572, Control_c, 0, 64, 93
1, 1328591, Control_c, 0, 64, 98
1, 1328610, Control_c, 0, 64, 103
1, 1328647, Control_c, 0, 64, 108
1, 1328680, Note_off_c, 0, 60, 33
1, 1328680, Poly_aftertouch_c, 0, 60, 0
1, 1328698, Note_off_c, 0, 44, 39
1, 1328738, Note_off_c, 0, 56, 34
1, 1328874, Note_off_c, 0, 63, 34
1, 1328928, Control_c, 0, 64, 104
1, 1329002, Control_c, 0, 64, 100
1, 1329058, Control_c, 0, 64, 96
1, 1329077, Control_c, 0, 64, 92
1, 1329095, Control_c, 0, 64, 88
1, 1329133, Control_c, 0, 64, 85
1, 1329134, Control_c, 0, 67, 119
1, 1329170, Control_c, 0, 64, 83
1, 1329189, Control_c, 0, 64, 78
1, 1329210, Control_c, 0, 64, 73
1, 1329226, Control_c, 0, 64, 69
1, 1329246, Control_c, 0, 64, 65
1, 1329265, Control_c, 0, 64, 62
1, 1329283, Control_c, 0, 64, 59
1, 1329301, Control_c, 0, 64, 54
1, 1329320, Control_c, 0, 64, 46
1, 1329339, Control_c, 0, 64, 35
1, 1329357, Control_c, 0, 64, 21
1, 1329395, Control_c, 0, 64, 0
1, 1329413, Control_c, 0, 67, 115
1, 1329610, Note_on_c, 0, 63, 36
1, 1329633, Note_on_c, 0, 59, 25
1, 1329636, Control_c, 0, 67, 111
1, 1329641, Note_on_c, 0, 56, 33
1, 1329732, Control_c, 0, 67, 106
1, 1329788, Control_c, 0, 67, 102
1, 1329825, Control_c, 0, 67, 98
1, 1329882, Control_c, 0, 67, 93
1, 1329920, Control_c, 0, 64, 11
1, 1329922, Control_c, 0, 67, 88
1, 1329937, Control_c, 0, 64, 15
1, 1329956, Control_c, 0, 67, 81
1, 1329974, Control_c, 0, 64, 19
1, 1329993, Control_c, 0, 67, 74
1, 1330012, Control_c, 0, 67, 70
1, 1330030, Control_c, 0, 64, 25
1, 1330032, Control_c, 0, 67, 66
1, 1330049, Control_c, 0, 67, 62
1, 1330068, Control_c, 0, 64, 32
1, 1330069, Control_c, 0, 67, 57
1, 1330087, Control_c, 0, 67, 53
1, 1330105, Control_c, 0, 64, 39
1, 1330106, Control_c, 0, 67, 49
1, 1330125, Control_c, 0, 64, 43
1, 1330143, Control_c, 0, 64, 48
1, 1330144, Control_c, 0, 67, 42
1, 1330161, Control_c, 0, 64, 51
1, 1330162, Control_c, 0, 67, 38
1, 1330180, Note_on_c, 0, 65, 44
1, 1330180, Control_c, 0, 64, 55
1, 1330180, Control_c, 0, 67, 34
1, 1330199, Control_c, 0, 64, 58
1, 1330200, Control_c, 0, 67, 29
1, 1330218, Control_c, 0, 64, 61
1, 1330219, Control_c, 0, 67, 25
1, 1330236, Control_c, 0, 64, 64
1, 1330237, Control_c, 0, 67, 19
1, 1330255, Control_c, 0, 64, 66
1, 1330256, Control_c, 0, 67, 13
1, 1330274, Control_c, 0, 64, 69
1, 1330292, Control_c, 0, 64, 71
1, 1330311, Control_c, 0, 64, 74
1, 1330331, Control_c, 0, 64, 78
1, 1330349, Control_c, 0, 64, 82
1, 1330350, Control_c, 0, 67, 0
1, 1330367, Control_c, 0, 64, 89
1, 1330387, Control_c, 0, 64, 98
1, 1330404, Control_c, 0, 64, 109
1, 1330414, Note_off_c, 0, 63, 31
1, 1330422, Control_c, 0, 64, 118
1, 1330441, Control_c, 0, 64, 125
1, 1330489, Note_off_c, 0, 59, 40
1, 1330579, Note_off_c, 0, 65, 53
1, 1330579, Poly_aftertouch_c, 0, 65, 0
1, 1330583, Note_off_c, 0, 56, 38
1, 1330749, Note_on_c, 0, 66, 50
1, 1330779, Note_on_c, 0, 58, 36
1, 1330798, Note_on_c, 0, 63, 34
1, 1330812, Note_on_c, 0, 51, 34
1, 1330928, Control_c, 0, 64, 119
1, 1330948, Control_c, 0, 64, 113
1, 1330965, Control_c, 0, 64, 105
1, 1330984, Control_c, 0, 64, 95
1, 1331003, Control_c, 0, 64, 82
1, 1331022, Control_c, 0, 64, 67
1, 1331039, Control_c, 0, 64, 54
1, 1331059, Control_c, 0, 64, 38
1, 1331077, Control_c, 0, 64, 25
1, 1331114, Control_c, 0, 64, 31
1, 1331134, Control_c, 0, 64, 36
1, 1331152, Control_c, 0, 64, 43
1, 1331171, Control_c, 0, 64, 55
1, 1331189, Control_c, 0, 64, 68
1, 1331209, Control_c, 0, 64, 78
1, 1331229, Control_c, 0, 64, 87
1, 1331245, Control_c, 0, 64, 96
1, 1331265, Control_c, 0, 64, 107
1, 1331283, Control_c, 0, 64, 118
1, 1331302, Control_c, 0, 64, 127
1, 1331401, Note_off_c, 0, 63, 42
1, 1331407, Note_off_c, 0, 66, 61
1, 1331546, Note_off_c, 0, 58, 33
1, 1331629, Note_off_c, 0, 51, 38
1, 1331853, Note_on_c, 0, 70, 61
1, 1331885, Note_on_c, 0, 65, 43
1, 1331891, Note_on_c, 0, 58, 40
1, 1331901, Note_on_c, 0, 49, 39
1, 1332013, Control_c, 0, 64, 112
1, 1332032, Control_c, 0, 64, 97
1, 1332050, Control_c, 0, 64, 79
1, 1332069, Control_c, 0, 64, 61
1, 1332087, Control_c, 0, 64, 49
1, 1332106, Control_c, 0, 64, 41
1, 1332144, Control_c, 0, 64, 51
1, 1332162, Control_c, 0, 64, 58
1, 1332180, Control_c, 0, 64, 68
1, 1332199, Control_c, 0, 64, 78
1, 1332219, Control_c, 0, 64, 88
1, 1332237, Control_c, 0, 64, 102
1, 1332255, Control_c, 0, 64, 116
1, 1332274, Control_c, 0, 64, 127
1, 1332518, Note_off_c, 0, 65, 38
1, 1332518, Poly_aftertouch_c, 0, 65, 0
1, 1332701, Poly_aftertouch_c, 0, 49, 22
1, 1332703, Note_off_c, 0, 58, 38
1, 1332727, Note_off_c, 0, 70, 52
1, 1332727, Poly_aftertouch_c, 0, 70, 0
1, 1332794, Note_off_c, 0, 49, 19
1, 1332794, Poly_aftertouch_c, 0, 49, 0
1, 1332967, Note_on_c, 0, 75, 69
1, 1332994, Note_on_c, 0, 66, 48
1, 1333009, Note_on_c, 0, 48, 42
1, 1333016, Note_on_c, 0, 58, 41
1, 1333098, Control_c, 0, 64, 115
1, 1333116, Control_c, 0, 64, 102
1, 1333135, Control_c, 0, 64, 90
1, 1333153, Control_c, 0, 64, 77
1, 1333172, Control_c, 0, 64, 62
1, 1333191, Control_c, 0, 64, 50
1, 1333209, Control_c, 0, 64, 41
1, 1333227, Control_c, 0, 64, 43
1, 1333247, Control_c, 0, 64, 52
1, 1333264, Control_c, 0, 64, 61
1, 1333284, Control_c, 0, 64, 71
1, 1333302, Control_c, 0, 64, 83
1, 1333321, Control_c, 0, 64, 96
1, 1333340, Control_c, 0, 64, 113
1, 1333358, Control_c, 0, 64, 127
1, 1333725, Note_off_c, 0, 48, 32
1, 1333772, Note_off_c, 0, 75, 56
1, 1333773, Note_off_c, 0, 66, 37
1, 1333970, Note_off_c, 0, 58, 40
1, 1334280, Note_on_c, 0, 75, 64
1, 1334287, Note_on_c, 0, 77, 65
1, 1334303, Note_on_c, 0, 65, 53
1, 1334329, Note_on_c, 0, 57, 46
1, 1334331, Note_on_c, 0, 47, 44
1, 1334406, Control_c, 0, 64, 123
1, 1334424, Control_c, 0, 64, 114
1, 1334444, Control_c, 0, 64, 105
1, 1334461, Control_c, 0, 64, 96
1, 1334480, Control_c, 0, 64, 85
1, 1334500, Control_c, 0, 64, 72
1, 1334518, Control_c, 0, 64, 58
1, 1334537, Control_c, 0, 64, 41
1, 1334555, Control_c, 0, 64, 0
1, 1334630, Control_c, 0, 64, 14
1, 1334649, Control_c, 0, 64, 28
1, 1334668, Control_c, 0, 64, 45
1, 1334686, Control_c, 0, 64, 62
1, 1334705, Control_c, 0, 64, 75
1, 1334725, Control_c, 0, 64, 85
1, 1334742, Control_c, 0, 64, 92
1, 1334762, Control_c, 0, 64, 100
1, 1334781, Control_c, 0, 64, 109
1, 1334798, Control_c, 0, 64, 116
1, 1334817, Control_c, 0, 64, 121
1, 1334836, Control_c, 0, 64, 125
1, 1335092, Note_off_c, 0, 47, 31
1, 1335165, Note_off_c, 0, 57, 27
1, 1335306, Note_off_c, 0, 75, 37
1, 1335334, Note_off_c, 0, 65, 33
1, 1335334, Poly_aftertouch_c, 0, 65, 0
1, 1335337, Note_off_c, 0, 77, 30
1, 1335337, Poly_aftertouch_c, 0, 77, 0
1, 1335798, Note_on_c, 0, 77, 61
1, 1335806, Note_on_c, 0, 74, 55
1, 1335809, Note_on_c, 0, 65, 51
1, 1335831, Note_on_c, 0, 58, 39
1, 1335832, Note_on_c, 0, 46, 43
1, 1335921, Control_c, 0, 64, 121
1, 1335939, Control_c, 0, 64, 116
1, 1335957, Control_c, 0, 64, 108
1, 1335977, Control_c, 0, 64, 99
1, 1335995, Control_c, 0, 64, 90
1, 1336014, Control_c, 0, 64, 80
1, 1336032, Control_c, 0, 64, 69
1, 1336052, Control_c, 0, 64, 57
1, 1336071, Control_c, 0, 64, 43
1, 1336089, Control_c, 0, 64, 17
1, 1336108, Control_c, 0, 64, 0
1, 1336201, Control_c, 0, 64, 15
1, 1336219, Control_c, 0, 64, 24
1, 1336240, Control_c, 0, 64, 36
1, 1336257, Control_c, 0, 64, 50
1, 1336276, Control_c, 0, 64, 62
1, 1336295, Control_c, 0, 64, 70
1, 1336314, Control_c, 0, 64, 74
1, 1336332, Control_c, 0, 64, 77
1, 1336350, Control_c, 0, 64, 82
1, 1336370, Control_c, 0, 64, 87
1, 1336388, Control_c, 0, 64, 94
1, 1336406, Control_c, 0, 64, 100
1, 1336426, Control_c, 0, 64, 106
1, 1336444, Control_c, 0, 64, 110
1, 1336464, Control_c, 0, 64, 114
1, 1336500, Control_c, 0, 64, 121
1, 1336538, Control_c, 0, 64, 125
1, 1336674, Note_off_c, 0, 58, 38
1, 1336713, Note_off_c, 0, 46, 28
1, 1337080, Control_c, 0, 64, 121
1, 1337136, Control_c, 0, 64, 115
1, 1337174, Control_c, 0, 64, 107
1, 1337192, Control_c, 0, 64, 99
1, 1337210, Control_c, 0, 64, 89
1, 1337230, Control_c, 0, 64, 73
1, 1337248, Control_c, 0, 64, 54
1, 1337268, Control_c, 0, 64, 22
1, 1337285, Control_c, 0, 64, 0
1, 1337416, Control_c, 0, 64, 25
1, 1337437, Control_c, 0, 64, 43
1, 1337454, Control_c, 0, 64, 57
1, 1337473, Control_c, 0, 64, 68
1, 1337491, Control_c, 0, 64, 75
1, 1337509, Control_c, 0, 64, 80
1, 1337529, Control_c, 0, 64, 83
1, 1337547, Control_c, 0, 64, 87
1, 1337566, Control_c, 0, 64, 92
1, 1337585, Control_c, 0, 64, 97
1, 1337604, Control_c, 0, 64, 102
1, 1337622, Control_c, 0, 64, 106
1, 1337678, Control_c, 0, 67, 9
1, 1337693, Note_off_c, 0, 65, 34
1, 1337693, Poly_aftertouch_c, 0, 65, 0
1, 1337716, Note_off_c, 0, 74, 30
1, 1337734, Control_c, 0, 67, 13
1, 1337771, Control_c, 0, 67, 18
1, 1337791, Control_c, 0, 67, 23
1, 1337809, Control_c, 0, 67, 29
1, 1337828, Control_c, 0, 67, 34
1, 1337866, Control_c, 0, 67, 40
1, 1337891, Note_on_c, 0, 34, 57
1, 1337892, Note_on_c, 0, 74, 46
1, 1337902, Control_c, 0, 67, 47
1, 1337922, Note_on_c, 0, 65, 31
1, 1337926, Note_on_c, 0, 70, 34
1, 1337941, Control_c, 0, 67, 51
1, 1337971, Note_off_c, 0, 34, 52
1, 1338071, Note_off_c, 0, 77, 54
1, 1338071, Poly_aftertouch_c, 0, 77, 0
1, 1338112, Note_on_c, 0, 34, 70
1, 1338159, Note_off_c, 0, 34, 61
1, 1338220, Control_c, 0, 64, 102
1, 1338239, Poly_aftertouch_c, 0, 70, 24
1, 1338289, Note_off_c, 0, 70, 38
1, 1338289, Poly_aftertouch_c, 0, 70, 0
1, 1338309, Note_on_c, 0, 34, 66
1, 1338353, Note_off_c, 0, 65, 51
1, 1338353, Poly_aftertouch_c, 0, 65, 0
1, 1338380, Note_off_c, 0, 34, 57
1, 1338427, Control_c, 0, 64, 98
1, 1338557, Control_c, 0, 64, 93
1, 1338613, Control_c, 0, 64, 88
1, 1338626, Note_on_c, 0, 70, 49
1, 1338631, Control_c, 0, 64, 86
1, 1338633, Note_on_c, 0, 65, 32
1, 1338638, Note_on_c, 0, 46, 57
1, 1338646, Note_on_c, 0, 62, 41
1, 1338650, Control_c, 0, 64, 83
1, 1338669, Control_c, 0, 64, 80
1, 1338688, Control_c, 0, 64, 76
1, 1338707, Control_c, 0, 64, 71
1, 1338726, Control_c, 0, 64, 66
1, 1338744, Control_c, 0, 64, 61
1, 1338762, Control_c, 0, 64, 56
1, 1338771, Note_off_c, 0, 74, 36
1, 1338782, Control_c, 0, 64, 50
1, 1338800, Control_c, 0, 64, 39
1, 1338819, Control_c, 0, 64, 23
1, 1338837, Control_c, 0, 64, 0
1, 1339174, Control_c, 0, 64, 23
1, 1339193, Control_c, 0, 64, 43
1, 1339212, Control_c, 0, 64, 59
1, 1339231, Control_c, 0, 64, 70
1, 1339232, Control_c, 0, 67, 47
1, 1339250, Control_c, 0, 64, 76
1, 1339267, Control_c, 0, 64, 82
1, 1339287, Control_c, 0, 64, 90
1, 1339288, Note_off_c, 0, 62, 43
1, 1339305, Control_c, 0, 64, 98
1, 1339313, Note_off_c, 0, 46, 59
1, 1339324, Control_c, 0, 64, 105
1, 1339332, Note_off_c, 0, 65, 41
1, 1339332, Poly_aftertouch_c, 0, 65, 0
1, 1339342, Control_c, 0, 64, 111
1, 1339380, Control_c, 0, 64, 115
1, 1339381, Control_c, 0, 67, 43
1, 1339417, Control_c, 0, 67, 39
1, 1339421, Note_off_c, 0, 70, 37
1, 1339421, Poly_aftertouch_c, 0, 70, 0
1, 1339454, Control_c, 0, 67, 32
1, 1339474, Control_c, 0, 67, 28
1, 1339512, Control_c, 0, 67, 21
1, 1339548, Control_c, 0, 67, 15
1, 1339566, Control_c, 0, 67, 11
1, 1339605, Control_c, 0, 64, 110
1, 1339642, Control_c, 0, 64, 105
1, 1339680, Control_c, 0, 64, 98
1, 1339716, Control_c, 0, 64, 91
1, 1339717, Control_c, 0, 67, 0
1, 1339735, Control_c, 0, 64, 86
1, 1339754, Control_c, 0, 64, 81
1, 1339772, Control_c, 0, 64, 76
1, 1339791, Control_c, 0, 64, 72
1, 1339811, Control_c, 0, 64, 67
1, 1339828, Control_c, 0, 64, 62
1, 1339848, Control_c, 0, 64, 55
1, 1339866, Control_c, 0, 64, 44
1, 1339886, Control_c, 0, 64, 23
1, 1339903, Control_c, 0, 64, 0
1, 1340230, Note_on_c, 0, 70, 73
1, 1340274, Note_on_c, 0, 58, 44
1, 1340275, Control_c, 0, 64, 19
1, 1340296, Control_c, 0, 64, 45
1, 1340315, Control_c, 0, 64, 61
1, 1340335, Control_c, 0, 64, 76
1, 1340353, Control_c, 0, 64, 93
1, 1340371, Control_c, 0, 64, 117
1, 1340389, Control_c, 0, 64, 127
1, 1340521, Note_off_c, 0, 58, 34
1, 1340542, Note_off_c, 0, 70, 54
1, 1340542, Poly_aftertouch_c, 0, 70, 0
1, 1340650, Note_on_c, 0, 72, 80
1, 1340670, Note_on_c, 0, 70, 68
1, 1340674, Note_on_c, 0, 57, 55
1, 1340680, Note_on_c, 0, 69, 54
1, 1340767, Note_off_c, 0, 69, 57
1, 1340771, Note_off_c, 0, 57, 60
1, 1340849, Note_off_c, 0, 70, 36
1, 1340849, Poly_aftertouch_c, 0, 70, 0
1, 1340928, Note_off_c, 0, 72, 59
1, 1340961, Note_on_c, 0, 74, 91
1, 1340977, Note_on_c, 0, 70, 79
1, 1340984, Note_on_c, 0, 68, 78
1, 1340988, Note_on_c, 0, 56, 75
1, 1341137, Note_off_c, 0, 70, 50
1, 1341137, Poly_aftertouch_c, 0, 70, 0
1, 1341169, Note_off_c, 0, 68, 55
1, 1341169, Poly_aftertouch_c, 0, 68, 0
1, 1341203, Note_off_c, 0, 56, 59
1, 1341253, Note_off_c, 0, 74, 54
1, 1341342, Note_on_c, 0, 75, 98
1, 1341354, Note_on_c, 0, 70, 87
1, 1341369, Note_on_c, 0, 66, 87
1, 1341371, Note_on_c, 0, 54, 82
1, 1341455, Control_c, 0, 64, 104
1, 1341475, Control_c, 0, 64, 72
1, 1341493, Control_c, 0, 64, 37
1, 1341511, Control_c, 0, 64, 0
1, 1341585, Control_c, 0, 64, 20
1, 1341605, Control_c, 0, 64, 49
1, 1341623, Control_c, 0, 64, 73
1, 1341643, Control_c, 0, 64, 98
1, 1341661, Control_c, 0, 64, 127
1, 1341925, Note_off_c, 0, 75, 58
1, 1341975, Note_off_c, 0, 66, 55
1, 1342091, Note_off_c, 0, 70, 37
1, 1342091, Poly_aftertouch_c, 0, 70, 0
1, 1342157, Note_off_c, 0, 54, 51
1, 1342388, Note_on_c, 0, 78, 92
1, 1342393, Note_on_c, 0, 75, 84
1, 1342393, Note_on_c, 0, 70, 88
1, 1342410, Note_on_c, 0, 63, 90
1, 1342415, Note_on_c, 0, 51, 83
1, 1342446, Control_c, 0, 64, 120
1, 1342464, Control_c, 0, 64, 94
1, 1342484, Control_c, 0, 64, 64
1, 1342503, Control_c, 0, 64, 18
1, 1342520, Control_c, 0, 64, 0
1, 1342596, Control_c, 0, 64, 17
1, 1342614, Control_c, 0, 64, 50
1, 1342634, Control_c, 0, 64, 75
1, 1342652, Control_c, 0, 64, 100
1, 1342670, Control_c, 0, 64, 127
1, 1343169, Note_off_c, 0, 63, 50
1, 1343207, Note_off_c, 0, 70, 31
1, 1343207, Poly_aftertouch_c, 0, 70, 0
1, 1343225, Note_off_c, 0, 51, 49
1, 1343249, Note_off_c, 0, 78, 56
1, 1343254, Note_off_c, 0, 75, 50
1, 1343528, Note_on_c, 0, 82, 94
1, 1343532, Note_on_c, 0, 77, 81
1, 1343534, Note_on_c, 0, 70, 90
1, 1343545, Note_on_c, 0, 61, 96
1, 1343550, Note_on_c, 0, 49, 86
1, 1343587, Control_c, 0, 64, 104
1, 1343605, Control_c, 0, 64, 69
1, 1343625, Control_c, 0, 64, 16
1, 1343643, Control_c, 0, 64, 0
1, 1343718, Control_c, 0, 64, 21
1, 1343737, Control_c, 0, 64, 54
1, 1343755, Control_c, 0, 64, 83
1, 1343775, Control_c, 0, 64, 115
1, 1343792, Control_c, 0, 64, 127
1, 1344018, Note_off_c, 0, 77, 55
1, 1344018, Poly_aftertouch_c, 0, 77, 0
1, 1344150, Note_off_c, 0, 70, 61
1, 1344150, Poly_aftertouch_c, 0, 70, 0
1, 1344179, Note_off_c, 0, 61, 57
1, 1344256, Note_off_c, 0, 82, 48
1, 1344301, Note_off_c, 0, 49, 43
1, 1344301, Poly_aftertouch_c, 0, 49, 0
1, 1344771, Note_on_c, 0, 82, 83
1, 1344772, Note_on_c, 0, 84, 86
1, 1344776, Note_on_c, 0, 72, 88
1, 1344778, Note_on_c, 0, 76, 82
1, 1344782, Note_on_c, 0, 79, 80
1, 1344786, Note_on_c, 0, 60, 89
1, 1344786, Note_on_c, 0, 48, 82
1, 1344786, Control_c, 0, 64, 121
1, 1344805, Control_c, 0, 64, 92
1, 1344820, Control_c, 0, 64, 59
1, 1344839, Control_c, 0, 64, 0
1, 1345008, Control_c, 0, 64, 28
1, 1345027, Control_c, 0, 64, 49
1, 1345046, Control_c, 0, 64, 68
1, 1345064, Control_c, 0, 64, 83
1, 1345083, Control_c, 0, 64, 97
1, 1345101, Control_c, 0, 64, 113
1, 1345121, Control_c, 0, 64, 127
1, 1345350, Note_off_c, 0, 79, 58
1, 1345384, Note_off_c, 0, 76, 60
1, 1345410, Note_off_c, 0, 72, 51
1, 1345459, Note_off_c, 0, 60, 36
1, 1345459, Poly_aftertouch_c, 0, 60, 0
1, 1345493, Note_off_c, 0, 82, 48
1, 1345660, Note_off_c, 0, 84, 60
1, 1345702, Note_off_c, 0, 48, 48
1, 1346228, Note_on_c, 0, 89, 89
1, 1346232, Note_on_c, 0, 80, 90
1, 1346233, Note_on_c, 0, 77, 92
1, 1346233, Note_on_c, 0, 84, 82
1, 1346248, Control_c, 0, 64, 106
1, 1346255, Note_on_c, 0, 53, 94
1, 1346264, Note_on_c, 0, 41, 90
1, 1346266, Control_c, 0, 64, 70
1, 1346280, Control_c, 0, 64, 0
1, 1346410, Control_c, 0, 64, 37
1, 1346429, Control_c, 0, 64, 63
1, 1346448, Control_c, 0, 64, 85
1, 1346467, Control_c, 0, 64, 109
1, 1346484, Control_c, 0, 64, 127
1, 1346907, Note_off_c, 0, 53, 46
1, 1347001, Note_off_c, 0, 41, 61
1, 1347476, Control_c, 0, 64, 123
1, 1347514, Control_c, 0, 64, 117
1, 1347551, Control_c, 0, 64, 111
1, 1347569, Control_c, 0, 64, 107
1, 1347588, Control_c, 0, 64, 96
1, 1347607, Control_c, 0, 64, 76
1, 1347625, Control_c, 0, 64, 51
1, 1347645, Control_c, 0, 64, 0
1, 1348224, Control_c, 0, 67, 9
1, 1348281, Control_c, 0, 67, 13
1, 1348318, Control_c, 0, 67, 18
1, 1348331, Note_on_c, 0, 29, 77
1, 1348373, Control_c, 0, 64, 36
1, 1348393, Control_c, 0, 64, 59
1, 1348403, Note_off_c, 0, 29, 61
1, 1348403, Poly_aftertouch_c, 0, 29, 0
1, 1348410, Control_c, 0, 64, 76
1, 1348430, Control_c, 0, 64, 92
1, 1348449, Control_c, 0, 64, 113
1, 1348468, Control_c, 0, 64, 127
1, 1348519, Note_on_c, 0, 29, 79
1, 1348548, Note_off_c, 0, 89, 60
1, 1348557, Note_off_c, 0, 84, 62
1, 1348574, Note_off_c, 0, 29, 60
1, 1348574, Poly_aftertouch_c, 0, 29, 0
1, 1348589, Note_off_c, 0, 80, 62
1, 1348635, Note_off_c, 0, 77, 62
1, 1348635, Poly_aftertouch_c, 0, 77, 0
1, 1348708, Note_on_c, 0, 29, 80
1, 1348767, Note_off_c, 0, 29, 57
1, 1348767, Poly_aftertouch_c, 0, 29, 0
1, 1348972, Note_on_c, 0, 77, 81
1, 1348980, Note_on_c, 0, 68, 79
1, 1348982, Note_on_c, 0, 72, 74
1, 1348982, Note_on_c, 0, 65, 80
1, 1348989, Control_c, 0, 64, 119
1, 1349008, Note_on_c, 0, 41, 90
1, 1349009, Control_c, 0, 64, 102
1, 1349029, Control_c, 0, 64, 81
1, 1349047, Control_c, 0, 64, 57
1, 1349065, Control_c, 0, 64, 9
1, 1349085, Control_c, 0, 64, 0
1, 1349122, Control_c, 0, 67, 13
1, 1349140, Control_c, 0, 67, 9
1, 1349177, Control_c, 0, 67, 0
1, 1349272, Control_c, 0, 64, 11
1, 1349290, Control_c, 0, 64, 37
1, 1349309, Control_c, 0, 64, 53
1, 1349327, Control_c, 0, 64, 65
1, 1349346, Control_c, 0, 64, 74
1, 1349365, Control_c, 0, 64, 83
1, 1349383, Control_c, 0, 64, 91
1, 1349402, Control_c, 0, 64, 102
1, 1349421, Control_c, 0, 64, 113
1, 1349439, Control_c, 0, 64, 123
1, 1349458, Control_c, 0, 64, 127
1, 1349620, Note_off_c, 0, 41, 52
1, 1349877, Note_off_c, 0, 65, 35
1, 1349877, Poly_aftertouch_c, 0, 65, 0
1, 1349923, Note_off_c, 0, 72, 47
1, 1349934, Note_off_c, 0, 68, 53
1, 1349934, Poly_aftertouch_c, 0, 68, 0
1, 1350035, Note_off_c, 0, 77, 53
1, 1350035, Poly_aftertouch_c, 0, 77, 0
1, 1350394, Control_c, 0, 64, 103
1, 1350412, Control_c, 0, 64, 67
1, 1350431, Control_c, 0, 64, 0
1, 1351179, Control_c, 0, 64, 68
1, 1351196, Control_c, 0, 64, 102
1, 1351198, Note_on_c, 0, 77, 99
1, 1351216, Control_c, 0, 64, 127
1, 1351279, Note_off_c, 0, 77, 60
1, 1351279, Poly_aftertouch_c, 0, 77, 0
1, 1351387, Note_on_c, 0, 77, 105
1, 1351451, Note_off_c, 0, 77, 66
1, 1351451, Poly_aftertouch_c, 0, 77, 0
1, 1351539, Note_on_c, 0, 77, 105
1, 1351641, Note_off_c, 0, 77, 56
1, 1351641, Poly_aftertouch_c, 0, 77, 0
1, 1351767, Note_on_c, 0, 85, 98
1, 1351767, Note_on_c, 0, 77, 97
1, 1351769, Note_on_c, 0, 73, 102
1, 1351771, Note_on_c, 0, 80, 91
1, 1351771, Note_on_c, 0, 68, 96
1, 1351773, Note_on_c, 0, 59, 85
1, 1351773, Note_on_c, 0, 71, 100
1, 1351774, Note_off_c, 0, 59, 127
1, 1351780, Note_on_c, 0, 65, 84
1, 1351808, Control_c, 0, 64, 117
1, 1351816, Control_c, 0, 64, 77
1, 1351830, Poly_aftertouch_c, 0, 59, 127
1, 1351832, Control_c, 0, 64, 25
1, 1351851, Control_c, 0, 64, 0
1, 1352637, Control_c, 0, 64, 22
1, 1352655, Control_c, 0, 64, 31
1, 1352674, Control_c, 0, 64, 39
1, 1352693, Control_c, 0, 64, 49
1, 1352712, Control_c, 0, 64, 58
1, 1352730, Control_c, 0, 64, 65
1, 1352750, Control_c, 0, 64, 69
1, 1352769, Control_c, 0, 64, 73
1, 1352786, Control_c, 0, 64, 77
1, 1352805, Control_c, 0, 64, 83
1, 1352824, Control_c, 0, 64, 88
1, 1352843, Control_c, 0, 64, 95
1, 1352862, Control_c, 0, 64, 102
1, 1352880, Control_c, 0, 64, 108
1, 1352900, Control_c, 0, 64, 114
1, 1352918, Control_c, 0, 64, 120
1, 1352936, Control_c, 0, 64, 126
1, 1353276, Poly_aftertouch_c, 0, 59, 0
1, 1353591, Poly_aftertouch_c, 0, 71, 24
1, 1353631, Note_off_c, 0, 71, 34
1, 1353631, Poly_aftertouch_c, 0, 71, 0
1, 1353828, Note_off_c, 0, 77, 51
1, 1353828, Poly_aftertouch_c, 0, 77, 0
1, 1354000, Note_off_c, 0, 65, 34
1, 1354000, Poly_aftertouch_c, 0, 65, 0
1, 1354021, Note_off_c, 0, 68, 38
1, 1354021, Poly_aftertouch_c, 0, 68, 0
1, 1354156, Note_off_c, 0, 73, 48
1, 1354198, Note_off_c, 0, 85, 34
1, 1354449, Note_off_c, 0, 80, 61
1, 1354483, Note_on_c, 0, 84, 98
1, 1354487, Note_on_c, 0, 76, 97
1, 1354487, Control_c, 0, 64, 119
1, 1354491, Note_on_c, 0, 72, 101
1, 1354497, Note_on_c, 0, 70, 101
1, 1354499, Note_on_c, 0, 67, 90
1, 1354499, Note_on_c, 0, 60, 87
1, 1354506, Control_c, 0, 64, 62
1, 1354527, Control_c, 0, 64, 0
1, 1354788, Control_c, 0, 64, 37
1, 1354805, Control_c, 0, 64, 58
1, 1354825, Control_c, 0, 64, 73
1, 1354843, Control_c, 0, 64, 84
1, 1354863, Control_c, 0, 64, 96
1, 1354881, Control_c, 0, 64, 112
1, 1354900, Control_c, 0, 64, 127
1, 1355290, Note_off_c, 0, 70, 55
1, 1355290, Poly_aftertouch_c, 0, 70, 0
1, 1355565, Note_off_c, 0, 67, 44
1, 1355613, Note_off_c, 0, 60, 45
1, 1355613, Poly_aftertouch_c, 0, 60, 0
1, 1356003, Control_c, 0, 64, 115
1, 1356021, Control_c, 0, 64, 91
1, 1356040, Control_c, 0, 64, 66
1, 1356060, Control_c, 0, 64, 45
1, 1356078, Control_c, 0, 64, 0
1, 1356635, Note_on_c, 0, 29, 88
1, 1356694, Control_c, 0, 64, 48
1, 1356714, Note_off_c, 0, 29, 62
1, 1356714, Poly_aftertouch_c, 0, 29, 0
1, 1356714, Control_c, 0, 64, 99
1, 1356733, Control_c, 0, 64, 127
1, 1356782, Note_off_c, 0, 84, 59
1, 1356796, Note_off_c, 0, 76, 60
1, 1356820, Note_on_c, 0, 29, 93
1, 1356865, Note_off_c, 0, 72, 61
1, 1356881, Note_off_c, 0, 29, 62
1, 1356881, Poly_aftertouch_c, 0, 29, 0
1, 1356982, Note_on_c, 0, 29, 92
1, 1357055, Note_off_c, 0, 29, 59
1, 1357055, Poly_aftertouch_c, 0, 29, 0
1, 1357218, Control_c, 0, 64, 118
1, 1357219, Note_on_c, 0, 80, 98
1, 1357222, Note_on_c, 0, 68, 102
1, 1357222, Note_on_c, 0, 77, 87
1, 1357225, Note_on_c, 0, 72, 91
1, 1357239, Control_c, 0, 64, 62
1, 1357247, Note_on_c, 0, 41, 108
1, 1357256, Control_c, 0, 64, 0
1, 1357289, Note_off_c, 0, 41, 68
1, 1357291, Control_c, 0, 64, 44
1, 1357311, Control_c, 0, 64, 82
1, 1357331, Control_c, 0, 64, 127
1, 1358547, Control_c, 0, 64, 97
1, 1358565, Control_c, 0, 64, 51
1, 1358583, Control_c, 0, 64, 0
1, 1359216, Note_on_c, 0, 29, 87
1, 1359275, Control_c, 0, 64, 65
1, 1359282, Note_off_c, 0, 29, 61
1, 1359282, Poly_aftertouch_c, 0, 29, 0
1, 1359294, Control_c, 0, 64, 83
1, 1359312, Control_c, 0, 64, 106
1, 1359331, Control_c, 0, 64, 127
1, 1359404, Note_on_c, 0, 29, 83
1, 1359449, Note_off_c, 0, 29, 63
1, 1359449, Poly_aftertouch_c, 0, 29, 0
1, 1359557, Note_on_c, 0, 29, 88
1, 1359620, Note_off_c, 0, 29, 60
1, 1359620, Poly_aftertouch_c, 0, 29, 0
1, 1359793, Note_off_c, 0, 77, 51
1, 1359793, Poly_aftertouch_c, 0, 77, 0
1, 1359798, Note_off_c, 0, 72, 53
1, 1359806, Note_on_c, 0, 41, 101
1, 1359819, Note_off_c, 0, 80, 56
1, 1359833, Note_off_c, 0, 68, 54
1, 1359833, Poly_aftertouch_c, 0, 68, 0
1, 1359854, Control_c, 0, 64, 113
1, 1359874, Control_c, 0, 64, 78
1, 1359893, Control_c, 0, 64, 40
1, 1359910, Control_c, 0, 64, 0
1, 1360172, Control_c, 0, 64, 21
1, 1360192, Control_c, 0, 64, 42
1, 1360210, Control_c, 0, 64, 59
1, 1360229, Control_c, 0, 64, 72
1, 1360249, Control_c, 0, 64, 83
1, 1360266, Control_c, 0, 64, 96
1, 1360285, Control_c, 0, 64, 109
1, 1360304, Control_c, 0, 64, 122
1, 1360322, Control_c, 0, 64, 127
1, 1360329, Note_off_c, 0, 41, 60
1, 1361089, Control_c, 0, 64, 104
1, 1361108, Control_c, 0, 64, 56
1, 1361126, Control_c, 0, 64, 0
1, 1361855, Note_on_c, 0, 65, 97
1, 1361855, Control_c, 0, 64, 58
1, 1361857, Note_on_c, 0, 77, 102
1, 1361874, Control_c, 0, 64, 127
1, 1361918, Note_off_c, 0, 65, 61
1, 1361918, Poly_aftertouch_c, 0, 65, 0
1, 1361937, Note_off_c, 0, 77, 60
1, 1361937, Poly_aftertouch_c, 0, 77, 0
1, 1362041, Note_on_c, 0, 77, 104
1, 1362044, Note_on_c, 0, 65, 97
1, 1362107, Note_off_c, 0, 65, 60
1, 1362107, Poly_aftertouch_c, 0, 65, 0
1, 1362108, Note_off_c, 0, 77, 63
1, 1362108, Poly_aftertouch_c, 0, 77, 0
1, 1362196, Note_on_c, 0, 77, 102
1, 1362200, Note_on_c, 0, 65, 105
1, 1362252, Note_off_c, 0, 65, 65
1, 1362252, Poly_aftertouch_c, 0, 65, 0
1, 1362274, Note_off_c, 0, 77, 57
1, 1362274, Poly_aftertouch_c, 0, 77, 0
1, 1362439, Note_on_c, 0, 77, 97
1, 1362440, Note_on_c, 0, 85, 102
1, 1362440, Note_on_c, 0, 73, 105
1, 1362452, Note_on_c, 0, 66, 107
1, 1362454, Note_on_c, 0, 61, 96
1, 1362456, Note_on_c, 0, 58, 94
1, 1362472, Control_c, 0, 64, 91
1, 1362492, Control_c, 0, 64, 38
1, 1362511, Control_c, 0, 64, 0
1, 1362596, Poly_aftertouch_c, 0, 60, 0
1, 1362625, Poly_aftertouch_c, 0, 59, 0
1, 1363015, Control_c, 0, 64, 30
1, 1363033, Control_c, 0, 64, 43
1, 1363053, Control_c, 0, 64, 56
1, 1363070, Control_c, 0, 64, 67
1, 1363089, Control_c, 0, 64, 73
1, 1363108, Control_c, 0, 64, 79
1, 1363126, Control_c, 0, 64, 85
1, 1363146, Control_c, 0, 64, 93
1, 1363164, Control_c, 0, 64, 103
1, 1363184, Control_c, 0, 64, 113
1, 1363202, Control_c, 0, 64, 122
1, 1363220, Control_c, 0, 64, 127
1, 1363837, Note_off_c, 0, 58, 46
1, 1364298, Note_off_c, 0, 61, 49
1, 1364392, Note_off_c, 0, 77, 54
1, 1364392, Poly_aftertouch_c, 0, 77, 0
1, 1364445, Note_off_c, 0, 66, 38
1, 1364725, Note_off_c, 0, 73, 54
1, 1364829, Note_off_c, 0, 85, 59
1, 1364989, Note_on_c, 0, 76, 98
1, 1364989, Note_on_c, 0, 84, 98
1, 1364992, Note_on_c, 0, 72, 101
1, 1364997, Note_on_c, 0, 60, 86
1, 1364999, Note_on_c, 0, 67, 94
1, 1365001, Note_on_c, 0, 70, 99
1, 1365017, Control_c, 0, 64, 107
1, 1365034, Control_c, 0, 64, 37
1, 1365053, Control_c, 0, 64, 0
1, 1365352, Control_c, 0, 64, 13
1, 1365370, Control_c, 0, 64, 45
1, 1365391, Control_c, 0, 64, 64
1, 1365408, Control_c, 0, 64, 80
1, 1365427, Control_c, 0, 64, 96
1, 1365446, Control_c, 0, 64, 118
1, 1365464, Control_c, 0, 64, 127
1, 1365876, Note_off_c, 0, 70, 44
1, 1365876, Poly_aftertouch_c, 0, 70, 0
1, 1366124, Poly_aftertouch_c, 0, 60, 22
1, 1366181, Poly_aftertouch_c, 0, 67, 24
1, 1366236, Note_off_c, 0, 67, 32
1, 1366236, Poly_aftertouch_c, 0, 67, 0
1, 1366329, Note_off_c, 0, 60, 19
1, 1366329, Poly_aftertouch_c, 0, 60, 0
1, 1366511, Control_c, 0, 64, 107
1, 1366531, Control_c, 0, 64, 91
1, 1366550, Control_c, 0, 64, 79
1, 1366567, Control_c, 0, 64, 69
1, 1366587, Control_c, 0, 64, 63
1, 1366605, Control_c, 0, 64, 59
1, 1366624, Control_c, 0, 64, 55
1, 1366642, Control_c, 0, 64, 48
1, 1366662, Control_c, 0, 64, 35
1, 1366680, Control_c, 0, 64, 13
1, 1366698, Control_c, 0, 64, 0
1, 1367077, Note_on_c, 0, 29, 93
1, 1367129, Control_c, 0, 64, 91
1, 1367148, Control_c, 0, 64, 127
1, 1367157, Note_off_c, 0, 29, 61
1, 1367157, Poly_aftertouch_c, 0, 29, 0
1, 1367184, Note_off_c, 0, 76, 59
1, 1367230, Note_off_c, 0, 72, 55
1, 1367265, Note_on_c, 0, 29, 97
1, 1367329, Note_off_c, 0, 29, 62
1, 1367329, Poly_aftertouch_c, 0, 29, 0
1, 1367337, Note_off_c, 0, 84, 57
1, 1367430, Note_on_c, 0, 29, 96
1, 1367512, Note_off_c, 0, 29, 59
1, 1367512, Poly_aftertouch_c, 0, 29, 0
1, 1367674, Note_on_c, 0, 89, 102
1, 1367675, Note_on_c, 0, 77, 104
1, 1367675, Note_on_c, 0, 81, 95
1, 1367675, Note_on_c, 0, 84, 92
1, 1367692, Control_c, 0, 64, 80
1, 1367700, Note_on_c, 0, 41, 111
1, 1367707, Control_c, 0, 64, 0
1, 1367738, Note_off_c, 0, 41, 70
1, 1367744, Control_c, 0, 64, 58
1, 1367764, Control_c, 0, 64, 104
1, 1367783, Control_c, 0, 64, 127
1, 1368962, Control_c, 0, 64, 97
1, 1368980, Control_c, 0, 64, 62
1, 1368998, Control_c, 0, 64, 0
1, 1369589, Note_on_c, 0, 29, 86
1, 1369616, Control_c, 0, 64, 21
1, 1369634, Control_c, 0, 64, 64
1, 1369652, Control_c, 0, 64, 79
1, 1369672, Note_off_c, 0, 29, 62
1, 1369672, Poly_aftertouch_c, 0, 29, 0
1, 1369674, Control_c, 0, 64, 92
1, 1369690, Control_c, 0, 64, 103
1, 1369708, Control_c, 0, 64, 111
1, 1369729, Control_c, 0, 64, 119
1, 1369746, Control_c, 0, 64, 124
1, 1369790, Note_on_c, 0, 29, 86
1, 1369848, Note_off_c, 0, 29, 61
1, 1369848, Poly_aftertouch_c, 0, 29, 0
1, 1369961, Note_on_c, 0, 29, 80
1, 1370006, Note_off_c, 0, 29, 62
1, 1370006, Poly_aftertouch_c, 0, 29, 0
1, 1370188, Note_off_c, 0, 89, 48
1, 1370214, Control_c, 0, 67, 8
1, 1370226, Note_off_c, 0, 81, 53
1, 1370229, Note_off_c, 0, 84, 56
1, 1370239, Note_on_c, 0, 41, 77
1, 1370251, Control_c, 0, 64, 116
1, 1370270, Control_c, 0, 64, 111
1, 1370288, Note_off_c, 0, 77, 48
1, 1370288, Poly_aftertouch_c, 0, 77, 0
1, 1370288, Control_c, 0, 67, 12
1, 1370307, Control_c, 0, 64, 106
1, 1370345, Control_c, 0, 64, 99
1, 1370346, Control_c, 0, 67, 18
1, 1370364, Control_c, 0, 64, 95
1, 1370382, Control_c, 0, 64, 90
1, 1370383, Control_c, 0, 67, 23
1, 1370401, Control_c, 0, 64, 86
1, 1370419, Control_c, 0, 64, 84
1, 1370420, Control_c, 0, 67, 30
1, 1370439, Control_c, 0, 64, 81
1, 1370439, Control_c, 0, 67, 35
1, 1370457, Control_c, 0, 64, 78
1, 1370459, Control_c, 0, 67, 39
1, 1370477, Control_c, 0, 64, 76
1, 1370479, Control_c, 0, 67, 43
1, 1370494, Control_c, 0, 64, 74
1, 1370513, Control_c, 0, 67, 49
1, 1370532, Control_c, 0, 64, 72
1, 1370588, Control_c, 0, 64, 69
1, 1370626, Control_c, 0, 64, 67
1, 1370627, Control_c, 0, 67, 53
1, 1370644, Control_c, 0, 64, 66
1, 1370681, Control_c, 0, 64, 65
1, 1370681, Control_c, 0, 67, 57
1, 1370718, Control_c, 0, 64, 63
1, 1370718, Control_c, 0, 67, 62
1, 1370738, Control_c, 0, 64, 61
1, 1370757, Control_c, 0, 64, 59
1, 1370775, Control_c, 0, 64, 56
1, 1370776, Control_c, 0, 67, 67
1, 1370795, Control_c, 0, 64, 54
1, 1370812, Control_c, 0, 64, 52
1, 1370831, Control_c, 0, 64, 48
1, 1370850, Control_c, 0, 64, 39
1, 1370851, Control_c, 0, 67, 73
1, 1370868, Control_c, 0, 64, 25
1, 1370887, Control_c, 0, 64, 0
1, 1370889, Control_c, 0, 67, 80
1, 1370906, Control_c, 0, 67, 85
1, 1370924, Control_c, 0, 67, 90
1, 1370943, Control_c, 0, 67, 97
1, 1370962, Control_c, 0, 67, 104
1, 1370980, Control_c, 0, 67, 111
1, 1370999, Control_c, 0, 67, 116
1, 1371017, Control_c, 0, 67, 120
1, 1371049, Note_off_c, 0, 41, 57
1, 1371053, Control_c, 0, 67, 125
1, 1371596, Note_on_c, 0, 66, 35
1, 1371602, Note_on_c, 0, 63, 36
1, 1371803, Control_c, 0, 64, 12
1, 1371822, Control_c, 0, 64, 19
1, 1371841, Control_c, 0, 64, 27
1, 1371859, Control_c, 0, 64, 35
1, 1371878, Control_c, 0, 64, 43
1, 1371897, Control_c, 0, 64, 50
1, 1371916, Control_c, 0, 64, 56
1, 1371934, Control_c, 0, 64, 62
1, 1371952, Control_c, 0, 64, 66
1, 1371972, Control_c, 0, 64, 68
1, 1371989, Control_c, 0, 64, 71
1, 1372009, Control_c, 0, 64, 73
1, 1372027, Control_c, 0, 64, 76
1, 1372047, Control_c, 0, 64, 80
1, 1372065, Control_c, 0, 64, 84
1, 1372083, Control_c, 0, 64, 88
1, 1372103, Control_c, 0, 64, 93
1, 1372121, Control_c, 0, 64, 99
1, 1372140, Control_c, 0, 64, 106
1, 1372159, Control_c, 0, 64, 111
1, 1372177, Control_c, 0, 64, 116
1, 1372178, Note_off_c, 0, 63, 33
1, 1372196, Control_c, 0, 64, 122
1, 1372214, Control_c, 0, 64, 127
1, 1372650, Note_on_c, 0, 63, 37
1, 1372662, Note_on_c, 0, 60, 34
1, 1372823, Note_off_c, 0, 66, 40
1, 1372851, Control_c, 0, 64, 123
1, 1372868, Control_c, 0, 64, 111
1, 1372888, Control_c, 0, 64, 97
1, 1372907, Control_c, 0, 64, 79
1, 1372925, Control_c, 0, 64, 64
1, 1372944, Control_c, 0, 64, 54
1, 1372962, Control_c, 0, 64, 49
1, 1372999, Control_c, 0, 64, 51
1, 1373019, Control_c, 0, 64, 55
1, 1373037, Control_c, 0, 64, 59
1, 1373057, Control_c, 0, 64, 64
1, 1373074, Control_c, 0, 64, 69
1, 1373093, Control_c, 0, 64, 73
1, 1373112, Control_c, 0, 64, 77
1, 1373130, Control_c, 0, 64, 83
1, 1373149, Control_c, 0, 64, 90
1, 1373168, Control_c, 0, 64, 98
1, 1373188, Control_c, 0, 64, 106
1, 1373205, Control_c, 0, 64, 112
1, 1373225, Control_c, 0, 64, 117
1, 1373262, Control_c, 0, 64, 123
1, 1373299, Control_c, 0, 64, 127
1, 1373304, Note_off_c, 0, 60, 24
1, 1373304, Poly_aftertouch_c, 0, 60, 0
1, 1373528, Note_off_c, 0, 63, 32
1, 1373731, Note_on_c, 0, 57, 32
1, 1373731, Note_on_c, 0, 60, 35
1, 1373861, Control_c, 0, 64, 119
1, 1373878, Control_c, 0, 64, 111
1, 1373898, Control_c, 0, 64, 97
1, 1373916, Control_c, 0, 64, 82
1, 1373934, Control_c, 0, 64, 67
1, 1373954, Control_c, 0, 64, 58
1, 1373972, Control_c, 0, 64, 55
1, 1374009, Control_c, 0, 64, 60
1, 1374029, Control_c, 0, 64, 63
1, 1374047, Control_c, 0, 64, 68
1, 1374066, Control_c, 0, 64, 73
1, 1374085, Control_c, 0, 64, 78
1, 1374104, Control_c, 0, 64, 83
1, 1374122, Control_c, 0, 64, 92
1, 1374141, Control_c, 0, 64, 101
1, 1374158, Control_c, 0, 64, 109
1, 1374178, Control_c, 0, 64, 116
1, 1374196, Control_c, 0, 64, 123
1, 1374215, Control_c, 0, 64, 127
1, 1374230, Note_off_c, 0, 60, 42
1, 1374230, Poly_aftertouch_c, 0, 60, 0
1, 1374515, Note_off_c, 0, 57, 39
1, 1374911, Note_on_c, 0, 57, 18
1, 1374918, Note_on_c, 0, 54, 30
1, 1375020, Control_c, 0, 64, 123
1, 1375038, Control_c, 0, 64, 117
1, 1375057, Control_c, 0, 64, 109
1, 1375075, Control_c, 0, 64, 98
1, 1375094, Control_c, 0, 64, 85
1, 1375113, Control_c, 0, 64, 72
1, 1375132, Control_c, 0, 64, 61
1, 1375150, Control_c, 0, 64, 58
1, 1375169, Control_c, 0, 64, 60
1, 1375188, Control_c, 0, 64, 66
1, 1375206, Control_c, 0, 64, 70
1, 1375225, Control_c, 0, 64, 76
1, 1375244, Control_c, 0, 64, 83
1, 1375263, Control_c, 0, 64, 92
1, 1375281, Control_c, 0, 64, 105
1, 1375299, Control_c, 0, 64, 117
1, 1375319, Control_c, 0, 64, 126
1, 1375517, Note_off_c, 0, 54, 41
1, 1376155, Note_on_c, 0, 54, 36
1, 1376157, Note_on_c, 0, 51, 40
1, 1376159, Control_c, 0, 64, 121
1, 1376179, Control_c, 0, 64, 113
1, 1376197, Control_c, 0, 64, 105
1, 1376216, Control_c, 0, 64, 97
1, 1376236, Control_c, 0, 64, 89
1, 1376253, Control_c, 0, 64, 80
1, 1376260, Note_off_c, 0, 57, 42
1, 1376273, Control_c, 0, 64, 70
1, 1376292, Control_c, 0, 64, 60
1, 1376309, Control_c, 0, 64, 52
1, 1376328, Control_c, 0, 64, 37
1, 1376347, Control_c, 0, 64, 0
1, 1376778, Note_on_c, 0, 29, 57
1, 1376826, Note_off_c, 0, 29, 59
1, 1376826, Poly_aftertouch_c, 0, 29, 0
1, 1376956, Note_on_c, 0, 29, 62
1, 1377006, Note_off_c, 0, 29, 63
1, 1377006, Poly_aftertouch_c, 0, 29, 0
1, 1377111, Note_off_c, 0, 51, 48
1, 1377122, Note_on_c, 0, 29, 66
1, 1377157, Note_off_c, 0, 54, 50
1, 1377166, Note_off_c, 0, 29, 59
1, 1377166, Poly_aftertouch_c, 0, 29, 0
1, 1377332, Note_on_c, 0, 54, 38
1, 1377349, Note_on_c, 0, 51, 42
1, 1377363, Note_on_c, 0, 41, 65
1, 1378499, Note_off_c, 0, 41, 63
1, 1379099, Note_on_c, 0, 53, 33
1, 1379109, Note_on_c, 0, 65, 51
1, 1379130, Note_on_c, 0, 49, 32
1, 1379188, Note_off_c, 0, 51, 37
1, 1379209, Note_off_c, 0, 65, 48
1, 1379209, Poly_aftertouch_c, 0, 65, 0
1, 1379262, Note_off_c, 0, 54, 32
1, 1379276, Note_on_c, 0, 65, 49
1, 1379351, Note_off_c, 0, 65, 56
1, 1379351, Poly_aftertouch_c, 0, 65, 0
1, 1379450, Note_on_c, 0, 65, 57
1, 1379575, Note_off_c, 0, 65, 42
1, 1379575, Poly_aftertouch_c, 0, 65, 0
1, 1379693, Note_on_c, 0, 65, 46
1, 1379697, Note_on_c, 0, 51, 32
1, 1379705, Note_on_c, 0, 48, 32
1, 1379750, Note_off_c, 0, 49, 30
1, 1379750, Poly_aftertouch_c, 0, 49, 0
1, 1379803, Note_off_c, 0, 53, 40
1, 1380067, Control_c, 0, 64, 12
1, 1380087, Control_c, 0, 64, 36
1, 1380105, Control_c, 0, 64, 52
1, 1380124, Control_c, 0, 64, 65
1, 1380142, Control_c, 0, 64, 77
1, 1380161, Control_c, 0, 64, 87
1, 1380181, Control_c, 0, 64, 99
1, 1380198, Control_c, 0, 64, 111
1, 1380214, Note_off_c, 0, 48, 54
1, 1380218, Control_c, 0, 64, 124
1, 1380246, Note_off_c, 0, 51, 48
1, 1380273, Control_c, 0, 67, 121
1, 1380331, Control_c, 0, 67, 117
1, 1380834, Control_c, 0, 67, 113
1, 1380874, Note_on_c, 0, 75, 58
1, 1380905, Note_on_c, 0, 66, 35
1, 1380928, Control_c, 0, 64, 116
1, 1380946, Control_c, 0, 64, 110
1, 1380966, Control_c, 0, 64, 104
1, 1380984, Control_c, 0, 64, 98
1, 1381003, Control_c, 0, 64, 93
1, 1381021, Control_c, 0, 64, 87
1, 1381040, Control_c, 0, 64, 80
1, 1381059, Control_c, 0, 64, 73
1, 1381077, Control_c, 0, 64, 65
1, 1381097, Control_c, 0, 64, 59
1, 1381115, Control_c, 0, 64, 51
1, 1381133, Control_c, 0, 64, 41
1, 1381153, Control_c, 0, 64, 27
1, 1381171, Control_c, 0, 64, 16
1, 1381209, Control_c, 0, 64, 28
1, 1381227, Control_c, 0, 64, 32
1, 1381246, Control_c, 0, 64, 39
1, 1381265, Control_c, 0, 64, 50
1, 1381283, Control_c, 0, 64, 62
1, 1381303, Control_c, 0, 64, 71
1, 1381320, Control_c, 0, 64, 77
1, 1381340, Control_c, 0, 64, 81
1, 1381358, Control_c, 0, 64, 86
1, 1381377, Control_c, 0, 64, 93
1, 1381395, Control_c, 0, 64, 103
1, 1381415, Control_c, 0, 64, 113
1, 1381433, Control_c, 0, 64, 121
1, 1381452, Control_c, 0, 64, 127
1, 1381508, Note_off_c, 0, 75, 60
1, 1382004, Note_on_c, 0, 72, 52
1, 1382037, Note_on_c, 0, 63, 40
1, 1382095, Note_off_c, 0, 66, 41
1, 1382106, Control_c, 0, 64, 122
1, 1382126, Control_c, 0, 64, 115
1, 1382143, Control_c, 0, 64, 106
1, 1382163, Control_c, 0, 64, 95
1, 1382181, Control_c, 0, 64, 83
1, 1382200, Control_c, 0, 64, 72
1, 1382219, Control_c, 0, 64, 65
1, 1382237, Control_c, 0, 64, 64
1, 1382256, Control_c, 0, 64, 68
1, 1382274, Control_c, 0, 64, 70
1, 1382293, Control_c, 0, 64, 73
1, 1382312, Control_c, 0, 64, 76
1, 1382330, Control_c, 0, 64, 81
1, 1382349, Control_c, 0, 64, 88
1, 1382368, Control_c, 0, 64, 98
1, 1382387, Control_c, 0, 64, 111
1, 1382405, Control_c, 0, 64, 124
1, 1382645, Note_off_c, 0, 63, 37
1, 1382891, Control_c, 0, 67, 117
1, 1383051, Note_off_c, 0, 72, 30
1, 1383142, Note_on_c, 0, 69, 44
1, 1383153, Note_on_c, 0, 60, 39
1, 1383191, Control_c, 0, 67, 121
1, 1383209, Control_c, 0, 64, 118
1, 1383247, Control_c, 0, 64, 111
1, 1383265, Control_c, 0, 64, 107
1, 1383283, Control_c, 0, 64, 98
1, 1383303, Control_c, 0, 64, 82
1, 1383321, Control_c, 0, 64, 64
1, 1383340, Control_c, 0, 64, 50
1, 1383359, Control_c, 0, 64, 42
1, 1383378, Control_c, 0, 64, 46
1, 1383397, Control_c, 0, 64, 56
1, 1383415, Control_c, 0, 64, 67
1, 1383434, Control_c, 0, 64, 78
1, 1383453, Control_c, 0, 64, 91
1, 1383472, Control_c, 0, 64, 106
1, 1383489, Control_c, 0, 64, 119
1, 1383509, Control_c, 0, 64, 127
1, 1383620, Control_c, 0, 67, 125
1, 1383660, Note_off_c, 0, 65, 61
1, 1383660, Poly_aftertouch_c, 0, 65, 0
1, 1383717, Note_off_c, 0, 60, 54
1, 1383717, Poly_aftertouch_c, 0, 60, 0
1, 1384238, Note_on_c, 0, 66, 45
1, 1384256, Control_c, 0, 64, 121
1, 1384258, Note_on_c, 0, 57, 30
1, 1384294, Control_c, 0, 64, 115
1, 1384321, Poly_aftertouch_c, 0, 69, 24
1, 1384330, Control_c, 0, 64, 108
1, 1384349, Control_c, 0, 64, 104
1, 1384376, Note_off_c, 0, 69, 37
1, 1384376, Poly_aftertouch_c, 0, 69, 0
1, 1384387, Control_c, 0, 64, 97
1, 1384424, Control_c, 0, 64, 90
1, 1384444, Control_c, 0, 64, 85
1, 1384462, Control_c, 0, 64, 81
1, 1384481, Control_c, 0, 64, 77
1, 1384501, Control_c, 0, 64, 74
1, 1384518, Control_c, 0, 64, 72
1, 1384538, Control_c, 0, 64, 69
1, 1384556, Control_c, 0, 64, 68
1, 1384575, Control_c, 0, 64, 66
1, 1384593, Control_c, 0, 64, 65
1, 1384611, Control_c, 0, 64, 63
1, 1384630, Control_c, 0, 64, 62
1, 1384649, Control_c, 0, 64, 60
1, 1384685, Control_c, 0, 64, 58
1, 1384724, Control_c, 0, 64, 54
1, 1384742, Control_c, 0, 64, 51
1, 1384760, Control_c, 0, 64, 48
1, 1384799, Control_c, 0, 64, 46
1, 1384836, Control_c, 0, 64, 42
1, 1384855, Control_c, 0, 64, 40
1, 1384911, Control_c, 0, 64, 36
1, 1385022, Control_c, 0, 64, 40
1, 1385042, Control_c, 0, 64, 47
1, 1385060, Control_c, 0, 64, 56
1, 1385079, Control_c, 0, 64, 65
1, 1385098, Control_c, 0, 64, 73
1, 1385117, Control_c, 0, 64, 80
1, 1385136, Control_c, 0, 64, 86
1, 1385153, Control_c, 0, 64, 93
1, 1385173, Control_c, 0, 64, 101
1, 1385191, Control_c, 0, 64, 111
1, 1385210, Control_c, 0, 64, 121
1, 1385228, Control_c, 0, 64, 127
1, 1385448, Note_on_c, 0, 65, 45
1, 1385463, Note_on_c, 0, 61, 47
1, 1385483, Note_off_c, 0, 57, 29
1, 1385528, Control_c, 0, 64, 121
1, 1385547, Control_c, 0, 64, 111
1, 1385565, Control_c, 0, 64, 98
1, 1385583, Control_c, 0, 64, 81
1, 1385590, Poly_aftertouch_c, 0, 66, 22
1, 1385601, Note_off_c, 0, 66, 44
1, 1385601, Poly_aftertouch_c, 0, 66, 0
1, 1385603, Control_c, 0, 64, 64
1, 1385621, Control_c, 0, 64, 48
1, 1385641, Control_c, 0, 64, 19
1, 1385659, Control_c, 0, 64, 0
1, 1386040, Note_on_c, 0, 29, 62
1, 1386097, Note_off_c, 0, 29, 59
1, 1386097, Poly_aftertouch_c, 0, 29, 0
1, 1386235, Note_on_c, 0, 29, 65
1, 1386283, Note_off_c, 0, 29, 61
1, 1386283, Poly_aftertouch_c, 0, 29, 0
1, 1386418, Note_on_c, 0, 29, 57
1, 1386468, Note_off_c, 0, 29, 61
1, 1386468, Poly_aftertouch_c, 0, 29, 0
1, 1386684, Note_on_c, 0, 63, 46
1, 1386703, Note_on_c, 0, 60, 38
1, 1386704, Note_on_c, 0, 41, 62
1, 1386708, Note_off_c, 0, 65, 54
1, 1386708, Poly_aftertouch_c, 0, 65, 0
1, 1386790, Note_off_c, 0, 61, 47
1, 1387267, Control_c, 0, 64, 19
1, 1387286, Control_c, 0, 64, 37
1, 1387305, Control_c, 0, 64, 56
1, 1387323, Control_c, 0, 64, 71
1, 1387342, Control_c, 0, 64, 80
1, 1387360, Control_c, 0, 64, 88
1, 1387364, Note_off_c, 0, 41, 59
1, 1387379, Control_c, 0, 64, 98
1, 1387397, Control_c, 0, 64, 110
1, 1387417, Control_c, 0, 64, 121
1, 1387434, Control_c, 0, 64, 127
1, 1387902, Control_c, 0, 64, 97
1, 1387921, Control_c, 0, 64, 66
1, 1387942, Control_c, 0, 64, 15
1, 1387959, Control_c, 0, 64, 0
1, 1388419, Note_on_c, 0, 65, 51
1, 1388444, Note_on_c, 0, 61, 35
1, 1388451, Note_on_c, 0, 58, 34
1, 1388504, Note_off_c, 0, 65, 55
1, 1388504, Poly_aftertouch_c, 0, 65, 0
1, 1388553, Note_off_c, 0, 60, 45
1, 1388553, Poly_aftertouch_c, 0, 60, 0
1, 1388574, Note_off_c, 0, 63, 35
1, 1388617, Note_on_c, 0, 65, 62
1, 1388689, Note_off_c, 0, 65, 55
1, 1388689, Poly_aftertouch_c, 0, 65, 0
1, 1388807, Note_on_c, 0, 65, 61
1, 1388893, Note_off_c, 0, 65, 50
1, 1388893, Poly_aftertouch_c, 0, 65, 0
1, 1389064, Note_on_c, 0, 65, 52
1, 1389065, Note_on_c, 0, 60, 41
1, 1389084, Note_on_c, 0, 57, 37
1, 1389145, Note_off_c, 0, 58, 42
1, 1389156, Note_off_c, 0, 61, 39
1, 1389324, Control_c, 0, 67, 121
1, 1389362, Control_c, 0, 67, 117
1, 1389379, Control_c, 0, 64, 9
1, 1389398, Control_c, 0, 64, 31
1, 1389417, Control_c, 0, 64, 48
1, 1389418, Control_c, 0, 67, 113
1, 1389437, Control_c, 0, 64, 61
1, 1389454, Control_c, 0, 64, 70
1, 1389455, Control_c, 0, 67, 109
1, 1389473, Control_c, 0, 64, 76
1, 1389493, Control_c, 0, 64, 82
1, 1389495, Control_c, 0, 67, 103
1, 1389510, Control_c, 0, 64, 90
1, 1389518, Note_off_c, 0, 57, 46
1, 1389529, Control_c, 0, 64, 101
1, 1389530, Control_c, 0, 67, 99
1, 1389548, Control_c, 0, 64, 111
1, 1389567, Control_c, 0, 64, 121
1, 1389585, Control_c, 0, 64, 127
1, 1389586, Control_c, 0, 67, 94
1, 1389619, Note_off_c, 0, 60, 53
1, 1389619, Poly_aftertouch_c, 0, 60, 0
1, 1389622, Control_c, 0, 67, 90
1, 1389660, Control_c, 0, 67, 86
1, 1389772, Control_c, 0, 67, 81
1, 1389828, Control_c, 0, 67, 77
1, 1389905, Control_c, 0, 67, 73
1, 1389959, Control_c, 0, 67, 69
1, 1389996, Control_c, 0, 67, 64
1, 1390052, Control_c, 0, 67, 60
1, 1390177, Note_on_c, 0, 78, 65
1, 1390221, Control_c, 0, 64, 122
1, 1390224, Note_on_c, 0, 69, 41
1, 1390241, Control_c, 0, 64, 115
1, 1390258, Control_c, 0, 64, 107
1, 1390277, Control_c, 0, 64, 97
1, 1390296, Control_c, 0, 64, 85
1, 1390314, Control_c, 0, 64, 74
1, 1390333, Control_c, 0, 64, 66
1, 1390352, Control_c, 0, 64, 63
1, 1390576, Control_c, 0, 64, 64
1, 1390596, Control_c, 0, 64, 65
1, 1390613, Control_c, 0, 64, 66
1, 1390633, Control_c, 0, 64, 69
1, 1390651, Control_c, 0, 64, 72
1, 1390670, Control_c, 0, 64, 75
1, 1390689, Control_c, 0, 64, 81
1, 1390709, Control_c, 0, 64, 89
1, 1390726, Control_c, 0, 64, 100
1, 1390744, Control_c, 0, 64, 113
1, 1390764, Control_c, 0, 64, 123
1, 1390782, Control_c, 0, 64, 127
1, 1391198, Note_off_c, 0, 69, 31
1, 1391198, Poly_aftertouch_c, 0, 69, 0
1, 1391235, Note_off_c, 0, 78, 35
1, 1391258, Note_on_c, 0, 75, 46
1, 1391281, Note_on_c, 0, 66, 32
1, 1391380, Control_c, 0, 64, 120
1, 1391399, Control_c, 0, 64, 113
1, 1391419, Control_c, 0, 64, 105
1, 1391437, Control_c, 0, 64, 97
1, 1391455, Control_c, 0, 64, 88
1, 1391476, Control_c, 0, 64, 77
1, 1391493, Control_c, 0, 64, 63
1, 1391511, Control_c, 0, 64, 50
1, 1391530, Control_c, 0, 64, 32
1, 1391548, Control_c, 0, 64, 22
1, 1391587, Control_c, 0, 64, 28
1, 1391604, Control_c, 0, 64, 35
1, 1391623, Control_c, 0, 64, 45
1, 1391642, Control_c, 0, 64, 60
1, 1391660, Control_c, 0, 64, 75
1, 1391679, Control_c, 0, 64, 88
1, 1391690, Note_off_c, 0, 66, 54
1, 1391690, Poly_aftertouch_c, 0, 66, 0
1, 1391698, Control_c, 0, 64, 100
1, 1391718, Control_c, 0, 64, 111
1, 1391735, Control_c, 0, 64, 123
1, 1391755, Control_c, 0, 64, 127
1, 1391781, Note_off_c, 0, 75, 57
1, 1392222, Control_c, 0, 67, 55
1, 1392242, Control_c, 0, 67, 51
1, 1392260, Control_c, 0, 67, 44
1, 1392277, Control_c, 0, 67, 37
1, 1392297, Control_c, 0, 67, 29
1, 1392315, Control_c, 0, 67, 22
1, 1392334, Control_c, 0, 67, 16
1, 1392352, Control_c, 0, 67, 11
1, 1392371, Note_on_c, 0, 81, 68
1, 1392417, Note_on_c, 0, 72, 42
1, 1392448, Control_c, 0, 67, 0
1, 1392540, Control_c, 0, 64, 123
1, 1392552, Note_off_c, 0, 65, 36
1, 1392552, Poly_aftertouch_c, 0, 65, 0
1, 1392578, Control_c, 0, 64, 117
1, 1392596, Control_c, 0, 64, 112
1, 1392616, Control_c, 0, 64, 108
1, 1392653, Control_c, 0, 64, 102
1, 1392690, Control_c, 0, 64, 96
1, 1392708, Control_c, 0, 64, 91
1, 1392728, Control_c, 0, 64, 87
1, 1392745, Control_c, 0, 64, 84
1, 1392747, Control_c, 0, 67, 9
1, 1392784, Control_c, 0, 67, 16
1, 1392801, Control_c, 0, 67, 21
1, 1392821, Control_c, 0, 64, 82
1, 1392823, Control_c, 0, 67, 27
1, 1392839, Control_c, 0, 64, 80
1, 1392840, Control_c, 0, 67, 32
1, 1392859, Control_c, 0, 64, 77
1, 1392861, Control_c, 0, 67, 37
1, 1392876, Control_c, 0, 64, 75
1, 1392877, Control_c, 0, 67, 43
1, 1392895, Control_c, 0, 67, 49
1, 1392951, Note_on_c, 0, 65, 54
1, 1392970, Control_c, 0, 64, 73
1, 1392989, Control_c, 0, 64, 71
1, 1393003, Note_off_c, 0, 65, 60
1, 1393003, Poly_aftertouch_c, 0, 65, 0
1, 1393045, Control_c, 0, 64, 69
1, 1393100, Control_c, 0, 64, 68
1, 1393120, Control_c, 0, 64, 67
1, 1393135, Note_on_c, 0, 65, 59
1, 1393183, Note_off_c, 0, 65, 60
1, 1393183, Poly_aftertouch_c, 0, 65, 0
1, 1393232, Control_c, 0, 64, 66
1, 1393250, Control_c, 0, 64, 65
1, 1393303, Note_on_c, 0, 65, 66
1, 1393326, Control_c, 0, 64, 64
1, 1393362, Note_off_c, 0, 65, 58
1, 1393362, Poly_aftertouch_c, 0, 65, 0
1, 1393362, Control_c, 0, 64, 63
1, 1393382, Control_c, 0, 64, 62
1, 1393438, Control_c, 0, 64, 60
1, 1393494, Control_c, 0, 64, 58
1, 1393526, Note_on_c, 0, 78, 55
1, 1393531, Control_c, 0, 64, 56
1, 1393537, Note_on_c, 0, 65, 64
1, 1393548, Note_on_c, 0, 69, 36
1, 1393548, Control_c, 0, 64, 54
1, 1393570, Control_c, 0, 64, 51
1, 1393584, Note_off_c, 0, 72, 36
1, 1393587, Control_c, 0, 64, 45
1, 1393605, Control_c, 0, 64, 36
1, 1393624, Control_c, 0, 64, 24
1, 1393662, Control_c, 0, 64, 0
1, 1393669, Note_off_c, 0, 81, 36
1, 1393849, Control_c, 0, 64, 12
1, 1393850, Control_c, 0, 67, 44
1, 1393868, Control_c, 0, 64, 36
1, 1393869, Control_c, 0, 67, 40
1, 1393885, Control_c, 0, 64, 58
1, 1393886, Control_c, 0, 67, 35
1, 1393901, Note_off_c, 0, 69, 41
1, 1393901, Poly_aftertouch_c, 0, 69, 0
1, 1393904, Control_c, 0, 64, 74
1, 1393905, Control_c, 0, 67, 28
1, 1393924, Control_c, 0, 64, 84
1, 1393926, Control_c, 0, 67, 21
1, 1393943, Control_c, 0, 64, 94
1, 1393944, Control_c, 0, 67, 14
1, 1393961, Control_c, 0, 64, 110
1, 1393980, Control_c, 0, 64, 127
1, 1394017, Control_c, 0, 67, 0
1, 1394045, Note_off_c, 0, 78, 59
1, 1394626, Note_on_c, 0, 87, 73
1, 1394711, Note_on_c, 0, 78, 24
1, 1395157, Control_c, 0, 67, 10
1, 1395195, Control_c, 0, 67, 15
1, 1395232, Control_c, 0, 67, 22
1, 1395251, Control_c, 0, 67, 28
1, 1395270, Control_c, 0, 67, 37
1, 1395289, Control_c, 0, 67, 48
1, 1395307, Control_c, 0, 67, 57
1, 1395326, Control_c, 0, 67, 63
1, 1395359, Note_off_c, 0, 78, 42
1, 1395362, Control_c, 0, 67, 68
1, 1395401, Control_c, 0, 67, 73
1, 1395437, Control_c, 0, 67, 77
1, 1395477, Control_c, 0, 67, 81
1, 1395513, Control_c, 0, 67, 85
1, 1395607, Control_c, 0, 67, 90
1, 1395716, Note_on_c, 0, 84, 60
1, 1395732, Note_on_c, 0, 75, 41
1, 1395824, Note_off_c, 0, 87, 54
1, 1395824, Poly_aftertouch_c, 0, 87, 0
1, 1396111, Control_c, 0, 67, 94
1, 1396269, Note_off_c, 0, 75, 32
1, 1396448, Control_c, 0, 67, 99
1, 1396467, Control_c, 0, 67, 104
1, 1396486, Control_c, 0, 67, 110
1, 1396503, Control_c, 0, 67, 114
1, 1396541, Control_c, 0, 67, 118
1, 1396617, Control_c, 0, 67, 123
1, 1396728, Control_c, 0, 67, 127
1, 1396796, Note_on_c, 0, 81, 49
1, 1396809, Note_on_c, 0, 72, 36
1, 1396877, Note_off_c, 0, 84, 35
1, 1396934, Control_c, 0, 64, 119
1, 1397029, Control_c, 0, 64, 125
1, 1397494, Note_off_c, 0, 72, 32
1, 1397925, Note_on_c, 0, 78, 46
1, 1397962, Note_on_c, 0, 69, 31
1, 1397963, Control_c, 0, 64, 119
1, 1397999, Control_c, 0, 64, 114
1, 1398016, Note_off_c, 0, 81, 39
1, 1398018, Control_c, 0, 64, 109
1, 1398037, Control_c, 0, 64, 101
1, 1398056, Control_c, 0, 64, 90
1, 1398077, Control_c, 0, 64, 77
1, 1398093, Control_c, 0, 64, 67
1, 1398112, Control_c, 0, 64, 63
1, 1398150, Control_c, 0, 64, 66
1, 1398168, Control_c, 0, 64, 68
1, 1398187, Control_c, 0, 64, 72
1, 1398205, Control_c, 0, 64, 77
1, 1398225, Control_c, 0, 64, 84
1, 1398243, Control_c, 0, 64, 93
1, 1398262, Control_c, 0, 64, 105
1, 1398282, Control_c, 0, 64, 117
1, 1398299, Control_c, 0, 64, 127
1, 1399163, Note_on_c, 0, 75, 40
1, 1399168, Note_on_c, 0, 72, 38
1, 1399216, Control_c, 0, 64, 122
1, 1399235, Control_c, 0, 64, 118
1, 1399252, Control_c, 0, 64, 114
1, 1399290, Control_c, 0, 64, 108
1, 1399327, Control_c, 0, 64, 102
1, 1399346, Control_c, 0, 64, 97
1, 1399361, Note_off_c, 0, 69, 38
1, 1399361, Poly_aftertouch_c, 0, 69, 0
1, 1399364, Control_c, 0, 64, 91
1, 1399374, Note_off_c, 0, 65, 38
1, 1399374, Poly_aftertouch_c, 0, 65, 0
1, 1399382, Control_c, 0, 64, 86
1, 1399389, Note_off_c, 0, 78, 32
1, 1399402, Control_c, 0, 64, 82
1, 1399422, Control_c, 0, 64, 78
1, 1399478, Control_c, 0, 64, 75
1, 1399496, Control_c, 0, 64, 73
1, 1399514, Control_c, 0, 64, 71
1, 1399589, Control_c, 0, 64, 68
1, 1399608, Control_c, 0, 64, 67
1, 1399646, Control_c, 0, 64, 66
1, 1399720, Control_c, 0, 64, 65
1, 1399758, Control_c, 0, 64, 64
1, 1399851, Control_c, 0, 64, 63
1, 1399858, Note_on_c, 0, 65, 45
1, 1399870, Control_c, 0, 64, 62
1, 1399934, Note_off_c, 0, 65, 57
1, 1399934, Poly_aftertouch_c, 0, 65, 0
1, 1400075, Control_c, 0, 64, 61
1, 1400079, Note_on_c, 0, 65, 54
1, 1400131, Note_off_c, 0, 65, 60
1, 1400131, Poly_aftertouch_c, 0, 65, 0
1, 1400289, Note_on_c, 0, 65, 51
1, 1400367, Note_off_c, 0, 65, 53
1, 1400367, Poly_aftertouch_c, 0, 65, 0
1, 1400598, Control_c, 0, 64, 60
1, 1400663, Note_on_c, 0, 73, 38
1, 1400664, Poly_aftertouch_c, 0, 72, 24
1, 1400670, Note_on_c, 0, 66, 47
1, 1400679, Note_on_c, 0, 70, 38
1, 1400692, Control_c, 0, 64, 58
1, 1400738, Note_off_c, 0, 72, 32
1, 1400738, Poly_aftertouch_c, 0, 72, 0
1, 1400739, Poly_aftertouch_c, 0, 72, 0
1, 1400767, Control_c, 0, 64, 55
1, 1400786, Control_c, 0, 64, 53
1, 1400797, Note_off_c, 0, 75, 36
1, 1400803, Control_c, 0, 64, 49
1, 1400823, Control_c, 0, 64, 43
1, 1400842, Control_c, 0, 64, 36
1, 1400860, Control_c, 0, 64, 28
1, 1400880, Control_c, 0, 64, 16
1, 1400898, Control_c, 0, 64, 0
1, 1401122, Control_c, 0, 64, 19
1, 1401141, Control_c, 0, 64, 38
1, 1401159, Control_c, 0, 64, 55
1, 1401179, Control_c, 0, 64, 69
1, 1401197, Control_c, 0, 64, 80
1, 1401216, Control_c, 0, 64, 90
1, 1401235, Control_c, 0, 64, 102
1, 1401254, Control_c, 0, 64, 117
1, 1401272, Control_c, 0, 64, 127
1, 1401393, Note_off_c, 0, 66, 54
1, 1401393, Poly_aftertouch_c, 0, 66, 0
1, 1401806, Note_off_c, 0, 70, 34
1, 1401806, Poly_aftertouch_c, 0, 70, 0
1, 1401898, Note_off_c, 0, 73, 36
1, 1402091, Note_on_c, 0, 54, 28
1, 1402099, Note_on_c, 0, 61, 28
1, 1402338, Control_c, 0, 67, 122
1, 1402394, Control_c, 0, 67, 116
1, 1402431, Control_c, 0, 67, 108
1, 1402450, Control_c, 0, 67, 103
1, 1402468, Control_c, 0, 67, 98
1, 1402487, Control_c, 0, 67, 92
1, 1402506, Control_c, 0, 67, 83
1, 1402526, Control_c, 0, 67, 73
1, 1402543, Control_c, 0, 67, 64
1, 1402563, Control_c, 0, 67, 57
1, 1402581, Control_c, 0, 67, 52
1, 1402583, Note_off_c, 0, 54, 34
1, 1402591, Note_off_c, 0, 61, 35
1, 1402600, Control_c, 0, 67, 47
1, 1402619, Control_c, 0, 67, 40
1, 1402637, Control_c, 0, 67, 32
1, 1402656, Control_c, 0, 67, 24
1, 1402675, Control_c, 0, 67, 18
1, 1402693, Control_c, 0, 67, 12
1, 1402823, Control_c, 0, 67, 0
1, 1403561, Note_on_c, 0, 80, 42
1, 1403604, Note_on_c, 0, 58, 28
1, 1403604, Note_on_c, 0, 64, 26
1, 1403607, Note_on_c, 0, 73, 29
1, 1403989, Note_off_c, 0, 64, 41
1, 1404162, Note_off_c, 0, 73, 39
1, 1404290, Note_off_c, 0, 58, 33
1, 1404471, Control_c, 0, 67, 8
1, 1404600, Control_c, 0, 67, 12
1, 1404637, Note_on_c, 0, 76, 39
1, 1404676, Note_on_c, 0, 68, 25
1, 1404684, Note_on_c, 0, 61, 28
1, 1404692, Control_c, 0, 67, 17
1, 1404696, Note_on_c, 0, 70, 26
1, 1404750, Control_c, 0, 67, 21
1, 1404787, Control_c, 0, 67, 25
1, 1404824, Control_c, 0, 67, 29
1, 1404862, Control_c, 0, 67, 33
1, 1404899, Control_c, 0, 67, 39
1, 1404937, Control_c, 0, 67, 43
1, 1404944, Poly_aftertouch_c, 0, 70, 24
1, 1404953, Note_off_c, 0, 68, 42
1, 1404953, Poly_aftertouch_c, 0, 68, 0
1, 1404983, Note_off_c, 0, 80, 28
1, 1404986, Note_off_c, 0, 70, 42
1, 1404986, Poly_aftertouch_c, 0, 70, 0
1, 1405012, Control_c, 0, 67, 47
1, 1405068, Control_c, 0, 67, 53
1, 1405105, Control_c, 0, 67, 59
1, 1405218, Control_c, 0, 67, 64
1, 1405254, Control_c, 0, 67, 69
1, 1405291, Control_c, 0, 67, 73
1, 1405404, Control_c, 0, 67, 77
1, 1405422, Note_off_c, 0, 61, 36
1, 1405454, Note_on_c, 0, 73, 41
1, 1405493, Note_on_c, 0, 66, 25
1, 1405498, Note_on_c, 0, 58, 25
1, 1405517, Control_c, 0, 67, 81
1, 1405519, Note_on_c, 0, 64, 24
1, 1405656, Note_off_c, 0, 76, 38
1, 1405711, Note_off_c, 0, 66, 44
1, 1405711, Poly_aftertouch_c, 0, 66, 0
1, 1405874, Poly_aftertouch_c, 0, 64, 24
1, 1405937, Note_off_c, 0, 64, 36
1, 1405937, Poly_aftertouch_c, 0, 64, 0
1, 1405950, Note_off_c, 0, 58, 37
1, 1406099, Note_on_c, 0, 76, 45
1, 1406144, Note_on_c, 0, 70, 19
1, 1406145, Note_on_c, 0, 54, 28
1, 1406160, Note_on_c, 0, 61, 21
1, 1406186, Note_off_c, 0, 73, 29
1, 1406329, Note_off_c, 0, 70, 41
1, 1406329, Poly_aftertouch_c, 0, 70, 0
1, 1406389, Note_off_c, 0, 61, 41
1, 1406649, Note_on_c, 0, 80, 44
1, 1406656, Note_on_c, 0, 58, 34
1, 1406680, Note_on_c, 0, 73, 29
1, 1406696, Note_on_c, 0, 64, 14
1, 1406762, Poly_aftertouch_c, 0, 54, 20
1, 1406768, Note_off_c, 0, 54, 27
1, 1406768, Poly_aftertouch_c, 0, 54, 0
1, 1406802, Note_off_c, 0, 76, 35
1, 1406806, Note_off_c, 0, 64, 41
1, 1406806, Poly_aftertouch_c, 0, 64, 0
1, 1406961, Note_off_c, 0, 73, 38
1, 1407135, Note_on_c, 0, 76, 50
1, 1407173, Note_on_c, 0, 68, 38
1, 1407186, Note_on_c, 0, 61, 33
1, 1407194, Note_on_c, 0, 70, 36
1, 1407194, Poly_aftertouch_c, 0, 58, 22
1, 1407241, Note_off_c, 0, 58, 28
1, 1407241, Poly_aftertouch_c, 0, 58, 0
1, 1407283, Note_off_c, 0, 70, 49
1, 1407283, Poly_aftertouch_c, 0, 70, 0
1, 1407340, Note_off_c, 0, 68, 35
1, 1407340, Poly_aftertouch_c, 0, 68, 0
1, 1407358, Note_off_c, 0, 80, 28
1, 1407566, Note_on_c, 0, 66, 39
1, 1407584, Note_on_c, 0, 73, 46
1, 1407635, Note_on_c, 0, 64, 22
1, 1407637, Note_on_c, 0, 58, 34
1, 1407662, Poly_aftertouch_c, 0, 61, 20
1, 1407665, Note_off_c, 0, 61, 36
1, 1407665, Poly_aftertouch_c, 0, 61, 0
1, 1407677, Note_off_c, 0, 66, 53
1, 1407677, Poly_aftertouch_c, 0, 66, 0
1, 1407716, Note_off_c, 0, 76, 42
1, 1407903, Note_on_c, 0, 76, 49
1, 1407957, Note_on_c, 0, 54, 39
1, 1407960, Note_on_c, 0, 61, 31
1, 1407960, Note_on_c, 0, 70, 26
1, 1407961, Note_off_c, 0, 64, 36
1, 1407961, Poly_aftertouch_c, 0, 64, 0
1, 1407982, Note_off_c, 0, 73, 51
1, 1407984, Control_c, 0, 67, 77
1, 1408015, Note_off_c, 0, 58, 36
1, 1408015, Poly_aftertouch_c, 0, 58, 0
1, 1408016, Note_off_c, 0, 70, 49
1, 1408016, Poly_aftertouch_c, 0, 70, 0
1, 1408172, Note_on_c, 0, 80, 56
1, 1408178, Note_on_c, 0, 73, 39
1, 1408192, Note_on_c, 0, 58, 41
1, 1408215, Note_on_c, 0, 64, 11
1, 1408216, Note_off_c, 0, 61, 42
1, 1408216, Poly_aftertouch_c, 0, 61, 0
1, 1408258, Note_off_c, 0, 76, 54
1, 1408262, Note_off_c, 0, 54, 37
1, 1408262, Poly_aftertouch_c, 0, 54, 0
1, 1408300, Note_off_c, 0, 64, 49
1, 1408300, Poly_aftertouch_c, 0, 64, 0
1, 1408301, Poly_aftertouch_c, 0, 64, 0
1, 1408426, Note_on_c, 0, 76, 59
1, 1408441, Note_on_c, 0, 68, 45
1, 1408456, Note_off_c, 0, 58, 40
1, 1408456, Poly_aftertouch_c, 0, 58, 0
1, 1408469, Note_on_c, 0, 70, 23
1, 1408471, Note_off_c, 0, 73, 38
1, 1408471, Note_on_c, 0, 61, 46
1, 1408511, Note_off_c, 0, 68, 60
1, 1408511, Poly_aftertouch_c, 0, 68, 0
1, 1408524, Note_off_c, 0, 70, 44
1, 1408524, Poly_aftertouch_c, 0, 70, 0
1, 1408557, Note_off_c, 0, 80, 38
1, 1408676, Note_on_c, 0, 73, 61
1, 1408688, Note_on_c, 0, 66, 48
1, 1408712, Note_on_c, 0, 64, 43
1, 1408717, Note_on_c, 0, 58, 43
1, 1408726, Note_off_c, 0, 61, 35
1, 1408726, Poly_aftertouch_c, 0, 61, 0
1, 1408738, Note_off_c, 0, 66, 59
1, 1408738, Poly_aftertouch_c, 0, 66, 0
1, 1408756, Note_off_c, 0, 76, 36
1, 1408847, Note_off_c, 0, 64, 38
1, 1408896, Note_on_c, 0, 76, 64
1, 1408899, Note_on_c, 0, 61, 42
1, 1408925, Note_on_c, 0, 54, 46
1, 1408936, Note_on_c, 0, 70, 31
1, 1408973, Note_off_c, 0, 73, 38
1, 1408977, Note_off_c, 0, 58, 40
1, 1408977, Poly_aftertouch_c, 0, 58, 0
1, 1408984, Note_off_c, 0, 70, 48
1, 1408984, Poly_aftertouch_c, 0, 70, 0
1, 1409073, Note_off_c, 0, 61, 30
1, 1409073, Poly_aftertouch_c, 0, 61, 0
1, 1409131, Note_on_c, 0, 80, 61
1, 1409136, Note_on_c, 0, 73, 46
1, 1409146, Note_on_c, 0, 58, 44
1, 1409166, Note_on_c, 0, 64, 18
1, 1409170, Note_off_c, 0, 54, 52
1, 1409170, Poly_aftertouch_c, 0, 54, 0
1, 1409216, Note_off_c, 0, 76, 53
1, 1409231, Note_off_c, 0, 64, 37
1, 1409271, Note_off_c, 0, 58, 52
1, 1409271, Poly_aftertouch_c, 0, 58, 0
1, 1409349, Note_off_c, 0, 73, 38
1, 1409380, Note_on_c, 0, 76, 60
1, 1409394, Note_on_c, 0, 68, 48
1, 1409419, Note_on_c, 0, 61, 44
1, 1409457, Note_off_c, 0, 68, 60
1, 1409457, Poly_aftertouch_c, 0, 68, 0
1, 1409481, Poly_aftertouch_c, 0, 70, 0
1, 1409496, Note_off_c, 0, 80, 38
1, 1409674, Note_on_c, 0, 73, 55
1, 1409698, Note_on_c, 0, 66, 35
1, 1409710, Note_on_c, 0, 58, 38
1, 1409717, Note_on_c, 0, 64, 17
1, 1409718, Note_off_c, 0, 61, 33
1, 1409718, Poly_aftertouch_c, 0, 61, 0
1, 1409744, Note_off_c, 0, 76, 38
1, 1409756, Note_off_c, 0, 66, 50
1, 1409756, Poly_aftertouch_c, 0, 66, 0
1, 1409962, Note_off_c, 0, 64, 29
1, 1410015, Note_on_c, 0, 76, 49
1, 1410032, Note_on_c, 0, 61, 27
1, 1410057, Note_off_c, 0, 73, 35
1, 1410064, Note_on_c, 0, 54, 33
1, 1410130, Note_off_c, 0, 58, 22
1, 1410130, Poly_aftertouch_c, 0, 58, 0
1, 1410327, Poly_aftertouch_c, 0, 61, 24
1, 1410357, Note_off_c, 0, 61, 31
1, 1410357, Poly_aftertouch_c, 0, 61, 0
1, 1410368, Note_on_c, 0, 80, 47
1, 1410402, Note_off_c, 0, 54, 35
1, 1410402, Poly_aftertouch_c, 0, 54, 0
1, 1410415, Note_on_c, 0, 64, 19
1, 1410418, Note_on_c, 0, 73, 25
1, 1410425, Note_on_c, 0, 58, 35
1, 1410434, Control_c, 0, 67, 81
1, 1410479, Note_off_c, 0, 64, 44
1, 1410490, Control_c, 0, 67, 85
1, 1410492, Note_off_c, 0, 76, 35
1, 1410510, Control_c, 0, 67, 90
1, 1410528, Control_c, 0, 67, 96
1, 1410546, Control_c, 0, 67, 101
1, 1410584, Control_c, 0, 67, 106
1, 1410605, Note_off_c, 0, 73, 24
1, 1410621, Control_c, 0, 67, 112
1, 1410658, Control_c, 0, 67, 118
1, 1410701, Note_off_c, 0, 58, 34
1, 1410701, Poly_aftertouch_c, 0, 58, 0
1, 1410734, Control_c, 0, 67, 123
1, 1410827, Control_c, 0, 67, 127
1, 1410846, Note_on_c, 0, 76, 48
1, 1410888, Note_on_c, 0, 68, 32
1, 1410912, Note_on_c, 0, 61, 32
1, 1410921, Note_on_c, 0, 70, 14
1, 1410992, Note_off_c, 0, 68, 53
1, 1410992, Poly_aftertouch_c, 0, 68, 0
1, 1410996, Note_off_c, 0, 70, 51
1, 1411019, Note_off_c, 0, 80, 36
1, 1411090, Note_off_c, 0, 76, 52
1, 1411159, Note_off_c, 0, 61, 40
1, 1411159, Poly_aftertouch_c, 0, 61, 0
1, 1411448, Note_on_c, 0, 73, 43
1, 1411503, Note_on_c, 0, 66, 17
1, 1411506, Note_on_c, 0, 64, 29
1, 1411528, Note_on_c, 0, 58, 28
1, 1411803, Note_off_c, 0, 66, 39
1, 1411803, Poly_aftertouch_c, 0, 66, 0
1, 1412036, Note_off_c, 0, 58, 40
1, 1412036, Poly_aftertouch_c, 0, 58, 0
1, 1412089, Note_off_c, 0, 64, 35
1, 1412102, Note_off_c, 0, 73, 39
1, 1412794, Note_on_c, 0, 76, 27
1, 1412802, Note_on_c, 0, 70, 29
1, 1412820, Note_on_c, 0, 54, 25
1, 1412823, Note_on_c, 0, 61, 21
1, 1413498, Poly_aftertouch_c, 0, 61, 24
1, 1413570, Note_off_c, 0, 54, 25
1, 1413570, Poly_aftertouch_c, 0, 54, 0
1, 1413575, Note_off_c, 0, 61, 33
1, 1413575, Poly_aftertouch_c, 0, 61, 0
1, 1413657, Poly_aftertouch_c, 0, 70, 24
1, 1413744, Note_off_c, 0, 70, 31
1, 1413744, Poly_aftertouch_c, 0, 70, 0
1, 1413841, Note_off_c, 0, 76, 29
1, 1415512, Note_on_c, 0, 76, 26
1, 1415536, Note_on_c, 0, 70, 23
1, 1415549, Note_on_c, 0, 61, 19
1, 1415562, Note_on_c, 0, 54, 14
1, 1415726, Control_c, 0, 64, 122
1, 1415763, Control_c, 0, 64, 116
1, 1415801, Control_c, 0, 64, 111
1, 1415802, Note_off_c, 0, 54, 32
1, 1415802, Poly_aftertouch_c, 0, 54, 0
1, 1415817, Note_off_c, 0, 70, 37
1, 1415817, Poly_aftertouch_c, 0, 70, 0
1, 1415820, Note_off_c, 0, 61, 38
1, 1415820, Poly_aftertouch_c, 0, 61, 0
1, 1415858, Control_c, 0, 64, 105
1, 1415860, Note_off_c, 0, 76, 36
1, 1415913, Control_c, 0, 64, 101
1, 1416025, Control_c, 0, 64, 97
1, 1416062, Control_c, 0, 64, 92
1, 1416099, Control_c, 0, 64, 85
1, 1416119, Control_c, 0, 64, 81
1, 1416137, Control_c, 0, 64, 78
1, 1416157, Control_c, 0, 64, 76
1, 1416174, Control_c, 0, 64, 73
1, 1416194, Control_c, 0, 64, 71
1, 1416231, Control_c, 0, 64, 69
1, 1416325, Control_c, 0, 64, 68
1, 1416344, Control_c, 0, 64, 67
1, 1416380, Control_c, 0, 64, 66
1, 1416399, Control_c, 0, 64, 65
1, 1416418, Control_c, 0, 64, 63
1, 1416436, Control_c, 0, 64, 62
1, 1416511, Control_c, 0, 64, 60
1, 1416549, Control_c, 0, 64, 58
1, 1416698, Control_c, 0, 64, 56
1, 1417128, Control_c, 0, 64, 54
1, 1417708, Control_c, 0, 64, 52
1, 1418905, Control_c, 0, 64, 57
1, 1418923, Control_c, 0, 64, 64
1, 1418942, Control_c, 0, 64, 71
1, 1418961, Control_c, 0, 64, 78
1, 1418980, Control_c, 0, 64, 85
1, 1418998, Control_c, 0, 64, 97
1, 1419017, Control_c, 0, 64, 113
1, 1419036, Control_c, 0, 64, 127
1, 1420245, Note_on_c, 0, 29, 24
1, 1420259, Note_on_c, 0, 41, 25
1, 1420489, Note_off_c, 0, 41, 34
1, 1420540, Note_off_c, 0, 29, 29
1, 1420540, Poly_aftertouch_c, 0, 29, 0
1, 1420781, Poly_aftertouch_c, 0, 41, 127
1, 1420812, Poly_aftertouch_c, 0, 41, 0
1, 1420825, Note_on_c, 0, 29, 23
1, 1420907, Note_off_c, 0, 29, 42
1, 1420907, Poly_aftertouch_c, 0, 29, 0
1, 1420930, Note_on_c, 0, 41, 21
1, 1421001, Note_off_c, 0, 41, 46
1, 1421018, Note_on_c, 0, 29, 25
1, 1421107, Note_off_c, 0, 29, 45
1, 1421107, Poly_aftertouch_c, 0, 29, 0
1, 1421110, Note_on_c, 0, 41, 36
1, 1421191, Note_off_c, 0, 41, 49
1, 1421207, Note_on_c, 0, 29, 21
1, 1421279, Note_on_c, 0, 41, 36
1, 1421284, Note_off_c, 0, 29, 48
1, 1421284, Poly_aftertouch_c, 0, 29, 0
1, 1421386, Note_off_c, 0, 41, 47
1, 1421388, Note_on_c, 0, 29, 20
1, 1421496, Note_off_c, 0, 29, 39
1, 1421496, Poly_aftertouch_c, 0, 29, 0
1, 1421502, Note_on_c, 0, 41, 16
1, 1421563, Note_off_c, 0, 41, 50
1, 1421601, Poly_aftertouch_c, 0, 29, 127
1, 1421667, Note_on_c, 0, 41, 15
1, 1421762, Note_off_c, 0, 41, 52
1, 1421864, Note_on_c, 0, 41, 22
1, 1421934, Note_on_c, 0, 29, 6
1, 1421938, Note_off_c, 0, 41, 52
1, 1422057, Note_on_c, 0, 41, 23
1, 1422120, Note_off_c, 0, 41, 48
1, 1422123, Note_off_c, 0, 29, 64
1, 1422123, Note_on_c, 0, 29, 6
1, 1422244, Note_on_c, 0, 41, 24
1, 1422303, Note_off_c, 0, 41, 51
1, 1422337, Note_off_c, 0, 29, 64
1, 1422337, Note_on_c, 0, 29, 28
1, 1422364, Control_c, 0, 67, 123
1, 1422400, Note_off_c, 0, 29, 52
1, 1422400, Poly_aftertouch_c, 0, 29, 0
1, 1422459, Note_on_c, 0, 41, 21
1, 1422519, Note_off_c, 0, 41, 41
1, 1422538, Note_on_c, 0, 29, 31
1, 1422589, Control_c, 0, 67, 119
1, 1422601, Note_off_c, 0, 29, 53
1, 1422601, Poly_aftertouch_c, 0, 29, 0
1, 1422640, Note_on_c, 0, 41, 28
1, 1422688, Note_off_c, 0, 41, 50
1, 1422739, Note_on_c, 0, 29, 28
1, 1422796, Note_off_c, 0, 29, 48
1, 1422796, Poly_aftertouch_c, 0, 29, 0
1, 1422900, Poly_aftertouch_c, 0, 41, 127
1, 1422935, Poly_aftertouch_c, 0, 41, 0
1, 1422996, Note_on_c, 0, 77, 49
1, 1423006, Note_on_c, 0, 73, 42
1, 1423029, Poly_aftertouch_c, 0, 29, 127
1, 1423070, Poly_aftertouch_c, 0, 29, 0
1, 1423147, Poly_aftertouch_c, 0, 41, 127
1, 1423165, Poly_aftertouch_c, 0, 41, 0
1, 1423213, Note_on_c, 0, 29, 18
1, 1423276, Note_off_c, 0, 29, 46
1, 1423327, Note_on_c, 0, 41, 21
1, 1423355, Control_c, 0, 67, 115
1, 1423387, Note_off_c, 0, 41, 45
1, 1423456, Note_on_c, 0, 29, 24
1, 1423506, Note_off_c, 0, 29, 43
1, 1423549, Note_off_c, 0, 73, 36
1, 1423594, Poly_aftertouch_c, 0, 41, 127
1, 1423633, Poly_aftertouch_c, 0, 41, 0
1, 1423666, Note_on_c, 0, 29, 28
1, 1423725, Note_off_c, 0, 29, 42
1, 1423812, Poly_aftertouch_c, 0, 41, 127
1, 1423837, Poly_aftertouch_c, 0, 41, 0
1, 1423841, Control_c, 0, 67, 111
1, 1424004, Poly_aftertouch_c, 0, 29, 0
1, 1424045, Note_on_c, 0, 73, 52
1, 1424057, Note_on_c, 0, 70, 47
1, 1424076, Poly_aftertouch_c, 0, 41, 0
1, 1424148, Poly_aftertouch_c, 0, 29, 127
1, 1424191, Poly_aftertouch_c, 0, 29, 0
1, 1424218, Note_on_c, 0, 41, 30
1, 1424275, Note_off_c, 0, 41, 47
1, 1424309, Control_c, 0, 67, 107
1, 1424344, Note_on_c, 0, 29, 35
1, 1424380, Note_off_c, 0, 77, 31
1, 1424380, Poly_aftertouch_c, 0, 77, 0
1, 1424396, Note_off_c, 0, 29, 52
1, 1424430, Note_on_c, 0, 41, 36
1, 1424506, Note_off_c, 0, 41, 50
1, 1424558, Note_on_c, 0, 29, 34
1, 1424624, Note_off_c, 0, 29, 51
1, 1424656, Note_off_c, 0, 70, 24
1, 1424656, Poly_aftertouch_c, 0, 70, 0
1, 1424679, Note_on_c, 0, 41, 29
1, 1424748, Note_off_c, 0, 41, 45
1, 1424808, Note_on_c, 0, 29, 29
1, 1424871, Note_off_c, 0, 29, 48
1, 1424922, Note_on_c, 0, 41, 28
1, 1424993, Note_off_c, 0, 41, 46
1, 1425071, Note_on_c, 0, 29, 22
1, 1425122, Note_on_c, 0, 70, 47
1, 1425135, Note_on_c, 0, 65, 43
1, 1425142, Note_off_c, 0, 29, 46
1, 1425207, Note_on_c, 0, 41, 16
1, 1425286, Note_off_c, 0, 41, 48
1, 1425287, Note_off_c, 0, 73, 37
1, 1425327, Note_on_c, 0, 29, 33
1, 1425386, Note_off_c, 0, 29, 52
1, 1425435, Note_off_c, 0, 70, 55
1, 1425435, Poly_aftertouch_c, 0, 70, 0
1, 1425439, Note_on_c, 0, 41, 28
1, 1425500, Note_off_c, 0, 41, 48
1, 1425555, Note_on_c, 0, 29, 36
1, 1425617, Note_off_c, 0, 29, 52
1, 1425640, Note_on_c, 0, 41, 42
1, 1425726, Note_off_c, 0, 41, 49
1, 1425791, Note_on_c, 0, 29, 34
1, 1425848, Note_off_c, 0, 29, 49
1, 1425849, Note_off_c, 0, 65, 45
1, 1425849, Poly_aftertouch_c, 0, 65, 0
1, 1425914, Note_on_c, 0, 41, 14
1, 1425981, Note_off_c, 0, 41, 43
1, 1426026, Note_on_c, 0, 29, 28
1, 1426079, Note_off_c, 0, 29, 47
1, 1426134, Note_on_c, 0, 41, 26
1, 1426181, Note_on_c, 0, 65, 46
1, 1426185, Note_on_c, 0, 61, 50
1, 1426191, Note_off_c, 0, 41, 49
1, 1426253, Note_on_c, 0, 29, 24
1, 1426320, Note_off_c, 0, 29, 45
1, 1426354, Note_on_c, 0, 41, 29
1, 1426403, Control_c, 0, 67, 100
1, 1426440, Control_c, 0, 67, 95
1, 1426447, Note_off_c, 0, 41, 50
1, 1426504, Note_on_c, 0, 29, 22
1, 1426562, Note_off_c, 0, 29, 46
1, 1426570, Control_c, 0, 67, 91
1, 1426627, Note_on_c, 0, 41, 17
1, 1426665, Control_c, 0, 67, 86
1, 1426689, Note_off_c, 0, 41, 39
1, 1426725, Note_on_c, 0, 29, 33
1, 1426739, Control_c, 0, 67, 82
1, 1426780, Note_off_c, 0, 29, 47
1, 1426841, Note_on_c, 0, 41, 18
1, 1426849, Control_c, 0, 67, 77
1, 1426908, Note_off_c, 0, 41, 38
1, 1426926, Control_c, 0, 67, 73
1, 1426940, Note_on_c, 0, 29, 28
1, 1426995, Note_off_c, 0, 29, 46
1, 1427026, Note_on_c, 0, 41, 36
1, 1427038, Control_c, 0, 67, 68
1, 1427086, Note_off_c, 0, 41, 49
1, 1427124, Note_off_c, 0, 61, 29
1, 1427124, Poly_aftertouch_c, 0, 61, 0
1, 1427131, Control_c, 0, 67, 64
1, 1427146, Note_off_c, 0, 65, 26
1, 1427146, Poly_aftertouch_c, 0, 65, 0
1, 1427158, Note_on_c, 0, 29, 28
1, 1427207, Control_c, 0, 67, 60
1, 1427215, Note_off_c, 0, 29, 46
1, 1427245, Note_on_c, 0, 41, 36
1, 1427300, Control_c, 0, 67, 56
1, 1427323, Note_off_c, 0, 41, 50
1, 1427338, Note_on_c, 0, 61, 43
1, 1427343, Note_on_c, 0, 58, 53
1, 1427346, Note_on_c, 0, 65, 39
1, 1427357, Control_c, 0, 67, 50
1, 1427371, Note_on_c, 0, 29, 35
1, 1427394, Control_c, 0, 67, 45
1, 1427432, Control_c, 0, 67, 40
1, 1427440, Note_off_c, 0, 29, 52
1, 1427469, Control_c, 0, 67, 34
1, 1427483, Note_on_c, 0, 41, 43
1, 1427506, Control_c, 0, 67, 27
1, 1427525, Control_c, 0, 67, 22
1, 1427543, Control_c, 0, 67, 15
1, 1427551, Note_off_c, 0, 41, 54
1, 1427600, Control_c, 0, 67, 0
1, 1427612, Note_on_c, 0, 29, 35
1, 1427669, Note_off_c, 0, 29, 47
1, 1427701, Note_on_c, 0, 41, 41
1, 1427751, Note_off_c, 0, 41, 52
1, 1427817, Note_on_c, 0, 29, 36
1, 1427858, Note_off_c, 0, 29, 48
1, 1427898, Note_on_c, 0, 41, 34
1, 1427959, Note_off_c, 0, 41, 46
1, 1427991, Note_on_c, 0, 29, 43
1, 1428049, Note_off_c, 0, 29, 57
1, 1428138, Note_off_c, 0, 65, 38
1, 1428138, Poly_aftertouch_c, 0, 65, 0
1, 1428177, Note_off_c, 0, 58, 33
1, 1428177, Poly_aftertouch_c, 0, 58, 0
1, 1428216, Note_off_c, 0, 61, 37
1, 1428216, Poly_aftertouch_c, 0, 61, 0
1, 1428436, Note_on_c, 0, 34, 51
1, 1428530, Note_on_c, 0, 60, 54
1, 1428531, Note_on_c, 0, 65, 53
1, 1428535, Note_on_c, 0, 57, 53
1, 1428535, Control_c, 0, 64, 117
1, 1428536, Note_on_c, 0, 46, 64
1, 1428553, Control_c, 0, 64, 110
1, 1428573, Control_c, 0, 64, 102
1, 1428590, Control_c, 0, 64, 93
1, 1428610, Control_c, 0, 64, 82
1, 1428628, Control_c, 0, 64, 71
1, 1428647, Control_c, 0, 64, 63
1, 1428666, Control_c, 0, 64, 57
1, 1428685, Control_c, 0, 64, 50
1, 1428704, Control_c, 0, 64, 38
1, 1428721, Control_c, 0, 64, 12
1, 1428740, Control_c, 0, 64, 0
1, 1428815, Control_c, 0, 67, 8
1, 1428890, Control_c, 0, 64, 9
1, 1428909, Control_c, 0, 64, 18
1, 1428927, Control_c, 0, 64, 27
1, 1428945, Control_c, 0, 64, 40
1, 1428965, Control_c, 0, 64, 52
1, 1428983, Control_c, 0, 64, 61
1, 1429002, Control_c, 0, 64, 67
1, 1429020, Control_c, 0, 64, 69
1, 1429040, Control_c, 0, 64, 71
1, 1429042, Control_c, 0, 67, 12
1, 1429058, Control_c, 0, 64, 75
1, 1429078, Control_c, 0, 64, 79
1, 1429096, Control_c, 0, 64, 83
1, 1429115, Control_c, 0, 64, 87
1, 1429133, Control_c, 0, 67, 17
1, 1429152, Control_c, 0, 64, 92
1, 1429177, Note_off_c, 0, 46, 50
1, 1429189, Control_c, 0, 67, 21
1, 1429207, Control_c, 0, 64, 98
1, 1429228, Control_c, 0, 67, 26
1, 1429245, Control_c, 0, 64, 102
1, 1429261, Note_off_c, 0, 34, 35
1, 1429262, Control_c, 0, 67, 30
1, 1429339, Control_c, 0, 67, 34
1, 1429395, Control_c, 0, 67, 38
1, 1429544, Control_c, 0, 64, 97
1, 1429582, Control_c, 0, 64, 89
1, 1429600, Control_c, 0, 64, 82
1, 1429620, Control_c, 0, 64, 73
1, 1429622, Control_c, 0, 67, 43
1, 1429639, Control_c, 0, 64, 62
1, 1429640, Control_c, 0, 67, 48
1, 1429656, Control_c, 0, 64, 46
1, 1429658, Control_c, 0, 67, 55
1, 1429675, Control_c, 0, 64, 0
1, 1429678, Control_c, 0, 67, 63
1, 1429693, Control_c, 0, 67, 71
1, 1429713, Control_c, 0, 67, 79
1, 1429731, Control_c, 0, 67, 87
1, 1429750, Control_c, 0, 67, 95
1, 1429770, Control_c, 0, 64, 27
1, 1429771, Control_c, 0, 67, 102
1, 1429788, Control_c, 0, 64, 43
1, 1429789, Control_c, 0, 67, 107
1, 1429806, Control_c, 0, 64, 55
1, 1429825, Control_c, 0, 64, 67
1, 1429827, Control_c, 0, 67, 111
1, 1429843, Control_c, 0, 64, 75
1, 1429862, Control_c, 0, 64, 80
1, 1429881, Control_c, 0, 64, 86
1, 1429900, Control_c, 0, 64, 92
1, 1429919, Control_c, 0, 64, 100
1, 1429936, Control_c, 0, 64, 108
1, 1429956, Control_c, 0, 64, 115
1, 1429972, Note_off_c, 0, 60, 36
1, 1429972, Poly_aftertouch_c, 0, 60, 0
1, 1429974, Control_c, 0, 64, 119
1, 1430000, Note_off_c, 0, 65, 36
1, 1430000, Poly_aftertouch_c, 0, 65, 0
1, 1430212, Note_on_c, 0, 65, 43
1, 1430228, Note_on_c, 0, 63, 45
1, 1430237, Note_on_c, 0, 29, 44
1, 1430238, Note_on_c, 0, 60, 42
1, 1430255, Control_c, 0, 64, 110
1, 1430274, Control_c, 0, 64, 94
1, 1430292, Control_c, 0, 64, 76
1, 1430300, Note_off_c, 0, 29, 55
1, 1430311, Control_c, 0, 64, 65
1, 1430331, Control_c, 0, 64, 68
1, 1430348, Note_on_c, 0, 41, 42
1, 1430348, Control_c, 0, 64, 74
1, 1430367, Control_c, 0, 64, 81
1, 1430386, Control_c, 0, 64, 92
1, 1430392, Note_off_c, 0, 41, 53
1, 1430404, Control_c, 0, 64, 107
1, 1430424, Control_c, 0, 64, 122
1, 1430442, Note_on_c, 0, 29, 53
1, 1430442, Control_c, 0, 64, 127
1, 1430485, Note_off_c, 0, 29, 58
1, 1430508, Note_off_c, 0, 57, 53
1, 1430513, Note_on_c, 0, 41, 56
1, 1430543, Note_off_c, 0, 60, 60
1, 1430543, Poly_aftertouch_c, 0, 60, 0
1, 1430567, Note_off_c, 0, 65, 47
1, 1430567, Poly_aftertouch_c, 0, 65, 0
1, 1430571, Note_off_c, 0, 41, 55
1, 1430648, Control_c, 0, 64, 122
1, 1430655, Note_on_c, 0, 34, 53
1, 1430666, Control_c, 0, 64, 116
1, 1430685, Control_c, 0, 64, 110
1, 1430703, Control_c, 0, 64, 105
1, 1430723, Control_c, 0, 64, 100
1, 1430742, Control_c, 0, 64, 95
1, 1430755, Note_off_c, 0, 63, 36
1, 1430759, Control_c, 0, 64, 88
1, 1430778, Control_c, 0, 64, 81
1, 1430798, Control_c, 0, 64, 75
1, 1430816, Control_c, 0, 64, 69
1, 1430824, Note_on_c, 0, 61, 45
1, 1430833, Control_c, 0, 64, 65
1, 1430836, Note_on_c, 0, 65, 44
1, 1430836, Note_on_c, 0, 58, 44
1, 1430843, Note_on_c, 0, 46, 46
1, 1430847, Note_off_c, 0, 34, 35
1, 1430851, Control_c, 0, 64, 62
1, 1430872, Control_c, 0, 64, 60
1, 1430890, Control_c, 0, 64, 57
1, 1430910, Control_c, 0, 64, 55
1, 1430928, Control_c, 0, 64, 52
1, 1430965, Control_c, 0, 64, 48
1, 1431002, Control_c, 0, 64, 45
1, 1431022, Control_c, 0, 64, 43
1, 1431040, Control_c, 0, 64, 41
1, 1431226, Control_c, 0, 64, 43
1, 1431247, Control_c, 0, 64, 45
1, 1431265, Control_c, 0, 64, 49
1, 1431283, Control_c, 0, 64, 54
1, 1431302, Control_c, 0, 64, 59
1, 1431321, Control_c, 0, 64, 63
1, 1431339, Control_c, 0, 64, 67
1, 1431359, Control_c, 0, 64, 72
1, 1431377, Control_c, 0, 64, 77
1, 1431397, Control_c, 0, 64, 80
1, 1431414, Control_c, 0, 64, 83
1, 1431434, Control_c, 0, 64, 85
1, 1431452, Control_c, 0, 64, 89
1, 1431489, Control_c, 0, 64, 95
1, 1431490, Control_c, 0, 67, 117
1, 1431545, Control_c, 0, 67, 121
1, 1431572, Note_off_c, 0, 46, 28
1, 1431590, Note_off_c, 0, 65, 37
1, 1431590, Poly_aftertouch_c, 0, 65, 0
1, 1431621, Note_off_c, 0, 61, 36
1, 1431621, Poly_aftertouch_c, 0, 61, 0
1, 1431633, Note_off_c, 0, 58, 34
1, 1431633, Poly_aftertouch_c, 0, 58, 0
1, 1431658, Control_c, 0, 67, 125
1, 1431713, Control_c, 0, 64, 91
1, 1431788, Control_c, 0, 64, 87
1, 1431806, Control_c, 0, 64, 85
1, 1431825, Control_c, 0, 64, 83
1, 1431845, Control_c, 0, 64, 80
1, 1431863, Control_c, 0, 64, 78
1, 1431900, Control_c, 0, 64, 75
1, 1431920, Control_c, 0, 64, 72
1, 1431938, Control_c, 0, 64, 68
1, 1431957, Control_c, 0, 64, 64
1, 1431975, Control_c, 0, 64, 61
1, 1431994, Control_c, 0, 64, 58
1, 1432012, Control_c, 0, 64, 53
1, 1432031, Control_c, 0, 64, 44
1, 1432050, Control_c, 0, 64, 29
1, 1432087, Control_c, 0, 64, 0
1, 1432884, Note_on_c, 0, 77, 41
1, 1432901, Note_on_c, 0, 73, 37
1, 1433060, Control_c, 0, 64, 17
1, 1433079, Control_c, 0, 64, 27
1, 1433079, Control_c, 0, 67, 121
1, 1433096, Control_c, 0, 64, 36
1, 1433116, Control_c, 0, 64, 44
1, 1433134, Control_c, 0, 64, 50
1, 1433153, Control_c, 0, 64, 56
1, 1433171, Control_c, 0, 64, 61
1, 1433191, Control_c, 0, 64, 65
1, 1433209, Control_c, 0, 64, 68
1, 1433228, Control_c, 0, 64, 71
1, 1433247, Control_c, 0, 64, 73
1, 1433283, Control_c, 0, 64, 76
1, 1433303, Control_c, 0, 64, 78
1, 1433321, Control_c, 0, 64, 80
1, 1433340, Control_c, 0, 64, 83
1, 1433377, Control_c, 0, 64, 86
1, 1433415, Control_c, 0, 64, 92
1, 1433453, Control_c, 0, 64, 98
1, 1433508, Control_c, 0, 64, 102
1, 1433546, Control_c, 0, 64, 107
1, 1433583, Control_c, 0, 64, 114
1, 1433616, Note_off_c, 0, 73, 35
1, 1433639, Control_c, 0, 64, 118
1, 1433695, Control_c, 0, 64, 123
1, 1433808, Control_c, 0, 64, 127
1, 1434161, Note_on_c, 0, 70, 36
1, 1434162, Note_on_c, 0, 73, 36
1, 1434202, Control_c, 0, 64, 123
1, 1434256, Control_c, 0, 64, 119
1, 1434293, Control_c, 0, 64, 115
1, 1434332, Control_c, 0, 64, 107
1, 1434350, Control_c, 0, 64, 102
1, 1434368, Control_c, 0, 64, 97
1, 1434387, Control_c, 0, 64, 92
1, 1434395, Note_off_c, 0, 77, 33
1, 1434395, Poly_aftertouch_c, 0, 77, 0
1, 1434406, Control_c, 0, 64, 83
1, 1434424, Control_c, 0, 64, 73
1, 1434443, Control_c, 0, 64, 65
1, 1434462, Control_c, 0, 64, 60
1, 1434518, Control_c, 0, 64, 62
1, 1434537, Control_c, 0, 64, 64
1, 1434556, Control_c, 0, 64, 66
1, 1434574, Control_c, 0, 64, 69
1, 1434593, Control_c, 0, 64, 72
1, 1434611, Control_c, 0, 64, 74
1, 1434630, Control_c, 0, 64, 77
1, 1434648, Control_c, 0, 64, 80
1, 1434668, Control_c, 0, 64, 84
1, 1434687, Control_c, 0, 64, 89
1, 1434706, Control_c, 0, 64, 94
1, 1434724, Control_c, 0, 64, 99
1, 1434743, Control_c, 0, 64, 103
1, 1434780, Control_c, 0, 64, 107
1, 1434818, Control_c, 0, 64, 115
1, 1434836, Control_c, 0, 64, 120
1, 1434856, Control_c, 0, 64, 125
1, 1434863, Note_off_c, 0, 70, 29
1, 1434863, Poly_aftertouch_c, 0, 70, 0
1, 1434930, Control_c, 0, 67, 117
1, 1435203, Note_off_c, 0, 73, 43
1, 1435355, Note_on_c, 0, 70, 37
1, 1435366, Note_on_c, 0, 65, 29
1, 1435509, Control_c, 0, 64, 115
1, 1435528, Control_c, 0, 64, 103
1, 1435548, Control_c, 0, 64, 90
1, 1435565, Control_c, 0, 64, 76
1, 1435584, Control_c, 0, 64, 63
1, 1435602, Control_c, 0, 64, 53
1, 1435622, Control_c, 0, 64, 45
1, 1435639, Control_c, 0, 64, 43
1, 1435659, Control_c, 0, 64, 47
1, 1435678, Control_c, 0, 64, 53
1, 1435697, Control_c, 0, 64, 60
1, 1435715, Control_c, 0, 64, 67
1, 1435733, Control_c, 0, 64, 74
1, 1435753, Control_c, 0, 64, 81
1, 1435770, Control_c, 0, 64, 89
1, 1435789, Control_c, 0, 64, 97
1, 1435809, Control_c, 0, 64, 105
1, 1435827, Control_c, 0, 64, 114
1, 1435846, Control_c, 0, 64, 121
1, 1435849, Note_off_c, 0, 70, 44
1, 1435849, Poly_aftertouch_c, 0, 70, 0
1, 1435865, Control_c, 0, 64, 125
1, 1436098, Note_off_c, 0, 65, 41
1, 1436098, Poly_aftertouch_c, 0, 65, 0
1, 1436529, Note_on_c, 0, 65, 36
1, 1436548, Note_on_c, 0, 61, 36
1, 1436631, Control_c, 0, 64, 121
1, 1436649, Control_c, 0, 64, 115
1, 1436668, Control_c, 0, 64, 109
1, 1436687, Control_c, 0, 64, 101
1, 1436706, Control_c, 0, 64, 92
1, 1436724, Control_c, 0, 64, 80
1, 1436744, Control_c, 0, 64, 67
1, 1436762, Control_c, 0, 64, 60
1, 1436800, Control_c, 0, 64, 62
1, 1436819, Control_c, 0, 64, 66
1, 1436837, Control_c, 0, 64, 70
1, 1436855, Control_c, 0, 64, 75
1, 1436874, Control_c, 0, 64, 81
1, 1436894, Control_c, 0, 64, 89
1, 1436912, Control_c, 0, 64, 101
1, 1436930, Control_c, 0, 64, 113
1, 1436950, Control_c, 0, 64, 122
1, 1436968, Control_c, 0, 64, 127
1, 1437193, Note_off_c, 0, 61, 40
1, 1437193, Poly_aftertouch_c, 0, 61, 0
1, 1437788, Note_on_c, 0, 61, 36
1, 1437789, Note_on_c, 0, 58, 36
1, 1437793, Note_on_c, 0, 63, 41
1, 1437809, Control_c, 0, 64, 122
1, 1437829, Control_c, 0, 64, 112
1, 1437846, Control_c, 0, 64, 97
1, 1437866, Control_c, 0, 64, 78
1, 1437884, Control_c, 0, 64, 57
1, 1437903, Control_c, 0, 64, 28
1, 1437920, Control_c, 0, 64, 0
1, 1437939, Note_off_c, 0, 65, 32
1, 1437939, Poly_aftertouch_c, 0, 65, 0
1, 1438407, Note_on_c, 0, 27, 48
1, 1438463, Control_c, 0, 64, 33
1, 1438471, Note_off_c, 0, 27, 57
1, 1438471, Poly_aftertouch_c, 0, 27, 0
1, 1438484, Control_c, 0, 64, 48
1, 1438500, Control_c, 0, 64, 66
1, 1438503, Note_on_c, 0, 39, 48
1, 1438519, Control_c, 0, 64, 78
1, 1438540, Control_c, 0, 64, 88
1, 1438550, Note_off_c, 0, 39, 58
1, 1438557, Control_c, 0, 64, 96
1, 1438576, Control_c, 0, 64, 104
1, 1438593, Control_c, 0, 64, 112
1, 1438599, Note_on_c, 0, 27, 60
1, 1438613, Control_c, 0, 64, 119
1, 1438632, Control_c, 0, 64, 124
1, 1438644, Note_off_c, 0, 27, 62
1, 1438644, Poly_aftertouch_c, 0, 27, 0
1, 1438676, Note_on_c, 0, 39, 57
1, 1438697, Note_off_c, 0, 58, 30
1, 1438697, Poly_aftertouch_c, 0, 58, 0
1, 1438704, Note_off_c, 0, 63, 38
1, 1438731, Note_off_c, 0, 39, 57
1, 1438781, Control_c, 0, 64, 119
1, 1438800, Control_c, 0, 64, 114
1, 1438805, Note_on_c, 0, 32, 57
1, 1438819, Control_c, 0, 64, 108
1, 1438838, Control_c, 0, 64, 99
1, 1438856, Control_c, 0, 64, 91
1, 1438874, Control_c, 0, 64, 83
1, 1438894, Control_c, 0, 64, 73
1, 1438908, Note_on_c, 0, 58, 41
1, 1438909, Note_on_c, 0, 63, 44
1, 1438913, Control_c, 0, 64, 63
1, 1438920, Note_on_c, 0, 55, 40
1, 1438931, Note_on_c, 0, 44, 58
1, 1438931, Control_c, 0, 64, 53
1, 1438939, Note_off_c, 0, 61, 49
1, 1438939, Poly_aftertouch_c, 0, 61, 0
1, 1438950, Control_c, 0, 64, 40
1, 1438968, Control_c, 0, 64, 15
1, 1438987, Control_c, 0, 64, 0
1, 1439053, Note_off_c, 0, 32, 28
1, 1439941, Control_c, 0, 64, 11
1, 1439979, Control_c, 0, 64, 18
1, 1440017, Note_off_c, 0, 44, 56
1, 1440071, Control_c, 0, 64, 23
1, 1440091, Control_c, 0, 64, 28
1, 1440109, Control_c, 0, 64, 34
1, 1440128, Control_c, 0, 64, 38
1, 1440147, Control_c, 0, 64, 40
1, 1440166, Control_c, 0, 64, 43
1, 1440184, Control_c, 0, 64, 47
1, 1440203, Control_c, 0, 64, 51
1, 1440221, Control_c, 0, 64, 56
1, 1440240, Control_c, 0, 64, 60
1, 1440259, Control_c, 0, 64, 64
1, 1440277, Control_c, 0, 64, 69
1, 1440296, Control_c, 0, 64, 73
1, 1440315, Control_c, 0, 64, 77
1, 1440333, Control_c, 0, 64, 79
1, 1440353, Control_c, 0, 64, 82
1, 1440371, Control_c, 0, 64, 86
1, 1440390, Control_c, 0, 64, 90
1, 1440412, Note_off_c, 0, 63, 37
1, 1440421, Note_off_c, 0, 58, 36
1, 1440421, Poly_aftertouch_c, 0, 58, 0
1, 1440426, Control_c, 0, 64, 96
1, 1440464, Control_c, 0, 64, 101
1, 1440683, Note_on_c, 0, 63, 40
1, 1440701, Note_on_c, 0, 61, 28
1, 1440705, Note_on_c, 0, 58, 33
1, 1440710, Note_on_c, 0, 27, 40
1, 1440726, Control_c, 0, 64, 96
1, 1440745, Control_c, 0, 64, 86
1, 1440763, Control_c, 0, 64, 73
1, 1440782, Control_c, 0, 64, 63
1, 1440801, Note_off_c, 0, 27, 58
1, 1440801, Poly_aftertouch_c, 0, 27, 0
1, 1440801, Control_c, 0, 64, 66
1, 1440819, Control_c, 0, 64, 73
1, 1440839, Control_c, 0, 64, 80
1, 1440843, Note_on_c, 0, 39, 40
1, 1440857, Control_c, 0, 64, 90
1, 1440876, Control_c, 0, 64, 103
1, 1440878, Control_c, 0, 67, 112
1, 1440889, Note_off_c, 0, 39, 55
1, 1440896, Control_c, 0, 64, 116
1, 1440913, Control_c, 0, 64, 126
1, 1440914, Control_c, 0, 67, 108
1, 1440941, Note_off_c, 0, 55, 58
1, 1440941, Note_on_c, 0, 27, 55
1, 1440949, Control_c, 0, 67, 102
1, 1440969, Note_off_c, 0, 58, 37
1, 1440969, Poly_aftertouch_c, 0, 58, 0
1, 1440982, Note_off_c, 0, 27, 60
1, 1440982, Poly_aftertouch_c, 0, 27, 0
1, 1440987, Control_c, 0, 67, 98
1, 1441010, Note_on_c, 0, 39, 58
1, 1441045, Control_c, 0, 67, 93
1, 1441047, Note_off_c, 0, 63, 50
1, 1441064, Note_off_c, 0, 39, 59
1, 1441119, Control_c, 0, 64, 119
1, 1441128, Note_on_c, 0, 32, 53
1, 1441137, Control_c, 0, 64, 113
1, 1441156, Control_c, 0, 64, 107
1, 1441166, Note_off_c, 0, 61, 40
1, 1441166, Poly_aftertouch_c, 0, 61, 0
1, 1441175, Control_c, 0, 64, 100
1, 1441195, Control_c, 0, 64, 92
1, 1441212, Control_c, 0, 64, 84
1, 1441231, Control_c, 0, 64, 74
1, 1441245, Note_off_c, 0, 32, 54
1, 1441248, Note_on_c, 0, 56, 39
1, 1441248, Note_on_c, 0, 63, 44
1, 1441250, Control_c, 0, 64, 66
1, 1441257, Note_on_c, 0, 60, 40
1, 1441266, Note_on_c, 0, 44, 44
1, 1441268, Control_c, 0, 64, 60
1, 1441288, Control_c, 0, 64, 54
1, 1441305, Control_c, 0, 64, 44
1, 1441325, Control_c, 0, 64, 28
1, 1441343, Control_c, 0, 64, 0
1, 1441698, Control_c, 0, 64, 21
1, 1441717, Control_c, 0, 64, 31
1, 1441736, Control_c, 0, 64, 40
1, 1441754, Control_c, 0, 64, 50
1, 1441773, Control_c, 0, 64, 60
1, 1441792, Control_c, 0, 64, 68
1, 1441810, Control_c, 0, 64, 73
1, 1441830, Control_c, 0, 64, 75
1, 1441867, Control_c, 0, 64, 78
1, 1441887, Control_c, 0, 64, 82
1, 1441888, Control_c, 0, 67, 89
1, 1441905, Control_c, 0, 64, 87
1, 1441923, Control_c, 0, 64, 92
1, 1441924, Control_c, 0, 67, 84
1, 1441960, Control_c, 0, 64, 98
1, 1441961, Control_c, 0, 67, 80
1, 1442008, Note_off_c, 0, 44, 34
1, 1442031, Note_off_c, 0, 60, 41
1, 1442031, Poly_aftertouch_c, 0, 60, 0
1, 1442034, Control_c, 0, 67, 76
1, 1442106, Note_off_c, 0, 56, 30
1, 1442129, Control_c, 0, 67, 72
1, 1442204, Control_c, 0, 67, 67
1, 1442238, Note_off_c, 0, 63, 36
1, 1442278, Control_c, 0, 64, 93
1, 1442315, Control_c, 0, 64, 89
1, 1442353, Control_c, 0, 64, 86
1, 1442391, Control_c, 0, 64, 83
1, 1442428, Control_c, 0, 64, 80
1, 1442466, Control_c, 0, 64, 77
1, 1442484, Control_c, 0, 64, 75
1, 1442485, Control_c, 0, 67, 63
1, 1442502, Control_c, 0, 64, 72
1, 1442521, Control_c, 0, 64, 69
1, 1442522, Control_c, 0, 67, 59
1, 1442540, Control_c, 0, 64, 66
1, 1442558, Control_c, 0, 64, 65
1, 1442559, Control_c, 0, 67, 53
1, 1442577, Control_c, 0, 64, 62
1, 1442596, Control_c, 0, 64, 58
1, 1442614, Control_c, 0, 64, 51
1, 1442616, Control_c, 0, 67, 48
1, 1442634, Control_c, 0, 64, 43
1, 1442652, Control_c, 0, 64, 31
1, 1442654, Control_c, 0, 67, 44
1, 1442671, Control_c, 0, 64, 19
1, 1442691, Control_c, 0, 64, 0
1, 1442692, Control_c, 0, 67, 39
1, 1442727, Control_c, 0, 67, 35
1, 1442764, Control_c, 0, 67, 30
1, 1442802, Control_c, 0, 67, 24
1, 1442839, Control_c, 0, 67, 19
1, 1442894, Control_c, 0, 67, 14
1, 1442970, Control_c, 0, 67, 10
1, 1443001, Note_on_c, 0, 63, 37
1, 1443002, Note_on_c, 0, 59, 33
1, 1443020, Note_on_c, 0, 56, 34
1, 1443269, Control_c, 0, 64, 21
1, 1443288, Control_c, 0, 64, 33
1, 1443306, Control_c, 0, 64, 45
1, 1443325, Control_c, 0, 64, 56
1, 1443344, Control_c, 0, 64, 65
1, 1443362, Control_c, 0, 64, 70
1, 1443382, Control_c, 0, 64, 74
1, 1443383, Control_c, 0, 67, 0
1, 1443400, Control_c, 0, 64, 78
1, 1443419, Control_c, 0, 64, 82
1, 1443438, Control_c, 0, 64, 88
1, 1443456, Control_c, 0, 64, 97
1, 1443476, Control_c, 0, 64, 108
1, 1443493, Control_c, 0, 64, 116
1, 1443511, Control_c, 0, 64, 122
1, 1443517, Note_on_c, 0, 65, 52
1, 1443531, Control_c, 0, 64, 127
1, 1443740, Note_off_c, 0, 63, 35
1, 1443843, Note_off_c, 0, 59, 38
1, 1443904, Note_off_c, 0, 56, 37
1, 1444057, Note_on_c, 0, 66, 56
1, 1444082, Note_on_c, 0, 63, 44
1, 1444099, Note_on_c, 0, 58, 36
1, 1444102, Note_on_c, 0, 51, 36
1, 1444163, Note_off_c, 0, 65, 48
1, 1444163, Poly_aftertouch_c, 0, 65, 0
1, 1444187, Control_c, 0, 64, 122
1, 1444204, Control_c, 0, 64, 112
1, 1444223, Control_c, 0, 64, 100
1, 1444241, Control_c, 0, 64, 87
1, 1444260, Control_c, 0, 64, 71
1, 1444279, Control_c, 0, 64, 55
1, 1444297, Control_c, 0, 64, 31
1, 1444315, Control_c, 0, 64, 0
1, 1444372, Control_c, 0, 64, 28
1, 1444391, Control_c, 0, 64, 48
1, 1444410, Control_c, 0, 64, 66
1, 1444428, Control_c, 0, 64, 80
1, 1444447, Control_c, 0, 64, 94
1, 1444465, Control_c, 0, 64, 111
1, 1444485, Control_c, 0, 64, 127
1, 1444667, Note_off_c, 0, 63, 35
1, 1444738, Note_off_c, 0, 66, 48
1, 1444738, Poly_aftertouch_c, 0, 66, 0
1, 1444845, Note_off_c, 0, 58, 34
1, 1444845, Poly_aftertouch_c, 0, 58, 0
1, 1444937, Note_off_c, 0, 51, 41
1, 1445129, Note_on_c, 0, 70, 70
1, 1445155, Note_on_c, 0, 65, 48
1, 1445160, Note_on_c, 0, 58, 47
1, 1445172, Note_on_c, 0, 49, 43
1, 1445269, Control_c, 0, 64, 118
1, 1445289, Control_c, 0, 64, 98
1, 1445307, Control_c, 0, 64, 77
1, 1445325, Control_c, 0, 64, 62
1, 1445345, Control_c, 0, 64, 58
1, 1445363, Control_c, 0, 64, 63
1, 1445382, Control_c, 0, 64, 71
1, 1445400, Control_c, 0, 64, 82
1, 1445420, Control_c, 0, 64, 100
1, 1445438, Control_c, 0, 64, 127
1, 1445761, Note_off_c, 0, 49, 29
1, 1445761, Poly_aftertouch_c, 0, 49, 0
1, 1445863, Note_off_c, 0, 65, 36
1, 1445863, Poly_aftertouch_c, 0, 65, 0
1, 1445905, Note_off_c, 0, 58, 38
1, 1445905, Poly_aftertouch_c, 0, 58, 0
1, 1446257, Note_on_c, 0, 75, 76
1, 1446288, Note_on_c, 0, 58, 54
1, 1446290, Note_on_c, 0, 66, 47
1, 1446296, Note_on_c, 0, 48, 50
1, 1446377, Note_off_c, 0, 70, 59
1, 1446377, Poly_aftertouch_c, 0, 70, 0
1, 1446391, Control_c, 0, 64, 116
1, 1446411, Control_c, 0, 64, 101
1, 1446429, Control_c, 0, 64, 82
1, 1446448, Control_c, 0, 64, 62
1, 1446467, Control_c, 0, 64, 42
1, 1446485, Control_c, 0, 64, 16
1, 1446505, Control_c, 0, 64, 10
1, 1446522, Control_c, 0, 64, 22
1, 1446541, Control_c, 0, 64, 41
1, 1446560, Control_c, 0, 64, 63
1, 1446578, Control_c, 0, 64, 83
1, 1446598, Control_c, 0, 64, 104
1, 1446616, Control_c, 0, 64, 127
1, 1446964, Note_off_c, 0, 48, 39
1, 1447037, Note_off_c, 0, 75, 58
1, 1447044, Note_off_c, 0, 66, 47
1, 1447044, Poly_aftertouch_c, 0, 66, 0
1, 1447267, Note_off_c, 0, 58, 40
1, 1447267, Poly_aftertouch_c, 0, 58, 0
1, 1447448, Note_on_c, 0, 77, 81
1, 1447451, Note_on_c, 0, 75, 76
1, 1447470, Note_on_c, 0, 65, 64
1, 1447475, Note_on_c, 0, 57, 61
1, 1447481, Note_on_c, 0, 47, 57
1, 1447532, Control_c, 0, 64, 117
1, 1447551, Control_c, 0, 64, 102
1, 1447570, Control_c, 0, 64, 83
1, 1447589, Control_c, 0, 64, 61
1, 1447607, Control_c, 0, 64, 35
1, 1447626, Control_c, 0, 64, 0
1, 1447738, Control_c, 0, 64, 19
1, 1447758, Control_c, 0, 64, 45
1, 1447775, Control_c, 0, 64, 63
1, 1447794, Control_c, 0, 64, 77
1, 1447812, Control_c, 0, 64, 91
1, 1447832, Control_c, 0, 64, 112
1, 1447850, Control_c, 0, 64, 127
1, 1448364, Note_off_c, 0, 57, 31
1, 1448381, Note_off_c, 0, 47, 31
1, 1448484, Note_off_c, 0, 75, 58
1, 1448491, Note_off_c, 0, 77, 39
1, 1448491, Poly_aftertouch_c, 0, 77, 0
1, 1448545, Note_off_c, 0, 65, 35
1, 1448545, Poly_aftertouch_c, 0, 65, 0
1, 1448834, Note_on_c, 0, 77, 82
1, 1448848, Note_on_c, 0, 74, 75
1, 1448853, Note_on_c, 0, 65, 71
1, 1448860, Note_on_c, 0, 58, 75
1, 1448863, Note_on_c, 0, 46, 71
1, 1448916, Control_c, 0, 64, 114
1, 1448934, Control_c, 0, 64, 101
1, 1448953, Control_c, 0, 64, 84
1, 1448972, Control_c, 0, 64, 65
1, 1448992, Control_c, 0, 64, 45
1, 1449009, Control_c, 0, 64, 0
1, 1449121, Control_c, 0, 64, 31
1, 1449140, Control_c, 0, 64, 52
1, 1449159, Control_c, 0, 64, 70
1, 1449178, Control_c, 0, 64, 82
1, 1449196, Control_c, 0, 64, 95
1, 1449215, Control_c, 0, 64, 109
1, 1449234, Control_c, 0, 64, 120
1, 1449252, Control_c, 0, 64, 127
1, 1449366, Note_off_c, 0, 46, 63
1, 1449601, Note_off_c, 0, 58, 31
1, 1449601, Poly_aftertouch_c, 0, 58, 0
1, 1449814, Control_c, 0, 64, 123
1, 1449851, Control_c, 0, 64, 117
1, 1449944, Control_c, 0, 64, 113
1, 1450000, Control_c, 0, 64, 107
1, 1450039, Control_c, 0, 64, 102
1, 1450075, Control_c, 0, 64, 96
1, 1450096, Control_c, 0, 64, 91
1, 1450113, Control_c, 0, 64, 84
1, 1450132, Control_c, 0, 64, 76
1, 1450150, Control_c, 0, 64, 65
1, 1450169, Control_c, 0, 64, 51
1, 1450187, Control_c, 0, 64, 28
1, 1450206, Control_c, 0, 64, 0
1, 1450244, Control_c, 0, 64, 16
1, 1450262, Control_c, 0, 64, 34
1, 1450281, Control_c, 0, 64, 48
1, 1450300, Control_c, 0, 64, 60
1, 1450319, Control_c, 0, 64, 72
1, 1450336, Control_c, 0, 64, 82
1, 1450357, Control_c, 0, 64, 92
1, 1450375, Control_c, 0, 64, 102
1, 1450393, Control_c, 0, 64, 110
1, 1450412, Control_c, 0, 64, 123
1, 1450420, Note_off_c, 0, 65, 51
1, 1450420, Poly_aftertouch_c, 0, 65, 0
1, 1450430, Control_c, 0, 64, 127
1, 1450460, Note_off_c, 0, 74, 39
1, 1450625, Note_on_c, 0, 74, 58
1, 1450629, Note_on_c, 0, 34, 75
1, 1450641, Note_on_c, 0, 70, 51
1, 1450648, Note_on_c, 0, 65, 46
1, 1450693, Control_c, 0, 64, 115
1, 1450711, Control_c, 0, 64, 91
1, 1450717, Note_off_c, 0, 34, 60
1, 1450731, Control_c, 0, 64, 74
1, 1450768, Control_c, 0, 64, 84
1, 1450782, Note_off_c, 0, 77, 56
1, 1450782, Poly_aftertouch_c, 0, 77, 0
1, 1450785, Control_c, 0, 64, 102
1, 1450794, Note_on_c, 0, 34, 69
1, 1450804, Control_c, 0, 64, 127
1, 1450872, Note_off_c, 0, 34, 61
1, 1450957, Note_off_c, 0, 70, 59
1, 1450957, Poly_aftertouch_c, 0, 70, 0
1, 1450966, Note_on_c, 0, 34, 73
1, 1450999, Note_off_c, 0, 65, 62
1, 1450999, Poly_aftertouch_c, 0, 65, 0
1, 1451066, Note_off_c, 0, 34, 59
1, 1451197, Note_on_c, 0, 65, 53
1, 1451201, Note_on_c, 0, 70, 67
1, 1451208, Note_on_c, 0, 46, 83
1, 1451215, Note_on_c, 0, 62, 59
1, 1451292, Control_c, 0, 64, 110
1, 1451309, Control_c, 0, 64, 95
1, 1451329, Control_c, 0, 64, 79
1, 1451346, Control_c, 0, 64, 65
1, 1451366, Control_c, 0, 64, 53
1, 1451371, Note_off_c, 0, 74, 37
1, 1451384, Control_c, 0, 64, 29
1, 1451403, Control_c, 0, 64, 0
1, 1451552, Control_c, 0, 64, 18
1, 1451571, Control_c, 0, 64, 32
1, 1451590, Control_c, 0, 64, 51
1, 1451609, Control_c, 0, 64, 72
1, 1451627, Control_c, 0, 64, 90
1, 1451646, Control_c, 0, 64, 108
1, 1451667, Control_c, 0, 64, 124
1, 1451704, Note_off_c, 0, 62, 50
1, 1451738, Note_off_c, 0, 46, 60
1, 1451756, Note_off_c, 0, 65, 57
1, 1451756, Poly_aftertouch_c, 0, 65, 0
1, 1451904, Note_off_c, 0, 70, 53
1, 1451904, Poly_aftertouch_c, 0, 70, 0
1, 1452113, Control_c, 0, 64, 117
1, 1452133, Control_c, 0, 64, 109
1, 1452150, Control_c, 0, 64, 102
1, 1452169, Control_c, 0, 64, 93
1, 1452189, Control_c, 0, 64, 83
1, 1452208, Control_c, 0, 64, 73
1, 1452225, Control_c, 0, 64, 65
1, 1452244, Control_c, 0, 64, 56
1, 1452263, Control_c, 0, 64, 42
1, 1452282, Control_c, 0, 64, 0
1, 1452559, Note_on_c, 0, 70, 94
1, 1452560, Control_c, 0, 64, 28
1, 1452581, Control_c, 0, 64, 78
1, 1452598, Note_on_c, 0, 58, 70
1, 1452599, Control_c, 0, 64, 121
1, 1452618, Control_c, 0, 64, 127
1, 1452793, Note_off_c, 0, 58, 50
1, 1452793, Poly_aftertouch_c, 0, 58, 0
1, 1452831, Note_off_c, 0, 70, 59
1, 1452831, Poly_aftertouch_c, 0, 70, 0
1, 1452923, Note_on_c, 0, 72, 93
1, 1452928, Note_on_c, 0, 70, 90
1, 1452932, Note_on_c, 0, 69, 88
1, 1452934, Note_on_c, 0, 57, 85
1, 1453053, Note_off_c, 0, 57, 59
1, 1453054, Note_off_c, 0, 69, 55
1, 1453054, Poly_aftertouch_c, 0, 69, 0
1, 1453115, Note_off_c, 0, 70, 55
1, 1453115, Poly_aftertouch_c, 0, 70, 0
1, 1453162, Note_off_c, 0, 72, 59
1, 1453209, Note_on_c, 0, 74, 98
1, 1453218, Note_on_c, 0, 68, 100
1, 1453218, Note_on_c, 0, 56, 94
1, 1453219, Note_on_c, 0, 70, 97
1, 1453409, Note_off_c, 0, 70, 56
1, 1453409, Poly_aftertouch_c, 0, 70, 0
1, 1453438, Note_off_c, 0, 68, 55
1, 1453438, Poly_aftertouch_c, 0, 68, 0
1, 1453466, Note_off_c, 0, 56, 54
1, 1453510, Note_off_c, 0, 74, 50
1, 1453603, Note_on_c, 0, 75, 102
1, 1453610, Note_on_c, 0, 70, 95
1, 1453618, Note_on_c, 0, 66, 105
1, 1453621, Note_on_c, 0, 54, 97
1, 1453628, Control_c, 0, 64, 99
1, 1453647, Control_c, 0, 64, 0
1, 1453740, Control_c, 0, 64, 74
1, 1453759, Control_c, 0, 64, 109
1, 1453777, Control_c, 0, 64, 127
1, 1454149, Note_off_c, 0, 66, 47
1, 1454149, Poly_aftertouch_c, 0, 66, 0
1, 1454192, Note_off_c, 0, 75, 55
1, 1454426, Note_off_c, 0, 70, 45
1, 1454426, Poly_aftertouch_c, 0, 70, 0
1, 1454441, Poly_aftertouch_c, 0, 54, 24
1, 1454478, Note_off_c, 0, 54, 41
1, 1454478, Poly_aftertouch_c, 0, 54, 0
1, 1454688, Note_on_c, 0, 78, 101
1, 1454689, Note_on_c, 0, 70, 101
1, 1454694, Note_on_c, 0, 75, 93
1, 1454711, Note_on_c, 0, 63, 105
1, 1454716, Note_on_c, 0, 51, 98
1, 1454731, Control_c, 0, 64, 95
1, 1454751, Control_c, 0, 64, 41
1, 1454768, Control_c, 0, 64, 0
1, 1454808, Control_c, 0, 64, 20
1, 1454825, Control_c, 0, 64, 71
1, 1454843, Control_c, 0, 64, 106
1, 1454862, Control_c, 0, 64, 127
1, 1455483, Note_off_c, 0, 63, 47
1, 1455575, Note_off_c, 0, 70, 48
1, 1455575, Poly_aftertouch_c, 0, 70, 0
1, 1455602, Note_off_c, 0, 78, 54
1, 1455620, Note_off_c, 0, 51, 50
1, 1455684, Note_off_c, 0, 75, 54
1, 1455861, Note_on_c, 0, 82, 98
1, 1455863, Note_on_c, 0, 70, 102
1, 1455865, Note_on_c, 0, 77, 87
1, 1455876, Note_on_c, 0, 61, 112
1, 1455877, Note_on_c, 0, 49, 98
1, 1455893, Control_c, 0, 64, 94
1, 1455909, Control_c, 0, 64, 10
1, 1455928, Control_c, 0, 64, 0
1, 1455984, Control_c, 0, 64, 48
1, 1456003, Control_c, 0, 64, 96
1, 1456021, Control_c, 0, 64, 127
1, 1456329, Note_off_c, 0, 70, 60
1, 1456329, Poly_aftertouch_c, 0, 70, 0
1, 1456411, Note_off_c, 0, 77, 54
1, 1456411, Poly_aftertouch_c, 0, 77, 0
1, 1456587, Note_off_c, 0, 82, 62
1, 1456672, Note_off_c, 0, 49, 51
1, 1456672, Poly_aftertouch_c, 0, 49, 0
1, 1456691, Note_off_c, 0, 61, 55
1, 1456691, Poly_aftertouch_c, 0, 61, 0
1, 1457098, Note_on_c, 0, 87, 100
1, 1457103, Note_on_c, 0, 75, 110
1, 1457104, Note_on_c, 0, 82, 95
1, 1457104, Note_on_c, 0, 78, 99
1, 1457122, Note_on_c, 0, 60, 110
1, 1457123, Note_on_c, 0, 48, 96
1, 1457129, Control_c, 0, 64, 108
1, 1457144, Control_c, 0, 64, 31
1, 1457161, Control_c, 0, 64, 0
1, 1457255, Control_c, 0, 64, 73
1, 1457274, Control_c, 0, 64, 118
1, 1457294, Control_c, 0, 64, 127
1, 1457703, Note_off_c, 0, 48, 44
1, 1457779, Note_off_c, 0, 60, 35
1, 1457779, Poly_aftertouch_c, 0, 60, 0
1, 1457786, Note_off_c, 0, 82, 58
1, 1457791, Note_off_c, 0, 78, 58
1, 1457925, Note_off_c, 0, 75, 53
1, 1458029, Note_off_c, 0, 87, 62
1, 1458029, Poly_aftertouch_c, 0, 87, 0
1, 1458466, Note_on_c, 0, 86, 93
1, 1458466, Note_on_c, 0, 89, 99
1, 1458467, Note_on_c, 0, 77, 108
1, 1458468, Note_on_c, 0, 82, 101
1, 1458489, Note_on_c, 0, 58, 114
1, 1458492, Note_on_c, 0, 46, 101
1, 1458496, Control_c, 0, 64, 118
1, 1458510, Control_c, 0, 64, 42
1, 1458527, Control_c, 0, 64, 0
1, 1458549, Note_on_c, 0, 51, 10
1, 1458550, Note_off_c, 0, 51, 127
1, 1458621, Control_c, 0, 64, 67
1, 1458639, Control_c, 0, 64, 111
1, 1458658, Control_c, 0, 64, 127
1, 1458911, Note_off_c, 0, 46, 61
1, 1458971, Note_off_c, 0, 58, 55
1, 1458971, Poly_aftertouch_c, 0, 58, 0
1, 1458997, Poly_aftertouch_c, 0, 52, 0
1, 1459574, Control_c, 0, 64, 119
1, 1459593, Control_c, 0, 64, 67
1, 1459611, Control_c, 0, 64, 0
1, 1459710, Note_off_c, 0, 86, 59
1, 1459724, Control_c, 0, 64, 15
1, 1459735, Note_off_c, 0, 82, 60
1, 1459741, Control_c, 0, 64, 127
1, 1459758, Note_off_c, 0, 89, 58
1, 1459921, Note_off_c, 0, 77, 53
1, 1459921, Poly_aftertouch_c, 0, 77, 0
1, 1460155, Note_on_c, 0, 82, 87
1, 1460155, Note_on_c, 0, 86, 96
1, 1460155, Note_on_c, 0, 74, 96
1, 1460156, Note_on_c, 0, 77, 87
1, 1460165, Note_on_c, 0, 34, 98
1, 1460191, Control_c, 0, 64, 81
1, 1460210, Control_c, 0, 64, 0
1, 1460234, Note_off_c, 0, 34, 65
1, 1460247, Control_c, 0, 64, 45
1, 1460267, Control_c, 0, 64, 100
1, 1460284, Control_c, 0, 64, 127
1, 1460320, Note_on_c, 0, 34, 94
1, 1460369, Note_off_c, 0, 86, 62
1, 1460379, Note_off_c, 0, 34, 64
1, 1460380, Note_off_c, 0, 77, 59
1, 1460380, Poly_aftertouch_c, 0, 77, 0
1, 1460408, Note_off_c, 0, 82, 64
1, 1460425, Note_off_c, 0, 74, 64
1, 1460471, Note_on_c, 0, 34, 97
1, 1460540, Note_off_c, 0, 34, 62
1, 1460729, Note_on_c, 0, 82, 100
1, 1460730, Note_on_c, 0, 70, 105
1, 1460733, Note_on_c, 0, 74, 90
1, 1460735, Note_on_c, 0, 77, 84
1, 1460751, Control_c, 0, 64, 106
1, 1460755, Note_on_c, 0, 46, 108
1, 1460772, Control_c, 0, 64, 33
1, 1460791, Control_c, 0, 64, 0
1, 1460865, Control_c, 0, 64, 58
1, 1460883, Control_c, 0, 64, 121
1, 1460902, Control_c, 0, 64, 127
1, 1461064, Note_off_c, 0, 46, 66
1, 1461234, Note_off_c, 0, 74, 53
1, 1461241, Note_off_c, 0, 70, 56
1, 1461241, Poly_aftertouch_c, 0, 70, 0
1, 1461318, Note_off_c, 0, 77, 57
1, 1461318, Poly_aftertouch_c, 0, 77, 0
1, 1461412, Note_off_c, 0, 82, 53
1, 1461875, Control_c, 0, 64, 121
1, 1461892, Control_c, 0, 64, 60
1, 1461911, Control_c, 0, 64, 0
1, 1462566, Control_c, 0, 64, 84
1, 1462576, Note_on_c, 0, 82, 114
1, 1462577, Note_on_c, 0, 70, 111
1, 1462585, Control_c, 0, 64, 127
1, 1462622, Note_off_c, 0, 70, 68
1, 1462622, Poly_aftertouch_c, 0, 70, 0
1, 1462631, Note_off_c, 0, 82, 62
1, 1462745, Note_on_c, 0, 82, 108
1, 1462748, Note_on_c, 0, 70, 108
1, 1462796, Note_off_c, 0, 70, 67
1, 1462796, Poly_aftertouch_c, 0, 70, 0
1, 1462801, Note_off_c, 0, 82, 65
1, 1462885, Note_on_c, 0, 70, 108
1, 1462885, Note_on_c, 0, 82, 108
1, 1462934, Note_off_c, 0, 70, 56
1, 1462934, Poly_aftertouch_c, 0, 70, 0
1, 1462948, Note_off_c, 0, 82, 61
1, 1463129, Note_on_c, 0, 78, 108
1, 1463129, Note_on_c, 0, 90, 100
1, 1463131, Note_on_c, 0, 84, 93
1, 1463131, Note_on_c, 0, 82, 97
1, 1463132, Note_on_c, 0, 70, 106
1, 1463133, Note_on_c, 0, 72, 106
1, 1463136, Note_on_c, 0, 63, 94
1, 1463145, Control_c, 0, 64, 122
1, 1463165, Control_c, 0, 64, 56
1, 1463175, Note_on_c, 0, 64, 51
1, 1463182, Control_c, 0, 64, 0
1, 1463211, Note_off_c, 0, 64, 39
1, 1463246, Poly_aftertouch_c, 0, 74, 0
1, 1463558, Control_c, 0, 64, 25
1, 1463576, Control_c, 0, 64, 45
1, 1463595, Control_c, 0, 64, 66
1, 1463614, Control_c, 0, 64, 81
1, 1463631, Control_c, 0, 64, 95
1, 1463650, Control_c, 0, 64, 113
1, 1463669, Control_c, 0, 64, 127
1, 1464479, Note_off_c, 0, 63, 60
1, 1464742, Note_off_c, 0, 82, 51
1, 1464916, Note_off_c, 0, 70, 48
1, 1464916, Poly_aftertouch_c, 0, 70, 0
1, 1464952, Note_off_c, 0, 72, 47
1, 1465232, Note_off_c, 0, 84, 38
1, 1465261, Note_off_c, 0, 90, 62
1, 1465263, Note_off_c, 0, 78, 57
1, 1465464, Control_c, 0, 64, 121
1, 1465468, Note_on_c, 0, 89, 99
1, 1465469, Note_on_c, 0, 77, 108
1, 1465472, Note_on_c, 0, 81, 93
1, 1465473, Note_on_c, 0, 84, 92
1, 1465476, Note_on_c, 0, 72, 96
1, 1465477, Note_on_c, 0, 65, 84
1, 1465477, Note_on_c, 0, 75, 106
1, 1465483, Control_c, 0, 64, 53
1, 1465505, Control_c, 0, 64, 0
1, 1465577, Control_c, 0, 64, 29
1, 1465595, Control_c, 0, 64, 83
1, 1465615, Control_c, 0, 64, 117
1, 1465632, Control_c, 0, 64, 127
1, 1465902, Note_off_c, 0, 75, 61
1, 1466074, Note_off_c, 0, 65, 51
1, 1466074, Poly_aftertouch_c, 0, 65, 0
1, 1466114, Note_off_c, 0, 72, 40
1, 1466606, Control_c, 0, 64, 105
1, 1466624, Control_c, 0, 64, 37
1, 1466642, Control_c, 0, 64, 0
1, 1467105, Note_off_c, 0, 81, 60
1, 1467113, Note_off_c, 0, 89, 51
1, 1467127, Note_off_c, 0, 84, 60
1, 1467137, Note_on_c, 0, 41, 110
1, 1467145, Control_c, 0, 64, 62
1, 1467166, Control_c, 0, 64, 127
1, 1467184, Note_off_c, 0, 41, 66
1, 1467273, Note_off_c, 0, 77, 54
1, 1467273, Poly_aftertouch_c, 0, 77, 0
1, 1467283, Note_on_c, 0, 41, 102
1, 1467327, Note_off_c, 0, 41, 68
1, 1467419, Note_on_c, 0, 41, 102
1, 1467454, Note_off_c, 0, 41, 63
1, 1467612, Note_on_c, 0, 86, 102
1, 1467613, Note_on_c, 0, 77, 99
1, 1467613, Note_on_c, 0, 74, 106
1, 1467613, Note_on_c, 0, 82, 98
1, 1467635, Note_on_c, 0, 46, 110
1, 1467638, Note_on_c, 0, 34, 98
1, 1467638, Control_c, 0, 64, 93
1, 1467653, Control_c, 0, 64, 0
1, 1467686, Note_on_c, 0, 37, 26
1, 1467687, Note_off_c, 0, 37, 127
1, 1467758, Poly_aftertouch_c, 0, 37, 0
1, 1467765, Control_c, 0, 64, 108
1, 1467783, Control_c, 0, 64, 127
1, 1468633, Note_off_c, 0, 46, 44
1, 1468693, Note_off_c, 0, 34, 56
1, 1468718, Control_c, 0, 64, 115
1, 1468736, Control_c, 0, 64, 53
1, 1468754, Control_c, 0, 64, 0
1, 1469242, Note_on_c, 0, 41, 95
1, 1469260, Control_c, 0, 64, 112
1, 1469278, Control_c, 0, 64, 127
1, 1469302, Note_off_c, 0, 41, 63
1, 1469305, Note_on_c, 0, 40, 13
1, 1469379, Note_off_c, 0, 40, 38
1, 1469389, Note_on_c, 0, 41, 87
1, 1469434, Note_off_c, 0, 41, 66
1, 1469529, Note_on_c, 0, 41, 90
1, 1469583, Note_off_c, 0, 41, 62
1, 1469720, Note_on_c, 0, 46, 107
1, 1469726, Note_on_c, 0, 34, 99
1, 1469785, Control_c, 0, 64, 70
1, 1469802, Control_c, 0, 64, 0
1, 1470214, Control_c, 0, 64, 36
1, 1470232, Control_c, 0, 64, 56
1, 1470251, Control_c, 0, 64, 73
1, 1470271, Control_c, 0, 64, 89
1, 1470288, Control_c, 0, 64, 112
1, 1470307, Control_c, 0, 64, 127
1, 1470341, Note_off_c, 0, 34, 62
1, 1470372, Note_off_c, 0, 46, 61
1, 1470475, Note_off_c, 0, 77, 53
1, 1470475, Poly_aftertouch_c, 0, 77, 0
1, 1470477, Note_off_c, 0, 74, 45
1, 1470560, Note_off_c, 0, 82, 51
1, 1470563, Note_off_c, 0, 86, 55
1, 1470886, Control_c, 0, 64, 108
1, 1470906, Control_c, 0, 64, 49
1, 1470925, Control_c, 0, 64, 0
1, 1471443, Note_on_c, 0, 82, 107
1, 1471448, Control_c, 0, 64, 58
1, 1471449, Note_on_c, 0, 70, 108
1, 1471467, Control_c, 0, 64, 127
1, 1471487, Note_off_c, 0, 70, 68
1, 1471487, Poly_aftertouch_c, 0, 70, 0
1, 1471503, Note_off_c, 0, 82, 64
1, 1471601, Note_on_c, 0, 70, 102
1, 1471604, Note_on_c, 0, 82, 108
1, 1471645, Note_off_c, 0, 70, 68
1, 1471645, Poly_aftertouch_c, 0, 70, 0
1, 1471660, Note_off_c, 0, 82, 65
1, 1471737, Note_on_c, 0, 82, 105
1, 1471738, Note_on_c, 0, 70, 105
1, 1471794, Note_off_c, 0, 70, 57
1, 1471794, Poly_aftertouch_c, 0, 70, 0
1, 1471810, Note_off_c, 0, 82, 60
1, 1471966, Note_on_c, 0, 78, 105
1, 1471967, Note_on_c, 0, 90, 102
1, 1471967, Note_on_c, 0, 71, 102
1, 1471967, Note_on_c, 0, 82, 104
1, 1471967, Note_on_c, 0, 70, 101
1, 1471969, Note_on_c, 0, 63, 94
1, 1471992, Control_c, 0, 64, 112
1, 1472010, Control_c, 0, 64, 54
1, 1472026, Control_c, 0, 64, 0
1, 1472551, Control_c, 0, 64, 28
1, 1472570, Control_c, 0, 64, 47
1, 1472588, Control_c, 0, 64, 62
1, 1472608, Control_c, 0, 64, 72
1, 1472625, Control_c, 0, 64, 78
1, 1472645, Control_c, 0, 64, 83
1, 1472664, Control_c, 0, 64, 92
1, 1472682, Control_c, 0, 64, 105
1, 1472701, Control_c, 0, 64, 119
1, 1472719, Control_c, 0, 64, 127
1, 1473386, Note_off_c, 0, 63, 57
1, 1473675, Note_off_c, 0, 71, 38
1, 1473675, Poly_aftertouch_c, 0, 71, 0
1, 1473698, Note_off_c, 0, 82, 52
1, 1473826, Note_off_c, 0, 78, 58
1, 1473874, Note_off_c, 0, 70, 57
1, 1473874, Poly_aftertouch_c, 0, 70, 0
1, 1473883, Note_off_c, 0, 90, 51
1, 1474184, Note_on_c, 0, 89, 101
1, 1474187, Note_on_c, 0, 77, 107
1, 1474188, Note_on_c, 0, 81, 97
1, 1474195, Note_on_c, 0, 69, 91
1, 1474196, Note_on_c, 0, 65, 93
1, 1474197, Note_on_c, 0, 72, 102
1, 1474234, Control_c, 0, 64, 91
1, 1474253, Control_c, 0, 64, 0
1, 1474403, Control_c, 0, 64, 30
1, 1474421, Control_c, 0, 64, 74
1, 1474439, Control_c, 0, 64, 104
1, 1474458, Control_c, 0, 64, 127
1, 1474585, Note_off_c, 0, 72, 62
1, 1474739, Note_off_c, 0, 65, 60
1, 1474739, Poly_aftertouch_c, 0, 65, 0
1, 1474745, Note_off_c, 0, 69, 56
1, 1474745, Poly_aftertouch_c, 0, 69, 0
1, 1475318, Control_c, 0, 64, 74
1, 1475337, Control_c, 0, 64, 0
1, 1475776, Note_on_c, 0, 41, 110
1, 1475803, Note_off_c, 0, 81, 61
1, 1475805, Control_c, 0, 64, 122
1, 1475819, Note_off_c, 0, 41, 67
1, 1475822, Control_c, 0, 64, 127
1, 1475871, Note_off_c, 0, 77, 53
1, 1475871, Poly_aftertouch_c, 0, 77, 0
1, 1475930, Note_on_c, 0, 41, 102
1, 1475935, Note_off_c, 0, 89, 58
1, 1475974, Note_off_c, 0, 41, 66
1, 1476057, Note_on_c, 0, 41, 102
1, 1476088, Note_off_c, 0, 41, 67
1, 1476251, Note_on_c, 0, 82, 105
1, 1476252, Note_on_c, 0, 94, 105
1, 1476254, Note_on_c, 0, 86, 97
1, 1476257, Note_on_c, 0, 89, 87
1, 1476258, Note_on_c, 0, 46, 110
1, 1476260, Note_on_c, 0, 34, 99
1, 1476282, Control_c, 0, 64, 99
1, 1476291, Control_c, 0, 64, 0
1, 1476297, Note_on_c, 0, 37, 52
1, 1476298, Note_off_c, 0, 37, 127
1, 1476324, Note_on_c, 0, 42, 13
1, 1476325, Note_off_c, 0, 42, 127
1, 1476348, Poly_aftertouch_c, 0, 37, 0
1, 1476391, Poly_aftertouch_c, 0, 42, 0
1, 1476398, Poly_aftertouch_c, 0, 92, 0
1, 1476422, Control_c, 0, 64, 89
1, 1476441, Control_c, 0, 64, 127
1, 1476911, Note_off_c, 0, 46, 50
1, 1476920, Note_off_c, 0, 34, 58
1, 1477319, Control_c, 0, 64, 81
1, 1477338, Control_c, 0, 64, 0
1, 1477780, Note_on_c, 0, 41, 108
1, 1477805, Control_c, 0, 64, 91
1, 1477824, Control_c, 0, 64, 127
1, 1477825, Note_off_c, 0, 41, 67
1, 1477920, Note_on_c, 0, 41, 105
1, 1477961, Note_off_c, 0, 41, 67
1, 1478050, Note_on_c, 0, 41, 99
1, 1478092, Note_off_c, 0, 41, 65
1, 1478243, Note_on_c, 0, 46, 109
1, 1478246, Note_on_c, 0, 34, 99
1, 1478290, Note_on_c, 0, 33, 56
1, 1478290, Control_c, 0, 64, 109
1, 1478312, Control_c, 0, 64, 48
1, 1478316, Note_on_c, 0, 37, 12
1, 1478317, Note_on_c, 0, 39, 25
1, 1478318, Note_off_c, 0, 39, 127
1, 1478329, Control_c, 0, 64, 0
1, 1478335, Note_off_c, 0, 33, 48
1, 1478389, Note_off_c, 0, 37, 28
1, 1479226, Control_c, 0, 64, 62
1, 1479247, Control_c, 0, 64, 127
1, 1479294, Note_off_c, 0, 46, 60
1, 1479295, Note_off_c, 0, 94, 64
1, 1479301, Note_off_c, 0, 89, 59
1, 1479306, Note_off_c, 0, 86, 61
1, 1479324, Note_off_c, 0, 34, 61
1, 1479330, Note_off_c, 0, 82, 59
1, 1479712, Control_c, 0, 64, 73
1, 1479723, Note_on_c, 0, 41, 105
1, 1479730, Control_c, 0, 64, 0
1, 1479763, Note_off_c, 0, 41, 67
1, 1479788, Control_c, 0, 64, 41
1, 1479806, Control_c, 0, 64, 86
1, 1479824, Control_c, 0, 64, 127
1, 1479852, Note_on_c, 0, 41, 101
1, 1479882, Note_off_c, 0, 41, 69
1, 1479967, Note_on_c, 0, 41, 94
1, 1479994, Note_off_c, 0, 41, 67
1, 1480098, Note_on_c, 0, 59, 95
1, 1480101, Note_on_c, 0, 47, 105
1, 1480106, Note_on_c, 0, 46, 108
1, 1480113, Note_on_c, 0, 34, 98
1, 1480124, Control_c, 0, 64, 84
1, 1480136, Note_on_c, 0, 56, 63
1, 1480141, Note_on_c, 0, 37, 50
1, 1480141, Control_c, 0, 64, 0
1, 1480170, Note_off_c, 0, 56, 56
1, 1480189, Note_off_c, 0, 37, 30
1, 1480947, Control_c, 0, 64, 55
1, 1480966, Control_c, 0, 64, 92
1, 1480984, Control_c, 0, 64, 127
1, 1481001, Note_off_c, 0, 46, 56
1, 1481024, Note_off_c, 0, 34, 60
1, 1481305, Note_on_c, 0, 41, 99
1, 1481353, Note_off_c, 0, 41, 65
1, 1481428, Note_on_c, 0, 41, 97
1, 1481465, Note_off_c, 0, 41, 64
1, 1481537, Note_on_c, 0, 41, 85
1, 1481568, Note_off_c, 0, 41, 68
1, 1481641, Poly_aftertouch_c, 0, 43, 127
1, 1481650, Note_on_c, 0, 46, 108
1, 1481656, Control_c, 0, 64, 114
1, 1481660, Note_on_c, 0, 34, 96
1, 1481664, Poly_aftertouch_c, 0, 43, 0
1, 1481676, Control_c, 0, 64, 56
1, 1481683, Note_on_c, 0, 37, 64
1, 1481694, Control_c, 0, 64, 0
1, 1481739, Note_off_c, 0, 37, 33
1, 1482387, Control_c, 0, 64, 85
1, 1482405, Control_c, 0, 64, 127
1, 1482424, Note_off_c, 0, 46, 58
1, 1482439, Poly_aftertouch_c, 0, 37, 0
1, 1482456, Note_off_c, 0, 34, 59
1, 1482493, Note_off_c, 0, 47, 57
1, 1482568, Note_off_c, 0, 59, 58
1, 1482716, Note_on_c, 0, 41, 95
1, 1482754, Note_off_c, 0, 41, 66
1, 1482832, Note_on_c, 0, 41, 95
1, 1482863, Note_off_c, 0, 41, 64
1, 1482926, Note_on_c, 0, 41, 89
1, 1482966, Note_off_c, 0, 41, 66
1, 1483036, Note_on_c, 0, 51, 105
1, 1483038, Note_on_c, 0, 63, 98
1, 1483041, Note_on_c, 0, 59, 86
1, 1483044, Note_on_c, 0, 46, 106
1, 1483054, Note_on_c, 0, 34, 92
1, 1483058, Control_c, 0, 64, 83
1, 1483074, Note_on_c, 0, 37, 59
1, 1483075, Note_off_c, 0, 37, 127
1, 1483077, Control_c, 0, 64, 0
1, 1483186, Poly_aftertouch_c, 0, 61, 0
1, 1483677, Control_c, 0, 64, 75
1, 1483697, Control_c, 0, 64, 117
1, 1483713, Control_c, 0, 64, 127
1, 1483733, Note_off_c, 0, 46, 53
1, 1483769, Note_off_c, 0, 34, 59
1, 1483854, Note_off_c, 0, 59, 57
1, 1483953, Note_off_c, 0, 51, 54
1, 1483979, Note_on_c, 0, 41, 91
1, 1484011, Note_off_c, 0, 41, 68
1, 1484012, Note_off_c, 0, 63, 56
1, 1484081, Note_on_c, 0, 41, 91
1, 1484107, Note_off_c, 0, 41, 72
1, 1484172, Note_on_c, 0, 41, 95
1, 1484214, Note_off_c, 0, 41, 63
1, 1484270, Note_on_c, 0, 53, 103
1, 1484270, Note_on_c, 0, 65, 97
1, 1484272, Note_on_c, 0, 59, 96
1, 1484274, Note_on_c, 0, 63, 89
1, 1484283, Note_on_c, 0, 46, 105
1, 1484296, Note_on_c, 0, 34, 92
1, 1484313, Control_c, 0, 64, 78
1, 1484331, Control_c, 0, 64, 0
1, 1484762, Control_c, 0, 64, 12
1, 1484779, Control_c, 0, 64, 32
1, 1484799, Control_c, 0, 64, 49
1, 1484817, Control_c, 0, 64, 64
1, 1484837, Control_c, 0, 64, 75
1, 1484854, Control_c, 0, 64, 86
1, 1484873, Control_c, 0, 64, 98
1, 1484892, Control_c, 0, 64, 112
1, 1484910, Control_c, 0, 64, 127
1, 1484977, Note_off_c, 0, 53, 51
1, 1484987, Note_off_c, 0, 59, 58
1, 1485005, Note_off_c, 0, 34, 57
1, 1485008, Note_off_c, 0, 46, 54
1, 1485041, Note_off_c, 0, 63, 60
1, 1485057, Note_off_c, 0, 65, 55
1, 1485057, Poly_aftertouch_c, 0, 65, 0
1, 1485204, Note_on_c, 0, 41, 85
1, 1485241, Note_off_c, 0, 41, 68
1, 1485305, Note_on_c, 0, 41, 91
1, 1485351, Note_off_c, 0, 41, 62
1, 1485404, Note_on_c, 0, 41, 80
1, 1485453, Note_off_c, 0, 41, 63
1, 1485490, Note_on_c, 0, 68, 97
1, 1485492, Note_on_c, 0, 59, 101
1, 1485493, Note_on_c, 0, 65, 88
1, 1485495, Note_on_c, 0, 63, 95
1, 1485508, Note_on_c, 0, 46, 105
1, 1485518, Note_on_c, 0, 34, 91
1, 1485528, Control_c, 0, 64, 100
1, 1485547, Control_c, 0, 64, 34
1, 1485566, Control_c, 0, 64, 0
1, 1486201, Control_c, 0, 64, 42
1, 1486220, Control_c, 0, 64, 64
1, 1486239, Control_c, 0, 64, 79
1, 1486256, Control_c, 0, 64, 91
1, 1486276, Control_c, 0, 64, 98
1, 1486291, Note_off_c, 0, 46, 46
1, 1486308, Note_off_c, 0, 34, 52
1, 1486388, Control_c, 0, 64, 91
1, 1486408, Control_c, 0, 64, 78
1, 1486426, Control_c, 0, 64, 67
1, 1486444, Control_c, 0, 64, 69
1, 1486463, Control_c, 0, 64, 82
1, 1486467, Note_on_c, 0, 41, 80
1, 1486482, Control_c, 0, 64, 102
1, 1486489, Note_off_c, 0, 63, 55
1, 1486490, Note_off_c, 0, 59, 59
1, 1486501, Note_off_c, 0, 41, 65
1, 1486501, Control_c, 0, 64, 127
1, 1486511, Note_off_c, 0, 68, 50
1, 1486511, Poly_aftertouch_c, 0, 68, 0
1, 1486558, Note_on_c, 0, 41, 91
1, 1486575, Note_off_c, 0, 65, 58
1, 1486575, Poly_aftertouch_c, 0, 65, 0
1, 1486611, Note_off_c, 0, 41, 62
1, 1486663, Note_on_c, 0, 41, 74
1, 1486713, Note_off_c, 0, 41, 61
1, 1486753, Note_on_c, 0, 67, 91
1, 1486753, Note_on_c, 0, 58, 93
1, 1486758, Note_on_c, 0, 63, 84
1, 1486761, Control_c, 0, 64, 106
1, 1486764, Note_on_c, 0, 46, 92
1, 1486772, Note_on_c, 0, 34, 83
1, 1486780, Control_c, 0, 64, 76
1, 1486800, Control_c, 0, 64, 45
1, 1486818, Control_c, 0, 64, 0
1, 1487248, Control_c, 0, 64, 17
1, 1487267, Control_c, 0, 64, 30
1, 1487286, Control_c, 0, 64, 38
1, 1487305, Control_c, 0, 64, 43
1, 1487323, Control_c, 0, 64, 45
1, 1487343, Control_c, 0, 64, 48
1, 1487360, Control_c, 0, 64, 51
1, 1487379, Control_c, 0, 64, 57
1, 1487397, Control_c, 0, 64, 60
1, 1487416, Control_c, 0, 64, 58
1, 1487436, Control_c, 0, 64, 54
1, 1487454, Control_c, 0, 64, 51
1, 1487510, Control_c, 0, 64, 53
1, 1487547, Control_c, 0, 64, 56
1, 1487548, Control_c, 0, 67, 10
1, 1487566, Control_c, 0, 64, 58
1, 1487586, Control_c, 0, 64, 61
1, 1487587, Control_c, 0, 67, 14
1, 1487603, Control_c, 0, 64, 64
1, 1487622, Control_c, 0, 64, 67
1, 1487623, Control_c, 0, 67, 22
1, 1487641, Control_c, 0, 64, 69
1, 1487642, Control_c, 0, 67, 29
1, 1487660, Control_c, 0, 64, 72
1, 1487660, Control_c, 0, 67, 38
1, 1487678, Control_c, 0, 64, 75
1, 1487680, Control_c, 0, 67, 46
1, 1487698, Control_c, 0, 64, 79
1, 1487700, Control_c, 0, 67, 53
1, 1487713, Note_off_c, 0, 46, 54
1, 1487716, Control_c, 0, 64, 81
1, 1487718, Control_c, 0, 67, 57
1, 1487726, Note_off_c, 0, 34, 53
1, 1487734, Control_c, 0, 64, 83
1, 1487754, Control_c, 0, 67, 62
1, 1487770, Note_off_c, 0, 63, 58
1, 1487791, Control_c, 0, 64, 85
1, 1487848, Note_on_c, 0, 41, 59
1, 1487865, Control_c, 0, 64, 87
1, 1487892, Note_off_c, 0, 41, 58
1, 1487953, Note_off_c, 0, 58, 54
1, 1487953, Poly_aftertouch_c, 0, 58, 0
1, 1487969, Note_on_c, 0, 41, 77
1, 1488011, Note_off_c, 0, 41, 63
1, 1488078, Note_on_c, 0, 41, 85
1, 1488127, Control_c, 0, 64, 84
1, 1488134, Note_off_c, 0, 41, 57
1, 1488146, Control_c, 0, 64, 79
1, 1488163, Control_c, 0, 64, 71
1, 1488168, Note_on_c, 0, 66, 74
1, 1488170, Note_on_c, 0, 57, 75
1, 1488172, Note_on_c, 0, 63, 71
1, 1488177, Note_on_c, 0, 60, 69
1, 1488178, Note_on_c, 0, 46, 89
1, 1488182, Control_c, 0, 64, 60
1, 1488186, Note_on_c, 0, 34, 80
1, 1488202, Control_c, 0, 64, 40
1, 1488220, Control_c, 0, 64, 0
1, 1488229, Note_off_c, 0, 67, 54
1, 1488229, Poly_aftertouch_c, 0, 67, 0
1, 1488725, Control_c, 0, 67, 66
1, 1488762, Control_c, 0, 67, 70
1, 1488800, Control_c, 0, 67, 75
1, 1488856, Control_c, 0, 67, 80
1, 1488893, Control_c, 0, 67, 85
1, 1488912, Control_c, 0, 67, 89
1, 1488932, Control_c, 0, 67, 94
1, 1488949, Control_c, 0, 67, 99
1, 1488968, Control_c, 0, 67, 103
1, 1489006, Control_c, 0, 67, 108
1, 1489080, Control_c, 0, 67, 112
1, 1489103, Note_off_c, 0, 46, 46
1, 1489154, Note_off_c, 0, 34, 46
1, 1489363, Note_on_c, 0, 41, 71
1, 1489414, Note_off_c, 0, 41, 64
1, 1489498, Note_off_c, 0, 60, 57
1, 1489498, Poly_aftertouch_c, 0, 60, 0
1, 1489503, Note_on_c, 0, 41, 73
1, 1489545, Note_off_c, 0, 41, 64
1, 1489571, Note_off_c, 0, 57, 58
1, 1489618, Note_on_c, 0, 41, 80
1, 1489687, Note_off_c, 0, 41, 61
1, 1489791, Note_on_c, 0, 65, 66
1, 1489793, Note_on_c, 0, 46, 68
1, 1489800, Note_on_c, 0, 61, 63
1, 1489802, Note_on_c, 0, 34, 64
1, 1489807, Note_on_c, 0, 58, 62
1, 1489842, Note_off_c, 0, 63, 59
1, 1489850, Note_off_c, 0, 66, 57
1, 1489850, Poly_aftertouch_c, 0, 66, 0
1, 1490836, Note_off_c, 0, 46, 37
1, 1490896, Note_off_c, 0, 34, 34
1, 1491189, Note_on_c, 0, 41, 68
1, 1491254, Note_off_c, 0, 41, 60
1, 1491360, Note_on_c, 0, 41, 63
1, 1491414, Note_off_c, 0, 41, 62
1, 1491497, Note_off_c, 0, 58, 58
1, 1491497, Poly_aftertouch_c, 0, 58, 0
1, 1491524, Note_on_c, 0, 41, 68
1, 1491583, Note_off_c, 0, 41, 62
1, 1491721, Note_on_c, 0, 63, 65
1, 1491723, Note_on_c, 0, 54, 62
1, 1491724, Note_on_c, 0, 59, 62
1, 1491727, Note_on_c, 0, 46, 71
1, 1491740, Note_off_c, 0, 61, 49
1, 1491740, Note_on_c, 0, 34, 63
1, 1491792, Note_off_c, 0, 65, 55
1, 1491792, Poly_aftertouch_c, 0, 65, 0
1, 1492691, Note_off_c, 0, 34, 50
1, 1492705, Note_off_c, 0, 46, 38
1, 1493235, Note_on_c, 0, 41, 67
1, 1493307, Note_off_c, 0, 41, 61
1, 1493422, Note_on_c, 0, 41, 71
1, 1493481, Note_off_c, 0, 41, 62
1, 1493600, Note_on_c, 0, 41, 70
1, 1493658, Note_off_c, 0, 41, 60
1, 1493812, Note_on_c, 0, 46, 60
1, 1493817, Note_on_c, 0, 34, 57
1, 1494746, Control_c, 0, 67, 118
1, 1494765, Control_c, 0, 67, 127
1, 1494785, Note_off_c, 0, 63, 59
1, 1494791, Note_off_c, 0, 46, 59
1, 1494793, Note_off_c, 0, 34, 59
1, 1494809, Note_off_c, 0, 59, 59
1, 1494866, Note_off_c, 0, 54, 57
1, 1494866, Poly_aftertouch_c, 0, 54, 0
1, 1495746, Note_on_c, 0, 41, 39
1, 1495811, Note_off_c, 0, 41, 56
1, 1495984, Note_on_c, 0, 41, 41
1, 1496057, Note_off_c, 0, 41, 53
1, 1496235, Note_on_c, 0, 41, 42
1, 1496318, Note_off_c, 0, 41, 53
1, 1496548, Note_on_c, 0, 46, 33
1, 1496552, Note_on_c, 0, 51, 36
1, 1496557, Note_on_c, 0, 54, 24
1, 1496560, Note_on_c, 0, 57, 30
1, 1496568, Note_on_c, 0, 34, 32
1, 1497586, Note_off_c, 0, 46, 31
1, 1497601, Note_off_c, 0, 34, 32
1, 1498229, Note_on_c, 0, 41, 32
1, 1498325, Note_off_c, 0, 41, 50
1, 1498548, Note_on_c, 0, 41, 28
1, 1498651, Note_off_c, 0, 41, 47
1, 1498924, Note_on_c, 0, 41, 29
1, 1499056, Note_off_c, 0, 41, 48
1, 1499121, Note_off_c, 0, 51, 51
1, 1499132, Note_off_c, 0, 54, 42
1, 1499132, Poly_aftertouch_c, 0, 54, 0
1, 1499142, Note_off_c, 0, 57, 39
1, 1501627, Control_c, 0, 64, 17
1, 1501647, Control_c, 0, 64, 28
1, 1501665, Control_c, 0, 64, 40
1, 1501683, Control_c, 0, 64, 50
1, 1501702, Control_c, 0, 64, 59
1, 1501721, Control_c, 0, 64, 65
1, 1501740, Control_c, 0, 64, 69
1, 1501759, Control_c, 0, 64, 72
1, 1501776, Control_c, 0, 64, 75
1, 1501796, Control_c, 0, 64, 80
1, 1501815, Control_c, 0, 64, 86
1, 1501817, Control_c, 0, 67, 123
1, 1501833, Control_c, 0, 64, 93
1, 1501852, Control_c, 0, 64, 101
1, 1501870, Control_c, 0, 64, 110
1, 1501890, Control_c, 0, 64, 120
1, 1501907, Control_c, 0, 64, 127
1, 1502553, Note_on_c, 0, 85, 37
1, 1502560, Note_on_c, 0, 89, 34
1, 1502987, Note_off_c, 0, 85, 39
1, 1503631, Note_on_c, 0, 85, 41
1, 1503651, Note_on_c, 0, 82, 35
1, 1503787, Poly_aftertouch_c, 0, 89, 24
1, 1503876, Note_off_c, 0, 89, 31
1, 1503876, Poly_aftertouch_c, 0, 89, 0
1, 1504276, Note_off_c, 0, 82, 34
1, 1504398, Note_off_c, 0, 85, 41
1, 1504713, Note_on_c, 0, 82, 42
1, 1504731, Note_on_c, 0, 77, 39
1, 1504769, Control_c, 0, 67, 127
1, 1505057, Note_off_c, 0, 82, 36
1, 1505266, Note_off_c, 0, 77, 53
1, 1505266, Poly_aftertouch_c, 0, 77, 0
1, 1505792, Note_on_c, 0, 77, 43
1, 1505796, Note_on_c, 0, 73, 41
1, 1506338, Note_off_c, 0, 73, 35
1, 1506475, Note_off_c, 0, 77, 50
1, 1506475, Poly_aftertouch_c, 0, 77, 0
1, 1506857, Note_on_c, 0, 73, 39
1, 1506882, Note_on_c, 0, 70, 38
1, 1507208, Note_off_c, 0, 70, 41
1, 1507208, Poly_aftertouch_c, 0, 70, 0
1, 1507218, Note_off_c, 0, 73, 36
1, 1508043, Note_on_c, 0, 70, 35
1, 1508051, Note_on_c, 0, 66, 37
1, 1508153, Control_c, 0, 64, 119
1, 1508173, Control_c, 0, 64, 112
1, 1508191, Control_c, 0, 64, 105
1, 1508209, Control_c, 0, 64, 98
1, 1508228, Control_c, 0, 64, 89
1, 1508247, Control_c, 0, 64, 80
1, 1508266, Control_c, 0, 64, 71
1, 1508284, Control_c, 0, 64, 64
1, 1508303, Control_c, 0, 64, 60
1, 1508322, Control_c, 0, 64, 54
1, 1508340, Control_c, 0, 64, 48
1, 1508359, Control_c, 0, 64, 38
1, 1508377, Control_c, 0, 64, 17
1, 1508380, Note_off_c, 0, 66, 46
1, 1508380, Poly_aftertouch_c, 0, 66, 0
1, 1508382, Note_off_c, 0, 70, 42
1, 1508382, Poly_aftertouch_c, 0, 70, 0
1, 1508396, Control_c, 0, 64, 0
1, 1509050, Control_c, 0, 64, 10
1, 1509070, Control_c, 0, 64, 19
1, 1509087, Control_c, 0, 64, 28
1, 1509107, Control_c, 0, 64, 36
1, 1509125, Control_c, 0, 64, 48
1, 1509144, Control_c, 0, 64, 60
1, 1509163, Control_c, 0, 64, 68
1, 1509182, Control_c, 0, 64, 72
1, 1509201, Control_c, 0, 64, 75
1, 1509218, Control_c, 0, 64, 78
1, 1509239, Control_c, 0, 64, 83
1, 1509256, Control_c, 0, 64, 88
1, 1509276, Control_c, 0, 64, 95
1, 1509293, Control_c, 0, 64, 103
1, 1509313, Control_c, 0, 64, 109
1, 1509331, Control_c, 0, 64, 114
1, 1509349, Control_c, 0, 64, 118
1, 1509388, Control_c, 0, 64, 125
1, 1510173, Note_on_c, 0, 70, 37
1, 1510182, Note_on_c, 0, 64, 36
1, 1510508, Control_c, 0, 64, 120
1, 1510528, Control_c, 0, 64, 115
1, 1510533, Note_off_c, 0, 70, 39
1, 1510533, Poly_aftertouch_c, 0, 70, 0
1, 1510547, Control_c, 0, 64, 108
1, 1510560, Note_off_c, 0, 64, 32
1, 1510564, Control_c, 0, 64, 102
1, 1510584, Control_c, 0, 64, 98
1, 1510602, Control_c, 0, 64, 93
1, 1510622, Control_c, 0, 64, 89
1, 1510639, Control_c, 0, 64, 83
1, 1510659, Control_c, 0, 64, 77
1, 1510677, Control_c, 0, 64, 71
1, 1510696, Control_c, 0, 64, 64
1, 1510716, Control_c, 0, 64, 58
1, 1510733, Control_c, 0, 64, 52
1, 1510753, Control_c, 0, 64, 43
1, 1510770, Control_c, 0, 64, 27
1, 1510790, Control_c, 0, 64, 0
1, 1511388, Control_c, 0, 64, 17
1, 1511407, Control_c, 0, 64, 30
1, 1511426, Control_c, 0, 64, 42
1, 1511444, Control_c, 0, 64, 55
1, 1511463, Control_c, 0, 64, 67
1, 1511482, Control_c, 0, 64, 73
1, 1511500, Control_c, 0, 64, 77
1, 1511519, Control_c, 0, 64, 81
1, 1511538, Control_c, 0, 64, 86
1, 1511557, Control_c, 0, 64, 93
1, 1511575, Control_c, 0, 64, 102
1, 1511595, Control_c, 0, 64, 110
1, 1511613, Control_c, 0, 64, 116
1, 1511631, Control_c, 0, 64, 121
1, 1511650, Control_c, 0, 64, 126
1, 1512656, Note_on_c, 0, 65, 35
1, 1512811, Control_c, 0, 64, 121
1, 1512828, Control_c, 0, 64, 113
1, 1512846, Control_c, 0, 64, 103
1, 1512866, Control_c, 0, 64, 94
1, 1512884, Control_c, 0, 64, 84
1, 1512903, Control_c, 0, 64, 75
1, 1512921, Control_c, 0, 64, 68
1, 1512940, Control_c, 0, 64, 63
1, 1512959, Control_c, 0, 64, 60
1, 1512996, Control_c, 0, 64, 56
1, 1513015, Control_c, 0, 64, 52
1, 1513034, Control_c, 0, 64, 46
1, 1513052, Control_c, 0, 64, 37
1, 1513071, Control_c, 0, 64, 25
1, 1513090, Control_c, 0, 64, 11
1, 1513108, Control_c, 0, 64, 0
1, 1513333, Control_c, 0, 64, 9
1, 1513371, Control_c, 0, 64, 16
1, 1513409, Control_c, 0, 64, 21
1, 1513444, Control_c, 0, 64, 26
1, 1513501, Control_c, 0, 64, 31
1, 1513558, Control_c, 0, 64, 36
1, 1513613, Control_c, 0, 64, 42
1, 1513650, Control_c, 0, 64, 47
1, 1513669, Control_c, 0, 64, 51
1, 1513688, Control_c, 0, 64, 56
1, 1513708, Control_c, 0, 64, 61
1, 1513725, Control_c, 0, 64, 67
1, 1513745, Control_c, 0, 64, 70
1, 1513763, Control_c, 0, 64, 74
1, 1513781, Control_c, 0, 64, 78
1, 1513800, Control_c, 0, 64, 84
1, 1513819, Control_c, 0, 64, 91
1, 1513838, Control_c, 0, 64, 100
1, 1513856, Control_c, 0, 64, 110
1, 1513874, Control_c, 0, 64, 119
1, 1513894, Control_c, 0, 64, 126
1, 1514439, Note_off_c, 0, 65, 35
1, 1514439, Poly_aftertouch_c, 0, 65, 0
1, 1514904, Control_c, 0, 64, 122
1, 1514921, Control_c, 0, 64, 105
1, 1514940, Control_c, 0, 64, 85
1, 1514959, Control_c, 0, 64, 65
1, 1514978, Control_c, 0, 64, 44
1, 1514996, Control_c, 0, 64, 0
1, 1515352, Control_c, 0, 64, 14
1, 1515371, Control_c, 0, 64, 25
1, 1515389, Control_c, 0, 64, 34
1, 1515408, Control_c, 0, 64, 43
1, 1515427, Control_c, 0, 64, 51
1, 1515447, Control_c, 0, 64, 59
1, 1515463, Control_c, 0, 64, 64
1, 1515483, Control_c, 0, 64, 68
1, 1515521, Control_c, 0, 64, 71
1, 1515559, Control_c, 0, 64, 75
1, 1515576, Control_c, 0, 64, 78
1, 1515595, Control_c, 0, 64, 80
1, 1515613, Control_c, 0, 64, 83
1, 1515633, Control_c, 0, 64, 86
1, 1515670, Control_c, 0, 64, 93
1, 1515708, Control_c, 0, 64, 100
1, 1515745, Control_c, 0, 64, 104
1, 1515910, Note_on_c, 0, 58, 34
1, 1516250, Control_c, 0, 64, 109
1, 1516306, Control_c, 0, 64, 113
1, 1516362, Control_c, 0, 64, 118
1, 1516808, Note_on_c, 0, 53, 47
1, 1516998, Control_c, 0, 64, 114
1, 1517027, Note_off_c, 0, 58, 42
1, 1517027, Poly_aftertouch_c, 0, 58, 0
1, 1517091, Control_c, 0, 64, 109
1, 1517129, Control_c, 0, 64, 105
1, 1517166, Control_c, 0, 64, 100
1, 1517221, Control_c, 0, 64, 96
1, 1517259, Control_c, 0, 64, 91
1, 1517277, Control_c, 0, 64, 88
1, 1517296, Control_c, 0, 64, 84
1, 1517316, Control_c, 0, 64, 82
1, 1517334, Control_c, 0, 64, 79
1, 1517372, Control_c, 0, 64, 76
1, 1517446, Control_c, 0, 64, 74
1, 1517541, Control_c, 0, 64, 72
1, 1517652, Control_c, 0, 64, 70
1, 1517705, Note_on_c, 0, 49, 57
1, 1517728, Control_c, 0, 64, 68
1, 1517764, Control_c, 0, 64, 67
1, 1517803, Control_c, 0, 64, 66
1, 1517839, Control_c, 0, 64, 65
1, 1517876, Control_c, 0, 64, 64
1, 1517895, Control_c, 0, 64, 63
1, 1517933, Control_c, 0, 64, 62
1, 1517949, Note_off_c, 0, 53, 34
1, 1517989, Control_c, 0, 64, 61
1, 1518626, Note_on_c, 0, 46, 57
1, 1518795, Note_off_c, 0, 49, 53
1, 1518795, Poly_aftertouch_c, 0, 49, 0
1, 1518942, Control_c, 0, 64, 60
1, 1519706, Note_on_c, 0, 42, 53
1, 1519870, Note_off_c, 0, 46, 48
1, 1520475, Control_c, 0, 64, 58
1, 1521033, Note_on_c, 0, 41, 34
1, 1521148, Control_c, 0, 64, 56
1, 1521175, Note_off_c, 0, 42, 38
1, 1521186, Control_c, 0, 64, 54
1, 1521223, Control_c, 0, 64, 52
1, 1521261, Control_c, 0, 64, 48
1, 1521280, Control_c, 0, 64, 45
1, 1521300, Control_c, 0, 64, 41
1, 1521317, Control_c, 0, 64, 35
1, 1521335, Control_c, 0, 64, 28
1, 1521355, Control_c, 0, 64, 23
1, 1521372, Control_c, 0, 64, 19
1, 1521430, Control_c, 0, 64, 0
1, 1521512, Note_off_c, 0, 41, 36
1, 1523145, Note_on_c, 0, 41, 32
1, 1523549, Note_off_c, 0, 41, 47
1, 1524197, Control_c, 0, 64, 20
1, 1524215, Control_c, 0, 64, 32
1, 1524234, Control_c, 0, 64, 43
1, 1524252, Control_c, 0, 64, 55
1, 1524271, Control_c, 0, 64, 65
1, 1524290, Control_c, 0, 64, 71
1, 1524309, Control_c, 0, 64, 75
1, 1524326, Control_c, 0, 64, 78
1, 1524346, Control_c, 0, 64, 82
1, 1524365, Control_c, 0, 64, 89
1, 1524384, Control_c, 0, 64, 99
1, 1524402, Control_c, 0, 64, 108
1, 1524421, Control_c, 0, 64, 115
1, 1524441, Control_c, 0, 64, 120
1, 1524458, Control_c, 0, 64, 124
1, 1525648, Note_on_c, 0, 34, 34
1, 1525787, Control_c, 0, 64, 119
1, 1525804, Control_c, 0, 64, 111
1, 1525824, Control_c, 0, 64, 101
1, 1525842, Control_c, 0, 64, 90
1, 1525861, Control_c, 0, 64, 78
1, 1525879, Control_c, 0, 64, 70
1, 1525898, Control_c, 0, 64, 67
1, 1525936, Control_c, 0, 64, 66
1, 1525954, Control_c, 0, 64, 64
1, 1525973, Control_c, 0, 64, 62
1, 1525992, Control_c, 0, 64, 60
1, 1526010, Control_c, 0, 64, 58
1, 1526048, Control_c, 0, 64, 54
1, 1526066, Control_c, 0, 64, 51
1, 1526085, Control_c, 0, 64, 47
1, 1526103, Control_c, 0, 64, 43
1, 1526123, Control_c, 0, 64, 41
1, 1526179, Control_c, 0, 64, 34
1, 1526254, Control_c, 0, 64, 30
1, 1526571, Control_c, 0, 64, 26
1, 1526796, Control_c, 0, 64, 31
1, 1526815, Control_c, 0, 64, 36
1, 1526833, Control_c, 0, 64, 43
1, 1526852, Control_c, 0, 64, 50
1, 1526871, Control_c, 0, 64, 58
1, 1526889, Control_c, 0, 64, 66
1, 1526908, Control_c, 0, 64, 72
1, 1526927, Control_c, 0, 64, 75
1, 1526944, Control_c, 0, 64, 79
1, 1526964, Control_c, 0, 64, 83
1, 1526982, Control_c, 0, 64, 88
1, 1527002, Control_c, 0, 64, 96
1, 1527020, Control_c, 0, 64, 104
1, 1527039, Control_c, 0, 64, 111
1, 1527058, Control_c, 0, 64, 116
1, 1527095, Control_c, 0, 64, 122
1, 1527151, Control_c, 0, 64, 127
1, 1527583, Note_off_c, 0, 34, 33
1, 1528029, Control_c, 0, 64, 116
1, 1528049, Control_c, 0, 64, 102
1, 1528068, Control_c, 0, 64, 86
1, 1528086, Control_c, 0, 64, 70
1, 1528104, Control_c, 0, 64, 57
1, 1528123, Control_c, 0, 64, 46
1, 1528142, Control_c, 0, 64, 30
1, 1528160, Control_c, 0, 64, 0
1, 1529134, Control_c, 0, 64, 15
1, 1529152, Control_c, 0, 64, 40
1, 1529170, Control_c, 0, 64, 56
1, 1529189, Control_c, 0, 64, 68
1, 1529208, Control_c, 0, 64, 77
1, 1529226, Control_c, 0, 64, 84
1, 1529245, Control_c, 0, 64, 92
1, 1529263, Control_c, 0, 64, 100
1, 1529283, Control_c, 0, 64, 106
1, 1529300, Control_c, 0, 64, 110
1, 1529339, Control_c, 0, 64, 115
1, 1529414, Control_c, 0, 64, 119
1, 1529550, Note_on_c, 0, 53, 35
1, 1529562, Note_on_c, 0, 41, 40
1, 1529606, Note_off_c, 0, 53, 48
1, 1529630, Note_off_c, 0, 41, 46
1, 1529735, Note_on_c, 0, 41, 45
1, 1529737, Note_on_c, 0, 53, 46
1, 1529785, Note_off_c, 0, 41, 53
1, 1529795, Note_off_c, 0, 53, 50
1, 1529886, Note_on_c, 0, 53, 44
1, 1529887, Note_on_c, 0, 41, 50
1, 1529899, Control_c, 0, 64, 115
1, 1529961, Note_off_c, 0, 41, 52
1, 1529970, Note_off_c, 0, 53, 53
1, 1530030, Control_c, 0, 64, 110
1, 1530088, Note_on_c, 0, 58, 48
1, 1530088, Control_c, 0, 64, 104
1, 1530090, Note_on_c, 0, 46, 49
1, 1530092, Note_on_c, 0, 51, 43
1, 1530098, Note_on_c, 0, 54, 40
1, 1530100, Note_on_c, 0, 39, 49
1, 1530124, Control_c, 0, 64, 99
1, 1530161, Control_c, 0, 64, 92
1, 1530180, Control_c, 0, 64, 88
1, 1530198, Control_c, 0, 64, 83
1, 1530218, Control_c, 0, 64, 78
1, 1530236, Control_c, 0, 64, 73
1, 1530255, Control_c, 0, 64, 70
1, 1530274, Control_c, 0, 64, 68
1, 1530292, Control_c, 0, 64, 67
1, 1530312, Control_c, 0, 64, 65
1, 1530329, Control_c, 0, 64, 63
1, 1530349, Control_c, 0, 64, 61
1, 1530367, Control_c, 0, 64, 59
1, 1530385, Control_c, 0, 64, 57
1, 1530405, Control_c, 0, 64, 55
1, 1530423, Control_c, 0, 64, 52
1, 1530442, Control_c, 0, 64, 48
1, 1530460, Control_c, 0, 64, 44
1, 1530480, Control_c, 0, 64, 39
1, 1530497, Control_c, 0, 64, 33
1, 1530517, Control_c, 0, 64, 29
1, 1530647, Control_c, 0, 64, 25
1, 1530910, Control_c, 0, 64, 21
1, 1531116, Control_c, 0, 64, 16
1, 1531152, Control_c, 0, 64, 11
1, 1531189, Control_c, 0, 64, 0
1, 1532181, Control_c, 0, 64, 13
1, 1532199, Control_c, 0, 64, 20
1, 1532219, Control_c, 0, 64, 27
1, 1532237, Control_c, 0, 64, 37
1, 1532256, Control_c, 0, 64, 49
1, 1532274, Control_c, 0, 64, 63
1, 1532293, Control_c, 0, 64, 73
1, 1532311, Control_c, 0, 64, 78
1, 1532330, Control_c, 0, 64, 81
1, 1532350, Control_c, 0, 64, 86
1, 1532368, Control_c, 0, 64, 90
1, 1532375, Note_off_c, 0, 46, 57
1, 1532384, Note_off_c, 0, 54, 58
1, 1532384, Poly_aftertouch_c, 0, 54, 0
1, 1532387, Note_off_c, 0, 39, 57
1, 1532402, Note_off_c, 0, 51, 55
1, 1532419, Note_off_c, 0, 58, 35
1, 1532419, Poly_aftertouch_c, 0, 58, 0
1, 1532462, Control_c, 0, 64, 84
1, 1532480, Control_c, 0, 64, 78
1, 1532499, Control_c, 0, 64, 69
1, 1532518, Control_c, 0, 64, 60
1, 1532536, Control_c, 0, 64, 51
1, 1532554, Control_c, 0, 64, 41
1, 1532574, Control_c, 0, 64, 26
1, 1532591, Control_c, 0, 64, 0
1, 1533621, Control_c, 0, 64, 9
1, 1533639, Control_c, 0, 64, 33
1, 1533658, Control_c, 0, 64, 51
1, 1533677, Control_c, 0, 64, 67
1, 1533696, Control_c, 0, 64, 78
1, 1533714, Control_c, 0, 64, 87
1, 1533732, Control_c, 0, 64, 95
1, 1533751, Control_c, 0, 64, 103
1, 1533770, Control_c, 0, 64, 109
1, 1533788, Control_c, 0, 64, 113
1, 1533826, Control_c, 0, 64, 118
1, 1533863, Control_c, 0, 64, 122
1, 1533901, Control_c, 0, 64, 126
1, 1534165, Note_on_c, 0, 53, 35
1, 1534179, Note_on_c, 0, 41, 29
1, 1534232, Note_off_c, 0, 53, 52
1, 1534243, Note_off_c, 0, 41, 49
1, 1534366, Note_on_c, 0, 53, 46
1, 1534380, Note_on_c, 0, 41, 43
1, 1534420, Note_off_c, 0, 41, 54
1, 1534421, Note_off_c, 0, 53, 51
1, 1534518, Note_on_c, 0, 53, 41
1, 1534548, Note_on_c, 0, 41, 45
1, 1534600, Note_off_c, 0, 41, 53
1, 1534608, Note_off_c, 0, 53, 43
1, 1534611, Control_c, 0, 64, 122
1, 1534687, Control_c, 0, 64, 118
1, 1534724, Control_c, 0, 64, 113
1, 1534741, Note_on_c, 0, 58, 44
1, 1534743, Control_c, 0, 64, 108
1, 1534747, Note_on_c, 0, 54, 39
1, 1534753, Note_on_c, 0, 51, 36
1, 1534753, Note_on_c, 0, 46, 50
1, 1534762, Control_c, 0, 64, 102
1, 1534763, Note_on_c, 0, 39, 46
1, 1534780, Control_c, 0, 64, 93
1, 1534798, Control_c, 0, 64, 84
1, 1534819, Control_c, 0, 64, 74
1, 1534836, Control_c, 0, 64, 64
1, 1534855, Control_c, 0, 64, 53
1, 1534874, Control_c, 0, 64, 39
1, 1534892, Control_c, 0, 64, 10
1, 1534912, Control_c, 0, 64, 0
1, 1536595, Control_c, 0, 64, 9
1, 1536612, Control_c, 0, 64, 24
1, 1536631, Control_c, 0, 64, 35
1, 1536652, Control_c, 0, 64, 44
1, 1536669, Control_c, 0, 64, 52
1, 1536686, Control_c, 0, 64, 60
1, 1536706, Control_c, 0, 64, 66
1, 1536724, Control_c, 0, 64, 70
1, 1536743, Control_c, 0, 64, 73
1, 1536762, Control_c, 0, 64, 75
1, 1536781, Control_c, 0, 64, 79
1, 1536800, Control_c, 0, 64, 84
1, 1536818, Control_c, 0, 64, 89
1, 1536837, Control_c, 0, 64, 94
1, 1536856, Control_c, 0, 64, 99
1, 1536874, Control_c, 0, 64, 103
1, 1536912, Control_c, 0, 64, 110
1, 1537143, Note_off_c, 0, 46, 33
1, 1537173, Control_c, 0, 64, 114
1, 1537179, Note_off_c, 0, 39, 24
1, 1537196, Note_off_c, 0, 54, 36
1, 1537196, Poly_aftertouch_c, 0, 54, 0
1, 1537210, Control_c, 0, 64, 121
1, 1537217, Note_off_c, 0, 51, 35
1, 1537218, Note_off_c, 0, 58, 36
1, 1537218, Poly_aftertouch_c, 0, 58, 0
1, 1537229, Control_c, 0, 64, 125
1, 1537285, Control_c, 0, 64, 116
1, 1537305, Control_c, 0, 64, 102
1, 1537323, Control_c, 0, 64, 79
1, 1537342, Control_c, 0, 64, 51
1, 1537359, Control_c, 0, 64, 0
1, 1538614, Control_c, 0, 64, 31
1, 1538631, Control_c, 0, 64, 52
1, 1538651, Control_c, 0, 64, 67
1, 1538669, Control_c, 0, 64, 76
1, 1538688, Control_c, 0, 64, 83
1, 1538706, Control_c, 0, 64, 92
1, 1538725, Control_c, 0, 64, 102
1, 1538746, Control_c, 0, 64, 110
1, 1538762, Control_c, 0, 64, 117
1, 1538781, Control_c, 0, 64, 122
1, 1538818, Control_c, 0, 64, 127
1, 1539185, Note_on_c, 0, 53, 31
1, 1539200, Note_on_c, 0, 41, 36
1, 1539266, Note_off_c, 0, 53, 50
1, 1539268, Note_off_c, 0, 41, 50
1, 1539434, Note_on_c, 0, 53, 34
1, 1539437, Note_on_c, 0, 41, 39
1, 1539488, Note_off_c, 0, 41, 52
1, 1539492, Note_off_c, 0, 53, 46
1, 1539653, Note_on_c, 0, 53, 38
1, 1539663, Note_on_c, 0, 41, 29
1, 1540013, Note_on_c, 0, 58, 40
1, 1540015, Control_c, 0, 64, 121
1, 1540024, Note_on_c, 0, 49, 34
1, 1540033, Control_c, 0, 64, 112
1, 1540042, Note_on_c, 0, 46, 38
1, 1540042, Note_on_c, 0, 34, 50
1, 1540052, Control_c, 0, 64, 99
1, 1540072, Control_c, 0, 64, 82
1, 1540091, Control_c, 0, 64, 62
1, 1540109, Control_c, 0, 64, 43
1, 1540128, Control_c, 0, 64, 0
1, 1544334, Control_c, 0, 64, 13
1, 1544354, Control_c, 0, 64, 20
1, 1544373, Control_c, 0, 64, 26
1, 1544391, Control_c, 0, 64, 31
1, 1544410, Control_c, 0, 64, 36
1, 1544428, Control_c, 0, 64, 42
1, 1544448, Control_c, 0, 64, 48
1, 1544465, Control_c, 0, 64, 55
1, 1544485, Control_c, 0, 64, 60
1, 1544503, Control_c, 0, 64, 63
1, 1544504, Control_c, 0, 67, 123
1, 1544522, Control_c, 0, 64, 66
1, 1544541, Control_c, 0, 64, 68
1, 1544578, Control_c, 0, 64, 71
1, 1544596, Control_c, 0, 64, 73
1, 1544597, Control_c, 0, 67, 119
1, 1544616, Control_c, 0, 64, 76
1, 1544635, Control_c, 0, 64, 78
1, 1544653, Control_c, 0, 64, 81
1, 1544671, Control_c, 0, 64, 85
1, 1544673, Control_c, 0, 67, 115
1, 1544690, Control_c, 0, 64, 91
1, 1544709, Control_c, 0, 64, 98
1, 1544728, Control_c, 0, 64, 105
1, 1544728, Control_c, 0, 67, 111
1, 1544746, Control_c, 0, 64, 110
1, 1544765, Control_c, 0, 67, 103
1, 1544784, Control_c, 0, 64, 115
1, 1544784, Control_c, 0, 67, 99
1, 1544821, Control_c, 0, 64, 121
1, 1544821, Control_c, 0, 67, 94
1, 1544859, Control_c, 0, 64, 127
1, 1544876, Control_c, 0, 67, 88
1, 1544914, Control_c, 0, 67, 83
1, 1544951, Control_c, 0, 67, 78
1, 1544990, Control_c, 0, 67, 72
1, 1545027, Control_c, 0, 67, 66
1, 1545046, Control_c, 0, 67, 62
1, 1545064, Control_c, 0, 67, 58
1, 1545083, Control_c, 0, 67, 54
1, 1545107, Poly_aftertouch_c, 0, 53, 24
1, 1545121, Control_c, 0, 67, 48
1, 1545147, Note_off_c, 0, 41, 38
1, 1545158, Control_c, 0, 67, 43
1, 1545160, Note_off_c, 0, 46, 51
1, 1545167, Note_off_c, 0, 53, 35
1, 1545167, Poly_aftertouch_c, 0, 53, 0
1, 1545180, Note_off_c, 0, 34, 30
1, 1545196, Note_off_c, 0, 49, 38
1, 1545196, Poly_aftertouch_c, 0, 49, 0
1, 1545213, Control_c, 0, 67, 38
1, 1545251, Control_c, 0, 67, 32
1, 1545288, Control_c, 0, 67, 26
1, 1545305, Note_off_c, 0, 58, 39
1, 1545305, Poly_aftertouch_c, 0, 58, 0
1, 1545307, Control_c, 0, 67, 22
1, 1545327, Control_c, 0, 67, 15
1, 1545363, Control_c, 0, 64, 110
1, 1545364, Control_c, 0, 67, 0
1, 1545384, Control_c, 0, 64, 77
1, 1545400, Control_c, 0, 64, 35
1, 1545419, Control_c, 0, 64, 0
1, 1545803, Note_on_c, 0, 48, 57
1, 1545839, Note_off_c, 0, 48, 63
1, 1546016, Note_on_c, 0, 41, 75
1, 1546021, Note_on_c, 0, 53, 59
1, 1546022, Note_on_c, 0, 60, 59
1, 1546022, Note_on_c, 0, 56, 61
1, 1546051, Note_off_c, 0, 41, 64
1, 1546056, Note_off_c, 0, 56, 66
1, 1546058, Note_off_c, 0, 60, 66
1, 1546058, Note_off_c, 0, 53, 62
1, 1546058, Poly_aftertouch_c, 0, 53, 0
1, 1546058, Poly_aftertouch_c, 0, 60, 0
1, 1546092, Control_c, 0, 67, 10
1, 1546130, Control_c, 0, 67, 17
1, 1546167, Control_c, 0, 67, 22
1, 1546205, Control_c, 0, 67, 27
1, 1546242, Control_c, 0, 67, 31
1, 1546366, Note_on_c, 0, 60, 53
1, 1546366, Note_on_c, 0, 41, 64
1, 1546379, Note_on_c, 0, 56, 42
1, 1546380, Note_on_c, 0, 53, 40
1, 1546405, Note_off_c, 0, 60, 65
1, 1546405, Poly_aftertouch_c, 0, 60, 0
1, 1546407, Note_off_c, 0, 41, 63
1, 1546415, Note_off_c, 0, 56, 56
1, 1546418, Note_off_c, 0, 53, 46
1, 1546418, Poly_aftertouch_c, 0, 53, 0
1, 1546558, Control_c, 0, 67, 36
1, 1546560, Note_on_c, 0, 53, 63
1, 1546566, Note_on_c, 0, 61, 72
1, 1546569, Note_on_c, 0, 58, 69
1, 1546571, Note_on_c, 0, 34, 75
1, 1546577, Control_c, 0, 67, 43
1, 1546598, Control_c, 0, 67, 56
1, 1546600, Note_off_c, 0, 53, 64
1, 1546600, Poly_aftertouch_c, 0, 53, 0
1, 1546604, Note_off_c, 0, 58, 67
1, 1546604, Poly_aftertouch_c, 0, 58, 0
1, 1546606, Note_off_c, 0, 34, 64
1, 1546612, Note_off_c, 0, 61, 62
1, 1546617, Control_c, 0, 67, 66
1, 1546904, Note_on_c, 0, 53, 62
1, 1546905, Note_on_c, 0, 61, 59
1, 1546906, Note_on_c, 0, 58, 60
1, 1546907, Note_on_c, 0, 34, 60
1, 1546945, Note_off_c, 0, 53, 62
1, 1546945, Poly_aftertouch_c, 0, 53, 0
1, 1546947, Note_off_c, 0, 58, 63
1, 1546947, Poly_aftertouch_c, 0, 58, 0
1, 1546949, Note_off_c, 0, 61, 64
1, 1546951, Note_off_c, 0, 34, 61
1, 1547083, Control_c, 0, 67, 76
1, 1547102, Control_c, 0, 67, 97
1, 1547103, Note_on_c, 0, 53, 68
1, 1547104, Note_on_c, 0, 56, 75
1, 1547112, Note_on_c, 0, 41, 62
1, 1547120, Control_c, 0, 67, 127
1, 1547138, Note_off_c, 0, 53, 65
1, 1547138, Poly_aftertouch_c, 0, 53, 0
1, 1547139, Note_off_c, 0, 56, 68
1, 1547146, Note_off_c, 0, 41, 62
1, 1547358, Note_on_c, 0, 55, 61
1, 1547365, Note_on_c, 0, 58, 60
1, 1547374, Note_on_c, 0, 41, 66
1, 1547393, Note_off_c, 0, 55, 62
1, 1547410, Note_off_c, 0, 41, 57
1, 1547434, Note_off_c, 0, 58, 39
1, 1547434, Note_on_c, 0, 60, 74
1, 1547434, Poly_aftertouch_c, 0, 58, 0
1, 1547440, Note_on_c, 0, 56, 71
1, 1547446, Note_on_c, 0, 41, 64
1, 1547463, Note_off_c, 0, 60, 71
1, 1547463, Poly_aftertouch_c, 0, 60, 0
1, 1547470, Note_off_c, 0, 56, 66
1, 1547477, Note_off_c, 0, 41, 64
1, 1547994, Note_on_c, 0, 85, 56
1, 1548004, Note_on_c, 0, 82, 50
1, 1548018, Note_on_c, 0, 73, 21
1, 1548033, Note_on_c, 0, 58, 34
1, 1548035, Note_on_c, 0, 65, 31
1, 1548168, Control_c, 0, 64, 21
1, 1548187, Control_c, 0, 64, 39
1, 1548206, Control_c, 0, 64, 53
1, 1548224, Control_c, 0, 64, 63
1, 1548243, Control_c, 0, 64, 70
1, 1548261, Control_c, 0, 64, 77
1, 1548281, Control_c, 0, 64, 84
1, 1548298, Control_c, 0, 64, 94
1, 1548301, Note_off_c, 0, 65, 53
1, 1548301, Poly_aftertouch_c, 0, 65, 0
1, 1548317, Control_c, 0, 64, 106
1, 1548322, Note_off_c, 0, 58, 49
1, 1548322, Poly_aftertouch_c, 0, 58, 0
1, 1548323, Poly_aftertouch_c, 0, 73, 24
1, 1548338, Control_c, 0, 64, 117
1, 1548347, Note_off_c, 0, 82, 57
1, 1548354, Note_off_c, 0, 73, 44
1, 1548354, Poly_aftertouch_c, 0, 73, 0
1, 1548354, Control_c, 0, 64, 125
1, 1548364, Note_off_c, 0, 85, 56
1, 1548393, Control_c, 0, 67, 123
1, 1548603, Note_on_c, 0, 85, 60
1, 1548618, Note_on_c, 0, 82, 54
1, 1548624, Note_on_c, 0, 54, 45
1, 1548629, Note_on_c, 0, 73, 39
1, 1548636, Control_c, 0, 64, 100
1, 1548638, Note_on_c, 0, 66, 40
1, 1548655, Control_c, 0, 64, 68
1, 1548673, Control_c, 0, 64, 51
1, 1548692, Control_c, 0, 64, 60
1, 1548710, Control_c, 0, 64, 76
1, 1548718, Note_off_c, 0, 54, 58
1, 1548718, Poly_aftertouch_c, 0, 54, 0
1, 1548729, Control_c, 0, 64, 94
1, 1548747, Control_c, 0, 64, 122
1, 1548766, Control_c, 0, 64, 127
1, 1548779, Note_off_c, 0, 73, 49
1, 1548779, Poly_aftertouch_c, 0, 73, 0
1, 1548791, Note_off_c, 0, 66, 39
1, 1548791, Poly_aftertouch_c, 0, 66, 0
1, 1548821, Note_off_c, 0, 82, 55
1, 1548876, Note_off_c, 0, 85, 38
1, 1548896, Control_c, 0, 67, 117
1, 1548916, Control_c, 0, 67, 108
1, 1548935, Control_c, 0, 67, 94
1, 1548954, Control_c, 0, 67, 77
1, 1548967, Note_on_c, 0, 84, 69
1, 1548973, Control_c, 0, 64, 86
1, 1548975, Control_c, 0, 67, 65
1, 1548980, Note_on_c, 0, 76, 61
1, 1548986, Note_on_c, 0, 67, 52
1, 1548988, Note_on_c, 0, 60, 56
1, 1548992, Control_c, 0, 64, 36
1, 1549010, Control_c, 0, 64, 0
1, 1549013, Note_off_c, 0, 76, 62
1, 1549027, Control_c, 0, 67, 70
1, 1549028, Note_off_c, 0, 67, 64
1, 1549028, Poly_aftertouch_c, 0, 67, 0
1, 1549030, Note_off_c, 0, 60, 61
1, 1549030, Poly_aftertouch_c, 0, 60, 0
1, 1549039, Note_off_c, 0, 84, 62
1, 1549047, Control_c, 0, 67, 77
1, 1549066, Control_c, 0, 67, 93
1, 1549084, Control_c, 0, 67, 118
1, 1549103, Control_c, 0, 67, 127
1, 1549127, Note_on_c, 0, 76, 64
1, 1549130, Note_on_c, 0, 82, 70
1, 1549134, Note_on_c, 0, 67, 62
1, 1549136, Note_on_c, 0, 60, 63
1, 1549165, Note_off_c, 0, 76, 61
1, 1549174, Note_off_c, 0, 67, 66
1, 1549174, Poly_aftertouch_c, 0, 67, 0
1, 1549175, Note_off_c, 0, 60, 63
1, 1549175, Poly_aftertouch_c, 0, 60, 0
1, 1549176, Note_off_c, 0, 82, 59
1, 1549304, Note_on_c, 0, 80, 75
1, 1549305, Note_on_c, 0, 77, 72
1, 1549308, Note_on_c, 0, 68, 64
1, 1549319, Note_on_c, 0, 65, 59
1, 1549332, Note_off_c, 0, 77, 67
1, 1549332, Poly_aftertouch_c, 0, 77, 0
1, 1549334, Note_off_c, 0, 80, 63
1, 1549342, Note_off_c, 0, 68, 69
1, 1549342, Poly_aftertouch_c, 0, 68, 0
1, 1549349, Note_off_c, 0, 65, 62
1, 1549349, Poly_aftertouch_c, 0, 65, 0
1, 1549560, Note_on_c, 0, 65, 58
1, 1549564, Note_on_c, 0, 82, 67
1, 1549569, Note_on_c, 0, 79, 51
1, 1549572, Note_on_c, 0, 68, 52
1, 1549597, Note_off_c, 0, 65, 65
1, 1549597, Note_off_c, 0, 79, 59
1, 1549597, Poly_aftertouch_c, 0, 65, 0
1, 1549609, Control_c, 0, 67, 120
1, 1549628, Note_on_c, 0, 80, 77
1, 1549633, Note_on_c, 0, 84, 72
1, 1549645, Note_off_c, 0, 82, 35
1, 1549653, Note_on_c, 0, 65, 70
1, 1549656, Note_off_c, 0, 80, 70
1, 1549659, Note_off_c, 0, 84, 72
1, 1549684, Note_off_c, 0, 65, 70
1, 1549684, Poly_aftertouch_c, 0, 65, 0
1, 1549685, Note_off_c, 0, 68, 60
1, 1549685, Poly_aftertouch_c, 0, 68, 0
1, 1549686, Poly_aftertouch_c, 0, 68, 0
1, 1549746, Poly_aftertouch_c, 0, 62, 0
1, 1549776, Control_c, 0, 67, 115
1, 1549794, Control_c, 0, 67, 110
1, 1549814, Control_c, 0, 67, 106
1, 1549832, Control_c, 0, 67, 100
1, 1549851, Control_c, 0, 67, 89
1, 1549869, Control_c, 0, 67, 78
1, 1549889, Control_c, 0, 67, 68
1, 1549907, Control_c, 0, 67, 58
1, 1549926, Control_c, 0, 67, 51
1, 1549944, Control_c, 0, 67, 45
1, 1549963, Control_c, 0, 67, 41
1, 1550001, Control_c, 0, 67, 37
1, 1550189, Note_on_c, 0, 56, 58
1, 1550281, Control_c, 0, 67, 33
1, 1550300, Control_c, 0, 67, 29
1, 1550318, Control_c, 0, 67, 25
1, 1550337, Control_c, 0, 64, 15
1, 1550338, Control_c, 0, 67, 21
1, 1550356, Control_c, 0, 64, 28
1, 1550375, Control_c, 0, 64, 38
1, 1550376, Control_c, 0, 67, 14
1, 1550393, Control_c, 0, 64, 45
1, 1550394, Control_c, 0, 67, 9
1, 1550412, Control_c, 0, 64, 51
1, 1550431, Control_c, 0, 64, 58
1, 1550432, Note_on_c, 0, 53, 52
1, 1550447, Note_on_c, 0, 51, 43
1, 1550449, Control_c, 0, 64, 63
1, 1550454, Note_on_c, 0, 41, 39
1, 1550468, Control_c, 0, 64, 66
1, 1550487, Control_c, 0, 64, 68
1, 1550505, Control_c, 0, 64, 71
1, 1550524, Control_c, 0, 64, 74
1, 1550542, Control_c, 0, 64, 79
1, 1550563, Control_c, 0, 64, 86
1, 1550580, Control_c, 0, 64, 97
1, 1550599, Control_c, 0, 64, 111
1, 1550618, Control_c, 0, 64, 125
1, 1550619, Control_c, 0, 67, 0
1, 1550689, Note_off_c, 0, 41, 36
1, 1550813, Note_off_c, 0, 51, 57
1, 1550844, Note_on_c, 0, 58, 66
1, 1550865, Note_on_c, 0, 50, 49
1, 1550873, Note_off_c, 0, 53, 54
1, 1550873, Poly_aftertouch_c, 0, 53, 0
1, 1550943, Note_off_c, 0, 56, 56
1, 1550983, Note_off_c, 0, 50, 54
1, 1551112, Note_on_c, 0, 60, 64
1, 1551131, Note_on_c, 0, 51, 54
1, 1551135, Note_on_c, 0, 48, 42
1, 1551139, Note_on_c, 0, 43, 48
1, 1551197, Control_c, 0, 64, 109
1, 1551216, Control_c, 0, 64, 84
1, 1551236, Control_c, 0, 64, 58
1, 1551238, Note_off_c, 0, 58, 34
1, 1551238, Poly_aftertouch_c, 0, 58, 0
1, 1551253, Control_c, 0, 64, 32
1, 1551272, Control_c, 0, 64, 8
1, 1551291, Control_c, 0, 64, 21
1, 1551309, Control_c, 0, 64, 39
1, 1551328, Control_c, 0, 64, 58
1, 1551347, Control_c, 0, 64, 76
1, 1551366, Control_c, 0, 64, 91
1, 1551385, Control_c, 0, 64, 107
1, 1551403, Control_c, 0, 64, 120
1, 1551411, Note_off_c, 0, 43, 61
1, 1551421, Control_c, 0, 64, 127
1, 1551426, Note_off_c, 0, 51, 59
1, 1551533, Control_c, 0, 67, 8
1, 1551567, Note_on_c, 0, 53, 64
1, 1551569, Note_off_c, 0, 60, 59
1, 1551569, Poly_aftertouch_c, 0, 60, 0
1, 1551571, Note_off_c, 0, 48, 36
1, 1551588, Note_on_c, 0, 50, 54
1, 1551647, Control_c, 0, 67, 12
1, 1551656, Note_off_c, 0, 50, 53
1, 1551889, Control_c, 0, 64, 122
1, 1551908, Control_c, 0, 64, 117
1, 1551916, Note_on_c, 0, 60, 54
1, 1551924, Note_on_c, 0, 56, 49
1, 1551926, Control_c, 0, 64, 112
1, 1551940, Note_on_c, 0, 51, 43
1, 1551945, Control_c, 0, 64, 107
1, 1551948, Note_on_c, 0, 41, 40
1, 1551965, Control_c, 0, 64, 102
1, 1551982, Control_c, 0, 64, 97
1, 1552001, Control_c, 0, 64, 91
1, 1552009, Note_off_c, 0, 53, 35
1, 1552009, Poly_aftertouch_c, 0, 53, 0
1, 1552019, Control_c, 0, 64, 85
1, 1552039, Control_c, 0, 64, 78
1, 1552057, Control_c, 0, 64, 71
1, 1552077, Control_c, 0, 64, 65
1, 1552095, Control_c, 0, 64, 60
1, 1552114, Control_c, 0, 64, 55
1, 1552132, Control_c, 0, 64, 45
1, 1552151, Control_c, 0, 64, 29
1, 1552170, Control_c, 0, 64, 0
1, 1552188, Control_c, 0, 67, 16
1, 1552226, Control_c, 0, 67, 25
1, 1552245, Control_c, 0, 67, 35
1, 1552263, Control_c, 0, 67, 47
1, 1552282, Control_c, 0, 67, 60
1, 1552301, Control_c, 0, 67, 71
1, 1552318, Control_c, 0, 64, 37
1, 1552320, Control_c, 0, 67, 81
1, 1552339, Control_c, 0, 64, 49
1, 1552340, Control_c, 0, 67, 89
1, 1552357, Control_c, 0, 64, 61
1, 1552358, Control_c, 0, 67, 96
1, 1552375, Control_c, 0, 64, 72
1, 1552377, Control_c, 0, 67, 103
1, 1552395, Control_c, 0, 64, 80
1, 1552396, Control_c, 0, 67, 107
1, 1552413, Control_c, 0, 64, 87
1, 1552432, Control_c, 0, 64, 97
1, 1552434, Control_c, 0, 67, 112
1, 1552450, Control_c, 0, 64, 107
1, 1552464, Note_off_c, 0, 51, 51
1, 1552468, Control_c, 0, 64, 114
1, 1552487, Control_c, 0, 64, 118
1, 1552489, Control_c, 0, 67, 117
1, 1552560, Note_off_c, 0, 60, 52
1, 1552560, Poly_aftertouch_c, 0, 60, 0
1, 1552611, Note_on_c, 0, 62, 49
1, 1552616, Control_c, 0, 64, 105
1, 1552618, Control_c, 0, 67, 122
1, 1552637, Control_c, 0, 64, 88
1, 1552656, Control_c, 0, 64, 72
1, 1552657, Poly_aftertouch_c, 0, 41, 24
1, 1552675, Control_c, 0, 64, 67
1, 1552677, Note_on_c, 0, 50, 32
1, 1552694, Control_c, 0, 64, 73
1, 1552712, Control_c, 0, 64, 80
1, 1552731, Control_c, 0, 64, 90
1, 1552749, Control_c, 0, 64, 102
1, 1552767, Note_off_c, 0, 41, 27
1, 1552767, Poly_aftertouch_c, 0, 41, 0
1, 1552768, Control_c, 0, 64, 115
1, 1552786, Control_c, 0, 64, 123
1, 1552801, Note_off_c, 0, 50, 57
1, 1552821, Note_off_c, 0, 56, 51
1, 1552824, Control_c, 0, 64, 127
1, 1552845, Note_off_c, 0, 62, 55
1, 1552918, Control_c, 0, 67, 118
1, 1553235, Control_c, 0, 64, 123
1, 1553243, Note_on_c, 0, 64, 40
1, 1553259, Note_on_c, 0, 48, 27
1, 1553263, Note_on_c, 0, 60, 29
1, 1553265, Note_on_c, 0, 55, 23
1, 1553270, Note_on_c, 0, 43, 28
1, 1553290, Note_on_c, 0, 36, 32
1, 1553310, Control_c, 0, 64, 119
1, 1553348, Control_c, 0, 64, 113
1, 1553386, Control_c, 0, 64, 105
1, 1553403, Control_c, 0, 64, 100
1, 1553422, Control_c, 0, 64, 95
1, 1553441, Control_c, 0, 64, 88
1, 1553459, Control_c, 0, 64, 78
1, 1553479, Control_c, 0, 64, 65
1, 1553497, Control_c, 0, 64, 51
1, 1553517, Control_c, 0, 64, 25
1, 1553534, Control_c, 0, 64, 0
1, 1553647, Control_c, 0, 64, 13
1, 1553665, Control_c, 0, 64, 31
1, 1553685, Control_c, 0, 64, 46
1, 1553687, Control_c, 0, 67, 114
1, 1553704, Control_c, 0, 64, 59
1, 1553722, Control_c, 0, 64, 69
1, 1553740, Control_c, 0, 64, 75
1, 1553759, Control_c, 0, 64, 80
1, 1553760, Control_c, 0, 67, 110
1, 1553779, Control_c, 0, 64, 84
1, 1553796, Control_c, 0, 64, 90
1, 1553815, Control_c, 0, 64, 97
1, 1553818, Control_c, 0, 67, 106
1, 1553834, Control_c, 0, 64, 106
1, 1553853, Control_c, 0, 64, 115
1, 1553860, Note_off_c, 0, 48, 40
1, 1553871, Control_c, 0, 64, 123
1, 1553890, Control_c, 0, 64, 127
1, 1553904, Note_off_c, 0, 43, 42
1, 1553907, Control_c, 0, 67, 101
1, 1553943, Note_off_c, 0, 36, 41
1, 1553971, Note_off_c, 0, 60, 38
1, 1553971, Poly_aftertouch_c, 0, 60, 0
1, 1553974, Note_off_c, 0, 55, 38
1, 1554002, Control_c, 0, 67, 97
1, 1554023, Note_off_c, 0, 64, 37
1, 1554095, Control_c, 0, 67, 93
1, 1554132, Control_c, 0, 67, 87
1, 1554170, Control_c, 0, 67, 81
1, 1554208, Control_c, 0, 67, 76
1, 1554246, Control_c, 0, 67, 70
1, 1554263, Control_c, 0, 67, 65
1, 1554283, Control_c, 0, 67, 58
1, 1554301, Control_c, 0, 67, 47
1, 1554320, Control_c, 0, 67, 34
1, 1554340, Control_c, 0, 64, 107
1, 1554341, Control_c, 0, 67, 22
1, 1554357, Control_c, 0, 64, 51
1, 1554359, Control_c, 0, 67, 9
1, 1554376, Control_c, 0, 64, 0
1, 1554377, Control_c, 0, 67, 0
1, 1554592, Poly_aftertouch_c, 0, 87, 0
1, 1554714, Note_on_c, 0, 92, 74
1, 1554715, Note_on_c, 0, 89, 64
1, 1554721, Note_on_c, 0, 80, 62
1, 1554725, Note_on_c, 0, 86, 60
1, 1554727, Note_on_c, 0, 24, 55
1, 1554728, Note_on_c, 0, 83, 56
1, 1554749, Note_on_c, 0, 36, 34
1, 1554755, Control_c, 0, 64, 76
1, 1554756, Note_off_c, 0, 92, 61
1, 1554759, Note_off_c, 0, 89, 63
1, 1554759, Poly_aftertouch_c, 0, 89, 0
1, 1554761, Note_off_c, 0, 80, 63
1, 1554768, Note_off_c, 0, 86, 68
1, 1554768, Note_off_c, 0, 83, 64
1, 1554768, Poly_aftertouch_c, 0, 83, 0
1, 1554774, Control_c, 0, 64, 123
1, 1554775, Note_off_c, 0, 24, 59
1, 1554787, Control_c, 0, 64, 127
1, 1554798, Note_off_c, 0, 36, 40
1, 1555050, Control_c, 0, 64, 103
1, 1555051, Control_c, 0, 67, 8
1, 1555058, Note_on_c, 0, 91, 66
1, 1555061, Note_on_c, 0, 86, 59
1, 1555061, Note_on_c, 0, 79, 70
1, 1555069, Note_on_c, 0, 83, 57
1, 1555069, Control_c, 0, 64, 47
1, 1555070, Note_on_c, 0, 24, 60
1, 1555070, Control_c, 0, 67, 14
1, 1555078, Note_on_c, 0, 36, 52
1, 1555088, Control_c, 0, 64, 0
1, 1555088, Control_c, 0, 67, 24
1, 1555095, Note_off_c, 0, 79, 66
1, 1555096, Note_off_c, 0, 91, 52
1, 1555104, Note_off_c, 0, 86, 63
1, 1555106, Control_c, 0, 67, 39
1, 1555111, Note_off_c, 0, 83, 64
1, 1555111, Poly_aftertouch_c, 0, 83, 0
1, 1555114, Note_off_c, 0, 36, 52
1, 1555117, Note_off_c, 0, 24, 58
1, 1555125, Control_c, 0, 67, 54
1, 1555142, Control_c, 0, 67, 65
1, 1555161, Control_c, 0, 67, 71
1, 1555219, Note_on_c, 0, 77, 64
1, 1555220, Note_on_c, 0, 36, 53
1, 1555222, Note_on_c, 0, 86, 63
1, 1555222, Note_on_c, 0, 24, 63
1, 1555223, Note_on_c, 0, 89, 63
1, 1555227, Note_on_c, 0, 83, 55
1, 1555249, Note_off_c, 0, 77, 64
1, 1555249, Poly_aftertouch_c, 0, 77, 0
1, 1555256, Note_off_c, 0, 36, 59
1, 1555261, Note_off_c, 0, 86, 62
1, 1555262, Note_off_c, 0, 24, 57
1, 1555268, Note_off_c, 0, 83, 65
1, 1555268, Poly_aftertouch_c, 0, 83, 0
1, 1555269, Note_off_c, 0, 89, 59
1, 1555269, Poly_aftertouch_c, 0, 89, 0
1, 1555391, Note_on_c, 0, 88, 81
1, 1555392, Note_on_c, 0, 24, 62
1, 1555397, Note_on_c, 0, 36, 54
1, 1555397, Note_on_c, 0, 76, 75
1, 1555402, Note_on_c, 0, 84, 75
1, 1555424, Note_off_c, 0, 88, 62
1, 1555426, Note_off_c, 0, 76, 71
1, 1555432, Note_off_c, 0, 84, 71
1, 1555433, Note_off_c, 0, 24, 58
1, 1555439, Note_off_c, 0, 36, 63
1, 1555628, Control_c, 0, 67, 65
1, 1555648, Control_c, 0, 67, 57
1, 1555655, Note_on_c, 0, 89, 70
1, 1555662, Note_on_c, 0, 86, 63
1, 1555663, Note_on_c, 0, 24, 65
1, 1555667, Note_on_c, 0, 77, 52
1, 1555667, Control_c, 0, 67, 35
1, 1555683, Note_on_c, 0, 36, 42
1, 1555684, Note_off_c, 0, 86, 63
1, 1555684, Control_c, 0, 67, 12
1, 1555690, Note_off_c, 0, 89, 64
1, 1555690, Poly_aftertouch_c, 0, 89, 0
1, 1555694, Note_off_c, 0, 77, 58
1, 1555694, Poly_aftertouch_c, 0, 77, 0
1, 1555705, Note_off_c, 0, 24, 61
1, 1555722, Control_c, 0, 67, 17
1, 1555735, Note_on_c, 0, 91, 84
1, 1555739, Note_on_c, 0, 88, 69
1, 1555740, Note_on_c, 0, 79, 72
1, 1555740, Control_c, 0, 67, 30
1, 1555751, Note_on_c, 0, 24, 65
1, 1555757, Control_c, 0, 67, 51
1, 1555760, Note_off_c, 0, 79, 68
1, 1555766, Note_off_c, 0, 91, 65
1, 1555766, Note_off_c, 0, 88, 66
1, 1555778, Control_c, 0, 67, 70
1, 1555791, Note_off_c, 0, 24, 58
1, 1555797, Control_c, 0, 67, 80
1, 1555798, Note_off_c, 0, 36, 45
1, 1556004, Control_c, 0, 67, 75
1, 1556040, Control_c, 0, 67, 67
1, 1556060, Control_c, 0, 67, 62
1, 1556077, Control_c, 0, 67, 57
1, 1556097, Control_c, 0, 67, 52
1, 1556115, Control_c, 0, 67, 48
1, 1556135, Control_c, 0, 67, 42
1, 1556151, Control_c, 0, 67, 36
1, 1556171, Control_c, 0, 67, 30
1, 1556189, Control_c, 0, 67, 24
1, 1556208, Control_c, 0, 67, 15
1, 1556262, Note_on_c, 0, 76, 57
1, 1556265, Control_c, 0, 67, 0
1, 1556516, Note_on_c, 0, 70, 46
1, 1556530, Note_on_c, 0, 67, 39
1, 1556531, Note_on_c, 0, 60, 33
1, 1556601, Control_c, 0, 64, 8
1, 1556620, Control_c, 0, 64, 34
1, 1556639, Control_c, 0, 64, 54
1, 1556657, Control_c, 0, 64, 69
1, 1556677, Control_c, 0, 64, 80
1, 1556694, Control_c, 0, 64, 89
1, 1556713, Control_c, 0, 64, 99
1, 1556732, Control_c, 0, 64, 111
1, 1556750, Control_c, 0, 64, 122
1, 1556769, Control_c, 0, 64, 127
1, 1556885, Note_on_c, 0, 78, 74
1, 1556906, Note_on_c, 0, 66, 50
1, 1556925, Note_off_c, 0, 67, 55
1, 1556925, Poly_aftertouch_c, 0, 67, 0
1, 1556944, Note_off_c, 0, 76, 57
1, 1556951, Note_off_c, 0, 70, 54
1, 1556951, Poly_aftertouch_c, 0, 70, 0
1, 1556954, Note_off_c, 0, 60, 40
1, 1556954, Poly_aftertouch_c, 0, 60, 0
1, 1557014, Note_off_c, 0, 66, 38
1, 1557014, Poly_aftertouch_c, 0, 66, 0
1, 1557115, Note_on_c, 0, 79, 75
1, 1557158, Note_on_c, 0, 64, 48
1, 1557159, Note_on_c, 0, 71, 50
1, 1557170, Note_on_c, 0, 59, 50
1, 1557200, Control_c, 0, 64, 106
1, 1557218, Control_c, 0, 64, 80
1, 1557232, Note_off_c, 0, 78, 38
1, 1557235, Control_c, 0, 64, 52
1, 1557274, Control_c, 0, 64, 0
1, 1557312, Control_c, 0, 64, 37
1, 1557330, Control_c, 0, 64, 58
1, 1557349, Control_c, 0, 64, 76
1, 1557368, Control_c, 0, 64, 92
1, 1557386, Control_c, 0, 64, 110
1, 1557406, Control_c, 0, 64, 127
1, 1557510, Note_off_c, 0, 59, 53
1, 1557512, Note_off_c, 0, 71, 53
1, 1557512, Poly_aftertouch_c, 0, 71, 0
1, 1557545, Note_on_c, 0, 66, 59
1, 1557577, Note_off_c, 0, 64, 40
1, 1557743, Note_off_c, 0, 79, 35
1, 1557785, Note_off_c, 0, 66, 32
1, 1557785, Poly_aftertouch_c, 0, 66, 0
1, 1557829, Note_on_c, 0, 76, 67
1, 1557834, Control_c, 0, 64, 122
1, 1557854, Note_on_c, 0, 72, 53
1, 1557854, Control_c, 0, 64, 118
1, 1557873, Control_c, 0, 64, 112
1, 1557878, Note_on_c, 0, 58, 41
1, 1557879, Note_on_c, 0, 67, 44
1, 1557891, Control_c, 0, 64, 105
1, 1557910, Control_c, 0, 64, 98
1, 1557929, Control_c, 0, 64, 90
1, 1557948, Control_c, 0, 64, 81
1, 1557966, Control_c, 0, 64, 70
1, 1557984, Control_c, 0, 64, 60
1, 1558004, Control_c, 0, 64, 47
1, 1558022, Control_c, 0, 64, 16
1, 1558040, Control_c, 0, 64, 0
1, 1558153, Control_c, 0, 64, 13
1, 1558172, Control_c, 0, 64, 35
1, 1558190, Control_c, 0, 64, 52
1, 1558210, Control_c, 0, 64, 66
1, 1558228, Control_c, 0, 64, 75
1, 1558246, Control_c, 0, 64, 81
1, 1558266, Control_c, 0, 64, 87
1, 1558284, Control_c, 0, 64, 92
1, 1558303, Control_c, 0, 64, 97
1, 1558321, Control_c, 0, 64, 104
1, 1558335, Note_on_c, 0, 77, 75
1, 1558339, Control_c, 0, 64, 111
1, 1558360, Control_c, 0, 64, 116
1, 1558377, Control_c, 0, 64, 121
1, 1558381, Note_on_c, 0, 65, 40
1, 1558478, Note_off_c, 0, 67, 34
1, 1558478, Poly_aftertouch_c, 0, 67, 0
1, 1558522, Note_off_c, 0, 76, 56
1, 1558602, Control_c, 0, 64, 116
1, 1558639, Control_c, 0, 64, 112
1, 1558677, Control_c, 0, 64, 107
1, 1558714, Control_c, 0, 64, 101
1, 1558752, Control_c, 0, 64, 95
1, 1558767, Note_off_c, 0, 65, 41
1, 1558767, Poly_aftertouch_c, 0, 65, 0
1, 1558789, Control_c, 0, 64, 90
1, 1558793, Note_on_c, 0, 79, 68
1, 1558807, Control_c, 0, 64, 86
1, 1558826, Control_c, 0, 64, 80
1, 1558845, Control_c, 0, 64, 74
1, 1558853, Note_on_c, 0, 64, 36
1, 1558864, Control_c, 0, 64, 68
1, 1558883, Control_c, 0, 64, 60
1, 1558900, Control_c, 0, 64, 51
1, 1558901, Note_off_c, 0, 77, 58
1, 1558901, Poly_aftertouch_c, 0, 77, 0
1, 1558919, Control_c, 0, 64, 26
1, 1558939, Control_c, 0, 64, 0
1, 1559051, Control_c, 0, 64, 25
1, 1559069, Control_c, 0, 64, 68
1, 1559089, Control_c, 0, 64, 101
1, 1559093, Note_off_c, 0, 72, 58
1, 1559107, Control_c, 0, 64, 127
1, 1559139, Note_off_c, 0, 64, 55
1, 1559152, Note_off_c, 0, 58, 60
1, 1559152, Poly_aftertouch_c, 0, 58, 0
1, 1559175, Note_off_c, 0, 79, 55
1, 1559270, Note_on_c, 0, 72, 87
1, 1559398, Note_on_c, 0, 56, 53
1, 1559435, Note_on_c, 0, 60, 47
1, 1559462, Control_c, 0, 64, 97
1, 1559481, Control_c, 0, 64, 24
1, 1559494, Note_off_c, 0, 72, 56
1, 1559499, Note_on_c, 0, 65, 64
1, 1559499, Control_c, 0, 64, 0
1, 1559504, Note_on_c, 0, 68, 94
1, 1559508, Note_on_c, 0, 84, 94
1, 1559510, Note_on_c, 0, 77, 92
1, 1559537, Note_off_c, 0, 68, 68
1, 1559538, Control_c, 0, 67, 11
1, 1559543, Note_off_c, 0, 65, 67
1, 1559543, Poly_aftertouch_c, 0, 65, 0
1, 1559555, Note_off_c, 0, 56, 64
1, 1559558, Note_off_c, 0, 60, 64
1, 1559558, Note_off_c, 0, 77, 64
1, 1559558, Poly_aftertouch_c, 0, 60, 0
1, 1559558, Poly_aftertouch_c, 0, 77, 0
1, 1559575, Note_off_c, 0, 84, 67
1, 1559593, Control_c, 0, 67, 17
1, 1559611, Control_c, 0, 67, 21
1, 1559648, Control_c, 0, 67, 27
1, 1559763, Note_on_c, 0, 79, 79
1, 1559777, Note_on_c, 0, 82, 65
1, 1559826, Note_on_c, 0, 77, 82
1, 1559830, Note_on_c, 0, 61, 99
1, 1559832, Note_on_c, 0, 80, 87
1, 1559835, Note_on_c, 0, 49, 91
1, 1559849, Note_off_c, 0, 82, 57
1, 1559859, Note_off_c, 0, 79, 62
1, 1559870, Note_off_c, 0, 80, 63
1, 1559880, Note_off_c, 0, 77, 62
1, 1559880, Poly_aftertouch_c, 0, 77, 0
1, 1560032, Note_on_c, 0, 68, 89
1, 1560034, Note_on_c, 0, 77, 86
1, 1560058, Note_off_c, 0, 61, 54
1, 1560060, Note_off_c, 0, 49, 53
1, 1560060, Poly_aftertouch_c, 0, 49, 0
1, 1560082, Note_off_c, 0, 68, 63
1, 1560083, Note_off_c, 0, 77, 60
1, 1560083, Poly_aftertouch_c, 0, 77, 0
1, 1560197, Note_on_c, 0, 60, 81
1, 1560198, Note_on_c, 0, 48, 78
1, 1560201, Note_on_c, 0, 68, 89
1, 1560203, Note_on_c, 0, 65, 84
1, 1560230, Note_off_c, 0, 60, 67
1, 1560230, Poly_aftertouch_c, 0, 60, 0
1, 1560242, Note_off_c, 0, 65, 65
1, 1560242, Poly_aftertouch_c, 0, 65, 0
1, 1560244, Note_off_c, 0, 68, 64
1, 1560260, Note_off_c, 0, 48, 63
1, 1560376, Note_on_c, 0, 56, 90
1, 1560383, Note_on_c, 0, 44, 81
1, 1560384, Note_on_c, 0, 60, 76
1, 1560384, Note_on_c, 0, 65, 82
1, 1560424, Note_off_c, 0, 60, 65
1, 1560424, Note_off_c, 0, 65, 64
1, 1560424, Poly_aftertouch_c, 0, 60, 0
1, 1560424, Poly_aftertouch_c, 0, 65, 0
1, 1560426, Note_off_c, 0, 44, 65
1, 1560439, Note_off_c, 0, 56, 61
1, 1560509, Control_c, 0, 67, 23
1, 1560569, Note_on_c, 0, 51, 82
1, 1560570, Note_on_c, 0, 55, 90
1, 1560572, Note_on_c, 0, 43, 80
1, 1560573, Note_on_c, 0, 63, 90
1, 1560573, Note_on_c, 0, 60, 86
1, 1560575, Note_on_c, 0, 72, 92
1, 1560584, Control_c, 0, 67, 19
1, 1560600, Note_off_c, 0, 60, 72
1, 1560600, Poly_aftertouch_c, 0, 60, 0
1, 1560603, Note_off_c, 0, 63, 70
1, 1560605, Control_c, 0, 64, 77
1, 1560607, Control_c, 0, 67, 13
1, 1560609, Note_off_c, 0, 43, 67
1, 1560613, Note_off_c, 0, 55, 63
1, 1560613, Note_off_c, 0, 51, 66
1, 1560621, Control_c, 0, 64, 127
1, 1560623, Note_off_c, 0, 72, 64
1, 1560659, Control_c, 0, 67, 0
1, 1560831, Note_on_c, 0, 68, 86
1, 1560845, Note_on_c, 0, 65, 75
1, 1560873, Note_off_c, 0, 68, 64
1, 1560874, Note_off_c, 0, 65, 70
1, 1560874, Poly_aftertouch_c, 0, 65, 0
1, 1560903, Control_c, 0, 64, 65
1, 1560907, Note_on_c, 0, 85, 97
1, 1560908, Note_on_c, 0, 75, 92
1, 1560908, Note_on_c, 0, 73, 96
1, 1560922, Control_c, 0, 64, 0
1, 1560925, Note_on_c, 0, 63, 91
1, 1560927, Note_on_c, 0, 67, 93
1, 1560980, Note_off_c, 0, 67, 63
1, 1560980, Poly_aftertouch_c, 0, 67, 0
1, 1560995, Note_off_c, 0, 63, 61
1, 1561083, Note_on_c, 0, 63, 89
1, 1561086, Note_on_c, 0, 55, 72
1, 1561107, Note_off_c, 0, 75, 60
1, 1561126, Note_off_c, 0, 73, 60
1, 1561126, Poly_aftertouch_c, 0, 73, 0
1, 1561131, Note_off_c, 0, 63, 62
1, 1561138, Note_off_c, 0, 55, 61
1, 1561141, Note_off_c, 0, 85, 57
1, 1561263, Note_on_c, 0, 55, 85
1, 1561264, Note_on_c, 0, 84, 85
1, 1561269, Note_on_c, 0, 75, 80
1, 1561271, Note_on_c, 0, 51, 82
1, 1561274, Note_on_c, 0, 72, 80
1, 1561298, Note_off_c, 0, 55, 66
1, 1561302, Note_off_c, 0, 72, 70
1, 1561303, Note_off_c, 0, 84, 57
1, 1561307, Note_off_c, 0, 51, 62
1, 1561313, Note_off_c, 0, 75, 61
1, 1561403, Poly_aftertouch_c, 0, 83, 0
1, 1561468, Note_on_c, 0, 51, 83
1, 1561470, Note_on_c, 0, 48, 81
1, 1561472, Note_on_c, 0, 67, 88
1, 1561480, Note_on_c, 0, 81, 67
1, 1561485, Note_on_c, 0, 79, 62
1, 1561495, Note_off_c, 0, 67, 64
1, 1561495, Poly_aftertouch_c, 0, 67, 0
1, 1561501, Note_off_c, 0, 81, 66
1, 1561503, Note_off_c, 0, 51, 65
1, 1561503, Note_on_c, 0, 73, 38
1, 1561507, Note_on_c, 0, 76, 31
1, 1561508, Note_off_c, 0, 48, 68
1, 1561510, Note_off_c, 0, 79, 64
1, 1561545, Note_off_c, 0, 73, 36
1, 1561545, Poly_aftertouch_c, 0, 73, 0
1, 1561554, Note_off_c, 0, 76, 34
1, 1561703, Note_on_c, 0, 60, 96
1, 1561703, Note_on_c, 0, 62, 93
1, 1561708, Note_on_c, 0, 55, 82
1, 1561715, Note_on_c, 0, 43, 69
1, 1561735, Note_off_c, 0, 55, 71
1, 1561749, Note_off_c, 0, 43, 65
1, 1561755, Note_on_c, 0, 41, 29
1, 1561755, Poly_aftertouch_c, 0, 41, 0
1, 1561756, Note_off_c, 0, 41, 127
1, 1561815, Poly_aftertouch_c, 0, 41, 0
1, 1562148, Note_on_c, 0, 68, 102
1, 1562154, Note_on_c, 0, 56, 88
1, 1562192, Note_off_c, 0, 56, 65
1, 1562192, Control_c, 0, 64, 54
1, 1562199, Note_off_c, 0, 68, 65
1, 1562211, Control_c, 0, 64, 88
1, 1562229, Control_c, 0, 64, 123
1, 1562248, Control_c, 0, 64, 127
1, 1562656, Note_off_c, 0, 62, 47
1, 1562921, Control_c, 0, 64, 123
1, 1562959, Control_c, 0, 64, 115
1, 1562978, Control_c, 0, 64, 109
1, 1562996, Control_c, 0, 64, 101
1, 1563014, Control_c, 0, 64, 88
1, 1563034, Control_c, 0, 64, 72
1, 1563052, Control_c, 0, 64, 52
1, 1563070, Control_c, 0, 64, 0
1, 1563083, Note_on_c, 0, 43, 76
1, 1563085, Note_on_c, 0, 62, 73
1, 1563095, Note_on_c, 0, 59, 70
1, 1563127, Note_off_c, 0, 43, 68
1, 1563173, Note_off_c, 0, 60, 58
1, 1563173, Poly_aftertouch_c, 0, 60, 0
1, 1563630, Note_on_c, 0, 68, 83
1, 1563640, Note_on_c, 0, 56, 73
1, 1563669, Control_c, 0, 64, 44
1, 1563688, Control_c, 0, 64, 63
1, 1563708, Control_c, 0, 64, 79
1, 1563716, Note_off_c, 0, 68, 61
1, 1563726, Control_c, 0, 64, 95
1, 1563730, Note_off_c, 0, 56, 59
1, 1563744, Control_c, 0, 64, 112
1, 1563763, Control_c, 0, 64, 127
1, 1563915, Note_off_c, 0, 59, 58
1, 1563952, Note_off_c, 0, 62, 59
1, 1564519, Note_on_c, 0, 67, 84
1, 1564533, Note_on_c, 0, 43, 88
1, 1564753, Control_c, 0, 64, 110
1, 1564764, Note_on_c, 0, 64, 88
1, 1564765, Note_on_c, 0, 48, 106
1, 1564765, Note_on_c, 0, 72, 95
1, 1564767, Note_on_c, 0, 36, 87
1, 1564769, Note_on_c, 0, 60, 96
1, 1564772, Control_c, 0, 64, 60
1, 1564791, Control_c, 0, 64, 0
1, 1564795, Note_off_c, 0, 67, 59
1, 1564795, Poly_aftertouch_c, 0, 67, 0
1, 1564803, Note_off_c, 0, 36, 70
1, 1564803, Note_on_c, 0, 63, 40
1, 1564804, Note_off_c, 0, 63, 127
1, 1564808, Note_off_c, 0, 43, 62
1, 1564815, Note_off_c, 0, 48, 70
1, 1564815, Note_off_c, 0, 60, 66
1, 1564815, Poly_aftertouch_c, 0, 60, 0
1, 1564822, Note_off_c, 0, 64, 63
1, 1564840, Note_off_c, 0, 72, 66
1, 1564861, Poly_aftertouch_c, 0, 68, 0
1, 1565141, Note_on_c, 0, 73, 91
1, 1565143, Note_on_c, 0, 70, 90
1, 1565148, Note_on_c, 0, 61, 93
1, 1565149, Note_on_c, 0, 58, 88
1, 1565184, Control_c, 0, 64, 68
1, 1565191, Note_off_c, 0, 73, 65
1, 1565191, Poly_aftertouch_c, 0, 73, 0
1, 1565193, Note_off_c, 0, 61, 66
1, 1565194, Note_off_c, 0, 70, 66
1, 1565194, Poly_aftertouch_c, 0, 70, 0
1, 1565198, Note_off_c, 0, 58, 68
1, 1565198, Poly_aftertouch_c, 0, 58, 0
1, 1565203, Control_c, 0, 64, 127
1, 1565520, Control_c, 0, 64, 121
1, 1565532, Note_on_c, 0, 68, 82
1, 1565537, Note_on_c, 0, 72, 78
1, 1565539, Note_on_c, 0, 60, 75
1, 1565539, Control_c, 0, 64, 65
1, 1565540, Note_on_c, 0, 56, 76
1, 1565557, Control_c, 0, 64, 0
1, 1565571, Note_off_c, 0, 60, 70
1, 1565571, Poly_aftertouch_c, 0, 60, 0
1, 1565580, Note_off_c, 0, 56, 65
1, 1565586, Note_off_c, 0, 72, 58
1, 1565593, Note_off_c, 0, 68, 64
1, 1565732, Note_on_c, 0, 70, 80
1, 1565739, Note_on_c, 0, 58, 75
1, 1565739, Note_on_c, 0, 67, 77
1, 1565741, Note_on_c, 0, 55, 74
1, 1565777, Note_off_c, 0, 58, 66
1, 1565777, Poly_aftertouch_c, 0, 58, 0
1, 1565779, Note_off_c, 0, 67, 60
1, 1565779, Poly_aftertouch_c, 0, 67, 0
1, 1565788, Note_off_c, 0, 55, 64
1, 1565794, Note_off_c, 0, 70, 64
1, 1565794, Poly_aftertouch_c, 0, 70, 0
1, 1565913, Note_on_c, 0, 56, 89
1, 1565915, Note_on_c, 0, 65, 95
1, 1565917, Note_on_c, 0, 68, 92
1, 1565919, Note_on_c, 0, 53, 86
1, 1565957, Note_off_c, 0, 53, 66
1, 1565957, Poly_aftertouch_c, 0, 53, 0
1, 1565958, Note_off_c, 0, 65, 63
1, 1565958, Poly_aftertouch_c, 0, 65, 0
1, 1565961, Note_off_c, 0, 68, 64
1, 1565968, Note_off_c, 0, 56, 67
1, 1566186, Note_on_c, 0, 58, 81
1, 1566189, Note_on_c, 0, 55, 77
1, 1566198, Note_on_c, 0, 67, 72
1, 1566200, Note_on_c, 0, 70, 74
1, 1566222, Note_off_c, 0, 55, 70
1, 1566224, Note_off_c, 0, 58, 69
1, 1566224, Poly_aftertouch_c, 0, 58, 0
1, 1566227, Note_off_c, 0, 70, 71
1, 1566227, Poly_aftertouch_c, 0, 70, 0
1, 1566231, Note_off_c, 0, 67, 68
1, 1566231, Poly_aftertouch_c, 0, 67, 0
1, 1566272, Note_on_c, 0, 68, 91
1, 1566276, Note_on_c, 0, 72, 82
1, 1566278, Note_on_c, 0, 60, 92
1, 1566280, Note_on_c, 0, 56, 88
1, 1566296, Note_on_c, 0, 70, 54
1, 1566307, Note_off_c, 0, 72, 67
1, 1566323, Note_off_c, 0, 56, 64
1, 1566324, Note_off_c, 0, 60, 67
1, 1566324, Poly_aftertouch_c, 0, 60, 0
1, 1566327, Note_off_c, 0, 68, 67
1, 1566329, Note_off_c, 0, 70, 39
1, 1566329, Poly_aftertouch_c, 0, 70, 0
1, 1566362, Control_c, 0, 64, 78
1, 1566381, Control_c, 0, 64, 99
1, 1566400, Control_c, 0, 64, 106
1, 1566492, Control_c, 0, 64, 92
1, 1566512, Control_c, 0, 64, 65
1, 1566530, Control_c, 0, 64, 0
1, 1566818, Note_on_c, 0, 48, 87
1, 1567031, Note_on_c, 0, 51, 81
1, 1567035, Note_on_c, 0, 60, 82
1, 1567037, Note_on_c, 0, 56, 80
1, 1567042, Note_on_c, 0, 44, 97
1, 1567044, Note_on_c, 0, 32, 92
1, 1567059, Note_off_c, 0, 48, 57
1, 1567070, Note_off_c, 0, 44, 71
1, 1567073, Note_off_c, 0, 51, 64
1, 1567078, Note_off_c, 0, 32, 66
1, 1567086, Note_off_c, 0, 56, 61
1, 1567088, Note_off_c, 0, 60, 64
1, 1567088, Poly_aftertouch_c, 0, 60, 0
1, 1567394, Note_on_c, 0, 61, 89
1, 1567397, Note_on_c, 0, 53, 89
1, 1567397, Note_on_c, 0, 56, 88
1, 1567407, Note_on_c, 0, 37, 99
1, 1567411, Note_on_c, 0, 25, 92
1, 1567427, Control_c, 0, 64, 118
1, 1567435, Note_off_c, 0, 53, 68
1, 1567435, Poly_aftertouch_c, 0, 53, 0
1, 1567443, Note_off_c, 0, 25, 68
1, 1567445, Note_off_c, 0, 37, 63
1, 1567446, Control_c, 0, 64, 127
1, 1567448, Note_off_c, 0, 61, 63
1, 1567455, Note_off_c, 0, 56, 63
1, 1567692, Poly_aftertouch_c, 0, 54, 0
1, 1567692, Control_c, 0, 64, 111
1, 1567708, Control_c, 0, 64, 56
1, 1567727, Control_c, 0, 64, 0
1, 1567804, Note_on_c, 0, 60, 72
1, 1567807, Note_on_c, 0, 27, 79
1, 1567808, Note_on_c, 0, 39, 79
1, 1567811, Note_on_c, 0, 49, 77
1, 1567817, Note_on_c, 0, 55, 66
1, 1567852, Note_off_c, 0, 39, 61
1, 1567853, Note_off_c, 0, 49, 63
1, 1567853, Poly_aftertouch_c, 0, 49, 0
1, 1567854, Note_off_c, 0, 27, 65
1, 1567854, Poly_aftertouch_c, 0, 27, 0
1, 1567855, Note_off_c, 0, 60, 57
1, 1567855, Poly_aftertouch_c, 0, 60, 0
1, 1567909, Note_off_c, 0, 55, 60
1, 1567983, Note_on_c, 0, 55, 59
1, 1567983, Note_on_c, 0, 27, 82
1, 1567983, Note_on_c, 0, 39, 80
1, 1567986, Note_on_c, 0, 58, 71
1, 1567990, Note_on_c, 0, 49, 75
1, 1568021, Note_off_c, 0, 39, 68
1, 1568023, Note_off_c, 0, 27, 64
1, 1568023, Poly_aftertouch_c, 0, 27, 0
1, 1568030, Note_off_c, 0, 49, 64
1, 1568030, Poly_aftertouch_c, 0, 49, 0
1, 1568055, Note_off_c, 0, 55, 61
1, 1568072, Note_off_c, 0, 58, 62
1, 1568072, Poly_aftertouch_c, 0, 58, 0
1, 1568175, Note_on_c, 0, 48, 90
1, 1568178, Note_on_c, 0, 56, 84
1, 1568184, Note_on_c, 0, 44, 97
1, 1568193, Note_on_c, 0, 32, 86
1, 1568209, Note_off_c, 0, 48, 67
1, 1568213, Note_off_c, 0, 44, 67
1, 1568220, Note_off_c, 0, 32, 66
1, 1568221, Note_off_c, 0, 56, 64
1, 1568461, Note_on_c, 0, 51, 73
1, 1568465, Note_on_c, 0, 58, 73
1, 1568467, Note_on_c, 0, 32, 77
1, 1568492, Note_off_c, 0, 51, 66
1, 1568504, Note_off_c, 0, 58, 62
1, 1568504, Poly_aftertouch_c, 0, 58, 0
1, 1568509, Note_off_c, 0, 32, 66
1, 1568536, Note_on_c, 0, 60, 85
1, 1568539, Note_on_c, 0, 44, 91
1, 1568543, Note_on_c, 0, 56, 82
1, 1568574, Note_off_c, 0, 60, 65
1, 1568574, Poly_aftertouch_c, 0, 60, 0
1, 1568576, Note_off_c, 0, 44, 66
1, 1568579, Note_off_c, 0, 56, 69
1, 1568625, Control_c, 0, 64, 31
1, 1568681, Control_c, 0, 64, 26
1, 1568699, Control_c, 0, 64, 20
1, 1568717, Control_c, 0, 64, 0
1, 1569060, Note_on_c, 0, 56, 72
1, 1569239, Note_off_c, 0, 56, 61
1, 1569249, Note_on_c, 0, 66, 74
1, 1569253, Note_on_c, 0, 63, 70
1, 1569259, Note_on_c, 0, 56, 66
1, 1569276, Note_on_c, 0, 44, 68
1, 1569277, Note_off_c, 0, 66, 72
1, 1569277, Poly_aftertouch_c, 0, 66, 0
1, 1569283, Note_off_c, 0, 63, 66
1, 1569620, Note_on_c, 0, 68, 78
1, 1569624, Note_on_c, 0, 65, 75
1, 1569672, Control_c, 0, 64, 30
1, 1569690, Control_c, 0, 64, 57
1, 1569709, Control_c, 0, 64, 73
1, 1569724, Note_off_c, 0, 56, 59
1, 1569727, Control_c, 0, 64, 92
1, 1569739, Note_off_c, 0, 44, 57
1, 1569745, Control_c, 0, 64, 127
1, 1569806, Note_off_c, 0, 65, 60
1, 1569806, Poly_aftertouch_c, 0, 65, 0
1, 1569809, Note_off_c, 0, 68, 60
1, 1569820, Note_on_c, 0, 57, 82
1, 1569829, Note_on_c, 0, 45, 78
1, 1569839, Control_c, 0, 64, 119
1, 1569859, Control_c, 0, 64, 75
1, 1569878, Control_c, 0, 64, 0
1, 1569969, Note_on_c, 0, 66, 71
1, 1569971, Note_on_c, 0, 63, 69
1, 1569971, Control_c, 0, 67, 8
1, 1570010, Note_off_c, 0, 66, 64
1, 1570010, Poly_aftertouch_c, 0, 66, 0
1, 1570012, Note_off_c, 0, 63, 65
1, 1570129, Note_on_c, 0, 60, 75
1, 1570131, Note_on_c, 0, 63, 75
1, 1570165, Note_off_c, 0, 60, 66
1, 1570165, Poly_aftertouch_c, 0, 60, 0
1, 1570168, Note_off_c, 0, 63, 62
1, 1570207, Note_off_c, 0, 45, 59
1, 1570219, Note_off_c, 0, 57, 60
1, 1570304, Note_on_c, 0, 62, 86
1, 1570328, Note_on_c, 0, 58, 89
1, 1570333, Note_on_c, 0, 46, 80
1, 1570357, Note_off_c, 0, 62, 64
1, 1570565, Note_on_c, 0, 60, 72
1, 1570571, Note_on_c, 0, 63, 69
1, 1570597, Note_off_c, 0, 60, 68
1, 1570597, Poly_aftertouch_c, 0, 60, 0
1, 1570608, Note_off_c, 0, 63, 68
1, 1570641, Note_on_c, 0, 65, 82
1, 1570643, Note_on_c, 0, 62, 84
1, 1570681, Note_off_c, 0, 62, 66
1, 1570694, Note_off_c, 0, 65, 63
1, 1570694, Poly_aftertouch_c, 0, 65, 0
1, 1570739, Note_off_c, 0, 58, 61
1, 1570739, Poly_aftertouch_c, 0, 58, 0
1, 1570758, Note_off_c, 0, 46, 60
1, 1570841, Note_on_c, 0, 59, 89
1, 1570848, Note_on_c, 0, 47, 80
1, 1571037, Control_c, 0, 64, 40
1, 1571055, Control_c, 0, 64, 55
1, 1571074, Control_c, 0, 64, 67
1, 1571093, Control_c, 0, 64, 79
1, 1571112, Control_c, 0, 64, 93
1, 1571131, Control_c, 0, 64, 110
1, 1571148, Control_c, 0, 64, 127
1, 1571178, Note_off_c, 0, 47, 47
1, 1571195, Note_on_c, 0, 56, 87
1, 1571200, Note_off_c, 0, 59, 52
1, 1571242, Control_c, 0, 67, 0
1, 1571297, Note_off_c, 0, 56, 60
1, 1571336, Control_c, 0, 64, 94
1, 1571355, Control_c, 0, 64, 17
1, 1571372, Control_c, 0, 64, 0
1, 1571375, Note_on_c, 0, 65, 86
1, 1571375, Note_on_c, 0, 68, 89
1, 1571386, Note_on_c, 0, 60, 91
1, 1571388, Note_on_c, 0, 48, 81
1, 1571417, Note_off_c, 0, 65, 66
1, 1571417, Poly_aftertouch_c, 0, 65, 0
1, 1571432, Note_off_c, 0, 68, 66
1, 1571715, Note_on_c, 0, 67, 95
1, 1571722, Note_on_c, 0, 70, 92
1, 1571763, Note_off_c, 0, 48, 62
1, 1571775, Note_off_c, 0, 60, 62
1, 1571775, Poly_aftertouch_c, 0, 60, 0
1, 1571802, Control_c, 0, 64, 73
1, 1571822, Control_c, 0, 64, 108
1, 1571841, Control_c, 0, 64, 127
1, 1571904, Note_off_c, 0, 70, 56
1, 1571904, Poly_aftertouch_c, 0, 70, 0
1, 1571911, Note_on_c, 0, 61, 98
1, 1571917, Note_off_c, 0, 67, 61
1, 1571917, Poly_aftertouch_c, 0, 67, 0
1, 1571920, Note_on_c, 0, 49, 86
1, 1571990, Control_c, 0, 64, 85
1, 1572009, Control_c, 0, 64, 27
1, 1572028, Control_c, 0, 64, 0
1, 1572063, Note_on_c, 0, 69, 83
1, 1572072, Note_on_c, 0, 66, 78
1, 1572127, Note_off_c, 0, 69, 61
1, 1572127, Poly_aftertouch_c, 0, 69, 0
1, 1572134, Note_off_c, 0, 66, 62
1, 1572134, Poly_aftertouch_c, 0, 66, 0
1, 1572236, Note_on_c, 0, 67, 80
1, 1572244, Note_on_c, 0, 64, 78
1, 1572300, Note_off_c, 0, 67, 62
1, 1572300, Poly_aftertouch_c, 0, 67, 0
1, 1572306, Note_off_c, 0, 64, 58
1, 1572323, Note_off_c, 0, 61, 55
1, 1572326, Note_off_c, 0, 49, 56
1, 1572326, Poly_aftertouch_c, 0, 49, 0
1, 1572410, Note_on_c, 0, 66, 90
1, 1572413, Note_on_c, 0, 62, 92
1, 1572428, Note_on_c, 0, 50, 87
1, 1572464, Note_off_c, 0, 66, 65
1, 1572464, Poly_aftertouch_c, 0, 66, 0
1, 1572665, Note_on_c, 0, 64, 72
1, 1572676, Note_on_c, 0, 67, 61
1, 1572696, Note_off_c, 0, 64, 70
1, 1572726, Note_on_c, 0, 69, 85
1, 1572743, Note_on_c, 0, 66, 85
1, 1572784, Note_off_c, 0, 69, 63
1, 1572784, Poly_aftertouch_c, 0, 69, 0
1, 1572807, Note_off_c, 0, 66, 66
1, 1572807, Poly_aftertouch_c, 0, 66, 0
1, 1572810, Note_off_c, 0, 50, 55
1, 1572819, Note_off_c, 0, 62, 57
1, 1572833, Note_off_c, 0, 67, 24
1, 1572833, Poly_aftertouch_c, 0, 67, 0
1, 1572945, Note_on_c, 0, 63, 102
1, 1572957, Note_on_c, 0, 51, 86
1, 1572999, Control_c, 0, 64, 50
1, 1573019, Control_c, 0, 64, 98
1, 1573038, Control_c, 0, 64, 127
1, 1573262, Note_on_c, 0, 60, 81
1, 1573265, Note_off_c, 0, 63, 50
1, 1573278, Note_off_c, 0, 51, 59
1, 1573364, Note_off_c, 0, 60, 59
1, 1573364, Poly_aftertouch_c, 0, 60, 0
1, 1573450, Note_on_c, 0, 69, 88
1, 1573450, Note_on_c, 0, 72, 90
1, 1573450, Control_c, 0, 64, 78
1, 1573460, Note_on_c, 0, 64, 94
1, 1573464, Note_on_c, 0, 52, 88
1, 1573468, Control_c, 0, 64, 0
1, 1573488, Note_off_c, 0, 69, 61
1, 1573488, Poly_aftertouch_c, 0, 69, 0
1, 1573500, Note_off_c, 0, 72, 66
1, 1573703, Note_on_c, 0, 74, 81
1, 1573705, Note_on_c, 0, 71, 80
1, 1573728, Note_off_c, 0, 74, 72
1, 1573731, Note_off_c, 0, 71, 71
1, 1573731, Poly_aftertouch_c, 0, 71, 0
1, 1573772, Note_on_c, 0, 76, 96
1, 1573782, Note_on_c, 0, 72, 89
1, 1573794, Note_off_c, 0, 64, 56
1, 1573823, Note_off_c, 0, 52, 60
1, 1573824, Note_on_c, 0, 74, 20
1, 1573831, Note_off_c, 0, 76, 65
1, 1573836, Note_off_c, 0, 72, 63
1, 1573890, Note_off_c, 0, 74, 29
1, 1573905, Poly_aftertouch_c, 0, 71, 0
1, 1573976, Note_on_c, 0, 63, 99
1, 1573983, Note_on_c, 0, 57, 76
1, 1573987, Note_on_c, 0, 51, 85
1, 1574028, Control_c, 0, 64, 94
1, 1574047, Control_c, 0, 64, 127
1, 1574211, Note_on_c, 0, 76, 82
1, 1574290, Note_on_c, 0, 77, 98
1, 1574293, Note_on_c, 0, 72, 97
1, 1574297, Note_off_c, 0, 57, 59
1, 1574297, Note_on_c, 0, 69, 97
1, 1574346, Note_off_c, 0, 63, 54
1, 1574358, Note_off_c, 0, 51, 50
1, 1574371, Note_off_c, 0, 76, 44
1, 1574372, Poly_aftertouch_c, 0, 76, 0
1, 1574516, Note_off_c, 0, 72, 55
1, 1574520, Note_on_c, 0, 62, 98
1, 1574525, Note_off_c, 0, 69, 55
1, 1574525, Note_on_c, 0, 50, 82
1, 1574525, Poly_aftertouch_c, 0, 69, 0
1, 1574529, Note_on_c, 0, 58, 82
1, 1574532, Control_c, 0, 64, 122
1, 1574535, Note_on_c, 0, 53, 71
1, 1574553, Control_c, 0, 64, 67
1, 1574560, Note_off_c, 0, 77, 51
1, 1574560, Poly_aftertouch_c, 0, 77, 0
1, 1574570, Control_c, 0, 64, 0
1, 1574627, Control_c, 0, 64, 54
1, 1574645, Control_c, 0, 64, 81
1, 1574665, Control_c, 0, 64, 112
1, 1574681, Control_c, 0, 64, 127
1, 1574744, Note_on_c, 0, 77, 80
1, 1574815, Control_c, 0, 64, 110
1, 1574826, Note_on_c, 0, 79, 95
1, 1574830, Note_on_c, 0, 67, 101
1, 1574830, Note_on_c, 0, 70, 98
1, 1574834, Control_c, 0, 64, 58
1, 1574850, Control_c, 0, 64, 0
1, 1574856, Note_off_c, 0, 58, 62
1, 1574856, Poly_aftertouch_c, 0, 58, 0
1, 1574870, Control_c, 0, 64, 44
1, 1574884, Note_off_c, 0, 62, 59
1, 1574884, Note_off_c, 0, 50, 61
1, 1574887, Control_c, 0, 64, 85
1, 1574907, Control_c, 0, 64, 127
1, 1574922, Note_off_c, 0, 53, 57
1, 1574922, Poly_aftertouch_c, 0, 53, 0
1, 1575034, Note_off_c, 0, 67, 59
1, 1575034, Poly_aftertouch_c, 0, 67, 0
1, 1575042, Note_off_c, 0, 77, 32
1, 1575042, Poly_aftertouch_c, 0, 77, 0
1, 1575049, Note_off_c, 0, 70, 62
1, 1575049, Poly_aftertouch_c, 0, 70, 0
1, 1575055, Control_c, 0, 64, 109
1, 1575060, Note_on_c, 0, 61, 106
1, 1575063, Note_on_c, 0, 59, 84
1, 1575067, Note_on_c, 0, 49, 88
1, 1575068, Note_on_c, 0, 53, 78
1, 1575075, Control_c, 0, 64, 52
1, 1575082, Note_off_c, 0, 79, 62
1, 1575094, Control_c, 0, 64, 0
1, 1575113, Control_c, 0, 64, 38
1, 1575132, Control_c, 0, 64, 84
1, 1575149, Control_c, 0, 64, 127
1, 1575275, Note_on_c, 0, 79, 73
1, 1575291, Note_on_c, 0, 77, 62
1, 1575298, Control_c, 0, 64, 72
1, 1575304, Note_off_c, 0, 79, 69
1, 1575319, Control_c, 0, 64, 30
1, 1575328, Note_off_c, 0, 77, 62
1, 1575328, Poly_aftertouch_c, 0, 77, 0
1, 1575336, Control_c, 0, 64, 57
1, 1575355, Control_c, 0, 64, 106
1, 1575356, Note_on_c, 0, 68, 104
1, 1575361, Note_on_c, 0, 80, 97
1, 1575362, Note_on_c, 0, 71, 82
1, 1575366, Note_on_c, 0, 77, 85
1, 1575368, Note_off_c, 0, 59, 61
1, 1575374, Control_c, 0, 64, 127
1, 1575399, Note_off_c, 0, 53, 56
1, 1575399, Poly_aftertouch_c, 0, 53, 0
1, 1575410, Note_off_c, 0, 68, 63
1, 1575419, Note_off_c, 0, 71, 60
1, 1575425, Note_off_c, 0, 61, 52
1, 1575432, Note_off_c, 0, 77, 62
1, 1575432, Poly_aftertouch_c, 0, 77, 0
1, 1575436, Note_off_c, 0, 49, 57
1, 1575436, Poly_aftertouch_c, 0, 49, 0
1, 1575469, Note_off_c, 0, 80, 64
1, 1575593, Note_on_c, 0, 48, 73
1, 1575606, Note_on_c, 0, 53, 71
1, 1575614, Note_on_c, 0, 56, 72
1, 1575637, Control_c, 0, 64, 89
1, 1575655, Control_c, 0, 64, 0
1, 1575692, Note_on_c, 0, 60, 96
1, 1575701, Note_on_c, 0, 84, 101
1, 1575701, Note_on_c, 0, 72, 103
1, 1575702, Note_on_c, 0, 80, 94
1, 1575704, Note_on_c, 0, 77, 95
1, 1575730, Note_off_c, 0, 60, 64
1, 1575730, Poly_aftertouch_c, 0, 60, 0
1, 1575730, Control_c, 0, 64, 41
1, 1575744, Note_off_c, 0, 72, 70
1, 1575746, Note_off_c, 0, 48, 65
1, 1575748, Note_off_c, 0, 56, 65
1, 1575748, Control_c, 0, 64, 108
1, 1575751, Note_off_c, 0, 53, 61
1, 1575751, Poly_aftertouch_c, 0, 53, 0
1, 1575766, Note_off_c, 0, 77, 64
1, 1575766, Poly_aftertouch_c, 0, 77, 0
1, 1575766, Control_c, 0, 64, 127
1, 1575779, Note_off_c, 0, 80, 64
1, 1575795, Note_off_c, 0, 84, 69
1, 1576049, Control_c, 0, 64, 95
1, 1576050, Note_on_c, 0, 36, 87
1, 1576054, Note_on_c, 0, 84, 73
1, 1576067, Control_c, 0, 64, 0
1, 1576116, Note_off_c, 0, 84, 62
1, 1576132, Note_on_c, 0, 92, 79
1, 1576216, Note_on_c, 0, 91, 79
1, 1576216, Control_c, 0, 64, 44
1, 1576222, Note_on_c, 0, 48, 104
1, 1576235, Control_c, 0, 64, 127
1, 1576242, Note_off_c, 0, 92, 65
1, 1576278, Note_off_c, 0, 91, 65
1, 1576287, Note_on_c, 0, 82, 79
1, 1576362, Poly_aftertouch_c, 0, 43, 0
1, 1576363, Note_off_c, 0, 82, 64
1, 1576385, Note_on_c, 0, 80, 82
1, 1576465, Note_on_c, 0, 89, 74
1, 1576481, Note_off_c, 0, 80, 63
1, 1576535, Note_off_c, 0, 36, 57
1, 1576551, Note_on_c, 0, 87, 79
1, 1576568, Note_off_c, 0, 89, 63
1, 1576568, Poly_aftertouch_c, 0, 89, 0
1, 1576612, Note_off_c, 0, 48, 58
1, 1576613, Note_off_c, 0, 87, 64
1, 1576615, Note_on_c, 0, 79, 78
1, 1576691, Note_off_c, 0, 79, 64
1, 1576692, Note_on_c, 0, 77, 81
1, 1576752, Note_off_c, 0, 77, 62
1, 1576752, Poly_aftertouch_c, 0, 77, 0
1, 1576757, Note_on_c, 0, 85, 74
1, 1576837, Note_on_c, 0, 84, 72
1, 1576877, Note_off_c, 0, 85, 62
1, 1576910, Note_off_c, 0, 84, 66
1, 1576931, Note_on_c, 0, 75, 79
1, 1576996, Note_off_c, 0, 75, 62
1, 1577000, Control_c, 0, 64, 112
1, 1577020, Note_on_c, 0, 73, 80
1, 1577020, Control_c, 0, 64, 52
1, 1577024, Note_on_c, 0, 52, 69
1, 1577032, Note_on_c, 0, 55, 68
1, 1577037, Control_c, 0, 64, 0
1, 1577057, Control_c, 0, 64, 36
1, 1577077, Control_c, 0, 64, 89
1, 1577094, Control_c, 0, 64, 127
1, 1577108, Note_on_c, 0, 82, 82
1, 1577116, Note_off_c, 0, 73, 62
1, 1577116, Poly_aftertouch_c, 0, 73, 0
1, 1577152, Note_off_c, 0, 52, 60
1, 1577165, Note_off_c, 0, 55, 60
1, 1577178, Note_on_c, 0, 80, 72
1, 1577188, Control_c, 0, 64, 82
1, 1577189, Note_on_c, 0, 56, 84
1, 1577201, Note_off_c, 0, 82, 62
1, 1577204, Note_on_c, 0, 53, 73
1, 1577206, Control_c, 0, 64, 58
1, 1577225, Control_c, 0, 64, 83
1, 1577245, Control_c, 0, 64, 127
1, 1577254, Note_off_c, 0, 80, 63
1, 1577254, Note_on_c, 0, 72, 76
1, 1577300, Note_off_c, 0, 56, 55
1, 1577300, Control_c, 0, 64, 117
1, 1577319, Note_off_c, 0, 53, 61
1, 1577319, Poly_aftertouch_c, 0, 53, 0
1, 1577319, Control_c, 0, 64, 92
1, 1577338, Note_on_c, 0, 70, 82
1, 1577339, Note_on_c, 0, 55, 80
1, 1577339, Control_c, 0, 64, 99
1, 1577340, Note_on_c, 0, 58, 94
1, 1577341, Note_off_c, 0, 72, 63
1, 1577357, Control_c, 0, 64, 127
1, 1577415, Note_off_c, 0, 58, 62
1, 1577415, Poly_aftertouch_c, 0, 58, 0
1, 1577424, Note_on_c, 0, 79, 69
1, 1577433, Note_off_c, 0, 55, 62
1, 1577436, Note_off_c, 0, 70, 65
1, 1577436, Poly_aftertouch_c, 0, 70, 0
1, 1577496, Note_on_c, 0, 60, 92
1, 1577498, Note_on_c, 0, 56, 92
1, 1577505, Note_on_c, 0, 77, 78
1, 1577512, Note_off_c, 0, 79, 63
1, 1577561, Note_on_c, 0, 68, 73
1, 1577571, Note_off_c, 0, 60, 63
1, 1577571, Poly_aftertouch_c, 0, 60, 0
1, 1577583, Note_off_c, 0, 77, 62
1, 1577583, Poly_aftertouch_c, 0, 77, 0
1, 1577600, Note_off_c, 0, 56, 63
1, 1577608, Note_off_c, 0, 68, 61
1, 1577637, Control_c, 0, 64, 89
1, 1577656, Control_c, 0, 64, 70
1, 1577669, Note_on_c, 0, 61, 96
1, 1577672, Note_on_c, 0, 58, 97
1, 1577676, Note_on_c, 0, 67, 93
1, 1577676, Note_on_c, 0, 76, 98
1, 1577676, Control_c, 0, 64, 113
1, 1577693, Control_c, 0, 64, 127
1, 1577708, Note_off_c, 0, 61, 66
1, 1577717, Note_off_c, 0, 58, 66
1, 1577717, Poly_aftertouch_c, 0, 58, 0
1, 1577725, Note_off_c, 0, 67, 63
1, 1577725, Poly_aftertouch_c, 0, 67, 0
1, 1577737, Note_off_c, 0, 76, 64
1, 1577843, Control_c, 0, 64, 100
1, 1577862, Control_c, 0, 64, 63
1, 1577881, Control_c, 0, 64, 0
1, 1578023, Note_on_c, 0, 29, 88
1, 1578036, Note_on_c, 0, 66, 62
1, 1578104, Note_off_c, 0, 66, 55
1, 1578104, Poly_aftertouch_c, 0, 66, 0
1, 1578109, Note_on_c, 0, 75, 60
1, 1578199, Note_off_c, 0, 75, 63
1, 1578208, Note_on_c, 0, 73, 63
1, 1578210, Note_on_c, 0, 41, 95
1, 1578252, Note_off_c, 0, 73, 62
1, 1578252, Poly_aftertouch_c, 0, 73, 0
1, 1578291, Control_c, 0, 64, 41
1, 1578293, Note_on_c, 0, 65, 67
1, 1578310, Control_c, 0, 64, 58
1, 1578329, Control_c, 0, 64, 67
1, 1578348, Control_c, 0, 64, 72
1, 1578366, Control_c, 0, 64, 79
1, 1578381, Note_on_c, 0, 63, 75
1, 1578382, Note_off_c, 0, 65, 64
1, 1578382, Poly_aftertouch_c, 0, 65, 0
1, 1578385, Control_c, 0, 64, 87
1, 1578403, Control_c, 0, 64, 100
1, 1578423, Control_c, 0, 64, 113
1, 1578458, Control_c, 0, 64, 102
1, 1578461, Note_on_c, 0, 72, 66
1, 1578477, Note_off_c, 0, 63, 60
1, 1578478, Control_c, 0, 64, 85
1, 1578497, Control_c, 0, 64, 74
1, 1578516, Control_c, 0, 64, 76
1, 1578534, Control_c, 0, 64, 84
1, 1578541, Note_on_c, 0, 70, 73
1, 1578553, Control_c, 0, 64, 99
1, 1578554, Note_off_c, 0, 72, 61
1, 1578571, Control_c, 0, 64, 123
1, 1578591, Control_c, 0, 64, 127
1, 1578602, Note_off_c, 0, 70, 62
1, 1578602, Poly_aftertouch_c, 0, 70, 0
1, 1578619, Note_on_c, 0, 61, 76
1, 1578707, Note_off_c, 0, 61, 63
1, 1578723, Note_on_c, 0, 60, 65
1, 1578726, Note_on_c, 0, 59, 65
1, 1578791, Note_off_c, 0, 41, 58
1, 1578797, Note_off_c, 0, 59, 57
1, 1578803, Note_on_c, 0, 68, 73
1, 1578814, Note_off_c, 0, 60, 63
1, 1578814, Poly_aftertouch_c, 0, 60, 0
1, 1578826, Note_off_c, 0, 29, 56
1, 1578890, Note_on_c, 0, 66, 76
1, 1578908, Note_off_c, 0, 68, 62
1, 1578953, Note_off_c, 0, 66, 64
1, 1578953, Poly_aftertouch_c, 0, 66, 0
1, 1578958, Note_on_c, 0, 58, 78
1, 1578999, Note_on_c, 0, 41, 77
1, 1579002, Note_on_c, 0, 29, 71
1, 1579057, Control_c, 0, 64, 121
1, 1579065, Note_on_c, 0, 56, 80
1, 1579075, Note_off_c, 0, 58, 61
1, 1579075, Poly_aftertouch_c, 0, 58, 0
1, 1579076, Control_c, 0, 64, 105
1, 1579086, Note_off_c, 0, 41, 59
1, 1579097, Control_c, 0, 64, 119
1, 1579103, Note_off_c, 0, 29, 59
1, 1579114, Control_c, 0, 64, 127
1, 1579152, Note_on_c, 0, 65, 79
1, 1579177, Note_off_c, 0, 56, 62
1, 1579198, Note_on_c, 0, 29, 87
1, 1579199, Note_on_c, 0, 41, 93
1, 1579207, Control_c, 0, 64, 112
1, 1579227, Note_on_c, 0, 63, 78
1, 1579227, Control_c, 0, 64, 117
1, 1579244, Control_c, 0, 64, 127
1, 1579254, Note_off_c, 0, 65, 60
1, 1579254, Poly_aftertouch_c, 0, 65, 0
1, 1579282, Note_off_c, 0, 41, 62
1, 1579293, Note_off_c, 0, 29, 60
1, 1579303, Note_off_c, 0, 63, 64
1, 1579310, Note_on_c, 0, 54, 70
1, 1579346, Poly_aftertouch_c, 0, 36, 0
1, 1579357, Control_c, 0, 64, 78
1, 1579376, Note_on_c, 0, 43, 97
1, 1579376, Control_c, 0, 64, 45
1, 1579385, Note_on_c, 0, 31, 92
1, 1579394, Control_c, 0, 64, 69
1, 1579397, Note_on_c, 0, 53, 80
1, 1579415, Control_c, 0, 64, 124
1, 1579424, Note_off_c, 0, 54, 55
1, 1579437, Note_on_c, 0, 32, 28
1, 1579442, Note_off_c, 0, 43, 63
1, 1579449, Note_off_c, 0, 31, 61
1, 1579490, Note_off_c, 0, 53, 61
1, 1579490, Poly_aftertouch_c, 0, 53, 0
1, 1579494, Note_on_c, 0, 61, 75
1, 1579496, Note_off_c, 0, 32, 41
1, 1579540, Note_on_c, 0, 45, 98
1, 1579546, Note_on_c, 0, 33, 90
1, 1579574, Note_on_c, 0, 60, 55
1, 1579580, Control_c, 0, 64, 95
1, 1579588, Note_off_c, 0, 45, 65
1, 1579600, Control_c, 0, 64, 50
1, 1579602, Note_off_c, 0, 33, 60
1, 1579607, Note_off_c, 0, 61, 65
1, 1579628, Note_on_c, 0, 59, 25
1, 1579637, Note_on_c, 0, 51, 70
1, 1579637, Control_c, 0, 64, 84
1, 1579656, Control_c, 0, 64, 127
1, 1579661, Note_off_c, 0, 60, 64
1, 1579661, Poly_aftertouch_c, 0, 60, 0
1, 1579689, Note_off_c, 0, 59, 32
1, 1579717, Note_on_c, 0, 53, 81
1, 1579721, Note_on_c, 0, 46, 105
1, 1579723, Note_on_c, 0, 61, 88
1, 1579729, Note_on_c, 0, 34, 96
1, 1579748, Note_off_c, 0, 51, 65
1, 1579759, Note_off_c, 0, 53, 64
1, 1579759, Poly_aftertouch_c, 0, 53, 0
1, 1579763, Note_off_c, 0, 34, 66
1, 1579764, Note_off_c, 0, 46, 65
1, 1579792, Note_off_c, 0, 61, 67
1, 1579826, Control_c, 0, 64, 97
1, 1579844, Control_c, 0, 64, 34
1, 1579846, Poly_aftertouch_c, 0, 60, 0
1, 1579851, Poly_aftertouch_c, 0, 37, 127
1, 1579852, Poly_aftertouch_c, 0, 37, 0
1, 1579862, Control_c, 0, 64, 0
1, 1580074, Note_on_c, 0, 30, 89
1, 1580075, Note_on_c, 0, 73, 69
1, 1580151, Note_on_c, 0, 82, 78
1, 1580154, Note_off_c, 0, 73, 62
1, 1580154, Poly_aftertouch_c, 0, 73, 0
1, 1580234, Note_on_c, 0, 80, 77
1, 1580247, Note_on_c, 0, 42, 102
1, 1580255, Note_off_c, 0, 82, 64
1, 1580306, Note_off_c, 0, 80, 64
1, 1580311, Note_on_c, 0, 72, 74
1, 1580329, Control_c, 0, 64, 38
1, 1580348, Control_c, 0, 64, 66
1, 1580368, Control_c, 0, 64, 70
1, 1580385, Control_c, 0, 64, 75
1, 1580398, Note_on_c, 0, 70, 82
1, 1580401, Note_off_c, 0, 72, 61
1, 1580403, Control_c, 0, 64, 81
1, 1580442, Control_c, 0, 64, 75
1, 1580460, Control_c, 0, 64, 57
1, 1580472, Note_off_c, 0, 70, 66
1, 1580472, Poly_aftertouch_c, 0, 70, 0
1, 1580474, Note_on_c, 0, 78, 65
1, 1580478, Control_c, 0, 64, 28
1, 1580498, Control_c, 0, 64, 0
1, 1580517, Control_c, 0, 64, 23
1, 1580535, Control_c, 0, 64, 49
1, 1580554, Control_c, 0, 64, 66
1, 1580558, Note_on_c, 0, 77, 72
1, 1580573, Control_c, 0, 64, 79
1, 1580592, Control_c, 0, 64, 98
1, 1580603, Note_off_c, 0, 78, 64
1, 1580610, Control_c, 0, 64, 126
1, 1580632, Note_off_c, 0, 77, 62
1, 1580632, Poly_aftertouch_c, 0, 77, 0
1, 1580639, Note_on_c, 0, 68, 80
1, 1580647, Control_c, 0, 64, 116
1, 1580665, Control_c, 0, 64, 84
1, 1580685, Control_c, 0, 64, 64
1, 1580704, Control_c, 0, 64, 76
1, 1580710, Note_off_c, 0, 68, 63
1, 1580722, Control_c, 0, 64, 102
1, 1580733, Note_on_c, 0, 66, 78
1, 1580739, Control_c, 0, 64, 127
1, 1580808, Note_on_c, 0, 75, 79
1, 1580823, Note_off_c, 0, 66, 64
1, 1580823, Poly_aftertouch_c, 0, 66, 0
1, 1580863, Note_off_c, 0, 42, 56
1, 1580865, Note_off_c, 0, 30, 60
1, 1580891, Control_c, 0, 64, 116
1, 1580897, Note_on_c, 0, 73, 75
1, 1580910, Control_c, 0, 64, 71
1, 1580915, Note_off_c, 0, 75, 62
1, 1580928, Control_c, 0, 64, 51
1, 1580947, Control_c, 0, 64, 66
1, 1580961, Note_off_c, 0, 73, 60
1, 1580961, Poly_aftertouch_c, 0, 73, 0
1, 1580965, Control_c, 0, 64, 93
1, 1580975, Note_on_c, 0, 65, 74
1, 1580984, Control_c, 0, 64, 127
1, 1581049, Note_on_c, 0, 30, 68
1, 1581057, Note_on_c, 0, 42, 64
1, 1581066, Note_on_c, 0, 63, 80
1, 1581072, Note_off_c, 0, 65, 63
1, 1581072, Poly_aftertouch_c, 0, 65, 0
1, 1581098, Control_c, 0, 64, 101
1, 1581115, Control_c, 0, 64, 72
1, 1581116, Note_off_c, 0, 42, 62
1, 1581130, Note_off_c, 0, 30, 62
1, 1581133, Control_c, 0, 64, 85
1, 1581152, Control_c, 0, 64, 127
1, 1581159, Note_on_c, 0, 72, 73
1, 1581165, Note_off_c, 0, 63, 59
1, 1581227, Control_c, 0, 64, 117
1, 1581239, Note_on_c, 0, 70, 77
1, 1581246, Control_c, 0, 64, 81
1, 1581254, Note_off_c, 0, 72, 61
1, 1581258, Note_on_c, 0, 30, 80
1, 1581260, Note_on_c, 0, 42, 75
1, 1581264, Control_c, 0, 64, 90
1, 1581283, Control_c, 0, 64, 127
1, 1581302, Note_off_c, 0, 70, 64
1, 1581302, Poly_aftertouch_c, 0, 70, 0
1, 1581311, Note_on_c, 0, 61, 82
1, 1581317, Note_off_c, 0, 42, 65
1, 1581325, Note_off_c, 0, 30, 61
1, 1581377, Control_c, 0, 64, 105
1, 1581395, Control_c, 0, 64, 64
1, 1581406, Note_on_c, 0, 60, 80
1, 1581414, Control_c, 0, 64, 63
1, 1581416, Note_on_c, 0, 32, 87
1, 1581418, Note_on_c, 0, 44, 89
1, 1581434, Control_c, 0, 64, 91
1, 1581451, Control_c, 0, 64, 127
1, 1581480, Note_off_c, 0, 44, 60
1, 1581483, Note_off_c, 0, 32, 61
1, 1581499, Note_on_c, 0, 68, 74
1, 1581512, Note_off_c, 0, 60, 62
1, 1581514, Note_off_c, 0, 61, 30
1, 1581558, Note_on_c, 0, 66, 79
1, 1581577, Note_on_c, 0, 46, 92
1, 1581580, Note_on_c, 0, 34, 88
1, 1581606, Note_off_c, 0, 68, 64
1, 1581643, Note_off_c, 0, 46, 59
1, 1581647, Note_on_c, 0, 58, 78
1, 1581653, Note_off_c, 0, 34, 59
1, 1581658, Control_c, 0, 64, 122
1, 1581663, Note_off_c, 0, 66, 59
1, 1581663, Poly_aftertouch_c, 0, 66, 0
1, 1581676, Control_c, 0, 64, 107
1, 1581695, Control_c, 0, 64, 94
1, 1581696, Control_c, 0, 67, 8
1, 1581714, Control_c, 0, 64, 80
1, 1581717, Note_off_c, 0, 58, 64
1, 1581717, Poly_aftertouch_c, 0, 58, 0
1, 1581732, Control_c, 0, 64, 67
1, 1581751, Control_c, 0, 64, 53
1, 1581752, Control_c, 0, 67, 13
1, 1581770, Control_c, 0, 64, 31
1, 1581788, Note_on_c, 0, 65, 77
1, 1581788, Note_on_c, 0, 47, 88
1, 1581788, Control_c, 0, 64, 0
1, 1581789, Control_c, 0, 67, 18
1, 1581795, Note_on_c, 0, 35, 84
1, 1581825, Control_c, 0, 67, 22
1, 1581880, Control_c, 0, 67, 28
1, 1581883, Note_on_c, 0, 56, 74
1, 1581900, Control_c, 0, 67, 34
1, 1581906, Note_off_c, 0, 65, 61
1, 1581906, Poly_aftertouch_c, 0, 65, 0
1, 1581920, Control_c, 0, 67, 40
1, 1581955, Note_off_c, 0, 56, 64
1, 1581963, Note_on_c, 0, 55, 74
1, 1582033, Control_c, 0, 64, 23
1, 1582035, Control_c, 0, 67, 45
1, 1582050, Control_c, 0, 64, 42
1, 1582056, Note_on_c, 0, 64, 73
1, 1582057, Note_off_c, 0, 55, 55
1, 1582069, Control_c, 0, 64, 57
1, 1582070, Control_c, 0, 67, 53
1, 1582087, Control_c, 0, 64, 68
1, 1582088, Control_c, 0, 67, 60
1, 1582107, Control_c, 0, 64, 74
1, 1582109, Control_c, 0, 67, 66
1, 1582125, Control_c, 0, 64, 76
1, 1582126, Control_c, 0, 67, 70
1, 1582148, Note_off_c, 0, 64, 63
1, 1582150, Note_on_c, 0, 65, 73
1, 1582162, Control_c, 0, 64, 78
1, 1582163, Control_c, 0, 67, 75
1, 1582195, Note_off_c, 0, 35, 56
1, 1582198, Control_c, 0, 67, 80
1, 1582201, Note_off_c, 0, 47, 57
1, 1582227, Note_on_c, 0, 56, 70
1, 1582242, Note_off_c, 0, 65, 61
1, 1582242, Poly_aftertouch_c, 0, 65, 0
1, 1582313, Control_c, 0, 64, 76
1, 1582320, Note_off_c, 0, 56, 62
1, 1582323, Note_on_c, 0, 55, 79
1, 1582330, Control_c, 0, 64, 69
1, 1582344, Note_on_c, 0, 48, 86
1, 1582348, Note_on_c, 0, 36, 79
1, 1582349, Control_c, 0, 64, 53
1, 1582369, Control_c, 0, 64, 0
1, 1582370, Control_c, 0, 67, 84
1, 1582426, Note_on_c, 0, 64, 73
1, 1582427, Note_off_c, 0, 55, 53
1, 1582461, Control_c, 0, 64, 16
1, 1582479, Control_c, 0, 64, 32
1, 1582499, Control_c, 0, 64, 47
1, 1582516, Control_c, 0, 64, 59
1, 1582520, Note_off_c, 0, 64, 63
1, 1582520, Note_on_c, 0, 65, 72
1, 1582535, Control_c, 0, 64, 67
1, 1582556, Control_c, 0, 64, 69
1, 1582592, Note_on_c, 0, 56, 73
1, 1582602, Note_off_c, 0, 65, 63
1, 1582602, Poly_aftertouch_c, 0, 65, 0
1, 1582649, Control_c, 0, 64, 68
1, 1582681, Note_off_c, 0, 48, 47
1, 1582689, Note_off_c, 0, 56, 61
1, 1582692, Note_on_c, 0, 55, 74
1, 1582705, Control_c, 0, 64, 67
1, 1582742, Control_c, 0, 64, 66
1, 1582781, Note_off_c, 0, 55, 58
1, 1582785, Note_on_c, 0, 64, 66
1, 1582799, Control_c, 0, 64, 65
1, 1582835, Control_c, 0, 64, 63
1, 1582856, Control_c, 0, 64, 62
1, 1582872, Control_c, 0, 64, 59
1, 1582875, Note_off_c, 0, 36, 59
1, 1582881, Note_off_c, 0, 64, 61
1, 1582886, Note_on_c, 0, 65, 73
1, 1582891, Control_c, 0, 64, 55
1, 1582893, Note_on_c, 0, 47, 75
1, 1582895, Note_on_c, 0, 35, 73
1, 1582911, Control_c, 0, 64, 44
1, 1582929, Control_c, 0, 64, 28
1, 1582966, Control_c, 0, 64, 0
1, 1583026, Note_on_c, 0, 56, 69
1, 1583039, Note_off_c, 0, 65, 59
1, 1583039, Poly_aftertouch_c, 0, 65, 0
1, 1583041, Control_c, 0, 64, 10
1, 1583078, Control_c, 0, 64, 15
1, 1583133, Note_off_c, 0, 56, 58
1, 1583158, Note_on_c, 0, 55, 66
1, 1583209, Control_c, 0, 64, 19
1, 1583280, Note_off_c, 0, 55, 54
1, 1583280, Note_on_c, 0, 64, 66
1, 1583289, Note_off_c, 0, 35, 58
1, 1583294, Note_off_c, 0, 47, 57
1, 1583340, Control_c, 0, 64, 23
1, 1583403, Note_off_c, 0, 64, 58
1, 1583413, Control_c, 0, 64, 8
1, 1583421, Note_on_c, 0, 65, 66
1, 1583433, Control_c, 0, 64, 0
1, 1583437, Note_on_c, 0, 48, 70
1, 1583443, Note_on_c, 0, 36, 69
1, 1583527, Control_c, 0, 67, 80
1, 1583539, Note_off_c, 0, 65, 59
1, 1583539, Note_on_c, 0, 56, 66
1, 1583539, Poly_aftertouch_c, 0, 65, 0
1, 1583602, Control_c, 0, 67, 74
1, 1583621, Control_c, 0, 67, 70
1, 1583639, Control_c, 0, 67, 64
1, 1583644, Note_off_c, 0, 56, 61
1, 1583658, Control_c, 0, 67, 57
1, 1583676, Control_c, 0, 67, 49
1, 1583680, Note_on_c, 0, 55, 60
1, 1583695, Control_c, 0, 67, 39
1, 1583714, Control_c, 0, 67, 30
1, 1583733, Control_c, 0, 67, 20
1, 1583748, Note_off_c, 0, 55, 54
1, 1583749, Control_c, 0, 67, 9
1, 1583769, Control_c, 0, 67, 0
1, 1583784, Note_on_c, 0, 64, 58
1, 1583851, Note_off_c, 0, 64, 57
1, 1583867, Note_off_c, 0, 48, 58
1, 1583912, Note_on_c, 0, 41, 75
1, 1583915, Note_on_c, 0, 65, 57
1, 1583918, Note_off_c, 0, 36, 60
1, 1583923, Note_on_c, 0, 53, 60
1, 1583939, Note_off_c, 0, 41, 67
1, 1583951, Note_off_c, 0, 65, 61
1, 1583951, Poly_aftertouch_c, 0, 65, 0
1, 1583954, Note_off_c, 0, 53, 61
1, 1583954, Poly_aftertouch_c, 0, 53, 0
1, 1584238, Note_on_c, 0, 54, 79
1, 1584248, Note_on_c, 0, 42, 70
1, 1584424, Control_c, 0, 64, 36
1, 1584428, Note_on_c, 0, 53, 71
1, 1584431, Note_on_c, 0, 65, 66
1, 1584444, Control_c, 0, 64, 99
1, 1584462, Control_c, 0, 64, 118
1, 1584464, Note_off_c, 0, 53, 65
1, 1584464, Poly_aftertouch_c, 0, 53, 0
1, 1584467, Note_off_c, 0, 65, 68
1, 1584467, Poly_aftertouch_c, 0, 65, 0
1, 1584471, Note_off_c, 0, 54, 55
1, 1584477, Note_off_c, 0, 42, 60
1, 1584480, Control_c, 0, 64, 107
1, 1584499, Control_c, 0, 64, 80
1, 1584500, Control_c, 0, 67, 9
1, 1584519, Control_c, 0, 64, 56
1, 1584555, Control_c, 0, 64, 0
1, 1584585, Note_on_c, 0, 53, 60
1, 1584599, Note_on_c, 0, 41, 70
1, 1584625, Note_off_c, 0, 53, 64
1, 1584625, Poly_aftertouch_c, 0, 53, 0
1, 1584628, Control_c, 0, 67, 14
1, 1584630, Note_off_c, 0, 41, 65
1, 1584668, Control_c, 0, 67, 22
1, 1584686, Control_c, 0, 67, 27
1, 1584724, Control_c, 0, 67, 33
1, 1584750, Note_on_c, 0, 51, 73
1, 1584757, Note_on_c, 0, 39, 69
1, 1584760, Control_c, 0, 67, 37
1, 1584786, Note_off_c, 0, 51, 64
1, 1584790, Note_off_c, 0, 39, 62
1, 1584798, Control_c, 0, 67, 41
1, 1584873, Control_c, 0, 67, 32
1, 1584892, Control_c, 0, 67, 10
1, 1584911, Control_c, 0, 67, 0
1, 1584934, Note_on_c, 0, 50, 81
1, 1584937, Note_on_c, 0, 38, 80
1, 1584941, Note_on_c, 0, 65, 68
1, 1584942, Note_on_c, 0, 53, 68
1, 1584967, Note_off_c, 0, 50, 68
1, 1584967, Control_c, 0, 67, 15
1, 1584976, Note_off_c, 0, 65, 67
1, 1584976, Poly_aftertouch_c, 0, 65, 0
1, 1584977, Note_off_c, 0, 53, 65
1, 1584977, Note_off_c, 0, 38, 67
1, 1584977, Poly_aftertouch_c, 0, 53, 0
1, 1584986, Control_c, 0, 67, 32
1, 1585004, Control_c, 0, 67, 59
1, 1585025, Control_c, 0, 67, 81
1, 1585042, Control_c, 0, 67, 88
1, 1585079, Control_c, 0, 67, 84
1, 1585116, Control_c, 0, 67, 78
1, 1585136, Control_c, 0, 67, 73
1, 1585153, Control_c, 0, 67, 63
1, 1585172, Control_c, 0, 67, 41
1, 1585210, Control_c, 0, 67, 0
1, 1585226, Note_on_c, 0, 36, 65
1, 1585245, Note_on_c, 0, 48, 28
1, 1585246, Note_off_c, 0, 48, 127
1, 1585246, Control_c, 0, 67, 11
1, 1585266, Control_c, 0, 67, 29
1, 1585286, Control_c, 0, 67, 64
1, 1585302, Control_c, 0, 67, 102
1, 1585303, Note_on_c, 0, 46, 71
1, 1585304, Note_on_c, 0, 34, 72
1, 1585312, Poly_aftertouch_c, 0, 48, 0
1, 1585313, Note_off_c, 0, 36, 59
1, 1585322, Control_c, 0, 67, 123
1, 1585334, Note_off_c, 0, 34, 64
1, 1585341, Note_off_c, 0, 46, 64
1, 1585378, Control_c, 0, 67, 119
1, 1585488, Note_on_c, 0, 65, 65
1, 1585491, Note_on_c, 0, 53, 63
1, 1585523, Note_off_c, 0, 65, 66
1, 1585523, Poly_aftertouch_c, 0, 65, 0
1, 1585529, Note_off_c, 0, 53, 64
1, 1585529, Poly_aftertouch_c, 0, 53, 0
1, 1585976, Control_c, 0, 67, 110
1, 1585996, Control_c, 0, 67, 100
1, 1586014, Control_c, 0, 67, 77
1, 1586025, Note_on_c, 0, 36, 64
1, 1586028, Note_on_c, 0, 48, 58
1, 1586030, Note_on_c, 0, 65, 53
1, 1586033, Note_on_c, 0, 53, 51
1, 1586033, Control_c, 0, 67, 40
1, 1586053, Control_c, 0, 67, 0
1, 1586059, Note_off_c, 0, 36, 63
1, 1586060, Note_off_c, 0, 48, 61
1, 1586063, Note_off_c, 0, 65, 58
1, 1586063, Poly_aftertouch_c, 0, 65, 0
1, 1586068, Note_off_c, 0, 53, 55
1, 1586068, Poly_aftertouch_c, 0, 53, 0
1, 1586422, Note_on_c, 0, 49, 59
1, 1586426, Note_on_c, 0, 37, 56
1, 1586600, Note_on_c, 0, 65, 56
1, 1586600, Note_on_c, 0, 53, 57
1, 1586637, Note_off_c, 0, 49, 53
1, 1586637, Poly_aftertouch_c, 0, 49, 0
1, 1586641, Note_off_c, 0, 37, 56
1, 1586642, Note_off_c, 0, 53, 63
1, 1586642, Poly_aftertouch_c, 0, 53, 0
1, 1586643, Note_off_c, 0, 65, 65
1, 1586643, Poly_aftertouch_c, 0, 65, 0
1, 1586773, Note_on_c, 0, 48, 54
1, 1586775, Note_on_c, 0, 36, 56
1, 1586804, Note_off_c, 0, 48, 58
1, 1586816, Note_off_c, 0, 36, 62
1, 1586893, Control_c, 0, 67, 8
1, 1586920, Note_on_c, 0, 46, 67
1, 1586926, Note_on_c, 0, 34, 65
1, 1586949, Control_c, 0, 67, 12
1, 1586963, Note_off_c, 0, 46, 63
1, 1586965, Note_off_c, 0, 34, 63
1, 1587081, Control_c, 0, 67, 17
1, 1587098, Control_c, 0, 67, 22
1, 1587113, Note_on_c, 0, 65, 66
1, 1587114, Note_on_c, 0, 53, 68
1, 1587117, Control_c, 0, 67, 34
1, 1587126, Note_on_c, 0, 45, 74
1, 1587130, Note_on_c, 0, 33, 75
1, 1587137, Control_c, 0, 67, 52
1, 1587146, Note_off_c, 0, 65, 66
1, 1587146, Poly_aftertouch_c, 0, 65, 0
1, 1587148, Note_off_c, 0, 53, 65
1, 1587148, Poly_aftertouch_c, 0, 53, 0
1, 1587154, Control_c, 0, 67, 71
1, 1587158, Note_off_c, 0, 45, 65
1, 1587169, Note_off_c, 0, 33, 67
1, 1587173, Control_c, 0, 67, 90
1, 1587192, Control_c, 0, 67, 107
1, 1587211, Control_c, 0, 67, 119
1, 1587248, Control_c, 0, 67, 123
1, 1587304, Control_c, 0, 67, 127
1, 1587419, Note_on_c, 0, 43, 52
1, 1587426, Note_on_c, 0, 31, 52
1, 1587456, Note_off_c, 0, 43, 52
1, 1587477, Note_off_c, 0, 31, 42
1, 1587492, Note_on_c, 0, 29, 77
1, 1587531, Note_off_c, 0, 29, 65
1, 1587570, Poly_aftertouch_c, 0, 41, 0
1, 1587697, Note_on_c, 0, 53, 63
1, 1587700, Note_on_c, 0, 65, 59
1, 1587730, Note_off_c, 0, 65, 62
1, 1587730, Poly_aftertouch_c, 0, 65, 0
1, 1587734, Note_off_c, 0, 53, 64
1, 1587734, Poly_aftertouch_c, 0, 53, 0
1, 1588229, Note_on_c, 0, 65, 60
1, 1588233, Note_on_c, 0, 45, 58
1, 1588234, Note_on_c, 0, 33, 62
1, 1588238, Note_on_c, 0, 53, 52
1, 1588268, Note_off_c, 0, 65, 66
1, 1588268, Note_off_c, 0, 53, 58
1, 1588268, Poly_aftertouch_c, 0, 53, 0
1, 1588268, Poly_aftertouch_c, 0, 65, 0
1, 1588272, Note_off_c, 0, 33, 62
1, 1588273, Note_off_c, 0, 45, 63
1, 1588538, Note_on_c, 0, 43, 57
1, 1588550, Note_on_c, 0, 31, 51
1, 1588574, Note_off_c, 0, 43, 61
1, 1588604, Note_off_c, 0, 31, 47
1, 1588624, Note_on_c, 0, 29, 72
1, 1588667, Note_off_c, 0, 29, 65
1, 1588812, Note_on_c, 0, 53, 58
1, 1588853, Note_off_c, 0, 53, 64
1, 1588853, Poly_aftertouch_c, 0, 53, 0
1, 1589416, Note_on_c, 0, 53, 47
1, 1589416, Note_on_c, 0, 29, 42
1, 1589437, Note_on_c, 0, 41, 20
1, 1589452, Note_off_c, 0, 53, 59
1, 1589452, Poly_aftertouch_c, 0, 53, 0
1, 1589462, Note_off_c, 0, 29, 60
1, 1589501, Note_off_c, 0, 41, 28
1, 1590037, Note_on_c, 0, 53, 36
1, 1590076, Note_off_c, 0, 53, 53
1, 1590076, Poly_aftertouch_c, 0, 53, 0
1, 1590333, Control_c, 0, 64, 13
1, 1590353, Control_c, 0, 64, 39
1, 1590370, Control_c, 0, 64, 55
1, 1590389, Control_c, 0, 64, 66
1, 1590408, Control_c, 0, 64, 72
1, 1590427, Control_c, 0, 64, 76
1, 1590446, Control_c, 0, 64, 80
1, 1590446, Control_c, 0, 67, 123
1, 1590465, Control_c, 0, 64, 87
1, 1590483, Control_c, 0, 64, 94
1, 1590501, Control_c, 0, 64, 102
1, 1590520, Control_c, 0, 64, 110
1, 1590521, Control_c, 0, 67, 118
1, 1590539, Control_c, 0, 64, 118
1, 1590558, Control_c, 0, 64, 126
1, 1590615, Control_c, 0, 67, 113
1, 1590655, Note_on_c, 0, 65, 32
1, 1590708, Control_c, 0, 67, 109
1, 1590737, Note_on_c, 0, 69, 39
1, 1590782, Control_c, 0, 67, 105
1, 1590806, Note_on_c, 0, 72, 44
1, 1590858, Note_on_c, 0, 41, 33
1, 1590858, Control_c, 0, 67, 101
1, 1590898, Note_off_c, 0, 41, 51
1, 1590932, Control_c, 0, 67, 97
1, 1591055, Note_on_c, 0, 77, 69
1, 1591241, Note_on_c, 0, 57, 35
1, 1591287, Note_off_c, 0, 57, 53
1, 1591339, Note_on_c, 0, 60, 43
1, 1591391, Note_off_c, 0, 60, 52
1, 1591425, Note_on_c, 0, 57, 46
1, 1591438, Poly_aftertouch_c, 0, 69, 24
1, 1591463, Note_off_c, 0, 57, 58
1, 1591472, Note_off_c, 0, 69, 43
1, 1591472, Poly_aftertouch_c, 0, 69, 0
1, 1591514, Note_on_c, 0, 60, 58
1, 1591557, Note_off_c, 0, 60, 61
1, 1591591, Note_on_c, 0, 57, 52
1, 1591632, Note_off_c, 0, 57, 63
1, 1591677, Note_on_c, 0, 60, 48
1, 1591696, Note_on_c, 0, 69, 68
1, 1591707, Note_off_c, 0, 60, 58
1, 1591755, Note_on_c, 0, 57, 52
1, 1591792, Control_c, 0, 67, 91
1, 1591810, Control_c, 0, 67, 85
1, 1591819, Note_off_c, 0, 57, 50
1, 1591829, Control_c, 0, 67, 79
1, 1591848, Control_c, 0, 67, 74
1, 1591873, Note_on_c, 0, 60, 34
1, 1591882, Note_off_c, 0, 72, 55
1, 1591907, Note_off_c, 0, 60, 57
1, 1591926, Note_on_c, 0, 57, 35
1, 1591953, Note_off_c, 0, 77, 50
1, 1591953, Poly_aftertouch_c, 0, 77, 0
1, 1591969, Note_off_c, 0, 57, 56
1, 1592011, Note_on_c, 0, 60, 59
1, 1592062, Note_off_c, 0, 60, 55
1, 1592103, Note_on_c, 0, 57, 59
1, 1592142, Note_off_c, 0, 65, 41
1, 1592142, Poly_aftertouch_c, 0, 65, 0
1, 1592166, Note_off_c, 0, 57, 53
1, 1592223, Control_c, 0, 64, 118
1, 1592240, Control_c, 0, 64, 101
1, 1592260, Control_c, 0, 64, 78
1, 1592274, Note_on_c, 0, 76, 63
1, 1592278, Control_c, 0, 64, 58
1, 1592283, Note_on_c, 0, 72, 58
1, 1592298, Control_c, 0, 64, 50
1, 1592302, Note_on_c, 0, 45, 48
1, 1592315, Control_c, 0, 64, 54
1, 1592323, Note_on_c, 0, 64, 36
1, 1592332, Control_c, 0, 64, 62
1, 1592352, Control_c, 0, 64, 68
1, 1592372, Control_c, 0, 64, 74
1, 1592378, Note_off_c, 0, 45, 54
1, 1592390, Control_c, 0, 64, 83
1, 1592409, Control_c, 0, 64, 95
1, 1592428, Control_c, 0, 64, 109
1, 1592446, Control_c, 0, 64, 121
1, 1592450, Note_on_c, 0, 57, 42
1, 1592464, Control_c, 0, 64, 127
1, 1592506, Note_off_c, 0, 57, 59
1, 1592557, Note_on_c, 0, 60, 43
1, 1592593, Note_off_c, 0, 60, 54
1, 1592650, Note_on_c, 0, 57, 42
1, 1592695, Note_off_c, 0, 57, 54
1, 1592712, Note_on_c, 0, 60, 53
1, 1592763, Note_off_c, 0, 60, 61
1, 1592783, Control_c, 0, 67, 79
1, 1592820, Control_c, 0, 67, 88
1, 1592835, Note_on_c, 0, 57, 29
1, 1592837, Control_c, 0, 67, 94
1, 1592876, Control_c, 0, 67, 98
1, 1592883, Note_off_c, 0, 57, 44
1, 1592895, Note_on_c, 0, 60, 46
1, 1592932, Note_off_c, 0, 60, 54
1, 1592984, Note_on_c, 0, 57, 46
1, 1593021, Note_off_c, 0, 57, 62
1, 1593032, Note_off_c, 0, 72, 59
1, 1593034, Note_off_c, 0, 69, 54
1, 1593034, Poly_aftertouch_c, 0, 69, 0
1, 1593049, Note_off_c, 0, 76, 37
1, 1593049, Note_on_c, 0, 60, 54
1, 1593090, Note_off_c, 0, 60, 64
1, 1593142, Note_off_c, 0, 64, 52
1, 1593146, Note_on_c, 0, 57, 42
1, 1593186, Note_off_c, 0, 57, 52
1, 1593223, Note_on_c, 0, 60, 51
1, 1593254, Note_off_c, 0, 60, 59
1, 1593266, Note_on_c, 0, 57, 43
1, 1593288, Control_c, 0, 67, 94
1, 1593298, Note_off_c, 0, 57, 55
1, 1593334, Note_on_c, 0, 62, 53
1, 1593390, Note_on_c, 0, 65, 61
1, 1593455, Control_c, 0, 64, 117
1, 1593457, Note_on_c, 0, 69, 51
1, 1593474, Control_c, 0, 64, 86
1, 1593494, Control_c, 0, 64, 53
1, 1593501, Note_on_c, 0, 38, 44
1, 1593512, Control_c, 0, 64, 0
1, 1593549, Control_c, 0, 64, 26
1, 1593568, Control_c, 0, 64, 50
1, 1593587, Control_c, 0, 64, 69
1, 1593605, Control_c, 0, 64, 86
1, 1593614, Note_off_c, 0, 38, 61
1, 1593624, Control_c, 0, 64, 107
1, 1593642, Control_c, 0, 64, 127
1, 1593644, Note_on_c, 0, 74, 80
1, 1593755, Control_c, 0, 67, 90
1, 1593810, Control_c, 0, 67, 85
1, 1593828, Note_on_c, 0, 53, 35
1, 1593848, Control_c, 0, 67, 78
1, 1593871, Note_off_c, 0, 53, 51
1, 1593871, Poly_aftertouch_c, 0, 53, 0
1, 1593902, Note_on_c, 0, 57, 47
1, 1593910, Note_off_c, 0, 65, 38
1, 1593910, Poly_aftertouch_c, 0, 65, 0
1, 1593951, Note_off_c, 0, 57, 58
1, 1593980, Note_on_c, 0, 53, 56
1, 1594030, Note_off_c, 0, 53, 58
1, 1594030, Poly_aftertouch_c, 0, 53, 0
1, 1594080, Note_on_c, 0, 57, 49
1, 1594109, Note_off_c, 0, 57, 58
1, 1594160, Note_on_c, 0, 53, 40
1, 1594215, Note_off_c, 0, 53, 41
1, 1594215, Poly_aftertouch_c, 0, 53, 0
1, 1594224, Note_on_c, 0, 57, 49
1, 1594248, Note_on_c, 0, 65, 71
1, 1594268, Note_off_c, 0, 57, 58
1, 1594336, Note_on_c, 0, 53, 41
1, 1594338, Note_off_c, 0, 69, 54
1, 1594338, Poly_aftertouch_c, 0, 69, 0
1, 1594382, Note_off_c, 0, 53, 45
1, 1594382, Poly_aftertouch_c, 0, 53, 0
1, 1594389, Note_on_c, 0, 57, 54
1, 1594438, Note_off_c, 0, 57, 61
1, 1594490, Note_off_c, 0, 74, 57
1, 1594503, Note_on_c, 0, 53, 38
1, 1594540, Note_off_c, 0, 53, 48
1, 1594540, Poly_aftertouch_c, 0, 53, 0
1, 1594548, Note_on_c, 0, 57, 63
1, 1594575, Note_off_c, 0, 62, 44
1, 1594596, Note_off_c, 0, 57, 59
1, 1594635, Note_on_c, 0, 53, 61
1, 1594702, Note_off_c, 0, 53, 48
1, 1594702, Poly_aftertouch_c, 0, 53, 0
1, 1594728, Control_c, 0, 67, 74
1, 1594764, Control_c, 0, 64, 114
1, 1594784, Control_c, 0, 64, 90
1, 1594803, Control_c, 0, 64, 64
1, 1594820, Control_c, 0, 64, 39
1, 1594831, Note_on_c, 0, 72, 67
1, 1594834, Note_on_c, 0, 69, 55
1, 1594839, Control_c, 0, 64, 19
1, 1594846, Note_on_c, 0, 41, 45
1, 1594860, Control_c, 0, 64, 33
1, 1594869, Note_on_c, 0, 60, 40
1, 1594878, Control_c, 0, 64, 49
1, 1594895, Control_c, 0, 64, 63
1, 1594916, Control_c, 0, 64, 77
1, 1594934, Control_c, 0, 64, 92
1, 1594942, Note_off_c, 0, 41, 58
1, 1594951, Control_c, 0, 64, 112
1, 1594954, Control_c, 0, 67, 70
1, 1594970, Control_c, 0, 64, 127
1, 1595050, Note_on_c, 0, 53, 31
1, 1595095, Note_off_c, 0, 53, 47
1, 1595095, Poly_aftertouch_c, 0, 53, 0
1, 1595119, Note_on_c, 0, 57, 45
1, 1595160, Note_off_c, 0, 57, 54
1, 1595211, Note_on_c, 0, 53, 51
1, 1595245, Note_off_c, 0, 53, 58
1, 1595245, Poly_aftertouch_c, 0, 53, 0
1, 1595288, Note_on_c, 0, 57, 50
1, 1595322, Note_off_c, 0, 57, 56
1, 1595366, Note_on_c, 0, 53, 46
1, 1595405, Note_off_c, 0, 53, 59
1, 1595405, Poly_aftertouch_c, 0, 53, 0
1, 1595447, Note_on_c, 0, 57, 51
1, 1595496, Note_off_c, 0, 57, 58
1, 1595535, Note_on_c, 0, 53, 45
1, 1595584, Note_off_c, 0, 53, 59
1, 1595584, Poly_aftertouch_c, 0, 53, 0
1, 1595633, Note_off_c, 0, 60, 54
1, 1595633, Note_on_c, 0, 57, 39
1, 1595667, Note_off_c, 0, 57, 55
1, 1595678, Note_off_c, 0, 69, 61
1, 1595678, Poly_aftertouch_c, 0, 69, 0
1, 1595691, Note_off_c, 0, 65, 59
1, 1595691, Poly_aftertouch_c, 0, 65, 0
1, 1595726, Note_on_c, 0, 53, 36
1, 1595759, Note_off_c, 0, 53, 49
1, 1595759, Poly_aftertouch_c, 0, 53, 0
1, 1595781, Note_on_c, 0, 57, 53
1, 1595797, Note_off_c, 0, 72, 37
1, 1595814, Note_off_c, 0, 57, 62
1, 1595858, Note_on_c, 0, 53, 47
1, 1595898, Note_off_c, 0, 53, 54
1, 1595898, Poly_aftertouch_c, 0, 53, 0
1, 1595905, Control_c, 0, 64, 110
1, 1595925, Control_c, 0, 64, 82
1, 1595943, Control_c, 0, 64, 55
1, 1595961, Control_c, 0, 64, 32
1, 1595966, Note_on_c, 0, 43, 55
1, 1595969, Note_on_c, 0, 70, 69
1, 1595998, Control_c, 0, 64, 39
1, 1596004, Note_on_c, 0, 65, 43
1, 1596018, Note_on_c, 0, 62, 36
1, 1596018, Control_c, 0, 64, 51
1, 1596031, Note_off_c, 0, 43, 62
1, 1596035, Control_c, 0, 64, 65
1, 1596055, Control_c, 0, 64, 78
1, 1596074, Control_c, 0, 64, 92
1, 1596092, Control_c, 0, 64, 111
1, 1596111, Control_c, 0, 64, 127
1, 1596152, Note_on_c, 0, 55, 48
1, 1596167, Control_c, 0, 67, 75
1, 1596187, Control_c, 0, 67, 79
1, 1596205, Control_c, 0, 67, 87
1, 1596209, Note_off_c, 0, 55, 63
1, 1596223, Control_c, 0, 67, 96
1, 1596241, Control_c, 0, 67, 102
1, 1596253, Note_off_c, 0, 62, 54
1, 1596255, Note_on_c, 0, 58, 43
1, 1596295, Note_off_c, 0, 58, 54
1, 1596295, Poly_aftertouch_c, 0, 58, 0
1, 1596301, Note_off_c, 0, 70, 51
1, 1596301, Poly_aftertouch_c, 0, 70, 0
1, 1596338, Note_on_c, 0, 55, 48
1, 1596342, Note_off_c, 0, 65, 32
1, 1596342, Poly_aftertouch_c, 0, 65, 0
1, 1596395, Note_on_c, 0, 58, 61
1, 1596434, Note_off_c, 0, 58, 65
1, 1596434, Poly_aftertouch_c, 0, 58, 0
1, 1596476, Note_off_c, 0, 55, 49
1, 1596513, Note_on_c, 0, 70, 73
1, 1596522, Note_on_c, 0, 65, 62
1, 1596522, Control_c, 0, 64, 109
1, 1596530, Note_on_c, 0, 45, 71
1, 1596542, Control_c, 0, 64, 70
1, 1596545, Control_c, 0, 67, 98
1, 1596552, Note_on_c, 0, 62, 35
1, 1596558, Control_c, 0, 64, 47
1, 1596579, Control_c, 0, 64, 56
1, 1596585, Note_off_c, 0, 45, 55
1, 1596596, Note_off_c, 0, 62, 48
1, 1596597, Control_c, 0, 64, 74
1, 1596598, Control_c, 0, 67, 91
1, 1596617, Control_c, 0, 64, 96
1, 1596619, Control_c, 0, 67, 87
1, 1596631, Note_on_c, 0, 57, 67
1, 1596636, Control_c, 0, 64, 127
1, 1596637, Control_c, 0, 67, 82
1, 1596653, Control_c, 0, 67, 77
1, 1596673, Note_off_c, 0, 57, 60
1, 1596691, Control_c, 0, 67, 73
1, 1596746, Note_on_c, 0, 60, 55
1, 1596791, Note_off_c, 0, 60, 63
1, 1596839, Note_on_c, 0, 57, 47
1, 1596849, Note_on_c, 0, 69, 70
1, 1596859, Control_c, 0, 67, 69
1, 1596898, Note_off_c, 0, 70, 58
1, 1596898, Poly_aftertouch_c, 0, 70, 0
1, 1596902, Note_on_c, 0, 60, 54
1, 1596910, Note_off_c, 0, 57, 52
1, 1596915, Note_off_c, 0, 69, 60
1, 1596915, Poly_aftertouch_c, 0, 69, 0
1, 1596937, Note_off_c, 0, 60, 55
1, 1596952, Note_off_c, 0, 65, 35
1, 1596952, Poly_aftertouch_c, 0, 65, 0
1, 1596953, Poly_aftertouch_c, 0, 65, 0
1, 1596953, Control_c, 0, 67, 64
1, 1596990, Control_c, 0, 67, 60
1, 1597026, Control_c, 0, 64, 114
1, 1597030, Note_on_c, 0, 46, 59
1, 1597041, Note_on_c, 0, 69, 82
1, 1597045, Control_c, 0, 64, 67
1, 1597066, Control_c, 0, 64, 0
1, 1597082, Note_on_c, 0, 65, 55
1, 1597102, Note_off_c, 0, 46, 60
1, 1597120, Control_c, 0, 64, 55
1, 1597140, Control_c, 0, 64, 82
1, 1597155, Note_on_c, 0, 58, 59
1, 1597159, Control_c, 0, 64, 115
1, 1597161, Note_off_c, 0, 65, 50
1, 1597176, Control_c, 0, 64, 127
1, 1597226, Note_off_c, 0, 58, 57
1, 1597226, Poly_aftertouch_c, 0, 58, 0
1, 1597243, Note_on_c, 0, 62, 58
1, 1597297, Note_off_c, 0, 69, 59
1, 1597297, Poly_aftertouch_c, 0, 69, 0
1, 1597313, Note_off_c, 0, 62, 53
1, 1597361, Note_on_c, 0, 67, 72
1, 1597366, Note_on_c, 0, 58, 52
1, 1597389, Note_off_c, 0, 67, 69
1, 1597389, Poly_aftertouch_c, 0, 67, 0
1, 1597408, Note_off_c, 0, 58, 64
1, 1597408, Poly_aftertouch_c, 0, 58, 0
1, 1597453, Note_on_c, 0, 62, 53
1, 1597456, Note_on_c, 0, 67, 77
1, 1597498, Note_off_c, 0, 62, 58
1, 1597590, Note_on_c, 0, 58, 24
1, 1597599, Note_on_c, 0, 79, 85
1, 1597652, Note_off_c, 0, 58, 53
1, 1597652, Poly_aftertouch_c, 0, 58, 0
1, 1597684, Note_on_c, 0, 62, 49
1, 1597744, Note_off_c, 0, 62, 58
1, 1597757, Control_c, 0, 67, 66
1, 1597778, Note_on_c, 0, 58, 56
1, 1597831, Note_off_c, 0, 58, 62
1, 1597831, Poly_aftertouch_c, 0, 58, 0
1, 1597871, Note_on_c, 0, 62, 61
1, 1597920, Note_on_c, 0, 77, 82
1, 1597949, Note_off_c, 0, 62, 59
1, 1597968, Note_on_c, 0, 58, 58
1, 1597969, Note_off_c, 0, 79, 60
1, 1597971, Note_off_c, 0, 67, 60
1, 1597971, Poly_aftertouch_c, 0, 67, 0
1, 1598025, Note_off_c, 0, 77, 59
1, 1598025, Poly_aftertouch_c, 0, 77, 0
1, 1598066, Note_off_c, 0, 58, 58
1, 1598066, Poly_aftertouch_c, 0, 58, 0
1, 1598111, Control_c, 0, 64, 114
1, 1598125, Note_on_c, 0, 47, 61
1, 1598130, Note_on_c, 0, 77, 84
1, 1598130, Control_c, 0, 64, 71
1, 1598140, Note_on_c, 0, 74, 66
1, 1598148, Control_c, 0, 64, 0
1, 1598170, Note_on_c, 0, 67, 54
1, 1598209, Note_off_c, 0, 47, 56
1, 1598224, Control_c, 0, 64, 49
1, 1598242, Note_on_c, 0, 59, 61
1, 1598242, Control_c, 0, 64, 77
1, 1598262, Control_c, 0, 64, 107
1, 1598280, Control_c, 0, 64, 127
1, 1598313, Note_off_c, 0, 59, 59
1, 1598348, Note_on_c, 0, 62, 58
1, 1598402, Note_off_c, 0, 62, 60
1, 1598423, Note_on_c, 0, 59, 60
1, 1598467, Note_off_c, 0, 59, 60
1, 1598496, Note_on_c, 0, 62, 64
1, 1598523, Control_c, 0, 67, 61
1, 1598534, Note_off_c, 0, 62, 62
1, 1598572, Note_on_c, 0, 59, 66
1, 1598599, Control_c, 0, 64, 115
1, 1598612, Note_off_c, 0, 59, 63
1, 1598617, Control_c, 0, 64, 66
1, 1598620, Control_c, 0, 67, 57
1, 1598636, Control_c, 0, 64, 0
1, 1598645, Note_on_c, 0, 72, 82
1, 1598648, Note_on_c, 0, 48, 61
1, 1598673, Control_c, 0, 64, 22
1, 1598689, Note_off_c, 0, 74, 62
1, 1598690, Control_c, 0, 64, 65
1, 1598691, Note_off_c, 0, 48, 64
1, 1598691, Control_c, 0, 67, 52
1, 1598710, Control_c, 0, 64, 95
1, 1598728, Control_c, 0, 64, 127
1, 1598745, Note_on_c, 0, 60, 59
1, 1598749, Control_c, 0, 67, 47
1, 1598784, Control_c, 0, 67, 41
1, 1598786, Note_off_c, 0, 60, 63
1, 1598804, Control_c, 0, 67, 37
1, 1598824, Control_c, 0, 67, 33
1, 1598829, Note_off_c, 0, 72, 56
1, 1598829, Note_on_c, 0, 65, 49
1, 1598838, Note_off_c, 0, 77, 57
1, 1598838, Poly_aftertouch_c, 0, 77, 0
1, 1598841, Control_c, 0, 67, 27
1, 1598860, Control_c, 0, 67, 23
1, 1598882, Note_off_c, 0, 65, 61
1, 1598905, Note_on_c, 0, 60, 55
1, 1598946, Note_on_c, 0, 72, 78
1, 1598950, Note_off_c, 0, 60, 63
1, 1598986, Note_off_c, 0, 72, 60
1, 1598987, Note_on_c, 0, 65, 67
1, 1599037, Note_off_c, 0, 65, 62
1, 1599076, Note_on_c, 0, 60, 60
1, 1599096, Note_on_c, 0, 72, 62
1, 1599126, Note_off_c, 0, 72, 67
1, 1599138, Note_off_c, 0, 60, 51
1, 1599139, Control_c, 0, 64, 102
1, 1599159, Control_c, 0, 64, 41
1, 1599161, Note_on_c, 0, 74, 81
1, 1599174, Note_on_c, 0, 50, 66
1, 1599177, Control_c, 0, 64, 0
1, 1599207, Note_on_c, 0, 72, 84
1, 1599213, Control_c, 0, 64, 29
1, 1599215, Note_off_c, 0, 50, 62
1, 1599235, Control_c, 0, 64, 77
1, 1599253, Control_c, 0, 64, 123
1, 1599261, Note_off_c, 0, 74, 63
1, 1599265, Note_on_c, 0, 62, 67
1, 1599272, Control_c, 0, 64, 127
1, 1599322, Note_off_c, 0, 67, 41
1, 1599322, Poly_aftertouch_c, 0, 67, 0
1, 1599334, Note_off_c, 0, 62, 60
1, 1599380, Note_on_c, 0, 65, 58
1, 1599382, Control_c, 0, 67, 29
1, 1599390, Note_off_c, 0, 72, 59
1, 1599421, Control_c, 0, 67, 38
1, 1599448, Note_off_c, 0, 65, 53
1, 1599457, Control_c, 0, 67, 42
1, 1599487, Note_on_c, 0, 62, 55
1, 1599521, Note_on_c, 0, 71, 62
1, 1599539, Note_off_c, 0, 62, 60
1, 1599547, Note_off_c, 0, 71, 63
1, 1599587, Note_on_c, 0, 65, 65
1, 1599602, Note_on_c, 0, 71, 65
1, 1599675, Note_off_c, 0, 71, 60
1, 1599699, Note_off_c, 0, 65, 39
1, 1599719, Note_on_c, 0, 86, 94
1, 1599743, Note_on_c, 0, 62, 51
1, 1599797, Note_off_c, 0, 62, 62
1, 1599833, Control_c, 0, 67, 38
1, 1599845, Note_on_c, 0, 65, 55
1, 1599897, Note_off_c, 0, 65, 54
1, 1599932, Note_off_c, 0, 86, 62
1, 1599933, Note_on_c, 0, 62, 54
1, 1599945, Control_c, 0, 67, 34
1, 1599981, Note_off_c, 0, 62, 61
1, 1599981, Control_c, 0, 67, 29
1, 1600023, Note_on_c, 0, 84, 89
1, 1600031, Note_on_c, 0, 65, 60
1, 1600056, Control_c, 0, 67, 25
1, 1600078, Note_off_c, 0, 65, 63
1, 1600088, Note_off_c, 0, 84, 66
1, 1600207, Poly_aftertouch_c, 0, 62, 127
1, 1600220, Note_on_c, 0, 78, 17
1, 1600233, Poly_aftertouch_c, 0, 62, 0
1, 1600244, Control_c, 0, 64, 121
1, 1600245, Control_c, 0, 67, 30
1, 1600262, Control_c, 0, 64, 89
1, 1600275, Note_on_c, 0, 84, 85
1, 1600280, Control_c, 0, 64, 52
1, 1600284, Note_on_c, 0, 79, 71
1, 1600286, Note_off_c, 0, 78, 43
1, 1600292, Note_on_c, 0, 52, 54
1, 1600299, Control_c, 0, 64, 0
1, 1600315, Note_on_c, 0, 70, 52
1, 1600318, Control_c, 0, 67, 35
1, 1600356, Control_c, 0, 64, 43
1, 1600361, Note_off_c, 0, 52, 54
1, 1600374, Control_c, 0, 64, 73
1, 1600393, Control_c, 0, 64, 101
1, 1600410, Note_on_c, 0, 64, 64
1, 1600411, Control_c, 0, 64, 127
1, 1600471, Note_off_c, 0, 64, 60
1, 1600515, Note_on_c, 0, 67, 64
1, 1600557, Note_off_c, 0, 67, 62
1, 1600557, Poly_aftertouch_c, 0, 67, 0
1, 1600603, Note_on_c, 0, 64, 39
1, 1600645, Note_off_c, 0, 64, 55
1, 1600656, Note_on_c, 0, 67, 68
1, 1600693, Control_c, 0, 67, 39
1, 1600701, Note_off_c, 0, 67, 63
1, 1600701, Poly_aftertouch_c, 0, 67, 0
1, 1600741, Note_on_c, 0, 64, 54
1, 1600780, Note_off_c, 0, 64, 64
1, 1600785, Control_c, 0, 64, 111
1, 1600803, Control_c, 0, 64, 71
1, 1600806, Note_on_c, 0, 77, 80
1, 1600806, Control_c, 0, 67, 44
1, 1600814, Note_on_c, 0, 53, 62
1, 1600822, Control_c, 0, 64, 25
1, 1600843, Control_c, 0, 64, 0
1, 1600859, Note_off_c, 0, 79, 61
1, 1600860, Control_c, 0, 64, 36
1, 1600880, Control_c, 0, 64, 68
1, 1600895, Note_off_c, 0, 53, 61
1, 1600895, Poly_aftertouch_c, 0, 53, 0
1, 1600898, Control_c, 0, 64, 92
1, 1600905, Note_on_c, 0, 62, 57
1, 1600918, Control_c, 0, 64, 118
1, 1600918, Control_c, 0, 67, 48
1, 1600935, Control_c, 0, 64, 127
1, 1600940, Note_off_c, 0, 84, 60
1, 1600954, Control_c, 0, 67, 57
1, 1600963, Note_off_c, 0, 62, 54
1, 1600972, Control_c, 0, 67, 65
1, 1600990, Note_on_c, 0, 65, 65
1, 1600991, Control_c, 0, 67, 72
1, 1601001, Note_off_c, 0, 77, 57
1, 1601001, Poly_aftertouch_c, 0, 77, 0
1, 1601028, Control_c, 0, 67, 78
1, 1601059, Note_off_c, 0, 65, 57
1, 1601094, Note_on_c, 0, 62, 59
1, 1601113, Note_on_c, 0, 77, 77
1, 1601130, Note_off_c, 0, 70, 59
1, 1601130, Poly_aftertouch_c, 0, 70, 0
1, 1601157, Note_off_c, 0, 77, 56
1, 1601157, Poly_aftertouch_c, 0, 77, 0
1, 1601159, Note_off_c, 0, 62, 57
1, 1601192, Note_on_c, 0, 65, 55
1, 1601236, Note_off_c, 0, 65, 62
1, 1601325, Note_on_c, 0, 77, 80
1, 1601343, Note_on_c, 0, 55, 58
1, 1601346, Control_c, 0, 64, 105
1, 1601347, Control_c, 0, 67, 82
1, 1601350, Note_on_c, 0, 70, 68
1, 1601365, Control_c, 0, 64, 70
1, 1601385, Control_c, 0, 64, 32
1, 1601386, Control_c, 0, 67, 90
1, 1601403, Control_c, 0, 64, 0
1, 1601405, Control_c, 0, 67, 94
1, 1601422, Control_c, 0, 64, 23
1, 1601441, Control_c, 0, 64, 54
1, 1601447, Note_off_c, 0, 55, 62
1, 1601452, Note_on_c, 0, 60, 54
1, 1601459, Control_c, 0, 64, 78
1, 1601478, Control_c, 0, 64, 100
1, 1601496, Control_c, 0, 64, 127
1, 1601518, Note_off_c, 0, 60, 59
1, 1601554, Note_on_c, 0, 64, 45
1, 1601602, Note_off_c, 0, 64, 51
1, 1601638, Note_on_c, 0, 60, 60
1, 1601683, Note_on_c, 0, 76, 74
1, 1601695, Note_off_c, 0, 60, 56
1, 1601717, Note_off_c, 0, 77, 56
1, 1601717, Poly_aftertouch_c, 0, 77, 0
1, 1601723, Note_on_c, 0, 64, 43
1, 1601768, Note_off_c, 0, 64, 53
1, 1601814, Control_c, 0, 64, 115
1, 1601834, Control_c, 0, 64, 82
1, 1601839, Note_on_c, 0, 79, 85
1, 1601846, Note_on_c, 0, 53, 54
1, 1601853, Control_c, 0, 64, 48
1, 1601872, Control_c, 0, 64, 0
1, 1601889, Note_off_c, 0, 76, 62
1, 1601908, Control_c, 0, 64, 45
1, 1601927, Control_c, 0, 64, 72
1, 1601945, Control_c, 0, 64, 94
1, 1601947, Control_c, 0, 67, 98
1, 1601964, Control_c, 0, 64, 124
1, 1601965, Control_c, 0, 67, 103
1, 1601978, Note_off_c, 0, 53, 61
1, 1601978, Poly_aftertouch_c, 0, 53, 0
1, 1601982, Control_c, 0, 67, 110
1, 1601987, Note_off_c, 0, 79, 57
1, 1601991, Note_on_c, 0, 58, 56
1, 1602000, Control_c, 0, 67, 114
1, 1602035, Note_off_c, 0, 70, 60
1, 1602035, Poly_aftertouch_c, 0, 70, 0
1, 1602078, Note_off_c, 0, 58, 59
1, 1602078, Poly_aftertouch_c, 0, 58, 0
1, 1602103, Note_on_c, 0, 62, 46
1, 1602192, Note_on_c, 0, 74, 81
1, 1602207, Note_on_c, 0, 70, 68
1, 1602220, Note_on_c, 0, 67, 61
1, 1602239, Note_on_c, 0, 58, 47
1, 1602264, Note_off_c, 0, 62, 28
1, 1602305, Note_off_c, 0, 58, 52
1, 1602305, Poly_aftertouch_c, 0, 58, 0
1, 1602371, Note_on_c, 0, 52, 63
1, 1602374, Control_c, 0, 64, 98
1, 1602395, Control_c, 0, 64, 68
1, 1602413, Control_c, 0, 64, 16
1, 1602432, Control_c, 0, 64, 0
1, 1602456, Note_on_c, 0, 58, 65
1, 1602465, Note_off_c, 0, 52, 61
1, 1602468, Control_c, 0, 64, 18
1, 1602488, Control_c, 0, 64, 53
1, 1602506, Control_c, 0, 64, 75
1, 1602526, Control_c, 0, 64, 96
1, 1602544, Control_c, 0, 64, 121
1, 1602562, Control_c, 0, 64, 127
1, 1602570, Note_off_c, 0, 58, 59
1, 1602570, Poly_aftertouch_c, 0, 58, 0
1, 1602578, Note_on_c, 0, 60, 49
1, 1602628, Note_off_c, 0, 60, 50
1, 1602695, Note_on_c, 0, 58, 46
1, 1602711, Note_on_c, 0, 72, 67
1, 1602712, Note_off_c, 0, 74, 54
1, 1602725, Note_on_c, 0, 60, 47
1, 1602738, Note_off_c, 0, 67, 58
1, 1602738, Poly_aftertouch_c, 0, 67, 0
1, 1602771, Note_off_c, 0, 60, 58
1, 1602771, Note_off_c, 0, 58, 47
1, 1602771, Poly_aftertouch_c, 0, 58, 0
1, 1602880, Control_c, 0, 64, 121
1, 1602898, Control_c, 0, 64, 112
1, 1602907, Note_on_c, 0, 77, 73
1, 1602915, Note_on_c, 0, 50, 53
1, 1602917, Control_c, 0, 64, 97
1, 1602936, Control_c, 0, 64, 74
1, 1602941, Note_on_c, 0, 65, 55
1, 1602948, Note_off_c, 0, 70, 31
1, 1602948, Poly_aftertouch_c, 0, 70, 0
1, 1602954, Control_c, 0, 64, 44
1, 1602957, Note_off_c, 0, 72, 58
1, 1602974, Control_c, 0, 64, 0
1, 1603022, Note_on_c, 0, 58, 52
1, 1603030, Control_c, 0, 64, 34
1, 1603044, Note_off_c, 0, 50, 57
1, 1603048, Control_c, 0, 64, 61
1, 1603068, Control_c, 0, 64, 82
1, 1603085, Control_c, 0, 64, 105
1, 1603106, Control_c, 0, 64, 127
1, 1603122, Note_off_c, 0, 58, 60
1, 1603122, Poly_aftertouch_c, 0, 58, 0
1, 1603129, Note_on_c, 0, 62, 44
1, 1603170, Note_off_c, 0, 62, 52
1, 1603189, Note_off_c, 0, 77, 48
1, 1603189, Poly_aftertouch_c, 0, 77, 0
1, 1603238, Note_on_c, 0, 58, 47
1, 1603269, Note_on_c, 0, 70, 72
1, 1603284, Note_on_c, 0, 62, 50
1, 1603334, Note_off_c, 0, 62, 57
1, 1603383, Note_off_c, 0, 58, 35
1, 1603383, Poly_aftertouch_c, 0, 58, 0
1, 1603423, Control_c, 0, 64, 121
1, 1603432, Note_on_c, 0, 48, 56
1, 1603442, Control_c, 0, 64, 97
1, 1603460, Control_c, 0, 64, 64
1, 1603478, Control_c, 0, 64, 0
1, 1603479, Control_c, 0, 67, 123
1, 1603496, Control_c, 0, 67, 127
1, 1603534, Note_on_c, 0, 57, 55
1, 1603553, Control_c, 0, 64, 29
1, 1603571, Control_c, 0, 64, 59
1, 1603574, Note_off_c, 0, 48, 53
1, 1603591, Control_c, 0, 64, 79
1, 1603609, Control_c, 0, 64, 96
1, 1603628, Control_c, 0, 64, 111
1, 1603633, Note_off_c, 0, 57, 59
1, 1603644, Note_on_c, 0, 60, 58
1, 1603647, Control_c, 0, 64, 123
1, 1603666, Control_c, 0, 64, 127
1, 1603699, Note_off_c, 0, 60, 54
1, 1603747, Note_on_c, 0, 57, 41
1, 1603791, Note_on_c, 0, 69, 68
1, 1603814, Note_off_c, 0, 57, 55
1, 1603833, Note_on_c, 0, 60, 51
1, 1603838, Note_off_c, 0, 70, 59
1, 1603838, Poly_aftertouch_c, 0, 70, 0
1, 1603869, Note_off_c, 0, 65, 51
1, 1603871, Note_off_c, 0, 60, 58
1, 1603872, Note_off_c, 0, 69, 59
1, 1603872, Poly_aftertouch_c, 0, 69, 0
1, 1603990, Poly_aftertouch_c, 0, 57, 0
1, 1604046, Note_on_c, 0, 74, 75
1, 1604076, Control_c, 0, 64, 106
1, 1604077, Note_on_c, 0, 48, 44
1, 1604080, Note_on_c, 0, 67, 47
1, 1604095, Control_c, 0, 64, 80
1, 1604099, Note_on_c, 0, 65, 35
1, 1604115, Control_c, 0, 64, 50
1, 1604133, Control_c, 0, 64, 0
1, 1604171, Control_c, 0, 64, 26
1, 1604189, Control_c, 0, 64, 51
1, 1604203, Note_on_c, 0, 55, 46
1, 1604207, Control_c, 0, 64, 71
1, 1604226, Control_c, 0, 64, 87
1, 1604245, Control_c, 0, 64, 106
1, 1604264, Control_c, 0, 64, 124
1, 1604286, Note_off_c, 0, 55, 59
1, 1604303, Note_on_c, 0, 59, 55
1, 1604345, Note_off_c, 0, 59, 57
1, 1604421, Note_on_c, 0, 55, 53
1, 1604457, Note_off_c, 0, 48, 39
1, 1604471, Note_off_c, 0, 55, 59
1, 1604479, Note_on_c, 0, 59, 41
1, 1604536, Note_off_c, 0, 59, 47
1, 1604594, Note_on_c, 0, 48, 61
1, 1604657, Control_c, 0, 64, 110
1, 1604676, Control_c, 0, 64, 87
1, 1604694, Control_c, 0, 64, 59
1, 1604712, Control_c, 0, 64, 11
1, 1604732, Control_c, 0, 64, 0
1, 1604751, Note_on_c, 0, 55, 44
1, 1604787, Control_c, 0, 64, 27
1, 1604807, Control_c, 0, 64, 46
1, 1604824, Control_c, 0, 64, 66
1, 1604825, Note_off_c, 0, 67, 51
1, 1604825, Poly_aftertouch_c, 0, 67, 0
1, 1604834, Note_off_c, 0, 55, 59
1, 1604842, Control_c, 0, 64, 81
1, 1604862, Control_c, 0, 64, 92
1, 1604866, Note_on_c, 0, 58, 44
1, 1604881, Control_c, 0, 64, 104
1, 1604900, Control_c, 0, 64, 113
1, 1604918, Control_c, 0, 64, 121
1, 1604932, Note_off_c, 0, 58, 55
1, 1604932, Poly_aftertouch_c, 0, 58, 0
1, 1604937, Control_c, 0, 64, 125
1, 1604984, Note_on_c, 0, 55, 47
1, 1605045, Note_on_c, 0, 67, 52
1, 1605049, Note_off_c, 0, 74, 59
1, 1605086, Note_off_c, 0, 55, 59
1, 1605109, Note_on_c, 0, 58, 41
1, 1605129, Note_off_c, 0, 65, 35
1, 1605155, Note_off_c, 0, 58, 48
1, 1605155, Poly_aftertouch_c, 0, 58, 0
1, 1605290, Note_on_c, 0, 55, 33
1, 1605337, Note_on_c, 0, 72, 53
1, 1605354, Note_on_c, 0, 64, 41
1, 1605413, Note_off_c, 0, 55, 59
1, 1605445, Note_on_c, 0, 58, 44
1, 1605540, Note_off_c, 0, 58, 52
1, 1605540, Poly_aftertouch_c, 0, 58, 0
1, 1605581, Note_on_c, 0, 55, 48
1, 1605589, Note_off_c, 0, 67, 47
1, 1605589, Poly_aftertouch_c, 0, 67, 0
1, 1605635, Note_off_c, 0, 64, 53
1, 1605673, Note_off_c, 0, 55, 59
1, 1605694, Note_off_c, 0, 72, 60
1, 1605711, Note_on_c, 0, 58, 44
1, 1605778, Note_off_c, 0, 58, 59
1, 1605778, Poly_aftertouch_c, 0, 58, 0
1, 1605805, Note_on_c, 0, 55, 44
1, 1605813, Note_off_c, 0, 48, 35
1, 1605849, Note_off_c, 0, 55, 47
1, 1605895, Note_on_c, 0, 65, 53
1, 1605946, Note_on_c, 0, 69, 56
1, 1605984, Control_c, 0, 67, 123
1, 1606004, Control_c, 0, 64, 116
1, 1606019, Note_on_c, 0, 72, 50
1, 1606022, Control_c, 0, 64, 107
1, 1606022, Control_c, 0, 67, 118
1, 1606040, Control_c, 0, 64, 98
1, 1606059, Control_c, 0, 64, 86
1, 1606078, Control_c, 0, 64, 69
1, 1606080, Control_c, 0, 67, 113
1, 1606096, Control_c, 0, 64, 52
1, 1606103, Note_on_c, 0, 41, 45
1, 1606115, Control_c, 0, 64, 16
1, 1606134, Control_c, 0, 64, 0
1, 1606135, Control_c, 0, 67, 107
1, 1606170, Control_c, 0, 67, 102
1, 1606208, Control_c, 0, 67, 97
1, 1606227, Control_c, 0, 64, 35
1, 1606247, Control_c, 0, 64, 57
1, 1606265, Control_c, 0, 64, 75
1, 1606278, Note_off_c, 0, 41, 58
1, 1606284, Control_c, 0, 64, 90
1, 1606285, Control_c, 0, 67, 93
1, 1606304, Control_c, 0, 64, 106
1, 1606311, Note_on_c, 0, 77, 72
1, 1606320, Control_c, 0, 64, 123
1, 1606340, Control_c, 0, 64, 127
1, 1606358, Control_c, 0, 67, 88
1, 1606521, Note_on_c, 0, 57, 41
1, 1606550, Note_off_c, 0, 69, 35
1, 1606550, Poly_aftertouch_c, 0, 69, 0
1, 1606565, Note_off_c, 0, 57, 54
1, 1606626, Note_on_c, 0, 60, 38
1, 1606665, Note_off_c, 0, 60, 54
1, 1606676, Control_c, 0, 67, 84
1, 1606691, Note_on_c, 0, 57, 52
1, 1606713, Control_c, 0, 67, 78
1, 1606730, Note_off_c, 0, 57, 61
1, 1606750, Control_c, 0, 67, 70
1, 1606769, Control_c, 0, 67, 65
1, 1606779, Note_on_c, 0, 60, 54
1, 1606788, Control_c, 0, 67, 60
1, 1606808, Control_c, 0, 67, 56
1, 1606830, Note_off_c, 0, 60, 58
1, 1606844, Control_c, 0, 67, 50
1, 1606859, Note_on_c, 0, 57, 45
1, 1606882, Control_c, 0, 67, 44
1, 1606904, Note_off_c, 0, 57, 58
1, 1606914, Note_on_c, 0, 69, 75
1, 1606917, Control_c, 0, 67, 40
1, 1606962, Note_on_c, 0, 60, 42
1, 1606969, Note_off_c, 0, 72, 60
1, 1607011, Note_off_c, 0, 60, 52
1, 1607039, Note_on_c, 0, 57, 54
1, 1607083, Note_off_c, 0, 77, 48
1, 1607083, Poly_aftertouch_c, 0, 77, 0
1, 1607104, Note_off_c, 0, 57, 55
1, 1607151, Note_on_c, 0, 60, 49
1, 1607186, Note_off_c, 0, 60, 62
1, 1607243, Note_on_c, 0, 57, 33
1, 1607271, Note_off_c, 0, 65, 42
1, 1607280, Note_off_c, 0, 57, 51
1, 1607287, Note_on_c, 0, 60, 62
1, 1607325, Note_off_c, 0, 60, 62
1, 1607386, Control_c, 0, 64, 119
1, 1607399, Note_on_c, 0, 57, 47
1, 1607405, Control_c, 0, 64, 101
1, 1607425, Control_c, 0, 64, 77
1, 1607439, Note_off_c, 0, 57, 54
1, 1607442, Control_c, 0, 64, 51
1, 1607460, Control_c, 0, 64, 0
1, 1607466, Note_on_c, 0, 76, 67
1, 1607477, Note_on_c, 0, 72, 58
1, 1607494, Note_on_c, 0, 64, 44
1, 1607499, Control_c, 0, 67, 36
1, 1607511, Note_on_c, 0, 45, 53
1, 1607517, Control_c, 0, 64, 33
1, 1607536, Control_c, 0, 64, 52
1, 1607556, Control_c, 0, 64, 70
1, 1607557, Control_c, 0, 67, 32
1, 1607573, Control_c, 0, 64, 85
1, 1607592, Control_c, 0, 64, 101
1, 1607600, Note_off_c, 0, 45, 56
1, 1607612, Control_c, 0, 64, 119
1, 1607613, Control_c, 0, 67, 27
1, 1607629, Control_c, 0, 64, 127
1, 1607667, Control_c, 0, 67, 23
1, 1607692, Note_on_c, 0, 57, 13
1, 1607751, Note_on_c, 0, 60, 50
1, 1607760, Control_c, 0, 67, 18
1, 1607763, Note_off_c, 0, 57, 38
1, 1607798, Control_c, 0, 67, 14
1, 1607801, Note_off_c, 0, 60, 61
1, 1607843, Note_on_c, 0, 57, 39
1, 1607892, Note_off_c, 0, 57, 59
1, 1607901, Note_off_c, 0, 64, 35
1, 1607918, Note_on_c, 0, 60, 58
1, 1607963, Note_off_c, 0, 60, 62
1, 1607966, Control_c, 0, 67, 19
1, 1608004, Control_c, 0, 67, 30
1, 1608020, Note_on_c, 0, 57, 45
1, 1608022, Control_c, 0, 67, 42
1, 1608034, Note_off_c, 0, 69, 53
1, 1608034, Poly_aftertouch_c, 0, 69, 0
1, 1608040, Control_c, 0, 67, 52
1, 1608053, Note_off_c, 0, 57, 58
1, 1608058, Control_c, 0, 67, 58
1, 1608062, Note_off_c, 0, 72, 56
1, 1608087, Note_on_c, 0, 60, 56
1, 1608095, Note_off_c, 0, 76, 60
1, 1608122, Note_off_c, 0, 60, 61
1, 1608167, Note_on_c, 0, 57, 58
1, 1608207, Note_off_c, 0, 57, 65
1, 1608229, Note_on_c, 0, 60, 62
1, 1608280, Note_off_c, 0, 60, 59
1, 1608314, Note_on_c, 0, 57, 56
1, 1608359, Control_c, 0, 67, 53
1, 1608361, Note_off_c, 0, 57, 64
1, 1608396, Control_c, 0, 67, 49
1, 1608402, Note_on_c, 0, 60, 60
1, 1608433, Control_c, 0, 67, 41
1, 1608441, Note_off_c, 0, 60, 65
1, 1608443, Note_on_c, 0, 67, 63
1, 1608451, Control_c, 0, 67, 33
1, 1608455, Note_on_c, 0, 57, 61
1, 1608471, Control_c, 0, 67, 23
1, 1608481, Note_off_c, 0, 57, 63
1, 1608488, Control_c, 0, 67, 12
1, 1608508, Note_on_c, 0, 70, 67
1, 1608527, Control_c, 0, 67, 0
1, 1608576, Note_on_c, 0, 74, 64
1, 1608602, Control_c, 0, 64, 113
1, 1608620, Control_c, 0, 64, 78
1, 1608640, Control_c, 0, 64, 19
1, 1608650, Note_on_c, 0, 43, 58
1, 1608658, Control_c, 0, 64, 0
1, 1608752, Control_c, 0, 64, 21
1, 1608770, Control_c, 0, 64, 66
1, 1608789, Control_c, 0, 64, 92
1, 1608808, Control_c, 0, 64, 127
1, 1608812, Note_off_c, 0, 43, 64
1, 1608824, Note_on_c, 0, 79, 82
1, 1608979, Note_on_c, 0, 58, 47
1, 1609024, Note_off_c, 0, 58, 63
1, 1609024, Poly_aftertouch_c, 0, 58, 0
1, 1609078, Note_on_c, 0, 62, 46
1, 1609116, Note_off_c, 0, 62, 53
1, 1609151, Note_on_c, 0, 58, 53
1, 1609152, Note_off_c, 0, 70, 52
1, 1609152, Poly_aftertouch_c, 0, 70, 0
1, 1609196, Note_off_c, 0, 58, 63
1, 1609196, Poly_aftertouch_c, 0, 58, 0
1, 1609227, Note_on_c, 0, 62, 60
1, 1609270, Note_off_c, 0, 62, 58
1, 1609327, Note_on_c, 0, 58, 50
1, 1609356, Note_off_c, 0, 58, 61
1, 1609356, Poly_aftertouch_c, 0, 58, 0
1, 1609380, Note_on_c, 0, 70, 87
1, 1609402, Note_on_c, 0, 62, 57
1, 1609439, Note_off_c, 0, 62, 61
1, 1609473, Note_on_c, 0, 58, 49
1, 1609508, Note_off_c, 0, 74, 58
1, 1609519, Note_off_c, 0, 58, 61
1, 1609519, Poly_aftertouch_c, 0, 58, 0
1, 1609562, Note_on_c, 0, 62, 53
1, 1609607, Note_off_c, 0, 62, 62
1, 1609608, Note_off_c, 0, 79, 57
1, 1609652, Note_on_c, 0, 58, 52
1, 1609693, Note_off_c, 0, 58, 63
1, 1609693, Poly_aftertouch_c, 0, 58, 0
1, 1609718, Note_on_c, 0, 62, 63
1, 1609733, Note_off_c, 0, 67, 54
1, 1609733, Poly_aftertouch_c, 0, 67, 0
1, 1609762, Note_off_c, 0, 62, 64
1, 1609805, Note_on_c, 0, 58, 57
1, 1609893, Control_c, 0, 64, 113
1, 1609912, Control_c, 0, 64, 98
1, 1609930, Control_c, 0, 64, 80
1, 1609943, Note_off_c, 0, 58, 39
1, 1609943, Poly_aftertouch_c, 0, 58, 0
1, 1609947, Control_c, 0, 64, 62
1, 1609963, Note_on_c, 0, 77, 80
1, 1609966, Control_c, 0, 64, 46
1, 1609979, Note_on_c, 0, 74, 66
1, 1609985, Control_c, 0, 64, 0
1, 1610008, Note_on_c, 0, 65, 52
1, 1610015, Note_on_c, 0, 46, 38
1, 1610079, Control_c, 0, 64, 37
1, 1610098, Control_c, 0, 64, 64
1, 1610117, Control_c, 0, 64, 89
1, 1610135, Control_c, 0, 64, 118
1, 1610141, Note_off_c, 0, 46, 63
1, 1610155, Control_c, 0, 64, 127
1, 1610188, Note_on_c, 0, 58, 48
1, 1610233, Note_off_c, 0, 58, 64
1, 1610233, Poly_aftertouch_c, 0, 58, 0
1, 1610276, Note_on_c, 0, 62, 50
1, 1610293, Note_off_c, 0, 65, 46
1, 1610304, Control_c, 0, 67, 10
1, 1610322, Control_c, 0, 67, 14
1, 1610333, Note_off_c, 0, 62, 56
1, 1610341, Control_c, 0, 67, 20
1, 1610355, Note_on_c, 0, 58, 54
1, 1610358, Control_c, 0, 67, 31
1, 1610378, Control_c, 0, 67, 44
1, 1610397, Control_c, 0, 67, 57
1, 1610405, Note_off_c, 0, 58, 64
1, 1610405, Poly_aftertouch_c, 0, 58, 0
1, 1610416, Control_c, 0, 67, 68
1, 1610434, Control_c, 0, 67, 74
1, 1610440, Note_on_c, 0, 62, 66
1, 1610488, Note_off_c, 0, 62, 56
1, 1610490, Control_c, 0, 67, 69
1, 1610528, Note_on_c, 0, 58, 56
1, 1610528, Control_c, 0, 67, 61
1, 1610546, Control_c, 0, 67, 54
1, 1610562, Note_off_c, 0, 70, 56
1, 1610562, Poly_aftertouch_c, 0, 70, 0
1, 1610565, Control_c, 0, 67, 46
1, 1610567, Note_off_c, 0, 58, 66
1, 1610567, Poly_aftertouch_c, 0, 58, 0
1, 1610575, Note_off_c, 0, 74, 58
1, 1610577, Note_off_c, 0, 77, 58
1, 1610577, Poly_aftertouch_c, 0, 77, 0
1, 1610605, Note_on_c, 0, 62, 67
1, 1610637, Note_off_c, 0, 62, 68
1, 1610700, Note_on_c, 0, 58, 56
1, 1610715, Control_c, 0, 67, 52
1, 1610739, Note_off_c, 0, 58, 65
1, 1610739, Poly_aftertouch_c, 0, 58, 0
1, 1610752, Control_c, 0, 67, 57
1, 1610764, Note_on_c, 0, 62, 64
1, 1610804, Note_off_c, 0, 62, 64
1, 1610847, Control_c, 0, 67, 53
1, 1610850, Note_on_c, 0, 58, 53
1, 1610882, Control_c, 0, 67, 47
1, 1610892, Note_off_c, 0, 58, 65
1, 1610892, Poly_aftertouch_c, 0, 58, 0
1, 1610902, Control_c, 0, 67, 39
1, 1610913, Note_on_c, 0, 62, 64
1, 1610921, Control_c, 0, 67, 26
1, 1610959, Control_c, 0, 67, 0
1, 1610965, Note_on_c, 0, 70, 88
1, 1610981, Note_off_c, 0, 62, 59
1, 1611013, Note_on_c, 0, 58, 51
1, 1611039, Note_off_c, 0, 70, 58
1, 1611039, Poly_aftertouch_c, 0, 70, 0
1, 1611047, Note_off_c, 0, 58, 60
1, 1611047, Poly_aftertouch_c, 0, 58, 0
1, 1611200, Control_c, 0, 64, 107
1, 1611220, Control_c, 0, 64, 86
1, 1611238, Control_c, 0, 64, 63
1, 1611245, Note_on_c, 0, 51, 52
1, 1611257, Control_c, 0, 64, 43
1, 1611277, Control_c, 0, 64, 30
1, 1611289, Note_on_c, 0, 82, 83
1, 1611296, Control_c, 0, 64, 44
1, 1611309, Note_on_c, 0, 79, 68
1, 1611316, Control_c, 0, 64, 67
1, 1611321, Note_on_c, 0, 70, 63
1, 1611332, Control_c, 0, 64, 95
1, 1611350, Control_c, 0, 64, 127
1, 1611398, Note_off_c, 0, 51, 61
1, 1611446, Note_on_c, 0, 63, 58
1, 1611481, Control_c, 0, 67, 11
1, 1611499, Control_c, 0, 67, 16
1, 1611519, Control_c, 0, 67, 26
1, 1611526, Note_off_c, 0, 63, 56
1, 1611537, Control_c, 0, 67, 41
1, 1611556, Control_c, 0, 67, 57
1, 1611571, Note_on_c, 0, 67, 52
1, 1611574, Control_c, 0, 67, 70
1, 1611594, Control_c, 0, 67, 77
1, 1611611, Note_off_c, 0, 67, 62
1, 1611611, Poly_aftertouch_c, 0, 67, 0
1, 1611625, Note_off_c, 0, 79, 52
1, 1611665, Note_on_c, 0, 63, 56
1, 1611711, Note_on_c, 0, 67, 66
1, 1611761, Note_off_c, 0, 67, 61
1, 1611761, Poly_aftertouch_c, 0, 67, 0
1, 1611805, Note_off_c, 0, 63, 59
1, 1611806, Poly_aftertouch_c, 0, 63, 0
1, 1611837, Control_c, 0, 64, 117
1, 1611846, Note_on_c, 0, 79, 80
1, 1611856, Control_c, 0, 64, 64
1, 1611857, Control_c, 0, 67, 85
1, 1611866, Note_on_c, 0, 50, 73
1, 1611873, Control_c, 0, 64, 0
1, 1611875, Control_c, 0, 67, 96
1, 1611893, Control_c, 0, 67, 107
1, 1611898, Note_on_c, 0, 54, 38
1, 1611931, Control_c, 0, 64, 46
1, 1611935, Note_off_c, 0, 50, 62
1, 1611941, Note_off_c, 0, 54, 55
1, 1611948, Control_c, 0, 64, 78
1, 1611952, Note_on_c, 0, 62, 64
1, 1611969, Control_c, 0, 64, 112
1, 1611986, Control_c, 0, 64, 127
1, 1611989, Note_off_c, 0, 70, 55
1, 1611989, Poly_aftertouch_c, 0, 70, 0
1, 1612004, Note_off_c, 0, 82, 54
1, 1612071, Note_off_c, 0, 62, 56
1, 1612098, Control_c, 0, 67, 103
1, 1612101, Note_on_c, 0, 67, 50
1, 1612138, Note_off_c, 0, 79, 58
1, 1612144, Note_off_c, 0, 67, 64
1, 1612144, Poly_aftertouch_c, 0, 67, 0
1, 1612174, Note_on_c, 0, 77, 72
1, 1612179, Note_on_c, 0, 83, 83
1, 1612191, Note_on_c, 0, 71, 77
1, 1612223, Note_on_c, 0, 62, 60
1, 1612247, Note_off_c, 0, 77, 62
1, 1612247, Poly_aftertouch_c, 0, 77, 0
1, 1612296, Note_off_c, 0, 62, 57
1, 1612304, Control_c, 0, 67, 98
1, 1612379, Control_c, 0, 64, 74
1, 1612384, Note_on_c, 0, 77, 84
1, 1612399, Note_on_c, 0, 48, 67
1, 1612399, Control_c, 0, 64, 0
1, 1612399, Control_c, 0, 67, 104
1, 1612435, Control_c, 0, 67, 110
1, 1612454, Control_c, 0, 64, 21
1, 1612469, Note_off_c, 0, 48, 63
1, 1612472, Control_c, 0, 64, 65
1, 1612491, Control_c, 0, 64, 91
1, 1612495, Control_c, 0, 67, 115
1, 1612510, Control_c, 0, 64, 125
1, 1612536, Note_on_c, 0, 60, 55
1, 1612591, Note_off_c, 0, 60, 58
1, 1612619, Note_on_c, 0, 67, 51
1, 1612641, Control_c, 0, 67, 111
1, 1612658, Note_off_c, 0, 71, 55
1, 1612669, Note_off_c, 0, 67, 62
1, 1612669, Poly_aftertouch_c, 0, 67, 0
1, 1612709, Note_on_c, 0, 60, 49
1, 1612714, Note_on_c, 0, 76, 80
1, 1612716, Note_off_c, 0, 83, 60
1, 1612720, Note_off_c, 0, 77, 60
1, 1612720, Poly_aftertouch_c, 0, 77, 0
1, 1612740, Note_off_c, 0, 60, 60
1, 1612786, Note_on_c, 0, 67, 57
1, 1612790, Control_c, 0, 67, 107
1, 1612843, Note_off_c, 0, 67, 54
1, 1612843, Poly_aftertouch_c, 0, 67, 0
1, 1612865, Control_c, 0, 67, 103
1, 1612877, Note_on_c, 0, 60, 45
1, 1612905, Note_on_c, 0, 84, 88
1, 1612912, Note_on_c, 0, 79, 75
1, 1612919, Control_c, 0, 64, 92
1, 1612938, Note_on_c, 0, 72, 60
1, 1612940, Control_c, 0, 64, 67
1, 1612949, Note_off_c, 0, 60, 53
1, 1612959, Control_c, 0, 64, 71
1, 1612960, Control_c, 0, 67, 98
1, 1612978, Control_c, 0, 64, 87
1, 1612986, Note_on_c, 0, 67, 60
1, 1612997, Control_c, 0, 64, 111
1, 1612998, Control_c, 0, 67, 93
1, 1613014, Control_c, 0, 64, 127
1, 1613037, Note_off_c, 0, 67, 59
1, 1613037, Poly_aftertouch_c, 0, 67, 0
1, 1613072, Note_on_c, 0, 60, 57
1, 1613082, Note_off_c, 0, 72, 60
1, 1613108, Control_c, 0, 67, 89
1, 1613114, Note_off_c, 0, 79, 61
1, 1613118, Note_off_c, 0, 84, 65
1, 1613122, Note_off_c, 0, 60, 54
1, 1613138, Note_off_c, 0, 76, 22
1, 1613168, Note_on_c, 0, 67, 65
1, 1613293, Control_c, 0, 67, 85
1, 1613295, Note_on_c, 0, 60, 47
1, 1613314, Note_off_c, 0, 67, 55
1, 1613314, Poly_aftertouch_c, 0, 67, 0
1, 1613351, Control_c, 0, 67, 81
1, 1613408, Note_off_c, 0, 60, 60
1, 1613425, Control_c, 0, 64, 102
1, 1613429, Note_on_c, 0, 79, 86
1, 1613435, Note_on_c, 0, 76, 77
1, 1613445, Control_c, 0, 64, 62
1, 1613455, Note_on_c, 0, 67, 71
1, 1613456, Note_on_c, 0, 48, 59
1, 1613464, Control_c, 0, 64, 0
1, 1613501, Control_c, 0, 64, 24
1, 1613519, Control_c, 0, 64, 62
1, 1613527, Note_off_c, 0, 48, 62
1, 1613539, Control_c, 0, 64, 86
1, 1613556, Control_c, 0, 64, 108
1, 1613558, Note_on_c, 0, 60, 64
1, 1613575, Control_c, 0, 64, 127
1, 1613578, Control_c, 0, 67, 88
1, 1613595, Control_c, 0, 67, 97
1, 1613613, Control_c, 0, 67, 110
1, 1613629, Note_off_c, 0, 60, 60
1, 1613633, Control_c, 0, 67, 119
1, 1613667, Note_on_c, 0, 64, 56
1, 1613705, Note_off_c, 0, 64, 64
1, 1613739, Note_off_c, 0, 76, 58
1, 1613771, Note_on_c, 0, 60, 59
1, 1613800, Control_c, 0, 67, 115
1, 1613832, Note_off_c, 0, 60, 66
1, 1613857, Control_c, 0, 67, 111
1, 1613931, Control_c, 0, 64, 117
1, 1613947, Note_on_c, 0, 46, 72
1, 1613949, Control_c, 0, 64, 81
1, 1613950, Note_on_c, 0, 76, 74
1, 1613968, Control_c, 0, 64, 59
1, 1613987, Control_c, 0, 64, 65
1, 1614006, Control_c, 0, 64, 78
1, 1614015, Note_off_c, 0, 46, 57
1, 1614024, Control_c, 0, 64, 95
1, 1614035, Note_off_c, 0, 67, 59
1, 1614035, Poly_aftertouch_c, 0, 67, 0
1, 1614043, Control_c, 0, 64, 127
1, 1614056, Note_on_c, 0, 58, 59
1, 1614095, Note_off_c, 0, 79, 62
1, 1614122, Note_off_c, 0, 58, 50
1, 1614122, Poly_aftertouch_c, 0, 58, 0
1, 1614179, Note_on_c, 0, 64, 51
1, 1614223, Note_off_c, 0, 64, 64
1, 1614267, Note_on_c, 0, 80, 81
1, 1614288, Note_on_c, 0, 74, 63
1, 1614295, Note_on_c, 0, 68, 56
1, 1614311, Note_on_c, 0, 58, 41
1, 1614320, Note_on_c, 0, 64, 60
1, 1614352, Note_off_c, 0, 76, 37
1, 1614356, Note_off_c, 0, 64, 62
1, 1614358, Note_off_c, 0, 74, 57
1, 1614418, Note_off_c, 0, 58, 49
1, 1614418, Poly_aftertouch_c, 0, 58, 0
1, 1614457, Control_c, 0, 64, 90
1, 1614474, Control_c, 0, 64, 42
1, 1614475, Control_c, 0, 67, 119
1, 1614484, Note_on_c, 0, 74, 79
1, 1614492, Control_c, 0, 64, 0
1, 1614493, Control_c, 0, 67, 126
1, 1614504, Note_on_c, 0, 45, 59
1, 1614566, Control_c, 0, 64, 66
1, 1614576, Note_off_c, 0, 45, 60
1, 1614584, Control_c, 0, 64, 92
1, 1614600, Note_on_c, 0, 57, 56
1, 1614603, Control_c, 0, 64, 122
1, 1614622, Control_c, 0, 64, 127
1, 1614652, Note_off_c, 0, 57, 58
1, 1614718, Note_on_c, 0, 64, 50
1, 1614771, Note_off_c, 0, 64, 61
1, 1614785, Note_off_c, 0, 74, 58
1, 1614794, Note_on_c, 0, 57, 58
1, 1614820, Note_on_c, 0, 73, 77
1, 1614835, Note_off_c, 0, 68, 62
1, 1614837, Note_off_c, 0, 57, 60
1, 1614863, Note_off_c, 0, 80, 55
1, 1614894, Note_on_c, 0, 64, 53
1, 1614949, Note_off_c, 0, 64, 54
1, 1614961, Control_c, 0, 67, 122
1, 1614993, Note_on_c, 0, 57, 53
1, 1615016, Control_c, 0, 64, 114
1, 1615018, Note_on_c, 0, 76, 65
1, 1615018, Note_on_c, 0, 81, 77
1, 1615034, Control_c, 0, 64, 78
1, 1615038, Note_off_c, 0, 57, 62
1, 1615041, Note_on_c, 0, 69, 56
1, 1615054, Control_c, 0, 64, 63
1, 1615069, Note_on_c, 0, 64, 57
1, 1615072, Control_c, 0, 64, 74
1, 1615091, Control_c, 0, 64, 90
1, 1615109, Control_c, 0, 64, 115
1, 1615127, Note_off_c, 0, 64, 56
1, 1615128, Control_c, 0, 64, 127
1, 1615174, Note_off_c, 0, 69, 50
1, 1615174, Poly_aftertouch_c, 0, 69, 0
1, 1615177, Note_off_c, 0, 76, 63
1, 1615177, Note_on_c, 0, 57, 49
1, 1615181, Note_off_c, 0, 81, 64
1, 1615184, Note_off_c, 0, 73, 32
1, 1615184, Poly_aftertouch_c, 0, 73, 0
1, 1615208, Note_off_c, 0, 57, 58
1, 1615240, Control_c, 0, 67, 126
1, 1615258, Note_on_c, 0, 64, 59
1, 1615311, Note_off_c, 0, 64, 61
1, 1615332, Note_on_c, 0, 57, 49
1, 1615372, Note_off_c, 0, 57, 62
1, 1615501, Control_c, 0, 64, 108
1, 1615514, Note_on_c, 0, 73, 80
1, 1615520, Control_c, 0, 64, 78
1, 1615540, Control_c, 0, 64, 39
1, 1615558, Control_c, 0, 64, 0
1, 1615561, Note_on_c, 0, 64, 46
1, 1615569, Note_on_c, 0, 45, 48
1, 1615615, Control_c, 0, 64, 32
1, 1615632, Control_c, 0, 64, 57
1, 1615652, Control_c, 0, 64, 80
1, 1615669, Control_c, 0, 64, 100
1, 1615674, Note_on_c, 0, 52, 48
1, 1615689, Control_c, 0, 64, 126
1, 1615729, Note_off_c, 0, 52, 59
1, 1615855, Note_on_c, 0, 52, 47
1, 1615857, Note_off_c, 0, 45, 24
1, 1615927, Note_off_c, 0, 52, 56
1, 1615932, Note_on_c, 0, 57, 36
1, 1615968, Control_c, 0, 67, 121
1, 1615973, Note_off_c, 0, 57, 52
1, 1616051, Note_on_c, 0, 45, 59
1, 1616054, Note_on_c, 0, 63, 67
1, 1616062, Control_c, 0, 64, 120
1, 1616082, Control_c, 0, 64, 85
1, 1616100, Control_c, 0, 64, 46
1, 1616119, Control_c, 0, 64, 0
1, 1616120, Control_c, 0, 67, 126
1, 1616157, Control_c, 0, 64, 16
1, 1616174, Control_c, 0, 64, 49
1, 1616193, Control_c, 0, 64, 69
1, 1616198, Note_on_c, 0, 53, 47
1, 1616206, Note_off_c, 0, 64, 53
1, 1616212, Control_c, 0, 64, 86
1, 1616231, Control_c, 0, 64, 106
1, 1616249, Control_c, 0, 64, 125
1, 1616321, Note_off_c, 0, 53, 50
1, 1616321, Poly_aftertouch_c, 0, 53, 0
1, 1616340, Note_on_c, 0, 57, 32
1, 1616380, Control_c, 0, 67, 122
1, 1616433, Note_off_c, 0, 45, 49
1, 1616446, Note_on_c, 0, 53, 33
1, 1616454, Control_c, 0, 67, 118
1, 1616484, Note_off_c, 0, 63, 58
1, 1616508, Note_off_c, 0, 53, 57
1, 1616508, Note_off_c, 0, 57, 43
1, 1616508, Poly_aftertouch_c, 0, 53, 0
1, 1616511, Control_c, 0, 67, 114
1, 1616582, Note_on_c, 0, 62, 57
1, 1616587, Control_c, 0, 64, 120
1, 1616596, Note_on_c, 0, 46, 53
1, 1616605, Control_c, 0, 64, 98
1, 1616625, Control_c, 0, 64, 70
1, 1616641, Control_c, 0, 64, 33
1, 1616661, Control_c, 0, 64, 0
1, 1616735, Control_c, 0, 64, 23
1, 1616741, Note_on_c, 0, 53, 42
1, 1616754, Control_c, 0, 64, 47
1, 1616774, Control_c, 0, 64, 68
1, 1616791, Control_c, 0, 64, 82
1, 1616811, Control_c, 0, 64, 97
1, 1616814, Control_c, 0, 67, 109
1, 1616818, Note_off_c, 0, 53, 60
1, 1616818, Poly_aftertouch_c, 0, 53, 0
1, 1616830, Control_c, 0, 64, 116
1, 1616835, Note_on_c, 0, 58, 49
1, 1616848, Control_c, 0, 64, 127
1, 1616849, Control_c, 0, 67, 103
1, 1616904, Control_c, 0, 64, 103
1, 1616906, Note_off_c, 0, 58, 49
1, 1616906, Poly_aftertouch_c, 0, 58, 0
1, 1616916, Note_off_c, 0, 73, 59
1, 1616916, Poly_aftertouch_c, 0, 73, 0
1, 1616921, Note_on_c, 0, 74, 67
1, 1616923, Control_c, 0, 64, 80
1, 1616942, Control_c, 0, 64, 70
1, 1616958, Note_on_c, 0, 53, 47
1, 1616960, Control_c, 0, 64, 77
1, 1616978, Control_c, 0, 64, 90
1, 1616997, Control_c, 0, 64, 108
1, 1617002, Note_off_c, 0, 53, 59
1, 1617002, Poly_aftertouch_c, 0, 53, 0
1, 1617016, Control_c, 0, 64, 127
1, 1617043, Note_on_c, 0, 58, 44
1, 1617095, Note_off_c, 0, 74, 64
1, 1617097, Note_off_c, 0, 58, 47
1, 1617097, Poly_aftertouch_c, 0, 58, 0
1, 1617110, Control_c, 0, 64, 100
1, 1617113, Note_on_c, 0, 76, 74
1, 1617114, Note_on_c, 0, 53, 59
1, 1617128, Control_c, 0, 64, 80
1, 1617149, Control_c, 0, 64, 78
1, 1617166, Note_off_c, 0, 53, 59
1, 1617166, Poly_aftertouch_c, 0, 53, 0
1, 1617166, Control_c, 0, 64, 90
1, 1617184, Control_c, 0, 64, 107
1, 1617203, Control_c, 0, 64, 126
1, 1617240, Note_on_c, 0, 58, 33
1, 1617300, Note_off_c, 0, 58, 46
1, 1617300, Poly_aftertouch_c, 0, 58, 0
1, 1617319, Note_on_c, 0, 53, 57
1, 1617325, Poly_aftertouch_c, 0, 62, 24
1, 1617385, Note_off_c, 0, 62, 36
1, 1617385, Note_off_c, 0, 53, 51
1, 1617385, Poly_aftertouch_c, 0, 53, 0
1, 1617385, Poly_aftertouch_c, 0, 62, 0
1, 1617454, Note_on_c, 0, 58, 34
1, 1617472, Note_on_c, 0, 77, 69
1, 1617480, Note_off_c, 0, 76, 55
1, 1617491, Note_off_c, 0, 46, 55
1, 1617524, Note_off_c, 0, 58, 56
1, 1617524, Poly_aftertouch_c, 0, 58, 0
1, 1617529, Poly_aftertouch_c, 0, 53, 0
1, 1617540, Control_c, 0, 67, 99
1, 1617634, Control_c, 0, 64, 122
1, 1617653, Control_c, 0, 64, 105
1, 1617670, Control_c, 0, 64, 81
1, 1617672, Note_on_c, 0, 46, 46
1, 1617679, Note_on_c, 0, 67, 57
1, 1617689, Control_c, 0, 64, 53
1, 1617691, Note_on_c, 0, 65, 47
1, 1617708, Control_c, 0, 64, 0
1, 1617749, Note_off_c, 0, 77, 28
1, 1617749, Poly_aftertouch_c, 0, 77, 0
1, 1617765, Control_c, 0, 64, 10
1, 1617782, Control_c, 0, 64, 38
1, 1617801, Control_c, 0, 64, 58
1, 1617803, Note_on_c, 0, 55, 42
1, 1617821, Control_c, 0, 64, 76
1, 1617839, Control_c, 0, 64, 92
1, 1617841, Control_c, 0, 67, 103
1, 1617857, Note_off_c, 0, 55, 60
1, 1617857, Control_c, 0, 64, 106
1, 1617869, Note_on_c, 0, 58, 48
1, 1617876, Control_c, 0, 64, 115
1, 1617895, Control_c, 0, 64, 121
1, 1617913, Control_c, 0, 64, 125
1, 1617943, Note_off_c, 0, 58, 44
1, 1617943, Poly_aftertouch_c, 0, 58, 0
1, 1617985, Note_on_c, 0, 55, 53
1, 1618034, Note_on_c, 0, 70, 64
1, 1618035, Note_off_c, 0, 55, 62
1, 1618044, Control_c, 0, 67, 107
1, 1618082, Control_c, 0, 67, 112
1, 1618090, Note_on_c, 0, 58, 19
1, 1618118, Note_off_c, 0, 67, 49
1, 1618118, Poly_aftertouch_c, 0, 67, 0
1, 1618148, Note_off_c, 0, 58, 49
1, 1618148, Poly_aftertouch_c, 0, 58, 0
1, 1618175, Note_on_c, 0, 55, 42
1, 1618176, Control_c, 0, 67, 116
1, 1618193, Control_c, 0, 67, 120
1, 1618230, Note_off_c, 0, 55, 54
1, 1618230, Note_on_c, 0, 72, 70
1, 1618232, Control_c, 0, 64, 108
1, 1618233, Control_c, 0, 67, 127
1, 1618251, Control_c, 0, 64, 83
1, 1618264, Note_on_c, 0, 58, 38
1, 1618268, Control_c, 0, 64, 63
1, 1618286, Note_off_c, 0, 70, 51
1, 1618286, Poly_aftertouch_c, 0, 70, 0
1, 1618287, Control_c, 0, 64, 58
1, 1618307, Control_c, 0, 64, 66
1, 1618314, Note_off_c, 0, 58, 53
1, 1618314, Poly_aftertouch_c, 0, 58, 0
1, 1618325, Control_c, 0, 64, 76
1, 1618344, Control_c, 0, 64, 85
1, 1618351, Note_on_c, 0, 55, 58
1, 1618363, Control_c, 0, 64, 99
1, 1618383, Control_c, 0, 64, 117
1, 1618400, Control_c, 0, 64, 127
1, 1618434, Note_off_c, 0, 55, 59
1, 1618467, Note_on_c, 0, 58, 26
1, 1618567, Note_on_c, 0, 55, 49
1, 1618567, Note_on_c, 0, 74, 68
1, 1618582, Note_off_c, 0, 58, 39
1, 1618582, Poly_aftertouch_c, 0, 58, 0
1, 1618607, Note_off_c, 0, 46, 61
1, 1618611, Note_off_c, 0, 72, 58
1, 1618628, Note_off_c, 0, 65, 38
1, 1618717, Control_c, 0, 64, 121
1, 1618737, Control_c, 0, 64, 112
1, 1618755, Control_c, 0, 64, 102
1, 1618774, Control_c, 0, 64, 93
1, 1618790, Note_on_c, 0, 64, 64
1, 1618791, Note_off_c, 0, 74, 59
1, 1618792, Control_c, 0, 64, 83
1, 1618799, Note_on_c, 0, 48, 50
1, 1618812, Control_c, 0, 64, 71
1, 1618830, Control_c, 0, 64, 60
1, 1618848, Control_c, 0, 64, 51
1, 1618868, Control_c, 0, 64, 34
1, 1618888, Control_c, 0, 64, 0
1, 1618889, Control_c, 0, 67, 123
1, 1618970, Note_off_c, 0, 55, 55
1, 1619152, Note_on_c, 0, 65, 63
1, 1619167, Control_c, 0, 67, 127
1, 1619177, Note_on_c, 0, 57, 47
1, 1619269, Note_off_c, 0, 64, 35
1, 1619386, Note_on_c, 0, 69, 60
1, 1619404, Note_on_c, 0, 60, 41
1, 1619463, Note_off_c, 0, 57, 36
1, 1619487, Note_off_c, 0, 65, 53
1, 1619876, Control_c, 0, 64, 10
1, 1619896, Control_c, 0, 64, 16
1, 1619916, Control_c, 0, 64, 23
1, 1619933, Control_c, 0, 64, 33
1, 1619952, Control_c, 0, 64, 45
1, 1619970, Control_c, 0, 64, 56
1, 1619989, Control_c, 0, 64, 64
1, 1620007, Control_c, 0, 64, 67
1, 1620045, Control_c, 0, 64, 70
1, 1620064, Control_c, 0, 64, 72
1, 1620082, Control_c, 0, 64, 75
1, 1620102, Control_c, 0, 64, 78
1, 1620120, Control_c, 0, 64, 80
1, 1620139, Control_c, 0, 64, 82
1, 1620158, Control_c, 0, 64, 84
1, 1620176, Control_c, 0, 64, 86
1, 1620232, Control_c, 0, 64, 90
1, 1620445, Note_on_c, 0, 67, 40
1, 1620464, Poly_aftertouch_c, 0, 69, 24
1, 1620468, Note_on_c, 0, 58, 35
1, 1620490, Note_off_c, 0, 60, 36
1, 1620531, Control_c, 0, 64, 88
1, 1620537, Note_off_c, 0, 69, 30
1, 1620537, Poly_aftertouch_c, 0, 69, 0
1, 1620588, Control_c, 0, 64, 85
1, 1620618, Note_off_c, 0, 58, 55
1, 1620618, Poly_aftertouch_c, 0, 58, 0
1, 1620624, Control_c, 0, 64, 83
1, 1620644, Control_c, 0, 64, 78
1, 1620658, Note_off_c, 0, 67, 51
1, 1620658, Poly_aftertouch_c, 0, 67, 0
1, 1620659, Note_on_c, 0, 55, 37
1, 1620662, Control_c, 0, 64, 73
1, 1620664, Note_on_c, 0, 64, 37
1, 1620681, Control_c, 0, 64, 68
1, 1620700, Control_c, 0, 64, 62
1, 1620719, Control_c, 0, 64, 53
1, 1620737, Control_c, 0, 64, 35
1, 1620756, Control_c, 0, 64, 0
1, 1620868, Control_c, 0, 64, 21
1, 1620886, Control_c, 0, 64, 33
1, 1620906, Control_c, 0, 64, 46
1, 1620924, Control_c, 0, 64, 59
1, 1620943, Control_c, 0, 64, 69
1, 1620961, Control_c, 0, 64, 75
1, 1620980, Control_c, 0, 64, 82
1, 1620999, Control_c, 0, 64, 89
1, 1621017, Control_c, 0, 64, 98
1, 1621036, Control_c, 0, 64, 108
1, 1621039, Note_on_c, 0, 65, 42
1, 1621041, Note_on_c, 0, 56, 44
1, 1621052, Note_off_c, 0, 55, 37
1, 1621056, Control_c, 0, 64, 117
1, 1621075, Control_c, 0, 64, 123
1, 1621083, Note_off_c, 0, 48, 36
1, 1621110, Note_off_c, 0, 64, 29
1, 1621110, Control_c, 0, 64, 127
1, 1621242, Control_c, 0, 64, 123
1, 1621276, Note_on_c, 0, 68, 44
1, 1621290, Note_on_c, 0, 48, 30
1, 1621291, Note_on_c, 0, 60, 43
1, 1621297, Control_c, 0, 64, 118
1, 1621300, Note_off_c, 0, 56, 29
1, 1621335, Control_c, 0, 64, 110
1, 1621354, Control_c, 0, 64, 104
1, 1621373, Control_c, 0, 64, 97
1, 1621375, Note_off_c, 0, 65, 36
1, 1621392, Control_c, 0, 64, 89
1, 1621409, Control_c, 0, 64, 80
1, 1621429, Control_c, 0, 64, 74
1, 1621448, Control_c, 0, 64, 69
1, 1621467, Control_c, 0, 64, 67
1, 1621485, Control_c, 0, 64, 66
1, 1621503, Control_c, 0, 64, 65
1, 1621523, Control_c, 0, 64, 63
1, 1621540, Control_c, 0, 64, 62
1, 1621560, Control_c, 0, 64, 60
1, 1621578, Control_c, 0, 64, 57
1, 1621597, Control_c, 0, 64, 53
1, 1621616, Control_c, 0, 64, 50
1, 1621634, Control_c, 0, 64, 47
1, 1621655, Control_c, 0, 64, 45
1, 1621671, Control_c, 0, 64, 43
1, 1621709, Control_c, 0, 64, 40
1, 1621934, Control_c, 0, 64, 43
1, 1621952, Control_c, 0, 64, 45
1, 1621972, Control_c, 0, 64, 49
1, 1621990, Control_c, 0, 64, 53
1, 1622009, Control_c, 0, 64, 59
1, 1622027, Control_c, 0, 64, 64
1, 1622047, Control_c, 0, 64, 67
1, 1622048, Control_c, 0, 67, 123
1, 1622066, Control_c, 0, 64, 70
1, 1622083, Control_c, 0, 64, 73
1, 1622084, Control_c, 0, 67, 117
1, 1622103, Control_c, 0, 64, 76
1, 1622121, Control_c, 0, 64, 79
1, 1622123, Control_c, 0, 67, 110
1, 1622139, Control_c, 0, 64, 82
1, 1622140, Control_c, 0, 67, 105
1, 1622159, Control_c, 0, 64, 86
1, 1622161, Control_c, 0, 67, 98
1, 1622177, Control_c, 0, 67, 91
1, 1622196, Control_c, 0, 64, 93
1, 1622196, Control_c, 0, 67, 85
1, 1622214, Control_c, 0, 67, 79
1, 1622233, Control_c, 0, 64, 101
1, 1622235, Control_c, 0, 67, 73
1, 1622252, Control_c, 0, 64, 106
1, 1622253, Control_c, 0, 67, 67
1, 1622271, Control_c, 0, 64, 111
1, 1622272, Control_c, 0, 67, 60
1, 1622287, Note_off_c, 0, 68, 36
1, 1622288, Control_c, 0, 67, 54
1, 1622308, Control_c, 0, 64, 117
1, 1622309, Control_c, 0, 67, 47
1, 1622327, Control_c, 0, 67, 41
1, 1622346, Control_c, 0, 64, 124
1, 1622348, Control_c, 0, 67, 34
1, 1622364, Control_c, 0, 67, 27
1, 1622379, Poly_aftertouch_c, 0, 48, 24
1, 1622382, Control_c, 0, 67, 19
1, 1622401, Control_c, 0, 67, 12
1, 1622433, Note_off_c, 0, 48, 37
1, 1622433, Poly_aftertouch_c, 0, 48, 0
1, 1622463, Note_on_c, 0, 67, 43
1, 1622475, Note_on_c, 0, 58, 36
1, 1622488, Note_off_c, 0, 60, 36
1, 1622513, Control_c, 0, 67, 0
1, 1622536, Note_off_c, 0, 67, 54
1, 1622536, Poly_aftertouch_c, 0, 67, 0
1, 1622556, Note_off_c, 0, 58, 52
1, 1622556, Poly_aftertouch_c, 0, 58, 0
1, 1622763, Note_on_c, 0, 75, 66
1, 1622822, Note_on_c, 0, 58, 34
1, 1622827, Note_on_c, 0, 67, 36
1, 1622834, Note_on_c, 0, 51, 32
1, 1622925, Control_c, 0, 64, 120
1, 1622943, Control_c, 0, 64, 115
1, 1622962, Control_c, 0, 64, 111
1, 1622981, Control_c, 0, 64, 107
1, 1623018, Control_c, 0, 64, 99
1, 1623037, Control_c, 0, 64, 95
1, 1623056, Control_c, 0, 64, 89
1, 1623075, Control_c, 0, 64, 84
1, 1623093, Control_c, 0, 64, 79
1, 1623132, Control_c, 0, 64, 77
1, 1623167, Control_c, 0, 64, 75
1, 1623172, Note_on_c, 0, 68, 67
1, 1623179, Note_off_c, 0, 58, 48
1, 1623179, Poly_aftertouch_c, 0, 58, 0
1, 1623206, Control_c, 0, 64, 72
1, 1623217, Note_on_c, 0, 60, 37
1, 1623224, Control_c, 0, 64, 70
1, 1623235, Note_off_c, 0, 67, 51
1, 1623235, Poly_aftertouch_c, 0, 67, 0
1, 1623262, Control_c, 0, 64, 67
1, 1623280, Control_c, 0, 64, 66
1, 1623299, Control_c, 0, 64, 64
1, 1623317, Control_c, 0, 64, 62
1, 1623336, Control_c, 0, 64, 60
1, 1623411, Control_c, 0, 64, 57
1, 1623447, Control_c, 0, 64, 52
1, 1623454, Note_on_c, 0, 72, 57
1, 1623467, Control_c, 0, 64, 50
1, 1623503, Note_on_c, 0, 63, 30
1, 1623503, Control_c, 0, 64, 48
1, 1623523, Control_c, 0, 64, 46
1, 1623543, Control_c, 0, 64, 43
1, 1623560, Control_c, 0, 64, 40
1, 1623597, Note_off_c, 0, 60, 30
1, 1623616, Control_c, 0, 64, 36
1, 1623631, Note_off_c, 0, 68, 57
1, 1623654, Control_c, 0, 64, 31
1, 1623673, Control_c, 0, 64, 27
1, 1623710, Control_c, 0, 64, 23
1, 1623766, Control_c, 0, 64, 16
1, 1623785, Control_c, 0, 64, 11
1, 1623821, Control_c, 0, 64, 0
1, 1624084, Control_c, 0, 64, 8
1, 1624103, Control_c, 0, 64, 13
1, 1624121, Control_c, 0, 64, 17
1, 1624158, Control_c, 0, 64, 22
1, 1624197, Control_c, 0, 64, 28
1, 1624216, Control_c, 0, 64, 33
1, 1624233, Control_c, 0, 64, 40
1, 1624254, Control_c, 0, 64, 46
1, 1624271, Control_c, 0, 64, 52
1, 1624290, Control_c, 0, 64, 58
1, 1624309, Control_c, 0, 64, 63
1, 1624328, Control_c, 0, 64, 66
1, 1624347, Control_c, 0, 64, 69
1, 1624364, Control_c, 0, 64, 72
1, 1624384, Control_c, 0, 64, 74
1, 1624402, Control_c, 0, 64, 78
1, 1624421, Control_c, 0, 64, 81
1, 1624439, Control_c, 0, 64, 83
1, 1624459, Control_c, 0, 64, 87
1, 1624495, Control_c, 0, 64, 94
1, 1624523, Note_on_c, 0, 70, 49
1, 1624532, Control_c, 0, 64, 99
1, 1624557, Note_on_c, 0, 61, 36
1, 1624570, Control_c, 0, 64, 103
1, 1624586, Note_off_c, 0, 63, 40
1, 1624611, Note_off_c, 0, 72, 57
1, 1624627, Control_c, 0, 64, 108
1, 1624632, Note_off_c, 0, 75, 53
1, 1624754, Note_on_c, 0, 75, 76
1, 1624787, Note_on_c, 0, 58, 41
1, 1624794, Note_on_c, 0, 67, 43
1, 1624796, Note_off_c, 0, 61, 42
1, 1624832, Control_c, 0, 64, 100
1, 1624835, Note_off_c, 0, 70, 55
1, 1624835, Poly_aftertouch_c, 0, 70, 0
1, 1624850, Control_c, 0, 64, 92
1, 1624870, Control_c, 0, 64, 79
1, 1624889, Control_c, 0, 64, 66
1, 1624906, Control_c, 0, 64, 58
1, 1624944, Control_c, 0, 64, 64
1, 1624963, Control_c, 0, 64, 68
1, 1624981, Control_c, 0, 64, 72
1, 1625001, Control_c, 0, 64, 78
1, 1625019, Control_c, 0, 64, 86
1, 1625038, Control_c, 0, 64, 97
1, 1625056, Control_c, 0, 64, 106
1, 1625076, Control_c, 0, 64, 113
1, 1625094, Note_on_c, 0, 68, 72
1, 1625094, Control_c, 0, 64, 118
1, 1625115, Note_on_c, 0, 60, 45
1, 1625163, Note_off_c, 0, 51, 35
1, 1625196, Note_off_c, 0, 67, 35
1, 1625196, Poly_aftertouch_c, 0, 67, 0
1, 1625240, Note_off_c, 0, 58, 25
1, 1625240, Poly_aftertouch_c, 0, 58, 0
1, 1625393, Control_c, 0, 64, 113
1, 1625444, Note_on_c, 0, 73, 60
1, 1625450, Control_c, 0, 64, 109
1, 1625480, Note_on_c, 0, 51, 43
1, 1625486, Note_on_c, 0, 65, 40
1, 1625486, Control_c, 0, 64, 105
1, 1625488, Note_off_c, 0, 60, 33
1, 1625524, Control_c, 0, 64, 97
1, 1625543, Control_c, 0, 64, 93
1, 1625562, Control_c, 0, 64, 88
1, 1625580, Control_c, 0, 64, 82
1, 1625599, Control_c, 0, 64, 76
1, 1625618, Control_c, 0, 64, 69
1, 1625635, Control_c, 0, 64, 65
1, 1625655, Control_c, 0, 64, 61
1, 1625673, Control_c, 0, 64, 58
1, 1625693, Control_c, 0, 64, 50
1, 1625710, Control_c, 0, 64, 31
1, 1625730, Control_c, 0, 64, 0
1, 1625841, Control_c, 0, 64, 11
1, 1625861, Control_c, 0, 64, 28
1, 1625879, Control_c, 0, 64, 42
1, 1625898, Control_c, 0, 64, 54
1, 1625917, Control_c, 0, 64, 65
1, 1625935, Control_c, 0, 64, 74
1, 1625955, Control_c, 0, 64, 81
1, 1625973, Control_c, 0, 64, 88
1, 1625992, Control_c, 0, 64, 95
1, 1626010, Control_c, 0, 64, 103
1, 1626029, Control_c, 0, 64, 111
1, 1626048, Control_c, 0, 64, 118
1, 1626053, Note_off_c, 0, 65, 40
1, 1626066, Control_c, 0, 64, 122
1, 1626105, Control_c, 0, 64, 126
1, 1626120, Note_off_c, 0, 73, 36
1, 1626120, Poly_aftertouch_c, 0, 73, 0
1, 1626677, Note_on_c, 0, 72, 45
1, 1626688, Note_on_c, 0, 67, 34
1, 1626703, Note_on_c, 0, 63, 37
1, 1626740, Control_c, 0, 64, 120
1, 1626759, Control_c, 0, 64, 116
1, 1626762, Note_off_c, 0, 68, 33
1, 1626776, Control_c, 0, 64, 107
1, 1626796, Control_c, 0, 64, 92
1, 1626814, Control_c, 0, 64, 72
1, 1626833, Control_c, 0, 64, 54
1, 1626851, Control_c, 0, 64, 40
1, 1626889, Control_c, 0, 64, 47
1, 1626908, Control_c, 0, 64, 57
1, 1626926, Control_c, 0, 64, 69
1, 1626945, Control_c, 0, 64, 81
1, 1626965, Control_c, 0, 64, 94
1, 1626981, Note_off_c, 0, 72, 56
1, 1626981, Control_c, 0, 64, 108
1, 1627001, Control_c, 0, 64, 119
1, 1627017, Note_off_c, 0, 67, 41
1, 1627017, Poly_aftertouch_c, 0, 67, 0
1, 1627020, Control_c, 0, 64, 126
1, 1627021, Note_off_c, 0, 63, 37
1, 1627364, Note_on_c, 0, 70, 39
1, 1627375, Control_c, 0, 64, 121
1, 1627390, Note_on_c, 0, 65, 25
1, 1627393, Control_c, 0, 64, 115
1, 1627412, Control_c, 0, 64, 107
1, 1627424, Note_on_c, 0, 61, 26
1, 1627430, Control_c, 0, 64, 95
1, 1627450, Control_c, 0, 64, 76
1, 1627469, Control_c, 0, 64, 56
1, 1627488, Control_c, 0, 64, 33
1, 1627506, Control_c, 0, 64, 10
1, 1627508, Control_c, 0, 67, 8
1, 1627544, Control_c, 0, 64, 31
1, 1627546, Control_c, 0, 67, 14
1, 1627563, Control_c, 0, 64, 47
1, 1627564, Control_c, 0, 67, 19
1, 1627581, Control_c, 0, 64, 64
1, 1627582, Control_c, 0, 67, 27
1, 1627600, Control_c, 0, 64, 81
1, 1627602, Control_c, 0, 67, 37
1, 1627619, Control_c, 0, 64, 95
1, 1627622, Control_c, 0, 67, 49
1, 1627637, Control_c, 0, 64, 110
1, 1627638, Control_c, 0, 67, 60
1, 1627641, Note_off_c, 0, 61, 53
1, 1627656, Control_c, 0, 64, 121
1, 1627657, Control_c, 0, 67, 71
1, 1627666, Note_off_c, 0, 51, 55
1, 1627675, Control_c, 0, 64, 127
1, 1627676, Control_c, 0, 67, 79
1, 1627693, Control_c, 0, 67, 84
1, 1627730, Control_c, 0, 67, 89
1, 1627732, Note_off_c, 0, 65, 42
1, 1627745, Note_off_c, 0, 70, 38
1, 1627745, Poly_aftertouch_c, 0, 70, 0
1, 1627829, Note_off_c, 0, 75, 32
1, 1628179, Note_on_c, 0, 48, 34
1, 1628229, Note_on_c, 0, 55, 40
1, 1628236, Note_on_c, 0, 64, 43
1, 1628273, Control_c, 0, 64, 120
1, 1628274, Control_c, 0, 67, 85
1, 1628287, Note_on_c, 0, 70, 54
1, 1628291, Control_c, 0, 64, 95
1, 1628311, Control_c, 0, 64, 62
1, 1628313, Control_c, 0, 67, 77
1, 1628317, Note_on_c, 0, 60, 36
1, 1628328, Note_on_c, 0, 76, 65
1, 1628328, Control_c, 0, 64, 0
1, 1628591, Control_c, 0, 64, 31
1, 1628594, Note_off_c, 0, 60, 58
1, 1628609, Control_c, 0, 64, 47
1, 1628621, Note_off_c, 0, 55, 59
1, 1628629, Control_c, 0, 64, 62
1, 1628647, Control_c, 0, 64, 73
1, 1628665, Control_c, 0, 64, 82
1, 1628674, Note_off_c, 0, 48, 55
1, 1628674, Poly_aftertouch_c, 0, 48, 0
1, 1628685, Control_c, 0, 64, 90
1, 1628704, Control_c, 0, 64, 99
1, 1628721, Control_c, 0, 64, 110
1, 1628741, Control_c, 0, 64, 119
1, 1628759, Control_c, 0, 64, 127
1, 1628868, Note_off_c, 0, 64, 40
1, 1628914, Note_off_c, 0, 70, 54
1, 1628914, Poly_aftertouch_c, 0, 70, 0
1, 1628981, Note_off_c, 0, 76, 58
1, 1629207, Control_c, 0, 67, 70
1, 1629227, Control_c, 0, 67, 61
1, 1629245, Control_c, 0, 67, 53
1, 1629263, Control_c, 0, 64, 123
1, 1629282, Control_c, 0, 64, 83
1, 1629302, Control_c, 0, 64, 30
1, 1629320, Control_c, 0, 64, 0
1, 1629580, Note_on_c, 0, 83, 58
1, 1629631, Note_off_c, 0, 83, 59
1, 1629656, Control_c, 0, 67, 60
1, 1629659, Note_on_c, 0, 84, 70
1, 1629675, Control_c, 0, 67, 69
1, 1629694, Control_c, 0, 67, 79
1, 1629712, Control_c, 0, 67, 85
1, 1629738, Note_off_c, 0, 84, 62
1, 1629740, Note_on_c, 0, 85, 76
1, 1629804, Note_off_c, 0, 85, 65
1, 1629821, Note_on_c, 0, 84, 76
1, 1629823, Control_c, 0, 67, 90
1, 1629872, Note_off_c, 0, 84, 64
1, 1629906, Note_on_c, 0, 82, 79
1, 1629956, Control_c, 0, 67, 94
1, 1629974, Note_on_c, 0, 79, 74
1, 1629975, Note_off_c, 0, 82, 65
1, 1630036, Note_off_c, 0, 79, 63
1, 1630075, Note_on_c, 0, 76, 72
1, 1630108, Note_off_c, 0, 76, 64
1, 1630141, Control_c, 0, 67, 90
1, 1630145, Note_on_c, 0, 73, 80
1, 1630161, Control_c, 0, 67, 77
1, 1630180, Control_c, 0, 67, 44
1, 1630198, Control_c, 0, 67, 0
1, 1630202, Note_off_c, 0, 73, 65
1, 1630202, Poly_aftertouch_c, 0, 73, 0
1, 1630217, Note_on_c, 0, 72, 87
1, 1630218, Note_on_c, 0, 36, 75
1, 1630219, Note_on_c, 0, 48, 79
1, 1630253, Note_off_c, 0, 72, 65
1, 1630256, Note_off_c, 0, 48, 69
1, 1630256, Poly_aftertouch_c, 0, 48, 0
1, 1630260, Note_off_c, 0, 36, 68
1, 1630570, Note_on_c, 0, 48, 70
1, 1630572, Note_on_c, 0, 36, 74
1, 1630603, Note_off_c, 0, 36, 65
1, 1630608, Note_off_c, 0, 48, 65
1, 1630608, Poly_aftertouch_c, 0, 48, 0
1, 1630789, Note_on_c, 0, 37, 90
1, 1630790, Note_on_c, 0, 49, 89
1, 1630817, Note_off_c, 0, 49, 71
1, 1630817, Poly_aftertouch_c, 0, 49, 0
1, 1630821, Note_off_c, 0, 37, 69
1, 1631395, Control_c, 0, 67, 14
1, 1631414, Control_c, 0, 67, 25
1, 1631432, Control_c, 0, 67, 40
1, 1631452, Control_c, 0, 67, 56
1, 1631470, Control_c, 0, 67, 68
1, 1631489, Control_c, 0, 67, 77
1, 1631508, Control_c, 0, 67, 84
1, 1631526, Control_c, 0, 67, 89
1, 1631546, Control_c, 0, 67, 94
1, 1631563, Control_c, 0, 67, 100
1, 1631575, Note_on_c, 0, 71, 50
1, 1631583, Control_c, 0, 67, 107
1, 1631602, Control_c, 0, 67, 114
1, 1631610, Note_off_c, 0, 71, 56
1, 1631619, Control_c, 0, 67, 119
1, 1631655, Note_on_c, 0, 72, 53
1, 1631657, Control_c, 0, 67, 125
1, 1631695, Note_off_c, 0, 72, 63
1, 1631713, Note_on_c, 0, 73, 66
1, 1631776, Note_off_c, 0, 73, 63
1, 1631776, Poly_aftertouch_c, 0, 73, 0
1, 1631794, Note_on_c, 0, 72, 70
1, 1631837, Note_off_c, 0, 72, 57
1, 1631878, Note_on_c, 0, 70, 69
1, 1631933, Note_off_c, 0, 70, 62
1, 1631933, Poly_aftertouch_c, 0, 70, 0
1, 1631946, Note_on_c, 0, 67, 72
1, 1631992, Note_off_c, 0, 67, 62
1, 1631992, Poly_aftertouch_c, 0, 67, 0
1, 1632028, Note_on_c, 0, 64, 72
1, 1632065, Note_off_c, 0, 64, 64
1, 1632106, Note_on_c, 0, 61, 80
1, 1632161, Control_c, 0, 67, 112
1, 1632169, Note_off_c, 0, 61, 60
1, 1632181, Control_c, 0, 67, 89
1, 1632182, Note_on_c, 0, 60, 78
1, 1632186, Note_on_c, 0, 48, 66
1, 1632192, Note_on_c, 0, 36, 59
1, 1632200, Control_c, 0, 67, 48
1, 1632211, Note_off_c, 0, 60, 70
1, 1632217, Control_c, 0, 67, 0
1, 1632219, Note_off_c, 0, 48, 65
1, 1632219, Poly_aftertouch_c, 0, 48, 0
1, 1632230, Note_off_c, 0, 36, 62
1, 1632559, Note_on_c, 0, 36, 52
1, 1632571, Note_on_c, 0, 48, 34
1, 1632572, Note_off_c, 0, 48, 127
1, 1632572, Poly_aftertouch_c, 0, 48, 0
1, 1632596, Note_off_c, 0, 36, 51
1, 1632762, Note_on_c, 0, 49, 72
1, 1632763, Note_on_c, 0, 37, 68
1, 1632798, Note_off_c, 0, 49, 63
1, 1632798, Poly_aftertouch_c, 0, 49, 0
1, 1632800, Note_off_c, 0, 37, 62
1, 1633128, Note_on_c, 0, 37, 45
1, 1633130, Note_on_c, 0, 49, 41
1, 1633131, Note_off_c, 0, 49, 127
1, 1633131, Poly_aftertouch_c, 0, 49, 0
1, 1633180, Note_off_c, 0, 37, 34
1, 1633297, Note_on_c, 0, 56, 69
1, 1633300, Note_on_c, 0, 51, 64
1, 1633301, Note_on_c, 0, 60, 62
1, 1633305, Note_on_c, 0, 44, 74
1, 1633314, Note_on_c, 0, 32, 69
1, 1633332, Note_off_c, 0, 56, 66
1, 1633337, Note_off_c, 0, 51, 63
1, 1633337, Note_off_c, 0, 44, 66
1, 1633337, Note_off_c, 0, 60, 66
1, 1633350, Note_off_c, 0, 32, 60
1, 1633646, Note_on_c, 0, 51, 62
1, 1633646, Note_on_c, 0, 32, 68
1, 1633647, Note_on_c, 0, 56, 65
1, 1633649, Note_on_c, 0, 60, 58
1, 1633652, Note_on_c, 0, 44, 62
1, 1633683, Note_off_c, 0, 51, 65
1, 1633686, Note_off_c, 0, 56, 63
1, 1633688, Note_off_c, 0, 32, 63
1, 1633689, Note_off_c, 0, 60, 65
1, 1633691, Note_off_c, 0, 44, 63
1, 1633840, Note_on_c, 0, 53, 77
1, 1633846, Note_on_c, 0, 56, 69
1, 1633848, Note_on_c, 0, 61, 68
1, 1633848, Note_on_c, 0, 49, 78
1, 1633849, Note_on_c, 0, 37, 79
1, 1633872, Note_off_c, 0, 61, 63
1, 1633875, Note_off_c, 0, 53, 67
1, 1633880, Note_off_c, 0, 49, 66
1, 1633880, Note_off_c, 0, 56, 68
1, 1633880, Poly_aftertouch_c, 0, 49, 0
1, 1633882, Note_off_c, 0, 37, 65
1, 1634192, Note_on_c, 0, 56, 59
1, 1634196, Note_on_c, 0, 61, 58
1, 1634200, Note_on_c, 0, 53, 54
1, 1634210, Note_on_c, 0, 37, 54
1, 1634211, Note_on_c, 0, 49, 59
1, 1634233, Note_off_c, 0, 56, 65
1, 1634233, Note_off_c, 0, 53, 59
1, 1634235, Note_off_c, 0, 61, 66
1, 1634237, Control_c, 0, 67, 8
1, 1634249, Note_off_c, 0, 49, 60
1, 1634249, Poly_aftertouch_c, 0, 49, 0
1, 1634257, Note_off_c, 0, 37, 63
1, 1634275, Control_c, 0, 67, 16
1, 1634294, Control_c, 0, 67, 22
1, 1634312, Control_c, 0, 67, 29
1, 1634331, Control_c, 0, 67, 35
1, 1634367, Control_c, 0, 67, 40
1, 1634403, Note_on_c, 0, 48, 62
1, 1634408, Note_on_c, 0, 36, 64
1, 1634437, Note_off_c, 0, 48, 63
1, 1634437, Poly_aftertouch_c, 0, 48, 0
1, 1634444, Note_off_c, 0, 36, 63
1, 1634770, Note_on_c, 0, 48, 58
1, 1634778, Note_on_c, 0, 36, 50
1, 1634810, Note_off_c, 0, 48, 64
1, 1634810, Poly_aftertouch_c, 0, 48, 0
1, 1634816, Note_off_c, 0, 36, 57
1, 1634969, Note_on_c, 0, 49, 66
1, 1634972, Note_on_c, 0, 37, 68
1, 1634985, Control_c, 0, 67, 45
1, 1635000, Note_off_c, 0, 49, 63
1, 1635000, Poly_aftertouch_c, 0, 49, 0
1, 1635004, Control_c, 0, 67, 50
1, 1635006, Note_off_c, 0, 37, 64
1, 1635023, Control_c, 0, 67, 57
1, 1635042, Control_c, 0, 67, 63
1, 1635061, Control_c, 0, 67, 68
1, 1635116, Control_c, 0, 67, 72
1, 1635155, Control_c, 0, 67, 79
1, 1635172, Control_c, 0, 67, 84
1, 1635191, Control_c, 0, 67, 90
1, 1635211, Control_c, 0, 67, 95
1, 1635229, Control_c, 0, 67, 101
1, 1635248, Control_c, 0, 67, 106
1, 1635285, Control_c, 0, 67, 111
1, 1635312, Note_on_c, 0, 49, 57
1, 1635315, Note_on_c, 0, 37, 57
1, 1635350, Note_off_c, 0, 49, 61
1, 1635350, Poly_aftertouch_c, 0, 49, 0
1, 1635352, Note_off_c, 0, 37, 62
1, 1635396, Control_c, 0, 67, 107
1, 1635434, Control_c, 0, 67, 102
1, 1635510, Control_c, 0, 67, 114
1, 1635514, Note_on_c, 0, 60, 60
1, 1635514, Note_on_c, 0, 44, 65
1, 1635516, Note_on_c, 0, 32, 70
1, 1635519, Note_on_c, 0, 51, 54
1, 1635522, Note_on_c, 0, 56, 53
1, 1635529, Control_c, 0, 67, 127
1, 1635543, Note_off_c, 0, 32, 64
1, 1635549, Note_off_c, 0, 51, 58
1, 1635549, Note_off_c, 0, 44, 64
1, 1635550, Note_off_c, 0, 60, 66
1, 1635552, Note_off_c, 0, 56, 62
1, 1635857, Note_on_c, 0, 51, 58
1, 1635859, Note_on_c, 0, 32, 69
1, 1635860, Note_on_c, 0, 60, 57
1, 1635861, Note_on_c, 0, 56, 59
1, 1635875, Note_on_c, 0, 44, 54
1, 1635897, Note_off_c, 0, 32, 63
1, 1635900, Note_off_c, 0, 51, 62
1, 1635904, Note_off_c, 0, 56, 63
1, 1635905, Note_off_c, 0, 60, 64
1, 1635911, Note_off_c, 0, 44, 61
1, 1636074, Note_on_c, 0, 61, 61
1, 1636090, Note_on_c, 0, 37, 66
1, 1636093, Note_on_c, 0, 49, 67
1, 1636095, Note_on_c, 0, 53, 24
1, 1636107, Note_off_c, 0, 61, 65
1, 1636134, Poly_aftertouch_c, 0, 56, 0
1, 1636142, Note_off_c, 0, 37, 63
1, 1636143, Note_off_c, 0, 53, 34
1, 1636221, Control_c, 0, 67, 123
1, 1636418, Note_on_c, 0, 85, 66
1, 1636457, Note_off_c, 0, 85, 61
1, 1636519, Control_c, 0, 67, 118
1, 1636556, Control_c, 0, 67, 114
1, 1636616, Note_on_c, 0, 73, 45
1, 1636649, Control_c, 0, 64, 18
1, 1636669, Control_c, 0, 64, 41
1, 1636675, Note_on_c, 0, 82, 58
1, 1636677, Note_on_c, 0, 78, 46
1, 1636677, Note_on_c, 0, 87, 71
1, 1636687, Control_c, 0, 64, 58
1, 1636700, Note_on_c, 0, 37, 45
1, 1636705, Control_c, 0, 64, 72
1, 1636718, Note_off_c, 0, 73, 53
1, 1636718, Poly_aftertouch_c, 0, 73, 0
1, 1636723, Control_c, 0, 64, 83
1, 1636725, Note_off_c, 0, 78, 59
1, 1636730, Note_off_c, 0, 82, 55
1, 1636744, Control_c, 0, 64, 97
1, 1636758, Note_off_c, 0, 37, 55
1, 1636762, Control_c, 0, 64, 113
1, 1636776, Note_off_c, 0, 87, 52
1, 1636779, Control_c, 0, 64, 127
1, 1636975, Note_on_c, 0, 73, 54
1, 1637004, Note_on_c, 0, 82, 60
1, 1637020, Note_off_c, 0, 73, 65
1, 1637020, Poly_aftertouch_c, 0, 73, 0
1, 1637025, Note_on_c, 0, 87, 73
1, 1637040, Note_on_c, 0, 78, 10
1, 1637043, Note_off_c, 0, 82, 63
1, 1637059, Note_off_c, 0, 87, 62
1, 1637118, Note_off_c, 0, 78, 38
1, 1637225, Note_on_c, 0, 75, 57
1, 1637246, Note_on_c, 0, 82, 66
1, 1637251, Note_on_c, 0, 37, 48
1, 1637255, Note_off_c, 0, 75, 57
1, 1637255, Note_on_c, 0, 85, 63
1, 1637259, Note_on_c, 0, 90, 79
1, 1637278, Note_off_c, 0, 82, 66
1, 1637288, Note_off_c, 0, 85, 68
1, 1637298, Note_off_c, 0, 37, 59
1, 1637314, Note_off_c, 0, 90, 62
1, 1637553, Note_on_c, 0, 75, 55
1, 1637563, Note_on_c, 0, 82, 60
1, 1637571, Note_on_c, 0, 85, 64
1, 1637575, Note_on_c, 0, 90, 66
1, 1637590, Note_off_c, 0, 75, 67
1, 1637590, Note_off_c, 0, 82, 65
1, 1637611, Note_off_c, 0, 85, 62
1, 1637612, Note_off_c, 0, 90, 64
1, 1637754, Control_c, 0, 64, 104
1, 1637756, Control_c, 0, 67, 118
1, 1637772, Control_c, 0, 64, 60
1, 1637773, Control_c, 0, 67, 125
1, 1637787, Note_on_c, 0, 77, 67
1, 1637788, Note_on_c, 0, 85, 76
1, 1637790, Control_c, 0, 64, 0
1, 1637792, Note_on_c, 0, 37, 52
1, 1637817, Note_off_c, 0, 77, 69
1, 1637817, Poly_aftertouch_c, 0, 77, 0
1, 1637819, Note_off_c, 0, 85, 61
1, 1637833, Note_off_c, 0, 37, 60
1, 1638053, Note_on_c, 0, 80, 56
1, 1638061, Note_on_c, 0, 87, 60
1, 1638075, Note_off_c, 0, 80, 64
1, 1638120, Note_on_c, 0, 89, 74
1, 1638124, Note_off_c, 0, 87, 62
1, 1638129, Note_on_c, 0, 85, 66
1, 1638143, Note_off_c, 0, 89, 71
1, 1638143, Poly_aftertouch_c, 0, 89, 0
1, 1638150, Note_off_c, 0, 85, 67
1, 1638320, Note_on_c, 0, 37, 44
1, 1638358, Note_off_c, 0, 37, 54
1, 1638558, Control_c, 0, 64, 16
1, 1638576, Control_c, 0, 64, 30
1, 1638593, Control_c, 0, 64, 40
1, 1638613, Control_c, 0, 64, 51
1, 1638633, Control_c, 0, 64, 60
1, 1638645, Note_on_c, 0, 85, 56
1, 1638651, Control_c, 0, 64, 68
1, 1638669, Control_c, 0, 64, 73
1, 1638688, Note_off_c, 0, 85, 63
1, 1638688, Control_c, 0, 64, 76
1, 1638707, Control_c, 0, 64, 79
1, 1638715, Note_off_c, 0, 49, 52
1, 1638715, Poly_aftertouch_c, 0, 49, 0
1, 1638723, Control_c, 0, 64, 84
1, 1638743, Control_c, 0, 64, 89
1, 1638763, Control_c, 0, 64, 96
1, 1638782, Control_c, 0, 64, 103
1, 1638800, Control_c, 0, 64, 109
1, 1638819, Control_c, 0, 64, 115
1, 1638826, Note_on_c, 0, 73, 50
1, 1638839, Control_c, 0, 64, 121
1, 1638856, Control_c, 0, 64, 127
1, 1638858, Note_on_c, 0, 78, 61
1, 1638869, Note_on_c, 0, 82, 64
1, 1638879, Note_on_c, 0, 87, 73
1, 1638892, Note_off_c, 0, 73, 60
1, 1638892, Poly_aftertouch_c, 0, 73, 0
1, 1638900, Note_on_c, 0, 49, 41
1, 1638904, Note_on_c, 0, 37, 38
1, 1638906, Note_off_c, 0, 78, 57
1, 1638911, Note_off_c, 0, 82, 58
1, 1638936, Note_off_c, 0, 87, 58
1, 1639005, Note_off_c, 0, 37, 51
1, 1639179, Note_on_c, 0, 73, 41
1, 1639203, Note_on_c, 0, 82, 61
1, 1639206, Note_on_c, 0, 87, 66
1, 1639211, Note_off_c, 0, 73, 59
1, 1639211, Poly_aftertouch_c, 0, 73, 0
1, 1639214, Note_on_c, 0, 78, 45
1, 1639240, Note_off_c, 0, 82, 65
1, 1639247, Note_off_c, 0, 78, 59
1, 1639250, Note_off_c, 0, 87, 60
1, 1639382, Note_on_c, 0, 75, 62
1, 1639388, Note_on_c, 0, 78, 63
1, 1639406, Note_on_c, 0, 37, 42
1, 1639406, Note_on_c, 0, 82, 71
1, 1639410, Note_off_c, 0, 75, 66
1, 1639445, Note_off_c, 0, 78, 60
1, 1639450, Note_off_c, 0, 82, 57
1, 1639454, Note_off_c, 0, 37, 54
1, 1639731, Note_on_c, 0, 75, 60
1, 1639737, Note_on_c, 0, 78, 58
1, 1639744, Note_on_c, 0, 82, 63
1, 1639779, Note_off_c, 0, 78, 67
1, 1639781, Note_off_c, 0, 75, 57
1, 1639786, Note_off_c, 0, 82, 62
1, 1639865, Control_c, 0, 67, 120
1, 1639904, Control_c, 0, 67, 127
1, 1639923, Control_c, 0, 64, 89
1, 1639937, Note_on_c, 0, 85, 71
1, 1639938, Note_on_c, 0, 37, 54
1, 1639940, Control_c, 0, 64, 42
1, 1639952, Note_on_c, 0, 77, 55
1, 1639959, Control_c, 0, 64, 0
1, 1639978, Note_off_c, 0, 85, 58
1, 1639982, Note_off_c, 0, 37, 60
1, 1639997, Note_off_c, 0, 77, 61
1, 1639997, Poly_aftertouch_c, 0, 77, 0
1, 1640201, Note_on_c, 0, 80, 66
1, 1640268, Poly_aftertouch_c, 0, 75, 0
1, 1640272, Note_on_c, 0, 73, 74
1, 1640277, Note_off_c, 0, 80, 39
1, 1640277, Note_on_c, 0, 77, 68
1, 1640301, Note_off_c, 0, 73, 65
1, 1640301, Poly_aftertouch_c, 0, 73, 0
1, 1640304, Note_off_c, 0, 77, 68
1, 1640304, Poly_aftertouch_c, 0, 77, 0
1, 1640491, Note_on_c, 0, 37, 47
1, 1640530, Note_off_c, 0, 37, 57
1, 1640812, Note_on_c, 0, 80, 48
1, 1640815, Note_on_c, 0, 77, 51
1, 1640823, Note_on_c, 0, 73, 42
1, 1640836, Note_off_c, 0, 80, 60
1, 1640851, Note_off_c, 0, 49, 47
1, 1640851, Poly_aftertouch_c, 0, 49, 0
1, 1640852, Note_off_c, 0, 77, 59
1, 1640852, Poly_aftertouch_c, 0, 77, 0
1, 1640858, Note_off_c, 0, 73, 56
1, 1640858, Poly_aftertouch_c, 0, 73, 0
1, 1641012, Note_on_c, 0, 80, 52
1, 1641026, Note_on_c, 0, 49, 41
1, 1641028, Note_on_c, 0, 74, 56
1, 1641030, Note_on_c, 0, 77, 38
1, 1641042, Note_on_c, 0, 37, 48
1, 1641053, Note_off_c, 0, 80, 66
1, 1641064, Note_off_c, 0, 77, 54
1, 1641064, Poly_aftertouch_c, 0, 77, 0
1, 1641067, Note_off_c, 0, 74, 65
1, 1641093, Note_off_c, 0, 37, 59
1, 1641345, Note_on_c, 0, 80, 58
1, 1641357, Note_on_c, 0, 74, 40
1, 1641363, Note_on_c, 0, 77, 44
1, 1641387, Note_off_c, 0, 80, 61
1, 1641394, Note_off_c, 0, 74, 55
1, 1641398, Note_off_c, 0, 77, 54
1, 1641398, Poly_aftertouch_c, 0, 77, 0
1, 1641539, Note_on_c, 0, 80, 60
1, 1641541, Note_on_c, 0, 77, 48
1, 1641546, Note_on_c, 0, 71, 57
1, 1641552, Note_on_c, 0, 37, 51
1, 1641577, Note_off_c, 0, 80, 64
1, 1641582, Note_off_c, 0, 71, 62
1, 1641584, Note_off_c, 0, 77, 60
1, 1641584, Poly_aftertouch_c, 0, 77, 0
1, 1641595, Note_off_c, 0, 37, 62
1, 1641881, Note_on_c, 0, 77, 46
1, 1641887, Note_on_c, 0, 80, 45
1, 1641890, Note_on_c, 0, 71, 38
1, 1641914, Note_off_c, 0, 77, 55
1, 1641914, Poly_aftertouch_c, 0, 77, 0
1, 1641924, Note_off_c, 0, 80, 53
1, 1641928, Note_off_c, 0, 71, 52
1, 1642063, Note_on_c, 0, 78, 64
1, 1642065, Note_on_c, 0, 69, 64
1, 1642069, Note_on_c, 0, 37, 45
1, 1642094, Note_off_c, 0, 78, 70
1, 1642098, Note_off_c, 0, 69, 66
1, 1642098, Poly_aftertouch_c, 0, 69, 0
1, 1642108, Note_off_c, 0, 37, 55
1, 1642323, Note_on_c, 0, 71, 50
1, 1642328, Note_on_c, 0, 80, 51
1, 1642355, Note_off_c, 0, 71, 57
1, 1642358, Note_off_c, 0, 80, 58
1, 1642380, Note_on_c, 0, 81, 69
1, 1642385, Note_on_c, 0, 73, 75
1, 1642408, Note_off_c, 0, 81, 70
1, 1642411, Note_off_c, 0, 73, 72
1, 1642411, Poly_aftertouch_c, 0, 73, 0
1, 1642575, Note_on_c, 0, 37, 38
1, 1642620, Note_off_c, 0, 37, 54
1, 1642888, Note_on_c, 0, 73, 62
1, 1642892, Note_on_c, 0, 81, 56
1, 1642892, Note_on_c, 0, 78, 56
1, 1642923, Note_off_c, 0, 73, 68
1, 1642923, Note_off_c, 0, 81, 62
1, 1642923, Poly_aftertouch_c, 0, 73, 0
1, 1642932, Note_off_c, 0, 78, 69
1, 1642936, Note_off_c, 0, 49, 59
1, 1642936, Poly_aftertouch_c, 0, 49, 0
1, 1642951, Control_c, 0, 67, 121
1, 1642969, Control_c, 0, 67, 116
1, 1642988, Control_c, 0, 67, 107
1, 1643008, Control_c, 0, 67, 95
1, 1643025, Control_c, 0, 67, 80
1, 1643045, Control_c, 0, 67, 72
1, 1643076, Note_on_c, 0, 81, 57
1, 1643080, Note_on_c, 0, 76, 71
1, 1643082, Control_c, 0, 67, 81
1, 1643084, Note_on_c, 0, 37, 55
1, 1643085, Note_on_c, 0, 79, 62
1, 1643093, Note_on_c, 0, 49, 55
1, 1643100, Control_c, 0, 67, 99
1, 1643107, Note_off_c, 0, 76, 70
1, 1643112, Note_off_c, 0, 81, 69
1, 1643119, Control_c, 0, 67, 127
1, 1643120, Note_off_c, 0, 79, 66
1, 1643154, Note_off_c, 0, 37, 56
1, 1643416, Note_on_c, 0, 76, 60
1, 1643420, Note_on_c, 0, 81, 58
1, 1643422, Note_on_c, 0, 79, 56
1, 1643450, Note_off_c, 0, 76, 65
1, 1643459, Note_off_c, 0, 81, 65
1, 1643463, Note_off_c, 0, 79, 66
1, 1643609, Note_on_c, 0, 81, 63
1, 1643612, Note_on_c, 0, 37, 40
1, 1643612, Note_on_c, 0, 69, 69
1, 1643613, Note_on_c, 0, 79, 63
1, 1643643, Note_off_c, 0, 81, 64
1, 1643643, Note_off_c, 0, 69, 69
1, 1643643, Poly_aftertouch_c, 0, 69, 0
1, 1643645, Note_off_c, 0, 79, 67
1, 1643659, Note_off_c, 0, 37, 53
1, 1643938, Note_on_c, 0, 79, 63
1, 1643939, Note_on_c, 0, 69, 62
1, 1643945, Note_on_c, 0, 81, 58
1, 1643973, Note_off_c, 0, 69, 62
1, 1643973, Poly_aftertouch_c, 0, 69, 0
1, 1643977, Note_off_c, 0, 79, 59
1, 1643984, Note_off_c, 0, 81, 64
1, 1644121, Note_on_c, 0, 76, 79
1, 1644124, Note_on_c, 0, 81, 65
1, 1644127, Note_on_c, 0, 79, 65
1, 1644131, Note_on_c, 0, 37, 37
1, 1644158, Note_off_c, 0, 79, 66
1, 1644161, Note_off_c, 0, 81, 63
1, 1644171, Note_off_c, 0, 76, 61
1, 1644177, Note_off_c, 0, 37, 51
1, 1644453, Note_on_c, 0, 76, 61
1, 1644457, Note_on_c, 0, 79, 58
1, 1644457, Note_on_c, 0, 81, 57
1, 1644487, Note_off_c, 0, 76, 68
1, 1644494, Note_off_c, 0, 81, 67
1, 1644494, Note_off_c, 0, 79, 65
1, 1644642, Note_on_c, 0, 79, 62
1, 1644645, Note_on_c, 0, 69, 63
1, 1644649, Note_on_c, 0, 37, 30
1, 1644649, Note_on_c, 0, 81, 51
1, 1644680, Note_off_c, 0, 79, 63
1, 1644680, Note_off_c, 0, 69, 68
1, 1644680, Poly_aftertouch_c, 0, 69, 0
1, 1644681, Note_off_c, 0, 81, 60
1, 1644691, Note_off_c, 0, 37, 49
1, 1644978, Note_on_c, 0, 79, 61
1, 1644981, Note_on_c, 0, 69, 58
1, 1644989, Note_on_c, 0, 81, 51
1, 1645011, Note_off_c, 0, 69, 62
1, 1645011, Poly_aftertouch_c, 0, 69, 0
1, 1645014, Note_off_c, 0, 49, 53
1, 1645014, Poly_aftertouch_c, 0, 49, 0
1, 1645018, Note_off_c, 0, 79, 61
1, 1645022, Note_off_c, 0, 81, 57
1, 1645173, Note_on_c, 0, 81, 51
1, 1645177, Note_on_c, 0, 75, 69
1, 1645183, Note_on_c, 0, 79, 57
1, 1645186, Note_on_c, 0, 49, 47
1, 1645190, Note_on_c, 0, 37, 46
1, 1645211, Note_off_c, 0, 75, 66
1, 1645218, Note_off_c, 0, 81, 63
1, 1645219, Note_off_c, 0, 79, 66
1, 1645242, Note_off_c, 0, 37, 59
1, 1645526, Note_on_c, 0, 75, 57
1, 1645527, Note_on_c, 0, 79, 53
1, 1645534, Note_on_c, 0, 81, 46
1, 1645567, Note_off_c, 0, 75, 65
1, 1645571, Note_off_c, 0, 81, 54
1, 1645575, Note_off_c, 0, 79, 61
1, 1645713, Note_on_c, 0, 81, 46
1, 1645721, Note_on_c, 0, 79, 60
1, 1645722, Note_on_c, 0, 37, 31
1, 1645725, Note_on_c, 0, 69, 57
1, 1645751, Note_off_c, 0, 69, 61
1, 1645751, Poly_aftertouch_c, 0, 69, 0
1, 1645759, Note_off_c, 0, 81, 64
1, 1645759, Note_off_c, 0, 79, 65
1, 1645774, Note_off_c, 0, 37, 47
1, 1646051, Note_on_c, 0, 69, 53
1, 1646056, Note_on_c, 0, 79, 52
1, 1646057, Note_on_c, 0, 81, 50
1, 1646085, Note_off_c, 0, 69, 57
1, 1646085, Poly_aftertouch_c, 0, 69, 0
1, 1646101, Note_off_c, 0, 81, 55
1, 1646105, Note_off_c, 0, 79, 61
1, 1646239, Note_on_c, 0, 81, 54
1, 1646243, Note_on_c, 0, 37, 29
1, 1646249, Note_on_c, 0, 79, 58
1, 1646250, Note_on_c, 0, 75, 62
1, 1646282, Note_off_c, 0, 81, 63
1, 1646284, Note_off_c, 0, 79, 66
1, 1646285, Note_off_c, 0, 75, 67
1, 1646289, Note_off_c, 0, 37, 46
1, 1646571, Note_on_c, 0, 75, 59
1, 1646579, Note_on_c, 0, 81, 52
1, 1646582, Note_on_c, 0, 79, 52
1, 1646614, Note_off_c, 0, 75, 62
1, 1646621, Note_off_c, 0, 81, 63
1, 1646624, Note_off_c, 0, 79, 64
1, 1646741, Note_on_c, 0, 37, 44
1, 1646751, Note_on_c, 0, 81, 56
1, 1646755, Note_on_c, 0, 79, 60
1, 1646763, Note_on_c, 0, 69, 58
1, 1646793, Note_off_c, 0, 37, 59
1, 1646795, Note_off_c, 0, 81, 59
1, 1646798, Note_off_c, 0, 79, 57
1, 1646801, Note_off_c, 0, 69, 60
1, 1646801, Poly_aftertouch_c, 0, 69, 0
1, 1647090, Note_on_c, 0, 79, 53
1, 1647096, Note_on_c, 0, 81, 51
1, 1647101, Note_on_c, 0, 69, 47
1, 1647130, Note_off_c, 0, 79, 62
1, 1647132, Note_off_c, 0, 49, 55
1, 1647132, Poly_aftertouch_c, 0, 49, 0
1, 1647134, Note_off_c, 0, 69, 53
1, 1647134, Poly_aftertouch_c, 0, 69, 0
1, 1647137, Note_off_c, 0, 81, 61
1, 1647263, Note_on_c, 0, 81, 56
1, 1647273, Note_on_c, 0, 78, 60
1, 1647276, Note_on_c, 0, 75, 66
1, 1647287, Note_on_c, 0, 49, 47
1, 1647292, Note_on_c, 0, 37, 40
1, 1647308, Note_off_c, 0, 81, 60
1, 1647310, Note_off_c, 0, 78, 67
1, 1647310, Note_off_c, 0, 75, 67
1, 1647341, Note_off_c, 0, 37, 54
1, 1647609, Note_on_c, 0, 78, 59
1, 1647610, Note_on_c, 0, 81, 55
1, 1647620, Note_on_c, 0, 75, 54
1, 1647651, Note_off_c, 0, 81, 62
1, 1647655, Note_off_c, 0, 75, 65
1, 1647663, Note_off_c, 0, 78, 56
1, 1647792, Note_on_c, 0, 81, 65
1, 1647800, Note_on_c, 0, 78, 62
1, 1647805, Note_on_c, 0, 37, 42
1, 1647807, Note_on_c, 0, 69, 57
1, 1647837, Note_off_c, 0, 78, 65
1, 1647837, Note_off_c, 0, 69, 60
1, 1647837, Poly_aftertouch_c, 0, 69, 0
1, 1647838, Note_off_c, 0, 81, 55
1, 1647850, Note_off_c, 0, 37, 57
1, 1648140, Note_on_c, 0, 81, 54
1, 1648142, Note_on_c, 0, 78, 59
1, 1648144, Note_on_c, 0, 69, 53
1, 1648167, Note_off_c, 0, 81, 61
1, 1648169, Note_off_c, 0, 69, 60
1, 1648169, Poly_aftertouch_c, 0, 69, 0
1, 1648178, Note_off_c, 0, 78, 62
1, 1648304, Note_on_c, 0, 37, 40
1, 1648309, Note_on_c, 0, 78, 65
1, 1648315, Note_on_c, 0, 80, 62
1, 1648319, Note_on_c, 0, 75, 66
1, 1648354, Note_off_c, 0, 75, 67
1, 1648355, Note_off_c, 0, 80, 65
1, 1648355, Note_off_c, 0, 78, 59
1, 1648358, Note_off_c, 0, 37, 58
1, 1648663, Note_on_c, 0, 80, 55
1, 1648666, Note_on_c, 0, 75, 57
1, 1648673, Note_on_c, 0, 78, 48
1, 1648706, Note_off_c, 0, 75, 67
1, 1648707, Note_off_c, 0, 80, 65
1, 1648711, Note_off_c, 0, 78, 63
1, 1648832, Note_on_c, 0, 80, 56
1, 1648832, Note_on_c, 0, 78, 50
1, 1648838, Note_on_c, 0, 37, 40
1, 1648841, Note_on_c, 0, 68, 56
1, 1648859, Note_off_c, 0, 80, 63
1, 1648869, Note_off_c, 0, 78, 62
1, 1648871, Note_off_c, 0, 68, 61
1, 1648884, Note_off_c, 0, 37, 56
1, 1649176, Note_on_c, 0, 68, 61
1, 1649206, Note_on_c, 0, 78, 28
1, 1649217, Note_on_c, 0, 80, 29
1, 1649220, Note_off_c, 0, 68, 60
1, 1649253, Note_off_c, 0, 78, 54
1, 1649257, Note_off_c, 0, 80, 52
1, 1649374, Note_on_c, 0, 80, 65
1, 1649378, Note_off_c, 0, 49, 47
1, 1649378, Poly_aftertouch_c, 0, 49, 0
1, 1649381, Note_on_c, 0, 71, 79
1, 1649383, Control_c, 0, 64, 37
1, 1649401, Note_on_c, 0, 77, 57
1, 1649404, Control_c, 0, 64, 60
1, 1649407, Note_on_c, 0, 75, 57
1, 1649420, Control_c, 0, 64, 76
1, 1649440, Control_c, 0, 64, 88
1, 1649459, Control_c, 0, 64, 102
1, 1649476, Control_c, 0, 64, 117
1, 1649478, Note_off_c, 0, 77, 53
1, 1649478, Poly_aftertouch_c, 0, 77, 0
1, 1649485, Note_off_c, 0, 75, 39
1, 1649495, Control_c, 0, 64, 127
1, 1649547, Note_off_c, 0, 80, 29
1, 1649716, Note_off_c, 0, 71, 60
1, 1649721, Note_on_c, 0, 80, 52
1, 1649741, Note_on_c, 0, 75, 44
1, 1649741, Note_on_c, 0, 77, 48
1, 1649779, Note_off_c, 0, 80, 52
1, 1649779, Note_off_c, 0, 75, 56
1, 1649790, Note_off_c, 0, 77, 57
1, 1649790, Poly_aftertouch_c, 0, 77, 0
1, 1649923, Note_on_c, 0, 68, 59
1, 1649934, Note_on_c, 0, 77, 40
1, 1649941, Note_on_c, 0, 80, 42
1, 1649956, Note_on_c, 0, 37, 30
1, 1649970, Note_off_c, 0, 68, 59
1, 1649970, Note_off_c, 0, 77, 55
1, 1649970, Poly_aftertouch_c, 0, 77, 0
1, 1649974, Note_off_c, 0, 80, 54
1, 1650012, Note_off_c, 0, 37, 43
1, 1650285, Note_on_c, 0, 80, 45
1, 1650287, Note_on_c, 0, 68, 49
1, 1650298, Note_on_c, 0, 77, 48
1, 1650335, Note_off_c, 0, 68, 61
1, 1650346, Note_off_c, 0, 80, 55
1, 1650361, Note_off_c, 0, 77, 56
1, 1650361, Poly_aftertouch_c, 0, 77, 0
1, 1650458, Note_on_c, 0, 74, 59
1, 1650481, Note_on_c, 0, 37, 40
1, 1650483, Note_on_c, 0, 80, 34
1, 1650515, Note_off_c, 0, 74, 55
1, 1650523, Note_off_c, 0, 80, 48
1, 1650533, Note_off_c, 0, 37, 54
1, 1650545, Poly_aftertouch_c, 0, 77, 0
1, 1650803, Note_on_c, 0, 80, 53
1, 1650819, Note_on_c, 0, 74, 49
1, 1650820, Note_on_c, 0, 77, 50
1, 1650853, Note_off_c, 0, 80, 58
1, 1650865, Note_off_c, 0, 74, 62
1, 1650869, Note_off_c, 0, 77, 59
1, 1650976, Note_on_c, 0, 37, 50
1, 1650982, Note_on_c, 0, 68, 51
1, 1650989, Note_on_c, 0, 80, 52
1, 1651002, Note_on_c, 0, 77, 44
1, 1651016, Note_off_c, 0, 37, 54
1, 1651022, Note_off_c, 0, 80, 57
1, 1651038, Note_off_c, 0, 68, 49
1, 1651042, Note_off_c, 0, 77, 53
1, 1651316, Note_on_c, 0, 77, 31
1, 1651328, Note_on_c, 0, 68, 48
1, 1651333, Note_on_c, 0, 80, 28
1, 1651357, Note_off_c, 0, 77, 45
1, 1651376, Note_off_c, 0, 68, 64
1, 1651379, Note_off_c, 0, 80, 44
1, 1651496, Control_c, 0, 64, 116
1, 1651515, Control_c, 0, 64, 89
1, 1651516, Note_on_c, 0, 77, 50
1, 1651525, Note_on_c, 0, 70, 79
1, 1651534, Note_on_c, 0, 78, 55
1, 1651534, Control_c, 0, 64, 71
1, 1651545, Note_on_c, 0, 73, 45
1, 1651568, Note_off_c, 0, 70, 60
1, 1651568, Poly_aftertouch_c, 0, 70, 0
1, 1651571, Control_c, 0, 64, 78
1, 1651580, Note_off_c, 0, 78, 59
1, 1651588, Note_off_c, 0, 73, 61
1, 1651588, Poly_aftertouch_c, 0, 73, 0
1, 1651588, Control_c, 0, 64, 87
1, 1651609, Note_off_c, 0, 77, 53
1, 1651609, Control_c, 0, 64, 102
1, 1651628, Control_c, 0, 64, 123
1, 1651646, Control_c, 0, 64, 127
1, 1651853, Note_on_c, 0, 78, 50
1, 1651861, Note_on_c, 0, 73, 46
1, 1651871, Note_on_c, 0, 77, 41
1, 1651906, Note_off_c, 0, 78, 57
1, 1651906, Note_off_c, 0, 73, 59
1, 1651906, Poly_aftertouch_c, 0, 73, 0
1, 1651911, Note_off_c, 0, 77, 55
1, 1651964, Control_c, 0, 64, 108
1, 1651983, Control_c, 0, 64, 96
1, 1652020, Control_c, 0, 64, 100
1, 1652026, Note_on_c, 0, 78, 56
1, 1652028, Note_on_c, 0, 77, 62
1, 1652041, Note_on_c, 0, 66, 52
1, 1652041, Control_c, 0, 64, 109
1, 1652051, Note_on_c, 0, 37, 53
1, 1652059, Control_c, 0, 64, 119
1, 1652076, Control_c, 0, 64, 127
1, 1652091, Note_off_c, 0, 78, 52
1, 1652093, Note_off_c, 0, 66, 60
1, 1652093, Poly_aftertouch_c, 0, 66, 0
1, 1652101, Note_off_c, 0, 77, 44
1, 1652107, Note_off_c, 0, 37, 56
1, 1652386, Note_on_c, 0, 77, 61
1, 1652396, Note_on_c, 0, 66, 49
1, 1652426, Note_on_c, 0, 78, 32
1, 1652437, Note_off_c, 0, 66, 56
1, 1652437, Poly_aftertouch_c, 0, 66, 0
1, 1652457, Note_off_c, 0, 77, 52
1, 1652469, Note_off_c, 0, 78, 51
1, 1652488, Control_c, 0, 64, 116
1, 1652505, Control_c, 0, 64, 95
1, 1652526, Control_c, 0, 64, 75
1, 1652544, Control_c, 0, 64, 69
1, 1652558, Note_on_c, 0, 75, 56
1, 1652560, Control_c, 0, 64, 75
1, 1652562, Note_on_c, 0, 78, 59
1, 1652569, Note_on_c, 0, 73, 47
1, 1652575, Note_on_c, 0, 37, 47
1, 1652579, Control_c, 0, 64, 83
1, 1652601, Note_off_c, 0, 75, 64
1, 1652601, Note_off_c, 0, 78, 65
1, 1652601, Control_c, 0, 64, 92
1, 1652610, Note_off_c, 0, 73, 62
1, 1652610, Poly_aftertouch_c, 0, 73, 0
1, 1652618, Control_c, 0, 64, 103
1, 1652637, Control_c, 0, 64, 116
1, 1652648, Note_off_c, 0, 37, 51
1, 1652654, Control_c, 0, 64, 127
1, 1652903, Note_on_c, 0, 78, 54
1, 1652908, Note_on_c, 0, 75, 54
1, 1652929, Note_on_c, 0, 73, 40
1, 1652936, Control_c, 0, 64, 119
1, 1652945, Note_off_c, 0, 78, 62
1, 1652954, Control_c, 0, 64, 104
1, 1652957, Note_off_c, 0, 75, 59
1, 1652964, Note_off_c, 0, 73, 56
1, 1652964, Poly_aftertouch_c, 0, 73, 0
1, 1652972, Control_c, 0, 64, 91
1, 1652992, Control_c, 0, 64, 87
1, 1653011, Control_c, 0, 64, 91
1, 1653029, Control_c, 0, 64, 98
1, 1653048, Control_c, 0, 64, 107
1, 1653064, Note_on_c, 0, 78, 58
1, 1653067, Control_c, 0, 64, 120
1, 1653086, Note_on_c, 0, 37, 57
1, 1653086, Note_on_c, 0, 75, 58
1, 1653086, Control_c, 0, 64, 127
1, 1653094, Note_on_c, 0, 66, 47
1, 1653126, Note_off_c, 0, 78, 51
1, 1653126, Note_off_c, 0, 75, 66
1, 1653127, Note_off_c, 0, 37, 63
1, 1653130, Note_off_c, 0, 66, 57
1, 1653130, Poly_aftertouch_c, 0, 66, 0
1, 1653426, Note_on_c, 0, 75, 57
1, 1653437, Note_on_c, 0, 78, 47
1, 1653452, Note_on_c, 0, 66, 27
1, 1653473, Note_off_c, 0, 78, 54
1, 1653475, Note_off_c, 0, 75, 56
1, 1653496, Note_off_c, 0, 66, 50
1, 1653496, Poly_aftertouch_c, 0, 66, 0
1, 1653535, Control_c, 0, 64, 119
1, 1653554, Control_c, 0, 64, 96
1, 1653572, Control_c, 0, 64, 73
1, 1653591, Control_c, 0, 64, 57
1, 1653609, Control_c, 0, 64, 54
1, 1653617, Note_on_c, 0, 78, 52
1, 1653622, Note_on_c, 0, 69, 79
1, 1653624, Note_on_c, 0, 75, 57
1, 1653627, Control_c, 0, 64, 61
1, 1653635, Note_on_c, 0, 73, 60
1, 1653647, Control_c, 0, 64, 71
1, 1653665, Control_c, 0, 64, 80
1, 1653669, Note_off_c, 0, 78, 59
1, 1653673, Note_off_c, 0, 75, 59
1, 1653677, Note_off_c, 0, 69, 58
1, 1653677, Poly_aftertouch_c, 0, 69, 0
1, 1653684, Note_off_c, 0, 73, 60
1, 1653684, Poly_aftertouch_c, 0, 73, 0
1, 1653684, Control_c, 0, 64, 92
1, 1653703, Control_c, 0, 64, 106
1, 1653721, Control_c, 0, 64, 121
1, 1653740, Control_c, 0, 64, 127
1, 1653936, Note_on_c, 0, 78, 54
1, 1653949, Note_on_c, 0, 75, 50
1, 1653956, Note_on_c, 0, 73, 47
1, 1653992, Note_off_c, 0, 73, 58
1, 1653992, Poly_aftertouch_c, 0, 73, 0
1, 1653996, Note_off_c, 0, 75, 62
1, 1653997, Note_off_c, 0, 78, 54
1, 1654095, Control_c, 0, 64, 114
1, 1654114, Control_c, 0, 64, 96
1, 1654132, Note_on_c, 0, 78, 61
1, 1654132, Control_c, 0, 64, 78
1, 1654134, Note_on_c, 0, 75, 56
1, 1654146, Note_on_c, 0, 66, 48
1, 1654152, Control_c, 0, 64, 69
1, 1654158, Note_on_c, 0, 37, 52
1, 1654171, Control_c, 0, 64, 71
1, 1654178, Note_off_c, 0, 75, 61
1, 1654189, Control_c, 0, 64, 76
1, 1654195, Note_off_c, 0, 66, 62
1, 1654195, Poly_aftertouch_c, 0, 66, 0
1, 1654199, Note_off_c, 0, 78, 53
1, 1654207, Note_off_c, 0, 37, 56
1, 1654209, Control_c, 0, 64, 80
1, 1654227, Control_c, 0, 64, 86
1, 1654245, Control_c, 0, 64, 95
1, 1654263, Control_c, 0, 64, 108
1, 1654283, Control_c, 0, 64, 121
1, 1654300, Control_c, 0, 64, 127
1, 1654474, Note_on_c, 0, 78, 56
1, 1654477, Note_on_c, 0, 66, 53
1, 1654477, Note_on_c, 0, 75, 58
1, 1654509, Note_off_c, 0, 66, 60
1, 1654509, Poly_aftertouch_c, 0, 66, 0
1, 1654518, Note_off_c, 0, 78, 62
1, 1654521, Note_off_c, 0, 75, 58
1, 1654620, Control_c, 0, 64, 119
1, 1654637, Control_c, 0, 64, 100
1, 1654649, Note_on_c, 0, 72, 62
1, 1654657, Control_c, 0, 64, 79
1, 1654658, Note_on_c, 0, 37, 48
1, 1654658, Note_on_c, 0, 78, 43
1, 1654659, Note_on_c, 0, 75, 54
1, 1654676, Control_c, 0, 64, 66
1, 1654689, Note_off_c, 0, 78, 57
1, 1654697, Note_off_c, 0, 75, 64
1, 1654713, Control_c, 0, 64, 72
1, 1654716, Note_off_c, 0, 72, 57
1, 1654721, Note_off_c, 0, 37, 56
1, 1654731, Control_c, 0, 64, 79
1, 1654752, Control_c, 0, 64, 87
1, 1654769, Control_c, 0, 64, 101
1, 1654787, Control_c, 0, 64, 122
1, 1654806, Control_c, 0, 64, 127
1, 1655001, Note_on_c, 0, 75, 55
1, 1655002, Note_on_c, 0, 78, 44
1, 1655014, Note_on_c, 0, 72, 48
1, 1655049, Note_off_c, 0, 78, 52
1, 1655058, Note_off_c, 0, 75, 54
1, 1655062, Note_off_c, 0, 72, 63
1, 1655124, Control_c, 0, 64, 109
1, 1655142, Control_c, 0, 64, 84
1, 1655160, Note_on_c, 0, 78, 56
1, 1655161, Control_c, 0, 64, 62
1, 1655166, Note_on_c, 0, 75, 52
1, 1655170, Note_on_c, 0, 66, 51
1, 1655178, Note_on_c, 0, 37, 44
1, 1655178, Control_c, 0, 64, 54
1, 1655198, Control_c, 0, 64, 59
1, 1655212, Note_off_c, 0, 78, 56
1, 1655216, Note_off_c, 0, 75, 59
1, 1655217, Control_c, 0, 64, 70
1, 1655222, Note_off_c, 0, 66, 61
1, 1655222, Poly_aftertouch_c, 0, 66, 0
1, 1655226, Note_off_c, 0, 37, 61
1, 1655236, Control_c, 0, 64, 81
1, 1655254, Control_c, 0, 64, 96
1, 1655274, Control_c, 0, 64, 118
1, 1655293, Control_c, 0, 64, 127
1, 1655488, Note_on_c, 0, 75, 58
1, 1655505, Note_on_c, 0, 78, 52
1, 1655514, Note_on_c, 0, 66, 45
1, 1655521, Note_off_c, 0, 75, 68
1, 1655549, Note_off_c, 0, 78, 61
1, 1655552, Note_off_c, 0, 66, 63
1, 1655552, Poly_aftertouch_c, 0, 66, 0
1, 1655629, Control_c, 0, 64, 110
1, 1655647, Control_c, 0, 64, 70
1, 1655665, Control_c, 0, 64, 0
1, 1655674, Note_on_c, 0, 49, 63
1, 1655674, Note_on_c, 0, 77, 68
1, 1655679, Note_on_c, 0, 37, 56
1, 1655683, Note_on_c, 0, 73, 63
1, 1655724, Note_off_c, 0, 73, 63
1, 1655724, Poly_aftertouch_c, 0, 73, 0
1, 1655727, Note_off_c, 0, 77, 57
1, 1655744, Note_off_c, 0, 37, 57
1, 1656026, Note_on_c, 0, 73, 56
1, 1656026, Note_on_c, 0, 77, 52
1, 1656058, Note_off_c, 0, 77, 57
1, 1656067, Note_off_c, 0, 73, 67
1, 1656067, Poly_aftertouch_c, 0, 73, 0
1, 1656205, Note_on_c, 0, 65, 54
1, 1656209, Note_on_c, 0, 68, 56
1, 1656245, Note_off_c, 0, 65, 63
1, 1656248, Note_off_c, 0, 68, 67
1, 1656552, Note_on_c, 0, 68, 51
1, 1656555, Note_on_c, 0, 65, 40
1, 1656583, Note_off_c, 0, 68, 60
1, 1656597, Note_off_c, 0, 65, 49
1, 1656712, Note_on_c, 0, 77, 64
1, 1656716, Note_on_c, 0, 37, 52
1, 1656721, Note_on_c, 0, 73, 60
1, 1656754, Note_off_c, 0, 77, 58
1, 1656757, Note_off_c, 0, 37, 62
1, 1656760, Note_off_c, 0, 73, 64
1, 1656760, Poly_aftertouch_c, 0, 73, 0
1, 1657063, Note_on_c, 0, 73, 55
1, 1657079, Note_on_c, 0, 77, 30
1, 1657105, Note_off_c, 0, 73, 67
1, 1657105, Poly_aftertouch_c, 0, 73, 0
1, 1657123, Note_off_c, 0, 77, 43
1, 1657224, Note_on_c, 0, 68, 61
1, 1657229, Note_on_c, 0, 65, 53
1, 1657261, Note_off_c, 0, 68, 66
1, 1657268, Note_off_c, 0, 65, 63
1, 1657563, Note_on_c, 0, 65, 41
1, 1657571, Note_on_c, 0, 68, 42
1, 1657603, Note_off_c, 0, 65, 53
1, 1657609, Note_off_c, 0, 68, 57
1, 1657714, Note_on_c, 0, 37, 48
1, 1657720, Note_on_c, 0, 77, 53
1, 1657726, Note_on_c, 0, 73, 54
1, 1657750, Note_off_c, 0, 77, 60
1, 1657756, Note_off_c, 0, 37, 61
1, 1657769, Note_off_c, 0, 73, 65
1, 1657769, Poly_aftertouch_c, 0, 73, 0
1, 1658235, Note_on_c, 0, 68, 51
1, 1658251, Note_on_c, 0, 65, 45
1, 1658278, Note_off_c, 0, 68, 65
1, 1658287, Note_off_c, 0, 65, 55
1, 1658396, Control_c, 0, 67, 123
1, 1658758, Note_on_c, 0, 37, 40
1, 1658803, Note_off_c, 0, 37, 57
1, 1659287, Note_on_c, 0, 68, 38
1, 1659293, Control_c, 0, 67, 119
1, 1659297, Note_off_c, 0, 49, 59
1, 1659297, Poly_aftertouch_c, 0, 49, 0
1, 1659313, Control_c, 0, 67, 114
1, 1659326, Note_off_c, 0, 68, 57
1, 1659331, Control_c, 0, 67, 109
1, 1659349, Control_c, 0, 67, 104
1, 1659366, Poly_aftertouch_c, 0, 65, 0
1, 1659368, Control_c, 0, 67, 98
1, 1659387, Control_c, 0, 67, 92
1, 1659405, Control_c, 0, 67, 84
1, 1659426, Control_c, 0, 67, 76
1, 1659443, Control_c, 0, 67, 68
1, 1659462, Control_c, 0, 67, 60
1, 1659480, Control_c, 0, 67, 55
1, 1659555, Control_c, 0, 67, 51
1, 1659705, Control_c, 0, 67, 47
1, 1659724, Control_c, 0, 67, 34
1, 1659762, Control_c, 0, 67, 0
1, 1659763, Note_on_c, 0, 36, 62
1, 1659768, Note_on_c, 0, 48, 51
1, 1659802, Note_off_c, 0, 36, 62
1, 1659802, Note_off_c, 0, 48, 59
1, 1659802, Poly_aftertouch_c, 0, 48, 0
1, 1660090, Note_on_c, 0, 36, 59
1, 1660091, Note_on_c, 0, 48, 48
1, 1660126, Note_off_c, 0, 48, 59
1, 1660126, Poly_aftertouch_c, 0, 48, 0
1, 1660127, Note_off_c, 0, 36, 61
1, 1660268, Note_on_c, 0, 49, 72
1, 1660273, Note_on_c, 0, 37, 79
1, 1660306, Note_off_c, 0, 37, 63
1, 1660307, Note_off_c, 0, 49, 63
1, 1660307, Poly_aftertouch_c, 0, 49, 0
1, 1660585, Note_on_c, 0, 37, 68
1, 1660589, Note_on_c, 0, 49, 55
1, 1660621, Note_off_c, 0, 37, 62
1, 1660628, Note_off_c, 0, 49, 61
1, 1660628, Poly_aftertouch_c, 0, 49, 0
1, 1660770, Note_on_c, 0, 44, 76
1, 1660774, Note_on_c, 0, 32, 77
1, 1660806, Note_off_c, 0, 32, 65
1, 1660809, Note_off_c, 0, 44, 67
1, 1661021, Note_on_c, 0, 46, 65
1, 1661022, Note_on_c, 0, 34, 63
1, 1661061, Note_off_c, 0, 34, 63
1, 1661085, Note_on_c, 0, 36, 79
1, 1661087, Note_on_c, 0, 48, 70
1, 1661094, Note_off_c, 0, 46, 63
1, 1661115, Note_off_c, 0, 48, 67
1, 1661115, Poly_aftertouch_c, 0, 48, 0
1, 1661125, Note_off_c, 0, 36, 68
1, 1661627, Note_on_c, 0, 48, 69
1, 1661672, Note_off_c, 0, 48, 65
1, 1661672, Poly_aftertouch_c, 0, 48, 0
1, 1661803, Note_on_c, 0, 60, 78
1, 1661807, Note_on_c, 0, 51, 80
1, 1661808, Note_on_c, 0, 44, 88
1, 1661814, Note_on_c, 0, 56, 70
1, 1661817, Note_on_c, 0, 32, 80
1, 1661840, Note_off_c, 0, 51, 69
1, 1661842, Note_off_c, 0, 44, 70
1, 1661845, Note_off_c, 0, 56, 67
1, 1661848, Note_off_c, 0, 32, 63
1, 1661849, Note_off_c, 0, 60, 63
1, 1662124, Note_on_c, 0, 51, 69
1, 1662124, Note_on_c, 0, 60, 69
1, 1662127, Note_on_c, 0, 56, 72
1, 1662131, Note_on_c, 0, 44, 78
1, 1662136, Note_on_c, 0, 32, 75
1, 1662153, Note_off_c, 0, 51, 64
1, 1662157, Note_off_c, 0, 44, 66
1, 1662165, Note_off_c, 0, 60, 63
1, 1662165, Note_off_c, 0, 56, 65
1, 1662173, Note_off_c, 0, 32, 62
1, 1662307, Note_on_c, 0, 61, 88
1, 1662308, Note_on_c, 0, 53, 87
1, 1662309, Note_on_c, 0, 56, 82
1, 1662312, Note_on_c, 0, 49, 93
1, 1662315, Note_on_c, 0, 37, 85
1, 1662337, Note_off_c, 0, 53, 70
1, 1662337, Note_off_c, 0, 49, 70
1, 1662337, Poly_aftertouch_c, 0, 49, 0
1, 1662340, Note_off_c, 0, 56, 71
1, 1662346, Note_off_c, 0, 61, 60
1, 1662350, Note_off_c, 0, 37, 63
1, 1662644, Note_on_c, 0, 53, 52
1, 1662649, Note_on_c, 0, 56, 48
1, 1662651, Note_on_c, 0, 61, 47
1, 1662666, Note_on_c, 0, 37, 52
1, 1662671, Note_on_c, 0, 49, 51
1, 1662678, Note_off_c, 0, 53, 53
1, 1662682, Note_off_c, 0, 56, 58
1, 1662686, Note_off_c, 0, 61, 56
1, 1662702, Note_off_c, 0, 37, 57
1, 1662708, Note_off_c, 0, 49, 52
1, 1662708, Poly_aftertouch_c, 0, 49, 0
1, 1662869, Note_on_c, 0, 36, 59
1, 1662870, Note_on_c, 0, 48, 53
1, 1662900, Note_off_c, 0, 36, 55
1, 1662905, Note_off_c, 0, 48, 36
1, 1662905, Poly_aftertouch_c, 0, 48, 0
1, 1662921, Control_c, 0, 67, 10
1, 1662996, Control_c, 0, 67, 14
1, 1663033, Control_c, 0, 67, 18
1, 1663071, Control_c, 0, 67, 24
1, 1663206, Note_on_c, 0, 48, 56
1, 1663207, Note_on_c, 0, 36, 55
1, 1663240, Note_off_c, 0, 48, 59
1, 1663240, Poly_aftertouch_c, 0, 48, 0
1, 1663245, Note_off_c, 0, 36, 60
1, 1663333, Control_c, 0, 67, 14
1, 1663352, Control_c, 0, 67, 0
1, 1663394, Note_on_c, 0, 49, 59
1, 1663396, Note_on_c, 0, 37, 50
1, 1663423, Note_off_c, 0, 49, 57
1, 1663423, Poly_aftertouch_c, 0, 49, 0
1, 1663435, Note_off_c, 0, 37, 50
1, 1663727, Note_on_c, 0, 37, 55
1, 1663731, Note_on_c, 0, 49, 46
1, 1663761, Note_off_c, 0, 37, 57
1, 1663770, Note_off_c, 0, 49, 36
1, 1663770, Poly_aftertouch_c, 0, 49, 0
1, 1663902, Note_on_c, 0, 56, 78
1, 1663906, Note_on_c, 0, 60, 75
1, 1663906, Note_on_c, 0, 53, 73
1, 1663909, Note_on_c, 0, 29, 88
1, 1663911, Control_c, 0, 67, 36
1, 1663912, Note_on_c, 0, 41, 85
1, 1663931, Control_c, 0, 67, 63
1, 1663939, Note_off_c, 0, 53, 64
1, 1663940, Note_off_c, 0, 60, 68
1, 1663942, Note_off_c, 0, 56, 67
1, 1663944, Note_off_c, 0, 41, 66
1, 1663949, Note_off_c, 0, 29, 65
1, 1664228, Note_on_c, 0, 60, 65
1, 1664232, Note_on_c, 0, 53, 59
1, 1664245, Note_on_c, 0, 29, 69
1, 1664247, Note_on_c, 0, 56, 46
1, 1664247, Note_on_c, 0, 41, 65
1, 1664248, Control_c, 0, 67, 59
1, 1664264, Note_off_c, 0, 60, 65
1, 1664275, Note_off_c, 0, 29, 62
1, 1664276, Note_off_c, 0, 53, 60
1, 1664281, Note_off_c, 0, 41, 61
1, 1664281, Note_off_c, 0, 56, 57
1, 1664286, Control_c, 0, 67, 53
1, 1664304, Control_c, 0, 67, 45
1, 1664323, Control_c, 0, 67, 28
1, 1664342, Control_c, 0, 67, 0
1, 1664425, Note_on_c, 0, 53, 79
1, 1664426, Note_on_c, 0, 58, 82
1, 1664430, Note_on_c, 0, 61, 80
1, 1664444, Note_on_c, 0, 46, 86
1, 1664445, Note_on_c, 0, 34, 84
1, 1664462, Note_off_c, 0, 53, 67
1, 1664464, Note_off_c, 0, 58, 66
1, 1664464, Poly_aftertouch_c, 0, 58, 0
1, 1664466, Note_off_c, 0, 61, 64
1, 1664473, Note_off_c, 0, 46, 69
1, 1664475, Note_off_c, 0, 34, 65
1, 1664756, Note_on_c, 0, 61, 63
1, 1664761, Note_on_c, 0, 53, 61
1, 1664762, Note_on_c, 0, 46, 73
1, 1664764, Note_on_c, 0, 58, 53
1, 1664765, Note_on_c, 0, 34, 73
1, 1664793, Note_off_c, 0, 61, 65
1, 1664796, Note_off_c, 0, 46, 65
1, 1664801, Note_off_c, 0, 34, 64
1, 1664803, Note_off_c, 0, 53, 63
1, 1664803, Note_off_c, 0, 58, 63
1, 1664803, Poly_aftertouch_c, 0, 58, 0
1, 1664965, Note_on_c, 0, 53, 74
1, 1664966, Note_on_c, 0, 56, 78
1, 1664967, Note_on_c, 0, 41, 80
1, 1664973, Note_on_c, 0, 29, 80
1, 1664977, Control_c, 0, 67, 16
1, 1664997, Note_off_c, 0, 41, 67
1, 1664998, Note_off_c, 0, 56, 69
1, 1665001, Note_off_c, 0, 53, 67
1, 1665012, Note_off_c, 0, 29, 62
1, 1665015, Control_c, 0, 67, 20
1, 1665127, Control_c, 0, 67, 26
1, 1665147, Control_c, 0, 67, 30
1, 1665165, Control_c, 0, 67, 34
1, 1665185, Control_c, 0, 67, 39
1, 1665235, Note_on_c, 0, 55, 72
1, 1665246, Note_on_c, 0, 29, 68
1, 1665251, Note_on_c, 0, 58, 65
1, 1665267, Note_off_c, 0, 55, 68
1, 1665277, Control_c, 0, 67, 35
1, 1665295, Note_off_c, 0, 29, 64
1, 1665295, Control_c, 0, 67, 27
1, 1665314, Control_c, 0, 67, 15
1, 1665319, Note_on_c, 0, 56, 75
1, 1665325, Note_on_c, 0, 60, 68
1, 1665327, Note_on_c, 0, 41, 72
1, 1665330, Note_off_c, 0, 58, 61
1, 1665330, Poly_aftertouch_c, 0, 58, 0
1, 1665333, Control_c, 0, 67, 0
1, 1665346, Note_off_c, 0, 56, 67
1, 1665356, Note_off_c, 0, 60, 66
1, 1665357, Note_off_c, 0, 41, 65
1, 1665369, Poly_aftertouch_c, 0, 40, 0
1, 1665670, Control_c, 0, 67, 8
1, 1665708, Control_c, 0, 67, 12
1, 1665884, Note_on_c, 0, 60, 52
1, 1665950, Control_c, 0, 67, 8
1, 1666082, Control_c, 0, 67, 0
1, 1666100, Control_c, 0, 64, 11
1, 1666118, Control_c, 0, 64, 24
1, 1666137, Control_c, 0, 64, 35
1, 1666141, Note_on_c, 0, 56, 48
1, 1666156, Control_c, 0, 64, 47
1, 1666169, Note_on_c, 0, 51, 40
1, 1666174, Note_on_c, 0, 41, 41
1, 1666175, Control_c, 0, 64, 57
1, 1666193, Control_c, 0, 64, 64
1, 1666212, Control_c, 0, 64, 68
1, 1666231, Control_c, 0, 64, 72
1, 1666249, Control_c, 0, 64, 76
1, 1666268, Control_c, 0, 64, 83
1, 1666288, Control_c, 0, 64, 92
1, 1666306, Control_c, 0, 64, 104
1, 1666324, Control_c, 0, 64, 117
1, 1666343, Control_c, 0, 64, 127
1, 1666369, Note_off_c, 0, 41, 32
1, 1666512, Note_on_c, 0, 62, 65
1, 1666570, Note_on_c, 0, 50, 38
1, 1666597, Note_off_c, 0, 60, 58
1, 1666600, Note_off_c, 0, 56, 58
1, 1666642, Note_off_c, 0, 51, 33
1, 1666772, Note_on_c, 0, 63, 68
1, 1666783, Note_on_c, 0, 55, 48
1, 1666819, Note_on_c, 0, 43, 44
1, 1666820, Note_off_c, 0, 50, 25
1, 1666831, Note_on_c, 0, 48, 42
1, 1666848, Control_c, 0, 64, 114
1, 1666866, Control_c, 0, 64, 100
1, 1666885, Control_c, 0, 64, 84
1, 1666889, Note_off_c, 0, 62, 55
1, 1666889, Poly_aftertouch_c, 0, 62, 0
1, 1666904, Control_c, 0, 64, 65
1, 1666923, Control_c, 0, 64, 37
1, 1666941, Control_c, 0, 64, 0
1, 1667035, Control_c, 0, 64, 40
1, 1667053, Control_c, 0, 64, 61
1, 1667073, Control_c, 0, 64, 76
1, 1667091, Control_c, 0, 64, 88
1, 1667110, Control_c, 0, 64, 100
1, 1667128, Control_c, 0, 64, 113
1, 1667147, Control_c, 0, 64, 123
1, 1667166, Control_c, 0, 64, 127
1, 1667194, Note_off_c, 0, 43, 36
1, 1667198, Note_on_c, 0, 50, 52
1, 1667212, Note_off_c, 0, 55, 36
1, 1667270, Note_off_c, 0, 48, 40
1, 1667270, Poly_aftertouch_c, 0, 48, 0
1, 1667292, Note_off_c, 0, 63, 59
1, 1667335, Note_off_c, 0, 50, 55
1, 1667484, Control_c, 0, 64, 123
1, 1667507, Note_on_c, 0, 60, 49
1, 1667521, Control_c, 0, 64, 115
1, 1667522, Note_on_c, 0, 53, 46
1, 1667530, Note_on_c, 0, 51, 50
1, 1667538, Control_c, 0, 64, 110
1, 1667550, Note_on_c, 0, 44, 40
1, 1667557, Control_c, 0, 64, 103
1, 1667578, Control_c, 0, 64, 97
1, 1667595, Control_c, 0, 64, 90
1, 1667615, Control_c, 0, 64, 80
1, 1667633, Control_c, 0, 64, 68
1, 1667652, Control_c, 0, 64, 53
1, 1667671, Control_c, 0, 64, 21
1, 1667689, Control_c, 0, 64, 0
1, 1667801, Control_c, 0, 64, 28
1, 1667820, Control_c, 0, 64, 50
1, 1667840, Control_c, 0, 64, 67
1, 1667857, Control_c, 0, 64, 78
1, 1667859, Control_c, 0, 67, 11
1, 1667877, Control_c, 0, 64, 87
1, 1667880, Control_c, 0, 67, 15
1, 1667896, Control_c, 0, 64, 96
1, 1667897, Control_c, 0, 67, 21
1, 1667915, Control_c, 0, 64, 105
1, 1667916, Control_c, 0, 67, 30
1, 1667932, Control_c, 0, 64, 111
1, 1667934, Control_c, 0, 67, 39
1, 1667952, Control_c, 0, 64, 116
1, 1667953, Control_c, 0, 67, 47
1, 1667970, Control_c, 0, 67, 55
1, 1667989, Control_c, 0, 67, 63
1, 1668008, Control_c, 0, 67, 71
1, 1668026, Control_c, 0, 67, 76
1, 1668074, Poly_aftertouch_c, 0, 53, 24
1, 1668082, Control_c, 0, 67, 80
1, 1668157, Control_c, 0, 64, 112
1, 1668175, Control_c, 0, 64, 105
1, 1668181, Note_off_c, 0, 51, 26
1, 1668187, Note_on_c, 0, 62, 48
1, 1668194, Control_c, 0, 64, 89
1, 1668194, Control_c, 0, 67, 85
1, 1668214, Control_c, 0, 64, 70
1, 1668220, Note_off_c, 0, 60, 53
1, 1668231, Control_c, 0, 64, 56
1, 1668241, Note_on_c, 0, 50, 30
1, 1668249, Control_c, 0, 64, 53
1, 1668250, Control_c, 0, 67, 90
1, 1668268, Control_c, 0, 64, 60
1, 1668288, Control_c, 0, 64, 70
1, 1668306, Control_c, 0, 64, 83
1, 1668325, Control_c, 0, 64, 99
1, 1668335, Note_off_c, 0, 53, 19
1, 1668335, Poly_aftertouch_c, 0, 53, 0
1, 1668344, Control_c, 0, 64, 117
1, 1668362, Control_c, 0, 64, 127
1, 1668389, Note_off_c, 0, 50, 54
1, 1668399, Control_c, 0, 67, 86
1, 1668428, Note_off_c, 0, 62, 54
1, 1668428, Poly_aftertouch_c, 0, 62, 0
1, 1668457, Note_off_c, 0, 44, 36
1, 1668474, Control_c, 0, 67, 81
1, 1668736, Control_c, 0, 64, 123
1, 1668810, Control_c, 0, 64, 118
1, 1668824, Note_on_c, 0, 64, 38
1, 1668825, Note_on_c, 0, 60, 32
1, 1668831, Note_on_c, 0, 55, 27
1, 1668849, Control_c, 0, 64, 112
1, 1668873, Note_on_c, 0, 43, 24
1, 1668875, Note_on_c, 0, 48, 24
1, 1668881, Note_on_c, 0, 36, 30
1, 1668885, Control_c, 0, 64, 108
1, 1668924, Control_c, 0, 64, 104
1, 1668961, Control_c, 0, 64, 97
1, 1668998, Control_c, 0, 64, 91
1, 1669017, Control_c, 0, 64, 87
1, 1669037, Control_c, 0, 64, 83
1, 1669056, Control_c, 0, 64, 78
1, 1669073, Control_c, 0, 64, 72
1, 1669093, Control_c, 0, 64, 68
1, 1669110, Control_c, 0, 64, 64
1, 1669130, Control_c, 0, 64, 60
1, 1669147, Control_c, 0, 64, 55
1, 1669167, Control_c, 0, 64, 48
1, 1669185, Control_c, 0, 64, 41
1, 1669204, Control_c, 0, 64, 33
1, 1669222, Control_c, 0, 64, 28
1, 1669242, Control_c, 0, 64, 24
1, 1669279, Control_c, 0, 64, 17
1, 1669297, Control_c, 0, 67, 76
1, 1669373, Control_c, 0, 64, 21
1, 1669374, Control_c, 0, 67, 72
1, 1669392, Control_c, 0, 64, 27
1, 1669409, Control_c, 0, 64, 32
1, 1669429, Control_c, 0, 64, 36
1, 1669430, Control_c, 0, 67, 66
1, 1669447, Control_c, 0, 64, 40
1, 1669466, Control_c, 0, 64, 46
1, 1669467, Control_c, 0, 67, 60
1, 1669484, Control_c, 0, 64, 55
1, 1669503, Control_c, 0, 64, 63
1, 1669524, Control_c, 0, 64, 69
1, 1669525, Control_c, 0, 67, 56
1, 1669540, Control_c, 0, 64, 72
1, 1669559, Control_c, 0, 64, 74
1, 1669577, Control_c, 0, 64, 77
1, 1669597, Control_c, 0, 64, 80
1, 1669598, Control_c, 0, 67, 52
1, 1669615, Control_c, 0, 64, 84
1, 1669626, Note_off_c, 0, 48, 47
1, 1669626, Poly_aftertouch_c, 0, 48, 0
1, 1669634, Control_c, 0, 64, 89
1, 1669635, Control_c, 0, 67, 46
1, 1669653, Control_c, 0, 64, 94
1, 1669655, Control_c, 0, 67, 42
1, 1669671, Control_c, 0, 64, 99
1, 1669690, Control_c, 0, 64, 105
1, 1669691, Control_c, 0, 67, 36
1, 1669709, Control_c, 0, 64, 111
1, 1669720, Note_off_c, 0, 43, 30
1, 1669727, Control_c, 0, 64, 117
1, 1669728, Control_c, 0, 67, 32
1, 1669745, Control_c, 0, 64, 122
1, 1669754, Note_off_c, 0, 36, 40
1, 1669765, Control_c, 0, 64, 127
1, 1669767, Control_c, 0, 67, 26
1, 1669787, Note_off_c, 0, 55, 38
1, 1669802, Control_c, 0, 67, 21
1, 1669840, Control_c, 0, 67, 17
1, 1669842, Note_off_c, 0, 60, 33
1, 1669857, Note_off_c, 0, 64, 36
1, 1669876, Control_c, 0, 67, 12
1, 1669933, Control_c, 0, 67, 8
1, 1670157, Control_c, 0, 67, 0
1, 1670176, Control_c, 0, 64, 117
1, 1670196, Control_c, 0, 64, 71
1, 1670214, Control_c, 0, 64, 0
1, 1670552, Note_on_c, 0, 89, 64
1, 1670553, Note_on_c, 0, 92, 69
1, 1670560, Note_on_c, 0, 80, 57
1, 1670564, Note_on_c, 0, 86, 59
1, 1670566, Note_on_c, 0, 83, 55
1, 1670569, Note_on_c, 0, 24, 47
1, 1670580, Note_on_c, 0, 36, 34
1, 1670588, Note_off_c, 0, 80, 60
1, 1670588, Control_c, 0, 64, 53
1, 1670597, Note_off_c, 0, 89, 56
1, 1670597, Poly_aftertouch_c, 0, 89, 0
1, 1670601, Note_off_c, 0, 86, 68
1, 1670602, Note_off_c, 0, 92, 51
1, 1670605, Note_off_c, 0, 83, 64
1, 1670605, Control_c, 0, 64, 80
1, 1670620, Note_off_c, 0, 24, 57
1, 1670624, Note_off_c, 0, 36, 46
1, 1670624, Control_c, 0, 64, 112
1, 1670643, Control_c, 0, 64, 127
1, 1670877, Note_on_c, 0, 91, 71
1, 1670887, Note_on_c, 0, 86, 65
1, 1670887, Control_c, 0, 64, 97
1, 1670890, Note_on_c, 0, 79, 67
1, 1670894, Note_on_c, 0, 83, 61
1, 1670894, Note_on_c, 0, 24, 63
1, 1670906, Control_c, 0, 64, 40
1, 1670908, Note_on_c, 0, 36, 47
1, 1670908, Control_c, 0, 67, 11
1, 1670923, Note_off_c, 0, 91, 62
1, 1670924, Control_c, 0, 64, 0
1, 1670925, Control_c, 0, 67, 21
1, 1670928, Note_off_c, 0, 79, 65
1, 1670932, Note_off_c, 0, 86, 62
1, 1670939, Note_off_c, 0, 83, 61
1, 1670941, Note_off_c, 0, 24, 62
1, 1670942, Control_c, 0, 67, 38
1, 1670943, Note_off_c, 0, 36, 35
1, 1670961, Control_c, 0, 67, 57
1, 1670982, Control_c, 0, 67, 70
1, 1670999, Control_c, 0, 67, 77
1, 1671017, Control_c, 0, 67, 81
1, 1671047, Note_on_c, 0, 89, 72
1, 1671048, Note_on_c, 0, 36, 59
1, 1671055, Note_on_c, 0, 77, 63
1, 1671057, Note_on_c, 0, 86, 63
1, 1671058, Note_on_c, 0, 24, 63
1, 1671067, Note_on_c, 0, 83, 57
1, 1671073, Control_c, 0, 67, 88
1, 1671090, Note_off_c, 0, 77, 59
1, 1671091, Control_c, 0, 67, 93
1, 1671094, Note_off_c, 0, 36, 60
1, 1671096, Note_off_c, 0, 86, 62
1, 1671104, Note_off_c, 0, 24, 57
1, 1671107, Note_off_c, 0, 83, 66
1, 1671107, Note_off_c, 0, 89, 57
1, 1671107, Poly_aftertouch_c, 0, 89, 0
1, 1671130, Control_c, 0, 67, 97
1, 1671186, Control_c, 0, 67, 103
1, 1671205, Control_c, 0, 67, 110
1, 1671222, Control_c, 0, 67, 115
1, 1671223, Note_on_c, 0, 88, 83
1, 1671224, Note_on_c, 0, 24, 65
1, 1671232, Note_on_c, 0, 76, 75
1, 1671234, Note_on_c, 0, 84, 79
1, 1671238, Note_on_c, 0, 36, 49
1, 1671261, Note_off_c, 0, 76, 70
1, 1671261, Note_off_c, 0, 84, 71
1, 1671261, Control_c, 0, 67, 119
1, 1671262, Note_off_c, 0, 24, 60
1, 1671268, Note_off_c, 0, 88, 62
1, 1671275, Note_off_c, 0, 36, 50
1, 1671469, Control_c, 0, 67, 114
1, 1671499, Note_on_c, 0, 89, 73
1, 1671503, Control_c, 0, 67, 109
1, 1671511, Note_on_c, 0, 24, 65
1, 1671513, Note_on_c, 0, 77, 53
1, 1671527, Note_off_c, 0, 89, 68
1, 1671527, Poly_aftertouch_c, 0, 89, 0
1, 1671542, Note_off_c, 0, 77, 42
1, 1671542, Control_c, 0, 67, 115
1, 1671560, Control_c, 0, 67, 125
1, 1671576, Note_on_c, 0, 88, 80
1, 1671578, Note_on_c, 0, 91, 87
1, 1671582, Note_on_c, 0, 79, 76
1, 1671587, Note_on_c, 0, 89, 68
1, 1671589, Note_off_c, 0, 24, 64
1, 1671589, Note_on_c, 0, 36, 46
1, 1671589, Note_on_c, 0, 24, 59
1, 1671610, Note_off_c, 0, 79, 70
1, 1671613, Note_off_c, 0, 88, 69
1, 1671617, Note_off_c, 0, 89, 67
1, 1671617, Poly_aftertouch_c, 0, 89, 0
1, 1671619, Note_off_c, 0, 24, 59
1, 1671619, Note_off_c, 0, 91, 65
1, 1671627, Note_off_c, 0, 36, 62
1, 1672102, Control_c, 0, 67, 120
1, 1672126, Note_on_c, 0, 76, 63
1, 1672158, Control_c, 0, 67, 115
1, 1672196, Control_c, 0, 67, 110
1, 1672233, Control_c, 0, 67, 104
1, 1672271, Control_c, 0, 67, 100
1, 1672327, Control_c, 0, 67, 94
1, 1672364, Control_c, 0, 67, 88
1, 1672375, Note_on_c, 0, 67, 48
1, 1672378, Note_on_c, 0, 70, 50
1, 1672380, Note_on_c, 0, 60, 38
1, 1672403, Control_c, 0, 67, 83
1, 1672438, Control_c, 0, 67, 76
1, 1672459, Control_c, 0, 67, 72
1, 1672476, Control_c, 0, 67, 66
1, 1672495, Control_c, 0, 64, 21
1, 1672497, Control_c, 0, 67, 58
1, 1672516, Control_c, 0, 64, 40
1, 1672517, Control_c, 0, 67, 51
1, 1672533, Control_c, 0, 64, 58
1, 1672534, Control_c, 0, 67, 43
1, 1672551, Control_c, 0, 64, 72
1, 1672552, Control_c, 0, 67, 37
1, 1672570, Control_c, 0, 64, 79
1, 1672572, Control_c, 0, 67, 30
1, 1672589, Control_c, 0, 64, 87
1, 1672591, Control_c, 0, 67, 23
1, 1672608, Control_c, 0, 64, 96
1, 1672609, Control_c, 0, 67, 15
1, 1672625, Control_c, 0, 64, 108
1, 1672645, Control_c, 0, 64, 118
1, 1672664, Control_c, 0, 64, 124
1, 1672720, Control_c, 0, 67, 0
1, 1672742, Note_on_c, 0, 78, 74
1, 1672756, Note_on_c, 0, 66, 50
1, 1672782, Note_off_c, 0, 60, 53
1, 1672800, Note_off_c, 0, 76, 57
1, 1672862, Note_off_c, 0, 67, 36
1, 1672862, Poly_aftertouch_c, 0, 67, 0
1, 1672865, Note_off_c, 0, 70, 34
1, 1672865, Poly_aftertouch_c, 0, 70, 0
1, 1672977, Note_on_c, 0, 79, 79
1, 1672982, Note_off_c, 0, 66, 36
1, 1672982, Poly_aftertouch_c, 0, 66, 0
1, 1673009, Note_on_c, 0, 64, 50
1, 1673012, Note_on_c, 0, 71, 58
1, 1673018, Note_on_c, 0, 59, 51
1, 1673037, Control_c, 0, 64, 109
1, 1673055, Control_c, 0, 64, 83
1, 1673076, Control_c, 0, 64, 52
1, 1673093, Control_c, 0, 64, 0
1, 1673095, Note_off_c, 0, 78, 39
1, 1673167, Control_c, 0, 64, 33
1, 1673187, Control_c, 0, 64, 55
1, 1673205, Control_c, 0, 64, 75
1, 1673225, Control_c, 0, 64, 93
1, 1673242, Control_c, 0, 64, 112
1, 1673261, Control_c, 0, 64, 127
1, 1673364, Note_off_c, 0, 71, 57
1, 1673384, Note_off_c, 0, 59, 60
1, 1673394, Note_on_c, 0, 66, 64
1, 1673454, Note_off_c, 0, 64, 54
1, 1673667, Note_on_c, 0, 76, 68
1, 1673691, Note_on_c, 0, 72, 54
1, 1673692, Control_c, 0, 64, 123
1, 1673707, Note_on_c, 0, 67, 46
1, 1673709, Note_on_c, 0, 58, 48
1, 1673711, Control_c, 0, 64, 116
1, 1673729, Control_c, 0, 64, 108
1, 1673748, Control_c, 0, 64, 97
1, 1673767, Control_c, 0, 64, 86
1, 1673781, Note_off_c, 0, 79, 42
1, 1673785, Control_c, 0, 64, 73
1, 1673795, Note_off_c, 0, 66, 55
1, 1673795, Poly_aftertouch_c, 0, 66, 0
1, 1673802, Control_c, 0, 64, 61
1, 1673823, Control_c, 0, 64, 46
1, 1673841, Control_c, 0, 64, 0
1, 1673954, Control_c, 0, 64, 19
1, 1673971, Control_c, 0, 64, 35
1, 1673991, Control_c, 0, 64, 51
1, 1674010, Control_c, 0, 64, 65
1, 1674029, Control_c, 0, 64, 74
1, 1674047, Control_c, 0, 64, 79
1, 1674067, Control_c, 0, 64, 86
1, 1674085, Control_c, 0, 64, 92
1, 1674102, Control_c, 0, 64, 97
1, 1674142, Control_c, 0, 64, 101
1, 1674163, Note_on_c, 0, 77, 75
1, 1674221, Note_on_c, 0, 65, 47
1, 1674314, Note_off_c, 0, 76, 57
1, 1674320, Note_off_c, 0, 67, 37
1, 1674320, Poly_aftertouch_c, 0, 67, 0
1, 1674327, Control_c, 0, 64, 96
1, 1674383, Control_c, 0, 64, 91
1, 1674403, Control_c, 0, 64, 88
1, 1674421, Control_c, 0, 64, 84
1, 1674440, Control_c, 0, 64, 80
1, 1674458, Control_c, 0, 64, 75
1, 1674477, Control_c, 0, 64, 70
1, 1674496, Control_c, 0, 64, 65
1, 1674514, Control_c, 0, 64, 60
1, 1674532, Control_c, 0, 64, 55
1, 1674553, Control_c, 0, 64, 47
1, 1674570, Control_c, 0, 64, 35
1, 1674575, Note_on_c, 0, 79, 73
1, 1674589, Control_c, 0, 64, 0
1, 1674648, Note_off_c, 0, 65, 51
1, 1674655, Note_on_c, 0, 64, 46
1, 1674690, Note_off_c, 0, 77, 57
1, 1674795, Control_c, 0, 64, 16
1, 1674814, Control_c, 0, 64, 57
1, 1674833, Control_c, 0, 64, 80
1, 1674842, Note_off_c, 0, 72, 55
1, 1674850, Control_c, 0, 64, 109
1, 1674870, Control_c, 0, 64, 127
1, 1674912, Note_off_c, 0, 64, 55
1, 1674922, Note_off_c, 0, 79, 55
1, 1674926, Note_off_c, 0, 58, 58
1, 1674926, Poly_aftertouch_c, 0, 58, 0
1, 1675007, Note_on_c, 0, 72, 82
1, 1675140, Note_on_c, 0, 56, 56
1, 1675185, Note_on_c, 0, 60, 49
1, 1675203, Note_off_c, 0, 72, 59
1, 1675206, Control_c, 0, 64, 116
1, 1675226, Control_c, 0, 64, 60
1, 1675236, Note_on_c, 0, 68, 95
1, 1675239, Note_on_c, 0, 84, 90
1, 1675240, Note_on_c, 0, 77, 89
1, 1675241, Note_on_c, 0, 65, 62
1, 1675245, Control_c, 0, 64, 0
1, 1675262, Control_c, 0, 67, 10
1, 1675272, Note_off_c, 0, 68, 62
1, 1675274, Note_off_c, 0, 65, 65
1, 1675283, Note_off_c, 0, 56, 63
1, 1675287, Note_off_c, 0, 60, 63
1, 1675288, Note_off_c, 0, 77, 62
1, 1675295, Note_off_c, 0, 84, 66
1, 1675299, Control_c, 0, 67, 14
1, 1675318, Control_c, 0, 67, 18
1, 1675336, Control_c, 0, 67, 22
1, 1675503, Note_on_c, 0, 79, 73
1, 1675508, Note_on_c, 0, 82, 58
1, 1675550, Note_on_c, 0, 80, 88
1, 1675552, Note_on_c, 0, 77, 80
1, 1675565, Note_on_c, 0, 61, 100
1, 1675567, Note_on_c, 0, 49, 90
1, 1675570, Note_off_c, 0, 82, 40
1, 1675582, Note_off_c, 0, 79, 62
1, 1675594, Note_off_c, 0, 77, 60
1, 1675596, Note_off_c, 0, 80, 67
1, 1675636, Control_c, 0, 67, 26
1, 1675774, Note_on_c, 0, 68, 87
1, 1675777, Note_on_c, 0, 77, 83
1, 1675779, Note_off_c, 0, 61, 53
1, 1675804, Note_off_c, 0, 77, 65
1, 1675804, Control_c, 0, 67, 30
1, 1675806, Note_off_c, 0, 49, 50
1, 1675806, Poly_aftertouch_c, 0, 49, 0
1, 1675814, Note_off_c, 0, 68, 65
1, 1675938, Note_on_c, 0, 65, 86
1, 1675940, Note_on_c, 0, 48, 80
1, 1675940, Note_on_c, 0, 60, 82
1, 1675941, Note_on_c, 0, 68, 87
1, 1675979, Note_off_c, 0, 60, 63
1, 1675982, Note_off_c, 0, 68, 65
1, 1675989, Note_off_c, 0, 65, 63
1, 1676002, Note_off_c, 0, 48, 63
1, 1676002, Poly_aftertouch_c, 0, 48, 0
1, 1676117, Note_on_c, 0, 56, 86
1, 1676121, Note_on_c, 0, 65, 82
1, 1676128, Note_on_c, 0, 60, 73
1, 1676130, Note_on_c, 0, 44, 75
1, 1676161, Note_off_c, 0, 65, 64
1, 1676163, Note_off_c, 0, 56, 55
1, 1676165, Note_off_c, 0, 60, 66
1, 1676180, Note_off_c, 0, 44, 58
1, 1676307, Note_on_c, 0, 51, 82
1, 1676307, Note_on_c, 0, 43, 80
1, 1676310, Note_on_c, 0, 55, 89
1, 1676316, Note_on_c, 0, 63, 90
1, 1676317, Note_on_c, 0, 60, 81
1, 1676319, Note_on_c, 0, 72, 90
1, 1676336, Control_c, 0, 64, 21
1, 1676340, Note_off_c, 0, 63, 69
1, 1676342, Note_off_c, 0, 43, 70
1, 1676343, Note_off_c, 0, 60, 72
1, 1676343, Note_off_c, 0, 51, 66
1, 1676343, Note_off_c, 0, 55, 67
1, 1676346, Control_c, 0, 64, 101
1, 1676349, Control_c, 0, 67, 25
1, 1676366, Control_c, 0, 64, 127
1, 1676367, Control_c, 0, 67, 21
1, 1676368, Note_off_c, 0, 72, 65
1, 1676384, Control_c, 0, 67, 16
1, 1676404, Control_c, 0, 67, 10
1, 1676565, Note_on_c, 0, 68, 86
1, 1676582, Note_on_c, 0, 65, 71
1, 1676610, Control_c, 0, 64, 111
1, 1676611, Control_c, 0, 67, 0
1, 1676615, Note_off_c, 0, 65, 69
1, 1676616, Note_off_c, 0, 68, 62
1, 1676627, Control_c, 0, 64, 47
1, 1676641, Note_on_c, 0, 85, 95
1, 1676641, Note_on_c, 0, 75, 94
1, 1676642, Note_on_c, 0, 73, 93
1, 1676647, Control_c, 0, 64, 0
1, 1676660, Note_on_c, 0, 63, 88
1, 1676662, Note_on_c, 0, 67, 89
1, 1676703, Note_off_c, 0, 67, 63
1, 1676703, Poly_aftertouch_c, 0, 67, 0
1, 1676726, Note_off_c, 0, 63, 59
1, 1676816, Note_on_c, 0, 63, 80
1, 1676836, Note_off_c, 0, 75, 57
1, 1676840, Note_on_c, 0, 55, 43
1, 1676843, Note_off_c, 0, 73, 57
1, 1676843, Poly_aftertouch_c, 0, 73, 0
1, 1676845, Note_off_c, 0, 63, 72
1, 1676863, Note_on_c, 0, 53, 30
1, 1676863, Poly_aftertouch_c, 0, 53, 0
1, 1676864, Note_off_c, 0, 53, 127
1, 1676869, Note_off_c, 0, 85, 54
1, 1676874, Note_off_c, 0, 55, 59
1, 1676913, Poly_aftertouch_c, 0, 62, 0
1, 1676990, Note_on_c, 0, 84, 87
1, 1676991, Note_on_c, 0, 55, 79
1, 1676994, Note_on_c, 0, 75, 81
1, 1676999, Note_on_c, 0, 72, 78
1, 1677003, Note_on_c, 0, 51, 82
1, 1677029, Note_off_c, 0, 72, 68
1, 1677035, Note_off_c, 0, 84, 65
1, 1677036, Note_off_c, 0, 55, 65
1, 1677039, Note_off_c, 0, 51, 69
1, 1677047, Note_off_c, 0, 75, 62
1, 1677189, Note_on_c, 0, 51, 90
1, 1677191, Note_on_c, 0, 79, 80
1, 1677196, Note_on_c, 0, 75, 73
1, 1677196, Note_on_c, 0, 67, 87
1, 1677199, Note_on_c, 0, 48, 80
1, 1677218, Note_off_c, 0, 79, 71
1, 1677225, Note_off_c, 0, 67, 65
1, 1677225, Poly_aftertouch_c, 0, 67, 0
1, 1677229, Note_off_c, 0, 75, 52
1, 1677231, Note_off_c, 0, 51, 60
1, 1677232, Note_off_c, 0, 48, 70
1, 1677232, Poly_aftertouch_c, 0, 48, 0
1, 1677278, Poly_aftertouch_c, 0, 73, 0
1, 1677305, Poly_aftertouch_c, 0, 76, 0
1, 1677432, Note_on_c, 0, 55, 87
1, 1677435, Note_on_c, 0, 62, 95
1, 1677436, Note_on_c, 0, 60, 94
1, 1677437, Note_on_c, 0, 43, 81
1, 1677457, Note_off_c, 0, 55, 72
1, 1677468, Note_off_c, 0, 43, 67
1, 1677907, Note_on_c, 0, 68, 99
1, 1677919, Note_on_c, 0, 56, 85
1, 1677993, Control_c, 0, 64, 16
1, 1678012, Control_c, 0, 64, 43
1, 1678029, Control_c, 0, 64, 56
1, 1678049, Control_c, 0, 64, 70
1, 1678066, Control_c, 0, 64, 83
1, 1678086, Control_c, 0, 64, 97
1, 1678105, Control_c, 0, 64, 112
1, 1678124, Control_c, 0, 64, 127
1, 1678135, Note_off_c, 0, 68, 56
1, 1678192, Note_off_c, 0, 56, 48
1, 1678408, Note_off_c, 0, 62, 51
1, 1678665, Control_c, 0, 64, 114
1, 1678684, Control_c, 0, 64, 95
1, 1678703, Control_c, 0, 64, 69
1, 1678721, Control_c, 0, 64, 23
1, 1678733, Note_on_c, 0, 43, 73
1, 1678740, Control_c, 0, 64, 0
1, 1678743, Note_on_c, 0, 62, 73
1, 1678748, Note_on_c, 0, 59, 72
1, 1678772, Note_off_c, 0, 43, 66
1, 1678817, Note_off_c, 0, 60, 53
1, 1679286, Note_on_c, 0, 68, 82
1, 1679305, Note_on_c, 0, 56, 66
1, 1679544, Control_c, 0, 64, 41
1, 1679551, Note_off_c, 0, 68, 63
1, 1679562, Control_c, 0, 64, 66
1, 1679583, Control_c, 0, 64, 82
1, 1679600, Control_c, 0, 64, 102
1, 1679618, Control_c, 0, 64, 127
1, 1679634, Note_off_c, 0, 59, 61
1, 1679639, Note_off_c, 0, 56, 60
1, 1679644, Note_off_c, 0, 62, 60
1, 1679973, Note_on_c, 0, 67, 89
1, 1679973, Control_c, 0, 64, 121
1, 1679977, Note_on_c, 0, 43, 95
1, 1679993, Control_c, 0, 64, 69
1, 1680012, Control_c, 0, 64, 0
1, 1680197, Note_on_c, 0, 36, 83
1, 1680198, Note_on_c, 0, 72, 94
1, 1680198, Note_on_c, 0, 64, 88
1, 1680200, Note_on_c, 0, 48, 105
1, 1680201, Note_on_c, 0, 60, 94
1, 1680226, Note_off_c, 0, 43, 57
1, 1680229, Note_off_c, 0, 67, 60
1, 1680229, Poly_aftertouch_c, 0, 67, 0
1, 1680233, Note_off_c, 0, 36, 70
1, 1680236, Note_off_c, 0, 60, 65
1, 1680245, Note_off_c, 0, 64, 65
1, 1680245, Note_off_c, 0, 48, 70
1, 1680245, Poly_aftertouch_c, 0, 48, 0
1, 1680262, Note_off_c, 0, 72, 65
1, 1680552, Note_on_c, 0, 73, 91
1, 1680552, Note_on_c, 0, 70, 95
1, 1680554, Note_on_c, 0, 58, 88
1, 1680556, Note_on_c, 0, 61, 86
1, 1680594, Control_c, 0, 64, 37
1, 1680596, Note_off_c, 0, 61, 67
1, 1680602, Note_off_c, 0, 70, 68
1, 1680602, Note_off_c, 0, 73, 66
1, 1680602, Poly_aftertouch_c, 0, 70, 0
1, 1680603, Note_on_c, 0, 62, 40
1, 1680604, Note_off_c, 0, 58, 66
1, 1680604, Poly_aftertouch_c, 0, 58, 0
1, 1680610, Control_c, 0, 64, 105
1, 1680627, Control_c, 0, 64, 127
1, 1680643, Note_off_c, 0, 62, 57
1, 1680854, Control_c, 0, 64, 78
1, 1680873, Control_c, 0, 64, 0
1, 1680934, Note_on_c, 0, 68, 80
1, 1680938, Note_on_c, 0, 60, 75
1, 1680939, Note_on_c, 0, 72, 76
1, 1680939, Note_on_c, 0, 56, 73
1, 1680971, Note_off_c, 0, 60, 68
1, 1680977, Note_off_c, 0, 56, 68
1, 1680988, Note_off_c, 0, 72, 58
1, 1680996, Note_off_c, 0, 68, 62
1, 1681110, Note_on_c, 0, 70, 80
1, 1681115, Note_on_c, 0, 55, 72
1, 1681117, Note_on_c, 0, 58, 70
1, 1681120, Note_on_c, 0, 67, 75
1, 1681150, Note_off_c, 0, 58, 66
1, 1681150, Poly_aftertouch_c, 0, 58, 0
1, 1681152, Note_off_c, 0, 67, 64
1, 1681152, Poly_aftertouch_c, 0, 67, 0
1, 1681160, Note_off_c, 0, 55, 65
1, 1681165, Note_off_c, 0, 70, 62
1, 1681165, Poly_aftertouch_c, 0, 70, 0
1, 1681290, Note_on_c, 0, 56, 85
1, 1681291, Note_on_c, 0, 53, 85
1, 1681296, Note_on_c, 0, 65, 91
1, 1681298, Note_on_c, 0, 68, 89
1, 1681301, Control_c, 0, 67, 11
1, 1681321, Control_c, 0, 67, 27
1, 1681332, Note_off_c, 0, 68, 68
1, 1681334, Note_off_c, 0, 65, 66
1, 1681340, Note_off_c, 0, 53, 61
1, 1681340, Poly_aftertouch_c, 0, 53, 0
1, 1681344, Note_off_c, 0, 56, 63
1, 1681568, Note_on_c, 0, 58, 78
1, 1681572, Note_on_c, 0, 55, 75
1, 1681572, Note_on_c, 0, 70, 79
1, 1681580, Note_on_c, 0, 67, 65
1, 1681600, Note_off_c, 0, 70, 71
1, 1681600, Poly_aftertouch_c, 0, 70, 0
1, 1681602, Note_off_c, 0, 55, 69
1, 1681605, Note_off_c, 0, 67, 63
1, 1681605, Poly_aftertouch_c, 0, 67, 0
1, 1681606, Note_off_c, 0, 58, 67
1, 1681606, Poly_aftertouch_c, 0, 58, 0
1, 1681642, Note_on_c, 0, 60, 88
1, 1681649, Note_on_c, 0, 72, 85
1, 1681650, Note_on_c, 0, 56, 86
1, 1681654, Note_on_c, 0, 68, 89
1, 1681681, Note_off_c, 0, 72, 67
1, 1681685, Note_off_c, 0, 56, 66
1, 1681686, Note_off_c, 0, 60, 66
1, 1681692, Note_off_c, 0, 68, 65
1, 1681825, Control_c, 0, 64, 46
1, 1681844, Control_c, 0, 64, 71
1, 1681883, Control_c, 0, 64, 62
1, 1681900, Control_c, 0, 64, 50
1, 1681918, Control_c, 0, 64, 28
1, 1681938, Control_c, 0, 64, 0
1, 1682188, Note_on_c, 0, 48, 81
1, 1682390, Note_on_c, 0, 51, 80
1, 1682394, Note_on_c, 0, 56, 76
1, 1682394, Note_on_c, 0, 60, 80
1, 1682395, Note_on_c, 0, 44, 90
1, 1682395, Note_on_c, 0, 32, 87
1, 1682415, Note_off_c, 0, 48, 38
1, 1682415, Poly_aftertouch_c, 0, 48, 0
1, 1682425, Note_off_c, 0, 44, 71
1, 1682427, Note_off_c, 0, 32, 69
1, 1682428, Note_off_c, 0, 51, 67
1, 1682436, Note_off_c, 0, 56, 64
1, 1682447, Note_off_c, 0, 60, 62
1, 1682761, Note_on_c, 0, 61, 84
1, 1682761, Note_on_c, 0, 56, 87
1, 1682761, Note_on_c, 0, 53, 85
1, 1682770, Note_on_c, 0, 37, 95
1, 1682772, Note_on_c, 0, 25, 88
1, 1682778, Control_c, 0, 67, 21
1, 1682798, Control_c, 0, 64, 111
1, 1682801, Note_off_c, 0, 53, 67
1, 1682801, Poly_aftertouch_c, 0, 53, 0
1, 1682801, Control_c, 0, 67, 14
1, 1682804, Note_off_c, 0, 37, 70
1, 1682805, Note_off_c, 0, 25, 68
1, 1682814, Note_off_c, 0, 61, 63
1, 1682816, Note_off_c, 0, 56, 64
1, 1682817, Control_c, 0, 64, 127
1, 1682818, Control_c, 0, 67, 9
1, 1683041, Control_c, 0, 64, 89
1, 1683060, Control_c, 0, 64, 0
1, 1683149, Note_on_c, 0, 27, 75
1, 1683150, Note_on_c, 0, 39, 74
1, 1683156, Note_on_c, 0, 60, 68
1, 1683157, Note_on_c, 0, 55, 64
1, 1683161, Note_on_c, 0, 49, 73
1, 1683193, Note_off_c, 0, 39, 62
1, 1683197, Note_off_c, 0, 27, 64
1, 1683197, Poly_aftertouch_c, 0, 27, 0
1, 1683199, Note_off_c, 0, 60, 64
1, 1683204, Note_off_c, 0, 49, 64
1, 1683204, Poly_aftertouch_c, 0, 49, 0
1, 1683251, Note_off_c, 0, 55, 60
1, 1683331, Note_on_c, 0, 58, 73
1, 1683332, Note_on_c, 0, 27, 80
1, 1683334, Note_on_c, 0, 49, 73
1, 1683335, Note_on_c, 0, 39, 75
1, 1683337, Note_on_c, 0, 55, 55
1, 1683371, Note_off_c, 0, 27, 68
1, 1683371, Poly_aftertouch_c, 0, 27, 0
1, 1683374, Note_off_c, 0, 39, 63
1, 1683378, Note_off_c, 0, 49, 63
1, 1683378, Poly_aftertouch_c, 0, 49, 0
1, 1683390, Note_off_c, 0, 55, 63
1, 1683415, Note_off_c, 0, 58, 61
1, 1683415, Poly_aftertouch_c, 0, 58, 0
1, 1683525, Note_on_c, 0, 48, 87
1, 1683529, Note_on_c, 0, 56, 80
1, 1683531, Note_on_c, 0, 44, 91
1, 1683537, Note_on_c, 0, 32, 88
1, 1683560, Note_off_c, 0, 48, 69
1, 1683560, Poly_aftertouch_c, 0, 48, 0
1, 1683562, Note_off_c, 0, 44, 69
1, 1683567, Note_off_c, 0, 56, 68
1, 1683571, Note_off_c, 0, 32, 68
1, 1683795, Note_on_c, 0, 51, 69
1, 1683796, Note_on_c, 0, 58, 69
1, 1683803, Note_on_c, 0, 32, 74
1, 1683827, Note_off_c, 0, 51, 64
1, 1683846, Note_off_c, 0, 32, 65
1, 1683866, Note_on_c, 0, 44, 87
1, 1683867, Note_on_c, 0, 60, 80
1, 1683872, Note_on_c, 0, 56, 80
1, 1683886, Note_off_c, 0, 58, 36
1, 1683886, Poly_aftertouch_c, 0, 58, 0
1, 1683899, Note_off_c, 0, 44, 70
1, 1683903, Note_off_c, 0, 60, 67
1, 1683907, Note_off_c, 0, 56, 69
1, 1683920, Control_c, 0, 64, 10
1, 1683921, Control_c, 0, 67, 13
1, 1684013, Control_c, 0, 64, 0
1, 1684106, Control_c, 0, 67, 9
1, 1684399, Note_on_c, 0, 56, 73
1, 1684536, Control_c, 0, 67, 0
1, 1684584, Note_on_c, 0, 66, 70
1, 1684585, Note_on_c, 0, 63, 70
1, 1684603, Note_off_c, 0, 56, 64
1, 1684603, Note_on_c, 0, 56, 44
1, 1684607, Note_on_c, 0, 44, 66
1, 1684614, Note_off_c, 0, 66, 72
1, 1684614, Poly_aftertouch_c, 0, 66, 0
1, 1684616, Note_off_c, 0, 63, 69
1, 1684946, Note_on_c, 0, 65, 75
1, 1684946, Note_on_c, 0, 68, 80
1, 1684985, Control_c, 0, 64, 22
1, 1685004, Control_c, 0, 64, 60
1, 1685023, Control_c, 0, 64, 73
1, 1685038, Note_off_c, 0, 44, 55
1, 1685039, Note_off_c, 0, 56, 60
1, 1685042, Control_c, 0, 64, 93
1, 1685059, Control_c, 0, 64, 127
1, 1685113, Note_off_c, 0, 65, 59
1, 1685122, Note_off_c, 0, 68, 60
1, 1685126, Note_on_c, 0, 57, 81
1, 1685136, Note_on_c, 0, 45, 74
1, 1685172, Control_c, 0, 64, 96
1, 1685191, Control_c, 0, 64, 56
1, 1685210, Control_c, 0, 64, 0
1, 1685281, Note_on_c, 0, 66, 70
1, 1685285, Note_on_c, 0, 63, 70
1, 1685320, Note_off_c, 0, 66, 63
1, 1685320, Poly_aftertouch_c, 0, 66, 0
1, 1685322, Note_off_c, 0, 63, 65
1, 1685437, Note_on_c, 0, 63, 80
1, 1685443, Note_on_c, 0, 60, 73
1, 1685479, Note_off_c, 0, 60, 67
1, 1685480, Note_off_c, 0, 63, 62
1, 1685502, Note_off_c, 0, 45, 59
1, 1685508, Note_off_c, 0, 57, 60
1, 1685628, Note_on_c, 0, 62, 85
1, 1685639, Note_on_c, 0, 58, 87
1, 1685645, Note_on_c, 0, 46, 77
1, 1685678, Note_off_c, 0, 62, 60
1, 1685888, Note_on_c, 0, 60, 70
1, 1685895, Note_on_c, 0, 63, 67
1, 1685918, Note_off_c, 0, 60, 68
1, 1685932, Note_off_c, 0, 63, 65
1, 1685958, Note_on_c, 0, 62, 80
1, 1685959, Note_on_c, 0, 65, 74
1, 1685991, Note_off_c, 0, 62, 66
1, 1685995, Note_off_c, 0, 65, 65
1, 1686038, Note_off_c, 0, 58, 63
1, 1686038, Poly_aftertouch_c, 0, 58, 0
1, 1686047, Note_off_c, 0, 46, 61
1, 1686144, Note_on_c, 0, 59, 82
1, 1686154, Note_on_c, 0, 47, 74
1, 1686406, Control_c, 0, 64, 18
1, 1686426, Control_c, 0, 64, 36
1, 1686445, Control_c, 0, 64, 52
1, 1686462, Control_c, 0, 64, 66
1, 1686481, Control_c, 0, 64, 74
1, 1686494, Note_on_c, 0, 56, 77
1, 1686498, Control_c, 0, 64, 82
1, 1686504, Note_off_c, 0, 47, 37
1, 1686519, Control_c, 0, 64, 92
1, 1686534, Note_off_c, 0, 59, 53
1, 1686536, Control_c, 0, 64, 104
1, 1686556, Control_c, 0, 64, 116
1, 1686576, Control_c, 0, 64, 124
1, 1686588, Note_off_c, 0, 56, 54
1, 1686592, Control_c, 0, 64, 119
1, 1686612, Control_c, 0, 64, 95
1, 1686632, Control_c, 0, 64, 46
1, 1686642, Poly_aftertouch_c, 0, 55, 0
1, 1686651, Control_c, 0, 64, 0
1, 1686670, Note_on_c, 0, 65, 81
1, 1686671, Note_on_c, 0, 68, 87
1, 1686673, Note_on_c, 0, 60, 90
1, 1686674, Note_on_c, 0, 48, 80
1, 1686711, Note_off_c, 0, 65, 66
1, 1686733, Note_off_c, 0, 68, 63
1, 1687004, Note_on_c, 0, 67, 88
1, 1687010, Note_on_c, 0, 70, 88
1, 1687058, Note_off_c, 0, 48, 63
1, 1687058, Poly_aftertouch_c, 0, 48, 0
1, 1687075, Note_off_c, 0, 60, 62
1, 1687079, Control_c, 0, 64, 70
1, 1687099, Control_c, 0, 64, 101
1, 1687117, Control_c, 0, 64, 127
1, 1687163, Note_off_c, 0, 67, 59
1, 1687163, Poly_aftertouch_c, 0, 67, 0
1, 1687179, Note_off_c, 0, 70, 59
1, 1687179, Poly_aftertouch_c, 0, 70, 0
1, 1687203, Note_on_c, 0, 61, 93
1, 1687214, Note_on_c, 0, 49, 80
1, 1687267, Control_c, 0, 64, 121
1, 1687287, Control_c, 0, 64, 81
1, 1687305, Control_c, 0, 64, 37
1, 1687324, Control_c, 0, 64, 0
1, 1687353, Note_on_c, 0, 69, 81
1, 1687362, Note_on_c, 0, 66, 74
1, 1687411, Note_off_c, 0, 66, 61
1, 1687411, Poly_aftertouch_c, 0, 66, 0
1, 1687413, Note_off_c, 0, 69, 57
1, 1687413, Poly_aftertouch_c, 0, 69, 0
1, 1687524, Note_on_c, 0, 67, 80
1, 1687533, Note_on_c, 0, 64, 72
1, 1687578, Note_off_c, 0, 64, 63
1, 1687585, Note_off_c, 0, 67, 58
1, 1687585, Poly_aftertouch_c, 0, 67, 0
1, 1687643, Note_off_c, 0, 61, 57
1, 1687645, Note_off_c, 0, 49, 54
1, 1687645, Poly_aftertouch_c, 0, 49, 0
1, 1687716, Note_on_c, 0, 62, 95
1, 1687717, Note_on_c, 0, 66, 83
1, 1687729, Note_on_c, 0, 50, 82
1, 1687751, Note_off_c, 0, 66, 67
1, 1687751, Poly_aftertouch_c, 0, 66, 0
1, 1687971, Note_on_c, 0, 64, 69
1, 1687971, Note_on_c, 0, 67, 71
1, 1688003, Note_off_c, 0, 64, 69
1, 1688033, Note_on_c, 0, 69, 83
1, 1688048, Note_off_c, 0, 67, 60
1, 1688048, Poly_aftertouch_c, 0, 67, 0
1, 1688049, Note_on_c, 0, 66, 83
1, 1688081, Note_off_c, 0, 69, 61
1, 1688081, Poly_aftertouch_c, 0, 69, 0
1, 1688109, Note_off_c, 0, 66, 62
1, 1688109, Poly_aftertouch_c, 0, 66, 0
1, 1688116, Note_off_c, 0, 50, 56
1, 1688125, Note_off_c, 0, 62, 57
1, 1688256, Note_on_c, 0, 63, 97
1, 1688266, Note_on_c, 0, 51, 83
1, 1688287, Note_on_c, 0, 54, 44
1, 1688323, Note_off_c, 0, 54, 57
1, 1688332, Control_c, 0, 64, 65
1, 1688351, Control_c, 0, 64, 95
1, 1688370, Control_c, 0, 64, 127
1, 1688584, Note_off_c, 0, 63, 52
1, 1688589, Note_on_c, 0, 60, 81
1, 1688613, Note_off_c, 0, 51, 53
1, 1688684, Note_off_c, 0, 60, 59
1, 1688745, Control_c, 0, 64, 123
1, 1688762, Control_c, 0, 64, 66
1, 1688766, Note_on_c, 0, 69, 87
1, 1688769, Note_on_c, 0, 72, 86
1, 1688780, Note_on_c, 0, 64, 97
1, 1688781, Control_c, 0, 64, 0
1, 1688783, Note_on_c, 0, 52, 91
1, 1688805, Note_off_c, 0, 69, 62
1, 1688805, Poly_aftertouch_c, 0, 69, 0
1, 1688823, Note_off_c, 0, 72, 63
1, 1689008, Note_on_c, 0, 74, 83
1, 1689010, Note_on_c, 0, 71, 85
1, 1689039, Note_off_c, 0, 74, 65
1, 1689041, Note_off_c, 0, 71, 67
1, 1689088, Note_on_c, 0, 76, 95
1, 1689099, Note_on_c, 0, 72, 88
1, 1689112, Note_on_c, 0, 71, 48
1, 1689120, Note_off_c, 0, 64, 55
1, 1689140, Note_off_c, 0, 71, 60
1, 1689142, Note_off_c, 0, 52, 59
1, 1689143, Note_off_c, 0, 76, 66
1, 1689152, Note_off_c, 0, 72, 60
1, 1689185, Poly_aftertouch_c, 0, 74, 0
1, 1689300, Note_on_c, 0, 63, 99
1, 1689306, Note_on_c, 0, 57, 78
1, 1689312, Note_on_c, 0, 51, 84
1, 1689342, Control_c, 0, 64, 29
1, 1689361, Control_c, 0, 64, 96
1, 1689380, Control_c, 0, 64, 127
1, 1689538, Note_on_c, 0, 76, 81
1, 1689616, Note_on_c, 0, 77, 97
1, 1689618, Note_on_c, 0, 72, 94
1, 1689623, Note_on_c, 0, 69, 95
1, 1689626, Note_off_c, 0, 57, 59
1, 1689657, Note_off_c, 0, 76, 61
1, 1689686, Note_off_c, 0, 51, 49
1, 1689693, Note_off_c, 0, 63, 56
1, 1689818, Note_off_c, 0, 72, 57
1, 1689838, Note_off_c, 0, 69, 53
1, 1689838, Poly_aftertouch_c, 0, 69, 0
1, 1689850, Note_on_c, 0, 62, 98
1, 1689852, Note_on_c, 0, 50, 83
1, 1689854, Note_on_c, 0, 58, 83
1, 1689865, Note_on_c, 0, 53, 72
1, 1689868, Control_c, 0, 64, 95
1, 1689873, Note_off_c, 0, 77, 50
1, 1689884, Control_c, 0, 64, 35
1, 1689903, Control_c, 0, 64, 0
1, 1689941, Control_c, 0, 64, 54
1, 1689960, Control_c, 0, 64, 85
1, 1689980, Control_c, 0, 64, 127
1, 1690048, Note_on_c, 0, 77, 78
1, 1690106, Note_off_c, 0, 77, 60
1, 1690110, Control_c, 0, 64, 115
1, 1690127, Control_c, 0, 64, 74
1, 1690134, Note_on_c, 0, 77, 66
1, 1690136, Note_on_c, 0, 79, 96
1, 1690141, Note_on_c, 0, 67, 101
1, 1690143, Note_on_c, 0, 70, 98
1, 1690146, Control_c, 0, 64, 67
1, 1690165, Control_c, 0, 64, 87
1, 1690179, Note_off_c, 0, 62, 60
1, 1690181, Note_off_c, 0, 58, 61
1, 1690181, Poly_aftertouch_c, 0, 58, 0
1, 1690184, Control_c, 0, 64, 127
1, 1690186, Note_off_c, 0, 50, 61
1, 1690246, Note_off_c, 0, 53, 52
1, 1690246, Poly_aftertouch_c, 0, 53, 0
1, 1690271, Note_off_c, 0, 77, 60
1, 1690352, Control_c, 0, 64, 110
1, 1690356, Note_off_c, 0, 67, 59
1, 1690356, Poly_aftertouch_c, 0, 67, 0
1, 1690363, Note_off_c, 0, 70, 59
1, 1690363, Poly_aftertouch_c, 0, 70, 0
1, 1690371, Note_on_c, 0, 61, 105
1, 1690371, Control_c, 0, 64, 58
1, 1690376, Note_on_c, 0, 59, 83
1, 1690377, Note_on_c, 0, 53, 69
1, 1690380, Note_on_c, 0, 49, 82
1, 1690391, Control_c, 0, 64, 0
1, 1690404, Note_off_c, 0, 79, 60
1, 1690407, Control_c, 0, 64, 37
1, 1690426, Control_c, 0, 64, 83
1, 1690446, Control_c, 0, 64, 127
1, 1690583, Note_on_c, 0, 77, 65
1, 1690614, Control_c, 0, 64, 77
1, 1690624, Note_off_c, 0, 77, 63
1, 1690633, Control_c, 0, 64, 0
1, 1690651, Control_c, 0, 64, 23
1, 1690668, Note_off_c, 0, 59, 61
1, 1690669, Control_c, 0, 64, 72
1, 1690672, Note_on_c, 0, 80, 96
1, 1690673, Note_on_c, 0, 68, 100
1, 1690674, Note_on_c, 0, 71, 80
1, 1690675, Note_on_c, 0, 77, 74
1, 1690677, Poly_aftertouch_c, 0, 79, 0
1, 1690701, Control_c, 0, 64, 127
1, 1690703, Note_off_c, 0, 53, 60
1, 1690703, Poly_aftertouch_c, 0, 53, 0
1, 1690716, Note_off_c, 0, 61, 54
1, 1690729, Note_off_c, 0, 68, 60
1, 1690730, Note_off_c, 0, 71, 58
1, 1690733, Note_off_c, 0, 49, 56
1, 1690733, Poly_aftertouch_c, 0, 49, 0
1, 1690734, Note_off_c, 0, 77, 61
1, 1690774, Note_off_c, 0, 80, 64
1, 1690892, Note_on_c, 0, 48, 69
1, 1690910, Note_on_c, 0, 53, 67
1, 1690911, Control_c, 0, 64, 94
1, 1690919, Note_on_c, 0, 56, 72
1, 1690932, Control_c, 0, 64, 43
1, 1690951, Control_c, 0, 64, 0
1, 1690986, Note_on_c, 0, 60, 98
1, 1690995, Note_on_c, 0, 84, 98
1, 1690997, Note_on_c, 0, 72, 99
1, 1690998, Note_on_c, 0, 80, 89
1, 1691002, Note_on_c, 0, 77, 91
1, 1691024, Control_c, 0, 64, 70
1, 1691026, Note_off_c, 0, 60, 70
1, 1691034, Note_off_c, 0, 48, 65
1, 1691034, Poly_aftertouch_c, 0, 48, 0
1, 1691037, Note_off_c, 0, 72, 67
1, 1691039, Note_off_c, 0, 56, 65
1, 1691043, Control_c, 0, 64, 127
1, 1691047, Note_off_c, 0, 53, 62
1, 1691047, Poly_aftertouch_c, 0, 53, 0
1, 1691051, Note_on_c, 0, 82, 53
1, 1691059, Note_off_c, 0, 77, 64
1, 1691075, Note_off_c, 0, 80, 64
1, 1691080, Note_off_c, 0, 82, 60
1, 1691088, Note_off_c, 0, 84, 69
1, 1691305, Poly_aftertouch_c, 0, 46, 0
1, 1691342, Note_on_c, 0, 36, 87
1, 1691344, Note_on_c, 0, 84, 80
1, 1691381, Control_c, 0, 64, 67
1, 1691401, Control_c, 0, 64, 0
1, 1691408, Note_off_c, 0, 84, 63
1, 1691422, Note_on_c, 0, 92, 80
1, 1691455, Control_c, 0, 64, 36
1, 1691474, Control_c, 0, 64, 81
1, 1691494, Control_c, 0, 64, 127
1, 1691497, Note_on_c, 0, 91, 80
1, 1691505, Note_on_c, 0, 48, 105
1, 1691532, Note_off_c, 0, 92, 64
1, 1691555, Note_on_c, 0, 43, 11
1, 1691556, Note_off_c, 0, 91, 66
1, 1691571, Note_on_c, 0, 82, 81
1, 1691647, Note_off_c, 0, 43, 30
1, 1691648, Note_off_c, 0, 82, 64
1, 1691667, Note_on_c, 0, 80, 83
1, 1691734, Note_off_c, 0, 80, 65
1, 1691748, Note_on_c, 0, 89, 73
1, 1691822, Note_on_c, 0, 87, 79
1, 1691837, Note_off_c, 0, 89, 62
1, 1691837, Poly_aftertouch_c, 0, 89, 0
1, 1691883, Note_off_c, 0, 36, 59
1, 1691885, Note_off_c, 0, 87, 63
1, 1691894, Note_on_c, 0, 79, 80
1, 1691925, Poly_aftertouch_c, 0, 43, 127
1, 1691939, Poly_aftertouch_c, 0, 43, 0
1, 1691940, Note_off_c, 0, 48, 63
1, 1691940, Poly_aftertouch_c, 0, 48, 0
1, 1691944, Poly_aftertouch_c, 0, 38, 0
1, 1691969, Note_on_c, 0, 77, 81
1, 1691972, Note_off_c, 0, 79, 64
1, 1692021, Note_on_c, 0, 85, 75
1, 1692030, Note_off_c, 0, 77, 58
1, 1692034, Control_c, 0, 67, 8
1, 1692116, Note_on_c, 0, 84, 74
1, 1692147, Note_off_c, 0, 85, 62
1, 1692185, Note_off_c, 0, 84, 65
1, 1692194, Note_on_c, 0, 75, 79
1, 1692259, Control_c, 0, 64, 117
1, 1692275, Note_off_c, 0, 75, 59
1, 1692278, Control_c, 0, 64, 72
1, 1692291, Note_on_c, 0, 73, 78
1, 1692296, Control_c, 0, 64, 64
1, 1692298, Note_on_c, 0, 52, 70
1, 1692308, Note_on_c, 0, 55, 65
1, 1692315, Control_c, 0, 64, 92
1, 1692334, Control_c, 0, 64, 127
1, 1692365, Note_off_c, 0, 73, 64
1, 1692375, Note_on_c, 0, 82, 80
1, 1692422, Note_off_c, 0, 52, 61
1, 1692428, Control_c, 0, 64, 106
1, 1692434, Note_off_c, 0, 55, 59
1, 1692447, Control_c, 0, 64, 63
1, 1692458, Note_on_c, 0, 56, 84
1, 1692463, Note_on_c, 0, 80, 72
1, 1692467, Control_c, 0, 64, 64
1, 1692473, Note_on_c, 0, 53, 74
1, 1692478, Note_off_c, 0, 82, 63
1, 1692486, Control_c, 0, 64, 99
1, 1692502, Control_c, 0, 64, 127
1, 1692528, Note_on_c, 0, 72, 73
1, 1692529, Note_off_c, 0, 80, 63
1, 1692577, Control_c, 0, 64, 98
1, 1692579, Note_off_c, 0, 56, 62
1, 1692586, Note_off_c, 0, 53, 62
1, 1692586, Poly_aftertouch_c, 0, 53, 0
1, 1692596, Control_c, 0, 64, 69
1, 1692610, Note_on_c, 0, 55, 77
1, 1692613, Note_on_c, 0, 70, 79
1, 1692613, Control_c, 0, 64, 85
1, 1692614, Note_off_c, 0, 72, 62
1, 1692615, Note_on_c, 0, 58, 91
1, 1692633, Control_c, 0, 64, 127
1, 1692657, Note_on_c, 0, 80, 65
1, 1692690, Note_off_c, 0, 58, 62
1, 1692690, Poly_aftertouch_c, 0, 58, 0
1, 1692706, Note_off_c, 0, 55, 62
1, 1692707, Control_c, 0, 67, 0
1, 1692709, Note_off_c, 0, 70, 64
1, 1692709, Poly_aftertouch_c, 0, 70, 0
1, 1692757, Note_off_c, 0, 80, 66
1, 1692766, Note_on_c, 0, 60, 93
1, 1692768, Note_on_c, 0, 56, 91
1, 1692781, Note_on_c, 0, 77, 80
1, 1692838, Note_off_c, 0, 60, 63
1, 1692864, Note_on_c, 0, 68, 57
1, 1692865, Note_off_c, 0, 77, 61
1, 1692867, Note_off_c, 0, 56, 59
1, 1692901, Note_off_c, 0, 68, 67
1, 1692914, Control_c, 0, 64, 123
1, 1692934, Control_c, 0, 64, 75
1, 1692945, Note_on_c, 0, 61, 97
1, 1692946, Note_on_c, 0, 58, 97
1, 1692949, Note_on_c, 0, 67, 91
1, 1692952, Control_c, 0, 64, 65
1, 1692956, Note_on_c, 0, 76, 87
1, 1692970, Control_c, 0, 64, 98
1, 1692983, Note_off_c, 0, 61, 64
1, 1692985, Note_off_c, 0, 58, 61
1, 1692985, Poly_aftertouch_c, 0, 58, 0
1, 1692989, Control_c, 0, 64, 127
1, 1693000, Note_off_c, 0, 67, 66
1, 1693000, Poly_aftertouch_c, 0, 67, 0
1, 1693011, Note_off_c, 0, 76, 66
1, 1693011, Note_on_c, 0, 75, 16
1, 1693070, Poly_aftertouch_c, 0, 77, 0
1, 1693080, Note_off_c, 0, 75, 42
1, 1693120, Control_c, 0, 64, 104
1, 1693138, Control_c, 0, 64, 68
1, 1693175, Control_c, 0, 64, 0
1, 1693284, Note_on_c, 0, 29, 85
1, 1693291, Note_on_c, 0, 66, 66
1, 1693348, Note_on_c, 0, 75, 69
1, 1693351, Note_off_c, 0, 66, 56
1, 1693351, Poly_aftertouch_c, 0, 66, 0
1, 1693452, Note_off_c, 0, 75, 63
1, 1693452, Note_on_c, 0, 73, 73
1, 1693463, Note_on_c, 0, 41, 97
1, 1693494, Control_c, 0, 64, 45
1, 1693503, Note_off_c, 0, 73, 58
1, 1693510, Control_c, 0, 64, 66
1, 1693531, Control_c, 0, 64, 79
1, 1693539, Note_on_c, 0, 65, 71
1, 1693550, Control_c, 0, 64, 92
1, 1693568, Control_c, 0, 64, 107
1, 1693586, Control_c, 0, 64, 124
1, 1693624, Note_on_c, 0, 63, 79
1, 1693628, Note_off_c, 0, 65, 64
1, 1693644, Control_c, 0, 64, 101
1, 1693661, Control_c, 0, 64, 72
1, 1693681, Control_c, 0, 64, 46
1, 1693699, Control_c, 0, 64, 37
1, 1693705, Note_on_c, 0, 72, 64
1, 1693714, Note_off_c, 0, 63, 61
1, 1693717, Control_c, 0, 64, 43
1, 1693738, Control_c, 0, 64, 53
1, 1693755, Control_c, 0, 64, 64
1, 1693773, Control_c, 0, 64, 76
1, 1693792, Control_c, 0, 64, 96
1, 1693794, Note_on_c, 0, 70, 74
1, 1693800, Note_off_c, 0, 72, 62
1, 1693812, Control_c, 0, 64, 127
1, 1693838, Note_off_c, 0, 70, 64
1, 1693838, Poly_aftertouch_c, 0, 70, 0
1, 1693859, Note_on_c, 0, 61, 80
1, 1693941, Note_on_c, 0, 60, 77
1, 1693943, Control_c, 0, 64, 82
1, 1693962, Control_c, 0, 64, 49
1, 1693999, Control_c, 0, 64, 68
1, 1694017, Control_c, 0, 64, 90
1, 1694025, Note_on_c, 0, 68, 70
1, 1694031, Note_off_c, 0, 61, 50
1, 1694036, Control_c, 0, 64, 121
1, 1694042, Note_off_c, 0, 60, 63
1, 1694054, Control_c, 0, 64, 127
1, 1694078, Note_off_c, 0, 41, 58
1, 1694105, Note_off_c, 0, 29, 55
1, 1694113, Note_on_c, 0, 66, 71
1, 1694141, Note_off_c, 0, 68, 63
1, 1694181, Note_on_c, 0, 58, 77
1, 1694183, Note_off_c, 0, 66, 63
1, 1694183, Poly_aftertouch_c, 0, 66, 0
1, 1694271, Note_on_c, 0, 41, 73
1, 1694278, Note_on_c, 0, 56, 82
1, 1694278, Control_c, 0, 64, 103
1, 1694281, Note_on_c, 0, 29, 67
1, 1694294, Note_off_c, 0, 58, 58
1, 1694294, Poly_aftertouch_c, 0, 58, 0
1, 1694297, Control_c, 0, 64, 56
1, 1694317, Control_c, 0, 64, 45
1, 1694335, Control_c, 0, 64, 76
1, 1694338, Note_off_c, 0, 41, 57
1, 1694354, Control_c, 0, 64, 127
1, 1694366, Note_off_c, 0, 29, 56
1, 1694372, Note_on_c, 0, 65, 75
1, 1694378, Note_off_c, 0, 56, 62
1, 1694446, Control_c, 0, 64, 106
1, 1694453, Note_on_c, 0, 63, 76
1, 1694467, Control_c, 0, 64, 69
1, 1694471, Note_on_c, 0, 41, 89
1, 1694474, Note_on_c, 0, 29, 82
1, 1694476, Note_off_c, 0, 65, 63
1, 1694485, Control_c, 0, 64, 80
1, 1694504, Control_c, 0, 64, 127
1, 1694520, Note_off_c, 0, 63, 62
1, 1694528, Note_on_c, 0, 54, 73
1, 1694543, Note_off_c, 0, 41, 64
1, 1694549, Note_off_c, 0, 29, 60
1, 1694598, Control_c, 0, 64, 85
1, 1694599, Poly_aftertouch_c, 0, 36, 0
1, 1694616, Control_c, 0, 64, 65
1, 1694622, Note_on_c, 0, 53, 77
1, 1694635, Control_c, 0, 64, 116
1, 1694636, Note_on_c, 0, 43, 96
1, 1694645, Note_on_c, 0, 31, 91
1, 1694653, Control_c, 0, 64, 127
1, 1694699, Note_off_c, 0, 43, 65
1, 1694703, Note_off_c, 0, 31, 63
1, 1694719, Note_off_c, 0, 53, 61
1, 1694719, Poly_aftertouch_c, 0, 53, 0
1, 1694724, Note_on_c, 0, 61, 77
1, 1694742, Note_off_c, 0, 54, 24
1, 1694791, Poly_aftertouch_c, 0, 32, 0
1, 1694792, Note_on_c, 0, 45, 97
1, 1694800, Note_on_c, 0, 33, 89
1, 1694826, Note_on_c, 0, 60, 76
1, 1694844, Note_off_c, 0, 45, 65
1, 1694847, Note_off_c, 0, 33, 62
1, 1694859, Note_on_c, 0, 51, 74
1, 1694859, Control_c, 0, 64, 65
1, 1694863, Note_off_c, 0, 61, 62
1, 1694877, Control_c, 0, 64, 0
1, 1694899, Note_off_c, 0, 60, 61
1, 1694914, Control_c, 0, 64, 31
1, 1694934, Control_c, 0, 64, 95
1, 1694952, Control_c, 0, 64, 127
1, 1694963, Note_on_c, 0, 53, 82
1, 1694966, Note_on_c, 0, 61, 88
1, 1694969, Note_on_c, 0, 46, 106
1, 1694974, Note_on_c, 0, 34, 98
1, 1694986, Note_off_c, 0, 51, 64
1, 1695000, Note_off_c, 0, 53, 65
1, 1695000, Poly_aftertouch_c, 0, 53, 0
1, 1695011, Note_off_c, 0, 46, 64
1, 1695021, Note_off_c, 0, 34, 62
1, 1695029, Note_off_c, 0, 61, 69
1, 1695083, Control_c, 0, 64, 111
1, 1695097, Poly_aftertouch_c, 0, 56, 0
1, 1695103, Control_c, 0, 64, 60
1, 1695120, Control_c, 0, 64, 0
1, 1695308, Note_on_c, 0, 30, 84
1, 1695310, Note_on_c, 0, 73, 70
1, 1695392, Note_off_c, 0, 73, 62
1, 1695400, Note_on_c, 0, 82, 81
1, 1695490, Note_on_c, 0, 80, 81
1, 1695511, Note_on_c, 0, 42, 91
1, 1695526, Note_off_c, 0, 82, 63
1, 1695569, Control_c, 0, 64, 36
1, 1695581, Note_off_c, 0, 80, 65
1, 1695586, Note_on_c, 0, 72, 80
1, 1695587, Control_c, 0, 64, 71
1, 1695606, Control_c, 0, 64, 82
1, 1695625, Control_c, 0, 64, 98
1, 1695644, Control_c, 0, 64, 127
1, 1695669, Note_on_c, 0, 70, 87
1, 1695676, Note_off_c, 0, 72, 62
1, 1695700, Control_c, 0, 64, 112
1, 1695719, Control_c, 0, 64, 74
1, 1695736, Control_c, 0, 64, 37
1, 1695740, Note_on_c, 0, 78, 73
1, 1695753, Note_off_c, 0, 70, 65
1, 1695753, Poly_aftertouch_c, 0, 70, 0
1, 1695756, Control_c, 0, 64, 28
1, 1695775, Control_c, 0, 64, 54
1, 1695793, Control_c, 0, 64, 83
1, 1695813, Control_c, 0, 64, 118
1, 1695822, Note_on_c, 0, 77, 75
1, 1695831, Control_c, 0, 64, 127
1, 1695881, Note_off_c, 0, 78, 62
1, 1695909, Note_off_c, 0, 77, 62
1, 1695916, Note_on_c, 0, 68, 79
1, 1696007, Note_on_c, 0, 66, 81
1, 1696019, Note_off_c, 0, 68, 57
1, 1696081, Note_on_c, 0, 75, 82
1, 1696109, Note_off_c, 0, 66, 62
1, 1696109, Poly_aftertouch_c, 0, 66, 0
1, 1696111, Control_c, 0, 64, 101
1, 1696129, Control_c, 0, 64, 56
1, 1696141, Note_off_c, 0, 42, 57
1, 1696147, Control_c, 0, 64, 16
1, 1696167, Control_c, 0, 64, 56
1, 1696168, Note_on_c, 0, 73, 80
1, 1696177, Note_off_c, 0, 30, 60
1, 1696186, Control_c, 0, 64, 103
1, 1696201, Note_off_c, 0, 75, 63
1, 1696204, Control_c, 0, 64, 127
1, 1696245, Note_on_c, 0, 65, 79
1, 1696250, Note_off_c, 0, 73, 63
1, 1696317, Control_c, 0, 64, 112
1, 1696336, Control_c, 0, 64, 89
1, 1696343, Note_on_c, 0, 63, 82
1, 1696347, Note_on_c, 0, 30, 64
1, 1696347, Note_on_c, 0, 42, 66
1, 1696350, Note_off_c, 0, 65, 65
1, 1696354, Control_c, 0, 64, 106
1, 1696373, Control_c, 0, 64, 127
1, 1696416, Note_off_c, 0, 42, 59
1, 1696429, Note_off_c, 0, 30, 63
1, 1696437, Note_on_c, 0, 72, 74
1, 1696451, Note_off_c, 0, 63, 60
1, 1696466, Control_c, 0, 64, 95
1, 1696485, Control_c, 0, 64, 83
1, 1696504, Control_c, 0, 64, 124
1, 1696513, Note_on_c, 0, 70, 80
1, 1696527, Note_on_c, 0, 30, 80
1, 1696533, Note_on_c, 0, 42, 80
1, 1696541, Note_off_c, 0, 72, 60
1, 1696577, Note_off_c, 0, 70, 66
1, 1696577, Poly_aftertouch_c, 0, 70, 0
1, 1696578, Note_off_c, 0, 42, 65
1, 1696580, Note_off_c, 0, 30, 62
1, 1696594, Note_on_c, 0, 61, 80
1, 1696636, Control_c, 0, 64, 87
1, 1696654, Control_c, 0, 64, 59
1, 1696672, Control_c, 0, 64, 77
1, 1696681, Note_on_c, 0, 60, 78
1, 1696692, Control_c, 0, 64, 123
1, 1696693, Note_on_c, 0, 44, 90
1, 1696693, Note_on_c, 0, 32, 87
1, 1696694, Note_off_c, 0, 61, 52
1, 1696710, Control_c, 0, 64, 127
1, 1696755, Note_off_c, 0, 44, 62
1, 1696757, Note_off_c, 0, 32, 59
1, 1696766, Control_c, 0, 64, 103
1, 1696784, Note_on_c, 0, 68, 74
1, 1696784, Control_c, 0, 64, 68
1, 1696801, Note_off_c, 0, 60, 62
1, 1696802, Control_c, 0, 64, 70
1, 1696821, Control_c, 0, 64, 97
1, 1696840, Control_c, 0, 64, 127
1, 1696851, Note_on_c, 0, 66, 76
1, 1696862, Note_on_c, 0, 46, 95
1, 1696869, Note_on_c, 0, 34, 88
1, 1696896, Control_c, 0, 67, 9
1, 1696904, Note_off_c, 0, 68, 63
1, 1696916, Control_c, 0, 64, 113
1, 1696927, Note_on_c, 0, 58, 78
1, 1696931, Note_off_c, 0, 46, 58
1, 1696934, Control_c, 0, 64, 100
1, 1696945, Note_off_c, 0, 34, 58
1, 1696947, Note_off_c, 0, 66, 57
1, 1696947, Poly_aftertouch_c, 0, 66, 0
1, 1696952, Control_c, 0, 64, 89
1, 1696953, Control_c, 0, 67, 13
1, 1696971, Control_c, 0, 64, 80
1, 1696991, Control_c, 0, 64, 69
1, 1697007, Note_off_c, 0, 58, 64
1, 1697007, Poly_aftertouch_c, 0, 58, 0
1, 1697007, Control_c, 0, 64, 58
1, 1697009, Control_c, 0, 67, 19
1, 1697027, Control_c, 0, 64, 39
1, 1697047, Control_c, 0, 64, 0
1, 1697048, Control_c, 0, 67, 25
1, 1697062, Note_on_c, 0, 65, 80
1, 1697072, Note_on_c, 0, 47, 86
1, 1697079, Note_on_c, 0, 35, 82
1, 1697103, Control_c, 0, 67, 31
1, 1697139, Control_c, 0, 67, 36
1, 1697163, Note_on_c, 0, 56, 74
1, 1697194, Note_off_c, 0, 65, 60
1, 1697214, Control_c, 0, 64, 17
1, 1697233, Control_c, 0, 64, 23
1, 1697243, Note_off_c, 0, 56, 63
1, 1697243, Note_on_c, 0, 55, 75
1, 1697252, Control_c, 0, 64, 41
1, 1697270, Control_c, 0, 64, 56
1, 1697289, Control_c, 0, 64, 67
1, 1697308, Control_c, 0, 64, 73
1, 1697309, Control_c, 0, 67, 40
1, 1697325, Note_off_c, 0, 55, 59
1, 1697327, Control_c, 0, 64, 78
1, 1697340, Note_on_c, 0, 64, 75
1, 1697345, Control_c, 0, 64, 80
1, 1697430, Note_on_c, 0, 65, 77
1, 1697443, Note_off_c, 0, 64, 61
1, 1697455, Note_off_c, 0, 35, 54
1, 1697458, Control_c, 0, 64, 83
1, 1697471, Note_off_c, 0, 47, 58
1, 1697496, Control_c, 0, 64, 85
1, 1697514, Note_on_c, 0, 56, 73
1, 1697551, Note_off_c, 0, 65, 56
1, 1697589, Control_c, 0, 64, 70
1, 1697602, Note_off_c, 0, 56, 63
1, 1697606, Control_c, 0, 64, 48
1, 1697611, Note_on_c, 0, 48, 82
1, 1697614, Note_on_c, 0, 55, 81
1, 1697619, Note_on_c, 0, 36, 74
1, 1697625, Control_c, 0, 64, 0
1, 1697713, Note_on_c, 0, 64, 73
1, 1697720, Control_c, 0, 64, 23
1, 1697724, Note_off_c, 0, 55, 58
1, 1697738, Control_c, 0, 64, 44
1, 1697756, Control_c, 0, 64, 59
1, 1697776, Control_c, 0, 64, 69
1, 1697794, Control_c, 0, 64, 72
1, 1697807, Note_off_c, 0, 64, 62
1, 1697807, Note_on_c, 0, 65, 72
1, 1697883, Note_on_c, 0, 56, 70
1, 1697892, Note_off_c, 0, 65, 62
1, 1697944, Control_c, 0, 64, 70
1, 1697948, Note_off_c, 0, 48, 50
1, 1697948, Poly_aftertouch_c, 0, 48, 0
1, 1697974, Note_off_c, 0, 56, 60
1, 1697983, Note_on_c, 0, 55, 72
1, 1698072, Note_off_c, 0, 55, 58
1, 1698080, Note_on_c, 0, 64, 66
1, 1698131, Control_c, 0, 64, 68
1, 1698149, Control_c, 0, 64, 64
1, 1698159, Note_off_c, 0, 36, 58
1, 1698168, Control_c, 0, 64, 56
1, 1698181, Note_off_c, 0, 64, 63
1, 1698187, Control_c, 0, 64, 38
1, 1698189, Note_on_c, 0, 65, 75
1, 1698201, Note_on_c, 0, 47, 56
1, 1698205, Note_on_c, 0, 35, 57
1, 1698205, Control_c, 0, 64, 0
1, 1698299, Control_c, 0, 64, 19
1, 1698318, Control_c, 0, 64, 33
1, 1698331, Note_on_c, 0, 56, 66
1, 1698336, Control_c, 0, 64, 45
1, 1698355, Control_c, 0, 64, 57
1, 1698361, Note_off_c, 0, 65, 55
1, 1698373, Control_c, 0, 64, 67
1, 1698393, Control_c, 0, 64, 71
1, 1698430, Control_c, 0, 64, 73
1, 1698438, Note_off_c, 0, 56, 59
1, 1698462, Note_on_c, 0, 55, 64
1, 1698565, Note_off_c, 0, 55, 54
1, 1698567, Note_off_c, 0, 35, 55
1, 1698570, Note_on_c, 0, 64, 65
1, 1698583, Note_off_c, 0, 47, 55
1, 1698689, Note_off_c, 0, 64, 57
1, 1698690, Control_c, 0, 64, 69
1, 1698706, Note_on_c, 0, 65, 65
1, 1698709, Control_c, 0, 64, 62
1, 1698728, Control_c, 0, 64, 47
1, 1698731, Note_on_c, 0, 48, 68
1, 1698736, Note_on_c, 0, 36, 62
1, 1698747, Control_c, 0, 64, 0
1, 1698832, Note_off_c, 0, 65, 61
1, 1698835, Note_on_c, 0, 56, 69
1, 1698932, Note_off_c, 0, 56, 61
1, 1698971, Control_c, 0, 67, 36
1, 1698977, Note_on_c, 0, 55, 59
1, 1699047, Control_c, 0, 67, 30
1, 1699053, Note_off_c, 0, 55, 56
1, 1699069, Note_on_c, 0, 64, 63
1, 1699083, Control_c, 0, 67, 25
1, 1699103, Control_c, 0, 67, 20
1, 1699121, Control_c, 0, 67, 12
1, 1699158, Control_c, 0, 67, 0
1, 1699162, Note_off_c, 0, 64, 62
1, 1699195, Note_off_c, 0, 36, 42
1, 1699217, Note_on_c, 0, 41, 72
1, 1699221, Note_on_c, 0, 65, 59
1, 1699226, Note_off_c, 0, 48, 33
1, 1699226, Poly_aftertouch_c, 0, 48, 0
1, 1699229, Note_on_c, 0, 53, 63
1, 1699252, Note_off_c, 0, 41, 65
1, 1699259, Note_off_c, 0, 65, 64
1, 1699265, Note_off_c, 0, 53, 62
1, 1699265, Poly_aftertouch_c, 0, 53, 0
1, 1699566, Note_on_c, 0, 54, 80
1, 1699589, Note_on_c, 0, 42, 61
1, 1699759, Note_on_c, 0, 53, 71
1, 1699763, Note_on_c, 0, 65, 65
1, 1699793, Note_off_c, 0, 42, 60
1, 1699794, Control_c, 0, 64, 11
1, 1699795, Note_off_c, 0, 53, 65
1, 1699795, Poly_aftertouch_c, 0, 53, 0
1, 1699798, Note_off_c, 0, 65, 66
1, 1699798, Note_off_c, 0, 54, 57
1, 1699814, Control_c, 0, 64, 0
1, 1699851, Control_c, 0, 67, 8
1, 1699913, Note_on_c, 0, 53, 68
1, 1699922, Note_on_c, 0, 41, 73
1, 1699944, Control_c, 0, 67, 0
1, 1699950, Note_off_c, 0, 53, 64
1, 1699950, Poly_aftertouch_c, 0, 53, 0
1, 1699956, Note_off_c, 0, 41, 64
1, 1700080, Note_on_c, 0, 51, 62
1, 1700080, Note_on_c, 0, 39, 68
1, 1700115, Note_off_c, 0, 39, 63
1, 1700118, Note_off_c, 0, 51, 62
1, 1700242, Note_on_c, 0, 65, 67
1, 1700243, Note_on_c, 0, 53, 67
1, 1700252, Note_on_c, 0, 50, 75
1, 1700255, Note_on_c, 0, 38, 75
1, 1700262, Control_c, 0, 67, 11
1, 1700275, Note_off_c, 0, 65, 67
1, 1700279, Note_off_c, 0, 53, 65
1, 1700279, Poly_aftertouch_c, 0, 53, 0
1, 1700280, Control_c, 0, 67, 17
1, 1700282, Note_off_c, 0, 50, 66
1, 1700285, Note_off_c, 0, 38, 65
1, 1700299, Control_c, 0, 67, 30
1, 1700319, Control_c, 0, 67, 47
1, 1700337, Control_c, 0, 67, 60
1, 1700356, Control_c, 0, 67, 64
1, 1700393, Control_c, 0, 67, 68
1, 1700505, Control_c, 0, 67, 64
1, 1700529, Note_on_c, 0, 36, 59
1, 1700543, Control_c, 0, 67, 71
1, 1700561, Control_c, 0, 67, 81
1, 1700580, Control_c, 0, 67, 100
1, 1700596, Note_on_c, 0, 34, 70
1, 1700598, Control_c, 0, 67, 118
1, 1700599, Note_off_c, 0, 36, 61
1, 1700604, Note_on_c, 0, 46, 59
1, 1700617, Control_c, 0, 67, 124
1, 1700632, Note_off_c, 0, 34, 64
1, 1700639, Note_off_c, 0, 46, 57
1, 1700801, Note_on_c, 0, 65, 58
1, 1700802, Note_on_c, 0, 53, 58
1, 1700840, Note_off_c, 0, 65, 64
1, 1700842, Note_off_c, 0, 53, 62
1, 1700842, Poly_aftertouch_c, 0, 53, 0
1, 1701308, Note_on_c, 0, 65, 49
1, 1701313, Note_on_c, 0, 36, 51
1, 1701315, Note_on_c, 0, 48, 48
1, 1701317, Note_on_c, 0, 53, 45
1, 1701341, Note_off_c, 0, 65, 58
1, 1701348, Note_off_c, 0, 48, 57
1, 1701348, Poly_aftertouch_c, 0, 48, 0
1, 1701350, Note_off_c, 0, 53, 51
1, 1701350, Poly_aftertouch_c, 0, 53, 0
1, 1701355, Note_off_c, 0, 36, 62
1, 1701678, Note_on_c, 0, 49, 59
1, 1701684, Note_on_c, 0, 37, 57
1, 1701855, Note_on_c, 0, 53, 56
1, 1701856, Note_on_c, 0, 65, 54
1, 1701866, Note_off_c, 0, 49, 50
1, 1701866, Poly_aftertouch_c, 0, 49, 0
1, 1701871, Note_off_c, 0, 37, 51
1, 1701891, Note_off_c, 0, 53, 62
1, 1701891, Poly_aftertouch_c, 0, 53, 0
1, 1701894, Note_off_c, 0, 65, 64
1, 1702009, Note_on_c, 0, 48, 59
1, 1702017, Note_on_c, 0, 36, 56
1, 1702047, Note_off_c, 0, 48, 63
1, 1702047, Poly_aftertouch_c, 0, 48, 0
1, 1702059, Note_off_c, 0, 36, 62
1, 1702175, Note_on_c, 0, 46, 61
1, 1702177, Note_on_c, 0, 34, 63
1, 1702211, Note_off_c, 0, 46, 64
1, 1702214, Note_off_c, 0, 34, 64
1, 1702344, Note_on_c, 0, 53, 60
1, 1702350, Note_on_c, 0, 65, 53
1, 1702356, Note_on_c, 0, 45, 68
1, 1702361, Note_on_c, 0, 33, 68
1, 1702382, Note_off_c, 0, 65, 59
1, 1702385, Note_off_c, 0, 53, 64
1, 1702385, Poly_aftertouch_c, 0, 53, 0
1, 1702388, Note_off_c, 0, 45, 64
1, 1702395, Note_off_c, 0, 33, 63
1, 1702651, Note_on_c, 0, 43, 50
1, 1702675, Note_on_c, 0, 31, 33
1, 1702689, Note_off_c, 0, 43, 50
1, 1702729, Note_off_c, 0, 31, 51
1, 1702729, Note_on_c, 0, 29, 71
1, 1702758, Note_off_c, 0, 29, 63
1, 1702928, Note_on_c, 0, 53, 59
1, 1702930, Note_on_c, 0, 65, 55
1, 1702960, Note_off_c, 0, 65, 62
1, 1702964, Note_off_c, 0, 53, 64
1, 1702964, Poly_aftertouch_c, 0, 53, 0
1, 1703405, Note_on_c, 0, 65, 58
1, 1703408, Note_on_c, 0, 45, 57
1, 1703413, Note_on_c, 0, 33, 61
1, 1703414, Note_on_c, 0, 53, 51
1, 1703448, Note_off_c, 0, 45, 63
1, 1703448, Note_off_c, 0, 53, 57
1, 1703448, Poly_aftertouch_c, 0, 53, 0
1, 1703449, Note_off_c, 0, 65, 66
1, 1703453, Note_off_c, 0, 33, 62
1, 1703687, Note_on_c, 0, 43, 49
1, 1703699, Note_on_c, 0, 31, 52
1, 1703725, Note_off_c, 0, 43, 52
1, 1703767, Note_on_c, 0, 29, 69
1, 1703774, Note_off_c, 0, 31, 62
1, 1703801, Note_off_c, 0, 29, 62
1, 1703981, Note_on_c, 0, 53, 58
1, 1704019, Note_off_c, 0, 53, 63
1, 1704019, Poly_aftertouch_c, 0, 53, 0
1, 1704395, Control_c, 0, 64, 18
1, 1704413, Control_c, 0, 64, 29
1, 1704434, Control_c, 0, 64, 42
1, 1704450, Control_c, 0, 64, 52
1, 1704470, Control_c, 0, 64, 59
1, 1704489, Control_c, 0, 64, 64
1, 1704507, Control_c, 0, 64, 67
1, 1704514, Note_on_c, 0, 29, 38
1, 1704525, Control_c, 0, 64, 70
1, 1704544, Control_c, 0, 64, 72
1, 1704563, Control_c, 0, 64, 75
1, 1704577, Poly_aftertouch_c, 0, 41, 127
1, 1704581, Control_c, 0, 64, 78
1, 1704600, Control_c, 0, 64, 83
1, 1704601, Control_c, 0, 67, 120
1, 1704619, Control_c, 0, 64, 90
1, 1704639, Control_c, 0, 64, 98
1, 1704656, Control_c, 0, 64, 107
1, 1704675, Control_c, 0, 64, 113
1, 1704677, Control_c, 0, 67, 116
1, 1704696, Control_c, 0, 64, 119
1, 1704698, Poly_aftertouch_c, 0, 41, 0
1, 1704713, Control_c, 0, 64, 125
1, 1704750, Control_c, 0, 67, 112
1, 1704974, Control_c, 0, 67, 107
1, 1705004, Note_on_c, 0, 27, 54
1, 1705010, Control_c, 0, 67, 100
1, 1705049, Control_c, 0, 67, 96
1, 1705063, Note_on_c, 0, 39, 30
1, 1705086, Control_c, 0, 67, 90
1, 1705124, Control_c, 0, 67, 86
1, 1705161, Control_c, 0, 67, 82
1, 1705169, Note_off_c, 0, 29, 35
1, 1705179, Note_off_c, 0, 39, 32
1, 1705198, Control_c, 0, 67, 77
1, 1705236, Control_c, 0, 67, 69
1, 1705255, Control_c, 0, 67, 64
1, 1705293, Control_c, 0, 67, 58
1, 1705330, Control_c, 0, 67, 54
1, 1705445, Note_off_c, 0, 27, 37
1, 1705445, Poly_aftertouch_c, 0, 27, 0
1, 1705567, Note_on_c, 0, 65, 52
1, 1705577, Note_on_c, 0, 61, 42
1, 1705608, Note_on_c, 0, 56, 33
1, 1705629, Control_c, 0, 67, 48
1, 1705634, Note_on_c, 0, 25, 44
1, 1705644, Note_on_c, 0, 37, 31
1, 1705666, Control_c, 0, 64, 115
1, 1705667, Control_c, 0, 67, 43
1, 1705684, Control_c, 0, 64, 96
1, 1705705, Control_c, 0, 64, 77
1, 1705708, Control_c, 0, 67, 39
1, 1705722, Control_c, 0, 64, 65
1, 1705740, Control_c, 0, 64, 62
1, 1705742, Control_c, 0, 67, 35
1, 1705759, Control_c, 0, 64, 66
1, 1705779, Control_c, 0, 64, 73
1, 1705780, Control_c, 0, 67, 29
1, 1705796, Control_c, 0, 64, 83
1, 1705816, Control_c, 0, 64, 98
1, 1705835, Control_c, 0, 64, 119
1, 1705854, Control_c, 0, 64, 127
1, 1705855, Control_c, 0, 67, 25
1, 1705863, Note_off_c, 0, 61, 49
1, 1705892, Note_off_c, 0, 56, 50
1, 1706088, Note_on_c, 0, 63, 57
1, 1706113, Note_on_c, 0, 60, 44
1, 1706116, Note_on_c, 0, 54, 41
1, 1706167, Note_off_c, 0, 65, 56
1, 1706322, Note_off_c, 0, 60, 53
1, 1706359, Note_off_c, 0, 25, 39
1, 1706360, Note_off_c, 0, 37, 38
1, 1706370, Note_off_c, 0, 54, 51
1, 1706590, Note_on_c, 0, 61, 60
1, 1706597, Note_on_c, 0, 56, 48
1, 1706619, Note_on_c, 0, 53, 31
1, 1706637, Note_on_c, 0, 25, 52
1, 1706649, Note_off_c, 0, 63, 58
1, 1706657, Control_c, 0, 64, 121
1, 1706673, Note_on_c, 0, 37, 33
1, 1706674, Control_c, 0, 64, 103
1, 1706694, Control_c, 0, 64, 90
1, 1706714, Control_c, 0, 64, 85
1, 1706732, Control_c, 0, 64, 90
1, 1706750, Control_c, 0, 64, 102
1, 1706770, Control_c, 0, 64, 119
1, 1706788, Control_c, 0, 64, 127
1, 1706794, Note_off_c, 0, 56, 61
1, 1706824, Note_off_c, 0, 53, 56
1, 1706824, Poly_aftertouch_c, 0, 53, 0
1, 1707102, Note_on_c, 0, 56, 61
1, 1707121, Note_on_c, 0, 49, 45
1, 1707128, Note_on_c, 0, 53, 44
1, 1707211, Note_off_c, 0, 61, 52
1, 1707247, Note_off_c, 0, 49, 55
1, 1707247, Poly_aftertouch_c, 0, 49, 0
1, 1707248, Note_off_c, 0, 53, 55
1, 1707248, Poly_aftertouch_c, 0, 53, 0
1, 1707304, Note_off_c, 0, 56, 62
1, 1707348, Control_c, 0, 67, 20
1, 1707357, Note_off_c, 0, 37, 27
1, 1707386, Control_c, 0, 67, 13
1, 1707423, Control_c, 0, 67, 9
1, 1707430, Note_off_c, 0, 25, 42
1, 1707614, Note_on_c, 0, 68, 58
1, 1707625, Note_on_c, 0, 65, 57
1, 1707680, Note_on_c, 0, 56, 27
1, 1707682, Note_on_c, 0, 25, 66
1, 1707715, Note_on_c, 0, 37, 42
1, 1707721, Control_c, 0, 64, 110
1, 1707741, Control_c, 0, 64, 89
1, 1707761, Control_c, 0, 64, 75
1, 1707792, Note_off_c, 0, 68, 62
1, 1707799, Control_c, 0, 64, 85
1, 1707816, Control_c, 0, 64, 103
1, 1707836, Control_c, 0, 64, 127
1, 1707872, Control_c, 0, 67, 0
1, 1708104, Note_off_c, 0, 37, 30
1, 1708142, Note_on_c, 0, 66, 60
1, 1708142, Note_on_c, 0, 63, 61
1, 1708160, Note_on_c, 0, 60, 51
1, 1708216, Note_off_c, 0, 65, 38
1, 1708311, Note_off_c, 0, 60, 59
1, 1708359, Note_off_c, 0, 56, 36
1, 1708515, Note_off_c, 0, 25, 38
1, 1708638, Note_on_c, 0, 65, 63
1, 1708646, Note_off_c, 0, 66, 48
1, 1708646, Poly_aftertouch_c, 0, 66, 0
1, 1708656, Note_on_c, 0, 61, 50
1, 1708691, Note_on_c, 0, 37, 62
1, 1708692, Note_on_c, 0, 25, 65
1, 1708697, Note_off_c, 0, 63, 53
1, 1708789, Control_c, 0, 64, 120
1, 1708808, Control_c, 0, 64, 96
1, 1708827, Control_c, 0, 64, 75
1, 1708846, Control_c, 0, 64, 63
1, 1708864, Control_c, 0, 64, 62
1, 1708882, Control_c, 0, 64, 70
1, 1708901, Control_c, 0, 64, 83
1, 1708920, Control_c, 0, 64, 104
1, 1708931, Note_off_c, 0, 61, 61
1, 1708939, Control_c, 0, 64, 127
1, 1709147, Note_on_c, 0, 61, 63
1, 1709165, Note_on_c, 0, 56, 55
1, 1709175, Note_on_c, 0, 53, 37
1, 1709308, Note_off_c, 0, 65, 57
1, 1709323, Note_off_c, 0, 53, 54
1, 1709323, Poly_aftertouch_c, 0, 53, 0
1, 1709387, Note_off_c, 0, 56, 62
1, 1709402, Note_off_c, 0, 61, 63
1, 1709450, Note_off_c, 0, 37, 50
1, 1709588, Poly_aftertouch_c, 0, 29, 0
1, 1709625, Note_off_c, 0, 25, 27
1, 1709681, Note_on_c, 0, 70, 73
1, 1709687, Note_on_c, 0, 66, 66
1, 1709698, Note_on_c, 0, 30, 70
1, 1709725, Note_on_c, 0, 61, 44
1, 1709726, Note_on_c, 0, 58, 46
1, 1709760, Control_c, 0, 64, 111
1, 1709780, Control_c, 0, 64, 83
1, 1709800, Control_c, 0, 64, 62
1, 1709806, Poly_aftertouch_c, 0, 25, 127
1, 1709817, Control_c, 0, 64, 56
1, 1709836, Control_c, 0, 64, 65
1, 1709846, Poly_aftertouch_c, 0, 25, 0
1, 1709854, Control_c, 0, 64, 79
1, 1709874, Control_c, 0, 64, 98
1, 1709893, Control_c, 0, 64, 127
1, 1709927, Note_off_c, 0, 61, 30
1, 1709963, Note_off_c, 0, 70, 59
1, 1709963, Poly_aftertouch_c, 0, 70, 0
1, 1710105, Note_off_c, 0, 58, 37
1, 1710105, Poly_aftertouch_c, 0, 58, 0
1, 1710127, Note_off_c, 0, 66, 60
1, 1710127, Poly_aftertouch_c, 0, 66, 0
1, 1710184, Note_on_c, 0, 68, 71
1, 1710194, Note_on_c, 0, 65, 63
1, 1710197, Note_on_c, 0, 61, 66
1, 1710204, Note_on_c, 0, 37, 71
1, 1710208, Note_on_c, 0, 25, 70
1, 1710250, Note_off_c, 0, 30, 56
1, 1710285, Control_c, 0, 64, 117
1, 1710303, Control_c, 0, 64, 88
1, 1710322, Control_c, 0, 64, 60
1, 1710341, Control_c, 0, 64, 37
1, 1710359, Control_c, 0, 64, 28
1, 1710378, Control_c, 0, 64, 47
1, 1710396, Control_c, 0, 64, 71
1, 1710416, Control_c, 0, 64, 95
1, 1710434, Control_c, 0, 64, 127
1, 1710471, Note_off_c, 0, 61, 57
1, 1710547, Note_off_c, 0, 25, 51
1, 1710564, Note_off_c, 0, 37, 58
1, 1710676, Note_on_c, 0, 66, 70
1, 1710686, Note_on_c, 0, 63, 60
1, 1710688, Note_off_c, 0, 68, 59
1, 1710696, Note_on_c, 0, 58, 59
1, 1710711, Note_on_c, 0, 39, 62
1, 1710714, Note_on_c, 0, 27, 62
1, 1710753, Control_c, 0, 64, 107
1, 1710759, Note_off_c, 0, 65, 59
1, 1710770, Control_c, 0, 64, 77
1, 1710790, Control_c, 0, 64, 45
1, 1710794, Note_off_c, 0, 63, 62
1, 1710809, Control_c, 0, 64, 0
1, 1710865, Control_c, 0, 64, 22
1, 1710883, Control_c, 0, 64, 59
1, 1710902, Control_c, 0, 64, 85
1, 1710921, Control_c, 0, 64, 116
1, 1710939, Control_c, 0, 64, 127
1, 1711007, Note_off_c, 0, 39, 59
1, 1711011, Note_off_c, 0, 27, 63
1, 1711011, Poly_aftertouch_c, 0, 27, 0
1, 1711018, Note_off_c, 0, 58, 57
1, 1711018, Poly_aftertouch_c, 0, 58, 0
1, 1711177, Note_on_c, 0, 65, 66
1, 1711199, Note_on_c, 0, 56, 54
1, 1711201, Note_on_c, 0, 41, 57
1, 1711210, Note_on_c, 0, 60, 49
1, 1711217, Note_on_c, 0, 29, 51
1, 1711240, Control_c, 0, 64, 122
1, 1711257, Control_c, 0, 64, 106
1, 1711276, Control_c, 0, 64, 85
1, 1711294, Control_c, 0, 64, 59
1, 1711297, Note_off_c, 0, 66, 44
1, 1711297, Poly_aftertouch_c, 0, 66, 0
1, 1711313, Control_c, 0, 64, 0
1, 1711363, Note_off_c, 0, 60, 55
1, 1711389, Control_c, 0, 64, 49
1, 1711406, Control_c, 0, 64, 76
1, 1711426, Control_c, 0, 64, 102
1, 1711435, Note_off_c, 0, 41, 55
1, 1711440, Note_off_c, 0, 56, 56
1, 1711444, Control_c, 0, 64, 127
1, 1711668, Note_on_c, 0, 61, 67
1, 1711687, Note_on_c, 0, 58, 56
1, 1711690, Note_on_c, 0, 42, 49
1, 1711693, Note_on_c, 0, 54, 45
1, 1711694, Note_on_c, 0, 30, 50
1, 1711722, Note_off_c, 0, 29, 40
1, 1711743, Control_c, 0, 64, 115
1, 1711762, Control_c, 0, 64, 87
1, 1711777, Note_off_c, 0, 65, 47
1, 1711778, Control_c, 0, 64, 58
1, 1711799, Control_c, 0, 64, 30
1, 1711818, Control_c, 0, 64, 19
1, 1711836, Control_c, 0, 64, 39
1, 1711856, Control_c, 0, 64, 64
1, 1711874, Control_c, 0, 64, 87
1, 1711893, Control_c, 0, 64, 118
1, 1711901, Note_off_c, 0, 54, 52
1, 1711911, Control_c, 0, 64, 127
1, 1711938, Note_off_c, 0, 58, 50
1, 1711938, Poly_aftertouch_c, 0, 58, 0
1, 1712004, Note_off_c, 0, 30, 59
1, 1712009, Note_off_c, 0, 42, 62
1, 1712177, Note_on_c, 0, 51, 63
1, 1712182, Note_on_c, 0, 58, 62
1, 1712203, Note_on_c, 0, 43, 56
1, 1712208, Note_on_c, 0, 31, 56
1, 1712209, Control_c, 0, 64, 120
1, 1712230, Control_c, 0, 64, 83
1, 1712248, Control_c, 0, 64, 46
1, 1712266, Control_c, 0, 64, 0
1, 1712282, Note_off_c, 0, 51, 53
1, 1712304, Control_c, 0, 64, 11
1, 1712323, Control_c, 0, 64, 52
1, 1712338, Note_on_c, 0, 63, 65
1, 1712341, Control_c, 0, 64, 80
1, 1712355, Note_off_c, 0, 61, 55
1, 1712360, Control_c, 0, 64, 109
1, 1712379, Control_c, 0, 64, 127
1, 1712397, Note_off_c, 0, 58, 52
1, 1712397, Poly_aftertouch_c, 0, 58, 0
1, 1712472, Note_off_c, 0, 43, 59
1, 1712476, Note_off_c, 0, 31, 57
1, 1712477, Note_off_c, 0, 63, 56
1, 1712484, Note_on_c, 0, 65, 52
1, 1712581, Note_off_c, 0, 65, 58
1, 1712696, Note_on_c, 0, 63, 59
1, 1712715, Note_on_c, 0, 60, 53
1, 1712717, Note_on_c, 0, 56, 50
1, 1712720, Control_c, 0, 64, 111
1, 1712734, Note_on_c, 0, 44, 55
1, 1712734, Control_c, 0, 64, 78
1, 1712743, Note_on_c, 0, 32, 50
1, 1712752, Control_c, 0, 64, 42
1, 1712771, Control_c, 0, 64, 0
1, 1712828, Control_c, 0, 64, 32
1, 1712846, Control_c, 0, 64, 66
1, 1712865, Control_c, 0, 64, 94
1, 1712884, Control_c, 0, 64, 127
1, 1712899, Note_off_c, 0, 60, 62
1, 1712910, Note_off_c, 0, 63, 60
1, 1712923, Note_off_c, 0, 56, 63
1, 1712981, Note_off_c, 0, 44, 61
1, 1713087, Note_off_c, 0, 32, 58
1, 1713240, Note_on_c, 0, 56, 60
1, 1713255, Note_on_c, 0, 51, 53
1, 1713269, Note_on_c, 0, 48, 39
1, 1713275, Control_c, 0, 64, 123
1, 1713296, Control_c, 0, 64, 85
1, 1713315, Control_c, 0, 64, 39
1, 1713332, Control_c, 0, 64, 0
1, 1713374, Note_off_c, 0, 48, 62
1, 1713374, Poly_aftertouch_c, 0, 48, 0
1, 1713380, Note_on_c, 0, 25, 70
1, 1713407, Control_c, 0, 64, 17
1, 1713420, Note_off_c, 0, 51, 61
1, 1713425, Control_c, 0, 64, 78
1, 1713444, Control_c, 0, 64, 127
1, 1713449, Note_off_c, 0, 56, 62
1, 1713488, Note_on_c, 0, 37, 76
1, 1713503, Note_off_c, 0, 25, 63
1, 1713531, Note_off_c, 0, 37, 63
1, 1713830, Note_on_c, 0, 77, 80
1, 1713887, Note_on_c, 0, 73, 44
1, 1713915, Note_on_c, 0, 65, 57
1, 1713930, Note_on_c, 0, 68, 21
1, 1713932, Note_on_c, 0, 61, 43
1, 1713936, Note_on_c, 0, 56, 46
1, 1714003, Note_off_c, 0, 73, 56
1, 1714118, Note_off_c, 0, 65, 58
1, 1714136, Note_off_c, 0, 68, 44
1, 1714205, Note_off_c, 0, 56, 54
1, 1714206, Note_off_c, 0, 61, 56
1, 1714346, Note_on_c, 0, 75, 80
1, 1714361, Note_on_c, 0, 72, 69
1, 1714384, Note_on_c, 0, 63, 58
1, 1714386, Note_on_c, 0, 60, 54
1, 1714390, Note_on_c, 0, 56, 46
1, 1714395, Note_on_c, 0, 54, 53
1, 1714401, Note_on_c, 0, 66, 40
1, 1714406, Note_on_c, 0, 68, 42
1, 1714424, Note_off_c, 0, 77, 52
1, 1714473, Control_c, 0, 64, 97
1, 1714491, Control_c, 0, 64, 85
1, 1714511, Control_c, 0, 64, 96
1, 1714528, Control_c, 0, 64, 126
1, 1714620, Note_off_c, 0, 63, 59
1, 1714645, Note_off_c, 0, 54, 59
1, 1714648, Note_off_c, 0, 72, 58
1, 1714675, Note_off_c, 0, 68, 52
1, 1714697, Note_off_c, 0, 60, 59
1, 1714703, Note_off_c, 0, 66, 38
1, 1714703, Poly_aftertouch_c, 0, 66, 0
1, 1714705, Note_off_c, 0, 56, 37
1, 1714848, Note_on_c, 0, 73, 80
1, 1714864, Note_on_c, 0, 68, 53
1, 1714867, Note_on_c, 0, 65, 57
1, 1714881, Note_on_c, 0, 53, 54
1, 1714882, Note_on_c, 0, 61, 58
1, 1714884, Note_on_c, 0, 56, 50
1, 1714884, Control_c, 0, 64, 85
1, 1714903, Control_c, 0, 64, 51
1, 1714921, Control_c, 0, 64, 0
1, 1714959, Control_c, 0, 64, 43
1, 1714963, Note_off_c, 0, 75, 62
1, 1714978, Control_c, 0, 64, 76
1, 1714996, Control_c, 0, 64, 115
1, 1715005, Note_off_c, 0, 61, 63
1, 1715010, Note_off_c, 0, 68, 59
1, 1715013, Control_c, 0, 64, 127
1, 1715024, Note_off_c, 0, 56, 63
1, 1715040, Note_off_c, 0, 53, 61
1, 1715040, Poly_aftertouch_c, 0, 53, 0
1, 1715073, Note_off_c, 0, 65, 63
1, 1715289, Note_on_c, 0, 49, 60
1, 1715306, Note_on_c, 0, 53, 51
1, 1715308, Note_on_c, 0, 56, 39
1, 1715319, Note_on_c, 0, 68, 61
1, 1715336, Note_on_c, 0, 65, 49
1, 1715339, Note_on_c, 0, 61, 46
1, 1715341, Note_off_c, 0, 53, 51
1, 1715341, Poly_aftertouch_c, 0, 53, 0
1, 1715346, Note_off_c, 0, 56, 52
1, 1715347, Note_off_c, 0, 73, 51
1, 1715348, Note_off_c, 0, 49, 60
1, 1715348, Poly_aftertouch_c, 0, 49, 0
1, 1715379, Note_off_c, 0, 61, 65
1, 1715388, Note_off_c, 0, 65, 62
1, 1715406, Note_off_c, 0, 68, 62
1, 1715483, Control_c, 0, 64, 95
1, 1715502, Control_c, 0, 64, 48
1, 1715521, Control_c, 0, 64, 0
1, 1715532, Note_on_c, 0, 25, 80
1, 1715554, Note_on_c, 0, 27, 61
1, 1715557, Control_c, 0, 64, 56
1, 1715577, Control_c, 0, 64, 94
1, 1715595, Control_c, 0, 64, 127
1, 1715597, Note_off_c, 0, 27, 59
1, 1715597, Poly_aftertouch_c, 0, 27, 0
1, 1715613, Note_off_c, 0, 25, 61
1, 1715626, Note_on_c, 0, 37, 72
1, 1715662, Note_off_c, 0, 37, 63
1, 1715880, Note_on_c, 0, 80, 89
1, 1715914, Note_on_c, 0, 73, 60
1, 1715923, Note_on_c, 0, 68, 59
1, 1715951, Note_on_c, 0, 65, 58
1, 1715962, Note_on_c, 0, 56, 49
1, 1715974, Note_on_c, 0, 61, 45
1, 1716007, Note_off_c, 0, 73, 59
1, 1716018, Poly_aftertouch_c, 0, 78, 0
1, 1716167, Note_off_c, 0, 65, 58
1, 1716227, Note_off_c, 0, 80, 64
1, 1716247, Note_off_c, 0, 61, 60
1, 1716253, Poly_aftertouch_c, 0, 78, 0
1, 1716271, Note_off_c, 0, 56, 46
1, 1716340, Note_off_c, 0, 68, 38
1, 1716385, Note_on_c, 0, 78, 86
1, 1716395, Note_on_c, 0, 72, 60
1, 1716418, Note_on_c, 0, 60, 59
1, 1716419, Note_on_c, 0, 63, 65
1, 1716427, Note_on_c, 0, 66, 65
1, 1716433, Note_on_c, 0, 54, 58
1, 1716434, Note_on_c, 0, 68, 46
1, 1716442, Note_on_c, 0, 56, 52
1, 1716473, Control_c, 0, 64, 114
1, 1716493, Control_c, 0, 64, 78
1, 1716511, Control_c, 0, 64, 62
1, 1716530, Control_c, 0, 64, 74
1, 1716550, Control_c, 0, 64, 101
1, 1716567, Control_c, 0, 64, 127
1, 1716597, Note_off_c, 0, 72, 59
1, 1716636, Poly_aftertouch_c, 0, 70, 0
1, 1716655, Note_off_c, 0, 63, 57
1, 1716677, Note_off_c, 0, 54, 60
1, 1716703, Note_off_c, 0, 68, 34
1, 1716713, Note_off_c, 0, 66, 63
1, 1716713, Poly_aftertouch_c, 0, 66, 0
1, 1716723, Note_off_c, 0, 56, 47
1, 1716752, Note_off_c, 0, 78, 62
1, 1716760, Note_off_c, 0, 60, 57
1, 1716869, Note_on_c, 0, 77, 80
1, 1716885, Note_on_c, 0, 73, 71
1, 1716899, Note_on_c, 0, 68, 56
1, 1716900, Note_on_c, 0, 65, 68
1, 1716905, Note_on_c, 0, 61, 71
1, 1716908, Note_on_c, 0, 53, 63
1, 1716913, Note_on_c, 0, 56, 57
1, 1716921, Control_c, 0, 64, 112
1, 1716942, Control_c, 0, 64, 75
1, 1716956, Note_off_c, 0, 68, 60
1, 1716959, Control_c, 0, 64, 43
1, 1716979, Control_c, 0, 64, 19
1, 1716999, Control_c, 0, 64, 43
1, 1717016, Control_c, 0, 64, 76
1, 1717036, Control_c, 0, 64, 120
1, 1717053, Control_c, 0, 64, 127
1, 1717056, Note_off_c, 0, 61, 62
1, 1717082, Note_off_c, 0, 56, 63
1, 1717095, Note_off_c, 0, 53, 62
1, 1717095, Poly_aftertouch_c, 0, 53, 0
1, 1717099, Note_off_c, 0, 77, 58
1, 1717110, Note_off_c, 0, 73, 60
1, 1717161, Note_off_c, 0, 65, 61
1, 1717377, Note_on_c, 0, 73, 79
1, 1717388, Note_on_c, 0, 68, 67
1, 1717406, Note_on_c, 0, 49, 64
1, 1717406, Note_on_c, 0, 61, 61
1, 1717408, Note_on_c, 0, 56, 59
1, 1717410, Note_on_c, 0, 53, 52
1, 1717413, Note_on_c, 0, 65, 54
1, 1717427, Control_c, 0, 64, 98
1, 1717447, Control_c, 0, 64, 65
1, 1717466, Control_c, 0, 64, 50
1, 1717483, Control_c, 0, 64, 58
1, 1717503, Control_c, 0, 64, 81
1, 1717505, Note_off_c, 0, 61, 63
1, 1717514, Note_off_c, 0, 65, 59
1, 1717520, Control_c, 0, 64, 117
1, 1717540, Control_c, 0, 64, 127
1, 1717547, Note_off_c, 0, 56, 63
1, 1717555, Note_off_c, 0, 68, 61
1, 1717586, Note_off_c, 0, 73, 59
1, 1717592, Note_off_c, 0, 53, 60
1, 1717592, Poly_aftertouch_c, 0, 53, 0
1, 1717646, Note_off_c, 0, 49, 56
1, 1717646, Poly_aftertouch_c, 0, 49, 0
1, 1717920, Note_on_c, 0, 82, 83
1, 1717930, Note_on_c, 0, 78, 74
1, 1717938, Note_on_c, 0, 73, 71
1, 1717943, Note_on_c, 0, 70, 66
1, 1717972, Note_on_c, 0, 42, 80
1, 1717978, Note_on_c, 0, 30, 75
1, 1718045, Control_c, 0, 64, 111
1, 1718063, Control_c, 0, 64, 74
1, 1718082, Control_c, 0, 64, 45
1, 1718101, Control_c, 0, 64, 33
1, 1718119, Control_c, 0, 64, 51
1, 1718139, Control_c, 0, 64, 80
1, 1718156, Control_c, 0, 64, 120
1, 1718175, Control_c, 0, 64, 127
1, 1718202, Note_off_c, 0, 42, 63
1, 1718266, Note_off_c, 0, 82, 61
1, 1718279, Note_off_c, 0, 73, 55
1, 1718300, Note_off_c, 0, 70, 60
1, 1718316, Note_off_c, 0, 78, 61
1, 1718445, Note_on_c, 0, 80, 86
1, 1718446, Note_on_c, 0, 77, 77
1, 1718453, Note_on_c, 0, 73, 73
1, 1718456, Note_on_c, 0, 68, 85
1, 1718461, Note_off_c, 0, 30, 60
1, 1718475, Note_on_c, 0, 37, 93
1, 1718482, Note_on_c, 0, 25, 81
1, 1718531, Control_c, 0, 64, 89
1, 1718547, Note_on_c, 0, 27, 15
1, 1718548, Control_c, 0, 64, 58
1, 1718570, Control_c, 0, 64, 48
1, 1718587, Control_c, 0, 64, 61
1, 1718607, Control_c, 0, 64, 84
1, 1718614, Note_off_c, 0, 77, 60
1, 1718615, Note_off_c, 0, 27, 28
1, 1718615, Poly_aftertouch_c, 0, 27, 0
1, 1718624, Control_c, 0, 64, 122
1, 1718633, Note_off_c, 0, 73, 63
1, 1718642, Control_c, 0, 64, 127
1, 1718700, Note_off_c, 0, 80, 62
1, 1718794, Note_off_c, 0, 68, 58
1, 1718795, Note_off_c, 0, 25, 61
1, 1718855, Note_off_c, 0, 37, 54
1, 1718944, Note_on_c, 0, 78, 87
1, 1718948, Note_on_c, 0, 70, 81
1, 1718948, Note_on_c, 0, 75, 82
1, 1718949, Note_on_c, 0, 66, 87
1, 1718976, Note_on_c, 0, 27, 82
1, 1718978, Note_on_c, 0, 39, 90
1, 1719017, Control_c, 0, 64, 95
1, 1719036, Control_c, 0, 64, 52
1, 1719055, Control_c, 0, 64, 0
1, 1719111, Control_c, 0, 64, 59
1, 1719129, Control_c, 0, 64, 95
1, 1719148, Control_c, 0, 64, 127
1, 1719173, Note_off_c, 0, 70, 62
1, 1719274, Note_off_c, 0, 75, 58
1, 1719277, Note_off_c, 0, 27, 61
1, 1719277, Poly_aftertouch_c, 0, 27, 0
1, 1719288, Note_off_c, 0, 39, 57
1, 1719308, Note_off_c, 0, 66, 62
1, 1719308, Poly_aftertouch_c, 0, 66, 0
1, 1719327, Note_off_c, 0, 78, 62
1, 1719446, Note_on_c, 0, 77, 90
1, 1719455, Note_on_c, 0, 68, 82
1, 1719457, Note_on_c, 0, 72, 73
1, 1719457, Note_on_c, 0, 65, 83
1, 1719463, Note_on_c, 0, 41, 87
1, 1719466, Control_c, 0, 64, 116
1, 1719469, Note_on_c, 0, 29, 79
1, 1719485, Control_c, 0, 64, 75
1, 1719503, Control_c, 0, 64, 36
1, 1719521, Control_c, 0, 64, 11
1, 1719541, Control_c, 0, 64, 46
1, 1719558, Control_c, 0, 64, 78
1, 1719578, Control_c, 0, 64, 121
1, 1719597, Control_c, 0, 64, 127
1, 1719618, Note_off_c, 0, 77, 60
1, 1719645, Note_off_c, 0, 72, 61
1, 1719649, Note_off_c, 0, 29, 53
1, 1719650, Note_off_c, 0, 68, 63
1, 1719659, Note_off_c, 0, 65, 61
1, 1719740, Note_off_c, 0, 41, 60
1, 1719971, Note_on_c, 0, 73, 86
1, 1719975, Note_on_c, 0, 68, 78
1, 1719979, Note_on_c, 0, 61, 83
1, 1719982, Note_on_c, 0, 65, 70
1, 1720023, Note_on_c, 0, 46, 80
1, 1720026, Note_on_c, 0, 34, 78
1, 1720027, Control_c, 0, 64, 90
1, 1720045, Control_c, 0, 64, 57
1, 1720064, Control_c, 0, 64, 30
1, 1720083, Control_c, 0, 64, 34
1, 1720101, Control_c, 0, 64, 60
1, 1720120, Control_c, 0, 64, 89
1, 1720139, Control_c, 0, 64, 127
1, 1720186, Note_off_c, 0, 65, 62
1, 1720203, Note_off_c, 0, 46, 59
1, 1720208, Note_off_c, 0, 68, 62
1, 1720404, Note_off_c, 0, 34, 60
1, 1720466, Note_on_c, 0, 70, 79
1, 1720468, Note_off_c, 0, 73, 61
1, 1720474, Note_on_c, 0, 67, 66
1, 1720474, Control_c, 0, 64, 100
1, 1720478, Note_off_c, 0, 61, 61
1, 1720494, Control_c, 0, 64, 62
1, 1720495, Note_on_c, 0, 39, 81
1, 1720504, Note_on_c, 0, 27, 75
1, 1720511, Control_c, 0, 64, 53
1, 1720532, Control_c, 0, 64, 69
1, 1720551, Control_c, 0, 64, 96
1, 1720568, Control_c, 0, 64, 127
1, 1720614, Note_on_c, 0, 75, 80
1, 1720618, Note_on_c, 0, 63, 73
1, 1720639, Note_off_c, 0, 67, 58
1, 1720639, Poly_aftertouch_c, 0, 67, 0
1, 1720657, Note_off_c, 0, 63, 65
1, 1720677, Note_off_c, 0, 75, 62
1, 1720685, Note_off_c, 0, 70, 52
1, 1720756, Note_on_c, 0, 77, 82
1, 1720766, Note_on_c, 0, 65, 75
1, 1720786, Note_off_c, 0, 27, 60
1, 1720786, Poly_aftertouch_c, 0, 27, 0
1, 1720814, Note_off_c, 0, 39, 59
1, 1720829, Note_off_c, 0, 77, 58
1, 1720830, Note_off_c, 0, 65, 61
1, 1720976, Note_on_c, 0, 72, 71
1, 1720976, Note_on_c, 0, 75, 86
1, 1720979, Control_c, 0, 64, 88
1, 1720990, Note_on_c, 0, 63, 74
1, 1720996, Note_on_c, 0, 68, 58
1, 1720998, Control_c, 0, 64, 44
1, 1721003, Note_on_c, 0, 44, 86
1, 1721009, Note_on_c, 0, 32, 77
1, 1721016, Control_c, 0, 64, 0
1, 1721055, Control_c, 0, 64, 34
1, 1721073, Control_c, 0, 64, 75
1, 1721081, Note_on_c, 0, 31, 13
1, 1721093, Control_c, 0, 64, 125
1, 1721120, Note_off_c, 0, 32, 59
1, 1721126, Poly_aftertouch_c, 0, 42, 0
1, 1721139, Note_off_c, 0, 72, 61
1, 1721142, Note_off_c, 0, 68, 62
1, 1721151, Note_off_c, 0, 44, 63
1, 1721153, Note_off_c, 0, 31, 28
1, 1721168, Note_off_c, 0, 75, 63
1, 1721201, Note_off_c, 0, 63, 61
1, 1721472, Note_on_c, 0, 68, 71
1, 1721479, Note_on_c, 0, 56, 64
1, 1721480, Note_on_c, 0, 48, 69
1, 1721482, Note_on_c, 0, 63, 69
1, 1721483, Note_on_c, 0, 60, 68
1, 1721484, Note_on_c, 0, 51, 68
1, 1721508, Note_off_c, 0, 56, 60
1, 1721517, Note_off_c, 0, 51, 64
1, 1721522, Note_off_c, 0, 60, 64
1, 1721524, Note_off_c, 0, 48, 66
1, 1721524, Poly_aftertouch_c, 0, 48, 0
1, 1721562, Note_off_c, 0, 63, 60
1, 1721568, Note_off_c, 0, 68, 61
1, 1721672, Control_c, 0, 64, 83
1, 1721692, Control_c, 0, 64, 31
1, 1721709, Control_c, 0, 64, 0
1, 1721741, Note_on_c, 0, 32, 84
1, 1721831, Note_on_c, 0, 44, 91
1, 1721859, Control_c, 0, 64, 91
1, 1721860, Note_off_c, 0, 32, 59
1, 1721873, Note_off_c, 0, 44, 64
1, 1721876, Control_c, 0, 64, 127
1, 1722029, Note_on_c, 0, 72, 89
1, 1722035, Note_on_c, 0, 63, 91
1, 1722044, Note_on_c, 0, 68, 82
1, 1722059, Note_on_c, 0, 60, 95
1, 1722060, Note_on_c, 0, 51, 89
1, 1722066, Note_on_c, 0, 56, 80
1, 1722105, Note_off_c, 0, 60, 58
1, 1722139, Note_off_c, 0, 63, 57
1, 1722154, Note_off_c, 0, 56, 35
1, 1722173, Note_off_c, 0, 51, 43
1, 1722182, Note_off_c, 0, 72, 60
1, 1722197, Note_off_c, 0, 68, 56
1, 1722391, Note_on_c, 0, 73, 80
1, 1722400, Note_on_c, 0, 65, 72
1, 1722400, Note_on_c, 0, 61, 78
1, 1722403, Note_on_c, 0, 56, 71
1, 1722404, Note_on_c, 0, 53, 68
1, 1722409, Note_on_c, 0, 68, 71
1, 1722434, Note_off_c, 0, 65, 70
1, 1722440, Note_off_c, 0, 61, 65
1, 1722449, Note_off_c, 0, 73, 62
1, 1722454, Note_off_c, 0, 56, 59
1, 1722463, Note_off_c, 0, 53, 58
1, 1722463, Poly_aftertouch_c, 0, 53, 0
1, 1722469, Note_off_c, 0, 68, 62
1, 1722495, Control_c, 0, 64, 109
1, 1722511, Note_on_c, 0, 75, 97
1, 1722512, Control_c, 0, 64, 58
1, 1722518, Note_on_c, 0, 63, 92
1, 1722519, Note_on_c, 0, 66, 89
1, 1722521, Note_on_c, 0, 68, 62
1, 1722524, Note_on_c, 0, 54, 75
1, 1722525, Note_on_c, 0, 56, 73
1, 1722532, Control_c, 0, 64, 30
1, 1722552, Control_c, 0, 64, 61
1, 1722570, Control_c, 0, 64, 101
1, 1722588, Control_c, 0, 64, 127
1, 1722637, Note_off_c, 0, 63, 57
1, 1722675, Note_off_c, 0, 75, 61
1, 1722679, Note_off_c, 0, 54, 57
1, 1722682, Note_off_c, 0, 66, 63
1, 1722682, Poly_aftertouch_c, 0, 66, 0
1, 1722723, Note_off_c, 0, 68, 51
1, 1722725, Note_off_c, 0, 56, 56
1, 1722796, Note_on_c, 0, 73, 95
1, 1722799, Note_on_c, 0, 56, 73
1, 1722799, Note_on_c, 0, 65, 87
1, 1722801, Note_on_c, 0, 61, 92
1, 1722805, Note_on_c, 0, 53, 82
1, 1722809, Note_on_c, 0, 68, 75
1, 1722848, Note_off_c, 0, 65, 65
1, 1722861, Note_off_c, 0, 61, 59
1, 1722869, Note_off_c, 0, 53, 62
1, 1722869, Poly_aftertouch_c, 0, 53, 0
1, 1722872, Note_off_c, 0, 68, 64
1, 1722884, Note_off_c, 0, 56, 61
1, 1722910, Note_off_c, 0, 73, 64
1, 1723123, Note_on_c, 0, 78, 92
1, 1723129, Control_c, 0, 64, 113
1, 1723137, Note_on_c, 0, 66, 88
1, 1723138, Note_on_c, 0, 70, 88
1, 1723138, Note_on_c, 0, 72, 78
1, 1723139, Note_on_c, 0, 60, 77
1, 1723149, Note_on_c, 0, 58, 72
1, 1723149, Control_c, 0, 64, 66
1, 1723168, Control_c, 0, 64, 33
1, 1723186, Control_c, 0, 64, 49
1, 1723205, Control_c, 0, 64, 80
1, 1723224, Control_c, 0, 64, 121
1, 1723244, Control_c, 0, 64, 127
1, 1723280, Note_off_c, 0, 78, 65
1, 1723287, Note_off_c, 0, 70, 63
1, 1723308, Note_off_c, 0, 58, 60
1, 1723308, Poly_aftertouch_c, 0, 58, 0
1, 1723344, Note_off_c, 0, 66, 60
1, 1723344, Poly_aftertouch_c, 0, 66, 0
1, 1723360, Note_off_c, 0, 60, 57
1, 1723401, Note_on_c, 0, 77, 91
1, 1723410, Control_c, 0, 64, 121
1, 1723412, Note_on_c, 0, 65, 90
1, 1723413, Note_on_c, 0, 68, 88
1, 1723417, Note_on_c, 0, 56, 89
1, 1723420, Note_on_c, 0, 60, 59
1, 1723428, Note_off_c, 0, 72, 64
1, 1723428, Note_on_c, 0, 72, 40
1, 1723429, Control_c, 0, 64, 81
1, 1723449, Control_c, 0, 64, 69
1, 1723454, Note_off_c, 0, 72, 66
1, 1723467, Control_c, 0, 64, 93
1, 1723485, Note_off_c, 0, 77, 63
1, 1723485, Control_c, 0, 64, 127
1, 1723495, Note_off_c, 0, 65, 60
1, 1723524, Note_off_c, 0, 68, 62
1, 1723536, Poly_aftertouch_c, 0, 61, 0
1, 1723541, Note_off_c, 0, 60, 62
1, 1723562, Note_off_c, 0, 56, 60
1, 1723617, Poly_aftertouch_c, 0, 68, 0
1, 1723636, Control_c, 0, 64, 111
1, 1723653, Control_c, 0, 64, 81
1, 1723656, Note_on_c, 0, 63, 95
1, 1723657, Note_on_c, 0, 75, 91
1, 1723659, Note_on_c, 0, 66, 92
1, 1723663, Note_on_c, 0, 68, 62
1, 1723665, Note_on_c, 0, 54, 82
1, 1723672, Control_c, 0, 64, 94
1, 1723676, Note_on_c, 0, 56, 73
1, 1723691, Control_c, 0, 64, 127
1, 1723706, Note_off_c, 0, 56, 68
1, 1723722, Note_off_c, 0, 63, 62
1, 1723727, Note_off_c, 0, 75, 63
1, 1723737, Note_off_c, 0, 54, 61
1, 1723755, Note_off_c, 0, 68, 62
1, 1723762, Note_off_c, 0, 66, 63
1, 1723762, Poly_aftertouch_c, 0, 66, 0
1, 1723878, Note_on_c, 0, 51, 85
1, 1723884, Note_on_c, 0, 56, 73
1, 1723887, Note_on_c, 0, 60, 72
1, 1723887, Note_on_c, 0, 72, 85
1, 1723888, Note_on_c, 0, 54, 68
1, 1723889, Note_on_c, 0, 63, 86
1, 1723896, Note_on_c, 0, 66, 77
1, 1723915, Note_off_c, 0, 60, 66
1, 1723916, Note_off_c, 0, 51, 61
1, 1723920, Note_off_c, 0, 56, 69
1, 1723929, Note_off_c, 0, 54, 64
1, 1723934, Control_c, 0, 64, 84
1, 1723953, Control_c, 0, 64, 0
1, 1724007, Note_off_c, 0, 63, 59
1, 1724033, Note_off_c, 0, 66, 62
1, 1724033, Poly_aftertouch_c, 0, 66, 0
1, 1724045, Note_off_c, 0, 72, 62
1, 1724047, Note_on_c, 0, 37, 107
1, 1724051, Note_on_c, 0, 25, 101
1, 1724066, Control_c, 0, 64, 90
1, 1724078, Note_off_c, 0, 37, 67
1, 1724080, Note_off_c, 0, 25, 69
1, 1724082, Control_c, 0, 64, 127
1, 1724170, Poly_aftertouch_c, 0, 27, 127
1, 1724184, Poly_aftertouch_c, 0, 30, 0
1, 1724201, Poly_aftertouch_c, 0, 27, 0
1, 1724260, Poly_aftertouch_c, 0, 25, 0
1, 1724301, Note_on_c, 0, 65, 95
1, 1724302, Note_on_c, 0, 73, 96
1, 1724302, Note_on_c, 0, 68, 92
1, 1724311, Note_on_c, 0, 61, 101
1, 1724317, Note_on_c, 0, 56, 88
1, 1724319, Note_on_c, 0, 53, 87
1, 1724348, Note_off_c, 0, 61, 62
1, 1724351, Note_off_c, 0, 53, 66
1, 1724351, Poly_aftertouch_c, 0, 53, 0
1, 1724353, Note_off_c, 0, 65, 66
1, 1724361, Note_off_c, 0, 56, 54
1, 1724374, Note_off_c, 0, 68, 63
1, 1724392, Note_off_c, 0, 73, 64
1, 1724688, Note_on_c, 0, 66, 83
1, 1724690, Note_on_c, 0, 75, 80
1, 1724693, Note_on_c, 0, 63, 79
1, 1724699, Note_on_c, 0, 54, 69
1, 1724699, Note_on_c, 0, 73, 77
1, 1724730, Note_on_c, 0, 61, 56
1, 1724741, Note_off_c, 0, 66, 64
1, 1724741, Poly_aftertouch_c, 0, 66, 0
1, 1724749, Note_off_c, 0, 75, 64
1, 1724760, Note_off_c, 0, 63, 61
1, 1724766, Note_off_c, 0, 54, 61
1, 1724769, Note_off_c, 0, 61, 64
1, 1724795, Control_c, 0, 64, 85
1, 1724804, Note_on_c, 0, 77, 95
1, 1724811, Note_on_c, 0, 68, 98
1, 1724814, Control_c, 0, 64, 15
1, 1724816, Note_off_c, 0, 73, 64
1, 1724816, Note_on_c, 0, 73, 57
1, 1724823, Note_on_c, 0, 65, 98
1, 1724832, Control_c, 0, 64, 0
1, 1724835, Note_on_c, 0, 61, 87
1, 1724851, Control_c, 0, 64, 56
1, 1724863, Poly_aftertouch_c, 0, 56, 127
1, 1724867, Control_c, 0, 64, 94
1, 1724888, Control_c, 0, 64, 127
1, 1724946, Poly_aftertouch_c, 0, 58, 0
1, 1724966, Note_off_c, 0, 68, 61
1, 1724988, Note_off_c, 0, 77, 56
1, 1724998, Note_off_c, 0, 65, 58
1, 1725028, Poly_aftertouch_c, 0, 56, 0
1, 1725040, Note_off_c, 0, 61, 59
1, 1725041, Note_off_c, 0, 73, 59
1, 1725106, Note_on_c, 0, 70, 102
1, 1725111, Note_on_c, 0, 78, 96
1, 1725118, Note_on_c, 0, 73, 79
1, 1725120, Note_on_c, 0, 66, 102
1, 1725121, Note_on_c, 0, 58, 86
1, 1725130, Note_on_c, 0, 61, 76
1, 1725251, Note_off_c, 0, 66, 59
1, 1725251, Poly_aftertouch_c, 0, 66, 0
1, 1725254, Note_off_c, 0, 58, 63
1, 1725259, Note_off_c, 0, 61, 60
1, 1725270, Note_off_c, 0, 73, 61
1, 1725272, Note_off_c, 0, 78, 62
1, 1725276, Note_off_c, 0, 70, 40
1, 1725503, Note_on_c, 0, 82, 97
1, 1725507, Control_c, 0, 64, 91
1, 1725510, Note_on_c, 0, 71, 93
1, 1725510, Note_on_c, 0, 73, 92
1, 1725513, Note_on_c, 0, 70, 99
1, 1725517, Note_on_c, 0, 59, 82
1, 1725524, Note_on_c, 0, 61, 78
1, 1725525, Control_c, 0, 64, 16
1, 1725542, Control_c, 0, 64, 0
1, 1725580, Control_c, 0, 64, 64
1, 1725598, Control_c, 0, 64, 110
1, 1725619, Control_c, 0, 64, 127
1, 1725695, Note_off_c, 0, 70, 62
1, 1725763, Note_off_c, 0, 59, 40
1, 1725770, Note_off_c, 0, 61, 48
1, 1725771, Note_off_c, 0, 71, 51
1, 1725784, Note_off_c, 0, 82, 55
1, 1725788, Note_off_c, 0, 73, 55
1, 1725864, Note_on_c, 0, 59, 68
1, 1725870, Note_on_c, 0, 68, 96
1, 1725874, Note_on_c, 0, 80, 96
1, 1725876, Note_on_c, 0, 61, 67
1, 1725876, Note_on_c, 0, 71, 96
1, 1725876, Note_on_c, 0, 73, 93
1, 1725931, Note_off_c, 0, 68, 64
1, 1725935, Note_off_c, 0, 80, 64
1, 1725940, Note_off_c, 0, 71, 63
1, 1725942, Note_off_c, 0, 59, 63
1, 1725956, Note_off_c, 0, 61, 61
1, 1725978, Note_off_c, 0, 73, 60
1, 1726154, Note_on_c, 0, 65, 90
1, 1726157, Note_on_c, 0, 77, 89
1, 1726160, Note_on_c, 0, 56, 86
1, 1726160, Control_c, 0, 64, 84
1, 1726165, Note_on_c, 0, 68, 97
1, 1726166, Note_on_c, 0, 73, 82
1, 1726168, Note_on_c, 0, 59, 72
1, 1726168, Note_on_c, 0, 71, 51
1, 1726169, Note_on_c, 0, 61, 83
1, 1726178, Control_c, 0, 64, 38
1, 1726199, Control_c, 0, 64, 47
1, 1726215, Note_off_c, 0, 65, 65
1, 1726215, Note_off_c, 0, 71, 66
1, 1726216, Control_c, 0, 64, 86
1, 1726234, Control_c, 0, 64, 127
1, 1726236, Note_off_c, 0, 56, 63
1, 1726243, Note_off_c, 0, 77, 59
1, 1726246, Note_off_c, 0, 73, 64
1, 1726250, Note_off_c, 0, 59, 66
1, 1726255, Note_off_c, 0, 61, 63
1, 1726285, Note_off_c, 0, 68, 59
1, 1726308, Poly_aftertouch_c, 0, 58, 0
1, 1726436, Note_on_c, 0, 71, 61
1, 1726441, Note_on_c, 0, 61, 96
1, 1726443, Note_on_c, 0, 73, 93
1, 1726446, Note_on_c, 0, 65, 92
1, 1726448, Note_on_c, 0, 56, 78
1, 1726449, Note_on_c, 0, 59, 84
1, 1726449, Note_on_c, 0, 53, 83
1, 1726449, Note_on_c, 0, 68, 86
1, 1726480, Note_off_c, 0, 65, 65
1, 1726487, Note_off_c, 0, 61, 68
1, 1726504, Note_off_c, 0, 59, 65
1, 1726516, Note_off_c, 0, 53, 64
1, 1726516, Poly_aftertouch_c, 0, 53, 0
1, 1726517, Note_off_c, 0, 68, 65
1, 1726523, Note_off_c, 0, 71, 63
1, 1726527, Note_off_c, 0, 56, 65
1, 1726530, Note_off_c, 0, 73, 67
1, 1726852, Control_c, 0, 64, 69
1, 1726870, Note_on_c, 0, 85, 98
1, 1726870, Note_on_c, 0, 82, 90
1, 1726870, Control_c, 0, 64, 0
1, 1726871, Note_on_c, 0, 73, 104
1, 1726874, Note_on_c, 0, 78, 92
1, 1726894, Note_on_c, 0, 42, 102
1, 1726899, Note_on_c, 0, 30, 97
1, 1726935, Note_on_c, 0, 29, 54
1, 1726944, Control_c, 0, 64, 74
1, 1726964, Control_c, 0, 64, 127
1, 1726996, Note_off_c, 0, 29, 40
1, 1727100, Note_off_c, 0, 78, 63
1, 1727104, Note_off_c, 0, 85, 62
1, 1727113, Note_off_c, 0, 82, 63
1, 1727135, Note_off_c, 0, 30, 58
1, 1727163, Note_off_c, 0, 42, 58
1, 1727167, Poly_aftertouch_c, 0, 32, 0
1, 1727188, Note_off_c, 0, 73, 54
1, 1727471, Note_on_c, 0, 82, 98
1, 1727473, Note_on_c, 0, 70, 102
1, 1727476, Note_on_c, 0, 73, 92
1, 1727476, Note_on_c, 0, 77, 85
1, 1727490, Control_c, 0, 64, 86
1, 1727500, Note_on_c, 0, 46, 100
1, 1727508, Note_on_c, 0, 34, 92
1, 1727509, Control_c, 0, 64, 19
1, 1727526, Control_c, 0, 64, 0
1, 1727543, Control_c, 0, 64, 56
1, 1727544, Note_on_c, 0, 37, 36
1, 1727562, Control_c, 0, 64, 91
1, 1727581, Control_c, 0, 64, 127
1, 1727626, Note_off_c, 0, 82, 63
1, 1727634, Note_off_c, 0, 77, 59
1, 1727666, Note_off_c, 0, 73, 62
1, 1727679, Note_off_c, 0, 70, 59
1, 1727715, Note_off_c, 0, 34, 58
1, 1727727, Note_off_c, 0, 46, 54
1, 1727746, Note_off_c, 0, 37, 44
1, 1727747, Poly_aftertouch_c, 0, 37, 0
1, 1728011, Note_on_c, 0, 78, 92
1, 1728011, Control_c, 0, 64, 97
1, 1728012, Note_on_c, 0, 75, 89
1, 1728013, Note_on_c, 0, 66, 99
1, 1728014, Note_on_c, 0, 70, 89
1, 1728024, Note_on_c, 0, 51, 97
1, 1728026, Note_on_c, 0, 39, 90
1, 1728029, Control_c, 0, 64, 36
1, 1728047, Control_c, 0, 64, 0
1, 1728087, Control_c, 0, 64, 63
1, 1728104, Control_c, 0, 64, 104
1, 1728123, Control_c, 0, 64, 127
1, 1728217, Note_off_c, 0, 70, 62
1, 1728270, Note_off_c, 0, 51, 59
1, 1728274, Note_off_c, 0, 39, 59
1, 1728291, Note_off_c, 0, 75, 56
1, 1728342, Note_off_c, 0, 66, 60
1, 1728342, Poly_aftertouch_c, 0, 66, 0
1, 1728348, Note_off_c, 0, 78, 60
1, 1728479, Control_c, 0, 64, 117
1, 1728497, Control_c, 0, 64, 60
1, 1728515, Control_c, 0, 64, 0
1, 1728524, Note_on_c, 0, 77, 95
1, 1728525, Note_on_c, 0, 53, 88
1, 1728527, Note_on_c, 0, 41, 85
1, 1728528, Note_on_c, 0, 68, 95
1, 1728531, Note_on_c, 0, 65, 97
1, 1728531, Note_on_c, 0, 72, 86
1, 1728554, Control_c, 0, 64, 42
1, 1728572, Control_c, 0, 64, 97
1, 1728577, Note_off_c, 0, 53, 64
1, 1728577, Poly_aftertouch_c, 0, 53, 0
1, 1728590, Control_c, 0, 64, 127
1, 1728605, Note_off_c, 0, 41, 63
1, 1728777, Control_c, 0, 64, 110
1, 1728797, Control_c, 0, 64, 52
1, 1728815, Control_c, 0, 64, 0
1, 1728816, Note_on_c, 0, 32, 88
1, 1728822, Note_off_c, 0, 77, 58
1, 1728843, Note_off_c, 0, 65, 59
1, 1728871, Control_c, 0, 64, 27
1, 1728873, Note_off_c, 0, 72, 61
1, 1728884, Note_off_c, 0, 68, 59
1, 1728889, Control_c, 0, 64, 90
1, 1728909, Control_c, 0, 64, 127
1, 1728926, Note_off_c, 0, 32, 60
1, 1728926, Note_on_c, 0, 44, 88
1, 1728958, Note_off_c, 0, 44, 69
1, 1729121, Note_on_c, 0, 75, 93
1, 1729123, Note_on_c, 0, 63, 102
1, 1729126, Note_on_c, 0, 73, 91
1, 1729127, Note_on_c, 0, 68, 91
1, 1729140, Note_on_c, 0, 61, 105
1, 1729140, Note_on_c, 0, 51, 88
1, 1729143, Note_on_c, 0, 56, 88
1, 1729168, Note_off_c, 0, 61, 64
1, 1729175, Note_off_c, 0, 51, 66
1, 1729201, Note_off_c, 0, 56, 63
1, 1729882, Control_c, 0, 64, 92
1, 1729899, Control_c, 0, 64, 51
1, 1729916, Control_c, 0, 64, 11
1, 1729919, Note_on_c, 0, 32, 87
1, 1729937, Control_c, 0, 64, 39
1, 1729956, Control_c, 0, 64, 70
1, 1729974, Control_c, 0, 64, 101
1, 1729979, Note_off_c, 0, 63, 53
1, 1729987, Note_off_c, 0, 68, 55
1, 1729992, Note_off_c, 0, 73, 60
1, 1729993, Control_c, 0, 64, 127
1, 1730012, Note_off_c, 0, 75, 60
1, 1730016, Note_on_c, 0, 44, 86
1, 1730032, Note_off_c, 0, 32, 56
1, 1730053, Note_off_c, 0, 44, 69
1, 1730260, Note_on_c, 0, 75, 86
1, 1730267, Note_on_c, 0, 68, 78
1, 1730269, Note_on_c, 0, 72, 73
1, 1730272, Note_on_c, 0, 63, 81
1, 1730288, Note_on_c, 0, 60, 80
1, 1730296, Note_on_c, 0, 51, 68
1, 1730301, Note_on_c, 0, 56, 63
1, 1730320, Note_on_c, 0, 54, 58
1, 1730349, Control_c, 0, 64, 92
1, 1730367, Control_c, 0, 64, 57
1, 1730386, Control_c, 0, 64, 23
1, 1730404, Control_c, 0, 64, 10
1, 1730424, Control_c, 0, 64, 38
1, 1730441, Control_c, 0, 64, 65
1, 1730461, Control_c, 0, 64, 91
1, 1730479, Control_c, 0, 64, 127
1, 1730552, Note_off_c, 0, 60, 60
1, 1730583, Note_off_c, 0, 63, 61
1, 1730608, Note_off_c, 0, 56, 59
1, 1730611, Note_off_c, 0, 51, 59
1, 1730626, Note_off_c, 0, 54, 52
1, 1730694, Note_off_c, 0, 75, 57
1, 1730722, Control_c, 0, 67, 8
1, 1730810, Note_on_c, 0, 77, 83
1, 1730819, Note_on_c, 0, 65, 79
1, 1730909, Control_c, 0, 64, 98
1, 1730928, Control_c, 0, 64, 65
1, 1730947, Control_c, 0, 64, 52
1, 1730948, Control_c, 0, 67, 12
1, 1730952, Note_on_c, 0, 25, 74
1, 1730965, Control_c, 0, 64, 60
1, 1730980, Note_off_c, 0, 77, 62
1, 1730985, Control_c, 0, 64, 77
1, 1730986, Note_off_c, 0, 68, 62
1, 1730989, Note_off_c, 0, 72, 58
1, 1731002, Note_on_c, 0, 23, 46
1, 1731002, Control_c, 0, 64, 98
1, 1731005, Note_on_c, 0, 24, 40
1, 1731005, Control_c, 0, 67, 17
1, 1731019, Note_off_c, 0, 65, 62
1, 1731022, Control_c, 0, 64, 127
1, 1731041, Control_c, 0, 67, 24
1, 1731054, Note_off_c, 0, 23, 57
1, 1731058, Control_c, 0, 67, 30
1, 1731064, Note_off_c, 0, 24, 48
1, 1731066, Note_on_c, 0, 37, 80
1, 1731077, Control_c, 0, 67, 37
1, 1731087, Note_off_c, 0, 25, 61
1, 1731105, Note_off_c, 0, 37, 66
1, 1731113, Control_c, 0, 67, 41
1, 1731333, Note_on_c, 0, 73, 58
1, 1731344, Note_on_c, 0, 68, 54
1, 1731345, Note_on_c, 0, 61, 52
1, 1731353, Note_on_c, 0, 65, 49
1, 1731415, Control_c, 0, 64, 111
1, 1731433, Control_c, 0, 64, 92
1, 1731440, Note_on_c, 0, 53, 77
1, 1731451, Control_c, 0, 64, 72
1, 1731470, Control_c, 0, 64, 56
1, 1731471, Note_on_c, 0, 41, 62
1, 1731491, Control_c, 0, 64, 40
1, 1731507, Control_c, 0, 64, 29
1, 1731545, Control_c, 0, 64, 45
1, 1731564, Control_c, 0, 64, 61
1, 1731582, Control_c, 0, 64, 79
1, 1731584, Control_c, 0, 67, 37
1, 1731602, Control_c, 0, 64, 100
1, 1731620, Control_c, 0, 64, 127
1, 1731643, Note_off_c, 0, 73, 59
1, 1731682, Note_off_c, 0, 68, 59
1, 1731684, Note_off_c, 0, 65, 51
1, 1731696, Note_off_c, 0, 61, 57
1, 1731711, Note_off_c, 0, 53, 59
1, 1731711, Poly_aftertouch_c, 0, 53, 0
1, 1731912, Note_on_c, 0, 51, 64
1, 1731929, Note_on_c, 0, 39, 56
1, 1731958, Control_c, 0, 64, 122
1, 1731975, Control_c, 0, 64, 97
1, 1731994, Control_c, 0, 64, 78
1, 1732013, Control_c, 0, 64, 68
1, 1732018, Note_off_c, 0, 41, 27
1, 1732050, Control_c, 0, 64, 78
1, 1732053, Poly_aftertouch_c, 0, 46, 0
1, 1732069, Control_c, 0, 64, 92
1, 1732087, Control_c, 0, 64, 117
1, 1732106, Control_c, 0, 64, 127
1, 1732174, Note_off_c, 0, 51, 57
1, 1732181, Control_c, 0, 67, 31
1, 1732218, Control_c, 0, 67, 27
1, 1732254, Note_off_c, 0, 39, 58
1, 1732386, Note_on_c, 0, 65, 55
1, 1732401, Note_on_c, 0, 61, 48
1, 1732428, Note_on_c, 0, 56, 42
1, 1732432, Note_on_c, 0, 49, 55
1, 1732458, Note_on_c, 0, 37, 47
1, 1732480, Control_c, 0, 64, 115
1, 1732500, Control_c, 0, 64, 89
1, 1732517, Control_c, 0, 64, 64
1, 1732536, Control_c, 0, 64, 45
1, 1732555, Control_c, 0, 64, 25
1, 1732592, Control_c, 0, 64, 40
1, 1732611, Control_c, 0, 64, 56
1, 1732617, Note_off_c, 0, 61, 54
1, 1732630, Control_c, 0, 64, 74
1, 1732648, Control_c, 0, 64, 96
1, 1732650, Note_off_c, 0, 49, 58
1, 1732650, Poly_aftertouch_c, 0, 49, 0
1, 1732667, Control_c, 0, 64, 127
1, 1732699, Note_off_c, 0, 56, 52
1, 1732896, Note_off_c, 0, 37, 49
1, 1732913, Note_on_c, 0, 63, 59
1, 1732934, Note_on_c, 0, 54, 49
1, 1732938, Note_on_c, 0, 60, 40
1, 1732951, Note_on_c, 0, 44, 58
1, 1732955, Note_off_c, 0, 65, 56
1, 1732964, Note_on_c, 0, 32, 57
1, 1733003, Control_c, 0, 64, 94
1, 1733023, Control_c, 0, 64, 63
1, 1733041, Control_c, 0, 64, 36
1, 1733061, Control_c, 0, 64, 13
1, 1733078, Control_c, 0, 64, 31
1, 1733098, Control_c, 0, 64, 53
1, 1733116, Control_c, 0, 64, 75
1, 1733121, Note_off_c, 0, 60, 59
1, 1733130, Note_off_c, 0, 32, 61
1, 1733132, Control_c, 0, 64, 100
1, 1733153, Note_off_c, 0, 44, 62
1, 1733153, Control_c, 0, 64, 127
1, 1733178, Note_off_c, 0, 54, 60
1, 1733429, Note_on_c, 0, 61, 61
1, 1733449, Note_on_c, 0, 53, 43
1, 1733455, Note_on_c, 0, 56, 69
1, 1733466, Note_on_c, 0, 44, 60
1, 1733509, Control_c, 0, 64, 105
1, 1733517, Note_off_c, 0, 63, 37
1, 1733527, Control_c, 0, 64, 77
1, 1733548, Control_c, 0, 64, 51
1, 1733565, Control_c, 0, 64, 22
1, 1733583, Control_c, 0, 64, 12
1, 1733602, Control_c, 0, 64, 30
1, 1733604, Control_c, 0, 67, 23
1, 1733620, Control_c, 0, 64, 49
1, 1733639, Control_c, 0, 64, 70
1, 1733658, Control_c, 0, 64, 96
1, 1733660, Control_c, 0, 67, 18
1, 1733677, Control_c, 0, 64, 127
1, 1733695, Control_c, 0, 67, 14
1, 1733740, Note_off_c, 0, 56, 60
1, 1733752, Control_c, 0, 67, 10
1, 1733788, Note_off_c, 0, 53, 36
1, 1733788, Poly_aftertouch_c, 0, 53, 0
1, 1733936, Note_off_c, 0, 44, 37
1, 1733952, Note_on_c, 0, 56, 59
1, 1733977, Note_on_c, 0, 54, 56
1, 1733977, Control_c, 0, 64, 111
1, 1733985, Note_on_c, 0, 42, 53
1, 1733996, Control_c, 0, 64, 81
1, 1734013, Control_c, 0, 64, 56
1, 1734032, Control_c, 0, 64, 42
1, 1734068, Control_c, 0, 64, 57
1, 1734088, Control_c, 0, 64, 74
1, 1734110, Control_c, 0, 64, 96
1, 1734123, Note_off_c, 0, 56, 62
1, 1734125, Control_c, 0, 64, 127
1, 1734136, Note_off_c, 0, 61, 62
1, 1734274, Note_off_c, 0, 54, 54
1, 1734312, Control_c, 0, 67, 14
1, 1734333, Note_off_c, 0, 42, 49
1, 1734456, Note_on_c, 0, 68, 67
1, 1734490, Note_on_c, 0, 53, 47
1, 1734497, Note_on_c, 0, 41, 47
1, 1734499, Control_c, 0, 64, 121
1, 1734510, Note_on_c, 0, 61, 44
1, 1734516, Control_c, 0, 64, 108
1, 1734536, Control_c, 0, 64, 90
1, 1734553, Note_on_c, 0, 56, 24
1, 1734554, Control_c, 0, 64, 68
1, 1734575, Control_c, 0, 64, 43
1, 1734592, Control_c, 0, 64, 0
1, 1734630, Control_c, 0, 64, 24
1, 1734650, Control_c, 0, 64, 48
1, 1734667, Control_c, 0, 64, 69
1, 1734687, Control_c, 0, 64, 90
1, 1734694, Note_off_c, 0, 53, 50
1, 1734694, Poly_aftertouch_c, 0, 53, 0
1, 1734706, Control_c, 0, 64, 117
1, 1734724, Control_c, 0, 64, 127
1, 1734770, Note_off_c, 0, 56, 43
1, 1734770, Note_off_c, 0, 61, 38
1, 1734798, Control_c, 0, 67, 10
1, 1734870, Note_off_c, 0, 41, 37
1, 1734955, Note_on_c, 0, 66, 71
1, 1734969, Note_on_c, 0, 61, 40
1, 1734983, Note_on_c, 0, 58, 51
1, 1734994, Note_on_c, 0, 49, 54
1, 1735002, Note_on_c, 0, 37, 51
1, 1735002, Control_c, 0, 64, 123
1, 1735023, Control_c, 0, 64, 95
1, 1735039, Note_off_c, 0, 61, 55
1, 1735041, Control_c, 0, 64, 67
1, 1735060, Control_c, 0, 64, 47
1, 1735072, Note_off_c, 0, 68, 62
1, 1735080, Control_c, 0, 64, 45
1, 1735097, Control_c, 0, 64, 59
1, 1735117, Control_c, 0, 64, 77
1, 1735135, Control_c, 0, 64, 100
1, 1735153, Control_c, 0, 64, 127
1, 1735161, Note_off_c, 0, 37, 59
1, 1735204, Note_off_c, 0, 66, 63
1, 1735204, Poly_aftertouch_c, 0, 66, 0
1, 1735214, Note_off_c, 0, 49, 60
1, 1735214, Poly_aftertouch_c, 0, 49, 0
1, 1735235, Note_off_c, 0, 58, 62
1, 1735449, Note_on_c, 0, 65, 67
1, 1735473, Note_on_c, 0, 58, 72
1, 1735488, Note_on_c, 0, 61, 47
1, 1735498, Note_on_c, 0, 46, 56
1, 1735499, Note_on_c, 0, 53, 35
1, 1735585, Control_c, 0, 64, 104
1, 1735602, Control_c, 0, 64, 75
1, 1735621, Control_c, 0, 64, 46
1, 1735640, Control_c, 0, 64, 0
1, 1735659, Control_c, 0, 64, 11
1, 1735667, Note_off_c, 0, 61, 25
1, 1735677, Control_c, 0, 64, 40
1, 1735697, Control_c, 0, 64, 64
1, 1735715, Control_c, 0, 64, 85
1, 1735733, Control_c, 0, 64, 112
1, 1735741, Poly_aftertouch_c, 0, 53, 24
1, 1735753, Control_c, 0, 64, 127
1, 1735799, Note_off_c, 0, 53, 34
1, 1735799, Poly_aftertouch_c, 0, 53, 0
1, 1735800, Poly_aftertouch_c, 0, 53, 0
1, 1735810, Note_off_c, 0, 58, 58
1, 1735959, Note_off_c, 0, 46, 58
1, 1735973, Note_on_c, 0, 61, 66
1, 1735980, Note_on_c, 0, 58, 57
1, 1735987, Note_on_c, 0, 56, 58
1, 1736006, Note_on_c, 0, 44, 52
1, 1736051, Control_c, 0, 64, 106
1, 1736070, Control_c, 0, 64, 78
1, 1736089, Control_c, 0, 64, 53
1, 1736107, Control_c, 0, 64, 36
1, 1736127, Control_c, 0, 64, 42
1, 1736144, Control_c, 0, 64, 59
1, 1736164, Control_c, 0, 64, 77
1, 1736178, Note_off_c, 0, 56, 57
1, 1736182, Control_c, 0, 64, 101
1, 1736187, Note_off_c, 0, 65, 61
1, 1736201, Control_c, 0, 64, 127
1, 1736202, Note_off_c, 0, 58, 54
1, 1736238, Note_off_c, 0, 61, 62
1, 1736343, Note_off_c, 0, 44, 60
1, 1736483, Note_on_c, 0, 70, 75
1, 1736527, Note_on_c, 0, 54, 51
1, 1736527, Note_on_c, 0, 61, 52
1, 1736536, Note_on_c, 0, 42, 50
1, 1736544, Note_on_c, 0, 58, 47
1, 1736575, Control_c, 0, 64, 118
1, 1736594, Control_c, 0, 64, 92
1, 1736614, Control_c, 0, 64, 64
1, 1736631, Control_c, 0, 64, 39
1, 1736650, Control_c, 0, 64, 23
1, 1736669, Control_c, 0, 64, 38
1, 1736687, Control_c, 0, 64, 61
1, 1736705, Control_c, 0, 64, 83
1, 1736725, Control_c, 0, 64, 109
1, 1736742, Control_c, 0, 64, 127
1, 1736773, Note_off_c, 0, 58, 53
1, 1736802, Note_off_c, 0, 61, 33
1, 1736820, Note_off_c, 0, 54, 60
1, 1736829, Note_off_c, 0, 42, 58
1, 1736969, Note_on_c, 0, 68, 76
1, 1736985, Note_on_c, 0, 61, 62
1, 1737000, Note_on_c, 0, 56, 56
1, 1737005, Note_on_c, 0, 53, 57
1, 1737005, Note_on_c, 0, 41, 57
1, 1737042, Control_c, 0, 64, 95
1, 1737063, Control_c, 0, 64, 62
1, 1737079, Control_c, 0, 64, 17
1, 1737085, Note_off_c, 0, 70, 54
1, 1737098, Control_c, 0, 64, 0
1, 1737137, Control_c, 0, 64, 25
1, 1737154, Control_c, 0, 64, 56
1, 1737163, Note_off_c, 0, 56, 57
1, 1737173, Control_c, 0, 64, 84
1, 1737175, Note_off_c, 0, 53, 57
1, 1737192, Control_c, 0, 64, 120
1, 1737194, Control_c, 0, 67, 0
1, 1737212, Control_c, 0, 64, 127
1, 1737226, Note_off_c, 0, 61, 54
1, 1737240, Note_off_c, 0, 41, 62
1, 1737460, Note_on_c, 0, 66, 69
1, 1737468, Note_on_c, 0, 58, 63
1, 1737474, Note_on_c, 0, 61, 63
1, 1737480, Note_on_c, 0, 49, 69
1, 1737484, Note_on_c, 0, 37, 67
1, 1737529, Control_c, 0, 64, 104
1, 1737547, Control_c, 0, 64, 66
1, 1737565, Control_c, 0, 64, 25
1, 1737585, Control_c, 0, 64, 0
1, 1737591, Note_off_c, 0, 68, 38
1, 1737603, Control_c, 0, 64, 9
1, 1737623, Control_c, 0, 64, 52
1, 1737641, Control_c, 0, 64, 80
1, 1737660, Control_c, 0, 64, 115
1, 1737667, Note_off_c, 0, 61, 61
1, 1737669, Note_off_c, 0, 66, 63
1, 1737669, Poly_aftertouch_c, 0, 66, 0
1, 1737677, Note_off_c, 0, 58, 60
1, 1737678, Control_c, 0, 64, 127
1, 1737882, Note_off_c, 0, 49, 56
1, 1737882, Poly_aftertouch_c, 0, 49, 0
1, 1737893, Note_off_c, 0, 37, 55
1, 1737917, Note_on_c, 0, 65, 67
1, 1737929, Note_on_c, 0, 56, 62
1, 1737935, Note_on_c, 0, 61, 56
1, 1738015, Control_c, 0, 64, 93
1, 1738032, Note_off_c, 0, 61, 62
1, 1738032, Control_c, 0, 64, 50
1, 1738052, Control_c, 0, 64, 0
1, 1738058, Note_off_c, 0, 56, 54
1, 1738073, Note_on_c, 0, 39, 70
1, 1738077, Note_on_c, 0, 51, 66
1, 1738112, Note_off_c, 0, 51, 63
1, 1738117, Note_off_c, 0, 39, 61
1, 1738214, Note_on_c, 0, 53, 69
1, 1738216, Note_on_c, 0, 41, 68
1, 1738247, Note_off_c, 0, 41, 66
1, 1738249, Note_off_c, 0, 53, 65
1, 1738398, Note_on_c, 0, 61, 70
1, 1738403, Note_on_c, 0, 51, 64
1, 1738411, Note_on_c, 0, 56, 56
1, 1738413, Note_on_c, 0, 58, 61
1, 1738421, Note_on_c, 0, 39, 59
1, 1738436, Note_off_c, 0, 65, 59
1, 1738482, Control_c, 0, 64, 40
1, 1738501, Control_c, 0, 64, 65
1, 1738519, Control_c, 0, 64, 83
1, 1738539, Control_c, 0, 64, 102
1, 1738557, Control_c, 0, 64, 127
1, 1738609, Note_off_c, 0, 51, 61
1, 1738632, Control_c, 0, 67, 11
1, 1738645, Note_off_c, 0, 39, 59
1, 1738652, Note_off_c, 0, 56, 50
1, 1738655, Note_off_c, 0, 58, 37
1, 1738669, Control_c, 0, 67, 17
1, 1738687, Control_c, 0, 67, 21
1, 1738706, Control_c, 0, 67, 25
1, 1738745, Control_c, 0, 67, 29
1, 1738856, Control_c, 0, 67, 37
1, 1738876, Control_c, 0, 64, 115
1, 1738878, Control_c, 0, 67, 42
1, 1738885, Note_on_c, 0, 55, 71
1, 1738891, Note_on_c, 0, 58, 69
1, 1738895, Note_off_c, 0, 61, 58
1, 1738895, Control_c, 0, 64, 90
1, 1738896, Control_c, 0, 67, 47
1, 1738897, Note_on_c, 0, 39, 68
1, 1738903, Note_on_c, 0, 27, 66
1, 1738913, Control_c, 0, 64, 62
1, 1738916, Control_c, 0, 67, 52
1, 1738931, Control_c, 0, 64, 18
1, 1738932, Control_c, 0, 67, 56
1, 1738937, Note_off_c, 0, 58, 57
1, 1738950, Control_c, 0, 64, 0
1, 1739007, Control_c, 0, 64, 16
1, 1739024, Control_c, 0, 64, 43
1, 1739032, Note_on_c, 0, 63, 70
1, 1739043, Control_c, 0, 64, 63
1, 1739062, Control_c, 0, 64, 77
1, 1739081, Control_c, 0, 64, 88
1, 1739099, Control_c, 0, 64, 95
1, 1739101, Note_off_c, 0, 55, 57
1, 1739121, Note_off_c, 0, 63, 50
1, 1739166, Note_on_c, 0, 65, 72
1, 1739197, Note_off_c, 0, 27, 63
1, 1739203, Note_off_c, 0, 39, 60
1, 1739266, Note_off_c, 0, 65, 61
1, 1739267, Control_c, 0, 64, 88
1, 1739287, Control_c, 0, 64, 73
1, 1739304, Control_c, 0, 64, 50
1, 1739325, Control_c, 0, 64, 0
1, 1739350, Note_on_c, 0, 63, 75
1, 1739358, Note_on_c, 0, 56, 73
1, 1739366, Note_on_c, 0, 60, 63
1, 1739374, Note_on_c, 0, 44, 73
1, 1739379, Note_on_c, 0, 32, 69
1, 1739399, Control_c, 0, 67, 50
1, 1739417, Control_c, 0, 64, 38
1, 1739419, Control_c, 0, 67, 43
1, 1739435, Note_off_c, 0, 44, 55
1, 1739435, Control_c, 0, 64, 68
1, 1739436, Control_c, 0, 67, 35
1, 1739437, Note_off_c, 0, 32, 56
1, 1739455, Control_c, 0, 64, 89
1, 1739457, Control_c, 0, 67, 30
1, 1739474, Note_off_c, 0, 56, 59
1, 1739474, Control_c, 0, 64, 107
1, 1739490, Note_off_c, 0, 60, 59
1, 1739490, Control_c, 0, 64, 121
1, 1739510, Control_c, 0, 64, 125
1, 1739623, Control_c, 0, 64, 120
1, 1739660, Control_c, 0, 64, 116
1, 1739687, Note_on_c, 0, 46, 71
1, 1739688, Note_on_c, 0, 34, 69
1, 1739698, Control_c, 0, 64, 110
1, 1739699, Control_c, 0, 67, 23
1, 1739716, Control_c, 0, 64, 97
1, 1739718, Control_c, 0, 67, 11
1, 1739724, Note_off_c, 0, 46, 65
1, 1739726, Note_off_c, 0, 34, 64
1, 1739736, Control_c, 0, 64, 73
1, 1739739, Control_c, 0, 67, 0
1, 1739754, Control_c, 0, 64, 37
1, 1739771, Note_on_c, 0, 56, 73
1, 1739771, Control_c, 0, 64, 0
1, 1739779, Note_on_c, 0, 51, 70
1, 1739792, Note_on_c, 0, 48, 75
1, 1739792, Note_on_c, 0, 36, 78
1, 1739823, Note_off_c, 0, 48, 67
1, 1739823, Poly_aftertouch_c, 0, 48, 0
1, 1739831, Note_off_c, 0, 63, 50
1, 1739833, Note_off_c, 0, 36, 68
1, 1740017, Note_off_c, 0, 51, 61
1, 1740034, Control_c, 0, 64, 44
1, 1740040, Note_on_c, 0, 44, 74
1, 1740045, Note_on_c, 0, 32, 71
1, 1740048, Note_off_c, 0, 56, 63
1, 1740051, Control_c, 0, 64, 71
1, 1740068, Note_off_c, 0, 44, 66
1, 1740070, Control_c, 0, 64, 81
1, 1740088, Note_off_c, 0, 32, 62
1, 1740090, Control_c, 0, 64, 90
1, 1740108, Control_c, 0, 64, 103
1, 1740128, Control_c, 0, 64, 116
1, 1740146, Control_c, 0, 64, 125
1, 1740277, Control_c, 0, 64, 115
1, 1740296, Control_c, 0, 64, 98
1, 1740314, Control_c, 0, 64, 74
1, 1740333, Control_c, 0, 64, 46
1, 1740334, Note_on_c, 0, 72, 70
1, 1740351, Control_c, 0, 64, 0
1, 1740360, Note_on_c, 0, 68, 57
1, 1740367, Note_on_c, 0, 63, 58
1, 1740384, Note_on_c, 0, 56, 69
1, 1740400, Note_on_c, 0, 44, 57
1, 1740446, Control_c, 0, 64, 36
1, 1740465, Control_c, 0, 64, 72
1, 1740484, Control_c, 0, 64, 103
1, 1740502, Control_c, 0, 64, 127
1, 1740516, Note_off_c, 0, 68, 55
1, 1740556, Note_off_c, 0, 72, 58
1, 1740559, Note_off_c, 0, 63, 34
1, 1740668, Note_on_c, 0, 73, 80
1, 1740687, Note_on_c, 0, 68, 61
1, 1740688, Note_on_c, 0, 64, 52
1, 1740704, Note_off_c, 0, 73, 62
1, 1740720, Note_off_c, 0, 68, 70
1, 1740721, Note_off_c, 0, 64, 58
1, 1740778, Note_on_c, 0, 75, 93
1, 1740780, Control_c, 0, 64, 85
1, 1740800, Note_on_c, 0, 66, 67
1, 1740800, Control_c, 0, 64, 53
1, 1740810, Note_on_c, 0, 68, 58
1, 1740819, Control_c, 0, 64, 56
1, 1740838, Control_c, 0, 64, 81
1, 1740857, Control_c, 0, 64, 119
1, 1740875, Control_c, 0, 64, 127
1, 1740923, Note_off_c, 0, 66, 62
1, 1740923, Poly_aftertouch_c, 0, 66, 0
1, 1740936, Note_off_c, 0, 75, 62
1, 1740954, Note_off_c, 0, 68, 60
1, 1741005, Note_off_c, 0, 56, 63
1, 1741035, Note_on_c, 0, 73, 89
1, 1741052, Note_on_c, 0, 64, 70
1, 1741057, Poly_aftertouch_c, 0, 46, 0
1, 1741066, Note_on_c, 0, 68, 55
1, 1741071, Note_off_c, 0, 44, 61
1, 1741084, Note_off_c, 0, 64, 66
1, 1741092, Note_off_c, 0, 68, 64
1, 1741111, Note_off_c, 0, 73, 64
1, 1741320, Note_on_c, 0, 78, 80
1, 1741344, Note_on_c, 0, 72, 57
1, 1741367, Note_on_c, 0, 69, 58
1, 1741380, Control_c, 0, 64, 104
1, 1741387, Note_on_c, 0, 32, 55
1, 1741398, Control_c, 0, 64, 72
1, 1741406, Note_on_c, 0, 44, 34
1, 1741419, Control_c, 0, 64, 54
1, 1741437, Control_c, 0, 64, 59
1, 1741456, Control_c, 0, 64, 78
1, 1741458, Note_off_c, 0, 69, 61
1, 1741458, Poly_aftertouch_c, 0, 69, 0
1, 1741474, Control_c, 0, 64, 107
1, 1741485, Note_off_c, 0, 78, 65
1, 1741493, Control_c, 0, 64, 127
1, 1741504, Note_off_c, 0, 72, 57
1, 1741513, Note_off_c, 0, 44, 50
1, 1741571, Note_off_c, 0, 32, 55
1, 1741579, Note_on_c, 0, 76, 84
1, 1741602, Note_on_c, 0, 72, 35
1, 1741602, Note_on_c, 0, 68, 55
1, 1741638, Note_off_c, 0, 72, 63
1, 1741667, Note_off_c, 0, 68, 60
1, 1741697, Note_off_c, 0, 76, 60
1, 1741700, Note_on_c, 0, 32, 65
1, 1741700, Note_on_c, 0, 44, 54
1, 1741748, Note_off_c, 0, 44, 60
1, 1741790, Note_off_c, 0, 32, 59
1, 1741834, Note_on_c, 0, 75, 85
1, 1741846, Control_c, 0, 64, 100
1, 1741854, Note_on_c, 0, 66, 66
1, 1741865, Control_c, 0, 64, 58
1, 1741868, Note_on_c, 0, 68, 52
1, 1741884, Control_c, 0, 64, 40
1, 1741888, Note_on_c, 0, 32, 63
1, 1741897, Note_on_c, 0, 44, 48
1, 1741903, Control_c, 0, 64, 60
1, 1741922, Note_off_c, 0, 68, 59
1, 1741922, Control_c, 0, 64, 91
1, 1741929, Note_off_c, 0, 66, 56
1, 1741929, Poly_aftertouch_c, 0, 66, 0
1, 1741941, Control_c, 0, 64, 127
1, 1741974, Note_off_c, 0, 44, 57
1, 1741976, Note_off_c, 0, 32, 59
1, 1742031, Note_off_c, 0, 75, 58
1, 1742069, Note_on_c, 0, 72, 80
1, 1742080, Note_on_c, 0, 68, 71
1, 1742088, Note_on_c, 0, 63, 71
1, 1742095, Note_on_c, 0, 33, 56
1, 1742113, Note_on_c, 0, 45, 24
1, 1742122, Note_off_c, 0, 63, 65
1, 1742135, Note_off_c, 0, 33, 55
1, 1742170, Note_off_c, 0, 68, 54
1, 1742172, Note_off_c, 0, 45, 40
1, 1742173, Poly_aftertouch_c, 0, 44, 127
1, 1742187, Note_off_c, 0, 72, 60
1, 1742195, Poly_aftertouch_c, 0, 44, 0
1, 1742212, Poly_aftertouch_c, 0, 34, 0
1, 1742222, Note_on_c, 0, 32, 82
1, 1742277, Note_off_c, 0, 32, 57
1, 1742279, Poly_aftertouch_c, 0, 44, 0
1, 1742385, Note_on_c, 0, 73, 80
1, 1742396, Note_on_c, 0, 64, 71
1, 1742400, Note_on_c, 0, 69, 69
1, 1742401, Note_on_c, 0, 43, 80
1, 1742408, Note_on_c, 0, 31, 76
1, 1742408, Control_c, 0, 64, 117
1, 1742429, Control_c, 0, 64, 75
1, 1742446, Control_c, 0, 64, 39
1, 1742465, Control_c, 0, 64, 26
1, 1742483, Control_c, 0, 64, 51
1, 1742487, Note_off_c, 0, 64, 57
1, 1742503, Control_c, 0, 64, 78
1, 1742506, Note_off_c, 0, 69, 60
1, 1742506, Poly_aftertouch_c, 0, 69, 0
1, 1742520, Control_c, 0, 64, 109
1, 1742539, Control_c, 0, 64, 127
1, 1742540, Note_off_c, 0, 73, 63
1, 1742581, Note_off_c, 0, 31, 62
1, 1742605, Note_off_c, 0, 43, 64
1, 1742732, Note_on_c, 0, 75, 72
1, 1742741, Note_on_c, 0, 69, 60
1, 1742742, Note_on_c, 0, 72, 55
1, 1742782, Note_off_c, 0, 72, 62
1, 1742783, Note_off_c, 0, 69, 59
1, 1742783, Poly_aftertouch_c, 0, 69, 0
1, 1742795, Note_off_c, 0, 75, 65
1, 1742864, Note_on_c, 0, 76, 81
1, 1742875, Note_on_c, 0, 57, 67
1, 1742876, Control_c, 0, 64, 122
1, 1742895, Control_c, 0, 64, 89
1, 1742910, Note_on_c, 0, 69, 52
1, 1742914, Control_c, 0, 64, 67
1, 1742920, Note_on_c, 0, 73, 50
1, 1742932, Control_c, 0, 64, 71
1, 1742946, Note_off_c, 0, 69, 49
1, 1742946, Poly_aftertouch_c, 0, 69, 0
1, 1742951, Control_c, 0, 64, 90
1, 1742970, Control_c, 0, 64, 127
1, 1742973, Note_off_c, 0, 57, 57
1, 1742988, Note_off_c, 0, 73, 53
1, 1743007, Note_off_c, 0, 76, 61
1, 1743007, Note_on_c, 0, 59, 72
1, 1743069, Note_off_c, 0, 59, 59
1, 1743088, Note_on_c, 0, 78, 88
1, 1743107, Note_on_c, 0, 69, 66
1, 1743120, Note_on_c, 0, 73, 68
1, 1743163, Note_off_c, 0, 69, 51
1, 1743163, Poly_aftertouch_c, 0, 69, 0
1, 1743190, Note_off_c, 0, 73, 47
1, 1743190, Note_on_c, 0, 57, 66
1, 1743191, Note_off_c, 0, 78, 63
1, 1743253, Note_off_c, 0, 57, 56
1, 1743355, Note_on_c, 0, 81, 85
1, 1743364, Control_c, 0, 64, 110
1, 1743375, Note_on_c, 0, 69, 62
1, 1743379, Note_on_c, 0, 73, 59
1, 1743382, Control_c, 0, 64, 77
1, 1743390, Note_on_c, 0, 57, 70
1, 1743400, Control_c, 0, 64, 64
1, 1743418, Control_c, 0, 64, 76
1, 1743425, Note_off_c, 0, 57, 64
1, 1743438, Control_c, 0, 64, 100
1, 1743455, Control_c, 0, 64, 127
1, 1743474, Note_off_c, 0, 81, 61
1, 1743488, Note_off_c, 0, 69, 52
1, 1743488, Poly_aftertouch_c, 0, 69, 0
1, 1743508, Note_off_c, 0, 73, 59
1, 1743603, Note_on_c, 0, 79, 81
1, 1743639, Note_on_c, 0, 69, 58
1, 1743648, Note_on_c, 0, 73, 53
1, 1743693, Note_on_c, 0, 31, 64
1, 1743697, Note_off_c, 0, 69, 52
1, 1743697, Poly_aftertouch_c, 0, 69, 0
1, 1743700, Note_on_c, 0, 43, 55
1, 1743704, Note_off_c, 0, 73, 57
1, 1743736, Note_off_c, 0, 43, 57
1, 1743742, Note_off_c, 0, 31, 61
1, 1743746, Note_off_c, 0, 79, 56
1, 1743792, Control_c, 0, 67, 9
1, 1743830, Control_c, 0, 64, 97
1, 1743831, Control_c, 0, 67, 18
1, 1743849, Control_c, 0, 64, 61
1, 1743851, Control_c, 0, 67, 28
1, 1743865, Note_on_c, 0, 31, 63
1, 1743866, Control_c, 0, 64, 36
1, 1743867, Control_c, 0, 67, 40
1, 1743876, Note_on_c, 0, 43, 35
1, 1743879, Note_on_c, 0, 76, 70
1, 1743886, Control_c, 0, 64, 40
1, 1743887, Control_c, 0, 67, 50
1, 1743889, Note_on_c, 0, 73, 61
1, 1743899, Note_on_c, 0, 69, 53
1, 1743905, Control_c, 0, 64, 59
1, 1743906, Control_c, 0, 67, 55
1, 1743916, Note_off_c, 0, 43, 59
1, 1743923, Control_c, 0, 64, 81
1, 1743935, Note_off_c, 0, 31, 61
1, 1743941, Control_c, 0, 64, 115
1, 1743957, Note_off_c, 0, 69, 58
1, 1743957, Poly_aftertouch_c, 0, 69, 0
1, 1743960, Control_c, 0, 64, 127
1, 1743974, Note_off_c, 0, 73, 62
1, 1743977, Note_off_c, 0, 76, 62
1, 1743980, Control_c, 0, 67, 50
1, 1744059, Note_on_c, 0, 45, 56
1, 1744066, Note_on_c, 0, 33, 57
1, 1744098, Note_off_c, 0, 45, 62
1, 1744106, Note_off_c, 0, 33, 62
1, 1744133, Note_on_c, 0, 69, 54
1, 1744140, Note_on_c, 0, 73, 62
1, 1744164, Note_on_c, 0, 64, 35
1, 1744166, Control_c, 0, 67, 54
1, 1744199, Note_off_c, 0, 69, 53
1, 1744199, Poly_aftertouch_c, 0, 69, 0
1, 1744203, Control_c, 0, 64, 123
1, 1744209, Note_off_c, 0, 64, 47
1, 1744223, Control_c, 0, 64, 115
1, 1744224, Control_c, 0, 67, 60
1, 1744237, Note_off_c, 0, 73, 58
1, 1744242, Control_c, 0, 64, 107
1, 1744260, Note_on_c, 0, 31, 55
1, 1744260, Control_c, 0, 64, 101
1, 1744260, Control_c, 0, 67, 64
1, 1744265, Note_on_c, 0, 43, 43
1, 1744278, Control_c, 0, 64, 96
1, 1744298, Control_c, 0, 64, 92
1, 1744304, Note_off_c, 0, 31, 64
1, 1744312, Note_off_c, 0, 43, 44
1, 1744317, Control_c, 0, 64, 86
1, 1744334, Control_c, 0, 64, 79
1, 1744354, Control_c, 0, 64, 72
1, 1744373, Control_c, 0, 64, 67
1, 1744374, Control_c, 0, 67, 68
1, 1744391, Control_c, 0, 64, 63
1, 1744410, Control_c, 0, 64, 57
1, 1744428, Control_c, 0, 64, 46
1, 1744429, Control_c, 0, 67, 72
1, 1744447, Control_c, 0, 64, 26
1, 1744465, Control_c, 0, 64, 0
1, 1744503, Control_c, 0, 67, 76
1, 1744524, Note_on_c, 0, 30, 42
1, 1744539, Control_c, 0, 67, 81
1, 1744556, Note_on_c, 0, 42, 28
1, 1744597, Control_c, 0, 67, 85
1, 1744634, Control_c, 0, 67, 91
1, 1744653, Control_c, 0, 67, 97
1, 1744671, Control_c, 0, 67, 104
1, 1744689, Control_c, 0, 67, 110
1, 1744709, Control_c, 0, 67, 114
1, 1744764, Control_c, 0, 67, 119
1, 1744784, Control_c, 0, 64, 20
1, 1744801, Control_c, 0, 64, 38
1, 1744821, Control_c, 0, 64, 55
1, 1744835, Note_on_c, 0, 82, 45
1, 1744840, Control_c, 0, 64, 72
1, 1744841, Note_off_c, 0, 30, 56
1, 1744847, Note_on_c, 0, 73, 39
1, 1744859, Control_c, 0, 64, 83
1, 1744860, Note_on_c, 0, 76, 37
1, 1744878, Control_c, 0, 64, 92
1, 1744896, Control_c, 0, 64, 102
1, 1744915, Control_c, 0, 64, 111
1, 1744918, Note_off_c, 0, 42, 42
1, 1744926, Note_off_c, 0, 76, 60
1, 1744932, Control_c, 0, 64, 116
1, 1744961, Note_off_c, 0, 82, 56
1, 1744987, Note_off_c, 0, 73, 41
1, 1745123, Note_on_c, 0, 42, 37
1, 1745139, Control_c, 0, 64, 107
1, 1745157, Control_c, 0, 64, 95
1, 1745177, Control_c, 0, 64, 80
1, 1745196, Control_c, 0, 64, 66
1, 1745213, Control_c, 0, 64, 58
1, 1745251, Control_c, 0, 64, 63
1, 1745269, Control_c, 0, 64, 65
1, 1745280, Note_on_c, 0, 44, 31
1, 1745286, Control_c, 0, 64, 69
1, 1745303, Note_off_c, 0, 42, 35
1, 1745305, Control_c, 0, 64, 73
1, 1745327, Control_c, 0, 64, 78
1, 1745328, Control_c, 0, 67, 124
1, 1745344, Control_c, 0, 64, 84
1, 1745350, Note_off_c, 0, 44, 50
1, 1745363, Control_c, 0, 64, 92
1, 1745367, Note_on_c, 0, 76, 40
1, 1745370, Note_on_c, 0, 73, 38
1, 1745375, Note_on_c, 0, 70, 40
1, 1745382, Control_c, 0, 64, 101
1, 1745401, Control_c, 0, 64, 107
1, 1745456, Note_on_c, 0, 42, 41
1, 1745462, Note_off_c, 0, 73, 58
1, 1745469, Note_off_c, 0, 76, 62
1, 1745472, Note_off_c, 0, 70, 57
1, 1745505, Note_off_c, 0, 42, 45
1, 1745622, Note_on_c, 0, 42, 47
1, 1745756, Control_c, 0, 64, 103
1, 1745794, Control_c, 0, 64, 92
1, 1745811, Control_c, 0, 64, 80
1, 1745831, Control_c, 0, 64, 69
1, 1745850, Control_c, 0, 64, 60
1, 1745867, Note_on_c, 0, 70, 43
1, 1745869, Note_on_c, 0, 73, 45
1, 1745885, Control_c, 0, 64, 65
1, 1745887, Note_on_c, 0, 64, 33
1, 1745906, Control_c, 0, 64, 69
1, 1745912, Note_off_c, 0, 42, 51
1, 1745925, Control_c, 0, 64, 74
1, 1745942, Control_c, 0, 64, 81
1, 1745950, Note_off_c, 0, 70, 54
1, 1745962, Control_c, 0, 64, 91
1, 1745977, Note_off_c, 0, 64, 55
1, 1745979, Control_c, 0, 64, 104
1, 1745985, Note_off_c, 0, 73, 52
1, 1745999, Control_c, 0, 64, 116
1, 1746019, Control_c, 0, 64, 126
1, 1746113, Note_on_c, 0, 42, 42
1, 1746205, Control_c, 0, 64, 105
1, 1746223, Control_c, 0, 64, 88
1, 1746242, Control_c, 0, 64, 83
1, 1746251, Note_off_c, 0, 42, 52
1, 1746260, Control_c, 0, 64, 88
1, 1746273, Note_on_c, 0, 44, 31
1, 1746278, Control_c, 0, 64, 97
1, 1746298, Control_c, 0, 64, 109
1, 1746308, Note_on_c, 0, 70, 46
1, 1746316, Control_c, 0, 64, 122
1, 1746330, Note_on_c, 0, 64, 31
1, 1746333, Note_on_c, 0, 61, 28
1, 1746334, Control_c, 0, 64, 127
1, 1746382, Note_off_c, 0, 44, 39
1, 1746385, Note_off_c, 0, 61, 52
1, 1746385, Note_off_c, 0, 64, 58
1, 1746395, Note_off_c, 0, 70, 50
1, 1746424, Note_on_c, 0, 42, 49
1, 1746468, Note_off_c, 0, 42, 61
1, 1746542, Control_c, 0, 67, 120
1, 1746593, Note_on_c, 0, 42, 44
1, 1746691, Control_c, 0, 64, 110
1, 1746709, Control_c, 0, 64, 91
1, 1746729, Control_c, 0, 64, 70
1, 1746747, Control_c, 0, 64, 53
1, 1746765, Control_c, 0, 64, 40
1, 1746803, Control_c, 0, 64, 44
1, 1746822, Control_c, 0, 64, 56
1, 1746840, Control_c, 0, 64, 68
1, 1746841, Control_c, 0, 67, 115
1, 1746847, Note_on_c, 0, 88, 53
1, 1746860, Control_c, 0, 64, 80
1, 1746869, Note_on_c, 0, 85, 40
1, 1746878, Control_c, 0, 64, 94
1, 1746880, Note_on_c, 0, 82, 38
1, 1746897, Control_c, 0, 64, 112
1, 1746899, Control_c, 0, 67, 111
1, 1746917, Control_c, 0, 64, 127
1, 1746947, Note_off_c, 0, 42, 39
1, 1746950, Note_off_c, 0, 82, 42
1, 1746951, Note_off_c, 0, 85, 51
1, 1746951, Control_c, 0, 67, 106
1, 1746990, Control_c, 0, 67, 102
1, 1746997, Note_off_c, 0, 88, 53
1, 1747027, Control_c, 0, 67, 98
1, 1747083, Control_c, 0, 67, 94
1, 1747103, Note_on_c, 0, 42, 40
1, 1747121, Control_c, 0, 67, 90
1, 1747176, Control_c, 0, 67, 85
1, 1747214, Control_c, 0, 67, 81
1, 1747231, Note_off_c, 0, 42, 52
1, 1747231, Note_on_c, 0, 44, 45
1, 1747251, Control_c, 0, 67, 76
1, 1747302, Note_on_c, 0, 85, 52
1, 1747318, Note_on_c, 0, 82, 41
1, 1747332, Note_on_c, 0, 76, 33
1, 1747347, Note_off_c, 0, 44, 42
1, 1747386, Note_on_c, 0, 42, 47
1, 1747388, Note_off_c, 0, 82, 55
1, 1747415, Note_off_c, 0, 85, 55
1, 1747419, Control_c, 0, 67, 72
1, 1747429, Note_off_c, 0, 76, 55
1, 1747442, Note_off_c, 0, 42, 58
1, 1747565, Note_on_c, 0, 42, 49
1, 1747663, Control_c, 0, 67, 68
1, 1747720, Control_c, 0, 64, 106
1, 1747738, Control_c, 0, 64, 88
1, 1747757, Control_c, 0, 64, 75
1, 1747775, Control_c, 0, 64, 72
1, 1747794, Control_c, 0, 64, 74
1, 1747797, Control_c, 0, 67, 64
1, 1747801, Note_on_c, 0, 82, 55
1, 1747814, Control_c, 0, 64, 79
1, 1747816, Note_on_c, 0, 76, 40
1, 1747825, Note_on_c, 0, 73, 38
1, 1747830, Control_c, 0, 64, 87
1, 1747850, Control_c, 0, 64, 101
1, 1747869, Control_c, 0, 64, 123
1, 1747887, Control_c, 0, 64, 127
1, 1747891, Note_off_c, 0, 42, 49
1, 1747899, Note_off_c, 0, 76, 58
1, 1747928, Note_off_c, 0, 82, 48
1, 1747943, Control_c, 0, 67, 60
1, 1747985, Note_off_c, 0, 73, 39
1, 1748064, Note_on_c, 0, 42, 52
1, 1748207, Note_off_c, 0, 42, 57
1, 1748230, Note_on_c, 0, 44, 35
1, 1748242, Note_on_c, 0, 76, 49
1, 1748258, Note_on_c, 0, 73, 47
1, 1748268, Note_on_c, 0, 70, 45
1, 1748347, Note_off_c, 0, 44, 51
1, 1748368, Note_off_c, 0, 73, 54
1, 1748369, Note_on_c, 0, 42, 43
1, 1748371, Note_off_c, 0, 70, 48
1, 1748380, Note_off_c, 0, 76, 53
1, 1748517, Note_off_c, 0, 42, 38
1, 1748522, Note_on_c, 0, 43, 57
1, 1748561, Control_c, 0, 64, 120
1, 1748562, Control_c, 0, 67, 56
1, 1748580, Control_c, 0, 64, 114
1, 1748598, Control_c, 0, 64, 106
1, 1748599, Control_c, 0, 67, 50
1, 1748617, Control_c, 0, 64, 92
1, 1748637, Control_c, 0, 64, 72
1, 1748639, Control_c, 0, 67, 43
1, 1748654, Control_c, 0, 64, 54
1, 1748655, Control_c, 0, 67, 37
1, 1748673, Control_c, 0, 64, 36
1, 1748674, Control_c, 0, 67, 32
1, 1748692, Control_c, 0, 64, 11
1, 1748693, Control_c, 0, 67, 26
1, 1748710, Control_c, 0, 67, 21
1, 1748730, Control_c, 0, 64, 22
1, 1748732, Control_c, 0, 67, 15
1, 1748749, Control_c, 0, 64, 35
1, 1748750, Control_c, 0, 67, 11
1, 1748766, Control_c, 0, 64, 48
1, 1748780, Note_on_c, 0, 75, 51
1, 1748784, Control_c, 0, 64, 64
1, 1748796, Note_on_c, 0, 73, 46
1, 1748798, Note_on_c, 0, 70, 43
1, 1748803, Control_c, 0, 64, 79
1, 1748823, Control_c, 0, 64, 95
1, 1748840, Control_c, 0, 64, 114
1, 1748856, Note_off_c, 0, 43, 61
1, 1748859, Control_c, 0, 64, 127
1, 1748959, Note_off_c, 0, 70, 35
1, 1748969, Note_off_c, 0, 73, 34
1, 1748985, Note_off_c, 0, 75, 33
1, 1749022, Note_on_c, 0, 43, 59
1, 1749165, Note_on_c, 0, 75, 50
1, 1749181, Note_on_c, 0, 73, 46
1, 1749184, Note_off_c, 0, 43, 60
1, 1749184, Note_on_c, 0, 44, 57
1, 1749191, Note_on_c, 0, 70, 40
1, 1749288, Note_off_c, 0, 44, 58
1, 1749331, Note_on_c, 0, 43, 66
1, 1749342, Note_off_c, 0, 73, 51
1, 1749347, Note_off_c, 0, 75, 50
1, 1749383, Note_off_c, 0, 70, 37
1, 1749474, Note_off_c, 0, 43, 48
1, 1749500, Note_on_c, 0, 44, 68
1, 1749534, Control_c, 0, 64, 122
1, 1749552, Control_c, 0, 64, 116
1, 1749570, Control_c, 0, 64, 111
1, 1749610, Control_c, 0, 64, 103
1, 1749627, Control_c, 0, 64, 98
1, 1749645, Control_c, 0, 64, 90
1, 1749664, Control_c, 0, 64, 76
1, 1749683, Control_c, 0, 64, 57
1, 1749700, Control_c, 0, 64, 25
1, 1749720, Control_c, 0, 64, 0
1, 1749721, Control_c, 0, 67, 15
1, 1749759, Note_on_c, 0, 75, 51
1, 1749766, Note_on_c, 0, 68, 44
1, 1749766, Note_on_c, 0, 73, 49
1, 1749775, Control_c, 0, 67, 22
1, 1749794, Control_c, 0, 67, 27
1, 1749815, Control_c, 0, 64, 31
1, 1749816, Control_c, 0, 67, 32
1, 1749832, Control_c, 0, 64, 53
1, 1749833, Control_c, 0, 67, 36
1, 1749851, Control_c, 0, 64, 70
1, 1749870, Control_c, 0, 64, 81
1, 1749889, Control_c, 0, 64, 89
1, 1749890, Control_c, 0, 67, 40
1, 1749905, Note_off_c, 0, 44, 59
1, 1749905, Control_c, 0, 64, 97
1, 1749919, Note_off_c, 0, 75, 54
1, 1749920, Note_off_c, 0, 73, 51
1, 1749925, Control_c, 0, 64, 104
1, 1749945, Control_c, 0, 64, 110
1, 1749949, Note_off_c, 0, 68, 37
1, 1749982, Control_c, 0, 64, 115
1, 1750023, Note_on_c, 0, 44, 60
1, 1750181, Note_on_c, 0, 75, 55
1, 1750185, Note_on_c, 0, 73, 52
1, 1750194, Note_off_c, 0, 44, 54
1, 1750201, Note_on_c, 0, 68, 38
1, 1750202, Note_on_c, 0, 46, 54
1, 1750295, Note_off_c, 0, 75, 51
1, 1750325, Note_off_c, 0, 73, 42
1, 1750336, Note_off_c, 0, 46, 58
1, 1750345, Note_on_c, 0, 44, 63
1, 1750394, Control_c, 0, 64, 110
1, 1750399, Note_off_c, 0, 68, 36
1, 1750449, Control_c, 0, 64, 106
1, 1750487, Control_c, 0, 64, 100
1, 1750505, Control_c, 0, 64, 96
1, 1750525, Control_c, 0, 64, 92
1, 1750535, Note_on_c, 0, 45, 61
1, 1750548, Note_off_c, 0, 44, 33
1, 1750562, Control_c, 0, 64, 86
1, 1750580, Control_c, 0, 64, 82
1, 1750581, Control_c, 0, 67, 44
1, 1750599, Control_c, 0, 64, 76
1, 1750617, Control_c, 0, 64, 69
1, 1750636, Control_c, 0, 64, 61
1, 1750637, Control_c, 0, 67, 50
1, 1750655, Control_c, 0, 64, 52
1, 1750657, Control_c, 0, 67, 54
1, 1750675, Control_c, 0, 64, 36
1, 1750676, Control_c, 0, 67, 60
1, 1750693, Control_c, 0, 64, 0
1, 1750694, Control_c, 0, 67, 67
1, 1750711, Control_c, 0, 67, 74
1, 1750730, Control_c, 0, 67, 81
1, 1750748, Control_c, 0, 67, 89
1, 1750768, Control_c, 0, 67, 97
1, 1750785, Control_c, 0, 67, 104
1, 1750802, Note_on_c, 0, 75, 48
1, 1750803, Note_on_c, 0, 73, 46
1, 1750804, Control_c, 0, 67, 111
1, 1750815, Note_on_c, 0, 67, 42
1, 1750822, Control_c, 0, 67, 115
1, 1750842, Control_c, 0, 64, 27
1, 1750860, Control_c, 0, 64, 45
1, 1750881, Control_c, 0, 64, 59
1, 1750898, Control_c, 0, 64, 70
1, 1750916, Note_off_c, 0, 45, 56
1, 1750916, Control_c, 0, 64, 77
1, 1750935, Control_c, 0, 64, 82
1, 1750936, Control_c, 0, 67, 119
1, 1750954, Note_off_c, 0, 73, 53
1, 1750954, Control_c, 0, 64, 87
1, 1750968, Note_off_c, 0, 75, 53
1, 1750973, Control_c, 0, 64, 93
1, 1750991, Control_c, 0, 64, 99
1, 1751010, Control_c, 0, 64, 104
1, 1751011, Note_off_c, 0, 67, 34
1, 1751011, Poly_aftertouch_c, 0, 67, 0
1, 1751031, Control_c, 0, 64, 110
1, 1751047, Control_c, 0, 64, 114
1, 1751075, Note_on_c, 0, 45, 58
1, 1751213, Note_off_c, 0, 45, 55
1, 1751250, Note_on_c, 0, 46, 49
1, 1751254, Note_on_c, 0, 73, 44
1, 1751265, Note_on_c, 0, 75, 45
1, 1751288, Note_on_c, 0, 67, 35
1, 1751384, Note_off_c, 0, 46, 32
1, 1751399, Note_on_c, 0, 45, 51
1, 1751401, Note_off_c, 0, 73, 56
1, 1751411, Note_off_c, 0, 67, 54
1, 1751411, Poly_aftertouch_c, 0, 67, 0
1, 1751412, Note_off_c, 0, 75, 47
1, 1751420, Control_c, 0, 64, 109
1, 1751478, Control_c, 0, 64, 104
1, 1751515, Control_c, 0, 64, 98
1, 1751553, Control_c, 0, 64, 91
1, 1751571, Control_c, 0, 64, 88
1, 1751590, Control_c, 0, 64, 83
1, 1751606, Note_off_c, 0, 45, 32
1, 1751608, Control_c, 0, 64, 77
1, 1751612, Note_on_c, 0, 44, 49
1, 1751627, Control_c, 0, 64, 71
1, 1751647, Control_c, 0, 64, 64
1, 1751664, Control_c, 0, 64, 56
1, 1751684, Control_c, 0, 64, 43
1, 1751704, Control_c, 0, 64, 8
1, 1751720, Control_c, 0, 64, 0
1, 1751833, Control_c, 0, 64, 24
1, 1751851, Control_c, 0, 64, 43
1, 1751872, Control_c, 0, 64, 58
1, 1751889, Control_c, 0, 64, 70
1, 1751904, Note_on_c, 0, 75, 46
1, 1751907, Control_c, 0, 64, 77
1, 1751919, Note_on_c, 0, 72, 38
1, 1751923, Note_on_c, 0, 66, 34
1, 1751925, Control_c, 0, 64, 81
1, 1751943, Note_off_c, 0, 44, 57
1, 1751944, Control_c, 0, 64, 87
1, 1751964, Control_c, 0, 64, 93
1, 1751982, Control_c, 0, 64, 100
1, 1752001, Control_c, 0, 64, 108
1, 1752020, Control_c, 0, 64, 115
1, 1752039, Control_c, 0, 64, 121
1, 1752057, Control_c, 0, 64, 127
1, 1752132, Note_off_c, 0, 75, 34
1, 1752158, Note_off_c, 0, 66, 36
1, 1752158, Poly_aftertouch_c, 0, 66, 0
1, 1752165, Note_off_c, 0, 72, 36
1, 1752223, Note_on_c, 0, 44, 42
1, 1752402, Note_on_c, 0, 46, 41
1, 1752406, Note_off_c, 0, 44, 37
1, 1752431, Control_c, 0, 67, 115
1, 1752451, Note_on_c, 0, 75, 53
1, 1752466, Note_on_c, 0, 72, 34
1, 1752483, Note_on_c, 0, 66, 31
1, 1752550, Note_off_c, 0, 72, 54
1, 1752586, Note_on_c, 0, 44, 39
1, 1752602, Note_off_c, 0, 46, 47
1, 1752636, Note_off_c, 0, 75, 57
1, 1752645, Note_off_c, 0, 66, 42
1, 1752645, Poly_aftertouch_c, 0, 66, 0
1, 1752671, Note_off_c, 0, 44, 60
1, 1752786, Control_c, 0, 64, 122
1, 1752825, Control_c, 0, 64, 116
1, 1752826, Control_c, 0, 67, 111
1, 1752860, Control_c, 0, 64, 111
1, 1752918, Control_c, 0, 64, 106
1, 1752942, Note_on_c, 0, 77, 60
1, 1752956, Control_c, 0, 64, 102
1, 1752981, Note_on_c, 0, 73, 43
1, 1752992, Control_c, 0, 64, 93
1, 1753006, Note_on_c, 0, 65, 28
1, 1753009, Control_c, 0, 64, 83
1, 1753031, Control_c, 0, 64, 69
1, 1753049, Control_c, 0, 64, 52
1, 1753067, Control_c, 0, 64, 15
1, 1753078, Note_on_c, 0, 37, 36
1, 1753084, Control_c, 0, 64, 0
1, 1753123, Control_c, 0, 64, 26
1, 1753142, Control_c, 0, 64, 48
1, 1753160, Control_c, 0, 64, 70
1, 1753180, Control_c, 0, 64, 93
1, 1753189, Note_off_c, 0, 37, 58
1, 1753198, Control_c, 0, 64, 124
1, 1753340, Note_off_c, 0, 73, 41
1, 1753407, Note_off_c, 0, 65, 49
1, 1753582, Note_on_c, 0, 63, 34
1, 1753896, Note_on_c, 0, 61, 40
1, 1754044, Note_off_c, 0, 63, 34
1, 1754120, Note_on_c, 0, 75, 48
1, 1754132, Note_off_c, 0, 61, 30
1, 1754145, Note_on_c, 0, 56, 36
1, 1754281, Control_c, 0, 67, 115
1, 1754304, Note_off_c, 0, 77, 36
1, 1754357, Control_c, 0, 67, 120
1, 1754395, Control_c, 0, 67, 126
1, 1754405, Note_on_c, 0, 73, 44
1, 1754411, Note_on_c, 0, 65, 40
1, 1754457, Note_off_c, 0, 75, 38
1, 1754595, Poly_aftertouch_c, 0, 56, 24
1, 1754647, Note_on_c, 0, 63, 40
1, 1754665, Note_off_c, 0, 56, 21
1, 1754665, Note_off_c, 0, 73, 44
1, 1754665, Poly_aftertouch_c, 0, 56, 0
1, 1754672, Note_on_c, 0, 68, 20
1, 1754717, Note_off_c, 0, 65, 36
1, 1754739, Note_off_c, 0, 68, 54
1, 1754913, Note_on_c, 0, 61, 42
1, 1754933, Note_on_c, 0, 53, 45
1, 1754975, Note_off_c, 0, 63, 32
1, 1755150, Note_on_c, 0, 51, 60
1, 1755151, Note_off_c, 0, 61, 51
1, 1755174, Note_on_c, 0, 56, 38
1, 1755236, Note_off_c, 0, 53, 49
1, 1755400, Note_on_c, 0, 49, 58
1, 1755404, Note_off_c, 0, 56, 21
1, 1755404, Poly_aftertouch_c, 0, 56, 0
1, 1755414, Note_on_c, 0, 65, 41
1, 1755422, Control_c, 0, 64, 106
1, 1755442, Control_c, 0, 64, 84
1, 1755452, Note_off_c, 0, 51, 53
1, 1755460, Control_c, 0, 64, 73
1, 1755479, Control_c, 0, 64, 77
1, 1755498, Control_c, 0, 64, 85
1, 1755517, Control_c, 0, 64, 96
1, 1755535, Control_c, 0, 64, 111
1, 1755554, Control_c, 0, 64, 127
1, 1755637, Note_on_c, 0, 63, 42
1, 1755644, Note_off_c, 0, 49, 60
1, 1755644, Poly_aftertouch_c, 0, 49, 0
1, 1755647, Note_on_c, 0, 44, 38
1, 1755694, Note_off_c, 0, 44, 47
1, 1755717, Note_off_c, 0, 65, 33
1, 1755941, Note_on_c, 0, 77, 71
1, 1755978, Note_on_c, 0, 61, 36
1, 1756039, Note_off_c, 0, 63, 37
1, 1756151, Control_c, 0, 67, 122
1, 1756177, Note_on_c, 0, 75, 71
1, 1756190, Control_c, 0, 67, 116
1, 1756209, Control_c, 0, 67, 112
1, 1756215, Note_on_c, 0, 56, 36
1, 1756220, Note_off_c, 0, 61, 44
1, 1756228, Control_c, 0, 67, 106
1, 1756246, Control_c, 0, 67, 100
1, 1756264, Control_c, 0, 67, 94
1, 1756283, Control_c, 0, 67, 90
1, 1756301, Control_c, 0, 67, 86
1, 1756321, Control_c, 0, 67, 82
1, 1756357, Control_c, 0, 67, 76
1, 1756442, Note_off_c, 0, 77, 51
1, 1756450, Control_c, 0, 64, 113
1, 1756452, Note_on_c, 0, 73, 62
1, 1756470, Control_c, 0, 64, 96
1, 1756481, Note_on_c, 0, 65, 40
1, 1756508, Control_c, 0, 64, 106
1, 1756526, Control_c, 0, 64, 117
1, 1756545, Control_c, 0, 64, 127
1, 1756594, Note_off_c, 0, 75, 51
1, 1756676, Control_c, 0, 67, 80
1, 1756682, Note_on_c, 0, 68, 55
1, 1756686, Note_off_c, 0, 73, 62
1, 1756703, Note_on_c, 0, 63, 43
1, 1756721, Note_off_c, 0, 68, 66
1, 1756736, Note_off_c, 0, 65, 40
1, 1756740, Poly_aftertouch_c, 0, 56, 24
1, 1756769, Control_c, 0, 67, 86
1, 1756807, Control_c, 0, 67, 92
1, 1756825, Control_c, 0, 67, 96
1, 1756841, Note_off_c, 0, 56, 31
1, 1756841, Poly_aftertouch_c, 0, 56, 0
1, 1756842, Poly_aftertouch_c, 0, 56, 0
1, 1756864, Control_c, 0, 67, 102
1, 1756926, Note_on_c, 0, 49, 68
1, 1756934, Note_on_c, 0, 61, 54
1, 1756960, Note_off_c, 0, 63, 49
1, 1757084, Note_off_c, 0, 49, 48
1, 1757084, Poly_aftertouch_c, 0, 49, 0
1, 1757148, Note_on_c, 0, 56, 57
1, 1757163, Note_on_c, 0, 48, 72
1, 1757188, Note_off_c, 0, 61, 59
1, 1757222, Note_off_c, 0, 56, 55
1, 1757230, Note_off_c, 0, 48, 60
1, 1757230, Poly_aftertouch_c, 0, 48, 0
1, 1757435, Note_on_c, 0, 47, 60
1, 1757445, Note_on_c, 0, 68, 54
1, 1757481, Control_c, 0, 64, 108
1, 1757499, Control_c, 0, 64, 79
1, 1757517, Control_c, 0, 64, 52
1, 1757536, Control_c, 0, 64, 38
1, 1757554, Control_c, 0, 64, 43
1, 1757573, Control_c, 0, 64, 55
1, 1757594, Control_c, 0, 64, 67
1, 1757611, Control_c, 0, 64, 78
1, 1757630, Control_c, 0, 64, 91
1, 1757641, Note_off_c, 0, 47, 62
1, 1757648, Control_c, 0, 64, 107
1, 1757667, Control_c, 0, 64, 127
1, 1757681, Note_on_c, 0, 37, 51
1, 1757694, Note_on_c, 0, 66, 47
1, 1757721, Note_off_c, 0, 37, 53
1, 1757768, Note_off_c, 0, 68, 35
1, 1757964, Note_on_c, 0, 80, 70
1, 1757974, Note_on_c, 0, 65, 48
1, 1758015, Note_off_c, 0, 66, 30
1, 1758015, Poly_aftertouch_c, 0, 66, 0
1, 1758060, Control_c, 0, 67, 98
1, 1758116, Control_c, 0, 67, 91
1, 1758135, Control_c, 0, 67, 85
1, 1758153, Control_c, 0, 67, 76
1, 1758172, Control_c, 0, 67, 65
1, 1758190, Control_c, 0, 67, 52
1, 1758199, Note_on_c, 0, 78, 73
1, 1758208, Control_c, 0, 67, 38
1, 1758209, Note_off_c, 0, 65, 38
1, 1758228, Control_c, 0, 67, 23
1, 1758236, Note_on_c, 0, 61, 41
1, 1758247, Control_c, 0, 67, 8
1, 1758265, Control_c, 0, 67, 0
1, 1758452, Control_c, 0, 64, 120
1, 1758468, Note_on_c, 0, 77, 65
1, 1758471, Control_c, 0, 64, 105
1, 1758496, Note_on_c, 0, 68, 35
1, 1758508, Control_c, 0, 64, 115
1, 1758527, Control_c, 0, 64, 127
1, 1758570, Note_off_c, 0, 80, 37
1, 1758690, Note_off_c, 0, 78, 61
1, 1758692, Note_on_c, 0, 73, 64
1, 1758706, Note_off_c, 0, 77, 60
1, 1758712, Note_on_c, 0, 66, 44
1, 1758713, Control_c, 0, 67, 9
1, 1758726, Note_off_c, 0, 73, 68
1, 1758753, Control_c, 0, 67, 16
1, 1758769, Control_c, 0, 67, 26
1, 1758777, Note_off_c, 0, 68, 40
1, 1758789, Control_c, 0, 67, 40
1, 1758808, Control_c, 0, 67, 52
1, 1758826, Control_c, 0, 67, 61
1, 1758846, Control_c, 0, 67, 69
1, 1758863, Control_c, 0, 67, 78
1, 1758867, Poly_aftertouch_c, 0, 61, 24
1, 1758882, Control_c, 0, 67, 86
1, 1758901, Control_c, 0, 67, 92
1, 1758920, Control_c, 0, 67, 96
1, 1758921, Note_off_c, 0, 61, 37
1, 1758921, Poly_aftertouch_c, 0, 61, 0
1, 1758923, Note_off_c, 0, 66, 38
1, 1758923, Poly_aftertouch_c, 0, 66, 0
1, 1758929, Note_on_c, 0, 65, 45
1, 1758943, Note_on_c, 0, 49, 66
1, 1758958, Control_c, 0, 67, 100
1, 1759090, Note_off_c, 0, 49, 56
1, 1759090, Poly_aftertouch_c, 0, 49, 0
1, 1759166, Note_on_c, 0, 61, 46
1, 1759167, Note_on_c, 0, 48, 62
1, 1759188, Note_off_c, 0, 65, 35
1, 1759221, Note_off_c, 0, 48, 62
1, 1759221, Poly_aftertouch_c, 0, 48, 0
1, 1759242, Note_off_c, 0, 61, 48
1, 1759242, Poly_aftertouch_c, 0, 61, 0
1, 1759275, Control_c, 0, 67, 106
1, 1759312, Control_c, 0, 67, 112
1, 1759431, Note_on_c, 0, 47, 56
1, 1759456, Note_on_c, 0, 68, 41
1, 1759460, Control_c, 0, 64, 99
1, 1759481, Control_c, 0, 64, 71
1, 1759500, Control_c, 0, 64, 52
1, 1759538, Control_c, 0, 64, 62
1, 1759556, Control_c, 0, 64, 74
1, 1759575, Control_c, 0, 64, 86
1, 1759593, Control_c, 0, 64, 102
1, 1759612, Control_c, 0, 64, 121
1, 1759630, Note_off_c, 0, 47, 61
1, 1759631, Control_c, 0, 64, 127
1, 1759662, Note_on_c, 0, 37, 57
1, 1759670, Note_on_c, 0, 66, 43
1, 1759697, Note_off_c, 0, 37, 57
1, 1759717, Note_off_c, 0, 68, 34
1, 1759910, Note_off_c, 0, 66, 37
1, 1759910, Poly_aftertouch_c, 0, 66, 0
1, 1759951, Note_on_c, 0, 65, 42
1, 1759954, Note_on_c, 0, 80, 62
1, 1760157, Note_off_c, 0, 65, 38
1, 1760190, Note_on_c, 0, 78, 67
1, 1760197, Note_on_c, 0, 61, 39
1, 1760454, Note_off_c, 0, 80, 25
1, 1760480, Note_on_c, 0, 77, 56
1, 1760482, Poly_aftertouch_c, 0, 61, 22
1, 1760491, Control_c, 0, 64, 117
1, 1760496, Note_on_c, 0, 68, 35
1, 1760509, Control_c, 0, 64, 99
1, 1760527, Control_c, 0, 64, 84
1, 1760547, Control_c, 0, 64, 78
1, 1760566, Control_c, 0, 64, 82
1, 1760586, Control_c, 0, 64, 88
1, 1760603, Control_c, 0, 64, 96
1, 1760611, Note_off_c, 0, 61, 19
1, 1760611, Poly_aftertouch_c, 0, 61, 0
1, 1760622, Control_c, 0, 64, 106
1, 1760626, Note_off_c, 0, 78, 35
1, 1760640, Control_c, 0, 64, 120
1, 1760659, Control_c, 0, 64, 127
1, 1760661, Control_c, 0, 67, 116
1, 1760714, Control_c, 0, 67, 122
1, 1760729, Note_on_c, 0, 73, 51
1, 1760730, Note_off_c, 0, 77, 58
1, 1760738, Note_on_c, 0, 66, 37
1, 1760771, Control_c, 0, 67, 127
1, 1760774, Note_off_c, 0, 73, 65
1, 1760810, Note_off_c, 0, 68, 43
1, 1760951, Note_off_c, 0, 66, 38
1, 1760951, Poly_aftertouch_c, 0, 66, 0
1, 1761006, Note_on_c, 0, 65, 44
1, 1761020, Note_on_c, 0, 56, 56
1, 1761261, Note_on_c, 0, 54, 53
1, 1761271, Note_on_c, 0, 61, 57
1, 1761274, Note_off_c, 0, 65, 43
1, 1761283, Note_off_c, 0, 56, 51
1, 1761317, Note_off_c, 0, 61, 61
1, 1761317, Poly_aftertouch_c, 0, 61, 0
1, 1761587, Note_on_c, 0, 53, 49
1, 1761612, Control_c, 0, 64, 123
1, 1761650, Control_c, 0, 64, 118
1, 1761668, Note_off_c, 0, 54, 31
1, 1761678, Note_on_c, 0, 44, 67
1, 1761685, Control_c, 0, 64, 112
1, 1761724, Control_c, 0, 64, 107
1, 1761762, Control_c, 0, 64, 98
1, 1761781, Control_c, 0, 64, 91
1, 1761799, Control_c, 0, 64, 85
1, 1761818, Control_c, 0, 64, 80
1, 1761837, Control_c, 0, 64, 75
1, 1761855, Control_c, 0, 64, 72
1, 1761874, Control_c, 0, 64, 68
1, 1761885, Note_off_c, 0, 53, 55
1, 1761891, Control_c, 0, 64, 65
1, 1761896, Note_on_c, 0, 49, 49
1, 1761912, Control_c, 0, 64, 62
1, 1761929, Control_c, 0, 64, 60
1, 1761949, Control_c, 0, 64, 57
1, 1761968, Control_c, 0, 64, 53
1, 1761985, Note_off_c, 0, 49, 50
1, 1761985, Poly_aftertouch_c, 0, 49, 0
1, 1761985, Control_c, 0, 64, 48
1, 1762004, Control_c, 0, 64, 40
1, 1762025, Control_c, 0, 64, 30
1, 1762043, Control_c, 0, 64, 19
1, 1762080, Control_c, 0, 64, 0
1, 1762234, Note_on_c, 0, 42, 55
1, 1762383, Note_off_c, 0, 44, 51
1, 1762790, Note_on_c, 0, 41, 50
1, 1762869, Note_off_c, 0, 42, 59
1, 1763323, Note_on_c, 0, 37, 46
1, 1763389, Control_c, 0, 67, 120
1, 1763407, Control_c, 0, 67, 116
1, 1763419, Note_off_c, 0, 41, 52
1, 1763425, Control_c, 0, 67, 111
1, 1763463, Control_c, 0, 67, 104
1, 1763482, Control_c, 0, 67, 99
1, 1763502, Control_c, 0, 67, 92
1, 1763520, Control_c, 0, 67, 84
1, 1763537, Control_c, 0, 67, 76
1, 1763557, Control_c, 0, 67, 70
1, 1763575, Control_c, 0, 67, 65
1, 1763594, Control_c, 0, 67, 59
1, 1763612, Control_c, 0, 67, 53
1, 1763631, Control_c, 0, 67, 47
1, 1763635, Note_on_c, 0, 59, 52
1, 1763652, Control_c, 0, 67, 39
1, 1763669, Control_c, 0, 67, 28
1, 1763678, Note_off_c, 0, 59, 63
1, 1763687, Control_c, 0, 67, 13
1, 1763708, Control_c, 0, 67, 0
1, 1763777, Note_on_c, 0, 53, 60
1, 1763782, Note_on_c, 0, 60, 62
1, 1763794, Note_on_c, 0, 44, 51
1, 1763808, Note_on_c, 0, 32, 47
1, 1763824, Note_off_c, 0, 53, 59
1, 1763827, Note_off_c, 0, 60, 63
1, 1763872, Note_off_c, 0, 37, 52
1, 1764115, Note_on_c, 0, 60, 64
1, 1764116, Note_on_c, 0, 53, 61
1, 1764145, Note_off_c, 0, 44, 61
1, 1764150, Note_off_c, 0, 60, 66
1, 1764156, Note_off_c, 0, 53, 61
1, 1764259, Note_on_c, 0, 53, 67
1, 1764263, Note_on_c, 0, 61, 70
1, 1764267, Note_on_c, 0, 58, 70
1, 1764279, Note_on_c, 0, 43, 69
1, 1764282, Note_off_c, 0, 32, 56
1, 1764285, Note_on_c, 0, 31, 66
1, 1764298, Note_off_c, 0, 53, 64
1, 1764305, Note_off_c, 0, 58, 66
1, 1764308, Note_off_c, 0, 61, 61
1, 1764308, Poly_aftertouch_c, 0, 61, 0
1, 1764586, Note_on_c, 0, 58, 66
1, 1764589, Note_on_c, 0, 53, 61
1, 1764592, Note_on_c, 0, 61, 58
1, 1764604, Note_off_c, 0, 43, 54
1, 1764628, Note_off_c, 0, 58, 62
1, 1764630, Note_off_c, 0, 53, 64
1, 1764633, Note_off_c, 0, 61, 66
1, 1764633, Poly_aftertouch_c, 0, 61, 0
1, 1764738, Note_on_c, 0, 53, 68
1, 1764738, Control_c, 0, 67, 8
1, 1764743, Note_on_c, 0, 56, 75
1, 1764743, Note_on_c, 0, 41, 75
1, 1764753, Note_on_c, 0, 29, 67
1, 1764757, Control_c, 0, 67, 12
1, 1764771, Note_off_c, 0, 56, 68
1, 1764775, Note_off_c, 0, 31, 57
1, 1764776, Note_off_c, 0, 53, 66
1, 1764982, Note_off_c, 0, 41, 54
1, 1764993, Note_on_c, 0, 55, 60
1, 1765012, Note_on_c, 0, 58, 59
1, 1765020, Note_off_c, 0, 55, 61
1, 1765056, Note_on_c, 0, 56, 78
1, 1765063, Note_on_c, 0, 60, 67
1, 1765066, Note_off_c, 0, 58, 65
1, 1765087, Note_off_c, 0, 56, 71
1, 1765099, Note_off_c, 0, 60, 67
1, 1765109, Control_c, 0, 67, 8
1, 1765218, Note_off_c, 0, 29, 55
1, 1765240, Control_c, 0, 67, 0
1, 1765249, Note_on_c, 0, 36, 66
1, 1765256, Note_on_c, 0, 24, 67
1, 1765408, Control_c, 0, 64, 44
1, 1765426, Control_c, 0, 64, 57
1, 1765446, Control_c, 0, 64, 68
1, 1765464, Control_c, 0, 64, 78
1, 1765483, Control_c, 0, 64, 87
1, 1765502, Control_c, 0, 64, 97
1, 1765512, Note_off_c, 0, 24, 52
1, 1765520, Control_c, 0, 64, 110
1, 1765539, Control_c, 0, 64, 123
1, 1765559, Control_c, 0, 64, 127
1, 1765570, Note_off_c, 0, 36, 61
1, 1765605, Note_on_c, 0, 60, 66
1, 1765856, Note_on_c, 0, 54, 64
1, 1765870, Note_on_c, 0, 44, 55
1, 1765875, Control_c, 0, 64, 114
1, 1765884, Note_on_c, 0, 32, 49
1, 1765894, Control_c, 0, 64, 100
1, 1765914, Control_c, 0, 64, 82
1, 1765933, Control_c, 0, 64, 60
1, 1765950, Control_c, 0, 64, 29
1, 1765970, Control_c, 0, 64, 0
1, 1766081, Control_c, 0, 64, 10
1, 1766099, Control_c, 0, 64, 31
1, 1766119, Control_c, 0, 64, 48
1, 1766138, Control_c, 0, 64, 62
1, 1766156, Control_c, 0, 64, 72
1, 1766175, Control_c, 0, 64, 79
1, 1766194, Control_c, 0, 64, 86
1, 1766212, Control_c, 0, 64, 92
1, 1766232, Control_c, 0, 64, 100
1, 1766250, Control_c, 0, 64, 106
1, 1766263, Note_on_c, 0, 62, 64
1, 1766269, Control_c, 0, 64, 112
1, 1766286, Control_c, 0, 64, 116
1, 1766320, Note_off_c, 0, 60, 53
1, 1766373, Note_off_c, 0, 54, 47
1, 1766374, Note_off_c, 0, 44, 37
1, 1766395, Note_off_c, 0, 32, 33
1, 1766511, Control_c, 0, 64, 110
1, 1766543, Note_on_c, 0, 55, 56
1, 1766548, Control_c, 0, 64, 104
1, 1766551, Note_on_c, 0, 63, 58
1, 1766560, Note_on_c, 0, 43, 44
1, 1766572, Note_on_c, 0, 31, 41
1, 1766586, Control_c, 0, 64, 95
1, 1766605, Control_c, 0, 64, 88
1, 1766620, Note_off_c, 0, 62, 48
1, 1766622, Control_c, 0, 64, 77
1, 1766642, Control_c, 0, 64, 65
1, 1766662, Control_c, 0, 64, 48
1, 1766680, Control_c, 0, 64, 0
1, 1766773, Control_c, 0, 64, 24
1, 1766791, Control_c, 0, 64, 42
1, 1766811, Control_c, 0, 64, 58
1, 1766828, Control_c, 0, 64, 71
1, 1766848, Control_c, 0, 64, 79
1, 1766867, Control_c, 0, 64, 86
1, 1766885, Control_c, 0, 64, 94
1, 1766904, Control_c, 0, 64, 102
1, 1766923, Control_c, 0, 64, 109
1, 1766942, Control_c, 0, 64, 114
1, 1766979, Control_c, 0, 64, 121
1, 1766997, Note_off_c, 0, 43, 32
1, 1766997, Control_c, 0, 64, 125
1, 1767099, Note_on_c, 0, 62, 48
1, 1767162, Note_off_c, 0, 55, 48
1, 1767232, Note_off_c, 0, 31, 32
1, 1767268, Note_off_c, 0, 63, 30
1, 1767366, Note_off_c, 0, 62, 36
1, 1767529, Note_on_c, 0, 56, 35
1, 1767530, Note_on_c, 0, 60, 39
1, 1767564, Note_on_c, 0, 42, 28
1, 1767577, Note_on_c, 0, 30, 34
1, 1767633, Control_c, 0, 64, 117
1, 1767652, Control_c, 0, 64, 110
1, 1767671, Control_c, 0, 64, 102
1, 1767690, Control_c, 0, 64, 95
1, 1767707, Control_c, 0, 64, 88
1, 1767727, Control_c, 0, 64, 77
1, 1767745, Control_c, 0, 64, 63
1, 1767764, Control_c, 0, 64, 47
1, 1767783, Control_c, 0, 64, 13
1, 1767803, Control_c, 0, 64, 0
1, 1767877, Control_c, 0, 64, 16
1, 1767894, Control_c, 0, 64, 33
1, 1767914, Control_c, 0, 64, 49
1, 1767932, Control_c, 0, 64, 63
1, 1767952, Control_c, 0, 64, 74
1, 1767953, Control_c, 0, 67, 8
1, 1767970, Control_c, 0, 64, 81
1, 1767989, Control_c, 0, 64, 88
1, 1768007, Control_c, 0, 64, 95
1, 1768026, Control_c, 0, 64, 104
1, 1768044, Control_c, 0, 64, 113
1, 1768063, Control_c, 0, 64, 121
1, 1768082, Control_c, 0, 64, 127
1, 1768151, Note_off_c, 0, 42, 38
1, 1768157, Control_c, 0, 67, 12
1, 1768213, Control_c, 0, 67, 16
1, 1768249, Control_c, 0, 67, 22
1, 1768269, Control_c, 0, 67, 26
1, 1768289, Control_c, 0, 67, 32
1, 1768306, Control_c, 0, 67, 38
1, 1768325, Control_c, 0, 67, 43
1, 1768343, Control_c, 0, 67, 47
1, 1768475, Control_c, 0, 67, 51
1, 1768512, Control_c, 0, 67, 56
1, 1768517, Note_off_c, 0, 30, 28
1, 1768550, Control_c, 0, 67, 62
1, 1768607, Control_c, 0, 67, 68
1, 1768625, Control_c, 0, 67, 73
1, 1768642, Control_c, 0, 67, 78
1, 1768657, Note_on_c, 0, 62, 33
1, 1768660, Control_c, 0, 67, 83
1, 1768680, Control_c, 0, 67, 88
1, 1768698, Control_c, 0, 67, 94
1, 1768718, Control_c, 0, 67, 101
1, 1768736, Control_c, 0, 67, 108
1, 1768756, Control_c, 0, 67, 113
1, 1768781, Note_off_c, 0, 60, 39
1, 1768793, Control_c, 0, 67, 118
1, 1768974, Note_off_c, 0, 56, 34
1, 1769025, Note_off_c, 0, 62, 37
1, 1769581, Note_on_c, 0, 64, 30
1, 1769611, Note_on_c, 0, 55, 19
1, 1769624, Note_on_c, 0, 60, 24
1, 1769639, Note_on_c, 0, 24, 24
1, 1769657, Note_on_c, 0, 36, 9
1, 1769802, Control_c, 0, 64, 120
1, 1769822, Control_c, 0, 64, 115
1, 1769839, Control_c, 0, 64, 110
1, 1769858, Control_c, 0, 64, 106
1, 1769897, Control_c, 0, 64, 100
1, 1769934, Control_c, 0, 64, 92
1, 1769952, Control_c, 0, 64, 86
1, 1769970, Control_c, 0, 64, 82
1, 1769989, Control_c, 0, 64, 79
1, 1770008, Control_c, 0, 64, 77
1, 1770027, Control_c, 0, 64, 75
1, 1770045, Control_c, 0, 64, 72
1, 1770063, Control_c, 0, 64, 70
1, 1770101, Control_c, 0, 64, 68
1, 1770120, Control_c, 0, 64, 67
1, 1770139, Control_c, 0, 64, 64
1, 1770158, Control_c, 0, 64, 60
1, 1770176, Control_c, 0, 64, 58
1, 1770251, Control_c, 0, 64, 56
1, 1770606, Control_c, 0, 64, 58
1, 1770625, Control_c, 0, 64, 60
1, 1770662, Control_c, 0, 64, 62
1, 1770681, Control_c, 0, 64, 63
1, 1770700, Control_c, 0, 64, 65
1, 1770718, Control_c, 0, 64, 66
1, 1770737, Control_c, 0, 64, 67
1, 1770793, Control_c, 0, 64, 70
1, 1770831, Control_c, 0, 64, 72
1, 1770868, Control_c, 0, 64, 75
1, 1770887, Control_c, 0, 64, 77
1, 1770907, Control_c, 0, 64, 79
1, 1770924, Control_c, 0, 64, 82
1, 1770942, Control_c, 0, 64, 84
1, 1770962, Control_c, 0, 64, 88
1, 1770999, Control_c, 0, 64, 94
1, 1771054, Control_c, 0, 64, 99
1, 1771089, Poly_aftertouch_c, 0, 36, 24
1, 1771093, Control_c, 0, 64, 107
1, 1771111, Control_c, 0, 64, 113
1, 1771129, Control_c, 0, 64, 119
1, 1771132, Note_off_c, 0, 24, 36
1, 1771149, Control_c, 0, 64, 123
1, 1771185, Control_c, 0, 64, 127
1, 1771219, Note_off_c, 0, 36, 24
1, 1771219, Poly_aftertouch_c, 0, 36, 0
1, 1771429, Poly_aftertouch_c, 0, 60, 24
1, 1771465, Poly_aftertouch_c, 0, 55, 24
1, 1771611, Note_off_c, 0, 60, 21
1, 1771611, Poly_aftertouch_c, 0, 60, 0
1, 1771614, Note_off_c, 0, 55, 19
1, 1771614, Poly_aftertouch_c, 0, 55, 0
1, 1772053, Note_off_c, 0, 64, 31
1, 1772756, Control_c, 0, 64, 121
1, 1772773, Note_on_c, 0, 67, 37
1, 1772794, Control_c, 0, 64, 114
1, 1772816, Note_on_c, 0, 58, 24
1, 1772832, Control_c, 0, 64, 107
1, 1772869, Control_c, 0, 64, 100
1, 1772887, Control_c, 0, 64, 94
1, 1772907, Control_c, 0, 64, 87
1, 1772925, Control_c, 0, 64, 78
1, 1772943, Control_c, 0, 64, 68
1, 1772963, Control_c, 0, 64, 58
1, 1772981, Control_c, 0, 64, 44
1, 1772982, Control_c, 0, 67, 114
1, 1772999, Control_c, 0, 64, 0
1, 1773056, Control_c, 0, 67, 108
1, 1773093, Control_c, 0, 67, 104
1, 1773113, Control_c, 0, 64, 26
1, 1773130, Control_c, 0, 64, 47
1, 1773131, Control_c, 0, 67, 100
1, 1773150, Control_c, 0, 64, 66
1, 1773168, Control_c, 0, 64, 77
1, 1773169, Control_c, 0, 67, 92
1, 1773186, Note_on_c, 0, 65, 41
1, 1773186, Control_c, 0, 64, 85
1, 1773188, Control_c, 0, 67, 88
1, 1773206, Control_c, 0, 64, 91
1, 1773207, Control_c, 0, 67, 84
1, 1773224, Control_c, 0, 64, 97
1, 1773243, Control_c, 0, 64, 104
1, 1773245, Control_c, 0, 67, 77
1, 1773261, Control_c, 0, 64, 112
1, 1773280, Control_c, 0, 64, 119
1, 1773281, Control_c, 0, 67, 70
1, 1773299, Control_c, 0, 64, 125
1, 1773300, Control_c, 0, 67, 66
1, 1773335, Control_c, 0, 67, 58
1, 1773350, Note_off_c, 0, 67, 30
1, 1773350, Poly_aftertouch_c, 0, 67, 0
1, 1773353, Control_c, 0, 67, 54
1, 1773374, Control_c, 0, 67, 50
1, 1773392, Control_c, 0, 67, 46
1, 1773411, Control_c, 0, 67, 41
1, 1773429, Control_c, 0, 67, 37
1, 1773449, Control_c, 0, 67, 32
1, 1773472, Note_on_c, 0, 79, 62
1, 1773486, Control_c, 0, 67, 25
1, 1773505, Control_c, 0, 67, 20
1, 1773522, Control_c, 0, 67, 15
1, 1773527, Note_on_c, 0, 64, 38
1, 1773542, Control_c, 0, 67, 10
1, 1773672, Control_c, 0, 67, 0
1, 1773723, Note_on_c, 0, 77, 67
1, 1773729, Note_off_c, 0, 65, 36
1, 1773742, Note_off_c, 0, 58, 40
1, 1773746, Note_on_c, 0, 60, 37
1, 1773803, Note_off_c, 0, 60, 54
1, 1773803, Poly_aftertouch_c, 0, 60, 0
1, 1773804, Note_off_c, 0, 64, 33
1, 1773997, Note_on_c, 0, 76, 55
1, 1773998, Note_on_c, 0, 67, 41
1, 1774007, Note_on_c, 0, 58, 44
1, 1774008, Control_c, 0, 64, 115
1, 1774028, Control_c, 0, 64, 92
1, 1774047, Control_c, 0, 64, 68
1, 1774066, Control_c, 0, 64, 58
1, 1774084, Control_c, 0, 64, 63
1, 1774103, Control_c, 0, 64, 72
1, 1774122, Control_c, 0, 64, 81
1, 1774134, Note_off_c, 0, 77, 47
1, 1774135, Note_off_c, 0, 79, 30
1, 1774140, Control_c, 0, 64, 96
1, 1774158, Control_c, 0, 64, 124
1, 1774231, Note_on_c, 0, 72, 51
1, 1774239, Note_on_c, 0, 65, 45
1, 1774240, Note_off_c, 0, 76, 60
1, 1774267, Note_off_c, 0, 72, 61
1, 1774290, Control_c, 0, 67, 9
1, 1774303, Note_off_c, 0, 67, 34
1, 1774303, Poly_aftertouch_c, 0, 67, 0
1, 1774328, Control_c, 0, 67, 13
1, 1774365, Control_c, 0, 67, 19
1, 1774383, Control_c, 0, 67, 25
1, 1774402, Control_c, 0, 67, 33
1, 1774421, Control_c, 0, 67, 42
1, 1774439, Control_c, 0, 67, 49
1, 1774459, Control_c, 0, 67, 54
1, 1774483, Note_on_c, 0, 64, 49
1, 1774496, Note_on_c, 0, 55, 59
1, 1774496, Control_c, 0, 67, 58
1, 1774542, Note_off_c, 0, 65, 32
1, 1774551, Control_c, 0, 67, 62
1, 1774629, Note_off_c, 0, 58, 47
1, 1774709, Note_on_c, 0, 53, 61
1, 1774710, Note_on_c, 0, 60, 53
1, 1774758, Note_off_c, 0, 55, 57
1, 1774758, Poly_aftertouch_c, 0, 55, 0
1, 1774780, Note_off_c, 0, 60, 59
1, 1774780, Poly_aftertouch_c, 0, 60, 0
1, 1774797, Note_off_c, 0, 64, 38
1, 1774797, Poly_aftertouch_c, 0, 64, 0
1, 1774944, Control_c, 0, 64, 118
1, 1774963, Control_c, 0, 64, 107
1, 1774968, Note_on_c, 0, 52, 55
1, 1774979, Note_on_c, 0, 70, 51
1, 1774982, Control_c, 0, 64, 89
1, 1774997, Note_on_c, 0, 61, 43
1, 1775002, Control_c, 0, 64, 60
1, 1775018, Control_c, 0, 64, 0
1, 1775037, Note_off_c, 0, 53, 51
1, 1775094, Control_c, 0, 64, 23
1, 1775114, Control_c, 0, 64, 50
1, 1775132, Control_c, 0, 64, 73
1, 1775149, Control_c, 0, 64, 96
1, 1775168, Control_c, 0, 64, 126
1, 1775190, Note_off_c, 0, 52, 58
1, 1775206, Note_on_c, 0, 48, 48
1, 1775216, Note_on_c, 0, 68, 48
1, 1775244, Note_off_c, 0, 48, 50
1, 1775244, Poly_aftertouch_c, 0, 48, 0
1, 1775299, Control_c, 0, 67, 58
1, 1775311, Note_off_c, 0, 70, 39
1, 1775411, Control_c, 0, 67, 54
1, 1775461, Note_on_c, 0, 82, 79
1, 1775484, Note_on_c, 0, 67, 52
1, 1775505, Control_c, 0, 67, 49
1, 1775543, Control_c, 0, 67, 41
1, 1775561, Control_c, 0, 67, 37
1, 1775580, Control_c, 0, 67, 29
1, 1775599, Control_c, 0, 67, 18
1, 1775637, Control_c, 0, 67, 0
1, 1775675, Note_off_c, 0, 61, 56
1, 1775675, Poly_aftertouch_c, 0, 61, 0
1, 1775686, Note_off_c, 0, 68, 22
1, 1775687, Note_on_c, 0, 80, 82
1, 1775703, Note_on_c, 0, 64, 51
1, 1775712, Note_off_c, 0, 67, 56
1, 1775712, Poly_aftertouch_c, 0, 67, 0
1, 1775769, Note_off_c, 0, 64, 55
1, 1775975, Note_on_c, 0, 70, 44
1, 1775975, Note_on_c, 0, 79, 68
1, 1776006, Note_on_c, 0, 61, 41
1, 1776009, Control_c, 0, 64, 120
1, 1776015, Note_off_c, 0, 82, 49
1, 1776028, Control_c, 0, 64, 98
1, 1776048, Control_c, 0, 64, 75
1, 1776067, Control_c, 0, 64, 56
1, 1776084, Control_c, 0, 64, 48
1, 1776104, Control_c, 0, 64, 53
1, 1776122, Control_c, 0, 64, 65
1, 1776142, Control_c, 0, 64, 77
1, 1776159, Control_c, 0, 64, 95
1, 1776174, Note_off_c, 0, 80, 56
1, 1776178, Control_c, 0, 64, 125
1, 1776220, Note_on_c, 0, 68, 52
1, 1776225, Note_on_c, 0, 76, 55
1, 1776233, Note_off_c, 0, 79, 63
1, 1776249, Note_off_c, 0, 76, 63
1, 1776272, Control_c, 0, 67, 9
1, 1776290, Control_c, 0, 67, 14
1, 1776309, Control_c, 0, 67, 19
1, 1776328, Control_c, 0, 67, 27
1, 1776338, Note_off_c, 0, 70, 35
1, 1776346, Control_c, 0, 67, 40
1, 1776365, Control_c, 0, 67, 54
1, 1776384, Control_c, 0, 67, 65
1, 1776403, Control_c, 0, 67, 71
1, 1776450, Note_on_c, 0, 67, 64
1, 1776465, Note_on_c, 0, 58, 67
1, 1776522, Note_off_c, 0, 61, 60
1, 1776522, Poly_aftertouch_c, 0, 61, 0
1, 1776665, Note_off_c, 0, 68, 39
1, 1776683, Note_on_c, 0, 64, 65
1, 1776685, Note_on_c, 0, 56, 69
1, 1776707, Note_off_c, 0, 67, 57
1, 1776707, Poly_aftertouch_c, 0, 67, 0
1, 1776734, Note_off_c, 0, 58, 58
1, 1776742, Note_off_c, 0, 64, 58
1, 1776933, Note_on_c, 0, 73, 62
1, 1776944, Control_c, 0, 64, 105
1, 1776947, Note_on_c, 0, 64, 49
1, 1776948, Note_on_c, 0, 55, 59
1, 1776963, Control_c, 0, 64, 70
1, 1776984, Control_c, 0, 64, 29
1, 1777001, Control_c, 0, 64, 0
1, 1777023, Note_off_c, 0, 56, 39
1, 1777038, Control_c, 0, 64, 25
1, 1777057, Control_c, 0, 64, 57
1, 1777077, Control_c, 0, 64, 85
1, 1777094, Control_c, 0, 64, 114
1, 1777114, Control_c, 0, 64, 127
1, 1777154, Note_on_c, 0, 52, 59
1, 1777165, Note_on_c, 0, 72, 57
1, 1777166, Note_off_c, 0, 55, 61
1, 1777166, Poly_aftertouch_c, 0, 55, 0
1, 1777183, Note_off_c, 0, 52, 60
1, 1777273, Note_off_c, 0, 73, 38
1, 1777413, Note_on_c, 0, 85, 79
1, 1777435, Note_on_c, 0, 70, 59
1, 1777611, Note_off_c, 0, 72, 50
1, 1777645, Note_on_c, 0, 84, 80
1, 1777649, Note_off_c, 0, 64, 59
1, 1777655, Note_on_c, 0, 67, 50
1, 1777656, Control_c, 0, 67, 67
1, 1777678, Poly_aftertouch_c, 0, 86, 0
1, 1777679, Note_off_c, 0, 70, 58
1, 1777712, Control_c, 0, 67, 62
1, 1777734, Note_off_c, 0, 67, 56
1, 1777734, Poly_aftertouch_c, 0, 67, 0
1, 1777738, Note_off_c, 0, 85, 53
1, 1777902, Note_on_c, 0, 82, 73
1, 1777917, Control_c, 0, 64, 119
1, 1777925, Note_on_c, 0, 73, 52
1, 1777936, Control_c, 0, 64, 96
1, 1777955, Control_c, 0, 64, 69
1, 1777959, Note_on_c, 0, 64, 38
1, 1777973, Control_c, 0, 64, 45
1, 1777992, Control_c, 0, 64, 13
1, 1777993, Control_c, 0, 67, 66
1, 1778030, Control_c, 0, 64, 23
1, 1778048, Control_c, 0, 64, 39
1, 1778066, Note_off_c, 0, 84, 53
1, 1778066, Control_c, 0, 64, 59
1, 1778086, Control_c, 0, 64, 80
1, 1778104, Control_c, 0, 64, 102
1, 1778107, Control_c, 0, 67, 70
1, 1778123, Control_c, 0, 64, 127
1, 1778141, Control_c, 0, 67, 75
1, 1778142, Note_on_c, 0, 79, 58
1, 1778159, Note_on_c, 0, 72, 52
1, 1778159, Control_c, 0, 67, 81
1, 1778169, Note_off_c, 0, 82, 64
1, 1778179, Note_off_c, 0, 79, 67
1, 1778179, Control_c, 0, 67, 87
1, 1778198, Control_c, 0, 67, 92
1, 1778235, Control_c, 0, 67, 98
1, 1778281, Note_off_c, 0, 73, 37
1, 1778395, Note_on_c, 0, 70, 54
1, 1778397, Note_on_c, 0, 61, 61
1, 1778551, Note_off_c, 0, 61, 56
1, 1778551, Poly_aftertouch_c, 0, 61, 0
1, 1778581, Note_off_c, 0, 72, 22
1, 1778587, Note_off_c, 0, 64, 38
1, 1778633, Note_on_c, 0, 60, 56
1, 1778649, Note_on_c, 0, 67, 48
1, 1778684, Note_off_c, 0, 70, 50
1, 1778877, Note_off_c, 0, 67, 34
1, 1778877, Poly_aftertouch_c, 0, 67, 0
1, 1778890, Control_c, 0, 64, 119
1, 1778908, Control_c, 0, 64, 111
1, 1778917, Note_on_c, 0, 73, 50
1, 1778926, Note_on_c, 0, 63, 49
1, 1778929, Control_c, 0, 64, 102
1, 1778930, Note_on_c, 0, 58, 50
1, 1778947, Control_c, 0, 64, 91
1, 1778963, Note_off_c, 0, 60, 39
1, 1778963, Poly_aftertouch_c, 0, 60, 0
1, 1778965, Control_c, 0, 64, 78
1, 1778983, Control_c, 0, 64, 63
1, 1779002, Control_c, 0, 64, 48
1, 1779021, Control_c, 0, 64, 30
1, 1779039, Control_c, 0, 64, 24
1, 1779058, Control_c, 0, 64, 30
1, 1779077, Control_c, 0, 64, 42
1, 1779096, Control_c, 0, 64, 55
1, 1779114, Control_c, 0, 64, 71
1, 1779133, Control_c, 0, 64, 84
1, 1779152, Control_c, 0, 64, 98
1, 1779170, Note_on_c, 0, 55, 50
1, 1779171, Control_c, 0, 64, 114
1, 1779176, Note_on_c, 0, 72, 50
1, 1779180, Note_off_c, 0, 58, 62
1, 1779188, Control_c, 0, 64, 127
1, 1779202, Note_off_c, 0, 55, 56
1, 1779202, Poly_aftertouch_c, 0, 55, 0
1, 1779293, Note_off_c, 0, 73, 34
1, 1779467, Note_on_c, 0, 70, 53
1, 1779476, Note_on_c, 0, 85, 63
1, 1779497, Note_off_c, 0, 72, 55
1, 1779719, Note_on_c, 0, 84, 67
1, 1779731, Note_on_c, 0, 67, 42
1, 1779764, Note_off_c, 0, 63, 34
1, 1779769, Note_off_c, 0, 70, 40
1, 1779823, Note_off_c, 0, 67, 55
1, 1779823, Poly_aftertouch_c, 0, 67, 0
1, 1779852, Note_off_c, 0, 85, 35
1, 1780010, Note_on_c, 0, 82, 58
1, 1780023, Note_on_c, 0, 73, 46
1, 1780030, Control_c, 0, 64, 123
1, 1780040, Note_on_c, 0, 63, 42
1, 1780069, Control_c, 0, 64, 113
1, 1780087, Control_c, 0, 64, 103
1, 1780105, Control_c, 0, 64, 90
1, 1780117, Note_off_c, 0, 84, 39
1, 1780123, Control_c, 0, 64, 78
1, 1780143, Control_c, 0, 64, 68
1, 1780161, Control_c, 0, 64, 59
1, 1780180, Control_c, 0, 64, 49
1, 1780198, Control_c, 0, 64, 35
1, 1780218, Control_c, 0, 64, 28
1, 1780236, Control_c, 0, 64, 33
1, 1780255, Control_c, 0, 64, 45
1, 1780274, Control_c, 0, 64, 56
1, 1780287, Note_on_c, 0, 72, 42
1, 1780292, Control_c, 0, 64, 69
1, 1780297, Note_on_c, 0, 79, 49
1, 1780311, Control_c, 0, 64, 80
1, 1780325, Note_off_c, 0, 82, 62
1, 1780328, Control_c, 0, 64, 91
1, 1780330, Note_off_c, 0, 79, 62
1, 1780330, Control_c, 0, 67, 102
1, 1780349, Control_c, 0, 64, 103
1, 1780350, Control_c, 0, 67, 108
1, 1780368, Control_c, 0, 64, 118
1, 1780369, Control_c, 0, 67, 114
1, 1780385, Control_c, 0, 64, 127
1, 1780388, Control_c, 0, 67, 118
1, 1780403, Control_c, 0, 67, 122
1, 1780404, Note_off_c, 0, 73, 35
1, 1780441, Control_c, 0, 67, 127
1, 1780552, Note_on_c, 0, 70, 47
1, 1780572, Note_off_c, 0, 72, 31
1, 1780587, Note_on_c, 0, 61, 53
1, 1780636, Note_off_c, 0, 63, 57
1, 1780711, Note_off_c, 0, 70, 51
1, 1780830, Note_off_c, 0, 61, 32
1, 1780830, Poly_aftertouch_c, 0, 61, 0
1, 1780838, Note_on_c, 0, 60, 55
1, 1780881, Note_on_c, 0, 67, 42
1, 1780920, Note_off_c, 0, 67, 60
1, 1780920, Poly_aftertouch_c, 0, 67, 0
1, 1781133, Control_c, 0, 64, 123
1, 1781212, Note_on_c, 0, 58, 48
1, 1781246, Control_c, 0, 64, 117
1, 1781282, Control_c, 0, 64, 113
1, 1781283, Note_on_c, 0, 49, 59
1, 1781318, Note_off_c, 0, 60, 34
1, 1781318, Poly_aftertouch_c, 0, 60, 0
1, 1781320, Control_c, 0, 64, 109
1, 1781358, Control_c, 0, 64, 103
1, 1781396, Control_c, 0, 64, 95
1, 1781414, Control_c, 0, 64, 90
1, 1781433, Control_c, 0, 64, 86
1, 1781452, Control_c, 0, 64, 83
1, 1781470, Control_c, 0, 64, 79
1, 1781488, Control_c, 0, 64, 75
1, 1781508, Control_c, 0, 64, 72
1, 1781526, Control_c, 0, 64, 69
1, 1781532, Note_on_c, 0, 55, 44
1, 1781546, Control_c, 0, 64, 67
1, 1781564, Control_c, 0, 64, 65
1, 1781576, Note_off_c, 0, 58, 45
1, 1781581, Control_c, 0, 64, 63
1, 1781601, Control_c, 0, 64, 61
1, 1781602, Control_c, 0, 67, 123
1, 1781613, Note_off_c, 0, 55, 54
1, 1781613, Poly_aftertouch_c, 0, 55, 0
1, 1781619, Control_c, 0, 64, 58
1, 1781638, Control_c, 0, 64, 54
1, 1781657, Control_c, 0, 64, 49
1, 1781676, Control_c, 0, 64, 41
1, 1781695, Control_c, 0, 64, 30
1, 1781714, Control_c, 0, 64, 15
1, 1781731, Control_c, 0, 64, 0
1, 1781851, Note_on_c, 0, 48, 60
1, 1782064, Note_off_c, 0, 49, 54
1, 1782064, Poly_aftertouch_c, 0, 49, 0
1, 1782107, Control_c, 0, 67, 119
1, 1782144, Control_c, 0, 67, 115
1, 1782181, Control_c, 0, 67, 106
1, 1782199, Control_c, 0, 67, 100
1, 1782219, Control_c, 0, 67, 93
1, 1782237, Control_c, 0, 67, 86
1, 1782256, Control_c, 0, 67, 79
1, 1782274, Control_c, 0, 67, 73
1, 1782294, Control_c, 0, 67, 67
1, 1782312, Control_c, 0, 67, 59
1, 1782330, Control_c, 0, 67, 47
1, 1782348, Control_c, 0, 67, 34
1, 1782368, Control_c, 0, 67, 20
1, 1782397, Note_on_c, 0, 46, 54
1, 1782423, Control_c, 0, 67, 0
1, 1782634, Note_off_c, 0, 48, 38
1, 1782634, Poly_aftertouch_c, 0, 48, 0
1, 1782918, Note_on_c, 0, 43, 56
1, 1783046, Note_off_c, 0, 46, 61
1, 1783260, Note_on_c, 0, 51, 58
1, 1783308, Note_off_c, 0, 51, 59
1, 1783379, Control_c, 0, 64, 11
1, 1783410, Note_on_c, 0, 56, 68
1, 1783410, Note_on_c, 0, 63, 69
1, 1783413, Note_off_c, 0, 43, 62
1, 1783417, Note_on_c, 0, 48, 67
1, 1783424, Note_on_c, 0, 36, 62
1, 1783443, Note_off_c, 0, 56, 66
1, 1783450, Note_off_c, 0, 63, 63
1, 1783546, Control_c, 0, 67, 8
1, 1783706, Note_off_c, 0, 48, 39
1, 1783706, Poly_aftertouch_c, 0, 48, 0
1, 1783739, Note_on_c, 0, 63, 66
1, 1783745, Note_on_c, 0, 56, 60
1, 1783782, Note_off_c, 0, 56, 64
1, 1783791, Note_off_c, 0, 63, 57
1, 1783894, Note_on_c, 0, 56, 68
1, 1783899, Note_on_c, 0, 61, 69
1, 1783900, Note_on_c, 0, 65, 67
1, 1783909, Note_on_c, 0, 46, 77
1, 1783914, Note_on_c, 0, 34, 71
1, 1783928, Note_off_c, 0, 56, 65
1, 1783936, Note_off_c, 0, 61, 67
1, 1783936, Poly_aftertouch_c, 0, 61, 0
1, 1783938, Note_off_c, 0, 65, 66
1, 1783961, Note_off_c, 0, 36, 59
1, 1783961, Poly_aftertouch_c, 0, 36, 0
1, 1784223, Note_on_c, 0, 65, 58
1, 1784225, Note_on_c, 0, 61, 64
1, 1784228, Note_off_c, 0, 46, 56
1, 1784230, Note_on_c, 0, 56, 57
1, 1784264, Note_off_c, 0, 65, 63
1, 1784269, Note_off_c, 0, 56, 65
1, 1784276, Note_off_c, 0, 61, 61
1, 1784276, Poly_aftertouch_c, 0, 61, 0
1, 1784332, Control_c, 0, 64, 0
1, 1784372, Note_on_c, 0, 56, 76
1, 1784383, Note_on_c, 0, 60, 74
1, 1784391, Note_on_c, 0, 44, 76
1, 1784395, Note_on_c, 0, 32, 72
1, 1784411, Note_off_c, 0, 56, 66
1, 1784417, Note_off_c, 0, 34, 55
1, 1784419, Note_off_c, 0, 60, 66
1, 1784419, Poly_aftertouch_c, 0, 60, 0
1, 1784480, Control_c, 0, 67, 0
1, 1784641, Note_off_c, 0, 44, 59
1, 1784643, Note_on_c, 0, 58, 53
1, 1784650, Note_on_c, 0, 61, 60
1, 1784675, Note_off_c, 0, 58, 57
1, 1784709, Note_on_c, 0, 63, 70
1, 1784712, Note_on_c, 0, 60, 69
1, 1784740, Note_off_c, 0, 61, 64
1, 1784740, Poly_aftertouch_c, 0, 61, 0
1, 1784751, Note_off_c, 0, 60, 68
1, 1784751, Poly_aftertouch_c, 0, 60, 0
1, 1784756, Note_off_c, 0, 63, 61
1, 1784916, Note_on_c, 0, 39, 68
1, 1784925, Note_on_c, 0, 27, 63
1, 1784938, Note_off_c, 0, 32, 55
1, 1785041, Control_c, 0, 64, 22
1, 1785061, Control_c, 0, 64, 36
1, 1785079, Control_c, 0, 64, 51
1, 1785098, Control_c, 0, 64, 65
1, 1785116, Control_c, 0, 64, 75
1, 1785136, Control_c, 0, 64, 82
1, 1785153, Control_c, 0, 64, 89
1, 1785172, Control_c, 0, 64, 98
1, 1785193, Control_c, 0, 64, 109
1, 1785205, Note_off_c, 0, 27, 62
1, 1785212, Note_off_c, 0, 39, 58
1, 1785212, Control_c, 0, 64, 118
1, 1785229, Control_c, 0, 64, 125
1, 1785276, Note_on_c, 0, 63, 70
1, 1785535, Note_on_c, 0, 47, 57
1, 1785537, Note_on_c, 0, 57, 68
1, 1785546, Note_on_c, 0, 35, 54
1, 1785565, Control_c, 0, 64, 116
1, 1785584, Control_c, 0, 64, 93
1, 1785604, Control_c, 0, 64, 71
1, 1785621, Control_c, 0, 64, 56
1, 1785639, Control_c, 0, 64, 51
1, 1785658, Control_c, 0, 64, 56
1, 1785678, Control_c, 0, 64, 66
1, 1785695, Control_c, 0, 64, 78
1, 1785715, Control_c, 0, 64, 94
1, 1785733, Control_c, 0, 64, 115
1, 1785752, Control_c, 0, 64, 127
1, 1785933, Note_off_c, 0, 47, 53
1, 1785966, Note_on_c, 0, 65, 65
1, 1785981, Note_off_c, 0, 57, 54
1, 1786059, Note_off_c, 0, 63, 47
1, 1786242, Note_on_c, 0, 58, 63
1, 1786243, Note_on_c, 0, 66, 65
1, 1786254, Note_on_c, 0, 46, 52
1, 1786257, Note_on_c, 0, 34, 50
1, 1786279, Note_off_c, 0, 35, 35
1, 1786332, Control_c, 0, 64, 110
1, 1786334, Note_off_c, 0, 65, 30
1, 1786351, Control_c, 0, 64, 86
1, 1786369, Control_c, 0, 64, 65
1, 1786388, Control_c, 0, 64, 56
1, 1786425, Control_c, 0, 64, 62
1, 1786444, Control_c, 0, 64, 72
1, 1786463, Control_c, 0, 64, 83
1, 1786482, Control_c, 0, 64, 100
1, 1786500, Control_c, 0, 64, 126
1, 1786735, Note_on_c, 0, 65, 55
1, 1786782, Note_off_c, 0, 46, 55
1, 1786795, Note_off_c, 0, 58, 53
1, 1786814, Note_off_c, 0, 66, 50
1, 1786814, Poly_aftertouch_c, 0, 66, 0
1, 1786950, Note_off_c, 0, 34, 39
1, 1787112, Note_on_c, 0, 63, 47
1, 1787118, Note_on_c, 0, 59, 46
1, 1787136, Control_c, 0, 64, 118
1, 1787147, Note_on_c, 0, 45, 37
1, 1787154, Note_on_c, 0, 33, 38
1, 1787155, Control_c, 0, 64, 112
1, 1787156, Note_off_c, 0, 65, 35
1, 1787173, Control_c, 0, 64, 106
1, 1787191, Control_c, 0, 64, 100
1, 1787211, Control_c, 0, 64, 93
1, 1787229, Control_c, 0, 64, 87
1, 1787248, Control_c, 0, 64, 80
1, 1787268, Control_c, 0, 64, 72
1, 1787285, Control_c, 0, 64, 62
1, 1787304, Control_c, 0, 64, 49
1, 1787323, Control_c, 0, 64, 20
1, 1787342, Control_c, 0, 64, 0
1, 1787473, Control_c, 0, 64, 28
1, 1787491, Control_c, 0, 64, 43
1, 1787510, Control_c, 0, 64, 58
1, 1787528, Control_c, 0, 64, 71
1, 1787548, Control_c, 0, 64, 79
1, 1787565, Control_c, 0, 64, 84
1, 1787584, Control_c, 0, 64, 89
1, 1787604, Control_c, 0, 64, 95
1, 1787622, Control_c, 0, 64, 102
1, 1787640, Control_c, 0, 64, 111
1, 1787659, Control_c, 0, 64, 118
1, 1787679, Control_c, 0, 64, 123
1, 1787715, Control_c, 0, 64, 127
1, 1787727, Note_off_c, 0, 45, 35
1, 1787828, Note_on_c, 0, 65, 43
1, 1787929, Note_off_c, 0, 63, 36
1, 1787990, Note_off_c, 0, 33, 36
1, 1788059, Note_off_c, 0, 59, 38
1, 1788161, Note_off_c, 0, 65, 45
1, 1788485, Note_on_c, 0, 66, 41
1, 1788507, Note_on_c, 0, 60, 34
1, 1788520, Control_c, 0, 64, 122
1, 1788538, Control_c, 0, 64, 116
1, 1788557, Control_c, 0, 64, 108
1, 1788559, Note_on_c, 0, 44, 23
1, 1788568, Note_on_c, 0, 32, 30
1, 1788574, Control_c, 0, 64, 101
1, 1788595, Control_c, 0, 64, 96
1, 1788613, Control_c, 0, 64, 90
1, 1788633, Control_c, 0, 64, 84
1, 1788650, Control_c, 0, 64, 77
1, 1788669, Control_c, 0, 64, 70
1, 1788689, Control_c, 0, 64, 65
1, 1788706, Control_c, 0, 64, 62
1, 1788724, Control_c, 0, 64, 60
1, 1788744, Control_c, 0, 64, 55
1, 1788763, Control_c, 0, 64, 48
1, 1788781, Control_c, 0, 64, 39
1, 1788800, Control_c, 0, 64, 30
1, 1788819, Control_c, 0, 64, 21
1, 1788837, Control_c, 0, 64, 13
1, 1788856, Control_c, 0, 64, 0
1, 1789117, Control_c, 0, 64, 8
1, 1789137, Control_c, 0, 64, 25
1, 1789155, Control_c, 0, 64, 42
1, 1789174, Control_c, 0, 64, 54
1, 1789192, Control_c, 0, 64, 60
1, 1789211, Control_c, 0, 64, 63
1, 1789231, Control_c, 0, 64, 65
1, 1789248, Control_c, 0, 64, 67
1, 1789268, Control_c, 0, 64, 70
1, 1789286, Control_c, 0, 64, 73
1, 1789305, Control_c, 0, 64, 75
1, 1789343, Control_c, 0, 64, 78
1, 1789361, Control_c, 0, 64, 80
1, 1789381, Control_c, 0, 64, 85
1, 1789398, Control_c, 0, 64, 91
1, 1789417, Control_c, 0, 64, 96
1, 1789437, Control_c, 0, 64, 102
1, 1789454, Control_c, 0, 64, 108
1, 1789464, Note_off_c, 0, 66, 61
1, 1789464, Poly_aftertouch_c, 0, 66, 0
1, 1789473, Control_c, 0, 64, 113
1, 1789510, Control_c, 0, 64, 118
1, 1789517, Note_off_c, 0, 32, 38
1, 1789517, Note_off_c, 0, 44, 34
1, 1789585, Control_c, 0, 64, 112
1, 1789604, Control_c, 0, 64, 100
1, 1789608, Note_off_c, 0, 60, 23
1, 1789608, Poly_aftertouch_c, 0, 60, 0
1, 1789624, Control_c, 0, 64, 79
1, 1789642, Control_c, 0, 64, 52
1, 1789660, Control_c, 0, 64, 0
1, 1789941, Note_on_c, 0, 43, 94
1, 1789943, Note_on_c, 0, 31, 88
1, 1789947, Note_on_c, 0, 60, 98
1, 1789988, Note_off_c, 0, 43, 68
1, 1789996, Control_c, 0, 64, 127
1, 1789998, Note_off_c, 0, 31, 63
1, 1790004, Note_on_c, 0, 69, 36
1, 1790004, Poly_aftertouch_c, 0, 69, 0
1, 1790005, Note_off_c, 0, 69, 127
1, 1790053, Poly_aftertouch_c, 0, 69, 0
1, 1790250, Note_on_c, 0, 63, 93
1, 1790251, Note_on_c, 0, 72, 92
1, 1790265, Note_on_c, 0, 51, 105
1, 1790273, Note_on_c, 0, 39, 98
1, 1790277, Control_c, 0, 64, 116
1, 1790281, Note_off_c, 0, 60, 65
1, 1790281, Poly_aftertouch_c, 0, 60, 0
1, 1790295, Note_off_c, 0, 72, 61
1, 1790295, Control_c, 0, 64, 51
1, 1790301, Note_off_c, 0, 63, 68
1, 1790310, Note_off_c, 0, 39, 66
1, 1790310, Note_off_c, 0, 51, 67
1, 1790314, Control_c, 0, 64, 0
1, 1790362, Note_on_c, 0, 42, 6
1, 1790377, Note_off_c, 0, 42, 39
1, 1790515, Note_on_c, 0, 50, 96
1, 1790517, Note_on_c, 0, 38, 92
1, 1790524, Poly_aftertouch_c, 0, 68, 0
1, 1790562, Note_off_c, 0, 50, 65
1, 1790573, Note_off_c, 0, 38, 63
1, 1790603, Note_on_c, 0, 67, 74
1, 1790607, Note_on_c, 0, 60, 73
1, 1790655, Note_off_c, 0, 67, 60
1, 1790655, Poly_aftertouch_c, 0, 67, 0
1, 1790679, Note_off_c, 0, 60, 64
1, 1790679, Poly_aftertouch_c, 0, 60, 0
1, 1790718, Note_on_c, 0, 63, 85
1, 1790720, Note_on_c, 0, 55, 88
1, 1790726, Note_on_c, 0, 48, 96
1, 1790730, Note_on_c, 0, 36, 91
1, 1790768, Note_off_c, 0, 48, 65
1, 1790768, Poly_aftertouch_c, 0, 48, 0
1, 1790769, Note_off_c, 0, 55, 64
1, 1790769, Note_off_c, 0, 63, 62
1, 1790769, Poly_aftertouch_c, 0, 55, 0
1, 1790778, Note_off_c, 0, 36, 63
1, 1790778, Poly_aftertouch_c, 0, 36, 0
1, 1790996, Note_on_c, 0, 60, 80
1, 1791000, Note_on_c, 0, 51, 89
1, 1791002, Note_on_c, 0, 43, 97
1, 1791010, Note_on_c, 0, 31, 89
1, 1791047, Note_off_c, 0, 43, 64
1, 1791047, Note_off_c, 0, 31, 69
1, 1791056, Note_off_c, 0, 60, 64
1, 1791056, Note_off_c, 0, 51, 64
1, 1791056, Poly_aftertouch_c, 0, 60, 0
1, 1791299, Note_on_c, 0, 55, 85
1, 1791303, Note_on_c, 0, 48, 89
1, 1791311, Note_on_c, 0, 39, 92
1, 1791314, Note_on_c, 0, 27, 89
1, 1791343, Note_off_c, 0, 39, 68
1, 1791352, Note_off_c, 0, 27, 69
1, 1791358, Note_off_c, 0, 48, 65
1, 1791358, Poly_aftertouch_c, 0, 48, 0
1, 1791361, Note_off_c, 0, 55, 65
1, 1791361, Poly_aftertouch_c, 0, 55, 0
1, 1791631, Note_on_c, 0, 51, 95
1, 1791634, Note_on_c, 0, 48, 88
1, 1791640, Note_on_c, 0, 41, 94
1, 1791645, Note_on_c, 0, 29, 90
1, 1791679, Note_off_c, 0, 48, 62
1, 1791679, Poly_aftertouch_c, 0, 48, 0
1, 1791684, Note_off_c, 0, 51, 66
1, 1791686, Note_off_c, 0, 29, 66
1, 1791691, Note_off_c, 0, 41, 64
1, 1792104, Note_on_c, 0, 48, 96
1, 1792109, Note_on_c, 0, 50, 91
1, 1792114, Note_on_c, 0, 43, 98
1, 1792122, Note_on_c, 0, 31, 94
1, 1792260, Control_c, 0, 64, 23
1, 1792278, Control_c, 0, 64, 72
1, 1792296, Control_c, 0, 64, 86
1, 1792316, Control_c, 0, 64, 98
1, 1792334, Control_c, 0, 64, 106
1, 1792344, Poly_aftertouch_c, 0, 34, 0
1, 1792372, Control_c, 0, 64, 114
1, 1792390, Control_c, 0, 64, 122
1, 1792408, Control_c, 0, 64, 127
1, 1792706, Note_off_c, 0, 48, 49
1, 1792706, Poly_aftertouch_c, 0, 48, 0
1, 1792970, Control_c, 0, 64, 115
1, 1792989, Control_c, 0, 64, 95
1, 1793007, Control_c, 0, 64, 63
1, 1793025, Control_c, 0, 64, 0
1, 1793036, Note_on_c, 0, 47, 98
1, 1793157, Control_c, 0, 64, 46
1, 1793176, Control_c, 0, 64, 75
1, 1793195, Control_c, 0, 64, 91
1, 1793213, Control_c, 0, 64, 103
1, 1793231, Control_c, 0, 64, 113
1, 1793251, Control_c, 0, 64, 120
1, 1793269, Control_c, 0, 64, 126
1, 1793431, Note_off_c, 0, 31, 57
1, 1793703, Note_off_c, 0, 47, 47
1, 1793715, Note_off_c, 0, 50, 50
1, 1793790, Note_off_c, 0, 43, 23
1, 1794087, Note_on_c, 0, 48, 95
1, 1794088, Note_on_c, 0, 52, 90
1, 1794091, Control_c, 0, 64, 104
1, 1794094, Note_on_c, 0, 36, 82
1, 1794097, Note_on_c, 0, 43, 87
1, 1794110, Control_c, 0, 64, 57
1, 1794130, Control_c, 0, 64, 0
1, 1794971, Note_off_c, 0, 36, 62
1, 1794971, Poly_aftertouch_c, 0, 36, 0
1, 1795005, Note_off_c, 0, 43, 65
1, 1795008, Control_c, 0, 64, 81
1, 1795012, Note_off_c, 0, 48, 63
1, 1795012, Poly_aftertouch_c, 0, 48, 0
1, 1795026, Control_c, 0, 64, 123
1, 1795038, Note_off_c, 0, 52, 60
1, 1795044, Control_c, 0, 64, 127
1, 1795380, Note_on_c, 0, 48, 66
1, 1795385, Note_on_c, 0, 60, 67
1, 1795426, Note_off_c, 0, 60, 62
1, 1795426, Poly_aftertouch_c, 0, 60, 0
1, 1795450, Note_on_c, 0, 50, 67
1, 1795451, Note_off_c, 0, 48, 58
1, 1795451, Poly_aftertouch_c, 0, 48, 0
1, 1795457, Control_c, 0, 64, 114
1, 1795470, Note_on_c, 0, 62, 65
1, 1795475, Control_c, 0, 64, 99
1, 1795493, Control_c, 0, 64, 107
1, 1795499, Note_on_c, 0, 52, 68
1, 1795507, Note_off_c, 0, 62, 67
1, 1795512, Control_c, 0, 64, 127
1, 1795515, Note_on_c, 0, 64, 77
1, 1795533, Note_off_c, 0, 50, 61
1, 1795571, Note_off_c, 0, 64, 62
1, 1795573, Note_on_c, 0, 53, 79
1, 1795584, Note_off_c, 0, 52, 62
1, 1795603, Note_on_c, 0, 65, 80
1, 1795628, Note_on_c, 0, 55, 79
1, 1795634, Note_off_c, 0, 53, 62
1, 1795664, Note_on_c, 0, 67, 82
1, 1795670, Note_off_c, 0, 65, 63
1, 1795688, Note_off_c, 0, 55, 65
1, 1795688, Poly_aftertouch_c, 0, 55, 0
1, 1795705, Note_on_c, 0, 69, 80
1, 1795723, Note_on_c, 0, 57, 73
1, 1795742, Note_on_c, 0, 71, 91
1, 1795756, Note_off_c, 0, 67, 62
1, 1795756, Poly_aftertouch_c, 0, 67, 0
1, 1795758, Note_off_c, 0, 57, 63
1, 1795761, Note_on_c, 0, 59, 85
1, 1795775, Control_c, 0, 64, 66
1, 1795776, Note_on_c, 0, 72, 96
1, 1795785, Note_on_c, 0, 60, 95
1, 1795791, Note_off_c, 0, 69, 64
1, 1795791, Note_off_c, 0, 59, 70
1, 1795793, Control_c, 0, 64, 0
1, 1795806, Note_off_c, 0, 71, 67
1, 1795822, Note_off_c, 0, 72, 67
1, 1795828, Note_off_c, 0, 60, 69
1, 1795828, Poly_aftertouch_c, 0, 60, 0
1, 1796158, Note_on_c, 0, 58, 86
1, 1796160, Note_on_c, 0, 70, 95
1, 1796160, Note_on_c, 0, 73, 97
1, 1796161, Note_on_c, 0, 61, 88
1, 1796193, Note_off_c, 0, 61, 69
1, 1796193, Poly_aftertouch_c, 0, 61, 0
1, 1796199, Note_off_c, 0, 58, 68
1, 1796201, Note_off_c, 0, 70, 67
1, 1796205, Control_c, 0, 64, 103
1, 1796206, Note_off_c, 0, 73, 67
1, 1796223, Control_c, 0, 64, 127
1, 1796485, Control_c, 0, 64, 112
1, 1796503, Control_c, 0, 64, 45
1, 1796522, Control_c, 0, 64, 0
1, 1796556, Note_on_c, 0, 56, 80
1, 1796557, Note_on_c, 0, 60, 78
1, 1796558, Note_on_c, 0, 68, 78
1, 1796559, Note_on_c, 0, 72, 73
1, 1796580, Note_off_c, 0, 60, 70
1, 1796580, Poly_aftertouch_c, 0, 60, 0
1, 1796582, Note_off_c, 0, 56, 70
1, 1796589, Note_off_c, 0, 72, 61
1, 1796591, Note_off_c, 0, 68, 64
1, 1796709, Note_on_c, 0, 70, 82
1, 1796718, Note_on_c, 0, 55, 72
1, 1796719, Note_on_c, 0, 58, 71
1, 1796720, Note_on_c, 0, 67, 77
1, 1796750, Note_off_c, 0, 67, 69
1, 1796750, Poly_aftertouch_c, 0, 67, 0
1, 1796753, Note_off_c, 0, 58, 69
1, 1796759, Note_off_c, 0, 55, 64
1, 1796759, Poly_aftertouch_c, 0, 55, 0
1, 1796764, Note_off_c, 0, 70, 62
1, 1796895, Note_on_c, 0, 65, 90
1, 1796896, Note_on_c, 0, 56, 85
1, 1796897, Note_on_c, 0, 68, 88
1, 1796898, Note_on_c, 0, 53, 84
1, 1796930, Note_off_c, 0, 68, 68
1, 1796932, Note_off_c, 0, 65, 65
1, 1796932, Control_c, 0, 67, 27
1, 1796934, Note_off_c, 0, 53, 67
1, 1796945, Note_off_c, 0, 56, 62
1, 1796952, Control_c, 0, 67, 53
1, 1797165, Note_on_c, 0, 58, 73
1, 1797170, Note_on_c, 0, 67, 64
1, 1797170, Note_on_c, 0, 55, 65
1, 1797172, Note_on_c, 0, 70, 71
1, 1797196, Note_off_c, 0, 67, 63
1, 1797196, Poly_aftertouch_c, 0, 67, 0
1, 1797203, Note_off_c, 0, 58, 64
1, 1797205, Note_off_c, 0, 70, 70
1, 1797210, Note_off_c, 0, 55, 64
1, 1797210, Poly_aftertouch_c, 0, 55, 0
1, 1797238, Note_on_c, 0, 60, 86
1, 1797240, Note_on_c, 0, 72, 85
1, 1797247, Note_on_c, 0, 68, 88
1, 1797247, Note_on_c, 0, 56, 82
1, 1797276, Note_off_c, 0, 60, 66
1, 1797276, Poly_aftertouch_c, 0, 60, 0
1, 1797281, Note_off_c, 0, 56, 67
1, 1797288, Note_off_c, 0, 72, 64
1, 1797290, Note_off_c, 0, 68, 64
1, 1797364, Control_c, 0, 64, 70
1, 1797383, Control_c, 0, 64, 113
1, 1797401, Control_c, 0, 64, 127
1, 1797438, Control_c, 0, 64, 116
1, 1797458, Control_c, 0, 64, 77
1, 1797461, Control_c, 0, 67, 48
1, 1797477, Control_c, 0, 64, 0
1, 1797495, Control_c, 0, 67, 42
1, 1797751, Note_on_c, 0, 48, 84
1, 1797945, Note_on_c, 0, 51, 79
1, 1797948, Note_on_c, 0, 56, 80
1, 1797949, Note_on_c, 0, 44, 92
1, 1797949, Note_on_c, 0, 60, 83
1, 1797949, Note_on_c, 0, 32, 88
1, 1797967, Note_off_c, 0, 48, 39
1, 1797967, Poly_aftertouch_c, 0, 48, 0
1, 1797978, Note_off_c, 0, 51, 71
1, 1797982, Note_off_c, 0, 44, 71
1, 1797993, Note_off_c, 0, 60, 62
1, 1797993, Poly_aftertouch_c, 0, 60, 0
1, 1797994, Note_off_c, 0, 56, 62
1, 1798002, Note_off_c, 0, 32, 58
1, 1798335, Control_c, 0, 67, 38
1, 1798337, Note_on_c, 0, 61, 88
1, 1798342, Note_on_c, 0, 56, 83
1, 1798344, Note_on_c, 0, 53, 81
1, 1798348, Note_on_c, 0, 37, 99
1, 1798351, Note_on_c, 0, 25, 91
1, 1798355, Control_c, 0, 64, 69
1, 1798356, Control_c, 0, 67, 34
1, 1798373, Control_c, 0, 64, 127
1, 1798375, Control_c, 0, 67, 28
1, 1798377, Note_off_c, 0, 53, 68
1, 1798391, Note_off_c, 0, 25, 65
1, 1798392, Note_off_c, 0, 37, 59
1, 1798392, Control_c, 0, 67, 21
1, 1798395, Note_off_c, 0, 61, 66
1, 1798395, Poly_aftertouch_c, 0, 61, 0
1, 1798405, Note_off_c, 0, 56, 63
1, 1798636, Control_c, 0, 64, 73
1, 1798654, Control_c, 0, 64, 0
1, 1798656, Control_c, 0, 67, 14
1, 1798714, Note_on_c, 0, 60, 69
1, 1798715, Note_on_c, 0, 27, 77
1, 1798716, Note_on_c, 0, 39, 81
1, 1798717, Note_on_c, 0, 49, 80
1, 1798724, Note_on_c, 0, 55, 65
1, 1798759, Note_off_c, 0, 60, 61
1, 1798759, Poly_aftertouch_c, 0, 60, 0
1, 1798762, Note_off_c, 0, 39, 63
1, 1798765, Note_off_c, 0, 49, 60
1, 1798765, Poly_aftertouch_c, 0, 49, 0
1, 1798773, Note_on_c, 0, 58, 33
1, 1798778, Note_off_c, 0, 27, 61
1, 1798811, Note_off_c, 0, 55, 60
1, 1798811, Poly_aftertouch_c, 0, 55, 0
1, 1798815, Note_off_c, 0, 58, 51
1, 1798881, Note_on_c, 0, 58, 77
1, 1798883, Note_on_c, 0, 49, 77
1, 1798883, Note_on_c, 0, 39, 87
1, 1798884, Note_on_c, 0, 27, 84
1, 1798890, Note_on_c, 0, 55, 47
1, 1798896, Control_c, 0, 67, 8
1, 1798917, Note_off_c, 0, 39, 64
1, 1798922, Note_off_c, 0, 27, 68
1, 1798945, Note_off_c, 0, 49, 50
1, 1798945, Poly_aftertouch_c, 0, 49, 0
1, 1798947, Note_off_c, 0, 55, 63
1, 1798947, Poly_aftertouch_c, 0, 55, 0
1, 1798973, Note_off_c, 0, 58, 59
1, 1799066, Note_on_c, 0, 48, 87
1, 1799067, Note_on_c, 0, 56, 83
1, 1799069, Note_on_c, 0, 44, 94
1, 1799075, Note_on_c, 0, 32, 89
1, 1799096, Note_off_c, 0, 48, 70
1, 1799096, Poly_aftertouch_c, 0, 48, 0
1, 1799104, Note_off_c, 0, 44, 65
1, 1799108, Note_off_c, 0, 32, 68
1, 1799109, Note_off_c, 0, 56, 64
1, 1799333, Note_on_c, 0, 51, 69
1, 1799342, Note_on_c, 0, 58, 66
1, 1799347, Note_on_c, 0, 32, 78
1, 1799367, Note_off_c, 0, 51, 65
1, 1799405, Note_off_c, 0, 32, 59
1, 1799405, Note_on_c, 0, 60, 84
1, 1799407, Note_on_c, 0, 56, 83
1, 1799417, Note_on_c, 0, 44, 88
1, 1799431, Note_off_c, 0, 58, 63
1, 1799445, Note_off_c, 0, 60, 67
1, 1799445, Poly_aftertouch_c, 0, 60, 0
1, 1799452, Note_off_c, 0, 56, 65
1, 1799454, Note_off_c, 0, 44, 67
1, 1799458, Control_c, 0, 64, 47
1, 1799476, Control_c, 0, 64, 78
1, 1799496, Control_c, 0, 64, 81
1, 1799514, Control_c, 0, 64, 78
1, 1799571, Control_c, 0, 64, 75
1, 1799588, Control_c, 0, 64, 67
1, 1799608, Control_c, 0, 64, 34
1, 1799610, Control_c, 0, 67, 0
1, 1799627, Control_c, 0, 64, 0
1, 1799946, Note_on_c, 0, 56, 86
1, 1800163, Note_on_c, 0, 66, 88
1, 1800166, Note_on_c, 0, 58, 85
1, 1800168, Note_on_c, 0, 61, 83
1, 1800179, Note_on_c, 0, 42, 99
1, 1800183, Note_on_c, 0, 30, 91
1, 1800185, Note_off_c, 0, 56, 68
1, 1800200, Note_off_c, 0, 61, 67
1, 1800200, Poly_aftertouch_c, 0, 61, 0
1, 1800202, Note_off_c, 0, 58, 64
1, 1800217, Note_off_c, 0, 66, 67
1, 1800217, Poly_aftertouch_c, 0, 66, 0
1, 1800240, Note_on_c, 0, 29, 32
1, 1800298, Note_off_c, 0, 29, 31
1, 1800560, Note_on_c, 0, 70, 93
1, 1800560, Note_on_c, 0, 58, 97
1, 1800561, Note_on_c, 0, 66, 84
1, 1800596, Note_off_c, 0, 30, 60
1, 1800609, Note_off_c, 0, 42, 61
1, 1800743, Note_off_c, 0, 70, 63
1, 1800749, Note_on_c, 0, 44, 102
1, 1800755, Note_on_c, 0, 32, 95
1, 1800773, Note_off_c, 0, 58, 64
1, 1800786, Control_c, 0, 64, 107
1, 1800804, Control_c, 0, 64, 127
1, 1800879, Control_c, 0, 64, 109
1, 1800892, Note_off_c, 0, 66, 32
1, 1800892, Poly_aftertouch_c, 0, 66, 0
1, 1800893, Note_on_c, 0, 65, 75
1, 1800897, Note_on_c, 0, 56, 89
1, 1800899, Control_c, 0, 64, 68
1, 1800901, Note_on_c, 0, 68, 81
1, 1800907, Poly_aftertouch_c, 0, 31, 0
1, 1800918, Control_c, 0, 64, 0
1, 1800944, Note_off_c, 0, 68, 63
1, 1800957, Note_off_c, 0, 56, 60
1, 1800957, Note_off_c, 0, 65, 62
1, 1801058, Note_on_c, 0, 66, 80
1, 1801059, Note_on_c, 0, 54, 90
1, 1801071, Note_on_c, 0, 63, 72
1, 1801103, Note_off_c, 0, 54, 57
1, 1801107, Note_off_c, 0, 63, 67
1, 1801125, Note_off_c, 0, 66, 61
1, 1801125, Poly_aftertouch_c, 0, 66, 0
1, 1801131, Note_off_c, 0, 32, 58
1, 1801148, Note_off_c, 0, 44, 60
1, 1801241, Note_on_c, 0, 53, 93
1, 1801242, Note_on_c, 0, 65, 89
1, 1801251, Note_on_c, 0, 61, 78
1, 1801256, Note_on_c, 0, 46, 102
1, 1801262, Note_on_c, 0, 34, 91
1, 1801276, Note_off_c, 0, 65, 63
1, 1801278, Note_off_c, 0, 53, 64
1, 1801281, Note_off_c, 0, 61, 72
1, 1801281, Poly_aftertouch_c, 0, 61, 0
1, 1801495, Note_on_c, 0, 60, 70
1, 1801495, Note_on_c, 0, 51, 70
1, 1801497, Note_on_c, 0, 63, 68
1, 1801530, Note_off_c, 0, 51, 64
1, 1801532, Note_off_c, 0, 60, 65
1, 1801532, Poly_aftertouch_c, 0, 60, 0
1, 1801536, Note_off_c, 0, 63, 64
1, 1801569, Note_on_c, 0, 61, 83
1, 1801576, Note_on_c, 0, 58, 85
1, 1801577, Note_on_c, 0, 49, 90
1, 1801628, Note_on_c, 0, 62, 9
1, 1801629, Note_off_c, 0, 62, 127
1, 1801636, Note_off_c, 0, 49, 57
1, 1801636, Poly_aftertouch_c, 0, 49, 0
1, 1801662, Note_off_c, 0, 61, 63
1, 1801662, Poly_aftertouch_c, 0, 61, 0
1, 1801664, Note_off_c, 0, 58, 61
1, 1801670, Note_off_c, 0, 46, 57
1, 1801680, Note_off_c, 0, 34, 61
1, 1801783, Note_on_c, 0, 48, 98
1, 1801788, Note_on_c, 0, 36, 89
1, 1801852, Control_c, 0, 64, 33
1, 1801869, Control_c, 0, 64, 82
1, 1801889, Control_c, 0, 64, 95
1, 1801908, Control_c, 0, 64, 103
1, 1802094, Control_c, 0, 64, 107
1, 1802113, Note_on_c, 0, 63, 80
1, 1802113, Note_on_c, 0, 56, 78
1, 1802116, Note_on_c, 0, 51, 85
1, 1802132, Control_c, 0, 64, 112
1, 1802139, Note_off_c, 0, 36, 57
1, 1802139, Poly_aftertouch_c, 0, 36, 0
1, 1802151, Control_c, 0, 64, 118
1, 1802169, Control_c, 0, 64, 127
1, 1802170, Note_off_c, 0, 48, 55
1, 1802170, Poly_aftertouch_c, 0, 48, 0
1, 1802190, Note_off_c, 0, 51, 61
1, 1802219, Note_off_c, 0, 56, 59
1, 1802221, Note_off_c, 0, 63, 59
1, 1802226, Control_c, 0, 64, 113
1, 1802245, Control_c, 0, 64, 61
1, 1802263, Control_c, 0, 64, 0
1, 1802285, Note_on_c, 0, 65, 89
1, 1802289, Note_on_c, 0, 53, 83
1, 1802290, Note_on_c, 0, 61, 85
1, 1802305, Note_on_c, 0, 49, 104
1, 1802308, Note_on_c, 0, 37, 89
1, 1802319, Note_off_c, 0, 53, 69
1, 1802341, Note_off_c, 0, 61, 63
1, 1802341, Poly_aftertouch_c, 0, 61, 0
1, 1802345, Note_off_c, 0, 65, 65
1, 1802651, Note_on_c, 0, 65, 99
1, 1802653, Note_on_c, 0, 77, 98
1, 1802657, Note_on_c, 0, 73, 91
1, 1802700, Note_off_c, 0, 37, 60
1, 1802704, Note_off_c, 0, 49, 59
1, 1802704, Poly_aftertouch_c, 0, 49, 0
1, 1802766, Poly_aftertouch_c, 0, 74, 0
1, 1802790, Poly_aftertouch_c, 0, 75, 127
1, 1802791, Poly_aftertouch_c, 0, 75, 0
1, 1802793, Note_off_c, 0, 77, 63
1, 1802800, Note_off_c, 0, 73, 59
1, 1802802, Note_off_c, 0, 65, 62
1, 1802804, Control_c, 0, 64, 104
1, 1802824, Control_c, 0, 64, 127
1, 1802838, Note_on_c, 0, 51, 99
1, 1802846, Note_on_c, 0, 39, 90
1, 1802936, Control_c, 0, 64, 85
1, 1802956, Control_c, 0, 64, 0
1, 1802986, Note_on_c, 0, 75, 83
1, 1802989, Note_on_c, 0, 63, 88
1, 1802991, Note_on_c, 0, 72, 78
1, 1803046, Note_off_c, 0, 75, 62
1, 1803050, Note_off_c, 0, 63, 60
1, 1803056, Note_off_c, 0, 72, 61
1, 1803151, Note_on_c, 0, 61, 93
1, 1803154, Note_on_c, 0, 73, 86
1, 1803156, Note_on_c, 0, 70, 79
1, 1803213, Note_off_c, 0, 61, 62
1, 1803213, Poly_aftertouch_c, 0, 61, 0
1, 1803215, Note_off_c, 0, 70, 57
1, 1803217, Note_off_c, 0, 73, 61
1, 1803217, Note_off_c, 0, 51, 59
1, 1803233, Note_off_c, 0, 39, 61
1, 1803340, Note_on_c, 0, 60, 97
1, 1803342, Note_on_c, 0, 72, 93
1, 1803343, Note_on_c, 0, 53, 97
1, 1803348, Note_on_c, 0, 68, 82
1, 1803352, Note_on_c, 0, 41, 88
1, 1803384, Note_off_c, 0, 68, 67
1, 1803387, Note_off_c, 0, 60, 67
1, 1803387, Poly_aftertouch_c, 0, 60, 0
1, 1803391, Note_off_c, 0, 72, 61
1, 1803581, Note_on_c, 0, 67, 71
1, 1803587, Note_on_c, 0, 58, 70
1, 1803595, Note_on_c, 0, 70, 68
1, 1803623, Note_off_c, 0, 58, 66
1, 1803662, Note_on_c, 0, 68, 83
1, 1803662, Note_on_c, 0, 56, 95
1, 1803666, Note_on_c, 0, 65, 82
1, 1803678, Note_off_c, 0, 70, 65
1, 1803703, Note_on_c, 0, 66, 33
1, 1803717, Note_off_c, 0, 67, 62
1, 1803717, Poly_aftertouch_c, 0, 67, 0
1, 1803718, Poly_aftertouch_c, 0, 67, 0
1, 1803719, Note_off_c, 0, 56, 65
1, 1803731, Note_off_c, 0, 66, 36
1, 1803731, Poly_aftertouch_c, 0, 66, 0
1, 1803736, Note_off_c, 0, 65, 64
1, 1803750, Note_off_c, 0, 41, 59
1, 1803754, Note_off_c, 0, 68, 62
1, 1803765, Note_off_c, 0, 53, 56
1, 1803888, Note_on_c, 0, 55, 96
1, 1803892, Note_on_c, 0, 43, 87
1, 1803908, Control_c, 0, 64, 18
1, 1803928, Control_c, 0, 64, 67
1, 1803946, Control_c, 0, 64, 89
1, 1803965, Control_c, 0, 64, 110
1, 1803983, Control_c, 0, 64, 127
1, 1804091, Poly_aftertouch_c, 0, 70, 127
1, 1804112, Poly_aftertouch_c, 0, 70, 0
1, 1804190, Control_c, 0, 64, 113
1, 1804208, Note_on_c, 0, 70, 87
1, 1804208, Note_on_c, 0, 63, 82
1, 1804208, Note_on_c, 0, 58, 85
1, 1804208, Control_c, 0, 64, 73
1, 1804226, Control_c, 0, 64, 27
1, 1804245, Note_off_c, 0, 43, 56
1, 1804245, Control_c, 0, 64, 23
1, 1804264, Control_c, 0, 64, 57
1, 1804273, Note_off_c, 0, 55, 56
1, 1804273, Poly_aftertouch_c, 0, 55, 0
1, 1804282, Control_c, 0, 64, 81
1, 1804288, Note_off_c, 0, 58, 62
1, 1804301, Control_c, 0, 64, 110
1, 1804320, Control_c, 0, 64, 127
1, 1804327, Note_off_c, 0, 70, 62
1, 1804327, Note_off_c, 0, 63, 57
1, 1804402, Note_on_c, 0, 72, 80
1, 1804403, Note_on_c, 0, 68, 85
1, 1804413, Note_on_c, 0, 74, 87
1, 1804415, Note_on_c, 0, 56, 104
1, 1804423, Note_on_c, 0, 44, 88
1, 1804429, Note_on_c, 0, 60, 42
1, 1804433, Control_c, 0, 64, 69
1, 1804437, Note_off_c, 0, 74, 67
1, 1804437, Note_on_c, 0, 62, 39
1, 1804447, Note_off_c, 0, 68, 62
1, 1804449, Control_c, 0, 64, 0
1, 1804455, Note_off_c, 0, 72, 66
1, 1804464, Note_off_c, 0, 60, 38
1, 1804464, Poly_aftertouch_c, 0, 60, 0
1, 1804480, Note_off_c, 0, 62, 37
1, 1804736, Note_on_c, 0, 72, 98
1, 1804737, Note_on_c, 0, 84, 98
1, 1804738, Note_on_c, 0, 80, 89
1, 1804808, Note_off_c, 0, 56, 54
1, 1804814, Note_off_c, 0, 44, 57
1, 1804859, Note_off_c, 0, 80, 66
1, 1804870, Note_off_c, 0, 84, 64
1, 1804891, Note_off_c, 0, 72, 62
1, 1804932, Note_on_c, 0, 57, 96
1, 1804935, Note_on_c, 0, 45, 89
1, 1805012, Control_c, 0, 64, 97
1, 1805031, Control_c, 0, 64, 127
1, 1805081, Note_on_c, 0, 80, 86
1, 1805086, Note_on_c, 0, 77, 80
1, 1805087, Note_on_c, 0, 68, 87
1, 1805142, Note_off_c, 0, 80, 64
1, 1805144, Note_off_c, 0, 68, 63
1, 1805144, Note_off_c, 0, 77, 62
1, 1805238, Note_on_c, 0, 66, 92
1, 1805241, Note_on_c, 0, 78, 86
1, 1805245, Note_on_c, 0, 75, 82
1, 1805288, Note_off_c, 0, 45, 58
1, 1805300, Note_off_c, 0, 57, 58
1, 1805305, Note_off_c, 0, 66, 62
1, 1805305, Poly_aftertouch_c, 0, 66, 0
1, 1805307, Note_off_c, 0, 78, 61
1, 1805311, Note_off_c, 0, 75, 63
1, 1805329, Control_c, 0, 64, 112
1, 1805349, Control_c, 0, 64, 69
1, 1805367, Control_c, 0, 64, 0
1, 1805374, Poly_aftertouch_c, 0, 53, 0
1, 1805376, Poly_aftertouch_c, 0, 53, 0
1, 1805418, Note_on_c, 0, 65, 96
1, 1805418, Note_on_c, 0, 77, 96
1, 1805421, Note_on_c, 0, 58, 105
1, 1805421, Note_on_c, 0, 73, 91
1, 1805431, Note_on_c, 0, 46, 88
1, 1805441, Note_off_c, 0, 65, 65
1, 1805474, Note_off_c, 0, 77, 64
1, 1805477, Note_off_c, 0, 73, 66
1, 1805514, Poly_aftertouch_c, 0, 75, 0
1, 1805516, Poly_aftertouch_c, 0, 53, 0
1, 1805743, Note_on_c, 0, 77, 100
1, 1805744, Note_on_c, 0, 89, 98
1, 1805744, Note_on_c, 0, 85, 89
1, 1805861, Note_off_c, 0, 58, 56
1, 1805878, Note_off_c, 0, 46, 59
1, 1805942, Note_on_c, 0, 59, 101
1, 1805949, Note_on_c, 0, 47, 91
1, 1805957, Note_off_c, 0, 85, 63
1, 1805959, Note_off_c, 0, 89, 63
1, 1805959, Poly_aftertouch_c, 0, 89, 0
1, 1805984, Control_c, 0, 64, 79
1, 1805991, Note_off_c, 0, 77, 62
1, 1806003, Control_c, 0, 64, 127
1, 1806095, Poly_aftertouch_c, 0, 49, 0
1, 1806152, Control_c, 0, 64, 79
1, 1806170, Control_c, 0, 64, 0
1, 1806209, Control_c, 0, 64, 35
1, 1806227, Control_c, 0, 64, 85
1, 1806241, Note_on_c, 0, 85, 89
1, 1806241, Note_on_c, 0, 73, 99
1, 1806244, Control_c, 0, 64, 127
1, 1806246, Note_on_c, 0, 80, 86
1, 1806250, Note_off_c, 0, 47, 56
1, 1806252, Note_on_c, 0, 77, 79
1, 1806285, Note_off_c, 0, 59, 49
1, 1806336, Note_off_c, 0, 73, 52
1, 1806348, Note_off_c, 0, 85, 61
1, 1806380, Note_off_c, 0, 80, 57
1, 1806388, Note_off_c, 0, 77, 47
1, 1806394, Note_on_c, 0, 53, 61
1, 1806397, Note_on_c, 0, 48, 69
1, 1806412, Note_on_c, 0, 56, 69
1, 1806452, Control_c, 0, 64, 78
1, 1806471, Control_c, 0, 64, 0
1, 1806484, Note_on_c, 0, 60, 96
1, 1806499, Note_on_c, 0, 72, 102
1, 1806501, Note_on_c, 0, 84, 98
1, 1806501, Note_on_c, 0, 80, 96
1, 1806502, Note_off_c, 0, 48, 47
1, 1806502, Poly_aftertouch_c, 0, 48, 0
1, 1806506, Control_c, 0, 64, 19
1, 1806508, Note_on_c, 0, 77, 91
1, 1806522, Note_off_c, 0, 53, 61
1, 1806526, Note_off_c, 0, 60, 68
1, 1806526, Poly_aftertouch_c, 0, 60, 0
1, 1806526, Control_c, 0, 64, 76
1, 1806529, Note_off_c, 0, 56, 65
1, 1806539, Note_off_c, 0, 72, 69
1, 1806544, Control_c, 0, 64, 126
1, 1806561, Note_off_c, 0, 77, 59
1, 1806571, Note_off_c, 0, 80, 65
1, 1806588, Note_off_c, 0, 84, 68
1, 1806751, Control_c, 0, 64, 103
1, 1806768, Control_c, 0, 64, 49
1, 1806790, Control_c, 0, 64, 0
1, 1806805, Note_on_c, 0, 84, 89
1, 1806809, Note_on_c, 0, 36, 85
1, 1806809, Control_c, 0, 64, 35
1, 1806826, Control_c, 0, 64, 84
1, 1806844, Control_c, 0, 64, 127
1, 1806882, Note_off_c, 0, 84, 61
1, 1806892, Note_on_c, 0, 96, 83
1, 1806898, Note_on_c, 0, 92, 74
1, 1806982, Note_on_c, 0, 48, 98
1, 1806982, Note_on_c, 0, 94, 83
1, 1806988, Note_on_c, 0, 91, 77
1, 1806999, Note_off_c, 0, 96, 59
1, 1807039, Note_off_c, 0, 92, 64
1, 1807047, Note_off_c, 0, 91, 65
1, 1807049, Control_c, 0, 67, 9
1, 1807060, Note_off_c, 0, 94, 65
1, 1807065, Note_on_c, 0, 82, 88
1, 1807112, Note_off_c, 0, 82, 65
1, 1807125, Control_c, 0, 67, 14
1, 1807162, Control_c, 0, 67, 22
1, 1807169, Note_on_c, 0, 80, 91
1, 1807181, Control_c, 0, 67, 26
1, 1807199, Control_c, 0, 67, 30
1, 1807218, Control_c, 0, 67, 35
1, 1807236, Control_c, 0, 67, 41
1, 1807252, Note_on_c, 0, 92, 70
1, 1807254, Note_off_c, 0, 80, 61
1, 1807256, Control_c, 0, 67, 47
1, 1807262, Note_on_c, 0, 90, 54
1, 1807263, Note_off_c, 0, 90, 127
1, 1807268, Note_on_c, 0, 89, 81
1, 1807274, Control_c, 0, 67, 53
1, 1807281, Note_off_c, 0, 92, 70
1, 1807294, Control_c, 0, 67, 59
1, 1807311, Control_c, 0, 67, 65
1, 1807329, Note_on_c, 0, 91, 54
1, 1807329, Control_c, 0, 67, 69
1, 1807337, Note_on_c, 0, 87, 80
1, 1807353, Note_off_c, 0, 89, 57
1, 1807353, Poly_aftertouch_c, 0, 89, 0
1, 1807369, Control_c, 0, 67, 73
1, 1807377, Note_off_c, 0, 36, 61
1, 1807377, Poly_aftertouch_c, 0, 36, 0
1, 1807407, Note_off_c, 0, 91, 65
1, 1807419, Note_on_c, 0, 79, 88
1, 1807421, Note_off_c, 0, 87, 62
1, 1807425, Note_off_c, 0, 48, 64
1, 1807425, Poly_aftertouch_c, 0, 48, 0
1, 1807468, Note_off_c, 0, 79, 63
1, 1807499, Control_c, 0, 67, 69
1, 1807525, Note_on_c, 0, 77, 90
1, 1807555, Control_c, 0, 67, 64
1, 1807591, Note_off_c, 0, 77, 55
1, 1807591, Control_c, 0, 67, 59
1, 1807599, Note_on_c, 0, 89, 65
1, 1807601, Note_on_c, 0, 85, 83
1, 1807630, Control_c, 0, 67, 55
1, 1807667, Control_c, 0, 67, 49
1, 1807678, Note_off_c, 0, 89, 61
1, 1807678, Poly_aftertouch_c, 0, 89, 0
1, 1807685, Note_on_c, 0, 84, 60
1, 1807690, Note_on_c, 0, 87, 72
1, 1807704, Control_c, 0, 67, 42
1, 1807723, Control_c, 0, 67, 37
1, 1807730, Note_off_c, 0, 85, 62
1, 1807740, Control_c, 0, 67, 30
1, 1807745, Note_on_c, 0, 75, 91
1, 1807746, Note_off_c, 0, 87, 62
1, 1807757, Note_off_c, 0, 84, 65
1, 1807759, Control_c, 0, 67, 20
1, 1807778, Control_c, 0, 67, 8
1, 1807795, Note_off_c, 0, 75, 65
1, 1807817, Control_c, 0, 64, 120
1, 1807818, Control_c, 0, 67, 0
1, 1807836, Control_c, 0, 64, 69
1, 1807849, Note_on_c, 0, 52, 75
1, 1807856, Note_on_c, 0, 55, 70
1, 1807856, Control_c, 0, 64, 51
1, 1807868, Note_on_c, 0, 73, 86
1, 1807873, Control_c, 0, 64, 84
1, 1807893, Control_c, 0, 64, 127
1, 1807934, Note_on_c, 0, 85, 57
1, 1807942, Note_off_c, 0, 73, 64
1, 1807943, Note_on_c, 0, 82, 80
1, 1807954, Note_off_c, 0, 52, 61
1, 1807963, Note_off_c, 0, 55, 58
1, 1807963, Poly_aftertouch_c, 0, 55, 0
1, 1807993, Note_off_c, 0, 85, 64
1, 1808018, Note_on_c, 0, 80, 78
1, 1808024, Note_on_c, 0, 56, 89
1, 1808033, Note_on_c, 0, 53, 82
1, 1808040, Note_on_c, 0, 84, 77
1, 1808040, Control_c, 0, 64, 68
1, 1808051, Note_off_c, 0, 82, 61
1, 1808058, Control_c, 0, 64, 47
1, 1808078, Control_c, 0, 64, 81
1, 1808093, Note_off_c, 0, 80, 64
1, 1808097, Control_c, 0, 64, 127
1, 1808102, Note_off_c, 0, 84, 65
1, 1808109, Note_on_c, 0, 72, 87
1, 1808134, Note_off_c, 0, 56, 58
1, 1808140, Note_off_c, 0, 53, 59
1, 1808157, Note_off_c, 0, 72, 62
1, 1808183, Note_on_c, 0, 58, 96
1, 1808187, Note_on_c, 0, 55, 88
1, 1808210, Control_c, 0, 64, 120
1, 1808225, Note_on_c, 0, 79, 47
1, 1808231, Note_on_c, 0, 70, 88
1, 1808246, Control_c, 0, 64, 127
1, 1808252, Note_off_c, 0, 58, 61
1, 1808263, Note_off_c, 0, 55, 61
1, 1808263, Poly_aftertouch_c, 0, 55, 0
1, 1808306, Note_on_c, 0, 82, 57
1, 1808311, Note_off_c, 0, 70, 63
1, 1808320, Note_off_c, 0, 79, 64
1, 1808320, Note_on_c, 0, 79, 26
1, 1808337, Note_on_c, 0, 77, 67
1, 1808339, Note_on_c, 0, 56, 91
1, 1808340, Note_on_c, 0, 80, 72
1, 1808340, Note_on_c, 0, 60, 95
1, 1808377, Note_off_c, 0, 82, 62
1, 1808378, Note_off_c, 0, 79, 62
1, 1808398, Note_off_c, 0, 60, 65
1, 1808398, Poly_aftertouch_c, 0, 60, 0
1, 1808410, Note_on_c, 0, 68, 87
1, 1808423, Note_off_c, 0, 77, 62
1, 1808427, Note_off_c, 0, 56, 60
1, 1808456, Note_off_c, 0, 80, 45
1, 1808476, Note_off_c, 0, 68, 66
1, 1808490, Control_c, 0, 64, 118
1, 1808508, Control_c, 0, 64, 52
1, 1808519, Note_on_c, 0, 58, 97
1, 1808521, Note_on_c, 0, 61, 95
1, 1808526, Control_c, 0, 64, 0
1, 1808532, Note_on_c, 0, 76, 84
1, 1808536, Note_on_c, 0, 67, 97
1, 1808537, Note_on_c, 0, 79, 92
1, 1808545, Control_c, 0, 64, 61
1, 1808552, Note_off_c, 0, 61, 69
1, 1808552, Poly_aftertouch_c, 0, 61, 0
1, 1808565, Control_c, 0, 64, 121
1, 1808569, Note_off_c, 0, 58, 60
1, 1808577, Note_off_c, 0, 67, 62
1, 1808583, Control_c, 0, 64, 127
1, 1808586, Note_off_c, 0, 76, 67
1, 1808594, Note_on_c, 0, 78, 22
1, 1808597, Note_off_c, 0, 79, 61
1, 1808650, Note_off_c, 0, 78, 49
1, 1808676, Control_c, 0, 64, 102
1, 1808696, Control_c, 0, 64, 49
1, 1808713, Control_c, 0, 64, 0
1, 1808770, Note_on_c, 0, 78, 37
1, 1808809, Note_off_c, 0, 78, 53
1, 1808815, Poly_aftertouch_c, 0, 75, 0
1, 1808822, Note_on_c, 0, 66, 74
1, 1808826, Control_c, 0, 64, 88
1, 1808837, Note_on_c, 0, 45, 75
1, 1808845, Note_on_c, 0, 33, 75
1, 1808845, Control_c, 0, 64, 127
1, 1808869, Note_off_c, 0, 45, 65
1, 1808874, Note_off_c, 0, 66, 60
1, 1808874, Poly_aftertouch_c, 0, 66, 0
1, 1808877, Note_off_c, 0, 33, 64
1, 1808895, Note_on_c, 0, 78, 78
1, 1808907, Note_on_c, 0, 75, 63
1, 1808919, Control_c, 0, 64, 104
1, 1808923, Note_off_c, 0, 78, 70
1, 1808938, Control_c, 0, 64, 44
1, 1808957, Control_c, 0, 64, 0
1, 1808976, Control_c, 0, 64, 68
1, 1808981, Note_on_c, 0, 73, 64
1, 1808993, Note_on_c, 0, 77, 72
1, 1808994, Control_c, 0, 64, 127
1, 1809008, Note_off_c, 0, 75, 61
1, 1809027, Note_on_c, 0, 46, 92
1, 1809028, Note_on_c, 0, 34, 89
1, 1809042, Note_off_c, 0, 73, 63
1, 1809046, Note_off_c, 0, 77, 61
1, 1809050, Control_c, 0, 64, 123
1, 1809057, Note_on_c, 0, 65, 85
1, 1809063, Note_off_c, 0, 46, 66
1, 1809069, Control_c, 0, 64, 73
1, 1809071, Note_off_c, 0, 34, 63
1, 1809088, Control_c, 0, 64, 50
1, 1809107, Control_c, 0, 64, 78
1, 1809123, Note_off_c, 0, 65, 65
1, 1809125, Control_c, 0, 64, 126
1, 1809174, Note_on_c, 0, 48, 92
1, 1809181, Note_on_c, 0, 36, 88
1, 1809183, Note_on_c, 0, 63, 72
1, 1809183, Control_c, 0, 64, 96
1, 1809200, Control_c, 0, 64, 62
1, 1809218, Note_off_c, 0, 63, 65
1, 1809219, Control_c, 0, 64, 77
1, 1809220, Note_off_c, 0, 36, 66
1, 1809220, Poly_aftertouch_c, 0, 36, 0
1, 1809227, Note_off_c, 0, 48, 62
1, 1809227, Poly_aftertouch_c, 0, 48, 0
1, 1809238, Note_on_c, 0, 72, 70
1, 1809238, Control_c, 0, 64, 120
1, 1809240, Note_on_c, 0, 75, 72
1, 1809255, Control_c, 0, 64, 127
1, 1809317, Note_off_c, 0, 75, 63
1, 1809326, Note_on_c, 0, 70, 79
1, 1809328, Note_on_c, 0, 73, 73
1, 1809337, Note_on_c, 0, 37, 72
1, 1809343, Note_on_c, 0, 49, 95
1, 1809359, Note_off_c, 0, 72, 59
1, 1809381, Note_off_c, 0, 49, 60
1, 1809405, Note_off_c, 0, 70, 67
1, 1809410, Note_off_c, 0, 37, 60
1, 1809411, Note_on_c, 0, 61, 82
1, 1809421, Note_off_c, 0, 73, 61
1, 1809462, Note_off_c, 0, 61, 65
1, 1809462, Poly_aftertouch_c, 0, 61, 0
1, 1809481, Control_c, 0, 64, 71
1, 1809488, Poly_aftertouch_c, 0, 39, 0
1, 1809500, Control_c, 0, 64, 0
1, 1809513, Note_on_c, 0, 51, 100
1, 1809517, Control_c, 0, 64, 51
1, 1809523, Note_on_c, 0, 60, 77
1, 1809534, Note_off_c, 0, 51, 74
1, 1809535, Control_c, 0, 64, 80
1, 1809542, Poly_aftertouch_c, 0, 39, 0
1, 1809556, Control_c, 0, 64, 110
1, 1809560, Note_on_c, 0, 72, 38
1, 1809574, Control_c, 0, 64, 127
1, 1809616, Note_on_c, 0, 68, 74
1, 1809621, Note_off_c, 0, 60, 60
1, 1809621, Poly_aftertouch_c, 0, 60, 0
1, 1809640, Note_on_c, 0, 70, 74
1, 1809672, Note_off_c, 0, 72, 59
1, 1809688, Note_on_c, 0, 66, 66
1, 1809693, Note_off_c, 0, 68, 64
1, 1809709, Poly_aftertouch_c, 0, 62, 0
1, 1809713, Note_off_c, 0, 70, 66
1, 1809724, Note_off_c, 0, 66, 69
1, 1809724, Poly_aftertouch_c, 0, 66, 0
1, 1809756, Note_on_c, 0, 58, 85
1, 1809816, Note_off_c, 0, 58, 62
1, 1809854, Control_c, 0, 64, 101
1, 1809872, Control_c, 0, 64, 64
1, 1809874, Note_on_c, 0, 72, 86
1, 1809889, Note_on_c, 0, 56, 84
1, 1809891, Control_c, 0, 64, 65
1, 1809908, Note_on_c, 0, 68, 33
1, 1809909, Control_c, 0, 64, 84
1, 1809929, Control_c, 0, 64, 120
1, 1809949, Control_c, 0, 64, 127
1, 1809953, Note_off_c, 0, 68, 56
1, 1809999, Note_off_c, 0, 56, 61
1, 1810013, Poly_aftertouch_c, 0, 65, 127
1, 1810021, Control_c, 0, 64, 112
1, 1810024, Note_on_c, 0, 63, 76
1, 1810030, Note_on_c, 0, 64, 19
1, 1810042, Control_c, 0, 64, 58
1, 1810045, Note_on_c, 0, 75, 84
1, 1810059, Note_on_c, 0, 68, 37
1, 1810059, Control_c, 0, 64, 0
1, 1810062, Note_off_c, 0, 72, 65
1, 1810098, Control_c, 0, 64, 48
1, 1810100, Poly_aftertouch_c, 0, 65, 0
1, 1810103, Note_off_c, 0, 64, 28
1, 1810106, Note_off_c, 0, 68, 53
1, 1810117, Note_on_c, 0, 54, 72
1, 1810117, Control_c, 0, 64, 88
1, 1810128, Note_off_c, 0, 63, 63
1, 1810134, Control_c, 0, 64, 127
1, 1810161, Poly_aftertouch_c, 0, 66, 0
1, 1810174, Note_off_c, 0, 54, 62
1, 1810191, Control_c, 0, 64, 82
1, 1810209, Control_c, 0, 64, 0
1, 1810211, Note_off_c, 0, 75, 56
1, 1810211, Note_on_c, 0, 77, 93
1, 1810214, Note_on_c, 0, 53, 80
1, 1810223, Note_on_c, 0, 73, 80
1, 1810247, Control_c, 0, 64, 15
1, 1810265, Control_c, 0, 64, 73
1, 1810285, Control_c, 0, 64, 116
1, 1810291, Note_off_c, 0, 53, 63
1, 1810300, Note_on_c, 0, 65, 42
1, 1810302, Control_c, 0, 64, 127
1, 1810307, Note_on_c, 0, 74, 36
1, 1810322, Note_on_c, 0, 61, 75
1, 1810329, Note_off_c, 0, 77, 56
1, 1810352, Note_off_c, 0, 74, 48
1, 1810380, Note_on_c, 0, 78, 79
1, 1810382, Note_on_c, 0, 60, 64
1, 1810385, Note_on_c, 0, 75, 75
1, 1810386, Note_off_c, 0, 73, 39
1, 1810400, Note_on_c, 0, 63, 71
1, 1810415, Note_off_c, 0, 65, 61
1, 1810436, Note_off_c, 0, 61, 60
1, 1810436, Poly_aftertouch_c, 0, 61, 0
1, 1810453, Note_off_c, 0, 60, 64
1, 1810453, Poly_aftertouch_c, 0, 60, 0
1, 1810453, Control_c, 0, 64, 93
1, 1810466, Note_off_c, 0, 63, 63
1, 1810470, Note_off_c, 0, 75, 62
1, 1810472, Control_c, 0, 64, 33
1, 1810473, Note_off_c, 0, 78, 63
1, 1810478, Note_on_c, 0, 57, 74
1, 1810491, Control_c, 0, 64, 0
1, 1810510, Control_c, 0, 64, 21
1, 1810527, Note_on_c, 0, 77, 99
1, 1810527, Control_c, 0, 64, 74
1, 1810535, Note_on_c, 0, 73, 84
1, 1810540, Note_on_c, 0, 58, 88
1, 1810545, Note_on_c, 0, 61, 88
1, 1810547, Control_c, 0, 64, 119
1, 1810561, Note_on_c, 0, 75, 48
1, 1810563, Note_off_c, 0, 57, 63
1, 1810565, Control_c, 0, 64, 127
1, 1810568, Note_off_c, 0, 77, 63
1, 1810589, Note_off_c, 0, 73, 64
1, 1810591, Note_off_c, 0, 58, 67
1, 1810596, Note_off_c, 0, 75, 36
1, 1810611, Note_off_c, 0, 61, 64
1, 1810611, Poly_aftertouch_c, 0, 61, 0
1, 1810688, Poly_aftertouch_c, 0, 62, 127
1, 1810704, Poly_aftertouch_c, 0, 62, 0
1, 1810733, Control_c, 0, 64, 84
1, 1810752, Control_c, 0, 64, 26
1, 1810767, Note_on_c, 0, 73, 25
1, 1810770, Control_c, 0, 64, 0
1, 1810821, Note_off_c, 0, 73, 30
1, 1810864, Control_c, 0, 64, 82
1, 1810878, Note_on_c, 0, 42, 85
1, 1810881, Note_on_c, 0, 30, 82
1, 1810881, Control_c, 0, 64, 127
1, 1810891, Note_on_c, 0, 73, 69
1, 1810912, Note_off_c, 0, 42, 67
1, 1810924, Note_off_c, 0, 30, 63
1, 1810928, Note_off_c, 0, 73, 64
1, 1810945, Note_on_c, 0, 85, 77
1, 1810951, Note_on_c, 0, 82, 71
1, 1810977, Control_c, 0, 64, 85
1, 1810981, Note_off_c, 0, 85, 65
1, 1810995, Control_c, 0, 64, 0
1, 1811013, Control_c, 0, 64, 20
1, 1811029, Note_on_c, 0, 80, 73
1, 1811032, Control_c, 0, 64, 77
1, 1811043, Note_on_c, 0, 84, 72
1, 1811051, Control_c, 0, 64, 127
1, 1811054, Note_on_c, 0, 32, 92
1, 1811056, Note_on_c, 0, 44, 94
1, 1811082, Note_off_c, 0, 82, 62
1, 1811097, Note_off_c, 0, 44, 63
1, 1811102, Note_off_c, 0, 84, 64
1, 1811105, Note_off_c, 0, 80, 66
1, 1811111, Note_off_c, 0, 32, 59
1, 1811112, Note_on_c, 0, 72, 82
1, 1811126, Control_c, 0, 64, 93
1, 1811145, Control_c, 0, 64, 56
1, 1811164, Control_c, 0, 64, 76
1, 1811166, Note_off_c, 0, 72, 59
1, 1811183, Control_c, 0, 64, 127
1, 1811215, Note_on_c, 0, 70, 92
1, 1811221, Note_on_c, 0, 48, 95
1, 1811225, Note_on_c, 0, 36, 90
1, 1811270, Note_off_c, 0, 48, 66
1, 1811270, Poly_aftertouch_c, 0, 48, 0
1, 1811272, Note_off_c, 0, 36, 62
1, 1811272, Poly_aftertouch_c, 0, 36, 0
1, 1811274, Control_c, 0, 64, 84
1, 1811294, Control_c, 0, 64, 70
1, 1811305, Note_on_c, 0, 78, 76
1, 1811307, Note_off_c, 0, 70, 61
1, 1811312, Control_c, 0, 64, 106
1, 1811316, Note_on_c, 0, 82, 44
1, 1811331, Control_c, 0, 64, 127
1, 1811391, Note_on_c, 0, 80, 73
1, 1811392, Note_on_c, 0, 77, 62
1, 1811394, Note_on_c, 0, 49, 102
1, 1811398, Note_on_c, 0, 37, 95
1, 1811407, Control_c, 0, 64, 99
1, 1811421, Note_off_c, 0, 82, 62
1, 1811425, Control_c, 0, 64, 60
1, 1811441, Note_off_c, 0, 78, 64
1, 1811443, Note_off_c, 0, 49, 63
1, 1811444, Control_c, 0, 64, 70
1, 1811461, Note_on_c, 0, 68, 83
1, 1811463, Note_off_c, 0, 80, 63
1, 1811463, Control_c, 0, 64, 127
1, 1811464, Note_off_c, 0, 37, 58
1, 1811467, Note_off_c, 0, 77, 61
1, 1811511, Note_off_c, 0, 68, 62
1, 1811555, Control_c, 0, 64, 92
1, 1811575, Note_on_c, 0, 66, 91
1, 1811575, Control_c, 0, 64, 56
1, 1811579, Note_on_c, 0, 51, 101
1, 1811589, Note_on_c, 0, 39, 81
1, 1811593, Control_c, 0, 64, 62
1, 1811603, Note_off_c, 0, 51, 71
1, 1811611, Control_c, 0, 64, 95
1, 1811618, Note_off_c, 0, 39, 65
1, 1811630, Control_c, 0, 64, 127
1, 1811653, Note_on_c, 0, 78, 16
1, 1811662, Note_on_c, 0, 75, 81
1, 1811667, Note_off_c, 0, 66, 63
1, 1811667, Control_c, 0, 64, 86
1, 1811689, Control_c, 0, 64, 25
1, 1811706, Control_c, 0, 64, 0
1, 1811714, Note_off_c, 0, 78, 66
1, 1811723, Control_c, 0, 64, 49
1, 1811746, Control_c, 0, 64, 106
1, 1811755, Note_on_c, 0, 77, 71
1, 1811755, Note_on_c, 0, 73, 75
1, 1811764, Control_c, 0, 64, 127
1, 1811794, Note_off_c, 0, 75, 63
1, 1811813, Note_off_c, 0, 73, 66
1, 1811828, Note_off_c, 0, 77, 59
1, 1811839, Note_on_c, 0, 65, 79
1, 1811879, Note_off_c, 0, 65, 63
1, 1811931, Control_c, 0, 64, 111
1, 1811948, Control_c, 0, 64, 95
1, 1811967, Note_on_c, 0, 63, 85
1, 1811969, Note_on_c, 0, 78, 83
1, 1811969, Control_c, 0, 64, 117
1, 1811986, Control_c, 0, 64, 127
1, 1812055, Note_on_c, 0, 72, 66
1, 1812063, Note_on_c, 0, 75, 73
1, 1812073, Note_off_c, 0, 63, 60
1, 1812135, Control_c, 0, 64, 95
1, 1812152, Note_on_c, 0, 73, 77
1, 1812153, Control_c, 0, 64, 56
1, 1812162, Note_on_c, 0, 82, 89
1, 1812172, Note_off_c, 0, 75, 65
1, 1812172, Control_c, 0, 64, 49
1, 1812174, Note_on_c, 0, 70, 74
1, 1812185, Note_off_c, 0, 78, 63
1, 1812192, Control_c, 0, 64, 70
1, 1812211, Control_c, 0, 64, 102
1, 1812229, Control_c, 0, 64, 127
1, 1812264, Note_off_c, 0, 72, 50
1, 1812278, Note_on_c, 0, 61, 81
1, 1812282, Note_off_c, 0, 70, 66
1, 1812290, Note_off_c, 0, 73, 44
1, 1812299, Note_on_c, 0, 63, 43
1, 1812331, Note_off_c, 0, 61, 64
1, 1812331, Poly_aftertouch_c, 0, 61, 0
1, 1812340, Note_off_c, 0, 63, 54
1, 1812340, Control_c, 0, 64, 82
1, 1812355, Note_on_c, 0, 84, 81
1, 1812359, Control_c, 0, 64, 68
1, 1812364, Note_on_c, 0, 80, 78
1, 1812367, Note_off_c, 0, 82, 63
1, 1812379, Control_c, 0, 64, 92
1, 1812393, Note_on_c, 0, 60, 87
1, 1812396, Control_c, 0, 64, 127
1, 1812430, Note_on_c, 0, 72, 52
1, 1812472, Control_c, 0, 64, 94
1, 1812490, Control_c, 0, 64, 55
1, 1812497, Note_on_c, 0, 68, 74
1, 1812504, Note_off_c, 0, 60, 64
1, 1812504, Poly_aftertouch_c, 0, 60, 0
1, 1812509, Control_c, 0, 64, 58
1, 1812521, Note_off_c, 0, 80, 58
1, 1812528, Control_c, 0, 64, 85
1, 1812536, Note_on_c, 0, 70, 71
1, 1812546, Control_c, 0, 64, 127
1, 1812549, Note_on_c, 0, 82, 73
1, 1812558, Note_on_c, 0, 85, 82
1, 1812574, Note_off_c, 0, 72, 57
1, 1812591, Note_off_c, 0, 84, 64
1, 1812592, Note_on_c, 0, 66, 76
1, 1812601, Note_off_c, 0, 82, 66
1, 1812620, Note_off_c, 0, 68, 63
1, 1812625, Note_off_c, 0, 70, 67
1, 1812632, Note_off_c, 0, 85, 66
1, 1812642, Note_off_c, 0, 66, 68
1, 1812664, Note_on_c, 0, 58, 80
1, 1812716, Note_off_c, 0, 58, 62
1, 1812767, Poly_aftertouch_c, 0, 65, 0
1, 1812771, Control_c, 0, 64, 82
1, 1812788, Note_on_c, 0, 56, 84
1, 1812790, Control_c, 0, 64, 0
1, 1812792, Note_on_c, 0, 86, 84
1, 1812793, Note_on_c, 0, 83, 78
1, 1812866, Control_c, 0, 64, 73
1, 1812883, Control_c, 0, 64, 125
1, 1812892, Note_on_c, 0, 65, 77
1, 1812902, Note_off_c, 0, 56, 61
1, 1812943, Note_off_c, 0, 83, 61
1, 1812959, Control_c, 0, 64, 111
1, 1812978, Control_c, 0, 64, 59
1, 1812997, Control_c, 0, 64, 0
1, 1813007, Note_on_c, 0, 88, 89
1, 1813009, Note_on_c, 0, 67, 80
1, 1813014, Note_on_c, 0, 64, 65
1, 1813016, Note_off_c, 0, 86, 59
1, 1813016, Control_c, 0, 64, 23
1, 1813018, Note_on_c, 0, 84, 79
1, 1813033, Control_c, 0, 64, 70
1, 1813053, Control_c, 0, 64, 107
1, 1813054, Note_off_c, 0, 64, 65
1, 1813058, Note_off_c, 0, 65, 59
1, 1813071, Control_c, 0, 64, 127
1, 1813079, Note_off_c, 0, 67, 62
1, 1813087, Note_on_c, 0, 55, 80
1, 1813106, Note_off_c, 0, 88, 63
1, 1813113, Note_off_c, 0, 84, 61
1, 1813127, Control_c, 0, 64, 84
1, 1813130, Poly_aftertouch_c, 0, 63, 0
1, 1813134, Note_off_c, 0, 55, 62
1, 1813134, Poly_aftertouch_c, 0, 55, 0
1, 1813145, Control_c, 0, 64, 19
1, 1813164, Control_c, 0, 64, 25
1, 1813182, Control_c, 0, 64, 79
1, 1813194, Note_on_c, 0, 86, 88
1, 1813201, Control_c, 0, 64, 127
1, 1813203, Note_on_c, 0, 83, 80
1, 1813209, Note_on_c, 0, 56, 86
1, 1813293, Note_on_c, 0, 65, 65
1, 1813294, Control_c, 0, 64, 73
1, 1813304, Note_off_c, 0, 56, 64
1, 1813311, Note_off_c, 0, 83, 62
1, 1813313, Control_c, 0, 64, 0
1, 1813353, Note_off_c, 0, 86, 61
1, 1813370, Control_c, 0, 64, 31
1, 1813389, Control_c, 0, 64, 87
1, 1813400, Note_on_c, 0, 88, 91
1, 1813401, Note_on_c, 0, 68, 11
1, 1813402, Note_off_c, 0, 68, 127
1, 1813403, Note_on_c, 0, 64, 51
1, 1813403, Note_on_c, 0, 67, 77
1, 1813406, Note_on_c, 0, 84, 82
1, 1813408, Control_c, 0, 64, 127
1, 1813444, Note_on_c, 0, 63, 28
1, 1813460, Note_off_c, 0, 64, 49
1, 1813463, Note_on_c, 0, 55, 77
1, 1813468, Note_off_c, 0, 65, 56
1, 1813473, Note_off_c, 0, 67, 61
1, 1813481, Control_c, 0, 64, 116
1, 1813501, Control_c, 0, 64, 68
1, 1813510, Note_off_c, 0, 88, 62
1, 1813514, Note_off_c, 0, 63, 50
1, 1813518, Note_off_c, 0, 55, 61
1, 1813518, Poly_aftertouch_c, 0, 55, 0
1, 1813521, Note_off_c, 0, 84, 62
1, 1813521, Control_c, 0, 64, 40
1, 1813539, Control_c, 0, 64, 67
1, 1813556, Control_c, 0, 64, 114
1, 1813575, Control_c, 0, 64, 127
1, 1813590, Note_on_c, 0, 86, 85
1, 1813603, Note_on_c, 0, 56, 79
1, 1813604, Note_on_c, 0, 83, 80
1, 1813651, Control_c, 0, 64, 122
1, 1813668, Note_off_c, 0, 56, 65
1, 1813669, Control_c, 0, 64, 68
1, 1813688, Control_c, 0, 64, 0
1, 1813699, Note_on_c, 0, 65, 65
1, 1813705, Note_off_c, 0, 83, 62
1, 1813725, Control_c, 0, 64, 21
1, 1813745, Control_c, 0, 64, 73
1, 1813762, Control_c, 0, 64, 105
1, 1813777, Note_off_c, 0, 86, 55
1, 1813782, Note_on_c, 0, 64, 53
1, 1813782, Control_c, 0, 64, 127
1, 1813795, Note_on_c, 0, 88, 81
1, 1813800, Note_on_c, 0, 84, 78
1, 1813815, Note_on_c, 0, 67, 72
1, 1813829, Poly_aftertouch_c, 0, 68, 0
1, 1813837, Note_off_c, 0, 88, 63
1, 1813844, Note_off_c, 0, 64, 62
1, 1813856, Note_off_c, 0, 65, 62
1, 1813857, Note_off_c, 0, 84, 62
1, 1813898, Note_on_c, 0, 55, 68
1, 1813902, Note_off_c, 0, 67, 60
1, 1814024, Control_c, 0, 64, 115
1, 1814042, Control_c, 0, 64, 90
1, 1814062, Control_c, 0, 64, 61
1, 1814080, Note_on_c, 0, 74, 83
1, 1814080, Control_c, 0, 64, 30
1, 1814085, Note_on_c, 0, 56, 71
1, 1814089, Note_on_c, 0, 71, 76
1, 1814099, Control_c, 0, 64, 0
1, 1814118, Control_c, 0, 64, 17
1, 1814137, Control_c, 0, 64, 44
1, 1814154, Note_off_c, 0, 55, 58
1, 1814154, Poly_aftertouch_c, 0, 55, 0
1, 1814154, Control_c, 0, 64, 66
1, 1814175, Control_c, 0, 64, 84
1, 1814193, Control_c, 0, 64, 109
1, 1814212, Control_c, 0, 64, 127
1, 1814228, Note_off_c, 0, 56, 59
1, 1814253, Note_on_c, 0, 65, 70
1, 1814286, Control_c, 0, 64, 106
1, 1814305, Control_c, 0, 64, 75
1, 1814325, Control_c, 0, 64, 42
1, 1814335, Note_off_c, 0, 71, 57
1, 1814342, Control_c, 0, 64, 0
1, 1814398, Control_c, 0, 64, 38
1, 1814402, Note_on_c, 0, 76, 72
1, 1814404, Note_on_c, 0, 64, 72
1, 1814408, Note_on_c, 0, 72, 70
1, 1814409, Note_off_c, 0, 74, 62
1, 1814417, Control_c, 0, 64, 60
1, 1814436, Control_c, 0, 64, 81
1, 1814455, Control_c, 0, 64, 99
1, 1814467, Note_off_c, 0, 65, 54
1, 1814472, Control_c, 0, 64, 104
1, 1814492, Control_c, 0, 64, 91
1, 1814510, Control_c, 0, 64, 70
1, 1814530, Control_c, 0, 64, 45
1, 1814547, Control_c, 0, 64, 0
1, 1814559, Note_on_c, 0, 55, 65
1, 1814571, Note_off_c, 0, 64, 55
1, 1814605, Control_c, 0, 64, 14
1, 1814623, Control_c, 0, 64, 32
1, 1814641, Control_c, 0, 64, 51
1, 1814649, Note_off_c, 0, 72, 51
1, 1814660, Control_c, 0, 64, 69
1, 1814680, Control_c, 0, 64, 82
1, 1814696, Control_c, 0, 64, 92
1, 1814698, Note_on_c, 0, 56, 69
1, 1814704, Note_on_c, 0, 74, 64
1, 1814706, Note_on_c, 0, 71, 56
1, 1814716, Control_c, 0, 64, 96
1, 1814750, Note_off_c, 0, 55, 51
1, 1814750, Poly_aftertouch_c, 0, 55, 0
1, 1814754, Control_c, 0, 64, 87
1, 1814761, Note_off_c, 0, 76, 40
1, 1814772, Control_c, 0, 64, 70
1, 1814792, Control_c, 0, 64, 44
1, 1814811, Control_c, 0, 64, 0
1, 1814830, Note_off_c, 0, 56, 59
1, 1814850, Note_on_c, 0, 65, 59
1, 1814940, Control_c, 0, 64, 39
1, 1814959, Control_c, 0, 64, 62
1, 1814977, Control_c, 0, 64, 76
1, 1814997, Control_c, 0, 64, 87
1, 1815002, Note_on_c, 0, 64, 57
1, 1815012, Note_on_c, 0, 76, 60
1, 1815016, Control_c, 0, 64, 98
1, 1815017, Note_on_c, 0, 72, 60
1, 1815034, Control_c, 0, 64, 106
1, 1815040, Note_off_c, 0, 74, 59
1, 1815049, Note_off_c, 0, 76, 68
1, 1815051, Note_off_c, 0, 71, 58
1, 1815052, Control_c, 0, 64, 112
1, 1815081, Note_off_c, 0, 72, 60
1, 1815113, Note_off_c, 0, 65, 30
1, 1815124, Note_off_c, 0, 64, 59
1, 1815146, Control_c, 0, 64, 107
1, 1815164, Control_c, 0, 64, 102
1, 1815165, Note_on_c, 0, 55, 57
1, 1815184, Control_c, 0, 64, 96
1, 1815202, Control_c, 0, 64, 90
1, 1815221, Control_c, 0, 64, 86
1, 1815239, Control_c, 0, 64, 83
1, 1815277, Control_c, 0, 64, 80
1, 1815296, Control_c, 0, 64, 77
1, 1815314, Control_c, 0, 64, 74
1, 1815334, Control_c, 0, 64, 70
1, 1815352, Control_c, 0, 64, 67
1, 1815359, Note_on_c, 0, 56, 57
1, 1815370, Control_c, 0, 64, 63
1, 1815389, Note_on_c, 0, 47, 82
1, 1815389, Control_c, 0, 64, 58
1, 1815409, Control_c, 0, 64, 50
1, 1815426, Control_c, 0, 64, 30
1, 1815446, Control_c, 0, 64, 0
1, 1815538, Note_off_c, 0, 56, 60
1, 1815540, Note_off_c, 0, 55, 33
1, 1815540, Poly_aftertouch_c, 0, 55, 0
1, 1815577, Note_on_c, 0, 65, 59
1, 1815725, Note_on_c, 0, 48, 79
1, 1815729, Note_on_c, 0, 64, 58
1, 1815875, Note_off_c, 0, 65, 34
1, 1815897, Note_off_c, 0, 47, 57
1, 1815909, Note_on_c, 0, 55, 58
1, 1815926, Note_off_c, 0, 64, 57
1, 1815932, Control_c, 0, 64, 32
1, 1815950, Control_c, 0, 64, 49
1, 1815969, Control_c, 0, 64, 61
1, 1815987, Control_c, 0, 64, 68
1, 1816087, Note_on_c, 0, 47, 70
1, 1816089, Note_on_c, 0, 56, 57
1, 1816099, Control_c, 0, 64, 66
1, 1816118, Control_c, 0, 64, 65
1, 1816137, Control_c, 0, 64, 64
1, 1816157, Control_c, 0, 64, 63
1, 1816174, Control_c, 0, 64, 60
1, 1816191, Note_off_c, 0, 55, 38
1, 1816191, Poly_aftertouch_c, 0, 55, 0
1, 1816192, Control_c, 0, 64, 55
1, 1816213, Control_c, 0, 64, 45
1, 1816230, Control_c, 0, 64, 21
1, 1816249, Control_c, 0, 64, 0
1, 1816252, Note_off_c, 0, 48, 55
1, 1816252, Poly_aftertouch_c, 0, 48, 0
1, 1816259, Note_off_c, 0, 56, 59
1, 1816269, Note_on_c, 0, 65, 61
1, 1816325, Control_c, 0, 64, 25
1, 1816343, Control_c, 0, 64, 42
1, 1816362, Control_c, 0, 64, 57
1, 1816380, Control_c, 0, 64, 69
1, 1816400, Control_c, 0, 64, 77
1, 1816418, Control_c, 0, 64, 84
1, 1816436, Control_c, 0, 64, 92
1, 1816444, Note_on_c, 0, 64, 60
1, 1816450, Note_on_c, 0, 48, 77
1, 1816456, Control_c, 0, 64, 103
1, 1816475, Control_c, 0, 64, 118
1, 1816493, Control_c, 0, 64, 127
1, 1816501, Note_off_c, 0, 47, 60
1, 1816534, Note_off_c, 0, 65, 37
1, 1816637, Note_off_c, 0, 64, 53
1, 1816642, Note_on_c, 0, 55, 68
1, 1816752, Note_off_c, 0, 48, 60
1, 1816752, Poly_aftertouch_c, 0, 48, 0
1, 1816929, Note_on_c, 0, 56, 60
1, 1816965, Note_on_c, 0, 49, 82
1, 1816972, Note_on_c, 0, 35, 65
1, 1817018, Control_c, 0, 64, 118
1, 1817030, Note_off_c, 0, 55, 38
1, 1817030, Poly_aftertouch_c, 0, 55, 0
1, 1817035, Control_c, 0, 64, 110
1, 1817053, Control_c, 0, 64, 102
1, 1817072, Control_c, 0, 64, 94
1, 1817092, Control_c, 0, 64, 87
1, 1817109, Control_c, 0, 64, 78
1, 1817128, Control_c, 0, 64, 69
1, 1817148, Control_c, 0, 64, 60
1, 1817166, Control_c, 0, 64, 49
1, 1817185, Control_c, 0, 64, 32
1, 1817203, Control_c, 0, 64, 0
1, 1817289, Note_on_c, 0, 65, 50
1, 1817334, Note_off_c, 0, 56, 56
1, 1817371, Control_c, 0, 64, 13
1, 1817389, Control_c, 0, 64, 32
1, 1817409, Control_c, 0, 64, 47
1, 1817427, Control_c, 0, 64, 59
1, 1817446, Control_c, 0, 64, 67
1, 1817464, Control_c, 0, 64, 71
1, 1817484, Control_c, 0, 64, 73
1, 1817521, Control_c, 0, 64, 76
1, 1817537, Note_on_c, 0, 64, 48
1, 1817539, Control_c, 0, 64, 78
1, 1817550, Note_off_c, 0, 65, 55
1, 1817559, Control_c, 0, 64, 81
1, 1817577, Control_c, 0, 64, 83
1, 1817727, Control_c, 0, 64, 80
1, 1817765, Control_c, 0, 64, 78
1, 1817784, Note_on_c, 0, 55, 43
1, 1817802, Control_c, 0, 64, 75
1, 1817803, Control_c, 0, 67, 8
1, 1817822, Control_c, 0, 64, 71
1, 1817839, Control_c, 0, 64, 65
1, 1817858, Note_off_c, 0, 64, 34
1, 1817858, Control_c, 0, 64, 57
1, 1817858, Control_c, 0, 67, 13
1, 1817876, Control_c, 0, 64, 44
1, 1817896, Control_c, 0, 64, 19
1, 1817898, Control_c, 0, 67, 18
1, 1817913, Control_c, 0, 64, 0
1, 1817932, Control_c, 0, 67, 24
1, 1817970, Control_c, 0, 67, 30
1, 1818007, Control_c, 0, 67, 37
1, 1818044, Control_c, 0, 64, 19
1, 1818046, Control_c, 0, 67, 42
1, 1818051, Note_on_c, 0, 56, 45
1, 1818063, Control_c, 0, 64, 41
1, 1818084, Control_c, 0, 64, 58
1, 1818085, Control_c, 0, 67, 48
1, 1818101, Control_c, 0, 64, 72
1, 1818119, Control_c, 0, 64, 82
1, 1818120, Control_c, 0, 67, 55
1, 1818139, Control_c, 0, 64, 92
1, 1818157, Control_c, 0, 64, 102
1, 1818158, Control_c, 0, 67, 62
1, 1818162, Note_off_c, 0, 55, 31
1, 1818162, Poly_aftertouch_c, 0, 55, 0
1, 1818176, Control_c, 0, 64, 111
1, 1818194, Control_c, 0, 64, 116
1, 1818195, Control_c, 0, 67, 68
1, 1818213, Control_c, 0, 64, 121
1, 1818233, Control_c, 0, 64, 125
1, 1818234, Control_c, 0, 67, 75
1, 1818269, Control_c, 0, 67, 83
1, 1818307, Control_c, 0, 67, 89
1, 1818344, Control_c, 0, 67, 93
1, 1818385, Note_off_c, 0, 35, 32
1, 1818390, Note_on_c, 0, 65, 47
1, 1818399, Control_c, 0, 67, 98
1, 1818437, Control_c, 0, 67, 102
1, 1818444, Note_off_c, 0, 56, 36
1, 1818494, Control_c, 0, 67, 106
1, 1818530, Control_c, 0, 67, 111
1, 1818547, Note_off_c, 0, 49, 36
1, 1818556, Note_off_c, 0, 65, 49
1, 1818568, Control_c, 0, 67, 115
1, 1818625, Control_c, 0, 67, 119
1, 1818699, Control_c, 0, 67, 124
1, 1818812, Control_c, 0, 64, 121
1, 1818848, Control_c, 0, 64, 117
1, 1818886, Control_c, 0, 64, 110
1, 1818904, Control_c, 0, 64, 106
1, 1818906, Note_on_c, 0, 64, 37
1, 1818915, Note_on_c, 0, 55, 28
1, 1818921, Control_c, 0, 64, 101
1, 1818941, Control_c, 0, 64, 95
1, 1818961, Control_c, 0, 64, 88
1, 1818979, Control_c, 0, 64, 81
1, 1818982, Note_on_c, 0, 36, 27
1, 1818991, Note_on_c, 0, 48, 25
1, 1818998, Control_c, 0, 64, 74
1, 1819017, Control_c, 0, 64, 66
1, 1819036, Control_c, 0, 64, 57
1, 1819053, Control_c, 0, 64, 43
1, 1819074, Control_c, 0, 64, 0
1, 1819279, Control_c, 0, 64, 34
1, 1819297, Control_c, 0, 64, 55
1, 1819316, Control_c, 0, 64, 69
1, 1819335, Control_c, 0, 64, 77
1, 1819347, Note_off_c, 0, 36, 53
1, 1819347, Poly_aftertouch_c, 0, 36, 0
1, 1819353, Control_c, 0, 64, 83
1, 1819373, Control_c, 0, 64, 93
1, 1819390, Note_off_c, 0, 48, 54
1, 1819390, Poly_aftertouch_c, 0, 48, 0
1, 1819390, Control_c, 0, 64, 107
1, 1819410, Control_c, 0, 64, 119
1, 1819428, Control_c, 0, 64, 127
1, 1819714, Note_on_c, 0, 62, 23
1, 1819850, Note_off_c, 0, 64, 33
1, 1819937, Note_off_c, 0, 55, 35
1, 1819937, Poly_aftertouch_c, 0, 55, 0
1, 1820177, Note_on_c, 0, 76, 45
1, 1820225, Note_on_c, 0, 60, 30
1, 1820354, Note_off_c, 0, 62, 35
1, 1820593, Note_on_c, 0, 74, 45
1, 1820610, Note_on_c, 0, 55, 31
1, 1820669, Note_off_c, 0, 76, 60
1, 1820676, Note_off_c, 0, 60, 33
1, 1820676, Poly_aftertouch_c, 0, 60, 0
1, 1820903, Note_on_c, 0, 72, 44
1, 1820942, Note_on_c, 0, 64, 37
1, 1820951, Note_off_c, 0, 74, 34
1, 1821160, Note_off_c, 0, 72, 58
1, 1821162, Note_on_c, 0, 67, 47
1, 1821199, Note_on_c, 0, 62, 37
1, 1821203, Note_off_c, 0, 67, 62
1, 1821335, Note_off_c, 0, 55, 36
1, 1821335, Poly_aftertouch_c, 0, 55, 0
1, 1821395, Poly_aftertouch_c, 0, 64, 20
1, 1821404, Note_off_c, 0, 64, 34
1, 1821404, Poly_aftertouch_c, 0, 64, 0
1, 1821428, Note_on_c, 0, 60, 48
1, 1821469, Note_on_c, 0, 48, 48
1, 1821481, Note_off_c, 0, 62, 38
1, 1821619, Note_off_c, 0, 48, 51
1, 1821619, Poly_aftertouch_c, 0, 48, 0
1, 1821634, Control_c, 0, 67, 120
1, 1821663, Note_off_c, 0, 60, 55
1, 1821663, Poly_aftertouch_c, 0, 60, 0
1, 1821671, Control_c, 0, 67, 116
1, 1821687, Note_on_c, 0, 55, 52
1, 1821691, Note_on_c, 0, 47, 53
1, 1821710, Control_c, 0, 67, 109
1, 1821728, Control_c, 0, 67, 104
1, 1821736, Note_off_c, 0, 47, 61
1, 1821747, Control_c, 0, 67, 98
1, 1821766, Control_c, 0, 67, 91
1, 1821784, Control_c, 0, 67, 85
1, 1821804, Control_c, 0, 67, 79
1, 1821821, Control_c, 0, 67, 73
1, 1821841, Control_c, 0, 67, 67
1, 1821860, Control_c, 0, 67, 63
1, 1821896, Control_c, 0, 67, 56
1, 1821904, Note_off_c, 0, 55, 34
1, 1821904, Poly_aftertouch_c, 0, 55, 0
1, 1821916, Control_c, 0, 67, 52
1, 1821934, Control_c, 0, 64, 121
1, 1821946, Note_on_c, 0, 67, 54
1, 1821953, Control_c, 0, 64, 109
1, 1821954, Control_c, 0, 67, 46
1, 1821963, Note_on_c, 0, 46, 48
1, 1821972, Control_c, 0, 64, 91
1, 1821991, Control_c, 0, 64, 68
1, 1821993, Control_c, 0, 67, 40
1, 1822009, Control_c, 0, 64, 47
1, 1822027, Control_c, 0, 64, 26
1, 1822028, Control_c, 0, 67, 32
1, 1822046, Control_c, 0, 67, 27
1, 1822066, Control_c, 0, 64, 47
1, 1822066, Control_c, 0, 67, 22
1, 1822084, Control_c, 0, 64, 64
1, 1822085, Control_c, 0, 67, 16
1, 1822102, Control_c, 0, 64, 77
1, 1822103, Control_c, 0, 67, 11
1, 1822122, Control_c, 0, 64, 91
1, 1822139, Control_c, 0, 64, 114
1, 1822158, Control_c, 0, 64, 127
1, 1822171, Note_on_c, 0, 34, 48
1, 1822174, Note_off_c, 0, 46, 61
1, 1822197, Note_on_c, 0, 65, 54
1, 1822215, Note_off_c, 0, 34, 50
1, 1822232, Control_c, 0, 67, 0
1, 1822477, Note_off_c, 0, 67, 30
1, 1822516, Note_on_c, 0, 64, 50
1, 1822525, Note_on_c, 0, 79, 56
1, 1822576, Note_off_c, 0, 65, 36
1, 1822797, Note_on_c, 0, 77, 61
1, 1822801, Note_off_c, 0, 64, 54
1, 1822801, Poly_aftertouch_c, 0, 64, 0
1, 1822803, Note_on_c, 0, 60, 50
1, 1822924, Note_off_c, 0, 79, 62
1, 1823043, Note_on_c, 0, 67, 62
1, 1823063, Note_on_c, 0, 76, 61
1, 1823128, Note_off_c, 0, 77, 53
1, 1823276, Note_on_c, 0, 72, 65
1, 1823277, Note_off_c, 0, 76, 61
1, 1823295, Note_on_c, 0, 65, 62
1, 1823315, Note_off_c, 0, 72, 65
1, 1823426, Note_off_c, 0, 60, 34
1, 1823426, Poly_aftertouch_c, 0, 60, 0
1, 1823493, Note_off_c, 0, 67, 35
1, 1823504, Control_c, 0, 64, 115
1, 1823522, Control_c, 0, 64, 90
1, 1823525, Note_on_c, 0, 64, 69
1, 1823542, Control_c, 0, 64, 83
1, 1823546, Note_on_c, 0, 46, 67
1, 1823561, Control_c, 0, 64, 94
1, 1823579, Control_c, 0, 64, 113
1, 1823598, Control_c, 0, 64, 127
1, 1823673, Note_off_c, 0, 65, 46
1, 1823717, Note_off_c, 0, 46, 52
1, 1823758, Note_on_c, 0, 60, 69
1, 1823769, Note_on_c, 0, 45, 79
1, 1823776, Note_off_c, 0, 64, 59
1, 1823776, Poly_aftertouch_c, 0, 64, 0
1, 1823844, Note_off_c, 0, 60, 59
1, 1823844, Poly_aftertouch_c, 0, 60, 0
1, 1823868, Note_off_c, 0, 45, 59
1, 1824008, Note_on_c, 0, 70, 77
1, 1824011, Note_on_c, 0, 43, 64
1, 1824020, Note_on_c, 0, 61, 69
1, 1824028, Control_c, 0, 64, 120
1, 1824046, Control_c, 0, 64, 81
1, 1824066, Control_c, 0, 64, 45
1, 1824085, Control_c, 0, 64, 0
1, 1824103, Control_c, 0, 64, 20
1, 1824122, Control_c, 0, 64, 52
1, 1824140, Control_c, 0, 64, 76
1, 1824159, Control_c, 0, 64, 102
1, 1824177, Control_c, 0, 64, 127
1, 1824225, Note_on_c, 0, 31, 64
1, 1824235, Note_off_c, 0, 43, 62
1, 1824245, Note_on_c, 0, 69, 77
1, 1824265, Note_off_c, 0, 31, 60
1, 1824282, Note_off_c, 0, 61, 53
1, 1824282, Poly_aftertouch_c, 0, 61, 0
1, 1824311, Note_off_c, 0, 70, 51
1, 1824506, Note_on_c, 0, 67, 71
1, 1824537, Note_on_c, 0, 82, 82
1, 1824699, Poly_aftertouch_c, 0, 69, 24
1, 1824753, Note_on_c, 0, 64, 77
1, 1824758, Note_on_c, 0, 81, 79
1, 1824759, Note_off_c, 0, 69, 35
1, 1824759, Poly_aftertouch_c, 0, 69, 0
1, 1824810, Note_off_c, 0, 67, 60
1, 1824996, Note_on_c, 0, 70, 82
1, 1824999, Note_on_c, 0, 61, 82
1, 1825005, Note_on_c, 0, 79, 77
1, 1825032, Poly_aftertouch_c, 0, 82, 22
1, 1825049, Note_off_c, 0, 64, 60
1, 1825049, Note_off_c, 0, 81, 56
1, 1825049, Poly_aftertouch_c, 0, 64, 0
1, 1825050, Note_off_c, 0, 82, 19
1, 1825050, Poly_aftertouch_c, 0, 82, 0
1, 1825197, Note_off_c, 0, 79, 62
1, 1825198, Note_on_c, 0, 76, 64
1, 1825229, Note_off_c, 0, 76, 67
1, 1825235, Note_on_c, 0, 69, 79
1, 1825282, Note_off_c, 0, 61, 56
1, 1825282, Poly_aftertouch_c, 0, 61, 0
1, 1825297, Note_off_c, 0, 70, 55
1, 1825488, Note_on_c, 0, 67, 81
1, 1825490, Note_on_c, 0, 45, 88
1, 1825501, Note_on_c, 0, 33, 83
1, 1825631, Note_off_c, 0, 45, 59
1, 1825647, Note_off_c, 0, 69, 28
1, 1825647, Poly_aftertouch_c, 0, 69, 0
1, 1825650, Note_off_c, 0, 33, 60
1, 1825668, Poly_aftertouch_c, 0, 63, 0
1, 1825724, Note_on_c, 0, 64, 87
1, 1825726, Note_on_c, 0, 43, 94
1, 1825729, Note_on_c, 0, 31, 90
1, 1825766, Note_off_c, 0, 67, 58
1, 1825860, Control_c, 0, 64, 114
1, 1825863, Note_off_c, 0, 43, 60
1, 1825879, Note_off_c, 0, 31, 63
1, 1825879, Control_c, 0, 64, 68
1, 1825898, Control_c, 0, 64, 0
1, 1825955, Control_c, 0, 64, 11
1, 1825968, Note_on_c, 0, 41, 90
1, 1825971, Note_on_c, 0, 29, 90
1, 1825973, Control_c, 0, 64, 69
1, 1825983, Note_on_c, 0, 73, 91
1, 1825991, Control_c, 0, 64, 111
1, 1826000, Note_off_c, 0, 29, 68
1, 1826004, Note_off_c, 0, 64, 59
1, 1826004, Poly_aftertouch_c, 0, 64, 0
1, 1826009, Note_off_c, 0, 41, 65
1, 1826010, Control_c, 0, 64, 127
1, 1826190, Poly_aftertouch_c, 0, 29, 0
1, 1826198, Note_on_c, 0, 69, 77
1, 1826218, Note_off_c, 0, 73, 58
1, 1826375, Note_on_c, 0, 85, 95
1, 1826389, Note_on_c, 0, 65, 80
1, 1826426, Note_off_c, 0, 69, 58
1, 1826426, Poly_aftertouch_c, 0, 69, 0
1, 1826488, Note_off_c, 0, 85, 62
1, 1826531, Note_on_c, 0, 86, 101
1, 1826552, Note_on_c, 0, 62, 88
1, 1826566, Note_off_c, 0, 86, 69
1, 1826573, Note_off_c, 0, 65, 61
1, 1826681, Poly_aftertouch_c, 0, 73, 0
1, 1826732, Note_off_c, 0, 62, 44
1, 1826738, Note_on_c, 0, 74, 67
1, 1826883, Note_on_c, 0, 40, 90
1, 1826891, Note_on_c, 0, 69, 88
1, 1826891, Note_on_c, 0, 28, 90
1, 1826910, Note_off_c, 0, 74, 62
1, 1826968, Note_off_c, 0, 40, 57
1, 1826985, Note_off_c, 0, 28, 61
1, 1827001, Control_c, 0, 64, 110
1, 1827021, Control_c, 0, 64, 55
1, 1827038, Control_c, 0, 64, 0
1, 1827051, Note_on_c, 0, 26, 95
1, 1827052, Note_on_c, 0, 38, 101
1, 1827058, Control_c, 0, 64, 21
1, 1827061, Note_on_c, 0, 76, 93
1, 1827076, Control_c, 0, 64, 56
1, 1827096, Control_c, 0, 64, 90
1, 1827105, Note_off_c, 0, 69, 57
1, 1827105, Poly_aftertouch_c, 0, 69, 0
1, 1827109, Note_off_c, 0, 26, 64
1, 1827111, Note_off_c, 0, 38, 64
1, 1827113, Control_c, 0, 64, 127
1, 1827225, Note_on_c, 0, 73, 85
1, 1827347, Note_off_c, 0, 76, 45
1, 1827410, Note_on_c, 0, 69, 83
1, 1827426, Note_on_c, 0, 88, 103
1, 1827469, Note_off_c, 0, 73, 57
1, 1827578, Note_off_c, 0, 88, 65
1, 1827632, Note_on_c, 0, 89, 108
1, 1827632, Note_on_c, 0, 65, 91
1, 1827648, Note_off_c, 0, 69, 54
1, 1827648, Poly_aftertouch_c, 0, 69, 0
1, 1827662, Note_on_c, 0, 74, 54
1, 1827666, Note_off_c, 0, 89, 71
1, 1827666, Poly_aftertouch_c, 0, 89, 0
1, 1827690, Note_off_c, 0, 74, 60
1, 1827832, Note_on_c, 0, 77, 80
1, 1827915, Note_off_c, 0, 65, 59
1, 1828035, Note_on_c, 0, 74, 90
1, 1828046, Note_off_c, 0, 77, 58
1, 1828054, Note_on_c, 0, 38, 102
1, 1828062, Note_on_c, 0, 26, 98
1, 1828099, Note_on_c, 0, 34, 42
1, 1828151, Note_off_c, 0, 34, 50
1, 1828199, Poly_aftertouch_c, 0, 28, 0
1, 1828246, Note_off_c, 0, 38, 51
1, 1828299, Note_off_c, 0, 26, 61
1, 1828329, Control_c, 0, 64, 77
1, 1828347, Control_c, 0, 64, 0
1, 1828363, Note_on_c, 0, 79, 94
1, 1828373, Note_on_c, 0, 36, 103
1, 1828379, Note_on_c, 0, 24, 96
1, 1828404, Note_off_c, 0, 74, 54
1, 1828404, Note_on_c, 0, 27, 65
1, 1828423, Control_c, 0, 64, 65
1, 1828439, Note_off_c, 0, 27, 57
1, 1828441, Control_c, 0, 64, 115
1, 1828459, Control_c, 0, 64, 127
1, 1828514, Note_off_c, 0, 24, 60
1, 1828542, Note_off_c, 0, 36, 63
1, 1828542, Poly_aftertouch_c, 0, 36, 0
1, 1828578, Note_on_c, 0, 76, 86
1, 1828604, Note_off_c, 0, 79, 59
1, 1828726, Note_on_c, 0, 72, 87
1, 1828727, Note_off_c, 0, 76, 63
1, 1828867, Note_off_c, 0, 72, 57
1, 1828868, Note_on_c, 0, 70, 93
1, 1828954, Note_off_c, 0, 70, 61
1, 1828985, Note_on_c, 0, 81, 87
1, 1829104, Note_off_c, 0, 81, 63
1, 1829128, Note_on_c, 0, 60, 88
1, 1829130, Note_on_c, 0, 79, 91
1, 1829163, Note_on_c, 0, 77, 49
1, 1829164, Note_off_c, 0, 77, 127
1, 1829336, Note_on_c, 0, 82, 98
1, 1829338, Note_on_c, 0, 67, 97
1, 1829387, Note_off_c, 0, 79, 61
1, 1829402, Note_off_c, 0, 67, 64
1, 1829402, Note_off_c, 0, 60, 59
1, 1829402, Poly_aftertouch_c, 0, 60, 0
1, 1829495, Note_on_c, 0, 79, 91
1, 1829544, Note_off_c, 0, 82, 60
1, 1829544, Poly_aftertouch_c, 0, 82, 0
1, 1829624, Note_on_c, 0, 76, 89
1, 1829631, Note_off_c, 0, 79, 59
1, 1829721, Note_off_c, 0, 76, 62
1, 1829760, Note_on_c, 0, 72, 88
1, 1829865, Note_off_c, 0, 72, 58
1, 1829886, Note_on_c, 0, 84, 88
1, 1829979, Note_on_c, 0, 64, 69
1, 1829997, Note_on_c, 0, 82, 93
1, 1830005, Note_off_c, 0, 84, 65
1, 1830159, Note_off_c, 0, 64, 61
1, 1830159, Poly_aftertouch_c, 0, 64, 0
1, 1830160, Note_on_c, 0, 88, 87
1, 1830163, Note_on_c, 0, 72, 78
1, 1830180, Note_off_c, 0, 82, 65
1, 1830180, Poly_aftertouch_c, 0, 82, 0
1, 1830225, Note_off_c, 0, 72, 60
1, 1830270, Note_off_c, 0, 88, 62
1, 1830294, Note_on_c, 0, 84, 86
1, 1830398, Note_on_c, 0, 70, 79
1, 1830413, Note_on_c, 0, 91, 93
1, 1830453, Note_off_c, 0, 84, 61
1, 1830530, Note_on_c, 0, 88, 95
1, 1830537, Note_on_c, 0, 79, 79
1, 1830541, Note_off_c, 0, 70, 57
1, 1830572, Note_off_c, 0, 91, 64
1, 1830609, Note_off_c, 0, 79, 63
1, 1830657, Note_on_c, 0, 96, 96
1, 1830687, Note_off_c, 0, 88, 67
1, 1830757, Note_on_c, 0, 72, 77
1, 1830770, Note_on_c, 0, 94, 94
1, 1830835, Control_c, 0, 64, 116
1, 1830853, Control_c, 0, 64, 80
1, 1830861, Note_off_c, 0, 96, 63
1, 1830871, Control_c, 0, 64, 73
1, 1830875, Note_on_c, 0, 82, 94
1, 1830889, Note_on_c, 0, 91, 88
1, 1830890, Control_c, 0, 64, 93
1, 1830909, Control_c, 0, 64, 124
1, 1830952, Note_off_c, 0, 94, 64
1, 1830977, Note_off_c, 0, 82, 63
1, 1830977, Poly_aftertouch_c, 0, 82, 0
1, 1830995, Note_on_c, 0, 88, 88
1, 1831015, Note_off_c, 0, 91, 65
1, 1831036, Note_off_c, 0, 72, 57
1, 1831084, Note_off_c, 0, 88, 63
1, 1831107, Note_on_c, 0, 84, 85
1, 1831177, Note_off_c, 0, 84, 64
1, 1831209, Note_on_c, 0, 82, 88
1, 1831317, Note_on_c, 0, 79, 85
1, 1831365, Note_off_c, 0, 82, 64
1, 1831365, Poly_aftertouch_c, 0, 82, 0
1, 1831416, Note_on_c, 0, 76, 86
1, 1831428, Note_off_c, 0, 79, 64
1, 1831432, Control_c, 0, 64, 111
1, 1831452, Control_c, 0, 64, 106
1, 1831453, Control_c, 0, 67, 9
1, 1831470, Control_c, 0, 64, 112
1, 1831489, Control_c, 0, 64, 120
1, 1831495, Note_off_c, 0, 76, 61
1, 1831507, Control_c, 0, 64, 127
1, 1831519, Note_on_c, 0, 72, 83
1, 1831610, Note_off_c, 0, 72, 49
1, 1831613, Note_on_c, 0, 70, 84
1, 1831714, Note_on_c, 0, 67, 80
1, 1831756, Note_off_c, 0, 70, 63
1, 1831805, Note_on_c, 0, 64, 83
1, 1831806, Control_c, 0, 64, 108
1, 1831810, Note_off_c, 0, 67, 63
1, 1831825, Control_c, 0, 64, 71
1, 1831844, Control_c, 0, 64, 48
1, 1831865, Control_c, 0, 64, 51
1, 1831867, Note_off_c, 0, 64, 63
1, 1831867, Poly_aftertouch_c, 0, 64, 0
1, 1831881, Control_c, 0, 64, 63
1, 1831897, Note_on_c, 0, 60, 77
1, 1831899, Control_c, 0, 64, 74
1, 1831919, Control_c, 0, 64, 89
1, 1831938, Control_c, 0, 64, 114
1, 1831956, Control_c, 0, 64, 127
1, 1831968, Note_on_c, 0, 41, 68
1, 1831971, Note_off_c, 0, 60, 61
1, 1831971, Poly_aftertouch_c, 0, 60, 0
1, 1831981, Note_on_c, 0, 58, 80
1, 1831994, Control_c, 0, 67, 0
1, 1832002, Note_off_c, 0, 41, 63
1, 1832099, Note_on_c, 0, 57, 80
1, 1832102, Note_off_c, 0, 58, 60
1, 1832143, Control_c, 0, 64, 118
1, 1832144, Control_c, 0, 67, 10
1, 1832149, Note_off_c, 0, 57, 56
1, 1832162, Control_c, 0, 64, 90
1, 1832179, Note_on_c, 0, 55, 72
1, 1832180, Control_c, 0, 64, 62
1, 1832182, Control_c, 0, 67, 15
1, 1832200, Control_c, 0, 64, 42
1, 1832201, Control_c, 0, 67, 19
1, 1832218, Control_c, 0, 64, 30
1, 1832236, Control_c, 0, 67, 25
1, 1832256, Control_c, 0, 64, 25
1, 1832257, Control_c, 0, 67, 29
1, 1832289, Note_off_c, 0, 55, 61
1, 1832289, Poly_aftertouch_c, 0, 55, 0
1, 1832292, Control_c, 0, 67, 37
1, 1832295, Note_on_c, 0, 53, 65
1, 1832312, Control_c, 0, 67, 41
1, 1832331, Control_c, 0, 67, 47
1, 1832348, Control_c, 0, 67, 53
1, 1832368, Control_c, 0, 67, 61
1, 1832385, Note_off_c, 0, 53, 61
1, 1832388, Control_c, 0, 67, 69
1, 1832391, Note_on_c, 0, 48, 69
1, 1832405, Control_c, 0, 67, 79
1, 1832425, Control_c, 0, 67, 90
1, 1832442, Control_c, 0, 67, 103
1, 1832462, Control_c, 0, 67, 121
1, 1832464, Note_off_c, 0, 48, 62
1, 1832464, Poly_aftertouch_c, 0, 48, 0
1, 1832480, Control_c, 0, 67, 127
1, 1832507, Note_on_c, 0, 60, 65
1, 1832519, Control_c, 0, 64, 30
1, 1832593, Note_off_c, 0, 60, 62
1, 1832593, Note_on_c, 0, 58, 67
1, 1832593, Poly_aftertouch_c, 0, 60, 0
1, 1832698, Note_on_c, 0, 57, 67
1, 1832702, Note_off_c, 0, 58, 60
1, 1832785, Note_off_c, 0, 57, 61
1, 1832788, Note_on_c, 0, 53, 69
1, 1832892, Note_off_c, 0, 53, 56
1, 1832899, Note_on_c, 0, 62, 68
1, 1832989, Note_off_c, 0, 62, 59
1, 1832991, Note_on_c, 0, 60, 70
1, 1833074, Note_off_c, 0, 60, 62
1, 1833074, Poly_aftertouch_c, 0, 60, 0
1, 1833083, Note_on_c, 0, 58, 71
1, 1833153, Note_off_c, 0, 58, 64
1, 1833184, Note_on_c, 0, 57, 73
1, 1833258, Note_off_c, 0, 57, 60
1, 1833285, Note_on_c, 0, 53, 67
1, 1833369, Note_off_c, 0, 53, 59
1, 1833390, Note_on_c, 0, 52, 66
1, 1833492, Note_off_c, 0, 52, 62
1, 1833498, Note_on_c, 0, 53, 64
1, 1833594, Note_off_c, 0, 53, 61
1, 1833600, Note_on_c, 0, 55, 65
1, 1833678, Note_off_c, 0, 55, 62
1, 1833678, Poly_aftertouch_c, 0, 55, 0
1, 1833698, Note_on_c, 0, 57, 64
1, 1833781, Note_off_c, 0, 57, 58
1, 1833793, Note_on_c, 0, 53, 67
1, 1833903, Note_off_c, 0, 53, 60
1, 1833910, Note_on_c, 0, 52, 59
1, 1833996, Note_off_c, 0, 52, 62
1, 1834005, Note_on_c, 0, 48, 66
1, 1834113, Note_off_c, 0, 48, 62
1, 1834113, Note_on_c, 0, 50, 67
1, 1834113, Poly_aftertouch_c, 0, 48, 0
1, 1834198, Note_off_c, 0, 50, 62
1, 1834202, Note_on_c, 0, 52, 68
1, 1834282, Note_off_c, 0, 52, 61
1, 1834294, Control_c, 0, 64, 26
1, 1834307, Note_on_c, 0, 53, 62
1, 1834380, Note_off_c, 0, 53, 55
1, 1834402, Note_on_c, 0, 55, 61
1, 1834500, Note_off_c, 0, 55, 55
1, 1834500, Poly_aftertouch_c, 0, 55, 0
1, 1834517, Note_on_c, 0, 69, 65
1, 1834544, Note_on_c, 0, 57, 57
1, 1834595, Note_off_c, 0, 57, 60
1, 1834643, Note_on_c, 0, 55, 50
1, 1834698, Note_off_c, 0, 55, 62
1, 1834698, Poly_aftertouch_c, 0, 55, 0
1, 1834720, Note_on_c, 0, 53, 61
1, 1834742, Control_c, 0, 64, 22
1, 1834798, Note_off_c, 0, 53, 56
1, 1834798, Control_c, 0, 64, 17
1, 1834818, Control_c, 0, 64, 10
1, 1834820, Note_on_c, 0, 67, 76
1, 1834835, Note_on_c, 0, 48, 54
1, 1834835, Control_c, 0, 64, 0
1, 1834883, Note_off_c, 0, 48, 64
1, 1834883, Poly_aftertouch_c, 0, 48, 0
1, 1834930, Note_off_c, 0, 69, 56
1, 1834930, Poly_aftertouch_c, 0, 69, 0
1, 1834943, Note_on_c, 0, 60, 59
1, 1834999, Note_off_c, 0, 60, 54
1, 1834999, Poly_aftertouch_c, 0, 60, 0
1, 1835025, Note_on_c, 0, 58, 62
1, 1835099, Note_off_c, 0, 58, 51
1, 1835134, Note_on_c, 0, 65, 70
1, 1835136, Note_on_c, 0, 57, 65
1, 1835212, Note_off_c, 0, 57, 54
1, 1835243, Note_off_c, 0, 67, 55
1, 1835253, Note_on_c, 0, 53, 61
1, 1835304, Note_off_c, 0, 53, 61
1, 1835322, Control_c, 0, 67, 123
1, 1835359, Control_c, 0, 67, 118
1, 1835360, Note_on_c, 0, 62, 49
1, 1835413, Note_off_c, 0, 62, 60
1, 1835447, Note_on_c, 0, 60, 69
1, 1835452, Control_c, 0, 67, 123
1, 1835513, Note_off_c, 0, 65, 50
1, 1835561, Note_on_c, 0, 58, 61
1, 1835584, Control_c, 0, 67, 118
1, 1835641, Note_off_c, 0, 58, 63
1, 1835657, Note_off_c, 0, 60, 50
1, 1835657, Note_on_c, 0, 57, 67
1, 1835657, Poly_aftertouch_c, 0, 60, 0
1, 1835737, Note_off_c, 0, 57, 44
1, 1835755, Note_on_c, 0, 72, 78
1, 1835779, Note_on_c, 0, 54, 64
1, 1835845, Note_off_c, 0, 54, 59
1, 1835872, Note_on_c, 0, 55, 65
1, 1835952, Note_off_c, 0, 55, 60
1, 1835952, Poly_aftertouch_c, 0, 55, 0
1, 1835974, Note_on_c, 0, 57, 65
1, 1836045, Note_off_c, 0, 57, 53
1, 1836075, Note_on_c, 0, 55, 55
1, 1836090, Note_on_c, 0, 70, 72
1, 1836145, Note_off_c, 0, 55, 60
1, 1836145, Poly_aftertouch_c, 0, 55, 0
1, 1836165, Note_on_c, 0, 52, 65
1, 1836196, Note_off_c, 0, 72, 58
1, 1836230, Note_off_c, 0, 52, 58
1, 1836282, Note_on_c, 0, 60, 52
1, 1836367, Note_off_c, 0, 60, 58
1, 1836367, Poly_aftertouch_c, 0, 60, 0
1, 1836381, Note_on_c, 0, 61, 61
1, 1836392, Note_on_c, 0, 69, 64
1, 1836459, Note_off_c, 0, 61, 59
1, 1836459, Poly_aftertouch_c, 0, 61, 0
1, 1836471, Note_off_c, 0, 70, 59
1, 1836487, Note_on_c, 0, 62, 61
1, 1836566, Note_off_c, 0, 62, 58
1, 1836603, Note_on_c, 0, 64, 58
1, 1836660, Note_off_c, 0, 64, 57
1, 1836660, Poly_aftertouch_c, 0, 64, 0
1, 1836668, Control_c, 0, 67, 113
1, 1836706, Control_c, 0, 67, 109
1, 1836710, Note_on_c, 0, 65, 57
1, 1836711, Note_on_c, 0, 62, 58
1, 1836762, Control_c, 0, 67, 116
1, 1836777, Note_off_c, 0, 62, 56
1, 1836779, Control_c, 0, 67, 125
1, 1836793, Note_off_c, 0, 69, 53
1, 1836793, Poly_aftertouch_c, 0, 69, 0
1, 1836808, Note_on_c, 0, 57, 62
1, 1836864, Note_off_c, 0, 65, 60
1, 1836869, Note_off_c, 0, 57, 52
1, 1836916, Note_on_c, 0, 64, 54
1, 1837030, Note_off_c, 0, 64, 54
1, 1837030, Poly_aftertouch_c, 0, 64, 0
1, 1837040, Note_on_c, 0, 74, 81
1, 1837057, Note_on_c, 0, 58, 56
1, 1837088, Note_on_c, 0, 65, 46
1, 1837146, Note_off_c, 0, 58, 60
1, 1837160, Note_on_c, 0, 62, 57
1, 1837188, Note_off_c, 0, 65, 62
1, 1837232, Note_off_c, 0, 62, 57
1, 1837258, Note_on_c, 0, 64, 56
1, 1837324, Note_off_c, 0, 64, 52
1, 1837324, Poly_aftertouch_c, 0, 64, 0
1, 1837370, Note_on_c, 0, 72, 74
1, 1837378, Note_on_c, 0, 57, 58
1, 1837408, Note_on_c, 0, 65, 49
1, 1837448, Note_off_c, 0, 57, 59
1, 1837464, Note_off_c, 0, 65, 54
1, 1837476, Note_on_c, 0, 60, 63
1, 1837541, Note_off_c, 0, 60, 57
1, 1837541, Poly_aftertouch_c, 0, 60, 0
1, 1837587, Note_on_c, 0, 64, 54
1, 1837642, Note_off_c, 0, 74, 28
1, 1837653, Note_off_c, 0, 64, 52
1, 1837653, Poly_aftertouch_c, 0, 64, 0
1, 1837686, Note_on_c, 0, 70, 70
1, 1837693, Note_on_c, 0, 55, 61
1, 1837702, Note_on_c, 0, 65, 56
1, 1837737, Note_off_c, 0, 72, 59
1, 1837760, Note_off_c, 0, 55, 56
1, 1837760, Poly_aftertouch_c, 0, 55, 0
1, 1837788, Note_off_c, 0, 65, 54
1, 1837798, Note_on_c, 0, 58, 62
1, 1837876, Note_off_c, 0, 58, 58
1, 1837899, Note_on_c, 0, 64, 65
1, 1837978, Note_off_c, 0, 64, 55
1, 1837978, Poly_aftertouch_c, 0, 64, 0
1, 1838016, Note_on_c, 0, 53, 67
1, 1838018, Note_on_c, 0, 65, 63
1, 1838020, Note_on_c, 0, 69, 68
1, 1838042, Note_off_c, 0, 70, 58
1, 1838095, Note_off_c, 0, 53, 54
1, 1838101, Note_off_c, 0, 65, 59
1, 1838124, Note_on_c, 0, 57, 66
1, 1838184, Note_off_c, 0, 57, 61
1, 1838221, Note_on_c, 0, 64, 66
1, 1838298, Note_off_c, 0, 64, 47
1, 1838298, Poly_aftertouch_c, 0, 64, 0
1, 1838323, Note_on_c, 0, 65, 80
1, 1838329, Note_on_c, 0, 59, 67
1, 1838346, Note_off_c, 0, 69, 59
1, 1838346, Poly_aftertouch_c, 0, 69, 0
1, 1838408, Note_off_c, 0, 59, 63
1, 1838421, Note_on_c, 0, 60, 72
1, 1838503, Note_off_c, 0, 60, 57
1, 1838503, Poly_aftertouch_c, 0, 60, 0
1, 1838523, Note_on_c, 0, 62, 69
1, 1838554, Note_off_c, 0, 62, 69
1, 1838638, Note_on_c, 0, 59, 69
1, 1838670, Note_off_c, 0, 65, 61
1, 1838682, Note_off_c, 0, 59, 58
1, 1838739, Note_on_c, 0, 67, 74
1, 1838753, Note_on_c, 0, 57, 67
1, 1838794, Note_off_c, 0, 57, 61
1, 1838823, Note_off_c, 0, 67, 56
1, 1838838, Note_on_c, 0, 55, 66
1, 1838839, Note_on_c, 0, 69, 74
1, 1838909, Note_off_c, 0, 55, 56
1, 1838909, Poly_aftertouch_c, 0, 55, 0
1, 1838937, Note_on_c, 0, 52, 70
1, 1838943, Note_on_c, 0, 67, 83
1, 1838957, Note_on_c, 0, 60, 66
1, 1838982, Note_off_c, 0, 69, 60
1, 1838982, Poly_aftertouch_c, 0, 69, 0
1, 1839021, Note_off_c, 0, 52, 61
1, 1839024, Note_off_c, 0, 60, 45
1, 1839024, Poly_aftertouch_c, 0, 60, 0
1, 1839039, Note_on_c, 0, 53, 67
1, 1839129, Note_off_c, 0, 53, 62
1, 1839151, Note_on_c, 0, 55, 69
1, 1839250, Note_off_c, 0, 55, 61
1, 1839250, Poly_aftertouch_c, 0, 55, 0
1, 1839259, Note_on_c, 0, 53, 68
1, 1839259, Note_on_c, 0, 60, 68
1, 1839272, Note_off_c, 0, 67, 59
1, 1839294, Note_off_c, 0, 53, 63
1, 1839342, Note_on_c, 0, 52, 73
1, 1839413, Note_off_c, 0, 60, 58
1, 1839413, Poly_aftertouch_c, 0, 60, 0
1, 1839452, Note_off_c, 0, 52, 58
1, 1839471, Note_on_c, 0, 50, 59
1, 1839570, Note_on_c, 0, 64, 73
1, 1839588, Note_off_c, 0, 50, 59
1, 1839596, Note_on_c, 0, 46, 62
1, 1839619, Note_on_c, 0, 48, 58
1, 1839660, Control_c, 0, 64, 16
1, 1839679, Control_c, 0, 64, 37
1, 1839698, Control_c, 0, 64, 51
1, 1839704, Note_off_c, 0, 46, 58
1, 1839716, Control_c, 0, 64, 55
1, 1839748, Note_on_c, 0, 50, 65
1, 1839753, Control_c, 0, 67, 121
1, 1839755, Note_off_c, 0, 48, 63
1, 1839755, Poly_aftertouch_c, 0, 48, 0
1, 1839773, Control_c, 0, 64, 53
1, 1839806, Note_off_c, 0, 50, 60
1, 1839808, Control_c, 0, 64, 50
1, 1839821, Note_on_c, 0, 52, 68
1, 1839871, Note_off_c, 0, 52, 59
1, 1839885, Control_c, 0, 64, 48
1, 1839921, Note_on_c, 0, 53, 74
1, 1839941, Control_c, 0, 64, 45
1, 1839959, Control_c, 0, 64, 42
1, 1839978, Control_c, 0, 64, 36
1, 1839988, Note_off_c, 0, 53, 62
1, 1839996, Control_c, 0, 64, 21
1, 1840010, Note_on_c, 0, 55, 80
1, 1840014, Control_c, 0, 64, 0
1, 1840074, Note_off_c, 0, 55, 64
1, 1840074, Poly_aftertouch_c, 0, 55, 0
1, 1840084, Note_on_c, 0, 65, 72
1, 1840090, Note_off_c, 0, 64, 60
1, 1840090, Poly_aftertouch_c, 0, 64, 0
1, 1840114, Note_on_c, 0, 57, 76
1, 1840177, Note_on_c, 0, 67, 83
1, 1840186, Control_c, 0, 67, 116
1, 1840194, Note_off_c, 0, 57, 52
1, 1840204, Control_c, 0, 67, 109
1, 1840205, Note_on_c, 0, 60, 63
1, 1840206, Note_off_c, 0, 65, 60
1, 1840215, Note_on_c, 0, 58, 78
1, 1840223, Control_c, 0, 67, 100
1, 1840240, Note_off_c, 0, 60, 67
1, 1840240, Poly_aftertouch_c, 0, 60, 0
1, 1840240, Control_c, 0, 64, 27
1, 1840240, Control_c, 0, 67, 91
1, 1840258, Control_c, 0, 64, 52
1, 1840259, Control_c, 0, 67, 83
1, 1840277, Control_c, 0, 64, 69
1, 1840278, Control_c, 0, 67, 78
1, 1840296, Control_c, 0, 64, 79
1, 1840314, Control_c, 0, 64, 82
1, 1840318, Note_on_c, 0, 62, 72
1, 1840333, Control_c, 0, 64, 78
1, 1840352, Control_c, 0, 64, 68
1, 1840370, Control_c, 0, 64, 50
1, 1840383, Note_off_c, 0, 67, 57
1, 1840407, Control_c, 0, 64, 0
1, 1840408, Note_off_c, 0, 62, 58
1, 1840418, Note_on_c, 0, 64, 77
1, 1840446, Control_c, 0, 64, 19
1, 1840462, Note_off_c, 0, 64, 64
1, 1840462, Poly_aftertouch_c, 0, 64, 0
1, 1840464, Control_c, 0, 64, 41
1, 1840483, Control_c, 0, 64, 66
1, 1840500, Note_on_c, 0, 57, 73
1, 1840500, Control_c, 0, 64, 87
1, 1840506, Note_on_c, 0, 65, 85
1, 1840521, Control_c, 0, 64, 109
1, 1840537, Note_off_c, 0, 58, 60
1, 1840537, Control_c, 0, 64, 127
1, 1840569, Note_off_c, 0, 57, 62
1, 1840602, Note_on_c, 0, 67, 86
1, 1840606, Note_off_c, 0, 65, 57
1, 1840677, Note_off_c, 0, 67, 57
1, 1840698, Note_on_c, 0, 69, 81
1, 1840726, Control_c, 0, 67, 74
1, 1840749, Note_off_c, 0, 69, 60
1, 1840749, Poly_aftertouch_c, 0, 69, 0
1, 1840787, Note_on_c, 0, 58, 67
1, 1840801, Control_c, 0, 64, 110
1, 1840802, Control_c, 0, 67, 70
1, 1840820, Control_c, 0, 64, 77
1, 1840828, Note_on_c, 0, 69, 82
1, 1840834, Note_on_c, 0, 72, 74
1, 1840839, Control_c, 0, 64, 47
1, 1840857, Control_c, 0, 64, 0
1, 1840875, Control_c, 0, 67, 65
1, 1840894, Control_c, 0, 64, 36
1, 1840895, Control_c, 0, 67, 58
1, 1840913, Control_c, 0, 64, 57
1, 1840915, Control_c, 0, 67, 49
1, 1840925, Note_off_c, 0, 72, 54
1, 1840931, Control_c, 0, 64, 78
1, 1840932, Control_c, 0, 67, 38
1, 1840934, Note_on_c, 0, 74, 77
1, 1840950, Control_c, 0, 64, 101
1, 1840953, Control_c, 0, 67, 27
1, 1840969, Control_c, 0, 64, 127
1, 1840971, Control_c, 0, 67, 18
1, 1840988, Control_c, 0, 67, 10
1, 1841026, Note_off_c, 0, 74, 60
1, 1841035, Note_on_c, 0, 77, 78
1, 1841109, Note_off_c, 0, 77, 59
1, 1841137, Control_c, 0, 64, 104
1, 1841145, Note_on_c, 0, 76, 79
1, 1841151, Note_on_c, 0, 67, 71
1, 1841156, Control_c, 0, 64, 69
1, 1841176, Control_c, 0, 64, 44
1, 1841194, Control_c, 0, 64, 42
1, 1841196, Note_off_c, 0, 69, 51
1, 1841196, Poly_aftertouch_c, 0, 69, 0
1, 1841212, Control_c, 0, 64, 57
1, 1841228, Note_off_c, 0, 76, 61
1, 1841229, Control_c, 0, 64, 74
1, 1841249, Control_c, 0, 64, 94
1, 1841253, Note_on_c, 0, 84, 72
1, 1841268, Control_c, 0, 64, 127
1, 1841356, Note_on_c, 0, 82, 76
1, 1841380, Note_off_c, 0, 84, 61
1, 1841438, Control_c, 0, 64, 89
1, 1841452, Note_on_c, 0, 79, 70
1, 1841455, Control_c, 0, 64, 42
1, 1841459, Note_on_c, 0, 64, 65
1, 1841467, Note_off_c, 0, 82, 62
1, 1841467, Poly_aftertouch_c, 0, 82, 0
1, 1841474, Control_c, 0, 64, 0
1, 1841480, Note_off_c, 0, 67, 57
1, 1841512, Control_c, 0, 64, 22
1, 1841530, Control_c, 0, 64, 58
1, 1841543, Note_on_c, 0, 76, 70
1, 1841544, Note_off_c, 0, 79, 62
1, 1841547, Control_c, 0, 64, 84
1, 1841569, Control_c, 0, 64, 117
1, 1841586, Control_c, 0, 64, 127
1, 1841603, Note_off_c, 0, 76, 62
1, 1841643, Note_on_c, 0, 72, 72
1, 1841688, Note_off_c, 0, 72, 56
1, 1841690, Note_off_c, 0, 64, 52
1, 1841690, Poly_aftertouch_c, 0, 64, 0
1, 1841707, Note_off_c, 0, 58, 52
1, 1841718, Note_on_c, 0, 60, 58
1, 1841726, Note_on_c, 0, 70, 79
1, 1841742, Note_off_c, 0, 60, 64
1, 1841742, Poly_aftertouch_c, 0, 60, 0
1, 1841825, Note_on_c, 0, 67, 78
1, 1841868, Note_off_c, 0, 70, 63
1, 1841928, Note_on_c, 0, 64, 81
1, 1841932, Note_off_c, 0, 67, 61
1, 1841979, Control_c, 0, 64, 123
1, 1841980, Control_c, 0, 67, 14
1, 1841998, Control_c, 0, 64, 88
1, 1842016, Control_c, 0, 64, 43
1, 1842028, Note_off_c, 0, 64, 53
1, 1842028, Poly_aftertouch_c, 0, 64, 0
1, 1842034, Control_c, 0, 64, 0
1, 1842047, Note_on_c, 0, 39, 63
1, 1842052, Note_on_c, 0, 65, 87
1, 1842065, Note_on_c, 0, 45, 57
1, 1842109, Control_c, 0, 64, 50
1, 1842129, Control_c, 0, 64, 79
1, 1842138, Poly_aftertouch_c, 0, 64, 0
1, 1842146, Note_off_c, 0, 45, 61
1, 1842147, Control_c, 0, 64, 107
1, 1842151, Note_on_c, 0, 46, 72
1, 1842166, Control_c, 0, 64, 127
1, 1842179, Note_off_c, 0, 39, 56
1, 1842232, Note_off_c, 0, 46, 61
1, 1842248, Note_on_c, 0, 50, 74
1, 1842305, Note_off_c, 0, 50, 59
1, 1842334, Control_c, 0, 64, 123
1, 1842352, Control_c, 0, 64, 78
1, 1842361, Note_on_c, 0, 48, 74
1, 1842371, Control_c, 0, 64, 0
1, 1842427, Control_c, 0, 64, 39
1, 1842431, Note_off_c, 0, 48, 62
1, 1842431, Poly_aftertouch_c, 0, 48, 0
1, 1842446, Control_c, 0, 64, 68
1, 1842452, Note_on_c, 0, 53, 73
1, 1842465, Control_c, 0, 64, 97
1, 1842483, Control_c, 0, 64, 127
1, 1842490, Note_off_c, 0, 53, 65
1, 1842541, Note_on_c, 0, 67, 80
1, 1842553, Note_off_c, 0, 65, 38
1, 1842554, Note_on_c, 0, 52, 79
1, 1842596, Control_c, 0, 64, 92
1, 1842602, Note_off_c, 0, 67, 63
1, 1842615, Control_c, 0, 64, 57
1, 1842633, Control_c, 0, 64, 42
1, 1842650, Note_on_c, 0, 69, 94
1, 1842652, Control_c, 0, 64, 55
1, 1842653, Note_on_c, 0, 53, 80
1, 1842659, Note_off_c, 0, 52, 60
1, 1842670, Control_c, 0, 64, 77
1, 1842671, Note_on_c, 0, 51, 72
1, 1842689, Control_c, 0, 64, 106
1, 1842707, Control_c, 0, 64, 127
1, 1842732, Note_off_c, 0, 53, 61
1, 1842746, Note_off_c, 0, 51, 60
1, 1842760, Note_on_c, 0, 57, 80
1, 1842814, Note_off_c, 0, 57, 61
1, 1842819, Control_c, 0, 64, 123
1, 1842839, Control_c, 0, 64, 77
1, 1842857, Control_c, 0, 64, 31
1, 1842866, Note_on_c, 0, 60, 80
1, 1842877, Control_c, 0, 64, 16
1, 1842895, Control_c, 0, 64, 50
1, 1842913, Control_c, 0, 64, 81
1, 1842933, Control_c, 0, 64, 113
1, 1842940, Note_off_c, 0, 60, 59
1, 1842940, Poly_aftertouch_c, 0, 60, 0
1, 1842951, Control_c, 0, 64, 127
1, 1842965, Note_on_c, 0, 70, 95
1, 1842969, Control_c, 0, 67, 18
1, 1842970, Note_on_c, 0, 62, 84
1, 1843004, Note_off_c, 0, 69, 59
1, 1843004, Poly_aftertouch_c, 0, 69, 0
1, 1843025, Note_off_c, 0, 62, 63
1, 1843048, Note_off_c, 0, 70, 71
1, 1843068, Note_on_c, 0, 63, 80
1, 1843163, Note_off_c, 0, 63, 61
1, 1843164, Note_on_c, 0, 64, 80
1, 1843199, Note_off_c, 0, 64, 65
1, 1843326, Control_c, 0, 64, 121
1, 1843334, Note_on_c, 0, 77, 72
1, 1843344, Control_c, 0, 64, 85
1, 1843353, Note_on_c, 0, 74, 92
1, 1843363, Control_c, 0, 64, 49
1, 1843380, Control_c, 0, 64, 0
1, 1843384, Note_on_c, 0, 63, 71
1, 1843436, Control_c, 0, 67, 13
1, 1843442, Note_off_c, 0, 77, 57
1, 1843450, Poly_aftertouch_c, 0, 77, 0
1, 1843455, Control_c, 0, 64, 19
1, 1843476, Control_c, 0, 64, 51
1, 1843486, Note_on_c, 0, 79, 67
1, 1843493, Control_c, 0, 64, 78
1, 1843494, Control_c, 0, 67, 0
1, 1843512, Control_c, 0, 64, 106
1, 1843532, Control_c, 0, 64, 127
1, 1843583, Note_off_c, 0, 79, 59
1, 1843586, Note_on_c, 0, 82, 77
1, 1843668, Note_off_c, 0, 82, 63
1, 1843668, Poly_aftertouch_c, 0, 82, 0
1, 1843688, Note_on_c, 0, 72, 81
1, 1843695, Note_on_c, 0, 81, 81
1, 1843697, Control_c, 0, 64, 117
1, 1843718, Control_c, 0, 64, 76
1, 1843738, Control_c, 0, 64, 36
1, 1843744, Note_off_c, 0, 74, 58
1, 1843755, Control_c, 0, 64, 0
1, 1843774, Control_c, 0, 64, 29
1, 1843783, Note_off_c, 0, 81, 62
1, 1843793, Control_c, 0, 64, 63
1, 1843798, Note_on_c, 0, 89, 79
1, 1843812, Control_c, 0, 64, 92
1, 1843829, Control_c, 0, 64, 127
1, 1843886, Note_on_c, 0, 87, 79
1, 1843916, Note_off_c, 0, 89, 61
1, 1843916, Poly_aftertouch_c, 0, 89, 0
1, 1843973, Note_on_c, 0, 84, 76
1, 1844004, Note_on_c, 0, 69, 77
1, 1844017, Note_off_c, 0, 87, 62
1, 1844017, Control_c, 0, 64, 101
1, 1844030, Note_off_c, 0, 72, 59
1, 1844035, Control_c, 0, 64, 63
1, 1844054, Control_c, 0, 64, 51
1, 1844064, Note_on_c, 0, 81, 79
1, 1844073, Note_off_c, 0, 84, 65
1, 1844073, Control_c, 0, 64, 64
1, 1844092, Control_c, 0, 64, 86
1, 1844110, Control_c, 0, 64, 118
1, 1844127, Note_off_c, 0, 81, 64
1, 1844128, Control_c, 0, 64, 127
1, 1844159, Note_on_c, 0, 77, 78
1, 1844211, Note_off_c, 0, 77, 58
1, 1844254, Note_on_c, 0, 75, 83
1, 1844270, Note_off_c, 0, 69, 58
1, 1844270, Poly_aftertouch_c, 0, 69, 0
1, 1844275, Note_on_c, 0, 65, 63
1, 1844295, Note_off_c, 0, 63, 59
1, 1844308, Note_off_c, 0, 65, 65
1, 1844355, Note_on_c, 0, 72, 73
1, 1844401, Note_off_c, 0, 75, 63
1, 1844442, Note_on_c, 0, 69, 73
1, 1844453, Note_off_c, 0, 72, 61
1, 1844541, Control_c, 0, 64, 95
1, 1844544, Note_off_c, 0, 69, 55
1, 1844544, Poly_aftertouch_c, 0, 69, 0
1, 1844559, Control_c, 0, 64, 60
1, 1844577, Control_c, 0, 64, 0
1, 1844602, Note_on_c, 0, 77, 88
1, 1844603, Note_on_c, 0, 74, 80
1, 1844605, Note_on_c, 0, 46, 61
1, 1844617, Note_on_c, 0, 65, 71
1, 1844662, Note_off_c, 0, 65, 53
1, 1844690, Control_c, 0, 64, 35
1, 1844708, Control_c, 0, 64, 65
1, 1844714, Note_off_c, 0, 46, 61
1, 1844719, Note_on_c, 0, 48, 64
1, 1844727, Control_c, 0, 64, 85
1, 1844746, Control_c, 0, 64, 107
1, 1844764, Control_c, 0, 64, 127
1, 1844812, Note_off_c, 0, 48, 62
1, 1844812, Note_on_c, 0, 51, 74
1, 1844812, Poly_aftertouch_c, 0, 48, 0
1, 1844839, Control_c, 0, 64, 100
1, 1844858, Control_c, 0, 64, 70
1, 1844877, Note_off_c, 0, 77, 55
1, 1844877, Control_c, 0, 64, 57
1, 1844894, Note_off_c, 0, 51, 52
1, 1844895, Control_c, 0, 64, 65
1, 1844911, Note_on_c, 0, 50, 78
1, 1844914, Control_c, 0, 64, 78
1, 1844926, Note_off_c, 0, 74, 60
1, 1844933, Control_c, 0, 64, 94
1, 1844953, Control_c, 0, 64, 121
1, 1844971, Control_c, 0, 64, 127
1, 1844977, Note_off_c, 0, 50, 62
1, 1845008, Note_on_c, 0, 62, 66
1, 1845091, Note_off_c, 0, 62, 38
1, 1845094, Note_on_c, 0, 58, 77
1, 1845124, Note_off_c, 0, 58, 67
1, 1845176, Control_c, 0, 64, 115
1, 1845194, Control_c, 0, 64, 83
1, 1845214, Control_c, 0, 64, 48
1, 1845217, Control_c, 0, 67, 9
1, 1845233, Control_c, 0, 64, 0
1, 1845238, Note_on_c, 0, 74, 86
1, 1845244, Note_on_c, 0, 69, 77
1, 1845253, Control_c, 0, 67, 14
1, 1845255, Note_on_c, 0, 65, 70
1, 1845261, Note_on_c, 0, 50, 66
1, 1845327, Control_c, 0, 64, 32
1, 1845345, Control_c, 0, 64, 67
1, 1845360, Note_on_c, 0, 52, 68
1, 1845363, Note_off_c, 0, 50, 61
1, 1845363, Control_c, 0, 64, 93
1, 1845381, Control_c, 0, 64, 127
1, 1845414, Note_off_c, 0, 65, 50
1, 1845448, Note_off_c, 0, 52, 61
1, 1845448, Note_on_c, 0, 55, 65
1, 1845456, Control_c, 0, 64, 116
1, 1845477, Control_c, 0, 64, 76
1, 1845495, Control_c, 0, 64, 35
1, 1845495, Control_c, 0, 67, 9
1, 1845510, Note_off_c, 0, 69, 57
1, 1845510, Poly_aftertouch_c, 0, 69, 0
1, 1845511, Control_c, 0, 64, 0
1, 1845534, Note_off_c, 0, 55, 63
1, 1845534, Poly_aftertouch_c, 0, 55, 0
1, 1845539, Note_on_c, 0, 53, 77
1, 1845551, Control_c, 0, 64, 17
1, 1845552, Control_c, 0, 67, 0
1, 1845570, Control_c, 0, 64, 48
1, 1845583, Note_off_c, 0, 53, 64
1, 1845587, Control_c, 0, 64, 74
1, 1845607, Control_c, 0, 64, 98
1, 1845625, Control_c, 0, 64, 127
1, 1845682, Note_on_c, 0, 65, 71
1, 1845719, Control_c, 0, 64, 115
1, 1845728, Note_off_c, 0, 65, 58
1, 1845737, Control_c, 0, 64, 90
1, 1845757, Note_on_c, 0, 62, 73
1, 1845757, Control_c, 0, 64, 64
1, 1845774, Control_c, 0, 64, 31
1, 1845793, Control_c, 0, 64, 0
1, 1845812, Control_c, 0, 67, 9
1, 1845830, Note_off_c, 0, 62, 61
1, 1845831, Note_off_c, 0, 74, 56
1, 1845865, Note_on_c, 0, 70, 83
1, 1845869, Note_on_c, 0, 67, 80
1, 1845875, Note_on_c, 0, 55, 64
1, 1845924, Control_c, 0, 64, 54
1, 1845943, Control_c, 0, 64, 82
1, 1845946, Poly_aftertouch_c, 0, 74, 0
1, 1845963, Control_c, 0, 64, 109
1, 1845975, Note_off_c, 0, 55, 62
1, 1845975, Poly_aftertouch_c, 0, 55, 0
1, 1845976, Note_off_c, 0, 67, 53
1, 1845978, Note_on_c, 0, 57, 70
1, 1845980, Control_c, 0, 64, 127
1, 1845999, Control_c, 0, 64, 116
1, 1846018, Control_c, 0, 64, 83
1, 1846037, Control_c, 0, 64, 47
1, 1846044, Note_off_c, 0, 57, 62
1, 1846054, Control_c, 0, 64, 0
1, 1846067, Note_on_c, 0, 60, 67
1, 1846093, Control_c, 0, 64, 28
1, 1846111, Control_c, 0, 64, 56
1, 1846124, Note_off_c, 0, 60, 61
1, 1846124, Poly_aftertouch_c, 0, 60, 0
1, 1846129, Control_c, 0, 64, 76
1, 1846149, Control_c, 0, 64, 92
1, 1846167, Control_c, 0, 64, 114
1, 1846171, Note_on_c, 0, 58, 72
1, 1846185, Control_c, 0, 64, 127
1, 1846249, Note_off_c, 0, 58, 59
1, 1846260, Control_c, 0, 64, 111
1, 1846279, Note_on_c, 0, 67, 74
1, 1846279, Control_c, 0, 64, 73
1, 1846298, Control_c, 0, 64, 22
1, 1846316, Control_c, 0, 64, 0
1, 1846357, Note_off_c, 0, 67, 52
1, 1846378, Note_on_c, 0, 64, 68
1, 1846391, Control_c, 0, 64, 40
1, 1846410, Control_c, 0, 64, 72
1, 1846430, Control_c, 0, 64, 112
1, 1846445, Note_off_c, 0, 64, 53
1, 1846446, Control_c, 0, 64, 127
1, 1846468, Note_on_c, 0, 69, 82
1, 1846486, Note_on_c, 0, 65, 74
1, 1846505, Control_c, 0, 64, 97
1, 1846522, Control_c, 0, 64, 50
1, 1846541, Control_c, 0, 64, 0
1, 1846548, Note_off_c, 0, 70, 57
1, 1846569, Note_off_c, 0, 65, 59
1, 1846578, Control_c, 0, 64, 54
1, 1846578, Control_c, 0, 67, 0
1, 1846584, Note_on_c, 0, 62, 77
1, 1846598, Control_c, 0, 64, 87
1, 1846616, Control_c, 0, 64, 127
1, 1846659, Note_off_c, 0, 62, 61
1, 1846676, Note_on_c, 0, 57, 70
1, 1846719, Note_off_c, 0, 57, 65
1, 1846732, Note_off_c, 0, 69, 59
1, 1846732, Poly_aftertouch_c, 0, 69, 0
1, 1846776, Note_on_c, 0, 53, 80
1, 1846881, Note_off_c, 0, 53, 58
1, 1846881, Note_on_c, 0, 50, 67
1, 1846893, Note_on_c, 0, 48, 66
1, 1846940, Note_off_c, 0, 48, 47
1, 1846940, Poly_aftertouch_c, 0, 48, 0
1, 1846966, Note_off_c, 0, 50, 62
1, 1846969, Note_on_c, 0, 45, 76
1, 1847064, Control_c, 0, 64, 116
1, 1847084, Control_c, 0, 64, 101
1, 1847102, Control_c, 0, 64, 82
1, 1847111, Note_on_c, 0, 46, 73
1, 1847116, Note_on_c, 0, 67, 81
1, 1847117, Note_on_c, 0, 65, 74
1, 1847121, Control_c, 0, 64, 58
1, 1847136, Note_off_c, 0, 45, 59
1, 1847138, Control_c, 0, 64, 18
1, 1847158, Control_c, 0, 64, 0
1, 1847234, Control_c, 0, 64, 29
1, 1847241, Note_on_c, 0, 62, 74
1, 1847251, Control_c, 0, 64, 58
1, 1847270, Control_c, 0, 64, 82
1, 1847290, Control_c, 0, 64, 108
1, 1847309, Control_c, 0, 64, 127
1, 1847312, Note_off_c, 0, 65, 57
1, 1847324, Note_off_c, 0, 46, 61
1, 1847338, Note_on_c, 0, 58, 72
1, 1847368, Note_off_c, 0, 62, 61
1, 1847425, Note_on_c, 0, 55, 79
1, 1847448, Note_off_c, 0, 58, 62
1, 1847456, Control_c, 0, 64, 102
1, 1847476, Control_c, 0, 64, 65
1, 1847495, Control_c, 0, 64, 28
1, 1847512, Note_on_c, 0, 53, 71
1, 1847513, Control_c, 0, 64, 0
1, 1847514, Note_off_c, 0, 55, 62
1, 1847514, Poly_aftertouch_c, 0, 55, 0
1, 1847532, Control_c, 0, 64, 41
1, 1847551, Control_c, 0, 64, 76
1, 1847570, Control_c, 0, 64, 114
1, 1847588, Control_c, 0, 64, 127
1, 1847592, Note_off_c, 0, 53, 63
1, 1847597, Note_off_c, 0, 67, 59
1, 1847605, Note_on_c, 0, 50, 72
1, 1847688, Note_off_c, 0, 50, 60
1, 1847695, Note_on_c, 0, 46, 74
1, 1847767, Note_off_c, 0, 46, 64
1, 1847798, Note_on_c, 0, 43, 80
1, 1847879, Note_on_c, 0, 58, 76
1, 1847893, Note_on_c, 0, 41, 82
1, 1847901, Note_off_c, 0, 43, 63
1, 1847923, Note_on_c, 0, 67, 74
1, 1847923, Control_c, 0, 64, 114
1, 1847944, Control_c, 0, 64, 63
1, 1847963, Control_c, 0, 64, 0
1, 1847994, Note_on_c, 0, 40, 75
1, 1847999, Note_off_c, 0, 41, 60
1, 1848006, Note_on_c, 0, 72, 82
1, 1848019, Control_c, 0, 64, 50
1, 1848026, Note_off_c, 0, 58, 64
1, 1848037, Control_c, 0, 64, 93
1, 1848055, Control_c, 0, 64, 127
1, 1848066, Note_off_c, 0, 67, 63
1, 1848089, Note_on_c, 0, 38, 83
1, 1848101, Note_off_c, 0, 72, 63
1, 1848103, Note_off_c, 0, 40, 60
1, 1848215, Note_on_c, 0, 36, 82
1, 1848223, Note_off_c, 0, 38, 61
1, 1848223, Control_c, 0, 64, 100
1, 1848243, Control_c, 0, 64, 49
1, 1848262, Control_c, 0, 64, 0
1, 1848297, Note_on_c, 0, 48, 68
1, 1848303, Note_off_c, 0, 36, 62
1, 1848303, Poly_aftertouch_c, 0, 36, 0
1, 1848312, Note_on_c, 0, 73, 84
1, 1848323, Note_on_c, 0, 64, 70
1, 1848337, Note_off_c, 0, 48, 65
1, 1848337, Poly_aftertouch_c, 0, 48, 0
1, 1848359, Note_off_c, 0, 64, 66
1, 1848432, Note_on_c, 0, 70, 81
1, 1848436, Note_off_c, 0, 73, 60
1, 1848523, Control_c, 0, 64, 110
1, 1848541, Control_c, 0, 64, 127
1, 1848542, Control_c, 0, 67, 8
1, 1848544, Note_on_c, 0, 68, 93
1, 1848547, Note_on_c, 0, 61, 96
1, 1848548, Note_on_c, 0, 58, 94
1, 1848560, Control_c, 0, 67, 12
1, 1848568, Note_off_c, 0, 70, 61
1, 1848581, Control_c, 0, 67, 17
1, 1848596, Note_off_c, 0, 61, 63
1, 1848596, Poly_aftertouch_c, 0, 61, 0
1, 1848596, Control_c, 0, 67, 23
1, 1848605, Note_off_c, 0, 58, 61
1, 1848617, Control_c, 0, 67, 29
1, 1848636, Control_c, 0, 67, 33
1, 1848679, Note_on_c, 0, 67, 82
1, 1848682, Note_off_c, 0, 68, 56
1, 1848742, Note_off_c, 0, 67, 63
1, 1848790, Note_on_c, 0, 56, 80
1, 1848790, Note_on_c, 0, 68, 88
1, 1848795, Note_on_c, 0, 60, 78
1, 1848826, Note_off_c, 0, 60, 70
1, 1848826, Poly_aftertouch_c, 0, 60, 0
1, 1848844, Control_c, 0, 64, 74
1, 1848846, Control_c, 0, 67, 38
1, 1848847, Note_off_c, 0, 56, 62
1, 1848859, Control_c, 0, 64, 0
1, 1848860, Control_c, 0, 67, 47
1, 1848879, Control_c, 0, 67, 59
1, 1848889, Note_on_c, 0, 70, 85
1, 1848892, Note_on_c, 0, 58, 84
1, 1848898, Note_off_c, 0, 68, 61
1, 1848899, Control_c, 0, 67, 72
1, 1848905, Note_on_c, 0, 55, 68
1, 1848916, Control_c, 0, 67, 84
1, 1848935, Control_c, 0, 67, 96
1, 1848945, Note_off_c, 0, 55, 65
1, 1848945, Poly_aftertouch_c, 0, 55, 0
1, 1848949, Note_off_c, 0, 58, 65
1, 1848952, Control_c, 0, 67, 107
1, 1848972, Control_c, 0, 67, 115
1, 1848997, Note_on_c, 0, 72, 88
1, 1849004, Note_on_c, 0, 53, 81
1, 1849006, Note_on_c, 0, 56, 76
1, 1849023, Note_off_c, 0, 70, 65
1, 1849027, Control_c, 0, 67, 119
1, 1849044, Note_off_c, 0, 53, 65
1, 1849056, Note_off_c, 0, 56, 61
1, 1849059, Poly_aftertouch_c, 0, 55, 0
1, 1849092, Note_on_c, 0, 68, 82
1, 1849112, Note_off_c, 0, 72, 63
1, 1849198, Note_on_c, 0, 67, 81
1, 1849207, Note_off_c, 0, 68, 64
1, 1849258, Note_on_c, 0, 58, 75
1, 1849262, Note_on_c, 0, 55, 68
1, 1849271, Control_c, 0, 67, 103
1, 1849290, Control_c, 0, 67, 67
1, 1849291, Note_off_c, 0, 67, 60
1, 1849292, Note_on_c, 0, 60, 80
1, 1849298, Note_on_c, 0, 65, 83
1, 1849300, Note_on_c, 0, 56, 78
1, 1849309, Control_c, 0, 67, 0
1, 1849312, Note_off_c, 0, 55, 63
1, 1849328, Note_off_c, 0, 58, 62
1, 1849335, Note_off_c, 0, 60, 64
1, 1849335, Poly_aftertouch_c, 0, 60, 0
1, 1849350, Note_off_c, 0, 56, 63
1, 1849399, Note_on_c, 0, 68, 84
1, 1849414, Note_off_c, 0, 65, 59
1, 1849502, Note_on_c, 0, 72, 69
1, 1849515, Note_off_c, 0, 68, 61
1, 1849605, Note_on_c, 0, 73, 84
1, 1849607, Note_on_c, 0, 36, 74
1, 1849621, Note_off_c, 0, 72, 60
1, 1849643, Note_off_c, 0, 36, 63
1, 1849643, Poly_aftertouch_c, 0, 36, 0
1, 1849644, Control_c, 0, 64, 75
1, 1849664, Control_c, 0, 64, 124
1, 1849685, Note_on_c, 0, 70, 81
1, 1849725, Note_off_c, 0, 73, 62
1, 1849795, Control_c, 0, 64, 78
1, 1849812, Note_on_c, 0, 68, 90
1, 1849812, Control_c, 0, 64, 51
1, 1849819, Note_on_c, 0, 61, 99
1, 1849824, Note_on_c, 0, 58, 88
1, 1849831, Control_c, 0, 64, 78
1, 1849843, Note_on_c, 0, 59, 81
1, 1849847, Note_off_c, 0, 70, 61
1, 1849851, Control_c, 0, 64, 127
1, 1849870, Note_off_c, 0, 61, 64
1, 1849870, Poly_aftertouch_c, 0, 61, 0
1, 1849873, Note_off_c, 0, 59, 68
1, 1849888, Note_off_c, 0, 58, 48
1, 1849932, Note_off_c, 0, 68, 63
1, 1849950, Note_on_c, 0, 67, 84
1, 1850039, Note_off_c, 0, 67, 58
1, 1850063, Note_on_c, 0, 56, 82
1, 1850068, Note_on_c, 0, 60, 80
1, 1850070, Note_on_c, 0, 79, 84
1, 1850100, Note_off_c, 0, 60, 67
1, 1850100, Poly_aftertouch_c, 0, 60, 0
1, 1850123, Note_off_c, 0, 56, 65
1, 1850167, Note_on_c, 0, 76, 83
1, 1850170, Note_on_c, 0, 58, 88
1, 1850171, Note_off_c, 0, 79, 63
1, 1850180, Note_on_c, 0, 55, 72
1, 1850186, Control_c, 0, 64, 101
1, 1850206, Control_c, 0, 64, 28
1, 1850225, Control_c, 0, 64, 0
1, 1850226, Note_off_c, 0, 55, 59
1, 1850262, Note_off_c, 0, 76, 63
1, 1850262, Note_on_c, 0, 73, 92
1, 1850263, Note_on_c, 0, 53, 87
1, 1850274, Note_on_c, 0, 56, 79
1, 1850275, Note_off_c, 0, 58, 44
1, 1850306, Note_off_c, 0, 56, 70
1, 1850317, Note_off_c, 0, 53, 60
1, 1850358, Note_off_c, 0, 73, 61
1, 1850366, Note_on_c, 0, 72, 83
1, 1850471, Note_on_c, 0, 84, 82
1, 1850486, Note_off_c, 0, 72, 55
1, 1850508, Note_on_c, 0, 58, 80
1, 1850512, Note_on_c, 0, 55, 75
1, 1850567, Note_on_c, 0, 56, 84
1, 1850570, Note_on_c, 0, 60, 86
1, 1850574, Note_on_c, 0, 80, 80
1, 1850588, Note_off_c, 0, 55, 59
1, 1850592, Note_off_c, 0, 84, 62
1, 1850599, Note_off_c, 0, 58, 64
1, 1850605, Note_off_c, 0, 60, 68
1, 1850605, Poly_aftertouch_c, 0, 60, 0
1, 1850618, Note_off_c, 0, 56, 65
1, 1850667, Note_on_c, 0, 77, 81
1, 1850686, Note_off_c, 0, 80, 64
1, 1850747, Note_off_c, 0, 77, 61
1, 1850765, Note_on_c, 0, 72, 80
1, 1850857, Note_on_c, 0, 41, 83
1, 1850868, Note_off_c, 0, 72, 61
1, 1850872, Note_on_c, 0, 78, 87
1, 1850896, Note_off_c, 0, 41, 68
1, 1850900, Control_c, 0, 64, 25
1, 1850917, Control_c, 0, 64, 108
1, 1850936, Control_c, 0, 64, 127
1, 1850961, Note_on_c, 0, 75, 86
1, 1850990, Note_off_c, 0, 78, 63
1, 1851069, Note_on_c, 0, 73, 96
1, 1851077, Note_on_c, 0, 66, 96
1, 1851078, Note_on_c, 0, 63, 98
1, 1851084, Control_c, 0, 64, 98
1, 1851093, Note_off_c, 0, 75, 62
1, 1851103, Control_c, 0, 64, 107
1, 1851123, Control_c, 0, 64, 127
1, 1851125, Note_off_c, 0, 63, 65
1, 1851127, Note_off_c, 0, 66, 63
1, 1851195, Note_on_c, 0, 72, 87
1, 1851199, Note_off_c, 0, 73, 59
1, 1851259, Note_off_c, 0, 72, 62
1, 1851306, Note_on_c, 0, 65, 85
1, 1851309, Note_on_c, 0, 61, 82
1, 1851309, Note_on_c, 0, 73, 92
1, 1851309, Control_c, 0, 64, 90
1, 1851329, Control_c, 0, 64, 50
1, 1851343, Note_off_c, 0, 65, 63
1, 1851346, Control_c, 0, 64, 63
1, 1851365, Control_c, 0, 64, 99
1, 1851372, Note_off_c, 0, 61, 64
1, 1851372, Poly_aftertouch_c, 0, 61, 0
1, 1851384, Control_c, 0, 64, 127
1, 1851407, Note_on_c, 0, 75, 89
1, 1851413, Note_on_c, 0, 63, 86
1, 1851421, Note_on_c, 0, 60, 80
1, 1851441, Note_off_c, 0, 73, 50
1, 1851502, Note_on_c, 0, 58, 78
1, 1851505, Note_on_c, 0, 77, 88
1, 1851513, Control_c, 0, 64, 92
1, 1851523, Note_off_c, 0, 60, 65
1, 1851523, Poly_aftertouch_c, 0, 60, 0
1, 1851530, Note_off_c, 0, 63, 63
1, 1851533, Control_c, 0, 64, 26
1, 1851536, Note_off_c, 0, 75, 64
1, 1851552, Note_off_c, 0, 58, 60
1, 1851553, Control_c, 0, 64, 0
1, 1851593, Note_on_c, 0, 73, 78
1, 1851622, Note_off_c, 0, 77, 62
1, 1851706, Note_on_c, 0, 72, 82
1, 1851708, Note_off_c, 0, 73, 65
1, 1851745, Note_on_c, 0, 60, 75
1, 1851749, Note_on_c, 0, 63, 76
1, 1851787, Note_off_c, 0, 72, 59
1, 1851791, Note_on_c, 0, 65, 81
1, 1851804, Note_on_c, 0, 70, 91
1, 1851810, Note_on_c, 0, 61, 78
1, 1851820, Note_off_c, 0, 60, 65
1, 1851820, Poly_aftertouch_c, 0, 60, 0
1, 1851833, Note_off_c, 0, 63, 64
1, 1851835, Note_off_c, 0, 65, 66
1, 1851856, Note_off_c, 0, 61, 63
1, 1851856, Poly_aftertouch_c, 0, 61, 0
1, 1851902, Note_on_c, 0, 73, 86
1, 1851916, Note_off_c, 0, 70, 60
1, 1852004, Note_on_c, 0, 77, 77
1, 1852028, Note_off_c, 0, 73, 61
1, 1852081, Note_on_c, 0, 44, 89
1, 1852096, Note_on_c, 0, 82, 93
1, 1852107, Note_off_c, 0, 77, 61
1, 1852113, Control_c, 0, 64, 45
1, 1852124, Note_off_c, 0, 44, 64
1, 1852132, Control_c, 0, 64, 111
1, 1852150, Control_c, 0, 64, 127
1, 1852204, Note_on_c, 0, 78, 84
1, 1852216, Note_off_c, 0, 82, 63
1, 1852216, Poly_aftertouch_c, 0, 82, 0
1, 1852299, Note_on_c, 0, 77, 88
1, 1852306, Note_off_c, 0, 78, 64
1, 1852311, Note_on_c, 0, 66, 92
1, 1852313, Note_on_c, 0, 70, 92
1, 1852319, Control_c, 0, 64, 95
1, 1852356, Control_c, 0, 64, 127
1, 1852366, Note_off_c, 0, 70, 67
1, 1852396, Note_off_c, 0, 66, 59
1, 1852409, Note_off_c, 0, 77, 59
1, 1852428, Note_on_c, 0, 75, 90
1, 1852511, Note_off_c, 0, 75, 63
1, 1852542, Note_on_c, 0, 87, 80
1, 1852544, Note_on_c, 0, 68, 82
1, 1852553, Note_on_c, 0, 65, 82
1, 1852598, Note_off_c, 0, 68, 67
1, 1852600, Control_c, 0, 64, 91
1, 1852612, Note_off_c, 0, 65, 64
1, 1852618, Control_c, 0, 64, 76
1, 1852636, Control_c, 0, 64, 98
1, 1852647, Note_on_c, 0, 84, 83
1, 1852654, Control_c, 0, 64, 127
1, 1852664, Note_on_c, 0, 66, 92
1, 1852672, Note_on_c, 0, 63, 82
1, 1852673, Note_off_c, 0, 87, 63
1, 1852721, Note_off_c, 0, 66, 63
1, 1852725, Note_off_c, 0, 63, 58
1, 1852749, Control_c, 0, 64, 115
1, 1852756, Note_on_c, 0, 82, 95
1, 1852768, Control_c, 0, 64, 123
1, 1852772, Note_off_c, 0, 84, 62
1, 1852784, Note_on_c, 0, 65, 84
1, 1852785, Note_on_c, 0, 61, 83
1, 1852787, Note_on_c, 0, 63, 52
1, 1852787, Control_c, 0, 64, 127
1, 1852818, Note_off_c, 0, 63, 67
1, 1852839, Note_off_c, 0, 65, 62
1, 1852866, Note_off_c, 0, 61, 60
1, 1852866, Poly_aftertouch_c, 0, 61, 0
1, 1852876, Note_off_c, 0, 82, 63
1, 1852876, Poly_aftertouch_c, 0, 82, 0
1, 1852878, Note_on_c, 0, 80, 92
1, 1852989, Note_on_c, 0, 92, 85
1, 1853004, Note_on_c, 0, 66, 74
1, 1853004, Note_on_c, 0, 63, 79
1, 1853011, Control_c, 0, 64, 96
1, 1853019, Note_off_c, 0, 80, 58
1, 1853029, Control_c, 0, 64, 36
1, 1853049, Control_c, 0, 64, 0
1, 1853054, Note_off_c, 0, 66, 57
1, 1853060, Note_off_c, 0, 63, 60
1, 1853068, Control_c, 0, 64, 23
1, 1853086, Note_on_c, 0, 65, 82
1, 1853086, Note_on_c, 0, 68, 92
1, 1853086, Control_c, 0, 64, 77
1, 1853090, Note_on_c, 0, 89, 82
1, 1853104, Control_c, 0, 64, 127
1, 1853130, Note_off_c, 0, 92, 65
1, 1853134, Note_off_c, 0, 68, 67
1, 1853150, Note_off_c, 0, 65, 64
1, 1853152, Poly_aftertouch_c, 0, 66, 127
1, 1853175, Poly_aftertouch_c, 0, 66, 0
1, 1853192, Note_on_c, 0, 85, 81
1, 1853194, Poly_aftertouch_c, 0, 63, 0
1, 1853211, Note_off_c, 0, 89, 62
1, 1853211, Poly_aftertouch_c, 0, 89, 0
1, 1853270, Note_off_c, 0, 85, 64
1, 1853305, Note_on_c, 0, 80, 90
1, 1853366, Note_off_c, 0, 80, 60
1, 1853422, Control_c, 0, 64, 92
1, 1853441, Control_c, 0, 64, 28
1, 1853452, Note_on_c, 0, 48, 97
1, 1853457, Note_on_c, 0, 84, 91
1, 1853457, Note_on_c, 0, 36, 92
1, 1853459, Control_c, 0, 64, 23
1, 1853479, Control_c, 0, 64, 77
1, 1853497, Control_c, 0, 64, 127
1, 1853507, Note_off_c, 0, 48, 69
1, 1853507, Poly_aftertouch_c, 0, 48, 0
1, 1853511, Note_off_c, 0, 36, 63
1, 1853511, Poly_aftertouch_c, 0, 36, 0
1, 1853575, Poly_aftertouch_c, 0, 44, 127
1, 1853577, Note_on_c, 0, 39, 14
1, 1853583, Note_on_c, 0, 79, 89
1, 1853585, Note_off_c, 0, 39, 34
1, 1853589, Poly_aftertouch_c, 0, 44, 0
1, 1853610, Note_off_c, 0, 84, 62
1, 1853695, Note_on_c, 0, 77, 90
1, 1853702, Note_off_c, 0, 79, 65
1, 1853767, Note_off_c, 0, 77, 62
1, 1853855, Note_on_c, 0, 72, 106
1, 1853857, Note_on_c, 0, 77, 96
1, 1853859, Note_on_c, 0, 65, 82
1, 1853859, Note_on_c, 0, 67, 89
1, 1853861, Note_on_c, 0, 60, 87
1, 1853870, Control_c, 0, 64, 111
1, 1853890, Note_on_c, 0, 68, 57
1, 1853890, Control_c, 0, 64, 77
1, 1853891, Note_off_c, 0, 68, 127
1, 1853927, Control_c, 0, 64, 99
1, 1853946, Control_c, 0, 64, 127
1, 1853967, Note_on_c, 0, 89, 72
1, 1853982, Note_off_c, 0, 77, 59
1, 1854003, Poly_aftertouch_c, 0, 63, 0
1, 1854067, Note_on_c, 0, 84, 79
1, 1854087, Note_off_c, 0, 89, 61
1, 1854087, Poly_aftertouch_c, 0, 89, 0
1, 1854091, Note_off_c, 0, 72, 49
1, 1854154, Note_off_c, 0, 60, 38
1, 1854154, Poly_aftertouch_c, 0, 60, 0
1, 1854157, Note_off_c, 0, 84, 63
1, 1854161, Note_off_c, 0, 65, 54
1, 1854172, Note_on_c, 0, 79, 79
1, 1854181, Note_off_c, 0, 67, 56
1, 1854227, Note_off_c, 0, 79, 58
1, 1854263, Note_on_c, 0, 79, 70
1, 1854345, Note_off_c, 0, 79, 60
1, 1854372, Note_on_c, 0, 91, 91
1, 1854394, Control_c, 0, 64, 120
1, 1854414, Control_c, 0, 64, 67
1, 1854427, Note_on_c, 0, 67, 66
1, 1854428, Note_on_c, 0, 72, 80
1, 1854432, Control_c, 0, 64, 0
1, 1854440, Note_on_c, 0, 64, 64
1, 1854449, Note_on_c, 0, 60, 63
1, 1854451, Control_c, 0, 64, 23
1, 1854463, Note_on_c, 0, 88, 84
1, 1854468, Control_c, 0, 64, 60
1, 1854485, Note_off_c, 0, 91, 65
1, 1854488, Control_c, 0, 64, 85
1, 1854506, Control_c, 0, 64, 115
1, 1854512, Note_off_c, 0, 67, 61
1, 1854512, Note_off_c, 0, 72, 61
1, 1854514, Note_off_c, 0, 64, 62
1, 1854527, Control_c, 0, 64, 127
1, 1854531, Note_off_c, 0, 60, 55
1, 1854531, Poly_aftertouch_c, 0, 60, 0
1, 1854571, Note_off_c, 0, 88, 67
1, 1854572, Note_on_c, 0, 84, 96
1, 1854617, Note_on_c, 0, 72, 80
1, 1854623, Note_on_c, 0, 65, 74
1, 1854627, Note_on_c, 0, 60, 67
1, 1854632, Note_on_c, 0, 62, 60
1, 1854698, Note_on_c, 0, 96, 93
1, 1854707, Note_off_c, 0, 72, 60
1, 1854714, Note_off_c, 0, 65, 62
1, 1854732, Note_off_c, 0, 62, 61
1, 1854743, Note_off_c, 0, 60, 57
1, 1854743, Poly_aftertouch_c, 0, 60, 0
1, 1854749, Note_on_c, 0, 95, 28
1, 1854750, Note_off_c, 0, 95, 127
1, 1854752, Note_off_c, 0, 84, 62
1, 1854837, Note_on_c, 0, 72, 92
1, 1854838, Note_on_c, 0, 94, 90
1, 1854842, Note_on_c, 0, 64, 80
1, 1854845, Note_on_c, 0, 67, 80
1, 1854847, Note_on_c, 0, 60, 80
1, 1854862, Control_c, 0, 64, 101
1, 1854881, Control_c, 0, 64, 51
1, 1854899, Control_c, 0, 64, 0
1, 1854918, Control_c, 0, 64, 25
1, 1854920, Note_off_c, 0, 96, 63
1, 1854936, Control_c, 0, 64, 61
1, 1854956, Control_c, 0, 64, 90
1, 1854962, Note_on_c, 0, 91, 85
1, 1854964, Poly_aftertouch_c, 0, 62, 0
1, 1854973, Control_c, 0, 64, 127
1, 1855026, Note_off_c, 0, 94, 65
1, 1855054, Note_on_c, 0, 88, 86
1, 1855064, Note_off_c, 0, 67, 60
1, 1855071, Note_off_c, 0, 64, 61
1, 1855086, Note_off_c, 0, 72, 57
1, 1855089, Note_off_c, 0, 91, 64
1, 1855101, Note_off_c, 0, 60, 62
1, 1855101, Poly_aftertouch_c, 0, 60, 0
1, 1855163, Note_on_c, 0, 86, 86
1, 1855169, Note_on_c, 0, 69, 95
1, 1855170, Note_off_c, 0, 88, 65
1, 1855171, Note_on_c, 0, 72, 97
1, 1855174, Note_on_c, 0, 60, 80
1, 1855175, Note_on_c, 0, 65, 86
1, 1855180, Control_c, 0, 64, 98
1, 1855199, Control_c, 0, 64, 47
1, 1855217, Control_c, 0, 64, 0
1, 1855232, Note_off_c, 0, 86, 65
1, 1855236, Control_c, 0, 64, 37
1, 1855254, Control_c, 0, 64, 80
1, 1855265, Note_on_c, 0, 84, 85
1, 1855273, Control_c, 0, 64, 127
1, 1855355, Note_off_c, 0, 69, 56
1, 1855355, Poly_aftertouch_c, 0, 69, 0
1, 1855356, Note_off_c, 0, 84, 62
1, 1855367, Note_on_c, 0, 83, 88
1, 1855372, Note_off_c, 0, 65, 57
1, 1855398, Note_off_c, 0, 72, 56
1, 1855406, Note_off_c, 0, 60, 62
1, 1855406, Poly_aftertouch_c, 0, 60, 0
1, 1855441, Control_c, 0, 64, 118
1, 1855460, Control_c, 0, 64, 60
1, 1855479, Control_c, 0, 64, 0
1, 1855490, Note_on_c, 0, 82, 88
1, 1855492, Note_on_c, 0, 70, 91
1, 1855494, Note_on_c, 0, 72, 101
1, 1855499, Note_on_c, 0, 67, 85
1, 1855499, Note_on_c, 0, 60, 78
1, 1855509, Note_off_c, 0, 83, 64
1, 1855509, Note_on_c, 0, 83, 36
1, 1855515, Control_c, 0, 64, 33
1, 1855520, Note_on_c, 0, 69, 67
1, 1855520, Poly_aftertouch_c, 0, 69, 0
1, 1855521, Note_off_c, 0, 69, 127
1, 1855522, Note_off_c, 0, 83, 65
1, 1855535, Control_c, 0, 64, 87
1, 1855554, Control_c, 0, 64, 127
1, 1855570, Note_off_c, 0, 72, 65
1, 1855599, Note_off_c, 0, 60, 65
1, 1855599, Poly_aftertouch_c, 0, 60, 0
1, 1855608, Note_off_c, 0, 67, 60
1, 1855610, Note_on_c, 0, 79, 82
1, 1855613, Note_off_c, 0, 70, 66
1, 1855661, Note_off_c, 0, 82, 64
1, 1855661, Poly_aftertouch_c, 0, 82, 0
1, 1855705, Note_on_c, 0, 76, 82
1, 1855719, Note_off_c, 0, 79, 62
1, 1855782, Note_off_c, 0, 76, 62
1, 1855793, Note_on_c, 0, 72, 78
1, 1855834, Note_off_c, 0, 72, 60
1, 1855900, Note_on_c, 0, 70, 77
1, 1855957, Note_off_c, 0, 70, 63
1, 1855968, Note_on_c, 0, 71, 26
1, 1855997, Note_on_c, 0, 67, 78
1, 1856022, Note_off_c, 0, 71, 42
1, 1856048, Note_off_c, 0, 67, 59
1, 1856115, Control_c, 0, 64, 99
1, 1856117, Note_on_c, 0, 60, 92
1, 1856119, Note_on_c, 0, 55, 81
1, 1856121, Note_on_c, 0, 52, 78
1, 1856127, Note_on_c, 0, 48, 80
1, 1856128, Note_on_c, 0, 82, 84
1, 1856134, Control_c, 0, 64, 53
1, 1856152, Control_c, 0, 64, 0
1, 1856172, Control_c, 0, 64, 35
1, 1856189, Control_c, 0, 64, 65
1, 1856209, Control_c, 0, 64, 87
1, 1856228, Control_c, 0, 64, 125
1, 1856233, Note_on_c, 0, 79, 76
1, 1856293, Note_off_c, 0, 55, 60
1, 1856294, Note_off_c, 0, 82, 61
1, 1856294, Poly_aftertouch_c, 0, 82, 0
1, 1856298, Note_off_c, 0, 52, 58
1, 1856327, Note_on_c, 0, 76, 82
1, 1856331, Note_off_c, 0, 60, 60
1, 1856331, Poly_aftertouch_c, 0, 60, 0
1, 1856347, Note_off_c, 0, 79, 61
1, 1856349, Note_off_c, 0, 48, 60
1, 1856349, Poly_aftertouch_c, 0, 48, 0
1, 1856432, Control_c, 0, 64, 91
1, 1856434, Note_on_c, 0, 74, 83
1, 1856435, Note_off_c, 0, 76, 63
1, 1856440, Note_on_c, 0, 57, 96
1, 1856441, Note_on_c, 0, 53, 89
1, 1856441, Note_on_c, 0, 60, 103
1, 1856449, Note_on_c, 0, 48, 86
1, 1856450, Control_c, 0, 64, 10
1, 1856469, Control_c, 0, 64, 0
1, 1856503, Note_off_c, 0, 74, 64
1, 1856507, Control_c, 0, 64, 51
1, 1856526, Control_c, 0, 64, 88
1, 1856542, Note_on_c, 0, 72, 84
1, 1856544, Control_c, 0, 64, 127
1, 1856576, Poly_aftertouch_c, 0, 50, 0
1, 1856625, Note_off_c, 0, 57, 59
1, 1856625, Note_off_c, 0, 72, 61
1, 1856647, Note_on_c, 0, 71, 85
1, 1856650, Note_off_c, 0, 60, 55
1, 1856650, Note_off_c, 0, 53, 54
1, 1856650, Poly_aftertouch_c, 0, 60, 0
1, 1856677, Note_off_c, 0, 48, 59
1, 1856677, Poly_aftertouch_c, 0, 48, 0
1, 1856714, Control_c, 0, 64, 113
1, 1856728, Note_off_c, 0, 71, 60
1, 1856730, Control_c, 0, 64, 54
1, 1856751, Control_c, 0, 64, 0
1, 1856772, Note_on_c, 0, 60, 105
1, 1856775, Note_on_c, 0, 70, 90
1, 1856778, Note_on_c, 0, 58, 93
1, 1856778, Note_on_c, 0, 55, 88
1, 1856784, Note_on_c, 0, 48, 87
1, 1856806, Control_c, 0, 64, 43
1, 1856815, Note_on_c, 0, 71, 20
1, 1856826, Control_c, 0, 64, 92
1, 1856835, Note_on_c, 0, 57, 21
1, 1856836, Note_off_c, 0, 57, 127
1, 1856844, Control_c, 0, 64, 127
1, 1856865, Note_off_c, 0, 60, 64
1, 1856865, Poly_aftertouch_c, 0, 60, 0
1, 1856873, Note_off_c, 0, 71, 28
1, 1856892, Note_on_c, 0, 67, 80
1, 1856896, Poly_aftertouch_c, 0, 57, 0
1, 1856909, Note_off_c, 0, 58, 58
1, 1856918, Note_off_c, 0, 48, 61
1, 1856918, Poly_aftertouch_c, 0, 48, 0
1, 1856936, Note_off_c, 0, 55, 47
1, 1856945, Note_off_c, 0, 70, 65
1, 1856997, Note_on_c, 0, 64, 82
1, 1857017, Note_off_c, 0, 67, 62
1, 1857092, Note_on_c, 0, 60, 83
1, 1857101, Note_off_c, 0, 64, 64
1, 1857118, Note_off_c, 0, 60, 68
1, 1857118, Poly_aftertouch_c, 0, 60, 0
1, 1857133, Note_on_c, 0, 58, 69
1, 1857183, Note_off_c, 0, 58, 58
1, 1857221, Note_on_c, 0, 55, 80
1, 1857259, Note_off_c, 0, 55, 68
1, 1857415, Note_on_c, 0, 36, 64
1, 1857423, Control_c, 0, 64, 117
1, 1857442, Control_c, 0, 64, 55
1, 1857444, Note_on_c, 0, 43, 68
1, 1857462, Control_c, 0, 64, 0
1, 1857474, Note_off_c, 0, 36, 63
1, 1857474, Poly_aftertouch_c, 0, 36, 0
1, 1857475, Note_on_c, 0, 96, 94
1, 1857496, Note_on_c, 0, 52, 99
1, 1857517, Control_c, 0, 64, 56
1, 1857535, Control_c, 0, 64, 95
1, 1857555, Control_c, 0, 64, 127
1, 1857562, Note_off_c, 0, 43, 64
1, 1857589, Note_on_c, 0, 94, 87
1, 1857593, Poly_aftertouch_c, 0, 39, 0
1, 1857618, Note_off_c, 0, 52, 57
1, 1857649, Note_off_c, 0, 96, 63
1, 1857693, Note_on_c, 0, 91, 81
1, 1857742, Control_c, 0, 64, 106
1, 1857754, Note_off_c, 0, 94, 65
1, 1857760, Control_c, 0, 64, 39
1, 1857768, Note_on_c, 0, 38, 72
1, 1857780, Control_c, 0, 64, 0
1, 1857793, Note_on_c, 0, 48, 70
1, 1857810, Note_off_c, 0, 38, 67
1, 1857825, Note_on_c, 0, 89, 89
1, 1857832, Note_on_c, 0, 53, 106
1, 1857854, Note_off_c, 0, 91, 63
1, 1857854, Control_c, 0, 64, 73
1, 1857872, Control_c, 0, 64, 127
1, 1857896, Poly_aftertouch_c, 0, 46, 0
1, 1857921, Note_off_c, 0, 48, 60
1, 1857921, Poly_aftertouch_c, 0, 48, 0
1, 1857933, Note_on_c, 0, 88, 89
1, 1857942, Note_off_c, 0, 89, 63
1, 1857942, Poly_aftertouch_c, 0, 89, 0
1, 1857957, Note_off_c, 0, 53, 48
1, 1857978, Poly_aftertouch_c, 0, 46, 0
1, 1858010, Note_off_c, 0, 88, 64
1, 1858042, Note_on_c, 0, 86, 88
1, 1858114, Note_on_c, 0, 40, 71
1, 1858116, Control_c, 0, 64, 104
1, 1858134, Control_c, 0, 64, 46
1, 1858152, Control_c, 0, 64, 0
1, 1858169, Note_on_c, 0, 48, 54
1, 1858192, Note_off_c, 0, 40, 63
1, 1858206, Note_off_c, 0, 86, 65
1, 1858214, Note_on_c, 0, 55, 110
1, 1858225, Note_on_c, 0, 84, 96
1, 1858228, Control_c, 0, 64, 58
1, 1858247, Control_c, 0, 64, 125
1, 1858270, Note_off_c, 0, 48, 63
1, 1858270, Poly_aftertouch_c, 0, 48, 0
1, 1858281, Note_off_c, 0, 55, 68
1, 1858319, Note_off_c, 0, 84, 63
1, 1858333, Poly_aftertouch_c, 0, 46, 0
1, 1858359, Note_on_c, 0, 82, 85
1, 1858465, Note_on_c, 0, 79, 80
1, 1858509, Note_off_c, 0, 82, 64
1, 1858509, Poly_aftertouch_c, 0, 82, 0
1, 1858558, Note_on_c, 0, 76, 83
1, 1858570, Note_off_c, 0, 79, 62
1, 1858621, Note_off_c, 0, 76, 63
1, 1858644, Note_on_c, 0, 72, 80
1, 1858689, Note_off_c, 0, 72, 60
1, 1858733, Note_on_c, 0, 70, 83
1, 1858817, Note_on_c, 0, 67, 80
1, 1858848, Note_off_c, 0, 70, 66
1, 1858891, Note_on_c, 0, 64, 80
1, 1858905, Note_off_c, 0, 67, 62
1, 1858961, Note_off_c, 0, 64, 63
1, 1858974, Note_on_c, 0, 60, 81
1, 1859018, Note_off_c, 0, 60, 58
1, 1859018, Poly_aftertouch_c, 0, 60, 0
1, 1859064, Note_on_c, 0, 58, 83
1, 1859128, Note_on_c, 0, 55, 75
1, 1859155, Note_off_c, 0, 58, 62
1, 1859196, Note_on_c, 0, 52, 82
1, 1859229, Note_off_c, 0, 55, 63
1, 1859275, Note_on_c, 0, 48, 87
1, 1859284, Note_off_c, 0, 52, 63
1, 1859293, Note_on_c, 0, 46, 84
1, 1859332, Note_off_c, 0, 48, 65
1, 1859332, Poly_aftertouch_c, 0, 48, 0
1, 1859348, Note_off_c, 0, 46, 64
1, 1859355, Note_on_c, 0, 43, 66
1, 1859412, Note_on_c, 0, 40, 79
1, 1859438, Note_off_c, 0, 43, 61
1, 1859502, Note_on_c, 0, 36, 98
1, 1859543, Note_on_c, 0, 38, 60
1, 1859545, Note_off_c, 0, 40, 59
1, 1859570, Note_off_c, 0, 36, 67
1, 1859570, Poly_aftertouch_c, 0, 36, 0
1, 1859581, Note_off_c, 0, 38, 56
1, 1859594, Control_c, 0, 64, 89
1, 1859611, Control_c, 0, 64, 0
1, 1859968, Control_c, 0, 67, 10
1, 1859986, Control_c, 0, 67, 17
1, 1860004, Control_c, 0, 67, 28
1, 1860023, Control_c, 0, 67, 44
1, 1860041, Control_c, 0, 67, 61
1, 1860061, Control_c, 0, 67, 72
1, 1860078, Control_c, 0, 67, 78
1, 1860116, Control_c, 0, 67, 85
1, 1860153, Control_c, 0, 67, 91
1, 1860222, Note_on_c, 0, 72, 35
1, 1860259, Note_off_c, 0, 72, 46
1, 1860281, Note_on_c, 0, 74, 37
1, 1860311, Note_on_c, 0, 76, 62
1, 1860323, Note_off_c, 0, 74, 50
1, 1860345, Note_off_c, 0, 76, 69
1, 1860394, Note_on_c, 0, 41, 51
1, 1860404, Note_on_c, 0, 77, 54
1, 1860433, Note_off_c, 0, 77, 58
1, 1860433, Control_c, 0, 67, 95
1, 1860439, Note_on_c, 0, 48, 48
1, 1860441, Note_on_c, 0, 79, 70
1, 1860442, Note_off_c, 0, 41, 62
1, 1860477, Note_on_c, 0, 57, 62
1, 1860497, Note_off_c, 0, 79, 60
1, 1860499, Note_off_c, 0, 48, 64
1, 1860499, Poly_aftertouch_c, 0, 48, 0
1, 1860504, Note_on_c, 0, 81, 71
1, 1860506, Note_off_c, 0, 57, 63
1, 1860574, Note_off_c, 0, 81, 42
1, 1860590, Note_on_c, 0, 79, 73
1, 1860657, Note_off_c, 0, 79, 62
1, 1860670, Note_on_c, 0, 77, 72
1, 1860680, Note_on_c, 0, 43, 63
1, 1860715, Note_off_c, 0, 43, 66
1, 1860734, Note_off_c, 0, 77, 57
1, 1860736, Note_on_c, 0, 72, 59
1, 1860740, Note_on_c, 0, 58, 69
1, 1860776, Note_off_c, 0, 72, 65
1, 1860778, Note_off_c, 0, 58, 67
1, 1860813, Note_on_c, 0, 84, 69
1, 1860901, Control_c, 0, 67, 99
1, 1860907, Note_off_c, 0, 84, 63
1, 1860907, Note_on_c, 0, 82, 73
1, 1860925, Note_on_c, 0, 45, 48
1, 1860935, Note_on_c, 0, 48, 40
1, 1860968, Note_off_c, 0, 45, 48
1, 1860972, Note_off_c, 0, 48, 52
1, 1860972, Poly_aftertouch_c, 0, 48, 0
1, 1860979, Note_on_c, 0, 60, 74
1, 1860986, Note_off_c, 0, 82, 63
1, 1860986, Poly_aftertouch_c, 0, 82, 0
1, 1860989, Note_on_c, 0, 81, 72
1, 1861013, Note_off_c, 0, 60, 66
1, 1861013, Poly_aftertouch_c, 0, 60, 0
1, 1861058, Note_off_c, 0, 81, 63
1, 1861066, Note_on_c, 0, 77, 72
1, 1861115, Note_off_c, 0, 77, 58
1, 1861162, Note_on_c, 0, 46, 62
1, 1861163, Note_on_c, 0, 86, 73
1, 1861204, Note_on_c, 0, 53, 47
1, 1861207, Note_off_c, 0, 46, 66
1, 1861244, Note_off_c, 0, 86, 64
1, 1861246, Note_on_c, 0, 82, 73
1, 1861247, Note_on_c, 0, 62, 69
1, 1861264, Note_off_c, 0, 53, 59
1, 1861279, Note_off_c, 0, 62, 68
1, 1861324, Note_on_c, 0, 81, 71
1, 1861332, Note_off_c, 0, 82, 64
1, 1861332, Poly_aftertouch_c, 0, 82, 0
1, 1861392, Note_off_c, 0, 81, 63
1, 1861408, Note_on_c, 0, 79, 63
1, 1861421, Note_on_c, 0, 47, 57
1, 1861424, Control_c, 0, 67, 103
1, 1861430, Note_on_c, 0, 53, 43
1, 1861438, Note_off_c, 0, 79, 63
1, 1861461, Note_off_c, 0, 47, 62
1, 1861462, Control_c, 0, 67, 109
1, 1861481, Control_c, 0, 67, 113
1, 1861494, Note_on_c, 0, 77, 78
1, 1861500, Note_on_c, 0, 62, 70
1, 1861505, Note_off_c, 0, 53, 61
1, 1861518, Control_c, 0, 67, 118
1, 1861535, Note_off_c, 0, 62, 68
1, 1861564, Note_off_c, 0, 77, 60
1, 1861575, Control_c, 0, 67, 123
1, 1861584, Note_on_c, 0, 76, 71
1, 1861641, Note_off_c, 0, 76, 51
1, 1861663, Note_on_c, 0, 77, 72
1, 1861676, Note_on_c, 0, 43, 61
1, 1861710, Note_on_c, 0, 50, 44
1, 1861726, Note_off_c, 0, 43, 65
1, 1861746, Note_off_c, 0, 77, 59
1, 1861748, Note_on_c, 0, 79, 72
1, 1861771, Note_off_c, 0, 50, 64
1, 1861774, Note_on_c, 0, 59, 67
1, 1861809, Note_off_c, 0, 59, 65
1, 1861831, Note_on_c, 0, 81, 75
1, 1861836, Note_off_c, 0, 79, 62
1, 1861906, Note_off_c, 0, 81, 62
1, 1861938, Note_on_c, 0, 77, 67
1, 1861948, Note_on_c, 0, 48, 49
1, 1861964, Note_off_c, 0, 77, 68
1, 1861992, Note_on_c, 0, 52, 54
1, 1862018, Note_off_c, 0, 48, 61
1, 1862018, Poly_aftertouch_c, 0, 48, 0
1, 1862025, Note_on_c, 0, 60, 70
1, 1862026, Note_on_c, 0, 76, 71
1, 1862037, Note_off_c, 0, 52, 64
1, 1862056, Note_off_c, 0, 60, 69
1, 1862056, Poly_aftertouch_c, 0, 60, 0
1, 1862099, Note_off_c, 0, 76, 63
1, 1862124, Note_on_c, 0, 72, 65
1, 1862170, Note_off_c, 0, 72, 57
1, 1862196, Note_on_c, 0, 74, 72
1, 1862268, Note_off_c, 0, 74, 58
1, 1862279, Note_on_c, 0, 76, 71
1, 1862329, Note_off_c, 0, 76, 60
1, 1862378, Note_on_c, 0, 77, 68
1, 1862419, Note_off_c, 0, 77, 58
1, 1862431, Note_on_c, 0, 41, 51
1, 1862460, Note_on_c, 0, 79, 71
1, 1862461, Note_on_c, 0, 48, 44
1, 1862468, Note_off_c, 0, 41, 54
1, 1862512, Note_on_c, 0, 57, 71
1, 1862520, Note_off_c, 0, 79, 55
1, 1862527, Note_off_c, 0, 48, 62
1, 1862527, Poly_aftertouch_c, 0, 48, 0
1, 1862538, Note_on_c, 0, 81, 73
1, 1862548, Note_off_c, 0, 57, 65
1, 1862622, Note_off_c, 0, 81, 59
1, 1862629, Note_on_c, 0, 79, 63
1, 1862665, Note_off_c, 0, 79, 64
1, 1862679, Note_on_c, 0, 77, 70
1, 1862715, Control_c, 0, 67, 127
1, 1862717, Note_off_c, 0, 77, 58
1, 1862731, Note_on_c, 0, 42, 63
1, 1862768, Note_off_c, 0, 42, 66
1, 1862774, Note_on_c, 0, 75, 71
1, 1862776, Note_on_c, 0, 57, 81
1, 1862786, Note_on_c, 0, 48, 27
1, 1862787, Note_on_c, 0, 84, 68
1, 1862804, Note_off_c, 0, 75, 65
1, 1862812, Note_off_c, 0, 57, 63
1, 1862825, Note_off_c, 0, 48, 44
1, 1862825, Poly_aftertouch_c, 0, 48, 0
1, 1862865, Note_on_c, 0, 82, 73
1, 1862868, Note_off_c, 0, 84, 63
1, 1862956, Note_off_c, 0, 82, 63
1, 1862956, Poly_aftertouch_c, 0, 82, 0
1, 1862957, Note_on_c, 0, 81, 68
1, 1862966, Note_on_c, 0, 43, 58
1, 1862991, Note_on_c, 0, 46, 56
1, 1863004, Note_off_c, 0, 81, 61
1, 1863008, Note_off_c, 0, 43, 65
1, 1863022, Note_on_c, 0, 79, 74
1, 1863032, Note_off_c, 0, 46, 61
1, 1863037, Note_on_c, 0, 58, 71
1, 1863040, Note_on_c, 0, 74, 66
1, 1863075, Note_off_c, 0, 58, 65
1, 1863077, Note_off_c, 0, 74, 60
1, 1863090, Note_off_c, 0, 79, 60
1, 1863134, Note_on_c, 0, 82, 66
1, 1863164, Note_off_c, 0, 82, 70
1, 1863164, Poly_aftertouch_c, 0, 82, 0
1, 1863188, Note_on_c, 0, 84, 72
1, 1863214, Note_on_c, 0, 47, 54
1, 1863266, Note_off_c, 0, 47, 64
1, 1863268, Note_on_c, 0, 53, 48
1, 1863272, Note_off_c, 0, 84, 58
1, 1863290, Note_on_c, 0, 86, 73
1, 1863290, Note_on_c, 0, 85, 63
1, 1863290, Note_on_c, 0, 62, 88
1, 1863301, Note_on_c, 0, 80, 73
1, 1863324, Note_off_c, 0, 85, 69
1, 1863332, Note_off_c, 0, 62, 58
1, 1863338, Note_off_c, 0, 53, 53
1, 1863353, Note_off_c, 0, 80, 57
1, 1863386, Note_on_c, 0, 89, 62
1, 1863388, Note_on_c, 0, 88, 69
1, 1863420, Note_off_c, 0, 86, 60
1, 1863470, Note_off_c, 0, 88, 64
1, 1863527, Note_on_c, 0, 48, 55
1, 1863543, Note_on_c, 0, 77, 67
1, 1863546, Note_on_c, 0, 84, 70
1, 1863553, Note_on_c, 0, 60, 80
1, 1863555, Note_off_c, 0, 89, 58
1, 1863555, Poly_aftertouch_c, 0, 89, 0
1, 1863559, Note_on_c, 0, 53, 25
1, 1863570, Note_on_c, 0, 57, 25
1, 1863588, Note_off_c, 0, 60, 66
1, 1863588, Poly_aftertouch_c, 0, 60, 0
1, 1863591, Note_off_c, 0, 77, 53
1, 1863602, Note_off_c, 0, 53, 50
1, 1863602, Note_off_c, 0, 48, 58
1, 1863602, Poly_aftertouch_c, 0, 48, 0
1, 1863614, Note_off_c, 0, 84, 64
1, 1863627, Note_off_c, 0, 57, 30
1, 1863629, Note_on_c, 0, 81, 72
1, 1863722, Note_on_c, 0, 82, 77
1, 1863723, Note_off_c, 0, 81, 61
1, 1863746, Note_on_c, 0, 48, 71
1, 1863760, Note_off_c, 0, 82, 66
1, 1863760, Poly_aftertouch_c, 0, 82, 0
1, 1863781, Control_c, 0, 67, 102
1, 1863789, Note_off_c, 0, 48, 65
1, 1863789, Poly_aftertouch_c, 0, 48, 0
1, 1863798, Note_on_c, 0, 86, 78
1, 1863801, Control_c, 0, 67, 55
1, 1863819, Control_c, 0, 67, 0
1, 1863834, Note_on_c, 0, 64, 65
1, 1863867, Note_off_c, 0, 64, 67
1, 1863904, Note_on_c, 0, 84, 69
1, 1863908, Note_off_c, 0, 86, 63
1, 1863971, Note_off_c, 0, 84, 63
1, 1863974, Note_on_c, 0, 82, 67
1, 1864009, Note_on_c, 0, 50, 65
1, 1864046, Note_on_c, 0, 86, 80
1, 1864048, Note_off_c, 0, 50, 66
1, 1864055, Note_off_c, 0, 82, 63
1, 1864055, Poly_aftertouch_c, 0, 82, 0
1, 1864086, Note_on_c, 0, 65, 72
1, 1864125, Note_off_c, 0, 65, 64
1, 1864143, Note_on_c, 0, 84, 78
1, 1864157, Note_off_c, 0, 86, 63
1, 1864234, Note_on_c, 0, 82, 74
1, 1864236, Note_off_c, 0, 84, 64
1, 1864275, Note_on_c, 0, 52, 67
1, 1864318, Note_on_c, 0, 86, 84
1, 1864319, Note_off_c, 0, 52, 66
1, 1864327, Note_off_c, 0, 82, 63
1, 1864327, Poly_aftertouch_c, 0, 82, 0
1, 1864360, Note_on_c, 0, 67, 74
1, 1864396, Note_off_c, 0, 67, 61
1, 1864410, Note_on_c, 0, 84, 74
1, 1864448, Note_off_c, 0, 86, 62
1, 1864490, Note_on_c, 0, 82, 79
1, 1864501, Note_off_c, 0, 84, 63
1, 1864520, Note_on_c, 0, 53, 67
1, 1864561, Note_off_c, 0, 53, 64
1, 1864585, Note_on_c, 0, 81, 80
1, 1864589, Note_off_c, 0, 82, 64
1, 1864589, Poly_aftertouch_c, 0, 82, 0
1, 1864601, Note_on_c, 0, 69, 74
1, 1864603, Control_c, 0, 67, 8
1, 1864623, Control_c, 0, 67, 12
1, 1864628, Note_off_c, 0, 69, 70
1, 1864628, Poly_aftertouch_c, 0, 69, 0
1, 1864642, Control_c, 0, 67, 19
1, 1864657, Note_off_c, 0, 81, 58
1, 1864659, Control_c, 0, 67, 29
1, 1864677, Control_c, 0, 67, 41
1, 1864680, Note_on_c, 0, 80, 78
1, 1864698, Control_c, 0, 67, 50
1, 1864716, Control_c, 0, 67, 56
1, 1864735, Control_c, 0, 67, 60
1, 1864756, Control_c, 0, 67, 64
1, 1864765, Note_off_c, 0, 80, 64
1, 1864773, Note_on_c, 0, 81, 77
1, 1864787, Note_on_c, 0, 45, 68
1, 1864790, Control_c, 0, 67, 70
1, 1864809, Control_c, 0, 64, 30
1, 1864820, Note_off_c, 0, 45, 65
1, 1864825, Note_off_c, 0, 81, 56
1, 1864828, Control_c, 0, 64, 63
1, 1864829, Control_c, 0, 67, 74
1, 1864847, Control_c, 0, 64, 78
1, 1864852, Note_on_c, 0, 82, 79
1, 1864864, Note_on_c, 0, 61, 78
1, 1864884, Control_c, 0, 64, 70
1, 1864903, Control_c, 0, 64, 60
1, 1864906, Note_off_c, 0, 61, 60
1, 1864906, Poly_aftertouch_c, 0, 61, 0
1, 1864922, Control_c, 0, 64, 47
1, 1864940, Control_c, 0, 64, 15
1, 1864953, Note_on_c, 0, 81, 75
1, 1864958, Control_c, 0, 64, 0
1, 1864962, Note_off_c, 0, 82, 62
1, 1864962, Poly_aftertouch_c, 0, 82, 0
1, 1865032, Note_on_c, 0, 79, 76
1, 1865035, Note_off_c, 0, 81, 62
1, 1865037, Note_on_c, 0, 47, 52
1, 1865098, Note_off_c, 0, 47, 62
1, 1865109, Control_c, 0, 67, 78
1, 1865117, Note_on_c, 0, 82, 82
1, 1865123, Note_off_c, 0, 79, 61
1, 1865124, Note_on_c, 0, 62, 80
1, 1865181, Note_off_c, 0, 62, 57
1, 1865215, Note_on_c, 0, 81, 79
1, 1865244, Note_off_c, 0, 82, 64
1, 1865244, Poly_aftertouch_c, 0, 82, 0
1, 1865258, Control_c, 0, 67, 74
1, 1865276, Control_c, 0, 67, 66
1, 1865285, Note_on_c, 0, 79, 76
1, 1865296, Control_c, 0, 67, 43
1, 1865301, Note_off_c, 0, 81, 62
1, 1865311, Note_on_c, 0, 49, 67
1, 1865333, Control_c, 0, 67, 0
1, 1865371, Note_on_c, 0, 82, 90
1, 1865386, Note_off_c, 0, 79, 61
1, 1865387, Note_on_c, 0, 64, 78
1, 1865389, Note_off_c, 0, 49, 61
1, 1865437, Note_off_c, 0, 64, 58
1, 1865452, Note_on_c, 0, 81, 80
1, 1865503, Note_off_c, 0, 82, 62
1, 1865503, Poly_aftertouch_c, 0, 82, 0
1, 1865539, Note_on_c, 0, 79, 80
1, 1865549, Note_on_c, 0, 50, 54
1, 1865557, Note_off_c, 0, 81, 63
1, 1865590, Note_off_c, 0, 50, 63
1, 1865620, Note_on_c, 0, 65, 80
1, 1865623, Note_on_c, 0, 77, 84
1, 1865626, Note_off_c, 0, 79, 63
1, 1865648, Note_off_c, 0, 65, 72
1, 1865688, Note_off_c, 0, 77, 59
1, 1865722, Note_on_c, 0, 76, 81
1, 1865813, Note_off_c, 0, 76, 64
1, 1865821, Note_on_c, 0, 77, 78
1, 1865829, Note_on_c, 0, 41, 64
1, 1865858, Control_c, 0, 64, 37
1, 1865875, Control_c, 0, 64, 69
1, 1865883, Note_off_c, 0, 77, 60
1, 1865895, Control_c, 0, 64, 83
1, 1865898, Note_off_c, 0, 41, 64
1, 1865913, Control_c, 0, 64, 103
1, 1865925, Note_on_c, 0, 79, 74
1, 1865933, Control_c, 0, 64, 127
1, 1865956, Note_on_c, 0, 57, 68
1, 1865994, Note_off_c, 0, 57, 66
1, 1866029, Note_on_c, 0, 77, 71
1, 1866044, Note_off_c, 0, 79, 55
1, 1866103, Note_on_c, 0, 75, 78
1, 1866106, Note_off_c, 0, 77, 60
1, 1866176, Note_off_c, 0, 75, 59
1, 1866189, Note_on_c, 0, 79, 82
1, 1866295, Note_on_c, 0, 41, 52
1, 1866296, Note_on_c, 0, 77, 73
1, 1866313, Note_off_c, 0, 79, 58
1, 1866352, Note_on_c, 0, 75, 80
1, 1866357, Note_off_c, 0, 41, 63
1, 1866363, Note_off_c, 0, 77, 62
1, 1866419, Note_on_c, 0, 57, 63
1, 1866448, Note_on_c, 0, 79, 83
1, 1866451, Note_off_c, 0, 75, 64
1, 1866453, Note_off_c, 0, 57, 59
1, 1866531, Note_on_c, 0, 77, 73
1, 1866583, Note_off_c, 0, 79, 60
1, 1866597, Note_on_c, 0, 75, 80
1, 1866602, Note_off_c, 0, 77, 60
1, 1866647, Note_off_c, 0, 75, 62
1, 1866686, Note_on_c, 0, 69, 71
1, 1866699, Control_c, 0, 64, 105
1, 1866704, Note_on_c, 0, 81, 89
1, 1866730, Note_off_c, 0, 69, 57
1, 1866730, Poly_aftertouch_c, 0, 69, 0
1, 1866736, Control_c, 0, 64, 127
1, 1866770, Note_on_c, 0, 67, 76
1, 1866807, Note_on_c, 0, 79, 86
1, 1866814, Note_off_c, 0, 81, 63
1, 1866848, Note_on_c, 0, 65, 72
1, 1866849, Note_off_c, 0, 67, 61
1, 1866886, Note_on_c, 0, 77, 85
1, 1866894, Note_off_c, 0, 79, 64
1, 1866942, Note_on_c, 0, 69, 73
1, 1866972, Note_off_c, 0, 77, 47
1, 1866976, Note_on_c, 0, 81, 87
1, 1866983, Note_off_c, 0, 65, 53
1, 1867019, Note_off_c, 0, 69, 51
1, 1867019, Poly_aftertouch_c, 0, 69, 0
1, 1867035, Note_on_c, 0, 67, 80
1, 1867065, Note_on_c, 0, 79, 85
1, 1867085, Note_off_c, 0, 81, 62
1, 1867114, Note_on_c, 0, 65, 82
1, 1867126, Note_off_c, 0, 67, 61
1, 1867145, Note_on_c, 0, 77, 83
1, 1867149, Note_off_c, 0, 79, 64
1, 1867172, Note_off_c, 0, 65, 63
1, 1867212, Note_off_c, 0, 77, 61
1, 1867240, Note_on_c, 0, 72, 94
1, 1867240, Control_c, 0, 64, 73
1, 1867244, Note_on_c, 0, 84, 95
1, 1867259, Control_c, 0, 64, 26
1, 1867278, Control_c, 0, 64, 51
1, 1867297, Control_c, 0, 64, 91
1, 1867316, Control_c, 0, 64, 127
1, 1867343, Note_on_c, 0, 70, 87
1, 1867345, Note_off_c, 0, 72, 42
1, 1867346, Note_on_c, 0, 82, 92
1, 1867382, Note_off_c, 0, 84, 62
1, 1867433, Note_on_c, 0, 69, 82
1, 1867441, Note_on_c, 0, 81, 87
1, 1867451, Note_off_c, 0, 70, 64
1, 1867468, Note_off_c, 0, 82, 63
1, 1867468, Poly_aftertouch_c, 0, 82, 0
1, 1867522, Note_on_c, 0, 72, 88
1, 1867533, Note_off_c, 0, 69, 53
1, 1867533, Poly_aftertouch_c, 0, 69, 0
1, 1867538, Note_on_c, 0, 84, 88
1, 1867552, Note_off_c, 0, 81, 63
1, 1867620, Note_on_c, 0, 82, 88
1, 1867624, Note_on_c, 0, 70, 89
1, 1867642, Note_off_c, 0, 72, 36
1, 1867659, Note_off_c, 0, 84, 61
1, 1867711, Note_on_c, 0, 81, 73
1, 1867718, Note_on_c, 0, 69, 85
1, 1867729, Note_off_c, 0, 82, 64
1, 1867729, Poly_aftertouch_c, 0, 82, 0
1, 1867731, Note_off_c, 0, 70, 66
1, 1867747, Note_off_c, 0, 81, 63
1, 1867784, Note_off_c, 0, 69, 64
1, 1867784, Poly_aftertouch_c, 0, 69, 0
1, 1867840, Control_c, 0, 64, 75
1, 1867857, Control_c, 0, 64, 0
1, 1867863, Note_on_c, 0, 87, 94
1, 1867873, Note_on_c, 0, 75, 91
1, 1867931, Control_c, 0, 64, 67
1, 1867952, Control_c, 0, 64, 112
1, 1867971, Poly_aftertouch_c, 0, 85, 0
1, 1867971, Control_c, 0, 64, 127
1, 1867985, Note_off_c, 0, 75, 63
1, 1868012, Note_off_c, 0, 87, 63
1, 1868084, Note_on_c, 0, 87, 98
1, 1868090, Note_on_c, 0, 75, 105
1, 1868208, Poly_aftertouch_c, 0, 88, 127
1, 1868229, Poly_aftertouch_c, 0, 88, 0
1, 1868290, Note_off_c, 0, 75, 60
1, 1868312, Note_off_c, 0, 87, 61
1, 1868392, Note_on_c, 0, 87, 103
1, 1868397, Note_on_c, 0, 75, 106
1, 1868606, Note_off_c, 0, 75, 61
1, 1868636, Note_off_c, 0, 87, 58
1, 1868721, Note_on_c, 0, 87, 105
1, 1868724, Note_on_c, 0, 75, 106
1, 1868850, Note_off_c, 0, 75, 61
1, 1868869, Note_on_c, 0, 42, 68
1, 1868890, Note_off_c, 0, 87, 60
1, 1868935, Note_on_c, 0, 47, 71
1, 1868966, Note_on_c, 0, 87, 102
1, 1868969, Note_on_c, 0, 75, 105
1, 1868985, Note_off_c, 0, 42, 64
1, 1869042, Note_on_c, 0, 51, 80
1, 1869090, Note_off_c, 0, 47, 60
1, 1869111, Note_off_c, 0, 75, 57
1, 1869141, Note_off_c, 0, 51, 60
1, 1869144, Note_off_c, 0, 87, 57
1, 1869264, Note_on_c, 0, 87, 99
1, 1869270, Note_on_c, 0, 75, 98
1, 1869310, Note_on_c, 0, 59, 111
1, 1869349, Note_off_c, 0, 59, 71
1, 1869399, Note_off_c, 0, 75, 62
1, 1869491, Note_on_c, 0, 85, 85
1, 1869546, Note_off_c, 0, 87, 58
1, 1869612, Note_on_c, 0, 83, 85
1, 1869653, Note_off_c, 0, 85, 60
1, 1869729, Note_on_c, 0, 78, 96
1, 1869744, Note_off_c, 0, 83, 59
1, 1869830, Note_off_c, 0, 78, 63
1, 1869850, Note_on_c, 0, 90, 95
1, 1869953, Note_on_c, 0, 88, 88
1, 1869963, Note_off_c, 0, 90, 57
1, 1870059, Note_on_c, 0, 87, 82
1, 1870078, Note_off_c, 0, 88, 65
1, 1870154, Note_on_c, 0, 83, 85
1, 1870172, Note_off_c, 0, 87, 62
1, 1870270, Note_on_c, 0, 95, 92
1, 1870274, Note_off_c, 0, 83, 55
1, 1870312, Poly_aftertouch_c, 0, 30, 0
1, 1870326, Control_c, 0, 64, 81
1, 1870344, Control_c, 0, 64, 52
1, 1870361, Control_c, 0, 64, 72
1, 1870365, Note_on_c, 0, 42, 110
1, 1870368, Note_on_c, 0, 30, 89
1, 1870368, Note_on_c, 0, 90, 96
1, 1870384, Control_c, 0, 64, 108
1, 1870398, Note_off_c, 0, 95, 66
1, 1870399, Control_c, 0, 64, 127
1, 1870402, Note_on_c, 0, 32, 53
1, 1870403, Note_on_c, 0, 34, 47
1, 1870430, Note_on_c, 0, 92, 30
1, 1870431, Note_off_c, 0, 30, 64
1, 1870431, Note_off_c, 0, 92, 127
1, 1870432, Note_off_c, 0, 42, 68
1, 1870446, Note_off_c, 0, 32, 52
1, 1870448, Note_off_c, 0, 34, 54
1, 1870486, Note_on_c, 0, 88, 91
1, 1870504, Note_off_c, 0, 90, 65
1, 1870593, Note_off_c, 0, 88, 68
1, 1870599, Note_on_c, 0, 87, 92
1, 1870759, Note_off_c, 0, 87, 62
1, 1870784, Note_on_c, 0, 99, 102
1, 1870786, Note_on_c, 0, 66, 108
1, 1870787, Note_on_c, 0, 63, 95
1, 1870794, Note_on_c, 0, 59, 82
1, 1870794, Note_on_c, 0, 54, 83
1, 1870929, Note_on_c, 0, 97, 97
1, 1870986, Note_off_c, 0, 99, 64
1, 1871061, Note_on_c, 0, 95, 95
1, 1871088, Note_off_c, 0, 66, 61
1, 1871090, Note_off_c, 0, 97, 59
1, 1871109, Note_on_c, 0, 94, 13
1, 1871110, Note_off_c, 0, 94, 127
1, 1871155, Note_off_c, 0, 54, 55
1, 1871167, Note_off_c, 0, 63, 57
1, 1871173, Note_off_c, 0, 59, 53
1, 1871179, Note_on_c, 0, 90, 96
1, 1871224, Note_off_c, 0, 95, 62
1, 1871306, Note_on_c, 0, 102, 102
1, 1871370, Note_off_c, 0, 90, 59
1, 1871417, Note_on_c, 0, 99, 90
1, 1871515, Note_off_c, 0, 102, 64
1, 1871537, Note_on_c, 0, 95, 88
1, 1871571, Note_off_c, 0, 99, 64
1, 1871665, Note_on_c, 0, 90, 101
1, 1871708, Note_off_c, 0, 95, 62
1, 1871785, Note_on_c, 0, 102, 96
1, 1871879, Note_off_c, 0, 90, 59
1, 1871953, Control_c, 0, 64, 94
1, 1871963, Note_on_c, 0, 40, 103
1, 1871967, Note_on_c, 0, 28, 91
1, 1871969, Control_c, 0, 64, 0
1, 1871973, Note_on_c, 0, 99, 98
1, 1872014, Note_on_c, 0, 30, 37
1, 1872021, Note_off_c, 0, 30, 127
1, 1872026, Control_c, 0, 64, 55
1, 1872041, Note_off_c, 0, 28, 66
1, 1872045, Control_c, 0, 64, 100
1, 1872066, Note_off_c, 0, 40, 64
1, 1872066, Poly_aftertouch_c, 0, 30, 0
1, 1872066, Control_c, 0, 64, 127
1, 1872081, Note_off_c, 0, 102, 58
1, 1872152, Note_on_c, 0, 95, 94
1, 1872185, Note_off_c, 0, 99, 63
1, 1872299, Note_on_c, 0, 92, 102
1, 1872326, Note_off_c, 0, 95, 56
1, 1872524, Note_on_c, 0, 104, 98
1, 1872544, Note_on_c, 0, 71, 109
1, 1872551, Note_on_c, 0, 59, 101
1, 1872647, Note_off_c, 0, 92, 63
1, 1872733, Note_on_c, 0, 97, 91
1, 1872756, Note_off_c, 0, 71, 56
1, 1872760, Note_on_c, 0, 94, 68
1, 1872766, Note_off_c, 0, 104, 64
1, 1872781, Note_off_c, 0, 59, 63
1, 1872845, Note_off_c, 0, 94, 64
1, 1872845, Note_on_c, 0, 94, 32
1, 1872919, Note_off_c, 0, 97, 62
1, 1872991, Note_off_c, 0, 94, 67
1, 1873004, Note_on_c, 0, 56, 93
1, 1873006, Note_on_c, 0, 68, 105
1, 1873008, Note_on_c, 0, 95, 48
1, 1873026, Note_on_c, 0, 92, 88
1, 1873046, Note_off_c, 0, 95, 64
1, 1873073, Note_off_c, 0, 92, 66
1, 1873168, Note_on_c, 0, 85, 94
1, 1873219, Note_off_c, 0, 68, 58
1, 1873267, Note_off_c, 0, 56, 56
1, 1873283, Note_on_c, 0, 83, 85
1, 1873311, Note_off_c, 0, 85, 60
1, 1873400, Note_on_c, 0, 92, 95
1, 1873406, Note_on_c, 0, 66, 103
1, 1873408, Note_off_c, 0, 83, 51
1, 1873410, Control_c, 0, 64, 86
1, 1873413, Note_on_c, 0, 54, 97
1, 1873430, Control_c, 0, 64, 52
1, 1873448, Control_c, 0, 64, 62
1, 1873468, Control_c, 0, 64, 88
1, 1873487, Control_c, 0, 64, 121
1, 1873505, Control_c, 0, 64, 127
1, 1873521, Note_on_c, 0, 85, 82
1, 1873547, Note_off_c, 0, 92, 64
1, 1873564, Note_off_c, 0, 54, 45
1, 1873593, Note_off_c, 0, 66, 59
1, 1873612, Note_on_c, 0, 83, 80
1, 1873655, Note_off_c, 0, 85, 63
1, 1873702, Note_off_c, 0, 83, 65
1, 1873717, Note_on_c, 0, 80, 77
1, 1873727, Note_on_c, 0, 64, 99
1, 1873732, Note_on_c, 0, 52, 93
1, 1873744, Note_off_c, 0, 80, 72
1, 1873785, Note_off_c, 0, 64, 64
1, 1873792, Note_on_c, 0, 54, 27
1, 1873819, Note_off_c, 0, 54, 63
1, 1873828, Note_off_c, 0, 52, 62
1, 1873845, Note_on_c, 0, 73, 72
1, 1873864, Note_on_c, 0, 72, 72
1, 1873916, Note_off_c, 0, 72, 58
1, 1873919, Note_off_c, 0, 73, 58
1, 1873934, Note_on_c, 0, 71, 80
1, 1873996, Note_off_c, 0, 71, 60
1, 1874029, Note_on_c, 0, 80, 87
1, 1874029, Control_c, 0, 64, 100
1, 1874030, Note_on_c, 0, 59, 105
1, 1874034, Note_on_c, 0, 47, 98
1, 1874047, Control_c, 0, 64, 57
1, 1874059, Note_on_c, 0, 81, 67
1, 1874064, Control_c, 0, 64, 47
1, 1874080, Note_off_c, 0, 81, 64
1, 1874084, Control_c, 0, 64, 66
1, 1874102, Control_c, 0, 64, 89
1, 1874112, Note_off_c, 0, 59, 47
1, 1874120, Control_c, 0, 64, 124
1, 1874132, Note_on_c, 0, 73, 77
1, 1874149, Poly_aftertouch_c, 0, 49, 0
1, 1874154, Note_off_c, 0, 80, 63
1, 1874160, Note_off_c, 0, 47, 56
1, 1874186, Note_on_c, 0, 74, 38
1, 1874203, Note_on_c, 0, 71, 71
1, 1874228, Note_off_c, 0, 74, 51
1, 1874246, Note_off_c, 0, 73, 62
1, 1874307, Note_off_c, 0, 71, 63
1, 1874309, Control_c, 0, 64, 109
1, 1874318, Note_on_c, 0, 68, 74
1, 1874328, Control_c, 0, 64, 66
1, 1874331, Note_on_c, 0, 56, 102
1, 1874337, Note_on_c, 0, 44, 91
1, 1874345, Control_c, 0, 64, 51
1, 1874347, Note_off_c, 0, 68, 72
1, 1874365, Control_c, 0, 64, 74
1, 1874379, Note_on_c, 0, 46, 35
1, 1874380, Note_off_c, 0, 46, 127
1, 1874381, Control_c, 0, 64, 108
1, 1874401, Control_c, 0, 64, 127
1, 1874424, Note_on_c, 0, 61, 84
1, 1874426, Poly_aftertouch_c, 0, 46, 0
1, 1874431, Note_off_c, 0, 56, 57
1, 1874450, Note_off_c, 0, 44, 61
1, 1874529, Note_on_c, 0, 59, 80
1, 1874545, Note_off_c, 0, 61, 60
1, 1874545, Poly_aftertouch_c, 0, 61, 0
1, 1874603, Note_off_c, 0, 59, 60
1, 1874606, Control_c, 0, 64, 114
1, 1874625, Note_on_c, 0, 68, 84
1, 1874626, Control_c, 0, 64, 63
1, 1874628, Note_on_c, 0, 53, 101
1, 1874629, Note_on_c, 0, 41, 95
1, 1874645, Control_c, 0, 64, 0
1, 1874664, Control_c, 0, 64, 45
1, 1874672, Note_off_c, 0, 53, 67
1, 1874683, Control_c, 0, 64, 87
1, 1874701, Control_c, 0, 64, 127
1, 1874706, Note_off_c, 0, 41, 64
1, 1874719, Note_on_c, 0, 61, 75
1, 1874745, Note_off_c, 0, 68, 65
1, 1874773, Poly_aftertouch_c, 0, 44, 0
1, 1874791, Note_on_c, 0, 59, 66
1, 1874834, Note_off_c, 0, 61, 63
1, 1874834, Poly_aftertouch_c, 0, 61, 0
1, 1874888, Note_off_c, 0, 59, 62
1, 1874888, Control_c, 0, 64, 100
1, 1874896, Note_on_c, 0, 56, 76
1, 1874907, Control_c, 0, 64, 43
1, 1874925, Control_c, 0, 64, 0
1, 1874928, Note_off_c, 0, 56, 71
1, 1874934, Note_on_c, 0, 41, 86
1, 1874941, Note_on_c, 0, 29, 86
1, 1874944, Control_c, 0, 64, 50
1, 1874963, Control_c, 0, 64, 83
1, 1874982, Control_c, 0, 64, 122
1, 1875001, Control_c, 0, 64, 127
1, 1875027, Note_off_c, 0, 41, 61
1, 1875031, Note_on_c, 0, 49, 74
1, 1875038, Note_off_c, 0, 29, 59
1, 1875085, Note_off_c, 0, 49, 56
1, 1875128, Note_on_c, 0, 47, 69
1, 1875170, Control_c, 0, 64, 97
1, 1875188, Control_c, 0, 64, 65
1, 1875206, Control_c, 0, 64, 60
1, 1875214, Note_on_c, 0, 54, 85
1, 1875223, Note_on_c, 0, 51, 81
1, 1875226, Note_on_c, 0, 42, 104
1, 1875226, Control_c, 0, 64, 78
1, 1875231, Note_on_c, 0, 30, 87
1, 1875241, Note_off_c, 0, 47, 62
1, 1875243, Control_c, 0, 64, 101
1, 1875265, Control_c, 0, 64, 127
1, 1875268, Note_off_c, 0, 30, 68
1, 1875268, Note_off_c, 0, 42, 67
1, 1875271, Note_off_c, 0, 51, 57
1, 1875283, Note_off_c, 0, 54, 63
1, 1875356, Control_c, 0, 64, 103
1, 1875375, Control_c, 0, 64, 62
1, 1875393, Control_c, 0, 64, 0
1, 1875633, Note_on_c, 0, 75, 65
1, 1875636, Control_c, 0, 64, 37
1, 1875653, Control_c, 0, 64, 83
1, 1875658, Note_on_c, 0, 54, 48
1, 1875666, Note_on_c, 0, 63, 55
1, 1875671, Note_on_c, 0, 59, 46
1, 1875673, Control_c, 0, 64, 122
1, 1875692, Control_c, 0, 64, 127
1, 1875751, Note_on_c, 0, 71, 52
1, 1875754, Note_off_c, 0, 75, 56
1, 1875807, Note_off_c, 0, 71, 58
1, 1875834, Note_off_c, 0, 59, 60
1, 1875842, Note_on_c, 0, 66, 43
1, 1875881, Note_off_c, 0, 66, 56
1, 1875883, Note_off_c, 0, 54, 57
1, 1875890, Note_off_c, 0, 63, 61
1, 1875891, Note_on_c, 0, 78, 81
1, 1875964, Note_on_c, 0, 75, 76
1, 1875985, Note_off_c, 0, 78, 63
1, 1876033, Note_off_c, 0, 75, 64
1, 1876067, Note_on_c, 0, 71, 54
1, 1876094, Note_off_c, 0, 71, 58
1, 1876132, Note_on_c, 0, 87, 94
1, 1876137, Note_on_c, 0, 66, 83
1, 1876147, Note_on_c, 0, 63, 74
1, 1876149, Note_on_c, 0, 54, 69
1, 1876155, Note_on_c, 0, 59, 67
1, 1876216, Note_off_c, 0, 66, 60
1, 1876224, Note_off_c, 0, 59, 59
1, 1876227, Note_off_c, 0, 63, 60
1, 1876237, Note_on_c, 0, 78, 78
1, 1876256, Note_off_c, 0, 54, 61
1, 1876259, Note_off_c, 0, 87, 62
1, 1876336, Note_off_c, 0, 78, 63
1, 1876336, Note_on_c, 0, 75, 79
1, 1876418, Note_off_c, 0, 75, 63
1, 1876436, Note_on_c, 0, 85, 91
1, 1876440, Control_c, 0, 64, 118
1, 1876459, Control_c, 0, 64, 71
1, 1876469, Note_on_c, 0, 54, 55
1, 1876473, Note_on_c, 0, 61, 56
1, 1876477, Note_on_c, 0, 64, 54
1, 1876477, Note_on_c, 0, 66, 54
1, 1876478, Control_c, 0, 64, 0
1, 1876481, Note_on_c, 0, 58, 54
1, 1876533, Control_c, 0, 64, 43
1, 1876550, Note_on_c, 0, 76, 68
1, 1876550, Control_c, 0, 64, 84
1, 1876571, Control_c, 0, 64, 127
1, 1876585, Note_off_c, 0, 85, 63
1, 1876605, Note_off_c, 0, 66, 54
1, 1876628, Note_off_c, 0, 64, 61
1, 1876633, Note_off_c, 0, 54, 56
1, 1876639, Note_off_c, 0, 76, 62
1, 1876642, Note_off_c, 0, 58, 56
1, 1876645, Note_off_c, 0, 61, 58
1, 1876645, Poly_aftertouch_c, 0, 61, 0
1, 1876650, Note_on_c, 0, 73, 77
1, 1876725, Note_off_c, 0, 73, 61
1, 1876746, Note_on_c, 0, 66, 70
1, 1876746, Note_on_c, 0, 82, 83
1, 1876770, Note_on_c, 0, 54, 59
1, 1876779, Note_on_c, 0, 61, 53
1, 1876781, Note_on_c, 0, 64, 54
1, 1876791, Note_on_c, 0, 58, 56
1, 1876806, Note_off_c, 0, 66, 59
1, 1876826, Note_off_c, 0, 64, 63
1, 1876830, Note_on_c, 0, 73, 74
1, 1876842, Note_off_c, 0, 58, 56
1, 1876852, Note_off_c, 0, 61, 50
1, 1876852, Poly_aftertouch_c, 0, 61, 0
1, 1876853, Note_off_c, 0, 82, 64
1, 1876853, Poly_aftertouch_c, 0, 82, 0
1, 1876882, Poly_aftertouch_c, 0, 80, 0
1, 1876905, Note_off_c, 0, 54, 60
1, 1876912, Note_on_c, 0, 70, 80
1, 1876922, Note_off_c, 0, 73, 63
1, 1876987, Note_off_c, 0, 70, 60
1, 1877009, Note_on_c, 0, 78, 81
1, 1877086, Note_on_c, 0, 70, 71
1, 1877114, Note_off_c, 0, 78, 63
1, 1877174, Note_on_c, 0, 66, 78
1, 1877198, Note_off_c, 0, 70, 61
1, 1877248, Note_off_c, 0, 66, 62
1, 1877267, Note_on_c, 0, 76, 81
1, 1877282, Control_c, 0, 64, 104
1, 1877285, Note_on_c, 0, 42, 87
1, 1877286, Note_on_c, 0, 30, 75
1, 1877301, Control_c, 0, 64, 60
1, 1877320, Control_c, 0, 64, 61
1, 1877337, Control_c, 0, 64, 81
1, 1877344, Note_on_c, 0, 70, 74
1, 1877358, Control_c, 0, 64, 107
1, 1877375, Note_off_c, 0, 76, 64
1, 1877375, Control_c, 0, 64, 127
1, 1877385, Note_off_c, 0, 42, 58
1, 1877401, Note_off_c, 0, 30, 60
1, 1877448, Note_on_c, 0, 66, 78
1, 1877450, Note_off_c, 0, 70, 60
1, 1877525, Note_on_c, 0, 42, 100
1, 1877529, Note_on_c, 0, 75, 82
1, 1877533, Note_on_c, 0, 30, 82
1, 1877550, Note_off_c, 0, 66, 60
1, 1877562, Note_off_c, 0, 30, 65
1, 1877564, Note_off_c, 0, 42, 68
1, 1877623, Note_on_c, 0, 71, 69
1, 1877641, Note_off_c, 0, 75, 62
1, 1877659, Poly_aftertouch_c, 0, 73, 0
1, 1877686, Note_on_c, 0, 66, 76
1, 1877706, Note_off_c, 0, 71, 61
1, 1877747, Note_off_c, 0, 66, 61
1, 1877788, Control_c, 0, 64, 114
1, 1877800, Note_on_c, 0, 78, 79
1, 1877807, Control_c, 0, 64, 65
1, 1877820, Note_on_c, 0, 66, 93
1, 1877826, Control_c, 0, 64, 44
1, 1877829, Note_on_c, 0, 54, 72
1, 1877830, Note_on_c, 0, 63, 70
1, 1877843, Control_c, 0, 64, 64
1, 1877846, Note_on_c, 0, 59, 65
1, 1877863, Control_c, 0, 64, 89
1, 1877880, Control_c, 0, 64, 123
1, 1877890, Note_on_c, 0, 75, 73
1, 1877894, Note_off_c, 0, 78, 65
1, 1877899, Control_c, 0, 64, 127
1, 1877949, Note_off_c, 0, 75, 62
1, 1877956, Note_on_c, 0, 71, 65
1, 1877968, Poly_aftertouch_c, 0, 65, 0
1, 1877989, Note_off_c, 0, 71, 66
1, 1878071, Note_on_c, 0, 83, 84
1, 1878165, Note_on_c, 0, 78, 76
1, 1878181, Note_off_c, 0, 83, 62
1, 1878191, Note_off_c, 0, 66, 55
1, 1878191, Note_off_c, 0, 59, 55
1, 1878212, Note_off_c, 0, 54, 54
1, 1878236, Note_on_c, 0, 75, 74
1, 1878238, Note_off_c, 0, 63, 38
1, 1878242, Note_off_c, 0, 78, 66
1, 1878317, Note_on_c, 0, 87, 96
1, 1878329, Note_on_c, 0, 66, 89
1, 1878336, Note_off_c, 0, 75, 45
1, 1878343, Note_on_c, 0, 59, 71
1, 1878346, Note_on_c, 0, 63, 74
1, 1878349, Note_on_c, 0, 54, 74
1, 1878402, Note_off_c, 0, 66, 62
1, 1878406, Note_on_c, 0, 78, 81
1, 1878413, Note_off_c, 0, 59, 59
1, 1878422, Note_off_c, 0, 63, 55
1, 1878442, Note_off_c, 0, 54, 60
1, 1878449, Note_off_c, 0, 87, 63
1, 1878502, Note_on_c, 0, 75, 80
1, 1878512, Note_off_c, 0, 78, 63
1, 1878590, Note_off_c, 0, 75, 61
1, 1878590, Control_c, 0, 64, 103
1, 1878609, Note_on_c, 0, 85, 95
1, 1878609, Control_c, 0, 64, 56
1, 1878623, Note_on_c, 0, 54, 69
1, 1878627, Note_on_c, 0, 66, 80
1, 1878627, Control_c, 0, 64, 0
1, 1878632, Note_on_c, 0, 58, 67
1, 1878633, Note_on_c, 0, 61, 68
1, 1878634, Note_on_c, 0, 64, 68
1, 1878649, Control_c, 0, 64, 38
1, 1878665, Control_c, 0, 64, 76
1, 1878684, Control_c, 0, 64, 112
1, 1878702, Control_c, 0, 64, 127
1, 1878710, Note_on_c, 0, 76, 71
1, 1878753, Note_off_c, 0, 85, 62
1, 1878763, Note_off_c, 0, 66, 60
1, 1878781, Note_off_c, 0, 64, 59
1, 1878800, Note_on_c, 0, 73, 80
1, 1878801, Note_off_c, 0, 54, 57
1, 1878806, Note_off_c, 0, 61, 58
1, 1878806, Poly_aftertouch_c, 0, 61, 0
1, 1878807, Note_off_c, 0, 76, 64
1, 1878811, Note_off_c, 0, 58, 60
1, 1878870, Note_off_c, 0, 73, 57
1, 1878892, Note_on_c, 0, 66, 81
1, 1878901, Note_on_c, 0, 82, 87
1, 1878907, Note_on_c, 0, 54, 63
1, 1878914, Note_on_c, 0, 64, 69
1, 1878915, Note_on_c, 0, 61, 63
1, 1878917, Note_on_c, 0, 58, 61
1, 1878960, Note_on_c, 0, 80, 26
1, 1878963, Note_off_c, 0, 66, 61
1, 1878988, Note_off_c, 0, 64, 62
1, 1878993, Note_on_c, 0, 73, 79
1, 1879007, Note_off_c, 0, 82, 64
1, 1879007, Poly_aftertouch_c, 0, 82, 0
1, 1879012, Note_off_c, 0, 80, 44
1, 1879020, Note_off_c, 0, 61, 60
1, 1879020, Poly_aftertouch_c, 0, 61, 0
1, 1879027, Note_off_c, 0, 58, 58
1, 1879035, Note_off_c, 0, 54, 60
1, 1879073, Note_on_c, 0, 70, 82
1, 1879081, Note_off_c, 0, 73, 63
1, 1879130, Note_off_c, 0, 70, 62
1, 1879165, Note_on_c, 0, 78, 82
1, 1879251, Note_on_c, 0, 70, 77
1, 1879276, Note_off_c, 0, 78, 62
1, 1879337, Note_on_c, 0, 66, 76
1, 1879345, Note_off_c, 0, 70, 60
1, 1879394, Control_c, 0, 64, 81
1, 1879413, Control_c, 0, 64, 0
1, 1879415, Note_on_c, 0, 76, 83
1, 1879420, Note_on_c, 0, 42, 97
1, 1879423, Note_off_c, 0, 66, 62
1, 1879426, Note_on_c, 0, 30, 83
1, 1879452, Control_c, 0, 64, 31
1, 1879459, Note_off_c, 0, 30, 65
1, 1879470, Note_off_c, 0, 42, 63
1, 1879470, Control_c, 0, 64, 67
1, 1879487, Control_c, 0, 64, 95
1, 1879502, Note_on_c, 0, 70, 75
1, 1879507, Control_c, 0, 64, 127
1, 1879528, Note_off_c, 0, 76, 64
1, 1879595, Note_on_c, 0, 66, 73
1, 1879602, Note_off_c, 0, 70, 66
1, 1879696, Note_on_c, 0, 75, 82
1, 1879699, Note_off_c, 0, 66, 57
1, 1879713, Control_c, 0, 64, 98
1, 1879719, Note_on_c, 0, 63, 94
1, 1879725, Note_on_c, 0, 51, 88
1, 1879733, Control_c, 0, 64, 70
1, 1879757, Note_on_c, 0, 61, 49
1, 1879769, Control_c, 0, 64, 88
1, 1879787, Control_c, 0, 64, 121
1, 1879796, Note_off_c, 0, 61, 39
1, 1879796, Poly_aftertouch_c, 0, 61, 0
1, 1879804, Note_on_c, 0, 71, 73
1, 1879806, Control_c, 0, 64, 127
1, 1879833, Note_off_c, 0, 75, 59
1, 1879856, Note_off_c, 0, 63, 60
1, 1879874, Note_off_c, 0, 51, 57
1, 1879880, Note_on_c, 0, 66, 66
1, 1879880, Poly_aftertouch_c, 0, 50, 0
1, 1879888, Note_off_c, 0, 71, 62
1, 1879953, Note_off_c, 0, 66, 63
1, 1879981, Note_on_c, 0, 78, 85
1, 1879985, Note_on_c, 0, 61, 104
1, 1879990, Note_on_c, 0, 49, 92
1, 1880051, Note_on_c, 0, 51, 7
1, 1880066, Note_on_c, 0, 75, 78
1, 1880073, Note_off_c, 0, 78, 64
1, 1880099, Note_off_c, 0, 61, 63
1, 1880099, Poly_aftertouch_c, 0, 61, 0
1, 1880132, Note_off_c, 0, 51, 34
1, 1880140, Note_off_c, 0, 75, 63
1, 1880160, Note_on_c, 0, 71, 74
1, 1880173, Note_off_c, 0, 49, 51
1, 1880206, Note_off_c, 0, 71, 61
1, 1880254, Control_c, 0, 64, 114
1, 1880270, Note_on_c, 0, 83, 92
1, 1880273, Control_c, 0, 64, 71
1, 1880274, Note_on_c, 0, 59, 96
1, 1880274, Note_on_c, 0, 47, 89
1, 1880291, Control_c, 0, 64, 69
1, 1880312, Control_c, 0, 64, 104
1, 1880318, Note_off_c, 0, 59, 67
1, 1880318, Note_on_c, 0, 49, 62
1, 1880329, Control_c, 0, 64, 127
1, 1880343, Note_off_c, 0, 49, 61
1, 1880354, Note_off_c, 0, 47, 63
1, 1880374, Note_on_c, 0, 78, 82
1, 1880394, Note_off_c, 0, 83, 63
1, 1880464, Note_on_c, 0, 75, 87
1, 1880479, Note_off_c, 0, 78, 63
1, 1880499, Control_c, 0, 64, 117
1, 1880516, Control_c, 0, 64, 73
1, 1880536, Control_c, 0, 64, 64
1, 1880540, Note_on_c, 0, 42, 88
1, 1880544, Note_on_c, 0, 30, 88
1, 1880548, Note_on_c, 0, 87, 95
1, 1880554, Control_c, 0, 64, 88
1, 1880572, Control_c, 0, 64, 127
1, 1880590, Note_off_c, 0, 75, 60
1, 1880597, Note_off_c, 0, 42, 62
1, 1880606, Note_off_c, 0, 30, 61
1, 1880622, Note_on_c, 0, 78, 80
1, 1880667, Control_c, 0, 64, 74
1, 1880681, Note_on_c, 0, 31, 80
1, 1880683, Note_on_c, 0, 43, 97
1, 1880686, Control_c, 0, 64, 28
1, 1880690, Note_off_c, 0, 87, 63
1, 1880704, Control_c, 0, 64, 47
1, 1880719, Note_off_c, 0, 31, 67
1, 1880721, Note_on_c, 0, 75, 90
1, 1880721, Note_on_c, 0, 32, 36
1, 1880721, Control_c, 0, 64, 67
1, 1880729, Note_off_c, 0, 43, 67
1, 1880741, Control_c, 0, 64, 89
1, 1880759, Control_c, 0, 64, 127
1, 1880760, Note_off_c, 0, 78, 63
1, 1880772, Note_off_c, 0, 32, 34
1, 1880803, Note_off_c, 0, 75, 65
1, 1880854, Control_c, 0, 64, 108
1, 1880871, Note_on_c, 0, 63, 103
1, 1880873, Control_c, 0, 64, 60
1, 1880875, Note_on_c, 0, 51, 95
1, 1880909, Control_c, 0, 64, 94
1, 1880917, Note_on_c, 0, 54, 29
1, 1880926, Note_on_c, 0, 61, 42
1, 1880926, Poly_aftertouch_c, 0, 61, 0
1, 1880927, Note_off_c, 0, 61, 127
1, 1880927, Control_c, 0, 64, 127
1, 1881011, Poly_aftertouch_c, 0, 56, 0
1, 1881044, Note_off_c, 0, 63, 56
1, 1881070, Note_off_c, 0, 51, 55
1, 1881107, Note_off_c, 0, 54, 45
1, 1881108, Poly_aftertouch_c, 0, 54, 0
1, 1881125, Note_on_c, 0, 75, 87
1, 1881146, Note_on_c, 0, 61, 103
1, 1881150, Note_on_c, 0, 49, 93
1, 1881222, Note_on_c, 0, 71, 77
1, 1881237, Note_off_c, 0, 75, 61
1, 1881294, Note_off_c, 0, 61, 59
1, 1881294, Poly_aftertouch_c, 0, 61, 0
1, 1881304, Note_on_c, 0, 67, 80
1, 1881310, Note_off_c, 0, 71, 62
1, 1881316, Note_off_c, 0, 49, 55
1, 1881366, Note_off_c, 0, 67, 61
1, 1881415, Control_c, 0, 64, 111
1, 1881417, Note_on_c, 0, 79, 96
1, 1881428, Note_on_c, 0, 59, 103
1, 1881429, Note_on_c, 0, 47, 93
1, 1881433, Control_c, 0, 64, 75
1, 1881451, Control_c, 0, 64, 87
1, 1881460, Note_on_c, 0, 49, 66
1, 1881467, Note_off_c, 0, 59, 68
1, 1881469, Control_c, 0, 64, 127
1, 1881484, Note_on_c, 0, 78, 27
1, 1881488, Note_off_c, 0, 49, 62
1, 1881503, Note_off_c, 0, 47, 63
1, 1881518, Note_on_c, 0, 75, 80
1, 1881532, Note_off_c, 0, 78, 49
1, 1881542, Note_off_c, 0, 79, 65
1, 1881603, Note_on_c, 0, 71, 75
1, 1881605, Note_off_c, 0, 75, 65
1, 1881629, Note_off_c, 0, 71, 67
1, 1881675, Control_c, 0, 64, 112
1, 1881678, Note_on_c, 0, 72, 7
1, 1881687, Note_on_c, 0, 43, 93
1, 1881705, Note_on_c, 0, 31, 82
1, 1881711, Note_on_c, 0, 87, 88
1, 1881713, Control_c, 0, 64, 127
1, 1881735, Note_off_c, 0, 31, 65
1, 1881746, Note_off_c, 0, 43, 64
1, 1881758, Note_off_c, 0, 72, 31
1, 1881792, Note_on_c, 0, 79, 74
1, 1881825, Control_c, 0, 64, 77
1, 1881827, Note_off_c, 0, 87, 64
1, 1881833, Note_on_c, 0, 44, 101
1, 1881839, Note_on_c, 0, 32, 85
1, 1881843, Control_c, 0, 64, 0
1, 1881853, Note_on_c, 0, 75, 90
1, 1881875, Note_off_c, 0, 32, 67
1, 1881878, Note_off_c, 0, 44, 65
1, 1881891, Note_off_c, 0, 79, 62
1, 1881899, Note_on_c, 0, 34, 10
1, 1881899, Control_c, 0, 64, 56
1, 1881919, Control_c, 0, 64, 116
1, 1881921, Note_off_c, 0, 75, 65
1, 1881938, Control_c, 0, 64, 127
1, 1881977, Note_off_c, 0, 34, 29
1, 1882023, Note_on_c, 0, 63, 111
1, 1882025, Note_on_c, 0, 51, 97
1, 1882053, Note_on_c, 0, 54, 53
1, 1882081, Note_on_c, 0, 56, 13
1, 1882086, Note_off_c, 0, 54, 57
1, 1882147, Note_off_c, 0, 56, 37
1, 1882149, Poly_aftertouch_c, 0, 64, 127
1, 1882164, Note_off_c, 0, 63, 56
1, 1882174, Poly_aftertouch_c, 0, 64, 0
1, 1882195, Note_off_c, 0, 51, 57
1, 1882293, Note_on_c, 0, 75, 84
1, 1882311, Control_c, 0, 64, 122
1, 1882313, Note_on_c, 0, 61, 108
1, 1882318, Note_on_c, 0, 49, 101
1, 1882331, Control_c, 0, 64, 75
1, 1882349, Control_c, 0, 64, 61
1, 1882368, Control_c, 0, 64, 88
1, 1882387, Note_on_c, 0, 71, 80
1, 1882387, Control_c, 0, 64, 127
1, 1882406, Note_off_c, 0, 75, 61
1, 1882452, Poly_aftertouch_c, 0, 54, 0
1, 1882474, Note_on_c, 0, 68, 81
1, 1882475, Note_off_c, 0, 71, 62
1, 1882486, Note_off_c, 0, 61, 58
1, 1882486, Poly_aftertouch_c, 0, 61, 0
1, 1882524, Note_off_c, 0, 49, 47
1, 1882559, Note_off_c, 0, 68, 61
1, 1882611, Control_c, 0, 64, 109
1, 1882614, Note_on_c, 0, 80, 94
1, 1882618, Note_on_c, 0, 59, 105
1, 1882621, Note_on_c, 0, 47, 93
1, 1882629, Control_c, 0, 64, 64
1, 1882645, Note_on_c, 0, 81, 62
1, 1882647, Control_c, 0, 64, 53
1, 1882660, Note_on_c, 0, 49, 57
1, 1882665, Control_c, 0, 64, 84
1, 1882668, Note_off_c, 0, 81, 64
1, 1882671, Note_off_c, 0, 59, 65
1, 1882685, Control_c, 0, 64, 127
1, 1882692, Note_off_c, 0, 49, 58
1, 1882717, Note_on_c, 0, 75, 79
1, 1882723, Note_off_c, 0, 47, 63
1, 1882734, Note_off_c, 0, 80, 62
1, 1882751, Poly_aftertouch_c, 0, 54, 127
1, 1882768, Poly_aftertouch_c, 0, 54, 0
1, 1882803, Note_off_c, 0, 75, 66
1, 1882805, Note_on_c, 0, 71, 75
1, 1882838, Note_off_c, 0, 71, 67
1, 1882892, Control_c, 0, 64, 109
1, 1882910, Control_c, 0, 64, 64
1, 1882921, Note_on_c, 0, 87, 92
1, 1882922, Note_on_c, 0, 44, 97
1, 1882929, Control_c, 0, 64, 67
1, 1882930, Note_on_c, 0, 32, 96
1, 1882949, Control_c, 0, 64, 108
1, 1882958, Note_on_c, 0, 88, 59
1, 1882967, Control_c, 0, 64, 127
1, 1882973, Note_on_c, 0, 42, 39
1, 1882974, Note_off_c, 0, 42, 127
1, 1882982, Note_on_c, 0, 31, 38
1, 1882983, Note_off_c, 0, 88, 63
1, 1883004, Note_off_c, 0, 32, 53
1, 1883008, Note_off_c, 0, 44, 53
1, 1883012, Note_on_c, 0, 83, 71
1, 1883017, Poly_aftertouch_c, 0, 42, 0
1, 1883024, Note_off_c, 0, 31, 52
1, 1883075, Poly_aftertouch_c, 0, 34, 0
1, 1883097, Control_c, 0, 64, 92
1, 1883099, Note_on_c, 0, 75, 91
1, 1883105, Note_on_c, 0, 45, 103
1, 1883112, Note_on_c, 0, 33, 91
1, 1883114, Control_c, 0, 64, 62
1, 1883132, Note_on_c, 0, 34, 56
1, 1883133, Control_c, 0, 64, 76
1, 1883147, Note_off_c, 0, 33, 67
1, 1883149, Note_off_c, 0, 83, 64
1, 1883153, Control_c, 0, 64, 109
1, 1883166, Note_off_c, 0, 45, 66
1, 1883170, Control_c, 0, 64, 127
1, 1883174, Note_off_c, 0, 34, 51
1, 1883180, Note_off_c, 0, 87, 61
1, 1883279, Note_off_c, 0, 75, 61
1, 1883284, Control_c, 0, 64, 101
1, 1883302, Control_c, 0, 64, 54
1, 1883321, Control_c, 0, 64, 45
1, 1883336, Note_on_c, 0, 63, 108
1, 1883340, Note_on_c, 0, 51, 96
1, 1883340, Control_c, 0, 64, 89
1, 1883358, Control_c, 0, 64, 127
1, 1883385, Note_on_c, 0, 54, 28
1, 1883436, Note_off_c, 0, 54, 44
1, 1883540, Note_off_c, 0, 63, 56
1, 1883568, Note_off_c, 0, 51, 54
1, 1883668, Note_on_c, 0, 75, 92
1, 1883681, Note_on_c, 0, 61, 106
1, 1883685, Note_on_c, 0, 49, 97
1, 1883695, Control_c, 0, 64, 122
1, 1883713, Control_c, 0, 64, 77
1, 1883732, Note_on_c, 0, 51, 31
1, 1883732, Control_c, 0, 64, 54
1, 1883751, Control_c, 0, 64, 70
1, 1883770, Note_off_c, 0, 51, 36
1, 1883770, Control_c, 0, 64, 104
1, 1883787, Control_c, 0, 64, 127
1, 1883789, Note_on_c, 0, 72, 88
1, 1883852, Note_off_c, 0, 75, 59
1, 1883906, Note_on_c, 0, 69, 88
1, 1883915, Note_off_c, 0, 72, 62
1, 1883932, Note_off_c, 0, 49, 48
1, 1883937, Note_off_c, 0, 61, 56
1, 1883937, Poly_aftertouch_c, 0, 61, 0
1, 1883987, Note_off_c, 0, 69, 59
1, 1883987, Poly_aftertouch_c, 0, 69, 0
1, 1884049, Note_on_c, 0, 81, 98
1, 1884049, Control_c, 0, 64, 74
1, 1884055, Note_on_c, 0, 60, 110
1, 1884058, Note_on_c, 0, 48, 90
1, 1884069, Control_c, 0, 64, 0
1, 1884097, Note_on_c, 0, 51, 50
1, 1884106, Control_c, 0, 64, 61
1, 1884127, Control_c, 0, 64, 105
1, 1884135, Note_off_c, 0, 51, 53
1, 1884144, Control_c, 0, 64, 127
1, 1884153, Note_off_c, 0, 60, 62
1, 1884153, Poly_aftertouch_c, 0, 60, 0
1, 1884174, Note_on_c, 0, 75, 84
1, 1884208, Note_off_c, 0, 48, 64
1, 1884208, Poly_aftertouch_c, 0, 48, 0
1, 1884227, Note_off_c, 0, 81, 65
1, 1884301, Note_off_c, 0, 75, 62
1, 1884305, Note_on_c, 0, 72, 87
1, 1884369, Note_off_c, 0, 72, 64
1, 1884445, Poly_aftertouch_c, 0, 74, 0
1, 1884481, Control_c, 0, 64, 113
1, 1884488, Note_on_c, 0, 45, 108
1, 1884493, Note_on_c, 0, 87, 91
1, 1884500, Note_on_c, 0, 33, 99
1, 1884500, Control_c, 0, 64, 60
1, 1884517, Control_c, 0, 64, 0
1, 1884556, Control_c, 0, 64, 45
1, 1884574, Control_c, 0, 64, 82
1, 1884592, Control_c, 0, 64, 127
1, 1884636, Note_on_c, 0, 84, 80
1, 1884677, Note_off_c, 0, 87, 63
1, 1884726, Note_off_c, 0, 45, 55
1, 1884742, Note_off_c, 0, 33, 58
1, 1884777, Note_off_c, 0, 84, 62
1, 1884786, Note_on_c, 0, 75, 97
1, 1884874, Note_off_c, 0, 75, 57
1, 1884962, Note_on_c, 0, 34, 94
1, 1885072, Note_on_c, 0, 78, 63
1, 1885078, Control_c, 0, 64, 121
1, 1885098, Control_c, 0, 64, 68
1, 1885115, Control_c, 0, 64, 0
1, 1885119, Note_on_c, 0, 75, 65
1, 1885157, Note_on_c, 0, 77, 74
1, 1885174, Note_on_c, 0, 82, 90
1, 1885185, Note_on_c, 0, 87, 99
1, 1885247, Control_c, 0, 64, 47
1, 1885267, Control_c, 0, 64, 127
1, 1885392, Note_on_c, 0, 41, 86
1, 1885417, Note_off_c, 0, 34, 59
1, 1885450, Poly_aftertouch_c, 0, 78, 24
1, 1885529, Note_off_c, 0, 41, 62
1, 1885559, Note_on_c, 0, 46, 104
1, 1885609, Note_off_c, 0, 46, 64
1, 1885741, Note_on_c, 0, 50, 92
1, 1885816, Note_off_c, 0, 50, 63
1, 1885860, Note_on_c, 0, 53, 88
1, 1885935, Note_off_c, 0, 53, 64
1, 1885977, Note_on_c, 0, 58, 95
1, 1886040, Note_off_c, 0, 58, 66
1, 1886093, Note_on_c, 0, 62, 110
1, 1886116, Note_on_c, 0, 60, 65
1, 1886116, Poly_aftertouch_c, 0, 60, 0
1, 1886117, Note_off_c, 0, 60, 127
1, 1886134, Note_off_c, 0, 62, 72
1, 1886456, Poly_aftertouch_c, 0, 78, 22
1, 1886489, Note_off_c, 0, 78, 19
1, 1886489, Poly_aftertouch_c, 0, 78, 0
1, 1886493, Note_off_c, 0, 82, 51
1, 1886493, Poly_aftertouch_c, 0, 82, 0
1, 1886563, Note_off_c, 0, 87, 62
1, 1886563, Note_off_c, 0, 75, 63
1, 1886578, Note_off_c, 0, 77, 25
1, 1886710, Poly_aftertouch_c, 0, 77, 0
1, 1886763, Note_on_c, 0, 86, 101
1, 1886767, Note_on_c, 0, 77, 80
1, 1886768, Note_on_c, 0, 82, 96
1, 1886769, Note_on_c, 0, 74, 106
1, 1886805, Note_on_c, 0, 80, 59
1, 1886841, Note_off_c, 0, 80, 50
1, 1886895, Note_off_c, 0, 77, 59
1, 1886988, Note_off_c, 0, 86, 51
1, 1887037, Note_off_c, 0, 74, 54
1, 1887042, Note_off_c, 0, 82, 58
1, 1887042, Poly_aftertouch_c, 0, 82, 0
1, 1887227, Note_on_c, 0, 31, 94
1, 1887265, Note_on_c, 0, 74, 95
1, 1887265, Control_c, 0, 64, 78
1, 1887274, Note_on_c, 0, 72, 103
1, 1887277, Note_on_c, 0, 79, 89
1, 1887279, Note_on_c, 0, 84, 102
1, 1887283, Control_c, 0, 64, 0
1, 1887309, Note_on_c, 0, 80, 58
1, 1887323, Control_c, 0, 64, 44
1, 1887325, Note_on_c, 0, 83, 34
1, 1887326, Note_off_c, 0, 83, 127
1, 1887341, Control_c, 0, 64, 98
1, 1887360, Control_c, 0, 64, 127
1, 1887401, Note_off_c, 0, 80, 34
1, 1887470, Note_off_c, 0, 31, 63
1, 1887470, Note_on_c, 0, 43, 96
1, 1887505, Note_off_c, 0, 43, 66
1, 1887619, Note_on_c, 0, 46, 86
1, 1887705, Note_off_c, 0, 46, 62
1, 1887714, Note_on_c, 0, 50, 26
1, 1887824, Note_on_c, 0, 55, 80
1, 1887850, Note_off_c, 0, 50, 59
1, 1887922, Note_off_c, 0, 55, 63
1, 1887925, Note_on_c, 0, 58, 91
1, 1887961, Note_off_c, 0, 79, 59
1, 1887975, Note_off_c, 0, 58, 62
1, 1888029, Note_on_c, 0, 62, 106
1, 1888039, Note_off_c, 0, 84, 57
1, 1888042, Poly_aftertouch_c, 0, 83, 0
1, 1888058, Note_off_c, 0, 72, 55
1, 1888072, Note_off_c, 0, 62, 72
1, 1888072, Note_off_c, 0, 74, 50
1, 1888398, Note_on_c, 0, 79, 87
1, 1888400, Note_on_c, 0, 70, 106
1, 1888401, Note_on_c, 0, 82, 99
1, 1888402, Note_on_c, 0, 74, 84
1, 1888463, Note_off_c, 0, 74, 60
1, 1888513, Note_off_c, 0, 82, 65
1, 1888513, Poly_aftertouch_c, 0, 82, 0
1, 1888519, Note_off_c, 0, 79, 60
1, 1888583, Note_off_c, 0, 70, 58
1, 1888810, Note_on_c, 0, 29, 97
1, 1888818, Control_c, 0, 64, 91
1, 1888821, Note_on_c, 0, 68, 104
1, 1888825, Note_on_c, 0, 80, 101
1, 1888825, Note_on_c, 0, 74, 90
1, 1888826, Note_on_c, 0, 71, 89
1, 1888839, Control_c, 0, 64, 0
1, 1888875, Control_c, 0, 64, 19
1, 1888893, Control_c, 0, 64, 68
1, 1888913, Control_c, 0, 64, 100
1, 1888932, Control_c, 0, 64, 127
1, 1889023, Note_off_c, 0, 29, 61
1, 1889026, Note_on_c, 0, 41, 93
1, 1889070, Note_off_c, 0, 41, 64
1, 1889189, Note_on_c, 0, 47, 86
1, 1889263, Note_off_c, 0, 71, 47
1, 1889270, Note_off_c, 0, 74, 46
1, 1889276, Note_off_c, 0, 47, 57
1, 1889295, Note_on_c, 0, 50, 78
1, 1889309, Note_off_c, 0, 80, 52
1, 1889325, Note_off_c, 0, 68, 41
1, 1889386, Note_on_c, 0, 56, 90
1, 1889396, Note_off_c, 0, 50, 63
1, 1889484, Note_on_c, 0, 59, 92
1, 1889488, Note_off_c, 0, 56, 60
1, 1889544, Note_off_c, 0, 59, 66
1, 1889566, Control_c, 0, 64, 88
1, 1889582, Note_on_c, 0, 79, 94
1, 1889583, Note_on_c, 0, 74, 80
1, 1889585, Note_on_c, 0, 67, 100
1, 1889585, Control_c, 0, 64, 40
1, 1889590, Note_on_c, 0, 71, 80
1, 1889592, Note_on_c, 0, 62, 104
1, 1889607, Control_c, 0, 64, 33
1, 1889622, Control_c, 0, 64, 65
1, 1889642, Control_c, 0, 64, 97
1, 1889660, Control_c, 0, 64, 127
1, 1889669, Note_off_c, 0, 62, 69
1, 1889703, Note_off_c, 0, 74, 63
1, 1889709, Note_off_c, 0, 71, 61
1, 1889728, Poly_aftertouch_c, 0, 75, 0
1, 1889778, Note_off_c, 0, 79, 51
1, 1889845, Note_off_c, 0, 67, 54
1, 1890099, Note_on_c, 0, 74, 88
1, 1890099, Note_on_c, 0, 77, 96
1, 1890100, Note_on_c, 0, 68, 92
1, 1890102, Note_on_c, 0, 65, 98
1, 1890313, Note_off_c, 0, 65, 56
1, 1890346, Note_off_c, 0, 77, 50
1, 1890365, Note_off_c, 0, 68, 59
1, 1890380, Note_off_c, 0, 74, 56
1, 1890438, Note_on_c, 0, 35, 83
1, 1890453, Note_on_c, 0, 65, 71
1, 1890483, Note_on_c, 0, 68, 72
1, 1890505, Note_on_c, 0, 74, 92
1, 1890520, Note_on_c, 0, 77, 96
1, 1890520, Control_c, 0, 64, 101
1, 1890539, Control_c, 0, 64, 46
1, 1890556, Control_c, 0, 64, 0
1, 1890596, Control_c, 0, 64, 38
1, 1890614, Control_c, 0, 64, 70
1, 1890634, Control_c, 0, 64, 99
1, 1890651, Control_c, 0, 64, 127
1, 1890665, Note_on_c, 0, 38, 79
1, 1890706, Note_off_c, 0, 35, 59
1, 1890770, Note_on_c, 0, 44, 84
1, 1890805, Note_off_c, 0, 38, 59
1, 1890811, Note_off_c, 0, 74, 62
1, 1890828, Note_off_c, 0, 77, 57
1, 1890841, Note_off_c, 0, 68, 63
1, 1890879, Note_on_c, 0, 47, 92
1, 1890893, Note_off_c, 0, 44, 61
1, 1890917, Note_off_c, 0, 65, 62
1, 1890927, Note_off_c, 0, 47, 62
1, 1891008, Note_on_c, 0, 50, 88
1, 1891120, Note_on_c, 0, 56, 88
1, 1891215, Note_on_c, 0, 64, 77
1, 1891227, Note_on_c, 0, 65, 80
1, 1891230, Control_c, 0, 64, 102
1, 1891238, Note_on_c, 0, 68, 85
1, 1891243, Note_on_c, 0, 59, 104
1, 1891248, Control_c, 0, 64, 54
1, 1891259, Note_on_c, 0, 76, 90
1, 1891267, Control_c, 0, 64, 0
1, 1891305, Control_c, 0, 64, 54
1, 1891325, Control_c, 0, 64, 85
1, 1891329, Note_off_c, 0, 59, 59
1, 1891343, Control_c, 0, 64, 127
1, 1891346, Note_off_c, 0, 50, 61
1, 1891370, Note_off_c, 0, 56, 62
1, 1891402, Note_off_c, 0, 76, 62
1, 1891420, Note_off_c, 0, 64, 62
1, 1891486, Note_off_c, 0, 65, 51
1, 1891488, Note_off_c, 0, 68, 52
1, 1891680, Control_c, 0, 64, 95
1, 1891681, Note_on_c, 0, 62, 77
1, 1891690, Note_on_c, 0, 65, 86
1, 1891694, Note_on_c, 0, 68, 90
1, 1891697, Note_on_c, 0, 74, 94
1, 1891697, Control_c, 0, 64, 33
1, 1891716, Control_c, 0, 64, 0
1, 1891735, Control_c, 0, 64, 21
1, 1891755, Control_c, 0, 64, 72
1, 1891773, Control_c, 0, 64, 111
1, 1891792, Control_c, 0, 64, 127
1, 1891796, Note_off_c, 0, 62, 58
1, 1891806, Note_off_c, 0, 74, 62
1, 1891843, Note_off_c, 0, 68, 60
1, 1891867, Note_off_c, 0, 65, 58
1, 1891960, Control_c, 0, 64, 121
1, 1891972, Note_on_c, 0, 36, 66
1, 1891975, Note_on_c, 0, 41, 61
1, 1891979, Control_c, 0, 64, 66
1, 1891998, Control_c, 0, 64, 0
1, 1892012, Note_on_c, 0, 45, 65
1, 1892050, Note_on_c, 0, 48, 98
1, 1892051, Note_on_c, 0, 60, 92
1, 1892053, Note_on_c, 0, 69, 84
1, 1892054, Note_on_c, 0, 72, 90
1, 1892058, Note_off_c, 0, 36, 62
1, 1892058, Poly_aftertouch_c, 0, 36, 0
1, 1892074, Control_c, 0, 64, 50
1, 1892079, Note_off_c, 0, 41, 63
1, 1892092, Control_c, 0, 64, 103
1, 1892095, Note_off_c, 0, 45, 61
1, 1892098, Note_off_c, 0, 48, 66
1, 1892098, Poly_aftertouch_c, 0, 48, 0
1, 1892109, Control_c, 0, 64, 127
1, 1892127, Note_off_c, 0, 60, 59
1, 1892127, Poly_aftertouch_c, 0, 60, 0
1, 1892172, Note_on_c, 0, 67, 81
1, 1892184, Note_off_c, 0, 72, 59
1, 1892216, Note_off_c, 0, 69, 58
1, 1892216, Poly_aftertouch_c, 0, 69, 0
1, 1892266, Note_on_c, 0, 65, 78
1, 1892280, Note_off_c, 0, 67, 59
1, 1892353, Control_c, 0, 64, 121
1, 1892369, Note_on_c, 0, 57, 68
1, 1892370, Control_c, 0, 64, 103
1, 1892374, Note_on_c, 0, 60, 78
1, 1892382, Note_off_c, 0, 65, 59
1, 1892389, Control_c, 0, 64, 114
1, 1892408, Control_c, 0, 64, 127
1, 1892436, Note_off_c, 0, 60, 63
1, 1892436, Poly_aftertouch_c, 0, 60, 0
1, 1892448, Note_off_c, 0, 57, 58
1, 1892469, Note_on_c, 0, 55, 72
1, 1892479, Note_on_c, 0, 72, 80
1, 1892521, Control_c, 0, 64, 99
1, 1892540, Control_c, 0, 64, 95
1, 1892559, Note_off_c, 0, 55, 60
1, 1892560, Control_c, 0, 64, 115
1, 1892563, Note_on_c, 0, 53, 77
1, 1892571, Note_on_c, 0, 69, 80
1, 1892579, Control_c, 0, 64, 127
1, 1892582, Note_off_c, 0, 72, 63
1, 1892654, Note_on_c, 0, 48, 77
1, 1892656, Note_off_c, 0, 53, 61
1, 1892666, Note_off_c, 0, 69, 60
1, 1892666, Poly_aftertouch_c, 0, 69, 0
1, 1892668, Note_on_c, 0, 67, 80
1, 1892729, Note_off_c, 0, 48, 60
1, 1892729, Poly_aftertouch_c, 0, 48, 0
1, 1892737, Note_off_c, 0, 67, 59
1, 1892755, Note_on_c, 0, 65, 82
1, 1892764, Note_on_c, 0, 60, 78
1, 1892802, Control_c, 0, 64, 86
1, 1892821, Control_c, 0, 64, 77
1, 1892823, Note_off_c, 0, 65, 64
1, 1892823, Note_off_c, 0, 60, 63
1, 1892823, Poly_aftertouch_c, 0, 60, 0
1, 1892838, Control_c, 0, 64, 92
1, 1892844, Note_on_c, 0, 77, 84
1, 1892856, Note_on_c, 0, 57, 81
1, 1892857, Control_c, 0, 64, 110
1, 1892876, Control_c, 0, 64, 127
1, 1892941, Note_on_c, 0, 72, 82
1, 1892952, Note_off_c, 0, 77, 62
1, 1892957, Note_on_c, 0, 55, 75
1, 1892976, Note_off_c, 0, 57, 50
1, 1892999, Note_on_c, 0, 53, 80
1, 1893025, Note_off_c, 0, 55, 62
1, 1893033, Note_on_c, 0, 69, 81
1, 1893035, Note_off_c, 0, 72, 63
1, 1893064, Note_off_c, 0, 53, 60
1, 1893092, Note_off_c, 0, 69, 61
1, 1893092, Poly_aftertouch_c, 0, 69, 0
1, 1893106, Note_on_c, 0, 65, 80
1, 1893120, Control_c, 0, 64, 107
1, 1893125, Note_on_c, 0, 81, 86
1, 1893138, Control_c, 0, 64, 94
1, 1893156, Control_c, 0, 64, 108
1, 1893175, Control_c, 0, 64, 127
1, 1893201, Note_off_c, 0, 65, 50
1, 1893202, Note_on_c, 0, 60, 81
1, 1893220, Note_on_c, 0, 79, 80
1, 1893259, Note_off_c, 0, 81, 61
1, 1893288, Note_on_c, 0, 77, 80
1, 1893295, Note_on_c, 0, 57, 80
1, 1893300, Note_off_c, 0, 60, 63
1, 1893300, Poly_aftertouch_c, 0, 60, 0
1, 1893313, Note_off_c, 0, 79, 62
1, 1893363, Note_off_c, 0, 57, 63
1, 1893379, Note_on_c, 0, 72, 86
1, 1893381, Control_c, 0, 64, 108
1, 1893391, Note_on_c, 0, 69, 87
1, 1893392, Note_off_c, 0, 77, 62
1, 1893400, Control_c, 0, 64, 116
1, 1893418, Control_c, 0, 64, 127
1, 1893454, Note_off_c, 0, 72, 62
1, 1893463, Note_off_c, 0, 69, 51
1, 1893463, Poly_aftertouch_c, 0, 69, 0
1, 1893470, Note_on_c, 0, 84, 88
1, 1893479, Note_on_c, 0, 67, 83
1, 1893559, Note_on_c, 0, 81, 85
1, 1893562, Note_on_c, 0, 65, 82
1, 1893583, Note_off_c, 0, 84, 65
1, 1893584, Note_off_c, 0, 67, 62
1, 1893658, Note_on_c, 0, 79, 82
1, 1893660, Note_on_c, 0, 60, 81
1, 1893661, Note_off_c, 0, 65, 65
1, 1893672, Note_off_c, 0, 81, 62
1, 1893726, Note_off_c, 0, 60, 63
1, 1893726, Poly_aftertouch_c, 0, 60, 0
1, 1893730, Note_off_c, 0, 79, 64
1, 1893743, Note_on_c, 0, 77, 90
1, 1893746, Note_on_c, 0, 72, 86
1, 1893831, Note_off_c, 0, 77, 60
1, 1893840, Note_on_c, 0, 69, 86
1, 1893841, Note_on_c, 0, 89, 88
1, 1893859, Note_off_c, 0, 72, 60
1, 1893935, Note_on_c, 0, 84, 88
1, 1893936, Note_on_c, 0, 67, 80
1, 1893938, Note_off_c, 0, 69, 63
1, 1893938, Poly_aftertouch_c, 0, 69, 0
1, 1893968, Note_off_c, 0, 89, 62
1, 1893968, Poly_aftertouch_c, 0, 89, 0
1, 1893989, Note_off_c, 0, 67, 67
1, 1894036, Note_on_c, 0, 81, 88
1, 1894041, Note_on_c, 0, 65, 79
1, 1894049, Note_off_c, 0, 84, 65
1, 1894057, Note_on_c, 0, 64, 66
1, 1894085, Note_off_c, 0, 64, 65
1, 1894106, Note_off_c, 0, 65, 64
1, 1894134, Note_on_c, 0, 93, 95
1, 1894144, Note_on_c, 0, 60, 84
1, 1894162, Note_off_c, 0, 81, 60
1, 1894232, Note_on_c, 0, 57, 75
1, 1894234, Note_on_c, 0, 89, 92
1, 1894236, Note_off_c, 0, 60, 63
1, 1894236, Poly_aftertouch_c, 0, 60, 0
1, 1894264, Note_off_c, 0, 93, 64
1, 1894292, Note_off_c, 0, 57, 62
1, 1894391, Control_c, 0, 64, 68
1, 1894396, Note_on_c, 0, 48, 80
1, 1894410, Control_c, 0, 64, 0
1, 1894416, Note_on_c, 0, 53, 79
1, 1894458, Note_on_c, 0, 57, 81
1, 1894485, Control_c, 0, 64, 65
1, 1894488, Note_on_c, 0, 60, 89
1, 1894496, Note_on_c, 0, 62, 95
1, 1894497, Note_off_c, 0, 48, 63
1, 1894497, Poly_aftertouch_c, 0, 48, 0
1, 1894504, Control_c, 0, 64, 127
1, 1894506, Note_on_c, 0, 84, 101
1, 1894506, Note_on_c, 0, 96, 102
1, 1894527, Note_on_c, 0, 95, 71
1, 1894535, Note_off_c, 0, 53, 61
1, 1894536, Note_off_c, 0, 62, 68
1, 1894542, Note_off_c, 0, 89, 65
1, 1894542, Poly_aftertouch_c, 0, 89, 0
1, 1894546, Note_off_c, 0, 57, 60
1, 1894548, Note_off_c, 0, 60, 65
1, 1894548, Poly_aftertouch_c, 0, 60, 0
1, 1894550, Note_off_c, 0, 95, 66
1, 1894626, Poly_aftertouch_c, 0, 58, 127
1, 1894634, Note_on_c, 0, 93, 86
1, 1894646, Note_off_c, 0, 84, 64
1, 1894662, Poly_aftertouch_c, 0, 58, 0
1, 1894708, Note_off_c, 0, 96, 58
1, 1894745, Note_on_c, 0, 89, 86
1, 1894774, Note_off_c, 0, 93, 63
1, 1894843, Note_on_c, 0, 84, 72
1, 1894847, Note_on_c, 0, 83, 85
1, 1894868, Note_off_c, 0, 89, 64
1, 1894868, Poly_aftertouch_c, 0, 89, 0
1, 1894870, Note_off_c, 0, 83, 73
1, 1894897, Note_off_c, 0, 84, 63
1, 1894899, Note_on_c, 0, 81, 81
1, 1894958, Note_off_c, 0, 81, 64
1, 1894990, Note_on_c, 0, 77, 81
1, 1895050, Note_on_c, 0, 72, 80
1, 1895056, Note_off_c, 0, 77, 62
1, 1895136, Note_on_c, 0, 77, 90
1, 1895157, Note_off_c, 0, 72, 62
1, 1895171, Note_on_c, 0, 81, 88
1, 1895195, Note_off_c, 0, 77, 61
1, 1895222, Note_off_c, 0, 81, 65
1, 1895263, Note_on_c, 0, 84, 85
1, 1895322, Note_on_c, 0, 89, 84
1, 1895343, Note_off_c, 0, 84, 66
1, 1895365, Note_on_c, 0, 93, 89
1, 1895408, Note_on_c, 0, 96, 103
1, 1895414, Note_on_c, 0, 91, 40
1, 1895419, Control_c, 0, 64, 122
1, 1895423, Note_off_c, 0, 89, 64
1, 1895423, Poly_aftertouch_c, 0, 89, 0
1, 1895438, Control_c, 0, 64, 62
1, 1895441, Note_off_c, 0, 93, 67
1, 1895450, Note_off_c, 0, 91, 54
1, 1895455, Control_c, 0, 64, 0
1, 1895456, Note_off_c, 0, 96, 68
1, 1895580, Note_on_c, 0, 48, 70
1, 1895587, Note_on_c, 0, 52, 64
1, 1895595, Note_on_c, 0, 55, 61
1, 1895654, Note_on_c, 0, 58, 73
1, 1895722, Note_off_c, 0, 48, 63
1, 1895722, Poly_aftertouch_c, 0, 48, 0
1, 1895724, Note_on_c, 0, 60, 106
1, 1895737, Control_c, 0, 64, 47
1, 1895755, Note_on_c, 0, 100, 107
1, 1895755, Control_c, 0, 64, 127
1, 1895757, Note_on_c, 0, 88, 105
1, 1895758, Note_off_c, 0, 52, 63
1, 1895766, Note_off_c, 0, 55, 66
1, 1895767, Note_off_c, 0, 60, 71
1, 1895767, Poly_aftertouch_c, 0, 60, 0
1, 1895778, Note_off_c, 0, 58, 64
1, 1895889, Note_on_c, 0, 96, 85
1, 1895923, Note_off_c, 0, 88, 64
1, 1895971, Note_off_c, 0, 100, 62
1, 1896010, Note_on_c, 0, 94, 94
1, 1896047, Note_off_c, 0, 96, 63
1, 1896112, Note_on_c, 0, 88, 97
1, 1896140, Note_off_c, 0, 94, 66
1, 1896171, Note_off_c, 0, 88, 66
1, 1896196, Note_on_c, 0, 84, 79
1, 1896274, Note_on_c, 0, 82, 83
1, 1896287, Note_off_c, 0, 84, 63
1, 1896345, Note_on_c, 0, 76, 80
1, 1896353, Note_off_c, 0, 82, 65
1, 1896353, Poly_aftertouch_c, 0, 82, 0
1, 1896432, Note_on_c, 0, 82, 94
1, 1896453, Note_off_c, 0, 76, 64
1, 1896480, Note_on_c, 0, 84, 88
1, 1896499, Note_off_c, 0, 82, 65
1, 1896499, Poly_aftertouch_c, 0, 82, 0
1, 1896534, Note_off_c, 0, 84, 67
1, 1896565, Note_on_c, 0, 88, 89
1, 1896630, Note_on_c, 0, 94, 87
1, 1896667, Note_on_c, 0, 89, 23
1, 1896692, Note_off_c, 0, 88, 60
1, 1896710, Note_on_c, 0, 96, 82
1, 1896718, Note_off_c, 0, 89, 40
1, 1896718, Poly_aftertouch_c, 0, 89, 0
1, 1896775, Note_on_c, 0, 100, 102
1, 1896791, Note_on_c, 0, 97, 77
1, 1896799, Note_off_c, 0, 94, 66
1, 1896813, Note_off_c, 0, 96, 65
1, 1896819, Note_off_c, 0, 97, 69
1, 1896851, Note_off_c, 0, 100, 66
1, 1896952, Control_c, 0, 64, 97
1, 1896972, Control_c, 0, 64, 56
1, 1896990, Control_c, 0, 64, 0
1, 1896995, Note_on_c, 0, 41, 74
1, 1897046, Note_on_c, 0, 48, 65
1, 1897092, Note_off_c, 0, 41, 59
1, 1897127, Note_on_c, 0, 53, 63
1, 1897173, Poly_aftertouch_c, 0, 45, 0
1, 1897180, Note_on_c, 0, 101, 105
1, 1897182, Note_on_c, 0, 57, 107
1, 1897182, Note_on_c, 0, 89, 108
1, 1897183, Note_on_c, 0, 93, 98
1, 1897186, Note_on_c, 0, 96, 92
1, 1897215, Control_c, 0, 64, 109
1, 1897219, Note_off_c, 0, 48, 65
1, 1897219, Poly_aftertouch_c, 0, 48, 0
1, 1897222, Note_on_c, 0, 99, 56
1, 1897230, Note_off_c, 0, 53, 63
1, 1897232, Control_c, 0, 64, 127
1, 1897235, Note_off_c, 0, 57, 68
1, 1897238, Note_off_c, 0, 89, 64
1, 1897238, Poly_aftertouch_c, 0, 89, 0
1, 1897239, Note_off_c, 0, 101, 69
1, 1897243, Note_off_c, 0, 96, 64
1, 1897248, Note_off_c, 0, 99, 37
1, 1897270, Note_off_c, 0, 93, 66
1, 1897758, Note_on_c, 0, 63, 90
1, 1897759, Note_on_c, 0, 91, 98
1, 1897760, Note_on_c, 0, 67, 100
1, 1897760, Note_on_c, 0, 53, 88
1, 1897762, Note_on_c, 0, 79, 105
1, 1897763, Note_on_c, 0, 87, 95
1, 1897763, Note_on_c, 0, 81, 96
1, 1897766, Note_on_c, 0, 57, 78
1, 1897775, Control_c, 0, 64, 93
1, 1897797, Control_c, 0, 64, 26
1, 1897812, Control_c, 0, 64, 0
1, 1897868, Control_c, 0, 64, 60
1, 1897888, Control_c, 0, 64, 117
1, 1897905, Control_c, 0, 64, 127
1, 1897980, Note_off_c, 0, 53, 62
1, 1897983, Note_off_c, 0, 67, 59
1, 1897997, Note_off_c, 0, 91, 60
1, 1898018, Note_off_c, 0, 57, 62
1, 1898021, Note_off_c, 0, 63, 61
1, 1898059, Note_off_c, 0, 87, 62
1, 1898062, Note_off_c, 0, 79, 54
1, 1898098, Note_off_c, 0, 81, 56
1, 1898262, Control_c, 0, 64, 101
1, 1898279, Control_c, 0, 64, 41
1, 1898281, Note_on_c, 0, 87, 86
1, 1898283, Note_on_c, 0, 54, 45
1, 1898284, Note_on_c, 0, 75, 92
1, 1898287, Note_on_c, 0, 84, 76
1, 1898288, Note_on_c, 0, 61, 62
1, 1898298, Control_c, 0, 64, 0
1, 1898303, Note_on_c, 0, 63, 78
1, 1898315, Note_on_c, 0, 60, 70
1, 1898317, Control_c, 0, 64, 50
1, 1898319, Note_off_c, 0, 61, 62
1, 1898319, Poly_aftertouch_c, 0, 61, 0
1, 1898326, Note_on_c, 0, 80, 45
1, 1898327, Note_off_c, 0, 80, 127
1, 1898336, Control_c, 0, 64, 82
1, 1898354, Control_c, 0, 64, 115
1, 1898357, Note_off_c, 0, 54, 64
1, 1898374, Control_c, 0, 64, 127
1, 1898382, Note_off_c, 0, 63, 55
1, 1898385, Note_off_c, 0, 84, 59
1, 1898405, Note_off_c, 0, 87, 52
1, 1898407, Note_off_c, 0, 75, 60
1, 1898410, Note_on_c, 0, 53, 23
1, 1898443, Note_off_c, 0, 60, 59
1, 1898443, Poly_aftertouch_c, 0, 60, 0
1, 1898471, Note_off_c, 0, 53, 29
1, 1898509, Note_on_c, 0, 74, 95
1, 1898510, Note_on_c, 0, 86, 89
1, 1898511, Note_on_c, 0, 53, 66
1, 1898511, Note_on_c, 0, 82, 84
1, 1898513, Note_on_c, 0, 62, 89
1, 1898520, Note_on_c, 0, 58, 80
1, 1898589, Note_off_c, 0, 62, 54
1, 1898601, Note_off_c, 0, 74, 55
1, 1898614, Note_off_c, 0, 86, 59
1, 1898630, Note_off_c, 0, 82, 60
1, 1898630, Poly_aftertouch_c, 0, 82, 0
1, 1898656, Note_off_c, 0, 53, 57
1, 1898657, Note_off_c, 0, 58, 55
1, 1898710, Control_c, 0, 64, 80
1, 1898730, Control_c, 0, 64, 0
1, 1898746, Note_on_c, 0, 84, 91
1, 1898747, Note_on_c, 0, 60, 93
1, 1898749, Note_on_c, 0, 53, 87
1, 1898751, Note_on_c, 0, 81, 91
1, 1898752, Note_on_c, 0, 57, 84
1, 1898752, Note_on_c, 0, 72, 96
1, 1898777, Control_c, 0, 64, 27
1, 1898785, Control_c, 0, 64, 74
1, 1898803, Note_off_c, 0, 72, 62
1, 1898803, Control_c, 0, 64, 115
1, 1898804, Note_off_c, 0, 60, 65
1, 1898804, Poly_aftertouch_c, 0, 60, 0
1, 1898813, Note_on_c, 0, 82, 15
1, 1898813, Poly_aftertouch_c, 0, 82, 0
1, 1898814, Note_off_c, 0, 82, 127
1, 1898815, Note_off_c, 0, 57, 64
1, 1898822, Control_c, 0, 64, 127
1, 1898824, Note_off_c, 0, 81, 64
1, 1898826, Note_off_c, 0, 53, 61
1, 1898853, Note_off_c, 0, 84, 52
1, 1899066, Note_on_c, 0, 82, 74
1, 1899070, Note_on_c, 0, 74, 81
1, 1899071, Note_on_c, 0, 62, 80
1, 1899075, Note_on_c, 0, 53, 75
1, 1899080, Note_on_c, 0, 58, 71
1, 1899083, Control_c, 0, 64, 75
1, 1899103, Control_c, 0, 64, 28
1, 1899104, Note_off_c, 0, 62, 69
1, 1899105, Note_off_c, 0, 74, 66
1, 1899122, Control_c, 0, 64, 41
1, 1899129, Note_off_c, 0, 82, 65
1, 1899129, Poly_aftertouch_c, 0, 82, 0
1, 1899131, Note_off_c, 0, 58, 61
1, 1899140, Control_c, 0, 64, 67
1, 1899158, Control_c, 0, 64, 105
1, 1899163, Note_on_c, 0, 87, 92
1, 1899166, Note_on_c, 0, 75, 99
1, 1899168, Note_on_c, 0, 84, 84
1, 1899170, Note_on_c, 0, 63, 100
1, 1899177, Control_c, 0, 64, 127
1, 1899178, Note_on_c, 0, 60, 50
1, 1899178, Note_on_c, 0, 82, 65
1, 1899198, Note_on_c, 0, 58, 56
1, 1899212, Note_on_c, 0, 80, 21
1, 1899237, Note_off_c, 0, 53, 62
1, 1899237, Note_off_c, 0, 63, 62
1, 1899238, Note_off_c, 0, 75, 64
1, 1899242, Note_off_c, 0, 87, 66
1, 1899261, Note_off_c, 0, 58, 63
1, 1899262, Note_off_c, 0, 82, 61
1, 1899262, Poly_aftertouch_c, 0, 82, 0
1, 1899267, Note_off_c, 0, 80, 42
1, 1899270, Note_off_c, 0, 84, 63
1, 1899272, Note_off_c, 0, 60, 63
1, 1899272, Poly_aftertouch_c, 0, 60, 0
1, 1899420, Control_c, 0, 64, 93
1, 1899439, Control_c, 0, 64, 43
1, 1899458, Control_c, 0, 64, 0
1, 1899639, Poly_aftertouch_c, 0, 58, 0
1, 1899722, Note_on_c, 0, 91, 98
1, 1899726, Note_on_c, 0, 87, 95
1, 1899728, Note_on_c, 0, 79, 105
1, 1899729, Note_on_c, 0, 81, 95
1, 1899730, Note_on_c, 0, 67, 101
1, 1899731, Note_on_c, 0, 63, 90
1, 1899731, Note_on_c, 0, 53, 84
1, 1899740, Note_on_c, 0, 57, 78
1, 1899776, Control_c, 0, 64, 77
1, 1899779, Note_on_c, 0, 55, 47
1, 1899780, Note_off_c, 0, 55, 127
1, 1899795, Control_c, 0, 64, 127
1, 1899960, Note_off_c, 0, 53, 55
1, 1899972, Note_off_c, 0, 67, 55
1, 1900017, Note_off_c, 0, 91, 60
1, 1900025, Note_off_c, 0, 57, 57
1, 1900054, Note_off_c, 0, 63, 57
1, 1900063, Note_off_c, 0, 79, 56
1, 1900091, Note_off_c, 0, 87, 61
1, 1900112, Note_off_c, 0, 81, 59
1, 1900281, Control_c, 0, 64, 103
1, 1900299, Note_on_c, 0, 87, 83
1, 1900299, Control_c, 0, 64, 66
1, 1900303, Note_on_c, 0, 75, 91
1, 1900304, Note_on_c, 0, 63, 85
1, 1900309, Note_on_c, 0, 84, 72
1, 1900311, Note_on_c, 0, 60, 76
1, 1900311, Note_on_c, 0, 53, 75
1, 1900318, Control_c, 0, 64, 63
1, 1900338, Control_c, 0, 64, 80
1, 1900355, Control_c, 0, 64, 103
1, 1900374, Control_c, 0, 64, 127
1, 1900391, Note_off_c, 0, 84, 61
1, 1900399, Note_off_c, 0, 87, 62
1, 1900411, Note_off_c, 0, 75, 63
1, 1900413, Note_off_c, 0, 63, 47
1, 1900423, Note_off_c, 0, 60, 59
1, 1900423, Poly_aftertouch_c, 0, 60, 0
1, 1900426, Note_off_c, 0, 53, 57
1, 1900469, Control_c, 0, 64, 109
1, 1900486, Control_c, 0, 64, 73
1, 1900505, Control_c, 0, 64, 63
1, 1900517, Note_on_c, 0, 74, 91
1, 1900519, Note_on_c, 0, 86, 85
1, 1900519, Note_on_c, 0, 62, 88
1, 1900521, Note_on_c, 0, 58, 78
1, 1900522, Control_c, 0, 64, 81
1, 1900525, Note_on_c, 0, 82, 82
1, 1900531, Note_on_c, 0, 53, 73
1, 1900548, Control_c, 0, 64, 111
1, 1900560, Control_c, 0, 64, 127
1, 1900611, Note_off_c, 0, 62, 55
1, 1900620, Note_off_c, 0, 86, 60
1, 1900637, Note_off_c, 0, 74, 55
1, 1900657, Note_off_c, 0, 82, 59
1, 1900657, Poly_aftertouch_c, 0, 82, 0
1, 1900659, Note_off_c, 0, 53, 54
1, 1900688, Note_off_c, 0, 58, 56
1, 1900749, Control_c, 0, 64, 85
1, 1900759, Note_on_c, 0, 84, 90
1, 1900761, Note_on_c, 0, 60, 92
1, 1900764, Note_on_c, 0, 81, 91
1, 1900764, Note_on_c, 0, 72, 96
1, 1900766, Note_on_c, 0, 53, 81
1, 1900768, Control_c, 0, 64, 51
1, 1900769, Note_on_c, 0, 57, 82
1, 1900789, Control_c, 0, 64, 56
1, 1900805, Control_c, 0, 64, 80
1, 1900823, Control_c, 0, 64, 103
1, 1900834, Note_off_c, 0, 72, 52
1, 1900834, Note_off_c, 0, 57, 63
1, 1900838, Note_off_c, 0, 60, 60
1, 1900838, Poly_aftertouch_c, 0, 60, 0
1, 1900842, Control_c, 0, 64, 127
1, 1900855, Note_off_c, 0, 81, 61
1, 1900857, Note_off_c, 0, 53, 59
1, 1900881, Poly_aftertouch_c, 0, 82, 0
1, 1900896, Note_off_c, 0, 84, 62
1, 1901080, Note_on_c, 0, 74, 79
1, 1901081, Note_on_c, 0, 62, 84
1, 1901084, Note_on_c, 0, 82, 74
1, 1901086, Note_on_c, 0, 86, 69
1, 1901092, Note_on_c, 0, 58, 75
1, 1901093, Note_on_c, 0, 53, 73
1, 1901109, Control_c, 0, 64, 76
1, 1901118, Note_off_c, 0, 74, 64
1, 1901119, Note_off_c, 0, 86, 69
1, 1901122, Control_c, 0, 64, 18
1, 1901132, Note_off_c, 0, 62, 60
1, 1901141, Control_c, 0, 64, 29
1, 1901148, Note_off_c, 0, 82, 64
1, 1901160, Control_c, 0, 64, 56
1, 1901164, Note_off_c, 0, 58, 58
1, 1901175, Note_on_c, 0, 87, 94
1, 1901177, Note_on_c, 0, 75, 98
1, 1901177, Control_c, 0, 64, 79
1, 1901182, Note_on_c, 0, 84, 82
1, 1901186, Note_on_c, 0, 63, 98
1, 1901187, Note_on_c, 0, 60, 68
1, 1901202, Control_c, 0, 64, 127
1, 1901214, Note_on_c, 0, 82, 45
1, 1901219, Note_on_c, 0, 58, 36
1, 1901258, Note_off_c, 0, 53, 63
1, 1901259, Note_off_c, 0, 75, 64
1, 1901261, Note_off_c, 0, 87, 66
1, 1901278, Note_off_c, 0, 63, 59
1, 1901289, Note_off_c, 0, 58, 60
1, 1901293, Note_off_c, 0, 84, 62
1, 1901305, Note_off_c, 0, 60, 60
1, 1901305, Poly_aftertouch_c, 0, 60, 0
1, 1901338, Note_off_c, 0, 82, 42
1, 1901460, Control_c, 0, 64, 86
1, 1901478, Control_c, 0, 64, 41
1, 1901495, Control_c, 0, 64, 0
1, 1901628, Note_on_c, 0, 53, 62
1, 1901650, Note_on_c, 0, 57, 55
1, 1901670, Note_on_c, 0, 63, 65
1, 1901745, Note_off_c, 0, 53, 59
1, 1901758, Note_on_c, 0, 67, 96
1, 1901765, Note_on_c, 0, 91, 96
1, 1901768, Note_on_c, 0, 87, 94
1, 1901770, Note_on_c, 0, 81, 96
1, 1901771, Note_on_c, 0, 79, 105
1, 1901776, Control_c, 0, 64, 44
1, 1901796, Control_c, 0, 64, 112
1, 1901814, Control_c, 0, 64, 127
1, 1901832, Note_off_c, 0, 57, 63
1, 1901840, Note_on_c, 0, 85, 9
1, 1901843, Note_off_c, 0, 67, 64
1, 1901855, Note_off_c, 0, 63, 61
1, 1901922, Note_off_c, 0, 85, 35
1, 1901954, Note_off_c, 0, 79, 55
1, 1901976, Note_off_c, 0, 91, 55
1, 1902022, Note_off_c, 0, 81, 59
1, 1902080, Note_off_c, 0, 87, 61
1, 1902106, Note_on_c, 0, 51, 64
1, 1902156, Note_on_c, 0, 58, 73
1, 1902220, Note_off_c, 0, 51, 60
1, 1902225, Note_on_c, 0, 63, 78
1, 1902290, Poly_aftertouch_c, 0, 55, 0
1, 1902300, Control_c, 0, 64, 83
1, 1902316, Note_on_c, 0, 91, 98
1, 1902317, Control_c, 0, 64, 38
1, 1902319, Note_on_c, 0, 87, 95
1, 1902320, Note_on_c, 0, 82, 99
1, 1902320, Note_on_c, 0, 79, 108
1, 1902321, Note_on_c, 0, 67, 99
1, 1902357, Control_c, 0, 64, 72
1, 1902373, Note_off_c, 0, 63, 64
1, 1902373, Control_c, 0, 64, 110
1, 1902384, Note_off_c, 0, 67, 63
1, 1902392, Control_c, 0, 64, 127
1, 1902411, Note_off_c, 0, 58, 60
1, 1902533, Note_off_c, 0, 79, 55
1, 1902616, Note_off_c, 0, 87, 63
1, 1902620, Note_off_c, 0, 91, 62
1, 1902622, Note_off_c, 0, 82, 58
1, 1902632, Note_on_c, 0, 50, 71
1, 1902663, Note_on_c, 0, 55, 66
1, 1902713, Note_on_c, 0, 58, 80
1, 1902728, Note_off_c, 0, 50, 60
1, 1902824, Control_c, 0, 64, 83
1, 1902842, Control_c, 0, 64, 29
1, 1902848, Note_on_c, 0, 89, 90
1, 1902850, Note_on_c, 0, 91, 97
1, 1902852, Note_on_c, 0, 82, 98
1, 1902852, Note_on_c, 0, 79, 106
1, 1902853, Note_on_c, 0, 67, 94
1, 1902853, Note_on_c, 0, 65, 89
1, 1902861, Control_c, 0, 64, 0
1, 1902880, Control_c, 0, 64, 43
1, 1902884, Note_off_c, 0, 55, 64
1, 1902884, Note_on_c, 0, 55, 41
1, 1902899, Control_c, 0, 64, 86
1, 1902917, Control_c, 0, 64, 127
1, 1902921, Note_off_c, 0, 67, 63
1, 1902934, Note_off_c, 0, 65, 60
1, 1902993, Note_off_c, 0, 58, 56
1, 1903017, Note_off_c, 0, 55, 47
1, 1903140, Note_on_c, 0, 48, 72
1, 1903149, Note_off_c, 0, 79, 51
1, 1903177, Note_off_c, 0, 89, 55
1, 1903177, Poly_aftertouch_c, 0, 89, 0
1, 1903179, Note_off_c, 0, 91, 59
1, 1903212, Note_on_c, 0, 55, 48
1, 1903242, Note_on_c, 0, 58, 84
1, 1903252, Note_off_c, 0, 48, 62
1, 1903252, Poly_aftertouch_c, 0, 48, 0
1, 1903253, Control_c, 0, 64, 91
1, 1903273, Control_c, 0, 64, 55
1, 1903285, Note_off_c, 0, 55, 62
1, 1903289, Note_off_c, 0, 82, 34
1, 1903289, Poly_aftertouch_c, 0, 52, 0
1, 1903309, Control_c, 0, 64, 83
1, 1903329, Control_c, 0, 64, 123
1, 1903336, Note_on_c, 0, 64, 84
1, 1903346, Note_off_c, 0, 58, 66
1, 1903347, Control_c, 0, 64, 127
1, 1903410, Note_off_c, 0, 64, 65
1, 1903435, Note_on_c, 0, 88, 91
1, 1903436, Note_on_c, 0, 82, 98
1, 1903436, Note_on_c, 0, 91, 98
1, 1903439, Note_on_c, 0, 79, 106
1, 1903448, Note_on_c, 0, 67, 99
1, 1903489, Note_off_c, 0, 67, 70
1, 1903778, Control_c, 0, 64, 120
1, 1903796, Control_c, 0, 64, 60
1, 1903814, Control_c, 0, 64, 0
1, 1903819, Note_on_c, 0, 48, 105
1, 1903825, Note_on_c, 0, 36, 101
1, 1903852, Control_c, 0, 64, 9
1, 1903871, Control_c, 0, 64, 82
1, 1903890, Control_c, 0, 64, 127
1, 1903892, Note_off_c, 0, 79, 53
1, 1903928, Note_off_c, 0, 91, 60
1, 1903939, Poly_aftertouch_c, 0, 44, 127
1, 1903964, Poly_aftertouch_c, 0, 44, 0
1, 1903987, Note_off_c, 0, 36, 64
1, 1903987, Poly_aftertouch_c, 0, 36, 0
1, 1903998, Note_off_c, 0, 88, 52
1, 1904006, Note_off_c, 0, 48, 68
1, 1904006, Poly_aftertouch_c, 0, 48, 0
1, 1904011, Note_off_c, 0, 82, 49
1, 1904457, Note_on_c, 0, 68, 103
1, 1904457, Note_on_c, 0, 58, 88
1, 1904459, Note_on_c, 0, 80, 113
1, 1904462, Note_on_c, 0, 92, 102
1, 1904462, Note_on_c, 0, 82, 101
1, 1904463, Note_on_c, 0, 64, 89
1, 1904464, Note_on_c, 0, 88, 93
1, 1904475, Note_on_c, 0, 60, 72
1, 1904538, Note_off_c, 0, 68, 67
1, 1904566, Note_off_c, 0, 64, 63
1, 1904578, Note_off_c, 0, 58, 65
1, 1904578, Note_off_c, 0, 60, 64
1, 1904578, Poly_aftertouch_c, 0, 60, 0
1, 1904781, Note_off_c, 0, 82, 52
1, 1904807, Note_off_c, 0, 88, 56
1, 1904834, Note_off_c, 0, 92, 59
1, 1904841, Note_off_c, 0, 80, 49
1, 1905158, Note_on_c, 0, 41, 109
1, 1905160, Control_c, 0, 64, 78
1, 1905162, Note_on_c, 0, 29, 99
1, 1905181, Control_c, 0, 64, 0
1, 1905202, Note_on_c, 0, 32, 53
1, 1905218, Control_c, 0, 64, 12
1, 1905221, Note_on_c, 0, 37, 26
1, 1905237, Control_c, 0, 64, 87
1, 1905254, Control_c, 0, 64, 127
1, 1905285, Note_off_c, 0, 37, 33
1, 1905297, Note_off_c, 0, 32, 64
1, 1905297, Note_on_c, 0, 32, 14
1, 1905341, Note_off_c, 0, 32, 60
1, 1905345, Note_off_c, 0, 29, 62
1, 1905370, Note_off_c, 0, 41, 65
1, 1905404, Poly_aftertouch_c, 0, 81, 0
1, 1905675, Note_on_c, 0, 53, 64
1, 1905709, Note_on_c, 0, 57, 60
1, 1905745, Note_on_c, 0, 60, 68
1, 1905778, Note_off_c, 0, 53, 60
1, 1905781, Note_on_c, 0, 63, 70
1, 1905831, Note_off_c, 0, 57, 61
1, 1905954, Note_on_c, 0, 93, 98
1, 1905959, Note_on_c, 0, 89, 92
1, 1905959, Note_on_c, 0, 81, 107
1, 1905962, Note_on_c, 0, 87, 96
1, 1905962, Note_on_c, 0, 69, 90
1, 1905962, Note_on_c, 0, 84, 97
1, 1905965, Note_on_c, 0, 71, 94
1, 1905988, Note_off_c, 0, 71, 74
1, 1905995, Note_off_c, 0, 69, 66
1, 1905995, Poly_aftertouch_c, 0, 69, 0
1, 1906015, Note_off_c, 0, 60, 64
1, 1906015, Note_off_c, 0, 63, 63
1, 1906015, Poly_aftertouch_c, 0, 60, 0
1, 1906061, Note_off_c, 0, 81, 61
1, 1906096, Note_off_c, 0, 93, 65
1, 1906132, Note_off_c, 0, 89, 60
1, 1906132, Poly_aftertouch_c, 0, 89, 0
1, 1906144, Note_off_c, 0, 84, 59
1, 1906159, Note_off_c, 0, 87, 60
1, 1906405, Note_on_c, 0, 34, 95
1, 1906432, Control_c, 0, 64, 85
1, 1906452, Control_c, 0, 64, 29
1, 1906470, Control_c, 0, 64, 36
1, 1906488, Control_c, 0, 64, 71
1, 1906508, Control_c, 0, 64, 102
1, 1906527, Control_c, 0, 64, 127
1, 1906555, Note_on_c, 0, 46, 104
1, 1906599, Note_off_c, 0, 34, 64
1, 1906599, Note_on_c, 0, 37, 31
1, 1906603, Note_off_c, 0, 46, 67
1, 1906657, Note_off_c, 0, 37, 40
1, 1906691, Poly_aftertouch_c, 0, 97, 0
1, 1906967, Note_on_c, 0, 101, 101
1, 1906968, Note_on_c, 0, 98, 96
1, 1906970, Note_on_c, 0, 89, 110
1, 1906972, Note_on_c, 0, 62, 88
1, 1906972, Note_on_c, 0, 94, 101
1, 1906973, Note_on_c, 0, 74, 104
1, 1906976, Note_on_c, 0, 65, 74
1, 1906978, Note_on_c, 0, 70, 96
1, 1907034, Note_off_c, 0, 74, 68
1, 1907072, Note_off_c, 0, 62, 65
1, 1907077, Note_off_c, 0, 70, 69
1, 1907081, Poly_aftertouch_c, 0, 68, 0
1, 1907086, Note_off_c, 0, 65, 63
1, 1907179, Note_off_c, 0, 101, 60
1, 1907199, Note_off_c, 0, 94, 65
1, 1907254, Note_off_c, 0, 98, 60
1, 1907333, Note_off_c, 0, 89, 48
1, 1907333, Poly_aftertouch_c, 0, 89, 0
1, 1907687, Note_on_c, 0, 53, 84
1, 1907688, Control_c, 0, 64, 73
1, 1907690, Note_on_c, 0, 98, 105
1, 1907691, Note_on_c, 0, 45, 80
1, 1907691, Note_on_c, 0, 86, 110
1, 1907694, Note_on_c, 0, 89, 97
1, 1907694, Note_on_c, 0, 93, 96
1, 1907695, Note_on_c, 0, 38, 81
1, 1907725, Control_c, 0, 64, 0
1, 1907726, Control_c, 0, 64, 16
1, 1907735, Note_on_c, 0, 47, 49
1, 1907741, Control_c, 0, 64, 57
1, 1907761, Control_c, 0, 64, 101
1, 1907778, Note_off_c, 0, 47, 35
1, 1907778, Control_c, 0, 64, 127
1, 1907816, Note_off_c, 0, 38, 61
1, 1907828, Note_off_c, 0, 98, 59
1, 1907846, Note_off_c, 0, 53, 60
1, 1907853, Note_off_c, 0, 45, 60
1, 1907877, Note_off_c, 0, 86, 61
1, 1907940, Note_off_c, 0, 89, 55
1, 1907940, Note_off_c, 0, 93, 54
1, 1907940, Poly_aftertouch_c, 0, 89, 0
1, 1908339, Note_on_c, 0, 91, 92
1, 1908340, Note_on_c, 0, 55, 102
1, 1908340, Note_on_c, 0, 82, 111
1, 1908340, Note_on_c, 0, 86, 93
1, 1908340, Control_c, 0, 64, 97
1, 1908342, Note_on_c, 0, 94, 103
1, 1908343, Note_on_c, 0, 43, 90
1, 1908346, Note_on_c, 0, 46, 88
1, 1908373, Control_c, 0, 64, 31
1, 1908377, Control_c, 0, 64, 0
1, 1908397, Control_c, 0, 64, 20
1, 1908414, Control_c, 0, 64, 75
1, 1908434, Control_c, 0, 64, 117
1, 1908454, Control_c, 0, 64, 127
1, 1908492, Note_off_c, 0, 43, 63
1, 1908512, Note_off_c, 0, 46, 63
1, 1908523, Note_off_c, 0, 55, 54
1, 1908610, Note_off_c, 0, 86, 59
1, 1908676, Note_off_c, 0, 91, 62
1, 1908731, Note_off_c, 0, 94, 42
1, 1908781, Note_off_c, 0, 82, 55
1, 1908940, Control_c, 0, 64, 117
1, 1908945, Note_on_c, 0, 60, 84
1, 1908949, Note_on_c, 0, 45, 83
1, 1908954, Note_on_c, 0, 93, 102
1, 1908955, Note_on_c, 0, 52, 81
1, 1908955, Note_on_c, 0, 84, 97
1, 1908956, Note_on_c, 0, 88, 91
1, 1908956, Note_on_c, 0, 81, 105
1, 1908959, Control_c, 0, 64, 65
1, 1908982, Control_c, 0, 64, 0
1, 1908996, Control_c, 0, 64, 43
1, 1909002, Note_on_c, 0, 90, 41
1, 1909013, Control_c, 0, 64, 90
1, 1909022, Note_off_c, 0, 60, 65
1, 1909022, Poly_aftertouch_c, 0, 60, 0
1, 1909031, Control_c, 0, 64, 127
1, 1909053, Note_off_c, 0, 90, 45
1, 1909074, Note_off_c, 0, 52, 64
1, 1909076, Poly_aftertouch_c, 0, 53, 0
1, 1909077, Note_off_c, 0, 45, 61
1, 1909293, Control_c, 0, 64, 101
1, 1909305, Note_on_c, 0, 34, 101
1, 1909311, Control_c, 0, 64, 38
1, 1909331, Control_c, 0, 64, 0
1, 1909374, Note_off_c, 0, 88, 62
1, 1909396, Note_off_c, 0, 84, 62
1, 1909407, Control_c, 0, 64, 80
1, 1909424, Control_c, 0, 64, 127
1, 1909437, Note_on_c, 0, 46, 98
1, 1909449, Note_off_c, 0, 93, 51
1, 1909465, Note_off_c, 0, 34, 65
1, 1909493, Note_off_c, 0, 46, 65
1, 1909523, Note_off_c, 0, 81, 54
1, 1909804, Note_on_c, 0, 89, 88
1, 1909805, Note_on_c, 0, 91, 96
1, 1909809, Note_on_c, 0, 82, 95
1, 1909809, Note_on_c, 0, 79, 105
1, 1909810, Note_on_c, 0, 55, 83
1, 1909815, Note_on_c, 0, 65, 102
1, 1909816, Note_on_c, 0, 62, 95
1, 1909816, Note_on_c, 0, 86, 87
1, 1909817, Note_on_c, 0, 58, 87
1, 1909887, Note_on_c, 0, 57, 30
1, 1910037, Note_off_c, 0, 55, 59
1, 1910038, Note_off_c, 0, 65, 52
1, 1910050, Note_off_c, 0, 57, 24
1, 1910118, Note_off_c, 0, 62, 53
1, 1910141, Note_off_c, 0, 58, 55
1, 1910771, Control_c, 0, 64, 87
1, 1910790, Control_c, 0, 64, 0
1, 1910810, Note_on_c, 0, 36, 97
1, 1910849, Poly_aftertouch_c, 0, 79, 24
1, 1910865, Control_c, 0, 64, 70
1, 1910870, Note_off_c, 0, 79, 52
1, 1910870, Poly_aftertouch_c, 0, 79, 0
1, 1910881, Note_off_c, 0, 91, 54
1, 1910883, Control_c, 0, 64, 115
1, 1910901, Control_c, 0, 64, 127
1, 1910902, Note_off_c, 0, 86, 59
1, 1910914, Note_off_c, 0, 89, 36
1, 1910914, Poly_aftertouch_c, 0, 89, 0
1, 1910922, Note_off_c, 0, 82, 49
1, 1910981, Note_on_c, 0, 48, 104
1, 1911006, Note_off_c, 0, 36, 62
1, 1911006, Poly_aftertouch_c, 0, 36, 0
1, 1911039, Note_off_c, 0, 48, 58
1, 1911039, Poly_aftertouch_c, 0, 48, 0
1, 1911352, Note_on_c, 0, 88, 93
1, 1911353, Note_on_c, 0, 55, 87
1, 1911353, Note_on_c, 0, 91, 99
1, 1911353, Note_on_c, 0, 82, 101
1, 1911356, Note_on_c, 0, 79, 105
1, 1911357, Note_on_c, 0, 64, 99
1, 1911357, Note_on_c, 0, 60, 90
1, 1911358, Note_on_c, 0, 58, 83
1, 1911639, Note_off_c, 0, 64, 51
1, 1911729, Note_off_c, 0, 55, 44
1, 1911729, Note_off_c, 0, 60, 53
1, 1911729, Poly_aftertouch_c, 0, 60, 0
1, 1911800, Note_off_c, 0, 58, 55
1, 1911996, Note_off_c, 0, 79, 49
1, 1911996, Poly_aftertouch_c, 0, 79, 0
1, 1912018, Note_off_c, 0, 91, 62
1, 1912122, Note_off_c, 0, 88, 58
1, 1912152, Note_on_c, 0, 93, 102
1, 1912155, Note_on_c, 0, 81, 101
1, 1912157, Note_on_c, 0, 88, 67
1, 1912191, Control_c, 0, 64, 100
1, 1912210, Note_on_c, 0, 41, 87
1, 1912210, Control_c, 0, 64, 37
1, 1912230, Control_c, 0, 64, 0
1, 1912304, Control_c, 0, 64, 68
1, 1912320, Note_on_c, 0, 48, 88
1, 1912323, Note_off_c, 0, 88, 48
1, 1912323, Control_c, 0, 64, 121
1, 1912341, Control_c, 0, 64, 127
1, 1912348, Note_off_c, 0, 41, 62
1, 1912354, Note_off_c, 0, 82, 39
1, 1912422, Note_on_c, 0, 53, 91
1, 1912426, Note_off_c, 0, 48, 63
1, 1912426, Poly_aftertouch_c, 0, 48, 0
1, 1912465, Note_off_c, 0, 53, 61
1, 1912478, Note_off_c, 0, 93, 60
1, 1912560, Note_on_c, 0, 57, 85
1, 1912563, Note_off_c, 0, 81, 56
1, 1912813, Note_off_c, 0, 57, 61
1, 1912816, Note_on_c, 0, 89, 97
1, 1912818, Note_on_c, 0, 77, 105
1, 1912819, Note_on_c, 0, 81, 93
1, 1912821, Note_on_c, 0, 84, 92
1, 1912823, Note_on_c, 0, 65, 101
1, 1912878, Note_off_c, 0, 65, 71
1, 1913781, Control_c, 0, 64, 74
1, 1913782, Note_on_c, 0, 46, 79
1, 1913800, Control_c, 0, 64, 39
1, 1913818, Control_c, 0, 64, 55
1, 1913833, Note_off_c, 0, 81, 60
1, 1913837, Control_c, 0, 64, 90
1, 1913853, Note_on_c, 0, 53, 72
1, 1913856, Control_c, 0, 64, 127
1, 1913879, Note_off_c, 0, 84, 60
1, 1913884, Note_off_c, 0, 46, 63
1, 1913914, Note_off_c, 0, 77, 55
1, 1913916, Note_off_c, 0, 89, 57
1, 1913916, Poly_aftertouch_c, 0, 89, 0
1, 1913936, Note_on_c, 0, 58, 81
1, 1914087, Note_on_c, 0, 86, 96
1, 1914088, Note_on_c, 0, 89, 100
1, 1914088, Note_on_c, 0, 77, 112
1, 1914089, Note_on_c, 0, 82, 102
1, 1914093, Note_on_c, 0, 62, 105
1, 1914143, Note_off_c, 0, 62, 68
1, 1914161, Note_off_c, 0, 53, 54
1, 1914176, Note_off_c, 0, 58, 62
1, 1914322, Note_off_c, 0, 82, 58
1, 1914324, Note_off_c, 0, 86, 58
1, 1915085, Note_on_c, 0, 41, 92
1, 1915146, Control_c, 0, 64, 114
1, 1915165, Control_c, 0, 64, 64
1, 1915183, Control_c, 0, 64, 0
1, 1915209, Note_on_c, 0, 48, 91
1, 1915334, Control_c, 0, 64, 40
1, 1915340, Note_on_c, 0, 53, 97
1, 1915353, Control_c, 0, 64, 109
1, 1915370, Control_c, 0, 64, 127
1, 1915378, Note_off_c, 0, 41, 63
1, 1915381, Note_off_c, 0, 48, 64
1, 1915381, Poly_aftertouch_c, 0, 48, 0
1, 1915400, Note_off_c, 0, 53, 67
1, 1915485, Note_off_c, 0, 77, 43
1, 1915523, Note_off_c, 0, 89, 53
1, 1915523, Poly_aftertouch_c, 0, 89, 0
1, 1915636, Note_on_c, 0, 89, 101
1, 1915638, Note_on_c, 0, 81, 93
1, 1915639, Note_on_c, 0, 84, 89
1, 1915639, Note_on_c, 0, 77, 105
1, 1915653, Note_on_c, 0, 60, 110
1, 1915693, Note_off_c, 0, 60, 74
1, 1915693, Poly_aftertouch_c, 0, 60, 0
1, 1915728, Note_on_c, 0, 87, 16
1, 1915729, Note_off_c, 0, 87, 127
1, 1916528, Note_off_c, 0, 89, 42
1, 1916528, Poly_aftertouch_c, 0, 89, 0
1, 1916618, Note_off_c, 0, 84, 55
1, 1916630, Note_off_c, 0, 81, 56
1, 1916693, Note_on_c, 0, 34, 91
1, 1916717, Note_off_c, 0, 77, 65
1, 1916736, Control_c, 0, 64, 77
1, 1916754, Control_c, 0, 64, 15
1, 1916773, Control_c, 0, 64, 26
1, 1916790, Note_on_c, 0, 41, 82
1, 1916792, Control_c, 0, 64, 78
1, 1916811, Control_c, 0, 64, 127
1, 1916834, Note_off_c, 0, 34, 60
1, 1916897, Note_on_c, 0, 46, 87
1, 1917173, Note_on_c, 0, 74, 93
1, 1917174, Note_on_c, 0, 65, 106
1, 1917174, Note_on_c, 0, 70, 101
1, 1917175, Note_on_c, 0, 77, 99
1, 1917182, Note_on_c, 0, 50, 108
1, 1917291, Note_off_c, 0, 50, 59
1, 1917347, Note_off_c, 0, 46, 54
1, 1917353, Note_off_c, 0, 41, 57
1, 1917368, Poly_aftertouch_c, 0, 42, 0
1, 1917470, Note_off_c, 0, 70, 56
1, 1917521, Note_off_c, 0, 74, 57
1, 1918364, Note_on_c, 0, 29, 97
1, 1918531, Control_c, 0, 64, 121
1, 1918549, Control_c, 0, 64, 107
1, 1918568, Control_c, 0, 64, 95
1, 1918587, Control_c, 0, 64, 87
1, 1918606, Control_c, 0, 64, 83
1, 1918625, Control_c, 0, 64, 79
1, 1918643, Control_c, 0, 64, 75
1, 1918662, Control_c, 0, 64, 71
1, 1918680, Control_c, 0, 64, 68
1, 1918699, Control_c, 0, 64, 66
1, 1918717, Control_c, 0, 64, 64
1, 1918734, Note_on_c, 0, 36, 98
1, 1918736, Control_c, 0, 64, 58
1, 1918755, Control_c, 0, 64, 44
1, 1918774, Control_c, 0, 64, 9
1, 1918793, Control_c, 0, 64, 0
1, 1919010, Note_on_c, 0, 41, 101
1, 1919036, Control_c, 0, 64, 24
1, 1919054, Control_c, 0, 64, 118
1, 1919073, Control_c, 0, 64, 127
1, 1919158, Note_off_c, 0, 29, 59
1, 1919221, Note_off_c, 0, 36, 53
1, 1919221, Poly_aftertouch_c, 0, 36, 0
1, 1919236, Note_off_c, 0, 41, 59
1, 1919337, Note_off_c, 0, 65, 49
1, 1919374, Note_off_c, 0, 77, 51
1, 1919610, Note_on_c, 0, 77, 92
1, 1919612, Note_on_c, 0, 69, 95
1, 1919614, Note_on_c, 0, 65, 97
1, 1919617, Note_on_c, 0, 72, 88
1, 1919624, Note_on_c, 0, 48, 105
1, 1921937, Note_off_c, 0, 48, 60
1, 1921937, Poly_aftertouch_c, 0, 48, 0
1, 1921951, Note_off_c, 0, 65, 62
1, 1921964, Note_off_c, 0, 69, 59
1, 1921964, Poly_aftertouch_c, 0, 69, 0
1, 1921968, Note_off_c, 0, 72, 61
1, 1921971, Control_c, 0, 64, 121
1, 1921990, Control_c, 0, 64, 63
1, 1921994, Note_off_c, 0, 77, 57
1, 1922002, Poly_aftertouch_c, 0, 46, 0
1, 1922009, Control_c, 0, 64, 0
1, 1922009, End_track
0, 0, End_of_file
